0, 0, Header, 1, 2, 512
1, 0, Start_track
1, 0, Title_t, "test2"
1, 0, Tempo, 500000
1, 0, Time_signature, 4, 2, 24, 8
1, 0, End_track
2, 0, Start_track
2, 0, Title_t, "Kontakt 5 01"
2, 0, Program_c, 0, 19
2, 0, Control_c, 0, 7, 90
2, 0, Control_c, 0, 7, 90
2, 0, Program_c, 0, 73
2, 0, Control_c, 0, 7, 90
2, 0, Program_c, 0, 48
2, 0, Control_c, 0, 7, 90
2, 0, Program_c, 0, 48
2, 0, Control_c, 0, 7, 90
2, 0, Program_c, 0, 48
2, 0, Control_c, 0, 7, 90
2, 0, Program_c, 0, 52
2, 0, Program_c, 0, 52
2, 0, Program_c, 0, 52
2, 0, Program_c, 0, 48
2, 0, Control_c, 0, 7, 90
2, 1024, Note_on_c, 0, 62, 40
2, 1024, Note_on_c, 0, 66, 64
2, 1024, Note_on_c, 0, 66, 40
2, 1024, Note_on_c, 0, 71, 40
2, 1280, Note_off_c, 0, 66, 64
2, 1280, Note_on_c, 0, 62, 64
2, 1536, Note_off_c, 0, 62, 64
2, 1536, Note_on_c, 0, 50, 64
2, 1536, Note_on_c, 0, 50, 30
2, 1536, Note_on_c, 0, 59, 64
2, 1536, Note_on_c, 0, 59, 30
2, 1536, Note_on_c, 0, 66, 30
2, 1536, Note_on_c, 0, 71, 30
2, 1792, Note_off_c, 0, 62, 64
2, 1792, Note_on_c, 0, 59, 40
2, 1869, Note_off_c, 0, 50, 64
2, 1958, Note_off_c, 0, 59, 64
2, 2048, Note_off_c, 0, 50, 64
2, 2048, Note_off_c, 0, 59, 64
2, 2048, Note_off_c, 0, 59, 64
2, 2048, Note_off_c, 0, 66, 64
2, 2048, Note_off_c, 0, 71, 64
2, 2048, Note_on_c, 0, 50, 64
2, 2048, Note_on_c, 0, 59, 64
2, 2048, Note_on_c, 0, 62, 40
2, 2304, Note_off_c, 0, 62, 64
2, 2304, Note_on_c, 0, 59, 40
2, 2381, Note_off_c, 0, 50, 64
2, 2470, Note_off_c, 0, 59, 64
2, 2560, Note_off_c, 0, 59, 64
2, 2560, Note_on_c, 0, 50, 64
2, 2560, Note_on_c, 0, 59, 64
2, 2560, Note_on_c, 0, 59, 64
2, 2560, Note_on_c, 0, 62, 40
2, 2816, Note_off_c, 0, 59, 64
2, 2816, Note_off_c, 0, 62, 64
2, 2816, Note_on_c, 0, 55, 64
2, 2816, Note_on_c, 0, 59, 40
2, 2893, Note_off_c, 0, 50, 64
2, 2982, Note_off_c, 0, 59, 64
2, 3072, Note_off_c, 0, 66, 64
2, 3072, Note_off_c, 0, 59, 64
2, 3072, Note_off_c, 0, 55, 64
2, 3072, Note_on_c, 0, 52, 64
2, 3072, Note_on_c, 0, 52, 64
2, 3072, Note_on_c, 0, 52, 30
2, 3072, Note_on_c, 0, 62, 40
2, 3072, Note_on_c, 0, 64, 30
2, 3072, Note_on_c, 0, 67, 64
2, 3072, Note_on_c, 0, 67, 40
2, 3072, Note_on_c, 0, 67, 30
2, 3072, Note_on_c, 0, 71, 30
2, 3328, Note_off_c, 0, 62, 64
2, 3328, Note_on_c, 0, 59, 40
2, 3405, Note_off_c, 0, 52, 64
2, 3494, Note_off_c, 0, 59, 64
2, 3584, Note_off_c, 0, 52, 64
2, 3584, Note_off_c, 0, 52, 64
2, 3584, Note_off_c, 0, 64, 64
2, 3584, Note_off_c, 0, 67, 64
2, 3584, Note_off_c, 0, 71, 64
2, 3584, Note_on_c, 0, 52, 64
2, 3584, Note_on_c, 0, 52, 64
2, 3584, Note_on_c, 0, 62, 40
2, 3840, Note_off_c, 0, 62, 64
2, 3840, Note_on_c, 0, 59, 40
2, 3917, Note_off_c, 0, 52, 64
2, 4006, Note_off_c, 0, 59, 64
2, 4096, Note_off_c, 0, 52, 64
2, 4096, Note_on_c, 0, 52, 64
2, 4096, Note_on_c, 0, 52, 64
2, 4096, Note_on_c, 0, 62, 40
2, 4352, Note_off_c, 0, 62, 64
2, 4352, Note_on_c, 0, 59, 40
2, 4429, Note_off_c, 0, 52, 64
2, 4518, Note_off_c, 0, 59, 64
2, 4608, Note_off_c, 0, 67, 64
2, 4608, Note_off_c, 0, 52, 64
2, 4608, Note_on_c, 0, 45, 64
2, 4608, Note_on_c, 0, 45, 30
2, 4608, Note_on_c, 0, 57, 30
2, 4608, Note_on_c, 0, 60, 64
2, 4608, Note_on_c, 0, 60, 40
2, 4608, Note_on_c, 0, 60, 30
2, 4608, Note_on_c, 0, 64, 40
2, 4608, Note_on_c, 0, 64, 30
2, 4608, Note_on_c, 0, 67, 30
2, 4864, Note_off_c, 0, 60, 64
2, 4864, Note_on_c, 0, 59, 40
2, 4941, Note_off_c, 0, 45, 64
2, 5030, Note_off_c, 0, 59, 64
2, 5120, Note_off_c, 0, 71, 64
2, 5120, Note_off_c, 0, 67, 64
2, 5120, Note_off_c, 0, 45, 64
2, 5120, Note_off_c, 0, 67, 64
2, 5120, Note_on_c, 0, 45, 64
2, 5120, Note_on_c, 0, 60, 40
2, 5120, Note_on_c, 0, 66, 64
2, 5120, Note_on_c, 0, 66, 30
2, 5120, Note_on_c, 0, 69, 40
2, 5376, Note_off_c, 0, 60, 64
2, 5376, Note_on_c, 0, 59, 40
2, 5453, Note_off_c, 0, 45, 64
2, 5542, Note_off_c, 0, 59, 64
2, 5632, Note_off_c, 0, 64, 64
2, 5632, Note_off_c, 0, 66, 64
2, 5632, Note_off_c, 0, 66, 64
2, 5632, Note_off_c, 0, 69, 64
2, 5632, Note_on_c, 0, 45, 64
2, 5632, Note_on_c, 0, 60, 40
2, 5632, Note_on_c, 0, 64, 64
2, 5632, Note_on_c, 0, 67, 40
2, 5632, Note_on_c, 0, 69, 40
2, 5888, Note_off_c, 0, 60, 64
2, 5888, Note_on_c, 0, 57, 40
2, 5965, Note_off_c, 0, 45, 64
2, 6054, Note_off_c, 0, 57, 64
2, 6144, Note_off_c, 0, 57, 64
2, 6144, Note_off_c, 0, 60, 64
2, 6144, Note_off_c, 0, 64, 64
2, 6144, Note_off_c, 0, 64, 64
2, 6144, Note_off_c, 0, 67, 64
2, 6144, Note_on_c, 0, 47, 64
2, 6144, Note_on_c, 0, 47, 30
2, 6144, Note_on_c, 0, 60, 30
2, 6144, Note_on_c, 0, 63, 64
2, 6144, Note_on_c, 0, 63, 30
2, 6144, Note_on_c, 0, 66, 40
2, 6144, Note_on_c, 0, 66, 40
2, 6400, Note_off_c, 0, 66, 64
2, 6400, Note_on_c, 0, 59, 40
2, 6477, Note_off_c, 0, 47, 64
2, 6566, Note_off_c, 0, 59, 64
2, 6656, Note_off_c, 0, 60, 64
2, 6656, Note_off_c, 0, 69, 64
2, 6656, Note_off_c, 0, 47, 64
2, 6656, Note_off_c, 0, 60, 64
2, 6656, Note_on_c, 0, 47, 64
2, 6656, Note_on_c, 0, 59, 64
2, 6656, Note_on_c, 0, 59, 30
2, 6656, Note_on_c, 0, 63, 40
2, 6656, Note_on_c, 0, 67, 40
2, 6912, Note_off_c, 0, 63, 64
2, 6912, Note_on_c, 0, 59, 40
2, 6989, Note_off_c, 0, 47, 64
2, 7078, Note_off_c, 0, 59, 64
2, 7168, Note_off_c, 0, 63, 64
2, 7168, Note_off_c, 0, 63, 64
2, 7168, Note_off_c, 0, 66, 64
2, 7168, Note_off_c, 0, 59, 64
2, 7168, Note_off_c, 0, 59, 64
2, 7168, Note_off_c, 0, 67, 64
2, 7168, Note_on_c, 0, 47, 64
2, 7168, Note_on_c, 0, 57, 64
2, 7168, Note_on_c, 0, 63, 64
2, 7168, Note_on_c, 0, 66, 40
2, 7168, Note_on_c, 0, 66, 40
2, 7168, Note_on_c, 0, 71, 40
2, 7424, Note_off_c, 0, 66, 64
2, 7424, Note_on_c, 0, 59, 40
2, 7501, Note_off_c, 0, 47, 64
2, 7590, Note_off_c, 0, 59, 64
2, 7680, Note_off_c, 0, 57, 64
2, 7680, Note_off_c, 0, 63, 64
2, 7680, Note_off_c, 0, 66, 64
2, 7680, Note_on_c, 0, 41, 64
2, 7680, Note_on_c, 0, 41, 30
2, 7680, Note_on_c, 0, 53, 30
2, 7680, Note_on_c, 0, 56, 64
2, 7680, Note_on_c, 0, 56, 30
2, 7680, Note_on_c, 0, 59, 30
2, 7680, Note_on_c, 0, 62, 30
2, 7680, Note_on_c, 0, 68, 40
2, 7680, Note_on_c, 0, 71, 40
2, 7936, Note_off_c, 0, 71, 64
2, 7936, Note_off_c, 0, 68, 64
2, 7936, Note_on_c, 0, 65, 40
2, 7936, Note_on_c, 0, 73, 40
2, 8013, Note_off_c, 0, 41, 64
2, 8102, Note_off_c, 0, 65, 64
2, 8192, Note_off_c, 0, 41, 64
2, 8192, Note_off_c, 0, 53, 64
2, 8192, Note_off_c, 0, 56, 64
2, 8192, Note_off_c, 0, 59, 64
2, 8192, Note_off_c, 0, 62, 64
2, 8192, Note_off_c, 0, 73, 64
2, 8192, Note_on_c, 0, 41, 64
2, 8192, Note_on_c, 0, 62, 64
2, 8192, Note_on_c, 0, 68, 40
2, 8192, Note_on_c, 0, 71, 40
2, 8448, Note_off_c, 0, 62, 64
2, 8448, Note_off_c, 0, 68, 64
2, 8448, Note_off_c, 0, 71, 64
2, 8448, Note_on_c, 0, 61, 64
2, 8448, Note_on_c, 0, 65, 40
2, 8448, Note_on_c, 0, 70, 40
2, 8525, Note_off_c, 0, 41, 64
2, 8614, Note_off_c, 0, 65, 64
2, 8704, Note_off_c, 0, 56, 64
2, 8704, Note_off_c, 0, 71, 64
2, 8704, Note_off_c, 0, 61, 64
2, 8704, Note_off_c, 0, 70, 64
2, 8704, Note_on_c, 0, 41, 64
2, 8704, Note_on_c, 0, 56, 64
2, 8704, Note_on_c, 0, 61, 64
2, 8704, Note_on_c, 0, 68, 40
2, 8704, Note_on_c, 0, 68, 40
2, 8704, Note_on_c, 0, 71, 40
2, 8960, Note_off_c, 0, 61, 64
2, 8960, Note_off_c, 0, 68, 64
2, 8960, Note_off_c, 0, 71, 64
2, 8960, Note_on_c, 0, 59, 64
2, 8960, Note_on_c, 0, 65, 40
2, 8960, Note_on_c, 0, 73, 40
2, 9037, Note_off_c, 0, 41, 64
2, 9126, Note_off_c, 0, 65, 64
2, 9216, Note_off_c, 0, 56, 64
2, 9216, Note_off_c, 0, 68, 64
2, 9216, Note_off_c, 0, 59, 64
2, 9216, Note_off_c, 0, 73, 64
2, 9216, Note_on_c, 0, 42, 30
2, 9216, Note_on_c, 0, 55, 30
2, 9216, Note_on_c, 0, 58, 30
2, 9216, Control_c, 0, 7, 90
2, 9216, Note_on_c, 0, 42, 64
2, 9216, Note_on_c, 0, 58, 64
2, 9216, Note_on_c, 0, 64, 40
2, 9216, Note_on_c, 0, 67, 40
2, 9216, Note_on_c, 0, 70, 40
2, 9472, Note_off_c, 0, 67, 64
2, 9472, Note_off_c, 0, 70, 64
2, 9472, Note_on_c, 0, 61, 40
2, 9472, Note_on_c, 0, 66, 40
2, 9549, Note_off_c, 0, 42, 64
2, 9638, Note_off_c, 0, 61, 64
2, 9638, Note_off_c, 0, 66, 64
2, 9728, Note_off_c, 0, 42, 64
2, 9728, Note_off_c, 0, 55, 64
2, 9728, Note_off_c, 0, 58, 64
2, 9728, Note_off_c, 0, 58, 64
2, 9728, Note_on_c, 0, 42, 64
2, 9728, Note_on_c, 0, 54, 30
2, 9728, Note_on_c, 0, 55, 64
2, 9728, Note_on_c, 0, 58, 64
2, 9728, Note_on_c, 0, 58, 30
2, 9728, Note_on_c, 0, 64, 40
2, 9728, Note_on_c, 0, 70, 40
2, 9984, Note_off_c, 0, 55, 64
2, 9984, Note_off_c, 0, 64, 64
2, 9984, Note_off_c, 0, 70, 64
2, 9984, Note_on_c, 0, 54, 64
2, 9984, Note_on_c, 0, 64, 40
2, 9984, Note_on_c, 0, 67, 40
2, 10061, Note_off_c, 0, 42, 64
2, 10150, Note_off_c, 0, 64, 64
2, 10150, Note_off_c, 0, 67, 64
2, 10240, Note_off_c, 0, 64, 64
2, 10240, Note_off_c, 0, 54, 64
2, 10240, Note_off_c, 0, 58, 64
2, 10240, Note_off_c, 0, 58, 64
2, 10240, Note_off_c, 0, 54, 64
2, 10240, Note_on_c, 0, 42, 64
2, 10240, Note_on_c, 0, 54, 64
2, 10240, Note_on_c, 0, 61, 40
2, 10240, Note_on_c, 0, 70, 40
2, 10240, Note_on_c, 0, 73, 64
2, 10240, Note_on_c, 0, 73, 40
2, 10496, Note_off_c, 0, 54, 64
2, 10496, Note_off_c, 0, 61, 64
2, 10496, Note_off_c, 0, 70, 64
2, 10496, Note_off_c, 0, 73, 64
2, 10496, Note_on_c, 0, 52, 64
2, 10496, Note_on_c, 0, 66, 40
2, 10496, Note_on_c, 0, 66, 40
2, 10496, Note_on_c, 0, 70, 64
2, 10573, Note_off_c, 0, 42, 64
2, 10662, Note_off_c, 0, 66, 64
2, 10752, Note_off_c, 0, 52, 64
2, 10752, Note_off_c, 0, 70, 64
2, 10752, Note_on_c, 0, 47, 64
2, 10752, Note_on_c, 0, 47, 30
2, 10752, Note_on_c, 0, 50, 64
2, 10752, Note_on_c, 0, 59, 30
2, 10752, Note_on_c, 0, 62, 30
2, 10752, Note_on_c, 0, 66, 64
2, 10752, Note_on_c, 0, 66, 40
2, 10752, Note_on_c, 0, 66, 30
2, 10752, Note_on_c, 0, 78, 40
2, 10880, Note_off_c, 0, 78, 64
2, 10880, Note_on_c, 0, 79, 40
2, 11008, Note_off_c, 0, 66, 64
2, 11008, Note_off_c, 0, 66, 64
2, 11008, Note_off_c, 0, 79, 64
2, 11008, Note_on_c, 0, 59, 40
2, 11008, Note_on_c, 0, 64, 40
2, 11008, Note_on_c, 0, 78, 40
2, 11085, Note_off_c, 0, 47, 64
2, 11136, Note_off_c, 0, 78, 64
2, 11136, Note_on_c, 0, 76, 40
2, 11174, Note_off_c, 0, 59, 64
2, 11264, Note_off_c, 0, 73, 64
2, 11264, Note_off_c, 0, 47, 64
2, 11264, Note_off_c, 0, 50, 64
2, 11264, Note_off_c, 0, 59, 64
2, 11264, Note_off_c, 0, 62, 64
2, 11264, Note_off_c, 0, 66, 64
2, 11264, Note_off_c, 0, 66, 64
2, 11264, Note_off_c, 0, 64, 64
2, 11264, Note_off_c, 0, 76, 64
2, 11264, Note_on_c, 0, 47, 64
2, 11264, Note_on_c, 0, 50, 64
2, 11264, Note_on_c, 0, 62, 64
2, 11264, Note_on_c, 0, 62, 40
2, 11264, Note_on_c, 0, 66, 64
2, 11264, Note_on_c, 0, 66, 40
2, 11264, Note_on_c, 0, 71, 40
2, 11264, Note_on_c, 0, 78, 40
2, 11392, Note_off_c, 0, 78, 64
2, 11392, Note_on_c, 0, 76, 40
2, 11520, Note_off_c, 0, 62, 64
2, 11520, Note_off_c, 0, 62, 64
2, 11520, Note_off_c, 0, 66, 64
2, 11520, Note_off_c, 0, 71, 64
2, 11520, Note_off_c, 0, 76, 64
2, 11520, Note_on_c, 0, 61, 40
2, 11520, Note_on_c, 0, 61, 40
2, 11520, Note_on_c, 0, 64, 64
2, 11520, Note_on_c, 0, 70, 40
2, 11520, Note_on_c, 0, 74, 40
2, 11597, Note_off_c, 0, 47, 64
2, 11648, Note_off_c, 0, 74, 64
2, 11648, Note_on_c, 0, 73, 40
2, 11686, Note_off_c, 0, 61, 64
2, 11776, Note_off_c, 0, 50, 64
2, 11776, Note_off_c, 0, 66, 64
2, 11776, Note_off_c, 0, 61, 64
2, 11776, Note_off_c, 0, 64, 64
2, 11776, Note_off_c, 0, 70, 64
2, 11776, Note_off_c, 0, 73, 64
2, 11776, Note_on_c, 0, 47, 64
2, 11776, Note_on_c, 0, 54, 64
2, 11776, Note_on_c, 0, 62, 40
2, 11776, Note_on_c, 0, 66, 64
2, 11776, Note_on_c, 0, 66, 64
2, 11776, Note_on_c, 0, 66, 40
2, 11776, Note_on_c, 0, 71, 40
2, 11776, Note_on_c, 0, 71, 40
2, 11904, Note_off_c, 0, 71, 64
2, 11904, Note_on_c, 0, 74, 40
2, 12032, Note_off_c, 0, 54, 64
2, 12032, Note_off_c, 0, 66, 64
2, 12032, Note_off_c, 0, 66, 64
2, 12032, Note_off_c, 0, 74, 64
2, 12032, Note_on_c, 0, 50, 64
2, 12032, Note_on_c, 0, 59, 64
2, 12032, Note_on_c, 0, 59, 40
2, 12032, Note_on_c, 0, 73, 40
2, 12109, Note_off_c, 0, 47, 64
2, 12160, Note_off_c, 0, 73, 64
2, 12160, Note_on_c, 0, 71, 40
2, 12198, Note_off_c, 0, 59, 64
2, 12288, Note_off_c, 0, 66, 64
2, 12288, Note_off_c, 0, 50, 64
2, 12288, Note_off_c, 0, 59, 64
2, 12288, Note_off_c, 0, 71, 64
2, 12288, Note_on_c, 0, 43, 64
2, 12288, Note_on_c, 0, 43, 30
2, 12288, Note_on_c, 0, 47, 64
2, 12288, Note_on_c, 0, 59, 30
2, 12288, Note_on_c, 0, 62, 30
2, 12288, Note_on_c, 0, 67, 64
2, 12288, Note_on_c, 0, 67, 40
2, 12288, Note_on_c, 0, 67, 30
2, 12288, Note_on_c, 0, 74, 64
2, 12288, Note_on_c, 0, 74, 40
2, 12288, Note_on_c, 0, 83, 40
2, 12416, Note_off_c, 0, 74, 64
2, 12416, Note_on_c, 0, 72, 40
2, 12544, Note_off_c, 0, 62, 64
2, 12544, Note_off_c, 0, 67, 64
2, 12544, Note_off_c, 0, 72, 64
2, 12544, Note_on_c, 0, 64, 42
2, 12544, Note_on_c, 0, 72, 42
2, 12544, Note_on_c, 0, 74, 40
2, 12621, Note_off_c, 0, 43, 64
2, 12672, Note_off_c, 0, 74, 64
2, 12672, Note_on_c, 0, 76, 40
2, 12710, Note_off_c, 0, 64, 64
2, 12800, Note_off_c, 0, 43, 64
2, 12800, Note_off_c, 0, 47, 64
2, 12800, Note_off_c, 0, 59, 64
2, 12800, Note_off_c, 0, 62, 64
2, 12800, Note_off_c, 0, 67, 64
2, 12800, Note_off_c, 0, 72, 64
2, 12800, Note_off_c, 0, 76, 64
2, 12800, Note_on_c, 0, 43, 64
2, 12800, Note_on_c, 0, 47, 66
2, 12800, Note_on_c, 0, 59, 66
2, 12800, Note_on_c, 0, 67, 44
2, 12800, Note_on_c, 0, 71, 44
2, 12800, Note_on_c, 0, 74, 40
2, 12928, Note_off_c, 0, 74, 64
2, 12928, Note_on_c, 0, 72, 40
2, 13056, Note_off_c, 0, 59, 64
2, 13056, Note_off_c, 0, 67, 64
2, 13056, Note_off_c, 0, 71, 64
2, 13056, Note_off_c, 0, 72, 64
2, 13056, Note_on_c, 0, 60, 67
2, 13056, Note_on_c, 0, 64, 46
2, 13056, Note_on_c, 0, 69, 46
2, 13056, Note_on_c, 0, 71, 40
2, 13133, Note_off_c, 0, 43, 64
2, 13184, Note_off_c, 0, 71, 64
2, 13184, Note_on_c, 0, 69, 40
2, 13222, Note_off_c, 0, 64, 64
2, 13222, Note_off_c, 0, 69, 64
2, 13312, Note_off_c, 0, 47, 64
2, 13312, Note_off_c, 0, 60, 64
2, 13312, Note_off_c, 0, 69, 64
2, 13312, Note_on_c, 0, 43, 64
2, 13312, Note_on_c, 0, 47, 68
2, 13312, Note_on_c, 0, 62, 68
2, 13312, Note_on_c, 0, 67, 48
2, 13312, Note_on_c, 0, 67, 40
2, 13312, Note_on_c, 0, 71, 48
2, 13440, Note_off_c, 0, 67, 64
2, 13440, Note_on_c, 0, 71, 40
2, 13568, Note_off_c, 0, 62, 64
2, 13568, Note_off_c, 0, 67, 64
2, 13568, Note_off_c, 0, 71, 64
2, 13568, Note_off_c, 0, 71, 64
2, 13568, Note_on_c, 0, 55, 69
2, 13568, Note_on_c, 0, 59, 50
2, 13568, Note_on_c, 0, 66, 50
2, 13568, Note_on_c, 0, 69, 40
2, 13645, Note_off_c, 0, 43, 64
2, 13696, Note_off_c, 0, 69, 64
2, 13696, Note_on_c, 0, 67, 40
2, 13734, Note_off_c, 0, 59, 64
2, 13734, Note_off_c, 0, 66, 64
2, 13824, Note_off_c, 0, 47, 64
2, 13824, Note_off_c, 0, 55, 64
2, 13824, Note_off_c, 0, 67, 64
2, 13824, Note_on_c, 0, 40, 64
2, 13824, Note_on_c, 0, 40, 30
2, 13824, Note_on_c, 0, 52, 30
2, 13824, Note_on_c, 0, 55, 70
2, 13824, Note_on_c, 0, 59, 30
2, 13824, Note_on_c, 0, 62, 30
2, 13824, Note_on_c, 0, 64, 70
2, 13824, Note_on_c, 0, 64, 52
2, 13824, Note_on_c, 0, 67, 52
2, 13824, Note_on_c, 0, 76, 40
2, 13952, Note_off_c, 0, 83, 64
2, 13952, Note_on_c, 0, 81, 40
2, 14080, Note_off_c, 0, 71, 64
2, 14080, Note_off_c, 0, 67, 64
2, 14080, Note_off_c, 0, 64, 64
2, 14080, Note_off_c, 0, 81, 64
2, 14080, Note_on_c, 0, 59, 54
2, 14080, Note_on_c, 0, 66, 70
2, 14080, Note_on_c, 0, 69, 54
2, 14080, Note_on_c, 0, 83, 40
2, 14157, Note_off_c, 0, 40, 64
2, 14208, Note_off_c, 0, 83, 64
2, 14208, Note_on_c, 0, 84, 40
2, 14246, Note_off_c, 0, 59, 64
2, 14336, Note_off_c, 0, 74, 64
2, 14336, Note_off_c, 0, 40, 64
2, 14336, Note_off_c, 0, 52, 64
2, 14336, Note_off_c, 0, 59, 64
2, 14336, Note_off_c, 0, 62, 64
2, 14336, Note_off_c, 0, 66, 64
2, 14336, Note_off_c, 0, 69, 64
2, 14336, Note_off_c, 0, 84, 64
2, 14336, Note_on_c, 0, 40, 64
2, 14336, Note_on_c, 0, 64, 71
2, 14336, Note_on_c, 0, 64, 56
2, 14336, Note_on_c, 0, 67, 56
2, 14336, Note_on_c, 0, 73, 71
2, 14336, Note_on_c, 0, 83, 40
2, 14464, Note_off_c, 0, 83, 64
2, 14464, Note_on_c, 0, 81, 40
2, 14592, Note_off_c, 0, 67, 64
2, 14592, Note_off_c, 0, 64, 64
2, 14592, Note_off_c, 0, 67, 64
2, 14592, Note_off_c, 0, 81, 64
2, 14592, Note_on_c, 0, 59, 58
2, 14592, Note_on_c, 0, 66, 58
2, 14592, Note_on_c, 0, 69, 58
2, 14592, Note_on_c, 0, 79, 40
2, 14669, Note_off_c, 0, 40, 64
2, 14720, Note_off_c, 0, 79, 64
2, 14720, Note_on_c, 0, 78, 40
2, 14758, Note_off_c, 0, 59, 64
2, 14758, Note_off_c, 0, 66, 64
2, 14848, Note_off_c, 0, 64, 64
2, 14848, Note_off_c, 0, 73, 64
2, 14848, Note_off_c, 0, 69, 64
2, 14848, Note_off_c, 0, 78, 64
2, 14848, Note_on_c, 0, 40, 64
2, 14848, Note_on_c, 0, 62, 73
2, 14848, Note_on_c, 0, 64, 60
2, 14848, Note_on_c, 0, 67, 60
2, 14848, Note_on_c, 0, 71, 73
2, 14848, Note_on_c, 0, 71, 60
2, 14848, Note_on_c, 0, 76, 40
2, 14976, Note_off_c, 0, 76, 64
2, 14976, Note_on_c, 0, 79, 40
2, 15104, Note_off_c, 0, 64, 64
2, 15104, Note_off_c, 0, 67, 64
2, 15104, Note_off_c, 0, 71, 64
2, 15104, Note_off_c, 0, 79, 64
2, 15104, Note_on_c, 0, 55, 62
2, 15104, Note_on_c, 0, 64, 62
2, 15104, Note_on_c, 0, 67, 62
2, 15104, Note_on_c, 0, 78, 40
2, 15181, Note_off_c, 0, 40, 64
2, 15232, Note_off_c, 0, 78, 64
2, 15232, Note_on_c, 0, 76, 40
2, 15270, Note_off_c, 0, 55, 64
2, 15270, Note_off_c, 0, 64, 64
2, 15270, Note_off_c, 0, 67, 64
2, 15360, Note_off_c, 0, 62, 64
2, 15360, Note_off_c, 0, 71, 64
2, 15360, Note_off_c, 0, 76, 64
2, 15360, Note_on_c, 0, 42, 64
2, 15360, Note_on_c, 0, 42, 30
2, 15360, Note_on_c, 0, 58, 30
2, 15360, Note_on_c, 0, 61, 75
2, 15360, Note_on_c, 0, 61, 64
2, 15360, Note_on_c, 0, 61, 64
2, 15360, Note_on_c, 0, 61, 30
2, 15360, Note_on_c, 0, 64, 30
2, 15360, Note_on_c, 0, 67, 30
2, 15360, Note_on_c, 0, 70, 75
2, 15360, Note_on_c, 0, 70, 64
2, 15360, Note_on_c, 0, 85, 40
2, 15488, Note_off_c, 0, 76, 64
2, 15488, Note_on_c, 0, 74, 40
2, 15616, Note_off_c, 0, 61, 64
2, 15616, Note_off_c, 0, 74, 64
2, 15616, Note_on_c, 0, 64, 64
2, 15616, Note_on_c, 0, 76, 40
2, 15693, Note_off_c, 0, 42, 64
2, 15744, Note_off_c, 0, 76, 64
2, 15744, Note_on_c, 0, 78, 40
2, 15782, Note_off_c, 0, 64, 64
2, 15872, Note_off_c, 0, 55, 64
2, 15872, Note_off_c, 0, 64, 64
2, 15872, Note_off_c, 0, 42, 64
2, 15872, Note_off_c, 0, 61, 64
2, 15872, Note_off_c, 0, 61, 64
2, 15872, Note_off_c, 0, 61, 64
2, 15872, Note_off_c, 0, 64, 64
2, 15872, Note_off_c, 0, 67, 64
2, 15872, Note_off_c, 0, 70, 64
2, 15872, Note_off_c, 0, 85, 64
2, 15872, Note_off_c, 0, 78, 64
2, 15872, Note_on_c, 0, 42, 64
2, 15872, Note_on_c, 0, 54, 64
2, 15872, Note_on_c, 0, 54, 71
2, 15872, Note_on_c, 0, 62, 71
2, 15872, Note_on_c, 0, 62, 71
2, 15872, Note_on_c, 0, 62, 30
2, 15872, Note_on_c, 0, 66, 64
2, 15872, Note_on_c, 0, 66, 30
2, 15872, Note_on_c, 0, 71, 64
2, 15872, Note_on_c, 0, 76, 40
2, 16000, Note_off_c, 0, 76, 64
2, 16000, Note_on_c, 0, 74, 40
2, 16128, Note_off_c, 0, 54, 64
2, 16128, Note_off_c, 0, 74, 64
2, 16128, Note_on_c, 0, 61, 64
2, 16128, Note_on_c, 0, 73, 40
2, 16205, Note_off_c, 0, 42, 64
2, 16256, Note_off_c, 0, 73, 64
2, 16256, Note_on_c, 0, 71, 40
2, 16294, Note_off_c, 0, 61, 64
2, 16384, Note_off_c, 0, 70, 64
2, 16384, Note_off_c, 0, 54, 64
2, 16384, Note_off_c, 0, 62, 64
2, 16384, Note_off_c, 0, 62, 64
2, 16384, Note_off_c, 0, 62, 64
2, 16384, Note_off_c, 0, 66, 64
2, 16384, Note_off_c, 0, 71, 64
2, 16384, Note_off_c, 0, 71, 64
2, 16384, Note_on_c, 0, 42, 64
2, 16384, Note_on_c, 0, 52, 68
2, 16384, Note_on_c, 0, 61, 68
2, 16384, Note_on_c, 0, 61, 30
2, 16384, Note_on_c, 0, 64, 68
2, 16384, Note_on_c, 0, 64, 30
2, 16384, Note_on_c, 0, 66, 64
2, 16384, Note_on_c, 0, 70, 68
2, 16384, Note_on_c, 0, 70, 40
2, 16384, Note_on_c, 0, 73, 64
2, 16512, Note_off_c, 0, 70, 64
2, 16512, Note_on_c, 0, 73, 40
2, 16640, Note_off_c, 0, 66, 64
2, 16640, Note_off_c, 0, 73, 64
2, 16640, Note_on_c, 0, 61, 64
2, 16640, Note_on_c, 0, 71, 40
2, 16717, Note_off_c, 0, 42, 64
2, 16768, Note_off_c, 0, 71, 64
2, 16768, Note_on_c, 0, 70, 40
2, 16806, Note_off_c, 0, 61, 64
2, 16896, Note_off_c, 0, 58, 64
2, 16896, Note_off_c, 0, 52, 64
2, 16896, Note_off_c, 0, 61, 64
2, 16896, Note_off_c, 0, 61, 64
2, 16896, Note_off_c, 0, 64, 64
2, 16896, Note_off_c, 0, 64, 64
2, 16896, Note_off_c, 0, 70, 64
2, 16896, Note_off_c, 0, 73, 64
2, 16896, Note_off_c, 0, 70, 64
2, 16896, Note_on_c, 0, 36, 64
2, 16896, Note_on_c, 0, 36, 30
2, 16896, Note_on_c, 0, 51, 64
2, 16896, Note_on_c, 0, 60, 64
2, 16896, Note_on_c, 0, 60, 30
2, 16896, Note_on_c, 0, 63, 30
2, 16896, Note_on_c, 0, 66, 64
2, 16896, Note_on_c, 0, 66, 30
2, 16896, Note_on_c, 0, 69, 64
2, 16896, Note_on_c, 0, 69, 30
2, 16896, Note_on_c, 0, 75, 64
2, 16896, Note_on_c, 0, 78, 40
2, 17024, Note_off_c, 0, 78, 64
2, 17024, Note_on_c, 0, 76, 40
2, 17152, Note_off_c, 0, 66, 64
2, 17152, Note_off_c, 0, 69, 64
2, 17152, Note_off_c, 0, 76, 64
2, 17152, Note_on_c, 0, 64, 62
2, 17152, Note_on_c, 0, 68, 62
2, 17152, Note_on_c, 0, 78, 40
2, 17229, Note_off_c, 0, 36, 64
2, 17280, Note_off_c, 0, 78, 64
2, 17280, Note_on_c, 0, 80, 40
2, 17318, Note_off_c, 0, 68, 64
2, 17408, Note_off_c, 0, 36, 64
2, 17408, Note_off_c, 0, 60, 64
2, 17408, Note_off_c, 0, 63, 64
2, 17408, Note_off_c, 0, 66, 64
2, 17408, Note_off_c, 0, 69, 64
2, 17408, Note_off_c, 0, 64, 64
2, 17408, Note_off_c, 0, 80, 64
2, 17408, Note_on_c, 0, 36, 64
2, 17408, Note_on_c, 0, 61, 64
2, 17408, Note_on_c, 0, 63, 60
2, 17408, Note_on_c, 0, 64, 30
2, 17408, Note_on_c, 0, 68, 30
2, 17408, Note_on_c, 0, 69, 64
2, 17408, Note_on_c, 0, 69, 60
2, 17408, Note_on_c, 0, 78, 40
2, 17536, Note_off_c, 0, 78, 64
2, 17536, Note_on_c, 0, 76, 40
2, 17664, Note_off_c, 0, 63, 64
2, 17664, Note_off_c, 0, 69, 64
2, 17664, Note_off_c, 0, 69, 64
2, 17664, Note_off_c, 0, 76, 64
2, 17664, Note_on_c, 0, 63, 58
2, 17664, Note_on_c, 0, 68, 64
2, 17664, Note_on_c, 0, 68, 58
2, 17664, Note_on_c, 0, 75, 40
2, 17741, Note_off_c, 0, 36, 64
2, 17792, Note_off_c, 0, 75, 64
2, 17792, Note_on_c, 0, 73, 40
2, 17830, Note_off_c, 0, 63, 64
2, 17830, Note_off_c, 0, 68, 64
2, 17920, Note_off_c, 0, 51, 64
2, 17920, Note_off_c, 0, 66, 64
2, 17920, Note_off_c, 0, 75, 64
2, 17920, Note_off_c, 0, 61, 64
2, 17920, Note_off_c, 0, 64, 64
2, 17920, Note_off_c, 0, 68, 64
2, 17920, Note_off_c, 0, 68, 64
2, 17920, Note_off_c, 0, 73, 64
2, 17920, Note_on_c, 0, 36, 64
2, 17920, Note_on_c, 0, 51, 64
2, 17920, Note_on_c, 0, 63, 64
2, 17920, Note_on_c, 0, 63, 56
2, 17920, Note_on_c, 0, 63, 30
2, 17920, Note_on_c, 0, 66, 64
2, 17920, Note_on_c, 0, 66, 56
2, 17920, Note_on_c, 0, 66, 30
2, 17920, Note_on_c, 0, 68, 64
2, 17920, Note_on_c, 0, 68, 56
2, 17920, Note_on_c, 0, 72, 40
2, 18048, Note_off_c, 0, 72, 64
2, 18048, Note_on_c, 0, 75, 40
2, 18176, Note_off_c, 0, 66, 64
2, 18176, Note_off_c, 0, 68, 64
2, 18176, Note_off_c, 0, 68, 64
2, 18176, Note_off_c, 0, 75, 64
2, 18176, Note_on_c, 0, 63, 54
2, 18176, Note_on_c, 0, 66, 64
2, 18176, Note_on_c, 0, 68, 54
2, 18176, Note_on_c, 0, 73, 40
2, 18253, Note_off_c, 0, 36, 64
2, 18304, Note_off_c, 0, 73, 64
2, 18304, Note_on_c, 0, 72, 40
2, 18342, Note_off_c, 0, 63, 64
2, 18342, Note_off_c, 0, 68, 64
2, 18432, Note_off_c, 0, 60, 64
2, 18432, Note_off_c, 0, 51, 64
2, 18432, Note_off_c, 0, 63, 64
2, 18432, Note_off_c, 0, 63, 64
2, 18432, Note_off_c, 0, 63, 64
2, 18432, Note_off_c, 0, 66, 64
2, 18432, Note_off_c, 0, 66, 64
2, 18432, Note_off_c, 0, 66, 64
2, 18432, Note_off_c, 0, 72, 64
2, 18432, Note_on_c, 0, 37, 64
2, 18432, Note_on_c, 0, 37, 30
2, 18432, Note_on_c, 0, 54, 30
2, 18432, Note_on_c, 0, 56, 64
2, 18432, Note_on_c, 0, 57, 30
2, 18432, Note_on_c, 0, 61, 52
2, 18432, Note_on_c, 0, 61, 30
2, 18432, Note_on_c, 0, 65, 64
2, 18432, Note_on_c, 0, 65, 52
2, 18432, Note_on_c, 0, 68, 52
2, 18432, Note_on_c, 0, 68, 30
2, 18432, Note_on_c, 0, 80, 40
2, 18432, Note_on_c, 0, 83, 40
2, 18560, Note_off_c, 0, 83, 64
2, 18560, Note_on_c, 0, 81, 40
2, 18688, Note_off_c, 0, 68, 64
2, 18688, Note_off_c, 0, 81, 64
2, 18688, Note_on_c, 0, 61, 50
2, 18688, Note_on_c, 0, 83, 40
2, 18765, Note_off_c, 0, 37, 64
2, 18816, Note_off_c, 0, 83, 64
2, 18816, Note_on_c, 0, 85, 40
2, 18854, Note_off_c, 0, 61, 64
2, 18944, Note_off_c, 0, 37, 64
2, 18944, Note_off_c, 0, 61, 64
2, 18944, Note_off_c, 0, 65, 64
2, 18944, Note_off_c, 0, 65, 64
2, 18944, Note_off_c, 0, 68, 64
2, 18944, Note_off_c, 0, 80, 64
2, 18944, Note_off_c, 0, 85, 64
2, 18944, Note_on_c, 0, 37, 64
2, 18944, Note_on_c, 0, 50, 64
2, 18944, Note_on_c, 0, 65, 64
2, 18944, Note_on_c, 0, 65, 64
2, 18944, Note_on_c, 0, 65, 48
2, 18944, Note_on_c, 0, 66, 30
2, 18944, Note_on_c, 0, 68, 48
2, 18944, Note_on_c, 0, 68, 48
2, 18944, Note_on_c, 0, 83, 40
2, 19072, Note_off_c, 0, 83, 64
2, 19072, Note_on_c, 0, 81, 40
2, 19200, Note_off_c, 0, 50, 64
2, 19200, Note_off_c, 0, 68, 64
2, 19200, Note_off_c, 0, 81, 64
2, 19200, Note_on_c, 0, 49, 64
2, 19200, Note_on_c, 0, 59, 46
2, 19200, Note_on_c, 0, 80, 40
2, 19277, Note_off_c, 0, 37, 64
2, 19328, Note_off_c, 0, 80, 64
2, 19328, Note_on_c, 0, 78, 40
2, 19366, Note_off_c, 0, 59, 64
2, 19456, Note_off_c, 0, 54, 64
2, 19456, Note_off_c, 0, 56, 64
2, 19456, Note_off_c, 0, 57, 64
2, 19456, Note_off_c, 0, 61, 64
2, 19456, Note_off_c, 0, 65, 64
2, 19456, Note_off_c, 0, 65, 64
2, 19456, Note_off_c, 0, 66, 64
2, 19456, Note_off_c, 0, 49, 64
2, 19456, Note_off_c, 0, 78, 64
2, 19456, Note_on_c, 0, 37, 64
2, 19456, Note_on_c, 0, 49, 64
2, 19456, Note_on_c, 0, 56, 64
2, 19456, Note_on_c, 0, 68, 64
2, 19456, Note_on_c, 0, 68, 44
2, 19456, Note_on_c, 0, 77, 40
2, 19584, Note_off_c, 0, 77, 64
2, 19584, Note_on_c, 0, 80, 40
2, 19712, Note_off_c, 0, 49, 64
2, 19712, Note_off_c, 0, 68, 64
2, 19712, Note_off_c, 0, 80, 64
2, 19712, Note_on_c, 0, 47, 64
2, 19712, Note_on_c, 0, 61, 42
2, 19712, Note_on_c, 0, 78, 40
2, 19789, Note_off_c, 0, 37, 64
2, 19840, Note_off_c, 0, 78, 64
2, 19840, Note_on_c, 0, 77, 40
2, 19878, Note_off_c, 0, 61, 64
2, 19968, Note_off_c, 0, 65, 64
2, 19968, Note_off_c, 0, 56, 64
2, 19968, Note_off_c, 0, 68, 64
2, 19968, Note_off_c, 0, 47, 64
2, 19968, Note_off_c, 0, 77, 64
2, 19968, Note_on_c, 0, 42, 64
2, 19968, Note_on_c, 0, 42, 30
2, 19968, Note_on_c, 0, 45, 64
2, 19968, Note_on_c, 0, 61, 40
2, 19968, Note_on_c, 0, 61, 30
2, 19968, Note_on_c, 0, 62, 30
2, 19968, Note_on_c, 0, 66, 30
2, 19968, Note_on_c, 0, 68, 64
2, 19968, Note_on_c, 0, 69, 40
2, 19968, Note_on_c, 0, 73, 40
2, 19968, Note_on_c, 0, 81, 40
2, 20096, Note_off_c, 0, 73, 64
2, 20096, Note_on_c, 0, 71, 40
2, 20224, Note_off_c, 0, 61, 64
2, 20224, Note_off_c, 0, 68, 64
2, 20224, Note_off_c, 0, 69, 64
2, 20224, Note_off_c, 0, 71, 64
2, 20224, Note_on_c, 0, 59, 40
2, 20224, Note_on_c, 0, 61, 40
2, 20224, Note_on_c, 0, 65, 64
2, 20224, Note_on_c, 0, 73, 40
2, 20301, Note_off_c, 0, 42, 64
2, 20352, Note_off_c, 0, 73, 64
2, 20352, Note_on_c, 0, 74, 40
2, 20390, Note_off_c, 0, 59, 64
2, 20390, Note_off_c, 0, 61, 64
2, 20480, Note_off_c, 0, 68, 64
2, 20480, Note_off_c, 0, 42, 64
2, 20480, Note_off_c, 0, 45, 64
2, 20480, Note_off_c, 0, 61, 64
2, 20480, Note_off_c, 0, 81, 64
2, 20480, Note_off_c, 0, 65, 64
2, 20480, Note_off_c, 0, 74, 64
2, 20480, Note_on_c, 0, 42, 64
2, 20480, Note_on_c, 0, 45, 64
2, 20480, Note_on_c, 0, 57, 64
2, 20480, Note_on_c, 0, 57, 40
2, 20480, Note_on_c, 0, 59, 30
2, 20480, Note_on_c, 0, 66, 64
2, 20480, Note_on_c, 0, 66, 40
2, 20480, Note_on_c, 0, 66, 40
2, 20480, Note_on_c, 0, 73, 40
2, 20608, Note_off_c, 0, 73, 64
2, 20608, Note_on_c, 0, 71, 40
2, 20736, Note_off_c, 0, 57, 64
2, 20736, Note_off_c, 0, 66, 64
2, 20736, Note_off_c, 0, 71, 64
2, 20736, Note_on_c, 0, 56, 40
2, 20736, Note_on_c, 0, 61, 40
2, 20736, Note_on_c, 0, 69, 40
2, 20813, Note_off_c, 0, 42, 64
2, 20864, Note_off_c, 0, 69, 64
2, 20864, Note_on_c, 0, 68, 40
2, 20902, Note_off_c, 0, 56, 64
2, 20902, Note_off_c, 0, 61, 64
2, 20992, Note_off_c, 0, 62, 64
2, 20992, Note_off_c, 0, 66, 64
2, 20992, Note_off_c, 0, 45, 64
2, 20992, Note_off_c, 0, 57, 64
2, 20992, Note_off_c, 0, 59, 64
2, 20992, Note_off_c, 0, 66, 64
2, 20992, Note_off_c, 0, 66, 64
2, 20992, Note_off_c, 0, 68, 64
2, 20992, Note_on_c, 0, 42, 64
2, 20992, Note_on_c, 0, 57, 40
2, 20992, Note_on_c, 0, 61, 64
2, 20992, Note_on_c, 0, 66, 40
2, 20992, Note_on_c, 0, 66, 40
2, 20992, Note_on_c, 0, 69, 40
2, 20992, Note_on_c, 0, 73, 64
2, 21120, Note_off_c, 0, 66, 64
2, 21120, Note_on_c, 0, 69, 40
2, 21248, Note_off_c, 0, 57, 64
2, 21248, Note_off_c, 0, 66, 64
2, 21248, Note_off_c, 0, 73, 64
2, 21248, Note_off_c, 0, 69, 64
2, 21248, Note_on_c, 0, 61, 40
2, 21248, Note_on_c, 0, 61, 40
2, 21248, Note_on_c, 0, 68, 40
2, 21248, Note_on_c, 0, 69, 64
2, 21325, Note_off_c, 0, 42, 64
2, 21376, Note_off_c, 0, 68, 64
2, 21376, Note_on_c, 0, 66, 40
2, 21414, Note_off_c, 0, 61, 64
2, 21414, Note_off_c, 0, 61, 64
2, 21504, Note_off_c, 0, 61, 64
2, 21504, Note_off_c, 0, 69, 64
2, 21504, Note_off_c, 0, 66, 64
2, 21504, Note_on_c, 0, 38, 64
2, 21504, Note_on_c, 0, 38, 30
2, 21504, Note_on_c, 0, 50, 30
2, 21504, Note_on_c, 0, 54, 30
2, 21504, Note_on_c, 0, 61, 64
2, 21504, Note_on_c, 0, 61, 30
2, 21504, Note_on_c, 0, 66, 64
2, 21504, Note_on_c, 0, 66, 40
2, 21504, Note_on_c, 0, 66, 40
2, 21504, Note_on_c, 0, 78, 40
2, 21504, Note_on_c, 0, 78, 40
2, 21632, Note_off_c, 0, 78, 64
2, 21632, Note_on_c, 0, 76, 40
2, 21760, Note_off_c, 0, 69, 64
2, 21760, Note_off_c, 0, 61, 64
2, 21760, Note_off_c, 0, 66, 64
2, 21760, Note_off_c, 0, 76, 64
2, 21760, Note_on_c, 0, 58, 64
2, 21760, Note_on_c, 0, 61, 40
2, 21760, Note_on_c, 0, 66, 40
2, 21760, Note_on_c, 0, 78, 40
2, 21837, Note_off_c, 0, 38, 64
2, 21888, Note_off_c, 0, 78, 64
2, 21888, Note_on_c, 0, 79, 40
2, 21926, Note_off_c, 0, 61, 64
2, 22016, Note_off_c, 0, 38, 64
2, 22016, Note_off_c, 0, 61, 64
2, 22016, Note_off_c, 0, 66, 64
2, 22016, Note_off_c, 0, 58, 64
2, 22016, Note_off_c, 0, 66, 64
2, 22016, Note_off_c, 0, 78, 64
2, 22016, Note_off_c, 0, 79, 64
2, 22016, Note_on_c, 0, 38, 64
2, 22016, Note_on_c, 0, 59, 64
2, 22016, Note_on_c, 0, 59, 30
2, 22016, Note_on_c, 0, 66, 64
2, 22016, Note_on_c, 0, 66, 40
2, 22016, Note_on_c, 0, 71, 40
2, 22016, Note_on_c, 0, 78, 40
2, 22144, Note_off_c, 0, 78, 64
2, 22144, Note_on_c, 0, 76, 40
2, 22272, Note_off_c, 0, 66, 64
2, 22272, Note_off_c, 0, 66, 64
2, 22272, Note_off_c, 0, 71, 64
2, 22272, Note_off_c, 0, 76, 64
2, 22272, Note_on_c, 0, 58, 40
2, 22272, Note_on_c, 0, 64, 40
2, 22272, Note_on_c, 0, 73, 40
2, 22272, Note_on_c, 0, 74, 40
2, 22349, Note_off_c, 0, 38, 64
2, 22400, Note_off_c, 0, 74, 64
2, 22400, Note_on_c, 0, 73, 40
2, 22438, Note_off_c, 0, 58, 64
2, 22528, Note_off_c, 0, 50, 64
2, 22528, Note_off_c, 0, 54, 64
2, 22528, Note_off_c, 0, 59, 64
2, 22528, Note_off_c, 0, 59, 64
2, 22528, Note_off_c, 0, 66, 64
2, 22528, Note_off_c, 0, 64, 64
2, 22528, Note_off_c, 0, 73, 64
2, 22528, Note_off_c, 0, 73, 64
2, 22528, Note_on_c, 0, 38, 64
2, 22528, Note_on_c, 0, 66, 64
2, 22528, Note_on_c, 0, 66, 64
2, 22528, Note_on_c, 0, 66, 40
2, 22528, Note_on_c, 0, 66, 40
2, 22528, Note_on_c, 0, 71, 40
2, 22528, Note_on_c, 0, 74, 40
2, 22656, Note_off_c, 0, 71, 64
2, 22656, Note_on_c, 0, 74, 40
2, 22784, Note_off_c, 0, 66, 64
2, 22784, Note_off_c, 0, 66, 64
2, 22784, Note_off_c, 0, 66, 64
2, 22784, Note_off_c, 0, 74, 64
2, 22784, Note_on_c, 0, 62, 64
2, 22784, Note_on_c, 0, 62, 40
2, 22784, Note_on_c, 0, 70, 40
2, 22784, Note_on_c, 0, 73, 40
2, 22861, Note_off_c, 0, 38, 64
2, 22912, Note_off_c, 0, 73, 64
2, 22912, Note_on_c, 0, 71, 40
2, 22950, Note_off_c, 0, 62, 64
2, 22950, Note_off_c, 0, 70, 64
2, 23040, Note_off_c, 0, 66, 64
2, 23040, Note_off_c, 0, 62, 64
2, 23040, Note_off_c, 0, 71, 64
2, 23040, Note_on_c, 0, 43, 64
2, 23040, Note_on_c, 0, 43, 30
2, 23040, Note_on_c, 0, 55, 30
2, 23040, Note_on_c, 0, 59, 64
2, 23040, Note_on_c, 0, 59, 30
2, 23040, Note_on_c, 0, 62, 30
2, 23040, Note_on_c, 0, 65, 40
2, 23040, Note_on_c, 0, 65, 30
2, 23040, Note_on_c, 0, 71, 40
2, 23040, Note_on_c, 0, 74, 64
2, 23040, Note_on_c, 0, 74, 40
2, 23040, Note_on_c, 0, 83, 40
2, 23168, Note_off_c, 0, 74, 64
2, 23168, Note_off_c, 0, 83, 64
2, 23168, Note_on_c, 0, 72, 40
2, 23168, Note_on_c, 0, 81, 40
2, 23296, Note_off_c, 0, 74, 64
2, 23296, Note_off_c, 0, 65, 64
2, 23296, Note_off_c, 0, 72, 64
2, 23296, Note_off_c, 0, 81, 64
2, 23296, Note_on_c, 0, 62, 40
2, 23296, Note_on_c, 0, 67, 40
2, 23296, Note_on_c, 0, 74, 40
2, 23296, Note_on_c, 0, 83, 40
2, 23373, Note_off_c, 0, 43, 64
2, 23424, Note_off_c, 0, 74, 64
2, 23424, Note_off_c, 0, 83, 64
2, 23424, Note_on_c, 0, 76, 40
2, 23424, Note_on_c, 0, 84, 40
2, 23462, Note_off_c, 0, 62, 64
2, 23552, Note_off_c, 0, 43, 64
2, 23552, Note_off_c, 0, 55, 64
2, 23552, Note_off_c, 0, 59, 64
2, 23552, Note_off_c, 0, 59, 64
2, 23552, Note_off_c, 0, 62, 64
2, 23552, Note_off_c, 0, 65, 64
2, 23552, Note_off_c, 0, 67, 64
2, 23552, Note_off_c, 0, 76, 64
2, 23552, Note_off_c, 0, 84, 64
2, 23552, Note_on_c, 0, 43, 64
2, 23552, Note_on_c, 0, 59, 64
2, 23552, Note_on_c, 0, 65, 40
2, 23552, Note_on_c, 0, 69, 40
2, 23552, Note_on_c, 0, 74, 40
2, 23552, Note_on_c, 0, 83, 40
2, 23680, Note_off_c, 0, 74, 64
2, 23680, Note_off_c, 0, 83, 64
2, 23680, Note_on_c, 0, 72, 40
2, 23680, Note_on_c, 0, 81, 40
2, 23808, Note_off_c, 0, 65, 64
2, 23808, Note_off_c, 0, 69, 64
2, 23808, Note_off_c, 0, 72, 64
2, 23808, Note_off_c, 0, 81, 64
2, 23808, Note_on_c, 0, 62, 40
2, 23808, Note_on_c, 0, 71, 40
2, 23808, Note_on_c, 0, 71, 40
2, 23808, Note_on_c, 0, 79, 40
2, 23885, Note_off_c, 0, 43, 64
2, 23936, Note_off_c, 0, 71, 64
2, 23936, Note_off_c, 0, 79, 64
2, 23936, Note_on_c, 0, 69, 40
2, 23936, Note_on_c, 0, 81, 40
2, 23974, Note_off_c, 0, 62, 64
2, 24064, Note_off_c, 0, 59, 64
2, 24064, Note_off_c, 0, 71, 64
2, 24064, Note_off_c, 0, 69, 64
2, 24064, Note_off_c, 0, 81, 64
2, 24064, Note_on_c, 0, 43, 64
2, 24064, Note_on_c, 0, 59, 64
2, 24064, Note_on_c, 0, 59, 64
2, 24064, Note_on_c, 0, 65, 40
2, 24064, Note_on_c, 0, 67, 40
2, 24064, Note_on_c, 0, 72, 40
2, 24064, Note_on_c, 0, 83, 40
2, 24192, Note_off_c, 0, 67, 64
2, 24192, Note_off_c, 0, 83, 64
2, 24192, Note_on_c, 0, 71, 40
2, 24192, Note_on_c, 0, 79, 40
2, 24320, Note_off_c, 0, 59, 64
2, 24320, Note_off_c, 0, 65, 64
2, 24320, Note_off_c, 0, 72, 64
2, 24320, Note_off_c, 0, 71, 64
2, 24320, Note_off_c, 0, 79, 64
2, 24320, Note_on_c, 0, 55, 64
2, 24320, Note_on_c, 0, 59, 40
2, 24320, Note_on_c, 0, 69, 40
2, 24320, Note_on_c, 0, 74, 40
2, 24320, Note_on_c, 0, 78, 40
2, 24397, Note_off_c, 0, 43, 64
2, 24448, Note_off_c, 0, 69, 64
2, 24448, Note_off_c, 0, 78, 64
2, 24448, Note_on_c, 0, 67, 40
2, 24448, Note_on_c, 0, 76, 40
2, 24486, Note_off_c, 0, 59, 64
2, 24576, Note_off_c, 0, 59, 64
2, 24576, Note_off_c, 0, 55, 64
2, 24576, Note_off_c, 0, 74, 64
2, 24576, Note_off_c, 0, 67, 64
2, 24576, Note_off_c, 0, 76, 64
2, 24576, Note_on_c, 0, 48, 64
2, 24576, Note_on_c, 0, 48, 30
2, 24576, Note_on_c, 0, 52, 64
2, 24576, Note_on_c, 0, 55, 30
2, 24576, Note_on_c, 0, 59, 30
2, 24576, Note_on_c, 0, 60, 40
2, 24576, Note_on_c, 0, 62, 30
2, 24576, Note_on_c, 0, 67, 64
2, 24576, Note_on_c, 0, 76, 40
2, 24576, Note_on_c, 0, 76, 40
2, 24576, Note_on_c, 0, 79, 40
2, 24832, Note_off_c, 0, 71, 64
2, 24832, Note_off_c, 0, 60, 64
2, 24832, Note_off_c, 0, 76, 64
2, 24832, Note_on_c, 0, 64, 40
2, 24832, Note_on_c, 0, 67, 40
2, 24832, Note_on_c, 0, 72, 40
2, 24909, Note_off_c, 0, 48, 64
2, 24960, Note_off_c, 0, 64, 64
2, 24960, Note_off_c, 0, 72, 64
2, 24960, Note_on_c, 0, 65, 40
2, 24960, Note_on_c, 0, 74, 40
2, 25088, Note_off_c, 0, 74, 64
2, 25088, Note_off_c, 0, 48, 64
2, 25088, Note_off_c, 0, 52, 64
2, 25088, Note_off_c, 0, 55, 64
2, 25088, Note_off_c, 0, 59, 64
2, 25088, Note_off_c, 0, 62, 64
2, 25088, Note_off_c, 0, 67, 64
2, 25088, Note_off_c, 0, 65, 64
2, 25088, Note_off_c, 0, 74, 64
2, 25088, Note_on_c, 0, 48, 64
2, 25088, Note_on_c, 0, 52, 64
2, 25088, Note_on_c, 0, 67, 40
2, 25088, Note_on_c, 0, 72, 64
2, 25088, Note_on_c, 0, 72, 40
2, 25088, Note_on_c, 0, 76, 40
2, 25344, Note_off_c, 0, 67, 64
2, 25344, Note_off_c, 0, 72, 64
2, 25344, Note_off_c, 0, 72, 64
2, 25344, Note_off_c, 0, 76, 64
2, 25344, Note_on_c, 0, 65, 40
2, 25344, Note_on_c, 0, 71, 64
2, 25344, Note_on_c, 0, 74, 40
2, 25344, Note_on_c, 0, 78, 40
2, 25421, Note_off_c, 0, 48, 64
2, 25510, Note_off_c, 0, 65, 64
2, 25510, Note_off_c, 0, 74, 64
2, 25510, Note_off_c, 0, 78, 64
2, 25600, Note_off_c, 0, 52, 64
2, 25600, Note_off_c, 0, 71, 64
2, 25600, Note_on_c, 0, 48, 64
2, 25600, Note_on_c, 0, 52, 64
2, 25600, Note_on_c, 0, 52, 64
2, 25600, Note_on_c, 0, 64, 40
2, 25600, Note_on_c, 0, 76, 64
2, 25600, Note_on_c, 0, 76, 40
2, 25600, Note_on_c, 0, 79, 40
2, 25856, Note_off_c, 0, 52, 64
2, 25856, Note_off_c, 0, 64, 64
2, 25856, Note_off_c, 0, 79, 64
2, 25856, Note_on_c, 0, 48, 64
2, 25856, Note_on_c, 0, 67, 40
2, 25856, Note_on_c, 0, 76, 40
2, 25933, Note_off_c, 0, 48, 64
2, 26022, Note_off_c, 0, 67, 64
2, 26022, Note_off_c, 0, 76, 64
2, 26112, Note_off_c, 0, 52, 64
2, 26112, Note_off_c, 0, 76, 64
2, 26112, Note_off_c, 0, 48, 64
2, 26112, Note_on_c, 0, 46, 64
2, 26112, Note_on_c, 0, 49, 64
2, 26112, Note_on_c, 0, 49, 30
2, 26112, Note_on_c, 0, 61, 64
2, 26112, Note_on_c, 0, 61, 30
2, 26112, Note_on_c, 0, 67, 40
2, 26112, Note_on_c, 0, 67, 30
2, 26112, Note_on_c, 0, 70, 30
2, 26112, Note_on_c, 0, 73, 40
2, 26112, Note_on_c, 0, 76, 64
2, 26368, Note_off_c, 0, 67, 64
2, 26368, Note_on_c, 0, 64, 40
2, 26445, Note_off_c, 0, 49, 64
2, 26534, Note_off_c, 0, 64, 64
2, 26624, Note_off_c, 0, 67, 64
2, 26624, Note_off_c, 0, 46, 64
2, 26624, Note_off_c, 0, 49, 64
2, 26624, Note_off_c, 0, 61, 64
2, 26624, Note_off_c, 0, 67, 64
2, 26624, Note_off_c, 0, 70, 64
2, 26624, Note_on_c, 0, 46, 64
2, 26624, Note_on_c, 0, 49, 64
2, 26624, Note_on_c, 0, 61, 40
2, 26624, Note_on_c, 0, 66, 64
2, 26880, Note_off_c, 0, 61, 64
2, 26880, Note_on_c, 0, 62, 40
2, 26957, Note_off_c, 0, 49, 64
2, 27136, Note_off_c, 0, 76, 64
2, 27136, Note_off_c, 0, 46, 64
2, 27136, Note_off_c, 0, 66, 64
2, 27136, Note_off_c, 0, 62, 64
2, 27136, Note_on_c, 0, 46, 64
2, 27136, Note_on_c, 0, 49, 64
2, 27136, Note_on_c, 0, 64, 64
2, 27136, Note_on_c, 0, 64, 40
2, 27136, Note_on_c, 0, 67, 64
2, 27392, Note_off_c, 0, 64, 64
2, 27392, Note_on_c, 0, 67, 40
2, 27469, Note_off_c, 0, 49, 64
2, 27648, Note_off_c, 0, 46, 64
2, 27648, Note_off_c, 0, 64, 64
2, 27648, Note_off_c, 0, 67, 64
2, 27648, Note_off_c, 0, 67, 64
2, 27648, Note_on_c, 0, 46, 64
2, 27648, Note_on_c, 0, 46, 30
2, 27648, Note_on_c, 0, 55, 64
2, 27648, Note_on_c, 0, 58, 40
2, 27648, Note_on_c, 0, 58, 30
2, 27648, Note_on_c, 0, 61, 30
2, 27648, Note_on_c, 0, 64, 64
2, 27648, Note_on_c, 0, 64, 30
2, 27648, Note_on_c, 0, 67, 30
2, 27776, Note_off_c, 0, 79, 64
2, 27776, Note_on_c, 0, 78, 40
2, 27904, Note_off_c, 0, 78, 64
2, 27904, Note_on_c, 0, 79, 40
2, 27981, Note_off_c, 0, 46, 64
2, 28032, Note_off_c, 0, 79, 64
2, 28032, Note_on_c, 0, 81, 40
2, 28160, Note_off_c, 0, 61, 64
2, 28160, Note_off_c, 0, 46, 64
2, 28160, Note_off_c, 0, 58, 64
2, 28160, Note_off_c, 0, 61, 64
2, 28160, Note_off_c, 0, 64, 64
2, 28160, Note_off_c, 0, 67, 64
2, 28160, Note_off_c, 0, 81, 64
2, 28160, Note_on_c, 0, 46, 64
2, 28160, Note_on_c, 0, 59, 64
2, 28160, Note_on_c, 0, 76, 64
2, 28160, Note_on_c, 0, 79, 40
2, 28288, Note_off_c, 0, 79, 64
2, 28288, Note_on_c, 0, 78, 40
2, 28416, Note_off_c, 0, 76, 64
2, 28416, Note_off_c, 0, 78, 64
2, 28416, Note_on_c, 0, 74, 64
2, 28416, Note_on_c, 0, 76, 40
2, 28493, Note_off_c, 0, 46, 64
2, 28544, Note_off_c, 0, 76, 64
2, 28544, Note_on_c, 0, 74, 40
2, 28672, Note_off_c, 0, 64, 64
2, 28672, Note_off_c, 0, 59, 64
2, 28672, Note_off_c, 0, 74, 64
2, 28672, Note_off_c, 0, 74, 64
2, 28672, Note_on_c, 0, 46, 64
2, 28672, Note_on_c, 0, 58, 64
2, 28672, Note_on_c, 0, 64, 64
2, 28672, Note_on_c, 0, 73, 64
2, 28672, Note_on_c, 0, 76, 40
2, 28800, Note_off_c, 0, 76, 64
2, 28800, Note_on_c, 0, 73, 40
2, 28928, Note_off_c, 0, 73, 64
2, 28928, Note_off_c, 0, 73, 64
2, 28928, Note_on_c, 0, 71, 64
2, 28928, Note_on_c, 0, 74, 40
2, 29005, Note_off_c, 0, 46, 64
2, 29056, Note_off_c, 0, 74, 64
2, 29056, Note_on_c, 0, 76, 40
2, 29184, Note_off_c, 0, 58, 64
2, 29184, Note_off_c, 0, 64, 64
2, 29184, Note_off_c, 0, 76, 64
2, 29184, Note_off_c, 0, 71, 64
2, 29184, Note_on_c, 0, 42, 64
2, 29184, Note_on_c, 0, 42, 30
2, 29184, Note_on_c, 0, 58, 30
2, 29184, Note_on_c, 0, 61, 30
2, 29184, Note_on_c, 0, 64, 64
2, 29184, Note_on_c, 0, 64, 30
2, 29184, Note_on_c, 0, 67, 30
2, 29184, Note_on_c, 0, 70, 64
2, 29184, Note_on_c, 0, 70, 40
2, 29312, Note_off_c, 0, 76, 64
2, 29312, Note_off_c, 0, 70, 64
2, 29312, Note_on_c, 0, 71, 40
2, 29312, Note_on_c, 0, 74, 40
2, 29440, Note_off_c, 0, 76, 64
2, 29440, Note_off_c, 0, 58, 64
2, 29440, Note_off_c, 0, 71, 64
2, 29440, Note_off_c, 0, 74, 64
2, 29440, Note_on_c, 0, 59, 40
2, 29440, Note_on_c, 0, 73, 40
2, 29440, Note_on_c, 0, 73, 40
2, 29440, Note_on_c, 0, 76, 40
2, 29517, Note_off_c, 0, 42, 64
2, 29568, Note_off_c, 0, 73, 64
2, 29568, Note_off_c, 0, 76, 64
2, 29568, Note_on_c, 0, 74, 40
2, 29568, Note_on_c, 0, 78, 40
2, 29696, Note_off_c, 0, 55, 64
2, 29696, Note_off_c, 0, 42, 64
2, 29696, Note_off_c, 0, 67, 64
2, 29696, Note_off_c, 0, 70, 64
2, 29696, Note_off_c, 0, 59, 64
2, 29696, Note_off_c, 0, 73, 64
2, 29696, Note_off_c, 0, 74, 64
2, 29696, Note_off_c, 0, 78, 64
2, 29696, Note_on_c, 0, 42, 64
2, 29696, Note_on_c, 0, 54, 64
2, 29696, Note_on_c, 0, 61, 64
2, 29696, Note_on_c, 0, 61, 40
2, 29696, Note_on_c, 0, 66, 30
2, 29696, Note_on_c, 0, 70, 64
2, 29696, Note_on_c, 0, 70, 40
2, 29696, Note_on_c, 0, 73, 40
2, 29696, Note_on_c, 0, 76, 40
2, 29824, Note_off_c, 0, 73, 64
2, 29824, Note_off_c, 0, 76, 64
2, 29824, Note_on_c, 0, 71, 40
2, 29824, Note_on_c, 0, 74, 40
2, 29952, Note_off_c, 0, 61, 64
2, 29952, Note_off_c, 0, 70, 64
2, 29952, Note_off_c, 0, 71, 64
2, 29952, Note_off_c, 0, 74, 64
2, 29952, Note_on_c, 0, 62, 40
2, 29952, Note_on_c, 0, 70, 40
2, 29952, Note_on_c, 0, 71, 40
2, 29952, Note_on_c, 0, 73, 40
2, 30029, Note_off_c, 0, 42, 64
2, 30080, Note_off_c, 0, 70, 64
2, 30080, Note_off_c, 0, 73, 64
2, 30080, Note_on_c, 0, 68, 40
2, 30080, Note_on_c, 0, 71, 40
2, 30118, Note_off_c, 0, 62, 64
2, 30118, Note_off_c, 0, 71, 64
2, 30208, Note_off_c, 0, 64, 64
2, 30208, Note_off_c, 0, 54, 64
2, 30208, Note_off_c, 0, 61, 64
2, 30208, Note_off_c, 0, 66, 64
2, 30208, Note_off_c, 0, 70, 64
2, 30208, Note_off_c, 0, 68, 64
2, 30208, Note_off_c, 0, 71, 64
2, 30208, Note_on_c, 0, 42, 64
2, 30208, Note_on_c, 0, 52, 64
2, 30208, Note_on_c, 0, 54, 64
2, 30208, Note_on_c, 0, 64, 40
2, 30208, Note_on_c, 0, 66, 40
2, 30208, Note_on_c, 0, 70, 64
2, 30208, Note_on_c, 0, 70, 40
2, 30208, Note_on_c, 0, 73, 40
2, 30336, Note_off_c, 0, 66, 64
2, 30336, Note_off_c, 0, 70, 64
2, 30336, Note_on_c, 0, 70, 40
2, 30336, Note_on_c, 0, 73, 40
2, 30464, Note_off_c, 0, 64, 64
2, 30464, Note_off_c, 0, 73, 64
2, 30464, Note_off_c, 0, 70, 64
2, 30464, Note_off_c, 0, 73, 64
2, 30464, Note_on_c, 0, 61, 40
2, 30464, Note_on_c, 0, 64, 40
2, 30464, Note_on_c, 0, 68, 40
2, 30464, Note_on_c, 0, 71, 40
2, 30541, Note_off_c, 0, 42, 64
2, 30592, Note_off_c, 0, 68, 64
2, 30592, Note_off_c, 0, 71, 64
2, 30592, Note_on_c, 0, 66, 40
2, 30592, Note_on_c, 0, 70, 40
2, 30630, Note_off_c, 0, 61, 64
2, 30630, Note_off_c, 0, 64, 64
2, 30720, Note_off_c, 0, 73, 64
2, 30720, Note_off_c, 0, 58, 64
2, 30720, Note_off_c, 0, 61, 64
2, 30720, Note_off_c, 0, 64, 64
2, 30720, Note_off_c, 0, 52, 64
2, 30720, Note_off_c, 0, 54, 64
2, 30720, Note_off_c, 0, 70, 64
2, 30720, Note_off_c, 0, 66, 64
2, 30720, Note_off_c, 0, 70, 64
2, 30720, Note_on_c, 0, 47, 64
2, 30720, Note_on_c, 0, 47, 30
2, 30720, Note_on_c, 0, 50, 64
2, 30720, Note_on_c, 0, 54, 40
2, 30720, Note_on_c, 0, 59, 30
2, 30720, Note_on_c, 0, 62, 40
2, 30720, Note_on_c, 0, 62, 30
2, 30720, Note_on_c, 0, 71, 64
2, 30720, Note_on_c, 0, 71, 40
2, 30720, Note_on_c, 0, 74, 40
2, 30720, Note_on_c, 0, 78, 40
2, 30848, Note_off_c, 0, 78, 64
2, 30848, Note_on_c, 0, 76, 40
2, 30976, Note_off_c, 0, 76, 64
2, 30976, Note_on_c, 0, 78, 40
2, 31053, Note_off_c, 0, 47, 64
2, 31104, Note_off_c, 0, 78, 64
2, 31104, Note_on_c, 0, 79, 40
2, 31232, Note_off_c, 0, 47, 64
2, 31232, Note_off_c, 0, 59, 64
2, 31232, Note_off_c, 0, 62, 64
2, 31232, Note_off_c, 0, 71, 64
2, 31232, Note_off_c, 0, 74, 64
2, 31232, Note_off_c, 0, 79, 64
2, 31232, Note_on_c, 0, 47, 64
2, 31232, Note_on_c, 0, 59, 64
2, 31232, Note_on_c, 0, 62, 64
2, 31232, Note_on_c, 0, 71, 64
2, 31232, Note_on_c, 0, 71, 40
2, 31232, Note_on_c, 0, 78, 40
2, 31360, Note_off_c, 0, 78, 64
2, 31360, Note_on_c, 0, 76, 40
2, 31488, Note_off_c, 0, 59, 64
2, 31488, Note_off_c, 0, 62, 64
2, 31488, Note_off_c, 0, 71, 64
2, 31488, Note_off_c, 0, 76, 64
2, 31488, Note_on_c, 0, 57, 64
2, 31488, Note_on_c, 0, 64, 64
2, 31488, Note_on_c, 0, 73, 64
2, 31488, Note_on_c, 0, 74, 40
2, 31565, Note_off_c, 0, 47, 64
2, 31616, Note_off_c, 0, 74, 64
2, 31616, Note_on_c, 0, 73, 40
2, 31744, Note_off_c, 0, 50, 64
2, 31744, Note_off_c, 0, 57, 64
2, 31744, Note_off_c, 0, 64, 64
2, 31744, Note_off_c, 0, 73, 64
2, 31744, Note_off_c, 0, 73, 64
2, 31744, Note_on_c, 0, 47, 64
2, 31744, Note_on_c, 0, 50, 64
2, 31744, Note_on_c, 0, 55, 64
2, 31744, Note_on_c, 0, 66, 64
2, 31744, Note_on_c, 0, 71, 40
2, 31744, Note_on_c, 0, 74, 64
2, 31872, Note_off_c, 0, 71, 64
2, 31872, Note_on_c, 0, 74, 40
2, 32000, Note_off_c, 0, 55, 64
2, 32000, Note_off_c, 0, 66, 64
2, 32000, Note_off_c, 0, 74, 64
2, 32000, Note_off_c, 0, 74, 64
2, 32000, Note_on_c, 0, 54, 64
2, 32000, Note_on_c, 0, 62, 64
2, 32000, Note_on_c, 0, 67, 64
2, 32000, Note_on_c, 0, 72, 40
2, 32077, Note_off_c, 0, 47, 64
2, 32128, Note_off_c, 0, 72, 64
2, 32128, Note_on_c, 0, 71, 40
2, 32256, Note_off_c, 0, 54, 64
2, 32256, Note_off_c, 0, 62, 64
2, 32256, Note_off_c, 0, 50, 64
2, 32256, Note_off_c, 0, 71, 64
2, 32256, Note_off_c, 0, 54, 64
2, 32256, Note_off_c, 0, 62, 64
2, 32256, Note_off_c, 0, 67, 64
2, 32256, Note_on_c, 0, 47, 64
2, 32256, Note_on_c, 0, 47, 30
2, 32256, Note_on_c, 0, 52, 64
2, 32256, Note_on_c, 0, 55, 40
2, 32256, Note_on_c, 0, 59, 30
2, 32256, Note_on_c, 0, 62, 30
2, 32256, Note_on_c, 0, 64, 40
2, 32256, Note_on_c, 0, 67, 64
2, 32256, Note_on_c, 0, 67, 30
2, 32256, Note_on_c, 0, 76, 64
2, 32256, Note_on_c, 0, 79, 40
2, 32384, Note_off_c, 0, 71, 64
2, 32384, Note_on_c, 0, 69, 40
2, 32512, Note_off_c, 0, 52, 64
2, 32512, Note_off_c, 0, 69, 64
2, 32512, Note_on_c, 0, 54, 64
2, 32512, Note_on_c, 0, 71, 40
2, 32589, Note_off_c, 0, 47, 64
2, 32640, Note_off_c, 0, 71, 64
2, 32640, Note_on_c, 0, 72, 40
2, 32768, Note_off_c, 0, 47, 64
2, 32768, Note_off_c, 0, 59, 64
2, 32768, Note_off_c, 0, 62, 64
2, 32768, Note_off_c, 0, 67, 64
2, 32768, Note_off_c, 0, 54, 64
2, 32768, Note_off_c, 0, 72, 64
2, 32768, Note_on_c, 0, 47, 64
2, 32768, Note_on_c, 0, 52, 64
2, 32768, Note_on_c, 0, 55, 64
2, 32768, Note_on_c, 0, 71, 40
2, 32896, Note_off_c, 0, 71, 64
2, 32896, Note_on_c, 0, 69, 40
2, 33024, Note_off_c, 0, 52, 64
2, 33024, Note_off_c, 0, 55, 64
2, 33024, Note_off_c, 0, 69, 64
2, 33024, Note_on_c, 0, 54, 64
2, 33024, Note_on_c, 0, 57, 64
2, 33024, Note_on_c, 0, 67, 40
2, 33101, Note_off_c, 0, 47, 64
2, 33152, Note_off_c, 0, 67, 64
2, 33152, Note_on_c, 0, 66, 40
2, 33280, Note_off_c, 0, 54, 64
2, 33280, Note_off_c, 0, 57, 64
2, 33280, Note_off_c, 0, 66, 64
2, 33280, Note_on_c, 0, 47, 64
2, 33280, Note_on_c, 0, 55, 64
2, 33280, Note_on_c, 0, 59, 64
2, 33280, Note_on_c, 0, 64, 40
2, 33408, Note_off_c, 0, 64, 64
2, 33408, Note_on_c, 0, 67, 40
2, 33536, Note_off_c, 0, 71, 64
2, 33536, Note_off_c, 0, 55, 64
2, 33536, Note_off_c, 0, 59, 64
2, 33536, Note_off_c, 0, 67, 64
2, 33536, Note_on_c, 0, 52, 64
2, 33536, Note_on_c, 0, 55, 64
2, 33536, Note_on_c, 0, 66, 40
2, 33536, Note_on_c, 0, 71, 40
2, 33613, Note_off_c, 0, 47, 64
2, 33664, Note_off_c, 0, 66, 64
2, 33664, Note_on_c, 0, 64, 40
2, 33792, Note_off_c, 0, 52, 64
2, 33792, Note_off_c, 0, 55, 64
2, 33792, Note_off_c, 0, 71, 64
2, 33792, Note_off_c, 0, 64, 64
2, 33792, Note_on_c, 0, 47, 64
2, 33792, Note_on_c, 0, 47, 30
2, 33792, Note_on_c, 0, 58, 64
2, 33792, Note_on_c, 0, 61, 64
2, 33792, Note_on_c, 0, 61, 30
2, 33792, Note_on_c, 0, 64, 30
2, 33792, Note_on_c, 0, 70, 30
2, 33792, Note_on_c, 0, 73, 40
2, 33792, Note_on_c, 0, 76, 40
2, 33920, Note_off_c, 0, 79, 64
2, 33920, Note_on_c, 0, 76, 40
2, 34001, Note_off_c, 0, 76, 64
2, 34048, Note_off_c, 0, 55, 64
2, 34048, Note_off_c, 0, 76, 64
2, 34048, Note_on_c, 0, 59, 40
2, 34048, Note_on_c, 0, 74, 40
2, 34048, Note_on_c, 0, 76, 40
2, 34125, Note_off_c, 0, 47, 64
2, 34176, Note_off_c, 0, 76, 64
2, 34176, Note_on_c, 0, 78, 40
2, 34214, Note_off_c, 0, 74, 64
2, 34257, Note_off_c, 0, 78, 64
2, 34304, Note_off_c, 0, 67, 64
2, 34304, Note_off_c, 0, 47, 64
2, 34304, Note_off_c, 0, 58, 64
2, 34304, Note_off_c, 0, 61, 64
2, 34304, Note_off_c, 0, 61, 64
2, 34304, Note_off_c, 0, 64, 64
2, 34304, Note_off_c, 0, 70, 64
2, 34304, Note_off_c, 0, 59, 64
2, 34304, Note_on_c, 0, 47, 64
2, 34304, Note_on_c, 0, 54, 64
2, 34304, Note_on_c, 0, 58, 64
2, 34304, Note_on_c, 0, 58, 40
2, 34304, Note_on_c, 0, 61, 64
2, 34304, Note_on_c, 0, 73, 40
2, 34304, Note_on_c, 0, 78, 40
2, 34432, Note_off_c, 0, 78, 64
2, 34432, Note_on_c, 0, 74, 40
2, 34513, Note_off_c, 0, 74, 64
2, 34560, Note_off_c, 0, 73, 64
2, 34560, Note_on_c, 0, 71, 40
2, 34560, Note_on_c, 0, 74, 40
2, 34637, Note_off_c, 0, 47, 64
2, 34688, Note_off_c, 0, 74, 64
2, 34688, Note_on_c, 0, 76, 40
2, 34726, Note_off_c, 0, 71, 64
2, 34769, Note_off_c, 0, 76, 64
2, 34816, Note_off_c, 0, 76, 64
2, 34816, Note_off_c, 0, 54, 64
2, 34816, Note_off_c, 0, 58, 64
2, 34816, Note_off_c, 0, 61, 64
2, 34816, Note_on_c, 0, 47, 64
2, 34816, Note_on_c, 0, 58, 64
2, 34816, Note_on_c, 0, 61, 64
2, 34816, Note_on_c, 0, 66, 64
2, 34816, Note_on_c, 0, 70, 40
2, 34816, Note_on_c, 0, 76, 64
2, 34816, Note_on_c, 0, 76, 40
2, 34944, Note_off_c, 0, 76, 64
2, 34944, Note_on_c, 0, 73, 40
2, 35025, Note_off_c, 0, 73, 64
2, 35072, Note_off_c, 0, 70, 64
2, 35072, Note_on_c, 0, 73, 40
2, 35072, Note_on_c, 0, 73, 40
2, 35149, Note_off_c, 0, 47, 64
2, 35200, Note_off_c, 0, 73, 64
2, 35200, Note_on_c, 0, 74, 40
2, 35238, Note_off_c, 0, 73, 64
2, 35281, Note_off_c, 0, 74, 64
2, 35328, Note_off_c, 0, 64, 64
2, 35328, Note_off_c, 0, 58, 64
2, 35328, Note_off_c, 0, 58, 64
2, 35328, Note_off_c, 0, 61, 64
2, 35328, Note_off_c, 0, 66, 64
2, 35328, Note_off_c, 0, 76, 64
2, 35328, Note_on_c, 0, 47, 64
2, 35328, Note_on_c, 0, 47, 30
2, 35328, Note_on_c, 0, 59, 64
2, 35328, Note_on_c, 0, 59, 40
2, 35328, Note_on_c, 0, 59, 64
2, 35328, Note_on_c, 0, 62, 40
2, 35328, Note_on_c, 0, 62, 30
2, 35328, Note_on_c, 0, 66, 64
2, 35328, Note_on_c, 0, 66, 40
2, 35328, Note_on_c, 0, 66, 30
2, 35328, Note_on_c, 0, 71, 30
2, 35328, Note_on_c, 0, 74, 64
2, 35328, Note_on_c, 0, 74, 40
2, 35456, Note_off_c, 0, 73, 64
2, 35456, Note_on_c, 0, 70, 40
2, 35537, Note_off_c, 0, 70, 64
2, 35584, Note_on_c, 0, 70, 40
2, 35661, Note_off_c, 0, 47, 64
2, 35712, Note_off_c, 0, 70, 64
2, 35712, Note_on_c, 0, 71, 40
2, 35793, Note_off_c, 0, 71, 64
2, 35840, Note_off_c, 0, 47, 64
2, 35840, Note_off_c, 0, 59, 64
2, 35840, Note_off_c, 0, 59, 64
2, 35840, Note_off_c, 0, 59, 64
2, 35840, Note_off_c, 0, 62, 64
2, 35840, Note_off_c, 0, 62, 64
2, 35840, Note_off_c, 0, 66, 64
2, 35840, Note_off_c, 0, 66, 64
2, 35840, Note_off_c, 0, 71, 64
2, 35840, Note_off_c, 0, 74, 64
2, 35840, Note_off_c, 0, 74, 64
2, 35840, Note_on_c, 0, 47, 64
2, 35840, Note_on_c, 0, 54, 40
2, 35840, Note_on_c, 0, 54, 64
2, 35840, Note_on_c, 0, 59, 64
2, 35840, Note_on_c, 0, 66, 40
2, 35840, Note_on_c, 0, 71, 64
2, 35840, Note_on_c, 0, 71, 40
2, 35840, Note_on_c, 0, 71, 40
2, 35840, Note_on_c, 0, 75, 40
2, 35968, Note_off_c, 0, 71, 64
2, 35968, Note_on_c, 0, 67, 40
2, 36049, Note_off_c, 0, 67, 64
2, 36096, Note_off_c, 0, 54, 64
2, 36096, Note_on_c, 0, 52, 64
2, 36096, Note_on_c, 0, 67, 40
2, 36173, Note_off_c, 0, 47, 64
2, 36224, Note_off_c, 0, 67, 64
2, 36224, Note_on_c, 0, 69, 40
2, 36305, Note_off_c, 0, 69, 64
2, 36352, Note_off_c, 0, 66, 64
2, 36352, Note_off_c, 0, 54, 64
2, 36352, Note_off_c, 0, 59, 64
2, 36352, Note_off_c, 0, 71, 64
2, 36352, Note_off_c, 0, 52, 64
2, 36352, Note_on_c, 0, 47, 64
2, 36352, Note_on_c, 0, 51, 64
2, 36352, Note_on_c, 0, 57, 64
2, 36352, Note_on_c, 0, 57, 40
2, 36352, Note_on_c, 0, 66, 64
2, 36352, Note_on_c, 0, 69, 40
2, 36352, Note_on_c, 0, 72, 64
2, 36480, Note_off_c, 0, 69, 64
2, 36480, Note_on_c, 0, 66, 40
2, 36561, Note_off_c, 0, 66, 64
2, 36608, Note_off_c, 0, 51, 64
2, 36608, Note_off_c, 0, 72, 64
2, 36608, Note_on_c, 0, 52, 64
2, 36608, Note_on_c, 0, 66, 40
2, 36608, Note_on_c, 0, 71, 64
2, 36685, Note_off_c, 0, 47, 64
2, 36736, Note_off_c, 0, 52, 64
2, 36736, Note_off_c, 0, 66, 64
2, 36736, Note_on_c, 0, 54, 64
2, 36736, Note_on_c, 0, 67, 40
2, 36817, Note_off_c, 0, 67, 64
2, 36864, Note_off_c, 0, 66, 64
2, 36864, Note_off_c, 0, 75, 64
2, 36864, Note_off_c, 0, 57, 64
2, 36864, Note_off_c, 0, 57, 64
2, 36864, Note_off_c, 0, 66, 64
2, 36864, Note_off_c, 0, 71, 64
2, 36864, Note_off_c, 0, 54, 64
2, 36864, Note_on_c, 0, 47, 64
2, 36864, Note_on_c, 0, 47, 64
2, 36864, Note_on_c, 0, 47, 30
2, 36864, Note_on_c, 0, 55, 64
2, 36864, Note_on_c, 0, 55, 40
2, 36864, Note_on_c, 0, 55, 30
2, 36864, Note_on_c, 0, 64, 64
2, 36864, Note_on_c, 0, 64, 40
2, 36864, Note_on_c, 0, 66, 30
2, 36864, Note_on_c, 0, 67, 40
2, 36864, Note_on_c, 0, 71, 64
2, 36864, Note_on_c, 0, 76, 40
2, 36992, Note_off_c, 0, 67, 64
2, 36992, Note_on_c, 0, 64, 40
2, 37073, Note_off_c, 0, 64, 64
2, 37120, Note_off_c, 0, 71, 64
2, 37120, Note_off_c, 0, 55, 64
2, 37120, Note_off_c, 0, 55, 64
2, 37120, Note_off_c, 0, 64, 64
2, 37120, Note_off_c, 0, 64, 64
2, 37120, Note_off_c, 0, 71, 64
2, 37120, Note_on_c, 0, 54, 65
2, 37120, Note_on_c, 0, 54, 41
2, 37120, Note_on_c, 0, 64, 40
2, 37120, Note_on_c, 0, 66, 65
2, 37120, Note_on_c, 0, 66, 41
2, 37120, Note_on_c, 0, 69, 65
2, 37120, Note_on_c, 0, 69, 41
2, 37197, Note_off_c, 0, 47, 64
2, 37248, Note_off_c, 0, 64, 64
2, 37248, Note_on_c, 0, 74, 40
2, 37286, Note_off_c, 0, 54, 64
2, 37329, Note_off_c, 0, 74, 64
2, 37376, Note_off_c, 0, 47, 64
2, 37376, Note_off_c, 0, 47, 64
2, 37376, Note_off_c, 0, 55, 64
2, 37376, Note_off_c, 0, 66, 64
2, 37376, Note_off_c, 0, 76, 64
2, 37376, Note_off_c, 0, 54, 64
2, 37376, Note_off_c, 0, 66, 64
2, 37376, Note_off_c, 0, 66, 64
2, 37376, Note_off_c, 0, 69, 64
2, 37376, Note_off_c, 0, 69, 64
2, 37376, Note_on_c, 0, 53, 65
2, 37376, Note_on_c, 0, 53, 42
2, 37376, Note_on_c, 0, 56, 30
2, 37376, Note_on_c, 0, 59, 64
2, 37376, Note_on_c, 0, 59, 65
2, 37376, Note_on_c, 0, 59, 30
2, 37376, Note_on_c, 0, 65, 30
2, 37376, Note_on_c, 0, 68, 65
2, 37376, Note_on_c, 0, 68, 42
2, 37376, Note_on_c, 0, 74, 65
2, 37376, Note_on_c, 0, 74, 42
2, 37376, Note_on_c, 0, 74, 40
2, 37376, Note_on_c, 0, 77, 40
2, 37504, Note_off_c, 0, 74, 64
2, 37504, Note_on_c, 0, 71, 40
2, 37585, Note_off_c, 0, 71, 64
2, 37632, Note_off_c, 0, 53, 64
2, 37632, Note_off_c, 0, 53, 64
2, 37632, Note_on_c, 0, 56, 66
2, 37632, Note_on_c, 0, 56, 43
2, 37632, Note_on_c, 0, 71, 40
2, 37709, Note_off_c, 0, 59, 64
2, 37760, Note_off_c, 0, 71, 64
2, 37760, Note_on_c, 0, 73, 40
2, 37798, Note_off_c, 0, 56, 64
2, 37841, Note_off_c, 0, 73, 64
2, 37888, Note_off_c, 0, 56, 64
2, 37888, Note_off_c, 0, 59, 64
2, 37888, Note_off_c, 0, 59, 64
2, 37888, Note_off_c, 0, 65, 64
2, 37888, Note_off_c, 0, 68, 64
2, 37888, Note_off_c, 0, 68, 64
2, 37888, Note_off_c, 0, 56, 64
2, 37888, Note_on_c, 0, 57, 64
2, 37888, Note_on_c, 0, 57, 67
2, 37888, Note_on_c, 0, 57, 30
2, 37888, Note_on_c, 0, 57, 30
2, 37888, Note_on_c, 0, 61, 67
2, 37888, Note_on_c, 0, 61, 44
2, 37888, Note_on_c, 0, 61, 30
2, 37888, Note_on_c, 0, 66, 30
2, 37888, Note_on_c, 0, 69, 67
2, 37888, Note_on_c, 0, 69, 44
2, 37888, Note_on_c, 0, 73, 40
2, 38016, Note_off_c, 0, 73, 64
2, 38016, Note_on_c, 0, 69, 40
2, 38097, Note_off_c, 0, 69, 64
2, 38144, Note_off_c, 0, 61, 64
2, 38144, Note_off_c, 0, 61, 64
2, 38144, Note_on_c, 0, 59, 67
2, 38144, Note_on_c, 0, 59, 45
2, 38144, Note_on_c, 0, 69, 40
2, 38221, Note_off_c, 0, 57, 64
2, 38272, Note_off_c, 0, 69, 64
2, 38272, Note_on_c, 0, 71, 40
2, 38310, Note_off_c, 0, 59, 64
2, 38353, Note_off_c, 0, 71, 64
2, 38400, Note_off_c, 0, 74, 64
2, 38400, Note_off_c, 0, 57, 64
2, 38400, Note_off_c, 0, 57, 64
2, 38400, Note_off_c, 0, 57, 64
2, 38400, Note_off_c, 0, 61, 64
2, 38400, Note_off_c, 0, 66, 64
2, 38400, Note_off_c, 0, 69, 64
2, 38400, Note_off_c, 0, 69, 64
2, 38400, Note_off_c, 0, 59, 64
2, 38400, Note_on_c, 0, 56, 64
2, 38400, Note_on_c, 0, 56, 68
2, 38400, Note_on_c, 0, 56, 30
2, 38400, Note_on_c, 0, 56, 30
2, 38400, Note_on_c, 0, 62, 68
2, 38400, Note_on_c, 0, 62, 46
2, 38400, Note_on_c, 0, 62, 30
2, 38400, Note_on_c, 0, 65, 30
2, 38400, Note_on_c, 0, 71, 68
2, 38400, Note_on_c, 0, 71, 46
2, 38400, Note_on_c, 0, 71, 40
2, 38528, Note_off_c, 0, 77, 64
2, 38528, Note_off_c, 0, 71, 64
2, 38528, Note_on_c, 0, 68, 40
2, 38528, Note_on_c, 0, 71, 40
2, 38609, Note_off_c, 0, 68, 64
2, 38609, Note_off_c, 0, 71, 64
2, 38656, Note_off_c, 0, 74, 64
2, 38656, Note_on_c, 0, 66, 47
2, 38656, Note_on_c, 0, 68, 40
2, 38656, Note_on_c, 0, 71, 40
2, 38733, Note_off_c, 0, 56, 64
2, 38784, Note_off_c, 0, 68, 64
2, 38784, Note_off_c, 0, 71, 64
2, 38784, Note_on_c, 0, 83, 40
2, 38784, Note_on_c, 0, 86, 40
2, 38865, Note_off_c, 0, 83, 64
2, 38865, Note_off_c, 0, 86, 64
2, 38912, Note_off_c, 0, 56, 64
2, 38912, Note_off_c, 0, 56, 64
2, 38912, Note_off_c, 0, 56, 64
2, 38912, Note_off_c, 0, 62, 64
2, 38912, Note_off_c, 0, 65, 64
2, 38912, Note_off_c, 0, 71, 64
2, 38912, Note_off_c, 0, 71, 64
2, 38912, Note_off_c, 0, 66, 64
2, 38912, Note_on_c, 0, 53, 64
2, 38912, Note_on_c, 0, 53, 69
2, 38912, Note_on_c, 0, 53, 30
2, 38912, Note_on_c, 0, 53, 30
2, 38912, Note_on_c, 0, 59, 30
2, 38912, Note_on_c, 0, 62, 30
2, 38912, Note_on_c, 0, 68, 69
2, 38912, Note_on_c, 0, 68, 69
2, 38912, Note_on_c, 0, 68, 48
2, 38912, Note_on_c, 0, 68, 48
2, 38912, Note_on_c, 0, 83, 40
2, 38912, Note_on_c, 0, 86, 40
2, 39040, Note_off_c, 0, 83, 64
2, 39040, Note_off_c, 0, 86, 64
2, 39040, Note_on_c, 0, 80, 40
2, 39040, Note_on_c, 0, 83, 40
2, 39121, Note_off_c, 0, 80, 64
2, 39121, Note_off_c, 0, 83, 64
2, 39168, Note_off_c, 0, 68, 64
2, 39168, Note_off_c, 0, 68, 64
2, 39168, Note_on_c, 0, 66, 70
2, 39168, Note_on_c, 0, 66, 49
2, 39168, Note_on_c, 0, 80, 40
2, 39168, Note_on_c, 0, 83, 40
2, 39245, Note_off_c, 0, 53, 64
2, 39296, Note_off_c, 0, 80, 64
2, 39296, Note_off_c, 0, 83, 64
2, 39296, Note_on_c, 0, 81, 40
2, 39296, Note_on_c, 0, 85, 40
2, 39334, Note_off_c, 0, 66, 64
2, 39377, Note_off_c, 0, 81, 64
2, 39377, Note_off_c, 0, 85, 64
2, 39424, Note_off_c, 0, 62, 64
2, 39424, Note_off_c, 0, 62, 64
2, 39424, Note_off_c, 0, 53, 64
2, 39424, Note_off_c, 0, 53, 64
2, 39424, Note_off_c, 0, 53, 64
2, 39424, Note_off_c, 0, 59, 64
2, 39424, Note_off_c, 0, 62, 64
2, 39424, Note_off_c, 0, 68, 64
2, 39424, Note_off_c, 0, 68, 64
2, 39424, Note_off_c, 0, 66, 64
2, 39424, Note_on_c, 0, 54, 64
2, 39424, Note_on_c, 0, 54, 71
2, 39424, Note_on_c, 0, 54, 30
2, 39424, Note_on_c, 0, 54, 30
2, 39424, Note_on_c, 0, 57, 71
2, 39424, Note_on_c, 0, 57, 50
2, 39424, Note_on_c, 0, 57, 30
2, 39424, Note_on_c, 0, 61, 71
2, 39424, Note_on_c, 0, 61, 50
2, 39424, Note_on_c, 0, 61, 30
2, 39424, Note_on_c, 0, 65, 71
2, 39424, Note_on_c, 0, 65, 50
2, 39424, Note_on_c, 0, 81, 40
2, 39424, Note_on_c, 0, 85, 40
2, 39552, Note_off_c, 0, 81, 64
2, 39552, Note_off_c, 0, 85, 64
2, 39552, Note_on_c, 0, 78, 40
2, 39552, Note_on_c, 0, 81, 40
2, 39633, Note_off_c, 0, 78, 64
2, 39633, Note_off_c, 0, 81, 64
2, 39680, Note_off_c, 0, 57, 64
2, 39680, Note_off_c, 0, 57, 64
2, 39680, Note_off_c, 0, 65, 64
2, 39680, Note_off_c, 0, 65, 64
2, 39680, Note_on_c, 0, 59, 71
2, 39680, Note_on_c, 0, 59, 51
2, 39680, Note_on_c, 0, 66, 71
2, 39680, Note_on_c, 0, 66, 51
2, 39680, Note_on_c, 0, 78, 40
2, 39680, Note_on_c, 0, 81, 40
2, 39757, Note_off_c, 0, 54, 64
2, 39808, Note_off_c, 0, 59, 64
2, 39808, Note_off_c, 0, 59, 64
2, 39808, Note_off_c, 0, 78, 64
2, 39808, Note_off_c, 0, 81, 64
2, 39808, Note_on_c, 0, 61, 72
2, 39808, Note_on_c, 0, 61, 52
2, 39808, Note_on_c, 0, 79, 40
2, 39808, Note_on_c, 0, 83, 40
2, 39846, Note_off_c, 0, 66, 64
2, 39889, Note_off_c, 0, 79, 64
2, 39889, Note_off_c, 0, 83, 64
2, 39936, Note_off_c, 0, 54, 64
2, 39936, Note_off_c, 0, 54, 64
2, 39936, Note_off_c, 0, 54, 64
2, 39936, Note_off_c, 0, 57, 64
2, 39936, Note_off_c, 0, 61, 64
2, 39936, Note_off_c, 0, 61, 64
2, 39936, Note_off_c, 0, 61, 64
2, 39936, Note_off_c, 0, 66, 64
2, 39936, Note_off_c, 0, 61, 64
2, 39936, Note_off_c, 0, 61, 64
2, 39936, Note_on_c, 0, 47, 64
2, 39936, Note_on_c, 0, 47, 72
2, 39936, Note_on_c, 0, 47, 30
2, 39936, Note_on_c, 0, 55, 30
2, 39936, Note_on_c, 0, 59, 72
2, 39936, Note_on_c, 0, 59, 52
2, 39936, Note_on_c, 0, 66, 30
2, 39936, Note_on_c, 0, 67, 72
2, 39936, Note_on_c, 0, 67, 52
2, 39936, Note_on_c, 0, 74, 72
2, 39936, Note_on_c, 0, 74, 52
2, 39936, Note_on_c, 0, 79, 40
2, 39936, Note_on_c, 0, 83, 40
2, 40064, Note_off_c, 0, 79, 64
2, 40064, Note_on_c, 0, 77, 40
2, 40145, Note_off_c, 0, 77, 64
2, 40192, Note_on_c, 0, 77, 40
2, 40269, Note_off_c, 0, 47, 64
2, 40320, Note_off_c, 0, 77, 64
2, 40320, Note_on_c, 0, 78, 40
2, 40401, Note_off_c, 0, 78, 64
2, 40448, Note_off_c, 0, 47, 64
2, 40448, Note_off_c, 0, 47, 64
2, 40448, Note_off_c, 0, 55, 64
2, 40448, Note_off_c, 0, 66, 64
2, 40448, Note_off_c, 0, 67, 64
2, 40448, Note_off_c, 0, 67, 64
2, 40448, Note_off_c, 0, 74, 64
2, 40448, Note_off_c, 0, 74, 64
2, 40448, Note_on_c, 0, 44, 64
2, 40448, Note_on_c, 0, 44, 73
2, 40448, Note_on_c, 0, 44, 30
2, 40448, Note_on_c, 0, 56, 30
2, 40448, Note_on_c, 0, 59, 73
2, 40448, Note_on_c, 0, 59, 54
2, 40448, Note_on_c, 0, 65, 30
2, 40448, Note_on_c, 0, 73, 73
2, 40448, Note_on_c, 0, 73, 54
2, 40448, Note_on_c, 0, 78, 40
2, 40576, Note_off_c, 0, 78, 64
2, 40576, Note_on_c, 0, 71, 40
2, 40657, Note_off_c, 0, 71, 64
2, 40704, Note_off_c, 0, 59, 64
2, 40704, Note_off_c, 0, 59, 64
2, 40704, Note_off_c, 0, 73, 64
2, 40704, Note_off_c, 0, 73, 64
2, 40704, Note_on_c, 0, 62, 74
2, 40704, Note_on_c, 0, 62, 55
2, 40704, Note_on_c, 0, 71, 74
2, 40704, Note_on_c, 0, 71, 55
2, 40704, Note_on_c, 0, 71, 40
2, 40781, Note_off_c, 0, 44, 64
2, 40832, Note_off_c, 0, 71, 64
2, 40832, Note_on_c, 0, 77, 40
2, 40870, Note_off_c, 0, 71, 64
2, 40913, Note_off_c, 0, 77, 64
2, 40960, Note_off_c, 0, 44, 64
2, 40960, Note_off_c, 0, 44, 64
2, 40960, Note_off_c, 0, 59, 64
2, 40960, Note_off_c, 0, 59, 64
2, 40960, Note_off_c, 0, 62, 64
2, 40960, Note_off_c, 0, 62, 64
2, 40960, Note_off_c, 0, 71, 64
2, 40960, Note_on_c, 0, 49, 64
2, 40960, Note_on_c, 0, 49, 75
2, 40960, Note_on_c, 0, 49, 30
2, 40960, Note_on_c, 0, 53, 75
2, 40960, Note_on_c, 0, 53, 56
2, 40960, Note_on_c, 0, 59, 30
2, 40960, Note_on_c, 0, 61, 75
2, 40960, Note_on_c, 0, 61, 56
2, 40960, Note_on_c, 0, 69, 75
2, 40960, Note_on_c, 0, 69, 56
2, 40960, Note_on_c, 0, 77, 40
2, 41088, Note_off_c, 0, 77, 64
2, 41088, Note_on_c, 0, 73, 40
2, 41169, Note_off_c, 0, 73, 64
2, 41216, Note_off_c, 0, 53, 64
2, 41216, Note_off_c, 0, 53, 64
2, 41216, Note_off_c, 0, 69, 64
2, 41216, Note_off_c, 0, 69, 64
2, 41216, Note_on_c, 0, 56, 75
2, 41216, Note_on_c, 0, 56, 57
2, 41216, Note_on_c, 0, 68, 75
2, 41216, Note_on_c, 0, 68, 57
2, 41216, Note_on_c, 0, 73, 40
2, 41293, Note_off_c, 0, 49, 64
2, 41344, Note_off_c, 0, 73, 64
2, 41344, Note_on_c, 0, 77, 40
2, 41382, Note_off_c, 0, 56, 64
2, 41382, Note_off_c, 0, 68, 64
2, 41425, Note_off_c, 0, 77, 64
2, 41472, Note_off_c, 0, 56, 64
2, 41472, Note_off_c, 0, 65, 64
2, 41472, Note_off_c, 0, 49, 64
2, 41472, Note_off_c, 0, 49, 64
2, 41472, Note_off_c, 0, 59, 64
2, 41472, Note_off_c, 0, 56, 64
2, 41472, Note_off_c, 0, 68, 64
2, 41472, Note_on_c, 0, 42, 64
2, 41472, Note_on_c, 0, 42, 76
2, 41472, Note_on_c, 0, 42, 30
2, 41472, Note_on_c, 0, 54, 76
2, 41472, Note_on_c, 0, 54, 58
2, 41472, Note_on_c, 0, 54, 30
2, 41472, Note_on_c, 0, 57, 30
2, 41472, Note_on_c, 0, 61, 30
2, 41472, Note_on_c, 0, 73, 76
2, 41472, Note_on_c, 0, 73, 58
2, 41472, Note_on_c, 0, 78, 40
2, 41600, Note_off_c, 0, 83, 64
2, 41600, Note_on_c, 0, 80, 40
2, 41728, Note_off_c, 0, 61, 64
2, 41728, Note_off_c, 0, 61, 64
2, 41728, Note_off_c, 0, 54, 64
2, 41728, Note_off_c, 0, 54, 64
2, 41728, Note_off_c, 0, 80, 64
2, 41728, Note_on_c, 0, 49, 77
2, 41728, Note_on_c, 0, 49, 59
2, 41728, Note_on_c, 0, 66, 77
2, 41728, Note_on_c, 0, 66, 59
2, 41728, Note_on_c, 0, 81, 40
2, 41805, Note_off_c, 0, 42, 64
2, 41856, Note_off_c, 0, 81, 64
2, 41856, Note_on_c, 0, 78, 40
2, 41984, Note_off_c, 0, 42, 64
2, 41984, Note_off_c, 0, 42, 64
2, 41984, Note_off_c, 0, 54, 64
2, 41984, Note_off_c, 0, 57, 64
2, 41984, Note_off_c, 0, 61, 64
2, 41984, Note_off_c, 0, 78, 64
2, 41984, Note_off_c, 0, 49, 64
2, 41984, Note_off_c, 0, 49, 64
2, 41984, Note_off_c, 0, 66, 64
2, 41984, Note_off_c, 0, 66, 64
2, 41984, Note_on_c, 0, 49, 64
2, 41984, Note_on_c, 0, 49, 30
2, 41984, Note_on_c, 0, 54, 30
2, 41984, Note_on_c, 0, 56, 30
2, 41984, Note_on_c, 0, 61, 77
2, 41984, Note_on_c, 0, 61, 60
2, 41984, Note_on_c, 0, 61, 30
2, 41984, Note_on_c, 0, 66, 77
2, 41984, Note_on_c, 0, 66, 60
2, 41984, Note_on_c, 0, 80, 40
2, 42112, Note_off_c, 0, 78, 64
2, 42112, Note_on_c, 0, 77, 40
2, 42240, Note_off_c, 0, 73, 64
2, 42240, Note_off_c, 0, 73, 64
2, 42240, Note_off_c, 0, 66, 64
2, 42240, Note_off_c, 0, 66, 64
2, 42240, Note_off_c, 0, 77, 64
2, 42240, Note_on_c, 0, 59, 78
2, 42240, Note_on_c, 0, 59, 61
2, 42240, Note_on_c, 0, 74, 78
2, 42240, Note_on_c, 0, 74, 61
2, 42240, Note_on_c, 0, 78, 40
2, 42317, Note_off_c, 0, 49, 64
2, 42368, Note_off_c, 0, 74, 64
2, 42368, Note_off_c, 0, 74, 64
2, 42368, Note_off_c, 0, 78, 64
2, 42368, Note_on_c, 0, 73, 78
2, 42368, Note_on_c, 0, 73, 62
2, 42368, Note_on_c, 0, 75, 40
2, 42406, Note_off_c, 0, 59, 64
2, 42496, Note_off_c, 0, 49, 64
2, 42496, Note_off_c, 0, 54, 64
2, 42496, Note_off_c, 0, 61, 64
2, 42496, Note_off_c, 0, 61, 64
2, 42496, Note_off_c, 0, 59, 64
2, 42496, Note_off_c, 0, 73, 64
2, 42496, Note_off_c, 0, 73, 64
2, 42496, Note_off_c, 0, 75, 64
2, 42496, Note_on_c, 0, 37, 64
2, 42496, Note_on_c, 0, 37, 30
2, 42496, Note_on_c, 0, 53, 30
2, 42496, Note_on_c, 0, 56, 79
2, 42496, Note_on_c, 0, 56, 62
2, 42496, Note_on_c, 0, 56, 79
2, 42496, Note_on_c, 0, 62, 79
2, 42496, Note_on_c, 0, 62, 62
2, 42496, Note_on_c, 0, 71, 79
2, 42496, Note_on_c, 0, 71, 62
2, 42496, Note_on_c, 0, 78, 40
2, 42560, Note_off_c, 0, 78, 64
2, 42560, Note_on_c, 0, 77, 40
2, 42624, Note_off_c, 0, 71, 64
2, 42624, Note_off_c, 0, 71, 64
2, 42624, Note_off_c, 0, 77, 64
2, 42624, Note_on_c, 0, 69, 79
2, 42624, Note_on_c, 0, 69, 63
2, 42624, Note_on_c, 0, 78, 40
2, 42688, Note_off_c, 0, 78, 64
2, 42688, Note_on_c, 0, 77, 40
2, 42752, Note_off_c, 0, 80, 64
2, 42752, Note_off_c, 0, 56, 64
2, 42752, Note_off_c, 0, 62, 64
2, 42752, Note_off_c, 0, 62, 64
2, 42752, Note_off_c, 0, 69, 64
2, 42752, Note_off_c, 0, 69, 64
2, 42752, Note_off_c, 0, 77, 64
2, 42752, Note_on_c, 0, 53, 79
2, 42752, Note_on_c, 0, 61, 79
2, 42752, Note_on_c, 0, 61, 63
2, 42752, Note_on_c, 0, 71, 79
2, 42752, Note_on_c, 0, 71, 63
2, 42752, Note_on_c, 0, 78, 40
2, 42752, Note_on_c, 0, 78, 40
2, 42816, Note_off_c, 0, 78, 64
2, 42816, Note_on_c, 0, 77, 40
2, 42829, Note_off_c, 0, 37, 64
2, 42880, Note_off_c, 0, 77, 64
2, 42880, Note_on_c, 0, 78, 40
2, 42918, Note_off_c, 0, 61, 64
2, 43008, Note_off_c, 0, 56, 64
2, 43008, Note_off_c, 0, 61, 64
2, 43008, Note_off_c, 0, 37, 64
2, 43008, Note_off_c, 0, 53, 64
2, 43008, Note_off_c, 0, 56, 64
2, 43008, Note_off_c, 0, 56, 64
2, 43008, Note_off_c, 0, 53, 64
2, 43008, Note_off_c, 0, 61, 64
2, 43008, Note_off_c, 0, 71, 64
2, 43008, Note_off_c, 0, 71, 64
2, 43008, Note_off_c, 0, 78, 64
2, 43008, Note_off_c, 0, 78, 64
2, 43008, Note_on_c, 0, 42, 64
2, 43008, Note_on_c, 0, 42, 30
2, 43008, Note_on_c, 0, 49, 80
2, 43008, Note_on_c, 0, 54, 30
2, 43008, Note_on_c, 0, 57, 80
2, 43008, Note_on_c, 0, 57, 64
2, 43008, Note_on_c, 0, 57, 30
2, 43008, Note_on_c, 0, 61, 80
2, 43008, Note_on_c, 0, 61, 64
2, 43008, Note_on_c, 0, 61, 30
2, 43008, Note_on_c, 0, 69, 80
2, 43008, Note_on_c, 0, 69, 64
2, 43008, Note_on_c, 0, 78, 40
2, 43008, Note_on_c, 0, 78, 40
2, 43136, Note_off_c, 0, 78, 64
2, 43136, Note_on_c, 0, 71, 40
2, 43264, Note_off_c, 0, 57, 64
2, 43264, Note_off_c, 0, 71, 64
2, 43264, Note_on_c, 0, 54, 60
2, 43264, Note_on_c, 0, 73, 40
2, 43341, Note_off_c, 0, 42, 64
2, 43392, Note_off_c, 0, 73, 64
2, 43392, Note_on_c, 0, 74, 40
2, 43430, Note_off_c, 0, 54, 64
2, 43520, Note_off_c, 0, 42, 64
2, 43520, Note_off_c, 0, 49, 64
2, 43520, Note_off_c, 0, 54, 64
2, 43520, Note_off_c, 0, 57, 64
2, 43520, Note_off_c, 0, 57, 64
2, 43520, Note_off_c, 0, 61, 64
2, 43520, Note_off_c, 0, 61, 64
2, 43520, Note_off_c, 0, 61, 64
2, 43520, Note_off_c, 0, 69, 64
2, 43520, Note_off_c, 0, 74, 64
2, 43520, Note_on_c, 0, 42, 64
2, 43520, Note_on_c, 0, 49, 64
2, 43520, Note_on_c, 0, 61, 56
2, 43520, Note_on_c, 0, 66, 56
2, 43520, Note_on_c, 0, 73, 40
2, 43648, Note_off_c, 0, 73, 64
2, 43648, Note_on_c, 0, 71, 40
2, 43776, Note_off_c, 0, 69, 64
2, 43776, Note_off_c, 0, 61, 64
2, 43776, Note_off_c, 0, 66, 64
2, 43776, Note_off_c, 0, 71, 64
2, 43776, Note_on_c, 0, 53, 52
2, 43776, Note_on_c, 0, 68, 52
2, 43776, Note_on_c, 0, 69, 40
2, 43776, Note_on_c, 0, 71, 52
2, 43853, Note_off_c, 0, 42, 64
2, 43904, Note_off_c, 0, 69, 64
2, 43904, Note_on_c, 0, 68, 40
2, 43942, Note_off_c, 0, 53, 64
2, 44032, Note_off_c, 0, 78, 64
2, 44032, Note_off_c, 0, 49, 64
2, 44032, Note_off_c, 0, 68, 64
2, 44032, Note_off_c, 0, 71, 64
2, 44032, Note_off_c, 0, 68, 64
2, 44032, Note_on_c, 0, 42, 64
2, 44032, Note_on_c, 0, 49, 64
2, 44032, Note_on_c, 0, 61, 64
2, 44032, Note_on_c, 0, 61, 48
2, 44032, Note_on_c, 0, 66, 40
2, 44032, Note_on_c, 0, 69, 48
2, 44032, Note_on_c, 0, 73, 48
2, 44160, Note_off_c, 0, 66, 64
2, 44160, Note_on_c, 0, 69, 40
2, 44288, Note_off_c, 0, 61, 64
2, 44288, Note_off_c, 0, 61, 64
2, 44288, Note_off_c, 0, 73, 64
2, 44288, Note_off_c, 0, 69, 64
2, 44288, Note_on_c, 0, 57, 64
2, 44288, Note_on_c, 0, 57, 44
2, 44288, Note_on_c, 0, 68, 40
2, 44288, Note_on_c, 0, 77, 44
2, 44365, Note_off_c, 0, 42, 64
2, 44416, Note_off_c, 0, 68, 64
2, 44416, Note_on_c, 0, 66, 40
2, 44454, Note_off_c, 0, 57, 64
2, 44454, Note_off_c, 0, 77, 64
2, 44544, Note_off_c, 0, 49, 64
2, 44544, Note_off_c, 0, 57, 64
2, 44544, Note_off_c, 0, 66, 64
2, 44544, Note_on_c, 0, 38, 64
2, 44544, Note_on_c, 0, 38, 30
2, 44544, Note_on_c, 0, 54, 64
2, 44544, Note_on_c, 0, 54, 30
2, 44544, Note_on_c, 0, 57, 64
2, 44544, Note_on_c, 0, 57, 30
2, 44544, Note_on_c, 0, 60, 40
2, 44544, Note_on_c, 0, 60, 30
2, 44544, Note_on_c, 0, 78, 40
2, 44544, Note_on_c, 0, 78, 40
2, 44544, Note_on_c, 0, 81, 40
2, 44672, Note_off_c, 0, 78, 64
2, 44672, Note_off_c, 0, 81, 64
2, 44672, Note_on_c, 0, 76, 40
2, 44672, Note_on_c, 0, 79, 40
2, 44800, Note_off_c, 0, 69, 64
2, 44800, Note_off_c, 0, 60, 64
2, 44800, Note_off_c, 0, 76, 64
2, 44800, Note_off_c, 0, 79, 64
2, 44800, Note_on_c, 0, 57, 40
2, 44800, Note_on_c, 0, 62, 40
2, 44800, Note_on_c, 0, 78, 40
2, 44800, Note_on_c, 0, 81, 40
2, 44877, Note_off_c, 0, 38, 64
2, 44928, Note_off_c, 0, 78, 64
2, 44928, Note_off_c, 0, 81, 64
2, 44928, Note_on_c, 0, 79, 40
2, 44928, Note_on_c, 0, 83, 40
2, 44966, Note_off_c, 0, 57, 64
2, 45056, Note_off_c, 0, 38, 64
2, 45056, Note_off_c, 0, 54, 64
2, 45056, Note_off_c, 0, 54, 64
2, 45056, Note_off_c, 0, 57, 64
2, 45056, Note_off_c, 0, 60, 64
2, 45056, Note_off_c, 0, 62, 64
2, 45056, Note_off_c, 0, 79, 64
2, 45056, Note_off_c, 0, 83, 64
2, 45056, Note_on_c, 0, 38, 64
2, 45056, Note_on_c, 0, 54, 64
2, 45056, Note_on_c, 0, 60, 40
2, 45056, Note_on_c, 0, 64, 40
2, 45056, Note_on_c, 0, 78, 40
2, 45056, Note_on_c, 0, 81, 40
2, 45184, Note_off_c, 0, 78, 64
2, 45184, Note_off_c, 0, 81, 64
2, 45184, Note_on_c, 0, 76, 40
2, 45184, Note_on_c, 0, 79, 40
2, 45312, Note_off_c, 0, 60, 64
2, 45312, Note_off_c, 0, 64, 64
2, 45312, Note_off_c, 0, 76, 64
2, 45312, Note_off_c, 0, 79, 64
2, 45312, Note_on_c, 0, 57, 40
2, 45312, Note_on_c, 0, 66, 40
2, 45312, Note_on_c, 0, 74, 40
2, 45312, Note_on_c, 0, 78, 40
2, 45389, Note_off_c, 0, 38, 64
2, 45440, Note_off_c, 0, 74, 64
2, 45440, Note_off_c, 0, 78, 64
2, 45440, Note_on_c, 0, 76, 40
2, 45440, Note_on_c, 0, 76, 40
2, 45478, Note_off_c, 0, 57, 64
2, 45568, Note_off_c, 0, 54, 64
2, 45568, Note_off_c, 0, 66, 64
2, 45568, Note_off_c, 0, 76, 64
2, 45568, Note_off_c, 0, 76, 64
2, 45568, Note_on_c, 0, 38, 64
2, 45568, Note_on_c, 0, 54, 64
2, 45568, Note_on_c, 0, 60, 40
2, 45568, Note_on_c, 0, 66, 64
2, 45568, Note_on_c, 0, 67, 40
2, 45568, Note_on_c, 0, 74, 40
2, 45568, Note_on_c, 0, 78, 40
2, 45696, Note_off_c, 0, 74, 64
2, 45696, Note_off_c, 0, 78, 64
2, 45696, Note_on_c, 0, 74, 40
2, 45696, Note_on_c, 0, 78, 40
2, 45824, Note_off_c, 0, 60, 64
2, 45824, Note_off_c, 0, 66, 64
2, 45824, Note_off_c, 0, 67, 64
2, 45824, Note_off_c, 0, 74, 64
2, 45824, Note_off_c, 0, 78, 64
2, 45824, Note_on_c, 0, 54, 40
2, 45824, Note_on_c, 0, 62, 64
2, 45824, Note_on_c, 0, 69, 40
2, 45824, Note_on_c, 0, 76, 40
2, 45824, Note_on_c, 0, 76, 40
2, 45901, Note_off_c, 0, 38, 64
2, 45952, Note_off_c, 0, 76, 64
2, 45952, Note_off_c, 0, 76, 64
2, 45952, Note_on_c, 0, 74, 40
2, 45952, Note_on_c, 0, 78, 40
2, 45990, Note_off_c, 0, 54, 64
2, 46080, Note_off_c, 0, 54, 64
2, 46080, Note_off_c, 0, 62, 64
2, 46080, Note_off_c, 0, 69, 64
2, 46080, Note_off_c, 0, 74, 64
2, 46080, Note_off_c, 0, 78, 64
2, 46080, Note_on_c, 0, 43, 64
2, 46080, Note_on_c, 0, 43, 30
2, 46080, Note_on_c, 0, 55, 40
2, 46080, Note_on_c, 0, 55, 30
2, 46080, Note_on_c, 0, 59, 64
2, 46080, Note_on_c, 0, 60, 30
2, 46080, Note_on_c, 0, 62, 64
2, 46080, Note_on_c, 0, 71, 40
2, 46080, Note_on_c, 0, 71, 40
2, 46080, Note_on_c, 0, 86, 40
2, 46336, Note_off_c, 0, 78, 64
2, 46336, Note_off_c, 0, 55, 64
2, 46336, Note_off_c, 0, 71, 64
2, 46336, Note_on_c, 0, 59, 40
2, 46336, Note_on_c, 0, 62, 40
2, 46336, Note_on_c, 0, 67, 40
2, 46413, Note_off_c, 0, 43, 64
2, 46464, Note_off_c, 0, 59, 64
2, 46464, Note_off_c, 0, 67, 64
2, 46464, Note_on_c, 0, 60, 40
2, 46464, Note_on_c, 0, 69, 40
2, 46592, Note_off_c, 0, 57, 64
2, 46592, Note_off_c, 0, 43, 64
2, 46592, Note_off_c, 0, 55, 64
2, 46592, Note_off_c, 0, 59, 64
2, 46592, Note_off_c, 0, 60, 64
2, 46592, Note_off_c, 0, 60, 64
2, 46592, Note_off_c, 0, 69, 64
2, 46592, Note_on_c, 0, 43, 64
2, 46592, Note_on_c, 0, 55, 64
2, 46592, Note_on_c, 0, 55, 30
2, 46592, Note_on_c, 0, 59, 64
2, 46592, Note_on_c, 0, 59, 30
2, 46592, Note_on_c, 0, 62, 40
2, 46592, Note_on_c, 0, 71, 40
2, 46720, Note_off_c, 0, 71, 64
2, 46720, Note_on_c, 0, 72, 40
2, 46848, Note_off_c, 0, 62, 64
2, 46848, Note_off_c, 0, 55, 64
2, 46848, Note_off_c, 0, 62, 64
2, 46848, Note_off_c, 0, 72, 64
2, 46848, Note_on_c, 0, 54, 64
2, 46848, Note_on_c, 0, 60, 40
2, 46848, Note_on_c, 0, 64, 40
2, 46848, Note_on_c, 0, 74, 40
2, 46925, Note_off_c, 0, 43, 64
2, 46976, Note_off_c, 0, 64, 64
2, 46976, Note_on_c, 0, 66, 40
2, 47104, Note_off_c, 0, 55, 64
2, 47104, Note_off_c, 0, 59, 64
2, 47104, Note_off_c, 0, 59, 64
2, 47104, Note_off_c, 0, 54, 64
2, 47104, Note_off_c, 0, 60, 64
2, 47104, Note_off_c, 0, 66, 64
2, 47104, Note_on_c, 0, 43, 64
2, 47104, Note_on_c, 0, 59, 64
2, 47104, Note_on_c, 0, 59, 40
2, 47104, Note_on_c, 0, 59, 64
2, 47104, Note_on_c, 0, 67, 40
2, 47104, Note_on_c, 0, 71, 64
2, 47232, Note_off_c, 0, 67, 64
2, 47232, Note_on_c, 0, 69, 40
2, 47360, Note_off_c, 0, 74, 64
2, 47360, Note_off_c, 0, 59, 64
2, 47360, Note_off_c, 0, 71, 64
2, 47360, Note_off_c, 0, 69, 64
2, 47360, Note_on_c, 0, 62, 40
2, 47360, Note_on_c, 0, 67, 64
2, 47360, Note_on_c, 0, 71, 40
2, 47360, Note_on_c, 0, 71, 40
2, 47437, Note_off_c, 0, 43, 64
2, 47616, Note_off_c, 0, 59, 64
2, 47616, Note_off_c, 0, 59, 64
2, 47616, Note_off_c, 0, 62, 64
2, 47616, Note_off_c, 0, 67, 64
2, 47616, Note_off_c, 0, 71, 64
2, 47616, Note_off_c, 0, 71, 64
2, 47616, Note_on_c, 0, 44, 64
2, 47616, Note_on_c, 0, 44, 30
2, 47616, Note_on_c, 0, 59, 64
2, 47616, Note_on_c, 0, 61, 30
2, 47616, Note_on_c, 0, 62, 40
2, 47616, Note_on_c, 0, 65, 64
2, 47616, Note_on_c, 0, 65, 30
2, 47616, Note_on_c, 0, 68, 64
2, 47616, Note_on_c, 0, 68, 40
2, 47616, Note_on_c, 0, 69, 30
2, 47616, Note_on_c, 0, 71, 40
2, 47872, Note_off_c, 0, 62, 64
2, 47872, Note_on_c, 0, 59, 40
2, 47949, Note_off_c, 0, 44, 64
2, 48128, Note_off_c, 0, 62, 64
2, 48128, Note_off_c, 0, 44, 64
2, 48128, Note_off_c, 0, 61, 64
2, 48128, Note_off_c, 0, 65, 64
2, 48128, Note_off_c, 0, 65, 64
2, 48128, Note_off_c, 0, 69, 64
2, 48128, Note_off_c, 0, 59, 64
2, 48128, Note_on_c, 0, 44, 64
2, 48128, Note_on_c, 0, 56, 40
2, 48128, Note_on_c, 0, 61, 64
2, 48128, Note_on_c, 0, 61, 30
2, 48128, Note_on_c, 0, 65, 64
2, 48128, Note_on_c, 0, 65, 30
2, 48128, Note_on_c, 0, 68, 30
2, 48384, Note_off_c, 0, 56, 64
2, 48384, Note_on_c, 0, 57, 40
2, 48461, Note_off_c, 0, 44, 64
2, 48550, Note_off_c, 0, 57, 64
2, 48640, Note_off_c, 0, 59, 64
2, 48640, Note_off_c, 0, 61, 64
2, 48640, Note_off_c, 0, 61, 64
2, 48640, Note_off_c, 0, 65, 64
2, 48640, Note_off_c, 0, 65, 64
2, 48640, Note_off_c, 0, 68, 64
2, 48640, Note_on_c, 0, 44, 64
2, 48640, Note_on_c, 0, 50, 64
2, 48640, Note_on_c, 0, 59, 64
2, 48640, Note_on_c, 0, 59, 40
2, 48640, Note_on_c, 0, 65, 64
2, 48896, Note_off_c, 0, 59, 64
2, 48896, Note_on_c, 0, 62, 40
2, 48973, Note_off_c, 0, 44, 64
2, 49062, Note_off_c, 0, 62, 64
2, 49152, Note_off_c, 0, 50, 64
2, 49152, Note_off_c, 0, 59, 64
2, 49152, Note_off_c, 0, 65, 64
2, 49152, Note_on_c, 0, 41, 64
2, 49152, Note_on_c, 0, 41, 30
2, 49152, Note_on_c, 0, 53, 40
2, 49152, Note_on_c, 0, 53, 30
2, 49152, Note_on_c, 0, 56, 30
2, 49152, Note_on_c, 0, 59, 64
2, 49152, Note_on_c, 0, 59, 30
2, 49152, Note_on_c, 0, 62, 30
2, 49152, Note_on_c, 0, 74, 64
2, 49280, Note_off_c, 0, 86, 64
2, 49280, Note_on_c, 0, 85, 40
2, 49408, Note_off_c, 0, 85, 64
2, 49408, Note_on_c, 0, 86, 40
2, 49485, Note_off_c, 0, 41, 64
2, 49536, Note_off_c, 0, 86, 64
2, 49536, Note_on_c, 0, 88, 40
2, 49664, Note_off_c, 0, 68, 64
2, 49664, Note_off_c, 0, 41, 64
2, 49664, Note_off_c, 0, 53, 64
2, 49664, Note_off_c, 0, 56, 64
2, 49664, Note_off_c, 0, 59, 64
2, 49664, Note_off_c, 0, 62, 64
2, 49664, Note_off_c, 0, 88, 64
2, 49664, Note_on_c, 0, 41, 64
2, 49664, Note_on_c, 0, 59, 64
2, 49664, Note_on_c, 0, 66, 64
2, 49664, Note_on_c, 0, 86, 40
2, 49792, Note_off_c, 0, 86, 64
2, 49792, Note_on_c, 0, 85, 40
2, 49920, Note_off_c, 0, 85, 64
2, 49920, Note_on_c, 0, 83, 40
2, 49997, Note_off_c, 0, 41, 64
2, 50048, Note_off_c, 0, 83, 64
2, 50048, Note_on_c, 0, 81, 40
2, 50176, Note_off_c, 0, 59, 64
2, 50176, Note_off_c, 0, 66, 64
2, 50176, Note_off_c, 0, 81, 64
2, 50176, Note_on_c, 0, 41, 64
2, 50176, Note_on_c, 0, 59, 64
2, 50176, Note_on_c, 0, 65, 64
2, 50176, Note_on_c, 0, 83, 40
2, 50304, Note_off_c, 0, 83, 64
2, 50304, Note_on_c, 0, 80, 40
2, 50432, Note_off_c, 0, 59, 64
2, 50432, Note_off_c, 0, 80, 64
2, 50432, Note_on_c, 0, 56, 64
2, 50432, Note_on_c, 0, 81, 40
2, 50509, Note_off_c, 0, 41, 64
2, 50560, Note_off_c, 0, 81, 64
2, 50560, Note_on_c, 0, 83, 40
2, 50688, Note_off_c, 0, 59, 64
2, 50688, Note_off_c, 0, 65, 64
2, 50688, Note_off_c, 0, 56, 64
2, 50688, Note_off_c, 0, 83, 64
2, 50688, Note_on_c, 0, 37, 64
2, 50688, Note_on_c, 0, 37, 30
2, 50688, Note_on_c, 0, 49, 30
2, 50688, Note_on_c, 0, 59, 30
2, 50688, Note_on_c, 0, 61, 64
2, 50688, Note_on_c, 0, 62, 30
2, 50688, Note_on_c, 0, 71, 64
2, 50688, Note_on_c, 0, 77, 40
2, 50816, Note_off_c, 0, 71, 64
2, 50816, Note_off_c, 0, 77, 64
2, 50816, Note_on_c, 0, 69, 40
2, 50816, Note_on_c, 0, 78, 40
2, 50944, Note_off_c, 0, 71, 64
2, 50944, Note_off_c, 0, 53, 64
2, 50944, Note_off_c, 0, 69, 64
2, 50944, Note_off_c, 0, 78, 64
2, 50944, Note_on_c, 0, 54, 40
2, 50944, Note_on_c, 0, 68, 40
2, 50944, Note_on_c, 0, 71, 40
2, 50944, Note_on_c, 0, 80, 40
2, 51021, Note_off_c, 0, 37, 64
2, 51072, Note_off_c, 0, 71, 64
2, 51072, Note_off_c, 0, 80, 64
2, 51072, Note_on_c, 0, 73, 40
2, 51072, Note_on_c, 0, 81, 40
2, 51200, Note_off_c, 0, 74, 64
2, 51200, Note_off_c, 0, 37, 64
2, 51200, Note_off_c, 0, 49, 64
2, 51200, Note_off_c, 0, 59, 64
2, 51200, Note_off_c, 0, 62, 64
2, 51200, Note_off_c, 0, 54, 64
2, 51200, Note_off_c, 0, 68, 64
2, 51200, Note_off_c, 0, 73, 64
2, 51200, Note_off_c, 0, 81, 64
2, 51200, Note_on_c, 0, 37, 64
2, 51200, Note_on_c, 0, 49, 30
2, 51200, Note_on_c, 0, 56, 40
2, 51200, Note_on_c, 0, 57, 30
2, 51200, Note_on_c, 0, 61, 30
2, 51200, Note_on_c, 0, 65, 40
2, 51200, Note_on_c, 0, 68, 64
2, 51200, Note_on_c, 0, 71, 40
2, 51200, Note_on_c, 0, 73, 64
2, 51200, Note_on_c, 0, 80, 40
2, 51328, Note_off_c, 0, 71, 64
2, 51328, Note_off_c, 0, 80, 64
2, 51328, Note_on_c, 0, 69, 40
2, 51328, Note_on_c, 0, 78, 40
2, 51456, Note_off_c, 0, 56, 64
2, 51456, Note_off_c, 0, 65, 64
2, 51456, Note_off_c, 0, 69, 64
2, 51456, Note_off_c, 0, 78, 64
2, 51456, Note_on_c, 0, 57, 40
2, 51456, Note_on_c, 0, 66, 40
2, 51456, Note_on_c, 0, 68, 40
2, 51456, Note_on_c, 0, 77, 40
2, 51533, Note_off_c, 0, 37, 64
2, 51584, Note_off_c, 0, 68, 64
2, 51584, Note_off_c, 0, 77, 64
2, 51584, Note_on_c, 0, 66, 40
2, 51584, Note_on_c, 0, 75, 40
2, 51622, Note_off_c, 0, 57, 64
2, 51622, Note_off_c, 0, 66, 64
2, 51712, Note_off_c, 0, 61, 64
2, 51712, Note_off_c, 0, 71, 64
2, 51712, Note_off_c, 0, 49, 64
2, 51712, Note_off_c, 0, 57, 64
2, 51712, Note_off_c, 0, 61, 64
2, 51712, Note_off_c, 0, 73, 64
2, 51712, Note_off_c, 0, 66, 64
2, 51712, Note_off_c, 0, 75, 64
2, 51712, Note_on_c, 0, 37, 64
2, 51712, Note_on_c, 0, 59, 40
2, 51712, Note_on_c, 0, 61, 64
2, 51712, Note_on_c, 0, 65, 40
2, 51712, Note_on_c, 0, 68, 40
2, 51712, Note_on_c, 0, 71, 64
2, 51712, Note_on_c, 0, 73, 40
2, 51840, Note_off_c, 0, 59, 64
2, 51840, Note_off_c, 0, 65, 64
2, 51840, Note_off_c, 0, 73, 64
2, 51840, Note_on_c, 0, 56, 40
2, 51840, Note_on_c, 0, 68, 40
2, 51840, Note_on_c, 0, 77, 40
2, 51968, Note_off_c, 0, 68, 64
2, 51968, Note_off_c, 0, 68, 64
2, 51968, Note_off_c, 0, 56, 64
2, 51968, Note_off_c, 0, 68, 64
2, 51968, Note_off_c, 0, 77, 64
2, 51968, Note_on_c, 0, 61, 40
2, 51968, Note_on_c, 0, 65, 64
2, 51968, Note_on_c, 0, 66, 40
2, 51968, Note_on_c, 0, 71, 40
2, 51968, Note_on_c, 0, 75, 40
2, 52045, Note_off_c, 0, 37, 64
2, 52096, Note_off_c, 0, 66, 64
2, 52096, Note_off_c, 0, 75, 64
2, 52096, Note_on_c, 0, 65, 40
2, 52096, Note_on_c, 0, 73, 40
2, 52134, Note_off_c, 0, 61, 64
2, 52134, Note_off_c, 0, 71, 64
2, 52224, Note_off_c, 0, 68, 64
2, 52224, Note_off_c, 0, 61, 64
2, 52224, Note_off_c, 0, 71, 64
2, 52224, Note_off_c, 0, 65, 64
2, 52224, Note_off_c, 0, 65, 64
2, 52224, Note_off_c, 0, 73, 64
2, 52224, Note_on_c, 0, 42, 64
2, 52224, Note_on_c, 0, 42, 30
2, 52224, Note_on_c, 0, 54, 30
2, 52224, Note_on_c, 0, 57, 30
2, 52224, Note_on_c, 0, 61, 40
2, 52224, Note_on_c, 0, 66, 64
2, 52224, Note_on_c, 0, 66, 40
2, 52224, Note_on_c, 0, 69, 64
2, 52224, Note_on_c, 0, 69, 40
2, 52224, Note_on_c, 0, 73, 40
2, 52224, Note_on_c, 0, 81, 40
2, 52352, Note_off_c, 0, 73, 64
2, 52352, Note_on_c, 0, 71, 40
2, 52480, Note_off_c, 0, 69, 64
2, 52480, Note_off_c, 0, 71, 64
2, 52480, Note_on_c, 0, 68, 64
2, 52480, Note_on_c, 0, 73, 40
2, 52557, Note_off_c, 0, 42, 64
2, 52608, Note_off_c, 0, 73, 64
2, 52608, Note_on_c, 0, 74, 40
2, 52736, Note_off_c, 0, 42, 64
2, 52736, Note_off_c, 0, 54, 64
2, 52736, Note_off_c, 0, 57, 64
2, 52736, Note_off_c, 0, 66, 64
2, 52736, Note_off_c, 0, 81, 64
2, 52736, Note_off_c, 0, 68, 64
2, 52736, Note_off_c, 0, 74, 64
2, 52736, Note_on_c, 0, 42, 64
2, 52736, Note_on_c, 0, 54, 64
2, 52736, Note_on_c, 0, 57, 64
2, 52736, Note_on_c, 0, 66, 64
2, 52736, Note_on_c, 0, 69, 64
2, 52736, Note_on_c, 0, 73, 40
2, 52736, Note_on_c, 0, 78, 40
2, 52864, Note_off_c, 0, 73, 64
2, 52864, Note_on_c, 0, 71, 40
2, 52992, Note_off_c, 0, 54, 64
2, 52992, Note_off_c, 0, 57, 64
2, 52992, Note_off_c, 0, 71, 64
2, 52992, Note_on_c, 0, 56, 64
2, 52992, Note_on_c, 0, 59, 64
2, 52992, Note_on_c, 0, 69, 40
2, 53069, Note_off_c, 0, 42, 64
2, 53120, Note_off_c, 0, 69, 64
2, 53120, Note_on_c, 0, 68, 40
2, 53248, Note_off_c, 0, 69, 64
2, 53248, Note_off_c, 0, 56, 64
2, 53248, Note_off_c, 0, 59, 64
2, 53248, Note_off_c, 0, 68, 64
2, 53248, Note_on_c, 0, 42, 64
2, 53248, Note_on_c, 0, 57, 64
2, 53248, Note_on_c, 0, 61, 64
2, 53248, Note_on_c, 0, 66, 64
2, 53248, Note_on_c, 0, 66, 40
2, 53376, Note_off_c, 0, 66, 64
2, 53376, Note_on_c, 0, 69, 40
2, 53504, Note_off_c, 0, 66, 64
2, 53504, Note_off_c, 0, 57, 64
2, 53504, Note_off_c, 0, 61, 64
2, 53504, Note_off_c, 0, 69, 64
2, 53504, Note_on_c, 0, 54, 64
2, 53504, Note_on_c, 0, 57, 64
2, 53504, Note_on_c, 0, 62, 64
2, 53504, Note_on_c, 0, 68, 40
2, 53581, Note_off_c, 0, 42, 64
2, 53632, Note_off_c, 0, 68, 64
2, 53632, Note_on_c, 0, 66, 40
2, 53760, Note_off_c, 0, 61, 64
2, 53760, Note_off_c, 0, 66, 64
2, 53760, Note_off_c, 0, 69, 64
2, 53760, Note_off_c, 0, 54, 64
2, 53760, Note_off_c, 0, 57, 64
2, 53760, Note_off_c, 0, 62, 64
2, 53760, Note_off_c, 0, 66, 64
2, 53760, Note_on_c, 0, 42, 64
2, 53760, Note_on_c, 0, 42, 30
2, 53760, Note_on_c, 0, 54, 30
2, 53760, Note_on_c, 0, 59, 64
2, 53760, Note_on_c, 0, 59, 64
2, 53760, Note_on_c, 0, 59, 30
2, 53760, Note_on_c, 0, 62, 64
2, 53760, Note_on_c, 0, 62, 40
2, 53760, Note_on_c, 0, 62, 30
2, 53760, Note_on_c, 0, 66, 40
2, 53760, Note_on_c, 0, 71, 40
2, 53760, Note_on_c, 0, 74, 40
2, 53888, Note_off_c, 0, 78, 64
2, 53888, Note_on_c, 0, 76, 40
2, 54016, Note_off_c, 0, 66, 64
2, 54016, Note_off_c, 0, 76, 64
2, 54016, Note_on_c, 0, 71, 64
2, 54016, Note_on_c, 0, 78, 40
2, 54093, Note_off_c, 0, 42, 64
2, 54144, Note_off_c, 0, 71, 64
2, 54144, Note_off_c, 0, 78, 64
2, 54144, Note_on_c, 0, 70, 64
2, 54144, Note_on_c, 0, 79, 40
2, 54272, Note_off_c, 0, 42, 64
2, 54272, Note_off_c, 0, 54, 64
2, 54272, Note_off_c, 0, 59, 64
2, 54272, Note_off_c, 0, 59, 64
2, 54272, Note_off_c, 0, 62, 64
2, 54272, Note_off_c, 0, 70, 64
2, 54272, Note_off_c, 0, 79, 64
2, 54272, Note_on_c, 0, 42, 64
2, 54272, Note_on_c, 0, 62, 64
2, 54272, Note_on_c, 0, 71, 64
2, 54272, Note_on_c, 0, 78, 40
2, 54400, Note_off_c, 0, 78, 64
2, 54400, Note_on_c, 0, 76, 40
2, 54528, Note_off_c, 0, 62, 64
2, 54528, Note_off_c, 0, 71, 64
2, 54528, Note_off_c, 0, 76, 64
2, 54528, Note_on_c, 0, 64, 64
2, 54528, Note_on_c, 0, 73, 64
2, 54528, Note_on_c, 0, 74, 40
2, 54605, Note_off_c, 0, 42, 64
2, 54656, Note_off_c, 0, 74, 64
2, 54656, Note_on_c, 0, 73, 40
2, 54784, Note_off_c, 0, 64, 64
2, 54784, Note_off_c, 0, 73, 64
2, 54784, Note_off_c, 0, 73, 64
2, 54784, Note_on_c, 0, 42, 64
2, 54784, Note_on_c, 0, 66, 64
2, 54784, Note_on_c, 0, 71, 40
2, 54784, Note_on_c, 0, 74, 64
2, 54912, Note_off_c, 0, 71, 64
2, 54912, Note_on_c, 0, 74, 40
2, 55040, Note_off_c, 0, 66, 64
2, 55040, Note_off_c, 0, 74, 64
2, 55040, Note_off_c, 0, 66, 64
2, 55040, Note_off_c, 0, 74, 64
2, 55040, Note_on_c, 0, 62, 64
2, 55040, Note_on_c, 0, 66, 40
2, 55040, Note_on_c, 0, 71, 64
2, 55040, Note_on_c, 0, 73, 40
2, 55117, Note_off_c, 0, 42, 64
2, 55168, Note_off_c, 0, 73, 64
2, 55168, Note_on_c, 0, 71, 40
2, 55296, Note_off_c, 0, 62, 64
2, 55296, Note_off_c, 0, 66, 64
2, 55296, Note_off_c, 0, 71, 64
2, 55296, Note_off_c, 0, 71, 64
2, 55296, Note_on_c, 0, 42, 64
2, 55296, Note_on_c, 0, 42, 30
2, 55296, Note_on_c, 0, 56, 30
2, 55296, Note_on_c, 0, 59, 30
2, 55296, Note_on_c, 0, 65, 64
2, 55296, Note_on_c, 0, 65, 30
2, 55296, Note_on_c, 0, 68, 64
2, 55296, Note_on_c, 0, 71, 40
2, 55296, Note_on_c, 0, 80, 40
2, 55424, Note_off_c, 0, 74, 64
2, 55424, Note_on_c, 0, 71, 40
2, 55505, Note_off_c, 0, 71, 64
2, 55552, Note_off_c, 0, 62, 64
2, 55552, Note_off_c, 0, 71, 64
2, 55552, Note_on_c, 0, 66, 40
2, 55552, Note_on_c, 0, 69, 40
2, 55552, Note_on_c, 0, 71, 40
2, 55629, Note_off_c, 0, 42, 64
2, 55680, Note_off_c, 0, 71, 64
2, 55680, Note_on_c, 0, 73, 40
2, 55718, Note_off_c, 0, 69, 64
2, 55761, Note_off_c, 0, 73, 64
2, 55808, Note_off_c, 0, 59, 64
2, 55808, Note_off_c, 0, 62, 64
2, 55808, Note_off_c, 0, 42, 64
2, 55808, Note_off_c, 0, 56, 64
2, 55808, Note_off_c, 0, 59, 64
2, 55808, Note_off_c, 0, 65, 64
2, 55808, Note_off_c, 0, 65, 64
2, 55808, Note_off_c, 0, 68, 64
2, 55808, Note_off_c, 0, 66, 64
2, 55808, Note_on_c, 0, 42, 64
2, 55808, Note_on_c, 0, 56, 64
2, 55808, Note_on_c, 0, 59, 64
2, 55808, Note_on_c, 0, 61, 64
2, 55808, Note_on_c, 0, 65, 64
2, 55808, Note_on_c, 0, 65, 40
2, 55808, Note_on_c, 0, 68, 40
2, 55808, Note_on_c, 0, 73, 40
2, 55936, Note_off_c, 0, 73, 64
2, 55936, Note_on_c, 0, 69, 40
2, 56017, Note_off_c, 0, 69, 64
2, 56064, Note_off_c, 0, 68, 64
2, 56064, Note_on_c, 0, 66, 40
2, 56064, Note_on_c, 0, 69, 40
2, 56141, Note_off_c, 0, 42, 64
2, 56192, Note_off_c, 0, 69, 64
2, 56192, Note_on_c, 0, 71, 40
2, 56230, Note_off_c, 0, 66, 64
2, 56273, Note_off_c, 0, 71, 64
2, 56320, Note_off_c, 0, 56, 64
2, 56320, Note_off_c, 0, 59, 64
2, 56320, Note_off_c, 0, 61, 64
2, 56320, Note_off_c, 0, 65, 64
2, 56320, Note_on_c, 0, 42, 64
2, 56320, Note_on_c, 0, 59, 64
2, 56320, Note_on_c, 0, 61, 64
2, 56320, Note_on_c, 0, 65, 64
2, 56320, Note_on_c, 0, 65, 40
2, 56320, Note_on_c, 0, 68, 64
2, 56320, Note_on_c, 0, 71, 40
2, 56448, Note_off_c, 0, 71, 64
2, 56448, Note_on_c, 0, 68, 40
2, 56529, Note_off_c, 0, 68, 64
2, 56576, Note_off_c, 0, 65, 64
2, 56576, Note_on_c, 0, 68, 40
2, 56576, Note_on_c, 0, 68, 40
2, 56653, Note_off_c, 0, 42, 64
2, 56704, Note_off_c, 0, 68, 64
2, 56704, Note_on_c, 0, 69, 40
2, 56742, Note_off_c, 0, 68, 64
2, 56785, Note_off_c, 0, 69, 64
2, 56832, Note_off_c, 0, 71, 64
2, 56832, Note_off_c, 0, 65, 64
2, 56832, Note_off_c, 0, 59, 64
2, 56832, Note_off_c, 0, 65, 64
2, 56832, Note_off_c, 0, 68, 64
2, 56832, Note_on_c, 0, 42, 64
2, 56832, Note_on_c, 0, 42, 30
2, 56832, Note_on_c, 0, 57, 64
2, 56832, Note_on_c, 0, 57, 30
2, 56832, Note_on_c, 0, 61, 64
2, 56832, Note_on_c, 0, 61, 30
2, 56832, Note_on_c, 0, 66, 64
2, 56832, Note_on_c, 0, 66, 64
2, 56832, Note_on_c, 0, 66, 64
2, 56832, Note_on_c, 0, 66, 30
2, 56832, Note_on_c, 0, 69, 64
2, 56832, Note_on_c, 0, 69, 40
2, 56960, Note_off_c, 0, 80, 64
2, 56960, Note_on_c, 0, 77, 40
2, 57041, Note_off_c, 0, 77, 64
2, 57088, Note_off_c, 0, 66, 64
2, 57088, Note_off_c, 0, 66, 64
2, 57088, Note_on_c, 0, 68, 67
2, 57088, Note_on_c, 0, 68, 64
2, 57088, Note_on_c, 0, 77, 40
2, 57165, Note_off_c, 0, 42, 64
2, 57216, Note_off_c, 0, 77, 64
2, 57216, Note_on_c, 0, 78, 40
2, 57254, Note_off_c, 0, 68, 64
2, 57297, Note_off_c, 0, 78, 64
2, 57344, Note_off_c, 0, 61, 64
2, 57344, Note_off_c, 0, 42, 64
2, 57344, Note_off_c, 0, 57, 64
2, 57344, Note_off_c, 0, 57, 64
2, 57344, Note_off_c, 0, 61, 64
2, 57344, Note_off_c, 0, 61, 64
2, 57344, Note_off_c, 0, 66, 64
2, 57344, Note_off_c, 0, 69, 64
2, 57344, Note_off_c, 0, 69, 64
2, 57344, Note_off_c, 0, 68, 64
2, 57344, Note_on_c, 0, 42, 64
2, 57344, Note_on_c, 0, 54, 69
2, 57344, Note_on_c, 0, 61, 69
2, 57344, Note_on_c, 0, 61, 64
2, 57344, Note_on_c, 0, 66, 64
2, 57344, Note_on_c, 0, 70, 69
2, 57344, Note_on_c, 0, 70, 64
2, 57344, Note_on_c, 0, 70, 40
2, 57344, Note_on_c, 0, 78, 40
2, 57472, Note_off_c, 0, 78, 64
2, 57472, Note_on_c, 0, 74, 40
2, 57553, Note_off_c, 0, 74, 64
2, 57600, Note_off_c, 0, 70, 64
2, 57600, Note_off_c, 0, 70, 64
2, 57600, Note_on_c, 0, 71, 72
2, 57600, Note_on_c, 0, 71, 64
2, 57600, Note_on_c, 0, 74, 40
2, 57677, Note_off_c, 0, 42, 64
2, 57728, Note_off_c, 0, 74, 64
2, 57728, Note_on_c, 0, 76, 40
2, 57766, Note_off_c, 0, 71, 64
2, 57809, Note_off_c, 0, 76, 64
2, 57856, Note_off_c, 0, 66, 64
2, 57856, Note_off_c, 0, 54, 64
2, 57856, Note_off_c, 0, 61, 64
2, 57856, Note_off_c, 0, 66, 64
2, 57856, Note_off_c, 0, 71, 64
2, 57856, Note_on_c, 0, 42, 64
2, 57856, Note_on_c, 0, 55, 75
2, 57856, Note_on_c, 0, 61, 75
2, 57856, Note_on_c, 0, 61, 75
2, 57856, Note_on_c, 0, 61, 64
2, 57856, Note_on_c, 0, 73, 75
2, 57856, Note_on_c, 0, 73, 64
2, 57856, Note_on_c, 0, 76, 40
2, 57984, Note_off_c, 0, 76, 64
2, 57984, Note_on_c, 0, 73, 40
2, 58065, Note_off_c, 0, 73, 64
2, 58112, Note_off_c, 0, 55, 64
2, 58112, Note_off_c, 0, 73, 64
2, 58112, Note_off_c, 0, 73, 64
2, 58112, Note_on_c, 0, 54, 77
2, 58112, Note_on_c, 0, 66, 77
2, 58112, Note_on_c, 0, 70, 64
2, 58112, Note_on_c, 0, 73, 40
2, 58189, Note_off_c, 0, 42, 64
2, 58240, Note_off_c, 0, 73, 64
2, 58240, Note_on_c, 0, 74, 40
2, 58278, Note_off_c, 0, 70, 64
2, 58321, Note_off_c, 0, 74, 64
2, 58368, Note_off_c, 0, 61, 64
2, 58368, Note_off_c, 0, 70, 64
2, 58368, Note_off_c, 0, 61, 64
2, 58368, Note_off_c, 0, 61, 64
2, 58368, Note_off_c, 0, 61, 64
2, 58368, Note_off_c, 0, 54, 64
2, 58368, Note_off_c, 0, 66, 64
2, 58368, Note_on_c, 0, 42, 64
2, 58368, Note_on_c, 0, 42, 30
2, 58368, Note_on_c, 0, 54, 80
2, 58368, Note_on_c, 0, 59, 80
2, 58368, Note_on_c, 0, 59, 64
2, 58368, Note_on_c, 0, 59, 30
2, 58368, Note_on_c, 0, 62, 80
2, 58368, Note_on_c, 0, 62, 64
2, 58368, Note_on_c, 0, 62, 30
2, 58368, Note_on_c, 0, 71, 40
2, 58368, Note_on_c, 0, 74, 40
2, 58368, Note_on_c, 0, 78, 80
2, 58368, Note_on_c, 0, 78, 64
2, 58496, Note_off_c, 0, 74, 64
2, 58496, Note_on_c, 0, 71, 40
2, 58577, Note_off_c, 0, 71, 64
2, 58624, Note_off_c, 0, 54, 64
2, 58624, Note_off_c, 0, 59, 64
2, 58624, Note_off_c, 0, 59, 64
2, 58624, Note_off_c, 0, 59, 64
2, 58624, Note_off_c, 0, 62, 64
2, 58624, Note_off_c, 0, 62, 64
2, 58624, Note_off_c, 0, 62, 64
2, 58624, Note_off_c, 0, 78, 64
2, 58624, Note_on_c, 0, 56, 80
2, 58624, Note_on_c, 0, 61, 80
2, 58624, Note_on_c, 0, 61, 80
2, 58624, Note_on_c, 0, 61, 64
2, 58624, Note_on_c, 0, 61, 64
2, 58624, Note_on_c, 0, 61, 30
2, 58624, Note_on_c, 0, 71, 40
2, 58624, Note_on_c, 0, 76, 80
2, 58701, Note_off_c, 0, 42, 64
2, 58752, Note_off_c, 0, 71, 64
2, 58752, Note_on_c, 0, 81, 40
2, 58790, Note_off_c, 0, 61, 64
2, 58833, Note_off_c, 0, 81, 64
2, 58880, Note_off_c, 0, 42, 64
2, 58880, Note_off_c, 0, 78, 64
2, 58880, Note_off_c, 0, 56, 64
2, 58880, Note_off_c, 0, 61, 64
2, 58880, Note_off_c, 0, 61, 64
2, 58880, Note_off_c, 0, 61, 64
2, 58880, Note_off_c, 0, 61, 64
2, 58880, Note_off_c, 0, 71, 64
2, 58880, Note_off_c, 0, 76, 64
2, 58880, Note_on_c, 0, 54, 64
2, 58880, Note_on_c, 0, 54, 30
2, 58880, Note_on_c, 0, 57, 80
2, 58880, Note_on_c, 0, 57, 30
2, 58880, Note_on_c, 0, 60, 80
2, 58880, Note_on_c, 0, 60, 64
2, 58880, Note_on_c, 0, 60, 30
2, 58880, Note_on_c, 0, 63, 80
2, 58880, Note_on_c, 0, 63, 64
2, 58880, Note_on_c, 0, 63, 30
2, 58880, Note_on_c, 0, 66, 30
2, 58880, Note_on_c, 0, 72, 40
2, 58880, Note_on_c, 0, 75, 80
2, 58880, Note_on_c, 0, 75, 64
2, 58880, Note_on_c, 0, 81, 40
2, 59008, Note_off_c, 0, 81, 64
2, 59008, Note_on_c, 0, 78, 40
2, 59089, Note_off_c, 0, 78, 64
2, 59136, Note_off_c, 0, 60, 64
2, 59136, Note_off_c, 0, 60, 64
2, 59136, Note_off_c, 0, 75, 64
2, 59136, Note_off_c, 0, 75, 64
2, 59136, Note_on_c, 0, 63, 80
2, 59136, Note_on_c, 0, 63, 64
2, 59136, Note_on_c, 0, 73, 80
2, 59136, Note_on_c, 0, 73, 64
2, 59136, Note_on_c, 0, 78, 40
2, 59213, Note_off_c, 0, 54, 64
2, 59264, Note_off_c, 0, 78, 64
2, 59264, Note_on_c, 0, 80, 40
2, 59302, Note_off_c, 0, 63, 64
2, 59302, Note_off_c, 0, 73, 64
2, 59345, Note_off_c, 0, 80, 64
2, 59392, Note_off_c, 0, 54, 64
2, 59392, Note_off_c, 0, 57, 64
2, 59392, Note_off_c, 0, 57, 64
2, 59392, Note_off_c, 0, 60, 64
2, 59392, Note_off_c, 0, 63, 64
2, 59392, Note_off_c, 0, 63, 64
2, 59392, Note_off_c, 0, 63, 64
2, 59392, Note_off_c, 0, 66, 64
2, 59392, Note_off_c, 0, 63, 64
2, 59392, Note_off_c, 0, 73, 64
2, 59392, Note_on_c, 0, 52, 64
2, 59392, Note_on_c, 0, 52, 30
2, 59392, Note_on_c, 0, 56, 80
2, 59392, Note_on_c, 0, 61, 30
2, 59392, Note_on_c, 0, 64, 80
2, 59392, Note_on_c, 0, 64, 64
2, 59392, Note_on_c, 0, 64, 30
2, 59392, Note_on_c, 0, 67, 30
2, 59392, Note_on_c, 0, 68, 80
2, 59392, Note_on_c, 0, 68, 64
2, 59392, Note_on_c, 0, 70, 30
2, 59392, Note_on_c, 0, 72, 80
2, 59392, Note_on_c, 0, 72, 64
2, 59392, Note_on_c, 0, 80, 40
2, 59520, Note_off_c, 0, 80, 64
2, 59520, Note_on_c, 0, 76, 40
2, 59601, Note_off_c, 0, 76, 64
2, 59648, Note_off_c, 0, 68, 64
2, 59648, Note_off_c, 0, 68, 64
2, 59648, Note_off_c, 0, 72, 64
2, 59648, Note_off_c, 0, 72, 64
2, 59648, Note_on_c, 0, 66, 80
2, 59648, Note_on_c, 0, 66, 64
2, 59648, Note_on_c, 0, 73, 80
2, 59648, Note_on_c, 0, 73, 64
2, 59648, Note_on_c, 0, 76, 40
2, 59725, Note_off_c, 0, 52, 64
2, 59776, Note_off_c, 0, 76, 64
2, 59776, Note_on_c, 0, 78, 40
2, 59814, Note_off_c, 0, 66, 64
2, 59814, Note_off_c, 0, 73, 64
2, 59857, Note_off_c, 0, 78, 64
2, 59904, Note_off_c, 0, 52, 64
2, 59904, Note_off_c, 0, 56, 64
2, 59904, Note_off_c, 0, 61, 64
2, 59904, Note_off_c, 0, 64, 64
2, 59904, Note_off_c, 0, 64, 64
2, 59904, Note_off_c, 0, 64, 64
2, 59904, Note_off_c, 0, 67, 64
2, 59904, Note_off_c, 0, 70, 64
2, 59904, Note_off_c, 0, 66, 64
2, 59904, Note_off_c, 0, 73, 64
2, 59904, Note_on_c, 0, 51, 64
2, 59904, Note_on_c, 0, 51, 30
2, 59904, Note_on_c, 0, 63, 30
2, 59904, Note_on_c, 0, 66, 80
2, 59904, Note_on_c, 0, 66, 64
2, 59904, Note_on_c, 0, 66, 30
2, 59904, Note_on_c, 0, 69, 80
2, 59904, Note_on_c, 0, 69, 64
2, 59904, Note_on_c, 0, 69, 30
2, 59904, Note_on_c, 0, 72, 80
2, 59904, Note_on_c, 0, 72, 64
2, 59904, Note_on_c, 0, 72, 30
2, 59904, Note_on_c, 0, 78, 40
2, 60032, Note_off_c, 0, 72, 64
2, 60032, Note_off_c, 0, 78, 64
2, 60032, Note_on_c, 0, 66, 40
2, 60032, Note_on_c, 0, 75, 40
2, 60113, Note_off_c, 0, 66, 64
2, 60113, Note_off_c, 0, 75, 64
2, 60160, Note_off_c, 0, 72, 64
2, 60160, Note_off_c, 0, 72, 64
2, 60160, Note_off_c, 0, 72, 64
2, 60160, Note_on_c, 0, 66, 40
2, 60160, Note_on_c, 0, 71, 30
2, 60160, Note_on_c, 0, 73, 80
2, 60160, Note_on_c, 0, 73, 64
2, 60160, Note_on_c, 0, 75, 40
2, 60237, Note_off_c, 0, 51, 64
2, 60288, Note_off_c, 0, 66, 64
2, 60288, Note_off_c, 0, 75, 64
2, 60288, Note_on_c, 0, 78, 40
2, 60288, Note_on_c, 0, 81, 40
2, 60369, Note_off_c, 0, 78, 64
2, 60369, Note_off_c, 0, 81, 64
2, 60416, Note_off_c, 0, 51, 64
2, 60416, Note_off_c, 0, 63, 64
2, 60416, Note_off_c, 0, 66, 64
2, 60416, Note_off_c, 0, 66, 64
2, 60416, Note_off_c, 0, 66, 64
2, 60416, Note_off_c, 0, 69, 64
2, 60416, Note_off_c, 0, 71, 64
2, 60416, Note_off_c, 0, 73, 64
2, 60416, Note_off_c, 0, 73, 64
2, 60416, Note_on_c, 0, 48, 64
2, 60416, Note_on_c, 0, 48, 30
2, 60416, Note_on_c, 0, 51, 80
2, 60416, Note_on_c, 0, 60, 30
2, 60416, Note_on_c, 0, 63, 80
2, 60416, Note_on_c, 0, 63, 64
2, 60416, Note_on_c, 0, 63, 30
2, 60416, Note_on_c, 0, 66, 30
2, 60416, Note_on_c, 0, 69, 30
2, 60416, Note_on_c, 0, 75, 80
2, 60416, Note_on_c, 0, 75, 64
2, 60416, Note_on_c, 0, 78, 40
2, 60416, Note_on_c, 0, 81, 40
2, 60544, Note_off_c, 0, 78, 64
2, 60544, Note_off_c, 0, 81, 64
2, 60544, Note_on_c, 0, 75, 40
2, 60544, Note_on_c, 0, 78, 40
2, 60625, Note_off_c, 0, 75, 64
2, 60625, Note_off_c, 0, 78, 64
2, 60672, Note_off_c, 0, 51, 64
2, 60672, Note_on_c, 0, 49, 80
2, 60672, Note_on_c, 0, 75, 40
2, 60672, Note_on_c, 0, 78, 40
2, 60749, Note_off_c, 0, 48, 64
2, 60800, Note_off_c, 0, 75, 64
2, 60800, Note_off_c, 0, 78, 64
2, 60800, Note_on_c, 0, 76, 40
2, 60800, Note_on_c, 0, 80, 40
2, 60881, Note_off_c, 0, 76, 64
2, 60881, Note_off_c, 0, 80, 64
2, 60928, Note_off_c, 0, 69, 64
2, 60928, Note_off_c, 0, 69, 64
2, 60928, Note_off_c, 0, 48, 64
2, 60928, Note_off_c, 0, 60, 64
2, 60928, Note_off_c, 0, 63, 64
2, 60928, Note_off_c, 0, 63, 64
2, 60928, Note_off_c, 0, 63, 64
2, 60928, Note_off_c, 0, 66, 64
2, 60928, Note_off_c, 0, 69, 64
2, 60928, Note_off_c, 0, 75, 64
2, 60928, Note_off_c, 0, 75, 64
2, 60928, Note_off_c, 0, 49, 64
2, 60928, Note_on_c, 0, 48, 80
2, 60928, Note_on_c, 0, 49, 64
2, 60928, Note_on_c, 0, 49, 30
2, 60928, Note_on_c, 0, 56, 80
2, 60928, Note_on_c, 0, 56, 64
2, 60928, Note_on_c, 0, 61, 30
2, 60928, Note_on_c, 0, 64, 80
2, 60928, Note_on_c, 0, 64, 64
2, 60928, Note_on_c, 0, 64, 30
2, 60928, Note_on_c, 0, 68, 30
2, 60928, Note_on_c, 0, 76, 80
2, 60928, Note_on_c, 0, 76, 64
2, 60928, Note_on_c, 0, 76, 40
2, 60928, Note_on_c, 0, 80, 40
2, 61056, Note_off_c, 0, 76, 64
2, 61056, Note_off_c, 0, 80, 64
2, 61056, Note_on_c, 0, 73, 40
2, 61056, Note_on_c, 0, 76, 40
2, 61137, Note_off_c, 0, 73, 64
2, 61137, Note_off_c, 0, 76, 64
2, 61184, Note_off_c, 0, 48, 64
2, 61184, Note_off_c, 0, 64, 64
2, 61184, Note_off_c, 0, 64, 64
2, 61184, Note_on_c, 0, 49, 80
2, 61184, Note_on_c, 0, 66, 80
2, 61184, Note_on_c, 0, 66, 64
2, 61184, Note_on_c, 0, 73, 40
2, 61184, Note_on_c, 0, 76, 40
2, 61261, Note_off_c, 0, 49, 64
2, 61312, Note_off_c, 0, 66, 64
2, 61312, Note_off_c, 0, 66, 64
2, 61312, Note_off_c, 0, 73, 64
2, 61312, Note_off_c, 0, 76, 64
2, 61312, Note_on_c, 0, 68, 80
2, 61312, Note_on_c, 0, 68, 64
2, 61312, Note_on_c, 0, 74, 40
2, 61312, Note_on_c, 0, 78, 40
2, 61393, Note_off_c, 0, 74, 64
2, 61393, Note_off_c, 0, 78, 64
2, 61440, Note_off_c, 0, 49, 64
2, 61440, Note_off_c, 0, 56, 64
2, 61440, Note_off_c, 0, 56, 64
2, 61440, Note_off_c, 0, 61, 64
2, 61440, Note_off_c, 0, 64, 64
2, 61440, Note_off_c, 0, 68, 64
2, 61440, Note_off_c, 0, 76, 64
2, 61440, Note_off_c, 0, 76, 64
2, 61440, Note_off_c, 0, 49, 64
2, 61440, Note_off_c, 0, 68, 64
2, 61440, Note_off_c, 0, 68, 64
2, 61440, Note_on_c, 0, 42, 64
2, 61440, Note_on_c, 0, 42, 30
2, 61440, Note_on_c, 0, 57, 80
2, 61440, Note_on_c, 0, 62, 80
2, 61440, Note_on_c, 0, 62, 64
2, 61440, Note_on_c, 0, 64, 30
2, 61440, Note_on_c, 0, 66, 80
2, 61440, Note_on_c, 0, 66, 64
2, 61440, Note_on_c, 0, 68, 30
2, 61440, Note_on_c, 0, 73, 30
2, 61440, Note_on_c, 0, 74, 40
2, 61440, Note_on_c, 0, 78, 40
2, 61568, Note_off_c, 0, 74, 64
2, 61568, Note_on_c, 0, 72, 40
2, 61649, Note_off_c, 0, 72, 64
2, 61696, Note_on_c, 0, 72, 40
2, 61773, Note_off_c, 0, 42, 64
2, 61824, Note_off_c, 0, 72, 64
2, 61824, Note_on_c, 0, 73, 40
2, 61905, Note_off_c, 0, 73, 64
2, 61952, Note_off_c, 0, 42, 64
2, 61952, Note_off_c, 0, 57, 64
2, 61952, Note_off_c, 0, 62, 64
2, 61952, Note_off_c, 0, 62, 64
2, 61952, Note_off_c, 0, 64, 64
2, 61952, Note_on_c, 0, 39, 64
2, 61952, Note_on_c, 0, 39, 30
2, 61952, Note_on_c, 0, 54, 80
2, 61952, Note_on_c, 0, 54, 64
2, 61952, Note_on_c, 0, 56, 80
2, 61952, Note_on_c, 0, 66, 30
2, 61952, Note_on_c, 0, 73, 40
2, 61952, Note_on_c, 0, 75, 80
2, 61952, Note_on_c, 0, 75, 64
2, 62080, Note_off_c, 0, 73, 64
2, 62080, Note_on_c, 0, 66, 40
2, 62161, Note_off_c, 0, 66, 64
2, 62208, Note_off_c, 0, 66, 64
2, 62208, Note_off_c, 0, 66, 64
2, 62208, Note_off_c, 0, 56, 64
2, 62208, Note_on_c, 0, 54, 80
2, 62208, Note_on_c, 0, 66, 40
2, 62208, Note_on_c, 0, 69, 80
2, 62208, Note_on_c, 0, 69, 64
2, 62285, Note_off_c, 0, 39, 64
2, 62336, Note_off_c, 0, 66, 64
2, 62336, Note_on_c, 0, 72, 40
2, 62417, Note_off_c, 0, 72, 64
2, 62464, Note_off_c, 0, 68, 64
2, 62464, Note_off_c, 0, 73, 64
2, 62464, Note_off_c, 0, 39, 64
2, 62464, Note_off_c, 0, 54, 64
2, 62464, Note_off_c, 0, 54, 64
2, 62464, Note_off_c, 0, 66, 64
2, 62464, Note_off_c, 0, 54, 64
2, 62464, Note_off_c, 0, 69, 64
2, 62464, Note_off_c, 0, 69, 64
2, 62464, Note_on_c, 0, 44, 64
2, 62464, Note_on_c, 0, 44, 30
2, 62464, Note_on_c, 0, 52, 80
2, 62464, Note_on_c, 0, 56, 80
2, 62464, Note_on_c, 0, 56, 64
2, 62464, Note_on_c, 0, 60, 80
2, 62464, Note_on_c, 0, 60, 64
2, 62464, Note_on_c, 0, 68, 30
2, 62464, Note_on_c, 0, 72, 40
2, 62464, Note_on_c, 0, 72, 30
2, 62592, Note_off_c, 0, 72, 64
2, 62592, Note_on_c, 0, 68, 40
2, 62673, Note_off_c, 0, 68, 64
2, 62720, Note_off_c, 0, 75, 64
2, 62720, Note_off_c, 0, 52, 64
2, 62720, Note_off_c, 0, 60, 64
2, 62720, Note_off_c, 0, 60, 64
2, 62720, Note_on_c, 0, 51, 80
2, 62720, Note_on_c, 0, 63, 80
2, 62720, Note_on_c, 0, 63, 64
2, 62720, Note_on_c, 0, 68, 40
2, 62720, Note_on_c, 0, 72, 80
2, 62797, Note_off_c, 0, 44, 64
2, 62848, Note_off_c, 0, 68, 64
2, 62848, Note_on_c, 0, 72, 40
2, 62886, Note_off_c, 0, 63, 64
2, 62929, Note_off_c, 0, 72, 64
2, 62976, Note_off_c, 0, 75, 64
2, 62976, Note_off_c, 0, 44, 64
2, 62976, Note_off_c, 0, 68, 64
2, 62976, Note_off_c, 0, 72, 64
2, 62976, Note_off_c, 0, 51, 64
2, 62976, Note_off_c, 0, 63, 64
2, 62976, Note_off_c, 0, 72, 64
2, 62976, Note_on_c, 0, 49, 64
2, 62976, Note_on_c, 0, 49, 30
2, 62976, Note_on_c, 0, 52, 80
2, 62976, Note_on_c, 0, 61, 80
2, 62976, Note_on_c, 0, 61, 64
2, 62976, Note_on_c, 0, 64, 30
2, 62976, Note_on_c, 0, 68, 30
2, 62976, Note_on_c, 0, 73, 80
2, 62976, Note_on_c, 0, 73, 64
2, 62976, Note_on_c, 0, 73, 40
2, 62976, Note_on_c, 0, 73, 30
2, 63104, Note_off_c, 0, 78, 64
2, 63104, Note_off_c, 0, 52, 64
2, 63104, Note_off_c, 0, 73, 64
2, 63104, Note_off_c, 0, 73, 64
2, 63104, Note_on_c, 0, 54, 80
2, 63104, Note_on_c, 0, 68, 80
2, 63104, Note_on_c, 0, 72, 64
2, 63104, Note_on_c, 0, 75, 40
2, 63232, Note_off_c, 0, 56, 64
2, 63232, Note_off_c, 0, 56, 64
2, 63232, Note_off_c, 0, 61, 64
2, 63232, Note_off_c, 0, 61, 64
2, 63232, Note_off_c, 0, 54, 64
2, 63232, Note_off_c, 0, 68, 64
2, 63232, Note_off_c, 0, 72, 64
2, 63232, Note_off_c, 0, 75, 64
2, 63232, Note_on_c, 0, 56, 80
2, 63232, Note_on_c, 0, 56, 64
2, 63232, Note_on_c, 0, 56, 80
2, 63232, Note_on_c, 0, 61, 80
2, 63232, Note_on_c, 0, 61, 64
2, 63232, Note_on_c, 0, 73, 80
2, 63232, Note_on_c, 0, 73, 64
2, 63232, Note_on_c, 0, 76, 40
2, 63309, Note_off_c, 0, 49, 64
2, 63360, Note_off_c, 0, 73, 64
2, 63360, Note_off_c, 0, 76, 64
2, 63360, Note_on_c, 0, 73, 40
2, 63360, Note_on_c, 0, 75, 64
2, 63488, Note_off_c, 0, 49, 64
2, 63488, Note_off_c, 0, 64, 64
2, 63488, Note_off_c, 0, 68, 64
2, 63488, Note_off_c, 0, 73, 64
2, 63488, Note_off_c, 0, 73, 64
2, 63488, Note_off_c, 0, 56, 64
2, 63488, Note_off_c, 0, 56, 64
2, 63488, Note_off_c, 0, 61, 64
2, 63488, Note_off_c, 0, 61, 64
2, 63488, Note_off_c, 0, 75, 64
2, 63488, Note_on_c, 0, 56, 64
2, 63488, Note_on_c, 0, 56, 30
2, 63488, Note_on_c, 0, 61, 80
2, 63488, Note_on_c, 0, 61, 64
2, 63488, Note_on_c, 0, 61, 30
2, 63488, Note_on_c, 0, 66, 30
2, 63488, Note_on_c, 0, 68, 80
2, 63488, Note_on_c, 0, 68, 64
2, 63488, Note_on_c, 0, 68, 30
2, 63488, Note_on_c, 0, 76, 64
2, 63488, Note_on_c, 0, 76, 40
2, 63552, Note_off_c, 0, 76, 64
2, 63552, Note_on_c, 0, 75, 40
2, 63616, Note_off_c, 0, 73, 64
2, 63616, Note_off_c, 0, 73, 64
2, 63616, Note_off_c, 0, 75, 64
2, 63616, Note_on_c, 0, 72, 80
2, 63616, Note_on_c, 0, 72, 40
2, 63616, Note_on_c, 0, 76, 40
2, 63680, Note_off_c, 0, 76, 64
2, 63680, Note_on_c, 0, 75, 40
2, 63744, Note_off_c, 0, 56, 64
2, 63744, Note_off_c, 0, 61, 64
2, 63744, Note_off_c, 0, 61, 64
2, 63744, Note_off_c, 0, 76, 64
2, 63744, Note_off_c, 0, 72, 64
2, 63744, Note_off_c, 0, 72, 64
2, 63744, Note_off_c, 0, 75, 64
2, 63744, Note_on_c, 0, 54, 80
2, 63744, Note_on_c, 0, 54, 64
2, 63744, Note_on_c, 0, 57, 80
2, 63744, Note_on_c, 0, 73, 80
2, 63744, Note_on_c, 0, 73, 40
2, 63744, Note_on_c, 0, 75, 64
2, 63744, Note_on_c, 0, 76, 40
2, 63808, Note_off_c, 0, 76, 64
2, 63808, Note_on_c, 0, 75, 40
2, 63821, Note_off_c, 0, 56, 64
2, 63872, Note_off_c, 0, 57, 64
2, 63872, Note_off_c, 0, 73, 64
2, 63872, Note_off_c, 0, 73, 64
2, 63872, Note_off_c, 0, 75, 64
2, 63872, Note_on_c, 0, 56, 80
2, 63872, Note_on_c, 0, 70, 40
2, 63872, Note_on_c, 0, 75, 80
2, 63872, Note_on_c, 0, 76, 40
2, 63910, Note_off_c, 0, 54, 64
2, 63936, Note_off_c, 0, 76, 64
2, 63936, Note_on_c, 0, 75, 40
2, 64000, Note_off_c, 0, 56, 64
2, 64000, Note_off_c, 0, 61, 64
2, 64000, Note_off_c, 0, 68, 64
2, 64000, Note_off_c, 0, 68, 64
2, 64000, Note_off_c, 0, 54, 64
2, 64000, Note_off_c, 0, 75, 64
2, 64000, Note_off_c, 0, 56, 64
2, 64000, Note_off_c, 0, 70, 64
2, 64000, Note_off_c, 0, 75, 64
2, 64000, Note_off_c, 0, 75, 64
2, 64000, Note_on_c, 0, 44, 64
2, 64000, Note_on_c, 0, 44, 30
2, 64000, Note_on_c, 0, 54, 80
2, 64000, Note_on_c, 0, 57, 80
2, 64000, Note_on_c, 0, 57, 64
2, 64000, Note_on_c, 0, 60, 30
2, 64000, Note_on_c, 0, 63, 80
2, 64000, Note_on_c, 0, 63, 64
2, 64000, Note_on_c, 0, 68, 64
2, 64000, Note_on_c, 0, 72, 80
2, 64000, Note_on_c, 0, 72, 40
2, 64000, Note_on_c, 0, 76, 40
2, 64064, Note_off_c, 0, 76, 64
2, 64064, Note_on_c, 0, 75, 40
2, 64128, Note_off_c, 0, 54, 64
2, 64128, Note_off_c, 0, 75, 64
2, 64128, Note_on_c, 0, 52, 80
2, 64128, Note_on_c, 0, 76, 40
2, 64192, Note_off_c, 0, 76, 64
2, 64192, Note_on_c, 0, 75, 40
2, 64256, Note_off_c, 0, 57, 64
2, 64256, Note_off_c, 0, 57, 64
2, 64256, Note_off_c, 0, 52, 64
2, 64256, Note_off_c, 0, 75, 64
2, 64256, Note_on_c, 0, 54, 80
2, 64256, Note_on_c, 0, 56, 80
2, 64256, Note_on_c, 0, 56, 64
2, 64256, Note_on_c, 0, 73, 40
2, 64333, Note_off_c, 0, 44, 64
2, 64384, Note_off_c, 0, 72, 64
2, 64384, Note_off_c, 0, 72, 64
2, 64384, Note_off_c, 0, 73, 64
2, 64384, Note_on_c, 0, 73, 80
2, 64384, Note_on_c, 0, 73, 40
2, 64422, Note_off_c, 0, 56, 64
2, 64512, Note_off_c, 0, 66, 64
2, 64512, Note_off_c, 0, 68, 64
2, 64512, Note_off_c, 0, 44, 64
2, 64512, Note_off_c, 0, 60, 64
2, 64512, Note_off_c, 0, 63, 64
2, 64512, Note_off_c, 0, 63, 64
2, 64512, Note_off_c, 0, 54, 64
2, 64512, Note_off_c, 0, 56, 64
2, 64512, Note_off_c, 0, 73, 64
2, 64512, Note_off_c, 0, 73, 64
2, 64512, Note_on_c, 0, 49, 64
2, 64512, Note_on_c, 0, 49, 30
2, 64512, Note_on_c, 0, 52, 64
2, 64512, Note_on_c, 0, 52, 80
2, 64512, Note_on_c, 0, 56, 80
2, 64512, Note_on_c, 0, 61, 30
2, 64512, Note_on_c, 0, 64, 80
2, 64512, Note_on_c, 0, 64, 64
2, 64512, Note_on_c, 0, 64, 30
2, 64512, Note_on_c, 0, 68, 30
2, 64512, Note_on_c, 0, 73, 80
2, 64512, Note_on_c, 0, 73, 40
2, 64512, Note_on_c, 0, 73, 40
2, 64768, Note_off_c, 0, 68, 64
2, 64768, Note_off_c, 0, 52, 64
2, 64768, Note_off_c, 0, 73, 64
2, 64768, Note_on_c, 0, 56, 60
2, 64768, Note_on_c, 0, 66, 60
2, 64768, Note_on_c, 0, 80, 40
2, 64845, Note_off_c, 0, 49, 64
2, 64896, Note_off_c, 0, 80, 64
2, 64896, Note_on_c, 0, 81, 40
2, 64934, Note_off_c, 0, 56, 64
2, 65024, Note_off_c, 0, 49, 64
2, 65024, Note_off_c, 0, 52, 64
2, 65024, Note_off_c, 0, 56, 64
2, 65024, Note_off_c, 0, 61, 64
2, 65024, Note_off_c, 0, 64, 64
2, 65024, Note_off_c, 0, 64, 64
2, 65024, Note_off_c, 0, 64, 64
2, 65024, Note_off_c, 0, 68, 64
2, 65024, Note_off_c, 0, 73, 64
2, 65024, Note_off_c, 0, 73, 64
2, 65024, Note_off_c, 0, 66, 64
2, 65024, Note_off_c, 0, 81, 64
2, 65024, Note_on_c, 0, 49, 64
2, 65024, Note_on_c, 0, 49, 80
2, 65024, Note_on_c, 0, 61, 80
2, 65024, Note_on_c, 0, 61, 56
2, 65024, Note_on_c, 0, 64, 56
2, 65024, Note_on_c, 0, 68, 64
2, 65024, Note_on_c, 0, 73, 64
2, 65024, Note_on_c, 0, 76, 40
2, 65024, Note_on_c, 0, 80, 40
2, 65152, Note_off_c, 0, 80, 64
2, 65152, Note_on_c, 0, 78, 40
2, 65280, Note_off_c, 0, 61, 64
2, 65280, Note_off_c, 0, 64, 64
2, 65280, Note_off_c, 0, 78, 64
2, 65280, Note_on_c, 0, 56, 52
2, 65280, Note_on_c, 0, 68, 52
2, 65280, Note_on_c, 0, 76, 40
2, 65357, Note_off_c, 0, 49, 64
2, 65408, Note_off_c, 0, 76, 64
2, 65408, Note_on_c, 0, 75, 40
2, 65446, Note_off_c, 0, 56, 64
2, 65446, Note_off_c, 0, 68, 64
2, 65536, Note_off_c, 0, 49, 64
2, 65536, Note_off_c, 0, 61, 64
2, 65536, Note_off_c, 0, 68, 64
2, 65536, Note_off_c, 0, 75, 64
2, 65536, Note_on_c, 0, 49, 64
2, 65536, Note_on_c, 0, 52, 48
2, 65536, Note_on_c, 0, 64, 64
2, 65536, Note_on_c, 0, 73, 48
2, 65536, Note_on_c, 0, 73, 40
2, 65664, Note_off_c, 0, 52, 64
2, 65664, Note_off_c, 0, 73, 64
2, 65664, Note_off_c, 0, 73, 64
2, 65664, Note_on_c, 0, 55, 46
2, 65664, Note_on_c, 0, 71, 46
2, 65664, Note_on_c, 0, 76, 40
2, 65792, Note_off_c, 0, 73, 64
2, 65792, Note_off_c, 0, 76, 64
2, 65792, Note_off_c, 0, 55, 64
2, 65792, Note_off_c, 0, 71, 64
2, 65792, Note_on_c, 0, 54, 44
2, 65792, Note_on_c, 0, 70, 44
2, 65792, Note_on_c, 0, 75, 40
2, 65792, Note_on_c, 0, 76, 64
2, 65869, Note_off_c, 0, 49, 64
2, 65920, Note_off_c, 0, 54, 64
2, 65920, Note_off_c, 0, 70, 64
2, 65920, Note_off_c, 0, 75, 64
2, 65920, Note_on_c, 0, 52, 42
2, 65920, Note_on_c, 0, 68, 42
2, 65920, Note_on_c, 0, 73, 40
2, 66048, Note_off_c, 0, 64, 64
2, 66048, Note_off_c, 0, 76, 64
2, 66048, Note_off_c, 0, 52, 64
2, 66048, Note_off_c, 0, 68, 64
2, 66048, Note_off_c, 0, 73, 64
2, 66048, Note_on_c, 0, 42, 64
2, 66048, Note_on_c, 0, 42, 30
2, 66048, Note_on_c, 0, 58, 30
2, 66048, Note_on_c, 0, 61, 64
2, 66048, Note_on_c, 0, 61, 40
2, 66048, Note_on_c, 0, 61, 30
2, 66048, Note_on_c, 0, 64, 30
2, 66048, Note_on_c, 0, 66, 40
2, 66048, Note_on_c, 0, 70, 64
2, 66048, Note_on_c, 0, 73, 40
2, 66048, Note_on_c, 0, 82, 40
2, 66176, Note_off_c, 0, 76, 64
2, 66176, Note_on_c, 0, 74, 40
2, 66304, Note_off_c, 0, 61, 64
2, 66304, Note_off_c, 0, 73, 64
2, 66304, Note_off_c, 0, 74, 64
2, 66304, Note_on_c, 0, 54, 40
2, 66304, Note_on_c, 0, 71, 40
2, 66304, Note_on_c, 0, 76, 40
2, 66381, Note_off_c, 0, 42, 64
2, 66432, Note_off_c, 0, 76, 64
2, 66432, Note_on_c, 0, 78, 40
2, 66470, Note_off_c, 0, 54, 64
2, 66470, Note_off_c, 0, 71, 64
2, 66560, Note_off_c, 0, 42, 64
2, 66560, Note_off_c, 0, 58, 64
2, 66560, Note_off_c, 0, 61, 64
2, 66560, Note_off_c, 0, 61, 64
2, 66560, Note_off_c, 0, 64, 64
2, 66560, Note_off_c, 0, 70, 64
2, 66560, Note_off_c, 0, 78, 64
2, 66560, Note_on_c, 0, 42, 64
2, 66560, Note_on_c, 0, 54, 64
2, 66560, Note_on_c, 0, 58, 64
2, 66560, Note_on_c, 0, 61, 40
2, 66560, Note_on_c, 0, 66, 64
2, 66560, Note_on_c, 0, 73, 64
2, 66560, Note_on_c, 0, 73, 40
2, 66560, Note_on_c, 0, 76, 40
2, 66688, Note_off_c, 0, 76, 64
2, 66688, Note_on_c, 0, 74, 40
2, 66816, Note_off_c, 0, 61, 64
2, 66816, Note_off_c, 0, 73, 64
2, 66816, Note_off_c, 0, 73, 64
2, 66816, Note_off_c, 0, 74, 64
2, 66816, Note_on_c, 0, 54, 40
2, 66816, Note_on_c, 0, 70, 64
2, 66816, Note_on_c, 0, 70, 40
2, 66816, Note_on_c, 0, 73, 40
2, 66893, Note_off_c, 0, 42, 64
2, 66944, Note_off_c, 0, 73, 64
2, 66944, Note_on_c, 0, 71, 40
2, 66982, Note_off_c, 0, 54, 64
2, 66982, Note_off_c, 0, 70, 64
2, 67072, Note_off_c, 0, 82, 64
2, 67072, Note_off_c, 0, 54, 64
2, 67072, Note_off_c, 0, 66, 64
2, 67072, Note_off_c, 0, 70, 64
2, 67072, Note_off_c, 0, 71, 64
2, 67072, Note_on_c, 0, 42, 64
2, 67072, Note_on_c, 0, 58, 64
2, 67072, Note_on_c, 0, 61, 40
2, 67072, Note_on_c, 0, 66, 64
2, 67072, Note_on_c, 0, 66, 64
2, 67072, Note_on_c, 0, 70, 40
2, 67072, Note_on_c, 0, 78, 40
2, 67072, Note_on_c, 0, 85, 40
2, 67200, Note_off_c, 0, 70, 64
2, 67200, Note_off_c, 0, 78, 64
2, 67200, Note_on_c, 0, 76, 40
2, 67200, Note_on_c, 0, 79, 40
2, 67328, Note_off_c, 0, 58, 64
2, 67328, Note_off_c, 0, 61, 64
2, 67328, Note_off_c, 0, 66, 64
2, 67328, Note_off_c, 0, 76, 64
2, 67328, Note_off_c, 0, 79, 64
2, 67328, Note_on_c, 0, 54, 40
2, 67328, Note_on_c, 0, 54, 64
2, 67328, Note_on_c, 0, 73, 64
2, 67328, Note_on_c, 0, 74, 40
2, 67328, Note_on_c, 0, 78, 40
2, 67405, Note_off_c, 0, 42, 64
2, 67456, Note_off_c, 0, 74, 64
2, 67456, Note_off_c, 0, 78, 64
2, 67456, Note_on_c, 0, 73, 40
2, 67456, Note_on_c, 0, 76, 40
2, 67494, Note_off_c, 0, 54, 64
2, 67584, Note_off_c, 0, 58, 64
2, 67584, Note_off_c, 0, 66, 64
2, 67584, Note_off_c, 0, 54, 64
2, 67584, Note_off_c, 0, 73, 64
2, 67584, Note_off_c, 0, 73, 64
2, 67584, Note_off_c, 0, 76, 64
2, 67584, Note_on_c, 0, 47, 64
2, 67584, Note_on_c, 0, 47, 30
2, 67584, Note_on_c, 0, 59, 64
2, 67584, Note_on_c, 0, 59, 64
2, 67584, Note_on_c, 0, 62, 40
2, 67584, Note_on_c, 0, 62, 30
2, 67584, Note_on_c, 0, 66, 64
2, 67584, Note_on_c, 0, 66, 30
2, 67584, Note_on_c, 0, 71, 40
2, 67584, Note_on_c, 0, 73, 30
2, 67584, Note_on_c, 0, 74, 64
2, 67584, Note_on_c, 0, 74, 40
2, 67712, Note_off_c, 0, 85, 64
2, 67712, Note_on_c, 0, 82, 40
2, 67793, Note_off_c, 0, 82, 64
2, 67840, Note_off_c, 0, 66, 64
2, 67840, Note_off_c, 0, 62, 64
2, 67840, Note_on_c, 0, 54, 40
2, 67840, Note_on_c, 0, 66, 40
2, 67840, Note_on_c, 0, 82, 40
2, 67917, Note_off_c, 0, 47, 64
2, 67968, Note_off_c, 0, 82, 64
2, 67968, Note_on_c, 0, 83, 40
2, 68006, Note_off_c, 0, 54, 64
2, 68049, Note_off_c, 0, 83, 64
2, 68096, Note_off_c, 0, 47, 64
2, 68096, Note_off_c, 0, 59, 64
2, 68096, Note_off_c, 0, 59, 64
2, 68096, Note_off_c, 0, 73, 64
2, 68096, Note_off_c, 0, 66, 64
2, 68096, Note_on_c, 0, 47, 64
2, 68096, Note_on_c, 0, 59, 64
2, 68096, Note_on_c, 0, 62, 64
2, 68096, Note_on_c, 0, 62, 40
2, 68096, Note_on_c, 0, 71, 40
2, 68096, Note_on_c, 0, 71, 30
2, 68096, Note_on_c, 0, 83, 40
2, 68224, Note_off_c, 0, 83, 64
2, 68224, Note_on_c, 0, 79, 40
2, 68305, Note_off_c, 0, 79, 64
2, 68352, Note_off_c, 0, 62, 64
2, 68352, Note_off_c, 0, 71, 64
2, 68352, Note_on_c, 0, 54, 40
2, 68352, Note_on_c, 0, 74, 40
2, 68352, Note_on_c, 0, 79, 40
2, 68429, Note_off_c, 0, 47, 64
2, 68480, Note_off_c, 0, 79, 64
2, 68480, Note_on_c, 0, 81, 40
2, 68518, Note_off_c, 0, 54, 64
2, 68518, Note_off_c, 0, 74, 64
2, 68561, Note_off_c, 0, 81, 64
2, 68608, Note_off_c, 0, 62, 64
2, 68608, Note_off_c, 0, 66, 64
2, 68608, Note_off_c, 0, 66, 64
2, 68608, Note_off_c, 0, 59, 64
2, 68608, Note_off_c, 0, 62, 64
2, 68608, Note_off_c, 0, 71, 64
2, 68608, Note_on_c, 0, 47, 64
2, 68608, Note_on_c, 0, 59, 64
2, 68608, Note_on_c, 0, 62, 40
2, 68608, Note_on_c, 0, 62, 64
2, 68608, Note_on_c, 0, 66, 64
2, 68608, Note_on_c, 0, 66, 40
2, 68608, Note_on_c, 0, 81, 40
2, 68736, Note_off_c, 0, 81, 64
2, 68736, Note_on_c, 0, 78, 40
2, 68817, Note_off_c, 0, 78, 64
2, 68864, Note_off_c, 0, 62, 64
2, 68864, Note_off_c, 0, 66, 64
2, 68864, Note_on_c, 0, 54, 40
2, 68864, Note_on_c, 0, 71, 40
2, 68864, Note_on_c, 0, 78, 40
2, 68941, Note_off_c, 0, 47, 64
2, 68992, Note_off_c, 0, 78, 64
2, 68992, Note_on_c, 0, 80, 40
2, 69030, Note_off_c, 0, 54, 64
2, 69030, Note_off_c, 0, 71, 64
2, 69073, Note_off_c, 0, 80, 64
2, 69120, Note_off_c, 0, 59, 64
2, 69120, Note_off_c, 0, 62, 64
2, 69120, Note_off_c, 0, 66, 64
2, 69120, Note_on_c, 0, 41, 64
2, 69120, Note_on_c, 0, 41, 30
2, 69120, Note_on_c, 0, 53, 64
2, 69120, Note_on_c, 0, 56, 64
2, 69120, Note_on_c, 0, 59, 64
2, 69120, Note_on_c, 0, 59, 40
2, 69120, Note_on_c, 0, 62, 30
2, 69120, Note_on_c, 0, 65, 30
2, 69120, Note_on_c, 0, 68, 40
2, 69120, Note_on_c, 0, 68, 30
2, 69120, Note_on_c, 0, 71, 30
2, 69120, Note_on_c, 0, 80, 40
2, 69248, Note_off_c, 0, 74, 64
2, 69248, Note_on_c, 0, 71, 40
2, 69329, Note_off_c, 0, 71, 64
2, 69376, Note_off_c, 0, 71, 64
2, 69376, Note_off_c, 0, 59, 64
2, 69376, Note_on_c, 0, 49, 40
2, 69376, Note_on_c, 0, 68, 40
2, 69376, Note_on_c, 0, 71, 40
2, 69453, Note_off_c, 0, 41, 64
2, 69504, Note_off_c, 0, 71, 64
2, 69504, Note_on_c, 0, 73, 40
2, 69542, Note_off_c, 0, 49, 64
2, 69585, Note_off_c, 0, 73, 64
2, 69632, Note_off_c, 0, 74, 64
2, 69632, Note_off_c, 0, 41, 64
2, 69632, Note_off_c, 0, 59, 64
2, 69632, Note_off_c, 0, 62, 64
2, 69632, Note_off_c, 0, 68, 64
2, 69632, Note_off_c, 0, 68, 64
2, 69632, Note_on_c, 0, 41, 64
2, 69632, Note_on_c, 0, 56, 40
2, 69632, Note_on_c, 0, 61, 30
2, 69632, Note_on_c, 0, 65, 40
2, 69632, Note_on_c, 0, 68, 64
2, 69632, Note_on_c, 0, 73, 64
2, 69632, Note_on_c, 0, 73, 40
2, 69760, Note_off_c, 0, 73, 64
2, 69760, Note_on_c, 0, 69, 40
2, 69841, Note_off_c, 0, 69, 64
2, 69888, Note_off_c, 0, 53, 64
2, 69888, Note_off_c, 0, 56, 64
2, 69888, Note_off_c, 0, 56, 64
2, 69888, Note_off_c, 0, 65, 64
2, 69888, Note_on_c, 0, 49, 40
2, 69888, Note_on_c, 0, 53, 64
2, 69888, Note_on_c, 0, 61, 64
2, 69888, Note_on_c, 0, 61, 40
2, 69888, Note_on_c, 0, 69, 40
2, 69888, Note_on_c, 0, 73, 40
2, 69965, Note_off_c, 0, 41, 64
2, 70016, Note_off_c, 0, 69, 64
2, 70016, Note_on_c, 0, 71, 40
2, 70054, Note_off_c, 0, 49, 64
2, 70054, Note_off_c, 0, 73, 64
2, 70097, Note_off_c, 0, 71, 64
2, 70144, Note_off_c, 0, 61, 64
2, 70144, Note_off_c, 0, 68, 64
2, 70144, Note_off_c, 0, 73, 64
2, 70144, Note_off_c, 0, 53, 64
2, 70144, Note_off_c, 0, 61, 64
2, 70144, Note_off_c, 0, 61, 64
2, 70144, Note_on_c, 0, 41, 64
2, 70144, Note_on_c, 0, 53, 64
2, 70144, Note_on_c, 0, 59, 30
2, 70144, Note_on_c, 0, 61, 64
2, 70144, Note_on_c, 0, 61, 40
2, 70144, Note_on_c, 0, 65, 40
2, 70144, Note_on_c, 0, 68, 64
2, 70144, Note_on_c, 0, 68, 40
2, 70144, Note_on_c, 0, 71, 64
2, 70144, Note_on_c, 0, 71, 40
2, 70272, Note_off_c, 0, 71, 64
2, 70272, Note_on_c, 0, 68, 40
2, 70353, Note_off_c, 0, 68, 64
2, 70400, Note_off_c, 0, 53, 64
2, 70400, Note_off_c, 0, 61, 64
2, 70400, Note_off_c, 0, 61, 64
2, 70400, Note_off_c, 0, 65, 64
2, 70400, Note_off_c, 0, 68, 64
2, 70400, Note_on_c, 0, 49, 40
2, 70400, Note_on_c, 0, 53, 64
2, 70400, Note_on_c, 0, 61, 64
2, 70400, Note_on_c, 0, 68, 40
2, 70400, Note_on_c, 0, 68, 40
2, 70400, Note_on_c, 0, 71, 40
2, 70477, Note_off_c, 0, 41, 64
2, 70528, Note_off_c, 0, 68, 64
2, 70528, Note_on_c, 0, 69, 40
2, 70566, Note_off_c, 0, 49, 64
2, 70566, Note_off_c, 0, 68, 64
2, 70566, Note_off_c, 0, 71, 64
2, 70609, Note_off_c, 0, 69, 64
2, 70656, Note_off_c, 0, 65, 64
2, 70656, Note_off_c, 0, 68, 64
2, 70656, Note_off_c, 0, 71, 64
2, 70656, Note_off_c, 0, 59, 64
2, 70656, Note_off_c, 0, 68, 64
2, 70656, Note_off_c, 0, 71, 64
2, 70656, Note_off_c, 0, 53, 64
2, 70656, Note_off_c, 0, 61, 64
2, 70656, Note_on_c, 0, 42, 64
2, 70656, Note_on_c, 0, 42, 30
2, 70656, Note_on_c, 0, 54, 40
2, 70656, Note_on_c, 0, 54, 64
2, 70656, Note_on_c, 0, 59, 30
2, 70656, Note_on_c, 0, 61, 64
2, 70656, Note_on_c, 0, 65, 30
2, 70656, Note_on_c, 0, 68, 64
2, 70656, Note_on_c, 0, 68, 30
2, 70656, Note_on_c, 0, 69, 64
2, 70656, Note_on_c, 0, 69, 40
2, 70656, Note_on_c, 0, 69, 40
2, 70656, Note_on_c, 0, 73, 40
2, 70784, Note_off_c, 0, 80, 64
2, 70784, Note_on_c, 0, 77, 40
2, 70865, Note_off_c, 0, 77, 64
2, 70912, Note_off_c, 0, 69, 64
2, 70912, Note_off_c, 0, 73, 64
2, 70912, Note_on_c, 0, 71, 40
2, 70912, Note_on_c, 0, 74, 40
2, 70912, Note_on_c, 0, 77, 40
2, 70989, Note_off_c, 0, 42, 64
2, 71040, Note_off_c, 0, 77, 64
2, 71040, Note_on_c, 0, 78, 40
2, 71078, Note_off_c, 0, 71, 64
2, 71078, Note_off_c, 0, 74, 64
2, 71121, Note_off_c, 0, 78, 64
2, 71168, Note_off_c, 0, 42, 64
2, 71168, Note_off_c, 0, 59, 64
2, 71168, Note_off_c, 0, 65, 64
2, 71168, Note_off_c, 0, 68, 64
2, 71168, Note_off_c, 0, 68, 64
2, 71168, Note_on_c, 0, 42, 64
2, 71168, Note_on_c, 0, 61, 30
2, 71168, Note_on_c, 0, 66, 64
2, 71168, Note_on_c, 0, 66, 30
2, 71168, Note_on_c, 0, 69, 40
2, 71168, Note_on_c, 0, 69, 30
2, 71168, Note_on_c, 0, 73, 40
2, 71168, Note_on_c, 0, 78, 40
2, 71296, Note_off_c, 0, 78, 64
2, 71296, Note_on_c, 0, 74, 40
2, 71377, Note_off_c, 0, 74, 64
2, 71424, Note_off_c, 0, 69, 64
2, 71424, Note_off_c, 0, 73, 64
2, 71424, Note_on_c, 0, 68, 40
2, 71424, Note_on_c, 0, 71, 40
2, 71424, Note_on_c, 0, 74, 40
2, 71501, Note_off_c, 0, 42, 64
2, 71552, Note_off_c, 0, 74, 64
2, 71552, Note_on_c, 0, 76, 40
2, 71590, Note_off_c, 0, 68, 64
2, 71590, Note_off_c, 0, 71, 64
2, 71633, Note_off_c, 0, 76, 64
2, 71680, Note_off_c, 0, 54, 64
2, 71680, Note_off_c, 0, 61, 64
2, 71680, Note_off_c, 0, 69, 64
2, 71680, Note_off_c, 0, 66, 64
2, 71680, Note_on_c, 0, 42, 64
2, 71680, Note_on_c, 0, 54, 64
2, 71680, Note_on_c, 0, 61, 64
2, 71680, Note_on_c, 0, 66, 64
2, 71680, Note_on_c, 0, 66, 40
2, 71680, Note_on_c, 0, 69, 64
2, 71680, Note_on_c, 0, 69, 40
2, 71680, Note_on_c, 0, 76, 40
2, 71808, Note_off_c, 0, 76, 64
2, 71808, Note_on_c, 0, 73, 40
2, 71889, Note_off_c, 0, 73, 64
2, 71936, Note_off_c, 0, 66, 64
2, 71936, Note_off_c, 0, 69, 64
2, 71936, Note_on_c, 0, 68, 40
2, 71936, Note_on_c, 0, 73, 40
2, 71936, Note_on_c, 0, 76, 40
2, 72013, Note_off_c, 0, 42, 64
2, 72064, Note_off_c, 0, 73, 64
2, 72064, Note_on_c, 0, 74, 40
2, 72102, Note_off_c, 0, 68, 64
2, 72102, Note_off_c, 0, 76, 64
2, 72145, Note_off_c, 0, 74, 64
2, 72192, Note_off_c, 0, 61, 64
2, 72192, Note_off_c, 0, 66, 64
2, 72192, Note_off_c, 0, 69, 64
2, 72192, Note_off_c, 0, 54, 64
2, 72192, Note_off_c, 0, 61, 64
2, 72192, Note_off_c, 0, 66, 64
2, 72192, Note_off_c, 0, 69, 64
2, 72192, Note_on_c, 0, 47, 64
2, 72192, Note_on_c, 0, 47, 40
2, 72192, Note_on_c, 0, 59, 40
2, 72192, Note_on_c, 0, 62, 40
2, 72192, Note_on_c, 0, 66, 40
2, 72192, Note_on_c, 0, 69, 40
2, 72192, Note_on_c, 0, 74, 40
2, 72192, Note_on_c, 0, 74, 25
2, 72320, Note_off_c, 0, 69, 64
2, 72320, Note_on_c, 0, 66, 25
2, 72401, Note_off_c, 0, 66, 64
2, 72448, Note_off_c, 0, 54, 64
2, 72448, Note_off_c, 0, 66, 64
2, 72448, Note_off_c, 0, 74, 64
2, 72448, Note_on_c, 0, 54, 39
2, 72448, Note_on_c, 0, 66, 25
2, 72448, Note_on_c, 0, 73, 39
2, 72448, Note_on_c, 0, 76, 39
2, 72525, Note_off_c, 0, 47, 64
2, 72576, Note_off_c, 0, 74, 64
2, 72576, Note_off_c, 0, 66, 64
2, 72576, Note_on_c, 0, 67, 25
2, 72576, Note_on_c, 0, 71, 25
2, 72614, Note_off_c, 0, 73, 64
2, 72614, Note_off_c, 0, 76, 64
2, 72657, Note_off_c, 0, 67, 64
2, 72657, Note_off_c, 0, 71, 64
2, 72704, Note_off_c, 0, 47, 64
2, 72704, Note_off_c, 0, 69, 64
2, 72704, Note_off_c, 0, 54, 64
2, 72704, Note_on_c, 0, 47, 64
2, 72704, Note_on_c, 0, 55, 38
2, 72704, Note_on_c, 0, 59, 47
2, 72704, Note_on_c, 0, 59, 47
2, 72704, Note_on_c, 0, 62, 47
2, 72704, Note_on_c, 0, 67, 47
2, 72704, Note_on_c, 0, 67, 25
2, 72704, Note_on_c, 0, 67, 38
2, 72704, Note_on_c, 0, 71, 38
2, 72704, Note_on_c, 0, 71, 25
2, 72704, Note_on_c, 0, 74, 38
2, 72832, Note_off_c, 0, 67, 64
2, 72832, Note_off_c, 0, 71, 64
2, 72832, Note_on_c, 0, 71, 25
2, 72832, Note_on_c, 0, 74, 25
2, 72913, Note_off_c, 0, 71, 64
2, 72913, Note_off_c, 0, 74, 64
2, 72960, Note_off_c, 0, 55, 64
2, 72960, Note_off_c, 0, 67, 64
2, 72960, Note_off_c, 0, 71, 64
2, 72960, Note_off_c, 0, 74, 64
2, 72960, Note_on_c, 0, 57, 37
2, 72960, Note_on_c, 0, 66, 46
2, 72960, Note_on_c, 0, 69, 37
2, 72960, Note_on_c, 0, 71, 25
2, 72960, Note_on_c, 0, 73, 37
2, 72960, Note_on_c, 0, 74, 25
2, 73037, Note_off_c, 0, 47, 64
2, 73088, Note_off_c, 0, 71, 64
2, 73088, Note_off_c, 0, 74, 64
2, 73088, Note_on_c, 0, 74, 25
2, 73088, Note_on_c, 0, 79, 25
2, 73126, Note_off_c, 0, 69, 64
2, 73126, Note_off_c, 0, 73, 64
2, 73169, Note_off_c, 0, 74, 64
2, 73169, Note_off_c, 0, 79, 64
2, 73216, Note_off_c, 0, 59, 64
2, 73216, Note_off_c, 0, 59, 64
2, 73216, Note_off_c, 0, 62, 64
2, 73216, Note_off_c, 0, 67, 64
2, 73216, Note_off_c, 0, 57, 64
2, 73216, Note_off_c, 0, 66, 64
2, 73216, Note_on_c, 0, 47, 64
2, 73216, Note_on_c, 0, 47, 45
2, 73216, Note_on_c, 0, 59, 45
2, 73216, Note_on_c, 0, 59, 37
2, 73216, Note_on_c, 0, 62, 45
2, 73216, Note_on_c, 0, 66, 37
2, 73216, Note_on_c, 0, 67, 45
2, 73216, Note_on_c, 0, 67, 37
2, 73216, Note_on_c, 0, 71, 37
2, 73216, Note_on_c, 0, 74, 25
2, 73216, Note_on_c, 0, 79, 25
2, 73344, Note_off_c, 0, 74, 64
2, 73344, Note_off_c, 0, 79, 64
2, 73344, Note_on_c, 0, 79, 25
2, 73344, Note_on_c, 0, 83, 25
2, 73425, Note_off_c, 0, 79, 64
2, 73425, Note_off_c, 0, 83, 64
2, 73472, Note_off_c, 0, 59, 64
2, 73472, Note_off_c, 0, 67, 64
2, 73472, Note_off_c, 0, 67, 64
2, 73472, Note_off_c, 0, 71, 64
2, 73472, Note_on_c, 0, 59, 36
2, 73472, Note_on_c, 0, 62, 36
2, 73472, Note_on_c, 0, 71, 44
2, 73472, Note_on_c, 0, 74, 36
2, 73472, Note_on_c, 0, 79, 25
2, 73472, Note_on_c, 0, 83, 25
2, 73549, Note_off_c, 0, 47, 64
2, 73600, Note_off_c, 0, 79, 64
2, 73600, Note_off_c, 0, 83, 64
2, 73600, Note_on_c, 0, 83, 25
2, 73600, Note_on_c, 0, 86, 25
2, 73638, Note_off_c, 0, 59, 64
2, 73638, Note_off_c, 0, 74, 64
2, 73681, Note_off_c, 0, 83, 64
2, 73681, Note_off_c, 0, 86, 64
2, 73728, Note_off_c, 0, 59, 64
2, 73728, Note_off_c, 0, 62, 64
2, 73728, Note_off_c, 0, 47, 64
2, 73728, Note_off_c, 0, 59, 64
2, 73728, Note_off_c, 0, 62, 64
2, 73728, Note_off_c, 0, 66, 64
2, 73728, Note_off_c, 0, 62, 64
2, 73728, Note_off_c, 0, 71, 64
2, 73728, Note_on_c, 0, 49, 30
2, 73728, Note_on_c, 0, 49, 42
2, 73728, Note_on_c, 0, 49, 35
2, 73728, Note_on_c, 0, 56, 42
2, 73728, Note_on_c, 0, 59, 42
2, 73728, Note_on_c, 0, 59, 35
2, 73728, Note_on_c, 0, 61, 35
2, 73728, Note_on_c, 0, 62, 35
2, 73728, Note_on_c, 0, 65, 42
2, 73728, Note_on_c, 0, 65, 35
2, 73728, Note_on_c, 0, 65, 35
2, 73728, Note_on_c, 0, 68, 35
2, 73728, Note_on_c, 0, 83, 25
2, 73728, Note_on_c, 0, 86, 25
2, 73856, Note_off_c, 0, 83, 64
2, 73856, Note_on_c, 0, 77, 25
2, 73937, Note_off_c, 0, 77, 64
2, 73984, Note_on_c, 0, 77, 25
2, 74112, Note_off_c, 0, 77, 64
2, 74112, Note_on_c, 0, 80, 25
2, 74193, Note_off_c, 0, 80, 64
2, 74240, Note_on_c, 0, 80, 25
2, 74368, Note_off_c, 0, 80, 64
2, 74368, Note_on_c, 0, 73, 25
2, 74449, Note_off_c, 0, 73, 64
2, 74496, Note_off_c, 0, 49, 64
2, 74496, Note_off_c, 0, 49, 64
2, 74496, Note_off_c, 0, 49, 64
2, 74496, Note_off_c, 0, 56, 64
2, 74496, Note_off_c, 0, 59, 64
2, 74496, Note_off_c, 0, 59, 64
2, 74496, Note_off_c, 0, 61, 64
2, 74496, Note_off_c, 0, 62, 64
2, 74496, Note_off_c, 0, 65, 64
2, 74496, Note_off_c, 0, 65, 64
2, 74496, Note_off_c, 0, 65, 64
2, 74496, Note_off_c, 0, 68, 64
2, 74496, Note_off_c, 0, 86, 64
2, 74496, Note_on_c, 0, 49, 30
2, 74496, Note_on_c, 0, 49, 39
2, 74496, Note_on_c, 0, 49, 32
2, 74496, Note_on_c, 0, 53, 32
2, 74496, Note_on_c, 0, 57, 39
2, 74496, Note_on_c, 0, 61, 39
2, 74496, Note_on_c, 0, 61, 32
2, 74496, Note_on_c, 0, 65, 32
2, 74496, Note_on_c, 0, 68, 32
2, 74496, Note_on_c, 0, 69, 39
2, 74496, Note_on_c, 0, 73, 32
2, 74496, Note_on_c, 0, 73, 25
2, 74496, Note_on_c, 0, 85, 25
2, 74624, Note_off_c, 0, 73, 64
2, 74624, Note_on_c, 0, 77, 25
2, 74705, Note_off_c, 0, 77, 64
2, 74752, Note_off_c, 0, 49, 64
2, 74752, Note_off_c, 0, 49, 64
2, 74752, Note_off_c, 0, 49, 64
2, 74752, Note_off_c, 0, 53, 64
2, 74752, Note_off_c, 0, 57, 64
2, 74752, Note_off_c, 0, 61, 64
2, 74752, Note_off_c, 0, 61, 64
2, 74752, Note_off_c, 0, 65, 64
2, 74752, Note_off_c, 0, 68, 64
2, 74752, Note_off_c, 0, 69, 64
2, 74752, Note_off_c, 0, 73, 64
2, 74752, Note_off_c, 0, 85, 64
2, 74752, Note_on_c, 0, 50, 30
2, 74752, Note_on_c, 0, 50, 37
2, 74752, Note_on_c, 0, 50, 32
2, 74752, Note_on_c, 0, 54, 37
2, 74752, Note_on_c, 0, 59, 37
2, 74752, Note_on_c, 0, 59, 32
2, 74752, Note_on_c, 0, 59, 32
2, 74752, Note_on_c, 0, 66, 37
2, 74752, Note_on_c, 0, 66, 32
2, 74752, Note_on_c, 0, 66, 32
2, 74752, Note_on_c, 0, 66, 32
2, 74752, Note_on_c, 0, 78, 25
2, 74752, Note_on_c, 0, 83, 25
2, 74880, Note_off_c, 0, 83, 64
2, 74880, Note_on_c, 0, 81, 25
2, 75008, Note_off_c, 0, 59, 64
2, 75008, Note_off_c, 0, 66, 64
2, 75008, Note_off_c, 0, 66, 64
2, 75008, Note_off_c, 0, 81, 64
2, 75008, Note_on_c, 0, 62, 31
2, 75008, Note_on_c, 0, 68, 31
2, 75008, Note_on_c, 0, 71, 31
2, 75008, Note_on_c, 0, 83, 25
2, 75085, Note_off_c, 0, 50, 64
2, 75136, Note_off_c, 0, 68, 64
2, 75136, Note_off_c, 0, 83, 64
2, 75136, Note_on_c, 0, 65, 30
2, 75136, Note_on_c, 0, 80, 25
2, 75174, Note_off_c, 0, 62, 64
2, 75174, Note_off_c, 0, 71, 64
2, 75264, Note_off_c, 0, 50, 64
2, 75264, Note_off_c, 0, 50, 64
2, 75264, Note_off_c, 0, 59, 64
2, 75264, Note_off_c, 0, 66, 64
2, 75264, Note_off_c, 0, 65, 64
2, 75264, Note_off_c, 0, 80, 64
2, 75264, Note_on_c, 0, 47, 30
2, 75264, Note_on_c, 0, 47, 30
2, 75264, Note_on_c, 0, 47, 30
2, 75264, Note_on_c, 0, 54, 30
2, 75264, Note_on_c, 0, 59, 30
2, 75264, Note_on_c, 0, 62, 30
2, 75264, Note_on_c, 0, 62, 30
2, 75264, Note_on_c, 0, 66, 30
2, 75264, Note_on_c, 0, 66, 30
2, 75264, Note_on_c, 0, 69, 30
2, 75264, Note_on_c, 0, 81, 25
2, 75392, Note_off_c, 0, 78, 64
2, 75392, Note_off_c, 0, 81, 64
2, 75392, Note_on_c, 0, 77, 25
2, 75392, Note_on_c, 0, 80, 25
2, 75520, Note_off_c, 0, 54, 64
2, 75520, Note_off_c, 0, 59, 64
2, 75520, Note_off_c, 0, 66, 64
2, 75520, Note_off_c, 0, 54, 64
2, 75520, Note_off_c, 0, 62, 64
2, 75520, Note_off_c, 0, 66, 64
2, 75520, Note_off_c, 0, 77, 64
2, 75520, Note_off_c, 0, 80, 64
2, 75520, Note_on_c, 0, 54, 30
2, 75520, Note_on_c, 0, 62, 30
2, 75520, Note_on_c, 0, 66, 30
2, 75520, Note_on_c, 0, 66, 30
2, 75520, Note_on_c, 0, 74, 30
2, 75520, Note_on_c, 0, 74, 30
2, 75520, Note_on_c, 0, 78, 25
2, 75520, Note_on_c, 0, 81, 25
2, 75597, Note_off_c, 0, 47, 64
2, 75648, Note_off_c, 0, 78, 64
2, 75648, Note_off_c, 0, 81, 64
2, 75648, Note_on_c, 0, 80, 25
2, 75648, Note_on_c, 0, 83, 25
2, 75686, Note_off_c, 0, 66, 64
2, 75729, Note_off_c, 0, 80, 64
2, 75729, Note_off_c, 0, 83, 64
2, 75776, Note_off_c, 0, 47, 64
2, 75776, Note_off_c, 0, 47, 64
2, 75776, Note_off_c, 0, 59, 64
2, 75776, Note_off_c, 0, 62, 64
2, 75776, Note_off_c, 0, 66, 64
2, 75776, Note_off_c, 0, 69, 64
2, 75776, Note_off_c, 0, 54, 64
2, 75776, Note_off_c, 0, 62, 64
2, 75776, Note_off_c, 0, 66, 64
2, 75776, Note_off_c, 0, 74, 64
2, 75776, Note_off_c, 0, 74, 64
2, 75776, Note_on_c, 0, 49, 30
2, 75776, Note_on_c, 0, 49, 30
2, 75776, Note_on_c, 0, 49, 30
2, 75776, Note_on_c, 0, 56, 30
2, 75776, Note_on_c, 0, 61, 30
2, 75776, Note_on_c, 0, 61, 30
2, 75776, Note_on_c, 0, 61, 30
2, 75776, Note_on_c, 0, 65, 30
2, 75776, Note_on_c, 0, 66, 30
2, 75776, Note_on_c, 0, 68, 30
2, 75776, Note_on_c, 0, 73, 30
2, 75776, Note_on_c, 0, 73, 30
2, 75776, Note_on_c, 0, 78, 25
2, 75776, Note_on_c, 0, 80, 25
2, 75840, Note_off_c, 0, 78, 64
2, 75840, Note_on_c, 0, 77, 25
2, 75904, Note_off_c, 0, 77, 64
2, 75904, Note_on_c, 0, 78, 25
2, 75968, Note_off_c, 0, 78, 64
2, 75968, Note_on_c, 0, 77, 25
2, 76032, Note_off_c, 0, 56, 64
2, 76032, Note_off_c, 0, 73, 64
2, 76032, Note_off_c, 0, 73, 64
2, 76032, Note_off_c, 0, 77, 64
2, 76032, Note_on_c, 0, 54, 30
2, 76032, Note_on_c, 0, 70, 30
2, 76032, Note_on_c, 0, 70, 30
2, 76032, Note_on_c, 0, 78, 25
2, 76096, Note_off_c, 0, 78, 64
2, 76096, Note_on_c, 0, 77, 25
2, 76109, Note_off_c, 0, 49, 64
2, 76160, Note_off_c, 0, 77, 64
2, 76160, Note_on_c, 0, 78, 25
2, 76198, Note_off_c, 0, 70, 64
2, 76224, Note_off_c, 0, 78, 64
2, 76224, Note_on_c, 0, 77, 25
2, 76288, Note_off_c, 0, 49, 64
2, 76288, Note_off_c, 0, 61, 64
2, 76288, Note_off_c, 0, 66, 64
2, 76288, Note_off_c, 0, 54, 64
2, 76288, Note_off_c, 0, 70, 64
2, 76288, Note_off_c, 0, 77, 64
2, 76288, Note_on_c, 0, 37, 30
2, 76288, Note_on_c, 0, 37, 30
2, 76288, Note_on_c, 0, 56, 30
2, 76288, Note_on_c, 0, 61, 30
2, 76288, Note_on_c, 0, 65, 30
2, 76288, Note_on_c, 0, 71, 30
2, 76288, Note_on_c, 0, 71, 30
2, 76288, Note_on_c, 0, 78, 25
2, 76352, Note_off_c, 0, 78, 64
2, 76352, Note_on_c, 0, 77, 25
2, 76416, Note_off_c, 0, 77, 64
2, 76416, Note_on_c, 0, 78, 25
2, 76480, Note_off_c, 0, 78, 64
2, 76480, Note_on_c, 0, 77, 25
2, 76544, Note_off_c, 0, 80, 64
2, 76544, Note_off_c, 0, 56, 64
2, 76544, Note_off_c, 0, 77, 64
2, 76544, Note_on_c, 0, 61, 30
2, 76544, Note_on_c, 0, 78, 25
2, 76544, Note_on_c, 0, 78, 25
2, 76621, Note_off_c, 0, 37, 64
2, 76710, Note_off_c, 0, 61, 64
2, 76800, Note_off_c, 0, 49, 64
2, 76800, Note_off_c, 0, 61, 64
2, 76800, Note_off_c, 0, 61, 64
2, 76800, Note_off_c, 0, 65, 64
2, 76800, Note_off_c, 0, 68, 64
2, 76800, Note_off_c, 0, 37, 64
2, 76800, Note_off_c, 0, 61, 64
2, 76800, Note_off_c, 0, 65, 64
2, 76800, Note_off_c, 0, 71, 64
2, 76800, Note_off_c, 0, 71, 64
2, 76800, Note_off_c, 0, 78, 64
2, 76800, Note_off_c, 0, 78, 64
2, 76800, Note_on_c, 0, 42, 30
2, 76800, Note_on_c, 0, 42, 30
2, 76800, Note_on_c, 0, 42, 30
2, 76800, Note_on_c, 0, 58, 30
2, 76800, Note_on_c, 0, 61, 30
2, 76800, Note_on_c, 0, 61, 30
2, 76800, Note_on_c, 0, 61, 30
2, 76800, Note_on_c, 0, 61, 30
2, 76800, Note_on_c, 0, 66, 30
2, 76800, Note_on_c, 0, 66, 30
2, 76800, Note_on_c, 0, 70, 30
2, 76800, Note_on_c, 0, 70, 30
2, 76800, Note_on_c, 0, 78, 25
2, 76800, Note_on_c, 0, 78, 25
2, 78336, Note_off_c, 0, 42, 64
2, 78336, Note_off_c, 0, 42, 64
2, 78336, Note_off_c, 0, 42, 64
2, 78336, Note_off_c, 0, 58, 64
2, 78336, Note_off_c, 0, 61, 64
2, 78336, Note_off_c, 0, 61, 64
2, 78336, Note_off_c, 0, 61, 64
2, 78336, Note_off_c, 0, 61, 64
2, 78336, Note_off_c, 0, 66, 64
2, 78336, Note_off_c, 0, 66, 64
2, 78336, Note_off_c, 0, 70, 64
2, 78336, Note_off_c, 0, 70, 64
2, 78336, Note_off_c, 0, 78, 64
2, 78336, Note_off_c, 0, 78, 64
2, 78336, End_track
0, 0, End_of_file
