0, 0, Header, 1, 9, 1024
1, 0, Start_track
1, 0, Time_signature, 12, 3, 36, 8
1, 0, Key_signature, -2, "major"
1, 0, Tempo, 428571
1, 0, Tempo, 461538
1, 0, Title_t, "Bach's Brandenburg Concerto No.6, 3rd mov't"
1, 402368, Tempo, 468750
1, 402453, Tempo, 504201
1, 402555, Tempo, 517241
1, 402657, Tempo, 530973
1, 402759, Tempo, 545454
1, 402861, Tempo, 560747
1, 402963, Tempo, 576923
1, 403065, Tempo, 594059
1, 403167, Tempo, 612244
1, 403175, Tempo, 571428
1, 403275, Tempo, 625000
1, 403375, Tempo, 689655
1, 403475, Tempo, 779220
1, 403575, Tempo, 882352
1, 403675, Tempo, 1016949
1, 403775, Tempo, 1224489
1, 403875, Tempo, 1500000
1, 403904, Tempo, 1153846
1, 403909, Tempo, 1304347
1, 403911, Tempo, 1538461
1, 403966, Tempo, 2222222
1, 404870, Tempo, 2000000
1, 404925, Tempo, 5454545
1, 404993, Tempo, 468750
1, 678803, Tempo, 600000
1, 678926, Tempo, 588235
1, 679026, Tempo, 594059
1, 679126, Tempo, 606060
1, 679226, Tempo, 618556
1, 679326, Tempo, 625000
1, 679426, Tempo, 638297
1, 679526, Tempo, 652173
1, 679626, Tempo, 659340
1, 679726, Tempo, 674157
1, 679826, Tempo, 689655
1, 679918, Tempo, 740740
1, 680018, Tempo, 821917
1, 680350, Tempo, 3529411
1, 680459, Tempo, 1034482
1, 688128, End_track
2, 0, Start_track
2, 0, Program_c, 0, 41
2, 0, Control_c, 0, 121, 127
2, 0, Control_c, 0, 91, 127
2, 0, Control_c, 0, 1, 10
2, 0, Control_c, 0, 10, 40
2, 0, Title_t, "Viola I da braccio"
2, 5632, Note_on_c, 0, 65, 64
2, 6016, Note_on_c, 0, 65, 0
2, 6144, Note_on_c, 0, 70, 64
2, 6656, Note_on_c, 0, 70, 0
2, 6656, Note_on_c, 0, 69, 64
2, 7040, Note_on_c, 0, 69, 0
2, 7168, Note_on_c, 0, 70, 64
2, 7552, Note_on_c, 0, 70, 0
2, 7680, Note_on_c, 0, 62, 64
2, 8192, Note_on_c, 0, 62, 0
2, 8192, Note_on_c, 0, 65, 64
2, 8576, Note_on_c, 0, 65, 0
2, 8704, Note_on_c, 0, 70, 64
2, 9088, Note_on_c, 0, 70, 0
2, 9216, Note_on_c, 0, 70, 64
2, 9728, Note_on_c, 0, 70, 0
2, 9728, Note_on_c, 0, 69, 64
2, 10112, Note_on_c, 0, 69, 0
2, 10240, Note_on_c, 0, 70, 64
2, 10624, Note_on_c, 0, 70, 0
2, 10752, Note_on_c, 0, 62, 64
2, 11264, Note_on_c, 0, 62, 0
2, 11264, Note_on_c, 0, 65, 64
2, 11648, Note_on_c, 0, 65, 0
2, 11776, Note_on_c, 0, 70, 64
2, 12160, Note_on_c, 0, 70, 0
2, 12288, Note_on_c, 0, 72, 64
2, 12800, Note_on_c, 0, 72, 0
2, 12800, Note_on_c, 0, 70, 64
2, 13184, Note_on_c, 0, 70, 0
2, 13312, Note_on_c, 0, 72, 64
2, 13696, Note_on_c, 0, 72, 0
2, 13824, Note_on_c, 0, 65, 64
2, 14336, Note_on_c, 0, 65, 0
2, 14336, Note_on_c, 0, 69, 64
2, 14720, Note_on_c, 0, 69, 0
2, 14848, Note_on_c, 0, 72, 64
2, 15232, Note_on_c, 0, 72, 0
2, 15360, Note_on_c, 0, 74, 64
2, 15872, Note_on_c, 0, 74, 0
2, 15872, Note_on_c, 0, 72, 64
2, 16256, Note_on_c, 0, 72, 0
2, 16384, Note_on_c, 0, 74, 64
2, 16768, Note_on_c, 0, 74, 0
2, 16896, Note_on_c, 0, 70, 64
2, 17920, Note_on_c, 0, 70, 0
2, 17920, Note_on_c, 0, 74, 64
2, 18944, Note_on_c, 0, 74, 0
2, 18944, Note_on_c, 0, 67, 64
2, 19328, Note_on_c, 0, 67, 0
2, 19456, Note_on_c, 0, 70, 64
2, 20480, Note_on_c, 0, 70, 0
2, 20480, Note_on_c, 0, 64, 64
2, 20864, Note_on_c, 0, 64, 0
2, 20992, Note_on_c, 0, 72, 64
2, 22016, Note_on_c, 0, 72, 0
2, 22016, Note_on_c, 0, 65, 64
2, 22400, Note_on_c, 0, 65, 0
2, 22528, Note_on_c, 0, 69, 64
2, 23552, Note_on_c, 0, 69, 0
2, 23552, Note_on_c, 0, 62, 64
2, 23936, Note_on_c, 0, 62, 0
2, 24064, Note_on_c, 0, 70, 64
2, 25088, Note_on_c, 0, 70, 0
2, 25088, Note_on_c, 0, 64, 64
2, 25472, Note_on_c, 0, 64, 0
2, 25600, Note_on_c, 0, 67, 64
2, 26624, Note_on_c, 0, 67, 0
2, 26624, Note_on_c, 0, 60, 64
2, 27008, Note_on_c, 0, 60, 0
2, 27136, Note_on_c, 0, 70, 64
2, 27520, Note_on_c, 0, 70, 0
2, 27648, Note_on_c, 0, 69, 64
2, 28160, Note_on_c, 0, 69, 0
2, 28160, Note_on_c, 0, 67, 64
2, 28544, Note_on_c, 0, 67, 0
2, 28672, Note_on_c, 0, 69, 64
2, 29056, Note_on_c, 0, 69, 0
2, 29184, Note_on_c, 0, 65, 64
2, 29696, Note_on_c, 0, 65, 0
2, 29696, Note_on_c, 0, 69, 64
2, 30080, Note_on_c, 0, 69, 0
2, 30208, Note_on_c, 0, 72, 64
2, 30592, Note_on_c, 0, 72, 0
2, 30720, Note_on_c, 0, 77, 64
2, 31104, Note_on_c, 0, 77, 0
2, 31232, Note_on_c, 0, 70, 64
2, 31616, Note_on_c, 0, 70, 0
2, 31744, Note_on_c, 0, 74, 64
2, 32768, Note_on_c, 0, 74, 0
2, 32768, Note_on_c, 0, 67, 64
2, 33152, Note_on_c, 0, 67, 0
2, 33280, Note_on_c, 0, 75, 64
2, 34304, Note_on_c, 0, 75, 0
2, 34304, Note_on_c, 0, 69, 64
2, 34688, Note_on_c, 0, 69, 0
2, 34816, Note_on_c, 0, 72, 64
2, 35840, Note_on_c, 0, 72, 0
2, 35840, Note_on_c, 0, 65, 64
2, 36224, Note_on_c, 0, 65, 0
2, 36352, Note_on_c, 0, 74, 64
2, 37376, Note_on_c, 0, 74, 0
2, 37376, Note_on_c, 0, 65, 64
2, 37760, Note_on_c, 0, 65, 0
2, 37888, Note_on_c, 0, 70, 64
2, 38912, Note_on_c, 0, 70, 0
2, 38912, Note_on_c, 0, 62, 64
2, 39296, Note_on_c, 0, 62, 0
2, 39424, Note_on_c, 0, 65, 64
2, 40448, Note_on_c, 0, 65, 0
2, 40448, Note_on_c, 0, 58, 64
2, 40832, Note_on_c, 0, 58, 0
2, 40960, Note_on_c, 0, 62, 64
2, 41344, Note_on_c, 0, 62, 0
2, 41472, Note_on_c, 0, 65, 64
2, 41856, Note_on_c, 0, 65, 0
2, 41984, Note_on_c, 0, 62, 64
2, 42368, Note_on_c, 0, 62, 0
2, 42496, Note_on_c, 0, 65, 64
2, 42880, Note_on_c, 0, 65, 0
2, 43008, Note_on_c, 0, 70, 64
2, 43392, Note_on_c, 0, 70, 0
2, 43520, Note_on_c, 0, 65, 64
2, 43904, Note_on_c, 0, 65, 0
2, 44032, Note_on_c, 0, 67, 64
2, 45056, Note_on_c, 0, 67, 0
2, 45056, Note_on_c, 0, 65, 64
2, 45440, Note_on_c, 0, 65, 0
2, 45568, Note_on_c, 0, 70, 64
2, 46592, Note_on_c, 0, 70, 0
2, 46592, Note_on_c, 0, 65, 64
2, 46976, Note_on_c, 0, 65, 0
2, 47104, Note_on_c, 0, 67, 64
2, 48128, Note_on_c, 0, 67, 0
2, 48128, Note_on_c, 0, 65, 64
2, 48512, Note_on_c, 0, 65, 0
2, 48640, Note_on_c, 0, 70, 64
2, 49664, Note_on_c, 0, 70, 0
2, 49664, Note_on_c, 0, 67, 64
2, 50048, Note_on_c, 0, 67, 0
2, 50176, Note_on_c, 0, 75, 64
2, 51200, Note_on_c, 0, 75, 0
2, 51200, Note_on_c, 0, 69, 64
2, 51584, Note_on_c, 0, 69, 0
2, 51712, Note_on_c, 0, 77, 64
2, 52224, Note_on_c, 0, 77, 0
2, 52224, Note_on_c, 0, 74, 64
2, 52608, Note_on_c, 0, 74, 0
2, 52736, Note_on_c, 0, 70, 64
2, 53120, Note_on_c, 0, 70, 0
2, 53248, Note_on_c, 0, 69, 64
2, 53632, Note_on_c, 0, 69, 0
2, 53760, Note_on_c, 0, 70, 64
2, 54528, Note_on_c, 0, 70, 0
2, 54528, Note_on_c, 0, 65, 64
2, 54784, Note_on_c, 0, 65, 0
2, 54784, Note_on_c, 0, 67, 64
2, 55040, Note_on_c, 0, 67, 0
2, 55040, Note_on_c, 0, 69, 64
2, 55296, Note_on_c, 0, 69, 0
2, 55296, Note_on_c, 0, 70, 45
2, 55552, Note_on_c, 0, 70, 0
2, 55552, Note_on_c, 0, 69, 45
2, 55808, Note_on_c, 0, 69, 0
2, 55808, Note_on_c, 0, 70, 45
2, 56192, Note_on_c, 0, 70, 0
2, 57600, Note_on_c, 0, 65, 45
2, 57856, Note_on_c, 0, 65, 0
2, 57856, Note_on_c, 0, 67, 45
2, 58112, Note_on_c, 0, 67, 0
2, 58112, Note_on_c, 0, 69, 45
2, 58368, Note_on_c, 0, 69, 0
2, 58368, Note_on_c, 0, 70, 45
2, 58624, Note_on_c, 0, 70, 0
2, 58624, Note_on_c, 0, 69, 45
2, 58880, Note_on_c, 0, 69, 0
2, 58880, Note_on_c, 0, 70, 45
2, 59264, Note_on_c, 0, 70, 0
2, 60672, Note_on_c, 0, 67, 45
2, 60928, Note_on_c, 0, 67, 0
2, 60928, Note_on_c, 0, 69, 45
2, 61184, Note_on_c, 0, 69, 0
2, 61184, Note_on_c, 0, 70, 45
2, 61440, Note_on_c, 0, 70, 0
2, 61440, Note_on_c, 0, 72, 45
2, 61696, Note_on_c, 0, 72, 0
2, 61696, Note_on_c, 0, 70, 45
2, 61952, Note_on_c, 0, 70, 0
2, 61952, Note_on_c, 0, 72, 45
2, 62208, Note_on_c, 0, 72, 0
2, 62208, Note_on_c, 0, 70, 45
2, 62464, Note_on_c, 0, 70, 0
2, 62464, Note_on_c, 0, 69, 45
2, 62720, Note_on_c, 0, 69, 0
2, 62720, Note_on_c, 0, 67, 45
2, 62976, Note_on_c, 0, 67, 0
2, 62976, Note_on_c, 0, 65, 45
2, 63360, Note_on_c, 0, 65, 0
2, 63488, Note_on_c, 0, 69, 45
2, 63872, Note_on_c, 0, 69, 0
2, 64000, Note_on_c, 0, 72, 45
2, 64384, Note_on_c, 0, 72, 0
2, 64512, Note_on_c, 0, 74, 45
2, 64768, Note_on_c, 0, 74, 0
2, 64768, Note_on_c, 0, 72, 45
2, 65024, Note_on_c, 0, 72, 0
2, 65024, Note_on_c, 0, 74, 45
2, 65280, Note_on_c, 0, 74, 0
2, 65280, Note_on_c, 0, 75, 45
2, 65536, Note_on_c, 0, 75, 0
2, 65536, Note_on_c, 0, 74, 45
2, 65792, Note_on_c, 0, 74, 0
2, 65792, Note_on_c, 0, 72, 45
2, 66048, Note_on_c, 0, 72, 0
2, 66048, Note_on_c, 0, 70, 64
2, 66432, Note_on_c, 0, 70, 0
2, 66560, Note_on_c, 0, 65, 64
2, 66944, Note_on_c, 0, 65, 0
2, 67072, Note_on_c, 0, 74, 64
2, 68096, Note_on_c, 0, 74, 0
2, 68096, Note_on_c, 0, 67, 64
2, 68480, Note_on_c, 0, 67, 0
2, 68608, Note_on_c, 0, 70, 64
2, 69632, Note_on_c, 0, 70, 0
2, 69632, Note_on_c, 0, 64, 64
2, 70016, Note_on_c, 0, 64, 0
2, 70144, Note_on_c, 0, 72, 64
2, 71168, Note_on_c, 0, 72, 0
2, 71168, Note_on_c, 0, 65, 64
2, 71552, Note_on_c, 0, 65, 0
2, 71680, Note_on_c, 0, 69, 64
2, 72704, Note_on_c, 0, 69, 0
2, 72704, Note_on_c, 0, 62, 64
2, 73088, Note_on_c, 0, 62, 0
2, 73216, Note_on_c, 0, 70, 64
2, 74240, Note_on_c, 0, 70, 0
2, 74240, Note_on_c, 0, 64, 64
2, 74624, Note_on_c, 0, 64, 0
2, 74752, Note_on_c, 0, 67, 64
2, 75776, Note_on_c, 0, 67, 0
2, 75776, Note_on_c, 0, 60, 64
2, 76160, Note_on_c, 0, 60, 0
2, 76288, Note_on_c, 0, 70, 64
2, 76672, Note_on_c, 0, 70, 0
2, 76800, Note_on_c, 0, 69, 64
2, 77312, Note_on_c, 0, 69, 0
2, 77312, Note_on_c, 0, 67, 64
2, 77696, Note_on_c, 0, 67, 0
2, 77824, Note_on_c, 0, 69, 64
2, 78208, Note_on_c, 0, 69, 0
2, 78336, Note_on_c, 0, 65, 64
2, 78848, Note_on_c, 0, 65, 0
2, 78848, Note_on_c, 0, 57, 64
2, 79232, Note_on_c, 0, 57, 0
2, 79360, Note_on_c, 0, 60, 64
2, 79744, Note_on_c, 0, 60, 0
2, 79872, Note_on_c, 0, 65, 64
2, 80384, Note_on_c, 0, 65, 0
2, 80384, Note_on_c, 0, 64, 64
2, 80768, Note_on_c, 0, 64, 0
2, 80896, Note_on_c, 0, 65, 64
2, 81280, Note_on_c, 0, 65, 0
2, 81408, Note_on_c, 0, 57, 64
2, 81920, Note_on_c, 0, 57, 0
2, 81920, Note_on_c, 0, 60, 64
2, 82304, Note_on_c, 0, 60, 0
2, 82432, Note_on_c, 0, 65, 64
2, 82816, Note_on_c, 0, 65, 0
2, 82944, Note_on_c, 0, 65, 64
2, 83456, Note_on_c, 0, 65, 0
2, 83456, Note_on_c, 0, 64, 64
2, 83840, Note_on_c, 0, 64, 0
2, 83968, Note_on_c, 0, 65, 64
2, 84352, Note_on_c, 0, 65, 0
2, 84480, Note_on_c, 0, 57, 64
2, 84992, Note_on_c, 0, 57, 0
2, 84992, Note_on_c, 0, 60, 64
2, 85376, Note_on_c, 0, 60, 0
2, 85504, Note_on_c, 0, 65, 64
2, 85888, Note_on_c, 0, 65, 0
2, 86016, Note_on_c, 0, 67, 64
2, 86528, Note_on_c, 0, 67, 0
2, 86528, Note_on_c, 0, 65, 64
2, 86912, Note_on_c, 0, 65, 0
2, 87040, Note_on_c, 0, 67, 64
2, 87424, Note_on_c, 0, 67, 0
2, 87552, Note_on_c, 0, 60, 64
2, 88064, Note_on_c, 0, 60, 0
2, 88064, Note_on_c, 0, 64, 64
2, 88448, Note_on_c, 0, 64, 0
2, 88576, Note_on_c, 0, 67, 64
2, 88960, Note_on_c, 0, 67, 0
2, 89088, Note_on_c, 0, 69, 64
2, 89600, Note_on_c, 0, 69, 0
2, 89600, Note_on_c, 0, 67, 64
2, 89984, Note_on_c, 0, 67, 0
2, 90112, Note_on_c, 0, 69, 64
2, 90496, Note_on_c, 0, 69, 0
2, 90624, Note_on_c, 0, 65, 64
2, 91648, Note_on_c, 0, 65, 0
2, 92928, Note_on_c, 0, 60, 45
2, 93184, Note_on_c, 0, 60, 0
2, 93184, Note_on_c, 0, 62, 45
2, 93440, Note_on_c, 0, 62, 0
2, 93440, Note_on_c, 0, 64, 45
2, 93696, Note_on_c, 0, 64, 0
2, 93696, Note_on_c, 0, 65, 45
2, 93952, Note_on_c, 0, 65, 0
2, 93952, Note_on_c, 0, 64, 45
2, 94208, Note_on_c, 0, 64, 0
2, 94208, Note_on_c, 0, 65, 45
2, 94592, Note_on_c, 0, 65, 0
2, 96000, Note_on_c, 0, 60, 45
2, 96256, Note_on_c, 0, 60, 0
2, 96256, Note_on_c, 0, 62, 45
2, 96512, Note_on_c, 0, 62, 0
2, 96512, Note_on_c, 0, 64, 45
2, 96768, Note_on_c, 0, 64, 0
2, 96768, Note_on_c, 0, 65, 45
2, 97024, Note_on_c, 0, 65, 0
2, 97024, Note_on_c, 0, 64, 45
2, 97280, Note_on_c, 0, 64, 0
2, 97280, Note_on_c, 0, 65, 45
2, 97664, Note_on_c, 0, 65, 0
2, 99072, Note_on_c, 0, 62, 45
2, 99328, Note_on_c, 0, 62, 0
2, 99328, Note_on_c, 0, 64, 45
2, 99584, Note_on_c, 0, 64, 0
2, 99584, Note_on_c, 0, 65, 45
2, 99840, Note_on_c, 0, 65, 0
2, 99840, Note_on_c, 0, 67, 45
2, 100096, Note_on_c, 0, 67, 0
2, 100096, Note_on_c, 0, 65, 45
2, 100352, Note_on_c, 0, 65, 0
2, 100352, Note_on_c, 0, 67, 45
2, 100608, Note_on_c, 0, 67, 0
2, 100608, Note_on_c, 0, 65, 45
2, 100864, Note_on_c, 0, 65, 0
2, 100864, Note_on_c, 0, 64, 45
2, 101120, Note_on_c, 0, 64, 0
2, 101120, Note_on_c, 0, 62, 45
2, 101376, Note_on_c, 0, 62, 0
2, 101376, Note_on_c, 0, 60, 45
2, 101632, Note_on_c, 0, 60, 0
2, 101632, Note_on_c, 0, 58, 45
2, 101888, Note_on_c, 0, 58, 0
2, 101888, Note_on_c, 0, 60, 45
2, 102144, Note_on_c, 0, 60, 0
2, 102144, Note_on_c, 0, 62, 45
2, 102400, Note_on_c, 0, 62, 0
2, 102400, Note_on_c, 0, 60, 45
2, 102656, Note_on_c, 0, 60, 0
2, 102656, Note_on_c, 0, 58, 45
2, 102912, Note_on_c, 0, 58, 0
2, 102912, Note_on_c, 0, 57, 45
2, 103168, Note_on_c, 0, 57, 0
2, 103168, Note_on_c, 0, 55, 45
2, 103424, Note_on_c, 0, 55, 0
2, 103424, Note_on_c, 0, 57, 45
2, 103680, Note_on_c, 0, 57, 0
2, 103680, Note_on_c, 0, 58, 45
2, 103936, Note_on_c, 0, 58, 0
2, 103936, Note_on_c, 0, 60, 45
2, 104192, Note_on_c, 0, 60, 0
2, 104192, Note_on_c, 0, 57, 45
2, 104448, Note_on_c, 0, 57, 0
2, 104448, Note_on_c, 0, 62, 45
2, 104704, Note_on_c, 0, 62, 0
2, 104704, Note_on_c, 0, 64, 45
2, 104960, Note_on_c, 0, 64, 0
2, 104960, Note_on_c, 0, 65, 46
2, 105216, Note_on_c, 0, 65, 0
2, 105216, Note_on_c, 0, 64, 46
2, 105472, Note_on_c, 0, 64, 0
2, 105472, Note_on_c, 0, 62, 47
2, 105728, Note_on_c, 0, 62, 0
2, 105728, Note_on_c, 0, 60, 47
2, 105984, Note_on_c, 0, 60, 0
2, 105984, Note_on_c, 0, 59, 47
2, 106240, Note_on_c, 0, 59, 0
2, 106240, Note_on_c, 0, 57, 48
2, 106496, Note_on_c, 0, 57, 0
2, 106496, Note_on_c, 0, 55, 48
2, 106752, Note_on_c, 0, 55, 0
2, 106752, Note_on_c, 0, 57, 49
2, 107008, Note_on_c, 0, 57, 0
2, 107008, Note_on_c, 0, 59, 49
2, 107264, Note_on_c, 0, 59, 0
2, 107264, Note_on_c, 0, 55, 49
2, 107520, Note_on_c, 0, 55, 0
2, 107520, Note_on_c, 0, 60, 50
2, 107776, Note_on_c, 0, 60, 0
2, 107776, Note_on_c, 0, 62, 50
2, 108032, Note_on_c, 0, 62, 0
2, 108032, Note_on_c, 0, 64, 51
2, 108288, Note_on_c, 0, 64, 0
2, 108288, Note_on_c, 0, 62, 51
2, 108544, Note_on_c, 0, 62, 0
2, 108544, Note_on_c, 0, 60, 51
2, 108800, Note_on_c, 0, 60, 0
2, 108800, Note_on_c, 0, 59, 52
2, 109056, Note_on_c, 0, 59, 0
2, 109056, Note_on_c, 0, 57, 52
2, 109312, Note_on_c, 0, 57, 0
2, 109312, Note_on_c, 0, 55, 53
2, 109568, Note_on_c, 0, 55, 0
2, 109568, Note_on_c, 0, 53, 53
2, 109824, Note_on_c, 0, 53, 0
2, 109824, Note_on_c, 0, 55, 53
2, 110080, Note_on_c, 0, 55, 0
2, 110080, Note_on_c, 0, 57, 54
2, 110336, Note_on_c, 0, 57, 0
2, 110336, Note_on_c, 0, 53, 54
2, 110592, Note_on_c, 0, 53, 0
2, 110592, Note_on_c, 0, 59, 55
2, 110848, Note_on_c, 0, 59, 0
2, 110848, Note_on_c, 0, 60, 55
2, 111104, Note_on_c, 0, 60, 0
2, 111104, Note_on_c, 0, 62, 55
2, 111360, Note_on_c, 0, 62, 0
2, 111360, Note_on_c, 0, 60, 56
2, 111616, Note_on_c, 0, 60, 0
2, 111616, Note_on_c, 0, 59, 56
2, 111872, Note_on_c, 0, 59, 0
2, 111872, Note_on_c, 0, 57, 56
2, 112128, Note_on_c, 0, 57, 0
2, 112128, Note_on_c, 0, 55, 57
2, 112384, Note_on_c, 0, 55, 0
2, 112384, Note_on_c, 0, 57, 57
2, 112640, Note_on_c, 0, 57, 0
2, 112640, Note_on_c, 0, 59, 58
2, 112896, Note_on_c, 0, 59, 0
2, 112896, Note_on_c, 0, 57, 58
2, 113152, Note_on_c, 0, 57, 0
2, 113152, Note_on_c, 0, 55, 58
2, 113408, Note_on_c, 0, 55, 0
2, 113408, Note_on_c, 0, 53, 59
2, 113664, Note_on_c, 0, 53, 0
2, 113664, Note_on_c, 0, 55, 59
2, 113920, Note_on_c, 0, 55, 0
2, 113920, Note_on_c, 0, 60, 60
2, 114176, Note_on_c, 0, 60, 0
2, 114176, Note_on_c, 0, 59, 60
2, 114432, Note_on_c, 0, 59, 0
2, 114432, Note_on_c, 0, 57, 60
2, 114688, Note_on_c, 0, 57, 0
2, 114688, Note_on_c, 0, 55, 61
2, 114944, Note_on_c, 0, 55, 0
2, 114944, Note_on_c, 0, 53, 61
2, 115200, Note_on_c, 0, 53, 0
2, 115200, Note_on_c, 0, 52, 62
2, 115456, Note_on_c, 0, 52, 0
2, 115456, Note_on_c, 0, 53, 62
2, 115712, Note_on_c, 0, 53, 0
2, 115712, Note_on_c, 0, 55, 62
2, 115968, Note_on_c, 0, 55, 0
2, 115968, Note_on_c, 0, 53, 63
2, 116224, Note_on_c, 0, 53, 0
2, 116224, Note_on_c, 0, 52, 63
2, 116480, Note_on_c, 0, 52, 0
2, 116480, Note_on_c, 0, 50, 64
2, 116736, Note_on_c, 0, 50, 0
2, 116736, Note_on_c, 0, 48, 64
2, 117120, Note_on_c, 0, 48, 0
2, 117248, Note_on_c, 0, 60, 64
2, 117632, Note_on_c, 0, 60, 0
2, 117760, Note_on_c, 0, 69, 64
2, 118784, Note_on_c, 0, 69, 0
2, 118784, Note_on_c, 0, 62, 64
2, 119168, Note_on_c, 0, 62, 0
2, 119296, Note_on_c, 0, 70, 64
2, 120320, Note_on_c, 0, 70, 0
2, 120320, Note_on_c, 0, 64, 64
2, 120704, Note_on_c, 0, 64, 0
2, 120832, Note_on_c, 0, 67, 64
2, 121856, Note_on_c, 0, 67, 0
2, 121856, Note_on_c, 0, 60, 64
2, 122240, Note_on_c, 0, 60, 0
2, 122368, Note_on_c, 0, 69, 64
2, 123392, Note_on_c, 0, 69, 0
2, 123392, Note_on_c, 0, 60, 64
2, 123776, Note_on_c, 0, 60, 0
2, 123904, Note_on_c, 0, 65, 64
2, 124928, Note_on_c, 0, 65, 0
2, 124928, Note_on_c, 0, 57, 64
2, 125312, Note_on_c, 0, 57, 0
2, 125440, Note_on_c, 0, 60, 64
2, 126464, Note_on_c, 0, 60, 0
2, 126464, Note_on_c, 0, 53, 64
2, 126848, Note_on_c, 0, 53, 0
2, 126976, Note_on_c, 0, 57, 64
2, 127360, Note_on_c, 0, 57, 0
2, 127488, Note_on_c, 0, 60, 64
2, 127872, Note_on_c, 0, 60, 0
2, 128000, Note_on_c, 0, 57, 64
2, 128384, Note_on_c, 0, 57, 0
2, 128512, Note_on_c, 0, 60, 64
2, 128896, Note_on_c, 0, 60, 0
2, 129024, Note_on_c, 0, 65, 50
2, 129408, Note_on_c, 0, 65, 0
2, 129536, Note_on_c, 0, 60, 51
2, 129920, Note_on_c, 0, 60, 0
2, 130048, Note_on_c, 0, 62, 52
2, 131072, Note_on_c, 0, 62, 0
2, 131072, Note_on_c, 0, 60, 55
2, 131328, Note_on_c, 0, 60, 0
2, 131328, Note_on_c, 0, 58, 55
2, 131584, Note_on_c, 0, 58, 0
2, 131584, Note_on_c, 0, 57, 56
2, 131840, Note_on_c, 0, 57, 0
2, 131840, Note_on_c, 0, 55, 56
2, 132096, Note_on_c, 0, 55, 0
2, 132096, Note_on_c, 0, 57, 57
2, 132352, Note_on_c, 0, 57, 0
2, 132352, Note_on_c, 0, 58, 58
2, 132608, Note_on_c, 0, 58, 0
2, 132608, Note_on_c, 0, 60, 58
2, 132864, Note_on_c, 0, 60, 0
2, 132864, Note_on_c, 0, 58, 59
2, 133120, Note_on_c, 0, 58, 0
2, 133120, Note_on_c, 0, 57, 59
2, 133376, Note_on_c, 0, 57, 0
2, 133376, Note_on_c, 0, 55, 60
2, 133632, Note_on_c, 0, 55, 0
2, 133632, Note_on_c, 0, 53, 61
2, 133888, Note_on_c, 0, 53, 0
2, 133888, Note_on_c, 0, 55, 61
2, 134144, Note_on_c, 0, 55, 0
2, 134144, Note_on_c, 0, 57, 62
2, 134400, Note_on_c, 0, 57, 0
2, 134400, Note_on_c, 0, 55, 62
2, 134656, Note_on_c, 0, 55, 0
2, 134656, Note_on_c, 0, 53, 63
2, 134912, Note_on_c, 0, 53, 0
2, 134912, Note_on_c, 0, 52, 63
2, 135168, Note_on_c, 0, 52, 0
2, 135168, Note_on_c, 0, 50, 64
2, 135680, Note_on_c, 0, 50, 0
2, 135680, Note_on_c, 0, 62, 64
2, 136064, Note_on_c, 0, 62, 0
2, 136192, Note_on_c, 0, 70, 64
2, 137216, Note_on_c, 0, 70, 0
2, 137216, Note_on_c, 0, 64, 64
2, 137600, Note_on_c, 0, 64, 0
2, 137728, Note_on_c, 0, 72, 64
2, 138240, Note_on_c, 0, 72, 0
2, 138240, Note_on_c, 0, 69, 64
2, 138624, Note_on_c, 0, 69, 0
2, 138752, Note_on_c, 0, 65, 64
2, 139136, Note_on_c, 0, 65, 0
2, 139264, Note_on_c, 0, 64, 64
2, 139392, Note_on_c, 0, 64, 0
2, 139392, Note_on_c, 0, 65, 64
2, 139520, Note_on_c, 0, 65, 0
2, 139520, Note_on_c, 0, 64, 64
2, 139712, Note_on_c, 0, 64, 0
2, 139776, Note_on_c, 0, 65, 64
2, 140800, Note_on_c, 0, 65, 0
2, 142336, Note_on_c, 0, 69, 64
2, 142720, Note_on_c, 0, 69, 0
2, 142848, Note_on_c, 0, 74, 64
2, 144896, Note_on_c, 0, 74, 0
2, 144896, Note_on_c, 0, 67, 64
2, 145280, Note_on_c, 0, 67, 0
2, 145408, Note_on_c, 0, 71, 64
2, 145792, Note_on_c, 0, 71, 0
2, 145920, Note_on_c, 0, 72, 64
2, 146304, Note_on_c, 0, 72, 0
2, 146432, Note_on_c, 0, 60, 64
2, 146816, Note_on_c, 0, 60, 0
2, 148480, Note_on_c, 0, 67, 64
2, 148864, Note_on_c, 0, 67, 0
2, 148992, Note_on_c, 0, 72, 64
2, 151040, Note_on_c, 0, 72, 0
2, 151040, Note_on_c, 0, 65, 64
2, 151424, Note_on_c, 0, 65, 0
2, 151552, Note_on_c, 0, 69, 64
2, 151936, Note_on_c, 0, 69, 0
2, 152064, Note_on_c, 0, 70, 64
2, 152448, Note_on_c, 0, 70, 0
2, 152576, Note_on_c, 0, 58, 64
2, 152960, Note_on_c, 0, 58, 0
2, 154624, Note_on_c, 0, 70, 64
2, 155008, Note_on_c, 0, 70, 0
2, 155136, Note_on_c, 0, 75, 64
2, 157184, Note_on_c, 0, 75, 0
2, 157184, Note_on_c, 0, 69, 64
2, 157568, Note_on_c, 0, 69, 0
2, 157696, Note_on_c, 0, 72, 64
2, 158080, Note_on_c, 0, 72, 0
2, 158208, Note_on_c, 0, 74, 64
2, 160256, Note_on_c, 0, 74, 0
2, 160256, Note_on_c, 0, 67, 64
2, 160640, Note_on_c, 0, 67, 0
2, 160768, Note_on_c, 0, 70, 64
2, 161152, Note_on_c, 0, 70, 0
2, 161280, Note_on_c, 0, 72, 64
2, 163328, Note_on_c, 0, 72, 0
2, 163328, Note_on_c, 0, 65, 64
2, 163712, Note_on_c, 0, 65, 0
2, 163840, Note_on_c, 0, 70, 64
2, 164864, Note_on_c, 0, 70, 0
2, 164864, Note_on_c, 0, 69, 64
2, 165248, Note_on_c, 0, 69, 0
2, 165376, Note_on_c, 0, 77, 64
2, 166400, Note_on_c, 0, 77, 0
2, 166400, Note_on_c, 0, 72, 64
2, 166784, Note_on_c, 0, 72, 0
2, 166912, Note_on_c, 0, 74, 64
2, 167424, Note_on_c, 0, 74, 0
2, 167424, Note_on_c, 0, 74, 64
2, 167936, Note_on_c, 0, 74, 0
2, 167936, Note_on_c, 0, 72, 64
2, 168320, Note_on_c, 0, 72, 0
2, 168448, Note_on_c, 0, 77, 64
2, 169472, Note_on_c, 0, 77, 0
2, 169472, Note_on_c, 0, 72, 64
2, 169856, Note_on_c, 0, 72, 0
2, 169984, Note_on_c, 0, 74, 64
2, 171008, Note_on_c, 0, 74, 0
2, 171008, Note_on_c, 0, 72, 64
2, 171392, Note_on_c, 0, 72, 0
2, 171520, Note_on_c, 0, 75, 64
2, 172544, Note_on_c, 0, 75, 0
2, 172544, Note_on_c, 0, 69, 64
2, 172928, Note_on_c, 0, 69, 0
2, 173056, Note_on_c, 0, 72, 64
2, 174080, Note_on_c, 0, 72, 0
2, 174080, Note_on_c, 0, 65, 64
2, 174464, Note_on_c, 0, 65, 0
2, 174592, Note_on_c, 0, 69, 64
2, 175616, Note_on_c, 0, 69, 0
2, 175616, Note_on_c, 0, 72, 64
2, 176000, Note_on_c, 0, 72, 0
2, 176128, Note_on_c, 0, 75, 64
2, 177152, Note_on_c, 0, 75, 0
2, 177152, Note_on_c, 0, 74, 64
2, 177536, Note_on_c, 0, 74, 0
2, 177664, Note_on_c, 0, 58, 64
2, 178048, Note_on_c, 0, 58, 0
2, 178176, Note_on_c, 0, 65, 55
2, 178432, Note_on_c, 0, 65, 0
2, 178432, Note_on_c, 0, 67, 55
2, 178688, Note_on_c, 0, 67, 0
2, 178688, Note_on_c, 0, 68, 55
2, 178944, Note_on_c, 0, 68, 0
2, 178944, Note_on_c, 0, 67, 55
2, 179200, Note_on_c, 0, 67, 0
2, 179200, Note_on_c, 0, 65, 55
2, 179456, Note_on_c, 0, 65, 0
2, 179456, Note_on_c, 0, 63, 55
2, 179712, Note_on_c, 0, 63, 0
2, 179712, Note_on_c, 0, 62, 55
2, 179968, Note_on_c, 0, 62, 0
2, 179968, Note_on_c, 0, 63, 55
2, 180224, Note_on_c, 0, 63, 0
2, 180224, Note_on_c, 0, 65, 55
2, 180480, Note_on_c, 0, 65, 0
2, 180480, Note_on_c, 0, 63, 55
2, 180736, Note_on_c, 0, 63, 0
2, 180736, Note_on_c, 0, 62, 55
2, 180992, Note_on_c, 0, 62, 0
2, 180992, Note_on_c, 0, 60, 55
2, 181248, Note_on_c, 0, 60, 0
2, 181248, Note_on_c, 0, 58, 55
2, 181504, Note_on_c, 0, 58, 0
2, 181504, Note_on_c, 0, 60, 55
2, 181760, Note_on_c, 0, 60, 0
2, 181760, Note_on_c, 0, 62, 55
2, 182016, Note_on_c, 0, 62, 0
2, 182016, Note_on_c, 0, 63, 55
2, 182272, Note_on_c, 0, 63, 0
2, 182272, Note_on_c, 0, 65, 55
2, 182528, Note_on_c, 0, 65, 0
2, 182528, Note_on_c, 0, 62, 55
2, 182784, Note_on_c, 0, 62, 0
2, 182784, Note_on_c, 0, 63, 55
2, 183168, Note_on_c, 0, 63, 0
2, 183296, Note_on_c, 0, 51, 55
2, 183680, Note_on_c, 0, 51, 0
2, 183808, Note_on_c, 0, 67, 55
2, 184832, Note_on_c, 0, 67, 0
2, 184832, Note_on_c, 0, 60, 64
2, 185216, Note_on_c, 0, 60, 0
2, 185344, Note_on_c, 0, 70, 64
2, 186368, Note_on_c, 0, 70, 0
2, 186368, Note_on_c, 0, 69, 64
2, 186752, Note_on_c, 0, 69, 0
2, 189952, Note_on_c, 0, 74, 64
2, 190976, Note_on_c, 0, 74, 0
2, 190976, Note_on_c, 0, 72, 66
2, 191360, Note_on_c, 0, 72, 0
2, 191488, Note_on_c, 0, 75, 68
2, 192512, Note_on_c, 0, 75, 0
2, 192512, Note_on_c, 0, 74, 71
2, 192896, Note_on_c, 0, 74, 0
2, 193024, Note_on_c, 0, 77, 73
2, 194048, Note_on_c, 0, 77, 0
2, 194048, Note_on_c, 0, 75, 75
2, 194304, Note_on_c, 0, 75, 0
2, 194304, Note_on_c, 0, 74, 72
2, 194560, Note_on_c, 0, 74, 0
2, 194560, Note_on_c, 0, 72, 69
2, 194816, Note_on_c, 0, 72, 0
2, 194816, Note_on_c, 0, 70, 67
2, 195072, Note_on_c, 0, 70, 0
2, 195072, Note_on_c, 0, 69, 64
2, 195328, Note_on_c, 0, 69, 0
2, 195328, Note_on_c, 0, 67, 61
2, 195584, Note_on_c, 0, 67, 0
2, 195584, Note_on_c, 0, 65, 58
2, 195840, Note_on_c, 0, 65, 0
2, 195840, Note_on_c, 0, 63, 56
2, 196096, Note_on_c, 0, 63, 0
2, 196096, Note_on_c, 0, 62, 53
2, 196352, Note_on_c, 0, 62, 0
2, 196352, Note_on_c, 0, 60, 50
2, 196608, Note_on_c, 0, 60, 0
2, 196608, Note_on_c, 0, 58, 50
2, 196864, Note_on_c, 0, 58, 0
2, 196864, Note_on_c, 0, 57, 50
2, 197120, Note_on_c, 0, 57, 0
2, 197120, Note_on_c, 0, 58, 51
2, 197504, Note_on_c, 0, 58, 0
2, 198912, Note_on_c, 0, 53, 53
2, 199168, Note_on_c, 0, 53, 0
2, 199168, Note_on_c, 0, 55, 53
2, 199424, Note_on_c, 0, 55, 0
2, 199424, Note_on_c, 0, 57, 53
2, 199680, Note_on_c, 0, 57, 0
2, 199680, Note_on_c, 0, 58, 54
2, 199936, Note_on_c, 0, 58, 0
2, 199936, Note_on_c, 0, 57, 54
2, 200192, Note_on_c, 0, 57, 0
2, 200192, Note_on_c, 0, 58, 54
2, 200576, Note_on_c, 0, 58, 0
2, 201984, Note_on_c, 0, 55, 56
2, 202240, Note_on_c, 0, 55, 0
2, 202240, Note_on_c, 0, 57, 56
2, 202496, Note_on_c, 0, 57, 0
2, 202496, Note_on_c, 0, 58, 57
2, 202752, Note_on_c, 0, 58, 0
2, 202752, Note_on_c, 0, 60, 57
2, 203008, Note_on_c, 0, 60, 0
2, 203008, Note_on_c, 0, 58, 57
2, 203264, Note_on_c, 0, 58, 0
2, 203264, Note_on_c, 0, 60, 58
2, 203520, Note_on_c, 0, 60, 0
2, 203520, Note_on_c, 0, 58, 58
2, 203776, Note_on_c, 0, 58, 0
2, 203776, Note_on_c, 0, 57, 58
2, 204032, Note_on_c, 0, 57, 0
2, 204032, Note_on_c, 0, 55, 58
2, 204288, Note_on_c, 0, 55, 0
2, 204288, Note_on_c, 0, 53, 59
2, 204672, Note_on_c, 0, 53, 0
2, 204800, Note_on_c, 0, 57, 59
2, 205184, Note_on_c, 0, 57, 0
2, 205312, Note_on_c, 0, 60, 60
2, 205696, Note_on_c, 0, 60, 0
2, 205824, Note_on_c, 0, 62, 61
2, 206080, Note_on_c, 0, 62, 0
2, 206080, Note_on_c, 0, 60, 61
2, 206336, Note_on_c, 0, 60, 0
2, 206336, Note_on_c, 0, 62, 61
2, 206592, Note_on_c, 0, 62, 0
2, 206592, Note_on_c, 0, 63, 61
2, 206848, Note_on_c, 0, 63, 0
2, 206848, Note_on_c, 0, 62, 62
2, 207104, Note_on_c, 0, 62, 0
2, 207104, Note_on_c, 0, 60, 62
2, 207360, Note_on_c, 0, 60, 0
2, 207360, Note_on_c, 0, 58, 62
2, 207616, Note_on_c, 0, 58, 0
2, 207616, Note_on_c, 0, 62, 63
2, 207872, Note_on_c, 0, 62, 0
2, 207872, Note_on_c, 0, 65, 63
2, 208128, Note_on_c, 0, 65, 0
2, 208128, Note_on_c, 0, 70, 63
2, 208384, Note_on_c, 0, 70, 0
2, 208384, Note_on_c, 0, 74, 63
2, 208640, Note_on_c, 0, 74, 0
2, 208640, Note_on_c, 0, 75, 64
2, 208896, Note_on_c, 0, 75, 0
2, 208896, Note_on_c, 0, 77, 64
2, 209280, Note_on_c, 0, 77, 0
2, 209408, Note_on_c, 0, 70, 64
2, 209792, Note_on_c, 0, 70, 0
2, 209920, Note_on_c, 0, 74, 64
2, 210944, Note_on_c, 0, 74, 0
2, 210944, Note_on_c, 0, 67, 64
2, 211328, Note_on_c, 0, 67, 0
2, 211456, Note_on_c, 0, 75, 64
2, 212480, Note_on_c, 0, 75, 0
2, 212480, Note_on_c, 0, 69, 64
2, 212864, Note_on_c, 0, 69, 0
2, 212992, Note_on_c, 0, 72, 64
2, 214016, Note_on_c, 0, 72, 0
2, 214016, Note_on_c, 0, 65, 64
2, 214400, Note_on_c, 0, 65, 0
2, 214528, Note_on_c, 0, 74, 64
2, 215296, Note_on_c, 0, 74, 0
2, 215296, Note_on_c, 0, 70, 55
2, 215552, Note_on_c, 0, 70, 0
2, 215552, Note_on_c, 0, 69, 55
2, 215808, Note_on_c, 0, 69, 0
2, 215808, Note_on_c, 0, 67, 55
2, 216064, Note_on_c, 0, 67, 0
2, 216064, Note_on_c, 0, 65, 55
2, 216320, Note_on_c, 0, 65, 0
2, 216320, Note_on_c, 0, 63, 55
2, 216576, Note_on_c, 0, 63, 0
2, 216576, Note_on_c, 0, 62, 55
2, 216832, Note_on_c, 0, 62, 0
2, 216832, Note_on_c, 0, 67, 55
2, 217088, Note_on_c, 0, 67, 0
2, 217088, Note_on_c, 0, 65, 55
2, 217344, Note_on_c, 0, 65, 0
2, 217344, Note_on_c, 0, 63, 55
2, 217600, Note_on_c, 0, 63, 0
2, 217600, Note_on_c, 0, 62, 55
2, 217856, Note_on_c, 0, 62, 0
2, 217856, Note_on_c, 0, 60, 55
2, 218112, Note_on_c, 0, 60, 0
2, 218112, Note_on_c, 0, 58, 55
2, 218368, Note_on_c, 0, 58, 0
2, 218368, Note_on_c, 0, 53, 55
2, 218624, Note_on_c, 0, 53, 0
2, 218624, Note_on_c, 0, 55, 55
2, 218880, Note_on_c, 0, 55, 0
2, 218880, Note_on_c, 0, 57, 55
2, 219136, Note_on_c, 0, 57, 0
2, 219136, Note_on_c, 0, 58, 55
2, 219392, Note_on_c, 0, 58, 0
2, 219392, Note_on_c, 0, 60, 55
2, 219648, Note_on_c, 0, 60, 0
2, 219648, Note_on_c, 0, 62, 55
2, 219904, Note_on_c, 0, 62, 0
2, 219904, Note_on_c, 0, 60, 55
2, 220160, Note_on_c, 0, 60, 0
2, 220160, Note_on_c, 0, 58, 55
2, 220416, Note_on_c, 0, 58, 0
2, 220416, Note_on_c, 0, 60, 55
2, 220672, Note_on_c, 0, 60, 0
2, 220672, Note_on_c, 0, 62, 55
2, 220928, Note_on_c, 0, 62, 0
2, 220928, Note_on_c, 0, 63, 55
2, 221184, Note_on_c, 0, 63, 0
2, 221184, Note_on_c, 0, 65, 64
2, 221568, Note_on_c, 0, 65, 0
2, 221696, Note_on_c, 0, 58, 64
2, 222080, Note_on_c, 0, 58, 0
2, 222208, Note_on_c, 0, 67, 64
2, 223232, Note_on_c, 0, 67, 0
2, 223232, Note_on_c, 0, 65, 64
2, 223616, Note_on_c, 0, 65, 0
2, 223744, Note_on_c, 0, 70, 64
2, 224768, Note_on_c, 0, 70, 0
2, 224768, Note_on_c, 0, 65, 64
2, 225152, Note_on_c, 0, 65, 0
2, 225280, Note_on_c, 0, 67, 64
2, 226304, Note_on_c, 0, 67, 0
2, 226304, Note_on_c, 0, 65, 64
2, 226688, Note_on_c, 0, 65, 0
2, 226816, Note_on_c, 0, 70, 64
2, 227840, Note_on_c, 0, 70, 0
2, 227840, Note_on_c, 0, 67, 64
2, 228224, Note_on_c, 0, 67, 0
2, 228352, Note_on_c, 0, 75, 64
2, 229376, Note_on_c, 0, 75, 0
2, 229376, Note_on_c, 0, 69, 64
2, 229760, Note_on_c, 0, 69, 0
2, 229888, Note_on_c, 0, 77, 64
2, 230400, Note_on_c, 0, 77, 0
2, 230400, Note_on_c, 0, 74, 64
2, 230784, Note_on_c, 0, 74, 0
2, 230912, Note_on_c, 0, 70, 64
2, 231296, Note_on_c, 0, 70, 0
2, 231424, Note_on_c, 0, 69, 64
2, 231808, Note_on_c, 0, 69, 0
2, 231936, Note_on_c, 0, 70, 64
2, 232192, Note_on_c, 0, 70, 0
2, 232192, Note_on_c, 0, 65, 64
2, 232448, Note_on_c, 0, 65, 0
2, 232448, Note_on_c, 0, 62, 64
2, 232704, Note_on_c, 0, 62, 0
2, 232704, Note_on_c, 0, 58, 64
2, 232960, Note_on_c, 0, 58, 0
2, 232960, Note_on_c, 0, 62, 64
2, 233216, Note_on_c, 0, 62, 0
2, 233216, Note_on_c, 0, 65, 64
2, 233472, Note_on_c, 0, 65, 0
2, 233472, Note_on_c, 0, 70, 64
2, 233984, Note_on_c, 0, 70, 0
2, 233984, Note_on_c, 0, 69, 64
2, 234368, Note_on_c, 0, 69, 0
2, 234496, Note_on_c, 0, 70, 64
2, 234880, Note_on_c, 0, 70, 0
2, 235008, Note_on_c, 0, 62, 64
2, 235520, Note_on_c, 0, 62, 0
2, 235520, Note_on_c, 0, 65, 64
2, 235904, Note_on_c, 0, 65, 0
2, 236032, Note_on_c, 0, 70, 64
2, 236416, Note_on_c, 0, 70, 0
2, 236544, Note_on_c, 0, 70, 64
2, 237056, Note_on_c, 0, 70, 0
2, 237056, Note_on_c, 0, 69, 64
2, 237440, Note_on_c, 0, 69, 0
2, 237568, Note_on_c, 0, 70, 64
2, 237952, Note_on_c, 0, 70, 0
2, 238080, Note_on_c, 0, 62, 64
2, 238592, Note_on_c, 0, 62, 0
2, 238592, Note_on_c, 0, 65, 64
2, 238976, Note_on_c, 0, 65, 0
2, 239104, Note_on_c, 0, 70, 64
2, 239488, Note_on_c, 0, 70, 0
2, 239616, Note_on_c, 0, 72, 64
2, 240128, Note_on_c, 0, 72, 0
2, 240128, Note_on_c, 0, 70, 64
2, 240512, Note_on_c, 0, 70, 0
2, 240640, Note_on_c, 0, 72, 64
2, 241024, Note_on_c, 0, 72, 0
2, 241152, Note_on_c, 0, 65, 64
2, 241664, Note_on_c, 0, 65, 0
2, 241664, Note_on_c, 0, 69, 64
2, 242048, Note_on_c, 0, 69, 0
2, 242176, Note_on_c, 0, 72, 64
2, 242560, Note_on_c, 0, 72, 0
2, 242688, Note_on_c, 0, 74, 64
2, 243200, Note_on_c, 0, 74, 0
2, 243200, Note_on_c, 0, 72, 64
2, 243584, Note_on_c, 0, 72, 0
2, 243712, Note_on_c, 0, 74, 64
2, 244096, Note_on_c, 0, 74, 0
2, 244224, Note_on_c, 0, 70, 64
2, 245248, Note_on_c, 0, 70, 0
2, 245248, Note_on_c, 0, 74, 64
2, 246272, Note_on_c, 0, 74, 0
2, 246272, Note_on_c, 0, 67, 64
2, 246656, Note_on_c, 0, 67, 0
2, 246784, Note_on_c, 0, 70, 64
2, 247808, Note_on_c, 0, 70, 0
2, 247808, Note_on_c, 0, 64, 64
2, 248192, Note_on_c, 0, 64, 0
2, 248320, Note_on_c, 0, 72, 64
2, 249344, Note_on_c, 0, 72, 0
2, 249344, Note_on_c, 0, 65, 64
2, 249728, Note_on_c, 0, 65, 0
2, 249856, Note_on_c, 0, 69, 64
2, 250880, Note_on_c, 0, 69, 0
2, 250880, Note_on_c, 0, 62, 64
2, 251264, Note_on_c, 0, 62, 0
2, 251392, Note_on_c, 0, 70, 64
2, 252416, Note_on_c, 0, 70, 0
2, 252416, Note_on_c, 0, 64, 64
2, 252800, Note_on_c, 0, 64, 0
2, 252928, Note_on_c, 0, 67, 64
2, 253952, Note_on_c, 0, 67, 0
2, 253952, Note_on_c, 0, 60, 64
2, 254336, Note_on_c, 0, 60, 0
2, 254464, Note_on_c, 0, 70, 64
2, 254848, Note_on_c, 0, 70, 0
2, 254976, Note_on_c, 0, 69, 64
2, 255488, Note_on_c, 0, 69, 0
2, 255488, Note_on_c, 0, 67, 64
2, 255872, Note_on_c, 0, 67, 0
2, 256000, Note_on_c, 0, 69, 64
2, 256384, Note_on_c, 0, 69, 0
2, 256512, Note_on_c, 0, 65, 64
2, 257024, Note_on_c, 0, 65, 0
2, 257024, Note_on_c, 0, 69, 64
2, 257408, Note_on_c, 0, 69, 0
2, 257536, Note_on_c, 0, 72, 64
2, 257920, Note_on_c, 0, 72, 0
2, 258048, Note_on_c, 0, 77, 64
2, 258432, Note_on_c, 0, 77, 0
2, 258560, Note_on_c, 0, 70, 64
2, 258944, Note_on_c, 0, 70, 0
2, 259072, Note_on_c, 0, 74, 64
2, 260096, Note_on_c, 0, 74, 0
2, 260096, Note_on_c, 0, 67, 64
2, 260480, Note_on_c, 0, 67, 0
2, 260608, Note_on_c, 0, 75, 64
2, 261632, Note_on_c, 0, 75, 0
2, 261632, Note_on_c, 0, 69, 64
2, 262016, Note_on_c, 0, 69, 0
2, 262144, Note_on_c, 0, 72, 64
2, 263168, Note_on_c, 0, 72, 0
2, 263168, Note_on_c, 0, 65, 64
2, 263552, Note_on_c, 0, 65, 0
2, 263680, Note_on_c, 0, 74, 64
2, 264704, Note_on_c, 0, 74, 0
2, 264704, Note_on_c, 0, 65, 64
2, 265088, Note_on_c, 0, 65, 0
2, 265216, Note_on_c, 0, 70, 64
2, 266240, Note_on_c, 0, 70, 0
2, 266240, Note_on_c, 0, 62, 64
2, 266624, Note_on_c, 0, 62, 0
2, 266752, Note_on_c, 0, 65, 64
2, 267776, Note_on_c, 0, 65, 0
2, 267776, Note_on_c, 0, 58, 64
2, 268160, Note_on_c, 0, 58, 0
2, 268288, Note_on_c, 0, 62, 64
2, 268672, Note_on_c, 0, 62, 0
2, 268800, Note_on_c, 0, 65, 64
2, 269184, Note_on_c, 0, 65, 0
2, 269312, Note_on_c, 0, 62, 64
2, 269696, Note_on_c, 0, 62, 0
2, 269824, Note_on_c, 0, 65, 64
2, 270208, Note_on_c, 0, 65, 0
2, 270336, Note_on_c, 0, 70, 64
2, 270720, Note_on_c, 0, 70, 0
2, 270848, Note_on_c, 0, 65, 64
2, 271232, Note_on_c, 0, 65, 0
2, 271360, Note_on_c, 0, 67, 64
2, 272384, Note_on_c, 0, 67, 0
2, 272384, Note_on_c, 0, 65, 64
2, 272768, Note_on_c, 0, 65, 0
2, 272896, Note_on_c, 0, 70, 64
2, 273920, Note_on_c, 0, 70, 0
2, 273920, Note_on_c, 0, 65, 64
2, 274304, Note_on_c, 0, 65, 0
2, 274432, Note_on_c, 0, 67, 64
2, 275456, Note_on_c, 0, 67, 0
2, 275456, Note_on_c, 0, 65, 64
2, 275840, Note_on_c, 0, 65, 0
2, 275968, Note_on_c, 0, 70, 64
2, 276992, Note_on_c, 0, 70, 0
2, 276992, Note_on_c, 0, 67, 64
2, 277376, Note_on_c, 0, 67, 0
2, 277504, Note_on_c, 0, 75, 64
2, 278528, Note_on_c, 0, 75, 0
2, 278528, Note_on_c, 0, 69, 64
2, 278912, Note_on_c, 0, 69, 0
2, 279040, Note_on_c, 0, 77, 64
2, 279552, Note_on_c, 0, 77, 0
2, 279552, Note_on_c, 0, 74, 64
2, 279936, Note_on_c, 0, 74, 0
2, 280064, Note_on_c, 0, 70, 64
2, 280448, Note_on_c, 0, 70, 0
2, 280576, Note_on_c, 0, 69, 64
2, 280704, Note_on_c, 0, 69, 0
2, 280704, Note_on_c, 0, 67, 64
2, 280832, Note_on_c, 0, 67, 0
2, 280832, Note_on_c, 0, 69, 64
2, 281024, Note_on_c, 0, 69, 0
2, 281088, Note_on_c, 0, 70, 64
2, 281856, Note_on_c, 0, 70, 0
2, 281856, Note_on_c, 0, 74, 70
2, 282112, Note_on_c, 0, 74, 0
2, 282112, Note_on_c, 0, 72, 70
2, 282368, Note_on_c, 0, 72, 0
2, 282368, Note_on_c, 0, 74, 70
2, 282624, Note_on_c, 0, 74, 0
2, 282624, Note_on_c, 0, 70, 70
2, 282880, Note_on_c, 0, 70, 0
2, 282880, Note_on_c, 0, 74, 70
2, 283136, Note_on_c, 0, 74, 0
2, 283136, Note_on_c, 0, 69, 70
2, 283392, Note_on_c, 0, 69, 0
2, 283392, Note_on_c, 0, 74, 70
2, 283648, Note_on_c, 0, 74, 0
2, 283648, Note_on_c, 0, 67, 70
2, 283904, Note_on_c, 0, 67, 0
2, 283904, Note_on_c, 0, 74, 70
2, 284160, Note_on_c, 0, 74, 0
2, 284160, Note_on_c, 0, 66, 70
2, 284416, Note_on_c, 0, 66, 0
2, 284416, Note_on_c, 0, 74, 70
2, 284672, Note_on_c, 0, 74, 0
2, 284672, Note_on_c, 0, 64, 70
2, 284928, Note_on_c, 0, 64, 0
2, 284928, Note_on_c, 0, 74, 70
2, 285184, Note_on_c, 0, 74, 0
2, 285184, Note_on_c, 0, 66, 70
2, 285440, Note_on_c, 0, 66, 0
2, 285440, Note_on_c, 0, 74, 70
2, 285696, Note_on_c, 0, 74, 0
2, 285696, Note_on_c, 0, 67, 70
2, 285952, Note_on_c, 0, 67, 0
2, 285952, Note_on_c, 0, 74, 70
2, 286208, Note_on_c, 0, 74, 0
2, 286208, Note_on_c, 0, 66, 70
2, 286464, Note_on_c, 0, 66, 0
2, 286464, Note_on_c, 0, 74, 70
2, 286720, Note_on_c, 0, 74, 0
2, 286720, Note_on_c, 0, 67, 70
2, 286976, Note_on_c, 0, 67, 0
2, 286976, Note_on_c, 0, 74, 70
2, 287232, Note_on_c, 0, 74, 0
2, 287232, Note_on_c, 0, 69, 70
2, 287488, Note_on_c, 0, 69, 0
2, 287488, Note_on_c, 0, 74, 70
2, 287744, Note_on_c, 0, 74, 0
2, 287744, Note_on_c, 0, 67, 70
2, 288000, Note_on_c, 0, 67, 0
2, 288000, Note_on_c, 0, 74, 70
2, 288256, Note_on_c, 0, 74, 0
2, 288256, Note_on_c, 0, 69, 70
2, 288512, Note_on_c, 0, 69, 0
2, 288512, Note_on_c, 0, 74, 70
2, 288768, Note_on_c, 0, 74, 0
2, 288768, Note_on_c, 0, 70, 70
2, 289024, Note_on_c, 0, 70, 0
2, 289024, Note_on_c, 0, 74, 70
2, 289280, Note_on_c, 0, 74, 0
2, 289280, Note_on_c, 0, 69, 70
2, 289536, Note_on_c, 0, 69, 0
2, 289536, Note_on_c, 0, 74, 70
2, 289792, Note_on_c, 0, 74, 0
2, 289792, Note_on_c, 0, 70, 70
2, 290048, Note_on_c, 0, 70, 0
2, 290048, Note_on_c, 0, 74, 70
2, 290304, Note_on_c, 0, 74, 0
2, 290304, Note_on_c, 0, 72, 70
2, 290560, Note_on_c, 0, 72, 0
2, 290560, Note_on_c, 0, 74, 70
2, 290816, Note_on_c, 0, 74, 0
2, 290816, Note_on_c, 0, 70, 70
2, 291072, Note_on_c, 0, 70, 0
2, 291072, Note_on_c, 0, 74, 70
2, 291328, Note_on_c, 0, 74, 0
2, 291328, Note_on_c, 0, 69, 70
2, 291584, Note_on_c, 0, 69, 0
2, 291584, Note_on_c, 0, 74, 70
2, 291840, Note_on_c, 0, 74, 0
2, 291840, Note_on_c, 0, 70, 70
2, 292096, Note_on_c, 0, 70, 0
2, 292096, Note_on_c, 0, 74, 70
2, 292352, Note_on_c, 0, 74, 0
2, 292352, Note_on_c, 0, 69, 70
2, 292608, Note_on_c, 0, 69, 0
2, 292608, Note_on_c, 0, 74, 70
2, 292864, Note_on_c, 0, 74, 0
2, 292864, Note_on_c, 0, 67, 70
2, 293120, Note_on_c, 0, 67, 0
2, 293120, Note_on_c, 0, 74, 70
2, 293376, Note_on_c, 0, 74, 0
2, 293376, Note_on_c, 0, 66, 70
2, 293632, Note_on_c, 0, 66, 0
2, 293632, Note_on_c, 0, 62, 70
2, 293888, Note_on_c, 0, 62, 0
2, 293888, Note_on_c, 0, 66, 70
2, 294144, Note_on_c, 0, 66, 0
2, 294144, Note_on_c, 0, 69, 70
2, 294400, Note_on_c, 0, 69, 0
2, 294400, Note_on_c, 0, 74, 70
2, 294656, Note_on_c, 0, 74, 0
2, 294656, Note_on_c, 0, 75, 70
2, 294912, Note_on_c, 0, 75, 0
2, 294912, Note_on_c, 0, 77, 55
2, 296448, Note_on_c, 0, 77, 0
2, 296704, Note_on_c, 0, 60, 55
2, 296960, Note_on_c, 0, 60, 0
2, 296960, Note_on_c, 0, 63, 55
2, 297216, Note_on_c, 0, 63, 0
2, 297216, Note_on_c, 0, 67, 55
2, 297472, Note_on_c, 0, 67, 0
2, 297472, Note_on_c, 0, 72, 55
2, 297728, Note_on_c, 0, 72, 0
2, 297728, Note_on_c, 0, 74, 55
2, 297984, Note_on_c, 0, 74, 0
2, 297984, Note_on_c, 0, 75, 55
2, 299520, Note_on_c, 0, 75, 0
2, 299776, Note_on_c, 0, 58, 55
2, 300032, Note_on_c, 0, 58, 0
2, 300032, Note_on_c, 0, 62, 55
2, 300288, Note_on_c, 0, 62, 0
2, 300288, Note_on_c, 0, 65, 55
2, 300544, Note_on_c, 0, 65, 0
2, 300544, Note_on_c, 0, 70, 55
2, 300800, Note_on_c, 0, 70, 0
2, 300800, Note_on_c, 0, 72, 55
2, 301056, Note_on_c, 0, 72, 0
2, 301056, Note_on_c, 0, 74, 55
2, 302592, Note_on_c, 0, 74, 0
2, 302848, Note_on_c, 0, 57, 55
2, 303104, Note_on_c, 0, 57, 0
2, 303104, Note_on_c, 0, 60, 55
2, 303360, Note_on_c, 0, 60, 0
2, 303360, Note_on_c, 0, 66, 55
2, 303616, Note_on_c, 0, 66, 0
2, 303616, Note_on_c, 0, 69, 55
2, 303872, Note_on_c, 0, 69, 0
2, 303872, Note_on_c, 0, 70, 55
2, 304128, Note_on_c, 0, 70, 0
2, 304128, Note_on_c, 0, 72, 55
2, 305664, Note_on_c, 0, 72, 0
2, 305920, Note_on_c, 0, 55, 55
2, 306176, Note_on_c, 0, 55, 0
2, 306176, Note_on_c, 0, 57, 55
2, 306432, Note_on_c, 0, 57, 0
2, 306432, Note_on_c, 0, 58, 55
2, 306688, Note_on_c, 0, 58, 0
2, 306688, Note_on_c, 0, 60, 55
2, 306944, Note_on_c, 0, 60, 0
2, 306944, Note_on_c, 0, 62, 55
2, 307200, Note_on_c, 0, 62, 0
2, 307200, Note_on_c, 0, 63, 55
2, 308992, Note_on_c, 0, 63, 0
2, 308992, Note_on_c, 0, 57, 57
2, 309248, Note_on_c, 0, 57, 0
2, 309248, Note_on_c, 0, 58, 58
2, 309504, Note_on_c, 0, 58, 0
2, 309504, Note_on_c, 0, 60, 58
2, 309760, Note_on_c, 0, 60, 0
2, 309760, Note_on_c, 0, 62, 58
2, 310016, Note_on_c, 0, 62, 0
2, 310016, Note_on_c, 0, 64, 58
2, 310272, Note_on_c, 0, 64, 0
2, 310272, Note_on_c, 0, 65, 59
2, 312064, Note_on_c, 0, 65, 0
2, 312064, Note_on_c, 0, 58, 61
2, 312320, Note_on_c, 0, 58, 0
2, 312320, Note_on_c, 0, 60, 61
2, 312576, Note_on_c, 0, 60, 0
2, 312576, Note_on_c, 0, 62, 62
2, 312832, Note_on_c, 0, 62, 0
2, 312832, Note_on_c, 0, 64, 62
2, 313088, Note_on_c, 0, 64, 0
2, 313088, Note_on_c, 0, 66, 62
2, 313344, Note_on_c, 0, 66, 0
2, 313344, Note_on_c, 0, 67, 63
2, 314112, Note_on_c, 0, 67, 0
2, 314112, Note_on_c, 0, 70, 63
2, 314368, Note_on_c, 0, 70, 0
2, 314368, Note_on_c, 0, 72, 64
2, 314624, Note_on_c, 0, 72, 0
2, 314624, Note_on_c, 0, 74, 64
2, 314880, Note_on_c, 0, 74, 0
2, 314880, Note_on_c, 0, 75, 64
2, 315136, Note_on_c, 0, 75, 0
2, 315136, Note_on_c, 0, 74, 65
2, 315392, Note_on_c, 0, 74, 0
2, 315392, Note_on_c, 0, 72, 65
2, 315648, Note_on_c, 0, 72, 0
2, 315648, Note_on_c, 0, 70, 65
2, 315904, Note_on_c, 0, 70, 0
2, 315904, Note_on_c, 0, 69, 66
2, 316160, Note_on_c, 0, 69, 0
2, 316160, Note_on_c, 0, 67, 66
2, 316416, Note_on_c, 0, 67, 0
2, 316416, Note_on_c, 0, 66, 66
2, 316672, Note_on_c, 0, 66, 0
2, 316672, Note_on_c, 0, 64, 67
2, 316928, Note_on_c, 0, 64, 0
2, 316928, Note_on_c, 0, 66, 67
2, 317184, Note_on_c, 0, 66, 0
2, 317184, Note_on_c, 0, 67, 67
2, 317440, Note_on_c, 0, 67, 0
2, 317440, Note_on_c, 0, 66, 68
2, 317696, Note_on_c, 0, 66, 0
2, 317696, Note_on_c, 0, 67, 68
2, 317952, Note_on_c, 0, 67, 0
2, 317952, Note_on_c, 0, 69, 68
2, 318208, Note_on_c, 0, 69, 0
2, 318208, Note_on_c, 0, 67, 68
2, 318464, Note_on_c, 0, 67, 0
2, 318464, Note_on_c, 0, 69, 69
2, 318720, Note_on_c, 0, 69, 0
2, 318720, Note_on_c, 0, 70, 69
2, 318976, Note_on_c, 0, 70, 0
2, 318976, Note_on_c, 0, 69, 69
2, 319232, Note_on_c, 0, 69, 0
2, 319232, Note_on_c, 0, 70, 70
2, 319488, Note_on_c, 0, 70, 0
2, 319488, Note_on_c, 0, 67, 70
2, 320000, Note_on_c, 0, 67, 0
2, 320000, Note_on_c, 0, 66, 70
2, 320384, Note_on_c, 0, 66, 0
2, 320512, Note_on_c, 0, 67, 70
2, 320896, Note_on_c, 0, 67, 0
2, 321024, Note_on_c, 0, 58, 70
2, 321536, Note_on_c, 0, 58, 0
2, 321536, Note_on_c, 0, 62, 70
2, 321920, Note_on_c, 0, 62, 0
2, 322048, Note_on_c, 0, 67, 70
2, 322432, Note_on_c, 0, 67, 0
2, 322560, Note_on_c, 0, 67, 70
2, 323072, Note_on_c, 0, 67, 0
2, 323072, Note_on_c, 0, 66, 70
2, 323456, Note_on_c, 0, 66, 0
2, 323584, Note_on_c, 0, 67, 70
2, 323968, Note_on_c, 0, 67, 0
2, 324096, Note_on_c, 0, 58, 70
2, 324608, Note_on_c, 0, 58, 0
2, 324608, Note_on_c, 0, 62, 70
2, 324992, Note_on_c, 0, 62, 0
2, 325120, Note_on_c, 0, 67, 70
2, 325504, Note_on_c, 0, 67, 0
2, 325632, Note_on_c, 0, 69, 70
2, 326144, Note_on_c, 0, 69, 0
2, 326144, Note_on_c, 0, 67, 70
2, 326528, Note_on_c, 0, 67, 0
2, 326656, Note_on_c, 0, 69, 70
2, 327040, Note_on_c, 0, 69, 0
2, 327168, Note_on_c, 0, 62, 70
2, 327680, Note_on_c, 0, 62, 0
2, 327680, Note_on_c, 0, 66, 70
2, 328064, Note_on_c, 0, 66, 0
2, 328192, Note_on_c, 0, 69, 70
2, 328576, Note_on_c, 0, 69, 0
2, 328704, Note_on_c, 0, 70, 70
2, 329216, Note_on_c, 0, 70, 0
2, 329216, Note_on_c, 0, 69, 70
2, 329600, Note_on_c, 0, 69, 0
2, 329728, Note_on_c, 0, 70, 70
2, 330112, Note_on_c, 0, 70, 0
2, 330240, Note_on_c, 0, 67, 70
2, 331264, Note_on_c, 0, 67, 0
2, 331264, Note_on_c, 0, 74, 70
2, 331648, Note_on_c, 0, 74, 0
2, 331776, Note_on_c, 0, 79, 50
2, 333824, Note_on_c, 0, 79, 0
2, 333824, Note_on_c, 0, 73, 50
2, 334208, Note_on_c, 0, 73, 0
2, 334336, Note_on_c, 0, 76, 50
2, 334720, Note_on_c, 0, 76, 0
2, 334848, Note_on_c, 0, 77, 50
2, 335104, Note_on_c, 0, 77, 0
2, 335104, Note_on_c, 0, 76, 50
2, 335360, Note_on_c, 0, 76, 0
2, 335360, Note_on_c, 0, 74, 50
2, 335616, Note_on_c, 0, 74, 0
2, 335616, Note_on_c, 0, 77, 50
2, 335872, Note_on_c, 0, 77, 0
2, 335872, Note_on_c, 0, 76, 50
2, 336128, Note_on_c, 0, 76, 0
2, 336128, Note_on_c, 0, 79, 50
2, 336384, Note_on_c, 0, 79, 0
2, 336384, Note_on_c, 0, 77, 50
2, 336640, Note_on_c, 0, 77, 0
2, 336640, Note_on_c, 0, 69, 50
2, 336896, Note_on_c, 0, 69, 0
2, 336896, Note_on_c, 0, 74, 50
2, 337152, Note_on_c, 0, 74, 0
2, 337152, Note_on_c, 0, 76, 50
2, 337280, Note_on_c, 0, 76, 0
2, 337280, Note_on_c, 0, 77, 50
2, 337408, Note_on_c, 0, 77, 0
2, 337408, Note_on_c, 0, 76, 50
2, 337664, Note_on_c, 0, 76, 0
2, 337664, Note_on_c, 0, 77, 50
2, 337792, Note_on_c, 0, 77, 0
2, 337792, Note_on_c, 0, 79, 50
2, 337920, Note_on_c, 0, 79, 0
2, 337920, Note_on_c, 0, 77, 50
2, 339968, Note_on_c, 0, 77, 0
2, 339968, Note_on_c, 0, 71, 55
2, 340352, Note_on_c, 0, 71, 0
2, 340480, Note_on_c, 0, 74, 56
2, 340864, Note_on_c, 0, 74, 0
2, 340992, Note_on_c, 0, 75, 57
2, 341248, Note_on_c, 0, 75, 0
2, 341248, Note_on_c, 0, 74, 58
2, 341504, Note_on_c, 0, 74, 0
2, 341504, Note_on_c, 0, 72, 58
2, 341760, Note_on_c, 0, 72, 0
2, 341760, Note_on_c, 0, 75, 59
2, 342016, Note_on_c, 0, 75, 0
2, 342016, Note_on_c, 0, 74, 59
2, 342272, Note_on_c, 0, 74, 0
2, 342272, Note_on_c, 0, 77, 60
2, 342528, Note_on_c, 0, 77, 0
2, 342528, Note_on_c, 0, 75, 61
2, 342912, Note_on_c, 0, 75, 0
2, 343040, Note_on_c, 0, 72, 62
2, 343424, Note_on_c, 0, 72, 0
2, 343552, Note_on_c, 0, 75, 63
2, 343936, Note_on_c, 0, 75, 0
2, 344064, Note_on_c, 0, 74, 64
2, 346112, Note_on_c, 0, 74, 0
2, 346112, Note_on_c, 0, 67, 64
2, 346496, Note_on_c, 0, 67, 0
2, 346624, Note_on_c, 0, 70, 64
2, 347008, Note_on_c, 0, 70, 0
2, 347136, Note_on_c, 0, 72, 64
2, 349184, Note_on_c, 0, 72, 0
2, 349184, Note_on_c, 0, 65, 64
2, 349568, Note_on_c, 0, 65, 0
2, 349696, Note_on_c, 0, 69, 64
2, 350080, Note_on_c, 0, 69, 0
2, 350208, Note_on_c, 0, 70, 64
2, 352256, Note_on_c, 0, 70, 0
2, 352256, Note_on_c, 0, 64, 64
2, 352640, Note_on_c, 0, 64, 0
2, 352768, Note_on_c, 0, 67, 64
2, 353152, Note_on_c, 0, 67, 0
2, 353280, Note_on_c, 0, 69, 64
2, 357888, Note_on_c, 0, 69, 0
2, 358656, Note_on_c, 0, 69, 64
2, 358912, Note_on_c, 0, 69, 0
2, 358912, Note_on_c, 0, 79, 64
2, 359168, Note_on_c, 0, 79, 0
2, 359168, Note_on_c, 0, 69, 64
2, 359424, Note_on_c, 0, 69, 0
2, 359424, Note_on_c, 0, 77, 64
2, 359680, Note_on_c, 0, 77, 0
2, 359680, Note_on_c, 0, 69, 64
2, 359936, Note_on_c, 0, 69, 0
2, 359936, Note_on_c, 0, 76, 64
2, 360192, Note_on_c, 0, 76, 0
2, 360192, Note_on_c, 0, 69, 64
2, 360448, Note_on_c, 0, 69, 0
2, 360448, Note_on_c, 0, 74, 64
2, 360704, Note_on_c, 0, 74, 0
2, 360704, Note_on_c, 0, 69, 64
2, 360960, Note_on_c, 0, 69, 0
2, 360960, Note_on_c, 0, 73, 64
2, 361216, Note_on_c, 0, 73, 0
2, 361216, Note_on_c, 0, 69, 64
2, 361472, Note_on_c, 0, 69, 0
2, 361472, Note_on_c, 0, 71, 64
2, 361728, Note_on_c, 0, 71, 0
2, 361728, Note_on_c, 0, 69, 64
2, 361984, Note_on_c, 0, 69, 0
2, 361984, Note_on_c, 0, 73, 64
2, 362240, Note_on_c, 0, 73, 0
2, 362240, Note_on_c, 0, 69, 64
2, 362496, Note_on_c, 0, 69, 0
2, 362496, Note_on_c, 0, 74, 64
2, 362752, Note_on_c, 0, 74, 0
2, 362752, Note_on_c, 0, 69, 64
2, 363008, Note_on_c, 0, 69, 0
2, 363008, Note_on_c, 0, 73, 64
2, 363264, Note_on_c, 0, 73, 0
2, 363264, Note_on_c, 0, 69, 64
2, 363520, Note_on_c, 0, 69, 0
2, 363520, Note_on_c, 0, 74, 64
2, 363776, Note_on_c, 0, 74, 0
2, 363776, Note_on_c, 0, 69, 64
2, 364032, Note_on_c, 0, 69, 0
2, 364032, Note_on_c, 0, 76, 64
2, 364288, Note_on_c, 0, 76, 0
2, 364288, Note_on_c, 0, 69, 64
2, 364544, Note_on_c, 0, 69, 0
2, 364544, Note_on_c, 0, 74, 64
2, 364800, Note_on_c, 0, 74, 0
2, 364800, Note_on_c, 0, 69, 64
2, 365056, Note_on_c, 0, 69, 0
2, 365056, Note_on_c, 0, 73, 64
2, 365312, Note_on_c, 0, 73, 0
2, 365312, Note_on_c, 0, 69, 64
2, 365568, Note_on_c, 0, 69, 0
2, 365568, Note_on_c, 0, 74, 64
2, 365824, Note_on_c, 0, 74, 0
2, 365824, Note_on_c, 0, 69, 64
2, 366080, Note_on_c, 0, 69, 0
2, 366080, Note_on_c, 0, 76, 64
2, 366336, Note_on_c, 0, 76, 0
2, 366336, Note_on_c, 0, 69, 64
2, 366592, Note_on_c, 0, 69, 0
2, 366592, Note_on_c, 0, 77, 64
2, 366848, Note_on_c, 0, 77, 0
2, 366848, Note_on_c, 0, 69, 64
2, 367104, Note_on_c, 0, 69, 0
2, 367104, Note_on_c, 0, 76, 64
2, 367488, Note_on_c, 0, 76, 0
2, 367616, Note_on_c, 0, 69, 64
2, 368000, Note_on_c, 0, 69, 0
2, 368896, Note_on_c, 0, 62, 50
2, 369152, Note_on_c, 0, 62, 0
2, 369152, Note_on_c, 0, 65, 50
2, 369408, Note_on_c, 0, 65, 0
2, 369408, Note_on_c, 0, 69, 50
2, 369664, Note_on_c, 0, 69, 0
2, 369664, Note_on_c, 0, 74, 50
2, 369920, Note_on_c, 0, 74, 0
2, 369920, Note_on_c, 0, 72, 50
2, 370176, Note_on_c, 0, 72, 0
2, 370176, Note_on_c, 0, 70, 50
2, 371968, Note_on_c, 0, 70, 0
2, 371968, Note_on_c, 0, 60, 50
2, 372224, Note_on_c, 0, 60, 0
2, 372224, Note_on_c, 0, 64, 50
2, 372480, Note_on_c, 0, 64, 0
2, 372480, Note_on_c, 0, 67, 50
2, 372736, Note_on_c, 0, 67, 0
2, 372736, Note_on_c, 0, 72, 50
2, 372992, Note_on_c, 0, 72, 0
2, 372992, Note_on_c, 0, 70, 50
2, 373248, Note_on_c, 0, 70, 0
2, 373248, Note_on_c, 0, 69, 50
2, 375040, Note_on_c, 0, 69, 0
2, 375040, Note_on_c, 0, 58, 50
2, 375296, Note_on_c, 0, 58, 0
2, 375296, Note_on_c, 0, 62, 50
2, 375552, Note_on_c, 0, 62, 0
2, 375552, Note_on_c, 0, 65, 50
2, 375808, Note_on_c, 0, 65, 0
2, 375808, Note_on_c, 0, 70, 50
2, 376064, Note_on_c, 0, 70, 0
2, 376064, Note_on_c, 0, 69, 50
2, 376320, Note_on_c, 0, 69, 0
2, 376320, Note_on_c, 0, 67, 50
2, 378112, Note_on_c, 0, 67, 0
2, 378112, Note_on_c, 0, 57, 50
2, 378368, Note_on_c, 0, 57, 0
2, 378368, Note_on_c, 0, 61, 50
2, 378624, Note_on_c, 0, 61, 0
2, 378624, Note_on_c, 0, 64, 50
2, 378880, Note_on_c, 0, 64, 0
2, 378880, Note_on_c, 0, 69, 50
2, 379136, Note_on_c, 0, 69, 0
2, 379136, Note_on_c, 0, 67, 50
2, 379392, Note_on_c, 0, 67, 0
2, 379392, Note_on_c, 0, 65, 50
2, 381184, Note_on_c, 0, 65, 0
2, 381184, Note_on_c, 0, 64, 51
2, 381440, Note_on_c, 0, 64, 0
2, 381440, Note_on_c, 0, 62, 51
2, 381696, Note_on_c, 0, 62, 0
2, 381696, Note_on_c, 0, 60, 52
2, 381952, Note_on_c, 0, 60, 0
2, 381952, Note_on_c, 0, 58, 52
2, 382208, Note_on_c, 0, 58, 0
2, 382208, Note_on_c, 0, 57, 53
2, 382464, Note_on_c, 0, 57, 0
2, 382464, Note_on_c, 0, 67, 53
2, 384256, Note_on_c, 0, 67, 0
2, 384256, Note_on_c, 0, 65, 57
2, 384512, Note_on_c, 0, 65, 0
2, 384512, Note_on_c, 0, 64, 57
2, 384768, Note_on_c, 0, 64, 0
2, 384768, Note_on_c, 0, 62, 58
2, 385024, Note_on_c, 0, 62, 0
2, 385024, Note_on_c, 0, 60, 58
2, 385280, Note_on_c, 0, 60, 0
2, 385280, Note_on_c, 0, 58, 59
2, 385536, Note_on_c, 0, 58, 0
2, 385536, Note_on_c, 0, 69, 59
2, 387328, Note_on_c, 0, 69, 0
2, 387328, Note_on_c, 0, 67, 63
2, 387584, Note_on_c, 0, 67, 0
2, 387584, Note_on_c, 0, 65, 64
2, 387840, Note_on_c, 0, 65, 0
2, 387840, Note_on_c, 0, 64, 64
2, 388096, Note_on_c, 0, 64, 0
2, 388096, Note_on_c, 0, 62, 65
2, 388352, Note_on_c, 0, 62, 0
2, 388352, Note_on_c, 0, 61, 65
2, 388608, Note_on_c, 0, 61, 0
2, 388608, Note_on_c, 0, 62, 66
2, 388864, Note_on_c, 0, 62, 0
2, 388864, Note_on_c, 0, 60, 66
2, 389120, Note_on_c, 0, 60, 0
2, 389120, Note_on_c, 0, 58, 67
2, 389376, Note_on_c, 0, 58, 0
2, 389376, Note_on_c, 0, 57, 67
2, 389632, Note_on_c, 0, 57, 0
2, 389632, Note_on_c, 0, 55, 68
2, 389888, Note_on_c, 0, 55, 0
2, 389888, Note_on_c, 0, 53, 68
2, 390144, Note_on_c, 0, 53, 0
2, 390144, Note_on_c, 0, 52, 69
2, 390400, Note_on_c, 0, 52, 0
2, 390400, Note_on_c, 0, 50, 69
2, 390656, Note_on_c, 0, 50, 0
2, 390656, Note_on_c, 0, 52, 70
2, 390912, Note_on_c, 0, 52, 0
2, 390912, Note_on_c, 0, 53, 70
2, 391168, Note_on_c, 0, 53, 0
2, 391168, Note_on_c, 0, 52, 71
2, 391424, Note_on_c, 0, 52, 0
2, 391424, Note_on_c, 0, 53, 71
2, 391680, Note_on_c, 0, 53, 0
2, 391680, Note_on_c, 0, 55, 72
2, 391936, Note_on_c, 0, 55, 0
2, 391936, Note_on_c, 0, 53, 72
2, 392192, Note_on_c, 0, 53, 0
2, 392192, Note_on_c, 0, 55, 73
2, 392448, Note_on_c, 0, 55, 0
2, 392448, Note_on_c, 0, 57, 73
2, 392704, Note_on_c, 0, 57, 0
2, 392704, Note_on_c, 0, 55, 74
2, 392960, Note_on_c, 0, 55, 0
2, 392960, Note_on_c, 0, 57, 74
2, 393216, Note_on_c, 0, 57, 0
2, 393216, Note_on_c, 0, 53, 50
2, 393600, Note_on_c, 0, 53, 0
2, 393728, Note_on_c, 0, 57, 50
2, 394112, Note_on_c, 0, 57, 0
2, 394240, Note_on_c, 0, 58, 50
2, 395264, Note_on_c, 0, 58, 0
2, 395264, Note_on_c, 0, 57, 50
2, 395648, Note_on_c, 0, 57, 0
2, 395776, Note_on_c, 0, 62, 50
2, 396800, Note_on_c, 0, 62, 0
2, 396800, Note_on_c, 0, 57, 50
2, 397184, Note_on_c, 0, 57, 0
2, 397312, Note_on_c, 0, 58, 50
2, 398336, Note_on_c, 0, 58, 0
2, 398336, Note_on_c, 0, 57, 50
2, 398720, Note_on_c, 0, 57, 0
2, 398848, Note_on_c, 0, 62, 50
2, 399872, Note_on_c, 0, 62, 0
2, 399872, Note_on_c, 0, 59, 50
2, 400256, Note_on_c, 0, 59, 0
2, 400384, Note_on_c, 0, 67, 50
2, 401408, Note_on_c, 0, 67, 0
2, 401408, Note_on_c, 0, 61, 50
2, 401792, Note_on_c, 0, 61, 0
2, 401920, Note_on_c, 0, 69, 50
2, 402304, Note_on_c, 0, 69, 0
2, 402432, Note_on_c, 0, 65, 50
2, 402816, Note_on_c, 0, 65, 0
2, 402944, Note_on_c, 0, 62, 50
2, 403328, Note_on_c, 0, 62, 0
2, 403456, Note_on_c, 0, 61, 50
2, 403584, Note_on_c, 0, 61, 0
2, 403584, Note_on_c, 0, 62, 50
2, 403712, Note_on_c, 0, 62, 0
2, 403712, Note_on_c, 0, 61, 50
2, 403922, Note_on_c, 0, 61, 0
2, 403968, Note_on_c, 0, 62, 50
2, 404931, Note_on_c, 0, 62, 0
2, 404992, Note_on_c, 0, 65, 64
2, 405376, Note_on_c, 0, 65, 0
2, 405504, Note_on_c, 0, 70, 64
2, 406016, Note_on_c, 0, 70, 0
2, 406016, Note_on_c, 0, 69, 64
2, 406400, Note_on_c, 0, 69, 0
2, 406528, Note_on_c, 0, 70, 64
2, 406912, Note_on_c, 0, 70, 0
2, 407040, Note_on_c, 0, 62, 64
2, 407552, Note_on_c, 0, 62, 0
2, 407552, Note_on_c, 0, 65, 64
2, 407936, Note_on_c, 0, 65, 0
2, 408064, Note_on_c, 0, 70, 64
2, 408448, Note_on_c, 0, 70, 0
2, 408576, Note_on_c, 0, 70, 64
2, 409088, Note_on_c, 0, 70, 0
2, 409088, Note_on_c, 0, 69, 64
2, 409472, Note_on_c, 0, 69, 0
2, 409600, Note_on_c, 0, 70, 64
2, 409984, Note_on_c, 0, 70, 0
2, 410112, Note_on_c, 0, 62, 64
2, 410624, Note_on_c, 0, 62, 0
2, 410624, Note_on_c, 0, 65, 64
2, 411008, Note_on_c, 0, 65, 0
2, 411136, Note_on_c, 0, 70, 64
2, 411520, Note_on_c, 0, 70, 0
2, 411648, Note_on_c, 0, 72, 64
2, 412160, Note_on_c, 0, 72, 0
2, 412160, Note_on_c, 0, 70, 64
2, 412544, Note_on_c, 0, 70, 0
2, 412672, Note_on_c, 0, 72, 64
2, 413056, Note_on_c, 0, 72, 0
2, 413184, Note_on_c, 0, 65, 64
2, 413696, Note_on_c, 0, 65, 0
2, 413696, Note_on_c, 0, 69, 64
2, 414080, Note_on_c, 0, 69, 0
2, 414208, Note_on_c, 0, 72, 64
2, 414592, Note_on_c, 0, 72, 0
2, 414720, Note_on_c, 0, 74, 64
2, 415232, Note_on_c, 0, 74, 0
2, 415232, Note_on_c, 0, 72, 64
2, 415616, Note_on_c, 0, 72, 0
2, 415744, Note_on_c, 0, 74, 64
2, 416128, Note_on_c, 0, 74, 0
2, 416256, Note_on_c, 0, 70, 64
2, 417280, Note_on_c, 0, 70, 0
2, 417280, Note_on_c, 0, 74, 64
2, 418304, Note_on_c, 0, 74, 0
2, 418304, Note_on_c, 0, 67, 64
2, 418688, Note_on_c, 0, 67, 0
2, 418816, Note_on_c, 0, 70, 64
2, 419840, Note_on_c, 0, 70, 0
2, 419840, Note_on_c, 0, 64, 64
2, 420224, Note_on_c, 0, 64, 0
2, 420352, Note_on_c, 0, 72, 64
2, 421376, Note_on_c, 0, 72, 0
2, 421376, Note_on_c, 0, 65, 64
2, 421760, Note_on_c, 0, 65, 0
2, 421888, Note_on_c, 0, 69, 64
2, 422912, Note_on_c, 0, 69, 0
2, 422912, Note_on_c, 0, 62, 64
2, 423296, Note_on_c, 0, 62, 0
2, 423424, Note_on_c, 0, 70, 64
2, 424448, Note_on_c, 0, 70, 0
2, 424448, Note_on_c, 0, 64, 64
2, 424832, Note_on_c, 0, 64, 0
2, 424960, Note_on_c, 0, 67, 64
2, 425984, Note_on_c, 0, 67, 0
2, 425984, Note_on_c, 0, 60, 64
2, 426368, Note_on_c, 0, 60, 0
2, 426496, Note_on_c, 0, 70, 64
2, 426880, Note_on_c, 0, 70, 0
2, 427008, Note_on_c, 0, 69, 64
2, 427520, Note_on_c, 0, 69, 0
2, 427520, Note_on_c, 0, 67, 64
2, 427904, Note_on_c, 0, 67, 0
2, 428032, Note_on_c, 0, 69, 64
2, 428416, Note_on_c, 0, 69, 0
2, 428544, Note_on_c, 0, 65, 64
2, 429056, Note_on_c, 0, 65, 0
2, 429056, Note_on_c, 0, 69, 64
2, 429440, Note_on_c, 0, 69, 0
2, 429568, Note_on_c, 0, 72, 64
2, 429952, Note_on_c, 0, 72, 0
2, 430080, Note_on_c, 0, 77, 64
2, 430464, Note_on_c, 0, 77, 0
2, 430592, Note_on_c, 0, 70, 64
2, 430976, Note_on_c, 0, 70, 0
2, 431104, Note_on_c, 0, 74, 64
2, 432128, Note_on_c, 0, 74, 0
2, 432128, Note_on_c, 0, 67, 64
2, 432512, Note_on_c, 0, 67, 0
2, 432640, Note_on_c, 0, 75, 64
2, 433664, Note_on_c, 0, 75, 0
2, 433664, Note_on_c, 0, 69, 64
2, 434048, Note_on_c, 0, 69, 0
2, 434176, Note_on_c, 0, 72, 64
2, 435200, Note_on_c, 0, 72, 0
2, 435200, Note_on_c, 0, 65, 64
2, 435584, Note_on_c, 0, 65, 0
2, 435712, Note_on_c, 0, 74, 64
2, 436736, Note_on_c, 0, 74, 0
2, 436736, Note_on_c, 0, 65, 64
2, 437120, Note_on_c, 0, 65, 0
2, 437248, Note_on_c, 0, 70, 64
2, 438272, Note_on_c, 0, 70, 0
2, 438272, Note_on_c, 0, 62, 64
2, 438656, Note_on_c, 0, 62, 0
2, 438784, Note_on_c, 0, 65, 64
2, 439808, Note_on_c, 0, 65, 0
2, 439808, Note_on_c, 0, 58, 64
2, 440192, Note_on_c, 0, 58, 0
2, 440320, Note_on_c, 0, 62, 64
2, 440704, Note_on_c, 0, 62, 0
2, 440832, Note_on_c, 0, 65, 64
2, 441216, Note_on_c, 0, 65, 0
2, 441344, Note_on_c, 0, 62, 64
2, 441728, Note_on_c, 0, 62, 0
2, 441856, Note_on_c, 0, 65, 64
2, 442240, Note_on_c, 0, 65, 0
2, 442368, Note_on_c, 0, 70, 64
2, 442752, Note_on_c, 0, 70, 0
2, 442880, Note_on_c, 0, 65, 64
2, 443264, Note_on_c, 0, 65, 0
2, 443392, Note_on_c, 0, 67, 64
2, 444416, Note_on_c, 0, 67, 0
2, 444416, Note_on_c, 0, 65, 64
2, 444800, Note_on_c, 0, 65, 0
2, 444928, Note_on_c, 0, 70, 64
2, 445952, Note_on_c, 0, 70, 0
2, 445952, Note_on_c, 0, 65, 64
2, 446336, Note_on_c, 0, 65, 0
2, 446464, Note_on_c, 0, 67, 64
2, 447488, Note_on_c, 0, 67, 0
2, 447488, Note_on_c, 0, 65, 64
2, 447872, Note_on_c, 0, 65, 0
2, 448000, Note_on_c, 0, 70, 64
2, 449024, Note_on_c, 0, 70, 0
2, 449024, Note_on_c, 0, 67, 64
2, 449408, Note_on_c, 0, 67, 0
2, 449536, Note_on_c, 0, 75, 64
2, 450560, Note_on_c, 0, 75, 0
2, 450560, Note_on_c, 0, 69, 64
2, 450944, Note_on_c, 0, 69, 0
2, 451072, Note_on_c, 0, 77, 64
2, 451584, Note_on_c, 0, 77, 0
2, 451584, Note_on_c, 0, 74, 64
2, 451968, Note_on_c, 0, 74, 0
2, 452096, Note_on_c, 0, 70, 64
2, 452480, Note_on_c, 0, 70, 0
2, 452608, Note_on_c, 0, 69, 64
2, 452992, Note_on_c, 0, 69, 0
2, 453120, Note_on_c, 0, 70, 64
2, 453888, Note_on_c, 0, 70, 0
2, 453888, Note_on_c, 0, 65, 64
2, 454144, Note_on_c, 0, 65, 0
2, 454144, Note_on_c, 0, 67, 64
2, 454400, Note_on_c, 0, 67, 0
2, 454400, Note_on_c, 0, 69, 64
2, 454656, Note_on_c, 0, 69, 0
2, 454656, Note_on_c, 0, 70, 45
2, 454912, Note_on_c, 0, 70, 0
2, 454912, Note_on_c, 0, 69, 45
2, 455168, Note_on_c, 0, 69, 0
2, 455168, Note_on_c, 0, 70, 45
2, 455552, Note_on_c, 0, 70, 0
2, 456960, Note_on_c, 0, 65, 45
2, 457216, Note_on_c, 0, 65, 0
2, 457216, Note_on_c, 0, 67, 45
2, 457472, Note_on_c, 0, 67, 0
2, 457472, Note_on_c, 0, 69, 45
2, 457728, Note_on_c, 0, 69, 0
2, 457728, Note_on_c, 0, 70, 45
2, 457984, Note_on_c, 0, 70, 0
2, 457984, Note_on_c, 0, 69, 45
2, 458240, Note_on_c, 0, 69, 0
2, 458240, Note_on_c, 0, 70, 45
2, 458624, Note_on_c, 0, 70, 0
2, 460032, Note_on_c, 0, 67, 45
2, 460288, Note_on_c, 0, 67, 0
2, 460288, Note_on_c, 0, 69, 45
2, 460544, Note_on_c, 0, 69, 0
2, 460544, Note_on_c, 0, 70, 45
2, 460800, Note_on_c, 0, 70, 0
2, 460800, Note_on_c, 0, 72, 45
2, 461056, Note_on_c, 0, 72, 0
2, 461056, Note_on_c, 0, 70, 45
2, 461312, Note_on_c, 0, 70, 0
2, 461312, Note_on_c, 0, 72, 45
2, 461568, Note_on_c, 0, 72, 0
2, 461568, Note_on_c, 0, 70, 45
2, 461824, Note_on_c, 0, 70, 0
2, 461824, Note_on_c, 0, 69, 45
2, 462080, Note_on_c, 0, 69, 0
2, 462080, Note_on_c, 0, 67, 45
2, 462336, Note_on_c, 0, 67, 0
2, 462336, Note_on_c, 0, 65, 45
2, 462720, Note_on_c, 0, 65, 0
2, 462848, Note_on_c, 0, 69, 45
2, 463232, Note_on_c, 0, 69, 0
2, 463360, Note_on_c, 0, 72, 45
2, 463744, Note_on_c, 0, 72, 0
2, 463872, Note_on_c, 0, 74, 45
2, 464128, Note_on_c, 0, 74, 0
2, 464128, Note_on_c, 0, 72, 45
2, 464384, Note_on_c, 0, 72, 0
2, 464384, Note_on_c, 0, 74, 45
2, 464640, Note_on_c, 0, 74, 0
2, 464640, Note_on_c, 0, 75, 45
2, 464896, Note_on_c, 0, 75, 0
2, 464896, Note_on_c, 0, 74, 45
2, 465152, Note_on_c, 0, 74, 0
2, 465152, Note_on_c, 0, 72, 45
2, 465408, Note_on_c, 0, 72, 0
2, 465408, Note_on_c, 0, 70, 64
2, 465792, Note_on_c, 0, 70, 0
2, 465920, Note_on_c, 0, 65, 64
2, 466304, Note_on_c, 0, 65, 0
2, 466432, Note_on_c, 0, 74, 64
2, 467456, Note_on_c, 0, 74, 0
2, 467456, Note_on_c, 0, 67, 64
2, 467840, Note_on_c, 0, 67, 0
2, 467968, Note_on_c, 0, 70, 64
2, 468992, Note_on_c, 0, 70, 0
2, 468992, Note_on_c, 0, 64, 64
2, 469376, Note_on_c, 0, 64, 0
2, 469504, Note_on_c, 0, 72, 64
2, 470528, Note_on_c, 0, 72, 0
2, 470528, Note_on_c, 0, 65, 64
2, 470912, Note_on_c, 0, 65, 0
2, 471040, Note_on_c, 0, 69, 64
2, 472064, Note_on_c, 0, 69, 0
2, 472064, Note_on_c, 0, 62, 64
2, 472448, Note_on_c, 0, 62, 0
2, 472576, Note_on_c, 0, 70, 64
2, 473600, Note_on_c, 0, 70, 0
2, 473600, Note_on_c, 0, 64, 64
2, 473984, Note_on_c, 0, 64, 0
2, 474112, Note_on_c, 0, 67, 64
2, 475136, Note_on_c, 0, 67, 0
2, 475136, Note_on_c, 0, 60, 64
2, 475520, Note_on_c, 0, 60, 0
2, 475648, Note_on_c, 0, 70, 64
2, 476032, Note_on_c, 0, 70, 0
2, 476160, Note_on_c, 0, 69, 64
2, 476672, Note_on_c, 0, 69, 0
2, 476672, Note_on_c, 0, 67, 64
2, 477056, Note_on_c, 0, 67, 0
2, 477184, Note_on_c, 0, 69, 64
2, 477568, Note_on_c, 0, 69, 0
2, 477696, Note_on_c, 0, 65, 64
2, 478208, Note_on_c, 0, 65, 0
2, 478208, Note_on_c, 0, 57, 64
2, 478592, Note_on_c, 0, 57, 0
2, 478720, Note_on_c, 0, 60, 64
2, 479104, Note_on_c, 0, 60, 0
2, 479232, Note_on_c, 0, 65, 64
2, 479744, Note_on_c, 0, 65, 0
2, 479744, Note_on_c, 0, 64, 64
2, 480128, Note_on_c, 0, 64, 0
2, 480256, Note_on_c, 0, 65, 64
2, 480640, Note_on_c, 0, 65, 0
2, 480768, Note_on_c, 0, 57, 64
2, 481280, Note_on_c, 0, 57, 0
2, 481280, Note_on_c, 0, 60, 64
2, 481664, Note_on_c, 0, 60, 0
2, 481792, Note_on_c, 0, 65, 64
2, 482176, Note_on_c, 0, 65, 0
2, 482304, Note_on_c, 0, 65, 64
2, 482816, Note_on_c, 0, 65, 0
2, 482816, Note_on_c, 0, 64, 64
2, 483200, Note_on_c, 0, 64, 0
2, 483328, Note_on_c, 0, 65, 64
2, 483712, Note_on_c, 0, 65, 0
2, 483840, Note_on_c, 0, 57, 64
2, 484352, Note_on_c, 0, 57, 0
2, 484352, Note_on_c, 0, 60, 64
2, 484736, Note_on_c, 0, 60, 0
2, 484864, Note_on_c, 0, 65, 64
2, 485248, Note_on_c, 0, 65, 0
2, 485376, Note_on_c, 0, 67, 64
2, 485888, Note_on_c, 0, 67, 0
2, 485888, Note_on_c, 0, 65, 64
2, 486272, Note_on_c, 0, 65, 0
2, 486400, Note_on_c, 0, 67, 64
2, 486784, Note_on_c, 0, 67, 0
2, 486912, Note_on_c, 0, 60, 64
2, 487424, Note_on_c, 0, 60, 0
2, 487424, Note_on_c, 0, 64, 64
2, 487808, Note_on_c, 0, 64, 0
2, 487936, Note_on_c, 0, 67, 64
2, 488320, Note_on_c, 0, 67, 0
2, 488448, Note_on_c, 0, 69, 64
2, 488960, Note_on_c, 0, 69, 0
2, 488960, Note_on_c, 0, 67, 64
2, 489344, Note_on_c, 0, 67, 0
2, 489472, Note_on_c, 0, 69, 64
2, 489856, Note_on_c, 0, 69, 0
2, 489984, Note_on_c, 0, 65, 64
2, 491008, Note_on_c, 0, 65, 0
2, 492288, Note_on_c, 0, 60, 45
2, 492544, Note_on_c, 0, 60, 0
2, 492544, Note_on_c, 0, 62, 45
2, 492800, Note_on_c, 0, 62, 0
2, 492800, Note_on_c, 0, 64, 45
2, 493056, Note_on_c, 0, 64, 0
2, 493056, Note_on_c, 0, 65, 45
2, 493312, Note_on_c, 0, 65, 0
2, 493312, Note_on_c, 0, 64, 45
2, 493568, Note_on_c, 0, 64, 0
2, 493568, Note_on_c, 0, 65, 45
2, 493952, Note_on_c, 0, 65, 0
2, 495360, Note_on_c, 0, 60, 45
2, 495616, Note_on_c, 0, 60, 0
2, 495616, Note_on_c, 0, 62, 45
2, 495872, Note_on_c, 0, 62, 0
2, 495872, Note_on_c, 0, 64, 45
2, 496128, Note_on_c, 0, 64, 0
2, 496128, Note_on_c, 0, 65, 45
2, 496384, Note_on_c, 0, 65, 0
2, 496384, Note_on_c, 0, 64, 45
2, 496640, Note_on_c, 0, 64, 0
2, 496640, Note_on_c, 0, 65, 45
2, 497024, Note_on_c, 0, 65, 0
2, 498432, Note_on_c, 0, 62, 45
2, 498688, Note_on_c, 0, 62, 0
2, 498688, Note_on_c, 0, 64, 45
2, 498944, Note_on_c, 0, 64, 0
2, 498944, Note_on_c, 0, 65, 45
2, 499200, Note_on_c, 0, 65, 0
2, 499200, Note_on_c, 0, 67, 45
2, 499456, Note_on_c, 0, 67, 0
2, 499456, Note_on_c, 0, 65, 45
2, 499712, Note_on_c, 0, 65, 0
2, 499712, Note_on_c, 0, 67, 45
2, 499968, Note_on_c, 0, 67, 0
2, 499968, Note_on_c, 0, 65, 45
2, 500224, Note_on_c, 0, 65, 0
2, 500224, Note_on_c, 0, 64, 45
2, 500480, Note_on_c, 0, 64, 0
2, 500480, Note_on_c, 0, 62, 45
2, 500736, Note_on_c, 0, 62, 0
2, 500736, Note_on_c, 0, 60, 45
2, 500992, Note_on_c, 0, 60, 0
2, 500992, Note_on_c, 0, 58, 45
2, 501248, Note_on_c, 0, 58, 0
2, 501248, Note_on_c, 0, 60, 45
2, 501504, Note_on_c, 0, 60, 0
2, 501504, Note_on_c, 0, 62, 45
2, 501760, Note_on_c, 0, 62, 0
2, 501760, Note_on_c, 0, 60, 45
2, 502016, Note_on_c, 0, 60, 0
2, 502016, Note_on_c, 0, 58, 45
2, 502272, Note_on_c, 0, 58, 0
2, 502272, Note_on_c, 0, 57, 45
2, 502528, Note_on_c, 0, 57, 0
2, 502528, Note_on_c, 0, 55, 45
2, 502784, Note_on_c, 0, 55, 0
2, 502784, Note_on_c, 0, 57, 45
2, 503040, Note_on_c, 0, 57, 0
2, 503040, Note_on_c, 0, 58, 45
2, 503296, Note_on_c, 0, 58, 0
2, 503296, Note_on_c, 0, 60, 45
2, 503552, Note_on_c, 0, 60, 0
2, 503552, Note_on_c, 0, 57, 45
2, 503808, Note_on_c, 0, 57, 0
2, 503808, Note_on_c, 0, 62, 45
2, 504064, Note_on_c, 0, 62, 0
2, 504064, Note_on_c, 0, 64, 45
2, 504320, Note_on_c, 0, 64, 0
2, 504320, Note_on_c, 0, 65, 46
2, 504576, Note_on_c, 0, 65, 0
2, 504576, Note_on_c, 0, 64, 46
2, 504832, Note_on_c, 0, 64, 0
2, 504832, Note_on_c, 0, 62, 47
2, 505088, Note_on_c, 0, 62, 0
2, 505088, Note_on_c, 0, 60, 47
2, 505344, Note_on_c, 0, 60, 0
2, 505344, Note_on_c, 0, 59, 47
2, 505600, Note_on_c, 0, 59, 0
2, 505600, Note_on_c, 0, 57, 48
2, 505856, Note_on_c, 0, 57, 0
2, 505856, Note_on_c, 0, 55, 48
2, 506112, Note_on_c, 0, 55, 0
2, 506112, Note_on_c, 0, 57, 49
2, 506368, Note_on_c, 0, 57, 0
2, 506368, Note_on_c, 0, 59, 49
2, 506624, Note_on_c, 0, 59, 0
2, 506624, Note_on_c, 0, 55, 49
2, 506880, Note_on_c, 0, 55, 0
2, 506880, Note_on_c, 0, 60, 50
2, 507136, Note_on_c, 0, 60, 0
2, 507136, Note_on_c, 0, 62, 50
2, 507392, Note_on_c, 0, 62, 0
2, 507392, Note_on_c, 0, 64, 51
2, 507648, Note_on_c, 0, 64, 0
2, 507648, Note_on_c, 0, 62, 51
2, 507904, Note_on_c, 0, 62, 0
2, 507904, Note_on_c, 0, 60, 51
2, 508160, Note_on_c, 0, 60, 0
2, 508160, Note_on_c, 0, 59, 52
2, 508416, Note_on_c, 0, 59, 0
2, 508416, Note_on_c, 0, 57, 52
2, 508672, Note_on_c, 0, 57, 0
2, 508672, Note_on_c, 0, 55, 53
2, 508928, Note_on_c, 0, 55, 0
2, 508928, Note_on_c, 0, 53, 53
2, 509184, Note_on_c, 0, 53, 0
2, 509184, Note_on_c, 0, 55, 53
2, 509440, Note_on_c, 0, 55, 0
2, 509440, Note_on_c, 0, 57, 54
2, 509696, Note_on_c, 0, 57, 0
2, 509696, Note_on_c, 0, 53, 54
2, 509952, Note_on_c, 0, 53, 0
2, 509952, Note_on_c, 0, 59, 55
2, 510208, Note_on_c, 0, 59, 0
2, 510208, Note_on_c, 0, 60, 55
2, 510464, Note_on_c, 0, 60, 0
2, 510464, Note_on_c, 0, 62, 55
2, 510720, Note_on_c, 0, 62, 0
2, 510720, Note_on_c, 0, 60, 56
2, 510976, Note_on_c, 0, 60, 0
2, 510976, Note_on_c, 0, 59, 56
2, 511232, Note_on_c, 0, 59, 0
2, 511232, Note_on_c, 0, 57, 56
2, 511488, Note_on_c, 0, 57, 0
2, 511488, Note_on_c, 0, 55, 57
2, 511744, Note_on_c, 0, 55, 0
2, 511744, Note_on_c, 0, 57, 57
2, 512000, Note_on_c, 0, 57, 0
2, 512000, Note_on_c, 0, 59, 58
2, 512256, Note_on_c, 0, 59, 0
2, 512256, Note_on_c, 0, 57, 58
2, 512512, Note_on_c, 0, 57, 0
2, 512512, Note_on_c, 0, 55, 58
2, 512768, Note_on_c, 0, 55, 0
2, 512768, Note_on_c, 0, 53, 59
2, 513024, Note_on_c, 0, 53, 0
2, 513024, Note_on_c, 0, 55, 59
2, 513280, Note_on_c, 0, 55, 0
2, 513280, Note_on_c, 0, 60, 60
2, 513536, Note_on_c, 0, 60, 0
2, 513536, Note_on_c, 0, 59, 60
2, 513792, Note_on_c, 0, 59, 0
2, 513792, Note_on_c, 0, 57, 60
2, 514048, Note_on_c, 0, 57, 0
2, 514048, Note_on_c, 0, 55, 61
2, 514304, Note_on_c, 0, 55, 0
2, 514304, Note_on_c, 0, 53, 61
2, 514560, Note_on_c, 0, 53, 0
2, 514560, Note_on_c, 0, 52, 62
2, 514816, Note_on_c, 0, 52, 0
2, 514816, Note_on_c, 0, 53, 62
2, 515072, Note_on_c, 0, 53, 0
2, 515072, Note_on_c, 0, 55, 62
2, 515328, Note_on_c, 0, 55, 0
2, 515328, Note_on_c, 0, 53, 63
2, 515584, Note_on_c, 0, 53, 0
2, 515584, Note_on_c, 0, 52, 63
2, 515840, Note_on_c, 0, 52, 0
2, 515840, Note_on_c, 0, 50, 64
2, 516096, Note_on_c, 0, 50, 0
2, 516096, Note_on_c, 0, 48, 64
2, 516480, Note_on_c, 0, 48, 0
2, 516608, Note_on_c, 0, 60, 64
2, 516992, Note_on_c, 0, 60, 0
2, 517120, Note_on_c, 0, 69, 64
2, 518144, Note_on_c, 0, 69, 0
2, 518144, Note_on_c, 0, 62, 64
2, 518528, Note_on_c, 0, 62, 0
2, 518656, Note_on_c, 0, 70, 64
2, 519680, Note_on_c, 0, 70, 0
2, 519680, Note_on_c, 0, 64, 64
2, 520064, Note_on_c, 0, 64, 0
2, 520192, Note_on_c, 0, 67, 64
2, 521216, Note_on_c, 0, 67, 0
2, 521216, Note_on_c, 0, 60, 64
2, 521600, Note_on_c, 0, 60, 0
2, 521728, Note_on_c, 0, 69, 64
2, 522752, Note_on_c, 0, 69, 0
2, 522752, Note_on_c, 0, 60, 64
2, 523136, Note_on_c, 0, 60, 0
2, 523264, Note_on_c, 0, 65, 64
2, 524288, Note_on_c, 0, 65, 0
2, 524288, Note_on_c, 0, 57, 64
2, 524672, Note_on_c, 0, 57, 0
2, 524800, Note_on_c, 0, 60, 64
2, 525824, Note_on_c, 0, 60, 0
2, 525824, Note_on_c, 0, 53, 64
2, 526208, Note_on_c, 0, 53, 0
2, 526336, Note_on_c, 0, 57, 64
2, 526720, Note_on_c, 0, 57, 0
2, 526848, Note_on_c, 0, 60, 64
2, 527232, Note_on_c, 0, 60, 0
2, 527360, Note_on_c, 0, 57, 64
2, 527744, Note_on_c, 0, 57, 0
2, 527872, Note_on_c, 0, 60, 64
2, 528256, Note_on_c, 0, 60, 0
2, 528384, Note_on_c, 0, 65, 50
2, 528768, Note_on_c, 0, 65, 0
2, 528896, Note_on_c, 0, 60, 51
2, 529280, Note_on_c, 0, 60, 0
2, 529408, Note_on_c, 0, 62, 52
2, 530432, Note_on_c, 0, 62, 0
2, 530432, Note_on_c, 0, 60, 55
2, 530688, Note_on_c, 0, 60, 0
2, 530688, Note_on_c, 0, 58, 55
2, 530944, Note_on_c, 0, 58, 0
2, 530944, Note_on_c, 0, 57, 56
2, 531200, Note_on_c, 0, 57, 0
2, 531200, Note_on_c, 0, 55, 56
2, 531456, Note_on_c, 0, 55, 0
2, 531456, Note_on_c, 0, 57, 57
2, 531712, Note_on_c, 0, 57, 0
2, 531712, Note_on_c, 0, 58, 58
2, 531968, Note_on_c, 0, 58, 0
2, 531968, Note_on_c, 0, 60, 58
2, 532224, Note_on_c, 0, 60, 0
2, 532224, Note_on_c, 0, 58, 59
2, 532480, Note_on_c, 0, 58, 0
2, 532480, Note_on_c, 0, 57, 59
2, 532736, Note_on_c, 0, 57, 0
2, 532736, Note_on_c, 0, 55, 60
2, 532992, Note_on_c, 0, 55, 0
2, 532992, Note_on_c, 0, 53, 61
2, 533248, Note_on_c, 0, 53, 0
2, 533248, Note_on_c, 0, 55, 61
2, 533504, Note_on_c, 0, 55, 0
2, 533504, Note_on_c, 0, 57, 62
2, 533760, Note_on_c, 0, 57, 0
2, 533760, Note_on_c, 0, 55, 62
2, 534016, Note_on_c, 0, 55, 0
2, 534016, Note_on_c, 0, 53, 63
2, 534272, Note_on_c, 0, 53, 0
2, 534272, Note_on_c, 0, 52, 63
2, 534528, Note_on_c, 0, 52, 0
2, 534528, Note_on_c, 0, 50, 64
2, 535040, Note_on_c, 0, 50, 0
2, 535040, Note_on_c, 0, 62, 64
2, 535424, Note_on_c, 0, 62, 0
2, 535552, Note_on_c, 0, 70, 64
2, 536576, Note_on_c, 0, 70, 0
2, 536576, Note_on_c, 0, 64, 64
2, 536960, Note_on_c, 0, 64, 0
2, 537088, Note_on_c, 0, 72, 64
2, 537600, Note_on_c, 0, 72, 0
2, 537600, Note_on_c, 0, 69, 64
2, 537984, Note_on_c, 0, 69, 0
2, 538112, Note_on_c, 0, 65, 64
2, 538496, Note_on_c, 0, 65, 0
2, 538624, Note_on_c, 0, 64, 64
2, 538752, Note_on_c, 0, 64, 0
2, 538752, Note_on_c, 0, 65, 64
2, 538880, Note_on_c, 0, 65, 0
2, 538880, Note_on_c, 0, 64, 64
2, 539072, Note_on_c, 0, 64, 0
2, 539136, Note_on_c, 0, 65, 64
2, 540160, Note_on_c, 0, 65, 0
2, 541696, Note_on_c, 0, 69, 64
2, 542080, Note_on_c, 0, 69, 0
2, 542208, Note_on_c, 0, 74, 64
2, 544256, Note_on_c, 0, 74, 0
2, 544256, Note_on_c, 0, 67, 64
2, 544640, Note_on_c, 0, 67, 0
2, 544768, Note_on_c, 0, 71, 64
2, 545152, Note_on_c, 0, 71, 0
2, 545280, Note_on_c, 0, 72, 64
2, 545664, Note_on_c, 0, 72, 0
2, 545792, Note_on_c, 0, 60, 64
2, 546176, Note_on_c, 0, 60, 0
2, 547840, Note_on_c, 0, 67, 64
2, 548224, Note_on_c, 0, 67, 0
2, 548352, Note_on_c, 0, 72, 64
2, 550400, Note_on_c, 0, 72, 0
2, 550400, Note_on_c, 0, 65, 64
2, 550784, Note_on_c, 0, 65, 0
2, 550912, Note_on_c, 0, 69, 64
2, 551296, Note_on_c, 0, 69, 0
2, 551424, Note_on_c, 0, 70, 64
2, 551808, Note_on_c, 0, 70, 0
2, 551936, Note_on_c, 0, 58, 64
2, 552320, Note_on_c, 0, 58, 0
2, 553984, Note_on_c, 0, 70, 64
2, 554368, Note_on_c, 0, 70, 0
2, 554496, Note_on_c, 0, 75, 64
2, 556544, Note_on_c, 0, 75, 0
2, 556544, Note_on_c, 0, 69, 64
2, 556928, Note_on_c, 0, 69, 0
2, 557056, Note_on_c, 0, 72, 64
2, 557440, Note_on_c, 0, 72, 0
2, 557568, Note_on_c, 0, 74, 64
2, 559616, Note_on_c, 0, 74, 0
2, 559616, Note_on_c, 0, 67, 64
2, 560000, Note_on_c, 0, 67, 0
2, 560128, Note_on_c, 0, 70, 64
2, 560512, Note_on_c, 0, 70, 0
2, 560640, Note_on_c, 0, 72, 64
2, 562688, Note_on_c, 0, 72, 0
2, 562688, Note_on_c, 0, 65, 64
2, 563072, Note_on_c, 0, 65, 0
2, 563200, Note_on_c, 0, 70, 64
2, 564224, Note_on_c, 0, 70, 0
2, 564224, Note_on_c, 0, 69, 64
2, 564608, Note_on_c, 0, 69, 0
2, 564736, Note_on_c, 0, 77, 64
2, 565760, Note_on_c, 0, 77, 0
2, 565760, Note_on_c, 0, 72, 64
2, 566144, Note_on_c, 0, 72, 0
2, 566272, Note_on_c, 0, 74, 64
2, 566784, Note_on_c, 0, 74, 0
2, 566784, Note_on_c, 0, 74, 64
2, 567296, Note_on_c, 0, 74, 0
2, 567296, Note_on_c, 0, 72, 64
2, 567680, Note_on_c, 0, 72, 0
2, 567808, Note_on_c, 0, 77, 64
2, 568832, Note_on_c, 0, 77, 0
2, 568832, Note_on_c, 0, 72, 64
2, 569216, Note_on_c, 0, 72, 0
2, 569344, Note_on_c, 0, 74, 64
2, 570368, Note_on_c, 0, 74, 0
2, 570368, Note_on_c, 0, 72, 64
2, 570752, Note_on_c, 0, 72, 0
2, 570880, Note_on_c, 0, 75, 64
2, 571904, Note_on_c, 0, 75, 0
2, 571904, Note_on_c, 0, 69, 64
2, 572288, Note_on_c, 0, 69, 0
2, 572416, Note_on_c, 0, 72, 64
2, 573440, Note_on_c, 0, 72, 0
2, 573440, Note_on_c, 0, 65, 64
2, 573824, Note_on_c, 0, 65, 0
2, 573952, Note_on_c, 0, 69, 64
2, 574976, Note_on_c, 0, 69, 0
2, 574976, Note_on_c, 0, 72, 64
2, 575360, Note_on_c, 0, 72, 0
2, 575488, Note_on_c, 0, 75, 64
2, 576512, Note_on_c, 0, 75, 0
2, 576512, Note_on_c, 0, 74, 64
2, 576896, Note_on_c, 0, 74, 0
2, 577024, Note_on_c, 0, 58, 64
2, 577408, Note_on_c, 0, 58, 0
2, 577536, Note_on_c, 0, 65, 55
2, 577792, Note_on_c, 0, 65, 0
2, 577792, Note_on_c, 0, 67, 55
2, 578048, Note_on_c, 0, 67, 0
2, 578048, Note_on_c, 0, 68, 55
2, 578304, Note_on_c, 0, 68, 0
2, 578304, Note_on_c, 0, 67, 55
2, 578560, Note_on_c, 0, 67, 0
2, 578560, Note_on_c, 0, 65, 55
2, 578816, Note_on_c, 0, 65, 0
2, 578816, Note_on_c, 0, 63, 55
2, 579072, Note_on_c, 0, 63, 0
2, 579072, Note_on_c, 0, 62, 55
2, 579328, Note_on_c, 0, 62, 0
2, 579328, Note_on_c, 0, 63, 55
2, 579584, Note_on_c, 0, 63, 0
2, 579584, Note_on_c, 0, 65, 55
2, 579840, Note_on_c, 0, 65, 0
2, 579840, Note_on_c, 0, 63, 55
2, 580096, Note_on_c, 0, 63, 0
2, 580096, Note_on_c, 0, 62, 55
2, 580352, Note_on_c, 0, 62, 0
2, 580352, Note_on_c, 0, 60, 55
2, 580608, Note_on_c, 0, 60, 0
2, 580608, Note_on_c, 0, 58, 55
2, 580864, Note_on_c, 0, 58, 0
2, 580864, Note_on_c, 0, 60, 55
2, 581120, Note_on_c, 0, 60, 0
2, 581120, Note_on_c, 0, 62, 55
2, 581376, Note_on_c, 0, 62, 0
2, 581376, Note_on_c, 0, 63, 55
2, 581632, Note_on_c, 0, 63, 0
2, 581632, Note_on_c, 0, 65, 55
2, 581888, Note_on_c, 0, 65, 0
2, 581888, Note_on_c, 0, 62, 55
2, 582144, Note_on_c, 0, 62, 0
2, 582144, Note_on_c, 0, 63, 55
2, 582528, Note_on_c, 0, 63, 0
2, 582656, Note_on_c, 0, 51, 55
2, 583040, Note_on_c, 0, 51, 0
2, 583168, Note_on_c, 0, 67, 55
2, 584192, Note_on_c, 0, 67, 0
2, 584192, Note_on_c, 0, 60, 64
2, 584576, Note_on_c, 0, 60, 0
2, 584704, Note_on_c, 0, 70, 64
2, 585728, Note_on_c, 0, 70, 0
2, 585728, Note_on_c, 0, 69, 64
2, 586112, Note_on_c, 0, 69, 0
2, 589312, Note_on_c, 0, 74, 64
2, 590336, Note_on_c, 0, 74, 0
2, 590336, Note_on_c, 0, 72, 66
2, 590720, Note_on_c, 0, 72, 0
2, 590848, Note_on_c, 0, 75, 68
2, 591872, Note_on_c, 0, 75, 0
2, 591872, Note_on_c, 0, 74, 71
2, 592256, Note_on_c, 0, 74, 0
2, 592384, Note_on_c, 0, 77, 73
2, 593408, Note_on_c, 0, 77, 0
2, 593408, Note_on_c, 0, 75, 75
2, 593664, Note_on_c, 0, 75, 0
2, 593664, Note_on_c, 0, 74, 72
2, 593920, Note_on_c, 0, 74, 0
2, 593920, Note_on_c, 0, 72, 69
2, 594176, Note_on_c, 0, 72, 0
2, 594176, Note_on_c, 0, 70, 67
2, 594432, Note_on_c, 0, 70, 0
2, 594432, Note_on_c, 0, 69, 64
2, 594688, Note_on_c, 0, 69, 0
2, 594688, Note_on_c, 0, 67, 61
2, 594944, Note_on_c, 0, 67, 0
2, 594944, Note_on_c, 0, 65, 58
2, 595200, Note_on_c, 0, 65, 0
2, 595200, Note_on_c, 0, 63, 56
2, 595456, Note_on_c, 0, 63, 0
2, 595456, Note_on_c, 0, 62, 53
2, 595712, Note_on_c, 0, 62, 0
2, 595712, Note_on_c, 0, 60, 50
2, 595968, Note_on_c, 0, 60, 0
2, 595968, Note_on_c, 0, 58, 50
2, 596224, Note_on_c, 0, 58, 0
2, 596224, Note_on_c, 0, 57, 50
2, 596480, Note_on_c, 0, 57, 0
2, 596480, Note_on_c, 0, 58, 51
2, 596864, Note_on_c, 0, 58, 0
2, 598272, Note_on_c, 0, 53, 53
2, 598528, Note_on_c, 0, 53, 0
2, 598528, Note_on_c, 0, 55, 53
2, 598784, Note_on_c, 0, 55, 0
2, 598784, Note_on_c, 0, 57, 53
2, 599040, Note_on_c, 0, 57, 0
2, 599040, Note_on_c, 0, 58, 54
2, 599296, Note_on_c, 0, 58, 0
2, 599296, Note_on_c, 0, 57, 54
2, 599552, Note_on_c, 0, 57, 0
2, 599552, Note_on_c, 0, 58, 54
2, 599936, Note_on_c, 0, 58, 0
2, 601344, Note_on_c, 0, 55, 56
2, 601600, Note_on_c, 0, 55, 0
2, 601600, Note_on_c, 0, 57, 56
2, 601856, Note_on_c, 0, 57, 0
2, 601856, Note_on_c, 0, 58, 57
2, 602112, Note_on_c, 0, 58, 0
2, 602112, Note_on_c, 0, 60, 57
2, 602368, Note_on_c, 0, 60, 0
2, 602368, Note_on_c, 0, 58, 57
2, 602624, Note_on_c, 0, 58, 0
2, 602624, Note_on_c, 0, 60, 58
2, 602880, Note_on_c, 0, 60, 0
2, 602880, Note_on_c, 0, 58, 58
2, 603136, Note_on_c, 0, 58, 0
2, 603136, Note_on_c, 0, 57, 58
2, 603392, Note_on_c, 0, 57, 0
2, 603392, Note_on_c, 0, 55, 58
2, 603648, Note_on_c, 0, 55, 0
2, 603648, Note_on_c, 0, 53, 59
2, 604032, Note_on_c, 0, 53, 0
2, 604160, Note_on_c, 0, 57, 59
2, 604544, Note_on_c, 0, 57, 0
2, 604672, Note_on_c, 0, 60, 60
2, 605056, Note_on_c, 0, 60, 0
2, 605184, Note_on_c, 0, 62, 61
2, 605440, Note_on_c, 0, 62, 0
2, 605440, Note_on_c, 0, 60, 61
2, 605696, Note_on_c, 0, 60, 0
2, 605696, Note_on_c, 0, 62, 61
2, 605952, Note_on_c, 0, 62, 0
2, 605952, Note_on_c, 0, 63, 61
2, 606208, Note_on_c, 0, 63, 0
2, 606208, Note_on_c, 0, 62, 62
2, 606464, Note_on_c, 0, 62, 0
2, 606464, Note_on_c, 0, 60, 62
2, 606720, Note_on_c, 0, 60, 0
2, 606720, Note_on_c, 0, 58, 62
2, 606976, Note_on_c, 0, 58, 0
2, 606976, Note_on_c, 0, 62, 63
2, 607232, Note_on_c, 0, 62, 0
2, 607232, Note_on_c, 0, 65, 63
2, 607488, Note_on_c, 0, 65, 0
2, 607488, Note_on_c, 0, 70, 63
2, 607744, Note_on_c, 0, 70, 0
2, 607744, Note_on_c, 0, 74, 63
2, 608000, Note_on_c, 0, 74, 0
2, 608000, Note_on_c, 0, 75, 64
2, 608256, Note_on_c, 0, 75, 0
2, 608256, Note_on_c, 0, 77, 64
2, 608640, Note_on_c, 0, 77, 0
2, 608768, Note_on_c, 0, 70, 64
2, 609152, Note_on_c, 0, 70, 0
2, 609280, Note_on_c, 0, 74, 64
2, 610304, Note_on_c, 0, 74, 0
2, 610304, Note_on_c, 0, 67, 64
2, 610688, Note_on_c, 0, 67, 0
2, 610816, Note_on_c, 0, 75, 64
2, 611840, Note_on_c, 0, 75, 0
2, 611840, Note_on_c, 0, 69, 64
2, 612224, Note_on_c, 0, 69, 0
2, 612352, Note_on_c, 0, 72, 64
2, 613376, Note_on_c, 0, 72, 0
2, 613376, Note_on_c, 0, 65, 64
2, 613760, Note_on_c, 0, 65, 0
2, 613888, Note_on_c, 0, 74, 64
2, 614656, Note_on_c, 0, 74, 0
2, 614656, Note_on_c, 0, 70, 55
2, 614912, Note_on_c, 0, 70, 0
2, 614912, Note_on_c, 0, 69, 55
2, 615168, Note_on_c, 0, 69, 0
2, 615168, Note_on_c, 0, 67, 55
2, 615424, Note_on_c, 0, 67, 0
2, 615424, Note_on_c, 0, 65, 55
2, 615680, Note_on_c, 0, 65, 0
2, 615680, Note_on_c, 0, 63, 55
2, 615936, Note_on_c, 0, 63, 0
2, 615936, Note_on_c, 0, 62, 55
2, 616192, Note_on_c, 0, 62, 0
2, 616192, Note_on_c, 0, 67, 55
2, 616448, Note_on_c, 0, 67, 0
2, 616448, Note_on_c, 0, 65, 55
2, 616704, Note_on_c, 0, 65, 0
2, 616704, Note_on_c, 0, 63, 55
2, 616960, Note_on_c, 0, 63, 0
2, 616960, Note_on_c, 0, 62, 55
2, 617216, Note_on_c, 0, 62, 0
2, 617216, Note_on_c, 0, 60, 55
2, 617472, Note_on_c, 0, 60, 0
2, 617472, Note_on_c, 0, 58, 55
2, 617728, Note_on_c, 0, 58, 0
2, 617728, Note_on_c, 0, 53, 55
2, 617984, Note_on_c, 0, 53, 0
2, 617984, Note_on_c, 0, 55, 55
2, 618240, Note_on_c, 0, 55, 0
2, 618240, Note_on_c, 0, 57, 55
2, 618496, Note_on_c, 0, 57, 0
2, 618496, Note_on_c, 0, 58, 55
2, 618752, Note_on_c, 0, 58, 0
2, 618752, Note_on_c, 0, 60, 55
2, 619008, Note_on_c, 0, 60, 0
2, 619008, Note_on_c, 0, 62, 55
2, 619264, Note_on_c, 0, 62, 0
2, 619264, Note_on_c, 0, 60, 55
2, 619520, Note_on_c, 0, 60, 0
2, 619520, Note_on_c, 0, 58, 55
2, 619776, Note_on_c, 0, 58, 0
2, 619776, Note_on_c, 0, 60, 55
2, 620032, Note_on_c, 0, 60, 0
2, 620032, Note_on_c, 0, 62, 55
2, 620288, Note_on_c, 0, 62, 0
2, 620288, Note_on_c, 0, 63, 55
2, 620544, Note_on_c, 0, 63, 0
2, 620544, Note_on_c, 0, 65, 64
2, 620928, Note_on_c, 0, 65, 0
2, 621056, Note_on_c, 0, 58, 64
2, 621440, Note_on_c, 0, 58, 0
2, 621568, Note_on_c, 0, 67, 64
2, 622592, Note_on_c, 0, 67, 0
2, 622592, Note_on_c, 0, 65, 64
2, 622976, Note_on_c, 0, 65, 0
2, 623104, Note_on_c, 0, 70, 64
2, 624128, Note_on_c, 0, 70, 0
2, 624128, Note_on_c, 0, 65, 64
2, 624512, Note_on_c, 0, 65, 0
2, 624640, Note_on_c, 0, 67, 64
2, 625664, Note_on_c, 0, 67, 0
2, 625664, Note_on_c, 0, 65, 64
2, 626048, Note_on_c, 0, 65, 0
2, 626176, Note_on_c, 0, 70, 64
2, 627200, Note_on_c, 0, 70, 0
2, 627200, Note_on_c, 0, 67, 64
2, 627584, Note_on_c, 0, 67, 0
2, 627712, Note_on_c, 0, 75, 64
2, 628736, Note_on_c, 0, 75, 0
2, 628736, Note_on_c, 0, 69, 64
2, 629120, Note_on_c, 0, 69, 0
2, 629248, Note_on_c, 0, 77, 64
2, 629760, Note_on_c, 0, 77, 0
2, 629760, Note_on_c, 0, 74, 64
2, 630144, Note_on_c, 0, 74, 0
2, 630272, Note_on_c, 0, 70, 64
2, 630656, Note_on_c, 0, 70, 0
2, 630784, Note_on_c, 0, 69, 64
2, 631168, Note_on_c, 0, 69, 0
2, 631296, Note_on_c, 0, 70, 64
2, 631552, Note_on_c, 0, 70, 0
2, 631552, Note_on_c, 0, 65, 64
2, 631808, Note_on_c, 0, 65, 0
2, 631808, Note_on_c, 0, 62, 64
2, 632064, Note_on_c, 0, 62, 0
2, 632064, Note_on_c, 0, 58, 64
2, 632320, Note_on_c, 0, 58, 0
2, 632320, Note_on_c, 0, 62, 64
2, 632576, Note_on_c, 0, 62, 0
2, 632576, Note_on_c, 0, 65, 64
2, 632832, Note_on_c, 0, 65, 0
2, 632832, Note_on_c, 0, 70, 64
2, 633344, Note_on_c, 0, 70, 0
2, 633344, Note_on_c, 0, 69, 64
2, 633728, Note_on_c, 0, 69, 0
2, 633856, Note_on_c, 0, 70, 64
2, 634240, Note_on_c, 0, 70, 0
2, 634368, Note_on_c, 0, 62, 64
2, 634880, Note_on_c, 0, 62, 0
2, 634880, Note_on_c, 0, 65, 64
2, 635264, Note_on_c, 0, 65, 0
2, 635392, Note_on_c, 0, 70, 64
2, 635776, Note_on_c, 0, 70, 0
2, 635904, Note_on_c, 0, 70, 64
2, 636416, Note_on_c, 0, 70, 0
2, 636416, Note_on_c, 0, 69, 64
2, 636800, Note_on_c, 0, 69, 0
2, 636928, Note_on_c, 0, 70, 64
2, 637312, Note_on_c, 0, 70, 0
2, 637440, Note_on_c, 0, 62, 64
2, 637952, Note_on_c, 0, 62, 0
2, 637952, Note_on_c, 0, 65, 64
2, 638336, Note_on_c, 0, 65, 0
2, 638464, Note_on_c, 0, 70, 64
2, 638848, Note_on_c, 0, 70, 0
2, 638976, Note_on_c, 0, 72, 64
2, 639488, Note_on_c, 0, 72, 0
2, 639488, Note_on_c, 0, 70, 64
2, 639872, Note_on_c, 0, 70, 0
2, 640000, Note_on_c, 0, 72, 64
2, 640384, Note_on_c, 0, 72, 0
2, 640512, Note_on_c, 0, 65, 64
2, 641024, Note_on_c, 0, 65, 0
2, 641024, Note_on_c, 0, 69, 64
2, 641408, Note_on_c, 0, 69, 0
2, 641536, Note_on_c, 0, 72, 64
2, 641920, Note_on_c, 0, 72, 0
2, 642048, Note_on_c, 0, 74, 64
2, 642560, Note_on_c, 0, 74, 0
2, 642560, Note_on_c, 0, 72, 64
2, 642944, Note_on_c, 0, 72, 0
2, 643072, Note_on_c, 0, 74, 64
2, 643456, Note_on_c, 0, 74, 0
2, 643584, Note_on_c, 0, 70, 64
2, 644608, Note_on_c, 0, 70, 0
2, 644608, Note_on_c, 0, 74, 64
2, 645632, Note_on_c, 0, 74, 0
2, 645632, Note_on_c, 0, 67, 64
2, 646016, Note_on_c, 0, 67, 0
2, 646144, Note_on_c, 0, 70, 64
2, 647168, Note_on_c, 0, 70, 0
2, 647168, Note_on_c, 0, 64, 64
2, 647552, Note_on_c, 0, 64, 0
2, 647680, Note_on_c, 0, 72, 64
2, 648704, Note_on_c, 0, 72, 0
2, 648704, Note_on_c, 0, 65, 64
2, 649088, Note_on_c, 0, 65, 0
2, 649216, Note_on_c, 0, 69, 64
2, 650240, Note_on_c, 0, 69, 0
2, 650240, Note_on_c, 0, 62, 64
2, 650624, Note_on_c, 0, 62, 0
2, 650752, Note_on_c, 0, 70, 64
2, 651776, Note_on_c, 0, 70, 0
2, 651776, Note_on_c, 0, 64, 64
2, 652160, Note_on_c, 0, 64, 0
2, 652288, Note_on_c, 0, 67, 64
2, 653312, Note_on_c, 0, 67, 0
2, 653312, Note_on_c, 0, 60, 64
2, 653696, Note_on_c, 0, 60, 0
2, 653824, Note_on_c, 0, 70, 64
2, 654208, Note_on_c, 0, 70, 0
2, 654336, Note_on_c, 0, 69, 64
2, 654848, Note_on_c, 0, 69, 0
2, 654848, Note_on_c, 0, 67, 64
2, 655232, Note_on_c, 0, 67, 0
2, 655360, Note_on_c, 0, 69, 64
2, 655744, Note_on_c, 0, 69, 0
2, 655872, Note_on_c, 0, 65, 64
2, 656384, Note_on_c, 0, 65, 0
2, 656384, Note_on_c, 0, 69, 64
2, 656768, Note_on_c, 0, 69, 0
2, 656896, Note_on_c, 0, 72, 64
2, 657280, Note_on_c, 0, 72, 0
2, 657408, Note_on_c, 0, 77, 64
2, 657792, Note_on_c, 0, 77, 0
2, 657920, Note_on_c, 0, 70, 64
2, 658304, Note_on_c, 0, 70, 0
2, 658432, Note_on_c, 0, 74, 64
2, 659456, Note_on_c, 0, 74, 0
2, 659456, Note_on_c, 0, 67, 64
2, 659840, Note_on_c, 0, 67, 0
2, 659968, Note_on_c, 0, 75, 64
2, 660992, Note_on_c, 0, 75, 0
2, 660992, Note_on_c, 0, 69, 64
2, 661376, Note_on_c, 0, 69, 0
2, 661504, Note_on_c, 0, 72, 64
2, 662528, Note_on_c, 0, 72, 0
2, 662528, Note_on_c, 0, 65, 64
2, 662912, Note_on_c, 0, 65, 0
2, 663040, Note_on_c, 0, 74, 64
2, 664064, Note_on_c, 0, 74, 0
2, 664064, Note_on_c, 0, 65, 64
2, 664448, Note_on_c, 0, 65, 0
2, 664576, Note_on_c, 0, 70, 64
2, 665600, Note_on_c, 0, 70, 0
2, 665600, Note_on_c, 0, 62, 64
2, 665984, Note_on_c, 0, 62, 0
2, 666112, Note_on_c, 0, 65, 64
2, 667136, Note_on_c, 0, 65, 0
2, 667136, Note_on_c, 0, 58, 64
2, 667520, Note_on_c, 0, 58, 0
2, 667648, Note_on_c, 0, 62, 64
2, 668032, Note_on_c, 0, 62, 0
2, 668160, Note_on_c, 0, 65, 64
2, 668544, Note_on_c, 0, 65, 0
2, 668672, Note_on_c, 0, 62, 64
2, 669056, Note_on_c, 0, 62, 0
2, 669184, Note_on_c, 0, 65, 64
2, 669568, Note_on_c, 0, 65, 0
2, 669696, Note_on_c, 0, 70, 64
2, 670080, Note_on_c, 0, 70, 0
2, 670208, Note_on_c, 0, 65, 64
2, 670592, Note_on_c, 0, 65, 0
2, 670720, Note_on_c, 0, 67, 64
2, 671744, Note_on_c, 0, 67, 0
2, 671744, Note_on_c, 0, 65, 64
2, 672128, Note_on_c, 0, 65, 0
2, 672256, Note_on_c, 0, 70, 64
2, 673280, Note_on_c, 0, 70, 0
2, 673280, Note_on_c, 0, 65, 64
2, 673664, Note_on_c, 0, 65, 0
2, 673792, Note_on_c, 0, 67, 64
2, 674816, Note_on_c, 0, 67, 0
2, 674816, Note_on_c, 0, 65, 64
2, 675200, Note_on_c, 0, 65, 0
2, 675328, Note_on_c, 0, 70, 64
2, 676352, Note_on_c, 0, 70, 0
2, 676352, Note_on_c, 0, 67, 64
2, 676736, Note_on_c, 0, 67, 0
2, 676864, Note_on_c, 0, 75, 64
2, 677888, Note_on_c, 0, 75, 0
2, 677888, Note_on_c, 0, 69, 64
2, 678272, Note_on_c, 0, 69, 0
2, 678400, Note_on_c, 0, 77, 64
2, 678912, Note_on_c, 0, 77, 0
2, 678912, Note_on_c, 0, 74, 64
2, 679296, Note_on_c, 0, 74, 0
2, 679424, Note_on_c, 0, 70, 64
2, 679808, Note_on_c, 0, 70, 0
2, 679936, Note_on_c, 0, 69, 64
2, 680064, Note_on_c, 0, 69, 0
2, 680064, Note_on_c, 0, 67, 64
2, 680192, Note_on_c, 0, 67, 0
2, 680192, Note_on_c, 0, 69, 64
2, 680384, Note_on_c, 0, 69, 0
2, 680448, Note_on_c, 0, 70, 64
2, 683520, Note_on_c, 0, 70, 0
2, 688128, Control_c, 0, 91, 127
2, 688128, End_track
3, 0, Start_track
3, 0, Program_c, 1, 41
3, 0, Control_c, 1, 121, 127
3, 0, Control_c, 1, 91, 127
3, 0, Control_c, 1, 1, 10
3, 0, Control_c, 1, 10, 80
3, 0, Title_t, "Viola II da braccio"
3, 5632, Note_on_c, 1, 65, 64
3, 6016, Note_on_c, 1, 65, 0
3, 6144, Note_on_c, 1, 70, 64
3, 6656, Note_on_c, 1, 70, 0
3, 6656, Note_on_c, 1, 69, 64
3, 7040, Note_on_c, 1, 69, 0
3, 7168, Note_on_c, 1, 70, 64
3, 7552, Note_on_c, 1, 70, 0
3, 7680, Note_on_c, 1, 62, 64
3, 8192, Note_on_c, 1, 62, 0
3, 8192, Note_on_c, 1, 65, 64
3, 8576, Note_on_c, 1, 65, 0
3, 8704, Note_on_c, 1, 70, 64
3, 9088, Note_on_c, 1, 70, 0
3, 9216, Note_on_c, 1, 70, 64
3, 9728, Note_on_c, 1, 70, 0
3, 9728, Note_on_c, 1, 69, 64
3, 10112, Note_on_c, 1, 69, 0
3, 10240, Note_on_c, 1, 70, 64
3, 10624, Note_on_c, 1, 70, 0
3, 10752, Note_on_c, 1, 62, 64
3, 11264, Note_on_c, 1, 62, 0
3, 11264, Note_on_c, 1, 65, 64
3, 11648, Note_on_c, 1, 65, 0
3, 11776, Note_on_c, 1, 70, 64
3, 12160, Note_on_c, 1, 70, 0
3, 12288, Note_on_c, 1, 72, 64
3, 12800, Note_on_c, 1, 72, 0
3, 12800, Note_on_c, 1, 70, 64
3, 13184, Note_on_c, 1, 70, 0
3, 13312, Note_on_c, 1, 72, 64
3, 13696, Note_on_c, 1, 72, 0
3, 13824, Note_on_c, 1, 65, 64
3, 14336, Note_on_c, 1, 65, 0
3, 14336, Note_on_c, 1, 69, 64
3, 14720, Note_on_c, 1, 69, 0
3, 14848, Note_on_c, 1, 72, 64
3, 15232, Note_on_c, 1, 72, 0
3, 15360, Note_on_c, 1, 74, 64
3, 15872, Note_on_c, 1, 74, 0
3, 15872, Note_on_c, 1, 72, 64
3, 16256, Note_on_c, 1, 72, 0
3, 16384, Note_on_c, 1, 74, 64
3, 16768, Note_on_c, 1, 74, 0
3, 16896, Note_on_c, 1, 70, 64
3, 17920, Note_on_c, 1, 70, 0
3, 17920, Note_on_c, 1, 74, 64
3, 18944, Note_on_c, 1, 74, 0
3, 18944, Note_on_c, 1, 67, 64
3, 19328, Note_on_c, 1, 67, 0
3, 19456, Note_on_c, 1, 70, 64
3, 20480, Note_on_c, 1, 70, 0
3, 20480, Note_on_c, 1, 64, 64
3, 20864, Note_on_c, 1, 64, 0
3, 20992, Note_on_c, 1, 72, 64
3, 22016, Note_on_c, 1, 72, 0
3, 22016, Note_on_c, 1, 65, 64
3, 22400, Note_on_c, 1, 65, 0
3, 22528, Note_on_c, 1, 69, 64
3, 23552, Note_on_c, 1, 69, 0
3, 23552, Note_on_c, 1, 62, 64
3, 23936, Note_on_c, 1, 62, 0
3, 24064, Note_on_c, 1, 70, 64
3, 25088, Note_on_c, 1, 70, 0
3, 25088, Note_on_c, 1, 64, 64
3, 25472, Note_on_c, 1, 64, 0
3, 25600, Note_on_c, 1, 67, 64
3, 26624, Note_on_c, 1, 67, 0
3, 26624, Note_on_c, 1, 60, 64
3, 27008, Note_on_c, 1, 60, 0
3, 27136, Note_on_c, 1, 70, 64
3, 27520, Note_on_c, 1, 70, 0
3, 27648, Note_on_c, 1, 69, 64
3, 28160, Note_on_c, 1, 69, 0
3, 28160, Note_on_c, 1, 67, 64
3, 28544, Note_on_c, 1, 67, 0
3, 28672, Note_on_c, 1, 69, 64
3, 29056, Note_on_c, 1, 69, 0
3, 29184, Note_on_c, 1, 65, 64
3, 29696, Note_on_c, 1, 65, 0
3, 29696, Note_on_c, 1, 69, 64
3, 30080, Note_on_c, 1, 69, 0
3, 30208, Note_on_c, 1, 72, 64
3, 30592, Note_on_c, 1, 72, 0
3, 30720, Note_on_c, 1, 77, 64
3, 31104, Note_on_c, 1, 77, 0
3, 31232, Note_on_c, 1, 70, 64
3, 31616, Note_on_c, 1, 70, 0
3, 31744, Note_on_c, 1, 74, 64
3, 32768, Note_on_c, 1, 74, 0
3, 32768, Note_on_c, 1, 67, 64
3, 33152, Note_on_c, 1, 67, 0
3, 33280, Note_on_c, 1, 75, 64
3, 34304, Note_on_c, 1, 75, 0
3, 34304, Note_on_c, 1, 69, 64
3, 34688, Note_on_c, 1, 69, 0
3, 34816, Note_on_c, 1, 72, 64
3, 35840, Note_on_c, 1, 72, 0
3, 35840, Note_on_c, 1, 65, 64
3, 36224, Note_on_c, 1, 65, 0
3, 36352, Note_on_c, 1, 74, 64
3, 37376, Note_on_c, 1, 74, 0
3, 37376, Note_on_c, 1, 65, 64
3, 37760, Note_on_c, 1, 65, 0
3, 37888, Note_on_c, 1, 70, 64
3, 38912, Note_on_c, 1, 70, 0
3, 38912, Note_on_c, 1, 62, 64
3, 39296, Note_on_c, 1, 62, 0
3, 39424, Note_on_c, 1, 65, 64
3, 40448, Note_on_c, 1, 65, 0
3, 40448, Note_on_c, 1, 58, 64
3, 40832, Note_on_c, 1, 58, 0
3, 40960, Note_on_c, 1, 62, 64
3, 41344, Note_on_c, 1, 62, 0
3, 41472, Note_on_c, 1, 65, 64
3, 41856, Note_on_c, 1, 65, 0
3, 41984, Note_on_c, 1, 62, 64
3, 42368, Note_on_c, 1, 62, 0
3, 42496, Note_on_c, 1, 65, 64
3, 42880, Note_on_c, 1, 65, 0
3, 43008, Note_on_c, 1, 70, 64
3, 43392, Note_on_c, 1, 70, 0
3, 43520, Note_on_c, 1, 65, 64
3, 43904, Note_on_c, 1, 65, 0
3, 44032, Note_on_c, 1, 67, 64
3, 45056, Note_on_c, 1, 67, 0
3, 45056, Note_on_c, 1, 65, 64
3, 45440, Note_on_c, 1, 65, 0
3, 45568, Note_on_c, 1, 70, 64
3, 46592, Note_on_c, 1, 70, 0
3, 46592, Note_on_c, 1, 65, 64
3, 46976, Note_on_c, 1, 65, 0
3, 47104, Note_on_c, 1, 67, 64
3, 48128, Note_on_c, 1, 67, 0
3, 48128, Note_on_c, 1, 65, 64
3, 48512, Note_on_c, 1, 65, 0
3, 48640, Note_on_c, 1, 70, 64
3, 49664, Note_on_c, 1, 70, 0
3, 49664, Note_on_c, 1, 67, 64
3, 50048, Note_on_c, 1, 67, 0
3, 50176, Note_on_c, 1, 75, 64
3, 51200, Note_on_c, 1, 75, 0
3, 51200, Note_on_c, 1, 69, 64
3, 51584, Note_on_c, 1, 69, 0
3, 51712, Note_on_c, 1, 77, 64
3, 52224, Note_on_c, 1, 77, 0
3, 52224, Note_on_c, 1, 74, 64
3, 52608, Note_on_c, 1, 74, 0
3, 52736, Note_on_c, 1, 70, 64
3, 53120, Note_on_c, 1, 70, 0
3, 53248, Note_on_c, 1, 69, 64
3, 53632, Note_on_c, 1, 69, 0
3, 53760, Note_on_c, 1, 70, 64
3, 54784, Note_on_c, 1, 70, 0
3, 56064, Note_on_c, 1, 65, 45
3, 56320, Note_on_c, 1, 65, 0
3, 56320, Note_on_c, 1, 67, 45
3, 56576, Note_on_c, 1, 67, 0
3, 56576, Note_on_c, 1, 69, 45
3, 56832, Note_on_c, 1, 69, 0
3, 56832, Note_on_c, 1, 70, 45
3, 57088, Note_on_c, 1, 70, 0
3, 57088, Note_on_c, 1, 69, 45
3, 57344, Note_on_c, 1, 69, 0
3, 57344, Note_on_c, 1, 70, 45
3, 57728, Note_on_c, 1, 70, 0
3, 59136, Note_on_c, 1, 65, 45
3, 59392, Note_on_c, 1, 65, 0
3, 59392, Note_on_c, 1, 67, 45
3, 59648, Note_on_c, 1, 67, 0
3, 59648, Note_on_c, 1, 69, 45
3, 59904, Note_on_c, 1, 69, 0
3, 59904, Note_on_c, 1, 70, 45
3, 60160, Note_on_c, 1, 70, 0
3, 60160, Note_on_c, 1, 69, 45
3, 60416, Note_on_c, 1, 69, 0
3, 60416, Note_on_c, 1, 70, 45
3, 60800, Note_on_c, 1, 70, 0
3, 62208, Note_on_c, 1, 67, 45
3, 62464, Note_on_c, 1, 67, 0
3, 62464, Note_on_c, 1, 69, 45
3, 62720, Note_on_c, 1, 69, 0
3, 62720, Note_on_c, 1, 70, 45
3, 62976, Note_on_c, 1, 70, 0
3, 62976, Note_on_c, 1, 72, 45
3, 63232, Note_on_c, 1, 72, 0
3, 63232, Note_on_c, 1, 70, 45
3, 63488, Note_on_c, 1, 70, 0
3, 63488, Note_on_c, 1, 72, 45
3, 63744, Note_on_c, 1, 72, 0
3, 63744, Note_on_c, 1, 70, 45
3, 64000, Note_on_c, 1, 70, 0
3, 64000, Note_on_c, 1, 69, 45
3, 64256, Note_on_c, 1, 69, 0
3, 64256, Note_on_c, 1, 67, 45
3, 64512, Note_on_c, 1, 67, 0
3, 64512, Note_on_c, 1, 65, 45
3, 64768, Note_on_c, 1, 65, 0
3, 64768, Note_on_c, 1, 63, 45
3, 65024, Note_on_c, 1, 63, 0
3, 65024, Note_on_c, 1, 65, 45
3, 65280, Note_on_c, 1, 65, 0
3, 65280, Note_on_c, 1, 67, 45
3, 65536, Note_on_c, 1, 67, 0
3, 65536, Note_on_c, 1, 65, 45
3, 65792, Note_on_c, 1, 65, 0
3, 65792, Note_on_c, 1, 63, 45
3, 66048, Note_on_c, 1, 63, 0
3, 66048, Note_on_c, 1, 62, 45
3, 66304, Note_on_c, 1, 62, 0
3, 66304, Note_on_c, 1, 60, 45
3, 66560, Note_on_c, 1, 60, 0
3, 66560, Note_on_c, 1, 62, 45
3, 66816, Note_on_c, 1, 62, 0
3, 66816, Note_on_c, 1, 63, 45
3, 67072, Note_on_c, 1, 63, 0
3, 67072, Note_on_c, 1, 65, 45
3, 67328, Note_on_c, 1, 65, 0
3, 67328, Note_on_c, 1, 62, 45
3, 67584, Note_on_c, 1, 62, 0
3, 67584, Note_on_c, 1, 67, 45
3, 67840, Note_on_c, 1, 67, 0
3, 67840, Note_on_c, 1, 69, 45
3, 68096, Note_on_c, 1, 69, 0
3, 68096, Note_on_c, 1, 70, 46
3, 68352, Note_on_c, 1, 70, 0
3, 68352, Note_on_c, 1, 69, 46
3, 68608, Note_on_c, 1, 69, 0
3, 68608, Note_on_c, 1, 67, 47
3, 68864, Note_on_c, 1, 67, 0
3, 68864, Note_on_c, 1, 65, 47
3, 69120, Note_on_c, 1, 65, 0
3, 69120, Note_on_c, 1, 64, 47
3, 69376, Note_on_c, 1, 64, 0
3, 69376, Note_on_c, 1, 62, 48
3, 69632, Note_on_c, 1, 62, 0
3, 69632, Note_on_c, 1, 60, 48
3, 69888, Note_on_c, 1, 60, 0
3, 69888, Note_on_c, 1, 62, 49
3, 70144, Note_on_c, 1, 62, 0
3, 70144, Note_on_c, 1, 64, 49
3, 70400, Note_on_c, 1, 64, 0
3, 70400, Note_on_c, 1, 60, 49
3, 70656, Note_on_c, 1, 60, 0
3, 70656, Note_on_c, 1, 65, 50
3, 70912, Note_on_c, 1, 65, 0
3, 70912, Note_on_c, 1, 67, 50
3, 71168, Note_on_c, 1, 67, 0
3, 71168, Note_on_c, 1, 69, 51
3, 71424, Note_on_c, 1, 69, 0
3, 71424, Note_on_c, 1, 67, 51
3, 71680, Note_on_c, 1, 67, 0
3, 71680, Note_on_c, 1, 65, 51
3, 71936, Note_on_c, 1, 65, 0
3, 71936, Note_on_c, 1, 64, 52
3, 72192, Note_on_c, 1, 64, 0
3, 72192, Note_on_c, 1, 62, 52
3, 72448, Note_on_c, 1, 62, 0
3, 72448, Note_on_c, 1, 60, 53
3, 72704, Note_on_c, 1, 60, 0
3, 72704, Note_on_c, 1, 58, 53
3, 72960, Note_on_c, 1, 58, 0
3, 72960, Note_on_c, 1, 60, 53
3, 73216, Note_on_c, 1, 60, 0
3, 73216, Note_on_c, 1, 62, 54
3, 73472, Note_on_c, 1, 62, 0
3, 73472, Note_on_c, 1, 58, 54
3, 73728, Note_on_c, 1, 58, 0
3, 73728, Note_on_c, 1, 64, 55
3, 73984, Note_on_c, 1, 64, 0
3, 73984, Note_on_c, 1, 65, 55
3, 74240, Note_on_c, 1, 65, 0
3, 74240, Note_on_c, 1, 67, 55
3, 74496, Note_on_c, 1, 67, 0
3, 74496, Note_on_c, 1, 65, 56
3, 74752, Note_on_c, 1, 65, 0
3, 74752, Note_on_c, 1, 64, 56
3, 75008, Note_on_c, 1, 64, 0
3, 75008, Note_on_c, 1, 62, 56
3, 75264, Note_on_c, 1, 62, 0
3, 75264, Note_on_c, 1, 60, 57
3, 75520, Note_on_c, 1, 60, 0
3, 75520, Note_on_c, 1, 62, 57
3, 75776, Note_on_c, 1, 62, 0
3, 75776, Note_on_c, 1, 64, 58
3, 76032, Note_on_c, 1, 64, 0
3, 76032, Note_on_c, 1, 62, 58
3, 76288, Note_on_c, 1, 62, 0
3, 76288, Note_on_c, 1, 60, 58
3, 76544, Note_on_c, 1, 60, 0
3, 76544, Note_on_c, 1, 58, 59
3, 76800, Note_on_c, 1, 58, 0
3, 76800, Note_on_c, 1, 60, 59
3, 77056, Note_on_c, 1, 60, 0
3, 77056, Note_on_c, 1, 65, 60
3, 77312, Note_on_c, 1, 65, 0
3, 77312, Note_on_c, 1, 64, 60
3, 77568, Note_on_c, 1, 64, 0
3, 77568, Note_on_c, 1, 62, 60
3, 77824, Note_on_c, 1, 62, 0
3, 77824, Note_on_c, 1, 60, 61
3, 78080, Note_on_c, 1, 60, 0
3, 78080, Note_on_c, 1, 58, 61
3, 78336, Note_on_c, 1, 58, 0
3, 78336, Note_on_c, 1, 57, 62
3, 78592, Note_on_c, 1, 57, 0
3, 78592, Note_on_c, 1, 58, 62
3, 78848, Note_on_c, 1, 58, 0
3, 78848, Note_on_c, 1, 60, 62
3, 79104, Note_on_c, 1, 60, 0
3, 79104, Note_on_c, 1, 58, 63
3, 79360, Note_on_c, 1, 58, 0
3, 79360, Note_on_c, 1, 57, 63
3, 79616, Note_on_c, 1, 57, 0
3, 79616, Note_on_c, 1, 55, 64
3, 79872, Note_on_c, 1, 55, 0
3, 79872, Note_on_c, 1, 53, 64
3, 80896, Note_on_c, 1, 53, 0
3, 80896, Note_on_c, 1, 65, 64
3, 81280, Note_on_c, 1, 65, 0
3, 81408, Note_on_c, 1, 57, 64
3, 81920, Note_on_c, 1, 57, 0
3, 81920, Note_on_c, 1, 60, 64
3, 82304, Note_on_c, 1, 60, 0
3, 82432, Note_on_c, 1, 65, 64
3, 82816, Note_on_c, 1, 65, 0
3, 82944, Note_on_c, 1, 65, 64
3, 83456, Note_on_c, 1, 65, 0
3, 83456, Note_on_c, 1, 64, 64
3, 83840, Note_on_c, 1, 64, 0
3, 83968, Note_on_c, 1, 65, 64
3, 84352, Note_on_c, 1, 65, 0
3, 84480, Note_on_c, 1, 57, 64
3, 84992, Note_on_c, 1, 57, 0
3, 84992, Note_on_c, 1, 60, 64
3, 85376, Note_on_c, 1, 60, 0
3, 85504, Note_on_c, 1, 65, 64
3, 85888, Note_on_c, 1, 65, 0
3, 86016, Note_on_c, 1, 67, 64
3, 86528, Note_on_c, 1, 67, 0
3, 86528, Note_on_c, 1, 65, 64
3, 86912, Note_on_c, 1, 65, 0
3, 87040, Note_on_c, 1, 67, 64
3, 87424, Note_on_c, 1, 67, 0
3, 87552, Note_on_c, 1, 60, 64
3, 88064, Note_on_c, 1, 60, 0
3, 88064, Note_on_c, 1, 64, 64
3, 88448, Note_on_c, 1, 64, 0
3, 88576, Note_on_c, 1, 67, 64
3, 88960, Note_on_c, 1, 67, 0
3, 89088, Note_on_c, 1, 69, 64
3, 89600, Note_on_c, 1, 69, 0
3, 89600, Note_on_c, 1, 67, 64
3, 89984, Note_on_c, 1, 67, 0
3, 90112, Note_on_c, 1, 69, 64
3, 90496, Note_on_c, 1, 69, 0
3, 90624, Note_on_c, 1, 65, 64
3, 91392, Note_on_c, 1, 65, 0
3, 91392, Note_on_c, 1, 60, 64
3, 91648, Note_on_c, 1, 60, 0
3, 91648, Note_on_c, 1, 62, 64
3, 91904, Note_on_c, 1, 62, 0
3, 91904, Note_on_c, 1, 64, 64
3, 92160, Note_on_c, 1, 64, 0
3, 92160, Note_on_c, 1, 65, 45
3, 92416, Note_on_c, 1, 65, 0
3, 92416, Note_on_c, 1, 64, 45
3, 92672, Note_on_c, 1, 64, 0
3, 92672, Note_on_c, 1, 65, 45
3, 93056, Note_on_c, 1, 65, 0
3, 94464, Note_on_c, 1, 60, 45
3, 94720, Note_on_c, 1, 60, 0
3, 94720, Note_on_c, 1, 62, 45
3, 94976, Note_on_c, 1, 62, 0
3, 94976, Note_on_c, 1, 64, 45
3, 95232, Note_on_c, 1, 64, 0
3, 95232, Note_on_c, 1, 65, 45
3, 95488, Note_on_c, 1, 65, 0
3, 95488, Note_on_c, 1, 64, 45
3, 95744, Note_on_c, 1, 64, 0
3, 95744, Note_on_c, 1, 65, 45
3, 96128, Note_on_c, 1, 65, 0
3, 97536, Note_on_c, 1, 62, 45
3, 97792, Note_on_c, 1, 62, 0
3, 97792, Note_on_c, 1, 64, 45
3, 98048, Note_on_c, 1, 64, 0
3, 98048, Note_on_c, 1, 65, 45
3, 98304, Note_on_c, 1, 65, 0
3, 98304, Note_on_c, 1, 67, 45
3, 98560, Note_on_c, 1, 67, 0
3, 98560, Note_on_c, 1, 65, 45
3, 98816, Note_on_c, 1, 65, 0
3, 98816, Note_on_c, 1, 67, 45
3, 99072, Note_on_c, 1, 67, 0
3, 99072, Note_on_c, 1, 65, 45
3, 99328, Note_on_c, 1, 65, 0
3, 99328, Note_on_c, 1, 64, 45
3, 99584, Note_on_c, 1, 64, 0
3, 99584, Note_on_c, 1, 62, 45
3, 99840, Note_on_c, 1, 62, 0
3, 99840, Note_on_c, 1, 60, 45
3, 100224, Note_on_c, 1, 60, 0
3, 100352, Note_on_c, 1, 64, 45
3, 100736, Note_on_c, 1, 64, 0
3, 100864, Note_on_c, 1, 67, 45
3, 101248, Note_on_c, 1, 67, 0
3, 101376, Note_on_c, 1, 69, 45
3, 101632, Note_on_c, 1, 69, 0
3, 101632, Note_on_c, 1, 67, 45
3, 101888, Note_on_c, 1, 67, 0
3, 101888, Note_on_c, 1, 69, 45
3, 102144, Note_on_c, 1, 69, 0
3, 102144, Note_on_c, 1, 70, 45
3, 102400, Note_on_c, 1, 70, 0
3, 102400, Note_on_c, 1, 69, 45
3, 102656, Note_on_c, 1, 69, 0
3, 102656, Note_on_c, 1, 67, 45
3, 102912, Note_on_c, 1, 67, 0
3, 102912, Note_on_c, 1, 65, 64
3, 103296, Note_on_c, 1, 65, 0
3, 103424, Note_on_c, 1, 60, 64
3, 103808, Note_on_c, 1, 60, 0
3, 103936, Note_on_c, 1, 69, 64
3, 104960, Note_on_c, 1, 69, 0
3, 104960, Note_on_c, 1, 62, 64
3, 105344, Note_on_c, 1, 62, 0
3, 105472, Note_on_c, 1, 65, 64
3, 106496, Note_on_c, 1, 65, 0
3, 106496, Note_on_c, 1, 59, 64
3, 106880, Note_on_c, 1, 59, 0
3, 107008, Note_on_c, 1, 67, 64
3, 108032, Note_on_c, 1, 67, 0
3, 108032, Note_on_c, 1, 60, 64
3, 108416, Note_on_c, 1, 60, 0
3, 108544, Note_on_c, 1, 64, 64
3, 109568, Note_on_c, 1, 64, 0
3, 109568, Note_on_c, 1, 57, 64
3, 109952, Note_on_c, 1, 57, 0
3, 110080, Note_on_c, 1, 65, 64
3, 111104, Note_on_c, 1, 65, 0
3, 111104, Note_on_c, 1, 59, 64
3, 111488, Note_on_c, 1, 59, 0
3, 111616, Note_on_c, 1, 62, 64
3, 112640, Note_on_c, 1, 62, 0
3, 112640, Note_on_c, 1, 55, 64
3, 113024, Note_on_c, 1, 55, 0
3, 113152, Note_on_c, 1, 65, 64
3, 113536, Note_on_c, 1, 65, 0
3, 113664, Note_on_c, 1, 64, 64
3, 114176, Note_on_c, 1, 64, 0
3, 114176, Note_on_c, 1, 62, 64
3, 114560, Note_on_c, 1, 62, 0
3, 114688, Note_on_c, 1, 64, 64
3, 115072, Note_on_c, 1, 64, 0
3, 115200, Note_on_c, 1, 60, 64
3, 115712, Note_on_c, 1, 60, 0
3, 115712, Note_on_c, 1, 64, 64
3, 116096, Note_on_c, 1, 64, 0
3, 116224, Note_on_c, 1, 67, 64
3, 116608, Note_on_c, 1, 67, 0
3, 116736, Note_on_c, 1, 72, 64
3, 117120, Note_on_c, 1, 72, 0
3, 117248, Note_on_c, 1, 65, 64
3, 117632, Note_on_c, 1, 65, 0
3, 117760, Note_on_c, 1, 69, 64
3, 118784, Note_on_c, 1, 69, 0
3, 118784, Note_on_c, 1, 62, 64
3, 119168, Note_on_c, 1, 62, 0
3, 119296, Note_on_c, 1, 70, 64
3, 120320, Note_on_c, 1, 70, 0
3, 120320, Note_on_c, 1, 64, 64
3, 120704, Note_on_c, 1, 64, 0
3, 120832, Note_on_c, 1, 67, 64
3, 121856, Note_on_c, 1, 67, 0
3, 121856, Note_on_c, 1, 60, 64
3, 122240, Note_on_c, 1, 60, 0
3, 122368, Note_on_c, 1, 69, 64
3, 123136, Note_on_c, 1, 69, 0
3, 123136, Note_on_c, 1, 65, 51
3, 123392, Note_on_c, 1, 65, 0
3, 123392, Note_on_c, 1, 64, 51
3, 123648, Note_on_c, 1, 64, 0
3, 123648, Note_on_c, 1, 62, 52
3, 123904, Note_on_c, 1, 62, 0
3, 123904, Note_on_c, 1, 60, 52
3, 124160, Note_on_c, 1, 60, 0
3, 124160, Note_on_c, 1, 58, 53
3, 124416, Note_on_c, 1, 58, 0
3, 124416, Note_on_c, 1, 57, 54
3, 124672, Note_on_c, 1, 57, 0
3, 124672, Note_on_c, 1, 62, 54
3, 124928, Note_on_c, 1, 62, 0
3, 124928, Note_on_c, 1, 60, 55
3, 125184, Note_on_c, 1, 60, 0
3, 125184, Note_on_c, 1, 58, 55
3, 125440, Note_on_c, 1, 58, 0
3, 125440, Note_on_c, 1, 57, 56
3, 125696, Note_on_c, 1, 57, 0
3, 125696, Note_on_c, 1, 55, 56
3, 125952, Note_on_c, 1, 55, 0
3, 125952, Note_on_c, 1, 53, 57
3, 126208, Note_on_c, 1, 53, 0
3, 126208, Note_on_c, 1, 48, 58
3, 126464, Note_on_c, 1, 48, 0
3, 126464, Note_on_c, 1, 50, 58
3, 126720, Note_on_c, 1, 50, 0
3, 126720, Note_on_c, 1, 52, 59
3, 126976, Note_on_c, 1, 52, 0
3, 126976, Note_on_c, 1, 53, 59
3, 127232, Note_on_c, 1, 53, 0
3, 127232, Note_on_c, 1, 55, 60
3, 127488, Note_on_c, 1, 55, 0
3, 127488, Note_on_c, 1, 57, 61
3, 127744, Note_on_c, 1, 57, 0
3, 127744, Note_on_c, 1, 55, 61
3, 128000, Note_on_c, 1, 55, 0
3, 128000, Note_on_c, 1, 53, 62
3, 128256, Note_on_c, 1, 53, 0
3, 128256, Note_on_c, 1, 55, 62
3, 128512, Note_on_c, 1, 55, 0
3, 128512, Note_on_c, 1, 57, 63
3, 128768, Note_on_c, 1, 57, 0
3, 128768, Note_on_c, 1, 58, 63
3, 129024, Note_on_c, 1, 58, 0
3, 129024, Note_on_c, 1, 60, 64
3, 129408, Note_on_c, 1, 60, 0
3, 129536, Note_on_c, 1, 53, 64
3, 129920, Note_on_c, 1, 53, 0
3, 130048, Note_on_c, 1, 62, 64
3, 131072, Note_on_c, 1, 62, 0
3, 131072, Note_on_c, 1, 60, 64
3, 131456, Note_on_c, 1, 60, 0
3, 131584, Note_on_c, 1, 65, 64
3, 132608, Note_on_c, 1, 65, 0
3, 132608, Note_on_c, 1, 60, 64
3, 132992, Note_on_c, 1, 60, 0
3, 133120, Note_on_c, 1, 62, 64
3, 134144, Note_on_c, 1, 62, 0
3, 134144, Note_on_c, 1, 60, 64
3, 134528, Note_on_c, 1, 60, 0
3, 134656, Note_on_c, 1, 65, 64
3, 135680, Note_on_c, 1, 65, 0
3, 135680, Note_on_c, 1, 62, 64
3, 136064, Note_on_c, 1, 62, 0
3, 136192, Note_on_c, 1, 70, 64
3, 137216, Note_on_c, 1, 70, 0
3, 137216, Note_on_c, 1, 64, 64
3, 137600, Note_on_c, 1, 64, 0
3, 137728, Note_on_c, 1, 72, 64
3, 138240, Note_on_c, 1, 72, 0
3, 138240, Note_on_c, 1, 69, 64
3, 138624, Note_on_c, 1, 69, 0
3, 138752, Note_on_c, 1, 65, 64
3, 139136, Note_on_c, 1, 65, 0
3, 139264, Note_on_c, 1, 64, 64
3, 139392, Note_on_c, 1, 64, 0
3, 139392, Note_on_c, 1, 65, 64
3, 139520, Note_on_c, 1, 65, 0
3, 139520, Note_on_c, 1, 64, 64
3, 139712, Note_on_c, 1, 64, 0
3, 139776, Note_on_c, 1, 65, 64
3, 140800, Note_on_c, 1, 65, 0
3, 140800, Note_on_c, 1, 60, 64
3, 141184, Note_on_c, 1, 60, 0
3, 141312, Note_on_c, 1, 65, 64
3, 143360, Note_on_c, 1, 65, 0
3, 143360, Note_on_c, 1, 59, 64
3, 143744, Note_on_c, 1, 59, 0
3, 143872, Note_on_c, 1, 62, 64
3, 144256, Note_on_c, 1, 62, 0
3, 144384, Note_on_c, 1, 63, 55
3, 144640, Note_on_c, 1, 63, 0
3, 144640, Note_on_c, 1, 65, 55
3, 144896, Note_on_c, 1, 65, 0
3, 144896, Note_on_c, 1, 67, 55
3, 145152, Note_on_c, 1, 67, 0
3, 145152, Note_on_c, 1, 65, 55
3, 145408, Note_on_c, 1, 65, 0
3, 145408, Note_on_c, 1, 63, 55
3, 145664, Note_on_c, 1, 63, 0
3, 145664, Note_on_c, 1, 62, 55
3, 145920, Note_on_c, 1, 62, 0
3, 145920, Note_on_c, 1, 63, 55
3, 146176, Note_on_c, 1, 63, 0
3, 146176, Note_on_c, 1, 62, 55
3, 146432, Note_on_c, 1, 62, 0
3, 146432, Note_on_c, 1, 60, 55
3, 146688, Note_on_c, 1, 60, 0
3, 146688, Note_on_c, 1, 63, 55
3, 146944, Note_on_c, 1, 63, 0
3, 146944, Note_on_c, 1, 62, 55
3, 147200, Note_on_c, 1, 62, 0
3, 147200, Note_on_c, 1, 65, 55
3, 147456, Note_on_c, 1, 65, 0
3, 147456, Note_on_c, 1, 63, 64
3, 149504, Note_on_c, 1, 63, 0
3, 149504, Note_on_c, 1, 57, 64
3, 149888, Note_on_c, 1, 57, 0
3, 150016, Note_on_c, 1, 60, 64
3, 150400, Note_on_c, 1, 60, 0
3, 150528, Note_on_c, 1, 62, 55
3, 150784, Note_on_c, 1, 62, 0
3, 150784, Note_on_c, 1, 63, 55
3, 151040, Note_on_c, 1, 63, 0
3, 151040, Note_on_c, 1, 65, 55
3, 151296, Note_on_c, 1, 65, 0
3, 151296, Note_on_c, 1, 63, 55
3, 151552, Note_on_c, 1, 63, 0
3, 151552, Note_on_c, 1, 62, 55
3, 151808, Note_on_c, 1, 62, 0
3, 151808, Note_on_c, 1, 60, 55
3, 152064, Note_on_c, 1, 60, 0
3, 152064, Note_on_c, 1, 62, 55
3, 152448, Note_on_c, 1, 62, 0
3, 152576, Note_on_c, 1, 58, 64
3, 152960, Note_on_c, 1, 58, 0
3, 153088, Note_on_c, 1, 62, 64
3, 153472, Note_on_c, 1, 62, 0
3, 153600, Note_on_c, 1, 67, 64
3, 155648, Note_on_c, 1, 67, 0
3, 155648, Note_on_c, 1, 60, 64
3, 156032, Note_on_c, 1, 60, 0
3, 156160, Note_on_c, 1, 63, 64
3, 156544, Note_on_c, 1, 63, 0
3, 156672, Note_on_c, 1, 65, 64
3, 158720, Note_on_c, 1, 65, 0
3, 158720, Note_on_c, 1, 58, 64
3, 159104, Note_on_c, 1, 58, 0
3, 159232, Note_on_c, 1, 62, 64
3, 159616, Note_on_c, 1, 62, 0
3, 159744, Note_on_c, 1, 63, 64
3, 161792, Note_on_c, 1, 63, 0
3, 161792, Note_on_c, 1, 57, 64
3, 162176, Note_on_c, 1, 57, 0
3, 162304, Note_on_c, 1, 60, 64
3, 162688, Note_on_c, 1, 60, 0
3, 162816, Note_on_c, 1, 62, 64
3, 163072, Note_on_c, 1, 62, 0
3, 163072, Note_on_c, 1, 60, 64
3, 163328, Note_on_c, 1, 60, 0
3, 163328, Note_on_c, 1, 62, 64
3, 163584, Note_on_c, 1, 62, 0
3, 163584, Note_on_c, 1, 63, 64
3, 163840, Note_on_c, 1, 63, 0
3, 163840, Note_on_c, 1, 65, 64
3, 164096, Note_on_c, 1, 65, 0
3, 164096, Note_on_c, 1, 67, 64
3, 164352, Note_on_c, 1, 67, 0
3, 164352, Note_on_c, 1, 60, 64
3, 164736, Note_on_c, 1, 60, 0
3, 164864, Note_on_c, 1, 53, 64
3, 165248, Note_on_c, 1, 53, 0
3, 165376, Note_on_c, 1, 77, 64
3, 166400, Note_on_c, 1, 77, 0
3, 166400, Note_on_c, 1, 72, 64
3, 166784, Note_on_c, 1, 72, 0
3, 166912, Note_on_c, 1, 74, 64
3, 167424, Note_on_c, 1, 74, 0
3, 167424, Note_on_c, 1, 74, 64
3, 167936, Note_on_c, 1, 74, 0
3, 167936, Note_on_c, 1, 72, 64
3, 168320, Note_on_c, 1, 72, 0
3, 168448, Note_on_c, 1, 77, 64
3, 169472, Note_on_c, 1, 77, 0
3, 169472, Note_on_c, 1, 72, 64
3, 169856, Note_on_c, 1, 72, 0
3, 169984, Note_on_c, 1, 74, 64
3, 171008, Note_on_c, 1, 74, 0
3, 171008, Note_on_c, 1, 72, 64
3, 171392, Note_on_c, 1, 72, 0
3, 171520, Note_on_c, 1, 65, 64
3, 171904, Note_on_c, 1, 65, 0
3, 172032, Note_on_c, 1, 72, 55
3, 172288, Note_on_c, 1, 72, 0
3, 172288, Note_on_c, 1, 74, 55
3, 172544, Note_on_c, 1, 74, 0
3, 172544, Note_on_c, 1, 75, 55
3, 172800, Note_on_c, 1, 75, 0
3, 172800, Note_on_c, 1, 74, 55
3, 173056, Note_on_c, 1, 74, 0
3, 173056, Note_on_c, 1, 72, 55
3, 173312, Note_on_c, 1, 72, 0
3, 173312, Note_on_c, 1, 70, 55
3, 173568, Note_on_c, 1, 70, 0
3, 173568, Note_on_c, 1, 69, 55
3, 173824, Note_on_c, 1, 69, 0
3, 173824, Note_on_c, 1, 70, 55
3, 174080, Note_on_c, 1, 70, 0
3, 174080, Note_on_c, 1, 72, 55
3, 174336, Note_on_c, 1, 72, 0
3, 174336, Note_on_c, 1, 70, 55
3, 174592, Note_on_c, 1, 70, 0
3, 174592, Note_on_c, 1, 69, 55
3, 174848, Note_on_c, 1, 69, 0
3, 174848, Note_on_c, 1, 67, 55
3, 175104, Note_on_c, 1, 67, 0
3, 175104, Note_on_c, 1, 65, 55
3, 175360, Note_on_c, 1, 65, 0
3, 175360, Note_on_c, 1, 67, 55
3, 175616, Note_on_c, 1, 67, 0
3, 175616, Note_on_c, 1, 69, 55
3, 175872, Note_on_c, 1, 69, 0
3, 175872, Note_on_c, 1, 70, 55
3, 176128, Note_on_c, 1, 70, 0
3, 176128, Note_on_c, 1, 72, 55
3, 176384, Note_on_c, 1, 72, 0
3, 176384, Note_on_c, 1, 69, 55
3, 176640, Note_on_c, 1, 69, 0
3, 176640, Note_on_c, 1, 70, 55
3, 177024, Note_on_c, 1, 70, 0
3, 177152, Note_on_c, 1, 58, 55
3, 177536, Note_on_c, 1, 58, 0
3, 177664, Note_on_c, 1, 68, 55
3, 178688, Note_on_c, 1, 68, 0
3, 178688, Note_on_c, 1, 62, 64
3, 179072, Note_on_c, 1, 62, 0
3, 179200, Note_on_c, 1, 65, 64
3, 180224, Note_on_c, 1, 65, 0
3, 180224, Note_on_c, 1, 58, 64
3, 180608, Note_on_c, 1, 58, 0
3, 180736, Note_on_c, 1, 62, 64
3, 181760, Note_on_c, 1, 62, 0
3, 181760, Note_on_c, 1, 65, 64
3, 182144, Note_on_c, 1, 65, 0
3, 182272, Note_on_c, 1, 68, 64
3, 183296, Note_on_c, 1, 68, 0
3, 183296, Note_on_c, 1, 67, 64
3, 183680, Note_on_c, 1, 67, 0
3, 186880, Note_on_c, 1, 69, 64
3, 187904, Note_on_c, 1, 69, 0
3, 187904, Note_on_c, 1, 62, 64
3, 188288, Note_on_c, 1, 62, 0
3, 188416, Note_on_c, 1, 72, 64
3, 189440, Note_on_c, 1, 72, 0
3, 189440, Note_on_c, 1, 70, 64
3, 189824, Note_on_c, 1, 70, 0
3, 190464, Note_on_c, 1, 63, 64
3, 191488, Note_on_c, 1, 63, 0
3, 191488, Note_on_c, 1, 60, 68
3, 191872, Note_on_c, 1, 60, 0
3, 192000, Note_on_c, 1, 65, 70
3, 193024, Note_on_c, 1, 65, 0
3, 193024, Note_on_c, 1, 62, 73
3, 193408, Note_on_c, 1, 62, 0
3, 193536, Note_on_c, 1, 67, 75
3, 194304, Note_on_c, 1, 67, 0
3, 194304, Note_on_c, 1, 65, 72
3, 194560, Note_on_c, 1, 65, 0
3, 194560, Note_on_c, 1, 63, 69
3, 194816, Note_on_c, 1, 63, 0
3, 194816, Note_on_c, 1, 62, 67
3, 195072, Note_on_c, 1, 62, 0
3, 195072, Note_on_c, 1, 60, 64
3, 195328, Note_on_c, 1, 60, 0
3, 195328, Note_on_c, 1, 58, 61
3, 195584, Note_on_c, 1, 58, 0
3, 195584, Note_on_c, 1, 57, 58
3, 195840, Note_on_c, 1, 57, 0
3, 195840, Note_on_c, 1, 55, 56
3, 196096, Note_on_c, 1, 55, 0
3, 196096, Note_on_c, 1, 53, 53
3, 196352, Note_on_c, 1, 53, 0
3, 196352, Note_on_c, 1, 51, 50
3, 196608, Note_on_c, 1, 51, 0
3, 196608, Note_on_c, 1, 50, 50
3, 196992, Note_on_c, 1, 50, 0
3, 197376, Note_on_c, 1, 53, 51
3, 197632, Note_on_c, 1, 53, 0
3, 197632, Note_on_c, 1, 55, 51
3, 197888, Note_on_c, 1, 55, 0
3, 197888, Note_on_c, 1, 57, 51
3, 198144, Note_on_c, 1, 57, 0
3, 198144, Note_on_c, 1, 58, 52
3, 198400, Note_on_c, 1, 58, 0
3, 198400, Note_on_c, 1, 57, 52
3, 198656, Note_on_c, 1, 57, 0
3, 198656, Note_on_c, 1, 58, 52
3, 199040, Note_on_c, 1, 58, 0
3, 200448, Note_on_c, 1, 53, 54
3, 200704, Note_on_c, 1, 53, 0
3, 200704, Note_on_c, 1, 55, 55
3, 200960, Note_on_c, 1, 55, 0
3, 200960, Note_on_c, 1, 57, 55
3, 201216, Note_on_c, 1, 57, 0
3, 201216, Note_on_c, 1, 58, 55
3, 201472, Note_on_c, 1, 58, 0
3, 201472, Note_on_c, 1, 57, 56
3, 201728, Note_on_c, 1, 57, 0
3, 201728, Note_on_c, 1, 58, 56
3, 202112, Note_on_c, 1, 58, 0
3, 203520, Note_on_c, 1, 55, 58
3, 203776, Note_on_c, 1, 55, 0
3, 203776, Note_on_c, 1, 57, 58
3, 204032, Note_on_c, 1, 57, 0
3, 204032, Note_on_c, 1, 58, 58
3, 204288, Note_on_c, 1, 58, 0
3, 204288, Note_on_c, 1, 60, 59
3, 204544, Note_on_c, 1, 60, 0
3, 204544, Note_on_c, 1, 58, 59
3, 204800, Note_on_c, 1, 58, 0
3, 204800, Note_on_c, 1, 60, 59
3, 205056, Note_on_c, 1, 60, 0
3, 205056, Note_on_c, 1, 58, 60
3, 205312, Note_on_c, 1, 58, 0
3, 205312, Note_on_c, 1, 57, 60
3, 205568, Note_on_c, 1, 57, 0
3, 205568, Note_on_c, 1, 55, 60
3, 205824, Note_on_c, 1, 55, 0
3, 205824, Note_on_c, 1, 53, 61
3, 206080, Note_on_c, 1, 53, 0
3, 206080, Note_on_c, 1, 51, 61
3, 206336, Note_on_c, 1, 51, 0
3, 206336, Note_on_c, 1, 53, 61
3, 206592, Note_on_c, 1, 53, 0
3, 206592, Note_on_c, 1, 55, 61
3, 206848, Note_on_c, 1, 55, 0
3, 206848, Note_on_c, 1, 53, 62
3, 207104, Note_on_c, 1, 53, 0
3, 207104, Note_on_c, 1, 51, 62
3, 207360, Note_on_c, 1, 51, 0
3, 207360, Note_on_c, 1, 50, 62
3, 208384, Note_on_c, 1, 50, 0
3, 208384, Note_on_c, 1, 77, 63
3, 209280, Note_on_c, 1, 77, 0
3, 209408, Note_on_c, 1, 70, 64
3, 209792, Note_on_c, 1, 70, 0
3, 209920, Note_on_c, 1, 74, 64
3, 210944, Note_on_c, 1, 74, 0
3, 210944, Note_on_c, 1, 67, 64
3, 211328, Note_on_c, 1, 67, 0
3, 211456, Note_on_c, 1, 75, 64
3, 212480, Note_on_c, 1, 75, 0
3, 212480, Note_on_c, 1, 69, 64
3, 212864, Note_on_c, 1, 69, 0
3, 212992, Note_on_c, 1, 72, 64
3, 214016, Note_on_c, 1, 72, 0
3, 214016, Note_on_c, 1, 65, 64
3, 214400, Note_on_c, 1, 65, 0
3, 214528, Note_on_c, 1, 74, 64
3, 215552, Note_on_c, 1, 74, 0
3, 215552, Note_on_c, 1, 65, 64
3, 215936, Note_on_c, 1, 65, 0
3, 216064, Note_on_c, 1, 70, 64
3, 217088, Note_on_c, 1, 70, 0
3, 217088, Note_on_c, 1, 62, 64
3, 217472, Note_on_c, 1, 62, 0
3, 217600, Note_on_c, 1, 65, 64
3, 218624, Note_on_c, 1, 65, 0
3, 218624, Note_on_c, 1, 58, 64
3, 219008, Note_on_c, 1, 58, 0
3, 219136, Note_on_c, 1, 62, 64
3, 219520, Note_on_c, 1, 62, 0
3, 219648, Note_on_c, 1, 65, 64
3, 220032, Note_on_c, 1, 65, 0
3, 220160, Note_on_c, 1, 62, 64
3, 220544, Note_on_c, 1, 62, 0
3, 220672, Note_on_c, 1, 65, 64
3, 221056, Note_on_c, 1, 65, 0
3, 221184, Note_on_c, 1, 70, 55
3, 221568, Note_on_c, 1, 70, 0
3, 221696, Note_on_c, 1, 65, 55
3, 222080, Note_on_c, 1, 65, 0
3, 222208, Note_on_c, 1, 67, 56
3, 223232, Note_on_c, 1, 67, 0
3, 223232, Note_on_c, 1, 65, 57
3, 223488, Note_on_c, 1, 65, 0
3, 223488, Note_on_c, 1, 63, 57
3, 223744, Note_on_c, 1, 63, 0
3, 223744, Note_on_c, 1, 62, 57
3, 224000, Note_on_c, 1, 62, 0
3, 224000, Note_on_c, 1, 60, 57
3, 224256, Note_on_c, 1, 60, 0
3, 224256, Note_on_c, 1, 62, 57
3, 224512, Note_on_c, 1, 62, 0
3, 224512, Note_on_c, 1, 63, 57
3, 224768, Note_on_c, 1, 63, 0
3, 224768, Note_on_c, 1, 65, 58
3, 225024, Note_on_c, 1, 65, 0
3, 225024, Note_on_c, 1, 63, 58
3, 225280, Note_on_c, 1, 63, 0
3, 225280, Note_on_c, 1, 62, 58
3, 225536, Note_on_c, 1, 62, 0
3, 225536, Note_on_c, 1, 60, 58
3, 225792, Note_on_c, 1, 60, 0
3, 225792, Note_on_c, 1, 58, 58
3, 226048, Note_on_c, 1, 58, 0
3, 226048, Note_on_c, 1, 60, 59
3, 226304, Note_on_c, 1, 60, 0
3, 226304, Note_on_c, 1, 62, 59
3, 226560, Note_on_c, 1, 62, 0
3, 226560, Note_on_c, 1, 60, 59
3, 226816, Note_on_c, 1, 60, 0
3, 226816, Note_on_c, 1, 58, 59
3, 227072, Note_on_c, 1, 58, 0
3, 227072, Note_on_c, 1, 57, 59
3, 227328, Note_on_c, 1, 57, 0
3, 227328, Note_on_c, 1, 55, 60
3, 227584, Note_on_c, 1, 55, 0
3, 227584, Note_on_c, 1, 57, 60
3, 227840, Note_on_c, 1, 57, 0
3, 227840, Note_on_c, 1, 58, 60
3, 228096, Note_on_c, 1, 58, 0
3, 228096, Note_on_c, 1, 62, 60
3, 228352, Note_on_c, 1, 62, 0
3, 228352, Note_on_c, 1, 60, 60
3, 228608, Note_on_c, 1, 60, 0
3, 228608, Note_on_c, 1, 58, 60
3, 228864, Note_on_c, 1, 58, 0
3, 228864, Note_on_c, 1, 57, 61
3, 229120, Note_on_c, 1, 57, 0
3, 229120, Note_on_c, 1, 58, 61
3, 229376, Note_on_c, 1, 58, 0
3, 229376, Note_on_c, 1, 60, 61
3, 229632, Note_on_c, 1, 60, 0
3, 229632, Note_on_c, 1, 63, 61
3, 229888, Note_on_c, 1, 63, 0
3, 229888, Note_on_c, 1, 62, 61
3, 230144, Note_on_c, 1, 62, 0
3, 230144, Note_on_c, 1, 60, 62
3, 230400, Note_on_c, 1, 60, 0
3, 230400, Note_on_c, 1, 58, 62
3, 230656, Note_on_c, 1, 58, 0
3, 230656, Note_on_c, 1, 57, 62
3, 230912, Note_on_c, 1, 57, 0
3, 230912, Note_on_c, 1, 58, 62
3, 231168, Note_on_c, 1, 58, 0
3, 231168, Note_on_c, 1, 62, 62
3, 231424, Note_on_c, 1, 62, 0
3, 231424, Note_on_c, 1, 60, 63
3, 231680, Note_on_c, 1, 60, 0
3, 231680, Note_on_c, 1, 63, 63
3, 231936, Note_on_c, 1, 63, 0
3, 231936, Note_on_c, 1, 62, 63
3, 232192, Note_on_c, 1, 62, 0
3, 232192, Note_on_c, 1, 65, 63
3, 232448, Note_on_c, 1, 65, 0
3, 232448, Note_on_c, 1, 62, 63
3, 232704, Note_on_c, 1, 62, 0
3, 232704, Note_on_c, 1, 58, 63
3, 232960, Note_on_c, 1, 58, 0
3, 232960, Note_on_c, 1, 62, 64
3, 233216, Note_on_c, 1, 62, 0
3, 233216, Note_on_c, 1, 65, 64
3, 233472, Note_on_c, 1, 65, 0
3, 233472, Note_on_c, 1, 70, 64
3, 233984, Note_on_c, 1, 70, 0
3, 233984, Note_on_c, 1, 69, 64
3, 234368, Note_on_c, 1, 69, 0
3, 234496, Note_on_c, 1, 70, 64
3, 234880, Note_on_c, 1, 70, 0
3, 235008, Note_on_c, 1, 62, 64
3, 235520, Note_on_c, 1, 62, 0
3, 235520, Note_on_c, 1, 65, 64
3, 235904, Note_on_c, 1, 65, 0
3, 236032, Note_on_c, 1, 70, 64
3, 236416, Note_on_c, 1, 70, 0
3, 236544, Note_on_c, 1, 70, 64
3, 237056, Note_on_c, 1, 70, 0
3, 237056, Note_on_c, 1, 69, 64
3, 237440, Note_on_c, 1, 69, 0
3, 237568, Note_on_c, 1, 70, 64
3, 237952, Note_on_c, 1, 70, 0
3, 238080, Note_on_c, 1, 62, 64
3, 238592, Note_on_c, 1, 62, 0
3, 238592, Note_on_c, 1, 65, 64
3, 238976, Note_on_c, 1, 65, 0
3, 239104, Note_on_c, 1, 70, 64
3, 239488, Note_on_c, 1, 70, 0
3, 239616, Note_on_c, 1, 72, 64
3, 240128, Note_on_c, 1, 72, 0
3, 240128, Note_on_c, 1, 70, 64
3, 240512, Note_on_c, 1, 70, 0
3, 240640, Note_on_c, 1, 72, 64
3, 241024, Note_on_c, 1, 72, 0
3, 241152, Note_on_c, 1, 65, 64
3, 241664, Note_on_c, 1, 65, 0
3, 241664, Note_on_c, 1, 69, 64
3, 242048, Note_on_c, 1, 69, 0
3, 242176, Note_on_c, 1, 72, 64
3, 242560, Note_on_c, 1, 72, 0
3, 242688, Note_on_c, 1, 74, 64
3, 243200, Note_on_c, 1, 74, 0
3, 243200, Note_on_c, 1, 72, 64
3, 243584, Note_on_c, 1, 72, 0
3, 243712, Note_on_c, 1, 74, 64
3, 244096, Note_on_c, 1, 74, 0
3, 244224, Note_on_c, 1, 70, 64
3, 245248, Note_on_c, 1, 70, 0
3, 245248, Note_on_c, 1, 74, 64
3, 246272, Note_on_c, 1, 74, 0
3, 246272, Note_on_c, 1, 67, 64
3, 246656, Note_on_c, 1, 67, 0
3, 246784, Note_on_c, 1, 70, 64
3, 247808, Note_on_c, 1, 70, 0
3, 247808, Note_on_c, 1, 64, 64
3, 248192, Note_on_c, 1, 64, 0
3, 248320, Note_on_c, 1, 72, 64
3, 249344, Note_on_c, 1, 72, 0
3, 249344, Note_on_c, 1, 65, 64
3, 249728, Note_on_c, 1, 65, 0
3, 249856, Note_on_c, 1, 69, 64
3, 250880, Note_on_c, 1, 69, 0
3, 250880, Note_on_c, 1, 62, 64
3, 251264, Note_on_c, 1, 62, 0
3, 251392, Note_on_c, 1, 70, 64
3, 252416, Note_on_c, 1, 70, 0
3, 252416, Note_on_c, 1, 64, 64
3, 252800, Note_on_c, 1, 64, 0
3, 252928, Note_on_c, 1, 67, 64
3, 253952, Note_on_c, 1, 67, 0
3, 253952, Note_on_c, 1, 60, 64
3, 254336, Note_on_c, 1, 60, 0
3, 254464, Note_on_c, 1, 70, 64
3, 254848, Note_on_c, 1, 70, 0
3, 254976, Note_on_c, 1, 69, 64
3, 255488, Note_on_c, 1, 69, 0
3, 255488, Note_on_c, 1, 67, 64
3, 255872, Note_on_c, 1, 67, 0
3, 256000, Note_on_c, 1, 69, 64
3, 256384, Note_on_c, 1, 69, 0
3, 256512, Note_on_c, 1, 65, 64
3, 257024, Note_on_c, 1, 65, 0
3, 257024, Note_on_c, 1, 69, 64
3, 257408, Note_on_c, 1, 69, 0
3, 257536, Note_on_c, 1, 72, 64
3, 257920, Note_on_c, 1, 72, 0
3, 258048, Note_on_c, 1, 77, 64
3, 258432, Note_on_c, 1, 77, 0
3, 258560, Note_on_c, 1, 70, 64
3, 258944, Note_on_c, 1, 70, 0
3, 259072, Note_on_c, 1, 74, 64
3, 260096, Note_on_c, 1, 74, 0
3, 260096, Note_on_c, 1, 67, 64
3, 260480, Note_on_c, 1, 67, 0
3, 260608, Note_on_c, 1, 75, 64
3, 261632, Note_on_c, 1, 75, 0
3, 261632, Note_on_c, 1, 69, 64
3, 262016, Note_on_c, 1, 69, 0
3, 262144, Note_on_c, 1, 72, 64
3, 263168, Note_on_c, 1, 72, 0
3, 263168, Note_on_c, 1, 65, 64
3, 263552, Note_on_c, 1, 65, 0
3, 263680, Note_on_c, 1, 74, 64
3, 264704, Note_on_c, 1, 74, 0
3, 264704, Note_on_c, 1, 65, 64
3, 265088, Note_on_c, 1, 65, 0
3, 265216, Note_on_c, 1, 70, 64
3, 266240, Note_on_c, 1, 70, 0
3, 266240, Note_on_c, 1, 62, 64
3, 266624, Note_on_c, 1, 62, 0
3, 266752, Note_on_c, 1, 65, 64
3, 267776, Note_on_c, 1, 65, 0
3, 267776, Note_on_c, 1, 58, 64
3, 268160, Note_on_c, 1, 58, 0
3, 268288, Note_on_c, 1, 62, 64
3, 268672, Note_on_c, 1, 62, 0
3, 268800, Note_on_c, 1, 65, 64
3, 269184, Note_on_c, 1, 65, 0
3, 269312, Note_on_c, 1, 62, 64
3, 269696, Note_on_c, 1, 62, 0
3, 269824, Note_on_c, 1, 65, 64
3, 270208, Note_on_c, 1, 65, 0
3, 270336, Note_on_c, 1, 70, 64
3, 270720, Note_on_c, 1, 70, 0
3, 270848, Note_on_c, 1, 65, 64
3, 271232, Note_on_c, 1, 65, 0
3, 271360, Note_on_c, 1, 67, 64
3, 272384, Note_on_c, 1, 67, 0
3, 272384, Note_on_c, 1, 65, 64
3, 272768, Note_on_c, 1, 65, 0
3, 272896, Note_on_c, 1, 70, 64
3, 273920, Note_on_c, 1, 70, 0
3, 273920, Note_on_c, 1, 65, 64
3, 274304, Note_on_c, 1, 65, 0
3, 274432, Note_on_c, 1, 67, 64
3, 275456, Note_on_c, 1, 67, 0
3, 275456, Note_on_c, 1, 65, 64
3, 275840, Note_on_c, 1, 65, 0
3, 275968, Note_on_c, 1, 70, 64
3, 276992, Note_on_c, 1, 70, 0
3, 276992, Note_on_c, 1, 67, 64
3, 277376, Note_on_c, 1, 67, 0
3, 277504, Note_on_c, 1, 75, 64
3, 278528, Note_on_c, 1, 75, 0
3, 278528, Note_on_c, 1, 69, 64
3, 278912, Note_on_c, 1, 69, 0
3, 279040, Note_on_c, 1, 77, 64
3, 279552, Note_on_c, 1, 77, 0
3, 279552, Note_on_c, 1, 74, 64
3, 279936, Note_on_c, 1, 74, 0
3, 280064, Note_on_c, 1, 70, 64
3, 280448, Note_on_c, 1, 70, 0
3, 280576, Note_on_c, 1, 69, 64
3, 280704, Note_on_c, 1, 69, 0
3, 280704, Note_on_c, 1, 67, 64
3, 280832, Note_on_c, 1, 67, 0
3, 280832, Note_on_c, 1, 69, 64
3, 281024, Note_on_c, 1, 69, 0
3, 281088, Note_on_c, 1, 70, 64
3, 282112, Note_on_c, 1, 70, 0
3, 284928, Note_on_c, 1, 62, 64
3, 285184, Note_on_c, 1, 62, 0
3, 285184, Note_on_c, 1, 72, 64
3, 285440, Note_on_c, 1, 72, 0
3, 285440, Note_on_c, 1, 62, 64
3, 285696, Note_on_c, 1, 62, 0
3, 285696, Note_on_c, 1, 70, 64
3, 285952, Note_on_c, 1, 70, 0
3, 285952, Note_on_c, 1, 62, 64
3, 286208, Note_on_c, 1, 62, 0
3, 286208, Note_on_c, 1, 69, 64
3, 286464, Note_on_c, 1, 69, 0
3, 286464, Note_on_c, 1, 62, 64
3, 286720, Note_on_c, 1, 62, 0
3, 286720, Note_on_c, 1, 67, 64
3, 286976, Note_on_c, 1, 67, 0
3, 286976, Note_on_c, 1, 62, 64
3, 287232, Note_on_c, 1, 62, 0
3, 287232, Note_on_c, 1, 66, 64
3, 287488, Note_on_c, 1, 66, 0
3, 287488, Note_on_c, 1, 62, 64
3, 287744, Note_on_c, 1, 62, 0
3, 287744, Note_on_c, 1, 64, 64
3, 288000, Note_on_c, 1, 64, 0
3, 288000, Note_on_c, 1, 62, 64
3, 288256, Note_on_c, 1, 62, 0
3, 288256, Note_on_c, 1, 66, 64
3, 288512, Note_on_c, 1, 66, 0
3, 288512, Note_on_c, 1, 62, 64
3, 288768, Note_on_c, 1, 62, 0
3, 288768, Note_on_c, 1, 67, 64
3, 289024, Note_on_c, 1, 67, 0
3, 289024, Note_on_c, 1, 62, 64
3, 289280, Note_on_c, 1, 62, 0
3, 289280, Note_on_c, 1, 66, 64
3, 289536, Note_on_c, 1, 66, 0
3, 289536, Note_on_c, 1, 62, 64
3, 289792, Note_on_c, 1, 62, 0
3, 289792, Note_on_c, 1, 67, 64
3, 290048, Note_on_c, 1, 67, 0
3, 290048, Note_on_c, 1, 62, 64
3, 290304, Note_on_c, 1, 62, 0
3, 290304, Note_on_c, 1, 69, 64
3, 290560, Note_on_c, 1, 69, 0
3, 290560, Note_on_c, 1, 62, 64
3, 290816, Note_on_c, 1, 62, 0
3, 290816, Note_on_c, 1, 67, 64
3, 291072, Note_on_c, 1, 67, 0
3, 291072, Note_on_c, 1, 62, 64
3, 291328, Note_on_c, 1, 62, 0
3, 291328, Note_on_c, 1, 66, 64
3, 291584, Note_on_c, 1, 66, 0
3, 291584, Note_on_c, 1, 62, 64
3, 291840, Note_on_c, 1, 62, 0
3, 291840, Note_on_c, 1, 67, 64
3, 292096, Note_on_c, 1, 67, 0
3, 292096, Note_on_c, 1, 62, 64
3, 292352, Note_on_c, 1, 62, 0
3, 292352, Note_on_c, 1, 69, 64
3, 292608, Note_on_c, 1, 69, 0
3, 292608, Note_on_c, 1, 62, 64
3, 292864, Note_on_c, 1, 62, 0
3, 292864, Note_on_c, 1, 70, 64
3, 293120, Note_on_c, 1, 70, 0
3, 293120, Note_on_c, 1, 62, 64
3, 293376, Note_on_c, 1, 62, 0
3, 293376, Note_on_c, 1, 69, 64
3, 293760, Note_on_c, 1, 69, 0
3, 293888, Note_on_c, 1, 62, 64
3, 294272, Note_on_c, 1, 62, 0
3, 295168, Note_on_c, 1, 55, 55
3, 295424, Note_on_c, 1, 55, 0
3, 295424, Note_on_c, 1, 59, 55
3, 295680, Note_on_c, 1, 59, 0
3, 295680, Note_on_c, 1, 62, 55
3, 295936, Note_on_c, 1, 62, 0
3, 295936, Note_on_c, 1, 67, 55
3, 296192, Note_on_c, 1, 67, 0
3, 296192, Note_on_c, 1, 71, 55
3, 296448, Note_on_c, 1, 71, 0
3, 296448, Note_on_c, 1, 75, 55
3, 297984, Note_on_c, 1, 75, 0
3, 298240, Note_on_c, 1, 53, 55
3, 298496, Note_on_c, 1, 53, 0
3, 298496, Note_on_c, 1, 57, 55
3, 298752, Note_on_c, 1, 57, 0
3, 298752, Note_on_c, 1, 60, 55
3, 299008, Note_on_c, 1, 60, 0
3, 299008, Note_on_c, 1, 65, 55
3, 299264, Note_on_c, 1, 65, 0
3, 299264, Note_on_c, 1, 69, 55
3, 299520, Note_on_c, 1, 69, 0
3, 299520, Note_on_c, 1, 74, 55
3, 301056, Note_on_c, 1, 74, 0
3, 301312, Note_on_c, 1, 51, 55
3, 301568, Note_on_c, 1, 51, 0
3, 301568, Note_on_c, 1, 55, 55
3, 301824, Note_on_c, 1, 55, 0
3, 301824, Note_on_c, 1, 58, 55
3, 302080, Note_on_c, 1, 58, 0
3, 302080, Note_on_c, 1, 63, 55
3, 302336, Note_on_c, 1, 63, 0
3, 302336, Note_on_c, 1, 67, 55
3, 302592, Note_on_c, 1, 67, 0
3, 302592, Note_on_c, 1, 72, 55
3, 304128, Note_on_c, 1, 72, 0
3, 304384, Note_on_c, 1, 50, 55
3, 304640, Note_on_c, 1, 50, 0
3, 304640, Note_on_c, 1, 54, 55
3, 304896, Note_on_c, 1, 54, 0
3, 304896, Note_on_c, 1, 57, 55
3, 305152, Note_on_c, 1, 57, 0
3, 305152, Note_on_c, 1, 62, 55
3, 305408, Note_on_c, 1, 62, 0
3, 305408, Note_on_c, 1, 66, 55
3, 305664, Note_on_c, 1, 66, 0
3, 305664, Note_on_c, 1, 70, 55
3, 307456, Note_on_c, 1, 70, 0
3, 307456, Note_on_c, 1, 69, 55
3, 307712, Note_on_c, 1, 69, 0
3, 307712, Note_on_c, 1, 67, 56
3, 307968, Note_on_c, 1, 67, 0
3, 307968, Note_on_c, 1, 65, 56
3, 308224, Note_on_c, 1, 65, 0
3, 308224, Note_on_c, 1, 63, 56
3, 308480, Note_on_c, 1, 63, 0
3, 308480, Note_on_c, 1, 62, 57
3, 308736, Note_on_c, 1, 62, 0
3, 308736, Note_on_c, 1, 72, 57
3, 310528, Note_on_c, 1, 72, 0
3, 310528, Note_on_c, 1, 70, 59
3, 310784, Note_on_c, 1, 70, 0
3, 310784, Note_on_c, 1, 69, 59
3, 311040, Note_on_c, 1, 69, 0
3, 311040, Note_on_c, 1, 67, 60
3, 311296, Note_on_c, 1, 67, 0
3, 311296, Note_on_c, 1, 65, 60
3, 311552, Note_on_c, 1, 65, 0
3, 311552, Note_on_c, 1, 63, 60
3, 311808, Note_on_c, 1, 63, 0
3, 311808, Note_on_c, 1, 74, 61
3, 313600, Note_on_c, 1, 74, 0
3, 313600, Note_on_c, 1, 72, 63
3, 313856, Note_on_c, 1, 72, 0
3, 313856, Note_on_c, 1, 70, 63
3, 314112, Note_on_c, 1, 70, 0
3, 314112, Note_on_c, 1, 69, 63
3, 314368, Note_on_c, 1, 69, 0
3, 314368, Note_on_c, 1, 67, 64
3, 314624, Note_on_c, 1, 67, 0
3, 314624, Note_on_c, 1, 66, 64
3, 314880, Note_on_c, 1, 66, 0
3, 314880, Note_on_c, 1, 67, 64
3, 315136, Note_on_c, 1, 67, 0
3, 315136, Note_on_c, 1, 65, 65
3, 315392, Note_on_c, 1, 65, 0
3, 315392, Note_on_c, 1, 63, 65
3, 315648, Note_on_c, 1, 63, 0
3, 315648, Note_on_c, 1, 62, 65
3, 315904, Note_on_c, 1, 62, 0
3, 315904, Note_on_c, 1, 60, 66
3, 316160, Note_on_c, 1, 60, 0
3, 316160, Note_on_c, 1, 58, 66
3, 316416, Note_on_c, 1, 58, 0
3, 316416, Note_on_c, 1, 57, 66
3, 316672, Note_on_c, 1, 57, 0
3, 316672, Note_on_c, 1, 55, 67
3, 316928, Note_on_c, 1, 55, 0
3, 316928, Note_on_c, 1, 57, 67
3, 317184, Note_on_c, 1, 57, 0
3, 317184, Note_on_c, 1, 58, 67
3, 317440, Note_on_c, 1, 58, 0
3, 317440, Note_on_c, 1, 57, 68
3, 317696, Note_on_c, 1, 57, 0
3, 317696, Note_on_c, 1, 58, 68
3, 317952, Note_on_c, 1, 58, 0
3, 317952, Note_on_c, 1, 60, 68
3, 318208, Note_on_c, 1, 60, 0
3, 318208, Note_on_c, 1, 58, 68
3, 318464, Note_on_c, 1, 58, 0
3, 318464, Note_on_c, 1, 60, 69
3, 318720, Note_on_c, 1, 60, 0
3, 318720, Note_on_c, 1, 62, 69
3, 318976, Note_on_c, 1, 62, 0
3, 318976, Note_on_c, 1, 60, 69
3, 319232, Note_on_c, 1, 60, 0
3, 319232, Note_on_c, 1, 62, 70
3, 319488, Note_on_c, 1, 62, 0
3, 319488, Note_on_c, 1, 58, 70
3, 320000, Note_on_c, 1, 58, 0
3, 320000, Note_on_c, 1, 62, 70
3, 320384, Note_on_c, 1, 62, 0
3, 320512, Note_on_c, 1, 67, 70
3, 320896, Note_on_c, 1, 67, 0
3, 321024, Note_on_c, 1, 58, 70
3, 321536, Note_on_c, 1, 58, 0
3, 321536, Note_on_c, 1, 62, 70
3, 321920, Note_on_c, 1, 62, 0
3, 322048, Note_on_c, 1, 67, 70
3, 322432, Note_on_c, 1, 67, 0
3, 322560, Note_on_c, 1, 67, 70
3, 323072, Note_on_c, 1, 67, 0
3, 323072, Note_on_c, 1, 66, 70
3, 323456, Note_on_c, 1, 66, 0
3, 323584, Note_on_c, 1, 67, 70
3, 323968, Note_on_c, 1, 67, 0
3, 324096, Note_on_c, 1, 58, 70
3, 324608, Note_on_c, 1, 58, 0
3, 324608, Note_on_c, 1, 62, 70
3, 324992, Note_on_c, 1, 62, 0
3, 325120, Note_on_c, 1, 67, 70
3, 325504, Note_on_c, 1, 67, 0
3, 325632, Note_on_c, 1, 69, 70
3, 326144, Note_on_c, 1, 69, 0
3, 326144, Note_on_c, 1, 67, 70
3, 326528, Note_on_c, 1, 67, 0
3, 326656, Note_on_c, 1, 69, 70
3, 327040, Note_on_c, 1, 69, 0
3, 327168, Note_on_c, 1, 62, 70
3, 327680, Note_on_c, 1, 62, 0
3, 327680, Note_on_c, 1, 66, 70
3, 328064, Note_on_c, 1, 66, 0
3, 328192, Note_on_c, 1, 69, 70
3, 328576, Note_on_c, 1, 69, 0
3, 328704, Note_on_c, 1, 70, 70
3, 329216, Note_on_c, 1, 70, 0
3, 329216, Note_on_c, 1, 69, 70
3, 329600, Note_on_c, 1, 69, 0
3, 329728, Note_on_c, 1, 70, 70
3, 330112, Note_on_c, 1, 70, 0
3, 330240, Note_on_c, 1, 67, 70
3, 331264, Note_on_c, 1, 67, 0
3, 332800, Note_on_c, 1, 71, 64
3, 333184, Note_on_c, 1, 71, 0
3, 333312, Note_on_c, 1, 76, 64
3, 335360, Note_on_c, 1, 76, 0
3, 335360, Note_on_c, 1, 69, 64
3, 335744, Note_on_c, 1, 69, 0
3, 335872, Note_on_c, 1, 73, 64
3, 336256, Note_on_c, 1, 73, 0
3, 336384, Note_on_c, 1, 74, 64
3, 336768, Note_on_c, 1, 74, 0
3, 336896, Note_on_c, 1, 62, 64
3, 337280, Note_on_c, 1, 62, 0
3, 338944, Note_on_c, 1, 69, 64
3, 339328, Note_on_c, 1, 69, 0
3, 339456, Note_on_c, 1, 74, 64
3, 341504, Note_on_c, 1, 74, 0
3, 341504, Note_on_c, 1, 67, 64
3, 341888, Note_on_c, 1, 67, 0
3, 342016, Note_on_c, 1, 71, 64
3, 342400, Note_on_c, 1, 71, 0
3, 342528, Note_on_c, 1, 72, 64
3, 344576, Note_on_c, 1, 72, 0
3, 344576, Note_on_c, 1, 66, 64
3, 344960, Note_on_c, 1, 66, 0
3, 345088, Note_on_c, 1, 69, 64
3, 345472, Note_on_c, 1, 69, 0
3, 345600, Note_on_c, 1, 70, 64
3, 347648, Note_on_c, 1, 70, 0
3, 347648, Note_on_c, 1, 64, 64
3, 348032, Note_on_c, 1, 64, 0
3, 348160, Note_on_c, 1, 67, 64
3, 348544, Note_on_c, 1, 67, 0
3, 348672, Note_on_c, 1, 69, 64
3, 350720, Note_on_c, 1, 69, 0
3, 350720, Note_on_c, 1, 62, 64
3, 351104, Note_on_c, 1, 62, 0
3, 351232, Note_on_c, 1, 65, 64
3, 351616, Note_on_c, 1, 65, 0
3, 351744, Note_on_c, 1, 67, 64
3, 353536, Note_on_c, 1, 67, 0
3, 353536, Note_on_c, 1, 69, 64
3, 353792, Note_on_c, 1, 69, 0
3, 353792, Note_on_c, 1, 67, 64
3, 354048, Note_on_c, 1, 67, 0
3, 354048, Note_on_c, 1, 65, 64
3, 354304, Note_on_c, 1, 65, 0
3, 354304, Note_on_c, 1, 64, 64
3, 354560, Note_on_c, 1, 64, 0
3, 354560, Note_on_c, 1, 65, 64
3, 354816, Note_on_c, 1, 65, 0
3, 354816, Note_on_c, 1, 67, 64
3, 355072, Note_on_c, 1, 67, 0
3, 355072, Note_on_c, 1, 65, 64
3, 355328, Note_on_c, 1, 65, 0
3, 355328, Note_on_c, 1, 67, 64
3, 355584, Note_on_c, 1, 67, 0
3, 355584, Note_on_c, 1, 69, 64
3, 355840, Note_on_c, 1, 69, 0
3, 355840, Note_on_c, 1, 67, 64
3, 356096, Note_on_c, 1, 67, 0
3, 356096, Note_on_c, 1, 69, 64
3, 356352, Note_on_c, 1, 69, 0
3, 356352, Note_on_c, 1, 65, 70
3, 356608, Note_on_c, 1, 65, 0
3, 356608, Note_on_c, 1, 69, 70
3, 356864, Note_on_c, 1, 69, 0
3, 356864, Note_on_c, 1, 64, 70
3, 357120, Note_on_c, 1, 64, 0
3, 357120, Note_on_c, 1, 69, 70
3, 357376, Note_on_c, 1, 69, 0
3, 357376, Note_on_c, 1, 62, 70
3, 357632, Note_on_c, 1, 62, 0
3, 357632, Note_on_c, 1, 69, 70
3, 357888, Note_on_c, 1, 69, 0
3, 357888, Note_on_c, 1, 61, 70
3, 358144, Note_on_c, 1, 61, 0
3, 358144, Note_on_c, 1, 69, 70
3, 358400, Note_on_c, 1, 69, 0
3, 358400, Note_on_c, 1, 59, 70
3, 358656, Note_on_c, 1, 59, 0
3, 358656, Note_on_c, 1, 69, 70
3, 358912, Note_on_c, 1, 69, 0
3, 358912, Note_on_c, 1, 61, 70
3, 359168, Note_on_c, 1, 61, 0
3, 359168, Note_on_c, 1, 69, 70
3, 359424, Note_on_c, 1, 69, 0
3, 359424, Note_on_c, 1, 62, 70
3, 359680, Note_on_c, 1, 62, 0
3, 359680, Note_on_c, 1, 69, 70
3, 359936, Note_on_c, 1, 69, 0
3, 359936, Note_on_c, 1, 61, 70
3, 360192, Note_on_c, 1, 61, 0
3, 360192, Note_on_c, 1, 69, 70
3, 360448, Note_on_c, 1, 69, 0
3, 360448, Note_on_c, 1, 62, 70
3, 360704, Note_on_c, 1, 62, 0
3, 360704, Note_on_c, 1, 69, 70
3, 360960, Note_on_c, 1, 69, 0
3, 360960, Note_on_c, 1, 64, 70
3, 361216, Note_on_c, 1, 64, 0
3, 361216, Note_on_c, 1, 69, 70
3, 361472, Note_on_c, 1, 69, 0
3, 361472, Note_on_c, 1, 62, 70
3, 361728, Note_on_c, 1, 62, 0
3, 361728, Note_on_c, 1, 69, 70
3, 361984, Note_on_c, 1, 69, 0
3, 361984, Note_on_c, 1, 64, 70
3, 362240, Note_on_c, 1, 64, 0
3, 362240, Note_on_c, 1, 69, 70
3, 362496, Note_on_c, 1, 69, 0
3, 362496, Note_on_c, 1, 65, 70
3, 362752, Note_on_c, 1, 65, 0
3, 362752, Note_on_c, 1, 69, 70
3, 363008, Note_on_c, 1, 69, 0
3, 363008, Note_on_c, 1, 64, 70
3, 363264, Note_on_c, 1, 64, 0
3, 363264, Note_on_c, 1, 69, 70
3, 363520, Note_on_c, 1, 69, 0
3, 363520, Note_on_c, 1, 65, 70
3, 363776, Note_on_c, 1, 65, 0
3, 363776, Note_on_c, 1, 69, 70
3, 364032, Note_on_c, 1, 69, 0
3, 364032, Note_on_c, 1, 67, 70
3, 364288, Note_on_c, 1, 67, 0
3, 364288, Note_on_c, 1, 69, 70
3, 364544, Note_on_c, 1, 69, 0
3, 364544, Note_on_c, 1, 65, 70
3, 364800, Note_on_c, 1, 65, 0
3, 364800, Note_on_c, 1, 69, 70
3, 365056, Note_on_c, 1, 69, 0
3, 365056, Note_on_c, 1, 64, 70
3, 365312, Note_on_c, 1, 64, 0
3, 365312, Note_on_c, 1, 69, 70
3, 365568, Note_on_c, 1, 69, 0
3, 365568, Note_on_c, 1, 65, 70
3, 365824, Note_on_c, 1, 65, 0
3, 365824, Note_on_c, 1, 69, 70
3, 366080, Note_on_c, 1, 69, 0
3, 366080, Note_on_c, 1, 64, 70
3, 366336, Note_on_c, 1, 64, 0
3, 366336, Note_on_c, 1, 69, 70
3, 366592, Note_on_c, 1, 69, 0
3, 366592, Note_on_c, 1, 62, 70
3, 366848, Note_on_c, 1, 62, 0
3, 366848, Note_on_c, 1, 69, 70
3, 367104, Note_on_c, 1, 69, 0
3, 367104, Note_on_c, 1, 61, 70
3, 367360, Note_on_c, 1, 61, 0
3, 367360, Note_on_c, 1, 57, 70
3, 367616, Note_on_c, 1, 57, 0
3, 367616, Note_on_c, 1, 61, 70
3, 367872, Note_on_c, 1, 61, 0
3, 367872, Note_on_c, 1, 64, 70
3, 368128, Note_on_c, 1, 64, 0
3, 368128, Note_on_c, 1, 69, 70
3, 368384, Note_on_c, 1, 69, 0
3, 368384, Note_on_c, 1, 67, 70
3, 368640, Note_on_c, 1, 67, 0
3, 368640, Note_on_c, 1, 65, 50
3, 370432, Note_on_c, 1, 65, 0
3, 370432, Note_on_c, 1, 55, 50
3, 370688, Note_on_c, 1, 55, 0
3, 370688, Note_on_c, 1, 58, 50
3, 370944, Note_on_c, 1, 58, 0
3, 370944, Note_on_c, 1, 62, 50
3, 371200, Note_on_c, 1, 62, 0
3, 371200, Note_on_c, 1, 67, 50
3, 371456, Note_on_c, 1, 67, 0
3, 371456, Note_on_c, 1, 65, 50
3, 371712, Note_on_c, 1, 65, 0
3, 371712, Note_on_c, 1, 64, 50
3, 373504, Note_on_c, 1, 64, 0
3, 373504, Note_on_c, 1, 53, 50
3, 373760, Note_on_c, 1, 53, 0
3, 373760, Note_on_c, 1, 57, 50
3, 374016, Note_on_c, 1, 57, 0
3, 374016, Note_on_c, 1, 60, 50
3, 374272, Note_on_c, 1, 60, 0
3, 374272, Note_on_c, 1, 65, 50
3, 374528, Note_on_c, 1, 65, 0
3, 374528, Note_on_c, 1, 64, 50
3, 374784, Note_on_c, 1, 64, 0
3, 374784, Note_on_c, 1, 62, 50
3, 376576, Note_on_c, 1, 62, 0
3, 376576, Note_on_c, 1, 52, 50
3, 376832, Note_on_c, 1, 52, 0
3, 376832, Note_on_c, 1, 55, 50
3, 377088, Note_on_c, 1, 55, 0
3, 377088, Note_on_c, 1, 59, 50
3, 377344, Note_on_c, 1, 59, 0
3, 377344, Note_on_c, 1, 64, 50
3, 377600, Note_on_c, 1, 64, 0
3, 377600, Note_on_c, 1, 62, 50
3, 377856, Note_on_c, 1, 62, 0
3, 377856, Note_on_c, 1, 61, 50
3, 379392, Note_on_c, 1, 61, 0
3, 379648, Note_on_c, 1, 62, 50
3, 379904, Note_on_c, 1, 62, 0
3, 379904, Note_on_c, 1, 64, 50
3, 380160, Note_on_c, 1, 64, 0
3, 380160, Note_on_c, 1, 65, 50
3, 380416, Note_on_c, 1, 65, 0
3, 380416, Note_on_c, 1, 67, 50
3, 380672, Note_on_c, 1, 67, 0
3, 380672, Note_on_c, 1, 69, 50
3, 380928, Note_on_c, 1, 69, 0
3, 380928, Note_on_c, 1, 70, 50
3, 382720, Note_on_c, 1, 70, 0
3, 382720, Note_on_c, 1, 64, 54
3, 382976, Note_on_c, 1, 64, 0
3, 382976, Note_on_c, 1, 65, 54
3, 383232, Note_on_c, 1, 65, 0
3, 383232, Note_on_c, 1, 67, 55
3, 383488, Note_on_c, 1, 67, 0
3, 383488, Note_on_c, 1, 69, 55
3, 383744, Note_on_c, 1, 69, 0
3, 383744, Note_on_c, 1, 71, 56
3, 384000, Note_on_c, 1, 71, 0
3, 384000, Note_on_c, 1, 72, 56
3, 385792, Note_on_c, 1, 72, 0
3, 385792, Note_on_c, 1, 65, 60
3, 386048, Note_on_c, 1, 65, 0
3, 386048, Note_on_c, 1, 67, 60
3, 386304, Note_on_c, 1, 67, 0
3, 386304, Note_on_c, 1, 69, 61
3, 386560, Note_on_c, 1, 69, 0
3, 386560, Note_on_c, 1, 71, 61
3, 386816, Note_on_c, 1, 71, 0
3, 386816, Note_on_c, 1, 73, 62
3, 387072, Note_on_c, 1, 73, 0
3, 387072, Note_on_c, 1, 74, 63
3, 387840, Note_on_c, 1, 74, 0
3, 387840, Note_on_c, 1, 65, 64
3, 388096, Note_on_c, 1, 65, 0
3, 388096, Note_on_c, 1, 67, 65
3, 388352, Note_on_c, 1, 67, 0
3, 388352, Note_on_c, 1, 69, 65
3, 388608, Note_on_c, 1, 69, 0
3, 388608, Note_on_c, 1, 70, 66
3, 388864, Note_on_c, 1, 70, 0
3, 388864, Note_on_c, 1, 69, 66
3, 389120, Note_on_c, 1, 69, 0
3, 389120, Note_on_c, 1, 67, 67
3, 389376, Note_on_c, 1, 67, 0
3, 389376, Note_on_c, 1, 65, 67
3, 389632, Note_on_c, 1, 65, 0
3, 389632, Note_on_c, 1, 64, 68
3, 389888, Note_on_c, 1, 64, 0
3, 389888, Note_on_c, 1, 62, 68
3, 390144, Note_on_c, 1, 62, 0
3, 390144, Note_on_c, 1, 61, 69
3, 390400, Note_on_c, 1, 61, 0
3, 390400, Note_on_c, 1, 59, 69
3, 390656, Note_on_c, 1, 59, 0
3, 390656, Note_on_c, 1, 61, 70
3, 390912, Note_on_c, 1, 61, 0
3, 390912, Note_on_c, 1, 62, 70
3, 391168, Note_on_c, 1, 62, 0
3, 391168, Note_on_c, 1, 61, 71
3, 391424, Note_on_c, 1, 61, 0
3, 391424, Note_on_c, 1, 62, 71
3, 391680, Note_on_c, 1, 62, 0
3, 391680, Note_on_c, 1, 64, 72
3, 391936, Note_on_c, 1, 64, 0
3, 391936, Note_on_c, 1, 62, 72
3, 392192, Note_on_c, 1, 62, 0
3, 392192, Note_on_c, 1, 64, 73
3, 392448, Note_on_c, 1, 64, 0
3, 392448, Note_on_c, 1, 65, 73
3, 392704, Note_on_c, 1, 65, 0
3, 392704, Note_on_c, 1, 64, 74
3, 392960, Note_on_c, 1, 64, 0
3, 392960, Note_on_c, 1, 65, 74
3, 393216, Note_on_c, 1, 65, 0
3, 393216, Note_on_c, 1, 62, 50
3, 393600, Note_on_c, 1, 62, 0
3, 393728, Note_on_c, 1, 57, 50
3, 394112, Note_on_c, 1, 57, 0
3, 394240, Note_on_c, 1, 58, 50
3, 395264, Note_on_c, 1, 58, 0
3, 395264, Note_on_c, 1, 57, 50
3, 395648, Note_on_c, 1, 57, 0
3, 395776, Note_on_c, 1, 62, 50
3, 396800, Note_on_c, 1, 62, 0
3, 396800, Note_on_c, 1, 57, 50
3, 397184, Note_on_c, 1, 57, 0
3, 397312, Note_on_c, 1, 58, 50
3, 398336, Note_on_c, 1, 58, 0
3, 398336, Note_on_c, 1, 57, 50
3, 398720, Note_on_c, 1, 57, 0
3, 398848, Note_on_c, 1, 62, 50
3, 399872, Note_on_c, 1, 62, 0
3, 399872, Note_on_c, 1, 59, 50
3, 400256, Note_on_c, 1, 59, 0
3, 400384, Note_on_c, 1, 67, 50
3, 401408, Note_on_c, 1, 67, 0
3, 401408, Note_on_c, 1, 61, 50
3, 401792, Note_on_c, 1, 61, 0
3, 401920, Note_on_c, 1, 69, 50
3, 402304, Note_on_c, 1, 69, 0
3, 402432, Note_on_c, 1, 65, 50
3, 402816, Note_on_c, 1, 65, 0
3, 402944, Note_on_c, 1, 62, 50
3, 403328, Note_on_c, 1, 62, 0
3, 403456, Note_on_c, 1, 61, 50
3, 403584, Note_on_c, 1, 61, 0
3, 403584, Note_on_c, 1, 62, 50
3, 403712, Note_on_c, 1, 62, 0
3, 403712, Note_on_c, 1, 61, 50
3, 403922, Note_on_c, 1, 61, 0
3, 403968, Note_on_c, 1, 62, 50
3, 404931, Note_on_c, 1, 62, 0
3, 404992, Note_on_c, 1, 65, 64
3, 405376, Note_on_c, 1, 65, 0
3, 405504, Note_on_c, 1, 70, 64
3, 406016, Note_on_c, 1, 70, 0
3, 406016, Note_on_c, 1, 69, 64
3, 406400, Note_on_c, 1, 69, 0
3, 406528, Note_on_c, 1, 70, 64
3, 406912, Note_on_c, 1, 70, 0
3, 407040, Note_on_c, 1, 62, 64
3, 407552, Note_on_c, 1, 62, 0
3, 407552, Note_on_c, 1, 65, 64
3, 407936, Note_on_c, 1, 65, 0
3, 408064, Note_on_c, 1, 70, 64
3, 408448, Note_on_c, 1, 70, 0
3, 408576, Note_on_c, 1, 70, 64
3, 409088, Note_on_c, 1, 70, 0
3, 409088, Note_on_c, 1, 69, 64
3, 409472, Note_on_c, 1, 69, 0
3, 409600, Note_on_c, 1, 70, 64
3, 409984, Note_on_c, 1, 70, 0
3, 410112, Note_on_c, 1, 62, 64
3, 410624, Note_on_c, 1, 62, 0
3, 410624, Note_on_c, 1, 65, 64
3, 411008, Note_on_c, 1, 65, 0
3, 411136, Note_on_c, 1, 70, 64
3, 411520, Note_on_c, 1, 70, 0
3, 411648, Note_on_c, 1, 72, 64
3, 412160, Note_on_c, 1, 72, 0
3, 412160, Note_on_c, 1, 70, 64
3, 412544, Note_on_c, 1, 70, 0
3, 412672, Note_on_c, 1, 72, 64
3, 413056, Note_on_c, 1, 72, 0
3, 413184, Note_on_c, 1, 65, 64
3, 413696, Note_on_c, 1, 65, 0
3, 413696, Note_on_c, 1, 69, 64
3, 414080, Note_on_c, 1, 69, 0
3, 414208, Note_on_c, 1, 72, 64
3, 414592, Note_on_c, 1, 72, 0
3, 414720, Note_on_c, 1, 74, 64
3, 415232, Note_on_c, 1, 74, 0
3, 415232, Note_on_c, 1, 72, 64
3, 415616, Note_on_c, 1, 72, 0
3, 415744, Note_on_c, 1, 74, 64
3, 416128, Note_on_c, 1, 74, 0
3, 416256, Note_on_c, 1, 70, 64
3, 417280, Note_on_c, 1, 70, 0
3, 417280, Note_on_c, 1, 74, 64
3, 418304, Note_on_c, 1, 74, 0
3, 418304, Note_on_c, 1, 67, 64
3, 418688, Note_on_c, 1, 67, 0
3, 418816, Note_on_c, 1, 70, 64
3, 419840, Note_on_c, 1, 70, 0
3, 419840, Note_on_c, 1, 64, 64
3, 420224, Note_on_c, 1, 64, 0
3, 420352, Note_on_c, 1, 72, 64
3, 421376, Note_on_c, 1, 72, 0
3, 421376, Note_on_c, 1, 65, 64
3, 421760, Note_on_c, 1, 65, 0
3, 421888, Note_on_c, 1, 69, 64
3, 422912, Note_on_c, 1, 69, 0
3, 422912, Note_on_c, 1, 62, 64
3, 423296, Note_on_c, 1, 62, 0
3, 423424, Note_on_c, 1, 70, 64
3, 424448, Note_on_c, 1, 70, 0
3, 424448, Note_on_c, 1, 64, 64
3, 424832, Note_on_c, 1, 64, 0
3, 424960, Note_on_c, 1, 67, 64
3, 425984, Note_on_c, 1, 67, 0
3, 425984, Note_on_c, 1, 60, 64
3, 426368, Note_on_c, 1, 60, 0
3, 426496, Note_on_c, 1, 70, 64
3, 426880, Note_on_c, 1, 70, 0
3, 427008, Note_on_c, 1, 69, 64
3, 427520, Note_on_c, 1, 69, 0
3, 427520, Note_on_c, 1, 67, 64
3, 427904, Note_on_c, 1, 67, 0
3, 428032, Note_on_c, 1, 69, 64
3, 428416, Note_on_c, 1, 69, 0
3, 428544, Note_on_c, 1, 65, 64
3, 429056, Note_on_c, 1, 65, 0
3, 429056, Note_on_c, 1, 69, 64
3, 429440, Note_on_c, 1, 69, 0
3, 429568, Note_on_c, 1, 72, 64
3, 429952, Note_on_c, 1, 72, 0
3, 430080, Note_on_c, 1, 77, 64
3, 430464, Note_on_c, 1, 77, 0
3, 430592, Note_on_c, 1, 70, 64
3, 430976, Note_on_c, 1, 70, 0
3, 431104, Note_on_c, 1, 74, 64
3, 432128, Note_on_c, 1, 74, 0
3, 432128, Note_on_c, 1, 67, 64
3, 432512, Note_on_c, 1, 67, 0
3, 432640, Note_on_c, 1, 75, 64
3, 433664, Note_on_c, 1, 75, 0
3, 433664, Note_on_c, 1, 69, 64
3, 434048, Note_on_c, 1, 69, 0
3, 434176, Note_on_c, 1, 72, 64
3, 435200, Note_on_c, 1, 72, 0
3, 435200, Note_on_c, 1, 65, 64
3, 435584, Note_on_c, 1, 65, 0
3, 435712, Note_on_c, 1, 74, 64
3, 436736, Note_on_c, 1, 74, 0
3, 436736, Note_on_c, 1, 65, 64
3, 437120, Note_on_c, 1, 65, 0
3, 437248, Note_on_c, 1, 70, 64
3, 438272, Note_on_c, 1, 70, 0
3, 438272, Note_on_c, 1, 62, 64
3, 438656, Note_on_c, 1, 62, 0
3, 438784, Note_on_c, 1, 65, 64
3, 439808, Note_on_c, 1, 65, 0
3, 439808, Note_on_c, 1, 58, 64
3, 440192, Note_on_c, 1, 58, 0
3, 440320, Note_on_c, 1, 62, 64
3, 440704, Note_on_c, 1, 62, 0
3, 440832, Note_on_c, 1, 65, 64
3, 441216, Note_on_c, 1, 65, 0
3, 441344, Note_on_c, 1, 62, 64
3, 441728, Note_on_c, 1, 62, 0
3, 441856, Note_on_c, 1, 65, 64
3, 442240, Note_on_c, 1, 65, 0
3, 442368, Note_on_c, 1, 70, 64
3, 442752, Note_on_c, 1, 70, 0
3, 442880, Note_on_c, 1, 65, 64
3, 443264, Note_on_c, 1, 65, 0
3, 443392, Note_on_c, 1, 67, 64
3, 444416, Note_on_c, 1, 67, 0
3, 444416, Note_on_c, 1, 65, 64
3, 444800, Note_on_c, 1, 65, 0
3, 444928, Note_on_c, 1, 70, 64
3, 445952, Note_on_c, 1, 70, 0
3, 445952, Note_on_c, 1, 65, 64
3, 446336, Note_on_c, 1, 65, 0
3, 446464, Note_on_c, 1, 67, 64
3, 447488, Note_on_c, 1, 67, 0
3, 447488, Note_on_c, 1, 65, 64
3, 447872, Note_on_c, 1, 65, 0
3, 448000, Note_on_c, 1, 70, 64
3, 449024, Note_on_c, 1, 70, 0
3, 449024, Note_on_c, 1, 67, 64
3, 449408, Note_on_c, 1, 67, 0
3, 449536, Note_on_c, 1, 75, 64
3, 450560, Note_on_c, 1, 75, 0
3, 450560, Note_on_c, 1, 69, 64
3, 450944, Note_on_c, 1, 69, 0
3, 451072, Note_on_c, 1, 77, 64
3, 451584, Note_on_c, 1, 77, 0
3, 451584, Note_on_c, 1, 74, 64
3, 451968, Note_on_c, 1, 74, 0
3, 452096, Note_on_c, 1, 70, 64
3, 452480, Note_on_c, 1, 70, 0
3, 452608, Note_on_c, 1, 69, 64
3, 452992, Note_on_c, 1, 69, 0
3, 453120, Note_on_c, 1, 70, 64
3, 454144, Note_on_c, 1, 70, 0
3, 455424, Note_on_c, 1, 65, 45
3, 455680, Note_on_c, 1, 65, 0
3, 455680, Note_on_c, 1, 67, 45
3, 455936, Note_on_c, 1, 67, 0
3, 455936, Note_on_c, 1, 69, 45
3, 456192, Note_on_c, 1, 69, 0
3, 456192, Note_on_c, 1, 70, 45
3, 456448, Note_on_c, 1, 70, 0
3, 456448, Note_on_c, 1, 69, 45
3, 456704, Note_on_c, 1, 69, 0
3, 456704, Note_on_c, 1, 70, 45
3, 457088, Note_on_c, 1, 70, 0
3, 458496, Note_on_c, 1, 65, 45
3, 458752, Note_on_c, 1, 65, 0
3, 458752, Note_on_c, 1, 67, 45
3, 459008, Note_on_c, 1, 67, 0
3, 459008, Note_on_c, 1, 69, 45
3, 459264, Note_on_c, 1, 69, 0
3, 459264, Note_on_c, 1, 70, 45
3, 459520, Note_on_c, 1, 70, 0
3, 459520, Note_on_c, 1, 69, 45
3, 459776, Note_on_c, 1, 69, 0
3, 459776, Note_on_c, 1, 70, 45
3, 460160, Note_on_c, 1, 70, 0
3, 461568, Note_on_c, 1, 67, 45
3, 461824, Note_on_c, 1, 67, 0
3, 461824, Note_on_c, 1, 69, 45
3, 462080, Note_on_c, 1, 69, 0
3, 462080, Note_on_c, 1, 70, 45
3, 462336, Note_on_c, 1, 70, 0
3, 462336, Note_on_c, 1, 72, 45
3, 462592, Note_on_c, 1, 72, 0
3, 462592, Note_on_c, 1, 70, 45
3, 462848, Note_on_c, 1, 70, 0
3, 462848, Note_on_c, 1, 72, 45
3, 463104, Note_on_c, 1, 72, 0
3, 463104, Note_on_c, 1, 70, 45
3, 463360, Note_on_c, 1, 70, 0
3, 463360, Note_on_c, 1, 69, 45
3, 463616, Note_on_c, 1, 69, 0
3, 463616, Note_on_c, 1, 67, 45
3, 463872, Note_on_c, 1, 67, 0
3, 463872, Note_on_c, 1, 65, 45
3, 464128, Note_on_c, 1, 65, 0
3, 464128, Note_on_c, 1, 63, 45
3, 464384, Note_on_c, 1, 63, 0
3, 464384, Note_on_c, 1, 65, 45
3, 464640, Note_on_c, 1, 65, 0
3, 464640, Note_on_c, 1, 67, 45
3, 464896, Note_on_c, 1, 67, 0
3, 464896, Note_on_c, 1, 65, 45
3, 465152, Note_on_c, 1, 65, 0
3, 465152, Note_on_c, 1, 63, 45
3, 465408, Note_on_c, 1, 63, 0
3, 465408, Note_on_c, 1, 62, 45
3, 465664, Note_on_c, 1, 62, 0
3, 465664, Note_on_c, 1, 60, 45
3, 465920, Note_on_c, 1, 60, 0
3, 465920, Note_on_c, 1, 62, 45
3, 466176, Note_on_c, 1, 62, 0
3, 466176, Note_on_c, 1, 63, 45
3, 466432, Note_on_c, 1, 63, 0
3, 466432, Note_on_c, 1, 65, 45
3, 466688, Note_on_c, 1, 65, 0
3, 466688, Note_on_c, 1, 62, 45
3, 466944, Note_on_c, 1, 62, 0
3, 466944, Note_on_c, 1, 67, 45
3, 467200, Note_on_c, 1, 67, 0
3, 467200, Note_on_c, 1, 69, 45
3, 467456, Note_on_c, 1, 69, 0
3, 467456, Note_on_c, 1, 70, 46
3, 467712, Note_on_c, 1, 70, 0
3, 467712, Note_on_c, 1, 69, 46
3, 467968, Note_on_c, 1, 69, 0
3, 467968, Note_on_c, 1, 67, 47
3, 468224, Note_on_c, 1, 67, 0
3, 468224, Note_on_c, 1, 65, 47
3, 468480, Note_on_c, 1, 65, 0
3, 468480, Note_on_c, 1, 64, 47
3, 468736, Note_on_c, 1, 64, 0
3, 468736, Note_on_c, 1, 62, 48
3, 468992, Note_on_c, 1, 62, 0
3, 468992, Note_on_c, 1, 60, 48
3, 469248, Note_on_c, 1, 60, 0
3, 469248, Note_on_c, 1, 62, 49
3, 469504, Note_on_c, 1, 62, 0
3, 469504, Note_on_c, 1, 64, 49
3, 469760, Note_on_c, 1, 64, 0
3, 469760, Note_on_c, 1, 60, 49
3, 470016, Note_on_c, 1, 60, 0
3, 470016, Note_on_c, 1, 65, 50
3, 470272, Note_on_c, 1, 65, 0
3, 470272, Note_on_c, 1, 67, 50
3, 470528, Note_on_c, 1, 67, 0
3, 470528, Note_on_c, 1, 69, 51
3, 470784, Note_on_c, 1, 69, 0
3, 470784, Note_on_c, 1, 67, 51
3, 471040, Note_on_c, 1, 67, 0
3, 471040, Note_on_c, 1, 65, 51
3, 471296, Note_on_c, 1, 65, 0
3, 471296, Note_on_c, 1, 64, 52
3, 471552, Note_on_c, 1, 64, 0
3, 471552, Note_on_c, 1, 62, 52
3, 471808, Note_on_c, 1, 62, 0
3, 471808, Note_on_c, 1, 60, 53
3, 472064, Note_on_c, 1, 60, 0
3, 472064, Note_on_c, 1, 58, 53
3, 472320, Note_on_c, 1, 58, 0
3, 472320, Note_on_c, 1, 60, 53
3, 472576, Note_on_c, 1, 60, 0
3, 472576, Note_on_c, 1, 62, 54
3, 472832, Note_on_c, 1, 62, 0
3, 472832, Note_on_c, 1, 58, 54
3, 473088, Note_on_c, 1, 58, 0
3, 473088, Note_on_c, 1, 64, 55
3, 473344, Note_on_c, 1, 64, 0
3, 473344, Note_on_c, 1, 65, 55
3, 473600, Note_on_c, 1, 65, 0
3, 473600, Note_on_c, 1, 67, 55
3, 473856, Note_on_c, 1, 67, 0
3, 473856, Note_on_c, 1, 65, 56
3, 474112, Note_on_c, 1, 65, 0
3, 474112, Note_on_c, 1, 64, 56
3, 474368, Note_on_c, 1, 64, 0
3, 474368, Note_on_c, 1, 62, 56
3, 474624, Note_on_c, 1, 62, 0
3, 474624, Note_on_c, 1, 60, 57
3, 474880, Note_on_c, 1, 60, 0
3, 474880, Note_on_c, 1, 62, 57
3, 475136, Note_on_c, 1, 62, 0
3, 475136, Note_on_c, 1, 64, 58
3, 475392, Note_on_c, 1, 64, 0
3, 475392, Note_on_c, 1, 62, 58
3, 475648, Note_on_c, 1, 62, 0
3, 475648, Note_on_c, 1, 60, 58
3, 475904, Note_on_c, 1, 60, 0
3, 475904, Note_on_c, 1, 58, 59
3, 476160, Note_on_c, 1, 58, 0
3, 476160, Note_on_c, 1, 60, 59
3, 476416, Note_on_c, 1, 60, 0
3, 476416, Note_on_c, 1, 65, 60
3, 476672, Note_on_c, 1, 65, 0
3, 476672, Note_on_c, 1, 64, 60
3, 476928, Note_on_c, 1, 64, 0
3, 476928, Note_on_c, 1, 62, 60
3, 477184, Note_on_c, 1, 62, 0
3, 477184, Note_on_c, 1, 60, 61
3, 477440, Note_on_c, 1, 60, 0
3, 477440, Note_on_c, 1, 58, 61
3, 477696, Note_on_c, 1, 58, 0
3, 477696, Note_on_c, 1, 57, 62
3, 477952, Note_on_c, 1, 57, 0
3, 477952, Note_on_c, 1, 58, 62
3, 478208, Note_on_c, 1, 58, 0
3, 478208, Note_on_c, 1, 60, 62
3, 478464, Note_on_c, 1, 60, 0
3, 478464, Note_on_c, 1, 58, 63
3, 478720, Note_on_c, 1, 58, 0
3, 478720, Note_on_c, 1, 57, 63
3, 478976, Note_on_c, 1, 57, 0
3, 478976, Note_on_c, 1, 55, 64
3, 479232, Note_on_c, 1, 55, 0
3, 479232, Note_on_c, 1, 53, 64
3, 480256, Note_on_c, 1, 53, 0
3, 480256, Note_on_c, 1, 65, 64
3, 480640, Note_on_c, 1, 65, 0
3, 480768, Note_on_c, 1, 57, 64
3, 481280, Note_on_c, 1, 57, 0
3, 481280, Note_on_c, 1, 60, 64
3, 481664, Note_on_c, 1, 60, 0
3, 481792, Note_on_c, 1, 65, 64
3, 482176, Note_on_c, 1, 65, 0
3, 482304, Note_on_c, 1, 65, 64
3, 482816, Note_on_c, 1, 65, 0
3, 482816, Note_on_c, 1, 64, 64
3, 483200, Note_on_c, 1, 64, 0
3, 483328, Note_on_c, 1, 65, 64
3, 483712, Note_on_c, 1, 65, 0
3, 483840, Note_on_c, 1, 57, 64
3, 484352, Note_on_c, 1, 57, 0
3, 484352, Note_on_c, 1, 60, 64
3, 484736, Note_on_c, 1, 60, 0
3, 484864, Note_on_c, 1, 65, 64
3, 485248, Note_on_c, 1, 65, 0
3, 485376, Note_on_c, 1, 67, 64
3, 485888, Note_on_c, 1, 67, 0
3, 485888, Note_on_c, 1, 65, 64
3, 486272, Note_on_c, 1, 65, 0
3, 486400, Note_on_c, 1, 67, 64
3, 486784, Note_on_c, 1, 67, 0
3, 486912, Note_on_c, 1, 60, 64
3, 487424, Note_on_c, 1, 60, 0
3, 487424, Note_on_c, 1, 64, 64
3, 487808, Note_on_c, 1, 64, 0
3, 487936, Note_on_c, 1, 67, 64
3, 488320, Note_on_c, 1, 67, 0
3, 488448, Note_on_c, 1, 69, 64
3, 488960, Note_on_c, 1, 69, 0
3, 488960, Note_on_c, 1, 67, 64
3, 489344, Note_on_c, 1, 67, 0
3, 489472, Note_on_c, 1, 69, 64
3, 489856, Note_on_c, 1, 69, 0
3, 489984, Note_on_c, 1, 65, 64
3, 490752, Note_on_c, 1, 65, 0
3, 490752, Note_on_c, 1, 60, 64
3, 491008, Note_on_c, 1, 60, 0
3, 491008, Note_on_c, 1, 62, 64
3, 491264, Note_on_c, 1, 62, 0
3, 491264, Note_on_c, 1, 64, 64
3, 491520, Note_on_c, 1, 64, 0
3, 491520, Note_on_c, 1, 65, 45
3, 491776, Note_on_c, 1, 65, 0
3, 491776, Note_on_c, 1, 64, 45
3, 492032, Note_on_c, 1, 64, 0
3, 492032, Note_on_c, 1, 65, 45
3, 492416, Note_on_c, 1, 65, 0
3, 493824, Note_on_c, 1, 60, 45
3, 494080, Note_on_c, 1, 60, 0
3, 494080, Note_on_c, 1, 62, 45
3, 494336, Note_on_c, 1, 62, 0
3, 494336, Note_on_c, 1, 64, 45
3, 494592, Note_on_c, 1, 64, 0
3, 494592, Note_on_c, 1, 65, 45
3, 494848, Note_on_c, 1, 65, 0
3, 494848, Note_on_c, 1, 64, 45
3, 495104, Note_on_c, 1, 64, 0
3, 495104, Note_on_c, 1, 65, 45
3, 495488, Note_on_c, 1, 65, 0
3, 496896, Note_on_c, 1, 62, 45
3, 497152, Note_on_c, 1, 62, 0
3, 497152, Note_on_c, 1, 64, 45
3, 497408, Note_on_c, 1, 64, 0
3, 497408, Note_on_c, 1, 65, 45
3, 497664, Note_on_c, 1, 65, 0
3, 497664, Note_on_c, 1, 67, 45
3, 497920, Note_on_c, 1, 67, 0
3, 497920, Note_on_c, 1, 65, 45
3, 498176, Note_on_c, 1, 65, 0
3, 498176, Note_on_c, 1, 67, 45
3, 498432, Note_on_c, 1, 67, 0
3, 498432, Note_on_c, 1, 65, 45
3, 498688, Note_on_c, 1, 65, 0
3, 498688, Note_on_c, 1, 64, 45
3, 498944, Note_on_c, 1, 64, 0
3, 498944, Note_on_c, 1, 62, 45
3, 499200, Note_on_c, 1, 62, 0
3, 499200, Note_on_c, 1, 60, 45
3, 499584, Note_on_c, 1, 60, 0
3, 499712, Note_on_c, 1, 64, 45
3, 500096, Note_on_c, 1, 64, 0
3, 500224, Note_on_c, 1, 67, 45
3, 500608, Note_on_c, 1, 67, 0
3, 500736, Note_on_c, 1, 69, 45
3, 500992, Note_on_c, 1, 69, 0
3, 500992, Note_on_c, 1, 67, 45
3, 501248, Note_on_c, 1, 67, 0
3, 501248, Note_on_c, 1, 69, 45
3, 501504, Note_on_c, 1, 69, 0
3, 501504, Note_on_c, 1, 70, 45
3, 501760, Note_on_c, 1, 70, 0
3, 501760, Note_on_c, 1, 69, 45
3, 502016, Note_on_c, 1, 69, 0
3, 502016, Note_on_c, 1, 67, 45
3, 502272, Note_on_c, 1, 67, 0
3, 502272, Note_on_c, 1, 65, 64
3, 502656, Note_on_c, 1, 65, 0
3, 502784, Note_on_c, 1, 60, 64
3, 503168, Note_on_c, 1, 60, 0
3, 503296, Note_on_c, 1, 69, 64
3, 504320, Note_on_c, 1, 69, 0
3, 504320, Note_on_c, 1, 62, 64
3, 504704, Note_on_c, 1, 62, 0
3, 504832, Note_on_c, 1, 65, 64
3, 505856, Note_on_c, 1, 65, 0
3, 505856, Note_on_c, 1, 59, 64
3, 506240, Note_on_c, 1, 59, 0
3, 506368, Note_on_c, 1, 67, 64
3, 507392, Note_on_c, 1, 67, 0
3, 507392, Note_on_c, 1, 60, 64
3, 507776, Note_on_c, 1, 60, 0
3, 507904, Note_on_c, 1, 64, 64
3, 508928, Note_on_c, 1, 64, 0
3, 508928, Note_on_c, 1, 57, 64
3, 509312, Note_on_c, 1, 57, 0
3, 509440, Note_on_c, 1, 65, 64
3, 510464, Note_on_c, 1, 65, 0
3, 510464, Note_on_c, 1, 59, 64
3, 510848, Note_on_c, 1, 59, 0
3, 510976, Note_on_c, 1, 62, 64
3, 512000, Note_on_c, 1, 62, 0
3, 512000, Note_on_c, 1, 55, 64
3, 512384, Note_on_c, 1, 55, 0
3, 512512, Note_on_c, 1, 65, 64
3, 512896, Note_on_c, 1, 65, 0
3, 513024, Note_on_c, 1, 64, 64
3, 513536, Note_on_c, 1, 64, 0
3, 513536, Note_on_c, 1, 62, 64
3, 513920, Note_on_c, 1, 62, 0
3, 514048, Note_on_c, 1, 64, 64
3, 514432, Note_on_c, 1, 64, 0
3, 514560, Note_on_c, 1, 60, 64
3, 515072, Note_on_c, 1, 60, 0
3, 515072, Note_on_c, 1, 64, 64
3, 515456, Note_on_c, 1, 64, 0
3, 515584, Note_on_c, 1, 67, 64
3, 515968, Note_on_c, 1, 67, 0
3, 516096, Note_on_c, 1, 72, 64
3, 516480, Note_on_c, 1, 72, 0
3, 516608, Note_on_c, 1, 65, 64
3, 516992, Note_on_c, 1, 65, 0
3, 517120, Note_on_c, 1, 69, 64
3, 518144, Note_on_c, 1, 69, 0
3, 518144, Note_on_c, 1, 62, 64
3, 518528, Note_on_c, 1, 62, 0
3, 518656, Note_on_c, 1, 70, 64
3, 519680, Note_on_c, 1, 70, 0
3, 519680, Note_on_c, 1, 64, 64
3, 520064, Note_on_c, 1, 64, 0
3, 520192, Note_on_c, 1, 67, 64
3, 521216, Note_on_c, 1, 67, 0
3, 521216, Note_on_c, 1, 60, 64
3, 521600, Note_on_c, 1, 60, 0
3, 521728, Note_on_c, 1, 69, 64
3, 522496, Note_on_c, 1, 69, 0
3, 522496, Note_on_c, 1, 65, 51
3, 522752, Note_on_c, 1, 65, 0
3, 522752, Note_on_c, 1, 64, 51
3, 523008, Note_on_c, 1, 64, 0
3, 523008, Note_on_c, 1, 62, 52
3, 523264, Note_on_c, 1, 62, 0
3, 523264, Note_on_c, 1, 60, 52
3, 523520, Note_on_c, 1, 60, 0
3, 523520, Note_on_c, 1, 58, 53
3, 523776, Note_on_c, 1, 58, 0
3, 523776, Note_on_c, 1, 57, 54
3, 524032, Note_on_c, 1, 57, 0
3, 524032, Note_on_c, 1, 62, 54
3, 524288, Note_on_c, 1, 62, 0
3, 524288, Note_on_c, 1, 60, 55
3, 524544, Note_on_c, 1, 60, 0
3, 524544, Note_on_c, 1, 58, 55
3, 524800, Note_on_c, 1, 58, 0
3, 524800, Note_on_c, 1, 57, 56
3, 525056, Note_on_c, 1, 57, 0
3, 525056, Note_on_c, 1, 55, 56
3, 525312, Note_on_c, 1, 55, 0
3, 525312, Note_on_c, 1, 53, 57
3, 525568, Note_on_c, 1, 53, 0
3, 525568, Note_on_c, 1, 48, 58
3, 525824, Note_on_c, 1, 48, 0
3, 525824, Note_on_c, 1, 50, 58
3, 526080, Note_on_c, 1, 50, 0
3, 526080, Note_on_c, 1, 52, 59
3, 526336, Note_on_c, 1, 52, 0
3, 526336, Note_on_c, 1, 53, 59
3, 526592, Note_on_c, 1, 53, 0
3, 526592, Note_on_c, 1, 55, 60
3, 526848, Note_on_c, 1, 55, 0
3, 526848, Note_on_c, 1, 57, 61
3, 527104, Note_on_c, 1, 57, 0
3, 527104, Note_on_c, 1, 55, 61
3, 527360, Note_on_c, 1, 55, 0
3, 527360, Note_on_c, 1, 53, 62
3, 527616, Note_on_c, 1, 53, 0
3, 527616, Note_on_c, 1, 55, 62
3, 527872, Note_on_c, 1, 55, 0
3, 527872, Note_on_c, 1, 57, 63
3, 528128, Note_on_c, 1, 57, 0
3, 528128, Note_on_c, 1, 58, 63
3, 528384, Note_on_c, 1, 58, 0
3, 528384, Note_on_c, 1, 60, 64
3, 528768, Note_on_c, 1, 60, 0
3, 528896, Note_on_c, 1, 53, 64
3, 529280, Note_on_c, 1, 53, 0
3, 529408, Note_on_c, 1, 62, 64
3, 530432, Note_on_c, 1, 62, 0
3, 530432, Note_on_c, 1, 60, 64
3, 530816, Note_on_c, 1, 60, 0
3, 530944, Note_on_c, 1, 65, 64
3, 531968, Note_on_c, 1, 65, 0
3, 531968, Note_on_c, 1, 60, 64
3, 532352, Note_on_c, 1, 60, 0
3, 532480, Note_on_c, 1, 62, 64
3, 533504, Note_on_c, 1, 62, 0
3, 533504, Note_on_c, 1, 60, 64
3, 533888, Note_on_c, 1, 60, 0
3, 534016, Note_on_c, 1, 65, 64
3, 535040, Note_on_c, 1, 65, 0
3, 535040, Note_on_c, 1, 62, 64
3, 535424, Note_on_c, 1, 62, 0
3, 535552, Note_on_c, 1, 70, 64
3, 536576, Note_on_c, 1, 70, 0
3, 536576, Note_on_c, 1, 64, 64
3, 536960, Note_on_c, 1, 64, 0
3, 537088, Note_on_c, 1, 72, 64
3, 537600, Note_on_c, 1, 72, 0
3, 537600, Note_on_c, 1, 69, 64
3, 537984, Note_on_c, 1, 69, 0
3, 538112, Note_on_c, 1, 65, 64
3, 538496, Note_on_c, 1, 65, 0
3, 538624, Note_on_c, 1, 64, 64
3, 538752, Note_on_c, 1, 64, 0
3, 538752, Note_on_c, 1, 65, 64
3, 538880, Note_on_c, 1, 65, 0
3, 538880, Note_on_c, 1, 64, 64
3, 539072, Note_on_c, 1, 64, 0
3, 539136, Note_on_c, 1, 65, 64
3, 540160, Note_on_c, 1, 65, 0
3, 540160, Note_on_c, 1, 60, 64
3, 540544, Note_on_c, 1, 60, 0
3, 540672, Note_on_c, 1, 65, 64
3, 542720, Note_on_c, 1, 65, 0
3, 542720, Note_on_c, 1, 59, 64
3, 543104, Note_on_c, 1, 59, 0
3, 543232, Note_on_c, 1, 62, 64
3, 543616, Note_on_c, 1, 62, 0
3, 543744, Note_on_c, 1, 63, 55
3, 544000, Note_on_c, 1, 63, 0
3, 544000, Note_on_c, 1, 65, 55
3, 544256, Note_on_c, 1, 65, 0
3, 544256, Note_on_c, 1, 67, 55
3, 544512, Note_on_c, 1, 67, 0
3, 544512, Note_on_c, 1, 65, 55
3, 544768, Note_on_c, 1, 65, 0
3, 544768, Note_on_c, 1, 63, 55
3, 545024, Note_on_c, 1, 63, 0
3, 545024, Note_on_c, 1, 62, 55
3, 545280, Note_on_c, 1, 62, 0
3, 545280, Note_on_c, 1, 63, 55
3, 545536, Note_on_c, 1, 63, 0
3, 545536, Note_on_c, 1, 62, 55
3, 545792, Note_on_c, 1, 62, 0
3, 545792, Note_on_c, 1, 60, 55
3, 546048, Note_on_c, 1, 60, 0
3, 546048, Note_on_c, 1, 63, 55
3, 546304, Note_on_c, 1, 63, 0
3, 546304, Note_on_c, 1, 62, 55
3, 546560, Note_on_c, 1, 62, 0
3, 546560, Note_on_c, 1, 65, 55
3, 546816, Note_on_c, 1, 65, 0
3, 546816, Note_on_c, 1, 63, 64
3, 548864, Note_on_c, 1, 63, 0
3, 548864, Note_on_c, 1, 57, 64
3, 549248, Note_on_c, 1, 57, 0
3, 549376, Note_on_c, 1, 60, 64
3, 549760, Note_on_c, 1, 60, 0
3, 549888, Note_on_c, 1, 62, 55
3, 550144, Note_on_c, 1, 62, 0
3, 550144, Note_on_c, 1, 63, 55
3, 550400, Note_on_c, 1, 63, 0
3, 550400, Note_on_c, 1, 65, 55
3, 550656, Note_on_c, 1, 65, 0
3, 550656, Note_on_c, 1, 63, 55
3, 550912, Note_on_c, 1, 63, 0
3, 550912, Note_on_c, 1, 62, 55
3, 551168, Note_on_c, 1, 62, 0
3, 551168, Note_on_c, 1, 60, 55
3, 551424, Note_on_c, 1, 60, 0
3, 551424, Note_on_c, 1, 62, 55
3, 551808, Note_on_c, 1, 62, 0
3, 551936, Note_on_c, 1, 58, 64
3, 552320, Note_on_c, 1, 58, 0
3, 552448, Note_on_c, 1, 62, 64
3, 552832, Note_on_c, 1, 62, 0
3, 552960, Note_on_c, 1, 67, 64
3, 555008, Note_on_c, 1, 67, 0
3, 555008, Note_on_c, 1, 60, 64
3, 555392, Note_on_c, 1, 60, 0
3, 555520, Note_on_c, 1, 63, 64
3, 555904, Note_on_c, 1, 63, 0
3, 556032, Note_on_c, 1, 65, 64
3, 558080, Note_on_c, 1, 65, 0
3, 558080, Note_on_c, 1, 58, 64
3, 558464, Note_on_c, 1, 58, 0
3, 558592, Note_on_c, 1, 62, 64
3, 558976, Note_on_c, 1, 62, 0
3, 559104, Note_on_c, 1, 63, 64
3, 561152, Note_on_c, 1, 63, 0
3, 561152, Note_on_c, 1, 57, 64
3, 561536, Note_on_c, 1, 57, 0
3, 561664, Note_on_c, 1, 60, 64
3, 562048, Note_on_c, 1, 60, 0
3, 562176, Note_on_c, 1, 62, 64
3, 562432, Note_on_c, 1, 62, 0
3, 562432, Note_on_c, 1, 60, 64
3, 562688, Note_on_c, 1, 60, 0
3, 562688, Note_on_c, 1, 62, 64
3, 562944, Note_on_c, 1, 62, 0
3, 562944, Note_on_c, 1, 63, 64
3, 563200, Note_on_c, 1, 63, 0
3, 563200, Note_on_c, 1, 65, 64
3, 563456, Note_on_c, 1, 65, 0
3, 563456, Note_on_c, 1, 67, 64
3, 563712, Note_on_c, 1, 67, 0
3, 563712, Note_on_c, 1, 60, 64
3, 564096, Note_on_c, 1, 60, 0
3, 564224, Note_on_c, 1, 53, 64
3, 564608, Note_on_c, 1, 53, 0
3, 564736, Note_on_c, 1, 77, 64
3, 565760, Note_on_c, 1, 77, 0
3, 565760, Note_on_c, 1, 72, 64
3, 566144, Note_on_c, 1, 72, 0
3, 566272, Note_on_c, 1, 74, 64
3, 566784, Note_on_c, 1, 74, 0
3, 566784, Note_on_c, 1, 74, 64
3, 567296, Note_on_c, 1, 74, 0
3, 567296, Note_on_c, 1, 72, 64
3, 567680, Note_on_c, 1, 72, 0
3, 567808, Note_on_c, 1, 77, 64
3, 568832, Note_on_c, 1, 77, 0
3, 568832, Note_on_c, 1, 72, 64
3, 569216, Note_on_c, 1, 72, 0
3, 569344, Note_on_c, 1, 74, 64
3, 570368, Note_on_c, 1, 74, 0
3, 570368, Note_on_c, 1, 72, 64
3, 570752, Note_on_c, 1, 72, 0
3, 570880, Note_on_c, 1, 65, 64
3, 571264, Note_on_c, 1, 65, 0
3, 571392, Note_on_c, 1, 72, 55
3, 571648, Note_on_c, 1, 72, 0
3, 571648, Note_on_c, 1, 74, 55
3, 571904, Note_on_c, 1, 74, 0
3, 571904, Note_on_c, 1, 75, 55
3, 572160, Note_on_c, 1, 75, 0
3, 572160, Note_on_c, 1, 74, 55
3, 572416, Note_on_c, 1, 74, 0
3, 572416, Note_on_c, 1, 72, 55
3, 572672, Note_on_c, 1, 72, 0
3, 572672, Note_on_c, 1, 70, 55
3, 572928, Note_on_c, 1, 70, 0
3, 572928, Note_on_c, 1, 69, 55
3, 573184, Note_on_c, 1, 69, 0
3, 573184, Note_on_c, 1, 70, 55
3, 573440, Note_on_c, 1, 70, 0
3, 573440, Note_on_c, 1, 72, 55
3, 573696, Note_on_c, 1, 72, 0
3, 573696, Note_on_c, 1, 70, 55
3, 573952, Note_on_c, 1, 70, 0
3, 573952, Note_on_c, 1, 69, 55
3, 574208, Note_on_c, 1, 69, 0
3, 574208, Note_on_c, 1, 67, 55
3, 574464, Note_on_c, 1, 67, 0
3, 574464, Note_on_c, 1, 65, 55
3, 574720, Note_on_c, 1, 65, 0
3, 574720, Note_on_c, 1, 67, 55
3, 574976, Note_on_c, 1, 67, 0
3, 574976, Note_on_c, 1, 69, 55
3, 575232, Note_on_c, 1, 69, 0
3, 575232, Note_on_c, 1, 70, 55
3, 575488, Note_on_c, 1, 70, 0
3, 575488, Note_on_c, 1, 72, 55
3, 575744, Note_on_c, 1, 72, 0
3, 575744, Note_on_c, 1, 69, 55
3, 576000, Note_on_c, 1, 69, 0
3, 576000, Note_on_c, 1, 70, 55
3, 576384, Note_on_c, 1, 70, 0
3, 576512, Note_on_c, 1, 58, 55
3, 576896, Note_on_c, 1, 58, 0
3, 577024, Note_on_c, 1, 68, 55
3, 578048, Note_on_c, 1, 68, 0
3, 578048, Note_on_c, 1, 62, 64
3, 578432, Note_on_c, 1, 62, 0
3, 578560, Note_on_c, 1, 65, 64
3, 579584, Note_on_c, 1, 65, 0
3, 579584, Note_on_c, 1, 58, 64
3, 579968, Note_on_c, 1, 58, 0
3, 580096, Note_on_c, 1, 62, 64
3, 581120, Note_on_c, 1, 62, 0
3, 581120, Note_on_c, 1, 65, 64
3, 581504, Note_on_c, 1, 65, 0
3, 581632, Note_on_c, 1, 68, 64
3, 582656, Note_on_c, 1, 68, 0
3, 582656, Note_on_c, 1, 67, 64
3, 583040, Note_on_c, 1, 67, 0
3, 586240, Note_on_c, 1, 69, 64
3, 587264, Note_on_c, 1, 69, 0
3, 587264, Note_on_c, 1, 62, 64
3, 587648, Note_on_c, 1, 62, 0
3, 587776, Note_on_c, 1, 72, 64
3, 588800, Note_on_c, 1, 72, 0
3, 588800, Note_on_c, 1, 70, 64
3, 589184, Note_on_c, 1, 70, 0
3, 589824, Note_on_c, 1, 63, 64
3, 590848, Note_on_c, 1, 63, 0
3, 590848, Note_on_c, 1, 60, 68
3, 591232, Note_on_c, 1, 60, 0
3, 591360, Note_on_c, 1, 65, 70
3, 592384, Note_on_c, 1, 65, 0
3, 592384, Note_on_c, 1, 62, 73
3, 592768, Note_on_c, 1, 62, 0
3, 592896, Note_on_c, 1, 67, 75
3, 593664, Note_on_c, 1, 67, 0
3, 593664, Note_on_c, 1, 65, 72
3, 593920, Note_on_c, 1, 65, 0
3, 593920, Note_on_c, 1, 63, 69
3, 594176, Note_on_c, 1, 63, 0
3, 594176, Note_on_c, 1, 62, 67
3, 594432, Note_on_c, 1, 62, 0
3, 594432, Note_on_c, 1, 60, 64
3, 594688, Note_on_c, 1, 60, 0
3, 594688, Note_on_c, 1, 58, 61
3, 594944, Note_on_c, 1, 58, 0
3, 594944, Note_on_c, 1, 57, 58
3, 595200, Note_on_c, 1, 57, 0
3, 595200, Note_on_c, 1, 55, 56
3, 595456, Note_on_c, 1, 55, 0
3, 595456, Note_on_c, 1, 53, 53
3, 595712, Note_on_c, 1, 53, 0
3, 595712, Note_on_c, 1, 51, 50
3, 595968, Note_on_c, 1, 51, 0
3, 595968, Note_on_c, 1, 50, 50
3, 596352, Note_on_c, 1, 50, 0
3, 596736, Note_on_c, 1, 53, 51
3, 596992, Note_on_c, 1, 53, 0
3, 596992, Note_on_c, 1, 55, 51
3, 597248, Note_on_c, 1, 55, 0
3, 597248, Note_on_c, 1, 57, 51
3, 597504, Note_on_c, 1, 57, 0
3, 597504, Note_on_c, 1, 58, 52
3, 597760, Note_on_c, 1, 58, 0
3, 597760, Note_on_c, 1, 57, 52
3, 598016, Note_on_c, 1, 57, 0
3, 598016, Note_on_c, 1, 58, 52
3, 598400, Note_on_c, 1, 58, 0
3, 599808, Note_on_c, 1, 53, 54
3, 600064, Note_on_c, 1, 53, 0
3, 600064, Note_on_c, 1, 55, 55
3, 600320, Note_on_c, 1, 55, 0
3, 600320, Note_on_c, 1, 57, 55
3, 600576, Note_on_c, 1, 57, 0
3, 600576, Note_on_c, 1, 58, 55
3, 600832, Note_on_c, 1, 58, 0
3, 600832, Note_on_c, 1, 57, 56
3, 601088, Note_on_c, 1, 57, 0
3, 601088, Note_on_c, 1, 58, 56
3, 601472, Note_on_c, 1, 58, 0
3, 602880, Note_on_c, 1, 55, 58
3, 603136, Note_on_c, 1, 55, 0
3, 603136, Note_on_c, 1, 57, 58
3, 603392, Note_on_c, 1, 57, 0
3, 603392, Note_on_c, 1, 58, 58
3, 603648, Note_on_c, 1, 58, 0
3, 603648, Note_on_c, 1, 60, 59
3, 603904, Note_on_c, 1, 60, 0
3, 603904, Note_on_c, 1, 58, 59
3, 604160, Note_on_c, 1, 58, 0
3, 604160, Note_on_c, 1, 60, 59
3, 604416, Note_on_c, 1, 60, 0
3, 604416, Note_on_c, 1, 58, 60
3, 604672, Note_on_c, 1, 58, 0
3, 604672, Note_on_c, 1, 57, 60
3, 604928, Note_on_c, 1, 57, 0
3, 604928, Note_on_c, 1, 55, 60
3, 605184, Note_on_c, 1, 55, 0
3, 605184, Note_on_c, 1, 53, 61
3, 605440, Note_on_c, 1, 53, 0
3, 605440, Note_on_c, 1, 51, 61
3, 605696, Note_on_c, 1, 51, 0
3, 605696, Note_on_c, 1, 53, 61
3, 605952, Note_on_c, 1, 53, 0
3, 605952, Note_on_c, 1, 55, 61
3, 606208, Note_on_c, 1, 55, 0
3, 606208, Note_on_c, 1, 53, 62
3, 606464, Note_on_c, 1, 53, 0
3, 606464, Note_on_c, 1, 51, 62
3, 606720, Note_on_c, 1, 51, 0
3, 606720, Note_on_c, 1, 50, 62
3, 607744, Note_on_c, 1, 50, 0
3, 607744, Note_on_c, 1, 77, 63
3, 608640, Note_on_c, 1, 77, 0
3, 608768, Note_on_c, 1, 70, 64
3, 609152, Note_on_c, 1, 70, 0
3, 609280, Note_on_c, 1, 74, 64
3, 610304, Note_on_c, 1, 74, 0
3, 610304, Note_on_c, 1, 67, 64
3, 610688, Note_on_c, 1, 67, 0
3, 610816, Note_on_c, 1, 75, 64
3, 611840, Note_on_c, 1, 75, 0
3, 611840, Note_on_c, 1, 69, 64
3, 612224, Note_on_c, 1, 69, 0
3, 612352, Note_on_c, 1, 72, 64
3, 613376, Note_on_c, 1, 72, 0
3, 613376, Note_on_c, 1, 65, 64
3, 613760, Note_on_c, 1, 65, 0
3, 613888, Note_on_c, 1, 74, 64
3, 614912, Note_on_c, 1, 74, 0
3, 614912, Note_on_c, 1, 65, 64
3, 615296, Note_on_c, 1, 65, 0
3, 615424, Note_on_c, 1, 70, 64
3, 616448, Note_on_c, 1, 70, 0
3, 616448, Note_on_c, 1, 62, 64
3, 616832, Note_on_c, 1, 62, 0
3, 616960, Note_on_c, 1, 65, 64
3, 617984, Note_on_c, 1, 65, 0
3, 617984, Note_on_c, 1, 58, 64
3, 618368, Note_on_c, 1, 58, 0
3, 618496, Note_on_c, 1, 62, 64
3, 618880, Note_on_c, 1, 62, 0
3, 619008, Note_on_c, 1, 65, 64
3, 619392, Note_on_c, 1, 65, 0
3, 619520, Note_on_c, 1, 62, 64
3, 619904, Note_on_c, 1, 62, 0
3, 620032, Note_on_c, 1, 65, 64
3, 620416, Note_on_c, 1, 65, 0
3, 620544, Note_on_c, 1, 70, 55
3, 620928, Note_on_c, 1, 70, 0
3, 621056, Note_on_c, 1, 65, 55
3, 621440, Note_on_c, 1, 65, 0
3, 621568, Note_on_c, 1, 67, 56
3, 622592, Note_on_c, 1, 67, 0
3, 622592, Note_on_c, 1, 65, 57
3, 622848, Note_on_c, 1, 65, 0
3, 622848, Note_on_c, 1, 63, 57
3, 623104, Note_on_c, 1, 63, 0
3, 623104, Note_on_c, 1, 62, 57
3, 623360, Note_on_c, 1, 62, 0
3, 623360, Note_on_c, 1, 60, 57
3, 623616, Note_on_c, 1, 60, 0
3, 623616, Note_on_c, 1, 62, 57
3, 623872, Note_on_c, 1, 62, 0
3, 623872, Note_on_c, 1, 63, 57
3, 624128, Note_on_c, 1, 63, 0
3, 624128, Note_on_c, 1, 65, 58
3, 624384, Note_on_c, 1, 65, 0
3, 624384, Note_on_c, 1, 63, 58
3, 624640, Note_on_c, 1, 63, 0
3, 624640, Note_on_c, 1, 62, 58
3, 624896, Note_on_c, 1, 62, 0
3, 624896, Note_on_c, 1, 60, 58
3, 625152, Note_on_c, 1, 60, 0
3, 625152, Note_on_c, 1, 58, 58
3, 625408, Note_on_c, 1, 58, 0
3, 625408, Note_on_c, 1, 60, 59
3, 625664, Note_on_c, 1, 60, 0
3, 625664, Note_on_c, 1, 62, 59
3, 625920, Note_on_c, 1, 62, 0
3, 625920, Note_on_c, 1, 60, 59
3, 626176, Note_on_c, 1, 60, 0
3, 626176, Note_on_c, 1, 58, 59
3, 626432, Note_on_c, 1, 58, 0
3, 626432, Note_on_c, 1, 57, 59
3, 626688, Note_on_c, 1, 57, 0
3, 626688, Note_on_c, 1, 55, 60
3, 626944, Note_on_c, 1, 55, 0
3, 626944, Note_on_c, 1, 57, 60
3, 627200, Note_on_c, 1, 57, 0
3, 627200, Note_on_c, 1, 58, 60
3, 627456, Note_on_c, 1, 58, 0
3, 627456, Note_on_c, 1, 62, 60
3, 627712, Note_on_c, 1, 62, 0
3, 627712, Note_on_c, 1, 60, 60
3, 627968, Note_on_c, 1, 60, 0
3, 627968, Note_on_c, 1, 58, 60
3, 628224, Note_on_c, 1, 58, 0
3, 628224, Note_on_c, 1, 57, 61
3, 628480, Note_on_c, 1, 57, 0
3, 628480, Note_on_c, 1, 58, 61
3, 628736, Note_on_c, 1, 58, 0
3, 628736, Note_on_c, 1, 60, 61
3, 628992, Note_on_c, 1, 60, 0
3, 628992, Note_on_c, 1, 63, 61
3, 629248, Note_on_c, 1, 63, 0
3, 629248, Note_on_c, 1, 62, 61
3, 629504, Note_on_c, 1, 62, 0
3, 629504, Note_on_c, 1, 60, 62
3, 629760, Note_on_c, 1, 60, 0
3, 629760, Note_on_c, 1, 58, 62
3, 630016, Note_on_c, 1, 58, 0
3, 630016, Note_on_c, 1, 57, 62
3, 630272, Note_on_c, 1, 57, 0
3, 630272, Note_on_c, 1, 58, 62
3, 630528, Note_on_c, 1, 58, 0
3, 630528, Note_on_c, 1, 62, 62
3, 630784, Note_on_c, 1, 62, 0
3, 630784, Note_on_c, 1, 60, 63
3, 631040, Note_on_c, 1, 60, 0
3, 631040, Note_on_c, 1, 63, 63
3, 631296, Note_on_c, 1, 63, 0
3, 631296, Note_on_c, 1, 62, 63
3, 631552, Note_on_c, 1, 62, 0
3, 631552, Note_on_c, 1, 65, 63
3, 631808, Note_on_c, 1, 65, 0
3, 631808, Note_on_c, 1, 62, 63
3, 632064, Note_on_c, 1, 62, 0
3, 632064, Note_on_c, 1, 58, 63
3, 632320, Note_on_c, 1, 58, 0
3, 632320, Note_on_c, 1, 62, 64
3, 632576, Note_on_c, 1, 62, 0
3, 632576, Note_on_c, 1, 65, 64
3, 632832, Note_on_c, 1, 65, 0
3, 632832, Note_on_c, 1, 70, 64
3, 633344, Note_on_c, 1, 70, 0
3, 633344, Note_on_c, 1, 69, 64
3, 633728, Note_on_c, 1, 69, 0
3, 633856, Note_on_c, 1, 70, 64
3, 634240, Note_on_c, 1, 70, 0
3, 634368, Note_on_c, 1, 62, 64
3, 634880, Note_on_c, 1, 62, 0
3, 634880, Note_on_c, 1, 65, 64
3, 635264, Note_on_c, 1, 65, 0
3, 635392, Note_on_c, 1, 70, 64
3, 635776, Note_on_c, 1, 70, 0
3, 635904, Note_on_c, 1, 70, 64
3, 636416, Note_on_c, 1, 70, 0
3, 636416, Note_on_c, 1, 69, 64
3, 636800, Note_on_c, 1, 69, 0
3, 636928, Note_on_c, 1, 70, 64
3, 637312, Note_on_c, 1, 70, 0
3, 637440, Note_on_c, 1, 62, 64
3, 637952, Note_on_c, 1, 62, 0
3, 637952, Note_on_c, 1, 65, 64
3, 638336, Note_on_c, 1, 65, 0
3, 638464, Note_on_c, 1, 70, 64
3, 638848, Note_on_c, 1, 70, 0
3, 638976, Note_on_c, 1, 72, 64
3, 639488, Note_on_c, 1, 72, 0
3, 639488, Note_on_c, 1, 70, 64
3, 639872, Note_on_c, 1, 70, 0
3, 640000, Note_on_c, 1, 72, 64
3, 640384, Note_on_c, 1, 72, 0
3, 640512, Note_on_c, 1, 65, 64
3, 641024, Note_on_c, 1, 65, 0
3, 641024, Note_on_c, 1, 69, 64
3, 641408, Note_on_c, 1, 69, 0
3, 641536, Note_on_c, 1, 72, 64
3, 641920, Note_on_c, 1, 72, 0
3, 642048, Note_on_c, 1, 74, 64
3, 642560, Note_on_c, 1, 74, 0
3, 642560, Note_on_c, 1, 72, 64
3, 642944, Note_on_c, 1, 72, 0
3, 643072, Note_on_c, 1, 74, 64
3, 643456, Note_on_c, 1, 74, 0
3, 643584, Note_on_c, 1, 70, 64
3, 644608, Note_on_c, 1, 70, 0
3, 644608, Note_on_c, 1, 74, 64
3, 645632, Note_on_c, 1, 74, 0
3, 645632, Note_on_c, 1, 67, 64
3, 646016, Note_on_c, 1, 67, 0
3, 646144, Note_on_c, 1, 70, 64
3, 647168, Note_on_c, 1, 70, 0
3, 647168, Note_on_c, 1, 64, 64
3, 647552, Note_on_c, 1, 64, 0
3, 647680, Note_on_c, 1, 72, 64
3, 648704, Note_on_c, 1, 72, 0
3, 648704, Note_on_c, 1, 65, 64
3, 649088, Note_on_c, 1, 65, 0
3, 649216, Note_on_c, 1, 69, 64
3, 650240, Note_on_c, 1, 69, 0
3, 650240, Note_on_c, 1, 62, 64
3, 650624, Note_on_c, 1, 62, 0
3, 650752, Note_on_c, 1, 70, 64
3, 651776, Note_on_c, 1, 70, 0
3, 651776, Note_on_c, 1, 64, 64
3, 652160, Note_on_c, 1, 64, 0
3, 652288, Note_on_c, 1, 67, 64
3, 653312, Note_on_c, 1, 67, 0
3, 653312, Note_on_c, 1, 60, 64
3, 653696, Note_on_c, 1, 60, 0
3, 653824, Note_on_c, 1, 70, 64
3, 654208, Note_on_c, 1, 70, 0
3, 654336, Note_on_c, 1, 69, 64
3, 654848, Note_on_c, 1, 69, 0
3, 654848, Note_on_c, 1, 67, 64
3, 655232, Note_on_c, 1, 67, 0
3, 655360, Note_on_c, 1, 69, 64
3, 655744, Note_on_c, 1, 69, 0
3, 655872, Note_on_c, 1, 65, 64
3, 656384, Note_on_c, 1, 65, 0
3, 656384, Note_on_c, 1, 69, 64
3, 656768, Note_on_c, 1, 69, 0
3, 656896, Note_on_c, 1, 72, 64
3, 657280, Note_on_c, 1, 72, 0
3, 657408, Note_on_c, 1, 77, 64
3, 657792, Note_on_c, 1, 77, 0
3, 657920, Note_on_c, 1, 70, 64
3, 658304, Note_on_c, 1, 70, 0
3, 658432, Note_on_c, 1, 74, 64
3, 659456, Note_on_c, 1, 74, 0
3, 659456, Note_on_c, 1, 67, 64
3, 659840, Note_on_c, 1, 67, 0
3, 659968, Note_on_c, 1, 75, 64
3, 660992, Note_on_c, 1, 75, 0
3, 660992, Note_on_c, 1, 69, 64
3, 661376, Note_on_c, 1, 69, 0
3, 661504, Note_on_c, 1, 72, 64
3, 662528, Note_on_c, 1, 72, 0
3, 662528, Note_on_c, 1, 65, 64
3, 662912, Note_on_c, 1, 65, 0
3, 663040, Note_on_c, 1, 74, 64
3, 664064, Note_on_c, 1, 74, 0
3, 664064, Note_on_c, 1, 65, 64
3, 664448, Note_on_c, 1, 65, 0
3, 664576, Note_on_c, 1, 70, 64
3, 665600, Note_on_c, 1, 70, 0
3, 665600, Note_on_c, 1, 62, 64
3, 665984, Note_on_c, 1, 62, 0
3, 666112, Note_on_c, 1, 65, 64
3, 667136, Note_on_c, 1, 65, 0
3, 667136, Note_on_c, 1, 58, 64
3, 667520, Note_on_c, 1, 58, 0
3, 667648, Note_on_c, 1, 62, 64
3, 668032, Note_on_c, 1, 62, 0
3, 668160, Note_on_c, 1, 65, 64
3, 668544, Note_on_c, 1, 65, 0
3, 668672, Note_on_c, 1, 62, 64
3, 669056, Note_on_c, 1, 62, 0
3, 669184, Note_on_c, 1, 65, 64
3, 669568, Note_on_c, 1, 65, 0
3, 669696, Note_on_c, 1, 70, 64
3, 670080, Note_on_c, 1, 70, 0
3, 670208, Note_on_c, 1, 65, 64
3, 670592, Note_on_c, 1, 65, 0
3, 670720, Note_on_c, 1, 67, 64
3, 671744, Note_on_c, 1, 67, 0
3, 671744, Note_on_c, 1, 65, 64
3, 672128, Note_on_c, 1, 65, 0
3, 672256, Note_on_c, 1, 70, 64
3, 673280, Note_on_c, 1, 70, 0
3, 673280, Note_on_c, 1, 65, 64
3, 673664, Note_on_c, 1, 65, 0
3, 673792, Note_on_c, 1, 67, 64
3, 674816, Note_on_c, 1, 67, 0
3, 674816, Note_on_c, 1, 65, 64
3, 675200, Note_on_c, 1, 65, 0
3, 675328, Note_on_c, 1, 70, 64
3, 676352, Note_on_c, 1, 70, 0
3, 676352, Note_on_c, 1, 67, 64
3, 676736, Note_on_c, 1, 67, 0
3, 676864, Note_on_c, 1, 75, 64
3, 677888, Note_on_c, 1, 75, 0
3, 677888, Note_on_c, 1, 69, 64
3, 678272, Note_on_c, 1, 69, 0
3, 678400, Note_on_c, 1, 77, 64
3, 678912, Note_on_c, 1, 77, 0
3, 678912, Note_on_c, 1, 74, 64
3, 679296, Note_on_c, 1, 74, 0
3, 679424, Note_on_c, 1, 70, 64
3, 679808, Note_on_c, 1, 70, 0
3, 679936, Note_on_c, 1, 69, 64
3, 680064, Note_on_c, 1, 69, 0
3, 680064, Note_on_c, 1, 67, 64
3, 680192, Note_on_c, 1, 67, 0
3, 680192, Note_on_c, 1, 69, 64
3, 680384, Note_on_c, 1, 69, 0
3, 680448, Note_on_c, 1, 70, 64
3, 683520, Note_on_c, 1, 70, 0
3, 688128, Control_c, 1, 121, 127
3, 688128, End_track
4, 0, Start_track
4, 0, Program_c, 2, 41
4, 0, Control_c, 2, 121, 127
4, 0, Control_c, 2, 91, 127
4, 0, Control_c, 2, 7, 100
4, 0, Control_c, 2, 1, 10
4, 0, Control_c, 2, 10, 20
4, 0, Title_t, "Viola I da gamba"
4, 6144, Note_on_c, 2, 65, 64
4, 7168, Note_on_c, 2, 65, 0
4, 7680, Note_on_c, 2, 65, 64
4, 8704, Note_on_c, 2, 65, 0
4, 9216, Note_on_c, 2, 67, 64
4, 10240, Note_on_c, 2, 67, 0
4, 10752, Note_on_c, 2, 70, 64
4, 11776, Note_on_c, 2, 70, 0
4, 12288, Note_on_c, 2, 70, 64
4, 13312, Note_on_c, 2, 70, 0
4, 13824, Note_on_c, 2, 69, 64
4, 14848, Note_on_c, 2, 69, 0
4, 15360, Note_on_c, 2, 70, 64
4, 15872, Note_on_c, 2, 70, 0
4, 15872, Note_on_c, 2, 69, 64
4, 16256, Note_on_c, 2, 69, 0
4, 16384, Note_on_c, 2, 70, 64
4, 16768, Note_on_c, 2, 70, 0
4, 16896, Note_on_c, 2, 65, 64
4, 17920, Note_on_c, 2, 65, 0
4, 17920, Note_on_c, 2, 65, 64
4, 18304, Note_on_c, 2, 65, 0
4, 18432, Note_on_c, 2, 67, 64
4, 19456, Note_on_c, 2, 67, 0
4, 19968, Note_on_c, 2, 67, 64
4, 20992, Note_on_c, 2, 67, 0
4, 21504, Note_on_c, 2, 65, 64
4, 22528, Note_on_c, 2, 65, 0
4, 23040, Note_on_c, 2, 65, 64
4, 24064, Note_on_c, 2, 65, 0
4, 24576, Note_on_c, 2, 64, 64
4, 25600, Note_on_c, 2, 64, 0
4, 25600, Note_on_c, 2, 60, 64
4, 25984, Note_on_c, 2, 60, 0
4, 26112, Note_on_c, 2, 60, 64
4, 27136, Note_on_c, 2, 60, 0
4, 27136, Note_on_c, 2, 64, 64
4, 27520, Note_on_c, 2, 64, 0
4, 27648, Note_on_c, 2, 65, 64
4, 28160, Note_on_c, 2, 65, 0
4, 28160, Note_on_c, 2, 64, 64
4, 28544, Note_on_c, 2, 64, 0
4, 28672, Note_on_c, 2, 65, 64
4, 29056, Note_on_c, 2, 65, 0
4, 29184, Note_on_c, 2, 60, 64
4, 30208, Note_on_c, 2, 60, 0
4, 30208, Note_on_c, 2, 65, 64
4, 30592, Note_on_c, 2, 65, 0
4, 30720, Note_on_c, 2, 65, 64
4, 31744, Note_on_c, 2, 65, 0
4, 32256, Note_on_c, 2, 65, 64
4, 33280, Note_on_c, 2, 65, 0
4, 33792, Note_on_c, 2, 63, 64
4, 34816, Note_on_c, 2, 63, 0
4, 35328, Note_on_c, 2, 65, 64
4, 36352, Note_on_c, 2, 65, 0
4, 36864, Note_on_c, 2, 65, 64
4, 37376, Note_on_c, 2, 65, 0
4, 37376, Note_on_c, 2, 62, 64
4, 37760, Note_on_c, 2, 62, 0
4, 37888, Note_on_c, 2, 65, 64
4, 38272, Note_on_c, 2, 65, 0
4, 38400, Note_on_c, 2, 62, 64
4, 38912, Note_on_c, 2, 62, 0
4, 38912, Note_on_c, 2, 58, 64
4, 39296, Note_on_c, 2, 58, 0
4, 39424, Note_on_c, 2, 62, 64
4, 39808, Note_on_c, 2, 62, 0
4, 39936, Note_on_c, 2, 58, 64
4, 40448, Note_on_c, 2, 58, 0
4, 40448, Note_on_c, 2, 62, 64
4, 40832, Note_on_c, 2, 62, 0
4, 40960, Note_on_c, 2, 65, 64
4, 41344, Note_on_c, 2, 65, 0
4, 41472, Note_on_c, 2, 70, 64
4, 41856, Note_on_c, 2, 70, 0
4, 41984, Note_on_c, 2, 65, 64
4, 42368, Note_on_c, 2, 65, 0
4, 42496, Note_on_c, 2, 70, 64
4, 42880, Note_on_c, 2, 70, 0
4, 43008, Note_on_c, 2, 62, 64
4, 44032, Note_on_c, 2, 62, 0
4, 44544, Note_on_c, 2, 63, 64
4, 45568, Note_on_c, 2, 63, 0
4, 46080, Note_on_c, 2, 62, 64
4, 47104, Note_on_c, 2, 62, 0
4, 47616, Note_on_c, 2, 63, 64
4, 48640, Note_on_c, 2, 63, 0
4, 48640, Note_on_c, 2, 62, 64
4, 49024, Note_on_c, 2, 62, 0
4, 49152, Note_on_c, 2, 63, 64
4, 50176, Note_on_c, 2, 63, 0
4, 50176, Note_on_c, 2, 67, 64
4, 50560, Note_on_c, 2, 67, 0
4, 50688, Note_on_c, 2, 65, 64
4, 51712, Note_on_c, 2, 65, 0
4, 51712, Note_on_c, 2, 72, 64
4, 52096, Note_on_c, 2, 72, 0
4, 52224, Note_on_c, 2, 70, 64
4, 52608, Note_on_c, 2, 70, 0
4, 52736, Note_on_c, 2, 65, 64
4, 53120, Note_on_c, 2, 65, 0
4, 53248, Note_on_c, 2, 65, 64
4, 53632, Note_on_c, 2, 65, 0
4, 53760, Note_on_c, 2, 65, 64
4, 54784, Note_on_c, 2, 65, 0
4, 79872, Note_on_c, 2, 60, 64
4, 80896, Note_on_c, 2, 60, 0
4, 81408, Note_on_c, 2, 60, 64
4, 82432, Note_on_c, 2, 60, 0
4, 82944, Note_on_c, 2, 62, 64
4, 83968, Note_on_c, 2, 62, 0
4, 84480, Note_on_c, 2, 65, 64
4, 85504, Note_on_c, 2, 65, 0
4, 86016, Note_on_c, 2, 65, 64
4, 87040, Note_on_c, 2, 65, 0
4, 87552, Note_on_c, 2, 64, 64
4, 88576, Note_on_c, 2, 64, 0
4, 89088, Note_on_c, 2, 65, 64
4, 89600, Note_on_c, 2, 65, 0
4, 89600, Note_on_c, 2, 64, 64
4, 89984, Note_on_c, 2, 64, 0
4, 90112, Note_on_c, 2, 65, 64
4, 90496, Note_on_c, 2, 65, 0
4, 90624, Note_on_c, 2, 60, 64
4, 91648, Note_on_c, 2, 60, 0
4, 116736, Note_on_c, 2, 65, 64
4, 117760, Note_on_c, 2, 65, 0
4, 118272, Note_on_c, 2, 65, 64
4, 119296, Note_on_c, 2, 65, 0
4, 119808, Note_on_c, 2, 65, 64
4, 120832, Note_on_c, 2, 65, 0
4, 121344, Note_on_c, 2, 64, 64
4, 122368, Note_on_c, 2, 64, 0
4, 122880, Note_on_c, 2, 65, 64
4, 123904, Note_on_c, 2, 65, 0
4, 129024, Note_on_c, 2, 57, 64
4, 130048, Note_on_c, 2, 57, 0
4, 130560, Note_on_c, 2, 58, 64
4, 131584, Note_on_c, 2, 58, 0
4, 134656, Note_on_c, 2, 60, 64
4, 135168, Note_on_c, 2, 60, 0
4, 135168, Note_on_c, 2, 62, 64
4, 136192, Note_on_c, 2, 62, 0
4, 136192, Note_on_c, 2, 67, 64
4, 136576, Note_on_c, 2, 67, 0
4, 136704, Note_on_c, 2, 55, 64
4, 137728, Note_on_c, 2, 55, 0
4, 137728, Note_on_c, 2, 67, 64
4, 138112, Note_on_c, 2, 67, 0
4, 138240, Note_on_c, 2, 65, 64
4, 138624, Note_on_c, 2, 65, 0
4, 138752, Note_on_c, 2, 60, 64
4, 139136, Note_on_c, 2, 60, 0
4, 139264, Note_on_c, 2, 60, 64
4, 139648, Note_on_c, 2, 60, 0
4, 139776, Note_on_c, 2, 60, 64
4, 140800, Note_on_c, 2, 60, 0
4, 145408, Note_on_c, 2, 67, 64
4, 145792, Note_on_c, 2, 67, 0
4, 145920, Note_on_c, 2, 63, 64
4, 146944, Note_on_c, 2, 63, 0
4, 151552, Note_on_c, 2, 65, 64
4, 151936, Note_on_c, 2, 65, 0
4, 152064, Note_on_c, 2, 62, 64
4, 153088, Note_on_c, 2, 62, 0
4, 156160, Note_on_c, 2, 60, 64
4, 156544, Note_on_c, 2, 60, 0
4, 156672, Note_on_c, 2, 60, 64
4, 158208, Note_on_c, 2, 60, 0
4, 159232, Note_on_c, 2, 58, 64
4, 159616, Note_on_c, 2, 58, 0
4, 159744, Note_on_c, 2, 58, 64
4, 161280, Note_on_c, 2, 58, 0
4, 162304, Note_on_c, 2, 57, 64
4, 162688, Note_on_c, 2, 57, 0
4, 162816, Note_on_c, 2, 58, 64
4, 164352, Note_on_c, 2, 58, 0
4, 165888, Note_on_c, 2, 69, 64
4, 166912, Note_on_c, 2, 69, 0
4, 167424, Note_on_c, 2, 70, 64
4, 168448, Note_on_c, 2, 70, 0
4, 168960, Note_on_c, 2, 69, 64
4, 169984, Note_on_c, 2, 69, 0
4, 170496, Note_on_c, 2, 65, 64
4, 171520, Note_on_c, 2, 65, 0
4, 171520, Note_on_c, 2, 65, 64
4, 171904, Note_on_c, 2, 65, 0
4, 172032, Note_on_c, 2, 53, 64
4, 173056, Note_on_c, 2, 53, 0
4, 173056, Note_on_c, 2, 65, 64
4, 173440, Note_on_c, 2, 65, 0
4, 173568, Note_on_c, 2, 53, 64
4, 174592, Note_on_c, 2, 53, 0
4, 174592, Note_on_c, 2, 65, 64
4, 174976, Note_on_c, 2, 65, 0
4, 175104, Note_on_c, 2, 53, 64
4, 176128, Note_on_c, 2, 53, 0
4, 176128, Note_on_c, 2, 69, 64
4, 176512, Note_on_c, 2, 69, 0
4, 176640, Note_on_c, 2, 65, 64
4, 177664, Note_on_c, 2, 65, 0
4, 177664, Note_on_c, 2, 65, 64
4, 178048, Note_on_c, 2, 65, 0
4, 178176, Note_on_c, 2, 58, 64
4, 179200, Note_on_c, 2, 58, 0
4, 179200, Note_on_c, 2, 70, 64
4, 179584, Note_on_c, 2, 70, 0
4, 179712, Note_on_c, 2, 58, 64
4, 180736, Note_on_c, 2, 58, 0
4, 180736, Note_on_c, 2, 70, 64
4, 181120, Note_on_c, 2, 70, 0
4, 181248, Note_on_c, 2, 58, 64
4, 182272, Note_on_c, 2, 58, 0
4, 182272, Note_on_c, 2, 70, 64
4, 182656, Note_on_c, 2, 70, 0
4, 182784, Note_on_c, 2, 58, 64
4, 183808, Note_on_c, 2, 58, 0
4, 184320, Note_on_c, 2, 60, 64
4, 185344, Note_on_c, 2, 60, 0
4, 185856, Note_on_c, 2, 60, 64
4, 186880, Note_on_c, 2, 60, 0
4, 187392, Note_on_c, 2, 62, 64
4, 188416, Note_on_c, 2, 62, 0
4, 188928, Note_on_c, 2, 62, 64
4, 189952, Note_on_c, 2, 62, 0
4, 190464, Note_on_c, 2, 65, 64
4, 191488, Note_on_c, 2, 65, 0
4, 192000, Note_on_c, 2, 58, 64
4, 193024, Note_on_c, 2, 58, 0
4, 193536, Note_on_c, 2, 58, 64
4, 194560, Note_on_c, 2, 58, 0
4, 195072, Note_on_c, 2, 65, 64
4, 196096, Note_on_c, 2, 65, 0
4, 208896, Note_on_c, 2, 70, 64
4, 209920, Note_on_c, 2, 70, 0
4, 210432, Note_on_c, 2, 70, 64
4, 211456, Note_on_c, 2, 70, 0
4, 211968, Note_on_c, 2, 70, 64
4, 212992, Note_on_c, 2, 70, 0
4, 213504, Note_on_c, 2, 69, 64
4, 214528, Note_on_c, 2, 69, 0
4, 215040, Note_on_c, 2, 70, 64
4, 216064, Note_on_c, 2, 70, 0
4, 221184, Note_on_c, 2, 62, 64
4, 222208, Note_on_c, 2, 62, 0
4, 222720, Note_on_c, 2, 63, 64
4, 223744, Note_on_c, 2, 63, 0
4, 224256, Note_on_c, 2, 65, 64
4, 225280, Note_on_c, 2, 65, 0
4, 233472, Note_on_c, 2, 65, 64
4, 234496, Note_on_c, 2, 65, 0
4, 235008, Note_on_c, 2, 65, 64
4, 236032, Note_on_c, 2, 65, 0
4, 236544, Note_on_c, 2, 67, 64
4, 237568, Note_on_c, 2, 67, 0
4, 238080, Note_on_c, 2, 70, 64
4, 239104, Note_on_c, 2, 70, 0
4, 239616, Note_on_c, 2, 70, 64
4, 240640, Note_on_c, 2, 70, 0
4, 241152, Note_on_c, 2, 69, 64
4, 242176, Note_on_c, 2, 69, 0
4, 242688, Note_on_c, 2, 70, 64
4, 243200, Note_on_c, 2, 70, 0
4, 243200, Note_on_c, 2, 69, 64
4, 243584, Note_on_c, 2, 69, 0
4, 243712, Note_on_c, 2, 70, 64
4, 244096, Note_on_c, 2, 70, 0
4, 244224, Note_on_c, 2, 65, 64
4, 245248, Note_on_c, 2, 65, 0
4, 245248, Note_on_c, 2, 65, 64
4, 245632, Note_on_c, 2, 65, 0
4, 245760, Note_on_c, 2, 67, 64
4, 246784, Note_on_c, 2, 67, 0
4, 247296, Note_on_c, 2, 67, 64
4, 248320, Note_on_c, 2, 67, 0
4, 248832, Note_on_c, 2, 65, 64
4, 249856, Note_on_c, 2, 65, 0
4, 250368, Note_on_c, 2, 65, 64
4, 251392, Note_on_c, 2, 65, 0
4, 251904, Note_on_c, 2, 64, 64
4, 252928, Note_on_c, 2, 64, 0
4, 252928, Note_on_c, 2, 60, 64
4, 253312, Note_on_c, 2, 60, 0
4, 253440, Note_on_c, 2, 60, 64
4, 254464, Note_on_c, 2, 60, 0
4, 254464, Note_on_c, 2, 64, 64
4, 254848, Note_on_c, 2, 64, 0
4, 254976, Note_on_c, 2, 65, 64
4, 255488, Note_on_c, 2, 65, 0
4, 255488, Note_on_c, 2, 64, 64
4, 255872, Note_on_c, 2, 64, 0
4, 256000, Note_on_c, 2, 65, 64
4, 256384, Note_on_c, 2, 65, 0
4, 256512, Note_on_c, 2, 60, 64
4, 257536, Note_on_c, 2, 60, 0
4, 257536, Note_on_c, 2, 65, 64
4, 257920, Note_on_c, 2, 65, 0
4, 258048, Note_on_c, 2, 65, 64
4, 259072, Note_on_c, 2, 65, 0
4, 259584, Note_on_c, 2, 65, 64
4, 260608, Note_on_c, 2, 65, 0
4, 261120, Note_on_c, 2, 63, 64
4, 262144, Note_on_c, 2, 63, 0
4, 262656, Note_on_c, 2, 65, 64
4, 263680, Note_on_c, 2, 65, 0
4, 264192, Note_on_c, 2, 65, 64
4, 264704, Note_on_c, 2, 65, 0
4, 264704, Note_on_c, 2, 62, 64
4, 265088, Note_on_c, 2, 62, 0
4, 265216, Note_on_c, 2, 65, 64
4, 265600, Note_on_c, 2, 65, 0
4, 265728, Note_on_c, 2, 62, 64
4, 266240, Note_on_c, 2, 62, 0
4, 266240, Note_on_c, 2, 58, 64
4, 266624, Note_on_c, 2, 58, 0
4, 266752, Note_on_c, 2, 62, 64
4, 267136, Note_on_c, 2, 62, 0
4, 267264, Note_on_c, 2, 58, 64
4, 267776, Note_on_c, 2, 58, 0
4, 267776, Note_on_c, 2, 62, 64
4, 268160, Note_on_c, 2, 62, 0
4, 268288, Note_on_c, 2, 65, 64
4, 268672, Note_on_c, 2, 65, 0
4, 268800, Note_on_c, 2, 70, 64
4, 269184, Note_on_c, 2, 70, 0
4, 269312, Note_on_c, 2, 65, 64
4, 269696, Note_on_c, 2, 65, 0
4, 269824, Note_on_c, 2, 70, 64
4, 270208, Note_on_c, 2, 70, 0
4, 270336, Note_on_c, 2, 62, 64
4, 271360, Note_on_c, 2, 62, 0
4, 271872, Note_on_c, 2, 63, 64
4, 272896, Note_on_c, 2, 63, 0
4, 273408, Note_on_c, 2, 62, 64
4, 274432, Note_on_c, 2, 62, 0
4, 274944, Note_on_c, 2, 63, 64
4, 275968, Note_on_c, 2, 63, 0
4, 275968, Note_on_c, 2, 62, 64
4, 276352, Note_on_c, 2, 62, 0
4, 276480, Note_on_c, 2, 63, 64
4, 277504, Note_on_c, 2, 63, 0
4, 277504, Note_on_c, 2, 67, 64
4, 277888, Note_on_c, 2, 67, 0
4, 278016, Note_on_c, 2, 65, 64
4, 279040, Note_on_c, 2, 65, 0
4, 279040, Note_on_c, 2, 72, 64
4, 279424, Note_on_c, 2, 72, 0
4, 279552, Note_on_c, 2, 70, 64
4, 279936, Note_on_c, 2, 70, 0
4, 280064, Note_on_c, 2, 65, 64
4, 280448, Note_on_c, 2, 65, 0
4, 280576, Note_on_c, 2, 65, 64
4, 280960, Note_on_c, 2, 65, 0
4, 281088, Note_on_c, 2, 65, 64
4, 282112, Note_on_c, 2, 65, 0
4, 319488, Note_on_c, 2, 62, 70
4, 320512, Note_on_c, 2, 62, 0
4, 321024, Note_on_c, 2, 62, 70
4, 322048, Note_on_c, 2, 62, 0
4, 322560, Note_on_c, 2, 63, 70
4, 323584, Note_on_c, 2, 63, 0
4, 324096, Note_on_c, 2, 67, 70
4, 325120, Note_on_c, 2, 67, 0
4, 325632, Note_on_c, 2, 67, 70
4, 326656, Note_on_c, 2, 67, 0
4, 327168, Note_on_c, 2, 66, 70
4, 328192, Note_on_c, 2, 66, 0
4, 328704, Note_on_c, 2, 67, 70
4, 329216, Note_on_c, 2, 67, 0
4, 329216, Note_on_c, 2, 66, 70
4, 329600, Note_on_c, 2, 66, 0
4, 329728, Note_on_c, 2, 67, 70
4, 330112, Note_on_c, 2, 67, 0
4, 330240, Note_on_c, 2, 62, 70
4, 331264, Note_on_c, 2, 62, 0
4, 335872, Note_on_c, 2, 69, 64
4, 336256, Note_on_c, 2, 69, 0
4, 336384, Note_on_c, 2, 69, 64
4, 337408, Note_on_c, 2, 69, 0
4, 342016, Note_on_c, 2, 67, 64
4, 342400, Note_on_c, 2, 67, 0
4, 342528, Note_on_c, 2, 67, 64
4, 343552, Note_on_c, 2, 67, 0
4, 346624, Note_on_c, 2, 62, 64
4, 347008, Note_on_c, 2, 62, 0
4, 347136, Note_on_c, 2, 67, 64
4, 348672, Note_on_c, 2, 67, 0
4, 349696, Note_on_c, 2, 60, 64
4, 350080, Note_on_c, 2, 60, 0
4, 350208, Note_on_c, 2, 65, 64
4, 351744, Note_on_c, 2, 65, 0
4, 352768, Note_on_c, 2, 70, 64
4, 353152, Note_on_c, 2, 70, 0
4, 353280, Note_on_c, 2, 64, 64
4, 354816, Note_on_c, 2, 64, 0
4, 356352, Note_on_c, 2, 57, 64
4, 357376, Note_on_c, 2, 57, 0
4, 357376, Note_on_c, 2, 69, 64
4, 357760, Note_on_c, 2, 69, 0
4, 357888, Note_on_c, 2, 57, 64
4, 358912, Note_on_c, 2, 57, 0
4, 358912, Note_on_c, 2, 69, 64
4, 359296, Note_on_c, 2, 69, 0
4, 359424, Note_on_c, 2, 57, 64
4, 360448, Note_on_c, 2, 57, 0
4, 360448, Note_on_c, 2, 69, 64
4, 360832, Note_on_c, 2, 69, 0
4, 360960, Note_on_c, 2, 57, 64
4, 361984, Note_on_c, 2, 57, 0
4, 361984, Note_on_c, 2, 69, 64
4, 362368, Note_on_c, 2, 69, 0
4, 362496, Note_on_c, 2, 57, 64
4, 363520, Note_on_c, 2, 57, 0
4, 363520, Note_on_c, 2, 69, 64
4, 363904, Note_on_c, 2, 69, 0
4, 364032, Note_on_c, 2, 57, 64
4, 365056, Note_on_c, 2, 57, 0
4, 365056, Note_on_c, 2, 69, 64
4, 365440, Note_on_c, 2, 69, 0
4, 365568, Note_on_c, 2, 57, 64
4, 366592, Note_on_c, 2, 57, 0
4, 366592, Note_on_c, 2, 69, 64
4, 366976, Note_on_c, 2, 69, 0
4, 367104, Note_on_c, 2, 57, 64
4, 368128, Note_on_c, 2, 57, 0
4, 393216, Note_on_c, 2, 57, 50
4, 394240, Note_on_c, 2, 57, 0
4, 394752, Note_on_c, 2, 55, 50
4, 395776, Note_on_c, 2, 55, 0
4, 396288, Note_on_c, 2, 53, 50
4, 397312, Note_on_c, 2, 53, 0
4, 397824, Note_on_c, 2, 50, 50
4, 398848, Note_on_c, 2, 50, 0
4, 399360, Note_on_c, 2, 59, 50
4, 400384, Note_on_c, 2, 59, 0
4, 400384, Note_on_c, 2, 59, 50
4, 400768, Note_on_c, 2, 59, 0
4, 400896, Note_on_c, 2, 61, 50
4, 401920, Note_on_c, 2, 61, 0
4, 401920, Note_on_c, 2, 64, 50
4, 402304, Note_on_c, 2, 64, 0
4, 402432, Note_on_c, 2, 62, 50
4, 402816, Note_on_c, 2, 62, 0
4, 402944, Note_on_c, 2, 57, 50
4, 403328, Note_on_c, 2, 57, 0
4, 403456, Note_on_c, 2, 57, 50
4, 403840, Note_on_c, 2, 57, 0
4, 403968, Note_on_c, 2, 57, 50
4, 404931, Note_on_c, 2, 57, 0
4, 405504, Note_on_c, 2, 65, 64
4, 406528, Note_on_c, 2, 65, 0
4, 407040, Note_on_c, 2, 65, 64
4, 408064, Note_on_c, 2, 65, 0
4, 408576, Note_on_c, 2, 67, 64
4, 409600, Note_on_c, 2, 67, 0
4, 410112, Note_on_c, 2, 70, 64
4, 411136, Note_on_c, 2, 70, 0
4, 411648, Note_on_c, 2, 70, 64
4, 412672, Note_on_c, 2, 70, 0
4, 413184, Note_on_c, 2, 69, 64
4, 414208, Note_on_c, 2, 69, 0
4, 414720, Note_on_c, 2, 70, 64
4, 415232, Note_on_c, 2, 70, 0
4, 415232, Note_on_c, 2, 69, 64
4, 415616, Note_on_c, 2, 69, 0
4, 415744, Note_on_c, 2, 70, 64
4, 416128, Note_on_c, 2, 70, 0
4, 416256, Note_on_c, 2, 65, 64
4, 417280, Note_on_c, 2, 65, 0
4, 417280, Note_on_c, 2, 65, 64
4, 417664, Note_on_c, 2, 65, 0
4, 417792, Note_on_c, 2, 67, 64
4, 418816, Note_on_c, 2, 67, 0
4, 419328, Note_on_c, 2, 67, 64
4, 420352, Note_on_c, 2, 67, 0
4, 420864, Note_on_c, 2, 65, 64
4, 421888, Note_on_c, 2, 65, 0
4, 422400, Note_on_c, 2, 65, 64
4, 423424, Note_on_c, 2, 65, 0
4, 423936, Note_on_c, 2, 64, 64
4, 424960, Note_on_c, 2, 64, 0
4, 424960, Note_on_c, 2, 60, 64
4, 425344, Note_on_c, 2, 60, 0
4, 425472, Note_on_c, 2, 60, 64
4, 426496, Note_on_c, 2, 60, 0
4, 426496, Note_on_c, 2, 64, 64
4, 426880, Note_on_c, 2, 64, 0
4, 427008, Note_on_c, 2, 65, 64
4, 427520, Note_on_c, 2, 65, 0
4, 427520, Note_on_c, 2, 64, 64
4, 427904, Note_on_c, 2, 64, 0
4, 428032, Note_on_c, 2, 65, 64
4, 428416, Note_on_c, 2, 65, 0
4, 428544, Note_on_c, 2, 60, 64
4, 429568, Note_on_c, 2, 60, 0
4, 429568, Note_on_c, 2, 65, 64
4, 429952, Note_on_c, 2, 65, 0
4, 430080, Note_on_c, 2, 65, 64
4, 431104, Note_on_c, 2, 65, 0
4, 431616, Note_on_c, 2, 65, 64
4, 432640, Note_on_c, 2, 65, 0
4, 433152, Note_on_c, 2, 63, 64
4, 434176, Note_on_c, 2, 63, 0
4, 434688, Note_on_c, 2, 65, 64
4, 435712, Note_on_c, 2, 65, 0
4, 436224, Note_on_c, 2, 65, 64
4, 436736, Note_on_c, 2, 65, 0
4, 436736, Note_on_c, 2, 62, 64
4, 437120, Note_on_c, 2, 62, 0
4, 437248, Note_on_c, 2, 65, 64
4, 437632, Note_on_c, 2, 65, 0
4, 437760, Note_on_c, 2, 62, 64
4, 438272, Note_on_c, 2, 62, 0
4, 438272, Note_on_c, 2, 58, 64
4, 438656, Note_on_c, 2, 58, 0
4, 438784, Note_on_c, 2, 62, 64
4, 439168, Note_on_c, 2, 62, 0
4, 439296, Note_on_c, 2, 58, 64
4, 439808, Note_on_c, 2, 58, 0
4, 439808, Note_on_c, 2, 62, 64
4, 440192, Note_on_c, 2, 62, 0
4, 440320, Note_on_c, 2, 65, 64
4, 440704, Note_on_c, 2, 65, 0
4, 440832, Note_on_c, 2, 70, 64
4, 441216, Note_on_c, 2, 70, 0
4, 441344, Note_on_c, 2, 65, 64
4, 441728, Note_on_c, 2, 65, 0
4, 441856, Note_on_c, 2, 70, 64
4, 442240, Note_on_c, 2, 70, 0
4, 442368, Note_on_c, 2, 62, 64
4, 443392, Note_on_c, 2, 62, 0
4, 443904, Note_on_c, 2, 63, 64
4, 444928, Note_on_c, 2, 63, 0
4, 445440, Note_on_c, 2, 62, 64
4, 446464, Note_on_c, 2, 62, 0
4, 446976, Note_on_c, 2, 63, 64
4, 448000, Note_on_c, 2, 63, 0
4, 448000, Note_on_c, 2, 62, 64
4, 448384, Note_on_c, 2, 62, 0
4, 448512, Note_on_c, 2, 63, 64
4, 449536, Note_on_c, 2, 63, 0
4, 449536, Note_on_c, 2, 67, 64
4, 449920, Note_on_c, 2, 67, 0
4, 450048, Note_on_c, 2, 65, 64
4, 451072, Note_on_c, 2, 65, 0
4, 451072, Note_on_c, 2, 72, 64
4, 451456, Note_on_c, 2, 72, 0
4, 451584, Note_on_c, 2, 70, 64
4, 451968, Note_on_c, 2, 70, 0
4, 452096, Note_on_c, 2, 65, 64
4, 452480, Note_on_c, 2, 65, 0
4, 452608, Note_on_c, 2, 65, 64
4, 452992, Note_on_c, 2, 65, 0
4, 453120, Note_on_c, 2, 65, 64
4, 454144, Note_on_c, 2, 65, 0
4, 479232, Note_on_c, 2, 60, 64
4, 480256, Note_on_c, 2, 60, 0
4, 480768, Note_on_c, 2, 60, 64
4, 481792, Note_on_c, 2, 60, 0
4, 482304, Note_on_c, 2, 62, 64
4, 483328, Note_on_c, 2, 62, 0
4, 483840, Note_on_c, 2, 65, 64
4, 484864, Note_on_c, 2, 65, 0
4, 485376, Note_on_c, 2, 65, 64
4, 486400, Note_on_c, 2, 65, 0
4, 486912, Note_on_c, 2, 64, 64
4, 487936, Note_on_c, 2, 64, 0
4, 488448, Note_on_c, 2, 65, 64
4, 488960, Note_on_c, 2, 65, 0
4, 488960, Note_on_c, 2, 64, 64
4, 489344, Note_on_c, 2, 64, 0
4, 489472, Note_on_c, 2, 65, 64
4, 489856, Note_on_c, 2, 65, 0
4, 489984, Note_on_c, 2, 60, 64
4, 491008, Note_on_c, 2, 60, 0
4, 516096, Note_on_c, 2, 65, 64
4, 517120, Note_on_c, 2, 65, 0
4, 517632, Note_on_c, 2, 65, 64
4, 518656, Note_on_c, 2, 65, 0
4, 519168, Note_on_c, 2, 65, 64
4, 520192, Note_on_c, 2, 65, 0
4, 520704, Note_on_c, 2, 64, 64
4, 521728, Note_on_c, 2, 64, 0
4, 522240, Note_on_c, 2, 65, 64
4, 523264, Note_on_c, 2, 65, 0
4, 528384, Note_on_c, 2, 57, 64
4, 529408, Note_on_c, 2, 57, 0
4, 529920, Note_on_c, 2, 58, 64
4, 530944, Note_on_c, 2, 58, 0
4, 534016, Note_on_c, 2, 60, 64
4, 534528, Note_on_c, 2, 60, 0
4, 534528, Note_on_c, 2, 62, 64
4, 535552, Note_on_c, 2, 62, 0
4, 535552, Note_on_c, 2, 67, 64
4, 535936, Note_on_c, 2, 67, 0
4, 536064, Note_on_c, 2, 55, 64
4, 537088, Note_on_c, 2, 55, 0
4, 537088, Note_on_c, 2, 67, 64
4, 537472, Note_on_c, 2, 67, 0
4, 537600, Note_on_c, 2, 65, 64
4, 537984, Note_on_c, 2, 65, 0
4, 538112, Note_on_c, 2, 60, 64
4, 538496, Note_on_c, 2, 60, 0
4, 538624, Note_on_c, 2, 60, 64
4, 539008, Note_on_c, 2, 60, 0
4, 539136, Note_on_c, 2, 60, 64
4, 540160, Note_on_c, 2, 60, 0
4, 544768, Note_on_c, 2, 67, 64
4, 545152, Note_on_c, 2, 67, 0
4, 545280, Note_on_c, 2, 63, 64
4, 546304, Note_on_c, 2, 63, 0
4, 550912, Note_on_c, 2, 65, 64
4, 551296, Note_on_c, 2, 65, 0
4, 551424, Note_on_c, 2, 62, 64
4, 552448, Note_on_c, 2, 62, 0
4, 555520, Note_on_c, 2, 60, 64
4, 555904, Note_on_c, 2, 60, 0
4, 556032, Note_on_c, 2, 60, 64
4, 557568, Note_on_c, 2, 60, 0
4, 558592, Note_on_c, 2, 58, 64
4, 558976, Note_on_c, 2, 58, 0
4, 559104, Note_on_c, 2, 58, 64
4, 560640, Note_on_c, 2, 58, 0
4, 561664, Note_on_c, 2, 57, 64
4, 562048, Note_on_c, 2, 57, 0
4, 562176, Note_on_c, 2, 58, 64
4, 563712, Note_on_c, 2, 58, 0
4, 565248, Note_on_c, 2, 69, 64
4, 566272, Note_on_c, 2, 69, 0
4, 566784, Note_on_c, 2, 70, 64
4, 567808, Note_on_c, 2, 70, 0
4, 568320, Note_on_c, 2, 69, 64
4, 569344, Note_on_c, 2, 69, 0
4, 569856, Note_on_c, 2, 65, 64
4, 570880, Note_on_c, 2, 65, 0
4, 570880, Note_on_c, 2, 65, 64
4, 571264, Note_on_c, 2, 65, 0
4, 571392, Note_on_c, 2, 53, 64
4, 572416, Note_on_c, 2, 53, 0
4, 572416, Note_on_c, 2, 65, 64
4, 572800, Note_on_c, 2, 65, 0
4, 572928, Note_on_c, 2, 53, 64
4, 573952, Note_on_c, 2, 53, 0
4, 573952, Note_on_c, 2, 65, 64
4, 574336, Note_on_c, 2, 65, 0
4, 574464, Note_on_c, 2, 53, 64
4, 575488, Note_on_c, 2, 53, 0
4, 575488, Note_on_c, 2, 69, 64
4, 575872, Note_on_c, 2, 69, 0
4, 576000, Note_on_c, 2, 65, 64
4, 577024, Note_on_c, 2, 65, 0
4, 577024, Note_on_c, 2, 65, 64
4, 577408, Note_on_c, 2, 65, 0
4, 577536, Note_on_c, 2, 58, 64
4, 578560, Note_on_c, 2, 58, 0
4, 578560, Note_on_c, 2, 70, 64
4, 578944, Note_on_c, 2, 70, 0
4, 579072, Note_on_c, 2, 58, 64
4, 580096, Note_on_c, 2, 58, 0
4, 580096, Note_on_c, 2, 70, 64
4, 580480, Note_on_c, 2, 70, 0
4, 580608, Note_on_c, 2, 58, 64
4, 581632, Note_on_c, 2, 58, 0
4, 581632, Note_on_c, 2, 70, 64
4, 582016, Note_on_c, 2, 70, 0
4, 582144, Note_on_c, 2, 58, 64
4, 583168, Note_on_c, 2, 58, 0
4, 583680, Note_on_c, 2, 60, 64
4, 584704, Note_on_c, 2, 60, 0
4, 585216, Note_on_c, 2, 60, 64
4, 586240, Note_on_c, 2, 60, 0
4, 586752, Note_on_c, 2, 62, 64
4, 587776, Note_on_c, 2, 62, 0
4, 588288, Note_on_c, 2, 62, 64
4, 589312, Note_on_c, 2, 62, 0
4, 589824, Note_on_c, 2, 65, 64
4, 590848, Note_on_c, 2, 65, 0
4, 591360, Note_on_c, 2, 58, 64
4, 592384, Note_on_c, 2, 58, 0
4, 592896, Note_on_c, 2, 58, 64
4, 593920, Note_on_c, 2, 58, 0
4, 594432, Note_on_c, 2, 65, 64
4, 595456, Note_on_c, 2, 65, 0
4, 608256, Note_on_c, 2, 70, 64
4, 609280, Note_on_c, 2, 70, 0
4, 609792, Note_on_c, 2, 70, 64
4, 610816, Note_on_c, 2, 70, 0
4, 611328, Note_on_c, 2, 70, 64
4, 612352, Note_on_c, 2, 70, 0
4, 612864, Note_on_c, 2, 69, 64
4, 613888, Note_on_c, 2, 69, 0
4, 614400, Note_on_c, 2, 70, 64
4, 615424, Note_on_c, 2, 70, 0
4, 620544, Note_on_c, 2, 62, 64
4, 621568, Note_on_c, 2, 62, 0
4, 622080, Note_on_c, 2, 63, 64
4, 623104, Note_on_c, 2, 63, 0
4, 623616, Note_on_c, 2, 65, 64
4, 624640, Note_on_c, 2, 65, 0
4, 632832, Note_on_c, 2, 65, 64
4, 633856, Note_on_c, 2, 65, 0
4, 634368, Note_on_c, 2, 65, 64
4, 635392, Note_on_c, 2, 65, 0
4, 635904, Note_on_c, 2, 67, 64
4, 636928, Note_on_c, 2, 67, 0
4, 637440, Note_on_c, 2, 70, 64
4, 638464, Note_on_c, 2, 70, 0
4, 638976, Note_on_c, 2, 70, 64
4, 640000, Note_on_c, 2, 70, 0
4, 640512, Note_on_c, 2, 69, 64
4, 641536, Note_on_c, 2, 69, 0
4, 642048, Note_on_c, 2, 70, 64
4, 642560, Note_on_c, 2, 70, 0
4, 642560, Note_on_c, 2, 69, 64
4, 642944, Note_on_c, 2, 69, 0
4, 643072, Note_on_c, 2, 70, 64
4, 643456, Note_on_c, 2, 70, 0
4, 643584, Note_on_c, 2, 65, 64
4, 644608, Note_on_c, 2, 65, 0
4, 644608, Note_on_c, 2, 65, 64
4, 644992, Note_on_c, 2, 65, 0
4, 645120, Note_on_c, 2, 67, 64
4, 646144, Note_on_c, 2, 67, 0
4, 646656, Note_on_c, 2, 67, 64
4, 647680, Note_on_c, 2, 67, 0
4, 648192, Note_on_c, 2, 65, 64
4, 649216, Note_on_c, 2, 65, 0
4, 649728, Note_on_c, 2, 65, 64
4, 650752, Note_on_c, 2, 65, 0
4, 651264, Note_on_c, 2, 64, 64
4, 652288, Note_on_c, 2, 64, 0
4, 652288, Note_on_c, 2, 60, 64
4, 652672, Note_on_c, 2, 60, 0
4, 652800, Note_on_c, 2, 60, 64
4, 653824, Note_on_c, 2, 60, 0
4, 653824, Note_on_c, 2, 64, 64
4, 654208, Note_on_c, 2, 64, 0
4, 654336, Note_on_c, 2, 65, 64
4, 654848, Note_on_c, 2, 65, 0
4, 654848, Note_on_c, 2, 64, 64
4, 655232, Note_on_c, 2, 64, 0
4, 655360, Note_on_c, 2, 65, 64
4, 655744, Note_on_c, 2, 65, 0
4, 655872, Note_on_c, 2, 60, 64
4, 656896, Note_on_c, 2, 60, 0
4, 656896, Note_on_c, 2, 65, 64
4, 657280, Note_on_c, 2, 65, 0
4, 657408, Note_on_c, 2, 65, 64
4, 658432, Note_on_c, 2, 65, 0
4, 658944, Note_on_c, 2, 65, 64
4, 659968, Note_on_c, 2, 65, 0
4, 660480, Note_on_c, 2, 63, 64
4, 661504, Note_on_c, 2, 63, 0
4, 662016, Note_on_c, 2, 65, 64
4, 663040, Note_on_c, 2, 65, 0
4, 663552, Note_on_c, 2, 65, 64
4, 664064, Note_on_c, 2, 65, 0
4, 664064, Note_on_c, 2, 62, 64
4, 664448, Note_on_c, 2, 62, 0
4, 664576, Note_on_c, 2, 65, 64
4, 664960, Note_on_c, 2, 65, 0
4, 665088, Note_on_c, 2, 62, 64
4, 665600, Note_on_c, 2, 62, 0
4, 665600, Note_on_c, 2, 58, 64
4, 665984, Note_on_c, 2, 58, 0
4, 666112, Note_on_c, 2, 62, 64
4, 666496, Note_on_c, 2, 62, 0
4, 666624, Note_on_c, 2, 58, 64
4, 667136, Note_on_c, 2, 58, 0
4, 667136, Note_on_c, 2, 62, 64
4, 667520, Note_on_c, 2, 62, 0
4, 667648, Note_on_c, 2, 65, 64
4, 668032, Note_on_c, 2, 65, 0
4, 668160, Note_on_c, 2, 70, 64
4, 668544, Note_on_c, 2, 70, 0
4, 668672, Note_on_c, 2, 65, 64
4, 669056, Note_on_c, 2, 65, 0
4, 669184, Note_on_c, 2, 70, 64
4, 669568, Note_on_c, 2, 70, 0
4, 669696, Note_on_c, 2, 62, 64
4, 670720, Note_on_c, 2, 62, 0
4, 671232, Note_on_c, 2, 63, 64
4, 672256, Note_on_c, 2, 63, 0
4, 672768, Note_on_c, 2, 62, 64
4, 673792, Note_on_c, 2, 62, 0
4, 674304, Note_on_c, 2, 63, 64
4, 675328, Note_on_c, 2, 63, 0
4, 675328, Note_on_c, 2, 62, 64
4, 675712, Note_on_c, 2, 62, 0
4, 675840, Note_on_c, 2, 63, 64
4, 676864, Note_on_c, 2, 63, 0
4, 676864, Note_on_c, 2, 67, 64
4, 677248, Note_on_c, 2, 67, 0
4, 677376, Note_on_c, 2, 65, 64
4, 678400, Note_on_c, 2, 65, 0
4, 678400, Note_on_c, 2, 72, 64
4, 678784, Note_on_c, 2, 72, 0
4, 678912, Note_on_c, 2, 70, 64
4, 679296, Note_on_c, 2, 70, 0
4, 679424, Note_on_c, 2, 65, 64
4, 679808, Note_on_c, 2, 65, 0
4, 679936, Note_on_c, 2, 65, 64
4, 680320, Note_on_c, 2, 65, 0
4, 680448, Note_on_c, 2, 65, 64
4, 683520, Note_on_c, 2, 65, 0
4, 688128, Control_c, 2, 121, 127
4, 688128, End_track
5, 0, Start_track
5, 0, Program_c, 3, 41
5, 0, Control_c, 3, 121, 127
5, 0, Control_c, 3, 91, 127
5, 0, Control_c, 3, 7, 100
5, 0, Control_c, 3, 1, 10
5, 0, Control_c, 3, 10, 110
5, 0, Title_t, "Viola II da gamba"
5, 6144, Note_on_c, 3, 62, 64
5, 7168, Note_on_c, 3, 62, 0
5, 7680, Note_on_c, 3, 58, 64
5, 8704, Note_on_c, 3, 58, 0
5, 9216, Note_on_c, 3, 62, 64
5, 10240, Note_on_c, 3, 62, 0
5, 10752, Note_on_c, 3, 65, 64
5, 11776, Note_on_c, 3, 65, 0
5, 12288, Note_on_c, 3, 67, 64
5, 13312, Note_on_c, 3, 67, 0
5, 13824, Note_on_c, 3, 65, 64
5, 14848, Note_on_c, 3, 65, 0
5, 15360, Note_on_c, 3, 65, 64
5, 15872, Note_on_c, 3, 65, 0
5, 15872, Note_on_c, 3, 63, 64
5, 16256, Note_on_c, 3, 63, 0
5, 16384, Note_on_c, 3, 65, 64
5, 16768, Note_on_c, 3, 65, 0
5, 16896, Note_on_c, 3, 62, 64
5, 17408, Note_on_c, 3, 62, 0
5, 17408, Note_on_c, 3, 60, 64
5, 17792, Note_on_c, 3, 60, 0
5, 17920, Note_on_c, 3, 62, 64
5, 18304, Note_on_c, 3, 62, 0
5, 18432, Note_on_c, 3, 55, 64
5, 19456, Note_on_c, 3, 55, 0
5, 19968, Note_on_c, 3, 64, 64
5, 20992, Note_on_c, 3, 64, 0
5, 21504, Note_on_c, 3, 57, 64
5, 22528, Note_on_c, 3, 57, 0
5, 23040, Note_on_c, 3, 62, 64
5, 24064, Note_on_c, 3, 62, 0
5, 24576, Note_on_c, 3, 55, 64
5, 25600, Note_on_c, 3, 55, 0
5, 25600, Note_on_c, 3, 52, 64
5, 25984, Note_on_c, 3, 52, 0
5, 26112, Note_on_c, 3, 57, 64
5, 27136, Note_on_c, 3, 57, 0
5, 27136, Note_on_c, 3, 58, 64
5, 27520, Note_on_c, 3, 58, 0
5, 27648, Note_on_c, 3, 60, 64
5, 28160, Note_on_c, 3, 60, 0
5, 28160, Note_on_c, 3, 58, 64
5, 28544, Note_on_c, 3, 58, 0
5, 28672, Note_on_c, 3, 60, 64
5, 29056, Note_on_c, 3, 60, 0
5, 29184, Note_on_c, 3, 57, 64
5, 29696, Note_on_c, 3, 57, 0
5, 29696, Note_on_c, 3, 55, 64
5, 30080, Note_on_c, 3, 55, 0
5, 30208, Note_on_c, 3, 57, 64
5, 30592, Note_on_c, 3, 57, 0
5, 30720, Note_on_c, 3, 58, 64
5, 31744, Note_on_c, 3, 58, 0
5, 32256, Note_on_c, 3, 58, 64
5, 33280, Note_on_c, 3, 58, 0
5, 33792, Note_on_c, 3, 58, 64
5, 34816, Note_on_c, 3, 58, 0
5, 35328, Note_on_c, 3, 57, 64
5, 36352, Note_on_c, 3, 57, 0
5, 36864, Note_on_c, 3, 58, 64
5, 37888, Note_on_c, 3, 58, 0
5, 37888, Note_on_c, 3, 62, 64
5, 38272, Note_on_c, 3, 62, 0
5, 38400, Note_on_c, 3, 53, 64
5, 39424, Note_on_c, 3, 53, 0
5, 39424, Note_on_c, 3, 58, 64
5, 39808, Note_on_c, 3, 58, 0
5, 39936, Note_on_c, 3, 50, 64
5, 40448, Note_on_c, 3, 50, 0
5, 40448, Note_on_c, 3, 53, 64
5, 40832, Note_on_c, 3, 53, 0
5, 40960, Note_on_c, 3, 58, 64
5, 41344, Note_on_c, 3, 58, 0
5, 41472, Note_on_c, 3, 62, 64
5, 41856, Note_on_c, 3, 62, 0
5, 41984, Note_on_c, 3, 58, 64
5, 42368, Note_on_c, 3, 58, 0
5, 42496, Note_on_c, 3, 62, 64
5, 42880, Note_on_c, 3, 62, 0
5, 43008, Note_on_c, 3, 65, 64
5, 44032, Note_on_c, 3, 65, 0
5, 44544, Note_on_c, 3, 58, 64
5, 45568, Note_on_c, 3, 58, 0
5, 46080, Note_on_c, 3, 53, 64
5, 47104, Note_on_c, 3, 53, 0
5, 47616, Note_on_c, 3, 58, 64
5, 48640, Note_on_c, 3, 58, 0
5, 48640, Note_on_c, 3, 53, 64
5, 49024, Note_on_c, 3, 53, 0
5, 49152, Note_on_c, 3, 55, 64
5, 50176, Note_on_c, 3, 55, 0
5, 50176, Note_on_c, 3, 60, 64
5, 50560, Note_on_c, 3, 60, 0
5, 50688, Note_on_c, 3, 57, 64
5, 51712, Note_on_c, 3, 57, 0
5, 51712, Note_on_c, 3, 53, 64
5, 52096, Note_on_c, 3, 53, 0
5, 52224, Note_on_c, 3, 65, 64
5, 52608, Note_on_c, 3, 65, 0
5, 52736, Note_on_c, 3, 62, 64
5, 53120, Note_on_c, 3, 62, 0
5, 53248, Note_on_c, 3, 60, 64
5, 53632, Note_on_c, 3, 60, 0
5, 53760, Note_on_c, 3, 62, 64
5, 54784, Note_on_c, 3, 62, 0
5, 79872, Note_on_c, 3, 57, 64
5, 80896, Note_on_c, 3, 57, 0
5, 81408, Note_on_c, 3, 53, 64
5, 82432, Note_on_c, 3, 53, 0
5, 82944, Note_on_c, 3, 57, 64
5, 83968, Note_on_c, 3, 57, 0
5, 84480, Note_on_c, 3, 60, 64
5, 85504, Note_on_c, 3, 60, 0
5, 86016, Note_on_c, 3, 62, 64
5, 87040, Note_on_c, 3, 62, 0
5, 87552, Note_on_c, 3, 60, 64
5, 88576, Note_on_c, 3, 60, 0
5, 89088, Note_on_c, 3, 60, 64
5, 89600, Note_on_c, 3, 60, 0
5, 89600, Note_on_c, 3, 58, 64
5, 89984, Note_on_c, 3, 58, 0
5, 90112, Note_on_c, 3, 60, 64
5, 90496, Note_on_c, 3, 60, 0
5, 90624, Note_on_c, 3, 57, 64
5, 91648, Note_on_c, 3, 57, 0
5, 116736, Note_on_c, 3, 60, 64
5, 117760, Note_on_c, 3, 60, 0
5, 118272, Note_on_c, 3, 60, 64
5, 119296, Note_on_c, 3, 60, 0
5, 119808, Note_on_c, 3, 58, 64
5, 120832, Note_on_c, 3, 58, 0
5, 121344, Note_on_c, 3, 60, 64
5, 122368, Note_on_c, 3, 60, 0
5, 122880, Note_on_c, 3, 60, 64
5, 123904, Note_on_c, 3, 60, 0
5, 129024, Note_on_c, 3, 60, 64
5, 130048, Note_on_c, 3, 60, 0
5, 130560, Note_on_c, 3, 53, 64
5, 131584, Note_on_c, 3, 53, 0
5, 134656, Note_on_c, 3, 57, 64
5, 135168, Note_on_c, 3, 57, 0
5, 135168, Note_on_c, 3, 58, 64
5, 136192, Note_on_c, 3, 58, 0
5, 136192, Note_on_c, 3, 62, 64
5, 136576, Note_on_c, 3, 62, 0
5, 136704, Note_on_c, 3, 64, 64
5, 137728, Note_on_c, 3, 64, 0
5, 137728, Note_on_c, 3, 60, 64
5, 138112, Note_on_c, 3, 60, 0
5, 138240, Note_on_c, 3, 60, 64
5, 138624, Note_on_c, 3, 60, 0
5, 138752, Note_on_c, 3, 57, 64
5, 139136, Note_on_c, 3, 57, 0
5, 139264, Note_on_c, 3, 55, 64
5, 139648, Note_on_c, 3, 55, 0
5, 139776, Note_on_c, 3, 57, 64
5, 140800, Note_on_c, 3, 57, 0
5, 145408, Note_on_c, 3, 55, 64
5, 145792, Note_on_c, 3, 55, 0
5, 145920, Note_on_c, 3, 55, 64
5, 146944, Note_on_c, 3, 55, 0
5, 151552, Note_on_c, 3, 53, 64
5, 151936, Note_on_c, 3, 53, 0
5, 152064, Note_on_c, 3, 53, 64
5, 153088, Note_on_c, 3, 53, 0
5, 156160, Note_on_c, 3, 57, 64
5, 156544, Note_on_c, 3, 57, 0
5, 156672, Note_on_c, 3, 53, 64
5, 158208, Note_on_c, 3, 53, 0
5, 159232, Note_on_c, 3, 55, 64
5, 159616, Note_on_c, 3, 55, 0
5, 159744, Note_on_c, 3, 51, 64
5, 161280, Note_on_c, 3, 51, 0
5, 162304, Note_on_c, 3, 53, 64
5, 162688, Note_on_c, 3, 53, 0
5, 162816, Note_on_c, 3, 58, 64
5, 164352, Note_on_c, 3, 58, 0
5, 165888, Note_on_c, 3, 65, 64
5, 166912, Note_on_c, 3, 65, 0
5, 167424, Note_on_c, 3, 65, 64
5, 168448, Note_on_c, 3, 65, 0
5, 168960, Note_on_c, 3, 60, 64
5, 169984, Note_on_c, 3, 60, 0
5, 170496, Note_on_c, 3, 58, 64
5, 171520, Note_on_c, 3, 58, 0
5, 171520, Note_on_c, 3, 57, 64
5, 171904, Note_on_c, 3, 57, 0
5, 172032, Note_on_c, 3, 53, 64
5, 173056, Note_on_c, 3, 53, 0
5, 173056, Note_on_c, 3, 65, 64
5, 173440, Note_on_c, 3, 65, 0
5, 173568, Note_on_c, 3, 53, 64
5, 174592, Note_on_c, 3, 53, 0
5, 174592, Note_on_c, 3, 65, 64
5, 174976, Note_on_c, 3, 65, 0
5, 175104, Note_on_c, 3, 53, 64
5, 176128, Note_on_c, 3, 53, 0
5, 176128, Note_on_c, 3, 65, 64
5, 176512, Note_on_c, 3, 65, 0
5, 176640, Note_on_c, 3, 53, 64
5, 177664, Note_on_c, 3, 53, 0
5, 177664, Note_on_c, 3, 62, 64
5, 178048, Note_on_c, 3, 62, 0
5, 178176, Note_on_c, 3, 58, 64
5, 179200, Note_on_c, 3, 58, 0
5, 179200, Note_on_c, 3, 70, 64
5, 179584, Note_on_c, 3, 70, 0
5, 179712, Note_on_c, 3, 58, 64
5, 180736, Note_on_c, 3, 58, 0
5, 180736, Note_on_c, 3, 70, 64
5, 181120, Note_on_c, 3, 70, 0
5, 181248, Note_on_c, 3, 58, 64
5, 182272, Note_on_c, 3, 58, 0
5, 182272, Note_on_c, 3, 62, 64
5, 182656, Note_on_c, 3, 62, 0
5, 182784, Note_on_c, 3, 58, 64
5, 183808, Note_on_c, 3, 58, 0
5, 184320, Note_on_c, 3, 55, 64
5, 185344, Note_on_c, 3, 55, 0
5, 185856, Note_on_c, 3, 53, 64
5, 186880, Note_on_c, 3, 53, 0
5, 187392, Note_on_c, 3, 57, 64
5, 188416, Note_on_c, 3, 57, 0
5, 188928, Note_on_c, 3, 55, 64
5, 189952, Note_on_c, 3, 55, 0
5, 190464, Note_on_c, 3, 60, 64
5, 191488, Note_on_c, 3, 60, 0
5, 192000, Note_on_c, 3, 58, 64
5, 193024, Note_on_c, 3, 58, 0
5, 193536, Note_on_c, 3, 55, 64
5, 194560, Note_on_c, 3, 55, 0
5, 195072, Note_on_c, 3, 60, 64
5, 196096, Note_on_c, 3, 60, 0
5, 208896, Note_on_c, 3, 65, 64
5, 209920, Note_on_c, 3, 65, 0
5, 210432, Note_on_c, 3, 65, 64
5, 211456, Note_on_c, 3, 65, 0
5, 211968, Note_on_c, 3, 63, 64
5, 212992, Note_on_c, 3, 63, 0
5, 213504, Note_on_c, 3, 65, 64
5, 214528, Note_on_c, 3, 65, 0
5, 215040, Note_on_c, 3, 65, 64
5, 216064, Note_on_c, 3, 65, 0
5, 221184, Note_on_c, 3, 58, 64
5, 222208, Note_on_c, 3, 58, 0
5, 222720, Note_on_c, 3, 58, 64
5, 223744, Note_on_c, 3, 58, 0
5, 224256, Note_on_c, 3, 58, 64
5, 225280, Note_on_c, 3, 58, 0
5, 233472, Note_on_c, 3, 62, 64
5, 234496, Note_on_c, 3, 62, 0
5, 235008, Note_on_c, 3, 58, 64
5, 236032, Note_on_c, 3, 58, 0
5, 236544, Note_on_c, 3, 62, 64
5, 237568, Note_on_c, 3, 62, 0
5, 238080, Note_on_c, 3, 65, 64
5, 239104, Note_on_c, 3, 65, 0
5, 239616, Note_on_c, 3, 67, 64
5, 240640, Note_on_c, 3, 67, 0
5, 241152, Note_on_c, 3, 65, 64
5, 242176, Note_on_c, 3, 65, 0
5, 242688, Note_on_c, 3, 65, 64
5, 243200, Note_on_c, 3, 65, 0
5, 243200, Note_on_c, 3, 63, 64
5, 243584, Note_on_c, 3, 63, 0
5, 243712, Note_on_c, 3, 65, 64
5, 244096, Note_on_c, 3, 65, 0
5, 244224, Note_on_c, 3, 62, 64
5, 244736, Note_on_c, 3, 62, 0
5, 244736, Note_on_c, 3, 60, 64
5, 245120, Note_on_c, 3, 60, 0
5, 245248, Note_on_c, 3, 62, 64
5, 245632, Note_on_c, 3, 62, 0
5, 245760, Note_on_c, 3, 55, 64
5, 246784, Note_on_c, 3, 55, 0
5, 247296, Note_on_c, 3, 64, 64
5, 248320, Note_on_c, 3, 64, 0
5, 248832, Note_on_c, 3, 57, 64
5, 249856, Note_on_c, 3, 57, 0
5, 250368, Note_on_c, 3, 62, 64
5, 251392, Note_on_c, 3, 62, 0
5, 251904, Note_on_c, 3, 55, 64
5, 252928, Note_on_c, 3, 55, 0
5, 252928, Note_on_c, 3, 52, 64
5, 253312, Note_on_c, 3, 52, 0
5, 253440, Note_on_c, 3, 57, 64
5, 254464, Note_on_c, 3, 57, 0
5, 254464, Note_on_c, 3, 58, 64
5, 254848, Note_on_c, 3, 58, 0
5, 254976, Note_on_c, 3, 60, 64
5, 255488, Note_on_c, 3, 60, 0
5, 255488, Note_on_c, 3, 58, 64
5, 255872, Note_on_c, 3, 58, 0
5, 256000, Note_on_c, 3, 60, 64
5, 256384, Note_on_c, 3, 60, 0
5, 256512, Note_on_c, 3, 57, 64
5, 257024, Note_on_c, 3, 57, 0
5, 257024, Note_on_c, 3, 55, 64
5, 257408, Note_on_c, 3, 55, 0
5, 257536, Note_on_c, 3, 57, 64
5, 257920, Note_on_c, 3, 57, 0
5, 258048, Note_on_c, 3, 58, 64
5, 259072, Note_on_c, 3, 58, 0
5, 259584, Note_on_c, 3, 58, 64
5, 260608, Note_on_c, 3, 58, 0
5, 261120, Note_on_c, 3, 58, 64
5, 262144, Note_on_c, 3, 58, 0
5, 262656, Note_on_c, 3, 57, 64
5, 263680, Note_on_c, 3, 57, 0
5, 264192, Note_on_c, 3, 58, 64
5, 265216, Note_on_c, 3, 58, 0
5, 265216, Note_on_c, 3, 62, 64
5, 265600, Note_on_c, 3, 62, 0
5, 265728, Note_on_c, 3, 53, 64
5, 266752, Note_on_c, 3, 53, 0
5, 266752, Note_on_c, 3, 58, 64
5, 267136, Note_on_c, 3, 58, 0
5, 267264, Note_on_c, 3, 50, 64
5, 267776, Note_on_c, 3, 50, 0
5, 267776, Note_on_c, 3, 53, 64
5, 268160, Note_on_c, 3, 53, 0
5, 268288, Note_on_c, 3, 58, 64
5, 268672, Note_on_c, 3, 58, 0
5, 268800, Note_on_c, 3, 62, 64
5, 269184, Note_on_c, 3, 62, 0
5, 269312, Note_on_c, 3, 58, 64
5, 269696, Note_on_c, 3, 58, 0
5, 269824, Note_on_c, 3, 62, 64
5, 270208, Note_on_c, 3, 62, 0
5, 270336, Note_on_c, 3, 65, 64
5, 271360, Note_on_c, 3, 65, 0
5, 271872, Note_on_c, 3, 58, 64
5, 272896, Note_on_c, 3, 58, 0
5, 273408, Note_on_c, 3, 53, 64
5, 274432, Note_on_c, 3, 53, 0
5, 274944, Note_on_c, 3, 58, 64
5, 275968, Note_on_c, 3, 58, 0
5, 275968, Note_on_c, 3, 53, 64
5, 276352, Note_on_c, 3, 53, 0
5, 276480, Note_on_c, 3, 55, 64
5, 277504, Note_on_c, 3, 55, 0
5, 277504, Note_on_c, 3, 60, 64
5, 277888, Note_on_c, 3, 60, 0
5, 278016, Note_on_c, 3, 57, 64
5, 279040, Note_on_c, 3, 57, 0
5, 279040, Note_on_c, 3, 53, 64
5, 279424, Note_on_c, 3, 53, 0
5, 279552, Note_on_c, 3, 65, 64
5, 279936, Note_on_c, 3, 65, 0
5, 280064, Note_on_c, 3, 62, 64
5, 280448, Note_on_c, 3, 62, 0
5, 280576, Note_on_c, 3, 60, 64
5, 280960, Note_on_c, 3, 60, 0
5, 281088, Note_on_c, 3, 62, 64
5, 282112, Note_on_c, 3, 62, 0
5, 319488, Note_on_c, 3, 58, 70
5, 320512, Note_on_c, 3, 58, 0
5, 321024, Note_on_c, 3, 55, 70
5, 322048, Note_on_c, 3, 55, 0
5, 322560, Note_on_c, 3, 58, 70
5, 323584, Note_on_c, 3, 58, 0
5, 324096, Note_on_c, 3, 62, 70
5, 325120, Note_on_c, 3, 62, 0
5, 325632, Note_on_c, 3, 63, 70
5, 326656, Note_on_c, 3, 63, 0
5, 327168, Note_on_c, 3, 62, 70
5, 328192, Note_on_c, 3, 62, 0
5, 328704, Note_on_c, 3, 62, 70
5, 329216, Note_on_c, 3, 62, 0
5, 329216, Note_on_c, 3, 60, 70
5, 329600, Note_on_c, 3, 60, 0
5, 329728, Note_on_c, 3, 62, 70
5, 330112, Note_on_c, 3, 62, 0
5, 330240, Note_on_c, 3, 58, 70
5, 331264, Note_on_c, 3, 58, 0
5, 335872, Note_on_c, 3, 64, 64
5, 336256, Note_on_c, 3, 64, 0
5, 336384, Note_on_c, 3, 62, 64
5, 337408, Note_on_c, 3, 62, 0
5, 342016, Note_on_c, 3, 62, 64
5, 342400, Note_on_c, 3, 62, 0
5, 342528, Note_on_c, 3, 60, 64
5, 343552, Note_on_c, 3, 60, 0
5, 346624, Note_on_c, 3, 58, 64
5, 347008, Note_on_c, 3, 58, 0
5, 347136, Note_on_c, 3, 58, 64
5, 348672, Note_on_c, 3, 58, 0
5, 349696, Note_on_c, 3, 57, 64
5, 350080, Note_on_c, 3, 57, 0
5, 350208, Note_on_c, 3, 57, 64
5, 351744, Note_on_c, 3, 57, 0
5, 352768, Note_on_c, 3, 55, 64
5, 353152, Note_on_c, 3, 55, 0
5, 353280, Note_on_c, 3, 57, 64
5, 354816, Note_on_c, 3, 57, 0
5, 356352, Note_on_c, 3, 57, 64
5, 357376, Note_on_c, 3, 57, 0
5, 357376, Note_on_c, 3, 69, 64
5, 357760, Note_on_c, 3, 69, 0
5, 357888, Note_on_c, 3, 57, 64
5, 358912, Note_on_c, 3, 57, 0
5, 358912, Note_on_c, 3, 69, 64
5, 359296, Note_on_c, 3, 69, 0
5, 359424, Note_on_c, 3, 57, 64
5, 360448, Note_on_c, 3, 57, 0
5, 360448, Note_on_c, 3, 69, 64
5, 360832, Note_on_c, 3, 69, 0
5, 360960, Note_on_c, 3, 57, 64
5, 361984, Note_on_c, 3, 57, 0
5, 361984, Note_on_c, 3, 69, 64
5, 362368, Note_on_c, 3, 69, 0
5, 362496, Note_on_c, 3, 57, 64
5, 363520, Note_on_c, 3, 57, 0
5, 363520, Note_on_c, 3, 69, 64
5, 363904, Note_on_c, 3, 69, 0
5, 364032, Note_on_c, 3, 57, 64
5, 365056, Note_on_c, 3, 57, 0
5, 365056, Note_on_c, 3, 69, 64
5, 365440, Note_on_c, 3, 69, 0
5, 365568, Note_on_c, 3, 57, 64
5, 366592, Note_on_c, 3, 57, 0
5, 366592, Note_on_c, 3, 69, 64
5, 366976, Note_on_c, 3, 69, 0
5, 367104, Note_on_c, 3, 57, 64
5, 368128, Note_on_c, 3, 57, 0
5, 393216, Note_on_c, 3, 53, 50
5, 394240, Note_on_c, 3, 53, 0
5, 394752, Note_on_c, 3, 50, 50
5, 395776, Note_on_c, 3, 50, 0
5, 396288, Note_on_c, 3, 57, 50
5, 397312, Note_on_c, 3, 57, 0
5, 397824, Note_on_c, 3, 55, 50
5, 398848, Note_on_c, 3, 55, 0
5, 398848, Note_on_c, 3, 53, 50
5, 399232, Note_on_c, 3, 53, 0
5, 399360, Note_on_c, 3, 50, 50
5, 400384, Note_on_c, 3, 50, 0
5, 400384, Note_on_c, 3, 52, 50
5, 400768, Note_on_c, 3, 52, 0
5, 400896, Note_on_c, 3, 52, 50
5, 401920, Note_on_c, 3, 52, 0
5, 401920, Note_on_c, 3, 52, 50
5, 402304, Note_on_c, 3, 52, 0
5, 402432, Note_on_c, 3, 57, 50
5, 402816, Note_on_c, 3, 57, 0
5, 402944, Note_on_c, 3, 53, 50
5, 403328, Note_on_c, 3, 53, 0
5, 403456, Note_on_c, 3, 52, 50
5, 403840, Note_on_c, 3, 52, 0
5, 403968, Note_on_c, 3, 53, 50
5, 404931, Note_on_c, 3, 53, 0
5, 405504, Note_on_c, 3, 62, 64
5, 406528, Note_on_c, 3, 62, 0
5, 407040, Note_on_c, 3, 58, 64
5, 408064, Note_on_c, 3, 58, 0
5, 408576, Note_on_c, 3, 62, 64
5, 409600, Note_on_c, 3, 62, 0
5, 410112, Note_on_c, 3, 65, 64
5, 411136, Note_on_c, 3, 65, 0
5, 411648, Note_on_c, 3, 67, 64
5, 412672, Note_on_c, 3, 67, 0
5, 413184, Note_on_c, 3, 65, 64
5, 414208, Note_on_c, 3, 65, 0
5, 414720, Note_on_c, 3, 65, 64
5, 415232, Note_on_c, 3, 65, 0
5, 415232, Note_on_c, 3, 63, 64
5, 415616, Note_on_c, 3, 63, 0
5, 415744, Note_on_c, 3, 65, 64
5, 416128, Note_on_c, 3, 65, 0
5, 416256, Note_on_c, 3, 62, 64
5, 416768, Note_on_c, 3, 62, 0
5, 416768, Note_on_c, 3, 60, 64
5, 417152, Note_on_c, 3, 60, 0
5, 417280, Note_on_c, 3, 62, 64
5, 417664, Note_on_c, 3, 62, 0
5, 417792, Note_on_c, 3, 55, 64
5, 418816, Note_on_c, 3, 55, 0
5, 419328, Note_on_c, 3, 64, 64
5, 420352, Note_on_c, 3, 64, 0
5, 420864, Note_on_c, 3, 57, 64
5, 421888, Note_on_c, 3, 57, 0
5, 422400, Note_on_c, 3, 62, 64
5, 423424, Note_on_c, 3, 62, 0
5, 423936, Note_on_c, 3, 55, 64
5, 424960, Note_on_c, 3, 55, 0
5, 424960, Note_on_c, 3, 52, 64
5, 425344, Note_on_c, 3, 52, 0
5, 425472, Note_on_c, 3, 57, 64
5, 426496, Note_on_c, 3, 57, 0
5, 426496, Note_on_c, 3, 58, 64
5, 426880, Note_on_c, 3, 58, 0
5, 427008, Note_on_c, 3, 60, 64
5, 427520, Note_on_c, 3, 60, 0
5, 427520, Note_on_c, 3, 58, 64
5, 427904, Note_on_c, 3, 58, 0
5, 428032, Note_on_c, 3, 60, 64
5, 428416, Note_on_c, 3, 60, 0
5, 428544, Note_on_c, 3, 57, 64
5, 429056, Note_on_c, 3, 57, 0
5, 429056, Note_on_c, 3, 55, 64
5, 429440, Note_on_c, 3, 55, 0
5, 429568, Note_on_c, 3, 57, 64
5, 429952, Note_on_c, 3, 57, 0
5, 430080, Note_on_c, 3, 58, 64
5, 431104, Note_on_c, 3, 58, 0
5, 431616, Note_on_c, 3, 58, 64
5, 432640, Note_on_c, 3, 58, 0
5, 433152, Note_on_c, 3, 58, 64
5, 434176, Note_on_c, 3, 58, 0
5, 434688, Note_on_c, 3, 57, 64
5, 435712, Note_on_c, 3, 57, 0
5, 436224, Note_on_c, 3, 58, 64
5, 437248, Note_on_c, 3, 58, 0
5, 437248, Note_on_c, 3, 62, 64
5, 437632, Note_on_c, 3, 62, 0
5, 437760, Note_on_c, 3, 53, 64
5, 438784, Note_on_c, 3, 53, 0
5, 438784, Note_on_c, 3, 58, 64
5, 439168, Note_on_c, 3, 58, 0
5, 439296, Note_on_c, 3, 50, 64
5, 439808, Note_on_c, 3, 50, 0
5, 439808, Note_on_c, 3, 53, 64
5, 440192, Note_on_c, 3, 53, 0
5, 440320, Note_on_c, 3, 58, 64
5, 440704, Note_on_c, 3, 58, 0
5, 440832, Note_on_c, 3, 62, 64
5, 441216, Note_on_c, 3, 62, 0
5, 441344, Note_on_c, 3, 58, 64
5, 441728, Note_on_c, 3, 58, 0
5, 441856, Note_on_c, 3, 62, 64
5, 442240, Note_on_c, 3, 62, 0
5, 442368, Note_on_c, 3, 65, 64
5, 443392, Note_on_c, 3, 65, 0
5, 443904, Note_on_c, 3, 58, 64
5, 444928, Note_on_c, 3, 58, 0
5, 445440, Note_on_c, 3, 53, 64
5, 446464, Note_on_c, 3, 53, 0
5, 446976, Note_on_c, 3, 58, 64
5, 448000, Note_on_c, 3, 58, 0
5, 448000, Note_on_c, 3, 53, 64
5, 448384, Note_on_c, 3, 53, 0
5, 448512, Note_on_c, 3, 55, 64
5, 449536, Note_on_c, 3, 55, 0
5, 449536, Note_on_c, 3, 60, 64
5, 449920, Note_on_c, 3, 60, 0
5, 450048, Note_on_c, 3, 57, 64
5, 451072, Note_on_c, 3, 57, 0
5, 451072, Note_on_c, 3, 53, 64
5, 451456, Note_on_c, 3, 53, 0
5, 451584, Note_on_c, 3, 65, 64
5, 451968, Note_on_c, 3, 65, 0
5, 452096, Note_on_c, 3, 62, 64
5, 452480, Note_on_c, 3, 62, 0
5, 452608, Note_on_c, 3, 60, 64
5, 452992, Note_on_c, 3, 60, 0
5, 453120, Note_on_c, 3, 62, 64
5, 454144, Note_on_c, 3, 62, 0
5, 479232, Note_on_c, 3, 57, 64
5, 480256, Note_on_c, 3, 57, 0
5, 480768, Note_on_c, 3, 53, 64
5, 481792, Note_on_c, 3, 53, 0
5, 482304, Note_on_c, 3, 57, 64
5, 483328, Note_on_c, 3, 57, 0
5, 483840, Note_on_c, 3, 60, 64
5, 484864, Note_on_c, 3, 60, 0
5, 485376, Note_on_c, 3, 62, 64
5, 486400, Note_on_c, 3, 62, 0
5, 486912, Note_on_c, 3, 60, 64
5, 487936, Note_on_c, 3, 60, 0
5, 488448, Note_on_c, 3, 60, 64
5, 488960, Note_on_c, 3, 60, 0
5, 488960, Note_on_c, 3, 58, 64
5, 489344, Note_on_c, 3, 58, 0
5, 489472, Note_on_c, 3, 60, 64
5, 489856, Note_on_c, 3, 60, 0
5, 489984, Note_on_c, 3, 57, 64
5, 491008, Note_on_c, 3, 57, 0
5, 516096, Note_on_c, 3, 60, 64
5, 517120, Note_on_c, 3, 60, 0
5, 517632, Note_on_c, 3, 60, 64
5, 518656, Note_on_c, 3, 60, 0
5, 519168, Note_on_c, 3, 58, 64
5, 520192, Note_on_c, 3, 58, 0
5, 520704, Note_on_c, 3, 60, 64
5, 521728, Note_on_c, 3, 60, 0
5, 522240, Note_on_c, 3, 60, 64
5, 523264, Note_on_c, 3, 60, 0
5, 528384, Note_on_c, 3, 60, 64
5, 529408, Note_on_c, 3, 60, 0
5, 529920, Note_on_c, 3, 53, 64
5, 530944, Note_on_c, 3, 53, 0
5, 534016, Note_on_c, 3, 57, 64
5, 534528, Note_on_c, 3, 57, 0
5, 534528, Note_on_c, 3, 58, 64
5, 535552, Note_on_c, 3, 58, 0
5, 535552, Note_on_c, 3, 62, 64
5, 535936, Note_on_c, 3, 62, 0
5, 536064, Note_on_c, 3, 64, 64
5, 537088, Note_on_c, 3, 64, 0
5, 537088, Note_on_c, 3, 60, 64
5, 537472, Note_on_c, 3, 60, 0
5, 537600, Note_on_c, 3, 60, 64
5, 537984, Note_on_c, 3, 60, 0
5, 538112, Note_on_c, 3, 57, 64
5, 538496, Note_on_c, 3, 57, 0
5, 538624, Note_on_c, 3, 55, 64
5, 539008, Note_on_c, 3, 55, 0
5, 539136, Note_on_c, 3, 57, 64
5, 540160, Note_on_c, 3, 57, 0
5, 544768, Note_on_c, 3, 55, 64
5, 545152, Note_on_c, 3, 55, 0
5, 545280, Note_on_c, 3, 55, 64
5, 546304, Note_on_c, 3, 55, 0
5, 550912, Note_on_c, 3, 53, 64
5, 551296, Note_on_c, 3, 53, 0
5, 551424, Note_on_c, 3, 53, 64
5, 552448, Note_on_c, 3, 53, 0
5, 555520, Note_on_c, 3, 57, 64
5, 555904, Note_on_c, 3, 57, 0
5, 556032, Note_on_c, 3, 53, 64
5, 557568, Note_on_c, 3, 53, 0
5, 558592, Note_on_c, 3, 55, 64
5, 558976, Note_on_c, 3, 55, 0
5, 559104, Note_on_c, 3, 51, 64
5, 560640, Note_on_c, 3, 51, 0
5, 561664, Note_on_c, 3, 53, 64
5, 562048, Note_on_c, 3, 53, 0
5, 562176, Note_on_c, 3, 58, 64
5, 563712, Note_on_c, 3, 58, 0
5, 565248, Note_on_c, 3, 65, 64
5, 566272, Note_on_c, 3, 65, 0
5, 566784, Note_on_c, 3, 65, 64
5, 567808, Note_on_c, 3, 65, 0
5, 568320, Note_on_c, 3, 60, 64
5, 569344, Note_on_c, 3, 60, 0
5, 569856, Note_on_c, 3, 58, 64
5, 570880, Note_on_c, 3, 58, 0
5, 570880, Note_on_c, 3, 57, 64
5, 571264, Note_on_c, 3, 57, 0
5, 571392, Note_on_c, 3, 53, 64
5, 572416, Note_on_c, 3, 53, 0
5, 572416, Note_on_c, 3, 65, 64
5, 572800, Note_on_c, 3, 65, 0
5, 572928, Note_on_c, 3, 53, 64
5, 573952, Note_on_c, 3, 53, 0
5, 573952, Note_on_c, 3, 65, 64
5, 574336, Note_on_c, 3, 65, 0
5, 574464, Note_on_c, 3, 53, 64
5, 575488, Note_on_c, 3, 53, 0
5, 575488, Note_on_c, 3, 65, 64
5, 575872, Note_on_c, 3, 65, 0
5, 576000, Note_on_c, 3, 53, 64
5, 577024, Note_on_c, 3, 53, 0
5, 577024, Note_on_c, 3, 62, 64
5, 577408, Note_on_c, 3, 62, 0
5, 577536, Note_on_c, 3, 58, 64
5, 578560, Note_on_c, 3, 58, 0
5, 578560, Note_on_c, 3, 70, 64
5, 578944, Note_on_c, 3, 70, 0
5, 579072, Note_on_c, 3, 58, 64
5, 580096, Note_on_c, 3, 58, 0
5, 580096, Note_on_c, 3, 70, 64
5, 580480, Note_on_c, 3, 70, 0
5, 580608, Note_on_c, 3, 58, 64
5, 581632, Note_on_c, 3, 58, 0
5, 581632, Note_on_c, 3, 62, 64
5, 582016, Note_on_c, 3, 62, 0
5, 582144, Note_on_c, 3, 58, 64
5, 583168, Note_on_c, 3, 58, 0
5, 583680, Note_on_c, 3, 55, 64
5, 584704, Note_on_c, 3, 55, 0
5, 585216, Note_on_c, 3, 53, 64
5, 586240, Note_on_c, 3, 53, 0
5, 586752, Note_on_c, 3, 57, 64
5, 587776, Note_on_c, 3, 57, 0
5, 588288, Note_on_c, 3, 55, 64
5, 589312, Note_on_c, 3, 55, 0
5, 589824, Note_on_c, 3, 60, 64
5, 590848, Note_on_c, 3, 60, 0
5, 591360, Note_on_c, 3, 58, 64
5, 592384, Note_on_c, 3, 58, 0
5, 592896, Note_on_c, 3, 55, 64
5, 593920, Note_on_c, 3, 55, 0
5, 594432, Note_on_c, 3, 60, 64
5, 595456, Note_on_c, 3, 60, 0
5, 608256, Note_on_c, 3, 65, 64
5, 609280, Note_on_c, 3, 65, 0
5, 609792, Note_on_c, 3, 65, 64
5, 610816, Note_on_c, 3, 65, 0
5, 611328, Note_on_c, 3, 63, 64
5, 612352, Note_on_c, 3, 63, 0
5, 612864, Note_on_c, 3, 65, 64
5, 613888, Note_on_c, 3, 65, 0
5, 614400, Note_on_c, 3, 65, 64
5, 615424, Note_on_c, 3, 65, 0
5, 620544, Note_on_c, 3, 58, 64
5, 621568, Note_on_c, 3, 58, 0
5, 622080, Note_on_c, 3, 58, 64
5, 623104, Note_on_c, 3, 58, 0
5, 623616, Note_on_c, 3, 58, 64
5, 624640, Note_on_c, 3, 58, 0
5, 632832, Note_on_c, 3, 62, 64
5, 633856, Note_on_c, 3, 62, 0
5, 634368, Note_on_c, 3, 58, 64
5, 635392, Note_on_c, 3, 58, 0
5, 635904, Note_on_c, 3, 62, 64
5, 636928, Note_on_c, 3, 62, 0
5, 637440, Note_on_c, 3, 65, 64
5, 638464, Note_on_c, 3, 65, 0
5, 638976, Note_on_c, 3, 67, 64
5, 640000, Note_on_c, 3, 67, 0
5, 640512, Note_on_c, 3, 65, 64
5, 641536, Note_on_c, 3, 65, 0
5, 642048, Note_on_c, 3, 65, 64
5, 642560, Note_on_c, 3, 65, 0
5, 642560, Note_on_c, 3, 63, 64
5, 642944, Note_on_c, 3, 63, 0
5, 643072, Note_on_c, 3, 65, 64
5, 643456, Note_on_c, 3, 65, 0
5, 643584, Note_on_c, 3, 62, 64
5, 644096, Note_on_c, 3, 62, 0
5, 644096, Note_on_c, 3, 60, 64
5, 644480, Note_on_c, 3, 60, 0
5, 644608, Note_on_c, 3, 62, 64
5, 644992, Note_on_c, 3, 62, 0
5, 645120, Note_on_c, 3, 55, 64
5, 646144, Note_on_c, 3, 55, 0
5, 646656, Note_on_c, 3, 64, 64
5, 647680, Note_on_c, 3, 64, 0
5, 648192, Note_on_c, 3, 57, 64
5, 649216, Note_on_c, 3, 57, 0
5, 649728, Note_on_c, 3, 62, 64
5, 650752, Note_on_c, 3, 62, 0
5, 651264, Note_on_c, 3, 55, 64
5, 652288, Note_on_c, 3, 55, 0
5, 652288, Note_on_c, 3, 52, 64
5, 652672, Note_on_c, 3, 52, 0
5, 652800, Note_on_c, 3, 57, 64
5, 653824, Note_on_c, 3, 57, 0
5, 653824, Note_on_c, 3, 58, 64
5, 654208, Note_on_c, 3, 58, 0
5, 654336, Note_on_c, 3, 60, 64
5, 654848, Note_on_c, 3, 60, 0
5, 654848, Note_on_c, 3, 58, 64
5, 655232, Note_on_c, 3, 58, 0
5, 655360, Note_on_c, 3, 60, 64
5, 655744, Note_on_c, 3, 60, 0
5, 655872, Note_on_c, 3, 57, 64
5, 656384, Note_on_c, 3, 57, 0
5, 656384, Note_on_c, 3, 55, 64
5, 656768, Note_on_c, 3, 55, 0
5, 656896, Note_on_c, 3, 57, 64
5, 657280, Note_on_c, 3, 57, 0
5, 657408, Note_on_c, 3, 58, 64
5, 658432, Note_on_c, 3, 58, 0
5, 658944, Note_on_c, 3, 58, 64
5, 659968, Note_on_c, 3, 58, 0
5, 660480, Note_on_c, 3, 58, 64
5, 661504, Note_on_c, 3, 58, 0
5, 662016, Note_on_c, 3, 57, 64
5, 663040, Note_on_c, 3, 57, 0
5, 663552, Note_on_c, 3, 58, 64
5, 664576, Note_on_c, 3, 58, 0
5, 664576, Note_on_c, 3, 62, 64
5, 664960, Note_on_c, 3, 62, 0
5, 665088, Note_on_c, 3, 53, 64
5, 666112, Note_on_c, 3, 53, 0
5, 666112, Note_on_c, 3, 58, 64
5, 666496, Note_on_c, 3, 58, 0
5, 666624, Note_on_c, 3, 50, 64
5, 667136, Note_on_c, 3, 50, 0
5, 667136, Note_on_c, 3, 53, 64
5, 667520, Note_on_c, 3, 53, 0
5, 667648, Note_on_c, 3, 58, 64
5, 668032, Note_on_c, 3, 58, 0
5, 668160, Note_on_c, 3, 62, 64
5, 668544, Note_on_c, 3, 62, 0
5, 668672, Note_on_c, 3, 58, 64
5, 669056, Note_on_c, 3, 58, 0
5, 669184, Note_on_c, 3, 62, 64
5, 669568, Note_on_c, 3, 62, 0
5, 669696, Note_on_c, 3, 65, 64
5, 670720, Note_on_c, 3, 65, 0
5, 671232, Note_on_c, 3, 58, 64
5, 672256, Note_on_c, 3, 58, 0
5, 672768, Note_on_c, 3, 53, 64
5, 673792, Note_on_c, 3, 53, 0
5, 674304, Note_on_c, 3, 58, 64
5, 675328, Note_on_c, 3, 58, 0
5, 675328, Note_on_c, 3, 53, 64
5, 675712, Note_on_c, 3, 53, 0
5, 675840, Note_on_c, 3, 55, 64
5, 676864, Note_on_c, 3, 55, 0
5, 676864, Note_on_c, 3, 60, 64
5, 677248, Note_on_c, 3, 60, 0
5, 677376, Note_on_c, 3, 57, 64
5, 678400, Note_on_c, 3, 57, 0
5, 678400, Note_on_c, 3, 53, 64
5, 678784, Note_on_c, 3, 53, 0
5, 678912, Note_on_c, 3, 65, 64
5, 679296, Note_on_c, 3, 65, 0
5, 679424, Note_on_c, 3, 62, 64
5, 679808, Note_on_c, 3, 62, 0
5, 679936, Note_on_c, 3, 60, 64
5, 680320, Note_on_c, 3, 60, 0
5, 680448, Note_on_c, 3, 62, 64
5, 683520, Note_on_c, 3, 62, 0
5, 688128, Control_c, 3, 121, 127
5, 688128, End_track
6, 0, Start_track
6, 0, Program_c, 4, 42
6, 0, Control_c, 4, 121, 127
6, 0, Control_c, 4, 91, 127
6, 0, Control_c, 4, 1, 10
6, 0, Control_c, 4, 10, 50
6, 0, Title_t, "Violoncello"
6, 6144, Note_on_c, 4, 58, 64
6, 7168, Note_on_c, 4, 58, 0
6, 7680, Note_on_c, 4, 57, 64
6, 8704, Note_on_c, 4, 57, 0
6, 9216, Note_on_c, 4, 55, 64
6, 10240, Note_on_c, 4, 55, 0
6, 10752, Note_on_c, 4, 53, 64
6, 11776, Note_on_c, 4, 53, 0
6, 12288, Note_on_c, 4, 51, 64
6, 13312, Note_on_c, 4, 51, 0
6, 13824, Note_on_c, 4, 53, 64
6, 14848, Note_on_c, 4, 53, 0
6, 15360, Note_on_c, 4, 46, 64
6, 16384, Note_on_c, 4, 46, 0
6, 16384, Note_on_c, 4, 53, 64
6, 16768, Note_on_c, 4, 53, 0
6, 16896, Note_on_c, 4, 58, 64
6, 17408, Note_on_c, 4, 58, 0
6, 17408, Note_on_c, 4, 57, 64
6, 17792, Note_on_c, 4, 57, 0
6, 17920, Note_on_c, 4, 58, 64
6, 18304, Note_on_c, 4, 58, 0
6, 18432, Note_on_c, 4, 52, 64
6, 19456, Note_on_c, 4, 52, 0
6, 19968, Note_on_c, 4, 48, 64
6, 20992, Note_on_c, 4, 48, 0
6, 21504, Note_on_c, 4, 50, 64
6, 22528, Note_on_c, 4, 50, 0
6, 23040, Note_on_c, 4, 46, 64
6, 24064, Note_on_c, 4, 46, 0
6, 24576, Note_on_c, 4, 48, 64
6, 25600, Note_on_c, 4, 48, 0
6, 25600, Note_on_c, 4, 46, 64
6, 25984, Note_on_c, 4, 46, 0
6, 26112, Note_on_c, 4, 45, 64
6, 27136, Note_on_c, 4, 45, 0
6, 27136, Note_on_c, 4, 43, 64
6, 27520, Note_on_c, 4, 43, 0
6, 27648, Note_on_c, 4, 41, 64
6, 28672, Note_on_c, 4, 41, 0
6, 28672, Note_on_c, 4, 48, 64
6, 29056, Note_on_c, 4, 48, 0
6, 29184, Note_on_c, 4, 53, 64
6, 29696, Note_on_c, 4, 53, 0
6, 29696, Note_on_c, 4, 51, 64
6, 30080, Note_on_c, 4, 51, 0
6, 30208, Note_on_c, 4, 53, 64
6, 30592, Note_on_c, 4, 53, 0
6, 30720, Note_on_c, 4, 50, 64
6, 31744, Note_on_c, 4, 50, 0
6, 32256, Note_on_c, 4, 55, 64
6, 33280, Note_on_c, 4, 55, 0
6, 33792, Note_on_c, 4, 48, 64
6, 34816, Note_on_c, 4, 48, 0
6, 35328, Note_on_c, 4, 53, 64
6, 36352, Note_on_c, 4, 53, 0
6, 36864, Note_on_c, 4, 46, 64
6, 37888, Note_on_c, 4, 46, 0
6, 37888, Note_on_c, 4, 58, 64
6, 38272, Note_on_c, 4, 58, 0
6, 38400, Note_on_c, 4, 46, 64
6, 39424, Note_on_c, 4, 46, 0
6, 39424, Note_on_c, 4, 58, 64
6, 39808, Note_on_c, 4, 58, 0
6, 39936, Note_on_c, 4, 46, 64
6, 40960, Note_on_c, 4, 46, 0
6, 40960, Note_on_c, 4, 58, 64
6, 41344, Note_on_c, 4, 58, 0
6, 41472, Note_on_c, 4, 46, 64
6, 42496, Note_on_c, 4, 46, 0
6, 42496, Note_on_c, 4, 58, 64
6, 42880, Note_on_c, 4, 58, 0
6, 43008, Note_on_c, 4, 46, 64
6, 44032, Note_on_c, 4, 46, 0
6, 44544, Note_on_c, 4, 58, 64
6, 45568, Note_on_c, 4, 58, 0
6, 46080, Note_on_c, 4, 46, 64
6, 47104, Note_on_c, 4, 46, 0
6, 47616, Note_on_c, 4, 58, 64
6, 48640, Note_on_c, 4, 58, 0
6, 48640, Note_on_c, 4, 46, 64
6, 49024, Note_on_c, 4, 46, 0
6, 49152, Note_on_c, 4, 51, 64
6, 50176, Note_on_c, 4, 51, 0
6, 50176, Note_on_c, 4, 48, 64
6, 50560, Note_on_c, 4, 48, 0
6, 50688, Note_on_c, 4, 53, 64
6, 51712, Note_on_c, 4, 53, 0
6, 51712, Note_on_c, 4, 45, 64
6, 52096, Note_on_c, 4, 45, 0
6, 52224, Note_on_c, 4, 46, 64
6, 52608, Note_on_c, 4, 46, 0
6, 52736, Note_on_c, 4, 50, 64
6, 53120, Note_on_c, 4, 50, 0
6, 53248, Note_on_c, 4, 53, 64
6, 53632, Note_on_c, 4, 53, 0
6, 53760, Note_on_c, 4, 58, 64
6, 54144, Note_on_c, 4, 58, 0
6, 54272, Note_on_c, 4, 50, 64
6, 54656, Note_on_c, 4, 50, 0
6, 54784, Note_on_c, 4, 53, 64
6, 55168, Note_on_c, 4, 53, 0
6, 55296, Note_on_c, 4, 46, 64
6, 55808, Note_on_c, 4, 46, 0
6, 55808, Note_on_c, 4, 50, 64
6, 56192, Note_on_c, 4, 50, 0
6, 56320, Note_on_c, 4, 53, 64
6, 56704, Note_on_c, 4, 53, 0
6, 56832, Note_on_c, 4, 45, 64
6, 57344, Note_on_c, 4, 45, 0
6, 57344, Note_on_c, 4, 50, 64
6, 57728, Note_on_c, 4, 50, 0
6, 57856, Note_on_c, 4, 53, 64
6, 58240, Note_on_c, 4, 53, 0
6, 58368, Note_on_c, 4, 43, 64
6, 58880, Note_on_c, 4, 43, 0
6, 58880, Note_on_c, 4, 46, 64
6, 59264, Note_on_c, 4, 46, 0
6, 59392, Note_on_c, 4, 50, 64
6, 59776, Note_on_c, 4, 50, 0
6, 59904, Note_on_c, 4, 41, 64
6, 60416, Note_on_c, 4, 41, 0
6, 60416, Note_on_c, 4, 46, 64
6, 60800, Note_on_c, 4, 46, 0
6, 60928, Note_on_c, 4, 50, 64
6, 61312, Note_on_c, 4, 50, 0
6, 61440, Note_on_c, 4, 39, 64
6, 61952, Note_on_c, 4, 39, 0
6, 61952, Note_on_c, 4, 43, 64
6, 62336, Note_on_c, 4, 43, 0
6, 62464, Note_on_c, 4, 48, 64
6, 62848, Note_on_c, 4, 48, 0
6, 62976, Note_on_c, 4, 45, 64
6, 63488, Note_on_c, 4, 45, 0
6, 63488, Note_on_c, 4, 48, 64
6, 63872, Note_on_c, 4, 48, 0
6, 64000, Note_on_c, 4, 41, 64
6, 64384, Note_on_c, 4, 41, 0
6, 64512, Note_on_c, 4, 46, 64
6, 65024, Note_on_c, 4, 46, 0
6, 65024, Note_on_c, 4, 50, 64
6, 65408, Note_on_c, 4, 50, 0
6, 65536, Note_on_c, 4, 53, 64
6, 65920, Note_on_c, 4, 53, 0
6, 66048, Note_on_c, 4, 58, 64
6, 66560, Note_on_c, 4, 58, 0
6, 66560, Note_on_c, 4, 57, 64
6, 66944, Note_on_c, 4, 57, 0
6, 67072, Note_on_c, 4, 58, 64
6, 67456, Note_on_c, 4, 58, 0
6, 67584, Note_on_c, 4, 52, 64
6, 67968, Note_on_c, 4, 52, 0
6, 68096, Note_on_c, 4, 55, 64
6, 68480, Note_on_c, 4, 55, 0
6, 68608, Note_on_c, 4, 52, 64
6, 68992, Note_on_c, 4, 52, 0
6, 69120, Note_on_c, 4, 48, 64
6, 69504, Note_on_c, 4, 48, 0
6, 69632, Note_on_c, 4, 57, 64
6, 70016, Note_on_c, 4, 57, 0
6, 70144, Note_on_c, 4, 48, 64
6, 70528, Note_on_c, 4, 48, 0
6, 70656, Note_on_c, 4, 50, 64
6, 71040, Note_on_c, 4, 50, 0
6, 71168, Note_on_c, 4, 53, 64
6, 71552, Note_on_c, 4, 53, 0
6, 71680, Note_on_c, 4, 50, 64
6, 72064, Note_on_c, 4, 50, 0
6, 72192, Note_on_c, 4, 46, 64
6, 72576, Note_on_c, 4, 46, 0
6, 72704, Note_on_c, 4, 55, 64
6, 73088, Note_on_c, 4, 55, 0
6, 73216, Note_on_c, 4, 46, 64
6, 73600, Note_on_c, 4, 46, 0
6, 73728, Note_on_c, 4, 48, 64
6, 74752, Note_on_c, 4, 48, 0
6, 74752, Note_on_c, 4, 46, 64
6, 75264, Note_on_c, 4, 46, 0
6, 75264, Note_on_c, 4, 45, 64
6, 76288, Note_on_c, 4, 45, 0
6, 76288, Note_on_c, 4, 43, 64
6, 76800, Note_on_c, 4, 43, 0
6, 76800, Note_on_c, 4, 41, 64
6, 77824, Note_on_c, 4, 41, 0
6, 79872, Note_on_c, 4, 53, 64
6, 80896, Note_on_c, 4, 53, 0
6, 81408, Note_on_c, 4, 52, 64
6, 82432, Note_on_c, 4, 52, 0
6, 82944, Note_on_c, 4, 50, 64
6, 83968, Note_on_c, 4, 50, 0
6, 84480, Note_on_c, 4, 48, 64
6, 85504, Note_on_c, 4, 48, 0
6, 86016, Note_on_c, 4, 46, 64
6, 87040, Note_on_c, 4, 46, 0
6, 87552, Note_on_c, 4, 48, 64
6, 88576, Note_on_c, 4, 48, 0
6, 89088, Note_on_c, 4, 41, 64
6, 91008, Note_on_c, 4, 41, 0
6, 91136, Note_on_c, 4, 45, 64
6, 91520, Note_on_c, 4, 45, 0
6, 91648, Note_on_c, 4, 48, 64
6, 92032, Note_on_c, 4, 48, 0
6, 92160, Note_on_c, 4, 53, 64
6, 92672, Note_on_c, 4, 53, 0
6, 92672, Note_on_c, 4, 57, 64
6, 93056, Note_on_c, 4, 57, 0
6, 93184, Note_on_c, 4, 60, 64
6, 93568, Note_on_c, 4, 60, 0
6, 93696, Note_on_c, 4, 52, 64
6, 94208, Note_on_c, 4, 52, 0
6, 94208, Note_on_c, 4, 57, 64
6, 94592, Note_on_c, 4, 57, 0
6, 94720, Note_on_c, 4, 60, 64
6, 95104, Note_on_c, 4, 60, 0
6, 95232, Note_on_c, 4, 50, 64
6, 95744, Note_on_c, 4, 50, 0
6, 95744, Note_on_c, 4, 53, 64
6, 96128, Note_on_c, 4, 53, 0
6, 96256, Note_on_c, 4, 57, 64
6, 96640, Note_on_c, 4, 57, 0
6, 96768, Note_on_c, 4, 48, 64
6, 97280, Note_on_c, 4, 48, 0
6, 97280, Note_on_c, 4, 53, 64
6, 97664, Note_on_c, 4, 53, 0
6, 97792, Note_on_c, 4, 57, 64
6, 98176, Note_on_c, 4, 57, 0
6, 98304, Note_on_c, 4, 46, 64
6, 98816, Note_on_c, 4, 46, 0
6, 98816, Note_on_c, 4, 50, 64
6, 99200, Note_on_c, 4, 50, 0
6, 99328, Note_on_c, 4, 55, 64
6, 99712, Note_on_c, 4, 55, 0
6, 99840, Note_on_c, 4, 52, 64
6, 100352, Note_on_c, 4, 52, 0
6, 100352, Note_on_c, 4, 55, 64
6, 100736, Note_on_c, 4, 55, 0
6, 100864, Note_on_c, 4, 48, 64
6, 101248, Note_on_c, 4, 48, 0
6, 101376, Note_on_c, 4, 41, 64
6, 101888, Note_on_c, 4, 41, 0
6, 101888, Note_on_c, 4, 45, 64
6, 102272, Note_on_c, 4, 45, 0
6, 102400, Note_on_c, 4, 48, 64
6, 102784, Note_on_c, 4, 48, 0
6, 102912, Note_on_c, 4, 53, 64
6, 103424, Note_on_c, 4, 53, 0
6, 103424, Note_on_c, 4, 52, 64
6, 103808, Note_on_c, 4, 52, 0
6, 103936, Note_on_c, 4, 53, 64
6, 104320, Note_on_c, 4, 53, 0
6, 104448, Note_on_c, 4, 47, 64
6, 104832, Note_on_c, 4, 47, 0
6, 104960, Note_on_c, 4, 50, 64
6, 105344, Note_on_c, 4, 50, 0
6, 105472, Note_on_c, 4, 47, 64
6, 105856, Note_on_c, 4, 47, 0
6, 105984, Note_on_c, 4, 43, 64
6, 106368, Note_on_c, 4, 43, 0
6, 106496, Note_on_c, 4, 52, 64
6, 106880, Note_on_c, 4, 52, 0
6, 107008, Note_on_c, 4, 43, 64
6, 107392, Note_on_c, 4, 43, 0
6, 107520, Note_on_c, 4, 45, 64
6, 107904, Note_on_c, 4, 45, 0
6, 108032, Note_on_c, 4, 48, 64
6, 108416, Note_on_c, 4, 48, 0
6, 108544, Note_on_c, 4, 45, 64
6, 108928, Note_on_c, 4, 45, 0
6, 109056, Note_on_c, 4, 41, 64
6, 109440, Note_on_c, 4, 41, 0
6, 109568, Note_on_c, 4, 50, 64
6, 109952, Note_on_c, 4, 50, 0
6, 110080, Note_on_c, 4, 41, 64
6, 110464, Note_on_c, 4, 41, 0
6, 110592, Note_on_c, 4, 43, 64
6, 111616, Note_on_c, 4, 43, 0
6, 111616, Note_on_c, 4, 41, 64
6, 112128, Note_on_c, 4, 41, 0
6, 112128, Note_on_c, 4, 40, 64
6, 113152, Note_on_c, 4, 40, 0
6, 113152, Note_on_c, 4, 38, 64
6, 113664, Note_on_c, 4, 38, 0
6, 113664, Note_on_c, 4, 36, 64
6, 114688, Note_on_c, 4, 36, 0
6, 116736, Note_on_c, 4, 45, 64
6, 117760, Note_on_c, 4, 45, 0
6, 118272, Note_on_c, 4, 50, 64
6, 119296, Note_on_c, 4, 50, 0
6, 119808, Note_on_c, 4, 43, 64
6, 120832, Note_on_c, 4, 43, 0
6, 121344, Note_on_c, 4, 48, 64
6, 122368, Note_on_c, 4, 48, 0
6, 122880, Note_on_c, 4, 41, 64
6, 123904, Note_on_c, 4, 41, 0
6, 123904, Note_on_c, 4, 53, 64
6, 124288, Note_on_c, 4, 53, 0
6, 124416, Note_on_c, 4, 41, 64
6, 125440, Note_on_c, 4, 41, 0
6, 125440, Note_on_c, 4, 53, 64
6, 125824, Note_on_c, 4, 53, 0
6, 125952, Note_on_c, 4, 41, 64
6, 126976, Note_on_c, 4, 41, 0
6, 126976, Note_on_c, 4, 53, 64
6, 127360, Note_on_c, 4, 53, 0
6, 127488, Note_on_c, 4, 41, 64
6, 128512, Note_on_c, 4, 41, 0
6, 128512, Note_on_c, 4, 53, 64
6, 128896, Note_on_c, 4, 53, 0
6, 129024, Note_on_c, 4, 41, 64
6, 130048, Note_on_c, 4, 41, 0
6, 130560, Note_on_c, 4, 53, 64
6, 131584, Note_on_c, 4, 53, 0
6, 132096, Note_on_c, 4, 41, 64
6, 133120, Note_on_c, 4, 41, 0
6, 133632, Note_on_c, 4, 53, 64
6, 134656, Note_on_c, 4, 53, 0
6, 134656, Note_on_c, 4, 41, 64
6, 135040, Note_on_c, 4, 41, 0
6, 135168, Note_on_c, 4, 46, 64
6, 136192, Note_on_c, 4, 46, 0
6, 136192, Note_on_c, 4, 43, 64
6, 136576, Note_on_c, 4, 43, 0
6, 136704, Note_on_c, 4, 48, 64
6, 137728, Note_on_c, 4, 48, 0
6, 137728, Note_on_c, 4, 52, 64
6, 138112, Note_on_c, 4, 52, 0
6, 138240, Note_on_c, 4, 53, 64
6, 138624, Note_on_c, 4, 53, 0
6, 138752, Note_on_c, 4, 57, 64
6, 139136, Note_on_c, 4, 57, 0
6, 139264, Note_on_c, 4, 60, 64
6, 139648, Note_on_c, 4, 60, 0
6, 139776, Note_on_c, 4, 53, 55
6, 140032, Note_on_c, 4, 53, 0
6, 140032, Note_on_c, 4, 55, 55
6, 140288, Note_on_c, 4, 55, 0
6, 140288, Note_on_c, 4, 57, 55
6, 140544, Note_on_c, 4, 57, 0
6, 140544, Note_on_c, 4, 55, 55
6, 140800, Note_on_c, 4, 55, 0
6, 140800, Note_on_c, 4, 53, 55
6, 141056, Note_on_c, 4, 53, 0
6, 141056, Note_on_c, 4, 51, 55
6, 141312, Note_on_c, 4, 51, 0
6, 141312, Note_on_c, 4, 50, 55
6, 141568, Note_on_c, 4, 50, 0
6, 141568, Note_on_c, 4, 51, 55
6, 141824, Note_on_c, 4, 51, 0
6, 141824, Note_on_c, 4, 53, 55
6, 142080, Note_on_c, 4, 53, 0
6, 142080, Note_on_c, 4, 51, 55
6, 142336, Note_on_c, 4, 51, 0
6, 142336, Note_on_c, 4, 50, 55
6, 142592, Note_on_c, 4, 50, 0
6, 142592, Note_on_c, 4, 48, 55
6, 142848, Note_on_c, 4, 48, 0
6, 142848, Note_on_c, 4, 47, 55
6, 143104, Note_on_c, 4, 47, 0
6, 143104, Note_on_c, 4, 50, 55
6, 143360, Note_on_c, 4, 50, 0
6, 143360, Note_on_c, 4, 55, 55
6, 143616, Note_on_c, 4, 55, 0
6, 143616, Note_on_c, 4, 53, 55
6, 143872, Note_on_c, 4, 53, 0
6, 143872, Note_on_c, 4, 51, 55
6, 144128, Note_on_c, 4, 51, 0
6, 144128, Note_on_c, 4, 50, 55
6, 144384, Note_on_c, 4, 50, 0
6, 144384, Note_on_c, 4, 48, 55
6, 144768, Note_on_c, 4, 48, 0
6, 144896, Note_on_c, 4, 51, 64
6, 145280, Note_on_c, 4, 51, 0
6, 145408, Note_on_c, 4, 55, 64
6, 145792, Note_on_c, 4, 55, 0
6, 145920, Note_on_c, 4, 60, 64
6, 146304, Note_on_c, 4, 60, 0
6, 146432, Note_on_c, 4, 51, 64
6, 146816, Note_on_c, 4, 51, 0
6, 146944, Note_on_c, 4, 55, 64
6, 147328, Note_on_c, 4, 55, 0
6, 147456, Note_on_c, 4, 48, 55
6, 147712, Note_on_c, 4, 48, 0
6, 147712, Note_on_c, 4, 50, 55
6, 147968, Note_on_c, 4, 50, 0
6, 147968, Note_on_c, 4, 51, 55
6, 148224, Note_on_c, 4, 51, 0
6, 148224, Note_on_c, 4, 50, 55
6, 148480, Note_on_c, 4, 50, 0
6, 148480, Note_on_c, 4, 48, 55
6, 148736, Note_on_c, 4, 48, 0
6, 148736, Note_on_c, 4, 46, 55
6, 148992, Note_on_c, 4, 46, 0
6, 148992, Note_on_c, 4, 45, 55
6, 149248, Note_on_c, 4, 45, 0
6, 149248, Note_on_c, 4, 48, 55
6, 149504, Note_on_c, 4, 48, 0
6, 149504, Note_on_c, 4, 53, 55
6, 149760, Note_on_c, 4, 53, 0
6, 149760, Note_on_c, 4, 51, 55
6, 150016, Note_on_c, 4, 51, 0
6, 150016, Note_on_c, 4, 50, 55
6, 150272, Note_on_c, 4, 50, 0
6, 150272, Note_on_c, 4, 48, 55
6, 150528, Note_on_c, 4, 48, 0
6, 150528, Note_on_c, 4, 46, 64
6, 150912, Note_on_c, 4, 46, 0
6, 151040, Note_on_c, 4, 50, 64
6, 151424, Note_on_c, 4, 50, 0
6, 151552, Note_on_c, 4, 53, 64
6, 151936, Note_on_c, 4, 53, 0
6, 152064, Note_on_c, 4, 58, 50
6, 152320, Note_on_c, 4, 58, 0
6, 152320, Note_on_c, 4, 60, 50
6, 152576, Note_on_c, 4, 60, 0
6, 152576, Note_on_c, 4, 58, 51
6, 152832, Note_on_c, 4, 58, 0
6, 152832, Note_on_c, 4, 57, 51
6, 153088, Note_on_c, 4, 57, 0
6, 153088, Note_on_c, 4, 55, 51
6, 153344, Note_on_c, 4, 55, 0
6, 153344, Note_on_c, 4, 53, 51
6, 153600, Note_on_c, 4, 53, 0
6, 153600, Note_on_c, 4, 51, 52
6, 153856, Note_on_c, 4, 51, 0
6, 153856, Note_on_c, 4, 53, 52
6, 154112, Note_on_c, 4, 53, 0
6, 154112, Note_on_c, 4, 55, 52
6, 154368, Note_on_c, 4, 55, 0
6, 154368, Note_on_c, 4, 53, 52
6, 154624, Note_on_c, 4, 53, 0
6, 154624, Note_on_c, 4, 51, 53
6, 154880, Note_on_c, 4, 51, 0
6, 154880, Note_on_c, 4, 50, 53
6, 155136, Note_on_c, 4, 50, 0
6, 155136, Note_on_c, 4, 48, 53
6, 155392, Note_on_c, 4, 48, 0
6, 155392, Note_on_c, 4, 51, 53
6, 155648, Note_on_c, 4, 51, 0
6, 155648, Note_on_c, 4, 57, 54
6, 155904, Note_on_c, 4, 57, 0
6, 155904, Note_on_c, 4, 55, 54
6, 156160, Note_on_c, 4, 55, 0
6, 156160, Note_on_c, 4, 53, 54
6, 156416, Note_on_c, 4, 53, 0
6, 156416, Note_on_c, 4, 51, 54
6, 156672, Note_on_c, 4, 51, 0
6, 156672, Note_on_c, 4, 50, 55
6, 156928, Note_on_c, 4, 50, 0
6, 156928, Note_on_c, 4, 51, 55
6, 157184, Note_on_c, 4, 51, 0
6, 157184, Note_on_c, 4, 53, 55
6, 157440, Note_on_c, 4, 53, 0
6, 157440, Note_on_c, 4, 51, 56
6, 157696, Note_on_c, 4, 51, 0
6, 157696, Note_on_c, 4, 50, 56
6, 157952, Note_on_c, 4, 50, 0
6, 157952, Note_on_c, 4, 48, 56
6, 158208, Note_on_c, 4, 48, 0
6, 158208, Note_on_c, 4, 46, 56
6, 158464, Note_on_c, 4, 46, 0
6, 158464, Note_on_c, 4, 50, 57
6, 158720, Note_on_c, 4, 50, 0
6, 158720, Note_on_c, 4, 55, 57
6, 158976, Note_on_c, 4, 55, 0
6, 158976, Note_on_c, 4, 53, 57
6, 159232, Note_on_c, 4, 53, 0
6, 159232, Note_on_c, 4, 51, 57
6, 159488, Note_on_c, 4, 51, 0
6, 159488, Note_on_c, 4, 50, 58
6, 159744, Note_on_c, 4, 50, 0
6, 159744, Note_on_c, 4, 48, 58
6, 160000, Note_on_c, 4, 48, 0
6, 160000, Note_on_c, 4, 50, 58
6, 160256, Note_on_c, 4, 50, 0
6, 160256, Note_on_c, 4, 51, 58
6, 160512, Note_on_c, 4, 51, 0
6, 160512, Note_on_c, 4, 50, 59
6, 160768, Note_on_c, 4, 50, 0
6, 160768, Note_on_c, 4, 48, 59
6, 161024, Note_on_c, 4, 48, 0
6, 161024, Note_on_c, 4, 46, 59
6, 161280, Note_on_c, 4, 46, 0
6, 161280, Note_on_c, 4, 45, 60
6, 161536, Note_on_c, 4, 45, 0
6, 161536, Note_on_c, 4, 48, 60
6, 161792, Note_on_c, 4, 48, 0
6, 161792, Note_on_c, 4, 53, 60
6, 162048, Note_on_c, 4, 53, 0
6, 162048, Note_on_c, 4, 51, 60
6, 162304, Note_on_c, 4, 51, 0
6, 162304, Note_on_c, 4, 50, 61
6, 162560, Note_on_c, 4, 50, 0
6, 162560, Note_on_c, 4, 48, 61
6, 162816, Note_on_c, 4, 48, 0
6, 162816, Note_on_c, 4, 46, 61
6, 163072, Note_on_c, 4, 46, 0
6, 163072, Note_on_c, 4, 45, 61
6, 163328, Note_on_c, 4, 45, 0
6, 163328, Note_on_c, 4, 46, 62
6, 163584, Note_on_c, 4, 46, 0
6, 163584, Note_on_c, 4, 48, 62
6, 163840, Note_on_c, 4, 48, 0
6, 163840, Note_on_c, 4, 50, 62
6, 164096, Note_on_c, 4, 50, 0
6, 164096, Note_on_c, 4, 51, 62
6, 164352, Note_on_c, 4, 51, 0
6, 164352, Note_on_c, 4, 53, 63
6, 164608, Note_on_c, 4, 53, 0
6, 164608, Note_on_c, 4, 52, 63
6, 164864, Note_on_c, 4, 52, 0
6, 164864, Note_on_c, 4, 53, 63
6, 165120, Note_on_c, 4, 53, 0
6, 165120, Note_on_c, 4, 48, 63
6, 165376, Note_on_c, 4, 48, 0
6, 165376, Note_on_c, 4, 45, 64
6, 165632, Note_on_c, 4, 45, 0
6, 165632, Note_on_c, 4, 48, 64
6, 165888, Note_on_c, 4, 48, 0
6, 165888, Note_on_c, 4, 41, 50
6, 166912, Note_on_c, 4, 41, 0
6, 167424, Note_on_c, 4, 53, 50
6, 168448, Note_on_c, 4, 53, 0
6, 168960, Note_on_c, 4, 41, 50
6, 169984, Note_on_c, 4, 41, 0
6, 170496, Note_on_c, 4, 53, 50
6, 170752, Note_on_c, 4, 53, 0
6, 170752, Note_on_c, 4, 48, 50
6, 171008, Note_on_c, 4, 48, 0
6, 171008, Note_on_c, 4, 50, 50
6, 171264, Note_on_c, 4, 50, 0
6, 171264, Note_on_c, 4, 51, 50
6, 171520, Note_on_c, 4, 51, 0
6, 171520, Note_on_c, 4, 53, 50
6, 171776, Note_on_c, 4, 53, 0
6, 171776, Note_on_c, 4, 55, 50
6, 172032, Note_on_c, 4, 55, 0
6, 172032, Note_on_c, 4, 57, 50
6, 172288, Note_on_c, 4, 57, 0
6, 172288, Note_on_c, 4, 58, 50
6, 172544, Note_on_c, 4, 58, 0
6, 172544, Note_on_c, 4, 60, 50
6, 172800, Note_on_c, 4, 60, 0
6, 172800, Note_on_c, 4, 58, 50
6, 173056, Note_on_c, 4, 58, 0
6, 173056, Note_on_c, 4, 57, 50
6, 173312, Note_on_c, 4, 57, 0
6, 173312, Note_on_c, 4, 55, 50
6, 173568, Note_on_c, 4, 55, 0
6, 173568, Note_on_c, 4, 53, 50
6, 173824, Note_on_c, 4, 53, 0
6, 173824, Note_on_c, 4, 55, 50
6, 174080, Note_on_c, 4, 55, 0
6, 174080, Note_on_c, 4, 57, 50
6, 174336, Note_on_c, 4, 57, 0
6, 174336, Note_on_c, 4, 55, 50
6, 174592, Note_on_c, 4, 55, 0
6, 174592, Note_on_c, 4, 53, 50
6, 174848, Note_on_c, 4, 53, 0
6, 174848, Note_on_c, 4, 51, 50
6, 175104, Note_on_c, 4, 51, 0
6, 175104, Note_on_c, 4, 50, 50
6, 175360, Note_on_c, 4, 50, 0
6, 175360, Note_on_c, 4, 51, 50
6, 175616, Note_on_c, 4, 51, 0
6, 175616, Note_on_c, 4, 53, 50
6, 175872, Note_on_c, 4, 53, 0
6, 175872, Note_on_c, 4, 51, 50
6, 176128, Note_on_c, 4, 51, 0
6, 176128, Note_on_c, 4, 50, 50
6, 176384, Note_on_c, 4, 50, 0
6, 176384, Note_on_c, 4, 48, 50
6, 176640, Note_on_c, 4, 48, 0
6, 176640, Note_on_c, 4, 46, 50
6, 176896, Note_on_c, 4, 46, 0
6, 176896, Note_on_c, 4, 53, 50
6, 177152, Note_on_c, 4, 53, 0
6, 177152, Note_on_c, 4, 55, 50
6, 177408, Note_on_c, 4, 55, 0
6, 177408, Note_on_c, 4, 57, 50
6, 177664, Note_on_c, 4, 57, 0
6, 177664, Note_on_c, 4, 58, 50
6, 177920, Note_on_c, 4, 58, 0
6, 177920, Note_on_c, 4, 60, 50
6, 178176, Note_on_c, 4, 60, 0
6, 178176, Note_on_c, 4, 62, 50
6, 178432, Note_on_c, 4, 62, 0
6, 178432, Note_on_c, 4, 63, 50
6, 178688, Note_on_c, 4, 63, 0
6, 178688, Note_on_c, 4, 65, 50
6, 178944, Note_on_c, 4, 65, 0
6, 178944, Note_on_c, 4, 63, 50
6, 179200, Note_on_c, 4, 63, 0
6, 179200, Note_on_c, 4, 62, 50
6, 179456, Note_on_c, 4, 62, 0
6, 179456, Note_on_c, 4, 60, 50
6, 179712, Note_on_c, 4, 60, 0
6, 179712, Note_on_c, 4, 58, 50
6, 179968, Note_on_c, 4, 58, 0
6, 179968, Note_on_c, 4, 60, 50
6, 180224, Note_on_c, 4, 60, 0
6, 180224, Note_on_c, 4, 62, 50
6, 180480, Note_on_c, 4, 62, 0
6, 180480, Note_on_c, 4, 60, 50
6, 180736, Note_on_c, 4, 60, 0
6, 180736, Note_on_c, 4, 58, 50
6, 180992, Note_on_c, 4, 58, 0
6, 180992, Note_on_c, 4, 56, 50
6, 181248, Note_on_c, 4, 56, 0
6, 181248, Note_on_c, 4, 55, 50
6, 181504, Note_on_c, 4, 55, 0
6, 181504, Note_on_c, 4, 56, 50
6, 181760, Note_on_c, 4, 56, 0
6, 181760, Note_on_c, 4, 58, 50
6, 182016, Note_on_c, 4, 58, 0
6, 182016, Note_on_c, 4, 56, 50
6, 182272, Note_on_c, 4, 56, 0
6, 182272, Note_on_c, 4, 55, 50
6, 182528, Note_on_c, 4, 55, 0
6, 182528, Note_on_c, 4, 53, 50
6, 182784, Note_on_c, 4, 53, 0
6, 182784, Note_on_c, 4, 51, 50
6, 183040, Note_on_c, 4, 51, 0
6, 183040, Note_on_c, 4, 52, 50
6, 183296, Note_on_c, 4, 52, 0
6, 183296, Note_on_c, 4, 55, 50
6, 183552, Note_on_c, 4, 55, 0
6, 183552, Note_on_c, 4, 52, 50
6, 183808, Note_on_c, 4, 52, 0
6, 183808, Note_on_c, 4, 51, 50
6, 184064, Note_on_c, 4, 51, 0
6, 184064, Note_on_c, 4, 50, 50
6, 184320, Note_on_c, 4, 50, 0
6, 184320, Note_on_c, 4, 48, 50
6, 184576, Note_on_c, 4, 48, 0
6, 184576, Note_on_c, 4, 50, 50
6, 184832, Note_on_c, 4, 50, 0
6, 184832, Note_on_c, 4, 52, 50
6, 185088, Note_on_c, 4, 52, 0
6, 185088, Note_on_c, 4, 50, 50
6, 185344, Note_on_c, 4, 50, 0
6, 185344, Note_on_c, 4, 52, 50
6, 185600, Note_on_c, 4, 52, 0
6, 185600, Note_on_c, 4, 48, 50
6, 185856, Note_on_c, 4, 48, 0
6, 185856, Note_on_c, 4, 53, 50
6, 186112, Note_on_c, 4, 53, 0
6, 186112, Note_on_c, 4, 55, 50
6, 186368, Note_on_c, 4, 55, 0
6, 186368, Note_on_c, 4, 57, 50
6, 186624, Note_on_c, 4, 57, 0
6, 186624, Note_on_c, 4, 55, 50
6, 186880, Note_on_c, 4, 55, 0
6, 186880, Note_on_c, 4, 53, 50
6, 187136, Note_on_c, 4, 53, 0
6, 187136, Note_on_c, 4, 51, 50
6, 187392, Note_on_c, 4, 51, 0
6, 187392, Note_on_c, 4, 50, 50
6, 187648, Note_on_c, 4, 50, 0
6, 187648, Note_on_c, 4, 52, 50
6, 187904, Note_on_c, 4, 52, 0
6, 187904, Note_on_c, 4, 54, 50
6, 188160, Note_on_c, 4, 54, 0
6, 188160, Note_on_c, 4, 52, 50
6, 188416, Note_on_c, 4, 52, 0
6, 188416, Note_on_c, 4, 54, 50
6, 188672, Note_on_c, 4, 54, 0
6, 188672, Note_on_c, 4, 50, 50
6, 188928, Note_on_c, 4, 50, 0
6, 188928, Note_on_c, 4, 55, 50
6, 189184, Note_on_c, 4, 55, 0
6, 189184, Note_on_c, 4, 54, 50
6, 189440, Note_on_c, 4, 54, 0
6, 189440, Note_on_c, 4, 55, 50
6, 189696, Note_on_c, 4, 55, 0
6, 189696, Note_on_c, 4, 57, 50
6, 189952, Note_on_c, 4, 57, 0
6, 189952, Note_on_c, 4, 58, 50
6, 190208, Note_on_c, 4, 58, 0
6, 190208, Note_on_c, 4, 55, 50
6, 190464, Note_on_c, 4, 55, 0
6, 190464, Note_on_c, 4, 57, 50
6, 190720, Note_on_c, 4, 57, 0
6, 190720, Note_on_c, 4, 55, 50
6, 190976, Note_on_c, 4, 55, 0
6, 190976, Note_on_c, 4, 57, 50
6, 191232, Note_on_c, 4, 57, 0
6, 191232, Note_on_c, 4, 58, 50
6, 191488, Note_on_c, 4, 58, 0
6, 191488, Note_on_c, 4, 60, 50
6, 191744, Note_on_c, 4, 60, 0
6, 191744, Note_on_c, 4, 57, 50
6, 192000, Note_on_c, 4, 57, 0
6, 192000, Note_on_c, 4, 58, 50
6, 192256, Note_on_c, 4, 58, 0
6, 192256, Note_on_c, 4, 57, 50
6, 192512, Note_on_c, 4, 57, 0
6, 192512, Note_on_c, 4, 58, 50
6, 192768, Note_on_c, 4, 58, 0
6, 192768, Note_on_c, 4, 60, 50
6, 193024, Note_on_c, 4, 60, 0
6, 193024, Note_on_c, 4, 62, 50
6, 193280, Note_on_c, 4, 62, 0
6, 193280, Note_on_c, 4, 58, 50
6, 193536, Note_on_c, 4, 58, 0
6, 193536, Note_on_c, 4, 51, 50
6, 193792, Note_on_c, 4, 51, 0
6, 193792, Note_on_c, 4, 50, 50
6, 194048, Note_on_c, 4, 50, 0
6, 194048, Note_on_c, 4, 51, 50
6, 194304, Note_on_c, 4, 51, 0
6, 194304, Note_on_c, 4, 53, 50
6, 194560, Note_on_c, 4, 53, 0
6, 194560, Note_on_c, 4, 55, 50
6, 194816, Note_on_c, 4, 55, 0
6, 194816, Note_on_c, 4, 51, 50
6, 195072, Note_on_c, 4, 51, 0
6, 195072, Note_on_c, 4, 53, 50
6, 195456, Note_on_c, 4, 53, 0
6, 195584, Note_on_c, 4, 41, 50
6, 195968, Note_on_c, 4, 41, 0
6, 196096, Note_on_c, 4, 53, 50
6, 196480, Note_on_c, 4, 53, 0
6, 196608, Note_on_c, 4, 46, 50
6, 197120, Note_on_c, 4, 46, 0
6, 197120, Note_on_c, 4, 50, 50
6, 197504, Note_on_c, 4, 50, 0
6, 197632, Note_on_c, 4, 53, 50
6, 198016, Note_on_c, 4, 53, 0
6, 198144, Note_on_c, 4, 45, 50
6, 198656, Note_on_c, 4, 45, 0
6, 198656, Note_on_c, 4, 50, 50
6, 199040, Note_on_c, 4, 50, 0
6, 199168, Note_on_c, 4, 53, 50
6, 199552, Note_on_c, 4, 53, 0
6, 199680, Note_on_c, 4, 43, 50
6, 200192, Note_on_c, 4, 43, 0
6, 200192, Note_on_c, 4, 46, 50
6, 200576, Note_on_c, 4, 46, 0
6, 200704, Note_on_c, 4, 50, 50
6, 201088, Note_on_c, 4, 50, 0
6, 201216, Note_on_c, 4, 41, 50
6, 201728, Note_on_c, 4, 41, 0
6, 201728, Note_on_c, 4, 46, 50
6, 202112, Note_on_c, 4, 46, 0
6, 202240, Note_on_c, 4, 50, 50
6, 202624, Note_on_c, 4, 50, 0
6, 202752, Note_on_c, 4, 39, 50
6, 203264, Note_on_c, 4, 39, 0
6, 203264, Note_on_c, 4, 43, 50
6, 203648, Note_on_c, 4, 43, 0
6, 203776, Note_on_c, 4, 48, 50
6, 204160, Note_on_c, 4, 48, 0
6, 204288, Note_on_c, 4, 45, 50
6, 204800, Note_on_c, 4, 45, 0
6, 204800, Note_on_c, 4, 48, 50
6, 205184, Note_on_c, 4, 48, 0
6, 205312, Note_on_c, 4, 41, 50
6, 205696, Note_on_c, 4, 41, 0
6, 205824, Note_on_c, 4, 46, 50
6, 206336, Note_on_c, 4, 46, 0
6, 206336, Note_on_c, 4, 50, 50
6, 206720, Note_on_c, 4, 50, 0
6, 206848, Note_on_c, 4, 53, 50
6, 207232, Note_on_c, 4, 53, 0
6, 207360, Note_on_c, 4, 58, 50
6, 207872, Note_on_c, 4, 58, 0
6, 207872, Note_on_c, 4, 57, 50
6, 208256, Note_on_c, 4, 57, 0
6, 208384, Note_on_c, 4, 58, 50
6, 208768, Note_on_c, 4, 58, 0
6, 208896, Note_on_c, 4, 50, 64
6, 209920, Note_on_c, 4, 50, 0
6, 210432, Note_on_c, 4, 55, 64
6, 211456, Note_on_c, 4, 55, 0
6, 211968, Note_on_c, 4, 48, 64
6, 212992, Note_on_c, 4, 48, 0
6, 213504, Note_on_c, 4, 53, 64
6, 214528, Note_on_c, 4, 53, 0
6, 215040, Note_on_c, 4, 46, 64
6, 216064, Note_on_c, 4, 46, 0
6, 216064, Note_on_c, 4, 58, 64
6, 216448, Note_on_c, 4, 58, 0
6, 216576, Note_on_c, 4, 46, 64
6, 217600, Note_on_c, 4, 46, 0
6, 217600, Note_on_c, 4, 58, 64
6, 217984, Note_on_c, 4, 58, 0
6, 218112, Note_on_c, 4, 46, 64
6, 219136, Note_on_c, 4, 46, 0
6, 219136, Note_on_c, 4, 58, 64
6, 219520, Note_on_c, 4, 58, 0
6, 219648, Note_on_c, 4, 46, 64
6, 220672, Note_on_c, 4, 46, 0
6, 220672, Note_on_c, 4, 58, 64
6, 221056, Note_on_c, 4, 58, 0
6, 221184, Note_on_c, 4, 46, 64
6, 222208, Note_on_c, 4, 46, 0
6, 222720, Note_on_c, 4, 58, 64
6, 223744, Note_on_c, 4, 58, 0
6, 224256, Note_on_c, 4, 46, 64
6, 225280, Note_on_c, 4, 46, 0
6, 225792, Note_on_c, 4, 58, 64
6, 226816, Note_on_c, 4, 58, 0
6, 226816, Note_on_c, 4, 46, 64
6, 227200, Note_on_c, 4, 46, 0
6, 227328, Note_on_c, 4, 51, 64
6, 228352, Note_on_c, 4, 51, 0
6, 228352, Note_on_c, 4, 48, 64
6, 228736, Note_on_c, 4, 48, 0
6, 228864, Note_on_c, 4, 53, 64
6, 229888, Note_on_c, 4, 53, 0
6, 229888, Note_on_c, 4, 57, 64
6, 230272, Note_on_c, 4, 57, 0
6, 230400, Note_on_c, 4, 58, 64
6, 230784, Note_on_c, 4, 58, 0
6, 230912, Note_on_c, 4, 50, 64
6, 231296, Note_on_c, 4, 50, 0
6, 231424, Note_on_c, 4, 53, 64
6, 231808, Note_on_c, 4, 53, 0
6, 231936, Note_on_c, 4, 46, 64
6, 232960, Note_on_c, 4, 46, 0
6, 233472, Note_on_c, 4, 58, 64
6, 234496, Note_on_c, 4, 58, 0
6, 235008, Note_on_c, 4, 57, 64
6, 236032, Note_on_c, 4, 57, 0
6, 236544, Note_on_c, 4, 55, 64
6, 237568, Note_on_c, 4, 55, 0
6, 238080, Note_on_c, 4, 53, 64
6, 239104, Note_on_c, 4, 53, 0
6, 239616, Note_on_c, 4, 51, 64
6, 240640, Note_on_c, 4, 51, 0
6, 241152, Note_on_c, 4, 53, 64
6, 242176, Note_on_c, 4, 53, 0
6, 242688, Note_on_c, 4, 46, 64
6, 243712, Note_on_c, 4, 46, 0
6, 243712, Note_on_c, 4, 53, 64
6, 244096, Note_on_c, 4, 53, 0
6, 244224, Note_on_c, 4, 58, 64
6, 244736, Note_on_c, 4, 58, 0
6, 244736, Note_on_c, 4, 57, 64
6, 245120, Note_on_c, 4, 57, 0
6, 245248, Note_on_c, 4, 58, 64
6, 245632, Note_on_c, 4, 58, 0
6, 245760, Note_on_c, 4, 52, 64
6, 246784, Note_on_c, 4, 52, 0
6, 247296, Note_on_c, 4, 48, 64
6, 248320, Note_on_c, 4, 48, 0
6, 248832, Note_on_c, 4, 50, 64
6, 249856, Note_on_c, 4, 50, 0
6, 250368, Note_on_c, 4, 46, 64
6, 251392, Note_on_c, 4, 46, 0
6, 251904, Note_on_c, 4, 48, 64
6, 252928, Note_on_c, 4, 48, 0
6, 252928, Note_on_c, 4, 46, 64
6, 253312, Note_on_c, 4, 46, 0
6, 253440, Note_on_c, 4, 45, 64
6, 254464, Note_on_c, 4, 45, 0
6, 254464, Note_on_c, 4, 43, 64
6, 254848, Note_on_c, 4, 43, 0
6, 254976, Note_on_c, 4, 41, 64
6, 256000, Note_on_c, 4, 41, 0
6, 256000, Note_on_c, 4, 48, 64
6, 256384, Note_on_c, 4, 48, 0
6, 256512, Note_on_c, 4, 53, 64
6, 257024, Note_on_c, 4, 53, 0
6, 257024, Note_on_c, 4, 51, 64
6, 257408, Note_on_c, 4, 51, 0
6, 257536, Note_on_c, 4, 53, 64
6, 257920, Note_on_c, 4, 53, 0
6, 258048, Note_on_c, 4, 50, 64
6, 259072, Note_on_c, 4, 50, 0
6, 259584, Note_on_c, 4, 55, 64
6, 260608, Note_on_c, 4, 55, 0
6, 261120, Note_on_c, 4, 48, 64
6, 262144, Note_on_c, 4, 48, 0
6, 262656, Note_on_c, 4, 53, 64
6, 263680, Note_on_c, 4, 53, 0
6, 264192, Note_on_c, 4, 46, 64
6, 265216, Note_on_c, 4, 46, 0
6, 265216, Note_on_c, 4, 58, 64
6, 265600, Note_on_c, 4, 58, 0
6, 265728, Note_on_c, 4, 46, 64
6, 266752, Note_on_c, 4, 46, 0
6, 266752, Note_on_c, 4, 58, 64
6, 267136, Note_on_c, 4, 58, 0
6, 267264, Note_on_c, 4, 46, 64
6, 268288, Note_on_c, 4, 46, 0
6, 268288, Note_on_c, 4, 58, 64
6, 268672, Note_on_c, 4, 58, 0
6, 268800, Note_on_c, 4, 46, 64
6, 269824, Note_on_c, 4, 46, 0
6, 269824, Note_on_c, 4, 58, 64
6, 270208, Note_on_c, 4, 58, 0
6, 270336, Note_on_c, 4, 46, 64
6, 271360, Note_on_c, 4, 46, 0
6, 271872, Note_on_c, 4, 58, 64
6, 272896, Note_on_c, 4, 58, 0
6, 273408, Note_on_c, 4, 46, 64
6, 274432, Note_on_c, 4, 46, 0
6, 274944, Note_on_c, 4, 58, 64
6, 275968, Note_on_c, 4, 58, 0
6, 275968, Note_on_c, 4, 46, 64
6, 276352, Note_on_c, 4, 46, 0
6, 276480, Note_on_c, 4, 51, 64
6, 277504, Note_on_c, 4, 51, 0
6, 277504, Note_on_c, 4, 48, 64
6, 277888, Note_on_c, 4, 48, 0
6, 278016, Note_on_c, 4, 53, 64
6, 279040, Note_on_c, 4, 53, 0
6, 279040, Note_on_c, 4, 45, 64
6, 279424, Note_on_c, 4, 45, 0
6, 279552, Note_on_c, 4, 46, 64
6, 279936, Note_on_c, 4, 46, 0
6, 280064, Note_on_c, 4, 50, 64
6, 280448, Note_on_c, 4, 50, 0
6, 280576, Note_on_c, 4, 53, 64
6, 280960, Note_on_c, 4, 53, 0
6, 281088, Note_on_c, 4, 46, 64
6, 282112, Note_on_c, 4, 46, 0
6, 282624, Note_on_c, 4, 50, 64
6, 283648, Note_on_c, 4, 50, 0
6, 283648, Note_on_c, 4, 62, 64
6, 284032, Note_on_c, 4, 62, 0
6, 284160, Note_on_c, 4, 50, 64
6, 285184, Note_on_c, 4, 50, 0
6, 285184, Note_on_c, 4, 62, 64
6, 285568, Note_on_c, 4, 62, 0
6, 285696, Note_on_c, 4, 50, 64
6, 286720, Note_on_c, 4, 50, 0
6, 286720, Note_on_c, 4, 62, 64
6, 287104, Note_on_c, 4, 62, 0
6, 287232, Note_on_c, 4, 50, 64
6, 288256, Note_on_c, 4, 50, 0
6, 288256, Note_on_c, 4, 62, 64
6, 288640, Note_on_c, 4, 62, 0
6, 288768, Note_on_c, 4, 50, 64
6, 289792, Note_on_c, 4, 50, 0
6, 289792, Note_on_c, 4, 62, 64
6, 290176, Note_on_c, 4, 62, 0
6, 290304, Note_on_c, 4, 50, 64
6, 291328, Note_on_c, 4, 50, 0
6, 291328, Note_on_c, 4, 62, 64
6, 291712, Note_on_c, 4, 62, 0
6, 291840, Note_on_c, 4, 50, 64
6, 292864, Note_on_c, 4, 50, 0
6, 292864, Note_on_c, 4, 62, 64
6, 293248, Note_on_c, 4, 62, 0
6, 293376, Note_on_c, 4, 50, 64
6, 294400, Note_on_c, 4, 50, 0
6, 294400, Note_on_c, 4, 48, 64
6, 294784, Note_on_c, 4, 48, 0
6, 294912, Note_on_c, 4, 47, 55
6, 295936, Note_on_c, 4, 47, 0
6, 296448, Note_on_c, 4, 48, 55
6, 297472, Note_on_c, 4, 48, 0
6, 297984, Note_on_c, 4, 45, 55
6, 299008, Note_on_c, 4, 45, 0
6, 299520, Note_on_c, 4, 46, 55
6, 300544, Note_on_c, 4, 46, 0
6, 301056, Note_on_c, 4, 43, 55
6, 302080, Note_on_c, 4, 43, 0
6, 302592, Note_on_c, 4, 45, 55
6, 303616, Note_on_c, 4, 45, 0
6, 304128, Note_on_c, 4, 42, 55
6, 305152, Note_on_c, 4, 42, 0
6, 305664, Note_on_c, 4, 43, 55
6, 306688, Note_on_c, 4, 43, 0
6, 307200, Note_on_c, 4, 48, 55
6, 308224, Note_on_c, 4, 48, 0
6, 308736, Note_on_c, 4, 45, 57
6, 309760, Note_on_c, 4, 45, 0
6, 310272, Note_on_c, 4, 50, 59
6, 311296, Note_on_c, 4, 50, 0
6, 311808, Note_on_c, 4, 46, 61
6, 312832, Note_on_c, 4, 46, 0
6, 313344, Note_on_c, 4, 51, 63
6, 314368, Note_on_c, 4, 51, 0
6, 314880, Note_on_c, 4, 48, 64
6, 315904, Note_on_c, 4, 48, 0
6, 316416, Note_on_c, 4, 50, 66
6, 317440, Note_on_c, 4, 50, 0
6, 317952, Note_on_c, 4, 38, 68
6, 318976, Note_on_c, 4, 38, 0
6, 319488, Note_on_c, 4, 55, 70
6, 320512, Note_on_c, 4, 55, 0
6, 321024, Note_on_c, 4, 53, 70
6, 322048, Note_on_c, 4, 53, 0
6, 322560, Note_on_c, 4, 51, 70
6, 323584, Note_on_c, 4, 51, 0
6, 324096, Note_on_c, 4, 50, 70
6, 325120, Note_on_c, 4, 50, 0
6, 325632, Note_on_c, 4, 48, 70
6, 326656, Note_on_c, 4, 48, 0
6, 327168, Note_on_c, 4, 50, 70
6, 328192, Note_on_c, 4, 50, 0
6, 328704, Note_on_c, 4, 43, 70
6, 329728, Note_on_c, 4, 43, 0
6, 329728, Note_on_c, 4, 50, 70
6, 330112, Note_on_c, 4, 50, 0
6, 330240, Note_on_c, 4, 55, 55
6, 330496, Note_on_c, 4, 55, 0
6, 330496, Note_on_c, 4, 57, 55
6, 330752, Note_on_c, 4, 57, 0
6, 330752, Note_on_c, 4, 58, 55
6, 331008, Note_on_c, 4, 58, 0
6, 331008, Note_on_c, 4, 57, 55
6, 331264, Note_on_c, 4, 57, 0
6, 331264, Note_on_c, 4, 55, 55
6, 331520, Note_on_c, 4, 55, 0
6, 331520, Note_on_c, 4, 53, 55
6, 331776, Note_on_c, 4, 53, 0
6, 331776, Note_on_c, 4, 52, 55
6, 332032, Note_on_c, 4, 52, 0
6, 332032, Note_on_c, 4, 53, 55
6, 332288, Note_on_c, 4, 53, 0
6, 332288, Note_on_c, 4, 55, 55
6, 332544, Note_on_c, 4, 55, 0
6, 332544, Note_on_c, 4, 53, 55
6, 332800, Note_on_c, 4, 53, 0
6, 332800, Note_on_c, 4, 52, 55
6, 333056, Note_on_c, 4, 52, 0
6, 333056, Note_on_c, 4, 50, 55
6, 333312, Note_on_c, 4, 50, 0
6, 333312, Note_on_c, 4, 49, 55
6, 333568, Note_on_c, 4, 49, 0
6, 333568, Note_on_c, 4, 52, 55
6, 333824, Note_on_c, 4, 52, 0
6, 333824, Note_on_c, 4, 57, 55
6, 334080, Note_on_c, 4, 57, 0
6, 334080, Note_on_c, 4, 55, 55
6, 334336, Note_on_c, 4, 55, 0
6, 334336, Note_on_c, 4, 53, 55
6, 334592, Note_on_c, 4, 53, 0
6, 334592, Note_on_c, 4, 52, 55
6, 334848, Note_on_c, 4, 52, 0
6, 334848, Note_on_c, 4, 50, 55
6, 335232, Note_on_c, 4, 50, 0
6, 335360, Note_on_c, 4, 53, 55
6, 335744, Note_on_c, 4, 53, 0
6, 335872, Note_on_c, 4, 57, 55
6, 336256, Note_on_c, 4, 57, 0
6, 336384, Note_on_c, 4, 62, 55
6, 336768, Note_on_c, 4, 62, 0
6, 336896, Note_on_c, 4, 53, 55
6, 337280, Note_on_c, 4, 53, 0
6, 337408, Note_on_c, 4, 57, 55
6, 337792, Note_on_c, 4, 57, 0
6, 337920, Note_on_c, 4, 50, 55
6, 338176, Note_on_c, 4, 50, 0
6, 338176, Note_on_c, 4, 51, 55
6, 338432, Note_on_c, 4, 51, 0
6, 338432, Note_on_c, 4, 53, 55
6, 338688, Note_on_c, 4, 53, 0
6, 338688, Note_on_c, 4, 51, 55
6, 338944, Note_on_c, 4, 51, 0
6, 338944, Note_on_c, 4, 50, 55
6, 339200, Note_on_c, 4, 50, 0
6, 339200, Note_on_c, 4, 48, 55
6, 339456, Note_on_c, 4, 48, 0
6, 339456, Note_on_c, 4, 47, 55
6, 339712, Note_on_c, 4, 47, 0
6, 339712, Note_on_c, 4, 50, 55
6, 339968, Note_on_c, 4, 50, 0
6, 339968, Note_on_c, 4, 55, 55
6, 340224, Note_on_c, 4, 55, 0
6, 340224, Note_on_c, 4, 53, 55
6, 340480, Note_on_c, 4, 53, 0
6, 340480, Note_on_c, 4, 51, 55
6, 340736, Note_on_c, 4, 51, 0
6, 340736, Note_on_c, 4, 50, 55
6, 340992, Note_on_c, 4, 50, 0
6, 340992, Note_on_c, 4, 48, 55
6, 341376, Note_on_c, 4, 48, 0
6, 341504, Note_on_c, 4, 51, 55
6, 341888, Note_on_c, 4, 51, 0
6, 342016, Note_on_c, 4, 55, 55
6, 342400, Note_on_c, 4, 55, 0
6, 342528, Note_on_c, 4, 60, 55
6, 342784, Note_on_c, 4, 60, 0
6, 342784, Note_on_c, 4, 62, 55
6, 343040, Note_on_c, 4, 62, 0
6, 343040, Note_on_c, 4, 60, 55
6, 343296, Note_on_c, 4, 60, 0
6, 343296, Note_on_c, 4, 58, 55
6, 343552, Note_on_c, 4, 58, 0
6, 343552, Note_on_c, 4, 57, 55
6, 343808, Note_on_c, 4, 57, 0
6, 343808, Note_on_c, 4, 55, 55
6, 344064, Note_on_c, 4, 55, 0
6, 344064, Note_on_c, 4, 54, 55
6, 344320, Note_on_c, 4, 54, 0
6, 344320, Note_on_c, 4, 57, 55
6, 344576, Note_on_c, 4, 57, 0
6, 344576, Note_on_c, 4, 62, 55
6, 344832, Note_on_c, 4, 62, 0
6, 344832, Note_on_c, 4, 60, 55
6, 345088, Note_on_c, 4, 60, 0
6, 345088, Note_on_c, 4, 58, 55
6, 345344, Note_on_c, 4, 58, 0
6, 345344, Note_on_c, 4, 57, 55
6, 345600, Note_on_c, 4, 57, 0
6, 345600, Note_on_c, 4, 55, 55
6, 345856, Note_on_c, 4, 55, 0
6, 345856, Note_on_c, 4, 57, 55
6, 346112, Note_on_c, 4, 57, 0
6, 346112, Note_on_c, 4, 58, 55
6, 346368, Note_on_c, 4, 58, 0
6, 346368, Note_on_c, 4, 57, 55
6, 346624, Note_on_c, 4, 57, 0
6, 346624, Note_on_c, 4, 55, 55
6, 346880, Note_on_c, 4, 55, 0
6, 346880, Note_on_c, 4, 53, 55
6, 347136, Note_on_c, 4, 53, 0
6, 347136, Note_on_c, 4, 52, 55
6, 347392, Note_on_c, 4, 52, 0
6, 347392, Note_on_c, 4, 55, 55
6, 347648, Note_on_c, 4, 55, 0
6, 347648, Note_on_c, 4, 60, 55
6, 347904, Note_on_c, 4, 60, 0
6, 347904, Note_on_c, 4, 58, 55
6, 348160, Note_on_c, 4, 58, 0
6, 348160, Note_on_c, 4, 57, 55
6, 348416, Note_on_c, 4, 57, 0
6, 348416, Note_on_c, 4, 55, 55
6, 348672, Note_on_c, 4, 55, 0
6, 348672, Note_on_c, 4, 53, 55
6, 348928, Note_on_c, 4, 53, 0
6, 348928, Note_on_c, 4, 55, 55
6, 349184, Note_on_c, 4, 55, 0
6, 349184, Note_on_c, 4, 57, 55
6, 349440, Note_on_c, 4, 57, 0
6, 349440, Note_on_c, 4, 55, 55
6, 349696, Note_on_c, 4, 55, 0
6, 349696, Note_on_c, 4, 53, 55
6, 349952, Note_on_c, 4, 53, 0
6, 349952, Note_on_c, 4, 51, 55
6, 350208, Note_on_c, 4, 51, 0
6, 350208, Note_on_c, 4, 50, 55
6, 350464, Note_on_c, 4, 50, 0
6, 350464, Note_on_c, 4, 53, 55
6, 350720, Note_on_c, 4, 53, 0
6, 350720, Note_on_c, 4, 58, 55
6, 350976, Note_on_c, 4, 58, 0
6, 350976, Note_on_c, 4, 57, 55
6, 351232, Note_on_c, 4, 57, 0
6, 351232, Note_on_c, 4, 55, 55
6, 351488, Note_on_c, 4, 55, 0
6, 351488, Note_on_c, 4, 53, 55
6, 351744, Note_on_c, 4, 53, 0
6, 351744, Note_on_c, 4, 52, 55
6, 352000, Note_on_c, 4, 52, 0
6, 352000, Note_on_c, 4, 53, 55
6, 352256, Note_on_c, 4, 53, 0
6, 352256, Note_on_c, 4, 55, 55
6, 352512, Note_on_c, 4, 55, 0
6, 352512, Note_on_c, 4, 53, 55
6, 352768, Note_on_c, 4, 53, 0
6, 352768, Note_on_c, 4, 52, 55
6, 353024, Note_on_c, 4, 52, 0
6, 353024, Note_on_c, 4, 50, 55
6, 353280, Note_on_c, 4, 50, 0
6, 353280, Note_on_c, 4, 49, 55
6, 353792, Note_on_c, 4, 49, 0
6, 353792, Note_on_c, 4, 50, 55
6, 354176, Note_on_c, 4, 50, 0
6, 354304, Note_on_c, 4, 52, 55
6, 354688, Note_on_c, 4, 52, 0
6, 354816, Note_on_c, 4, 45, 55
6, 355840, Note_on_c, 4, 45, 0
6, 355840, Note_on_c, 4, 49, 55
6, 356224, Note_on_c, 4, 49, 0
6, 356352, Note_on_c, 4, 50, 64
6, 357376, Note_on_c, 4, 50, 0
6, 357888, Note_on_c, 4, 45, 64
6, 358912, Note_on_c, 4, 45, 0
6, 359424, Note_on_c, 4, 38, 64
6, 360448, Note_on_c, 4, 38, 0
6, 360960, Note_on_c, 4, 45, 64
6, 361984, Note_on_c, 4, 45, 0
6, 362496, Note_on_c, 4, 50, 64
6, 363520, Note_on_c, 4, 50, 0
6, 364032, Note_on_c, 4, 57, 64
6, 365056, Note_on_c, 4, 57, 0
6, 365568, Note_on_c, 4, 62, 64
6, 366592, Note_on_c, 4, 62, 0
6, 367104, Note_on_c, 4, 57, 64
6, 368128, Note_on_c, 4, 57, 0
6, 368640, Note_on_c, 4, 50, 50
6, 369664, Note_on_c, 4, 50, 0
6, 370176, Note_on_c, 4, 55, 50
6, 371200, Note_on_c, 4, 55, 0
6, 371712, Note_on_c, 4, 48, 50
6, 372736, Note_on_c, 4, 48, 0
6, 373248, Note_on_c, 4, 53, 50
6, 374272, Note_on_c, 4, 53, 0
6, 374784, Note_on_c, 4, 58, 50
6, 375808, Note_on_c, 4, 58, 0
6, 376320, Note_on_c, 4, 52, 50
6, 377344, Note_on_c, 4, 52, 0
6, 377856, Note_on_c, 4, 57, 50
6, 378880, Note_on_c, 4, 57, 0
6, 379392, Note_on_c, 4, 50, 50
6, 380416, Note_on_c, 4, 50, 0
6, 380928, Note_on_c, 4, 55, 50
6, 381952, Note_on_c, 4, 55, 0
6, 382464, Note_on_c, 4, 52, 53
6, 383488, Note_on_c, 4, 52, 0
6, 384000, Note_on_c, 4, 57, 56
6, 385024, Note_on_c, 4, 57, 0
6, 385536, Note_on_c, 4, 53, 59
6, 386560, Note_on_c, 4, 53, 0
6, 387072, Note_on_c, 4, 58, 63
6, 388096, Note_on_c, 4, 58, 0
6, 388608, Note_on_c, 4, 55, 66
6, 389632, Note_on_c, 4, 55, 0
6, 390144, Note_on_c, 4, 57, 69
6, 391168, Note_on_c, 4, 57, 0
6, 391680, Note_on_c, 4, 45, 72
6, 392704, Note_on_c, 4, 45, 0
6, 393216, Note_on_c, 4, 50, 50
6, 394240, Note_on_c, 4, 50, 0
6, 394752, Note_on_c, 4, 38, 50
6, 395776, Note_on_c, 4, 38, 0
6, 396288, Note_on_c, 4, 50, 50
6, 397312, Note_on_c, 4, 50, 0
6, 397824, Note_on_c, 4, 38, 50
6, 398848, Note_on_c, 4, 38, 0
6, 398848, Note_on_c, 4, 50, 50
6, 399232, Note_on_c, 4, 50, 0
6, 399360, Note_on_c, 4, 55, 50
6, 400384, Note_on_c, 4, 55, 0
6, 400384, Note_on_c, 4, 52, 50
6, 400768, Note_on_c, 4, 52, 0
6, 400896, Note_on_c, 4, 57, 50
6, 401920, Note_on_c, 4, 57, 0
6, 401920, Note_on_c, 4, 49, 50
6, 402304, Note_on_c, 4, 49, 0
6, 402432, Note_on_c, 4, 50, 50
6, 402816, Note_on_c, 4, 50, 0
6, 402944, Note_on_c, 4, 41, 50
6, 403328, Note_on_c, 4, 41, 0
6, 403456, Note_on_c, 4, 45, 50
6, 403840, Note_on_c, 4, 45, 0
6, 403968, Note_on_c, 4, 38, 50
6, 404931, Note_on_c, 4, 38, 0
6, 405504, Note_on_c, 4, 58, 64
6, 406528, Note_on_c, 4, 58, 0
6, 407040, Note_on_c, 4, 57, 64
6, 408064, Note_on_c, 4, 57, 0
6, 408576, Note_on_c, 4, 55, 64
6, 409600, Note_on_c, 4, 55, 0
6, 410112, Note_on_c, 4, 53, 64
6, 411136, Note_on_c, 4, 53, 0
6, 411648, Note_on_c, 4, 51, 64
6, 412672, Note_on_c, 4, 51, 0
6, 413184, Note_on_c, 4, 53, 64
6, 414208, Note_on_c, 4, 53, 0
6, 414720, Note_on_c, 4, 46, 64
6, 415744, Note_on_c, 4, 46, 0
6, 415744, Note_on_c, 4, 53, 64
6, 416128, Note_on_c, 4, 53, 0
6, 416256, Note_on_c, 4, 58, 64
6, 416768, Note_on_c, 4, 58, 0
6, 416768, Note_on_c, 4, 57, 64
6, 417152, Note_on_c, 4, 57, 0
6, 417280, Note_on_c, 4, 58, 64
6, 417664, Note_on_c, 4, 58, 0
6, 417792, Note_on_c, 4, 52, 64
6, 418816, Note_on_c, 4, 52, 0
6, 419328, Note_on_c, 4, 48, 64
6, 420352, Note_on_c, 4, 48, 0
6, 420864, Note_on_c, 4, 50, 64
6, 421888, Note_on_c, 4, 50, 0
6, 422400, Note_on_c, 4, 46, 64
6, 423424, Note_on_c, 4, 46, 0
6, 423936, Note_on_c, 4, 48, 64
6, 424960, Note_on_c, 4, 48, 0
6, 424960, Note_on_c, 4, 46, 64
6, 425344, Note_on_c, 4, 46, 0
6, 425472, Note_on_c, 4, 45, 64
6, 426496, Note_on_c, 4, 45, 0
6, 426496, Note_on_c, 4, 43, 64
6, 426880, Note_on_c, 4, 43, 0
6, 427008, Note_on_c, 4, 41, 64
6, 428032, Note_on_c, 4, 41, 0
6, 428032, Note_on_c, 4, 48, 64
6, 428416, Note_on_c, 4, 48, 0
6, 428544, Note_on_c, 4, 53, 64
6, 429056, Note_on_c, 4, 53, 0
6, 429056, Note_on_c, 4, 51, 64
6, 429440, Note_on_c, 4, 51, 0
6, 429568, Note_on_c, 4, 53, 64
6, 429952, Note_on_c, 4, 53, 0
6, 430080, Note_on_c, 4, 50, 64
6, 431104, Note_on_c, 4, 50, 0
6, 431616, Note_on_c, 4, 55, 64
6, 432640, Note_on_c, 4, 55, 0
6, 433152, Note_on_c, 4, 48, 64
6, 434176, Note_on_c, 4, 48, 0
6, 434688, Note_on_c, 4, 53, 64
6, 435712, Note_on_c, 4, 53, 0
6, 436224, Note_on_c, 4, 46, 64
6, 437248, Note_on_c, 4, 46, 0
6, 437248, Note_on_c, 4, 58, 64
6, 437632, Note_on_c, 4, 58, 0
6, 437760, Note_on_c, 4, 46, 64
6, 438784, Note_on_c, 4, 46, 0
6, 438784, Note_on_c, 4, 58, 64
6, 439168, Note_on_c, 4, 58, 0
6, 439296, Note_on_c, 4, 46, 64
6, 440320, Note_on_c, 4, 46, 0
6, 440320, Note_on_c, 4, 58, 64
6, 440704, Note_on_c, 4, 58, 0
6, 440832, Note_on_c, 4, 46, 64
6, 441856, Note_on_c, 4, 46, 0
6, 441856, Note_on_c, 4, 58, 64
6, 442240, Note_on_c, 4, 58, 0
6, 442368, Note_on_c, 4, 46, 64
6, 443392, Note_on_c, 4, 46, 0
6, 443904, Note_on_c, 4, 58, 64
6, 444928, Note_on_c, 4, 58, 0
6, 445440, Note_on_c, 4, 46, 64
6, 446464, Note_on_c, 4, 46, 0
6, 446976, Note_on_c, 4, 58, 64
6, 448000, Note_on_c, 4, 58, 0
6, 448000, Note_on_c, 4, 46, 64
6, 448384, Note_on_c, 4, 46, 0
6, 448512, Note_on_c, 4, 51, 64
6, 449536, Note_on_c, 4, 51, 0
6, 449536, Note_on_c, 4, 48, 64
6, 449920, Note_on_c, 4, 48, 0
6, 450048, Note_on_c, 4, 53, 64
6, 451072, Note_on_c, 4, 53, 0
6, 451072, Note_on_c, 4, 45, 64
6, 451456, Note_on_c, 4, 45, 0
6, 451584, Note_on_c, 4, 46, 64
6, 451968, Note_on_c, 4, 46, 0
6, 452096, Note_on_c, 4, 50, 64
6, 452480, Note_on_c, 4, 50, 0
6, 452608, Note_on_c, 4, 53, 64
6, 452992, Note_on_c, 4, 53, 0
6, 453120, Note_on_c, 4, 58, 64
6, 453504, Note_on_c, 4, 58, 0
6, 453632, Note_on_c, 4, 50, 64
6, 454016, Note_on_c, 4, 50, 0
6, 454144, Note_on_c, 4, 53, 64
6, 454528, Note_on_c, 4, 53, 0
6, 454656, Note_on_c, 4, 46, 64
6, 455168, Note_on_c, 4, 46, 0
6, 455168, Note_on_c, 4, 50, 64
6, 455552, Note_on_c, 4, 50, 0
6, 455680, Note_on_c, 4, 53, 64
6, 456064, Note_on_c, 4, 53, 0
6, 456192, Note_on_c, 4, 45, 64
6, 456704, Note_on_c, 4, 45, 0
6, 456704, Note_on_c, 4, 50, 64
6, 457088, Note_on_c, 4, 50, 0
6, 457216, Note_on_c, 4, 53, 64
6, 457600, Note_on_c, 4, 53, 0
6, 457728, Note_on_c, 4, 43, 64
6, 458240, Note_on_c, 4, 43, 0
6, 458240, Note_on_c, 4, 46, 64
6, 458624, Note_on_c, 4, 46, 0
6, 458752, Note_on_c, 4, 50, 64
6, 459136, Note_on_c, 4, 50, 0
6, 459264, Note_on_c, 4, 41, 64
6, 459776, Note_on_c, 4, 41, 0
6, 459776, Note_on_c, 4, 46, 64
6, 460160, Note_on_c, 4, 46, 0
6, 460288, Note_on_c, 4, 50, 64
6, 460672, Note_on_c, 4, 50, 0
6, 460800, Note_on_c, 4, 39, 64
6, 461312, Note_on_c, 4, 39, 0
6, 461312, Note_on_c, 4, 43, 64
6, 461696, Note_on_c, 4, 43, 0
6, 461824, Note_on_c, 4, 48, 64
6, 462208, Note_on_c, 4, 48, 0
6, 462336, Note_on_c, 4, 45, 64
6, 462848, Note_on_c, 4, 45, 0
6, 462848, Note_on_c, 4, 48, 64
6, 463232, Note_on_c, 4, 48, 0
6, 463360, Note_on_c, 4, 41, 64
6, 463744, Note_on_c, 4, 41, 0
6, 463872, Note_on_c, 4, 46, 64
6, 464384, Note_on_c, 4, 46, 0
6, 464384, Note_on_c, 4, 50, 64
6, 464768, Note_on_c, 4, 50, 0
6, 464896, Note_on_c, 4, 53, 64
6, 465280, Note_on_c, 4, 53, 0
6, 465408, Note_on_c, 4, 58, 64
6, 465920, Note_on_c, 4, 58, 0
6, 465920, Note_on_c, 4, 57, 64
6, 466304, Note_on_c, 4, 57, 0
6, 466432, Note_on_c, 4, 58, 64
6, 466816, Note_on_c, 4, 58, 0
6, 466944, Note_on_c, 4, 52, 64
6, 467328, Note_on_c, 4, 52, 0
6, 467456, Note_on_c, 4, 55, 64
6, 467840, Note_on_c, 4, 55, 0
6, 467968, Note_on_c, 4, 52, 64
6, 468352, Note_on_c, 4, 52, 0
6, 468480, Note_on_c, 4, 48, 64
6, 468864, Note_on_c, 4, 48, 0
6, 468992, Note_on_c, 4, 57, 64
6, 469376, Note_on_c, 4, 57, 0
6, 469504, Note_on_c, 4, 48, 64
6, 469888, Note_on_c, 4, 48, 0
6, 470016, Note_on_c, 4, 50, 64
6, 470400, Note_on_c, 4, 50, 0
6, 470528, Note_on_c, 4, 53, 64
6, 470912, Note_on_c, 4, 53, 0
6, 471040, Note_on_c, 4, 50, 64
6, 471424, Note_on_c, 4, 50, 0
6, 471552, Note_on_c, 4, 46, 64
6, 471936, Note_on_c, 4, 46, 0
6, 472064, Note_on_c, 4, 55, 64
6, 472448, Note_on_c, 4, 55, 0
6, 472576, Note_on_c, 4, 46, 64
6, 472960, Note_on_c, 4, 46, 0
6, 473088, Note_on_c, 4, 48, 64
6, 474112, Note_on_c, 4, 48, 0
6, 474112, Note_on_c, 4, 46, 64
6, 474624, Note_on_c, 4, 46, 0
6, 474624, Note_on_c, 4, 45, 64
6, 475648, Note_on_c, 4, 45, 0
6, 475648, Note_on_c, 4, 43, 64
6, 476160, Note_on_c, 4, 43, 0
6, 476160, Note_on_c, 4, 41, 64
6, 477184, Note_on_c, 4, 41, 0
6, 479232, Note_on_c, 4, 53, 64
6, 480256, Note_on_c, 4, 53, 0
6, 480768, Note_on_c, 4, 52, 64
6, 481792, Note_on_c, 4, 52, 0
6, 482304, Note_on_c, 4, 50, 64
6, 483328, Note_on_c, 4, 50, 0
6, 483840, Note_on_c, 4, 48, 64
6, 484864, Note_on_c, 4, 48, 0
6, 485376, Note_on_c, 4, 46, 64
6, 486400, Note_on_c, 4, 46, 0
6, 486912, Note_on_c, 4, 48, 64
6, 487936, Note_on_c, 4, 48, 0
6, 488448, Note_on_c, 4, 41, 64
6, 490368, Note_on_c, 4, 41, 0
6, 490496, Note_on_c, 4, 45, 64
6, 490880, Note_on_c, 4, 45, 0
6, 491008, Note_on_c, 4, 48, 64
6, 491392, Note_on_c, 4, 48, 0
6, 491520, Note_on_c, 4, 53, 64
6, 492032, Note_on_c, 4, 53, 0
6, 492032, Note_on_c, 4, 57, 64
6, 492416, Note_on_c, 4, 57, 0
6, 492544, Note_on_c, 4, 60, 64
6, 492928, Note_on_c, 4, 60, 0
6, 493056, Note_on_c, 4, 52, 64
6, 493568, Note_on_c, 4, 52, 0
6, 493568, Note_on_c, 4, 57, 64
6, 493952, Note_on_c, 4, 57, 0
6, 494080, Note_on_c, 4, 60, 64
6, 494464, Note_on_c, 4, 60, 0
6, 494592, Note_on_c, 4, 50, 64
6, 495104, Note_on_c, 4, 50, 0
6, 495104, Note_on_c, 4, 53, 64
6, 495488, Note_on_c, 4, 53, 0
6, 495616, Note_on_c, 4, 57, 64
6, 496000, Note_on_c, 4, 57, 0
6, 496128, Note_on_c, 4, 48, 64
6, 496640, Note_on_c, 4, 48, 0
6, 496640, Note_on_c, 4, 53, 64
6, 497024, Note_on_c, 4, 53, 0
6, 497152, Note_on_c, 4, 57, 64
6, 497536, Note_on_c, 4, 57, 0
6, 497664, Note_on_c, 4, 46, 64
6, 498176, Note_on_c, 4, 46, 0
6, 498176, Note_on_c, 4, 50, 64
6, 498560, Note_on_c, 4, 50, 0
6, 498688, Note_on_c, 4, 55, 64
6, 499072, Note_on_c, 4, 55, 0
6, 499200, Note_on_c, 4, 52, 64
6, 499712, Note_on_c, 4, 52, 0
6, 499712, Note_on_c, 4, 55, 64
6, 500096, Note_on_c, 4, 55, 0
6, 500224, Note_on_c, 4, 48, 64
6, 500608, Note_on_c, 4, 48, 0
6, 500736, Note_on_c, 4, 41, 64
6, 501248, Note_on_c, 4, 41, 0
6, 501248, Note_on_c, 4, 45, 64
6, 501632, Note_on_c, 4, 45, 0
6, 501760, Note_on_c, 4, 48, 64
6, 502144, Note_on_c, 4, 48, 0
6, 502272, Note_on_c, 4, 53, 64
6, 502784, Note_on_c, 4, 53, 0
6, 502784, Note_on_c, 4, 52, 64
6, 503168, Note_on_c, 4, 52, 0
6, 503296, Note_on_c, 4, 53, 64
6, 503680, Note_on_c, 4, 53, 0
6, 503808, Note_on_c, 4, 47, 64
6, 504192, Note_on_c, 4, 47, 0
6, 504320, Note_on_c, 4, 50, 64
6, 504704, Note_on_c, 4, 50, 0
6, 504832, Note_on_c, 4, 47, 64
6, 505216, Note_on_c, 4, 47, 0
6, 505344, Note_on_c, 4, 43, 64
6, 505728, Note_on_c, 4, 43, 0
6, 505856, Note_on_c, 4, 52, 64
6, 506240, Note_on_c, 4, 52, 0
6, 506368, Note_on_c, 4, 43, 64
6, 506752, Note_on_c, 4, 43, 0
6, 506880, Note_on_c, 4, 45, 64
6, 507264, Note_on_c, 4, 45, 0
6, 507392, Note_on_c, 4, 48, 64
6, 507776, Note_on_c, 4, 48, 0
6, 507904, Note_on_c, 4, 45, 64
6, 508288, Note_on_c, 4, 45, 0
6, 508416, Note_on_c, 4, 41, 64
6, 508800, Note_on_c, 4, 41, 0
6, 508928, Note_on_c, 4, 50, 64
6, 509312, Note_on_c, 4, 50, 0
6, 509440, Note_on_c, 4, 41, 64
6, 509824, Note_on_c, 4, 41, 0
6, 509952, Note_on_c, 4, 43, 64
6, 510976, Note_on_c, 4, 43, 0
6, 510976, Note_on_c, 4, 41, 64
6, 511488, Note_on_c, 4, 41, 0
6, 511488, Note_on_c, 4, 40, 64
6, 512512, Note_on_c, 4, 40, 0
6, 512512, Note_on_c, 4, 38, 64
6, 513024, Note_on_c, 4, 38, 0
6, 513024, Note_on_c, 4, 36, 64
6, 514048, Note_on_c, 4, 36, 0
6, 516096, Note_on_c, 4, 45, 64
6, 517120, Note_on_c, 4, 45, 0
6, 517632, Note_on_c, 4, 50, 64
6, 518656, Note_on_c, 4, 50, 0
6, 519168, Note_on_c, 4, 43, 64
6, 520192, Note_on_c, 4, 43, 0
6, 520704, Note_on_c, 4, 48, 64
6, 521728, Note_on_c, 4, 48, 0
6, 522240, Note_on_c, 4, 41, 64
6, 523264, Note_on_c, 4, 41, 0
6, 523264, Note_on_c, 4, 53, 64
6, 523648, Note_on_c, 4, 53, 0
6, 523776, Note_on_c, 4, 41, 64
6, 524800, Note_on_c, 4, 41, 0
6, 524800, Note_on_c, 4, 53, 64
6, 525184, Note_on_c, 4, 53, 0
6, 525312, Note_on_c, 4, 41, 64
6, 526336, Note_on_c, 4, 41, 0
6, 526336, Note_on_c, 4, 53, 64
6, 526720, Note_on_c, 4, 53, 0
6, 526848, Note_on_c, 4, 41, 64
6, 527872, Note_on_c, 4, 41, 0
6, 527872, Note_on_c, 4, 53, 64
6, 528256, Note_on_c, 4, 53, 0
6, 528384, Note_on_c, 4, 41, 64
6, 529408, Note_on_c, 4, 41, 0
6, 529920, Note_on_c, 4, 53, 64
6, 530944, Note_on_c, 4, 53, 0
6, 531456, Note_on_c, 4, 41, 64
6, 532480, Note_on_c, 4, 41, 0
6, 532992, Note_on_c, 4, 53, 64
6, 534016, Note_on_c, 4, 53, 0
6, 534016, Note_on_c, 4, 41, 64
6, 534400, Note_on_c, 4, 41, 0
6, 534528, Note_on_c, 4, 46, 64
6, 535552, Note_on_c, 4, 46, 0
6, 535552, Note_on_c, 4, 43, 64
6, 535936, Note_on_c, 4, 43, 0
6, 536064, Note_on_c, 4, 48, 64
6, 537088, Note_on_c, 4, 48, 0
6, 537088, Note_on_c, 4, 52, 64
6, 537472, Note_on_c, 4, 52, 0
6, 537600, Note_on_c, 4, 53, 64
6, 537984, Note_on_c, 4, 53, 0
6, 538112, Note_on_c, 4, 57, 64
6, 538496, Note_on_c, 4, 57, 0
6, 538624, Note_on_c, 4, 60, 64
6, 539008, Note_on_c, 4, 60, 0
6, 539136, Note_on_c, 4, 53, 55
6, 539392, Note_on_c, 4, 53, 0
6, 539392, Note_on_c, 4, 55, 55
6, 539648, Note_on_c, 4, 55, 0
6, 539648, Note_on_c, 4, 57, 55
6, 539904, Note_on_c, 4, 57, 0
6, 539904, Note_on_c, 4, 55, 55
6, 540160, Note_on_c, 4, 55, 0
6, 540160, Note_on_c, 4, 53, 55
6, 540416, Note_on_c, 4, 53, 0
6, 540416, Note_on_c, 4, 51, 55
6, 540672, Note_on_c, 4, 51, 0
6, 540672, Note_on_c, 4, 50, 55
6, 540928, Note_on_c, 4, 50, 0
6, 540928, Note_on_c, 4, 51, 55
6, 541184, Note_on_c, 4, 51, 0
6, 541184, Note_on_c, 4, 53, 55
6, 541440, Note_on_c, 4, 53, 0
6, 541440, Note_on_c, 4, 51, 55
6, 541696, Note_on_c, 4, 51, 0
6, 541696, Note_on_c, 4, 50, 55
6, 541952, Note_on_c, 4, 50, 0
6, 541952, Note_on_c, 4, 48, 55
6, 542208, Note_on_c, 4, 48, 0
6, 542208, Note_on_c, 4, 47, 55
6, 542464, Note_on_c, 4, 47, 0
6, 542464, Note_on_c, 4, 50, 55
6, 542720, Note_on_c, 4, 50, 0
6, 542720, Note_on_c, 4, 55, 55
6, 542976, Note_on_c, 4, 55, 0
6, 542976, Note_on_c, 4, 53, 55
6, 543232, Note_on_c, 4, 53, 0
6, 543232, Note_on_c, 4, 51, 55
6, 543488, Note_on_c, 4, 51, 0
6, 543488, Note_on_c, 4, 50, 55
6, 543744, Note_on_c, 4, 50, 0
6, 543744, Note_on_c, 4, 48, 55
6, 544128, Note_on_c, 4, 48, 0
6, 544256, Note_on_c, 4, 51, 64
6, 544640, Note_on_c, 4, 51, 0
6, 544768, Note_on_c, 4, 55, 64
6, 545152, Note_on_c, 4, 55, 0
6, 545280, Note_on_c, 4, 60, 64
6, 545664, Note_on_c, 4, 60, 0
6, 545792, Note_on_c, 4, 51, 64
6, 546176, Note_on_c, 4, 51, 0
6, 546304, Note_on_c, 4, 55, 64
6, 546688, Note_on_c, 4, 55, 0
6, 546816, Note_on_c, 4, 48, 55
6, 547072, Note_on_c, 4, 48, 0
6, 547072, Note_on_c, 4, 50, 55
6, 547328, Note_on_c, 4, 50, 0
6, 547328, Note_on_c, 4, 51, 55
6, 547584, Note_on_c, 4, 51, 0
6, 547584, Note_on_c, 4, 50, 55
6, 547840, Note_on_c, 4, 50, 0
6, 547840, Note_on_c, 4, 48, 55
6, 548096, Note_on_c, 4, 48, 0
6, 548096, Note_on_c, 4, 46, 55
6, 548352, Note_on_c, 4, 46, 0
6, 548352, Note_on_c, 4, 45, 55
6, 548608, Note_on_c, 4, 45, 0
6, 548608, Note_on_c, 4, 48, 55
6, 548864, Note_on_c, 4, 48, 0
6, 548864, Note_on_c, 4, 53, 55
6, 549120, Note_on_c, 4, 53, 0
6, 549120, Note_on_c, 4, 51, 55
6, 549376, Note_on_c, 4, 51, 0
6, 549376, Note_on_c, 4, 50, 55
6, 549632, Note_on_c, 4, 50, 0
6, 549632, Note_on_c, 4, 48, 55
6, 549888, Note_on_c, 4, 48, 0
6, 549888, Note_on_c, 4, 46, 64
6, 550272, Note_on_c, 4, 46, 0
6, 550400, Note_on_c, 4, 50, 64
6, 550784, Note_on_c, 4, 50, 0
6, 550912, Note_on_c, 4, 53, 64
6, 551296, Note_on_c, 4, 53, 0
6, 551424, Note_on_c, 4, 58, 50
6, 551680, Note_on_c, 4, 58, 0
6, 551680, Note_on_c, 4, 60, 50
6, 551936, Note_on_c, 4, 60, 0
6, 551936, Note_on_c, 4, 58, 51
6, 552192, Note_on_c, 4, 58, 0
6, 552192, Note_on_c, 4, 57, 51
6, 552448, Note_on_c, 4, 57, 0
6, 552448, Note_on_c, 4, 55, 51
6, 552704, Note_on_c, 4, 55, 0
6, 552704, Note_on_c, 4, 53, 51
6, 552960, Note_on_c, 4, 53, 0
6, 552960, Note_on_c, 4, 51, 52
6, 553216, Note_on_c, 4, 51, 0
6, 553216, Note_on_c, 4, 53, 52
6, 553472, Note_on_c, 4, 53, 0
6, 553472, Note_on_c, 4, 55, 52
6, 553728, Note_on_c, 4, 55, 0
6, 553728, Note_on_c, 4, 53, 52
6, 553984, Note_on_c, 4, 53, 0
6, 553984, Note_on_c, 4, 51, 53
6, 554240, Note_on_c, 4, 51, 0
6, 554240, Note_on_c, 4, 50, 53
6, 554496, Note_on_c, 4, 50, 0
6, 554496, Note_on_c, 4, 48, 53
6, 554752, Note_on_c, 4, 48, 0
6, 554752, Note_on_c, 4, 51, 53
6, 555008, Note_on_c, 4, 51, 0
6, 555008, Note_on_c, 4, 57, 54
6, 555264, Note_on_c, 4, 57, 0
6, 555264, Note_on_c, 4, 55, 54
6, 555520, Note_on_c, 4, 55, 0
6, 555520, Note_on_c, 4, 53, 54
6, 555776, Note_on_c, 4, 53, 0
6, 555776, Note_on_c, 4, 51, 54
6, 556032, Note_on_c, 4, 51, 0
6, 556032, Note_on_c, 4, 50, 55
6, 556288, Note_on_c, 4, 50, 0
6, 556288, Note_on_c, 4, 51, 55
6, 556544, Note_on_c, 4, 51, 0
6, 556544, Note_on_c, 4, 53, 55
6, 556800, Note_on_c, 4, 53, 0
6, 556800, Note_on_c, 4, 51, 56
6, 557056, Note_on_c, 4, 51, 0
6, 557056, Note_on_c, 4, 50, 56
6, 557312, Note_on_c, 4, 50, 0
6, 557312, Note_on_c, 4, 48, 56
6, 557568, Note_on_c, 4, 48, 0
6, 557568, Note_on_c, 4, 46, 56
6, 557824, Note_on_c, 4, 46, 0
6, 557824, Note_on_c, 4, 50, 57
6, 558080, Note_on_c, 4, 50, 0
6, 558080, Note_on_c, 4, 55, 57
6, 558336, Note_on_c, 4, 55, 0
6, 558336, Note_on_c, 4, 53, 57
6, 558592, Note_on_c, 4, 53, 0
6, 558592, Note_on_c, 4, 51, 57
6, 558848, Note_on_c, 4, 51, 0
6, 558848, Note_on_c, 4, 50, 58
6, 559104, Note_on_c, 4, 50, 0
6, 559104, Note_on_c, 4, 48, 58
6, 559360, Note_on_c, 4, 48, 0
6, 559360, Note_on_c, 4, 50, 58
6, 559616, Note_on_c, 4, 50, 0
6, 559616, Note_on_c, 4, 51, 58
6, 559872, Note_on_c, 4, 51, 0
6, 559872, Note_on_c, 4, 50, 59
6, 560128, Note_on_c, 4, 50, 0
6, 560128, Note_on_c, 4, 48, 59
6, 560384, Note_on_c, 4, 48, 0
6, 560384, Note_on_c, 4, 46, 59
6, 560640, Note_on_c, 4, 46, 0
6, 560640, Note_on_c, 4, 45, 60
6, 560896, Note_on_c, 4, 45, 0
6, 560896, Note_on_c, 4, 48, 60
6, 561152, Note_on_c, 4, 48, 0
6, 561152, Note_on_c, 4, 53, 60
6, 561408, Note_on_c, 4, 53, 0
6, 561408, Note_on_c, 4, 51, 60
6, 561664, Note_on_c, 4, 51, 0
6, 561664, Note_on_c, 4, 50, 61
6, 561920, Note_on_c, 4, 50, 0
6, 561920, Note_on_c, 4, 48, 61
6, 562176, Note_on_c, 4, 48, 0
6, 562176, Note_on_c, 4, 46, 61
6, 562432, Note_on_c, 4, 46, 0
6, 562432, Note_on_c, 4, 45, 61
6, 562688, Note_on_c, 4, 45, 0
6, 562688, Note_on_c, 4, 46, 62
6, 562944, Note_on_c, 4, 46, 0
6, 562944, Note_on_c, 4, 48, 62
6, 563200, Note_on_c, 4, 48, 0
6, 563200, Note_on_c, 4, 50, 62
6, 563456, Note_on_c, 4, 50, 0
6, 563456, Note_on_c, 4, 51, 62
6, 563712, Note_on_c, 4, 51, 0
6, 563712, Note_on_c, 4, 53, 63
6, 563968, Note_on_c, 4, 53, 0
6, 563968, Note_on_c, 4, 52, 63
6, 564224, Note_on_c, 4, 52, 0
6, 564224, Note_on_c, 4, 53, 63
6, 564480, Note_on_c, 4, 53, 0
6, 564480, Note_on_c, 4, 48, 63
6, 564736, Note_on_c, 4, 48, 0
6, 564736, Note_on_c, 4, 45, 64
6, 564992, Note_on_c, 4, 45, 0
6, 564992, Note_on_c, 4, 48, 64
6, 565248, Note_on_c, 4, 48, 0
6, 565248, Note_on_c, 4, 41, 50
6, 566272, Note_on_c, 4, 41, 0
6, 566784, Note_on_c, 4, 53, 50
6, 567808, Note_on_c, 4, 53, 0
6, 568320, Note_on_c, 4, 41, 50
6, 569344, Note_on_c, 4, 41, 0
6, 569856, Note_on_c, 4, 53, 50
6, 570112, Note_on_c, 4, 53, 0
6, 570112, Note_on_c, 4, 48, 50
6, 570368, Note_on_c, 4, 48, 0
6, 570368, Note_on_c, 4, 50, 50
6, 570624, Note_on_c, 4, 50, 0
6, 570624, Note_on_c, 4, 51, 50
6, 570880, Note_on_c, 4, 51, 0
6, 570880, Note_on_c, 4, 53, 50
6, 571136, Note_on_c, 4, 53, 0
6, 571136, Note_on_c, 4, 55, 50
6, 571392, Note_on_c, 4, 55, 0
6, 571392, Note_on_c, 4, 57, 50
6, 571648, Note_on_c, 4, 57, 0
6, 571648, Note_on_c, 4, 58, 50
6, 571904, Note_on_c, 4, 58, 0
6, 571904, Note_on_c, 4, 60, 50
6, 572160, Note_on_c, 4, 60, 0
6, 572160, Note_on_c, 4, 58, 50
6, 572416, Note_on_c, 4, 58, 0
6, 572416, Note_on_c, 4, 57, 50
6, 572672, Note_on_c, 4, 57, 0
6, 572672, Note_on_c, 4, 55, 50
6, 572928, Note_on_c, 4, 55, 0
6, 572928, Note_on_c, 4, 53, 50
6, 573184, Note_on_c, 4, 53, 0
6, 573184, Note_on_c, 4, 55, 50
6, 573440, Note_on_c, 4, 55, 0
6, 573440, Note_on_c, 4, 57, 50
6, 573696, Note_on_c, 4, 57, 0
6, 573696, Note_on_c, 4, 55, 50
6, 573952, Note_on_c, 4, 55, 0
6, 573952, Note_on_c, 4, 53, 50
6, 574208, Note_on_c, 4, 53, 0
6, 574208, Note_on_c, 4, 51, 50
6, 574464, Note_on_c, 4, 51, 0
6, 574464, Note_on_c, 4, 50, 50
6, 574720, Note_on_c, 4, 50, 0
6, 574720, Note_on_c, 4, 51, 50
6, 574976, Note_on_c, 4, 51, 0
6, 574976, Note_on_c, 4, 53, 50
6, 575232, Note_on_c, 4, 53, 0
6, 575232, Note_on_c, 4, 51, 50
6, 575488, Note_on_c, 4, 51, 0
6, 575488, Note_on_c, 4, 50, 50
6, 575744, Note_on_c, 4, 50, 0
6, 575744, Note_on_c, 4, 48, 50
6, 576000, Note_on_c, 4, 48, 0
6, 576000, Note_on_c, 4, 46, 50
6, 576256, Note_on_c, 4, 46, 0
6, 576256, Note_on_c, 4, 53, 50
6, 576512, Note_on_c, 4, 53, 0
6, 576512, Note_on_c, 4, 55, 50
6, 576768, Note_on_c, 4, 55, 0
6, 576768, Note_on_c, 4, 57, 50
6, 577024, Note_on_c, 4, 57, 0
6, 577024, Note_on_c, 4, 58, 50
6, 577280, Note_on_c, 4, 58, 0
6, 577280, Note_on_c, 4, 60, 50
6, 577536, Note_on_c, 4, 60, 0
6, 577536, Note_on_c, 4, 62, 50
6, 577792, Note_on_c, 4, 62, 0
6, 577792, Note_on_c, 4, 63, 50
6, 578048, Note_on_c, 4, 63, 0
6, 578048, Note_on_c, 4, 65, 50
6, 578304, Note_on_c, 4, 65, 0
6, 578304, Note_on_c, 4, 63, 50
6, 578560, Note_on_c, 4, 63, 0
6, 578560, Note_on_c, 4, 62, 50
6, 578816, Note_on_c, 4, 62, 0
6, 578816, Note_on_c, 4, 60, 50
6, 579072, Note_on_c, 4, 60, 0
6, 579072, Note_on_c, 4, 58, 50
6, 579328, Note_on_c, 4, 58, 0
6, 579328, Note_on_c, 4, 60, 50
6, 579584, Note_on_c, 4, 60, 0
6, 579584, Note_on_c, 4, 62, 50
6, 579840, Note_on_c, 4, 62, 0
6, 579840, Note_on_c, 4, 60, 50
6, 580096, Note_on_c, 4, 60, 0
6, 580096, Note_on_c, 4, 58, 50
6, 580352, Note_on_c, 4, 58, 0
6, 580352, Note_on_c, 4, 56, 50
6, 580608, Note_on_c, 4, 56, 0
6, 580608, Note_on_c, 4, 55, 50
6, 580864, Note_on_c, 4, 55, 0
6, 580864, Note_on_c, 4, 56, 50
6, 581120, Note_on_c, 4, 56, 0
6, 581120, Note_on_c, 4, 58, 50
6, 581376, Note_on_c, 4, 58, 0
6, 581376, Note_on_c, 4, 56, 50
6, 581632, Note_on_c, 4, 56, 0
6, 581632, Note_on_c, 4, 55, 50
6, 581888, Note_on_c, 4, 55, 0
6, 581888, Note_on_c, 4, 53, 50
6, 582144, Note_on_c, 4, 53, 0
6, 582144, Note_on_c, 4, 51, 50
6, 582400, Note_on_c, 4, 51, 0
6, 582400, Note_on_c, 4, 52, 50
6, 582656, Note_on_c, 4, 52, 0
6, 582656, Note_on_c, 4, 55, 50
6, 582912, Note_on_c, 4, 55, 0
6, 582912, Note_on_c, 4, 52, 50
6, 583168, Note_on_c, 4, 52, 0
6, 583168, Note_on_c, 4, 51, 50
6, 583424, Note_on_c, 4, 51, 0
6, 583424, Note_on_c, 4, 50, 50
6, 583680, Note_on_c, 4, 50, 0
6, 583680, Note_on_c, 4, 48, 50
6, 583936, Note_on_c, 4, 48, 0
6, 583936, Note_on_c, 4, 50, 50
6, 584192, Note_on_c, 4, 50, 0
6, 584192, Note_on_c, 4, 52, 50
6, 584448, Note_on_c, 4, 52, 0
6, 584448, Note_on_c, 4, 50, 50
6, 584704, Note_on_c, 4, 50, 0
6, 584704, Note_on_c, 4, 52, 50
6, 584960, Note_on_c, 4, 52, 0
6, 584960, Note_on_c, 4, 48, 50
6, 585216, Note_on_c, 4, 48, 0
6, 585216, Note_on_c, 4, 53, 50
6, 585472, Note_on_c, 4, 53, 0
6, 585472, Note_on_c, 4, 55, 50
6, 585728, Note_on_c, 4, 55, 0
6, 585728, Note_on_c, 4, 57, 50
6, 585984, Note_on_c, 4, 57, 0
6, 585984, Note_on_c, 4, 55, 50
6, 586240, Note_on_c, 4, 55, 0
6, 586240, Note_on_c, 4, 53, 50
6, 586496, Note_on_c, 4, 53, 0
6, 586496, Note_on_c, 4, 51, 50
6, 586752, Note_on_c, 4, 51, 0
6, 586752, Note_on_c, 4, 50, 50
6, 587008, Note_on_c, 4, 50, 0
6, 587008, Note_on_c, 4, 52, 50
6, 587264, Note_on_c, 4, 52, 0
6, 587264, Note_on_c, 4, 54, 50
6, 587520, Note_on_c, 4, 54, 0
6, 587520, Note_on_c, 4, 52, 50
6, 587776, Note_on_c, 4, 52, 0
6, 587776, Note_on_c, 4, 54, 50
6, 588032, Note_on_c, 4, 54, 0
6, 588032, Note_on_c, 4, 50, 50
6, 588288, Note_on_c, 4, 50, 0
6, 588288, Note_on_c, 4, 55, 50
6, 588544, Note_on_c, 4, 55, 0
6, 588544, Note_on_c, 4, 54, 50
6, 588800, Note_on_c, 4, 54, 0
6, 588800, Note_on_c, 4, 55, 50
6, 589056, Note_on_c, 4, 55, 0
6, 589056, Note_on_c, 4, 57, 50
6, 589312, Note_on_c, 4, 57, 0
6, 589312, Note_on_c, 4, 58, 50
6, 589568, Note_on_c, 4, 58, 0
6, 589568, Note_on_c, 4, 55, 50
6, 589824, Note_on_c, 4, 55, 0
6, 589824, Note_on_c, 4, 57, 50
6, 590080, Note_on_c, 4, 57, 0
6, 590080, Note_on_c, 4, 55, 50
6, 590336, Note_on_c, 4, 55, 0
6, 590336, Note_on_c, 4, 57, 50
6, 590592, Note_on_c, 4, 57, 0
6, 590592, Note_on_c, 4, 58, 50
6, 590848, Note_on_c, 4, 58, 0
6, 590848, Note_on_c, 4, 60, 50
6, 591104, Note_on_c, 4, 60, 0
6, 591104, Note_on_c, 4, 57, 50
6, 591360, Note_on_c, 4, 57, 0
6, 591360, Note_on_c, 4, 58, 50
6, 591616, Note_on_c, 4, 58, 0
6, 591616, Note_on_c, 4, 57, 50
6, 591872, Note_on_c, 4, 57, 0
6, 591872, Note_on_c, 4, 58, 50
6, 592128, Note_on_c, 4, 58, 0
6, 592128, Note_on_c, 4, 60, 50
6, 592384, Note_on_c, 4, 60, 0
6, 592384, Note_on_c, 4, 62, 50
6, 592640, Note_on_c, 4, 62, 0
6, 592640, Note_on_c, 4, 58, 50
6, 592896, Note_on_c, 4, 58, 0
6, 592896, Note_on_c, 4, 51, 50
6, 593152, Note_on_c, 4, 51, 0
6, 593152, Note_on_c, 4, 50, 50
6, 593408, Note_on_c, 4, 50, 0
6, 593408, Note_on_c, 4, 51, 50
6, 593664, Note_on_c, 4, 51, 0
6, 593664, Note_on_c, 4, 53, 50
6, 593920, Note_on_c, 4, 53, 0
6, 593920, Note_on_c, 4, 55, 50
6, 594176, Note_on_c, 4, 55, 0
6, 594176, Note_on_c, 4, 51, 50
6, 594432, Note_on_c, 4, 51, 0
6, 594432, Note_on_c, 4, 53, 50
6, 594816, Note_on_c, 4, 53, 0
6, 594944, Note_on_c, 4, 41, 50
6, 595328, Note_on_c, 4, 41, 0
6, 595456, Note_on_c, 4, 53, 50
6, 595840, Note_on_c, 4, 53, 0
6, 595968, Note_on_c, 4, 46, 50
6, 596480, Note_on_c, 4, 46, 0
6, 596480, Note_on_c, 4, 50, 50
6, 596864, Note_on_c, 4, 50, 0
6, 596992, Note_on_c, 4, 53, 50
6, 597376, Note_on_c, 4, 53, 0
6, 597504, Note_on_c, 4, 45, 50
6, 598016, Note_on_c, 4, 45, 0
6, 598016, Note_on_c, 4, 50, 50
6, 598400, Note_on_c, 4, 50, 0
6, 598528, Note_on_c, 4, 53, 50
6, 598912, Note_on_c, 4, 53, 0
6, 599040, Note_on_c, 4, 43, 50
6, 599552, Note_on_c, 4, 43, 0
6, 599552, Note_on_c, 4, 46, 50
6, 599936, Note_on_c, 4, 46, 0
6, 600064, Note_on_c, 4, 50, 50
6, 600448, Note_on_c, 4, 50, 0
6, 600576, Note_on_c, 4, 41, 50
6, 601088, Note_on_c, 4, 41, 0
6, 601088, Note_on_c, 4, 46, 50
6, 601472, Note_on_c, 4, 46, 0
6, 601600, Note_on_c, 4, 50, 50
6, 601984, Note_on_c, 4, 50, 0
6, 602112, Note_on_c, 4, 39, 50
6, 602624, Note_on_c, 4, 39, 0
6, 602624, Note_on_c, 4, 43, 50
6, 603008, Note_on_c, 4, 43, 0
6, 603136, Note_on_c, 4, 48, 50
6, 603520, Note_on_c, 4, 48, 0
6, 603648, Note_on_c, 4, 45, 50
6, 604160, Note_on_c, 4, 45, 0
6, 604160, Note_on_c, 4, 48, 50
6, 604544, Note_on_c, 4, 48, 0
6, 604672, Note_on_c, 4, 41, 50
6, 605056, Note_on_c, 4, 41, 0
6, 605184, Note_on_c, 4, 46, 50
6, 605696, Note_on_c, 4, 46, 0
6, 605696, Note_on_c, 4, 50, 50
6, 606080, Note_on_c, 4, 50, 0
6, 606208, Note_on_c, 4, 53, 50
6, 606592, Note_on_c, 4, 53, 0
6, 606720, Note_on_c, 4, 58, 50
6, 607232, Note_on_c, 4, 58, 0
6, 607232, Note_on_c, 4, 57, 50
6, 607616, Note_on_c, 4, 57, 0
6, 607744, Note_on_c, 4, 58, 50
6, 608128, Note_on_c, 4, 58, 0
6, 608256, Note_on_c, 4, 50, 64
6, 609280, Note_on_c, 4, 50, 0
6, 609792, Note_on_c, 4, 55, 64
6, 610816, Note_on_c, 4, 55, 0
6, 611328, Note_on_c, 4, 48, 64
6, 612352, Note_on_c, 4, 48, 0
6, 612864, Note_on_c, 4, 53, 64
6, 613888, Note_on_c, 4, 53, 0
6, 614400, Note_on_c, 4, 46, 64
6, 615424, Note_on_c, 4, 46, 0
6, 615424, Note_on_c, 4, 58, 64
6, 615808, Note_on_c, 4, 58, 0
6, 615936, Note_on_c, 4, 46, 64
6, 616960, Note_on_c, 4, 46, 0
6, 616960, Note_on_c, 4, 58, 64
6, 617344, Note_on_c, 4, 58, 0
6, 617472, Note_on_c, 4, 46, 64
6, 618496, Note_on_c, 4, 46, 0
6, 618496, Note_on_c, 4, 58, 64
6, 618880, Note_on_c, 4, 58, 0
6, 619008, Note_on_c, 4, 46, 64
6, 620032, Note_on_c, 4, 46, 0
6, 620032, Note_on_c, 4, 58, 64
6, 620416, Note_on_c, 4, 58, 0
6, 620544, Note_on_c, 4, 46, 64
6, 621568, Note_on_c, 4, 46, 0
6, 622080, Note_on_c, 4, 58, 64
6, 623104, Note_on_c, 4, 58, 0
6, 623616, Note_on_c, 4, 46, 64
6, 624640, Note_on_c, 4, 46, 0
6, 625152, Note_on_c, 4, 58, 64
6, 626176, Note_on_c, 4, 58, 0
6, 626176, Note_on_c, 4, 46, 64
6, 626560, Note_on_c, 4, 46, 0
6, 626688, Note_on_c, 4, 51, 64
6, 627712, Note_on_c, 4, 51, 0
6, 627712, Note_on_c, 4, 48, 64
6, 628096, Note_on_c, 4, 48, 0
6, 628224, Note_on_c, 4, 53, 64
6, 629248, Note_on_c, 4, 53, 0
6, 629248, Note_on_c, 4, 57, 64
6, 629632, Note_on_c, 4, 57, 0
6, 629760, Note_on_c, 4, 58, 64
6, 630144, Note_on_c, 4, 58, 0
6, 630272, Note_on_c, 4, 50, 64
6, 630656, Note_on_c, 4, 50, 0
6, 630784, Note_on_c, 4, 53, 64
6, 631168, Note_on_c, 4, 53, 0
6, 631296, Note_on_c, 4, 46, 64
6, 632320, Note_on_c, 4, 46, 0
6, 632832, Note_on_c, 4, 58, 64
6, 633856, Note_on_c, 4, 58, 0
6, 634368, Note_on_c, 4, 57, 64
6, 635392, Note_on_c, 4, 57, 0
6, 635904, Note_on_c, 4, 55, 64
6, 636928, Note_on_c, 4, 55, 0
6, 637440, Note_on_c, 4, 53, 64
6, 638464, Note_on_c, 4, 53, 0
6, 638976, Note_on_c, 4, 51, 64
6, 640000, Note_on_c, 4, 51, 0
6, 640512, Note_on_c, 4, 53, 64
6, 641536, Note_on_c, 4, 53, 0
6, 642048, Note_on_c, 4, 46, 64
6, 643072, Note_on_c, 4, 46, 0
6, 643072, Note_on_c, 4, 53, 64
6, 643456, Note_on_c, 4, 53, 0
6, 643584, Note_on_c, 4, 58, 64
6, 644096, Note_on_c, 4, 58, 0
6, 644096, Note_on_c, 4, 57, 64
6, 644480, Note_on_c, 4, 57, 0
6, 644608, Note_on_c, 4, 58, 64
6, 644992, Note_on_c, 4, 58, 0
6, 645120, Note_on_c, 4, 52, 64
6, 646144, Note_on_c, 4, 52, 0
6, 646656, Note_on_c, 4, 48, 64
6, 647680, Note_on_c, 4, 48, 0
6, 648192, Note_on_c, 4, 50, 64
6, 649216, Note_on_c, 4, 50, 0
6, 649728, Note_on_c, 4, 46, 64
6, 650752, Note_on_c, 4, 46, 0
6, 651264, Note_on_c, 4, 48, 64
6, 652288, Note_on_c, 4, 48, 0
6, 652288, Note_on_c, 4, 46, 64
6, 652672, Note_on_c, 4, 46, 0
6, 652800, Note_on_c, 4, 45, 64
6, 653824, Note_on_c, 4, 45, 0
6, 653824, Note_on_c, 4, 43, 64
6, 654208, Note_on_c, 4, 43, 0
6, 654336, Note_on_c, 4, 41, 64
6, 655360, Note_on_c, 4, 41, 0
6, 655360, Note_on_c, 4, 48, 64
6, 655744, Note_on_c, 4, 48, 0
6, 655872, Note_on_c, 4, 53, 64
6, 656384, Note_on_c, 4, 53, 0
6, 656384, Note_on_c, 4, 51, 64
6, 656768, Note_on_c, 4, 51, 0
6, 656896, Note_on_c, 4, 53, 64
6, 657280, Note_on_c, 4, 53, 0
6, 657408, Note_on_c, 4, 50, 64
6, 658432, Note_on_c, 4, 50, 0
6, 658944, Note_on_c, 4, 55, 64
6, 659968, Note_on_c, 4, 55, 0
6, 660480, Note_on_c, 4, 48, 64
6, 661504, Note_on_c, 4, 48, 0
6, 662016, Note_on_c, 4, 53, 64
6, 663040, Note_on_c, 4, 53, 0
6, 663552, Note_on_c, 4, 46, 64
6, 664576, Note_on_c, 4, 46, 0
6, 664576, Note_on_c, 4, 58, 64
6, 664960, Note_on_c, 4, 58, 0
6, 665088, Note_on_c, 4, 46, 64
6, 666112, Note_on_c, 4, 46, 0
6, 666112, Note_on_c, 4, 58, 64
6, 666496, Note_on_c, 4, 58, 0
6, 666624, Note_on_c, 4, 46, 64
6, 667648, Note_on_c, 4, 46, 0
6, 667648, Note_on_c, 4, 58, 64
6, 668032, Note_on_c, 4, 58, 0
6, 668160, Note_on_c, 4, 46, 64
6, 669184, Note_on_c, 4, 46, 0
6, 669184, Note_on_c, 4, 58, 64
6, 669568, Note_on_c, 4, 58, 0
6, 669696, Note_on_c, 4, 46, 64
6, 670720, Note_on_c, 4, 46, 0
6, 671232, Note_on_c, 4, 58, 64
6, 672256, Note_on_c, 4, 58, 0
6, 672768, Note_on_c, 4, 46, 64
6, 673792, Note_on_c, 4, 46, 0
6, 674304, Note_on_c, 4, 58, 64
6, 675328, Note_on_c, 4, 58, 0
6, 675328, Note_on_c, 4, 46, 64
6, 675712, Note_on_c, 4, 46, 0
6, 675840, Note_on_c, 4, 51, 64
6, 676864, Note_on_c, 4, 51, 0
6, 676864, Note_on_c, 4, 48, 64
6, 677248, Note_on_c, 4, 48, 0
6, 677376, Note_on_c, 4, 53, 64
6, 678400, Note_on_c, 4, 53, 0
6, 678400, Note_on_c, 4, 45, 64
6, 678784, Note_on_c, 4, 45, 0
6, 678912, Note_on_c, 4, 46, 64
6, 679296, Note_on_c, 4, 46, 0
6, 679424, Note_on_c, 4, 50, 64
6, 679808, Note_on_c, 4, 50, 0
6, 679936, Note_on_c, 4, 53, 64
6, 680320, Note_on_c, 4, 53, 0
6, 680448, Note_on_c, 4, 46, 64
6, 683520, Note_on_c, 4, 46, 0
6, 688128, Control_c, 4, 121, 127
6, 688128, End_track
7, 0, Start_track
7, 0, Program_c, 5, 42
7, 0, Control_c, 5, 121, 127
7, 0, Control_c, 5, 91, 127
7, 0, Control_c, 5, 7, 100
7, 0, Control_c, 5, 1, 10
7, 0, Control_c, 5, 10, 70
7, 0, Title_t, "Violone"
7, 6144, Note_on_c, 5, 46, 64
7, 7168, Note_on_c, 5, 46, 0
7, 7680, Note_on_c, 5, 45, 64
7, 8704, Note_on_c, 5, 45, 0
7, 9216, Note_on_c, 5, 43, 64
7, 10240, Note_on_c, 5, 43, 0
7, 10752, Note_on_c, 5, 41, 64
7, 11776, Note_on_c, 5, 41, 0
7, 12288, Note_on_c, 5, 39, 64
7, 13312, Note_on_c, 5, 39, 0
7, 13824, Note_on_c, 5, 41, 64
7, 14848, Note_on_c, 5, 41, 0
7, 15360, Note_on_c, 5, 34, 64
7, 16384, Note_on_c, 5, 34, 0
7, 16384, Note_on_c, 5, 41, 64
7, 16768, Note_on_c, 5, 41, 0
7, 16896, Note_on_c, 5, 46, 64
7, 17408, Note_on_c, 5, 46, 0
7, 17408, Note_on_c, 5, 45, 64
7, 17792, Note_on_c, 5, 45, 0
7, 17920, Note_on_c, 5, 46, 64
7, 18304, Note_on_c, 5, 46, 0
7, 18432, Note_on_c, 5, 40, 64
7, 19456, Note_on_c, 5, 40, 0
7, 19968, Note_on_c, 5, 36, 64
7, 20992, Note_on_c, 5, 36, 0
7, 21504, Note_on_c, 5, 38, 64
7, 22528, Note_on_c, 5, 38, 0
7, 23040, Note_on_c, 5, 34, 64
7, 24064, Note_on_c, 5, 34, 0
7, 24576, Note_on_c, 5, 36, 64
7, 25600, Note_on_c, 5, 36, 0
7, 25600, Note_on_c, 5, 34, 64
7, 25984, Note_on_c, 5, 34, 0
7, 26112, Note_on_c, 5, 33, 64
7, 27136, Note_on_c, 5, 33, 0
7, 27136, Note_on_c, 5, 31, 64
7, 27520, Note_on_c, 5, 31, 0
7, 27648, Note_on_c, 5, 29, 64
7, 28672, Note_on_c, 5, 29, 0
7, 28672, Note_on_c, 5, 36, 64
7, 29056, Note_on_c, 5, 36, 0
7, 29184, Note_on_c, 5, 41, 64
7, 29696, Note_on_c, 5, 41, 0
7, 29696, Note_on_c, 5, 39, 64
7, 30080, Note_on_c, 5, 39, 0
7, 30208, Note_on_c, 5, 41, 64
7, 30592, Note_on_c, 5, 41, 0
7, 30720, Note_on_c, 5, 38, 64
7, 31744, Note_on_c, 5, 38, 0
7, 32256, Note_on_c, 5, 43, 64
7, 33280, Note_on_c, 5, 43, 0
7, 33792, Note_on_c, 5, 36, 64
7, 34816, Note_on_c, 5, 36, 0
7, 35328, Note_on_c, 5, 41, 64
7, 36352, Note_on_c, 5, 41, 0
7, 36864, Note_on_c, 5, 34, 64
7, 37888, Note_on_c, 5, 34, 0
7, 37888, Note_on_c, 5, 46, 64
7, 38272, Note_on_c, 5, 46, 0
7, 38400, Note_on_c, 5, 34, 64
7, 39424, Note_on_c, 5, 34, 0
7, 39424, Note_on_c, 5, 46, 64
7, 39808, Note_on_c, 5, 46, 0
7, 39936, Note_on_c, 5, 34, 64
7, 40960, Note_on_c, 5, 34, 0
7, 40960, Note_on_c, 5, 46, 64
7, 41344, Note_on_c, 5, 46, 0
7, 41472, Note_on_c, 5, 34, 64
7, 42496, Note_on_c, 5, 34, 0
7, 42496, Note_on_c, 5, 46, 64
7, 42880, Note_on_c, 5, 46, 0
7, 43008, Note_on_c, 5, 34, 64
7, 44032, Note_on_c, 5, 34, 0
7, 44544, Note_on_c, 5, 46, 64
7, 45568, Note_on_c, 5, 46, 0
7, 46080, Note_on_c, 5, 34, 64
7, 47104, Note_on_c, 5, 34, 0
7, 47616, Note_on_c, 5, 46, 64
7, 48640, Note_on_c, 5, 46, 0
7, 48640, Note_on_c, 5, 34, 64
7, 49024, Note_on_c, 5, 34, 0
7, 49152, Note_on_c, 5, 39, 64
7, 50176, Note_on_c, 5, 39, 0
7, 50176, Note_on_c, 5, 36, 64
7, 50560, Note_on_c, 5, 36, 0
7, 50688, Note_on_c, 5, 41, 64
7, 51712, Note_on_c, 5, 41, 0
7, 51712, Note_on_c, 5, 33, 64
7, 52096, Note_on_c, 5, 33, 0
7, 52224, Note_on_c, 5, 34, 64
7, 52608, Note_on_c, 5, 34, 0
7, 52736, Note_on_c, 5, 38, 64
7, 53120, Note_on_c, 5, 38, 0
7, 53248, Note_on_c, 5, 41, 64
7, 53632, Note_on_c, 5, 41, 0
7, 53760, Note_on_c, 5, 46, 64
7, 54144, Note_on_c, 5, 46, 0
7, 54272, Note_on_c, 5, 38, 64
7, 54656, Note_on_c, 5, 38, 0
7, 54784, Note_on_c, 5, 41, 64
7, 55168, Note_on_c, 5, 41, 0
7, 55296, Note_on_c, 5, 34, 64
7, 56320, Note_on_c, 5, 34, 0
7, 79872, Note_on_c, 5, 41, 64
7, 80896, Note_on_c, 5, 41, 0
7, 81408, Note_on_c, 5, 40, 64
7, 82432, Note_on_c, 5, 40, 0
7, 82944, Note_on_c, 5, 38, 64
7, 83968, Note_on_c, 5, 38, 0
7, 84480, Note_on_c, 5, 36, 64
7, 85504, Note_on_c, 5, 36, 0
7, 86016, Note_on_c, 5, 34, 64
7, 87040, Note_on_c, 5, 34, 0
7, 87552, Note_on_c, 5, 36, 64
7, 88576, Note_on_c, 5, 36, 0
7, 89088, Note_on_c, 5, 29, 64
7, 91648, Note_on_c, 5, 29, 0
7, 116736, Note_on_c, 5, 33, 64
7, 117760, Note_on_c, 5, 33, 0
7, 118272, Note_on_c, 5, 38, 64
7, 119296, Note_on_c, 5, 38, 0
7, 119808, Note_on_c, 5, 31, 64
7, 120832, Note_on_c, 5, 31, 0
7, 121344, Note_on_c, 5, 36, 64
7, 122368, Note_on_c, 5, 36, 0
7, 122880, Note_on_c, 5, 29, 64
7, 123904, Note_on_c, 5, 29, 0
7, 129024, Note_on_c, 5, 29, 64
7, 130048, Note_on_c, 5, 29, 0
7, 130560, Note_on_c, 5, 41, 64
7, 131584, Note_on_c, 5, 41, 0
7, 134656, Note_on_c, 5, 29, 64
7, 135040, Note_on_c, 5, 29, 0
7, 135168, Note_on_c, 5, 34, 64
7, 136192, Note_on_c, 5, 34, 0
7, 136192, Note_on_c, 5, 31, 64
7, 136576, Note_on_c, 5, 31, 0
7, 136704, Note_on_c, 5, 36, 64
7, 137728, Note_on_c, 5, 36, 0
7, 137728, Note_on_c, 5, 40, 64
7, 138112, Note_on_c, 5, 40, 0
7, 138240, Note_on_c, 5, 41, 64
7, 138624, Note_on_c, 5, 41, 0
7, 138752, Note_on_c, 5, 33, 64
7, 139136, Note_on_c, 5, 33, 0
7, 139264, Note_on_c, 5, 36, 64
7, 139648, Note_on_c, 5, 36, 0
7, 139776, Note_on_c, 5, 29, 64
7, 140800, Note_on_c, 5, 29, 0
7, 145408, Note_on_c, 5, 31, 64
7, 145664, Note_on_c, 5, 31, 0
7, 145920, Note_on_c, 5, 36, 64
7, 146944, Note_on_c, 5, 36, 0
7, 151552, Note_on_c, 5, 29, 64
7, 151808, Note_on_c, 5, 29, 0
7, 152064, Note_on_c, 5, 34, 64
7, 153088, Note_on_c, 5, 34, 0
7, 156160, Note_on_c, 5, 36, 64
7, 156544, Note_on_c, 5, 36, 0
7, 156672, Note_on_c, 5, 38, 64
7, 158208, Note_on_c, 5, 38, 0
7, 159232, Note_on_c, 5, 34, 64
7, 159616, Note_on_c, 5, 34, 0
7, 159744, Note_on_c, 5, 36, 64
7, 161280, Note_on_c, 5, 36, 0
7, 162304, Note_on_c, 5, 29, 64
7, 162688, Note_on_c, 5, 29, 0
7, 162816, Note_on_c, 5, 34, 64
7, 164352, Note_on_c, 5, 34, 0
7, 165888, Note_on_c, 5, 29, 64
7, 166912, Note_on_c, 5, 29, 0
7, 167424, Note_on_c, 5, 41, 64
7, 168448, Note_on_c, 5, 41, 0
7, 168960, Note_on_c, 5, 29, 64
7, 169984, Note_on_c, 5, 29, 0
7, 170496, Note_on_c, 5, 41, 64
7, 171520, Note_on_c, 5, 41, 0
7, 176128, Note_on_c, 5, 29, 64
7, 176512, Note_on_c, 5, 29, 0
7, 176640, Note_on_c, 5, 34, 64
7, 177664, Note_on_c, 5, 34, 0
7, 182272, Note_on_c, 5, 34, 64
7, 182656, Note_on_c, 5, 34, 0
7, 182784, Note_on_c, 5, 39, 64
7, 183808, Note_on_c, 5, 39, 0
7, 184320, Note_on_c, 5, 40, 64
7, 185344, Note_on_c, 5, 40, 0
7, 185856, Note_on_c, 5, 41, 64
7, 186880, Note_on_c, 5, 41, 0
7, 187392, Note_on_c, 5, 42, 64
7, 188416, Note_on_c, 5, 42, 0
7, 188928, Note_on_c, 5, 43, 64
7, 189952, Note_on_c, 5, 43, 0
7, 190464, Note_on_c, 5, 45, 64
7, 191488, Note_on_c, 5, 45, 0
7, 192000, Note_on_c, 5, 46, 64
7, 193024, Note_on_c, 5, 46, 0
7, 193536, Note_on_c, 5, 39, 64
7, 194560, Note_on_c, 5, 39, 0
7, 195072, Note_on_c, 5, 41, 64
7, 196096, Note_on_c, 5, 41, 0
7, 208896, Note_on_c, 5, 38, 64
7, 209920, Note_on_c, 5, 38, 0
7, 210432, Note_on_c, 5, 43, 64
7, 211456, Note_on_c, 5, 43, 0
7, 211968, Note_on_c, 5, 36, 64
7, 212992, Note_on_c, 5, 36, 0
7, 213504, Note_on_c, 5, 41, 64
7, 214528, Note_on_c, 5, 41, 0
7, 215040, Note_on_c, 5, 34, 64
7, 216064, Note_on_c, 5, 34, 0
7, 221184, Note_on_c, 5, 34, 64
7, 222208, Note_on_c, 5, 34, 0
7, 222720, Note_on_c, 5, 46, 64
7, 223744, Note_on_c, 5, 46, 0
7, 224256, Note_on_c, 5, 34, 64
7, 225280, Note_on_c, 5, 34, 0
7, 225792, Note_on_c, 5, 46, 64
7, 226816, Note_on_c, 5, 46, 0
7, 233472, Note_on_c, 5, 46, 64
7, 234496, Note_on_c, 5, 46, 0
7, 235008, Note_on_c, 5, 45, 64
7, 236032, Note_on_c, 5, 45, 0
7, 236544, Note_on_c, 5, 43, 64
7, 237568, Note_on_c, 5, 43, 0
7, 238080, Note_on_c, 5, 41, 64
7, 239104, Note_on_c, 5, 41, 0
7, 239616, Note_on_c, 5, 39, 64
7, 240640, Note_on_c, 5, 39, 0
7, 241152, Note_on_c, 5, 41, 64
7, 242176, Note_on_c, 5, 41, 0
7, 242688, Note_on_c, 5, 34, 64
7, 243712, Note_on_c, 5, 34, 0
7, 243712, Note_on_c, 5, 41, 64
7, 244096, Note_on_c, 5, 41, 0
7, 244224, Note_on_c, 5, 46, 64
7, 244736, Note_on_c, 5, 46, 0
7, 244736, Note_on_c, 5, 45, 64
7, 245120, Note_on_c, 5, 45, 0
7, 245248, Note_on_c, 5, 46, 64
7, 245632, Note_on_c, 5, 46, 0
7, 245760, Note_on_c, 5, 40, 64
7, 246784, Note_on_c, 5, 40, 0
7, 247296, Note_on_c, 5, 36, 64
7, 248320, Note_on_c, 5, 36, 0
7, 248832, Note_on_c, 5, 38, 64
7, 249856, Note_on_c, 5, 38, 0
7, 250368, Note_on_c, 5, 34, 64
7, 251392, Note_on_c, 5, 34, 0
7, 251904, Note_on_c, 5, 36, 64
7, 252928, Note_on_c, 5, 36, 0
7, 252928, Note_on_c, 5, 34, 64
7, 253312, Note_on_c, 5, 34, 0
7, 253440, Note_on_c, 5, 33, 64
7, 254464, Note_on_c, 5, 33, 0
7, 254464, Note_on_c, 5, 31, 64
7, 254848, Note_on_c, 5, 31, 0
7, 254976, Note_on_c, 5, 29, 64
7, 256000, Note_on_c, 5, 29, 0
7, 256000, Note_on_c, 5, 36, 64
7, 256384, Note_on_c, 5, 36, 0
7, 256512, Note_on_c, 5, 41, 64
7, 257024, Note_on_c, 5, 41, 0
7, 257024, Note_on_c, 5, 39, 64
7, 257408, Note_on_c, 5, 39, 0
7, 257536, Note_on_c, 5, 41, 64
7, 257920, Note_on_c, 5, 41, 0
7, 258048, Note_on_c, 5, 38, 64
7, 259072, Note_on_c, 5, 38, 0
7, 259584, Note_on_c, 5, 43, 64
7, 260608, Note_on_c, 5, 43, 0
7, 261120, Note_on_c, 5, 36, 64
7, 262144, Note_on_c, 5, 36, 0
7, 262656, Note_on_c, 5, 41, 64
7, 263680, Note_on_c, 5, 41, 0
7, 264192, Note_on_c, 5, 34, 64
7, 265216, Note_on_c, 5, 34, 0
7, 265216, Note_on_c, 5, 46, 64
7, 265600, Note_on_c, 5, 46, 0
7, 265728, Note_on_c, 5, 34, 64
7, 266752, Note_on_c, 5, 34, 0
7, 266752, Note_on_c, 5, 46, 64
7, 267136, Note_on_c, 5, 46, 0
7, 267264, Note_on_c, 5, 34, 64
7, 268288, Note_on_c, 5, 34, 0
7, 268288, Note_on_c, 5, 46, 64
7, 268672, Note_on_c, 5, 46, 0
7, 268800, Note_on_c, 5, 34, 64
7, 269824, Note_on_c, 5, 34, 0
7, 269824, Note_on_c, 5, 46, 64
7, 270208, Note_on_c, 5, 46, 0
7, 270336, Note_on_c, 5, 34, 64
7, 271360, Note_on_c, 5, 34, 0
7, 271872, Note_on_c, 5, 46, 64
7, 272896, Note_on_c, 5, 46, 0
7, 273408, Note_on_c, 5, 34, 64
7, 274432, Note_on_c, 5, 34, 0
7, 274944, Note_on_c, 5, 46, 64
7, 275968, Note_on_c, 5, 46, 0
7, 275968, Note_on_c, 5, 34, 64
7, 276352, Note_on_c, 5, 34, 0
7, 276480, Note_on_c, 5, 39, 64
7, 277504, Note_on_c, 5, 39, 0
7, 277504, Note_on_c, 5, 36, 64
7, 277888, Note_on_c, 5, 36, 0
7, 278016, Note_on_c, 5, 41, 64
7, 279040, Note_on_c, 5, 41, 0
7, 279040, Note_on_c, 5, 33, 64
7, 279424, Note_on_c, 5, 33, 0
7, 279552, Note_on_c, 5, 34, 64
7, 279936, Note_on_c, 5, 34, 0
7, 280064, Note_on_c, 5, 26, 64
7, 280448, Note_on_c, 5, 26, 0
7, 280576, Note_on_c, 5, 29, 64
7, 280960, Note_on_c, 5, 29, 0
7, 281088, Note_on_c, 5, 22, 64
7, 282112, Note_on_c, 5, 22, 0
7, 282624, Note_on_c, 5, 26, 64
7, 283648, Note_on_c, 5, 26, 0
7, 283648, Note_on_c, 5, 38, 64
7, 284032, Note_on_c, 5, 38, 0
7, 284160, Note_on_c, 5, 26, 64
7, 285184, Note_on_c, 5, 26, 0
7, 285184, Note_on_c, 5, 38, 64
7, 285568, Note_on_c, 5, 38, 0
7, 285696, Note_on_c, 5, 26, 64
7, 286720, Note_on_c, 5, 26, 0
7, 286720, Note_on_c, 5, 38, 64
7, 287104, Note_on_c, 5, 38, 0
7, 287232, Note_on_c, 5, 26, 64
7, 288256, Note_on_c, 5, 26, 0
7, 288256, Note_on_c, 5, 38, 64
7, 288640, Note_on_c, 5, 38, 0
7, 288768, Note_on_c, 5, 26, 64
7, 289792, Note_on_c, 5, 26, 0
7, 289792, Note_on_c, 5, 38, 64
7, 290176, Note_on_c, 5, 38, 0
7, 290304, Note_on_c, 5, 26, 64
7, 291328, Note_on_c, 5, 26, 0
7, 291328, Note_on_c, 5, 38, 64
7, 291712, Note_on_c, 5, 38, 0
7, 291840, Note_on_c, 5, 26, 64
7, 292864, Note_on_c, 5, 26, 0
7, 292864, Note_on_c, 5, 38, 64
7, 293248, Note_on_c, 5, 38, 0
7, 293376, Note_on_c, 5, 26, 64
7, 294400, Note_on_c, 5, 26, 0
7, 319488, Note_on_c, 5, 43, 70
7, 320512, Note_on_c, 5, 43, 0
7, 321024, Note_on_c, 5, 41, 70
7, 322048, Note_on_c, 5, 41, 0
7, 322560, Note_on_c, 5, 39, 70
7, 323584, Note_on_c, 5, 39, 0
7, 324096, Note_on_c, 5, 38, 70
7, 325120, Note_on_c, 5, 38, 0
7, 325632, Note_on_c, 5, 36, 70
7, 326656, Note_on_c, 5, 36, 0
7, 327168, Note_on_c, 5, 38, 70
7, 328192, Note_on_c, 5, 38, 0
7, 328704, Note_on_c, 5, 31, 70
7, 329728, Note_on_c, 5, 31, 0
7, 329728, Note_on_c, 5, 38, 70
7, 330112, Note_on_c, 5, 38, 0
7, 330240, Note_on_c, 5, 43, 70
7, 331264, Note_on_c, 5, 43, 0
7, 335872, Note_on_c, 5, 33, 64
7, 336128, Note_on_c, 5, 33, 0
7, 336384, Note_on_c, 5, 38, 64
7, 337408, Note_on_c, 5, 38, 0
7, 342016, Note_on_c, 5, 31, 64
7, 342272, Note_on_c, 5, 31, 0
7, 342528, Note_on_c, 5, 36, 64
7, 343552, Note_on_c, 5, 36, 0
7, 346624, Note_on_c, 5, 43, 64
7, 347008, Note_on_c, 5, 43, 0
7, 347136, Note_on_c, 5, 40, 64
7, 348672, Note_on_c, 5, 40, 0
7, 349696, Note_on_c, 5, 41, 64
7, 350080, Note_on_c, 5, 41, 0
7, 350208, Note_on_c, 5, 38, 64
7, 351744, Note_on_c, 5, 38, 0
7, 352768, Note_on_c, 5, 40, 64
7, 353280, Note_on_c, 5, 40, 0
7, 353280, Note_on_c, 5, 37, 64
7, 354816, Note_on_c, 5, 37, 0
7, 356352, Note_on_c, 5, 38, 64
7, 357376, Note_on_c, 5, 38, 0
7, 357888, Note_on_c, 5, 33, 64
7, 358912, Note_on_c, 5, 33, 0
7, 359424, Note_on_c, 5, 26, 64
7, 360448, Note_on_c, 5, 26, 0
7, 360960, Note_on_c, 5, 33, 64
7, 361984, Note_on_c, 5, 33, 0
7, 362496, Note_on_c, 5, 38, 64
7, 363520, Note_on_c, 5, 38, 0
7, 364032, Note_on_c, 5, 45, 64
7, 365056, Note_on_c, 5, 45, 0
7, 365568, Note_on_c, 5, 50, 64
7, 366592, Note_on_c, 5, 50, 0
7, 367104, Note_on_c, 5, 45, 64
7, 368128, Note_on_c, 5, 45, 0
7, 393216, Note_on_c, 5, 38, 50
7, 394240, Note_on_c, 5, 38, 0
7, 394752, Note_on_c, 5, 26, 50
7, 395776, Note_on_c, 5, 26, 0
7, 396288, Note_on_c, 5, 38, 50
7, 397312, Note_on_c, 5, 38, 0
7, 397824, Note_on_c, 5, 26, 50
7, 398848, Note_on_c, 5, 26, 0
7, 398848, Note_on_c, 5, 38, 50
7, 399232, Note_on_c, 5, 38, 0
7, 399360, Note_on_c, 5, 43, 50
7, 400384, Note_on_c, 5, 43, 0
7, 400384, Note_on_c, 5, 40, 50
7, 400768, Note_on_c, 5, 40, 0
7, 400896, Note_on_c, 5, 45, 50
7, 401920, Note_on_c, 5, 45, 0
7, 401920, Note_on_c, 5, 37, 50
7, 402304, Note_on_c, 5, 37, 0
7, 402432, Note_on_c, 5, 38, 50
7, 402816, Note_on_c, 5, 38, 0
7, 402944, Note_on_c, 5, 29, 50
7, 403328, Note_on_c, 5, 29, 0
7, 403456, Note_on_c, 5, 33, 50
7, 403840, Note_on_c, 5, 33, 0
7, 403968, Note_on_c, 5, 26, 50
7, 404930, Note_on_c, 5, 26, 0
7, 405504, Note_on_c, 5, 46, 64
7, 406528, Note_on_c, 5, 46, 0
7, 407040, Note_on_c, 5, 45, 64
7, 408064, Note_on_c, 5, 45, 0
7, 408576, Note_on_c, 5, 43, 64
7, 409600, Note_on_c, 5, 43, 0
7, 410112, Note_on_c, 5, 41, 64
7, 411136, Note_on_c, 5, 41, 0
7, 411648, Note_on_c, 5, 39, 64
7, 412672, Note_on_c, 5, 39, 0
7, 413184, Note_on_c, 5, 41, 64
7, 414208, Note_on_c, 5, 41, 0
7, 414720, Note_on_c, 5, 34, 64
7, 415744, Note_on_c, 5, 34, 0
7, 415744, Note_on_c, 5, 41, 64
7, 416128, Note_on_c, 5, 41, 0
7, 416256, Note_on_c, 5, 46, 64
7, 416768, Note_on_c, 5, 46, 0
7, 416768, Note_on_c, 5, 45, 64
7, 417152, Note_on_c, 5, 45, 0
7, 417280, Note_on_c, 5, 46, 64
7, 417664, Note_on_c, 5, 46, 0
7, 417792, Note_on_c, 5, 40, 64
7, 418816, Note_on_c, 5, 40, 0
7, 419328, Note_on_c, 5, 36, 64
7, 420352, Note_on_c, 5, 36, 0
7, 420864, Note_on_c, 5, 38, 64
7, 421888, Note_on_c, 5, 38, 0
7, 422400, Note_on_c, 5, 34, 64
7, 423424, Note_on_c, 5, 34, 0
7, 423936, Note_on_c, 5, 36, 64
7, 424960, Note_on_c, 5, 36, 0
7, 424960, Note_on_c, 5, 34, 64
7, 425344, Note_on_c, 5, 34, 0
7, 425472, Note_on_c, 5, 33, 64
7, 426496, Note_on_c, 5, 33, 0
7, 426496, Note_on_c, 5, 31, 64
7, 426880, Note_on_c, 5, 31, 0
7, 427008, Note_on_c, 5, 29, 64
7, 428032, Note_on_c, 5, 29, 0
7, 428032, Note_on_c, 5, 36, 64
7, 428416, Note_on_c, 5, 36, 0
7, 428544, Note_on_c, 5, 41, 64
7, 429056, Note_on_c, 5, 41, 0
7, 429056, Note_on_c, 5, 39, 64
7, 429440, Note_on_c, 5, 39, 0
7, 429568, Note_on_c, 5, 41, 64
7, 429952, Note_on_c, 5, 41, 0
7, 430080, Note_on_c, 5, 38, 64
7, 431104, Note_on_c, 5, 38, 0
7, 431616, Note_on_c, 5, 43, 64
7, 432640, Note_on_c, 5, 43, 0
7, 433152, Note_on_c, 5, 36, 64
7, 434176, Note_on_c, 5, 36, 0
7, 434688, Note_on_c, 5, 41, 64
7, 435712, Note_on_c, 5, 41, 0
7, 436224, Note_on_c, 5, 34, 64
7, 437248, Note_on_c, 5, 34, 0
7, 437248, Note_on_c, 5, 46, 64
7, 437632, Note_on_c, 5, 46, 0
7, 437760, Note_on_c, 5, 34, 64
7, 438784, Note_on_c, 5, 34, 0
7, 438784, Note_on_c, 5, 46, 64
7, 439168, Note_on_c, 5, 46, 0
7, 439296, Note_on_c, 5, 34, 64
7, 440320, Note_on_c, 5, 34, 0
7, 440320, Note_on_c, 5, 46, 64
7, 440704, Note_on_c, 5, 46, 0
7, 440832, Note_on_c, 5, 34, 64
7, 441856, Note_on_c, 5, 34, 0
7, 441856, Note_on_c, 5, 46, 64
7, 442240, Note_on_c, 5, 46, 0
7, 442368, Note_on_c, 5, 34, 64
7, 443392, Note_on_c, 5, 34, 0
7, 443904, Note_on_c, 5, 46, 64
7, 444928, Note_on_c, 5, 46, 0
7, 445440, Note_on_c, 5, 34, 64
7, 446464, Note_on_c, 5, 34, 0
7, 446976, Note_on_c, 5, 46, 64
7, 448000, Note_on_c, 5, 46, 0
7, 448000, Note_on_c, 5, 34, 64
7, 448384, Note_on_c, 5, 34, 0
7, 448512, Note_on_c, 5, 39, 64
7, 449536, Note_on_c, 5, 39, 0
7, 449536, Note_on_c, 5, 36, 64
7, 449920, Note_on_c, 5, 36, 0
7, 450048, Note_on_c, 5, 41, 64
7, 451072, Note_on_c, 5, 41, 0
7, 451072, Note_on_c, 5, 33, 64
7, 451456, Note_on_c, 5, 33, 0
7, 451584, Note_on_c, 5, 34, 64
7, 451968, Note_on_c, 5, 34, 0
7, 452096, Note_on_c, 5, 38, 64
7, 452480, Note_on_c, 5, 38, 0
7, 452608, Note_on_c, 5, 41, 64
7, 452992, Note_on_c, 5, 41, 0
7, 453120, Note_on_c, 5, 46, 64
7, 453504, Note_on_c, 5, 46, 0
7, 453632, Note_on_c, 5, 38, 64
7, 454016, Note_on_c, 5, 38, 0
7, 454144, Note_on_c, 5, 41, 64
7, 454528, Note_on_c, 5, 41, 0
7, 454656, Note_on_c, 5, 34, 64
7, 455680, Note_on_c, 5, 34, 0
7, 479232, Note_on_c, 5, 41, 64
7, 480256, Note_on_c, 5, 41, 0
7, 480768, Note_on_c, 5, 40, 64
7, 481792, Note_on_c, 5, 40, 0
7, 482304, Note_on_c, 5, 38, 64
7, 483328, Note_on_c, 5, 38, 0
7, 483840, Note_on_c, 5, 36, 64
7, 484864, Note_on_c, 5, 36, 0
7, 485376, Note_on_c, 5, 34, 64
7, 486400, Note_on_c, 5, 34, 0
7, 486912, Note_on_c, 5, 36, 64
7, 487936, Note_on_c, 5, 36, 0
7, 488448, Note_on_c, 5, 29, 64
7, 491008, Note_on_c, 5, 29, 0
7, 516096, Note_on_c, 5, 33, 64
7, 517120, Note_on_c, 5, 33, 0
7, 517632, Note_on_c, 5, 38, 64
7, 518656, Note_on_c, 5, 38, 0
7, 519168, Note_on_c, 5, 31, 64
7, 520192, Note_on_c, 5, 31, 0
7, 520704, Note_on_c, 5, 36, 64
7, 521728, Note_on_c, 5, 36, 0
7, 522240, Note_on_c, 5, 29, 64
7, 523264, Note_on_c, 5, 29, 0
7, 528384, Note_on_c, 5, 29, 64
7, 529408, Note_on_c, 5, 29, 0
7, 529920, Note_on_c, 5, 41, 64
7, 530944, Note_on_c, 5, 41, 0
7, 534016, Note_on_c, 5, 29, 64
7, 534400, Note_on_c, 5, 29, 0
7, 534528, Note_on_c, 5, 34, 64
7, 535552, Note_on_c, 5, 34, 0
7, 535552, Note_on_c, 5, 31, 64
7, 535936, Note_on_c, 5, 31, 0
7, 536064, Note_on_c, 5, 36, 64
7, 537088, Note_on_c, 5, 36, 0
7, 537088, Note_on_c, 5, 40, 64
7, 537472, Note_on_c, 5, 40, 0
7, 537600, Note_on_c, 5, 41, 64
7, 537984, Note_on_c, 5, 41, 0
7, 538112, Note_on_c, 5, 33, 64
7, 538496, Note_on_c, 5, 33, 0
7, 538624, Note_on_c, 5, 36, 64
7, 539008, Note_on_c, 5, 36, 0
7, 539136, Note_on_c, 5, 29, 64
7, 540160, Note_on_c, 5, 29, 0
7, 544768, Note_on_c, 5, 31, 64
7, 545024, Note_on_c, 5, 31, 0
7, 545280, Note_on_c, 5, 36, 64
7, 546304, Note_on_c, 5, 36, 0
7, 550912, Note_on_c, 5, 29, 64
7, 551168, Note_on_c, 5, 29, 0
7, 551424, Note_on_c, 5, 34, 64
7, 552448, Note_on_c, 5, 34, 0
7, 555520, Note_on_c, 5, 36, 64
7, 555904, Note_on_c, 5, 36, 0
7, 556032, Note_on_c, 5, 38, 64
7, 557568, Note_on_c, 5, 38, 0
7, 558592, Note_on_c, 5, 34, 64
7, 558976, Note_on_c, 5, 34, 0
7, 559104, Note_on_c, 5, 36, 64
7, 560640, Note_on_c, 5, 36, 0
7, 561664, Note_on_c, 5, 29, 64
7, 562048, Note_on_c, 5, 29, 0
7, 562176, Note_on_c, 5, 34, 64
7, 563712, Note_on_c, 5, 34, 0
7, 565248, Note_on_c, 5, 29, 64
7, 566272, Note_on_c, 5, 29, 0
7, 566784, Note_on_c, 5, 41, 64
7, 567808, Note_on_c, 5, 41, 0
7, 568320, Note_on_c, 5, 29, 64
7, 569344, Note_on_c, 5, 29, 0
7, 569856, Note_on_c, 5, 41, 64
7, 570880, Note_on_c, 5, 41, 0
7, 575488, Note_on_c, 5, 29, 64
7, 575872, Note_on_c, 5, 29, 0
7, 576000, Note_on_c, 5, 34, 64
7, 577024, Note_on_c, 5, 34, 0
7, 581632, Note_on_c, 5, 34, 64
7, 582016, Note_on_c, 5, 34, 0
7, 582144, Note_on_c, 5, 39, 64
7, 583168, Note_on_c, 5, 39, 0
7, 583680, Note_on_c, 5, 40, 64
7, 584704, Note_on_c, 5, 40, 0
7, 585216, Note_on_c, 5, 41, 64
7, 586240, Note_on_c, 5, 41, 0
7, 586752, Note_on_c, 5, 42, 64
7, 587776, Note_on_c, 5, 42, 0
7, 588288, Note_on_c, 5, 43, 64
7, 589312, Note_on_c, 5, 43, 0
7, 589824, Note_on_c, 5, 45, 64
7, 590848, Note_on_c, 5, 45, 0
7, 591360, Note_on_c, 5, 46, 64
7, 592384, Note_on_c, 5, 46, 0
7, 592896, Note_on_c, 5, 39, 64
7, 593920, Note_on_c, 5, 39, 0
7, 594432, Note_on_c, 5, 41, 64
7, 595456, Note_on_c, 5, 41, 0
7, 608256, Note_on_c, 5, 38, 64
7, 609280, Note_on_c, 5, 38, 0
7, 609792, Note_on_c, 5, 43, 64
7, 610816, Note_on_c, 5, 43, 0
7, 611328, Note_on_c, 5, 36, 64
7, 612352, Note_on_c, 5, 36, 0
7, 612864, Note_on_c, 5, 41, 64
7, 613888, Note_on_c, 5, 41, 0
7, 614400, Note_on_c, 5, 34, 64
7, 615424, Note_on_c, 5, 34, 0
7, 620544, Note_on_c, 5, 34, 64
7, 621568, Note_on_c, 5, 34, 0
7, 622080, Note_on_c, 5, 46, 64
7, 623104, Note_on_c, 5, 46, 0
7, 623616, Note_on_c, 5, 34, 64
7, 624640, Note_on_c, 5, 34, 0
7, 625152, Note_on_c, 5, 46, 64
7, 626176, Note_on_c, 5, 46, 0
7, 632832, Note_on_c, 5, 46, 64
7, 633856, Note_on_c, 5, 46, 0
7, 634368, Note_on_c, 5, 45, 64
7, 635392, Note_on_c, 5, 45, 0
7, 635904, Note_on_c, 5, 43, 64
7, 636928, Note_on_c, 5, 43, 0
7, 637440, Note_on_c, 5, 41, 64
7, 638464, Note_on_c, 5, 41, 0
7, 638976, Note_on_c, 5, 39, 64
7, 640000, Note_on_c, 5, 39, 0
7, 640512, Note_on_c, 5, 41, 64
7, 641536, Note_on_c, 5, 41, 0
7, 642048, Note_on_c, 5, 34, 64
7, 643072, Note_on_c, 5, 34, 0
7, 643072, Note_on_c, 5, 41, 64
7, 643456, Note_on_c, 5, 41, 0
7, 643584, Note_on_c, 5, 46, 64
7, 644096, Note_on_c, 5, 46, 0
7, 644096, Note_on_c, 5, 45, 64
7, 644480, Note_on_c, 5, 45, 0
7, 644608, Note_on_c, 5, 46, 64
7, 644992, Note_on_c, 5, 46, 0
7, 645120, Note_on_c, 5, 40, 64
7, 646144, Note_on_c, 5, 40, 0
7, 646656, Note_on_c, 5, 36, 64
7, 647680, Note_on_c, 5, 36, 0
7, 648192, Note_on_c, 5, 38, 64
7, 649216, Note_on_c, 5, 38, 0
7, 649728, Note_on_c, 5, 34, 64
7, 650752, Note_on_c, 5, 34, 0
7, 651264, Note_on_c, 5, 36, 64
7, 652288, Note_on_c, 5, 36, 0
7, 652288, Note_on_c, 5, 34, 64
7, 652672, Note_on_c, 5, 34, 0
7, 652800, Note_on_c, 5, 33, 64
7, 653824, Note_on_c, 5, 33, 0
7, 653824, Note_on_c, 5, 31, 64
7, 654208, Note_on_c, 5, 31, 0
7, 654336, Note_on_c, 5, 29, 64
7, 655360, Note_on_c, 5, 29, 0
7, 655360, Note_on_c, 5, 36, 64
7, 655744, Note_on_c, 5, 36, 0
7, 655872, Note_on_c, 5, 41, 64
7, 656384, Note_on_c, 5, 41, 0
7, 656384, Note_on_c, 5, 39, 64
7, 656768, Note_on_c, 5, 39, 0
7, 656896, Note_on_c, 5, 41, 64
7, 657280, Note_on_c, 5, 41, 0
7, 657408, Note_on_c, 5, 38, 64
7, 658432, Note_on_c, 5, 38, 0
7, 658944, Note_on_c, 5, 43, 64
7, 659968, Note_on_c, 5, 43, 0
7, 660480, Note_on_c, 5, 36, 64
7, 661504, Note_on_c, 5, 36, 0
7, 662016, Note_on_c, 5, 41, 64
7, 663040, Note_on_c, 5, 41, 0
7, 663552, Note_on_c, 5, 34, 64
7, 664576, Note_on_c, 5, 34, 0
7, 664576, Note_on_c, 5, 46, 64
7, 664960, Note_on_c, 5, 46, 0
7, 665088, Note_on_c, 5, 34, 64
7, 666112, Note_on_c, 5, 34, 0
7, 666112, Note_on_c, 5, 46, 64
7, 666496, Note_on_c, 5, 46, 0
7, 666624, Note_on_c, 5, 34, 64
7, 667648, Note_on_c, 5, 34, 0
7, 667648, Note_on_c, 5, 46, 64
7, 668032, Note_on_c, 5, 46, 0
7, 668160, Note_on_c, 5, 34, 64
7, 669184, Note_on_c, 5, 34, 0
7, 669184, Note_on_c, 5, 46, 64
7, 669568, Note_on_c, 5, 46, 0
7, 669696, Note_on_c, 5, 34, 64
7, 670720, Note_on_c, 5, 34, 0
7, 671232, Note_on_c, 5, 46, 64
7, 672256, Note_on_c, 5, 46, 0
7, 672768, Note_on_c, 5, 34, 64
7, 673792, Note_on_c, 5, 34, 0
7, 674304, Note_on_c, 5, 46, 64
7, 675328, Note_on_c, 5, 46, 0
7, 675328, Note_on_c, 5, 34, 64
7, 675712, Note_on_c, 5, 34, 0
7, 675840, Note_on_c, 5, 39, 64
7, 676864, Note_on_c, 5, 39, 0
7, 676864, Note_on_c, 5, 36, 64
7, 677248, Note_on_c, 5, 36, 0
7, 677376, Note_on_c, 5, 41, 64
7, 678400, Note_on_c, 5, 41, 0
7, 678400, Note_on_c, 5, 33, 64
7, 678784, Note_on_c, 5, 33, 0
7, 678912, Note_on_c, 5, 34, 64
7, 679296, Note_on_c, 5, 34, 0
7, 679424, Note_on_c, 5, 26, 64
7, 679808, Note_on_c, 5, 26, 0
7, 679936, Note_on_c, 5, 29, 64
7, 680320, Note_on_c, 5, 29, 0
7, 680448, Note_on_c, 5, 22, 64
7, 683520, Note_on_c, 5, 22, 0
7, 688128, Control_c, 5, 121, 127
7, 688128, End_track
8, 0, Start_track
8, 0, Program_c, 6, 6
8, 0, Control_c, 6, 121, 127
8, 0, Control_c, 6, 91, 127
8, 0, Control_c, 6, 7, 100
8, 0, Control_c, 6, 10, 60
8, 0, Title_t, "Cembalo"
8, 6144, Note_on_c, 6, 58, 64
8, 7168, Note_on_c, 6, 58, 0
8, 7680, Note_on_c, 6, 57, 64
8, 8704, Note_on_c, 6, 57, 0
8, 9216, Note_on_c, 6, 55, 64
8, 10240, Note_on_c, 6, 55, 0
8, 10752, Note_on_c, 6, 53, 64
8, 11776, Note_on_c, 6, 53, 0
8, 12288, Note_on_c, 6, 51, 64
8, 13312, Note_on_c, 6, 51, 0
8, 13824, Note_on_c, 6, 53, 64
8, 14848, Note_on_c, 6, 53, 0
8, 15360, Note_on_c, 6, 46, 64
8, 16384, Note_on_c, 6, 46, 0
8, 16384, Note_on_c, 6, 53, 64
8, 16768, Note_on_c, 6, 53, 0
8, 16896, Note_on_c, 6, 58, 64
8, 17408, Note_on_c, 6, 58, 0
8, 17408, Note_on_c, 6, 57, 64
8, 17792, Note_on_c, 6, 57, 0
8, 17920, Note_on_c, 6, 58, 64
8, 18304, Note_on_c, 6, 58, 0
8, 18432, Note_on_c, 6, 52, 64
8, 19456, Note_on_c, 6, 52, 0
8, 19968, Note_on_c, 6, 48, 64
8, 20992, Note_on_c, 6, 48, 0
8, 21504, Note_on_c, 6, 50, 64
8, 22528, Note_on_c, 6, 50, 0
8, 23040, Note_on_c, 6, 46, 64
8, 24064, Note_on_c, 6, 46, 0
8, 24576, Note_on_c, 6, 48, 64
8, 25600, Note_on_c, 6, 48, 0
8, 25600, Note_on_c, 6, 46, 64
8, 25984, Note_on_c, 6, 46, 0
8, 26112, Note_on_c, 6, 45, 64
8, 27136, Note_on_c, 6, 45, 0
8, 27136, Note_on_c, 6, 43, 64
8, 27520, Note_on_c, 6, 43, 0
8, 27648, Note_on_c, 6, 41, 64
8, 28672, Note_on_c, 6, 41, 0
8, 28672, Note_on_c, 6, 48, 64
8, 29056, Note_on_c, 6, 48, 0
8, 29184, Note_on_c, 6, 53, 64
8, 29696, Note_on_c, 6, 53, 0
8, 29696, Note_on_c, 6, 51, 64
8, 30080, Note_on_c, 6, 51, 0
8, 30208, Note_on_c, 6, 53, 64
8, 30592, Note_on_c, 6, 53, 0
8, 30720, Note_on_c, 6, 50, 64
8, 31744, Note_on_c, 6, 50, 0
8, 32256, Note_on_c, 6, 55, 64
8, 33280, Note_on_c, 6, 55, 0
8, 33792, Note_on_c, 6, 48, 64
8, 34816, Note_on_c, 6, 48, 0
8, 35328, Note_on_c, 6, 53, 64
8, 36352, Note_on_c, 6, 53, 0
8, 36864, Note_on_c, 6, 46, 64
8, 37888, Note_on_c, 6, 46, 0
8, 37888, Note_on_c, 6, 58, 64
8, 38272, Note_on_c, 6, 58, 0
8, 38400, Note_on_c, 6, 46, 64
8, 39424, Note_on_c, 6, 46, 0
8, 39424, Note_on_c, 6, 58, 64
8, 39808, Note_on_c, 6, 58, 0
8, 39936, Note_on_c, 6, 46, 64
8, 40960, Note_on_c, 6, 46, 0
8, 40960, Note_on_c, 6, 58, 64
8, 41344, Note_on_c, 6, 58, 0
8, 41472, Note_on_c, 6, 46, 64
8, 42496, Note_on_c, 6, 46, 0
8, 42496, Note_on_c, 6, 58, 64
8, 42880, Note_on_c, 6, 58, 0
8, 43008, Note_on_c, 6, 46, 64
8, 44032, Note_on_c, 6, 46, 0
8, 44544, Note_on_c, 6, 58, 64
8, 45568, Note_on_c, 6, 58, 0
8, 46080, Note_on_c, 6, 46, 64
8, 47104, Note_on_c, 6, 46, 0
8, 47616, Note_on_c, 6, 58, 64
8, 48640, Note_on_c, 6, 58, 0
8, 48640, Note_on_c, 6, 46, 64
8, 49024, Note_on_c, 6, 46, 0
8, 49152, Note_on_c, 6, 51, 64
8, 50176, Note_on_c, 6, 51, 0
8, 50176, Note_on_c, 6, 48, 64
8, 50560, Note_on_c, 6, 48, 0
8, 50688, Note_on_c, 6, 53, 64
8, 51712, Note_on_c, 6, 53, 0
8, 51712, Note_on_c, 6, 45, 64
8, 52096, Note_on_c, 6, 45, 0
8, 52224, Note_on_c, 6, 46, 64
8, 52608, Note_on_c, 6, 46, 0
8, 52736, Note_on_c, 6, 50, 64
8, 53120, Note_on_c, 6, 50, 0
8, 53248, Note_on_c, 6, 53, 64
8, 53632, Note_on_c, 6, 53, 0
8, 53760, Note_on_c, 6, 58, 64
8, 54144, Note_on_c, 6, 58, 0
8, 54272, Note_on_c, 6, 50, 64
8, 54656, Note_on_c, 6, 50, 0
8, 54784, Note_on_c, 6, 53, 64
8, 55168, Note_on_c, 6, 53, 0
8, 55296, Note_on_c, 6, 46, 64
8, 56320, Note_on_c, 6, 46, 0
8, 79872, Note_on_c, 6, 53, 64
8, 80896, Note_on_c, 6, 53, 0
8, 81408, Note_on_c, 6, 52, 64
8, 82432, Note_on_c, 6, 52, 0
8, 82944, Note_on_c, 6, 50, 64
8, 83968, Note_on_c, 6, 50, 0
8, 84480, Note_on_c, 6, 48, 64
8, 85504, Note_on_c, 6, 48, 0
8, 86016, Note_on_c, 6, 46, 64
8, 87040, Note_on_c, 6, 46, 0
8, 87552, Note_on_c, 6, 48, 64
8, 88576, Note_on_c, 6, 48, 0
8, 89088, Note_on_c, 6, 41, 64
8, 91648, Note_on_c, 6, 41, 0
8, 116736, Note_on_c, 6, 45, 64
8, 117760, Note_on_c, 6, 45, 0
8, 118272, Note_on_c, 6, 50, 64
8, 119296, Note_on_c, 6, 50, 0
8, 119808, Note_on_c, 6, 43, 64
8, 120832, Note_on_c, 6, 43, 0
8, 121344, Note_on_c, 6, 48, 64
8, 122368, Note_on_c, 6, 48, 0
8, 122880, Note_on_c, 6, 41, 64
8, 123904, Note_on_c, 6, 41, 0
8, 129024, Note_on_c, 6, 41, 64
8, 130048, Note_on_c, 6, 41, 0
8, 130560, Note_on_c, 6, 53, 64
8, 131584, Note_on_c, 6, 53, 0
8, 134656, Note_on_c, 6, 41, 64
8, 135040, Note_on_c, 6, 41, 0
8, 135168, Note_on_c, 6, 46, 64
8, 136192, Note_on_c, 6, 46, 0
8, 136192, Note_on_c, 6, 43, 64
8, 136576, Note_on_c, 6, 43, 0
8, 136704, Note_on_c, 6, 48, 64
8, 137728, Note_on_c, 6, 48, 0
8, 137728, Note_on_c, 6, 52, 64
8, 138112, Note_on_c, 6, 52, 0
8, 138240, Note_on_c, 6, 53, 64
8, 138624, Note_on_c, 6, 53, 0
8, 138752, Note_on_c, 6, 45, 64
8, 139136, Note_on_c, 6, 45, 0
8, 139264, Note_on_c, 6, 48, 64
8, 139648, Note_on_c, 6, 48, 0
8, 139776, Note_on_c, 6, 41, 64
8, 140800, Note_on_c, 6, 41, 0
8, 145408, Note_on_c, 6, 43, 64
8, 145664, Note_on_c, 6, 43, 0
8, 145920, Note_on_c, 6, 48, 64
8, 146944, Note_on_c, 6, 48, 0
8, 151552, Note_on_c, 6, 41, 64
8, 151808, Note_on_c, 6, 41, 0
8, 152064, Note_on_c, 6, 46, 64
8, 153088, Note_on_c, 6, 46, 0
8, 156160, Note_on_c, 6, 48, 64
8, 156544, Note_on_c, 6, 48, 0
8, 156672, Note_on_c, 6, 50, 64
8, 158208, Note_on_c, 6, 50, 0
8, 159232, Note_on_c, 6, 46, 64
8, 159616, Note_on_c, 6, 46, 0
8, 159744, Note_on_c, 6, 48, 64
8, 161280, Note_on_c, 6, 48, 0
8, 162304, Note_on_c, 6, 41, 64
8, 162688, Note_on_c, 6, 41, 0
8, 162816, Note_on_c, 6, 46, 64
8, 164352, Note_on_c, 6, 46, 0
8, 165888, Note_on_c, 6, 41, 64
8, 166912, Note_on_c, 6, 41, 0
8, 167424, Note_on_c, 6, 53, 64
8, 168448, Note_on_c, 6, 53, 0
8, 168960, Note_on_c, 6, 41, 64
8, 169984, Note_on_c, 6, 41, 0
8, 170496, Note_on_c, 6, 53, 64
8, 171520, Note_on_c, 6, 53, 0
8, 176128, Note_on_c, 6, 41, 64
8, 176512, Note_on_c, 6, 41, 0
8, 176640, Note_on_c, 6, 46, 64
8, 177664, Note_on_c, 6, 46, 0
8, 182272, Note_on_c, 6, 46, 64
8, 182656, Note_on_c, 6, 46, 0
8, 182784, Note_on_c, 6, 51, 64
8, 183808, Note_on_c, 6, 51, 0
8, 184320, Note_on_c, 6, 52, 64
8, 185344, Note_on_c, 6, 52, 0
8, 185856, Note_on_c, 6, 53, 64
8, 186880, Note_on_c, 6, 53, 0
8, 187392, Note_on_c, 6, 54, 64
8, 188416, Note_on_c, 6, 54, 0
8, 188928, Note_on_c, 6, 55, 64
8, 189952, Note_on_c, 6, 55, 0
8, 190464, Note_on_c, 6, 57, 64
8, 191488, Note_on_c, 6, 57, 0
8, 192000, Note_on_c, 6, 58, 64
8, 193024, Note_on_c, 6, 58, 0
8, 193536, Note_on_c, 6, 51, 64
8, 194560, Note_on_c, 6, 51, 0
8, 195072, Note_on_c, 6, 53, 64
8, 196096, Note_on_c, 6, 53, 0
8, 208896, Note_on_c, 6, 50, 64
8, 209920, Note_on_c, 6, 50, 0
8, 210432, Note_on_c, 6, 55, 64
8, 211456, Note_on_c, 6, 55, 0
8, 211968, Note_on_c, 6, 48, 64
8, 212992, Note_on_c, 6, 48, 0
8, 213504, Note_on_c, 6, 53, 64
8, 214528, Note_on_c, 6, 53, 0
8, 215040, Note_on_c, 6, 46, 64
8, 216064, Note_on_c, 6, 46, 0
8, 221184, Note_on_c, 6, 46, 64
8, 222208, Note_on_c, 6, 46, 0
8, 222720, Note_on_c, 6, 58, 64
8, 223744, Note_on_c, 6, 58, 0
8, 224256, Note_on_c, 6, 46, 64
8, 225280, Note_on_c, 6, 46, 0
8, 225792, Note_on_c, 6, 58, 64
8, 226816, Note_on_c, 6, 58, 0
8, 233472, Note_on_c, 6, 58, 64
8, 234496, Note_on_c, 6, 58, 0
8, 235008, Note_on_c, 6, 57, 64
8, 236032, Note_on_c, 6, 57, 0
8, 236544, Note_on_c, 6, 55, 64
8, 237568, Note_on_c, 6, 55, 0
8, 238080, Note_on_c, 6, 53, 64
8, 239104, Note_on_c, 6, 53, 0
8, 239616, Note_on_c, 6, 51, 64
8, 240640, Note_on_c, 6, 51, 0
8, 241152, Note_on_c, 6, 53, 64
8, 242176, Note_on_c, 6, 53, 0
8, 242688, Note_on_c, 6, 46, 64
8, 243712, Note_on_c, 6, 46, 0
8, 243712, Note_on_c, 6, 53, 64
8, 244096, Note_on_c, 6, 53, 0
8, 244224, Note_on_c, 6, 58, 64
8, 244736, Note_on_c, 6, 58, 0
8, 244736, Note_on_c, 6, 57, 64
8, 245120, Note_on_c, 6, 57, 0
8, 245248, Note_on_c, 6, 58, 64
8, 245632, Note_on_c, 6, 58, 0
8, 245760, Note_on_c, 6, 52, 64
8, 246784, Note_on_c, 6, 52, 0
8, 247296, Note_on_c, 6, 48, 64
8, 248320, Note_on_c, 6, 48, 0
8, 248832, Note_on_c, 6, 50, 64
8, 249856, Note_on_c, 6, 50, 0
8, 250368, Note_on_c, 6, 46, 64
8, 251392, Note_on_c, 6, 46, 0
8, 251904, Note_on_c, 6, 48, 64
8, 252928, Note_on_c, 6, 48, 0
8, 252928, Note_on_c, 6, 46, 64
8, 253312, Note_on_c, 6, 46, 0
8, 253440, Note_on_c, 6, 45, 64
8, 254464, Note_on_c, 6, 45, 0
8, 254464, Note_on_c, 6, 43, 64
8, 254848, Note_on_c, 6, 43, 0
8, 254976, Note_on_c, 6, 41, 64
8, 256000, Note_on_c, 6, 41, 0
8, 256000, Note_on_c, 6, 48, 64
8, 256384, Note_on_c, 6, 48, 0
8, 256512, Note_on_c, 6, 53, 64
8, 257024, Note_on_c, 6, 53, 0
8, 257024, Note_on_c, 6, 51, 64
8, 257408, Note_on_c, 6, 51, 0
8, 257536, Note_on_c, 6, 53, 64
8, 257920, Note_on_c, 6, 53, 0
8, 258048, Note_on_c, 6, 50, 64
8, 259072, Note_on_c, 6, 50, 0
8, 259584, Note_on_c, 6, 55, 64
8, 260608, Note_on_c, 6, 55, 0
8, 261120, Note_on_c, 6, 48, 64
8, 262144, Note_on_c, 6, 48, 0
8, 262656, Note_on_c, 6, 53, 64
8, 263680, Note_on_c, 6, 53, 0
8, 264192, Note_on_c, 6, 46, 64
8, 265216, Note_on_c, 6, 46, 0
8, 265216, Note_on_c, 6, 58, 64
8, 265600, Note_on_c, 6, 58, 0
8, 265728, Note_on_c, 6, 46, 64
8, 266752, Note_on_c, 6, 46, 0
8, 266752, Note_on_c, 6, 58, 64
8, 267136, Note_on_c, 6, 58, 0
8, 267264, Note_on_c, 6, 46, 64
8, 268288, Note_on_c, 6, 46, 0
8, 268288, Note_on_c, 6, 58, 64
8, 268672, Note_on_c, 6, 58, 0
8, 268800, Note_on_c, 6, 46, 64
8, 269824, Note_on_c, 6, 46, 0
8, 269824, Note_on_c, 6, 58, 64
8, 270208, Note_on_c, 6, 58, 0
8, 270336, Note_on_c, 6, 46, 64
8, 271360, Note_on_c, 6, 46, 0
8, 271872, Note_on_c, 6, 58, 64
8, 272896, Note_on_c, 6, 58, 0
8, 273408, Note_on_c, 6, 46, 64
8, 274432, Note_on_c, 6, 46, 0
8, 274944, Note_on_c, 6, 58, 64
8, 275968, Note_on_c, 6, 58, 0
8, 275968, Note_on_c, 6, 46, 64
8, 276352, Note_on_c, 6, 46, 0
8, 276480, Note_on_c, 6, 51, 64
8, 277504, Note_on_c, 6, 51, 0
8, 277504, Note_on_c, 6, 48, 64
8, 277888, Note_on_c, 6, 48, 0
8, 278016, Note_on_c, 6, 53, 64
8, 279040, Note_on_c, 6, 53, 0
8, 279040, Note_on_c, 6, 45, 64
8, 279424, Note_on_c, 6, 45, 0
8, 279552, Note_on_c, 6, 46, 64
8, 279936, Note_on_c, 6, 46, 0
8, 280064, Note_on_c, 6, 38, 64
8, 280448, Note_on_c, 6, 38, 0
8, 280576, Note_on_c, 6, 41, 64
8, 280960, Note_on_c, 6, 41, 0
8, 281088, Note_on_c, 6, 34, 64
8, 282112, Note_on_c, 6, 34, 0
8, 282624, Note_on_c, 6, 38, 64
8, 283648, Note_on_c, 6, 38, 0
8, 283648, Note_on_c, 6, 50, 64
8, 284032, Note_on_c, 6, 50, 0
8, 284160, Note_on_c, 6, 38, 64
8, 285184, Note_on_c, 6, 38, 0
8, 285184, Note_on_c, 6, 50, 64
8, 285568, Note_on_c, 6, 50, 0
8, 285696, Note_on_c, 6, 38, 64
8, 286720, Note_on_c, 6, 38, 0
8, 286720, Note_on_c, 6, 50, 64
8, 287104, Note_on_c, 6, 50, 0
8, 287232, Note_on_c, 6, 38, 64
8, 288256, Note_on_c, 6, 38, 0
8, 288256, Note_on_c, 6, 50, 64
8, 288640, Note_on_c, 6, 50, 0
8, 288768, Note_on_c, 6, 38, 64
8, 289792, Note_on_c, 6, 38, 0
8, 289792, Note_on_c, 6, 50, 64
8, 290176, Note_on_c, 6, 50, 0
8, 290304, Note_on_c, 6, 38, 64
8, 291328, Note_on_c, 6, 38, 0
8, 291328, Note_on_c, 6, 50, 64
8, 291712, Note_on_c, 6, 50, 0
8, 291840, Note_on_c, 6, 38, 64
8, 292864, Note_on_c, 6, 38, 0
8, 292864, Note_on_c, 6, 50, 64
8, 293248, Note_on_c, 6, 50, 0
8, 293376, Note_on_c, 6, 38, 64
8, 294400, Note_on_c, 6, 38, 0
8, 319488, Note_on_c, 6, 55, 70
8, 320512, Note_on_c, 6, 55, 0
8, 321024, Note_on_c, 6, 53, 70
8, 322048, Note_on_c, 6, 53, 0
8, 322560, Note_on_c, 6, 51, 70
8, 323584, Note_on_c, 6, 51, 0
8, 324096, Note_on_c, 6, 50, 70
8, 325120, Note_on_c, 6, 50, 0
8, 325632, Note_on_c, 6, 48, 70
8, 326656, Note_on_c, 6, 48, 0
8, 327168, Note_on_c, 6, 50, 70
8, 328192, Note_on_c, 6, 50, 0
8, 328704, Note_on_c, 6, 43, 70
8, 329728, Note_on_c, 6, 43, 0
8, 329728, Note_on_c, 6, 50, 70
8, 330112, Note_on_c, 6, 50, 0
8, 330240, Note_on_c, 6, 55, 70
8, 331264, Note_on_c, 6, 55, 0
8, 335872, Note_on_c, 6, 45, 64
8, 336128, Note_on_c, 6, 45, 0
8, 336384, Note_on_c, 6, 50, 64
8, 337408, Note_on_c, 6, 50, 0
8, 342016, Note_on_c, 6, 43, 64
8, 342272, Note_on_c, 6, 43, 0
8, 342528, Note_on_c, 6, 48, 64
8, 343552, Note_on_c, 6, 48, 0
8, 346624, Note_on_c, 6, 55, 64
8, 347008, Note_on_c, 6, 55, 0
8, 347136, Note_on_c, 6, 52, 64
8, 348672, Note_on_c, 6, 52, 0
8, 349696, Note_on_c, 6, 53, 64
8, 350080, Note_on_c, 6, 53, 0
8, 350208, Note_on_c, 6, 50, 64
8, 351744, Note_on_c, 6, 50, 0
8, 352768, Note_on_c, 6, 52, 64
8, 353280, Note_on_c, 6, 52, 0
8, 353280, Note_on_c, 6, 49, 64
8, 354816, Note_on_c, 6, 49, 0
8, 356352, Note_on_c, 6, 50, 64
8, 357376, Note_on_c, 6, 50, 0
8, 357888, Note_on_c, 6, 45, 64
8, 358912, Note_on_c, 6, 45, 0
8, 359424, Note_on_c, 6, 38, 64
8, 360448, Note_on_c, 6, 38, 0
8, 360960, Note_on_c, 6, 45, 64
8, 361984, Note_on_c, 6, 45, 0
8, 362496, Note_on_c, 6, 50, 64
8, 363520, Note_on_c, 6, 50, 0
8, 364032, Note_on_c, 6, 57, 64
8, 365056, Note_on_c, 6, 57, 0
8, 365568, Note_on_c, 6, 62, 64
8, 366592, Note_on_c, 6, 62, 0
8, 367104, Note_on_c, 6, 57, 64
8, 368128, Note_on_c, 6, 57, 0
8, 393216, Note_on_c, 6, 50, 50
8, 394240, Note_on_c, 6, 50, 0
8, 394752, Note_on_c, 6, 38, 50
8, 395776, Note_on_c, 6, 38, 0
8, 396288, Note_on_c, 6, 50, 50
8, 397312, Note_on_c, 6, 50, 0
8, 397824, Note_on_c, 6, 38, 50
8, 398848, Note_on_c, 6, 38, 0
8, 398848, Note_on_c, 6, 50, 50
8, 399232, Note_on_c, 6, 50, 0
8, 399360, Note_on_c, 6, 55, 50
8, 400384, Note_on_c, 6, 55, 0
8, 400384, Note_on_c, 6, 52, 50
8, 400768, Note_on_c, 6, 52, 0
8, 400896, Note_on_c, 6, 57, 50
8, 401920, Note_on_c, 6, 57, 0
8, 401920, Note_on_c, 6, 49, 50
8, 402304, Note_on_c, 6, 49, 0
8, 402432, Note_on_c, 6, 50, 50
8, 402816, Note_on_c, 6, 50, 0
8, 402944, Note_on_c, 6, 41, 50
8, 403328, Note_on_c, 6, 41, 0
8, 403456, Note_on_c, 6, 45, 50
8, 403840, Note_on_c, 6, 45, 0
8, 403968, Note_on_c, 6, 38, 50
8, 404931, Note_on_c, 6, 38, 0
8, 405504, Note_on_c, 6, 58, 64
8, 406528, Note_on_c, 6, 58, 0
8, 407040, Note_on_c, 6, 57, 64
8, 408064, Note_on_c, 6, 57, 0
8, 408576, Note_on_c, 6, 55, 64
8, 409600, Note_on_c, 6, 55, 0
8, 410112, Note_on_c, 6, 53, 64
8, 411136, Note_on_c, 6, 53, 0
8, 411648, Note_on_c, 6, 51, 64
8, 412672, Note_on_c, 6, 51, 0
8, 413184, Note_on_c, 6, 53, 64
8, 414208, Note_on_c, 6, 53, 0
8, 414720, Note_on_c, 6, 46, 64
8, 415744, Note_on_c, 6, 46, 0
8, 415744, Note_on_c, 6, 53, 64
8, 416128, Note_on_c, 6, 53, 0
8, 416256, Note_on_c, 6, 58, 64
8, 416768, Note_on_c, 6, 58, 0
8, 416768, Note_on_c, 6, 57, 64
8, 417152, Note_on_c, 6, 57, 0
8, 417280, Note_on_c, 6, 58, 64
8, 417664, Note_on_c, 6, 58, 0
8, 417792, Note_on_c, 6, 52, 64
8, 418816, Note_on_c, 6, 52, 0
8, 419328, Note_on_c, 6, 48, 64
8, 420352, Note_on_c, 6, 48, 0
8, 420864, Note_on_c, 6, 50, 64
8, 421888, Note_on_c, 6, 50, 0
8, 422400, Note_on_c, 6, 46, 64
8, 423424, Note_on_c, 6, 46, 0
8, 423936, Note_on_c, 6, 48, 64
8, 424960, Note_on_c, 6, 48, 0
8, 424960, Note_on_c, 6, 46, 64
8, 425344, Note_on_c, 6, 46, 0
8, 425472, Note_on_c, 6, 45, 64
8, 426496, Note_on_c, 6, 45, 0
8, 426496, Note_on_c, 6, 43, 64
8, 426880, Note_on_c, 6, 43, 0
8, 427008, Note_on_c, 6, 41, 64
8, 428032, Note_on_c, 6, 41, 0
8, 428032, Note_on_c, 6, 48, 64
8, 428416, Note_on_c, 6, 48, 0
8, 428544, Note_on_c, 6, 53, 64
8, 429056, Note_on_c, 6, 53, 0
8, 429056, Note_on_c, 6, 51, 64
8, 429440, Note_on_c, 6, 51, 0
8, 429568, Note_on_c, 6, 53, 64
8, 429952, Note_on_c, 6, 53, 0
8, 430080, Note_on_c, 6, 50, 64
8, 431104, Note_on_c, 6, 50, 0
8, 431616, Note_on_c, 6, 55, 64
8, 432640, Note_on_c, 6, 55, 0
8, 433152, Note_on_c, 6, 48, 64
8, 434176, Note_on_c, 6, 48, 0
8, 434688, Note_on_c, 6, 53, 64
8, 435712, Note_on_c, 6, 53, 0
8, 436224, Note_on_c, 6, 46, 64
8, 437248, Note_on_c, 6, 46, 0
8, 437248, Note_on_c, 6, 58, 64
8, 437632, Note_on_c, 6, 58, 0
8, 437760, Note_on_c, 6, 46, 64
8, 438784, Note_on_c, 6, 46, 0
8, 438784, Note_on_c, 6, 58, 64
8, 439168, Note_on_c, 6, 58, 0
8, 439296, Note_on_c, 6, 46, 64
8, 440320, Note_on_c, 6, 46, 0
8, 440320, Note_on_c, 6, 58, 64
8, 440704, Note_on_c, 6, 58, 0
8, 440832, Note_on_c, 6, 46, 64
8, 441856, Note_on_c, 6, 46, 0
8, 441856, Note_on_c, 6, 58, 64
8, 442240, Note_on_c, 6, 58, 0
8, 442368, Note_on_c, 6, 46, 64
8, 443392, Note_on_c, 6, 46, 0
8, 443904, Note_on_c, 6, 58, 64
8, 444928, Note_on_c, 6, 58, 0
8, 445440, Note_on_c, 6, 46, 64
8, 446464, Note_on_c, 6, 46, 0
8, 446976, Note_on_c, 6, 58, 64
8, 448000, Note_on_c, 6, 58, 0
8, 448000, Note_on_c, 6, 46, 64
8, 448384, Note_on_c, 6, 46, 0
8, 448512, Note_on_c, 6, 51, 64
8, 449536, Note_on_c, 6, 51, 0
8, 449536, Note_on_c, 6, 48, 64
8, 449920, Note_on_c, 6, 48, 0
8, 450048, Note_on_c, 6, 53, 64
8, 451072, Note_on_c, 6, 53, 0
8, 451072, Note_on_c, 6, 45, 64
8, 451456, Note_on_c, 6, 45, 0
8, 451584, Note_on_c, 6, 46, 64
8, 451968, Note_on_c, 6, 46, 0
8, 452096, Note_on_c, 6, 50, 64
8, 452480, Note_on_c, 6, 50, 0
8, 452608, Note_on_c, 6, 53, 64
8, 452992, Note_on_c, 6, 53, 0
8, 453120, Note_on_c, 6, 58, 64
8, 453504, Note_on_c, 6, 58, 0
8, 453632, Note_on_c, 6, 50, 64
8, 454016, Note_on_c, 6, 50, 0
8, 454144, Note_on_c, 6, 53, 64
8, 454528, Note_on_c, 6, 53, 0
8, 454656, Note_on_c, 6, 46, 64
8, 455680, Note_on_c, 6, 46, 0
8, 479232, Note_on_c, 6, 53, 64
8, 480256, Note_on_c, 6, 53, 0
8, 480768, Note_on_c, 6, 52, 64
8, 481792, Note_on_c, 6, 52, 0
8, 482304, Note_on_c, 6, 50, 64
8, 483328, Note_on_c, 6, 50, 0
8, 483840, Note_on_c, 6, 48, 64
8, 484864, Note_on_c, 6, 48, 0
8, 485376, Note_on_c, 6, 46, 64
8, 486400, Note_on_c, 6, 46, 0
8, 486912, Note_on_c, 6, 48, 64
8, 487936, Note_on_c, 6, 48, 0
8, 488448, Note_on_c, 6, 41, 64
8, 491008, Note_on_c, 6, 41, 0
8, 516096, Note_on_c, 6, 45, 64
8, 517120, Note_on_c, 6, 45, 0
8, 517632, Note_on_c, 6, 50, 64
8, 518656, Note_on_c, 6, 50, 0
8, 519168, Note_on_c, 6, 43, 64
8, 520192, Note_on_c, 6, 43, 0
8, 520704, Note_on_c, 6, 48, 64
8, 521728, Note_on_c, 6, 48, 0
8, 522240, Note_on_c, 6, 41, 64
8, 523264, Note_on_c, 6, 41, 0
8, 528384, Note_on_c, 6, 41, 64
8, 529408, Note_on_c, 6, 41, 0
8, 529920, Note_on_c, 6, 53, 64
8, 530944, Note_on_c, 6, 53, 0
8, 534016, Note_on_c, 6, 41, 64
8, 534400, Note_on_c, 6, 41, 0
8, 534528, Note_on_c, 6, 46, 64
8, 535552, Note_on_c, 6, 46, 0
8, 535552, Note_on_c, 6, 43, 64
8, 535936, Note_on_c, 6, 43, 0
8, 536064, Note_on_c, 6, 48, 64
8, 537088, Note_on_c, 6, 48, 0
8, 537088, Note_on_c, 6, 52, 64
8, 537472, Note_on_c, 6, 52, 0
8, 537600, Note_on_c, 6, 53, 64
8, 537984, Note_on_c, 6, 53, 0
8, 538112, Note_on_c, 6, 45, 64
8, 538496, Note_on_c, 6, 45, 0
8, 538624, Note_on_c, 6, 48, 64
8, 539008, Note_on_c, 6, 48, 0
8, 539136, Note_on_c, 6, 41, 64
8, 540160, Note_on_c, 6, 41, 0
8, 544768, Note_on_c, 6, 43, 64
8, 545024, Note_on_c, 6, 43, 0
8, 545280, Note_on_c, 6, 48, 64
8, 546304, Note_on_c, 6, 48, 0
8, 550912, Note_on_c, 6, 41, 64
8, 551168, Note_on_c, 6, 41, 0
8, 551424, Note_on_c, 6, 46, 64
8, 552448, Note_on_c, 6, 46, 0
8, 555520, Note_on_c, 6, 48, 64
8, 555904, Note_on_c, 6, 48, 0
8, 556032, Note_on_c, 6, 50, 64
8, 557568, Note_on_c, 6, 50, 0
8, 558592, Note_on_c, 6, 46, 64
8, 558976, Note_on_c, 6, 46, 0
8, 559104, Note_on_c, 6, 48, 64
8, 560640, Note_on_c, 6, 48, 0
8, 561664, Note_on_c, 6, 41, 64
8, 562048, Note_on_c, 6, 41, 0
8, 562176, Note_on_c, 6, 46, 64
8, 563712, Note_on_c, 6, 46, 0
8, 565248, Note_on_c, 6, 41, 64
8, 566272, Note_on_c, 6, 41, 0
8, 566784, Note_on_c, 6, 53, 64
8, 567808, Note_on_c, 6, 53, 0
8, 568320, Note_on_c, 6, 41, 64
8, 569344, Note_on_c, 6, 41, 0
8, 569856, Note_on_c, 6, 53, 64
8, 570880, Note_on_c, 6, 53, 0
8, 575488, Note_on_c, 6, 41, 64
8, 575872, Note_on_c, 6, 41, 0
8, 576000, Note_on_c, 6, 46, 64
8, 577024, Note_on_c, 6, 46, 0
8, 581632, Note_on_c, 6, 46, 64
8, 582016, Note_on_c, 6, 46, 0
8, 582144, Note_on_c, 6, 51, 64
8, 583168, Note_on_c, 6, 51, 0
8, 583680, Note_on_c, 6, 52, 64
8, 584704, Note_on_c, 6, 52, 0
8, 585216, Note_on_c, 6, 53, 64
8, 586240, Note_on_c, 6, 53, 0
8, 586752, Note_on_c, 6, 54, 64
8, 587776, Note_on_c, 6, 54, 0
8, 588288, Note_on_c, 6, 55, 64
8, 589312, Note_on_c, 6, 55, 0
8, 589824, Note_on_c, 6, 57, 64
8, 590848, Note_on_c, 6, 57, 0
8, 591360, Note_on_c, 6, 58, 64
8, 592384, Note_on_c, 6, 58, 0
8, 592896, Note_on_c, 6, 51, 64
8, 593920, Note_on_c, 6, 51, 0
8, 594432, Note_on_c, 6, 53, 64
8, 595456, Note_on_c, 6, 53, 0
8, 608256, Note_on_c, 6, 50, 64
8, 609280, Note_on_c, 6, 50, 0
8, 609792, Note_on_c, 6, 55, 64
8, 610816, Note_on_c, 6, 55, 0
8, 611328, Note_on_c, 6, 48, 64
8, 612352, Note_on_c, 6, 48, 0
8, 612864, Note_on_c, 6, 53, 64
8, 613888, Note_on_c, 6, 53, 0
8, 614400, Note_on_c, 6, 46, 64
8, 615424, Note_on_c, 6, 46, 0
8, 620544, Note_on_c, 6, 46, 64
8, 621568, Note_on_c, 6, 46, 0
8, 622080, Note_on_c, 6, 58, 64
8, 623104, Note_on_c, 6, 58, 0
8, 623616, Note_on_c, 6, 46, 64
8, 624640, Note_on_c, 6, 46, 0
8, 625152, Note_on_c, 6, 58, 64
8, 626176, Note_on_c, 6, 58, 0
8, 632832, Note_on_c, 6, 58, 64
8, 633856, Note_on_c, 6, 58, 0
8, 634368, Note_on_c, 6, 57, 64
8, 635392, Note_on_c, 6, 57, 0
8, 635904, Note_on_c, 6, 55, 64
8, 636928, Note_on_c, 6, 55, 0
8, 637440, Note_on_c, 6, 53, 64
8, 638464, Note_on_c, 6, 53, 0
8, 638976, Note_on_c, 6, 51, 64
8, 640000, Note_on_c, 6, 51, 0
8, 640512, Note_on_c, 6, 53, 64
8, 641536, Note_on_c, 6, 53, 0
8, 642048, Note_on_c, 6, 46, 64
8, 643072, Note_on_c, 6, 46, 0
8, 643072, Note_on_c, 6, 53, 64
8, 643456, Note_on_c, 6, 53, 0
8, 643584, Note_on_c, 6, 58, 64
8, 644096, Note_on_c, 6, 58, 0
8, 644096, Note_on_c, 6, 57, 64
8, 644480, Note_on_c, 6, 57, 0
8, 644608, Note_on_c, 6, 58, 64
8, 644992, Note_on_c, 6, 58, 0
8, 645120, Note_on_c, 6, 52, 64
8, 646144, Note_on_c, 6, 52, 0
8, 646656, Note_on_c, 6, 48, 64
8, 647680, Note_on_c, 6, 48, 0
8, 648192, Note_on_c, 6, 50, 64
8, 649216, Note_on_c, 6, 50, 0
8, 649728, Note_on_c, 6, 46, 64
8, 650752, Note_on_c, 6, 46, 0
8, 651264, Note_on_c, 6, 48, 64
8, 652288, Note_on_c, 6, 48, 0
8, 652288, Note_on_c, 6, 46, 64
8, 652672, Note_on_c, 6, 46, 0
8, 652800, Note_on_c, 6, 45, 64
8, 653824, Note_on_c, 6, 45, 0
8, 653824, Note_on_c, 6, 43, 64
8, 654208, Note_on_c, 6, 43, 0
8, 654336, Note_on_c, 6, 41, 64
8, 655360, Note_on_c, 6, 41, 0
8, 655360, Note_on_c, 6, 48, 64
8, 655744, Note_on_c, 6, 48, 0
8, 655872, Note_on_c, 6, 53, 64
8, 656384, Note_on_c, 6, 53, 0
8, 656384, Note_on_c, 6, 51, 64
8, 656768, Note_on_c, 6, 51, 0
8, 656896, Note_on_c, 6, 53, 64
8, 657280, Note_on_c, 6, 53, 0
8, 657408, Note_on_c, 6, 50, 64
8, 658432, Note_on_c, 6, 50, 0
8, 658944, Note_on_c, 6, 55, 64
8, 659968, Note_on_c, 6, 55, 0
8, 660480, Note_on_c, 6, 48, 64
8, 661504, Note_on_c, 6, 48, 0
8, 662016, Note_on_c, 6, 53, 64
8, 663040, Note_on_c, 6, 53, 0
8, 663552, Note_on_c, 6, 46, 64
8, 664576, Note_on_c, 6, 46, 0
8, 664576, Note_on_c, 6, 58, 64
8, 664960, Note_on_c, 6, 58, 0
8, 665088, Note_on_c, 6, 46, 64
8, 666112, Note_on_c, 6, 46, 0
8, 666112, Note_on_c, 6, 58, 64
8, 666496, Note_on_c, 6, 58, 0
8, 666624, Note_on_c, 6, 46, 64
8, 667648, Note_on_c, 6, 46, 0
8, 667648, Note_on_c, 6, 58, 64
8, 668032, Note_on_c, 6, 58, 0
8, 668160, Note_on_c, 6, 46, 64
8, 669184, Note_on_c, 6, 46, 0
8, 669184, Note_on_c, 6, 58, 64
8, 669568, Note_on_c, 6, 58, 0
8, 669696, Note_on_c, 6, 46, 64
8, 670720, Note_on_c, 6, 46, 0
8, 671232, Note_on_c, 6, 58, 64
8, 672256, Note_on_c, 6, 58, 0
8, 672768, Note_on_c, 6, 46, 64
8, 673792, Note_on_c, 6, 46, 0
8, 674304, Note_on_c, 6, 58, 64
8, 675328, Note_on_c, 6, 58, 0
8, 675328, Note_on_c, 6, 46, 64
8, 675712, Note_on_c, 6, 46, 0
8, 675840, Note_on_c, 6, 51, 64
8, 676864, Note_on_c, 6, 51, 0
8, 676864, Note_on_c, 6, 48, 64
8, 677248, Note_on_c, 6, 48, 0
8, 677376, Note_on_c, 6, 53, 64
8, 678400, Note_on_c, 6, 53, 0
8, 678400, Note_on_c, 6, 45, 64
8, 678784, Note_on_c, 6, 45, 0
8, 678912, Note_on_c, 6, 46, 64
8, 679296, Note_on_c, 6, 46, 0
8, 679424, Note_on_c, 6, 38, 64
8, 679808, Note_on_c, 6, 38, 0
8, 679936, Note_on_c, 6, 41, 64
8, 680320, Note_on_c, 6, 41, 0
8, 680448, Note_on_c, 6, 34, 64
8, 683520, Note_on_c, 6, 34, 0
8, 688128, Control_c, 6, 121, 127
8, 688128, End_track
9, 0, Start_track
9, 0, Title_t, "seq. by David Siu   dss@po.cwru.edu"
9, 688128, End_track
0, 0, End_of_file
