0, 0, Header, 1, 2, 500
1, 0, Start_track
1, 0, Title_t, 'example'
1, 0, Tempo, 250000
1, 0, Time_signature, 4, 2, 24, 8
1, 0, End_track
2, 0, Start_track
2, 0, Title_t, 'Instrument Track 01'
2, 0, Program_c, 6, 6
2, 0, Note_on_c, 0, 65, 100
2, 5500, Note_off_c, 0, 65, 64
2, 7000, Note_on_c, 0, 70, 100
2, 7500, Note_on_c, 0, 65, 100
2, 8000, Note_on_c, 0, 62, 100
2, 8500, Note_on_c, 0, 58, 100
2, 9000, Note_on_c, 0, 46, 100
2, 16500, Note_off_c, 0, 70, 64
2, 17000, Note_on_c, 0, 69, 100
2, 22500, Note_off_c, 0, 69, 64
2, 24000, Note_on_c, 0, 70, 100
2, 24500, Note_off_c, 0, 65, 64
2, 25000, Note_off_c, 0, 62, 64
2, 25500, Note_off_c, 0, 58, 64
2, 26000, Note_off_c, 0, 46, 64
2, 31500, Note_off_c, 0, 70, 64
2, 33000, Note_on_c, 0, 62, 100
2, 33500, Note_on_c, 0, 65, 100
2, 34000, Note_on_c, 0, 58, 100
2, 34500, Note_on_c, 0, 57, 100
2, 35000, Note_on_c, 0, 45, 100
2, 42500, Note_off_c, 0, 62, 64
2, 43000, Note_off_c, 0, 65, 64
2, 48500, Note_on_c, 0, 65, 100
2, 50000, Note_on_c, 0, 70, 100
2, 50500, Note_off_c, 0, 65, 64
2, 51000, Note_off_c, 0, 58, 64
2, 51500, Note_off_c, 0, 57, 64
2, 52000, Note_off_c, 0, 45, 64
2, 57500, Note_off_c, 0, 70, 64
2, 59000, Note_on_c, 0, 70, 100
2, 59500, Note_on_c, 0, 67, 100
2, 60000, Note_on_c, 0, 62, 100
2, 60500, Note_on_c, 0, 55, 100
2, 61000, Note_on_c, 0, 43, 100
2, 68500, Note_off_c, 0, 70, 64
2, 69000, Note_on_c, 0, 69, 100
2, 74500, Note_off_c, 0, 69, 64
2, 76000, Note_on_c, 0, 70, 100
2, 76500, Note_off_c, 0, 67, 64
2, 77000, Note_off_c, 0, 62, 64
2, 77500, Note_off_c, 0, 55, 64
2, 78000, Note_off_c, 0, 43, 64
2, 83500, Note_off_c, 0, 70, 64
2, 85000, Note_on_c, 0, 62, 100
2, 85500, Note_on_c, 0, 70, 100
2, 86000, Note_on_c, 0, 65, 100
2, 86500, Note_on_c, 0, 53, 100
2, 87000, Note_on_c, 0, 41, 100
2, 94500, Note_off_c, 0, 62, 64
2, 95000, Note_off_c, 0, 65, 64
2, 100500, Note_on_c, 0, 65, 100
2, 102000, Note_off_c, 0, 70, 64
2, 102500, Note_off_c, 0, 65, 64
2, 103000, Note_off_c, 0, 53, 64
2, 103500, Note_off_c, 0, 41, 64
2, 109000, Note_on_c, 0, 70, 100
2, 110500, Note_on_c, 0, 72, 100
2, 111000, Note_off_c, 0, 70, 64
2, 111500, Note_on_c, 0, 67, 100
2, 112000, Note_on_c, 0, 51, 100
2, 112500, Note_on_c, 0, 39, 100
2, 120000, Note_off_c, 0, 72, 64
2, 120500, Note_on_c, 0, 70, 100
2, 126000, Note_off_c, 0, 70, 64
2, 127500, Note_on_c, 0, 72, 100
2, 128000, Note_on_c, 0, 70, 100
2, 128500, Note_off_c, 0, 67, 64
2, 129000, Note_off_c, 0, 51, 64
2, 129500, Note_off_c, 0, 39, 64
2, 135000, Note_off_c, 0, 72, 64
2, 136500, Note_on_c, 0, 65, 100
2, 137000, Note_on_c, 0, 69, 100
2, 137500, Note_on_c, 0, 53, 100
2, 138000, Note_on_c, 0, 41, 100
2, 145500, Note_off_c, 0, 65, 64
2, 146000, Note_off_c, 0, 69, 64
2, 151500, Note_on_c, 0, 69, 100
2, 153000, Note_on_c, 0, 72, 100
2, 153500, Note_off_c, 0, 69, 64
2, 154000, Note_on_c, 0, 65, 100
2, 154500, Note_off_c, 0, 53, 64
2, 155000, Note_off_c, 0, 41, 64
2, 160500, Note_off_c, 0, 72, 64
2, 162000, Note_on_c, 0, 74, 100
2, 162500, Note_off_c, 0, 70, 64
2, 163000, Note_off_c, 0, 65, 64
2, 163500, Note_on_c, 0, 46, 100
2, 164000, Note_on_c, 0, 34, 100
2, 171500, Note_off_c, 0, 74, 64
2, 172000, Note_on_c, 0, 72, 100
2, 172500, Note_on_c, 0, 70, 100
2, 173000, Note_on_c, 0, 69, 100
2, 173500, Note_on_c, 0, 65, 100
2, 174000, Note_on_c, 0, 63, 100
2, 179500, Note_off_c, 0, 72, 64
2, 180000, Note_off_c, 0, 69, 64
2, 180500, Note_off_c, 0, 63, 64
2, 182000, Note_on_c, 0, 74, 100
2, 182500, Note_off_c, 0, 70, 64
2, 183000, Note_off_c, 0, 65, 64
2, 183500, Note_off_c, 0, 46, 64
2, 184000, Note_on_c, 0, 53, 100
2, 184500, Note_off_c, 0, 34, 64
2, 185000, Note_on_c, 0, 41, 100
2, 190500, Note_off_c, 0, 74, 64
2, 191000, Note_on_c, 0, 70, 100
2, 191500, Note_on_c, 0, 65, 100
2, 192000, Note_off_c, 0, 53, 64
2, 192500, Note_off_c, 0, 41, 64
2, 194000, Note_off_c, 0, 70, 64
2, 194500, Note_off_c, 0, 65, 64
2, 195000, Note_on_c, 0, 62, 100
2, 195500, Note_on_c, 0, 58, 100
2, 196000, Note_on_c, 0, 46, 100
2, 203500, Note_off_c, 0, 62, 64
2, 204000, Note_on_c, 0, 60, 100
2, 204500, Note_off_c, 0, 58, 64
2, 205000, Note_on_c, 0, 57, 100
2, 205500, Note_off_c, 0, 46, 64
2, 206000, Note_on_c, 0, 45, 100
2, 211500, Note_off_c, 0, 60, 64
2, 212000, Note_off_c, 0, 57, 64
2, 212500, Note_off_c, 0, 45, 64
2, 214000, Note_on_c, 0, 70, 100
2, 214500, Note_on_c, 0, 74, 100
2, 215000, Note_on_c, 0, 65, 100
2, 215500, Note_on_c, 0, 62, 100
2, 216000, Note_on_c, 0, 58, 100
2, 216500, Note_on_c, 0, 46, 100
2, 222000, Note_off_c, 0, 65, 64
2, 222500, Note_off_c, 0, 62, 64
2, 223000, Note_off_c, 0, 58, 64
2, 223500, Note_off_c, 0, 46, 64
2, 225000, Note_on_c, 0, 67, 100
2, 225500, Note_on_c, 0, 55, 100
2, 226000, Note_on_c, 0, 52, 100
2, 226500, Note_on_c, 0, 40, 100
2, 234000, Note_off_c, 0, 74, 64
2, 234500, Note_off_c, 0, 67, 64
2, 240000, Note_on_c, 0, 67, 100
2, 241500, Note_off_c, 0, 70, 64
2, 242000, Note_off_c, 0, 67, 64
2, 242500, Note_off_c, 0, 55, 64
2, 243000, Note_off_c, 0, 52, 64
2, 243500, Note_off_c, 0, 40, 64
2, 251000, Note_on_c, 0, 67, 100
2, 251500, Note_on_c, 0, 64, 100
2, 252000, Note_on_c, 0, 48, 100
2, 252500, Note_on_c, 0, 36, 100
2, 260000, Note_on_c, 0, 70, 100
2, 260500, Note_off_c, 0, 64, 64
2, 266000, Note_on_c, 0, 64, 100
2, 267500, Note_on_c, 0, 72, 100
2, 268000, Note_off_c, 0, 67, 64
2, 268500, Note_off_c, 0, 64, 64
2, 269000, Note_off_c, 0, 48, 64
2, 269500, Note_off_c, 0, 36, 64
2, 277000, Note_on_c, 0, 65, 100
2, 277500, Note_on_c, 0, 57, 100
2, 278000, Note_on_c, 0, 50, 100
2, 278500, Note_on_c, 0, 38, 100
2, 286000, Note_off_c, 0, 72, 64
2, 286500, Note_off_c, 0, 65, 64
2, 292000, Note_on_c, 0, 65, 100
2, 293500, Note_on_c, 0, 69, 100
2, 294000, Note_off_c, 0, 65, 64
2, 294500, Note_off_c, 0, 57, 64
2, 295000, Note_off_c, 0, 50, 64
2, 295500, Note_off_c, 0, 38, 64
2, 303000, Note_on_c, 0, 65, 100
2, 303500, Note_on_c, 0, 62, 100
2, 304000, Note_on_c, 0, 46, 100
2, 304500, Note_on_c, 0, 34, 100
2, 312000, Note_off_c, 0, 69, 64
2, 312500, Note_off_c, 0, 62, 64
2, 318000, Note_on_c, 0, 62, 100
2, 319500, Note_off_c, 0, 70, 64
2, 320000, Note_off_c, 0, 65, 64
2, 320500, Note_off_c, 0, 62, 64
2, 321000, Note_off_c, 0, 46, 64
2, 321500, Note_off_c, 0, 34, 64
2, 329000, Note_on_c, 0, 64, 100
2, 329500, Note_on_c, 0, 55, 100
2, 330000, Note_on_c, 0, 48, 100
2, 330500, Note_on_c, 0, 36, 100
2, 338000, Note_on_c, 0, 70, 100
2, 338500, Note_off_c, 0, 64, 64
2, 344000, Note_on_c, 0, 64, 100
2, 345500, Note_on_c, 0, 67, 100
2, 346000, Note_off_c, 0, 64, 64
2, 346500, Note_on_c, 0, 60, 100
2, 347000, Note_off_c, 0, 55, 64
2, 347500, Note_on_c, 0, 52, 100
2, 348000, Note_off_c, 0, 48, 64
2, 348500, Note_on_c, 0, 46, 100
2, 349000, Note_off_c, 0, 36, 64
2, 349500, Note_on_c, 0, 34, 100
2, 355000, Note_off_c, 0, 60, 64
2, 355500, Note_off_c, 0, 52, 64
2, 356000, Note_off_c, 0, 46, 64
2, 356500, Note_off_c, 0, 34, 64
2, 358000, Note_on_c, 0, 60, 100
2, 358500, Note_on_c, 0, 57, 100
2, 359000, Note_on_c, 0, 45, 100
2, 359500, Note_on_c, 0, 33, 100
2, 367000, Note_off_c, 0, 67, 64
2, 367500, Note_off_c, 0, 60, 64
2, 373000, Note_on_c, 0, 60, 100
2, 374500, Note_off_c, 0, 70, 64
2, 375000, Note_off_c, 0, 60, 64
2, 375500, Note_on_c, 0, 64, 100
2, 376000, Note_off_c, 0, 57, 64
2, 376500, Note_on_c, 0, 58, 100
2, 377000, Note_off_c, 0, 45, 64
2, 377500, Note_on_c, 0, 43, 100
2, 378000, Note_off_c, 0, 33, 64
2, 378500, Note_on_c, 0, 31, 100
2, 384000, Note_on_c, 0, 70, 100
2, 384500, Note_off_c, 0, 64, 64
2, 385000, Note_off_c, 0, 58, 64
2, 385500, Note_off_c, 0, 43, 64
2, 386000, Note_off_c, 0, 31, 64
2, 387500, Note_on_c, 0, 69, 100
2, 388000, Note_on_c, 0, 65, 100
2, 388500, Note_on_c, 0, 60, 100
2, 389000, Note_on_c, 0, 41, 100
2, 389500, Note_on_c, 0, 29, 100
2, 397000, Note_off_c, 0, 69, 64
2, 397500, Note_on_c, 0, 67, 100
2, 398000, Note_off_c, 0, 65, 64
2, 398500, Note_on_c, 0, 64, 100
2, 399000, Note_off_c, 0, 60, 64
2, 399500, Note_on_c, 0, 58, 100
2, 405000, Note_off_c, 0, 67, 64
2, 405500, Note_off_c, 0, 64, 64
2, 406000, Note_off_c, 0, 58, 64
2, 407500, Note_on_c, 0, 69, 100
2, 408000, Note_on_c, 0, 65, 100
2, 408500, Note_on_c, 0, 60, 100
2, 409000, Note_off_c, 0, 41, 64
2, 409500, Note_on_c, 0, 48, 100
2, 410000, Note_on_c, 0, 36, 100
2, 410500, Note_off_c, 0, 29, 64
2, 416000, Note_off_c, 0, 69, 64
2, 416500, Note_off_c, 0, 65, 64
2, 417000, Note_off_c, 0, 60, 64
2, 417500, Note_off_c, 0, 48, 64
2, 418000, Note_off_c, 0, 36, 64
2, 419500, Note_on_c, 0, 65, 100
2, 420000, Note_on_c, 0, 60, 100
2, 420500, Note_on_c, 0, 57, 100
2, 421000, Note_on_c, 0, 53, 100
2, 421500, Note_on_c, 0, 41, 100
2, 429000, Note_off_c, 0, 65, 64
2, 429500, Note_on_c, 0, 69, 100
2, 430000, Note_off_c, 0, 57, 64
2, 430500, Note_on_c, 0, 55, 100
2, 431000, Note_off_c, 0, 53, 64
2, 431500, Note_on_c, 0, 51, 100
2, 432000, Note_off_c, 0, 41, 64
2, 432500, Note_on_c, 0, 39, 100
2, 438000, Note_off_c, 0, 69, 64
2, 438500, Note_off_c, 0, 55, 64
2, 439000, Note_off_c, 0, 51, 64
2, 439500, Note_off_c, 0, 39, 64
2, 441000, Note_on_c, 0, 72, 100
2, 441500, Note_off_c, 0, 60, 64
2, 442000, Note_on_c, 0, 65, 100
2, 442500, Note_on_c, 0, 57, 100
2, 443000, Note_on_c, 0, 53, 100
2, 443500, Note_on_c, 0, 41, 100
2, 449000, Note_off_c, 0, 72, 64
2, 449500, Note_off_c, 0, 65, 64
2, 450000, Note_off_c, 0, 57, 64
2, 450500, Note_off_c, 0, 53, 64
2, 451000, Note_off_c, 0, 41, 64
2, 452500, Note_on_c, 0, 77, 100
2, 453000, Note_on_c, 0, 65, 100
2, 453500, Note_on_c, 0, 58, 100
2, 454000, Note_on_c, 0, 50, 100
2, 454500, Note_on_c, 0, 38, 100
2, 460000, Note_off_c, 0, 77, 64
2, 461500, Note_off_c, 0, 70, 64
2, 467000, Note_on_c, 0, 70, 100
2, 468500, Note_on_c, 0, 74, 100
2, 469000, Note_off_c, 0, 65, 64
2, 469500, Note_off_c, 0, 58, 64
2, 470000, Note_off_c, 0, 50, 64
2, 470500, Note_off_c, 0, 38, 64
2, 478000, Note_on_c, 0, 65, 100
2, 478500, Note_on_c, 0, 58, 100
2, 479000, Note_on_c, 0, 55, 100
2, 479500, Note_on_c, 0, 43, 100
2, 487000, Note_off_c, 0, 74, 64
2, 487500, Note_on_c, 0, 67, 100
2, 493000, Note_off_c, 0, 67, 64
2, 494500, Note_on_c, 0, 75, 100
2, 495000, Note_off_c, 0, 65, 64
2, 495500, Note_off_c, 0, 58, 64
2, 496000, Note_off_c, 0, 55, 64
2, 496500, Note_off_c, 0, 43, 64
2, 504000, Note_on_c, 0, 63, 100
2, 504500, Note_on_c, 0, 58, 100
2, 505000, Note_on_c, 0, 48, 100
2, 505500, Note_on_c, 0, 36, 100
2, 513000, Note_off_c, 0, 75, 64
2, 513500, Note_on_c, 0, 69, 100
2, 519000, Note_off_c, 0, 69, 64
2, 520500, Note_on_c, 0, 72, 100
2, 521000, Note_off_c, 0, 63, 64
2, 521500, Note_off_c, 0, 58, 64
2, 522000, Note_off_c, 0, 48, 64
2, 522500, Note_off_c, 0, 36, 64
2, 530000, Note_on_c, 0, 65, 100
2, 530500, Note_on_c, 0, 57, 100
2, 531000, Note_on_c, 0, 53, 100
2, 531500, Note_on_c, 0, 41, 100
2, 539000, Note_off_c, 0, 72, 64
2, 539500, Note_off_c, 0, 65, 64
2, 545000, Note_on_c, 0, 65, 100
2, 546500, Note_on_c, 0, 74, 100
2, 547000, Note_off_c, 0, 65, 64
2, 547500, Note_off_c, 0, 57, 64
2, 548000, Note_off_c, 0, 53, 64
2, 548500, Note_off_c, 0, 41, 64
2, 556000, Note_on_c, 0, 65, 100
2, 556500, Note_on_c, 0, 58, 100
2, 557000, Note_on_c, 0, 46, 100
2, 557500, Note_on_c, 0, 34, 100
2, 565000, Note_off_c, 0, 74, 64
2, 565500, Note_off_c, 0, 65, 64
2, 566000, Note_on_c, 0, 62, 100
2, 571500, Note_on_c, 0, 65, 100
2, 572000, Note_off_c, 0, 62, 64
2, 573500, Note_off_c, 0, 70, 64
2, 574000, Note_off_c, 0, 65, 64
2, 574500, Note_off_c, 0, 58, 64
2, 575000, Note_on_c, 0, 62, 100
2, 575500, Note_off_c, 0, 46, 64
2, 576000, Note_off_c, 0, 34, 64
2, 581500, Note_on_c, 0, 65, 100
2, 582000, Note_off_c, 0, 62, 64
2, 582500, Note_on_c, 0, 58, 100
2, 583000, Note_on_c, 0, 46, 100
2, 584500, Note_on_c, 0, 62, 100
2, 585000, Note_on_c, 0, 53, 100
2, 585500, Note_off_c, 0, 46, 64
2, 586000, Note_on_c, 0, 34, 100
2, 593500, Note_on_c, 0, 70, 100
2, 594000, Note_off_c, 0, 62, 64
2, 594500, Note_off_c, 0, 58, 64
2, 600000, Note_on_c, 0, 62, 100
2, 600500, Note_on_c, 0, 58, 100
2, 602000, Note_off_c, 0, 65, 64
2, 602500, Note_off_c, 0, 62, 64
2, 603000, Note_off_c, 0, 53, 64
2, 603500, Note_off_c, 0, 58, 64
2, 604000, Note_on_c, 0, 46, 100
2, 604500, Note_off_c, 0, 34, 64
2, 610000, Note_on_c, 0, 62, 100
2, 610500, Note_on_c, 0, 58, 100
2, 611000, Note_off_c, 0, 46, 64
2, 612500, Note_off_c, 0, 58, 64
2, 613000, Note_on_c, 0, 50, 100
2, 613500, Note_on_c, 0, 46, 100
2, 614000, Note_on_c, 0, 34, 100
2, 621500, Note_on_c, 0, 65, 100
2, 622000, Note_on_c, 0, 58, 100
2, 622500, Note_off_c, 0, 62, 64
2, 623000, Note_off_c, 0, 50, 64
2, 623500, Note_on_c, 0, 53, 100
2, 629000, Note_off_c, 0, 58, 64
2, 629500, Note_on_c, 0, 62, 100
2, 630000, Note_off_c, 0, 53, 64
2, 631500, Note_off_c, 0, 62, 64
2, 632000, Note_off_c, 0, 65, 64
2, 632500, Note_on_c, 0, 58, 100
2, 633000, Note_off_c, 0, 46, 64
2, 633500, Note_off_c, 0, 34, 64
2, 639000, Note_on_c, 0, 62, 100
2, 639500, Note_on_c, 0, 65, 100
2, 640000, Note_off_c, 0, 58, 64
2, 640500, Note_on_c, 0, 46, 100
2, 642000, Note_off_c, 0, 65, 64
2, 642500, Note_off_c, 0, 70, 64
2, 643000, Note_off_c, 0, 62, 64
2, 643500, Note_off_c, 0, 46, 64
2, 644000, Note_on_c, 0, 34, 100
2, 649500, Note_on_c, 0, 65, 100
2, 650000, Note_on_c, 0, 70, 100
2, 650500, Note_on_c, 0, 62, 100
2, 652000, Note_off_c, 0, 62, 64
2, 652500, Note_off_c, 0, 65, 64
2, 653000, Note_on_c, 0, 58, 100
2, 658500, Note_on_c, 0, 62, 100
2, 659000, Note_on_c, 0, 65, 100
2, 659500, Note_off_c, 0, 58, 64
2, 661000, Note_off_c, 0, 65, 64
2, 661500, Note_off_c, 0, 70, 64
2, 662000, Note_off_c, 0, 62, 64
2, 662500, Note_on_c, 0, 46, 100
2, 663000, Note_on_c, 0, 58, 100
2, 663500, Note_off_c, 0, 34, 64
2, 669000, Note_on_c, 0, 65, 100
2, 669500, Note_on_c, 0, 70, 100
2, 670000, Note_on_c, 0, 62, 100
2, 670500, Note_off_c, 0, 58, 64
2, 671000, Note_off_c, 0, 46, 64
2, 672500, Note_off_c, 0, 70, 64
2, 673000, Note_off_c, 0, 62, 64
2, 673500, Note_off_c, 0, 65, 64
2, 674000, Note_on_c, 0, 46, 100
2, 674500, Note_on_c, 0, 34, 100
2, 680000, Note_on_c, 0, 70, 100
2, 681500, Note_on_c, 0, 65, 100
2, 687000, Note_off_c, 0, 65, 64
2, 688500, Note_on_c, 0, 67, 100
2, 689000, Note_on_c, 0, 62, 100
2, 689500, Note_on_c, 0, 65, 100
2, 690000, Note_off_c, 0, 46, 64
2, 690500, Note_off_c, 0, 34, 64
2, 698000, Note_on_c, 0, 63, 100
2, 698500, Note_on_c, 0, 58, 100
2, 699000, Note_on_c, 0, 46, 100
2, 706500, Note_off_c, 0, 67, 64
2, 707000, Note_off_c, 0, 65, 64
2, 712500, Note_on_c, 0, 65, 100
2, 714000, Note_off_c, 0, 70, 64
2, 714500, Note_off_c, 0, 63, 64
2, 715000, Note_off_c, 0, 58, 64
2, 715500, Note_off_c, 0, 46, 64
2, 723000, Note_off_c, 0, 62, 64
2, 723500, Note_on_c, 0, 53, 100
2, 724000, Note_on_c, 0, 46, 100
2, 724500, Note_on_c, 0, 34, 100
2, 732000, Note_on_c, 0, 70, 100
2, 732500, Note_off_c, 0, 65, 64
2, 738000, Note_on_c, 0, 65, 100
2, 739500, Note_on_c, 0, 67, 100
2, 740000, Note_on_c, 0, 62, 100
2, 740500, Note_off_c, 0, 53, 64
2, 741000, Note_off_c, 0, 46, 64
2, 741500, Note_off_c, 0, 34, 64
2, 749000, Note_on_c, 0, 63, 100
2, 749500, Note_on_c, 0, 58, 100
2, 750000, Note_on_c, 0, 46, 100
2, 757500, Note_off_c, 0, 67, 64
2, 758000, Note_off_c, 0, 65, 64
2, 763500, Note_on_c, 0, 65, 100
2, 765000, Note_off_c, 0, 70, 64
2, 765500, Note_off_c, 0, 63, 64
2, 766000, Note_off_c, 0, 62, 64
2, 766500, Note_off_c, 0, 58, 64
2, 767000, Note_on_c, 0, 53, 100
2, 767500, Note_off_c, 0, 46, 64
2, 768000, Note_on_c, 0, 34, 100
2, 773500, Note_on_c, 0, 62, 100
2, 774000, Note_off_c, 0, 53, 64
2, 774500, Note_on_c, 0, 46, 100
2, 775000, Note_off_c, 0, 34, 64
2, 776500, Note_on_c, 0, 63, 100
2, 777000, Note_on_c, 0, 55, 100
2, 777500, Note_on_c, 0, 51, 100
2, 778000, Note_on_c, 0, 39, 100
2, 785500, Note_on_c, 0, 70, 100
2, 786000, Note_on_c, 0, 67, 100
2, 791500, Note_off_c, 0, 67, 64
2, 793000, Note_on_c, 0, 75, 100
2, 793500, Note_off_c, 0, 63, 64
2, 794000, Note_on_c, 0, 67, 100
2, 794500, Note_off_c, 0, 55, 64
2, 795000, Note_on_c, 0, 60, 100
2, 795500, Note_off_c, 0, 51, 64
2, 796000, Note_on_c, 0, 48, 100
2, 796500, Note_off_c, 0, 39, 64
2, 797000, Note_on_c, 0, 36, 100
2, 802500, Note_off_c, 0, 67, 64
2, 803000, Note_off_c, 0, 60, 64
2, 803500, Note_off_c, 0, 48, 64
2, 804000, Note_off_c, 0, 36, 64
2, 805500, Note_off_c, 0, 65, 64
2, 806000, Note_on_c, 0, 57, 100
2, 806500, Note_on_c, 0, 53, 100
2, 807000, Note_on_c, 0, 41, 100
2, 814500, Note_off_c, 0, 75, 64
2, 815000, Note_on_c, 0, 69, 100
2, 820500, Note_off_c, 0, 69, 64
2, 822000, Note_on_c, 0, 77, 100
2, 822500, Note_on_c, 0, 65, 100
2, 823000, Note_on_c, 0, 72, 100
2, 823500, Note_off_c, 0, 57, 64
2, 824000, Note_off_c, 0, 53, 64
2, 824500, Note_on_c, 0, 45, 100
2, 825000, Note_off_c, 0, 41, 64
2, 825500, Note_on_c, 0, 33, 100
2, 831000, Note_off_c, 0, 72, 64
2, 831500, Note_on_c, 0, 53, 100
2, 832000, Note_off_c, 0, 45, 64
2, 832500, Note_off_c, 0, 33, 64
2, 834000, Note_off_c, 0, 77, 64
2, 834500, Note_on_c, 0, 74, 100
2, 835000, Note_off_c, 0, 70, 64
2, 835500, Note_off_c, 0, 65, 64
2, 836000, Note_off_c, 0, 46, 64
2, 836500, Note_on_c, 0, 34, 100
2, 842000, Note_off_c, 0, 74, 64
2, 842500, Note_on_c, 0, 70, 100
2, 843000, Note_on_c, 0, 65, 100
2, 843500, Note_on_c, 0, 46, 100
2, 844000, Note_off_c, 0, 34, 64
2, 845500, Note_off_c, 0, 70, 64
2, 846000, Note_off_c, 0, 65, 64
2, 846500, Note_off_c, 0, 62, 64
2, 847000, Note_on_c, 0, 50, 100
2, 847500, Note_on_c, 0, 38, 100
2, 853000, Note_on_c, 0, 70, 100
2, 853500, Note_on_c, 0, 65, 100
2, 854000, Note_on_c, 0, 62, 100
2, 854500, Note_off_c, 0, 50, 64
2, 855000, Note_off_c, 0, 38, 64
2, 856500, Note_on_c, 0, 69, 100
2, 857000, Note_off_c, 0, 65, 64
2, 857500, Note_on_c, 0, 60, 100
2, 858000, Note_off_c, 0, 53, 64
2, 858500, Note_on_c, 0, 41, 100
2, 864000, Note_off_c, 0, 69, 64
2, 864500, Note_on_c, 0, 65, 100
2, 865000, Note_off_c, 0, 60, 64
2, 865500, Note_on_c, 0, 53, 100
2, 866000, Note_off_c, 0, 41, 64
2, 867500, Note_off_c, 0, 70, 64
2, 868000, Note_off_c, 0, 65, 64
2, 868500, Note_off_c, 0, 62, 64
2, 869000, Note_on_c, 0, 58, 100
2, 869500, Note_off_c, 0, 46, 64
2, 875000, Note_off_c, 0, 58, 64
2, 875500, Note_on_c, 0, 46, 100
2, 877000, Note_on_c, 0, 50, 100
2, 877500, Note_on_c, 0, 38, 100
2, 881000, Note_on_c, 0, 70, 100
2, 881500, Note_on_c, 0, 65, 100
2, 883000, Note_off_c, 0, 50, 64
2, 883500, Note_off_c, 0, 38, 64
2, 885000, Note_off_c, 0, 65, 64
2, 885500, Note_on_c, 0, 67, 100
2, 886000, Note_off_c, 0, 70, 64
2, 886500, Note_on_c, 0, 62, 100
2, 887000, Note_off_c, 0, 53, 64
2, 887500, Note_on_c, 0, 41, 100
2, 891000, Note_off_c, 0, 67, 64
2, 891500, Note_on_c, 0, 69, 100
2, 893000, Note_on_c, 0, 53, 100
2, 893500, Note_off_c, 0, 41, 64
2, 895000, Note_off_c, 0, 69, 64
2, 895500, Note_on_c, 0, 70, 100
2, 896000, Note_off_c, 0, 46, 64
2, 896500, Note_on_c, 0, 34, 100
2, 900000, Note_off_c, 0, 70, 64
2, 900500, Note_on_c, 0, 69, 100
2, 904000, Note_off_c, 0, 69, 64
2, 904500, Note_on_c, 0, 70, 100
2, 905000, Note_on_c, 0, 46, 100
2, 905500, Note_on_c, 0, 50, 100
2, 909000, Note_on_c, 0, 65, 100
2, 910500, Note_off_c, 0, 70, 64
2, 911000, Note_off_c, 0, 50, 64
2, 912500, Note_off_c, 0, 65, 64
2, 913000, Note_on_c, 0, 67, 100
2, 913500, Note_off_c, 0, 53, 64
2, 914000, Note_off_c, 0, 34, 64
2, 914500, Note_off_c, 0, 46, 64
2, 918000, Note_off_c, 0, 67, 64
2, 918500, Note_on_c, 0, 69, 100
2, 920000, Note_on_c, 0, 53, 100
2, 921500, Note_off_c, 0, 69, 64
2, 922000, Note_on_c, 0, 70, 100
2, 922500, Note_on_c, 0, 45, 100
2, 926000, Note_off_c, 0, 70, 64
2, 926500, Note_on_c, 0, 69, 100
2, 930000, Note_off_c, 0, 69, 64
2, 930500, Note_on_c, 0, 70, 100
2, 931000, Note_off_c, 0, 45, 64
2, 931500, Note_on_c, 0, 50, 100
2, 935000, Note_on_c, 0, 65, 100
2, 936500, Note_off_c, 0, 70, 64
2, 937000, Note_off_c, 0, 50, 64
2, 938500, Note_off_c, 0, 65, 64
2, 939000, Note_on_c, 0, 67, 100
2, 939500, Note_off_c, 0, 53, 64
2, 943000, Note_off_c, 0, 67, 64
2, 943500, Note_on_c, 0, 69, 100
2, 945000, Note_on_c, 0, 53, 100
2, 946500, Note_off_c, 0, 69, 64
2, 947000, Note_on_c, 0, 70, 100
2, 947500, Note_on_c, 0, 43, 100
2, 951000, Note_off_c, 0, 70, 64
2, 951500, Note_on_c, 0, 69, 100
2, 955000, Note_off_c, 0, 69, 64
2, 955500, Note_on_c, 0, 70, 100
2, 956000, Note_off_c, 0, 43, 64
2, 956500, Note_on_c, 0, 46, 100
2, 960000, Note_on_c, 0, 65, 100
2, 961500, Note_off_c, 0, 70, 64
2, 962000, Note_off_c, 0, 46, 64
2, 963500, Note_off_c, 0, 65, 64
2, 964000, Note_on_c, 0, 67, 100
2, 964500, Note_on_c, 0, 50, 100
2, 968000, Note_off_c, 0, 67, 64
2, 968500, Note_on_c, 0, 69, 100
2, 970000, Note_off_c, 0, 50, 64
2, 971500, Note_off_c, 0, 69, 64
2, 972000, Note_on_c, 0, 70, 100
2, 972500, Note_on_c, 0, 41, 100
2, 976000, Note_off_c, 0, 70, 64
2, 976500, Note_on_c, 0, 69, 100
2, 980000, Note_off_c, 0, 69, 64
2, 980500, Note_on_c, 0, 70, 100
2, 981000, Note_off_c, 0, 41, 64
2, 981500, Note_on_c, 0, 46, 100
2, 985000, Note_on_c, 0, 67, 100
2, 986500, Note_off_c, 0, 70, 64
2, 987000, Note_off_c, 0, 46, 64
2, 988500, Note_off_c, 0, 67, 64
2, 989000, Note_on_c, 0, 69, 100
2, 989500, Note_on_c, 0, 50, 100
2, 993000, Note_off_c, 0, 69, 64
2, 993500, Note_on_c, 0, 70, 100
2, 995000, Note_off_c, 0, 50, 64
2, 996500, Note_off_c, 0, 70, 64
2, 997000, Note_on_c, 0, 72, 100
2, 997500, Note_on_c, 0, 39, 100
2, 1001000, Note_off_c, 0, 72, 64
2, 1001500, Note_on_c, 0, 70, 100
2, 1005000, Note_off_c, 0, 70, 64
2, 1005500, Note_on_c, 0, 72, 100
2, 1006000, Note_off_c, 0, 39, 64
2, 1006500, Note_on_c, 0, 43, 100
2, 1010000, Note_off_c, 0, 72, 64
2, 1010500, Note_on_c, 0, 70, 100
2, 1011000, Note_on_c, 0, 67, 100
2, 1012500, Note_off_c, 0, 43, 64
2, 1014000, Note_off_c, 0, 70, 64
2, 1014500, Note_on_c, 0, 69, 100
2, 1015000, Note_off_c, 0, 67, 64
2, 1015500, Note_on_c, 0, 48, 100
2, 1019000, Note_off_c, 0, 69, 64
2, 1019500, Note_on_c, 0, 67, 100
2, 1020000, Note_on_c, 0, 70, 100
2, 1021500, Note_off_c, 0, 48, 64
2, 1023000, Note_off_c, 0, 67, 64
2, 1023500, Note_on_c, 0, 65, 100
2, 1024000, Note_off_c, 0, 70, 64
2, 1024500, Note_on_c, 0, 72, 100
2, 1025000, Note_on_c, 0, 45, 100
2, 1028500, Note_off_c, 0, 72, 64
2, 1029000, Note_on_c, 0, 70, 100
2, 1030500, Note_off_c, 0, 65, 64
2, 1032000, Note_on_c, 0, 69, 100
2, 1032500, Note_off_c, 0, 70, 64
2, 1033000, Note_on_c, 0, 72, 100
2, 1033500, Note_off_c, 0, 45, 64
2, 1034000, Note_on_c, 0, 48, 100
2, 1037500, Note_off_c, 0, 72, 64
2, 1038000, Note_on_c, 0, 70, 100
2, 1039500, Note_off_c, 0, 69, 64
2, 1040000, Note_off_c, 0, 48, 64
2, 1041500, Note_on_c, 0, 72, 100
2, 1042000, Note_off_c, 0, 70, 64
2, 1042500, Note_on_c, 0, 69, 100
2, 1043000, Note_on_c, 0, 41, 100
2, 1046500, Note_off_c, 0, 69, 64
2, 1047000, Note_on_c, 0, 67, 100
2, 1048500, Note_off_c, 0, 72, 64
2, 1049000, Note_off_c, 0, 41, 64
2, 1050500, Note_on_c, 0, 74, 100
2, 1051000, Note_off_c, 0, 67, 64
2, 1051500, Note_on_c, 0, 65, 100
2, 1052000, Note_on_c, 0, 46, 100
2, 1055500, Note_off_c, 0, 74, 64
2, 1056000, Note_on_c, 0, 72, 100
2, 1056500, Note_off_c, 0, 65, 64
2, 1057000, Note_on_c, 0, 63, 100
2, 1060500, Note_off_c, 0, 72, 64
2, 1061000, Note_on_c, 0, 74, 100
2, 1061500, Note_off_c, 0, 63, 64
2, 1062000, Note_on_c, 0, 65, 100
2, 1062500, Note_off_c, 0, 46, 64
2, 1063000, Note_on_c, 0, 50, 100
2, 1066500, Note_off_c, 0, 74, 64
2, 1067000, Note_on_c, 0, 75, 100
2, 1067500, Note_off_c, 0, 65, 64
2, 1068000, Note_on_c, 0, 67, 100
2, 1069500, Note_off_c, 0, 50, 64
2, 1071000, Note_off_c, 0, 75, 64
2, 1071500, Note_on_c, 0, 74, 100
2, 1072000, Note_off_c, 0, 67, 64
2, 1072500, Note_on_c, 0, 65, 100
2, 1073000, Note_off_c, 0, 53, 64
2, 1076500, Note_off_c, 0, 74, 64
2, 1077000, Note_on_c, 0, 72, 100
2, 1077500, Note_off_c, 0, 65, 64
2, 1078000, Note_on_c, 0, 63, 100
2, 1079500, Note_on_c, 0, 53, 100
2, 1081000, Note_off_c, 0, 72, 64
2, 1081500, Note_on_c, 0, 70, 100
2, 1082000, Note_off_c, 0, 63, 64
2, 1082500, Note_off_c, 0, 62, 64
2, 1083000, Note_on_c, 0, 58, 100
2, 1086500, Note_on_c, 0, 62, 100
2, 1087000, Note_on_c, 0, 60, 100
2, 1088500, Note_off_c, 0, 70, 64
2, 1090000, Note_on_c, 0, 65, 100
2, 1090500, Note_off_c, 0, 60, 64
2, 1091000, Note_off_c, 0, 62, 64
2, 1091500, Note_off_c, 0, 58, 64
2, 1092000, Note_on_c, 0, 57, 100
2, 1095500, Note_on_c, 0, 62, 100
2, 1096000, Note_on_c, 0, 63, 100
2, 1097500, Note_off_c, 0, 65, 64
2, 1098000, Note_off_c, 0, 57, 64
2, 1099500, Note_on_c, 0, 74, 100
2, 1100000, Note_off_c, 0, 63, 64
2, 1100500, Note_on_c, 0, 65, 100
2, 1101000, Note_on_c, 0, 58, 100
2, 1104500, Note_off_c, 0, 65, 64
2, 1105000, Note_off_c, 0, 62, 64
2, 1106500, Note_off_c, 0, 58, 64
2, 1108000, Note_on_c, 0, 62, 100
2, 1108500, Note_on_c, 0, 67, 100
2, 1109000, Note_on_c, 0, 52, 100
2, 1112500, Note_off_c, 0, 67, 64
2, 1113000, Note_on_c, 0, 69, 100
2, 1114500, Note_off_c, 0, 52, 64
2, 1116000, Note_off_c, 0, 74, 64
2, 1116500, Note_on_c, 0, 67, 100
2, 1117000, Note_off_c, 0, 69, 64
2, 1117500, Note_on_c, 0, 70, 100
2, 1118000, Note_on_c, 0, 55, 100
2, 1121500, Note_off_c, 0, 70, 64
2, 1122000, Note_on_c, 0, 69, 100
2, 1123500, Note_off_c, 0, 67, 64
2, 1124000, Note_off_c, 0, 55, 64
2, 1125500, Note_on_c, 0, 70, 100
2, 1126000, Note_off_c, 0, 69, 64
2, 1126500, Note_on_c, 0, 67, 100
2, 1127000, Note_on_c, 0, 52, 100
2, 1130500, Note_off_c, 0, 67, 64
2, 1131000, Note_on_c, 0, 65, 100
2, 1132500, Note_off_c, 0, 52, 64
2, 1134000, Note_off_c, 0, 65, 64
2, 1134500, Note_on_c, 0, 64, 100
2, 1135000, Note_on_c, 0, 48, 100
2, 1138500, Note_off_c, 0, 64, 64
2, 1139000, Note_off_c, 0, 62, 64
2, 1140500, Note_off_c, 0, 48, 64
2, 1142000, Note_off_c, 0, 70, 64
2, 1142500, Note_on_c, 0, 64, 100
2, 1143000, Note_on_c, 0, 62, 100
2, 1143500, Note_on_c, 0, 60, 100
2, 1144000, Note_on_c, 0, 57, 100
2, 1147500, Note_off_c, 0, 60, 64
2, 1148000, Note_off_c, 0, 62, 64
2, 1149500, Note_off_c, 0, 64, 64
2, 1150000, Note_off_c, 0, 57, 64
2, 1151500, Note_on_c, 0, 72, 100
2, 1152000, Note_on_c, 0, 62, 100
2, 1152500, Note_on_c, 0, 64, 100
2, 1153000, Note_on_c, 0, 48, 100
2, 1156500, Note_off_c, 0, 64, 64
2, 1157000, Note_on_c, 0, 60, 100
2, 1158500, Note_off_c, 0, 48, 64
2, 1160000, Note_off_c, 0, 60, 64
2, 1160500, Note_on_c, 0, 65, 100
2, 1161000, Note_on_c, 0, 50, 100
2, 1164500, Note_off_c, 0, 65, 64
2, 1165000, Note_on_c, 0, 67, 100
2, 1166500, Note_off_c, 0, 50, 64
2, 1168000, Note_off_c, 0, 72, 64
2, 1168500, Note_on_c, 0, 65, 100
2, 1169000, Note_off_c, 0, 67, 64
2, 1169500, Note_on_c, 0, 69, 100
2, 1170000, Note_off_c, 0, 53, 64
2, 1173500, Note_off_c, 0, 69, 64
2, 1174000, Note_on_c, 0, 67, 100
2, 1175500, Note_off_c, 0, 65, 64
2, 1176000, Note_on_c, 0, 53, 100
2, 1177500, Note_on_c, 0, 69, 100
2, 1178000, Note_off_c, 0, 67, 64
2, 1178500, Note_on_c, 0, 65, 100
2, 1179000, Note_on_c, 0, 50, 100
2, 1182500, Note_off_c, 0, 65, 64
2, 1183000, Note_on_c, 0, 64, 100
2, 1184500, Note_off_c, 0, 50, 64
2, 1186000, Note_off_c, 0, 64, 64
2, 1186500, Note_off_c, 0, 62, 64
2, 1187000, Note_on_c, 0, 46, 100
2, 1190500, Note_on_c, 0, 62, 100
2, 1191000, Note_on_c, 0, 60, 100
2, 1192500, Note_off_c, 0, 46, 64
2, 1194000, Note_off_c, 0, 69, 64
2, 1194500, Note_off_c, 0, 62, 64
2, 1195000, Note_off_c, 0, 60, 64
2, 1195500, Note_on_c, 0, 58, 100
2, 1196000, Note_on_c, 0, 55, 100
2, 1199500, Note_off_c, 0, 58, 64
2, 1200000, Note_on_c, 0, 60, 100
2, 1201500, Note_on_c, 0, 62, 100
2, 1202000, Note_off_c, 0, 55, 64
2, 1203500, Note_on_c, 0, 70, 100
2, 1204000, Note_off_c, 0, 60, 64
2, 1204500, Note_off_c, 0, 62, 64
2, 1205000, Note_on_c, 0, 46, 100
2, 1208500, Note_on_c, 0, 62, 100
2, 1209000, Note_on_c, 0, 58, 100
2, 1210500, Note_off_c, 0, 46, 64
2, 1212000, Note_off_c, 0, 58, 64
2, 1212500, Note_on_c, 0, 64, 100
2, 1213000, Note_on_c, 0, 48, 100
2, 1216500, Note_off_c, 0, 64, 64
2, 1217000, Note_on_c, 0, 65, 100
2, 1220500, Note_off_c, 0, 70, 64
2, 1221000, Note_on_c, 0, 64, 100
2, 1221500, Note_off_c, 0, 65, 64
2, 1222000, Note_on_c, 0, 67, 100
2, 1225500, Note_off_c, 0, 67, 64
2, 1226000, Note_on_c, 0, 65, 100
2, 1227500, Note_off_c, 0, 64, 64
2, 1229000, Note_on_c, 0, 67, 100
2, 1229500, Note_off_c, 0, 65, 64
2, 1230000, Note_on_c, 0, 64, 100
2, 1230500, Note_off_c, 0, 48, 64
2, 1231000, Note_on_c, 0, 46, 100
2, 1234500, Note_off_c, 0, 64, 64
2, 1235000, Note_off_c, 0, 62, 64
2, 1238500, Note_on_c, 0, 62, 100
2, 1239000, Note_on_c, 0, 60, 100
2, 1239500, Note_off_c, 0, 46, 64
2, 1240000, Note_on_c, 0, 45, 100
2, 1243500, Note_off_c, 0, 60, 64
2, 1244000, Note_off_c, 0, 62, 64
2, 1247500, Note_off_c, 0, 67, 64
2, 1248000, Note_on_c, 0, 60, 100
2, 1248500, Note_on_c, 0, 62, 100
2, 1249000, Note_on_c, 0, 64, 100
2, 1252500, Note_off_c, 0, 64, 64
2, 1253000, Note_off_c, 0, 62, 64
2, 1254500, Note_off_c, 0, 60, 64
2, 1256000, Note_on_c, 0, 70, 100
2, 1256500, Note_on_c, 0, 62, 100
2, 1257000, Note_on_c, 0, 60, 100
2, 1257500, Note_off_c, 0, 45, 64
2, 1258000, Note_on_c, 0, 43, 100
2, 1261500, Note_off_c, 0, 60, 64
2, 1262000, Note_on_c, 0, 58, 100
2, 1263500, Note_off_c, 0, 70, 64
2, 1265000, Note_on_c, 0, 69, 100
2, 1265500, Note_off_c, 0, 58, 64
2, 1266000, Note_on_c, 0, 60, 100
2, 1266500, Note_off_c, 0, 43, 64
2, 1267000, Note_on_c, 0, 41, 100
2, 1270500, Note_off_c, 0, 60, 64
2, 1271000, Note_on_c, 0, 65, 100
2, 1274500, Note_off_c, 0, 69, 64
2, 1275000, Note_on_c, 0, 67, 100
2, 1275500, Note_off_c, 0, 65, 64
2, 1276000, Note_on_c, 0, 64, 100
2, 1279500, Note_off_c, 0, 64, 64
2, 1280000, Note_off_c, 0, 62, 64
2, 1281500, Note_off_c, 0, 67, 64
2, 1283000, Note_on_c, 0, 69, 100
2, 1283500, Note_on_c, 0, 62, 100
2, 1284000, Note_on_c, 0, 60, 100
2, 1284500, Note_off_c, 0, 41, 64
2, 1288000, Note_off_c, 0, 60, 64
2, 1288500, Note_on_c, 0, 58, 100
2, 1290000, Note_off_c, 0, 69, 64
2, 1291500, Note_on_c, 0, 65, 100
2, 1292000, Note_off_c, 0, 58, 64
2, 1292500, Note_on_c, 0, 57, 100
2, 1296000, Note_off_c, 0, 57, 64
2, 1296500, Note_on_c, 0, 58, 100
2, 1300000, Note_off_c, 0, 65, 64
2, 1300500, Note_on_c, 0, 57, 100
2, 1301000, Note_off_c, 0, 58, 64
2, 1301500, Note_on_c, 0, 60, 100
2, 1305000, Note_off_c, 0, 60, 64
2, 1305500, Note_on_c, 0, 58, 100
2, 1307000, Note_off_c, 0, 57, 64
2, 1308500, Note_on_c, 0, 60, 100
2, 1309000, Note_off_c, 0, 58, 64
2, 1309500, Note_on_c, 0, 57, 100
2, 1313000, Note_off_c, 0, 57, 64
2, 1313500, Note_on_c, 0, 55, 100
2, 1315000, Note_off_c, 0, 60, 64
2, 1316500, Note_on_c, 0, 65, 100
2, 1317000, Note_off_c, 0, 55, 64
2, 1317500, Note_off_c, 0, 53, 64
2, 1318000, Note_on_c, 0, 60, 100
2, 1318500, Note_on_c, 0, 57, 100
2, 1319000, Note_on_c, 0, 41, 100
2, 1326500, Note_off_c, 0, 65, 64
2, 1327000, Note_on_c, 0, 64, 100
2, 1332500, Note_off_c, 0, 64, 64
2, 1334000, Note_on_c, 0, 65, 100
2, 1334500, Note_on_c, 0, 53, 100
2, 1335000, Note_off_c, 0, 60, 64
2, 1335500, Note_off_c, 0, 57, 64
2, 1336000, Note_off_c, 0, 41, 64
2, 1341500, Note_off_c, 0, 65, 64
2, 1343000, Note_on_c, 0, 57, 100
2, 1343500, Note_on_c, 0, 60, 100
2, 1344000, Note_off_c, 0, 53, 64
2, 1344500, Note_on_c, 0, 52, 100
2, 1345000, Note_on_c, 0, 40, 100
2, 1352500, Note_off_c, 0, 57, 64
2, 1353000, Note_off_c, 0, 60, 64
2, 1358500, Note_on_c, 0, 60, 100
2, 1360000, Note_on_c, 0, 65, 100
2, 1360500, Note_off_c, 0, 60, 64
2, 1361000, Note_on_c, 0, 53, 100
2, 1361500, Note_off_c, 0, 52, 64
2, 1362000, Note_off_c, 0, 40, 64
2, 1367500, Note_off_c, 0, 65, 64
2, 1369000, Note_on_c, 0, 65, 100
2, 1369500, Note_off_c, 0, 62, 64
2, 1370000, Note_on_c, 0, 57, 100
2, 1370500, Note_on_c, 0, 50, 100
2, 1371000, Note_on_c, 0, 38, 100
2, 1378500, Note_off_c, 0, 65, 64
2, 1379000, Note_on_c, 0, 64, 100
2, 1384500, Note_off_c, 0, 64, 64
2, 1386000, Note_on_c, 0, 65, 100
2, 1386500, Note_on_c, 0, 62, 100
2, 1387000, Note_off_c, 0, 57, 64
2, 1387500, Note_off_c, 0, 50, 64
2, 1388000, Note_off_c, 0, 38, 64
2, 1393500, Note_off_c, 0, 65, 64
2, 1395000, Note_on_c, 0, 57, 100
2, 1395500, Note_on_c, 0, 65, 100
2, 1396000, Note_on_c, 0, 60, 100
2, 1396500, Note_on_c, 0, 48, 100
2, 1397000, Note_on_c, 0, 36, 100
2, 1404500, Note_off_c, 0, 57, 64
2, 1405000, Note_off_c, 0, 60, 64
2, 1410500, Note_on_c, 0, 60, 100
2, 1412000, Note_off_c, 0, 65, 64
2, 1412500, Note_off_c, 0, 60, 64
2, 1413000, Note_off_c, 0, 48, 64
2, 1413500, Note_off_c, 0, 36, 64
2, 1419000, Note_on_c, 0, 65, 100
2, 1420500, Note_on_c, 0, 67, 100
2, 1421000, Note_off_c, 0, 65, 64
2, 1421500, Note_off_c, 0, 62, 64
2, 1422000, Note_on_c, 0, 46, 100
2, 1422500, Note_on_c, 0, 34, 100
2, 1430000, Note_off_c, 0, 67, 64
2, 1430500, Note_on_c, 0, 65, 100
2, 1436000, Note_off_c, 0, 65, 64
2, 1437500, Note_on_c, 0, 67, 100
2, 1438000, Note_on_c, 0, 65, 100
2, 1438500, Note_on_c, 0, 62, 100
2, 1439000, Note_off_c, 0, 46, 64
2, 1439500, Note_off_c, 0, 34, 64
2, 1445000, Note_off_c, 0, 67, 64
2, 1446500, Note_on_c, 0, 60, 100
2, 1447000, Note_on_c, 0, 64, 100
2, 1447500, Note_on_c, 0, 48, 100
2, 1448000, Note_on_c, 0, 36, 100
2, 1455500, Note_off_c, 0, 60, 64
2, 1456000, Note_off_c, 0, 64, 64
2, 1461500, Note_on_c, 0, 64, 100
2, 1463000, Note_on_c, 0, 67, 100
2, 1463500, Note_off_c, 0, 64, 64
2, 1464000, Note_on_c, 0, 60, 100
2, 1464500, Note_off_c, 0, 48, 64
2, 1465000, Note_off_c, 0, 36, 64
2, 1470500, Note_off_c, 0, 67, 64
2, 1472000, Note_on_c, 0, 69, 100
2, 1472500, Note_off_c, 0, 65, 64
2, 1473000, Note_off_c, 0, 60, 64
2, 1473500, Note_on_c, 0, 41, 100
2, 1474000, Note_on_c, 0, 29, 100
2, 1481500, Note_off_c, 0, 69, 64
2, 1482000, Note_on_c, 0, 67, 100
2, 1482500, Note_on_c, 0, 65, 100
2, 1483000, Note_on_c, 0, 64, 100
2, 1483500, Note_on_c, 0, 60, 100
2, 1484000, Note_on_c, 0, 58, 100
2, 1489500, Note_off_c, 0, 67, 64
2, 1490000, Note_off_c, 0, 64, 64
2, 1490500, Note_off_c, 0, 58, 64
2, 1492000, Note_on_c, 0, 69, 100
2, 1492500, Note_off_c, 0, 65, 64
2, 1493000, Note_off_c, 0, 60, 64
2, 1498500, Note_off_c, 0, 69, 64
2, 1499000, Note_on_c, 0, 65, 100
2, 1499500, Note_on_c, 0, 60, 100
2, 1501000, Note_off_c, 0, 65, 64
2, 1501500, Note_off_c, 0, 60, 64
2, 1502000, Note_on_c, 0, 57, 100
2, 1507500, Note_off_c, 0, 41, 64
2, 1509000, Note_on_c, 0, 45, 100
2, 1512500, Note_on_c, 0, 65, 100
2, 1513000, Note_on_c, 0, 60, 100
2, 1514500, Note_off_c, 0, 45, 64
2, 1516000, Note_off_c, 0, 65, 64
2, 1516500, Note_off_c, 0, 60, 64
2, 1517000, Note_off_c, 0, 62, 64
2, 1517500, Note_off_c, 0, 57, 64
2, 1518000, Note_on_c, 0, 48, 100
2, 1518500, Note_on_c, 0, 41, 100
2, 1519000, Note_off_c, 0, 29, 64
2, 1522500, Note_on_c, 0, 62, 100
2, 1523000, Note_on_c, 0, 64, 100
2, 1524500, Note_off_c, 0, 48, 64
2, 1526000, Note_off_c, 0, 64, 64
2, 1526500, Note_on_c, 0, 65, 100
2, 1527000, Note_off_c, 0, 53, 64
2, 1530500, Note_off_c, 0, 65, 64
2, 1531000, Note_on_c, 0, 64, 100
2, 1534500, Note_off_c, 0, 64, 64
2, 1535000, Note_on_c, 0, 65, 100
2, 1535500, Note_on_c, 0, 53, 100
2, 1536000, Note_on_c, 0, 57, 100
2, 1539500, Note_on_c, 0, 60, 100
2, 1541000, Note_off_c, 0, 65, 64
2, 1541500, Note_off_c, 0, 57, 64
2, 1543000, Note_off_c, 0, 60, 64
2, 1543500, Note_off_c, 0, 62, 64
2, 1547000, Note_on_c, 0, 62, 100
2, 1547500, Note_on_c, 0, 64, 100
2, 1549000, Note_on_c, 0, 60, 100
2, 1550500, Note_off_c, 0, 64, 64
2, 1551000, Note_on_c, 0, 65, 100
2, 1551500, Note_on_c, 0, 52, 100
2, 1555000, Note_off_c, 0, 65, 64
2, 1555500, Note_on_c, 0, 64, 100
2, 1559000, Note_off_c, 0, 64, 64
2, 1559500, Note_on_c, 0, 65, 100
2, 1560000, Note_off_c, 0, 52, 64
2, 1560500, Note_on_c, 0, 57, 100
2, 1564000, Note_off_c, 0, 60, 64
2, 1565500, Note_off_c, 0, 65, 64
2, 1566000, Note_off_c, 0, 57, 64
2, 1567500, Note_on_c, 0, 60, 100
2, 1568000, Note_off_c, 0, 62, 64
2, 1571500, Note_on_c, 0, 62, 100
2, 1572000, Note_on_c, 0, 64, 100
2, 1573500, Note_off_c, 0, 60, 64
2, 1575000, Note_off_c, 0, 64, 64
2, 1575500, Note_on_c, 0, 65, 100
2, 1576000, Note_on_c, 0, 50, 100
2, 1579500, Note_off_c, 0, 65, 64
2, 1580000, Note_on_c, 0, 64, 100
2, 1583500, Note_off_c, 0, 64, 64
2, 1584000, Note_on_c, 0, 65, 100
2, 1584500, Note_off_c, 0, 50, 64
2, 1585000, Note_off_c, 0, 53, 64
2, 1588500, Note_on_c, 0, 60, 100
2, 1590000, Note_off_c, 0, 65, 64
2, 1590500, Note_on_c, 0, 53, 100
2, 1592000, Note_off_c, 0, 60, 64
2, 1592500, Note_off_c, 0, 62, 64
2, 1593000, Note_on_c, 0, 57, 100
2, 1596500, Note_on_c, 0, 62, 100
2, 1597000, Note_on_c, 0, 64, 100
2, 1598500, Note_off_c, 0, 57, 64
2, 1600000, Note_off_c, 0, 64, 64
2, 1600500, Note_on_c, 0, 65, 100
2, 1601000, Note_on_c, 0, 48, 100
2, 1604500, Note_off_c, 0, 65, 64
2, 1605000, Note_on_c, 0, 64, 100
2, 1608500, Note_off_c, 0, 64, 64
2, 1609000, Note_on_c, 0, 65, 100
2, 1609500, Note_off_c, 0, 48, 64
2, 1610000, Note_off_c, 0, 53, 64
2, 1613500, Note_off_c, 0, 62, 64
2, 1615000, Note_off_c, 0, 65, 64
2, 1615500, Note_on_c, 0, 53, 100
2, 1617000, Note_on_c, 0, 62, 100
2, 1617500, Note_on_c, 0, 64, 100
2, 1618000, Note_on_c, 0, 57, 100
2, 1621500, Note_off_c, 0, 64, 64
2, 1622000, Note_on_c, 0, 65, 100
2, 1623500, Note_off_c, 0, 57, 64
2, 1625000, Note_off_c, 0, 65, 64
2, 1625500, Note_on_c, 0, 67, 100
2, 1626000, Note_on_c, 0, 46, 100
2, 1629500, Note_off_c, 0, 67, 64
2, 1630000, Note_on_c, 0, 65, 100
2, 1633500, Note_off_c, 0, 65, 64
2, 1634000, Note_on_c, 0, 67, 100
2, 1634500, Note_off_c, 0, 46, 64
2, 1635000, Note_on_c, 0, 50, 100
2, 1638500, Note_off_c, 0, 62, 64
2, 1639000, Note_off_c, 0, 67, 64
2, 1639500, Note_on_c, 0, 65, 100
2, 1641000, Note_off_c, 0, 50, 64
2, 1642500, Note_on_c, 0, 62, 100
2, 1643000, Note_on_c, 0, 64, 100
2, 1643500, Note_off_c, 0, 65, 64
2, 1644000, Note_on_c, 0, 55, 100
2, 1647500, Note_off_c, 0, 64, 64
2, 1648000, Note_on_c, 0, 65, 100
2, 1648500, Note_off_c, 0, 62, 64
2, 1650000, Note_off_c, 0, 55, 64
2, 1651500, Note_off_c, 0, 65, 64
2, 1652000, Note_on_c, 0, 67, 100
2, 1652500, Note_on_c, 0, 62, 100
2, 1653000, Note_on_c, 0, 60, 100
2, 1653500, Note_on_c, 0, 52, 100
2, 1657000, Note_off_c, 0, 67, 64
2, 1657500, Note_on_c, 0, 65, 100
2, 1659000, Note_off_c, 0, 60, 64
2, 1660500, Note_off_c, 0, 65, 64
2, 1661000, Note_on_c, 0, 67, 100
2, 1661500, Note_on_c, 0, 64, 100
2, 1662000, Note_off_c, 0, 52, 64
2, 1662500, Note_on_c, 0, 55, 100
2, 1666000, Note_off_c, 0, 67, 64
2, 1666500, Note_on_c, 0, 65, 100
2, 1668000, Note_off_c, 0, 64, 64
2, 1668500, Note_off_c, 0, 55, 64
2, 1670000, Note_off_c, 0, 65, 64
2, 1670500, Note_on_c, 0, 64, 100
2, 1671000, Note_on_c, 0, 67, 100
2, 1671500, Note_on_c, 0, 48, 100
2, 1675000, Note_off_c, 0, 64, 64
2, 1675500, Note_off_c, 0, 62, 64
2, 1677000, Note_off_c, 0, 67, 64
2, 1677500, Note_off_c, 0, 48, 64
2, 1679000, Note_on_c, 0, 62, 100
2, 1679500, Note_on_c, 0, 60, 100
2, 1680000, Note_on_c, 0, 69, 100
2, 1680500, Note_off_c, 0, 41, 64
2, 1684000, Note_off_c, 0, 60, 64
2, 1684500, Note_on_c, 0, 58, 100
2, 1685000, Note_off_c, 0, 69, 64
2, 1685500, Note_on_c, 0, 67, 100
2, 1689000, Note_off_c, 0, 58, 64
2, 1689500, Note_on_c, 0, 60, 100
2, 1690000, Note_off_c, 0, 67, 64
2, 1690500, Note_on_c, 0, 69, 100
2, 1691000, Note_on_c, 0, 41, 100
2, 1691500, Note_on_c, 0, 45, 100
2, 1695000, Note_off_c, 0, 60, 64
2, 1695500, Note_off_c, 0, 62, 64
2, 1696000, Note_off_c, 0, 69, 64
2, 1696500, Note_on_c, 0, 70, 100
2, 1698000, Note_off_c, 0, 45, 64
2, 1699500, Note_on_c, 0, 62, 100
2, 1700000, Note_on_c, 0, 60, 100
2, 1700500, Note_off_c, 0, 70, 64
2, 1701000, Note_on_c, 0, 69, 100
2, 1701500, Note_on_c, 0, 48, 100
2, 1705000, Note_off_c, 0, 60, 64
2, 1705500, Note_on_c, 0, 58, 100
2, 1706000, Note_off_c, 0, 69, 64
2, 1706500, Note_on_c, 0, 67, 100
2, 1708000, Note_off_c, 0, 48, 64
2, 1709500, Note_off_c, 0, 58, 64
2, 1710000, Note_on_c, 0, 57, 100
2, 1710500, Note_off_c, 0, 67, 64
2, 1711000, Note_on_c, 0, 65, 100
2, 1711500, Note_off_c, 0, 53, 64
2, 1715000, Note_off_c, 0, 57, 64
2, 1715500, Note_on_c, 0, 55, 100
2, 1717000, Note_off_c, 0, 65, 64
2, 1718500, Note_off_c, 0, 55, 64
2, 1719000, Note_on_c, 0, 57, 100
2, 1719500, Note_on_c, 0, 60, 100
2, 1720000, Note_on_c, 0, 53, 100
2, 1720500, Note_on_c, 0, 52, 100
2, 1724000, Note_off_c, 0, 57, 64
2, 1724500, Note_on_c, 0, 58, 100
2, 1726000, Note_off_c, 0, 60, 64
2, 1726500, Note_off_c, 0, 52, 64
2, 1728000, Note_off_c, 0, 58, 64
2, 1728500, Note_on_c, 0, 60, 100
2, 1729000, Note_on_c, 0, 69, 100
2, 1729500, Note_off_c, 0, 53, 64
2, 1733000, Note_off_c, 0, 60, 64
2, 1733500, Note_on_c, 0, 57, 100
2, 1735000, Note_on_c, 0, 53, 100
2, 1736500, Note_off_c, 0, 57, 64
2, 1737000, Note_off_c, 0, 62, 64
2, 1737500, Note_on_c, 0, 47, 100
2, 1741000, Note_on_c, 0, 62, 100
2, 1741500, Note_on_c, 0, 64, 100
2, 1743000, Note_off_c, 0, 47, 64
2, 1744500, Note_off_c, 0, 64, 64
2, 1745000, Note_on_c, 0, 65, 100
2, 1745500, Note_off_c, 0, 69, 64
2, 1746000, Note_off_c, 0, 62, 64
2, 1746500, Note_on_c, 0, 50, 100
2, 1750000, Note_off_c, 0, 65, 64
2, 1750500, Note_on_c, 0, 64, 100
2, 1752000, Note_on_c, 0, 62, 100
2, 1752500, Note_off_c, 0, 50, 64
2, 1754000, Note_off_c, 0, 64, 64
2, 1754500, Note_off_c, 0, 62, 64
2, 1755000, Note_on_c, 0, 65, 100
2, 1755500, Note_on_c, 0, 47, 100
2, 1759000, Note_on_c, 0, 62, 100
2, 1759500, Note_on_c, 0, 60, 100
2, 1761000, Note_off_c, 0, 47, 64
2, 1762500, Note_off_c, 0, 60, 64
2, 1763000, Note_on_c, 0, 59, 100
2, 1763500, Note_on_c, 0, 43, 100
2, 1767000, Note_off_c, 0, 59, 64
2, 1767500, Note_on_c, 0, 57, 100
2, 1769000, Note_off_c, 0, 43, 64
2, 1770500, Note_off_c, 0, 57, 64
2, 1771000, Note_on_c, 0, 55, 100
2, 1771500, Note_off_c, 0, 65, 64
2, 1772000, Note_on_c, 0, 59, 100
2, 1772500, Note_on_c, 0, 52, 100
2, 1776000, Note_off_c, 0, 55, 64
2, 1776500, Note_on_c, 0, 57, 100
2, 1778000, Note_off_c, 0, 59, 64
2, 1778500, Note_off_c, 0, 52, 64
2, 1780000, Note_off_c, 0, 57, 64
2, 1780500, Note_on_c, 0, 59, 100
2, 1781000, Note_on_c, 0, 67, 100
2, 1781500, Note_on_c, 0, 43, 100
2, 1785000, Note_off_c, 0, 59, 64
2, 1785500, Note_on_c, 0, 55, 100
2, 1787000, Note_off_c, 0, 43, 64
2, 1788500, Note_off_c, 0, 55, 64
2, 1789000, Note_on_c, 0, 60, 100
2, 1789500, Note_on_c, 0, 45, 100
2, 1793000, Note_off_c, 0, 60, 64
2, 1793500, Note_off_c, 0, 62, 64
2, 1795000, Note_off_c, 0, 45, 64
2, 1796500, Note_on_c, 0, 62, 100
2, 1797000, Note_on_c, 0, 64, 100
2, 1797500, Note_off_c, 0, 67, 64
2, 1798000, Note_on_c, 0, 60, 100
2, 1798500, Note_on_c, 0, 48, 100
2, 1802000, Note_off_c, 0, 64, 64
2, 1802500, Note_off_c, 0, 62, 64
2, 1804000, Note_off_c, 0, 60, 64
2, 1804500, Note_off_c, 0, 48, 64
2, 1806000, Note_on_c, 0, 62, 100
2, 1806500, Note_on_c, 0, 60, 100
2, 1807000, Note_on_c, 0, 64, 100
2, 1807500, Note_on_c, 0, 45, 100
2, 1811000, Note_off_c, 0, 60, 64
2, 1811500, Note_on_c, 0, 59, 100
2, 1813000, Note_off_c, 0, 45, 64
2, 1814500, Note_off_c, 0, 59, 64
2, 1815000, Note_on_c, 0, 57, 100
2, 1815500, Note_off_c, 0, 41, 64
2, 1819000, Note_off_c, 0, 57, 64
2, 1819500, Note_on_c, 0, 55, 100
2, 1821000, Note_on_c, 0, 41, 100
2, 1822500, Note_off_c, 0, 55, 64
2, 1823000, Note_off_c, 0, 53, 64
2, 1823500, Note_off_c, 0, 64, 64
2, 1824000, Note_on_c, 0, 57, 100
2, 1824500, Note_on_c, 0, 50, 100
2, 1828000, Note_on_c, 0, 53, 100
2, 1828500, Note_on_c, 0, 55, 100
2, 1830000, Note_off_c, 0, 57, 64
2, 1830500, Note_off_c, 0, 50, 64
2, 1832000, Note_off_c, 0, 55, 64
2, 1832500, Note_on_c, 0, 57, 100
2, 1833000, Note_on_c, 0, 65, 100
2, 1833500, Note_off_c, 0, 41, 64
2, 1837000, Note_off_c, 0, 57, 64
2, 1837500, Note_off_c, 0, 53, 64
2, 1839000, Note_on_c, 0, 41, 100
2, 1840500, Note_on_c, 0, 53, 100
2, 1841000, Note_on_c, 0, 59, 100
2, 1841500, Note_on_c, 0, 43, 100
2, 1845000, Note_off_c, 0, 59, 64
2, 1845500, Note_on_c, 0, 60, 100
2, 1849000, Note_off_c, 0, 60, 64
2, 1849500, Note_off_c, 0, 62, 64
2, 1850000, Note_off_c, 0, 65, 64
2, 1850500, Note_on_c, 0, 59, 100
2, 1854000, Note_on_c, 0, 62, 100
2, 1854500, Note_on_c, 0, 60, 100
2, 1856000, Note_off_c, 0, 59, 64
2, 1857500, Note_off_c, 0, 60, 64
2, 1858000, Note_on_c, 0, 59, 100
2, 1858500, Note_off_c, 0, 62, 64
2, 1859000, Note_off_c, 0, 43, 64
2, 1859500, Note_off_c, 0, 41, 64
2, 1863000, Note_off_c, 0, 59, 64
2, 1863500, Note_on_c, 0, 57, 100
2, 1867000, Note_off_c, 0, 57, 64
2, 1867500, Note_on_c, 0, 55, 100
2, 1868000, Note_on_c, 0, 41, 100
2, 1868500, Note_on_c, 0, 40, 100
2, 1872000, Note_off_c, 0, 55, 64
2, 1872500, Note_on_c, 0, 57, 100
2, 1876000, Note_off_c, 0, 57, 64
2, 1876500, Note_on_c, 0, 59, 100
2, 1877000, Note_on_c, 0, 62, 100
2, 1877500, Note_on_c, 0, 55, 100
2, 1881000, Note_off_c, 0, 59, 64
2, 1881500, Note_on_c, 0, 57, 100
2, 1883000, Note_off_c, 0, 55, 64
2, 1884500, Note_off_c, 0, 57, 64
2, 1885000, Note_on_c, 0, 55, 100
2, 1885500, Note_on_c, 0, 65, 100
2, 1886000, Note_off_c, 0, 40, 64
2, 1886500, Note_on_c, 0, 38, 100
2, 1890000, Note_off_c, 0, 55, 64
2, 1890500, Note_off_c, 0, 53, 64
2, 1892000, Note_off_c, 0, 65, 64
2, 1893500, Note_on_c, 0, 53, 100
2, 1894000, Note_on_c, 0, 55, 100
2, 1894500, Note_on_c, 0, 64, 100
2, 1895000, Note_off_c, 0, 38, 64
2, 1895500, Note_on_c, 0, 36, 100
2, 1899000, Note_off_c, 0, 55, 64
2, 1899500, Note_on_c, 0, 60, 100
2, 1903000, Note_off_c, 0, 60, 64
2, 1903500, Note_on_c, 0, 59, 100
2, 1904000, Note_off_c, 0, 64, 64
2, 1904500, Note_off_c, 0, 62, 64
2, 1908000, Note_off_c, 0, 59, 64
2, 1908500, Note_on_c, 0, 57, 100
2, 1910000, Note_on_c, 0, 62, 100
2, 1911500, Note_off_c, 0, 57, 64
2, 1912000, Note_on_c, 0, 55, 100
2, 1912500, Note_on_c, 0, 64, 100
2, 1913000, Note_off_c, 0, 36, 64
2, 1916500, Note_off_c, 0, 55, 64
2, 1917000, Note_off_c, 0, 53, 64
2, 1918500, Note_off_c, 0, 64, 64
2, 1920000, Note_on_c, 0, 53, 100
2, 1920500, Note_on_c, 0, 52, 100
2, 1921000, Note_on_c, 0, 60, 100
2, 1924500, Note_off_c, 0, 52, 64
2, 1925000, Note_off_c, 0, 53, 64
2, 1928500, Note_on_c, 0, 53, 100
2, 1929000, Note_on_c, 0, 55, 100
2, 1929500, Note_off_c, 0, 60, 64
2, 1930000, Note_on_c, 0, 64, 100
2, 1933500, Note_off_c, 0, 55, 64
2, 1934000, Note_off_c, 0, 53, 64
2, 1935500, Note_off_c, 0, 64, 64
2, 1937000, Note_on_c, 0, 53, 100
2, 1937500, Note_on_c, 0, 52, 100
2, 1938000, Note_on_c, 0, 67, 100
2, 1941500, Note_off_c, 0, 52, 64
2, 1942000, Note_on_c, 0, 50, 100
2, 1943500, Note_off_c, 0, 67, 64
2, 1945000, Note_off_c, 0, 50, 64
2, 1945500, Note_on_c, 0, 48, 100
2, 1946000, Note_on_c, 0, 72, 100
2, 1946500, Note_on_c, 0, 65, 100
2, 1947000, Note_on_c, 0, 60, 100
2, 1947500, Note_on_c, 0, 45, 100
2, 1948000, Note_on_c, 0, 33, 100
2, 1953500, Note_off_c, 0, 48, 64
2, 1954000, Note_off_c, 0, 72, 64
2, 1955500, Note_off_c, 0, 60, 64
2, 1956000, Note_off_c, 0, 65, 64
2, 1961500, Note_on_c, 0, 60, 100
2, 1962000, Note_on_c, 0, 65, 100
2, 1963500, Note_on_c, 0, 69, 100
2, 1964000, Note_off_c, 0, 65, 64
2, 1964500, Note_off_c, 0, 60, 64
2, 1965000, Note_off_c, 0, 45, 64
2, 1965500, Note_off_c, 0, 33, 64
2, 1973000, Note_on_c, 0, 65, 100
2, 1973500, Note_on_c, 0, 60, 100
2, 1974000, Note_on_c, 0, 50, 100
2, 1974500, Note_on_c, 0, 38, 100
2, 1982000, Note_off_c, 0, 69, 64
2, 1982500, Note_off_c, 0, 62, 64
2, 1988000, Note_on_c, 0, 62, 100
2, 1989500, Note_on_c, 0, 70, 100
2, 1990000, Note_off_c, 0, 65, 64
2, 1990500, Note_off_c, 0, 60, 64
2, 1991000, Note_off_c, 0, 50, 64
2, 1991500, Note_off_c, 0, 38, 64
2, 1999000, Note_on_c, 0, 65, 100
2, 1999500, Note_on_c, 0, 58, 100
2, 2000000, Note_on_c, 0, 43, 100
2, 2000500, Note_on_c, 0, 31, 100
2, 2008000, Note_off_c, 0, 70, 64
2, 2008500, Note_on_c, 0, 64, 100
2, 2014000, Note_off_c, 0, 64, 64
2, 2015500, Note_on_c, 0, 67, 100
2, 2016000, Note_off_c, 0, 65, 64
2, 2016500, Note_off_c, 0, 58, 64
2, 2017000, Note_off_c, 0, 43, 64
2, 2017500, Note_off_c, 0, 31, 64
2, 2025000, Note_on_c, 0, 64, 100
2, 2025500, Note_on_c, 0, 60, 100
2, 2026000, Note_on_c, 0, 48, 100
2, 2026500, Note_on_c, 0, 36, 100
2, 2034000, Note_off_c, 0, 67, 64
2, 2034500, Note_off_c, 0, 60, 64
2, 2040000, Note_on_c, 0, 60, 100
2, 2041500, Note_on_c, 0, 69, 100
2, 2042000, Note_off_c, 0, 64, 64
2, 2042500, Note_off_c, 0, 60, 64
2, 2043000, Note_off_c, 0, 48, 64
2, 2043500, Note_off_c, 0, 36, 64
2, 2051000, Note_on_c, 0, 65, 100
2, 2051500, Note_on_c, 0, 60, 100
2, 2052000, Note_off_c, 0, 41, 64
2, 2052500, Note_on_c, 0, 29, 100
2, 2056000, Note_off_c, 0, 69, 64
2, 2056500, Note_off_c, 0, 65, 64
2, 2060000, Note_on_c, 0, 69, 100
2, 2060500, Note_off_c, 0, 60, 64
2, 2061000, Note_on_c, 0, 65, 100
2, 2061500, Note_on_c, 0, 64, 100
2, 2065000, Note_off_c, 0, 64, 64
2, 2065500, Note_off_c, 0, 62, 64
2, 2067000, Note_on_c, 0, 60, 100
2, 2068500, Note_off_c, 0, 65, 64
2, 2069000, Note_on_c, 0, 62, 100
2, 2069500, Note_off_c, 0, 60, 64
2, 2070000, Note_on_c, 0, 41, 100
2, 2070500, Note_off_c, 0, 53, 64
2, 2071000, Note_off_c, 0, 29, 64
2, 2074500, Note_on_c, 0, 60, 100
2, 2075000, Note_on_c, 0, 58, 100
2, 2076500, Note_on_c, 0, 53, 100
2, 2078000, Note_off_c, 0, 58, 64
2, 2078500, Note_on_c, 0, 57, 100
2, 2079000, Note_off_c, 0, 41, 64
2, 2082500, Note_off_c, 0, 57, 64
2, 2083000, Note_off_c, 0, 62, 64
2, 2086500, Note_on_c, 0, 65, 100
2, 2087000, Note_on_c, 0, 57, 100
2, 2087500, Note_on_c, 0, 62, 100
2, 2088000, Note_off_c, 0, 60, 64
2, 2091500, Note_on_c, 0, 60, 100
2, 2092000, Note_on_c, 0, 58, 100
2, 2093500, Note_off_c, 0, 57, 64
2, 2095000, Note_off_c, 0, 60, 64
2, 2095500, Note_off_c, 0, 58, 64
2, 2096000, Note_on_c, 0, 57, 100
2, 2096500, Note_on_c, 0, 41, 100
2, 2097000, Note_off_c, 0, 53, 64
2, 2100500, Note_off_c, 0, 57, 64
2, 2101000, Note_on_c, 0, 55, 100
2, 2102500, Note_on_c, 0, 53, 100
2, 2104000, Note_off_c, 0, 55, 64
2, 2104500, Note_off_c, 0, 53, 64
2, 2105000, Note_off_c, 0, 41, 64
2, 2108500, Note_on_c, 0, 53, 100
2, 2109000, Note_on_c, 0, 48, 100
2, 2112500, Note_on_c, 0, 60, 100
2, 2113000, Note_off_c, 0, 53, 64
2, 2113500, Note_off_c, 0, 48, 64
2, 2114000, Note_on_c, 0, 50, 100
2, 2117500, Note_off_c, 0, 50, 64
2, 2118000, Note_on_c, 0, 52, 100
2, 2119500, Note_on_c, 0, 53, 100
2, 2121000, Note_on_c, 0, 57, 100
2, 2121500, Note_off_c, 0, 52, 64
2, 2122000, Note_off_c, 0, 53, 64
2, 2122500, Note_on_c, 0, 41, 100
2, 2126000, Note_on_c, 0, 53, 100
2, 2126500, Note_on_c, 0, 55, 100
2, 2128000, Note_off_c, 0, 57, 64
2, 2128500, Note_off_c, 0, 53, 64
2, 2130000, Note_off_c, 0, 60, 64
2, 2130500, Note_off_c, 0, 55, 64
2, 2131000, Note_on_c, 0, 57, 100
2, 2131500, Note_off_c, 0, 41, 64
2, 2135000, Note_off_c, 0, 57, 64
2, 2135500, Note_on_c, 0, 55, 100
2, 2137000, Note_on_c, 0, 60, 100
2, 2138500, Note_on_c, 0, 57, 100
2, 2139000, Note_off_c, 0, 55, 64
2, 2139500, Note_on_c, 0, 53, 100
2, 2143000, Note_off_c, 0, 53, 64
2, 2143500, Note_on_c, 0, 55, 100
2, 2145000, Note_off_c, 0, 57, 64
2, 2146500, Note_off_c, 0, 60, 64
2, 2147000, Note_off_c, 0, 55, 64
2, 2147500, Note_on_c, 0, 57, 100
2, 2148000, Note_on_c, 0, 41, 100
2, 2148500, Note_on_c, 0, 53, 100
2, 2152000, Note_off_c, 0, 57, 64
2, 2152500, Note_on_c, 0, 58, 100
2, 2154000, Note_on_c, 0, 60, 100
2, 2154500, Note_off_c, 0, 53, 64
2, 2156000, Note_off_c, 0, 65, 64
2, 2156500, Note_off_c, 0, 58, 64
2, 2157000, Note_off_c, 0, 60, 64
2, 2157500, Note_on_c, 0, 57, 100
2, 2158000, Note_off_c, 0, 41, 64
2, 2158500, Note_on_c, 0, 29, 100
2, 2164000, Note_on_c, 0, 65, 100
2, 2164500, Note_on_c, 0, 60, 100
2, 2166000, Note_off_c, 0, 60, 64
2, 2166500, Note_on_c, 0, 53, 100
2, 2172000, Note_on_c, 0, 60, 100
2, 2172500, Note_off_c, 0, 53, 64
2, 2174000, Note_off_c, 0, 62, 64
2, 2174500, Note_off_c, 0, 57, 64
2, 2175000, Note_off_c, 0, 60, 64
2, 2175500, Note_on_c, 0, 41, 100
2, 2176000, Note_off_c, 0, 29, 64
2, 2183500, Note_on_c, 0, 58, 100
2, 2184000, Note_on_c, 0, 53, 100
2, 2184500, Note_off_c, 0, 41, 64
2, 2192000, Note_on_c, 0, 62, 100
2, 2192500, Note_on_c, 0, 60, 100
2, 2196000, Note_off_c, 0, 60, 64
2, 2196500, Note_off_c, 0, 58, 64
2, 2198000, Note_on_c, 0, 60, 100
2, 2199500, Note_on_c, 0, 58, 100
2, 2200000, Note_on_c, 0, 57, 100
2, 2200500, Note_off_c, 0, 65, 64
2, 2201000, Note_off_c, 0, 53, 64
2, 2201500, Note_on_c, 0, 41, 100
2, 2205000, Note_off_c, 0, 57, 64
2, 2205500, Note_on_c, 0, 55, 100
2, 2209000, Note_off_c, 0, 55, 64
2, 2209500, Note_on_c, 0, 57, 100
2, 2210000, Note_off_c, 0, 41, 64
2, 2213500, Note_off_c, 0, 57, 64
2, 2214000, Note_off_c, 0, 58, 64
2, 2217500, Note_on_c, 0, 58, 100
2, 2218000, Note_off_c, 0, 60, 64
2, 2218500, Note_on_c, 0, 65, 100
2, 2222000, Note_on_c, 0, 60, 100
2, 2222500, Note_off_c, 0, 58, 64
2, 2224000, Note_off_c, 0, 60, 64
2, 2225500, Note_on_c, 0, 58, 100
2, 2226000, Note_on_c, 0, 57, 100
2, 2226500, Note_off_c, 0, 62, 64
2, 2227000, Note_on_c, 0, 41, 100
2, 2230500, Note_off_c, 0, 57, 64
2, 2231000, Note_on_c, 0, 55, 100
2, 2234500, Note_off_c, 0, 55, 64
2, 2235000, Note_on_c, 0, 53, 100
2, 2238500, Note_off_c, 0, 53, 64
2, 2239000, Note_on_c, 0, 55, 100
2, 2242500, Note_off_c, 0, 55, 64
2, 2243000, Note_on_c, 0, 57, 100
2, 2243500, Note_on_c, 0, 62, 100
2, 2244000, Note_on_c, 0, 60, 100
2, 2247500, Note_off_c, 0, 57, 64
2, 2248000, Note_on_c, 0, 55, 100
2, 2249500, Note_off_c, 0, 60, 64
2, 2251000, Note_off_c, 0, 55, 64
2, 2251500, Note_on_c, 0, 53, 100
2, 2252000, Note_off_c, 0, 65, 64
2, 2252500, Note_on_c, 0, 60, 100
2, 2253000, Note_on_c, 0, 57, 100
2, 2253500, Note_off_c, 0, 41, 64
2, 2254000, Note_on_c, 0, 29, 100
2, 2257500, Note_off_c, 0, 53, 64
2, 2258000, Note_on_c, 0, 52, 100
2, 2259500, Note_on_c, 0, 41, 100
2, 2260000, Note_off_c, 0, 29, 64
2, 2261500, Note_off_c, 0, 52, 64
2, 2262000, Note_on_c, 0, 50, 100
2, 2262500, Note_off_c, 0, 60, 64
2, 2263000, Note_off_c, 0, 62, 64
2, 2263500, Note_off_c, 0, 57, 64
2, 2264000, Note_off_c, 0, 58, 64
2, 2264500, Note_on_c, 0, 46, 100
2, 2265000, Note_on_c, 0, 34, 100
2, 2272500, Note_off_c, 0, 50, 64
2, 2273000, Note_on_c, 0, 62, 100
2, 2273500, Note_on_c, 0, 65, 100
2, 2279000, Note_off_c, 0, 62, 64
2, 2280500, Note_on_c, 0, 70, 100
2, 2281000, Note_on_c, 0, 62, 100
2, 2281500, Note_on_c, 0, 67, 100
2, 2282000, Note_on_c, 0, 58, 100
2, 2282500, Note_off_c, 0, 46, 64
2, 2283000, Note_on_c, 0, 43, 100
2, 2283500, Note_off_c, 0, 34, 64
2, 2284000, Note_on_c, 0, 31, 100
2, 2289500, Note_off_c, 0, 67, 64
2, 2290000, Note_off_c, 0, 62, 64
2, 2290500, Note_off_c, 0, 43, 64
2, 2291000, Note_off_c, 0, 31, 64
2, 2292500, Note_on_c, 0, 55, 100
2, 2293000, Note_on_c, 0, 64, 100
2, 2293500, Note_on_c, 0, 48, 100
2, 2294000, Note_on_c, 0, 36, 100
2, 2301500, Note_off_c, 0, 70, 64
2, 2302000, Note_off_c, 0, 64, 64
2, 2307500, Note_on_c, 0, 64, 100
2, 2309000, Note_on_c, 0, 72, 100
2, 2309500, Note_off_c, 0, 55, 64
2, 2310000, Note_on_c, 0, 67, 100
2, 2310500, Note_off_c, 0, 64, 64
2, 2311000, Note_on_c, 0, 60, 100
2, 2311500, Note_off_c, 0, 48, 64
2, 2312000, Note_on_c, 0, 52, 100
2, 2312500, Note_off_c, 0, 36, 64
2, 2313000, Note_on_c, 0, 40, 100
2, 2318500, Note_off_c, 0, 67, 64
2, 2319000, Note_off_c, 0, 60, 64
2, 2319500, Note_off_c, 0, 52, 64
2, 2320000, Note_off_c, 0, 40, 64
2, 2321500, Note_off_c, 0, 72, 64
2, 2322000, Note_off_c, 0, 69, 64
2, 2322500, Note_off_c, 0, 65, 64
2, 2323000, Note_on_c, 0, 60, 100
2, 2323500, Note_on_c, 0, 53, 100
2, 2324000, Note_off_c, 0, 41, 64
2, 2329500, Note_on_c, 0, 69, 100
2, 2330000, Note_on_c, 0, 65, 100
2, 2330500, Note_off_c, 0, 60, 64
2, 2331000, Note_off_c, 0, 53, 64
2, 2331500, Note_on_c, 0, 41, 100
2, 2333000, Note_off_c, 0, 65, 64
2, 2333500, Note_on_c, 0, 60, 100
2, 2334000, Note_on_c, 0, 57, 100
2, 2334500, Note_on_c, 0, 33, 100
2, 2335000, Note_on_c, 0, 45, 100
2, 2340500, Note_on_c, 0, 65, 100
2, 2341000, Note_off_c, 0, 60, 64
2, 2341500, Note_off_c, 0, 57, 64
2, 2342000, Note_off_c, 0, 33, 64
2, 2342500, Note_off_c, 0, 45, 64
2, 2344000, Note_on_c, 0, 64, 100
2, 2344500, Note_on_c, 0, 60, 100
2, 2345000, Note_on_c, 0, 55, 100
2, 2345500, Note_on_c, 0, 36, 100
2, 2346000, Note_on_c, 0, 48, 100
2, 2347500, Note_off_c, 0, 64, 64
2, 2348000, Note_off_c, 0, 65, 64
2, 2349500, Note_on_c, 0, 65, 100
2, 2350000, Note_on_c, 0, 64, 100
2, 2351500, Note_off_c, 0, 60, 64
2, 2352000, Note_off_c, 0, 55, 64
2, 2352500, Note_off_c, 0, 36, 64
2, 2353000, Note_off_c, 0, 48, 64
2, 2354500, Note_off_c, 0, 64, 64
2, 2355000, Note_off_c, 0, 65, 64
2, 2355500, Note_on_c, 0, 60, 100
2, 2356000, Note_on_c, 0, 57, 100
2, 2356500, Note_on_c, 0, 53, 100
2, 2357000, Note_off_c, 0, 41, 64
2, 2357500, Note_on_c, 0, 29, 100
2, 2361000, Note_off_c, 0, 53, 64
2, 2361500, Note_on_c, 0, 55, 100
2, 2365000, Note_off_c, 0, 55, 64
2, 2365500, Note_off_c, 0, 57, 64
2, 2369000, Note_on_c, 0, 57, 100
2, 2369500, Note_on_c, 0, 55, 100
2, 2373000, Note_on_c, 0, 65, 100
2, 2373500, Note_off_c, 0, 60, 64
2, 2374000, Note_off_c, 0, 57, 64
2, 2374500, Note_off_c, 0, 55, 64
2, 2375000, Note_on_c, 0, 53, 100
2, 2375500, Note_on_c, 0, 41, 100
2, 2376000, Note_off_c, 0, 29, 64
2, 2379500, Note_off_c, 0, 53, 64
2, 2380000, Note_on_c, 0, 51, 100
2, 2381500, Note_on_c, 0, 60, 100
2, 2383000, Note_off_c, 0, 65, 64
2, 2383500, Note_off_c, 0, 51, 64
2, 2384000, Note_on_c, 0, 50, 100
2, 2387500, Note_off_c, 0, 50, 64
2, 2388000, Note_on_c, 0, 51, 100
2, 2391500, Note_off_c, 0, 51, 64
2, 2392000, Note_on_c, 0, 53, 100
2, 2395500, Note_off_c, 0, 53, 64
2, 2396000, Note_on_c, 0, 51, 100
2, 2399500, Note_off_c, 0, 69, 64
2, 2400000, Note_off_c, 0, 51, 64
2, 2400500, Note_on_c, 0, 50, 100
2, 2404000, Note_off_c, 0, 50, 64
2, 2404500, Note_on_c, 0, 48, 100
2, 2406000, Note_on_c, 0, 69, 100
2, 2407500, Note_on_c, 0, 74, 100
2, 2408000, Note_off_c, 0, 48, 64
2, 2408500, Note_on_c, 0, 47, 100
2, 2412000, Note_off_c, 0, 47, 64
2, 2412500, Note_on_c, 0, 50, 100
2, 2416000, Note_on_c, 0, 65, 100
2, 2416500, Note_on_c, 0, 59, 100
2, 2417000, Note_off_c, 0, 50, 64
2, 2417500, Note_on_c, 0, 55, 100
2, 2421000, Note_off_c, 0, 55, 64
2, 2421500, Note_on_c, 0, 53, 100
2, 2423000, Note_off_c, 0, 59, 64
2, 2424500, Note_on_c, 0, 62, 100
2, 2425000, Note_off_c, 0, 53, 64
2, 2425500, Note_on_c, 0, 51, 100
2, 2429000, Note_off_c, 0, 51, 64
2, 2429500, Note_on_c, 0, 50, 100
2, 2431000, Note_off_c, 0, 62, 64
2, 2432500, Note_on_c, 0, 63, 100
2, 2433000, Note_off_c, 0, 50, 64
2, 2433500, Note_on_c, 0, 48, 100
2, 2437000, Note_off_c, 0, 63, 64
2, 2437500, Note_off_c, 0, 65, 64
2, 2439000, Note_off_c, 0, 48, 64
2, 2440500, Note_off_c, 0, 74, 64
2, 2441000, Note_on_c, 0, 67, 100
2, 2441500, Note_on_c, 0, 65, 100
2, 2442000, Note_on_c, 0, 51, 100
2, 2445500, Note_off_c, 0, 67, 64
2, 2446000, Note_off_c, 0, 65, 64
2, 2447500, Note_on_c, 0, 67, 100
2, 2448000, Note_off_c, 0, 51, 64
2, 2449500, Note_on_c, 0, 71, 100
2, 2450000, Note_on_c, 0, 65, 100
2, 2450500, Note_on_c, 0, 63, 100
2, 2451000, Note_off_c, 0, 67, 64
2, 2451500, Note_on_c, 0, 55, 100
2, 2452000, Note_on_c, 0, 43, 100
2, 2452500, Note_on_c, 0, 31, 100
2, 2456000, Note_off_c, 0, 63, 64
2, 2456500, Note_on_c, 0, 62, 100
2, 2457000, Note_off_c, 0, 43, 64
2, 2457500, Note_off_c, 0, 31, 64
2, 2459000, Note_off_c, 0, 71, 64
2, 2459500, Note_on_c, 0, 67, 100
2, 2460000, Note_off_c, 0, 55, 64
2, 2461500, Note_on_c, 0, 72, 100
2, 2462000, Note_off_c, 0, 62, 64
2, 2462500, Note_on_c, 0, 63, 100
2, 2463000, Note_on_c, 0, 55, 100
2, 2463500, Note_off_c, 0, 60, 64
2, 2464000, Note_on_c, 0, 36, 100
2, 2464500, Note_on_c, 0, 48, 100
2, 2468000, Note_off_c, 0, 63, 64
2, 2468500, Note_on_c, 0, 62, 100
2, 2470000, Note_off_c, 0, 72, 64
2, 2470500, Note_on_c, 0, 60, 100
2, 2472000, Note_off_c, 0, 60, 64
2, 2472500, Note_off_c, 0, 62, 64
2, 2473000, Note_on_c, 0, 51, 100
2, 2476500, Note_on_c, 0, 60, 100
2, 2477000, Note_on_c, 0, 63, 100
2, 2478500, Note_off_c, 0, 60, 64
2, 2479000, Note_off_c, 0, 51, 64
2, 2480500, Note_off_c, 0, 63, 64
2, 2481000, Note_on_c, 0, 62, 100
2, 2481500, Note_off_c, 0, 55, 64
2, 2482000, Note_off_c, 0, 36, 64
2, 2482500, Note_off_c, 0, 48, 64
2, 2486000, Note_off_c, 0, 62, 64
2, 2486500, Note_off_c, 0, 65, 64
2, 2488000, Note_on_c, 0, 55, 100
2, 2489500, Note_on_c, 0, 65, 100
2, 2490000, Note_on_c, 0, 63, 100
2, 2490500, Note_on_c, 0, 48, 100
2, 2494000, Note_off_c, 0, 48, 64
2, 2494500, Note_on_c, 0, 50, 100
2, 2498000, Note_off_c, 0, 50, 64
2, 2498500, Note_on_c, 0, 51, 100
2, 2502000, Note_off_c, 0, 51, 64
2, 2502500, Note_on_c, 0, 50, 100
2, 2506000, Note_off_c, 0, 67, 64
2, 2506500, Note_off_c, 0, 50, 64
2, 2507000, Note_on_c, 0, 48, 100
2, 2510500, Note_off_c, 0, 48, 64
2, 2511000, Note_on_c, 0, 46, 100
2, 2512500, Note_on_c, 0, 67, 100
2, 2514000, Note_on_c, 0, 72, 100
2, 2514500, Note_off_c, 0, 46, 64
2, 2515000, Note_on_c, 0, 45, 100
2, 2518500, Note_off_c, 0, 45, 64
2, 2519000, Note_on_c, 0, 48, 100
2, 2522500, Note_off_c, 0, 63, 64
2, 2523000, Note_on_c, 0, 57, 100
2, 2523500, Note_off_c, 0, 48, 64
2, 2524000, Note_on_c, 0, 53, 100
2, 2527500, Note_off_c, 0, 53, 64
2, 2528000, Note_on_c, 0, 51, 100
2, 2529500, Note_off_c, 0, 57, 64
2, 2531000, Note_on_c, 0, 60, 100
2, 2531500, Note_off_c, 0, 51, 64
2, 2532000, Note_on_c, 0, 50, 100
2, 2535500, Note_off_c, 0, 50, 64
2, 2536000, Note_on_c, 0, 48, 100
2, 2537500, Note_off_c, 0, 60, 64
2, 2539000, Note_on_c, 0, 62, 100
2, 2539500, Note_off_c, 0, 48, 64
2, 2540000, Note_on_c, 0, 46, 100
2, 2543500, Note_off_c, 0, 62, 64
2, 2544000, Note_on_c, 0, 63, 100
2, 2545500, Note_off_c, 0, 46, 64
2, 2547000, Note_off_c, 0, 72, 64
2, 2547500, Note_off_c, 0, 65, 64
2, 2548000, Note_off_c, 0, 63, 64
2, 2548500, Note_on_c, 0, 50, 100
2, 2552000, Note_on_c, 0, 65, 100
2, 2552500, Note_on_c, 0, 63, 100
2, 2554000, Note_off_c, 0, 65, 64
2, 2554500, Note_off_c, 0, 50, 64
2, 2556000, Note_off_c, 0, 69, 64
2, 2556500, Note_off_c, 0, 63, 64
2, 2557000, Note_on_c, 0, 62, 100
2, 2557500, Note_on_c, 0, 65, 100
2, 2558000, Note_on_c, 0, 53, 100
2, 2558500, Note_off_c, 0, 41, 64
2, 2559000, Note_on_c, 0, 29, 100
2, 2562500, Note_off_c, 0, 62, 64
2, 2563000, Note_on_c, 0, 60, 100
2, 2563500, Note_on_c, 0, 41, 100
2, 2564000, Note_off_c, 0, 29, 64
2, 2565500, Note_on_c, 0, 69, 100
2, 2566000, Note_off_c, 0, 65, 64
2, 2566500, Note_off_c, 0, 53, 64
2, 2568000, Note_on_c, 0, 70, 100
2, 2568500, Note_off_c, 0, 60, 64
2, 2569000, Note_on_c, 0, 62, 100
2, 2569500, Note_on_c, 0, 53, 100
2, 2570000, Note_off_c, 0, 58, 64
2, 2570500, Note_on_c, 0, 34, 100
2, 2571000, Note_on_c, 0, 46, 100
2, 2574500, Note_on_c, 0, 58, 100
2, 2575000, Note_on_c, 0, 60, 100
2, 2576500, Note_off_c, 0, 70, 64
2, 2577000, Note_off_c, 0, 62, 64
2, 2578500, Note_off_c, 0, 58, 64
2, 2579000, Note_off_c, 0, 60, 64
2, 2582500, Note_on_c, 0, 58, 100
2, 2583000, Note_on_c, 0, 57, 100
2, 2584500, Note_off_c, 0, 58, 64
2, 2586000, Note_on_c, 0, 62, 100
2, 2586500, Note_off_c, 0, 53, 64
2, 2587000, Note_off_c, 0, 57, 64
2, 2587500, Note_off_c, 0, 55, 64
2, 2588000, Note_off_c, 0, 34, 64
2, 2588500, Note_off_c, 0, 46, 64
2, 2592000, Note_on_c, 0, 55, 100
2, 2592500, Note_on_c, 0, 53, 100
2, 2594000, Note_off_c, 0, 62, 64
2, 2595500, Note_off_c, 0, 67, 64
2, 2596000, Note_off_c, 0, 53, 64
2, 2596500, Note_on_c, 0, 51, 100
2, 2600000, Note_off_c, 0, 51, 64
2, 2600500, Note_on_c, 0, 53, 100
2, 2604000, Note_off_c, 0, 53, 64
2, 2604500, Note_off_c, 0, 55, 64
2, 2608000, Note_on_c, 0, 55, 100
2, 2608500, Note_on_c, 0, 53, 100
2, 2612000, Note_on_c, 0, 70, 100
2, 2612500, Note_off_c, 0, 53, 64
2, 2613000, Note_on_c, 0, 51, 100
2, 2616500, Note_off_c, 0, 51, 64
2, 2617000, Note_on_c, 0, 50, 100
2, 2618500, Note_off_c, 0, 70, 64
2, 2620000, Note_on_c, 0, 75, 100
2, 2620500, Note_off_c, 0, 50, 64
2, 2621000, Note_on_c, 0, 48, 100
2, 2624500, Note_off_c, 0, 48, 64
2, 2625000, Note_on_c, 0, 51, 100
2, 2628500, Note_on_c, 0, 67, 100
2, 2629000, Note_on_c, 0, 60, 100
2, 2629500, Note_off_c, 0, 51, 64
2, 2630000, Note_on_c, 0, 57, 100
2, 2633500, Note_off_c, 0, 57, 64
2, 2634000, Note_off_c, 0, 55, 64
2, 2635500, Note_off_c, 0, 60, 64
2, 2637000, Note_on_c, 0, 63, 100
2, 2637500, Note_on_c, 0, 60, 100
2, 2638000, Note_on_c, 0, 57, 100
2, 2638500, Note_on_c, 0, 55, 100
2, 2639000, Note_on_c, 0, 53, 100
2, 2639500, Note_on_c, 0, 36, 100
2, 2640000, Note_on_c, 0, 48, 100
2, 2643500, Note_off_c, 0, 53, 64
2, 2644000, Note_on_c, 0, 51, 100
2, 2645500, Note_off_c, 0, 63, 64
2, 2646000, Note_off_c, 0, 60, 64
2, 2646500, Note_off_c, 0, 57, 64
2, 2647000, Note_off_c, 0, 36, 64
2, 2647500, Note_off_c, 0, 48, 64
2, 2649000, Note_on_c, 0, 65, 100
2, 2649500, Note_on_c, 0, 60, 100
2, 2650000, Note_on_c, 0, 53, 100
2, 2650500, Note_off_c, 0, 51, 64
2, 2651000, Note_on_c, 0, 50, 100
2, 2651500, Note_on_c, 0, 38, 100
2, 2655000, Note_off_c, 0, 50, 64
2, 2655500, Note_on_c, 0, 51, 100
2, 2659000, Note_off_c, 0, 75, 64
2, 2659500, Note_off_c, 0, 69, 64
2, 2660000, Note_off_c, 0, 51, 64
2, 2660500, Note_off_c, 0, 53, 64
2, 2664000, Note_on_c, 0, 53, 100
2, 2664500, Note_on_c, 0, 51, 100
2, 2666000, Note_on_c, 0, 69, 100
2, 2667500, Note_on_c, 0, 72, 100
2, 2668000, Note_off_c, 0, 51, 64
2, 2668500, Note_on_c, 0, 50, 100
2, 2672000, Note_off_c, 0, 50, 64
2, 2672500, Note_on_c, 0, 48, 100
2, 2674000, Note_off_c, 0, 72, 64
2, 2675500, Note_on_c, 0, 74, 100
2, 2676000, Note_off_c, 0, 60, 64
2, 2676500, Note_off_c, 0, 53, 64
2, 2677000, Note_off_c, 0, 48, 64
2, 2677500, Note_on_c, 0, 46, 100
2, 2678000, Note_off_c, 0, 38, 64
2, 2678500, Note_on_c, 0, 50, 100
2, 2682000, Note_off_c, 0, 46, 64
2, 2682500, Note_off_c, 0, 50, 64
2, 2686000, Note_off_c, 0, 65, 64
2, 2686500, Note_on_c, 0, 58, 100
2, 2687000, Note_on_c, 0, 50, 100
2, 2687500, Note_off_c, 0, 55, 64
2, 2691000, Note_on_c, 0, 55, 100
2, 2691500, Note_on_c, 0, 53, 100
2, 2693000, Note_off_c, 0, 58, 64
2, 2694500, Note_on_c, 0, 62, 100
2, 2695000, Note_on_c, 0, 58, 100
2, 2695500, Note_off_c, 0, 55, 64
2, 2696000, Note_off_c, 0, 53, 64
2, 2696500, Note_on_c, 0, 51, 100
2, 2697000, Note_on_c, 0, 34, 100
2, 2697500, Note_on_c, 0, 46, 100
2, 2701000, Note_off_c, 0, 51, 64
2, 2701500, Note_off_c, 0, 50, 64
2, 2703000, Note_off_c, 0, 62, 64
2, 2703500, Note_off_c, 0, 58, 64
2, 2704000, Note_on_c, 0, 55, 100
2, 2704500, Note_off_c, 0, 34, 64
2, 2705000, Note_off_c, 0, 46, 64
2, 2706500, Note_on_c, 0, 63, 100
2, 2707000, Note_on_c, 0, 58, 100
2, 2707500, Note_on_c, 0, 51, 100
2, 2708000, Note_on_c, 0, 50, 100
2, 2708500, Note_on_c, 0, 48, 100
2, 2709000, Note_on_c, 0, 36, 100
2, 2712500, Note_off_c, 0, 48, 64
2, 2713000, Note_off_c, 0, 50, 64
2, 2716500, Note_off_c, 0, 74, 64
2, 2717000, Note_off_c, 0, 67, 64
2, 2717500, Note_on_c, 0, 50, 100
2, 2718000, Note_off_c, 0, 51, 64
2, 2721500, Note_on_c, 0, 51, 100
2, 2722000, Note_off_c, 0, 50, 64
2, 2723500, Note_on_c, 0, 67, 100
2, 2725000, Note_on_c, 0, 70, 100
2, 2725500, Note_on_c, 0, 50, 100
2, 2726000, Note_on_c, 0, 48, 100
2, 2729500, Note_off_c, 0, 48, 64
2, 2730000, Note_on_c, 0, 46, 100
2, 2731500, Note_off_c, 0, 70, 64
2, 2733000, Note_on_c, 0, 72, 100
2, 2733500, Note_off_c, 0, 58, 64
2, 2734000, Note_off_c, 0, 51, 64
2, 2734500, Note_off_c, 0, 46, 64
2, 2735000, Note_on_c, 0, 45, 100
2, 2735500, Note_off_c, 0, 36, 64
2, 2736000, Note_on_c, 0, 48, 100
2, 2739500, Note_off_c, 0, 45, 64
2, 2740000, Note_off_c, 0, 48, 64
2, 2743500, Note_off_c, 0, 63, 64
2, 2744000, Note_on_c, 0, 57, 100
2, 2744500, Note_on_c, 0, 48, 100
2, 2745000, Note_on_c, 0, 53, 100
2, 2748500, Note_off_c, 0, 53, 64
2, 2749000, Note_on_c, 0, 51, 100
2, 2750500, Note_off_c, 0, 57, 64
2, 2752000, Note_on_c, 0, 60, 100
2, 2752500, Note_on_c, 0, 57, 100
2, 2753000, Note_on_c, 0, 53, 100
2, 2753500, Note_off_c, 0, 51, 64
2, 2754000, Note_off_c, 0, 50, 64
2, 2754500, Note_off_c, 0, 41, 64
2, 2755000, Note_on_c, 0, 29, 100
2, 2758500, Note_on_c, 0, 50, 100
2, 2759000, Note_off_c, 0, 48, 64
2, 2760500, Note_off_c, 0, 60, 64
2, 2761000, Note_off_c, 0, 57, 64
2, 2761500, Note_off_c, 0, 53, 64
2, 2762000, Note_on_c, 0, 41, 100
2, 2762500, Note_off_c, 0, 29, 64
2, 2764000, Note_on_c, 0, 62, 100
2, 2764500, Note_on_c, 0, 58, 100
2, 2765000, Note_on_c, 0, 48, 100
2, 2765500, Note_on_c, 0, 46, 100
2, 2766000, Note_on_c, 0, 34, 100
2, 2769500, Note_off_c, 0, 62, 64
2, 2770000, Note_on_c, 0, 60, 100
2, 2770500, Note_off_c, 0, 46, 64
2, 2771000, Note_on_c, 0, 45, 100
2, 2774500, Note_off_c, 0, 72, 64
2, 2775000, Note_on_c, 0, 65, 100
2, 2775500, Note_off_c, 0, 60, 64
2, 2776000, Note_on_c, 0, 62, 100
2, 2776500, Note_off_c, 0, 45, 64
2, 2777000, Note_on_c, 0, 46, 100
2, 2780500, Note_off_c, 0, 62, 64
2, 2781000, Note_on_c, 0, 63, 100
2, 2781500, Note_off_c, 0, 46, 64
2, 2782000, Note_off_c, 0, 48, 64
2, 2783500, Note_off_c, 0, 65, 64
2, 2785000, Note_on_c, 0, 70, 100
2, 2785500, Note_off_c, 0, 63, 64
2, 2786000, Note_on_c, 0, 65, 100
2, 2786500, Note_on_c, 0, 48, 100
2, 2787000, Note_off_c, 0, 50, 64
2, 2790500, Note_off_c, 0, 65, 64
2, 2791000, Note_off_c, 0, 67, 64
2, 2791500, Note_on_c, 0, 50, 100
2, 2792000, Note_on_c, 0, 51, 100
2, 2795500, Note_on_c, 0, 67, 100
2, 2796000, Note_on_c, 0, 60, 100
2, 2796500, Note_off_c, 0, 58, 64
2, 2797000, Note_off_c, 0, 51, 64
2, 2797500, Note_on_c, 0, 53, 100
2, 2798000, Note_off_c, 0, 34, 64
2, 2798500, Note_on_c, 0, 46, 100
2, 2802000, Note_off_c, 0, 53, 64
2, 2802500, Note_on_c, 0, 52, 100
2, 2804000, Note_off_c, 0, 60, 64
2, 2805500, Note_off_c, 0, 70, 64
2, 2806000, Note_off_c, 0, 69, 64
2, 2806500, Note_on_c, 0, 53, 100
2, 2807000, Note_off_c, 0, 52, 64
2, 2810500, Note_off_c, 0, 53, 64
2, 2811000, Note_off_c, 0, 48, 64
2, 2812500, Note_on_c, 0, 69, 100
2, 2813000, Note_on_c, 0, 53, 100
2, 2814500, Note_on_c, 0, 77, 100
2, 2815000, Note_on_c, 0, 48, 100
2, 2815500, Note_on_c, 0, 45, 100
2, 2819000, Note_off_c, 0, 45, 64
2, 2819500, Note_off_c, 0, 48, 64
2, 2823000, Note_off_c, 0, 69, 64
2, 2823500, Note_on_c, 0, 65, 100
2, 2824000, Note_on_c, 0, 48, 100
2, 2824500, Note_off_c, 0, 41, 64
2, 2825000, Note_on_c, 0, 29, 100
2, 2832500, Note_off_c, 0, 77, 64
2, 2833000, Note_on_c, 0, 72, 100
2, 2838500, Note_off_c, 0, 72, 64
2, 2840000, Note_on_c, 0, 74, 100
2, 2840500, Note_on_c, 0, 69, 100
2, 2841000, Note_off_c, 0, 65, 64
2, 2841500, Note_on_c, 0, 41, 100
2, 2842000, Note_off_c, 0, 29, 64
2, 2849500, Note_off_c, 0, 74, 64
2, 2850000, Note_on_c, 0, 70, 100
2, 2850500, Note_on_c, 0, 65, 100
2, 2851000, Note_off_c, 0, 53, 64
2, 2851500, Note_off_c, 0, 41, 64
2, 2859000, Note_on_c, 0, 74, 100
2, 2859500, Note_on_c, 0, 72, 100
2, 2865000, Note_off_c, 0, 72, 64
2, 2866500, Note_on_c, 0, 77, 100
2, 2867000, Note_off_c, 0, 70, 64
2, 2867500, Note_off_c, 0, 65, 64
2, 2868000, Note_on_c, 0, 53, 100
2, 2868500, Note_on_c, 0, 41, 100
2, 2876000, Note_off_c, 0, 69, 64
2, 2876500, Note_on_c, 0, 60, 100
2, 2877000, Note_off_c, 0, 41, 64
2, 2877500, Note_on_c, 0, 29, 100
2, 2885000, Note_off_c, 0, 77, 64
2, 2885500, Note_on_c, 0, 72, 100
2, 2891000, Note_off_c, 0, 72, 64
2, 2892500, Note_off_c, 0, 74, 64
2, 2893000, Note_on_c, 0, 69, 100
2, 2893500, Note_off_c, 0, 60, 64
2, 2894000, Note_on_c, 0, 41, 100
2, 2894500, Note_off_c, 0, 29, 64
2, 2902000, Note_on_c, 0, 65, 100
2, 2902500, Note_on_c, 0, 58, 100
2, 2903000, Note_off_c, 0, 53, 64
2, 2903500, Note_off_c, 0, 41, 64
2, 2907000, Note_on_c, 0, 53, 100
2, 2907500, Note_off_c, 0, 48, 64
2, 2911000, Note_on_c, 0, 74, 100
2, 2911500, Note_on_c, 0, 72, 100
2, 2912000, Note_on_c, 0, 48, 100
2, 2912500, Note_off_c, 0, 50, 64
2, 2916000, Note_on_c, 0, 50, 100
2, 2916500, Note_on_c, 0, 51, 100
2, 2918000, Note_off_c, 0, 72, 64
2, 2919500, Note_on_c, 0, 75, 100
2, 2920000, Note_off_c, 0, 65, 64
2, 2920500, Note_off_c, 0, 58, 64
2, 2921000, Note_on_c, 0, 57, 100
2, 2921500, Note_off_c, 0, 51, 64
2, 2922000, Note_off_c, 0, 53, 64
2, 2922500, Note_on_c, 0, 41, 100
2, 2926000, Note_on_c, 0, 53, 100
2, 2926500, Note_off_c, 0, 55, 64
2, 2928000, Note_on_c, 0, 65, 100
2, 2928500, Note_off_c, 0, 57, 64
2, 2930000, Note_on_c, 0, 72, 100
2, 2930500, Note_off_c, 0, 53, 64
2, 2931000, Note_on_c, 0, 55, 100
2, 2931500, Note_on_c, 0, 57, 100
2, 2935000, Note_off_c, 0, 72, 64
2, 2935500, Note_off_c, 0, 74, 64
2, 2936000, Note_off_c, 0, 57, 64
2, 2936500, Note_on_c, 0, 58, 100
2, 2940000, Note_off_c, 0, 75, 64
2, 2940500, Note_off_c, 0, 69, 64
2, 2941000, Note_on_c, 0, 74, 100
2, 2941500, Note_off_c, 0, 58, 64
2, 2942000, Note_on_c, 0, 60, 100
2, 2945500, Note_on_c, 0, 75, 100
2, 2946000, Note_off_c, 0, 74, 64
2, 2946500, Note_off_c, 0, 60, 64
2, 2947000, Note_on_c, 0, 58, 100
2, 2948500, Note_on_c, 0, 69, 100
2, 2950000, Note_on_c, 0, 72, 100
2, 2950500, Note_on_c, 0, 74, 100
2, 2951000, Note_on_c, 0, 53, 100
2, 2951500, Note_off_c, 0, 65, 64
2, 2952000, Note_off_c, 0, 58, 64
2, 2952500, Note_on_c, 0, 57, 100
2, 2956000, Note_off_c, 0, 72, 64
2, 2956500, Note_on_c, 0, 70, 100
2, 2957000, Note_off_c, 0, 57, 64
2, 2957500, Note_off_c, 0, 55, 64
2, 2959000, Note_on_c, 0, 65, 100
2, 2960500, Note_off_c, 0, 70, 64
2, 2961000, Note_off_c, 0, 69, 64
2, 2961500, Note_off_c, 0, 53, 64
2, 2962000, Note_on_c, 0, 55, 100
2, 2965500, Note_on_c, 0, 69, 100
2, 2966000, Note_on_c, 0, 70, 100
2, 2966500, Note_on_c, 0, 53, 100
2, 2967000, Note_off_c, 0, 55, 64
2, 2970500, Note_on_c, 0, 72, 100
2, 2971000, Note_off_c, 0, 65, 64
2, 2971500, Note_off_c, 0, 70, 64
2, 2972000, Note_on_c, 0, 55, 100
2, 2972500, Note_on_c, 0, 57, 100
2, 2976000, Note_off_c, 0, 72, 64
2, 2976500, Note_on_c, 0, 70, 100
2, 2977000, Note_off_c, 0, 57, 64
2, 2977500, Note_off_c, 0, 55, 64
2, 2979000, Note_on_c, 0, 65, 100
2, 2980500, Note_off_c, 0, 69, 64
2, 2981000, Note_off_c, 0, 70, 64
2, 2981500, Note_off_c, 0, 53, 64
2, 2982000, Note_off_c, 0, 65, 64
2, 2982500, Note_on_c, 0, 55, 100
2, 2986000, Note_on_c, 0, 69, 100
2, 2986500, Note_off_c, 0, 67, 64
2, 2987000, Note_on_c, 0, 53, 100
2, 2987500, Note_on_c, 0, 51, 100
2, 2989000, Note_on_c, 0, 65, 100
2, 2990500, Note_on_c, 0, 67, 100
2, 2991000, Note_off_c, 0, 65, 64
2, 2991500, Note_off_c, 0, 53, 64
2, 2992000, Note_off_c, 0, 51, 64
2, 2992500, Note_off_c, 0, 50, 64
2, 2996000, Note_on_c, 0, 65, 100
2, 2996500, Note_off_c, 0, 67, 64
2, 2997000, Note_on_c, 0, 50, 100
2, 2997500, Note_on_c, 0, 51, 100
2, 3001000, Note_off_c, 0, 69, 64
2, 3001500, Note_on_c, 0, 72, 100
2, 3002000, Note_on_c, 0, 67, 100
2, 3002500, Note_off_c, 0, 51, 64
2, 3003000, Note_on_c, 0, 53, 100
2, 3006500, Note_on_c, 0, 69, 100
2, 3007000, Note_on_c, 0, 70, 100
2, 3007500, Note_off_c, 0, 53, 64
2, 3008000, Note_on_c, 0, 51, 100
2, 3009500, Note_off_c, 0, 72, 64
2, 3011000, Note_off_c, 0, 75, 64
2, 3011500, Note_off_c, 0, 70, 64
2, 3012000, Note_on_c, 0, 72, 100
2, 3012500, Note_on_c, 0, 53, 100
2, 3013000, Note_off_c, 0, 69, 64
2, 3013500, Note_off_c, 0, 65, 64
2, 3014000, Note_off_c, 0, 51, 64
2, 3014500, Note_off_c, 0, 50, 64
2, 3015000, Note_off_c, 0, 41, 64
2, 3015500, Note_on_c, 0, 29, 100
2, 3019000, Note_off_c, 0, 72, 64
2, 3019500, Note_on_c, 0, 69, 100
2, 3020000, Note_on_c, 0, 50, 100
2, 3020500, Note_off_c, 0, 48, 64
2, 3022000, Note_off_c, 0, 69, 64
2, 3022500, Note_on_c, 0, 65, 100
2, 3023000, Note_on_c, 0, 41, 100
2, 3023500, Note_off_c, 0, 29, 64
2, 3025000, Note_on_c, 0, 69, 100
2, 3025500, Note_on_c, 0, 70, 100
2, 3026000, Note_off_c, 0, 65, 64
2, 3026500, Note_off_c, 0, 53, 64
2, 3027000, Note_on_c, 0, 48, 100
2, 3027500, Note_off_c, 0, 46, 64
2, 3028000, Note_on_c, 0, 34, 100
2, 3031500, Note_on_c, 0, 46, 100
2, 3032000, Note_on_c, 0, 53, 100
2, 3033500, Note_off_c, 0, 70, 64
2, 3035000, Note_on_c, 0, 75, 100
2, 3035500, Note_off_c, 0, 74, 64
2, 3036000, Note_on_c, 0, 58, 100
2, 3036500, Note_off_c, 0, 53, 64
2, 3037000, Note_off_c, 0, 55, 64
2, 3040500, Note_on_c, 0, 55, 100
2, 3041000, Note_on_c, 0, 57, 100
2, 3042500, Note_on_c, 0, 74, 100
2, 3043000, Note_off_c, 0, 58, 64
2, 3044500, Note_on_c, 0, 58, 100
2, 3045000, Note_on_c, 0, 68, 100
2, 3045500, Note_on_c, 0, 65, 100
2, 3046000, Note_on_c, 0, 53, 100
2, 3046500, Note_on_c, 0, 62, 100
2, 3047000, Note_off_c, 0, 57, 64
2, 3047500, Note_off_c, 0, 34, 64
2, 3048000, Note_off_c, 0, 46, 64
2, 3051500, Note_off_c, 0, 58, 64
2, 3052000, Note_on_c, 0, 60, 100
2, 3053500, Note_on_c, 0, 58, 100
2, 3054000, Note_off_c, 0, 65, 64
2, 3054500, Note_off_c, 0, 62, 64
2, 3056000, Note_on_c, 0, 65, 100
2, 3056500, Note_off_c, 0, 58, 64
2, 3057000, Note_off_c, 0, 60, 64
2, 3057500, Note_on_c, 0, 62, 100
2, 3061000, Note_off_c, 0, 65, 64
2, 3061500, Note_off_c, 0, 67, 64
2, 3062000, Note_off_c, 0, 62, 64
2, 3062500, Note_on_c, 0, 63, 100
2, 3066000, Note_on_c, 0, 67, 100
2, 3066500, Note_off_c, 0, 68, 64
2, 3067000, Note_on_c, 0, 62, 100
2, 3067500, Note_off_c, 0, 63, 64
2, 3068000, Note_on_c, 0, 65, 100
2, 3071500, Note_on_c, 0, 68, 100
2, 3072000, Note_off_c, 0, 67, 64
2, 3072500, Note_off_c, 0, 65, 64
2, 3073000, Note_on_c, 0, 63, 100
2, 3074500, Note_off_c, 0, 62, 64
2, 3076000, Note_on_c, 0, 67, 100
2, 3076500, Note_on_c, 0, 65, 100
2, 3077000, Note_on_c, 0, 58, 100
2, 3077500, Note_on_c, 0, 70, 100
2, 3078000, Note_off_c, 0, 63, 64
2, 3078500, Note_on_c, 0, 62, 100
2, 3082000, Note_off_c, 0, 65, 64
2, 3082500, Note_on_c, 0, 63, 100
2, 3083000, Note_off_c, 0, 62, 64
2, 3083500, Note_on_c, 0, 60, 100
2, 3085000, Note_off_c, 0, 70, 64
2, 3086500, Note_off_c, 0, 63, 64
2, 3087000, Note_on_c, 0, 62, 100
2, 3087500, Note_off_c, 0, 58, 64
2, 3088000, Note_off_c, 0, 60, 64
2, 3091500, Note_off_c, 0, 62, 64
2, 3092000, Note_on_c, 0, 63, 100
2, 3092500, Note_on_c, 0, 58, 100
2, 3093000, Note_on_c, 0, 60, 100
2, 3096500, Note_off_c, 0, 63, 64
2, 3097000, Note_on_c, 0, 65, 100
2, 3097500, Note_off_c, 0, 58, 64
2, 3098000, Note_off_c, 0, 60, 64
2, 3098500, Note_on_c, 0, 62, 100
2, 3102000, Note_off_c, 0, 65, 64
2, 3102500, Note_on_c, 0, 63, 100
2, 3103000, Note_off_c, 0, 62, 64
2, 3103500, Note_on_c, 0, 60, 100
2, 3105000, Note_on_c, 0, 58, 100
2, 3106500, Note_off_c, 0, 63, 64
2, 3107000, Note_on_c, 0, 62, 100
2, 3107500, Note_off_c, 0, 58, 64
2, 3108000, Note_on_c, 0, 70, 100
2, 3108500, Note_off_c, 0, 60, 64
2, 3112000, Note_off_c, 0, 62, 64
2, 3112500, Note_on_c, 0, 60, 100
2, 3113000, Note_on_c, 0, 58, 100
2, 3113500, Note_on_c, 0, 56, 100
2, 3115000, Note_off_c, 0, 70, 64
2, 3116500, Note_off_c, 0, 60, 64
2, 3117000, Note_off_c, 0, 58, 64
2, 3117500, Note_off_c, 0, 56, 64
2, 3118000, Note_off_c, 0, 55, 64
2, 3121500, Note_on_c, 0, 58, 100
2, 3122000, Note_on_c, 0, 60, 100
2, 3122500, Note_on_c, 0, 55, 100
2, 3123000, Note_on_c, 0, 56, 100
2, 3126500, Note_off_c, 0, 60, 64
2, 3127000, Note_on_c, 0, 62, 100
2, 3127500, Note_on_c, 0, 65, 100
2, 3128000, Note_off_c, 0, 56, 64
2, 3128500, Note_off_c, 0, 58, 64
2, 3132000, Note_off_c, 0, 62, 64
2, 3132500, Note_on_c, 0, 63, 100
2, 3133000, Note_on_c, 0, 58, 100
2, 3133500, Note_on_c, 0, 56, 100
2, 3135000, Note_off_c, 0, 65, 64
2, 3136500, Note_off_c, 0, 63, 64
2, 3137000, Note_on_c, 0, 65, 100
2, 3137500, Note_off_c, 0, 68, 64
2, 3138000, Note_off_c, 0, 58, 64
2, 3138500, Note_on_c, 0, 70, 100
2, 3139000, Note_on_c, 0, 62, 100
2, 3139500, Note_off_c, 0, 56, 64
2, 3140000, Note_off_c, 0, 55, 64
2, 3140500, Note_on_c, 0, 34, 100
2, 3141000, Note_on_c, 0, 46, 100
2, 3144500, Note_off_c, 0, 65, 64
2, 3145000, Note_off_c, 0, 62, 64
2, 3145500, Note_on_c, 0, 55, 100
2, 3146000, Note_off_c, 0, 53, 64
2, 3147500, Note_off_c, 0, 70, 64
2, 3148000, Note_on_c, 0, 62, 100
2, 3148500, Note_off_c, 0, 34, 64
2, 3149000, Note_off_c, 0, 46, 64
2, 3150500, Note_off_c, 0, 62, 64
2, 3151000, Note_on_c, 0, 63, 100
2, 3151500, Note_on_c, 0, 58, 100
2, 3152000, Note_on_c, 0, 53, 100
2, 3152500, Note_on_c, 0, 51, 100
2, 3153000, Note_on_c, 0, 39, 100
2, 3156500, Note_off_c, 0, 51, 64
2, 3157000, Note_on_c, 0, 52, 100
2, 3158500, Note_off_c, 0, 63, 64
2, 3160000, Note_on_c, 0, 51, 100
2, 3160500, Note_on_c, 0, 68, 100
2, 3161000, Note_off_c, 0, 67, 64
2, 3161500, Note_off_c, 0, 52, 64
2, 3162000, Note_off_c, 0, 55, 64
2, 3165500, Note_on_c, 0, 55, 100
2, 3166000, Note_on_c, 0, 52, 100
2, 3167500, Note_off_c, 0, 51, 64
2, 3168000, Note_on_c, 0, 67, 100
2, 3169500, Note_off_c, 0, 67, 64
2, 3170000, Note_off_c, 0, 58, 64
2, 3170500, Note_off_c, 0, 52, 64
2, 3171000, Note_on_c, 0, 51, 100
2, 3171500, Note_off_c, 0, 39, 64
2, 3175000, Note_off_c, 0, 51, 64
2, 3175500, Note_off_c, 0, 50, 64
2, 3179000, Note_on_c, 0, 60, 100
2, 3179500, Note_off_c, 0, 55, 64
2, 3180000, Note_on_c, 0, 50, 100
2, 3180500, Note_off_c, 0, 48, 64
2, 3181000, Note_on_c, 0, 40, 100
2, 3181500, Note_on_c, 0, 52, 100
2, 3185000, Note_on_c, 0, 48, 100
2, 3185500, Note_off_c, 0, 50, 64
2, 3189000, Note_on_c, 0, 67, 100
2, 3189500, Note_off_c, 0, 60, 64
2, 3190000, Note_on_c, 0, 50, 100
2, 3190500, Note_off_c, 0, 52, 64
2, 3194000, Note_on_c, 0, 52, 100
2, 3194500, Note_off_c, 0, 50, 64
2, 3196000, Note_on_c, 0, 60, 100
2, 3197500, Note_on_c, 0, 70, 100
2, 3198000, Note_off_c, 0, 60, 64
2, 3198500, Note_on_c, 0, 55, 100
2, 3199000, Note_on_c, 0, 50, 100
2, 3199500, Note_off_c, 0, 52, 64
2, 3200000, Note_off_c, 0, 40, 64
2, 3203500, Note_on_c, 0, 52, 100
2, 3204000, Note_off_c, 0, 48, 64
2, 3207500, Note_on_c, 0, 60, 100
2, 3208000, Note_off_c, 0, 53, 64
2, 3208500, Note_on_c, 0, 48, 100
2, 3209000, Note_off_c, 0, 41, 64
2, 3212500, Note_on_c, 0, 53, 100
2, 3213000, Note_off_c, 0, 55, 64
2, 3216500, Note_off_c, 0, 70, 64
2, 3217000, Note_off_c, 0, 69, 64
2, 3217500, Note_on_c, 0, 55, 100
2, 3218000, Note_on_c, 0, 57, 100
2, 3221500, Note_off_c, 0, 57, 64
2, 3222000, Note_off_c, 0, 55, 64
2, 3223500, Note_on_c, 0, 69, 100
2, 3225000, Note_off_c, 0, 69, 64
2, 3225500, Note_off_c, 0, 60, 64
2, 3226000, Note_off_c, 0, 53, 64
2, 3226500, Note_on_c, 0, 55, 100
2, 3227000, Note_on_c, 0, 41, 100
2, 3230500, Note_on_c, 0, 53, 100
2, 3231000, Note_on_c, 0, 51, 100
2, 3234500, Note_on_c, 0, 62, 100
2, 3235000, Note_on_c, 0, 57, 100
2, 3235500, Note_off_c, 0, 51, 64
2, 3236000, Note_off_c, 0, 50, 64
2, 3236500, Note_on_c, 0, 42, 100
2, 3237000, Note_on_c, 0, 54, 100
2, 3240500, Note_on_c, 0, 50, 100
2, 3241000, Note_off_c, 0, 52, 64
2, 3244500, Note_on_c, 0, 69, 100
2, 3245000, Note_off_c, 0, 62, 64
2, 3245500, Note_on_c, 0, 52, 100
2, 3246000, Note_off_c, 0, 54, 64
2, 3249500, Note_on_c, 0, 54, 100
2, 3250000, Note_off_c, 0, 52, 64
2, 3251500, Note_on_c, 0, 62, 100
2, 3253000, Note_on_c, 0, 72, 100
2, 3253500, Note_off_c, 0, 62, 64
2, 3254000, Note_off_c, 0, 57, 64
2, 3254500, Note_on_c, 0, 52, 100
2, 3255000, Note_off_c, 0, 54, 64
2, 3255500, Note_off_c, 0, 42, 64
2, 3259000, Note_on_c, 0, 54, 100
2, 3259500, Note_off_c, 0, 50, 64
2, 3263000, Note_on_c, 0, 62, 100
2, 3263500, Note_off_c, 0, 55, 64
2, 3264000, Note_on_c, 0, 50, 100
2, 3264500, Note_on_c, 0, 43, 100
2, 3268000, Note_on_c, 0, 55, 100
2, 3268500, Note_off_c, 0, 54, 64
2, 3272000, Note_off_c, 0, 72, 64
2, 3272500, Note_on_c, 0, 70, 100
2, 3273000, Note_on_c, 0, 54, 100
2, 3273500, Note_off_c, 0, 55, 64
2, 3277000, Note_on_c, 0, 55, 100
2, 3277500, Note_on_c, 0, 57, 100
2, 3279000, Note_off_c, 0, 70, 64
2, 3280500, Note_off_c, 0, 74, 64
2, 3281000, Note_off_c, 0, 62, 64
2, 3281500, Note_off_c, 0, 55, 64
2, 3282000, Note_off_c, 0, 57, 64
2, 3282500, Note_on_c, 0, 58, 100
2, 3283000, Note_off_c, 0, 43, 64
2, 3286500, Note_off_c, 0, 58, 64
2, 3287000, Note_on_c, 0, 55, 100
2, 3290500, Note_on_c, 0, 63, 100
2, 3291000, Note_on_c, 0, 65, 100
2, 3291500, Note_on_c, 0, 60, 100
2, 3292000, Note_off_c, 0, 55, 64
2, 3292500, Note_on_c, 0, 57, 100
2, 3293000, Note_on_c, 0, 45, 100
2, 3296500, Note_off_c, 0, 57, 64
2, 3297000, Note_on_c, 0, 55, 100
2, 3300500, Note_on_c, 0, 74, 100
2, 3301000, Note_on_c, 0, 72, 100
2, 3301500, Note_off_c, 0, 55, 64
2, 3302000, Note_on_c, 0, 57, 100
2, 3305500, Note_off_c, 0, 57, 64
2, 3306000, Note_on_c, 0, 58, 100
2, 3307500, Note_off_c, 0, 72, 64
2, 3309000, Note_off_c, 0, 75, 64
2, 3309500, Note_off_c, 0, 63, 64
2, 3310000, Note_off_c, 0, 60, 64
2, 3310500, Note_off_c, 0, 65, 64
2, 3311000, Note_off_c, 0, 58, 64
2, 3311500, Note_off_c, 0, 45, 64
2, 3312000, Note_on_c, 0, 57, 100
2, 3315500, Note_on_c, 0, 60, 100
2, 3316000, Note_off_c, 0, 57, 64
2, 3317500, Note_off_c, 0, 60, 64
2, 3319000, Note_on_c, 0, 65, 100
2, 3319500, Note_on_c, 0, 58, 100
2, 3320000, Note_on_c, 0, 57, 100
2, 3320500, Note_on_c, 0, 46, 100
2, 3324000, Note_off_c, 0, 58, 64
2, 3324500, Note_off_c, 0, 57, 64
2, 3328000, Note_on_c, 0, 75, 100
2, 3328500, Note_off_c, 0, 74, 64
2, 3329000, Note_on_c, 0, 57, 100
2, 3329500, Note_on_c, 0, 58, 100
2, 3333000, Note_off_c, 0, 58, 64
2, 3333500, Note_on_c, 0, 60, 100
2, 3335000, Note_on_c, 0, 74, 100
2, 3336500, Note_on_c, 0, 77, 100
2, 3337000, Note_off_c, 0, 65, 64
2, 3337500, Note_on_c, 0, 62, 100
2, 3338000, Note_on_c, 0, 58, 100
2, 3338500, Note_off_c, 0, 60, 64
2, 3339000, Note_off_c, 0, 46, 64
2, 3342500, Note_off_c, 0, 62, 64
2, 3343000, Note_off_c, 0, 58, 64
2, 3344500, Note_on_c, 0, 62, 100
2, 3346000, Note_off_c, 0, 67, 64
2, 3346500, Note_on_c, 0, 58, 100
2, 3347000, Note_on_c, 0, 55, 100
2, 3347500, Note_on_c, 0, 51, 100
2, 3348000, Note_on_c, 0, 39, 100
2, 3351500, Note_off_c, 0, 51, 64
2, 3352000, Note_off_c, 0, 50, 64
2, 3355500, Note_off_c, 0, 77, 64
2, 3356000, Note_off_c, 0, 75, 64
2, 3356500, Note_on_c, 0, 50, 100
2, 3357000, Note_on_c, 0, 51, 100
2, 3360500, Note_on_c, 0, 75, 100
2, 3361000, Note_off_c, 0, 74, 64
2, 3361500, Note_on_c, 0, 67, 100
2, 3362000, Note_on_c, 0, 65, 100
2, 3362500, Note_off_c, 0, 51, 64
2, 3363000, Note_off_c, 0, 53, 64
2, 3366500, Note_on_c, 0, 74, 100
2, 3367000, Note_on_c, 0, 72, 100
2, 3367500, Note_off_c, 0, 65, 64
2, 3368000, Note_on_c, 0, 63, 100
2, 3368500, Note_off_c, 0, 58, 64
2, 3369000, Note_off_c, 0, 55, 64
2, 3369500, Note_on_c, 0, 53, 100
2, 3370000, Note_off_c, 0, 39, 64
2, 3370500, Note_on_c, 0, 51, 100
2, 3374000, Note_off_c, 0, 72, 64
2, 3374500, Note_on_c, 0, 70, 100
2, 3375000, Note_off_c, 0, 63, 64
2, 3375500, Note_off_c, 0, 62, 64
2, 3376000, Note_on_c, 0, 55, 100
2, 3376500, Note_off_c, 0, 51, 64
2, 3380000, Note_off_c, 0, 70, 64
2, 3380500, Note_off_c, 0, 69, 64
2, 3381000, Note_on_c, 0, 62, 100
2, 3381500, Note_on_c, 0, 60, 100
2, 3382000, Note_on_c, 0, 65, 100
2, 3382500, Note_on_c, 0, 51, 100
2, 3383000, Note_off_c, 0, 53, 64
2, 3383500, Note_off_c, 0, 41, 64
2, 3387000, Note_on_c, 0, 69, 100
2, 3387500, Note_off_c, 0, 67, 64
2, 3388000, Note_off_c, 0, 60, 64
2, 3388500, Note_on_c, 0, 58, 100
2, 3390000, Note_on_c, 0, 53, 100
2, 3391500, Note_on_c, 0, 67, 100
2, 3392000, Note_off_c, 0, 65, 64
2, 3392500, Note_off_c, 0, 58, 64
2, 3393000, Note_off_c, 0, 57, 64
2, 3393500, Note_on_c, 0, 41, 100
2, 3397000, Note_on_c, 0, 65, 100
2, 3397500, Note_on_c, 0, 63, 100
2, 3398000, Note_on_c, 0, 57, 100
2, 3398500, Note_off_c, 0, 55, 64
2, 3400000, Note_off_c, 0, 41, 64
2, 3401500, Note_off_c, 0, 63, 64
2, 3402000, Note_off_c, 0, 62, 64
2, 3402500, Note_on_c, 0, 55, 100
2, 3403000, Note_off_c, 0, 53, 64
2, 3403500, Note_off_c, 0, 65, 64
2, 3404000, Note_on_c, 0, 60, 100
2, 3404500, Note_on_c, 0, 41, 100
2, 3408000, Note_on_c, 0, 62, 100
2, 3408500, Note_off_c, 0, 60, 64
2, 3409000, Note_on_c, 0, 53, 100
2, 3409500, Note_off_c, 0, 51, 64
2, 3411000, Note_off_c, 0, 53, 64
2, 3412500, Note_on_c, 0, 60, 100
2, 3413000, Note_on_c, 0, 58, 100
2, 3413500, Note_on_c, 0, 51, 100
2, 3414000, Note_off_c, 0, 50, 64
2, 3414500, Note_on_c, 0, 46, 100
2, 3418000, Note_off_c, 0, 58, 64
2, 3418500, Note_off_c, 0, 57, 64
2, 3420000, Note_on_c, 0, 50, 100
2, 3421500, Note_on_c, 0, 57, 100
2, 3422000, Note_on_c, 0, 58, 100
2, 3422500, Note_off_c, 0, 46, 64
2, 3423000, Note_off_c, 0, 50, 64
2, 3426500, Note_on_c, 0, 53, 100
2, 3428000, Note_off_c, 0, 58, 64
2, 3428500, Note_on_c, 0, 50, 100
2, 3430000, Note_off_c, 0, 53, 64
2, 3430500, Note_off_c, 0, 55, 64
2, 3434000, Note_on_c, 0, 55, 100
2, 3434500, Note_off_c, 0, 57, 64
2, 3436000, Note_on_c, 0, 53, 100
2, 3437500, Note_on_c, 0, 57, 100
2, 3438000, Note_on_c, 0, 58, 100
2, 3438500, Note_on_c, 0, 45, 100
2, 3442000, Note_off_c, 0, 58, 64
2, 3442500, Note_off_c, 0, 57, 64
2, 3446000, Note_on_c, 0, 57, 100
2, 3446500, Note_on_c, 0, 58, 100
2, 3447000, Note_off_c, 0, 45, 64
2, 3447500, Note_off_c, 0, 50, 64
2, 3451000, Note_off_c, 0, 53, 64
2, 3452500, Note_off_c, 0, 58, 64
2, 3453000, Note_on_c, 0, 50, 100
2, 3454500, Note_on_c, 0, 53, 100
2, 3455000, Note_off_c, 0, 55, 64
2, 3458500, Note_on_c, 0, 55, 100
2, 3459000, Note_off_c, 0, 57, 64
2, 3460500, Note_off_c, 0, 53, 64
2, 3462000, Note_on_c, 0, 57, 100
2, 3462500, Note_on_c, 0, 58, 100
2, 3463000, Note_on_c, 0, 43, 100
2, 3466500, Note_off_c, 0, 58, 64
2, 3467000, Note_off_c, 0, 57, 64
2, 3470500, Note_on_c, 0, 57, 100
2, 3471000, Note_on_c, 0, 58, 100
2, 3471500, Note_off_c, 0, 43, 64
2, 3472000, Note_on_c, 0, 46, 100
2, 3475500, Note_on_c, 0, 53, 100
2, 3477000, Note_off_c, 0, 58, 64
2, 3477500, Note_off_c, 0, 46, 64
2, 3479000, Note_off_c, 0, 53, 64
2, 3479500, Note_off_c, 0, 55, 64
2, 3480000, Note_off_c, 0, 50, 64
2, 3483500, Note_on_c, 0, 55, 100
2, 3484000, Note_off_c, 0, 57, 64
2, 3485500, Note_on_c, 0, 50, 100
2, 3487000, Note_on_c, 0, 57, 100
2, 3487500, Note_on_c, 0, 58, 100
2, 3488000, Note_off_c, 0, 41, 64
2, 3491500, Note_off_c, 0, 58, 64
2, 3492000, Note_off_c, 0, 57, 64
2, 3495500, Note_on_c, 0, 57, 100
2, 3496000, Note_on_c, 0, 58, 100
2, 3496500, Note_on_c, 0, 41, 100
2, 3497000, Note_on_c, 0, 46, 100
2, 3500500, Note_off_c, 0, 55, 64
2, 3502000, Note_off_c, 0, 58, 64
2, 3502500, Note_off_c, 0, 46, 64
2, 3504000, Note_on_c, 0, 55, 100
2, 3504500, Note_off_c, 0, 57, 64
2, 3505000, Note_off_c, 0, 50, 64
2, 3508500, Note_on_c, 0, 57, 100
2, 3509000, Note_on_c, 0, 58, 100
2, 3510500, Note_on_c, 0, 50, 100
2, 3512000, Note_off_c, 0, 58, 64
2, 3512500, Note_off_c, 0, 60, 64
2, 3513000, Note_on_c, 0, 39, 100
2, 3516500, Note_on_c, 0, 60, 100
2, 3517000, Note_on_c, 0, 58, 100
2, 3520500, Note_off_c, 0, 58, 64
2, 3521000, Note_off_c, 0, 60, 64
2, 3521500, Note_off_c, 0, 39, 64
2, 3522000, Note_on_c, 0, 43, 100
2, 3525500, Note_on_c, 0, 60, 100
2, 3526000, Note_on_c, 0, 58, 100
2, 3526500, Note_off_c, 0, 55, 64
2, 3528000, Note_off_c, 0, 43, 64
2, 3529500, Note_off_c, 0, 58, 64
2, 3530000, Note_off_c, 0, 57, 64
2, 3530500, Note_on_c, 0, 55, 100
2, 3531000, Note_off_c, 0, 48, 64
2, 3534500, Note_on_c, 0, 57, 100
2, 3535000, Note_off_c, 0, 55, 64
2, 3535500, Note_on_c, 0, 58, 100
2, 3537000, Note_on_c, 0, 48, 100
2, 3538500, Note_on_c, 0, 55, 100
2, 3539000, Note_on_c, 0, 53, 100
2, 3539500, Note_off_c, 0, 58, 64
2, 3540000, Note_off_c, 0, 60, 64
2, 3540500, Note_on_c, 0, 45, 100
2, 3544000, Note_on_c, 0, 60, 100
2, 3544500, Note_on_c, 0, 58, 100
2, 3546000, Note_off_c, 0, 53, 64
2, 3547500, Note_off_c, 0, 57, 64
2, 3548000, Note_off_c, 0, 58, 64
2, 3548500, Note_off_c, 0, 60, 64
2, 3549000, Note_off_c, 0, 45, 64
2, 3549500, Note_off_c, 0, 48, 64
2, 3553000, Note_on_c, 0, 60, 100
2, 3553500, Note_on_c, 0, 58, 100
2, 3555000, Note_on_c, 0, 57, 100
2, 3555500, Note_on_c, 0, 48, 100
2, 3557000, Note_off_c, 0, 60, 64
2, 3557500, Note_off_c, 0, 58, 64
2, 3558000, Note_off_c, 0, 57, 64
2, 3558500, Note_off_c, 0, 41, 64
2, 3562000, Note_on_c, 0, 57, 100
2, 3562500, Note_off_c, 0, 55, 64
2, 3564000, Note_on_c, 0, 60, 100
2, 3564500, Note_on_c, 0, 41, 100
2, 3566000, Note_off_c, 0, 62, 64
2, 3566500, Note_on_c, 0, 55, 100
2, 3567000, Note_on_c, 0, 53, 100
2, 3567500, Note_on_c, 0, 46, 100
2, 3571000, Note_on_c, 0, 62, 100
2, 3571500, Note_off_c, 0, 60, 64
2, 3572000, Note_off_c, 0, 53, 64
2, 3572500, Note_off_c, 0, 51, 64
2, 3576000, Note_on_c, 0, 60, 100
2, 3576500, Note_off_c, 0, 62, 64
2, 3577000, Note_on_c, 0, 51, 100
2, 3577500, Note_on_c, 0, 53, 100
2, 3578000, Note_off_c, 0, 46, 64
2, 3578500, Note_off_c, 0, 50, 64
2, 3582000, Note_on_c, 0, 62, 100
2, 3582500, Note_on_c, 0, 63, 100
2, 3583000, Note_off_c, 0, 53, 64
2, 3583500, Note_off_c, 0, 55, 64
2, 3585000, Note_on_c, 0, 50, 100
2, 3586500, Note_off_c, 0, 63, 64
2, 3587000, Note_off_c, 0, 62, 64
2, 3587500, Note_on_c, 0, 55, 100
2, 3588000, Note_on_c, 0, 53, 100
2, 3591500, Note_on_c, 0, 62, 100
2, 3592000, Note_off_c, 0, 60, 64
2, 3592500, Note_off_c, 0, 53, 64
2, 3593000, Note_off_c, 0, 51, 64
2, 3594500, Note_on_c, 0, 53, 100
2, 3596000, Note_on_c, 0, 60, 100
2, 3596500, Note_on_c, 0, 58, 100
2, 3597000, Note_on_c, 0, 51, 100
2, 3597500, Note_off_c, 0, 50, 64
2, 3601000, Note_off_c, 0, 58, 64
2, 3601500, Note_off_c, 0, 62, 64
2, 3605000, Note_on_c, 0, 62, 100
2, 3605500, Note_on_c, 0, 65, 100
2, 3606000, Note_on_c, 0, 58, 100
2, 3606500, Note_off_c, 0, 57, 64
2, 3610000, Note_off_c, 0, 65, 64
2, 3610500, Note_on_c, 0, 70, 100
2, 3612000, Note_on_c, 0, 57, 100
2, 3613500, Note_off_c, 0, 70, 64
2, 3614000, Note_off_c, 0, 74, 64
2, 3614500, Note_on_c, 0, 50, 100
2, 3615000, Note_on_c, 0, 77, 100
2, 3615500, Note_off_c, 0, 58, 64
2, 3619000, Note_on_c, 0, 74, 100
2, 3619500, Note_off_c, 0, 75, 64
2, 3621000, Note_on_c, 0, 58, 100
2, 3622500, Note_on_c, 0, 75, 100
2, 3623000, Note_off_c, 0, 77, 64
2, 3623500, Note_on_c, 0, 70, 100
2, 3624000, Note_on_c, 0, 65, 100
2, 3624500, Note_off_c, 0, 50, 64
2, 3625000, Note_on_c, 0, 38, 100
2, 3630500, Note_on_c, 0, 77, 100
2, 3632000, Note_off_c, 0, 70, 64
2, 3637500, Note_on_c, 0, 70, 100
2, 3639000, Note_off_c, 0, 74, 64
2, 3639500, Note_off_c, 0, 70, 64
2, 3640000, Note_off_c, 0, 65, 64
2, 3640500, Note_on_c, 0, 50, 100
2, 3641000, Note_off_c, 0, 38, 64
2, 3648500, Note_on_c, 0, 70, 100
2, 3649000, Note_on_c, 0, 65, 100
2, 3649500, Note_off_c, 0, 55, 64
2, 3650000, Note_on_c, 0, 43, 100
2, 3657500, Note_on_c, 0, 74, 100
2, 3658000, Note_off_c, 0, 67, 64
2, 3663500, Note_on_c, 0, 67, 100
2, 3665000, Note_off_c, 0, 75, 64
2, 3665500, Note_off_c, 0, 70, 64
2, 3666000, Note_off_c, 0, 65, 64
2, 3666500, Note_on_c, 0, 55, 100
2, 3667000, Note_off_c, 0, 43, 64
2, 3674500, Note_on_c, 0, 70, 100
2, 3675000, Note_on_c, 0, 63, 100
2, 3675500, Note_off_c, 0, 48, 64
2, 3676000, Note_on_c, 0, 36, 100
2, 3683500, Note_on_c, 0, 75, 100
2, 3684000, Note_off_c, 0, 69, 64
2, 3689500, Note_on_c, 0, 69, 100
2, 3691000, Note_on_c, 0, 72, 100
2, 3691500, Note_off_c, 0, 70, 64
2, 3692000, Note_off_c, 0, 63, 64
2, 3692500, Note_on_c, 0, 48, 100
2, 3693000, Note_off_c, 0, 36, 64
2, 3700500, Note_off_c, 0, 69, 64
2, 3701000, Note_on_c, 0, 65, 100
2, 3701500, Note_off_c, 0, 53, 64
2, 3702000, Note_off_c, 0, 41, 64
2, 3709500, Note_off_c, 0, 72, 64
2, 3710000, Note_off_c, 0, 65, 64
2, 3715500, Note_on_c, 0, 65, 100
2, 3717000, Note_off_c, 0, 74, 64
2, 3717500, Note_on_c, 0, 69, 100
2, 3718000, Note_off_c, 0, 65, 64
2, 3718500, Note_on_c, 0, 53, 100
2, 3719000, Note_on_c, 0, 41, 100
2, 3726500, Note_on_c, 0, 70, 100
2, 3727000, Note_on_c, 0, 65, 100
2, 3727500, Note_on_c, 0, 46, 100
2, 3728000, Note_on_c, 0, 34, 100
2, 3731500, Note_on_c, 0, 74, 100
2, 3732000, Note_off_c, 0, 70, 64
2, 3735500, Note_on_c, 0, 70, 100
2, 3736000, Note_off_c, 0, 69, 64
2, 3736500, Note_off_c, 0, 74, 64
2, 3737000, Note_off_c, 0, 65, 64
2, 3740500, Note_on_c, 0, 69, 100
2, 3741000, Note_off_c, 0, 67, 64
2, 3742500, Note_on_c, 0, 65, 100
2, 3744000, Note_on_c, 0, 67, 100
2, 3744500, Note_off_c, 0, 65, 64
2, 3745000, Note_off_c, 0, 70, 64
2, 3745500, Note_off_c, 0, 46, 64
2, 3746000, Note_off_c, 0, 58, 64
2, 3746500, Note_off_c, 0, 34, 64
2, 3750000, Note_on_c, 0, 65, 100
2, 3750500, Note_on_c, 0, 63, 100
2, 3752000, Note_on_c, 0, 58, 100
2, 3753500, Note_off_c, 0, 63, 64
2, 3754000, Note_off_c, 0, 62, 64
2, 3754500, Note_on_c, 0, 46, 100
2, 3758000, Note_on_c, 0, 62, 100
2, 3758500, Note_off_c, 0, 67, 64
2, 3762000, Note_on_c, 0, 67, 100
2, 3762500, Note_off_c, 0, 65, 64
2, 3763000, Note_on_c, 0, 70, 100
2, 3763500, Note_off_c, 0, 62, 64
2, 3767000, Note_on_c, 0, 65, 100
2, 3767500, Note_on_c, 0, 63, 100
2, 3769000, Note_on_c, 0, 62, 100
2, 3770500, Note_off_c, 0, 63, 64
2, 3771000, Note_off_c, 0, 62, 64
2, 3771500, Note_off_c, 0, 65, 64
2, 3772000, Note_off_c, 0, 46, 64
2, 3772500, Note_off_c, 0, 58, 64
2, 3776000, Note_on_c, 0, 62, 100
2, 3776500, Note_off_c, 0, 60, 64
2, 3778000, Note_on_c, 0, 58, 100
2, 3779500, Note_on_c, 0, 60, 100
2, 3780000, Note_off_c, 0, 58, 64
2, 3780500, Note_on_c, 0, 46, 100
2, 3784000, Note_on_c, 0, 58, 100
2, 3784500, Note_off_c, 0, 53, 64
2, 3788000, Note_on_c, 0, 53, 100
2, 3788500, Note_off_c, 0, 55, 64
2, 3789000, Note_on_c, 0, 65, 100
2, 3789500, Note_off_c, 0, 58, 64
2, 3793000, Note_on_c, 0, 55, 100
2, 3793500, Note_off_c, 0, 57, 64
2, 3795000, Note_on_c, 0, 58, 100
2, 3796500, Note_on_c, 0, 57, 100
2, 3797000, Note_off_c, 0, 58, 64
2, 3797500, Note_off_c, 0, 62, 64
2, 3798000, Note_off_c, 0, 46, 64
2, 3801500, Note_on_c, 0, 58, 100
2, 3802000, Note_off_c, 0, 60, 64
2, 3803500, Note_on_c, 0, 62, 100
2, 3804000, Note_off_c, 0, 58, 64
2, 3805500, Note_on_c, 0, 60, 100
2, 3806000, Note_off_c, 0, 62, 64
2, 3806500, Note_off_c, 0, 65, 64
2, 3807000, Note_on_c, 0, 46, 100
2, 3810500, Note_on_c, 0, 62, 100
2, 3811000, Note_off_c, 0, 60, 64
2, 3812500, Note_on_c, 0, 65, 100
2, 3814000, Note_on_c, 0, 60, 100
2, 3814500, Note_on_c, 0, 58, 100
2, 3815000, Note_off_c, 0, 62, 64
2, 3818500, Note_off_c, 0, 58, 64
2, 3819000, Note_off_c, 0, 60, 64
2, 3820500, Note_on_c, 0, 62, 100
2, 3822000, Note_on_c, 0, 60, 100
2, 3822500, Note_off_c, 0, 62, 64
2, 3823000, Note_off_c, 0, 65, 64
2, 3823500, Note_off_c, 0, 46, 64
2, 3824000, Note_on_c, 0, 58, 100
2, 3827500, Note_on_c, 0, 62, 100
2, 3828000, Note_on_c, 0, 63, 100
2, 3829500, Note_on_c, 0, 65, 100
2, 3830000, Note_off_c, 0, 58, 64
2, 3831500, Note_off_c, 0, 63, 64
2, 3832000, Note_off_c, 0, 65, 64
2, 3832500, Note_off_c, 0, 70, 64
2, 3833000, Note_off_c, 0, 62, 64
2, 3833500, Note_on_c, 0, 58, 100
2, 3834000, Note_on_c, 0, 46, 100
2, 3834500, Note_on_c, 0, 34, 100
2, 3840000, Note_on_c, 0, 65, 100
2, 3840500, Note_on_c, 0, 70, 100
2, 3842000, Note_off_c, 0, 58, 64
2, 3842500, Note_off_c, 0, 65, 64
2, 3848000, Note_on_c, 0, 58, 100
2, 3848500, Note_on_c, 0, 65, 100
2, 3850000, Note_off_c, 0, 67, 64
2, 3850500, Note_on_c, 0, 62, 100
2, 3851000, Note_off_c, 0, 58, 64
2, 3851500, Note_off_c, 0, 46, 64
2, 3852000, Note_off_c, 0, 34, 64
2, 3859500, Note_on_c, 0, 63, 100
2, 3860000, Note_on_c, 0, 58, 100
2, 3860500, Note_on_c, 0, 46, 100
2, 3868000, Note_on_c, 0, 67, 100
2, 3868500, Note_off_c, 0, 65, 64
2, 3872000, Note_on_c, 0, 65, 100
2, 3872500, Note_off_c, 0, 63, 64
2, 3874000, Note_off_c, 0, 65, 64
2, 3875500, Note_off_c, 0, 70, 64
2, 3876000, Note_on_c, 0, 63, 100
2, 3876500, Note_off_c, 0, 62, 64
2, 3877000, Note_off_c, 0, 58, 64
2, 3877500, Note_off_c, 0, 46, 64
2, 3881000, Note_on_c, 0, 62, 100
2, 3881500, Note_off_c, 0, 60, 64
2, 3885000, Note_on_c, 0, 60, 100
2, 3885500, Note_off_c, 0, 62, 64
2, 3886000, Note_on_c, 0, 65, 100
2, 3886500, Note_on_c, 0, 58, 100
2, 3887000, Note_on_c, 0, 46, 100
2, 3887500, Note_on_c, 0, 34, 100
2, 3891000, Note_on_c, 0, 62, 100
2, 3891500, Note_off_c, 0, 63, 64
2, 3895000, Note_on_c, 0, 70, 100
2, 3895500, Note_off_c, 0, 65, 64
2, 3896000, Note_on_c, 0, 63, 100
2, 3899500, Note_on_c, 0, 65, 100
2, 3900000, Note_off_c, 0, 63, 64
2, 3901500, Note_off_c, 0, 65, 64
2, 3903000, Note_off_c, 0, 67, 64
2, 3903500, Note_on_c, 0, 63, 100
2, 3904000, Note_off_c, 0, 62, 64
2, 3904500, Note_on_c, 0, 65, 100
2, 3905000, Note_off_c, 0, 58, 64
2, 3905500, Note_off_c, 0, 46, 64
2, 3906000, Note_off_c, 0, 34, 64
2, 3909500, Note_on_c, 0, 62, 100
2, 3910000, Note_off_c, 0, 60, 64
2, 3913500, Note_on_c, 0, 60, 100
2, 3914000, Note_on_c, 0, 58, 100
2, 3914500, Note_on_c, 0, 46, 100
2, 3918000, Note_off_c, 0, 58, 64
2, 3918500, Note_off_c, 0, 60, 64
2, 3922000, Note_on_c, 0, 67, 100
2, 3922500, Note_off_c, 0, 65, 64
2, 3923000, Note_on_c, 0, 60, 100
2, 3923500, Note_off_c, 0, 62, 64
2, 3927000, Note_on_c, 0, 62, 100
2, 3927500, Note_off_c, 0, 60, 64
2, 3929000, Note_on_c, 0, 65, 100
2, 3930500, Note_off_c, 0, 70, 64
2, 3931000, Note_on_c, 0, 60, 100
2, 3931500, Note_on_c, 0, 58, 100
2, 3932000, Note_off_c, 0, 46, 64
2, 3935500, Note_off_c, 0, 58, 64
2, 3936000, Note_off_c, 0, 57, 64
2, 3937500, Note_on_c, 0, 46, 100
2, 3939000, Note_on_c, 0, 57, 100
2, 3939500, Note_off_c, 0, 55, 64
2, 3940000, Note_off_c, 0, 51, 64
2, 3943500, Note_on_c, 0, 55, 100
2, 3944000, Note_off_c, 0, 57, 64
2, 3947500, Note_on_c, 0, 70, 100
2, 3948000, Note_off_c, 0, 67, 64
2, 3948500, Note_on_c, 0, 57, 100
2, 3949000, Note_on_c, 0, 58, 100
2, 3952500, Note_off_c, 0, 58, 64
2, 3953000, Note_off_c, 0, 62, 64
2, 3954500, Note_on_c, 0, 67, 100
2, 3956000, Note_off_c, 0, 75, 64
2, 3956500, Note_on_c, 0, 62, 100
2, 3957000, Note_off_c, 0, 60, 64
2, 3957500, Note_on_c, 0, 51, 100
2, 3958000, Note_off_c, 0, 48, 64
2, 3961500, Note_on_c, 0, 60, 100
2, 3962000, Note_on_c, 0, 58, 100
2, 3963500, Note_on_c, 0, 48, 100
2, 3965000, Note_off_c, 0, 58, 64
2, 3965500, Note_off_c, 0, 57, 64
2, 3966000, Note_off_c, 0, 53, 64
2, 3969500, Note_on_c, 0, 57, 100
2, 3970000, Note_on_c, 0, 58, 100
2, 3973500, Note_on_c, 0, 75, 100
2, 3974000, Note_off_c, 0, 69, 64
2, 3974500, Note_off_c, 0, 58, 64
2, 3975000, Note_off_c, 0, 60, 64
2, 3978500, Note_on_c, 0, 60, 100
2, 3979000, Note_off_c, 0, 63, 64
2, 3980500, Note_on_c, 0, 69, 100
2, 3982000, Note_off_c, 0, 77, 64
2, 3982500, Note_on_c, 0, 63, 100
2, 3983000, Note_off_c, 0, 62, 64
2, 3983500, Note_on_c, 0, 53, 100
2, 3984000, Note_off_c, 0, 57, 64
2, 3987500, Note_on_c, 0, 62, 100
2, 3988000, Note_off_c, 0, 60, 64
2, 3989500, Note_on_c, 0, 57, 100
2, 3991000, Note_on_c, 0, 77, 100
2, 3991500, Note_on_c, 0, 74, 100
2, 3992000, Note_on_c, 0, 60, 100
2, 3992500, Note_on_c, 0, 58, 100
2, 3996000, Note_off_c, 0, 58, 64
2, 3996500, Note_off_c, 0, 57, 64
2, 3998000, Note_off_c, 0, 74, 64
2, 3998500, Note_on_c, 0, 58, 100
2, 4000000, Note_off_c, 0, 70, 64
2, 4000500, Note_on_c, 0, 57, 100
2, 4001000, Note_off_c, 0, 58, 64
2, 4001500, Note_off_c, 0, 50, 64
2, 4005000, Note_on_c, 0, 58, 100
2, 4005500, Note_off_c, 0, 62, 64
2, 4007000, Note_on_c, 0, 70, 100
2, 4007500, Note_on_c, 0, 50, 100
2, 4009000, Note_off_c, 0, 69, 64
2, 4009500, Note_on_c, 0, 62, 100
2, 4010000, Note_off_c, 0, 60, 64
2, 4010500, Note_off_c, 0, 53, 64
2, 4014000, Note_on_c, 0, 60, 100
2, 4014500, Note_off_c, 0, 63, 64
2, 4016000, Note_on_c, 0, 69, 100
2, 4016500, Note_on_c, 0, 53, 100
2, 4018000, Note_off_c, 0, 70, 64
2, 4018500, Note_on_c, 0, 63, 100
2, 4019000, Note_off_c, 0, 62, 64
2, 4019500, Note_off_c, 0, 46, 64
2, 4023000, Note_on_c, 0, 70, 100
2, 4023500, Note_off_c, 0, 65, 64
2, 4024000, Note_on_c, 0, 62, 100
2, 4027500, Note_on_c, 0, 65, 100
2, 4028000, Note_off_c, 0, 62, 64
2, 4031500, Note_on_c, 0, 62, 100
2, 4032000, Note_off_c, 0, 58, 64
2, 4035500, Note_on_c, 0, 58, 100
2, 4036000, Note_off_c, 0, 62, 64
2, 4036500, Note_on_c, 0, 46, 100
2, 4040000, Note_on_c, 0, 62, 100
2, 4040500, Note_off_c, 0, 65, 64
2, 4044000, Note_on_c, 0, 65, 100
2, 4044500, Note_off_c, 0, 70, 64
2, 4045000, Note_off_c, 0, 62, 64
2, 4045500, Note_off_c, 0, 58, 64
2, 4046000, Note_off_c, 0, 46, 64
2, 4053500, Note_on_c, 0, 70, 100
2, 4054000, Note_off_c, 0, 69, 64
2, 4059500, Note_on_c, 0, 69, 100
2, 4061000, Note_off_c, 0, 70, 64
2, 4061500, Note_off_c, 0, 65, 64
2, 4062000, Note_on_c, 0, 62, 100
2, 4062500, Note_on_c, 0, 58, 100
2, 4063000, Note_on_c, 0, 46, 100
2, 4068500, Note_on_c, 0, 70, 100
2, 4070000, Note_off_c, 0, 62, 64
2, 4070500, Note_on_c, 0, 65, 100
2, 4071000, Note_off_c, 0, 58, 64
2, 4071500, Note_off_c, 0, 57, 64
2, 4072000, Note_on_c, 0, 45, 100
2, 4079500, Note_on_c, 0, 62, 100
2, 4080000, Note_off_c, 0, 65, 64
2, 4085500, Note_on_c, 0, 65, 100
2, 4087000, Note_off_c, 0, 70, 64
2, 4087500, Note_off_c, 0, 65, 64
2, 4088000, Note_on_c, 0, 58, 100
2, 4088500, Note_on_c, 0, 57, 100
2, 4089000, Note_off_c, 0, 45, 64
2, 4094500, Note_on_c, 0, 70, 100
2, 4096000, Note_off_c, 0, 70, 64
2, 4096500, Note_off_c, 0, 67, 64
2, 4097000, Note_off_c, 0, 62, 64
2, 4097500, Note_off_c, 0, 55, 64
2, 4098000, Note_on_c, 0, 43, 100
2, 4105500, Note_on_c, 0, 70, 100
2, 4106000, Note_off_c, 0, 69, 64
2, 4111500, Note_on_c, 0, 69, 100
2, 4113000, Note_off_c, 0, 70, 64
2, 4113500, Note_on_c, 0, 67, 100
2, 4114000, Note_on_c, 0, 62, 100
2, 4114500, Note_on_c, 0, 55, 100
2, 4115000, Note_off_c, 0, 43, 64
2, 4120500, Note_on_c, 0, 70, 100
2, 4122000, Note_off_c, 0, 62, 64
2, 4122500, Note_off_c, 0, 70, 64
2, 4123000, Note_on_c, 0, 65, 100
2, 4123500, Note_off_c, 0, 53, 64
2, 4124000, Note_off_c, 0, 41, 64
2, 4131500, Note_on_c, 0, 62, 100
2, 4132000, Note_off_c, 0, 65, 64
2, 4137500, Note_on_c, 0, 65, 100
2, 4139000, Note_on_c, 0, 70, 100
2, 4139500, Note_off_c, 0, 65, 64
2, 4140000, Note_on_c, 0, 53, 100
2, 4140500, Note_on_c, 0, 41, 100
2, 4146000, Note_off_c, 0, 70, 64
2, 4147500, Note_on_c, 0, 72, 100
2, 4148000, Note_on_c, 0, 70, 100
2, 4148500, Note_off_c, 0, 67, 64
2, 4149000, Note_off_c, 0, 51, 64
2, 4149500, Note_on_c, 0, 39, 100
2, 4157000, Note_off_c, 0, 72, 64
2, 4157500, Note_off_c, 0, 70, 64
2, 4163000, Note_on_c, 0, 70, 100
2, 4164500, Note_on_c, 0, 72, 100
2, 4165000, Note_off_c, 0, 70, 64
2, 4165500, Note_on_c, 0, 67, 100
2, 4166000, Note_on_c, 0, 51, 100
2, 4166500, Note_off_c, 0, 39, 64
2, 4172000, Note_off_c, 0, 72, 64
2, 4173500, Note_on_c, 0, 65, 100
2, 4174000, Note_off_c, 0, 69, 64
2, 4174500, Note_off_c, 0, 53, 64
2, 4175000, Note_off_c, 0, 41, 64
2, 4182500, Note_off_c, 0, 65, 64
2, 4183000, Note_on_c, 0, 69, 100
2, 4188500, Note_off_c, 0, 69, 64
2, 4190000, Note_on_c, 0, 72, 100
2, 4190500, Note_on_c, 0, 69, 100
2, 4191000, Note_on_c, 0, 65, 100
2, 4191500, Note_on_c, 0, 53, 100
2, 4192000, Note_on_c, 0, 41, 100
2, 4197500, Note_off_c, 0, 72, 64
2, 4199000, Note_on_c, 0, 74, 100
2, 4199500, Note_on_c, 0, 70, 100
2, 4200000, Note_off_c, 0, 65, 64
2, 4200500, Note_off_c, 0, 46, 64
2, 4201000, Note_on_c, 0, 34, 100
2, 4208500, Note_off_c, 0, 74, 64
2, 4209000, Note_on_c, 0, 72, 100
2, 4209500, Note_off_c, 0, 70, 64
2, 4210000, Note_off_c, 0, 69, 64
2, 4210500, Note_on_c, 0, 65, 100
2, 4211000, Note_off_c, 0, 63, 64
2, 4216500, Note_off_c, 0, 72, 64
2, 4217000, Note_on_c, 0, 69, 100
2, 4217500, Note_on_c, 0, 63, 100
2, 4219000, Note_on_c, 0, 74, 100
2, 4219500, Note_on_c, 0, 70, 100
2, 4220000, Note_off_c, 0, 65, 64
2, 4220500, Note_on_c, 0, 46, 100
2, 4221000, Note_off_c, 0, 53, 64
2, 4221500, Note_off_c, 0, 34, 64
2, 4222000, Note_off_c, 0, 41, 64
2, 4227500, Note_off_c, 0, 74, 64
2, 4228000, Note_off_c, 0, 70, 64
2, 4228500, Note_on_c, 0, 65, 100
2, 4229000, Note_on_c, 0, 53, 100
2, 4229500, Note_on_c, 0, 41, 100
2, 4231000, Note_on_c, 0, 70, 100
2, 4231500, Note_off_c, 0, 65, 64
2, 4232000, Note_off_c, 0, 62, 64
2, 4232500, Note_off_c, 0, 58, 64
2, 4233000, Note_off_c, 0, 46, 64
2, 4240500, Note_on_c, 0, 62, 100
2, 4241000, Note_off_c, 0, 60, 64
2, 4241500, Note_on_c, 0, 58, 100
2, 4242000, Note_off_c, 0, 57, 64
2, 4242500, Note_on_c, 0, 46, 100
2, 4243000, Note_on_c, 0, 45, 100
2, 4248500, Note_on_c, 0, 60, 100
2, 4249000, Note_on_c, 0, 57, 100
2, 4249500, Note_off_c, 0, 45, 64
2, 4251000, Note_off_c, 0, 70, 64
2, 4251500, Note_on_c, 0, 74, 100
2, 4252000, Note_on_c, 0, 65, 100
2, 4252500, Note_off_c, 0, 62, 64
2, 4253000, Note_off_c, 0, 58, 64
2, 4253500, Note_off_c, 0, 46, 64
2, 4259000, Note_off_c, 0, 65, 64
2, 4259500, Note_on_c, 0, 62, 100
2, 4260000, Note_on_c, 0, 58, 100
2, 4260500, Note_on_c, 0, 46, 100
2, 4262000, Note_off_c, 0, 67, 64
2, 4262500, Note_off_c, 0, 55, 64
2, 4263000, Note_off_c, 0, 52, 64
2, 4263500, Note_on_c, 0, 40, 100
2, 4271000, Note_off_c, 0, 74, 64
2, 4271500, Note_on_c, 0, 67, 100
2, 4277000, Note_off_c, 0, 67, 64
2, 4278500, Note_on_c, 0, 70, 100
2, 4279000, Note_on_c, 0, 67, 100
2, 4279500, Note_on_c, 0, 55, 100
2, 4280000, Note_on_c, 0, 52, 100
2, 4280500, Note_off_c, 0, 40, 64
2, 4288000, Note_off_c, 0, 67, 64
2, 4288500, Note_on_c, 0, 64, 100
2, 4289000, Note_off_c, 0, 48, 64
2, 4289500, Note_on_c, 0, 36, 100
2, 4297000, Note_off_c, 0, 70, 64
2, 4297500, Note_off_c, 0, 64, 64
2, 4303000, Note_on_c, 0, 64, 100
2, 4304500, Note_on_c, 0, 72, 100
2, 4305000, Note_on_c, 0, 67, 100
2, 4305500, Note_off_c, 0, 64, 64
2, 4306000, Note_on_c, 0, 48, 100
2, 4306500, Note_off_c, 0, 36, 64
2, 4314000, Note_on_c, 0, 65, 100
2, 4314500, Note_off_c, 0, 57, 64
2, 4315000, Note_off_c, 0, 50, 64
2, 4315500, Note_on_c, 0, 38, 100
2, 4323000, Note_off_c, 0, 72, 64
2, 4323500, Note_off_c, 0, 65, 64
2, 4329000, Note_on_c, 0, 65, 100
2, 4330500, Note_off_c, 0, 69, 64
2, 4331000, Note_off_c, 0, 65, 64
2, 4331500, Note_on_c, 0, 57, 100
2, 4332000, Note_on_c, 0, 50, 100
2, 4332500, Note_off_c, 0, 38, 64
2, 4340000, Note_on_c, 0, 65, 100
2, 4340500, Note_off_c, 0, 62, 64
2, 4341000, Note_off_c, 0, 46, 64
2, 4341500, Note_on_c, 0, 34, 100
2, 4349000, Note_on_c, 0, 69, 100
2, 4349500, Note_on_c, 0, 62, 100
2, 4355000, Note_off_c, 0, 62, 64
2, 4356500, Note_on_c, 0, 70, 100
2, 4357000, Note_off_c, 0, 65, 64
2, 4357500, Note_on_c, 0, 62, 100
2, 4358000, Note_on_c, 0, 46, 100
2, 4358500, Note_off_c, 0, 34, 64
2, 4366000, Note_on_c, 0, 64, 100
2, 4366500, Note_off_c, 0, 55, 64
2, 4367000, Note_off_c, 0, 48, 64
2, 4367500, Note_on_c, 0, 36, 100
2, 4375000, Note_off_c, 0, 70, 64
2, 4375500, Note_off_c, 0, 64, 64
2, 4381000, Note_on_c, 0, 64, 100
2, 4382500, Note_off_c, 0, 67, 64
2, 4383000, Note_off_c, 0, 64, 64
2, 4383500, Note_off_c, 0, 60, 64
2, 4384000, Note_on_c, 0, 55, 100
2, 4384500, Note_off_c, 0, 52, 64
2, 4385000, Note_on_c, 0, 48, 100
2, 4385500, Note_off_c, 0, 46, 64
2, 4386000, Note_off_c, 0, 36, 64
2, 4386500, Note_on_c, 0, 34, 100
2, 4392000, Note_on_c, 0, 60, 100
2, 4392500, Note_on_c, 0, 52, 100
2, 4393000, Note_on_c, 0, 46, 100
2, 4393500, Note_off_c, 0, 34, 64
2, 4395000, Note_off_c, 0, 60, 64
2, 4395500, Note_off_c, 0, 57, 64
2, 4396000, Note_on_c, 0, 45, 100
2, 4396500, Note_on_c, 0, 33, 100
2, 4404000, Note_on_c, 0, 67, 100
2, 4404500, Note_on_c, 0, 60, 100
2, 4410000, Note_off_c, 0, 60, 64
2, 4411500, Note_on_c, 0, 70, 100
2, 4412000, Note_on_c, 0, 60, 100
2, 4412500, Note_on_c, 0, 64, 100
2, 4413000, Note_on_c, 0, 57, 100
2, 4413500, Note_off_c, 0, 58, 64
2, 4414000, Note_off_c, 0, 45, 64
2, 4414500, Note_on_c, 0, 43, 100
2, 4415000, Note_off_c, 0, 33, 64
2, 4415500, Note_on_c, 0, 31, 100
2, 4421000, Note_off_c, 0, 70, 64
2, 4421500, Note_off_c, 0, 64, 64
2, 4422000, Note_on_c, 0, 58, 100
2, 4422500, Note_off_c, 0, 43, 64
2, 4423000, Note_off_c, 0, 31, 64
2, 4424500, Note_off_c, 0, 69, 64
2, 4425000, Note_on_c, 0, 65, 100
2, 4425500, Note_off_c, 0, 60, 64
2, 4426000, Note_off_c, 0, 41, 64
2, 4426500, Note_on_c, 0, 29, 100
2, 4434000, Note_on_c, 0, 69, 100
2, 4434500, Note_off_c, 0, 67, 64
2, 4435000, Note_off_c, 0, 65, 64
2, 4435500, Note_on_c, 0, 64, 100
2, 4436000, Note_on_c, 0, 60, 100
2, 4436500, Note_off_c, 0, 58, 64
2, 4442000, Note_on_c, 0, 67, 100
2, 4442500, Note_off_c, 0, 64, 64
2, 4443000, Note_on_c, 0, 58, 100
2, 4444500, Note_off_c, 0, 69, 64
2, 4445000, Note_on_c, 0, 65, 100
2, 4445500, Note_off_c, 0, 60, 64
2, 4446000, Note_on_c, 0, 41, 100
2, 4446500, Note_off_c, 0, 48, 64
2, 4447000, Note_on_c, 0, 36, 100
2, 4447500, Note_off_c, 0, 29, 64
2, 4453000, Note_on_c, 0, 69, 100
2, 4453500, Note_off_c, 0, 65, 64
2, 4454000, Note_on_c, 0, 60, 100
2, 4454500, Note_on_c, 0, 48, 100
2, 4455000, Note_off_c, 0, 36, 64
2, 4456500, Note_on_c, 0, 65, 100
2, 4457000, Note_off_c, 0, 60, 64
2, 4457500, Note_off_c, 0, 57, 64
2, 4458000, Note_off_c, 0, 53, 64
2, 4458500, Note_off_c, 0, 41, 64
2, 4466000, Note_off_c, 0, 65, 64
2, 4466500, Note_off_c, 0, 69, 64
2, 4467000, Note_on_c, 0, 57, 100
2, 4467500, Note_off_c, 0, 55, 64
2, 4468000, Note_on_c, 0, 53, 100
2, 4468500, Note_off_c, 0, 51, 64
2, 4469000, Note_on_c, 0, 41, 100
2, 4469500, Note_on_c, 0, 39, 100
2, 4475000, Note_on_c, 0, 69, 100
2, 4475500, Note_on_c, 0, 55, 100
2, 4476000, Note_on_c, 0, 51, 100
2, 4476500, Note_off_c, 0, 39, 64
2, 4478000, Note_on_c, 0, 72, 100
2, 4478500, Note_on_c, 0, 60, 100
2, 4479000, Note_on_c, 0, 65, 100
2, 4479500, Note_off_c, 0, 57, 64
2, 4480000, Note_off_c, 0, 53, 64
2, 4480500, Note_off_c, 0, 41, 64
2, 4486000, Note_off_c, 0, 72, 64
2, 4486500, Note_off_c, 0, 65, 64
2, 4487000, Note_on_c, 0, 57, 100
2, 4487500, Note_on_c, 0, 53, 100
2, 4488000, Note_on_c, 0, 41, 100
2, 4489500, Note_off_c, 0, 77, 64
2, 4490000, Note_on_c, 0, 65, 100
2, 4490500, Note_off_c, 0, 58, 64
2, 4491000, Note_off_c, 0, 50, 64
2, 4491500, Note_on_c, 0, 38, 100
2, 4497000, Note_on_c, 0, 77, 100
2, 4498500, Note_on_c, 0, 70, 100
2, 4504000, Note_off_c, 0, 70, 64
2, 4505500, Note_on_c, 0, 74, 100
2, 4506000, Note_off_c, 0, 65, 64
2, 4506500, Note_on_c, 0, 58, 100
2, 4507000, Note_on_c, 0, 50, 100
2, 4507500, Note_off_c, 0, 38, 64
2, 4515000, Note_on_c, 0, 65, 100
2, 4515500, Note_off_c, 0, 58, 64
2, 4516000, Note_off_c, 0, 55, 64
2, 4516500, Note_on_c, 0, 43, 100
2, 4524000, Note_off_c, 0, 74, 64
2, 4524500, Note_off_c, 0, 67, 64
2, 4530000, Note_on_c, 0, 67, 100
2, 4531500, Note_off_c, 0, 75, 64
2, 4532000, Note_off_c, 0, 65, 64
2, 4532500, Note_on_c, 0, 58, 100
2, 4533000, Note_on_c, 0, 55, 100
2, 4533500, Note_off_c, 0, 43, 64
2, 4541000, Note_off_c, 0, 63, 64
2, 4541500, Note_off_c, 0, 58, 64
2, 4542000, Note_off_c, 0, 48, 64
2, 4542500, Note_on_c, 0, 36, 100
2, 4550000, Note_on_c, 0, 75, 100
2, 4550500, Note_off_c, 0, 69, 64
2, 4556000, Note_on_c, 0, 69, 100
2, 4557500, Note_on_c, 0, 72, 100
2, 4558000, Note_on_c, 0, 63, 100
2, 4558500, Note_on_c, 0, 58, 100
2, 4559000, Note_on_c, 0, 48, 100
2, 4559500, Note_off_c, 0, 36, 64
2, 4567000, Note_on_c, 0, 65, 100
2, 4567500, Note_off_c, 0, 57, 64
2, 4568000, Note_off_c, 0, 53, 64
2, 4568500, Note_off_c, 0, 41, 64
2, 4576000, Note_off_c, 0, 72, 64
2, 4576500, Note_off_c, 0, 65, 64
2, 4582000, Note_on_c, 0, 65, 100
2, 4583500, Note_on_c, 0, 74, 100
2, 4584000, Note_off_c, 0, 65, 64
2, 4584500, Note_on_c, 0, 57, 100
2, 4585000, Note_on_c, 0, 53, 100
2, 4585500, Note_on_c, 0, 41, 100
2, 4593000, Note_on_c, 0, 65, 100
2, 4593500, Note_off_c, 0, 58, 64
2, 4594000, Note_off_c, 0, 46, 64
2, 4594500, Note_on_c, 0, 34, 100
2, 4602000, Note_off_c, 0, 74, 64
2, 4602500, Note_off_c, 0, 65, 64
2, 4603000, Note_off_c, 0, 62, 64
2, 4608500, Note_on_c, 0, 65, 100
2, 4609000, Note_on_c, 0, 62, 100
2, 4610500, Note_on_c, 0, 70, 100
2, 4611000, Note_off_c, 0, 65, 64
2, 4611500, Note_on_c, 0, 58, 100
2, 4612000, Note_off_c, 0, 62, 64
2, 4612500, Note_on_c, 0, 46, 100
2, 4613000, Note_off_c, 0, 34, 64
2, 4618500, Note_on_c, 0, 65, 100
2, 4619000, Note_on_c, 0, 62, 100
2, 4619500, Note_off_c, 0, 58, 64
2, 4620000, Note_off_c, 0, 46, 64
2, 4621500, Note_off_c, 0, 62, 64
2, 4622000, Note_off_c, 0, 53, 64
2, 4622500, Note_on_c, 0, 46, 100
2, 4623000, Note_on_c, 0, 34, 100
2, 4630500, Note_off_c, 0, 70, 64
2, 4631000, Note_on_c, 0, 62, 100
2, 4631500, Note_on_c, 0, 58, 100
2, 4637000, Note_off_c, 0, 62, 64
2, 4637500, Note_off_c, 0, 58, 64
2, 4639000, Note_off_c, 0, 65, 64
2, 4639500, Note_on_c, 0, 62, 100
2, 4640000, Note_on_c, 0, 53, 100
2, 4640500, Note_on_c, 0, 58, 100
2, 4641000, Note_off_c, 0, 46, 64
2, 4641500, Note_off_c, 0, 34, 64
2, 4647000, Note_off_c, 0, 62, 64
2, 4647500, Note_off_c, 0, 58, 64
2, 4648000, Note_on_c, 0, 46, 100
2, 4649500, Note_on_c, 0, 58, 100
2, 4650000, Note_off_c, 0, 50, 64
2, 4650500, Note_off_c, 0, 46, 64
2, 4651000, Note_on_c, 0, 34, 100
2, 4658500, Note_on_c, 0, 65, 100
2, 4659000, Note_off_c, 0, 58, 64
2, 4659500, Note_on_c, 0, 62, 100
2, 4660000, Note_on_c, 0, 50, 100
2, 4660500, Note_off_c, 0, 53, 64
2, 4666000, Note_on_c, 0, 58, 100
2, 4666500, Note_off_c, 0, 62, 64
2, 4667000, Note_on_c, 0, 53, 100
2, 4668500, Note_on_c, 0, 62, 100
2, 4669000, Note_off_c, 0, 65, 64
2, 4669500, Note_off_c, 0, 58, 64
2, 4670000, Note_on_c, 0, 46, 100
2, 4670500, Note_off_c, 0, 34, 64
2, 4676000, Note_off_c, 0, 62, 64
2, 4676500, Note_on_c, 0, 65, 100
2, 4677000, Note_on_c, 0, 58, 100
2, 4677500, Note_off_c, 0, 46, 64
2, 4679000, Note_off_c, 0, 65, 64
2, 4679500, Note_on_c, 0, 70, 100
2, 4680000, Note_on_c, 0, 62, 100
2, 4680500, Note_on_c, 0, 46, 100
2, 4681000, Note_on_c, 0, 34, 100
2, 4686500, Note_on_c, 0, 65, 100
2, 4687000, Note_off_c, 0, 70, 64
2, 4687500, Note_off_c, 0, 62, 64
2, 4689000, Note_on_c, 0, 62, 100
2, 4689500, Note_off_c, 0, 65, 64
2, 4690000, Note_off_c, 0, 58, 64
2, 4695500, Note_off_c, 0, 62, 64
2, 4696000, Note_on_c, 0, 65, 100
2, 4696500, Note_on_c, 0, 58, 100
2, 4698000, Note_off_c, 0, 65, 64
2, 4698500, Note_on_c, 0, 70, 100
2, 4699000, Note_on_c, 0, 62, 100
2, 4699500, Note_off_c, 0, 46, 64
2, 4700000, Note_off_c, 0, 58, 64
2, 4700500, Note_off_c, 0, 34, 64
2, 4706000, Note_on_c, 0, 65, 100
2, 4706500, Note_off_c, 0, 70, 64
2, 4707000, Note_off_c, 0, 62, 64
2, 4707500, Note_on_c, 0, 58, 100
2, 4708000, Note_on_c, 0, 46, 100
2, 4709500, Note_on_c, 0, 70, 100
2, 4710000, Note_on_c, 0, 62, 100
2, 4710500, Note_off_c, 0, 65, 64
2, 4711000, Note_off_c, 0, 46, 64
2, 4711500, Note_on_c, 0, 34, 100
2, 4717000, Note_off_c, 0, 70, 64
2, 4718500, Note_on_c, 0, 65, 100
2, 4724000, Note_off_c, 0, 65, 64
2, 4725500, Note_off_c, 0, 67, 64
2, 4726000, Note_off_c, 0, 62, 64
2, 4726500, Note_on_c, 0, 65, 100
2, 4727000, Note_on_c, 0, 46, 100
2, 4727500, Note_off_c, 0, 34, 64
2, 4735000, Note_off_c, 0, 63, 64
2, 4735500, Note_off_c, 0, 58, 64
2, 4736000, Note_off_c, 0, 46, 64
2, 4743500, Note_on_c, 0, 67, 100
2, 4744000, Note_off_c, 0, 65, 64
2, 4749500, Note_on_c, 0, 65, 100
2, 4751000, Note_on_c, 0, 70, 100
2, 4751500, Note_on_c, 0, 63, 100
2, 4752000, Note_on_c, 0, 58, 100
2, 4752500, Note_on_c, 0, 46, 100
2, 4760000, Note_on_c, 0, 62, 100
2, 4760500, Note_off_c, 0, 53, 64
2, 4761000, Note_off_c, 0, 46, 64
2, 4761500, Note_on_c, 0, 34, 100
2, 4769000, Note_off_c, 0, 70, 64
2, 4769500, Note_off_c, 0, 65, 64
2, 4775000, Note_on_c, 0, 65, 100
2, 4776500, Note_off_c, 0, 67, 64
2, 4777000, Note_off_c, 0, 62, 64
2, 4777500, Note_on_c, 0, 53, 100
2, 4778000, Note_on_c, 0, 46, 100
2, 4778500, Note_off_c, 0, 34, 64
2, 4786000, Note_off_c, 0, 63, 64
2, 4786500, Note_off_c, 0, 58, 64
2, 4787000, Note_off_c, 0, 46, 64
2, 4794500, Note_on_c, 0, 67, 100
2, 4795000, Note_off_c, 0, 65, 64
2, 4800500, Note_on_c, 0, 65, 100
2, 4802000, Note_on_c, 0, 70, 100
2, 4802500, Note_on_c, 0, 63, 100
2, 4803000, Note_on_c, 0, 62, 100
2, 4803500, Note_on_c, 0, 58, 100
2, 4804000, Note_off_c, 0, 53, 64
2, 4804500, Note_on_c, 0, 46, 100
2, 4805000, Note_on_c, 0, 34, 100
2, 4810500, Note_off_c, 0, 62, 64
2, 4811000, Note_on_c, 0, 53, 100
2, 4811500, Note_off_c, 0, 46, 64
2, 4812000, Note_off_c, 0, 34, 64
2, 4813500, Note_off_c, 0, 63, 64
2, 4814000, Note_off_c, 0, 55, 64
2, 4814500, Note_off_c, 0, 51, 64
2, 4815000, Note_on_c, 0, 39, 100
2, 4822500, Note_off_c, 0, 70, 64
2, 4823000, Note_off_c, 0, 67, 64
2, 4828500, Note_on_c, 0, 67, 100
2, 4830000, Note_off_c, 0, 75, 64
2, 4830500, Note_on_c, 0, 63, 100
2, 4831000, Note_off_c, 0, 67, 64
2, 4831500, Note_on_c, 0, 55, 100
2, 4832000, Note_off_c, 0, 60, 64
2, 4832500, Note_on_c, 0, 51, 100
2, 4833000, Note_off_c, 0, 48, 64
2, 4833500, Note_off_c, 0, 39, 64
2, 4834000, Note_on_c, 0, 36, 100
2, 4839500, Note_on_c, 0, 67, 100
2, 4840000, Note_on_c, 0, 60, 100
2, 4840500, Note_on_c, 0, 48, 100
2, 4841000, Note_off_c, 0, 36, 64
2, 4842500, Note_off_c, 0, 65, 64
2, 4843000, Note_off_c, 0, 57, 64
2, 4843500, Note_off_c, 0, 53, 64
2, 4844000, Note_off_c, 0, 41, 64
2, 4851500, Note_on_c, 0, 75, 100
2, 4852000, Note_off_c, 0, 69, 64
2, 4857500, Note_on_c, 0, 69, 100
2, 4859000, Note_off_c, 0, 77, 64
2, 4859500, Note_on_c, 0, 65, 100
2, 4860000, Note_on_c, 0, 72, 100
2, 4860500, Note_on_c, 0, 57, 100
2, 4861000, Note_on_c, 0, 53, 100
2, 4861500, Note_on_c, 0, 45, 100
2, 4862000, Note_on_c, 0, 41, 100
2, 4862500, Note_on_c, 0, 33, 100
2, 4868000, Note_off_c, 0, 72, 64
2, 4868500, Note_off_c, 0, 53, 64
2, 4869000, Note_off_c, 0, 45, 64
2, 4869500, Note_off_c, 0, 33, 64
2, 4871000, Note_on_c, 0, 77, 100
2, 4871500, Note_on_c, 0, 74, 100
2, 4872000, Note_on_c, 0, 70, 100
2, 4872500, Note_off_c, 0, 65, 64
2, 4873000, Note_on_c, 0, 46, 100
2, 4873500, Note_on_c, 0, 34, 100
2, 4879000, Note_off_c, 0, 74, 64
2, 4879500, Note_off_c, 0, 70, 64
2, 4880000, Note_on_c, 0, 65, 100
2, 4880500, Note_off_c, 0, 46, 64
2, 4881000, Note_off_c, 0, 34, 64
2, 4882500, Note_on_c, 0, 70, 100
2, 4883000, Note_off_c, 0, 65, 64
2, 4883500, Note_on_c, 0, 62, 100
2, 4884000, Note_off_c, 0, 50, 64
2, 4884500, Note_on_c, 0, 26, 100
2, 4885000, Note_on_c, 0, 38, 100
2, 4890500, Note_off_c, 0, 70, 64
2, 4891000, Note_on_c, 0, 65, 100
2, 4891500, Note_off_c, 0, 62, 64
2, 4892000, Note_on_c, 0, 50, 100
2, 4892500, Note_off_c, 0, 26, 64
2, 4893000, Note_off_c, 0, 38, 64
2, 4894500, Note_off_c, 0, 69, 64
2, 4895000, Note_off_c, 0, 65, 64
2, 4895500, Note_off_c, 0, 60, 64
2, 4896000, Note_on_c, 0, 53, 100
2, 4896500, Note_off_c, 0, 41, 64
2, 4897000, Note_on_c, 0, 29, 100
2, 4898500, Note_on_c, 0, 69, 100
2, 4899000, Note_off_c, 0, 67, 64
2, 4900500, Note_on_c, 0, 67, 100
2, 4901000, Note_off_c, 0, 69, 64
2, 4902500, Note_on_c, 0, 65, 100
2, 4903000, Note_on_c, 0, 60, 100
2, 4903500, Note_off_c, 0, 53, 64
2, 4904000, Note_on_c, 0, 41, 100
2, 4904500, Note_off_c, 0, 29, 64
2, 4906000, Note_on_c, 0, 69, 100
2, 4906500, Note_on_c, 0, 70, 100
2, 4907000, Note_off_c, 0, 65, 64
2, 4907500, Note_on_c, 0, 62, 100
2, 4908000, Note_on_c, 0, 46, 100
2, 4908500, Note_on_c, 0, 22, 100
2, 4909000, Note_on_c, 0, 34, 100
2, 4920500, Note_off_c, 0, 70, 64
2, 4921000, Note_on_c, 0, 74, 100
2, 4924500, Note_off_c, 0, 74, 64
2, 4925000, Note_on_c, 0, 72, 100
2, 4925500, Note_on_c, 0, 70, 100
2, 4926000, Note_on_c, 0, 65, 100
2, 4926500, Note_off_c, 0, 62, 64
2, 4927000, Note_off_c, 0, 46, 64
2, 4927500, Note_off_c, 0, 22, 64
2, 4928000, Note_off_c, 0, 34, 64
2, 4931500, Note_off_c, 0, 72, 64
2, 4932000, Note_on_c, 0, 74, 100
2, 4935500, Note_off_c, 0, 74, 64
2, 4936000, Note_off_c, 0, 70, 64
2, 4936500, Note_off_c, 0, 50, 64
2, 4937000, Note_on_c, 0, 26, 100
2, 4937500, Note_on_c, 0, 38, 100
2, 4941000, Note_on_c, 0, 70, 100
2, 4941500, Note_on_c, 0, 74, 100
2, 4945000, Note_off_c, 0, 74, 64
2, 4945500, Note_off_c, 0, 69, 64
2, 4949000, Note_on_c, 0, 69, 100
2, 4949500, Note_on_c, 0, 74, 100
2, 4953000, Note_off_c, 0, 74, 64
2, 4953500, Note_off_c, 0, 67, 64
2, 4954000, Note_on_c, 0, 50, 100
2, 4954500, Note_on_c, 0, 62, 100
2, 4955000, Note_off_c, 0, 26, 64
2, 4955500, Note_off_c, 0, 38, 64
2, 4959000, Note_on_c, 0, 67, 100
2, 4959500, Note_on_c, 0, 74, 100
2, 4961000, Note_off_c, 0, 62, 64
2, 4961500, Note_on_c, 0, 38, 100
2, 4962000, Note_off_c, 0, 50, 64
2, 4963500, Note_off_c, 0, 74, 64
2, 4964000, Note_on_c, 0, 66, 100
2, 4964500, Note_on_c, 0, 50, 100
2, 4965000, Note_on_c, 0, 26, 100
2, 4965500, Note_off_c, 0, 38, 64
2, 4969000, Note_off_c, 0, 66, 64
2, 4969500, Note_on_c, 0, 74, 100
2, 4973000, Note_off_c, 0, 74, 64
2, 4973500, Note_on_c, 0, 64, 100
2, 4977000, Note_off_c, 0, 64, 64
2, 4977500, Note_on_c, 0, 74, 100
2, 4978000, Note_on_c, 0, 62, 100
2, 4981500, Note_off_c, 0, 74, 64
2, 4982000, Note_on_c, 0, 66, 100
2, 4982500, Note_off_c, 0, 62, 64
2, 4983000, Note_on_c, 0, 72, 100
2, 4983500, Note_off_c, 0, 50, 64
2, 4984000, Note_off_c, 0, 26, 64
2, 4984500, Note_on_c, 0, 38, 100
2, 4988000, Note_off_c, 0, 66, 64
2, 4988500, Note_on_c, 0, 74, 100
2, 4989000, Note_off_c, 0, 72, 64
2, 4989500, Note_on_c, 0, 62, 100
2, 4991000, Note_off_c, 0, 62, 64
2, 4991500, Note_off_c, 0, 38, 64
2, 4992000, Note_on_c, 0, 50, 100
2, 4993500, Note_off_c, 0, 74, 64
2, 4994000, Note_off_c, 0, 67, 64
2, 4994500, Note_on_c, 0, 62, 100
2, 4995000, Note_off_c, 0, 70, 64
2, 4995500, Note_off_c, 0, 50, 64
2, 4996000, Note_on_c, 0, 26, 100
2, 4996500, Note_on_c, 0, 38, 100
2, 5000000, Note_on_c, 0, 67, 100
2, 5000500, Note_on_c, 0, 74, 100
2, 5001000, Note_on_c, 0, 70, 100
2, 5001500, Note_off_c, 0, 62, 64
2, 5005000, Note_off_c, 0, 74, 64
2, 5005500, Note_on_c, 0, 66, 100
2, 5006000, Note_on_c, 0, 62, 100
2, 5006500, Note_off_c, 0, 69, 64
2, 5010000, Note_off_c, 0, 66, 64
2, 5010500, Note_on_c, 0, 74, 100
2, 5011000, Note_on_c, 0, 69, 100
2, 5011500, Note_off_c, 0, 62, 64
2, 5015000, Note_off_c, 0, 74, 64
2, 5015500, Note_off_c, 0, 67, 64
2, 5016000, Note_on_c, 0, 62, 100
2, 5016500, Note_on_c, 0, 50, 100
2, 5017000, Note_off_c, 0, 26, 64
2, 5017500, Note_off_c, 0, 38, 64
2, 5021000, Note_on_c, 0, 67, 100
2, 5021500, Note_on_c, 0, 74, 100
2, 5022000, Note_off_c, 0, 62, 64
2, 5023500, Note_on_c, 0, 62, 100
2, 5024000, Note_on_c, 0, 38, 100
2, 5024500, Note_off_c, 0, 50, 64
2, 5026000, Note_off_c, 0, 74, 64
2, 5026500, Note_off_c, 0, 69, 64
2, 5027000, Note_off_c, 0, 62, 64
2, 5027500, Note_on_c, 0, 66, 100
2, 5028000, Note_on_c, 0, 50, 100
2, 5028500, Note_on_c, 0, 26, 100
2, 5029000, Note_off_c, 0, 38, 64
2, 5032500, Note_on_c, 0, 69, 100
2, 5033000, Note_on_c, 0, 74, 100
2, 5033500, Note_off_c, 0, 66, 64
2, 5034000, Note_on_c, 0, 62, 100
2, 5037500, Note_off_c, 0, 74, 64
2, 5038000, Note_off_c, 0, 67, 64
2, 5038500, Note_off_c, 0, 62, 64
2, 5039000, Note_on_c, 0, 64, 100
2, 5042500, Note_on_c, 0, 67, 100
2, 5043000, Note_on_c, 0, 74, 100
2, 5043500, Note_off_c, 0, 64, 64
2, 5044000, Note_on_c, 0, 62, 100
2, 5047500, Note_off_c, 0, 74, 64
2, 5048000, Note_off_c, 0, 69, 64
2, 5048500, Note_off_c, 0, 62, 64
2, 5049000, Note_on_c, 0, 66, 100
2, 5049500, Note_off_c, 0, 50, 64
2, 5050000, Note_off_c, 0, 26, 64
2, 5050500, Note_on_c, 0, 38, 100
2, 5054000, Note_on_c, 0, 69, 100
2, 5054500, Note_on_c, 0, 74, 100
2, 5055000, Note_off_c, 0, 66, 64
2, 5055500, Note_on_c, 0, 62, 100
2, 5057000, Note_off_c, 0, 62, 64
2, 5057500, Note_off_c, 0, 38, 64
2, 5058000, Note_on_c, 0, 50, 100
2, 5059500, Note_off_c, 0, 74, 64
2, 5060000, Note_off_c, 0, 70, 64
2, 5060500, Note_on_c, 0, 62, 100
2, 5061000, Note_off_c, 0, 67, 64
2, 5061500, Note_off_c, 0, 50, 64
2, 5062000, Note_on_c, 0, 26, 100
2, 5062500, Note_on_c, 0, 38, 100
2, 5066000, Note_on_c, 0, 70, 100
2, 5066500, Note_on_c, 0, 74, 100
2, 5067000, Note_on_c, 0, 67, 100
2, 5067500, Note_off_c, 0, 62, 64
2, 5071000, Note_off_c, 0, 74, 64
2, 5071500, Note_off_c, 0, 69, 64
2, 5072000, Note_on_c, 0, 62, 100
2, 5072500, Note_on_c, 0, 66, 100
2, 5076000, Note_on_c, 0, 69, 100
2, 5076500, Note_on_c, 0, 74, 100
2, 5077000, Note_off_c, 0, 66, 64
2, 5077500, Note_off_c, 0, 62, 64
2, 5081000, Note_off_c, 0, 74, 64
2, 5081500, Note_off_c, 0, 70, 64
2, 5082000, Note_on_c, 0, 62, 100
2, 5082500, Note_off_c, 0, 67, 64
2, 5083000, Note_on_c, 0, 50, 100
2, 5083500, Note_off_c, 0, 26, 64
2, 5084000, Note_off_c, 0, 38, 64
2, 5087500, Note_on_c, 0, 70, 100
2, 5088000, Note_on_c, 0, 74, 100
2, 5088500, Note_on_c, 0, 67, 100
2, 5089000, Note_off_c, 0, 62, 64
2, 5090500, Note_on_c, 0, 62, 100
2, 5091000, Note_on_c, 0, 38, 100
2, 5091500, Note_off_c, 0, 50, 64
2, 5093000, Note_off_c, 0, 74, 64
2, 5093500, Note_on_c, 0, 72, 100
2, 5094000, Note_off_c, 0, 62, 64
2, 5094500, Note_off_c, 0, 69, 64
2, 5095000, Note_on_c, 0, 50, 100
2, 5095500, Note_on_c, 0, 26, 100
2, 5096000, Note_off_c, 0, 38, 64
2, 5099500, Note_off_c, 0, 72, 64
2, 5100000, Note_on_c, 0, 74, 100
2, 5100500, Note_on_c, 0, 69, 100
2, 5101000, Note_on_c, 0, 62, 100
2, 5104500, Note_off_c, 0, 74, 64
2, 5105000, Note_off_c, 0, 70, 64
2, 5105500, Note_off_c, 0, 62, 64
2, 5106000, Note_off_c, 0, 67, 64
2, 5109500, Note_on_c, 0, 70, 100
2, 5110000, Note_on_c, 0, 74, 100
2, 5110500, Note_on_c, 0, 67, 100
2, 5111000, Note_on_c, 0, 62, 100
2, 5114500, Note_off_c, 0, 74, 64
2, 5115000, Note_off_c, 0, 69, 64
2, 5115500, Note_off_c, 0, 62, 64
2, 5116000, Note_on_c, 0, 66, 100
2, 5116500, Note_off_c, 0, 50, 64
2, 5117000, Note_off_c, 0, 26, 64
2, 5117500, Note_on_c, 0, 38, 100
2, 5121000, Note_on_c, 0, 69, 100
2, 5121500, Note_on_c, 0, 74, 100
2, 5122000, Note_off_c, 0, 66, 64
2, 5122500, Note_on_c, 0, 62, 100
2, 5124000, Note_off_c, 0, 62, 64
2, 5124500, Note_off_c, 0, 38, 64
2, 5125000, Note_on_c, 0, 50, 100
2, 5126500, Note_off_c, 0, 74, 64
2, 5127000, Note_off_c, 0, 70, 64
2, 5127500, Note_on_c, 0, 62, 100
2, 5128000, Note_off_c, 0, 67, 64
2, 5128500, Note_off_c, 0, 50, 64
2, 5129000, Note_on_c, 0, 26, 100
2, 5129500, Note_on_c, 0, 38, 100
2, 5133000, Note_on_c, 0, 70, 100
2, 5133500, Note_on_c, 0, 74, 100
2, 5134000, Note_on_c, 0, 67, 100
2, 5134500, Note_off_c, 0, 62, 64
2, 5138000, Note_off_c, 0, 74, 64
2, 5138500, Note_off_c, 0, 69, 64
2, 5139000, Note_on_c, 0, 62, 100
2, 5142500, Note_on_c, 0, 69, 100
2, 5143000, Note_on_c, 0, 74, 100
2, 5143500, Note_off_c, 0, 62, 64
2, 5147000, Note_off_c, 0, 74, 64
2, 5147500, Note_off_c, 0, 67, 64
2, 5148000, Note_on_c, 0, 62, 100
2, 5148500, Note_off_c, 0, 70, 64
2, 5149000, Note_on_c, 0, 50, 100
2, 5149500, Note_off_c, 0, 26, 64
2, 5150000, Note_off_c, 0, 38, 64
2, 5153500, Note_on_c, 0, 67, 100
2, 5154000, Note_on_c, 0, 74, 100
2, 5154500, Note_on_c, 0, 70, 100
2, 5155000, Note_off_c, 0, 62, 64
2, 5156500, Note_on_c, 0, 62, 100
2, 5157000, Note_on_c, 0, 38, 100
2, 5157500, Note_off_c, 0, 50, 64
2, 5159000, Note_off_c, 0, 74, 64
2, 5159500, Note_on_c, 0, 66, 100
2, 5160000, Note_off_c, 0, 62, 64
2, 5160500, Note_off_c, 0, 69, 64
2, 5161000, Note_on_c, 0, 50, 100
2, 5161500, Note_on_c, 0, 26, 100
2, 5162000, Note_off_c, 0, 38, 64
2, 5165500, Note_off_c, 0, 66, 64
2, 5166000, Note_on_c, 0, 62, 100
2, 5167500, Note_on_c, 0, 69, 100
2, 5169000, Note_off_c, 0, 62, 64
2, 5169500, Note_on_c, 0, 66, 100
2, 5173000, Note_off_c, 0, 66, 64
2, 5173500, Note_off_c, 0, 69, 64
2, 5175000, Note_on_c, 0, 62, 100
2, 5176500, Note_on_c, 0, 69, 100
2, 5177000, Note_on_c, 0, 74, 100
2, 5177500, Note_off_c, 0, 50, 64
2, 5178000, Note_off_c, 0, 48, 64
2, 5178500, Note_off_c, 0, 26, 64
2, 5179000, Note_on_c, 0, 38, 100
2, 5182500, Note_off_c, 0, 74, 64
2, 5183000, Note_off_c, 0, 75, 64
2, 5184500, Note_on_c, 0, 48, 100
2, 5186000, Note_on_c, 0, 75, 100
2, 5186500, Note_off_c, 0, 77, 64
2, 5187000, Note_on_c, 0, 47, 100
2, 5190500, Note_off_c, 0, 55, 64
2, 5194000, Note_on_c, 0, 55, 100
2, 5194500, Note_on_c, 0, 59, 100
2, 5198000, Note_off_c, 0, 59, 64
2, 5198500, Note_off_c, 0, 62, 64
2, 5202000, Note_on_c, 0, 62, 100
2, 5202500, Note_off_c, 0, 67, 64
2, 5203000, Note_off_c, 0, 47, 64
2, 5206500, Note_on_c, 0, 67, 100
2, 5207000, Note_on_c, 0, 71, 100
2, 5210500, Note_on_c, 0, 77, 100
2, 5211000, Note_off_c, 0, 71, 64
2, 5211500, Note_off_c, 0, 75, 64
2, 5212000, Note_off_c, 0, 48, 64
2, 5215500, Note_off_c, 0, 60, 64
2, 5219000, Note_on_c, 0, 60, 100
2, 5219500, Note_off_c, 0, 63, 64
2, 5223000, Note_on_c, 0, 63, 100
2, 5223500, Note_off_c, 0, 67, 64
2, 5227000, Note_on_c, 0, 67, 100
2, 5227500, Note_on_c, 0, 72, 100
2, 5228000, Note_on_c, 0, 48, 100
2, 5231500, Note_off_c, 0, 72, 64
2, 5232000, Note_on_c, 0, 74, 100
2, 5235500, Note_off_c, 0, 74, 64
2, 5236000, Note_on_c, 0, 75, 100
2, 5236500, Note_on_c, 0, 45, 100
2, 5240000, Note_on_c, 0, 53, 100
2, 5243500, Note_off_c, 0, 53, 64
2, 5244000, Note_off_c, 0, 57, 64
2, 5247500, Note_on_c, 0, 57, 100
2, 5248000, Note_off_c, 0, 60, 64
2, 5251500, Note_on_c, 0, 60, 100
2, 5252000, Note_off_c, 0, 65, 64
2, 5252500, Note_off_c, 0, 45, 64
2, 5256000, Note_on_c, 0, 65, 100
2, 5256500, Note_off_c, 0, 69, 64
2, 5260000, Note_off_c, 0, 75, 64
2, 5260500, Note_on_c, 0, 69, 100
2, 5261000, Note_on_c, 0, 74, 100
2, 5261500, Note_on_c, 0, 46, 100
2, 5265000, Note_off_c, 0, 58, 64
2, 5268500, Note_on_c, 0, 58, 100
2, 5269000, Note_off_c, 0, 62, 64
2, 5272500, Note_on_c, 0, 62, 100
2, 5273000, Note_off_c, 0, 65, 64
2, 5276500, Note_on_c, 0, 65, 100
2, 5277000, Note_off_c, 0, 70, 64
2, 5277500, Note_off_c, 0, 46, 64
2, 5281000, Note_on_c, 0, 70, 100
2, 5281500, Note_on_c, 0, 72, 100
2, 5285000, Note_off_c, 0, 72, 64
2, 5285500, Note_off_c, 0, 74, 64
2, 5286000, Note_on_c, 0, 43, 100
2, 5289500, Note_off_c, 0, 51, 64
2, 5293000, Note_on_c, 0, 51, 100
2, 5293500, Note_off_c, 0, 55, 64
2, 5297000, Note_on_c, 0, 55, 100
2, 5297500, Note_off_c, 0, 58, 64
2, 5301000, Note_on_c, 0, 58, 100
2, 5301500, Note_off_c, 0, 63, 64
2, 5302000, Note_off_c, 0, 43, 64
2, 5305500, Note_on_c, 0, 63, 100
2, 5306000, Note_off_c, 0, 67, 64
2, 5309500, Note_on_c, 0, 74, 100
2, 5310000, Note_on_c, 0, 67, 100
2, 5310500, Note_on_c, 0, 72, 100
2, 5311000, Note_on_c, 0, 45, 100
2, 5314500, Note_off_c, 0, 57, 64
2, 5318000, Note_on_c, 0, 57, 100
2, 5318500, Note_off_c, 0, 60, 64
2, 5322000, Note_on_c, 0, 60, 100
2, 5322500, Note_on_c, 0, 66, 100
2, 5326000, Note_off_c, 0, 66, 64
2, 5326500, Note_off_c, 0, 69, 64
2, 5327000, Note_off_c, 0, 45, 64
2, 5330500, Note_on_c, 0, 69, 100
2, 5331000, Note_off_c, 0, 70, 64
2, 5334500, Note_on_c, 0, 70, 100
2, 5335000, Note_off_c, 0, 72, 64
2, 5335500, Note_on_c, 0, 42, 100
2, 5339000, Note_on_c, 0, 50, 100
2, 5342500, Note_off_c, 0, 50, 64
2, 5343000, Note_off_c, 0, 54, 64
2, 5346500, Note_on_c, 0, 54, 100
2, 5347000, Note_off_c, 0, 57, 64
2, 5350500, Note_on_c, 0, 57, 100
2, 5351000, Note_off_c, 0, 62, 64
2, 5351500, Note_off_c, 0, 42, 64
2, 5355000, Note_on_c, 0, 62, 100
2, 5355500, Note_on_c, 0, 66, 100
2, 5359000, Note_on_c, 0, 72, 100
2, 5359500, Note_off_c, 0, 66, 64
2, 5360000, Note_off_c, 0, 70, 64
2, 5360500, Note_on_c, 0, 43, 100
2, 5364000, Note_off_c, 0, 55, 64
2, 5367500, Note_on_c, 0, 55, 100
2, 5368000, Note_off_c, 0, 57, 64
2, 5371500, Note_on_c, 0, 57, 100
2, 5372000, Note_off_c, 0, 58, 64
2, 5375500, Note_on_c, 0, 58, 100
2, 5376000, Note_off_c, 0, 60, 64
2, 5376500, Note_off_c, 0, 43, 64
2, 5380000, Note_on_c, 0, 60, 100
2, 5380500, Note_off_c, 0, 62, 64
2, 5384000, Note_on_c, 0, 62, 100
2, 5384500, Note_off_c, 0, 63, 64
2, 5385000, Note_off_c, 0, 48, 64
2, 5388500, Note_on_c, 0, 70, 100
2, 5389000, Note_off_c, 0, 69, 64
2, 5392500, Note_on_c, 0, 69, 100
2, 5393000, Note_off_c, 0, 67, 64
2, 5396500, Note_on_c, 0, 67, 100
2, 5397000, Note_off_c, 0, 65, 64
2, 5400500, Note_on_c, 0, 65, 100
2, 5401000, Note_on_c, 0, 63, 100
2, 5401500, Note_on_c, 0, 48, 100
2, 5405000, Note_off_c, 0, 63, 64
2, 5405500, Note_off_c, 0, 62, 64
2, 5409000, Note_on_c, 0, 62, 100
2, 5409500, Note_off_c, 0, 72, 64
2, 5410000, Note_on_c, 0, 45, 100
2, 5413500, Note_on_c, 0, 63, 100
2, 5414000, Note_off_c, 0, 57, 64
2, 5417500, Note_on_c, 0, 57, 100
2, 5418000, Note_off_c, 0, 58, 64
2, 5421500, Note_on_c, 0, 58, 100
2, 5422000, Note_off_c, 0, 60, 64
2, 5425500, Note_on_c, 0, 60, 100
2, 5426000, Note_off_c, 0, 62, 64
2, 5426500, Note_off_c, 0, 45, 64
2, 5430000, Note_on_c, 0, 62, 100
2, 5430500, Note_on_c, 0, 64, 100
2, 5434000, Note_off_c, 0, 64, 64
2, 5434500, Note_off_c, 0, 65, 64
2, 5435000, Note_on_c, 0, 50, 100
2, 5438500, Note_on_c, 0, 72, 100
2, 5439000, Note_off_c, 0, 70, 64
2, 5442500, Note_on_c, 0, 70, 100
2, 5443000, Note_off_c, 0, 69, 64
2, 5446500, Note_on_c, 0, 69, 100
2, 5447000, Note_off_c, 0, 67, 64
2, 5450500, Note_on_c, 0, 67, 100
2, 5451000, Note_on_c, 0, 65, 100
2, 5451500, Note_off_c, 0, 50, 64
2, 5455000, Note_off_c, 0, 65, 64
2, 5455500, Note_off_c, 0, 63, 64
2, 5459000, Note_on_c, 0, 63, 100
2, 5459500, Note_off_c, 0, 74, 64
2, 5460000, Note_on_c, 0, 46, 100
2, 5463500, Note_on_c, 0, 65, 100
2, 5464000, Note_off_c, 0, 58, 64
2, 5467500, Note_on_c, 0, 58, 100
2, 5468000, Note_off_c, 0, 60, 64
2, 5471500, Note_on_c, 0, 60, 100
2, 5472000, Note_off_c, 0, 62, 64
2, 5475500, Note_on_c, 0, 62, 100
2, 5476000, Note_on_c, 0, 64, 100
2, 5476500, Note_off_c, 0, 46, 64
2, 5480000, Note_off_c, 0, 64, 64
2, 5480500, Note_on_c, 0, 66, 100
2, 5484000, Note_off_c, 0, 66, 64
2, 5484500, Note_off_c, 0, 67, 64
2, 5485000, Note_off_c, 0, 51, 64
2, 5488500, Note_on_c, 0, 74, 100
2, 5489000, Note_off_c, 0, 72, 64
2, 5492500, Note_on_c, 0, 72, 100
2, 5493000, Note_off_c, 0, 70, 64
2, 5496500, Note_on_c, 0, 67, 100
2, 5497000, Note_on_c, 0, 70, 100
2, 5497500, Note_off_c, 0, 69, 64
2, 5501000, Note_off_c, 0, 70, 64
2, 5501500, Note_off_c, 0, 72, 64
2, 5502000, Note_on_c, 0, 69, 100
2, 5502500, Note_off_c, 0, 67, 64
2, 5503000, Note_on_c, 0, 51, 100
2, 5506500, Note_on_c, 0, 72, 100
2, 5507000, Note_off_c, 0, 74, 64
2, 5507500, Note_on_c, 0, 67, 100
2, 5508000, Note_on_c, 0, 66, 100
2, 5511500, Note_on_c, 0, 74, 100
2, 5512000, Note_on_c, 0, 75, 100
2, 5512500, Note_off_c, 0, 66, 64
2, 5513000, Note_off_c, 0, 67, 64
2, 5513500, Note_off_c, 0, 48, 64
2, 5517000, Note_off_c, 0, 75, 64
2, 5517500, Note_off_c, 0, 74, 64
2, 5518000, Note_on_c, 0, 67, 100
2, 5518500, Note_off_c, 0, 65, 64
2, 5522000, Note_on_c, 0, 74, 100
2, 5522500, Note_off_c, 0, 72, 64
2, 5523000, Note_on_c, 0, 65, 100
2, 5523500, Note_off_c, 0, 63, 64
2, 5527000, Note_on_c, 0, 72, 100
2, 5527500, Note_on_c, 0, 70, 100
2, 5528000, Note_on_c, 0, 63, 100
2, 5528500, Note_off_c, 0, 62, 64
2, 5532000, Note_off_c, 0, 70, 64
2, 5532500, Note_off_c, 0, 69, 64
2, 5533000, Note_on_c, 0, 62, 100
2, 5533500, Note_off_c, 0, 60, 64
2, 5534000, Note_on_c, 0, 48, 100
2, 5537500, Note_on_c, 0, 69, 100
2, 5538000, Note_off_c, 0, 67, 64
2, 5538500, Note_on_c, 0, 60, 100
2, 5539000, Note_off_c, 0, 58, 64
2, 5542500, Note_on_c, 0, 67, 100
2, 5543000, Note_on_c, 0, 66, 100
2, 5543500, Note_on_c, 0, 58, 100
2, 5544000, Note_off_c, 0, 57, 64
2, 5544500, Note_on_c, 0, 50, 100
2, 5548000, Note_off_c, 0, 66, 64
2, 5548500, Note_on_c, 0, 64, 100
2, 5549000, Note_on_c, 0, 57, 100
2, 5549500, Note_off_c, 0, 55, 64
2, 5553000, Note_off_c, 0, 64, 64
2, 5553500, Note_on_c, 0, 66, 100
2, 5554000, Note_on_c, 0, 55, 100
2, 5554500, Note_off_c, 0, 57, 64
2, 5558000, Note_off_c, 0, 66, 64
2, 5558500, Note_off_c, 0, 67, 64
2, 5559000, Note_on_c, 0, 57, 100
2, 5559500, Note_off_c, 0, 58, 64
2, 5563000, Note_on_c, 0, 67, 100
2, 5563500, Note_on_c, 0, 66, 100
2, 5564000, Note_on_c, 0, 58, 100
2, 5564500, Note_off_c, 0, 57, 64
2, 5565000, Note_off_c, 0, 50, 64
2, 5568500, Note_off_c, 0, 66, 64
2, 5569000, Note_off_c, 0, 67, 64
2, 5569500, Note_on_c, 0, 57, 100
2, 5570000, Note_off_c, 0, 58, 64
2, 5573500, Note_on_c, 0, 67, 100
2, 5574000, Note_off_c, 0, 69, 64
2, 5574500, Note_on_c, 0, 58, 100
2, 5575000, Note_off_c, 0, 60, 64
2, 5575500, Note_off_c, 0, 38, 64
2, 5579000, Note_on_c, 0, 69, 100
2, 5579500, Note_off_c, 0, 67, 64
2, 5580000, Note_on_c, 0, 60, 100
2, 5580500, Note_off_c, 0, 58, 64
2, 5584000, Note_on_c, 0, 67, 100
2, 5584500, Note_off_c, 0, 69, 64
2, 5585000, Note_on_c, 0, 58, 100
2, 5585500, Note_off_c, 0, 60, 64
2, 5589000, Note_on_c, 0, 69, 100
2, 5589500, Note_on_c, 0, 70, 100
2, 5590000, Note_on_c, 0, 60, 100
2, 5590500, Note_off_c, 0, 62, 64
2, 5594000, Note_off_c, 0, 70, 64
2, 5594500, Note_off_c, 0, 69, 64
2, 5595000, Note_on_c, 0, 62, 100
2, 5595500, Note_off_c, 0, 60, 64
2, 5596000, Note_on_c, 0, 38, 100
2, 5599500, Note_on_c, 0, 69, 100
2, 5600000, Note_on_c, 0, 70, 100
2, 5600500, Note_on_c, 0, 60, 100
2, 5601000, Note_off_c, 0, 62, 64
2, 5604500, Note_off_c, 0, 70, 64
2, 5605000, Note_off_c, 0, 67, 64
2, 5605500, Note_on_c, 0, 62, 100
2, 5606000, Note_off_c, 0, 58, 64
2, 5606500, Note_off_c, 0, 55, 64
2, 5607000, Note_on_c, 0, 43, 100
2, 5614500, Note_on_c, 0, 67, 100
2, 5615000, Note_on_c, 0, 66, 100
2, 5615500, Note_on_c, 0, 58, 100
2, 5616000, Note_off_c, 0, 62, 64
2, 5621500, Note_off_c, 0, 66, 64
2, 5622000, Note_on_c, 0, 62, 100
2, 5623500, Note_off_c, 0, 67, 64
2, 5624000, Note_off_c, 0, 62, 64
2, 5624500, Note_off_c, 0, 58, 64
2, 5625000, Note_on_c, 0, 55, 100
2, 5625500, Note_off_c, 0, 43, 64
2, 5631000, Note_on_c, 0, 67, 100
2, 5632500, Note_on_c, 0, 58, 100
2, 5633000, Note_on_c, 0, 62, 100
2, 5633500, Note_off_c, 0, 55, 64
2, 5634000, Note_on_c, 0, 53, 100
2, 5634500, Note_off_c, 0, 41, 64
2, 5642000, Note_off_c, 0, 58, 64
2, 5642500, Note_off_c, 0, 62, 64
2, 5648000, Note_on_c, 0, 62, 100
2, 5649500, Note_off_c, 0, 67, 64
2, 5650000, Note_off_c, 0, 62, 64
2, 5650500, Note_on_c, 0, 55, 100
2, 5651000, Note_off_c, 0, 53, 64
2, 5651500, Note_on_c, 0, 41, 100
2, 5657000, Note_on_c, 0, 67, 100
2, 5658500, Note_off_c, 0, 67, 64
2, 5659000, Note_off_c, 0, 63, 64
2, 5659500, Note_on_c, 0, 58, 100
2, 5660000, Note_off_c, 0, 51, 64
2, 5660500, Note_on_c, 0, 39, 100
2, 5668000, Note_on_c, 0, 67, 100
2, 5668500, Note_on_c, 0, 66, 100
2, 5674000, Note_off_c, 0, 66, 64
2, 5675500, Note_off_c, 0, 67, 64
2, 5676000, Note_on_c, 0, 63, 100
2, 5676500, Note_off_c, 0, 58, 64
2, 5677000, Note_on_c, 0, 51, 100
2, 5677500, Note_off_c, 0, 39, 64
2, 5683000, Note_on_c, 0, 67, 100
2, 5684500, Note_on_c, 0, 58, 100
2, 5685000, Note_off_c, 0, 67, 64
2, 5685500, Note_on_c, 0, 62, 100
2, 5686000, Note_on_c, 0, 50, 100
2, 5686500, Note_off_c, 0, 38, 64
2, 5694000, Note_off_c, 0, 58, 64
2, 5694500, Note_off_c, 0, 62, 64
2, 5700000, Note_on_c, 0, 62, 100
2, 5701500, Note_on_c, 0, 67, 100
2, 5702000, Note_off_c, 0, 62, 64
2, 5702500, Note_off_c, 0, 50, 64
2, 5703000, Note_on_c, 0, 38, 100
2, 5708500, Note_off_c, 0, 67, 64
2, 5710000, Note_off_c, 0, 69, 64
2, 5710500, Note_on_c, 0, 67, 100
2, 5711000, Note_off_c, 0, 63, 64
2, 5711500, Note_off_c, 0, 48, 64
2, 5712000, Note_on_c, 0, 36, 100
2, 5719500, Note_on_c, 0, 69, 100
2, 5720000, Note_off_c, 0, 67, 64
2, 5725500, Note_on_c, 0, 67, 100
2, 5727000, Note_off_c, 0, 69, 64
2, 5727500, Note_off_c, 0, 67, 64
2, 5728000, Note_on_c, 0, 63, 100
2, 5728500, Note_on_c, 0, 48, 100
2, 5729000, Note_off_c, 0, 36, 64
2, 5734500, Note_on_c, 0, 69, 100
2, 5736000, Note_on_c, 0, 62, 100
2, 5736500, Note_on_c, 0, 66, 100
2, 5737000, Note_on_c, 0, 50, 100
2, 5737500, Note_off_c, 0, 38, 64
2, 5745000, Note_off_c, 0, 62, 64
2, 5745500, Note_off_c, 0, 66, 64
2, 5751000, Note_on_c, 0, 66, 100
2, 5752500, Note_off_c, 0, 69, 64
2, 5753000, Note_off_c, 0, 66, 64
2, 5753500, Note_on_c, 0, 62, 100
2, 5754000, Note_off_c, 0, 50, 64
2, 5754500, Note_on_c, 0, 38, 100
2, 5760000, Note_on_c, 0, 69, 100
2, 5761500, Note_on_c, 0, 70, 100
2, 5762000, Note_on_c, 0, 67, 100
2, 5762500, Note_off_c, 0, 62, 64
2, 5763000, Note_on_c, 0, 43, 100
2, 5763500, Note_on_c, 0, 31, 100
2, 5771000, Note_off_c, 0, 70, 64
2, 5771500, Note_off_c, 0, 69, 64
2, 5772000, Note_off_c, 0, 67, 64
2, 5772500, Note_on_c, 0, 66, 100
2, 5773000, Note_on_c, 0, 62, 100
2, 5773500, Note_off_c, 0, 60, 64
2, 5779000, Note_on_c, 0, 69, 100
2, 5779500, Note_off_c, 0, 66, 64
2, 5780000, Note_on_c, 0, 60, 100
2, 5781500, Note_on_c, 0, 70, 100
2, 5782000, Note_on_c, 0, 67, 100
2, 5782500, Note_off_c, 0, 62, 64
2, 5783000, Note_off_c, 0, 43, 64
2, 5783500, Note_on_c, 0, 50, 100
2, 5784000, Note_off_c, 0, 38, 64
2, 5784500, Note_off_c, 0, 31, 64
2, 5790000, Note_off_c, 0, 70, 64
2, 5790500, Note_off_c, 0, 67, 64
2, 5791000, Note_on_c, 0, 62, 100
2, 5791500, Note_off_c, 0, 50, 64
2, 5792000, Note_on_c, 0, 38, 100
2, 5793500, Note_on_c, 0, 67, 100
2, 5794000, Note_off_c, 0, 62, 64
2, 5794500, Note_on_c, 0, 58, 100
2, 5795000, Note_off_c, 0, 55, 64
2, 5795500, Note_on_c, 0, 43, 100
2, 5799000, Note_on_c, 0, 55, 100
2, 5799500, Note_off_c, 0, 57, 64
2, 5803000, Note_on_c, 0, 57, 100
2, 5803500, Note_off_c, 0, 58, 64
2, 5807000, Note_on_c, 0, 58, 100
2, 5807500, Note_off_c, 0, 57, 64
2, 5811000, Note_off_c, 0, 67, 64
2, 5811500, Note_off_c, 0, 74, 64
2, 5812000, Note_on_c, 0, 62, 100
2, 5812500, Note_off_c, 0, 58, 64
2, 5813000, Note_on_c, 0, 57, 100
2, 5813500, Note_off_c, 0, 55, 64
2, 5814000, Note_off_c, 0, 43, 64
2, 5817500, Note_on_c, 0, 55, 100
2, 5818000, Note_on_c, 0, 53, 100
2, 5819500, Note_on_c, 0, 74, 100
2, 5821000, Note_on_c, 0, 79, 100
2, 5821500, Note_off_c, 0, 53, 64
2, 5822000, Note_off_c, 0, 52, 64
2, 5825500, Note_on_c, 0, 52, 100
2, 5826000, Note_on_c, 0, 53, 100
2, 5829500, Note_off_c, 0, 53, 64
2, 5830000, Note_off_c, 0, 55, 64
2, 5833500, Note_on_c, 0, 55, 100
2, 5834000, Note_on_c, 0, 53, 100
2, 5837500, Note_on_c, 0, 71, 100
2, 5838000, Note_off_c, 0, 53, 64
2, 5838500, Note_off_c, 0, 52, 64
2, 5842000, Note_on_c, 0, 52, 100
2, 5842500, Note_on_c, 0, 50, 100
2, 5844000, Note_off_c, 0, 71, 64
2, 5845500, Note_on_c, 0, 76, 100
2, 5846000, Note_off_c, 0, 50, 64
2, 5846500, Note_on_c, 0, 49, 100
2, 5850000, Note_off_c, 0, 49, 64
2, 5850500, Note_off_c, 0, 52, 64
2, 5854000, Note_off_c, 0, 79, 64
2, 5854500, Note_on_c, 0, 73, 100
2, 5855000, Note_on_c, 0, 52, 100
2, 5855500, Note_off_c, 0, 57, 64
2, 5859000, Note_on_c, 0, 57, 100
2, 5859500, Note_off_c, 0, 55, 64
2, 5861000, Note_off_c, 0, 73, 64
2, 5862500, Note_off_c, 0, 76, 64
2, 5863000, Note_on_c, 0, 55, 100
2, 5863500, Note_on_c, 0, 53, 100
2, 5867000, Note_off_c, 0, 53, 64
2, 5867500, Note_off_c, 0, 52, 64
2, 5869000, Note_on_c, 0, 76, 100
2, 5870500, Note_off_c, 0, 77, 64
2, 5871000, Note_on_c, 0, 52, 100
2, 5871500, Note_on_c, 0, 50, 100
2, 5875000, Note_on_c, 0, 77, 100
2, 5875500, Note_off_c, 0, 76, 64
2, 5877000, Note_off_c, 0, 50, 64
2, 5878500, Note_on_c, 0, 76, 100
2, 5879000, Note_off_c, 0, 74, 64
2, 5879500, Note_off_c, 0, 69, 64
2, 5880000, Note_on_c, 0, 53, 100
2, 5883500, Note_on_c, 0, 74, 100
2, 5884000, Note_off_c, 0, 77, 64
2, 5885500, Note_on_c, 0, 69, 100
2, 5886000, Note_off_c, 0, 53, 64
2, 5887500, Note_on_c, 0, 77, 100
2, 5888000, Note_off_c, 0, 76, 64
2, 5888500, Note_on_c, 0, 73, 100
2, 5889000, Note_off_c, 0, 69, 64
2, 5889500, Note_on_c, 0, 64, 100
2, 5890000, Note_off_c, 0, 57, 64
2, 5890500, Note_on_c, 0, 33, 100
2, 5891000, Note_on_c, 0, 45, 100
2, 5894500, Note_on_c, 0, 76, 100
2, 5895000, Note_on_c, 0, 79, 100
2, 5895500, Note_off_c, 0, 33, 64
2, 5896000, Note_off_c, 0, 45, 64
2, 5897500, Note_off_c, 0, 73, 64
2, 5898000, Note_on_c, 0, 69, 100
2, 5898500, Note_off_c, 0, 64, 64
2, 5899000, Note_on_c, 0, 57, 100
2, 5900500, Note_off_c, 0, 79, 64
2, 5901000, Note_off_c, 0, 77, 64
2, 5901500, Note_off_c, 0, 74, 64
2, 5902000, Note_off_c, 0, 69, 64
2, 5902500, Note_off_c, 0, 62, 64
2, 5903000, Note_off_c, 0, 38, 64
2, 5903500, Note_on_c, 0, 50, 100
2, 5907000, Note_on_c, 0, 77, 100
2, 5907500, Note_on_c, 0, 69, 100
2, 5909000, Note_on_c, 0, 74, 100
2, 5909500, Note_on_c, 0, 62, 100
2, 5911000, Note_off_c, 0, 69, 64
2, 5911500, Note_off_c, 0, 74, 64
2, 5912000, Note_off_c, 0, 62, 64
2, 5912500, Note_on_c, 0, 53, 100
2, 5916000, Note_on_c, 0, 74, 100
2, 5916500, Note_off_c, 0, 76, 64
2, 5918000, Note_on_c, 0, 76, 100
2, 5918500, Note_off_c, 0, 77, 64
2, 5919000, Note_on_c, 0, 62, 100
2, 5919500, Note_off_c, 0, 53, 64
2, 5921000, Note_on_c, 0, 77, 100
2, 5921500, Note_off_c, 0, 76, 64
2, 5922000, Note_on_c, 0, 69, 100
2, 5922500, Note_off_c, 0, 62, 64
2, 5923000, Note_off_c, 0, 57, 64
2, 5923500, Note_on_c, 0, 38, 100
2, 5924000, Note_off_c, 0, 50, 64
2, 5927500, Note_on_c, 0, 76, 100
2, 5928000, Note_off_c, 0, 77, 64
2, 5929500, Note_on_c, 0, 77, 100
2, 5930000, Note_on_c, 0, 79, 100
2, 5930500, Note_on_c, 0, 57, 100
2, 5932000, Note_off_c, 0, 79, 64
2, 5932500, Note_off_c, 0, 77, 64
2, 5933000, Note_on_c, 0, 50, 100
2, 5936500, Note_off_c, 0, 50, 64
2, 5937000, Note_off_c, 0, 51, 64
2, 5940500, Note_on_c, 0, 51, 100
2, 5941000, Note_on_c, 0, 53, 100
2, 5944500, Note_off_c, 0, 53, 64
2, 5945000, Note_off_c, 0, 51, 64
2, 5948500, Note_off_c, 0, 69, 64
2, 5949000, Note_on_c, 0, 51, 100
2, 5949500, Note_on_c, 0, 50, 100
2, 5953000, Note_off_c, 0, 50, 64
2, 5953500, Note_off_c, 0, 48, 64
2, 5955000, Note_on_c, 0, 69, 100
2, 5956500, Note_off_c, 0, 74, 64
2, 5957000, Note_on_c, 0, 48, 100
2, 5957500, Note_on_c, 0, 47, 100
2, 5961000, Note_off_c, 0, 47, 64
2, 5961500, Note_on_c, 0, 50, 100
2, 5965000, Note_on_c, 0, 77, 100
2, 5965500, Note_on_c, 0, 71, 100
2, 5966000, Note_off_c, 0, 50, 64
2, 5966500, Note_off_c, 0, 55, 64
2, 5970000, Note_on_c, 0, 55, 100
2, 5970500, Note_on_c, 0, 53, 100
2, 5972000, Note_off_c, 0, 71, 64
2, 5973500, Note_on_c, 0, 74, 100
2, 5974000, Note_off_c, 0, 53, 64
2, 5974500, Note_off_c, 0, 51, 64
2, 5978000, Note_on_c, 0, 51, 100
2, 5978500, Note_on_c, 0, 50, 100
2, 5980000, Note_off_c, 0, 74, 64
2, 5981500, Note_on_c, 0, 75, 100
2, 5982000, Note_off_c, 0, 50, 64
2, 5982500, Note_off_c, 0, 48, 64
2, 5986000, Note_off_c, 0, 75, 64
2, 5986500, Note_on_c, 0, 74, 100
2, 5988000, Note_on_c, 0, 48, 100
2, 5989500, Note_off_c, 0, 74, 64
2, 5990000, Note_off_c, 0, 72, 64
2, 5990500, Note_on_c, 0, 67, 100
2, 5991000, Note_off_c, 0, 51, 64
2, 5994500, Note_on_c, 0, 72, 100
2, 5995000, Note_on_c, 0, 75, 100
2, 5996500, Note_off_c, 0, 67, 64
2, 5997000, Note_on_c, 0, 51, 100
2, 5998500, Note_off_c, 0, 75, 64
2, 5999000, Note_on_c, 0, 74, 100
2, 5999500, Note_on_c, 0, 71, 100
2, 6000000, Note_on_c, 0, 67, 100
2, 6000500, Note_on_c, 0, 62, 100
2, 6001000, Note_off_c, 0, 55, 64
2, 6001500, Note_on_c, 0, 43, 100
2, 6002000, Note_on_c, 0, 31, 100
2, 6005500, Note_off_c, 0, 74, 64
2, 6006000, Note_off_c, 0, 77, 64
2, 6006500, Note_off_c, 0, 43, 64
2, 6007000, Note_off_c, 0, 31, 64
2, 6008500, Note_off_c, 0, 71, 64
2, 6009000, Note_off_c, 0, 67, 64
2, 6009500, Note_off_c, 0, 62, 64
2, 6010000, Note_on_c, 0, 55, 100
2, 6011500, Note_on_c, 0, 77, 100
2, 6012000, Note_on_c, 0, 75, 100
2, 6012500, Note_off_c, 0, 72, 64
2, 6013000, Note_on_c, 0, 67, 100
2, 6013500, Note_off_c, 0, 60, 64
2, 6014000, Note_on_c, 0, 36, 100
2, 6014500, Note_off_c, 0, 48, 64
2, 6018000, Note_on_c, 0, 60, 100
2, 6018500, Note_on_c, 0, 62, 100
2, 6020000, Note_off_c, 0, 75, 64
2, 6021500, Note_on_c, 0, 72, 100
2, 6022000, Note_off_c, 0, 62, 64
2, 6022500, Note_off_c, 0, 60, 64
2, 6026000, Note_on_c, 0, 60, 100
2, 6026500, Note_on_c, 0, 58, 100
2, 6028000, Note_off_c, 0, 72, 64
2, 6029500, Note_on_c, 0, 75, 100
2, 6030000, Note_off_c, 0, 67, 64
2, 6030500, Note_off_c, 0, 60, 64
2, 6031000, Note_off_c, 0, 58, 64
2, 6031500, Note_off_c, 0, 57, 64
2, 6032000, Note_off_c, 0, 36, 64
2, 6032500, Note_on_c, 0, 48, 100
2, 6036000, Note_on_c, 0, 57, 100
2, 6036500, Note_off_c, 0, 55, 64
2, 6038000, Note_off_c, 0, 75, 64
2, 6039500, Note_on_c, 0, 74, 100
2, 6040000, Note_on_c, 0, 55, 100
2, 6040500, Note_off_c, 0, 54, 64
2, 6044000, Note_on_c, 0, 54, 100
2, 6044500, Note_off_c, 0, 57, 64
2, 6048000, Note_on_c, 0, 72, 100
2, 6048500, Note_on_c, 0, 66, 100
2, 6049000, Note_on_c, 0, 57, 100
2, 6049500, Note_on_c, 0, 62, 100
2, 6053000, Note_off_c, 0, 62, 64
2, 6053500, Note_on_c, 0, 60, 100
2, 6055000, Note_off_c, 0, 66, 64
2, 6056500, Note_off_c, 0, 69, 64
2, 6057000, Note_off_c, 0, 60, 64
2, 6057500, Note_on_c, 0, 58, 100
2, 6061000, Note_off_c, 0, 58, 64
2, 6061500, Note_off_c, 0, 57, 64
2, 6063000, Note_on_c, 0, 69, 100
2, 6064500, Note_on_c, 0, 70, 100
2, 6065000, Note_on_c, 0, 57, 100
2, 6065500, Note_off_c, 0, 55, 64
2, 6069000, Note_on_c, 0, 55, 100
2, 6069500, Note_off_c, 0, 57, 64
2, 6073000, Note_off_c, 0, 74, 64
2, 6073500, Note_on_c, 0, 67, 100
2, 6074000, Note_on_c, 0, 57, 100
2, 6074500, Note_on_c, 0, 58, 100
2, 6078000, Note_off_c, 0, 58, 64
2, 6078500, Note_off_c, 0, 57, 64
2, 6080000, Note_off_c, 0, 67, 64
2, 6081500, Note_off_c, 0, 70, 64
2, 6082000, Note_on_c, 0, 62, 100
2, 6082500, Note_on_c, 0, 58, 100
2, 6083000, Note_on_c, 0, 57, 100
2, 6083500, Note_off_c, 0, 55, 64
2, 6084000, Note_on_c, 0, 43, 100
2, 6087500, Note_on_c, 0, 55, 100
2, 6088000, Note_on_c, 0, 53, 100
2, 6089500, Note_on_c, 0, 70, 100
2, 6090000, Note_off_c, 0, 62, 64
2, 6090500, Note_off_c, 0, 58, 64
2, 6091000, Note_off_c, 0, 43, 64
2, 6091500, Note_off_c, 0, 55, 64
2, 6093000, Note_off_c, 0, 72, 64
2, 6093500, Note_on_c, 0, 67, 100
2, 6094000, Note_on_c, 0, 58, 100
2, 6094500, Note_off_c, 0, 53, 64
2, 6095000, Note_off_c, 0, 52, 64
2, 6095500, Note_on_c, 0, 40, 100
2, 6099000, Note_on_c, 0, 52, 100
2, 6099500, Note_on_c, 0, 55, 100
2, 6103000, Note_off_c, 0, 70, 64
2, 6103500, Note_on_c, 0, 64, 100
2, 6104000, Note_off_c, 0, 55, 64
2, 6104500, Note_on_c, 0, 60, 100
2, 6108000, Note_off_c, 0, 60, 64
2, 6108500, Note_off_c, 0, 58, 64
2, 6110000, Note_off_c, 0, 64, 64
2, 6111500, Note_off_c, 0, 67, 64
2, 6112000, Note_on_c, 0, 58, 100
2, 6112500, Note_off_c, 0, 57, 64
2, 6116000, Note_on_c, 0, 57, 100
2, 6116500, Note_on_c, 0, 55, 100
2, 6118000, Note_on_c, 0, 67, 100
2, 6119500, Note_off_c, 0, 69, 64
2, 6120000, Note_off_c, 0, 67, 64
2, 6120500, Note_off_c, 0, 58, 64
2, 6121000, Note_off_c, 0, 55, 64
2, 6121500, Note_on_c, 0, 53, 100
2, 6122000, Note_off_c, 0, 40, 64
2, 6122500, Note_off_c, 0, 52, 64
2, 6126000, Note_off_c, 0, 53, 64
2, 6126500, Note_on_c, 0, 55, 100
2, 6130000, Note_on_c, 0, 72, 100
2, 6130500, Note_off_c, 0, 65, 64
2, 6131000, Note_off_c, 0, 55, 64
2, 6131500, Note_off_c, 0, 57, 64
2, 6135000, Note_on_c, 0, 57, 100
2, 6135500, Note_on_c, 0, 55, 100
2, 6137000, Note_on_c, 0, 65, 100
2, 6138500, Note_on_c, 0, 69, 100
2, 6139000, Note_on_c, 0, 60, 100
2, 6139500, Note_off_c, 0, 57, 64
2, 6140000, Note_off_c, 0, 55, 64
2, 6140500, Note_on_c, 0, 53, 100
2, 6141000, Note_off_c, 0, 41, 64
2, 6144500, Note_off_c, 0, 53, 64
2, 6145000, Note_off_c, 0, 51, 64
2, 6146500, Note_off_c, 0, 69, 64
2, 6147000, Note_off_c, 0, 60, 64
2, 6147500, Note_on_c, 0, 57, 100
2, 6148000, Note_on_c, 0, 41, 100
2, 6148500, Note_on_c, 0, 53, 100
2, 6150000, Note_on_c, 0, 70, 100
2, 6150500, Note_off_c, 0, 65, 64
2, 6151000, Note_off_c, 0, 57, 64
2, 6151500, Note_on_c, 0, 51, 100
2, 6152000, Note_on_c, 0, 50, 100
2, 6152500, Note_off_c, 0, 38, 64
2, 6156000, Note_off_c, 0, 50, 64
2, 6156500, Note_off_c, 0, 53, 64
2, 6160000, Note_on_c, 0, 69, 100
2, 6160500, Note_on_c, 0, 62, 100
2, 6161000, Note_on_c, 0, 53, 100
2, 6161500, Note_on_c, 0, 58, 100
2, 6165000, Note_off_c, 0, 58, 64
2, 6165500, Note_on_c, 0, 57, 100
2, 6167000, Note_off_c, 0, 62, 64
2, 6168500, Note_on_c, 0, 65, 100
2, 6169000, Note_off_c, 0, 57, 64
2, 6169500, Note_on_c, 0, 55, 100
2, 6173000, Note_off_c, 0, 55, 64
2, 6173500, Note_off_c, 0, 53, 64
2, 6175000, Note_off_c, 0, 65, 64
2, 6176500, Note_on_c, 0, 67, 100
2, 6177000, Note_on_c, 0, 65, 100
2, 6177500, Note_on_c, 0, 57, 100
2, 6178000, Note_on_c, 0, 53, 100
2, 6178500, Note_on_c, 0, 52, 100
2, 6179000, Note_on_c, 0, 38, 100
2, 6179500, Note_on_c, 0, 50, 100
2, 6183000, Note_off_c, 0, 52, 64
2, 6183500, Note_off_c, 0, 53, 64
2, 6187000, Note_off_c, 0, 70, 64
2, 6187500, Note_on_c, 0, 64, 100
2, 6188000, Note_on_c, 0, 53, 100
2, 6188500, Note_on_c, 0, 55, 100
2, 6192000, Note_off_c, 0, 55, 64
2, 6192500, Note_off_c, 0, 53, 64
2, 6194000, Note_off_c, 0, 64, 64
2, 6195500, Note_off_c, 0, 67, 64
2, 6196000, Note_on_c, 0, 70, 100
2, 6196500, Note_on_c, 0, 55, 100
2, 6197000, Note_on_c, 0, 53, 100
2, 6197500, Note_on_c, 0, 52, 100
2, 6198000, Note_on_c, 0, 40, 100
2, 6201500, Note_off_c, 0, 52, 64
2, 6202000, Note_off_c, 0, 50, 64
2, 6203500, Note_on_c, 0, 67, 100
2, 6204000, Note_off_c, 0, 70, 64
2, 6204500, Note_off_c, 0, 55, 64
2, 6206000, Note_off_c, 0, 69, 64
2, 6206500, Note_on_c, 0, 64, 100
2, 6207000, Note_off_c, 0, 57, 64
2, 6207500, Note_on_c, 0, 50, 100
2, 6208000, Note_on_c, 0, 49, 100
2, 6208500, Note_off_c, 0, 40, 64
2, 6209000, Note_on_c, 0, 37, 100
2, 6209500, Note_on_c, 0, 52, 100
2, 6213000, Note_off_c, 0, 67, 64
2, 6213500, Note_on_c, 0, 69, 100
2, 6217000, Note_off_c, 0, 69, 64
2, 6217500, Note_on_c, 0, 67, 100
2, 6218000, Note_off_c, 0, 49, 64
2, 6218500, Note_off_c, 0, 50, 64
2, 6222000, Note_off_c, 0, 67, 64
2, 6222500, Note_off_c, 0, 65, 64
2, 6224000, Note_on_c, 0, 50, 100
2, 6225500, Note_on_c, 0, 65, 100
2, 6226000, Note_off_c, 0, 64, 64
2, 6226500, Note_off_c, 0, 52, 64
2, 6230000, Note_on_c, 0, 64, 100
2, 6230500, Note_off_c, 0, 65, 64
2, 6232000, Note_on_c, 0, 52, 100
2, 6233500, Note_on_c, 0, 65, 100
2, 6234000, Note_on_c, 0, 67, 100
2, 6234500, Note_off_c, 0, 64, 64
2, 6235000, Note_on_c, 0, 57, 100
2, 6235500, Note_on_c, 0, 45, 100
2, 6236000, Note_off_c, 0, 37, 64
2, 6236500, Note_on_c, 0, 49, 100
2, 6240000, Note_off_c, 0, 67, 64
2, 6240500, Note_off_c, 0, 65, 64
2, 6244000, Note_on_c, 0, 65, 100
2, 6244500, Note_on_c, 0, 67, 100
2, 6248000, Note_off_c, 0, 67, 64
2, 6248500, Note_on_c, 0, 69, 100
2, 6252000, Note_off_c, 0, 69, 64
2, 6252500, Note_on_c, 0, 67, 100
2, 6253000, Note_off_c, 0, 45, 64
2, 6253500, Note_off_c, 0, 49, 64
2, 6257000, Note_off_c, 0, 67, 64
2, 6257500, Note_on_c, 0, 69, 100
2, 6259000, Note_on_c, 0, 49, 100
2, 6260500, Note_off_c, 0, 69, 64
2, 6261000, Note_off_c, 0, 65, 64
2, 6261500, Note_off_c, 0, 57, 64
2, 6262000, Note_off_c, 0, 50, 64
2, 6262500, Note_off_c, 0, 38, 64
2, 6266000, Note_on_c, 0, 65, 100
2, 6266500, Note_on_c, 0, 69, 100
2, 6270000, Note_off_c, 0, 69, 64
2, 6270500, Note_on_c, 0, 64, 100
2, 6274000, Note_off_c, 0, 64, 64
2, 6274500, Note_on_c, 0, 69, 100
2, 6278000, Note_off_c, 0, 69, 64
2, 6278500, Note_on_c, 0, 62, 100
2, 6279000, Note_on_c, 0, 57, 100
2, 6279500, Note_on_c, 0, 50, 100
2, 6280000, Note_on_c, 0, 38, 100
2, 6283500, Note_off_c, 0, 62, 64
2, 6284000, Note_on_c, 0, 69, 100
2, 6285500, Note_off_c, 0, 69, 64
2, 6287000, Note_on_c, 0, 69, 100
2, 6287500, Note_on_c, 0, 61, 100
2, 6288000, Note_off_c, 0, 57, 64
2, 6288500, Note_on_c, 0, 45, 100
2, 6289000, Note_on_c, 0, 33, 100
2, 6292500, Note_off_c, 0, 61, 64
2, 6293000, Note_off_c, 0, 69, 64
2, 6296500, Note_on_c, 0, 69, 100
2, 6297000, Note_on_c, 0, 59, 100
2, 6300500, Note_off_c, 0, 69, 64
2, 6301000, Note_off_c, 0, 59, 64
2, 6304500, Note_on_c, 0, 69, 100
2, 6305000, Note_on_c, 0, 79, 100
2, 6305500, Note_on_c, 0, 61, 100
2, 6306000, Note_on_c, 0, 57, 100
2, 6306500, Note_off_c, 0, 45, 64
2, 6307000, Note_off_c, 0, 33, 64
2, 6310500, Note_off_c, 0, 79, 64
2, 6311000, Note_off_c, 0, 69, 64
2, 6311500, Note_off_c, 0, 61, 64
2, 6313000, Note_on_c, 0, 69, 100
2, 6314500, Note_off_c, 0, 69, 64
2, 6315000, Note_off_c, 0, 77, 64
2, 6315500, Note_on_c, 0, 62, 100
2, 6316000, Note_off_c, 0, 57, 64
2, 6316500, Note_off_c, 0, 38, 64
2, 6317000, Note_on_c, 0, 26, 100
2, 6320500, Note_on_c, 0, 77, 100
2, 6321000, Note_on_c, 0, 69, 100
2, 6321500, Note_off_c, 0, 62, 64
2, 6325000, Note_off_c, 0, 69, 64
2, 6325500, Note_off_c, 0, 76, 64
2, 6326000, Note_on_c, 0, 61, 100
2, 6329500, Note_on_c, 0, 76, 100
2, 6330000, Note_on_c, 0, 69, 100
2, 6330500, Note_off_c, 0, 61, 64
2, 6334000, Note_off_c, 0, 69, 64
2, 6334500, Note_on_c, 0, 74, 100
2, 6335000, Note_on_c, 0, 62, 100
2, 6335500, Note_on_c, 0, 57, 100
2, 6336000, Note_on_c, 0, 38, 100
2, 6336500, Note_off_c, 0, 26, 64
2, 6340000, Note_off_c, 0, 74, 64
2, 6340500, Note_on_c, 0, 69, 100
2, 6341000, Note_off_c, 0, 62, 64
2, 6342500, Note_off_c, 0, 69, 64
2, 6344000, Note_on_c, 0, 69, 100
2, 6344500, Note_on_c, 0, 73, 100
2, 6345000, Note_on_c, 0, 64, 100
2, 6345500, Note_off_c, 0, 57, 64
2, 6346000, Note_on_c, 0, 45, 100
2, 6346500, Note_on_c, 0, 33, 100
2, 6350000, Note_off_c, 0, 73, 64
2, 6350500, Note_off_c, 0, 69, 64
2, 6351000, Note_off_c, 0, 64, 64
2, 6354500, Note_on_c, 0, 69, 100
2, 6355000, Note_on_c, 0, 71, 100
2, 6355500, Note_on_c, 0, 62, 100
2, 6359000, Note_off_c, 0, 71, 64
2, 6359500, Note_off_c, 0, 69, 64
2, 6360000, Note_off_c, 0, 62, 64
2, 6363500, Note_on_c, 0, 69, 100
2, 6364000, Note_on_c, 0, 73, 100
2, 6364500, Note_on_c, 0, 64, 100
2, 6365000, Note_on_c, 0, 57, 100
2, 6365500, Note_off_c, 0, 45, 64
2, 6366000, Note_off_c, 0, 33, 64
2, 6369500, Note_off_c, 0, 73, 64
2, 6370000, Note_off_c, 0, 69, 64
2, 6370500, Note_off_c, 0, 64, 64
2, 6372000, Note_on_c, 0, 69, 100
2, 6373500, Note_off_c, 0, 69, 64
2, 6374000, Note_on_c, 0, 74, 100
2, 6374500, Note_off_c, 0, 65, 64
2, 6375000, Note_off_c, 0, 57, 64
2, 6375500, Note_off_c, 0, 50, 64
2, 6376000, Note_off_c, 0, 38, 64
2, 6379500, Note_off_c, 0, 74, 64
2, 6380000, Note_on_c, 0, 69, 100
2, 6380500, Note_on_c, 0, 65, 100
2, 6384000, Note_off_c, 0, 69, 64
2, 6384500, Note_on_c, 0, 73, 100
2, 6385000, Note_on_c, 0, 64, 100
2, 6388500, Note_off_c, 0, 73, 64
2, 6389000, Note_on_c, 0, 69, 100
2, 6389500, Note_off_c, 0, 64, 64
2, 6393000, Note_off_c, 0, 69, 64
2, 6393500, Note_on_c, 0, 74, 100
2, 6394000, Note_off_c, 0, 65, 64
2, 6394500, Note_on_c, 0, 57, 100
2, 6395000, Note_on_c, 0, 50, 100
2, 6395500, Note_on_c, 0, 38, 100
2, 6399000, Note_off_c, 0, 74, 64
2, 6399500, Note_on_c, 0, 69, 100
2, 6400000, Note_on_c, 0, 65, 100
2, 6401500, Note_off_c, 0, 69, 64
2, 6403000, Note_on_c, 0, 69, 100
2, 6403500, Note_off_c, 0, 76, 64
2, 6404000, Note_on_c, 0, 67, 100
2, 6404500, Note_off_c, 0, 57, 64
2, 6405000, Note_on_c, 0, 45, 100
2, 6408500, Note_on_c, 0, 76, 100
2, 6409000, Note_off_c, 0, 69, 64
2, 6409500, Note_off_c, 0, 67, 64
2, 6413000, Note_on_c, 0, 69, 100
2, 6413500, Note_on_c, 0, 74, 100
2, 6414000, Note_off_c, 0, 65, 64
2, 6417500, Note_off_c, 0, 74, 64
2, 6418000, Note_off_c, 0, 69, 64
2, 6418500, Note_on_c, 0, 65, 100
2, 6422000, Note_on_c, 0, 69, 100
2, 6422500, Note_on_c, 0, 73, 100
2, 6423000, Note_on_c, 0, 64, 100
2, 6423500, Note_on_c, 0, 57, 100
2, 6424000, Note_off_c, 0, 45, 64
2, 6427500, Note_off_c, 0, 73, 64
2, 6428000, Note_off_c, 0, 69, 64
2, 6428500, Note_off_c, 0, 64, 64
2, 6430000, Note_on_c, 0, 69, 100
2, 6431500, Note_off_c, 0, 69, 64
2, 6432000, Note_on_c, 0, 74, 100
2, 6432500, Note_off_c, 0, 65, 64
2, 6433000, Note_off_c, 0, 57, 64
2, 6433500, Note_on_c, 0, 62, 100
2, 6434000, Note_off_c, 0, 50, 64
2, 6437500, Note_off_c, 0, 74, 64
2, 6438000, Note_on_c, 0, 69, 100
2, 6438500, Note_on_c, 0, 65, 100
2, 6442000, Note_off_c, 0, 69, 64
2, 6442500, Note_off_c, 0, 76, 64
2, 6443000, Note_on_c, 0, 64, 100
2, 6446500, Note_on_c, 0, 76, 100
2, 6447000, Note_on_c, 0, 69, 100
2, 6447500, Note_off_c, 0, 64, 64
2, 6451000, Note_off_c, 0, 69, 64
2, 6451500, Note_off_c, 0, 77, 64
2, 6452000, Note_off_c, 0, 62, 64
2, 6452500, Note_on_c, 0, 57, 100
2, 6453000, Note_on_c, 0, 50, 100
2, 6456500, Note_on_c, 0, 77, 100
2, 6457000, Note_on_c, 0, 69, 100
2, 6457500, Note_on_c, 0, 62, 100
2, 6459000, Note_off_c, 0, 69, 64
2, 6460500, Note_on_c, 0, 69, 100
2, 6461000, Note_off_c, 0, 76, 64
2, 6461500, Note_on_c, 0, 61, 100
2, 6462000, Note_off_c, 0, 57, 64
2, 6462500, Note_on_c, 0, 45, 100
2, 6466000, Note_off_c, 0, 61, 64
2, 6466500, Note_on_c, 0, 57, 100
2, 6468000, Note_on_c, 0, 76, 100
2, 6469500, Note_off_c, 0, 69, 64
2, 6470000, Note_off_c, 0, 57, 64
2, 6470500, Note_on_c, 0, 61, 100
2, 6474000, Note_off_c, 0, 61, 64
2, 6474500, Note_on_c, 0, 64, 100
2, 6476000, Note_on_c, 0, 69, 100
2, 6477500, Note_off_c, 0, 64, 64
2, 6478000, Note_off_c, 0, 69, 64
2, 6478500, Note_on_c, 0, 57, 100
2, 6479000, Note_off_c, 0, 45, 64
2, 6482500, Note_on_c, 0, 69, 100
2, 6483000, Note_on_c, 0, 67, 100
2, 6486500, Note_off_c, 0, 67, 64
2, 6487000, Note_off_c, 0, 65, 64
2, 6487500, Note_off_c, 0, 50, 64
2, 6491000, Note_off_c, 0, 62, 64
2, 6494500, Note_on_c, 0, 62, 100
2, 6495000, Note_on_c, 0, 65, 100
2, 6498500, Note_off_c, 0, 65, 64
2, 6499000, Note_off_c, 0, 69, 64
2, 6502500, Note_on_c, 0, 69, 100
2, 6503000, Note_on_c, 0, 74, 100
2, 6503500, Note_on_c, 0, 50, 100
2, 6507000, Note_off_c, 0, 74, 64
2, 6507500, Note_off_c, 0, 72, 64
2, 6511000, Note_on_c, 0, 72, 100
2, 6511500, Note_on_c, 0, 70, 100
2, 6512000, Note_on_c, 0, 55, 100
2, 6515500, Note_on_c, 0, 65, 100
2, 6516000, Note_off_c, 0, 55, 64
2, 6519500, Note_on_c, 0, 55, 100
2, 6520000, Note_on_c, 0, 58, 100
2, 6523500, Note_off_c, 0, 58, 64
2, 6524000, Note_off_c, 0, 62, 64
2, 6527500, Note_on_c, 0, 62, 100
2, 6528000, Note_on_c, 0, 67, 100
2, 6528500, Note_off_c, 0, 55, 64
2, 6532000, Note_off_c, 0, 67, 64
2, 6532500, Note_off_c, 0, 65, 64
2, 6536000, Note_on_c, 0, 65, 100
2, 6536500, Note_on_c, 0, 64, 100
2, 6537000, Note_off_c, 0, 48, 64
2, 6540500, Note_off_c, 0, 70, 64
2, 6541000, Note_on_c, 0, 60, 100
2, 6544500, Note_off_c, 0, 60, 64
2, 6545000, Note_off_c, 0, 64, 64
2, 6548500, Note_on_c, 0, 64, 100
2, 6549000, Note_on_c, 0, 67, 100
2, 6552500, Note_off_c, 0, 67, 64
2, 6553000, Note_off_c, 0, 72, 64
2, 6553500, Note_on_c, 0, 48, 100
2, 6557000, Note_on_c, 0, 72, 100
2, 6557500, Note_on_c, 0, 70, 100
2, 6561000, Note_off_c, 0, 70, 64
2, 6561500, Note_off_c, 0, 69, 64
2, 6562000, Note_off_c, 0, 53, 64
2, 6565500, Note_off_c, 0, 64, 64
2, 6566000, Note_on_c, 0, 53, 100
2, 6569500, Note_off_c, 0, 53, 64
2, 6570000, Note_off_c, 0, 57, 64
2, 6573500, Note_on_c, 0, 57, 100
2, 6574000, Note_on_c, 0, 60, 100
2, 6577500, Note_off_c, 0, 60, 64
2, 6578000, Note_off_c, 0, 65, 64
2, 6578500, Note_on_c, 0, 53, 100
2, 6582000, Note_on_c, 0, 65, 100
2, 6582500, Note_on_c, 0, 64, 100
2, 6586000, Note_off_c, 0, 64, 64
2, 6586500, Note_off_c, 0, 62, 64
2, 6587000, Note_on_c, 0, 58, 100
2, 6590500, Note_on_c, 0, 69, 100
2, 6591000, Note_off_c, 0, 58, 64
2, 6594500, Note_on_c, 0, 58, 100
2, 6595000, Note_on_c, 0, 62, 100
2, 6598500, Note_off_c, 0, 62, 64
2, 6599000, Note_off_c, 0, 65, 64
2, 6602500, Note_on_c, 0, 65, 100
2, 6603000, Note_on_c, 0, 70, 100
2, 6603500, Note_off_c, 0, 58, 64
2, 6607000, Note_off_c, 0, 70, 64
2, 6607500, Note_off_c, 0, 69, 64
2, 6611000, Note_on_c, 0, 69, 100
2, 6611500, Note_on_c, 0, 67, 100
2, 6612000, Note_off_c, 0, 52, 64
2, 6615500, Note_on_c, 0, 62, 100
2, 6616000, Note_on_c, 0, 52, 100
2, 6619500, Note_off_c, 0, 52, 64
2, 6620000, Note_on_c, 0, 55, 100
2, 6623500, Note_off_c, 0, 55, 64
2, 6624000, Note_on_c, 0, 59, 100
2, 6627500, Note_off_c, 0, 59, 64
2, 6628000, Note_on_c, 0, 64, 100
2, 6628500, Note_on_c, 0, 52, 100
2, 6632000, Note_off_c, 0, 64, 64
2, 6632500, Note_off_c, 0, 62, 64
2, 6636000, Note_on_c, 0, 62, 100
2, 6636500, Note_on_c, 0, 61, 100
2, 6637000, Note_off_c, 0, 57, 64
2, 6640500, Note_off_c, 0, 67, 64
2, 6641000, Note_on_c, 0, 57, 100
2, 6644500, Note_off_c, 0, 57, 64
2, 6645000, Note_off_c, 0, 61, 64
2, 6648500, Note_on_c, 0, 61, 100
2, 6649000, Note_on_c, 0, 64, 100
2, 6652500, Note_off_c, 0, 64, 64
2, 6653000, Note_off_c, 0, 69, 64
2, 6653500, Note_on_c, 0, 57, 100
2, 6657000, Note_on_c, 0, 69, 100
2, 6657500, Note_on_c, 0, 67, 100
2, 6661000, Note_off_c, 0, 67, 64
2, 6661500, Note_off_c, 0, 65, 64
2, 6662000, Note_off_c, 0, 61, 64
2, 6662500, Note_off_c, 0, 50, 64
2, 6666000, Note_off_c, 0, 62, 64
2, 6669500, Note_on_c, 0, 62, 100
2, 6670000, Note_on_c, 0, 64, 100
2, 6673500, Note_off_c, 0, 64, 64
2, 6674000, Note_on_c, 0, 65, 100
2, 6677500, Note_off_c, 0, 65, 64
2, 6678000, Note_on_c, 0, 67, 100
2, 6678500, Note_on_c, 0, 50, 100
2, 6682000, Note_off_c, 0, 67, 64
2, 6682500, Note_off_c, 0, 69, 64
2, 6686000, Note_on_c, 0, 69, 100
2, 6686500, Note_on_c, 0, 70, 100
2, 6687000, Note_on_c, 0, 55, 100
2, 6690500, Note_on_c, 0, 65, 100
2, 6691000, Note_on_c, 0, 64, 100
2, 6694500, Note_off_c, 0, 64, 64
2, 6695000, Note_off_c, 0, 62, 64
2, 6698500, Note_on_c, 0, 62, 100
2, 6699000, Note_on_c, 0, 60, 100
2, 6702500, Note_off_c, 0, 60, 64
2, 6703000, Note_on_c, 0, 58, 100
2, 6703500, Note_off_c, 0, 55, 64
2, 6707000, Note_off_c, 0, 58, 64
2, 6707500, Note_off_c, 0, 57, 64
2, 6711000, Note_on_c, 0, 57, 100
2, 6711500, Note_on_c, 0, 67, 100
2, 6712000, Note_off_c, 0, 52, 64
2, 6715500, Note_off_c, 0, 70, 64
2, 6716000, Note_on_c, 0, 64, 100
2, 6719500, Note_off_c, 0, 64, 64
2, 6720000, Note_off_c, 0, 65, 64
2, 6723500, Note_on_c, 0, 65, 100
2, 6724000, Note_off_c, 0, 67, 64
2, 6727500, Note_on_c, 0, 67, 100
2, 6728000, Note_off_c, 0, 69, 64
2, 6728500, Note_on_c, 0, 52, 100
2, 6732000, Note_on_c, 0, 69, 100
2, 6732500, Note_on_c, 0, 71, 100
2, 6736000, Note_off_c, 0, 71, 64
2, 6736500, Note_off_c, 0, 72, 64
2, 6737000, Note_off_c, 0, 57, 64
2, 6740500, Note_off_c, 0, 67, 64
2, 6741000, Note_off_c, 0, 65, 64
2, 6744500, Note_on_c, 0, 65, 100
2, 6745000, Note_on_c, 0, 64, 100
2, 6748500, Note_off_c, 0, 64, 64
2, 6749000, Note_off_c, 0, 62, 64
2, 6752500, Note_on_c, 0, 62, 100
2, 6753000, Note_on_c, 0, 60, 100
2, 6753500, Note_on_c, 0, 57, 100
2, 6757000, Note_off_c, 0, 60, 64
2, 6757500, Note_on_c, 0, 58, 100
2, 6761000, Note_off_c, 0, 58, 64
2, 6761500, Note_off_c, 0, 69, 64
2, 6762000, Note_off_c, 0, 53, 64
2, 6765500, Note_on_c, 0, 72, 100
2, 6766000, Note_off_c, 0, 65, 64
2, 6769500, Note_on_c, 0, 65, 100
2, 6770000, Note_on_c, 0, 67, 100
2, 6773500, Note_off_c, 0, 67, 64
2, 6774000, Note_on_c, 0, 69, 100
2, 6777500, Note_off_c, 0, 69, 64
2, 6778000, Note_on_c, 0, 71, 100
2, 6778500, Note_on_c, 0, 53, 100
2, 6782000, Note_off_c, 0, 71, 64
2, 6782500, Note_on_c, 0, 73, 100
2, 6786000, Note_off_c, 0, 73, 64
2, 6786500, Note_on_c, 0, 74, 100
2, 6787000, Note_on_c, 0, 58, 100
2, 6790500, Note_on_c, 0, 69, 100
2, 6791000, Note_on_c, 0, 67, 100
2, 6794500, Note_off_c, 0, 67, 64
2, 6795000, Note_off_c, 0, 65, 64
2, 6798500, Note_on_c, 0, 65, 100
2, 6799000, Note_on_c, 0, 64, 100
2, 6799500, Note_off_c, 0, 74, 64
2, 6803000, Note_off_c, 0, 64, 64
2, 6803500, Note_off_c, 0, 62, 64
2, 6804000, Note_off_c, 0, 65, 64
2, 6804500, Note_on_c, 0, 67, 100
2, 6805000, Note_off_c, 0, 58, 64
2, 6808500, Note_on_c, 0, 62, 100
2, 6809000, Note_on_c, 0, 61, 100
2, 6809500, Note_off_c, 0, 67, 64
2, 6810000, Note_off_c, 0, 69, 64
2, 6813500, Note_off_c, 0, 61, 64
2, 6814000, Note_off_c, 0, 62, 64
2, 6814500, Note_on_c, 0, 69, 100
2, 6815000, Note_on_c, 0, 70, 100
2, 6815500, Note_on_c, 0, 55, 100
2, 6819000, Note_on_c, 0, 62, 100
2, 6819500, Note_on_c, 0, 60, 100
2, 6820000, Note_off_c, 0, 70, 64
2, 6820500, Note_off_c, 0, 69, 64
2, 6824000, Note_off_c, 0, 60, 64
2, 6824500, Note_on_c, 0, 58, 100
2, 6825000, Note_on_c, 0, 69, 100
2, 6825500, Note_on_c, 0, 67, 100
2, 6829000, Note_off_c, 0, 58, 64
2, 6829500, Note_off_c, 0, 57, 64
2, 6830000, Note_off_c, 0, 67, 64
2, 6830500, Note_on_c, 0, 65, 100
2, 6834000, Note_on_c, 0, 57, 100
2, 6834500, Note_off_c, 0, 55, 64
2, 6835000, Note_off_c, 0, 65, 64
2, 6835500, Note_on_c, 0, 64, 100
2, 6839000, Note_on_c, 0, 55, 100
2, 6839500, Note_off_c, 0, 53, 64
2, 6840000, Note_off_c, 0, 64, 64
2, 6840500, Note_off_c, 0, 62, 64
2, 6844000, Note_on_c, 0, 53, 100
2, 6844500, Note_off_c, 0, 52, 64
2, 6845000, Note_on_c, 0, 62, 100
2, 6845500, Note_on_c, 0, 61, 100
2, 6846000, Note_off_c, 0, 57, 64
2, 6849500, Note_on_c, 0, 52, 100
2, 6850000, Note_off_c, 0, 50, 64
2, 6850500, Note_off_c, 0, 61, 64
2, 6851000, Note_on_c, 0, 59, 100
2, 6854500, Note_on_c, 0, 50, 100
2, 6855000, Note_off_c, 0, 52, 64
2, 6855500, Note_off_c, 0, 59, 64
2, 6856000, Note_on_c, 0, 61, 100
2, 6859500, Note_on_c, 0, 52, 100
2, 6860000, Note_off_c, 0, 53, 64
2, 6860500, Note_off_c, 0, 61, 64
2, 6861000, Note_off_c, 0, 62, 64
2, 6864500, Note_on_c, 0, 53, 100
2, 6865000, Note_off_c, 0, 52, 64
2, 6865500, Note_on_c, 0, 62, 100
2, 6866000, Note_on_c, 0, 61, 100
2, 6866500, Note_on_c, 0, 57, 100
2, 6870000, Note_on_c, 0, 52, 100
2, 6870500, Note_off_c, 0, 53, 64
2, 6871000, Note_off_c, 0, 61, 64
2, 6871500, Note_off_c, 0, 62, 64
2, 6875000, Note_on_c, 0, 53, 100
2, 6875500, Note_off_c, 0, 55, 64
2, 6876000, Note_on_c, 0, 62, 100
2, 6876500, Note_on_c, 0, 64, 100
2, 6877000, Note_on_c, 0, 45, 100
2, 6880500, Note_on_c, 0, 55, 100
2, 6881000, Note_off_c, 0, 53, 64
2, 6881500, Note_off_c, 0, 64, 64
2, 6882000, Note_off_c, 0, 62, 64
2, 6885500, Note_on_c, 0, 53, 100
2, 6886000, Note_off_c, 0, 55, 64
2, 6886500, Note_on_c, 0, 62, 100
2, 6887000, Note_on_c, 0, 64, 100
2, 6890500, Note_on_c, 0, 55, 100
2, 6891000, Note_off_c, 0, 57, 64
2, 6891500, Note_off_c, 0, 64, 64
2, 6892000, Note_on_c, 0, 65, 100
2, 6895500, Note_on_c, 0, 57, 100
2, 6896000, Note_off_c, 0, 55, 64
2, 6896500, Note_off_c, 0, 65, 64
2, 6897000, Note_on_c, 0, 64, 100
2, 6897500, Note_off_c, 0, 45, 64
2, 6901000, Note_on_c, 0, 55, 100
2, 6901500, Note_off_c, 0, 57, 64
2, 6902000, Note_off_c, 0, 64, 64
2, 6902500, Note_on_c, 0, 65, 100
2, 6906000, Note_on_c, 0, 57, 100
2, 6906500, Note_off_c, 0, 53, 64
2, 6907000, Note_off_c, 0, 65, 64
2, 6907500, Note_off_c, 0, 62, 64
2, 6908000, Note_off_c, 0, 50, 64
2, 6908500, Note_off_c, 0, 38, 64
2, 6914000, Note_on_c, 0, 53, 100
2, 6914500, Note_on_c, 0, 62, 100
2, 6916000, Note_off_c, 0, 57, 64
2, 6921500, Note_on_c, 0, 57, 100
2, 6923000, Note_on_c, 0, 58, 100
2, 6923500, Note_off_c, 0, 57, 64
2, 6924000, Note_off_c, 0, 53, 64
2, 6924500, Note_on_c, 0, 50, 100
2, 6925000, Note_on_c, 0, 38, 100
2, 6932500, Note_off_c, 0, 55, 64
2, 6933000, Note_off_c, 0, 50, 64
2, 6933500, Note_off_c, 0, 38, 64
2, 6934000, Note_on_c, 0, 26, 100
2, 6941500, Note_off_c, 0, 58, 64
2, 6942000, Note_on_c, 0, 57, 100
2, 6947500, Note_off_c, 0, 57, 64
2, 6949000, Note_off_c, 0, 62, 64
2, 6949500, Note_on_c, 0, 55, 100
2, 6950000, Note_on_c, 0, 50, 100
2, 6950500, Note_on_c, 0, 38, 100
2, 6951000, Note_off_c, 0, 26, 64
2, 6958500, Note_on_c, 0, 53, 100
2, 6959000, Note_on_c, 0, 57, 100
2, 6959500, Note_off_c, 0, 50, 64
2, 6960000, Note_off_c, 0, 38, 64
2, 6967500, Note_on_c, 0, 62, 100
2, 6968000, Note_off_c, 0, 57, 64
2, 6973500, Note_on_c, 0, 57, 100
2, 6975000, Note_on_c, 0, 58, 100
2, 6975500, Note_off_c, 0, 53, 64
2, 6976000, Note_off_c, 0, 57, 64
2, 6976500, Note_on_c, 0, 50, 100
2, 6977000, Note_on_c, 0, 38, 100
2, 6984500, Note_off_c, 0, 50, 64
2, 6985000, Note_off_c, 0, 55, 64
2, 6985500, Note_off_c, 0, 38, 64
2, 6986000, Note_on_c, 0, 26, 100
2, 6993500, Note_off_c, 0, 58, 64
2, 6994000, Note_on_c, 0, 57, 100
2, 6999500, Note_off_c, 0, 57, 64
2, 7001000, Note_off_c, 0, 62, 64
2, 7001500, Note_on_c, 0, 50, 100
2, 7002000, Note_on_c, 0, 55, 100
2, 7002500, Note_on_c, 0, 53, 100
2, 7003000, Note_on_c, 0, 38, 100
2, 7003500, Note_off_c, 0, 26, 64
2, 7009000, Note_off_c, 0, 53, 64
2, 7009500, Note_off_c, 0, 50, 64
2, 7010000, Note_off_c, 0, 38, 64
2, 7011500, Note_on_c, 0, 59, 100
2, 7012000, Note_on_c, 0, 50, 100
2, 7012500, Note_off_c, 0, 55, 64
2, 7013000, Note_on_c, 0, 43, 100
2, 7020500, Note_on_c, 0, 62, 100
2, 7021000, Note_off_c, 0, 59, 64
2, 7026500, Note_on_c, 0, 59, 100
2, 7028000, Note_on_c, 0, 67, 100
2, 7028500, Note_off_c, 0, 59, 64
2, 7029000, Note_off_c, 0, 50, 64
2, 7029500, Note_off_c, 0, 52, 64
2, 7030000, Note_on_c, 0, 55, 100
2, 7030500, Note_off_c, 0, 43, 64
2, 7031000, Note_on_c, 0, 40, 100
2, 7036500, Note_on_c, 0, 59, 100
2, 7037000, Note_on_c, 0, 52, 100
2, 7037500, Note_off_c, 0, 40, 64
2, 7039000, Note_on_c, 0, 61, 100
2, 7039500, Note_off_c, 0, 52, 64
2, 7040000, Note_on_c, 0, 57, 100
2, 7040500, Note_on_c, 0, 45, 100
2, 7048000, Note_off_c, 0, 67, 64
2, 7048500, Note_off_c, 0, 61, 64
2, 7054000, Note_on_c, 0, 61, 100
2, 7055500, Note_off_c, 0, 69, 64
2, 7056000, Note_off_c, 0, 61, 64
2, 7056500, Note_on_c, 0, 64, 100
2, 7057000, Note_on_c, 0, 52, 100
2, 7057500, Note_off_c, 0, 57, 64
2, 7058000, Note_off_c, 0, 49, 64
2, 7058500, Note_off_c, 0, 45, 64
2, 7059000, Note_on_c, 0, 37, 100
2, 7064500, Note_on_c, 0, 69, 100
2, 7065000, Note_off_c, 0, 64, 64
2, 7065500, Note_off_c, 0, 52, 64
2, 7066000, Note_on_c, 0, 49, 100
2, 7066500, Note_off_c, 0, 37, 64
2, 7068000, Note_on_c, 0, 65, 100
2, 7068500, Note_off_c, 0, 62, 64
2, 7069000, Note_on_c, 0, 57, 100
2, 7069500, Note_on_c, 0, 50, 100
2, 7070000, Note_on_c, 0, 38, 100
2, 7075500, Note_off_c, 0, 65, 64
2, 7076000, Note_on_c, 0, 62, 100
2, 7076500, Note_off_c, 0, 57, 64
2, 7077000, Note_off_c, 0, 50, 64
2, 7077500, Note_off_c, 0, 38, 64
2, 7079000, Note_off_c, 0, 62, 64
2, 7079500, Note_on_c, 0, 57, 100
2, 7080000, Note_on_c, 0, 53, 100
2, 7080500, Note_off_c, 0, 41, 64
2, 7081000, Note_on_c, 0, 29, 100
2, 7086500, Note_on_c, 0, 62, 100
2, 7087000, Note_off_c, 0, 57, 64
2, 7087500, Note_off_c, 0, 53, 64
2, 7088000, Note_on_c, 0, 41, 100
2, 7088500, Note_off_c, 0, 29, 64
2, 7090000, Note_on_c, 0, 61, 100
2, 7090500, Note_on_c, 0, 57, 100
2, 7091000, Note_on_c, 0, 52, 100
2, 7091500, Note_on_c, 0, 45, 100
2, 7092000, Note_on_c, 0, 33, 100
2, 7093500, Note_off_c, 0, 61, 64
2, 7094000, Note_off_c, 0, 62, 64
2, 7095500, Note_on_c, 0, 62, 100
2, 7096000, Note_on_c, 0, 61, 100
2, 7097500, Note_off_c, 0, 57, 64
2, 7098000, Note_off_c, 0, 52, 64
2, 7098500, Note_off_c, 0, 45, 64
2, 7099000, Note_off_c, 0, 33, 64
2, 7100500, Note_off_c, 0, 61, 64
2, 7101000, Note_off_c, 0, 62, 64
2, 7101500, Note_on_c, 0, 57, 100
2, 7102000, Note_on_c, 0, 53, 100
2, 7102500, Note_on_c, 0, 38, 100
2, 7103000, Note_on_c, 0, 26, 100
2, 7118500, Note_on_c, 0, 62, 100
2, 7119000, Note_on_c, 0, 65, 100
2, 7119500, Note_off_c, 0, 57, 64
2, 7120000, Note_off_c, 0, 53, 64
2, 7120500, Note_off_c, 0, 38, 64
2, 7121000, Note_off_c, 0, 26, 64
2, 7126500, Note_off_c, 0, 65, 64
2, 7128000, Note_on_c, 0, 70, 100
2, 7128500, Note_on_c, 0, 65, 100
2, 7129000, Note_off_c, 0, 62, 64
2, 7129500, Note_on_c, 0, 58, 100
2, 7130000, Note_on_c, 0, 46, 100
2, 7137500, Note_off_c, 0, 70, 64
2, 7138000, Note_off_c, 0, 69, 64
2, 7143500, Note_on_c, 0, 69, 100
2, 7145000, Note_on_c, 0, 70, 100
2, 7145500, Note_off_c, 0, 65, 64
2, 7146000, Note_on_c, 0, 62, 100
2, 7146500, Note_off_c, 0, 58, 64
2, 7147000, Note_off_c, 0, 46, 64
2, 7152500, Note_off_c, 0, 70, 64
2, 7154000, Note_off_c, 0, 62, 64
2, 7154500, Note_on_c, 0, 65, 100
2, 7155000, Note_on_c, 0, 58, 100
2, 7155500, Note_on_c, 0, 57, 100
2, 7156000, Note_on_c, 0, 45, 100
2, 7163500, Note_on_c, 0, 62, 100
2, 7164000, Note_off_c, 0, 65, 64
2, 7169500, Note_on_c, 0, 65, 100
2, 7171000, Note_on_c, 0, 70, 100
2, 7171500, Note_off_c, 0, 65, 64
2, 7172000, Note_off_c, 0, 58, 64
2, 7172500, Note_off_c, 0, 57, 64
2, 7173000, Note_off_c, 0, 45, 64
2, 7178500, Note_off_c, 0, 70, 64
2, 7180000, Note_on_c, 0, 70, 100
2, 7180500, Note_on_c, 0, 67, 100
2, 7181000, Note_off_c, 0, 62, 64
2, 7181500, Note_off_c, 0, 55, 64
2, 7182000, Note_on_c, 0, 43, 100
2, 7189500, Note_off_c, 0, 70, 64
2, 7190000, Note_off_c, 0, 69, 64
2, 7195500, Note_on_c, 0, 69, 100
2, 7197000, Note_on_c, 0, 70, 100
2, 7197500, Note_off_c, 0, 67, 64
2, 7198000, Note_on_c, 0, 62, 100
2, 7198500, Note_on_c, 0, 55, 100
2, 7199000, Note_off_c, 0, 43, 64
2, 7204500, Note_off_c, 0, 70, 64
2, 7206000, Note_off_c, 0, 62, 64
2, 7206500, Note_on_c, 0, 70, 100
2, 7207000, Note_on_c, 0, 65, 100
2, 7207500, Note_on_c, 0, 53, 100
2, 7208000, Note_off_c, 0, 41, 64
2, 7215500, Note_on_c, 0, 62, 100
2, 7216000, Note_off_c, 0, 65, 64
2, 7221500, Note_on_c, 0, 65, 100
2, 7223000, Note_off_c, 0, 70, 64
2, 7223500, Note_off_c, 0, 65, 64
2, 7224000, Note_off_c, 0, 53, 64
2, 7224500, Note_on_c, 0, 41, 100
2, 7230000, Note_on_c, 0, 70, 100
2, 7231500, Note_off_c, 0, 72, 64
2, 7232000, Note_off_c, 0, 70, 64
2, 7232500, Note_on_c, 0, 67, 100
2, 7233000, Note_off_c, 0, 51, 64
2, 7233500, Note_on_c, 0, 39, 100
2, 7241000, Note_on_c, 0, 72, 100
2, 7241500, Note_on_c, 0, 70, 100
2, 7247000, Note_off_c, 0, 70, 64
2, 7248500, Note_off_c, 0, 72, 64
2, 7249000, Note_on_c, 0, 70, 100
2, 7249500, Note_off_c, 0, 67, 64
2, 7250000, Note_on_c, 0, 51, 100
2, 7250500, Note_off_c, 0, 39, 64
2, 7256000, Note_on_c, 0, 72, 100
2, 7257500, Note_on_c, 0, 65, 100
2, 7258000, Note_off_c, 0, 69, 64
2, 7258500, Note_on_c, 0, 53, 100
2, 7259000, Note_off_c, 0, 41, 64
2, 7266500, Note_off_c, 0, 65, 64
2, 7267000, Note_on_c, 0, 69, 100
2, 7272500, Note_off_c, 0, 69, 64
2, 7274000, Note_off_c, 0, 72, 64
2, 7274500, Note_on_c, 0, 69, 100
2, 7275000, Note_on_c, 0, 65, 100
2, 7275500, Note_off_c, 0, 53, 64
2, 7276000, Note_on_c, 0, 41, 100
2, 7281500, Note_on_c, 0, 72, 100
2, 7283000, Note_on_c, 0, 74, 100
2, 7283500, Note_off_c, 0, 70, 64
2, 7284000, Note_off_c, 0, 65, 64
2, 7284500, Note_on_c, 0, 46, 100
2, 7285000, Note_on_c, 0, 34, 100
2, 7292500, Note_off_c, 0, 74, 64
2, 7293000, Note_off_c, 0, 72, 64
2, 7293500, Note_on_c, 0, 70, 100
2, 7294000, Note_off_c, 0, 69, 64
2, 7294500, Note_on_c, 0, 65, 100
2, 7295000, Note_off_c, 0, 63, 64
2, 7300500, Note_on_c, 0, 72, 100
2, 7301000, Note_on_c, 0, 69, 100
2, 7301500, Note_on_c, 0, 63, 100
2, 7303000, Note_on_c, 0, 74, 100
2, 7303500, Note_off_c, 0, 70, 64
2, 7304000, Note_off_c, 0, 65, 64
2, 7304500, Note_off_c, 0, 46, 64
2, 7305000, Note_on_c, 0, 53, 100
2, 7305500, Note_off_c, 0, 34, 64
2, 7306000, Note_off_c, 0, 41, 64
2, 7311500, Note_off_c, 0, 74, 64
2, 7312000, Note_on_c, 0, 70, 100
2, 7312500, Note_on_c, 0, 65, 100
2, 7313000, Note_off_c, 0, 53, 64
2, 7313500, Note_on_c, 0, 41, 100
2, 7315000, Note_off_c, 0, 70, 64
2, 7315500, Note_off_c, 0, 65, 64
2, 7316000, Note_off_c, 0, 62, 64
2, 7316500, Note_on_c, 0, 58, 100
2, 7317000, Note_on_c, 0, 46, 100
2, 7324500, Note_on_c, 0, 62, 100
2, 7325000, Note_on_c, 0, 60, 100
2, 7325500, Note_off_c, 0, 58, 64
2, 7326000, Note_on_c, 0, 57, 100
2, 7326500, Note_off_c, 0, 46, 64
2, 7327000, Note_on_c, 0, 45, 100
2, 7332500, Note_off_c, 0, 60, 64
2, 7333000, Note_off_c, 0, 57, 64
2, 7333500, Note_off_c, 0, 45, 64
2, 7335000, Note_on_c, 0, 70, 100
2, 7335500, Note_on_c, 0, 74, 100
2, 7336000, Note_on_c, 0, 65, 100
2, 7336500, Note_off_c, 0, 62, 64
2, 7337000, Note_on_c, 0, 58, 100
2, 7337500, Note_on_c, 0, 46, 100
2, 7343000, Note_off_c, 0, 65, 64
2, 7343500, Note_on_c, 0, 62, 100
2, 7344000, Note_off_c, 0, 58, 64
2, 7344500, Note_off_c, 0, 46, 64
2, 7346000, Note_on_c, 0, 67, 100
2, 7346500, Note_off_c, 0, 55, 64
2, 7347000, Note_on_c, 0, 52, 100
2, 7347500, Note_on_c, 0, 40, 100
2, 7355000, Note_off_c, 0, 74, 64
2, 7355500, Note_off_c, 0, 67, 64
2, 7361000, Note_on_c, 0, 67, 100
2, 7362500, Note_off_c, 0, 70, 64
2, 7363000, Note_off_c, 0, 67, 64
2, 7363500, Note_on_c, 0, 55, 100
2, 7364000, Note_off_c, 0, 52, 64
2, 7364500, Note_off_c, 0, 40, 64
2, 7372000, Note_on_c, 0, 67, 100
2, 7372500, Note_on_c, 0, 64, 100
2, 7373000, Note_off_c, 0, 48, 64
2, 7373500, Note_on_c, 0, 36, 100
2, 7381000, Note_on_c, 0, 70, 100
2, 7381500, Note_off_c, 0, 64, 64
2, 7387000, Note_on_c, 0, 64, 100
2, 7388500, Note_off_c, 0, 72, 64
2, 7389000, Note_off_c, 0, 67, 64
2, 7389500, Note_off_c, 0, 64, 64
2, 7390000, Note_on_c, 0, 48, 100
2, 7390500, Note_off_c, 0, 36, 64
2, 7398000, Note_on_c, 0, 65, 100
2, 7398500, Note_on_c, 0, 57, 100
2, 7399000, Note_on_c, 0, 50, 100
2, 7399500, Note_on_c, 0, 38, 100
2, 7407000, Note_on_c, 0, 72, 100
2, 7407500, Note_off_c, 0, 65, 64
2, 7413000, Note_on_c, 0, 65, 100
2, 7414500, Note_off_c, 0, 69, 64
2, 7415000, Note_off_c, 0, 65, 64
2, 7415500, Note_off_c, 0, 57, 64
2, 7416000, Note_off_c, 0, 50, 64
2, 7416500, Note_off_c, 0, 38, 64
2, 7424000, Note_on_c, 0, 65, 100
2, 7424500, Note_off_c, 0, 62, 64
2, 7425000, Note_on_c, 0, 46, 100
2, 7425500, Note_on_c, 0, 34, 100
2, 7433000, Note_on_c, 0, 69, 100
2, 7433500, Note_on_c, 0, 62, 100
2, 7439000, Note_off_c, 0, 62, 64
2, 7440500, Note_off_c, 0, 70, 64
2, 7441000, Note_off_c, 0, 65, 64
2, 7441500, Note_on_c, 0, 62, 100
2, 7442000, Note_off_c, 0, 46, 64
2, 7442500, Note_off_c, 0, 34, 64
2, 7450000, Note_on_c, 0, 64, 100
2, 7450500, Note_off_c, 0, 55, 64
2, 7451000, Note_off_c, 0, 48, 64
2, 7451500, Note_on_c, 0, 36, 100
2, 7459000, Note_on_c, 0, 70, 100
2, 7459500, Note_off_c, 0, 64, 64
2, 7465000, Note_on_c, 0, 64, 100
2, 7466500, Note_on_c, 0, 67, 100
2, 7467000, Note_off_c, 0, 64, 64
2, 7467500, Note_on_c, 0, 60, 100
2, 7468000, Note_on_c, 0, 55, 100
2, 7468500, Note_on_c, 0, 52, 100
2, 7469000, Note_on_c, 0, 48, 100
2, 7469500, Note_on_c, 0, 46, 100
2, 7470000, Note_off_c, 0, 36, 64
2, 7470500, Note_on_c, 0, 34, 100
2, 7476000, Note_off_c, 0, 60, 64
2, 7476500, Note_off_c, 0, 52, 64
2, 7477000, Note_off_c, 0, 46, 64
2, 7477500, Note_off_c, 0, 34, 64
2, 7479000, Note_on_c, 0, 60, 100
2, 7479500, Note_on_c, 0, 57, 100
2, 7480000, Note_on_c, 0, 45, 100
2, 7480500, Note_on_c, 0, 33, 100
2, 7488000, Note_off_c, 0, 67, 64
2, 7488500, Note_off_c, 0, 60, 64
2, 7494000, Note_on_c, 0, 60, 100
2, 7495500, Note_off_c, 0, 70, 64
2, 7496000, Note_off_c, 0, 60, 64
2, 7496500, Note_on_c, 0, 64, 100
2, 7497000, Note_off_c, 0, 57, 64
2, 7497500, Note_on_c, 0, 58, 100
2, 7498000, Note_off_c, 0, 45, 64
2, 7498500, Note_on_c, 0, 43, 100
2, 7499000, Note_off_c, 0, 33, 64
2, 7499500, Note_on_c, 0, 31, 100
2, 7505000, Note_on_c, 0, 70, 100
2, 7505500, Note_off_c, 0, 64, 64
2, 7506000, Note_off_c, 0, 58, 64
2, 7506500, Note_off_c, 0, 43, 64
2, 7507000, Note_off_c, 0, 31, 64
2, 7508500, Note_off_c, 0, 69, 64
2, 7509000, Note_on_c, 0, 65, 100
2, 7509500, Note_on_c, 0, 60, 100
2, 7510000, Note_off_c, 0, 41, 64
2, 7510500, Note_on_c, 0, 29, 100
2, 7518000, Note_on_c, 0, 69, 100
2, 7518500, Note_on_c, 0, 67, 100
2, 7519000, Note_off_c, 0, 65, 64
2, 7519500, Note_on_c, 0, 64, 100
2, 7520000, Note_off_c, 0, 60, 64
2, 7520500, Note_on_c, 0, 58, 100
2, 7526000, Note_off_c, 0, 67, 64
2, 7526500, Note_off_c, 0, 64, 64
2, 7527000, Note_off_c, 0, 58, 64
2, 7528500, Note_off_c, 0, 69, 64
2, 7529000, Note_on_c, 0, 65, 100
2, 7529500, Note_on_c, 0, 60, 100
2, 7530000, Note_on_c, 0, 41, 100
2, 7530500, Note_off_c, 0, 48, 64
2, 7531000, Note_on_c, 0, 36, 100
2, 7531500, Note_off_c, 0, 29, 64
2, 7537000, Note_on_c, 0, 69, 100
2, 7537500, Note_off_c, 0, 65, 64
2, 7538000, Note_off_c, 0, 60, 64
2, 7538500, Note_on_c, 0, 48, 100
2, 7539000, Note_off_c, 0, 36, 64
2, 7540500, Note_on_c, 0, 65, 100
2, 7541000, Note_on_c, 0, 60, 100
2, 7541500, Note_on_c, 0, 57, 100
2, 7542000, Note_on_c, 0, 53, 100
2, 7542500, Note_off_c, 0, 41, 64
2, 7550000, Note_off_c, 0, 65, 64
2, 7550500, Note_off_c, 0, 69, 64
2, 7551000, Note_off_c, 0, 57, 64
2, 7551500, Note_off_c, 0, 55, 64
2, 7552000, Note_off_c, 0, 53, 64
2, 7552500, Note_off_c, 0, 51, 64
2, 7553000, Note_on_c, 0, 41, 100
2, 7553500, Note_on_c, 0, 39, 100
2, 7559000, Note_on_c, 0, 69, 100
2, 7559500, Note_on_c, 0, 55, 100
2, 7560000, Note_on_c, 0, 51, 100
2, 7560500, Note_off_c, 0, 39, 64
2, 7562000, Note_off_c, 0, 72, 64
2, 7562500, Note_off_c, 0, 60, 64
2, 7563000, Note_on_c, 0, 65, 100
2, 7563500, Note_on_c, 0, 57, 100
2, 7564000, Note_on_c, 0, 53, 100
2, 7564500, Note_off_c, 0, 41, 64
2, 7570000, Note_on_c, 0, 72, 100
2, 7570500, Note_off_c, 0, 65, 64
2, 7571000, Note_off_c, 0, 57, 64
2, 7571500, Note_off_c, 0, 53, 64
2, 7572000, Note_on_c, 0, 41, 100
2, 7573500, Note_off_c, 0, 77, 64
2, 7574000, Note_on_c, 0, 65, 100
2, 7574500, Note_on_c, 0, 58, 100
2, 7575000, Note_on_c, 0, 50, 100
2, 7575500, Note_on_c, 0, 38, 100
2, 7581000, Note_on_c, 0, 77, 100
2, 7582500, Note_off_c, 0, 70, 64
2, 7588000, Note_on_c, 0, 70, 100
2, 7589500, Note_on_c, 0, 74, 100
2, 7590000, Note_off_c, 0, 65, 64
2, 7590500, Note_off_c, 0, 58, 64
2, 7591000, Note_off_c, 0, 50, 64
2, 7591500, Note_off_c, 0, 38, 64
2, 7599000, Note_on_c, 0, 65, 100
2, 7599500, Note_on_c, 0, 58, 100
2, 7600000, Note_off_c, 0, 55, 64
2, 7600500, Note_on_c, 0, 43, 100
2, 7608000, Note_off_c, 0, 74, 64
2, 7608500, Note_on_c, 0, 67, 100
2, 7614000, Note_off_c, 0, 67, 64
2, 7615500, Note_on_c, 0, 75, 100
2, 7616000, Note_off_c, 0, 65, 64
2, 7616500, Note_off_c, 0, 58, 64
2, 7617000, Note_on_c, 0, 55, 100
2, 7617500, Note_off_c, 0, 43, 64
2, 7625000, Note_off_c, 0, 63, 64
2, 7625500, Note_on_c, 0, 58, 100
2, 7626000, Note_off_c, 0, 48, 64
2, 7626500, Note_on_c, 0, 36, 100
2, 7634000, Note_off_c, 0, 75, 64
2, 7634500, Note_off_c, 0, 69, 64
2, 7640000, Note_on_c, 0, 69, 100
2, 7641500, Note_off_c, 0, 72, 64
2, 7642000, Note_on_c, 0, 63, 100
2, 7642500, Note_off_c, 0, 58, 64
2, 7643000, Note_on_c, 0, 48, 100
2, 7643500, Note_off_c, 0, 36, 64
2, 7651000, Note_on_c, 0, 65, 100
2, 7651500, Note_on_c, 0, 57, 100
2, 7652000, Note_on_c, 0, 53, 100
2, 7652500, Note_off_c, 0, 41, 64
2, 7660000, Note_on_c, 0, 72, 100
2, 7660500, Note_off_c, 0, 65, 64
2, 7666000, Note_on_c, 0, 65, 100
2, 7667500, Note_on_c, 0, 74, 100
2, 7668000, Note_off_c, 0, 65, 64
2, 7668500, Note_off_c, 0, 57, 64
2, 7669000, Note_off_c, 0, 53, 64
2, 7669500, Note_on_c, 0, 41, 100
2, 7677000, Note_on_c, 0, 65, 100
2, 7677500, Note_on_c, 0, 58, 100
2, 7678000, Note_on_c, 0, 46, 100
2, 7678500, Note_on_c, 0, 34, 100
2, 7686000, Note_off_c, 0, 74, 64
2, 7686500, Note_off_c, 0, 65, 64
2, 7687000, Note_off_c, 0, 62, 64
2, 7692500, Note_on_c, 0, 65, 100
2, 7693000, Note_on_c, 0, 62, 100
2, 7694500, Note_off_c, 0, 70, 64
2, 7695000, Note_off_c, 0, 65, 64
2, 7695500, Note_off_c, 0, 58, 64
2, 7696000, Note_off_c, 0, 62, 64
2, 7696500, Note_off_c, 0, 46, 64
2, 7697000, Note_off_c, 0, 34, 64
2, 7702500, Note_on_c, 0, 65, 100
2, 7703000, Note_on_c, 0, 62, 100
2, 7703500, Note_on_c, 0, 58, 100
2, 7704000, Note_on_c, 0, 46, 100
2, 7705500, Note_off_c, 0, 62, 64
2, 7706000, Note_on_c, 0, 53, 100
2, 7706500, Note_off_c, 0, 46, 64
2, 7707000, Note_on_c, 0, 34, 100
2, 7714500, Note_on_c, 0, 70, 100
2, 7715000, Note_on_c, 0, 62, 100
2, 7715500, Note_off_c, 0, 58, 64
2, 7721000, Note_off_c, 0, 62, 64
2, 7721500, Note_on_c, 0, 58, 100
2, 7723000, Note_off_c, 0, 65, 64
2, 7723500, Note_on_c, 0, 62, 100
2, 7724000, Note_off_c, 0, 53, 64
2, 7724500, Note_off_c, 0, 58, 64
2, 7725000, Note_on_c, 0, 46, 100
2, 7725500, Note_off_c, 0, 34, 64
2, 7731000, Note_off_c, 0, 62, 64
2, 7731500, Note_on_c, 0, 58, 100
2, 7732000, Note_off_c, 0, 46, 64
2, 7733500, Note_off_c, 0, 58, 64
2, 7734000, Note_on_c, 0, 50, 100
2, 7734500, Note_on_c, 0, 46, 100
2, 7735000, Note_on_c, 0, 34, 100
2, 7742500, Note_on_c, 0, 65, 100
2, 7743000, Note_on_c, 0, 58, 100
2, 7743500, Note_on_c, 0, 62, 100
2, 7744000, Note_off_c, 0, 50, 64
2, 7744500, Note_on_c, 0, 53, 100
2, 7750000, Note_off_c, 0, 58, 64
2, 7750500, Note_off_c, 0, 62, 64
2, 7751000, Note_off_c, 0, 53, 64
2, 7752500, Note_on_c, 0, 62, 100
2, 7753000, Note_off_c, 0, 65, 64
2, 7753500, Note_on_c, 0, 58, 100
2, 7754000, Note_off_c, 0, 46, 64
2, 7754500, Note_off_c, 0, 34, 64
2, 7760000, Note_off_c, 0, 62, 64
2, 7760500, Note_on_c, 0, 65, 100
2, 7761000, Note_off_c, 0, 58, 64
2, 7761500, Note_on_c, 0, 46, 100
2, 7763000, Note_off_c, 0, 65, 64
2, 7763500, Note_off_c, 0, 70, 64
2, 7764000, Note_on_c, 0, 62, 100
2, 7764500, Note_off_c, 0, 46, 64
2, 7765000, Note_on_c, 0, 34, 100
2, 7770500, Note_on_c, 0, 65, 100
2, 7771000, Note_on_c, 0, 70, 100
2, 7771500, Note_off_c, 0, 62, 64
2, 7773000, Note_on_c, 0, 62, 100
2, 7773500, Note_off_c, 0, 65, 64
2, 7774000, Note_on_c, 0, 58, 100
2, 7779500, Note_off_c, 0, 62, 64
2, 7780000, Note_on_c, 0, 65, 100
2, 7780500, Note_off_c, 0, 58, 64
2, 7782000, Note_off_c, 0, 65, 64
2, 7782500, Note_off_c, 0, 70, 64
2, 7783000, Note_on_c, 0, 62, 100
2, 7783500, Note_on_c, 0, 46, 100
2, 7784000, Note_on_c, 0, 58, 100
2, 7784500, Note_off_c, 0, 34, 64
2, 7790000, Note_on_c, 0, 65, 100
2, 7790500, Note_on_c, 0, 70, 100
2, 7791000, Note_off_c, 0, 62, 64
2, 7791500, Note_off_c, 0, 58, 64
2, 7792000, Note_off_c, 0, 46, 64
2, 7793500, Note_off_c, 0, 70, 64
2, 7794000, Note_on_c, 0, 62, 100
2, 7794500, Note_off_c, 0, 65, 64
2, 7795000, Note_on_c, 0, 46, 100
2, 7795500, Note_on_c, 0, 34, 100
2, 7801000, Note_on_c, 0, 70, 100
2, 7802500, Note_on_c, 0, 65, 100
2, 7808000, Note_off_c, 0, 65, 64
2, 7809500, Note_on_c, 0, 67, 100
2, 7810000, Note_off_c, 0, 62, 64
2, 7810500, Note_on_c, 0, 65, 100
2, 7811000, Note_off_c, 0, 46, 64
2, 7811500, Note_off_c, 0, 34, 64
2, 7819000, Note_off_c, 0, 63, 64
2, 7819500, Note_on_c, 0, 58, 100
2, 7820000, Note_on_c, 0, 46, 100
2, 7827500, Note_off_c, 0, 67, 64
2, 7828000, Note_off_c, 0, 65, 64
2, 7833500, Note_on_c, 0, 65, 100
2, 7835000, Note_off_c, 0, 70, 64
2, 7835500, Note_on_c, 0, 63, 100
2, 7836000, Note_off_c, 0, 58, 64
2, 7836500, Note_off_c, 0, 46, 64
2, 7844000, Note_on_c, 0, 62, 100
2, 7844500, Note_on_c, 0, 53, 100
2, 7845000, Note_on_c, 0, 46, 100
2, 7845500, Note_on_c, 0, 34, 100
2, 7853000, Note_on_c, 0, 70, 100
2, 7853500, Note_off_c, 0, 65, 64
2, 7859000, Note_on_c, 0, 65, 100
2, 7860500, Note_on_c, 0, 67, 100
2, 7861000, Note_off_c, 0, 62, 64
2, 7861500, Note_off_c, 0, 53, 64
2, 7862000, Note_off_c, 0, 46, 64
2, 7862500, Note_off_c, 0, 34, 64
2, 7870000, Note_off_c, 0, 63, 64
2, 7870500, Note_on_c, 0, 58, 100
2, 7871000, Note_on_c, 0, 46, 100
2, 7878500, Note_off_c, 0, 67, 64
2, 7879000, Note_off_c, 0, 65, 64
2, 7884500, Note_on_c, 0, 65, 100
2, 7886000, Note_off_c, 0, 70, 64
2, 7886500, Note_on_c, 0, 63, 100
2, 7887000, Note_on_c, 0, 62, 100
2, 7887500, Note_off_c, 0, 58, 64
2, 7888000, Note_on_c, 0, 53, 100
2, 7888500, Note_off_c, 0, 46, 64
2, 7889000, Note_on_c, 0, 34, 100
2, 7894500, Note_off_c, 0, 62, 64
2, 7895000, Note_off_c, 0, 53, 64
2, 7895500, Note_on_c, 0, 46, 100
2, 7896000, Note_off_c, 0, 34, 64
2, 7897500, Note_off_c, 0, 63, 64
2, 7898000, Note_off_c, 0, 55, 64
2, 7898500, Note_off_c, 0, 51, 64
2, 7899000, Note_on_c, 0, 39, 100
2, 7906500, Note_on_c, 0, 70, 100
2, 7907000, Note_on_c, 0, 67, 100
2, 7912500, Note_off_c, 0, 67, 64
2, 7914000, Note_on_c, 0, 75, 100
2, 7914500, Note_on_c, 0, 63, 100
2, 7915000, Note_on_c, 0, 67, 100
2, 7915500, Note_on_c, 0, 55, 100
2, 7916000, Note_on_c, 0, 60, 100
2, 7916500, Note_on_c, 0, 51, 100
2, 7917000, Note_off_c, 0, 48, 64
2, 7917500, Note_off_c, 0, 39, 64
2, 7918000, Note_on_c, 0, 36, 100
2, 7923500, Note_off_c, 0, 67, 64
2, 7924000, Note_off_c, 0, 60, 64
2, 7924500, Note_on_c, 0, 48, 100
2, 7925000, Note_off_c, 0, 36, 64
2, 7926500, Note_off_c, 0, 65, 64
2, 7927000, Note_on_c, 0, 57, 100
2, 7927500, Note_on_c, 0, 53, 100
2, 7928000, Note_off_c, 0, 41, 64
2, 7935500, Note_off_c, 0, 75, 64
2, 7936000, Note_off_c, 0, 69, 64
2, 7941500, Note_on_c, 0, 69, 100
2, 7943000, Note_off_c, 0, 77, 64
2, 7943500, Note_on_c, 0, 65, 100
2, 7944000, Note_off_c, 0, 72, 64
2, 7944500, Note_off_c, 0, 57, 64
2, 7945000, Note_off_c, 0, 53, 64
2, 7945500, Note_on_c, 0, 45, 100
2, 7946000, Note_on_c, 0, 41, 100
2, 7946500, Note_on_c, 0, 33, 100
2, 7952000, Note_on_c, 0, 72, 100
2, 7952500, Note_on_c, 0, 53, 100
2, 7953000, Note_off_c, 0, 45, 64
2, 7953500, Note_off_c, 0, 33, 64
2, 7955000, Note_on_c, 0, 77, 100
2, 7955500, Note_on_c, 0, 74, 100
2, 7956000, Note_off_c, 0, 70, 64
2, 7956500, Note_off_c, 0, 65, 64
2, 7957000, Note_off_c, 0, 46, 64
2, 7957500, Note_on_c, 0, 34, 100
2, 7963000, Note_off_c, 0, 74, 64
2, 7963500, Note_on_c, 0, 70, 100
2, 7964000, Note_on_c, 0, 65, 100
2, 7964500, Note_on_c, 0, 46, 100
2, 7965000, Note_off_c, 0, 34, 64
2, 7966500, Note_off_c, 0, 70, 64
2, 7967000, Note_off_c, 0, 65, 64
2, 7967500, Note_on_c, 0, 62, 100
2, 7968000, Note_on_c, 0, 50, 100
2, 7968500, Note_on_c, 0, 38, 100
2, 7974000, Note_on_c, 0, 70, 100
2, 7974500, Note_on_c, 0, 65, 100
2, 7975000, Note_off_c, 0, 62, 64
2, 7975500, Note_off_c, 0, 50, 64
2, 7976000, Note_off_c, 0, 38, 64
2, 7977500, Note_off_c, 0, 69, 64
2, 7978000, Note_off_c, 0, 65, 64
2, 7978500, Note_on_c, 0, 60, 100
2, 7979000, Note_off_c, 0, 53, 64
2, 7979500, Note_off_c, 0, 41, 64
2, 7985000, Note_on_c, 0, 69, 100
2, 7985500, Note_on_c, 0, 65, 100
2, 7986000, Note_off_c, 0, 60, 64
2, 7986500, Note_on_c, 0, 53, 100
2, 7987000, Note_on_c, 0, 41, 100
2, 7988500, Note_off_c, 0, 70, 64
2, 7989000, Note_off_c, 0, 65, 64
2, 7989500, Note_on_c, 0, 62, 100
2, 7990000, Note_on_c, 0, 58, 100
2, 7990500, Note_off_c, 0, 46, 64
2, 7996000, Note_off_c, 0, 58, 64
2, 7996500, Note_on_c, 0, 46, 100
2, 7998000, Note_on_c, 0, 50, 100
2, 7998500, Note_on_c, 0, 38, 100
2, 8002000, Note_on_c, 0, 70, 100
2, 8002500, Note_on_c, 0, 65, 100
2, 8004000, Note_off_c, 0, 50, 64
2, 8004500, Note_off_c, 0, 38, 64
2, 8006000, Note_off_c, 0, 65, 64
2, 8006500, Note_on_c, 0, 67, 100
2, 8007000, Note_off_c, 0, 70, 64
2, 8007500, Note_off_c, 0, 62, 64
2, 8008000, Note_off_c, 0, 53, 64
2, 8008500, Note_off_c, 0, 41, 64
2, 8012000, Note_off_c, 0, 67, 64
2, 8012500, Note_off_c, 0, 69, 64
2, 8014000, Note_on_c, 0, 53, 100
2, 8014500, Note_on_c, 0, 41, 100
2, 8016000, Note_on_c, 0, 69, 100
2, 8016500, Note_on_c, 0, 70, 100
2, 8017000, Note_off_c, 0, 46, 64
2, 8017500, Note_on_c, 0, 34, 100
2, 8021000, Note_off_c, 0, 70, 64
2, 8021500, Note_off_c, 0, 69, 64
2, 8025000, Note_on_c, 0, 69, 100
2, 8025500, Note_on_c, 0, 70, 100
2, 8026000, Note_on_c, 0, 46, 100
2, 8026500, Note_on_c, 0, 50, 100
2, 8030000, Note_on_c, 0, 65, 100
2, 8031500, Note_off_c, 0, 70, 64
2, 8032000, Note_off_c, 0, 50, 64
2, 8033500, Note_off_c, 0, 65, 64
2, 8034000, Note_on_c, 0, 67, 100
2, 8034500, Note_off_c, 0, 53, 64
2, 8035000, Note_off_c, 0, 34, 64
2, 8035500, Note_off_c, 0, 46, 64
2, 8039000, Note_off_c, 0, 67, 64
2, 8039500, Note_off_c, 0, 69, 64
2, 8041000, Note_on_c, 0, 53, 100
2, 8042500, Note_on_c, 0, 69, 100
2, 8043000, Note_on_c, 0, 70, 100
2, 8043500, Note_on_c, 0, 45, 100
2, 8047000, Note_off_c, 0, 70, 64
2, 8047500, Note_off_c, 0, 69, 64
2, 8051000, Note_on_c, 0, 69, 100
2, 8051500, Note_on_c, 0, 70, 100
2, 8052000, Note_off_c, 0, 45, 64
2, 8052500, Note_on_c, 0, 50, 100
2, 8056000, Note_on_c, 0, 65, 100
2, 8057500, Note_off_c, 0, 70, 64
2, 8058000, Note_off_c, 0, 50, 64
2, 8059500, Note_off_c, 0, 65, 64
2, 8060000, Note_on_c, 0, 67, 100
2, 8060500, Note_off_c, 0, 53, 64
2, 8064000, Note_off_c, 0, 67, 64
2, 8064500, Note_off_c, 0, 69, 64
2, 8066000, Note_on_c, 0, 53, 100
2, 8067500, Note_on_c, 0, 69, 100
2, 8068000, Note_on_c, 0, 70, 100
2, 8068500, Note_on_c, 0, 43, 100
2, 8072000, Note_off_c, 0, 70, 64
2, 8072500, Note_off_c, 0, 69, 64
2, 8076000, Note_on_c, 0, 69, 100
2, 8076500, Note_on_c, 0, 70, 100
2, 8077000, Note_off_c, 0, 43, 64
2, 8077500, Note_on_c, 0, 46, 100
2, 8081000, Note_on_c, 0, 65, 100
2, 8082500, Note_off_c, 0, 70, 64
2, 8083000, Note_off_c, 0, 46, 64
2, 8084500, Note_off_c, 0, 65, 64
2, 8085000, Note_on_c, 0, 67, 100
2, 8085500, Note_on_c, 0, 50, 100
2, 8089000, Note_off_c, 0, 67, 64
2, 8089500, Note_off_c, 0, 69, 64
2, 8091000, Note_off_c, 0, 50, 64
2, 8092500, Note_on_c, 0, 69, 100
2, 8093000, Note_on_c, 0, 70, 100
2, 8093500, Note_off_c, 0, 41, 64
2, 8097000, Note_off_c, 0, 70, 64
2, 8097500, Note_off_c, 0, 69, 64
2, 8101000, Note_on_c, 0, 69, 100
2, 8101500, Note_on_c, 0, 70, 100
2, 8102000, Note_on_c, 0, 41, 100
2, 8102500, Note_on_c, 0, 46, 100
2, 8106000, Note_on_c, 0, 67, 100
2, 8107500, Note_off_c, 0, 70, 64
2, 8108000, Note_off_c, 0, 46, 64
2, 8109500, Note_off_c, 0, 67, 64
2, 8110000, Note_off_c, 0, 69, 64
2, 8110500, Note_on_c, 0, 50, 100
2, 8114000, Note_on_c, 0, 69, 100
2, 8114500, Note_on_c, 0, 70, 100
2, 8116000, Note_off_c, 0, 50, 64
2, 8117500, Note_off_c, 0, 70, 64
2, 8118000, Note_off_c, 0, 72, 64
2, 8118500, Note_on_c, 0, 39, 100
2, 8122000, Note_on_c, 0, 72, 100
2, 8122500, Note_on_c, 0, 70, 100
2, 8126000, Note_off_c, 0, 70, 64
2, 8126500, Note_off_c, 0, 72, 64
2, 8127000, Note_off_c, 0, 39, 64
2, 8127500, Note_on_c, 0, 43, 100
2, 8131000, Note_on_c, 0, 72, 100
2, 8131500, Note_on_c, 0, 70, 100
2, 8132000, Note_on_c, 0, 67, 100
2, 8133500, Note_off_c, 0, 43, 64
2, 8135000, Note_off_c, 0, 70, 64
2, 8135500, Note_off_c, 0, 69, 64
2, 8136000, Note_off_c, 0, 67, 64
2, 8136500, Note_off_c, 0, 48, 64
2, 8140000, Note_on_c, 0, 69, 100
2, 8140500, Note_on_c, 0, 67, 100
2, 8141000, Note_on_c, 0, 70, 100
2, 8142500, Note_on_c, 0, 48, 100
2, 8144000, Note_off_c, 0, 67, 64
2, 8144500, Note_on_c, 0, 65, 100
2, 8145000, Note_off_c, 0, 70, 64
2, 8145500, Note_off_c, 0, 72, 64
2, 8146000, Note_on_c, 0, 45, 100
2, 8149500, Note_on_c, 0, 72, 100
2, 8150000, Note_on_c, 0, 70, 100
2, 8151500, Note_off_c, 0, 65, 64
2, 8153000, Note_off_c, 0, 69, 64
2, 8153500, Note_off_c, 0, 70, 64
2, 8154000, Note_off_c, 0, 72, 64
2, 8154500, Note_off_c, 0, 45, 64
2, 8155000, Note_off_c, 0, 48, 64
2, 8158500, Note_on_c, 0, 72, 100
2, 8159000, Note_on_c, 0, 70, 100
2, 8160500, Note_on_c, 0, 69, 100
2, 8161000, Note_on_c, 0, 48, 100
2, 8162500, Note_off_c, 0, 72, 64
2, 8163000, Note_off_c, 0, 70, 64
2, 8163500, Note_off_c, 0, 69, 64
2, 8164000, Note_off_c, 0, 41, 64
2, 8167500, Note_on_c, 0, 69, 100
2, 8168000, Note_on_c, 0, 67, 100
2, 8169500, Note_on_c, 0, 72, 100
2, 8170000, Note_on_c, 0, 41, 100
2, 8171500, Note_on_c, 0, 74, 100
2, 8172000, Note_off_c, 0, 67, 64
2, 8172500, Note_on_c, 0, 65, 100
2, 8173000, Note_on_c, 0, 46, 100
2, 8176500, Note_off_c, 0, 74, 64
2, 8177000, Note_off_c, 0, 72, 64
2, 8177500, Note_off_c, 0, 65, 64
2, 8178000, Note_off_c, 0, 63, 64
2, 8181500, Note_on_c, 0, 72, 100
2, 8182000, Note_on_c, 0, 74, 100
2, 8182500, Note_on_c, 0, 63, 100
2, 8183000, Note_on_c, 0, 65, 100
2, 8183500, Note_off_c, 0, 46, 64
2, 8184000, Note_on_c, 0, 50, 100
2, 8187500, Note_off_c, 0, 74, 64
2, 8188000, Note_on_c, 0, 75, 100
2, 8188500, Note_off_c, 0, 65, 64
2, 8189000, Note_on_c, 0, 67, 100
2, 8190500, Note_off_c, 0, 50, 64
2, 8192000, Note_off_c, 0, 75, 64
2, 8192500, Note_on_c, 0, 74, 100
2, 8193000, Note_off_c, 0, 67, 64
2, 8193500, Note_on_c, 0, 65, 100
2, 8194000, Note_off_c, 0, 53, 64
2, 8197500, Note_off_c, 0, 74, 64
2, 8198000, Note_off_c, 0, 72, 64
2, 8198500, Note_off_c, 0, 65, 64
2, 8199000, Note_off_c, 0, 63, 64
2, 8200500, Note_on_c, 0, 53, 100
2, 8202000, Note_on_c, 0, 72, 100
2, 8202500, Note_on_c, 0, 70, 100
2, 8203000, Note_on_c, 0, 63, 100
2, 8203500, Note_on_c, 0, 62, 100
2, 8204000, Note_on_c, 0, 58, 100
2, 8207500, Note_off_c, 0, 62, 64
2, 8208000, Note_on_c, 0, 60, 100
2, 8209500, Note_off_c, 0, 70, 64
2, 8211000, Note_on_c, 0, 65, 100
2, 8211500, Note_off_c, 0, 60, 64
2, 8212000, Note_on_c, 0, 62, 100
2, 8212500, Note_off_c, 0, 58, 64
2, 8213000, Note_on_c, 0, 57, 100
2, 8216500, Note_off_c, 0, 62, 64
2, 8217000, Note_off_c, 0, 63, 64
2, 8218500, Note_off_c, 0, 65, 64
2, 8219000, Note_off_c, 0, 57, 64
2, 8220500, Note_on_c, 0, 74, 100
2, 8221000, Note_on_c, 0, 63, 100
2, 8221500, Note_on_c, 0, 65, 100
2, 8222000, Note_on_c, 0, 58, 100
2, 8225500, Note_off_c, 0, 65, 64
2, 8226000, Note_on_c, 0, 62, 100
2, 8227500, Note_off_c, 0, 58, 64
2, 8229000, Note_off_c, 0, 62, 64
2, 8229500, Note_on_c, 0, 67, 100
2, 8230000, Note_on_c, 0, 52, 100
2, 8233500, Note_off_c, 0, 67, 64
2, 8234000, Note_off_c, 0, 69, 64
2, 8235500, Note_off_c, 0, 52, 64
2, 8237000, Note_off_c, 0, 74, 64
2, 8237500, Note_on_c, 0, 67, 100
2, 8238000, Note_on_c, 0, 69, 100
2, 8238500, Note_on_c, 0, 70, 100
2, 8239000, Note_off_c, 0, 55, 64
2, 8242500, Note_off_c, 0, 70, 64
2, 8243000, Note_off_c, 0, 69, 64
2, 8244500, Note_off_c, 0, 67, 64
2, 8245000, Note_on_c, 0, 55, 100
2, 8246500, Note_on_c, 0, 70, 100
2, 8247000, Note_on_c, 0, 69, 100
2, 8247500, Note_on_c, 0, 67, 100
2, 8248000, Note_on_c, 0, 52, 100
2, 8251500, Note_off_c, 0, 67, 64
2, 8252000, Note_on_c, 0, 65, 100
2, 8253500, Note_off_c, 0, 52, 64
2, 8255000, Note_off_c, 0, 65, 64
2, 8255500, Note_on_c, 0, 64, 100
2, 8256000, Note_off_c, 0, 48, 64
2, 8259500, Note_off_c, 0, 64, 64
2, 8260000, Note_on_c, 0, 62, 100
2, 8261500, Note_on_c, 0, 48, 100
2, 8263000, Note_off_c, 0, 70, 64
2, 8263500, Note_on_c, 0, 64, 100
2, 8264000, Note_off_c, 0, 62, 64
2, 8264500, Note_on_c, 0, 60, 100
2, 8265000, Note_on_c, 0, 57, 100
2, 8268500, Note_off_c, 0, 60, 64
2, 8269000, Note_on_c, 0, 62, 100
2, 8270500, Note_off_c, 0, 64, 64
2, 8271000, Note_off_c, 0, 57, 64
2, 8272500, Note_off_c, 0, 72, 64
2, 8273000, Note_off_c, 0, 62, 64
2, 8273500, Note_on_c, 0, 64, 100
2, 8274000, Note_off_c, 0, 48, 64
2, 8277500, Note_off_c, 0, 64, 64
2, 8278000, Note_on_c, 0, 60, 100
2, 8279500, Note_on_c, 0, 48, 100
2, 8281000, Note_off_c, 0, 60, 64
2, 8281500, Note_on_c, 0, 65, 100
2, 8282000, Note_on_c, 0, 50, 100
2, 8285500, Note_off_c, 0, 65, 64
2, 8286000, Note_on_c, 0, 67, 100
2, 8287500, Note_off_c, 0, 50, 64
2, 8289000, Note_on_c, 0, 72, 100
2, 8289500, Note_on_c, 0, 65, 100
2, 8290000, Note_off_c, 0, 67, 64
2, 8290500, Note_off_c, 0, 69, 64
2, 8291000, Note_off_c, 0, 53, 64
2, 8294500, Note_on_c, 0, 69, 100
2, 8295000, Note_on_c, 0, 67, 100
2, 8296500, Note_off_c, 0, 65, 64
2, 8297000, Note_on_c, 0, 53, 100
2, 8298500, Note_off_c, 0, 69, 64
2, 8299000, Note_off_c, 0, 67, 64
2, 8299500, Note_on_c, 0, 65, 100
2, 8300000, Note_on_c, 0, 50, 100
2, 8303500, Note_off_c, 0, 65, 64
2, 8304000, Note_on_c, 0, 64, 100
2, 8305500, Note_off_c, 0, 50, 64
2, 8307000, Note_off_c, 0, 64, 64
2, 8307500, Note_on_c, 0, 62, 100
2, 8308000, Note_on_c, 0, 46, 100
2, 8311500, Note_off_c, 0, 62, 64
2, 8312000, Note_on_c, 0, 60, 100
2, 8313500, Note_off_c, 0, 46, 64
2, 8315000, Note_on_c, 0, 69, 100
2, 8315500, Note_on_c, 0, 62, 100
2, 8316000, Note_off_c, 0, 60, 64
2, 8316500, Note_on_c, 0, 58, 100
2, 8317000, Note_off_c, 0, 55, 64
2, 8320500, Note_off_c, 0, 58, 64
2, 8321000, Note_on_c, 0, 60, 100
2, 8322500, Note_off_c, 0, 62, 64
2, 8323000, Note_on_c, 0, 55, 100
2, 8324500, Note_on_c, 0, 70, 100
2, 8325000, Note_off_c, 0, 60, 64
2, 8325500, Note_on_c, 0, 62, 100
2, 8326000, Note_on_c, 0, 46, 100
2, 8329500, Note_off_c, 0, 62, 64
2, 8330000, Note_on_c, 0, 58, 100
2, 8331500, Note_off_c, 0, 46, 64
2, 8333000, Note_off_c, 0, 58, 64
2, 8333500, Note_on_c, 0, 64, 100
2, 8334000, Note_off_c, 0, 48, 64
2, 8337500, Note_off_c, 0, 64, 64
2, 8338000, Note_on_c, 0, 65, 100
2, 8341500, Note_off_c, 0, 70, 64
2, 8342000, Note_on_c, 0, 64, 100
2, 8342500, Note_off_c, 0, 65, 64
2, 8343000, Note_on_c, 0, 67, 100
2, 8346500, Note_off_c, 0, 67, 64
2, 8347000, Note_on_c, 0, 65, 100
2, 8348500, Note_off_c, 0, 64, 64
2, 8350000, Note_on_c, 0, 67, 100
2, 8350500, Note_off_c, 0, 65, 64
2, 8351000, Note_on_c, 0, 64, 100
2, 8351500, Note_on_c, 0, 48, 100
2, 8352000, Note_on_c, 0, 46, 100
2, 8355500, Note_off_c, 0, 64, 64
2, 8356000, Note_on_c, 0, 62, 100
2, 8359500, Note_off_c, 0, 62, 64
2, 8360000, Note_on_c, 0, 60, 100
2, 8360500, Note_off_c, 0, 46, 64
2, 8361000, Note_on_c, 0, 45, 100
2, 8364500, Note_off_c, 0, 60, 64
2, 8365000, Note_on_c, 0, 62, 100
2, 8368500, Note_off_c, 0, 67, 64
2, 8369000, Note_on_c, 0, 60, 100
2, 8369500, Note_off_c, 0, 62, 64
2, 8370000, Note_on_c, 0, 64, 100
2, 8373500, Note_off_c, 0, 64, 64
2, 8374000, Note_on_c, 0, 62, 100
2, 8375500, Note_off_c, 0, 60, 64
2, 8377000, Note_on_c, 0, 70, 100
2, 8377500, Note_off_c, 0, 62, 64
2, 8378000, Note_on_c, 0, 60, 100
2, 8378500, Note_off_c, 0, 45, 64
2, 8379000, Note_on_c, 0, 43, 100
2, 8382500, Note_off_c, 0, 60, 64
2, 8383000, Note_on_c, 0, 58, 100
2, 8384500, Note_off_c, 0, 70, 64
2, 8386000, Note_off_c, 0, 69, 64
2, 8386500, Note_off_c, 0, 58, 64
2, 8387000, Note_on_c, 0, 60, 100
2, 8387500, Note_off_c, 0, 43, 64
2, 8388000, Note_off_c, 0, 41, 64
2, 8391500, Note_off_c, 0, 60, 64
2, 8392000, Note_on_c, 0, 65, 100
2, 8395500, Note_on_c, 0, 69, 100
2, 8396000, Note_on_c, 0, 67, 100
2, 8396500, Note_off_c, 0, 65, 64
2, 8397000, Note_on_c, 0, 64, 100
2, 8400500, Note_off_c, 0, 64, 64
2, 8401000, Note_on_c, 0, 62, 100
2, 8402500, Note_off_c, 0, 67, 64
2, 8404000, Note_off_c, 0, 69, 64
2, 8404500, Note_off_c, 0, 62, 64
2, 8405000, Note_on_c, 0, 60, 100
2, 8405500, Note_on_c, 0, 41, 100
2, 8409000, Note_off_c, 0, 60, 64
2, 8409500, Note_on_c, 0, 58, 100
2, 8411000, Note_on_c, 0, 69, 100
2, 8412500, Note_on_c, 0, 65, 100
2, 8413000, Note_off_c, 0, 58, 64
2, 8413500, Note_on_c, 0, 57, 100
2, 8417000, Note_off_c, 0, 57, 64
2, 8417500, Note_on_c, 0, 58, 100
2, 8421000, Note_off_c, 0, 65, 64
2, 8421500, Note_on_c, 0, 57, 100
2, 8422000, Note_off_c, 0, 58, 64
2, 8422500, Note_on_c, 0, 60, 100
2, 8426000, Note_off_c, 0, 60, 64
2, 8426500, Note_on_c, 0, 58, 100
2, 8428000, Note_off_c, 0, 57, 64
2, 8429500, Note_on_c, 0, 60, 100
2, 8430000, Note_off_c, 0, 58, 64
2, 8430500, Note_on_c, 0, 57, 100
2, 8434000, Note_off_c, 0, 57, 64
2, 8434500, Note_off_c, 0, 55, 64
2, 8436000, Note_off_c, 0, 60, 64
2, 8437500, Note_on_c, 0, 65, 100
2, 8438000, Note_on_c, 0, 55, 100
2, 8438500, Note_off_c, 0, 53, 64
2, 8439000, Note_on_c, 0, 60, 100
2, 8439500, Note_on_c, 0, 57, 100
2, 8440000, Note_off_c, 0, 41, 64
2, 8447500, Note_off_c, 0, 65, 64
2, 8448000, Note_on_c, 0, 64, 100
2, 8453500, Note_off_c, 0, 64, 64
2, 8455000, Note_on_c, 0, 65, 100
2, 8455500, Note_on_c, 0, 53, 100
2, 8456000, Note_off_c, 0, 60, 64
2, 8456500, Note_off_c, 0, 57, 64
2, 8457000, Note_on_c, 0, 41, 100
2, 8462500, Note_off_c, 0, 65, 64
2, 8464000, Note_on_c, 0, 57, 100
2, 8464500, Note_on_c, 0, 60, 100
2, 8465000, Note_off_c, 0, 53, 64
2, 8465500, Note_on_c, 0, 52, 100
2, 8466000, Note_on_c, 0, 40, 100
2, 8473500, Note_off_c, 0, 57, 64
2, 8474000, Note_off_c, 0, 60, 64
2, 8479500, Note_on_c, 0, 60, 100
2, 8481000, Note_on_c, 0, 65, 100
2, 8481500, Note_off_c, 0, 60, 64
2, 8482000, Note_on_c, 0, 53, 100
2, 8482500, Note_off_c, 0, 52, 64
2, 8483000, Note_off_c, 0, 40, 64
2, 8488500, Note_off_c, 0, 65, 64
2, 8490000, Note_on_c, 0, 65, 100
2, 8490500, Note_on_c, 0, 62, 100
2, 8491000, Note_on_c, 0, 57, 100
2, 8491500, Note_on_c, 0, 50, 100
2, 8492000, Note_on_c, 0, 38, 100
2, 8499500, Note_off_c, 0, 65, 64
2, 8500000, Note_on_c, 0, 64, 100
2, 8505500, Note_off_c, 0, 64, 64
2, 8507000, Note_on_c, 0, 65, 100
2, 8507500, Note_off_c, 0, 62, 64
2, 8508000, Note_off_c, 0, 57, 64
2, 8508500, Note_off_c, 0, 50, 64
2, 8509000, Note_off_c, 0, 38, 64
2, 8514500, Note_off_c, 0, 65, 64
2, 8516000, Note_on_c, 0, 57, 100
2, 8516500, Note_on_c, 0, 65, 100
2, 8517000, Note_on_c, 0, 60, 100
2, 8517500, Note_off_c, 0, 48, 64
2, 8518000, Note_on_c, 0, 36, 100
2, 8525500, Note_off_c, 0, 57, 64
2, 8526000, Note_off_c, 0, 60, 64
2, 8531500, Note_on_c, 0, 60, 100
2, 8533000, Note_off_c, 0, 65, 64
2, 8533500, Note_off_c, 0, 60, 64
2, 8534000, Note_on_c, 0, 48, 100
2, 8534500, Note_off_c, 0, 36, 64
2, 8540000, Note_on_c, 0, 65, 100
2, 8541500, Note_on_c, 0, 67, 100
2, 8542000, Note_off_c, 0, 65, 64
2, 8542500, Note_on_c, 0, 62, 100
2, 8543000, Note_on_c, 0, 46, 100
2, 8543500, Note_on_c, 0, 34, 100
2, 8551000, Note_off_c, 0, 67, 64
2, 8551500, Note_on_c, 0, 65, 100
2, 8557000, Note_off_c, 0, 65, 64
2, 8558500, Note_on_c, 0, 67, 100
2, 8559000, Note_on_c, 0, 65, 100
2, 8559500, Note_off_c, 0, 62, 64
2, 8560000, Note_off_c, 0, 46, 64
2, 8560500, Note_off_c, 0, 34, 64
2, 8566000, Note_off_c, 0, 67, 64
2, 8567500, Note_on_c, 0, 60, 100
2, 8568000, Note_on_c, 0, 64, 100
2, 8568500, Note_off_c, 0, 48, 64
2, 8569000, Note_on_c, 0, 36, 100
2, 8576500, Note_off_c, 0, 60, 64
2, 8577000, Note_off_c, 0, 64, 64
2, 8582500, Note_on_c, 0, 64, 100
2, 8584000, Note_on_c, 0, 67, 100
2, 8584500, Note_off_c, 0, 64, 64
2, 8585000, Note_on_c, 0, 60, 100
2, 8585500, Note_on_c, 0, 48, 100
2, 8586000, Note_off_c, 0, 36, 64
2, 8591500, Note_off_c, 0, 67, 64
2, 8593000, Note_off_c, 0, 69, 64
2, 8593500, Note_off_c, 0, 65, 64
2, 8594000, Note_off_c, 0, 60, 64
2, 8594500, Note_off_c, 0, 41, 64
2, 8595000, Note_on_c, 0, 29, 100
2, 8602500, Note_on_c, 0, 69, 100
2, 8603000, Note_on_c, 0, 67, 100
2, 8603500, Note_on_c, 0, 65, 100
2, 8604000, Note_on_c, 0, 64, 100
2, 8604500, Note_on_c, 0, 60, 100
2, 8605000, Note_on_c, 0, 58, 100
2, 8610500, Note_off_c, 0, 67, 64
2, 8611000, Note_off_c, 0, 64, 64
2, 8611500, Note_off_c, 0, 58, 64
2, 8613000, Note_off_c, 0, 69, 64
2, 8613500, Note_off_c, 0, 65, 64
2, 8614000, Note_off_c, 0, 60, 64
2, 8619500, Note_on_c, 0, 69, 100
2, 8620000, Note_on_c, 0, 65, 100
2, 8620500, Note_on_c, 0, 60, 100
2, 8622000, Note_off_c, 0, 65, 64
2, 8622500, Note_off_c, 0, 60, 64
2, 8623000, Note_on_c, 0, 57, 100
2, 8628500, Note_on_c, 0, 41, 100
2, 8630000, Note_on_c, 0, 45, 100
2, 8633500, Note_on_c, 0, 65, 100
2, 8634000, Note_on_c, 0, 60, 100
2, 8635500, Note_off_c, 0, 45, 64
2, 8637000, Note_off_c, 0, 65, 64
2, 8637500, Note_off_c, 0, 60, 64
2, 8638000, Note_on_c, 0, 62, 100
2, 8638500, Note_off_c, 0, 57, 64
2, 8639000, Note_off_c, 0, 48, 64
2, 8639500, Note_off_c, 0, 41, 64
2, 8640000, Note_off_c, 0, 29, 64
2, 8643500, Note_off_c, 0, 62, 64
2, 8644000, Note_on_c, 0, 64, 100
2, 8645500, Note_on_c, 0, 48, 100
2, 8647000, Note_off_c, 0, 64, 64
2, 8647500, Note_on_c, 0, 65, 100
2, 8648000, Note_off_c, 0, 53, 64
2, 8651500, Note_off_c, 0, 65, 64
2, 8652000, Note_on_c, 0, 64, 100
2, 8655500, Note_off_c, 0, 64, 64
2, 8656000, Note_on_c, 0, 65, 100
2, 8656500, Note_on_c, 0, 53, 100
2, 8657000, Note_on_c, 0, 57, 100
2, 8660500, Note_on_c, 0, 60, 100
2, 8662000, Note_off_c, 0, 65, 64
2, 8662500, Note_off_c, 0, 57, 64
2, 8664000, Note_off_c, 0, 60, 64
2, 8664500, Note_on_c, 0, 62, 100
2, 8668000, Note_off_c, 0, 62, 64
2, 8668500, Note_on_c, 0, 64, 100
2, 8670000, Note_on_c, 0, 60, 100
2, 8671500, Note_off_c, 0, 64, 64
2, 8672000, Note_on_c, 0, 65, 100
2, 8672500, Note_on_c, 0, 52, 100
2, 8676000, Note_off_c, 0, 65, 64
2, 8676500, Note_on_c, 0, 64, 100
2, 8680000, Note_off_c, 0, 64, 64
2, 8680500, Note_on_c, 0, 65, 100
2, 8681000, Note_off_c, 0, 52, 64
2, 8681500, Note_on_c, 0, 57, 100
2, 8685000, Note_off_c, 0, 60, 64
2, 8686500, Note_off_c, 0, 65, 64
2, 8687000, Note_off_c, 0, 57, 64
2, 8688500, Note_on_c, 0, 60, 100
2, 8689000, Note_on_c, 0, 62, 100
2, 8692500, Note_off_c, 0, 62, 64
2, 8693000, Note_on_c, 0, 64, 100
2, 8694500, Note_off_c, 0, 60, 64
2, 8696000, Note_off_c, 0, 64, 64
2, 8696500, Note_on_c, 0, 65, 100
2, 8697000, Note_on_c, 0, 50, 100
2, 8700500, Note_off_c, 0, 65, 64
2, 8701000, Note_on_c, 0, 64, 100
2, 8704500, Note_off_c, 0, 64, 64
2, 8705000, Note_on_c, 0, 65, 100
2, 8705500, Note_off_c, 0, 50, 64
2, 8706000, Note_off_c, 0, 53, 64
2, 8709500, Note_on_c, 0, 60, 100
2, 8711000, Note_off_c, 0, 65, 64
2, 8711500, Note_on_c, 0, 53, 100
2, 8713000, Note_off_c, 0, 60, 64
2, 8713500, Note_on_c, 0, 62, 100
2, 8714000, Note_on_c, 0, 57, 100
2, 8717500, Note_off_c, 0, 62, 64
2, 8718000, Note_on_c, 0, 64, 100
2, 8719500, Note_off_c, 0, 57, 64
2, 8721000, Note_off_c, 0, 64, 64
2, 8721500, Note_on_c, 0, 65, 100
2, 8722000, Note_off_c, 0, 48, 64
2, 8725500, Note_off_c, 0, 65, 64
2, 8726000, Note_on_c, 0, 64, 100
2, 8729500, Note_off_c, 0, 64, 64
2, 8730000, Note_on_c, 0, 65, 100
2, 8730500, Note_on_c, 0, 48, 100
2, 8731000, Note_off_c, 0, 53, 64
2, 8734500, Note_on_c, 0, 62, 100
2, 8736000, Note_off_c, 0, 65, 64
2, 8736500, Note_on_c, 0, 53, 100
2, 8738000, Note_off_c, 0, 62, 64
2, 8738500, Note_on_c, 0, 64, 100
2, 8739000, Note_on_c, 0, 57, 100
2, 8742500, Note_off_c, 0, 64, 64
2, 8743000, Note_on_c, 0, 65, 100
2, 8744500, Note_off_c, 0, 57, 64
2, 8746000, Note_off_c, 0, 65, 64
2, 8746500, Note_on_c, 0, 67, 100
2, 8747000, Note_on_c, 0, 46, 100
2, 8750500, Note_off_c, 0, 67, 64
2, 8751000, Note_on_c, 0, 65, 100
2, 8754500, Note_off_c, 0, 65, 64
2, 8755000, Note_on_c, 0, 67, 100
2, 8755500, Note_off_c, 0, 46, 64
2, 8756000, Note_on_c, 0, 50, 100
2, 8759500, Note_on_c, 0, 62, 100
2, 8760000, Note_off_c, 0, 67, 64
2, 8760500, Note_on_c, 0, 65, 100
2, 8762000, Note_off_c, 0, 50, 64
2, 8763500, Note_off_c, 0, 62, 64
2, 8764000, Note_on_c, 0, 64, 100
2, 8764500, Note_off_c, 0, 65, 64
2, 8765000, Note_off_c, 0, 55, 64
2, 8768500, Note_off_c, 0, 64, 64
2, 8769000, Note_on_c, 0, 65, 100
2, 8769500, Note_on_c, 0, 62, 100
2, 8771000, Note_on_c, 0, 55, 100
2, 8772500, Note_off_c, 0, 65, 64
2, 8773000, Note_on_c, 0, 67, 100
2, 8773500, Note_off_c, 0, 62, 64
2, 8774000, Note_on_c, 0, 60, 100
2, 8774500, Note_on_c, 0, 52, 100
2, 8778000, Note_off_c, 0, 67, 64
2, 8778500, Note_on_c, 0, 65, 100
2, 8780000, Note_off_c, 0, 60, 64
2, 8781500, Note_off_c, 0, 65, 64
2, 8782000, Note_on_c, 0, 67, 100
2, 8782500, Note_on_c, 0, 64, 100
2, 8783000, Note_off_c, 0, 52, 64
2, 8783500, Note_off_c, 0, 55, 64
2, 8787000, Note_off_c, 0, 67, 64
2, 8787500, Note_on_c, 0, 65, 100
2, 8789000, Note_off_c, 0, 64, 64
2, 8789500, Note_on_c, 0, 55, 100
2, 8791000, Note_off_c, 0, 65, 64
2, 8791500, Note_on_c, 0, 64, 100
2, 8792000, Note_on_c, 0, 67, 100
2, 8792500, Note_off_c, 0, 48, 64
2, 8796000, Note_off_c, 0, 64, 64
2, 8796500, Note_on_c, 0, 62, 100
2, 8798000, Note_off_c, 0, 67, 64
2, 8798500, Note_on_c, 0, 48, 100
2, 8800000, Note_off_c, 0, 62, 64
2, 8800500, Note_on_c, 0, 60, 100
2, 8801000, Note_off_c, 0, 69, 64
2, 8801500, Note_on_c, 0, 41, 100
2, 8805000, Note_off_c, 0, 60, 64
2, 8805500, Note_on_c, 0, 58, 100
2, 8806000, Note_on_c, 0, 69, 100
2, 8806500, Note_on_c, 0, 67, 100
2, 8810000, Note_off_c, 0, 58, 64
2, 8810500, Note_on_c, 0, 60, 100
2, 8811000, Note_off_c, 0, 67, 64
2, 8811500, Note_off_c, 0, 69, 64
2, 8812000, Note_off_c, 0, 41, 64
2, 8812500, Note_on_c, 0, 45, 100
2, 8816000, Note_off_c, 0, 60, 64
2, 8816500, Note_on_c, 0, 62, 100
2, 8817000, Note_on_c, 0, 69, 100
2, 8817500, Note_on_c, 0, 70, 100
2, 8819000, Note_off_c, 0, 45, 64
2, 8820500, Note_off_c, 0, 62, 64
2, 8821000, Note_on_c, 0, 60, 100
2, 8821500, Note_off_c, 0, 70, 64
2, 8822000, Note_off_c, 0, 69, 64
2, 8822500, Note_off_c, 0, 48, 64
2, 8826000, Note_off_c, 0, 60, 64
2, 8826500, Note_on_c, 0, 58, 100
2, 8827000, Note_on_c, 0, 69, 100
2, 8827500, Note_on_c, 0, 67, 100
2, 8829000, Note_on_c, 0, 48, 100
2, 8830500, Note_off_c, 0, 58, 64
2, 8831000, Note_on_c, 0, 57, 100
2, 8831500, Note_off_c, 0, 67, 64
2, 8832000, Note_on_c, 0, 65, 100
2, 8832500, Note_off_c, 0, 53, 64
2, 8836000, Note_off_c, 0, 57, 64
2, 8836500, Note_off_c, 0, 55, 64
2, 8838000, Note_off_c, 0, 65, 64
2, 8839500, Note_on_c, 0, 55, 100
2, 8840000, Note_on_c, 0, 57, 100
2, 8840500, Note_on_c, 0, 60, 100
2, 8841000, Note_on_c, 0, 53, 100
2, 8841500, Note_on_c, 0, 52, 100
2, 8845000, Note_off_c, 0, 57, 64
2, 8845500, Note_on_c, 0, 58, 100
2, 8847000, Note_off_c, 0, 60, 64
2, 8847500, Note_off_c, 0, 52, 64
2, 8849000, Note_off_c, 0, 58, 64
2, 8849500, Note_on_c, 0, 60, 100
2, 8850000, Note_off_c, 0, 69, 64
2, 8850500, Note_off_c, 0, 53, 64
2, 8854000, Note_off_c, 0, 60, 64
2, 8854500, Note_on_c, 0, 57, 100
2, 8856000, Note_on_c, 0, 53, 100
2, 8857500, Note_off_c, 0, 57, 64
2, 8858000, Note_on_c, 0, 62, 100
2, 8858500, Note_on_c, 0, 47, 100
2, 8862000, Note_off_c, 0, 62, 64
2, 8862500, Note_on_c, 0, 64, 100
2, 8864000, Note_off_c, 0, 47, 64
2, 8865500, Note_off_c, 0, 64, 64
2, 8866000, Note_on_c, 0, 65, 100
2, 8866500, Note_on_c, 0, 69, 100
2, 8867000, Note_on_c, 0, 62, 100
2, 8867500, Note_on_c, 0, 50, 100
2, 8871000, Note_off_c, 0, 65, 64
2, 8871500, Note_on_c, 0, 64, 100
2, 8873000, Note_off_c, 0, 62, 64
2, 8873500, Note_off_c, 0, 50, 64
2, 8875000, Note_off_c, 0, 64, 64
2, 8875500, Note_on_c, 0, 62, 100
2, 8876000, Note_on_c, 0, 65, 100
2, 8876500, Note_on_c, 0, 47, 100
2, 8880000, Note_off_c, 0, 62, 64
2, 8880500, Note_on_c, 0, 60, 100
2, 8882000, Note_off_c, 0, 47, 64
2, 8883500, Note_off_c, 0, 60, 64
2, 8884000, Note_off_c, 0, 59, 64
2, 8884500, Note_on_c, 0, 43, 100
2, 8888000, Note_on_c, 0, 59, 100
2, 8888500, Note_on_c, 0, 57, 100
2, 8890000, Note_off_c, 0, 43, 64
2, 8891500, Note_off_c, 0, 57, 64
2, 8892000, Note_off_c, 0, 55, 64
2, 8892500, Note_off_c, 0, 65, 64
2, 8893000, Note_off_c, 0, 59, 64
2, 8893500, Note_on_c, 0, 52, 100
2, 8897000, Note_on_c, 0, 55, 100
2, 8897500, Note_on_c, 0, 57, 100
2, 8899000, Note_on_c, 0, 59, 100
2, 8899500, Note_off_c, 0, 52, 64
2, 8901000, Note_off_c, 0, 57, 64
2, 8901500, Note_off_c, 0, 59, 64
2, 8902000, Note_on_c, 0, 67, 100
2, 8902500, Note_on_c, 0, 43, 100
2, 8906000, Note_on_c, 0, 59, 100
2, 8906500, Note_off_c, 0, 55, 64
2, 8908000, Note_off_c, 0, 43, 64
2, 8909500, Note_on_c, 0, 55, 100
2, 8910000, Note_on_c, 0, 60, 100
2, 8910500, Note_on_c, 0, 45, 100
2, 8914000, Note_off_c, 0, 60, 64
2, 8914500, Note_on_c, 0, 62, 100
2, 8916000, Note_off_c, 0, 45, 64
2, 8917500, Note_off_c, 0, 62, 64
2, 8918000, Note_on_c, 0, 64, 100
2, 8918500, Note_off_c, 0, 67, 64
2, 8919000, Note_on_c, 0, 60, 100
2, 8919500, Note_off_c, 0, 48, 64
2, 8923000, Note_off_c, 0, 64, 64
2, 8923500, Note_on_c, 0, 62, 100
2, 8925000, Note_off_c, 0, 60, 64
2, 8925500, Note_on_c, 0, 48, 100
2, 8927000, Note_off_c, 0, 62, 64
2, 8927500, Note_on_c, 0, 60, 100
2, 8928000, Note_on_c, 0, 64, 100
2, 8928500, Note_on_c, 0, 45, 100
2, 8932000, Note_off_c, 0, 60, 64
2, 8932500, Note_off_c, 0, 59, 64
2, 8934000, Note_off_c, 0, 45, 64
2, 8935500, Note_on_c, 0, 59, 100
2, 8936000, Note_on_c, 0, 57, 100
2, 8936500, Note_on_c, 0, 41, 100
2, 8940000, Note_off_c, 0, 57, 64
2, 8940500, Note_off_c, 0, 55, 64
2, 8942000, Note_off_c, 0, 41, 64
2, 8943500, Note_on_c, 0, 55, 100
2, 8944000, Note_off_c, 0, 53, 64
2, 8944500, Note_off_c, 0, 64, 64
2, 8945000, Note_on_c, 0, 57, 100
2, 8945500, Note_on_c, 0, 50, 100
2, 8949000, Note_on_c, 0, 53, 100
2, 8949500, Note_off_c, 0, 55, 64
2, 8951000, Note_off_c, 0, 57, 64
2, 8951500, Note_off_c, 0, 50, 64
2, 8953000, Note_on_c, 0, 55, 100
2, 8953500, Note_on_c, 0, 57, 100
2, 8954000, Note_on_c, 0, 65, 100
2, 8954500, Note_on_c, 0, 41, 100
2, 8958000, Note_off_c, 0, 57, 64
2, 8958500, Note_off_c, 0, 53, 64
2, 8960000, Note_off_c, 0, 41, 64
2, 8961500, Note_on_c, 0, 53, 100
2, 8962000, Note_off_c, 0, 59, 64
2, 8962500, Note_on_c, 0, 43, 100
2, 8966000, Note_on_c, 0, 59, 100
2, 8966500, Note_on_c, 0, 60, 100
2, 8970000, Note_off_c, 0, 60, 64
2, 8970500, Note_on_c, 0, 62, 100
2, 8971000, Note_off_c, 0, 65, 64
2, 8971500, Note_off_c, 0, 59, 64
2, 8975000, Note_off_c, 0, 62, 64
2, 8975500, Note_on_c, 0, 60, 100
2, 8977000, Note_on_c, 0, 59, 100
2, 8978500, Note_off_c, 0, 60, 64
2, 8979000, Note_off_c, 0, 59, 64
2, 8979500, Note_on_c, 0, 62, 100
2, 8980000, Note_off_c, 0, 43, 64
2, 8980500, Note_on_c, 0, 41, 100
2, 8984000, Note_on_c, 0, 59, 100
2, 8984500, Note_on_c, 0, 57, 100
2, 8988000, Note_off_c, 0, 57, 64
2, 8988500, Note_off_c, 0, 55, 64
2, 8989000, Note_off_c, 0, 41, 64
2, 8989500, Note_on_c, 0, 40, 100
2, 8993000, Note_on_c, 0, 55, 100
2, 8993500, Note_on_c, 0, 57, 100
2, 8997000, Note_off_c, 0, 57, 64
2, 8997500, Note_off_c, 0, 59, 64
2, 8998000, Note_off_c, 0, 62, 64
2, 8998500, Note_off_c, 0, 55, 64
2, 9002000, Note_on_c, 0, 59, 100
2, 9002500, Note_on_c, 0, 57, 100
2, 9004000, Note_on_c, 0, 55, 100
2, 9005500, Note_off_c, 0, 57, 64
2, 9006000, Note_off_c, 0, 55, 64
2, 9006500, Note_on_c, 0, 65, 100
2, 9007000, Note_off_c, 0, 40, 64
2, 9007500, Note_on_c, 0, 38, 100
2, 9011000, Note_on_c, 0, 55, 100
2, 9011500, Note_off_c, 0, 53, 64
2, 9013000, Note_off_c, 0, 65, 64
2, 9014500, Note_on_c, 0, 53, 100
2, 9015000, Note_off_c, 0, 55, 64
2, 9015500, Note_on_c, 0, 64, 100
2, 9016000, Note_off_c, 0, 38, 64
2, 9016500, Note_on_c, 0, 36, 100
2, 9020000, Note_on_c, 0, 55, 100
2, 9020500, Note_on_c, 0, 60, 100
2, 9024000, Note_off_c, 0, 60, 64
2, 9024500, Note_off_c, 0, 59, 64
2, 9025000, Note_off_c, 0, 64, 64
2, 9025500, Note_on_c, 0, 62, 100
2, 9029000, Note_on_c, 0, 59, 100
2, 9029500, Note_on_c, 0, 57, 100
2, 9031000, Note_off_c, 0, 62, 64
2, 9032500, Note_off_c, 0, 57, 64
2, 9033000, Note_off_c, 0, 55, 64
2, 9033500, Note_on_c, 0, 64, 100
2, 9034000, Note_off_c, 0, 36, 64
2, 9037500, Note_on_c, 0, 55, 100
2, 9038000, Note_off_c, 0, 53, 64
2, 9039500, Note_off_c, 0, 64, 64
2, 9041000, Note_on_c, 0, 53, 100
2, 9041500, Note_on_c, 0, 52, 100
2, 9042000, Note_on_c, 0, 60, 100
2, 9045500, Note_off_c, 0, 52, 64
2, 9046000, Note_off_c, 0, 53, 64
2, 9049500, Note_on_c, 0, 53, 100
2, 9050000, Note_off_c, 0, 55, 64
2, 9050500, Note_off_c, 0, 60, 64
2, 9051000, Note_on_c, 0, 64, 100
2, 9054500, Note_on_c, 0, 55, 100
2, 9055000, Note_off_c, 0, 53, 64
2, 9056500, Note_off_c, 0, 64, 64
2, 9058000, Note_on_c, 0, 53, 100
2, 9058500, Note_on_c, 0, 52, 100
2, 9059000, Note_on_c, 0, 67, 100
2, 9062500, Note_off_c, 0, 52, 64
2, 9063000, Note_on_c, 0, 50, 100
2, 9064500, Note_off_c, 0, 67, 64
2, 9066000, Note_off_c, 0, 50, 64
2, 9066500, Note_off_c, 0, 48, 64
2, 9067000, Note_off_c, 0, 72, 64
2, 9067500, Note_on_c, 0, 65, 100
2, 9068000, Note_on_c, 0, 60, 100
2, 9068500, Note_on_c, 0, 45, 100
2, 9069000, Note_on_c, 0, 33, 100
2, 9074500, Note_on_c, 0, 48, 100
2, 9075000, Note_on_c, 0, 72, 100
2, 9076500, Note_off_c, 0, 60, 64
2, 9077000, Note_off_c, 0, 65, 64
2, 9082500, Note_on_c, 0, 60, 100
2, 9083000, Note_on_c, 0, 65, 100
2, 9084500, Note_off_c, 0, 69, 64
2, 9085000, Note_off_c, 0, 65, 64
2, 9085500, Note_off_c, 0, 60, 64
2, 9086000, Note_off_c, 0, 45, 64
2, 9086500, Note_off_c, 0, 33, 64
2, 9094000, Note_on_c, 0, 65, 100
2, 9094500, Note_on_c, 0, 60, 100
2, 9095000, Note_on_c, 0, 50, 100
2, 9095500, Note_on_c, 0, 38, 100
2, 9103000, Note_on_c, 0, 69, 100
2, 9103500, Note_on_c, 0, 62, 100
2, 9109000, Note_off_c, 0, 62, 64
2, 9110500, Note_on_c, 0, 70, 100
2, 9111000, Note_off_c, 0, 65, 64
2, 9111500, Note_off_c, 0, 60, 64
2, 9112000, Note_off_c, 0, 50, 64
2, 9112500, Note_off_c, 0, 38, 64
2, 9120000, Note_on_c, 0, 65, 100
2, 9120500, Note_on_c, 0, 58, 100
2, 9121000, Note_on_c, 0, 43, 100
2, 9121500, Note_on_c, 0, 31, 100
2, 9129000, Note_off_c, 0, 70, 64
2, 9129500, Note_on_c, 0, 64, 100
2, 9135000, Note_off_c, 0, 64, 64
2, 9136500, Note_on_c, 0, 67, 100
2, 9137000, Note_off_c, 0, 65, 64
2, 9137500, Note_off_c, 0, 58, 64
2, 9138000, Note_off_c, 0, 43, 64
2, 9138500, Note_off_c, 0, 31, 64
2, 9146000, Note_on_c, 0, 64, 100
2, 9146500, Note_on_c, 0, 60, 100
2, 9147000, Note_off_c, 0, 48, 64
2, 9147500, Note_on_c, 0, 36, 100
2, 9155000, Note_off_c, 0, 67, 64
2, 9155500, Note_off_c, 0, 60, 64
2, 9161000, Note_on_c, 0, 60, 100
2, 9162500, Note_off_c, 0, 69, 64
2, 9163000, Note_off_c, 0, 64, 64
2, 9163500, Note_off_c, 0, 60, 64
2, 9164000, Note_on_c, 0, 48, 100
2, 9164500, Note_off_c, 0, 36, 64
2, 9172000, Note_on_c, 0, 65, 100
2, 9172500, Note_on_c, 0, 60, 100
2, 9173000, Note_on_c, 0, 41, 100
2, 9173500, Note_on_c, 0, 29, 100
2, 9177000, Note_on_c, 0, 69, 100
2, 9177500, Note_off_c, 0, 65, 64
2, 9181000, Note_off_c, 0, 69, 64
2, 9181500, Note_off_c, 0, 60, 64
2, 9182000, Note_on_c, 0, 65, 100
2, 9182500, Note_on_c, 0, 64, 100
2, 9186000, Note_off_c, 0, 64, 64
2, 9186500, Note_on_c, 0, 62, 100
2, 9188000, Note_on_c, 0, 60, 100
2, 9189500, Note_off_c, 0, 65, 64
2, 9190000, Note_off_c, 0, 62, 64
2, 9190500, Note_off_c, 0, 60, 64
2, 9191000, Note_off_c, 0, 41, 64
2, 9191500, Note_off_c, 0, 53, 64
2, 9192000, Note_off_c, 0, 29, 64
2, 9195500, Note_on_c, 0, 60, 100
2, 9196000, Note_on_c, 0, 58, 100
2, 9197500, Note_on_c, 0, 53, 100
2, 9199000, Note_off_c, 0, 58, 64
2, 9199500, Note_on_c, 0, 57, 100
2, 9200000, Note_on_c, 0, 41, 100
2, 9203500, Note_off_c, 0, 57, 64
2, 9204000, Note_on_c, 0, 62, 100
2, 9207500, Note_on_c, 0, 65, 100
2, 9208000, Note_on_c, 0, 57, 100
2, 9208500, Note_off_c, 0, 62, 64
2, 9209000, Note_off_c, 0, 60, 64
2, 9212500, Note_on_c, 0, 60, 100
2, 9213000, Note_on_c, 0, 58, 100
2, 9214500, Note_off_c, 0, 57, 64
2, 9216000, Note_off_c, 0, 60, 64
2, 9216500, Note_off_c, 0, 58, 64
2, 9217000, Note_on_c, 0, 57, 100
2, 9217500, Note_off_c, 0, 41, 64
2, 9218000, Note_off_c, 0, 53, 64
2, 9221500, Note_off_c, 0, 57, 64
2, 9222000, Note_off_c, 0, 55, 64
2, 9223500, Note_on_c, 0, 53, 100
2, 9225000, Note_on_c, 0, 55, 100
2, 9225500, Note_off_c, 0, 53, 64
2, 9226000, Note_on_c, 0, 41, 100
2, 9229500, Note_on_c, 0, 53, 100
2, 9230000, Note_off_c, 0, 48, 64
2, 9233500, Note_on_c, 0, 60, 100
2, 9234000, Note_off_c, 0, 53, 64
2, 9234500, Note_on_c, 0, 48, 100
2, 9235000, Note_on_c, 0, 50, 100
2, 9238500, Note_off_c, 0, 50, 64
2, 9239000, Note_on_c, 0, 52, 100
2, 9240500, Note_on_c, 0, 53, 100
2, 9242000, Note_on_c, 0, 57, 100
2, 9242500, Note_off_c, 0, 52, 64
2, 9243000, Note_off_c, 0, 53, 64
2, 9243500, Note_off_c, 0, 41, 64
2, 9247000, Note_on_c, 0, 53, 100
2, 9247500, Note_off_c, 0, 55, 64
2, 9249000, Note_off_c, 0, 57, 64
2, 9249500, Note_off_c, 0, 53, 64
2, 9251000, Note_off_c, 0, 60, 64
2, 9251500, Note_on_c, 0, 55, 100
2, 9252000, Note_on_c, 0, 57, 100
2, 9252500, Note_on_c, 0, 41, 100
2, 9256000, Note_off_c, 0, 57, 64
2, 9256500, Note_off_c, 0, 55, 64
2, 9258000, Note_on_c, 0, 60, 100
2, 9259500, Note_on_c, 0, 57, 100
2, 9260000, Note_on_c, 0, 55, 100
2, 9260500, Note_on_c, 0, 53, 100
2, 9264000, Note_off_c, 0, 53, 64
2, 9264500, Note_off_c, 0, 55, 64
2, 9266000, Note_off_c, 0, 57, 64
2, 9267500, Note_off_c, 0, 60, 64
2, 9268000, Note_on_c, 0, 55, 100
2, 9268500, Note_on_c, 0, 57, 100
2, 9269000, Note_off_c, 0, 41, 64
2, 9269500, Note_on_c, 0, 53, 100
2, 9273000, Note_off_c, 0, 57, 64
2, 9273500, Note_on_c, 0, 58, 100
2, 9275000, Note_on_c, 0, 60, 100
2, 9275500, Note_off_c, 0, 53, 64
2, 9277000, Note_off_c, 0, 65, 64
2, 9277500, Note_off_c, 0, 58, 64
2, 9278000, Note_off_c, 0, 60, 64
2, 9278500, Note_on_c, 0, 57, 100
2, 9279000, Note_on_c, 0, 41, 100
2, 9279500, Note_on_c, 0, 29, 100
2, 9285000, Note_on_c, 0, 65, 100
2, 9285500, Note_on_c, 0, 60, 100
2, 9287000, Note_off_c, 0, 60, 64
2, 9287500, Note_on_c, 0, 53, 100
2, 9293000, Note_on_c, 0, 60, 100
2, 9293500, Note_off_c, 0, 53, 64
2, 9295000, Note_on_c, 0, 62, 100
2, 9295500, Note_off_c, 0, 57, 64
2, 9296000, Note_off_c, 0, 60, 64
2, 9296500, Note_off_c, 0, 41, 64
2, 9297000, Note_off_c, 0, 29, 64
2, 9304500, Note_on_c, 0, 58, 100
2, 9305000, Note_on_c, 0, 53, 100
2, 9305500, Note_on_c, 0, 41, 100
2, 9313000, Note_off_c, 0, 62, 64
2, 9313500, Note_on_c, 0, 60, 100
2, 9317000, Note_off_c, 0, 60, 64
2, 9317500, Note_off_c, 0, 58, 64
2, 9319000, Note_on_c, 0, 60, 100
2, 9320500, Note_on_c, 0, 58, 100
2, 9321000, Note_on_c, 0, 57, 100
2, 9321500, Note_off_c, 0, 65, 64
2, 9322000, Note_off_c, 0, 53, 64
2, 9322500, Note_off_c, 0, 41, 64
2, 9326000, Note_off_c, 0, 57, 64
2, 9326500, Note_off_c, 0, 55, 64
2, 9330000, Note_on_c, 0, 55, 100
2, 9330500, Note_on_c, 0, 57, 100
2, 9331000, Note_on_c, 0, 41, 100
2, 9334500, Note_off_c, 0, 57, 64
2, 9335000, Note_off_c, 0, 58, 64
2, 9338500, Note_on_c, 0, 58, 100
2, 9339000, Note_off_c, 0, 60, 64
2, 9339500, Note_on_c, 0, 65, 100
2, 9343000, Note_on_c, 0, 60, 100
2, 9343500, Note_off_c, 0, 58, 64
2, 9345000, Note_off_c, 0, 60, 64
2, 9346500, Note_on_c, 0, 58, 100
2, 9347000, Note_on_c, 0, 57, 100
2, 9347500, Note_on_c, 0, 62, 100
2, 9348000, Note_off_c, 0, 41, 64
2, 9351500, Note_off_c, 0, 57, 64
2, 9352000, Note_off_c, 0, 55, 64
2, 9355500, Note_on_c, 0, 55, 100
2, 9356000, Note_on_c, 0, 53, 100
2, 9359500, Note_off_c, 0, 53, 64
2, 9360000, Note_off_c, 0, 55, 64
2, 9363500, Note_on_c, 0, 55, 100
2, 9364000, Note_on_c, 0, 57, 100
2, 9364500, Note_off_c, 0, 62, 64
2, 9365000, Note_on_c, 0, 60, 100
2, 9368500, Note_off_c, 0, 57, 64
2, 9369000, Note_off_c, 0, 55, 64
2, 9370500, Note_off_c, 0, 60, 64
2, 9372000, Note_on_c, 0, 55, 100
2, 9372500, Note_on_c, 0, 53, 100
2, 9373000, Note_off_c, 0, 65, 64
2, 9373500, Note_on_c, 0, 60, 100
2, 9374000, Note_on_c, 0, 57, 100
2, 9374500, Note_on_c, 0, 41, 100
2, 9375000, Note_on_c, 0, 29, 100
2, 9378500, Note_off_c, 0, 53, 64
2, 9379000, Note_on_c, 0, 52, 100
2, 9380500, Note_off_c, 0, 41, 64
2, 9381000, Note_off_c, 0, 29, 64
2, 9382500, Note_off_c, 0, 52, 64
2, 9383000, Note_on_c, 0, 50, 100
2, 9383500, Note_off_c, 0, 60, 64
2, 9384000, Note_on_c, 0, 62, 100
2, 9384500, Note_off_c, 0, 57, 64
2, 9385000, Note_off_c, 0, 58, 64
2, 9385500, Note_on_c, 0, 46, 100
2, 9386000, Note_on_c, 0, 34, 100
2, 9393500, Note_off_c, 0, 50, 64
2, 9394000, Note_off_c, 0, 62, 64
2, 9394500, Note_on_c, 0, 65, 100
2, 9400000, Note_on_c, 0, 62, 100
2, 9401500, Note_on_c, 0, 70, 100
2, 9402000, Note_off_c, 0, 62, 64
2, 9402500, Note_on_c, 0, 67, 100
2, 9403000, Note_on_c, 0, 58, 100
2, 9403500, Note_off_c, 0, 46, 64
2, 9404000, Note_on_c, 0, 43, 100
2, 9404500, Note_off_c, 0, 34, 64
2, 9405000, Note_on_c, 0, 31, 100
2, 9410500, Note_off_c, 0, 67, 64
2, 9411000, Note_on_c, 0, 62, 100
2, 9411500, Note_off_c, 0, 43, 64
2, 9412000, Note_off_c, 0, 31, 64
2, 9413500, Note_off_c, 0, 55, 64
2, 9414000, Note_on_c, 0, 64, 100
2, 9414500, Note_off_c, 0, 48, 64
2, 9415000, Note_on_c, 0, 36, 100
2, 9422500, Note_off_c, 0, 70, 64
2, 9423000, Note_off_c, 0, 64, 64
2, 9428500, Note_on_c, 0, 64, 100
2, 9430000, Note_off_c, 0, 72, 64
2, 9430500, Note_on_c, 0, 55, 100
2, 9431000, Note_on_c, 0, 67, 100
2, 9431500, Note_off_c, 0, 64, 64
2, 9432000, Note_on_c, 0, 60, 100
2, 9432500, Note_on_c, 0, 48, 100
2, 9433000, Note_on_c, 0, 52, 100
2, 9433500, Note_off_c, 0, 36, 64
2, 9434000, Note_on_c, 0, 40, 100
2, 9439500, Note_off_c, 0, 67, 64
2, 9440000, Note_off_c, 0, 60, 64
2, 9440500, Note_off_c, 0, 52, 64
2, 9441000, Note_off_c, 0, 40, 64
2, 9442500, Note_on_c, 0, 72, 100
2, 9443000, Note_on_c, 0, 69, 100
2, 9443500, Note_off_c, 0, 65, 64
2, 9444000, Note_on_c, 0, 60, 100
2, 9444500, Note_on_c, 0, 53, 100
2, 9445000, Note_on_c, 0, 41, 100
2, 9450500, Note_off_c, 0, 69, 64
2, 9451000, Note_on_c, 0, 65, 100
2, 9451500, Note_off_c, 0, 60, 64
2, 9452000, Note_off_c, 0, 53, 64
2, 9452500, Note_off_c, 0, 41, 64
2, 9454000, Note_off_c, 0, 65, 64
2, 9454500, Note_on_c, 0, 60, 100
2, 9455000, Note_on_c, 0, 57, 100
2, 9455500, Note_on_c, 0, 33, 100
2, 9456000, Note_on_c, 0, 45, 100
2, 9461500, Note_on_c, 0, 65, 100
2, 9462000, Note_off_c, 0, 60, 64
2, 9462500, Note_off_c, 0, 57, 64
2, 9463000, Note_off_c, 0, 33, 64
2, 9463500, Note_off_c, 0, 45, 64
2, 9465000, Note_on_c, 0, 64, 100
2, 9465500, Note_on_c, 0, 60, 100
2, 9466000, Note_off_c, 0, 55, 64
2, 9466500, Note_on_c, 0, 36, 100
2, 9467000, Note_off_c, 0, 48, 64
2, 9468500, Note_off_c, 0, 64, 64
2, 9469000, Note_off_c, 0, 65, 64
2, 9470500, Note_on_c, 0, 65, 100
2, 9471000, Note_on_c, 0, 64, 100
2, 9472500, Note_off_c, 0, 60, 64
2, 9473000, Note_on_c, 0, 55, 100
2, 9473500, Note_off_c, 0, 36, 64
2, 9474000, Note_on_c, 0, 48, 100
2, 9475500, Note_off_c, 0, 64, 64
2, 9476000, Note_off_c, 0, 65, 64
2, 9476500, Note_on_c, 0, 60, 100
2, 9477000, Note_on_c, 0, 57, 100
2, 9477500, Note_on_c, 0, 53, 100
2, 9478000, Note_on_c, 0, 41, 100
2, 9478500, Note_on_c, 0, 29, 100
2, 9482000, Note_off_c, 0, 53, 64
2, 9482500, Note_off_c, 0, 55, 64
2, 9486000, Note_on_c, 0, 55, 100
2, 9486500, Note_off_c, 0, 57, 64
2, 9490000, Note_on_c, 0, 57, 100
2, 9490500, Note_off_c, 0, 55, 64
2, 9494000, Note_on_c, 0, 65, 100
2, 9494500, Note_off_c, 0, 60, 64
2, 9495000, Note_off_c, 0, 57, 64
2, 9495500, Note_on_c, 0, 55, 100
2, 9496000, Note_on_c, 0, 53, 100
2, 9496500, Note_off_c, 0, 41, 64
2, 9497000, Note_off_c, 0, 29, 64
2, 9500500, Note_off_c, 0, 53, 64
2, 9501000, Note_off_c, 0, 51, 64
2, 9502500, Note_on_c, 0, 60, 100
2, 9504000, Note_off_c, 0, 65, 64
2, 9504500, Note_on_c, 0, 51, 100
2, 9505000, Note_on_c, 0, 50, 100
2, 9508500, Note_off_c, 0, 50, 64
2, 9509000, Note_off_c, 0, 51, 64
2, 9512500, Note_on_c, 0, 51, 100
2, 9513000, Note_on_c, 0, 53, 100
2, 9516500, Note_off_c, 0, 53, 64
2, 9517000, Note_off_c, 0, 51, 64
2, 9520500, Note_on_c, 0, 69, 100
2, 9521000, Note_on_c, 0, 51, 100
2, 9521500, Note_on_c, 0, 50, 100
2, 9525000, Note_off_c, 0, 50, 64
2, 9525500, Note_off_c, 0, 48, 64
2, 9527000, Note_off_c, 0, 69, 64
2, 9528500, Note_on_c, 0, 74, 100
2, 9529000, Note_on_c, 0, 48, 100
2, 9529500, Note_on_c, 0, 47, 100
2, 9533000, Note_off_c, 0, 47, 64
2, 9533500, Note_on_c, 0, 50, 100
2, 9537000, Note_on_c, 0, 65, 100
2, 9537500, Note_off_c, 0, 59, 64
2, 9538000, Note_off_c, 0, 50, 64
2, 9538500, Note_off_c, 0, 55, 64
2, 9542000, Note_on_c, 0, 55, 100
2, 9542500, Note_on_c, 0, 53, 100
2, 9544000, Note_on_c, 0, 59, 100
2, 9545500, Note_off_c, 0, 62, 64
2, 9546000, Note_off_c, 0, 53, 64
2, 9546500, Note_off_c, 0, 51, 64
2, 9550000, Note_on_c, 0, 51, 100
2, 9550500, Note_on_c, 0, 50, 100
2, 9552000, Note_on_c, 0, 62, 100
2, 9553500, Note_off_c, 0, 63, 64
2, 9554000, Note_off_c, 0, 50, 64
2, 9554500, Note_off_c, 0, 48, 64
2, 9558000, Note_on_c, 0, 63, 100
2, 9558500, Note_off_c, 0, 65, 64
2, 9560000, Note_on_c, 0, 48, 100
2, 9561500, Note_off_c, 0, 74, 64
2, 9562000, Note_on_c, 0, 67, 100
2, 9562500, Note_on_c, 0, 65, 100
2, 9563000, Note_off_c, 0, 51, 64
2, 9566500, Note_off_c, 0, 67, 64
2, 9567000, Note_off_c, 0, 65, 64
2, 9568500, Note_on_c, 0, 67, 100
2, 9569000, Note_on_c, 0, 51, 100
2, 9570500, Note_on_c, 0, 71, 100
2, 9571000, Note_on_c, 0, 65, 100
2, 9571500, Note_off_c, 0, 63, 64
2, 9572000, Note_off_c, 0, 67, 64
2, 9572500, Note_off_c, 0, 55, 64
2, 9573000, Note_on_c, 0, 43, 100
2, 9573500, Note_on_c, 0, 31, 100
2, 9577000, Note_on_c, 0, 63, 100
2, 9577500, Note_off_c, 0, 62, 64
2, 9578000, Note_off_c, 0, 43, 64
2, 9578500, Note_off_c, 0, 31, 64
2, 9580000, Note_off_c, 0, 71, 64
2, 9580500, Note_on_c, 0, 67, 100
2, 9581000, Note_on_c, 0, 55, 100
2, 9582500, Note_off_c, 0, 72, 64
2, 9583000, Note_on_c, 0, 62, 100
2, 9583500, Note_off_c, 0, 63, 64
2, 9584000, Note_off_c, 0, 55, 64
2, 9584500, Note_off_c, 0, 60, 64
2, 9585000, Note_on_c, 0, 36, 100
2, 9585500, Note_off_c, 0, 48, 64
2, 9589000, Note_on_c, 0, 63, 100
2, 9589500, Note_off_c, 0, 62, 64
2, 9591000, Note_on_c, 0, 72, 100
2, 9591500, Note_on_c, 0, 60, 100
2, 9593000, Note_off_c, 0, 60, 64
2, 9593500, Note_on_c, 0, 62, 100
2, 9594000, Note_off_c, 0, 51, 64
2, 9597500, Note_on_c, 0, 60, 100
2, 9598000, Note_off_c, 0, 63, 64
2, 9599500, Note_off_c, 0, 60, 64
2, 9600000, Note_on_c, 0, 51, 100
2, 9601500, Note_on_c, 0, 63, 100
2, 9602000, Note_off_c, 0, 62, 64
2, 9602500, Note_on_c, 0, 55, 100
2, 9603000, Note_off_c, 0, 36, 64
2, 9603500, Note_on_c, 0, 48, 100
2, 9607000, Note_on_c, 0, 62, 100
2, 9607500, Note_off_c, 0, 65, 64
2, 9609000, Note_off_c, 0, 55, 64
2, 9610500, Note_on_c, 0, 65, 100
2, 9611000, Note_off_c, 0, 63, 64
2, 9611500, Note_off_c, 0, 48, 64
2, 9615000, Note_on_c, 0, 48, 100
2, 9615500, Note_on_c, 0, 50, 100
2, 9619000, Note_off_c, 0, 50, 64
2, 9619500, Note_off_c, 0, 51, 64
2, 9623000, Note_on_c, 0, 51, 100
2, 9623500, Note_on_c, 0, 50, 100
2, 9627000, Note_off_c, 0, 67, 64
2, 9627500, Note_off_c, 0, 50, 64
2, 9628000, Note_off_c, 0, 48, 64
2, 9631500, Note_on_c, 0, 48, 100
2, 9632000, Note_on_c, 0, 46, 100
2, 9633500, Note_on_c, 0, 67, 100
2, 9635000, Note_off_c, 0, 72, 64
2, 9635500, Note_off_c, 0, 46, 64
2, 9636000, Note_on_c, 0, 45, 100
2, 9639500, Note_off_c, 0, 45, 64
2, 9640000, Note_off_c, 0, 48, 64
2, 9643500, Note_on_c, 0, 63, 100
2, 9644000, Note_on_c, 0, 57, 100
2, 9644500, Note_on_c, 0, 48, 100
2, 9645000, Note_on_c, 0, 53, 100
2, 9648500, Note_off_c, 0, 53, 64
2, 9649000, Note_off_c, 0, 51, 64
2, 9650500, Note_off_c, 0, 57, 64
2, 9652000, Note_on_c, 0, 60, 100
2, 9652500, Note_on_c, 0, 51, 100
2, 9653000, Note_on_c, 0, 50, 100
2, 9656500, Note_off_c, 0, 50, 64
2, 9657000, Note_off_c, 0, 48, 64
2, 9658500, Note_off_c, 0, 60, 64
2, 9660000, Note_off_c, 0, 62, 64
2, 9660500, Note_on_c, 0, 48, 100
2, 9661000, Note_on_c, 0, 46, 100
2, 9664500, Note_on_c, 0, 62, 100
2, 9665000, Note_off_c, 0, 63, 64
2, 9666500, Note_off_c, 0, 46, 64
2, 9668000, Note_on_c, 0, 72, 100
2, 9668500, Note_off_c, 0, 65, 64
2, 9669000, Note_on_c, 0, 63, 100
2, 9669500, Note_on_c, 0, 50, 100
2, 9673000, Note_on_c, 0, 65, 100
2, 9673500, Note_off_c, 0, 63, 64
2, 9675000, Note_off_c, 0, 65, 64
2, 9675500, Note_off_c, 0, 50, 64
2, 9677000, Note_on_c, 0, 69, 100
2, 9677500, Note_on_c, 0, 63, 100
2, 9678000, Note_off_c, 0, 62, 64
2, 9678500, Note_on_c, 0, 65, 100
2, 9679000, Note_on_c, 0, 53, 100
2, 9679500, Note_on_c, 0, 41, 100
2, 9680000, Note_on_c, 0, 29, 100
2, 9683500, Note_on_c, 0, 62, 100
2, 9684000, Note_on_c, 0, 60, 100
2, 9684500, Note_off_c, 0, 41, 64
2, 9685000, Note_off_c, 0, 29, 64
2, 9686500, Note_off_c, 0, 69, 64
2, 9687000, Note_off_c, 0, 65, 64
2, 9687500, Note_off_c, 0, 53, 64
2, 9689000, Note_on_c, 0, 70, 100
2, 9689500, Note_off_c, 0, 60, 64
2, 9690000, Note_off_c, 0, 62, 64
2, 9690500, Note_on_c, 0, 53, 100
2, 9691000, Note_off_c, 0, 58, 64
2, 9691500, Note_on_c, 0, 34, 100
2, 9692000, Note_on_c, 0, 46, 100
2, 9695500, Note_on_c, 0, 58, 100
2, 9696000, Note_on_c, 0, 60, 100
2, 9697500, Note_off_c, 0, 70, 64
2, 9698000, Note_on_c, 0, 62, 100
2, 9699500, Note_off_c, 0, 58, 64
2, 9700000, Note_off_c, 0, 60, 64
2, 9703500, Note_on_c, 0, 58, 100
2, 9704000, Note_on_c, 0, 57, 100
2, 9705500, Note_off_c, 0, 58, 64
2, 9707000, Note_off_c, 0, 62, 64
2, 9707500, Note_off_c, 0, 53, 64
2, 9708000, Note_off_c, 0, 57, 64
2, 9708500, Note_on_c, 0, 55, 100
2, 9709000, Note_off_c, 0, 34, 64
2, 9709500, Note_off_c, 0, 46, 64
2, 9713000, Note_off_c, 0, 55, 64
2, 9713500, Note_on_c, 0, 53, 100
2, 9715000, Note_on_c, 0, 62, 100
2, 9716500, Note_off_c, 0, 67, 64
2, 9717000, Note_off_c, 0, 53, 64
2, 9717500, Note_off_c, 0, 51, 64
2, 9721000, Note_on_c, 0, 51, 100
2, 9721500, Note_on_c, 0, 53, 100
2, 9725000, Note_off_c, 0, 53, 64
2, 9725500, Note_on_c, 0, 55, 100
2, 9729000, Note_off_c, 0, 55, 64
2, 9729500, Note_on_c, 0, 53, 100
2, 9733000, Note_on_c, 0, 70, 100
2, 9733500, Note_off_c, 0, 53, 64
2, 9734000, Note_off_c, 0, 51, 64
2, 9737500, Note_on_c, 0, 51, 100
2, 9738000, Note_on_c, 0, 50, 100
2, 9739500, Note_off_c, 0, 70, 64
2, 9741000, Note_on_c, 0, 75, 100
2, 9741500, Note_off_c, 0, 50, 64
2, 9742000, Note_off_c, 0, 48, 64
2, 9745500, Note_on_c, 0, 48, 100
2, 9746000, Note_off_c, 0, 51, 64
2, 9749500, Note_on_c, 0, 67, 100
2, 9750000, Note_on_c, 0, 60, 100
2, 9750500, Note_on_c, 0, 51, 100
2, 9751000, Note_on_c, 0, 57, 100
2, 9754500, Note_off_c, 0, 57, 64
2, 9755000, Note_on_c, 0, 55, 100
2, 9756500, Note_off_c, 0, 60, 64
2, 9758000, Note_off_c, 0, 63, 64
2, 9758500, Note_on_c, 0, 60, 100
2, 9759000, Note_on_c, 0, 57, 100
2, 9759500, Note_off_c, 0, 55, 64
2, 9760000, Note_on_c, 0, 53, 100
2, 9760500, Note_on_c, 0, 36, 100
2, 9761000, Note_off_c, 0, 48, 64
2, 9764500, Note_off_c, 0, 53, 64
2, 9765000, Note_off_c, 0, 51, 64
2, 9766500, Note_on_c, 0, 63, 100
2, 9767000, Note_off_c, 0, 60, 64
2, 9767500, Note_off_c, 0, 57, 64
2, 9768000, Note_off_c, 0, 36, 64
2, 9768500, Note_on_c, 0, 48, 100
2, 9770000, Note_on_c, 0, 65, 100
2, 9770500, Note_on_c, 0, 60, 100
2, 9771000, Note_on_c, 0, 53, 100
2, 9771500, Note_on_c, 0, 51, 100
2, 9772000, Note_on_c, 0, 50, 100
2, 9772500, Note_on_c, 0, 38, 100
2, 9776000, Note_off_c, 0, 50, 64
2, 9776500, Note_off_c, 0, 51, 64
2, 9780000, Note_off_c, 0, 75, 64
2, 9780500, Note_on_c, 0, 69, 100
2, 9781000, Note_on_c, 0, 51, 100
2, 9781500, Note_off_c, 0, 53, 64
2, 9785000, Note_on_c, 0, 53, 100
2, 9785500, Note_off_c, 0, 51, 64
2, 9787000, Note_off_c, 0, 69, 64
2, 9788500, Note_off_c, 0, 72, 64
2, 9789000, Note_on_c, 0, 51, 100
2, 9789500, Note_on_c, 0, 50, 100
2, 9793000, Note_off_c, 0, 50, 64
2, 9793500, Note_off_c, 0, 48, 64
2, 9795000, Note_on_c, 0, 72, 100
2, 9796500, Note_on_c, 0, 74, 100
2, 9797000, Note_off_c, 0, 60, 64
2, 9797500, Note_off_c, 0, 53, 64
2, 9798000, Note_on_c, 0, 48, 100
2, 9798500, Note_on_c, 0, 46, 100
2, 9799000, Note_off_c, 0, 38, 64
2, 9799500, Note_on_c, 0, 50, 100
2, 9803000, Note_off_c, 0, 46, 64
2, 9803500, Note_off_c, 0, 50, 64
2, 9807000, Note_off_c, 0, 65, 64
2, 9807500, Note_on_c, 0, 58, 100
2, 9808000, Note_on_c, 0, 50, 100
2, 9808500, Note_on_c, 0, 55, 100
2, 9812000, Note_off_c, 0, 55, 64
2, 9812500, Note_on_c, 0, 53, 100
2, 9814000, Note_off_c, 0, 58, 64
2, 9815500, Note_off_c, 0, 62, 64
2, 9816000, Note_on_c, 0, 58, 100
2, 9816500, Note_on_c, 0, 55, 100
2, 9817000, Note_off_c, 0, 53, 64
2, 9817500, Note_off_c, 0, 51, 64
2, 9818000, Note_on_c, 0, 34, 100
2, 9818500, Note_on_c, 0, 46, 100
2, 9822000, Note_on_c, 0, 51, 100
2, 9822500, Note_off_c, 0, 50, 64
2, 9824000, Note_on_c, 0, 62, 100
2, 9824500, Note_off_c, 0, 58, 64
2, 9825000, Note_off_c, 0, 55, 64
2, 9825500, Note_off_c, 0, 34, 64
2, 9826000, Note_off_c, 0, 46, 64
2, 9827500, Note_off_c, 0, 63, 64
2, 9828000, Note_on_c, 0, 58, 100
2, 9828500, Note_off_c, 0, 51, 64
2, 9829000, Note_on_c, 0, 50, 100
2, 9829500, Note_off_c, 0, 48, 64
2, 9830000, Note_on_c, 0, 36, 100
2, 9833500, Note_on_c, 0, 48, 100
2, 9834000, Note_off_c, 0, 50, 64
2, 9837500, Note_off_c, 0, 74, 64
2, 9838000, Note_off_c, 0, 67, 64
2, 9838500, Note_on_c, 0, 50, 100
2, 9839000, Note_on_c, 0, 51, 100
2, 9842500, Note_off_c, 0, 51, 64
2, 9843000, Note_off_c, 0, 50, 64
2, 9844500, Note_on_c, 0, 67, 100
2, 9846000, Note_on_c, 0, 70, 100
2, 9846500, Note_on_c, 0, 50, 100
2, 9847000, Note_off_c, 0, 48, 64
2, 9850500, Note_on_c, 0, 48, 100
2, 9851000, Note_on_c, 0, 46, 100
2, 9852500, Note_off_c, 0, 70, 64
2, 9854000, Note_off_c, 0, 72, 64
2, 9854500, Note_off_c, 0, 58, 64
2, 9855000, Note_on_c, 0, 51, 100
2, 9855500, Note_off_c, 0, 46, 64
2, 9856000, Note_on_c, 0, 45, 100
2, 9856500, Note_off_c, 0, 36, 64
2, 9857000, Note_off_c, 0, 48, 64
2, 9860500, Note_off_c, 0, 45, 64
2, 9861000, Note_on_c, 0, 48, 100
2, 9864500, Note_on_c, 0, 63, 100
2, 9865000, Note_on_c, 0, 57, 100
2, 9865500, Note_off_c, 0, 48, 64
2, 9866000, Note_on_c, 0, 53, 100
2, 9869500, Note_off_c, 0, 53, 64
2, 9870000, Note_off_c, 0, 51, 64
2, 9871500, Note_off_c, 0, 57, 64
2, 9873000, Note_on_c, 0, 60, 100
2, 9873500, Note_on_c, 0, 57, 100
2, 9874000, Note_on_c, 0, 53, 100
2, 9874500, Note_on_c, 0, 51, 100
2, 9875000, Note_off_c, 0, 50, 64
2, 9875500, Note_on_c, 0, 41, 100
2, 9876000, Note_on_c, 0, 29, 100
2, 9879500, Note_on_c, 0, 50, 100
2, 9880000, Note_on_c, 0, 48, 100
2, 9881500, Note_off_c, 0, 60, 64
2, 9882000, Note_off_c, 0, 57, 64
2, 9882500, Note_off_c, 0, 53, 64
2, 9883000, Note_off_c, 0, 41, 64
2, 9883500, Note_off_c, 0, 29, 64
2, 9885000, Note_off_c, 0, 62, 64
2, 9885500, Note_on_c, 0, 58, 100
2, 9886000, Note_off_c, 0, 48, 64
2, 9886500, Note_on_c, 0, 46, 100
2, 9887000, Note_on_c, 0, 34, 100
2, 9890500, Note_on_c, 0, 62, 100
2, 9891000, Note_on_c, 0, 60, 100
2, 9891500, Note_off_c, 0, 46, 64
2, 9892000, Note_on_c, 0, 45, 100
2, 9895500, Note_on_c, 0, 72, 100
2, 9896000, Note_on_c, 0, 65, 100
2, 9896500, Note_off_c, 0, 60, 64
2, 9897000, Note_off_c, 0, 62, 64
2, 9897500, Note_off_c, 0, 45, 64
2, 9898000, Note_on_c, 0, 46, 100
2, 9901500, Note_on_c, 0, 62, 100
2, 9902000, Note_off_c, 0, 63, 64
2, 9902500, Note_off_c, 0, 46, 64
2, 9903000, Note_on_c, 0, 48, 100
2, 9904500, Note_off_c, 0, 65, 64
2, 9906000, Note_on_c, 0, 70, 100
2, 9906500, Note_on_c, 0, 63, 100
2, 9907000, Note_on_c, 0, 65, 100
2, 9907500, Note_off_c, 0, 48, 64
2, 9908000, Note_off_c, 0, 50, 64
2, 9911500, Note_off_c, 0, 65, 64
2, 9912000, Note_off_c, 0, 67, 64
2, 9912500, Note_on_c, 0, 50, 100
2, 9913000, Note_off_c, 0, 51, 64
2, 9916500, Note_on_c, 0, 67, 100
2, 9917000, Note_on_c, 0, 60, 100
2, 9917500, Note_off_c, 0, 58, 64
2, 9918000, Note_on_c, 0, 51, 100
2, 9918500, Note_on_c, 0, 53, 100
2, 9919000, Note_off_c, 0, 34, 64
2, 9919500, Note_on_c, 0, 46, 100
2, 9923000, Note_off_c, 0, 53, 64
2, 9923500, Note_on_c, 0, 52, 100
2, 9925000, Note_off_c, 0, 60, 64
2, 9926500, Note_off_c, 0, 70, 64
2, 9927000, Note_on_c, 0, 69, 100
2, 9927500, Note_on_c, 0, 53, 100
2, 9928000, Note_off_c, 0, 52, 64
2, 9931500, Note_off_c, 0, 53, 64
2, 9932000, Note_on_c, 0, 48, 100
2, 9933500, Note_off_c, 0, 69, 64
2, 9934000, Note_on_c, 0, 53, 100
2, 9935500, Note_off_c, 0, 77, 64
2, 9936000, Note_off_c, 0, 48, 64
2, 9936500, Note_on_c, 0, 45, 100
2, 9940000, Note_off_c, 0, 45, 64
2, 9940500, Note_on_c, 0, 48, 100
2, 9944000, Note_on_c, 0, 69, 100
2, 9944500, Note_on_c, 0, 65, 100
2, 9945000, Note_off_c, 0, 48, 64
2, 9945500, Note_on_c, 0, 41, 100
2, 9946000, Note_on_c, 0, 29, 100
2, 9953500, Note_on_c, 0, 77, 100
2, 9954000, Note_off_c, 0, 72, 64
2, 9959500, Note_on_c, 0, 72, 100
2, 9961000, Note_on_c, 0, 74, 100
2, 9961500, Note_off_c, 0, 69, 64
2, 9962000, Note_off_c, 0, 65, 64
2, 9962500, Note_off_c, 0, 41, 64
2, 9963000, Note_off_c, 0, 29, 64
2, 9970500, Note_off_c, 0, 74, 64
2, 9971000, Note_on_c, 0, 70, 100
2, 9971500, Note_on_c, 0, 65, 100
2, 9972000, Note_off_c, 0, 53, 64
2, 9972500, Note_on_c, 0, 41, 100
2, 9980000, Note_on_c, 0, 74, 100
2, 9980500, Note_off_c, 0, 72, 64
2, 9986000, Note_on_c, 0, 72, 100
2, 9987500, Note_off_c, 0, 77, 64
2, 9988000, Note_off_c, 0, 70, 64
2, 9988500, Note_off_c, 0, 65, 64
2, 9989000, Note_on_c, 0, 53, 100
2, 9989500, Note_off_c, 0, 41, 64
2, 9997000, Note_on_c, 0, 69, 100
2, 9997500, Note_on_c, 0, 60, 100
2, 9998000, Note_on_c, 0, 41, 100
2, 9998500, Note_on_c, 0, 29, 100
2, 10006000, Note_on_c, 0, 77, 100
2, 10006500, Note_off_c, 0, 72, 64
2, 10012000, Note_on_c, 0, 72, 100
2, 10013500, Note_off_c, 0, 74, 64
2, 10014000, Note_off_c, 0, 69, 64
2, 10014500, Note_off_c, 0, 60, 64
2, 10015000, Note_off_c, 0, 41, 64
2, 10015500, Note_off_c, 0, 29, 64
2, 10023000, Note_on_c, 0, 65, 100
2, 10023500, Note_on_c, 0, 58, 100
2, 10024000, Note_off_c, 0, 53, 64
2, 10024500, Note_on_c, 0, 41, 100
2, 10028000, Note_on_c, 0, 53, 100
2, 10028500, Note_on_c, 0, 48, 100
2, 10032000, Note_on_c, 0, 74, 100
2, 10032500, Note_off_c, 0, 72, 64
2, 10033000, Note_off_c, 0, 48, 64
2, 10033500, Note_off_c, 0, 50, 64
2, 10037000, Note_on_c, 0, 50, 100
2, 10037500, Note_off_c, 0, 51, 64
2, 10039000, Note_on_c, 0, 72, 100
2, 10040500, Note_on_c, 0, 75, 100
2, 10041000, Note_off_c, 0, 65, 64
2, 10041500, Note_off_c, 0, 58, 64
2, 10042000, Note_on_c, 0, 57, 100
2, 10042500, Note_on_c, 0, 51, 100
2, 10043000, Note_off_c, 0, 53, 64
2, 10043500, Note_off_c, 0, 41, 64
2, 10047000, Note_on_c, 0, 53, 100
2, 10047500, Note_on_c, 0, 55, 100
2, 10049000, Note_on_c, 0, 65, 100
2, 10049500, Note_off_c, 0, 57, 64
2, 10051000, Note_off_c, 0, 72, 64
2, 10051500, Note_off_c, 0, 53, 64
2, 10052000, Note_off_c, 0, 55, 64
2, 10052500, Note_on_c, 0, 57, 100
2, 10056000, Note_on_c, 0, 72, 100
2, 10056500, Note_off_c, 0, 74, 64
2, 10057000, Note_off_c, 0, 57, 64
2, 10057500, Note_on_c, 0, 58, 100
2, 10061000, Note_off_c, 0, 75, 64
2, 10061500, Note_on_c, 0, 69, 100
2, 10062000, Note_on_c, 0, 74, 100
2, 10062500, Note_off_c, 0, 58, 64
2, 10063000, Note_on_c, 0, 60, 100
2, 10066500, Note_on_c, 0, 75, 100
2, 10067000, Note_off_c, 0, 74, 64
2, 10067500, Note_off_c, 0, 60, 64
2, 10068000, Note_on_c, 0, 58, 100
2, 10069500, Note_off_c, 0, 69, 64
2, 10071000, Note_off_c, 0, 72, 64
2, 10071500, Note_on_c, 0, 74, 100
2, 10072000, Note_on_c, 0, 53, 100
2, 10072500, Note_off_c, 0, 65, 64
2, 10073000, Note_off_c, 0, 58, 64
2, 10073500, Note_on_c, 0, 57, 100
2, 10077000, Note_on_c, 0, 72, 100
2, 10077500, Note_on_c, 0, 70, 100
2, 10078000, Note_off_c, 0, 57, 64
2, 10078500, Note_on_c, 0, 55, 100
2, 10080000, Note_on_c, 0, 65, 100
2, 10081500, Note_off_c, 0, 70, 64
2, 10082000, Note_on_c, 0, 69, 100
2, 10082500, Note_off_c, 0, 53, 64
2, 10083000, Note_off_c, 0, 55, 64
2, 10086500, Note_off_c, 0, 69, 64
2, 10087000, Note_on_c, 0, 70, 100
2, 10087500, Note_on_c, 0, 53, 100
2, 10088000, Note_on_c, 0, 55, 100
2, 10091500, Note_off_c, 0, 72, 64
2, 10092000, Note_off_c, 0, 65, 64
2, 10092500, Note_off_c, 0, 70, 64
2, 10093000, Note_off_c, 0, 55, 64
2, 10093500, Note_on_c, 0, 57, 100
2, 10097000, Note_on_c, 0, 72, 100
2, 10097500, Note_on_c, 0, 70, 100
2, 10098000, Note_off_c, 0, 57, 64
2, 10098500, Note_on_c, 0, 55, 100
2, 10100000, Note_on_c, 0, 65, 100
2, 10101500, Note_on_c, 0, 69, 100
2, 10102000, Note_off_c, 0, 70, 64
2, 10102500, Note_off_c, 0, 53, 64
2, 10103000, Note_off_c, 0, 65, 64
2, 10103500, Note_off_c, 0, 55, 64
2, 10107000, Note_off_c, 0, 69, 64
2, 10107500, Note_off_c, 0, 67, 64
2, 10108000, Note_on_c, 0, 53, 100
2, 10108500, Note_off_c, 0, 51, 64
2, 10110000, Note_on_c, 0, 65, 100
2, 10111500, Note_on_c, 0, 67, 100
2, 10112000, Note_off_c, 0, 65, 64
2, 10112500, Note_off_c, 0, 53, 64
2, 10113000, Note_on_c, 0, 51, 100
2, 10113500, Note_off_c, 0, 50, 64
2, 10117000, Note_on_c, 0, 65, 100
2, 10117500, Note_off_c, 0, 67, 64
2, 10118000, Note_on_c, 0, 50, 100
2, 10118500, Note_off_c, 0, 51, 64
2, 10122000, Note_on_c, 0, 69, 100
2, 10122500, Note_off_c, 0, 72, 64
2, 10123000, Note_on_c, 0, 67, 100
2, 10123500, Note_on_c, 0, 51, 100
2, 10124000, Note_on_c, 0, 53, 100
2, 10127500, Note_off_c, 0, 69, 64
2, 10128000, Note_on_c, 0, 70, 100
2, 10128500, Note_off_c, 0, 53, 64
2, 10129000, Note_off_c, 0, 51, 64
2, 10130500, Note_on_c, 0, 72, 100
2, 10132000, Note_off_c, 0, 75, 64
2, 10132500, Note_off_c, 0, 70, 64
2, 10133000, Note_off_c, 0, 72, 64
2, 10133500, Note_on_c, 0, 53, 100
2, 10134000, Note_on_c, 0, 69, 100
2, 10134500, Note_off_c, 0, 65, 64
2, 10135000, Note_on_c, 0, 51, 100
2, 10135500, Note_off_c, 0, 50, 64
2, 10136000, Note_on_c, 0, 41, 100
2, 10136500, Note_on_c, 0, 29, 100
2, 10140000, Note_on_c, 0, 72, 100
2, 10140500, Note_off_c, 0, 69, 64
2, 10141000, Note_on_c, 0, 50, 100
2, 10141500, Note_on_c, 0, 48, 100
2, 10143000, Note_on_c, 0, 69, 100
2, 10143500, Note_on_c, 0, 65, 100
2, 10144000, Note_off_c, 0, 41, 64
2, 10144500, Note_off_c, 0, 29, 64
2, 10146000, Note_off_c, 0, 69, 64
2, 10146500, Note_on_c, 0, 70, 100
2, 10147000, Note_off_c, 0, 65, 64
2, 10147500, Note_off_c, 0, 53, 64
2, 10148000, Note_off_c, 0, 48, 64
2, 10148500, Note_off_c, 0, 46, 64
2, 10149000, Note_on_c, 0, 34, 100
2, 10152500, Note_on_c, 0, 46, 100
2, 10153000, Note_on_c, 0, 53, 100
2, 10154500, Note_off_c, 0, 70, 64
2, 10156000, Note_on_c, 0, 75, 100
2, 10156500, Note_off_c, 0, 74, 64
2, 10157000, Note_on_c, 0, 58, 100
2, 10157500, Note_off_c, 0, 53, 64
2, 10158000, Note_on_c, 0, 55, 100
2, 10161500, Note_off_c, 0, 55, 64
2, 10162000, Note_on_c, 0, 57, 100
2, 10163500, Note_on_c, 0, 74, 100
2, 10164000, Note_off_c, 0, 58, 64
2, 10165500, Note_on_c, 0, 58, 100
2, 10166000, Note_off_c, 0, 68, 64
2, 10166500, Note_on_c, 0, 65, 100
2, 10167000, Note_on_c, 0, 53, 100
2, 10167500, Note_off_c, 0, 62, 64
2, 10168000, Note_off_c, 0, 57, 64
2, 10168500, Note_off_c, 0, 34, 64
2, 10169000, Note_off_c, 0, 46, 64
2, 10172500, Note_off_c, 0, 58, 64
2, 10173000, Note_on_c, 0, 60, 100
2, 10174500, Note_on_c, 0, 58, 100
2, 10175000, Note_off_c, 0, 65, 64
2, 10175500, Note_on_c, 0, 62, 100
2, 10177000, Note_on_c, 0, 65, 100
2, 10177500, Note_off_c, 0, 58, 64
2, 10178000, Note_off_c, 0, 60, 64
2, 10178500, Note_off_c, 0, 62, 64
2, 10182000, Note_off_c, 0, 65, 64
2, 10182500, Note_off_c, 0, 67, 64
2, 10183000, Note_on_c, 0, 62, 100
2, 10183500, Note_off_c, 0, 63, 64
2, 10187000, Note_on_c, 0, 67, 100
2, 10187500, Note_on_c, 0, 68, 100
2, 10188000, Note_off_c, 0, 62, 64
2, 10188500, Note_on_c, 0, 63, 100
2, 10189000, Note_on_c, 0, 65, 100
2, 10192500, Note_off_c, 0, 68, 64
2, 10193000, Note_off_c, 0, 67, 64
2, 10193500, Note_off_c, 0, 65, 64
2, 10194000, Note_off_c, 0, 63, 64
2, 10195500, Note_on_c, 0, 62, 100
2, 10197000, Note_on_c, 0, 67, 100
2, 10197500, Note_on_c, 0, 65, 100
2, 10198000, Note_on_c, 0, 58, 100
2, 10198500, Note_on_c, 0, 70, 100
2, 10199000, Note_on_c, 0, 63, 100
2, 10199500, Note_off_c, 0, 62, 64
2, 10203000, Note_off_c, 0, 65, 64
2, 10203500, Note_off_c, 0, 63, 64
2, 10204000, Note_on_c, 0, 62, 100
2, 10204500, Note_on_c, 0, 60, 100
2, 10206000, Note_off_c, 0, 70, 64
2, 10207500, Note_on_c, 0, 63, 100
2, 10208000, Note_off_c, 0, 62, 64
2, 10208500, Note_off_c, 0, 58, 64
2, 10209000, Note_off_c, 0, 60, 64
2, 10212500, Note_on_c, 0, 62, 100
2, 10213000, Note_off_c, 0, 63, 64
2, 10213500, Note_on_c, 0, 58, 100
2, 10214000, Note_on_c, 0, 60, 100
2, 10217500, Note_on_c, 0, 63, 100
2, 10218000, Note_on_c, 0, 65, 100
2, 10218500, Note_off_c, 0, 58, 64
2, 10219000, Note_off_c, 0, 60, 64
2, 10219500, Note_off_c, 0, 62, 64
2, 10223000, Note_off_c, 0, 65, 64
2, 10223500, Note_off_c, 0, 63, 64
2, 10224000, Note_on_c, 0, 62, 100
2, 10224500, Note_on_c, 0, 60, 100
2, 10226000, Note_on_c, 0, 58, 100
2, 10227500, Note_on_c, 0, 63, 100
2, 10228000, Note_off_c, 0, 62, 64
2, 10228500, Note_off_c, 0, 58, 64
2, 10229000, Note_on_c, 0, 70, 100
2, 10229500, Note_off_c, 0, 60, 64
2, 10233000, Note_on_c, 0, 62, 100
2, 10233500, Note_on_c, 0, 60, 100
2, 10234000, Note_on_c, 0, 58, 100
2, 10234500, Note_on_c, 0, 56, 100
2, 10236000, Note_off_c, 0, 70, 64
2, 10237500, Note_off_c, 0, 60, 64
2, 10238000, Note_off_c, 0, 58, 64
2, 10238500, Note_off_c, 0, 56, 64
2, 10239000, Note_on_c, 0, 55, 100
2, 10242500, Note_on_c, 0, 58, 100
2, 10243000, Note_on_c, 0, 60, 100
2, 10243500, Note_off_c, 0, 55, 64
2, 10244000, Note_on_c, 0, 56, 100
2, 10247500, Note_off_c, 0, 60, 64
2, 10248000, Note_off_c, 0, 62, 64
2, 10248500, Note_on_c, 0, 65, 100
2, 10249000, Note_off_c, 0, 56, 64
2, 10249500, Note_off_c, 0, 58, 64
2, 10253000, Note_on_c, 0, 62, 100
2, 10253500, Note_off_c, 0, 63, 64
2, 10254000, Note_on_c, 0, 58, 100
2, 10254500, Note_on_c, 0, 56, 100
2, 10256000, Note_off_c, 0, 65, 64
2, 10257500, Note_on_c, 0, 63, 100
2, 10258000, Note_on_c, 0, 65, 100
2, 10258500, Note_on_c, 0, 68, 100
2, 10259000, Note_off_c, 0, 58, 64
2, 10259500, Note_on_c, 0, 70, 100
2, 10260000, Note_off_c, 0, 62, 64
2, 10260500, Note_off_c, 0, 56, 64
2, 10261000, Note_on_c, 0, 55, 100
2, 10261500, Note_on_c, 0, 34, 100
2, 10262000, Note_on_c, 0, 46, 100
2, 10265500, Note_off_c, 0, 65, 64
2, 10266000, Note_on_c, 0, 62, 100
2, 10266500, Note_off_c, 0, 55, 64
2, 10267000, Note_off_c, 0, 53, 64
2, 10268500, Note_off_c, 0, 70, 64
2, 10269000, Note_off_c, 0, 62, 64
2, 10269500, Note_off_c, 0, 34, 64
2, 10270000, Note_off_c, 0, 46, 64
2, 10271500, Note_on_c, 0, 62, 100
2, 10272000, Note_off_c, 0, 63, 64
2, 10272500, Note_on_c, 0, 58, 100
2, 10273000, Note_on_c, 0, 53, 100
2, 10273500, Note_off_c, 0, 51, 64
2, 10274000, Note_on_c, 0, 39, 100
2, 10277500, Note_on_c, 0, 51, 100
2, 10278000, Note_on_c, 0, 52, 100
2, 10279500, Note_on_c, 0, 63, 100
2, 10281000, Note_off_c, 0, 51, 64
2, 10281500, Note_off_c, 0, 68, 64
2, 10282000, Note_off_c, 0, 67, 64
2, 10282500, Note_off_c, 0, 52, 64
2, 10283000, Note_on_c, 0, 55, 100
2, 10286500, Note_off_c, 0, 55, 64
2, 10287000, Note_on_c, 0, 52, 100
2, 10288500, Note_on_c, 0, 51, 100
2, 10289000, Note_on_c, 0, 67, 100
2, 10290500, Note_off_c, 0, 67, 64
2, 10291000, Note_off_c, 0, 58, 64
2, 10291500, Note_off_c, 0, 52, 64
2, 10292000, Note_off_c, 0, 51, 64
2, 10292500, Note_off_c, 0, 39, 64
2, 10296000, Note_on_c, 0, 51, 100
2, 10296500, Note_off_c, 0, 50, 64
2, 10300000, Note_on_c, 0, 60, 100
2, 10300500, Note_on_c, 0, 55, 100
2, 10301000, Note_on_c, 0, 50, 100
2, 10301500, Note_on_c, 0, 48, 100
2, 10302000, Note_on_c, 0, 40, 100
2, 10302500, Note_on_c, 0, 52, 100
2, 10306000, Note_off_c, 0, 48, 64
2, 10306500, Note_off_c, 0, 50, 64
2, 10310000, Note_on_c, 0, 67, 100
2, 10310500, Note_off_c, 0, 60, 64
2, 10311000, Note_on_c, 0, 50, 100
2, 10311500, Note_off_c, 0, 52, 64
2, 10315000, Note_on_c, 0, 52, 100
2, 10315500, Note_off_c, 0, 50, 64
2, 10317000, Note_on_c, 0, 60, 100
2, 10318500, Note_on_c, 0, 70, 100
2, 10319000, Note_off_c, 0, 60, 64
2, 10319500, Note_off_c, 0, 55, 64
2, 10320000, Note_on_c, 0, 50, 100
2, 10320500, Note_off_c, 0, 52, 64
2, 10321000, Note_off_c, 0, 40, 64
2, 10324500, Note_on_c, 0, 52, 100
2, 10325000, Note_on_c, 0, 48, 100
2, 10328500, Note_on_c, 0, 60, 100
2, 10329000, Note_off_c, 0, 53, 64
2, 10329500, Note_off_c, 0, 48, 64
2, 10330000, Note_on_c, 0, 41, 100
2, 10333500, Note_on_c, 0, 53, 100
2, 10334000, Note_on_c, 0, 55, 100
2, 10337500, Note_off_c, 0, 70, 64
2, 10338000, Note_on_c, 0, 69, 100
2, 10338500, Note_off_c, 0, 55, 64
2, 10339000, Note_on_c, 0, 57, 100
2, 10342500, Note_off_c, 0, 57, 64
2, 10343000, Note_on_c, 0, 55, 100
2, 10344500, Note_off_c, 0, 69, 64
2, 10346000, Note_on_c, 0, 69, 100
2, 10346500, Note_off_c, 0, 60, 64
2, 10347000, Note_off_c, 0, 53, 64
2, 10347500, Note_off_c, 0, 55, 64
2, 10348000, Note_off_c, 0, 41, 64
2, 10351500, Note_on_c, 0, 53, 100
2, 10352000, Note_off_c, 0, 51, 64
2, 10355500, Note_off_c, 0, 62, 64
2, 10356000, Note_on_c, 0, 57, 100
2, 10356500, Note_on_c, 0, 51, 100
2, 10357000, Note_off_c, 0, 50, 64
2, 10357500, Note_on_c, 0, 42, 100
2, 10358000, Note_off_c, 0, 54, 64
2, 10361500, Note_on_c, 0, 50, 100
2, 10362000, Note_off_c, 0, 52, 64
2, 10365500, Note_off_c, 0, 69, 64
2, 10366000, Note_on_c, 0, 62, 100
2, 10366500, Note_on_c, 0, 52, 100
2, 10367000, Note_on_c, 0, 54, 100
2, 10370500, Note_off_c, 0, 54, 64
2, 10371000, Note_off_c, 0, 52, 64
2, 10372500, Note_off_c, 0, 62, 64
2, 10374000, Note_off_c, 0, 72, 64
2, 10374500, Note_on_c, 0, 62, 100
2, 10375000, Note_off_c, 0, 57, 64
2, 10375500, Note_on_c, 0, 52, 100
2, 10376000, Note_on_c, 0, 54, 100
2, 10376500, Note_off_c, 0, 42, 64
2, 10380000, Note_off_c, 0, 54, 64
2, 10380500, Note_off_c, 0, 50, 64
2, 10384000, Note_off_c, 0, 62, 64
2, 10384500, Note_on_c, 0, 55, 100
2, 10385000, Note_on_c, 0, 50, 100
2, 10385500, Note_on_c, 0, 43, 100
2, 10389000, Note_off_c, 0, 55, 64
2, 10389500, Note_on_c, 0, 54, 100
2, 10393000, Note_on_c, 0, 72, 100
2, 10393500, Note_on_c, 0, 70, 100
2, 10394000, Note_off_c, 0, 54, 64
2, 10394500, Note_on_c, 0, 55, 100
2, 10398000, Note_off_c, 0, 55, 64
2, 10398500, Note_on_c, 0, 57, 100
2, 10400000, Note_off_c, 0, 70, 64
2, 10401500, Note_off_c, 0, 74, 64
2, 10402000, Note_on_c, 0, 62, 100
2, 10402500, Note_on_c, 0, 55, 100
2, 10403000, Note_off_c, 0, 57, 64
2, 10403500, Note_on_c, 0, 58, 100
2, 10404000, Note_off_c, 0, 43, 64
2, 10407500, Note_off_c, 0, 58, 64
2, 10408000, Note_off_c, 0, 55, 64
2, 10411500, Note_off_c, 0, 63, 64
2, 10412000, Note_on_c, 0, 65, 100
2, 10412500, Note_on_c, 0, 60, 100
2, 10413000, Note_on_c, 0, 55, 100
2, 10413500, Note_on_c, 0, 57, 100
2, 10414000, Note_on_c, 0, 45, 100
2, 10417500, Note_off_c, 0, 57, 64
2, 10418000, Note_off_c, 0, 55, 64
2, 10421500, Note_on_c, 0, 74, 100
2, 10422000, Note_off_c, 0, 72, 64
2, 10422500, Note_on_c, 0, 55, 100
2, 10423000, Note_on_c, 0, 57, 100
2, 10426500, Note_off_c, 0, 57, 64
2, 10427000, Note_on_c, 0, 58, 100
2, 10428500, Note_on_c, 0, 72, 100
2, 10430000, Note_off_c, 0, 75, 64
2, 10430500, Note_on_c, 0, 63, 100
2, 10431000, Note_off_c, 0, 60, 64
2, 10431500, Note_off_c, 0, 65, 64
2, 10432000, Note_off_c, 0, 58, 64
2, 10432500, Note_off_c, 0, 45, 64
2, 10433000, Note_on_c, 0, 57, 100
2, 10436500, Note_on_c, 0, 60, 100
2, 10437000, Note_off_c, 0, 57, 64
2, 10438500, Note_off_c, 0, 60, 64
2, 10440000, Note_on_c, 0, 65, 100
2, 10440500, Note_on_c, 0, 58, 100
2, 10441000, Note_on_c, 0, 57, 100
2, 10441500, Note_on_c, 0, 46, 100
2, 10445000, Note_off_c, 0, 58, 64
2, 10445500, Note_off_c, 0, 57, 64
2, 10449000, Note_on_c, 0, 75, 100
2, 10449500, Note_off_c, 0, 74, 64
2, 10450000, Note_on_c, 0, 57, 100
2, 10450500, Note_on_c, 0, 58, 100
2, 10454000, Note_off_c, 0, 58, 64
2, 10454500, Note_on_c, 0, 60, 100
2, 10456000, Note_on_c, 0, 74, 100
2, 10457500, Note_off_c, 0, 77, 64
2, 10458000, Note_off_c, 0, 65, 64
2, 10458500, Note_off_c, 0, 62, 64
2, 10459000, Note_on_c, 0, 58, 100
2, 10459500, Note_off_c, 0, 60, 64
2, 10460000, Note_off_c, 0, 46, 64
2, 10463500, Note_on_c, 0, 62, 100
2, 10464000, Note_off_c, 0, 58, 64
2, 10465500, Note_off_c, 0, 62, 64
2, 10467000, Note_off_c, 0, 67, 64
2, 10467500, Note_on_c, 0, 58, 100
2, 10468000, Note_off_c, 0, 55, 64
2, 10468500, Note_off_c, 0, 51, 64
2, 10469000, Note_on_c, 0, 39, 100
2, 10472500, Note_on_c, 0, 51, 100
2, 10473000, Note_off_c, 0, 50, 64
2, 10476500, Note_on_c, 0, 77, 100
2, 10477000, Note_off_c, 0, 75, 64
2, 10477500, Note_on_c, 0, 50, 100
2, 10478000, Note_off_c, 0, 51, 64
2, 10481500, Note_on_c, 0, 75, 100
2, 10482000, Note_off_c, 0, 74, 64
2, 10482500, Note_on_c, 0, 67, 100
2, 10483000, Note_on_c, 0, 65, 100
2, 10483500, Note_on_c, 0, 51, 100
2, 10484000, Note_off_c, 0, 53, 64
2, 10487500, Note_on_c, 0, 74, 100
2, 10488000, Note_off_c, 0, 72, 64
2, 10488500, Note_off_c, 0, 65, 64
2, 10489000, Note_off_c, 0, 63, 64
2, 10489500, Note_off_c, 0, 58, 64
2, 10490000, Note_on_c, 0, 55, 100
2, 10490500, Note_on_c, 0, 53, 100
2, 10491000, Note_off_c, 0, 39, 64
2, 10491500, Note_off_c, 0, 51, 64
2, 10495000, Note_on_c, 0, 72, 100
2, 10495500, Note_on_c, 0, 70, 100
2, 10496000, Note_on_c, 0, 63, 100
2, 10496500, Note_on_c, 0, 62, 100
2, 10497000, Note_off_c, 0, 55, 64
2, 10497500, Note_on_c, 0, 51, 100
2, 10501000, Note_off_c, 0, 70, 64
2, 10501500, Note_on_c, 0, 69, 100
2, 10502000, Note_off_c, 0, 62, 64
2, 10502500, Note_on_c, 0, 60, 100
2, 10503000, Note_on_c, 0, 65, 100
2, 10503500, Note_off_c, 0, 51, 64
2, 10504000, Note_off_c, 0, 53, 64
2, 10504500, Note_on_c, 0, 41, 100
2, 10508000, Note_off_c, 0, 69, 64
2, 10508500, Note_off_c, 0, 67, 64
2, 10509000, Note_off_c, 0, 60, 64
2, 10509500, Note_on_c, 0, 58, 100
2, 10511000, Note_on_c, 0, 53, 100
2, 10512500, Note_on_c, 0, 67, 100
2, 10513000, Note_off_c, 0, 65, 64
2, 10513500, Note_off_c, 0, 58, 64
2, 10514000, Note_off_c, 0, 57, 64
2, 10514500, Note_off_c, 0, 41, 64
2, 10518000, Note_on_c, 0, 65, 100
2, 10518500, Note_off_c, 0, 63, 64
2, 10519000, Note_on_c, 0, 57, 100
2, 10519500, Note_on_c, 0, 55, 100
2, 10521000, Note_on_c, 0, 41, 100
2, 10522500, Note_on_c, 0, 63, 100
2, 10523000, Note_on_c, 0, 62, 100
2, 10523500, Note_off_c, 0, 55, 64
2, 10524000, Note_off_c, 0, 53, 64
2, 10524500, Note_off_c, 0, 65, 64
2, 10525000, Note_on_c, 0, 60, 100
2, 10525500, Note_off_c, 0, 41, 64
2, 10529000, Note_off_c, 0, 62, 64
2, 10529500, Note_off_c, 0, 60, 64
2, 10530000, Note_on_c, 0, 53, 100
2, 10530500, Note_on_c, 0, 51, 100
2, 10532000, Note_off_c, 0, 53, 64
2, 10533500, Note_on_c, 0, 60, 100
2, 10534000, Note_on_c, 0, 58, 100
2, 10534500, Note_off_c, 0, 51, 64
2, 10535000, Note_off_c, 0, 50, 64
2, 10535500, Note_on_c, 0, 46, 100
2, 10539000, Note_off_c, 0, 58, 64
2, 10539500, Note_off_c, 0, 57, 64
2, 10541000, Note_on_c, 0, 50, 100
2, 10542500, Note_on_c, 0, 57, 100
2, 10543000, Note_on_c, 0, 58, 100
2, 10543500, Note_off_c, 0, 46, 64
2, 10544000, Note_off_c, 0, 50, 64
2, 10547500, Note_on_c, 0, 53, 100
2, 10549000, Note_off_c, 0, 58, 64
2, 10549500, Note_on_c, 0, 50, 100
2, 10551000, Note_off_c, 0, 53, 64
2, 10551500, Note_on_c, 0, 55, 100
2, 10555000, Note_off_c, 0, 55, 64
2, 10555500, Note_off_c, 0, 57, 64
2, 10557000, Note_on_c, 0, 53, 100
2, 10558500, Note_on_c, 0, 57, 100
2, 10559000, Note_on_c, 0, 58, 100
2, 10559500, Note_on_c, 0, 45, 100
2, 10563000, Note_off_c, 0, 58, 64
2, 10563500, Note_off_c, 0, 57, 64
2, 10567000, Note_on_c, 0, 57, 100
2, 10567500, Note_on_c, 0, 58, 100
2, 10568000, Note_off_c, 0, 45, 64
2, 10568500, Note_off_c, 0, 50, 64
2, 10572000, Note_off_c, 0, 53, 64
2, 10573500, Note_off_c, 0, 58, 64
2, 10574000, Note_on_c, 0, 50, 100
2, 10575500, Note_on_c, 0, 53, 100
2, 10576000, Note_on_c, 0, 55, 100
2, 10579500, Note_off_c, 0, 55, 64
2, 10580000, Note_off_c, 0, 57, 64
2, 10581500, Note_off_c, 0, 53, 64
2, 10583000, Note_on_c, 0, 57, 100
2, 10583500, Note_on_c, 0, 58, 100
2, 10584000, Note_on_c, 0, 43, 100
2, 10587500, Note_off_c, 0, 58, 64
2, 10588000, Note_off_c, 0, 57, 64
2, 10591500, Note_on_c, 0, 57, 100
2, 10592000, Note_on_c, 0, 58, 100
2, 10592500, Note_off_c, 0, 43, 64
2, 10593000, Note_on_c, 0, 46, 100
2, 10596500, Note_on_c, 0, 53, 100
2, 10598000, Note_off_c, 0, 58, 64
2, 10598500, Note_off_c, 0, 46, 64
2, 10600000, Note_off_c, 0, 53, 64
2, 10600500, Note_on_c, 0, 55, 100
2, 10601000, Note_off_c, 0, 50, 64
2, 10604500, Note_off_c, 0, 55, 64
2, 10605000, Note_off_c, 0, 57, 64
2, 10606500, Note_on_c, 0, 50, 100
2, 10608000, Note_on_c, 0, 57, 100
2, 10608500, Note_on_c, 0, 58, 100
2, 10609000, Note_on_c, 0, 41, 100
2, 10612500, Note_off_c, 0, 58, 64
2, 10613000, Note_off_c, 0, 57, 64
2, 10616500, Note_on_c, 0, 57, 100
2, 10617000, Note_on_c, 0, 58, 100
2, 10617500, Note_off_c, 0, 41, 64
2, 10618000, Note_on_c, 0, 46, 100
2, 10621500, Note_on_c, 0, 55, 100
2, 10623000, Note_off_c, 0, 58, 64
2, 10623500, Note_off_c, 0, 46, 64
2, 10625000, Note_off_c, 0, 55, 64
2, 10625500, Note_off_c, 0, 57, 64
2, 10626000, Note_off_c, 0, 50, 64
2, 10629500, Note_on_c, 0, 57, 100
2, 10630000, Note_on_c, 0, 58, 100
2, 10631500, Note_on_c, 0, 50, 100
2, 10633000, Note_off_c, 0, 58, 64
2, 10633500, Note_off_c, 0, 60, 64
2, 10634000, Note_on_c, 0, 39, 100
2, 10637500, Note_on_c, 0, 60, 100
2, 10638000, Note_on_c, 0, 58, 100
2, 10641500, Note_off_c, 0, 58, 64
2, 10642000, Note_off_c, 0, 60, 64
2, 10642500, Note_off_c, 0, 39, 64
2, 10643000, Note_on_c, 0, 43, 100
2, 10646500, Note_on_c, 0, 60, 100
2, 10647000, Note_on_c, 0, 58, 100
2, 10647500, Note_on_c, 0, 55, 100
2, 10649000, Note_off_c, 0, 43, 64
2, 10650500, Note_off_c, 0, 58, 64
2, 10651000, Note_off_c, 0, 57, 64
2, 10651500, Note_off_c, 0, 55, 64
2, 10652000, Note_on_c, 0, 48, 100
2, 10655500, Note_on_c, 0, 57, 100
2, 10656000, Note_on_c, 0, 55, 100
2, 10656500, Note_on_c, 0, 58, 100
2, 10658000, Note_off_c, 0, 48, 64
2, 10659500, Note_off_c, 0, 55, 64
2, 10660000, Note_on_c, 0, 53, 100
2, 10660500, Note_off_c, 0, 58, 64
2, 10661000, Note_off_c, 0, 60, 64
2, 10661500, Note_on_c, 0, 45, 100
2, 10665000, Note_on_c, 0, 60, 100
2, 10665500, Note_on_c, 0, 58, 100
2, 10667000, Note_off_c, 0, 53, 64
2, 10668500, Note_off_c, 0, 57, 64
2, 10669000, Note_off_c, 0, 58, 64
2, 10669500, Note_off_c, 0, 60, 64
2, 10670000, Note_off_c, 0, 45, 64
2, 10670500, Note_on_c, 0, 48, 100
2, 10674000, Note_on_c, 0, 60, 100
2, 10674500, Note_on_c, 0, 58, 100
2, 10676000, Note_on_c, 0, 57, 100
2, 10676500, Note_off_c, 0, 48, 64
2, 10678000, Note_off_c, 0, 60, 64
2, 10678500, Note_off_c, 0, 58, 64
2, 10679000, Note_off_c, 0, 57, 64
2, 10679500, Note_on_c, 0, 41, 100
2, 10683000, Note_on_c, 0, 57, 100
2, 10683500, Note_on_c, 0, 55, 100
2, 10685000, Note_on_c, 0, 60, 100
2, 10685500, Note_off_c, 0, 41, 64
2, 10687000, Note_on_c, 0, 62, 100
2, 10687500, Note_off_c, 0, 55, 64
2, 10688000, Note_on_c, 0, 53, 100
2, 10688500, Note_on_c, 0, 46, 100
2, 10692000, Note_off_c, 0, 62, 64
2, 10692500, Note_off_c, 0, 60, 64
2, 10693000, Note_off_c, 0, 53, 64
2, 10693500, Note_on_c, 0, 51, 100
2, 10697000, Note_on_c, 0, 60, 100
2, 10697500, Note_on_c, 0, 62, 100
2, 10698000, Note_off_c, 0, 51, 64
2, 10698500, Note_on_c, 0, 53, 100
2, 10699000, Note_off_c, 0, 46, 64
2, 10699500, Note_off_c, 0, 50, 64
2, 10703000, Note_off_c, 0, 62, 64
2, 10703500, Note_off_c, 0, 63, 64
2, 10704000, Note_off_c, 0, 53, 64
2, 10704500, Note_on_c, 0, 55, 100
2, 10706000, Note_on_c, 0, 50, 100
2, 10707500, Note_on_c, 0, 63, 100
2, 10708000, Note_on_c, 0, 62, 100
2, 10708500, Note_off_c, 0, 55, 64
2, 10709000, Note_on_c, 0, 53, 100
2, 10712500, Note_off_c, 0, 62, 64
2, 10713000, Note_off_c, 0, 60, 64
2, 10713500, Note_off_c, 0, 53, 64
2, 10714000, Note_on_c, 0, 51, 100
2, 10715500, Note_on_c, 0, 53, 100
2, 10717000, Note_on_c, 0, 60, 100
2, 10717500, Note_on_c, 0, 58, 100
2, 10718000, Note_off_c, 0, 51, 64
2, 10718500, Note_off_c, 0, 50, 64
2, 10722000, Note_off_c, 0, 58, 64
2, 10722500, Note_on_c, 0, 62, 100
2, 10726000, Note_off_c, 0, 62, 64
2, 10726500, Note_on_c, 0, 65, 100
2, 10727000, Note_on_c, 0, 58, 100
2, 10727500, Note_off_c, 0, 57, 64
2, 10731000, Note_off_c, 0, 65, 64
2, 10731500, Note_on_c, 0, 70, 100
2, 10733000, Note_on_c, 0, 57, 100
2, 10734500, Note_off_c, 0, 70, 64
2, 10735000, Note_off_c, 0, 74, 64
2, 10735500, Note_on_c, 0, 50, 100
2, 10736000, Note_off_c, 0, 77, 64
2, 10736500, Note_off_c, 0, 58, 64
2, 10740000, Note_on_c, 0, 74, 100
2, 10740500, Note_off_c, 0, 75, 64
2, 10742000, Note_on_c, 0, 58, 100
2, 10743500, Note_on_c, 0, 75, 100
2, 10744000, Note_on_c, 0, 77, 100
2, 10744500, Note_on_c, 0, 70, 100
2, 10745000, Note_on_c, 0, 65, 100
2, 10745500, Note_off_c, 0, 50, 64
2, 10746000, Note_on_c, 0, 38, 100
2, 10751500, Note_off_c, 0, 77, 64
2, 10753000, Note_off_c, 0, 70, 64
2, 10758500, Note_on_c, 0, 70, 100
2, 10760000, Note_off_c, 0, 74, 64
2, 10760500, Note_off_c, 0, 70, 64
2, 10761000, Note_off_c, 0, 65, 64
2, 10761500, Note_on_c, 0, 50, 100
2, 10762000, Note_off_c, 0, 38, 64
2, 10769500, Note_on_c, 0, 70, 100
2, 10770000, Note_on_c, 0, 65, 100
2, 10770500, Note_on_c, 0, 55, 100
2, 10771000, Note_on_c, 0, 43, 100
2, 10778500, Note_on_c, 0, 74, 100
2, 10779000, Note_off_c, 0, 67, 64
2, 10784500, Note_on_c, 0, 67, 100
2, 10786000, Note_off_c, 0, 75, 64
2, 10786500, Note_off_c, 0, 70, 64
2, 10787000, Note_off_c, 0, 65, 64
2, 10787500, Note_off_c, 0, 55, 64
2, 10788000, Note_off_c, 0, 43, 64
2, 10795500, Note_on_c, 0, 70, 100
2, 10796000, Note_off_c, 0, 63, 64
2, 10796500, Note_on_c, 0, 48, 100
2, 10797000, Note_on_c, 0, 36, 100
2, 10804500, Note_on_c, 0, 75, 100
2, 10805000, Note_on_c, 0, 69, 100
2, 10810500, Note_off_c, 0, 69, 64
2, 10812000, Note_off_c, 0, 72, 64
2, 10812500, Note_off_c, 0, 70, 64
2, 10813000, Note_on_c, 0, 63, 100
2, 10813500, Note_off_c, 0, 48, 64
2, 10814000, Note_off_c, 0, 36, 64
2, 10821500, Note_on_c, 0, 69, 100
2, 10822000, Note_on_c, 0, 65, 100
2, 10822500, Note_off_c, 0, 53, 64
2, 10823000, Note_on_c, 0, 41, 100
2, 10830500, Note_on_c, 0, 72, 100
2, 10831000, Note_off_c, 0, 65, 64
2, 10836500, Note_on_c, 0, 65, 100
2, 10838000, Note_off_c, 0, 74, 64
2, 10838500, Note_off_c, 0, 69, 64
2, 10839000, Note_off_c, 0, 65, 64
2, 10839500, Note_on_c, 0, 53, 100
2, 10840000, Note_off_c, 0, 41, 64
2, 10847500, Note_on_c, 0, 70, 100
2, 10848000, Note_on_c, 0, 65, 100
2, 10848500, Note_on_c, 0, 46, 100
2, 10849000, Note_on_c, 0, 34, 100
2, 10852500, Note_on_c, 0, 74, 100
2, 10853000, Note_off_c, 0, 70, 64
2, 10856500, Note_on_c, 0, 70, 100
2, 10857000, Note_on_c, 0, 69, 100
2, 10857500, Note_off_c, 0, 74, 64
2, 10858000, Note_off_c, 0, 65, 64
2, 10861500, Note_off_c, 0, 69, 64
2, 10862000, Note_off_c, 0, 67, 64
2, 10863500, Note_on_c, 0, 65, 100
2, 10865000, Note_on_c, 0, 67, 100
2, 10865500, Note_off_c, 0, 65, 64
2, 10866000, Note_off_c, 0, 70, 64
2, 10866500, Note_off_c, 0, 46, 64
2, 10867000, Note_off_c, 0, 58, 64
2, 10867500, Note_off_c, 0, 34, 64
2, 10871000, Note_on_c, 0, 65, 100
2, 10871500, Note_off_c, 0, 63, 64
2, 10873000, Note_on_c, 0, 58, 100
2, 10874500, Note_on_c, 0, 63, 100
2, 10875000, Note_on_c, 0, 62, 100
2, 10875500, Note_on_c, 0, 46, 100
2, 10879000, Note_off_c, 0, 62, 64
2, 10879500, Note_off_c, 0, 67, 64
2, 10883000, Note_on_c, 0, 67, 100
2, 10883500, Note_off_c, 0, 65, 64
2, 10884000, Note_on_c, 0, 70, 100
2, 10884500, Note_on_c, 0, 62, 100
2, 10888000, Note_on_c, 0, 65, 100
2, 10888500, Note_off_c, 0, 63, 64
2, 10890000, Note_off_c, 0, 62, 64
2, 10891500, Note_on_c, 0, 63, 100
2, 10892000, Note_on_c, 0, 62, 100
2, 10892500, Note_off_c, 0, 65, 64
2, 10893000, Note_off_c, 0, 46, 64
2, 10893500, Note_off_c, 0, 58, 64
2, 10897000, Note_off_c, 0, 62, 64
2, 10897500, Note_off_c, 0, 60, 64
2, 10899000, Note_on_c, 0, 58, 100
2, 10900500, Note_on_c, 0, 60, 100
2, 10901000, Note_off_c, 0, 58, 64
2, 10901500, Note_on_c, 0, 46, 100
2, 10905000, Note_on_c, 0, 58, 100
2, 10905500, Note_off_c, 0, 53, 64
2, 10909000, Note_on_c, 0, 53, 100
2, 10909500, Note_on_c, 0, 55, 100
2, 10910000, Note_on_c, 0, 65, 100
2, 10910500, Note_off_c, 0, 58, 64
2, 10914000, Note_off_c, 0, 55, 64
2, 10914500, Note_off_c, 0, 57, 64
2, 10916000, Note_on_c, 0, 58, 100
2, 10917500, Note_on_c, 0, 57, 100
2, 10918000, Note_off_c, 0, 58, 64
2, 10918500, Note_on_c, 0, 62, 100
2, 10919000, Note_off_c, 0, 46, 64
2, 10922500, Note_on_c, 0, 58, 100
2, 10923000, Note_off_c, 0, 60, 64
2, 10924500, Note_off_c, 0, 62, 64
2, 10925000, Note_off_c, 0, 58, 64
2, 10926500, Note_on_c, 0, 60, 100
2, 10927000, Note_on_c, 0, 62, 100
2, 10927500, Note_off_c, 0, 65, 64
2, 10928000, Note_on_c, 0, 46, 100
2, 10931500, Note_off_c, 0, 62, 64
2, 10932000, Note_off_c, 0, 60, 64
2, 10933500, Note_on_c, 0, 65, 100
2, 10935000, Note_on_c, 0, 60, 100
2, 10935500, Note_on_c, 0, 58, 100
2, 10936000, Note_on_c, 0, 62, 100
2, 10939500, Note_off_c, 0, 58, 64
2, 10940000, Note_off_c, 0, 60, 64
2, 10941500, Note_off_c, 0, 62, 64
2, 10943000, Note_on_c, 0, 60, 100
2, 10943500, Note_on_c, 0, 62, 100
2, 10944000, Note_off_c, 0, 65, 64
2, 10944500, Note_off_c, 0, 46, 64
2, 10945000, Note_on_c, 0, 58, 100
2, 10948500, Note_off_c, 0, 62, 64
2, 10949000, Note_off_c, 0, 63, 64
2, 10950500, Note_on_c, 0, 65, 100
2, 10951000, Note_off_c, 0, 58, 64
2, 10952500, Note_on_c, 0, 63, 100
2, 10953000, Note_off_c, 0, 65, 64
2, 10953500, Note_off_c, 0, 70, 64
2, 10954000, Note_on_c, 0, 62, 100
2, 10954500, Note_on_c, 0, 58, 100
2, 10955000, Note_on_c, 0, 46, 100
2, 10955500, Note_on_c, 0, 34, 100
2, 10961000, Note_on_c, 0, 65, 100
2, 10961500, Note_on_c, 0, 70, 100
2, 10963000, Note_off_c, 0, 58, 64
2, 10963500, Note_off_c, 0, 65, 64
2, 10969000, Note_on_c, 0, 58, 100
2, 10969500, Note_on_c, 0, 65, 100
2, 10971000, Note_off_c, 0, 67, 64
2, 10971500, Note_off_c, 0, 62, 64
2, 10972000, Note_off_c, 0, 58, 64
2, 10972500, Note_off_c, 0, 46, 64
2, 10973000, Note_off_c, 0, 34, 64
2, 10980500, Note_off_c, 0, 63, 64
2, 10981000, Note_on_c, 0, 58, 100
2, 10981500, Note_on_c, 0, 46, 100
2, 10989000, Note_on_c, 0, 67, 100
2, 10989500, Note_off_c, 0, 65, 64
2, 10993000, Note_on_c, 0, 65, 100
2, 10993500, Note_on_c, 0, 63, 100
2, 10995000, Note_off_c, 0, 65, 64
2, 10996500, Note_off_c, 0, 70, 64
2, 10997000, Note_off_c, 0, 63, 64
2, 10997500, Note_on_c, 0, 62, 100
2, 10998000, Note_off_c, 0, 58, 64
2, 10998500, Note_off_c, 0, 46, 64
2, 11002000, Note_off_c, 0, 62, 64
2, 11002500, Note_off_c, 0, 60, 64
2, 11006000, Note_on_c, 0, 60, 100
2, 11006500, Note_on_c, 0, 62, 100
2, 11007000, Note_on_c, 0, 65, 100
2, 11007500, Note_on_c, 0, 58, 100
2, 11008000, Note_on_c, 0, 46, 100
2, 11008500, Note_on_c, 0, 34, 100
2, 11012000, Note_off_c, 0, 62, 64
2, 11012500, Note_on_c, 0, 63, 100
2, 11016000, Note_on_c, 0, 70, 100
2, 11016500, Note_off_c, 0, 65, 64
2, 11017000, Note_off_c, 0, 63, 64
2, 11020500, Note_on_c, 0, 65, 100
2, 11021000, Note_on_c, 0, 63, 100
2, 11022500, Note_off_c, 0, 65, 64
2, 11024000, Note_off_c, 0, 67, 64
2, 11024500, Note_off_c, 0, 63, 64
2, 11025000, Note_on_c, 0, 62, 100
2, 11025500, Note_on_c, 0, 65, 100
2, 11026000, Note_off_c, 0, 58, 64
2, 11026500, Note_off_c, 0, 46, 64
2, 11027000, Note_off_c, 0, 34, 64
2, 11030500, Note_off_c, 0, 62, 64
2, 11031000, Note_off_c, 0, 60, 64
2, 11034500, Note_on_c, 0, 60, 100
2, 11035000, Note_on_c, 0, 58, 100
2, 11035500, Note_on_c, 0, 46, 100
2, 11039000, Note_off_c, 0, 58, 64
2, 11039500, Note_off_c, 0, 60, 64
2, 11043000, Note_on_c, 0, 67, 100
2, 11043500, Note_off_c, 0, 65, 64
2, 11044000, Note_on_c, 0, 60, 100
2, 11044500, Note_on_c, 0, 62, 100
2, 11048000, Note_off_c, 0, 62, 64
2, 11048500, Note_off_c, 0, 60, 64
2, 11050000, Note_on_c, 0, 65, 100
2, 11051500, Note_off_c, 0, 70, 64
2, 11052000, Note_on_c, 0, 60, 100
2, 11052500, Note_on_c, 0, 58, 100
2, 11053000, Note_off_c, 0, 46, 64
2, 11056500, Note_off_c, 0, 58, 64
2, 11057000, Note_off_c, 0, 57, 64
2, 11058500, Note_on_c, 0, 46, 100
2, 11060000, Note_on_c, 0, 57, 100
2, 11060500, Note_on_c, 0, 55, 100
2, 11061000, Note_on_c, 0, 51, 100
2, 11064500, Note_off_c, 0, 55, 64
2, 11065000, Note_off_c, 0, 57, 64
2, 11068500, Note_on_c, 0, 70, 100
2, 11069000, Note_off_c, 0, 67, 64
2, 11069500, Note_on_c, 0, 57, 100
2, 11070000, Note_on_c, 0, 58, 100
2, 11073500, Note_off_c, 0, 58, 64
2, 11074000, Note_on_c, 0, 62, 100
2, 11075500, Note_on_c, 0, 67, 100
2, 11077000, Note_off_c, 0, 75, 64
2, 11077500, Note_off_c, 0, 62, 64
2, 11078000, Note_off_c, 0, 60, 64
2, 11078500, Note_off_c, 0, 51, 64
2, 11079000, Note_on_c, 0, 48, 100
2, 11082500, Note_on_c, 0, 60, 100
2, 11083000, Note_on_c, 0, 58, 100
2, 11084500, Note_off_c, 0, 48, 64
2, 11086000, Note_off_c, 0, 58, 64
2, 11086500, Note_off_c, 0, 57, 64
2, 11087000, Note_off_c, 0, 53, 64
2, 11090500, Note_on_c, 0, 57, 100
2, 11091000, Note_on_c, 0, 58, 100
2, 11094500, Note_on_c, 0, 75, 100
2, 11095000, Note_on_c, 0, 69, 100
2, 11095500, Note_off_c, 0, 58, 64
2, 11096000, Note_off_c, 0, 60, 64
2, 11099500, Note_on_c, 0, 60, 100
2, 11100000, Note_on_c, 0, 63, 100
2, 11101500, Note_off_c, 0, 69, 64
2, 11103000, Note_on_c, 0, 77, 100
2, 11103500, Note_off_c, 0, 63, 64
2, 11104000, Note_on_c, 0, 62, 100
2, 11104500, Note_on_c, 0, 53, 100
2, 11105000, Note_off_c, 0, 57, 64
2, 11108500, Note_off_c, 0, 62, 64
2, 11109000, Note_off_c, 0, 60, 64
2, 11110500, Note_on_c, 0, 57, 100
2, 11112000, Note_off_c, 0, 77, 64
2, 11112500, Note_on_c, 0, 74, 100
2, 11113000, Note_on_c, 0, 60, 100
2, 11113500, Note_on_c, 0, 58, 100
2, 11117000, Note_off_c, 0, 58, 64
2, 11117500, Note_off_c, 0, 57, 64
2, 11119000, Note_off_c, 0, 74, 64
2, 11119500, Note_on_c, 0, 58, 100
2, 11121000, Note_off_c, 0, 70, 64
2, 11121500, Note_on_c, 0, 57, 100
2, 11122000, Note_off_c, 0, 58, 64
2, 11122500, Note_off_c, 0, 50, 64
2, 11126000, Note_on_c, 0, 58, 100
2, 11126500, Note_on_c, 0, 62, 100
2, 11128000, Note_on_c, 0, 70, 100
2, 11128500, Note_on_c, 0, 50, 100
2, 11130000, Note_on_c, 0, 69, 100
2, 11130500, Note_off_c, 0, 62, 64
2, 11131000, Note_off_c, 0, 60, 64
2, 11131500, Note_off_c, 0, 53, 64
2, 11135000, Note_on_c, 0, 60, 100
2, 11135500, Note_on_c, 0, 63, 100
2, 11137000, Note_off_c, 0, 69, 64
2, 11137500, Note_on_c, 0, 53, 100
2, 11139000, Note_off_c, 0, 70, 64
2, 11139500, Note_off_c, 0, 63, 64
2, 11140000, Note_on_c, 0, 62, 100
2, 11140500, Note_off_c, 0, 46, 64
2, 11144000, Note_on_c, 0, 70, 100
2, 11144500, Note_off_c, 0, 65, 64
2, 11145000, Note_off_c, 0, 62, 64
2, 11148500, Note_on_c, 0, 65, 100
2, 11149000, Note_on_c, 0, 62, 100
2, 11152500, Note_off_c, 0, 62, 64
2, 11153000, Note_off_c, 0, 58, 64
2, 11156500, Note_on_c, 0, 58, 100
2, 11157000, Note_on_c, 0, 62, 100
2, 11157500, Note_on_c, 0, 46, 100
2, 11161000, Note_off_c, 0, 62, 64
2, 11161500, Note_off_c, 0, 65, 64
2, 11165000, Note_on_c, 0, 65, 100
2, 11165500, Note_off_c, 0, 70, 64
2, 11166000, Note_on_c, 0, 62, 100
2, 11166500, Note_off_c, 0, 58, 64
2, 11167000, Note_off_c, 0, 46, 64
2, 11174500, Note_on_c, 0, 70, 100
2, 11175000, Note_on_c, 0, 69, 100
2, 11180500, Note_off_c, 0, 69, 64
2, 11182000, Note_off_c, 0, 70, 64
2, 11182500, Note_off_c, 0, 65, 64
2, 11183000, Note_off_c, 0, 62, 64
2, 11183500, Note_on_c, 0, 58, 100
2, 11184000, Note_on_c, 0, 46, 100
2, 11189500, Note_on_c, 0, 70, 100
2, 11191000, Note_on_c, 0, 62, 100
2, 11191500, Note_on_c, 0, 65, 100
2, 11192000, Note_off_c, 0, 58, 64
2, 11192500, Note_off_c, 0, 57, 64
2, 11193000, Note_on_c, 0, 45, 100
2, 11200500, Note_off_c, 0, 62, 64
2, 11201000, Note_off_c, 0, 65, 64
2, 11206500, Note_on_c, 0, 65, 100
2, 11208000, Note_off_c, 0, 70, 64
2, 11208500, Note_off_c, 0, 65, 64
2, 11209000, Note_on_c, 0, 58, 100
2, 11209500, Note_on_c, 0, 57, 100
2, 11210000, Note_off_c, 0, 45, 64
2, 11215500, Note_on_c, 0, 70, 100
2, 11217000, Note_off_c, 0, 70, 64
2, 11217500, Note_off_c, 0, 67, 64
2, 11218000, Note_on_c, 0, 62, 100
2, 11218500, Note_on_c, 0, 55, 100
2, 11219000, Note_on_c, 0, 43, 100
2, 11226500, Note_on_c, 0, 70, 100
2, 11227000, Note_on_c, 0, 69, 100
2, 11232500, Note_off_c, 0, 69, 64
2, 11234000, Note_off_c, 0, 70, 64
2, 11234500, Note_on_c, 0, 67, 100
2, 11235000, Note_off_c, 0, 62, 64
2, 11235500, Note_off_c, 0, 55, 64
2, 11236000, Note_off_c, 0, 43, 64
2, 11241500, Note_on_c, 0, 70, 100
2, 11243000, Note_on_c, 0, 62, 100
2, 11243500, Note_off_c, 0, 70, 64
2, 11244000, Note_on_c, 0, 65, 100
2, 11244500, Note_off_c, 0, 53, 64
2, 11245000, Note_on_c, 0, 41, 100
2, 11252500, Note_off_c, 0, 62, 64
2, 11253000, Note_off_c, 0, 65, 64
2, 11258500, Note_on_c, 0, 65, 100
2, 11260000, Note_on_c, 0, 70, 100
2, 11260500, Note_off_c, 0, 65, 64
2, 11261000, Note_on_c, 0, 53, 100
2, 11261500, Note_off_c, 0, 41, 64
2, 11267000, Note_off_c, 0, 70, 64
2, 11268500, Note_off_c, 0, 72, 64
2, 11269000, Note_on_c, 0, 70, 100
2, 11269500, Note_off_c, 0, 67, 64
2, 11270000, Note_on_c, 0, 51, 100
2, 11270500, Note_on_c, 0, 39, 100
2, 11278000, Note_on_c, 0, 72, 100
2, 11278500, Note_off_c, 0, 70, 64
2, 11284000, Note_on_c, 0, 70, 100
2, 11285500, Note_off_c, 0, 72, 64
2, 11286000, Note_off_c, 0, 70, 64
2, 11286500, Note_on_c, 0, 67, 100
2, 11287000, Note_off_c, 0, 51, 64
2, 11287500, Note_off_c, 0, 39, 64
2, 11293000, Note_on_c, 0, 72, 100
2, 11294500, Note_on_c, 0, 65, 100
2, 11295000, Note_on_c, 0, 69, 100
2, 11295500, Note_off_c, 0, 53, 64
2, 11296000, Note_on_c, 0, 41, 100
2, 11303500, Note_off_c, 0, 65, 64
2, 11304000, Note_off_c, 0, 69, 64
2, 11309500, Note_on_c, 0, 69, 100
2, 11311000, Note_off_c, 0, 72, 64
2, 11311500, Note_off_c, 0, 69, 64
2, 11312000, Note_on_c, 0, 65, 100
2, 11312500, Note_on_c, 0, 53, 100
2, 11313000, Note_off_c, 0, 41, 64
2, 11318500, Note_on_c, 0, 72, 100
2, 11320000, Note_on_c, 0, 74, 100
2, 11320500, Note_on_c, 0, 70, 100
2, 11321000, Note_off_c, 0, 65, 64
2, 11321500, Note_off_c, 0, 46, 64
2, 11322000, Note_on_c, 0, 34, 100
2, 11329500, Note_off_c, 0, 74, 64
2, 11330000, Note_off_c, 0, 72, 64
2, 11330500, Note_off_c, 0, 70, 64
2, 11331000, Note_on_c, 0, 69, 100
2, 11331500, Note_on_c, 0, 65, 100
2, 11332000, Note_on_c, 0, 63, 100
2, 11337500, Note_on_c, 0, 72, 100
2, 11338000, Note_off_c, 0, 69, 64
2, 11338500, Note_off_c, 0, 63, 64
2, 11340000, Note_on_c, 0, 74, 100
2, 11340500, Note_on_c, 0, 70, 100
2, 11341000, Note_off_c, 0, 65, 64
2, 11341500, Note_on_c, 0, 46, 100
2, 11342000, Note_off_c, 0, 53, 64
2, 11342500, Note_off_c, 0, 34, 64
2, 11343000, Note_on_c, 0, 41, 100
2, 11348500, Note_off_c, 0, 74, 64
2, 11349000, Note_off_c, 0, 70, 64
2, 11349500, Note_on_c, 0, 65, 100
2, 11350000, Note_on_c, 0, 53, 100
2, 11350500, Note_off_c, 0, 41, 64
2, 11352000, Note_on_c, 0, 70, 100
2, 11352500, Note_off_c, 0, 65, 64
2, 11353000, Note_on_c, 0, 62, 100
2, 11353500, Note_off_c, 0, 58, 64
2, 11354000, Note_off_c, 0, 46, 64
2, 11361500, Note_off_c, 0, 62, 64
2, 11362000, Note_off_c, 0, 60, 64
2, 11362500, Note_on_c, 0, 58, 100
2, 11363000, Note_off_c, 0, 57, 64
2, 11363500, Note_on_c, 0, 46, 100
2, 11364000, Note_on_c, 0, 45, 100
2, 11369500, Note_on_c, 0, 60, 100
2, 11370000, Note_on_c, 0, 57, 100
2, 11370500, Note_off_c, 0, 45, 64
2, 11372000, Note_off_c, 0, 70, 64
2, 11372500, Note_on_c, 0, 74, 100
2, 11373000, Note_on_c, 0, 65, 100
2, 11373500, Note_on_c, 0, 62, 100
2, 11374000, Note_off_c, 0, 58, 64
2, 11374500, Note_off_c, 0, 46, 64
2, 11380000, Note_off_c, 0, 65, 64
2, 11380500, Note_off_c, 0, 62, 64
2, 11381000, Note_on_c, 0, 58, 100
2, 11381500, Note_on_c, 0, 46, 100
2, 11383000, Note_off_c, 0, 67, 64
2, 11383500, Note_on_c, 0, 55, 100
2, 11384000, Note_off_c, 0, 52, 64
2, 11384500, Note_on_c, 0, 40, 100
2, 11392000, Note_off_c, 0, 74, 64
2, 11392500, Note_on_c, 0, 67, 100
2, 11398000, Note_off_c, 0, 67, 64
2, 11399500, Note_on_c, 0, 70, 100
2, 11400000, Note_on_c, 0, 67, 100
2, 11400500, Note_off_c, 0, 55, 64
2, 11401000, Note_on_c, 0, 52, 100
2, 11401500, Note_off_c, 0, 40, 64
2, 11409000, Note_off_c, 0, 67, 64
2, 11409500, Note_on_c, 0, 64, 100
2, 11410000, Note_on_c, 0, 48, 100
2, 11410500, Note_on_c, 0, 36, 100
2, 11418000, Note_off_c, 0, 70, 64
2, 11418500, Note_off_c, 0, 64, 64
2, 11424000, Note_on_c, 0, 64, 100
2, 11425500, Note_off_c, 0, 72, 64
2, 11426000, Note_on_c, 0, 67, 100
2, 11426500, Note_off_c, 0, 64, 64
2, 11427000, Note_off_c, 0, 48, 64
2, 11427500, Note_off_c, 0, 36, 64
2, 11435000, Note_on_c, 0, 65, 100
2, 11435500, Note_off_c, 0, 57, 64
2, 11436000, Note_off_c, 0, 50, 64
2, 11436500, Note_on_c, 0, 38, 100
2, 11444000, Note_on_c, 0, 72, 100
2, 11444500, Note_off_c, 0, 65, 64
2, 11450000, Note_on_c, 0, 65, 100
2, 11451500, Note_on_c, 0, 69, 100
2, 11452000, Note_off_c, 0, 65, 64
2, 11452500, Note_on_c, 0, 57, 100
2, 11453000, Note_on_c, 0, 50, 100
2, 11453500, Note_off_c, 0, 38, 64
2, 11461000, Note_on_c, 0, 65, 100
2, 11461500, Note_on_c, 0, 62, 100
2, 11462000, Note_off_c, 0, 46, 64
2, 11462500, Note_on_c, 0, 34, 100
2, 11470000, Note_off_c, 0, 69, 64
2, 11470500, Note_off_c, 0, 62, 64
2, 11476000, Note_on_c, 0, 62, 100
2, 11477500, Note_on_c, 0, 70, 100
2, 11478000, Note_off_c, 0, 65, 64
2, 11478500, Note_off_c, 0, 62, 64
2, 11479000, Note_on_c, 0, 46, 100
2, 11479500, Note_off_c, 0, 34, 64
2, 11487000, Note_on_c, 0, 64, 100
2, 11487500, Note_on_c, 0, 55, 100
2, 11488000, Note_on_c, 0, 48, 100
2, 11488500, Note_on_c, 0, 36, 100
2, 11496000, Note_off_c, 0, 70, 64
2, 11496500, Note_off_c, 0, 64, 64
2, 11502000, Note_on_c, 0, 64, 100
2, 11503500, Note_off_c, 0, 67, 64
2, 11504000, Note_off_c, 0, 64, 64
2, 11504500, Note_off_c, 0, 60, 64
2, 11505000, Note_off_c, 0, 55, 64
2, 11505500, Note_off_c, 0, 52, 64
2, 11506000, Note_off_c, 0, 48, 64
2, 11506500, Note_off_c, 0, 46, 64
2, 11507000, Note_off_c, 0, 36, 64
2, 11507500, Note_on_c, 0, 34, 100
2, 11513000, Note_on_c, 0, 60, 100
2, 11513500, Note_on_c, 0, 52, 100
2, 11514000, Note_on_c, 0, 46, 100
2, 11514500, Note_off_c, 0, 34, 64
2, 11516000, Note_off_c, 0, 60, 64
2, 11516500, Note_off_c, 0, 57, 64
2, 11517000, Note_on_c, 0, 45, 100
2, 11517500, Note_on_c, 0, 33, 100
2, 11525000, Note_on_c, 0, 67, 100
2, 11525500, Note_on_c, 0, 60, 100
2, 11531000, Note_off_c, 0, 60, 64
2, 11532500, Note_on_c, 0, 70, 100
2, 11533000, Note_on_c, 0, 60, 100
2, 11533500, Note_on_c, 0, 64, 100
2, 11534000, Note_on_c, 0, 57, 100
2, 11534500, Note_off_c, 0, 58, 64
2, 11535000, Note_off_c, 0, 45, 64
2, 11535500, Note_on_c, 0, 43, 100
2, 11536000, Note_off_c, 0, 33, 64
2, 11536500, Note_on_c, 0, 31, 100
2, 11542000, Note_off_c, 0, 70, 64
2, 11542500, Note_off_c, 0, 64, 64
2, 11543000, Note_on_c, 0, 58, 100
2, 11543500, Note_off_c, 0, 43, 64
2, 11544000, Note_off_c, 0, 31, 64
2, 11545500, Note_on_c, 0, 69, 100
2, 11546000, Note_on_c, 0, 65, 100
2, 11546500, Note_off_c, 0, 60, 64
2, 11547000, Note_on_c, 0, 41, 100
2, 11547500, Note_on_c, 0, 29, 100
2, 11555000, Note_off_c, 0, 69, 64
2, 11555500, Note_off_c, 0, 67, 64
2, 11556000, Note_off_c, 0, 65, 64
2, 11556500, Note_on_c, 0, 64, 100
2, 11557000, Note_on_c, 0, 60, 100
2, 11557500, Note_off_c, 0, 58, 64
2, 11563000, Note_on_c, 0, 67, 100
2, 11563500, Note_off_c, 0, 64, 64
2, 11564000, Note_on_c, 0, 58, 100
2, 11565500, Note_on_c, 0, 69, 100
2, 11566000, Note_on_c, 0, 65, 100
2, 11566500, Note_off_c, 0, 60, 64
2, 11567000, Note_off_c, 0, 41, 64
2, 11567500, Note_on_c, 0, 48, 100
2, 11568000, Note_on_c, 0, 36, 100
2, 11568500, Note_off_c, 0, 29, 64
2, 11574000, Note_off_c, 0, 69, 64
2, 11574500, Note_off_c, 0, 65, 64
2, 11575000, Note_on_c, 0, 60, 100
2, 11575500, Note_off_c, 0, 48, 64
2, 11576000, Note_off_c, 0, 36, 64
2, 11577500, Note_on_c, 0, 65, 100
2, 11578000, Note_off_c, 0, 60, 64
2, 11578500, Note_off_c, 0, 57, 64
2, 11579000, Note_off_c, 0, 53, 64
2, 11579500, Note_on_c, 0, 41, 100
2, 11587000, Note_off_c, 0, 65, 64
2, 11587500, Note_on_c, 0, 69, 100
2, 11588000, Note_on_c, 0, 57, 100
2, 11588500, Note_on_c, 0, 55, 100
2, 11589000, Note_on_c, 0, 53, 100
2, 11589500, Note_on_c, 0, 51, 100
2, 11590000, Note_off_c, 0, 41, 64
2, 11590500, Note_on_c, 0, 39, 100
2, 11596000, Note_off_c, 0, 69, 64
2, 11596500, Note_off_c, 0, 55, 64
2, 11597000, Note_off_c, 0, 51, 64
2, 11597500, Note_off_c, 0, 39, 64
2, 11599000, Note_off_c, 0, 72, 64
2, 11599500, Note_on_c, 0, 60, 100
2, 11600000, Note_on_c, 0, 65, 100
2, 11600500, Note_off_c, 0, 57, 64
2, 11601000, Note_off_c, 0, 53, 64
2, 11601500, Note_on_c, 0, 41, 100
2, 11607000, Note_on_c, 0, 72, 100
2, 11607500, Note_off_c, 0, 65, 64
2, 11608000, Note_on_c, 0, 57, 100
2, 11608500, Note_on_c, 0, 53, 100
2, 11609000, Note_off_c, 0, 41, 64
2, 11610500, Note_on_c, 0, 77, 100
2, 11611000, Note_on_c, 0, 65, 100
2, 11611500, Note_off_c, 0, 58, 64
2, 11612000, Note_off_c, 0, 50, 64
2, 11612500, Note_on_c, 0, 38, 100
2, 11618000, Note_off_c, 0, 77, 64
2, 11619500, Note_on_c, 0, 70, 100
2, 11625000, Note_off_c, 0, 70, 64
2, 11626500, Note_on_c, 0, 74, 100
2, 11627000, Note_off_c, 0, 65, 64
2, 11627500, Note_on_c, 0, 58, 100
2, 11628000, Note_on_c, 0, 50, 100
2, 11628500, Note_off_c, 0, 38, 64
2, 11636000, Note_on_c, 0, 65, 100
2, 11636500, Note_off_c, 0, 58, 64
2, 11637000, Note_on_c, 0, 55, 100
2, 11637500, Note_on_c, 0, 43, 100
2, 11645000, Note_off_c, 0, 74, 64
2, 11645500, Note_off_c, 0, 67, 64
2, 11651000, Note_on_c, 0, 67, 100
2, 11652500, Note_off_c, 0, 75, 64
2, 11653000, Note_off_c, 0, 65, 64
2, 11653500, Note_on_c, 0, 58, 100
2, 11654000, Note_off_c, 0, 55, 64
2, 11654500, Note_off_c, 0, 43, 64
2, 11662000, Note_on_c, 0, 63, 100
2, 11662500, Note_off_c, 0, 58, 64
2, 11663000, Note_on_c, 0, 48, 100
2, 11663500, Note_on_c, 0, 36, 100
2, 11671000, Note_on_c, 0, 75, 100
2, 11671500, Note_on_c, 0, 69, 100
2, 11677000, Note_off_c, 0, 69, 64
2, 11678500, Note_off_c, 0, 72, 64
2, 11679000, Note_off_c, 0, 63, 64
2, 11679500, Note_on_c, 0, 58, 100
2, 11680000, Note_off_c, 0, 48, 64
2, 11680500, Note_off_c, 0, 36, 64
2, 11688000, Note_on_c, 0, 65, 100
2, 11688500, Note_off_c, 0, 57, 64
2, 11689000, Note_off_c, 0, 53, 64
2, 11689500, Note_on_c, 0, 41, 100
2, 11697000, Note_on_c, 0, 72, 100
2, 11697500, Note_off_c, 0, 65, 64
2, 11703000, Note_on_c, 0, 65, 100
2, 11704500, Note_on_c, 0, 74, 100
2, 11705000, Note_off_c, 0, 65, 64
2, 11705500, Note_on_c, 0, 57, 100
2, 11706000, Note_on_c, 0, 53, 100
2, 11706500, Note_off_c, 0, 41, 64
2, 11714000, Note_on_c, 0, 65, 100
2, 11714500, Note_off_c, 0, 58, 64
2, 11715000, Note_off_c, 0, 46, 64
2, 11715500, Note_on_c, 0, 34, 100
2, 11723000, Note_off_c, 0, 74, 64
2, 11723500, Note_off_c, 0, 65, 64
2, 11724000, Note_on_c, 0, 62, 100
2, 11729500, Note_on_c, 0, 65, 100
2, 11730000, Note_off_c, 0, 62, 64
2, 11731500, Note_on_c, 0, 70, 100
2, 11732000, Note_off_c, 0, 65, 64
2, 11732500, Note_on_c, 0, 58, 100
2, 11733000, Note_on_c, 0, 62, 100
2, 11733500, Note_on_c, 0, 46, 100
2, 11734000, Note_off_c, 0, 34, 64
2, 11739500, Note_on_c, 0, 65, 100
2, 11740000, Note_off_c, 0, 62, 64
2, 11740500, Note_off_c, 0, 58, 64
2, 11741000, Note_off_c, 0, 46, 64
2, 11742500, Note_on_c, 0, 62, 100
2, 11743000, Note_off_c, 0, 53, 64
2, 11743500, Note_on_c, 0, 46, 100
2, 11744000, Note_on_c, 0, 34, 100
2, 11751500, Note_off_c, 0, 70, 64
2, 11752000, Note_off_c, 0, 62, 64
2, 11752500, Note_on_c, 0, 58, 100
2, 11758000, Note_on_c, 0, 62, 100
2, 11758500, Note_off_c, 0, 58, 64
2, 11760000, Note_off_c, 0, 65, 64
2, 11760500, Note_off_c, 0, 62, 64
2, 11761000, Note_on_c, 0, 53, 100
2, 11761500, Note_on_c, 0, 58, 100
2, 11762000, Note_off_c, 0, 46, 64
2, 11762500, Note_off_c, 0, 34, 64
2, 11768000, Note_on_c, 0, 62, 100
2, 11768500, Note_off_c, 0, 58, 64
2, 11769000, Note_on_c, 0, 46, 100
2, 11770500, Note_on_c, 0, 58, 100
2, 11771000, Note_off_c, 0, 50, 64
2, 11771500, Note_off_c, 0, 46, 64
2, 11772000, Note_on_c, 0, 34, 100
2, 11779500, Note_on_c, 0, 65, 100
2, 11780000, Note_off_c, 0, 58, 64
2, 11780500, Note_off_c, 0, 62, 64
2, 11781000, Note_on_c, 0, 50, 100
2, 11781500, Note_off_c, 0, 53, 64
2, 11787000, Note_on_c, 0, 58, 100
2, 11787500, Note_on_c, 0, 62, 100
2, 11788000, Note_on_c, 0, 53, 100
2, 11789500, Note_off_c, 0, 62, 64
2, 11790000, Note_off_c, 0, 65, 64
2, 11790500, Note_off_c, 0, 58, 64
2, 11791000, Note_on_c, 0, 46, 100
2, 11791500, Note_off_c, 0, 34, 64
2, 11797000, Note_on_c, 0, 62, 100
2, 11797500, Note_on_c, 0, 65, 100
2, 11798000, Note_on_c, 0, 58, 100
2, 11798500, Note_off_c, 0, 46, 64
2, 11800000, Note_off_c, 0, 65, 64
2, 11800500, Note_on_c, 0, 70, 100
2, 11801000, Note_off_c, 0, 62, 64
2, 11801500, Note_on_c, 0, 46, 100
2, 11802000, Note_on_c, 0, 34, 100
2, 11807500, Note_on_c, 0, 65, 100
2, 11808000, Note_off_c, 0, 70, 64
2, 11808500, Note_on_c, 0, 62, 100
2, 11810000, Note_off_c, 0, 62, 64
2, 11810500, Note_off_c, 0, 65, 64
2, 11811000, Note_off_c, 0, 58, 64
2, 11816500, Note_on_c, 0, 62, 100
2, 11817000, Note_on_c, 0, 65, 100
2, 11817500, Note_on_c, 0, 58, 100
2, 11819000, Note_off_c, 0, 65, 64
2, 11819500, Note_on_c, 0, 70, 100
2, 11820000, Note_off_c, 0, 62, 64
2, 11820500, Note_off_c, 0, 46, 64
2, 11821000, Note_off_c, 0, 58, 64
2, 11821500, Note_off_c, 0, 34, 64
2, 11827000, Note_on_c, 0, 65, 100
2, 11827500, Note_off_c, 0, 70, 64
2, 11828000, Note_on_c, 0, 62, 100
2, 11828500, Note_on_c, 0, 58, 100
2, 11829000, Note_on_c, 0, 46, 100
2, 11830500, Note_on_c, 0, 70, 100
2, 11831000, Note_off_c, 0, 62, 64
2, 11831500, Note_off_c, 0, 65, 64
2, 11832000, Note_off_c, 0, 46, 64
2, 11832500, Note_on_c, 0, 34, 100
2, 11838000, Note_off_c, 0, 70, 64
2, 11839500, Note_on_c, 0, 65, 100
2, 11845000, Note_off_c, 0, 65, 64
2, 11846500, Note_off_c, 0, 67, 64
2, 11847000, Note_on_c, 0, 62, 100
2, 11847500, Note_on_c, 0, 65, 100
2, 11848000, Note_on_c, 0, 46, 100
2, 11848500, Note_off_c, 0, 34, 64
2, 11856000, Note_on_c, 0, 63, 100
2, 11856500, Note_off_c, 0, 58, 64
2, 11857000, Note_off_c, 0, 46, 64
2, 11864500, Note_on_c, 0, 67, 100
2, 11865000, Note_off_c, 0, 65, 64
2, 11870500, Note_on_c, 0, 65, 100
2, 11872000, Note_on_c, 0, 70, 100
2, 11872500, Note_off_c, 0, 63, 64
2, 11873000, Note_on_c, 0, 58, 100
2, 11873500, Note_on_c, 0, 46, 100
2, 11881000, Note_off_c, 0, 62, 64
2, 11881500, Note_off_c, 0, 53, 64
2, 11882000, Note_off_c, 0, 46, 64
2, 11882500, Note_on_c, 0, 34, 100
2, 11890000, Note_off_c, 0, 70, 64
2, 11890500, Note_off_c, 0, 65, 64
2, 11896000, Note_on_c, 0, 65, 100
2, 11897500, Note_off_c, 0, 67, 64
2, 11898000, Note_on_c, 0, 62, 100
2, 11898500, Note_on_c, 0, 53, 100
2, 11899000, Note_on_c, 0, 46, 100
2, 11899500, Note_off_c, 0, 34, 64
2, 11907000, Note_on_c, 0, 63, 100
2, 11907500, Note_off_c, 0, 58, 64
2, 11908000, Note_off_c, 0, 46, 64
2, 11915500, Note_on_c, 0, 67, 100
2, 11916000, Note_off_c, 0, 65, 64
2, 11921500, Note_on_c, 0, 65, 100
2, 11923000, Note_on_c, 0, 70, 100
2, 11923500, Note_off_c, 0, 63, 64
2, 11924000, Note_off_c, 0, 62, 64
2, 11924500, Note_on_c, 0, 58, 100
2, 11925000, Note_off_c, 0, 53, 64
2, 11925500, Note_on_c, 0, 46, 100
2, 11926000, Note_on_c, 0, 34, 100
2, 11931500, Note_on_c, 0, 62, 100
2, 11932000, Note_on_c, 0, 53, 100
2, 11932500, Note_off_c, 0, 46, 64
2, 11933000, Note_off_c, 0, 34, 64
2, 11934500, Note_on_c, 0, 63, 100
2, 11935000, Note_on_c, 0, 55, 100
2, 11935500, Note_on_c, 0, 51, 100
2, 11936000, Note_on_c, 0, 39, 100
2, 11943500, Note_off_c, 0, 70, 64
2, 11944000, Note_off_c, 0, 67, 64
2, 11949500, Note_on_c, 0, 67, 100
2, 11951000, Note_off_c, 0, 75, 64
2, 11951500, Note_off_c, 0, 63, 64
2, 11952000, Note_off_c, 0, 67, 64
2, 11952500, Note_off_c, 0, 55, 64
2, 11953000, Note_off_c, 0, 60, 64
2, 11953500, Note_off_c, 0, 51, 64
2, 11954000, Note_on_c, 0, 48, 100
2, 11954500, Note_off_c, 0, 39, 64
2, 11955000, Note_on_c, 0, 36, 100
2, 11960500, Note_on_c, 0, 67, 100
2, 11961000, Note_on_c, 0, 60, 100
2, 11961500, Note_off_c, 0, 48, 64
2, 11962000, Note_off_c, 0, 36, 64
2, 11963500, Note_off_c, 0, 65, 64
2, 11964000, Note_off_c, 0, 57, 64
2, 11964500, Note_off_c, 0, 53, 64
2, 11965000, Note_on_c, 0, 41, 100
2, 11972500, Note_on_c, 0, 75, 100
2, 11973000, Note_on_c, 0, 69, 100
2, 11978500, Note_off_c, 0, 69, 64
2, 11980000, Note_on_c, 0, 77, 100
2, 11980500, Note_on_c, 0, 65, 100
2, 11981000, Note_off_c, 0, 72, 64
2, 11981500, Note_on_c, 0, 57, 100
2, 11982000, Note_on_c, 0, 53, 100
2, 11982500, Note_on_c, 0, 45, 100
2, 11983000, Note_off_c, 0, 41, 64
2, 11983500, Note_on_c, 0, 33, 100
2, 11989000, Note_on_c, 0, 72, 100
2, 11989500, Note_off_c, 0, 53, 64
2, 11990000, Note_off_c, 0, 45, 64
2, 11990500, Note_off_c, 0, 33, 64
2, 11992000, Note_off_c, 0, 77, 64
2, 11992500, Note_on_c, 0, 74, 100
2, 11993000, Note_on_c, 0, 70, 100
2, 11993500, Note_off_c, 0, 65, 64
2, 11994000, Note_on_c, 0, 46, 100
2, 11994500, Note_on_c, 0, 34, 100
2, 12000000, Note_off_c, 0, 74, 64
2, 12000500, Note_off_c, 0, 70, 64
2, 12001000, Note_on_c, 0, 65, 100
2, 12001500, Note_off_c, 0, 46, 64
2, 12002000, Note_off_c, 0, 34, 64
2, 12003500, Note_on_c, 0, 70, 100
2, 12004000, Note_off_c, 0, 65, 64
2, 12004500, Note_off_c, 0, 62, 64
2, 12005000, Note_off_c, 0, 50, 64
2, 12005500, Note_on_c, 0, 26, 100
2, 12006000, Note_on_c, 0, 38, 100
2, 12011500, Note_off_c, 0, 70, 64
2, 12012000, Note_on_c, 0, 65, 100
2, 12012500, Note_on_c, 0, 62, 100
2, 12013000, Note_on_c, 0, 50, 100
2, 12013500, Note_off_c, 0, 26, 64
2, 12014000, Note_off_c, 0, 38, 64
2, 12015500, Note_on_c, 0, 69, 100
2, 12016000, Note_off_c, 0, 65, 64
2, 12016500, Note_off_c, 0, 60, 64
2, 12017000, Note_on_c, 0, 53, 100
2, 12017500, Note_on_c, 0, 41, 100
2, 12018000, Note_on_c, 0, 29, 100
2, 12019500, Note_off_c, 0, 69, 64
2, 12020000, Note_off_c, 0, 67, 64
2, 12021500, Note_on_c, 0, 67, 100
2, 12022000, Note_on_c, 0, 69, 100
2, 12023500, Note_on_c, 0, 65, 100
2, 12024000, Note_on_c, 0, 60, 100
2, 12024500, Note_off_c, 0, 53, 64
2, 12025000, Note_off_c, 0, 41, 64
2, 12025500, Note_off_c, 0, 29, 64
2, 12027000, Note_off_c, 0, 69, 64
2, 12027500, Note_on_c, 0, 70, 100
2, 12028000, Note_off_c, 0, 65, 64
2, 12028500, Note_off_c, 0, 62, 64
2, 12029000, Note_on_c, 0, 46, 100
2, 12029500, Note_on_c, 0, 22, 100
2, 12030000, Note_on_c, 0, 34, 100
2, 12077500, Note_off_c, 0, 70, 64
2, 12078000, Note_on_c, 0, 65, 100
2, 12078500, Note_on_c, 0, 62, 100
2, 12079000, Note_off_c, 0, 46, 64
2, 12079500, Note_off_c, 0, 22, 64
2, 12080000, Note_off_c, 0, 34, 64
2, 12081000, End_track
0, 0, End_of_file
