0, 0, Header, 1, 8, 120
1, 0, Start_track
1, 0, MIDI_port, 0
1, 0, System_exclusive, 5, 126, 127, 9, 1, 247
1, 0, MIDI_port, 0
1, 0, Time_signature, 4, 2, 24, 8
1, 0, Key_signature, 0, "major"
1, 0, Tempo, 545455
1, 480, Marker_t, "1st Mov't. ""Allegro"""
1, 8160, Tempo, 545455
1, 8256, Tempo, 550459
1, 8352, Tempo, 555556
1, 8448, Tempo, 560748
1, 8544, Tempo, 566038
1, 8641, Tempo, 571429
1, 8737, Tempo, 576923
1, 8833, Tempo, 582524
1, 8929, Tempo, 588235
1, 9025, Tempo, 594059
1, 9122, Tempo, 600000
1, 9123, Tempo, 545455
1, 15360, Tempo, 545455
1, 15467, Tempo, 550459
1, 15575, Tempo, 555556
1, 15683, Tempo, 560748
1, 15791, Tempo, 566038
1, 15899, Tempo, 571429
1, 16006, Tempo, 576923
1, 16114, Tempo, 582524
1, 16222, Tempo, 588235
1, 16330, Tempo, 594059
1, 16560, Tempo, 3000000
1, 16619, Tempo, 545455
1, 20162, Tempo, 545455
1, 20173, Tempo, 550459
1, 20185, Tempo, 555556
1, 20197, Tempo, 560748
1, 20209, Tempo, 566038
1, 20221, Tempo, 571429
1, 20233, Tempo, 576923
1, 20245, Tempo, 582524
1, 20257, Tempo, 588235
1, 20269, Tempo, 594059
1, 20281, Tempo, 600000
1, 20292, Tempo, 606061
1, 20304, Tempo, 612245
1, 20316, Tempo, 618557
1, 20328, Tempo, 625000
1, 20340, Tempo, 631579
1, 20352, Tempo, 638298
1, 20364, Tempo, 645161
1, 20376, Tempo, 652174
1, 20388, Tempo, 659341
1, 20400, Tempo, 666667
1, 20401, Tempo, 545455
1, 24779, Tempo, 571429
1, 25259, Tempo, 600000
1, 25442, Tempo, 600000
1, 25537, Tempo, 606061
1, 25633, Tempo, 612245
1, 25729, Tempo, 618557
1, 25825, Tempo, 625000
1, 25921, Tempo, 631579
1, 26016, Tempo, 638298
1, 26112, Tempo, 645161
1, 26160, Tempo, 666667
1, 26184, Tempo, 659341
1, 26208, Tempo, 652174
1, 26232, Tempo, 645161
1, 26256, Tempo, 638298
1, 26280, Tempo, 631579
1, 26304, Tempo, 625000
1, 26328, Tempo, 618557
1, 26352, Tempo, 612245
1, 26376, Tempo, 606061
1, 26400, Tempo, 600000
1, 26424, Tempo, 594059
1, 26448, Tempo, 588235
1, 26472, Tempo, 582524
1, 26496, Tempo, 576923
1, 26520, Tempo, 571429
1, 26544, Tempo, 566038
1, 26568, Tempo, 560748
1, 26592, Tempo, 555556
1, 26616, Tempo, 550459
1, 26640, Tempo, 545455
1, 26641, Tempo, 545455
1, 29280, Tempo, 545455
1, 29376, Tempo, 550459
1, 29472, Tempo, 555556
1, 29568, Tempo, 560748
1, 29664, Tempo, 566038
1, 29760, Tempo, 571429
1, 29856, Tempo, 576923
1, 29952, Tempo, 582524
1, 30048, Tempo, 588235
1, 30144, Tempo, 594059
1, 30240, Tempo, 600000
1, 30241, Tempo, 545455
1, 31200, Tempo, 545455
1, 31248, Tempo, 550459
1, 31296, Tempo, 555556
1, 31344, Tempo, 560748
1, 31392, Tempo, 566038
1, 31440, Tempo, 571429
1, 31488, Tempo, 576923
1, 31536, Tempo, 582524
1, 31584, Tempo, 588235
1, 31632, Tempo, 594059
1, 31680, Tempo, 600000
1, 31681, Tempo, 545455
1, 40681, Tempo, 3000000
1, 40711, Tempo, 545455
1, 53161, Tempo, 545455
1, 53316, Tempo, 550459
1, 53472, Tempo, 555556
1, 53628, Tempo, 560748
1, 53784, Tempo, 566038
1, 53940, Tempo, 571429
1, 54096, Tempo, 576923
1, 54252, Tempo, 582524
1, 54408, Tempo, 588235
1, 54564, Tempo, 594059
1, 54720, Tempo, 600000
1, 54721, Tempo, 545455
1, 60482, Tempo, 545455
1, 60529, Tempo, 550459
1, 60577, Tempo, 555556
1, 60625, Tempo, 560748
1, 60673, Tempo, 566038
1, 60721, Tempo, 571429
1, 60768, Tempo, 576923
1, 60816, Tempo, 582524
1, 60864, Tempo, 588235
1, 60912, Tempo, 594059
1, 60960, Tempo, 600000
1, 60961, Tempo, 545455
1, 65280, Tempo, 545455
1, 65328, Tempo, 550459
1, 65376, Tempo, 555556
1, 65424, Tempo, 560748
1, 65472, Tempo, 566038
1, 65520, Tempo, 571429
1, 65568, Tempo, 576923
1, 65616, Tempo, 582524
1, 65664, Tempo, 588235
1, 65712, Tempo, 594059
1, 65760, Tempo, 600000
1, 65761, Tempo, 545455
1, 73920, Tempo, 545455
1, 73968, Tempo, 550459
1, 74016, Tempo, 555556
1, 74064, Tempo, 560748
1, 74112, Tempo, 566038
1, 74161, Tempo, 571429
1, 74209, Tempo, 576923
1, 74257, Tempo, 582524
1, 74305, Tempo, 588235
1, 74353, Tempo, 594059
1, 74402, Tempo, 600000
1, 74403, Tempo, 545455
1, 91496, Tempo, 545455
1, 91583, Tempo, 550459
1, 91670, Tempo, 555556
1, 91757, Tempo, 560748
1, 91844, Tempo, 566038
1, 91932, Tempo, 571429
1, 92019, Tempo, 576923
1, 92106, Tempo, 582524
1, 92193, Tempo, 588235
1, 92280, Tempo, 594059
1, 92368, Tempo, 600000
1, 92455, Tempo, 606061
1, 92542, Tempo, 612245
1, 92629, Tempo, 618557
1, 92716, Tempo, 625000
1, 92804, Tempo, 631579
1, 92891, Tempo, 638298
1, 92978, Tempo, 645161
1, 93065, Tempo, 652174
1, 93120, Tempo, 666667
1, 93144, Tempo, 659341
1, 93168, Tempo, 652174
1, 93192, Tempo, 645161
1, 93216, Tempo, 638298
1, 93240, Tempo, 631579
1, 93264, Tempo, 625000
1, 93288, Tempo, 618557
1, 93312, Tempo, 612245
1, 93336, Tempo, 606061
1, 93360, Tempo, 600000
1, 93384, Tempo, 594059
1, 93408, Tempo, 588235
1, 93432, Tempo, 582524
1, 93456, Tempo, 576923
1, 93480, Tempo, 571429
1, 93504, Tempo, 566038
1, 93528, Tempo, 560748
1, 93552, Tempo, 555556
1, 93576, Tempo, 550459
1, 93600, Tempo, 545455
1, 93601, Tempo, 545455
1, 96960, Tempo, 545455
1, 96984, Tempo, 550459
1, 97008, Tempo, 555556
1, 97032, Tempo, 560748
1, 97056, Tempo, 566038
1, 97080, Tempo, 571429
1, 97104, Tempo, 576923
1, 97128, Tempo, 582524
1, 97152, Tempo, 588235
1, 97176, Tempo, 594059
1, 97200, Tempo, 600000
1, 97224, Tempo, 606061
1, 97248, Tempo, 612245
1, 97272, Tempo, 618557
1, 97296, Tempo, 625000
1, 97320, Tempo, 631579
1, 97344, Tempo, 638298
1, 97368, Tempo, 645161
1, 97392, Tempo, 652174
1, 97416, Tempo, 659341
1, 97441, Tempo, 666667
1, 97442, Tempo, 545455
1, 109920, Time_signature, 3, 2, 24, 8
1, 109920, Key_signature, -1, "major"
1, 109920, Tempo, 1000000
1, 109920, Marker_t, "2nd Mov't. ""Andante"""
1, 118925, Tempo, 1000000
1, 118996, Tempo, 1016949
1, 119068, Tempo, 1034483
1, 119139, Tempo, 1052632
1, 119211, Tempo, 1071429
1, 119282, Tempo, 1090909
1, 119354, Tempo, 1111111
1, 119425, Tempo, 1132075
1, 119497, Tempo, 1153846
1, 119568, Tempo, 1176471
1, 119640, Tempo, 1200000
1, 119641, Tempo, 1000000
1, 125879, Tempo, 1000000
1, 125939, Tempo, 1016949
1, 125999, Tempo, 1034483
1, 126060, Tempo, 1052632
1, 126120, Tempo, 1071429
1, 126181, Tempo, 1090909
1, 126241, Tempo, 1111111
1, 126301, Tempo, 1132075
1, 126362, Tempo, 1153846
1, 126422, Tempo, 1176471
1, 126483, Tempo, 1200000
1, 126484, Tempo, 1000000
1, 139800, Tempo, 1000000
1, 139872, Tempo, 1016949
1, 139944, Tempo, 1034483
1, 140016, Tempo, 1052632
1, 140088, Tempo, 1071429
1, 140160, Tempo, 1090909
1, 140232, Tempo, 1111111
1, 140304, Tempo, 1132075
1, 140376, Tempo, 1153846
1, 140448, Tempo, 1176471
1, 140520, Tempo, 1200000
1, 140521, Tempo, 1000000
1, 146824, Tempo, 1000000
1, 146877, Tempo, 1016949
1, 146931, Tempo, 1034483
1, 146985, Tempo, 1052632
1, 147039, Tempo, 1071429
1, 147093, Tempo, 1090909
1, 147146, Tempo, 1111111
1, 147200, Tempo, 1132075
1, 147254, Tempo, 1153846
1, 147308, Tempo, 1176471
1, 147362, Tempo, 1200000
1, 147363, Tempo, 1000000
1, 154567, Tempo, 1500000
1, 154920, Tempo, 789474
1, 155280, Time_signature, 2, 2, 24, 8
1, 155280, Key_signature, 0, "major"
1, 155280, Marker_t, "3rd Mov't. ""Allegretto"""
1, 155640, Tempo, 789474
1, 155640, End_track
2, 0, Start_track
2, 0, MIDI_port, 0
2, 0, Title_t, "Primo"
2, 0, Program_c, 0, 0
2, 0, Control_c, 0, 121, 0
2, 0, Control_c, 0, 7, 127
2, 0, Control_c, 0, 10, 84
2, 0, Control_c, 0, 91, 101
2, 480, Note_on_c, 0, 72, 113
2, 480, Note_on_c, 0, 60, 107
2, 486, Control_c, 0, 64, 127
2, 690, Note_on_c, 0, 55, 98
2, 690, Note_on_c, 0, 67, 113
2, 694, Note_on_c, 0, 60, 0
2, 697, Note_on_c, 0, 72, 0
2, 715, Control_c, 0, 64, 0
2, 717, Note_on_c, 0, 67, 0
2, 718, Note_on_c, 0, 55, 0
2, 719, Note_on_c, 0, 64, 98
2, 725, Note_on_c, 0, 76, 102
2, 751, Control_c, 0, 64, 127
2, 924, Note_on_c, 0, 64, 0
2, 929, Note_on_c, 0, 76, 0
2, 930, Note_on_c, 0, 60, 89
2, 930, Note_on_c, 0, 72, 89
2, 942, Control_c, 0, 64, 0
2, 956, Note_on_c, 0, 72, 0
2, 959, Note_on_c, 0, 60, 0
2, 960, Note_on_c, 0, 67, 107
2, 960, Note_on_c, 0, 79, 98
2, 972, Note_on_c, 0, 79, 0
2, 975, Note_on_c, 0, 67, 0
2, 1020, Note_on_c, 0, 76, 98
2, 1020, Note_on_c, 0, 64, 93
2, 1032, Note_on_c, 0, 76, 0
2, 1034, Note_on_c, 0, 64, 0
2, 1080, Note_on_c, 0, 69, 107
2, 1080, Note_on_c, 0, 81, 107
2, 1108, Control_c, 0, 64, 127
2, 1254, Note_on_c, 0, 69, 0
2, 1255, Note_on_c, 0, 81, 0
2, 1260, Note_on_c, 0, 67, 93
2, 1260, Note_on_c, 0, 79, 93
2, 1267, Control_c, 0, 64, 0
2, 1289, Control_c, 0, 64, 127
2, 1320, Note_on_c, 0, 77, 102
2, 1320, Note_on_c, 0, 65, 93
2, 1323, Control_c, 0, 64, 0
2, 1324, Note_on_c, 0, 67, 0
2, 1326, Note_on_c, 0, 79, 0
2, 1342, Control_c, 0, 64, 127
2, 1379, Note_on_c, 0, 77, 0
2, 1379, Note_on_c, 0, 65, 0
2, 1380, Note_on_c, 0, 76, 93
2, 1380, Note_on_c, 0, 64, 93
2, 1382, Control_c, 0, 64, 0
2, 1404, Control_c, 0, 64, 127
2, 1440, Note_on_c, 0, 77, 93
2, 1440, Note_on_c, 0, 65, 93
2, 1444, Control_c, 0, 64, 0
2, 1445, Note_on_c, 0, 64, 0
2, 1445, Note_on_c, 0, 76, 0
2, 1463, Control_c, 0, 64, 127
2, 1500, Note_on_c, 0, 74, 89
2, 1500, Note_on_c, 0, 62, 93
2, 1501, Note_on_c, 0, 77, 0
2, 1501, Note_on_c, 0, 65, 0
2, 1505, Control_c, 0, 64, 0
2, 1526, Control_c, 0, 64, 127
2, 1559, Note_on_c, 0, 74, 0
2, 1560, Note_on_c, 0, 62, 0
2, 1560, Note_on_c, 0, 79, 107
2, 1560, Note_on_c, 0, 67, 98
2, 1566, Control_c, 0, 64, 0
2, 1590, Control_c, 0, 64, 127
2, 1738, Note_on_c, 0, 67, 0
2, 1739, Note_on_c, 0, 79, 0
2, 1740, Note_on_c, 0, 77, 93
2, 1740, Note_on_c, 0, 65, 89
2, 1744, Control_c, 0, 64, 0
2, 1765, Control_c, 0, 64, 127
2, 1800, Note_on_c, 0, 76, 98
2, 1800, Note_on_c, 0, 64, 89
2, 1802, Note_on_c, 0, 65, 0
2, 1804, Note_on_c, 0, 77, 0
2, 1804, Control_c, 0, 64, 0
2, 1822, Control_c, 0, 64, 127
2, 1860, Note_on_c, 0, 64, 0
2, 1860, Note_on_c, 0, 74, 102
2, 1860, Note_on_c, 0, 62, 93
2, 1862, Note_on_c, 0, 76, 0
2, 1866, Control_c, 0, 64, 0
2, 1883, Control_c, 0, 64, 127
2, 1920, Note_on_c, 0, 64, 89
2, 1920, Note_on_c, 0, 76, 98
2, 1923, Note_on_c, 0, 62, 0
2, 1925, Note_on_c, 0, 74, 0
2, 1927, Control_c, 0, 64, 0
2, 1946, Control_c, 0, 64, 127
2, 1980, Note_on_c, 0, 76, 0
2, 1980, Note_on_c, 0, 72, 93
2, 1980, Note_on_c, 0, 60, 89
2, 1982, Note_on_c, 0, 64, 0
2, 1991, Control_c, 0, 64, 0
2, 2009, Control_c, 0, 64, 127
2, 2040, Note_on_c, 0, 65, 93
2, 2040, Note_on_c, 0, 77, 89
2, 2043, Note_on_c, 0, 72, 0
2, 2044, Note_on_c, 0, 60, 0
2, 2045, Control_c, 0, 64, 0
2, 2061, Control_c, 0, 64, 127
2, 2097, Note_on_c, 0, 77, 0
2, 2098, Note_on_c, 0, 65, 0
2, 2100, Note_on_c, 0, 62, 89
2, 2100, Note_on_c, 0, 74, 93
2, 2102, Control_c, 0, 64, 0
2, 2116, Control_c, 0, 64, 127
2, 2157, Note_on_c, 0, 62, 0
2, 2158, Note_on_c, 0, 74, 0
2, 2160, Note_on_c, 0, 59, 85
2, 2160, Note_on_c, 0, 71, 89
2, 2164, Control_c, 0, 64, 0
2, 2179, Control_c, 0, 64, 127
2, 2216, Note_on_c, 0, 71, 0
2, 2218, Note_on_c, 0, 59, 0
2, 2219, Control_c, 0, 64, 0
2, 2220, Note_on_c, 0, 67, 93
2, 2220, Note_on_c, 0, 55, 89
2, 2233, Control_c, 0, 64, 127
2, 2277, Control_c, 0, 64, 0
2, 2280, Note_on_c, 0, 69, 107
2, 2280, Note_on_c, 0, 57, 89
2, 2282, Note_on_c, 0, 67, 0
2, 2285, Note_on_c, 0, 55, 0
2, 2293, Control_c, 0, 64, 127
2, 2325, Control_c, 0, 64, 0
2, 2338, Note_on_c, 0, 57, 0
2, 2339, Note_on_c, 0, 69, 0
2, 2340, Note_on_c, 0, 59, 93
2, 2340, Note_on_c, 0, 71, 102
2, 2342, Control_c, 0, 64, 127
2, 2395, Control_c, 0, 64, 0
2, 2400, Note_on_c, 0, 59, 0
2, 2400, Note_on_c, 0, 72, 89
2, 2400, Note_on_c, 0, 60, 93
2, 2401, Note_on_c, 0, 71, 0
2, 2413, Control_c, 0, 64, 127
2, 2528, Control_c, 0, 64, 0
2, 2534, Note_on_c, 0, 60, 0
2, 2535, Note_on_c, 0, 72, 0
2, 3660, Note_on_c, 0, 79, 76
2, 3667, Control_c, 0, 64, 127
2, 3720, Note_on_c, 0, 79, 0
2, 3720, Note_on_c, 0, 88, 72
2, 3774, Note_on_c, 0, 88, 0
2, 3780, Note_on_c, 0, 84, 72
2, 3803, Note_on_c, 0, 84, 0
2, 3840, Note_on_c, 0, 67, 89
2, 3840, Note_on_c, 0, 84, 107
2, 3840, Note_on_c, 0, 74, 89
2, 3840, Note_on_c, 0, 77, 85
2, 3846, Control_c, 0, 64, 0
2, 3870, Note_on_c, 0, 83, 62
2, 3872, Note_on_c, 0, 84, 0
2, 3900, Note_on_c, 0, 81, 72
2, 3904, Note_on_c, 0, 83, 0
2, 3929, Note_on_c, 0, 81, 0
2, 3930, Note_on_c, 0, 79, 64
2, 3958, Note_on_c, 0, 79, 0
2, 3960, Note_on_c, 0, 78, 64
2, 3989, Note_on_c, 0, 78, 0
2, 3990, Note_on_c, 0, 79, 76
2, 4020, Note_on_c, 0, 78, 72
2, 4022, Note_on_c, 0, 79, 0
2, 4049, Note_on_c, 0, 78, 0
2, 4050, Note_on_c, 0, 79, 80
2, 4080, Note_on_c, 0, 78, 76
2, 4083, Note_on_c, 0, 79, 0
2, 4110, Note_on_c, 0, 79, 76
2, 4111, Note_on_c, 0, 78, 0
2, 4140, Note_on_c, 0, 79, 0
2, 4140, Note_on_c, 0, 78, 64
2, 4170, Note_on_c, 0, 79, 62
2, 4172, Note_on_c, 0, 78, 0
2, 4199, Note_on_c, 0, 79, 0
2, 4200, Note_on_c, 0, 78, 72
2, 4230, Note_on_c, 0, 78, 0
2, 4230, Note_on_c, 0, 79, 76
2, 4260, Note_on_c, 0, 81, 93
2, 4262, Note_on_c, 0, 79, 0
2, 4269, Control_c, 0, 64, 127
2, 4290, Note_on_c, 0, 83, 72
2, 4291, Note_on_c, 0, 81, 0
2, 4299, Note_on_c, 0, 67, 0
2, 4301, Note_on_c, 0, 77, 0
2, 4311, Note_on_c, 0, 74, 0
2, 4320, Note_on_c, 0, 72, 76
2, 4320, Note_on_c, 0, 76, 76
2, 4320, Note_on_c, 0, 84, 89
2, 4321, Note_on_c, 0, 83, 0
2, 4331, Control_c, 0, 64, 0
2, 4333, Note_on_c, 0, 84, 0
2, 4380, Note_on_c, 0, 84, 89
2, 4389, Note_on_c, 0, 84, 0
2, 4393, Note_on_c, 0, 72, 0
2, 4394, Note_on_c, 0, 76, 0
2, 4410, Note_on_c, 0, 79, 76
2, 4423, Note_on_c, 0, 79, 0
2, 4440, Note_on_c, 0, 74, 64
2, 4440, Note_on_c, 0, 71, 68
2, 4440, Note_on_c, 0, 86, 93
2, 4453, Note_on_c, 0, 86, 0
2, 4484, Note_on_c, 0, 74, 0
2, 4486, Note_on_c, 0, 71, 0
2, 4500, Note_on_c, 0, 86, 98
2, 4515, Note_on_c, 0, 86, 0
2, 4530, Note_on_c, 0, 79, 76
2, 4547, Note_on_c, 0, 79, 0
2, 4560, Note_on_c, 0, 88, 89
2, 4560, Note_on_c, 0, 72, 80
2, 4572, Control_c, 0, 64, 127
2, 4683, Control_c, 0, 64, 0
2, 4684, Note_on_c, 0, 72, 0
2, 4684, Note_on_c, 0, 88, 0
2, 5580, Note_on_c, 0, 79, 72
2, 5606, Control_c, 0, 64, 127
2, 5640, Note_on_c, 0, 88, 76
2, 5642, Note_on_c, 0, 79, 0
2, 5649, Control_c, 0, 64, 0
2, 5665, Control_c, 0, 64, 127
2, 5699, Note_on_c, 0, 88, 0
2, 5700, Note_on_c, 0, 84, 76
2, 5714, Note_on_c, 0, 84, 0
2, 5760, Note_on_c, 0, 67, 80
2, 5760, Note_on_c, 0, 84, 102
2, 5760, Note_on_c, 0, 77, 68
2, 5760, Note_on_c, 0, 74, 85
2, 5767, Control_c, 0, 64, 0
2, 5790, Note_on_c, 0, 83, 80
2, 5795, Note_on_c, 0, 84, 0
2, 5820, Note_on_c, 0, 81, 72
2, 5822, Note_on_c, 0, 83, 0
2, 5848, Note_on_c, 0, 81, 0
2, 5850, Note_on_c, 0, 79, 60
2, 5878, Note_on_c, 0, 79, 0
2, 5880, Note_on_c, 0, 78, 62
2, 5906, Note_on_c, 0, 78, 0
2, 5910, Note_on_c, 0, 79, 57
2, 5940, Note_on_c, 0, 78, 56
2, 5943, Note_on_c, 0, 79, 0
2, 5968, Note_on_c, 0, 78, 0
2, 5970, Note_on_c, 0, 79, 57
2, 6000, Note_on_c, 0, 78, 57
2, 6003, Note_on_c, 0, 79, 0
2, 6029, Note_on_c, 0, 78, 0
2, 6030, Note_on_c, 0, 79, 55
2, 6060, Note_on_c, 0, 78, 59
2, 6062, Note_on_c, 0, 79, 0
2, 6088, Note_on_c, 0, 78, 0
2, 6090, Note_on_c, 0, 79, 56
2, 6120, Note_on_c, 0, 78, 64
2, 6121, Note_on_c, 0, 79, 0
2, 6150, Note_on_c, 0, 79, 68
2, 6151, Note_on_c, 0, 78, 0
2, 6180, Note_on_c, 0, 79, 0
2, 6180, Note_on_c, 0, 81, 80
2, 6186, Control_c, 0, 64, 127
2, 6210, Note_on_c, 0, 83, 76
2, 6211, Note_on_c, 0, 81, 0
2, 6223, Note_on_c, 0, 77, 0
2, 6225, Note_on_c, 0, 67, 0
2, 6226, Note_on_c, 0, 74, 0
2, 6239, Note_on_c, 0, 83, 0
2, 6240, Note_on_c, 0, 76, 57
2, 6240, Note_on_c, 0, 84, 72
2, 6240, Note_on_c, 0, 72, 64
2, 6242, Control_c, 0, 64, 0
2, 6270, Control_c, 0, 64, 127
2, 6357, Note_on_c, 0, 72, 0
2, 6357, Note_on_c, 0, 84, 0
2, 6358, Note_on_c, 0, 76, 0
2, 6358, Control_c, 0, 64, 0
2, 6540, Note_on_c, 0, 79, 76
2, 6555, Control_c, 0, 64, 127
2, 6600, Note_on_c, 0, 88, 76
2, 6601, Note_on_c, 0, 79, 0
2, 6612, Control_c, 0, 64, 0
2, 6628, Control_c, 0, 64, 127
2, 6658, Note_on_c, 0, 88, 0
2, 6660, Note_on_c, 0, 84, 68
2, 6672, Note_on_c, 0, 84, 0
2, 6720, Note_on_c, 0, 84, 107
2, 6720, Note_on_c, 0, 67, 93
2, 6720, Note_on_c, 0, 77, 85
2, 6720, Note_on_c, 0, 74, 93
2, 6724, Control_c, 0, 64, 0
2, 6750, Note_on_c, 0, 83, 80
2, 6758, Note_on_c, 0, 84, 0
2, 6779, Note_on_c, 0, 83, 0
2, 6780, Note_on_c, 0, 81, 62
2, 6806, Note_on_c, 0, 81, 0
2, 6810, Note_on_c, 0, 79, 60
2, 6840, Note_on_c, 0, 78, 60
2, 6842, Note_on_c, 0, 79, 0
2, 6867, Note_on_c, 0, 78, 0
2, 6870, Note_on_c, 0, 79, 55
2, 6900, Note_on_c, 0, 78, 56
2, 6902, Note_on_c, 0, 79, 0
2, 6929, Note_on_c, 0, 78, 0
2, 6930, Note_on_c, 0, 79, 55
2, 6960, Note_on_c, 0, 78, 60
2, 6961, Note_on_c, 0, 79, 0
2, 6990, Note_on_c, 0, 78, 0
2, 6990, Note_on_c, 0, 79, 52
2, 7020, Note_on_c, 0, 79, 0
2, 7020, Note_on_c, 0, 78, 60
2, 7049, Note_on_c, 0, 78, 0
2, 7050, Note_on_c, 0, 79, 51
2, 7077, Note_on_c, 0, 79, 0
2, 7080, Note_on_c, 0, 78, 59
2, 7110, Note_on_c, 0, 79, 64
2, 7112, Note_on_c, 0, 78, 0
2, 7140, Note_on_c, 0, 81, 76
2, 7141, Note_on_c, 0, 79, 0
2, 7161, Control_c, 0, 64, 127
2, 7169, Note_on_c, 0, 81, 0
2, 7170, Note_on_c, 0, 83, 62
2, 7179, Note_on_c, 0, 67, 0
2, 7179, Note_on_c, 0, 74, 0
2, 7179, Note_on_c, 0, 77, 0
2, 7196, Note_on_c, 0, 83, 0
2, 7200, Note_on_c, 0, 84, 80
2, 7200, Note_on_c, 0, 76, 72
2, 7200, Note_on_c, 0, 72, 72
2, 7205, Control_c, 0, 64, 0
2, 7229, Control_c, 0, 64, 127
2, 7316, Note_on_c, 0, 72, 0
2, 7320, Note_on_c, 0, 84, 0
2, 7322, Note_on_c, 0, 76, 0
2, 7324, Control_c, 0, 64, 0
2, 7440, Note_on_c, 0, 79, 76
2, 7440, Note_on_c, 0, 74, 68
2, 7440, Note_on_c, 0, 77, 62
2, 7460, Control_c, 0, 64, 127
2, 7470, Note_on_c, 0, 81, 72
2, 7473, Note_on_c, 0, 79, 0
2, 7473, Control_c, 0, 64, 0
2, 7497, Control_c, 0, 64, 127
2, 7500, Note_on_c, 0, 83, 85
2, 7501, Note_on_c, 0, 81, 0
2, 7529, Note_on_c, 0, 83, 0
2, 7530, Note_on_c, 0, 84, 89
2, 7559, Note_on_c, 0, 84, 0
2, 7560, Note_on_c, 0, 86, 80
2, 7568, Note_on_c, 0, 77, 0
2, 7568, Note_on_c, 0, 74, 0
2, 7568, Control_c, 0, 64, 0
2, 7590, Note_on_c, 0, 88, 93
2, 7594, Note_on_c, 0, 86, 0
2, 7620, Note_on_c, 0, 89, 89
2, 7622, Note_on_c, 0, 88, 0
2, 7650, Note_on_c, 0, 83, 93
2, 7652, Note_on_c, 0, 89, 0
2, 7679, Note_on_c, 0, 83, 0
2, 7680, Note_on_c, 0, 72, 76
2, 7680, Note_on_c, 0, 76, 76
2, 7680, Note_on_c, 0, 84, 93
2, 7701, Control_c, 0, 64, 127
2, 7801, Note_on_c, 0, 72, 0
2, 7803, Note_on_c, 0, 84, 0
2, 7803, Note_on_c, 0, 76, 0
2, 7805, Control_c, 0, 64, 0
2, 7920, Note_on_c, 0, 74, 76
2, 7920, Note_on_c, 0, 77, 76
2, 7920, Note_on_c, 0, 79, 89
2, 7938, Control_c, 0, 64, 127
2, 7950, Note_on_c, 0, 81, 85
2, 7951, Note_on_c, 0, 79, 0
2, 7958, Control_c, 0, 64, 0
2, 7980, Note_on_c, 0, 81, 0
2, 7980, Note_on_c, 0, 83, 85
2, 7987, Control_c, 0, 64, 127
2, 8008, Note_on_c, 0, 83, 0
2, 8010, Note_on_c, 0, 84, 89
2, 8038, Note_on_c, 0, 84, 0
2, 8040, Control_c, 0, 64, 0
2, 8040, Note_on_c, 0, 86, 89
2, 8041, Note_on_c, 0, 77, 0
2, 8043, Note_on_c, 0, 74, 0
2, 8070, Note_on_c, 0, 88, 80
2, 8075, Note_on_c, 0, 86, 0
2, 8100, Note_on_c, 0, 88, 0
2, 8100, Note_on_c, 0, 89, 80
2, 8123, Control_c, 0, 64, 127
2, 8130, Note_on_c, 0, 83, 76
2, 8134, Note_on_c, 0, 89, 0
2, 8160, Note_on_c, 0, 84, 93
2, 8160, Note_on_c, 0, 76, 76
2, 8160, Note_on_c, 0, 72, 76
2, 8161, Note_on_c, 0, 83, 0
2, 8168, Control_c, 0, 64, 127
2, 8173, Note_on_c, 0, 84, 0
2, 8179, Control_c, 0, 64, 0
2, 8220, Note_on_c, 0, 86, 93
2, 8234, Note_on_c, 0, 86, 0
2, 8235, Note_on_c, 0, 84, 80
2, 8247, Note_on_c, 0, 84, 0
2, 8250, Note_on_c, 0, 83, 80
2, 8261, Note_on_c, 0, 83, 0
2, 8280, Note_on_c, 0, 84, 93
2, 8338, Note_on_c, 0, 84, 0
2, 8340, Note_on_c, 0, 88, 89
2, 8343, Control_c, 0, 64, 127
2, 8389, Note_on_c, 0, 76, 0
2, 8394, Note_on_c, 0, 88, 0
2, 8399, Control_c, 0, 64, 0
2, 8400, Note_on_c, 0, 74, 64
2, 8400, Note_on_c, 0, 81, 68
2, 8430, Note_on_c, 0, 81, 0
2, 8460, Note_on_c, 0, 83, 80
2, 8472, Note_on_c, 0, 83, 0
2, 8475, Note_on_c, 0, 81, 64
2, 8490, Note_on_c, 0, 80, 76
2, 8493, Note_on_c, 0, 81, 0
2, 8510, Note_on_c, 0, 80, 0
2, 8520, Note_on_c, 0, 81, 76
2, 8578, Control_c, 0, 64, 127
2, 8579, Note_on_c, 0, 81, 0
2, 8580, Note_on_c, 0, 84, 76
2, 8592, Note_on_c, 0, 84, 0
2, 8607, Note_on_c, 0, 72, 0
2, 8614, Note_on_c, 0, 74, 0
2, 8640, Note_on_c, 0, 76, 76
2, 8640, Note_on_c, 0, 72, 62
2, 8640, Note_on_c, 0, 67, 72
2, 8641, Control_c, 0, 64, 0
2, 8655, Note_on_c, 0, 76, 0
2, 8700, Note_on_c, 0, 77, 68
2, 8715, Note_on_c, 0, 76, 68
2, 8717, Note_on_c, 0, 77, 0
2, 8730, Note_on_c, 0, 74, 68
2, 8734, Note_on_c, 0, 76, 0
2, 8747, Note_on_c, 0, 67, 0
2, 8753, Note_on_c, 0, 74, 0
2, 8760, Note_on_c, 0, 76, 80
2, 8760, Note_on_c, 0, 67, 62
2, 8760, Note_on_c, 0, 64, 47
2, 8761, Note_on_c, 0, 72, 0
2, 8818, Note_on_c, 0, 76, 0
2, 8820, Note_on_c, 0, 79, 80
2, 8821, Control_c, 0, 64, 127
2, 8833, Note_on_c, 0, 79, 0
2, 8870, Note_on_c, 0, 64, 0
2, 8879, Control_c, 0, 64, 0
2, 8880, Note_on_c, 0, 65, 76
2, 8880, Note_on_c, 0, 71, 89
2, 8893, Note_on_c, 0, 71, 0
2, 8940, Note_on_c, 0, 72, 76
2, 8955, Note_on_c, 0, 71, 76
2, 8956, Note_on_c, 0, 72, 0
2, 8970, Note_on_c, 0, 69, 64
2, 8972, Note_on_c, 0, 71, 0
2, 8983, Note_on_c, 0, 69, 0
2, 9000, Note_on_c, 0, 71, 80
2, 9000, Note_on_c, 0, 62, 89
2, 9001, Note_on_c, 0, 65, 0
2, 9019, Control_c, 0, 64, 127
2, 9054, Note_on_c, 0, 67, 0
2, 9055, Note_on_c, 0, 71, 0
2, 9058, Note_on_c, 0, 62, 0
2, 9060, Note_on_c, 0, 74, 89
2, 9072, Note_on_c, 0, 74, 0
2, 9116, Control_c, 0, 64, 0
2, 9120, Note_on_c, 0, 60, 93
2, 9120, Note_on_c, 0, 72, 107
2, 9148, Control_c, 0, 64, 127
2, 9330, Note_on_c, 0, 67, 98
2, 9330, Note_on_c, 0, 55, 98
2, 9332, Note_on_c, 0, 60, 0
2, 9333, Control_c, 0, 64, 0
2, 9334, Note_on_c, 0, 72, 0
2, 9360, Note_on_c, 0, 67, 0
2, 9360, Note_on_c, 0, 64, 93
2, 9360, Note_on_c, 0, 76, 102
2, 9363, Note_on_c, 0, 55, 0
2, 9388, Control_c, 0, 64, 127
2, 9565, Note_on_c, 0, 76, 0
2, 9570, Note_on_c, 0, 64, 0
2, 9570, Note_on_c, 0, 72, 98
2, 9570, Note_on_c, 0, 60, 89
2, 9581, Control_c, 0, 64, 0
2, 9595, Note_on_c, 0, 72, 0
2, 9600, Note_on_c, 0, 79, 107
2, 9600, Note_on_c, 0, 67, 93
2, 9601, Note_on_c, 0, 60, 0
2, 9613, Note_on_c, 0, 79, 0
2, 9615, Note_on_c, 0, 67, 0
2, 9660, Note_on_c, 0, 76, 98
2, 9660, Note_on_c, 0, 64, 93
2, 9671, Note_on_c, 0, 76, 0
2, 9674, Note_on_c, 0, 64, 0
2, 9720, Note_on_c, 0, 81, 107
2, 9720, Note_on_c, 0, 69, 102
2, 9746, Note_on_c, 0, 69, 0
2, 9746, Note_on_c, 0, 81, 0
2, 9900, Note_on_c, 0, 67, 98
2, 9900, Note_on_c, 0, 79, 107
2, 9914, Note_on_c, 0, 79, 0
2, 9918, Note_on_c, 0, 67, 0
2, 9960, Note_on_c, 0, 77, 102
2, 9960, Note_on_c, 0, 65, 93
2, 9971, Note_on_c, 0, 77, 0
2, 9972, Note_on_c, 0, 65, 0
2, 10020, Note_on_c, 0, 64, 93
2, 10020, Note_on_c, 0, 76, 102
2, 10032, Note_on_c, 0, 76, 0
2, 10036, Note_on_c, 0, 64, 0
2, 10080, Note_on_c, 0, 77, 107
2, 10080, Note_on_c, 0, 65, 89
2, 10091, Note_on_c, 0, 77, 0
2, 10094, Note_on_c, 0, 65, 0
2, 10140, Note_on_c, 0, 62, 93
2, 10140, Note_on_c, 0, 74, 102
2, 10151, Note_on_c, 0, 74, 0
2, 10155, Note_on_c, 0, 62, 0
2, 10198, Control_c, 0, 64, 127
2, 10200, Note_on_c, 0, 67, 89
2, 10200, Note_on_c, 0, 79, 113
2, 10233, Note_on_c, 0, 79, 0
2, 10236, Note_on_c, 0, 67, 0
2, 10248, Control_c, 0, 64, 0
2, 10380, Note_on_c, 0, 65, 98
2, 10380, Note_on_c, 0, 77, 102
2, 10396, Note_on_c, 0, 77, 0
2, 10397, Note_on_c, 0, 65, 0
2, 10440, Note_on_c, 0, 76, 93
2, 10440, Note_on_c, 0, 64, 89
2, 10452, Note_on_c, 0, 76, 0
2, 10453, Note_on_c, 0, 64, 0
2, 10500, Note_on_c, 0, 74, 93
2, 10500, Note_on_c, 0, 62, 89
2, 10512, Note_on_c, 0, 74, 0
2, 10514, Note_on_c, 0, 62, 0
2, 10560, Note_on_c, 0, 64, 62
2, 10560, Note_on_c, 0, 76, 76
2, 10571, Note_on_c, 0, 76, 0
2, 10620, Note_on_c, 0, 72, 72
2, 10632, Note_on_c, 0, 72, 0
2, 10680, Note_on_c, 0, 64, 0
2, 10680, Note_on_c, 0, 77, 76
2, 10860, Note_on_c, 0, 76, 72
2, 10863, Note_on_c, 0, 77, 0
2, 10920, Note_on_c, 0, 74, 62
2, 10921, Note_on_c, 0, 76, 0
2, 10975, Note_on_c, 0, 74, 0
2, 10980, Note_on_c, 0, 73, 62
2, 11040, Note_on_c, 0, 76, 76
2, 11046, Note_on_c, 0, 73, 0
2, 11100, Note_on_c, 0, 74, 76
2, 11101, Note_on_c, 0, 76, 0
2, 11152, Note_on_c, 0, 74, 0
2, 11160, Note_on_c, 0, 74, 64
2, 11340, Note_on_c, 0, 76, 89
2, 11345, Note_on_c, 0, 74, 0
2, 11355, Note_on_c, 0, 74, 68
2, 11359, Note_on_c, 0, 76, 0
2, 11370, Note_on_c, 0, 73, 60
2, 11372, Note_on_c, 0, 74, 0
2, 11385, Note_on_c, 0, 74, 76
2, 11388, Note_on_c, 0, 73, 0
2, 11400, Note_on_c, 0, 76, 72
2, 11403, Note_on_c, 0, 74, 0
2, 11451, Note_on_c, 0, 76, 0
2, 11460, Note_on_c, 0, 71, 80
2, 11517, Note_on_c, 0, 71, 0
2, 11520, Note_on_c, 0, 74, 64
2, 11580, Note_on_c, 0, 72, 62
2, 11582, Note_on_c, 0, 74, 0
2, 11610, Note_on_c, 0, 72, 0
2, 11640, Note_on_c, 0, 72, 68
2, 11649, Note_on_c, 0, 72, 0
2, 11700, Note_on_c, 0, 72, 80
2, 11710, Note_on_c, 0, 72, 0
2, 11760, Note_on_c, 0, 74, 85
2, 11773, Note_on_c, 0, 74, 0
2, 11775, Note_on_c, 0, 72, 60
2, 11790, Note_on_c, 0, 74, 76
2, 11791, Note_on_c, 0, 72, 0
2, 11805, Note_on_c, 0, 72, 68
2, 11806, Note_on_c, 0, 74, 0
2, 11820, Note_on_c, 0, 72, 0
2, 11820, Note_on_c, 0, 71, 76
2, 11848, Note_on_c, 0, 71, 0
2, 11850, Note_on_c, 0, 72, 72
2, 11879, Note_on_c, 0, 72, 0
2, 11880, Note_on_c, 0, 74, 89
2, 11940, Note_on_c, 0, 72, 85
2, 11945, Note_on_c, 0, 74, 0
2, 11959, Note_on_c, 0, 72, 0
2, 12000, Note_on_c, 0, 71, 98
2, 12010, Note_on_c, 0, 71, 0
2, 12060, Note_on_c, 0, 83, 80
2, 12060, Note_on_c, 0, 74, 76
2, 12071, Note_on_c, 0, 83, 0
2, 12072, Note_on_c, 0, 74, 0
2, 12120, Note_on_c, 0, 72, 62
2, 12120, Note_on_c, 0, 88, 89
2, 12151, Control_c, 0, 64, 127
2, 12176, Control_c, 0, 64, 0
2, 12179, Note_on_c, 0, 72, 0
2, 12180, Note_on_c, 0, 71, 62
2, 12198, Control_c, 0, 64, 127
2, 12233, Control_c, 0, 64, 0
2, 12236, Note_on_c, 0, 71, 0
2, 12240, Note_on_c, 0, 76, 76
2, 12254, Control_c, 0, 64, 127
2, 12281, Note_on_c, 0, 76, 0
2, 12286, Note_on_c, 0, 88, 0
2, 12296, Control_c, 0, 64, 0
2, 12300, Note_on_c, 0, 86, 89
2, 12300, Note_on_c, 0, 76, 76
2, 12310, Note_on_c, 0, 86, 0
2, 12315, Control_c, 0, 64, 127
2, 12324, Note_on_c, 0, 76, 0
2, 12329, Control_c, 0, 64, 0
2, 12358, Control_c, 0, 64, 127
2, 12360, Note_on_c, 0, 84, 76
2, 12360, Note_on_c, 0, 76, 57
2, 12371, Note_on_c, 0, 84, 0
2, 12379, Note_on_c, 0, 76, 0
2, 12412, Control_c, 0, 64, 0
2, 12420, Note_on_c, 0, 83, 98
2, 12420, Note_on_c, 0, 76, 64
2, 12430, Note_on_c, 0, 83, 0
2, 12433, Control_c, 0, 64, 127
2, 12438, Note_on_c, 0, 76, 0
2, 12468, Control_c, 0, 64, 0
2, 12480, Note_on_c, 0, 76, 60
2, 12480, Note_on_c, 0, 80, 72
2, 12485, Control_c, 0, 64, 127
2, 12514, Note_on_c, 0, 80, 0
2, 12514, Note_on_c, 0, 76, 0
2, 12533, Control_c, 0, 64, 0
2, 12540, Note_on_c, 0, 81, 72
2, 12540, Note_on_c, 0, 76, 72
2, 12555, Control_c, 0, 64, 127
2, 12575, Note_on_c, 0, 76, 0
2, 12590, Note_on_c, 0, 81, 0
2, 12596, Control_c, 0, 64, 0
2, 12600, Note_on_c, 0, 78, 72
2, 12600, Note_on_c, 0, 81, 72
2, 12615, Control_c, 0, 64, 127
2, 12658, Control_c, 0, 64, 0
2, 12659, Note_on_c, 0, 78, 0
2, 12660, Note_on_c, 0, 73, 60
2, 12674, Control_c, 0, 64, 127
2, 12715, Note_on_c, 0, 73, 0
2, 12715, Control_c, 0, 64, 0
2, 12720, Note_on_c, 0, 76, 76
2, 12730, Control_c, 0, 64, 127
2, 12757, Note_on_c, 0, 81, 0
2, 12771, Control_c, 0, 64, 0
2, 12772, Note_on_c, 0, 76, 0
2, 12780, Note_on_c, 0, 83, 89
2, 12780, Note_on_c, 0, 74, 64
2, 12791, Control_c, 0, 64, 127
2, 12793, Note_on_c, 0, 83, 0
2, 12795, Note_on_c, 0, 81, 85
2, 12810, Note_on_c, 0, 80, 60
2, 12811, Note_on_c, 0, 81, 0
2, 12822, Note_on_c, 0, 80, 0
2, 12825, Note_on_c, 0, 81, 76
2, 12832, Note_on_c, 0, 74, 0
2, 12833, Control_c, 0, 64, 0
2, 12839, Note_on_c, 0, 81, 0
2, 12840, Note_on_c, 0, 83, 76
2, 12840, Note_on_c, 0, 74, 76
2, 12852, Control_c, 0, 64, 127
2, 12886, Note_on_c, 0, 74, 0
2, 12894, Note_on_c, 0, 83, 0
2, 12898, Control_c, 0, 64, 0
2, 12900, Note_on_c, 0, 78, 76
2, 12900, Note_on_c, 0, 74, 64
2, 12913, Control_c, 0, 64, 127
2, 12934, Note_on_c, 0, 74, 0
2, 12935, Note_on_c, 0, 78, 0
2, 12954, Control_c, 0, 64, 0
2, 12960, Note_on_c, 0, 81, 89
2, 12960, Note_on_c, 0, 74, 68
2, 12970, Control_c, 0, 64, 127
2, 12997, Note_on_c, 0, 74, 0
2, 13010, Note_on_c, 0, 81, 0
2, 13016, Control_c, 0, 64, 0
2, 13020, Note_on_c, 0, 79, 85
2, 13020, Note_on_c, 0, 74, 64
2, 13031, Control_c, 0, 64, 127
2, 13066, Note_on_c, 0, 74, 0
2, 13068, Note_on_c, 0, 79, 0
2, 13077, Control_c, 0, 64, 0
2, 13080, Note_on_c, 0, 74, 72
2, 13080, Note_on_c, 0, 79, 76
2, 13094, Control_c, 0, 64, 127
2, 13125, Note_on_c, 0, 74, 0
2, 13134, Note_on_c, 0, 79, 0
2, 13140, Note_on_c, 0, 79, 85
2, 13140, Note_on_c, 0, 74, 85
2, 13141, Control_c, 0, 64, 0
2, 13154, Control_c, 0, 64, 127
2, 13188, Note_on_c, 0, 74, 0
2, 13191, Note_on_c, 0, 79, 0
2, 13199, Control_c, 0, 64, 0
2, 13200, Note_on_c, 0, 81, 89
2, 13200, Note_on_c, 0, 73, 72
2, 13215, Note_on_c, 0, 79, 89
2, 13216, Note_on_c, 0, 81, 0
2, 13216, Control_c, 0, 64, 127
2, 13227, Note_on_c, 0, 79, 0
2, 13230, Note_on_c, 0, 81, 76
2, 13242, Note_on_c, 0, 73, 0
2, 13245, Note_on_c, 0, 81, 0
2, 13245, Note_on_c, 0, 79, 56
2, 13260, Note_on_c, 0, 79, 0
2, 13260, Note_on_c, 0, 78, 80
2, 13260, Note_on_c, 0, 73, 72
2, 13261, Control_c, 0, 64, 0
2, 13278, Control_c, 0, 64, 127
2, 13287, Note_on_c, 0, 78, 0
2, 13290, Note_on_c, 0, 79, 85
2, 13295, Note_on_c, 0, 73, 0
2, 13308, Note_on_c, 0, 79, 0
2, 13318, Control_c, 0, 64, 0
2, 13320, Note_on_c, 0, 81, 85
2, 13320, Note_on_c, 0, 73, 72
2, 13335, Control_c, 0, 64, 127
2, 13352, Note_on_c, 0, 73, 0
2, 13355, Note_on_c, 0, 81, 0
2, 13376, Control_c, 0, 64, 0
2, 13380, Note_on_c, 0, 79, 85
2, 13380, Note_on_c, 0, 73, 72
2, 13390, Control_c, 0, 64, 127
2, 13395, Note_on_c, 0, 79, 0
2, 13402, Note_on_c, 0, 73, 0
2, 13404, Control_c, 0, 64, 0
2, 13440, Note_on_c, 0, 78, 93
2, 13440, Note_on_c, 0, 74, 80
2, 13445, Control_c, 0, 64, 127
2, 13554, Note_on_c, 0, 74, 0
2, 13557, Note_on_c, 0, 78, 0
2, 13558, Control_c, 0, 64, 0
2, 13710, Note_on_c, 0, 74, 72
2, 13740, Note_on_c, 0, 76, 89
2, 13742, Note_on_c, 0, 74, 0
2, 13770, Note_on_c, 0, 78, 72
2, 13772, Note_on_c, 0, 76, 0
2, 13800, Note_on_c, 0, 79, 89
2, 13801, Note_on_c, 0, 78, 0
2, 13830, Note_on_c, 0, 79, 0
2, 13830, Note_on_c, 0, 81, 89
2, 13860, Note_on_c, 0, 83, 76
2, 13862, Note_on_c, 0, 81, 0
2, 13890, Note_on_c, 0, 84, 80
2, 13895, Note_on_c, 0, 83, 0
2, 13920, Note_on_c, 0, 83, 80
2, 13923, Note_on_c, 0, 84, 0
2, 13950, Note_on_c, 0, 86, 89
2, 13952, Note_on_c, 0, 83, 0
2, 13976, Note_on_c, 0, 86, 0
2, 13980, Note_on_c, 0, 85, 59
2, 14010, Note_on_c, 0, 86, 85
2, 14013, Note_on_c, 0, 85, 0
2, 14040, Note_on_c, 0, 67, 55
2, 14040, Note_on_c, 0, 83, 93
2, 14041, Note_on_c, 0, 86, 0
2, 14070, Note_on_c, 0, 86, 85
2, 14072, Note_on_c, 0, 83, 0
2, 14099, Note_on_c, 0, 86, 0
2, 14100, Note_on_c, 0, 84, 85
2, 14110, Note_on_c, 0, 67, 0
2, 14130, Note_on_c, 0, 86, 76
2, 14131, Note_on_c, 0, 84, 0
2, 14159, Note_on_c, 0, 86, 0
2, 14160, Note_on_c, 0, 84, 89
2, 14160, Note_on_c, 0, 66, 76
2, 14173, Note_on_c, 0, 84, 0
2, 14190, Note_on_c, 0, 84, 93
2, 14220, Note_on_c, 0, 86, 89
2, 14222, Note_on_c, 0, 84, 0
2, 14230, Note_on_c, 0, 66, 0
2, 14239, Note_on_c, 0, 86, 0
2, 14250, Note_on_c, 0, 88, 93
2, 14269, Note_on_c, 0, 88, 0
2, 14280, Note_on_c, 0, 84, 80
2, 14280, Note_on_c, 0, 67, 72
2, 14310, Note_on_c, 0, 83, 80
2, 14316, Note_on_c, 0, 84, 0
2, 14335, Note_on_c, 0, 67, 0
2, 14340, Note_on_c, 0, 81, 89
2, 14342, Note_on_c, 0, 83, 0
2, 14370, Note_on_c, 0, 81, 0
2, 14370, Note_on_c, 0, 79, 80
2, 14400, Note_on_c, 0, 69, 89
2, 14400, Note_on_c, 0, 86, 93
2, 14402, Note_on_c, 0, 79, 0
2, 14487, Note_on_c, 0, 86, 0
2, 14490, Note_on_c, 0, 69, 0
2, 14670, Note_on_c, 0, 74, 85
2, 14700, Note_on_c, 0, 76, 89
2, 14705, Note_on_c, 0, 74, 0
2, 14730, Note_on_c, 0, 78, 76
2, 14731, Note_on_c, 0, 76, 0
2, 14759, Note_on_c, 0, 78, 0
2, 14760, Note_on_c, 0, 79, 80
2, 14790, Note_on_c, 0, 81, 89
2, 14791, Note_on_c, 0, 79, 0
2, 14820, Note_on_c, 0, 83, 85
2, 14822, Note_on_c, 0, 81, 0
2, 14850, Note_on_c, 0, 84, 80
2, 14852, Note_on_c, 0, 83, 0
2, 14880, Note_on_c, 0, 83, 93
2, 14882, Note_on_c, 0, 84, 0
2, 14910, Note_on_c, 0, 83, 0
2, 14910, Note_on_c, 0, 86, 93
2, 14940, Note_on_c, 0, 85, 76
2, 14941, Note_on_c, 0, 86, 0
2, 14968, Note_on_c, 0, 85, 0
2, 14970, Note_on_c, 0, 86, 76
2, 14999, Note_on_c, 0, 86, 0
2, 15000, Note_on_c, 0, 67, 72
2, 15000, Note_on_c, 0, 85, 80
2, 15030, Note_on_c, 0, 86, 76
2, 15031, Note_on_c, 0, 85, 0
2, 15058, Note_on_c, 0, 86, 0
2, 15060, Note_on_c, 0, 85, 76
2, 15063, Note_on_c, 0, 67, 0
2, 15089, Note_on_c, 0, 85, 0
2, 15090, Note_on_c, 0, 86, 72
2, 15115, Note_on_c, 0, 86, 0
2, 15120, Note_on_c, 0, 85, 80
2, 15120, Note_on_c, 0, 66, 72
2, 15150, Note_on_c, 0, 86, 89
2, 15152, Note_on_c, 0, 85, 0
2, 15162, Note_on_c, 0, 66, 0
2, 15175, Note_on_c, 0, 86, 0
2, 15180, Note_on_c, 0, 88, 59
2, 15210, Note_on_c, 0, 86, 89
2, 15213, Note_on_c, 0, 88, 0
2, 15240, Note_on_c, 0, 84, 93
2, 15240, Note_on_c, 0, 67, 57
2, 15241, Note_on_c, 0, 86, 0
2, 15270, Note_on_c, 0, 67, 0
2, 15270, Note_on_c, 0, 83, 80
2, 15272, Note_on_c, 0, 84, 0
2, 15297, Note_on_c, 0, 83, 0
2, 15300, Note_on_c, 0, 81, 76
2, 15329, Note_on_c, 0, 81, 0
2, 15330, Note_on_c, 0, 79, 76
2, 15357, Note_on_c, 0, 79, 0
2, 15360, Note_on_c, 0, 69, 98
2, 15360, Note_on_c, 0, 78, 85
2, 15387, Note_on_c, 0, 78, 0
2, 15390, Note_on_c, 0, 69, 0
2, 15390, Note_on_c, 0, 86, 102
2, 15420, Note_on_c, 0, 85, 80
2, 15423, Note_on_c, 0, 86, 0
2, 15450, Note_on_c, 0, 85, 0
2, 15450, Note_on_c, 0, 83, 93
2, 15480, Note_on_c, 0, 83, 0
2, 15480, Note_on_c, 0, 81, 85
2, 15510, Note_on_c, 0, 79, 80
2, 15511, Note_on_c, 0, 81, 0
2, 15540, Note_on_c, 0, 79, 0
2, 15540, Note_on_c, 0, 78, 64
2, 15569, Note_on_c, 0, 78, 0
2, 15570, Note_on_c, 0, 76, 89
2, 15600, Note_on_c, 0, 76, 0
2, 15600, Note_on_c, 0, 74, 107
2, 15660, Note_on_c, 0, 73, 89
2, 15663, Note_on_c, 0, 74, 0
2, 15690, Note_on_c, 0, 71, 98
2, 15693, Note_on_c, 0, 73, 0
2, 15720, Note_on_c, 0, 69, 98
2, 15722, Note_on_c, 0, 71, 0
2, 15750, Note_on_c, 0, 69, 0
2, 15750, Note_on_c, 0, 67, 89
2, 15780, Note_on_c, 0, 66, 89
2, 15786, Note_on_c, 0, 67, 0
2, 15788, Control_c, 0, 64, 127
2, 15796, Control_c, 0, 64, 0
2, 15810, Note_on_c, 0, 64, 89
2, 15813, Note_on_c, 0, 66, 0
2, 15840, Note_on_c, 0, 64, 0
2, 15840, Note_on_c, 0, 62, 102
2, 15844, Control_c, 0, 64, 127
2, 15874, Note_on_c, 0, 62, 0
2, 15898, Control_c, 0, 64, 0
2, 15900, Note_on_c, 0, 61, 102
2, 15917, Control_c, 0, 64, 127
2, 15930, Note_on_c, 0, 61, 0
2, 15930, Note_on_c, 0, 59, 93
2, 15939, Control_c, 0, 64, 0
2, 15959, Note_on_c, 0, 59, 0
2, 15960, Note_on_c, 0, 57, 93
2, 15962, Control_c, 0, 64, 127
2, 15981, Note_on_c, 0, 57, 0
2, 15990, Note_on_c, 0, 55, 89
2, 15993, Control_c, 0, 64, 0
2, 16008, Control_c, 0, 64, 127
2, 16013, Note_on_c, 0, 55, 0
2, 16020, Note_on_c, 0, 54, 98
2, 16042, Control_c, 0, 64, 0
2, 16048, Note_on_c, 0, 54, 0
2, 16050, Note_on_c, 0, 52, 98
2, 16059, Control_c, 0, 64, 127
2, 16075, Control_c, 0, 64, 0
2, 16080, Note_on_c, 0, 50, 93
2, 16081, Note_on_c, 0, 52, 0
2, 16094, Control_c, 0, 64, 127
2, 16110, Note_on_c, 0, 49, 89
2, 16112, Note_on_c, 0, 50, 0
2, 16115, Control_c, 0, 64, 0
2, 16126, Note_on_c, 0, 49, 0
2, 16140, Note_on_c, 0, 50, 89
2, 16170, Note_on_c, 0, 49, 80
2, 16171, Note_on_c, 0, 50, 0
2, 16176, Control_c, 0, 64, 127
2, 16193, Control_c, 0, 64, 0
2, 16200, Note_on_c, 0, 49, 0
2, 16200, Note_on_c, 0, 50, 89
2, 16220, Control_c, 0, 64, 127
2, 16230, Note_on_c, 0, 49, 89
2, 16233, Note_on_c, 0, 50, 0
2, 16238, Control_c, 0, 64, 0
2, 16259, Note_on_c, 0, 49, 0
2, 16260, Note_on_c, 0, 50, 93
2, 16263, Control_c, 0, 64, 127
2, 16290, Note_on_c, 0, 49, 89
2, 16293, Note_on_c, 0, 50, 0
2, 16305, Control_c, 0, 64, 0
2, 16315, Note_on_c, 0, 49, 0
2, 16320, Note_on_c, 0, 50, 85
2, 16338, Control_c, 0, 64, 127
2, 16359, Note_on_c, 0, 50, 0
2, 16399, Control_c, 0, 64, 0
2, 16440, Note_on_c, 0, 78, 113
2, 16440, Note_on_c, 0, 81, 107
2, 16440, Note_on_c, 0, 86, 113
2, 16440, Note_on_c, 0, 74, 93
2, 16459, Control_c, 0, 64, 127
2, 16482, Note_on_c, 0, 86, 0
2, 16483, Note_on_c, 0, 74, 0
2, 16484, Note_on_c, 0, 78, 0
2, 16485, Note_on_c, 0, 81, 0
2, 16551, Control_c, 0, 64, 0
2, 16620, Note_on_c, 0, 74, 60
2, 16633, Note_on_c, 0, 74, 0
2, 16680, Note_on_c, 0, 79, 68
2, 16689, Note_on_c, 0, 79, 0
2, 16740, Note_on_c, 0, 81, 62
2, 16750, Note_on_c, 0, 81, 0
2, 16800, Note_on_c, 0, 83, 89
2, 16800, Note_on_c, 0, 67, 38
2, 16860, Note_on_c, 0, 71, 56
2, 16920, Note_on_c, 0, 74, 49
2, 16921, Note_on_c, 0, 71, 0
2, 16922, Control_c, 0, 64, 127
2, 16975, Note_on_c, 0, 74, 0
2, 16979, Control_c, 0, 64, 0
2, 16980, Note_on_c, 0, 71, 46
2, 16980, Note_on_c, 0, 79, 76
2, 16981, Note_on_c, 0, 83, 0
2, 16992, Control_c, 0, 64, 127
2, 17013, Note_on_c, 0, 67, 0
2, 17017, Note_on_c, 0, 71, 0
2, 17017, Note_on_c, 0, 79, 0
2, 17040, Note_on_c, 0, 84, 76
2, 17040, Note_on_c, 0, 67, 55
2, 17046, Control_c, 0, 64, 0
2, 17070, Control_c, 0, 64, 127
2, 17100, Note_on_c, 0, 69, 49
2, 17104, Control_c, 0, 64, 0
2, 17123, Control_c, 0, 64, 127
2, 17160, Note_on_c, 0, 72, 55
2, 17161, Control_c, 0, 64, 0
2, 17163, Note_on_c, 0, 69, 0
2, 17175, Control_c, 0, 64, 127
2, 17207, Note_on_c, 0, 72, 0
2, 17217, Note_on_c, 0, 84, 0
2, 17220, Note_on_c, 0, 69, 42
2, 17220, Note_on_c, 0, 81, 76
2, 17240, Note_on_c, 0, 67, 0
2, 17242, Note_on_c, 0, 81, 0
2, 17249, Note_on_c, 0, 69, 0
2, 17274, Control_c, 0, 64, 0
2, 17280, Note_on_c, 0, 67, 18
2, 17280, Note_on_c, 0, 86, 76
2, 17291, Note_on_c, 0, 86, 0
2, 17307, Control_c, 0, 64, 127
2, 17336, Control_c, 0, 64, 0
2, 17340, Note_on_c, 0, 71, 50
2, 17340, Note_on_c, 0, 83, 76
2, 17349, Note_on_c, 0, 83, 0
2, 17383, Note_on_c, 0, 71, 0
2, 17400, Note_on_c, 0, 74, 51
2, 17400, Note_on_c, 0, 79, 72
2, 17409, Note_on_c, 0, 79, 0
2, 17459, Note_on_c, 0, 74, 0
2, 17460, Note_on_c, 0, 71, 32
2, 17461, Control_c, 0, 64, 127
2, 17496, Note_on_c, 0, 67, 0
2, 17505, Note_on_c, 0, 71, 0
2, 17520, Note_on_c, 0, 67, 57
2, 17525, Control_c, 0, 64, 0
2, 17543, Control_c, 0, 64, 127
2, 17580, Note_on_c, 0, 74, 72
2, 17589, Note_on_c, 0, 74, 0
2, 17592, Control_c, 0, 64, 0
2, 17640, Note_on_c, 0, 79, 80
2, 17642, Note_on_c, 0, 67, 0
2, 17650, Note_on_c, 0, 79, 0
2, 17700, Note_on_c, 0, 81, 76
2, 17711, Note_on_c, 0, 81, 0
2, 17760, Note_on_c, 0, 67, 53
2, 17760, Note_on_c, 0, 83, 76
2, 17775, Control_c, 0, 64, 127
2, 17820, Note_on_c, 0, 71, 60
2, 17831, Control_c, 0, 64, 0
2, 17875, Control_c, 0, 64, 127
2, 17880, Note_on_c, 0, 74, 56
2, 17881, Note_on_c, 0, 71, 0
2, 17894, Note_on_c, 0, 83, 0
2, 17927, Control_c, 0, 64, 0
2, 17935, Note_on_c, 0, 74, 0
2, 17940, Note_on_c, 0, 79, 76
2, 17940, Note_on_c, 0, 71, 51
2, 17942, Control_c, 0, 64, 127
2, 17954, Note_on_c, 0, 79, 0
2, 17956, Note_on_c, 0, 71, 0
2, 17958, Note_on_c, 0, 67, 0
2, 17993, Control_c, 0, 64, 0
2, 18000, Note_on_c, 0, 86, 64
2, 18000, Note_on_c, 0, 66, 44
2, 18000, Note_on_c, 0, 69, 56
2, 18012, Control_c, 0, 64, 127
2, 18053, Control_c, 0, 64, 0
2, 18055, Note_on_c, 0, 86, 0
2, 18060, Note_on_c, 0, 84, 76
2, 18060, Note_on_c, 0, 74, 55
2, 18076, Note_on_c, 0, 84, 0
2, 18078, Control_c, 0, 64, 127
2, 18091, Note_on_c, 0, 74, 0
2, 18092, Note_on_c, 0, 69, 0
2, 18093, Note_on_c, 0, 66, 0
2, 18112, Control_c, 0, 64, 0
2, 18120, Note_on_c, 0, 67, 57
2, 18120, Note_on_c, 0, 71, 60
2, 18120, Note_on_c, 0, 84, 85
2, 18142, Control_c, 0, 64, 127
2, 18171, Control_c, 0, 64, 0
2, 18180, Note_on_c, 0, 84, 0
2, 18180, Note_on_c, 0, 74, 62
2, 18180, Note_on_c, 0, 83, 62
2, 18191, Control_c, 0, 64, 127
2, 18192, Note_on_c, 0, 83, 0
2, 18199, Note_on_c, 0, 71, 0
2, 18202, Note_on_c, 0, 74, 0
2, 18202, Note_on_c, 0, 67, 0
2, 18222, Control_c, 0, 64, 0
2, 18240, Note_on_c, 0, 80, 72
2, 18255, Note_on_c, 0, 66, 29
2, 18255, Note_on_c, 0, 62, 51
2, 18263, Note_on_c, 0, 66, 0
2, 18295, Control_c, 0, 64, 127
2, 18300, Note_on_c, 0, 66, 72
2, 18317, Note_on_c, 0, 80, 0
2, 18354, Note_on_c, 0, 66, 0
2, 18360, Note_on_c, 0, 69, 55
2, 18360, Note_on_c, 0, 81, 76
2, 18361, Control_c, 0, 64, 0
2, 18388, Control_c, 0, 64, 127
2, 18413, Note_on_c, 0, 69, 0
2, 18420, Note_on_c, 0, 66, 51
2, 18468, Note_on_c, 0, 62, 0
2, 18475, Note_on_c, 0, 66, 0
2, 18480, Note_on_c, 0, 62, 76
2, 18481, Control_c, 0, 64, 0
2, 18496, Control_c, 0, 64, 127
2, 18501, Note_on_c, 0, 81, 0
2, 18535, Control_c, 0, 64, 0
2, 18540, Note_on_c, 0, 74, 89
2, 18549, Note_on_c, 0, 74, 0
2, 18579, Note_on_c, 0, 62, 0
2, 18600, Note_on_c, 0, 79, 89
2, 18610, Note_on_c, 0, 79, 0
2, 18660, Note_on_c, 0, 81, 72
2, 18670, Note_on_c, 0, 81, 0
2, 18720, Note_on_c, 0, 67, 60
2, 18720, Note_on_c, 0, 83, 85
2, 18738, Control_c, 0, 64, 127
2, 18780, Note_on_c, 0, 71, 68
2, 18783, Control_c, 0, 64, 0
2, 18805, Control_c, 0, 64, 127
2, 18832, Control_c, 0, 64, 0
2, 18840, Note_on_c, 0, 74, 59
2, 18841, Note_on_c, 0, 71, 0
2, 18847, Control_c, 0, 64, 127
2, 18896, Note_on_c, 0, 74, 0
2, 18900, Note_on_c, 0, 83, 0
2, 18900, Note_on_c, 0, 71, 59
2, 18900, Note_on_c, 0, 79, 76
2, 18922, Note_on_c, 0, 67, 0
2, 18923, Note_on_c, 0, 79, 0
2, 18933, Note_on_c, 0, 71, 0
2, 18960, Note_on_c, 0, 84, 80
2, 18960, Note_on_c, 0, 67, 53
2, 18966, Control_c, 0, 64, 0
2, 18995, Control_c, 0, 64, 127
2, 19020, Note_on_c, 0, 69, 52
2, 19068, Control_c, 0, 64, 0
2, 19080, Note_on_c, 0, 72, 57
2, 19082, Note_on_c, 0, 69, 0
2, 19084, Control_c, 0, 64, 127
2, 19121, Note_on_c, 0, 84, 0
2, 19132, Note_on_c, 0, 72, 0
2, 19140, Note_on_c, 0, 69, 52
2, 19140, Note_on_c, 0, 81, 80
2, 19151, Note_on_c, 0, 67, 0
2, 19153, Note_on_c, 0, 81, 0
2, 19157, Note_on_c, 0, 69, 0
2, 19198, Control_c, 0, 64, 0
2, 19200, Note_on_c, 0, 71, 76
2, 19200, Note_on_c, 0, 67, 64
2, 19200, Note_on_c, 0, 86, 113
2, 19209, Note_on_c, 0, 86, 0
2, 19260, Note_on_c, 0, 83, 107
2, 19264, Note_on_c, 0, 67, 0
2, 19270, Note_on_c, 0, 83, 0
2, 19272, Note_on_c, 0, 71, 0
2, 19320, Note_on_c, 0, 60, 93
2, 19320, Note_on_c, 0, 88, 113
2, 19320, Note_on_c, 0, 72, 85
2, 19382, Note_on_c, 0, 88, 0
2, 19384, Note_on_c, 0, 72, 0
2, 19385, Note_on_c, 0, 60, 0
2, 19500, Note_on_c, 0, 88, 93
2, 19530, Note_on_c, 0, 88, 0
2, 19530, Note_on_c, 0, 86, 89
2, 19559, Note_on_c, 0, 86, 0
2, 19560, Note_on_c, 0, 84, 89
2, 19590, Note_on_c, 0, 84, 0
2, 19590, Note_on_c, 0, 83, 76
2, 19616, Note_on_c, 0, 83, 0
2, 19620, Note_on_c, 0, 81, 85
2, 19650, Note_on_c, 0, 81, 0
2, 19650, Note_on_c, 0, 79, 76
2, 19677, Note_on_c, 0, 79, 0
2, 19680, Note_on_c, 0, 78, 89
2, 19680, Note_on_c, 0, 72, 72
2, 19680, Note_on_c, 0, 62, 102
2, 19723, Note_on_c, 0, 62, 0
2, 19728, Note_on_c, 0, 78, 0
2, 19729, Note_on_c, 0, 72, 0
2, 19800, Note_on_c, 0, 79, 98
2, 19800, Note_on_c, 0, 64, 89
2, 19800, Note_on_c, 0, 71, 89
2, 19839, Note_on_c, 0, 71, 0
2, 19839, Note_on_c, 0, 79, 0
2, 19840, Note_on_c, 0, 64, 0
2, 19920, Note_on_c, 0, 60, 62
2, 19920, Note_on_c, 0, 64, 76
2, 19920, Note_on_c, 0, 81, 93
2, 19934, Control_c, 0, 64, 127
2, 19967, Note_on_c, 0, 81, 0
2, 19976, Note_on_c, 0, 60, 0
2, 19978, Note_on_c, 0, 64, 0
2, 19986, Control_c, 0, 64, 0
2, 19995, Note_on_c, 0, 83, 89
2, 20010, Note_on_c, 0, 83, 0
2, 20010, Note_on_c, 0, 81, 68
2, 20025, Note_on_c, 0, 79, 89
2, 20026, Note_on_c, 0, 81, 0
2, 20040, Note_on_c, 0, 81, 93
2, 20040, Note_on_c, 0, 62, 76
2, 20040, Note_on_c, 0, 66, 76
2, 20041, Note_on_c, 0, 79, 0
2, 20075, Note_on_c, 0, 81, 0
2, 20092, Note_on_c, 0, 66, 0
2, 20093, Note_on_c, 0, 62, 0
2, 20100, Note_on_c, 0, 83, 98
2, 20119, Note_on_c, 0, 83, 0
2, 20160, Note_on_c, 0, 81, 107
2, 20160, Note_on_c, 0, 62, 80
2, 20160, Note_on_c, 0, 72, 76
2, 20160, Note_on_c, 0, 66, 68
2, 20186, Control_c, 0, 64, 127
2, 20361, Note_on_c, 0, 72, 0
2, 20366, Note_on_c, 0, 66, 0
2, 20367, Note_on_c, 0, 62, 0
2, 20400, Note_on_c, 0, 79, 80
2, 20400, Note_on_c, 0, 67, 56
2, 20400, Note_on_c, 0, 71, 60
2, 20402, Note_on_c, 0, 81, 0
2, 20402, Control_c, 0, 64, 0
2, 20419, Control_c, 0, 64, 127
2, 20519, Note_on_c, 0, 79, 0
2, 20521, Note_on_c, 0, 71, 0
2, 20523, Note_on_c, 0, 67, 0
2, 20523, Control_c, 0, 64, 0
2, 21120, Note_on_c, 0, 67, 76
2, 21129, Control_c, 0, 64, 127
2, 21150, Note_on_c, 0, 74, 72
2, 21162, Control_c, 0, 64, 0
2, 21180, Note_on_c, 0, 74, 0
2, 21180, Note_on_c, 0, 76, 76
2, 21192, Control_c, 0, 64, 127
2, 21208, Note_on_c, 0, 76, 0
2, 21210, Note_on_c, 0, 78, 64
2, 21238, Note_on_c, 0, 78, 0
2, 21240, Note_on_c, 0, 79, 72
2, 21242, Control_c, 0, 64, 0
2, 21248, Note_on_c, 0, 67, 0
2, 21268, Note_on_c, 0, 79, 0
2, 21270, Note_on_c, 0, 81, 76
2, 21300, Note_on_c, 0, 81, 0
2, 21300, Note_on_c, 0, 83, 76
2, 21330, Note_on_c, 0, 83, 0
2, 21330, Note_on_c, 0, 84, 72
2, 21360, Note_on_c, 0, 84, 0
2, 21360, Note_on_c, 0, 86, 80
2, 21390, Note_on_c, 0, 83, 59
2, 21392, Note_on_c, 0, 86, 0
2, 21420, Note_on_c, 0, 83, 0
2, 21420, Note_on_c, 0, 86, 56
2, 21449, Note_on_c, 0, 86, 0
2, 21450, Note_on_c, 0, 83, 50
2, 21480, Note_on_c, 0, 79, 55
2, 21485, Note_on_c, 0, 83, 0
2, 21493, Control_c, 0, 64, 127
2, 21529, Note_on_c, 0, 79, 0
2, 21568, Control_c, 0, 64, 0
2, 22110, Note_on_c, 0, 62, 72
2, 22140, Note_on_c, 0, 64, 76
2, 22143, Note_on_c, 0, 62, 0
2, 22166, Control_c, 0, 64, 127
2, 22170, Note_on_c, 0, 64, 0
2, 22170, Note_on_c, 0, 66, 60
2, 22171, Control_c, 0, 64, 0
2, 22196, Note_on_c, 0, 66, 0
2, 22200, Note_on_c, 0, 67, 60
2, 22227, Note_on_c, 0, 67, 0
2, 22230, Note_on_c, 0, 69, 62
2, 22260, Note_on_c, 0, 69, 0
2, 22260, Note_on_c, 0, 71, 72
2, 22287, Note_on_c, 0, 71, 0
2, 22290, Note_on_c, 0, 73, 72
2, 22319, Note_on_c, 0, 73, 0
2, 22320, Note_on_c, 0, 74, 57
2, 22350, Note_on_c, 0, 76, 57
2, 22353, Note_on_c, 0, 74, 0
2, 22380, Note_on_c, 0, 72, 60
2, 22382, Note_on_c, 0, 76, 0
2, 22410, Note_on_c, 0, 72, 0
2, 22410, Note_on_c, 0, 74, 68
2, 22440, Note_on_c, 0, 71, 76
2, 22441, Note_on_c, 0, 74, 0
2, 22469, Note_on_c, 0, 71, 0
2, 22470, Note_on_c, 0, 72, 76
2, 22500, Note_on_c, 0, 69, 68
2, 22501, Note_on_c, 0, 72, 0
2, 22529, Note_on_c, 0, 69, 0
2, 22530, Note_on_c, 0, 71, 56
2, 22560, Note_on_c, 0, 67, 52
2, 22561, Note_on_c, 0, 71, 0
2, 22571, Control_c, 0, 64, 127
2, 22683, Note_on_c, 0, 67, 0
2, 22697, Control_c, 0, 64, 0
2, 24000, Note_on_c, 0, 71, 89
2, 24000, Note_on_c, 0, 86, 107
2, 24015, Note_on_c, 0, 86, 0
2, 24018, Note_on_c, 0, 71, 0
2, 24060, Note_on_c, 0, 83, 98
2, 24060, Note_on_c, 0, 67, 89
2, 24072, Note_on_c, 0, 83, 0
2, 24075, Note_on_c, 0, 67, 0
2, 24120, Note_on_c, 0, 88, 102
2, 24120, Note_on_c, 0, 72, 98
2, 24134, Control_c, 0, 64, 127
2, 24268, Note_on_c, 0, 88, 0
2, 24270, Note_on_c, 0, 72, 0
2, 24278, Control_c, 0, 64, 0
2, 24300, Note_on_c, 0, 88, 68
2, 24330, Note_on_c, 0, 88, 0
2, 24330, Note_on_c, 0, 86, 80
2, 24360, Note_on_c, 0, 84, 68
2, 24362, Note_on_c, 0, 86, 0
2, 24389, Note_on_c, 0, 84, 0
2, 24390, Note_on_c, 0, 83, 60
2, 24418, Note_on_c, 0, 83, 0
2, 24420, Note_on_c, 0, 81, 62
2, 24450, Note_on_c, 0, 79, 76
2, 24452, Note_on_c, 0, 81, 0
2, 24480, Note_on_c, 0, 78, 49
2, 24482, Note_on_c, 0, 79, 0
2, 24537, Control_c, 0, 64, 127
2, 24540, Note_on_c, 0, 69, 55
2, 24540, Note_on_c, 0, 72, 57
2, 24572, Note_on_c, 0, 69, 0
2, 24574, Note_on_c, 0, 72, 0
2, 24600, Note_on_c, 0, 72, 62
2, 24600, Note_on_c, 0, 69, 56
2, 24628, Note_on_c, 0, 69, 0
2, 24629, Note_on_c, 0, 72, 0
2, 24660, Note_on_c, 0, 69, 56
2, 24660, Note_on_c, 0, 72, 55
2, 24669, Note_on_c, 0, 78, 0
2, 24681, Note_on_c, 0, 69, 0
2, 24682, Note_on_c, 0, 72, 0
2, 24713, Control_c, 0, 64, 0
2, 24720, Note_on_c, 0, 69, 60
2, 24720, Note_on_c, 0, 72, 60
2, 24731, Control_c, 0, 64, 127
2, 24745, Note_on_c, 0, 69, 0
2, 24748, Note_on_c, 0, 72, 0
2, 24776, Control_c, 0, 64, 0
2, 24780, Note_on_c, 0, 87, 72
2, 24780, Note_on_c, 0, 72, 62
2, 24780, Note_on_c, 0, 69, 64
2, 24790, Control_c, 0, 64, 127
2, 24807, Note_on_c, 0, 87, 0
2, 24810, Note_on_c, 0, 69, 0
2, 24810, Note_on_c, 0, 86, 72
2, 24815, Note_on_c, 0, 72, 0
2, 24830, Control_c, 0, 64, 0
2, 24838, Note_on_c, 0, 86, 0
2, 24840, Note_on_c, 0, 84, 80
2, 24840, Note_on_c, 0, 72, 55
2, 24840, Note_on_c, 0, 69, 60
2, 24845, Control_c, 0, 64, 127
2, 24864, Note_on_c, 0, 69, 0
2, 24868, Note_on_c, 0, 84, 0
2, 24869, Note_on_c, 0, 72, 0
2, 24870, Note_on_c, 0, 82, 76
2, 24887, Note_on_c, 0, 82, 0
2, 24891, Control_c, 0, 64, 0
2, 24900, Note_on_c, 0, 81, 72
2, 24900, Note_on_c, 0, 72, 56
2, 24900, Note_on_c, 0, 69, 59
2, 24905, Control_c, 0, 64, 127
2, 24916, Note_on_c, 0, 69, 0
2, 24922, Note_on_c, 0, 72, 0
2, 24930, Note_on_c, 0, 79, 85
2, 24932, Note_on_c, 0, 81, 0
2, 24953, Control_c, 0, 64, 0
2, 24959, Note_on_c, 0, 79, 0
2, 24960, Note_on_c, 0, 78, 62
2, 24975, Control_c, 0, 64, 127
2, 25015, Control_c, 0, 64, 0
2, 25020, Note_on_c, 0, 69, 62
2, 25020, Note_on_c, 0, 72, 57
2, 25030, Control_c, 0, 64, 127
2, 25050, Note_on_c, 0, 69, 0
2, 25052, Note_on_c, 0, 72, 0
2, 25078, Control_c, 0, 64, 0
2, 25080, Note_on_c, 0, 72, 57
2, 25080, Note_on_c, 0, 69, 62
2, 25090, Control_c, 0, 64, 127
2, 25110, Note_on_c, 0, 69, 0
2, 25112, Note_on_c, 0, 72, 0
2, 25132, Control_c, 0, 64, 0
2, 25140, Note_on_c, 0, 72, 59
2, 25140, Note_on_c, 0, 69, 60
2, 25145, Control_c, 0, 64, 127
2, 25160, Note_on_c, 0, 69, 0
2, 25165, Note_on_c, 0, 72, 0
2, 25192, Control_c, 0, 64, 0
2, 25200, Note_on_c, 0, 72, 68
2, 25200, Note_on_c, 0, 69, 64
2, 25205, Note_on_c, 0, 78, 0
2, 25206, Control_c, 0, 64, 127
2, 25248, Control_c, 0, 64, 0
2, 25260, Note_on_c, 0, 78, 76
2, 25261, Control_c, 0, 64, 127
2, 25288, Note_on_c, 0, 69, 0
2, 25289, Note_on_c, 0, 78, 0
2, 25290, Note_on_c, 0, 72, 0
2, 25290, Note_on_c, 0, 79, 80
2, 25302, Control_c, 0, 64, 0
2, 25320, Note_on_c, 0, 81, 85
2, 25321, Note_on_c, 0, 79, 0
2, 25350, Note_on_c, 0, 81, 0
2, 25350, Note_on_c, 0, 83, 80
2, 25378, Note_on_c, 0, 83, 0
2, 25380, Note_on_c, 0, 84, 93
2, 25410, Note_on_c, 0, 84, 0
2, 25410, Note_on_c, 0, 86, 89
2, 25439, Note_on_c, 0, 86, 0
2, 25440, Note_on_c, 0, 88, 107
2, 25454, Control_c, 0, 64, 127
2, 25540, Note_on_c, 0, 88, 0
2, 25540, Control_c, 0, 64, 0
2, 25560, Note_on_c, 0, 86, 102
2, 25574, Note_on_c, 0, 86, 0
2, 25680, Note_on_c, 0, 85, 102
2, 25696, Note_on_c, 0, 85, 0
2, 25800, Note_on_c, 0, 84, 85
2, 25800, Note_on_c, 0, 66, 68
2, 25834, Note_on_c, 0, 84, 0
2, 25919, Note_on_c, 0, 66, 0
2, 25920, Note_on_c, 0, 83, 89
2, 25920, Note_on_c, 0, 67, 89
2, 25938, Control_c, 0, 64, 127
2, 26040, Note_on_c, 0, 67, 0
2, 26040, Note_on_c, 0, 65, 76
2, 26041, Control_c, 0, 64, 0
2, 26057, Control_c, 0, 64, 127
2, 26067, Note_on_c, 0, 83, 0
2, 26099, Control_c, 0, 64, 0
2, 26100, Note_on_c, 0, 84, 85
2, 26112, Control_c, 0, 64, 127
2, 26115, Note_on_c, 0, 83, 72
2, 26118, Note_on_c, 0, 84, 0
2, 26128, Note_on_c, 0, 83, 0
2, 26130, Note_on_c, 0, 81, 57
2, 26145, Note_on_c, 0, 83, 76
2, 26148, Note_on_c, 0, 81, 0
2, 26150, Note_on_c, 0, 65, 0
2, 26159, Control_c, 0, 64, 0
2, 26160, Note_on_c, 0, 86, 98
2, 26160, Note_on_c, 0, 64, 76
2, 26162, Note_on_c, 0, 83, 0
2, 26179, Control_c, 0, 64, 127
2, 26216, Note_on_c, 0, 64, 0
2, 26217, Control_c, 0, 64, 0
2, 26220, Note_on_c, 0, 84, 80
2, 26220, Note_on_c, 0, 69, 72
2, 26221, Note_on_c, 0, 86, 0
2, 26234, Control_c, 0, 64, 127
2, 26275, Control_c, 0, 64, 0
2, 26280, Note_on_c, 0, 84, 0
2, 26280, Note_on_c, 0, 83, 85
2, 26280, Note_on_c, 0, 71, 68
2, 26282, Note_on_c, 0, 69, 0
2, 26291, Control_c, 0, 64, 127
2, 26339, Control_c, 0, 64, 0
2, 26340, Note_on_c, 0, 83, 0
2, 26340, Note_on_c, 0, 81, 76
2, 26340, Note_on_c, 0, 72, 76
2, 26342, Note_on_c, 0, 71, 0
2, 26354, Control_c, 0, 64, 127
2, 26379, Note_on_c, 0, 81, 0
2, 26386, Note_on_c, 0, 72, 0
2, 26397, Control_c, 0, 64, 0
2, 26400, Note_on_c, 0, 79, 76
2, 26416, Control_c, 0, 64, 127
2, 26428, Note_on_c, 0, 79, 0
2, 26430, Note_on_c, 0, 81, 64
2, 26454, Note_on_c, 0, 81, 0
2, 26454, Control_c, 0, 64, 0
2, 26460, Note_on_c, 0, 71, 62
2, 26460, Note_on_c, 0, 79, 80
2, 26460, Note_on_c, 0, 67, 68
2, 26469, Control_c, 0, 64, 127
2, 26487, Note_on_c, 0, 79, 0
2, 26490, Note_on_c, 0, 78, 64
2, 26498, Note_on_c, 0, 67, 0
2, 26501, Note_on_c, 0, 71, 0
2, 26508, Note_on_c, 0, 78, 0
2, 26520, Note_on_c, 0, 79, 72
2, 26520, Note_on_c, 0, 71, 55
2, 26520, Note_on_c, 0, 67, 72
2, 26524, Control_c, 0, 64, 0
2, 26539, Control_c, 0, 64, 127
2, 26548, Note_on_c, 0, 79, 0
2, 26550, Note_on_c, 0, 81, 80
2, 26555, Note_on_c, 0, 67, 0
2, 26558, Note_on_c, 0, 71, 0
2, 26577, Note_on_c, 0, 81, 0
2, 26578, Control_c, 0, 64, 0
2, 26580, Note_on_c, 0, 83, 93
2, 26580, Note_on_c, 0, 71, 56
2, 26580, Note_on_c, 0, 67, 62
2, 26591, Control_c, 0, 64, 127
2, 26610, Note_on_c, 0, 83, 0
2, 26610, Note_on_c, 0, 84, 85
2, 26613, Note_on_c, 0, 67, 0
2, 26619, Note_on_c, 0, 71, 0
2, 26628, Note_on_c, 0, 84, 0
2, 26640, Control_c, 0, 64, 0
2, 26640, Note_on_c, 0, 71, 56
2, 26640, Note_on_c, 0, 86, 89
2, 26640, Note_on_c, 0, 67, 62
2, 26654, Control_c, 0, 64, 127
2, 26664, Note_on_c, 0, 86, 0
2, 26670, Note_on_c, 0, 85, 72
2, 26676, Note_on_c, 0, 67, 0
2, 26680, Note_on_c, 0, 71, 0
2, 26689, Note_on_c, 0, 85, 0
2, 26700, Control_c, 0, 64, 0
2, 26700, Note_on_c, 0, 86, 76
2, 26700, Note_on_c, 0, 71, 57
2, 26700, Note_on_c, 0, 67, 64
2, 26715, Control_c, 0, 64, 127
2, 26724, Note_on_c, 0, 86, 0
2, 26730, Note_on_c, 0, 85, 72
2, 26734, Note_on_c, 0, 67, 0
2, 26737, Note_on_c, 0, 71, 0
2, 26748, Note_on_c, 0, 85, 0
2, 26759, Control_c, 0, 64, 0
2, 26760, Note_on_c, 0, 86, 80
2, 26760, Note_on_c, 0, 67, 62
2, 26760, Note_on_c, 0, 71, 55
2, 26774, Control_c, 0, 64, 127
2, 26785, Note_on_c, 0, 86, 0
2, 26790, Note_on_c, 0, 85, 68
2, 26792, Note_on_c, 0, 67, 0
2, 26794, Note_on_c, 0, 71, 0
2, 26809, Note_on_c, 0, 85, 0
2, 26818, Control_c, 0, 64, 0
2, 26820, Note_on_c, 0, 86, 85
2, 26820, Note_on_c, 0, 71, 55
2, 26820, Note_on_c, 0, 67, 68
2, 26831, Control_c, 0, 64, 127
2, 26844, Note_on_c, 0, 86, 0
2, 26846, Note_on_c, 0, 67, 0
2, 26850, Note_on_c, 0, 85, 72
2, 26854, Note_on_c, 0, 71, 0
2, 26865, Note_on_c, 0, 85, 0
2, 26875, Control_c, 0, 64, 0
2, 26880, Note_on_c, 0, 71, 60
2, 26880, Note_on_c, 0, 67, 72
2, 26880, Note_on_c, 0, 88, 93
2, 26891, Control_c, 0, 64, 127
2, 26907, Note_on_c, 0, 88, 0
2, 26910, Note_on_c, 0, 86, 72
2, 26918, Note_on_c, 0, 67, 0
2, 26921, Note_on_c, 0, 71, 0
2, 26932, Note_on_c, 0, 86, 0
2, 26933, Control_c, 0, 64, 0
2, 26940, Note_on_c, 0, 85, 85
2, 26940, Note_on_c, 0, 67, 62
2, 26940, Note_on_c, 0, 71, 55
2, 26948, Control_c, 0, 64, 127
2, 26965, Note_on_c, 0, 85, 0
2, 26970, Note_on_c, 0, 86, 80
2, 26972, Note_on_c, 0, 67, 0
2, 26973, Note_on_c, 0, 71, 0
2, 26988, Note_on_c, 0, 86, 0
2, 26995, Control_c, 0, 64, 0
2, 27000, Note_on_c, 0, 84, 72
2, 27000, Note_on_c, 0, 71, 56
2, 27000, Note_on_c, 0, 67, 68
2, 27009, Control_c, 0, 64, 127
2, 27027, Note_on_c, 0, 67, 0
2, 27028, Note_on_c, 0, 84, 0
2, 27030, Note_on_c, 0, 83, 85
2, 27034, Note_on_c, 0, 71, 0
2, 27048, Control_c, 0, 64, 0
2, 27060, Note_on_c, 0, 71, 52
2, 27060, Note_on_c, 0, 81, 72
2, 27060, Note_on_c, 0, 67, 64
2, 27061, Note_on_c, 0, 83, 0
2, 27062, Control_c, 0, 64, 127
2, 27088, Note_on_c, 0, 81, 0
2, 27090, Note_on_c, 0, 79, 80
2, 27093, Note_on_c, 0, 67, 0
2, 27098, Note_on_c, 0, 71, 0
2, 27107, Note_on_c, 0, 79, 0
2, 27109, Control_c, 0, 64, 0
2, 27120, Note_on_c, 0, 83, 89
2, 27120, Note_on_c, 0, 71, 55
2, 27120, Note_on_c, 0, 67, 60
2, 27124, Control_c, 0, 64, 127
2, 27151, Note_on_c, 0, 67, 0
2, 27154, Note_on_c, 0, 71, 0
2, 27172, Note_on_c, 0, 83, 0
2, 27175, Control_c, 0, 64, 0
2, 27180, Note_on_c, 0, 67, 64
2, 27180, Note_on_c, 0, 71, 60
2, 27190, Control_c, 0, 64, 127
2, 27202, Note_on_c, 0, 67, 0
2, 27204, Note_on_c, 0, 71, 0
2, 27237, Control_c, 0, 64, 0
2, 27240, Note_on_c, 0, 66, 76
2, 27240, Note_on_c, 0, 81, 89
2, 27240, Note_on_c, 0, 72, 72
2, 27252, Control_c, 0, 64, 127
2, 27256, Note_on_c, 0, 81, 0
2, 27282, Control_c, 0, 64, 0
2, 27291, Note_on_c, 0, 66, 0
2, 27292, Note_on_c, 0, 72, 0
2, 27300, Note_on_c, 0, 66, 62
2, 27300, Note_on_c, 0, 72, 72
2, 27303, Control_c, 0, 64, 127
2, 27326, Note_on_c, 0, 66, 0
2, 27332, Note_on_c, 0, 72, 0
2, 27355, Control_c, 0, 64, 0
2, 27360, Note_on_c, 0, 67, 89
2, 27360, Note_on_c, 0, 71, 89
2, 27360, Note_on_c, 0, 79, 107
2, 27373, Control_c, 0, 64, 127
2, 27387, Note_on_c, 0, 79, 0
2, 27390, Note_on_c, 0, 74, 98
2, 27397, Note_on_c, 0, 71, 0
2, 27401, Note_on_c, 0, 67, 0
2, 27407, Control_c, 0, 64, 0
2, 27413, Note_on_c, 0, 74, 0
2, 27420, Note_on_c, 0, 79, 98
2, 27438, Control_c, 0, 64, 127
2, 27447, Note_on_c, 0, 79, 0
2, 27450, Note_on_c, 0, 83, 80
2, 27471, Control_c, 0, 64, 0
2, 27476, Note_on_c, 0, 83, 0
2, 27480, Note_on_c, 0, 86, 98
2, 27480, Note_on_c, 0, 71, 80
2, 27491, Control_c, 0, 64, 127
2, 27510, Note_on_c, 0, 79, 72
2, 27512, Note_on_c, 0, 86, 0
2, 27527, Control_c, 0, 64, 0
2, 27536, Note_on_c, 0, 79, 0
2, 27536, Note_on_c, 0, 71, 0
2, 27540, Note_on_c, 0, 70, 93
2, 27540, Note_on_c, 0, 85, 89
2, 27543, Control_c, 0, 64, 127
2, 27570, Note_on_c, 0, 79, 64
2, 27571, Note_on_c, 0, 85, 0
2, 27588, Note_on_c, 0, 79, 0
2, 27591, Control_c, 0, 64, 0
2, 27599, Note_on_c, 0, 70, 0
2, 27600, Note_on_c, 0, 86, 93
2, 27600, Note_on_c, 0, 71, 98
2, 27608, Control_c, 0, 64, 127
2, 27630, Note_on_c, 0, 86, 0
2, 27630, Note_on_c, 0, 79, 76
2, 27649, Note_on_c, 0, 71, 0
2, 27650, Note_on_c, 0, 79, 0
2, 27651, Control_c, 0, 64, 0
2, 27660, Note_on_c, 0, 87, 93
2, 27660, Note_on_c, 0, 71, 93
2, 27668, Control_c, 0, 64, 127
2, 27690, Note_on_c, 0, 79, 76
2, 27693, Note_on_c, 0, 87, 0
2, 27711, Note_on_c, 0, 79, 0
2, 27713, Control_c, 0, 64, 0
2, 27717, Note_on_c, 0, 71, 0
2, 27720, Note_on_c, 0, 72, 89
2, 27720, Note_on_c, 0, 88, 102
2, 27731, Control_c, 0, 64, 127
2, 27750, Note_on_c, 0, 79, 68
2, 27755, Note_on_c, 0, 88, 0
2, 27769, Note_on_c, 0, 79, 0
2, 27775, Control_c, 0, 64, 0
2, 27778, Note_on_c, 0, 72, 0
2, 27780, Note_on_c, 0, 71, 93
2, 27780, Note_on_c, 0, 86, 98
2, 27791, Control_c, 0, 64, 127
2, 27810, Note_on_c, 0, 79, 76
2, 27811, Note_on_c, 0, 86, 0
2, 27826, Note_on_c, 0, 79, 0
2, 27835, Control_c, 0, 64, 0
2, 27838, Note_on_c, 0, 71, 0
2, 27840, Note_on_c, 0, 84, 93
2, 27840, Note_on_c, 0, 69, 93
2, 27854, Control_c, 0, 64, 127
2, 27870, Note_on_c, 0, 74, 60
2, 27872, Note_on_c, 0, 84, 0
2, 27897, Note_on_c, 0, 74, 0
2, 27900, Control_c, 0, 64, 0
2, 27900, Note_on_c, 0, 78, 68
2, 27914, Control_c, 0, 64, 127
2, 27925, Note_on_c, 0, 78, 0
2, 27928, Note_on_c, 0, 69, 0
2, 27930, Note_on_c, 0, 81, 80
2, 27943, Note_on_c, 0, 81, 0
2, 27960, Control_c, 0, 64, 0
2, 27960, Note_on_c, 0, 69, 89
2, 27960, Note_on_c, 0, 84, 89
2, 27976, Control_c, 0, 64, 127
2, 27990, Note_on_c, 0, 74, 62
2, 27995, Note_on_c, 0, 84, 0
2, 28009, Note_on_c, 0, 74, 0
2, 28014, Note_on_c, 0, 69, 0
2, 28019, Control_c, 0, 64, 0
2, 28020, Note_on_c, 0, 68, 76
2, 28020, Note_on_c, 0, 83, 93
2, 28034, Control_c, 0, 64, 127
2, 28050, Note_on_c, 0, 83, 0
2, 28050, Note_on_c, 0, 74, 72
2, 28067, Note_on_c, 0, 74, 0
2, 28079, Note_on_c, 0, 68, 0
2, 28079, Control_c, 0, 64, 0
2, 28080, Note_on_c, 0, 69, 85
2, 28080, Note_on_c, 0, 84, 98
2, 28096, Control_c, 0, 64, 127
2, 28110, Note_on_c, 0, 74, 76
2, 28111, Note_on_c, 0, 84, 0
2, 28130, Note_on_c, 0, 74, 0
2, 28137, Control_c, 0, 64, 0
2, 28140, Note_on_c, 0, 69, 0
2, 28140, Note_on_c, 0, 85, 98
2, 28140, Note_on_c, 0, 70, 85
2, 28155, Control_c, 0, 64, 127
2, 28170, Note_on_c, 0, 74, 76
2, 28174, Note_on_c, 0, 85, 0
2, 28188, Note_on_c, 0, 74, 0
2, 28197, Note_on_c, 0, 70, 0
2, 28200, Note_on_c, 0, 71, 89
2, 28200, Note_on_c, 0, 86, 98
2, 28202, Control_c, 0, 64, 0
2, 28220, Control_c, 0, 64, 127
2, 28229, Note_on_c, 0, 86, 0
2, 28230, Note_on_c, 0, 74, 64
2, 28245, Note_on_c, 0, 74, 0
2, 28259, Note_on_c, 0, 71, 0
2, 28260, Note_on_c, 0, 69, 85
2, 28260, Note_on_c, 0, 84, 93
2, 28262, Control_c, 0, 64, 0
2, 28279, Control_c, 0, 64, 127
2, 28290, Note_on_c, 0, 74, 76
2, 28302, Note_on_c, 0, 69, 0
2, 28306, Note_on_c, 0, 74, 0
2, 28307, Note_on_c, 0, 84, 0
2, 28320, Note_on_c, 0, 83, 93
2, 28320, Note_on_c, 0, 67, 89
2, 28322, Control_c, 0, 64, 0
2, 28337, Control_c, 0, 64, 127
2, 28360, Note_on_c, 0, 83, 0
2, 28380, Note_on_c, 0, 67, 0
2, 28380, Note_on_c, 0, 66, 72
2, 28380, Note_on_c, 0, 81, 93
2, 28381, Control_c, 0, 64, 0
2, 28399, Control_c, 0, 64, 127
2, 28410, Note_on_c, 0, 86, 93
2, 28411, Note_on_c, 0, 81, 0
2, 28433, Note_on_c, 0, 86, 0
2, 28435, Note_on_c, 0, 66, 0
2, 28440, Note_on_c, 0, 79, 93
2, 28440, Note_on_c, 0, 64, 85
2, 28441, Control_c, 0, 64, 0
2, 28459, Control_c, 0, 64, 127
2, 28469, Note_on_c, 0, 79, 0
2, 28470, Note_on_c, 0, 84, 80
2, 28494, Note_on_c, 0, 84, 0
2, 28500, Note_on_c, 0, 62, 89
2, 28500, Note_on_c, 0, 78, 80
2, 28502, Control_c, 0, 64, 0
2, 28505, Note_on_c, 0, 64, 0
2, 28518, Control_c, 0, 64, 127
2, 28530, Note_on_c, 0, 84, 85
2, 28531, Note_on_c, 0, 78, 0
2, 28551, Note_on_c, 0, 62, 0
2, 28557, Note_on_c, 0, 84, 0
2, 28560, Note_on_c, 0, 60, 93
2, 28560, Note_on_c, 0, 76, 76
2, 28561, Control_c, 0, 64, 0
2, 28587, Control_c, 0, 64, 127
2, 28590, Note_on_c, 0, 81, 93
2, 28594, Note_on_c, 0, 76, 0
2, 28616, Note_on_c, 0, 60, 0
2, 28620, Control_c, 0, 64, 0
2, 28620, Note_on_c, 0, 59, 85
2, 28620, Note_on_c, 0, 74, 80
2, 28625, Note_on_c, 0, 81, 0
2, 28636, Control_c, 0, 64, 127
2, 28650, Note_on_c, 0, 79, 89
2, 28652, Note_on_c, 0, 74, 0
2, 28667, Note_on_c, 0, 79, 0
2, 28680, Note_on_c, 0, 59, 0
2, 28680, Note_on_c, 0, 57, 93
2, 28680, Note_on_c, 0, 72, 85
2, 28682, Control_c, 0, 64, 0
2, 28698, Control_c, 0, 64, 127
2, 28710, Note_on_c, 0, 78, 72
2, 28711, Note_on_c, 0, 72, 0
2, 28733, Note_on_c, 0, 57, 0
2, 28739, Note_on_c, 0, 78, 0
2, 28740, Note_on_c, 0, 55, 76
2, 28740, Note_on_c, 0, 71, 89
2, 28743, Control_c, 0, 64, 0
2, 28759, Control_c, 0, 64, 127
2, 28770, Note_on_c, 0, 76, 72
2, 28774, Note_on_c, 0, 71, 0
2, 28781, Note_on_c, 0, 76, 0
2, 28788, Note_on_c, 0, 55, 0
2, 28800, Note_on_c, 0, 69, 89
2, 28800, Note_on_c, 0, 72, 89
2, 28800, Note_on_c, 0, 54, 76
2, 28800, Note_on_c, 0, 76, 80
2, 28807, Control_c, 0, 64, 0
2, 28823, Control_c, 0, 64, 127
2, 28850, Note_on_c, 0, 76, 0
2, 28860, Note_on_c, 0, 74, 85
2, 28863, Note_on_c, 0, 72, 0
2, 28869, Note_on_c, 0, 69, 0
2, 28876, Note_on_c, 0, 54, 0
2, 28878, Note_on_c, 0, 74, 0
2, 28920, Note_on_c, 0, 72, 56
2, 28920, Note_on_c, 0, 69, 51
2, 28920, Note_on_c, 0, 74, 57
2, 28920, Note_on_c, 0, 66, 55
2, 28924, Control_c, 0, 64, 0
2, 28938, Control_c, 0, 64, 127
2, 28950, Note_on_c, 0, 72, 0
2, 28952, Note_on_c, 0, 69, 0
2, 28952, Note_on_c, 0, 74, 0
2, 28958, Note_on_c, 0, 66, 0
2, 28980, Note_on_c, 0, 66, 53
2, 28980, Note_on_c, 0, 69, 37
2, 28980, Note_on_c, 0, 74, 56
2, 28980, Note_on_c, 0, 72, 52
2, 29002, Note_on_c, 0, 72, 0
2, 29003, Note_on_c, 0, 74, 0
2, 29003, Note_on_c, 0, 69, 0
2, 29011, Note_on_c, 0, 66, 0
2, 29040, Note_on_c, 0, 69, 47
2, 29040, Note_on_c, 0, 74, 55
2, 29040, Note_on_c, 0, 66, 56
2, 29040, Note_on_c, 0, 72, 62
2, 29069, Note_on_c, 0, 72, 0
2, 29070, Note_on_c, 0, 69, 0
2, 29070, Note_on_c, 0, 74, 0
2, 29082, Note_on_c, 0, 66, 0
2, 29100, Note_on_c, 0, 69, 50
2, 29100, Note_on_c, 0, 72, 60
2, 29100, Note_on_c, 0, 74, 56
2, 29100, Note_on_c, 0, 66, 57
2, 29129, Note_on_c, 0, 69, 0
2, 29131, Note_on_c, 0, 72, 0
2, 29131, Note_on_c, 0, 74, 0
2, 29135, Note_on_c, 0, 66, 0
2, 29160, Note_on_c, 0, 66, 56
2, 29160, Note_on_c, 0, 69, 49
2, 29160, Note_on_c, 0, 72, 57
2, 29160, Note_on_c, 0, 74, 55
2, 29192, Note_on_c, 0, 72, 0
2, 29192, Note_on_c, 0, 69, 0
2, 29193, Note_on_c, 0, 74, 0
2, 29199, Note_on_c, 0, 66, 0
2, 29220, Note_on_c, 0, 69, 52
2, 29220, Note_on_c, 0, 74, 52
2, 29220, Note_on_c, 0, 66, 57
2, 29220, Note_on_c, 0, 72, 62
2, 29237, Note_on_c, 0, 72, 0
2, 29237, Note_on_c, 0, 69, 0
2, 29238, Note_on_c, 0, 74, 0
2, 29240, Note_on_c, 0, 66, 0
2, 29280, Note_on_c, 0, 71, 68
2, 29280, Note_on_c, 0, 74, 76
2, 29280, Note_on_c, 0, 67, 72
2, 29289, Control_c, 0, 64, 0
2, 29293, Note_on_c, 0, 74, 0
2, 29293, Note_on_c, 0, 71, 0
2, 29340, Note_on_c, 0, 72, 68
2, 29340, Note_on_c, 0, 76, 72
2, 29350, Note_on_c, 0, 76, 0
2, 29350, Note_on_c, 0, 72, 0
2, 29400, Note_on_c, 0, 78, 60
2, 29400, Note_on_c, 0, 74, 68
2, 29410, Note_on_c, 0, 74, 0
2, 29412, Note_on_c, 0, 78, 0
2, 29417, Note_on_c, 0, 67, 0
2, 29460, Note_on_c, 0, 76, 72
2, 29460, Note_on_c, 0, 79, 62
2, 29469, Note_on_c, 0, 79, 0
2, 29470, Note_on_c, 0, 76, 0
2, 29520, Note_on_c, 0, 78, 60
2, 29520, Note_on_c, 0, 74, 60
2, 29520, Note_on_c, 0, 60, 59
2, 29539, Control_c, 0, 64, 127
2, 29576, Note_on_c, 0, 74, 0
2, 29577, Note_on_c, 0, 78, 0
2, 29580, Note_on_c, 0, 76, 60
2, 29580, Note_on_c, 0, 72, 57
2, 29595, Note_on_c, 0, 76, 0
2, 29604, Note_on_c, 0, 72, 0
2, 29637, Note_on_c, 0, 60, 0
2, 29640, Note_on_c, 0, 71, 62
2, 29640, Note_on_c, 0, 74, 64
2, 29652, Control_c, 0, 64, 0
2, 29667, Control_c, 0, 64, 127
2, 29691, Note_on_c, 0, 71, 0
2, 29692, Note_on_c, 0, 74, 0
2, 29700, Note_on_c, 0, 69, 68
2, 29700, Note_on_c, 0, 72, 72
2, 29719, Note_on_c, 0, 72, 0
2, 29721, Note_on_c, 0, 69, 0
2, 29760, Note_on_c, 0, 67, 68
2, 29760, Note_on_c, 0, 62, 57
2, 29760, Note_on_c, 0, 71, 72
2, 29765, Control_c, 0, 64, 0
2, 29769, Note_on_c, 0, 71, 0
2, 29771, Note_on_c, 0, 67, 0
2, 29820, Note_on_c, 0, 72, 72
2, 29820, Note_on_c, 0, 69, 64
2, 29829, Note_on_c, 0, 69, 0
2, 29829, Note_on_c, 0, 72, 0
2, 29880, Note_on_c, 0, 70, 76
2, 29880, Note_on_c, 0, 73, 72
2, 29886, Note_on_c, 0, 62, 0
2, 29887, Note_on_c, 0, 73, 0
2, 29888, Note_on_c, 0, 70, 0
2, 29940, Note_on_c, 0, 71, 80
2, 29940, Note_on_c, 0, 74, 80
2, 29947, Note_on_c, 0, 74, 0
2, 29948, Note_on_c, 0, 71, 0
2, 30000, Note_on_c, 0, 74, 85
2, 30000, Note_on_c, 0, 71, 93
2, 30000, Note_on_c, 0, 62, 64
2, 30012, Control_c, 0, 64, 127
2, 30056, Note_on_c, 0, 71, 0
2, 30059, Note_on_c, 0, 74, 0
2, 30060, Note_on_c, 0, 69, 80
2, 30060, Note_on_c, 0, 72, 76
2, 30075, Note_on_c, 0, 72, 0
2, 30083, Note_on_c, 0, 69, 0
2, 30094, Note_on_c, 0, 62, 0
2, 30120, Note_on_c, 0, 67, 72
2, 30120, Note_on_c, 0, 71, 68
2, 30127, Control_c, 0, 64, 0
2, 30143, Control_c, 0, 64, 127
2, 30157, Note_on_c, 0, 71, 0
2, 30176, Note_on_c, 0, 67, 0
2, 30180, Note_on_c, 0, 69, 85
2, 30180, Note_on_c, 0, 66, 62
2, 30183, Control_c, 0, 64, 0
2, 30195, Control_c, 0, 64, 127
2, 30222, Note_on_c, 0, 66, 0
2, 30223, Note_on_c, 0, 69, 0
2, 30240, Note_on_c, 0, 67, 89
2, 30244, Control_c, 0, 64, 0
2, 30257, Control_c, 0, 64, 127
2, 30293, Note_on_c, 0, 67, 0
2, 30388, Control_c, 0, 64, 0
2, 31680, Note_on_c, 0, 74, 93
2, 31689, Control_c, 0, 64, 127
2, 31710, Note_on_c, 0, 73, 72
2, 31711, Note_on_c, 0, 74, 0
2, 31729, Control_c, 0, 64, 0
2, 31739, Note_on_c, 0, 73, 0
2, 31740, Note_on_c, 0, 76, 98
2, 31757, Control_c, 0, 64, 127
2, 31770, Note_on_c, 0, 74, 89
2, 31771, Note_on_c, 0, 76, 0
2, 31777, Control_c, 0, 64, 0
2, 31797, Note_on_c, 0, 74, 0
2, 31800, Note_on_c, 0, 78, 102
2, 31805, Control_c, 0, 64, 127
2, 31830, Note_on_c, 0, 76, 89
2, 31831, Note_on_c, 0, 78, 0
2, 31843, Control_c, 0, 64, 0
2, 31856, Note_on_c, 0, 76, 0
2, 31860, Note_on_c, 0, 79, 93
2, 31866, Control_c, 0, 64, 127
2, 31890, Note_on_c, 0, 78, 80
2, 31891, Note_on_c, 0, 79, 0
2, 31912, Note_on_c, 0, 78, 0
2, 31913, Control_c, 0, 64, 0
2, 31920, Note_on_c, 0, 81, 93
2, 31932, Control_c, 0, 64, 127
2, 31950, Note_on_c, 0, 81, 0
2, 31950, Note_on_c, 0, 80, 85
2, 31974, Note_on_c, 0, 80, 0
2, 31979, Control_c, 0, 64, 0
2, 31980, Note_on_c, 0, 83, 93
2, 31994, Control_c, 0, 64, 127
2, 32010, Note_on_c, 0, 83, 0
2, 32010, Note_on_c, 0, 81, 89
2, 32037, Note_on_c, 0, 81, 0
2, 32037, Control_c, 0, 64, 0
2, 32040, Note_on_c, 0, 84, 98
2, 32053, Control_c, 0, 64, 127
2, 32070, Note_on_c, 0, 83, 93
2, 32072, Note_on_c, 0, 84, 0
2, 32095, Note_on_c, 0, 83, 0
2, 32100, Control_c, 0, 64, 0
2, 32100, Note_on_c, 0, 86, 102
2, 32116, Control_c, 0, 64, 127
2, 32130, Note_on_c, 0, 84, 89
2, 32136, Note_on_c, 0, 86, 0
2, 32147, Note_on_c, 0, 84, 0
2, 32160, Note_on_c, 0, 88, 115
2, 32166, Control_c, 0, 64, 0
2, 32191, Control_c, 0, 64, 127
2, 32495, Note_on_c, 0, 88, 0
2, 32517, Control_c, 0, 64, 0
2, 32520, Note_on_c, 0, 89, 98
2, 32533, Note_on_c, 0, 89, 0
2, 32535, Note_on_c, 0, 88, 76
2, 32536, Control_c, 0, 64, 127
2, 32550, Note_on_c, 0, 89, 93
2, 32551, Note_on_c, 0, 88, 0
2, 32557, Control_c, 0, 64, 0
2, 32564, Note_on_c, 0, 89, 0
2, 32565, Note_on_c, 0, 88, 85
2, 32576, Control_c, 0, 64, 127
2, 32580, Note_on_c, 0, 88, 0
2, 32580, Note_on_c, 0, 89, 93
2, 32595, Note_on_c, 0, 88, 80
2, 32596, Note_on_c, 0, 89, 0
2, 32608, Note_on_c, 0, 88, 0
2, 32610, Note_on_c, 0, 86, 93
2, 32621, Note_on_c, 0, 86, 0
2, 32625, Note_on_c, 0, 88, 72
2, 32629, Control_c, 0, 64, 0
2, 32637, Note_on_c, 0, 88, 0
2, 32640, Note_on_c, 0, 89, 119
2, 32640, Note_on_c, 0, 83, 93
2, 32649, Control_c, 0, 64, 127
2, 32655, Control_c, 0, 64, 127
2, 32658, Control_c, 0, 64, 0
2, 32669, Note_on_c, 0, 83, 0
2, 32670, Note_on_c, 0, 84, 80
2, 32699, Note_on_c, 0, 84, 0
2, 32700, Note_on_c, 0, 81, 85
2, 32729, Note_on_c, 0, 81, 0
2, 32730, Note_on_c, 0, 83, 93
2, 32759, Note_on_c, 0, 83, 0
2, 32760, Note_on_c, 0, 79, 85
2, 32789, Note_on_c, 0, 79, 0
2, 32790, Note_on_c, 0, 81, 89
2, 32819, Note_on_c, 0, 81, 0
2, 32820, Note_on_c, 0, 77, 80
2, 32849, Note_on_c, 0, 77, 0
2, 32850, Note_on_c, 0, 79, 80
2, 32879, Note_on_c, 0, 79, 0
2, 32880, Note_on_c, 0, 76, 80
2, 32884, Control_c, 0, 64, 127
2, 32899, Control_c, 0, 64, 0
2, 32909, Note_on_c, 0, 76, 0
2, 32910, Note_on_c, 0, 77, 76
2, 32933, Note_on_c, 0, 89, 0
2, 32939, Note_on_c, 0, 77, 0
2, 32940, Note_on_c, 0, 74, 80
2, 32969, Note_on_c, 0, 74, 0
2, 32970, Note_on_c, 0, 76, 64
2, 32998, Control_c, 0, 64, 0
2, 32999, Note_on_c, 0, 76, 0
2, 33000, Note_on_c, 0, 79, 102
2, 33000, Note_on_c, 0, 72, 72
2, 33014, Note_on_c, 0, 79, 0
2, 33014, Control_c, 0, 64, 127
2, 33015, Note_on_c, 0, 77, 80
2, 33029, Note_on_c, 0, 72, 0
2, 33030, Note_on_c, 0, 77, 0
2, 33030, Note_on_c, 0, 79, 93
2, 33030, Note_on_c, 0, 74, 60
2, 33043, Note_on_c, 0, 79, 0
2, 33045, Note_on_c, 0, 77, 85
2, 33052, Control_c, 0, 64, 0
2, 33059, Note_on_c, 0, 74, 0
2, 33060, Note_on_c, 0, 77, 0
2, 33060, Note_on_c, 0, 79, 102
2, 33060, Note_on_c, 0, 71, 80
2, 33065, Control_c, 0, 64, 127
2, 33073, Control_c, 0, 64, 127
2, 33075, Note_on_c, 0, 77, 76
2, 33077, Note_on_c, 0, 79, 0
2, 33086, Note_on_c, 0, 77, 0
2, 33089, Note_on_c, 0, 71, 0
2, 33090, Note_on_c, 0, 76, 89
2, 33090, Note_on_c, 0, 74, 68
2, 33093, Control_c, 0, 64, 0
2, 33103, Note_on_c, 0, 76, 0
2, 33105, Note_on_c, 0, 77, 93
2, 33108, Control_c, 0, 64, 0
2, 33119, Note_on_c, 0, 74, 0
2, 33120, Note_on_c, 0, 72, 80
2, 33127, Note_on_c, 0, 77, 0
2, 33131, Control_c, 0, 64, 127
2, 33150, Note_on_c, 0, 76, 93
2, 33163, Control_c, 0, 64, 127
2, 33178, Note_on_c, 0, 76, 0
2, 33180, Note_on_c, 0, 77, 89
2, 33181, Control_c, 0, 64, 0
2, 33198, Control_c, 0, 64, 127
2, 33209, Note_on_c, 0, 77, 0
2, 33210, Note_on_c, 0, 79, 93
2, 33231, Note_on_c, 0, 79, 0
2, 33240, Note_on_c, 0, 72, 0
2, 33240, Note_on_c, 0, 81, 93
2, 33243, Control_c, 0, 64, 0
2, 33244, Control_c, 0, 64, 0
2, 33265, Control_c, 0, 64, 127
2, 33269, Note_on_c, 0, 81, 0
2, 33270, Note_on_c, 0, 83, 89
2, 33298, Note_on_c, 0, 83, 0
2, 33300, Note_on_c, 0, 84, 93
2, 33306, Control_c, 0, 64, 0
2, 33318, Control_c, 0, 64, 127
2, 33329, Note_on_c, 0, 84, 0
2, 33330, Note_on_c, 0, 86, 76
2, 33359, Note_on_c, 0, 86, 0
2, 33360, Note_on_c, 0, 88, 93
2, 33363, Control_c, 0, 64, 0
2, 33381, Control_c, 0, 64, 127
2, 33390, Note_on_c, 0, 84, 85
2, 33394, Note_on_c, 0, 88, 0
2, 33420, Note_on_c, 0, 79, 89
2, 33421, Control_c, 0, 64, 0
2, 33422, Note_on_c, 0, 84, 0
2, 33437, Control_c, 0, 64, 127
2, 33450, Note_on_c, 0, 76, 76
2, 33454, Note_on_c, 0, 79, 0
2, 33478, Note_on_c, 0, 76, 0
2, 33480, Note_on_c, 0, 88, 107
2, 33483, Control_c, 0, 64, 0
2, 33498, Control_c, 0, 64, 127
2, 33537, Control_c, 0, 64, 127
2, 33539, Note_on_c, 0, 88, 0
2, 33540, Note_on_c, 0, 67, 102
2, 33554, Control_c, 0, 64, 0
2, 33569, Note_on_c, 0, 67, 0
2, 33600, Note_on_c, 0, 67, 102
2, 33604, Control_c, 0, 64, 0
2, 33605, Control_c, 0, 64, 127
2, 33621, Control_c, 0, 64, 127
2, 33630, Note_on_c, 0, 76, 107
2, 33639, Control_c, 0, 64, 0
2, 33660, Note_on_c, 0, 79, 93
2, 33661, Note_on_c, 0, 76, 0
2, 33666, Control_c, 0, 64, 127
2, 33690, Note_on_c, 0, 82, 80
2, 33696, Note_on_c, 0, 79, 0
2, 33701, Control_c, 0, 64, 0
2, 33720, Note_on_c, 0, 82, 0
2, 33720, Note_on_c, 0, 67, 0
2, 33720, Note_on_c, 0, 85, 93
2, 33727, Control_c, 0, 64, 127
2, 33730, Control_c, 0, 64, 0
2, 33750, Note_on_c, 0, 82, 80
2, 33752, Note_on_c, 0, 85, 0
2, 33763, Control_c, 0, 64, 0
2, 33780, Note_on_c, 0, 79, 80
2, 33781, Note_on_c, 0, 82, 0
2, 33791, Control_c, 0, 64, 127
2, 33810, Note_on_c, 0, 76, 76
2, 33812, Note_on_c, 0, 79, 0
2, 33833, Note_on_c, 0, 76, 0
2, 33840, Note_on_c, 0, 88, 93
2, 33842, Control_c, 0, 64, 0
2, 33869, Control_c, 0, 64, 127
2, 33870, Note_on_c, 0, 85, 85
2, 33872, Note_on_c, 0, 88, 0
2, 33900, Note_on_c, 0, 82, 80
2, 33903, Control_c, 0, 64, 0
2, 33907, Note_on_c, 0, 85, 0
2, 33918, Control_c, 0, 64, 127
2, 33930, Note_on_c, 0, 79, 89
2, 33931, Note_on_c, 0, 82, 0
2, 33960, Note_on_c, 0, 79, 0
2, 33960, Note_on_c, 0, 88, 113
2, 33964, Control_c, 0, 64, 0
2, 33983, Control_c, 0, 64, 127
2, 34019, Note_on_c, 0, 88, 0
2, 34020, Note_on_c, 0, 67, 98
2, 34034, Control_c, 0, 64, 0
2, 34035, Control_c, 0, 64, 127
2, 34049, Note_on_c, 0, 67, 0
2, 34078, Control_c, 0, 64, 127
2, 34080, Note_on_c, 0, 67, 102
2, 34084, Control_c, 0, 64, 0
2, 34109, Control_c, 0, 64, 0
2, 34110, Note_on_c, 0, 74, 98
2, 34124, Control_c, 0, 64, 127
2, 34140, Note_on_c, 0, 74, 0
2, 34140, Note_on_c, 0, 76, 89
2, 34144, Control_c, 0, 64, 127
2, 34170, Note_on_c, 0, 76, 0
2, 34170, Note_on_c, 0, 78, 76
2, 34181, Control_c, 0, 64, 0
2, 34199, Note_on_c, 0, 78, 0
2, 34200, Note_on_c, 0, 67, 0
2, 34200, Note_on_c, 0, 79, 93
2, 34204, Control_c, 0, 64, 0
2, 34207, Control_c, 0, 64, 127
2, 34229, Note_on_c, 0, 79, 0
2, 34230, Note_on_c, 0, 81, 93
2, 34246, Control_c, 0, 64, 0
2, 34259, Note_on_c, 0, 81, 0
2, 34260, Note_on_c, 0, 83, 89
2, 34266, Control_c, 0, 64, 127
2, 34290, Note_on_c, 0, 83, 0
2, 34290, Note_on_c, 0, 84, 89
2, 34310, Note_on_c, 0, 84, 0
2, 34316, Control_c, 0, 64, 0
2, 34320, Note_on_c, 0, 85, 98
2, 34333, Control_c, 0, 64, 127
2, 34347, Note_on_c, 0, 85, 0
2, 34350, Note_on_c, 0, 86, 89
2, 34371, Control_c, 0, 64, 0
2, 34380, Note_on_c, 0, 88, 93
2, 34381, Note_on_c, 0, 86, 0
2, 34389, Control_c, 0, 64, 127
2, 34408, Note_on_c, 0, 88, 0
2, 34410, Note_on_c, 0, 86, 89
2, 34435, Control_c, 0, 64, 0
2, 34437, Note_on_c, 0, 86, 0
2, 34440, Note_on_c, 0, 84, 93
2, 34451, Control_c, 0, 64, 127
2, 34470, Note_on_c, 0, 83, 93
2, 34472, Note_on_c, 0, 84, 0
2, 34500, Note_on_c, 0, 81, 89
2, 34501, Note_on_c, 0, 83, 0
2, 34527, Note_on_c, 0, 81, 0
2, 34530, Note_on_c, 0, 79, 64
2, 34545, Note_on_c, 0, 79, 0
2, 34552, Control_c, 0, 64, 0
2, 34560, Note_on_c, 0, 83, 93
2, 34560, Note_on_c, 0, 66, 93
2, 34565, Control_c, 0, 64, 127
2, 34571, Control_c, 0, 64, 127
2, 34575, Note_on_c, 0, 83, 0
2, 34575, Note_on_c, 0, 81, 85
2, 34589, Note_on_c, 0, 66, 0
2, 34590, Note_on_c, 0, 81, 0
2, 34590, Note_on_c, 0, 83, 93
2, 34590, Note_on_c, 0, 74, 76
2, 34605, Note_on_c, 0, 81, 72
2, 34606, Note_on_c, 0, 83, 0
2, 34617, Control_c, 0, 64, 0
2, 34619, Note_on_c, 0, 74, 0
2, 34620, Note_on_c, 0, 81, 0
2, 34620, Note_on_c, 0, 83, 93
2, 34620, Note_on_c, 0, 72, 89
2, 34631, Control_c, 0, 64, 127
2, 34634, Note_on_c, 0, 83, 0
2, 34635, Note_on_c, 0, 81, 72
2, 34649, Note_on_c, 0, 72, 0
2, 34650, Note_on_c, 0, 81, 0
2, 34650, Note_on_c, 0, 83, 89
2, 34650, Note_on_c, 0, 74, 76
2, 34665, Note_on_c, 0, 83, 0
2, 34665, Note_on_c, 0, 81, 76
2, 34676, Control_c, 0, 64, 0
2, 34677, Note_on_c, 0, 81, 0
2, 34679, Note_on_c, 0, 74, 0
2, 34680, Note_on_c, 0, 83, 98
2, 34680, Note_on_c, 0, 66, 72
2, 34690, Control_c, 0, 64, 127
2, 34695, Note_on_c, 0, 83, 0
2, 34695, Note_on_c, 0, 81, 72
2, 34709, Note_on_c, 0, 81, 0
2, 34709, Note_on_c, 0, 66, 0
2, 34710, Note_on_c, 0, 83, 93
2, 34710, Note_on_c, 0, 74, 85
2, 34723, Note_on_c, 0, 83, 0
2, 34725, Note_on_c, 0, 81, 80
2, 34738, Note_on_c, 0, 81, 0
2, 34739, Note_on_c, 0, 74, 0
2, 34740, Note_on_c, 0, 83, 89
2, 34740, Note_on_c, 0, 72, 72
2, 34753, Note_on_c, 0, 83, 0
2, 34755, Note_on_c, 0, 81, 76
2, 34769, Note_on_c, 0, 81, 0
2, 34769, Note_on_c, 0, 72, 0
2, 34770, Note_on_c, 0, 83, 76
2, 34770, Note_on_c, 0, 74, 64
2, 34783, Note_on_c, 0, 83, 0
2, 34785, Note_on_c, 0, 81, 72
2, 34797, Note_on_c, 0, 81, 0
2, 34799, Note_on_c, 0, 74, 0
2, 34800, Note_on_c, 0, 83, 93
2, 34800, Note_on_c, 0, 66, 76
2, 34813, Note_on_c, 0, 83, 0
2, 34815, Note_on_c, 0, 81, 72
2, 34827, Note_on_c, 0, 81, 0
2, 34829, Note_on_c, 0, 66, 0
2, 34830, Note_on_c, 0, 83, 76
2, 34830, Note_on_c, 0, 74, 80
2, 34844, Note_on_c, 0, 83, 0
2, 34845, Note_on_c, 0, 81, 72
2, 34859, Note_on_c, 0, 74, 0
2, 34860, Note_on_c, 0, 81, 0
2, 34860, Note_on_c, 0, 83, 85
2, 34860, Note_on_c, 0, 72, 68
2, 34874, Note_on_c, 0, 83, 0
2, 34875, Note_on_c, 0, 81, 72
2, 34889, Note_on_c, 0, 81, 0
2, 34889, Note_on_c, 0, 72, 0
2, 34890, Note_on_c, 0, 83, 80
2, 34890, Note_on_c, 0, 74, 64
2, 34905, Note_on_c, 0, 83, 0
2, 34905, Note_on_c, 0, 81, 76
2, 34919, Note_on_c, 0, 74, 0
2, 34920, Note_on_c, 0, 83, 93
2, 34920, Note_on_c, 0, 66, 72
2, 34921, Note_on_c, 0, 81, 0
2, 34924, Control_c, 0, 64, 0
2, 34930, Note_on_c, 0, 83, 0
2, 34935, Note_on_c, 0, 81, 89
2, 34941, Control_c, 0, 64, 127
2, 34947, Note_on_c, 0, 81, 0
2, 34949, Note_on_c, 0, 66, 0
2, 34950, Note_on_c, 0, 83, 93
2, 34950, Note_on_c, 0, 74, 85
2, 34965, Note_on_c, 0, 81, 85
2, 34966, Note_on_c, 0, 83, 0
2, 34978, Note_on_c, 0, 81, 0
2, 34979, Note_on_c, 0, 74, 0
2, 34980, Note_on_c, 0, 83, 98
2, 34980, Note_on_c, 0, 72, 76
2, 34993, Note_on_c, 0, 83, 0
2, 34995, Note_on_c, 0, 81, 85
2, 35009, Note_on_c, 0, 81, 0
2, 35009, Note_on_c, 0, 72, 0
2, 35010, Note_on_c, 0, 79, 80
2, 35010, Note_on_c, 0, 74, 80
2, 35024, Note_on_c, 0, 79, 0
2, 35025, Note_on_c, 0, 81, 93
2, 35035, Control_c, 0, 64, 0
2, 35036, Note_on_c, 0, 81, 0
2, 35039, Note_on_c, 0, 74, 0
2, 35040, Note_on_c, 0, 79, 107
2, 35040, Note_on_c, 0, 71, 93
2, 35046, Control_c, 0, 64, 0
2, 35053, Control_c, 0, 64, 127
2, 35069, Control_c, 0, 64, 127
2, 35141, Note_on_c, 0, 79, 0
2, 35158, Control_c, 0, 64, 0
2, 35160, Note_on_c, 0, 71, 0
2, 35163, Control_c, 0, 64, 0
2, 35340, Note_on_c, 0, 81, 76
2, 35353, Note_on_c, 0, 81, 0
2, 35400, Note_on_c, 0, 83, 64
2, 35411, Note_on_c, 0, 83, 0
2, 35460, Note_on_c, 0, 84, 72
2, 35472, Note_on_c, 0, 84, 0
2, 35520, Note_on_c, 0, 86, 72
2, 35533, Control_c, 0, 64, 127
2, 35650, Note_on_c, 0, 86, 0
2, 35662, Control_c, 0, 64, 0
2, 35700, Note_on_c, 0, 83, 89
2, 35707, Control_c, 0, 64, 127
2, 35760, Note_on_c, 0, 88, 85
2, 35764, Note_on_c, 0, 83, 0
2, 35767, Control_c, 0, 64, 0
2, 35790, Control_c, 0, 64, 127
2, 35868, Note_on_c, 0, 88, 0
2, 35929, Control_c, 0, 64, 0
2, 35940, Note_on_c, 0, 83, 76
2, 35950, Control_c, 0, 64, 127
2, 35999, Note_on_c, 0, 83, 0
2, 36000, Note_on_c, 0, 86, 89
2, 36009, Control_c, 0, 64, 0
2, 36027, Control_c, 0, 64, 127
2, 36060, Note_on_c, 0, 84, 80
2, 36061, Note_on_c, 0, 86, 0
2, 36066, Control_c, 0, 64, 0
2, 36079, Control_c, 0, 64, 127
2, 36117, Control_c, 0, 64, 0
2, 36120, Note_on_c, 0, 84, 0
2, 36120, Note_on_c, 0, 83, 80
2, 36129, Note_on_c, 0, 83, 0
2, 36180, Note_on_c, 0, 81, 72
2, 36191, Note_on_c, 0, 81, 0
2, 36240, Note_on_c, 0, 79, 80
2, 36251, Control_c, 0, 64, 127
2, 36315, Note_on_c, 0, 79, 0
2, 36319, Control_c, 0, 64, 0
2, 36360, Note_on_c, 0, 78, 80
2, 36375, Control_c, 0, 64, 127
2, 36433, Note_on_c, 0, 78, 0
2, 36480, Note_on_c, 0, 79, 80
2, 36484, Control_c, 0, 64, 0
2, 36504, Control_c, 0, 64, 127
2, 36599, Note_on_c, 0, 79, 0
2, 36609, Control_c, 0, 64, 0
2, 36780, Note_on_c, 0, 81, 80
2, 36794, Note_on_c, 0, 81, 0
2, 36840, Note_on_c, 0, 83, 89
2, 36850, Note_on_c, 0, 83, 0
2, 36900, Note_on_c, 0, 84, 93
2, 36911, Note_on_c, 0, 84, 0
2, 36960, Note_on_c, 0, 86, 98
2, 37023, Control_c, 0, 64, 127
2, 37140, Note_on_c, 0, 83, 85
2, 37142, Control_c, 0, 64, 0
2, 37147, Note_on_c, 0, 86, 0
2, 37167, Control_c, 0, 64, 127
2, 37198, Note_on_c, 0, 83, 0
2, 37200, Note_on_c, 0, 88, 89
2, 37206, Control_c, 0, 64, 0
2, 37234, Control_c, 0, 64, 127
2, 37373, Note_on_c, 0, 88, 0
2, 37380, Note_on_c, 0, 83, 80
2, 37394, Note_on_c, 0, 83, 0
2, 37440, Note_on_c, 0, 84, 89
2, 37442, Control_c, 0, 64, 0
2, 37461, Control_c, 0, 64, 127
2, 37497, Note_on_c, 0, 84, 0
2, 37500, Note_on_c, 0, 86, 85
2, 37500, Control_c, 0, 64, 0
2, 37530, Note_on_c, 0, 86, 0
2, 37530, Note_on_c, 0, 88, 72
2, 37560, Note_on_c, 0, 86, 80
2, 37564, Note_on_c, 0, 88, 0
2, 37565, Control_c, 0, 64, 127
2, 37590, Note_on_c, 0, 84, 72
2, 37591, Note_on_c, 0, 86, 0
2, 37591, Control_c, 0, 64, 0
2, 37610, Control_c, 0, 64, 127
2, 37619, Note_on_c, 0, 84, 0
2, 37620, Note_on_c, 0, 83, 76
2, 37647, Note_on_c, 0, 83, 0
2, 37650, Note_on_c, 0, 81, 76
2, 37665, Control_c, 0, 64, 0
2, 37679, Note_on_c, 0, 81, 0
2, 37680, Note_on_c, 0, 79, 89
2, 37696, Control_c, 0, 64, 127
2, 37755, Note_on_c, 0, 79, 0
2, 37757, Control_c, 0, 64, 0
2, 37800, Note_on_c, 0, 78, 76
2, 37810, Control_c, 0, 64, 127
2, 37847, Note_on_c, 0, 78, 0
2, 37896, Control_c, 0, 64, 0
2, 37920, Note_on_c, 0, 79, 102
2, 37925, Control_c, 0, 64, 127
2, 37950, Note_on_c, 0, 74, 93
2, 37951, Note_on_c, 0, 79, 0
2, 37958, Control_c, 0, 64, 0
2, 37980, Note_on_c, 0, 76, 98
2, 37981, Note_on_c, 0, 74, 0
2, 37988, Control_c, 0, 64, 127
2, 38008, Note_on_c, 0, 76, 0
2, 38010, Note_on_c, 0, 78, 89
2, 38036, Control_c, 0, 64, 0
2, 38037, Note_on_c, 0, 78, 0
2, 38040, Note_on_c, 0, 79, 98
2, 38056, Control_c, 0, 64, 127
2, 38068, Control_c, 0, 64, 0
2, 38069, Note_on_c, 0, 79, 0
2, 38070, Note_on_c, 0, 81, 102
2, 38100, Note_on_c, 0, 81, 0
2, 38100, Note_on_c, 0, 83, 93
2, 38105, Control_c, 0, 64, 127
2, 38128, Note_on_c, 0, 83, 0
2, 38130, Note_on_c, 0, 84, 76
2, 38156, Control_c, 0, 64, 0
2, 38159, Note_on_c, 0, 84, 0
2, 38160, Note_on_c, 0, 86, 93
2, 38176, Control_c, 0, 64, 127
2, 38190, Note_on_c, 0, 86, 0
2, 38190, Note_on_c, 0, 83, 93
2, 38218, Control_c, 0, 64, 0
2, 38219, Note_on_c, 0, 83, 0
2, 38220, Note_on_c, 0, 84, 80
2, 38235, Control_c, 0, 64, 127
2, 38250, Note_on_c, 0, 81, 89
2, 38252, Note_on_c, 0, 84, 0
2, 38276, Note_on_c, 0, 81, 0
2, 38278, Control_c, 0, 64, 0
2, 38280, Note_on_c, 0, 83, 98
2, 38280, Note_on_c, 0, 72, 93
2, 38280, Note_on_c, 0, 74, 93
2, 38288, Control_c, 0, 64, 127
2, 38294, Control_c, 0, 64, 127
2, 38310, Note_on_c, 0, 79, 90
2, 38311, Note_on_c, 0, 83, 0
2, 38335, Control_c, 0, 64, 0
2, 38338, Note_on_c, 0, 79, 0
2, 38340, Note_on_c, 0, 81, 90
2, 38354, Control_c, 0, 64, 127
2, 38370, Note_on_c, 0, 74, 0
2, 38370, Note_on_c, 0, 72, 0
2, 38370, Note_on_c, 0, 78, 86
2, 38373, Note_on_c, 0, 81, 0
2, 38395, Control_c, 0, 64, 0
2, 38396, Note_on_c, 0, 78, 0
2, 38400, Note_on_c, 0, 79, 99
2, 38400, Note_on_c, 0, 71, 94
2, 38400, Note_on_c, 0, 74, 94
2, 38401, Control_c, 0, 64, 0
2, 38411, Control_c, 0, 64, 127
2, 38426, Control_c, 0, 64, 127
2, 38429, Note_on_c, 0, 79, 0
2, 38430, Note_on_c, 0, 74, 81
2, 38445, Control_c, 0, 64, 0
2, 38460, Note_on_c, 0, 74, 0
2, 38460, Note_on_c, 0, 76, 90
2, 38465, Control_c, 0, 64, 127
2, 38489, Note_on_c, 0, 76, 0
2, 38490, Note_on_c, 0, 78, 78
2, 38515, Control_c, 0, 64, 0
2, 38516, Control_c, 0, 64, 0
2, 38520, Note_on_c, 0, 78, 0
2, 38520, Note_on_c, 0, 74, 0
2, 38520, Note_on_c, 0, 71, 0
2, 38520, Note_on_c, 0, 79, 100
2, 38535, Control_c, 0, 64, 127
2, 38550, Note_on_c, 0, 79, 0
2, 38550, Note_on_c, 0, 81, 100
2, 38575, Control_c, 0, 64, 0
2, 38579, Note_on_c, 0, 81, 0
2, 38580, Note_on_c, 0, 83, 95
2, 38591, Control_c, 0, 64, 127
2, 38610, Note_on_c, 0, 84, 91
2, 38612, Note_on_c, 0, 83, 0
2, 38637, Control_c, 0, 64, 0
2, 38639, Note_on_c, 0, 84, 0
2, 38640, Note_on_c, 0, 86, 91
2, 38655, Control_c, 0, 64, 127
2, 38670, Note_on_c, 0, 83, 92
2, 38671, Note_on_c, 0, 86, 0
2, 38694, Control_c, 0, 64, 0
2, 38698, Note_on_c, 0, 83, 0
2, 38700, Note_on_c, 0, 84, 79
2, 38710, Control_c, 0, 64, 127
2, 38730, Note_on_c, 0, 81, 92
2, 38735, Note_on_c, 0, 84, 0
2, 38755, Control_c, 0, 64, 0
2, 38758, Note_on_c, 0, 81, 0
2, 38760, Note_on_c, 0, 83, 101
2, 38760, Note_on_c, 0, 72, 101
2, 38760, Note_on_c, 0, 74, 101
2, 38768, Control_c, 0, 64, 127
2, 38771, Control_c, 0, 64, 127
2, 38790, Note_on_c, 0, 79, 83
2, 38792, Note_on_c, 0, 83, 0
2, 38815, Control_c, 0, 64, 0
2, 38819, Note_on_c, 0, 79, 0
2, 38820, Note_on_c, 0, 81, 92
2, 38832, Control_c, 0, 64, 127
2, 38850, Note_on_c, 0, 81, 0
2, 38850, Note_on_c, 0, 74, 0
2, 38850, Note_on_c, 0, 72, 0
2, 38850, Note_on_c, 0, 78, 84
2, 38875, Control_c, 0, 64, 0
2, 38877, Control_c, 0, 64, 0
2, 38878, Note_on_c, 0, 78, 0
2, 38880, Note_on_c, 0, 79, 97
2, 38880, Note_on_c, 0, 71, 93
2, 38880, Note_on_c, 0, 74, 97
2, 38890, Control_c, 0, 64, 127
2, 38907, Control_c, 0, 64, 127
2, 38910, Note_on_c, 0, 79, 0
2, 38910, Note_on_c, 0, 74, 93
2, 38930, Control_c, 0, 64, 0
2, 38935, Note_on_c, 0, 74, 0
2, 38940, Note_on_c, 0, 76, 93
2, 38945, Control_c, 0, 64, 127
2, 38968, Note_on_c, 0, 76, 0
2, 38970, Note_on_c, 0, 78, 84
2, 38991, Note_on_c, 0, 78, 0
2, 38998, Control_c, 0, 64, 0
2, 39000, Note_on_c, 0, 74, 0
2, 39000, Note_on_c, 0, 71, 0
2, 39000, Note_on_c, 0, 79, 97
2, 39002, Control_c, 0, 64, 0
2, 39019, Control_c, 0, 64, 127
2, 39026, Note_on_c, 0, 79, 0
2, 39030, Note_on_c, 0, 81, 97
2, 39053, Note_on_c, 0, 81, 0
2, 39056, Control_c, 0, 64, 0
2, 39060, Note_on_c, 0, 83, 98
2, 39070, Control_c, 0, 64, 127
2, 39088, Note_on_c, 0, 83, 0
2, 39090, Note_on_c, 0, 84, 80
2, 39113, Note_on_c, 0, 84, 0
2, 39119, Control_c, 0, 64, 0
2, 39120, Note_on_c, 0, 86, 108
2, 39120, Note_on_c, 0, 71, 108
2, 39137, Control_c, 0, 64, 127
2, 39149, Note_on_c, 0, 71, 0
2, 39150, Note_on_c, 0, 86, 0
2, 39150, Note_on_c, 0, 83, 90
2, 39171, Control_c, 0, 64, 0
2, 39177, Note_on_c, 0, 83, 0
2, 39180, Note_on_c, 0, 84, 90
2, 39180, Note_on_c, 0, 69, 98
2, 39185, Control_c, 0, 64, 127
2, 39209, Note_on_c, 0, 69, 0
2, 39210, Note_on_c, 0, 81, 94
2, 39215, Note_on_c, 0, 84, 0
2, 39230, Control_c, 0, 64, 0
2, 39233, Note_on_c, 0, 81, 0
2, 39240, Note_on_c, 0, 83, 99
2, 39240, Note_on_c, 0, 67, 99
2, 39246, Control_c, 0, 64, 127
2, 39269, Note_on_c, 0, 67, 0
2, 39270, Note_on_c, 0, 79, 85
2, 39272, Note_on_c, 0, 83, 0
2, 39290, Control_c, 0, 64, 0
2, 39293, Note_on_c, 0, 79, 0
2, 39300, Note_on_c, 0, 81, 99
2, 39300, Note_on_c, 0, 66, 90
2, 39306, Control_c, 0, 64, 127
2, 39329, Note_on_c, 0, 66, 0
2, 39330, Note_on_c, 0, 78, 81
2, 39334, Note_on_c, 0, 81, 0
2, 39351, Note_on_c, 0, 78, 0
2, 39352, Control_c, 0, 64, 0
2, 39360, Note_on_c, 0, 79, 109
2, 39360, Note_on_c, 0, 64, 90
2, 39368, Control_c, 0, 64, 127
2, 39376, Control_c, 0, 64, 127
2, 39390, Note_on_c, 0, 76, 39
2, 39391, Note_on_c, 0, 79, 0
2, 39409, Note_on_c, 0, 76, 0
2, 39414, Control_c, 0, 64, 0
2, 39420, Note_on_c, 0, 64, 0
2, 39420, Note_on_c, 0, 78, 115
2, 39420, Note_on_c, 0, 62, 77
2, 39421, Control_c, 0, 64, 0
2, 39429, Control_c, 0, 64, 127
2, 39438, Control_c, 0, 64, 127
2, 39450, Note_on_c, 0, 74, 59
2, 39453, Note_on_c, 0, 78, 0
2, 39467, Note_on_c, 0, 74, 0
2, 39477, Control_c, 0, 64, 0
2, 39480, Note_on_c, 0, 62, 0
2, 39480, Note_on_c, 0, 76, 100
2, 39480, Note_on_c, 0, 60, 96
2, 39481, Control_c, 0, 64, 0
2, 39491, Control_c, 0, 64, 127
2, 39502, Control_c, 0, 64, 127
2, 39510, Note_on_c, 0, 72, 59
2, 39511, Note_on_c, 0, 76, 0
2, 39528, Note_on_c, 0, 72, 0
2, 39535, Control_c, 0, 64, 0
2, 39540, Note_on_c, 0, 60, 0
2, 39540, Note_on_c, 0, 74, 100
2, 39540, Control_c, 0, 64, 0
2, 39540, Note_on_c, 0, 59, 91
2, 39549, Control_c, 0, 64, 127
2, 39558, Control_c, 0, 64, 127
2, 39570, Note_on_c, 0, 71, 66
2, 39572, Note_on_c, 0, 74, 0
2, 39591, Note_on_c, 0, 71, 0
2, 39597, Control_c, 0, 64, 0
2, 39597, Control_c, 0, 64, 0
2, 39600, Note_on_c, 0, 59, 0
2, 39600, Note_on_c, 0, 72, 106
2, 39600, Note_on_c, 0, 57, 82
2, 39612, Control_c, 0, 64, 127
2, 39616, Control_c, 0, 64, 127
2, 39630, Note_on_c, 0, 69, 82
2, 39631, Note_on_c, 0, 72, 0
2, 39650, Note_on_c, 0, 69, 0
2, 39656, Control_c, 0, 64, 0
2, 39658, Control_c, 0, 64, 0
2, 39660, Note_on_c, 0, 57, 0
2, 39660, Note_on_c, 0, 71, 101
2, 39660, Note_on_c, 0, 55, 97
2, 39669, Control_c, 0, 64, 127
2, 39679, Control_c, 0, 64, 127
2, 39690, Note_on_c, 0, 71, 0
2, 39690, Note_on_c, 0, 67, 69
2, 39710, Note_on_c, 0, 67, 0
2, 39715, Control_c, 0, 64, 0
2, 39718, Control_c, 0, 64, 0
2, 39720, Note_on_c, 0, 55, 0
2, 39720, Note_on_c, 0, 69, 101
2, 39720, Note_on_c, 0, 54, 78
2, 39730, Control_c, 0, 64, 127
2, 39736, Control_c, 0, 64, 127
2, 39750, Note_on_c, 0, 66, 65
2, 39753, Note_on_c, 0, 69, 0
2, 39768, Note_on_c, 0, 66, 0
2, 39773, Control_c, 0, 64, 0
2, 39775, Control_c, 0, 64, 0
2, 39780, Note_on_c, 0, 54, 0
2, 39780, Note_on_c, 0, 67, 102
2, 39780, Note_on_c, 0, 52, 102
2, 39785, Control_c, 0, 64, 127
2, 39790, Control_c, 0, 64, 127
2, 39809, Note_on_c, 0, 52, 0
2, 39810, Note_on_c, 0, 64, 70
2, 39813, Note_on_c, 0, 67, 0
2, 39825, Note_on_c, 0, 64, 0
2, 39832, Control_c, 0, 64, 0
2, 39836, Control_c, 0, 64, 0
2, 39840, Note_on_c, 0, 62, 112
2, 39850, Control_c, 0, 64, 127
2, 39887, Note_on_c, 0, 62, 0
2, 39954, Control_c, 0, 64, 0
2, 39960, Note_on_c, 0, 79, 112
2, 39960, Note_on_c, 0, 74, 117
2, 39960, Note_on_c, 0, 83, 107
2, 39960, Note_on_c, 0, 67, 102
2, 39960, Note_on_c, 0, 71, 107
2, 39977, Control_c, 0, 64, 127
2, 39978, Control_c, 0, 64, 127
2, 40036, Note_on_c, 0, 74, 0
2, 40038, Note_on_c, 0, 79, 0
2, 40039, Note_on_c, 0, 83, 0
2, 40050, Note_on_c, 0, 67, 0
2, 40050, Note_on_c, 0, 71, 0
2, 40080, Note_on_c, 0, 74, 118
2, 40080, Note_on_c, 0, 81, 118
2, 40080, Note_on_c, 0, 78, 113
2, 40080, Note_on_c, 0, 66, 79
2, 40080, Note_on_c, 0, 69, 103
2, 40083, Control_c, 0, 64, 0
2, 40085, Control_c, 0, 64, 0
2, 40100, Control_c, 0, 64, 127
2, 40110, Control_c, 0, 64, 127
2, 40134, Note_on_c, 0, 81, 0
2, 40136, Note_on_c, 0, 74, 0
2, 40140, Note_on_c, 0, 66, 0
2, 40140, Note_on_c, 0, 78, 0
2, 40140, Note_on_c, 0, 69, 0
2, 40190, Control_c, 0, 64, 0
2, 40200, Note_on_c, 0, 81, 119
2, 40200, Note_on_c, 0, 78, 109
2, 40200, Note_on_c, 0, 74, 109
2, 40200, Note_on_c, 0, 86, 126
2, 40200, Note_on_c, 0, 66, 95
2, 40200, Note_on_c, 0, 69, 104
2, 40202, Control_c, 0, 64, 0
2, 40213, Control_c, 0, 64, 127
2, 40220, Control_c, 0, 64, 127
2, 40260, Note_on_c, 0, 66, 0
2, 40268, Note_on_c, 0, 81, 0
2, 40269, Note_on_c, 0, 86, 0
2, 40275, Note_on_c, 0, 78, 0
2, 40283, Note_on_c, 0, 74, 0
2, 40290, Note_on_c, 0, 69, 0
2, 40317, Control_c, 0, 64, 0
2, 40320, Note_on_c, 0, 79, 119
2, 40320, Note_on_c, 0, 67, 104
2, 40322, Control_c, 0, 64, 0
2, 40332, Control_c, 0, 64, 127
2, 40338, Control_c, 0, 64, 127
2, 40379, Note_on_c, 0, 79, 0
2, 40410, Note_on_c, 0, 67, 0
2, 40440, Note_on_c, 0, 67, 127
2, 40440, Note_on_c, 0, 59, 100
2, 40440, Note_on_c, 0, 62, 105
2, 40441, Control_c, 0, 64, 0
2, 40444, Control_c, 0, 64, 0
2, 40458, Control_c, 0, 64, 127
2, 40463, Control_c, 0, 64, 127
2, 40526, Note_on_c, 0, 67, 0
2, 40530, Note_on_c, 0, 62, 0
2, 40530, Note_on_c, 0, 59, 0
2, 40530, Note_on_c, 0, 67, 121
2, 40542, Note_on_c, 0, 67, 0
2, 40544, Control_c, 0, 64, 0
2, 40560, Note_on_c, 0, 67, 127
2, 40560, Note_on_c, 0, 59, 96
2, 40560, Note_on_c, 0, 62, 101
2, 40568, Control_c, 0, 64, 0
2, 40574, Control_c, 0, 64, 127
2, 40591, Control_c, 0, 64, 127
2, 40679, Note_on_c, 0, 67, 0
2, 40680, Note_on_c, 0, 62, 0
2, 40680, Note_on_c, 0, 59, 0
2, 40691, Control_c, 0, 64, 0
2, 40693, Control_c, 0, 64, 0
2, 41280, Note_on_c, 0, 79, 70
2, 41289, Control_c, 0, 64, 127
2, 41400, Note_on_c, 0, 79, 0
2, 41400, Note_on_c, 0, 81, 62
2, 41408, Control_c, 0, 64, 0
2, 41430, Note_on_c, 0, 79, 70
2, 41435, Note_on_c, 0, 81, 0
2, 41458, Note_on_c, 0, 79, 0
2, 41460, Note_on_c, 0, 78, 58
2, 41487, Note_on_c, 0, 78, 0
2, 41490, Note_on_c, 0, 76, 64
2, 41520, Note_on_c, 0, 74, 61
2, 41521, Note_on_c, 0, 76, 0
2, 41522, Control_c, 0, 64, 127
2, 41574, Note_on_c, 0, 74, 0
2, 41582, Control_c, 0, 64, 0
2, 41640, Note_on_c, 0, 74, 61
2, 41646, Control_c, 0, 64, 127
2, 41685, Note_on_c, 0, 74, 0
2, 41719, Control_c, 0, 64, 0
2, 41760, Note_on_c, 0, 74, 66
2, 41783, Control_c, 0, 64, 127
2, 41932, Note_on_c, 0, 74, 0
2, 41940, Note_on_c, 0, 71, 61
2, 41941, Control_c, 0, 64, 0
2, 41963, Control_c, 0, 64, 127
2, 42000, Note_on_c, 0, 74, 66
2, 42001, Note_on_c, 0, 71, 0
2, 42004, Control_c, 0, 64, 0
2, 42026, Control_c, 0, 64, 127
2, 42145, Control_c, 0, 64, 0
2, 42156, Note_on_c, 0, 74, 0
2, 42240, Note_on_c, 0, 79, 74
2, 42266, Control_c, 0, 64, 127
2, 42360, Note_on_c, 0, 81, 74
2, 42361, Control_c, 0, 64, 0
2, 42363, Note_on_c, 0, 79, 0
2, 42390, Note_on_c, 0, 79, 68
2, 42393, Note_on_c, 0, 81, 0
2, 42420, Note_on_c, 0, 77, 68
2, 42421, Note_on_c, 0, 79, 0
2, 42448, Note_on_c, 0, 77, 0
2, 42450, Note_on_c, 0, 76, 66
2, 42456, Control_c, 0, 64, 127
2, 42474, Note_on_c, 0, 76, 0
2, 42480, Note_on_c, 0, 76, 68
2, 42490, Control_c, 0, 64, 0
2, 42534, Note_on_c, 0, 76, 0
2, 42600, Note_on_c, 0, 76, 68
2, 42609, Control_c, 0, 64, 127
2, 42639, Note_on_c, 0, 76, 0
2, 42674, Control_c, 0, 64, 0
2, 42720, Note_on_c, 0, 76, 79
2, 42736, Control_c, 0, 64, 127
2, 42890, Control_c, 0, 64, 0
2, 42899, Note_on_c, 0, 76, 0
2, 42900, Note_on_c, 0, 72, 62
2, 42911, Control_c, 0, 64, 127
2, 42960, Note_on_c, 0, 76, 70
2, 42963, Note_on_c, 0, 72, 0
2, 42964, Control_c, 0, 64, 0
2, 42990, Control_c, 0, 64, 127
2, 43097, Note_on_c, 0, 76, 0
2, 43104, Control_c, 0, 64, 0
2, 43200, Note_on_c, 0, 84, 83
2, 43238, Control_c, 0, 64, 127
2, 43316, Control_c, 0, 64, 0
2, 43320, Note_on_c, 0, 86, 88
2, 43323, Note_on_c, 0, 84, 0
2, 43350, Note_on_c, 0, 84, 68
2, 43355, Note_on_c, 0, 86, 0
2, 43380, Note_on_c, 0, 83, 70
2, 43384, Note_on_c, 0, 84, 0
2, 43408, Note_on_c, 0, 83, 0
2, 43410, Note_on_c, 0, 81, 62
2, 43419, Control_c, 0, 64, 127
2, 43434, Note_on_c, 0, 81, 0
2, 43440, Note_on_c, 0, 81, 68
2, 43451, Control_c, 0, 64, 0
2, 43467, Control_c, 0, 64, 127
2, 43490, Note_on_c, 0, 81, 0
2, 43504, Control_c, 0, 64, 0
2, 43560, Note_on_c, 0, 81, 83
2, 43567, Control_c, 0, 64, 127
2, 43596, Note_on_c, 0, 81, 0
2, 43626, Control_c, 0, 64, 0
2, 43680, Note_on_c, 0, 86, 83
2, 43701, Control_c, 0, 64, 127
2, 43927, Control_c, 0, 64, 0
2, 43950, Control_c, 0, 64, 127
2, 43980, Note_on_c, 0, 86, 0
2, 43980, Note_on_c, 0, 84, 83
2, 43987, Control_c, 0, 64, 0
2, 44010, Note_on_c, 0, 83, 79
2, 44018, Note_on_c, 0, 84, 0
2, 44040, Note_on_c, 0, 81, 74
2, 44044, Note_on_c, 0, 83, 0
2, 44058, Control_c, 0, 64, 127
2, 44068, Note_on_c, 0, 81, 0
2, 44070, Note_on_c, 0, 79, 64
2, 44100, Note_on_c, 0, 78, 68
2, 44104, Note_on_c, 0, 79, 0
2, 44129, Note_on_c, 0, 78, 0
2, 44130, Note_on_c, 0, 76, 68
2, 44142, Control_c, 0, 64, 0
2, 44159, Note_on_c, 0, 76, 0
2, 44160, Note_on_c, 0, 74, 83
2, 44166, Control_c, 0, 64, 127
2, 44203, Note_on_c, 0, 74, 0
2, 44221, Control_c, 0, 64, 0
2, 44280, Note_on_c, 0, 79, 61
2, 44280, Note_on_c, 0, 71, 66
2, 44288, Control_c, 0, 64, 127
2, 44321, Control_c, 0, 64, 0
2, 44325, Note_on_c, 0, 79, 0
2, 44371, Note_on_c, 0, 71, 0
2, 44400, Note_on_c, 0, 81, 83
2, 44400, Note_on_c, 0, 72, 79
2, 44409, Control_c, 0, 64, 127
2, 44448, Note_on_c, 0, 81, 0
2, 44458, Control_c, 0, 64, 0
2, 44475, Note_on_c, 0, 83, 70
2, 44488, Note_on_c, 0, 83, 0
2, 44490, Note_on_c, 0, 81, 74
2, 44497, Note_on_c, 0, 81, 0
2, 44505, Note_on_c, 0, 79, 88
2, 44509, Note_on_c, 0, 72, 0
2, 44517, Note_on_c, 0, 79, 0
2, 44520, Note_on_c, 0, 81, 83
2, 44520, Note_on_c, 0, 66, 68
2, 44584, Control_c, 0, 64, 127
2, 44595, Note_on_c, 0, 83, 71
2, 44596, Note_on_c, 0, 81, 0
2, 44604, Note_on_c, 0, 83, 0
2, 44630, Control_c, 0, 64, 0
2, 44640, Note_on_c, 0, 79, 93
2, 44640, Note_on_c, 0, 67, 83
2, 44652, Note_on_c, 0, 66, 0
2, 44652, Control_c, 0, 64, 127
2, 44655, Note_on_c, 0, 79, 0
2, 44690, Note_on_c, 0, 67, 0
2, 44693, Control_c, 0, 64, 0
2, 44700, Note_on_c, 0, 71, 97
2, 44700, Note_on_c, 0, 67, 79
2, 44719, Control_c, 0, 64, 127
2, 44723, Note_on_c, 0, 71, 0
2, 44727, Note_on_c, 0, 67, 0
2, 44728, Control_c, 0, 64, 0
2, 44730, Note_on_c, 0, 72, 66
2, 44739, Note_on_c, 0, 72, 0
2, 44760, Note_on_c, 0, 69, 88
2, 44760, Note_on_c, 0, 66, 83
2, 44771, Control_c, 0, 64, 127
2, 44790, Note_on_c, 0, 71, 70
2, 44796, Control_c, 0, 64, 0
2, 44798, Note_on_c, 0, 69, 0
2, 44800, Note_on_c, 0, 71, 0
2, 44805, Note_on_c, 0, 66, 0
2, 44820, Note_on_c, 0, 64, 97
2, 44820, Note_on_c, 0, 67, 88
2, 44838, Note_on_c, 0, 67, 0
2, 44838, Control_c, 0, 64, 127
2, 44849, Control_c, 0, 64, 0
2, 44850, Note_on_c, 0, 69, 79
2, 44858, Note_on_c, 0, 69, 0
2, 44860, Note_on_c, 0, 64, 0
2, 44880, Note_on_c, 0, 66, 74
2, 44880, Note_on_c, 0, 62, 93
2, 44902, Note_on_c, 0, 62, 0
2, 44907, Note_on_c, 0, 66, 0
2, 44910, Note_on_c, 0, 67, 70
2, 44921, Note_on_c, 0, 67, 0
2, 44940, Note_on_c, 0, 64, 66
2, 44940, Note_on_c, 0, 60, 83
2, 44967, Note_on_c, 0, 64, 0
2, 44970, Note_on_c, 0, 66, 68
2, 44981, Note_on_c, 0, 60, 0
2, 44983, Note_on_c, 0, 66, 0
2, 45000, Note_on_c, 0, 59, 83
2, 45000, Note_on_c, 0, 62, 88
2, 45027, Note_on_c, 0, 62, 0
2, 45027, Note_on_c, 0, 59, 0
2, 45030, Note_on_c, 0, 64, 83
2, 45039, Note_on_c, 0, 64, 0
2, 45060, Note_on_c, 0, 60, 62
2, 45060, Note_on_c, 0, 57, 83
2, 45088, Note_on_c, 0, 60, 0
2, 45090, Note_on_c, 0, 62, 79
2, 45091, Note_on_c, 0, 57, 0
2, 45099, Note_on_c, 0, 62, 0
2, 45120, Note_on_c, 0, 59, 70
2, 45120, Note_on_c, 0, 55, 79
2, 45145, Control_c, 0, 64, 127
2, 45250, Control_c, 0, 64, 0
2, 45252, Note_on_c, 0, 55, 0
2, 45252, Note_on_c, 0, 59, 0
2, 46110, Note_on_c, 0, 67, 61
2, 46113, Control_c, 0, 64, 127
2, 46121, Control_c, 0, 64, 0
2, 46140, Note_on_c, 0, 69, 79
2, 46146, Note_on_c, 0, 67, 0
2, 46170, Note_on_c, 0, 71, 70
2, 46171, Note_on_c, 0, 69, 0
2, 46197, Note_on_c, 0, 71, 0
2, 46200, Note_on_c, 0, 72, 74
2, 46228, Note_on_c, 0, 72, 0
2, 46230, Note_on_c, 0, 74, 79
2, 46260, Note_on_c, 0, 76, 55
2, 46261, Note_on_c, 0, 74, 0
2, 46276, Control_c, 0, 64, 127
2, 46290, Note_on_c, 0, 76, 0
2, 46290, Note_on_c, 0, 78, 74
2, 46312, Control_c, 0, 64, 0
2, 46319, Note_on_c, 0, 78, 0
2, 46320, Note_on_c, 0, 79, 74
2, 46347, Note_on_c, 0, 79, 0
2, 46350, Note_on_c, 0, 81, 66
2, 46379, Note_on_c, 0, 81, 0
2, 46380, Note_on_c, 0, 83, 62
2, 46410, Note_on_c, 0, 84, 68
2, 46412, Note_on_c, 0, 83, 0
2, 46439, Note_on_c, 0, 84, 0
2, 46440, Note_on_c, 0, 86, 68
2, 46470, Note_on_c, 0, 86, 0
2, 46470, Note_on_c, 0, 83, 74
2, 46496, Note_on_c, 0, 83, 0
2, 46500, Note_on_c, 0, 78, 55
2, 46527, Note_on_c, 0, 78, 0
2, 46530, Note_on_c, 0, 79, 64
2, 46559, Note_on_c, 0, 79, 0
2, 46560, Note_on_c, 0, 88, 79
2, 46617, Control_c, 0, 64, 127
2, 46683, Note_on_c, 0, 88, 0
2, 46683, Control_c, 0, 64, 0
2, 47070, Note_on_c, 0, 72, 61
2, 47100, Note_on_c, 0, 74, 70
2, 47105, Note_on_c, 0, 72, 0
2, 47130, Note_on_c, 0, 74, 0
2, 47130, Note_on_c, 0, 76, 79
2, 47157, Note_on_c, 0, 76, 0
2, 47160, Note_on_c, 0, 77, 70
2, 47189, Note_on_c, 0, 77, 0
2, 47190, Note_on_c, 0, 79, 74
2, 47220, Note_on_c, 0, 81, 62
2, 47222, Note_on_c, 0, 79, 0
2, 47247, Control_c, 0, 64, 127
2, 47250, Note_on_c, 0, 83, 88
2, 47252, Note_on_c, 0, 81, 0
2, 47264, Note_on_c, 0, 83, 0
2, 47265, Note_on_c, 0, 86, 79
2, 47275, Note_on_c, 0, 86, 0
2, 47280, Note_on_c, 0, 84, 102
2, 47283, Control_c, 0, 64, 0
2, 47295, Note_on_c, 0, 86, 79
2, 47302, Note_on_c, 0, 86, 0
2, 47310, Note_on_c, 0, 83, 60
2, 47311, Note_on_c, 0, 84, 0
2, 47328, Note_on_c, 0, 83, 0
2, 47340, Note_on_c, 0, 84, 107
2, 47370, Note_on_c, 0, 86, 83
2, 47371, Note_on_c, 0, 84, 0
2, 47400, Note_on_c, 0, 88, 79
2, 47403, Note_on_c, 0, 86, 0
2, 47430, Note_on_c, 0, 84, 74
2, 47433, Note_on_c, 0, 88, 0
2, 47439, Control_c, 0, 64, 127
2, 47453, Control_c, 0, 64, 0
2, 47460, Note_on_c, 0, 81, 66
2, 47462, Note_on_c, 0, 84, 0
2, 47474, Control_c, 0, 64, 127
2, 47486, Note_on_c, 0, 81, 0
2, 47490, Note_on_c, 0, 79, 62
2, 47510, Control_c, 0, 64, 0
2, 47520, Note_on_c, 0, 78, 61
2, 47522, Note_on_c, 0, 79, 0
2, 47542, Control_c, 0, 64, 127
2, 47631, Control_c, 0, 64, 0
2, 47636, Note_on_c, 0, 78, 0
2, 48960, Note_on_c, 0, 79, 79
2, 48977, Control_c, 0, 64, 127
2, 48988, Note_on_c, 0, 79, 0
2, 48990, Note_on_c, 0, 74, 74
2, 49020, Note_on_c, 0, 79, 88
2, 49022, Note_on_c, 0, 74, 0
2, 49043, Note_on_c, 0, 79, 0
2, 49050, Note_on_c, 0, 82, 83
2, 49063, Note_on_c, 0, 82, 0
2, 49079, Control_c, 0, 64, 0
2, 49080, Note_on_c, 0, 86, 102
2, 49080, Note_on_c, 0, 70, 88
2, 49100, Control_c, 0, 64, 127
2, 49110, Note_on_c, 0, 74, 74
2, 49111, Note_on_c, 0, 86, 0
2, 49126, Note_on_c, 0, 74, 0
2, 49136, Note_on_c, 0, 70, 0
2, 49139, Control_c, 0, 64, 0
2, 49140, Note_on_c, 0, 85, 102
2, 49140, Note_on_c, 0, 69, 102
2, 49155, Control_c, 0, 64, 127
2, 49165, Note_on_c, 0, 85, 0
2, 49170, Note_on_c, 0, 74, 70
2, 49183, Note_on_c, 0, 74, 0
2, 49194, Note_on_c, 0, 69, 0
2, 49198, Control_c, 0, 64, 0
2, 49200, Note_on_c, 0, 86, 107
2, 49200, Note_on_c, 0, 70, 83
2, 49216, Control_c, 0, 64, 127
2, 49229, Note_on_c, 0, 86, 0
2, 49230, Note_on_c, 0, 74, 68
2, 49255, Note_on_c, 0, 74, 0
2, 49256, Control_c, 0, 64, 0
2, 49260, Note_on_c, 0, 79, 74
2, 49272, Control_c, 0, 64, 127
2, 49286, Note_on_c, 0, 79, 0
2, 49290, Note_on_c, 0, 82, 83
2, 49292, Note_on_c, 0, 70, 0
2, 49304, Note_on_c, 0, 82, 0
2, 49314, Control_c, 0, 64, 0
2, 49320, Note_on_c, 0, 86, 102
2, 49320, Note_on_c, 0, 70, 102
2, 49333, Control_c, 0, 64, 127
2, 49350, Note_on_c, 0, 74, 70
2, 49355, Note_on_c, 0, 86, 0
2, 49371, Note_on_c, 0, 74, 0
2, 49376, Note_on_c, 0, 70, 0
2, 49376, Control_c, 0, 64, 0
2, 49380, Note_on_c, 0, 85, 97
2, 49380, Note_on_c, 0, 69, 97
2, 49393, Control_c, 0, 64, 127
2, 49406, Note_on_c, 0, 85, 0
2, 49410, Note_on_c, 0, 74, 79
2, 49425, Note_on_c, 0, 74, 0
2, 49431, Note_on_c, 0, 69, 0
2, 49433, Control_c, 0, 64, 0
2, 49440, Note_on_c, 0, 70, 93
2, 49440, Note_on_c, 0, 86, 107
2, 49450, Control_c, 0, 64, 127
2, 49470, Note_on_c, 0, 74, 68
2, 49473, Note_on_c, 0, 86, 0
2, 49486, Note_on_c, 0, 74, 0
2, 49493, Note_on_c, 0, 70, 0
2, 49496, Control_c, 0, 64, 0
2, 49500, Note_on_c, 0, 69, 93
2, 49500, Note_on_c, 0, 85, 107
2, 49514, Control_c, 0, 64, 127
2, 49526, Note_on_c, 0, 85, 0
2, 49530, Note_on_c, 0, 74, 61
2, 49541, Note_on_c, 0, 74, 0
2, 49541, Note_on_c, 0, 69, 0
2, 49560, Note_on_c, 0, 86, 107
2, 49560, Note_on_c, 0, 70, 93
2, 49561, Control_c, 0, 64, 0
2, 49576, Control_c, 0, 64, 127
2, 49590, Note_on_c, 0, 74, 68
2, 49595, Note_on_c, 0, 86, 0
2, 49606, Note_on_c, 0, 74, 0
2, 49615, Note_on_c, 0, 70, 0
2, 49617, Control_c, 0, 64, 0
2, 49620, Note_on_c, 0, 84, 102
2, 49620, Note_on_c, 0, 69, 102
2, 49634, Control_c, 0, 64, 127
2, 49648, Note_on_c, 0, 84, 0
2, 49650, Note_on_c, 0, 74, 83
2, 49665, Note_on_c, 0, 74, 0
2, 49667, Note_on_c, 0, 69, 0
2, 49675, Control_c, 0, 64, 0
2, 49680, Note_on_c, 0, 82, 97
2, 49680, Note_on_c, 0, 67, 97
2, 49691, Control_c, 0, 64, 127
2, 49709, Note_on_c, 0, 82, 0
2, 49710, Note_on_c, 0, 74, 83
2, 49727, Note_on_c, 0, 74, 0
2, 49735, Note_on_c, 0, 67, 0
2, 49735, Control_c, 0, 64, 0
2, 49740, Note_on_c, 0, 81, 97
2, 49740, Note_on_c, 0, 66, 83
2, 49751, Control_c, 0, 64, 127
2, 49770, Note_on_c, 0, 81, 0
2, 49770, Note_on_c, 0, 74, 83
2, 49785, Note_on_c, 0, 74, 0
2, 49792, Control_c, 0, 64, 0
2, 49796, Note_on_c, 0, 66, 0
2, 49800, Note_on_c, 0, 82, 97
2, 49800, Note_on_c, 0, 67, 93
2, 49810, Control_c, 0, 64, 127
2, 49829, Note_on_c, 0, 82, 0
2, 49830, Note_on_c, 0, 74, 68
2, 49845, Note_on_c, 0, 74, 0
2, 49849, Note_on_c, 0, 67, 0
2, 49850, Control_c, 0, 64, 0
2, 49860, Note_on_c, 0, 65, 88
2, 49860, Note_on_c, 0, 81, 107
2, 49866, Control_c, 0, 64, 127
2, 49890, Note_on_c, 0, 74, 70
2, 49895, Note_on_c, 0, 81, 0
2, 49901, Note_on_c, 0, 65, 0
2, 49903, Note_on_c, 0, 74, 0
2, 49913, Control_c, 0, 64, 0
2, 49920, Note_on_c, 0, 73, 102
2, 49920, Note_on_c, 0, 64, 97
2, 49920, Note_on_c, 0, 79, 102
2, 49933, Control_c, 0, 64, 127
2, 50039, Control_c, 0, 64, 0
2, 50042, Note_on_c, 0, 79, 0
2, 50043, Note_on_c, 0, 73, 0
2, 50045, Note_on_c, 0, 64, 0
2, 50910, Note_on_c, 0, 69, 88
2, 50932, Control_c, 0, 64, 127
2, 50940, Note_on_c, 0, 74, 102
2, 50943, Note_on_c, 0, 69, 0
2, 50967, Note_on_c, 0, 74, 0
2, 50970, Note_on_c, 0, 77, 93
2, 50986, Note_on_c, 0, 77, 0
2, 50994, Control_c, 0, 64, 0
2, 51000, Note_on_c, 0, 81, 102
2, 51000, Note_on_c, 0, 65, 83
2, 51021, Control_c, 0, 64, 127
2, 51030, Note_on_c, 0, 69, 83
2, 51034, Note_on_c, 0, 81, 0
2, 51052, Note_on_c, 0, 69, 0
2, 51054, Control_c, 0, 64, 0
2, 51056, Note_on_c, 0, 65, 0
2, 51060, Note_on_c, 0, 80, 97
2, 51060, Note_on_c, 0, 64, 88
2, 51075, Control_c, 0, 64, 127
2, 51090, Note_on_c, 0, 69, 68
2, 51092, Note_on_c, 0, 80, 0
2, 51112, Note_on_c, 0, 69, 0
2, 51113, Note_on_c, 0, 64, 0
2, 51117, Control_c, 0, 64, 0
2, 51120, Note_on_c, 0, 65, 97
2, 51120, Note_on_c, 0, 81, 97
2, 51138, Control_c, 0, 64, 127
2, 51150, Note_on_c, 0, 69, 79
2, 51151, Note_on_c, 0, 81, 0
2, 51178, Note_on_c, 0, 69, 0
2, 51180, Note_on_c, 0, 74, 88
2, 51183, Control_c, 0, 64, 0
2, 51187, Note_on_c, 0, 65, 0
2, 51202, Control_c, 0, 64, 127
2, 51207, Note_on_c, 0, 74, 0
2, 51210, Note_on_c, 0, 77, 88
2, 51222, Control_c, 0, 64, 0
2, 51236, Note_on_c, 0, 77, 0
2, 51240, Note_on_c, 0, 65, 97
2, 51240, Note_on_c, 0, 81, 97
2, 51247, Control_c, 0, 64, 127
2, 51270, Note_on_c, 0, 69, 70
2, 51273, Note_on_c, 0, 81, 0
2, 51292, Note_on_c, 0, 69, 0
2, 51297, Control_c, 0, 64, 0
2, 51300, Note_on_c, 0, 65, 0
2, 51300, Note_on_c, 0, 80, 88
2, 51300, Note_on_c, 0, 64, 97
2, 51317, Control_c, 0, 64, 127
2, 51328, Note_on_c, 0, 80, 0
2, 51330, Note_on_c, 0, 69, 79
2, 51345, Note_on_c, 0, 69, 0
2, 51346, Note_on_c, 0, 64, 0
2, 51348, Control_c, 0, 64, 0
2, 51360, Note_on_c, 0, 81, 107
2, 51360, Note_on_c, 0, 65, 88
2, 51367, Control_c, 0, 64, 127
2, 51390, Note_on_c, 0, 69, 79
2, 51391, Note_on_c, 0, 81, 0
2, 51404, Note_on_c, 0, 65, 0
2, 51408, Note_on_c, 0, 69, 0
2, 51417, Control_c, 0, 64, 0
2, 51420, Note_on_c, 0, 64, 93
2, 51420, Note_on_c, 0, 80, 97
2, 51435, Control_c, 0, 64, 127
2, 51446, Note_on_c, 0, 80, 0
2, 51450, Note_on_c, 0, 69, 70
2, 51467, Note_on_c, 0, 69, 0
2, 51472, Note_on_c, 0, 64, 0
2, 51472, Control_c, 0, 64, 0
2, 51480, Note_on_c, 0, 81, 97
2, 51480, Note_on_c, 0, 65, 88
2, 51491, Control_c, 0, 64, 127
2, 51510, Note_on_c, 0, 69, 79
2, 51518, Note_on_c, 0, 81, 0
2, 51527, Note_on_c, 0, 69, 0
2, 51530, Note_on_c, 0, 65, 0
2, 51534, Control_c, 0, 64, 0
2, 51540, Note_on_c, 0, 79, 97
2, 51540, Note_on_c, 0, 64, 97
2, 51553, Control_c, 0, 64, 127
2, 51569, Note_on_c, 0, 79, 0
2, 51570, Note_on_c, 0, 69, 68
2, 51587, Note_on_c, 0, 69, 0
2, 51591, Control_c, 0, 64, 0
2, 51595, Note_on_c, 0, 64, 0
2, 51600, Note_on_c, 0, 77, 102
2, 51600, Note_on_c, 0, 62, 97
2, 51610, Control_c, 0, 64, 127
2, 51630, Note_on_c, 0, 77, 0
2, 51630, Note_on_c, 0, 69, 62
2, 51649, Note_on_c, 0, 69, 0
2, 51653, Note_on_c, 0, 62, 0
2, 51654, Control_c, 0, 64, 0
2, 51660, Note_on_c, 0, 76, 97
2, 51660, Note_on_c, 0, 61, 79
2, 51673, Control_c, 0, 64, 127
2, 51690, Note_on_c, 0, 69, 66
2, 51691, Note_on_c, 0, 76, 0
2, 51708, Note_on_c, 0, 69, 0
2, 51716, Control_c, 0, 64, 0
2, 51719, Note_on_c, 0, 61, 0
2, 51720, Note_on_c, 0, 77, 93
2, 51720, Note_on_c, 0, 62, 97
2, 51736, Control_c, 0, 64, 127
2, 51750, Note_on_c, 0, 69, 74
2, 51752, Note_on_c, 0, 77, 0
2, 51767, Note_on_c, 0, 69, 0
2, 51774, Note_on_c, 0, 62, 0
2, 51774, Control_c, 0, 64, 0
2, 51780, Note_on_c, 0, 76, 93
2, 51780, Note_on_c, 0, 60, 97
2, 51789, Control_c, 0, 64, 127
2, 51807, Note_on_c, 0, 76, 0
2, 51810, Note_on_c, 0, 69, 79
2, 51823, Note_on_c, 0, 69, 0
2, 51827, Note_on_c, 0, 60, 0
2, 51834, Control_c, 0, 64, 0
2, 51840, Note_on_c, 0, 68, 97
2, 51840, Note_on_c, 0, 74, 102
2, 51840, Note_on_c, 0, 59, 97
2, 51854, Control_c, 0, 64, 127
2, 51961, Control_c, 0, 64, 0
2, 51962, Note_on_c, 0, 74, 0
2, 51963, Note_on_c, 0, 68, 0
2, 51964, Note_on_c, 0, 59, 0
2, 52830, Note_on_c, 0, 69, 70
2, 52860, Note_on_c, 0, 71, 83
2, 52864, Note_on_c, 0, 69, 0
2, 52890, Note_on_c, 0, 72, 83
2, 52891, Note_on_c, 0, 71, 0
2, 52917, Note_on_c, 0, 72, 0
2, 52920, Note_on_c, 0, 74, 68
2, 52932, Control_c, 0, 64, 127
2, 52944, Control_c, 0, 64, 0
2, 52947, Note_on_c, 0, 74, 0
2, 52950, Note_on_c, 0, 76, 88
2, 52980, Note_on_c, 0, 78, 70
2, 52981, Note_on_c, 0, 76, 0
2, 53007, Note_on_c, 0, 78, 0
2, 53010, Note_on_c, 0, 80, 70
2, 53036, Note_on_c, 0, 80, 0
2, 53040, Note_on_c, 0, 81, 83
2, 53070, Note_on_c, 0, 83, 68
2, 53074, Note_on_c, 0, 81, 0
2, 53098, Note_on_c, 0, 83, 0
2, 53100, Note_on_c, 0, 84, 74
2, 53107, Control_c, 0, 64, 127
2, 53126, Note_on_c, 0, 84, 0
2, 53130, Note_on_c, 0, 86, 83
2, 53160, Note_on_c, 0, 88, 97
2, 53160, Note_on_c, 0, 72, 79
2, 53160, Control_c, 0, 64, 0
2, 53161, Note_on_c, 0, 86, 0
2, 53220, Note_on_c, 0, 76, 88
2, 53222, Note_on_c, 0, 88, 0
2, 53228, Control_c, 0, 64, 127
2, 53278, Note_on_c, 0, 76, 0
2, 53280, Note_on_c, 0, 79, 88
2, 53280, Note_on_c, 0, 74, 68
2, 53283, Note_on_c, 0, 72, 0
2, 53286, Control_c, 0, 64, 0
2, 53320, Control_c, 0, 64, 127
2, 53336, Control_c, 0, 64, 0
2, 53338, Note_on_c, 0, 79, 0
2, 53340, Note_on_c, 0, 77, 83
2, 53361, Control_c, 0, 64, 127
2, 53397, Control_c, 0, 64, 0
2, 53398, Note_on_c, 0, 74, 0
2, 53400, Note_on_c, 0, 71, 68
2, 53428, Control_c, 0, 64, 127
2, 53460, Note_on_c, 0, 86, 83
2, 53461, Note_on_c, 0, 77, 0
2, 53520, Note_on_c, 0, 86, 0
2, 53520, Note_on_c, 0, 72, 66
2, 53520, Note_on_c, 0, 77, 56
2, 53526, Control_c, 0, 64, 0
2, 53527, Note_on_c, 0, 71, 0
2, 53557, Control_c, 0, 64, 127
2, 53577, Control_c, 0, 64, 0
2, 53578, Note_on_c, 0, 77, 0
2, 53580, Note_on_c, 0, 76, 70
2, 53602, Control_c, 0, 64, 127
2, 53636, Note_on_c, 0, 72, 0
2, 53640, Note_on_c, 0, 69, 60
2, 53641, Control_c, 0, 64, 0
2, 53666, Control_c, 0, 64, 127
2, 53700, Note_on_c, 0, 76, 0
2, 53700, Note_on_c, 0, 84, 66
2, 53758, Note_on_c, 0, 84, 0
2, 53760, Note_on_c, 0, 76, 70
2, 53760, Note_on_c, 0, 71, 51
2, 53763, Note_on_c, 0, 69, 0
2, 53765, Control_c, 0, 64, 0
2, 53791, Control_c, 0, 64, 127
2, 53820, Note_on_c, 0, 74, 66
2, 53821, Note_on_c, 0, 76, 0
2, 53880, Note_on_c, 0, 71, 0
2, 53880, Note_on_c, 0, 68, 57
2, 53886, Control_c, 0, 64, 0
2, 53920, Control_c, 0, 64, 127
2, 53939, Note_on_c, 0, 74, 0
2, 53940, Note_on_c, 0, 83, 62
2, 53997, Note_on_c, 0, 83, 0
2, 53998, Note_on_c, 0, 68, 0
2, 54000, Note_on_c, 0, 69, 60
2, 54000, Note_on_c, 0, 74, 66
2, 54002, Control_c, 0, 64, 0
2, 54026, Control_c, 0, 64, 127
2, 54055, Note_on_c, 0, 74, 0
2, 54059, Control_c, 0, 64, 0
2, 54060, Note_on_c, 0, 72, 61
2, 54081, Control_c, 0, 64, 127
2, 54120, Note_on_c, 0, 65, 52
2, 54125, Note_on_c, 0, 69, 0
2, 54128, Control_c, 0, 64, 0
2, 54156, Control_c, 0, 64, 127
2, 54178, Note_on_c, 0, 72, 0
2, 54180, Note_on_c, 0, 81, 79
2, 54237, Note_on_c, 0, 65, 0
2, 54240, Note_on_c, 0, 62, 56
2, 54240, Control_c, 0, 64, 0
2, 54262, Control_c, 0, 64, 127
2, 54300, Note_on_c, 0, 71, 68
2, 54301, Note_on_c, 0, 81, 0
2, 54306, Control_c, 0, 64, 0
2, 54326, Control_c, 0, 64, 127
2, 54360, Note_on_c, 0, 74, 83
2, 54362, Note_on_c, 0, 71, 0
2, 54416, Note_on_c, 0, 74, 0
2, 54420, Note_on_c, 0, 77, 97
2, 54443, Note_on_c, 0, 77, 0
2, 54480, Note_on_c, 0, 77, 83
2, 54480, Note_on_c, 0, 64, 66
2, 54484, Note_on_c, 0, 62, 0
2, 54488, Control_c, 0, 64, 0
2, 54510, Control_c, 0, 64, 127
2, 54535, Control_c, 0, 64, 0
2, 54540, Note_on_c, 0, 76, 74
2, 54546, Note_on_c, 0, 77, 0
2, 54551, Control_c, 0, 64, 127
2, 54583, Note_on_c, 0, 76, 0
2, 54600, Note_on_c, 0, 76, 79
2, 54601, Control_c, 0, 64, 0
2, 54611, Control_c, 0, 64, 127
2, 54658, Note_on_c, 0, 76, 0
2, 54660, Note_on_c, 0, 68, 68
2, 54662, Control_c, 0, 64, 0
2, 54674, Control_c, 0, 64, 127
2, 54714, Note_on_c, 0, 68, 0
2, 54717, Control_c, 0, 64, 0
2, 54720, Note_on_c, 0, 69, 70
2, 54720, Note_on_c, 0, 57, 60
2, 54721, Note_on_c, 0, 64, 0
2, 54737, Control_c, 0, 64, 127
2, 54882, Control_c, 0, 64, 0
2, 54884, Note_on_c, 0, 69, 0
2, 54885, Note_on_c, 0, 57, 0
2, 56040, Note_on_c, 0, 63, 97
2, 56043, Control_c, 0, 64, 127
2, 56100, Note_on_c, 0, 84, 93
2, 56100, Note_on_c, 0, 69, 102
2, 56101, Note_on_c, 0, 63, 0
2, 56111, Note_on_c, 0, 84, 0
2, 56115, Note_on_c, 0, 69, 0
2, 56160, Note_on_c, 0, 72, 88
2, 56160, Note_on_c, 0, 75, 97
2, 56161, Control_c, 0, 64, 0
2, 56176, Control_c, 0, 64, 127
2, 56218, Note_on_c, 0, 75, 0
2, 56218, Note_on_c, 0, 72, 0
2, 56219, Control_c, 0, 64, 0
2, 56220, Note_on_c, 0, 74, 102
2, 56220, Note_on_c, 0, 69, 93
2, 56238, Control_c, 0, 64, 127
2, 56276, Control_c, 0, 64, 0
2, 56278, Note_on_c, 0, 69, 0
2, 56280, Note_on_c, 0, 67, 97
2, 56292, Control_c, 0, 64, 127
2, 56337, Note_on_c, 0, 74, 0
2, 56340, Note_on_c, 0, 82, 102
2, 56390, Note_on_c, 0, 82, 0
2, 56399, Note_on_c, 0, 67, 0
2, 56400, Note_on_c, 0, 70, 88
2, 56400, Note_on_c, 0, 74, 107
2, 56400, Control_c, 0, 64, 0
2, 56419, Control_c, 0, 64, 127
2, 56457, Note_on_c, 0, 70, 0
2, 56457, Control_c, 0, 64, 0
2, 56459, Note_on_c, 0, 74, 0
2, 56460, Note_on_c, 0, 67, 88
2, 56460, Note_on_c, 0, 72, 97
2, 56474, Control_c, 0, 64, 127
2, 56516, Control_c, 0, 64, 0
2, 56518, Note_on_c, 0, 67, 0
2, 56520, Note_on_c, 0, 65, 102
2, 56543, Control_c, 0, 64, 127
2, 56577, Note_on_c, 0, 72, 0
2, 56580, Note_on_c, 0, 81, 102
2, 56632, Control_c, 0, 64, 0
2, 56633, Note_on_c, 0, 81, 0
2, 56640, Note_on_c, 0, 72, 102
2, 56640, Note_on_c, 0, 69, 97
2, 56641, Note_on_c, 0, 65, 0
2, 56651, Control_c, 0, 64, 127
2, 56696, Note_on_c, 0, 69, 0
2, 56696, Control_c, 0, 64, 0
2, 56700, Note_on_c, 0, 65, 88
2, 56700, Note_on_c, 0, 70, 97
2, 56701, Note_on_c, 0, 72, 0
2, 56717, Control_c, 0, 64, 127
2, 56760, Note_on_c, 0, 64, 88
2, 56761, Control_c, 0, 64, 0
2, 56762, Note_on_c, 0, 65, 0
2, 56781, Control_c, 0, 64, 127
2, 56813, Note_on_c, 0, 70, 0
2, 56820, Note_on_c, 0, 79, 97
2, 56874, Control_c, 0, 64, 0
2, 56879, Note_on_c, 0, 64, 0
2, 56880, Note_on_c, 0, 79, 0
2, 56880, Note_on_c, 0, 70, 93
2, 56880, Note_on_c, 0, 67, 93
2, 56890, Control_c, 0, 64, 127
2, 56939, Note_on_c, 0, 67, 0
2, 56940, Note_on_c, 0, 64, 88
2, 56940, Note_on_c, 0, 69, 102
2, 56941, Note_on_c, 0, 70, 0
2, 56942, Control_c, 0, 64, 0
2, 56958, Control_c, 0, 64, 127
2, 56998, Note_on_c, 0, 64, 0
2, 56999, Control_c, 0, 64, 0
2, 57000, Note_on_c, 0, 69, 0
2, 57000, Note_on_c, 0, 62, 97
2, 57000, Note_on_c, 0, 77, 102
2, 57014, Control_c, 0, 64, 127
2, 57055, Control_c, 0, 64, 0
2, 57056, Note_on_c, 0, 77, 0
2, 57060, Note_on_c, 0, 76, 107
2, 57070, Note_on_c, 0, 76, 0
2, 57097, Note_on_c, 0, 62, 0
2, 57120, Note_on_c, 0, 74, 62
2, 57180, Note_on_c, 0, 64, 68
2, 57192, Control_c, 0, 64, 127
2, 57238, Note_on_c, 0, 74, 0
2, 57239, Control_c, 0, 64, 0
2, 57240, Note_on_c, 0, 67, 64
2, 57240, Note_on_c, 0, 73, 62
2, 57241, Note_on_c, 0, 64, 0
2, 57258, Control_c, 0, 64, 127
2, 57298, Control_c, 0, 64, 0
2, 57300, Note_on_c, 0, 70, 64
2, 57301, Note_on_c, 0, 67, 0
2, 57316, Control_c, 0, 64, 127
2, 57357, Control_c, 0, 64, 0
2, 57360, Note_on_c, 0, 64, 60
2, 57365, Note_on_c, 0, 70, 0
2, 57379, Control_c, 0, 64, 127
2, 57410, Control_c, 0, 64, 0
2, 57416, Note_on_c, 0, 73, 0
2, 57420, Note_on_c, 0, 76, 66
2, 57475, Note_on_c, 0, 64, 0
2, 57480, Note_on_c, 0, 79, 74
2, 57483, Note_on_c, 0, 76, 0
2, 57540, Note_on_c, 0, 77, 68
2, 57542, Note_on_c, 0, 79, 0
2, 57598, Note_on_c, 0, 77, 0
2, 57600, Note_on_c, 0, 76, 68
2, 57660, Note_on_c, 0, 65, 55
2, 57670, Control_c, 0, 64, 127
2, 57718, Control_c, 0, 64, 0
2, 57720, Note_on_c, 0, 76, 0
2, 57720, Note_on_c, 0, 69, 68
2, 57720, Note_on_c, 0, 74, 61
2, 57722, Note_on_c, 0, 65, 0
2, 57733, Control_c, 0, 64, 127
2, 57769, Note_on_c, 0, 69, 0
2, 57770, Note_on_c, 0, 74, 0
2, 57780, Note_on_c, 0, 74, 68
2, 57836, Control_c, 0, 64, 0
2, 57837, Note_on_c, 0, 74, 0
2, 57840, Note_on_c, 0, 65, 66
2, 57851, Control_c, 0, 64, 127
2, 57885, Note_on_c, 0, 79, 88
2, 57899, Note_on_c, 0, 79, 0
2, 57900, Note_on_c, 0, 77, 68
2, 57901, Note_on_c, 0, 65, 0
2, 57908, Note_on_c, 0, 77, 0
2, 57915, Note_on_c, 0, 76, 58
2, 57915, Control_c, 0, 64, 0
2, 57930, Note_on_c, 0, 77, 70
2, 57934, Note_on_c, 0, 76, 0
2, 57945, Note_on_c, 0, 77, 0
2, 57960, Note_on_c, 0, 81, 70
2, 58012, Control_c, 0, 64, 127
2, 58018, Note_on_c, 0, 81, 0
2, 58020, Note_on_c, 0, 74, 83
2, 58073, Control_c, 0, 64, 0
2, 58079, Note_on_c, 0, 74, 0
2, 58080, Note_on_c, 0, 75, 83
2, 58105, Control_c, 0, 64, 127
2, 58140, Note_on_c, 0, 61, 68
2, 58200, Note_on_c, 0, 61, 0
2, 58200, Note_on_c, 0, 67, 68
2, 58200, Note_on_c, 0, 76, 70
2, 58201, Note_on_c, 0, 75, 0
2, 58201, Control_c, 0, 64, 0
2, 58224, Control_c, 0, 64, 127
2, 58260, Note_on_c, 0, 70, 62
2, 58262, Note_on_c, 0, 67, 0
2, 58265, Control_c, 0, 64, 0
2, 58284, Control_c, 0, 64, 127
2, 58316, Note_on_c, 0, 70, 0
2, 58317, Control_c, 0, 64, 0
2, 58320, Note_on_c, 0, 61, 74
2, 58333, Control_c, 0, 64, 127
2, 58361, Note_on_c, 0, 61, 0
2, 58365, Note_on_c, 0, 77, 79
2, 58366, Note_on_c, 0, 76, 0
2, 58380, Note_on_c, 0, 76, 64
2, 58382, Control_c, 0, 64, 0
2, 58383, Note_on_c, 0, 77, 0
2, 58391, Note_on_c, 0, 76, 0
2, 58395, Note_on_c, 0, 74, 64
2, 58410, Note_on_c, 0, 76, 66
2, 58412, Note_on_c, 0, 74, 0
2, 58422, Note_on_c, 0, 76, 0
2, 58440, Note_on_c, 0, 82, 79
2, 58500, Note_on_c, 0, 76, 83
2, 58501, Note_on_c, 0, 82, 0
2, 58525, Control_c, 0, 64, 127
2, 58557, Note_on_c, 0, 76, 0
2, 58560, Note_on_c, 0, 79, 83
2, 58564, Control_c, 0, 64, 0
2, 58585, Control_c, 0, 64, 127
2, 58614, Control_c, 0, 64, 0
2, 58620, Note_on_c, 0, 62, 68
2, 58630, Control_c, 0, 64, 127
2, 58679, Note_on_c, 0, 79, 0
2, 58679, Control_c, 0, 64, 0
2, 58680, Note_on_c, 0, 77, 66
2, 58680, Note_on_c, 0, 65, 60
2, 58684, Note_on_c, 0, 62, 0
2, 58699, Control_c, 0, 64, 127
2, 58736, Control_c, 0, 64, 0
2, 58738, Note_on_c, 0, 65, 0
2, 58740, Note_on_c, 0, 69, 61
2, 58753, Control_c, 0, 64, 127
2, 58795, Control_c, 0, 64, 0
2, 58798, Note_on_c, 0, 69, 0
2, 58800, Note_on_c, 0, 62, 66
2, 58814, Control_c, 0, 64, 127
2, 58860, Note_on_c, 0, 80, 70
2, 58866, Note_on_c, 0, 77, 0
2, 58866, Control_c, 0, 64, 0
2, 58916, Note_on_c, 0, 80, 0
2, 58920, Note_on_c, 0, 81, 68
2, 58923, Note_on_c, 0, 62, 0
2, 58978, Note_on_c, 0, 81, 0
2, 58980, Note_on_c, 0, 77, 79
2, 58987, Control_c, 0, 64, 127
2, 59040, Note_on_c, 0, 76, 70
2, 59041, Control_c, 0, 64, 127
2, 59045, Note_on_c, 0, 77, 0
2, 59160, Note_on_c, 0, 74, 66
2, 59160, Control_c, 0, 64, 0
2, 59162, Note_on_c, 0, 76, 0
2, 59193, Control_c, 0, 64, 127
2, 59275, Note_on_c, 0, 74, 0
2, 59290, Control_c, 0, 64, 0
2, 59340, Note_on_c, 0, 81, 93
2, 59355, Control_c, 0, 64, 127
2, 59369, Note_on_c, 0, 81, 0
2, 59370, Note_on_c, 0, 80, 79
2, 59374, Control_c, 0, 64, 0
2, 59400, Note_on_c, 0, 83, 88
2, 59401, Note_on_c, 0, 80, 0
2, 59430, Note_on_c, 0, 81, 79
2, 59434, Note_on_c, 0, 83, 0
2, 59460, Note_on_c, 0, 79, 83
2, 59462, Note_on_c, 0, 81, 0
2, 59487, Note_on_c, 0, 79, 0
2, 59490, Note_on_c, 0, 77, 68
2, 59520, Note_on_c, 0, 76, 83
2, 59527, Note_on_c, 0, 77, 0
2, 59569, Control_c, 0, 64, 127
2, 59640, Note_on_c, 0, 76, 0
2, 59640, Note_on_c, 0, 74, 70
2, 59646, Control_c, 0, 64, 0
2, 59679, Control_c, 0, 64, 127
2, 59759, Note_on_c, 0, 74, 0
2, 59771, Control_c, 0, 64, 0
2, 59820, Note_on_c, 0, 80, 88
2, 59841, Control_c, 0, 64, 127
2, 59876, Note_on_c, 0, 80, 0
2, 59880, Note_on_c, 0, 81, 83
2, 59882, Control_c, 0, 64, 0
2, 59915, Control_c, 0, 64, 127
2, 59937, Note_on_c, 0, 81, 0
2, 59940, Note_on_c, 0, 74, 88
2, 59993, Control_c, 0, 64, 0
2, 59996, Note_on_c, 0, 74, 0
2, 60000, Note_on_c, 0, 77, 97
2, 60019, Control_c, 0, 64, 127
2, 60084, Note_on_c, 0, 77, 0
2, 60090, Note_on_c, 0, 75, 102
2, 60108, Control_c, 0, 64, 0
2, 60111, Note_on_c, 0, 75, 0
2, 60120, Note_on_c, 0, 75, 97
2, 60135, Control_c, 0, 64, 127
2, 60338, Note_on_c, 0, 75, 0
2, 60360, Note_on_c, 0, 75, 102
2, 60365, Control_c, 0, 64, 0
2, 60383, Control_c, 0, 64, 127
2, 60531, Control_c, 0, 64, 0
2, 60540, Note_on_c, 0, 72, 93
2, 60546, Control_c, 0, 64, 127
2, 60553, Note_on_c, 0, 75, 0
2, 60555, Note_on_c, 0, 74, 83
2, 60569, Note_on_c, 0, 74, 0
2, 60570, Note_on_c, 0, 75, 68
2, 60578, Note_on_c, 0, 75, 0
2, 60585, Note_on_c, 0, 77, 102
2, 60594, Control_c, 0, 64, 0
2, 60598, Note_on_c, 0, 72, 0
2, 60600, Note_on_c, 0, 77, 0
2, 60600, Note_on_c, 0, 68, 83
2, 60600, Note_on_c, 0, 75, 93
2, 60624, Control_c, 0, 64, 127
2, 60656, Control_c, 0, 64, 0
2, 60660, Note_on_c, 0, 67, 97
2, 60665, Note_on_c, 0, 68, 0
2, 60672, Control_c, 0, 64, 127
2, 60716, Note_on_c, 0, 67, 0
2, 60717, Control_c, 0, 64, 0
2, 60720, Note_on_c, 0, 66, 83
2, 60737, Control_c, 0, 64, 127
2, 60779, Note_on_c, 0, 75, 0
2, 60780, Note_on_c, 0, 74, 93
2, 60810, Note_on_c, 0, 74, 0
2, 60810, Note_on_c, 0, 75, 93
2, 60840, Note_on_c, 0, 75, 0
2, 60840, Note_on_c, 0, 77, 97
2, 60844, Control_c, 0, 64, 0
2, 60864, Control_c, 0, 64, 127
2, 60870, Note_on_c, 0, 75, 83
2, 60874, Note_on_c, 0, 77, 0
2, 60900, Note_on_c, 0, 74, 93
2, 60904, Note_on_c, 0, 75, 0
2, 60929, Note_on_c, 0, 74, 0
2, 60930, Note_on_c, 0, 72, 83
2, 60948, Note_on_c, 0, 72, 0
2, 60957, Note_on_c, 0, 66, 0
2, 60960, Note_on_c, 0, 67, 83
2, 60960, Note_on_c, 0, 71, 93
2, 60961, Control_c, 0, 64, 0
2, 60980, Control_c, 0, 64, 127
2, 60990, Note_on_c, 0, 74, 88
2, 60991, Note_on_c, 0, 71, 0
2, 61014, Note_on_c, 0, 67, 0
2, 61020, Note_on_c, 0, 72, 88
2, 61025, Note_on_c, 0, 74, 0
2, 61026, Control_c, 0, 64, 0
2, 61043, Control_c, 0, 64, 127
2, 61050, Note_on_c, 0, 71, 66
2, 61051, Note_on_c, 0, 72, 0
2, 61076, Note_on_c, 0, 71, 0
2, 61077, Control_c, 0, 64, 0
2, 61080, Note_on_c, 0, 72, 74
2, 61110, Note_on_c, 0, 74, 68
2, 61112, Note_on_c, 0, 72, 0
2, 61140, Note_on_c, 0, 76, 79
2, 61147, Note_on_c, 0, 74, 0
2, 61170, Note_on_c, 0, 76, 0
2, 61170, Note_on_c, 0, 78, 61
2, 61199, Note_on_c, 0, 78, 0
2, 61200, Note_on_c, 0, 79, 70
2, 61230, Note_on_c, 0, 79, 0
2, 61230, Note_on_c, 0, 81, 68
2, 61260, Note_on_c, 0, 83, 64
2, 61262, Note_on_c, 0, 81, 0
2, 61289, Note_on_c, 0, 83, 0
2, 61290, Note_on_c, 0, 84, 68
2, 61320, Note_on_c, 0, 84, 0
2, 61320, Note_on_c, 0, 86, 70
2, 61350, Note_on_c, 0, 83, 66
2, 61353, Note_on_c, 0, 86, 0
2, 61380, Note_on_c, 0, 81, 68
2, 61384, Note_on_c, 0, 83, 0
2, 61399, Control_c, 0, 64, 127
2, 61407, Note_on_c, 0, 81, 0
2, 61410, Note_on_c, 0, 79, 70
2, 61440, Note_on_c, 0, 78, 79
2, 61444, Note_on_c, 0, 79, 0
2, 61452, Control_c, 0, 64, 0
2, 61470, Note_on_c, 0, 78, 0
2, 61470, Note_on_c, 0, 79, 64
2, 61500, Note_on_c, 0, 78, 64
2, 61501, Note_on_c, 0, 79, 0
2, 61530, Note_on_c, 0, 76, 70
2, 61531, Note_on_c, 0, 78, 0
2, 61560, Note_on_c, 0, 76, 0
2, 61560, Note_on_c, 0, 78, 74
2, 61590, Note_on_c, 0, 79, 68
2, 61591, Note_on_c, 0, 78, 0
2, 61620, Note_on_c, 0, 81, 70
2, 61621, Note_on_c, 0, 79, 0
2, 61650, Note_on_c, 0, 81, 0
2, 61650, Note_on_c, 0, 83, 68
2, 61680, Note_on_c, 0, 83, 0
2, 61680, Note_on_c, 0, 84, 88
2, 61710, Note_on_c, 0, 86, 88
2, 61711, Note_on_c, 0, 84, 0
2, 61740, Note_on_c, 0, 86, 0
2, 61740, Note_on_c, 0, 87, 74
2, 61770, Note_on_c, 0, 86, 83
2, 61773, Note_on_c, 0, 87, 0
2, 61799, Note_on_c, 0, 86, 0
2, 61800, Note_on_c, 0, 89, 102
2, 61830, Note_on_c, 0, 87, 66
2, 61835, Note_on_c, 0, 89, 0
2, 61860, Note_on_c, 0, 86, 83
2, 61864, Note_on_c, 0, 87, 0
2, 61888, Control_c, 0, 64, 127
2, 61890, Note_on_c, 0, 86, 0
2, 61890, Note_on_c, 0, 84, 66
2, 61920, Note_on_c, 0, 84, 0
2, 61920, Note_on_c, 0, 83, 88
2, 61926, Control_c, 0, 64, 0
2, 61950, Note_on_c, 0, 84, 79
2, 61952, Note_on_c, 0, 83, 0
2, 61980, Note_on_c, 0, 84, 0
2, 61980, Note_on_c, 0, 86, 79
2, 62010, Note_on_c, 0, 84, 79
2, 62017, Note_on_c, 0, 86, 0
2, 62040, Note_on_c, 0, 83, 83
2, 62047, Note_on_c, 0, 84, 0
2, 62070, Note_on_c, 0, 81, 66
2, 62073, Note_on_c, 0, 83, 0
2, 62084, Control_c, 0, 64, 127
2, 62090, Control_c, 0, 64, 0
2, 62100, Note_on_c, 0, 79, 93
2, 62101, Note_on_c, 0, 81, 0
2, 62129, Control_c, 0, 64, 127
2, 62130, Note_on_c, 0, 78, 74
2, 62131, Note_on_c, 0, 79, 0
2, 62156, Note_on_c, 0, 78, 0
2, 62160, Note_on_c, 0, 79, 102
2, 62167, Control_c, 0, 64, 0
2, 62190, Note_on_c, 0, 79, 0
2, 62190, Note_on_c, 0, 80, 88
2, 62196, Control_c, 0, 64, 127
2, 62216, Control_c, 0, 64, 0
2, 62219, Note_on_c, 0, 80, 0
2, 62220, Note_on_c, 0, 79, 93
2, 62242, Control_c, 0, 64, 127
2, 62250, Note_on_c, 0, 80, 102
2, 62253, Note_on_c, 0, 79, 0
2, 62280, Note_on_c, 0, 79, 93
2, 62283, Note_on_c, 0, 80, 0
2, 62291, Control_c, 0, 64, 0
2, 62310, Note_on_c, 0, 79, 0
2, 62310, Note_on_c, 0, 77, 74
2, 62340, Note_on_c, 0, 75, 68
2, 62347, Note_on_c, 0, 77, 0
2, 62370, Note_on_c, 0, 74, 79
2, 62371, Note_on_c, 0, 75, 0
2, 62383, Control_c, 0, 64, 127
2, 62400, Note_on_c, 0, 75, 58
2, 62401, Note_on_c, 0, 74, 0
2, 62402, Control_c, 0, 64, 0
2, 62430, Note_on_c, 0, 77, 70
2, 62432, Control_c, 0, 64, 127
2, 62434, Note_on_c, 0, 75, 0
2, 62460, Note_on_c, 0, 79, 62
2, 62462, Note_on_c, 0, 77, 0
2, 62471, Control_c, 0, 64, 0
2, 62490, Note_on_c, 0, 77, 62
2, 62498, Note_on_c, 0, 79, 0
2, 62501, Control_c, 0, 64, 127
2, 62520, Note_on_c, 0, 75, 60
2, 62523, Note_on_c, 0, 77, 0
2, 62533, Control_c, 0, 64, 0
2, 62550, Note_on_c, 0, 75, 0
2, 62550, Note_on_c, 0, 74, 60
2, 62556, Control_c, 0, 64, 127
2, 62578, Note_on_c, 0, 74, 0
2, 62580, Note_on_c, 0, 72, 66
2, 62610, Note_on_c, 0, 72, 0
2, 62610, Note_on_c, 0, 71, 62
2, 62630, Note_on_c, 0, 71, 0
2, 62640, Note_on_c, 0, 72, 66
2, 62651, Control_c, 0, 64, 0
2, 62670, Note_on_c, 0, 74, 68
2, 62673, Note_on_c, 0, 72, 0
2, 62698, Control_c, 0, 64, 127
2, 62700, Note_on_c, 0, 75, 70
2, 62701, Note_on_c, 0, 74, 0
2, 62729, Note_on_c, 0, 75, 0
2, 62730, Note_on_c, 0, 74, 79
2, 62760, Control_c, 0, 64, 0
2, 62760, Note_on_c, 0, 77, 74
2, 62761, Note_on_c, 0, 74, 0
2, 62790, Note_on_c, 0, 75, 61
2, 62797, Control_c, 0, 64, 127
2, 62800, Note_on_c, 0, 77, 0
2, 62820, Note_on_c, 0, 74, 68
2, 62821, Note_on_c, 0, 75, 0
2, 62828, Control_c, 0, 64, 0
2, 62848, Control_c, 0, 64, 127
2, 62849, Note_on_c, 0, 74, 0
2, 62850, Note_on_c, 0, 72, 68
2, 62870, Note_on_c, 0, 72, 0
2, 62880, Note_on_c, 0, 71, 88
2, 62898, Control_c, 0, 64, 0
2, 62910, Note_on_c, 0, 71, 0
2, 62910, Note_on_c, 0, 72, 68
2, 62928, Control_c, 0, 64, 127
2, 62939, Note_on_c, 0, 72, 0
2, 62940, Note_on_c, 0, 74, 60
2, 62951, Control_c, 0, 64, 0
2, 62970, Note_on_c, 0, 72, 79
2, 62971, Control_c, 0, 64, 127
2, 62974, Note_on_c, 0, 74, 0
2, 62990, Control_c, 0, 64, 0
2, 63000, Note_on_c, 0, 71, 83
2, 63001, Note_on_c, 0, 72, 0
2, 63005, Control_c, 0, 64, 127
2, 63027, Note_on_c, 0, 71, 0
2, 63030, Note_on_c, 0, 69, 83
2, 63032, Control_c, 0, 64, 0
2, 63050, Control_c, 0, 64, 127
2, 63060, Note_on_c, 0, 69, 0
2, 63060, Note_on_c, 0, 67, 68
2, 63068, Control_c, 0, 64, 0
2, 63085, Control_c, 0, 64, 127
2, 63086, Note_on_c, 0, 67, 0
2, 63090, Note_on_c, 0, 66, 68
2, 63120, Note_on_c, 0, 66, 0
2, 63120, Note_on_c, 0, 67, 70
2, 63123, Control_c, 0, 64, 0
2, 63143, Control_c, 0, 64, 127
2, 63150, Note_on_c, 0, 71, 74
2, 63154, Note_on_c, 0, 67, 0
2, 63175, Control_c, 0, 64, 0
2, 63178, Note_on_c, 0, 71, 0
2, 63180, Note_on_c, 0, 69, 88
2, 63192, Control_c, 0, 64, 127
2, 63210, Note_on_c, 0, 72, 97
2, 63212, Note_on_c, 0, 69, 0
2, 63213, Control_c, 0, 64, 0
2, 63227, Control_c, 0, 64, 127
2, 63240, Note_on_c, 0, 71, 88
2, 63241, Note_on_c, 0, 72, 0
2, 63251, Control_c, 0, 64, 0
2, 63266, Control_c, 0, 64, 127
2, 63269, Note_on_c, 0, 71, 0
2, 63270, Note_on_c, 0, 74, 74
2, 63293, Control_c, 0, 64, 0
2, 63300, Note_on_c, 0, 74, 0
2, 63300, Note_on_c, 0, 72, 79
2, 63312, Control_c, 0, 64, 127
2, 63330, Note_on_c, 0, 76, 83
2, 63331, Note_on_c, 0, 72, 0
2, 63345, Control_c, 0, 64, 0
2, 63360, Note_on_c, 0, 76, 0
2, 63360, Note_on_c, 0, 74, 93
2, 63367, Control_c, 0, 64, 127
2, 63472, Control_c, 0, 64, 0
2, 63480, Note_on_c, 0, 74, 0
2, 63600, Note_on_c, 0, 71, 79
2, 63605, Control_c, 0, 64, 127
2, 63628, Control_c, 0, 64, 0
2, 63630, Note_on_c, 0, 74, 83
2, 63631, Note_on_c, 0, 71, 0
2, 63644, Control_c, 0, 64, 127
2, 63659, Note_on_c, 0, 74, 0
2, 63660, Note_on_c, 0, 72, 79
2, 63666, Control_c, 0, 64, 0
2, 63683, Control_c, 0, 64, 127
2, 63690, Note_on_c, 0, 76, 79
2, 63691, Note_on_c, 0, 72, 0
2, 63705, Control_c, 0, 64, 0
2, 63719, Note_on_c, 0, 76, 0
2, 63720, Note_on_c, 0, 74, 83
2, 63725, Control_c, 0, 64, 127
2, 63749, Note_on_c, 0, 74, 0
2, 63750, Note_on_c, 0, 77, 88
2, 63751, Control_c, 0, 64, 0
2, 63769, Control_c, 0, 64, 127
2, 63780, Note_on_c, 0, 76, 74
2, 63782, Note_on_c, 0, 77, 0
2, 63787, Control_c, 0, 64, 0
2, 63804, Control_c, 0, 64, 127
2, 63808, Note_on_c, 0, 76, 0
2, 63810, Note_on_c, 0, 79, 68
2, 63827, Control_c, 0, 64, 0
2, 63840, Note_on_c, 0, 77, 97
2, 63842, Note_on_c, 0, 79, 0
2, 63854, Control_c, 0, 64, 127
2, 63946, Note_on_c, 0, 77, 0
2, 63949, Control_c, 0, 64, 0
2, 64080, Note_on_c, 0, 77, 102
2, 64088, Control_c, 0, 64, 127
2, 64110, Note_on_c, 0, 74, 93
2, 64112, Note_on_c, 0, 77, 0
2, 64114, Control_c, 0, 64, 0
2, 64140, Note_on_c, 0, 76, 107
2, 64141, Note_on_c, 0, 74, 0
2, 64143, Control_c, 0, 64, 127
2, 64169, Note_on_c, 0, 76, 0
2, 64170, Note_on_c, 0, 77, 83
2, 64197, Control_c, 0, 64, 0
2, 64200, Note_on_c, 0, 79, 97
2, 64201, Note_on_c, 0, 77, 0
2, 64216, Control_c, 0, 64, 127
2, 64230, Note_on_c, 0, 81, 102
2, 64236, Control_c, 0, 64, 0
2, 64238, Note_on_c, 0, 79, 0
2, 64254, Control_c, 0, 64, 127
2, 64258, Note_on_c, 0, 81, 0
2, 64260, Note_on_c, 0, 83, 97
2, 64290, Note_on_c, 0, 84, 93
2, 64292, Note_on_c, 0, 83, 0
2, 64312, Control_c, 0, 64, 0
2, 64314, Note_on_c, 0, 84, 0
2, 64320, Note_on_c, 0, 71, 97
2, 64320, Note_on_c, 0, 67, 79
2, 64320, Note_on_c, 0, 83, 102
2, 64320, Note_on_c, 0, 77, 79
2, 64320, Note_on_c, 0, 74, 83
2, 64338, Control_c, 0, 64, 127
2, 64346, Note_on_c, 0, 83, 0
2, 64350, Note_on_c, 0, 81, 79
2, 64354, Control_c, 0, 64, 0
2, 64376, Note_on_c, 0, 81, 0
2, 64380, Note_on_c, 0, 79, 93
2, 64395, Control_c, 0, 64, 127
2, 64407, Note_on_c, 0, 79, 0
2, 64410, Note_on_c, 0, 78, 79
2, 64438, Note_on_c, 0, 78, 0
2, 64440, Note_on_c, 0, 79, 97
2, 64446, Control_c, 0, 64, 0
2, 64470, Note_on_c, 0, 81, 102
2, 64474, Note_on_c, 0, 79, 0
2, 64500, Note_on_c, 0, 81, 0
2, 64500, Note_on_c, 0, 83, 102
2, 64512, Control_c, 0, 64, 127
2, 64528, Note_on_c, 0, 83, 0
2, 64530, Note_on_c, 0, 84, 97
2, 64560, Note_on_c, 0, 84, 0
2, 64560, Note_on_c, 0, 86, 97
2, 64561, Control_c, 0, 64, 0
2, 64588, Note_on_c, 0, 86, 0
2, 64590, Note_on_c, 0, 84, 83
2, 64620, Note_on_c, 0, 83, 88
2, 64621, Note_on_c, 0, 84, 0
2, 64635, Control_c, 0, 64, 127
2, 64650, Note_on_c, 0, 81, 97
2, 64654, Note_on_c, 0, 83, 0
2, 64661, Note_on_c, 0, 81, 0
2, 64680, Note_on_c, 0, 83, 102
2, 64686, Control_c, 0, 64, 0
2, 64707, Note_on_c, 0, 83, 0
2, 64710, Note_on_c, 0, 84, 97
2, 64732, Control_c, 0, 64, 127
2, 64737, Note_on_c, 0, 84, 0
2, 64740, Note_on_c, 0, 86, 83
2, 64760, Note_on_c, 0, 86, 0
2, 64761, Note_on_c, 0, 74, 0
2, 64762, Note_on_c, 0, 77, 0
2, 64762, Note_on_c, 0, 71, 0
2, 64764, Note_on_c, 0, 67, 0
2, 64770, Note_on_c, 0, 88, 93
2, 64783, Note_on_c, 0, 88, 0
2, 64795, Control_c, 0, 64, 0
2, 64800, Note_on_c, 0, 67, 83
2, 64800, Note_on_c, 0, 77, 88
2, 64800, Note_on_c, 0, 89, 112
2, 64800, Note_on_c, 0, 71, 107
2, 64800, Note_on_c, 0, 74, 93
2, 64827, Control_c, 0, 64, 127
2, 64829, Note_on_c, 0, 89, 0
2, 64830, Note_on_c, 0, 86, 79
2, 64854, Note_on_c, 0, 86, 0
2, 64860, Note_on_c, 0, 83, 88
2, 64870, Control_c, 0, 64, 0
2, 64882, Note_on_c, 0, 74, 0
2, 64882, Note_on_c, 0, 71, 0
2, 64882, Note_on_c, 0, 77, 0
2, 64884, Note_on_c, 0, 83, 0
2, 64886, Note_on_c, 0, 67, 0
2, 64890, Note_on_c, 0, 86, 93
2, 64920, Note_on_c, 0, 89, 93
2, 64923, Note_on_c, 0, 86, 0
2, 64950, Note_on_c, 0, 89, 0
2, 64950, Note_on_c, 0, 86, 97
2, 64978, Note_on_c, 0, 86, 0
2, 64980, Note_on_c, 0, 89, 102
2, 65007, Note_on_c, 0, 89, 0
2, 65010, Note_on_c, 0, 86, 83
2, 65035, Note_on_c, 0, 86, 0
2, 65040, Note_on_c, 0, 89, 102
2, 65040, Note_on_c, 0, 67, 97
2, 65040, Note_on_c, 0, 71, 102
2, 65040, Note_on_c, 0, 77, 97
2, 65040, Note_on_c, 0, 74, 93
2, 65053, Control_c, 0, 64, 127
2, 65060, Control_c, 0, 64, 0
2, 65070, Note_on_c, 0, 86, 70
2, 65071, Note_on_c, 0, 89, 0
2, 65099, Note_on_c, 0, 86, 0
2, 65100, Note_on_c, 0, 83, 93
2, 65101, Note_on_c, 0, 77, 0
2, 65102, Note_on_c, 0, 74, 0
2, 65102, Note_on_c, 0, 71, 0
2, 65106, Note_on_c, 0, 67, 0
2, 65129, Note_on_c, 0, 83, 0
2, 65130, Note_on_c, 0, 86, 93
2, 65158, Note_on_c, 0, 86, 0
2, 65160, Note_on_c, 0, 89, 97
2, 65190, Note_on_c, 0, 86, 97
2, 65192, Note_on_c, 0, 89, 0
2, 65218, Note_on_c, 0, 86, 0
2, 65220, Note_on_c, 0, 89, 83
2, 65248, Note_on_c, 0, 89, 0
2, 65250, Note_on_c, 0, 86, 83
2, 65269, Note_on_c, 0, 86, 0
2, 65280, Note_on_c, 0, 67, 88
2, 65280, Note_on_c, 0, 89, 112
2, 65280, Note_on_c, 0, 71, 97
2, 65280, Note_on_c, 0, 77, 83
2, 65280, Note_on_c, 0, 74, 88
2, 65293, Control_c, 0, 64, 127
2, 65310, Note_on_c, 0, 89, 0
2, 65310, Note_on_c, 0, 88, 97
2, 65334, Control_c, 0, 64, 0
2, 65340, Note_on_c, 0, 88, 0
2, 65340, Note_on_c, 0, 86, 97
2, 65352, Control_c, 0, 64, 127
2, 65370, Note_on_c, 0, 84, 83
2, 65371, Note_on_c, 0, 86, 0
2, 65381, Note_on_c, 0, 74, 0
2, 65381, Note_on_c, 0, 77, 0
2, 65383, Note_on_c, 0, 71, 0
2, 65386, Note_on_c, 0, 67, 0
2, 65400, Note_on_c, 0, 83, 83
2, 65401, Control_c, 0, 64, 0
2, 65403, Note_on_c, 0, 84, 0
2, 65430, Note_on_c, 0, 83, 0
2, 65430, Note_on_c, 0, 81, 74
2, 65460, Note_on_c, 0, 81, 0
2, 65460, Note_on_c, 0, 79, 83
2, 65471, Control_c, 0, 64, 127
2, 65489, Note_on_c, 0, 79, 0
2, 65490, Note_on_c, 0, 78, 66
2, 65509, Control_c, 0, 64, 0
2, 65518, Note_on_c, 0, 78, 0
2, 65520, Note_on_c, 0, 79, 79
2, 65548, Note_on_c, 0, 79, 0
2, 65550, Note_on_c, 0, 78, 66
2, 65580, Note_on_c, 0, 79, 93
2, 65582, Note_on_c, 0, 78, 0
2, 65584, Control_c, 0, 64, 127
2, 65606, Control_c, 0, 64, 0
2, 65607, Note_on_c, 0, 79, 0
2, 65610, Note_on_c, 0, 81, 97
2, 65640, Note_on_c, 0, 79, 74
2, 65644, Note_on_c, 0, 81, 0
2, 65669, Note_on_c, 0, 79, 0
2, 65670, Note_on_c, 0, 77, 64
2, 65700, Note_on_c, 0, 77, 0
2, 65700, Note_on_c, 0, 76, 61
2, 65711, Control_c, 0, 64, 127
2, 65727, Note_on_c, 0, 76, 0
2, 65730, Note_on_c, 0, 74, 62
2, 65759, Note_on_c, 0, 74, 0
2, 65760, Note_on_c, 0, 72, 93
2, 65760, Note_on_c, 0, 60, 98
2, 65801, Control_c, 0, 64, 127
2, 65964, Note_on_c, 0, 60, 0
2, 65966, Note_on_c, 0, 72, 0
2, 65970, Note_on_c, 0, 55, 89
2, 65970, Note_on_c, 0, 67, 89
2, 65996, Control_c, 0, 64, 0
2, 66000, Note_on_c, 0, 67, 0
2, 66000, Note_on_c, 0, 64, 102
2, 66000, Note_on_c, 0, 76, 102
2, 66002, Note_on_c, 0, 55, 0
2, 66055, Control_c, 0, 64, 127
2, 66201, Note_on_c, 0, 76, 0
2, 66204, Note_on_c, 0, 64, 0
2, 66210, Note_on_c, 0, 60, 85
2, 66210, Note_on_c, 0, 72, 98
2, 66239, Control_c, 0, 64, 0
2, 66240, Note_on_c, 0, 79, 102
2, 66240, Note_on_c, 0, 67, 89
2, 66241, Note_on_c, 0, 72, 0
2, 66244, Note_on_c, 0, 60, 0
2, 66255, Note_on_c, 0, 79, 0
2, 66261, Note_on_c, 0, 67, 0
2, 66300, Note_on_c, 0, 76, 93
2, 66300, Note_on_c, 0, 64, 93
2, 66315, Note_on_c, 0, 64, 0
2, 66315, Note_on_c, 0, 76, 0
2, 66360, Note_on_c, 0, 81, 107
2, 66360, Note_on_c, 0, 69, 107
2, 66407, Control_c, 0, 64, 127
2, 66532, Note_on_c, 0, 69, 0
2, 66534, Note_on_c, 0, 81, 0
2, 66540, Note_on_c, 0, 79, 93
2, 66540, Note_on_c, 0, 67, 93
2, 66540, Control_c, 0, 64, 0
2, 66600, Note_on_c, 0, 65, 85
2, 66600, Note_on_c, 0, 77, 89
2, 66606, Note_on_c, 0, 67, 0
2, 66610, Note_on_c, 0, 79, 0
2, 66660, Note_on_c, 0, 64, 85
2, 66660, Note_on_c, 0, 76, 93
2, 66661, Note_on_c, 0, 65, 0
2, 66661, Note_on_c, 0, 77, 0
2, 66720, Note_on_c, 0, 65, 89
2, 66720, Note_on_c, 0, 77, 98
2, 66722, Note_on_c, 0, 64, 0
2, 66722, Note_on_c, 0, 76, 0
2, 66762, Control_c, 0, 64, 127
2, 66780, Note_on_c, 0, 74, 93
2, 66780, Note_on_c, 0, 62, 89
2, 66781, Note_on_c, 0, 77, 0
2, 66781, Control_c, 0, 64, 0
2, 66784, Note_on_c, 0, 65, 0
2, 66840, Note_on_c, 0, 79, 93
2, 66840, Note_on_c, 0, 67, 89
2, 66842, Note_on_c, 0, 62, 0
2, 66843, Note_on_c, 0, 74, 0
2, 66891, Control_c, 0, 64, 127
2, 67018, Note_on_c, 0, 79, 0
2, 67018, Note_on_c, 0, 67, 0
2, 67020, Note_on_c, 0, 77, 102
2, 67020, Note_on_c, 0, 65, 85
2, 67022, Control_c, 0, 64, 0
2, 67080, Note_on_c, 0, 65, 0
2, 67080, Note_on_c, 0, 64, 85
2, 67080, Note_on_c, 0, 76, 89
2, 67084, Note_on_c, 0, 77, 0
2, 67139, Note_on_c, 0, 76, 0
2, 67140, Note_on_c, 0, 64, 0
2, 67140, Note_on_c, 0, 74, 89
2, 67140, Note_on_c, 0, 62, 76
2, 67160, Control_c, 0, 64, 127
2, 67195, Control_c, 0, 64, 0
2, 67199, Note_on_c, 0, 74, 0
2, 67200, Note_on_c, 0, 62, 0
2, 67200, Note_on_c, 0, 64, 93
2, 67200, Note_on_c, 0, 76, 89
2, 67243, Control_c, 0, 64, 127
2, 67254, Control_c, 0, 64, 0
2, 67260, Note_on_c, 0, 72, 85
2, 67260, Note_on_c, 0, 60, 80
2, 67263, Note_on_c, 0, 76, 0
2, 67266, Note_on_c, 0, 64, 0
2, 67320, Note_on_c, 0, 72, 0
2, 67320, Note_on_c, 0, 60, 0
2, 67320, Note_on_c, 0, 77, 89
2, 67320, Note_on_c, 0, 65, 80
2, 67349, Control_c, 0, 64, 127
2, 67378, Control_c, 0, 64, 0
2, 67380, Note_on_c, 0, 62, 89
2, 67380, Note_on_c, 0, 74, 93
2, 67381, Note_on_c, 0, 65, 0
2, 67382, Note_on_c, 0, 77, 0
2, 67412, Control_c, 0, 64, 127
2, 67440, Note_on_c, 0, 59, 72
2, 67440, Note_on_c, 0, 71, 89
2, 67441, Note_on_c, 0, 62, 0
2, 67441, Note_on_c, 0, 74, 0
2, 67442, Control_c, 0, 64, 0
2, 67481, Control_c, 0, 64, 127
2, 67499, Note_on_c, 0, 59, 0
2, 67499, Note_on_c, 0, 71, 0
2, 67499, Control_c, 0, 64, 0
2, 67500, Note_on_c, 0, 67, 93
2, 67500, Note_on_c, 0, 55, 85
2, 67537, Control_c, 0, 64, 127
2, 67560, Note_on_c, 0, 69, 93
2, 67560, Note_on_c, 0, 57, 80
2, 67562, Note_on_c, 0, 55, 0
2, 67562, Note_on_c, 0, 67, 0
2, 67565, Control_c, 0, 64, 0
2, 67599, Control_c, 0, 64, 127
2, 67611, Control_c, 0, 64, 0
2, 67620, Note_on_c, 0, 71, 98
2, 67620, Note_on_c, 0, 59, 89
2, 67621, Note_on_c, 0, 69, 0
2, 67621, Note_on_c, 0, 57, 0
2, 67654, Control_c, 0, 64, 127
2, 67670, Control_c, 0, 64, 0
2, 67680, Note_on_c, 0, 60, 85
2, 67680, Note_on_c, 0, 72, 98
2, 67681, Note_on_c, 0, 71, 0
2, 67681, Note_on_c, 0, 59, 0
2, 67713, Control_c, 0, 64, 127
2, 67797, Control_c, 0, 64, 0
2, 67803, Note_on_c, 0, 60, 0
2, 67803, Note_on_c, 0, 72, 0
2, 68940, Note_on_c, 0, 79, 80
2, 68998, Note_on_c, 0, 79, 0
2, 69000, Note_on_c, 0, 88, 85
2, 69059, Note_on_c, 0, 88, 0
2, 69060, Note_on_c, 0, 84, 80
2, 69070, Control_c, 0, 64, 127
2, 69088, Note_on_c, 0, 84, 0
2, 69107, Control_c, 0, 64, 0
2, 69120, Note_on_c, 0, 84, 102
2, 69120, Note_on_c, 0, 67, 93
2, 69120, Note_on_c, 0, 77, 80
2, 69120, Note_on_c, 0, 74, 89
2, 69150, Note_on_c, 0, 83, 64
2, 69155, Note_on_c, 0, 84, 0
2, 69180, Note_on_c, 0, 81, 55
2, 69184, Note_on_c, 0, 83, 0
2, 69210, Note_on_c, 0, 81, 0
2, 69210, Note_on_c, 0, 79, 64
2, 69240, Note_on_c, 0, 79, 0
2, 69240, Note_on_c, 0, 78, 60
2, 69268, Note_on_c, 0, 78, 0
2, 69270, Note_on_c, 0, 79, 52
2, 69300, Note_on_c, 0, 78, 62
2, 69301, Note_on_c, 0, 79, 0
2, 69328, Note_on_c, 0, 78, 0
2, 69330, Note_on_c, 0, 79, 64
2, 69360, Note_on_c, 0, 78, 72
2, 69362, Note_on_c, 0, 79, 0
2, 69390, Note_on_c, 0, 79, 76
2, 69391, Note_on_c, 0, 78, 0
2, 69420, Note_on_c, 0, 79, 0
2, 69420, Note_on_c, 0, 78, 72
2, 69450, Note_on_c, 0, 79, 85
2, 69451, Note_on_c, 0, 78, 0
2, 69480, Note_on_c, 0, 78, 62
2, 69481, Note_on_c, 0, 79, 0
2, 69510, Note_on_c, 0, 79, 85
2, 69512, Note_on_c, 0, 78, 0
2, 69540, Note_on_c, 0, 81, 93
2, 69541, Note_on_c, 0, 79, 0
2, 69565, Note_on_c, 0, 81, 0
2, 69570, Note_on_c, 0, 83, 80
2, 69573, Note_on_c, 0, 77, 0
2, 69577, Note_on_c, 0, 67, 0
2, 69579, Note_on_c, 0, 74, 0
2, 69598, Note_on_c, 0, 83, 0
2, 69600, Note_on_c, 0, 84, 76
2, 69600, Note_on_c, 0, 76, 64
2, 69600, Note_on_c, 0, 72, 64
2, 69625, Note_on_c, 0, 84, 0
2, 69660, Note_on_c, 0, 84, 80
2, 69670, Note_on_c, 0, 72, 0
2, 69670, Note_on_c, 0, 76, 0
2, 69671, Note_on_c, 0, 84, 0
2, 69690, Note_on_c, 0, 79, 56
2, 69707, Note_on_c, 0, 79, 0
2, 69720, Note_on_c, 0, 86, 93
2, 69720, Note_on_c, 0, 71, 55
2, 69720, Note_on_c, 0, 67, 60
2, 69741, Note_on_c, 0, 86, 0
2, 69744, Note_on_c, 0, 71, 0
2, 69747, Note_on_c, 0, 67, 0
2, 69780, Note_on_c, 0, 86, 80
2, 69800, Note_on_c, 0, 86, 0
2, 69810, Note_on_c, 0, 79, 64
2, 69826, Note_on_c, 0, 79, 0
2, 69840, Note_on_c, 0, 88, 80
2, 69840, Note_on_c, 0, 72, 55
2, 69856, Control_c, 0, 64, 127
2, 69904, Note_on_c, 0, 72, 0
2, 69904, Control_c, 0, 64, 0
2, 69906, Note_on_c, 0, 88, 0
2, 70860, Control_c, 0, 64, 127
2, 70860, Note_on_c, 0, 79, 76
2, 70920, Note_on_c, 0, 79, 0
2, 70920, Note_on_c, 0, 88, 64
2, 70927, Control_c, 0, 64, 0
2, 70949, Control_c, 0, 64, 127
2, 70978, Note_on_c, 0, 88, 0
2, 70980, Note_on_c, 0, 84, 80
2, 70995, Note_on_c, 0, 84, 0
2, 71038, Control_c, 0, 64, 0
2, 71040, Note_on_c, 0, 84, 102
2, 71040, Note_on_c, 0, 67, 80
2, 71040, Note_on_c, 0, 77, 68
2, 71040, Note_on_c, 0, 74, 76
2, 71070, Note_on_c, 0, 83, 64
2, 71079, Note_on_c, 0, 84, 0
2, 71100, Note_on_c, 0, 83, 0
2, 71100, Note_on_c, 0, 81, 62
2, 71128, Note_on_c, 0, 81, 0
2, 71130, Note_on_c, 0, 79, 60
2, 71160, Note_on_c, 0, 78, 56
2, 71161, Note_on_c, 0, 79, 0
2, 71189, Note_on_c, 0, 78, 0
2, 71190, Note_on_c, 0, 79, 57
2, 71219, Note_on_c, 0, 79, 0
2, 71220, Note_on_c, 0, 78, 62
2, 71250, Note_on_c, 0, 79, 64
2, 71251, Note_on_c, 0, 78, 0
2, 71280, Note_on_c, 0, 78, 76
2, 71283, Note_on_c, 0, 79, 0
2, 71310, Note_on_c, 0, 79, 85
2, 71311, Note_on_c, 0, 78, 0
2, 71340, Note_on_c, 0, 78, 76
2, 71341, Note_on_c, 0, 79, 0
2, 71370, Note_on_c, 0, 79, 80
2, 71371, Note_on_c, 0, 78, 0
2, 71400, Note_on_c, 0, 78, 85
2, 71402, Note_on_c, 0, 79, 0
2, 71430, Note_on_c, 0, 79, 89
2, 71431, Note_on_c, 0, 78, 0
2, 71460, Note_on_c, 0, 81, 93
2, 71461, Note_on_c, 0, 79, 0
2, 71478, Control_c, 0, 64, 127
2, 71490, Note_on_c, 0, 81, 0
2, 71490, Note_on_c, 0, 83, 85
2, 71494, Note_on_c, 0, 67, 0
2, 71495, Note_on_c, 0, 77, 0
2, 71500, Note_on_c, 0, 74, 0
2, 71513, Control_c, 0, 64, 0
2, 71520, Note_on_c, 0, 83, 0
2, 71520, Note_on_c, 0, 84, 85
2, 71520, Note_on_c, 0, 72, 62
2, 71520, Note_on_c, 0, 76, 62
2, 71565, Control_c, 0, 64, 127
2, 71630, Control_c, 0, 64, 0
2, 71631, Note_on_c, 0, 76, 0
2, 71633, Note_on_c, 0, 72, 0
2, 71634, Note_on_c, 0, 84, 0
2, 71820, Note_on_c, 0, 79, 76
2, 71879, Note_on_c, 0, 79, 0
2, 71880, Note_on_c, 0, 88, 68
2, 71938, Note_on_c, 0, 88, 0
2, 71940, Note_on_c, 0, 84, 72
2, 71986, Note_on_c, 0, 84, 0
2, 72000, Note_on_c, 0, 67, 89
2, 72000, Note_on_c, 0, 74, 89
2, 72000, Note_on_c, 0, 77, 89
2, 72000, Note_on_c, 0, 84, 102
2, 72030, Note_on_c, 0, 83, 85
2, 72040, Note_on_c, 0, 84, 0
2, 72060, Note_on_c, 0, 81, 64
2, 72061, Note_on_c, 0, 83, 0
2, 72089, Note_on_c, 0, 81, 0
2, 72090, Note_on_c, 0, 79, 72
2, 72119, Note_on_c, 0, 79, 0
2, 72120, Note_on_c, 0, 78, 57
2, 72150, Note_on_c, 0, 79, 57
2, 72151, Note_on_c, 0, 78, 0
2, 72180, Note_on_c, 0, 78, 62
2, 72181, Note_on_c, 0, 79, 0
2, 72209, Note_on_c, 0, 78, 0
2, 72210, Note_on_c, 0, 79, 49
2, 72239, Note_on_c, 0, 79, 0
2, 72240, Note_on_c, 0, 78, 64
2, 72269, Note_on_c, 0, 78, 0
2, 72270, Note_on_c, 0, 79, 56
2, 72298, Note_on_c, 0, 79, 0
2, 72300, Note_on_c, 0, 78, 57
2, 72330, Note_on_c, 0, 79, 62
2, 72333, Note_on_c, 0, 78, 0
2, 72358, Note_on_c, 0, 79, 0
2, 72360, Note_on_c, 0, 78, 62
2, 72390, Note_on_c, 0, 79, 64
2, 72391, Note_on_c, 0, 78, 0
2, 72419, Note_on_c, 0, 79, 0
2, 72420, Note_on_c, 0, 81, 62
2, 72450, Note_on_c, 0, 81, 0
2, 72450, Note_on_c, 0, 83, 62
2, 72472, Note_on_c, 0, 77, 0
2, 72475, Note_on_c, 0, 67, 0
2, 72478, Note_on_c, 0, 74, 0
2, 72479, Note_on_c, 0, 83, 0
2, 72480, Note_on_c, 0, 84, 76
2, 72480, Note_on_c, 0, 76, 55
2, 72480, Note_on_c, 0, 72, 56
2, 72545, Control_c, 0, 64, 127
2, 72587, Note_on_c, 0, 72, 0
2, 72588, Control_c, 0, 64, 0
2, 72591, Note_on_c, 0, 84, 0
2, 72592, Note_on_c, 0, 76, 0
2, 72720, Note_on_c, 0, 79, 85
2, 72720, Note_on_c, 0, 74, 68
2, 72720, Note_on_c, 0, 77, 76
2, 72750, Note_on_c, 0, 81, 76
2, 72753, Note_on_c, 0, 79, 0
2, 72763, Control_c, 0, 64, 127
2, 72780, Note_on_c, 0, 83, 89
2, 72781, Note_on_c, 0, 81, 0
2, 72808, Note_on_c, 0, 83, 0
2, 72810, Note_on_c, 0, 84, 89
2, 72838, Control_c, 0, 64, 0
2, 72839, Note_on_c, 0, 84, 0
2, 72840, Note_on_c, 0, 86, 76
2, 72845, Note_on_c, 0, 77, 0
2, 72845, Note_on_c, 0, 74, 0
2, 72870, Note_on_c, 0, 88, 76
2, 72873, Note_on_c, 0, 86, 0
2, 72900, Note_on_c, 0, 89, 80
2, 72901, Note_on_c, 0, 88, 0
2, 72930, Note_on_c, 0, 83, 68
2, 72933, Note_on_c, 0, 89, 0
2, 72960, Note_on_c, 0, 83, 0
2, 72960, Note_on_c, 0, 84, 85
2, 72960, Note_on_c, 0, 76, 55
2, 72960, Note_on_c, 0, 72, 62
2, 72995, Control_c, 0, 64, 127
2, 73037, Note_on_c, 0, 72, 0
2, 73037, Note_on_c, 0, 84, 0
2, 73039, Note_on_c, 0, 76, 0
2, 73039, Control_c, 0, 64, 0
2, 73200, Note_on_c, 0, 79, 98
2, 73200, Note_on_c, 0, 74, 64
2, 73200, Note_on_c, 0, 77, 72
2, 73225, Control_c, 0, 64, 127
2, 73230, Note_on_c, 0, 81, 85
2, 73233, Note_on_c, 0, 79, 0
2, 73260, Note_on_c, 0, 81, 0
2, 73260, Note_on_c, 0, 83, 85
2, 73286, Note_on_c, 0, 83, 0
2, 73290, Note_on_c, 0, 84, 85
2, 73309, Note_on_c, 0, 77, 0
2, 73312, Note_on_c, 0, 74, 0
2, 73315, Control_c, 0, 64, 0
2, 73320, Note_on_c, 0, 84, 0
2, 73320, Note_on_c, 0, 86, 89
2, 73350, Note_on_c, 0, 88, 89
2, 73352, Note_on_c, 0, 86, 0
2, 73379, Note_on_c, 0, 88, 0
2, 73380, Note_on_c, 0, 89, 76
2, 73410, Note_on_c, 0, 89, 0
2, 73410, Note_on_c, 0, 83, 64
2, 73440, Note_on_c, 0, 84, 85
2, 73440, Note_on_c, 0, 76, 64
2, 73440, Note_on_c, 0, 72, 72
2, 73443, Note_on_c, 0, 83, 0
2, 73450, Note_on_c, 0, 84, 0
2, 73515, Note_on_c, 0, 86, 76
2, 73530, Note_on_c, 0, 84, 62
2, 73533, Note_on_c, 0, 86, 0
2, 73545, Note_on_c, 0, 83, 60
2, 73546, Note_on_c, 0, 84, 0
2, 73560, Note_on_c, 0, 84, 65
2, 73566, Note_on_c, 0, 83, 0
2, 73619, Note_on_c, 0, 84, 0
2, 73620, Note_on_c, 0, 88, 76
2, 73680, Note_on_c, 0, 88, 0
2, 73680, Note_on_c, 0, 76, 0
2, 73680, Note_on_c, 0, 74, 72
2, 73680, Note_on_c, 0, 81, 80
2, 73694, Note_on_c, 0, 81, 0
2, 73755, Note_on_c, 0, 83, 72
2, 73770, Note_on_c, 0, 81, 62
2, 73771, Note_on_c, 0, 83, 0
2, 73785, Note_on_c, 0, 80, 62
2, 73789, Note_on_c, 0, 81, 0
2, 73800, Note_on_c, 0, 81, 76
2, 73805, Note_on_c, 0, 80, 0
2, 73855, Note_on_c, 0, 81, 0
2, 73860, Note_on_c, 0, 84, 64
2, 73905, Note_on_c, 0, 74, 0
2, 73909, Note_on_c, 0, 84, 0
2, 73911, Note_on_c, 0, 72, 0
2, 73920, Note_on_c, 0, 72, 57
2, 73920, Note_on_c, 0, 76, 80
2, 73920, Note_on_c, 0, 67, 60
2, 73920, Note_on_c, 0, 72, 60
2, 73935, Note_on_c, 0, 76, 0
2, 73995, Note_on_c, 0, 77, 64
2, 74010, Note_on_c, 0, 76, 70
2, 74014, Note_on_c, 0, 77, 0
2, 74025, Note_on_c, 0, 74, 65
2, 74026, Note_on_c, 0, 72, 0
2, 74027, Note_on_c, 0, 67, 0
2, 74028, Note_on_c, 0, 76, 0
2, 74037, Note_on_c, 0, 74, 0
2, 74040, Note_on_c, 0, 76, 72
2, 74040, Note_on_c, 0, 64, 80
2, 74040, Note_on_c, 0, 67, 68
2, 74100, Note_on_c, 0, 79, 76
2, 74101, Note_on_c, 0, 76, 0
2, 74108, Note_on_c, 0, 72, 0
2, 74112, Control_c, 0, 64, 127
2, 74126, Note_on_c, 0, 79, 0
2, 74153, Note_on_c, 0, 64, 0
2, 74160, Note_on_c, 0, 65, 50
2, 74160, Note_on_c, 0, 71, 80
2, 74168, Control_c, 0, 64, 0
2, 74174, Note_on_c, 0, 71, 0
2, 74235, Note_on_c, 0, 72, 56
2, 74249, Note_on_c, 0, 72, 0
2, 74250, Note_on_c, 0, 71, 62
2, 74265, Note_on_c, 0, 69, 72
2, 74268, Note_on_c, 0, 71, 0
2, 74280, Note_on_c, 0, 69, 0
2, 74280, Note_on_c, 0, 71, 80
2, 74280, Note_on_c, 0, 62, 89
2, 74281, Note_on_c, 0, 65, 0
2, 74313, Control_c, 0, 64, 127
2, 74330, Note_on_c, 0, 67, 0
2, 74334, Note_on_c, 0, 62, 0
2, 74335, Note_on_c, 0, 71, 0
2, 74340, Note_on_c, 0, 74, 93
2, 74351, Note_on_c, 0, 74, 0
2, 74399, Control_c, 0, 64, 0
2, 74400, Note_on_c, 0, 60, 89
2, 74400, Note_on_c, 0, 72, 107
2, 74449, Control_c, 0, 64, 127
2, 74610, Note_on_c, 0, 55, 93
2, 74610, Note_on_c, 0, 67, 93
2, 74617, Note_on_c, 0, 72, 0
2, 74618, Note_on_c, 0, 60, 0
2, 74638, Note_on_c, 0, 67, 0
2, 74640, Note_on_c, 0, 55, 0
2, 74640, Note_on_c, 0, 64, 93
2, 74640, Note_on_c, 0, 76, 102
2, 74642, Control_c, 0, 64, 0
2, 74691, Control_c, 0, 64, 127
2, 74839, Control_c, 0, 64, 0
2, 74846, Note_on_c, 0, 76, 0
2, 74848, Note_on_c, 0, 64, 0
2, 74850, Note_on_c, 0, 60, 80
2, 74850, Note_on_c, 0, 72, 85
2, 74855, Control_c, 0, 64, 127
2, 74874, Note_on_c, 0, 72, 0
2, 74879, Note_on_c, 0, 60, 0
2, 74880, Note_on_c, 0, 79, 102
2, 74880, Note_on_c, 0, 67, 89
2, 74882, Control_c, 0, 64, 0
2, 74894, Note_on_c, 0, 79, 0
2, 74902, Note_on_c, 0, 67, 0
2, 74940, Note_on_c, 0, 64, 89
2, 74940, Note_on_c, 0, 76, 93
2, 74953, Note_on_c, 0, 76, 0
2, 74956, Note_on_c, 0, 64, 0
2, 75000, Note_on_c, 0, 81, 102
2, 75000, Note_on_c, 0, 69, 98
2, 75006, Control_c, 0, 64, 127
2, 75065, Note_on_c, 0, 81, 0
2, 75068, Note_on_c, 0, 69, 0
2, 75073, Control_c, 0, 64, 0
2, 75180, Note_on_c, 0, 79, 102
2, 75180, Note_on_c, 0, 67, 93
2, 75194, Note_on_c, 0, 79, 0
2, 75201, Note_on_c, 0, 67, 0
2, 75240, Note_on_c, 0, 77, 89
2, 75240, Note_on_c, 0, 65, 93
2, 75253, Note_on_c, 0, 77, 0
2, 75255, Note_on_c, 0, 65, 0
2, 75300, Note_on_c, 0, 76, 93
2, 75300, Note_on_c, 0, 64, 89
2, 75311, Note_on_c, 0, 76, 0
2, 75314, Note_on_c, 0, 64, 0
2, 75360, Note_on_c, 0, 77, 102
2, 75360, Note_on_c, 0, 65, 89
2, 75372, Note_on_c, 0, 77, 0
2, 75377, Note_on_c, 0, 65, 0
2, 75420, Note_on_c, 0, 74, 89
2, 75420, Note_on_c, 0, 62, 89
2, 75433, Note_on_c, 0, 74, 0
2, 75434, Note_on_c, 0, 62, 0
2, 75480, Note_on_c, 0, 79, 102
2, 75480, Note_on_c, 0, 67, 93
2, 75492, Control_c, 0, 64, 127
2, 75551, Note_on_c, 0, 79, 0
2, 75551, Control_c, 0, 64, 0
2, 75552, Note_on_c, 0, 67, 0
2, 75660, Note_on_c, 0, 65, 93
2, 75660, Note_on_c, 0, 77, 93
2, 75673, Note_on_c, 0, 77, 0
2, 75674, Note_on_c, 0, 65, 0
2, 75720, Note_on_c, 0, 64, 76
2, 75720, Note_on_c, 0, 76, 80
2, 75733, Note_on_c, 0, 76, 0
2, 75735, Note_on_c, 0, 64, 0
2, 75780, Note_on_c, 0, 74, 93
2, 75780, Note_on_c, 0, 62, 93
2, 75789, Note_on_c, 0, 74, 0
2, 75791, Note_on_c, 0, 62, 0
2, 75840, Note_on_c, 0, 72, 89
2, 75840, Note_on_c, 0, 84, 98
2, 75852, Note_on_c, 0, 84, 0
2, 75855, Note_on_c, 0, 72, 0
2, 75900, Note_on_c, 0, 73, 93
2, 75900, Note_on_c, 0, 85, 102
2, 75912, Note_on_c, 0, 73, 0
2, 75913, Note_on_c, 0, 85, 0
2, 75960, Note_on_c, 0, 86, 107
2, 75960, Note_on_c, 0, 74, 98
2, 76033, Control_c, 0, 64, 127
2, 76129, Control_c, 0, 64, 0
2, 76136, Note_on_c, 0, 74, 0
2, 76139, Note_on_c, 0, 86, 0
2, 76140, Note_on_c, 0, 72, 76
2, 76140, Note_on_c, 0, 84, 89
2, 76153, Note_on_c, 0, 84, 0
2, 76156, Note_on_c, 0, 72, 0
2, 76200, Note_on_c, 0, 70, 76
2, 76200, Note_on_c, 0, 82, 76
2, 76212, Note_on_c, 0, 82, 0
2, 76215, Note_on_c, 0, 70, 0
2, 76260, Note_on_c, 0, 81, 89
2, 76260, Note_on_c, 0, 69, 89
2, 76271, Note_on_c, 0, 81, 0
2, 76274, Note_on_c, 0, 69, 0
2, 76320, Note_on_c, 0, 70, 89
2, 76320, Note_on_c, 0, 82, 93
2, 76332, Note_on_c, 0, 82, 0
2, 76333, Note_on_c, 0, 70, 0
2, 76380, Note_on_c, 0, 67, 85
2, 76380, Note_on_c, 0, 79, 93
2, 76390, Note_on_c, 0, 79, 0
2, 76391, Note_on_c, 0, 67, 0
2, 76440, Note_on_c, 0, 84, 98
2, 76440, Note_on_c, 0, 72, 98
2, 76619, Note_on_c, 0, 72, 0
2, 76620, Note_on_c, 0, 82, 64
2, 76620, Note_on_c, 0, 70, 62
2, 76624, Note_on_c, 0, 84, 0
2, 76680, Note_on_c, 0, 81, 76
2, 76680, Note_on_c, 0, 69, 57
2, 76681, Note_on_c, 0, 82, 0
2, 76685, Note_on_c, 0, 70, 0
2, 76738, Note_on_c, 0, 69, 0
2, 76740, Note_on_c, 0, 81, 0
2, 76740, Note_on_c, 0, 67, 62
2, 76740, Note_on_c, 0, 79, 62
2, 76796, Note_on_c, 0, 67, 0
2, 76798, Note_on_c, 0, 79, 0
2, 76800, Note_on_c, 0, 69, 60
2, 76800, Note_on_c, 0, 81, 72
2, 76809, Note_on_c, 0, 81, 0
2, 76813, Note_on_c, 0, 69, 0
2, 76860, Note_on_c, 0, 65, 62
2, 76860, Note_on_c, 0, 77, 62
2, 76875, Note_on_c, 0, 77, 0
2, 76875, Note_on_c, 0, 65, 0
2, 76920, Note_on_c, 0, 82, 76
2, 76980, Note_on_c, 0, 74, 62
2, 77008, Control_c, 0, 64, 127
2, 77020, Note_on_c, 0, 74, 0
2, 77040, Note_on_c, 0, 74, 56
2, 77056, Note_on_c, 0, 74, 0
2, 77083, Note_on_c, 0, 82, 0
2, 77100, Note_on_c, 0, 81, 60
2, 77100, Note_on_c, 0, 74, 53
2, 77106, Control_c, 0, 64, 0
2, 77123, Control_c, 0, 64, 127
2, 77131, Note_on_c, 0, 74, 0
2, 77147, Note_on_c, 0, 81, 0
2, 77160, Note_on_c, 0, 79, 62
2, 77160, Note_on_c, 0, 74, 55
2, 77182, Note_on_c, 0, 74, 0
2, 77193, Note_on_c, 0, 79, 0
2, 77220, Note_on_c, 0, 78, 56
2, 77220, Note_on_c, 0, 74, 56
2, 77237, Note_on_c, 0, 78, 0
2, 77241, Note_on_c, 0, 74, 0
2, 77278, Control_c, 0, 64, 0
2, 77280, Note_on_c, 0, 81, 64
2, 77280, Note_on_c, 0, 74, 60
2, 77292, Note_on_c, 0, 74, 0
2, 77337, Note_on_c, 0, 81, 0
2, 77340, Note_on_c, 0, 79, 62
2, 77340, Note_on_c, 0, 74, 60
2, 77359, Control_c, 0, 64, 127
2, 77366, Note_on_c, 0, 74, 0
2, 77384, Note_on_c, 0, 79, 0
2, 77400, Note_on_c, 0, 79, 72
2, 77400, Note_on_c, 0, 76, 62
2, 77401, Control_c, 0, 64, 0
2, 77436, Control_c, 0, 64, 127
2, 77460, Note_on_c, 0, 76, 0
2, 77460, Note_on_c, 0, 71, 62
2, 77461, Control_c, 0, 64, 0
2, 77500, Control_c, 0, 64, 127
2, 77515, Note_on_c, 0, 71, 0
2, 77518, Control_c, 0, 64, 0
2, 77520, Note_on_c, 0, 74, 60
2, 77550, Control_c, 0, 64, 127
2, 77555, Note_on_c, 0, 74, 0
2, 77570, Note_on_c, 0, 79, 0
2, 77580, Note_on_c, 0, 79, 80
2, 77580, Note_on_c, 0, 72, 62
2, 77582, Control_c, 0, 64, 0
2, 77595, Note_on_c, 0, 78, 57
2, 77597, Note_on_c, 0, 79, 0
2, 77609, Note_on_c, 0, 78, 0
2, 77610, Note_on_c, 0, 76, 76
2, 77612, Control_c, 0, 64, 127
2, 77618, Note_on_c, 0, 72, 0
2, 77625, Note_on_c, 0, 77, 56
2, 77640, Note_on_c, 0, 77, 0
2, 77640, Note_on_c, 0, 81, 72
2, 77640, Note_on_c, 0, 72, 60
2, 77642, Note_on_c, 0, 76, 0
2, 77647, Control_c, 0, 64, 0
2, 77654, Note_on_c, 0, 81, 0
2, 77671, Note_on_c, 0, 72, 0
2, 77679, Control_c, 0, 64, 127
2, 77700, Note_on_c, 0, 72, 72
2, 77700, Note_on_c, 0, 76, 80
2, 77710, Control_c, 0, 64, 0
2, 77733, Note_on_c, 0, 72, 0
2, 77736, Note_on_c, 0, 76, 0
2, 77737, Control_c, 0, 64, 127
2, 77760, Note_on_c, 0, 79, 56
2, 77760, Note_on_c, 0, 72, 51
2, 77778, Control_c, 0, 64, 127
2, 77795, Note_on_c, 0, 72, 0
2, 77803, Note_on_c, 0, 79, 0
2, 77820, Note_on_c, 0, 77, 76
2, 77820, Note_on_c, 0, 72, 53
2, 77836, Note_on_c, 0, 72, 0
2, 77843, Note_on_c, 0, 77, 0
2, 77876, Control_c, 0, 64, 0
2, 77880, Note_on_c, 0, 77, 64
2, 77880, Note_on_c, 0, 72, 56
2, 77893, Note_on_c, 0, 77, 0
2, 77910, Control_c, 0, 64, 127
2, 77911, Note_on_c, 0, 72, 0
2, 77933, Control_c, 0, 64, 0
2, 77940, Note_on_c, 0, 72, 62
2, 77940, Note_on_c, 0, 77, 72
2, 77951, Note_on_c, 0, 77, 0
2, 77955, Note_on_c, 0, 72, 0
2, 77964, Control_c, 0, 64, 127
2, 77989, Control_c, 0, 64, 0
2, 78000, Note_on_c, 0, 79, 62
2, 78000, Note_on_c, 0, 71, 64
2, 78012, Note_on_c, 0, 79, 0
2, 78015, Note_on_c, 0, 77, 57
2, 78025, Control_c, 0, 64, 127
2, 78030, Note_on_c, 0, 77, 0
2, 78030, Note_on_c, 0, 79, 72
2, 78036, Note_on_c, 0, 71, 0
2, 78043, Note_on_c, 0, 79, 0
2, 78045, Note_on_c, 0, 77, 72
2, 78055, Control_c, 0, 64, 0
2, 78057, Note_on_c, 0, 77, 0
2, 78060, Note_on_c, 0, 76, 76
2, 78060, Note_on_c, 0, 71, 76
2, 78076, Note_on_c, 0, 76, 0
2, 78087, Control_c, 0, 64, 127
2, 78088, Note_on_c, 0, 71, 0
2, 78090, Note_on_c, 0, 77, 76
2, 78102, Note_on_c, 0, 77, 0
2, 78115, Control_c, 0, 64, 0
2, 78120, Note_on_c, 0, 79, 62
2, 78120, Note_on_c, 0, 71, 68
2, 78145, Control_c, 0, 64, 127
2, 78155, Note_on_c, 0, 71, 0
2, 78157, Note_on_c, 0, 79, 0
2, 78180, Note_on_c, 0, 77, 64
2, 78180, Note_on_c, 0, 71, 76
2, 78193, Note_on_c, 0, 77, 0
2, 78194, Note_on_c, 0, 71, 0
2, 78200, Control_c, 0, 64, 0
2, 78240, Note_on_c, 0, 72, 64
2, 78240, Note_on_c, 0, 76, 72
2, 78265, Control_c, 0, 64, 127
2, 78352, Control_c, 0, 64, 0
2, 78363, Note_on_c, 0, 76, 0
2, 78366, Note_on_c, 0, 72, 0
2, 79740, Note_on_c, 0, 74, 89
2, 79740, Note_on_c, 0, 71, 89
2, 79749, Note_on_c, 0, 71, 0
2, 79750, Note_on_c, 0, 74, 0
2, 79800, Note_on_c, 0, 76, 102
2, 79800, Note_on_c, 0, 79, 102
2, 79807, Control_c, 0, 64, 127
2, 79873, Control_c, 0, 64, 0
2, 79884, Note_on_c, 0, 79, 0
2, 79885, Note_on_c, 0, 76, 0
2, 79980, Note_on_c, 0, 74, 89
2, 79980, Note_on_c, 0, 77, 89
2, 79989, Note_on_c, 0, 74, 0
2, 79990, Note_on_c, 0, 77, 0
2, 80040, Note_on_c, 0, 76, 93
2, 80040, Note_on_c, 0, 72, 85
2, 80049, Note_on_c, 0, 76, 0
2, 80050, Note_on_c, 0, 72, 0
2, 80100, Note_on_c, 0, 71, 64
2, 80100, Note_on_c, 0, 74, 68
2, 80110, Note_on_c, 0, 71, 0
2, 80111, Note_on_c, 0, 74, 0
2, 80160, Note_on_c, 0, 76, 76
2, 80160, Note_on_c, 0, 72, 57
2, 80172, Control_c, 0, 64, 127
2, 80190, Note_on_c, 0, 72, 0
2, 80191, Note_on_c, 0, 76, 0
2, 80219, Control_c, 0, 64, 0
2, 80280, Note_on_c, 0, 84, 76
2, 80280, Note_on_c, 0, 79, 76
2, 80280, Note_on_c, 0, 76, 72
2, 80283, Control_c, 0, 64, 127
2, 80327, Note_on_c, 0, 79, 0
2, 80329, Note_on_c, 0, 84, 0
2, 80332, Note_on_c, 0, 76, 0
2, 80333, Control_c, 0, 64, 0
2, 80400, Note_on_c, 0, 77, 76
2, 80400, Note_on_c, 0, 83, 80
2, 80400, Note_on_c, 0, 79, 76
2, 80400, Note_on_c, 0, 74, 68
2, 80411, Control_c, 0, 64, 127
2, 80448, Note_on_c, 0, 79, 0
2, 80448, Note_on_c, 0, 83, 0
2, 80449, Note_on_c, 0, 77, 0
2, 80451, Control_c, 0, 64, 0
2, 80453, Note_on_c, 0, 74, 0
2, 80520, Note_on_c, 0, 84, 80
2, 80520, Note_on_c, 0, 76, 89
2, 80520, Note_on_c, 0, 79, 80
2, 80520, Note_on_c, 0, 72, 76
2, 80530, Control_c, 0, 64, 127
2, 80566, Note_on_c, 0, 79, 0
2, 80566, Note_on_c, 0, 76, 0
2, 80567, Note_on_c, 0, 84, 0
2, 80567, Note_on_c, 0, 72, 0
2, 80623, Control_c, 0, 64, 0
2, 80640, Note_on_c, 0, 67, 76
2, 80640, Note_on_c, 0, 83, 80
2, 80640, Note_on_c, 0, 79, 76
2, 80640, Note_on_c, 0, 86, 72
2, 80644, Control_c, 0, 64, 127
2, 80651, Note_on_c, 0, 86, 0
2, 80652, Note_on_c, 0, 83, 0
2, 80653, Note_on_c, 0, 79, 0
2, 80658, Note_on_c, 0, 67, 0
2, 80695, Control_c, 0, 64, 0
2, 80700, Note_on_c, 0, 74, 76
2, 80700, Note_on_c, 0, 71, 76
2, 80717, Control_c, 0, 64, 127
2, 80731, Note_on_c, 0, 71, 0
2, 80734, Note_on_c, 0, 74, 0
2, 80760, Note_on_c, 0, 79, 68
2, 80760, Note_on_c, 0, 76, 76
2, 80764, Control_c, 0, 64, 0
2, 80796, Control_c, 0, 64, 127
2, 80808, Note_on_c, 0, 79, 0
2, 80809, Note_on_c, 0, 76, 0
2, 80812, Control_c, 0, 64, 0
2, 80940, Note_on_c, 0, 74, 68
2, 80940, Note_on_c, 0, 77, 76
2, 80951, Note_on_c, 0, 74, 0
2, 80952, Note_on_c, 0, 77, 0
2, 81000, Note_on_c, 0, 72, 72
2, 81000, Note_on_c, 0, 76, 72
2, 81013, Note_on_c, 0, 76, 0
2, 81013, Note_on_c, 0, 72, 0
2, 81060, Note_on_c, 0, 71, 57
2, 81060, Note_on_c, 0, 74, 76
2, 81073, Note_on_c, 0, 71, 0
2, 81074, Note_on_c, 0, 74, 0
2, 81120, Note_on_c, 0, 72, 64
2, 81120, Note_on_c, 0, 76, 76
2, 81125, Control_c, 0, 64, 127
2, 81165, Note_on_c, 0, 72, 0
2, 81166, Note_on_c, 0, 76, 0
2, 81174, Control_c, 0, 64, 0
2, 81240, Note_on_c, 0, 84, 80
2, 81240, Note_on_c, 0, 79, 89
2, 81240, Note_on_c, 0, 76, 76
2, 81253, Control_c, 0, 64, 127
2, 81293, Note_on_c, 0, 76, 0
2, 81293, Note_on_c, 0, 79, 0
2, 81294, Note_on_c, 0, 84, 0
2, 81297, Control_c, 0, 64, 0
2, 81360, Note_on_c, 0, 77, 85
2, 81360, Note_on_c, 0, 79, 85
2, 81360, Note_on_c, 0, 83, 80
2, 81360, Note_on_c, 0, 74, 76
2, 81376, Control_c, 0, 64, 127
2, 81412, Note_on_c, 0, 83, 0
2, 81412, Note_on_c, 0, 79, 0
2, 81414, Note_on_c, 0, 77, 0
2, 81416, Note_on_c, 0, 74, 0
2, 81418, Control_c, 0, 64, 0
2, 81480, Note_on_c, 0, 72, 80
2, 81480, Note_on_c, 0, 79, 89
2, 81480, Note_on_c, 0, 84, 89
2, 81480, Note_on_c, 0, 76, 89
2, 81493, Control_c, 0, 64, 127
2, 81514, Note_on_c, 0, 76, 0
2, 81516, Note_on_c, 0, 79, 0
2, 81517, Note_on_c, 0, 72, 0
2, 81518, Note_on_c, 0, 84, 0
2, 81548, Control_c, 0, 64, 0
2, 81600, Note_on_c, 0, 67, 89
2, 81600, Note_on_c, 0, 83, 102
2, 81608, Control_c, 0, 64, 127
2, 81627, Note_on_c, 0, 83, 0
2, 81630, Note_on_c, 0, 84, 85
2, 81636, Control_c, 0, 64, 0
2, 81658, Note_on_c, 0, 84, 0
2, 81660, Note_on_c, 0, 86, 89
2, 81690, Note_on_c, 0, 84, 93
2, 81696, Note_on_c, 0, 86, 0
2, 81705, Note_on_c, 0, 67, 0
2, 81720, Note_on_c, 0, 84, 0
2, 81720, Note_on_c, 0, 83, 93
2, 81750, Note_on_c, 0, 81, 80
2, 81751, Note_on_c, 0, 83, 0
2, 81780, Note_on_c, 0, 79, 89
2, 81781, Note_on_c, 0, 81, 0
2, 81810, Note_on_c, 0, 78, 89
2, 81812, Note_on_c, 0, 79, 0
2, 81838, Note_on_c, 0, 78, 0
2, 81840, Note_on_c, 0, 79, 98
2, 81870, Note_on_c, 0, 79, 0
2, 81870, Note_on_c, 0, 83, 89
2, 81900, Note_on_c, 0, 81, 93
2, 81907, Note_on_c, 0, 83, 0
2, 81929, Note_on_c, 0, 81, 0
2, 81930, Note_on_c, 0, 79, 89
2, 81960, Note_on_c, 0, 79, 0
2, 81960, Note_on_c, 0, 78, 72
2, 81989, Note_on_c, 0, 78, 0
2, 81990, Note_on_c, 0, 76, 89
2, 82020, Note_on_c, 0, 76, 0
2, 82020, Note_on_c, 0, 74, 76
2, 82048, Note_on_c, 0, 74, 0
2, 82050, Note_on_c, 0, 73, 85
2, 82080, Note_on_c, 0, 73, 0
2, 82080, Note_on_c, 0, 74, 89
2, 82107, Note_on_c, 0, 74, 0
2, 82110, Note_on_c, 0, 76, 89
2, 82140, Note_on_c, 0, 74, 85
2, 82142, Note_on_c, 0, 76, 0
2, 82170, Note_on_c, 0, 72, 80
2, 82172, Note_on_c, 0, 74, 0
2, 82200, Note_on_c, 0, 71, 80
2, 82201, Note_on_c, 0, 72, 0
2, 82228, Note_on_c, 0, 71, 0
2, 82230, Note_on_c, 0, 69, 93
2, 82260, Note_on_c, 0, 69, 0
2, 82260, Note_on_c, 0, 67, 72
2, 82290, Note_on_c, 0, 66, 76
2, 82293, Note_on_c, 0, 67, 0
2, 82320, Note_on_c, 0, 66, 0
2, 82320, Note_on_c, 0, 67, 89
2, 82348, Note_on_c, 0, 67, 0
2, 82350, Note_on_c, 0, 71, 85
2, 82380, Note_on_c, 0, 69, 80
2, 82387, Note_on_c, 0, 71, 0
2, 82410, Note_on_c, 0, 67, 80
2, 82414, Note_on_c, 0, 69, 0
2, 82440, Note_on_c, 0, 66, 85
2, 82442, Note_on_c, 0, 67, 0
2, 82470, Note_on_c, 0, 64, 76
2, 82472, Note_on_c, 0, 66, 0
2, 82500, Note_on_c, 0, 64, 0
2, 82500, Note_on_c, 0, 62, 80
2, 82530, Note_on_c, 0, 61, 56
2, 82533, Note_on_c, 0, 62, 0
2, 82540, Control_c, 0, 64, 127
2, 82557, Note_on_c, 0, 61, 0
2, 82559, Control_c, 0, 64, 0
2, 82560, Note_on_c, 0, 62, 89
2, 82590, Note_on_c, 0, 62, 0
2, 82590, Note_on_c, 0, 64, 85
2, 82620, Note_on_c, 0, 62, 85
2, 82624, Note_on_c, 0, 64, 0
2, 82650, Note_on_c, 0, 60, 76
2, 82651, Note_on_c, 0, 62, 0
2, 82680, Note_on_c, 0, 59, 76
2, 82683, Note_on_c, 0, 60, 0
2, 82710, Note_on_c, 0, 59, 0
2, 82710, Note_on_c, 0, 57, 89
2, 82739, Note_on_c, 0, 57, 0
2, 82740, Note_on_c, 0, 55, 85
2, 82768, Note_on_c, 0, 55, 0
2, 82770, Note_on_c, 0, 54, 72
2, 82799, Note_on_c, 0, 54, 0
2, 82800, Note_on_c, 0, 55, 89
2, 82830, Note_on_c, 0, 57, 85
2, 82831, Note_on_c, 0, 55, 0
2, 82860, Note_on_c, 0, 54, 72
2, 82862, Note_on_c, 0, 57, 0
2, 82890, Note_on_c, 0, 57, 93
2, 82893, Note_on_c, 0, 54, 0
2, 82920, Note_on_c, 0, 55, 85
2, 82922, Note_on_c, 0, 57, 0
2, 82948, Note_on_c, 0, 55, 0
2, 82950, Note_on_c, 0, 57, 72
2, 82980, Note_on_c, 0, 54, 80
2, 82982, Note_on_c, 0, 57, 0
2, 83010, Note_on_c, 0, 54, 0
2, 83010, Note_on_c, 0, 57, 76
2, 83040, Note_on_c, 0, 57, 0
2, 83040, Note_on_c, 0, 55, 80
2, 83098, Note_on_c, 0, 55, 0
2, 83100, Note_on_c, 0, 57, 93
2, 83130, Note_on_c, 0, 59, 89
2, 83132, Note_on_c, 0, 57, 0
2, 83160, Note_on_c, 0, 60, 89
2, 83161, Note_on_c, 0, 59, 0
2, 83190, Note_on_c, 0, 60, 0
2, 83190, Note_on_c, 0, 62, 85
2, 83219, Note_on_c, 0, 62, 0
2, 83220, Note_on_c, 0, 64, 80
2, 83250, Note_on_c, 0, 64, 0
2, 83250, Note_on_c, 0, 66, 76
2, 83278, Note_on_c, 0, 66, 0
2, 83280, Note_on_c, 0, 67, 107
2, 83340, Note_on_c, 0, 69, 89
2, 83342, Note_on_c, 0, 67, 0
2, 83370, Note_on_c, 0, 69, 0
2, 83370, Note_on_c, 0, 71, 89
2, 83398, Note_on_c, 0, 71, 0
2, 83400, Note_on_c, 0, 72, 89
2, 83430, Note_on_c, 0, 74, 89
2, 83432, Note_on_c, 0, 72, 0
2, 83460, Note_on_c, 0, 76, 93
2, 83462, Note_on_c, 0, 74, 0
2, 83487, Note_on_c, 0, 76, 0
2, 83490, Note_on_c, 0, 78, 64
2, 83518, Note_on_c, 0, 78, 0
2, 83520, Note_on_c, 0, 79, 98
2, 83535, Control_c, 0, 64, 127
2, 83560, Note_on_c, 0, 79, 0
2, 83606, Control_c, 0, 64, 0
2, 83640, Note_on_c, 0, 62, 93
2, 83640, Note_on_c, 0, 59, 98
2, 83640, Note_on_c, 0, 67, 93
2, 83655, Control_c, 0, 64, 127
2, 83690, Note_on_c, 0, 59, 0
2, 83691, Note_on_c, 0, 62, 0
2, 83692, Note_on_c, 0, 67, 0
2, 83758, Control_c, 0, 64, 0
2, 83820, Note_on_c, 0, 67, 62
2, 83834, Note_on_c, 0, 67, 0
2, 83880, Note_on_c, 0, 72, 64
2, 83892, Note_on_c, 0, 72, 0
2, 83940, Note_on_c, 0, 74, 60
2, 83953, Note_on_c, 0, 74, 0
2, 84000, Note_on_c, 0, 76, 60
2, 84000, Note_on_c, 0, 60, 46
2, 84022, Control_c, 0, 64, 127
2, 84060, Note_on_c, 0, 64, 42
2, 84088, Note_on_c, 0, 76, 0
2, 84120, Note_on_c, 0, 67, 45
2, 84125, Note_on_c, 0, 64, 0
2, 84179, Note_on_c, 0, 67, 0
2, 84180, Note_on_c, 0, 64, 46
2, 84180, Note_on_c, 0, 72, 64
2, 84203, Note_on_c, 0, 72, 0
2, 84207, Note_on_c, 0, 60, 0
2, 84211, Note_on_c, 0, 64, 0
2, 84240, Note_on_c, 0, 60, 52
2, 84240, Note_on_c, 0, 77, 60
2, 84240, Control_c, 0, 64, 0
2, 84274, Control_c, 0, 64, 127
2, 84296, Note_on_c, 0, 77, 0
2, 84300, Note_on_c, 0, 62, 47
2, 84360, Note_on_c, 0, 65, 56
2, 84363, Note_on_c, 0, 62, 0
2, 84411, Note_on_c, 0, 65, 0
2, 84420, Note_on_c, 0, 62, 41
2, 84420, Note_on_c, 0, 74, 57
2, 84438, Note_on_c, 0, 74, 0
2, 84441, Note_on_c, 0, 60, 0
2, 84453, Note_on_c, 0, 62, 0
2, 84473, Control_c, 0, 64, 0
2, 84480, Note_on_c, 0, 60, 30
2, 84480, Note_on_c, 0, 79, 68
2, 84492, Note_on_c, 0, 79, 0
2, 84540, Note_on_c, 0, 64, 53
2, 84540, Note_on_c, 0, 76, 76
2, 84551, Note_on_c, 0, 76, 0
2, 84573, Note_on_c, 0, 64, 0
2, 84600, Note_on_c, 0, 67, 57
2, 84600, Note_on_c, 0, 72, 51
2, 84617, Control_c, 0, 64, 127
2, 84628, Note_on_c, 0, 72, 0
2, 84653, Control_c, 0, 64, 0
2, 84654, Note_on_c, 0, 67, 0
2, 84660, Note_on_c, 0, 64, 48
2, 84687, Control_c, 0, 64, 127
2, 84700, Note_on_c, 0, 60, 0
2, 84704, Note_on_c, 0, 64, 0
2, 84720, Note_on_c, 0, 60, 56
2, 84725, Control_c, 0, 64, 0
2, 84748, Control_c, 0, 64, 127
2, 84778, Note_on_c, 0, 60, 0
2, 84779, Control_c, 0, 64, 0
2, 84780, Note_on_c, 0, 67, 72
2, 84793, Note_on_c, 0, 67, 0
2, 84840, Note_on_c, 0, 72, 62
2, 84850, Note_on_c, 0, 72, 0
2, 84900, Note_on_c, 0, 74, 60
2, 84910, Note_on_c, 0, 74, 0
2, 84960, Note_on_c, 0, 60, 51
2, 84960, Note_on_c, 0, 76, 62
2, 84974, Control_c, 0, 64, 127
2, 85020, Note_on_c, 0, 64, 49
2, 85031, Note_on_c, 0, 76, 0
2, 85076, Note_on_c, 0, 64, 0
2, 85080, Note_on_c, 0, 67, 44
2, 85127, Note_on_c, 0, 67, 0
2, 85140, Note_on_c, 0, 72, 64
2, 85140, Note_on_c, 0, 64, 55
2, 85154, Note_on_c, 0, 64, 0
2, 85154, Note_on_c, 0, 72, 0
2, 85158, Note_on_c, 0, 60, 0
2, 85191, Control_c, 0, 64, 0
2, 85200, Note_on_c, 0, 59, 62
2, 85200, Note_on_c, 0, 62, 60
2, 85200, Note_on_c, 0, 79, 64
2, 85219, Control_c, 0, 64, 127
2, 85250, Control_c, 0, 64, 0
2, 85256, Note_on_c, 0, 79, 0
2, 85260, Note_on_c, 0, 67, 52
2, 85260, Note_on_c, 0, 77, 64
2, 85273, Note_on_c, 0, 77, 0
2, 85282, Control_c, 0, 64, 127
2, 85292, Note_on_c, 0, 62, 0
2, 85294, Control_c, 0, 64, 0
2, 85298, Note_on_c, 0, 59, 0
2, 85302, Note_on_c, 0, 67, 0
2, 85320, Note_on_c, 0, 77, 80
2, 85320, Note_on_c, 0, 64, 23
2, 85348, Control_c, 0, 64, 127
2, 85350, Note_on_c, 0, 60, 28
2, 85369, Control_c, 0, 64, 0
2, 85380, Note_on_c, 0, 67, 56
2, 85380, Note_on_c, 0, 76, 64
2, 85382, Note_on_c, 0, 77, 0
2, 85394, Note_on_c, 0, 64, 0
2, 85395, Note_on_c, 0, 76, 0
2, 85400, Control_c, 0, 64, 127
2, 85403, Note_on_c, 0, 67, 0
2, 85417, Note_on_c, 0, 60, 0
2, 85439, Control_c, 0, 64, 0
2, 85440, Note_on_c, 0, 73, 68
2, 85440, Note_on_c, 0, 55, 80
2, 85486, Control_c, 0, 64, 127
2, 85500, Note_on_c, 0, 59, 60
2, 85521, Note_on_c, 0, 73, 0
2, 85555, Note_on_c, 0, 59, 0
2, 85560, Note_on_c, 0, 62, 30
2, 85560, Note_on_c, 0, 74, 62
2, 85561, Control_c, 0, 64, 0
2, 85594, Control_c, 0, 64, 127
2, 85614, Note_on_c, 0, 74, 0
2, 85616, Note_on_c, 0, 62, 0
2, 85620, Note_on_c, 0, 59, 55
2, 85630, Note_on_c, 0, 55, 0
2, 85664, Note_on_c, 0, 59, 0
2, 85676, Control_c, 0, 64, 0
2, 85680, Note_on_c, 0, 55, 62
2, 85740, Note_on_c, 0, 67, 76
2, 85749, Note_on_c, 0, 67, 0
2, 85800, Note_on_c, 0, 72, 85
2, 85802, Note_on_c, 0, 55, 0
2, 85812, Note_on_c, 0, 72, 0
2, 85860, Note_on_c, 0, 74, 76
2, 85868, Note_on_c, 0, 74, 0
2, 85920, Note_on_c, 0, 60, 53
2, 85920, Note_on_c, 0, 76, 72
2, 85941, Control_c, 0, 64, 127
2, 85980, Note_on_c, 0, 64, 62
2, 86034, Note_on_c, 0, 76, 0
2, 86040, Note_on_c, 0, 64, 0
2, 86040, Note_on_c, 0, 67, 57
2, 86092, Note_on_c, 0, 67, 0
2, 86100, Note_on_c, 0, 64, 62
2, 86100, Note_on_c, 0, 72, 89
2, 86117, Note_on_c, 0, 60, 0
2, 86132, Note_on_c, 0, 72, 0
2, 86135, Note_on_c, 0, 64, 0
2, 86160, Note_on_c, 0, 60, 56
2, 86160, Note_on_c, 0, 77, 85
2, 86162, Control_c, 0, 64, 0
2, 86202, Control_c, 0, 64, 127
2, 86220, Note_on_c, 0, 62, 62
2, 86234, Note_on_c, 0, 77, 0
2, 86279, Note_on_c, 0, 62, 0
2, 86280, Note_on_c, 0, 65, 52
2, 86331, Note_on_c, 0, 65, 0
2, 86340, Note_on_c, 0, 62, 80
2, 86340, Note_on_c, 0, 74, 98
2, 86347, Note_on_c, 0, 60, 0
2, 86357, Note_on_c, 0, 74, 0
2, 86359, Note_on_c, 0, 62, 0
2, 86391, Control_c, 0, 64, 0
2, 86400, Note_on_c, 0, 64, 76
2, 86400, Note_on_c, 0, 60, 76
2, 86400, Note_on_c, 0, 79, 102
2, 86412, Note_on_c, 0, 79, 0
2, 86460, Note_on_c, 0, 76, 107
2, 86470, Note_on_c, 0, 64, 0
2, 86471, Note_on_c, 0, 76, 0
2, 86473, Note_on_c, 0, 60, 0
2, 86520, Note_on_c, 0, 81, 113
2, 86520, Note_on_c, 0, 53, 93
2, 86520, Note_on_c, 0, 65, 89
2, 86557, Control_c, 0, 64, 127
2, 86620, Control_c, 0, 64, 0
2, 86625, Note_on_c, 0, 65, 0
2, 86628, Note_on_c, 0, 53, 0
2, 86629, Note_on_c, 0, 81, 0
2, 86700, Note_on_c, 0, 81, 64
2, 86730, Note_on_c, 0, 79, 64
2, 86733, Note_on_c, 0, 81, 0
2, 86757, Note_on_c, 0, 79, 0
2, 86760, Note_on_c, 0, 77, 64
2, 86786, Note_on_c, 0, 77, 0
2, 86790, Note_on_c, 0, 76, 55
2, 86814, Note_on_c, 0, 76, 0
2, 86820, Note_on_c, 0, 74, 59
2, 86850, Note_on_c, 0, 72, 53
2, 86852, Note_on_c, 0, 74, 0
2, 86878, Note_on_c, 0, 72, 0
2, 86880, Note_on_c, 0, 71, 89
2, 86880, Note_on_c, 0, 55, 72
2, 86880, Note_on_c, 0, 65, 56
2, 86903, Control_c, 0, 64, 127
2, 86905, Note_on_c, 0, 65, 0
2, 86905, Note_on_c, 0, 71, 0
2, 86906, Note_on_c, 0, 55, 0
2, 86923, Control_c, 0, 64, 0
2, 87000, Note_on_c, 0, 72, 85
2, 87000, Note_on_c, 0, 57, 85
2, 87000, Note_on_c, 0, 64, 64
2, 87017, Note_on_c, 0, 64, 0
2, 87023, Note_on_c, 0, 72, 0
2, 87024, Note_on_c, 0, 57, 0
2, 87120, Note_on_c, 0, 57, 68
2, 87120, Note_on_c, 0, 53, 56
2, 87120, Note_on_c, 0, 74, 76
2, 87137, Note_on_c, 0, 74, 0
2, 87153, Control_c, 0, 64, 127
2, 87161, Control_c, 0, 64, 0
2, 87195, Note_on_c, 0, 76, 93
2, 87209, Note_on_c, 0, 76, 0
2, 87210, Note_on_c, 0, 74, 60
2, 87222, Note_on_c, 0, 74, 0
2, 87225, Note_on_c, 0, 72, 76
2, 87235, Note_on_c, 0, 53, 0
2, 87235, Note_on_c, 0, 57, 0
2, 87238, Note_on_c, 0, 72, 0
2, 87240, Note_on_c, 0, 74, 80
2, 87240, Note_on_c, 0, 55, 76
2, 87240, Note_on_c, 0, 59, 62
2, 87248, Note_on_c, 0, 74, 0
2, 87293, Note_on_c, 0, 55, 0
2, 87294, Note_on_c, 0, 59, 0
2, 87300, Note_on_c, 0, 76, 80
2, 87309, Note_on_c, 0, 76, 0
2, 87360, Note_on_c, 0, 55, 57
2, 87360, Note_on_c, 0, 65, 62
2, 87360, Note_on_c, 0, 74, 80
2, 87360, Note_on_c, 0, 59, 72
2, 87408, Control_c, 0, 64, 127
2, 87561, Note_on_c, 0, 65, 0
2, 87565, Note_on_c, 0, 55, 0
2, 87568, Note_on_c, 0, 59, 0
2, 87599, Note_on_c, 0, 74, 0
2, 87600, Note_on_c, 0, 64, 51
2, 87600, Note_on_c, 0, 72, 64
2, 87600, Note_on_c, 0, 60, 47
2, 87602, Control_c, 0, 64, 0
2, 87640, Control_c, 0, 64, 127
2, 87728, Note_on_c, 0, 64, 0
2, 87729, Note_on_c, 0, 60, 0
2, 87729, Note_on_c, 0, 72, 0
2, 87729, Control_c, 0, 64, 0
2, 88350, Note_on_c, 0, 72, 59
2, 88380, Note_on_c, 0, 74, 56
2, 88383, Note_on_c, 0, 72, 0
2, 88410, Note_on_c, 0, 76, 76
2, 88412, Note_on_c, 0, 74, 0
2, 88439, Note_on_c, 0, 76, 0
2, 88440, Note_on_c, 0, 77, 76
2, 88469, Note_on_c, 0, 77, 0
2, 88470, Note_on_c, 0, 79, 68
2, 88498, Note_on_c, 0, 79, 0
2, 88500, Note_on_c, 0, 81, 80
2, 88527, Note_on_c, 0, 81, 0
2, 88530, Note_on_c, 0, 83, 76
2, 88560, Note_on_c, 0, 84, 59
2, 88561, Note_on_c, 0, 83, 0
2, 88590, Note_on_c, 0, 83, 59
2, 88593, Note_on_c, 0, 84, 0
2, 88620, Note_on_c, 0, 83, 0
2, 88620, Note_on_c, 0, 84, 50
2, 88646, Note_on_c, 0, 84, 0
2, 88650, Note_on_c, 0, 81, 38
2, 88680, Note_on_c, 0, 79, 57
2, 88685, Note_on_c, 0, 81, 0
2, 88747, Note_on_c, 0, 79, 0
2, 89310, Note_on_c, 0, 79, 72
2, 89340, Note_on_c, 0, 89, 80
2, 89343, Note_on_c, 0, 79, 0
2, 89370, Note_on_c, 0, 88, 80
2, 89374, Note_on_c, 0, 89, 0
2, 89400, Note_on_c, 0, 86, 89
2, 89403, Note_on_c, 0, 88, 0
2, 89430, Note_on_c, 0, 84, 72
2, 89432, Note_on_c, 0, 86, 0
2, 89460, Note_on_c, 0, 84, 0
2, 89460, Note_on_c, 0, 83, 76
2, 89489, Note_on_c, 0, 83, 0
2, 89490, Note_on_c, 0, 81, 76
2, 89520, Note_on_c, 0, 79, 80
2, 89521, Note_on_c, 0, 81, 0
2, 89550, Note_on_c, 0, 78, 55
2, 89555, Note_on_c, 0, 79, 0
2, 89580, Note_on_c, 0, 78, 0
2, 89580, Note_on_c, 0, 79, 59
2, 89607, Note_on_c, 0, 79, 0
2, 89610, Note_on_c, 0, 81, 64
2, 89639, Note_on_c, 0, 81, 0
2, 89640, Note_on_c, 0, 79, 56
2, 89670, Note_on_c, 0, 79, 0
2, 89670, Note_on_c, 0, 77, 59
2, 89700, Note_on_c, 0, 77, 0
2, 89700, Note_on_c, 0, 76, 46
2, 89727, Note_on_c, 0, 76, 0
2, 89730, Note_on_c, 0, 74, 46
2, 89760, Note_on_c, 0, 72, 51
2, 89762, Note_on_c, 0, 74, 0
2, 89816, Control_c, 0, 64, 127
2, 89873, Note_on_c, 0, 72, 0
2, 89877, Control_c, 0, 64, 0
2, 91200, Note_on_c, 0, 64, 80
2, 91200, Note_on_c, 0, 67, 85
2, 91200, Note_on_c, 0, 76, 107
2, 91200, Note_on_c, 0, 79, 98
2, 91209, Note_on_c, 0, 79, 0
2, 91210, Note_on_c, 0, 76, 0
2, 91260, Note_on_c, 0, 72, 102
2, 91260, Note_on_c, 0, 76, 107
2, 91268, Note_on_c, 0, 72, 0
2, 91269, Note_on_c, 0, 76, 0
2, 91296, Note_on_c, 0, 67, 0
2, 91305, Note_on_c, 0, 64, 0
2, 91320, Note_on_c, 0, 65, 62
2, 91320, Note_on_c, 0, 69, 89
2, 91320, Note_on_c, 0, 77, 113
2, 91320, Note_on_c, 0, 81, 113
2, 91383, Note_on_c, 0, 81, 0
2, 91383, Note_on_c, 0, 77, 0
2, 91383, Note_on_c, 0, 69, 0
2, 91385, Note_on_c, 0, 65, 0
2, 91500, Note_on_c, 0, 81, 59
2, 91530, Note_on_c, 0, 79, 56
2, 91538, Note_on_c, 0, 81, 0
2, 91560, Note_on_c, 0, 77, 59
2, 91562, Note_on_c, 0, 79, 0
2, 91590, Note_on_c, 0, 77, 0
2, 91590, Note_on_c, 0, 76, 62
2, 91617, Note_on_c, 0, 76, 0
2, 91620, Note_on_c, 0, 74, 52
2, 91645, Note_on_c, 0, 74, 0
2, 91650, Note_on_c, 0, 72, 55
2, 91680, Note_on_c, 0, 71, 46
2, 91681, Note_on_c, 0, 72, 0
2, 91732, Control_c, 0, 64, 127
2, 91740, Note_on_c, 0, 62, 51
2, 91740, Note_on_c, 0, 65, 52
2, 91773, Note_on_c, 0, 62, 0
2, 91776, Note_on_c, 0, 65, 0
2, 91800, Note_on_c, 0, 65, 49
2, 91800, Note_on_c, 0, 62, 49
2, 91823, Note_on_c, 0, 62, 0
2, 91824, Note_on_c, 0, 65, 0
2, 91860, Note_on_c, 0, 62, 49
2, 91860, Note_on_c, 0, 65, 49
2, 91880, Note_on_c, 0, 65, 0
2, 91880, Note_on_c, 0, 62, 0
2, 91920, Note_on_c, 0, 65, 55
2, 91920, Note_on_c, 0, 62, 56
2, 91925, Note_on_c, 0, 71, 0
2, 91933, Note_on_c, 0, 62, 0
2, 91934, Note_on_c, 0, 65, 0
2, 91974, Control_c, 0, 64, 0
2, 91980, Note_on_c, 0, 65, 56
2, 91980, Note_on_c, 0, 80, 76
2, 91980, Note_on_c, 0, 62, 57
2, 91991, Control_c, 0, 64, 127
2, 92003, Note_on_c, 0, 80, 0
2, 92009, Note_on_c, 0, 62, 0
2, 92010, Note_on_c, 0, 65, 0
2, 92010, Note_on_c, 0, 79, 64
2, 92031, Control_c, 0, 64, 0
2, 92038, Note_on_c, 0, 79, 0
2, 92040, Note_on_c, 0, 77, 72
2, 92040, Note_on_c, 0, 65, 60
2, 92040, Note_on_c, 0, 62, 57
2, 92047, Control_c, 0, 64, 127
2, 92064, Note_on_c, 0, 62, 0
2, 92067, Note_on_c, 0, 65, 0
2, 92070, Note_on_c, 0, 77, 0
2, 92070, Note_on_c, 0, 75, 64
2, 92088, Note_on_c, 0, 75, 0
2, 92095, Control_c, 0, 64, 0
2, 92100, Note_on_c, 0, 74, 76
2, 92100, Note_on_c, 0, 62, 60
2, 92100, Note_on_c, 0, 65, 51
2, 92110, Control_c, 0, 64, 127
2, 92125, Note_on_c, 0, 65, 0
2, 92125, Note_on_c, 0, 62, 0
2, 92130, Note_on_c, 0, 74, 0
2, 92130, Note_on_c, 0, 72, 62
2, 92157, Control_c, 0, 64, 0
2, 92158, Note_on_c, 0, 72, 0
2, 92160, Note_on_c, 0, 71, 72
2, 92185, Control_c, 0, 64, 127
2, 92220, Note_on_c, 0, 65, 47
2, 92220, Note_on_c, 0, 62, 53
2, 92228, Control_c, 0, 64, 0
2, 92245, Control_c, 0, 64, 127
2, 92252, Note_on_c, 0, 62, 0
2, 92254, Note_on_c, 0, 65, 0
2, 92280, Note_on_c, 0, 65, 51
2, 92280, Note_on_c, 0, 62, 47
2, 92300, Note_on_c, 0, 62, 0
2, 92302, Note_on_c, 0, 65, 0
2, 92340, Note_on_c, 0, 65, 52
2, 92340, Note_on_c, 0, 62, 51
2, 92358, Note_on_c, 0, 62, 0
2, 92361, Note_on_c, 0, 65, 0
2, 92388, Note_on_c, 0, 71, 0
2, 92400, Note_on_c, 0, 65, 55
2, 92400, Note_on_c, 0, 62, 59
2, 92428, Note_on_c, 0, 62, 0
2, 92431, Note_on_c, 0, 65, 0
2, 92460, Note_on_c, 0, 71, 89
2, 92489, Note_on_c, 0, 71, 0
2, 92490, Note_on_c, 0, 72, 89
2, 92517, Note_on_c, 0, 72, 0
2, 92520, Note_on_c, 0, 74, 72
2, 92523, Control_c, 0, 64, 0
2, 92550, Note_on_c, 0, 76, 89
2, 92553, Note_on_c, 0, 74, 0
2, 92578, Note_on_c, 0, 76, 0
2, 92580, Note_on_c, 0, 77, 80
2, 92581, Control_c, 0, 64, 127
2, 92610, Note_on_c, 0, 77, 0
2, 92610, Note_on_c, 0, 79, 85
2, 92626, Note_on_c, 0, 79, 0
2, 92635, Control_c, 0, 64, 0
2, 92640, Note_on_c, 0, 81, 93
2, 92669, Control_c, 0, 64, 127
2, 92748, Note_on_c, 0, 81, 0
2, 92757, Control_c, 0, 64, 0
2, 92760, Note_on_c, 0, 79, 80
2, 92774, Note_on_c, 0, 79, 0
2, 92880, Note_on_c, 0, 78, 64
2, 92891, Note_on_c, 0, 78, 0
2, 93000, Note_on_c, 0, 71, 57
2, 93000, Note_on_c, 0, 77, 68
2, 93010, Note_on_c, 0, 77, 0
2, 93120, Note_on_c, 0, 72, 57
2, 93120, Note_on_c, 0, 76, 62
2, 93122, Note_on_c, 0, 71, 0
2, 93192, Control_c, 0, 64, 127
2, 93237, Control_c, 0, 64, 0
2, 93240, Note_on_c, 0, 70, 64
2, 93243, Note_on_c, 0, 72, 0
2, 93262, Control_c, 0, 64, 127
2, 93275, Note_on_c, 0, 76, 0
2, 93300, Note_on_c, 0, 77, 68
2, 93315, Note_on_c, 0, 76, 38
2, 93316, Note_on_c, 0, 77, 0
2, 93324, Note_on_c, 0, 76, 0
2, 93330, Note_on_c, 0, 74, 52
2, 93345, Note_on_c, 0, 76, 51
2, 93348, Note_on_c, 0, 74, 0
2, 93358, Note_on_c, 0, 70, 0
2, 93359, Note_on_c, 0, 76, 0
2, 93360, Note_on_c, 0, 69, 45
2, 93360, Note_on_c, 0, 79, 72
2, 93362, Control_c, 0, 64, 0
2, 93420, Note_on_c, 0, 79, 0
2, 93420, Note_on_c, 0, 77, 57
2, 93480, Note_on_c, 0, 76, 72
2, 93482, Note_on_c, 0, 77, 0
2, 93512, Control_c, 0, 64, 127
2, 93540, Note_on_c, 0, 76, 0
2, 93540, Note_on_c, 0, 74, 64
2, 93554, Note_on_c, 0, 69, 0
2, 93566, Note_on_c, 0, 74, 0
2, 93596, Control_c, 0, 64, 0
2, 93600, Note_on_c, 0, 72, 57
2, 93628, Note_on_c, 0, 72, 0
2, 93630, Note_on_c, 0, 74, 53
2, 93634, Control_c, 0, 64, 127
2, 93654, Note_on_c, 0, 74, 0
2, 93660, Control_c, 0, 64, 0
2, 93660, Note_on_c, 0, 72, 64
2, 93660, Note_on_c, 0, 64, 50
2, 93660, Note_on_c, 0, 67, 59
2, 93683, Control_c, 0, 64, 127
2, 93688, Note_on_c, 0, 67, 0
2, 93690, Note_on_c, 0, 64, 0
2, 93690, Note_on_c, 0, 71, 72
2, 93693, Note_on_c, 0, 72, 0
2, 93703, Note_on_c, 0, 71, 0
2, 93720, Note_on_c, 0, 64, 56
2, 93720, Note_on_c, 0, 72, 76
2, 93720, Note_on_c, 0, 67, 56
2, 93725, Control_c, 0, 64, 0
2, 93741, Note_on_c, 0, 72, 0
2, 93747, Control_c, 0, 64, 127
2, 93749, Note_on_c, 0, 67, 0
2, 93750, Note_on_c, 0, 64, 0
2, 93750, Note_on_c, 0, 74, 76
2, 93768, Note_on_c, 0, 74, 0
2, 93780, Control_c, 0, 64, 0
2, 93780, Note_on_c, 0, 76, 72
2, 93780, Note_on_c, 0, 64, 60
2, 93780, Note_on_c, 0, 67, 64
2, 93798, Control_c, 0, 64, 127
2, 93804, Note_on_c, 0, 64, 0
2, 93806, Note_on_c, 0, 67, 0
2, 93806, Note_on_c, 0, 76, 0
2, 93810, Note_on_c, 0, 77, 76
2, 93823, Note_on_c, 0, 77, 0
2, 93839, Control_c, 0, 64, 0
2, 93840, Note_on_c, 0, 79, 93
2, 93840, Note_on_c, 0, 64, 59
2, 93840, Note_on_c, 0, 67, 62
2, 93858, Control_c, 0, 64, 127
2, 93867, Note_on_c, 0, 79, 0
2, 93870, Note_on_c, 0, 78, 76
2, 93872, Note_on_c, 0, 67, 0
2, 93872, Note_on_c, 0, 64, 0
2, 93886, Note_on_c, 0, 78, 0
2, 93900, Note_on_c, 0, 79, 89
2, 93900, Note_on_c, 0, 67, 64
2, 93900, Note_on_c, 0, 64, 62
2, 93904, Control_c, 0, 64, 0
2, 93919, Control_c, 0, 64, 127
2, 93926, Note_on_c, 0, 79, 0
2, 93930, Note_on_c, 0, 78, 72
2, 93931, Note_on_c, 0, 67, 0
2, 93933, Note_on_c, 0, 64, 0
2, 93945, Note_on_c, 0, 78, 0
2, 93959, Control_c, 0, 64, 0
2, 93960, Note_on_c, 0, 79, 93
2, 93960, Note_on_c, 0, 64, 57
2, 93960, Note_on_c, 0, 67, 62
2, 93977, Control_c, 0, 64, 127
2, 93984, Note_on_c, 0, 79, 0
2, 93985, Note_on_c, 0, 64, 0
2, 93986, Note_on_c, 0, 67, 0
2, 93990, Note_on_c, 0, 78, 64
2, 94004, Note_on_c, 0, 78, 0
2, 94020, Control_c, 0, 64, 0
2, 94020, Note_on_c, 0, 79, 76
2, 94020, Note_on_c, 0, 64, 57
2, 94020, Note_on_c, 0, 67, 57
2, 94040, Control_c, 0, 64, 127
2, 94045, Note_on_c, 0, 79, 0
2, 94049, Note_on_c, 0, 67, 0
2, 94050, Note_on_c, 0, 64, 0
2, 94050, Note_on_c, 0, 78, 62
2, 94061, Note_on_c, 0, 78, 0
2, 94079, Control_c, 0, 64, 0
2, 94080, Note_on_c, 0, 81, 76
2, 94080, Note_on_c, 0, 64, 60
2, 94080, Note_on_c, 0, 67, 56
2, 94101, Control_c, 0, 64, 127
2, 94105, Note_on_c, 0, 81, 0
2, 94109, Note_on_c, 0, 67, 0
2, 94110, Note_on_c, 0, 79, 72
2, 94111, Note_on_c, 0, 64, 0
2, 94132, Note_on_c, 0, 79, 0
2, 94133, Control_c, 0, 64, 0
2, 94140, Note_on_c, 0, 78, 64
2, 94140, Note_on_c, 0, 64, 57
2, 94140, Note_on_c, 0, 67, 56
2, 94152, Control_c, 0, 64, 127
2, 94165, Note_on_c, 0, 67, 0
2, 94165, Note_on_c, 0, 64, 0
2, 94165, Note_on_c, 0, 78, 0
2, 94170, Note_on_c, 0, 79, 76
2, 94189, Note_on_c, 0, 79, 0
2, 94196, Control_c, 0, 64, 0
2, 94200, Note_on_c, 0, 77, 72
2, 94200, Note_on_c, 0, 64, 56
2, 94200, Note_on_c, 0, 67, 56
2, 94215, Control_c, 0, 64, 127
2, 94225, Note_on_c, 0, 64, 0
2, 94226, Note_on_c, 0, 67, 0
2, 94226, Note_on_c, 0, 77, 0
2, 94230, Note_on_c, 0, 76, 80
2, 94252, Control_c, 0, 64, 0
2, 94257, Note_on_c, 0, 76, 0
2, 94260, Note_on_c, 0, 74, 56
2, 94260, Note_on_c, 0, 64, 57
2, 94260, Note_on_c, 0, 67, 56
2, 94276, Control_c, 0, 64, 127
2, 94284, Note_on_c, 0, 74, 0
2, 94287, Note_on_c, 0, 67, 0
2, 94289, Note_on_c, 0, 64, 0
2, 94290, Note_on_c, 0, 72, 64
2, 94308, Note_on_c, 0, 72, 0
2, 94312, Control_c, 0, 64, 0
2, 94320, Note_on_c, 0, 76, 62
2, 94320, Note_on_c, 0, 64, 50
2, 94320, Note_on_c, 0, 67, 47
2, 94333, Control_c, 0, 64, 127
2, 94351, Note_on_c, 0, 67, 0
2, 94352, Note_on_c, 0, 64, 0
2, 94358, Note_on_c, 0, 76, 0
2, 94378, Control_c, 0, 64, 0
2, 94380, Note_on_c, 0, 64, 52
2, 94380, Note_on_c, 0, 67, 57
2, 94396, Control_c, 0, 64, 127
2, 94406, Note_on_c, 0, 67, 0
2, 94411, Note_on_c, 0, 64, 0
2, 94431, Control_c, 0, 64, 0
2, 94440, Note_on_c, 0, 74, 72
2, 94440, Note_on_c, 0, 65, 47
2, 94440, Note_on_c, 0, 67, 55
2, 94470, Note_on_c, 0, 74, 0
2, 94489, Note_on_c, 0, 67, 0
2, 94493, Note_on_c, 0, 65, 0
2, 94500, Note_on_c, 0, 65, 57
2, 94500, Note_on_c, 0, 67, 64
2, 94506, Control_c, 0, 64, 127
2, 94529, Note_on_c, 0, 67, 0
2, 94532, Note_on_c, 0, 65, 0
2, 94556, Control_c, 0, 64, 0
2, 94560, Note_on_c, 0, 64, 72
2, 94560, Note_on_c, 0, 72, 89
2, 94560, Note_on_c, 0, 67, 68
2, 94575, Control_c, 0, 64, 127
2, 94583, Note_on_c, 0, 67, 0
2, 94586, Note_on_c, 0, 72, 0
2, 94590, Note_on_c, 0, 67, 89
2, 94591, Note_on_c, 0, 64, 0
2, 94616, Note_on_c, 0, 67, 0
2, 94617, Control_c, 0, 64, 0
2, 94620, Note_on_c, 0, 72, 93
2, 94641, Control_c, 0, 64, 127
2, 94645, Note_on_c, 0, 72, 0
2, 94650, Note_on_c, 0, 76, 60
2, 94674, Note_on_c, 0, 76, 0
2, 94675, Control_c, 0, 64, 0
2, 94680, Note_on_c, 0, 79, 89
2, 94680, Note_on_c, 0, 64, 93
2, 94697, Control_c, 0, 64, 127
2, 94710, Note_on_c, 0, 72, 80
2, 94713, Note_on_c, 0, 79, 0
2, 94730, Control_c, 0, 64, 0
2, 94732, Note_on_c, 0, 72, 0
2, 94734, Note_on_c, 0, 64, 0
2, 94740, Note_on_c, 0, 63, 80
2, 94740, Note_on_c, 0, 78, 93
2, 94753, Control_c, 0, 64, 127
2, 94770, Note_on_c, 0, 78, 0
2, 94770, Note_on_c, 0, 72, 89
2, 94789, Note_on_c, 0, 72, 0
2, 94791, Control_c, 0, 64, 0
2, 94798, Note_on_c, 0, 63, 0
2, 94800, Note_on_c, 0, 79, 93
2, 94800, Note_on_c, 0, 64, 89
2, 94815, Control_c, 0, 64, 127
2, 94829, Note_on_c, 0, 79, 0
2, 94830, Note_on_c, 0, 72, 80
2, 94839, Note_on_c, 0, 64, 0
2, 94853, Note_on_c, 0, 72, 0
2, 94853, Control_c, 0, 64, 0
2, 94860, Note_on_c, 0, 80, 89
2, 94860, Note_on_c, 0, 64, 89
2, 94872, Control_c, 0, 64, 127
2, 94890, Note_on_c, 0, 80, 0
2, 94890, Note_on_c, 0, 72, 80
2, 94909, Control_c, 0, 64, 0
2, 94910, Note_on_c, 0, 72, 0
2, 94912, Note_on_c, 0, 64, 0
2, 94920, Note_on_c, 0, 81, 89
2, 94920, Note_on_c, 0, 65, 89
2, 94934, Control_c, 0, 64, 127
2, 94950, Note_on_c, 0, 72, 72
2, 94956, Note_on_c, 0, 81, 0
2, 94967, Note_on_c, 0, 72, 0
2, 94973, Control_c, 0, 64, 0
2, 94977, Note_on_c, 0, 65, 0
2, 94980, Note_on_c, 0, 64, 89
2, 94980, Note_on_c, 0, 79, 98
2, 94990, Control_c, 0, 64, 127
2, 95010, Note_on_c, 0, 79, 0
2, 95010, Note_on_c, 0, 72, 89
2, 95019, Note_on_c, 0, 64, 0
2, 95024, Note_on_c, 0, 72, 0
2, 95032, Control_c, 0, 64, 0
2, 95040, Note_on_c, 0, 77, 89
2, 95040, Note_on_c, 0, 62, 93
2, 95056, Control_c, 0, 64, 127
2, 95070, Note_on_c, 0, 67, 76
2, 95074, Note_on_c, 0, 77, 0
2, 95096, Note_on_c, 0, 67, 0
2, 95100, Note_on_c, 0, 71, 76
2, 95106, Note_on_c, 0, 62, 0
2, 95114, Control_c, 0, 64, 0
2, 95126, Note_on_c, 0, 71, 0
2, 95130, Note_on_c, 0, 74, 89
2, 95151, Note_on_c, 0, 74, 0
2, 95160, Note_on_c, 0, 77, 93
2, 95160, Note_on_c, 0, 62, 93
2, 95169, Control_c, 0, 64, 127
2, 95190, Note_on_c, 0, 67, 72
2, 95194, Note_on_c, 0, 62, 0
2, 95195, Note_on_c, 0, 77, 0
2, 95213, Note_on_c, 0, 67, 0
2, 95213, Control_c, 0, 64, 0
2, 95220, Note_on_c, 0, 76, 80
2, 95220, Note_on_c, 0, 61, 93
2, 95242, Control_c, 0, 64, 127
2, 95249, Note_on_c, 0, 76, 0
2, 95250, Note_on_c, 0, 67, 68
2, 95262, Note_on_c, 0, 67, 0
2, 95263, Note_on_c, 0, 61, 0
2, 95270, Control_c, 0, 64, 0
2, 95280, Note_on_c, 0, 77, 85
2, 95280, Note_on_c, 0, 62, 93
2, 95301, Control_c, 0, 64, 127
2, 95310, Note_on_c, 0, 67, 64
2, 95313, Note_on_c, 0, 77, 0
2, 95327, Control_c, 0, 64, 0
2, 95328, Note_on_c, 0, 67, 0
2, 95331, Note_on_c, 0, 62, 0
2, 95340, Note_on_c, 0, 78, 85
2, 95340, Note_on_c, 0, 63, 80
2, 95356, Control_c, 0, 64, 127
2, 95369, Note_on_c, 0, 78, 0
2, 95370, Note_on_c, 0, 67, 56
2, 95389, Note_on_c, 0, 67, 0
2, 95389, Control_c, 0, 64, 0
2, 95393, Note_on_c, 0, 63, 0
2, 95400, Note_on_c, 0, 64, 93
2, 95400, Note_on_c, 0, 79, 89
2, 95416, Control_c, 0, 64, 127
2, 95430, Note_on_c, 0, 67, 62
2, 95431, Note_on_c, 0, 79, 0
2, 95445, Note_on_c, 0, 67, 0
2, 95446, Note_on_c, 0, 64, 0
2, 95449, Control_c, 0, 64, 0
2, 95460, Note_on_c, 0, 77, 89
2, 95460, Note_on_c, 0, 62, 89
2, 95472, Control_c, 0, 64, 127
2, 95488, Note_on_c, 0, 77, 0
2, 95490, Note_on_c, 0, 67, 68
2, 95494, Note_on_c, 0, 62, 0
2, 95503, Note_on_c, 0, 67, 0
2, 95507, Control_c, 0, 64, 0
2, 95520, Note_on_c, 0, 60, 89
2, 95520, Note_on_c, 0, 76, 93
2, 95520, Note_on_c, 0, 76, 93
2, 95542, Control_c, 0, 64, 127
2, 95561, Note_on_c, 0, 76, 0
2, 95574, Control_c, 0, 64, 0
2, 95575, Note_on_c, 0, 76, 0
2, 95575, Note_on_c, 0, 60, 0
2, 95580, Note_on_c, 0, 74, 93
2, 95580, Note_on_c, 0, 59, 93
2, 95606, Control_c, 0, 64, 127
2, 95610, Note_on_c, 0, 79, 76
2, 95611, Note_on_c, 0, 74, 0
2, 95630, Control_c, 0, 64, 0
2, 95638, Note_on_c, 0, 79, 0
2, 95638, Note_on_c, 0, 59, 0
2, 95640, Note_on_c, 0, 72, 85
2, 95640, Note_on_c, 0, 57, 89
2, 95665, Control_c, 0, 64, 127
2, 95670, Note_on_c, 0, 72, 0
2, 95670, Note_on_c, 0, 77, 85
2, 95688, Control_c, 0, 64, 0
2, 95694, Note_on_c, 0, 57, 0
2, 95696, Note_on_c, 0, 77, 0
2, 95700, Note_on_c, 0, 55, 93
2, 95700, Note_on_c, 0, 71, 98
2, 95725, Control_c, 0, 64, 127
2, 95729, Note_on_c, 0, 71, 0
2, 95730, Note_on_c, 0, 76, 89
2, 95743, Note_on_c, 0, 76, 0
2, 95750, Control_c, 0, 64, 0
2, 95758, Note_on_c, 0, 55, 0
2, 95760, Note_on_c, 0, 53, 93
2, 95760, Note_on_c, 0, 69, 98
2, 95787, Control_c, 0, 64, 127
2, 95788, Note_on_c, 0, 69, 0
2, 95790, Note_on_c, 0, 74, 89
2, 95806, Control_c, 0, 64, 0
2, 95815, Note_on_c, 0, 53, 0
2, 95816, Note_on_c, 0, 74, 0
2, 95820, Note_on_c, 0, 67, 89
2, 95820, Note_on_c, 0, 52, 89
2, 95838, Control_c, 0, 64, 127
2, 95848, Note_on_c, 0, 67, 0
2, 95850, Note_on_c, 0, 72, 85
2, 95863, Control_c, 0, 64, 0
2, 95866, Note_on_c, 0, 72, 0
2, 95875, Note_on_c, 0, 52, 0
2, 95880, Note_on_c, 0, 65, 102
2, 95880, Note_on_c, 0, 50, 93
2, 95898, Control_c, 0, 64, 127
2, 95910, Note_on_c, 0, 65, 0
2, 95910, Note_on_c, 0, 71, 93
2, 95925, Control_c, 0, 64, 0
2, 95932, Note_on_c, 0, 71, 0
2, 95933, Note_on_c, 0, 50, 0
2, 95940, Note_on_c, 0, 64, 93
2, 95940, Note_on_c, 0, 48, 89
2, 95954, Control_c, 0, 64, 127
2, 95967, Note_on_c, 0, 64, 0
2, 95970, Note_on_c, 0, 69, 93
2, 95981, Note_on_c, 0, 69, 0
2, 95985, Control_c, 0, 64, 0
2, 95995, Note_on_c, 0, 48, 0
2, 96000, Note_on_c, 0, 47, 89
2, 96000, Note_on_c, 0, 62, 85
2, 96000, Note_on_c, 0, 65, 85
2, 96000, Note_on_c, 0, 69, 80
2, 96000, Note_on_c, 0, 67, 89
2, 96007, Note_on_c, 0, 67, 0
2, 96032, Control_c, 0, 64, 127
2, 96048, Control_c, 0, 64, 0
2, 96060, Note_on_c, 0, 62, 0
2, 96060, Note_on_c, 0, 67, 93
2, 96061, Note_on_c, 0, 69, 0
2, 96062, Note_on_c, 0, 65, 0
2, 96064, Control_c, 0, 64, 127
2, 96093, Note_on_c, 0, 47, 0
2, 96104, Control_c, 0, 64, 0
2, 96111, Note_on_c, 0, 67, 0
2, 96120, Note_on_c, 0, 67, 89
2, 96128, Control_c, 0, 64, 127
2, 96136, Note_on_c, 0, 67, 0
2, 96173, Control_c, 0, 64, 0
2, 96180, Note_on_c, 0, 71, 56
2, 96180, Note_on_c, 0, 79, 60
2, 96180, Note_on_c, 0, 77, 56
2, 96198, Control_c, 0, 64, 127
2, 96216, Note_on_c, 0, 79, 0
2, 96217, Note_on_c, 0, 71, 0
2, 96218, Note_on_c, 0, 77, 0
2, 96233, Control_c, 0, 64, 0
2, 96240, Note_on_c, 0, 77, 59
2, 96240, Note_on_c, 0, 71, 56
2, 96240, Note_on_c, 0, 79, 53
2, 96251, Control_c, 0, 64, 127
2, 96280, Note_on_c, 0, 71, 0
2, 96281, Note_on_c, 0, 79, 0
2, 96284, Note_on_c, 0, 77, 0
2, 96300, Note_on_c, 0, 77, 60
2, 96300, Note_on_c, 0, 71, 62
2, 96300, Note_on_c, 0, 79, 59
2, 96336, Note_on_c, 0, 71, 0
2, 96337, Note_on_c, 0, 79, 0
2, 96342, Note_on_c, 0, 77, 0
2, 96360, Note_on_c, 0, 77, 52
2, 96360, Note_on_c, 0, 71, 60
2, 96360, Note_on_c, 0, 79, 48
2, 96388, Note_on_c, 0, 79, 0
2, 96388, Note_on_c, 0, 71, 0
2, 96396, Note_on_c, 0, 77, 0
2, 96420, Note_on_c, 0, 77, 42
2, 96420, Note_on_c, 0, 71, 59
2, 96420, Note_on_c, 0, 79, 47
2, 96437, Note_on_c, 0, 71, 0
2, 96440, Note_on_c, 0, 79, 0
2, 96442, Note_on_c, 0, 77, 0
2, 96480, Note_on_c, 0, 76, 62
2, 96480, Note_on_c, 0, 72, 80
2, 96480, Note_on_c, 0, 79, 76
2, 96484, Control_c, 0, 64, 0
2, 96493, Note_on_c, 0, 76, 0
2, 96494, Note_on_c, 0, 79, 0
2, 96540, Note_on_c, 0, 77, 62
2, 96540, Note_on_c, 0, 81, 80
2, 96547, Note_on_c, 0, 77, 0
2, 96548, Note_on_c, 0, 81, 0
2, 96586, Note_on_c, 0, 72, 0
2, 96600, Note_on_c, 0, 79, 64
2, 96600, Note_on_c, 0, 83, 64
2, 96608, Note_on_c, 0, 83, 0
2, 96608, Note_on_c, 0, 79, 0
2, 96660, Note_on_c, 0, 84, 64
2, 96660, Note_on_c, 0, 81, 76
2, 96668, Note_on_c, 0, 81, 0
2, 96669, Note_on_c, 0, 84, 0
2, 96720, Note_on_c, 0, 83, 57
2, 96720, Note_on_c, 0, 79, 52
2, 96720, Note_on_c, 0, 65, 29
2, 96747, Control_c, 0, 64, 127
2, 96772, Note_on_c, 0, 79, 0
2, 96772, Note_on_c, 0, 83, 0
2, 96780, Note_on_c, 0, 81, 50
2, 96780, Note_on_c, 0, 77, 52
2, 96804, Note_on_c, 0, 81, 0
2, 96814, Note_on_c, 0, 77, 0
2, 96840, Note_on_c, 0, 76, 55
2, 96840, Note_on_c, 0, 79, 57
2, 96847, Control_c, 0, 64, 0
2, 96867, Control_c, 0, 64, 127
2, 96888, Note_on_c, 0, 76, 0
2, 96894, Note_on_c, 0, 79, 0
2, 96900, Note_on_c, 0, 77, 57
2, 96900, Note_on_c, 0, 74, 52
2, 96918, Note_on_c, 0, 77, 0
2, 96919, Note_on_c, 0, 74, 0
2, 96934, Note_on_c, 0, 65, 0
2, 96960, Note_on_c, 0, 76, 64
2, 96960, Note_on_c, 0, 72, 64
2, 96960, Note_on_c, 0, 67, 64
2, 96960, Control_c, 0, 64, 0
2, 96970, Note_on_c, 0, 72, 0
2, 96970, Note_on_c, 0, 76, 0
2, 97020, Note_on_c, 0, 77, 64
2, 97020, Note_on_c, 0, 74, 57
2, 97028, Note_on_c, 0, 74, 0
2, 97029, Note_on_c, 0, 77, 0
2, 97080, Note_on_c, 0, 78, 62
2, 97080, Note_on_c, 0, 75, 57
2, 97086, Note_on_c, 0, 75, 0
2, 97089, Note_on_c, 0, 78, 0
2, 97093, Note_on_c, 0, 67, 0
2, 97140, Note_on_c, 0, 76, 57
2, 97140, Note_on_c, 0, 79, 64
2, 97146, Note_on_c, 0, 76, 0
2, 97147, Note_on_c, 0, 79, 0
2, 97200, Note_on_c, 0, 55, 57
2, 97200, Note_on_c, 0, 79, 52
2, 97200, Note_on_c, 0, 76, 62
2, 97212, Control_c, 0, 64, 127
2, 97255, Note_on_c, 0, 79, 0
2, 97256, Note_on_c, 0, 76, 0
2, 97258, Control_c, 0, 64, 0
2, 97260, Note_on_c, 0, 74, 55
2, 97260, Note_on_c, 0, 77, 60
2, 97280, Control_c, 0, 64, 127
2, 97316, Note_on_c, 0, 77, 0
2, 97316, Note_on_c, 0, 74, 0
2, 97316, Control_c, 0, 64, 0
2, 97320, Note_on_c, 0, 72, 56
2, 97320, Note_on_c, 0, 76, 47
2, 97335, Control_c, 0, 64, 127
2, 97354, Note_on_c, 0, 72, 0
2, 97368, Note_on_c, 0, 76, 0
2, 97378, Control_c, 0, 64, 0
2, 97380, Note_on_c, 0, 74, 60
2, 97380, Note_on_c, 0, 71, 53
2, 97396, Note_on_c, 0, 55, 0
2, 97434, Note_on_c, 0, 71, 0
2, 97439, Note_on_c, 0, 74, 0
2, 97440, Note_on_c, 0, 72, 64
2, 97476, Control_c, 0, 64, 127
2, 97555, Control_c, 0, 64, 0
2, 97560, Note_on_c, 0, 72, 0
2, 98880, Note_on_c, 0, 67, 98
2, 98891, Control_c, 0, 64, 127
2, 98910, Note_on_c, 0, 66, 93
2, 98911, Note_on_c, 0, 67, 0
2, 98920, Control_c, 0, 64, 0
2, 98937, Note_on_c, 0, 66, 0
2, 98940, Note_on_c, 0, 69, 93
2, 98967, Note_on_c, 0, 69, 0
2, 98970, Note_on_c, 0, 67, 89
2, 98998, Note_on_c, 0, 67, 0
2, 99000, Note_on_c, 0, 71, 89
2, 99024, Control_c, 0, 64, 127
2, 99029, Note_on_c, 0, 71, 0
2, 99030, Note_on_c, 0, 69, 85
2, 99046, Control_c, 0, 64, 0
2, 99057, Note_on_c, 0, 69, 0
2, 99060, Note_on_c, 0, 72, 89
2, 99082, Control_c, 0, 64, 127
2, 99089, Note_on_c, 0, 72, 0
2, 99090, Note_on_c, 0, 71, 76
2, 99107, Control_c, 0, 64, 0
2, 99117, Note_on_c, 0, 71, 0
2, 99120, Note_on_c, 0, 74, 93
2, 99139, Control_c, 0, 64, 127
2, 99150, Note_on_c, 0, 74, 0
2, 99150, Note_on_c, 0, 73, 76
2, 99169, Control_c, 0, 64, 0
2, 99173, Note_on_c, 0, 73, 0
2, 99180, Note_on_c, 0, 76, 89
2, 99209, Note_on_c, 0, 76, 0
2, 99210, Note_on_c, 0, 74, 72
2, 99211, Control_c, 0, 64, 127
2, 99227, Control_c, 0, 64, 0
2, 99234, Note_on_c, 0, 74, 0
2, 99240, Note_on_c, 0, 77, 98
2, 99266, Control_c, 0, 64, 127
2, 99270, Note_on_c, 0, 77, 0
2, 99270, Note_on_c, 0, 76, 89
2, 99286, Control_c, 0, 64, 0
2, 99294, Note_on_c, 0, 76, 0
2, 99300, Note_on_c, 0, 79, 98
2, 99327, Control_c, 0, 64, 127
2, 99330, Note_on_c, 0, 77, 89
2, 99332, Note_on_c, 0, 79, 0
2, 99344, Control_c, 0, 64, 0
2, 99357, Note_on_c, 0, 77, 0
2, 99360, Note_on_c, 0, 81, 102
2, 99400, Control_c, 0, 64, 127
2, 99701, Note_on_c, 0, 81, 0
2, 99713, Control_c, 0, 64, 0
2, 99720, Note_on_c, 0, 82, 93
2, 99735, Note_on_c, 0, 81, 89
2, 99736, Note_on_c, 0, 82, 0
2, 99743, Control_c, 0, 64, 127
2, 99747, Note_on_c, 0, 81, 0
2, 99750, Note_on_c, 0, 82, 76
2, 99765, Note_on_c, 0, 82, 0
2, 99765, Note_on_c, 0, 81, 76
2, 99780, Note_on_c, 0, 82, 93
2, 99782, Note_on_c, 0, 81, 0
2, 99795, Note_on_c, 0, 81, 80
2, 99796, Note_on_c, 0, 82, 0
2, 99810, Note_on_c, 0, 81, 0
2, 99810, Note_on_c, 0, 79, 89
2, 99825, Note_on_c, 0, 79, 0
2, 99825, Note_on_c, 0, 81, 89
2, 99839, Control_c, 0, 64, 0
2, 99840, Note_on_c, 0, 81, 0
2, 99840, Note_on_c, 0, 79, 89
2, 99840, Note_on_c, 0, 82, 107
2, 99852, Note_on_c, 0, 79, 0
2, 99865, Note_on_c, 0, 82, 0
2, 99870, Note_on_c, 0, 84, 76
2, 99871, Control_c, 0, 64, 127
2, 99894, Note_on_c, 0, 84, 0
2, 99896, Control_c, 0, 64, 0
2, 99900, Note_on_c, 0, 77, 72
2, 99900, Note_on_c, 0, 81, 102
2, 99924, Control_c, 0, 64, 127
2, 99929, Note_on_c, 0, 81, 0
2, 99930, Note_on_c, 0, 82, 85
2, 99953, Control_c, 0, 64, 0
2, 99958, Note_on_c, 0, 82, 0
2, 99959, Note_on_c, 0, 77, 0
2, 99960, Note_on_c, 0, 79, 93
2, 99960, Note_on_c, 0, 76, 57
2, 99981, Control_c, 0, 64, 127
2, 99986, Note_on_c, 0, 79, 0
2, 99990, Note_on_c, 0, 81, 80
2, 100013, Control_c, 0, 64, 0
2, 100014, Note_on_c, 0, 76, 0
2, 100018, Note_on_c, 0, 81, 0
2, 100020, Note_on_c, 0, 77, 89
2, 100020, Note_on_c, 0, 74, 80
2, 100042, Control_c, 0, 64, 127
2, 100047, Note_on_c, 0, 77, 0
2, 100050, Note_on_c, 0, 79, 80
2, 100067, Control_c, 0, 64, 0
2, 100077, Note_on_c, 0, 79, 0
2, 100079, Note_on_c, 0, 74, 0
2, 100080, Note_on_c, 0, 76, 93
2, 100080, Note_on_c, 0, 72, 93
2, 100096, Control_c, 0, 64, 127
2, 100109, Note_on_c, 0, 76, 0
2, 100110, Note_on_c, 0, 77, 80
2, 100126, Control_c, 0, 64, 0
2, 100135, Note_on_c, 0, 72, 0
2, 100137, Note_on_c, 0, 77, 0
2, 100140, Note_on_c, 0, 74, 89
2, 100140, Note_on_c, 0, 70, 80
2, 100154, Control_c, 0, 64, 127
2, 100169, Note_on_c, 0, 74, 0
2, 100170, Note_on_c, 0, 76, 76
2, 100188, Control_c, 0, 64, 0
2, 100197, Note_on_c, 0, 76, 0
2, 100198, Note_on_c, 0, 70, 0
2, 100200, Note_on_c, 0, 72, 90
2, 100200, Note_on_c, 0, 69, 89
2, 100218, Control_c, 0, 64, 127
2, 100227, Note_on_c, 0, 72, 0
2, 100230, Note_on_c, 0, 74, 46
2, 100245, Control_c, 0, 64, 0
2, 100254, Note_on_c, 0, 74, 0
2, 100257, Note_on_c, 0, 69, 0
2, 100260, Note_on_c, 0, 70, 93
2, 100260, Note_on_c, 0, 67, 98
2, 100271, Control_c, 0, 64, 127
2, 100287, Note_on_c, 0, 70, 0
2, 100290, Note_on_c, 0, 72, 72
2, 100304, Control_c, 0, 64, 0
2, 100317, Note_on_c, 0, 67, 0
2, 100318, Note_on_c, 0, 72, 0
2, 100320, Note_on_c, 0, 65, 85
2, 100320, Note_on_c, 0, 69, 93
2, 100320, Note_on_c, 0, 65, 93
2, 100342, Control_c, 0, 64, 127
2, 100350, Note_on_c, 0, 69, 98
2, 100366, Note_on_c, 0, 69, 0
2, 100378, Note_on_c, 0, 69, 0
2, 100380, Note_on_c, 0, 70, 93
2, 100383, Note_on_c, 0, 65, 0
2, 100409, Note_on_c, 0, 70, 0
2, 100410, Note_on_c, 0, 72, 85
2, 100417, Note_on_c, 0, 65, 0
2, 100433, Control_c, 0, 64, 0
2, 100438, Note_on_c, 0, 72, 0
2, 100440, Note_on_c, 0, 74, 102
2, 100470, Note_on_c, 0, 76, 93
2, 100475, Note_on_c, 0, 74, 0
2, 100499, Note_on_c, 0, 76, 0
2, 100500, Note_on_c, 0, 77, 85
2, 100512, Control_c, 0, 64, 127
2, 100529, Note_on_c, 0, 77, 0
2, 100530, Note_on_c, 0, 79, 93
2, 100546, Note_on_c, 0, 79, 0
2, 100550, Control_c, 0, 64, 0
2, 100560, Note_on_c, 0, 81, 98
2, 100590, Note_on_c, 0, 77, 93
2, 100598, Note_on_c, 0, 81, 0
2, 100619, Note_on_c, 0, 77, 0
2, 100620, Note_on_c, 0, 72, 80
2, 100636, Control_c, 0, 64, 127
2, 100650, Note_on_c, 0, 72, 0
2, 100650, Note_on_c, 0, 69, 85
2, 100664, Control_c, 0, 64, 0
2, 100674, Note_on_c, 0, 69, 0
2, 100680, Note_on_c, 0, 81, 89
2, 100711, Control_c, 0, 64, 127
2, 100725, Control_c, 0, 64, 0
2, 100740, Note_on_c, 0, 81, 0
2, 100740, Note_on_c, 0, 65, 85
2, 100740, Note_on_c, 0, 69, 93
2, 100785, Note_on_c, 0, 69, 0
2, 100787, Note_on_c, 0, 65, 0
2, 100800, Note_on_c, 0, 67, 89
2, 100800, Note_on_c, 0, 71, 93
2, 100823, Note_on_c, 0, 71, 0
2, 100827, Note_on_c, 0, 67, 0
2, 100830, Note_on_c, 0, 71, 89
2, 100860, Note_on_c, 0, 72, 93
2, 100862, Note_on_c, 0, 71, 0
2, 100890, Note_on_c, 0, 74, 93
2, 100891, Note_on_c, 0, 72, 0
2, 100894, Control_c, 0, 64, 127
2, 100911, Control_c, 0, 64, 0
2, 100917, Note_on_c, 0, 74, 0
2, 100920, Note_on_c, 0, 76, 98
2, 100950, Note_on_c, 0, 76, 0
2, 100950, Note_on_c, 0, 77, 93
2, 100980, Note_on_c, 0, 79, 93
2, 100983, Note_on_c, 0, 77, 0
2, 101010, Note_on_c, 0, 81, 85
2, 101012, Note_on_c, 0, 79, 0
2, 101040, Note_on_c, 0, 83, 93
2, 101041, Note_on_c, 0, 81, 0
2, 101070, Note_on_c, 0, 79, 89
2, 101073, Note_on_c, 0, 83, 0
2, 101100, Note_on_c, 0, 74, 85
2, 101103, Note_on_c, 0, 79, 0
2, 101130, Note_on_c, 0, 71, 80
2, 101134, Note_on_c, 0, 74, 0
2, 101155, Note_on_c, 0, 71, 0
2, 101160, Note_on_c, 0, 83, 107
2, 101184, Control_c, 0, 64, 127
2, 101200, Control_c, 0, 64, 0
2, 101211, Note_on_c, 0, 83, 0
2, 101220, Note_on_c, 0, 67, 89
2, 101220, Note_on_c, 0, 71, 98
2, 101227, Control_c, 0, 64, 127
2, 101248, Note_on_c, 0, 71, 0
2, 101250, Note_on_c, 0, 67, 0
2, 101262, Control_c, 0, 64, 0
2, 101280, Note_on_c, 0, 69, 93
2, 101280, Note_on_c, 0, 72, 93
2, 101287, Control_c, 0, 64, 127
2, 101299, Note_on_c, 0, 72, 0
2, 101299, Note_on_c, 0, 69, 0
2, 101310, Note_on_c, 0, 72, 102
2, 101328, Control_c, 0, 64, 0
2, 101337, Note_on_c, 0, 72, 0
2, 101340, Note_on_c, 0, 75, 93
2, 101358, Control_c, 0, 64, 127
2, 101370, Note_on_c, 0, 75, 0
2, 101370, Note_on_c, 0, 78, 80
2, 101390, Control_c, 0, 64, 0
2, 101396, Note_on_c, 0, 78, 0
2, 101400, Note_on_c, 0, 81, 93
2, 101415, Control_c, 0, 64, 127
2, 101430, Note_on_c, 0, 78, 85
2, 101434, Note_on_c, 0, 81, 0
2, 101454, Control_c, 0, 64, 0
2, 101460, Note_on_c, 0, 75, 76
2, 101464, Note_on_c, 0, 78, 0
2, 101474, Control_c, 0, 64, 127
2, 101490, Note_on_c, 0, 72, 80
2, 101491, Note_on_c, 0, 75, 0
2, 101508, Note_on_c, 0, 72, 0
2, 101511, Control_c, 0, 64, 0
2, 101520, Note_on_c, 0, 84, 89
2, 101542, Control_c, 0, 64, 127
2, 101550, Note_on_c, 0, 81, 89
2, 101551, Note_on_c, 0, 84, 0
2, 101572, Control_c, 0, 64, 0
2, 101580, Note_on_c, 0, 78, 85
2, 101583, Note_on_c, 0, 81, 0
2, 101599, Control_c, 0, 64, 127
2, 101607, Note_on_c, 0, 78, 0
2, 101610, Note_on_c, 0, 75, 93
2, 101634, Control_c, 0, 64, 0
2, 101635, Note_on_c, 0, 75, 0
2, 101640, Note_on_c, 0, 87, 98
2, 101697, Control_c, 0, 64, 127
2, 101700, Note_on_c, 0, 63, 76
2, 101700, Note_on_c, 0, 69, 93
2, 101700, Note_on_c, 0, 60, 89
2, 101711, Note_on_c, 0, 87, 0
2, 101722, Note_on_c, 0, 69, 0
2, 101723, Note_on_c, 0, 63, 0
2, 101723, Note_on_c, 0, 60, 0
2, 101746, Control_c, 0, 64, 0
2, 101760, Note_on_c, 0, 60, 85
2, 101760, Note_on_c, 0, 64, 89
2, 101760, Note_on_c, 0, 67, 89
2, 101760, Note_on_c, 0, 64, 93
2, 101760, Note_on_c, 0, 60, 93
2, 101760, Note_on_c, 0, 67, 98
2, 101760, Control_c, 0, 64, 127
2, 101772, Note_on_c, 0, 67, 0
2, 101774, Note_on_c, 0, 64, 0
2, 101775, Note_on_c, 0, 60, 0
2, 101784, Note_on_c, 0, 67, 0
2, 101785, Note_on_c, 0, 64, 0
2, 101790, Note_on_c, 0, 60, 0
2, 101790, Note_on_c, 0, 67, 89
2, 101810, Control_c, 0, 64, 0
2, 101820, Note_on_c, 0, 67, 0
2, 101820, Note_on_c, 0, 69, 98
2, 101850, Note_on_c, 0, 71, 93
2, 101852, Note_on_c, 0, 69, 0
2, 101878, Note_on_c, 0, 71, 0
2, 101880, Note_on_c, 0, 72, 76
2, 101910, Note_on_c, 0, 74, 80
2, 101911, Note_on_c, 0, 72, 0
2, 101940, Note_on_c, 0, 76, 85
2, 101946, Note_on_c, 0, 74, 0
2, 101949, Control_c, 0, 64, 127
2, 101967, Note_on_c, 0, 76, 0
2, 101970, Note_on_c, 0, 77, 80
2, 101987, Note_on_c, 0, 77, 0
2, 101997, Control_c, 0, 64, 0
2, 102000, Note_on_c, 0, 81, 93
2, 102030, Note_on_c, 0, 81, 0
2, 102030, Note_on_c, 0, 79, 85
2, 102034, Control_c, 0, 64, 127
2, 102060, Note_on_c, 0, 77, 85
2, 102062, Control_c, 0, 64, 0
2, 102065, Note_on_c, 0, 79, 0
2, 102083, Control_c, 0, 64, 127
2, 102090, Note_on_c, 0, 76, 76
2, 102093, Note_on_c, 0, 77, 0
2, 102112, Note_on_c, 0, 76, 0
2, 102117, Control_c, 0, 64, 0
2, 102120, Note_on_c, 0, 77, 80
2, 102150, Note_on_c, 0, 79, 93
2, 102151, Control_c, 0, 64, 127
2, 102153, Note_on_c, 0, 77, 0
2, 102162, Control_c, 0, 64, 0
2, 102178, Note_on_c, 0, 79, 0
2, 102180, Note_on_c, 0, 81, 80
2, 102187, Control_c, 0, 64, 127
2, 102207, Note_on_c, 0, 81, 0
2, 102210, Note_on_c, 0, 83, 80
2, 102234, Note_on_c, 0, 83, 0
2, 102238, Control_c, 0, 64, 0
2, 102240, Note_on_c, 0, 84, 89
2, 102268, Note_on_c, 0, 84, 0
2, 102270, Note_on_c, 0, 83, 85
2, 102272, Control_c, 0, 64, 127
2, 102295, Control_c, 0, 64, 0
2, 102300, Note_on_c, 0, 81, 80
2, 102302, Note_on_c, 0, 83, 0
2, 102319, Control_c, 0, 64, 127
2, 102330, Note_on_c, 0, 79, 93
2, 102336, Note_on_c, 0, 81, 0
2, 102342, Note_on_c, 0, 79, 0
2, 102354, Control_c, 0, 64, 0
2, 102360, Note_on_c, 0, 81, 93
2, 102385, Control_c, 0, 64, 127
2, 102387, Note_on_c, 0, 81, 0
2, 102390, Note_on_c, 0, 83, 93
2, 102415, Note_on_c, 0, 83, 0
2, 102420, Note_on_c, 0, 84, 93
2, 102420, Control_c, 0, 64, 0
2, 102446, Control_c, 0, 64, 127
2, 102449, Note_on_c, 0, 84, 0
2, 102450, Note_on_c, 0, 86, 98
2, 102470, Note_on_c, 0, 86, 0
2, 102475, Control_c, 0, 64, 0
2, 102480, Note_on_c, 0, 88, 80
2, 102480, Note_on_c, 0, 79, 93
2, 102503, Control_c, 0, 64, 127
2, 102507, Note_on_c, 0, 88, 0
2, 102510, Note_on_c, 0, 87, 76
2, 102518, Note_on_c, 0, 79, 0
2, 102536, Note_on_c, 0, 87, 0
2, 102536, Control_c, 0, 64, 0
2, 102540, Note_on_c, 0, 88, 85
2, 102540, Note_on_c, 0, 79, 76
2, 102561, Control_c, 0, 64, 127
2, 102568, Note_on_c, 0, 88, 0
2, 102570, Note_on_c, 0, 87, 72
2, 102577, Note_on_c, 0, 79, 0
2, 102594, Note_on_c, 0, 87, 0
2, 102594, Control_c, 0, 64, 0
2, 102600, Note_on_c, 0, 88, 89
2, 102600, Note_on_c, 0, 79, 80
2, 102615, Control_c, 0, 64, 127
2, 102628, Note_on_c, 0, 88, 0
2, 102630, Note_on_c, 0, 87, 80
2, 102633, Note_on_c, 0, 79, 0
2, 102652, Note_on_c, 0, 87, 0
2, 102652, Control_c, 0, 64, 0
2, 102660, Note_on_c, 0, 88, 89
2, 102660, Note_on_c, 0, 79, 89
2, 102673, Control_c, 0, 64, 127
2, 102684, Note_on_c, 0, 88, 0
2, 102690, Note_on_c, 0, 87, 64
2, 102692, Note_on_c, 0, 79, 0
2, 102712, Note_on_c, 0, 87, 0
2, 102720, Note_on_c, 0, 88, 89
2, 102720, Control_c, 0, 64, 0
2, 102720, Note_on_c, 0, 79, 93
2, 102743, Control_c, 0, 64, 127
2, 102749, Note_on_c, 0, 88, 0
2, 102750, Note_on_c, 0, 86, 89
2, 102780, Note_on_c, 0, 79, 0
2, 102780, Note_on_c, 0, 84, 93
2, 102782, Note_on_c, 0, 86, 0
2, 102788, Control_c, 0, 64, 0
2, 102810, Note_on_c, 0, 83, 85
2, 102814, Control_c, 0, 64, 127
2, 102817, Note_on_c, 0, 84, 0
2, 102819, Control_c, 0, 64, 0
2, 102840, Note_on_c, 0, 81, 85
2, 102842, Note_on_c, 0, 83, 0
2, 102848, Control_c, 0, 64, 127
2, 102867, Control_c, 0, 64, 0
2, 102868, Note_on_c, 0, 81, 0
2, 102870, Note_on_c, 0, 79, 89
2, 102894, Control_c, 0, 64, 127
2, 102900, Note_on_c, 0, 77, 76
2, 102916, Note_on_c, 0, 79, 0
2, 102926, Note_on_c, 0, 77, 0
2, 102930, Note_on_c, 0, 76, 64
2, 102952, Note_on_c, 0, 76, 0
2, 102953, Control_c, 0, 64, 0
2, 102960, Note_on_c, 0, 84, 93
2, 102985, Control_c, 0, 64, 127
2, 102989, Note_on_c, 0, 84, 0
2, 102990, Note_on_c, 0, 83, 85
2, 103014, Control_c, 0, 64, 0
2, 103020, Note_on_c, 0, 81, 89
2, 103024, Note_on_c, 0, 83, 0
2, 103039, Control_c, 0, 64, 127
2, 103048, Control_c, 0, 64, 0
2, 103050, Note_on_c, 0, 79, 89
2, 103055, Note_on_c, 0, 81, 0
2, 103072, Control_c, 0, 64, 127
2, 103080, Note_on_c, 0, 77, 80
2, 103081, Note_on_c, 0, 79, 0
2, 103096, Control_c, 0, 64, 0
2, 103110, Note_on_c, 0, 76, 93
2, 103115, Note_on_c, 0, 77, 0
2, 103120, Control_c, 0, 64, 127
2, 103137, Control_c, 0, 64, 0
2, 103140, Note_on_c, 0, 74, 89
2, 103144, Note_on_c, 0, 76, 0
2, 103158, Control_c, 0, 64, 127
2, 103170, Note_on_c, 0, 72, 76
2, 103176, Note_on_c, 0, 74, 0
2, 103189, Control_c, 0, 64, 0
2, 103196, Note_on_c, 0, 72, 0
2, 103200, Note_on_c, 0, 76, 85
2, 103200, Note_on_c, 0, 65, 80
2, 103213, Control_c, 0, 64, 127
2, 103215, Note_on_c, 0, 74, 76
2, 103219, Note_on_c, 0, 76, 0
2, 103229, Note_on_c, 0, 65, 0
2, 103230, Note_on_c, 0, 74, 0
2, 103230, Note_on_c, 0, 76, 68
2, 103230, Note_on_c, 0, 71, 57
2, 103233, Control_c, 0, 64, 0
2, 103245, Note_on_c, 0, 74, 62
2, 103247, Note_on_c, 0, 76, 0
2, 103259, Note_on_c, 0, 74, 0
2, 103259, Note_on_c, 0, 71, 0
2, 103260, Note_on_c, 0, 76, 80
2, 103260, Note_on_c, 0, 67, 76
2, 103264, Control_c, 0, 64, 127
2, 103275, Note_on_c, 0, 76, 0
2, 103275, Note_on_c, 0, 74, 64
2, 103289, Note_on_c, 0, 67, 0
2, 103290, Note_on_c, 0, 74, 0
2, 103290, Note_on_c, 0, 76, 68
2, 103290, Note_on_c, 0, 71, 80
2, 103303, Note_on_c, 0, 76, 0
2, 103305, Note_on_c, 0, 74, 62
2, 103308, Control_c, 0, 64, 0
2, 103319, Note_on_c, 0, 71, 0
2, 103320, Note_on_c, 0, 74, 0
2, 103320, Note_on_c, 0, 76, 76
2, 103320, Note_on_c, 0, 65, 68
2, 103329, Control_c, 0, 64, 127
2, 103335, Note_on_c, 0, 74, 62
2, 103336, Note_on_c, 0, 76, 0
2, 103349, Note_on_c, 0, 65, 0
2, 103350, Note_on_c, 0, 74, 0
2, 103350, Note_on_c, 0, 76, 72
2, 103350, Note_on_c, 0, 71, 64
2, 103363, Note_on_c, 0, 76, 0
2, 103365, Note_on_c, 0, 74, 64
2, 103378, Note_on_c, 0, 74, 0
2, 103379, Note_on_c, 0, 71, 0
2, 103380, Note_on_c, 0, 76, 72
2, 103380, Note_on_c, 0, 67, 64
2, 103393, Note_on_c, 0, 76, 0
2, 103395, Note_on_c, 0, 74, 62
2, 103409, Note_on_c, 0, 67, 0
2, 103410, Note_on_c, 0, 76, 68
2, 103410, Note_on_c, 0, 71, 72
2, 103411, Note_on_c, 0, 74, 0
2, 103425, Note_on_c, 0, 76, 0
2, 103425, Note_on_c, 0, 74, 64
2, 103434, Control_c, 0, 64, 0
2, 103439, Note_on_c, 0, 71, 0
2, 103440, Note_on_c, 0, 74, 0
2, 103440, Note_on_c, 0, 76, 80
2, 103440, Note_on_c, 0, 65, 76
2, 103453, Note_on_c, 0, 76, 0
2, 103455, Note_on_c, 0, 74, 62
2, 103456, Control_c, 0, 64, 127
2, 103469, Note_on_c, 0, 65, 0
2, 103470, Note_on_c, 0, 74, 0
2, 103470, Note_on_c, 0, 76, 80
2, 103470, Note_on_c, 0, 71, 68
2, 103484, Note_on_c, 0, 76, 0
2, 103485, Note_on_c, 0, 74, 62
2, 103499, Note_on_c, 0, 74, 0
2, 103499, Note_on_c, 0, 71, 0
2, 103500, Note_on_c, 0, 76, 62
2, 103500, Note_on_c, 0, 67, 62
2, 103514, Note_on_c, 0, 76, 0
2, 103515, Note_on_c, 0, 74, 62
2, 103529, Note_on_c, 0, 74, 0
2, 103529, Note_on_c, 0, 67, 0
2, 103530, Note_on_c, 0, 76, 72
2, 103530, Note_on_c, 0, 71, 64
2, 103545, Note_on_c, 0, 76, 0
2, 103545, Note_on_c, 0, 74, 62
2, 103559, Note_on_c, 0, 74, 0
2, 103559, Note_on_c, 0, 71, 0
2, 103560, Note_on_c, 0, 76, 76
2, 103560, Note_on_c, 0, 65, 62
2, 103573, Note_on_c, 0, 76, 0
2, 103575, Note_on_c, 0, 74, 68
2, 103589, Note_on_c, 0, 65, 0
2, 103590, Note_on_c, 0, 76, 76
2, 103590, Note_on_c, 0, 71, 59
2, 103591, Note_on_c, 0, 74, 0
2, 103603, Note_on_c, 0, 76, 0
2, 103605, Note_on_c, 0, 74, 72
2, 103619, Note_on_c, 0, 74, 0
2, 103619, Note_on_c, 0, 71, 0
2, 103620, Note_on_c, 0, 76, 76
2, 103620, Note_on_c, 0, 67, 64
2, 103634, Note_on_c, 0, 76, 0
2, 103635, Note_on_c, 0, 74, 72
2, 103649, Note_on_c, 0, 74, 0
2, 103649, Note_on_c, 0, 67, 0
2, 103650, Note_on_c, 0, 72, 80
2, 103650, Note_on_c, 0, 71, 64
2, 103664, Note_on_c, 0, 72, 0
2, 103665, Note_on_c, 0, 74, 80
2, 103668, Control_c, 0, 64, 0
2, 103679, Note_on_c, 0, 74, 0
2, 103679, Note_on_c, 0, 71, 0
2, 103680, Note_on_c, 0, 64, 80
2, 103680, Note_on_c, 0, 72, 89
2, 103698, Control_c, 0, 64, 127
2, 103774, Note_on_c, 0, 72, 0
2, 103774, Note_on_c, 0, 64, 0
2, 103789, Control_c, 0, 64, 0
2, 103980, Note_on_c, 0, 74, 62
2, 103991, Note_on_c, 0, 74, 0
2, 104040, Note_on_c, 0, 76, 62
2, 104050, Note_on_c, 0, 76, 0
2, 104100, Note_on_c, 0, 77, 64
2, 104112, Note_on_c, 0, 77, 0
2, 104160, Note_on_c, 0, 79, 76
2, 104284, Control_c, 0, 64, 127
2, 104319, Note_on_c, 0, 79, 0
2, 104322, Control_c, 0, 64, 0
2, 104340, Note_on_c, 0, 76, 64
2, 104365, Control_c, 0, 64, 127
2, 104390, Note_on_c, 0, 76, 0
2, 104397, Control_c, 0, 64, 0
2, 104400, Note_on_c, 0, 81, 62
2, 104428, Control_c, 0, 64, 127
2, 104543, Note_on_c, 0, 81, 0
2, 104557, Control_c, 0, 64, 0
2, 104580, Note_on_c, 0, 76, 56
2, 104597, Control_c, 0, 64, 127
2, 104633, Note_on_c, 0, 76, 0
2, 104640, Note_on_c, 0, 79, 72
2, 104645, Control_c, 0, 64, 0
2, 104673, Control_c, 0, 64, 127
2, 104700, Note_on_c, 0, 79, 0
2, 104700, Note_on_c, 0, 77, 52
2, 104704, Control_c, 0, 64, 0
2, 104758, Note_on_c, 0, 77, 0
2, 104760, Note_on_c, 0, 76, 56
2, 104769, Note_on_c, 0, 76, 0
2, 104820, Note_on_c, 0, 74, 55
2, 104831, Note_on_c, 0, 74, 0
2, 104870, Control_c, 0, 64, 127
2, 104880, Note_on_c, 0, 72, 49
2, 104932, Control_c, 0, 64, 0
2, 104940, Note_on_c, 0, 72, 0
2, 105000, Note_on_c, 0, 71, 57
2, 105003, Control_c, 0, 64, 127
2, 105056, Note_on_c, 0, 71, 0
2, 105062, Control_c, 0, 64, 0
2, 105120, Note_on_c, 0, 72, 64
2, 105134, Control_c, 0, 64, 127
2, 105235, Control_c, 0, 64, 0
2, 105246, Note_on_c, 0, 72, 0
2, 105420, Note_on_c, 0, 74, 56
2, 105431, Note_on_c, 0, 74, 0
2, 105480, Note_on_c, 0, 76, 56
2, 105491, Note_on_c, 0, 76, 0
2, 105540, Note_on_c, 0, 77, 64
2, 105550, Note_on_c, 0, 77, 0
2, 105600, Note_on_c, 0, 79, 76
2, 105633, Control_c, 0, 64, 127
2, 105722, Control_c, 0, 64, 0
2, 105724, Note_on_c, 0, 79, 0
2, 105780, Note_on_c, 0, 76, 60
2, 105793, Control_c, 0, 64, 127
2, 105839, Note_on_c, 0, 76, 0
2, 105840, Note_on_c, 0, 81, 51
2, 105842, Control_c, 0, 64, 0
2, 105873, Control_c, 0, 64, 127
2, 105924, Note_on_c, 0, 81, 0
2, 105949, Control_c, 0, 64, 0
2, 106020, Note_on_c, 0, 76, 62
2, 106030, Control_c, 0, 64, 127
2, 106080, Control_c, 0, 64, 0
2, 106080, Note_on_c, 0, 77, 76
2, 106082, Note_on_c, 0, 76, 0
2, 106137, Note_on_c, 0, 77, 0
2, 106140, Note_on_c, 0, 79, 72
2, 106170, Note_on_c, 0, 81, 76
2, 106171, Note_on_c, 0, 79, 0
2, 106200, Note_on_c, 0, 79, 76
2, 106207, Note_on_c, 0, 81, 0
2, 106230, Note_on_c, 0, 77, 64
2, 106232, Note_on_c, 0, 79, 0
2, 106260, Note_on_c, 0, 77, 0
2, 106260, Note_on_c, 0, 76, 62
2, 106264, Control_c, 0, 64, 127
2, 106280, Control_c, 0, 64, 0
2, 106288, Note_on_c, 0, 76, 0
2, 106290, Note_on_c, 0, 74, 57
2, 106320, Note_on_c, 0, 72, 57
2, 106323, Note_on_c, 0, 74, 0
2, 106328, Control_c, 0, 64, 127
2, 106376, Control_c, 0, 64, 0
2, 106386, Note_on_c, 0, 72, 0
2, 106440, Note_on_c, 0, 71, 62
2, 106467, Control_c, 0, 64, 127
2, 106491, Note_on_c, 0, 71, 0
2, 106514, Control_c, 0, 64, 0
2, 106560, Note_on_c, 0, 72, 93
2, 106566, Control_c, 0, 64, 127
2, 106590, Note_on_c, 0, 67, 80
2, 106592, Note_on_c, 0, 72, 0
2, 106605, Control_c, 0, 64, 0
2, 106620, Note_on_c, 0, 69, 98
2, 106623, Note_on_c, 0, 67, 0
2, 106629, Control_c, 0, 64, 127
2, 106646, Note_on_c, 0, 69, 0
2, 106650, Note_on_c, 0, 71, 93
2, 106664, Note_on_c, 0, 71, 0
2, 106669, Control_c, 0, 64, 0
2, 106680, Note_on_c, 0, 72, 93
2, 106704, Note_on_c, 0, 72, 0
2, 106710, Note_on_c, 0, 74, 93
2, 106711, Control_c, 0, 64, 127
2, 106712, Control_c, 0, 64, 0
2, 106738, Note_on_c, 0, 74, 0
2, 106740, Note_on_c, 0, 76, 93
2, 106745, Control_c, 0, 64, 127
2, 106768, Note_on_c, 0, 76, 0
2, 106770, Note_on_c, 0, 77, 89
2, 106778, Control_c, 0, 64, 0
2, 106797, Note_on_c, 0, 77, 0
2, 106800, Note_on_c, 0, 79, 93
2, 106821, Control_c, 0, 64, 127
2, 106830, Note_on_c, 0, 76, 85
2, 106831, Note_on_c, 0, 79, 0
2, 106844, Control_c, 0, 64, 0
2, 106858, Note_on_c, 0, 76, 0
2, 106860, Note_on_c, 0, 77, 80
2, 106875, Control_c, 0, 64, 127
2, 106890, Note_on_c, 0, 74, 89
2, 106893, Note_on_c, 0, 77, 0
2, 106910, Control_c, 0, 64, 0
2, 106911, Note_on_c, 0, 74, 0
2, 106920, Note_on_c, 0, 76, 98
2, 106920, Note_on_c, 0, 65, 89
2, 106920, Note_on_c, 0, 67, 89
2, 106939, Control_c, 0, 64, 127
2, 106950, Note_on_c, 0, 72, 85
2, 106952, Note_on_c, 0, 76, 0
2, 106970, Control_c, 0, 64, 0
2, 106975, Note_on_c, 0, 72, 0
2, 106980, Note_on_c, 0, 74, 89
2, 106992, Control_c, 0, 64, 127
2, 107010, Note_on_c, 0, 74, 0
2, 107010, Note_on_c, 0, 71, 80
2, 107011, Note_on_c, 0, 67, 0
2, 107012, Note_on_c, 0, 65, 0
2, 107025, Note_on_c, 0, 71, 0
2, 107030, Control_c, 0, 64, 0
2, 107040, Note_on_c, 0, 72, 93
2, 107040, Note_on_c, 0, 64, 89
2, 107040, Note_on_c, 0, 67, 98
2, 107051, Control_c, 0, 64, 127
2, 107064, Note_on_c, 0, 67, 0
2, 107065, Note_on_c, 0, 64, 0
2, 107065, Note_on_c, 0, 72, 0
2, 107070, Note_on_c, 0, 67, 98
2, 107082, Control_c, 0, 64, 0
2, 107100, Note_on_c, 0, 69, 93
2, 107101, Note_on_c, 0, 67, 0
2, 107102, Control_c, 0, 64, 127
2, 107121, Control_c, 0, 64, 0
2, 107129, Note_on_c, 0, 69, 0
2, 107130, Note_on_c, 0, 71, 89
2, 107138, Control_c, 0, 64, 127
2, 107152, Note_on_c, 0, 71, 0
2, 107156, Control_c, 0, 64, 0
2, 107160, Note_on_c, 0, 72, 89
2, 107178, Control_c, 0, 64, 127
2, 107186, Note_on_c, 0, 72, 0
2, 107190, Note_on_c, 0, 74, 93
2, 107194, Control_c, 0, 64, 0
2, 107217, Control_c, 0, 64, 127
2, 107218, Note_on_c, 0, 74, 0
2, 107220, Note_on_c, 0, 76, 89
2, 107230, Control_c, 0, 64, 0
2, 107249, Control_c, 0, 64, 127
2, 107250, Note_on_c, 0, 76, 0
2, 107250, Note_on_c, 0, 77, 85
2, 107263, Control_c, 0, 64, 0
2, 107277, Note_on_c, 0, 77, 0
2, 107280, Note_on_c, 0, 79, 93
2, 107291, Control_c, 0, 64, 127
2, 107309, Control_c, 0, 64, 0
2, 107310, Note_on_c, 0, 76, 85
2, 107316, Note_on_c, 0, 79, 0
2, 107332, Control_c, 0, 64, 127
2, 107340, Note_on_c, 0, 76, 0
2, 107340, Note_on_c, 0, 77, 89
2, 107344, Control_c, 0, 64, 0
2, 107368, Control_c, 0, 64, 127
2, 107370, Note_on_c, 0, 74, 80
2, 107375, Note_on_c, 0, 77, 0
2, 107390, Control_c, 0, 64, 0
2, 107393, Note_on_c, 0, 74, 0
2, 107400, Note_on_c, 0, 76, 102
2, 107400, Note_on_c, 0, 67, 80
2, 107400, Note_on_c, 0, 65, 93
2, 107420, Control_c, 0, 64, 127
2, 107430, Note_on_c, 0, 76, 0
2, 107430, Note_on_c, 0, 72, 80
2, 107451, Control_c, 0, 64, 0
2, 107457, Note_on_c, 0, 72, 0
2, 107460, Note_on_c, 0, 74, 93
2, 107470, Control_c, 0, 64, 127
2, 107482, Note_on_c, 0, 67, 0
2, 107485, Note_on_c, 0, 65, 0
2, 107489, Note_on_c, 0, 74, 0
2, 107490, Note_on_c, 0, 71, 85
2, 107506, Note_on_c, 0, 71, 0
2, 107506, Control_c, 0, 64, 0
2, 107520, Note_on_c, 0, 72, 93
2, 107520, Note_on_c, 0, 64, 89
2, 107520, Note_on_c, 0, 67, 93
2, 107525, Control_c, 0, 64, 127
2, 107542, Note_on_c, 0, 67, 0
2, 107543, Note_on_c, 0, 64, 0
2, 107545, Note_on_c, 0, 72, 0
2, 107550, Note_on_c, 0, 67, 98
2, 107567, Control_c, 0, 64, 0
2, 107579, Note_on_c, 0, 67, 0
2, 107580, Note_on_c, 0, 69, 93
2, 107587, Control_c, 0, 64, 127
2, 107608, Note_on_c, 0, 69, 0
2, 107610, Note_on_c, 0, 71, 93
2, 107624, Note_on_c, 0, 71, 0
2, 107633, Control_c, 0, 64, 0
2, 107640, Note_on_c, 0, 72, 98
2, 107652, Control_c, 0, 64, 127
2, 107667, Note_on_c, 0, 72, 0
2, 107670, Note_on_c, 0, 74, 93
2, 107690, Note_on_c, 0, 74, 0
2, 107692, Control_c, 0, 64, 0
2, 107700, Note_on_c, 0, 76, 93
2, 107710, Control_c, 0, 64, 127
2, 107727, Note_on_c, 0, 76, 0
2, 107730, Note_on_c, 0, 77, 85
2, 107748, Control_c, 0, 64, 0
2, 107756, Note_on_c, 0, 77, 0
2, 107760, Note_on_c, 0, 79, 93
2, 107767, Control_c, 0, 64, 127
2, 107790, Note_on_c, 0, 76, 93
2, 107793, Note_on_c, 0, 79, 0
2, 107815, Control_c, 0, 64, 0
2, 107818, Note_on_c, 0, 76, 0
2, 107820, Note_on_c, 0, 77, 72
2, 107834, Control_c, 0, 64, 127
2, 107850, Note_on_c, 0, 74, 80
2, 107852, Note_on_c, 0, 77, 0
2, 107872, Note_on_c, 0, 74, 0
2, 107875, Control_c, 0, 64, 0
2, 107880, Note_on_c, 0, 76, 80
2, 107896, Control_c, 0, 64, 127
2, 107910, Note_on_c, 0, 72, 64
2, 107913, Note_on_c, 0, 76, 0
2, 107929, Control_c, 0, 64, 0
2, 107936, Note_on_c, 0, 72, 0
2, 107940, Note_on_c, 0, 74, 93
2, 107948, Control_c, 0, 64, 127
2, 107970, Note_on_c, 0, 71, 72
2, 107972, Note_on_c, 0, 74, 0
2, 107983, Note_on_c, 0, 71, 0
2, 107988, Control_c, 0, 64, 0
2, 108000, Note_on_c, 0, 72, 107
2, 108000, Note_on_c, 0, 84, 107
2, 108021, Note_on_c, 0, 72, 0
2, 108030, Note_on_c, 0, 81, 85
2, 108049, Note_on_c, 0, 81, 0
2, 108051, Note_on_c, 0, 84, 0
2, 108060, Note_on_c, 0, 83, 93
2, 108060, Note_on_c, 0, 71, 93
2, 108086, Note_on_c, 0, 71, 0
2, 108090, Note_on_c, 0, 83, 0
2, 108090, Note_on_c, 0, 79, 80
2, 108115, Note_on_c, 0, 79, 0
2, 108120, Note_on_c, 0, 81, 93
2, 108120, Note_on_c, 0, 69, 98
2, 108133, Note_on_c, 0, 69, 0
2, 108150, Note_on_c, 0, 77, 60
2, 108152, Note_on_c, 0, 81, 0
2, 108168, Note_on_c, 0, 77, 0
2, 108180, Note_on_c, 0, 79, 89
2, 108180, Note_on_c, 0, 67, 89
2, 108194, Note_on_c, 0, 67, 0
2, 108210, Note_on_c, 0, 76, 85
2, 108211, Note_on_c, 0, 79, 0
2, 108223, Note_on_c, 0, 76, 0
2, 108240, Note_on_c, 0, 77, 102
2, 108240, Note_on_c, 0, 65, 89
2, 108269, Note_on_c, 0, 77, 0
2, 108270, Note_on_c, 0, 74, 76
2, 108279, Note_on_c, 0, 65, 0
2, 108284, Note_on_c, 0, 74, 0
2, 108300, Note_on_c, 0, 76, 98
2, 108300, Note_on_c, 0, 64, 85
2, 108327, Note_on_c, 0, 76, 0
2, 108330, Note_on_c, 0, 72, 76
2, 108331, Note_on_c, 0, 64, 0
2, 108343, Note_on_c, 0, 72, 0
2, 108360, Note_on_c, 0, 74, 107
2, 108360, Note_on_c, 0, 62, 93
2, 108387, Note_on_c, 0, 74, 0
2, 108390, Note_on_c, 0, 71, 76
2, 108402, Note_on_c, 0, 71, 0
2, 108403, Note_on_c, 0, 62, 0
2, 108420, Note_on_c, 0, 72, 89
2, 108420, Note_on_c, 0, 60, 85
2, 108450, Note_on_c, 0, 69, 72
2, 108451, Note_on_c, 0, 60, 0
2, 108451, Note_on_c, 0, 72, 0
2, 108462, Note_on_c, 0, 69, 0
2, 108480, Note_on_c, 0, 67, 113
2, 108480, Note_on_c, 0, 55, 98
2, 108508, Control_c, 0, 64, 127
2, 108511, Note_on_c, 0, 55, 0
2, 108514, Note_on_c, 0, 67, 0
2, 108581, Control_c, 0, 64, 0
2, 108600, Note_on_c, 0, 79, 107
2, 108600, Note_on_c, 0, 84, 102
2, 108600, Note_on_c, 0, 76, 113
2, 108600, Note_on_c, 0, 67, 93
2, 108626, Control_c, 0, 64, 127
2, 108648, Note_on_c, 0, 84, 0
2, 108652, Note_on_c, 0, 79, 0
2, 108653, Note_on_c, 0, 67, 0
2, 108657, Note_on_c, 0, 76, 0
2, 108717, Control_c, 0, 64, 0
2, 108720, Note_on_c, 0, 67, 113
2, 108766, Note_on_c, 0, 67, 0
2, 108771, Control_c, 0, 64, 127
2, 108830, Control_c, 0, 64, 0
2, 108840, Note_on_c, 0, 79, 98
2, 108840, Note_on_c, 0, 83, 98
2, 108840, Note_on_c, 0, 74, 113
2, 108840, Note_on_c, 0, 77, 98
2, 108840, Note_on_c, 0, 67, 93
2, 108866, Control_c, 0, 64, 127
2, 108896, Note_on_c, 0, 67, 0
2, 108900, Note_on_c, 0, 77, 0
2, 108902, Note_on_c, 0, 74, 0
2, 108902, Note_on_c, 0, 79, 0
2, 108904, Note_on_c, 0, 83, 0
2, 108949, Control_c, 0, 64, 0
2, 108960, Note_on_c, 0, 84, 98
2, 108960, Note_on_c, 0, 79, 107
2, 108960, Note_on_c, 0, 76, 113
2, 108960, Note_on_c, 0, 67, 98
2, 108978, Control_c, 0, 64, 127
2, 109015, Note_on_c, 0, 84, 0
2, 109016, Note_on_c, 0, 79, 0
2, 109017, Note_on_c, 0, 67, 0
2, 109023, Note_on_c, 0, 76, 0
2, 109071, Control_c, 0, 64, 0
2, 109080, Note_on_c, 0, 72, 119
2, 109080, Note_on_c, 0, 64, 93
2, 109080, Note_on_c, 0, 67, 93
2, 109095, Control_c, 0, 64, 127
2, 109158, Note_on_c, 0, 72, 0
2, 109170, Note_on_c, 0, 72, 113
2, 109176, Note_on_c, 0, 67, 0
2, 109178, Note_on_c, 0, 64, 0
2, 109181, Note_on_c, 0, 72, 0
2, 109194, Control_c, 0, 64, 0
2, 109200, Note_on_c, 0, 72, 113
2, 109200, Note_on_c, 0, 64, 89
2, 109200, Note_on_c, 0, 67, 89
2, 109219, Control_c, 0, 64, 127
2, 109319, Note_on_c, 0, 67, 0
2, 109319, Note_on_c, 0, 72, 0
2, 109320, Note_on_c, 0, 64, 0
2, 109320, Control_c, 0, 64, 0
2, 109920, Note_on_c, 0, 72, 76
2, 109920, Note_on_c, 0, 69, 68
2, 109932, Control_c, 0, 64, 127
2, 110037, Note_on_c, 0, 72, 0
2, 110040, Note_on_c, 0, 77, 80
2, 110087, Note_on_c, 0, 69, 0
2, 110096, Note_on_c, 0, 77, 0
2, 110096, Control_c, 0, 64, 0
2, 110100, Note_on_c, 0, 81, 85
2, 110100, Note_on_c, 0, 72, 72
2, 110113, Control_c, 0, 64, 127
2, 110154, Control_c, 0, 64, 0
2, 110160, Note_on_c, 0, 70, 60
2, 110160, Note_on_c, 0, 79, 85
2, 110163, Note_on_c, 0, 81, 0
2, 110164, Note_on_c, 0, 72, 0
2, 110173, Control_c, 0, 64, 127
2, 110203, Note_on_c, 0, 79, 0
2, 110205, Note_on_c, 0, 82, 76
2, 110216, Control_c, 0, 64, 0
2, 110217, Note_on_c, 0, 82, 0
2, 110220, Note_on_c, 0, 76, 80
2, 110220, Note_on_c, 0, 67, 64
2, 110223, Note_on_c, 0, 70, 0
2, 110244, Control_c, 0, 64, 127
2, 110261, Note_on_c, 0, 76, 0
2, 110265, Note_on_c, 0, 79, 80
2, 110275, Note_on_c, 0, 67, 0
2, 110277, Control_c, 0, 64, 0
2, 110280, Note_on_c, 0, 77, 80
2, 110280, Note_on_c, 0, 72, 59
2, 110283, Note_on_c, 0, 79, 0
2, 110299, Control_c, 0, 64, 127
2, 110396, Note_on_c, 0, 72, 0
2, 110397, Control_c, 0, 64, 0
2, 110400, Note_on_c, 0, 69, 62
2, 110411, Control_c, 0, 64, 127
2, 110430, Note_on_c, 0, 76, 80
2, 110434, Note_on_c, 0, 77, 0
2, 110436, Note_on_c, 0, 69, 0
2, 110436, Control_c, 0, 64, 0
2, 110445, Note_on_c, 0, 77, 72
2, 110446, Note_on_c, 0, 76, 0
2, 110459, Note_on_c, 0, 77, 0
2, 110460, Note_on_c, 0, 79, 64
2, 110475, Note_on_c, 0, 77, 68
2, 110478, Note_on_c, 0, 79, 0
2, 110490, Note_on_c, 0, 76, 64
2, 110493, Note_on_c, 0, 77, 0
2, 110505, Note_on_c, 0, 76, 0
2, 110505, Note_on_c, 0, 74, 55
2, 110520, Note_on_c, 0, 72, 62
2, 110521, Note_on_c, 0, 74, 0
2, 110528, Control_c, 0, 64, 127
2, 110575, Note_on_c, 0, 72, 0
2, 110578, Control_c, 0, 64, 0
2, 110640, Note_on_c, 0, 66, 64
2, 110640, Note_on_c, 0, 69, 93
2, 110647, Control_c, 0, 64, 127
2, 110735, Note_on_c, 0, 66, 0
2, 110737, Note_on_c, 0, 69, 0
2, 110760, Note_on_c, 0, 70, 76
2, 110760, Note_on_c, 0, 67, 80
2, 110763, Control_c, 0, 64, 0
2, 110777, Control_c, 0, 64, 127
2, 110808, Note_on_c, 0, 70, 0
2, 110810, Note_on_c, 0, 67, 0
2, 110819, Control_c, 0, 64, 0
2, 110820, Note_on_c, 0, 72, 80
2, 110820, Note_on_c, 0, 69, 89
2, 110830, Control_c, 0, 64, 127
2, 110866, Note_on_c, 0, 69, 0
2, 110866, Note_on_c, 0, 72, 0
2, 110880, Note_on_c, 0, 70, 62
2, 110880, Note_on_c, 0, 74, 80
2, 110882, Control_c, 0, 64, 0
2, 110893, Control_c, 0, 64, 127
2, 110918, Note_on_c, 0, 70, 0
2, 110919, Note_on_c, 0, 74, 0
2, 110936, Control_c, 0, 64, 0
2, 110940, Note_on_c, 0, 70, 68
2, 110940, Note_on_c, 0, 67, 68
2, 110948, Control_c, 0, 64, 127
2, 110967, Note_on_c, 0, 70, 0
2, 110971, Note_on_c, 0, 67, 0
2, 110999, Control_c, 0, 64, 0
2, 111000, Note_on_c, 0, 67, 80
2, 111000, Note_on_c, 0, 64, 76
2, 111016, Control_c, 0, 64, 127
2, 111153, Note_on_c, 0, 64, 0
2, 111157, Note_on_c, 0, 67, 0
2, 111165, Note_on_c, 0, 65, 76
2, 111165, Note_on_c, 0, 69, 62
2, 111177, Note_on_c, 0, 69, 0
2, 111177, Note_on_c, 0, 65, 0
2, 111178, Control_c, 0, 64, 0
2, 111180, Note_on_c, 0, 65, 68
2, 111180, Note_on_c, 0, 62, 72
2, 111192, Control_c, 0, 64, 127
2, 111210, Note_on_c, 0, 62, 0
2, 111213, Note_on_c, 0, 65, 0
2, 111225, Note_on_c, 0, 65, 64
2, 111225, Note_on_c, 0, 69, 64
2, 111235, Control_c, 0, 64, 0
2, 111236, Note_on_c, 0, 69, 0
2, 111237, Note_on_c, 0, 65, 0
2, 111240, Note_on_c, 0, 64, 76
2, 111240, Note_on_c, 0, 67, 80
2, 111249, Control_c, 0, 64, 127
2, 111310, Note_on_c, 0, 64, 0
2, 111312, Note_on_c, 0, 67, 0
2, 111313, Control_c, 0, 64, 0
2, 111360, Note_on_c, 0, 69, 85
2, 111362, Control_c, 0, 64, 127
2, 111532, Control_c, 0, 64, 0
2, 111540, Note_on_c, 0, 70, 89
2, 111541, Note_on_c, 0, 69, 0
2, 111548, Control_c, 0, 64, 127
2, 111570, Note_on_c, 0, 72, 93
2, 111572, Note_on_c, 0, 70, 0
2, 111580, Control_c, 0, 64, 0
2, 111600, Note_on_c, 0, 72, 0
2, 111600, Note_on_c, 0, 74, 93
2, 111605, Control_c, 0, 64, 127
2, 111618, Control_c, 0, 64, 0
2, 111630, Note_on_c, 0, 74, 0
2, 111630, Note_on_c, 0, 76, 89
2, 111660, Note_on_c, 0, 76, 0
2, 111660, Note_on_c, 0, 77, 89
2, 111690, Note_on_c, 0, 79, 89
2, 111692, Note_on_c, 0, 77, 0
2, 111719, Note_on_c, 0, 79, 0
2, 111720, Note_on_c, 0, 81, 93
2, 111723, Control_c, 0, 64, 127
2, 111750, Note_on_c, 0, 79, 76
2, 111752, Note_on_c, 0, 81, 0
2, 111774, Control_c, 0, 64, 0
2, 111780, Note_on_c, 0, 82, 93
2, 111781, Note_on_c, 0, 79, 0
2, 111808, Control_c, 0, 64, 127
2, 111810, Note_on_c, 0, 81, 80
2, 111815, Note_on_c, 0, 82, 0
2, 111836, Control_c, 0, 64, 0
2, 111840, Note_on_c, 0, 81, 0
2, 111840, Note_on_c, 0, 86, 102
2, 111869, Note_on_c, 0, 86, 0
2, 111870, Note_on_c, 0, 84, 80
2, 111900, Note_on_c, 0, 88, 89
2, 111903, Note_on_c, 0, 84, 0
2, 111914, Control_c, 0, 64, 127
2, 111930, Note_on_c, 0, 88, 0
2, 111930, Note_on_c, 0, 89, 93
2, 111944, Control_c, 0, 64, 0
2, 111960, Note_on_c, 0, 82, 85
2, 111962, Note_on_c, 0, 89, 0
2, 111978, Control_c, 0, 64, 127
2, 112021, Control_c, 0, 64, 0
2, 112028, Note_on_c, 0, 82, 0
2, 112065, Note_on_c, 0, 79, 76
2, 112078, Note_on_c, 0, 79, 0
2, 112080, Note_on_c, 0, 81, 85
2, 112088, Control_c, 0, 64, 127
2, 112125, Note_on_c, 0, 84, 80
2, 112126, Note_on_c, 0, 81, 0
2, 112133, Control_c, 0, 64, 0
2, 112140, Note_on_c, 0, 77, 72
2, 112141, Note_on_c, 0, 84, 0
2, 112158, Control_c, 0, 64, 127
2, 112178, Note_on_c, 0, 77, 0
2, 112185, Note_on_c, 0, 81, 72
2, 112195, Control_c, 0, 64, 0
2, 112200, Note_on_c, 0, 72, 59
2, 112200, Note_on_c, 0, 65, 76
2, 112200, Note_on_c, 0, 69, 62
2, 112204, Note_on_c, 0, 81, 0
2, 112216, Control_c, 0, 64, 127
2, 112276, Note_on_c, 0, 65, 0
2, 112279, Note_on_c, 0, 69, 0
2, 112319, Control_c, 0, 64, 0
2, 112320, Note_on_c, 0, 67, 72
2, 112320, Note_on_c, 0, 70, 59
2, 112336, Control_c, 0, 64, 127
2, 112380, Note_on_c, 0, 76, 89
2, 112382, Note_on_c, 0, 72, 0
2, 112395, Note_on_c, 0, 70, 0
2, 112398, Note_on_c, 0, 67, 0
2, 112402, Note_on_c, 0, 76, 0
2, 112440, Note_on_c, 0, 79, 80
2, 112440, Note_on_c, 0, 70, 64
2, 112440, Note_on_c, 0, 64, 72
2, 112440, Control_c, 0, 64, 0
2, 112456, Control_c, 0, 64, 127
2, 112535, Note_on_c, 0, 64, 0
2, 112542, Note_on_c, 0, 70, 0
2, 112557, Control_c, 0, 64, 0
2, 112560, Note_on_c, 0, 79, 0
2, 112560, Note_on_c, 0, 77, 68
2, 112560, Note_on_c, 0, 69, 53
2, 112560, Note_on_c, 0, 65, 62
2, 112571, Control_c, 0, 64, 127
2, 112624, Control_c, 0, 64, 0
2, 112628, Note_on_c, 0, 65, 0
2, 112628, Note_on_c, 0, 69, 0
2, 112630, Note_on_c, 0, 77, 0
2, 112800, Note_on_c, 0, 69, 53
2, 112800, Note_on_c, 0, 72, 64
2, 112804, Control_c, 0, 64, 127
2, 112916, Note_on_c, 0, 72, 0
2, 112920, Note_on_c, 0, 77, 62
2, 112972, Note_on_c, 0, 69, 0
2, 112975, Control_c, 0, 64, 0
2, 112978, Note_on_c, 0, 77, 0
2, 112980, Note_on_c, 0, 72, 46
2, 112980, Note_on_c, 0, 81, 60
2, 112991, Control_c, 0, 64, 127
2, 113040, Note_on_c, 0, 70, 57
2, 113040, Note_on_c, 0, 79, 64
2, 113041, Control_c, 0, 64, 0
2, 113044, Note_on_c, 0, 81, 0
2, 113045, Note_on_c, 0, 72, 0
2, 113057, Control_c, 0, 64, 127
2, 113085, Note_on_c, 0, 82, 57
2, 113086, Note_on_c, 0, 79, 0
2, 113097, Control_c, 0, 64, 0
2, 113099, Note_on_c, 0, 82, 0
2, 113100, Note_on_c, 0, 76, 64
2, 113100, Note_on_c, 0, 67, 60
2, 113103, Note_on_c, 0, 70, 0
2, 113119, Control_c, 0, 64, 127
2, 113139, Note_on_c, 0, 76, 0
2, 113145, Note_on_c, 0, 79, 57
2, 113152, Note_on_c, 0, 67, 0
2, 113155, Control_c, 0, 64, 0
2, 113160, Note_on_c, 0, 72, 53
2, 113160, Note_on_c, 0, 77, 76
2, 113161, Note_on_c, 0, 79, 0
2, 113173, Control_c, 0, 64, 127
2, 113280, Note_on_c, 0, 69, 56
2, 113281, Control_c, 0, 64, 0
2, 113282, Note_on_c, 0, 72, 0
2, 113295, Control_c, 0, 64, 127
2, 113310, Note_on_c, 0, 76, 56
2, 113314, Note_on_c, 0, 77, 0
2, 113318, Note_on_c, 0, 69, 0
2, 113325, Note_on_c, 0, 77, 59
2, 113327, Control_c, 0, 64, 0
2, 113328, Note_on_c, 0, 76, 0
2, 113338, Note_on_c, 0, 77, 0
2, 113340, Note_on_c, 0, 79, 62
2, 113355, Note_on_c, 0, 77, 62
2, 113360, Note_on_c, 0, 79, 0
2, 113370, Note_on_c, 0, 76, 50
2, 113373, Note_on_c, 0, 77, 0
2, 113384, Note_on_c, 0, 76, 0
2, 113385, Note_on_c, 0, 74, 56
2, 113400, Note_on_c, 0, 74, 0
2, 113400, Note_on_c, 0, 72, 53
2, 113463, Note_on_c, 0, 72, 0
2, 113520, Note_on_c, 0, 69, 64
2, 113520, Note_on_c, 0, 66, 48
2, 113533, Control_c, 0, 64, 127
2, 113607, Note_on_c, 0, 66, 0
2, 113612, Note_on_c, 0, 69, 0
2, 113640, Note_on_c, 0, 70, 64
2, 113640, Note_on_c, 0, 67, 56
2, 113642, Control_c, 0, 64, 0
2, 113656, Control_c, 0, 64, 127
2, 113698, Note_on_c, 0, 67, 0
2, 113698, Note_on_c, 0, 70, 0
2, 113700, Note_on_c, 0, 72, 62
2, 113700, Note_on_c, 0, 69, 76
2, 113705, Control_c, 0, 64, 0
2, 113718, Control_c, 0, 64, 127
2, 113757, Note_on_c, 0, 69, 0
2, 113759, Note_on_c, 0, 72, 0
2, 113760, Note_on_c, 0, 70, 57
2, 113760, Note_on_c, 0, 74, 42
2, 113767, Control_c, 0, 64, 0
2, 113782, Control_c, 0, 64, 127
2, 113801, Note_on_c, 0, 70, 0
2, 113802, Note_on_c, 0, 74, 0
2, 113820, Note_on_c, 0, 70, 62
2, 113820, Note_on_c, 0, 67, 57
2, 113824, Control_c, 0, 64, 0
2, 113833, Control_c, 0, 64, 127
2, 113850, Note_on_c, 0, 70, 0
2, 113852, Note_on_c, 0, 67, 0
2, 113880, Note_on_c, 0, 67, 72
2, 113880, Note_on_c, 0, 64, 64
2, 113881, Control_c, 0, 64, 0
2, 113896, Control_c, 0, 64, 127
2, 114020, Note_on_c, 0, 64, 0
2, 114026, Note_on_c, 0, 67, 0
2, 114045, Note_on_c, 0, 65, 64
2, 114045, Note_on_c, 0, 69, 60
2, 114052, Note_on_c, 0, 69, 0
2, 114054, Note_on_c, 0, 65, 0
2, 114059, Control_c, 0, 64, 0
2, 114060, Note_on_c, 0, 65, 55
2, 114060, Note_on_c, 0, 62, 60
2, 114072, Control_c, 0, 64, 127
2, 114092, Note_on_c, 0, 62, 0
2, 114096, Note_on_c, 0, 65, 0
2, 114105, Note_on_c, 0, 65, 62
2, 114105, Note_on_c, 0, 69, 62
2, 114113, Note_on_c, 0, 69, 0
2, 114114, Note_on_c, 0, 65, 0
2, 114114, Control_c, 0, 64, 0
2, 114120, Note_on_c, 0, 64, 64
2, 114120, Note_on_c, 0, 67, 76
2, 114131, Control_c, 0, 64, 127
2, 114190, Note_on_c, 0, 64, 0
2, 114193, Note_on_c, 0, 67, 0
2, 114204, Control_c, 0, 64, 0
2, 114240, Note_on_c, 0, 69, 72
2, 114252, Control_c, 0, 64, 127
2, 114412, Note_on_c, 0, 69, 0
2, 114412, Control_c, 0, 64, 0
2, 114420, Note_on_c, 0, 70, 68
2, 114428, Control_c, 0, 64, 127
2, 114450, Note_on_c, 0, 72, 76
2, 114452, Note_on_c, 0, 70, 0
2, 114463, Control_c, 0, 64, 0
2, 114480, Note_on_c, 0, 74, 76
2, 114483, Note_on_c, 0, 72, 0
2, 114487, Control_c, 0, 64, 127
2, 114508, Control_c, 0, 64, 0
2, 114510, Note_on_c, 0, 74, 0
2, 114510, Note_on_c, 0, 76, 80
2, 114540, Note_on_c, 0, 76, 0
2, 114540, Note_on_c, 0, 77, 76
2, 114557, Control_c, 0, 64, 127
2, 114570, Note_on_c, 0, 79, 85
2, 114572, Note_on_c, 0, 77, 0
2, 114590, Control_c, 0, 64, 0
2, 114600, Note_on_c, 0, 79, 0
2, 114600, Note_on_c, 0, 81, 85
2, 114614, Control_c, 0, 64, 127
2, 114630, Note_on_c, 0, 79, 76
2, 114631, Note_on_c, 0, 81, 0
2, 114657, Control_c, 0, 64, 0
2, 114660, Note_on_c, 0, 82, 85
2, 114661, Note_on_c, 0, 79, 0
2, 114676, Control_c, 0, 64, 127
2, 114690, Note_on_c, 0, 82, 0
2, 114690, Note_on_c, 0, 81, 80
2, 114715, Control_c, 0, 64, 0
2, 114719, Note_on_c, 0, 81, 0
2, 114720, Note_on_c, 0, 86, 85
2, 114734, Control_c, 0, 64, 127
2, 114749, Note_on_c, 0, 86, 0
2, 114750, Note_on_c, 0, 84, 72
2, 114773, Control_c, 0, 64, 0
2, 114780, Note_on_c, 0, 88, 89
2, 114781, Note_on_c, 0, 84, 0
2, 114793, Control_c, 0, 64, 127
2, 114810, Note_on_c, 0, 89, 76
2, 114812, Note_on_c, 0, 88, 0
2, 114832, Control_c, 0, 64, 0
2, 114840, Note_on_c, 0, 82, 68
2, 114841, Note_on_c, 0, 89, 0
2, 114850, Control_c, 0, 64, 127
2, 114902, Control_c, 0, 64, 0
2, 114909, Note_on_c, 0, 82, 0
2, 114945, Note_on_c, 0, 79, 62
2, 114956, Note_on_c, 0, 79, 0
2, 114960, Note_on_c, 0, 81, 76
2, 114969, Control_c, 0, 64, 127
2, 115005, Note_on_c, 0, 84, 64
2, 115009, Note_on_c, 0, 81, 0
2, 115012, Control_c, 0, 64, 0
2, 115019, Note_on_c, 0, 84, 0
2, 115020, Note_on_c, 0, 77, 72
2, 115037, Control_c, 0, 64, 127
2, 115059, Note_on_c, 0, 77, 0
2, 115065, Note_on_c, 0, 81, 68
2, 115073, Control_c, 0, 64, 0
2, 115080, Note_on_c, 0, 72, 51
2, 115080, Note_on_c, 0, 69, 56
2, 115080, Note_on_c, 0, 65, 53
2, 115084, Note_on_c, 0, 81, 0
2, 115097, Control_c, 0, 64, 127
2, 115175, Note_on_c, 0, 69, 0
2, 115177, Note_on_c, 0, 65, 0
2, 115195, Control_c, 0, 64, 0
2, 115200, Note_on_c, 0, 70, 55
2, 115200, Note_on_c, 0, 67, 64
2, 115212, Control_c, 0, 64, 127
2, 115259, Note_on_c, 0, 72, 0
2, 115260, Note_on_c, 0, 76, 76
2, 115268, Note_on_c, 0, 70, 0
2, 115270, Note_on_c, 0, 67, 0
2, 115285, Note_on_c, 0, 76, 0
2, 115320, Note_on_c, 0, 79, 68
2, 115320, Note_on_c, 0, 64, 64
2, 115320, Note_on_c, 0, 70, 43
2, 115323, Control_c, 0, 64, 0
2, 115340, Control_c, 0, 64, 127
2, 115404, Note_on_c, 0, 64, 0
2, 115413, Note_on_c, 0, 70, 0
2, 115437, Note_on_c, 0, 79, 0
2, 115440, Note_on_c, 0, 77, 60
2, 115440, Note_on_c, 0, 69, 50
2, 115440, Note_on_c, 0, 65, 56
2, 115440, Control_c, 0, 64, 0
2, 115455, Control_c, 0, 64, 127
2, 115501, Control_c, 0, 64, 0
2, 115507, Note_on_c, 0, 65, 0
2, 115507, Note_on_c, 0, 69, 0
2, 115509, Note_on_c, 0, 77, 0
2, 115680, Note_on_c, 0, 79, 80
2, 115680, Note_on_c, 0, 67, 64
2, 115687, Control_c, 0, 64, 127
2, 115855, Control_c, 0, 64, 0
2, 115856, Note_on_c, 0, 67, 0
2, 115858, Note_on_c, 0, 79, 0
2, 115860, Note_on_c, 0, 69, 85
2, 115860, Note_on_c, 0, 81, 76
2, 115875, Note_on_c, 0, 69, 0
2, 115875, Note_on_c, 0, 67, 64
2, 115875, Note_on_c, 0, 79, 72
2, 115876, Note_on_c, 0, 81, 0
2, 115889, Note_on_c, 0, 79, 0
2, 115890, Note_on_c, 0, 65, 64
2, 115890, Note_on_c, 0, 77, 80
2, 115891, Note_on_c, 0, 67, 0
2, 115905, Note_on_c, 0, 77, 0
2, 115905, Note_on_c, 0, 79, 80
2, 115905, Note_on_c, 0, 67, 72
2, 115909, Note_on_c, 0, 65, 0
2, 115920, Note_on_c, 0, 79, 0
2, 115920, Note_on_c, 0, 81, 76
2, 115920, Note_on_c, 0, 69, 80
2, 115921, Note_on_c, 0, 67, 0
2, 115930, Control_c, 0, 64, 127
2, 115979, Control_c, 0, 64, 0
2, 115980, Note_on_c, 0, 77, 85
2, 115980, Note_on_c, 0, 65, 85
2, 115982, Note_on_c, 0, 69, 0
2, 115986, Note_on_c, 0, 81, 0
2, 115996, Note_on_c, 0, 77, 0
2, 115998, Note_on_c, 0, 65, 0
2, 116040, Note_on_c, 0, 81, 89
2, 116040, Note_on_c, 0, 69, 85
2, 116045, Control_c, 0, 64, 127
2, 116068, Control_c, 0, 64, 0
2, 116070, Note_on_c, 0, 79, 85
2, 116070, Note_on_c, 0, 67, 72
2, 116072, Note_on_c, 0, 69, 0
2, 116073, Note_on_c, 0, 81, 0
2, 116114, Control_c, 0, 64, 127
2, 116220, Note_on_c, 0, 81, 76
2, 116220, Note_on_c, 0, 69, 89
2, 116222, Note_on_c, 0, 67, 0
2, 116223, Control_c, 0, 64, 0
2, 116224, Note_on_c, 0, 79, 0
2, 116235, Note_on_c, 0, 69, 0
2, 116235, Note_on_c, 0, 79, 64
2, 116235, Note_on_c, 0, 67, 72
2, 116239, Note_on_c, 0, 81, 0
2, 116248, Note_on_c, 0, 79, 0
2, 116250, Note_on_c, 0, 67, 0
2, 116250, Note_on_c, 0, 65, 76
2, 116250, Note_on_c, 0, 77, 68
2, 116263, Note_on_c, 0, 77, 0
2, 116265, Note_on_c, 0, 67, 76
2, 116265, Note_on_c, 0, 79, 68
2, 116269, Note_on_c, 0, 65, 0
2, 116277, Note_on_c, 0, 79, 0
2, 116279, Note_on_c, 0, 67, 0
2, 116280, Note_on_c, 0, 81, 80
2, 116280, Note_on_c, 0, 69, 80
2, 116301, Control_c, 0, 64, 127
2, 116336, Note_on_c, 0, 69, 0
2, 116340, Note_on_c, 0, 81, 0
2, 116340, Note_on_c, 0, 65, 80
2, 116340, Note_on_c, 0, 77, 93
2, 116341, Control_c, 0, 64, 0
2, 116352, Note_on_c, 0, 77, 0
2, 116353, Note_on_c, 0, 65, 0
2, 116400, Note_on_c, 0, 82, 93
2, 116400, Note_on_c, 0, 70, 76
2, 116409, Control_c, 0, 64, 127
2, 116437, Note_on_c, 0, 82, 0
2, 116438, Note_on_c, 0, 70, 0
2, 116442, Control_c, 0, 64, 0
2, 116445, Note_on_c, 0, 72, 76
2, 116445, Note_on_c, 0, 84, 80
2, 116452, Note_on_c, 0, 84, 0
2, 116454, Note_on_c, 0, 72, 0
2, 116460, Note_on_c, 0, 86, 85
2, 116460, Note_on_c, 0, 74, 85
2, 116479, Control_c, 0, 64, 127
2, 116502, Note_on_c, 0, 74, 0
2, 116502, Note_on_c, 0, 86, 0
2, 116505, Control_c, 0, 64, 0
2, 116505, Note_on_c, 0, 72, 72
2, 116505, Note_on_c, 0, 84, 72
2, 116511, Note_on_c, 0, 72, 0
2, 116512, Note_on_c, 0, 84, 0
2, 116520, Note_on_c, 0, 82, 80
2, 116520, Note_on_c, 0, 70, 72
2, 116548, Control_c, 0, 64, 127
2, 116579, Note_on_c, 0, 70, 0
2, 116580, Note_on_c, 0, 82, 0
2, 116580, Note_on_c, 0, 69, 76
2, 116580, Note_on_c, 0, 81, 72
2, 116582, Control_c, 0, 64, 0
2, 116591, Note_on_c, 0, 69, 0
2, 116592, Note_on_c, 0, 81, 0
2, 116640, Note_on_c, 0, 67, 68
2, 116640, Note_on_c, 0, 79, 64
2, 116651, Note_on_c, 0, 79, 0
2, 116651, Note_on_c, 0, 67, 0
2, 116700, Note_on_c, 0, 77, 80
2, 116700, Note_on_c, 0, 65, 85
2, 116714, Note_on_c, 0, 65, 0
2, 116715, Note_on_c, 0, 77, 0
2, 116760, Note_on_c, 0, 81, 89
2, 116760, Note_on_c, 0, 69, 93
2, 116841, Control_c, 0, 64, 127
2, 116880, Note_on_c, 0, 69, 0
2, 116880, Note_on_c, 0, 79, 80
2, 116880, Note_on_c, 0, 67, 64
2, 116881, Control_c, 0, 64, 0
2, 116884, Note_on_c, 0, 81, 0
2, 116905, Control_c, 0, 64, 127
2, 116946, Control_c, 0, 64, 0
2, 116949, Note_on_c, 0, 79, 0
2, 116950, Note_on_c, 0, 67, 0
2, 117120, Note_on_c, 0, 67, 76
2, 117120, Note_on_c, 0, 79, 76
2, 117151, Control_c, 0, 64, 127
2, 117300, Note_on_c, 0, 69, 89
2, 117300, Note_on_c, 0, 81, 80
2, 117302, Note_on_c, 0, 79, 0
2, 117302, Note_on_c, 0, 67, 0
2, 117304, Control_c, 0, 64, 0
2, 117315, Note_on_c, 0, 79, 62
2, 117315, Note_on_c, 0, 67, 80
2, 117318, Note_on_c, 0, 69, 0
2, 117319, Note_on_c, 0, 81, 0
2, 117330, Note_on_c, 0, 79, 0
2, 117330, Note_on_c, 0, 77, 64
2, 117330, Note_on_c, 0, 65, 72
2, 117331, Note_on_c, 0, 67, 0
2, 117344, Note_on_c, 0, 77, 0
2, 117345, Note_on_c, 0, 67, 80
2, 117345, Note_on_c, 0, 79, 76
2, 117350, Note_on_c, 0, 65, 0
2, 117358, Note_on_c, 0, 79, 0
2, 117359, Note_on_c, 0, 67, 0
2, 117360, Note_on_c, 0, 69, 89
2, 117360, Note_on_c, 0, 81, 72
2, 117381, Control_c, 0, 64, 127
2, 117414, Note_on_c, 0, 69, 0
2, 117418, Note_on_c, 0, 81, 0
2, 117420, Note_on_c, 0, 77, 89
2, 117420, Note_on_c, 0, 65, 76
2, 117422, Control_c, 0, 64, 0
2, 117435, Note_on_c, 0, 65, 0
2, 117435, Note_on_c, 0, 77, 0
2, 117480, Note_on_c, 0, 78, 89
2, 117480, Note_on_c, 0, 66, 85
2, 117491, Control_c, 0, 64, 127
2, 117508, Control_c, 0, 64, 0
2, 117510, Note_on_c, 0, 79, 89
2, 117510, Note_on_c, 0, 67, 76
2, 117511, Note_on_c, 0, 66, 0
2, 117512, Note_on_c, 0, 78, 0
2, 117571, Control_c, 0, 64, 127
2, 117660, Note_on_c, 0, 69, 85
2, 117660, Note_on_c, 0, 81, 89
2, 117663, Note_on_c, 0, 79, 0
2, 117664, Note_on_c, 0, 67, 0
2, 117668, Control_c, 0, 64, 0
2, 117675, Note_on_c, 0, 79, 72
2, 117675, Note_on_c, 0, 67, 76
2, 117677, Note_on_c, 0, 69, 0
2, 117678, Note_on_c, 0, 81, 0
2, 117688, Note_on_c, 0, 67, 0
2, 117689, Note_on_c, 0, 79, 0
2, 117690, Note_on_c, 0, 65, 68
2, 117690, Note_on_c, 0, 77, 72
2, 117702, Note_on_c, 0, 77, 0
2, 117705, Note_on_c, 0, 79, 76
2, 117705, Note_on_c, 0, 67, 76
2, 117709, Note_on_c, 0, 65, 0
2, 117718, Note_on_c, 0, 67, 0
2, 117718, Note_on_c, 0, 79, 0
2, 117720, Note_on_c, 0, 81, 76
2, 117720, Note_on_c, 0, 69, 85
2, 117744, Control_c, 0, 64, 127
2, 117778, Note_on_c, 0, 69, 0
2, 117780, Note_on_c, 0, 77, 85
2, 117780, Note_on_c, 0, 65, 85
2, 117782, Note_on_c, 0, 81, 0
2, 117782, Control_c, 0, 64, 0
2, 117795, Note_on_c, 0, 77, 0
2, 117797, Note_on_c, 0, 65, 0
2, 117840, Note_on_c, 0, 67, 89
2, 117840, Note_on_c, 0, 79, 89
2, 117847, Control_c, 0, 64, 127
2, 117891, Note_on_c, 0, 79, 0
2, 117892, Note_on_c, 0, 67, 0
2, 117893, Control_c, 0, 64, 0
2, 117960, Note_on_c, 0, 69, 93
2, 117960, Note_on_c, 0, 81, 93
2, 117964, Control_c, 0, 64, 127
2, 118013, Note_on_c, 0, 81, 0
2, 118014, Control_c, 0, 64, 0
2, 118015, Note_on_c, 0, 69, 0
2, 118080, Note_on_c, 0, 83, 93
2, 118080, Note_on_c, 0, 71, 93
2, 118091, Control_c, 0, 64, 127
2, 118137, Note_on_c, 0, 71, 0
2, 118137, Note_on_c, 0, 83, 0
2, 118139, Control_c, 0, 64, 0
2, 118200, Note_on_c, 0, 84, 98
2, 118200, Note_on_c, 0, 72, 93
2, 118216, Control_c, 0, 64, 127
2, 118257, Note_on_c, 0, 72, 0
2, 118258, Note_on_c, 0, 84, 0
2, 118260, Control_c, 0, 64, 0
2, 118320, Note_on_c, 0, 86, 107
2, 118320, Note_on_c, 0, 74, 93
2, 118331, Control_c, 0, 64, 127
2, 118378, Note_on_c, 0, 86, 0
2, 118379, Note_on_c, 0, 74, 0
2, 118385, Control_c, 0, 64, 0
2, 118545, Note_on_c, 0, 71, 76
2, 118545, Note_on_c, 0, 83, 93
2, 118558, Note_on_c, 0, 83, 0
2, 118560, Note_on_c, 0, 71, 0
2, 118560, Note_on_c, 0, 84, 102
2, 118560, Note_on_c, 0, 72, 89
2, 118582, Control_c, 0, 64, 127
2, 118639, Note_on_c, 0, 72, 0
2, 118639, Note_on_c, 0, 84, 0
2, 118639, Control_c, 0, 64, 0
2, 118680, Note_on_c, 0, 86, 107
2, 118680, Note_on_c, 0, 74, 93
2, 118694, Control_c, 0, 64, 127
2, 118740, Note_on_c, 0, 86, 0
2, 118740, Control_c, 0, 64, 0
2, 118742, Note_on_c, 0, 74, 0
2, 118890, Note_on_c, 0, 71, 89
2, 118890, Note_on_c, 0, 83, 98
2, 118906, Note_on_c, 0, 83, 0
2, 118908, Note_on_c, 0, 71, 0
2, 118920, Note_on_c, 0, 84, 107
2, 118920, Note_on_c, 0, 72, 89
2, 118951, Control_c, 0, 64, 127
2, 119066, Note_on_c, 0, 72, 0
2, 119083, Control_c, 0, 64, 0
2, 119100, Note_on_c, 0, 83, 80
2, 119110, Note_on_c, 0, 84, 0
2, 119138, Control_c, 0, 64, 127
2, 119157, Note_on_c, 0, 83, 0
2, 119158, Control_c, 0, 64, 0
2, 119160, Note_on_c, 0, 82, 76
2, 119194, Control_c, 0, 64, 127
2, 119296, Control_c, 0, 64, 0
2, 119310, Note_on_c, 0, 81, 76
2, 119316, Note_on_c, 0, 82, 0
2, 119340, Note_on_c, 0, 84, 89
2, 119343, Note_on_c, 0, 81, 0
2, 119370, Note_on_c, 0, 82, 85
2, 119372, Note_on_c, 0, 84, 0
2, 119377, Control_c, 0, 64, 127
2, 119385, Control_c, 0, 64, 0
2, 119400, Note_on_c, 0, 81, 89
2, 119401, Note_on_c, 0, 82, 0
2, 119429, Note_on_c, 0, 81, 0
2, 119430, Note_on_c, 0, 79, 93
2, 119435, Control_c, 0, 64, 127
2, 119458, Note_on_c, 0, 79, 0
2, 119460, Note_on_c, 0, 77, 93
2, 119463, Control_c, 0, 64, 0
2, 119490, Note_on_c, 0, 76, 89
2, 119492, Note_on_c, 0, 77, 0
2, 119493, Control_c, 0, 64, 127
2, 119519, Note_on_c, 0, 76, 0
2, 119520, Note_on_c, 0, 79, 93
2, 119524, Control_c, 0, 64, 0
2, 119550, Note_on_c, 0, 77, 76
2, 119556, Note_on_c, 0, 79, 0
2, 119568, Control_c, 0, 64, 127
2, 119570, Control_c, 0, 64, 0
2, 119580, Note_on_c, 0, 76, 80
2, 119584, Note_on_c, 0, 77, 0
2, 119606, Control_c, 0, 64, 127
2, 119610, Note_on_c, 0, 74, 55
2, 119615, Note_on_c, 0, 76, 0
2, 119638, Note_on_c, 0, 74, 0
2, 119640, Note_on_c, 0, 69, 62
2, 119640, Note_on_c, 0, 72, 76
2, 119645, Control_c, 0, 64, 0
2, 119671, Control_c, 0, 64, 127
2, 119757, Note_on_c, 0, 72, 0
2, 119760, Note_on_c, 0, 77, 64
2, 119813, Note_on_c, 0, 69, 0
2, 119818, Note_on_c, 0, 77, 0
2, 119820, Note_on_c, 0, 72, 57
2, 119820, Note_on_c, 0, 81, 76
2, 119821, Control_c, 0, 64, 0
2, 119838, Control_c, 0, 64, 127
2, 119880, Note_on_c, 0, 70, 57
2, 119880, Note_on_c, 0, 79, 80
2, 119881, Note_on_c, 0, 81, 0
2, 119885, Control_c, 0, 64, 0
2, 119887, Note_on_c, 0, 72, 0
2, 119905, Control_c, 0, 64, 127
2, 119923, Note_on_c, 0, 79, 0
2, 119925, Note_on_c, 0, 82, 59
2, 119940, Note_on_c, 0, 82, 0
2, 119940, Note_on_c, 0, 70, 0
2, 119940, Note_on_c, 0, 76, 64
2, 119940, Note_on_c, 0, 67, 51
2, 119941, Control_c, 0, 64, 0
2, 119966, Control_c, 0, 64, 127
2, 119977, Note_on_c, 0, 76, 0
2, 119985, Note_on_c, 0, 79, 72
2, 119991, Note_on_c, 0, 67, 0
2, 120000, Note_on_c, 0, 72, 60
2, 120000, Note_on_c, 0, 77, 64
2, 120001, Control_c, 0, 64, 0
2, 120006, Note_on_c, 0, 79, 0
2, 120025, Control_c, 0, 64, 127
2, 120120, Note_on_c, 0, 69, 62
2, 120124, Note_on_c, 0, 72, 0
2, 120124, Control_c, 0, 64, 0
2, 120146, Control_c, 0, 64, 127
2, 120150, Note_on_c, 0, 76, 76
2, 120162, Note_on_c, 0, 77, 0
2, 120164, Note_on_c, 0, 69, 0
2, 120165, Note_on_c, 0, 76, 0
2, 120165, Note_on_c, 0, 77, 68
2, 120176, Note_on_c, 0, 77, 0
2, 120180, Control_c, 0, 64, 0
2, 120180, Note_on_c, 0, 79, 64
2, 120195, Note_on_c, 0, 77, 62
2, 120200, Note_on_c, 0, 79, 0
2, 120210, Note_on_c, 0, 77, 0
2, 120210, Note_on_c, 0, 76, 59
2, 120225, Note_on_c, 0, 76, 0
2, 120225, Note_on_c, 0, 74, 57
2, 120238, Note_on_c, 0, 74, 0
2, 120240, Note_on_c, 0, 72, 72
2, 120256, Control_c, 0, 64, 127
2, 120303, Note_on_c, 0, 72, 0
2, 120304, Control_c, 0, 64, 0
2, 120360, Note_on_c, 0, 69, 80
2, 120360, Note_on_c, 0, 66, 60
2, 120373, Control_c, 0, 64, 127
2, 120448, Note_on_c, 0, 66, 0
2, 120450, Note_on_c, 0, 69, 0
2, 120480, Note_on_c, 0, 70, 72
2, 120480, Note_on_c, 0, 67, 76
2, 120487, Control_c, 0, 64, 0
2, 120504, Control_c, 0, 64, 127
2, 120515, Note_on_c, 0, 67, 0
2, 120516, Note_on_c, 0, 70, 0
2, 120540, Note_on_c, 0, 69, 76
2, 120540, Note_on_c, 0, 72, 80
2, 120545, Control_c, 0, 64, 0
2, 120560, Control_c, 0, 64, 127
2, 120576, Note_on_c, 0, 72, 0
2, 120576, Note_on_c, 0, 69, 0
2, 120600, Note_on_c, 0, 70, 64
2, 120600, Note_on_c, 0, 74, 72
2, 120606, Control_c, 0, 64, 0
2, 120619, Control_c, 0, 64, 127
2, 120626, Note_on_c, 0, 74, 0
2, 120626, Note_on_c, 0, 70, 0
2, 120660, Note_on_c, 0, 70, 64
2, 120660, Note_on_c, 0, 67, 76
2, 120660, Control_c, 0, 64, 0
2, 120674, Control_c, 0, 64, 127
2, 120692, Note_on_c, 0, 70, 0
2, 120695, Note_on_c, 0, 67, 0
2, 120720, Note_on_c, 0, 67, 76
2, 120720, Note_on_c, 0, 64, 72
2, 120726, Control_c, 0, 64, 0
2, 120742, Control_c, 0, 64, 127
2, 120856, Note_on_c, 0, 64, 0
2, 120861, Note_on_c, 0, 67, 0
2, 120885, Note_on_c, 0, 65, 76
2, 120885, Note_on_c, 0, 69, 72
2, 120894, Note_on_c, 0, 69, 0
2, 120895, Note_on_c, 0, 65, 0
2, 120900, Note_on_c, 0, 65, 72
2, 120900, Note_on_c, 0, 62, 76
2, 120903, Control_c, 0, 64, 0
2, 120916, Control_c, 0, 64, 127
2, 120927, Note_on_c, 0, 62, 0
2, 120932, Note_on_c, 0, 65, 0
2, 120945, Note_on_c, 0, 65, 57
2, 120945, Note_on_c, 0, 69, 68
2, 120955, Note_on_c, 0, 69, 0
2, 120957, Note_on_c, 0, 65, 0
2, 120958, Control_c, 0, 64, 0
2, 120960, Note_on_c, 0, 67, 62
2, 120960, Note_on_c, 0, 64, 64
2, 120972, Control_c, 0, 64, 127
2, 121030, Note_on_c, 0, 64, 0
2, 121034, Note_on_c, 0, 67, 0
2, 121053, Control_c, 0, 64, 0
2, 121080, Note_on_c, 0, 69, 85
2, 121107, Control_c, 0, 64, 127
2, 121254, Note_on_c, 0, 69, 0
2, 121255, Control_c, 0, 64, 0
2, 121260, Note_on_c, 0, 70, 89
2, 121271, Control_c, 0, 64, 127
2, 121290, Note_on_c, 0, 72, 85
2, 121291, Note_on_c, 0, 70, 0
2, 121305, Control_c, 0, 64, 0
2, 121320, Note_on_c, 0, 74, 93
2, 121322, Note_on_c, 0, 72, 0
2, 121334, Control_c, 0, 64, 127
2, 121348, Control_c, 0, 64, 0
2, 121350, Note_on_c, 0, 74, 0
2, 121350, Note_on_c, 0, 76, 85
2, 121380, Note_on_c, 0, 77, 93
2, 121381, Note_on_c, 0, 76, 0
2, 121396, Control_c, 0, 64, 127
2, 121410, Note_on_c, 0, 79, 93
2, 121411, Note_on_c, 0, 77, 0
2, 121437, Control_c, 0, 64, 0
2, 121440, Note_on_c, 0, 81, 93
2, 121441, Note_on_c, 0, 79, 0
2, 121460, Control_c, 0, 64, 127
2, 121470, Note_on_c, 0, 81, 0
2, 121470, Note_on_c, 0, 79, 80
2, 121497, Control_c, 0, 64, 0
2, 121500, Note_on_c, 0, 82, 93
2, 121501, Note_on_c, 0, 79, 0
2, 121520, Control_c, 0, 64, 127
2, 121530, Note_on_c, 0, 82, 0
2, 121530, Note_on_c, 0, 81, 89
2, 121559, Control_c, 0, 64, 0
2, 121560, Note_on_c, 0, 86, 98
2, 121561, Note_on_c, 0, 81, 0
2, 121585, Control_c, 0, 64, 127
2, 121589, Note_on_c, 0, 86, 0
2, 121590, Note_on_c, 0, 84, 93
2, 121618, Control_c, 0, 64, 0
2, 121620, Note_on_c, 0, 88, 98
2, 121622, Note_on_c, 0, 84, 0
2, 121642, Control_c, 0, 64, 127
2, 121650, Note_on_c, 0, 88, 0
2, 121650, Note_on_c, 0, 89, 93
2, 121678, Control_c, 0, 64, 0
2, 121680, Note_on_c, 0, 82, 89
2, 121681, Note_on_c, 0, 89, 0
2, 121702, Control_c, 0, 64, 127
2, 121745, Control_c, 0, 64, 0
2, 121746, Note_on_c, 0, 82, 0
2, 121785, Note_on_c, 0, 79, 76
2, 121798, Note_on_c, 0, 79, 0
2, 121800, Note_on_c, 0, 81, 85
2, 121816, Control_c, 0, 64, 127
2, 121845, Note_on_c, 0, 84, 76
2, 121846, Note_on_c, 0, 81, 0
2, 121852, Control_c, 0, 64, 0
2, 121860, Note_on_c, 0, 77, 72
2, 121862, Note_on_c, 0, 84, 0
2, 121888, Control_c, 0, 64, 127
2, 121900, Note_on_c, 0, 77, 0
2, 121905, Note_on_c, 0, 81, 80
2, 121918, Control_c, 0, 64, 0
2, 121920, Note_on_c, 0, 72, 80
2, 121920, Note_on_c, 0, 65, 64
2, 121920, Note_on_c, 0, 69, 68
2, 121923, Note_on_c, 0, 81, 0
2, 121946, Control_c, 0, 64, 127
2, 122008, Note_on_c, 0, 69, 0
2, 122009, Note_on_c, 0, 65, 0
2, 122040, Note_on_c, 0, 70, 62
2, 122040, Note_on_c, 0, 67, 76
2, 122041, Control_c, 0, 64, 0
2, 122068, Control_c, 0, 64, 127
2, 122099, Note_on_c, 0, 72, 0
2, 122100, Note_on_c, 0, 76, 89
2, 122104, Note_on_c, 0, 67, 0
2, 122105, Note_on_c, 0, 70, 0
2, 122158, Note_on_c, 0, 76, 0
2, 122160, Note_on_c, 0, 79, 80
2, 122160, Note_on_c, 0, 70, 62
2, 122160, Note_on_c, 0, 64, 76
2, 122165, Control_c, 0, 64, 0
2, 122188, Control_c, 0, 64, 127
2, 122240, Note_on_c, 0, 64, 0
2, 122249, Note_on_c, 0, 70, 0
2, 122280, Note_on_c, 0, 77, 89
2, 122280, Note_on_c, 0, 69, 60
2, 122280, Note_on_c, 0, 65, 62
2, 122281, Note_on_c, 0, 79, 0
2, 122286, Control_c, 0, 64, 0
2, 122307, Control_c, 0, 64, 127
2, 122350, Control_c, 0, 64, 0
2, 122351, Note_on_c, 0, 69, 0
2, 122352, Note_on_c, 0, 65, 0
2, 122357, Note_on_c, 0, 77, 0
2, 122520, Note_on_c, 0, 67, 59
2, 122520, Note_on_c, 0, 79, 64
2, 122544, Control_c, 0, 64, 127
2, 122698, Note_on_c, 0, 79, 0
2, 122699, Note_on_c, 0, 67, 0
2, 122700, Note_on_c, 0, 81, 60
2, 122700, Note_on_c, 0, 69, 68
2, 122703, Control_c, 0, 64, 0
2, 122715, Note_on_c, 0, 67, 62
2, 122715, Note_on_c, 0, 79, 62
2, 122720, Note_on_c, 0, 81, 0
2, 122721, Note_on_c, 0, 69, 0
2, 122730, Note_on_c, 0, 67, 0
2, 122730, Note_on_c, 0, 65, 57
2, 122730, Note_on_c, 0, 77, 64
2, 122731, Note_on_c, 0, 79, 0
2, 122744, Note_on_c, 0, 77, 0
2, 122745, Note_on_c, 0, 67, 62
2, 122745, Note_on_c, 0, 79, 60
2, 122750, Note_on_c, 0, 65, 0
2, 122760, Note_on_c, 0, 79, 0
2, 122760, Note_on_c, 0, 67, 0
2, 122760, Note_on_c, 0, 69, 72
2, 122760, Note_on_c, 0, 81, 68
2, 122787, Control_c, 0, 64, 127
2, 122817, Note_on_c, 0, 69, 0
2, 122820, Note_on_c, 0, 81, 0
2, 122820, Note_on_c, 0, 65, 64
2, 122820, Note_on_c, 0, 77, 80
2, 122825, Control_c, 0, 64, 0
2, 122839, Note_on_c, 0, 77, 0
2, 122839, Note_on_c, 0, 65, 0
2, 122880, Note_on_c, 0, 81, 68
2, 122880, Note_on_c, 0, 69, 68
2, 122892, Control_c, 0, 64, 127
2, 122908, Note_on_c, 0, 69, 0
2, 122910, Note_on_c, 0, 67, 64
2, 122910, Note_on_c, 0, 79, 62
2, 122911, Note_on_c, 0, 81, 0
2, 122913, Control_c, 0, 64, 0
2, 122956, Control_c, 0, 64, 127
2, 123060, Note_on_c, 0, 81, 76
2, 123060, Note_on_c, 0, 69, 50
2, 123062, Note_on_c, 0, 67, 0
2, 123064, Note_on_c, 0, 79, 0
2, 123064, Control_c, 0, 64, 0
2, 123075, Note_on_c, 0, 67, 64
2, 123075, Note_on_c, 0, 79, 76
2, 123078, Note_on_c, 0, 69, 0
2, 123080, Note_on_c, 0, 81, 0
2, 123090, Note_on_c, 0, 65, 68
2, 123090, Note_on_c, 0, 77, 62
2, 123091, Note_on_c, 0, 79, 0
2, 123092, Note_on_c, 0, 67, 0
2, 123101, Note_on_c, 0, 77, 0
2, 123105, Note_on_c, 0, 67, 76
2, 123105, Note_on_c, 0, 79, 64
2, 123108, Note_on_c, 0, 65, 0
2, 123120, Note_on_c, 0, 79, 0
2, 123120, Note_on_c, 0, 67, 0
2, 123120, Note_on_c, 0, 69, 56
2, 123120, Note_on_c, 0, 81, 76
2, 123142, Control_c, 0, 64, 127
2, 123173, Note_on_c, 0, 69, 0
2, 123177, Note_on_c, 0, 81, 0
2, 123180, Note_on_c, 0, 77, 80
2, 123180, Note_on_c, 0, 65, 64
2, 123181, Control_c, 0, 64, 0
2, 123193, Note_on_c, 0, 77, 0
2, 123197, Note_on_c, 0, 65, 0
2, 123240, Note_on_c, 0, 82, 89
2, 123240, Note_on_c, 0, 70, 72
2, 123261, Control_c, 0, 64, 127
2, 123281, Note_on_c, 0, 70, 0
2, 123282, Note_on_c, 0, 82, 0
2, 123285, Note_on_c, 0, 72, 64
2, 123285, Note_on_c, 0, 84, 80
2, 123287, Control_c, 0, 64, 0
2, 123297, Note_on_c, 0, 84, 0
2, 123300, Note_on_c, 0, 72, 0
2, 123300, Note_on_c, 0, 86, 80
2, 123300, Note_on_c, 0, 74, 64
2, 123331, Control_c, 0, 64, 127
2, 123338, Note_on_c, 0, 74, 0
2, 123339, Note_on_c, 0, 86, 0
2, 123340, Control_c, 0, 64, 0
2, 123345, Note_on_c, 0, 72, 72
2, 123345, Note_on_c, 0, 84, 76
2, 123352, Note_on_c, 0, 84, 0
2, 123354, Note_on_c, 0, 72, 0
2, 123360, Note_on_c, 0, 82, 85
2, 123360, Note_on_c, 0, 70, 72
2, 123420, Note_on_c, 0, 81, 68
2, 123420, Note_on_c, 0, 69, 72
2, 123425, Note_on_c, 0, 70, 0
2, 123425, Note_on_c, 0, 82, 0
2, 123432, Note_on_c, 0, 81, 0
2, 123434, Note_on_c, 0, 69, 0
2, 123480, Note_on_c, 0, 79, 62
2, 123480, Note_on_c, 0, 67, 56
2, 123488, Note_on_c, 0, 79, 0
2, 123490, Note_on_c, 0, 67, 0
2, 123540, Note_on_c, 0, 65, 59
2, 123540, Note_on_c, 0, 77, 59
2, 123552, Note_on_c, 0, 77, 0
2, 123554, Note_on_c, 0, 65, 0
2, 123600, Note_on_c, 0, 81, 72
2, 123600, Note_on_c, 0, 69, 62
2, 123625, Control_c, 0, 64, 127
2, 123720, Note_on_c, 0, 69, 0
2, 123720, Note_on_c, 0, 67, 56
2, 123720, Note_on_c, 0, 79, 57
2, 123722, Note_on_c, 0, 81, 0
2, 123724, Control_c, 0, 64, 0
2, 123752, Control_c, 0, 64, 127
2, 123782, Note_on_c, 0, 67, 0
2, 123783, Note_on_c, 0, 79, 0
2, 123789, Control_c, 0, 64, 0
2, 123960, Note_on_c, 0, 79, 89
2, 123960, Note_on_c, 0, 67, 80
2, 123989, Control_c, 0, 64, 127
2, 124139, Note_on_c, 0, 67, 0
2, 124140, Note_on_c, 0, 69, 60
2, 124140, Note_on_c, 0, 81, 76
2, 124142, Note_on_c, 0, 79, 0
2, 124142, Control_c, 0, 64, 0
2, 124155, Note_on_c, 0, 67, 57
2, 124155, Note_on_c, 0, 79, 72
2, 124158, Note_on_c, 0, 81, 0
2, 124158, Note_on_c, 0, 69, 0
2, 124170, Note_on_c, 0, 77, 60
2, 124170, Note_on_c, 0, 65, 60
2, 124171, Note_on_c, 0, 79, 0
2, 124172, Note_on_c, 0, 67, 0
2, 124184, Note_on_c, 0, 77, 0
2, 124185, Note_on_c, 0, 67, 72
2, 124185, Note_on_c, 0, 79, 72
2, 124188, Note_on_c, 0, 65, 0
2, 124200, Note_on_c, 0, 79, 0
2, 124200, Note_on_c, 0, 81, 57
2, 124200, Note_on_c, 0, 69, 62
2, 124201, Note_on_c, 0, 67, 0
2, 124223, Control_c, 0, 64, 127
2, 124260, Note_on_c, 0, 69, 0
2, 124260, Note_on_c, 0, 65, 76
2, 124260, Note_on_c, 0, 77, 72
2, 124262, Note_on_c, 0, 81, 0
2, 124263, Control_c, 0, 64, 0
2, 124272, Note_on_c, 0, 77, 0
2, 124273, Note_on_c, 0, 65, 0
2, 124320, Note_on_c, 0, 78, 72
2, 124320, Note_on_c, 0, 66, 76
2, 124331, Control_c, 0, 64, 127
2, 124349, Control_c, 0, 64, 0
2, 124350, Note_on_c, 0, 79, 80
2, 124350, Note_on_c, 0, 67, 62
2, 124353, Note_on_c, 0, 66, 0
2, 124353, Note_on_c, 0, 78, 0
2, 124411, Control_c, 0, 64, 127
2, 124494, Note_on_c, 0, 67, 0
2, 124497, Note_on_c, 0, 79, 0
2, 124500, Note_on_c, 0, 69, 60
2, 124500, Note_on_c, 0, 81, 72
2, 124504, Control_c, 0, 64, 0
2, 124515, Note_on_c, 0, 67, 60
2, 124515, Note_on_c, 0, 79, 72
2, 124516, Note_on_c, 0, 81, 0
2, 124518, Note_on_c, 0, 69, 0
2, 124527, Note_on_c, 0, 79, 0
2, 124530, Note_on_c, 0, 67, 0
2, 124530, Note_on_c, 0, 65, 62
2, 124530, Note_on_c, 0, 77, 57
2, 124544, Note_on_c, 0, 77, 0
2, 124545, Note_on_c, 0, 79, 60
2, 124545, Note_on_c, 0, 67, 76
2, 124548, Note_on_c, 0, 65, 0
2, 124559, Note_on_c, 0, 79, 0
2, 124560, Note_on_c, 0, 67, 0
2, 124560, Note_on_c, 0, 81, 62
2, 124560, Note_on_c, 0, 69, 68
2, 124579, Control_c, 0, 64, 127
2, 124618, Note_on_c, 0, 69, 0
2, 124619, Control_c, 0, 64, 0
2, 124620, Note_on_c, 0, 65, 62
2, 124620, Note_on_c, 0, 77, 76
2, 124621, Note_on_c, 0, 81, 0
2, 124635, Note_on_c, 0, 77, 0
2, 124637, Note_on_c, 0, 65, 0
2, 124680, Note_on_c, 0, 67, 76
2, 124680, Note_on_c, 0, 79, 76
2, 124689, Control_c, 0, 64, 127
2, 124736, Note_on_c, 0, 79, 0
2, 124737, Note_on_c, 0, 67, 0
2, 124738, Control_c, 0, 64, 0
2, 124800, Note_on_c, 0, 81, 80
2, 124800, Note_on_c, 0, 69, 76
2, 124812, Control_c, 0, 64, 127
2, 124858, Note_on_c, 0, 69, 0
2, 124858, Note_on_c, 0, 81, 0
2, 124859, Control_c, 0, 64, 0
2, 124920, Note_on_c, 0, 83, 89
2, 124920, Note_on_c, 0, 71, 72
2, 124932, Control_c, 0, 64, 127
2, 124977, Control_c, 0, 64, 0
2, 124978, Note_on_c, 0, 71, 0
2, 124979, Note_on_c, 0, 83, 0
2, 125040, Note_on_c, 0, 72, 85
2, 125040, Note_on_c, 0, 84, 89
2, 125053, Control_c, 0, 64, 127
2, 125101, Control_c, 0, 64, 0
2, 125102, Note_on_c, 0, 84, 0
2, 125102, Note_on_c, 0, 72, 0
2, 125160, Note_on_c, 0, 86, 93
2, 125160, Note_on_c, 0, 74, 80
2, 125175, Control_c, 0, 64, 127
2, 125221, Note_on_c, 0, 74, 0
2, 125223, Note_on_c, 0, 86, 0
2, 125223, Control_c, 0, 64, 0
2, 125385, Note_on_c, 0, 71, 76
2, 125385, Note_on_c, 0, 83, 89
2, 125396, Note_on_c, 0, 83, 0
2, 125397, Note_on_c, 0, 71, 0
2, 125400, Note_on_c, 0, 72, 68
2, 125400, Note_on_c, 0, 84, 93
2, 125431, Control_c, 0, 64, 127
2, 125460, Note_on_c, 0, 84, 0
2, 125460, Note_on_c, 0, 72, 0
2, 125463, Control_c, 0, 64, 0
2, 125520, Note_on_c, 0, 74, 80
2, 125520, Note_on_c, 0, 86, 89
2, 125541, Control_c, 0, 64, 127
2, 125585, Note_on_c, 0, 74, 0
2, 125586, Note_on_c, 0, 86, 0
2, 125594, Control_c, 0, 64, 0
2, 125745, Note_on_c, 0, 71, 80
2, 125745, Note_on_c, 0, 83, 89
2, 125758, Note_on_c, 0, 83, 0
2, 125760, Note_on_c, 0, 71, 0
2, 125760, Note_on_c, 0, 84, 89
2, 125760, Note_on_c, 0, 72, 76
2, 125792, Control_c, 0, 64, 127
2, 125880, Note_on_c, 0, 72, 0
2, 125886, Control_c, 0, 64, 0
2, 125940, Note_on_c, 0, 83, 80
2, 125944, Note_on_c, 0, 84, 0
2, 125962, Control_c, 0, 64, 127
2, 125984, Control_c, 0, 64, 0
2, 126000, Note_on_c, 0, 82, 64
2, 126005, Note_on_c, 0, 83, 0
2, 126041, Control_c, 0, 64, 127
2, 126150, Note_on_c, 0, 81, 80
2, 126151, Note_on_c, 0, 82, 0
2, 126167, Control_c, 0, 64, 0
2, 126180, Note_on_c, 0, 84, 89
2, 126182, Note_on_c, 0, 81, 0
2, 126210, Control_c, 0, 64, 127
2, 126210, Note_on_c, 0, 82, 80
2, 126212, Note_on_c, 0, 84, 0
2, 126235, Control_c, 0, 64, 0
2, 126240, Note_on_c, 0, 81, 89
2, 126241, Note_on_c, 0, 82, 0
2, 126270, Note_on_c, 0, 81, 0
2, 126270, Note_on_c, 0, 79, 76
2, 126272, Control_c, 0, 64, 127
2, 126300, Note_on_c, 0, 77, 72
2, 126302, Note_on_c, 0, 79, 0
2, 126303, Control_c, 0, 64, 0
2, 126329, Note_on_c, 0, 77, 0
2, 126330, Note_on_c, 0, 76, 68
2, 126354, Control_c, 0, 64, 127
2, 126354, Control_c, 0, 64, 0
2, 126360, Note_on_c, 0, 79, 68
2, 126363, Note_on_c, 0, 76, 0
2, 126390, Note_on_c, 0, 77, 62
2, 126393, Control_c, 0, 64, 127
2, 126399, Note_on_c, 0, 79, 0
2, 126416, Control_c, 0, 64, 0
2, 126419, Note_on_c, 0, 77, 0
2, 126420, Note_on_c, 0, 76, 62
2, 126450, Control_c, 0, 64, 127
2, 126450, Note_on_c, 0, 74, 60
2, 126451, Note_on_c, 0, 76, 0
2, 126479, Note_on_c, 0, 74, 0
2, 126480, Note_on_c, 0, 69, 56
2, 126480, Note_on_c, 0, 72, 57
2, 126482, Control_c, 0, 64, 0
2, 126512, Control_c, 0, 64, 127
2, 126600, Note_on_c, 0, 72, 0
2, 126600, Note_on_c, 0, 77, 62
2, 126605, Control_c, 0, 64, 0
2, 126625, Control_c, 0, 64, 127
2, 126660, Note_on_c, 0, 69, 0
2, 126660, Note_on_c, 0, 81, 72
2, 126660, Note_on_c, 0, 72, 55
2, 126661, Note_on_c, 0, 77, 0
2, 126664, Control_c, 0, 64, 0
2, 126684, Control_c, 0, 64, 127
2, 126718, Note_on_c, 0, 81, 0
2, 126720, Note_on_c, 0, 79, 57
2, 126720, Note_on_c, 0, 70, 56
2, 126723, Note_on_c, 0, 72, 0
2, 126723, Control_c, 0, 64, 0
2, 126746, Control_c, 0, 64, 127
2, 126754, Note_on_c, 0, 79, 0
2, 126765, Note_on_c, 0, 82, 53
2, 126779, Note_on_c, 0, 70, 0
2, 126780, Note_on_c, 0, 76, 68
2, 126780, Note_on_c, 0, 67, 44
2, 126781, Control_c, 0, 64, 0
2, 126782, Note_on_c, 0, 82, 0
2, 126807, Control_c, 0, 64, 127
2, 126820, Note_on_c, 0, 76, 0
2, 126825, Note_on_c, 0, 79, 68
2, 126834, Note_on_c, 0, 67, 0
2, 126838, Control_c, 0, 64, 0
2, 126840, Note_on_c, 0, 72, 51
2, 126840, Note_on_c, 0, 77, 60
2, 126842, Note_on_c, 0, 79, 0
2, 126867, Control_c, 0, 64, 127
2, 126960, Note_on_c, 0, 69, 60
2, 126961, Note_on_c, 0, 72, 0
2, 126962, Control_c, 0, 64, 0
2, 126981, Control_c, 0, 64, 127
2, 126990, Note_on_c, 0, 76, 62
2, 126994, Note_on_c, 0, 77, 0
2, 126999, Note_on_c, 0, 69, 0
2, 127004, Note_on_c, 0, 76, 0
2, 127005, Note_on_c, 0, 77, 62
2, 127011, Control_c, 0, 64, 0
2, 127020, Note_on_c, 0, 77, 0
2, 127020, Note_on_c, 0, 79, 62
2, 127035, Note_on_c, 0, 77, 50
2, 127038, Note_on_c, 0, 79, 0
2, 127050, Note_on_c, 0, 76, 62
2, 127053, Note_on_c, 0, 77, 0
2, 127065, Note_on_c, 0, 74, 59
2, 127067, Note_on_c, 0, 76, 0
2, 127080, Note_on_c, 0, 72, 64
2, 127081, Note_on_c, 0, 74, 0
2, 127091, Control_c, 0, 64, 127
2, 127142, Note_on_c, 0, 72, 0
2, 127162, Control_c, 0, 64, 0
2, 127200, Note_on_c, 0, 66, 59
2, 127200, Note_on_c, 0, 69, 76
2, 127214, Control_c, 0, 64, 127
2, 127270, Note_on_c, 0, 69, 0
2, 127270, Note_on_c, 0, 66, 0
2, 127320, Note_on_c, 0, 70, 72
2, 127320, Note_on_c, 0, 67, 76
2, 127331, Control_c, 0, 64, 0
2, 127345, Control_c, 0, 64, 127
2, 127359, Note_on_c, 0, 67, 0
2, 127361, Note_on_c, 0, 70, 0
2, 127380, Note_on_c, 0, 69, 89
2, 127380, Note_on_c, 0, 72, 89
2, 127388, Control_c, 0, 64, 0
2, 127402, Control_c, 0, 64, 127
2, 127410, Note_on_c, 0, 72, 0
2, 127414, Note_on_c, 0, 69, 0
2, 127440, Note_on_c, 0, 70, 53
2, 127440, Note_on_c, 0, 74, 64
2, 127445, Control_c, 0, 64, 0
2, 127460, Control_c, 0, 64, 127
2, 127467, Note_on_c, 0, 70, 0
2, 127470, Note_on_c, 0, 74, 0
2, 127500, Note_on_c, 0, 70, 57
2, 127500, Note_on_c, 0, 67, 55
2, 127506, Control_c, 0, 64, 0
2, 127516, Control_c, 0, 64, 127
2, 127530, Note_on_c, 0, 67, 0
2, 127533, Note_on_c, 0, 70, 0
2, 127560, Note_on_c, 0, 64, 56
2, 127560, Note_on_c, 0, 67, 53
2, 127565, Control_c, 0, 64, 0
2, 127583, Control_c, 0, 64, 127
2, 127688, Control_c, 0, 64, 0
2, 127700, Control_c, 0, 64, 127
2, 127714, Note_on_c, 0, 64, 0
2, 127716, Note_on_c, 0, 67, 0
2, 127725, Note_on_c, 0, 69, 64
2, 127725, Note_on_c, 0, 65, 62
2, 127731, Control_c, 0, 64, 0
2, 127735, Note_on_c, 0, 65, 0
2, 127737, Note_on_c, 0, 69, 0
2, 127740, Note_on_c, 0, 65, 60
2, 127740, Note_on_c, 0, 62, 62
2, 127748, Control_c, 0, 64, 127
2, 127772, Note_on_c, 0, 62, 0
2, 127774, Note_on_c, 0, 65, 0
2, 127785, Note_on_c, 0, 65, 62
2, 127785, Note_on_c, 0, 69, 60
2, 127793, Note_on_c, 0, 69, 0
2, 127798, Note_on_c, 0, 65, 0
2, 127800, Note_on_c, 0, 67, 72
2, 127800, Note_on_c, 0, 64, 64
2, 127803, Control_c, 0, 64, 0
2, 127816, Control_c, 0, 64, 127
2, 127868, Note_on_c, 0, 64, 0
2, 127868, Note_on_c, 0, 67, 0
2, 127885, Control_c, 0, 64, 0
2, 127920, Note_on_c, 0, 69, 98
2, 127936, Control_c, 0, 64, 127
2, 128096, Note_on_c, 0, 69, 0
2, 128097, Control_c, 0, 64, 0
2, 128100, Note_on_c, 0, 70, 89
2, 128110, Control_c, 0, 64, 127
2, 128130, Note_on_c, 0, 72, 89
2, 128131, Note_on_c, 0, 70, 0
2, 128139, Control_c, 0, 64, 0
2, 128160, Note_on_c, 0, 74, 93
2, 128163, Note_on_c, 0, 72, 0
2, 128171, Control_c, 0, 64, 127
2, 128190, Control_c, 0, 64, 0
2, 128190, Note_on_c, 0, 76, 89
2, 128191, Note_on_c, 0, 74, 0
2, 128218, Note_on_c, 0, 76, 0
2, 128220, Note_on_c, 0, 77, 89
2, 128233, Control_c, 0, 64, 127
2, 128250, Note_on_c, 0, 79, 89
2, 128251, Note_on_c, 0, 77, 0
2, 128278, Note_on_c, 0, 79, 0
2, 128279, Control_c, 0, 64, 0
2, 128280, Note_on_c, 0, 81, 93
2, 128302, Control_c, 0, 64, 127
2, 128310, Note_on_c, 0, 79, 85
2, 128311, Note_on_c, 0, 81, 0
2, 128340, Control_c, 0, 64, 0
2, 128340, Note_on_c, 0, 82, 93
2, 128342, Note_on_c, 0, 79, 0
2, 128364, Control_c, 0, 64, 127
2, 128370, Note_on_c, 0, 81, 89
2, 128372, Note_on_c, 0, 82, 0
2, 128400, Note_on_c, 0, 86, 98
2, 128401, Note_on_c, 0, 81, 0
2, 128401, Control_c, 0, 64, 0
2, 128426, Control_c, 0, 64, 127
2, 128430, Note_on_c, 0, 86, 0
2, 128430, Note_on_c, 0, 84, 80
2, 128460, Note_on_c, 0, 88, 93
2, 128461, Note_on_c, 0, 84, 0
2, 128461, Control_c, 0, 64, 0
2, 128484, Control_c, 0, 64, 127
2, 128489, Note_on_c, 0, 88, 0
2, 128490, Note_on_c, 0, 89, 93
2, 128518, Control_c, 0, 64, 0
2, 128520, Note_on_c, 0, 82, 85
2, 128521, Note_on_c, 0, 89, 0
2, 128543, Control_c, 0, 64, 127
2, 128589, Note_on_c, 0, 82, 0
2, 128590, Control_c, 0, 64, 0
2, 128625, Note_on_c, 0, 79, 76
2, 128635, Note_on_c, 0, 79, 0
2, 128640, Note_on_c, 0, 81, 85
2, 128660, Control_c, 0, 64, 127
2, 128685, Note_on_c, 0, 84, 76
2, 128688, Note_on_c, 0, 81, 0
2, 128698, Control_c, 0, 64, 0
2, 128699, Note_on_c, 0, 84, 0
2, 128700, Note_on_c, 0, 77, 76
2, 128726, Control_c, 0, 64, 127
2, 128740, Note_on_c, 0, 77, 0
2, 128745, Note_on_c, 0, 81, 76
2, 128760, Note_on_c, 0, 65, 64
2, 128760, Note_on_c, 0, 69, 62
2, 128760, Note_on_c, 0, 72, 68
2, 128763, Note_on_c, 0, 81, 0
2, 128763, Control_c, 0, 64, 0
2, 128787, Control_c, 0, 64, 127
2, 128835, Note_on_c, 0, 65, 0
2, 128844, Note_on_c, 0, 69, 0
2, 128880, Note_on_c, 0, 70, 55
2, 128880, Note_on_c, 0, 67, 76
2, 128887, Control_c, 0, 64, 0
2, 128939, Note_on_c, 0, 72, 0
2, 128940, Note_on_c, 0, 76, 80
2, 128951, Control_c, 0, 64, 127
2, 128960, Note_on_c, 0, 70, 0
2, 128961, Note_on_c, 0, 67, 0
2, 128969, Note_on_c, 0, 76, 0
2, 129000, Note_on_c, 0, 70, 62
2, 129000, Note_on_c, 0, 79, 76
2, 129000, Note_on_c, 0, 64, 64
2, 129001, Control_c, 0, 64, 0
2, 129024, Control_c, 0, 64, 127
2, 129077, Note_on_c, 0, 64, 0
2, 129088, Note_on_c, 0, 70, 0
2, 129100, Note_on_c, 0, 79, 0
2, 129120, Note_on_c, 0, 69, 50
2, 129120, Note_on_c, 0, 77, 57
2, 129120, Note_on_c, 0, 65, 57
2, 129122, Control_c, 0, 64, 0
2, 129137, Control_c, 0, 64, 127
2, 129165, Note_on_c, 0, 65, 0
2, 129165, Note_on_c, 0, 69, 0
2, 129172, Note_on_c, 0, 77, 0
2, 129180, Note_on_c, 0, 69, 72
2, 129190, Control_c, 0, 64, 0
2, 129208, Control_c, 0, 64, 127
2, 129240, Note_on_c, 0, 74, 80
2, 129243, Note_on_c, 0, 69, 0
2, 129248, Control_c, 0, 64, 0
2, 129261, Control_c, 0, 64, 127
2, 129295, Note_on_c, 0, 74, 0
2, 129300, Control_c, 0, 64, 0
2, 129300, Note_on_c, 0, 77, 76
2, 129314, Control_c, 0, 64, 127
2, 129345, Note_on_c, 0, 69, 93
2, 129346, Note_on_c, 0, 77, 0
2, 129350, Note_on_c, 0, 74, 76
2, 129354, Control_c, 0, 64, 0
2, 129355, Note_on_c, 0, 69, 0
2, 129355, Note_on_c, 0, 77, 62
2, 129360, Note_on_c, 0, 81, 89
2, 129361, Note_on_c, 0, 74, 0
2, 129362, Note_on_c, 0, 77, 0
2, 129527, Note_on_c, 0, 81, 0
2, 129540, Note_on_c, 0, 79, 76
2, 129553, Control_c, 0, 64, 127
2, 129555, Note_on_c, 0, 77, 59
2, 129559, Control_c, 0, 64, 0
2, 129560, Note_on_c, 0, 79, 0
2, 129570, Note_on_c, 0, 77, 0
2, 129570, Note_on_c, 0, 76, 68
2, 129585, Note_on_c, 0, 76, 0
2, 129585, Note_on_c, 0, 74, 72
2, 129600, Note_on_c, 0, 73, 80
2, 129602, Note_on_c, 0, 74, 0
2, 129612, Note_on_c, 0, 73, 0
2, 129660, Note_on_c, 0, 74, 93
2, 129672, Note_on_c, 0, 74, 0
2, 129720, Note_on_c, 0, 82, 98
2, 129733, Control_c, 0, 64, 127
2, 129900, Note_on_c, 0, 81, 85
2, 129904, Note_on_c, 0, 82, 0
2, 129908, Control_c, 0, 64, 0
2, 129915, Note_on_c, 0, 79, 68
2, 129918, Note_on_c, 0, 81, 0
2, 129929, Note_on_c, 0, 79, 0
2, 129930, Note_on_c, 0, 77, 60
2, 129936, Control_c, 0, 64, 127
2, 129945, Note_on_c, 0, 77, 0
2, 129945, Note_on_c, 0, 76, 62
2, 129958, Control_c, 0, 64, 0
2, 129960, Note_on_c, 0, 76, 0
2, 129960, Note_on_c, 0, 74, 80
2, 129974, Note_on_c, 0, 74, 0
2, 130020, Note_on_c, 0, 73, 89
2, 130029, Note_on_c, 0, 73, 0
2, 130065, Note_on_c, 0, 69, 62
2, 130070, Note_on_c, 0, 74, 89
2, 130075, Note_on_c, 0, 69, 0
2, 130075, Note_on_c, 0, 77, 89
2, 130080, Note_on_c, 0, 74, 0
2, 130080, Note_on_c, 0, 81, 102
2, 130082, Note_on_c, 0, 77, 0
2, 130147, Control_c, 0, 64, 127
2, 130260, Note_on_c, 0, 81, 0
2, 130260, Note_on_c, 0, 79, 85
2, 130265, Control_c, 0, 64, 0
2, 130275, Note_on_c, 0, 77, 62
2, 130281, Note_on_c, 0, 79, 0
2, 130289, Note_on_c, 0, 77, 0
2, 130290, Note_on_c, 0, 76, 62
2, 130304, Note_on_c, 0, 76, 0
2, 130305, Note_on_c, 0, 74, 64
2, 130320, Note_on_c, 0, 74, 0
2, 130320, Note_on_c, 0, 73, 80
2, 130332, Note_on_c, 0, 73, 0
2, 130380, Note_on_c, 0, 74, 85
2, 130390, Note_on_c, 0, 74, 0
2, 130440, Note_on_c, 0, 77, 89
2, 130459, Control_c, 0, 64, 127
2, 130560, Note_on_c, 0, 76, 80
2, 130564, Control_c, 0, 64, 0
2, 130567, Note_on_c, 0, 77, 0
2, 130586, Control_c, 0, 64, 127
2, 130621, Control_c, 0, 64, 0
2, 130628, Note_on_c, 0, 76, 0
2, 130785, Note_on_c, 0, 69, 62
2, 130790, Note_on_c, 0, 74, 85
2, 130794, Note_on_c, 0, 77, 89
2, 130795, Note_on_c, 0, 69, 0
2, 130800, Note_on_c, 0, 81, 98
2, 130801, Note_on_c, 0, 74, 0
2, 130802, Note_on_c, 0, 77, 0
2, 130874, Control_c, 0, 64, 127
2, 130978, Note_on_c, 0, 81, 0
2, 130980, Note_on_c, 0, 79, 85
2, 130983, Control_c, 0, 64, 0
2, 130995, Note_on_c, 0, 77, 72
2, 131000, Note_on_c, 0, 79, 0
2, 131010, Note_on_c, 0, 77, 0
2, 131010, Note_on_c, 0, 76, 64
2, 131025, Note_on_c, 0, 76, 0
2, 131025, Note_on_c, 0, 74, 64
2, 131040, Note_on_c, 0, 73, 89
2, 131041, Note_on_c, 0, 74, 0
2, 131054, Note_on_c, 0, 73, 0
2, 131100, Note_on_c, 0, 74, 85
2, 131117, Note_on_c, 0, 74, 0
2, 131160, Note_on_c, 0, 87, 115
2, 131168, Control_c, 0, 64, 127
2, 131297, Note_on_c, 0, 87, 0
2, 131337, Control_c, 0, 64, 0
2, 131340, Note_on_c, 0, 86, 93
2, 131355, Note_on_c, 0, 84, 76
2, 131361, Note_on_c, 0, 86, 0
2, 131363, Control_c, 0, 64, 127
2, 131370, Note_on_c, 0, 82, 56
2, 131374, Note_on_c, 0, 84, 0
2, 131384, Note_on_c, 0, 82, 0
2, 131385, Note_on_c, 0, 81, 76
2, 131386, Control_c, 0, 64, 0
2, 131400, Note_on_c, 0, 79, 85
2, 131401, Note_on_c, 0, 81, 0
2, 131413, Control_c, 0, 64, 127
2, 131426, Note_on_c, 0, 79, 0
2, 131430, Note_on_c, 0, 77, 89
2, 131440, Note_on_c, 0, 77, 0
2, 131449, Control_c, 0, 64, 0
2, 131460, Note_on_c, 0, 77, 89
2, 131472, Control_c, 0, 64, 127
2, 131503, Note_on_c, 0, 77, 0
2, 131516, Control_c, 0, 64, 0
2, 131520, Note_on_c, 0, 77, 102
2, 131536, Control_c, 0, 64, 127
2, 131563, Note_on_c, 0, 77, 0
2, 131565, Note_on_c, 0, 82, 76
2, 131572, Control_c, 0, 64, 0
2, 131575, Note_on_c, 0, 82, 0
2, 131580, Note_on_c, 0, 74, 85
2, 131604, Control_c, 0, 64, 127
2, 131617, Note_on_c, 0, 74, 0
2, 131625, Note_on_c, 0, 77, 62
2, 131636, Control_c, 0, 64, 0
2, 131637, Note_on_c, 0, 77, 0
2, 131640, Note_on_c, 0, 70, 85
2, 131656, Control_c, 0, 64, 127
2, 131697, Control_c, 0, 64, 0
2, 131701, Note_on_c, 0, 70, 0
2, 131730, Note_on_c, 0, 70, 85
2, 131732, Control_c, 0, 64, 127
2, 131745, Note_on_c, 0, 70, 0
2, 131760, Note_on_c, 0, 74, 85
2, 131761, Control_c, 0, 64, 0
2, 131771, Note_on_c, 0, 74, 0
2, 131775, Note_on_c, 0, 72, 89
2, 131805, Note_on_c, 0, 70, 68
2, 131812, Note_on_c, 0, 72, 0
2, 131813, Note_on_c, 0, 70, 0
2, 131820, Note_on_c, 0, 72, 89
2, 131865, Note_on_c, 0, 74, 80
2, 131868, Note_on_c, 0, 72, 0
2, 131876, Note_on_c, 0, 74, 0
2, 131880, Note_on_c, 0, 70, 76
2, 131896, Control_c, 0, 64, 127
2, 131990, Note_on_c, 0, 70, 0
2, 131994, Control_c, 0, 64, 0
2, 132255, Control_c, 0, 64, 127
2, 132255, Note_on_c, 0, 70, 57
2, 132269, Note_on_c, 0, 70, 0
2, 132270, Note_on_c, 0, 74, 72
2, 132284, Note_on_c, 0, 74, 0
2, 132285, Note_on_c, 0, 77, 68
2, 132299, Note_on_c, 0, 77, 0
2, 132300, Note_on_c, 0, 82, 68
2, 132314, Note_on_c, 0, 82, 0
2, 132315, Note_on_c, 0, 77, 57
2, 132329, Note_on_c, 0, 77, 0
2, 132330, Note_on_c, 0, 74, 55
2, 132344, Note_on_c, 0, 74, 0
2, 132345, Note_on_c, 0, 70, 43
2, 132359, Note_on_c, 0, 70, 0
2, 132360, Note_on_c, 0, 86, 83
2, 132374, Note_on_c, 0, 86, 0
2, 132375, Note_on_c, 0, 82, 61
2, 132389, Note_on_c, 0, 82, 0
2, 132390, Note_on_c, 0, 77, 64
2, 132404, Note_on_c, 0, 77, 0
2, 132405, Note_on_c, 0, 74, 64
2, 132419, Note_on_c, 0, 74, 0
2, 132420, Control_c, 0, 64, 0
2, 132420, Note_on_c, 0, 70, 96
2, 132432, Note_on_c, 0, 70, 0
2, 132435, Control_c, 0, 64, 127
2, 132435, Note_on_c, 0, 77, 72
2, 132449, Note_on_c, 0, 77, 0
2, 132450, Note_on_c, 0, 89, 83
2, 132464, Note_on_c, 0, 89, 0
2, 132465, Note_on_c, 0, 77, 55
2, 132479, Note_on_c, 0, 77, 0
2, 132480, Control_c, 0, 64, 0
2, 132480, Note_on_c, 0, 72, 80
2, 132495, Control_c, 0, 64, 127
2, 132495, Note_on_c, 0, 77, 72
2, 132496, Note_on_c, 0, 72, 0
2, 132509, Note_on_c, 0, 77, 0
2, 132510, Note_on_c, 0, 87, 76
2, 132524, Note_on_c, 0, 87, 0
2, 132525, Note_on_c, 0, 77, 46
2, 132539, Note_on_c, 0, 77, 0
2, 132540, Control_c, 0, 64, 0
2, 132540, Note_on_c, 0, 74, 83
2, 132553, Note_on_c, 0, 74, 0
2, 132555, Control_c, 0, 64, 127
2, 132555, Note_on_c, 0, 77, 68
2, 132569, Note_on_c, 0, 77, 0
2, 132570, Note_on_c, 0, 86, 91
2, 132584, Note_on_c, 0, 86, 0
2, 132585, Note_on_c, 0, 77, 47
2, 132599, Note_on_c, 0, 77, 0
2, 132600, Control_c, 0, 64, 0
2, 132615, Control_c, 0, 64, 127
2, 132615, Note_on_c, 0, 65, 57
2, 132629, Note_on_c, 0, 65, 0
2, 132630, Note_on_c, 0, 69, 54
2, 132644, Note_on_c, 0, 69, 0
2, 132645, Note_on_c, 0, 72, 50
2, 132659, Note_on_c, 0, 72, 0
2, 132660, Note_on_c, 0, 77, 68
2, 132674, Note_on_c, 0, 77, 0
2, 132675, Note_on_c, 0, 72, 54
2, 132689, Note_on_c, 0, 72, 0
2, 132690, Note_on_c, 0, 69, 61
2, 132704, Note_on_c, 0, 69, 0
2, 132705, Note_on_c, 0, 65, 54
2, 132719, Note_on_c, 0, 65, 0
2, 132720, Note_on_c, 0, 81, 76
2, 132720, Control_c, 0, 64, 0
2, 132720, Control_c, 0, 64, 127
2, 132734, Note_on_c, 0, 81, 0
2, 132735, Note_on_c, 0, 77, 55
2, 132749, Note_on_c, 0, 77, 0
2, 132750, Note_on_c, 0, 72, 55
2, 132764, Note_on_c, 0, 72, 0
2, 132765, Note_on_c, 0, 69, 57
2, 132779, Note_on_c, 0, 69, 0
2, 132780, Control_c, 0, 64, 0
2, 132780, Note_on_c, 0, 65, 91
2, 132795, Control_c, 0, 64, 127
2, 132795, Note_on_c, 0, 72, 72
2, 132799, Note_on_c, 0, 65, 0
2, 132809, Note_on_c, 0, 72, 0
2, 132810, Note_on_c, 0, 84, 83
2, 132824, Note_on_c, 0, 84, 0
2, 132825, Note_on_c, 0, 72, 64
2, 132839, Note_on_c, 0, 72, 0
2, 132840, Control_c, 0, 64, 0
2, 132840, Note_on_c, 0, 67, 88
2, 132854, Note_on_c, 0, 67, 0
2, 132855, Control_c, 0, 64, 127
2, 132855, Note_on_c, 0, 72, 68
2, 132869, Note_on_c, 0, 72, 0
2, 132870, Note_on_c, 0, 82, 68
2, 132884, Note_on_c, 0, 82, 0
2, 132885, Note_on_c, 0, 72, 49
2, 132899, Note_on_c, 0, 72, 0
2, 132900, Control_c, 0, 64, 0
2, 132900, Note_on_c, 0, 69, 88
2, 132912, Note_on_c, 0, 69, 0
2, 132915, Control_c, 0, 64, 127
2, 132915, Note_on_c, 0, 72, 55
2, 132929, Note_on_c, 0, 72, 0
2, 132930, Note_on_c, 0, 81, 83
2, 132944, Note_on_c, 0, 81, 0
2, 132945, Note_on_c, 0, 72, 57
2, 132959, Note_on_c, 0, 72, 0
2, 132960, Control_c, 0, 64, 0
2, 132975, Control_c, 0, 64, 127
2, 132975, Note_on_c, 0, 72, 54
2, 132989, Note_on_c, 0, 72, 0
2, 132990, Note_on_c, 0, 75, 57
2, 133004, Note_on_c, 0, 75, 0
2, 133005, Note_on_c, 0, 79, 72
2, 133019, Note_on_c, 0, 79, 0
2, 133020, Note_on_c, 0, 84, 68
2, 133034, Note_on_c, 0, 84, 0
2, 133035, Note_on_c, 0, 79, 61
2, 133049, Note_on_c, 0, 79, 0
2, 133050, Note_on_c, 0, 75, 51
2, 133064, Note_on_c, 0, 75, 0
2, 133065, Note_on_c, 0, 72, 45
2, 133079, Note_on_c, 0, 72, 0
2, 133080, Note_on_c, 0, 87, 64
2, 133080, Control_c, 0, 64, 0
2, 133080, Control_c, 0, 64, 127
2, 133094, Note_on_c, 0, 87, 0
2, 133095, Note_on_c, 0, 84, 61
2, 133109, Note_on_c, 0, 84, 0
2, 133110, Note_on_c, 0, 79, 68
2, 133124, Note_on_c, 0, 79, 0
2, 133125, Note_on_c, 0, 75, 64
2, 133139, Note_on_c, 0, 75, 0
2, 133140, Control_c, 0, 64, 0
2, 133140, Note_on_c, 0, 67, 101
2, 133155, Control_c, 0, 64, 127
2, 133155, Note_on_c, 0, 79, 68
2, 133157, Note_on_c, 0, 67, 0
2, 133169, Note_on_c, 0, 79, 0
2, 133170, Note_on_c, 0, 84, 76
2, 133184, Note_on_c, 0, 84, 0
2, 133185, Note_on_c, 0, 79, 68
2, 133199, Note_on_c, 0, 79, 0
2, 133200, Control_c, 0, 64, 0
2, 133200, Note_on_c, 0, 77, 88
2, 133215, Control_c, 0, 64, 127
2, 133215, Note_on_c, 0, 79, 53
2, 133216, Note_on_c, 0, 77, 0
2, 133229, Note_on_c, 0, 79, 0
2, 133230, Note_on_c, 0, 86, 83
2, 133244, Note_on_c, 0, 86, 0
2, 133245, Note_on_c, 0, 79, 51
2, 133259, Note_on_c, 0, 79, 0
2, 133260, Control_c, 0, 64, 0
2, 133260, Note_on_c, 0, 75, 91
2, 133275, Control_c, 0, 64, 127
2, 133275, Note_on_c, 0, 79, 57
2, 133278, Note_on_c, 0, 75, 0
2, 133289, Note_on_c, 0, 79, 0
2, 133290, Note_on_c, 0, 87, 72
2, 133304, Note_on_c, 0, 87, 0
2, 133305, Note_on_c, 0, 79, 76
2, 133319, Note_on_c, 0, 79, 0
2, 133320, Control_c, 0, 64, 0
2, 133335, Control_c, 0, 64, 127
2, 133335, Note_on_c, 0, 67, 64
2, 133349, Note_on_c, 0, 67, 0
2, 133350, Note_on_c, 0, 70, 57
2, 133364, Note_on_c, 0, 70, 0
2, 133365, Note_on_c, 0, 74, 72
2, 133379, Note_on_c, 0, 74, 0
2, 133380, Note_on_c, 0, 79, 72
2, 133394, Note_on_c, 0, 79, 0
2, 133395, Note_on_c, 0, 74, 64
2, 133409, Note_on_c, 0, 74, 0
2, 133410, Note_on_c, 0, 70, 55
2, 133424, Note_on_c, 0, 70, 0
2, 133425, Note_on_c, 0, 67, 55
2, 133439, Note_on_c, 0, 67, 0
2, 133440, Note_on_c, 0, 82, 68
2, 133454, Note_on_c, 0, 82, 0
2, 133455, Note_on_c, 0, 79, 64
2, 133469, Note_on_c, 0, 79, 0
2, 133470, Note_on_c, 0, 74, 64
2, 133484, Note_on_c, 0, 74, 0
2, 133485, Note_on_c, 0, 70, 68
2, 133499, Note_on_c, 0, 70, 0
2, 133500, Control_c, 0, 64, 0
2, 133500, Note_on_c, 0, 67, 96
2, 133515, Control_c, 0, 64, 127
2, 133515, Note_on_c, 0, 74, 64
2, 133518, Note_on_c, 0, 67, 0
2, 133529, Note_on_c, 0, 74, 0
2, 133530, Note_on_c, 0, 86, 88
2, 133544, Note_on_c, 0, 86, 0
2, 133545, Note_on_c, 0, 74, 45
2, 133559, Note_on_c, 0, 74, 0
2, 133560, Control_c, 0, 64, 0
2, 133560, Note_on_c, 0, 69, 83
2, 133575, Control_c, 0, 64, 127
2, 133575, Note_on_c, 0, 74, 68
2, 133577, Note_on_c, 0, 69, 0
2, 133589, Note_on_c, 0, 74, 0
2, 133590, Note_on_c, 0, 84, 83
2, 133604, Note_on_c, 0, 84, 0
2, 133605, Note_on_c, 0, 74, 26
2, 133619, Note_on_c, 0, 74, 0
2, 133620, Control_c, 0, 64, 0
2, 133620, Note_on_c, 0, 70, 91
2, 133634, Note_on_c, 0, 70, 0
2, 133635, Control_c, 0, 64, 127
2, 133635, Note_on_c, 0, 74, 80
2, 133649, Note_on_c, 0, 74, 0
2, 133650, Note_on_c, 0, 82, 61
2, 133664, Note_on_c, 0, 82, 0
2, 133665, Note_on_c, 0, 74, 54
2, 133679, Note_on_c, 0, 74, 0
2, 133680, Control_c, 0, 64, 0
2, 133695, Control_c, 0, 64, 127
2, 133695, Note_on_c, 0, 65, 57
2, 133709, Note_on_c, 0, 65, 0
2, 133710, Note_on_c, 0, 69, 72
2, 133724, Note_on_c, 0, 69, 0
2, 133725, Note_on_c, 0, 74, 64
2, 133739, Note_on_c, 0, 74, 0
2, 133740, Note_on_c, 0, 77, 68
2, 133754, Note_on_c, 0, 77, 0
2, 133755, Note_on_c, 0, 74, 61
2, 133769, Note_on_c, 0, 74, 0
2, 133770, Note_on_c, 0, 69, 57
2, 133784, Note_on_c, 0, 69, 0
2, 133785, Note_on_c, 0, 65, 53
2, 133799, Note_on_c, 0, 65, 0
2, 133800, Note_on_c, 0, 81, 80
2, 133814, Note_on_c, 0, 81, 0
2, 133815, Note_on_c, 0, 77, 61
2, 133829, Note_on_c, 0, 77, 0
2, 133830, Note_on_c, 0, 74, 64
2, 133844, Note_on_c, 0, 74, 0
2, 133845, Note_on_c, 0, 69, 57
2, 133859, Note_on_c, 0, 69, 0
2, 133860, Control_c, 0, 64, 0
2, 133860, Note_on_c, 0, 69, 101
2, 133875, Control_c, 0, 64, 127
2, 133875, Note_on_c, 0, 81, 55
2, 133878, Note_on_c, 0, 69, 0
2, 133889, Note_on_c, 0, 81, 0
2, 133890, Note_on_c, 0, 86, 83
2, 133904, Note_on_c, 0, 86, 0
2, 133905, Note_on_c, 0, 81, 54
2, 133919, Note_on_c, 0, 81, 0
2, 133920, Note_on_c, 0, 79, 83
2, 133935, Control_c, 0, 64, 0
2, 133935, Control_c, 0, 64, 127
2, 133935, Note_on_c, 0, 81, 72
2, 133940, Note_on_c, 0, 79, 0
2, 133949, Note_on_c, 0, 81, 0
2, 133950, Note_on_c, 0, 88, 80
2, 133964, Note_on_c, 0, 88, 0
2, 133965, Note_on_c, 0, 81, 68
2, 133979, Note_on_c, 0, 81, 0
2, 133980, Control_c, 0, 64, 0
2, 133980, Note_on_c, 0, 77, 83
2, 133995, Control_c, 0, 64, 127
2, 133995, Note_on_c, 0, 81, 76
2, 133996, Note_on_c, 0, 77, 0
2, 134009, Note_on_c, 0, 81, 0
2, 134010, Note_on_c, 0, 89, 76
2, 134024, Note_on_c, 0, 89, 0
2, 134025, Note_on_c, 0, 81, 61
2, 134039, Note_on_c, 0, 81, 0
2, 134040, Control_c, 0, 64, 0
2, 134055, Control_c, 0, 64, 127
2, 134055, Note_on_c, 0, 68, 57
2, 134069, Note_on_c, 0, 68, 0
2, 134070, Note_on_c, 0, 71, 76
2, 134084, Note_on_c, 0, 71, 0
2, 134085, Note_on_c, 0, 74, 68
2, 134099, Note_on_c, 0, 74, 0
2, 134100, Note_on_c, 0, 80, 76
2, 134114, Note_on_c, 0, 80, 0
2, 134115, Note_on_c, 0, 74, 64
2, 134129, Note_on_c, 0, 74, 0
2, 134130, Note_on_c, 0, 71, 64
2, 134144, Note_on_c, 0, 71, 0
2, 134145, Note_on_c, 0, 68, 55
2, 134159, Note_on_c, 0, 68, 0
2, 134160, Note_on_c, 0, 83, 80
2, 134174, Note_on_c, 0, 83, 0
2, 134175, Note_on_c, 0, 80, 64
2, 134189, Note_on_c, 0, 80, 0
2, 134190, Note_on_c, 0, 74, 64
2, 134204, Note_on_c, 0, 74, 0
2, 134205, Note_on_c, 0, 71, 64
2, 134219, Note_on_c, 0, 71, 0
2, 134220, Control_c, 0, 64, 0
2, 134220, Note_on_c, 0, 74, 88
2, 134235, Note_on_c, 0, 74, 0
2, 134235, Control_c, 0, 64, 127
2, 134235, Note_on_c, 0, 80, 72
2, 134249, Note_on_c, 0, 80, 0
2, 134250, Note_on_c, 0, 86, 80
2, 134264, Note_on_c, 0, 86, 0
2, 134265, Note_on_c, 0, 80, 45
2, 134279, Note_on_c, 0, 80, 0
2, 134280, Control_c, 0, 64, 0
2, 134280, Note_on_c, 0, 69, 91
2, 134295, Note_on_c, 0, 69, 0
2, 134295, Control_c, 0, 64, 127
2, 134295, Note_on_c, 0, 84, 64
2, 134309, Note_on_c, 0, 84, 0
2, 134310, Note_on_c, 0, 88, 83
2, 134324, Note_on_c, 0, 88, 0
2, 134325, Note_on_c, 0, 84, 61
2, 134339, Note_on_c, 0, 84, 0
2, 134340, Control_c, 0, 64, 0
2, 134340, Note_on_c, 0, 71, 83
2, 134354, Note_on_c, 0, 71, 0
2, 134355, Control_c, 0, 64, 127
2, 134355, Note_on_c, 0, 83, 76
2, 134369, Note_on_c, 0, 83, 0
2, 134370, Note_on_c, 0, 89, 80
2, 134384, Note_on_c, 0, 89, 0
2, 134385, Note_on_c, 0, 83, 68
2, 134399, Note_on_c, 0, 83, 0
2, 134400, Control_c, 0, 64, 0
2, 134400, Note_on_c, 0, 72, 83
2, 134412, Control_c, 0, 64, 127
2, 134415, Control_c, 0, 64, 127
2, 134415, Note_on_c, 0, 76, 72
2, 134429, Note_on_c, 0, 76, 0
2, 134430, Note_on_c, 0, 81, 64
2, 134444, Note_on_c, 0, 81, 0
2, 134445, Note_on_c, 0, 84, 68
2, 134459, Note_on_c, 0, 84, 0
2, 134460, Note_on_c, 0, 88, 76
2, 134474, Note_on_c, 0, 88, 0
2, 134475, Note_on_c, 0, 84, 68
2, 134480, Note_on_c, 0, 72, 0
2, 134486, Control_c, 0, 64, 0
2, 134489, Note_on_c, 0, 84, 0
2, 134490, Note_on_c, 0, 81, 57
2, 134504, Note_on_c, 0, 81, 0
2, 134505, Note_on_c, 0, 76, 55
2, 134519, Note_on_c, 0, 76, 0
2, 134520, Note_on_c, 0, 81, 64
2, 134534, Note_on_c, 0, 81, 0
2, 134535, Note_on_c, 0, 76, 53
2, 134549, Note_on_c, 0, 76, 0
2, 134550, Note_on_c, 0, 81, 57
2, 134564, Note_on_c, 0, 81, 0
2, 134565, Note_on_c, 0, 84, 64
2, 134579, Note_on_c, 0, 84, 0
2, 134580, Note_on_c, 0, 88, 68
2, 134594, Note_on_c, 0, 88, 0
2, 134595, Note_on_c, 0, 84, 61
2, 134609, Note_on_c, 0, 84, 0
2, 134610, Note_on_c, 0, 81, 57
2, 134624, Note_on_c, 0, 81, 0
2, 134625, Note_on_c, 0, 76, 64
2, 134639, Note_on_c, 0, 76, 0
2, 134640, Note_on_c, 0, 80, 76
2, 134640, Control_c, 0, 64, 0
2, 134640, Control_c, 0, 64, 127
2, 134654, Note_on_c, 0, 80, 0
2, 134655, Note_on_c, 0, 76, 57
2, 134669, Note_on_c, 0, 76, 0
2, 134670, Note_on_c, 0, 80, 61
2, 134684, Note_on_c, 0, 80, 0
2, 134685, Note_on_c, 0, 86, 68
2, 134699, Note_on_c, 0, 86, 0
2, 134700, Note_on_c, 0, 88, 68
2, 134714, Note_on_c, 0, 88, 0
2, 134715, Note_on_c, 0, 86, 61
2, 134729, Note_on_c, 0, 86, 0
2, 134730, Note_on_c, 0, 80, 68
2, 134744, Note_on_c, 0, 80, 0
2, 134745, Note_on_c, 0, 76, 55
2, 134759, Note_on_c, 0, 76, 0
2, 134760, Control_c, 0, 64, 0
2, 134775, Control_c, 0, 64, 127
2, 134775, Note_on_c, 0, 84, 72
2, 134789, Note_on_c, 0, 84, 0
2, 134790, Note_on_c, 0, 88, 61
2, 134804, Note_on_c, 0, 88, 0
2, 134805, Note_on_c, 0, 84, 72
2, 134819, Note_on_c, 0, 84, 0
2, 134820, Note_on_c, 0, 81, 76
2, 134820, Control_c, 0, 64, 0
2, 134820, Control_c, 0, 64, 127
2, 134834, Note_on_c, 0, 81, 0
2, 134835, Note_on_c, 0, 84, 46
2, 134849, Note_on_c, 0, 84, 0
2, 134850, Note_on_c, 0, 76, 80
2, 134864, Note_on_c, 0, 76, 0
2, 134865, Note_on_c, 0, 81, 50
2, 134879, Note_on_c, 0, 81, 0
2, 134880, Note_on_c, 0, 72, 76
2, 134894, Note_on_c, 0, 72, 0
2, 134895, Note_on_c, 0, 76, 49
2, 134909, Note_on_c, 0, 76, 0
2, 134910, Note_on_c, 0, 69, 76
2, 134924, Note_on_c, 0, 69, 0
2, 134925, Note_on_c, 0, 72, 54
2, 134939, Note_on_c, 0, 72, 0
2, 134940, Note_on_c, 0, 73, 88
2, 134940, Control_c, 0, 64, 0
2, 134940, Control_c, 0, 64, 127
2, 134940, Note_on_c, 0, 67, 96
2, 134954, Note_on_c, 0, 73, 0
2, 134955, Note_on_c, 0, 69, 50
2, 134958, Note_on_c, 0, 67, 0
2, 134969, Note_on_c, 0, 69, 0
2, 134970, Note_on_c, 0, 76, 76
2, 134984, Note_on_c, 0, 76, 0
2, 134985, Note_on_c, 0, 73, 57
2, 134999, Note_on_c, 0, 73, 0
2, 135000, Control_c, 0, 64, 0
2, 135000, Note_on_c, 0, 74, 68
2, 135000, Control_c, 0, 64, 127
2, 135000, Note_on_c, 0, 65, 83
2, 135014, Note_on_c, 0, 65, 0
2, 135014, Note_on_c, 0, 74, 0
2, 135015, Note_on_c, 0, 69, 45
2, 135029, Note_on_c, 0, 69, 0
2, 135030, Note_on_c, 0, 77, 76
2, 135044, Note_on_c, 0, 77, 0
2, 135045, Note_on_c, 0, 74, 50
2, 135059, Note_on_c, 0, 74, 0
2, 135060, Control_c, 0, 64, 0
2, 135060, Note_on_c, 0, 76, 80
2, 135060, Control_c, 0, 64, 127
2, 135060, Note_on_c, 0, 64, 83
2, 135074, Note_on_c, 0, 64, 0
2, 135074, Note_on_c, 0, 76, 0
2, 135075, Note_on_c, 0, 69, 53
2, 135089, Note_on_c, 0, 69, 0
2, 135090, Note_on_c, 0, 79, 83
2, 135104, Note_on_c, 0, 79, 0
2, 135105, Note_on_c, 0, 76, 72
2, 135105, Note_on_c, 0, 69, 85
2, 135110, Note_on_c, 0, 74, 93
2, 135115, Note_on_c, 0, 77, 89
2, 135119, Note_on_c, 0, 69, 0
2, 135119, Note_on_c, 0, 76, 0
2, 135120, Control_c, 0, 64, 0
2, 135120, Note_on_c, 0, 65, 88
2, 135120, Note_on_c, 0, 81, 107
2, 135123, Note_on_c, 0, 74, 0
2, 135128, Note_on_c, 0, 77, 0
2, 135230, Note_on_c, 0, 65, 0
2, 135257, Control_c, 0, 64, 127
2, 135300, Note_on_c, 0, 79, 98
2, 135302, Note_on_c, 0, 81, 0
2, 135305, Control_c, 0, 64, 0
2, 135315, Note_on_c, 0, 77, 76
2, 135327, Note_on_c, 0, 79, 0
2, 135330, Control_c, 0, 64, 127
2, 135330, Note_on_c, 0, 76, 76
2, 135333, Note_on_c, 0, 77, 0
2, 135345, Note_on_c, 0, 76, 0
2, 135345, Note_on_c, 0, 74, 64
2, 135357, Control_c, 0, 64, 0
2, 135359, Note_on_c, 0, 74, 0
2, 135360, Note_on_c, 0, 73, 107
2, 135375, Note_on_c, 0, 73, 0
2, 135420, Note_on_c, 0, 74, 93
2, 135429, Note_on_c, 0, 74, 0
2, 135480, Note_on_c, 0, 82, 119
2, 135510, Control_c, 0, 64, 127
2, 135579, Note_on_c, 0, 82, 0
2, 135653, Control_c, 0, 64, 0
2, 135660, Note_on_c, 0, 81, 93
2, 135675, Note_on_c, 0, 79, 85
2, 135677, Note_on_c, 0, 81, 0
2, 135678, Control_c, 0, 64, 127
2, 135690, Note_on_c, 0, 77, 51
2, 135700, Note_on_c, 0, 79, 0
2, 135704, Control_c, 0, 64, 0
2, 135705, Note_on_c, 0, 77, 0
2, 135705, Note_on_c, 0, 76, 85
2, 135720, Note_on_c, 0, 74, 98
2, 135722, Note_on_c, 0, 76, 0
2, 135736, Note_on_c, 0, 74, 0
2, 135780, Note_on_c, 0, 73, 85
2, 135793, Note_on_c, 0, 73, 0
2, 135825, Note_on_c, 0, 69, 62
2, 135830, Note_on_c, 0, 74, 85
2, 135835, Note_on_c, 0, 77, 89
2, 135840, Note_on_c, 0, 81, 107
2, 135841, Note_on_c, 0, 69, 0
2, 135845, Note_on_c, 0, 74, 0
2, 135847, Note_on_c, 0, 77, 0
2, 135901, Control_c, 0, 64, 127
2, 136007, Note_on_c, 0, 81, 0
2, 136020, Note_on_c, 0, 79, 93
2, 136020, Control_c, 0, 64, 0
2, 136035, Note_on_c, 0, 77, 64
2, 136043, Control_c, 0, 64, 127
2, 136047, Note_on_c, 0, 79, 0
2, 136050, Note_on_c, 0, 76, 59
2, 136053, Note_on_c, 0, 77, 0
2, 136065, Note_on_c, 0, 76, 0
2, 136065, Note_on_c, 0, 74, 64
2, 136066, Control_c, 0, 64, 0
2, 136079, Note_on_c, 0, 74, 0
2, 136080, Note_on_c, 0, 73, 93
2, 136094, Note_on_c, 0, 73, 0
2, 136140, Note_on_c, 0, 74, 89
2, 136153, Note_on_c, 0, 74, 0
2, 136200, Note_on_c, 0, 77, 93
2, 136239, Control_c, 0, 64, 127
2, 136320, Note_on_c, 0, 76, 76
2, 136322, Note_on_c, 0, 77, 0
2, 136322, Control_c, 0, 64, 0
2, 136349, Control_c, 0, 64, 127
2, 136377, Note_on_c, 0, 76, 0
2, 136382, Control_c, 0, 64, 0
2, 136545, Note_on_c, 0, 69, 76
2, 136550, Note_on_c, 0, 74, 89
2, 136555, Note_on_c, 0, 77, 85
2, 136560, Note_on_c, 0, 69, 0
2, 136560, Note_on_c, 0, 81, 102
2, 136565, Note_on_c, 0, 74, 0
2, 136568, Note_on_c, 0, 77, 0
2, 136622, Control_c, 0, 64, 127
2, 136726, Note_on_c, 0, 81, 0
2, 136740, Note_on_c, 0, 79, 98
2, 136752, Control_c, 0, 64, 0
2, 136755, Note_on_c, 0, 77, 64
2, 136767, Note_on_c, 0, 79, 0
2, 136770, Note_on_c, 0, 76, 72
2, 136771, Note_on_c, 0, 77, 0
2, 136785, Note_on_c, 0, 74, 76
2, 136789, Note_on_c, 0, 76, 0
2, 136800, Note_on_c, 0, 73, 56
2, 136801, Note_on_c, 0, 74, 0
2, 136813, Note_on_c, 0, 73, 0
2, 136860, Note_on_c, 0, 74, 107
2, 136874, Note_on_c, 0, 74, 0
2, 136905, Note_on_c, 0, 74, 64
2, 136910, Note_on_c, 0, 79, 89
2, 136915, Note_on_c, 0, 82, 93
2, 136919, Note_on_c, 0, 74, 0
2, 136920, Note_on_c, 0, 86, 113
2, 136923, Note_on_c, 0, 79, 0
2, 136928, Note_on_c, 0, 82, 0
2, 136990, Control_c, 0, 64, 127
2, 137096, Note_on_c, 0, 86, 0
2, 137100, Note_on_c, 0, 84, 93
2, 137101, Control_c, 0, 64, 0
2, 137115, Note_on_c, 0, 82, 76
2, 137126, Note_on_c, 0, 84, 0
2, 137130, Note_on_c, 0, 81, 72
2, 137135, Note_on_c, 0, 82, 0
2, 137145, Note_on_c, 0, 81, 0
2, 137145, Note_on_c, 0, 79, 80
2, 137158, Note_on_c, 0, 79, 0
2, 137160, Note_on_c, 0, 78, 102
2, 137176, Note_on_c, 0, 78, 0
2, 137220, Note_on_c, 0, 79, 93
2, 137228, Control_c, 0, 64, 127
2, 137232, Note_on_c, 0, 79, 0
2, 137232, Control_c, 0, 64, 0
2, 137280, Note_on_c, 0, 81, 102
2, 137306, Control_c, 0, 64, 127
2, 137319, Note_on_c, 0, 81, 0
2, 137325, Note_on_c, 0, 86, 89
2, 137329, Control_c, 0, 64, 0
2, 137340, Note_on_c, 0, 77, 80
2, 137341, Note_on_c, 0, 86, 0
2, 137377, Note_on_c, 0, 77, 0
2, 137385, Note_on_c, 0, 81, 80
2, 137400, Note_on_c, 0, 74, 93
2, 137402, Note_on_c, 0, 81, 0
2, 137425, Control_c, 0, 64, 127
2, 137465, Control_c, 0, 64, 0
2, 137478, Note_on_c, 0, 74, 0
2, 137490, Note_on_c, 0, 74, 80
2, 137509, Note_on_c, 0, 74, 0
2, 137520, Note_on_c, 0, 77, 85
2, 137543, Note_on_c, 0, 77, 0
2, 137550, Note_on_c, 0, 76, 89
2, 137610, Note_on_c, 0, 74, 89
2, 137620, Note_on_c, 0, 76, 0
2, 137622, Note_on_c, 0, 74, 0
2, 137625, Note_on_c, 0, 69, 93
2, 137630, Note_on_c, 0, 74, 93
2, 137635, Note_on_c, 0, 77, 93
2, 137638, Note_on_c, 0, 69, 0
2, 137640, Note_on_c, 0, 81, 102
2, 137642, Note_on_c, 0, 74, 0
2, 137649, Note_on_c, 0, 77, 0
2, 137732, Control_c, 0, 64, 127
2, 137785, Note_on_c, 0, 81, 0
2, 137820, Note_on_c, 0, 79, 93
2, 137835, Note_on_c, 0, 77, 68
2, 137839, Control_c, 0, 64, 0
2, 137845, Note_on_c, 0, 79, 0
2, 137850, Note_on_c, 0, 76, 64
2, 137853, Note_on_c, 0, 77, 0
2, 137863, Note_on_c, 0, 76, 0
2, 137865, Note_on_c, 0, 74, 64
2, 137878, Note_on_c, 0, 74, 0
2, 137880, Note_on_c, 0, 73, 98
2, 137895, Note_on_c, 0, 73, 0
2, 137940, Note_on_c, 0, 74, 98
2, 137950, Note_on_c, 0, 74, 0
2, 137985, Note_on_c, 0, 74, 60
2, 137990, Note_on_c, 0, 79, 85
2, 138000, Note_on_c, 0, 86, 107
2, 138000, Note_on_c, 0, 82, 89
2, 138001, Note_on_c, 0, 74, 0
2, 138003, Note_on_c, 0, 79, 0
2, 138015, Note_on_c, 0, 82, 0
2, 138126, Control_c, 0, 64, 127
2, 138176, Note_on_c, 0, 86, 0
2, 138180, Note_on_c, 0, 84, 98
2, 138185, Control_c, 0, 64, 0
2, 138195, Note_on_c, 0, 82, 64
2, 138207, Note_on_c, 0, 84, 0
2, 138210, Note_on_c, 0, 81, 72
2, 138211, Note_on_c, 0, 82, 0
2, 138224, Note_on_c, 0, 81, 0
2, 138225, Note_on_c, 0, 79, 64
2, 138240, Note_on_c, 0, 79, 0
2, 138240, Note_on_c, 0, 78, 107
2, 138255, Note_on_c, 0, 78, 0
2, 138300, Note_on_c, 0, 79, 98
2, 138311, Control_c, 0, 64, 127
2, 138312, Note_on_c, 0, 79, 0
2, 138328, Control_c, 0, 64, 0
2, 138360, Note_on_c, 0, 82, 98
2, 138381, Control_c, 0, 64, 127
2, 138485, Note_on_c, 0, 82, 0
2, 138537, Control_c, 0, 64, 0
2, 138540, Note_on_c, 0, 81, 98
2, 138555, Note_on_c, 0, 79, 89
2, 138561, Note_on_c, 0, 81, 0
2, 138570, Note_on_c, 0, 77, 64
2, 138570, Control_c, 0, 64, 127
2, 138579, Note_on_c, 0, 77, 0
2, 138580, Note_on_c, 0, 79, 0
2, 138585, Note_on_c, 0, 76, 98
2, 138593, Control_c, 0, 64, 0
2, 138600, Note_on_c, 0, 74, 93
2, 138605, Note_on_c, 0, 76, 0
2, 138618, Note_on_c, 0, 74, 0
2, 138630, Note_on_c, 0, 72, 89
2, 138644, Note_on_c, 0, 72, 0
2, 138660, Note_on_c, 0, 72, 93
2, 138690, Control_c, 0, 64, 127
2, 138695, Note_on_c, 0, 72, 0
2, 138720, Note_on_c, 0, 72, 93
2, 138720, Note_on_c, 0, 70, 93
2, 138722, Control_c, 0, 64, 0
2, 138769, Control_c, 0, 64, 127
2, 138897, Note_on_c, 0, 72, 0
2, 138900, Note_on_c, 0, 70, 0
2, 138900, Note_on_c, 0, 71, 93
2, 138900, Note_on_c, 0, 69, 93
2, 138904, Control_c, 0, 64, 0
2, 138914, Note_on_c, 0, 69, 0
2, 138915, Note_on_c, 0, 72, 68
2, 138915, Note_on_c, 0, 67, 76
2, 138920, Note_on_c, 0, 71, 0
2, 138929, Note_on_c, 0, 67, 0
2, 138930, Note_on_c, 0, 74, 72
2, 138930, Note_on_c, 0, 65, 72
2, 138931, Note_on_c, 0, 72, 0
2, 138932, Control_c, 0, 64, 127
2, 138944, Note_on_c, 0, 65, 0
2, 138945, Note_on_c, 0, 72, 80
2, 138945, Note_on_c, 0, 64, 56
2, 138946, Note_on_c, 0, 74, 0
2, 138956, Note_on_c, 0, 72, 0
2, 138956, Control_c, 0, 64, 0
2, 138959, Note_on_c, 0, 64, 0
2, 138960, Note_on_c, 0, 77, 93
2, 138960, Note_on_c, 0, 62, 93
2, 138990, Note_on_c, 0, 62, 0
2, 138990, Note_on_c, 0, 76, 85
2, 138990, Note_on_c, 0, 60, 76
2, 138992, Note_on_c, 0, 77, 0
2, 139005, Note_on_c, 0, 76, 0
2, 139020, Note_on_c, 0, 60, 0
2, 139020, Note_on_c, 0, 76, 93
2, 139020, Note_on_c, 0, 60, 85
2, 139047, Control_c, 0, 64, 127
2, 139065, Note_on_c, 0, 60, 0
2, 139069, Note_on_c, 0, 76, 0
2, 139080, Note_on_c, 0, 76, 98
2, 139080, Note_on_c, 0, 60, 93
2, 139085, Control_c, 0, 64, 0
2, 139127, Control_c, 0, 64, 127
2, 139244, Note_on_c, 0, 76, 0
2, 139257, Control_c, 0, 64, 0
2, 139260, Note_on_c, 0, 60, 0
2, 139260, Note_on_c, 0, 77, 89
2, 139260, Note_on_c, 0, 62, 80
2, 139274, Note_on_c, 0, 62, 0
2, 139275, Note_on_c, 0, 76, 76
2, 139275, Note_on_c, 0, 60, 72
2, 139280, Note_on_c, 0, 77, 0
2, 139285, Control_c, 0, 64, 127
2, 139289, Note_on_c, 0, 60, 0
2, 139290, Note_on_c, 0, 74, 72
2, 139290, Note_on_c, 0, 59, 68
2, 139291, Note_on_c, 0, 76, 0
2, 139304, Note_on_c, 0, 59, 0
2, 139305, Note_on_c, 0, 76, 89
2, 139305, Note_on_c, 0, 60, 72
2, 139308, Note_on_c, 0, 74, 0
2, 139312, Control_c, 0, 64, 0
2, 139318, Note_on_c, 0, 76, 0
2, 139319, Note_on_c, 0, 60, 0
2, 139320, Note_on_c, 0, 79, 93
2, 139320, Note_on_c, 0, 64, 85
2, 139345, Note_on_c, 0, 79, 0
2, 139350, Note_on_c, 0, 64, 0
2, 139380, Note_on_c, 0, 79, 98
2, 139380, Note_on_c, 0, 64, 89
2, 139394, Note_on_c, 0, 64, 0
2, 139401, Note_on_c, 0, 79, 0
2, 139440, Note_on_c, 0, 79, 89
2, 139440, Note_on_c, 0, 64, 89
2, 139458, Control_c, 0, 64, 127
2, 139500, Note_on_c, 0, 72, 80
2, 139502, Note_on_c, 0, 79, 0
2, 139558, Note_on_c, 0, 72, 0
2, 139560, Note_on_c, 0, 76, 98
2, 139614, Note_on_c, 0, 76, 0
2, 139620, Note_on_c, 0, 64, 0
2, 139620, Note_on_c, 0, 79, 107
2, 139620, Note_on_c, 0, 65, 76
2, 139634, Note_on_c, 0, 79, 0
2, 139635, Note_on_c, 0, 64, 64
2, 139649, Note_on_c, 0, 64, 0
2, 139650, Note_on_c, 0, 65, 0
2, 139650, Note_on_c, 0, 62, 59
2, 139664, Note_on_c, 0, 62, 0
2, 139665, Note_on_c, 0, 64, 76
2, 139679, Note_on_c, 0, 64, 0
2, 139680, Note_on_c, 0, 82, 107
2, 139680, Note_on_c, 0, 67, 89
2, 139682, Control_c, 0, 64, 0
2, 139702, Control_c, 0, 64, 127
2, 139703, Note_on_c, 0, 82, 0
2, 139710, Note_on_c, 0, 67, 0
2, 139731, Control_c, 0, 64, 0
2, 139740, Note_on_c, 0, 82, 119
2, 139740, Note_on_c, 0, 67, 93
2, 139754, Note_on_c, 0, 67, 0
2, 139754, Note_on_c, 0, 82, 0
2, 139800, Note_on_c, 0, 82, 119
2, 139800, Note_on_c, 0, 67, 98
2, 139818, Control_c, 0, 64, 127
2, 139920, Note_on_c, 0, 67, 0
2, 139944, Note_on_c, 0, 82, 0
2, 139950, Note_on_c, 0, 81, 93
2, 139980, Note_on_c, 0, 84, 93
2, 139984, Note_on_c, 0, 81, 0
2, 139988, Control_c, 0, 64, 0
2, 140010, Note_on_c, 0, 82, 80
2, 140015, Note_on_c, 0, 84, 0
2, 140019, Control_c, 0, 64, 127
2, 140040, Note_on_c, 0, 81, 93
2, 140042, Note_on_c, 0, 82, 0
2, 140047, Control_c, 0, 64, 0
2, 140068, Note_on_c, 0, 81, 0
2, 140070, Note_on_c, 0, 79, 76
2, 140074, Control_c, 0, 64, 127
2, 140100, Note_on_c, 0, 79, 0
2, 140100, Note_on_c, 0, 82, 107
2, 140102, Control_c, 0, 64, 0
2, 140126, Control_c, 0, 64, 127
2, 140130, Note_on_c, 0, 81, 85
2, 140139, Note_on_c, 0, 82, 0
2, 140145, Note_on_c, 0, 81, 0
2, 140160, Note_on_c, 0, 79, 89
2, 140165, Control_c, 0, 64, 0
2, 140187, Note_on_c, 0, 79, 0
2, 140190, Note_on_c, 0, 77, 64
2, 140194, Control_c, 0, 64, 127
2, 140213, Note_on_c, 0, 77, 0
2, 140220, Note_on_c, 0, 81, 98
2, 140221, Control_c, 0, 64, 0
2, 140248, Control_c, 0, 64, 127
2, 140250, Note_on_c, 0, 79, 76
2, 140256, Note_on_c, 0, 81, 0
2, 140280, Note_on_c, 0, 77, 89
2, 140282, Note_on_c, 0, 79, 0
2, 140282, Control_c, 0, 64, 0
2, 140308, Control_c, 0, 64, 127
2, 140310, Note_on_c, 0, 77, 0
2, 140310, Note_on_c, 0, 76, 59
2, 140331, Note_on_c, 0, 76, 0
2, 140336, Control_c, 0, 64, 0
2, 140340, Note_on_c, 0, 79, 102
2, 140360, Control_c, 0, 64, 127
2, 140370, Note_on_c, 0, 77, 80
2, 140377, Note_on_c, 0, 79, 0
2, 140399, Control_c, 0, 64, 0
2, 140400, Note_on_c, 0, 77, 0
2, 140400, Note_on_c, 0, 76, 80
2, 140415, Note_on_c, 0, 74, 76
2, 140424, Note_on_c, 0, 76, 0
2, 140430, Note_on_c, 0, 77, 85
2, 140430, Control_c, 0, 64, 127
2, 140439, Note_on_c, 0, 74, 0
2, 140445, Note_on_c, 0, 76, 89
2, 140452, Control_c, 0, 64, 0
2, 140453, Note_on_c, 0, 77, 0
2, 140459, Note_on_c, 0, 76, 0
2, 140460, Note_on_c, 0, 79, 93
2, 140475, Note_on_c, 0, 77, 76
2, 140483, Note_on_c, 0, 79, 0
2, 140490, Note_on_c, 0, 76, 68
2, 140493, Note_on_c, 0, 77, 0
2, 140500, Control_c, 0, 64, 127
2, 140505, Note_on_c, 0, 74, 98
2, 140520, Note_on_c, 0, 74, 0
2, 140520, Note_on_c, 0, 72, 93
2, 140520, Note_on_c, 0, 69, 93
2, 140522, Note_on_c, 0, 76, 0
2, 140541, Control_c, 0, 64, 127
2, 140640, Control_c, 0, 64, 0
2, 140640, Note_on_c, 0, 77, 89
2, 140641, Note_on_c, 0, 72, 0
2, 140673, Control_c, 0, 64, 127
2, 140700, Note_on_c, 0, 69, 0
2, 140700, Note_on_c, 0, 81, 80
2, 140700, Note_on_c, 0, 72, 89
2, 140701, Note_on_c, 0, 77, 0
2, 140748, Control_c, 0, 64, 0
2, 140755, Note_on_c, 0, 81, 0
2, 140760, Note_on_c, 0, 72, 0
2, 140760, Note_on_c, 0, 79, 85
2, 140760, Note_on_c, 0, 70, 72
2, 140781, Control_c, 0, 64, 127
2, 140803, Note_on_c, 0, 79, 0
2, 140805, Note_on_c, 0, 82, 72
2, 140818, Control_c, 0, 64, 0
2, 140820, Note_on_c, 0, 82, 0
2, 140820, Note_on_c, 0, 70, 0
2, 140820, Note_on_c, 0, 76, 68
2, 140820, Note_on_c, 0, 67, 72
2, 140864, Note_on_c, 0, 76, 0
2, 140865, Note_on_c, 0, 79, 85
2, 140880, Note_on_c, 0, 79, 0
2, 140880, Note_on_c, 0, 67, 0
2, 140880, Note_on_c, 0, 77, 93
2, 140880, Note_on_c, 0, 72, 76
2, 140903, Control_c, 0, 64, 127
2, 141000, Note_on_c, 0, 72, 0
2, 141000, Note_on_c, 0, 69, 64
2, 141029, Note_on_c, 0, 77, 0
2, 141030, Note_on_c, 0, 76, 89
2, 141045, Note_on_c, 0, 77, 76
2, 141046, Note_on_c, 0, 76, 0
2, 141046, Control_c, 0, 64, 0
2, 141059, Note_on_c, 0, 77, 0
2, 141060, Note_on_c, 0, 79, 72
2, 141075, Note_on_c, 0, 69, 0
2, 141075, Note_on_c, 0, 77, 72
2, 141086, Note_on_c, 0, 79, 0
2, 141090, Note_on_c, 0, 76, 64
2, 141095, Note_on_c, 0, 77, 0
2, 141105, Note_on_c, 0, 74, 64
2, 141107, Note_on_c, 0, 76, 0
2, 141120, Note_on_c, 0, 72, 85
2, 141121, Note_on_c, 0, 74, 0
2, 141150, Control_c, 0, 64, 127
2, 141176, Note_on_c, 0, 72, 0
2, 141197, Control_c, 0, 64, 0
2, 141240, Note_on_c, 0, 69, 89
2, 141240, Note_on_c, 0, 66, 76
2, 141258, Control_c, 0, 64, 127
2, 141320, Note_on_c, 0, 66, 0
2, 141321, Note_on_c, 0, 69, 0
2, 141357, Control_c, 0, 64, 0
2, 141360, Note_on_c, 0, 70, 80
2, 141360, Note_on_c, 0, 67, 85
2, 141379, Control_c, 0, 64, 127
2, 141406, Note_on_c, 0, 67, 0
2, 141412, Note_on_c, 0, 70, 0
2, 141418, Control_c, 0, 64, 0
2, 141420, Note_on_c, 0, 69, 89
2, 141420, Note_on_c, 0, 72, 80
2, 141435, Control_c, 0, 64, 127
2, 141467, Note_on_c, 0, 72, 0
2, 141468, Note_on_c, 0, 69, 0
2, 141478, Control_c, 0, 64, 0
2, 141480, Note_on_c, 0, 70, 72
2, 141480, Note_on_c, 0, 74, 89
2, 141496, Control_c, 0, 64, 127
2, 141513, Note_on_c, 0, 70, 0
2, 141517, Note_on_c, 0, 74, 0
2, 141540, Note_on_c, 0, 70, 72
2, 141540, Note_on_c, 0, 67, 76
2, 141557, Note_on_c, 0, 70, 0
2, 141559, Note_on_c, 0, 67, 0
2, 141597, Control_c, 0, 64, 0
2, 141600, Note_on_c, 0, 67, 89
2, 141600, Note_on_c, 0, 64, 80
2, 141623, Control_c, 0, 64, 127
2, 141737, Note_on_c, 0, 64, 0
2, 141744, Note_on_c, 0, 67, 0
2, 141765, Note_on_c, 0, 69, 80
2, 141765, Note_on_c, 0, 65, 76
2, 141772, Control_c, 0, 64, 0
2, 141775, Note_on_c, 0, 65, 0
2, 141777, Note_on_c, 0, 69, 0
2, 141780, Note_on_c, 0, 65, 62
2, 141780, Note_on_c, 0, 62, 72
2, 141790, Control_c, 0, 64, 127
2, 141810, Note_on_c, 0, 62, 0
2, 141811, Note_on_c, 0, 65, 0
2, 141825, Note_on_c, 0, 69, 80
2, 141825, Note_on_c, 0, 65, 57
2, 141831, Control_c, 0, 64, 0
2, 141835, Note_on_c, 0, 65, 0
2, 141839, Note_on_c, 0, 69, 0
2, 141840, Note_on_c, 0, 64, 62
2, 141840, Note_on_c, 0, 67, 76
2, 141850, Control_c, 0, 64, 127
2, 141896, Note_on_c, 0, 64, 0
2, 141898, Note_on_c, 0, 67, 0
2, 141949, Control_c, 0, 64, 0
2, 141960, Note_on_c, 0, 69, 98
2, 141998, Control_c, 0, 64, 127
2, 142128, Control_c, 0, 64, 0
2, 142133, Note_on_c, 0, 69, 0
2, 142140, Note_on_c, 0, 70, 89
2, 142148, Control_c, 0, 64, 127
2, 142170, Note_on_c, 0, 70, 0
2, 142170, Note_on_c, 0, 72, 85
2, 142175, Control_c, 0, 64, 0
2, 142200, Note_on_c, 0, 74, 89
2, 142204, Note_on_c, 0, 72, 0
2, 142230, Note_on_c, 0, 76, 80
2, 142232, Note_on_c, 0, 74, 0
2, 142257, Control_c, 0, 64, 127
2, 142259, Note_on_c, 0, 76, 0
2, 142260, Note_on_c, 0, 77, 85
2, 142269, Control_c, 0, 64, 0
2, 142285, Control_c, 0, 64, 127
2, 142290, Note_on_c, 0, 79, 85
2, 142292, Note_on_c, 0, 77, 0
2, 142299, Control_c, 0, 64, 0
2, 142319, Note_on_c, 0, 79, 0
2, 142320, Note_on_c, 0, 81, 85
2, 142339, Control_c, 0, 64, 127
2, 142349, Note_on_c, 0, 81, 0
2, 142350, Note_on_c, 0, 79, 76
2, 142376, Control_c, 0, 64, 0
2, 142380, Note_on_c, 0, 82, 89
2, 142383, Note_on_c, 0, 79, 0
2, 142408, Control_c, 0, 64, 127
2, 142410, Note_on_c, 0, 82, 0
2, 142410, Note_on_c, 0, 81, 62
2, 142438, Control_c, 0, 64, 0
2, 142440, Note_on_c, 0, 81, 0
2, 142440, Note_on_c, 0, 86, 98
2, 142465, Control_c, 0, 64, 127
2, 142470, Note_on_c, 0, 84, 85
2, 142473, Note_on_c, 0, 86, 0
2, 142499, Control_c, 0, 64, 0
2, 142500, Note_on_c, 0, 88, 89
2, 142502, Note_on_c, 0, 84, 0
2, 142519, Control_c, 0, 64, 127
2, 142521, Note_on_c, 0, 88, 0
2, 142530, Note_on_c, 0, 89, 102
2, 142559, Note_on_c, 0, 89, 0
2, 142559, Control_c, 0, 64, 0
2, 142560, Note_on_c, 0, 82, 76
2, 142594, Control_c, 0, 64, 127
2, 142637, Control_c, 0, 64, 0
2, 142643, Note_on_c, 0, 82, 0
2, 142665, Note_on_c, 0, 79, 89
2, 142678, Note_on_c, 0, 79, 0
2, 142680, Note_on_c, 0, 81, 98
2, 142708, Control_c, 0, 64, 127
2, 142724, Note_on_c, 0, 81, 0
2, 142725, Note_on_c, 0, 84, 80
2, 142730, Control_c, 0, 64, 0
2, 142740, Note_on_c, 0, 77, 93
2, 142744, Note_on_c, 0, 84, 0
2, 142764, Control_c, 0, 64, 127
2, 142774, Note_on_c, 0, 77, 0
2, 142785, Note_on_c, 0, 81, 76
2, 142785, Control_c, 0, 64, 0
2, 142800, Note_on_c, 0, 72, 93
2, 142800, Note_on_c, 0, 65, 89
2, 142800, Note_on_c, 0, 69, 89
2, 142804, Note_on_c, 0, 81, 0
2, 142824, Control_c, 0, 64, 127
2, 142905, Note_on_c, 0, 69, 0
2, 142905, Note_on_c, 0, 65, 0
2, 142920, Note_on_c, 0, 70, 51
2, 142920, Note_on_c, 0, 67, 89
2, 142970, Control_c, 0, 64, 0
2, 142976, Note_on_c, 0, 72, 0
2, 142980, Note_on_c, 0, 76, 93
2, 142997, Control_c, 0, 64, 127
2, 143010, Note_on_c, 0, 67, 0
2, 143010, Note_on_c, 0, 70, 0
2, 143028, Control_c, 0, 64, 127
2, 143029, Control_c, 0, 64, 0
2, 143035, Control_c, 0, 64, 0
2, 143040, Note_on_c, 0, 76, 0
2, 143040, Note_on_c, 0, 79, 93
2, 143040, Note_on_c, 0, 70, 62
2, 143040, Note_on_c, 0, 64, 72
2, 143066, Control_c, 0, 64, 127
2, 143157, Control_c, 0, 64, 0
2, 143160, Note_on_c, 0, 64, 0
2, 143160, Note_on_c, 0, 70, 0
2, 143160, Note_on_c, 0, 77, 85
2, 143160, Note_on_c, 0, 69, 72
2, 143160, Note_on_c, 0, 65, 50
2, 143164, Note_on_c, 0, 79, 0
2, 143180, Control_c, 0, 64, 127
2, 143235, Note_on_c, 0, 65, 0
2, 143235, Note_on_c, 0, 69, 0
2, 143262, Note_on_c, 0, 77, 0
2, 143273, Control_c, 0, 64, 0
2, 143398, Control_c, 0, 64, 0
2, 143400, Note_on_c, 0, 79, 107
2, 143400, Note_on_c, 0, 67, 89
2, 143441, Control_c, 0, 64, 127
2, 143565, Note_on_c, 0, 67, 0
2, 143580, Note_on_c, 0, 79, 0
2, 143580, Note_on_c, 0, 81, 85
2, 143580, Note_on_c, 0, 69, 80
2, 143584, Control_c, 0, 64, 0
2, 143594, Note_on_c, 0, 69, 0
2, 143594, Note_on_c, 0, 81, 0
2, 143595, Note_on_c, 0, 79, 76
2, 143595, Note_on_c, 0, 67, 76
2, 143609, Note_on_c, 0, 67, 0
2, 143609, Note_on_c, 0, 79, 0
2, 143610, Note_on_c, 0, 77, 62
2, 143610, Note_on_c, 0, 65, 72
2, 143624, Note_on_c, 0, 77, 0
2, 143625, Note_on_c, 0, 79, 59
2, 143625, Note_on_c, 0, 67, 48
2, 143639, Note_on_c, 0, 67, 0
2, 143639, Note_on_c, 0, 79, 0
2, 143640, Note_on_c, 0, 65, 0
2, 143640, Note_on_c, 0, 81, 85
2, 143640, Note_on_c, 0, 69, 85
2, 143669, Control_c, 0, 64, 127
2, 143670, Note_on_c, 0, 81, 0
2, 143682, Control_c, 0, 64, 0
2, 143700, Note_on_c, 0, 69, 0
2, 143700, Note_on_c, 0, 77, 89
2, 143700, Note_on_c, 0, 65, 80
2, 143714, Note_on_c, 0, 65, 0
2, 143714, Note_on_c, 0, 77, 0
2, 143760, Note_on_c, 0, 81, 85
2, 143760, Note_on_c, 0, 69, 102
2, 143774, Note_on_c, 0, 81, 0
2, 143790, Note_on_c, 0, 69, 0
2, 143790, Note_on_c, 0, 79, 89
2, 143790, Note_on_c, 0, 67, 60
2, 143882, Control_c, 0, 64, 127
2, 143940, Note_on_c, 0, 67, 0
2, 143940, Note_on_c, 0, 79, 0
2, 143940, Note_on_c, 0, 81, 76
2, 143940, Note_on_c, 0, 69, 76
2, 143950, Control_c, 0, 64, 0
2, 143954, Note_on_c, 0, 81, 0
2, 143955, Note_on_c, 0, 79, 64
2, 143955, Note_on_c, 0, 67, 62
2, 143969, Note_on_c, 0, 67, 0
2, 143969, Note_on_c, 0, 79, 0
2, 143970, Note_on_c, 0, 69, 0
2, 143970, Note_on_c, 0, 77, 53
2, 143970, Note_on_c, 0, 65, 72
2, 143984, Note_on_c, 0, 65, 0
2, 143984, Note_on_c, 0, 77, 0
2, 143985, Note_on_c, 0, 79, 80
2, 143985, Note_on_c, 0, 67, 85
2, 143999, Note_on_c, 0, 67, 0
2, 143999, Note_on_c, 0, 79, 0
2, 144000, Note_on_c, 0, 81, 85
2, 144000, Note_on_c, 0, 69, 89
2, 144060, Note_on_c, 0, 69, 0
2, 144060, Note_on_c, 0, 81, 0
2, 144060, Note_on_c, 0, 77, 93
2, 144060, Note_on_c, 0, 65, 85
2, 144074, Note_on_c, 0, 65, 0
2, 144074, Note_on_c, 0, 77, 0
2, 144120, Note_on_c, 0, 82, 102
2, 144120, Note_on_c, 0, 70, 85
2, 144141, Control_c, 0, 64, 127
2, 144150, Note_on_c, 0, 82, 0
2, 144162, Control_c, 0, 64, 0
2, 144165, Note_on_c, 0, 70, 0
2, 144165, Note_on_c, 0, 84, 80
2, 144165, Note_on_c, 0, 72, 80
2, 144179, Note_on_c, 0, 72, 0
2, 144179, Note_on_c, 0, 84, 0
2, 144180, Note_on_c, 0, 86, 89
2, 144180, Note_on_c, 0, 74, 76
2, 144210, Note_on_c, 0, 74, 0
2, 144210, Note_on_c, 0, 86, 0
2, 144225, Note_on_c, 0, 84, 89
2, 144225, Note_on_c, 0, 72, 93
2, 144239, Note_on_c, 0, 72, 0
2, 144239, Note_on_c, 0, 84, 0
2, 144240, Note_on_c, 0, 82, 76
2, 144240, Note_on_c, 0, 70, 76
2, 144285, Note_on_c, 0, 82, 0
2, 144300, Note_on_c, 0, 70, 0
2, 144300, Note_on_c, 0, 81, 93
2, 144300, Note_on_c, 0, 69, 85
2, 144314, Note_on_c, 0, 69, 0
2, 144314, Note_on_c, 0, 81, 0
2, 144360, Note_on_c, 0, 79, 80
2, 144360, Note_on_c, 0, 67, 72
2, 144374, Note_on_c, 0, 67, 0
2, 144374, Note_on_c, 0, 79, 0
2, 144420, Note_on_c, 0, 77, 80
2, 144420, Note_on_c, 0, 65, 76
2, 144434, Note_on_c, 0, 65, 0
2, 144434, Note_on_c, 0, 77, 0
2, 144480, Note_on_c, 0, 81, 93
2, 144480, Note_on_c, 0, 69, 72
2, 144520, Control_c, 0, 64, 127
2, 144600, Note_on_c, 0, 69, 0
2, 144600, Note_on_c, 0, 81, 0
2, 144600, Note_on_c, 0, 79, 76
2, 144600, Note_on_c, 0, 67, 72
2, 144607, Control_c, 0, 64, 0
2, 144643, Control_c, 0, 64, 127
2, 144660, Note_on_c, 0, 67, 0
2, 144676, Control_c, 0, 64, 0
2, 144690, Note_on_c, 0, 79, 0
2, 144840, Note_on_c, 0, 79, 93
2, 144840, Note_on_c, 0, 67, 89
2, 144968, Control_c, 0, 64, 127
2, 145020, Note_on_c, 0, 67, 0
2, 145020, Note_on_c, 0, 79, 0
2, 145020, Note_on_c, 0, 81, 89
2, 145020, Note_on_c, 0, 69, 76
2, 145025, Control_c, 0, 64, 0
2, 145034, Note_on_c, 0, 69, 0
2, 145035, Note_on_c, 0, 79, 76
2, 145035, Note_on_c, 0, 67, 76
2, 145049, Note_on_c, 0, 67, 0
2, 145049, Note_on_c, 0, 79, 0
2, 145050, Note_on_c, 0, 81, 0
2, 145050, Note_on_c, 0, 77, 59
2, 145050, Note_on_c, 0, 65, 62
2, 145064, Note_on_c, 0, 65, 0
2, 145064, Note_on_c, 0, 77, 0
2, 145065, Note_on_c, 0, 79, 76
2, 145065, Note_on_c, 0, 67, 80
2, 145079, Note_on_c, 0, 67, 0
2, 145079, Note_on_c, 0, 79, 0
2, 145080, Note_on_c, 0, 81, 89
2, 145080, Note_on_c, 0, 69, 68
2, 145109, Control_c, 0, 64, 127
2, 145140, Note_on_c, 0, 69, 0
2, 145140, Note_on_c, 0, 81, 0
2, 145140, Note_on_c, 0, 77, 93
2, 145140, Note_on_c, 0, 65, 85
2, 145142, Control_c, 0, 64, 0
2, 145154, Note_on_c, 0, 65, 0
2, 145154, Note_on_c, 0, 77, 0
2, 145200, Note_on_c, 0, 78, 89
2, 145200, Note_on_c, 0, 66, 89
2, 145230, Note_on_c, 0, 66, 0
2, 145230, Note_on_c, 0, 78, 0
2, 145230, Note_on_c, 0, 79, 80
2, 145230, Note_on_c, 0, 67, 85
2, 145333, Control_c, 0, 64, 127
2, 145365, Note_on_c, 0, 67, 0
2, 145365, Note_on_c, 0, 79, 0
2, 145380, Note_on_c, 0, 81, 85
2, 145380, Note_on_c, 0, 69, 89
2, 145385, Control_c, 0, 64, 0
2, 145394, Note_on_c, 0, 81, 0
2, 145395, Note_on_c, 0, 79, 72
2, 145395, Note_on_c, 0, 67, 64
2, 145409, Note_on_c, 0, 79, 0
2, 145410, Note_on_c, 0, 69, 0
2, 145410, Note_on_c, 0, 77, 57
2, 145410, Note_on_c, 0, 65, 57
2, 145424, Note_on_c, 0, 65, 0
2, 145424, Note_on_c, 0, 77, 0
2, 145425, Note_on_c, 0, 67, 0
2, 145425, Note_on_c, 0, 79, 80
2, 145425, Note_on_c, 0, 67, 89
2, 145439, Note_on_c, 0, 67, 0
2, 145439, Note_on_c, 0, 79, 0
2, 145440, Note_on_c, 0, 81, 85
2, 145440, Note_on_c, 0, 69, 80
2, 145500, Note_on_c, 0, 69, 0
2, 145500, Note_on_c, 0, 81, 0
2, 145500, Note_on_c, 0, 77, 85
2, 145500, Note_on_c, 0, 65, 80
2, 145514, Note_on_c, 0, 65, 0
2, 145514, Note_on_c, 0, 77, 0
2, 145560, Note_on_c, 0, 79, 85
2, 145560, Note_on_c, 0, 67, 89
2, 145574, Note_on_c, 0, 67, 0
2, 145574, Note_on_c, 0, 79, 0
2, 145596, Control_c, 0, 64, 127
2, 145629, Control_c, 0, 64, 0
2, 145680, Note_on_c, 0, 81, 98
2, 145680, Note_on_c, 0, 69, 85
2, 145694, Note_on_c, 0, 69, 0
2, 145694, Note_on_c, 0, 81, 0
2, 145694, Control_c, 0, 64, 127
2, 145731, Control_c, 0, 64, 0
2, 145800, Note_on_c, 0, 83, 98
2, 145800, Note_on_c, 0, 71, 89
2, 145813, Control_c, 0, 64, 127
2, 145830, Note_on_c, 0, 71, 0
2, 145830, Note_on_c, 0, 83, 0
2, 145854, Control_c, 0, 64, 0
2, 145920, Note_on_c, 0, 84, 98
2, 145920, Note_on_c, 0, 72, 89
2, 145934, Note_on_c, 0, 72, 0
2, 145935, Control_c, 0, 64, 127
2, 145950, Note_on_c, 0, 84, 0
2, 145975, Control_c, 0, 64, 0
2, 146040, Note_on_c, 0, 86, 102
2, 146040, Note_on_c, 0, 74, 76
2, 146055, Control_c, 0, 64, 127
2, 146070, Note_on_c, 0, 74, 0
2, 146070, Note_on_c, 0, 86, 0
2, 146097, Control_c, 0, 64, 0
2, 146265, Note_on_c, 0, 83, 93
2, 146265, Note_on_c, 0, 71, 98
2, 146279, Note_on_c, 0, 71, 0
2, 146279, Note_on_c, 0, 83, 0
2, 146280, Note_on_c, 0, 84, 98
2, 146280, Note_on_c, 0, 72, 68
2, 146310, Control_c, 0, 64, 127
2, 146325, Note_on_c, 0, 72, 0
2, 146340, Note_on_c, 0, 84, 0
2, 146340, Control_c, 0, 64, 0
2, 146400, Note_on_c, 0, 86, 107
2, 146400, Note_on_c, 0, 74, 89
2, 146414, Control_c, 0, 64, 127
2, 146430, Note_on_c, 0, 74, 0
2, 146445, Note_on_c, 0, 86, 0
2, 146458, Control_c, 0, 64, 0
2, 146625, Note_on_c, 0, 83, 89
2, 146625, Note_on_c, 0, 71, 93
2, 146639, Note_on_c, 0, 71, 0
2, 146639, Note_on_c, 0, 83, 0
2, 146640, Note_on_c, 0, 84, 93
2, 146640, Note_on_c, 0, 72, 80
2, 146714, Control_c, 0, 64, 127
2, 146760, Note_on_c, 0, 72, 0
2, 146802, Control_c, 0, 64, 0
2, 146820, Note_on_c, 0, 84, 0
2, 146820, Note_on_c, 0, 83, 93
2, 146835, Control_c, 0, 64, 127
2, 146867, Control_c, 0, 64, 0
2, 146880, Note_on_c, 0, 83, 0
2, 146880, Note_on_c, 0, 82, 85
2, 146901, Control_c, 0, 64, 127
2, 147030, Note_on_c, 0, 82, 0
2, 147030, Note_on_c, 0, 81, 76
2, 147053, Control_c, 0, 64, 0
2, 147060, Note_on_c, 0, 81, 0
2, 147060, Note_on_c, 0, 84, 89
2, 147087, Control_c, 0, 64, 127
2, 147090, Note_on_c, 0, 84, 0
2, 147090, Note_on_c, 0, 82, 62
2, 147106, Control_c, 0, 64, 0
2, 147120, Note_on_c, 0, 82, 0
2, 147120, Note_on_c, 0, 81, 80
2, 147143, Control_c, 0, 64, 127
2, 147150, Note_on_c, 0, 81, 0
2, 147150, Note_on_c, 0, 79, 76
2, 147176, Control_c, 0, 64, 0
2, 147180, Note_on_c, 0, 79, 0
2, 147180, Note_on_c, 0, 77, 76
2, 147208, Control_c, 0, 64, 127
2, 147210, Note_on_c, 0, 77, 0
2, 147210, Note_on_c, 0, 76, 76
2, 147233, Control_c, 0, 64, 0
2, 147240, Note_on_c, 0, 76, 0
2, 147240, Note_on_c, 0, 79, 89
2, 147270, Note_on_c, 0, 77, 76
2, 147271, Control_c, 0, 64, 127
2, 147282, Control_c, 0, 64, 0
2, 147285, Note_on_c, 0, 79, 0
2, 147300, Note_on_c, 0, 77, 0
2, 147300, Note_on_c, 0, 76, 80
2, 147313, Control_c, 0, 64, 127
2, 147330, Note_on_c, 0, 76, 0
2, 147330, Note_on_c, 0, 74, 76
2, 147351, Control_c, 0, 64, 0
2, 147360, Note_on_c, 0, 74, 0
2, 147360, Note_on_c, 0, 72, 85
2, 147360, Note_on_c, 0, 69, 85
2, 147393, Control_c, 0, 64, 127
2, 147479, Control_c, 0, 64, 0
2, 147480, Note_on_c, 0, 72, 0
2, 147480, Note_on_c, 0, 77, 89
2, 147506, Control_c, 0, 64, 127
2, 147532, Control_c, 0, 64, 0
2, 147540, Note_on_c, 0, 77, 0
2, 147540, Note_on_c, 0, 69, 0
2, 147540, Note_on_c, 0, 81, 85
2, 147540, Note_on_c, 0, 72, 85
2, 147558, Control_c, 0, 64, 127
2, 147585, Control_c, 0, 64, 0
2, 147600, Note_on_c, 0, 72, 0
2, 147600, Note_on_c, 0, 81, 0
2, 147600, Note_on_c, 0, 79, 76
2, 147600, Note_on_c, 0, 70, 68
2, 147617, Control_c, 0, 64, 127
2, 147645, Note_on_c, 0, 79, 0
2, 147645, Note_on_c, 0, 82, 64
2, 147646, Control_c, 0, 64, 0
2, 147660, Note_on_c, 0, 82, 0
2, 147660, Note_on_c, 0, 70, 0
2, 147660, Note_on_c, 0, 76, 76
2, 147660, Note_on_c, 0, 67, 76
2, 147684, Control_c, 0, 64, 127
2, 147701, Control_c, 0, 64, 0
2, 147705, Note_on_c, 0, 76, 0
2, 147705, Note_on_c, 0, 79, 80
2, 147720, Note_on_c, 0, 79, 0
2, 147720, Note_on_c, 0, 67, 0
2, 147720, Note_on_c, 0, 77, 85
2, 147720, Note_on_c, 0, 72, 80
2, 147738, Control_c, 0, 64, 127
2, 147840, Note_on_c, 0, 72, 0
2, 147840, Note_on_c, 0, 69, 76
2, 147870, Note_on_c, 0, 77, 0
2, 147870, Note_on_c, 0, 76, 80
2, 147884, Note_on_c, 0, 76, 0
2, 147885, Note_on_c, 0, 77, 85
2, 147888, Control_c, 0, 64, 0
2, 147899, Note_on_c, 0, 77, 0
2, 147900, Note_on_c, 0, 79, 76
2, 147914, Note_on_c, 0, 79, 0
2, 147915, Note_on_c, 0, 69, 0
2, 147915, Note_on_c, 0, 77, 68
2, 147926, Control_c, 0, 64, 127
2, 147929, Note_on_c, 0, 77, 0
2, 147930, Note_on_c, 0, 76, 76
2, 147944, Note_on_c, 0, 76, 0
2, 147945, Note_on_c, 0, 74, 72
2, 147954, Control_c, 0, 64, 0
2, 147959, Note_on_c, 0, 74, 0
2, 147960, Note_on_c, 0, 72, 89
2, 147988, Control_c, 0, 64, 127
2, 148020, Note_on_c, 0, 72, 0
2, 148053, Control_c, 0, 64, 0
2, 148080, Note_on_c, 0, 66, 76
2, 148080, Note_on_c, 0, 69, 89
2, 148101, Control_c, 0, 64, 127
2, 148155, Note_on_c, 0, 66, 0
2, 148170, Note_on_c, 0, 69, 0
2, 148198, Control_c, 0, 64, 0
2, 148200, Note_on_c, 0, 67, 85
2, 148200, Note_on_c, 0, 70, 72
2, 148222, Control_c, 0, 64, 127
2, 148245, Note_on_c, 0, 70, 0
2, 148245, Note_on_c, 0, 67, 0
2, 148258, Control_c, 0, 64, 0
2, 148260, Note_on_c, 0, 72, 89
2, 148260, Note_on_c, 0, 69, 89
2, 148278, Control_c, 0, 64, 127
2, 148305, Note_on_c, 0, 69, 0
2, 148305, Note_on_c, 0, 72, 0
2, 148317, Control_c, 0, 64, 0
2, 148320, Note_on_c, 0, 70, 76
2, 148320, Note_on_c, 0, 74, 93
2, 148336, Control_c, 0, 64, 127
2, 148365, Note_on_c, 0, 74, 0
2, 148365, Note_on_c, 0, 70, 0
2, 148376, Control_c, 0, 64, 0
2, 148380, Note_on_c, 0, 70, 76
2, 148380, Note_on_c, 0, 67, 64
2, 148393, Control_c, 0, 64, 127
2, 148410, Note_on_c, 0, 67, 0
2, 148425, Note_on_c, 0, 70, 0
2, 148434, Control_c, 0, 64, 0
2, 148440, Note_on_c, 0, 67, 85
2, 148440, Note_on_c, 0, 64, 76
2, 148459, Control_c, 0, 64, 127
2, 148575, Note_on_c, 0, 64, 0
2, 148590, Note_on_c, 0, 67, 0
2, 148605, Note_on_c, 0, 65, 76
2, 148605, Note_on_c, 0, 69, 80
2, 148610, Control_c, 0, 64, 0
2, 148619, Note_on_c, 0, 69, 0
2, 148620, Note_on_c, 0, 65, 76
2, 148620, Note_on_c, 0, 62, 62
2, 148633, Control_c, 0, 64, 127
2, 148650, Note_on_c, 0, 62, 0
2, 148650, Note_on_c, 0, 65, 0
2, 148665, Note_on_c, 0, 65, 0
2, 148665, Note_on_c, 0, 69, 80
2, 148665, Note_on_c, 0, 65, 64
2, 148667, Control_c, 0, 64, 0
2, 148679, Note_on_c, 0, 65, 0
2, 148679, Note_on_c, 0, 69, 0
2, 148680, Note_on_c, 0, 64, 76
2, 148680, Note_on_c, 0, 67, 89
2, 148686, Control_c, 0, 64, 127
2, 148710, Note_on_c, 0, 64, 0
2, 148725, Note_on_c, 0, 67, 0
2, 148788, Control_c, 0, 64, 0
2, 148800, Note_on_c, 0, 69, 107
2, 148819, Control_c, 0, 64, 127
2, 148967, Control_c, 0, 64, 0
2, 148980, Note_on_c, 0, 69, 0
2, 148980, Note_on_c, 0, 70, 89
2, 148988, Control_c, 0, 64, 127
2, 149010, Note_on_c, 0, 70, 0
2, 149010, Note_on_c, 0, 72, 89
2, 149024, Control_c, 0, 64, 0
2, 149040, Note_on_c, 0, 72, 0
2, 149040, Note_on_c, 0, 74, 76
2, 149062, Control_c, 0, 64, 127
2, 149070, Note_on_c, 0, 74, 0
2, 149070, Note_on_c, 0, 76, 89
2, 149080, Control_c, 0, 64, 0
2, 149089, Control_c, 0, 64, 127
2, 149100, Note_on_c, 0, 76, 0
2, 149100, Note_on_c, 0, 77, 93
2, 149104, Control_c, 0, 64, 0
2, 149130, Note_on_c, 0, 77, 0
2, 149130, Note_on_c, 0, 79, 72
2, 149160, Note_on_c, 0, 79, 0
2, 149160, Note_on_c, 0, 81, 93
2, 149178, Control_c, 0, 64, 127
2, 149190, Note_on_c, 0, 81, 0
2, 149190, Note_on_c, 0, 79, 76
2, 149211, Control_c, 0, 64, 0
2, 149220, Note_on_c, 0, 79, 0
2, 149220, Note_on_c, 0, 82, 89
2, 149237, Control_c, 0, 64, 127
2, 149250, Note_on_c, 0, 82, 0
2, 149250, Note_on_c, 0, 81, 85
2, 149280, Note_on_c, 0, 81, 0
2, 149280, Note_on_c, 0, 86, 72
2, 149285, Control_c, 0, 64, 0
2, 149310, Note_on_c, 0, 86, 0
2, 149310, Note_on_c, 0, 84, 89
2, 149314, Control_c, 0, 64, 127
2, 149340, Note_on_c, 0, 84, 0
2, 149340, Note_on_c, 0, 88, 80
2, 149354, Note_on_c, 0, 88, 0
2, 149356, Control_c, 0, 64, 0
2, 149370, Note_on_c, 0, 89, 93
2, 149384, Note_on_c, 0, 89, 0
2, 149400, Note_on_c, 0, 82, 85
2, 149438, Control_c, 0, 64, 127
2, 149505, Note_on_c, 0, 82, 0
2, 149505, Note_on_c, 0, 79, 93
2, 149505, Control_c, 0, 64, 0
2, 149519, Note_on_c, 0, 79, 0
2, 149520, Note_on_c, 0, 81, 98
2, 149539, Control_c, 0, 64, 127
2, 149565, Note_on_c, 0, 81, 0
2, 149565, Control_c, 0, 64, 0
2, 149565, Note_on_c, 0, 84, 76
2, 149579, Note_on_c, 0, 84, 0
2, 149580, Note_on_c, 0, 77, 36
2, 149598, Control_c, 0, 64, 127
2, 149610, Note_on_c, 0, 77, 0
2, 149623, Control_c, 0, 64, 0
2, 149625, Note_on_c, 0, 81, 80
2, 149639, Note_on_c, 0, 81, 0
2, 149640, Note_on_c, 0, 72, 76
2, 149640, Note_on_c, 0, 65, 80
2, 149640, Note_on_c, 0, 69, 80
2, 149662, Control_c, 0, 64, 127
2, 149760, Note_on_c, 0, 69, 0
2, 149760, Note_on_c, 0, 65, 0
2, 149760, Note_on_c, 0, 70, 64
2, 149760, Note_on_c, 0, 67, 80
2, 149811, Control_c, 0, 64, 0
2, 149820, Note_on_c, 0, 72, 0
2, 149820, Note_on_c, 0, 76, 93
2, 149841, Control_c, 0, 64, 127
2, 149879, Control_c, 0, 64, 0
2, 149880, Note_on_c, 0, 76, 0
2, 149880, Note_on_c, 0, 67, 0
2, 149880, Note_on_c, 0, 70, 0
2, 149880, Note_on_c, 0, 77, 85
2, 149880, Note_on_c, 0, 69, 76
2, 149900, Control_c, 0, 64, 127
2, 150000, Note_on_c, 0, 69, 0
2, 150016, Control_c, 0, 64, 0
2, 150030, Note_on_c, 0, 77, 0
2, 150030, Note_on_c, 0, 77, 93
2, 150034, Control_c, 0, 64, 127
2, 150060, Note_on_c, 0, 77, 0
2, 150060, Note_on_c, 0, 81, 93
2, 150062, Control_c, 0, 64, 0
2, 150079, Control_c, 0, 64, 127
2, 150090, Note_on_c, 0, 81, 0
2, 150090, Note_on_c, 0, 79, 85
2, 150120, Note_on_c, 0, 79, 0
2, 150120, Note_on_c, 0, 77, 93
2, 150125, Control_c, 0, 64, 0
2, 150144, Control_c, 0, 64, 127
2, 150150, Note_on_c, 0, 77, 0
2, 150150, Note_on_c, 0, 76, 64
2, 150180, Note_on_c, 0, 76, 0
2, 150180, Note_on_c, 0, 79, 89
2, 150183, Control_c, 0, 64, 0
2, 150201, Control_c, 0, 64, 127
2, 150210, Note_on_c, 0, 79, 0
2, 150210, Note_on_c, 0, 77, 85
2, 150240, Note_on_c, 0, 77, 0
2, 150240, Control_c, 0, 64, 0
2, 150240, Note_on_c, 0, 76, 89
2, 150264, Control_c, 0, 64, 127
2, 150300, Note_on_c, 0, 76, 0
2, 150300, Note_on_c, 0, 74, 76
2, 150305, Control_c, 0, 64, 0
2, 150329, Control_c, 0, 64, 127
2, 150375, Note_on_c, 0, 74, 0
2, 150390, Note_on_c, 0, 74, 93
2, 150420, Note_on_c, 0, 74, 0
2, 150420, Note_on_c, 0, 77, 89
2, 150422, Control_c, 0, 64, 0
2, 150443, Control_c, 0, 64, 127
2, 150450, Note_on_c, 0, 77, 0
2, 150450, Note_on_c, 0, 76, 89
2, 150464, Control_c, 0, 64, 0
2, 150480, Note_on_c, 0, 76, 0
2, 150480, Note_on_c, 0, 74, 93
2, 150492, Control_c, 0, 64, 127
2, 150510, Note_on_c, 0, 74, 0
2, 150510, Note_on_c, 0, 72, 85
2, 150536, Control_c, 0, 64, 0
2, 150540, Note_on_c, 0, 72, 0
2, 150540, Note_on_c, 0, 76, 89
2, 150554, Control_c, 0, 64, 127
2, 150570, Note_on_c, 0, 76, 0
2, 150570, Note_on_c, 0, 74, 89
2, 150595, Control_c, 0, 64, 0
2, 150600, Note_on_c, 0, 74, 0
2, 150600, Note_on_c, 0, 72, 93
2, 150610, Control_c, 0, 64, 127
2, 150645, Note_on_c, 0, 72, 0
2, 150645, Note_on_c, 0, 70, 85
2, 150659, Note_on_c, 0, 70, 0
2, 150660, Note_on_c, 0, 82, 93
2, 150663, Control_c, 0, 64, 0
2, 150693, Control_c, 0, 64, 127
2, 150735, Note_on_c, 0, 82, 0
2, 150735, Note_on_c, 0, 81, 93
2, 150749, Note_on_c, 0, 81, 0
2, 150750, Control_c, 0, 64, 0
2, 150750, Note_on_c, 0, 79, 85
2, 150764, Note_on_c, 0, 79, 0
2, 150765, Note_on_c, 0, 77, 76
2, 150779, Note_on_c, 0, 77, 0
2, 150780, Note_on_c, 0, 76, 85
2, 150794, Note_on_c, 0, 76, 0
2, 150795, Note_on_c, 0, 74, 80
2, 150795, Control_c, 0, 64, 127
2, 150809, Note_on_c, 0, 74, 0
2, 150810, Note_on_c, 0, 72, 76
2, 150824, Note_on_c, 0, 72, 0
2, 150825, Note_on_c, 0, 70, 76
2, 150839, Note_on_c, 0, 70, 0
2, 150839, Control_c, 0, 64, 0
2, 150840, Note_on_c, 0, 69, 80
2, 150854, Note_on_c, 0, 69, 0
2, 150855, Note_on_c, 0, 72, 85
2, 150860, Control_c, 0, 64, 127
2, 150869, Note_on_c, 0, 72, 0
2, 150870, Note_on_c, 0, 70, 72
2, 150884, Note_on_c, 0, 70, 0
2, 150885, Note_on_c, 0, 69, 89
2, 150893, Control_c, 0, 64, 0
2, 150899, Note_on_c, 0, 69, 0
2, 150900, Note_on_c, 0, 70, 80
2, 150909, Control_c, 0, 64, 127
2, 150914, Note_on_c, 0, 70, 0
2, 150915, Note_on_c, 0, 72, 85
2, 150919, Control_c, 0, 64, 0
2, 150929, Note_on_c, 0, 72, 0
2, 150930, Note_on_c, 0, 74, 72
2, 150944, Note_on_c, 0, 74, 0
2, 150945, Note_on_c, 0, 76, 85
2, 150959, Note_on_c, 0, 76, 0
2, 150960, Note_on_c, 0, 77, 89
2, 150963, Control_c, 0, 64, 127
2, 150974, Note_on_c, 0, 77, 0
2, 150975, Note_on_c, 0, 79, 72
2, 150989, Note_on_c, 0, 79, 0
2, 150990, Note_on_c, 0, 81, 76
2, 150991, Control_c, 0, 64, 0
2, 151003, Control_c, 0, 64, 127
2, 151004, Note_on_c, 0, 81, 0
2, 151005, Note_on_c, 0, 82, 76
2, 151019, Note_on_c, 0, 82, 0
2, 151020, Note_on_c, 0, 84, 98
2, 151021, Control_c, 0, 64, 0
2, 151034, Note_on_c, 0, 84, 0
2, 151050, Note_on_c, 0, 86, 102
2, 151064, Note_on_c, 0, 86, 0
2, 151080, Note_on_c, 0, 69, 76
2, 151080, Note_on_c, 0, 72, 76
2, 151080, Note_on_c, 0, 77, 89
2, 151099, Control_c, 0, 64, 127
2, 151185, Note_on_c, 0, 77, 0
2, 151185, Note_on_c, 0, 72, 0
2, 151185, Note_on_c, 0, 69, 0
2, 151198, Control_c, 0, 64, 0
2, 151200, Note_on_c, 0, 70, 59
2, 151200, Note_on_c, 0, 76, 89
2, 151200, Note_on_c, 0, 67, 32
2, 151216, Control_c, 0, 64, 127
2, 151260, Note_on_c, 0, 67, 0
2, 151260, Note_on_c, 0, 76, 0
2, 151260, Note_on_c, 0, 70, 0
2, 151260, Control_c, 0, 64, 0
2, 151320, Note_on_c, 0, 69, 76
2, 151320, Note_on_c, 0, 77, 93
2, 151329, Control_c, 0, 64, 127
2, 151470, Note_on_c, 0, 77, 0
2, 151470, Note_on_c, 0, 69, 0
2, 151470, Note_on_c, 0, 79, 93
2, 151477, Note_on_c, 0, 77, 76
2, 151483, Control_c, 0, 64, 0
2, 151484, Note_on_c, 0, 79, 0
2, 151484, Note_on_c, 0, 76, 80
2, 151491, Note_on_c, 0, 77, 0
2, 151491, Note_on_c, 0, 77, 57
2, 151498, Note_on_c, 0, 76, 0
2, 151500, Note_on_c, 0, 81, 107
2, 151505, Note_on_c, 0, 77, 0
2, 151530, Note_on_c, 0, 81, 0
2, 151530, Note_on_c, 0, 79, 89
2, 151560, Note_on_c, 0, 77, 93
2, 151575, Note_on_c, 0, 79, 0
2, 151590, Note_on_c, 0, 77, 0
2, 151590, Note_on_c, 0, 76, 93
2, 151620, Note_on_c, 0, 76, 0
2, 151620, Note_on_c, 0, 79, 98
2, 151650, Note_on_c, 0, 79, 0
2, 151650, Note_on_c, 0, 77, 89
2, 151680, Note_on_c, 0, 77, 0
2, 151680, Note_on_c, 0, 76, 93
2, 151689, Control_c, 0, 64, 127
2, 151740, Note_on_c, 0, 76, 0
2, 151740, Note_on_c, 0, 74, 89
2, 151744, Control_c, 0, 64, 0
2, 151760, Control_c, 0, 64, 127
2, 151815, Note_on_c, 0, 74, 0
2, 151815, Note_on_c, 0, 76, 93
2, 151821, Control_c, 0, 64, 0
2, 151829, Note_on_c, 0, 76, 0
2, 151830, Note_on_c, 0, 77, 76
2, 151844, Note_on_c, 0, 77, 0
2, 151845, Note_on_c, 0, 76, 76
2, 151859, Note_on_c, 0, 76, 0
2, 151860, Note_on_c, 0, 79, 89
2, 151872, Control_c, 0, 64, 127
2, 151874, Note_on_c, 0, 79, 0
2, 151875, Note_on_c, 0, 77, 76
2, 151889, Note_on_c, 0, 77, 0
2, 151890, Note_on_c, 0, 76, 76
2, 151904, Note_on_c, 0, 76, 0
2, 151905, Note_on_c, 0, 74, 85
2, 151919, Note_on_c, 0, 74, 0
2, 151920, Control_c, 0, 64, 0
2, 151920, Note_on_c, 0, 74, 93
2, 151933, Control_c, 0, 64, 127
2, 151934, Note_on_c, 0, 74, 0
2, 151935, Note_on_c, 0, 72, 76
2, 151947, Control_c, 0, 64, 0
2, 151949, Note_on_c, 0, 72, 0
2, 151950, Note_on_c, 0, 77, 89
2, 151961, Control_c, 0, 64, 127
2, 151964, Note_on_c, 0, 77, 0
2, 151965, Note_on_c, 0, 76, 80
2, 151976, Control_c, 0, 64, 0
2, 151979, Note_on_c, 0, 76, 0
2, 151980, Note_on_c, 0, 79, 93
2, 151992, Control_c, 0, 64, 127
2, 151994, Note_on_c, 0, 79, 0
2, 151995, Note_on_c, 0, 77, 80
2, 152009, Note_on_c, 0, 77, 0
2, 152010, Note_on_c, 0, 76, 80
2, 152024, Note_on_c, 0, 76, 0
2, 152025, Note_on_c, 0, 74, 76
2, 152035, Control_c, 0, 64, 0
2, 152039, Note_on_c, 0, 74, 0
2, 152040, Note_on_c, 0, 72, 76
2, 152054, Note_on_c, 0, 72, 0
2, 152055, Note_on_c, 0, 70, 76
2, 152056, Control_c, 0, 64, 127
2, 152068, Control_c, 0, 64, 0
2, 152069, Note_on_c, 0, 70, 0
2, 152070, Note_on_c, 0, 72, 80
2, 152084, Note_on_c, 0, 72, 0
2, 152085, Note_on_c, 0, 74, 76
2, 152099, Note_on_c, 0, 74, 0
2, 152099, Control_c, 0, 64, 127
2, 152100, Note_on_c, 0, 76, 89
2, 152114, Note_on_c, 0, 76, 0
2, 152115, Note_on_c, 0, 77, 76
2, 152117, Control_c, 0, 64, 0
2, 152129, Note_on_c, 0, 77, 0
2, 152130, Note_on_c, 0, 79, 80
2, 152144, Note_on_c, 0, 79, 0
2, 152145, Note_on_c, 0, 81, 62
2, 152159, Note_on_c, 0, 81, 0
2, 152159, Control_c, 0, 64, 127
2, 152160, Note_on_c, 0, 82, 85
2, 152165, Control_c, 0, 64, 0
2, 152174, Note_on_c, 0, 82, 0
2, 152175, Note_on_c, 0, 84, 85
2, 152189, Note_on_c, 0, 84, 0
2, 152190, Note_on_c, 0, 86, 89
2, 152195, Control_c, 0, 64, 127
2, 152203, Control_c, 0, 64, 0
2, 152204, Note_on_c, 0, 86, 0
2, 152205, Note_on_c, 0, 84, 89
2, 152219, Note_on_c, 0, 84, 0
2, 152220, Note_on_c, 0, 82, 89
2, 152234, Note_on_c, 0, 82, 0
2, 152235, Note_on_c, 0, 81, 85
2, 152249, Note_on_c, 0, 81, 0
2, 152250, Note_on_c, 0, 79, 72
2, 152264, Note_on_c, 0, 79, 0
2, 152265, Note_on_c, 0, 77, 89
2, 152279, Note_on_c, 0, 77, 0
2, 152280, Note_on_c, 0, 76, 85
2, 152294, Note_on_c, 0, 76, 0
2, 152295, Note_on_c, 0, 77, 89
2, 152309, Note_on_c, 0, 77, 0
2, 152310, Note_on_c, 0, 79, 80
2, 152324, Note_on_c, 0, 79, 0
2, 152325, Note_on_c, 0, 77, 68
2, 152339, Note_on_c, 0, 77, 0
2, 152340, Note_on_c, 0, 76, 72
2, 152354, Note_on_c, 0, 76, 0
2, 152355, Note_on_c, 0, 74, 85
2, 152369, Note_on_c, 0, 74, 0
2, 152370, Note_on_c, 0, 72, 76
2, 152384, Note_on_c, 0, 72, 0
2, 152385, Note_on_c, 0, 70, 80
2, 152399, Note_on_c, 0, 70, 0
2, 152400, Note_on_c, 0, 69, 76
2, 152414, Note_on_c, 0, 69, 0
2, 152415, Note_on_c, 0, 72, 76
2, 152429, Note_on_c, 0, 72, 0
2, 152430, Note_on_c, 0, 70, 89
2, 152444, Note_on_c, 0, 70, 0
2, 152445, Note_on_c, 0, 69, 80
2, 152459, Note_on_c, 0, 69, 0
2, 152460, Note_on_c, 0, 70, 80
2, 152463, Control_c, 0, 64, 127
2, 152474, Note_on_c, 0, 70, 0
2, 152475, Note_on_c, 0, 72, 59
2, 152488, Control_c, 0, 64, 0
2, 152489, Note_on_c, 0, 72, 0
2, 152490, Note_on_c, 0, 74, 85
2, 152502, Control_c, 0, 64, 127
2, 152504, Note_on_c, 0, 74, 0
2, 152505, Note_on_c, 0, 76, 85
2, 152516, Control_c, 0, 64, 0
2, 152519, Note_on_c, 0, 76, 0
2, 152520, Note_on_c, 0, 77, 89
2, 152526, Control_c, 0, 64, 127
2, 152534, Note_on_c, 0, 77, 0
2, 152535, Note_on_c, 0, 79, 89
2, 152538, Note_on_c, 0, 79, 0
2, 152539, Note_on_c, 0, 77, 89
2, 152541, Control_c, 0, 64, 0
2, 152542, Note_on_c, 0, 77, 0
2, 152543, Note_on_c, 0, 76, 85
2, 152546, Note_on_c, 0, 76, 0
2, 152547, Note_on_c, 0, 76, 89
2, 152553, Note_on_c, 0, 76, 0
2, 152554, Note_on_c, 0, 77, 89
2, 152568, Note_on_c, 0, 77, 0
2, 152569, Note_on_c, 0, 79, 80
2, 152576, Note_on_c, 0, 79, 0
2, 152584, Note_on_c, 0, 81, 76
2, 152591, Note_on_c, 0, 81, 0
2, 152599, Note_on_c, 0, 82, 80
2, 152602, Note_on_c, 0, 82, 0
2, 152603, Note_on_c, 0, 81, 85
2, 152606, Note_on_c, 0, 81, 0
2, 152607, Note_on_c, 0, 79, 89
2, 152613, Note_on_c, 0, 79, 0
2, 152614, Note_on_c, 0, 81, 85
2, 152628, Note_on_c, 0, 81, 0
2, 152629, Note_on_c, 0, 82, 89
2, 152636, Note_on_c, 0, 82, 0
2, 152644, Note_on_c, 0, 84, 89
2, 152659, Note_on_c, 0, 84, 0
2, 152674, Note_on_c, 0, 86, 93
2, 152689, Note_on_c, 0, 86, 0
2, 152704, Note_on_c, 0, 88, 89
2, 152719, Note_on_c, 0, 88, 0
2, 152734, Note_on_c, 0, 89, 80
2, 152749, Note_on_c, 0, 89, 0
2, 152760, Note_on_c, 0, 83, 93
2, 152767, Control_c, 0, 64, 127
2, 152774, Note_on_c, 0, 83, 0
2, 152775, Note_on_c, 0, 84, 80
2, 152788, Control_c, 0, 64, 0
2, 152789, Note_on_c, 0, 84, 0
2, 152790, Note_on_c, 0, 80, 85
2, 152804, Note_on_c, 0, 80, 0
2, 152805, Note_on_c, 0, 81, 64
2, 152819, Note_on_c, 0, 81, 0
2, 152820, Note_on_c, 0, 76, 76
2, 152834, Note_on_c, 0, 76, 0
2, 152834, Control_c, 0, 64, 127
2, 152834, Control_c, 0, 64, 0
2, 152835, Note_on_c, 0, 77, 80
2, 152839, Control_c, 0, 64, 127
2, 152849, Note_on_c, 0, 77, 0
2, 152850, Note_on_c, 0, 71, 68
2, 152864, Note_on_c, 0, 71, 0
2, 152865, Note_on_c, 0, 72, 76
2, 152874, Control_c, 0, 64, 0
2, 152879, Note_on_c, 0, 72, 0
2, 152880, Note_on_c, 0, 65, 72
2, 152897, Control_c, 0, 64, 127
2, 152947, Control_c, 0, 64, 0
2, 152955, Note_on_c, 0, 65, 0
2, 153000, Note_on_c, 0, 69, 98
2, 153014, Note_on_c, 0, 69, 0
2, 153015, Note_on_c, 0, 67, 93
2, 153090, Note_on_c, 0, 67, 0
2, 153090, Note_on_c, 0, 65, 93
2, 153104, Note_on_c, 0, 65, 0
2, 153120, Note_on_c, 0, 65, 98
2, 153133, Control_c, 0, 64, 127
2, 153240, Note_on_c, 0, 65, 0
2, 153245, Control_c, 0, 64, 0
2, 153375, Note_on_c, 0, 72, 98
2, 153389, Note_on_c, 0, 72, 0
2, 153390, Note_on_c, 0, 74, 80
2, 153404, Note_on_c, 0, 74, 0
2, 153405, Note_on_c, 0, 76, 98
2, 153419, Note_on_c, 0, 76, 0
2, 153420, Note_on_c, 0, 77, 93
2, 153434, Note_on_c, 0, 77, 0
2, 153435, Note_on_c, 0, 79, 80
2, 153449, Note_on_c, 0, 79, 0
2, 153450, Note_on_c, 0, 81, 62
2, 153464, Note_on_c, 0, 81, 0
2, 153465, Note_on_c, 0, 82, 76
2, 153479, Note_on_c, 0, 82, 0
2, 153480, Note_on_c, 0, 86, 98
2, 153510, Note_on_c, 0, 86, 0
2, 153510, Note_on_c, 0, 84, 89
2, 153540, Note_on_c, 0, 84, 0
2, 153540, Note_on_c, 0, 83, 89
2, 153570, Note_on_c, 0, 83, 0
2, 153570, Note_on_c, 0, 86, 89
2, 153600, Note_on_c, 0, 86, 0
2, 153600, Note_on_c, 0, 77, 89
2, 153616, Control_c, 0, 64, 127
2, 153675, Note_on_c, 0, 77, 0
2, 153682, Control_c, 0, 64, 0
2, 153690, Note_on_c, 0, 77, 93
2, 153720, Note_on_c, 0, 77, 0
2, 153720, Note_on_c, 0, 81, 93
2, 153724, Control_c, 0, 64, 127
2, 153750, Note_on_c, 0, 81, 0
2, 153750, Note_on_c, 0, 79, 89
2, 153757, Control_c, 0, 64, 0
2, 153780, Note_on_c, 0, 79, 0
2, 153780, Note_on_c, 0, 77, 80
2, 153793, Control_c, 0, 64, 127
2, 153810, Note_on_c, 0, 77, 0
2, 153810, Note_on_c, 0, 79, 76
2, 153840, Note_on_c, 0, 79, 0
2, 153840, Note_on_c, 0, 77, 89
2, 153840, Control_c, 0, 64, 0
2, 153857, Control_c, 0, 64, 127
2, 153945, Note_on_c, 0, 77, 0
2, 153959, Control_c, 0, 64, 0
2, 154095, Note_on_c, 0, 72, 98
2, 154109, Note_on_c, 0, 72, 0
2, 154110, Note_on_c, 0, 74, 80
2, 154124, Note_on_c, 0, 74, 0
2, 154125, Note_on_c, 0, 76, 93
2, 154139, Note_on_c, 0, 76, 0
2, 154140, Note_on_c, 0, 77, 107
2, 154154, Note_on_c, 0, 77, 0
2, 154155, Note_on_c, 0, 79, 89
2, 154169, Note_on_c, 0, 79, 0
2, 154170, Note_on_c, 0, 81, 80
2, 154184, Note_on_c, 0, 81, 0
2, 154185, Note_on_c, 0, 82, 85
2, 154199, Note_on_c, 0, 82, 0
2, 154200, Note_on_c, 0, 84, 107
2, 154214, Note_on_c, 0, 84, 0
2, 154230, Note_on_c, 0, 86, 102
2, 154244, Note_on_c, 0, 86, 0
2, 154260, Note_on_c, 0, 88, 98
2, 154274, Note_on_c, 0, 88, 0
2, 154290, Note_on_c, 0, 89, 93
2, 154304, Note_on_c, 0, 89, 0
2, 154320, Note_on_c, 0, 77, 102
2, 154331, Control_c, 0, 64, 127
2, 154384, Control_c, 0, 64, 0
2, 154395, Note_on_c, 0, 77, 0
2, 154410, Note_on_c, 0, 77, 102
2, 154440, Note_on_c, 0, 77, 0
2, 154440, Note_on_c, 0, 81, 93
2, 154448, Control_c, 0, 64, 127
2, 154459, Control_c, 0, 64, 0
2, 154470, Note_on_c, 0, 81, 0
2, 154470, Note_on_c, 0, 79, 80
2, 154500, Note_on_c, 0, 79, 0
2, 154500, Note_on_c, 0, 78, 89
2, 154530, Note_on_c, 0, 78, 0
2, 154530, Note_on_c, 0, 79, 89
2, 154533, Control_c, 0, 64, 127
2, 154544, Note_on_c, 0, 79, 0
2, 154560, Note_on_c, 0, 79, 98
2, 154561, Control_c, 0, 64, 0
2, 154585, Control_c, 0, 64, 127
2, 154680, Note_on_c, 0, 79, 0
2, 154680, Note_on_c, 0, 77, 76
2, 154740, Note_on_c, 0, 77, 0
2, 154920, Control_c, 0, 64, 0
2, 155280, Note_on_c, 0, 76, 89
2, 155370, Note_on_c, 0, 76, 0
2, 155370, Note_on_c, 0, 77, 85
2, 155385, Note_on_c, 0, 77, 0
2, 155385, Note_on_c, 0, 79, 80
2, 155400, Note_on_c, 0, 72, 80
2, 155405, Note_on_c, 0, 79, 0
2, 155434, Control_c, 0, 64, 127
2, 155448, Note_on_c, 0, 72, 0
2, 155460, Note_on_c, 0, 72, 93
2, 155503, Note_on_c, 0, 72, 0
2, 155520, Note_on_c, 0, 74, 93
2, 155530, Control_c, 0, 64, 0
2, 155549, Control_c, 0, 64, 127
2, 155571, Note_on_c, 0, 74, 0
2, 155580, Note_on_c, 0, 74, 89
2, 155636, Note_on_c, 0, 74, 0
2, 155640, Note_on_c, 0, 67, 80
2, 155643, Control_c, 0, 64, 0
2, 155667, Control_c, 0, 64, 127
2, 155717, Note_on_c, 0, 67, 0
2, 155760, Control_c, 0, 64, 0
2, 155760, Note_on_c, 0, 76, 89
2, 155760, Note_on_c, 0, 67, 80
2, 155786, Control_c, 0, 64, 127
2, 155847, Note_on_c, 0, 76, 0
2, 155850, Note_on_c, 0, 77, 76
2, 155865, Note_on_c, 0, 77, 0
2, 155865, Note_on_c, 0, 79, 76
2, 155878, Control_c, 0, 64, 0
2, 155880, Note_on_c, 0, 72, 89
2, 155882, Note_on_c, 0, 79, 0
2, 155897, Control_c, 0, 64, 127
2, 155915, Note_on_c, 0, 67, 0
2, 155918, Note_on_c, 0, 72, 0
2, 155940, Note_on_c, 0, 72, 93
2, 155940, Note_on_c, 0, 67, 76
2, 155974, Note_on_c, 0, 67, 0
2, 155977, Note_on_c, 0, 72, 0
2, 156000, Note_on_c, 0, 73, 98
2, 156000, Note_on_c, 0, 67, 64
2, 156012, Control_c, 0, 64, 0
2, 156034, Control_c, 0, 64, 127
2, 156118, Note_on_c, 0, 67, 0
2, 156119, Note_on_c, 0, 73, 0
2, 156120, Note_on_c, 0, 74, 72
2, 156123, Control_c, 0, 64, 0
2, 156147, Control_c, 0, 64, 127
2, 156213, Note_on_c, 0, 74, 0
2, 156238, Control_c, 0, 64, 0
2, 156240, Note_on_c, 0, 76, 98
2, 156270, Control_c, 0, 64, 127
2, 156327, Note_on_c, 0, 76, 0
2, 156330, Note_on_c, 0, 77, 89
2, 156344, Note_on_c, 0, 77, 0
2, 156345, Note_on_c, 0, 79, 76
2, 156352, Control_c, 0, 64, 0
2, 156360, Note_on_c, 0, 72, 85
2, 156363, Note_on_c, 0, 79, 0
2, 156378, Control_c, 0, 64, 127
2, 156406, Note_on_c, 0, 72, 0
2, 156420, Note_on_c, 0, 72, 102
2, 156464, Note_on_c, 0, 72, 0
2, 156480, Note_on_c, 0, 81, 93
2, 156487, Control_c, 0, 64, 0
2, 156502, Control_c, 0, 64, 127
2, 156529, Note_on_c, 0, 81, 0
2, 156540, Note_on_c, 0, 81, 102
2, 156581, Note_on_c, 0, 81, 0
2, 156600, Note_on_c, 0, 84, 89
2, 156603, Control_c, 0, 64, 0
2, 156619, Control_c, 0, 64, 127
2, 156670, Note_on_c, 0, 84, 0
2, 156720, Note_on_c, 0, 67, 76
2, 156720, Note_on_c, 0, 81, 98
2, 156721, Control_c, 0, 64, 0
2, 156745, Control_c, 0, 64, 127
2, 156750, Note_on_c, 0, 79, 89
2, 156751, Note_on_c, 0, 81, 0
2, 156777, Note_on_c, 0, 79, 0
2, 156780, Note_on_c, 0, 77, 80
2, 156785, Control_c, 0, 64, 0
2, 156800, Control_c, 0, 64, 127
2, 156809, Note_on_c, 0, 77, 0
2, 156810, Note_on_c, 0, 76, 80
2, 156827, Note_on_c, 0, 76, 0
2, 156840, Control_c, 0, 64, 0
2, 156840, Note_on_c, 0, 74, 93
2, 156852, Control_c, 0, 64, 127
2, 156864, Note_on_c, 0, 74, 0
2, 156870, Note_on_c, 0, 76, 64
2, 156879, Control_c, 0, 64, 0
2, 156880, Note_on_c, 0, 76, 0
2, 156885, Note_on_c, 0, 74, 72
2, 156885, Note_on_c, 0, 72, 57
2, 156895, Note_on_c, 0, 74, 0
2, 156896, Note_on_c, 0, 72, 0
2, 156900, Note_on_c, 0, 74, 89
2, 156901, Note_on_c, 0, 67, 0
2, 156915, Note_on_c, 0, 67, 68
2, 156919, Note_on_c, 0, 74, 0
2, 156927, Control_c, 0, 64, 127
2, 156930, Note_on_c, 0, 76, 76
2, 156940, Note_on_c, 0, 76, 0
2, 156960, Note_on_c, 0, 67, 0
2, 156960, Note_on_c, 0, 74, 85
2, 156971, Control_c, 0, 64, 0
2, 156975, Note_on_c, 0, 67, 59
2, 156999, Control_c, 0, 64, 127
2, 157076, Note_on_c, 0, 74, 0
2, 157080, Note_on_c, 0, 72, 60
2, 157082, Control_c, 0, 64, 0
2, 157089, Note_on_c, 0, 67, 0
2, 157107, Control_c, 0, 64, 127
2, 157147, Note_on_c, 0, 72, 0
2, 157166, Control_c, 0, 64, 0
2, 157200, Note_on_c, 0, 76, 62
2, 157220, Control_c, 0, 64, 127
2, 157285, Note_on_c, 0, 76, 0
2, 157290, Note_on_c, 0, 77, 57
2, 157294, Control_c, 0, 64, 0
2, 157305, Note_on_c, 0, 79, 53
2, 157306, Note_on_c, 0, 77, 0
2, 157320, Note_on_c, 0, 72, 62
2, 157326, Note_on_c, 0, 79, 0
2, 157338, Control_c, 0, 64, 127
2, 157365, Note_on_c, 0, 72, 0
2, 157380, Note_on_c, 0, 72, 60
2, 157417, Note_on_c, 0, 72, 0
2, 157440, Note_on_c, 0, 74, 68
2, 157449, Control_c, 0, 64, 0
2, 157463, Control_c, 0, 64, 127
2, 157481, Note_on_c, 0, 74, 0
2, 157500, Note_on_c, 0, 74, 62
2, 157544, Note_on_c, 0, 74, 0
2, 157560, Note_on_c, 0, 67, 72
2, 157568, Control_c, 0, 64, 0
2, 157586, Control_c, 0, 64, 127
2, 157629, Note_on_c, 0, 67, 0
2, 157680, Note_on_c, 0, 76, 72
2, 157680, Note_on_c, 0, 67, 60
2, 157684, Control_c, 0, 64, 0
2, 157707, Control_c, 0, 64, 127
2, 157769, Note_on_c, 0, 76, 0
2, 157770, Note_on_c, 0, 77, 68
2, 157784, Note_on_c, 0, 77, 0
2, 157785, Note_on_c, 0, 79, 60
2, 157795, Control_c, 0, 64, 0
2, 157800, Note_on_c, 0, 79, 0
2, 157800, Note_on_c, 0, 72, 52
2, 157815, Control_c, 0, 64, 127
2, 157836, Note_on_c, 0, 67, 0
2, 157837, Note_on_c, 0, 72, 0
2, 157860, Note_on_c, 0, 72, 72
2, 157860, Note_on_c, 0, 67, 60
2, 157899, Note_on_c, 0, 67, 0
2, 157901, Note_on_c, 0, 72, 0
2, 157920, Note_on_c, 0, 73, 76
2, 157920, Note_on_c, 0, 67, 64
2, 157928, Control_c, 0, 64, 0
2, 157950, Control_c, 0, 64, 127
2, 158040, Note_on_c, 0, 74, 68
2, 158041, Note_on_c, 0, 67, 0
2, 158044, Note_on_c, 0, 73, 0
2, 158049, Control_c, 0, 64, 0
2, 158067, Control_c, 0, 64, 127
2, 158126, Note_on_c, 0, 74, 0
2, 158160, Note_on_c, 0, 76, 76
2, 158161, Control_c, 0, 64, 0
2, 158185, Control_c, 0, 64, 127
2, 158247, Note_on_c, 0, 76, 0
2, 158250, Note_on_c, 0, 77, 72
2, 158263, Note_on_c, 0, 77, 0
2, 158265, Note_on_c, 0, 79, 76
2, 158280, Note_on_c, 0, 72, 72
2, 158281, Control_c, 0, 64, 0
2, 158283, Note_on_c, 0, 79, 0
2, 158301, Control_c, 0, 64, 127
2, 158331, Note_on_c, 0, 72, 0
2, 158340, Note_on_c, 0, 72, 93
2, 158396, Note_on_c, 0, 72, 0
2, 158400, Note_on_c, 0, 81, 85
2, 158405, Control_c, 0, 64, 0
2, 158422, Control_c, 0, 64, 127
2, 158448, Note_on_c, 0, 81, 0
2, 158460, Note_on_c, 0, 81, 85
2, 158520, Note_on_c, 0, 84, 80
2, 158521, Note_on_c, 0, 81, 0
2, 158527, Control_c, 0, 64, 0
2, 158543, Control_c, 0, 64, 127
2, 158576, Note_on_c, 0, 84, 0
2, 158640, Note_on_c, 0, 81, 76
2, 158640, Note_on_c, 0, 67, 62
2, 158646, Control_c, 0, 64, 0
2, 158668, Note_on_c, 0, 81, 0
2, 158670, Control_c, 0, 64, 127
2, 158670, Note_on_c, 0, 79, 64
2, 158694, Note_on_c, 0, 79, 0
2, 158700, Note_on_c, 0, 77, 76
2, 158705, Control_c, 0, 64, 0
2, 158718, Control_c, 0, 64, 127
2, 158728, Note_on_c, 0, 77, 0
2, 158730, Note_on_c, 0, 76, 68
2, 158745, Note_on_c, 0, 76, 0
2, 158759, Control_c, 0, 64, 0
2, 158760, Note_on_c, 0, 74, 85
2, 158768, Note_on_c, 0, 74, 0
2, 158797, Note_on_c, 0, 76, 76
2, 158804, Control_c, 0, 64, 127
2, 158805, Note_on_c, 0, 72, 62
2, 158806, Note_on_c, 0, 76, 0
2, 158809, Control_c, 0, 64, 0
2, 158811, Note_on_c, 0, 74, 68
2, 158814, Note_on_c, 0, 72, 0
2, 158820, Note_on_c, 0, 74, 0
2, 158820, Note_on_c, 0, 74, 76
2, 158825, Control_c, 0, 64, 127
2, 158850, Note_on_c, 0, 74, 0
2, 158850, Note_on_c, 0, 76, 76
2, 158855, Note_on_c, 0, 67, 0
2, 158864, Note_on_c, 0, 76, 0
2, 158880, Note_on_c, 0, 74, 76
2, 158880, Note_on_c, 0, 67, 72
2, 158882, Control_c, 0, 64, 0
2, 158906, Control_c, 0, 64, 127
2, 159000, Note_on_c, 0, 72, 64
2, 159002, Note_on_c, 0, 67, 0
2, 159003, Control_c, 0, 64, 0
2, 159006, Note_on_c, 0, 74, 0
2, 159028, Control_c, 0, 64, 127
2, 159081, Note_on_c, 0, 72, 0
2, 159097, Control_c, 0, 64, 0
2, 159120, Note_on_c, 0, 72, 93
2, 159120, Note_on_c, 0, 84, 89
2, 159150, Note_on_c, 0, 71, 76
2, 159150, Note_on_c, 0, 83, 89
2, 159153, Note_on_c, 0, 84, 0
2, 159154, Note_on_c, 0, 72, 0
2, 159178, Note_on_c, 0, 71, 0
2, 159178, Note_on_c, 0, 83, 0
2, 159180, Note_on_c, 0, 69, 76
2, 159180, Note_on_c, 0, 81, 89
2, 159191, Note_on_c, 0, 81, 0
2, 159193, Note_on_c, 0, 69, 0
2, 159210, Note_on_c, 0, 79, 89
2, 159210, Note_on_c, 0, 67, 80
2, 159218, Note_on_c, 0, 67, 0
2, 159218, Note_on_c, 0, 79, 0
2, 159240, Note_on_c, 0, 84, 102
2, 159240, Note_on_c, 0, 72, 93
2, 159305, Note_on_c, 0, 84, 0
2, 159307, Note_on_c, 0, 72, 0
2, 159360, Note_on_c, 0, 72, 93
2, 159360, Note_on_c, 0, 84, 102
2, 159372, Control_c, 0, 64, 127
2, 159388, Note_on_c, 0, 84, 0
2, 159389, Control_c, 0, 64, 0
2, 159390, Note_on_c, 0, 72, 0
2, 159390, Note_on_c, 0, 83, 85
2, 159390, Note_on_c, 0, 71, 89
2, 159417, Note_on_c, 0, 71, 0
2, 159418, Note_on_c, 0, 83, 0
2, 159420, Note_on_c, 0, 69, 93
2, 159420, Note_on_c, 0, 81, 85
2, 159427, Note_on_c, 0, 81, 0
2, 159428, Note_on_c, 0, 69, 0
2, 159450, Note_on_c, 0, 67, 93
2, 159450, Note_on_c, 0, 79, 93
2, 159456, Note_on_c, 0, 79, 0
2, 159458, Note_on_c, 0, 67, 0
2, 159480, Note_on_c, 0, 84, 89
2, 159480, Note_on_c, 0, 72, 89
2, 159548, Control_c, 0, 64, 127
2, 159556, Note_on_c, 0, 72, 0
2, 159558, Note_on_c, 0, 84, 0
2, 159562, Control_c, 0, 64, 0
2, 159600, Note_on_c, 0, 83, 85
2, 159600, Note_on_c, 0, 71, 76
2, 159622, Control_c, 0, 64, 127
2, 159627, Note_on_c, 0, 71, 0
2, 159628, Note_on_c, 0, 83, 0
2, 159630, Note_on_c, 0, 69, 76
2, 159630, Note_on_c, 0, 81, 76
2, 159648, Control_c, 0, 64, 0
2, 159660, Note_on_c, 0, 81, 0
2, 159660, Note_on_c, 0, 69, 0
2, 159660, Note_on_c, 0, 68, 64
2, 159660, Note_on_c, 0, 80, 89
2, 159670, Control_c, 0, 64, 127
2, 159689, Note_on_c, 0, 80, 0
2, 159690, Note_on_c, 0, 83, 93
2, 159690, Note_on_c, 0, 71, 80
2, 159691, Note_on_c, 0, 68, 0
2, 159695, Control_c, 0, 64, 0
2, 159719, Note_on_c, 0, 71, 0
2, 159719, Note_on_c, 0, 83, 0
2, 159720, Note_on_c, 0, 84, 80
2, 159720, Note_on_c, 0, 72, 80
2, 159737, Control_c, 0, 64, 127
2, 159778, Control_c, 0, 64, 0
2, 159780, Note_on_c, 0, 86, 93
2, 159780, Note_on_c, 0, 74, 80
2, 159781, Note_on_c, 0, 84, 0
2, 159782, Note_on_c, 0, 72, 0
2, 159797, Control_c, 0, 64, 127
2, 159836, Note_on_c, 0, 74, 0
2, 159840, Note_on_c, 0, 86, 0
2, 159840, Note_on_c, 0, 71, 80
2, 159840, Note_on_c, 0, 83, 93
2, 159844, Control_c, 0, 64, 0
2, 159872, Control_c, 0, 64, 127
2, 159960, Note_on_c, 0, 79, 93
2, 159960, Note_on_c, 0, 67, 76
2, 159962, Note_on_c, 0, 83, 0
2, 159963, Note_on_c, 0, 71, 0
2, 159967, Control_c, 0, 64, 0
2, 160012, Control_c, 0, 64, 127
2, 160044, Note_on_c, 0, 67, 0
2, 160050, Note_on_c, 0, 79, 0
2, 160059, Control_c, 0, 64, 0
2, 160080, Note_on_c, 0, 72, 62
2, 160080, Note_on_c, 0, 84, 68
2, 160094, Control_c, 0, 64, 127
2, 160109, Note_on_c, 0, 72, 0
2, 160110, Note_on_c, 0, 84, 0
2, 160110, Note_on_c, 0, 83, 72
2, 160110, Note_on_c, 0, 71, 51
2, 160122, Control_c, 0, 64, 0
2, 160139, Note_on_c, 0, 71, 0
2, 160140, Note_on_c, 0, 69, 53
2, 160140, Note_on_c, 0, 81, 72
2, 160141, Note_on_c, 0, 83, 0
2, 160152, Note_on_c, 0, 81, 0
2, 160152, Note_on_c, 0, 69, 0
2, 160170, Note_on_c, 0, 79, 68
2, 160170, Note_on_c, 0, 67, 57
2, 160178, Note_on_c, 0, 67, 0
2, 160178, Note_on_c, 0, 79, 0
2, 160200, Note_on_c, 0, 84, 76
2, 160200, Note_on_c, 0, 72, 60
2, 160218, Control_c, 0, 64, 127
2, 160272, Note_on_c, 0, 72, 0
2, 160275, Note_on_c, 0, 84, 0
2, 160318, Control_c, 0, 64, 0
2, 160320, Note_on_c, 0, 84, 80
2, 160320, Note_on_c, 0, 72, 76
2, 160338, Control_c, 0, 64, 127
2, 160350, Note_on_c, 0, 72, 0
2, 160350, Note_on_c, 0, 71, 72
2, 160350, Note_on_c, 0, 83, 80
2, 160352, Note_on_c, 0, 84, 0
2, 160369, Control_c, 0, 64, 0
2, 160376, Note_on_c, 0, 71, 0
2, 160378, Note_on_c, 0, 83, 0
2, 160380, Note_on_c, 0, 69, 68
2, 160380, Note_on_c, 0, 81, 80
2, 160389, Note_on_c, 0, 81, 0
2, 160390, Note_on_c, 0, 69, 0
2, 160410, Note_on_c, 0, 79, 76
2, 160410, Note_on_c, 0, 67, 62
2, 160419, Note_on_c, 0, 67, 0
2, 160419, Note_on_c, 0, 79, 0
2, 160440, Note_on_c, 0, 72, 68
2, 160440, Note_on_c, 0, 84, 85
2, 160477, Control_c, 0, 64, 127
2, 160520, Note_on_c, 0, 72, 0
2, 160523, Note_on_c, 0, 84, 0
2, 160552, Control_c, 0, 64, 0
2, 160560, Note_on_c, 0, 71, 80
2, 160560, Note_on_c, 0, 83, 76
2, 160590, Note_on_c, 0, 83, 0
2, 160590, Note_on_c, 0, 81, 85
2, 160590, Note_on_c, 0, 69, 76
2, 160592, Note_on_c, 0, 71, 0
2, 160620, Note_on_c, 0, 69, 0
2, 160620, Note_on_c, 0, 68, 72
2, 160620, Note_on_c, 0, 80, 76
2, 160622, Note_on_c, 0, 81, 0
2, 160639, Control_c, 0, 64, 127
2, 160650, Note_on_c, 0, 83, 89
2, 160650, Note_on_c, 0, 71, 68
2, 160651, Note_on_c, 0, 80, 0
2, 160653, Note_on_c, 0, 68, 0
2, 160660, Control_c, 0, 64, 0
2, 160680, Note_on_c, 0, 83, 0
2, 160680, Note_on_c, 0, 84, 89
2, 160680, Note_on_c, 0, 72, 80
2, 160682, Note_on_c, 0, 71, 0
2, 160706, Control_c, 0, 64, 127
2, 160735, Control_c, 0, 64, 0
2, 160740, Note_on_c, 0, 72, 0
2, 160740, Note_on_c, 0, 86, 85
2, 160740, Note_on_c, 0, 74, 76
2, 160742, Note_on_c, 0, 84, 0
2, 160764, Control_c, 0, 64, 127
2, 160799, Note_on_c, 0, 74, 0
2, 160799, Note_on_c, 0, 86, 0
2, 160800, Note_on_c, 0, 67, 60
2, 160800, Note_on_c, 0, 79, 80
2, 160802, Control_c, 0, 64, 0
2, 160820, Control_c, 0, 64, 127
2, 160868, Control_c, 0, 64, 0
2, 160873, Note_on_c, 0, 79, 0
2, 160874, Note_on_c, 0, 67, 0
2, 160920, Note_on_c, 0, 86, 85
2, 160920, Note_on_c, 0, 74, 72
2, 160930, Control_c, 0, 64, 127
2, 160958, Note_on_c, 0, 74, 0
2, 160965, Note_on_c, 0, 86, 0
2, 160980, Note_on_c, 0, 86, 85
2, 160980, Note_on_c, 0, 74, 76
2, 161009, Note_on_c, 0, 74, 0
2, 161010, Note_on_c, 0, 86, 0
2, 161040, Note_on_c, 0, 79, 68
2, 161040, Note_on_c, 0, 67, 62
2, 161043, Control_c, 0, 64, 0
2, 161062, Control_c, 0, 64, 127
2, 161106, Note_on_c, 0, 67, 0
2, 161108, Note_on_c, 0, 79, 0
2, 161157, Control_c, 0, 64, 0
2, 161160, Note_on_c, 0, 86, 93
2, 161160, Note_on_c, 0, 74, 85
2, 161177, Control_c, 0, 64, 127
2, 161196, Note_on_c, 0, 74, 0
2, 161203, Note_on_c, 0, 86, 0
2, 161220, Note_on_c, 0, 74, 80
2, 161220, Note_on_c, 0, 86, 89
2, 161244, Note_on_c, 0, 74, 0
2, 161251, Note_on_c, 0, 86, 0
2, 161280, Note_on_c, 0, 79, 89
2, 161280, Note_on_c, 0, 67, 89
2, 161282, Control_c, 0, 64, 0
2, 161297, Control_c, 0, 64, 127
2, 161378, Note_on_c, 0, 67, 0
2, 161379, Note_on_c, 0, 79, 0
2, 161393, Control_c, 0, 64, 0
2, 161520, Note_on_c, 0, 81, 76
2, 161534, Note_on_c, 0, 81, 0
2, 161535, Note_on_c, 0, 79, 80
2, 161550, Note_on_c, 0, 79, 0
2, 161550, Note_on_c, 0, 78, 50
2, 161565, Note_on_c, 0, 79, 80
2, 161573, Note_on_c, 0, 78, 0
2, 161578, Note_on_c, 0, 79, 0
2, 161760, Note_on_c, 0, 76, 89
2, 161784, Control_c, 0, 64, 127
2, 161850, Note_on_c, 0, 77, 72
2, 161856, Note_on_c, 0, 76, 0
2, 161865, Note_on_c, 0, 77, 0
2, 161865, Note_on_c, 0, 79, 64
2, 161867, Control_c, 0, 64, 0
2, 161880, Note_on_c, 0, 72, 76
2, 161885, Note_on_c, 0, 79, 0
2, 161904, Control_c, 0, 64, 127
2, 161924, Note_on_c, 0, 72, 0
2, 161940, Note_on_c, 0, 72, 72
2, 161995, Note_on_c, 0, 72, 0
2, 162000, Note_on_c, 0, 74, 85
2, 162006, Control_c, 0, 64, 0
2, 162025, Control_c, 0, 64, 127
2, 162046, Note_on_c, 0, 74, 0
2, 162060, Note_on_c, 0, 74, 72
2, 162117, Note_on_c, 0, 74, 0
2, 162120, Note_on_c, 0, 67, 80
2, 162125, Control_c, 0, 64, 0
2, 162141, Control_c, 0, 64, 127
2, 162208, Note_on_c, 0, 67, 0
2, 162240, Note_on_c, 0, 76, 85
2, 162240, Note_on_c, 0, 67, 76
2, 162242, Control_c, 0, 64, 0
2, 162267, Control_c, 0, 64, 127
2, 162328, Note_on_c, 0, 76, 0
2, 162330, Note_on_c, 0, 77, 72
2, 162344, Note_on_c, 0, 77, 0
2, 162345, Note_on_c, 0, 79, 80
2, 162356, Control_c, 0, 64, 0
2, 162360, Note_on_c, 0, 72, 85
2, 162363, Note_on_c, 0, 79, 0
2, 162374, Control_c, 0, 64, 127
2, 162405, Note_on_c, 0, 72, 0
2, 162410, Note_on_c, 0, 67, 0
2, 162420, Control_c, 0, 64, 0
2, 162420, Note_on_c, 0, 72, 93
2, 162420, Note_on_c, 0, 67, 76
2, 162433, Control_c, 0, 64, 127
2, 162461, Note_on_c, 0, 67, 0
2, 162465, Note_on_c, 0, 72, 0
2, 162480, Note_on_c, 0, 73, 85
2, 162480, Note_on_c, 0, 67, 68
2, 162486, Control_c, 0, 64, 0
2, 162509, Control_c, 0, 64, 127
2, 162600, Note_on_c, 0, 74, 80
2, 162602, Note_on_c, 0, 67, 0
2, 162603, Note_on_c, 0, 73, 0
2, 162605, Control_c, 0, 64, 0
2, 162625, Control_c, 0, 64, 127
2, 162716, Note_on_c, 0, 74, 0
2, 162720, Note_on_c, 0, 76, 93
2, 162726, Control_c, 0, 64, 0
2, 162755, Control_c, 0, 64, 127
2, 162810, Note_on_c, 0, 77, 85
2, 162812, Note_on_c, 0, 76, 0
2, 162825, Note_on_c, 0, 77, 0
2, 162825, Note_on_c, 0, 79, 72
2, 162834, Control_c, 0, 64, 0
2, 162840, Note_on_c, 0, 72, 76
2, 162844, Note_on_c, 0, 79, 0
2, 162859, Control_c, 0, 64, 127
2, 162888, Note_on_c, 0, 72, 0
2, 162900, Note_on_c, 0, 72, 93
2, 162952, Note_on_c, 0, 72, 0
2, 162960, Note_on_c, 0, 81, 93
2, 162964, Control_c, 0, 64, 0
2, 162980, Control_c, 0, 64, 127
2, 163008, Note_on_c, 0, 81, 0
2, 163020, Note_on_c, 0, 81, 98
2, 163077, Note_on_c, 0, 81, 0
2, 163080, Note_on_c, 0, 84, 93
2, 163172, Note_on_c, 0, 84, 0
2, 163200, Note_on_c, 0, 67, 64
2, 163200, Note_on_c, 0, 81, 89
2, 163204, Control_c, 0, 64, 0
2, 163224, Control_c, 0, 64, 127
2, 163230, Note_on_c, 0, 79, 85
2, 163231, Note_on_c, 0, 81, 0
2, 163257, Note_on_c, 0, 79, 0
2, 163260, Control_c, 0, 64, 0
2, 163260, Note_on_c, 0, 77, 76
2, 163274, Control_c, 0, 64, 127
2, 163290, Note_on_c, 0, 76, 68
2, 163292, Note_on_c, 0, 77, 0
2, 163305, Note_on_c, 0, 76, 0
2, 163317, Control_c, 0, 64, 0
2, 163320, Note_on_c, 0, 74, 93
2, 163330, Note_on_c, 0, 74, 0
2, 163350, Note_on_c, 0, 76, 80
2, 163350, Note_on_c, 0, 74, 72
2, 163359, Note_on_c, 0, 76, 0
2, 163360, Note_on_c, 0, 74, 0
2, 163365, Note_on_c, 0, 72, 80
2, 163375, Note_on_c, 0, 72, 0
2, 163380, Note_on_c, 0, 74, 89
2, 163385, Control_c, 0, 64, 127
2, 163394, Note_on_c, 0, 67, 0
2, 163399, Note_on_c, 0, 74, 0
2, 163410, Note_on_c, 0, 76, 93
2, 163410, Note_on_c, 0, 67, 76
2, 163417, Note_on_c, 0, 67, 0
2, 163418, Note_on_c, 0, 76, 0
2, 163420, Control_c, 0, 64, 0
2, 163440, Note_on_c, 0, 74, 85
2, 163440, Note_on_c, 0, 67, 72
2, 163462, Control_c, 0, 64, 127
2, 163560, Note_on_c, 0, 72, 80
2, 163566, Note_on_c, 0, 67, 0
2, 163566, Note_on_c, 0, 74, 0
2, 163567, Control_c, 0, 64, 0
2, 163590, Control_c, 0, 64, 127
2, 163632, Note_on_c, 0, 72, 0
2, 163682, Note_on_c, 0, 72, 89
2, 163682, Note_on_c, 0, 84, 93
2, 163686, Control_c, 0, 64, 127
2, 163770, Note_on_c, 0, 72, 0
2, 163771, Note_on_c, 0, 84, 0
2, 163771, Note_on_c, 0, 76, 80
2, 163771, Note_on_c, 0, 88, 89
2, 163787, Note_on_c, 0, 88, 0
2, 163787, Note_on_c, 0, 84, 85
2, 163787, Note_on_c, 0, 72, 98
2, 163789, Note_on_c, 0, 76, 0
2, 163795, Control_c, 0, 64, 0
2, 163802, Note_on_c, 0, 84, 0
2, 163803, Note_on_c, 0, 79, 93
2, 163803, Note_on_c, 0, 67, 98
2, 163804, Note_on_c, 0, 72, 0
2, 163822, Control_c, 0, 64, 127
2, 163856, Note_on_c, 0, 67, 0
2, 163883, Note_on_c, 0, 79, 0
2, 163888, Note_on_c, 0, 72, 89
2, 163889, Note_on_c, 0, 84, 93
2, 163901, Note_on_c, 0, 72, 0
2, 163902, Note_on_c, 0, 67, 80
2, 163903, Note_on_c, 0, 84, 0
2, 163903, Note_on_c, 0, 79, 89
2, 163907, Control_c, 0, 64, 0
2, 163914, Note_on_c, 0, 79, 0
2, 163914, Note_on_c, 0, 67, 0
2, 163916, Note_on_c, 0, 64, 85
2, 163917, Note_on_c, 0, 76, 107
2, 163930, Control_c, 0, 64, 127
2, 163950, Note_on_c, 0, 76, 0
2, 163950, Note_on_c, 0, 64, 0
2, 163952, Note_on_c, 0, 79, 93
2, 163952, Note_on_c, 0, 67, 85
2, 163966, Note_on_c, 0, 76, 89
2, 163966, Note_on_c, 0, 64, 89
2, 163967, Note_on_c, 0, 67, 0
2, 163968, Note_on_c, 0, 79, 0
2, 163977, Note_on_c, 0, 76, 0
2, 163978, Control_c, 0, 64, 0
2, 163979, Note_on_c, 0, 64, 0
2, 163981, Note_on_c, 0, 72, 98
2, 163982, Note_on_c, 0, 60, 76
2, 163996, Control_c, 0, 64, 127
2, 164009, Note_on_c, 0, 60, 0
2, 164010, Note_on_c, 0, 72, 0
2, 164012, Note_on_c, 0, 64, 89
2, 164012, Note_on_c, 0, 76, 89
2, 164027, Note_on_c, 0, 64, 0
2, 164027, Note_on_c, 0, 72, 80
2, 164028, Note_on_c, 0, 76, 0
2, 164028, Note_on_c, 0, 60, 80
2, 164034, Control_c, 0, 64, 0
2, 164038, Note_on_c, 0, 72, 0
2, 164039, Note_on_c, 0, 60, 0
2, 164042, Note_on_c, 0, 67, 102
2, 164043, Note_on_c, 0, 55, 93
2, 164051, Control_c, 0, 64, 127
2, 164065, Note_on_c, 0, 67, 0
2, 164073, Note_on_c, 0, 55, 0
2, 164118, Control_c, 0, 64, 0
2, 164278, Note_on_c, 0, 84, 74
2, 164292, Control_c, 0, 64, 127
2, 164400, Note_on_c, 0, 67, 97
2, 164421, Note_on_c, 0, 83, 93
2, 164423, Note_on_c, 0, 84, 0
2, 164443, Note_on_c, 0, 88, 79
2, 164444, Note_on_c, 0, 83, 0
2, 164454, Control_c, 0, 64, 0
2, 164461, Note_on_c, 0, 86, 88
2, 164463, Note_on_c, 0, 88, 0
2, 164481, Note_on_c, 0, 84, 83
2, 164486, Note_on_c, 0, 86, 0
2, 164491, Control_c, 0, 64, 127
2, 164500, Note_on_c, 0, 83, 74
2, 164504, Note_on_c, 0, 84, 0
2, 164519, Note_on_c, 0, 83, 0
2, 164520, Note_on_c, 0, 81, 79
2, 164527, Control_c, 0, 64, 0
2, 164539, Note_on_c, 0, 81, 0
2, 164540, Note_on_c, 0, 79, 74
2, 164540, Control_c, 0, 64, 127
2, 164560, Note_on_c, 0, 78, 68
2, 164562, Note_on_c, 0, 79, 0
2, 164580, Note_on_c, 0, 78, 0
2, 164581, Note_on_c, 0, 79, 88
2, 164591, Control_c, 0, 64, 0
2, 164599, Note_on_c, 0, 81, 79
2, 164600, Note_on_c, 0, 79, 0
2, 164606, Control_c, 0, 64, 127
2, 164607, Note_on_c, 0, 67, 0
2, 164610, Note_on_c, 0, 69, 93
2, 164619, Note_on_c, 0, 77, 68
2, 164620, Note_on_c, 0, 81, 0
2, 164625, Note_on_c, 0, 71, 70
2, 164630, Note_on_c, 0, 69, 0
2, 164636, Note_on_c, 0, 77, 0
2, 164636, Control_c, 0, 64, 0
2, 164640, Note_on_c, 0, 76, 83
2, 164640, Note_on_c, 0, 72, 88
2, 164641, Note_on_c, 0, 71, 0
2, 164648, Control_c, 0, 64, 127
2, 164660, Note_on_c, 0, 76, 0
2, 164677, Control_c, 0, 64, 0
2, 164678, Note_on_c, 0, 79, 97
2, 164687, Note_on_c, 0, 79, 0
2, 164699, Note_on_c, 0, 81, 83
2, 164704, Control_c, 0, 64, 127
2, 164708, Note_on_c, 0, 81, 0
2, 164708, Note_on_c, 0, 79, 88
2, 164718, Note_on_c, 0, 79, 0
2, 164719, Note_on_c, 0, 81, 70
2, 164732, Note_on_c, 0, 79, 79
2, 164733, Note_on_c, 0, 81, 0
2, 164739, Note_on_c, 0, 72, 0
2, 164742, Note_on_c, 0, 79, 0
2, 164742, Note_on_c, 0, 78, 60
2, 164752, Note_on_c, 0, 78, 0
2, 164752, Note_on_c, 0, 79, 88
2, 164760, Control_c, 0, 64, 0
2, 164761, Note_on_c, 0, 79, 0
2, 164763, Note_on_c, 0, 84, 97
2, 164776, Control_c, 0, 64, 127
2, 164880, Note_on_c, 0, 67, 102
2, 164884, Control_c, 0, 64, 0
2, 164900, Control_c, 0, 64, 127
2, 164902, Note_on_c, 0, 83, 97
2, 164903, Note_on_c, 0, 84, 0
2, 164922, Note_on_c, 0, 88, 88
2, 164923, Note_on_c, 0, 83, 0
2, 164942, Control_c, 0, 64, 0
2, 164943, Note_on_c, 0, 86, 97
2, 164944, Note_on_c, 0, 88, 0
2, 164962, Control_c, 0, 64, 127
2, 164963, Note_on_c, 0, 84, 74
2, 164967, Note_on_c, 0, 86, 0
2, 164982, Note_on_c, 0, 83, 88
2, 164987, Note_on_c, 0, 84, 0
2, 164998, Control_c, 0, 64, 0
2, 165003, Note_on_c, 0, 83, 0
2, 165003, Note_on_c, 0, 81, 83
2, 165014, Control_c, 0, 64, 127
2, 165021, Note_on_c, 0, 81, 0
2, 165021, Note_on_c, 0, 79, 93
2, 165041, Note_on_c, 0, 78, 74
2, 165042, Note_on_c, 0, 79, 0
2, 165058, Note_on_c, 0, 78, 0
2, 165061, Note_on_c, 0, 79, 83
2, 165063, Control_c, 0, 64, 0
2, 165078, Control_c, 0, 64, 127
2, 165081, Note_on_c, 0, 81, 88
2, 165082, Note_on_c, 0, 79, 0
2, 165082, Note_on_c, 0, 67, 0
2, 165090, Note_on_c, 0, 69, 83
2, 165100, Note_on_c, 0, 77, 61
2, 165101, Note_on_c, 0, 81, 0
2, 165105, Note_on_c, 0, 71, 74
2, 165112, Note_on_c, 0, 69, 0
2, 165117, Note_on_c, 0, 77, 0
2, 165120, Note_on_c, 0, 72, 83
2, 165122, Note_on_c, 0, 76, 83
2, 165122, Control_c, 0, 64, 0
2, 165123, Note_on_c, 0, 71, 0
2, 165136, Control_c, 0, 64, 127
2, 165160, Note_on_c, 0, 76, 0
2, 165184, Control_c, 0, 64, 0
2, 165192, Note_on_c, 0, 72, 0
2, 165216, Note_on_c, 0, 79, 83
2, 165236, Note_on_c, 0, 79, 0
2, 165244, Note_on_c, 0, 77, 83
2, 165265, Note_on_c, 0, 77, 0
2, 165273, Note_on_c, 0, 74, 93
2, 165286, Note_on_c, 0, 74, 0
2, 165300, Note_on_c, 0, 67, 107
2, 165304, Note_on_c, 0, 71, 97
2, 165325, Note_on_c, 0, 71, 0
2, 165331, Note_on_c, 0, 83, 97
2, 165339, Note_on_c, 0, 67, 0
2, 165345, Note_on_c, 0, 83, 0
2, 165349, Control_c, 0, 64, 127
2, 165354, Control_c, 0, 64, 0
2, 165360, Note_on_c, 0, 67, 97
2, 165362, Note_on_c, 0, 86, 83
2, 165387, Note_on_c, 0, 86, 0
2, 165391, Note_on_c, 0, 84, 88
2, 165421, Note_on_c, 0, 84, 0
2, 165449, Note_on_c, 0, 79, 88
2, 165456, Note_on_c, 0, 67, 0
2, 165460, Note_on_c, 0, 79, 0
2, 165480, Note_on_c, 0, 77, 93
2, 165487, Control_c, 0, 64, 127
2, 165495, Note_on_c, 0, 77, 0
2, 165495, Control_c, 0, 64, 0
2, 165510, Note_on_c, 0, 74, 88
2, 165521, Note_on_c, 0, 74, 0
2, 165539, Note_on_c, 0, 71, 88
2, 165540, Note_on_c, 0, 67, 107
2, 165545, Control_c, 0, 64, 127
2, 165550, Note_on_c, 0, 71, 0
2, 165568, Note_on_c, 0, 83, 97
2, 165570, Note_on_c, 0, 67, 0
2, 165570, Control_c, 0, 64, 0
2, 165577, Note_on_c, 0, 83, 0
2, 165601, Note_on_c, 0, 86, 112
2, 165607, Control_c, 0, 64, 127
2, 165626, Note_on_c, 0, 86, 0
2, 165630, Note_on_c, 0, 67, 117
2, 165631, Note_on_c, 0, 84, 97
2, 165656, Note_on_c, 0, 67, 0
2, 165660, Note_on_c, 0, 79, 102
2, 165661, Note_on_c, 0, 84, 0
2, 165664, Control_c, 0, 64, 0
2, 165686, Note_on_c, 0, 83, 107
2, 165688, Note_on_c, 0, 79, 0
2, 165690, Note_on_c, 0, 67, 117
2, 165697, Note_on_c, 0, 83, 0
2, 165713, Note_on_c, 0, 67, 0
2, 165718, Note_on_c, 0, 86, 112
2, 165724, Control_c, 0, 64, 127
2, 165747, Note_on_c, 0, 86, 0
2, 165750, Note_on_c, 0, 84, 107
2, 165750, Note_on_c, 0, 67, 124
2, 165772, Note_on_c, 0, 67, 0
2, 165775, Note_on_c, 0, 84, 0
2, 165778, Control_c, 0, 64, 0
2, 165780, Note_on_c, 0, 79, 83
2, 165808, Note_on_c, 0, 79, 0
2, 165809, Note_on_c, 0, 83, 117
2, 165810, Note_on_c, 0, 67, 117
2, 165816, Note_on_c, 0, 83, 0
2, 165831, Note_on_c, 0, 67, 0
2, 165840, Note_on_c, 0, 86, 124
2, 165847, Control_c, 0, 64, 127
2, 165870, Note_on_c, 0, 84, 89
2, 165870, Note_on_c, 0, 76, 89
2, 165873, Note_on_c, 0, 86, 0
2, 165896, Note_on_c, 0, 84, 0
2, 165896, Control_c, 0, 64, 0
2, 165900, Note_on_c, 0, 83, 76
2, 165900, Note_on_c, 0, 74, 76
2, 165902, Note_on_c, 0, 76, 0
2, 165907, Note_on_c, 0, 83, 0
2, 165922, Note_on_c, 0, 74, 0
2, 165930, Note_on_c, 0, 81, 60
2, 165930, Note_on_c, 0, 72, 89
2, 165937, Note_on_c, 0, 81, 0
2, 165945, Note_on_c, 0, 72, 0
2, 165960, Note_on_c, 0, 81, 59
2, 165960, Note_on_c, 0, 72, 102
2, 165965, Control_c, 0, 64, 127
2, 165988, Note_on_c, 0, 81, 0
2, 165990, Note_on_c, 0, 79, 64
2, 165990, Note_on_c, 0, 71, 89
2, 165991, Note_on_c, 0, 72, 0
2, 166004, Note_on_c, 0, 79, 0
2, 166007, Note_on_c, 0, 71, 0
2, 166020, Note_on_c, 0, 79, 62
2, 166020, Note_on_c, 0, 71, 76
2, 166024, Control_c, 0, 64, 0
2, 166039, Note_on_c, 0, 71, 0
2, 166040, Control_c, 0, 64, 127
2, 166049, Note_on_c, 0, 79, 0
2, 166050, Note_on_c, 0, 78, 60
2, 166050, Note_on_c, 0, 69, 76
2, 166064, Note_on_c, 0, 69, 0
2, 166064, Note_on_c, 0, 78, 0
2, 166080, Note_on_c, 0, 78, 89
2, 166080, Note_on_c, 0, 69, 76
2, 166099, Control_c, 0, 64, 127
2, 166163, Note_on_c, 0, 78, 0
2, 166195, Control_c, 0, 64, 0
2, 166200, Note_on_c, 0, 69, 0
2, 166200, Note_on_c, 0, 81, 80
2, 166200, Note_on_c, 0, 67, 68
2, 166210, Control_c, 0, 64, 127
2, 166215, Note_on_c, 0, 79, 76
2, 166219, Note_on_c, 0, 81, 0
2, 166230, Note_on_c, 0, 78, 59
2, 166233, Note_on_c, 0, 79, 0
2, 166243, Note_on_c, 0, 78, 0
2, 166245, Note_on_c, 0, 81, 72
2, 166250, Note_on_c, 0, 81, 0
2, 166251, Control_c, 0, 64, 0
2, 166260, Note_on_c, 0, 84, 72
2, 166274, Note_on_c, 0, 84, 0
2, 166275, Note_on_c, 0, 83, 60
2, 166279, Note_on_c, 0, 67, 0
2, 166280, Control_c, 0, 64, 127
2, 166289, Note_on_c, 0, 83, 0
2, 166290, Note_on_c, 0, 81, 62
2, 166302, Note_on_c, 0, 81, 0
2, 166305, Note_on_c, 0, 84, 76
2, 166314, Note_on_c, 0, 84, 0
2, 166314, Control_c, 0, 64, 0
2, 166320, Note_on_c, 0, 86, 93
2, 166320, Note_on_c, 0, 67, 93
2, 166332, Control_c, 0, 64, 127
2, 166347, Note_on_c, 0, 67, 0
2, 166350, Note_on_c, 0, 74, 72
2, 166356, Note_on_c, 0, 86, 0
2, 166365, Note_on_c, 0, 83, 80
2, 166371, Control_c, 0, 64, 0
2, 166372, Note_on_c, 0, 83, 0
2, 166376, Note_on_c, 0, 74, 0
2, 166380, Note_on_c, 0, 79, 76
2, 166380, Note_on_c, 0, 71, 80
2, 166390, Note_on_c, 0, 79, 0
2, 166408, Note_on_c, 0, 71, 0
2, 166410, Note_on_c, 0, 79, 72
2, 166410, Note_on_c, 0, 74, 62
2, 166418, Note_on_c, 0, 79, 0
2, 166437, Note_on_c, 0, 74, 0
2, 166440, Note_on_c, 0, 86, 93
2, 166440, Note_on_c, 0, 67, 64
2, 166444, Control_c, 0, 64, 127
2, 166470, Note_on_c, 0, 67, 0
2, 166470, Note_on_c, 0, 74, 62
2, 166485, Note_on_c, 0, 86, 0
2, 166485, Note_on_c, 0, 83, 76
2, 166487, Control_c, 0, 64, 0
2, 166492, Note_on_c, 0, 83, 0
2, 166497, Note_on_c, 0, 74, 0
2, 166500, Note_on_c, 0, 79, 80
2, 166500, Note_on_c, 0, 71, 64
2, 166510, Note_on_c, 0, 79, 0
2, 166529, Note_on_c, 0, 71, 0
2, 166530, Note_on_c, 0, 79, 76
2, 166530, Note_on_c, 0, 74, 76
2, 166538, Note_on_c, 0, 79, 0
2, 166549, Note_on_c, 0, 74, 0
2, 166560, Note_on_c, 0, 84, 85
2, 166560, Note_on_c, 0, 74, 72
2, 166560, Note_on_c, 0, 69, 68
2, 166560, Note_on_c, 0, 72, 72
2, 166568, Control_c, 0, 64, 127
2, 166605, Note_on_c, 0, 81, 72
2, 166607, Note_on_c, 0, 84, 0
2, 166615, Note_on_c, 0, 81, 0
2, 166615, Control_c, 0, 64, 0
2, 166620, Note_on_c, 0, 78, 85
2, 166651, Note_on_c, 0, 78, 0
2, 166687, Note_on_c, 0, 69, 0
2, 166690, Note_on_c, 0, 72, 0
2, 166694, Note_on_c, 0, 74, 0
2, 167160, Note_on_c, 0, 81, 80
2, 167174, Control_c, 0, 64, 127
2, 167175, Note_on_c, 0, 79, 64
2, 167178, Note_on_c, 0, 81, 0
2, 167190, Note_on_c, 0, 79, 0
2, 167190, Note_on_c, 0, 78, 59
2, 167201, Note_on_c, 0, 78, 0
2, 167205, Note_on_c, 0, 81, 89
2, 167209, Control_c, 0, 64, 0
2, 167211, Note_on_c, 0, 81, 0
2, 167220, Note_on_c, 0, 84, 76
2, 167235, Note_on_c, 0, 83, 76
2, 167236, Note_on_c, 0, 84, 0
2, 167247, Note_on_c, 0, 83, 0
2, 167250, Note_on_c, 0, 81, 62
2, 167261, Note_on_c, 0, 81, 0
2, 167265, Note_on_c, 0, 84, 76
2, 167272, Note_on_c, 0, 84, 0
2, 167280, Note_on_c, 0, 86, 93
2, 167280, Note_on_c, 0, 77, 102
2, 167301, Control_c, 0, 64, 127
2, 167317, Control_c, 0, 64, 127
2, 167369, Note_on_c, 0, 86, 0
2, 167370, Note_on_c, 0, 88, 76
2, 167370, Note_on_c, 0, 79, 93
2, 167380, Note_on_c, 0, 77, 0
2, 167384, Control_c, 0, 64, 0
2, 167385, Note_on_c, 0, 86, 80
2, 167385, Note_on_c, 0, 77, 80
2, 167388, Note_on_c, 0, 88, 0
2, 167394, Note_on_c, 0, 79, 0
2, 167396, Control_c, 0, 64, 0
2, 167398, Note_on_c, 0, 77, 0
2, 167400, Note_on_c, 0, 84, 76
2, 167400, Note_on_c, 0, 76, 93
2, 167405, Note_on_c, 0, 86, 0
2, 167411, Note_on_c, 0, 84, 0
2, 167413, Note_on_c, 0, 76, 0
2, 167460, Note_on_c, 0, 83, 80
2, 167460, Note_on_c, 0, 74, 72
2, 167468, Note_on_c, 0, 83, 0
2, 167475, Note_on_c, 0, 74, 0
2, 167520, Note_on_c, 0, 81, 80
2, 167520, Note_on_c, 0, 72, 80
2, 167532, Note_on_c, 0, 81, 0
2, 167536, Note_on_c, 0, 72, 0
2, 167580, Note_on_c, 0, 80, 80
2, 167580, Note_on_c, 0, 71, 85
2, 167588, Note_on_c, 0, 80, 0
2, 167596, Note_on_c, 0, 71, 0
2, 167640, Note_on_c, 0, 83, 72
2, 167640, Note_on_c, 0, 72, 76
2, 167649, Control_c, 0, 64, 127
2, 167653, Note_on_c, 0, 83, 0
2, 167655, Note_on_c, 0, 81, 64
2, 167670, Note_on_c, 0, 80, 68
2, 167670, Control_c, 0, 64, 0
2, 167673, Note_on_c, 0, 81, 0
2, 167682, Note_on_c, 0, 80, 0
2, 167685, Note_on_c, 0, 83, 76
2, 167691, Note_on_c, 0, 83, 0
2, 167700, Note_on_c, 0, 86, 93
2, 167712, Note_on_c, 0, 72, 0
2, 167715, Note_on_c, 0, 84, 76
2, 167716, Note_on_c, 0, 86, 0
2, 167729, Note_on_c, 0, 84, 0
2, 167730, Note_on_c, 0, 83, 76
2, 167741, Note_on_c, 0, 83, 0
2, 167745, Note_on_c, 0, 86, 76
2, 167751, Note_on_c, 0, 86, 0
2, 167760, Note_on_c, 0, 87, 89
2, 167772, Control_c, 0, 64, 127
2, 167790, Note_on_c, 0, 88, 80
2, 167791, Note_on_c, 0, 87, 0
2, 167800, Control_c, 0, 64, 0
2, 167820, Note_on_c, 0, 88, 0
2, 167820, Note_on_c, 0, 86, 85
2, 167840, Control_c, 0, 64, 127
2, 167850, Note_on_c, 0, 84, 72
2, 167851, Note_on_c, 0, 86, 0
2, 167861, Control_c, 0, 64, 0
2, 167880, Note_on_c, 0, 83, 76
2, 167881, Note_on_c, 0, 84, 0
2, 167910, Note_on_c, 0, 81, 76
2, 167912, Note_on_c, 0, 83, 0
2, 167917, Control_c, 0, 64, 127
2, 167939, Control_c, 0, 64, 0
2, 167940, Note_on_c, 0, 81, 0
2, 167940, Note_on_c, 0, 84, 76
2, 167940, Note_on_c, 0, 69, 107
2, 167968, Note_on_c, 0, 69, 0
2, 167970, Note_on_c, 0, 76, 68
2, 167970, Note_on_c, 0, 72, 76
2, 167972, Control_c, 0, 64, 127
2, 167973, Note_on_c, 0, 84, 0
2, 167996, Control_c, 0, 64, 0
2, 167998, Note_on_c, 0, 72, 0
2, 167999, Note_on_c, 0, 76, 0
2, 168000, Note_on_c, 0, 79, 80
2, 168000, Note_on_c, 0, 71, 89
2, 168035, Control_c, 0, 64, 127
2, 168084, Control_c, 0, 64, 127
2, 168090, Note_on_c, 0, 79, 0
2, 168090, Note_on_c, 0, 81, 72
2, 168090, Note_on_c, 0, 72, 68
2, 168096, Note_on_c, 0, 71, 0
2, 168101, Control_c, 0, 64, 0
2, 168105, Note_on_c, 0, 79, 64
2, 168105, Control_c, 0, 64, 0
2, 168105, Note_on_c, 0, 71, 76
2, 168107, Note_on_c, 0, 81, 0
2, 168109, Note_on_c, 0, 72, 0
2, 168117, Note_on_c, 0, 71, 0
2, 168120, Note_on_c, 0, 79, 0
2, 168120, Note_on_c, 0, 78, 62
2, 168120, Note_on_c, 0, 69, 98
2, 168140, Control_c, 0, 64, 127
2, 168179, Note_on_c, 0, 78, 0
2, 168181, Note_on_c, 0, 69, 0
2, 168185, Control_c, 0, 64, 0
2, 168480, Note_on_c, 0, 79, 98
2, 168495, Note_on_c, 0, 81, 80
2, 168496, Note_on_c, 0, 79, 0
2, 168510, Note_on_c, 0, 81, 0
2, 168510, Note_on_c, 0, 79, 72
2, 168516, Control_c, 0, 64, 127
2, 168525, Note_on_c, 0, 78, 76
2, 168526, Note_on_c, 0, 79, 0
2, 168535, Note_on_c, 0, 78, 0
2, 168540, Note_on_c, 0, 79, 93
2, 168540, Control_c, 0, 64, 0
2, 168555, Note_on_c, 0, 81, 76
2, 168558, Note_on_c, 0, 79, 0
2, 168570, Note_on_c, 0, 83, 89
2, 168573, Note_on_c, 0, 81, 0
2, 168583, Note_on_c, 0, 83, 0
2, 168583, Control_c, 0, 64, 127
2, 168585, Note_on_c, 0, 84, 80
2, 168593, Note_on_c, 0, 84, 0
2, 168600, Note_on_c, 0, 88, 89
2, 168606, Control_c, 0, 64, 0
2, 168614, Note_on_c, 0, 88, 0
2, 168615, Note_on_c, 0, 86, 72
2, 168629, Note_on_c, 0, 86, 0
2, 168630, Note_on_c, 0, 85, 85
2, 168635, Control_c, 0, 64, 127
2, 168643, Note_on_c, 0, 85, 0
2, 168645, Note_on_c, 0, 86, 60
2, 168660, Note_on_c, 0, 84, 80
2, 168661, Note_on_c, 0, 86, 0
2, 168668, Control_c, 0, 64, 0
2, 168675, Note_on_c, 0, 83, 68
2, 168679, Note_on_c, 0, 84, 0
2, 168690, Note_on_c, 0, 83, 0
2, 168690, Note_on_c, 0, 81, 80
2, 168695, Control_c, 0, 64, 127
2, 168705, Note_on_c, 0, 81, 0
2, 168705, Note_on_c, 0, 79, 80
2, 168714, Note_on_c, 0, 79, 0
2, 168720, Note_on_c, 0, 84, 89
2, 168724, Control_c, 0, 64, 0
2, 168742, Control_c, 0, 64, 127
2, 168805, Note_on_c, 0, 84, 0
2, 168810, Note_on_c, 0, 81, 76
2, 168835, Control_c, 0, 64, 0
2, 168840, Note_on_c, 0, 81, 0
2, 168840, Note_on_c, 0, 78, 80
2, 168853, Control_c, 0, 64, 127
2, 168902, Note_on_c, 0, 78, 0
2, 168912, Control_c, 0, 64, 0
2, 168960, Note_on_c, 0, 79, 93
2, 168969, Control_c, 0, 64, 127
2, 168975, Note_on_c, 0, 79, 0
2, 168975, Note_on_c, 0, 81, 68
2, 168987, Note_on_c, 0, 81, 0
2, 168990, Note_on_c, 0, 79, 89
2, 168992, Control_c, 0, 64, 0
2, 169005, Note_on_c, 0, 78, 80
2, 169006, Note_on_c, 0, 79, 0
2, 169007, Control_c, 0, 64, 127
2, 169015, Note_on_c, 0, 78, 0
2, 169020, Note_on_c, 0, 79, 93
2, 169024, Control_c, 0, 64, 0
2, 169035, Note_on_c, 0, 81, 85
2, 169037, Note_on_c, 0, 79, 0
2, 169050, Note_on_c, 0, 83, 72
2, 169054, Note_on_c, 0, 81, 0
2, 169060, Control_c, 0, 64, 127
2, 169062, Note_on_c, 0, 83, 0
2, 169065, Note_on_c, 0, 84, 72
2, 169074, Note_on_c, 0, 84, 0
2, 169080, Note_on_c, 0, 88, 89
2, 169085, Control_c, 0, 64, 0
2, 169095, Note_on_c, 0, 88, 0
2, 169095, Note_on_c, 0, 86, 80
2, 169107, Control_c, 0, 64, 127
2, 169110, Note_on_c, 0, 86, 0
2, 169110, Note_on_c, 0, 85, 64
2, 169122, Note_on_c, 0, 85, 0
2, 169125, Note_on_c, 0, 86, 76
2, 169140, Note_on_c, 0, 84, 89
2, 169141, Note_on_c, 0, 86, 0
2, 169146, Control_c, 0, 64, 0
2, 169155, Note_on_c, 0, 83, 85
2, 169157, Note_on_c, 0, 84, 0
2, 169170, Note_on_c, 0, 83, 0
2, 169170, Note_on_c, 0, 81, 76
2, 169171, Control_c, 0, 64, 127
2, 169181, Note_on_c, 0, 81, 0
2, 169185, Note_on_c, 0, 79, 93
2, 169192, Note_on_c, 0, 79, 0
2, 169200, Note_on_c, 0, 76, 80
2, 169206, Control_c, 0, 64, 0
2, 169215, Note_on_c, 0, 76, 0
2, 169215, Note_on_c, 0, 78, 85
2, 169224, Control_c, 0, 64, 127
2, 169227, Note_on_c, 0, 78, 0
2, 169230, Note_on_c, 0, 79, 80
2, 169244, Note_on_c, 0, 79, 0
2, 169245, Note_on_c, 0, 81, 85
2, 169254, Control_c, 0, 64, 0
2, 169258, Note_on_c, 0, 81, 0
2, 169260, Note_on_c, 0, 83, 80
2, 169271, Note_on_c, 0, 83, 0
2, 169271, Control_c, 0, 64, 127
2, 169275, Note_on_c, 0, 84, 76
2, 169290, Note_on_c, 0, 84, 0
2, 169290, Note_on_c, 0, 86, 89
2, 169302, Note_on_c, 0, 86, 0
2, 169305, Note_on_c, 0, 88, 80
2, 169318, Note_on_c, 0, 88, 0
2, 169320, Note_on_c, 0, 86, 93
2, 169323, Control_c, 0, 64, 0
2, 169335, Note_on_c, 0, 84, 72
2, 169336, Note_on_c, 0, 86, 0
2, 169337, Control_c, 0, 64, 127
2, 169345, Note_on_c, 0, 84, 0
2, 169350, Note_on_c, 0, 83, 72
2, 169365, Note_on_c, 0, 81, 89
2, 169367, Note_on_c, 0, 83, 0
2, 169374, Control_c, 0, 64, 0
2, 169378, Note_on_c, 0, 81, 0
2, 169380, Note_on_c, 0, 79, 76
2, 169387, Control_c, 0, 64, 127
2, 169393, Note_on_c, 0, 79, 0
2, 169395, Note_on_c, 0, 78, 47
2, 169410, Note_on_c, 0, 78, 0
2, 169410, Note_on_c, 0, 76, 60
2, 169425, Note_on_c, 0, 76, 0
2, 169425, Note_on_c, 0, 74, 89
2, 169435, Note_on_c, 0, 74, 0
2, 169440, Note_on_c, 0, 72, 85
2, 169444, Control_c, 0, 64, 0
2, 169453, Note_on_c, 0, 72, 0
2, 169455, Note_on_c, 0, 74, 76
2, 169461, Control_c, 0, 64, 127
2, 169470, Note_on_c, 0, 74, 0
2, 169470, Note_on_c, 0, 76, 93
2, 169475, Control_c, 0, 64, 0
2, 169484, Note_on_c, 0, 76, 0
2, 169485, Note_on_c, 0, 78, 68
2, 169491, Control_c, 0, 64, 127
2, 169497, Note_on_c, 0, 78, 0
2, 169500, Note_on_c, 0, 79, 89
2, 169512, Note_on_c, 0, 79, 0
2, 169515, Note_on_c, 0, 81, 76
2, 169520, Control_c, 0, 64, 0
2, 169530, Note_on_c, 0, 83, 64
2, 169531, Note_on_c, 0, 81, 0
2, 169541, Control_c, 0, 64, 127
2, 169543, Note_on_c, 0, 83, 0
2, 169545, Note_on_c, 0, 84, 72
2, 169560, Note_on_c, 0, 82, 80
2, 169561, Note_on_c, 0, 84, 0
2, 169567, Control_c, 0, 64, 0
2, 169582, Control_c, 0, 64, 127
2, 169587, Note_on_c, 0, 82, 0
2, 169590, Note_on_c, 0, 83, 93
2, 169609, Note_on_c, 0, 83, 0
2, 169613, Control_c, 0, 64, 0
2, 169620, Note_on_c, 0, 83, 93
2, 169630, Control_c, 0, 64, 127
2, 169648, Note_on_c, 0, 83, 0
2, 169664, Control_c, 0, 64, 0
2, 169680, Note_on_c, 0, 81, 85
2, 169680, Note_on_c, 0, 67, 80
2, 169692, Control_c, 0, 64, 127
2, 169694, Note_on_c, 0, 67, 0
2, 169696, Note_on_c, 0, 81, 0
2, 169710, Note_on_c, 0, 80, 64
2, 169710, Note_on_c, 0, 67, 80
2, 169713, Control_c, 0, 64, 0
2, 169722, Note_on_c, 0, 80, 0
2, 169723, Note_on_c, 0, 67, 0
2, 169740, Note_on_c, 0, 81, 80
2, 169740, Note_on_c, 0, 67, 80
2, 169750, Note_on_c, 0, 81, 0
2, 169753, Note_on_c, 0, 67, 0
2, 169770, Note_on_c, 0, 83, 89
2, 169770, Note_on_c, 0, 67, 72
2, 169780, Note_on_c, 0, 83, 0
2, 169782, Note_on_c, 0, 67, 0
2, 169800, Note_on_c, 0, 84, 76
2, 169800, Note_on_c, 0, 67, 76
2, 169810, Note_on_c, 0, 84, 0
2, 169813, Note_on_c, 0, 67, 0
2, 169830, Note_on_c, 0, 83, 76
2, 169830, Note_on_c, 0, 67, 76
2, 169841, Note_on_c, 0, 83, 0
2, 169843, Note_on_c, 0, 67, 0
2, 169860, Note_on_c, 0, 84, 76
2, 169860, Note_on_c, 0, 67, 80
2, 169869, Note_on_c, 0, 84, 0
2, 169872, Note_on_c, 0, 67, 0
2, 169890, Note_on_c, 0, 86, 89
2, 169890, Note_on_c, 0, 67, 80
2, 169899, Note_on_c, 0, 86, 0
2, 169902, Note_on_c, 0, 67, 0
2, 169920, Note_on_c, 0, 88, 93
2, 169920, Note_on_c, 0, 67, 89
2, 169929, Note_on_c, 0, 88, 0
2, 169933, Note_on_c, 0, 67, 0
2, 169980, Note_on_c, 0, 86, 89
2, 169980, Note_on_c, 0, 67, 93
2, 169989, Note_on_c, 0, 86, 0
2, 169993, Note_on_c, 0, 67, 0
2, 170040, Note_on_c, 0, 85, 93
2, 170040, Note_on_c, 0, 67, 89
2, 170050, Note_on_c, 0, 85, 0
2, 170053, Note_on_c, 0, 67, 0
2, 170100, Note_on_c, 0, 84, 80
2, 170100, Note_on_c, 0, 66, 89
2, 170111, Note_on_c, 0, 84, 0
2, 170118, Note_on_c, 0, 66, 0
2, 170160, Note_on_c, 0, 84, 93
2, 170160, Note_on_c, 0, 67, 89
2, 170175, Note_on_c, 0, 83, 72
2, 170176, Note_on_c, 0, 84, 0
2, 170185, Note_on_c, 0, 83, 0
2, 170190, Note_on_c, 0, 81, 62
2, 170203, Note_on_c, 0, 81, 0
2, 170205, Note_on_c, 0, 83, 80
2, 170217, Note_on_c, 0, 83, 0
2, 170220, Note_on_c, 0, 84, 89
2, 170220, Note_on_c, 0, 76, 93
2, 170221, Note_on_c, 0, 67, 0
2, 170265, Note_on_c, 0, 76, 0
2, 170265, Note_on_c, 0, 81, 72
2, 170265, Note_on_c, 0, 72, 85
2, 170267, Note_on_c, 0, 84, 0
2, 170273, Note_on_c, 0, 81, 0
2, 170280, Note_on_c, 0, 79, 89
2, 170280, Note_on_c, 0, 71, 89
2, 170284, Note_on_c, 0, 72, 0
2, 170299, Note_on_c, 0, 79, 0
2, 170322, Note_on_c, 0, 71, 0
2, 170340, Note_on_c, 0, 81, 89
2, 170340, Note_on_c, 0, 66, 85
2, 170356, Note_on_c, 0, 81, 0
2, 170357, Note_on_c, 0, 66, 0
2, 170400, Note_on_c, 0, 81, 98
2, 170400, Note_on_c, 0, 66, 89
2, 170489, Note_on_c, 0, 81, 0
2, 170490, Note_on_c, 0, 82, 76
2, 170520, Note_on_c, 0, 82, 0
2, 170520, Note_on_c, 0, 83, 93
2, 170520, Note_on_c, 0, 67, 76
2, 170525, Note_on_c, 0, 66, 0
2, 170548, Control_c, 0, 64, 127
2, 170582, Note_on_c, 0, 67, 0
2, 170586, Note_on_c, 0, 83, 0
2, 170602, Control_c, 0, 64, 0
2, 170640, Note_on_c, 0, 76, 93
2, 170647, Control_c, 0, 64, 127
2, 170655, Note_on_c, 0, 76, 0
2, 170655, Note_on_c, 0, 78, 85
2, 170665, Note_on_c, 0, 78, 0
2, 170670, Note_on_c, 0, 79, 98
2, 170683, Note_on_c, 0, 79, 0
2, 170684, Control_c, 0, 64, 0
2, 170685, Note_on_c, 0, 81, 89
2, 170698, Note_on_c, 0, 81, 0
2, 170700, Note_on_c, 0, 83, 93
2, 170707, Control_c, 0, 64, 127
2, 170711, Note_on_c, 0, 83, 0
2, 170715, Note_on_c, 0, 84, 89
2, 170728, Note_on_c, 0, 84, 0
2, 170730, Note_on_c, 0, 86, 85
2, 170742, Note_on_c, 0, 86, 0
2, 170745, Note_on_c, 0, 88, 89
2, 170748, Control_c, 0, 64, 0
2, 170759, Note_on_c, 0, 88, 0
2, 170760, Note_on_c, 0, 86, 98
2, 170771, Control_c, 0, 64, 127
2, 170774, Note_on_c, 0, 86, 0
2, 170775, Note_on_c, 0, 84, 76
2, 170787, Note_on_c, 0, 84, 0
2, 170790, Note_on_c, 0, 83, 93
2, 170805, Note_on_c, 0, 83, 0
2, 170805, Note_on_c, 0, 81, 85
2, 170808, Control_c, 0, 64, 0
2, 170818, Note_on_c, 0, 81, 0
2, 170820, Note_on_c, 0, 79, 68
2, 170827, Control_c, 0, 64, 127
2, 170830, Note_on_c, 0, 79, 0
2, 170835, Note_on_c, 0, 78, 34
2, 170848, Note_on_c, 0, 78, 0
2, 170850, Note_on_c, 0, 76, 76
2, 170865, Note_on_c, 0, 74, 85
2, 170866, Note_on_c, 0, 76, 0
2, 170871, Control_c, 0, 64, 0
2, 170873, Note_on_c, 0, 74, 0
2, 170880, Note_on_c, 0, 72, 89
2, 170890, Control_c, 0, 64, 127
2, 170894, Note_on_c, 0, 72, 0
2, 170895, Note_on_c, 0, 74, 85
2, 170910, Note_on_c, 0, 74, 0
2, 170910, Note_on_c, 0, 76, 76
2, 170925, Note_on_c, 0, 76, 0
2, 170925, Note_on_c, 0, 78, 60
2, 170931, Control_c, 0, 64, 0
2, 170936, Note_on_c, 0, 78, 0
2, 170940, Note_on_c, 0, 79, 93
2, 170950, Control_c, 0, 64, 127
2, 170953, Note_on_c, 0, 79, 0
2, 170955, Note_on_c, 0, 81, 64
2, 170970, Note_on_c, 0, 83, 80
2, 170971, Note_on_c, 0, 81, 0
2, 170984, Note_on_c, 0, 83, 0
2, 170985, Note_on_c, 0, 84, 76
2, 170997, Control_c, 0, 64, 0
2, 171000, Note_on_c, 0, 82, 93
2, 171002, Note_on_c, 0, 84, 0
2, 171012, Control_c, 0, 64, 127
2, 171028, Note_on_c, 0, 82, 0
2, 171030, Note_on_c, 0, 83, 93
2, 171034, Control_c, 0, 64, 0
2, 171046, Note_on_c, 0, 83, 0
2, 171060, Note_on_c, 0, 83, 93
2, 171069, Control_c, 0, 64, 127
2, 171080, Note_on_c, 0, 83, 0
2, 171100, Control_c, 0, 64, 0
2, 171120, Note_on_c, 0, 81, 89
2, 171120, Note_on_c, 0, 69, 72
2, 171131, Note_on_c, 0, 81, 0
2, 171135, Note_on_c, 0, 69, 0
2, 171150, Note_on_c, 0, 80, 76
2, 171150, Note_on_c, 0, 68, 76
2, 171158, Note_on_c, 0, 80, 0
2, 171164, Note_on_c, 0, 68, 0
2, 171180, Note_on_c, 0, 81, 76
2, 171180, Note_on_c, 0, 69, 62
2, 171190, Note_on_c, 0, 81, 0
2, 171197, Note_on_c, 0, 69, 0
2, 171210, Note_on_c, 0, 83, 72
2, 171210, Note_on_c, 0, 71, 80
2, 171217, Note_on_c, 0, 83, 0
2, 171226, Note_on_c, 0, 71, 0
2, 171240, Note_on_c, 0, 84, 68
2, 171240, Note_on_c, 0, 72, 64
2, 171248, Note_on_c, 0, 84, 0
2, 171255, Note_on_c, 0, 72, 0
2, 171270, Note_on_c, 0, 83, 64
2, 171270, Note_on_c, 0, 71, 64
2, 171280, Note_on_c, 0, 83, 0
2, 171284, Note_on_c, 0, 71, 0
2, 171300, Note_on_c, 0, 84, 68
2, 171300, Note_on_c, 0, 72, 76
2, 171308, Note_on_c, 0, 84, 0
2, 171316, Note_on_c, 0, 72, 0
2, 171330, Note_on_c, 0, 86, 68
2, 171330, Note_on_c, 0, 74, 76
2, 171340, Note_on_c, 0, 86, 0
2, 171345, Note_on_c, 0, 74, 0
2, 171360, Note_on_c, 0, 87, 72
2, 171360, Note_on_c, 0, 75, 89
2, 171371, Note_on_c, 0, 87, 0
2, 171375, Note_on_c, 0, 75, 0
2, 171420, Note_on_c, 0, 86, 76
2, 171420, Note_on_c, 0, 74, 72
2, 171430, Note_on_c, 0, 86, 0
2, 171436, Note_on_c, 0, 74, 0
2, 171480, Note_on_c, 0, 85, 68
2, 171480, Note_on_c, 0, 73, 85
2, 171488, Note_on_c, 0, 85, 0
2, 171496, Note_on_c, 0, 73, 0
2, 171540, Note_on_c, 0, 84, 72
2, 171540, Note_on_c, 0, 72, 80
2, 171550, Note_on_c, 0, 84, 0
2, 171554, Note_on_c, 0, 72, 0
2, 171600, Note_on_c, 0, 86, 80
2, 171600, Note_on_c, 0, 71, 89
2, 171613, Note_on_c, 0, 86, 0
2, 171615, Note_on_c, 0, 84, 76
2, 171630, Note_on_c, 0, 84, 0
2, 171630, Note_on_c, 0, 83, 72
2, 171644, Note_on_c, 0, 83, 0
2, 171645, Note_on_c, 0, 84, 62
2, 171656, Note_on_c, 0, 84, 0
2, 171660, Note_on_c, 0, 88, 89
2, 171668, Note_on_c, 0, 71, 0
2, 171686, Control_c, 0, 64, 127
2, 171780, Note_on_c, 0, 88, 0
2, 171780, Note_on_c, 0, 86, 89
2, 171784, Control_c, 0, 64, 0
2, 171795, Note_on_c, 0, 84, 80
2, 171799, Note_on_c, 0, 86, 0
2, 171799, Control_c, 0, 64, 127
2, 171810, Note_on_c, 0, 83, 76
2, 171813, Note_on_c, 0, 84, 0
2, 171825, Note_on_c, 0, 83, 0
2, 171825, Note_on_c, 0, 81, 60
2, 171838, Note_on_c, 0, 81, 0
2, 171840, Note_on_c, 0, 83, 80
2, 171841, Control_c, 0, 64, 0
2, 171855, Note_on_c, 0, 79, 72
2, 171858, Note_on_c, 0, 83, 0
2, 171864, Note_on_c, 0, 79, 0
2, 171870, Note_on_c, 0, 86, 72
2, 171885, Note_on_c, 0, 83, 68
2, 171886, Note_on_c, 0, 86, 0
2, 171897, Note_on_c, 0, 83, 0
2, 171900, Note_on_c, 0, 79, 62
2, 171900, Control_c, 0, 64, 127
2, 171918, Control_c, 0, 64, 0
2, 171956, Note_on_c, 0, 79, 0
2, 171957, Control_c, 0, 64, 127
2, 171980, Control_c, 0, 64, 0
2, 172080, Note_on_c, 0, 79, 93
2, 172080, Note_on_c, 0, 71, 93
2, 172170, Note_on_c, 0, 72, 64
2, 172172, Note_on_c, 0, 71, 0
2, 172185, Note_on_c, 0, 74, 76
2, 172187, Note_on_c, 0, 72, 0
2, 172200, Note_on_c, 0, 67, 76
2, 172205, Note_on_c, 0, 74, 0
2, 172216, Note_on_c, 0, 79, 0
2, 172222, Note_on_c, 0, 67, 0
2, 172260, Note_on_c, 0, 67, 72
2, 172278, Note_on_c, 0, 67, 0
2, 172320, Note_on_c, 0, 81, 102
2, 172320, Note_on_c, 0, 72, 80
2, 172342, Note_on_c, 0, 72, 0
2, 172380, Note_on_c, 0, 72, 93
2, 172400, Note_on_c, 0, 72, 0
2, 172410, Note_on_c, 0, 83, 85
2, 172413, Note_on_c, 0, 81, 0
2, 172424, Note_on_c, 0, 83, 0
2, 172425, Note_on_c, 0, 84, 80
2, 172440, Note_on_c, 0, 78, 93
2, 172440, Note_on_c, 0, 62, 89
2, 172450, Note_on_c, 0, 84, 0
2, 172470, Note_on_c, 0, 78, 0
2, 172498, Note_on_c, 0, 62, 0
2, 172500, Note_on_c, 0, 78, 98
2, 172525, Note_on_c, 0, 78, 0
2, 172543, Control_c, 0, 64, 127
2, 172546, Control_c, 0, 64, 0
2, 172560, Note_on_c, 0, 86, 98
2, 172560, Note_on_c, 0, 71, 93
2, 172593, Note_on_c, 0, 86, 0
2, 172620, Note_on_c, 0, 86, 107
2, 172646, Note_on_c, 0, 86, 0
2, 172650, Note_on_c, 0, 72, 80
2, 172657, Note_on_c, 0, 71, 0
2, 172665, Note_on_c, 0, 74, 98
2, 172666, Note_on_c, 0, 72, 0
2, 172680, Note_on_c, 0, 79, 98
2, 172680, Note_on_c, 0, 67, 89
2, 172686, Note_on_c, 0, 74, 0
2, 172720, Note_on_c, 0, 67, 0
2, 172740, Note_on_c, 0, 67, 98
2, 172782, Note_on_c, 0, 67, 0
2, 172792, Note_on_c, 0, 79, 0
2, 172800, Note_on_c, 0, 81, 98
2, 172800, Note_on_c, 0, 72, 89
2, 172841, Note_on_c, 0, 72, 0
2, 172860, Note_on_c, 0, 72, 76
2, 172883, Note_on_c, 0, 72, 0
2, 172887, Note_on_c, 0, 81, 0
2, 172890, Note_on_c, 0, 83, 85
2, 172903, Note_on_c, 0, 83, 0
2, 172905, Note_on_c, 0, 84, 85
2, 172920, Note_on_c, 0, 78, 98
2, 172920, Note_on_c, 0, 62, 93
2, 172930, Note_on_c, 0, 84, 0
2, 172948, Note_on_c, 0, 78, 0
2, 172980, Note_on_c, 0, 78, 102
2, 173005, Note_on_c, 0, 78, 0
2, 173009, Note_on_c, 0, 62, 0
2, 173040, Note_on_c, 0, 86, 102
2, 173070, Note_on_c, 0, 86, 0
2, 173100, Note_on_c, 0, 86, 98
2, 173130, Note_on_c, 0, 86, 0
2, 173160, Note_on_c, 0, 79, 98
2, 173220, Note_on_c, 0, 67, 93
2, 173275, Note_on_c, 0, 79, 0
2, 173276, Note_on_c, 0, 67, 0
2, 173280, Note_on_c, 0, 87, 102
2, 173280, Note_on_c, 0, 69, 85
2, 173280, Note_on_c, 0, 66, 85
2, 173311, Note_on_c, 0, 87, 0
2, 173340, Note_on_c, 0, 87, 98
2, 173391, Note_on_c, 0, 87, 0
2, 173399, Note_on_c, 0, 66, 0
2, 173400, Note_on_c, 0, 78, 107
2, 173401, Note_on_c, 0, 69, 0
2, 173460, Note_on_c, 0, 66, 85
2, 173460, Note_on_c, 0, 69, 93
2, 173509, Note_on_c, 0, 69, 0
2, 173512, Note_on_c, 0, 66, 0
2, 173514, Note_on_c, 0, 78, 0
2, 173520, Note_on_c, 0, 86, 102
2, 173520, Note_on_c, 0, 71, 98
2, 173520, Note_on_c, 0, 65, 93
2, 173520, Note_on_c, 0, 67, 89
2, 173546, Note_on_c, 0, 86, 0
2, 173580, Note_on_c, 0, 86, 102
2, 173623, Note_on_c, 0, 86, 0
2, 173640, Note_on_c, 0, 77, 107
2, 174000, Note_on_c, 0, 77, 0
2, 174000, Note_on_c, 0, 71, 0
2, 174005, Note_on_c, 0, 65, 0
2, 174005, Note_on_c, 0, 67, 0
2, 174240, Note_on_c, 0, 76, 89
2, 174254, Control_c, 0, 64, 127
2, 174323, Note_on_c, 0, 76, 0
2, 174330, Note_on_c, 0, 77, 64
2, 174343, Note_on_c, 0, 77, 0
2, 174345, Note_on_c, 0, 79, 64
2, 174355, Control_c, 0, 64, 0
2, 174360, Note_on_c, 0, 72, 76
2, 174364, Note_on_c, 0, 79, 0
2, 174379, Control_c, 0, 64, 127
2, 174404, Note_on_c, 0, 72, 0
2, 174420, Note_on_c, 0, 72, 80
2, 174464, Note_on_c, 0, 72, 0
2, 174480, Note_on_c, 0, 74, 80
2, 174484, Control_c, 0, 64, 0
2, 174501, Control_c, 0, 64, 127
2, 174521, Note_on_c, 0, 74, 0
2, 174540, Note_on_c, 0, 74, 76
2, 174569, Note_on_c, 0, 74, 0
2, 174600, Note_on_c, 0, 67, 76
2, 174605, Control_c, 0, 64, 0
2, 174626, Control_c, 0, 64, 127
2, 174668, Note_on_c, 0, 67, 0
2, 174720, Note_on_c, 0, 76, 85
2, 174720, Note_on_c, 0, 67, 80
2, 174724, Control_c, 0, 64, 0
2, 174741, Control_c, 0, 64, 127
2, 174745, Control_c, 0, 64, 127
2, 174810, Note_on_c, 0, 76, 0
2, 174810, Note_on_c, 0, 77, 76
2, 174816, Control_c, 0, 64, 0
2, 174825, Note_on_c, 0, 77, 0
2, 174825, Note_on_c, 0, 79, 76
2, 174840, Note_on_c, 0, 72, 89
2, 174844, Note_on_c, 0, 79, 0
2, 174860, Control_c, 0, 64, 127
2, 174869, Note_on_c, 0, 67, 0
2, 174884, Note_on_c, 0, 72, 0
2, 174900, Note_on_c, 0, 72, 85
2, 174900, Note_on_c, 0, 67, 72
2, 174942, Note_on_c, 0, 67, 0
2, 174945, Note_on_c, 0, 72, 0
2, 174960, Note_on_c, 0, 73, 89
2, 174960, Note_on_c, 0, 67, 80
2, 174965, Control_c, 0, 64, 0
2, 174981, Control_c, 0, 64, 0
2, 174991, Control_c, 0, 64, 127
2, 175020, Control_c, 0, 64, 127
2, 175079, Note_on_c, 0, 73, 0
2, 175080, Note_on_c, 0, 74, 85
2, 175082, Control_c, 0, 64, 0
2, 175098, Control_c, 0, 64, 127
2, 175133, Note_on_c, 0, 67, 0
2, 175144, Note_on_c, 0, 74, 0
2, 175166, Control_c, 0, 64, 0
2, 175172, Control_c, 0, 64, 0
2, 175200, Note_on_c, 0, 76, 89
2, 175216, Control_c, 0, 64, 127
2, 175289, Note_on_c, 0, 76, 0
2, 175290, Note_on_c, 0, 77, 76
2, 175290, Control_c, 0, 64, 0
2, 175305, Note_on_c, 0, 77, 0
2, 175305, Note_on_c, 0, 79, 76
2, 175310, Control_c, 0, 64, 127
2, 175319, Control_c, 0, 64, 0
2, 175320, Note_on_c, 0, 72, 68
2, 175323, Note_on_c, 0, 79, 0
2, 175340, Control_c, 0, 64, 127
2, 175367, Note_on_c, 0, 72, 0
2, 175380, Note_on_c, 0, 72, 93
2, 175427, Note_on_c, 0, 72, 0
2, 175440, Note_on_c, 0, 81, 93
2, 175443, Control_c, 0, 64, 0
2, 175458, Control_c, 0, 64, 127
2, 175490, Note_on_c, 0, 81, 0
2, 175500, Note_on_c, 0, 81, 93
2, 175558, Note_on_c, 0, 81, 0
2, 175560, Note_on_c, 0, 84, 98
2, 175561, Control_c, 0, 64, 0
2, 175580, Control_c, 0, 64, 127
2, 175637, Note_on_c, 0, 84, 0
2, 175679, Control_c, 0, 64, 0
2, 175680, Note_on_c, 0, 81, 93
2, 175680, Note_on_c, 0, 67, 76
2, 175701, Control_c, 0, 64, 127
2, 175708, Note_on_c, 0, 81, 0
2, 175710, Note_on_c, 0, 79, 80
2, 175712, Control_c, 0, 64, 127
2, 175734, Control_c, 0, 64, 0
2, 175736, Note_on_c, 0, 79, 0
2, 175740, Note_on_c, 0, 77, 76
2, 175753, Control_c, 0, 64, 127
2, 175768, Note_on_c, 0, 77, 0
2, 175770, Note_on_c, 0, 76, 85
2, 175784, Note_on_c, 0, 76, 0
2, 175793, Control_c, 0, 64, 0
2, 175800, Note_on_c, 0, 74, 85
2, 175814, Note_on_c, 0, 74, 0
2, 175815, Control_c, 0, 64, 127
2, 175816, Note_on_c, 0, 67, 0
2, 175820, Control_c, 0, 64, 0
2, 175830, Note_on_c, 0, 76, 62
2, 175840, Note_on_c, 0, 76, 0
2, 175844, Note_on_c, 0, 74, 68
2, 175851, Note_on_c, 0, 72, 56
2, 175853, Note_on_c, 0, 74, 0
2, 175860, Note_on_c, 0, 74, 72
2, 175860, Note_on_c, 0, 67, 72
2, 175861, Note_on_c, 0, 72, 0
2, 175890, Note_on_c, 0, 74, 0
2, 175890, Note_on_c, 0, 76, 80
2, 175893, Note_on_c, 0, 67, 0
2, 175900, Note_on_c, 0, 76, 0
2, 175920, Note_on_c, 0, 74, 76
2, 175920, Note_on_c, 0, 67, 68
2, 175925, Control_c, 0, 64, 0
2, 175932, Control_c, 0, 64, 127
2, 175943, Control_c, 0, 64, 127
2, 176035, Note_on_c, 0, 74, 0
2, 176039, Control_c, 0, 64, 0
2, 176040, Note_on_c, 0, 72, 85
2, 176054, Note_on_c, 0, 67, 0
2, 176061, Control_c, 0, 64, 127
2, 176072, Control_c, 0, 64, 0
2, 176131, Control_c, 0, 64, 0
2, 176132, Note_on_c, 0, 72, 0
2, 176160, Note_on_c, 0, 76, 64
2, 176174, Control_c, 0, 64, 127
2, 176248, Note_on_c, 0, 76, 0
2, 176250, Note_on_c, 0, 77, 53
2, 176254, Control_c, 0, 64, 0
2, 176265, Note_on_c, 0, 77, 0
2, 176265, Note_on_c, 0, 79, 52
2, 176280, Note_on_c, 0, 72, 56
2, 176286, Note_on_c, 0, 79, 0
2, 176291, Control_c, 0, 64, 127
2, 176318, Note_on_c, 0, 72, 0
2, 176340, Note_on_c, 0, 72, 53
2, 176377, Note_on_c, 0, 72, 0
2, 176400, Note_on_c, 0, 74, 52
2, 176404, Control_c, 0, 64, 0
2, 176418, Control_c, 0, 64, 127
2, 176434, Note_on_c, 0, 74, 0
2, 176460, Note_on_c, 0, 74, 55
2, 176482, Note_on_c, 0, 74, 0
2, 176520, Note_on_c, 0, 67, 57
2, 176521, Control_c, 0, 64, 0
2, 176540, Control_c, 0, 64, 127
2, 176584, Note_on_c, 0, 67, 0
2, 176637, Control_c, 0, 64, 0
2, 176640, Note_on_c, 0, 76, 60
2, 176640, Note_on_c, 0, 67, 57
2, 176661, Control_c, 0, 64, 127
2, 176679, Control_c, 0, 64, 127
2, 176728, Note_on_c, 0, 76, 0
2, 176730, Note_on_c, 0, 77, 57
2, 176730, Control_c, 0, 64, 0
2, 176745, Note_on_c, 0, 77, 0
2, 176745, Note_on_c, 0, 79, 56
2, 176760, Note_on_c, 0, 72, 57
2, 176762, Note_on_c, 0, 67, 0
2, 176763, Note_on_c, 0, 79, 0
2, 176772, Control_c, 0, 64, 127
2, 176798, Note_on_c, 0, 72, 0
2, 176820, Note_on_c, 0, 72, 60
2, 176820, Note_on_c, 0, 67, 50
2, 176846, Note_on_c, 0, 72, 0
2, 176874, Note_on_c, 0, 67, 0
2, 176880, Note_on_c, 0, 73, 53
2, 176880, Note_on_c, 0, 67, 62
2, 176885, Control_c, 0, 64, 0
2, 176931, Control_c, 0, 64, 127
2, 176962, Note_on_c, 0, 67, 0
2, 177000, Note_on_c, 0, 74, 38
2, 177007, Note_on_c, 0, 73, 0
2, 177008, Control_c, 0, 64, 0
2, 177048, Control_c, 0, 64, 127
2, 177058, Control_c, 0, 64, 0
2, 177081, Note_on_c, 0, 74, 0
2, 177099, Control_c, 0, 64, 0
2, 177120, Note_on_c, 0, 76, 76
2, 177140, Control_c, 0, 64, 127
2, 177210, Note_on_c, 0, 76, 0
2, 177210, Note_on_c, 0, 77, 64
2, 177224, Note_on_c, 0, 77, 0
2, 177225, Note_on_c, 0, 79, 64
2, 177238, Control_c, 0, 64, 0
2, 177240, Note_on_c, 0, 72, 76
2, 177245, Note_on_c, 0, 79, 0
2, 177264, Control_c, 0, 64, 127
2, 177286, Note_on_c, 0, 72, 0
2, 177300, Note_on_c, 0, 72, 80
2, 177350, Note_on_c, 0, 72, 0
2, 177360, Note_on_c, 0, 81, 68
2, 177363, Control_c, 0, 64, 0
2, 177379, Control_c, 0, 64, 127
2, 177403, Note_on_c, 0, 81, 0
2, 177420, Note_on_c, 0, 81, 76
2, 177480, Note_on_c, 0, 81, 0
2, 177480, Note_on_c, 0, 84, 68
2, 177485, Control_c, 0, 64, 0
2, 177503, Control_c, 0, 64, 127
2, 177529, Note_on_c, 0, 84, 0
2, 177583, Control_c, 0, 64, 0
2, 177600, Note_on_c, 0, 81, 56
2, 177600, Note_on_c, 0, 67, 76
2, 177616, Control_c, 0, 64, 127
2, 177621, Control_c, 0, 64, 127
2, 177628, Note_on_c, 0, 81, 0
2, 177630, Note_on_c, 0, 79, 62
2, 177656, Control_c, 0, 64, 0
2, 177657, Note_on_c, 0, 79, 0
2, 177660, Note_on_c, 0, 77, 62
2, 177676, Control_c, 0, 64, 127
2, 177687, Note_on_c, 0, 77, 0
2, 177690, Note_on_c, 0, 76, 57
2, 177702, Note_on_c, 0, 76, 0
2, 177712, Control_c, 0, 64, 0
2, 177720, Note_on_c, 0, 74, 72
2, 177726, Control_c, 0, 64, 127
2, 177732, Note_on_c, 0, 74, 0
2, 177742, Control_c, 0, 64, 0
2, 177744, Note_on_c, 0, 67, 0
2, 177757, Note_on_c, 0, 76, 57
2, 177764, Note_on_c, 0, 74, 57
2, 177767, Note_on_c, 0, 76, 0
2, 177771, Note_on_c, 0, 72, 48
2, 177772, Note_on_c, 0, 74, 0
2, 177779, Control_c, 0, 64, 0
2, 177780, Note_on_c, 0, 74, 56
2, 177780, Note_on_c, 0, 67, 64
2, 177782, Note_on_c, 0, 72, 0
2, 177795, Control_c, 0, 64, 127
2, 177810, Note_on_c, 0, 74, 0
2, 177810, Note_on_c, 0, 76, 57
2, 177819, Note_on_c, 0, 76, 0
2, 177819, Note_on_c, 0, 67, 0
2, 177840, Note_on_c, 0, 74, 57
2, 177840, Note_on_c, 0, 67, 80
2, 177844, Control_c, 0, 64, 0
2, 177857, Control_c, 0, 64, 127
2, 177865, Control_c, 0, 64, 127
2, 177924, Note_on_c, 0, 67, 0
2, 177958, Note_on_c, 0, 74, 0
2, 177959, Control_c, 0, 64, 0
2, 177960, Note_on_c, 0, 72, 60
2, 177980, Control_c, 0, 64, 127
2, 177981, Control_c, 0, 64, 0
2, 178020, Note_on_c, 0, 72, 0
2, 178048, Control_c, 0, 64, 0
2, 178080, Note_on_c, 0, 84, 98
2, 178080, Note_on_c, 0, 72, 72
2, 178089, Control_c, 0, 64, 127
2, 178110, Note_on_c, 0, 84, 0
2, 178110, Note_on_c, 0, 83, 89
2, 178110, Note_on_c, 0, 71, 62
2, 178115, Note_on_c, 0, 72, 0
2, 178123, Control_c, 0, 64, 0
2, 178138, Note_on_c, 0, 71, 0
2, 178140, Note_on_c, 0, 83, 0
2, 178140, Note_on_c, 0, 81, 93
2, 178140, Note_on_c, 0, 69, 89
2, 178147, Note_on_c, 0, 81, 0
2, 178155, Note_on_c, 0, 69, 0
2, 178170, Note_on_c, 0, 79, 93
2, 178170, Note_on_c, 0, 67, 80
2, 178179, Note_on_c, 0, 79, 0
2, 178185, Note_on_c, 0, 67, 0
2, 178200, Note_on_c, 0, 84, 98
2, 178200, Note_on_c, 0, 72, 62
2, 178212, Control_c, 0, 64, 127
2, 178267, Control_c, 0, 64, 0
2, 178270, Note_on_c, 0, 84, 0
2, 178284, Note_on_c, 0, 72, 0
2, 178320, Note_on_c, 0, 84, 98
2, 178320, Note_on_c, 0, 72, 93
2, 178326, Control_c, 0, 64, 127
2, 178350, Note_on_c, 0, 84, 0
2, 178350, Note_on_c, 0, 83, 93
2, 178350, Note_on_c, 0, 71, 76
2, 178352, Note_on_c, 0, 72, 0
2, 178356, Control_c, 0, 64, 0
2, 178370, Note_on_c, 0, 71, 0
2, 178380, Note_on_c, 0, 81, 93
2, 178380, Note_on_c, 0, 69, 85
2, 178381, Note_on_c, 0, 83, 0
2, 178386, Note_on_c, 0, 81, 0
2, 178393, Note_on_c, 0, 69, 0
2, 178410, Note_on_c, 0, 79, 89
2, 178410, Note_on_c, 0, 67, 62
2, 178419, Note_on_c, 0, 79, 0
2, 178423, Note_on_c, 0, 67, 0
2, 178440, Note_on_c, 0, 84, 98
2, 178440, Note_on_c, 0, 72, 80
2, 178503, Control_c, 0, 64, 127
2, 178518, Note_on_c, 0, 72, 0
2, 178518, Note_on_c, 0, 84, 0
2, 178535, Control_c, 0, 64, 0
2, 178560, Note_on_c, 0, 83, 76
2, 178560, Note_on_c, 0, 71, 93
2, 178589, Note_on_c, 0, 83, 0
2, 178590, Note_on_c, 0, 81, 80
2, 178590, Note_on_c, 0, 69, 80
2, 178593, Note_on_c, 0, 71, 0
2, 178619, Note_on_c, 0, 81, 0
2, 178620, Note_on_c, 0, 80, 89
2, 178620, Note_on_c, 0, 68, 76
2, 178627, Note_on_c, 0, 69, 0
2, 178627, Control_c, 0, 64, 127
2, 178650, Note_on_c, 0, 68, 0
2, 178650, Note_on_c, 0, 83, 93
2, 178650, Note_on_c, 0, 71, 89
2, 178653, Note_on_c, 0, 80, 0
2, 178669, Control_c, 0, 64, 0
2, 178680, Note_on_c, 0, 71, 0
2, 178680, Note_on_c, 0, 84, 93
2, 178680, Note_on_c, 0, 72, 85
2, 178681, Note_on_c, 0, 83, 0
2, 178706, Control_c, 0, 64, 127
2, 178734, Control_c, 0, 64, 0
2, 178738, Note_on_c, 0, 84, 0
2, 178740, Note_on_c, 0, 86, 93
2, 178740, Note_on_c, 0, 74, 89
2, 178744, Note_on_c, 0, 72, 0
2, 178762, Control_c, 0, 64, 127
2, 178797, Note_on_c, 0, 74, 0
2, 178800, Note_on_c, 0, 83, 93
2, 178800, Control_c, 0, 64, 0
2, 178800, Note_on_c, 0, 71, 85
2, 178803, Note_on_c, 0, 86, 0
2, 178844, Control_c, 0, 64, 127
2, 178920, Note_on_c, 0, 79, 89
2, 178920, Note_on_c, 0, 67, 64
2, 178922, Note_on_c, 0, 71, 0
2, 178922, Note_on_c, 0, 83, 0
2, 178924, Control_c, 0, 64, 0
2, 178939, Control_c, 0, 64, 127
2, 178991, Note_on_c, 0, 67, 0
2, 178992, Note_on_c, 0, 79, 0
2, 179005, Control_c, 0, 64, 0
2, 179040, Note_on_c, 0, 84, 80
2, 179040, Note_on_c, 0, 72, 59
2, 179047, Control_c, 0, 64, 127
2, 179070, Note_on_c, 0, 83, 76
2, 179070, Note_on_c, 0, 71, 53
2, 179073, Note_on_c, 0, 72, 0
2, 179073, Note_on_c, 0, 84, 0
2, 179074, Control_c, 0, 64, 0
2, 179091, Note_on_c, 0, 71, 0
2, 179100, Note_on_c, 0, 81, 62
2, 179100, Note_on_c, 0, 69, 55
2, 179103, Note_on_c, 0, 83, 0
2, 179108, Note_on_c, 0, 81, 0
2, 179116, Note_on_c, 0, 69, 0
2, 179130, Note_on_c, 0, 79, 72
2, 179130, Note_on_c, 0, 67, 55
2, 179140, Note_on_c, 0, 79, 0
2, 179144, Note_on_c, 0, 67, 0
2, 179160, Note_on_c, 0, 84, 68
2, 179160, Note_on_c, 0, 72, 64
2, 179170, Control_c, 0, 64, 127
2, 179231, Control_c, 0, 64, 0
2, 179244, Note_on_c, 0, 72, 0
2, 179245, Note_on_c, 0, 84, 0
2, 179280, Note_on_c, 0, 84, 64
2, 179280, Note_on_c, 0, 72, 60
2, 179285, Control_c, 0, 64, 127
2, 179309, Note_on_c, 0, 72, 0
2, 179310, Note_on_c, 0, 83, 64
2, 179310, Note_on_c, 0, 71, 51
2, 179313, Note_on_c, 0, 84, 0
2, 179320, Control_c, 0, 64, 0
2, 179337, Note_on_c, 0, 71, 0
2, 179340, Note_on_c, 0, 83, 0
2, 179340, Note_on_c, 0, 81, 62
2, 179340, Note_on_c, 0, 69, 52
2, 179347, Note_on_c, 0, 81, 0
2, 179358, Note_on_c, 0, 69, 0
2, 179370, Note_on_c, 0, 79, 64
2, 179370, Note_on_c, 0, 67, 62
2, 179377, Note_on_c, 0, 79, 0
2, 179386, Note_on_c, 0, 67, 0
2, 179400, Note_on_c, 0, 84, 64
2, 179400, Note_on_c, 0, 72, 62
2, 179415, Control_c, 0, 64, 127
2, 179480, Control_c, 0, 64, 0
2, 179483, Note_on_c, 0, 84, 0
2, 179506, Note_on_c, 0, 72, 0
2, 179520, Note_on_c, 0, 83, 89
2, 179520, Note_on_c, 0, 71, 68
2, 179548, Note_on_c, 0, 83, 0
2, 179549, Note_on_c, 0, 71, 0
2, 179550, Note_on_c, 0, 81, 80
2, 179550, Note_on_c, 0, 69, 64
2, 179580, Note_on_c, 0, 81, 0
2, 179580, Note_on_c, 0, 80, 89
2, 179580, Note_on_c, 0, 68, 55
2, 179591, Note_on_c, 0, 69, 0
2, 179600, Control_c, 0, 64, 127
2, 179606, Control_c, 0, 64, 0
2, 179609, Note_on_c, 0, 68, 0
2, 179610, Note_on_c, 0, 83, 89
2, 179610, Note_on_c, 0, 71, 72
2, 179611, Note_on_c, 0, 80, 0
2, 179640, Note_on_c, 0, 71, 0
2, 179640, Note_on_c, 0, 83, 0
2, 179640, Note_on_c, 0, 84, 102
2, 179640, Note_on_c, 0, 72, 76
2, 179667, Control_c, 0, 64, 127
2, 179699, Control_c, 0, 64, 0
2, 179700, Note_on_c, 0, 72, 0
2, 179700, Note_on_c, 0, 84, 0
2, 179700, Note_on_c, 0, 86, 80
2, 179700, Note_on_c, 0, 74, 68
2, 179725, Control_c, 0, 64, 127
2, 179756, Control_c, 0, 64, 0
2, 179758, Note_on_c, 0, 86, 0
2, 179759, Note_on_c, 0, 74, 0
2, 179760, Note_on_c, 0, 79, 89
2, 179760, Note_on_c, 0, 67, 62
2, 179786, Control_c, 0, 64, 127
2, 179787, Control_c, 0, 64, 127
2, 179846, Note_on_c, 0, 79, 0
2, 179847, Note_on_c, 0, 67, 0
2, 179865, Control_c, 0, 64, 0
2, 179873, Control_c, 0, 64, 0
2, 179880, Note_on_c, 0, 86, 98
2, 179880, Note_on_c, 0, 74, 89
2, 179894, Control_c, 0, 64, 127
2, 179909, Control_c, 0, 64, 127
2, 179921, Note_on_c, 0, 86, 0
2, 179931, Note_on_c, 0, 74, 0
2, 179940, Note_on_c, 0, 86, 98
2, 179940, Note_on_c, 0, 74, 98
2, 179964, Note_on_c, 0, 86, 0
2, 179981, Note_on_c, 0, 74, 0
2, 180000, Note_on_c, 0, 79, 89
2, 180000, Control_c, 0, 64, 0
2, 180000, Note_on_c, 0, 67, 80
2, 180006, Control_c, 0, 64, 0
2, 180021, Control_c, 0, 64, 127
2, 180034, Control_c, 0, 64, 127
2, 180064, Note_on_c, 0, 67, 0
2, 180067, Note_on_c, 0, 79, 0
2, 180101, Control_c, 0, 64, 0
2, 180105, Control_c, 0, 64, 0
2, 180120, Note_on_c, 0, 86, 60
2, 180120, Note_on_c, 0, 74, 62
2, 180138, Control_c, 0, 64, 127
2, 180142, Control_c, 0, 64, 127
2, 180152, Note_on_c, 0, 86, 0
2, 180157, Note_on_c, 0, 74, 0
2, 180180, Note_on_c, 0, 86, 57
2, 180180, Note_on_c, 0, 74, 57
2, 180194, Note_on_c, 0, 86, 0
2, 180209, Note_on_c, 0, 74, 0
2, 180237, Control_c, 0, 64, 0
2, 180240, Note_on_c, 0, 79, 57
2, 180240, Note_on_c, 0, 67, 72
2, 180249, Control_c, 0, 64, 0
2, 180261, Control_c, 0, 64, 127
2, 180273, Control_c, 0, 64, 127
2, 180310, Note_on_c, 0, 67, 0
2, 180310, Note_on_c, 0, 79, 0
2, 180312, Control_c, 0, 64, 0
2, 180337, Control_c, 0, 64, 0
2, 180480, Note_on_c, 0, 81, 76
2, 180495, Note_on_c, 0, 79, 56
2, 180496, Note_on_c, 0, 81, 0
2, 180506, Note_on_c, 0, 79, 0
2, 180510, Note_on_c, 0, 78, 62
2, 180525, Note_on_c, 0, 79, 76
2, 180527, Note_on_c, 0, 78, 0
2, 180545, Note_on_c, 0, 79, 0
2, 180720, Note_on_c, 0, 76, 85
2, 180783, Control_c, 0, 64, 127
2, 180810, Note_on_c, 0, 77, 76
2, 180811, Note_on_c, 0, 76, 0
2, 180814, Control_c, 0, 64, 0
2, 180825, Note_on_c, 0, 79, 68
2, 180826, Note_on_c, 0, 77, 0
2, 180840, Note_on_c, 0, 72, 72
2, 180843, Note_on_c, 0, 79, 0
2, 180862, Control_c, 0, 64, 127
2, 180880, Note_on_c, 0, 72, 0
2, 180900, Note_on_c, 0, 72, 76
2, 180938, Note_on_c, 0, 72, 0
2, 180960, Note_on_c, 0, 74, 85
2, 180962, Control_c, 0, 64, 0
2, 180983, Control_c, 0, 64, 127
2, 180998, Note_on_c, 0, 74, 0
2, 181020, Note_on_c, 0, 74, 76
2, 181049, Note_on_c, 0, 74, 0
2, 181079, Control_c, 0, 64, 0
2, 181080, Note_on_c, 0, 67, 80
2, 181102, Control_c, 0, 64, 127
2, 181146, Note_on_c, 0, 67, 0
2, 181190, Control_c, 0, 64, 0
2, 181200, Note_on_c, 0, 76, 89
2, 181200, Note_on_c, 0, 67, 57
2, 181208, Control_c, 0, 64, 127
2, 181227, Control_c, 0, 64, 127
2, 181290, Note_on_c, 0, 77, 76
2, 181290, Control_c, 0, 64, 0
2, 181291, Note_on_c, 0, 76, 0
2, 181305, Note_on_c, 0, 79, 64
2, 181307, Note_on_c, 0, 77, 0
2, 181320, Note_on_c, 0, 72, 80
2, 181323, Note_on_c, 0, 79, 0
2, 181336, Note_on_c, 0, 67, 0
2, 181338, Control_c, 0, 64, 127
2, 181363, Note_on_c, 0, 72, 0
2, 181380, Note_on_c, 0, 72, 76
2, 181380, Note_on_c, 0, 67, 80
2, 181422, Note_on_c, 0, 67, 0
2, 181439, Note_on_c, 0, 72, 0
2, 181440, Note_on_c, 0, 73, 85
2, 181440, Note_on_c, 0, 67, 68
2, 181441, Control_c, 0, 64, 0
2, 181457, Control_c, 0, 64, 0
2, 181476, Control_c, 0, 64, 127
2, 181481, Control_c, 0, 64, 127
2, 181557, Note_on_c, 0, 73, 0
2, 181559, Control_c, 0, 64, 0
2, 181560, Note_on_c, 0, 74, 85
2, 181565, Note_on_c, 0, 67, 0
2, 181586, Control_c, 0, 64, 127
2, 181592, Control_c, 0, 64, 0
2, 181642, Note_on_c, 0, 74, 0
2, 181656, Control_c, 0, 64, 0
2, 181680, Note_on_c, 0, 76, 80
2, 181703, Control_c, 0, 64, 127
2, 181767, Note_on_c, 0, 76, 0
2, 181767, Control_c, 0, 64, 0
2, 181770, Note_on_c, 0, 77, 76
2, 181785, Note_on_c, 0, 77, 0
2, 181785, Note_on_c, 0, 79, 62
2, 181800, Note_on_c, 0, 72, 72
2, 181807, Note_on_c, 0, 79, 0
2, 181819, Control_c, 0, 64, 127
2, 181851, Note_on_c, 0, 72, 0
2, 181860, Note_on_c, 0, 72, 85
2, 181904, Note_on_c, 0, 72, 0
2, 181920, Note_on_c, 0, 81, 93
2, 181920, Control_c, 0, 64, 0
2, 181941, Control_c, 0, 64, 127
2, 181972, Note_on_c, 0, 81, 0
2, 181980, Note_on_c, 0, 81, 85
2, 182038, Note_on_c, 0, 81, 0
2, 182040, Note_on_c, 0, 84, 89
2, 182042, Control_c, 0, 64, 0
2, 182064, Control_c, 0, 64, 127
2, 182117, Note_on_c, 0, 84, 0
2, 182153, Control_c, 0, 64, 0
2, 182160, Note_on_c, 0, 81, 89
2, 182160, Note_on_c, 0, 67, 76
2, 182180, Control_c, 0, 64, 127
2, 182184, Control_c, 0, 64, 127
2, 182190, Note_on_c, 0, 79, 80
2, 182191, Note_on_c, 0, 81, 0
2, 182214, Note_on_c, 0, 79, 0
2, 182217, Control_c, 0, 64, 0
2, 182220, Note_on_c, 0, 77, 76
2, 182239, Control_c, 0, 64, 127
2, 182249, Note_on_c, 0, 77, 0
2, 182250, Note_on_c, 0, 76, 76
2, 182262, Note_on_c, 0, 76, 0
2, 182273, Control_c, 0, 64, 0
2, 182280, Note_on_c, 0, 74, 80
2, 182291, Note_on_c, 0, 74, 0
2, 182307, Note_on_c, 0, 67, 0
2, 182317, Note_on_c, 0, 76, 62
2, 182324, Note_on_c, 0, 74, 55
2, 182330, Note_on_c, 0, 76, 0
2, 182331, Note_on_c, 0, 72, 52
2, 182333, Note_on_c, 0, 74, 0
2, 182335, Control_c, 0, 64, 0
2, 182340, Note_on_c, 0, 72, 0
2, 182340, Note_on_c, 0, 74, 72
2, 182340, Note_on_c, 0, 67, 72
2, 182353, Control_c, 0, 64, 127
2, 182370, Note_on_c, 0, 74, 0
2, 182370, Note_on_c, 0, 76, 80
2, 182379, Note_on_c, 0, 76, 0
2, 182384, Note_on_c, 0, 67, 0
2, 182400, Note_on_c, 0, 74, 72
2, 182400, Note_on_c, 0, 67, 62
2, 182401, Control_c, 0, 64, 0
2, 182422, Control_c, 0, 64, 127
2, 182424, Control_c, 0, 64, 127
2, 182513, Note_on_c, 0, 74, 0
2, 182515, Control_c, 0, 64, 0
2, 182519, Note_on_c, 0, 67, 0
2, 182520, Note_on_c, 0, 72, 76
2, 182529, Control_c, 0, 64, 0
2, 182538, Control_c, 0, 64, 127
2, 182596, Control_c, 0, 64, 0
2, 182597, Note_on_c, 0, 72, 0
2, 182910, Note_on_c, 0, 88, 76
2, 182940, Note_on_c, 0, 69, 50
2, 182940, Note_on_c, 0, 86, 76
2, 182940, Note_on_c, 0, 72, 47
2, 182941, Note_on_c, 0, 88, 0
2, 182949, Control_c, 0, 64, 127
2, 182970, Note_on_c, 0, 84, 62
2, 182973, Note_on_c, 0, 86, 0
2, 182977, Note_on_c, 0, 72, 0
2, 182979, Note_on_c, 0, 69, 0
2, 183000, Note_on_c, 0, 83, 76
2, 183000, Note_on_c, 0, 71, 57
2, 183000, Note_on_c, 0, 74, 51
2, 183001, Note_on_c, 0, 84, 0
2, 183003, Control_c, 0, 64, 0
2, 183016, Control_c, 0, 64, 127
2, 183030, Note_on_c, 0, 81, 64
2, 183031, Note_on_c, 0, 83, 0
2, 183032, Note_on_c, 0, 71, 0
2, 183035, Note_on_c, 0, 74, 0
2, 183052, Note_on_c, 0, 81, 0
2, 183060, Note_on_c, 0, 80, 72
2, 183060, Note_on_c, 0, 76, 47
2, 183060, Note_on_c, 0, 72, 59
2, 183064, Control_c, 0, 64, 0
2, 183076, Control_c, 0, 64, 127
2, 183090, Note_on_c, 0, 81, 72
2, 183093, Note_on_c, 0, 80, 0
2, 183095, Note_on_c, 0, 76, 0
2, 183097, Note_on_c, 0, 72, 0
2, 183104, Note_on_c, 0, 81, 0
2, 183124, Control_c, 0, 64, 0
2, 183390, Note_on_c, 0, 89, 85
2, 183396, Control_c, 0, 64, 127
2, 183420, Note_on_c, 0, 88, 85
2, 183420, Note_on_c, 0, 68, 48
2, 183420, Note_on_c, 0, 71, 53
2, 183422, Note_on_c, 0, 89, 0
2, 183424, Control_c, 0, 64, 0
2, 183442, Control_c, 0, 64, 127
2, 183449, Note_on_c, 0, 68, 0
2, 183450, Note_on_c, 0, 86, 72
2, 183451, Note_on_c, 0, 71, 0
2, 183453, Note_on_c, 0, 88, 0
2, 183480, Note_on_c, 0, 86, 0
2, 183480, Note_on_c, 0, 84, 80
2, 183480, Note_on_c, 0, 72, 57
2, 183480, Note_on_c, 0, 69, 57
2, 183486, Control_c, 0, 64, 0
2, 183499, Control_c, 0, 64, 127
2, 183510, Note_on_c, 0, 83, 76
2, 183511, Note_on_c, 0, 84, 0
2, 183513, Note_on_c, 0, 69, 0
2, 183514, Note_on_c, 0, 72, 0
2, 183530, Note_on_c, 0, 83, 0
2, 183540, Note_on_c, 0, 81, 72
2, 183540, Note_on_c, 0, 71, 55
2, 183547, Control_c, 0, 64, 0
2, 183563, Control_c, 0, 64, 127
2, 183569, Note_on_c, 0, 81, 0
2, 183570, Note_on_c, 0, 74, 47
2, 183570, Note_on_c, 0, 80, 59
2, 183572, Note_on_c, 0, 71, 0
2, 183590, Note_on_c, 0, 80, 0
2, 183600, Note_on_c, 0, 83, 80
2, 183600, Note_on_c, 0, 72, 45
2, 183600, Note_on_c, 0, 76, 51
2, 183603, Note_on_c, 0, 74, 0
2, 183605, Control_c, 0, 64, 0
2, 183626, Control_c, 0, 64, 127
2, 183628, Note_on_c, 0, 83, 0
2, 183630, Note_on_c, 0, 81, 62
2, 183660, Note_on_c, 0, 81, 0
2, 183660, Note_on_c, 0, 80, 72
2, 183690, Note_on_c, 0, 83, 76
2, 183692, Note_on_c, 0, 80, 0
2, 183719, Note_on_c, 0, 83, 0
2, 183719, Note_on_c, 0, 76, 0
2, 183720, Note_on_c, 0, 84, 76
2, 183721, Note_on_c, 0, 72, 0
2, 183729, Control_c, 0, 64, 0
2, 183732, Note_on_c, 0, 84, 0
2, 183750, Note_on_c, 0, 84, 76
2, 183759, Note_on_c, 0, 84, 0
2, 183780, Note_on_c, 0, 84, 85
2, 183790, Note_on_c, 0, 84, 0
2, 183810, Note_on_c, 0, 84, 89
2, 183819, Note_on_c, 0, 84, 0
2, 183840, Note_on_c, 0, 86, 98
2, 183840, Note_on_c, 0, 66, 76
2, 183869, Note_on_c, 0, 86, 0
2, 183870, Note_on_c, 0, 84, 85
2, 183900, Note_on_c, 0, 83, 93
2, 183902, Note_on_c, 0, 84, 0
2, 183930, Note_on_c, 0, 83, 0
2, 183930, Note_on_c, 0, 86, 98
2, 183945, Control_c, 0, 64, 127
2, 183960, Note_on_c, 0, 87, 89
2, 183962, Note_on_c, 0, 86, 0
2, 183964, Control_c, 0, 64, 0
2, 183967, Note_on_c, 0, 87, 0
2, 183990, Note_on_c, 0, 87, 98
2, 183998, Note_on_c, 0, 87, 0
2, 184020, Note_on_c, 0, 87, 102
2, 184029, Note_on_c, 0, 87, 0
2, 184050, Note_on_c, 0, 87, 85
2, 184058, Note_on_c, 0, 87, 0
2, 184074, Note_on_c, 0, 66, 0
2, 184080, Note_on_c, 0, 67, 72
2, 184080, Note_on_c, 0, 88, 102
2, 184091, Note_on_c, 0, 88, 0
2, 184140, Note_on_c, 0, 76, 93
2, 184147, Note_on_c, 0, 76, 0
2, 184200, Note_on_c, 0, 79, 89
2, 184209, Note_on_c, 0, 79, 0
2, 184221, Note_on_c, 0, 67, 0
2, 184260, Note_on_c, 0, 71, 93
2, 184260, Note_on_c, 0, 67, 68
2, 184268, Note_on_c, 0, 71, 0
2, 184320, Note_on_c, 0, 67, 80
2, 184320, Note_on_c, 0, 72, 93
2, 184335, Note_on_c, 0, 72, 0
2, 184335, Note_on_c, 0, 74, 56
2, 184350, Note_on_c, 0, 72, 60
2, 184352, Note_on_c, 0, 74, 0
2, 184365, Note_on_c, 0, 72, 0
2, 184365, Note_on_c, 0, 71, 72
2, 184378, Note_on_c, 0, 71, 0
2, 184380, Note_on_c, 0, 72, 80
2, 184395, Note_on_c, 0, 74, 72
2, 184396, Note_on_c, 0, 72, 0
2, 184408, Control_c, 0, 64, 127
2, 184410, Note_on_c, 0, 74, 0
2, 184410, Note_on_c, 0, 76, 64
2, 184423, Note_on_c, 0, 76, 0
2, 184425, Note_on_c, 0, 77, 68
2, 184438, Control_c, 0, 64, 0
2, 184440, Note_on_c, 0, 79, 72
2, 184441, Note_on_c, 0, 77, 0
2, 184455, Note_on_c, 0, 81, 64
2, 184456, Note_on_c, 0, 79, 0
2, 184460, Control_c, 0, 64, 127
2, 184468, Note_on_c, 0, 81, 0
2, 184470, Note_on_c, 0, 83, 64
2, 184485, Note_on_c, 0, 84, 64
2, 184487, Note_on_c, 0, 83, 0
2, 184500, Note_on_c, 0, 86, 57
2, 184500, Control_c, 0, 64, 0
2, 184501, Note_on_c, 0, 84, 0
2, 184515, Note_on_c, 0, 88, 80
2, 184516, Note_on_c, 0, 86, 0
2, 184521, Control_c, 0, 64, 127
2, 184530, Note_on_c, 0, 86, 72
2, 184534, Note_on_c, 0, 88, 0
2, 184545, Note_on_c, 0, 84, 64
2, 184546, Note_on_c, 0, 86, 0
2, 184551, Note_on_c, 0, 67, 0
2, 184555, Note_on_c, 0, 67, 0
2, 184559, Note_on_c, 0, 84, 0
2, 184560, Note_on_c, 0, 83, 89
2, 184560, Note_on_c, 0, 67, 72
2, 184563, Control_c, 0, 64, 0
2, 184575, Note_on_c, 0, 86, 76
2, 184576, Note_on_c, 0, 83, 0
2, 184584, Control_c, 0, 64, 127
2, 184590, Note_on_c, 0, 86, 0
2, 184590, Note_on_c, 0, 89, 85
2, 184605, Note_on_c, 0, 88, 76
2, 184608, Note_on_c, 0, 89, 0
2, 184620, Control_c, 0, 64, 0
2, 184620, Note_on_c, 0, 86, 76
2, 184624, Note_on_c, 0, 88, 0
2, 184635, Control_c, 0, 64, 127
2, 184635, Note_on_c, 0, 84, 76
2, 184638, Note_on_c, 0, 86, 0
2, 184650, Note_on_c, 0, 84, 0
2, 184650, Note_on_c, 0, 83, 64
2, 184665, Note_on_c, 0, 81, 72
2, 184666, Note_on_c, 0, 83, 0
2, 184678, Note_on_c, 0, 81, 0
2, 184680, Note_on_c, 0, 79, 60
2, 184680, Control_c, 0, 64, 0
2, 184695, Note_on_c, 0, 78, 64
2, 184696, Note_on_c, 0, 79, 0
2, 184697, Control_c, 0, 64, 127
2, 184707, Note_on_c, 0, 78, 0
2, 184710, Note_on_c, 0, 79, 80
2, 184725, Note_on_c, 0, 81, 76
2, 184726, Note_on_c, 0, 79, 0
2, 184728, Control_c, 0, 64, 0
2, 184740, Note_on_c, 0, 79, 80
2, 184743, Note_on_c, 0, 81, 0
2, 184745, Control_c, 0, 64, 127
2, 184754, Note_on_c, 0, 79, 0
2, 184755, Note_on_c, 0, 77, 64
2, 184769, Note_on_c, 0, 77, 0
2, 184770, Note_on_c, 0, 76, 60
2, 184785, Note_on_c, 0, 74, 57
2, 184787, Note_on_c, 0, 76, 0
2, 184794, Note_on_c, 0, 74, 0
2, 184794, Note_on_c, 0, 67, 0
2, 184800, Note_on_c, 0, 67, 76
2, 184800, Note_on_c, 0, 72, 59
2, 184802, Control_c, 0, 64, 0
2, 184813, Note_on_c, 0, 72, 0
2, 184815, Note_on_c, 0, 74, 76
2, 184823, Control_c, 0, 64, 127
2, 184830, Note_on_c, 0, 74, 0
2, 184830, Note_on_c, 0, 72, 62
2, 184844, Note_on_c, 0, 72, 0
2, 184845, Note_on_c, 0, 71, 62
2, 184859, Note_on_c, 0, 71, 0
2, 184860, Note_on_c, 0, 72, 76
2, 184870, Control_c, 0, 64, 0
2, 184873, Note_on_c, 0, 72, 0
2, 184875, Note_on_c, 0, 74, 76
2, 184886, Control_c, 0, 64, 127
2, 184890, Note_on_c, 0, 74, 0
2, 184890, Note_on_c, 0, 76, 62
2, 184903, Note_on_c, 0, 76, 0
2, 184905, Note_on_c, 0, 77, 80
2, 184919, Control_c, 0, 64, 0
2, 184920, Note_on_c, 0, 79, 76
2, 184922, Note_on_c, 0, 77, 0
2, 184933, Control_c, 0, 64, 127
2, 184935, Note_on_c, 0, 81, 68
2, 184936, Note_on_c, 0, 79, 0
2, 184947, Note_on_c, 0, 81, 0
2, 184950, Note_on_c, 0, 83, 76
2, 184960, Control_c, 0, 64, 0
2, 184965, Note_on_c, 0, 84, 57
2, 184967, Note_on_c, 0, 83, 0
2, 184972, Control_c, 0, 64, 127
2, 184980, Note_on_c, 0, 86, 72
2, 184981, Note_on_c, 0, 84, 0
2, 184995, Note_on_c, 0, 88, 76
2, 184996, Note_on_c, 0, 86, 0
2, 185010, Note_on_c, 0, 86, 60
2, 185012, Note_on_c, 0, 88, 0
2, 185025, Note_on_c, 0, 86, 0
2, 185025, Note_on_c, 0, 84, 38
2, 185030, Note_on_c, 0, 84, 0
2, 185031, Note_on_c, 0, 67, 0
2, 185040, Note_on_c, 0, 67, 85
2, 185040, Note_on_c, 0, 83, 107
2, 185043, Control_c, 0, 64, 0
2, 185053, Note_on_c, 0, 83, 0
2, 185055, Note_on_c, 0, 86, 72
2, 185063, Note_on_c, 0, 86, 0
2, 185066, Control_c, 0, 64, 127
2, 185070, Note_on_c, 0, 89, 76
2, 185085, Note_on_c, 0, 88, 85
2, 185090, Note_on_c, 0, 89, 0
2, 185100, Note_on_c, 0, 86, 72
2, 185103, Note_on_c, 0, 88, 0
2, 185104, Control_c, 0, 64, 0
2, 185115, Note_on_c, 0, 84, 68
2, 185116, Control_c, 0, 64, 127
2, 185119, Note_on_c, 0, 86, 0
2, 185130, Note_on_c, 0, 83, 60
2, 185131, Note_on_c, 0, 84, 0
2, 185141, Note_on_c, 0, 83, 0
2, 185145, Note_on_c, 0, 81, 50
2, 185159, Note_on_c, 0, 81, 0
2, 185160, Note_on_c, 0, 79, 64
2, 185165, Control_c, 0, 64, 0
2, 185175, Note_on_c, 0, 79, 0
2, 185175, Note_on_c, 0, 78, 72
2, 185179, Control_c, 0, 64, 127
2, 185188, Note_on_c, 0, 78, 0
2, 185190, Note_on_c, 0, 79, 76
2, 185203, Note_on_c, 0, 79, 0
2, 185205, Note_on_c, 0, 81, 64
2, 185218, Control_c, 0, 64, 0
2, 185220, Note_on_c, 0, 79, 80
2, 185224, Note_on_c, 0, 81, 0
2, 185231, Control_c, 0, 64, 127
2, 185235, Note_on_c, 0, 79, 0
2, 185235, Note_on_c, 0, 77, 57
2, 185247, Note_on_c, 0, 77, 0
2, 185250, Note_on_c, 0, 76, 56
2, 185265, Note_on_c, 0, 76, 0
2, 185265, Note_on_c, 0, 74, 76
2, 185269, Note_on_c, 0, 67, 0
2, 185272, Note_on_c, 0, 74, 0
2, 185280, Note_on_c, 0, 67, 76
2, 185280, Note_on_c, 0, 76, 93
2, 185288, Control_c, 0, 64, 127
2, 185294, Note_on_c, 0, 76, 0
2, 185295, Note_on_c, 0, 84, 76
2, 185310, Note_on_c, 0, 79, 72
2, 185313, Note_on_c, 0, 84, 0
2, 185324, Note_on_c, 0, 79, 0
2, 185325, Note_on_c, 0, 76, 76
2, 185333, Note_on_c, 0, 76, 0
2, 185338, Note_on_c, 0, 67, 0
2, 185340, Note_on_c, 0, 65, 76
2, 185340, Note_on_c, 0, 74, 76
2, 185341, Control_c, 0, 64, 0
2, 185355, Note_on_c, 0, 81, 62
2, 185358, Note_on_c, 0, 74, 0
2, 185358, Control_c, 0, 64, 127
2, 185370, Note_on_c, 0, 77, 62
2, 185373, Note_on_c, 0, 81, 0
2, 185385, Note_on_c, 0, 74, 76
2, 185387, Note_on_c, 0, 77, 0
2, 185392, Note_on_c, 0, 74, 0
2, 185400, Note_on_c, 0, 65, 0
2, 185400, Note_on_c, 0, 64, 76
2, 185400, Control_c, 0, 64, 0
2, 185400, Note_on_c, 0, 72, 76
2, 185415, Note_on_c, 0, 79, 80
2, 185416, Note_on_c, 0, 72, 0
2, 185420, Control_c, 0, 64, 127
2, 185430, Note_on_c, 0, 79, 0
2, 185430, Note_on_c, 0, 76, 68
2, 185444, Note_on_c, 0, 76, 0
2, 185445, Note_on_c, 0, 72, 64
2, 185451, Note_on_c, 0, 72, 0
2, 185456, Note_on_c, 0, 64, 0
2, 185459, Control_c, 0, 64, 0
2, 185460, Note_on_c, 0, 62, 76
2, 185460, Note_on_c, 0, 71, 76
2, 185472, Note_on_c, 0, 71, 0
2, 185475, Note_on_c, 0, 77, 72
2, 185479, Control_c, 0, 64, 127
2, 185490, Note_on_c, 0, 74, 62
2, 185493, Note_on_c, 0, 77, 0
2, 185503, Note_on_c, 0, 74, 0
2, 185505, Note_on_c, 0, 71, 64
2, 185515, Note_on_c, 0, 71, 0
2, 185517, Note_on_c, 0, 62, 0
2, 185519, Control_c, 0, 64, 0
2, 185520, Note_on_c, 0, 72, 80
2, 185531, Control_c, 0, 64, 127
2, 185554, Note_on_c, 0, 72, 0
2, 185586, Control_c, 0, 64, 0
2, 185760, Note_on_c, 0, 69, 107
2, 185760, Note_on_c, 0, 57, 98
2, 185766, Control_c, 0, 64, 127
2, 185846, Note_on_c, 0, 57, 0
2, 185847, Note_on_c, 0, 69, 0
2, 185850, Note_on_c, 0, 52, 89
2, 185850, Note_on_c, 0, 64, 89
2, 185879, Note_on_c, 0, 64, 0
2, 185880, Note_on_c, 0, 61, 89
2, 185880, Note_on_c, 0, 73, 89
2, 185881, Note_on_c, 0, 52, 0
2, 185881, Control_c, 0, 64, 0
2, 185894, Control_c, 0, 64, 127
2, 185920, Note_on_c, 0, 61, 0
2, 185925, Note_on_c, 0, 57, 85
2, 185925, Note_on_c, 0, 69, 93
2, 185927, Note_on_c, 0, 73, 0
2, 185934, Note_on_c, 0, 69, 0
2, 185936, Note_on_c, 0, 57, 0
2, 185940, Note_on_c, 0, 64, 89
2, 185940, Note_on_c, 0, 76, 102
2, 185942, Control_c, 0, 64, 0
2, 185962, Control_c, 0, 64, 127
2, 185981, Note_on_c, 0, 64, 0
2, 185983, Note_on_c, 0, 76, 0
2, 185985, Note_on_c, 0, 61, 72
2, 185985, Note_on_c, 0, 73, 85
2, 185992, Note_on_c, 0, 73, 0
2, 185992, Note_on_c, 0, 61, 0
2, 186000, Note_on_c, 0, 69, 93
2, 186000, Note_on_c, 0, 81, 107
2, 186007, Control_c, 0, 64, 0
2, 186023, Control_c, 0, 64, 127
2, 186056, Note_on_c, 0, 81, 0
2, 186057, Note_on_c, 0, 69, 0
2, 186064, Control_c, 0, 64, 0
2, 186240, Note_on_c, 0, 74, 113
2, 186240, Note_on_c, 0, 62, 107
2, 186257, Control_c, 0, 64, 127
2, 186330, Note_on_c, 0, 57, 98
2, 186330, Note_on_c, 0, 69, 102
2, 186332, Note_on_c, 0, 62, 0
2, 186332, Note_on_c, 0, 74, 0
2, 186358, Note_on_c, 0, 69, 0
2, 186360, Note_on_c, 0, 65, 93
2, 186360, Note_on_c, 0, 77, 98
2, 186361, Control_c, 0, 64, 0
2, 186362, Note_on_c, 0, 57, 0
2, 186376, Control_c, 0, 64, 127
2, 186405, Note_on_c, 0, 65, 0
2, 186405, Note_on_c, 0, 74, 89
2, 186405, Note_on_c, 0, 62, 93
2, 186408, Note_on_c, 0, 77, 0
2, 186414, Note_on_c, 0, 74, 0
2, 186416, Note_on_c, 0, 62, 0
2, 186420, Note_on_c, 0, 81, 102
2, 186420, Note_on_c, 0, 69, 98
2, 186424, Control_c, 0, 64, 0
2, 186444, Control_c, 0, 64, 127
2, 186459, Note_on_c, 0, 69, 0
2, 186465, Note_on_c, 0, 81, 0
2, 186465, Note_on_c, 0, 65, 93
2, 186465, Note_on_c, 0, 77, 72
2, 186471, Note_on_c, 0, 77, 0
2, 186471, Note_on_c, 0, 65, 0
2, 186480, Note_on_c, 0, 86, 107
2, 186480, Note_on_c, 0, 74, 98
2, 186488, Control_c, 0, 64, 0
2, 186503, Control_c, 0, 64, 127
2, 186532, Note_on_c, 0, 74, 0
2, 186534, Note_on_c, 0, 86, 0
2, 186544, Control_c, 0, 64, 0
2, 186720, Note_on_c, 0, 81, 80
2, 186725, Control_c, 0, 64, 127
2, 186750, Note_on_c, 0, 80, 85
2, 186751, Note_on_c, 0, 81, 0
2, 186763, Control_c, 0, 64, 0
2, 186780, Note_on_c, 0, 80, 0
2, 186780, Note_on_c, 0, 78, 64
2, 186784, Control_c, 0, 64, 127
2, 186804, Control_c, 0, 64, 0
2, 186807, Note_on_c, 0, 78, 0
2, 186810, Note_on_c, 0, 81, 64
2, 186815, Control_c, 0, 64, 127
2, 186840, Note_on_c, 0, 83, 80
2, 186843, Note_on_c, 0, 81, 0
2, 186843, Control_c, 0, 64, 0
2, 186850, Note_on_c, 0, 83, 0
2, 186870, Note_on_c, 0, 83, 85
2, 186879, Note_on_c, 0, 83, 0
2, 186900, Note_on_c, 0, 83, 76
2, 186909, Note_on_c, 0, 83, 0
2, 186930, Note_on_c, 0, 83, 80
2, 186939, Note_on_c, 0, 83, 0
2, 186960, Note_on_c, 0, 84, 89
2, 186990, Note_on_c, 0, 83, 89
2, 186992, Note_on_c, 0, 84, 0
2, 187020, Note_on_c, 0, 81, 80
2, 187023, Note_on_c, 0, 83, 0
2, 187049, Note_on_c, 0, 81, 0
2, 187050, Note_on_c, 0, 84, 76
2, 187080, Note_on_c, 0, 86, 85
2, 187081, Note_on_c, 0, 84, 0
2, 187091, Note_on_c, 0, 86, 0
2, 187110, Note_on_c, 0, 86, 89
2, 187117, Note_on_c, 0, 86, 0
2, 187140, Note_on_c, 0, 86, 76
2, 187147, Note_on_c, 0, 86, 0
2, 187170, Note_on_c, 0, 86, 80
2, 187177, Note_on_c, 0, 86, 0
2, 187200, Note_on_c, 0, 86, 76
2, 187217, Control_c, 0, 64, 127
2, 187230, Note_on_c, 0, 84, 76
2, 187233, Note_on_c, 0, 86, 0
2, 187236, Control_c, 0, 64, 0
2, 187260, Note_on_c, 0, 83, 80
2, 187262, Note_on_c, 0, 84, 0
2, 187275, Control_c, 0, 64, 127
2, 187290, Note_on_c, 0, 83, 0
2, 187290, Note_on_c, 0, 81, 62
2, 187320, Note_on_c, 0, 79, 80
2, 187320, Control_c, 0, 64, 0
2, 187322, Note_on_c, 0, 81, 0
2, 187350, Note_on_c, 0, 77, 68
2, 187351, Note_on_c, 0, 79, 0
2, 187379, Note_on_c, 0, 77, 0
2, 187380, Note_on_c, 0, 76, 68
2, 187389, Control_c, 0, 64, 127
2, 187404, Note_on_c, 0, 76, 0
2, 187410, Note_on_c, 0, 75, 62
2, 187438, Control_c, 0, 64, 0
2, 187439, Note_on_c, 0, 75, 0
2, 187440, Note_on_c, 0, 76, 76
2, 187455, Note_on_c, 0, 83, 76
2, 187456, Control_c, 0, 64, 127
2, 187461, Note_on_c, 0, 76, 0
2, 187470, Note_on_c, 0, 80, 60
2, 187474, Note_on_c, 0, 83, 0
2, 187485, Note_on_c, 0, 76, 64
2, 187489, Note_on_c, 0, 80, 0
2, 187494, Note_on_c, 0, 76, 0
2, 187500, Note_on_c, 0, 71, 76
2, 187500, Note_on_c, 0, 74, 72
2, 187500, Control_c, 0, 64, 0
2, 187515, Note_on_c, 0, 83, 80
2, 187516, Note_on_c, 0, 74, 0
2, 187520, Control_c, 0, 64, 127
2, 187530, Note_on_c, 0, 80, 64
2, 187537, Note_on_c, 0, 83, 0
2, 187545, Note_on_c, 0, 74, 57
2, 187547, Note_on_c, 0, 80, 0
2, 187554, Note_on_c, 0, 74, 0
2, 187558, Note_on_c, 0, 71, 0
2, 187559, Control_c, 0, 64, 0
2, 187560, Note_on_c, 0, 72, 76
2, 187560, Note_on_c, 0, 69, 76
2, 187575, Note_on_c, 0, 81, 72
2, 187576, Note_on_c, 0, 72, 0
2, 187579, Control_c, 0, 64, 127
2, 187590, Note_on_c, 0, 76, 56
2, 187603, Note_on_c, 0, 76, 0
2, 187605, Note_on_c, 0, 72, 56
2, 187614, Note_on_c, 0, 72, 0
2, 187614, Note_on_c, 0, 81, 0
2, 187620, Note_on_c, 0, 71, 85
2, 187620, Note_on_c, 0, 68, 68
2, 187621, Note_on_c, 0, 69, 0
2, 187621, Control_c, 0, 64, 0
2, 187635, Note_on_c, 0, 80, 62
2, 187637, Note_on_c, 0, 71, 0
2, 187640, Control_c, 0, 64, 127
2, 187650, Note_on_c, 0, 76, 62
2, 187651, Note_on_c, 0, 80, 0
2, 187663, Note_on_c, 0, 76, 0
2, 187665, Note_on_c, 0, 71, 76
2, 187672, Note_on_c, 0, 71, 0
2, 187677, Note_on_c, 0, 68, 0
2, 187678, Control_c, 0, 64, 0
2, 187680, Note_on_c, 0, 72, 85
2, 187680, Note_on_c, 0, 69, 76
2, 187680, Note_on_c, 0, 81, 72
2, 187680, Note_on_c, 0, 76, 72
2, 187694, Control_c, 0, 64, 127
2, 187740, Control_c, 0, 64, 0
2, 187745, Note_on_c, 0, 81, 0
2, 187747, Note_on_c, 0, 76, 0
2, 187747, Note_on_c, 0, 69, 0
2, 187748, Note_on_c, 0, 72, 0
2, 187950, Note_on_c, 0, 88, 64
2, 187954, Control_c, 0, 64, 127
2, 187978, Note_on_c, 0, 88, 0
2, 187978, Control_c, 0, 64, 0
2, 187980, Note_on_c, 0, 86, 80
2, 187980, Note_on_c, 0, 69, 51
2, 187980, Note_on_c, 0, 72, 56
2, 187993, Control_c, 0, 64, 127
2, 188010, Note_on_c, 0, 84, 72
2, 188011, Note_on_c, 0, 86, 0
2, 188023, Note_on_c, 0, 69, 0
2, 188025, Note_on_c, 0, 72, 0
2, 188039, Note_on_c, 0, 84, 0
2, 188039, Control_c, 0, 64, 0
2, 188040, Note_on_c, 0, 74, 50
2, 188040, Note_on_c, 0, 83, 76
2, 188040, Note_on_c, 0, 71, 57
2, 188055, Control_c, 0, 64, 127
2, 188067, Note_on_c, 0, 83, 0
2, 188070, Note_on_c, 0, 81, 64
2, 188087, Note_on_c, 0, 71, 0
2, 188088, Note_on_c, 0, 74, 0
2, 188099, Note_on_c, 0, 81, 0
2, 188100, Note_on_c, 0, 80, 62
2, 188100, Note_on_c, 0, 72, 55
2, 188100, Control_c, 0, 64, 0
2, 188100, Note_on_c, 0, 76, 51
2, 188113, Control_c, 0, 64, 127
2, 188130, Note_on_c, 0, 81, 72
2, 188132, Note_on_c, 0, 80, 0
2, 188148, Note_on_c, 0, 76, 0
2, 188149, Note_on_c, 0, 72, 0
2, 188150, Note_on_c, 0, 81, 0
2, 188157, Control_c, 0, 64, 0
2, 188430, Note_on_c, 0, 84, 80
2, 188460, Note_on_c, 0, 84, 0
2, 188460, Note_on_c, 0, 69, 64
2, 188460, Note_on_c, 0, 82, 76
2, 188460, Note_on_c, 0, 65, 76
2, 188471, Control_c, 0, 64, 127
2, 188490, Note_on_c, 0, 81, 72
2, 188492, Note_on_c, 0, 82, 0
2, 188499, Note_on_c, 0, 65, 0
2, 188503, Note_on_c, 0, 69, 0
2, 188519, Control_c, 0, 64, 0
2, 188520, Note_on_c, 0, 81, 0
2, 188520, Note_on_c, 0, 79, 76
2, 188520, Note_on_c, 0, 70, 57
2, 188520, Note_on_c, 0, 67, 55
2, 188532, Control_c, 0, 64, 127
2, 188547, Note_on_c, 0, 79, 0
2, 188550, Note_on_c, 0, 77, 64
2, 188576, Note_on_c, 0, 70, 0
2, 188577, Note_on_c, 0, 67, 0
2, 188580, Note_on_c, 0, 77, 0
2, 188580, Note_on_c, 0, 76, 68
2, 188580, Note_on_c, 0, 69, 51
2, 188580, Note_on_c, 0, 72, 57
2, 188581, Control_c, 0, 64, 0
2, 188597, Control_c, 0, 64, 127
2, 188610, Note_on_c, 0, 69, 0
2, 188610, Note_on_c, 0, 76, 0
2, 188610, Note_on_c, 0, 77, 72
2, 188612, Note_on_c, 0, 72, 0
2, 188616, Note_on_c, 0, 77, 0
2, 188640, Note_on_c, 0, 84, 72
2, 188640, Note_on_c, 0, 62, 72
2, 188644, Control_c, 0, 64, 127
2, 188668, Note_on_c, 0, 84, 0
2, 188669, Note_on_c, 0, 62, 0
2, 188670, Note_on_c, 0, 82, 76
2, 188670, Note_on_c, 0, 70, 55
2, 188698, Note_on_c, 0, 70, 0
2, 188698, Note_on_c, 0, 82, 0
2, 188700, Note_on_c, 0, 81, 76
2, 188700, Note_on_c, 0, 65, 68
2, 188725, Note_on_c, 0, 65, 0
2, 188728, Note_on_c, 0, 81, 0
2, 188730, Note_on_c, 0, 70, 56
2, 188730, Note_on_c, 0, 84, 76
2, 188737, Note_on_c, 0, 84, 0
2, 188749, Note_on_c, 0, 70, 0
2, 188757, Control_c, 0, 64, 0
2, 188760, Note_on_c, 0, 88, 80
2, 188760, Note_on_c, 0, 62, 85
2, 188771, Control_c, 0, 64, 127
2, 188786, Note_on_c, 0, 88, 0
2, 188788, Note_on_c, 0, 62, 0
2, 188790, Note_on_c, 0, 86, 85
2, 188790, Note_on_c, 0, 65, 57
2, 188820, Note_on_c, 0, 65, 0
2, 188820, Note_on_c, 0, 70, 53
2, 188820, Note_on_c, 0, 85, 72
2, 188822, Note_on_c, 0, 86, 0
2, 188848, Note_on_c, 0, 85, 0
2, 188850, Note_on_c, 0, 70, 0
2, 188850, Note_on_c, 0, 88, 89
2, 188850, Note_on_c, 0, 62, 76
2, 188858, Note_on_c, 0, 62, 0
2, 188876, Note_on_c, 0, 88, 0
2, 188876, Control_c, 0, 64, 0
2, 188880, Note_on_c, 0, 89, 80
2, 188895, Control_c, 0, 64, 127
2, 188910, Note_on_c, 0, 80, 72
2, 188911, Note_on_c, 0, 89, 0
2, 188923, Note_on_c, 0, 80, 0
2, 188938, Control_c, 0, 64, 0
2, 188940, Note_on_c, 0, 71, 76
2, 188940, Note_on_c, 0, 62, 64
2, 188940, Note_on_c, 0, 80, 98
2, 188940, Note_on_c, 0, 66, 62
2, 188948, Note_on_c, 0, 80, 0
2, 188970, Note_on_c, 0, 66, 0
2, 188970, Note_on_c, 0, 80, 89
2, 188973, Note_on_c, 0, 62, 0
2, 188974, Note_on_c, 0, 71, 0
2, 188978, Note_on_c, 0, 80, 0
2, 189000, Note_on_c, 0, 84, 85
2, 189008, Control_c, 0, 64, 127
2, 189030, Note_on_c, 0, 75, 72
2, 189032, Note_on_c, 0, 84, 0
2, 189039, Note_on_c, 0, 75, 0
2, 189052, Control_c, 0, 64, 0
2, 189060, Note_on_c, 0, 75, 93
2, 189060, Note_on_c, 0, 66, 68
2, 189060, Note_on_c, 0, 69, 76
2, 189060, Note_on_c, 0, 72, 68
2, 189067, Control_c, 0, 64, 127
2, 189070, Note_on_c, 0, 69, 0
2, 189070, Note_on_c, 0, 75, 0
2, 189071, Note_on_c, 0, 66, 0
2, 189071, Note_on_c, 0, 72, 0
2, 189090, Note_on_c, 0, 75, 72
2, 189098, Note_on_c, 0, 75, 0
2, 189120, Note_on_c, 0, 76, 76
2, 189120, Note_on_c, 0, 64, 72
2, 189120, Note_on_c, 0, 69, 72
2, 189120, Note_on_c, 0, 72, 62
2, 189123, Control_c, 0, 64, 127
2, 189135, Note_on_c, 0, 76, 0
2, 189145, Note_on_c, 0, 72, 0
2, 189174, Note_on_c, 0, 69, 0
2, 189180, Note_on_c, 0, 74, 76
2, 189181, Control_c, 0, 64, 0
2, 189187, Note_on_c, 0, 72, 64
2, 189190, Note_on_c, 0, 74, 0
2, 189195, Note_on_c, 0, 74, 76
2, 189196, Note_on_c, 0, 72, 0
2, 189201, Note_on_c, 0, 72, 57
2, 189205, Note_on_c, 0, 74, 0
2, 189209, Note_on_c, 0, 72, 0
2, 189210, Note_on_c, 0, 71, 62
2, 189219, Note_on_c, 0, 71, 0
2, 189225, Note_on_c, 0, 72, 60
2, 189228, Note_on_c, 0, 64, 0
2, 189234, Note_on_c, 0, 72, 0
2, 189240, Note_on_c, 0, 76, 85
2, 189293, Note_on_c, 0, 76, 0
2, 189300, Note_on_c, 0, 68, 64
2, 189313, Note_on_c, 0, 68, 0
2, 189360, Note_on_c, 0, 69, 76
2, 189365, Control_c, 0, 64, 127
2, 189434, Note_on_c, 0, 69, 0
2, 189477, Control_c, 0, 64, 0
2, 189600, Note_on_c, 0, 77, 85
2, 189613, Note_on_c, 0, 77, 0
2, 189630, Note_on_c, 0, 80, 89
2, 189640, Note_on_c, 0, 80, 0
2, 189660, Note_on_c, 0, 83, 89
2, 189669, Note_on_c, 0, 83, 0
2, 189690, Note_on_c, 0, 86, 93
2, 189697, Note_on_c, 0, 86, 0
2, 189720, Note_on_c, 0, 89, 93
2, 189810, Note_on_c, 0, 89, 0
2, 189810, Note_on_c, 0, 80, 76
2, 189839, Note_on_c, 0, 80, 0
2, 189840, Note_on_c, 0, 81, 85
2, 189902, Note_on_c, 0, 81, 0
2, 190080, Note_on_c, 0, 78, 76
2, 190090, Note_on_c, 0, 78, 0
2, 190110, Note_on_c, 0, 80, 93
2, 190124, Note_on_c, 0, 80, 0
2, 190140, Note_on_c, 0, 83, 93
2, 190150, Note_on_c, 0, 83, 0
2, 190170, Note_on_c, 0, 86, 93
2, 190178, Note_on_c, 0, 86, 0
2, 190200, Note_on_c, 0, 89, 89
2, 190289, Note_on_c, 0, 89, 0
2, 190290, Note_on_c, 0, 80, 72
2, 190318, Note_on_c, 0, 80, 0
2, 190320, Note_on_c, 0, 81, 89
2, 190384, Note_on_c, 0, 81, 0
2, 190560, Note_on_c, 0, 72, 93
2, 190560, Note_on_c, 0, 69, 80
2, 190570, Control_c, 0, 64, 127
2, 190575, Note_on_c, 0, 72, 0
2, 190575, Note_on_c, 0, 81, 72
2, 190590, Note_on_c, 0, 76, 64
2, 190591, Note_on_c, 0, 81, 0
2, 190605, Note_on_c, 0, 72, 72
2, 190606, Note_on_c, 0, 76, 0
2, 190613, Note_on_c, 0, 72, 0
2, 190618, Note_on_c, 0, 69, 0
2, 190618, Control_c, 0, 64, 0
2, 190620, Note_on_c, 0, 62, 85
2, 190620, Note_on_c, 0, 71, 76
2, 190633, Note_on_c, 0, 71, 0
2, 190635, Note_on_c, 0, 77, 72
2, 190637, Control_c, 0, 64, 127
2, 190650, Note_on_c, 0, 74, 68
2, 190653, Note_on_c, 0, 77, 0
2, 190665, Note_on_c, 0, 74, 0
2, 190665, Note_on_c, 0, 71, 76
2, 190673, Note_on_c, 0, 71, 0
2, 190680, Note_on_c, 0, 62, 0
2, 190680, Note_on_c, 0, 69, 80
2, 190680, Note_on_c, 0, 64, 68
2, 190681, Control_c, 0, 64, 0
2, 190695, Note_on_c, 0, 76, 76
2, 190697, Note_on_c, 0, 69, 0
2, 190700, Control_c, 0, 64, 127
2, 190710, Note_on_c, 0, 72, 68
2, 190711, Note_on_c, 0, 76, 0
2, 190725, Note_on_c, 0, 72, 0
2, 190725, Note_on_c, 0, 69, 50
2, 190732, Note_on_c, 0, 69, 0
2, 190740, Note_on_c, 0, 68, 76
2, 190741, Control_c, 0, 64, 0
2, 190755, Note_on_c, 0, 68, 0
2, 190755, Note_on_c, 0, 74, 72
2, 190760, Control_c, 0, 64, 127
2, 190769, Note_on_c, 0, 74, 0
2, 190770, Note_on_c, 0, 71, 64
2, 190783, Note_on_c, 0, 71, 0
2, 190785, Note_on_c, 0, 68, 60
2, 190790, Note_on_c, 0, 64, 0
2, 190794, Note_on_c, 0, 68, 0
2, 190800, Note_on_c, 0, 69, 93
2, 190803, Control_c, 0, 64, 0
2, 190815, Note_on_c, 0, 69, 0
2, 190815, Note_on_c, 0, 64, 72
2, 190819, Control_c, 0, 64, 127
2, 190829, Note_on_c, 0, 64, 0
2, 190830, Note_on_c, 0, 69, 89
2, 190844, Note_on_c, 0, 69, 0
2, 190845, Note_on_c, 0, 72, 76
2, 190859, Control_c, 0, 64, 0
2, 190860, Note_on_c, 0, 72, 0
2, 190860, Note_on_c, 0, 76, 76
2, 190872, Control_c, 0, 64, 127
2, 190874, Note_on_c, 0, 76, 0
2, 190875, Note_on_c, 0, 69, 76
2, 190888, Note_on_c, 0, 69, 0
2, 190890, Note_on_c, 0, 72, 64
2, 190905, Note_on_c, 0, 76, 80
2, 190907, Note_on_c, 0, 72, 0
2, 190919, Note_on_c, 0, 76, 0
2, 190920, Note_on_c, 0, 81, 85
2, 190921, Control_c, 0, 64, 0
2, 190935, Note_on_c, 0, 76, 80
2, 190937, Note_on_c, 0, 81, 0
2, 190937, Control_c, 0, 64, 127
2, 190950, Note_on_c, 0, 76, 0
2, 190950, Note_on_c, 0, 72, 76
2, 190964, Note_on_c, 0, 72, 0
2, 190965, Note_on_c, 0, 69, 76
2, 190974, Note_on_c, 0, 69, 0
2, 190980, Control_c, 0, 64, 0
2, 190980, Note_on_c, 0, 76, 89
2, 190995, Note_on_c, 0, 72, 76
2, 190996, Control_c, 0, 64, 127
2, 190999, Note_on_c, 0, 76, 0
2, 191010, Note_on_c, 0, 69, 72
2, 191012, Note_on_c, 0, 72, 0
2, 191025, Note_on_c, 0, 69, 0
2, 191025, Note_on_c, 0, 64, 62
2, 191037, Note_on_c, 0, 64, 0
2, 191040, Note_on_c, 0, 69, 89
2, 191041, Control_c, 0, 64, 0
2, 191053, Control_c, 0, 64, 127
2, 191055, Note_on_c, 0, 64, 72
2, 191056, Note_on_c, 0, 69, 0
2, 191069, Note_on_c, 0, 64, 0
2, 191070, Note_on_c, 0, 69, 80
2, 191082, Note_on_c, 0, 69, 0
2, 191085, Note_on_c, 0, 73, 72
2, 191096, Note_on_c, 0, 73, 0
2, 191100, Note_on_c, 0, 76, 76
2, 191101, Control_c, 0, 64, 0
2, 191112, Note_on_c, 0, 76, 0
2, 191114, Control_c, 0, 64, 127
2, 191115, Note_on_c, 0, 69, 85
2, 191127, Note_on_c, 0, 69, 0
2, 191130, Note_on_c, 0, 73, 64
2, 191142, Note_on_c, 0, 73, 0
2, 191145, Note_on_c, 0, 76, 76
2, 191156, Note_on_c, 0, 76, 0
2, 191159, Control_c, 0, 64, 0
2, 191160, Note_on_c, 0, 81, 89
2, 191170, Control_c, 0, 64, 127
2, 191175, Note_on_c, 0, 76, 72
2, 191176, Note_on_c, 0, 81, 0
2, 191190, Note_on_c, 0, 76, 0
2, 191190, Note_on_c, 0, 73, 62
2, 191204, Note_on_c, 0, 73, 0
2, 191205, Note_on_c, 0, 69, 89
2, 191213, Note_on_c, 0, 69, 0
2, 191217, Control_c, 0, 64, 0
2, 191220, Note_on_c, 0, 76, 89
2, 191229, Control_c, 0, 64, 127
2, 191235, Note_on_c, 0, 73, 80
2, 191236, Note_on_c, 0, 76, 0
2, 191250, Note_on_c, 0, 69, 93
2, 191251, Note_on_c, 0, 73, 0
2, 191265, Note_on_c, 0, 69, 0
2, 191265, Note_on_c, 0, 64, 64
2, 191274, Note_on_c, 0, 64, 0
2, 191278, Control_c, 0, 64, 0
2, 191280, Note_on_c, 0, 69, 89
2, 191291, Control_c, 0, 64, 127
2, 191295, Note_on_c, 0, 66, 72
2, 191297, Note_on_c, 0, 69, 0
2, 191307, Note_on_c, 0, 66, 0
2, 191310, Note_on_c, 0, 69, 93
2, 191323, Note_on_c, 0, 69, 0
2, 191325, Note_on_c, 0, 74, 93
2, 191332, Note_on_c, 0, 74, 0
2, 191338, Control_c, 0, 64, 0
2, 191340, Note_on_c, 0, 78, 76
2, 191345, Note_on_c, 0, 78, 0
2, 191353, Control_c, 0, 64, 127
2, 191355, Note_on_c, 0, 69, 98
2, 191368, Note_on_c, 0, 69, 0
2, 191370, Note_on_c, 0, 74, 85
2, 191382, Note_on_c, 0, 74, 0
2, 191385, Note_on_c, 0, 78, 72
2, 191394, Control_c, 0, 64, 0
2, 191395, Note_on_c, 0, 78, 0
2, 191400, Note_on_c, 0, 81, 93
2, 191407, Control_c, 0, 64, 127
2, 191415, Note_on_c, 0, 78, 72
2, 191416, Note_on_c, 0, 81, 0
2, 191430, Note_on_c, 0, 78, 0
2, 191430, Note_on_c, 0, 74, 85
2, 191444, Note_on_c, 0, 74, 0
2, 191445, Note_on_c, 0, 69, 76
2, 191456, Control_c, 0, 64, 0
2, 191457, Note_on_c, 0, 69, 0
2, 191460, Note_on_c, 0, 78, 76
2, 191467, Control_c, 0, 64, 127
2, 191475, Note_on_c, 0, 78, 0
2, 191475, Note_on_c, 0, 74, 76
2, 191488, Note_on_c, 0, 74, 0
2, 191490, Note_on_c, 0, 69, 93
2, 191497, Note_on_c, 0, 69, 0
2, 191505, Note_on_c, 0, 66, 93
2, 191512, Note_on_c, 0, 66, 0
2, 191520, Note_on_c, 0, 72, 85
2, 191526, Control_c, 0, 64, 127
2, 191535, Note_on_c, 0, 72, 0
2, 191535, Note_on_c, 0, 69, 62
2, 191550, Note_on_c, 0, 72, 85
2, 191551, Note_on_c, 0, 69, 0
2, 191554, Control_c, 0, 64, 0
2, 191563, Control_c, 0, 64, 127
2, 191565, Note_on_c, 0, 75, 80
2, 191566, Note_on_c, 0, 72, 0
2, 191573, Note_on_c, 0, 75, 0
2, 191580, Note_on_c, 0, 81, 89
2, 191585, Control_c, 0, 64, 0
2, 191595, Note_on_c, 0, 72, 72
2, 191596, Note_on_c, 0, 81, 0
2, 191601, Control_c, 0, 64, 127
2, 191610, Note_on_c, 0, 72, 0
2, 191610, Note_on_c, 0, 75, 53
2, 191625, Note_on_c, 0, 75, 0
2, 191625, Note_on_c, 0, 81, 68
2, 191636, Note_on_c, 0, 81, 0
2, 191640, Note_on_c, 0, 84, 93
2, 191642, Control_c, 0, 64, 0
2, 191654, Control_c, 0, 64, 127
2, 191655, Note_on_c, 0, 84, 0
2, 191655, Note_on_c, 0, 81, 89
2, 191669, Note_on_c, 0, 81, 0
2, 191670, Note_on_c, 0, 75, 76
2, 191685, Note_on_c, 0, 75, 0
2, 191685, Note_on_c, 0, 72, 89
2, 191696, Note_on_c, 0, 72, 0
2, 191700, Note_on_c, 0, 81, 80
2, 191708, Control_c, 0, 64, 0
2, 191715, Note_on_c, 0, 75, 68
2, 191719, Note_on_c, 0, 81, 0
2, 191722, Control_c, 0, 64, 127
2, 191730, Note_on_c, 0, 72, 76
2, 191732, Note_on_c, 0, 75, 0
2, 191745, Note_on_c, 0, 69, 89
2, 191747, Note_on_c, 0, 72, 0
2, 191752, Note_on_c, 0, 69, 0
2, 191760, Note_on_c, 0, 68, 98
2, 191760, Note_on_c, 0, 71, 107
2, 191760, Note_on_c, 0, 76, 93
2, 191770, Control_c, 0, 64, 0
2, 191825, Control_c, 0, 64, 127
2, 191840, Note_on_c, 0, 71, 0
2, 191841, Note_on_c, 0, 68, 0
2, 191844, Note_on_c, 0, 76, 0
2, 191881, Control_c, 0, 64, 0
2, 191940, Note_on_c, 0, 83, 76
2, 191946, Control_c, 0, 64, 127
2, 192000, Control_c, 0, 64, 0
2, 192000, Note_on_c, 0, 84, 56
2, 192003, Note_on_c, 0, 83, 0
2, 192015, Control_c, 0, 64, 127
2, 192060, Note_on_c, 0, 72, 52
2, 192060, Note_on_c, 0, 76, 52
2, 192060, Note_on_c, 0, 88, 89
2, 192063, Note_on_c, 0, 84, 0
2, 192070, Control_c, 0, 64, 0
2, 192082, Control_c, 0, 64, 127
2, 192095, Note_on_c, 0, 72, 0
2, 192096, Note_on_c, 0, 76, 0
2, 192118, Note_on_c, 0, 88, 0
2, 192120, Note_on_c, 0, 72, 59
2, 192120, Note_on_c, 0, 76, 55
2, 192126, Control_c, 0, 64, 0
2, 192137, Control_c, 0, 64, 127
2, 192152, Note_on_c, 0, 76, 0
2, 192153, Note_on_c, 0, 72, 0
2, 192180, Note_on_c, 0, 81, 72
2, 192180, Note_on_c, 0, 72, 60
2, 192180, Note_on_c, 0, 76, 48
2, 192190, Control_c, 0, 64, 0
2, 192204, Control_c, 0, 64, 127
2, 192220, Note_on_c, 0, 76, 0
2, 192223, Note_on_c, 0, 72, 0
2, 192238, Note_on_c, 0, 81, 0
2, 192240, Note_on_c, 0, 80, 85
2, 192249, Control_c, 0, 64, 0
2, 192264, Control_c, 0, 64, 127
2, 192296, Note_on_c, 0, 71, 42
2, 192298, Note_on_c, 0, 76, 30
2, 192300, Note_on_c, 0, 80, 0
2, 192300, Note_on_c, 0, 83, 76
2, 192309, Control_c, 0, 64, 0
2, 192323, Control_c, 0, 64, 127
2, 192328, Note_on_c, 0, 71, 0
2, 192331, Note_on_c, 0, 76, 0
2, 192360, Note_on_c, 0, 76, 36
2, 192360, Note_on_c, 0, 71, 62
2, 192364, Control_c, 0, 64, 0
2, 192374, Control_c, 0, 64, 127
2, 192401, Note_on_c, 0, 83, 0
2, 192402, Note_on_c, 0, 71, 0
2, 192403, Note_on_c, 0, 76, 0
2, 192420, Note_on_c, 0, 83, 93
2, 192428, Control_c, 0, 64, 0
2, 192442, Control_c, 0, 64, 127
2, 192451, Note_on_c, 0, 83, 0
2, 192480, Note_on_c, 0, 84, 76
2, 192488, Control_c, 0, 64, 0
2, 192501, Control_c, 0, 64, 127
2, 192538, Note_on_c, 0, 84, 0
2, 192540, Note_on_c, 0, 72, 60
2, 192540, Note_on_c, 0, 88, 80
2, 192540, Note_on_c, 0, 76, 48
2, 192544, Control_c, 0, 64, 0
2, 192557, Control_c, 0, 64, 127
2, 192571, Note_on_c, 0, 72, 0
2, 192574, Note_on_c, 0, 76, 0
2, 192600, Note_on_c, 0, 76, 49
2, 192600, Note_on_c, 0, 72, 59
2, 192609, Control_c, 0, 64, 0
2, 192615, Note_on_c, 0, 88, 0
2, 192620, Control_c, 0, 64, 127
2, 192642, Note_on_c, 0, 72, 0
2, 192643, Note_on_c, 0, 76, 0
2, 192660, Note_on_c, 0, 72, 64
2, 192660, Note_on_c, 0, 81, 76
2, 192660, Note_on_c, 0, 76, 56
2, 192665, Control_c, 0, 64, 0
2, 192677, Control_c, 0, 64, 127
2, 192704, Note_on_c, 0, 72, 0
2, 192706, Note_on_c, 0, 76, 0
2, 192716, Note_on_c, 0, 81, 0
2, 192720, Note_on_c, 0, 80, 72
2, 192726, Control_c, 0, 64, 0
2, 192742, Control_c, 0, 64, 127
2, 192776, Note_on_c, 0, 80, 0
2, 192780, Note_on_c, 0, 76, 36
2, 192780, Note_on_c, 0, 83, 85
2, 192780, Note_on_c, 0, 71, 57
2, 192788, Control_c, 0, 64, 0
2, 192802, Control_c, 0, 64, 127
2, 192814, Note_on_c, 0, 71, 0
2, 192814, Note_on_c, 0, 76, 0
2, 192837, Note_on_c, 0, 83, 0
2, 192840, Note_on_c, 0, 71, 62
2, 192840, Note_on_c, 0, 76, 44
2, 192848, Control_c, 0, 64, 0
2, 192858, Control_c, 0, 64, 127
2, 192875, Note_on_c, 0, 76, 0
2, 192877, Note_on_c, 0, 71, 0
2, 192900, Note_on_c, 0, 76, 76
2, 192910, Control_c, 0, 64, 0
2, 192924, Control_c, 0, 64, 127
2, 192953, Note_on_c, 0, 76, 0
2, 192960, Note_on_c, 0, 83, 89
2, 192963, Control_c, 0, 64, 0
2, 192976, Control_c, 0, 64, 127
2, 193020, Note_on_c, 0, 76, 60
2, 193020, Note_on_c, 0, 88, 93
2, 193020, Note_on_c, 0, 71, 59
2, 193022, Note_on_c, 0, 83, 0
2, 193022, Control_c, 0, 64, 0
2, 193036, Control_c, 0, 64, 127
2, 193061, Note_on_c, 0, 76, 0
2, 193061, Note_on_c, 0, 71, 0
2, 193080, Note_on_c, 0, 71, 80
2, 193080, Note_on_c, 0, 76, 75
2, 193086, Control_c, 0, 64, 0
2, 193097, Note_on_c, 0, 88, 0
2, 193097, Control_c, 0, 64, 127
2, 193113, Note_on_c, 0, 76, 0
2, 193113, Note_on_c, 0, 71, 0
2, 193140, Note_on_c, 0, 76, 98
2, 193149, Control_c, 0, 64, 0
2, 193163, Control_c, 0, 64, 127
2, 193196, Note_on_c, 0, 76, 0
2, 193200, Note_on_c, 0, 78, 89
2, 193205, Control_c, 0, 64, 0
2, 193217, Control_c, 0, 64, 127
2, 193254, Note_on_c, 0, 78, 0
2, 193260, Note_on_c, 0, 83, 93
2, 193260, Note_on_c, 0, 71, 64
2, 193260, Note_on_c, 0, 75, 62
2, 193261, Control_c, 0, 64, 0
2, 193275, Control_c, 0, 64, 127
2, 193296, Note_on_c, 0, 75, 0
2, 193300, Note_on_c, 0, 71, 0
2, 193320, Note_on_c, 0, 71, 60
2, 193320, Note_on_c, 0, 75, 60
2, 193323, Control_c, 0, 64, 0
2, 193333, Control_c, 0, 64, 127
2, 193342, Note_on_c, 0, 83, 0
2, 193343, Note_on_c, 0, 71, 0
2, 193344, Note_on_c, 0, 75, 0
2, 193380, Note_on_c, 0, 83, 93
2, 193381, Control_c, 0, 64, 0
2, 193398, Control_c, 0, 64, 127
2, 193431, Note_on_c, 0, 83, 0
2, 193440, Note_on_c, 0, 86, 102
2, 193442, Control_c, 0, 64, 0
2, 193456, Control_c, 0, 64, 127
2, 193500, Note_on_c, 0, 89, 102
2, 193500, Note_on_c, 0, 71, 76
2, 193500, Note_on_c, 0, 74, 72
2, 193502, Note_on_c, 0, 86, 0
2, 193502, Control_c, 0, 64, 0
2, 193513, Control_c, 0, 64, 127
2, 193533, Note_on_c, 0, 71, 0
2, 193535, Note_on_c, 0, 74, 0
2, 193560, Note_on_c, 0, 71, 80
2, 193560, Note_on_c, 0, 74, 62
2, 193564, Control_c, 0, 64, 0
2, 193573, Control_c, 0, 64, 127
2, 193576, Note_on_c, 0, 89, 0
2, 193589, Note_on_c, 0, 71, 0
2, 193591, Note_on_c, 0, 74, 0
2, 193620, Note_on_c, 0, 74, 76
2, 193622, Control_c, 0, 64, 0
2, 193640, Control_c, 0, 64, 127
2, 193678, Note_on_c, 0, 74, 0
2, 193680, Note_on_c, 0, 76, 80
2, 193686, Control_c, 0, 64, 127
2, 193770, Note_on_c, 0, 76, 0
2, 193770, Note_on_c, 0, 77, 76
2, 193785, Note_on_c, 0, 79, 72
2, 193788, Note_on_c, 0, 77, 0
2, 193796, Control_c, 0, 64, 0
2, 193800, Note_on_c, 0, 72, 57
2, 193803, Note_on_c, 0, 79, 0
2, 193819, Control_c, 0, 64, 127
2, 193842, Note_on_c, 0, 72, 0
2, 193860, Note_on_c, 0, 72, 76
2, 193914, Note_on_c, 0, 72, 0
2, 193920, Note_on_c, 0, 74, 76
2, 193925, Control_c, 0, 64, 0
2, 193943, Control_c, 0, 64, 127
2, 193972, Note_on_c, 0, 74, 0
2, 193980, Note_on_c, 0, 74, 80
2, 194032, Note_on_c, 0, 74, 0
2, 194040, Note_on_c, 0, 67, 72
2, 194047, Control_c, 0, 64, 0
2, 194065, Control_c, 0, 64, 127
2, 194117, Note_on_c, 0, 67, 0
2, 194160, Note_on_c, 0, 76, 85
2, 194160, Note_on_c, 0, 67, 80
2, 194169, Control_c, 0, 64, 0
2, 194192, Control_c, 0, 64, 127
2, 194250, Note_on_c, 0, 77, 76
2, 194251, Note_on_c, 0, 76, 0
2, 194265, Note_on_c, 0, 77, 0
2, 194265, Note_on_c, 0, 79, 52
2, 194280, Note_on_c, 0, 72, 68
2, 194281, Note_on_c, 0, 79, 0
2, 194293, Control_c, 0, 64, 0
2, 194305, Control_c, 0, 64, 127
2, 194319, Note_on_c, 0, 72, 0
2, 194325, Note_on_c, 0, 67, 0
2, 194340, Note_on_c, 0, 67, 59
2, 194340, Note_on_c, 0, 72, 62
2, 194370, Note_on_c, 0, 67, 0
2, 194373, Note_on_c, 0, 72, 0
2, 194400, Note_on_c, 0, 73, 76
2, 194400, Note_on_c, 0, 67, 62
2, 194405, Control_c, 0, 64, 0
2, 194420, Control_c, 0, 64, 127
2, 194519, Note_on_c, 0, 73, 0
2, 194520, Note_on_c, 0, 74, 62
2, 194521, Note_on_c, 0, 67, 0
2, 194525, Control_c, 0, 64, 0
2, 194547, Control_c, 0, 64, 127
2, 194585, Note_on_c, 0, 74, 0
2, 194602, Control_c, 0, 64, 0
2, 194640, Note_on_c, 0, 76, 76
2, 194645, Control_c, 0, 64, 127
2, 194725, Control_c, 0, 64, 0
2, 194728, Note_on_c, 0, 76, 0
2, 194730, Note_on_c, 0, 77, 76
2, 194743, Note_on_c, 0, 77, 0
2, 194745, Note_on_c, 0, 79, 72
2, 194760, Note_on_c, 0, 72, 72
2, 194764, Note_on_c, 0, 79, 0
2, 194765, Control_c, 0, 64, 127
2, 194812, Note_on_c, 0, 72, 0
2, 194820, Note_on_c, 0, 72, 76
2, 194827, Control_c, 0, 64, 0
2, 194838, Control_c, 0, 64, 127
2, 194880, Note_on_c, 0, 81, 76
2, 194881, Note_on_c, 0, 72, 0
2, 194881, Control_c, 0, 64, 0
2, 194895, Control_c, 0, 64, 127
2, 194934, Note_on_c, 0, 81, 0
2, 194940, Note_on_c, 0, 81, 76
2, 194998, Note_on_c, 0, 81, 0
2, 195000, Note_on_c, 0, 84, 76
2, 195000, Control_c, 0, 64, 0
2, 195016, Control_c, 0, 64, 127
2, 195089, Note_on_c, 0, 84, 0
2, 195120, Note_on_c, 0, 67, 62
2, 195120, Note_on_c, 0, 81, 80
2, 195125, Control_c, 0, 64, 0
2, 195147, Control_c, 0, 64, 127
2, 195150, Note_on_c, 0, 79, 72
2, 195151, Note_on_c, 0, 81, 0
2, 195177, Note_on_c, 0, 79, 0
2, 195180, Note_on_c, 0, 77, 68
2, 195210, Note_on_c, 0, 77, 0
2, 195210, Note_on_c, 0, 76, 72
2, 195213, Control_c, 0, 64, 0
2, 195224, Control_c, 0, 64, 127
2, 195236, Note_on_c, 0, 76, 0
2, 195240, Note_on_c, 0, 74, 76
2, 195245, Control_c, 0, 64, 0
2, 195248, Note_on_c, 0, 74, 0
2, 195277, Note_on_c, 0, 76, 59
2, 195284, Note_on_c, 0, 74, 59
2, 195288, Note_on_c, 0, 76, 0
2, 195288, Control_c, 0, 64, 127
2, 195291, Note_on_c, 0, 72, 55
2, 195294, Note_on_c, 0, 74, 0
2, 195296, Note_on_c, 0, 67, 0
2, 195299, Control_c, 0, 64, 0
2, 195300, Note_on_c, 0, 72, 0
2, 195300, Note_on_c, 0, 74, 72
2, 195300, Note_on_c, 0, 67, 64
2, 195316, Control_c, 0, 64, 127
2, 195330, Note_on_c, 0, 76, 80
2, 195332, Note_on_c, 0, 74, 0
2, 195337, Control_c, 0, 64, 0
2, 195339, Note_on_c, 0, 76, 0
2, 195354, Note_on_c, 0, 67, 0
2, 195360, Note_on_c, 0, 74, 76
2, 195360, Note_on_c, 0, 67, 60
2, 195380, Control_c, 0, 64, 127
2, 195473, Note_on_c, 0, 67, 0
2, 195473, Note_on_c, 0, 74, 0
2, 195480, Note_on_c, 0, 72, 59
2, 195481, Control_c, 0, 64, 0
2, 195504, Control_c, 0, 64, 127
2, 195552, Note_on_c, 0, 72, 0
2, 195558, Control_c, 0, 64, 0
2, 195600, Note_on_c, 0, 76, 57
2, 195609, Control_c, 0, 64, 127
2, 195689, Note_on_c, 0, 76, 0
2, 195690, Note_on_c, 0, 77, 51
2, 195697, Control_c, 0, 64, 0
2, 195705, Note_on_c, 0, 77, 0
2, 195705, Note_on_c, 0, 79, 55
2, 195720, Note_on_c, 0, 72, 55
2, 195728, Control_c, 0, 64, 127
2, 195729, Note_on_c, 0, 79, 0
2, 195765, Note_on_c, 0, 72, 0
2, 195780, Note_on_c, 0, 72, 55
2, 195820, Note_on_c, 0, 72, 0
2, 195840, Note_on_c, 0, 74, 43
2, 195846, Control_c, 0, 64, 0
2, 195862, Control_c, 0, 64, 127
2, 195879, Note_on_c, 0, 74, 0
2, 195900, Note_on_c, 0, 74, 49
2, 195928, Note_on_c, 0, 74, 0
2, 195960, Note_on_c, 0, 67, 52
2, 195967, Control_c, 0, 64, 0
2, 195982, Control_c, 0, 64, 127
2, 196027, Note_on_c, 0, 67, 0
2, 196080, Note_on_c, 0, 76, 56
2, 196080, Note_on_c, 0, 67, 48
2, 196084, Control_c, 0, 64, 0
2, 196106, Control_c, 0, 64, 127
2, 196169, Note_on_c, 0, 76, 0
2, 196170, Note_on_c, 0, 77, 55
2, 196185, Note_on_c, 0, 77, 0
2, 196185, Note_on_c, 0, 79, 57
2, 196190, Control_c, 0, 64, 0
2, 196200, Note_on_c, 0, 72, 51
2, 196203, Note_on_c, 0, 79, 0
2, 196213, Control_c, 0, 64, 127
2, 196238, Note_on_c, 0, 67, 0
2, 196239, Note_on_c, 0, 72, 0
2, 196260, Note_on_c, 0, 72, 60
2, 196260, Note_on_c, 0, 67, 47
2, 196291, Note_on_c, 0, 67, 0
2, 196296, Note_on_c, 0, 72, 0
2, 196320, Note_on_c, 0, 73, 50
2, 196320, Note_on_c, 0, 67, 39
2, 196323, Control_c, 0, 64, 0
2, 196345, Control_c, 0, 64, 127
2, 196440, Note_on_c, 0, 74, 45
2, 196443, Note_on_c, 0, 67, 0
2, 196444, Note_on_c, 0, 73, 0
2, 196445, Control_c, 0, 64, 0
2, 196474, Control_c, 0, 64, 127
2, 196524, Note_on_c, 0, 74, 0
2, 196544, Control_c, 0, 64, 0
2, 196560, Note_on_c, 0, 76, 62
2, 196575, Control_c, 0, 64, 127
2, 196647, Note_on_c, 0, 76, 0
2, 196650, Note_on_c, 0, 77, 60
2, 196656, Control_c, 0, 64, 0
2, 196665, Note_on_c, 0, 77, 0
2, 196665, Note_on_c, 0, 79, 55
2, 196680, Note_on_c, 0, 72, 60
2, 196681, Note_on_c, 0, 79, 0
2, 196691, Control_c, 0, 64, 127
2, 196723, Note_on_c, 0, 72, 0
2, 196740, Note_on_c, 0, 72, 72
2, 196783, Note_on_c, 0, 72, 0
2, 196800, Note_on_c, 0, 81, 64
2, 196803, Control_c, 0, 64, 0
2, 196820, Control_c, 0, 64, 127
2, 196844, Note_on_c, 0, 81, 0
2, 196860, Note_on_c, 0, 81, 76
2, 196892, Note_on_c, 0, 81, 0
2, 196919, Control_c, 0, 64, 0
2, 196920, Note_on_c, 0, 84, 64
2, 196942, Control_c, 0, 64, 127
2, 197005, Note_on_c, 0, 84, 0
2, 197037, Control_c, 0, 64, 0
2, 197040, Note_on_c, 0, 81, 62
2, 197040, Note_on_c, 0, 67, 56
2, 197059, Control_c, 0, 64, 127
2, 197070, Note_on_c, 0, 81, 0
2, 197070, Note_on_c, 0, 79, 56
2, 197098, Note_on_c, 0, 79, 0
2, 197100, Note_on_c, 0, 77, 62
2, 197102, Control_c, 0, 64, 0
2, 197124, Control_c, 0, 64, 127
2, 197128, Note_on_c, 0, 77, 0
2, 197130, Note_on_c, 0, 76, 45
2, 197154, Note_on_c, 0, 76, 0
2, 197160, Note_on_c, 0, 74, 64
2, 197163, Control_c, 0, 64, 0
2, 197170, Note_on_c, 0, 74, 0
2, 197197, Note_on_c, 0, 76, 55
2, 197202, Control_c, 0, 64, 127
2, 197204, Note_on_c, 0, 74, 47
2, 197206, Note_on_c, 0, 76, 0
2, 197211, Note_on_c, 0, 72, 62
2, 197213, Note_on_c, 0, 74, 0
2, 197218, Note_on_c, 0, 67, 0
2, 197220, Note_on_c, 0, 74, 72
2, 197220, Note_on_c, 0, 67, 56
2, 197221, Note_on_c, 0, 72, 0
2, 197223, Control_c, 0, 64, 0
2, 197242, Control_c, 0, 64, 127
2, 197248, Note_on_c, 0, 74, 0
2, 197250, Note_on_c, 0, 76, 64
2, 197260, Note_on_c, 0, 76, 0
2, 197265, Note_on_c, 0, 67, 0
2, 197269, Control_c, 0, 64, 0
2, 197280, Note_on_c, 0, 67, 51
2, 197280, Note_on_c, 0, 74, 62
2, 197297, Control_c, 0, 64, 127
2, 197394, Note_on_c, 0, 74, 0
2, 197396, Note_on_c, 0, 67, 0
2, 197399, Control_c, 0, 64, 0
2, 197400, Note_on_c, 0, 72, 56
2, 197465, Note_on_c, 0, 72, 0
2, 197520, Note_on_c, 0, 84, 89
2, 197520, Note_on_c, 0, 72, 89
2, 197529, Control_c, 0, 64, 127
2, 197550, Note_on_c, 0, 72, 0
2, 197550, Note_on_c, 0, 71, 80
2, 197550, Note_on_c, 0, 83, 80
2, 197553, Note_on_c, 0, 84, 0
2, 197553, Control_c, 0, 64, 0
2, 197577, Note_on_c, 0, 71, 0
2, 197578, Note_on_c, 0, 83, 0
2, 197580, Note_on_c, 0, 81, 76
2, 197580, Note_on_c, 0, 69, 72
2, 197586, Note_on_c, 0, 81, 0
2, 197587, Note_on_c, 0, 69, 0
2, 197610, Note_on_c, 0, 79, 76
2, 197610, Note_on_c, 0, 67, 72
2, 197616, Note_on_c, 0, 67, 0
2, 197616, Note_on_c, 0, 79, 0
2, 197640, Note_on_c, 0, 84, 85
2, 197640, Note_on_c, 0, 72, 80
2, 197647, Control_c, 0, 64, 127
2, 197703, Control_c, 0, 64, 0
2, 197706, Note_on_c, 0, 84, 0
2, 197709, Note_on_c, 0, 72, 0
2, 197760, Note_on_c, 0, 84, 80
2, 197760, Note_on_c, 0, 72, 64
2, 197761, Control_c, 0, 64, 127
2, 197790, Note_on_c, 0, 72, 0
2, 197790, Note_on_c, 0, 83, 64
2, 197790, Note_on_c, 0, 71, 80
2, 197792, Note_on_c, 0, 84, 0
2, 197798, Control_c, 0, 64, 0
2, 197816, Note_on_c, 0, 71, 0
2, 197817, Note_on_c, 0, 83, 0
2, 197820, Note_on_c, 0, 69, 76
2, 197820, Note_on_c, 0, 81, 76
2, 197825, Note_on_c, 0, 81, 0
2, 197828, Note_on_c, 0, 69, 0
2, 197850, Note_on_c, 0, 79, 68
2, 197850, Note_on_c, 0, 67, 72
2, 197858, Note_on_c, 0, 67, 0
2, 197858, Note_on_c, 0, 79, 0
2, 197880, Note_on_c, 0, 72, 72
2, 197880, Note_on_c, 0, 84, 80
2, 197942, Control_c, 0, 64, 127
2, 197960, Note_on_c, 0, 72, 0
2, 197971, Note_on_c, 0, 84, 0
2, 197978, Control_c, 0, 64, 0
2, 198000, Note_on_c, 0, 83, 80
2, 198000, Note_on_c, 0, 71, 80
2, 198011, Control_c, 0, 64, 127
2, 198021, Control_c, 0, 64, 0
2, 198029, Note_on_c, 0, 83, 0
2, 198030, Note_on_c, 0, 71, 0
2, 198030, Note_on_c, 0, 69, 76
2, 198030, Note_on_c, 0, 81, 72
2, 198060, Note_on_c, 0, 68, 64
2, 198060, Note_on_c, 0, 80, 85
2, 198061, Note_on_c, 0, 81, 0
2, 198062, Note_on_c, 0, 69, 0
2, 198089, Note_on_c, 0, 68, 0
2, 198090, Note_on_c, 0, 80, 0
2, 198090, Note_on_c, 0, 71, 80
2, 198090, Note_on_c, 0, 83, 93
2, 198119, Note_on_c, 0, 83, 0
2, 198120, Note_on_c, 0, 84, 85
2, 198120, Note_on_c, 0, 72, 76
2, 198122, Note_on_c, 0, 71, 0
2, 198179, Note_on_c, 0, 72, 0
2, 198179, Note_on_c, 0, 84, 0
2, 198180, Note_on_c, 0, 86, 93
2, 198180, Note_on_c, 0, 74, 80
2, 198238, Note_on_c, 0, 74, 0
2, 198240, Note_on_c, 0, 86, 0
2, 198240, Note_on_c, 0, 71, 76
2, 198240, Note_on_c, 0, 83, 93
2, 198360, Note_on_c, 0, 83, 0
2, 198360, Note_on_c, 0, 79, 62
2, 198360, Note_on_c, 0, 67, 62
2, 198361, Note_on_c, 0, 71, 0
2, 198435, Note_on_c, 0, 79, 0
2, 198436, Note_on_c, 0, 67, 0
2, 198480, Note_on_c, 0, 84, 49
2, 198480, Note_on_c, 0, 72, 46
2, 198487, Control_c, 0, 64, 127
2, 198508, Note_on_c, 0, 72, 0
2, 198508, Note_on_c, 0, 84, 0
2, 198510, Note_on_c, 0, 83, 59
2, 198510, Note_on_c, 0, 71, 56
2, 198522, Control_c, 0, 64, 0
2, 198539, Note_on_c, 0, 71, 0
2, 198540, Note_on_c, 0, 69, 57
2, 198540, Note_on_c, 0, 81, 52
2, 198541, Note_on_c, 0, 83, 0
2, 198549, Note_on_c, 0, 81, 0
2, 198550, Note_on_c, 0, 69, 0
2, 198570, Note_on_c, 0, 79, 56
2, 198570, Note_on_c, 0, 67, 55
2, 198577, Note_on_c, 0, 79, 0
2, 198578, Note_on_c, 0, 67, 0
2, 198600, Note_on_c, 0, 72, 76
2, 198600, Note_on_c, 0, 84, 62
2, 198616, Control_c, 0, 64, 127
2, 198668, Note_on_c, 0, 84, 0
2, 198669, Note_on_c, 0, 72, 0
2, 198669, Control_c, 0, 64, 0
2, 198720, Note_on_c, 0, 84, 64
2, 198720, Note_on_c, 0, 72, 64
2, 198722, Control_c, 0, 64, 127
2, 198749, Control_c, 0, 64, 0
2, 198750, Note_on_c, 0, 71, 62
2, 198750, Note_on_c, 0, 83, 51
2, 198751, Note_on_c, 0, 72, 0
2, 198751, Note_on_c, 0, 84, 0
2, 198778, Note_on_c, 0, 71, 0
2, 198778, Note_on_c, 0, 83, 0
2, 198780, Note_on_c, 0, 69, 47
2, 198780, Note_on_c, 0, 81, 60
2, 198787, Note_on_c, 0, 81, 0
2, 198790, Note_on_c, 0, 69, 0
2, 198810, Note_on_c, 0, 79, 62
2, 198810, Note_on_c, 0, 67, 60
2, 198817, Note_on_c, 0, 67, 0
2, 198819, Note_on_c, 0, 79, 0
2, 198840, Note_on_c, 0, 84, 64
2, 198840, Note_on_c, 0, 72, 64
2, 198846, Control_c, 0, 64, 127
2, 198906, Control_c, 0, 64, 0
2, 198908, Note_on_c, 0, 72, 0
2, 198910, Note_on_c, 0, 84, 0
2, 198960, Note_on_c, 0, 71, 72
2, 198960, Note_on_c, 0, 83, 76
2, 198966, Control_c, 0, 64, 127
2, 198980, Control_c, 0, 64, 0
2, 198989, Note_on_c, 0, 83, 0
2, 198990, Note_on_c, 0, 71, 0
2, 198990, Note_on_c, 0, 69, 68
2, 198990, Note_on_c, 0, 81, 62
2, 199020, Note_on_c, 0, 81, 0
2, 199020, Note_on_c, 0, 80, 62
2, 199020, Note_on_c, 0, 68, 53
2, 199021, Note_on_c, 0, 69, 0
2, 199049, Note_on_c, 0, 68, 0
2, 199050, Note_on_c, 0, 80, 0
2, 199050, Note_on_c, 0, 71, 64
2, 199050, Note_on_c, 0, 83, 80
2, 199078, Note_on_c, 0, 83, 0
2, 199080, Note_on_c, 0, 84, 80
2, 199080, Note_on_c, 0, 72, 76
2, 199081, Note_on_c, 0, 71, 0
2, 199138, Note_on_c, 0, 72, 0
2, 199140, Note_on_c, 0, 86, 85
2, 199140, Note_on_c, 0, 74, 76
2, 199141, Note_on_c, 0, 84, 0
2, 199200, Note_on_c, 0, 67, 76
2, 199200, Note_on_c, 0, 79, 80
2, 199202, Note_on_c, 0, 86, 0
2, 199204, Note_on_c, 0, 74, 0
2, 199272, Note_on_c, 0, 67, 0
2, 199273, Note_on_c, 0, 79, 0
2, 199320, Note_on_c, 0, 86, 93
2, 199320, Note_on_c, 0, 74, 76
2, 199325, Control_c, 0, 64, 127
2, 199347, Note_on_c, 0, 74, 0
2, 199353, Note_on_c, 0, 86, 0
2, 199380, Note_on_c, 0, 86, 89
2, 199380, Note_on_c, 0, 74, 76
2, 199401, Note_on_c, 0, 74, 0
2, 199404, Note_on_c, 0, 86, 0
2, 199437, Control_c, 0, 64, 0
2, 199440, Note_on_c, 0, 79, 76
2, 199440, Note_on_c, 0, 67, 76
2, 199454, Control_c, 0, 64, 127
2, 199465, Note_on_c, 0, 67, 0
2, 199491, Note_on_c, 0, 79, 0
2, 199519, Control_c, 0, 64, 0
2, 199560, Note_on_c, 0, 86, 89
2, 199560, Note_on_c, 0, 74, 76
2, 199573, Control_c, 0, 64, 127
2, 199587, Note_on_c, 0, 74, 0
2, 199588, Note_on_c, 0, 86, 0
2, 199620, Note_on_c, 0, 86, 72
2, 199620, Note_on_c, 0, 74, 68
2, 199628, Note_on_c, 0, 86, 0
2, 199630, Note_on_c, 0, 74, 0
2, 199676, Control_c, 0, 64, 0
2, 199680, Note_on_c, 0, 67, 80
2, 199680, Note_on_c, 0, 79, 85
2, 199694, Control_c, 0, 64, 127
2, 199729, Note_on_c, 0, 67, 0
2, 199730, Note_on_c, 0, 79, 0
2, 199752, Control_c, 0, 64, 0
2, 199920, Note_on_c, 0, 81, 80
2, 199929, Note_on_c, 0, 81, 0
2, 199941, Note_on_c, 0, 79, 64
2, 199953, Note_on_c, 0, 79, 0
2, 199957, Note_on_c, 0, 78, 56
2, 199966, Note_on_c, 0, 78, 0
2, 199969, Note_on_c, 0, 79, 50
2, 199984, Note_on_c, 0, 79, 0
2, 200160, Note_on_c, 0, 76, 68
2, 200186, Control_c, 0, 64, 127
2, 200250, Note_on_c, 0, 76, 0
2, 200250, Note_on_c, 0, 77, 62
2, 200265, Note_on_c, 0, 79, 72
2, 200266, Note_on_c, 0, 77, 0
2, 200269, Control_c, 0, 64, 0
2, 200280, Note_on_c, 0, 72, 72
2, 200284, Note_on_c, 0, 79, 0
2, 200297, Control_c, 0, 64, 127
2, 200319, Note_on_c, 0, 72, 0
2, 200340, Note_on_c, 0, 72, 68
2, 200385, Note_on_c, 0, 72, 0
2, 200400, Note_on_c, 0, 74, 59
2, 200406, Control_c, 0, 64, 0
2, 200422, Control_c, 0, 64, 127
2, 200442, Note_on_c, 0, 74, 0
2, 200460, Note_on_c, 0, 74, 72
2, 200493, Note_on_c, 0, 74, 0
2, 200520, Note_on_c, 0, 67, 72
2, 200521, Control_c, 0, 64, 0
2, 200540, Control_c, 0, 64, 127
2, 200578, Note_on_c, 0, 67, 0
2, 200634, Control_c, 0, 64, 0
2, 200640, Note_on_c, 0, 76, 64
2, 200640, Note_on_c, 0, 67, 64
2, 200669, Control_c, 0, 64, 127
2, 200728, Note_on_c, 0, 76, 0
2, 200730, Note_on_c, 0, 77, 56
2, 200744, Note_on_c, 0, 77, 0
2, 200744, Control_c, 0, 64, 0
2, 200745, Note_on_c, 0, 79, 62
2, 200758, Control_c, 0, 64, 127
2, 200760, Note_on_c, 0, 72, 64
2, 200764, Note_on_c, 0, 79, 0
2, 200784, Note_on_c, 0, 67, 0
2, 200788, Note_on_c, 0, 72, 0
2, 200819, Control_c, 0, 64, 0
2, 200820, Note_on_c, 0, 67, 60
2, 200820, Note_on_c, 0, 72, 68
2, 200833, Control_c, 0, 64, 127
2, 200850, Note_on_c, 0, 67, 0
2, 200855, Note_on_c, 0, 72, 0
2, 200880, Note_on_c, 0, 73, 62
2, 200880, Note_on_c, 0, 67, 59
2, 200882, Control_c, 0, 64, 0
2, 200903, Control_c, 0, 64, 127
2, 200995, Note_on_c, 0, 67, 0
2, 201000, Note_on_c, 0, 74, 64
2, 201000, Control_c, 0, 64, 0
2, 201001, Note_on_c, 0, 73, 0
2, 201022, Control_c, 0, 64, 127
2, 201046, Note_on_c, 0, 74, 0
2, 201115, Control_c, 0, 64, 0
2, 201120, Note_on_c, 0, 76, 76
2, 201143, Control_c, 0, 64, 127
2, 201210, Note_on_c, 0, 77, 76
2, 201213, Note_on_c, 0, 76, 0
2, 201225, Note_on_c, 0, 79, 62
2, 201226, Note_on_c, 0, 77, 0
2, 201227, Control_c, 0, 64, 0
2, 201240, Note_on_c, 0, 72, 80
2, 201245, Note_on_c, 0, 79, 0
2, 201254, Control_c, 0, 64, 127
2, 201280, Note_on_c, 0, 72, 0
2, 201300, Note_on_c, 0, 72, 76
2, 201351, Note_on_c, 0, 72, 0
2, 201360, Note_on_c, 0, 81, 89
2, 201362, Control_c, 0, 64, 0
2, 201377, Control_c, 0, 64, 127
2, 201404, Note_on_c, 0, 81, 0
2, 201420, Note_on_c, 0, 81, 89
2, 201479, Note_on_c, 0, 81, 0
2, 201480, Note_on_c, 0, 84, 80
2, 201484, Control_c, 0, 64, 0
2, 201505, Control_c, 0, 64, 127
2, 201546, Note_on_c, 0, 84, 0
2, 201600, Note_on_c, 0, 81, 64
2, 201600, Note_on_c, 0, 67, 64
2, 201602, Control_c, 0, 64, 0
2, 201626, Control_c, 0, 64, 127
2, 201630, Note_on_c, 0, 79, 72
2, 201633, Note_on_c, 0, 81, 0
2, 201658, Note_on_c, 0, 79, 0
2, 201660, Note_on_c, 0, 77, 64
2, 201664, Control_c, 0, 64, 0
2, 201679, Control_c, 0, 64, 127
2, 201689, Note_on_c, 0, 77, 0
2, 201690, Note_on_c, 0, 76, 62
2, 201708, Note_on_c, 0, 76, 0
2, 201719, Control_c, 0, 64, 0
2, 201720, Note_on_c, 0, 74, 72
2, 201730, Note_on_c, 0, 74, 0
2, 201757, Note_on_c, 0, 76, 60
2, 201764, Note_on_c, 0, 74, 64
2, 201766, Note_on_c, 0, 76, 0
2, 201771, Note_on_c, 0, 72, 49
2, 201773, Note_on_c, 0, 74, 0
2, 201779, Note_on_c, 0, 72, 0
2, 201780, Note_on_c, 0, 74, 68
2, 201784, Control_c, 0, 64, 127
2, 201801, Note_on_c, 0, 67, 0
2, 201810, Note_on_c, 0, 76, 76
2, 201810, Note_on_c, 0, 67, 53
2, 201811, Note_on_c, 0, 74, 0
2, 201813, Control_c, 0, 64, 0
2, 201818, Note_on_c, 0, 67, 0
2, 201818, Note_on_c, 0, 76, 0
2, 201840, Note_on_c, 0, 74, 62
2, 201840, Note_on_c, 0, 67, 56
2, 201903, Control_c, 0, 64, 127
2, 201956, Note_on_c, 0, 67, 0
2, 201956, Control_c, 0, 64, 0
2, 201958, Note_on_c, 0, 74, 0
2, 201960, Note_on_c, 0, 72, 64
2, 201987, Control_c, 0, 64, 127
2, 202027, Note_on_c, 0, 72, 0
2, 202074, Control_c, 0, 64, 0
2, 202080, Note_on_c, 0, 84, 113
2, 202080, Note_on_c, 0, 72, 93
2, 202139, Control_c, 0, 64, 127
2, 202170, Note_on_c, 0, 76, 89
2, 202170, Note_on_c, 0, 88, 98
2, 202173, Note_on_c, 0, 72, 0
2, 202174, Note_on_c, 0, 84, 0
2, 202185, Note_on_c, 0, 88, 0
2, 202185, Note_on_c, 0, 72, 80
2, 202185, Note_on_c, 0, 84, 89
2, 202187, Control_c, 0, 64, 0
2, 202188, Note_on_c, 0, 76, 0
2, 202197, Note_on_c, 0, 84, 0
2, 202200, Note_on_c, 0, 72, 0
2, 202200, Note_on_c, 0, 79, 93
2, 202200, Note_on_c, 0, 67, 93
2, 202247, Control_c, 0, 64, 127
2, 202261, Note_on_c, 0, 67, 0
2, 202280, Note_on_c, 0, 79, 0
2, 202290, Note_on_c, 0, 72, 62
2, 202290, Note_on_c, 0, 84, 93
2, 202303, Note_on_c, 0, 72, 0
2, 202304, Note_on_c, 0, 84, 0
2, 202305, Note_on_c, 0, 67, 64
2, 202305, Note_on_c, 0, 79, 89
2, 202307, Control_c, 0, 64, 0
2, 202316, Note_on_c, 0, 79, 0
2, 202319, Note_on_c, 0, 67, 0
2, 202320, Note_on_c, 0, 64, 89
2, 202320, Note_on_c, 0, 76, 98
2, 202333, Control_c, 0, 64, 127
2, 202349, Note_on_c, 0, 64, 0
2, 202350, Note_on_c, 0, 76, 0
2, 202350, Note_on_c, 0, 79, 89
2, 202350, Note_on_c, 0, 67, 89
2, 202364, Note_on_c, 0, 67, 0
2, 202364, Note_on_c, 0, 79, 0
2, 202365, Note_on_c, 0, 76, 80
2, 202365, Note_on_c, 0, 64, 76
2, 202375, Control_c, 0, 64, 0
2, 202376, Note_on_c, 0, 76, 0
2, 202379, Note_on_c, 0, 64, 0
2, 202380, Note_on_c, 0, 72, 89
2, 202380, Note_on_c, 0, 60, 80
2, 202397, Control_c, 0, 64, 127
2, 202410, Note_on_c, 0, 60, 0
2, 202410, Note_on_c, 0, 64, 93
2, 202410, Note_on_c, 0, 76, 89
2, 202411, Note_on_c, 0, 72, 0
2, 202424, Note_on_c, 0, 76, 0
2, 202424, Note_on_c, 0, 64, 0
2, 202425, Note_on_c, 0, 72, 76
2, 202425, Note_on_c, 0, 60, 64
2, 202432, Control_c, 0, 64, 0
2, 202435, Note_on_c, 0, 72, 0
2, 202436, Note_on_c, 0, 60, 0
2, 202440, Note_on_c, 0, 67, 89
2, 202440, Note_on_c, 0, 55, 93
2, 202450, Control_c, 0, 64, 127
2, 202506, Note_on_c, 0, 55, 0
2, 202506, Control_c, 0, 64, 0
2, 202507, Note_on_c, 0, 67, 0
2, 202680, Note_on_c, 0, 84, 85
2, 202692, Control_c, 0, 64, 127
2, 202800, Note_on_c, 0, 67, 89
2, 202806, Control_c, 0, 64, 0
2, 202815, Control_c, 0, 64, 127
2, 202818, Note_on_c, 0, 83, 80
2, 202820, Note_on_c, 0, 84, 0
2, 202823, Control_c, 0, 64, 127
2, 202839, Note_on_c, 0, 88, 72
2, 202841, Note_on_c, 0, 83, 0
2, 202861, Note_on_c, 0, 88, 0
2, 202861, Note_on_c, 0, 86, 80
2, 202864, Control_c, 0, 64, 0
2, 202881, Note_on_c, 0, 84, 56
2, 202883, Note_on_c, 0, 86, 0
2, 202901, Note_on_c, 0, 83, 72
2, 202905, Note_on_c, 0, 84, 0
2, 202921, Note_on_c, 0, 83, 0
2, 202921, Note_on_c, 0, 81, 62
2, 202941, Note_on_c, 0, 81, 0
2, 202941, Note_on_c, 0, 79, 80
2, 202946, Control_c, 0, 64, 127
2, 202962, Note_on_c, 0, 79, 0
2, 202962, Note_on_c, 0, 78, 62
2, 202981, Note_on_c, 0, 78, 0
2, 202982, Note_on_c, 0, 79, 76
2, 202995, Control_c, 0, 64, 0
2, 203001, Note_on_c, 0, 81, 72
2, 203002, Note_on_c, 0, 79, 0
2, 203010, Note_on_c, 0, 69, 80
2, 203015, Control_c, 0, 64, 127
2, 203018, Note_on_c, 0, 67, 0
2, 203021, Note_on_c, 0, 81, 0
2, 203021, Note_on_c, 0, 77, 64
2, 203025, Note_on_c, 0, 71, 68
2, 203026, Note_on_c, 0, 69, 0
2, 203037, Note_on_c, 0, 71, 0
2, 203040, Note_on_c, 0, 77, 0
2, 203040, Note_on_c, 0, 72, 72
2, 203043, Note_on_c, 0, 76, 62
2, 203043, Control_c, 0, 64, 0
2, 203046, Control_c, 0, 64, 0
2, 203055, Control_c, 0, 64, 127
2, 203064, Control_c, 0, 64, 127
2, 203067, Note_on_c, 0, 76, 0
2, 203075, Control_c, 0, 64, 0
2, 203083, Note_on_c, 0, 76, 85
2, 203092, Note_on_c, 0, 76, 0
2, 203102, Note_on_c, 0, 77, 72
2, 203103, Note_on_c, 0, 72, 0
2, 203105, Control_c, 0, 64, 0
2, 203112, Note_on_c, 0, 77, 0
2, 203112, Note_on_c, 0, 76, 60
2, 203122, Note_on_c, 0, 76, 0
2, 203122, Note_on_c, 0, 77, 72
2, 203133, Note_on_c, 0, 77, 0
2, 203133, Note_on_c, 0, 76, 62
2, 203142, Note_on_c, 0, 76, 0
2, 203142, Note_on_c, 0, 75, 52
2, 203151, Note_on_c, 0, 75, 0
2, 203152, Note_on_c, 0, 76, 62
2, 203161, Note_on_c, 0, 76, 0
2, 203162, Note_on_c, 0, 81, 80
2, 203188, Control_c, 0, 64, 127
2, 203280, Note_on_c, 0, 64, 93
2, 203303, Note_on_c, 0, 80, 85
2, 203304, Note_on_c, 0, 81, 0
2, 203311, Control_c, 0, 64, 127
2, 203323, Note_on_c, 0, 80, 0
2, 203323, Note_on_c, 0, 84, 72
2, 203327, Control_c, 0, 64, 0
2, 203343, Note_on_c, 0, 83, 80
2, 203344, Note_on_c, 0, 84, 0
2, 203363, Note_on_c, 0, 81, 68
2, 203366, Note_on_c, 0, 83, 0
2, 203382, Note_on_c, 0, 79, 72
2, 203385, Note_on_c, 0, 81, 0
2, 203402, Note_on_c, 0, 79, 0
2, 203402, Note_on_c, 0, 77, 72
2, 203420, Note_on_c, 0, 76, 62
2, 203421, Note_on_c, 0, 77, 0
2, 203432, Control_c, 0, 64, 127
2, 203441, Note_on_c, 0, 75, 68
2, 203442, Note_on_c, 0, 76, 0
2, 203459, Note_on_c, 0, 75, 0
2, 203463, Note_on_c, 0, 76, 76
2, 203477, Control_c, 0, 64, 0
2, 203480, Note_on_c, 0, 77, 76
2, 203482, Note_on_c, 0, 76, 0
2, 203490, Note_on_c, 0, 66, 76
2, 203494, Control_c, 0, 64, 127
2, 203500, Note_on_c, 0, 77, 0
2, 203500, Note_on_c, 0, 74, 62
2, 203503, Note_on_c, 0, 66, 0
2, 203504, Note_on_c, 0, 64, 0
2, 203505, Note_on_c, 0, 68, 64
2, 203515, Note_on_c, 0, 68, 0
2, 203518, Note_on_c, 0, 74, 0
2, 203520, Control_c, 0, 64, 0
2, 203520, Note_on_c, 0, 72, 72
2, 203520, Control_c, 0, 64, 0
2, 203520, Note_on_c, 0, 69, 89
2, 203531, Control_c, 0, 64, 127
2, 203542, Note_on_c, 0, 72, 0
2, 203547, Control_c, 0, 64, 127
2, 203550, Control_c, 0, 64, 0
2, 203559, Note_on_c, 0, 72, 85
2, 203569, Note_on_c, 0, 72, 0
2, 203578, Note_on_c, 0, 74, 64
2, 203586, Note_on_c, 0, 69, 0
2, 203587, Note_on_c, 0, 74, 0
2, 203588, Note_on_c, 0, 72, 76
2, 203590, Control_c, 0, 64, 127
2, 203592, Control_c, 0, 64, 0
2, 203598, Note_on_c, 0, 72, 0
2, 203598, Note_on_c, 0, 74, 68
2, 203609, Note_on_c, 0, 72, 68
2, 203610, Note_on_c, 0, 74, 0
2, 203617, Note_on_c, 0, 72, 0
2, 203618, Note_on_c, 0, 71, 64
2, 203629, Note_on_c, 0, 72, 76
2, 203630, Note_on_c, 0, 71, 0
2, 203635, Control_c, 0, 64, 0
2, 203639, Note_on_c, 0, 72, 0
2, 203642, Note_on_c, 0, 77, 76
2, 203656, Control_c, 0, 64, 127
2, 203760, Note_on_c, 0, 60, 89
2, 203767, Control_c, 0, 64, 0
2, 203780, Note_on_c, 0, 77, 0
2, 203780, Note_on_c, 0, 76, 89
2, 203781, Control_c, 0, 64, 127
2, 203785, Control_c, 0, 64, 127
2, 203800, Note_on_c, 0, 81, 76
2, 203802, Note_on_c, 0, 76, 0
2, 203822, Note_on_c, 0, 81, 0
2, 203822, Note_on_c, 0, 79, 89
2, 203826, Control_c, 0, 64, 0
2, 203842, Note_on_c, 0, 77, 89
2, 203845, Note_on_c, 0, 79, 0
2, 203862, Note_on_c, 0, 76, 85
2, 203864, Note_on_c, 0, 77, 0
2, 203868, Control_c, 0, 64, 127
2, 203881, Note_on_c, 0, 76, 0
2, 203882, Note_on_c, 0, 74, 80
2, 203890, Control_c, 0, 64, 0
2, 203899, Note_on_c, 0, 74, 0
2, 203901, Note_on_c, 0, 72, 76
2, 203906, Control_c, 0, 64, 127
2, 203921, Note_on_c, 0, 71, 80
2, 203922, Note_on_c, 0, 72, 0
2, 203940, Note_on_c, 0, 71, 0
2, 203941, Note_on_c, 0, 72, 76
2, 203942, Control_c, 0, 64, 0
2, 203957, Control_c, 0, 64, 127
2, 203958, Note_on_c, 0, 72, 0
2, 203960, Note_on_c, 0, 74, 56
2, 203970, Note_on_c, 0, 62, 93
2, 203980, Note_on_c, 0, 70, 60
2, 203981, Note_on_c, 0, 74, 0
2, 203981, Note_on_c, 0, 60, 0
2, 203982, Note_on_c, 0, 62, 0
2, 203985, Note_on_c, 0, 64, 76
2, 203994, Control_c, 0, 64, 0
2, 203997, Note_on_c, 0, 64, 0
2, 203998, Note_on_c, 0, 70, 0
2, 204000, Note_on_c, 0, 69, 89
2, 204000, Note_on_c, 0, 65, 85
2, 204013, Control_c, 0, 64, 127
2, 204024, Control_c, 0, 64, 127
2, 204056, Note_on_c, 0, 69, 0
2, 204063, Control_c, 0, 64, 0
2, 204066, Note_on_c, 0, 65, 0
2, 204070, Control_c, 0, 64, 0
2, 204088, Control_c, 0, 64, 127
2, 204098, Note_on_c, 0, 73, 89
2, 204108, Note_on_c, 0, 73, 0
2, 204120, Control_c, 0, 64, 0
2, 204125, Note_on_c, 0, 76, 76
2, 204135, Control_c, 0, 64, 127
2, 204136, Note_on_c, 0, 76, 0
2, 204137, Note_on_c, 0, 74, 76
2, 204151, Note_on_c, 0, 74, 0
2, 204151, Note_on_c, 0, 73, 68
2, 204160, Note_on_c, 0, 73, 0
2, 204164, Note_on_c, 0, 74, 72
2, 204171, Note_on_c, 0, 74, 0
2, 204179, Control_c, 0, 64, 0
2, 204181, Note_on_c, 0, 79, 80
2, 204194, Note_on_c, 0, 79, 0
2, 204195, Note_on_c, 0, 78, 72
2, 204196, Control_c, 0, 64, 127
2, 204209, Note_on_c, 0, 76, 76
2, 204210, Note_on_c, 0, 78, 0
2, 204223, Note_on_c, 0, 76, 0
2, 204224, Note_on_c, 0, 79, 76
2, 204232, Note_on_c, 0, 79, 0
2, 204240, Control_c, 0, 64, 0
2, 204242, Note_on_c, 0, 80, 93
2, 204262, Control_c, 0, 64, 127
2, 204269, Note_on_c, 0, 80, 0
2, 204270, Note_on_c, 0, 81, 76
2, 204300, Note_on_c, 0, 79, 85
2, 204302, Note_on_c, 0, 81, 0
2, 204306, Control_c, 0, 64, 0
2, 204328, Control_c, 0, 64, 127
2, 204330, Note_on_c, 0, 79, 0
2, 204330, Note_on_c, 0, 77, 72
2, 204360, Note_on_c, 0, 77, 0
2, 204360, Note_on_c, 0, 76, 76
2, 204364, Control_c, 0, 64, 0
2, 204383, Control_c, 0, 64, 127
2, 204390, Note_on_c, 0, 76, 0
2, 204390, Note_on_c, 0, 74, 72
2, 204420, Note_on_c, 0, 62, 80
2, 204420, Note_on_c, 0, 77, 72
2, 204421, Note_on_c, 0, 74, 0
2, 204425, Control_c, 0, 64, 0
2, 204435, Control_c, 0, 64, 127
2, 204448, Control_c, 0, 64, 127
2, 204449, Note_on_c, 0, 77, 0
2, 204449, Note_on_c, 0, 62, 0
2, 204450, Note_on_c, 0, 65, 80
2, 204450, Note_on_c, 0, 69, 72
2, 204480, Note_on_c, 0, 69, 0
2, 204480, Note_on_c, 0, 72, 76
2, 204480, Note_on_c, 0, 64, 89
2, 204483, Note_on_c, 0, 65, 0
2, 204485, Control_c, 0, 64, 0
2, 204485, Control_c, 0, 64, 0
2, 204505, Control_c, 0, 64, 127
2, 204508, Control_c, 0, 64, 127
2, 204565, Note_on_c, 0, 64, 0
2, 204570, Note_on_c, 0, 74, 62
2, 204570, Note_on_c, 0, 65, 76
2, 204571, Note_on_c, 0, 72, 0
2, 204578, Control_c, 0, 64, 0
2, 204585, Note_on_c, 0, 72, 72
2, 204585, Note_on_c, 0, 64, 68
2, 204586, Control_c, 0, 64, 0
2, 204587, Note_on_c, 0, 65, 0
2, 204587, Note_on_c, 0, 74, 0
2, 204599, Note_on_c, 0, 64, 0
2, 204600, Note_on_c, 0, 71, 64
2, 204600, Note_on_c, 0, 62, 68
2, 204603, Note_on_c, 0, 72, 0
2, 204618, Control_c, 0, 64, 127
2, 204661, Note_on_c, 0, 71, 0
2, 204670, Note_on_c, 0, 62, 0
2, 204673, Control_c, 0, 64, 0
2, 204960, Note_on_c, 0, 72, 89
2, 204967, Control_c, 0, 64, 127
2, 204975, Note_on_c, 0, 72, 0
2, 204975, Note_on_c, 0, 74, 85
2, 204988, Note_on_c, 0, 74, 0
2, 204990, Note_on_c, 0, 72, 89
2, 205004, Control_c, 0, 64, 0
2, 205005, Note_on_c, 0, 72, 0
2, 205005, Note_on_c, 0, 71, 80
2, 205019, Note_on_c, 0, 71, 0
2, 205020, Note_on_c, 0, 72, 89
2, 205030, Control_c, 0, 64, 127
2, 205032, Control_c, 0, 64, 0
2, 205035, Note_on_c, 0, 74, 85
2, 205036, Control_c, 0, 64, 127
2, 205038, Note_on_c, 0, 72, 0
2, 205050, Note_on_c, 0, 76, 89
2, 205051, Note_on_c, 0, 74, 0
2, 205059, Note_on_c, 0, 76, 0
2, 205065, Note_on_c, 0, 77, 76
2, 205073, Note_on_c, 0, 77, 0
2, 205079, Control_c, 0, 64, 0
2, 205080, Note_on_c, 0, 81, 76
2, 205095, Note_on_c, 0, 79, 93
2, 205097, Note_on_c, 0, 81, 0
2, 205108, Note_on_c, 0, 79, 0
2, 205110, Note_on_c, 0, 78, 85
2, 205113, Control_c, 0, 64, 127
2, 205124, Note_on_c, 0, 78, 0
2, 205125, Note_on_c, 0, 79, 89
2, 205139, Control_c, 0, 64, 0
2, 205140, Note_on_c, 0, 77, 89
2, 205141, Note_on_c, 0, 79, 0
2, 205153, Note_on_c, 0, 77, 0
2, 205155, Note_on_c, 0, 76, 80
2, 205157, Control_c, 0, 64, 127
2, 205170, Note_on_c, 0, 76, 0
2, 205170, Note_on_c, 0, 74, 80
2, 205183, Note_on_c, 0, 74, 0
2, 205185, Note_on_c, 0, 72, 62
2, 205198, Note_on_c, 0, 72, 0
2, 205200, Note_on_c, 0, 77, 93
2, 205201, Control_c, 0, 64, 0
2, 205221, Control_c, 0, 64, 127
2, 205285, Note_on_c, 0, 77, 0
2, 205290, Note_on_c, 0, 74, 64
2, 205317, Note_on_c, 0, 74, 0
2, 205320, Control_c, 0, 64, 0
2, 205320, Note_on_c, 0, 71, 76
2, 205338, Control_c, 0, 64, 127
2, 205382, Note_on_c, 0, 71, 0
2, 205393, Control_c, 0, 64, 0
2, 205440, Note_on_c, 0, 72, 89
2, 205446, Control_c, 0, 64, 127
2, 205455, Note_on_c, 0, 74, 62
2, 205456, Note_on_c, 0, 72, 0
2, 205462, Control_c, 0, 64, 0
2, 205470, Note_on_c, 0, 74, 0
2, 205470, Note_on_c, 0, 72, 72
2, 205484, Note_on_c, 0, 72, 0
2, 205485, Note_on_c, 0, 71, 72
2, 205499, Note_on_c, 0, 71, 0
2, 205500, Note_on_c, 0, 72, 85
2, 205515, Note_on_c, 0, 74, 72
2, 205517, Note_on_c, 0, 72, 0
2, 205517, Control_c, 0, 64, 127
2, 205530, Note_on_c, 0, 76, 76
2, 205531, Note_on_c, 0, 74, 0
2, 205538, Note_on_c, 0, 76, 0
2, 205545, Note_on_c, 0, 77, 85
2, 205557, Note_on_c, 0, 77, 0
2, 205560, Note_on_c, 0, 81, 85
2, 205561, Control_c, 0, 64, 0
2, 205575, Note_on_c, 0, 79, 72
2, 205578, Note_on_c, 0, 81, 0
2, 205588, Control_c, 0, 64, 127
2, 205590, Note_on_c, 0, 78, 62
2, 205592, Note_on_c, 0, 79, 0
2, 205605, Note_on_c, 0, 79, 76
2, 205606, Note_on_c, 0, 78, 0
2, 205619, Note_on_c, 0, 79, 0
2, 205620, Note_on_c, 0, 77, 85
2, 205624, Control_c, 0, 64, 0
2, 205635, Note_on_c, 0, 76, 72
2, 205636, Note_on_c, 0, 77, 0
2, 205643, Control_c, 0, 64, 127
2, 205647, Note_on_c, 0, 76, 0
2, 205650, Note_on_c, 0, 74, 76
2, 205665, Note_on_c, 0, 74, 0
2, 205665, Note_on_c, 0, 72, 80
2, 205676, Note_on_c, 0, 72, 0
2, 205680, Note_on_c, 0, 69, 80
2, 205685, Control_c, 0, 64, 0
2, 205695, Note_on_c, 0, 71, 76
2, 205696, Note_on_c, 0, 69, 0
2, 205707, Note_on_c, 0, 71, 0
2, 205710, Note_on_c, 0, 72, 76
2, 205712, Control_c, 0, 64, 127
2, 205725, Note_on_c, 0, 74, 72
2, 205726, Note_on_c, 0, 72, 0
2, 205740, Note_on_c, 0, 76, 85
2, 205743, Note_on_c, 0, 74, 0
2, 205747, Control_c, 0, 64, 0
2, 205755, Note_on_c, 0, 76, 0
2, 205755, Note_on_c, 0, 77, 76
2, 205768, Control_c, 0, 64, 127
2, 205769, Note_on_c, 0, 77, 0
2, 205770, Note_on_c, 0, 79, 76
2, 205779, Note_on_c, 0, 79, 0
2, 205785, Note_on_c, 0, 81, 89
2, 205795, Note_on_c, 0, 81, 0
2, 205800, Note_on_c, 0, 79, 75
2, 205812, Control_c, 0, 64, 0
2, 205815, Note_on_c, 0, 77, 76
2, 205819, Note_on_c, 0, 79, 0
2, 205830, Note_on_c, 0, 76, 76
2, 205833, Note_on_c, 0, 77, 0
2, 205838, Control_c, 0, 64, 127
2, 205845, Note_on_c, 0, 74, 89
2, 205846, Note_on_c, 0, 76, 0
2, 205854, Note_on_c, 0, 74, 0
2, 205860, Note_on_c, 0, 72, 85
2, 205867, Control_c, 0, 64, 0
2, 205875, Note_on_c, 0, 71, 72
2, 205876, Note_on_c, 0, 72, 0
2, 205884, Control_c, 0, 64, 127
2, 205890, Note_on_c, 0, 71, 0
2, 205890, Note_on_c, 0, 69, 80
2, 205899, Note_on_c, 0, 69, 0
2, 205905, Note_on_c, 0, 67, 80
2, 205917, Note_on_c, 0, 67, 0
2, 205920, Note_on_c, 0, 65, 76
2, 205927, Control_c, 0, 64, 0
2, 205934, Note_on_c, 0, 65, 0
2, 205935, Note_on_c, 0, 67, 76
2, 205950, Note_on_c, 0, 69, 80
2, 205951, Note_on_c, 0, 67, 0
2, 205956, Control_c, 0, 64, 127
2, 205961, Note_on_c, 0, 69, 0
2, 205965, Note_on_c, 0, 71, 80
2, 205974, Note_on_c, 0, 71, 0
2, 205980, Note_on_c, 0, 72, 59
2, 205994, Note_on_c, 0, 72, 0
2, 205994, Control_c, 0, 64, 0
2, 205995, Note_on_c, 0, 74, 62
2, 206008, Note_on_c, 0, 74, 0
2, 206008, Control_c, 0, 64, 127
2, 206010, Note_on_c, 0, 76, 62
2, 206023, Note_on_c, 0, 76, 0
2, 206025, Note_on_c, 0, 77, 68
2, 206038, Note_on_c, 0, 77, 0
2, 206040, Note_on_c, 0, 75, 68
2, 206048, Control_c, 0, 64, 0
2, 206063, Note_on_c, 0, 75, 0
2, 206070, Note_on_c, 0, 76, 72
2, 206088, Note_on_c, 0, 76, 0
2, 206100, Note_on_c, 0, 76, 85
2, 206110, Control_c, 0, 64, 127
2, 206153, Note_on_c, 0, 76, 0
2, 206160, Note_on_c, 0, 74, 76
2, 206160, Note_on_c, 0, 72, 68
2, 206165, Control_c, 0, 64, 0
2, 206168, Note_on_c, 0, 74, 0
2, 206171, Note_on_c, 0, 72, 0
2, 206190, Note_on_c, 0, 73, 56
2, 206190, Note_on_c, 0, 72, 76
2, 206199, Note_on_c, 0, 73, 0
2, 206200, Note_on_c, 0, 72, 0
2, 206220, Note_on_c, 0, 74, 76
2, 206220, Note_on_c, 0, 72, 76
2, 206227, Note_on_c, 0, 74, 0
2, 206230, Note_on_c, 0, 72, 0
2, 206250, Note_on_c, 0, 76, 76
2, 206250, Note_on_c, 0, 72, 76
2, 206260, Note_on_c, 0, 72, 0
2, 206260, Note_on_c, 0, 76, 0
2, 206280, Note_on_c, 0, 77, 72
2, 206280, Note_on_c, 0, 72, 72
2, 206288, Note_on_c, 0, 77, 0
2, 206289, Note_on_c, 0, 72, 0
2, 206310, Note_on_c, 0, 76, 64
2, 206310, Note_on_c, 0, 72, 62
2, 206319, Note_on_c, 0, 72, 0
2, 206319, Note_on_c, 0, 76, 0
2, 206340, Note_on_c, 0, 77, 64
2, 206340, Note_on_c, 0, 72, 62
2, 206349, Note_on_c, 0, 72, 0
2, 206349, Note_on_c, 0, 77, 0
2, 206370, Note_on_c, 0, 79, 62
2, 206370, Note_on_c, 0, 72, 60
2, 206378, Note_on_c, 0, 72, 0
2, 206378, Note_on_c, 0, 79, 0
2, 206400, Note_on_c, 0, 81, 62
2, 206400, Note_on_c, 0, 72, 60
2, 206409, Note_on_c, 0, 81, 0
2, 206412, Note_on_c, 0, 72, 0
2, 206460, Note_on_c, 0, 79, 72
2, 206460, Note_on_c, 0, 72, 60
2, 206467, Note_on_c, 0, 79, 0
2, 206470, Note_on_c, 0, 72, 0
2, 206520, Note_on_c, 0, 78, 62
2, 206520, Note_on_c, 0, 72, 62
2, 206529, Note_on_c, 0, 72, 0
2, 206529, Note_on_c, 0, 78, 0
2, 206580, Note_on_c, 0, 77, 62
2, 206580, Note_on_c, 0, 71, 64
2, 206589, Note_on_c, 0, 71, 0
2, 206589, Note_on_c, 0, 77, 0
2, 206640, Note_on_c, 0, 76, 76
2, 206640, Note_on_c, 0, 72, 76
2, 206655, Note_on_c, 0, 76, 0
2, 206655, Note_on_c, 0, 74, 76
2, 206656, Control_c, 0, 64, 127
2, 206659, Control_c, 0, 64, 127
2, 206670, Note_on_c, 0, 74, 0
2, 206670, Note_on_c, 0, 73, 60
2, 206681, Note_on_c, 0, 73, 0
2, 206685, Note_on_c, 0, 74, 62
2, 206697, Note_on_c, 0, 74, 0
2, 206699, Control_c, 0, 64, 0
2, 206700, Note_on_c, 0, 77, 64
2, 206700, Note_on_c, 0, 69, 85
2, 206701, Control_c, 0, 64, 0
2, 206702, Note_on_c, 0, 72, 0
2, 206719, Control_c, 0, 64, 127
2, 206720, Control_c, 0, 64, 127
2, 206739, Note_on_c, 0, 77, 0
2, 206740, Note_on_c, 0, 69, 0
2, 206745, Note_on_c, 0, 74, 76
2, 206745, Note_on_c, 0, 65, 64
2, 206750, Note_on_c, 0, 74, 0
2, 206752, Control_c, 0, 64, 0
2, 206755, Note_on_c, 0, 65, 0
2, 206756, Control_c, 0, 64, 0
2, 206760, Note_on_c, 0, 72, 64
2, 206760, Note_on_c, 0, 64, 56
2, 206772, Note_on_c, 0, 72, 0
2, 206774, Note_on_c, 0, 64, 0
2, 206820, Note_on_c, 0, 74, 76
2, 206820, Note_on_c, 0, 59, 68
2, 206831, Note_on_c, 0, 74, 0
2, 206833, Note_on_c, 0, 59, 0
2, 206880, Note_on_c, 0, 74, 85
2, 206880, Note_on_c, 0, 59, 72
2, 206897, Control_c, 0, 64, 127
2, 206898, Control_c, 0, 64, 127
2, 206970, Note_on_c, 0, 75, 60
2, 206971, Note_on_c, 0, 74, 0
2, 206978, Control_c, 0, 64, 0
2, 207000, Note_on_c, 0, 75, 0
2, 207000, Note_on_c, 0, 76, 76
2, 207000, Note_on_c, 0, 60, 64
2, 207002, Note_on_c, 0, 59, 0
2, 207007, Control_c, 0, 64, 0
2, 207018, Control_c, 0, 64, 127
2, 207024, Control_c, 0, 64, 127
2, 207064, Note_on_c, 0, 76, 0
2, 207067, Note_on_c, 0, 60, 0
2, 207072, Control_c, 0, 64, 0
2, 207081, Control_c, 0, 64, 0
2, 207120, Note_on_c, 0, 69, 107
2, 207131, Control_c, 0, 64, 127
2, 207135, Note_on_c, 0, 69, 0
2, 207135, Note_on_c, 0, 71, 80
2, 207144, Control_c, 0, 64, 0
2, 207149, Note_on_c, 0, 71, 0
2, 207150, Note_on_c, 0, 72, 72
2, 207159, Control_c, 0, 64, 127
2, 207162, Note_on_c, 0, 72, 0
2, 207165, Note_on_c, 0, 74, 85
2, 207176, Note_on_c, 0, 74, 0
2, 207177, Control_c, 0, 64, 0
2, 207180, Note_on_c, 0, 76, 85
2, 207193, Note_on_c, 0, 76, 0
2, 207195, Note_on_c, 0, 77, 72
2, 207204, Control_c, 0, 64, 127
2, 207208, Note_on_c, 0, 77, 0
2, 207210, Note_on_c, 0, 79, 76
2, 207224, Note_on_c, 0, 79, 0
2, 207225, Note_on_c, 0, 81, 80
2, 207239, Note_on_c, 0, 81, 0
2, 207239, Control_c, 0, 64, 0
2, 207240, Note_on_c, 0, 79, 93
2, 207255, Note_on_c, 0, 77, 72
2, 207259, Note_on_c, 0, 79, 0
2, 207270, Note_on_c, 0, 76, 72
2, 207274, Note_on_c, 0, 77, 0
2, 207278, Control_c, 0, 64, 127
2, 207285, Note_on_c, 0, 76, 0
2, 207285, Note_on_c, 0, 74, 89
2, 207295, Note_on_c, 0, 74, 0
2, 207300, Control_c, 0, 64, 0
2, 207300, Note_on_c, 0, 72, 93
2, 207315, Note_on_c, 0, 71, 60
2, 207319, Note_on_c, 0, 72, 0
2, 207330, Note_on_c, 0, 69, 80
2, 207333, Note_on_c, 0, 71, 0
2, 207343, Control_c, 0, 64, 127
2, 207345, Note_on_c, 0, 67, 72
2, 207346, Note_on_c, 0, 69, 0
2, 207357, Note_on_c, 0, 67, 0
2, 207360, Note_on_c, 0, 65, 89
2, 207361, Control_c, 0, 64, 0
2, 207375, Note_on_c, 0, 65, 0
2, 207375, Note_on_c, 0, 67, 76
2, 207382, Control_c, 0, 64, 127
2, 207390, Note_on_c, 0, 69, 76
2, 207391, Note_on_c, 0, 67, 0
2, 207398, Control_c, 0, 64, 0
2, 207405, Note_on_c, 0, 71, 76
2, 207407, Note_on_c, 0, 69, 0
2, 207417, Note_on_c, 0, 71, 0
2, 207420, Note_on_c, 0, 72, 89
2, 207431, Control_c, 0, 64, 127
2, 207433, Note_on_c, 0, 72, 0
2, 207435, Note_on_c, 0, 74, 55
2, 207450, Note_on_c, 0, 76, 76
2, 207451, Note_on_c, 0, 74, 0
2, 207465, Note_on_c, 0, 77, 76
2, 207467, Note_on_c, 0, 76, 0
2, 207479, Note_on_c, 0, 77, 0
2, 207480, Note_on_c, 0, 75, 80
2, 207483, Control_c, 0, 64, 0
2, 207510, Note_on_c, 0, 76, 80
2, 207512, Note_on_c, 0, 75, 0
2, 207528, Note_on_c, 0, 76, 0
2, 207540, Note_on_c, 0, 76, 89
2, 207549, Control_c, 0, 64, 127
2, 207568, Note_on_c, 0, 76, 0
2, 207599, Control_c, 0, 64, 0
2, 207600, Note_on_c, 0, 62, 72
2, 207605, Note_on_c, 0, 74, 57
2, 207608, Note_on_c, 0, 62, 0
2, 207613, Note_on_c, 0, 74, 0
2, 207630, Note_on_c, 0, 73, 59
2, 207630, Note_on_c, 0, 61, 57
2, 207638, Note_on_c, 0, 73, 0
2, 207639, Note_on_c, 0, 61, 0
2, 207660, Note_on_c, 0, 74, 62
2, 207660, Note_on_c, 0, 62, 64
2, 207666, Note_on_c, 0, 74, 0
2, 207667, Note_on_c, 0, 62, 0
2, 207690, Note_on_c, 0, 76, 62
2, 207690, Note_on_c, 0, 64, 68
2, 207697, Note_on_c, 0, 76, 0
2, 207698, Note_on_c, 0, 64, 0
2, 207720, Note_on_c, 0, 77, 64
2, 207720, Note_on_c, 0, 65, 60
2, 207727, Note_on_c, 0, 77, 0
2, 207728, Note_on_c, 0, 65, 0
2, 207750, Note_on_c, 0, 76, 62
2, 207750, Note_on_c, 0, 64, 57
2, 207758, Note_on_c, 0, 76, 0
2, 207759, Note_on_c, 0, 64, 0
2, 207780, Note_on_c, 0, 77, 62
2, 207780, Note_on_c, 0, 65, 57
2, 207787, Note_on_c, 0, 77, 0
2, 207788, Note_on_c, 0, 65, 0
2, 207810, Note_on_c, 0, 79, 72
2, 207810, Note_on_c, 0, 67, 62
2, 207816, Note_on_c, 0, 79, 0
2, 207818, Note_on_c, 0, 67, 0
2, 207840, Note_on_c, 0, 80, 89
2, 207840, Note_on_c, 0, 68, 62
2, 207849, Note_on_c, 0, 68, 0
2, 207852, Note_on_c, 0, 80, 0
2, 207900, Note_on_c, 0, 79, 72
2, 207900, Note_on_c, 0, 67, 68
2, 207909, Note_on_c, 0, 67, 0
2, 207909, Note_on_c, 0, 79, 0
2, 207962, Note_on_c, 0, 78, 68
2, 207964, Note_on_c, 0, 66, 59
2, 207971, Note_on_c, 0, 78, 0
2, 207972, Note_on_c, 0, 66, 0
2, 208020, Note_on_c, 0, 77, 76
2, 208020, Note_on_c, 0, 65, 57
2, 208028, Note_on_c, 0, 65, 0
2, 208030, Note_on_c, 0, 77, 0
2, 208080, Note_on_c, 0, 76, 62
2, 208080, Note_on_c, 0, 64, 64
2, 208089, Control_c, 0, 64, 127
2, 208092, Control_c, 0, 64, 127
2, 208138, Note_on_c, 0, 64, 0
2, 208142, Note_on_c, 0, 76, 0
2, 208144, Control_c, 0, 64, 0
2, 208145, Control_c, 0, 64, 0
2, 208200, Note_on_c, 0, 75, 62
2, 208200, Note_on_c, 0, 63, 56
2, 208203, Control_c, 0, 64, 127
2, 208210, Control_c, 0, 64, 127
2, 208257, Note_on_c, 0, 75, 0
2, 208262, Control_c, 0, 64, 0
2, 208263, Control_c, 0, 64, 0
2, 208265, Note_on_c, 0, 63, 0
2, 208318, Control_c, 0, 64, 127
2, 208320, Note_on_c, 0, 73, 64
2, 208320, Note_on_c, 0, 61, 59
2, 208329, Control_c, 0, 64, 127
2, 208377, Note_on_c, 0, 73, 0
2, 208380, Control_c, 0, 64, 0
2, 208386, Control_c, 0, 64, 0
2, 208389, Note_on_c, 0, 61, 0
2, 208434, Control_c, 0, 64, 127
2, 208440, Note_on_c, 0, 60, 64
2, 208440, Note_on_c, 0, 72, 72
2, 208447, Control_c, 0, 64, 127
2, 208503, Note_on_c, 0, 72, 0
2, 208508, Control_c, 0, 64, 0
2, 208509, Note_on_c, 0, 60, 0
2, 208511, Control_c, 0, 64, 0
2, 208560, Note_on_c, 0, 71, 80
2, 208650, Note_on_c, 0, 71, 0
2, 208650, Note_on_c, 0, 72, 68
2, 208664, Note_on_c, 0, 72, 0
2, 208665, Note_on_c, 0, 74, 68
2, 208680, Note_on_c, 0, 67, 76
2, 208684, Note_on_c, 0, 74, 0
2, 208740, Note_on_c, 0, 67, 0
2, 208740, Note_on_c, 0, 67, 80
2, 208800, Note_on_c, 0, 67, 0
2, 208800, Note_on_c, 0, 81, 85
2, 208800, Note_on_c, 0, 72, 76
2, 208817, Note_on_c, 0, 72, 0
2, 208824, Control_c, 0, 64, 127
2, 208860, Note_on_c, 0, 72, 64
2, 208860, Control_c, 0, 64, 127
2, 208887, Note_on_c, 0, 72, 0
2, 208890, Note_on_c, 0, 83, 76
2, 208892, Note_on_c, 0, 81, 0
2, 208905, Note_on_c, 0, 84, 68
2, 208906, Note_on_c, 0, 83, 0
2, 208910, Control_c, 0, 64, 0
2, 208920, Note_on_c, 0, 78, 64
2, 208920, Note_on_c, 0, 62, 72
2, 208922, Note_on_c, 0, 84, 0
2, 208926, Control_c, 0, 64, 0
2, 208945, Control_c, 0, 64, 127
2, 208975, Note_on_c, 0, 78, 0
2, 208979, Control_c, 0, 64, 127
2, 208980, Note_on_c, 0, 78, 76
2, 208991, Note_on_c, 0, 62, 0
2, 209020, Note_on_c, 0, 78, 0
2, 209039, Control_c, 0, 64, 0
2, 209040, Note_on_c, 0, 86, 89
2, 209040, Note_on_c, 0, 71, 80
2, 209044, Control_c, 0, 64, 0
2, 209059, Control_c, 0, 64, 127
2, 209082, Control_c, 0, 64, 127
2, 209084, Note_on_c, 0, 86, 0
2, 209100, Note_on_c, 0, 86, 80
2, 209130, Note_on_c, 0, 71, 0
2, 209130, Note_on_c, 0, 72, 76
2, 209132, Note_on_c, 0, 86, 0
2, 209143, Control_c, 0, 64, 0
2, 209145, Note_on_c, 0, 72, 0
2, 209145, Note_on_c, 0, 74, 68
2, 209160, Note_on_c, 0, 79, 80
2, 209160, Note_on_c, 0, 67, 80
2, 209163, Note_on_c, 0, 74, 0
2, 209166, Control_c, 0, 64, 0
2, 209183, Control_c, 0, 64, 127
2, 209184, Control_c, 0, 64, 127
2, 209203, Note_on_c, 0, 67, 0
2, 209220, Note_on_c, 0, 67, 80
2, 209233, Note_on_c, 0, 79, 0
2, 209276, Note_on_c, 0, 67, 0
2, 209278, Control_c, 0, 64, 0
2, 209280, Note_on_c, 0, 81, 85
2, 209280, Note_on_c, 0, 72, 76
2, 209281, Control_c, 0, 64, 0
2, 209300, Control_c, 0, 64, 127
2, 209304, Control_c, 0, 64, 127
2, 209328, Note_on_c, 0, 72, 0
2, 209340, Note_on_c, 0, 72, 72
2, 209369, Note_on_c, 0, 81, 0
2, 209370, Note_on_c, 0, 83, 89
2, 209375, Control_c, 0, 64, 0
2, 209385, Note_on_c, 0, 83, 0
2, 209385, Note_on_c, 0, 84, 68
2, 209394, Note_on_c, 0, 72, 0
2, 209400, Note_on_c, 0, 78, 72
2, 209400, Note_on_c, 0, 62, 76
2, 209402, Control_c, 0, 64, 0
2, 209404, Note_on_c, 0, 84, 0
2, 209416, Control_c, 0, 64, 127
2, 209425, Control_c, 0, 64, 127
2, 209453, Note_on_c, 0, 78, 0
2, 209460, Note_on_c, 0, 78, 59
2, 209496, Note_on_c, 0, 78, 0
2, 209520, Note_on_c, 0, 86, 89
2, 209522, Control_c, 0, 64, 0
2, 209537, Control_c, 0, 64, 127
2, 209563, Note_on_c, 0, 86, 0
2, 209580, Note_on_c, 0, 86, 89
2, 209611, Note_on_c, 0, 86, 0
2, 209640, Note_on_c, 0, 79, 72
2, 209644, Control_c, 0, 64, 0
2, 209646, Note_on_c, 0, 62, 0
2, 209663, Control_c, 0, 64, 127
2, 209678, Control_c, 0, 64, 0
2, 209700, Note_on_c, 0, 67, 72
2, 209716, Control_c, 0, 64, 127
2, 209741, Note_on_c, 0, 79, 0
2, 209752, Note_on_c, 0, 67, 0
2, 209760, Note_on_c, 0, 87, 76
2, 209760, Note_on_c, 0, 69, 53
2, 209760, Note_on_c, 0, 66, 64
2, 209764, Control_c, 0, 64, 0
2, 209766, Control_c, 0, 64, 0
2, 209779, Control_c, 0, 64, 127
2, 209797, Control_c, 0, 64, 127
2, 209802, Note_on_c, 0, 87, 0
2, 209820, Note_on_c, 0, 87, 80
2, 209880, Note_on_c, 0, 87, 0
2, 209880, Note_on_c, 0, 66, 0
2, 209880, Note_on_c, 0, 78, 72
2, 209882, Note_on_c, 0, 69, 0
2, 209884, Control_c, 0, 64, 0
2, 209886, Control_c, 0, 64, 0
2, 209902, Control_c, 0, 64, 127
2, 209939, Control_c, 0, 64, 127
2, 209940, Note_on_c, 0, 69, 64
2, 209940, Note_on_c, 0, 66, 68
2, 209956, Note_on_c, 0, 66, 0
2, 209959, Note_on_c, 0, 69, 0
2, 209978, Note_on_c, 0, 78, 0
2, 210000, Control_c, 0, 64, 0
2, 210000, Note_on_c, 0, 86, 89
2, 210000, Note_on_c, 0, 65, 68
2, 210000, Note_on_c, 0, 71, 76
2, 210000, Note_on_c, 0, 67, 80
2, 210001, Control_c, 0, 64, 0
2, 210015, Control_c, 0, 64, 127
2, 210030, Control_c, 0, 64, 127
2, 210041, Note_on_c, 0, 86, 0
2, 210060, Note_on_c, 0, 86, 85
2, 210118, Note_on_c, 0, 86, 0
2, 210120, Note_on_c, 0, 77, 80
2, 210123, Control_c, 0, 64, 0
2, 210141, Control_c, 0, 64, 127
2, 210444, Note_on_c, 0, 67, 0
2, 210444, Note_on_c, 0, 65, 0
2, 210445, Note_on_c, 0, 71, 0
2, 210455, Note_on_c, 0, 77, 0
2, 210464, Control_c, 0, 64, 0
2, 210473, Control_c, 0, 64, 0
2, 210720, Note_on_c, 0, 76, 76
2, 210756, Control_c, 0, 64, 127
2, 210806, Note_on_c, 0, 76, 0
2, 210810, Note_on_c, 0, 77, 72
2, 210823, Control_c, 0, 64, 0
2, 210825, Note_on_c, 0, 77, 0
2, 210825, Note_on_c, 0, 79, 64
2, 210840, Note_on_c, 0, 72, 68
2, 210842, Note_on_c, 0, 79, 0
2, 210854, Control_c, 0, 64, 127
2, 210882, Note_on_c, 0, 72, 0
2, 210900, Note_on_c, 0, 72, 76
2, 210937, Note_on_c, 0, 72, 0
2, 210960, Note_on_c, 0, 74, 89
2, 210963, Control_c, 0, 64, 0
2, 210982, Control_c, 0, 64, 127
2, 210999, Note_on_c, 0, 74, 0
2, 211020, Note_on_c, 0, 74, 80
2, 211043, Note_on_c, 0, 74, 0
2, 211080, Note_on_c, 0, 67, 68
2, 211081, Control_c, 0, 64, 0
2, 211106, Control_c, 0, 64, 127
2, 211156, Note_on_c, 0, 67, 0
2, 211198, Control_c, 0, 64, 0
2, 211200, Note_on_c, 0, 76, 72
2, 211200, Note_on_c, 0, 67, 72
2, 211225, Control_c, 0, 64, 127
2, 211233, Control_c, 0, 64, 127
2, 211290, Note_on_c, 0, 77, 72
2, 211295, Note_on_c, 0, 76, 0
2, 211303, Note_on_c, 0, 77, 0
2, 211304, Control_c, 0, 64, 0
2, 211305, Note_on_c, 0, 79, 64
2, 211320, Note_on_c, 0, 72, 76
2, 211325, Note_on_c, 0, 79, 0
2, 211343, Control_c, 0, 64, 127
2, 211349, Note_on_c, 0, 67, 0
2, 211367, Note_on_c, 0, 72, 0
2, 211380, Note_on_c, 0, 72, 76
2, 211380, Note_on_c, 0, 67, 76
2, 211429, Note_on_c, 0, 67, 0
2, 211433, Note_on_c, 0, 72, 0
2, 211440, Note_on_c, 0, 73, 80
2, 211440, Note_on_c, 0, 67, 72
2, 211443, Control_c, 0, 64, 0
2, 211454, Control_c, 0, 64, 0
2, 211481, Control_c, 0, 64, 127
2, 211482, Control_c, 0, 64, 127
2, 211560, Note_on_c, 0, 74, 72
2, 211561, Note_on_c, 0, 73, 0
2, 211562, Control_c, 0, 64, 0
2, 211567, Note_on_c, 0, 67, 0
2, 211576, Control_c, 0, 64, 0
2, 211595, Control_c, 0, 64, 127
2, 211647, Note_on_c, 0, 74, 0
2, 211664, Control_c, 0, 64, 0
2, 211680, Note_on_c, 0, 76, 76
2, 211704, Control_c, 0, 64, 127
2, 211766, Note_on_c, 0, 76, 0
2, 211770, Note_on_c, 0, 77, 76
2, 211772, Control_c, 0, 64, 0
2, 211785, Note_on_c, 0, 79, 64
2, 211788, Note_on_c, 0, 77, 0
2, 211800, Note_on_c, 0, 72, 72
2, 211804, Note_on_c, 0, 79, 0
2, 211817, Control_c, 0, 64, 127
2, 211846, Note_on_c, 0, 72, 0
2, 211860, Note_on_c, 0, 72, 76
2, 211915, Note_on_c, 0, 72, 0
2, 211920, Note_on_c, 0, 81, 89
2, 211922, Control_c, 0, 64, 0
2, 211937, Control_c, 0, 64, 127
2, 211967, Note_on_c, 0, 81, 0
2, 211980, Note_on_c, 0, 81, 80
2, 212040, Note_on_c, 0, 84, 80
2, 212043, Note_on_c, 0, 81, 0
2, 212043, Control_c, 0, 64, 0
2, 212076, Control_c, 0, 64, 127
2, 212123, Note_on_c, 0, 84, 0
2, 212156, Control_c, 0, 64, 0
2, 212160, Note_on_c, 0, 81, 76
2, 212160, Note_on_c, 0, 67, 80
2, 212181, Control_c, 0, 64, 127
2, 212190, Note_on_c, 0, 79, 76
2, 212193, Note_on_c, 0, 81, 0
2, 212194, Control_c, 0, 64, 127
2, 212206, Control_c, 0, 64, 0
2, 212219, Note_on_c, 0, 79, 0
2, 212220, Note_on_c, 0, 77, 68
2, 212238, Control_c, 0, 64, 127
2, 212249, Note_on_c, 0, 77, 0
2, 212250, Note_on_c, 0, 76, 72
2, 212279, Control_c, 0, 64, 0
2, 212280, Note_on_c, 0, 76, 0
2, 212280, Note_on_c, 0, 74, 80
2, 212289, Note_on_c, 0, 74, 0
2, 212317, Note_on_c, 0, 76, 72
2, 212324, Note_on_c, 0, 74, 62
2, 212327, Note_on_c, 0, 67, 0
2, 212328, Note_on_c, 0, 76, 0
2, 212331, Note_on_c, 0, 72, 55
2, 212332, Note_on_c, 0, 74, 0
2, 212338, Note_on_c, 0, 72, 0
2, 212340, Note_on_c, 0, 74, 64
2, 212340, Note_on_c, 0, 67, 76
2, 212341, Control_c, 0, 64, 0
2, 212370, Note_on_c, 0, 76, 76
2, 212373, Note_on_c, 0, 74, 0
2, 212373, Control_c, 0, 64, 127
2, 212378, Note_on_c, 0, 76, 0
2, 212384, Note_on_c, 0, 67, 0
2, 212398, Control_c, 0, 64, 0
2, 212400, Note_on_c, 0, 72, 76
2, 212400, Note_on_c, 0, 67, 68
2, 212425, Control_c, 0, 64, 127
2, 212438, Control_c, 0, 64, 127
2, 212467, Note_on_c, 0, 67, 0
2, 212517, Note_on_c, 0, 72, 0
2, 212517, Control_c, 0, 64, 0
2, 212539, Control_c, 0, 64, 0
2, 212550, Note_on_c, 0, 72, 68
2, 212557, Note_on_c, 0, 60, 72
2, 212562, Control_c, 0, 64, 127
2, 212580, Note_on_c, 0, 72, 0
2, 212580, Note_on_c, 0, 74, 59
2, 212580, Note_on_c, 0, 71, 76
2, 212581, Note_on_c, 0, 59, 62
2, 212582, Note_on_c, 0, 60, 0
2, 212582, Control_c, 0, 64, 0
2, 212585, Note_on_c, 0, 62, 62
2, 212589, Control_c, 0, 64, 127
2, 212605, Note_on_c, 0, 59, 0
2, 212608, Note_on_c, 0, 74, 0
2, 212608, Note_on_c, 0, 71, 0
2, 212609, Control_c, 0, 64, 127
2, 212610, Note_on_c, 0, 76, 59
2, 212610, Note_on_c, 0, 72, 60
2, 212610, Note_on_c, 0, 64, 72
2, 212612, Note_on_c, 0, 60, 60
2, 212613, Note_on_c, 0, 62, 0
2, 212629, Note_on_c, 0, 64, 0
2, 212632, Note_on_c, 0, 60, 0
2, 212636, Control_c, 0, 64, 0
2, 212637, Note_on_c, 0, 76, 0
2, 212637, Control_c, 0, 64, 0
2, 212638, Note_on_c, 0, 72, 0
2, 212640, Note_on_c, 0, 74, 60
2, 212640, Note_on_c, 0, 77, 62
2, 212640, Note_on_c, 0, 62, 72
2, 212640, Note_on_c, 0, 65, 60
2, 212653, Control_c, 0, 64, 127
2, 212656, Note_on_c, 0, 65, 0
2, 212656, Note_on_c, 0, 62, 0
2, 212667, Note_on_c, 0, 77, 0
2, 212668, Note_on_c, 0, 74, 0
2, 212670, Control_c, 0, 64, 0
2, 212670, Note_on_c, 0, 76, 76
2, 212670, Note_on_c, 0, 72, 56
2, 212670, Note_on_c, 0, 60, 62
2, 212673, Note_on_c, 0, 64, 76
2, 212677, Note_on_c, 0, 72, 0
2, 212677, Note_on_c, 0, 76, 0
2, 212684, Note_on_c, 0, 60, 0
2, 212688, Note_on_c, 0, 64, 0
2, 212700, Note_on_c, 0, 74, 76
2, 212700, Note_on_c, 0, 71, 62
2, 212700, Note_on_c, 0, 59, 56
2, 212700, Note_on_c, 0, 62, 68
2, 212714, Note_on_c, 0, 71, 0
2, 212714, Note_on_c, 0, 74, 0
2, 212719, Note_on_c, 0, 59, 0
2, 212721, Note_on_c, 0, 62, 0
2, 212790, Note_on_c, 0, 71, 76
2, 212790, Note_on_c, 0, 74, 85
2, 212790, Note_on_c, 0, 62, 72
2, 212790, Control_c, 0, 64, 127
2, 212790, Note_on_c, 0, 59, 64
2, 212798, Control_c, 0, 64, 127
2, 212810, Note_on_c, 0, 59, 0
2, 212813, Note_on_c, 0, 62, 0
2, 212817, Note_on_c, 0, 74, 0
2, 212817, Note_on_c, 0, 71, 0
2, 212820, Note_on_c, 0, 76, 62
2, 212820, Note_on_c, 0, 72, 85
2, 212820, Note_on_c, 0, 64, 62
2, 212820, Note_on_c, 0, 60, 59
2, 212822, Control_c, 0, 64, 0
2, 212838, Note_on_c, 0, 60, 0
2, 212838, Note_on_c, 0, 64, 0
2, 212839, Control_c, 0, 64, 127
2, 212845, Note_on_c, 0, 76, 0
2, 212846, Note_on_c, 0, 72, 0
2, 212850, Note_on_c, 0, 77, 76
2, 212850, Note_on_c, 0, 74, 76
2, 212850, Note_on_c, 0, 62, 76
2, 212850, Note_on_c, 0, 65, 62
2, 212852, Control_c, 0, 64, 0
2, 212859, Note_on_c, 0, 74, 0
2, 212860, Note_on_c, 0, 62, 0
2, 212862, Note_on_c, 0, 65, 0
2, 212864, Note_on_c, 0, 77, 0
2, 212874, Control_c, 0, 64, 0
2, 212880, Note_on_c, 0, 79, 72
2, 212880, Note_on_c, 0, 76, 59
2, 212880, Note_on_c, 0, 64, 72
2, 212880, Note_on_c, 0, 67, 64
2, 212889, Control_c, 0, 64, 127
2, 212893, Note_on_c, 0, 67, 0
2, 212897, Note_on_c, 0, 64, 0
2, 212906, Note_on_c, 0, 76, 0
2, 212907, Note_on_c, 0, 79, 0
2, 212908, Control_c, 0, 64, 0
2, 212910, Note_on_c, 0, 74, 76
2, 212910, Note_on_c, 0, 77, 76
2, 212910, Note_on_c, 0, 62, 76
2, 212910, Note_on_c, 0, 65, 76
2, 212916, Note_on_c, 0, 74, 0
2, 212917, Note_on_c, 0, 77, 0
2, 212921, Note_on_c, 0, 62, 0
2, 212922, Note_on_c, 0, 65, 0
2, 212940, Note_on_c, 0, 72, 85
2, 212940, Note_on_c, 0, 76, 93
2, 212940, Note_on_c, 0, 64, 72
2, 212940, Note_on_c, 0, 60, 60
2, 212953, Note_on_c, 0, 76, 0
2, 212953, Note_on_c, 0, 72, 0
2, 212956, Note_on_c, 0, 64, 0
2, 212956, Note_on_c, 0, 60, 0
2, 212960, Control_c, 0, 64, 127
2, 212977, Control_c, 0, 64, 0
2, 213030, Note_on_c, 0, 72, 76
2, 213030, Note_on_c, 0, 76, 89
2, 213030, Note_on_c, 0, 60, 76
2, 213030, Note_on_c, 0, 64, 80
2, 213032, Control_c, 0, 64, 127
2, 213038, Control_c, 0, 64, 127
2, 213050, Note_on_c, 0, 64, 0
2, 213051, Note_on_c, 0, 60, 0
2, 213054, Note_on_c, 0, 76, 0
2, 213054, Note_on_c, 0, 72, 0
2, 213057, Control_c, 0, 64, 0
2, 213060, Note_on_c, 0, 77, 64
2, 213060, Note_on_c, 0, 74, 76
2, 213060, Note_on_c, 0, 62, 60
2, 213060, Note_on_c, 0, 65, 57
2, 213076, Note_on_c, 0, 62, 0
2, 213077, Note_on_c, 0, 65, 0
2, 213082, Control_c, 0, 64, 127
2, 213083, Note_on_c, 0, 77, 0
2, 213085, Note_on_c, 0, 74, 0
2, 213090, Note_on_c, 0, 76, 76
2, 213090, Note_on_c, 0, 79, 68
2, 213090, Note_on_c, 0, 64, 76
2, 213090, Note_on_c, 0, 67, 80
2, 213098, Note_on_c, 0, 76, 0
2, 213099, Note_on_c, 0, 79, 0
2, 213101, Note_on_c, 0, 64, 0
2, 213102, Note_on_c, 0, 67, 0
2, 213107, Control_c, 0, 64, 0
2, 213108, Control_c, 0, 64, 0
2, 213120, Note_on_c, 0, 81, 93
2, 213120, Note_on_c, 0, 77, 80
2, 213120, Note_on_c, 0, 65, 93
2, 213120, Note_on_c, 0, 69, 80
2, 213129, Note_on_c, 0, 77, 0
2, 213131, Note_on_c, 0, 81, 0
2, 213134, Note_on_c, 0, 69, 0
2, 213135, Note_on_c, 0, 65, 0
2, 213150, Note_on_c, 0, 81, 89
2, 213150, Note_on_c, 0, 77, 89
2, 213175, Note_on_c, 0, 81, 0
2, 213176, Note_on_c, 0, 77, 0
2, 213180, Note_on_c, 0, 79, 85
2, 213180, Note_on_c, 0, 76, 80
2, 213180, Note_on_c, 0, 64, 85
2, 213180, Note_on_c, 0, 67, 89
2, 213189, Note_on_c, 0, 79, 0
2, 213190, Note_on_c, 0, 76, 0
2, 213194, Note_on_c, 0, 64, 0
2, 213199, Note_on_c, 0, 67, 0
2, 213210, Note_on_c, 0, 76, 93
2, 213210, Note_on_c, 0, 79, 93
2, 213217, Note_on_c, 0, 76, 0
2, 213218, Note_on_c, 0, 79, 0
2, 213240, Note_on_c, 0, 77, 89
2, 213240, Note_on_c, 0, 81, 93
2, 213240, Note_on_c, 0, 65, 89
2, 213240, Note_on_c, 0, 69, 93
2, 213250, Note_on_c, 0, 77, 0
2, 213251, Note_on_c, 0, 81, 0
2, 213253, Note_on_c, 0, 65, 0
2, 213255, Note_on_c, 0, 69, 0
2, 213270, Note_on_c, 0, 77, 85
2, 213270, Note_on_c, 0, 81, 85
2, 213277, Note_on_c, 0, 77, 0
2, 213279, Note_on_c, 0, 81, 0
2, 213300, Note_on_c, 0, 83, 89
2, 213300, Note_on_c, 0, 79, 89
2, 213300, Note_on_c, 0, 67, 89
2, 213300, Note_on_c, 0, 71, 89
2, 213309, Note_on_c, 0, 79, 0
2, 213311, Note_on_c, 0, 83, 0
2, 213311, Note_on_c, 0, 67, 0
2, 213315, Note_on_c, 0, 71, 0
2, 213330, Note_on_c, 0, 79, 76
2, 213330, Note_on_c, 0, 83, 85
2, 213336, Note_on_c, 0, 79, 0
2, 213338, Note_on_c, 0, 83, 0
2, 213360, Note_on_c, 0, 84, 93
2, 213360, Note_on_c, 0, 81, 93
2, 213360, Note_on_c, 0, 69, 89
2, 213360, Note_on_c, 0, 72, 80
2, 213368, Note_on_c, 0, 81, 0
2, 213368, Note_on_c, 0, 84, 0
2, 213374, Note_on_c, 0, 69, 0
2, 213375, Note_on_c, 0, 72, 0
2, 213390, Note_on_c, 0, 84, 89
2, 213390, Note_on_c, 0, 81, 89
2, 213397, Note_on_c, 0, 81, 0
2, 213397, Note_on_c, 0, 84, 0
2, 213420, Note_on_c, 0, 88, 93
2, 213420, Note_on_c, 0, 83, 89
2, 213420, Note_on_c, 0, 71, 56
2, 213420, Note_on_c, 0, 74, 68
2, 213431, Note_on_c, 0, 88, 0
2, 213432, Note_on_c, 0, 71, 0
2, 213434, Note_on_c, 0, 74, 0
2, 213435, Note_on_c, 0, 86, 76
2, 213446, Note_on_c, 0, 86, 0
2, 213450, Note_on_c, 0, 84, 76
2, 213452, Control_c, 0, 64, 127
2, 213460, Note_on_c, 0, 83, 0
2, 213462, Note_on_c, 0, 84, 0
2, 213465, Note_on_c, 0, 86, 89
2, 213472, Control_c, 0, 64, 0
2, 213474, Note_on_c, 0, 86, 0
2, 213480, Note_on_c, 0, 84, 89
2, 213480, Note_on_c, 0, 88, 85
2, 213480, Note_on_c, 0, 72, 64
2, 213480, Note_on_c, 0, 76, 85
2, 213494, Note_on_c, 0, 76, 0
2, 213495, Note_on_c, 0, 72, 0
2, 213495, Control_c, 0, 64, 127
2, 213533, Note_on_c, 0, 88, 0
2, 213534, Note_on_c, 0, 84, 0
2, 213540, Control_c, 0, 64, 0
2, 213600, Note_on_c, 0, 79, 93
2, 213600, Note_on_c, 0, 60, 76
2, 213600, Note_on_c, 0, 55, 80
2, 213600, Note_on_c, 0, 52, 85
2, 213658, Control_c, 0, 64, 127
2, 213679, Control_c, 0, 64, 127
2, 213686, Note_on_c, 0, 79, 0
2, 213690, Note_on_c, 0, 81, 85
2, 213705, Note_on_c, 0, 83, 85
2, 213709, Note_on_c, 0, 81, 0
2, 213715, Note_on_c, 0, 83, 0
2, 213719, Control_c, 0, 64, 0
2, 213720, Note_on_c, 0, 86, 93
2, 213735, Note_on_c, 0, 86, 0
2, 213735, Note_on_c, 0, 84, 80
2, 213750, Note_on_c, 0, 83, 59
2, 213756, Note_on_c, 0, 84, 0
2, 213756, Note_on_c, 0, 52, 0
2, 213757, Note_on_c, 0, 55, 0
2, 213761, Note_on_c, 0, 60, 0
2, 213764, Control_c, 0, 64, 0
2, 213765, Note_on_c, 0, 81, 76
2, 213768, Note_on_c, 0, 83, 0
2, 213775, Note_on_c, 0, 81, 0
2, 213780, Note_on_c, 0, 81, 89
2, 213795, Note_on_c, 0, 81, 0
2, 213795, Note_on_c, 0, 79, 89
2, 213810, Note_on_c, 0, 79, 0
2, 213810, Note_on_c, 0, 77, 76
2, 213821, Control_c, 0, 64, 127
2, 213825, Note_on_c, 0, 77, 0
2, 213825, Note_on_c, 0, 76, 64
2, 213835, Control_c, 0, 64, 0
2, 213838, Note_on_c, 0, 76, 0
2, 213840, Note_on_c, 0, 74, 89
2, 213840, Note_on_c, 0, 53, 72
2, 213840, Note_on_c, 0, 62, 80
2, 213840, Note_on_c, 0, 60, 80
2, 213840, Note_on_c, 0, 57, 89
2, 213871, Control_c, 0, 64, 127
2, 213897, Note_on_c, 0, 74, 0
2, 213900, Note_on_c, 0, 76, 80
2, 213915, Note_on_c, 0, 74, 55
2, 213917, Note_on_c, 0, 76, 0
2, 213924, Control_c, 0, 64, 127
2, 213930, Note_on_c, 0, 73, 60
2, 213935, Note_on_c, 0, 74, 0
2, 213945, Note_on_c, 0, 76, 80
2, 213947, Note_on_c, 0, 73, 0
2, 213952, Control_c, 0, 64, 0
2, 213956, Control_c, 0, 64, 0
2, 213958, Note_on_c, 0, 76, 0
2, 213960, Note_on_c, 0, 79, 89
2, 213975, Note_on_c, 0, 77, 76
2, 213978, Note_on_c, 0, 79, 0
2, 213979, Note_on_c, 0, 57, 0
2, 213981, Note_on_c, 0, 60, 0
2, 213981, Note_on_c, 0, 53, 0
2, 213981, Note_on_c, 0, 62, 0
2, 213990, Note_on_c, 0, 76, 76
2, 213994, Note_on_c, 0, 77, 0
2, 214005, Note_on_c, 0, 74, 76
2, 214008, Note_on_c, 0, 76, 0
2, 214012, Note_on_c, 0, 74, 0
2, 214020, Note_on_c, 0, 74, 80
2, 214035, Note_on_c, 0, 72, 64
2, 214037, Note_on_c, 0, 74, 0
2, 214050, Note_on_c, 0, 71, 64
2, 214052, Note_on_c, 0, 72, 0
2, 214053, Control_c, 0, 64, 127
2, 214065, Note_on_c, 0, 71, 0
2, 214065, Note_on_c, 0, 69, 72
2, 214073, Control_c, 0, 64, 0
2, 214075, Note_on_c, 0, 69, 0
2, 214078, Control_c, 0, 64, 127
2, 214080, Note_on_c, 0, 67, 89
2, 214080, Note_on_c, 0, 55, 76
2, 214080, Note_on_c, 0, 60, 76
2, 214080, Note_on_c, 0, 64, 76
2, 214090, Note_on_c, 0, 67, 0
2, 214110, Note_on_c, 0, 72, 76
2, 214118, Note_on_c, 0, 72, 0
2, 214140, Note_on_c, 0, 76, 85
2, 214148, Control_c, 0, 64, 0
2, 214149, Note_on_c, 0, 76, 0
2, 214168, Note_on_c, 0, 55, 0
2, 214168, Note_on_c, 0, 60, 0
2, 214169, Note_on_c, 0, 64, 0
2, 214170, Note_on_c, 0, 79, 80
2, 214178, Note_on_c, 0, 79, 0
2, 214200, Note_on_c, 0, 79, 80
2, 214200, Note_on_c, 0, 76, 76
2, 214200, Note_on_c, 0, 43, 89
2, 214211, Control_c, 0, 64, 127
2, 214218, Control_c, 0, 64, 127
2, 214230, Note_on_c, 0, 76, 0
2, 214230, Note_on_c, 0, 77, 68
2, 214230, Note_on_c, 0, 74, 56
2, 214232, Note_on_c, 0, 79, 0
2, 214242, Note_on_c, 0, 77, 0
2, 214244, Note_on_c, 0, 74, 0
2, 214256, Note_on_c, 0, 43, 0
2, 214260, Note_on_c, 0, 72, 76
2, 214260, Note_on_c, 0, 76, 76
2, 214261, Control_c, 0, 64, 0
2, 214267, Note_on_c, 0, 72, 0
2, 214269, Note_on_c, 0, 76, 0
2, 214290, Note_on_c, 0, 74, 72
2, 214290, Note_on_c, 0, 71, 72
2, 214296, Note_on_c, 0, 71, 0
2, 214298, Note_on_c, 0, 74, 0
2, 214316, Control_c, 0, 64, 0
2, 214320, Note_on_c, 0, 72, 89
2, 214335, Control_c, 0, 64, 127
2, 214441, Note_on_c, 0, 72, 0
2, 214444, Control_c, 0, 64, 0
2, 214470, Note_on_c, 0, 72, 55
2, 214475, Note_on_c, 0, 60, 89
2, 214487, Control_c, 0, 64, 127
2, 214498, Note_on_c, 0, 60, 0
2, 214499, Note_on_c, 0, 59, 64
2, 214500, Note_on_c, 0, 72, 0
2, 214500, Note_on_c, 0, 74, 62
2, 214500, Note_on_c, 0, 71, 56
2, 214500, Note_on_c, 0, 62, 72
2, 214509, Control_c, 0, 64, 0
2, 214515, Control_c, 0, 64, 127
2, 214521, Note_on_c, 0, 59, 0
2, 214527, Note_on_c, 0, 74, 0
2, 214528, Control_c, 0, 64, 127
2, 214529, Note_on_c, 0, 71, 0
2, 214529, Note_on_c, 0, 62, 0
2, 214530, Note_on_c, 0, 76, 48
2, 214530, Note_on_c, 0, 72, 55
2, 214530, Note_on_c, 0, 60, 68
2, 214532, Note_on_c, 0, 64, 68
2, 214539, Control_c, 0, 64, 0
2, 214545, Note_on_c, 0, 60, 0
2, 214547, Note_on_c, 0, 64, 0
2, 214558, Note_on_c, 0, 76, 0
2, 214559, Note_on_c, 0, 72, 0
2, 214560, Note_on_c, 0, 74, 52
2, 214560, Note_on_c, 0, 65, 72
2, 214560, Note_on_c, 0, 62, 80
2, 214561, Control_c, 0, 64, 0
2, 214564, Note_on_c, 0, 77, 52
2, 214571, Note_on_c, 0, 62, 0
2, 214578, Note_on_c, 0, 65, 0
2, 214579, Control_c, 0, 64, 127
2, 214588, Note_on_c, 0, 74, 0
2, 214590, Note_on_c, 0, 77, 0
2, 214590, Note_on_c, 0, 72, 56
2, 214590, Note_on_c, 0, 76, 62
2, 214590, Note_on_c, 0, 60, 60
2, 214590, Note_on_c, 0, 64, 76
2, 214596, Control_c, 0, 64, 0
2, 214597, Note_on_c, 0, 76, 0
2, 214597, Note_on_c, 0, 72, 0
2, 214603, Note_on_c, 0, 60, 0
2, 214604, Note_on_c, 0, 64, 0
2, 214620, Note_on_c, 0, 71, 62
2, 214620, Note_on_c, 0, 74, 59
2, 214620, Note_on_c, 0, 62, 72
2, 214620, Note_on_c, 0, 59, 52
2, 214630, Note_on_c, 0, 74, 0
2, 214630, Note_on_c, 0, 71, 0
2, 214634, Note_on_c, 0, 62, 0
2, 214634, Note_on_c, 0, 59, 0
2, 214710, Note_on_c, 0, 71, 68
2, 214710, Note_on_c, 0, 74, 72
2, 214710, Note_on_c, 0, 59, 62
2, 214710, Note_on_c, 0, 62, 72
2, 214723, Control_c, 0, 64, 127
2, 214731, Control_c, 0, 64, 127
2, 214734, Note_on_c, 0, 59, 0
2, 214737, Note_on_c, 0, 62, 0
2, 214739, Note_on_c, 0, 74, 0
2, 214740, Note_on_c, 0, 71, 0
2, 214740, Note_on_c, 0, 76, 72
2, 214740, Note_on_c, 0, 72, 76
2, 214740, Note_on_c, 0, 64, 64
2, 214740, Note_on_c, 0, 60, 62
2, 214748, Control_c, 0, 64, 0
2, 214755, Note_on_c, 0, 60, 0
2, 214758, Note_on_c, 0, 64, 0
2, 214764, Control_c, 0, 64, 0
2, 214766, Note_on_c, 0, 72, 0
2, 214766, Note_on_c, 0, 76, 0
2, 214766, Control_c, 0, 64, 127
2, 214770, Note_on_c, 0, 74, 72
2, 214770, Note_on_c, 0, 77, 72
2, 214770, Note_on_c, 0, 65, 76
2, 214770, Note_on_c, 0, 62, 72
2, 214780, Note_on_c, 0, 62, 0
2, 214785, Note_on_c, 0, 65, 0
2, 214786, Note_on_c, 0, 74, 0
2, 214787, Note_on_c, 0, 77, 0
2, 214800, Note_on_c, 0, 76, 93
2, 214800, Note_on_c, 0, 79, 89
2, 214800, Note_on_c, 0, 64, 89
2, 214800, Note_on_c, 0, 67, 76
2, 214805, Control_c, 0, 64, 0
2, 214818, Control_c, 0, 64, 127
2, 214821, Control_c, 0, 64, 127
2, 214826, Note_on_c, 0, 67, 0
2, 214826, Note_on_c, 0, 79, 0
2, 214827, Note_on_c, 0, 76, 0
2, 214828, Note_on_c, 0, 64, 0
2, 214830, Note_on_c, 0, 77, 72
2, 214830, Note_on_c, 0, 74, 76
2, 214830, Note_on_c, 0, 65, 62
2, 214830, Note_on_c, 0, 62, 51
2, 214835, Control_c, 0, 64, 0
2, 214842, Control_c, 0, 64, 0
2, 214853, Note_on_c, 0, 62, 0
2, 214856, Control_c, 0, 64, 127
2, 214857, Note_on_c, 0, 65, 0
2, 214858, Note_on_c, 0, 74, 0
2, 214859, Note_on_c, 0, 77, 0
2, 214860, Note_on_c, 0, 76, 72
2, 214860, Note_on_c, 0, 72, 68
2, 214860, Note_on_c, 0, 64, 62
2, 214860, Note_on_c, 0, 60, 60
2, 214864, Control_c, 0, 64, 0
2, 214881, Control_c, 0, 64, 127
2, 214883, Control_c, 0, 64, 127
2, 214897, Note_on_c, 0, 60, 0
2, 214900, Note_on_c, 0, 64, 0
2, 214908, Note_on_c, 0, 72, 0
2, 214910, Note_on_c, 0, 76, 0
2, 214914, Control_c, 0, 64, 0
2, 214915, Control_c, 0, 64, 0
2, 214950, Note_on_c, 0, 72, 89
2, 214950, Note_on_c, 0, 76, 93
2, 214950, Note_on_c, 0, 60, 68
2, 214950, Note_on_c, 0, 64, 89
2, 214962, Control_c, 0, 64, 127
2, 214966, Control_c, 0, 64, 127
2, 214974, Note_on_c, 0, 76, 0
2, 214976, Note_on_c, 0, 72, 0
2, 214977, Note_on_c, 0, 60, 0
2, 214979, Note_on_c, 0, 64, 0
2, 214980, Note_on_c, 0, 77, 76
2, 214980, Note_on_c, 0, 74, 89
2, 214980, Note_on_c, 0, 65, 72
2, 214980, Note_on_c, 0, 62, 72
2, 214982, Control_c, 0, 64, 0
2, 214997, Note_on_c, 0, 62, 0
2, 215000, Control_c, 0, 64, 127
2, 215001, Note_on_c, 0, 65, 0
2, 215006, Note_on_c, 0, 77, 0
2, 215007, Note_on_c, 0, 74, 0
2, 215010, Note_on_c, 0, 76, 93
2, 215010, Note_on_c, 0, 79, 89
2, 215010, Note_on_c, 0, 67, 76
2, 215010, Note_on_c, 0, 64, 80
2, 215017, Note_on_c, 0, 76, 0
2, 215019, Control_c, 0, 64, 0
2, 215020, Note_on_c, 0, 79, 0
2, 215023, Note_on_c, 0, 64, 0
2, 215028, Note_on_c, 0, 67, 0
2, 215035, Control_c, 0, 64, 0
2, 215040, Note_on_c, 0, 81, 89
2, 215040, Note_on_c, 0, 77, 93
2, 215040, Note_on_c, 0, 69, 85
2, 215040, Note_on_c, 0, 65, 93
2, 215053, Control_c, 0, 64, 127
2, 215056, Control_c, 0, 64, 127
2, 215063, Note_on_c, 0, 77, 0
2, 215064, Note_on_c, 0, 81, 0
2, 215070, Note_on_c, 0, 77, 89
2, 215070, Note_on_c, 0, 81, 89
2, 215085, Note_on_c, 0, 69, 0
2, 215085, Note_on_c, 0, 65, 0
2, 215087, Note_on_c, 0, 77, 0
2, 215087, Note_on_c, 0, 81, 0
2, 215091, Control_c, 0, 64, 0
2, 215100, Note_on_c, 0, 76, 93
2, 215100, Note_on_c, 0, 79, 89
2, 215100, Note_on_c, 0, 67, 93
2, 215100, Note_on_c, 0, 64, 85
2, 215103, Control_c, 0, 64, 0
2, 215115, Control_c, 0, 64, 127
2, 215119, Control_c, 0, 64, 127
2, 215122, Note_on_c, 0, 76, 0
2, 215123, Note_on_c, 0, 79, 0
2, 215130, Note_on_c, 0, 76, 85
2, 215130, Note_on_c, 0, 79, 89
2, 215145, Note_on_c, 0, 64, 0
2, 215146, Note_on_c, 0, 76, 0
2, 215147, Note_on_c, 0, 79, 0
2, 215148, Control_c, 0, 64, 0
2, 215149, Note_on_c, 0, 67, 0
2, 215160, Note_on_c, 0, 81, 93
2, 215160, Note_on_c, 0, 77, 93
2, 215160, Note_on_c, 0, 69, 85
2, 215160, Note_on_c, 0, 65, 76
2, 215161, Control_c, 0, 64, 0
2, 215172, Control_c, 0, 64, 127
2, 215177, Control_c, 0, 64, 127
2, 215179, Note_on_c, 0, 77, 0
2, 215179, Note_on_c, 0, 81, 0
2, 215190, Note_on_c, 0, 77, 89
2, 215190, Note_on_c, 0, 81, 89
2, 215197, Note_on_c, 0, 77, 0
2, 215199, Note_on_c, 0, 81, 0
2, 215205, Note_on_c, 0, 65, 0
2, 215206, Note_on_c, 0, 69, 0
2, 215210, Control_c, 0, 64, 0
2, 215220, Note_on_c, 0, 79, 93
2, 215220, Note_on_c, 0, 83, 93
2, 215220, Note_on_c, 0, 71, 93
2, 215220, Note_on_c, 0, 67, 85
2, 215223, Control_c, 0, 64, 0
2, 215236, Control_c, 0, 64, 127
2, 215238, Note_on_c, 0, 79, 0
2, 215241, Note_on_c, 0, 83, 0
2, 215243, Control_c, 0, 64, 127
2, 215250, Note_on_c, 0, 79, 80
2, 215250, Note_on_c, 0, 83, 93
2, 215260, Note_on_c, 0, 83, 0
2, 215261, Note_on_c, 0, 79, 0
2, 215267, Note_on_c, 0, 67, 0
2, 215268, Note_on_c, 0, 71, 0
2, 215270, Control_c, 0, 64, 0
2, 215280, Note_on_c, 0, 84, 93
2, 215280, Note_on_c, 0, 81, 93
2, 215280, Note_on_c, 0, 72, 85
2, 215280, Note_on_c, 0, 69, 76
2, 215282, Control_c, 0, 64, 0
2, 215294, Control_c, 0, 64, 127
2, 215298, Control_c, 0, 64, 127
2, 215299, Note_on_c, 0, 81, 0
2, 215301, Note_on_c, 0, 84, 0
2, 215310, Control_c, 0, 64, 0
2, 215310, Note_on_c, 0, 81, 89
2, 215310, Note_on_c, 0, 84, 80
2, 215317, Note_on_c, 0, 84, 0
2, 215318, Note_on_c, 0, 81, 0
2, 215322, Control_c, 0, 64, 127
2, 215329, Note_on_c, 0, 72, 0
2, 215329, Note_on_c, 0, 69, 0
2, 215332, Control_c, 0, 64, 0
2, 215340, Note_on_c, 0, 88, 89
2, 215340, Note_on_c, 0, 83, 89
2, 215340, Note_on_c, 0, 74, 93
2, 215340, Note_on_c, 0, 71, 80
2, 215346, Control_c, 0, 64, 0
2, 215354, Note_on_c, 0, 88, 0
2, 215355, Note_on_c, 0, 86, 85
2, 215357, Control_c, 0, 64, 127
2, 215366, Note_on_c, 0, 86, 0
2, 215369, Control_c, 0, 64, 127
2, 215370, Note_on_c, 0, 84, 80
2, 215378, Note_on_c, 0, 71, 0
2, 215381, Note_on_c, 0, 74, 0
2, 215383, Note_on_c, 0, 84, 0
2, 215385, Note_on_c, 0, 86, 85
2, 215391, Note_on_c, 0, 83, 0
2, 215392, Control_c, 0, 64, 0
2, 215395, Note_on_c, 0, 86, 0
2, 215400, Note_on_c, 0, 84, 93
2, 215400, Note_on_c, 0, 88, 93
2, 215400, Note_on_c, 0, 76, 89
2, 215400, Note_on_c, 0, 72, 85
2, 215402, Control_c, 0, 64, 0
2, 215412, Control_c, 0, 64, 127
2, 215418, Control_c, 0, 64, 127
2, 215450, Note_on_c, 0, 72, 0
2, 215453, Note_on_c, 0, 76, 0
2, 215454, Note_on_c, 0, 84, 0
2, 215455, Control_c, 0, 64, 0
2, 215457, Note_on_c, 0, 88, 0
2, 215463, Control_c, 0, 64, 0
2, 216240, Note_on_c, 0, 79, 93
2, 216240, Note_on_c, 0, 72, 89
2, 216240, Note_on_c, 0, 64, 85
2, 216240, Note_on_c, 0, 67, 93
2, 216253, Control_c, 0, 64, 127
2, 216317, Control_c, 0, 64, 127
2, 216330, Note_on_c, 0, 81, 76
2, 216331, Note_on_c, 0, 79, 0
2, 216345, Note_on_c, 0, 83, 76
2, 216347, Note_on_c, 0, 81, 0
2, 216358, Note_on_c, 0, 83, 0
2, 216360, Note_on_c, 0, 86, 98
2, 216363, Control_c, 0, 64, 0
2, 216364, Note_on_c, 0, 64, 0
2, 216366, Note_on_c, 0, 67, 0
2, 216368, Note_on_c, 0, 72, 0
2, 216370, Control_c, 0, 64, 0
2, 216375, Note_on_c, 0, 86, 0
2, 216375, Note_on_c, 0, 84, 76
2, 216390, Note_on_c, 0, 83, 72
2, 216392, Note_on_c, 0, 84, 0
2, 216403, Control_c, 0, 64, 127
2, 216405, Note_on_c, 0, 81, 76
2, 216406, Note_on_c, 0, 83, 0
2, 216411, Note_on_c, 0, 81, 0
2, 216420, Control_c, 0, 64, 0
2, 216420, Note_on_c, 0, 81, 89
2, 216435, Note_on_c, 0, 79, 72
2, 216438, Note_on_c, 0, 81, 0
2, 216447, Control_c, 0, 64, 127
2, 216450, Note_on_c, 0, 77, 62
2, 216451, Note_on_c, 0, 79, 0
2, 216461, Note_on_c, 0, 77, 0
2, 216465, Note_on_c, 0, 76, 80
2, 216473, Note_on_c, 0, 76, 0
2, 216480, Note_on_c, 0, 74, 93
2, 216480, Note_on_c, 0, 69, 85
2, 216480, Note_on_c, 0, 65, 85
2, 216480, Note_on_c, 0, 72, 93
2, 216488, Control_c, 0, 64, 0
2, 216494, Control_c, 0, 64, 127
2, 216510, Control_c, 0, 64, 127
2, 216533, Note_on_c, 0, 74, 0
2, 216539, Control_c, 0, 64, 0
2, 216540, Note_on_c, 0, 76, 76
2, 216555, Note_on_c, 0, 74, 76
2, 216557, Note_on_c, 0, 76, 0
2, 216558, Control_c, 0, 64, 127
2, 216570, Note_on_c, 0, 73, 68
2, 216574, Note_on_c, 0, 74, 0
2, 216583, Note_on_c, 0, 73, 0
2, 216585, Note_on_c, 0, 76, 85
2, 216594, Control_c, 0, 64, 0
2, 216595, Note_on_c, 0, 76, 0
2, 216595, Note_on_c, 0, 72, 0
2, 216595, Note_on_c, 0, 65, 0
2, 216597, Note_on_c, 0, 69, 0
2, 216598, Control_c, 0, 64, 0
2, 216600, Note_on_c, 0, 79, 93
2, 216615, Note_on_c, 0, 79, 0
2, 216615, Note_on_c, 0, 77, 85
2, 216630, Control_c, 0, 64, 127
2, 216630, Note_on_c, 0, 76, 76
2, 216632, Note_on_c, 0, 77, 0
2, 216643, Note_on_c, 0, 76, 0
2, 216645, Note_on_c, 0, 74, 76
2, 216652, Note_on_c, 0, 74, 0
2, 216659, Control_c, 0, 64, 0
2, 216660, Note_on_c, 0, 74, 89
2, 216675, Note_on_c, 0, 74, 0
2, 216675, Note_on_c, 0, 72, 72
2, 216684, Control_c, 0, 64, 127
2, 216687, Note_on_c, 0, 72, 0
2, 216690, Note_on_c, 0, 71, 76
2, 216705, Note_on_c, 0, 69, 72
2, 216706, Note_on_c, 0, 71, 0
2, 216715, Note_on_c, 0, 69, 0
2, 216720, Note_on_c, 0, 69, 59
2, 216725, Control_c, 0, 64, 0
2, 216734, Note_on_c, 0, 69, 0
2, 216735, Note_on_c, 0, 67, 76
2, 216748, Note_on_c, 0, 67, 0
2, 216750, Note_on_c, 0, 65, 76
2, 216765, Note_on_c, 0, 64, 64
2, 216767, Note_on_c, 0, 65, 0
2, 216777, Note_on_c, 0, 64, 0
2, 216780, Note_on_c, 0, 65, 89
2, 216795, Note_on_c, 0, 67, 80
2, 216797, Note_on_c, 0, 65, 0
2, 216805, Control_c, 0, 64, 127
2, 216808, Note_on_c, 0, 67, 0
2, 216810, Note_on_c, 0, 69, 80
2, 216824, Note_on_c, 0, 69, 0
2, 216825, Note_on_c, 0, 71, 68
2, 216840, Note_on_c, 0, 71, 0
2, 216840, Note_on_c, 0, 72, 89
2, 216840, Control_c, 0, 64, 0
2, 216855, Note_on_c, 0, 74, 76
2, 216856, Note_on_c, 0, 72, 0
2, 216866, Note_on_c, 0, 74, 0
2, 216866, Control_c, 0, 64, 127
2, 216870, Note_on_c, 0, 76, 80
2, 216880, Note_on_c, 0, 76, 0
2, 216885, Note_on_c, 0, 77, 72
2, 216898, Control_c, 0, 64, 0
2, 216900, Note_on_c, 0, 79, 72
2, 216903, Note_on_c, 0, 77, 0
2, 216914, Note_on_c, 0, 79, 0
2, 216915, Note_on_c, 0, 81, 68
2, 216918, Control_c, 0, 64, 127
2, 216930, Note_on_c, 0, 83, 76
2, 216931, Note_on_c, 0, 81, 0
2, 216945, Note_on_c, 0, 83, 0
2, 216945, Note_on_c, 0, 84, 85
2, 216951, Note_on_c, 0, 84, 0
2, 216960, Note_on_c, 0, 76, 72
2, 216960, Note_on_c, 0, 55, 68
2, 216964, Control_c, 0, 64, 0
2, 216973, Control_c, 0, 64, 127
2, 216974, Note_on_c, 0, 76, 0
2, 216975, Note_on_c, 0, 74, 72
2, 216979, Note_on_c, 0, 55, 0
2, 216980, Note_on_c, 0, 59, 68
2, 216989, Note_on_c, 0, 74, 0
2, 216990, Note_on_c, 0, 76, 60
2, 216991, Control_c, 0, 64, 127
2, 216999, Note_on_c, 0, 59, 0
2, 217000, Note_on_c, 0, 65, 80
2, 217004, Note_on_c, 0, 76, 0
2, 217005, Note_on_c, 0, 74, 64
2, 217018, Control_c, 0, 64, 0
2, 217019, Note_on_c, 0, 74, 0
2, 217019, Note_on_c, 0, 65, 0
2, 217020, Note_on_c, 0, 76, 85
2, 217020, Note_on_c, 0, 55, 64
2, 217023, Control_c, 0, 64, 0
2, 217034, Note_on_c, 0, 76, 0
2, 217035, Note_on_c, 0, 74, 62
2, 217039, Note_on_c, 0, 55, 0
2, 217039, Control_c, 0, 64, 127
2, 217040, Note_on_c, 0, 59, 76
2, 217041, Control_c, 0, 64, 127
2, 217049, Note_on_c, 0, 74, 0
2, 217050, Note_on_c, 0, 76, 72
2, 217054, Control_c, 0, 64, 0
2, 217059, Note_on_c, 0, 59, 0
2, 217060, Note_on_c, 0, 65, 72
2, 217064, Note_on_c, 0, 76, 0
2, 217065, Note_on_c, 0, 74, 60
2, 217078, Control_c, 0, 64, 0
2, 217079, Note_on_c, 0, 74, 0
2, 217079, Note_on_c, 0, 65, 0
2, 217080, Note_on_c, 0, 76, 72
2, 217080, Note_on_c, 0, 55, 60
2, 217094, Note_on_c, 0, 76, 0
2, 217095, Note_on_c, 0, 74, 53
2, 217099, Note_on_c, 0, 55, 0
2, 217100, Note_on_c, 0, 59, 76
2, 217104, Control_c, 0, 64, 127
2, 217109, Note_on_c, 0, 74, 0
2, 217110, Note_on_c, 0, 76, 56
2, 217119, Note_on_c, 0, 59, 0
2, 217120, Note_on_c, 0, 65, 68
2, 217124, Note_on_c, 0, 76, 0
2, 217125, Note_on_c, 0, 74, 64
2, 217139, Note_on_c, 0, 74, 0
2, 217139, Note_on_c, 0, 65, 0
2, 217140, Note_on_c, 0, 76, 64
2, 217140, Note_on_c, 0, 55, 62
2, 217145, Control_c, 0, 64, 0
2, 217154, Note_on_c, 0, 76, 0
2, 217155, Note_on_c, 0, 74, 60
2, 217159, Note_on_c, 0, 55, 0
2, 217160, Note_on_c, 0, 59, 80
2, 217168, Control_c, 0, 64, 127
2, 217169, Note_on_c, 0, 74, 0
2, 217170, Note_on_c, 0, 72, 64
2, 217179, Note_on_c, 0, 59, 0
2, 217180, Note_on_c, 0, 65, 80
2, 217184, Note_on_c, 0, 72, 0
2, 217185, Note_on_c, 0, 74, 72
2, 217199, Note_on_c, 0, 74, 0
2, 217199, Note_on_c, 0, 65, 0
2, 217200, Note_on_c, 0, 72, 76
2, 217200, Note_on_c, 0, 60, 55
2, 217200, Note_on_c, 0, 64, 85
2, 217203, Control_c, 0, 64, 0
2, 217230, Control_c, 0, 64, 127
2, 217292, Note_on_c, 0, 60, 0
2, 217296, Note_on_c, 0, 64, 0
2, 217314, Control_c, 0, 64, 0
2, 217319, Note_on_c, 0, 72, 0
2, 217620, Note_on_c, 0, 81, 89
2, 217620, Note_on_c, 0, 89, 89
2, 217634, Control_c, 0, 64, 127
2, 217671, Note_on_c, 0, 81, 0
2, 217679, Control_c, 0, 64, 0
2, 217680, Note_on_c, 0, 79, 59
2, 217699, Control_c, 0, 64, 127
2, 217707, Note_on_c, 0, 89, 0
2, 217710, Note_on_c, 0, 88, 68
2, 217732, Note_on_c, 0, 79, 0
2, 217738, Control_c, 0, 64, 0
2, 217740, Note_on_c, 0, 77, 68
2, 217740, Note_on_c, 0, 65, 76
2, 217758, Control_c, 0, 64, 127
2, 217761, Control_c, 0, 64, 127
2, 217763, Note_on_c, 0, 88, 0
2, 217770, Note_on_c, 0, 86, 64
2, 217791, Note_on_c, 0, 77, 0
2, 217794, Control_c, 0, 64, 0
2, 217796, Control_c, 0, 64, 0
2, 217800, Note_on_c, 0, 76, 68
2, 217800, Note_on_c, 0, 67, 85
2, 217801, Note_on_c, 0, 65, 0
2, 217818, Control_c, 0, 64, 127
2, 217823, Control_c, 0, 64, 127
2, 217824, Note_on_c, 0, 86, 0
2, 217830, Note_on_c, 0, 84, 76
2, 217847, Control_c, 0, 64, 0
2, 217850, Note_on_c, 0, 76, 0
2, 217856, Control_c, 0, 64, 0
2, 217859, Note_on_c, 0, 67, 0
2, 217860, Note_on_c, 0, 74, 60
2, 217860, Note_on_c, 0, 55, 62
2, 217863, Note_on_c, 0, 84, 0
2, 217874, Control_c, 0, 64, 127
2, 217880, Control_c, 0, 64, 127
2, 217890, Note_on_c, 0, 83, 72
2, 217914, Control_c, 0, 64, 0
2, 217917, Note_on_c, 0, 55, 0
2, 217918, Control_c, 0, 64, 0
2, 217920, Note_on_c, 0, 74, 0
2, 217920, Note_on_c, 0, 84, 76
2, 217922, Note_on_c, 0, 83, 0
2, 217934, Control_c, 0, 64, 127
2, 218044, Control_c, 0, 64, 0
2, 218045, Note_on_c, 0, 84, 0
2, 218340, Note_on_c, 0, 80, 98
2, 218349, Control_c, 0, 64, 127
2, 218360, Note_on_c, 0, 84, 76
2, 218361, Note_on_c, 0, 80, 0
2, 218376, Note_on_c, 0, 84, 0
2, 218380, Note_on_c, 0, 89, 80
2, 218391, Control_c, 0, 64, 0
2, 218400, Note_on_c, 0, 79, 93
2, 218402, Note_on_c, 0, 89, 0
2, 218419, Control_c, 0, 64, 127
2, 218420, Note_on_c, 0, 84, 72
2, 218428, Note_on_c, 0, 79, 0
2, 218439, Note_on_c, 0, 84, 0
2, 218440, Note_on_c, 0, 87, 76
2, 218458, Control_c, 0, 64, 0
2, 218460, Note_on_c, 0, 87, 0
2, 218460, Note_on_c, 0, 77, 85
2, 218460, Note_on_c, 0, 65, 85
2, 218473, Control_c, 0, 64, 127
2, 218480, Note_on_c, 0, 80, 72
2, 218484, Note_on_c, 0, 77, 0
2, 218485, Control_c, 0, 64, 127
2, 218496, Note_on_c, 0, 80, 0
2, 218500, Note_on_c, 0, 86, 64
2, 218513, Note_on_c, 0, 86, 0
2, 218518, Note_on_c, 0, 65, 0
2, 218520, Note_on_c, 0, 75, 76
2, 218520, Control_c, 0, 64, 0
2, 218520, Note_on_c, 0, 67, 76
2, 218527, Control_c, 0, 64, 0
2, 218540, Note_on_c, 0, 79, 72
2, 218541, Control_c, 0, 64, 127
2, 218545, Note_on_c, 0, 75, 0
2, 218559, Note_on_c, 0, 79, 0
2, 218560, Note_on_c, 0, 84, 85
2, 218577, Note_on_c, 0, 67, 0
2, 218578, Note_on_c, 0, 84, 0
2, 218580, Note_on_c, 0, 74, 80
2, 218582, Control_c, 0, 64, 0
2, 218600, Note_on_c, 0, 77, 59
2, 218603, Note_on_c, 0, 74, 0
2, 218604, Control_c, 0, 64, 127
2, 218619, Note_on_c, 0, 77, 0
2, 218620, Note_on_c, 0, 83, 80
2, 218635, Control_c, 0, 64, 0
2, 218639, Note_on_c, 0, 83, 0
2, 218640, Note_on_c, 0, 72, 85
2, 218640, Note_on_c, 0, 84, 80
2, 218640, Note_on_c, 0, 77, 89
2, 218661, Control_c, 0, 64, 127
2, 218763, Note_on_c, 0, 72, 0
2, 218765, Note_on_c, 0, 77, 0
2, 218767, Note_on_c, 0, 84, 0
2, 218813, Control_c, 0, 64, 0
2, 218820, Note_on_c, 0, 81, 89
2, 218830, Control_c, 0, 64, 127
2, 218835, Note_on_c, 0, 89, 85
2, 218839, Note_on_c, 0, 81, 0
2, 218849, Note_on_c, 0, 89, 0
2, 218850, Note_on_c, 0, 84, 76
2, 218865, Note_on_c, 0, 89, 89
2, 218866, Note_on_c, 0, 84, 0
2, 218878, Control_c, 0, 64, 0
2, 218879, Note_on_c, 0, 89, 0
2, 218880, Note_on_c, 0, 79, 76
2, 218895, Control_c, 0, 64, 127
2, 218895, Note_on_c, 0, 88, 80
2, 218898, Note_on_c, 0, 79, 0
2, 218907, Note_on_c, 0, 88, 0
2, 218910, Note_on_c, 0, 84, 64
2, 218925, Note_on_c, 0, 88, 85
2, 218926, Note_on_c, 0, 84, 0
2, 218936, Note_on_c, 0, 88, 0
2, 218940, Note_on_c, 0, 77, 76
2, 218940, Note_on_c, 0, 69, 89
2, 218941, Control_c, 0, 64, 0
2, 218955, Note_on_c, 0, 86, 80
2, 218955, Control_c, 0, 64, 127
2, 218956, Note_on_c, 0, 77, 0
2, 218956, Control_c, 0, 64, 127
2, 218970, Note_on_c, 0, 86, 0
2, 218970, Note_on_c, 0, 81, 68
2, 218984, Note_on_c, 0, 81, 0
2, 218985, Note_on_c, 0, 86, 85
2, 218994, Note_on_c, 0, 69, 0
2, 218995, Control_c, 0, 64, 0
2, 218995, Control_c, 0, 64, 0
2, 218997, Note_on_c, 0, 86, 0
2, 219000, Note_on_c, 0, 76, 76
2, 219000, Note_on_c, 0, 67, 93
2, 219011, Control_c, 0, 64, 127
2, 219015, Note_on_c, 0, 76, 0
2, 219015, Note_on_c, 0, 84, 80
2, 219021, Control_c, 0, 64, 127
2, 219030, Note_on_c, 0, 84, 0
2, 219030, Note_on_c, 0, 79, 62
2, 219045, Note_on_c, 0, 79, 0
2, 219045, Note_on_c, 0, 84, 76
2, 219047, Control_c, 0, 64, 0
2, 219056, Note_on_c, 0, 84, 0
2, 219057, Control_c, 0, 64, 0
2, 219060, Note_on_c, 0, 74, 59
2, 219060, Note_on_c, 0, 65, 89
2, 219061, Note_on_c, 0, 67, 0
2, 219067, Control_c, 0, 64, 127
2, 219074, Note_on_c, 0, 74, 0
2, 219075, Note_on_c, 0, 83, 76
2, 219075, Control_c, 0, 64, 127
2, 219089, Note_on_c, 0, 83, 0
2, 219090, Note_on_c, 0, 77, 80
2, 219094, Note_on_c, 0, 65, 0
2, 219105, Note_on_c, 0, 77, 0
2, 219105, Note_on_c, 0, 83, 89
2, 219111, Control_c, 0, 64, 0
2, 219115, Control_c, 0, 64, 0
2, 219119, Note_on_c, 0, 83, 0
2, 219120, Note_on_c, 0, 84, 76
2, 219120, Note_on_c, 0, 64, 72
2, 219130, Control_c, 0, 64, 127
2, 219135, Note_on_c, 0, 64, 0
2, 219149, Note_on_c, 0, 84, 0
2, 219150, Note_on_c, 0, 76, 64
2, 219150, Note_on_c, 0, 64, 76
2, 219152, Control_c, 0, 64, 0
2, 219165, Note_on_c, 0, 64, 0
2, 219180, Note_on_c, 0, 77, 56
2, 219180, Note_on_c, 0, 65, 59
2, 219182, Note_on_c, 0, 76, 0
2, 219201, Note_on_c, 0, 65, 0
2, 219209, Note_on_c, 0, 77, 0
2, 219210, Note_on_c, 0, 78, 56
2, 219210, Note_on_c, 0, 66, 59
2, 219240, Note_on_c, 0, 66, 0
2, 219240, Note_on_c, 0, 78, 0
2, 219240, Note_on_c, 0, 79, 47
2, 219240, Note_on_c, 0, 67, 56
2, 219268, Note_on_c, 0, 67, 0
2, 219270, Note_on_c, 0, 79, 0
2, 219270, Note_on_c, 0, 80, 57
2, 219270, Note_on_c, 0, 68, 62
2, 219299, Note_on_c, 0, 68, 0
2, 219300, Note_on_c, 0, 81, 55
2, 219300, Note_on_c, 0, 69, 52
2, 219302, Note_on_c, 0, 80, 0
2, 219327, Note_on_c, 0, 69, 0
2, 219330, Note_on_c, 0, 83, 52
2, 219330, Note_on_c, 0, 71, 72
2, 219333, Note_on_c, 0, 81, 0
2, 219360, Note_on_c, 0, 84, 57
2, 219360, Note_on_c, 0, 72, 62
2, 219361, Note_on_c, 0, 71, 0
2, 219364, Note_on_c, 0, 83, 0
2, 219390, Note_on_c, 0, 83, 56
2, 219390, Note_on_c, 0, 71, 80
2, 219391, Note_on_c, 0, 84, 0
2, 219391, Note_on_c, 0, 72, 0
2, 219420, Note_on_c, 0, 81, 68
2, 219420, Note_on_c, 0, 69, 62
2, 219422, Note_on_c, 0, 71, 0
2, 219425, Note_on_c, 0, 83, 0
2, 219427, Note_on_c, 0, 81, 0
2, 219433, Note_on_c, 0, 69, 0
2, 219450, Note_on_c, 0, 79, 62
2, 219450, Note_on_c, 0, 67, 56
2, 219459, Note_on_c, 0, 79, 0
2, 219463, Note_on_c, 0, 67, 0
2, 219480, Note_on_c, 0, 84, 68
2, 219480, Note_on_c, 0, 72, 64
2, 219491, Control_c, 0, 64, 127
2, 219515, Control_c, 0, 64, 127
2, 219545, Control_c, 0, 64, 0
2, 219547, Note_on_c, 0, 84, 0
2, 219555, Control_c, 0, 64, 0
2, 219557, Note_on_c, 0, 72, 0
2, 219600, Note_on_c, 0, 84, 68
2, 219600, Note_on_c, 0, 72, 85
2, 219609, Control_c, 0, 64, 127
2, 219612, Control_c, 0, 64, 127
2, 219630, Note_on_c, 0, 83, 57
2, 219630, Note_on_c, 0, 71, 51
2, 219632, Note_on_c, 0, 84, 0
2, 219633, Note_on_c, 0, 72, 0
2, 219645, Control_c, 0, 64, 0
2, 219657, Control_c, 0, 64, 0
2, 219658, Note_on_c, 0, 71, 0
2, 219660, Note_on_c, 0, 81, 72
2, 219660, Note_on_c, 0, 69, 68
2, 219661, Note_on_c, 0, 83, 0
2, 219666, Note_on_c, 0, 81, 0
2, 219673, Note_on_c, 0, 69, 0
2, 219690, Note_on_c, 0, 79, 64
2, 219690, Note_on_c, 0, 67, 64
2, 219698, Note_on_c, 0, 79, 0
2, 219701, Note_on_c, 0, 67, 0
2, 219720, Note_on_c, 0, 84, 80
2, 219720, Note_on_c, 0, 72, 72
2, 219732, Control_c, 0, 64, 127
2, 219740, Control_c, 0, 64, 127
2, 219786, Control_c, 0, 64, 0
2, 219794, Note_on_c, 0, 72, 0
2, 219799, Note_on_c, 0, 84, 0
2, 219799, Control_c, 0, 64, 0
2, 219840, Note_on_c, 0, 86, 72
2, 219840, Note_on_c, 0, 74, 80
2, 219852, Note_on_c, 0, 86, 0
2, 219857, Note_on_c, 0, 74, 0
2, 219900, Note_on_c, 0, 86, 80
2, 219900, Note_on_c, 0, 74, 85
2, 219909, Note_on_c, 0, 86, 0
2, 219917, Note_on_c, 0, 74, 0
2, 219960, Note_on_c, 0, 79, 76
2, 219960, Note_on_c, 0, 67, 76
2, 219977, Control_c, 0, 64, 127
2, 219979, Control_c, 0, 64, 127
2, 220044, Note_on_c, 0, 67, 0
2, 220048, Note_on_c, 0, 79, 0
2, 220050, Note_on_c, 0, 81, 62
2, 220050, Note_on_c, 0, 69, 64
2, 220060, Control_c, 0, 64, 0
2, 220063, Control_c, 0, 64, 0
2, 220065, Note_on_c, 0, 83, 57
2, 220065, Note_on_c, 0, 71, 72
2, 220068, Note_on_c, 0, 81, 0
2, 220069, Note_on_c, 0, 69, 0
2, 220079, Note_on_c, 0, 83, 0
2, 220079, Note_on_c, 0, 71, 0
2, 220080, Note_on_c, 0, 84, 76
2, 220080, Note_on_c, 0, 72, 80
2, 220094, Note_on_c, 0, 84, 0
2, 220097, Note_on_c, 0, 72, 0
2, 220140, Note_on_c, 0, 84, 80
2, 220140, Note_on_c, 0, 72, 85
2, 220151, Control_c, 0, 64, 127
2, 220196, Control_c, 0, 64, 0
2, 220200, Note_on_c, 0, 88, 76
2, 220200, Note_on_c, 0, 76, 76
2, 220203, Note_on_c, 0, 84, 0
2, 220204, Note_on_c, 0, 72, 0
2, 220230, Control_c, 0, 64, 127
2, 220251, Note_on_c, 0, 76, 0
2, 220269, Control_c, 0, 64, 127
2, 220290, Note_on_c, 0, 88, 0
2, 220299, Control_c, 0, 64, 0
2, 220312, Control_c, 0, 64, 0
2, 220320, Note_on_c, 0, 84, 64
2, 220320, Note_on_c, 0, 72, 68
2, 220336, Control_c, 0, 64, 127
2, 220344, Control_c, 0, 64, 127
2, 220350, Note_on_c, 0, 83, 72
2, 220350, Note_on_c, 0, 71, 68
2, 220352, Note_on_c, 0, 72, 0
2, 220353, Note_on_c, 0, 84, 0
2, 220356, Control_c, 0, 64, 0
2, 220371, Note_on_c, 0, 71, 0
2, 220377, Control_c, 0, 64, 0
2, 220380, Note_on_c, 0, 81, 62
2, 220380, Note_on_c, 0, 69, 62
2, 220381, Note_on_c, 0, 83, 0
2, 220387, Note_on_c, 0, 81, 0
2, 220392, Note_on_c, 0, 69, 0
2, 220410, Note_on_c, 0, 79, 68
2, 220410, Note_on_c, 0, 67, 59
2, 220418, Note_on_c, 0, 79, 0
2, 220421, Note_on_c, 0, 67, 0
2, 220440, Note_on_c, 0, 84, 76
2, 220440, Note_on_c, 0, 72, 62
2, 220453, Control_c, 0, 64, 127
2, 220462, Control_c, 0, 64, 127
2, 220505, Control_c, 0, 64, 0
2, 220514, Note_on_c, 0, 84, 0
2, 220525, Note_on_c, 0, 72, 0
2, 220538, Control_c, 0, 64, 0
2, 220560, Note_on_c, 0, 84, 64
2, 220560, Note_on_c, 0, 72, 76
2, 220569, Control_c, 0, 64, 127
2, 220578, Control_c, 0, 64, 127
2, 220590, Note_on_c, 0, 72, 0
2, 220590, Note_on_c, 0, 83, 60
2, 220590, Note_on_c, 0, 71, 62
2, 220592, Note_on_c, 0, 84, 0
2, 220603, Control_c, 0, 64, 0
2, 220613, Control_c, 0, 64, 0
2, 220615, Note_on_c, 0, 71, 0
2, 220619, Note_on_c, 0, 83, 0
2, 220620, Note_on_c, 0, 81, 68
2, 220620, Note_on_c, 0, 69, 62
2, 220626, Note_on_c, 0, 81, 0
2, 220632, Note_on_c, 0, 69, 0
2, 220650, Note_on_c, 0, 79, 68
2, 220650, Note_on_c, 0, 67, 64
2, 220658, Note_on_c, 0, 79, 0
2, 220662, Note_on_c, 0, 67, 0
2, 220680, Note_on_c, 0, 84, 68
2, 220680, Note_on_c, 0, 72, 72
2, 220693, Control_c, 0, 64, 127
2, 220700, Control_c, 0, 64, 127
2, 220744, Control_c, 0, 64, 0
2, 220751, Note_on_c, 0, 84, 0
2, 220779, Note_on_c, 0, 72, 0
2, 220787, Control_c, 0, 64, 0
2, 220800, Note_on_c, 0, 86, 76
2, 220800, Note_on_c, 0, 74, 76
2, 220811, Note_on_c, 0, 86, 0
2, 220816, Note_on_c, 0, 74, 0
2, 220860, Note_on_c, 0, 86, 76
2, 220860, Note_on_c, 0, 74, 76
2, 220869, Note_on_c, 0, 86, 0
2, 220876, Note_on_c, 0, 74, 0
2, 220920, Note_on_c, 0, 79, 76
2, 220920, Note_on_c, 0, 67, 62
2, 220932, Control_c, 0, 64, 127
2, 220936, Control_c, 0, 64, 127
2, 221004, Note_on_c, 0, 67, 0
2, 221010, Note_on_c, 0, 81, 62
2, 221010, Note_on_c, 0, 69, 62
2, 221012, Note_on_c, 0, 79, 0
2, 221014, Control_c, 0, 64, 0
2, 221018, Control_c, 0, 64, 0
2, 221025, Note_on_c, 0, 69, 0
2, 221025, Note_on_c, 0, 83, 72
2, 221025, Note_on_c, 0, 71, 60
2, 221028, Note_on_c, 0, 81, 0
2, 221037, Note_on_c, 0, 71, 0
2, 221040, Note_on_c, 0, 84, 72
2, 221040, Note_on_c, 0, 72, 72
2, 221042, Note_on_c, 0, 83, 0
2, 221113, Note_on_c, 0, 72, 0
2, 221113, Note_on_c, 0, 84, 0
2, 221160, Note_on_c, 0, 84, 80
2, 221160, Note_on_c, 0, 72, 80
2, 221295, Note_on_c, 0, 72, 0
2, 221295, Note_on_c, 0, 84, 0
2, 221300, Note_on_c, 0, 83, 89
2, 221300, Note_on_c, 0, 71, 89
2, 221320, Note_on_c, 0, 88, 76
2, 221320, Note_on_c, 0, 76, 76
2, 221322, Note_on_c, 0, 71, 0
2, 221322, Note_on_c, 0, 83, 0
2, 221340, Note_on_c, 0, 86, 93
2, 221340, Note_on_c, 0, 74, 93
2, 221342, Note_on_c, 0, 88, 0
2, 221342, Note_on_c, 0, 76, 0
2, 221360, Note_on_c, 0, 84, 76
2, 221360, Note_on_c, 0, 72, 76
2, 221364, Note_on_c, 0, 86, 0
2, 221364, Note_on_c, 0, 74, 0
2, 221380, Note_on_c, 0, 83, 72
2, 221380, Note_on_c, 0, 71, 72
2, 221387, Note_on_c, 0, 84, 0
2, 221387, Note_on_c, 0, 72, 0
2, 221399, Note_on_c, 0, 83, 0
2, 221399, Note_on_c, 0, 71, 0
2, 221400, Note_on_c, 0, 81, 64
2, 221400, Note_on_c, 0, 69, 64
2, 221420, Note_on_c, 0, 79, 80
2, 221420, Note_on_c, 0, 67, 80
2, 221421, Note_on_c, 0, 69, 0
2, 221421, Note_on_c, 0, 81, 0
2, 221440, Note_on_c, 0, 78, 72
2, 221440, Note_on_c, 0, 66, 72
2, 221443, Note_on_c, 0, 79, 0
2, 221443, Note_on_c, 0, 67, 0
2, 221460, Note_on_c, 0, 79, 89
2, 221460, Note_on_c, 0, 67, 89
2, 221461, Note_on_c, 0, 78, 0
2, 221461, Note_on_c, 0, 66, 0
2, 221480, Note_on_c, 0, 81, 68
2, 221480, Note_on_c, 0, 69, 68
2, 221484, Note_on_c, 0, 79, 0
2, 221484, Note_on_c, 0, 67, 0
2, 221499, Note_on_c, 0, 81, 0
2, 221499, Note_on_c, 0, 69, 0
2, 221500, Note_on_c, 0, 83, 76
2, 221500, Note_on_c, 0, 71, 76
2, 221520, Note_on_c, 0, 84, 80
2, 221520, Note_on_c, 0, 72, 80
2, 221521, Note_on_c, 0, 71, 0
2, 221521, Note_on_c, 0, 83, 0
2, 221551, Note_on_c, 0, 84, 0
2, 221551, Note_on_c, 0, 72, 0
2, 221564, Note_on_c, 0, 79, 80
2, 221564, Note_on_c, 0, 67, 80
2, 221572, Note_on_c, 0, 67, 0
2, 221572, Note_on_c, 0, 79, 0
2, 221580, Note_on_c, 0, 81, 42
2, 221580, Note_on_c, 0, 69, 42
2, 221587, Note_on_c, 0, 79, 89
2, 221587, Note_on_c, 0, 67, 89
2, 221588, Note_on_c, 0, 69, 0
2, 221588, Note_on_c, 0, 81, 0
2, 221595, Note_on_c, 0, 81, 60
2, 221595, Note_on_c, 0, 69, 60
2, 221596, Note_on_c, 0, 79, 0
2, 221596, Note_on_c, 0, 67, 0
2, 221602, Note_on_c, 0, 79, 59
2, 221602, Note_on_c, 0, 67, 59
2, 221607, Note_on_c, 0, 81, 0
2, 221607, Note_on_c, 0, 69, 0
2, 221610, Note_on_c, 0, 78, 51
2, 221610, Note_on_c, 0, 66, 51
2, 221611, Note_on_c, 0, 79, 0
2, 221611, Note_on_c, 0, 67, 0
2, 221620, Note_on_c, 0, 78, 0
2, 221620, Note_on_c, 0, 66, 0
2, 221625, Note_on_c, 0, 79, 80
2, 221625, Note_on_c, 0, 67, 80
2, 221634, Note_on_c, 0, 67, 0
2, 221634, Note_on_c, 0, 79, 0
2, 221646, Note_on_c, 0, 84, 89
2, 221646, Note_on_c, 0, 72, 89
2, 221780, Note_on_c, 0, 83, 93
2, 221780, Note_on_c, 0, 71, 93
2, 221787, Note_on_c, 0, 72, 0
2, 221787, Note_on_c, 0, 84, 0
2, 221800, Note_on_c, 0, 88, 85
2, 221800, Note_on_c, 0, 76, 85
2, 221805, Note_on_c, 0, 83, 0
2, 221805, Note_on_c, 0, 71, 0
2, 221820, Note_on_c, 0, 86, 93
2, 221820, Note_on_c, 0, 74, 93
2, 221824, Note_on_c, 0, 88, 0
2, 221824, Note_on_c, 0, 76, 0
2, 221840, Note_on_c, 0, 84, 68
2, 221840, Note_on_c, 0, 72, 68
2, 221844, Note_on_c, 0, 86, 0
2, 221844, Note_on_c, 0, 74, 0
2, 221860, Note_on_c, 0, 83, 80
2, 221860, Note_on_c, 0, 71, 80
2, 221865, Note_on_c, 0, 84, 0
2, 221865, Note_on_c, 0, 72, 0
2, 221880, Note_on_c, 0, 83, 0
2, 221880, Note_on_c, 0, 71, 0
2, 221880, Note_on_c, 0, 81, 76
2, 221880, Note_on_c, 0, 69, 76
2, 221900, Note_on_c, 0, 69, 0
2, 221900, Note_on_c, 0, 81, 0
2, 221900, Note_on_c, 0, 79, 76
2, 221900, Note_on_c, 0, 67, 76
2, 221920, Note_on_c, 0, 78, 68
2, 221920, Note_on_c, 0, 66, 68
2, 221921, Note_on_c, 0, 67, 0
2, 221921, Note_on_c, 0, 79, 0
2, 221937, Note_on_c, 0, 78, 0
2, 221937, Note_on_c, 0, 66, 0
2, 221940, Note_on_c, 0, 79, 85
2, 221940, Note_on_c, 0, 67, 85
2, 221960, Note_on_c, 0, 81, 76
2, 221960, Note_on_c, 0, 69, 76
2, 221964, Note_on_c, 0, 67, 0
2, 221964, Note_on_c, 0, 79, 0
2, 221980, Note_on_c, 0, 81, 0
2, 221980, Note_on_c, 0, 69, 0
2, 221980, Note_on_c, 0, 83, 64
2, 221980, Note_on_c, 0, 71, 64
2, 222000, Note_on_c, 0, 84, 72
2, 222000, Note_on_c, 0, 72, 72
2, 222001, Note_on_c, 0, 71, 0
2, 222001, Note_on_c, 0, 83, 0
2, 222047, Note_on_c, 0, 84, 0
2, 222047, Note_on_c, 0, 72, 0
2, 222080, Note_on_c, 0, 76, 76
2, 222080, Note_on_c, 0, 64, 76
2, 222100, Note_on_c, 0, 77, 76
2, 222100, Note_on_c, 0, 65, 76
2, 222104, Note_on_c, 0, 64, 0
2, 222104, Note_on_c, 0, 76, 0
2, 222120, Note_on_c, 0, 78, 62
2, 222120, Note_on_c, 0, 66, 62
2, 222121, Note_on_c, 0, 77, 0
2, 222121, Note_on_c, 0, 65, 0
2, 222140, Note_on_c, 0, 78, 0
2, 222140, Note_on_c, 0, 66, 0
2, 222140, Note_on_c, 0, 79, 55
2, 222140, Note_on_c, 0, 67, 55
2, 222160, Note_on_c, 0, 80, 62
2, 222160, Note_on_c, 0, 68, 62
2, 222161, Note_on_c, 0, 67, 0
2, 222161, Note_on_c, 0, 79, 0
2, 222180, Note_on_c, 0, 80, 0
2, 222180, Note_on_c, 0, 68, 0
2, 222180, Note_on_c, 0, 81, 56
2, 222180, Note_on_c, 0, 69, 56
2, 222199, Note_on_c, 0, 69, 0
2, 222199, Note_on_c, 0, 81, 0
2, 222200, Note_on_c, 0, 82, 53
2, 222200, Note_on_c, 0, 70, 53
2, 222215, Note_on_c, 0, 70, 0
2, 222215, Note_on_c, 0, 82, 0
2, 222220, Note_on_c, 0, 83, 57
2, 222220, Note_on_c, 0, 71, 57
2, 222240, Note_on_c, 0, 84, 64
2, 222240, Note_on_c, 0, 72, 64
2, 222241, Note_on_c, 0, 71, 0
2, 222241, Note_on_c, 0, 83, 0
2, 222290, Note_on_c, 0, 84, 0
2, 222290, Note_on_c, 0, 72, 0
2, 222320, Note_on_c, 0, 76, 56
2, 222320, Note_on_c, 0, 64, 56
2, 222340, Note_on_c, 0, 77, 57
2, 222340, Note_on_c, 0, 65, 57
2, 222343, Note_on_c, 0, 64, 0
2, 222343, Note_on_c, 0, 76, 0
2, 222359, Note_on_c, 0, 77, 0
2, 222359, Note_on_c, 0, 65, 0
2, 222360, Note_on_c, 0, 78, 48
2, 222360, Note_on_c, 0, 66, 48
2, 222379, Note_on_c, 0, 66, 0
2, 222379, Note_on_c, 0, 78, 0
2, 222380, Note_on_c, 0, 79, 55
2, 222380, Note_on_c, 0, 67, 55
2, 222400, Note_on_c, 0, 67, 0
2, 222400, Note_on_c, 0, 79, 0
2, 222400, Note_on_c, 0, 80, 52
2, 222400, Note_on_c, 0, 68, 52
2, 222418, Note_on_c, 0, 68, 0
2, 222418, Note_on_c, 0, 80, 0
2, 222420, Note_on_c, 0, 81, 52
2, 222420, Note_on_c, 0, 69, 52
2, 222440, Note_on_c, 0, 69, 0
2, 222440, Note_on_c, 0, 81, 0
2, 222440, Note_on_c, 0, 82, 48
2, 222440, Note_on_c, 0, 70, 48
2, 222460, Note_on_c, 0, 70, 0
2, 222460, Note_on_c, 0, 82, 0
2, 222460, Note_on_c, 0, 83, 49
2, 222460, Note_on_c, 0, 71, 49
2, 222478, Note_on_c, 0, 71, 0
2, 222478, Note_on_c, 0, 83, 0
2, 222480, Note_on_c, 0, 84, 74
2, 222480, Note_on_c, 0, 72, 74
2, 222534, Note_on_c, 0, 72, 0
2, 222534, Note_on_c, 0, 84, 0
2, 222600, Note_on_c, 0, 88, 102
2, 222600, Note_on_c, 0, 84, 102
2, 222600, Note_on_c, 0, 79, 97
2, 222600, Note_on_c, 0, 76, 102
2, 222600, Note_on_c, 0, 72, 102
2, 222600, Note_on_c, 0, 67, 97
2, 222622, Control_c, 0, 64, 127
2, 222622, Control_c, 0, 64, 127
2, 222663, Note_on_c, 0, 67, 0
2, 222663, Note_on_c, 0, 84, 0
2, 222663, Note_on_c, 0, 79, 0
2, 222663, Note_on_c, 0, 88, 0
2, 222663, Note_on_c, 0, 72, 0
2, 222663, Note_on_c, 0, 76, 0
2, 222670, Control_c, 0, 64, 0
2, 222670, Control_c, 0, 64, 0
2, 222720, Note_on_c, 0, 84, 92
2, 222720, Note_on_c, 0, 79, 102
2, 222720, Note_on_c, 0, 76, 92
2, 222720, Note_on_c, 0, 72, 92
2, 222720, Note_on_c, 0, 67, 102
2, 222720, Note_on_c, 0, 64, 92
2, 222730, Control_c, 0, 64, 127
2, 222730, Control_c, 0, 64, 127
2, 222786, Note_on_c, 0, 64, 0
2, 222786, Note_on_c, 0, 76, 0
2, 222787, Note_on_c, 0, 67, 0
2, 222787, Note_on_c, 0, 79, 0
2, 222789, Note_on_c, 0, 84, 0
2, 222789, Note_on_c, 0, 72, 0
2, 222789, Control_c, 0, 64, 0
2, 222789, Control_c, 0, 64, 0
2, 222960, Control_c, 0, 121, 0
2, 222960, End_track
3, 0, Start_track
3, 0, MIDI_port, 0
3, 0, Title_t, "Secondo"
3, 0, Program_c, 1, 0
3, 15, Control_c, 1, 121, 0
3, 15, Control_c, 1, 7, 127
3, 15, Control_c, 1, 10, 44
3, 15, Control_c, 1, 91, 101
3, 480, Note_on_c, 1, 48, 107
3, 480, Note_on_c, 1, 36, 107
3, 491, Control_c, 1, 64, 127
3, 686, Note_on_c, 1, 36, 0
3, 688, Note_on_c, 1, 48, 0
3, 690, Note_on_c, 1, 31, 93
3, 690, Note_on_c, 1, 43, 93
3, 694, Control_c, 1, 64, 0
3, 720, Note_on_c, 1, 40, 89
3, 720, Note_on_c, 1, 52, 98
3, 724, Note_on_c, 1, 43, 0
3, 724, Note_on_c, 1, 31, 0
3, 781, Control_c, 1, 64, 127
3, 929, Note_on_c, 1, 40, 0
3, 930, Note_on_c, 1, 52, 0
3, 930, Note_on_c, 1, 36, 85
3, 930, Note_on_c, 1, 48, 93
3, 958, Control_c, 1, 64, 0
3, 960, Note_on_c, 1, 43, 89
3, 960, Note_on_c, 1, 55, 93
3, 961, Note_on_c, 1, 48, 0
3, 962, Note_on_c, 1, 36, 0
3, 977, Note_on_c, 1, 55, 0
3, 979, Note_on_c, 1, 43, 0
3, 1020, Note_on_c, 1, 52, 98
3, 1020, Note_on_c, 1, 40, 93
3, 1034, Note_on_c, 1, 40, 0
3, 1036, Note_on_c, 1, 52, 0
3, 1080, Note_on_c, 1, 57, 107
3, 1080, Note_on_c, 1, 45, 107
3, 1106, Control_c, 1, 64, 127
3, 1257, Note_on_c, 1, 45, 0
3, 1259, Note_on_c, 1, 57, 0
3, 1260, Note_on_c, 1, 55, 93
3, 1260, Note_on_c, 1, 43, 89
3, 1265, Control_c, 1, 64, 0
3, 1286, Control_c, 1, 64, 127
3, 1319, Control_c, 1, 64, 0
3, 1320, Note_on_c, 1, 53, 89
3, 1320, Note_on_c, 1, 41, 89
3, 1322, Note_on_c, 1, 43, 0
3, 1325, Note_on_c, 1, 55, 0
3, 1339, Control_c, 1, 64, 127
3, 1375, Control_c, 1, 64, 0
3, 1379, Note_on_c, 1, 41, 0
3, 1380, Note_on_c, 1, 52, 98
3, 1380, Note_on_c, 1, 40, 89
3, 1382, Note_on_c, 1, 53, 0
3, 1393, Control_c, 1, 64, 127
3, 1433, Control_c, 1, 64, 0
3, 1439, Note_on_c, 1, 52, 0
3, 1440, Note_on_c, 1, 53, 98
3, 1440, Note_on_c, 1, 41, 85
3, 1443, Note_on_c, 1, 40, 0
3, 1455, Control_c, 1, 64, 127
3, 1497, Control_c, 1, 64, 0
3, 1498, Note_on_c, 1, 41, 0
3, 1499, Note_on_c, 1, 53, 0
3, 1500, Note_on_c, 1, 50, 98
3, 1500, Note_on_c, 1, 38, 89
3, 1513, Control_c, 1, 64, 127
3, 1560, Note_on_c, 1, 55, 98
3, 1560, Note_on_c, 1, 43, 89
3, 1561, Note_on_c, 1, 38, 0
3, 1563, Note_on_c, 1, 50, 0
3, 1563, Control_c, 1, 64, 0
3, 1588, Control_c, 1, 64, 127
3, 1740, Note_on_c, 1, 43, 0
3, 1740, Note_on_c, 1, 41, 89
3, 1740, Note_on_c, 1, 53, 89
3, 1740, Control_c, 1, 64, 0
3, 1741, Note_on_c, 1, 55, 0
3, 1762, Control_c, 1, 64, 127
3, 1795, Control_c, 1, 64, 0
3, 1799, Note_on_c, 1, 41, 0
3, 1800, Note_on_c, 1, 40, 80
3, 1800, Note_on_c, 1, 52, 93
3, 1801, Note_on_c, 1, 53, 0
3, 1811, Control_c, 1, 64, 127
3, 1857, Control_c, 1, 64, 0
3, 1860, Note_on_c, 1, 40, 0
3, 1860, Note_on_c, 1, 50, 89
3, 1860, Note_on_c, 1, 38, 93
3, 1863, Note_on_c, 1, 52, 0
3, 1872, Control_c, 1, 64, 127
3, 1919, Control_c, 1, 64, 0
3, 1920, Note_on_c, 1, 40, 89
3, 1920, Note_on_c, 1, 52, 89
3, 1921, Note_on_c, 1, 50, 0
3, 1925, Note_on_c, 1, 38, 0
3, 1936, Control_c, 1, 64, 127
3, 1980, Note_on_c, 1, 48, 93
3, 1980, Note_on_c, 1, 36, 89
3, 1981, Note_on_c, 1, 52, 0
3, 1982, Control_c, 1, 64, 0
3, 1984, Note_on_c, 1, 40, 0
3, 2000, Control_c, 1, 64, 127
3, 2040, Note_on_c, 1, 41, 85
3, 2040, Note_on_c, 1, 53, 93
3, 2042, Note_on_c, 1, 36, 0
3, 2043, Control_c, 1, 64, 0
3, 2044, Note_on_c, 1, 48, 0
3, 2059, Control_c, 1, 64, 127
3, 2098, Note_on_c, 1, 53, 0
3, 2099, Note_on_c, 1, 41, 0
3, 2100, Note_on_c, 1, 50, 98
3, 2100, Note_on_c, 1, 38, 89
3, 2103, Control_c, 1, 64, 0
3, 2119, Control_c, 1, 64, 127
3, 2157, Note_on_c, 1, 50, 0
3, 2159, Note_on_c, 1, 38, 0
3, 2160, Note_on_c, 1, 47, 93
3, 2160, Note_on_c, 1, 35, 85
3, 2160, Control_c, 1, 64, 0
3, 2176, Control_c, 1, 64, 127
3, 2215, Control_c, 1, 64, 0
3, 2219, Note_on_c, 1, 47, 0
3, 2220, Note_on_c, 1, 35, 0
3, 2220, Note_on_c, 1, 31, 89
3, 2220, Note_on_c, 1, 43, 93
3, 2235, Control_c, 1, 64, 127
3, 2278, Note_on_c, 1, 43, 0
3, 2280, Note_on_c, 1, 31, 0
3, 2280, Note_on_c, 1, 33, 89
3, 2280, Note_on_c, 1, 45, 107
3, 2280, Control_c, 1, 64, 0
3, 2297, Control_c, 1, 64, 127
3, 2335, Control_c, 1, 64, 0
3, 2339, Note_on_c, 1, 45, 0
3, 2340, Note_on_c, 1, 47, 98
3, 2340, Note_on_c, 1, 35, 89
3, 2344, Note_on_c, 1, 33, 0
3, 2351, Control_c, 1, 64, 127
3, 2368, Note_on_c, 1, 35, 0
3, 2377, Note_on_c, 1, 47, 0
3, 2399, Control_c, 1, 64, 0
3, 2400, Note_on_c, 1, 36, 59
3, 2400, Note_on_c, 1, 48, 80
3, 2413, Control_c, 1, 64, 127
3, 2426, Note_on_c, 1, 48, 0
3, 2452, Note_on_c, 1, 36, 0
3, 2460, Note_on_c, 1, 48, 62
3, 2463, Control_c, 1, 64, 0
3, 2472, Control_c, 1, 64, 127
3, 2520, Note_on_c, 1, 48, 0
3, 2520, Note_on_c, 1, 36, 62
3, 2521, Control_c, 1, 64, 0
3, 2534, Control_c, 1, 64, 127
3, 2579, Note_on_c, 1, 36, 0
3, 2580, Note_on_c, 1, 48, 64
3, 2638, Control_c, 1, 64, 0
3, 2640, Note_on_c, 1, 36, 62
3, 2641, Note_on_c, 1, 48, 0
3, 2650, Control_c, 1, 64, 127
3, 2696, Control_c, 1, 64, 0
3, 2699, Note_on_c, 1, 36, 0
3, 2700, Note_on_c, 1, 60, 62
3, 2700, Note_on_c, 1, 48, 46
3, 2700, Note_on_c, 1, 52, 60
3, 2705, Control_c, 1, 64, 127
3, 2734, Note_on_c, 1, 52, 0
3, 2734, Note_on_c, 1, 60, 0
3, 2752, Note_on_c, 1, 48, 0
3, 2756, Control_c, 1, 64, 0
3, 2760, Note_on_c, 1, 53, 62
3, 2760, Note_on_c, 1, 36, 59
3, 2760, Note_on_c, 1, 62, 76
3, 2766, Control_c, 1, 64, 127
3, 2800, Note_on_c, 1, 62, 0
3, 2800, Note_on_c, 1, 53, 0
3, 2817, Note_on_c, 1, 36, 0
3, 2818, Control_c, 1, 64, 0
3, 2820, Note_on_c, 1, 48, 53
3, 2820, Note_on_c, 1, 64, 72
3, 2820, Note_on_c, 1, 55, 62
3, 2828, Control_c, 1, 64, 127
3, 2853, Note_on_c, 1, 55, 0
3, 2856, Note_on_c, 1, 64, 0
3, 2874, Note_on_c, 1, 48, 0
3, 2880, Note_on_c, 1, 65, 64
3, 2880, Note_on_c, 1, 36, 57
3, 2880, Note_on_c, 1, 57, 56
3, 2883, Control_c, 1, 64, 0
3, 2898, Control_c, 1, 64, 127
3, 2917, Note_on_c, 1, 57, 0
3, 2919, Note_on_c, 1, 65, 0
3, 2936, Note_on_c, 1, 36, 0
3, 2938, Control_c, 1, 64, 0
3, 2940, Note_on_c, 1, 48, 62
3, 2954, Control_c, 1, 64, 127
3, 3000, Note_on_c, 1, 36, 59
3, 3000, Note_on_c, 1, 69, 76
3, 3000, Note_on_c, 1, 60, 55
3, 3001, Control_c, 1, 64, 0
3, 3004, Note_on_c, 1, 48, 0
3, 3017, Control_c, 1, 64, 127
3, 3044, Note_on_c, 1, 69, 0
3, 3047, Note_on_c, 1, 60, 0
3, 3053, Note_on_c, 1, 36, 0
3, 3060, Note_on_c, 1, 48, 56
3, 3063, Control_c, 1, 64, 0
3, 3111, Control_c, 1, 64, 127
3, 3120, Note_on_c, 1, 36, 49
3, 3120, Note_on_c, 1, 59, 62
3, 3120, Note_on_c, 1, 62, 76
3, 3125, Note_on_c, 1, 48, 0
3, 3178, Note_on_c, 1, 36, 0
3, 3178, Control_c, 1, 64, 0
3, 3179, Note_on_c, 1, 59, 0
3, 3179, Note_on_c, 1, 62, 0
3, 3180, Note_on_c, 1, 48, 60
3, 3240, Note_on_c, 1, 36, 60
3, 3240, Note_on_c, 1, 65, 72
3, 3240, Note_on_c, 1, 62, 76
3, 3243, Note_on_c, 1, 48, 0
3, 3243, Control_c, 1, 64, 127
3, 3289, Note_on_c, 1, 62, 0
3, 3289, Note_on_c, 1, 65, 0
3, 3289, Control_c, 1, 64, 0
3, 3299, Note_on_c, 1, 36, 0
3, 3300, Note_on_c, 1, 48, 60
3, 3312, Control_c, 1, 64, 127
3, 3356, Note_on_c, 1, 48, 0
3, 3360, Note_on_c, 1, 36, 59
3, 3360, Note_on_c, 1, 60, 57
3, 3360, Note_on_c, 1, 64, 72
3, 3361, Control_c, 1, 64, 0
3, 3380, Control_c, 1, 64, 127
3, 3414, Note_on_c, 1, 64, 0
3, 3416, Note_on_c, 1, 36, 0
3, 3416, Control_c, 1, 64, 0
3, 3420, Note_on_c, 1, 65, 76
3, 3420, Note_on_c, 1, 48, 68
3, 3435, Note_on_c, 1, 64, 76
3, 3439, Note_on_c, 1, 65, 0
3, 3450, Note_on_c, 1, 62, 76
3, 3453, Note_on_c, 1, 64, 0
3, 3476, Note_on_c, 1, 62, 0
3, 3479, Note_on_c, 1, 48, 0
3, 3480, Note_on_c, 1, 64, 85
3, 3480, Note_on_c, 1, 36, 72
3, 3486, Control_c, 1, 64, 127
3, 3490, Note_on_c, 1, 60, 0
3, 3494, Note_on_c, 1, 64, 0
3, 3504, Note_on_c, 1, 36, 0
3, 3511, Control_c, 1, 64, 0
3, 3540, Note_on_c, 1, 65, 72
3, 3540, Note_on_c, 1, 62, 76
3, 3540, Note_on_c, 1, 48, 60
3, 3544, Control_c, 1, 64, 127
3, 3555, Note_on_c, 1, 62, 0
3, 3557, Note_on_c, 1, 65, 0
3, 3562, Note_on_c, 1, 48, 0
3, 3582, Control_c, 1, 64, 0
3, 3600, Note_on_c, 1, 64, 62
3, 3600, Note_on_c, 1, 67, 72
3, 3600, Note_on_c, 1, 36, 68
3, 3606, Control_c, 1, 64, 127
3, 3653, Note_on_c, 1, 64, 0
3, 3654, Note_on_c, 1, 67, 0
3, 3656, Note_on_c, 1, 36, 0
3, 3658, Control_c, 1, 64, 0
3, 4613, Control_c, 1, 64, 127
3, 4620, Note_on_c, 1, 60, 76
3, 4620, Note_on_c, 1, 52, 64
3, 4648, Note_on_c, 1, 52, 0
3, 4649, Note_on_c, 1, 60, 0
3, 4678, Control_c, 1, 64, 0
3, 4680, Note_on_c, 1, 62, 72
3, 4680, Note_on_c, 1, 53, 64
3, 4693, Control_c, 1, 64, 127
3, 4707, Note_on_c, 1, 62, 0
3, 4708, Note_on_c, 1, 53, 0
3, 4724, Control_c, 1, 64, 0
3, 4738, Control_c, 1, 64, 127
3, 4740, Note_on_c, 1, 55, 60
3, 4740, Note_on_c, 1, 64, 76
3, 4760, Note_on_c, 1, 55, 0
3, 4765, Note_on_c, 1, 64, 0
3, 4800, Note_on_c, 1, 65, 80
3, 4800, Note_on_c, 1, 57, 59
3, 4800, Note_on_c, 1, 36, 57
3, 4801, Control_c, 1, 64, 0
3, 4816, Control_c, 1, 64, 127
3, 4851, Note_on_c, 1, 57, 0
3, 4857, Note_on_c, 1, 36, 0
3, 4857, Note_on_c, 1, 65, 0
3, 4860, Note_on_c, 1, 48, 62
3, 4866, Control_c, 1, 64, 0
3, 4879, Control_c, 1, 64, 127
3, 4920, Note_on_c, 1, 36, 55
3, 4920, Note_on_c, 1, 60, 62
3, 4920, Note_on_c, 1, 69, 76
3, 4923, Control_c, 1, 64, 0
3, 4925, Note_on_c, 1, 48, 0
3, 4938, Control_c, 1, 64, 127
3, 4965, Note_on_c, 1, 69, 0
3, 4965, Note_on_c, 1, 60, 0
3, 4979, Note_on_c, 1, 36, 0
3, 4980, Note_on_c, 1, 48, 64
3, 4984, Control_c, 1, 64, 0
3, 5003, Control_c, 1, 64, 127
3, 5040, Note_on_c, 1, 36, 59
3, 5040, Note_on_c, 1, 62, 76
3, 5040, Note_on_c, 1, 59, 76
3, 5042, Note_on_c, 1, 48, 0
3, 5043, Control_c, 1, 64, 0
3, 5059, Control_c, 1, 64, 127
3, 5089, Note_on_c, 1, 59, 0
3, 5093, Note_on_c, 1, 62, 0
3, 5096, Note_on_c, 1, 36, 0
3, 5100, Note_on_c, 1, 48, 68
3, 5103, Control_c, 1, 64, 0
3, 5155, Note_on_c, 1, 48, 0
3, 5160, Note_on_c, 1, 36, 60
3, 5160, Note_on_c, 1, 65, 76
3, 5160, Note_on_c, 1, 62, 64
3, 5168, Control_c, 1, 64, 127
3, 5191, Note_on_c, 1, 65, 0
3, 5205, Note_on_c, 1, 62, 0
3, 5218, Note_on_c, 1, 36, 0
3, 5220, Note_on_c, 1, 48, 62
3, 5242, Note_on_c, 1, 48, 0
3, 5271, Control_c, 1, 64, 0
3, 5280, Note_on_c, 1, 36, 57
3, 5280, Note_on_c, 1, 60, 89
3, 5280, Note_on_c, 1, 64, 89
3, 5290, Note_on_c, 1, 64, 0
3, 5331, Note_on_c, 1, 36, 0
3, 5340, Note_on_c, 1, 65, 76
3, 5340, Note_on_c, 1, 48, 68
3, 5355, Note_on_c, 1, 64, 51
3, 5356, Note_on_c, 1, 65, 0
3, 5370, Note_on_c, 1, 62, 68
3, 5372, Note_on_c, 1, 64, 0
3, 5385, Note_on_c, 1, 62, 0
3, 5391, Note_on_c, 1, 48, 0
3, 5400, Note_on_c, 1, 64, 76
3, 5400, Note_on_c, 1, 36, 60
3, 5417, Note_on_c, 1, 64, 0
3, 5419, Note_on_c, 1, 60, 0
3, 5451, Note_on_c, 1, 36, 0
3, 5460, Note_on_c, 1, 65, 80
3, 5460, Note_on_c, 1, 62, 76
3, 5460, Note_on_c, 1, 48, 64
3, 5470, Note_on_c, 1, 62, 0
3, 5471, Note_on_c, 1, 65, 0
3, 5491, Note_on_c, 1, 48, 0
3, 5520, Note_on_c, 1, 36, 72
3, 5520, Note_on_c, 1, 67, 89
3, 5520, Note_on_c, 1, 64, 80
3, 5523, Control_c, 1, 64, 127
3, 5629, Note_on_c, 1, 67, 0
3, 5631, Note_on_c, 1, 64, 0
3, 5632, Note_on_c, 1, 36, 0
3, 5633, Control_c, 1, 64, 0
3, 6060, Note_on_c, 1, 55, 76
3, 6065, Control_c, 1, 64, 127
3, 6120, Note_on_c, 1, 65, 80
3, 6122, Note_on_c, 1, 55, 0
3, 6126, Control_c, 1, 64, 0
3, 6140, Control_c, 1, 64, 127
3, 6177, Note_on_c, 1, 65, 0
3, 6180, Note_on_c, 1, 62, 85
3, 6188, Note_on_c, 1, 62, 0
3, 6240, Note_on_c, 1, 48, 80
3, 6240, Note_on_c, 1, 55, 80
3, 6240, Note_on_c, 1, 52, 72
3, 6240, Note_on_c, 1, 64, 107
3, 6247, Control_c, 1, 64, 0
3, 6270, Note_on_c, 1, 64, 0
3, 6270, Note_on_c, 1, 67, 76
3, 6299, Note_on_c, 1, 67, 0
3, 6300, Note_on_c, 1, 65, 68
3, 6330, Note_on_c, 1, 64, 60
3, 6333, Note_on_c, 1, 65, 0
3, 6360, Note_on_c, 1, 64, 0
3, 6360, Note_on_c, 1, 62, 72
3, 6390, Note_on_c, 1, 62, 0
3, 6390, Note_on_c, 1, 60, 57
3, 6419, Note_on_c, 1, 60, 0
3, 6420, Note_on_c, 1, 59, 64
3, 6450, Note_on_c, 1, 59, 0
3, 6450, Note_on_c, 1, 60, 62
3, 6480, Note_on_c, 1, 60, 0
3, 6480, Note_on_c, 1, 59, 62
3, 6510, Note_on_c, 1, 59, 0
3, 6510, Note_on_c, 1, 60, 76
3, 6540, Note_on_c, 1, 59, 72
3, 6541, Note_on_c, 1, 60, 0
3, 6570, Note_on_c, 1, 60, 85
3, 6571, Note_on_c, 1, 59, 0
3, 6600, Note_on_c, 1, 59, 80
3, 6603, Note_on_c, 1, 60, 0
3, 6630, Note_on_c, 1, 60, 93
3, 6633, Note_on_c, 1, 59, 0
3, 6660, Note_on_c, 1, 64, 89
3, 6661, Note_on_c, 1, 60, 0
3, 6668, Note_on_c, 1, 55, 0
3, 6669, Note_on_c, 1, 52, 0
3, 6675, Note_on_c, 1, 48, 0
3, 6690, Note_on_c, 1, 60, 68
3, 6694, Note_on_c, 1, 64, 0
3, 6720, Note_on_c, 1, 55, 76
3, 6720, Note_on_c, 1, 43, 60
3, 6725, Note_on_c, 1, 60, 0
3, 6744, Control_c, 1, 64, 127
3, 6852, Control_c, 1, 64, 0
3, 6853, Note_on_c, 1, 43, 0
3, 6861, Note_on_c, 1, 55, 0
3, 7020, Note_on_c, 1, 55, 80
3, 7068, Control_c, 1, 64, 127
3, 7075, Note_on_c, 1, 55, 0
3, 7080, Note_on_c, 1, 65, 89
3, 7086, Control_c, 1, 64, 0
3, 7106, Control_c, 1, 64, 127
3, 7136, Note_on_c, 1, 65, 0
3, 7140, Note_on_c, 1, 62, 72
3, 7152, Note_on_c, 1, 62, 0
3, 7200, Note_on_c, 1, 64, 80
3, 7200, Control_c, 1, 64, 0
3, 7230, Note_on_c, 1, 64, 0
3, 7230, Note_on_c, 1, 67, 76
3, 7260, Note_on_c, 1, 65, 76
3, 7261, Control_c, 1, 64, 127
3, 7266, Note_on_c, 1, 67, 0
3, 7290, Note_on_c, 1, 64, 76
3, 7294, Note_on_c, 1, 65, 0
3, 7319, Note_on_c, 1, 64, 0
3, 7320, Note_on_c, 1, 62, 93
3, 7320, Note_on_c, 1, 48, 76
3, 7323, Control_c, 1, 64, 0
3, 7346, Control_c, 1, 64, 127
3, 7350, Note_on_c, 1, 60, 72
3, 7352, Note_on_c, 1, 62, 0
3, 7377, Note_on_c, 1, 60, 0
3, 7380, Note_on_c, 1, 59, 76
3, 7410, Note_on_c, 1, 60, 76
3, 7411, Note_on_c, 1, 59, 0
3, 7435, Control_c, 1, 64, 0
3, 7440, Note_on_c, 1, 59, 85
3, 7441, Note_on_c, 1, 60, 0
3, 7441, Note_on_c, 1, 48, 0
3, 7560, Note_on_c, 1, 43, 89
3, 7565, Note_on_c, 1, 59, 0
3, 7589, Control_c, 1, 64, 127
3, 7677, Note_on_c, 1, 43, 0
3, 7678, Control_c, 1, 64, 0
3, 7680, Note_on_c, 1, 64, 76
3, 7710, Note_on_c, 1, 67, 89
3, 7713, Note_on_c, 1, 64, 0
3, 7740, Note_on_c, 1, 65, 89
3, 7747, Note_on_c, 1, 67, 0
3, 7770, Note_on_c, 1, 64, 68
3, 7776, Note_on_c, 1, 65, 0
3, 7799, Note_on_c, 1, 64, 0
3, 7800, Note_on_c, 1, 62, 89
3, 7800, Note_on_c, 1, 48, 85
3, 7829, Control_c, 1, 64, 127
3, 7830, Note_on_c, 1, 60, 76
3, 7832, Note_on_c, 1, 62, 0
3, 7858, Note_on_c, 1, 60, 0
3, 7860, Note_on_c, 1, 59, 72
3, 7886, Note_on_c, 1, 59, 0
3, 7890, Note_on_c, 1, 60, 85
3, 7905, Note_on_c, 1, 48, 0
3, 7914, Control_c, 1, 64, 0
3, 7920, Note_on_c, 1, 60, 0
3, 7920, Note_on_c, 1, 59, 85
3, 8040, Note_on_c, 1, 43, 72
3, 8097, Control_c, 1, 64, 127
3, 8157, Note_on_c, 1, 43, 0
3, 8160, Note_on_c, 1, 45, 80
3, 8160, Note_on_c, 1, 60, 93
3, 8166, Note_on_c, 1, 59, 0
3, 8170, Control_c, 1, 64, 0
3, 8221, Control_c, 1, 64, 127
3, 8280, Note_on_c, 1, 60, 0
3, 8280, Note_on_c, 1, 57, 93
3, 8284, Control_c, 1, 64, 0
3, 8304, Control_c, 1, 64, 127
3, 8393, Note_on_c, 1, 45, 0
3, 8398, Control_c, 1, 64, 0
3, 8400, Note_on_c, 1, 41, 80
3, 8416, Control_c, 1, 64, 127
3, 8512, Note_on_c, 1, 57, 0
3, 8520, Note_on_c, 1, 69, 89
3, 8522, Control_c, 1, 64, 0
3, 8544, Control_c, 1, 64, 127
3, 8578, Note_on_c, 1, 69, 0
3, 8580, Note_on_c, 1, 65, 89
3, 8638, Note_on_c, 1, 65, 0
3, 8638, Control_c, 1, 64, 0
3, 8640, Note_on_c, 1, 64, 93
3, 8640, Note_on_c, 1, 43, 76
3, 8641, Note_on_c, 1, 41, 0
3, 8662, Control_c, 1, 64, 127
3, 8758, Control_c, 1, 64, 0
3, 8760, Note_on_c, 1, 64, 0
3, 8760, Note_on_c, 1, 60, 85
3, 8770, Control_c, 1, 64, 127
3, 8815, Note_on_c, 1, 60, 0
3, 8858, Note_on_c, 1, 43, 0
3, 8880, Note_on_c, 1, 31, 85
3, 8880, Note_on_c, 1, 55, 93
3, 8891, Control_c, 1, 64, 0
3, 8922, Control_c, 1, 64, 127
3, 8998, Control_c, 1, 64, 0
3, 9000, Note_on_c, 1, 53, 89
3, 9014, Control_c, 1, 64, 127
3, 9066, Note_on_c, 1, 55, 0
3, 9073, Note_on_c, 1, 53, 0
3, 9075, Note_on_c, 1, 31, 0
3, 9114, Control_c, 1, 64, 0
3, 9120, Note_on_c, 1, 36, 68
3, 9120, Note_on_c, 1, 52, 80
3, 9120, Note_on_c, 1, 55, 80
3, 9127, Control_c, 1, 64, 127
3, 9243, Control_c, 1, 64, 0
3, 9250, Note_on_c, 1, 52, 0
3, 9252, Note_on_c, 1, 55, 0
3, 9255, Note_on_c, 1, 36, 0
3, 9600, Note_on_c, 1, 52, 93
3, 9600, Note_on_c, 1, 34, 76
3, 9600, Note_on_c, 1, 46, 85
3, 9612, Control_c, 1, 64, 127
3, 9630, Note_on_c, 1, 55, 89
3, 9635, Note_on_c, 1, 52, 0
3, 9660, Note_on_c, 1, 62, 89
3, 9661, Note_on_c, 1, 55, 0
3, 9690, Note_on_c, 1, 55, 89
3, 9692, Note_on_c, 1, 46, 0
3, 9696, Note_on_c, 1, 34, 0
3, 9697, Note_on_c, 1, 62, 0
3, 9708, Note_on_c, 1, 55, 0
3, 9720, Note_on_c, 1, 52, 107
3, 9720, Note_on_c, 1, 45, 80
3, 9720, Note_on_c, 1, 33, 93
3, 9725, Control_c, 1, 64, 0
3, 9750, Note_on_c, 1, 55, 85
3, 9758, Note_on_c, 1, 52, 0
3, 9769, Control_c, 1, 64, 127
3, 9780, Note_on_c, 1, 61, 85
3, 9788, Note_on_c, 1, 55, 0
3, 9810, Note_on_c, 1, 55, 76
3, 9815, Note_on_c, 1, 61, 0
3, 9840, Note_on_c, 1, 55, 0
3, 9840, Note_on_c, 1, 52, 93
3, 9842, Control_c, 1, 64, 0
3, 9851, Note_on_c, 1, 33, 0
3, 9852, Note_on_c, 1, 45, 0
3, 9855, Control_c, 1, 64, 127
3, 9870, Note_on_c, 1, 55, 93
3, 9875, Note_on_c, 1, 52, 0
3, 9895, Control_c, 1, 64, 0
3, 9900, Note_on_c, 1, 61, 89
3, 9903, Note_on_c, 1, 55, 0
3, 9910, Control_c, 1, 64, 127
3, 9930, Note_on_c, 1, 55, 85
3, 9931, Note_on_c, 1, 61, 0
3, 9960, Note_on_c, 1, 52, 89
3, 9961, Note_on_c, 1, 55, 0
3, 9990, Note_on_c, 1, 55, 89
3, 9993, Note_on_c, 1, 52, 0
3, 10020, Note_on_c, 1, 61, 89
3, 10021, Note_on_c, 1, 55, 0
3, 10050, Note_on_c, 1, 61, 0
3, 10050, Note_on_c, 1, 55, 85
3, 10061, Note_on_c, 1, 55, 0
3, 10080, Note_on_c, 1, 50, 98
3, 10080, Note_on_c, 1, 32, 89
3, 10080, Note_on_c, 1, 44, 93
3, 10084, Control_c, 1, 64, 0
3, 10110, Note_on_c, 1, 53, 76
3, 10111, Control_c, 1, 64, 127
3, 10117, Note_on_c, 1, 50, 0
3, 10140, Note_on_c, 1, 60, 80
3, 10141, Note_on_c, 1, 53, 0
3, 10158, Note_on_c, 1, 44, 0
3, 10162, Note_on_c, 1, 32, 0
3, 10168, Note_on_c, 1, 60, 0
3, 10170, Note_on_c, 1, 53, 76
3, 10189, Note_on_c, 1, 53, 0
3, 10200, Note_on_c, 1, 50, 107
3, 10200, Note_on_c, 1, 43, 89
3, 10200, Note_on_c, 1, 31, 89
3, 10200, Control_c, 1, 64, 0
3, 10224, Control_c, 1, 64, 127
3, 10230, Note_on_c, 1, 53, 89
3, 10236, Note_on_c, 1, 50, 0
3, 10260, Note_on_c, 1, 59, 93
3, 10264, Note_on_c, 1, 53, 0
3, 10268, Control_c, 1, 64, 0
3, 10281, Control_c, 1, 64, 127
3, 10290, Note_on_c, 1, 53, 76
3, 10291, Note_on_c, 1, 59, 0
3, 10320, Note_on_c, 1, 50, 93
3, 10321, Note_on_c, 1, 53, 0
3, 10324, Control_c, 1, 64, 0
3, 10327, Note_on_c, 1, 43, 0
3, 10331, Note_on_c, 1, 31, 0
3, 10337, Control_c, 1, 64, 127
3, 10350, Note_on_c, 1, 53, 76
3, 10358, Note_on_c, 1, 50, 0
3, 10380, Note_on_c, 1, 59, 89
3, 10383, Control_c, 1, 64, 0
3, 10384, Note_on_c, 1, 53, 0
3, 10395, Control_c, 1, 64, 127
3, 10410, Note_on_c, 1, 53, 76
3, 10411, Note_on_c, 1, 59, 0
3, 10440, Note_on_c, 1, 50, 76
3, 10441, Note_on_c, 1, 53, 0
3, 10442, Control_c, 1, 64, 0
3, 10454, Control_c, 1, 64, 127
3, 10470, Note_on_c, 1, 50, 0
3, 10470, Note_on_c, 1, 53, 76
3, 10500, Note_on_c, 1, 59, 93
3, 10502, Note_on_c, 1, 53, 0
3, 10529, Note_on_c, 1, 59, 0
3, 10530, Note_on_c, 1, 53, 72
3, 10551, Note_on_c, 1, 53, 0
3, 10552, Control_c, 1, 64, 0
3, 10560, Note_on_c, 1, 60, 76
3, 10560, Note_on_c, 1, 36, 62
3, 10569, Control_c, 1, 64, 127
3, 10609, Note_on_c, 1, 60, 0
3, 10612, Note_on_c, 1, 36, 0
3, 10620, Note_on_c, 1, 48, 76
3, 10633, Note_on_c, 1, 48, 0
3, 10676, Control_c, 1, 64, 0
3, 10680, Note_on_c, 1, 60, 76
3, 10689, Control_c, 1, 64, 127
3, 10717, Note_on_c, 1, 60, 0
3, 10740, Note_on_c, 1, 69, 72
3, 10740, Note_on_c, 1, 60, 57
3, 10741, Control_c, 1, 64, 0
3, 10751, Control_c, 1, 64, 127
3, 10774, Note_on_c, 1, 60, 0
3, 10780, Note_on_c, 1, 69, 0
3, 10800, Note_on_c, 1, 69, 76
3, 10800, Note_on_c, 1, 60, 64
3, 10836, Note_on_c, 1, 60, 0
3, 10844, Note_on_c, 1, 69, 0
3, 10860, Note_on_c, 1, 69, 76
3, 10860, Note_on_c, 1, 60, 68
3, 10896, Note_on_c, 1, 60, 0
3, 10902, Note_on_c, 1, 69, 0
3, 10920, Note_on_c, 1, 60, 76
3, 10920, Note_on_c, 1, 69, 85
3, 10950, Note_on_c, 1, 60, 0
3, 10959, Note_on_c, 1, 69, 0
3, 10980, Note_on_c, 1, 60, 62
3, 10980, Note_on_c, 1, 69, 72
3, 11002, Note_on_c, 1, 69, 0
3, 11006, Note_on_c, 1, 60, 0
3, 11037, Control_c, 1, 64, 0
3, 11040, Note_on_c, 1, 59, 68
3, 11040, Note_on_c, 1, 71, 72
3, 11040, Note_on_c, 1, 69, 68
3, 11053, Note_on_c, 1, 71, 0
3, 11054, Note_on_c, 1, 69, 0
3, 11089, Note_on_c, 1, 59, 0
3, 11100, Note_on_c, 1, 69, 52
3, 11100, Note_on_c, 1, 59, 68
3, 11106, Control_c, 1, 64, 127
3, 11132, Note_on_c, 1, 69, 0
3, 11139, Note_on_c, 1, 59, 0
3, 11160, Note_on_c, 1, 71, 80
3, 11160, Note_on_c, 1, 59, 64
3, 11160, Control_c, 1, 64, 0
3, 11173, Control_c, 1, 64, 127
3, 11200, Note_on_c, 1, 59, 0
3, 11202, Note_on_c, 1, 71, 0
3, 11219, Control_c, 1, 64, 0
3, 11220, Note_on_c, 1, 59, 59
3, 11220, Note_on_c, 1, 66, 68
3, 11230, Control_c, 1, 64, 127
3, 11253, Note_on_c, 1, 59, 0
3, 11259, Note_on_c, 1, 66, 0
3, 11278, Control_c, 1, 64, 0
3, 11280, Note_on_c, 1, 69, 72
3, 11280, Note_on_c, 1, 59, 56
3, 11290, Control_c, 1, 64, 127
3, 11315, Note_on_c, 1, 59, 0
3, 11330, Note_on_c, 1, 69, 0
3, 11340, Note_on_c, 1, 67, 68
3, 11340, Note_on_c, 1, 59, 56
3, 11341, Control_c, 1, 64, 0
3, 11351, Control_c, 1, 64, 127
3, 11380, Note_on_c, 1, 59, 0
3, 11385, Note_on_c, 1, 67, 0
3, 11400, Note_on_c, 1, 59, 52
3, 11400, Note_on_c, 1, 67, 76
3, 11439, Note_on_c, 1, 59, 0
3, 11443, Note_on_c, 1, 67, 0
3, 11460, Note_on_c, 1, 59, 76
3, 11460, Note_on_c, 1, 67, 85
3, 11498, Note_on_c, 1, 67, 0
3, 11509, Note_on_c, 1, 59, 0
3, 11520, Note_on_c, 1, 67, 93
3, 11520, Note_on_c, 1, 57, 64
3, 11529, Control_c, 1, 64, 0
3, 11544, Control_c, 1, 64, 127
3, 11563, Note_on_c, 1, 57, 0
3, 11565, Note_on_c, 1, 67, 0
3, 11580, Note_on_c, 1, 67, 60
3, 11580, Note_on_c, 1, 57, 47
3, 11601, Note_on_c, 1, 57, 0
3, 11615, Note_on_c, 1, 67, 0
3, 11640, Note_on_c, 1, 67, 62
3, 11640, Note_on_c, 1, 57, 39
3, 11677, Note_on_c, 1, 57, 0
3, 11679, Note_on_c, 1, 67, 0
3, 11700, Note_on_c, 1, 57, 48
3, 11700, Note_on_c, 1, 67, 64
3, 11728, Note_on_c, 1, 57, 0
3, 11743, Note_on_c, 1, 67, 0
3, 11756, Control_c, 1, 64, 0
3, 11760, Note_on_c, 1, 57, 49
3, 11760, Note_on_c, 1, 66, 62
3, 11770, Control_c, 1, 64, 127
3, 11805, Note_on_c, 1, 57, 0
3, 11808, Note_on_c, 1, 66, 0
3, 11820, Note_on_c, 1, 66, 68
3, 11820, Note_on_c, 1, 57, 64
3, 11866, Note_on_c, 1, 57, 0
3, 11866, Note_on_c, 1, 66, 0
3, 11880, Note_on_c, 1, 66, 98
3, 11880, Note_on_c, 1, 57, 72
3, 11925, Note_on_c, 1, 57, 0
3, 11929, Note_on_c, 1, 66, 0
3, 11940, Note_on_c, 1, 66, 98
3, 11940, Note_on_c, 1, 57, 80
3, 11987, Note_on_c, 1, 66, 0
3, 11990, Note_on_c, 1, 57, 0
3, 12000, Note_on_c, 1, 67, 89
3, 12000, Note_on_c, 1, 55, 72
3, 12000, Control_c, 1, 64, 0
3, 12013, Control_c, 1, 64, 127
3, 12049, Note_on_c, 1, 67, 0
3, 12060, Note_on_c, 1, 67, 76
3, 12108, Note_on_c, 1, 67, 0
3, 12120, Note_on_c, 1, 67, 85
3, 12124, Control_c, 1, 64, 0
3, 12132, Note_on_c, 1, 55, 0
3, 12137, Control_c, 1, 64, 127
3, 12167, Note_on_c, 1, 67, 0
3, 12180, Note_on_c, 1, 67, 80
3, 12233, Note_on_c, 1, 67, 0
3, 12240, Note_on_c, 1, 67, 72
3, 12290, Note_on_c, 1, 67, 0
3, 12300, Note_on_c, 1, 67, 76
3, 12351, Note_on_c, 1, 67, 0
3, 12360, Note_on_c, 1, 67, 76
3, 12402, Note_on_c, 1, 67, 0
3, 12420, Note_on_c, 1, 67, 80
3, 12474, Note_on_c, 1, 67, 0
3, 12480, Note_on_c, 1, 66, 76
3, 12486, Control_c, 1, 64, 0
3, 12503, Control_c, 1, 64, 127
3, 12527, Note_on_c, 1, 66, 0
3, 12540, Note_on_c, 1, 66, 68
3, 12585, Note_on_c, 1, 66, 0
3, 12600, Note_on_c, 1, 66, 72
3, 12644, Note_on_c, 1, 66, 0
3, 12660, Note_on_c, 1, 66, 60
3, 12703, Note_on_c, 1, 66, 0
3, 12720, Note_on_c, 1, 66, 62
3, 12761, Note_on_c, 1, 66, 0
3, 12780, Note_on_c, 1, 66, 60
3, 12820, Note_on_c, 1, 66, 0
3, 12840, Note_on_c, 1, 66, 62
3, 12876, Note_on_c, 1, 66, 0
3, 12900, Note_on_c, 1, 66, 64
3, 12930, Note_on_c, 1, 66, 0
3, 12960, Note_on_c, 1, 64, 72
3, 12961, Control_c, 1, 64, 0
3, 12979, Control_c, 1, 64, 127
3, 13003, Note_on_c, 1, 64, 0
3, 13020, Note_on_c, 1, 64, 72
3, 13067, Note_on_c, 1, 64, 0
3, 13080, Note_on_c, 1, 64, 72
3, 13117, Note_on_c, 1, 64, 0
3, 13140, Note_on_c, 1, 64, 72
3, 13162, Note_on_c, 1, 64, 0
3, 13200, Note_on_c, 1, 64, 93
3, 13200, Note_on_c, 1, 57, 80
3, 13200, Control_c, 1, 64, 0
3, 13219, Control_c, 1, 64, 127
3, 13247, Note_on_c, 1, 64, 0
3, 13260, Note_on_c, 1, 64, 93
3, 13304, Note_on_c, 1, 64, 0
3, 13320, Note_on_c, 1, 64, 89
3, 13352, Note_on_c, 1, 64, 0
3, 13372, Note_on_c, 1, 57, 0
3, 13380, Note_on_c, 1, 64, 89
3, 13390, Note_on_c, 1, 64, 0
3, 13436, Control_c, 1, 64, 0
3, 13440, Note_on_c, 1, 50, 85
3, 13440, Note_on_c, 1, 62, 89
3, 13449, Control_c, 1, 64, 127
3, 13474, Note_on_c, 1, 50, 0
3, 13477, Note_on_c, 1, 62, 0
3, 13500, Note_on_c, 1, 57, 102
3, 13500, Note_on_c, 1, 54, 85
3, 13500, Note_on_c, 1, 50, 93
3, 13522, Note_on_c, 1, 54, 0
3, 13522, Note_on_c, 1, 57, 0
3, 13528, Note_on_c, 1, 50, 0
3, 13560, Note_on_c, 1, 38, 89
3, 13560, Note_on_c, 1, 59, 113
3, 13560, Note_on_c, 1, 62, 107
3, 13561, Control_c, 1, 64, 0
3, 13580, Control_c, 1, 64, 127
3, 13603, Note_on_c, 1, 38, 0
3, 13620, Note_on_c, 1, 50, 80
3, 13677, Control_c, 1, 64, 0
3, 13678, Note_on_c, 1, 50, 0
3, 13680, Note_on_c, 1, 38, 80
3, 13688, Control_c, 1, 64, 127
3, 13699, Note_on_c, 1, 59, 0
3, 13700, Note_on_c, 1, 62, 0
3, 13736, Control_c, 1, 64, 0
3, 13740, Note_on_c, 1, 38, 0
3, 13740, Note_on_c, 1, 60, 89
3, 13740, Note_on_c, 1, 50, 72
3, 13740, Note_on_c, 1, 57, 85
3, 13752, Note_on_c, 1, 57, 0
3, 13755, Note_on_c, 1, 60, 0
3, 13785, Note_on_c, 1, 38, 68
3, 13794, Control_c, 1, 64, 127
3, 13797, Note_on_c, 1, 50, 0
3, 13800, Note_on_c, 1, 55, 68
3, 13800, Note_on_c, 1, 59, 80
3, 13828, Note_on_c, 1, 59, 0
3, 13841, Note_on_c, 1, 55, 0
3, 13843, Note_on_c, 1, 38, 0
3, 13845, Note_on_c, 1, 50, 62
3, 13854, Control_c, 1, 64, 0
3, 13860, Note_on_c, 1, 57, 76
3, 13860, Note_on_c, 1, 54, 72
3, 13875, Control_c, 1, 64, 127
3, 13890, Note_on_c, 1, 50, 0
3, 13893, Note_on_c, 1, 54, 0
3, 13894, Note_on_c, 1, 57, 0
3, 13912, Control_c, 1, 64, 0
3, 13920, Note_on_c, 1, 38, 76
3, 13920, Note_on_c, 1, 59, 80
3, 13920, Note_on_c, 1, 55, 72
3, 13926, Control_c, 1, 64, 127
3, 13949, Note_on_c, 1, 55, 0
3, 13952, Note_on_c, 1, 59, 0
3, 13969, Control_c, 1, 64, 0
3, 13976, Note_on_c, 1, 38, 0
3, 13980, Note_on_c, 1, 50, 68
3, 13986, Control_c, 1, 64, 127
3, 14032, Control_c, 1, 64, 0
3, 14040, Note_on_c, 1, 38, 72
3, 14040, Note_on_c, 1, 59, 89
3, 14040, Note_on_c, 1, 62, 89
3, 14045, Note_on_c, 1, 50, 0
3, 14048, Control_c, 1, 64, 127
3, 14072, Note_on_c, 1, 62, 0
3, 14072, Note_on_c, 1, 59, 0
3, 14090, Control_c, 1, 64, 0
3, 14097, Note_on_c, 1, 38, 0
3, 14100, Note_on_c, 1, 50, 76
3, 14113, Control_c, 1, 64, 127
3, 14149, Control_c, 1, 64, 0
3, 14160, Note_on_c, 1, 38, 72
3, 14160, Note_on_c, 1, 60, 80
3, 14160, Note_on_c, 1, 57, 85
3, 14163, Note_on_c, 1, 50, 0
3, 14170, Control_c, 1, 64, 127
3, 14200, Note_on_c, 1, 60, 0
3, 14203, Note_on_c, 1, 57, 0
3, 14213, Control_c, 1, 64, 0
3, 14218, Note_on_c, 1, 38, 0
3, 14220, Note_on_c, 1, 50, 76
3, 14231, Control_c, 1, 64, 127
3, 14271, Note_on_c, 1, 50, 0
3, 14271, Control_c, 1, 64, 0
3, 14280, Note_on_c, 1, 38, 76
3, 14280, Note_on_c, 1, 59, 89
3, 14280, Note_on_c, 1, 55, 76
3, 14322, Control_c, 1, 64, 127
3, 14339, Note_on_c, 1, 55, 0
3, 14339, Note_on_c, 1, 38, 0
3, 14340, Note_on_c, 1, 59, 0
3, 14340, Note_on_c, 1, 50, 64
3, 14372, Note_on_c, 1, 50, 0
3, 14396, Control_c, 1, 64, 0
3, 14400, Note_on_c, 1, 38, 76
3, 14400, Note_on_c, 1, 62, 76
3, 14400, Note_on_c, 1, 54, 76
3, 14415, Control_c, 1, 64, 127
3, 14441, Note_on_c, 1, 54, 0
3, 14444, Note_on_c, 1, 62, 0
3, 14452, Control_c, 1, 64, 0
3, 14459, Note_on_c, 1, 38, 0
3, 14460, Note_on_c, 1, 50, 85
3, 14460, Note_on_c, 1, 54, 80
3, 14460, Note_on_c, 1, 57, 98
3, 14472, Note_on_c, 1, 57, 0
3, 14474, Note_on_c, 1, 54, 0
3, 14491, Note_on_c, 1, 50, 0
3, 14520, Note_on_c, 1, 38, 85
3, 14520, Note_on_c, 1, 59, 93
3, 14520, Note_on_c, 1, 62, 93
3, 14534, Control_c, 1, 64, 127
3, 14573, Control_c, 1, 64, 0
3, 14576, Note_on_c, 1, 38, 0
3, 14580, Note_on_c, 1, 50, 72
3, 14590, Control_c, 1, 64, 127
3, 14634, Control_c, 1, 64, 0
3, 14640, Note_on_c, 1, 38, 72
3, 14641, Note_on_c, 1, 50, 0
3, 14646, Note_on_c, 1, 59, 0
3, 14646, Note_on_c, 1, 62, 0
3, 14647, Control_c, 1, 64, 127
3, 14691, Control_c, 1, 64, 0
3, 14697, Note_on_c, 1, 38, 0
3, 14700, Note_on_c, 1, 50, 72
3, 14700, Note_on_c, 1, 57, 80
3, 14700, Note_on_c, 1, 60, 68
3, 14705, Control_c, 1, 64, 127
3, 14714, Note_on_c, 1, 57, 0
3, 14716, Note_on_c, 1, 60, 0
3, 14725, Note_on_c, 1, 50, 0
3, 14736, Control_c, 1, 64, 0
3, 14756, Control_c, 1, 64, 127
3, 14760, Note_on_c, 1, 59, 76
3, 14760, Note_on_c, 1, 38, 62
3, 14760, Note_on_c, 1, 55, 76
3, 14774, Note_on_c, 1, 55, 0
3, 14775, Note_on_c, 1, 59, 0
3, 14799, Note_on_c, 1, 38, 0
3, 14804, Control_c, 1, 64, 0
3, 14820, Note_on_c, 1, 54, 76
3, 14820, Note_on_c, 1, 50, 80
3, 14820, Note_on_c, 1, 57, 98
3, 14821, Control_c, 1, 64, 127
3, 14829, Note_on_c, 1, 57, 0
3, 14829, Note_on_c, 1, 54, 0
3, 14843, Note_on_c, 1, 50, 0
3, 14874, Control_c, 1, 64, 0
3, 14880, Note_on_c, 1, 38, 89
3, 14880, Note_on_c, 1, 59, 100
3, 14880, Note_on_c, 1, 55, 100
3, 14929, Note_on_c, 1, 38, 0
3, 14940, Note_on_c, 1, 55, 0
3, 14940, Note_on_c, 1, 59, 0
3, 14940, Note_on_c, 1, 50, 72
3, 14986, Note_on_c, 1, 50, 0
3, 15000, Note_on_c, 1, 62, 100
3, 15000, Note_on_c, 1, 59, 100
3, 15000, Note_on_c, 1, 38, 64
3, 15051, Note_on_c, 1, 38, 0
3, 15060, Note_on_c, 1, 59, 0
3, 15060, Note_on_c, 1, 62, 0
3, 15060, Note_on_c, 1, 50, 76
3, 15096, Note_on_c, 1, 50, 0
3, 15120, Note_on_c, 1, 60, 80
3, 15120, Note_on_c, 1, 57, 93
3, 15120, Note_on_c, 1, 38, 68
3, 15129, Control_c, 1, 64, 127
3, 15159, Note_on_c, 1, 57, 0
3, 15159, Note_on_c, 1, 60, 0
3, 15175, Control_c, 1, 64, 0
3, 15176, Note_on_c, 1, 38, 0
3, 15180, Note_on_c, 1, 50, 80
3, 15212, Note_on_c, 1, 50, 0
3, 15240, Note_on_c, 1, 59, 76
3, 15240, Note_on_c, 1, 55, 72
3, 15240, Note_on_c, 1, 38, 76
3, 15248, Control_c, 1, 64, 127
3, 15275, Note_on_c, 1, 55, 0
3, 15278, Note_on_c, 1, 59, 0
3, 15293, Note_on_c, 1, 38, 0
3, 15300, Note_on_c, 1, 50, 80
3, 15314, Note_on_c, 1, 50, 0
3, 15348, Control_c, 1, 64, 0
3, 15360, Note_on_c, 1, 38, 93
3, 15360, Note_on_c, 1, 50, 93
3, 15360, Note_on_c, 1, 62, 113
3, 15370, Control_c, 1, 64, 127
3, 15482, Control_c, 1, 64, 0
3, 15484, Note_on_c, 1, 50, 0
3, 15487, Note_on_c, 1, 38, 0
3, 15489, Note_on_c, 1, 62, 0
3, 15540, Note_on_c, 1, 62, 93
3, 15556, Control_c, 1, 64, 127
3, 15660, Note_on_c, 1, 61, 89
3, 15661, Note_on_c, 1, 62, 0
3, 15661, Control_c, 1, 64, 0
3, 15690, Note_on_c, 1, 59, 98
3, 15693, Note_on_c, 1, 61, 0
3, 15714, Control_c, 1, 64, 127
3, 15720, Note_on_c, 1, 57, 98
3, 15721, Note_on_c, 1, 59, 0
3, 15744, Note_on_c, 1, 57, 0
3, 15750, Note_on_c, 1, 55, 85
3, 15754, Control_c, 1, 64, 0
3, 15779, Control_c, 1, 64, 127
3, 15780, Note_on_c, 1, 54, 85
3, 15782, Note_on_c, 1, 55, 0
3, 15810, Note_on_c, 1, 54, 0
3, 15810, Note_on_c, 1, 52, 93
3, 15833, Note_on_c, 1, 52, 0
3, 15833, Control_c, 1, 64, 0
3, 15840, Note_on_c, 1, 50, 102
3, 15851, Control_c, 1, 64, 127
3, 15871, Note_on_c, 1, 50, 0
3, 15896, Control_c, 1, 64, 0
3, 15900, Note_on_c, 1, 49, 102
3, 15927, Note_on_c, 1, 49, 0
3, 15930, Note_on_c, 1, 47, 89
3, 15955, Control_c, 1, 64, 127
3, 15960, Note_on_c, 1, 47, 0
3, 15960, Note_on_c, 1, 45, 93
3, 15985, Note_on_c, 1, 45, 0
3, 15990, Note_on_c, 1, 43, 89
3, 15998, Control_c, 1, 64, 0
3, 16020, Note_on_c, 1, 42, 80
3, 16021, Note_on_c, 1, 43, 0
3, 16022, Control_c, 1, 64, 127
3, 16040, Note_on_c, 1, 42, 0
3, 16050, Note_on_c, 1, 40, 113
3, 16063, Note_on_c, 1, 40, 0
3, 16071, Control_c, 1, 64, 0
3, 16080, Note_on_c, 1, 38, 107
3, 16108, Control_c, 1, 64, 127
3, 16110, Note_on_c, 1, 37, 107
3, 16112, Note_on_c, 1, 38, 0
3, 16126, Control_c, 1, 64, 0
3, 16133, Note_on_c, 1, 37, 0
3, 16140, Note_on_c, 1, 38, 98
3, 16159, Control_c, 1, 64, 127
3, 16170, Note_on_c, 1, 37, 93
3, 16171, Note_on_c, 1, 38, 0
3, 16171, Control_c, 1, 64, 0
3, 16193, Note_on_c, 1, 37, 0
3, 16200, Note_on_c, 1, 38, 93
3, 16204, Control_c, 1, 64, 127
3, 16223, Control_c, 1, 64, 0
3, 16230, Note_on_c, 1, 37, 102
3, 16233, Note_on_c, 1, 38, 0
3, 16255, Note_on_c, 1, 37, 0
3, 16260, Note_on_c, 1, 38, 98
3, 16273, Control_c, 1, 64, 127
3, 16290, Note_on_c, 1, 37, 89
3, 16292, Note_on_c, 1, 38, 0
3, 16298, Control_c, 1, 64, 0
3, 16313, Note_on_c, 1, 37, 0
3, 16320, Note_on_c, 1, 38, 102
3, 16325, Control_c, 1, 64, 127
3, 16352, Note_on_c, 1, 38, 0
3, 16415, Control_c, 1, 64, 0
3, 16440, Note_on_c, 1, 62, 102
3, 16440, Note_on_c, 1, 57, 107
3, 16440, Note_on_c, 1, 54, 113
3, 16440, Note_on_c, 1, 50, 102
3, 16440, Note_on_c, 1, 38, 113
3, 16447, Control_c, 1, 64, 127
3, 16565, Control_c, 1, 64, 0
3, 16566, Note_on_c, 1, 50, 0
3, 16566, Note_on_c, 1, 57, 0
3, 16567, Note_on_c, 1, 54, 0
3, 16568, Note_on_c, 1, 38, 0
3, 16569, Note_on_c, 1, 62, 0
3, 17280, Note_on_c, 1, 43, 59
3, 17287, Control_c, 1, 64, 127
3, 17310, Note_on_c, 1, 50, 76
3, 17317, Control_c, 1, 64, 0
3, 17340, Note_on_c, 1, 50, 0
3, 17340, Note_on_c, 1, 52, 76
3, 17348, Control_c, 1, 64, 127
3, 17370, Note_on_c, 1, 52, 0
3, 17370, Note_on_c, 1, 54, 60
3, 17376, Control_c, 1, 64, 0
3, 17399, Note_on_c, 1, 54, 0
3, 17400, Note_on_c, 1, 55, 80
3, 17427, Note_on_c, 1, 43, 0
3, 17430, Note_on_c, 1, 55, 0
3, 17430, Note_on_c, 1, 57, 72
3, 17460, Note_on_c, 1, 59, 89
3, 17461, Note_on_c, 1, 57, 0
3, 17490, Note_on_c, 1, 60, 89
3, 17495, Note_on_c, 1, 59, 0
3, 17520, Note_on_c, 1, 60, 0
3, 17520, Note_on_c, 1, 62, 85
3, 17550, Note_on_c, 1, 59, 62
3, 17551, Note_on_c, 1, 62, 0
3, 17580, Note_on_c, 1, 62, 62
3, 17582, Note_on_c, 1, 59, 0
3, 17610, Note_on_c, 1, 59, 48
3, 17613, Note_on_c, 1, 62, 0
3, 17640, Note_on_c, 1, 55, 56
3, 17643, Note_on_c, 1, 59, 0
3, 17703, Note_on_c, 1, 55, 0
3, 18240, Note_on_c, 1, 50, 85
3, 18360, Note_on_c, 1, 40, 76
3, 18387, Note_on_c, 1, 40, 0
3, 18389, Control_c, 1, 64, 127
3, 18390, Note_on_c, 1, 42, 72
3, 18416, Note_on_c, 1, 42, 0
3, 18420, Note_on_c, 1, 43, 93
3, 18438, Note_on_c, 1, 43, 0
3, 18450, Note_on_c, 1, 45, 80
3, 18453, Note_on_c, 1, 50, 0
3, 18469, Note_on_c, 1, 45, 0
3, 18480, Note_on_c, 1, 50, 93
3, 18481, Control_c, 1, 64, 0
3, 18504, Control_c, 1, 64, 127
3, 18508, Note_on_c, 1, 50, 0
3, 18510, Note_on_c, 1, 52, 85
3, 18540, Note_on_c, 1, 52, 0
3, 18540, Note_on_c, 1, 48, 89
3, 18544, Control_c, 1, 64, 0
3, 18570, Note_on_c, 1, 48, 0
3, 18570, Note_on_c, 1, 50, 93
3, 18600, Note_on_c, 1, 47, 89
3, 18605, Note_on_c, 1, 50, 0
3, 18630, Note_on_c, 1, 48, 89
3, 18631, Note_on_c, 1, 47, 0
3, 18660, Note_on_c, 1, 45, 80
3, 18663, Note_on_c, 1, 48, 0
3, 18675, Note_on_c, 1, 47, 64
3, 18689, Note_on_c, 1, 45, 0
3, 18710, Note_on_c, 1, 47, 0
3, 18720, Note_on_c, 1, 43, 62
3, 18794, Note_on_c, 1, 43, 0
3, 20460, Note_on_c, 1, 50, 93
3, 20472, Note_on_c, 1, 50, 0
3, 20520, Note_on_c, 1, 55, 80
3, 20532, Note_on_c, 1, 55, 0
3, 20580, Note_on_c, 1, 57, 62
3, 20590, Note_on_c, 1, 57, 0
3, 20640, Note_on_c, 1, 59, 76
3, 20640, Note_on_c, 1, 43, 55
3, 20657, Control_c, 1, 64, 127
3, 20700, Note_on_c, 1, 47, 64
3, 20744, Note_on_c, 1, 59, 0
3, 20760, Note_on_c, 1, 50, 64
3, 20765, Note_on_c, 1, 47, 0
3, 20814, Note_on_c, 1, 50, 0
3, 20820, Note_on_c, 1, 55, 76
3, 20820, Note_on_c, 1, 47, 60
3, 20833, Note_on_c, 1, 43, 0
3, 20841, Note_on_c, 1, 55, 0
3, 20843, Note_on_c, 1, 47, 0
3, 20880, Note_on_c, 1, 43, 56
3, 20880, Note_on_c, 1, 60, 76
3, 20889, Control_c, 1, 64, 0
3, 20916, Control_c, 1, 64, 127
3, 20940, Note_on_c, 1, 45, 64
3, 20962, Note_on_c, 1, 60, 0
3, 21000, Note_on_c, 1, 48, 64
3, 21010, Note_on_c, 1, 45, 0
3, 21055, Note_on_c, 1, 48, 0
3, 21060, Note_on_c, 1, 57, 85
3, 21060, Note_on_c, 1, 45, 55
3, 21063, Note_on_c, 1, 43, 0
3, 21072, Note_on_c, 1, 57, 0
3, 21078, Note_on_c, 1, 45, 0
3, 21115, Control_c, 1, 64, 0
3, 21120, Note_on_c, 1, 43, 62
3, 21120, Note_on_c, 1, 62, 89
3, 21130, Note_on_c, 1, 62, 0
3, 21180, Note_on_c, 1, 47, 57
3, 21180, Note_on_c, 1, 59, 80
3, 21189, Note_on_c, 1, 59, 0
3, 21237, Note_on_c, 1, 47, 0
3, 21240, Note_on_c, 1, 55, 80
3, 21240, Note_on_c, 1, 50, 52
3, 21267, Control_c, 1, 64, 127
3, 21300, Note_on_c, 1, 50, 0
3, 21300, Note_on_c, 1, 47, 64
3, 21308, Note_on_c, 1, 55, 0
3, 21335, Note_on_c, 1, 43, 0
3, 21340, Note_on_c, 1, 47, 0
3, 21360, Note_on_c, 1, 43, 64
3, 21370, Control_c, 1, 64, 0
3, 21386, Control_c, 1, 64, 127
3, 21420, Note_on_c, 1, 50, 80
3, 21428, Note_on_c, 1, 43, 0
3, 21429, Control_c, 1, 64, 0
3, 21433, Note_on_c, 1, 50, 0
3, 21480, Note_on_c, 1, 55, 85
3, 21491, Note_on_c, 1, 55, 0
3, 21540, Note_on_c, 1, 57, 89
3, 21549, Note_on_c, 1, 57, 0
3, 21600, Note_on_c, 1, 43, 60
3, 21600, Note_on_c, 1, 59, 89
3, 21622, Control_c, 1, 64, 127
3, 21660, Note_on_c, 1, 47, 56
3, 21684, Note_on_c, 1, 59, 0
3, 21717, Note_on_c, 1, 47, 0
3, 21720, Note_on_c, 1, 50, 62
3, 21753, Note_on_c, 1, 43, 0
3, 21756, Note_on_c, 1, 50, 0
3, 21780, Note_on_c, 1, 55, 93
3, 21780, Note_on_c, 1, 47, 80
3, 21790, Note_on_c, 1, 47, 0
3, 21792, Note_on_c, 1, 55, 0
3, 21831, Control_c, 1, 64, 0
3, 21840, Note_on_c, 1, 62, 102
3, 21840, Note_on_c, 1, 42, 57
3, 21840, Note_on_c, 1, 45, 72
3, 21853, Control_c, 1, 64, 127
3, 21892, Control_c, 1, 64, 0
3, 21899, Note_on_c, 1, 62, 0
3, 21900, Note_on_c, 1, 50, 76
3, 21900, Note_on_c, 1, 60, 89
3, 21914, Note_on_c, 1, 60, 0
3, 21938, Note_on_c, 1, 42, 0
3, 21939, Note_on_c, 1, 45, 0
3, 21942, Note_on_c, 1, 50, 0
3, 21960, Note_on_c, 1, 43, 62
3, 21960, Note_on_c, 1, 47, 64
3, 21960, Note_on_c, 1, 60, 98
3, 21971, Control_c, 1, 64, 127
3, 22011, Control_c, 1, 64, 0
3, 22019, Note_on_c, 1, 60, 0
3, 22020, Note_on_c, 1, 59, 85
3, 22020, Note_on_c, 1, 50, 72
3, 22027, Note_on_c, 1, 47, 0
3, 22028, Control_c, 1, 64, 127
3, 22035, Note_on_c, 1, 59, 0
3, 22037, Note_on_c, 1, 50, 0
3, 22038, Note_on_c, 1, 43, 0
3, 22048, Control_c, 1, 64, 0
3, 22080, Note_on_c, 1, 56, 89
3, 22080, Note_on_c, 1, 38, 76
3, 22094, Control_c, 1, 64, 127
3, 22140, Note_on_c, 1, 42, 52
3, 22142, Note_on_c, 1, 56, 0
3, 22200, Note_on_c, 1, 45, 62
3, 22200, Note_on_c, 1, 57, 72
3, 22201, Note_on_c, 1, 42, 0
3, 22202, Control_c, 1, 64, 0
3, 22225, Control_c, 1, 64, 127
3, 22258, Note_on_c, 1, 57, 0
3, 22260, Note_on_c, 1, 42, 51
3, 22263, Note_on_c, 1, 45, 0
3, 22263, Note_on_c, 1, 38, 0
3, 22320, Note_on_c, 1, 38, 76
3, 22323, Note_on_c, 1, 42, 0
3, 22324, Control_c, 1, 64, 0
3, 22338, Control_c, 1, 64, 127
3, 22380, Note_on_c, 1, 50, 93
3, 22381, Note_on_c, 1, 38, 0
3, 22382, Control_c, 1, 64, 0
3, 22393, Note_on_c, 1, 50, 0
3, 22440, Note_on_c, 1, 55, 93
3, 22450, Note_on_c, 1, 55, 0
3, 22500, Note_on_c, 1, 57, 93
3, 22510, Note_on_c, 1, 57, 0
3, 22560, Note_on_c, 1, 43, 68
3, 22560, Note_on_c, 1, 59, 89
3, 22578, Control_c, 1, 64, 127
3, 22620, Note_on_c, 1, 47, 56
3, 22636, Note_on_c, 1, 59, 0
3, 22679, Note_on_c, 1, 47, 0
3, 22680, Note_on_c, 1, 50, 76
3, 22737, Note_on_c, 1, 50, 0
3, 22738, Note_on_c, 1, 43, 0
3, 22740, Note_on_c, 1, 47, 80
3, 22740, Note_on_c, 1, 55, 98
3, 22758, Note_on_c, 1, 55, 0
3, 22759, Note_on_c, 1, 47, 0
3, 22800, Note_on_c, 1, 43, 72
3, 22800, Note_on_c, 1, 60, 102
3, 22803, Control_c, 1, 64, 0
3, 22832, Control_c, 1, 64, 127
3, 22860, Note_on_c, 1, 45, 64
3, 22885, Control_c, 1, 64, 0
3, 22905, Control_c, 1, 64, 127
3, 22920, Note_on_c, 1, 48, 80
3, 22927, Note_on_c, 1, 60, 0
3, 22928, Note_on_c, 1, 45, 0
3, 22974, Note_on_c, 1, 43, 0
3, 22975, Note_on_c, 1, 48, 0
3, 22980, Note_on_c, 1, 45, 68
3, 22980, Note_on_c, 1, 57, 107
3, 22994, Note_on_c, 1, 57, 0
3, 23005, Note_on_c, 1, 45, 0
3, 23030, Control_c, 1, 64, 0
3, 23040, Note_on_c, 1, 47, 76
3, 23040, Note_on_c, 1, 43, 72
3, 23040, Note_on_c, 1, 62, 113
3, 23049, Note_on_c, 1, 62, 0
3, 23079, Control_c, 1, 64, 127
3, 23100, Note_on_c, 1, 59, 107
3, 23104, Note_on_c, 1, 47, 0
3, 23107, Note_on_c, 1, 43, 0
3, 23110, Note_on_c, 1, 59, 0
3, 23134, Control_c, 1, 64, 0
3, 23160, Note_on_c, 1, 36, 89
3, 23160, Note_on_c, 1, 64, 107
3, 23160, Note_on_c, 1, 48, 76
3, 23165, Control_c, 1, 64, 127
3, 23292, Control_c, 1, 64, 0
3, 23297, Note_on_c, 1, 64, 0
3, 23302, Note_on_c, 1, 48, 0
3, 23304, Note_on_c, 1, 36, 0
3, 23340, Note_on_c, 1, 64, 68
3, 23366, Note_on_c, 1, 64, 0
3, 23370, Note_on_c, 1, 62, 72
3, 23400, Note_on_c, 1, 60, 60
3, 23401, Note_on_c, 1, 62, 0
3, 23428, Note_on_c, 1, 60, 0
3, 23430, Note_on_c, 1, 59, 72
3, 23457, Note_on_c, 1, 59, 0
3, 23460, Note_on_c, 1, 57, 59
3, 23487, Note_on_c, 1, 57, 0
3, 23490, Note_on_c, 1, 55, 64
3, 23520, Note_on_c, 1, 54, 72
3, 23520, Note_on_c, 1, 38, 76
3, 23520, Note_on_c, 1, 48, 62
3, 23524, Note_on_c, 1, 55, 0
3, 23551, Note_on_c, 1, 54, 0
3, 23552, Note_on_c, 1, 48, 0
3, 23553, Note_on_c, 1, 38, 0
3, 23640, Note_on_c, 1, 47, 62
3, 23640, Note_on_c, 1, 55, 89
3, 23640, Note_on_c, 1, 40, 64
3, 23667, Note_on_c, 1, 55, 0
3, 23671, Note_on_c, 1, 40, 0
3, 23676, Note_on_c, 1, 47, 0
3, 23760, Note_on_c, 1, 36, 72
3, 23760, Note_on_c, 1, 40, 64
3, 23760, Note_on_c, 1, 57, 89
3, 23777, Note_on_c, 1, 57, 0
3, 23790, Note_on_c, 1, 40, 0
3, 23795, Note_on_c, 1, 36, 0
3, 23835, Note_on_c, 1, 59, 53
3, 23850, Note_on_c, 1, 57, 60
3, 23855, Note_on_c, 1, 59, 0
3, 23860, Note_on_c, 1, 57, 0
3, 23865, Note_on_c, 1, 55, 76
3, 23878, Note_on_c, 1, 55, 0
3, 23880, Note_on_c, 1, 38, 76
3, 23880, Note_on_c, 1, 42, 60
3, 23880, Note_on_c, 1, 57, 89
3, 23894, Note_on_c, 1, 57, 0
3, 23922, Note_on_c, 1, 38, 0
3, 23923, Note_on_c, 1, 42, 0
3, 23940, Note_on_c, 1, 59, 89
3, 23950, Note_on_c, 1, 59, 0
3, 24000, Note_on_c, 1, 55, 102
3, 24000, Note_on_c, 1, 43, 85
3, 24010, Control_c, 1, 64, 127
3, 24084, Note_on_c, 1, 55, 0
3, 24092, Note_on_c, 1, 43, 0
3, 24120, Note_on_c, 1, 36, 93
3, 24120, Note_on_c, 1, 55, 107
3, 24124, Control_c, 1, 64, 0
3, 24140, Control_c, 1, 64, 127
3, 24217, Note_on_c, 1, 55, 0
3, 24218, Note_on_c, 1, 36, 0
3, 24247, Control_c, 1, 64, 0
3, 24480, Note_on_c, 1, 38, 80
3, 24484, Control_c, 1, 64, 127
3, 24540, Note_on_c, 1, 64, 85
3, 24570, Note_on_c, 1, 64, 0
3, 24570, Note_on_c, 1, 62, 72
3, 24579, Control_c, 1, 64, 0
3, 24585, Note_on_c, 1, 38, 0
3, 24600, Note_on_c, 1, 60, 68
3, 24602, Note_on_c, 1, 62, 0
3, 24628, Note_on_c, 1, 60, 0
3, 24630, Note_on_c, 1, 59, 60
3, 24660, Note_on_c, 1, 57, 76
3, 24661, Note_on_c, 1, 59, 0
3, 24686, Note_on_c, 1, 57, 0
3, 24690, Note_on_c, 1, 55, 46
3, 24720, Note_on_c, 1, 54, 62
3, 24720, Note_on_c, 1, 38, 80
3, 24724, Note_on_c, 1, 55, 0
3, 24725, Control_c, 1, 64, 127
3, 24829, Note_on_c, 1, 38, 0
3, 24831, Note_on_c, 1, 54, 0
3, 24835, Control_c, 1, 64, 0
3, 24960, Note_on_c, 1, 38, 93
3, 25020, Note_on_c, 1, 63, 64
3, 25050, Note_on_c, 1, 62, 72
3, 25055, Note_on_c, 1, 63, 0
3, 25075, Note_on_c, 1, 62, 0
3, 25080, Note_on_c, 1, 60, 85
3, 25091, Note_on_c, 1, 38, 0
3, 25109, Note_on_c, 1, 60, 0
3, 25110, Note_on_c, 1, 58, 72
3, 25137, Note_on_c, 1, 58, 0
3, 25140, Note_on_c, 1, 57, 93
3, 25169, Note_on_c, 1, 57, 0
3, 25170, Note_on_c, 1, 55, 80
3, 25197, Note_on_c, 1, 55, 0
3, 25200, Note_on_c, 1, 38, 76
3, 25200, Note_on_c, 1, 54, 72
3, 25209, Control_c, 1, 64, 127
3, 25311, Note_on_c, 1, 38, 0
3, 25314, Note_on_c, 1, 54, 0
3, 25323, Control_c, 1, 64, 0
3, 25800, Note_on_c, 1, 57, 80
3, 25800, Note_on_c, 1, 51, 72
3, 25822, Control_c, 1, 64, 127
3, 25920, Note_on_c, 1, 55, 80
3, 25920, Note_on_c, 1, 52, 76
3, 25922, Note_on_c, 1, 51, 0
3, 25922, Note_on_c, 1, 57, 0
3, 25923, Control_c, 1, 64, 0
3, 25954, Control_c, 1, 64, 127
3, 26038, Note_on_c, 1, 55, 0
3, 26038, Note_on_c, 1, 52, 0
3, 26040, Note_on_c, 1, 56, 89
3, 26040, Note_on_c, 1, 50, 89
3, 26043, Control_c, 1, 64, 0
3, 26064, Control_c, 1, 64, 127
3, 26160, Note_on_c, 1, 48, 76
3, 26160, Note_on_c, 1, 57, 76
3, 26162, Control_c, 1, 64, 0
3, 26163, Note_on_c, 1, 50, 0
3, 26164, Note_on_c, 1, 56, 0
3, 26178, Control_c, 1, 64, 127
3, 26205, Note_on_c, 1, 57, 0
3, 26220, Note_on_c, 1, 60, 89
3, 26231, Control_c, 1, 64, 0
3, 26254, Control_c, 1, 64, 127
3, 26280, Note_on_c, 1, 62, 85
3, 26286, Note_on_c, 1, 60, 0
3, 26297, Control_c, 1, 64, 0
3, 26319, Control_c, 1, 64, 127
3, 26337, Note_on_c, 1, 62, 0
3, 26340, Note_on_c, 1, 64, 80
3, 26367, Note_on_c, 1, 64, 0
3, 26395, Note_on_c, 1, 48, 0
3, 26400, Note_on_c, 1, 50, 76
3, 26404, Control_c, 1, 64, 0
3, 26431, Control_c, 1, 64, 127
3, 26460, Note_on_c, 1, 62, 76
3, 26483, Note_on_c, 1, 62, 0
3, 26513, Note_on_c, 1, 50, 0
3, 26517, Control_c, 1, 64, 0
3, 26520, Note_on_c, 1, 62, 76
3, 26536, Control_c, 1, 64, 127
3, 26567, Note_on_c, 1, 62, 0
3, 26580, Note_on_c, 1, 62, 76
3, 26624, Note_on_c, 1, 62, 0
3, 26640, Note_on_c, 1, 62, 80
3, 26652, Control_c, 1, 64, 0
3, 26670, Control_c, 1, 64, 127
3, 26683, Note_on_c, 1, 62, 0
3, 26700, Note_on_c, 1, 62, 93
3, 26724, Note_on_c, 1, 62, 0
3, 26754, Control_c, 1, 64, 0
3, 26760, Note_on_c, 1, 62, 89
3, 26760, Note_on_c, 1, 50, 72
3, 26771, Control_c, 1, 64, 127
3, 26806, Note_on_c, 1, 50, 0
3, 26808, Note_on_c, 1, 62, 0
3, 26817, Control_c, 1, 64, 0
3, 26820, Note_on_c, 1, 62, 80
3, 26833, Control_c, 1, 64, 127
3, 26859, Note_on_c, 1, 62, 0
3, 26873, Control_c, 1, 64, 0
3, 26880, Note_on_c, 1, 47, 80
3, 26880, Note_on_c, 1, 62, 89
3, 26893, Control_c, 1, 64, 127
3, 26923, Note_on_c, 1, 47, 0
3, 26925, Note_on_c, 1, 62, 0
3, 26935, Control_c, 1, 64, 0
3, 26940, Note_on_c, 1, 62, 80
3, 26952, Control_c, 1, 64, 127
3, 26981, Note_on_c, 1, 62, 0
3, 26993, Control_c, 1, 64, 0
3, 27000, Note_on_c, 1, 62, 93
3, 27000, Note_on_c, 1, 43, 85
3, 27015, Control_c, 1, 64, 127
3, 27037, Note_on_c, 1, 43, 0
3, 27043, Note_on_c, 1, 62, 0
3, 27060, Note_on_c, 1, 62, 76
3, 27101, Note_on_c, 1, 62, 0
3, 27113, Control_c, 1, 64, 0
3, 27120, Note_on_c, 1, 50, 102
3, 27120, Note_on_c, 1, 62, 85
3, 27141, Control_c, 1, 64, 127
3, 27156, Note_on_c, 1, 62, 0
3, 27164, Note_on_c, 1, 50, 0
3, 27180, Note_on_c, 1, 62, 64
3, 27194, Note_on_c, 1, 62, 0
3, 27238, Control_c, 1, 64, 0
3, 27240, Note_on_c, 1, 38, 93
3, 27240, Note_on_c, 1, 62, 89
3, 27260, Control_c, 1, 64, 127
3, 27277, Note_on_c, 1, 62, 0
3, 27300, Note_on_c, 1, 38, 0
3, 27300, Note_on_c, 1, 62, 76
3, 27311, Note_on_c, 1, 62, 0
3, 27359, Control_c, 1, 64, 0
3, 27360, Note_on_c, 1, 43, 85
3, 27360, Note_on_c, 1, 62, 93
3, 27377, Control_c, 1, 64, 127
3, 27483, Note_on_c, 1, 43, 0
3, 27484, Note_on_c, 1, 62, 0
3, 27486, Control_c, 1, 64, 0
3, 30240, Note_on_c, 1, 43, 102
3, 30240, Note_on_c, 1, 55, 98
3, 30243, Control_c, 1, 64, 127
3, 30270, Note_on_c, 1, 55, 0
3, 30270, Note_on_c, 1, 50, 85
3, 30280, Note_on_c, 1, 43, 0
3, 30292, Control_c, 1, 64, 0
3, 30294, Note_on_c, 1, 50, 0
3, 30300, Note_on_c, 1, 55, 98
3, 30323, Control_c, 1, 64, 127
3, 30330, Note_on_c, 1, 59, 89
3, 30332, Note_on_c, 1, 55, 0
3, 30350, Control_c, 1, 64, 0
3, 30353, Note_on_c, 1, 59, 0
3, 30360, Note_on_c, 1, 62, 89
3, 30360, Note_on_c, 1, 47, 107
3, 30376, Control_c, 1, 64, 127
3, 30390, Note_on_c, 1, 55, 72
3, 30391, Note_on_c, 1, 62, 0
3, 30397, Note_on_c, 1, 47, 0
3, 30406, Control_c, 1, 64, 0
3, 30411, Note_on_c, 1, 55, 0
3, 30420, Note_on_c, 1, 46, 113
3, 30420, Note_on_c, 1, 61, 89
3, 30429, Control_c, 1, 64, 127
3, 30450, Note_on_c, 1, 55, 89
3, 30451, Note_on_c, 1, 61, 0
3, 30458, Note_on_c, 1, 46, 0
3, 30466, Note_on_c, 1, 55, 0
3, 30471, Control_c, 1, 64, 0
3, 30480, Note_on_c, 1, 62, 107
3, 30480, Note_on_c, 1, 47, 93
3, 30492, Control_c, 1, 64, 127
3, 30508, Note_on_c, 1, 62, 0
3, 30510, Note_on_c, 1, 55, 80
3, 30517, Note_on_c, 1, 47, 0
3, 30530, Note_on_c, 1, 55, 0
3, 30532, Control_c, 1, 64, 0
3, 30540, Note_on_c, 1, 47, 89
3, 30540, Note_on_c, 1, 63, 102
3, 30551, Control_c, 1, 64, 127
3, 30567, Note_on_c, 1, 63, 0
3, 30570, Note_on_c, 1, 55, 80
3, 30579, Note_on_c, 1, 47, 0
3, 30585, Note_on_c, 1, 55, 0
3, 30590, Control_c, 1, 64, 0
3, 30600, Note_on_c, 1, 64, 98
3, 30600, Note_on_c, 1, 48, 89
3, 30610, Control_c, 1, 64, 127
3, 30630, Note_on_c, 1, 55, 64
3, 30634, Note_on_c, 1, 64, 0
3, 30637, Note_on_c, 1, 48, 0
3, 30649, Note_on_c, 1, 55, 0
3, 30653, Control_c, 1, 64, 0
3, 30660, Note_on_c, 1, 47, 76
3, 30660, Note_on_c, 1, 62, 98
3, 30670, Control_c, 1, 64, 127
3, 30687, Note_on_c, 1, 62, 0
3, 30690, Note_on_c, 1, 55, 76
3, 30705, Note_on_c, 1, 47, 0
3, 30706, Note_on_c, 1, 55, 0
3, 30709, Control_c, 1, 64, 0
3, 30720, Note_on_c, 1, 45, 93
3, 30720, Note_on_c, 1, 60, 98
3, 30729, Control_c, 1, 64, 127
3, 30750, Note_on_c, 1, 50, 80
3, 30754, Note_on_c, 1, 60, 0
3, 30767, Control_c, 1, 64, 0
3, 30775, Note_on_c, 1, 45, 0
3, 30780, Note_on_c, 1, 50, 0
3, 30780, Note_on_c, 1, 54, 76
3, 30788, Control_c, 1, 64, 127
3, 30807, Note_on_c, 1, 54, 0
3, 30810, Note_on_c, 1, 57, 89
3, 30824, Control_c, 1, 64, 0
3, 30827, Note_on_c, 1, 57, 0
3, 30840, Note_on_c, 1, 45, 102
3, 30840, Note_on_c, 1, 60, 89
3, 30846, Control_c, 1, 64, 127
3, 30870, Note_on_c, 1, 50, 72
3, 30873, Note_on_c, 1, 60, 0
3, 30874, Note_on_c, 1, 45, 0
3, 30888, Control_c, 1, 64, 0
3, 30889, Note_on_c, 1, 50, 0
3, 30900, Note_on_c, 1, 59, 89
3, 30900, Note_on_c, 1, 44, 107
3, 30907, Control_c, 1, 64, 127
3, 30927, Note_on_c, 1, 59, 0
3, 30930, Note_on_c, 1, 50, 80
3, 30932, Note_on_c, 1, 44, 0
3, 30941, Note_on_c, 1, 50, 0
3, 30947, Control_c, 1, 64, 0
3, 30960, Note_on_c, 1, 60, 107
3, 30960, Note_on_c, 1, 45, 93
3, 30967, Control_c, 1, 64, 127
3, 30988, Note_on_c, 1, 60, 0
3, 30990, Note_on_c, 1, 50, 85
3, 30992, Note_on_c, 1, 45, 0
3, 31004, Note_on_c, 1, 50, 0
3, 31007, Control_c, 1, 64, 0
3, 31020, Note_on_c, 1, 46, 98
3, 31020, Note_on_c, 1, 61, 102
3, 31025, Control_c, 1, 64, 127
3, 31045, Note_on_c, 1, 61, 0
3, 31050, Note_on_c, 1, 46, 0
3, 31050, Note_on_c, 1, 50, 76
3, 31062, Note_on_c, 1, 50, 0
3, 31068, Control_c, 1, 64, 0
3, 31080, Note_on_c, 1, 62, 107
3, 31080, Note_on_c, 1, 47, 93
3, 31088, Control_c, 1, 64, 127
3, 31106, Note_on_c, 1, 62, 0
3, 31110, Note_on_c, 1, 50, 85
3, 31116, Note_on_c, 1, 47, 0
3, 31125, Note_on_c, 1, 50, 0
3, 31129, Control_c, 1, 64, 0
3, 31140, Note_on_c, 1, 60, 89
3, 31140, Note_on_c, 1, 45, 93
3, 31147, Control_c, 1, 64, 127
3, 31157, Note_on_c, 1, 45, 0
3, 31170, Note_on_c, 1, 50, 76
3, 31174, Note_on_c, 1, 60, 0
3, 31184, Note_on_c, 1, 50, 0
3, 31186, Control_c, 1, 64, 0
3, 31200, Note_on_c, 1, 59, 102
3, 31200, Note_on_c, 1, 43, 93
3, 31205, Control_c, 1, 64, 127
3, 31221, Note_on_c, 1, 59, 0
3, 31228, Note_on_c, 1, 43, 0
3, 31230, Note_on_c, 1, 55, 80
3, 31245, Note_on_c, 1, 55, 0
3, 31248, Control_c, 1, 64, 0
3, 31260, Note_on_c, 1, 42, 80
3, 31260, Note_on_c, 1, 57, 113
3, 31260, Note_on_c, 1, 62, 113
3, 31266, Control_c, 1, 64, 127
3, 31287, Note_on_c, 1, 42, 0
3, 31290, Note_on_c, 1, 54, 68
3, 31293, Note_on_c, 1, 62, 0
3, 31293, Note_on_c, 1, 57, 0
3, 31304, Note_on_c, 1, 54, 0
3, 31311, Control_c, 1, 64, 0
3, 31320, Note_on_c, 1, 40, 85
3, 31320, Note_on_c, 1, 60, 102
3, 31320, Note_on_c, 1, 55, 107
3, 31329, Control_c, 1, 64, 127
3, 31346, Note_on_c, 1, 60, 0
3, 31350, Note_on_c, 1, 52, 68
3, 31351, Note_on_c, 1, 55, 0
3, 31352, Note_on_c, 1, 40, 0
3, 31368, Note_on_c, 1, 52, 0
3, 31373, Control_c, 1, 64, 0
3, 31380, Note_on_c, 1, 38, 64
3, 31380, Note_on_c, 1, 59, 107
3, 31380, Note_on_c, 1, 54, 107
3, 31389, Control_c, 1, 64, 127
3, 31407, Note_on_c, 1, 54, 0
3, 31410, Note_on_c, 1, 50, 80
3, 31412, Note_on_c, 1, 38, 0
3, 31416, Note_on_c, 1, 59, 0
3, 31426, Note_on_c, 1, 50, 0
3, 31431, Control_c, 1, 64, 0
3, 31440, Note_on_c, 1, 36, 76
3, 31440, Note_on_c, 1, 57, 93
3, 31440, Note_on_c, 1, 52, 102
3, 31449, Control_c, 1, 64, 127
3, 31464, Note_on_c, 1, 52, 0
3, 31466, Note_on_c, 1, 57, 0
3, 31470, Note_on_c, 1, 48, 76
3, 31471, Note_on_c, 1, 36, 0
3, 31492, Note_on_c, 1, 48, 0
3, 31492, Control_c, 1, 64, 0
3, 31500, Note_on_c, 1, 35, 48
3, 31500, Note_on_c, 1, 55, 98
3, 31500, Note_on_c, 1, 50, 107
3, 31511, Control_c, 1, 64, 127
3, 31524, Note_on_c, 1, 55, 0
3, 31530, Note_on_c, 1, 47, 62
3, 31533, Note_on_c, 1, 50, 0
3, 31533, Note_on_c, 1, 35, 0
3, 31549, Note_on_c, 1, 47, 0
3, 31554, Control_c, 1, 64, 0
3, 31560, Note_on_c, 1, 33, 72
3, 31560, Note_on_c, 1, 54, 93
3, 31560, Note_on_c, 1, 48, 98
3, 31572, Control_c, 1, 64, 127
3, 31589, Note_on_c, 1, 54, 0
3, 31590, Note_on_c, 1, 45, 80
3, 31592, Note_on_c, 1, 33, 0
3, 31593, Note_on_c, 1, 48, 0
3, 31609, Note_on_c, 1, 45, 0
3, 31612, Control_c, 1, 64, 0
3, 31620, Note_on_c, 1, 47, 107
3, 31620, Note_on_c, 1, 52, 102
3, 31620, Note_on_c, 1, 31, 93
3, 31629, Control_c, 1, 64, 127
3, 31650, Note_on_c, 1, 47, 0
3, 31650, Note_on_c, 1, 43, 72
3, 31652, Note_on_c, 1, 31, 0
3, 31652, Note_on_c, 1, 52, 0
3, 31664, Note_on_c, 1, 43, 0
3, 31668, Control_c, 1, 64, 0
3, 31680, Note_on_c, 1, 45, 102
3, 31680, Note_on_c, 1, 50, 107
3, 31680, Note_on_c, 1, 42, 93
3, 31680, Note_on_c, 1, 30, 89
3, 31686, Control_c, 1, 64, 127
3, 31698, Note_on_c, 1, 45, 0
3, 31701, Note_on_c, 1, 50, 0
3, 31702, Note_on_c, 1, 42, 0
3, 31703, Note_on_c, 1, 30, 0
3, 31799, Control_c, 1, 64, 0
3, 32160, Note_on_c, 1, 48, 107
3, 32189, Note_on_c, 1, 48, 0
3, 32190, Note_on_c, 1, 47, 93
3, 32220, Note_on_c, 1, 47, 0
3, 32220, Note_on_c, 1, 50, 93
3, 32249, Note_on_c, 1, 50, 0
3, 32250, Note_on_c, 1, 48, 85
3, 32276, Note_on_c, 1, 48, 0
3, 32280, Note_on_c, 1, 52, 102
3, 32280, Note_on_c, 1, 43, 107
3, 32310, Note_on_c, 1, 52, 0
3, 32310, Note_on_c, 1, 50, 93
3, 32340, Note_on_c, 1, 50, 0
3, 32340, Note_on_c, 1, 53, 89
3, 32351, Control_c, 1, 64, 127
3, 32369, Note_on_c, 1, 53, 0
3, 32370, Note_on_c, 1, 52, 80
3, 32380, Note_on_c, 1, 52, 0
3, 32389, Control_c, 1, 64, 0
3, 32396, Note_on_c, 1, 43, 0
3, 32400, Note_on_c, 1, 40, 89
3, 32400, Note_on_c, 1, 55, 102
3, 32430, Note_on_c, 1, 53, 76
3, 32430, Control_c, 1, 64, 127
3, 32431, Note_on_c, 1, 55, 0
3, 32456, Note_on_c, 1, 53, 0
3, 32458, Control_c, 1, 64, 0
3, 32460, Note_on_c, 1, 57, 98
3, 32473, Control_c, 1, 64, 127
3, 32489, Note_on_c, 1, 57, 0
3, 32490, Note_on_c, 1, 55, 89
3, 32499, Note_on_c, 1, 55, 0
3, 32517, Control_c, 1, 64, 0
3, 32518, Note_on_c, 1, 40, 0
3, 32520, Note_on_c, 1, 59, 107
3, 32520, Note_on_c, 1, 36, 89
3, 32540, Control_c, 1, 64, 127
3, 32549, Note_on_c, 1, 59, 0
3, 32550, Note_on_c, 1, 57, 85
3, 32575, Control_c, 1, 64, 0
3, 32577, Note_on_c, 1, 57, 0
3, 32580, Note_on_c, 1, 60, 98
3, 32589, Control_c, 1, 64, 127
3, 32610, Note_on_c, 1, 36, 0
3, 32610, Note_on_c, 1, 59, 93
3, 32612, Note_on_c, 1, 60, 0
3, 32632, Note_on_c, 1, 59, 0
3, 32638, Control_c, 1, 64, 0
3, 32640, Note_on_c, 1, 31, 80
3, 32640, Note_on_c, 1, 62, 102
3, 32656, Control_c, 1, 64, 127
3, 32669, Note_on_c, 1, 31, 0
3, 32670, Note_on_c, 1, 43, 76
3, 32689, Control_c, 1, 64, 0
3, 32696, Note_on_c, 1, 43, 0
3, 32700, Note_on_c, 1, 33, 80
3, 32706, Control_c, 1, 64, 127
3, 32730, Note_on_c, 1, 45, 85
3, 32732, Note_on_c, 1, 33, 0
3, 32745, Control_c, 1, 64, 0
3, 32758, Note_on_c, 1, 45, 0
3, 32760, Note_on_c, 1, 35, 98
3, 32763, Control_c, 1, 64, 127
3, 32790, Note_on_c, 1, 47, 76
3, 32792, Note_on_c, 1, 35, 0
3, 32807, Control_c, 1, 64, 0
3, 32817, Note_on_c, 1, 47, 0
3, 32820, Note_on_c, 1, 36, 89
3, 32827, Control_c, 1, 64, 127
3, 32850, Note_on_c, 1, 48, 76
3, 32853, Note_on_c, 1, 36, 0
3, 32873, Control_c, 1, 64, 0
3, 32875, Note_on_c, 1, 48, 0
3, 32880, Note_on_c, 1, 38, 93
3, 32890, Control_c, 1, 64, 127
3, 32910, Note_on_c, 1, 50, 89
3, 32913, Note_on_c, 1, 38, 0
3, 32931, Control_c, 1, 64, 0
3, 32934, Note_on_c, 1, 50, 0
3, 32940, Note_on_c, 1, 40, 93
3, 32948, Control_c, 1, 64, 127
3, 32970, Note_on_c, 1, 52, 76
3, 32973, Note_on_c, 1, 40, 0
3, 32991, Note_on_c, 1, 62, 0
3, 32991, Control_c, 1, 64, 0
3, 32993, Note_on_c, 1, 52, 0
3, 33000, Note_on_c, 1, 41, 98
3, 33000, Note_on_c, 1, 67, 107
3, 33009, Control_c, 1, 64, 127
3, 33030, Note_on_c, 1, 53, 76
3, 33034, Note_on_c, 1, 41, 0
3, 33052, Control_c, 1, 64, 0
3, 33059, Note_on_c, 1, 53, 0
3, 33060, Note_on_c, 1, 43, 93
3, 33067, Control_c, 1, 64, 127
3, 33089, Note_on_c, 1, 43, 0
3, 33090, Note_on_c, 1, 55, 72
3, 33107, Note_on_c, 1, 67, 0
3, 33112, Note_on_c, 1, 55, 0
3, 33112, Control_c, 1, 64, 0
3, 33120, Note_on_c, 1, 48, 93
3, 33120, Note_on_c, 1, 67, 119
3, 33127, Control_c, 1, 64, 127
3, 33226, Control_c, 1, 64, 0
3, 33227, Note_on_c, 1, 48, 0
3, 33228, Note_on_c, 1, 67, 0
3, 33540, Note_on_c, 1, 36, 89
3, 33540, Note_on_c, 1, 48, 89
3, 33540, Note_on_c, 1, 55, 102
3, 33540, Note_on_c, 1, 60, 102
3, 33540, Note_on_c, 1, 64, 102
3, 33542, Control_c, 1, 64, 127
3, 33564, Note_on_c, 1, 48, 0
3, 33564, Note_on_c, 1, 36, 0
3, 33565, Note_on_c, 1, 64, 0
3, 33566, Note_on_c, 1, 60, 0
3, 33568, Note_on_c, 1, 55, 0
3, 33600, Control_c, 1, 64, 0
3, 33600, Note_on_c, 1, 64, 107
3, 33600, Note_on_c, 1, 55, 107
3, 33600, Note_on_c, 1, 37, 89
3, 33600, Note_on_c, 1, 58, 113
3, 33600, Note_on_c, 1, 49, 89
3, 33718, Note_on_c, 1, 49, 0
3, 33720, Note_on_c, 1, 58, 0
3, 33721, Note_on_c, 1, 37, 0
3, 33722, Note_on_c, 1, 55, 0
3, 33724, Note_on_c, 1, 64, 0
3, 34020, Note_on_c, 1, 58, 107
3, 34020, Note_on_c, 1, 55, 107
3, 34020, Note_on_c, 1, 64, 113
3, 34020, Note_on_c, 1, 37, 102
3, 34020, Note_on_c, 1, 49, 93
3, 34022, Control_c, 1, 64, 127
3, 34046, Note_on_c, 1, 37, 0
3, 34048, Note_on_c, 1, 49, 0
3, 34053, Note_on_c, 1, 55, 0
3, 34054, Note_on_c, 1, 58, 0
3, 34056, Note_on_c, 1, 64, 0
3, 34078, Control_c, 1, 64, 0
3, 34080, Note_on_c, 1, 38, 93
3, 34080, Note_on_c, 1, 50, 89
3, 34080, Note_on_c, 1, 55, 102
3, 34096, Control_c, 1, 64, 127
3, 34107, Note_on_c, 1, 55, 0
3, 34110, Note_on_c, 1, 62, 89
3, 34133, Note_on_c, 1, 62, 0
3, 34140, Note_on_c, 1, 59, 93
3, 34164, Note_on_c, 1, 59, 0
3, 34170, Note_on_c, 1, 62, 85
3, 34179, Note_on_c, 1, 50, 0
3, 34181, Note_on_c, 1, 38, 0
3, 34194, Note_on_c, 1, 62, 0
3, 34200, Note_on_c, 1, 55, 89
3, 34200, Note_on_c, 1, 50, 98
3, 34200, Control_c, 1, 64, 0
3, 34218, Control_c, 1, 64, 127
3, 34230, Note_on_c, 1, 55, 0
3, 34230, Note_on_c, 1, 62, 89
3, 34256, Note_on_c, 1, 62, 0
3, 34260, Note_on_c, 1, 59, 80
3, 34290, Note_on_c, 1, 59, 0
3, 34290, Note_on_c, 1, 62, 76
3, 34293, Note_on_c, 1, 50, 0
3, 34304, Note_on_c, 1, 62, 0
3, 34320, Note_on_c, 1, 47, 107
3, 34320, Note_on_c, 1, 55, 89
3, 34322, Control_c, 1, 64, 0
3, 34346, Control_c, 1, 64, 127
3, 34350, Note_on_c, 1, 55, 0
3, 34350, Note_on_c, 1, 62, 85
3, 34370, Note_on_c, 1, 62, 0
3, 34380, Note_on_c, 1, 59, 62
3, 34406, Note_on_c, 1, 59, 0
3, 34410, Note_on_c, 1, 62, 85
3, 34425, Note_on_c, 1, 62, 0
3, 34429, Note_on_c, 1, 47, 0
3, 34436, Control_c, 1, 64, 0
3, 34440, Note_on_c, 1, 55, 107
3, 34440, Note_on_c, 1, 43, 98
3, 34456, Control_c, 1, 64, 127
3, 34464, Note_on_c, 1, 55, 0
3, 34470, Note_on_c, 1, 62, 93
3, 34489, Note_on_c, 1, 62, 0
3, 34491, Note_on_c, 1, 43, 0
3, 34500, Note_on_c, 1, 59, 64
3, 34530, Note_on_c, 1, 62, 89
3, 34531, Note_on_c, 1, 59, 0
3, 34539, Note_on_c, 1, 62, 0
3, 34560, Note_on_c, 1, 50, 60
3, 34560, Note_on_c, 1, 38, 93
3, 34560, Control_c, 1, 64, 0
3, 34603, Control_c, 1, 64, 127
3, 34609, Note_on_c, 1, 38, 0
3, 34620, Note_on_c, 1, 38, 107
3, 34661, Note_on_c, 1, 38, 0
3, 34680, Note_on_c, 1, 38, 89
3, 34714, Note_on_c, 1, 38, 0
3, 34740, Note_on_c, 1, 38, 89
3, 34745, Note_on_c, 1, 50, 0
3, 34757, Note_on_c, 1, 38, 0
3, 34800, Note_on_c, 1, 62, 102
3, 34800, Note_on_c, 1, 54, 93
3, 34800, Note_on_c, 1, 57, 102
3, 34800, Note_on_c, 1, 38, 89
3, 34800, Note_on_c, 1, 50, 85
3, 34801, Control_c, 1, 64, 0
3, 34818, Control_c, 1, 64, 127
3, 34845, Note_on_c, 1, 50, 0
3, 34847, Note_on_c, 1, 38, 0
3, 34860, Note_on_c, 1, 38, 89
3, 34860, Note_on_c, 1, 50, 89
3, 34888, Note_on_c, 1, 38, 0
3, 34889, Note_on_c, 1, 50, 0
3, 34909, Note_on_c, 1, 57, 0
3, 34910, Note_on_c, 1, 54, 0
3, 34910, Note_on_c, 1, 62, 0
3, 34920, Note_on_c, 1, 38, 93
3, 34920, Control_c, 1, 64, 0
3, 34920, Note_on_c, 1, 50, 89
3, 34936, Control_c, 1, 64, 127
3, 34951, Note_on_c, 1, 50, 0
3, 34952, Note_on_c, 1, 38, 0
3, 34980, Note_on_c, 1, 38, 62
3, 34980, Note_on_c, 1, 50, 72
3, 35001, Note_on_c, 1, 50, 0
3, 35001, Note_on_c, 1, 38, 0
3, 35040, Note_on_c, 1, 43, 61
3, 35043, Control_c, 1, 64, 0
3, 35062, Control_c, 1, 64, 127
3, 35100, Note_on_c, 1, 59, 61
3, 35160, Note_on_c, 1, 62, 72
3, 35160, Note_on_c, 1, 67, 64
3, 35163, Note_on_c, 1, 59, 0
3, 35166, Control_c, 1, 64, 0
3, 35168, Note_on_c, 1, 43, 0
3, 35187, Control_c, 1, 64, 127
3, 35214, Control_c, 1, 64, 0
3, 35220, Note_on_c, 1, 59, 57
3, 35225, Control_c, 1, 64, 127
3, 35226, Note_on_c, 1, 62, 0
3, 35228, Note_on_c, 1, 67, 0
3, 35256, Note_on_c, 1, 59, 0
3, 35280, Note_on_c, 1, 62, 64
3, 35280, Note_on_c, 1, 67, 61
3, 35287, Control_c, 1, 64, 0
3, 35304, Control_c, 1, 64, 127
3, 35340, Note_on_c, 1, 59, 46
3, 35347, Note_on_c, 1, 62, 0
3, 35360, Note_on_c, 1, 67, 0
3, 35361, Note_on_c, 1, 59, 0
3, 35400, Note_on_c, 1, 62, 64
3, 35400, Note_on_c, 1, 67, 64
3, 35408, Control_c, 1, 64, 0
3, 35426, Control_c, 1, 64, 127
3, 35460, Note_on_c, 1, 59, 57
3, 35461, Note_on_c, 1, 62, 0
3, 35503, Note_on_c, 1, 67, 0
3, 35504, Note_on_c, 1, 59, 0
3, 35519, Control_c, 1, 64, 0
3, 35520, Note_on_c, 1, 40, 68
3, 35539, Control_c, 1, 64, 127
3, 35580, Note_on_c, 1, 59, 72
3, 35635, Note_on_c, 1, 59, 0
3, 35640, Note_on_c, 1, 64, 75
3, 35640, Note_on_c, 1, 62, 72
3, 35640, Note_on_c, 1, 68, 61
3, 35643, Control_c, 1, 64, 0
3, 35657, Note_on_c, 1, 40, 0
3, 35659, Control_c, 1, 64, 127
3, 35700, Note_on_c, 1, 59, 54
3, 35701, Note_on_c, 1, 64, 0
3, 35701, Note_on_c, 1, 62, 0
3, 35703, Note_on_c, 1, 68, 0
3, 35731, Note_on_c, 1, 59, 0
3, 35760, Note_on_c, 1, 64, 75
3, 35760, Note_on_c, 1, 68, 72
3, 35760, Note_on_c, 1, 62, 75
3, 35767, Control_c, 1, 64, 0
3, 35780, Control_c, 1, 64, 127
3, 35812, Note_on_c, 1, 68, 0
3, 35813, Note_on_c, 1, 62, 0
3, 35815, Note_on_c, 1, 64, 0
3, 35820, Note_on_c, 1, 59, 50
3, 35846, Note_on_c, 1, 59, 0
3, 35879, Control_c, 1, 64, 0
3, 35880, Note_on_c, 1, 64, 79
3, 35880, Note_on_c, 1, 62, 79
3, 35880, Note_on_c, 1, 68, 68
3, 35893, Control_c, 1, 64, 127
3, 35936, Note_on_c, 1, 68, 0
3, 35940, Note_on_c, 1, 59, 64
3, 35942, Note_on_c, 1, 64, 0
3, 35948, Note_on_c, 1, 62, 0
3, 35961, Note_on_c, 1, 59, 0
3, 36000, Note_on_c, 1, 45, 75
3, 36001, Control_c, 1, 64, 0
3, 36025, Control_c, 1, 64, 127
3, 36060, Note_on_c, 1, 60, 79
3, 36115, Note_on_c, 1, 60, 0
3, 36116, Control_c, 1, 64, 0
3, 36120, Note_on_c, 1, 64, 79
3, 36120, Note_on_c, 1, 69, 79
3, 36131, Control_c, 1, 64, 127
3, 36177, Note_on_c, 1, 45, 0
3, 36180, Note_on_c, 1, 47, 68
3, 36180, Note_on_c, 1, 60, 72
3, 36184, Note_on_c, 1, 64, 0
3, 36207, Note_on_c, 1, 69, 0
3, 36210, Note_on_c, 1, 48, 75
3, 36212, Note_on_c, 1, 60, 0
3, 36214, Note_on_c, 1, 47, 0
3, 36237, Note_on_c, 1, 48, 0
3, 36240, Note_on_c, 1, 59, 75
3, 36240, Note_on_c, 1, 67, 75
3, 36240, Note_on_c, 1, 50, 79
3, 36241, Control_c, 1, 64, 0
3, 36263, Control_c, 1, 64, 127
3, 36291, Note_on_c, 1, 59, 0
3, 36300, Note_on_c, 1, 62, 75
3, 36303, Note_on_c, 1, 67, 0
3, 36311, Note_on_c, 1, 62, 0
3, 36360, Note_on_c, 1, 50, 0
3, 36360, Note_on_c, 1, 38, 75
3, 36360, Note_on_c, 1, 57, 75
3, 36360, Note_on_c, 1, 66, 72
3, 36365, Control_c, 1, 64, 0
3, 36400, Control_c, 1, 64, 127
3, 36420, Note_on_c, 1, 57, 0
3, 36420, Note_on_c, 1, 60, 64
3, 36441, Note_on_c, 1, 66, 0
3, 36453, Note_on_c, 1, 60, 0
3, 36466, Note_on_c, 1, 38, 0
3, 36480, Note_on_c, 1, 43, 64
3, 36480, Control_c, 1, 64, 0
3, 36499, Control_c, 1, 64, 127
3, 36540, Note_on_c, 1, 59, 75
3, 36600, Note_on_c, 1, 67, 57
3, 36600, Note_on_c, 1, 62, 68
3, 36601, Note_on_c, 1, 59, 0
3, 36606, Control_c, 1, 64, 0
3, 36610, Note_on_c, 1, 43, 0
3, 36622, Control_c, 1, 64, 127
3, 36651, Note_on_c, 1, 67, 0
3, 36653, Note_on_c, 1, 62, 0
3, 36660, Note_on_c, 1, 59, 52
3, 36720, Note_on_c, 1, 67, 61
3, 36720, Note_on_c, 1, 62, 68
3, 36722, Note_on_c, 1, 59, 0
3, 36775, Note_on_c, 1, 62, 0
3, 36775, Note_on_c, 1, 67, 0
3, 36780, Note_on_c, 1, 59, 54
3, 36837, Note_on_c, 1, 59, 0
3, 36840, Note_on_c, 1, 62, 75
3, 36840, Note_on_c, 1, 67, 64
3, 36900, Note_on_c, 1, 62, 0
3, 36900, Note_on_c, 1, 59, 61
3, 36901, Note_on_c, 1, 67, 0
3, 36925, Note_on_c, 1, 59, 0
3, 36960, Note_on_c, 1, 40, 61
3, 36962, Control_c, 1, 64, 0
3, 36986, Control_c, 1, 64, 127
3, 37020, Note_on_c, 1, 59, 75
3, 37071, Note_on_c, 1, 59, 0
3, 37079, Control_c, 1, 64, 0
3, 37080, Note_on_c, 1, 62, 75
3, 37080, Note_on_c, 1, 68, 64
3, 37080, Note_on_c, 1, 64, 75
3, 37094, Control_c, 1, 64, 127
3, 37129, Note_on_c, 1, 40, 0
3, 37140, Note_on_c, 1, 59, 64
3, 37140, Control_c, 1, 64, 0
3, 37144, Note_on_c, 1, 62, 0
3, 37154, Control_c, 1, 64, 127
3, 37168, Note_on_c, 1, 68, 0
3, 37173, Note_on_c, 1, 64, 0
3, 37178, Note_on_c, 1, 59, 0
3, 37200, Note_on_c, 1, 62, 75
3, 37200, Note_on_c, 1, 64, 72
3, 37200, Note_on_c, 1, 68, 72
3, 37205, Control_c, 1, 64, 0
3, 37220, Control_c, 1, 64, 127
3, 37251, Note_on_c, 1, 68, 0
3, 37253, Note_on_c, 1, 64, 0
3, 37253, Note_on_c, 1, 62, 0
3, 37260, Note_on_c, 1, 59, 61
3, 37292, Note_on_c, 1, 59, 0
3, 37318, Control_c, 1, 64, 0
3, 37320, Note_on_c, 1, 68, 68
3, 37320, Note_on_c, 1, 64, 75
3, 37320, Note_on_c, 1, 62, 75
3, 37333, Control_c, 1, 64, 127
3, 37376, Note_on_c, 1, 68, 0
3, 37378, Note_on_c, 1, 64, 0
3, 37380, Note_on_c, 1, 59, 72
3, 37387, Note_on_c, 1, 62, 0
3, 37399, Note_on_c, 1, 59, 0
3, 37440, Note_on_c, 1, 45, 72
3, 37453, Control_c, 1, 64, 0
3, 37477, Control_c, 1, 64, 127
3, 37500, Note_on_c, 1, 60, 68
3, 37556, Control_c, 1, 64, 0
3, 37560, Note_on_c, 1, 60, 0
3, 37560, Note_on_c, 1, 64, 79
3, 37560, Note_on_c, 1, 69, 79
3, 37570, Control_c, 1, 64, 127
3, 37615, Note_on_c, 1, 69, 0
3, 37617, Note_on_c, 1, 45, 0
3, 37620, Note_on_c, 1, 47, 64
3, 37620, Note_on_c, 1, 60, 79
3, 37622, Note_on_c, 1, 64, 0
3, 37623, Control_c, 1, 64, 0
3, 37636, Control_c, 1, 64, 127
3, 37650, Note_on_c, 1, 48, 75
3, 37651, Note_on_c, 1, 47, 0
3, 37658, Note_on_c, 1, 60, 0
3, 37678, Note_on_c, 1, 48, 0
3, 37680, Note_on_c, 1, 59, 75
3, 37680, Note_on_c, 1, 50, 72
3, 37680, Note_on_c, 1, 67, 75
3, 37683, Control_c, 1, 64, 0
3, 37702, Control_c, 1, 64, 127
3, 37739, Note_on_c, 1, 59, 0
3, 37740, Note_on_c, 1, 50, 0
3, 37740, Note_on_c, 1, 62, 68
3, 37742, Note_on_c, 1, 67, 0
3, 37751, Note_on_c, 1, 62, 0
3, 37789, Control_c, 1, 64, 0
3, 37800, Note_on_c, 1, 57, 75
3, 37800, Note_on_c, 1, 66, 72
3, 37800, Note_on_c, 1, 38, 79
3, 37815, Control_c, 1, 64, 127
3, 37860, Note_on_c, 1, 66, 0
3, 37860, Note_on_c, 1, 60, 75
3, 37863, Note_on_c, 1, 38, 0
3, 37865, Note_on_c, 1, 57, 0
3, 37873, Note_on_c, 1, 60, 0
3, 37920, Note_on_c, 1, 67, 75
3, 37920, Note_on_c, 1, 59, 75
3, 37920, Note_on_c, 1, 43, 61
3, 37920, Control_c, 1, 64, 0
3, 37936, Control_c, 1, 64, 127
3, 38040, Note_on_c, 1, 43, 0
3, 38042, Note_on_c, 1, 67, 0
3, 38042, Control_c, 1, 64, 0
3, 38044, Note_on_c, 1, 59, 0
3, 38280, Note_on_c, 1, 66, 79
3, 38280, Note_on_c, 1, 57, 96
3, 38280, Note_on_c, 1, 60, 86
3, 38280, Note_on_c, 1, 62, 86
3, 38280, Note_on_c, 1, 38, 79
3, 38280, Note_on_c, 1, 50, 79
3, 38285, Control_c, 1, 64, 127
3, 38333, Note_on_c, 1, 50, 0
3, 38339, Note_on_c, 1, 66, 0
3, 38339, Note_on_c, 1, 60, 0
3, 38339, Note_on_c, 1, 62, 0
3, 38342, Note_on_c, 1, 57, 0
3, 38343, Note_on_c, 1, 38, 0
3, 38398, Control_c, 1, 64, 0
3, 38400, Note_on_c, 1, 59, 91
3, 38400, Note_on_c, 1, 55, 87
3, 38400, Note_on_c, 1, 62, 91
3, 38400, Note_on_c, 1, 67, 87
3, 38400, Note_on_c, 1, 31, 84
3, 38400, Note_on_c, 1, 43, 73
3, 38418, Control_c, 1, 64, 127
3, 38479, Control_c, 1, 64, 0
3, 38480, Note_on_c, 1, 67, 0
3, 38481, Note_on_c, 1, 31, 0
3, 38481, Note_on_c, 1, 62, 0
3, 38481, Note_on_c, 1, 55, 0
3, 38482, Note_on_c, 1, 59, 0
3, 38486, Note_on_c, 1, 43, 0
3, 38760, Note_on_c, 1, 66, 82
3, 38760, Note_on_c, 1, 57, 93
3, 38760, Note_on_c, 1, 38, 82
3, 38760, Note_on_c, 1, 62, 93
3, 38760, Note_on_c, 1, 60, 86
3, 38760, Note_on_c, 1, 50, 78
3, 38762, Control_c, 1, 64, 127
3, 38779, Note_on_c, 1, 62, 0
3, 38781, Note_on_c, 1, 50, 0
3, 38782, Note_on_c, 1, 60, 0
3, 38783, Note_on_c, 1, 66, 0
3, 38788, Note_on_c, 1, 57, 0
3, 38791, Note_on_c, 1, 38, 0
3, 38870, Control_c, 1, 64, 0
3, 38880, Note_on_c, 1, 55, 78
3, 38880, Note_on_c, 1, 31, 82
3, 38880, Note_on_c, 1, 43, 78
3, 38880, Note_on_c, 1, 31, 71
3, 38880, Note_on_c, 1, 55, 94
3, 38880, Note_on_c, 1, 43, 64
3, 38910, Note_on_c, 1, 55, 0
3, 38910, Note_on_c, 1, 50, 82
3, 38911, Note_on_c, 1, 55, 0
3, 38916, Control_c, 1, 64, 127
3, 38933, Control_c, 1, 64, 0
3, 38940, Note_on_c, 1, 52, 78
3, 38941, Note_on_c, 1, 50, 0
3, 38952, Control_c, 1, 64, 127
3, 38967, Note_on_c, 1, 52, 0
3, 38970, Note_on_c, 1, 54, 59
3, 38997, Note_on_c, 1, 54, 0
3, 39000, Note_on_c, 1, 55, 78
3, 39001, Note_on_c, 1, 43, 0
3, 39002, Control_c, 1, 64, 0
3, 39004, Note_on_c, 1, 31, 0
3, 39025, Note_on_c, 1, 43, 0
3, 39028, Note_on_c, 1, 31, 0
3, 39029, Note_on_c, 1, 55, 0
3, 39030, Note_on_c, 1, 57, 82
3, 39059, Note_on_c, 1, 57, 0
3, 39060, Note_on_c, 1, 59, 72
3, 39090, Note_on_c, 1, 60, 55
3, 39093, Note_on_c, 1, 59, 0
3, 39120, Note_on_c, 1, 62, 79
3, 39121, Note_on_c, 1, 60, 0
3, 39150, Note_on_c, 1, 59, 50
3, 39151, Note_on_c, 1, 62, 0
3, 39178, Note_on_c, 1, 59, 0
3, 39180, Note_on_c, 1, 60, 79
3, 39210, Note_on_c, 1, 57, 48
3, 39213, Note_on_c, 1, 60, 0
3, 39237, Note_on_c, 1, 57, 0
3, 39240, Note_on_c, 1, 59, 80
3, 39270, Note_on_c, 1, 55, 57
3, 39271, Note_on_c, 1, 59, 0
3, 39298, Note_on_c, 1, 55, 0
3, 39300, Note_on_c, 1, 57, 80
3, 39330, Note_on_c, 1, 54, 42
3, 39335, Note_on_c, 1, 57, 0
3, 39357, Note_on_c, 1, 54, 0
3, 39360, Note_on_c, 1, 55, 80
3, 39389, Note_on_c, 1, 55, 0
3, 39390, Note_on_c, 1, 52, 55
3, 39416, Note_on_c, 1, 52, 0
3, 39420, Note_on_c, 1, 54, 73
3, 39450, Note_on_c, 1, 50, 45
3, 39454, Note_on_c, 1, 54, 0
3, 39472, Note_on_c, 1, 50, 0
3, 39480, Note_on_c, 1, 52, 81
3, 39509, Note_on_c, 1, 52, 0
3, 39510, Note_on_c, 1, 48, 50
3, 39535, Note_on_c, 1, 48, 0
3, 39540, Note_on_c, 1, 50, 81
3, 39570, Note_on_c, 1, 47, 47
3, 39573, Note_on_c, 1, 50, 0
3, 39595, Note_on_c, 1, 47, 0
3, 39600, Note_on_c, 1, 48, 78
3, 39630, Note_on_c, 1, 48, 0
3, 39630, Note_on_c, 1, 45, 66
3, 39654, Note_on_c, 1, 45, 0
3, 39660, Note_on_c, 1, 47, 81
3, 39690, Note_on_c, 1, 47, 0
3, 39690, Note_on_c, 1, 43, 55
3, 39716, Note_on_c, 1, 43, 0
3, 39720, Note_on_c, 1, 45, 81
3, 39750, Note_on_c, 1, 42, 62
3, 39752, Note_on_c, 1, 45, 0
3, 39777, Note_on_c, 1, 42, 0
3, 39780, Note_on_c, 1, 43, 82
3, 39810, Note_on_c, 1, 40, 82
3, 39812, Note_on_c, 1, 43, 0
3, 39834, Note_on_c, 1, 40, 0
3, 39840, Note_on_c, 1, 38, 91
3, 39870, Note_on_c, 1, 43, 62
3, 39886, Note_on_c, 1, 38, 0
3, 39900, Note_on_c, 1, 47, 82
3, 39902, Control_c, 1, 64, 127
3, 39914, Note_on_c, 1, 43, 0
3, 39929, Note_on_c, 1, 47, 0
3, 39930, Note_on_c, 1, 50, 82
3, 39950, Note_on_c, 1, 50, 0
3, 39955, Control_c, 1, 64, 0
3, 39960, Note_on_c, 1, 59, 86
3, 39960, Note_on_c, 1, 55, 86
3, 39960, Note_on_c, 1, 62, 91
3, 39960, Note_on_c, 1, 38, 82
3, 39981, Control_c, 1, 64, 127
3, 39990, Note_on_c, 1, 43, 71
3, 39996, Note_on_c, 1, 38, 0
3, 40020, Note_on_c, 1, 47, 79
3, 40031, Note_on_c, 1, 43, 0
3, 40048, Note_on_c, 1, 62, 0
3, 40049, Note_on_c, 1, 47, 0
3, 40049, Note_on_c, 1, 55, 0
3, 40050, Note_on_c, 1, 50, 83
3, 40052, Note_on_c, 1, 59, 0
3, 40069, Note_on_c, 1, 50, 0
3, 40080, Note_on_c, 1, 62, 87
3, 40080, Note_on_c, 1, 54, 95
3, 40080, Note_on_c, 1, 57, 99
3, 40080, Note_on_c, 1, 38, 83
3, 40082, Control_c, 1, 64, 0
3, 40110, Note_on_c, 1, 42, 56
3, 40123, Note_on_c, 1, 38, 0
3, 40125, Control_c, 1, 64, 127
3, 40140, Note_on_c, 1, 45, 83
3, 40147, Note_on_c, 1, 42, 0
3, 40169, Note_on_c, 1, 45, 0
3, 40170, Note_on_c, 1, 54, 0
3, 40170, Note_on_c, 1, 50, 71
3, 40171, Note_on_c, 1, 57, 0
3, 40171, Note_on_c, 1, 62, 0
3, 40189, Note_on_c, 1, 50, 0
3, 40200, Note_on_c, 1, 38, 88
3, 40200, Note_on_c, 1, 62, 96
3, 40200, Note_on_c, 1, 54, 100
3, 40200, Note_on_c, 1, 57, 100
3, 40200, Control_c, 1, 64, 0
3, 40220, Control_c, 1, 64, 127
3, 40230, Note_on_c, 1, 42, 57
3, 40251, Note_on_c, 1, 38, 0
3, 40260, Note_on_c, 1, 42, 0
3, 40260, Note_on_c, 1, 45, 71
3, 40290, Note_on_c, 1, 50, 68
3, 40292, Note_on_c, 1, 57, 0
3, 40293, Note_on_c, 1, 45, 0
3, 40293, Note_on_c, 1, 62, 0
3, 40298, Note_on_c, 1, 54, 0
3, 40310, Note_on_c, 1, 50, 0
3, 40317, Control_c, 1, 64, 0
3, 40320, Note_on_c, 1, 55, 96
3, 40320, Note_on_c, 1, 59, 96
3, 40320, Note_on_c, 1, 43, 84
3, 40335, Control_c, 1, 64, 127
3, 40377, Note_on_c, 1, 59, 0
3, 40379, Note_on_c, 1, 55, 0
3, 40380, Note_on_c, 1, 43, 0
3, 40427, Control_c, 1, 64, 0
3, 40440, Note_on_c, 1, 55, 89
3, 40440, Note_on_c, 1, 50, 93
3, 40440, Note_on_c, 1, 47, 89
3, 40440, Note_on_c, 1, 31, 89
3, 40440, Note_on_c, 1, 43, 72
3, 40451, Control_c, 1, 64, 127
3, 40515, Note_on_c, 1, 50, 0
3, 40516, Note_on_c, 1, 55, 0
3, 40516, Note_on_c, 1, 47, 0
3, 40519, Note_on_c, 1, 31, 0
3, 40520, Note_on_c, 1, 43, 0
3, 40552, Control_c, 1, 64, 0
3, 40560, Note_on_c, 1, 55, 94
3, 40560, Note_on_c, 1, 50, 94
3, 40560, Note_on_c, 1, 47, 102
3, 40560, Note_on_c, 1, 31, 90
3, 40560, Note_on_c, 1, 43, 85
3, 40572, Control_c, 1, 64, 127
3, 40679, Note_on_c, 1, 50, 0
3, 40680, Note_on_c, 1, 47, 0
3, 40680, Control_c, 1, 64, 0
3, 40681, Note_on_c, 1, 43, 0
3, 40682, Note_on_c, 1, 55, 0
3, 40683, Note_on_c, 1, 31, 0
3, 40800, Note_on_c, 1, 31, 60
3, 40800, Note_on_c, 1, 59, 72
3, 40800, Note_on_c, 1, 43, 48
3, 40800, Note_on_c, 1, 62, 72
3, 40812, Control_c, 1, 64, 127
3, 40860, Note_on_c, 1, 55, 57
3, 40864, Note_on_c, 1, 59, 0
3, 40871, Note_on_c, 1, 43, 0
3, 40873, Note_on_c, 1, 31, 0
3, 40915, Note_on_c, 1, 55, 0
3, 40920, Note_on_c, 1, 59, 64
3, 40929, Control_c, 1, 64, 0
3, 40959, Control_c, 1, 64, 127
3, 40979, Note_on_c, 1, 59, 0
3, 40980, Note_on_c, 1, 55, 51
3, 41040, Note_on_c, 1, 59, 56
3, 41043, Note_on_c, 1, 55, 0
3, 41100, Note_on_c, 1, 59, 0
3, 41100, Note_on_c, 1, 55, 50
3, 41126, Control_c, 1, 64, 0
3, 41156, Control_c, 1, 64, 127
3, 41160, Note_on_c, 1, 59, 62
3, 41164, Note_on_c, 1, 55, 0
3, 41217, Note_on_c, 1, 59, 0
3, 41220, Note_on_c, 1, 55, 56
3, 41221, Note_on_c, 1, 62, 0
3, 41241, Note_on_c, 1, 55, 0
3, 41280, Note_on_c, 1, 31, 64
3, 41280, Note_on_c, 1, 59, 68
3, 41280, Note_on_c, 1, 43, 52
3, 41280, Note_on_c, 1, 62, 62
3, 41287, Control_c, 1, 64, 0
3, 41309, Control_c, 1, 64, 127
3, 41339, Note_on_c, 1, 59, 0
3, 41340, Note_on_c, 1, 55, 53
3, 41397, Note_on_c, 1, 31, 0
3, 41399, Note_on_c, 1, 43, 0
3, 41400, Note_on_c, 1, 59, 62
3, 41401, Note_on_c, 1, 55, 0
3, 41418, Control_c, 1, 64, 0
3, 41445, Control_c, 1, 64, 127
3, 41458, Note_on_c, 1, 59, 0
3, 41460, Note_on_c, 1, 55, 49
3, 41519, Note_on_c, 1, 55, 0
3, 41520, Note_on_c, 1, 59, 59
3, 41532, Control_c, 1, 64, 0
3, 41550, Control_c, 1, 64, 127
3, 41577, Note_on_c, 1, 59, 0
3, 41580, Note_on_c, 1, 55, 55
3, 41639, Note_on_c, 1, 55, 0
3, 41640, Note_on_c, 1, 59, 55
3, 41697, Note_on_c, 1, 59, 0
3, 41700, Note_on_c, 1, 55, 53
3, 41701, Note_on_c, 1, 62, 0
3, 41722, Note_on_c, 1, 55, 0
3, 41760, Note_on_c, 1, 31, 59
3, 41760, Note_on_c, 1, 59, 68
3, 41760, Note_on_c, 1, 62, 62
3, 41760, Note_on_c, 1, 43, 45
3, 41766, Control_c, 1, 64, 0
3, 41788, Control_c, 1, 64, 127
3, 41819, Note_on_c, 1, 59, 0
3, 41820, Note_on_c, 1, 55, 55
3, 41821, Note_on_c, 1, 43, 0
3, 41824, Note_on_c, 1, 31, 0
3, 41873, Note_on_c, 1, 55, 0
3, 41880, Note_on_c, 1, 59, 62
3, 41895, Control_c, 1, 64, 0
3, 41915, Control_c, 1, 64, 127
3, 41934, Note_on_c, 1, 59, 0
3, 41940, Note_on_c, 1, 55, 55
3, 42000, Note_on_c, 1, 59, 56
3, 42001, Note_on_c, 1, 55, 0
3, 42026, Control_c, 1, 64, 0
3, 42043, Control_c, 1, 64, 127
3, 42055, Note_on_c, 1, 59, 0
3, 42060, Note_on_c, 1, 55, 52
3, 42120, Note_on_c, 1, 59, 60
3, 42122, Note_on_c, 1, 55, 0
3, 42130, Control_c, 1, 64, 0
3, 42144, Control_c, 1, 64, 127
3, 42177, Note_on_c, 1, 59, 0
3, 42180, Note_on_c, 1, 55, 55
3, 42184, Note_on_c, 1, 62, 0
3, 42202, Note_on_c, 1, 55, 0
3, 42240, Note_on_c, 1, 60, 62
3, 42240, Note_on_c, 1, 31, 60
3, 42240, Note_on_c, 1, 43, 55
3, 42240, Note_on_c, 1, 64, 64
3, 42246, Control_c, 1, 64, 0
3, 42264, Control_c, 1, 64, 127
3, 42300, Note_on_c, 1, 60, 0
3, 42300, Note_on_c, 1, 55, 52
3, 42318, Note_on_c, 1, 43, 0
3, 42323, Note_on_c, 1, 31, 0
3, 42358, Note_on_c, 1, 55, 0
3, 42360, Note_on_c, 1, 60, 57
3, 42380, Control_c, 1, 64, 0
3, 42398, Control_c, 1, 64, 127
3, 42419, Note_on_c, 1, 60, 0
3, 42420, Note_on_c, 1, 55, 52
3, 42479, Note_on_c, 1, 55, 0
3, 42480, Note_on_c, 1, 60, 56
3, 42536, Note_on_c, 1, 60, 0
3, 42540, Note_on_c, 1, 55, 47
3, 42600, Note_on_c, 1, 60, 56
3, 42605, Note_on_c, 1, 55, 0
3, 42657, Note_on_c, 1, 60, 0
3, 42658, Note_on_c, 1, 64, 0
3, 42660, Note_on_c, 1, 55, 56
3, 42679, Note_on_c, 1, 55, 0
3, 42715, Control_c, 1, 64, 0
3, 42720, Note_on_c, 1, 60, 68
3, 42720, Note_on_c, 1, 31, 57
3, 42720, Note_on_c, 1, 64, 64
3, 42720, Note_on_c, 1, 43, 46
3, 42737, Control_c, 1, 64, 127
3, 42775, Note_on_c, 1, 43, 0
3, 42778, Note_on_c, 1, 60, 0
3, 42779, Note_on_c, 1, 31, 0
3, 42780, Note_on_c, 1, 55, 51
3, 42840, Note_on_c, 1, 60, 56
3, 42842, Note_on_c, 1, 55, 0
3, 42851, Control_c, 1, 64, 0
3, 42868, Control_c, 1, 64, 127
3, 42899, Note_on_c, 1, 60, 0
3, 42900, Note_on_c, 1, 55, 55
3, 42960, Note_on_c, 1, 60, 64
3, 42964, Note_on_c, 1, 55, 0
3, 43017, Note_on_c, 1, 60, 0
3, 43020, Note_on_c, 1, 55, 51
3, 43071, Note_on_c, 1, 55, 0
3, 43080, Note_on_c, 1, 60, 76
3, 43087, Control_c, 1, 64, 0
3, 43101, Control_c, 1, 64, 127
3, 43140, Note_on_c, 1, 55, 56
3, 43141, Note_on_c, 1, 60, 0
3, 43146, Note_on_c, 1, 64, 0
3, 43157, Note_on_c, 1, 55, 0
3, 43200, Note_on_c, 1, 31, 56
3, 43200, Note_on_c, 1, 43, 50
3, 43200, Note_on_c, 1, 62, 68
3, 43200, Note_on_c, 1, 60, 60
3, 43200, Note_on_c, 1, 66, 55
3, 43209, Control_c, 1, 64, 0
3, 43228, Control_c, 1, 64, 127
3, 43259, Note_on_c, 1, 60, 0
3, 43260, Note_on_c, 1, 57, 62
3, 43263, Note_on_c, 1, 43, 0
3, 43265, Note_on_c, 1, 31, 0
3, 43319, Note_on_c, 1, 57, 0
3, 43320, Note_on_c, 1, 60, 64
3, 43336, Control_c, 1, 64, 0
3, 43352, Control_c, 1, 64, 127
3, 43379, Note_on_c, 1, 60, 0
3, 43380, Note_on_c, 1, 57, 57
3, 43440, Note_on_c, 1, 60, 76
3, 43441, Note_on_c, 1, 57, 0
3, 43445, Control_c, 1, 64, 0
3, 43459, Control_c, 1, 64, 127
3, 43498, Note_on_c, 1, 60, 0
3, 43500, Note_on_c, 1, 57, 62
3, 43556, Note_on_c, 1, 57, 0
3, 43560, Note_on_c, 1, 60, 59
3, 43614, Note_on_c, 1, 66, 0
3, 43615, Note_on_c, 1, 62, 0
3, 43620, Note_on_c, 1, 60, 0
3, 43620, Note_on_c, 1, 57, 64
3, 43636, Note_on_c, 1, 57, 0
3, 43680, Note_on_c, 1, 31, 52
3, 43680, Note_on_c, 1, 59, 68
3, 43680, Note_on_c, 1, 67, 62
3, 43680, Note_on_c, 1, 62, 72
3, 43680, Note_on_c, 1, 43, 44
3, 43684, Control_c, 1, 64, 0
3, 43707, Control_c, 1, 64, 127
3, 43740, Note_on_c, 1, 55, 68
3, 43742, Note_on_c, 1, 43, 0
3, 43742, Note_on_c, 1, 59, 0
3, 43745, Note_on_c, 1, 31, 0
3, 43799, Note_on_c, 1, 55, 0
3, 43800, Note_on_c, 1, 59, 64
3, 43845, Control_c, 1, 64, 0
3, 43857, Note_on_c, 1, 59, 0
3, 43860, Note_on_c, 1, 55, 57
3, 43872, Control_c, 1, 64, 127
3, 43920, Note_on_c, 1, 55, 0
3, 43920, Note_on_c, 1, 59, 68
3, 43927, Control_c, 1, 64, 0
3, 43944, Control_c, 1, 64, 127
3, 44035, Note_on_c, 1, 59, 0
3, 44041, Note_on_c, 1, 62, 0
3, 44041, Note_on_c, 1, 67, 0
3, 44046, Control_c, 1, 64, 0
3, 44280, Note_on_c, 1, 62, 76
3, 44309, Control_c, 1, 64, 127
3, 44519, Note_on_c, 1, 62, 0
3, 44520, Note_on_c, 1, 60, 72
3, 44520, Note_on_c, 1, 50, 62
3, 44532, Control_c, 1, 64, 0
3, 44555, Control_c, 1, 64, 127
3, 44631, Note_on_c, 1, 50, 0
3, 44640, Note_on_c, 1, 59, 62
3, 44640, Note_on_c, 1, 55, 53
3, 44641, Note_on_c, 1, 60, 0
3, 44651, Control_c, 1, 64, 0
3, 44674, Control_c, 1, 64, 127
3, 44770, Note_on_c, 1, 59, 0
3, 44772, Note_on_c, 1, 55, 0
3, 44779, Control_c, 1, 64, 0
3, 45120, Note_on_c, 1, 31, 72
3, 45128, Control_c, 1, 64, 127
3, 45179, Note_on_c, 1, 31, 0
3, 45180, Note_on_c, 1, 43, 57
3, 45240, Note_on_c, 1, 35, 76
3, 45244, Note_on_c, 1, 43, 0
3, 45251, Control_c, 1, 64, 0
3, 45271, Control_c, 1, 64, 127
3, 45298, Note_on_c, 1, 35, 0
3, 45300, Note_on_c, 1, 43, 50
3, 45360, Note_on_c, 1, 38, 76
3, 45363, Note_on_c, 1, 43, 0
3, 45370, Control_c, 1, 64, 0
3, 45391, Control_c, 1, 64, 127
3, 45418, Note_on_c, 1, 38, 0
3, 45420, Note_on_c, 1, 43, 62
3, 45480, Control_c, 1, 64, 0
3, 45480, Note_on_c, 1, 35, 76
3, 45483, Note_on_c, 1, 43, 0
3, 45502, Control_c, 1, 64, 127
3, 45540, Note_on_c, 1, 43, 59
3, 45542, Note_on_c, 1, 35, 0
3, 45597, Note_on_c, 1, 43, 0
3, 45600, Note_on_c, 1, 31, 60
3, 45600, Note_on_c, 1, 67, 76
3, 45606, Control_c, 1, 64, 0
3, 45626, Control_c, 1, 64, 127
3, 45660, Note_on_c, 1, 43, 60
3, 45663, Note_on_c, 1, 31, 0
3, 45719, Note_on_c, 1, 67, 0
3, 45720, Note_on_c, 1, 43, 0
3, 45720, Note_on_c, 1, 35, 62
3, 45720, Note_on_c, 1, 69, 76
3, 45724, Control_c, 1, 64, 0
3, 45741, Control_c, 1, 64, 127
3, 45750, Note_on_c, 1, 67, 76
3, 45753, Note_on_c, 1, 69, 0
3, 45777, Note_on_c, 1, 67, 0
3, 45780, Note_on_c, 1, 35, 0
3, 45780, Note_on_c, 1, 43, 62
3, 45780, Note_on_c, 1, 66, 72
3, 45781, Control_c, 1, 64, 0
3, 45795, Control_c, 1, 64, 127
3, 45810, Note_on_c, 1, 64, 76
3, 45811, Note_on_c, 1, 66, 0
3, 45832, Note_on_c, 1, 64, 0
3, 45837, Note_on_c, 1, 43, 0
3, 45840, Note_on_c, 1, 38, 68
3, 45840, Note_on_c, 1, 62, 76
3, 45841, Control_c, 1, 64, 0
3, 45859, Control_c, 1, 64, 127
3, 45895, Note_on_c, 1, 62, 0
3, 45898, Note_on_c, 1, 38, 0
3, 45900, Control_c, 1, 64, 0
3, 45900, Note_on_c, 1, 43, 60
3, 45918, Control_c, 1, 64, 127
3, 45960, Note_on_c, 1, 35, 60
3, 45960, Note_on_c, 1, 62, 80
3, 45964, Note_on_c, 1, 43, 0
3, 45969, Control_c, 1, 64, 0
3, 45994, Control_c, 1, 64, 127
3, 46014, Note_on_c, 1, 62, 0
3, 46019, Note_on_c, 1, 35, 0
3, 46020, Note_on_c, 1, 43, 62
3, 46052, Note_on_c, 1, 43, 0
3, 46079, Control_c, 1, 64, 0
3, 46080, Note_on_c, 1, 31, 60
3, 46080, Note_on_c, 1, 62, 76
3, 46103, Control_c, 1, 64, 127
3, 46135, Note_on_c, 1, 31, 0
3, 46140, Note_on_c, 1, 43, 51
3, 46154, Control_c, 1, 64, 0
3, 46172, Control_c, 1, 64, 127
3, 46200, Note_on_c, 1, 35, 72
3, 46208, Note_on_c, 1, 43, 0
3, 46217, Control_c, 1, 64, 0
3, 46233, Control_c, 1, 64, 127
3, 46258, Note_on_c, 1, 35, 0
3, 46260, Note_on_c, 1, 59, 80
3, 46260, Note_on_c, 1, 43, 52
3, 46263, Note_on_c, 1, 62, 0
3, 46266, Control_c, 1, 64, 0
3, 46280, Control_c, 1, 64, 127
3, 46316, Note_on_c, 1, 59, 0
3, 46319, Note_on_c, 1, 43, 0
3, 46320, Note_on_c, 1, 62, 76
3, 46320, Note_on_c, 1, 38, 64
3, 46326, Control_c, 1, 64, 0
3, 46345, Control_c, 1, 64, 127
3, 46379, Note_on_c, 1, 38, 0
3, 46380, Note_on_c, 1, 43, 57
3, 46425, Note_on_c, 1, 62, 0
3, 46439, Note_on_c, 1, 43, 0
3, 46440, Note_on_c, 1, 35, 72
3, 46444, Control_c, 1, 64, 0
3, 46464, Control_c, 1, 64, 127
3, 46500, Note_on_c, 1, 43, 57
3, 46501, Note_on_c, 1, 35, 0
3, 46557, Note_on_c, 1, 43, 0
3, 46560, Note_on_c, 1, 31, 57
3, 46560, Control_c, 1, 64, 0
3, 46560, Note_on_c, 1, 67, 80
3, 46582, Control_c, 1, 64, 127
3, 46620, Note_on_c, 1, 31, 0
3, 46620, Note_on_c, 1, 43, 62
3, 46679, Note_on_c, 1, 43, 0
3, 46680, Note_on_c, 1, 67, 0
3, 46680, Note_on_c, 1, 69, 72
3, 46680, Note_on_c, 1, 36, 72
3, 46682, Control_c, 1, 64, 0
3, 46701, Control_c, 1, 64, 127
3, 46710, Note_on_c, 1, 67, 59
3, 46715, Note_on_c, 1, 69, 0
3, 46735, Note_on_c, 1, 67, 0
3, 46738, Note_on_c, 1, 36, 0
3, 46738, Control_c, 1, 64, 0
3, 46740, Note_on_c, 1, 65, 85
3, 46740, Note_on_c, 1, 43, 62
3, 46754, Control_c, 1, 64, 127
3, 46768, Note_on_c, 1, 65, 0
3, 46770, Note_on_c, 1, 64, 80
3, 46786, Note_on_c, 1, 64, 0
3, 46792, Note_on_c, 1, 43, 0
3, 46798, Control_c, 1, 64, 0
3, 46800, Note_on_c, 1, 40, 64
3, 46800, Note_on_c, 1, 64, 76
3, 46818, Control_c, 1, 64, 127
3, 46859, Note_on_c, 1, 40, 0
3, 46860, Note_on_c, 1, 64, 0
3, 46860, Note_on_c, 1, 43, 60
3, 46879, Control_c, 1, 64, 0
3, 46920, Note_on_c, 1, 36, 62
3, 46920, Note_on_c, 1, 64, 68
3, 46921, Note_on_c, 1, 43, 0
3, 46927, Control_c, 1, 64, 127
3, 46956, Note_on_c, 1, 64, 0
3, 46975, Note_on_c, 1, 36, 0
3, 46980, Note_on_c, 1, 43, 62
3, 47001, Note_on_c, 1, 43, 0
3, 47027, Control_c, 1, 64, 0
3, 47040, Note_on_c, 1, 31, 62
3, 47040, Note_on_c, 1, 64, 76
3, 47046, Control_c, 1, 64, 127
3, 47097, Note_on_c, 1, 31, 0
3, 47100, Note_on_c, 1, 43, 59
3, 47109, Control_c, 1, 64, 0
3, 47129, Control_c, 1, 64, 127
3, 47155, Note_on_c, 1, 43, 0
3, 47159, Control_c, 1, 64, 0
3, 47160, Note_on_c, 1, 36, 62
3, 47175, Control_c, 1, 64, 127
3, 47209, Control_c, 1, 64, 0
3, 47212, Note_on_c, 1, 64, 0
3, 47217, Note_on_c, 1, 36, 0
3, 47220, Note_on_c, 1, 43, 62
3, 47220, Note_on_c, 1, 60, 68
3, 47227, Control_c, 1, 64, 127
3, 47279, Control_c, 1, 64, 0
3, 47280, Note_on_c, 1, 64, 76
3, 47280, Note_on_c, 1, 40, 60
3, 47282, Note_on_c, 1, 60, 0
3, 47283, Note_on_c, 1, 43, 0
3, 47303, Control_c, 1, 64, 127
3, 47339, Note_on_c, 1, 40, 0
3, 47340, Note_on_c, 1, 43, 59
3, 47342, Control_c, 1, 64, 0
3, 47358, Control_c, 1, 64, 127
3, 47400, Note_on_c, 1, 43, 0
3, 47400, Note_on_c, 1, 36, 62
3, 47401, Note_on_c, 1, 64, 0
3, 47404, Control_c, 1, 64, 0
3, 47440, Control_c, 1, 64, 127
3, 47458, Note_on_c, 1, 36, 0
3, 47460, Note_on_c, 1, 43, 64
3, 47474, Note_on_c, 1, 43, 0
3, 47514, Control_c, 1, 64, 0
3, 47520, Note_on_c, 1, 31, 76
3, 47520, Note_on_c, 1, 72, 89
3, 47542, Control_c, 1, 64, 127
3, 47577, Note_on_c, 1, 31, 0
3, 47580, Note_on_c, 1, 42, 62
3, 47630, Control_c, 1, 64, 0
3, 47635, Note_on_c, 1, 72, 0
3, 47637, Note_on_c, 1, 42, 0
3, 47640, Note_on_c, 1, 33, 72
3, 47640, Note_on_c, 1, 74, 72
3, 47656, Control_c, 1, 64, 127
3, 47670, Note_on_c, 1, 72, 72
3, 47671, Note_on_c, 1, 74, 0
3, 47695, Control_c, 1, 64, 0
3, 47698, Note_on_c, 1, 72, 0
3, 47698, Note_on_c, 1, 33, 0
3, 47700, Note_on_c, 1, 71, 76
3, 47700, Note_on_c, 1, 42, 57
3, 47712, Control_c, 1, 64, 127
3, 47729, Note_on_c, 1, 71, 0
3, 47730, Note_on_c, 1, 69, 72
3, 47745, Note_on_c, 1, 42, 0
3, 47746, Note_on_c, 1, 69, 0
3, 47748, Control_c, 1, 64, 0
3, 47760, Note_on_c, 1, 69, 85
3, 47760, Note_on_c, 1, 36, 68
3, 47771, Control_c, 1, 64, 127
3, 47808, Control_c, 1, 64, 0
3, 47820, Note_on_c, 1, 42, 55
3, 47821, Note_on_c, 1, 36, 0
3, 47821, Note_on_c, 1, 69, 0
3, 47826, Control_c, 1, 64, 127
3, 47872, Control_c, 1, 64, 0
3, 47878, Note_on_c, 1, 42, 0
3, 47880, Note_on_c, 1, 33, 62
3, 47880, Note_on_c, 1, 69, 80
3, 47895, Control_c, 1, 64, 127
3, 47934, Note_on_c, 1, 33, 0
3, 47940, Note_on_c, 1, 42, 55
3, 47953, Note_on_c, 1, 69, 0
3, 47963, Note_on_c, 1, 42, 0
3, 47986, Control_c, 1, 64, 0
3, 48000, Note_on_c, 1, 31, 64
3, 48000, Note_on_c, 1, 74, 89
3, 48011, Control_c, 1, 64, 127
3, 48060, Note_on_c, 1, 35, 64
3, 48062, Note_on_c, 1, 31, 0
3, 48062, Control_c, 1, 64, 0
3, 48078, Control_c, 1, 64, 127
3, 48114, Control_c, 1, 64, 0
3, 48120, Note_on_c, 1, 38, 72
3, 48124, Note_on_c, 1, 35, 0
3, 48134, Control_c, 1, 64, 127
3, 48169, Control_c, 1, 64, 0
3, 48179, Note_on_c, 1, 38, 0
3, 48180, Note_on_c, 1, 43, 60
3, 48186, Control_c, 1, 64, 127
3, 48231, Control_c, 1, 64, 0
3, 48237, Note_on_c, 1, 43, 0
3, 48240, Note_on_c, 1, 31, 72
3, 48247, Control_c, 1, 64, 127
3, 48300, Note_on_c, 1, 72, 85
3, 48307, Note_on_c, 1, 74, 0
3, 48324, Note_on_c, 1, 31, 0
3, 48330, Note_on_c, 1, 71, 76
3, 48334, Note_on_c, 1, 72, 0
3, 48353, Control_c, 1, 64, 0
3, 48357, Note_on_c, 1, 71, 0
3, 48360, Note_on_c, 1, 69, 80
3, 48388, Note_on_c, 1, 69, 0
3, 48390, Note_on_c, 1, 67, 80
3, 48420, Note_on_c, 1, 66, 76
3, 48423, Note_on_c, 1, 67, 0
3, 48450, Note_on_c, 1, 66, 0
3, 48450, Note_on_c, 1, 64, 62
3, 48480, Note_on_c, 1, 62, 80
3, 48484, Note_on_c, 1, 64, 0
3, 48536, Note_on_c, 1, 62, 0
3, 48600, Note_on_c, 1, 67, 80
3, 48655, Note_on_c, 1, 67, 0
3, 48720, Note_on_c, 1, 69, 93
3, 48720, Note_on_c, 1, 54, 60
3, 48720, Note_on_c, 1, 60, 60
3, 48720, Note_on_c, 1, 50, 64
3, 48795, Note_on_c, 1, 70, 62
3, 48809, Note_on_c, 1, 70, 0
3, 48810, Note_on_c, 1, 69, 89
3, 48824, Note_on_c, 1, 69, 0
3, 48825, Note_on_c, 1, 67, 68
3, 48836, Note_on_c, 1, 67, 0
3, 48840, Note_on_c, 1, 69, 0
3, 48840, Note_on_c, 1, 69, 75
3, 48845, Control_c, 1, 64, 127
3, 48884, Control_c, 1, 64, 0
3, 48930, Note_on_c, 1, 69, 0
3, 48930, Note_on_c, 1, 70, 62
3, 48943, Note_on_c, 1, 60, 0
3, 48949, Note_on_c, 1, 50, 0
3, 48950, Note_on_c, 1, 54, 0
3, 48959, Note_on_c, 1, 70, 0
3, 48960, Note_on_c, 1, 67, 80
3, 48960, Note_on_c, 1, 58, 60
3, 48960, Note_on_c, 1, 55, 72
3, 49078, Note_on_c, 1, 55, 0
3, 49078, Note_on_c, 1, 58, 0
3, 49080, Note_on_c, 1, 67, 0
3, 49950, Note_on_c, 1, 52, 89
3, 49980, Note_on_c, 1, 55, 89
3, 49983, Note_on_c, 1, 52, 0
3, 50009, Note_on_c, 1, 55, 0
3, 50010, Note_on_c, 1, 57, 89
3, 50028, Note_on_c, 1, 57, 0
3, 50040, Note_on_c, 1, 61, 80
3, 50040, Note_on_c, 1, 45, 89
3, 50055, Control_c, 1, 64, 127
3, 50070, Note_on_c, 1, 61, 0
3, 50070, Note_on_c, 1, 55, 80
3, 50085, Control_c, 1, 64, 0
3, 50093, Note_on_c, 1, 45, 0
3, 50094, Note_on_c, 1, 55, 0
3, 50100, Note_on_c, 1, 62, 89
3, 50100, Note_on_c, 1, 46, 80
3, 50107, Control_c, 1, 64, 127
3, 50130, Note_on_c, 1, 55, 76
3, 50133, Note_on_c, 1, 62, 0
3, 50152, Control_c, 1, 64, 0
3, 50153, Note_on_c, 1, 55, 0
3, 50156, Note_on_c, 1, 46, 0
3, 50160, Note_on_c, 1, 45, 89
3, 50160, Note_on_c, 1, 61, 85
3, 50175, Control_c, 1, 64, 127
3, 50187, Note_on_c, 1, 61, 0
3, 50190, Note_on_c, 1, 52, 64
3, 50200, Control_c, 1, 64, 0
3, 50209, Note_on_c, 1, 45, 0
3, 50218, Note_on_c, 1, 52, 0
3, 50220, Note_on_c, 1, 55, 89
3, 50229, Control_c, 1, 64, 127
3, 50247, Note_on_c, 1, 55, 0
3, 50250, Note_on_c, 1, 57, 89
3, 50264, Note_on_c, 1, 57, 0
3, 50267, Control_c, 1, 64, 0
3, 50280, Note_on_c, 1, 61, 85
3, 50280, Note_on_c, 1, 45, 89
3, 50289, Control_c, 1, 64, 127
3, 50309, Note_on_c, 1, 61, 0
3, 50310, Note_on_c, 1, 55, 80
3, 50328, Note_on_c, 1, 55, 0
3, 50329, Control_c, 1, 64, 0
3, 50330, Note_on_c, 1, 45, 0
3, 50340, Note_on_c, 1, 46, 68
3, 50340, Note_on_c, 1, 62, 93
3, 50347, Control_c, 1, 64, 127
3, 50369, Note_on_c, 1, 62, 0
3, 50370, Note_on_c, 1, 55, 76
3, 50388, Control_c, 1, 64, 0
3, 50391, Note_on_c, 1, 55, 0
3, 50398, Note_on_c, 1, 46, 0
3, 50400, Note_on_c, 1, 61, 89
3, 50400, Note_on_c, 1, 45, 93
3, 50409, Control_c, 1, 64, 127
3, 50430, Note_on_c, 1, 55, 76
3, 50431, Note_on_c, 1, 61, 0
3, 50446, Control_c, 1, 64, 0
3, 50452, Note_on_c, 1, 55, 0
3, 50455, Note_on_c, 1, 45, 0
3, 50460, Note_on_c, 1, 43, 68
3, 50460, Note_on_c, 1, 59, 89
3, 50467, Control_c, 1, 64, 127
3, 50488, Note_on_c, 1, 59, 0
3, 50490, Note_on_c, 1, 55, 72
3, 50506, Control_c, 1, 64, 0
3, 50509, Note_on_c, 1, 55, 0
3, 50519, Note_on_c, 1, 43, 0
3, 50520, Note_on_c, 1, 61, 93
3, 50520, Note_on_c, 1, 45, 85
3, 50528, Control_c, 1, 64, 127
3, 50550, Note_on_c, 1, 61, 0
3, 50550, Note_on_c, 1, 55, 72
3, 50569, Note_on_c, 1, 55, 0
3, 50570, Control_c, 1, 64, 0
3, 50576, Note_on_c, 1, 45, 0
3, 50580, Note_on_c, 1, 62, 93
3, 50580, Note_on_c, 1, 47, 85
3, 50592, Control_c, 1, 64, 127
3, 50610, Note_on_c, 1, 62, 0
3, 50610, Note_on_c, 1, 55, 76
3, 50632, Note_on_c, 1, 55, 0
3, 50632, Control_c, 1, 64, 0
3, 50636, Note_on_c, 1, 47, 0
3, 50640, Note_on_c, 1, 64, 93
3, 50640, Note_on_c, 1, 49, 76
3, 50651, Control_c, 1, 64, 127
3, 50670, Note_on_c, 1, 64, 0
3, 50670, Note_on_c, 1, 55, 72
3, 50690, Note_on_c, 1, 55, 0
3, 50694, Note_on_c, 1, 49, 0
3, 50694, Control_c, 1, 64, 0
3, 50700, Note_on_c, 1, 62, 93
3, 50700, Note_on_c, 1, 47, 68
3, 50714, Control_c, 1, 64, 127
3, 50726, Note_on_c, 1, 62, 0
3, 50730, Note_on_c, 1, 55, 62
3, 50751, Control_c, 1, 64, 0
3, 50752, Note_on_c, 1, 55, 0
3, 50759, Note_on_c, 1, 47, 0
3, 50760, Note_on_c, 1, 64, 89
3, 50760, Note_on_c, 1, 49, 76
3, 50770, Control_c, 1, 64, 127
3, 50788, Note_on_c, 1, 64, 0
3, 50790, Note_on_c, 1, 55, 76
3, 50809, Control_c, 1, 64, 0
3, 50812, Note_on_c, 1, 55, 0
3, 50814, Note_on_c, 1, 49, 0
3, 50820, Note_on_c, 1, 61, 85
3, 50820, Note_on_c, 1, 45, 85
3, 50827, Control_c, 1, 64, 127
3, 50848, Note_on_c, 1, 61, 0
3, 50850, Note_on_c, 1, 55, 64
3, 50862, Note_on_c, 1, 55, 0
3, 50863, Note_on_c, 1, 45, 0
3, 50868, Control_c, 1, 64, 0
3, 50880, Note_on_c, 1, 62, 93
3, 50880, Note_on_c, 1, 57, 89
3, 50880, Note_on_c, 1, 53, 76
3, 50880, Note_on_c, 1, 50, 76
3, 50890, Control_c, 1, 64, 127
3, 51001, Control_c, 1, 64, 0
3, 51006, Note_on_c, 1, 50, 0
3, 51007, Note_on_c, 1, 53, 0
3, 51007, Note_on_c, 1, 62, 0
3, 51008, Note_on_c, 1, 57, 0
3, 51870, Note_on_c, 1, 47, 89
3, 51882, Control_c, 1, 64, 127
3, 51896, Control_c, 1, 64, 0
3, 51900, Note_on_c, 1, 50, 93
3, 51902, Note_on_c, 1, 47, 0
3, 51917, Control_c, 1, 64, 127
3, 51930, Note_on_c, 1, 52, 93
3, 51931, Note_on_c, 1, 50, 0
3, 51942, Note_on_c, 1, 52, 0
3, 51949, Control_c, 1, 64, 0
3, 51960, Note_on_c, 1, 56, 89
3, 51960, Note_on_c, 1, 40, 80
3, 51973, Control_c, 1, 64, 127
3, 51988, Note_on_c, 1, 56, 0
3, 51990, Note_on_c, 1, 50, 85
3, 52010, Note_on_c, 1, 50, 0
3, 52010, Control_c, 1, 64, 0
3, 52016, Note_on_c, 1, 40, 0
3, 52020, Note_on_c, 1, 57, 89
3, 52020, Note_on_c, 1, 42, 72
3, 52029, Control_c, 1, 64, 127
3, 52050, Note_on_c, 1, 50, 85
3, 52051, Note_on_c, 1, 57, 0
3, 52071, Note_on_c, 1, 50, 0
3, 52073, Control_c, 1, 64, 0
3, 52074, Note_on_c, 1, 42, 0
3, 52080, Note_on_c, 1, 56, 85
3, 52080, Note_on_c, 1, 40, 72
3, 52093, Control_c, 1, 64, 127
3, 52109, Note_on_c, 1, 56, 0
3, 52110, Note_on_c, 1, 47, 60
3, 52116, Control_c, 1, 64, 0
3, 52124, Note_on_c, 1, 40, 0
3, 52140, Note_on_c, 1, 50, 93
3, 52141, Note_on_c, 1, 47, 0
3, 52143, Control_c, 1, 64, 127
3, 52165, Note_on_c, 1, 50, 0
3, 52170, Note_on_c, 1, 52, 89
3, 52183, Note_on_c, 1, 52, 0
3, 52194, Control_c, 1, 64, 0
3, 52200, Note_on_c, 1, 56, 89
3, 52200, Note_on_c, 1, 40, 85
3, 52213, Control_c, 1, 64, 127
3, 52225, Note_on_c, 1, 56, 0
3, 52230, Note_on_c, 1, 50, 80
3, 52247, Note_on_c, 1, 50, 0
3, 52249, Note_on_c, 1, 40, 0
3, 52250, Control_c, 1, 64, 0
3, 52260, Note_on_c, 1, 57, 93
3, 52260, Note_on_c, 1, 42, 76
3, 52266, Control_c, 1, 64, 127
3, 52289, Note_on_c, 1, 57, 0
3, 52290, Note_on_c, 1, 50, 80
3, 52307, Control_c, 1, 64, 0
3, 52309, Note_on_c, 1, 50, 0
3, 52314, Note_on_c, 1, 42, 0
3, 52320, Note_on_c, 1, 56, 76
3, 52320, Note_on_c, 1, 40, 93
3, 52327, Control_c, 1, 64, 127
3, 52350, Note_on_c, 1, 50, 76
3, 52353, Note_on_c, 1, 56, 0
3, 52370, Note_on_c, 1, 50, 0
3, 52370, Control_c, 1, 64, 0
3, 52377, Note_on_c, 1, 40, 0
3, 52380, Note_on_c, 1, 54, 93
3, 52380, Note_on_c, 1, 38, 93
3, 52391, Control_c, 1, 64, 127
3, 52409, Note_on_c, 1, 54, 0
3, 52410, Note_on_c, 1, 50, 76
3, 52427, Control_c, 1, 64, 0
3, 52433, Note_on_c, 1, 50, 0
3, 52437, Note_on_c, 1, 38, 0
3, 52440, Note_on_c, 1, 56, 85
3, 52440, Note_on_c, 1, 40, 89
3, 52449, Control_c, 1, 64, 127
3, 52470, Note_on_c, 1, 50, 80
3, 52471, Note_on_c, 1, 56, 0
3, 52490, Note_on_c, 1, 50, 0
3, 52490, Control_c, 1, 64, 0
3, 52498, Note_on_c, 1, 40, 0
3, 52500, Note_on_c, 1, 57, 89
3, 52500, Note_on_c, 1, 42, 76
3, 52509, Control_c, 1, 64, 127
3, 52530, Note_on_c, 1, 57, 0
3, 52530, Note_on_c, 1, 50, 76
3, 52549, Control_c, 1, 64, 0
3, 52550, Note_on_c, 1, 50, 0
3, 52560, Note_on_c, 1, 42, 0
3, 52560, Note_on_c, 1, 59, 93
3, 52560, Note_on_c, 1, 44, 80
3, 52569, Control_c, 1, 64, 127
3, 52590, Note_on_c, 1, 50, 64
3, 52592, Note_on_c, 1, 59, 0
3, 52613, Note_on_c, 1, 50, 0
3, 52613, Control_c, 1, 64, 0
3, 52615, Note_on_c, 1, 44, 0
3, 52620, Note_on_c, 1, 57, 89
3, 52620, Note_on_c, 1, 42, 85
3, 52631, Control_c, 1, 64, 127
3, 52650, Note_on_c, 1, 50, 64
3, 52651, Note_on_c, 1, 57, 0
3, 52670, Note_on_c, 1, 50, 0
3, 52674, Control_c, 1, 64, 0
3, 52679, Note_on_c, 1, 42, 0
3, 52680, Note_on_c, 1, 59, 85
3, 52680, Note_on_c, 1, 44, 72
3, 52693, Control_c, 1, 64, 127
3, 52710, Note_on_c, 1, 50, 72
3, 52715, Note_on_c, 1, 59, 0
3, 52731, Note_on_c, 1, 50, 0
3, 52731, Control_c, 1, 64, 0
3, 52733, Note_on_c, 1, 44, 0
3, 52740, Note_on_c, 1, 56, 85
3, 52740, Note_on_c, 1, 40, 93
3, 52748, Control_c, 1, 64, 127
3, 52768, Note_on_c, 1, 56, 0
3, 52770, Note_on_c, 1, 50, 64
3, 52781, Note_on_c, 1, 50, 0
3, 52781, Note_on_c, 1, 40, 0
3, 52786, Control_c, 1, 64, 0
3, 52800, Note_on_c, 1, 52, 93
3, 52800, Note_on_c, 1, 48, 89
3, 52800, Note_on_c, 1, 57, 93
3, 52800, Note_on_c, 1, 45, 89
3, 52808, Control_c, 1, 64, 127
3, 52918, Note_on_c, 1, 45, 0
3, 52918, Control_c, 1, 64, 0
3, 52920, Note_on_c, 1, 52, 0
3, 52920, Note_on_c, 1, 48, 0
3, 52920, Note_on_c, 1, 57, 0
3, 54720, Note_on_c, 1, 33, 93
3, 54750, Note_on_c, 1, 45, 76
3, 54780, Note_on_c, 1, 45, 0
3, 54780, Note_on_c, 1, 47, 80
3, 54793, Control_c, 1, 64, 127
3, 54806, Note_on_c, 1, 47, 0
3, 54810, Note_on_c, 1, 48, 76
3, 54833, Control_c, 1, 64, 0
3, 54834, Note_on_c, 1, 48, 0
3, 54840, Note_on_c, 1, 50, 89
3, 54859, Note_on_c, 1, 33, 0
3, 54862, Note_on_c, 1, 50, 0
3, 54870, Note_on_c, 1, 52, 80
3, 54890, Control_c, 1, 64, 127
3, 54898, Control_c, 1, 64, 0
3, 54900, Note_on_c, 1, 54, 76
3, 54901, Note_on_c, 1, 52, 0
3, 54915, Control_c, 1, 64, 127
3, 54929, Note_on_c, 1, 54, 0
3, 54930, Note_on_c, 1, 56, 80
3, 54952, Note_on_c, 1, 56, 0
3, 54953, Control_c, 1, 64, 0
3, 54960, Note_on_c, 1, 57, 56
3, 54988, Note_on_c, 1, 57, 0
3, 54990, Note_on_c, 1, 59, 68
3, 55020, Note_on_c, 1, 60, 85
3, 55021, Note_on_c, 1, 59, 0
3, 55047, Note_on_c, 1, 60, 0
3, 55050, Note_on_c, 1, 62, 76
3, 55052, Control_c, 1, 64, 127
3, 55074, Control_c, 1, 64, 0
3, 55080, Note_on_c, 1, 48, 80
3, 55080, Note_on_c, 1, 64, 93
3, 55083, Note_on_c, 1, 62, 0
3, 55105, Control_c, 1, 64, 127
3, 55109, Note_on_c, 1, 48, 0
3, 55125, Control_c, 1, 64, 0
3, 55138, Note_on_c, 1, 64, 0
3, 55140, Note_on_c, 1, 52, 76
3, 55143, Control_c, 1, 64, 127
3, 55195, Note_on_c, 1, 52, 0
3, 55200, Note_on_c, 1, 50, 72
3, 55200, Note_on_c, 1, 55, 68
3, 55201, Control_c, 1, 64, 0
3, 55225, Control_c, 1, 64, 127
3, 55256, Control_c, 1, 64, 0
3, 55260, Note_on_c, 1, 53, 76
3, 55262, Note_on_c, 1, 55, 0
3, 55277, Control_c, 1, 64, 127
3, 55314, Control_c, 1, 64, 0
3, 55320, Note_on_c, 1, 47, 64
3, 55322, Note_on_c, 1, 50, 0
3, 55336, Control_c, 1, 64, 127
3, 55378, Control_c, 1, 64, 0
3, 55380, Note_on_c, 1, 53, 0
3, 55380, Note_on_c, 1, 62, 80
3, 55397, Control_c, 1, 64, 127
3, 55437, Note_on_c, 1, 62, 0
3, 55440, Note_on_c, 1, 53, 68
3, 55440, Note_on_c, 1, 48, 64
3, 55440, Control_c, 1, 64, 0
3, 55444, Note_on_c, 1, 47, 0
3, 55459, Control_c, 1, 64, 127
3, 55492, Control_c, 1, 64, 0
3, 55499, Note_on_c, 1, 53, 0
3, 55500, Note_on_c, 1, 52, 72
3, 55513, Control_c, 1, 64, 127
3, 55555, Control_c, 1, 64, 0
3, 55560, Note_on_c, 1, 45, 68
3, 55562, Note_on_c, 1, 48, 0
3, 55578, Control_c, 1, 64, 127
3, 55614, Control_c, 1, 64, 0
3, 55620, Note_on_c, 1, 60, 76
3, 55622, Note_on_c, 1, 52, 0
3, 55635, Control_c, 1, 64, 127
3, 55676, Control_c, 1, 64, 0
3, 55680, Note_on_c, 1, 60, 0
3, 55680, Note_on_c, 1, 52, 76
3, 55680, Note_on_c, 1, 47, 62
3, 55681, Note_on_c, 1, 45, 0
3, 55694, Control_c, 1, 64, 127
3, 55725, Control_c, 1, 64, 0
3, 55736, Note_on_c, 1, 52, 0
3, 55740, Note_on_c, 1, 50, 72
3, 55745, Control_c, 1, 64, 127
3, 55790, Control_c, 1, 64, 0
3, 55800, Note_on_c, 1, 44, 64
3, 55803, Note_on_c, 1, 47, 0
3, 55811, Control_c, 1, 64, 127
3, 55851, Control_c, 1, 64, 0
3, 55860, Note_on_c, 1, 59, 76
3, 55869, Control_c, 1, 64, 127
3, 55870, Note_on_c, 1, 50, 0
3, 55920, Control_c, 1, 64, 0
3, 55920, Note_on_c, 1, 50, 76
3, 55920, Note_on_c, 1, 45, 72
3, 55922, Note_on_c, 1, 59, 0
3, 55924, Note_on_c, 1, 44, 0
3, 55940, Control_c, 1, 64, 127
3, 55967, Control_c, 1, 64, 0
3, 55978, Note_on_c, 1, 50, 0
3, 55980, Note_on_c, 1, 48, 76
3, 55981, Control_c, 1, 64, 127
3, 55988, Note_on_c, 1, 45, 0
3, 56001, Note_on_c, 1, 48, 0
3, 56029, Control_c, 1, 64, 0
3, 56040, Note_on_c, 1, 43, 89
3, 56040, Note_on_c, 1, 55, 89
3, 56061, Control_c, 1, 64, 127
3, 56110, Note_on_c, 1, 55, 0
3, 56113, Note_on_c, 1, 43, 0
3, 56160, Note_on_c, 1, 42, 76
3, 56160, Note_on_c, 1, 57, 93
3, 56160, Note_on_c, 1, 54, 72
3, 56162, Control_c, 1, 64, 0
3, 56191, Control_c, 1, 64, 127
3, 56220, Note_on_c, 1, 57, 0
3, 56220, Note_on_c, 1, 60, 89
3, 56235, Note_on_c, 1, 54, 0
3, 56236, Note_on_c, 1, 42, 0
3, 56248, Note_on_c, 1, 60, 0
3, 56280, Note_on_c, 1, 58, 89
3, 56280, Note_on_c, 1, 43, 80
3, 56280, Control_c, 1, 64, 0
3, 56280, Note_on_c, 1, 55, 80
3, 56301, Control_c, 1, 64, 127
3, 56329, Note_on_c, 1, 55, 0
3, 56334, Note_on_c, 1, 43, 0
3, 56339, Note_on_c, 1, 58, 0
3, 56340, Note_on_c, 1, 62, 89
3, 56353, Note_on_c, 1, 62, 0
3, 56400, Note_on_c, 1, 40, 76
3, 56400, Note_on_c, 1, 55, 102
3, 56400, Note_on_c, 1, 52, 76
3, 56400, Control_c, 1, 64, 0
3, 56430, Control_c, 1, 64, 127
3, 56455, Note_on_c, 1, 55, 0
3, 56460, Note_on_c, 1, 58, 80
3, 56464, Note_on_c, 1, 40, 0
3, 56468, Note_on_c, 1, 52, 0
3, 56475, Note_on_c, 1, 58, 0
3, 56515, Control_c, 1, 64, 0
3, 56520, Note_on_c, 1, 41, 72
3, 56520, Note_on_c, 1, 53, 68
3, 56520, Note_on_c, 1, 57, 93
3, 56538, Control_c, 1, 64, 127
3, 56571, Note_on_c, 1, 53, 0
3, 56576, Note_on_c, 1, 57, 0
3, 56580, Note_on_c, 1, 41, 0
3, 56580, Note_on_c, 1, 60, 93
3, 56589, Note_on_c, 1, 60, 0
3, 56640, Note_on_c, 1, 53, 93
3, 56640, Note_on_c, 1, 38, 89
3, 56640, Note_on_c, 1, 50, 85
3, 56640, Control_c, 1, 64, 0
3, 56661, Control_c, 1, 64, 127
3, 56700, Note_on_c, 1, 38, 0
3, 56700, Note_on_c, 1, 57, 98
3, 56701, Note_on_c, 1, 53, 0
3, 56708, Note_on_c, 1, 50, 0
3, 56712, Note_on_c, 1, 57, 0
3, 56760, Note_on_c, 1, 40, 85
3, 56760, Control_c, 1, 64, 0
3, 56760, Note_on_c, 1, 55, 102
3, 56760, Note_on_c, 1, 52, 80
3, 56778, Control_c, 1, 64, 127
3, 56818, Note_on_c, 1, 52, 0
3, 56820, Note_on_c, 1, 55, 0
3, 56820, Note_on_c, 1, 58, 80
3, 56823, Note_on_c, 1, 40, 0
3, 56830, Note_on_c, 1, 58, 0
3, 56877, Control_c, 1, 64, 0
3, 56880, Note_on_c, 1, 52, 93
3, 56880, Note_on_c, 1, 49, 93
3, 56880, Note_on_c, 1, 37, 102
3, 56902, Control_c, 1, 64, 127
3, 56938, Note_on_c, 1, 52, 0
3, 56940, Note_on_c, 1, 55, 98
3, 56948, Note_on_c, 1, 37, 0
3, 56949, Note_on_c, 1, 49, 0
3, 56958, Note_on_c, 1, 55, 0
3, 56998, Control_c, 1, 64, 0
3, 57000, Note_on_c, 1, 53, 98
3, 57000, Note_on_c, 1, 50, 80
3, 57000, Note_on_c, 1, 38, 85
3, 57018, Control_c, 1, 64, 127
3, 57118, Control_c, 1, 64, 0
3, 57120, Note_on_c, 1, 53, 0
3, 57126, Note_on_c, 1, 38, 0
3, 57126, Note_on_c, 1, 50, 0
3, 59040, Note_on_c, 1, 41, 59
3, 59053, Control_c, 1, 64, 127
3, 59100, Note_on_c, 1, 56, 64
3, 59100, Control_c, 1, 64, 0
3, 59121, Control_c, 1, 64, 127
3, 59157, Note_on_c, 1, 56, 0
3, 59159, Control_c, 1, 64, 0
3, 59160, Note_on_c, 1, 57, 59
3, 59177, Control_c, 1, 64, 127
3, 59208, Control_c, 1, 64, 0
3, 59213, Note_on_c, 1, 57, 0
3, 59217, Note_on_c, 1, 41, 0
3, 59220, Note_on_c, 1, 53, 72
3, 59239, Control_c, 1, 64, 127
3, 59266, Note_on_c, 1, 53, 0
3, 59280, Note_on_c, 1, 41, 64
3, 59280, Note_on_c, 1, 52, 68
3, 59281, Control_c, 1, 64, 0
3, 59307, Control_c, 1, 64, 127
3, 59400, Note_on_c, 1, 50, 72
3, 59401, Note_on_c, 1, 52, 0
3, 59404, Note_on_c, 1, 41, 0
3, 59404, Control_c, 1, 64, 0
3, 59459, Control_c, 1, 64, 127
3, 59496, Note_on_c, 1, 50, 0
3, 59513, Control_c, 1, 64, 0
3, 59520, Note_on_c, 1, 41, 60
3, 59580, Note_on_c, 1, 57, 72
3, 59581, Control_c, 1, 64, 127
3, 59610, Note_on_c, 1, 57, 0
3, 59610, Note_on_c, 1, 56, 60
3, 59639, Control_c, 1, 64, 0
3, 59640, Note_on_c, 1, 59, 68
3, 59641, Note_on_c, 1, 56, 0
3, 59644, Note_on_c, 1, 41, 0
3, 59668, Note_on_c, 1, 59, 0
3, 59670, Note_on_c, 1, 57, 64
3, 59700, Note_on_c, 1, 57, 0
3, 59700, Note_on_c, 1, 55, 64
3, 59715, Control_c, 1, 64, 127
3, 59728, Note_on_c, 1, 55, 0
3, 59730, Note_on_c, 1, 53, 68
3, 59750, Note_on_c, 1, 53, 0
3, 59758, Control_c, 1, 64, 0
3, 59760, Note_on_c, 1, 41, 64
3, 59760, Note_on_c, 1, 52, 85
3, 59807, Control_c, 1, 64, 127
3, 59877, Note_on_c, 1, 52, 0
3, 59879, Control_c, 1, 64, 0
3, 59880, Note_on_c, 1, 41, 0
3, 59880, Note_on_c, 1, 50, 80
3, 59936, Control_c, 1, 64, 127
3, 59986, Note_on_c, 1, 50, 0
3, 59997, Control_c, 1, 64, 0
3, 60000, Note_on_c, 1, 30, 80
3, 60000, Note_on_c, 1, 42, 64
3, 60033, Control_c, 1, 64, 127
3, 60060, Note_on_c, 1, 57, 85
3, 60061, Control_c, 1, 64, 0
3, 60087, Control_c, 1, 64, 127
3, 60116, Control_c, 1, 64, 0
3, 60120, Note_on_c, 1, 57, 0
3, 60120, Note_on_c, 1, 60, 80
3, 60135, Control_c, 1, 64, 127
3, 60168, Control_c, 1, 64, 0
3, 60180, Note_on_c, 1, 60, 0
3, 60180, Note_on_c, 1, 57, 93
3, 60182, Control_c, 1, 64, 127
3, 60204, Note_on_c, 1, 42, 0
3, 60204, Note_on_c, 1, 30, 0
3, 60210, Note_on_c, 1, 57, 0
3, 60237, Control_c, 1, 64, 0
3, 60240, Note_on_c, 1, 31, 89
3, 60240, Note_on_c, 1, 43, 80
3, 60259, Control_c, 1, 64, 127
3, 60291, Control_c, 1, 64, 0
3, 60300, Note_on_c, 1, 55, 89
3, 60308, Control_c, 1, 64, 127
3, 60352, Note_on_c, 1, 55, 0
3, 60359, Control_c, 1, 64, 0
3, 60360, Note_on_c, 1, 60, 98
3, 60379, Control_c, 1, 64, 127
3, 60416, Note_on_c, 1, 60, 0
3, 60420, Note_on_c, 1, 31, 0
3, 60420, Note_on_c, 1, 55, 89
3, 60428, Note_on_c, 1, 43, 0
3, 60437, Note_on_c, 1, 55, 0
3, 60473, Control_c, 1, 64, 0
3, 60480, Note_on_c, 1, 32, 85
3, 60480, Note_on_c, 1, 44, 76
3, 60480, Note_on_c, 1, 54, 98
3, 60495, Control_c, 1, 64, 127
3, 60600, Note_on_c, 1, 48, 98
3, 60602, Control_c, 1, 64, 0
3, 60608, Note_on_c, 1, 54, 0
3, 60620, Control_c, 1, 64, 127
3, 60714, Control_c, 1, 64, 0
3, 60718, Note_on_c, 1, 48, 0
3, 60720, Note_on_c, 1, 60, 93
3, 60735, Control_c, 1, 64, 127
3, 60921, Note_on_c, 1, 32, 0
3, 60924, Note_on_c, 1, 44, 0
3, 60957, Note_on_c, 1, 60, 0
3, 60960, Note_on_c, 1, 62, 60
3, 60960, Note_on_c, 1, 31, 53
3, 60960, Note_on_c, 1, 43, 45
3, 60964, Control_c, 1, 64, 0
3, 60978, Control_c, 1, 64, 127
3, 61001, Note_on_c, 1, 62, 0
3, 61009, Note_on_c, 1, 43, 0
3, 61011, Note_on_c, 1, 31, 0
3, 61016, Control_c, 1, 64, 0
3, 61020, Note_on_c, 1, 59, 59
3, 61020, Note_on_c, 1, 62, 57
3, 61030, Control_c, 1, 64, 127
3, 61064, Note_on_c, 1, 62, 0
3, 61066, Control_c, 1, 64, 0
3, 61067, Note_on_c, 1, 59, 0
3, 61078, Control_c, 1, 64, 127
3, 61080, Note_on_c, 1, 62, 56
3, 61080, Note_on_c, 1, 59, 57
3, 61124, Note_on_c, 1, 62, 0
3, 61126, Note_on_c, 1, 59, 0
3, 61140, Note_on_c, 1, 59, 59
3, 61140, Note_on_c, 1, 62, 64
3, 61142, Control_c, 1, 64, 0
3, 61151, Control_c, 1, 64, 127
3, 61192, Note_on_c, 1, 59, 0
3, 61193, Note_on_c, 1, 62, 0
3, 61200, Note_on_c, 1, 55, 59
3, 61203, Control_c, 1, 64, 0
3, 61220, Control_c, 1, 64, 127
3, 61256, Control_c, 1, 64, 0
3, 61260, Note_on_c, 1, 59, 49
3, 61260, Note_on_c, 1, 62, 57
3, 61260, Note_on_c, 1, 67, 51
3, 61267, Control_c, 1, 64, 127
3, 61296, Note_on_c, 1, 67, 0
3, 61296, Note_on_c, 1, 62, 0
3, 61297, Note_on_c, 1, 59, 0
3, 61312, Note_on_c, 1, 55, 0
3, 61317, Control_c, 1, 64, 0
3, 61320, Note_on_c, 1, 59, 52
3, 61320, Note_on_c, 1, 62, 60
3, 61320, Note_on_c, 1, 67, 51
3, 61330, Control_c, 1, 64, 127
3, 61364, Note_on_c, 1, 67, 0
3, 61367, Note_on_c, 1, 62, 0
3, 61367, Note_on_c, 1, 59, 0
3, 61377, Control_c, 1, 64, 0
3, 61380, Note_on_c, 1, 59, 55
3, 61380, Note_on_c, 1, 62, 62
3, 61380, Note_on_c, 1, 67, 56
3, 61389, Control_c, 1, 64, 127
3, 61433, Note_on_c, 1, 67, 0
3, 61433, Note_on_c, 1, 62, 0
3, 61434, Note_on_c, 1, 59, 0
3, 61436, Control_c, 1, 64, 0
3, 61440, Note_on_c, 1, 43, 64
3, 61452, Control_c, 1, 64, 127
3, 61493, Control_c, 1, 64, 0
3, 61500, Note_on_c, 1, 60, 50
3, 61500, Note_on_c, 1, 63, 57
3, 61500, Note_on_c, 1, 69, 57
3, 61506, Control_c, 1, 64, 127
3, 61521, Note_on_c, 1, 43, 0
3, 61537, Note_on_c, 1, 69, 0
3, 61538, Note_on_c, 1, 63, 0
3, 61538, Note_on_c, 1, 60, 0
3, 61551, Control_c, 1, 64, 0
3, 61560, Note_on_c, 1, 60, 50
3, 61560, Note_on_c, 1, 63, 60
3, 61560, Note_on_c, 1, 69, 60
3, 61565, Control_c, 1, 64, 127
3, 61596, Note_on_c, 1, 69, 0
3, 61602, Note_on_c, 1, 60, 0
3, 61603, Note_on_c, 1, 63, 0
3, 61615, Control_c, 1, 64, 0
3, 61620, Note_on_c, 1, 63, 59
3, 61620, Note_on_c, 1, 60, 57
3, 61620, Note_on_c, 1, 69, 60
3, 61629, Control_c, 1, 64, 127
3, 61660, Note_on_c, 1, 69, 0
3, 61666, Note_on_c, 1, 63, 0
3, 61669, Note_on_c, 1, 60, 0
3, 61679, Control_c, 1, 64, 0
3, 61680, Note_on_c, 1, 55, 64
3, 61695, Control_c, 1, 64, 127
3, 61735, Control_c, 1, 64, 0
3, 61740, Note_on_c, 1, 66, 57
3, 61740, Note_on_c, 1, 57, 57
3, 61740, Note_on_c, 1, 60, 64
3, 61748, Control_c, 1, 64, 127
3, 61750, Note_on_c, 1, 55, 0
3, 61780, Note_on_c, 1, 60, 0
3, 61780, Note_on_c, 1, 57, 0
3, 61781, Note_on_c, 1, 66, 0
3, 61785, Control_c, 1, 64, 0
3, 61798, Control_c, 1, 64, 127
3, 61800, Note_on_c, 1, 60, 59
3, 61800, Note_on_c, 1, 57, 56
3, 61800, Note_on_c, 1, 66, 56
3, 61838, Note_on_c, 1, 57, 0
3, 61839, Note_on_c, 1, 66, 0
3, 61842, Note_on_c, 1, 60, 0
3, 61860, Note_on_c, 1, 60, 51
3, 61860, Note_on_c, 1, 66, 56
3, 61860, Note_on_c, 1, 57, 53
3, 61906, Note_on_c, 1, 66, 0
3, 61908, Note_on_c, 1, 57, 0
3, 61910, Note_on_c, 1, 60, 0
3, 61916, Control_c, 1, 64, 0
3, 61920, Note_on_c, 1, 43, 76
3, 61933, Control_c, 1, 64, 127
3, 61978, Control_c, 1, 64, 0
3, 61980, Note_on_c, 1, 59, 62
3, 61980, Note_on_c, 1, 62, 64
3, 61980, Note_on_c, 1, 67, 60
3, 61991, Control_c, 1, 64, 127
3, 62017, Note_on_c, 1, 59, 0
3, 62018, Note_on_c, 1, 67, 0
3, 62018, Note_on_c, 1, 62, 0
3, 62030, Note_on_c, 1, 43, 0
3, 62035, Control_c, 1, 64, 0
3, 62040, Note_on_c, 1, 59, 60
3, 62040, Note_on_c, 1, 62, 72
3, 62040, Note_on_c, 1, 67, 60
3, 62048, Control_c, 1, 64, 127
3, 62082, Note_on_c, 1, 67, 0
3, 62083, Note_on_c, 1, 62, 0
3, 62083, Note_on_c, 1, 59, 0
3, 62100, Note_on_c, 1, 59, 64
3, 62100, Note_on_c, 1, 62, 72
3, 62100, Control_c, 1, 64, 0
3, 62100, Note_on_c, 1, 67, 64
3, 62110, Control_c, 1, 64, 127
3, 62158, Note_on_c, 1, 59, 0
3, 62158, Control_c, 1, 64, 0
3, 62160, Note_on_c, 1, 67, 0
3, 62160, Note_on_c, 1, 62, 0
3, 62160, Note_on_c, 1, 55, 76
3, 62172, Control_c, 1, 64, 127
3, 62210, Control_c, 1, 64, 0
3, 62220, Note_on_c, 1, 59, 64
3, 62220, Note_on_c, 1, 62, 76
3, 62220, Note_on_c, 1, 67, 64
3, 62223, Control_c, 1, 64, 127
3, 62229, Note_on_c, 1, 55, 0
3, 62258, Note_on_c, 1, 59, 0
3, 62259, Note_on_c, 1, 62, 0
3, 62260, Note_on_c, 1, 67, 0
3, 62268, Control_c, 1, 64, 0
3, 62280, Note_on_c, 1, 59, 62
3, 62280, Note_on_c, 1, 67, 64
3, 62280, Note_on_c, 1, 62, 72
3, 62281, Control_c, 1, 64, 127
3, 62325, Note_on_c, 1, 59, 0
3, 62326, Note_on_c, 1, 62, 0
3, 62326, Note_on_c, 1, 67, 0
3, 62340, Note_on_c, 1, 67, 59
3, 62340, Note_on_c, 1, 62, 62
3, 62340, Note_on_c, 1, 59, 55
3, 62340, Control_c, 1, 64, 0
3, 62353, Control_c, 1, 64, 127
3, 62384, Note_on_c, 1, 67, 0
3, 62385, Note_on_c, 1, 59, 0
3, 62390, Note_on_c, 1, 62, 0
3, 62395, Control_c, 1, 64, 0
3, 62400, Note_on_c, 1, 43, 76
3, 62415, Control_c, 1, 64, 127
3, 62460, Note_on_c, 1, 60, 62
3, 62460, Note_on_c, 1, 63, 60
3, 62460, Note_on_c, 1, 67, 64
3, 62461, Note_on_c, 1, 43, 0
3, 62486, Note_on_c, 1, 67, 0
3, 62488, Note_on_c, 1, 63, 0
3, 62489, Note_on_c, 1, 60, 0
3, 62520, Note_on_c, 1, 60, 64
3, 62520, Note_on_c, 1, 63, 62
3, 62520, Note_on_c, 1, 67, 68
3, 62530, Control_c, 1, 64, 0
3, 62547, Control_c, 1, 64, 127
3, 62554, Note_on_c, 1, 67, 0
3, 62560, Note_on_c, 1, 63, 0
3, 62561, Note_on_c, 1, 60, 0
3, 62580, Note_on_c, 1, 63, 51
3, 62580, Note_on_c, 1, 60, 62
3, 62580, Note_on_c, 1, 67, 64
3, 62610, Note_on_c, 1, 63, 0
3, 62612, Note_on_c, 1, 67, 0
3, 62620, Note_on_c, 1, 60, 0
3, 62640, Note_on_c, 1, 55, 89
3, 62642, Control_c, 1, 64, 0
3, 62659, Control_c, 1, 64, 127
3, 62660, Note_on_c, 1, 55, 0
3, 62700, Note_on_c, 1, 57, 64
3, 62700, Note_on_c, 1, 60, 64
3, 62700, Note_on_c, 1, 66, 62
3, 62722, Note_on_c, 1, 66, 0
3, 62724, Note_on_c, 1, 57, 0
3, 62726, Note_on_c, 1, 60, 0
3, 62760, Note_on_c, 1, 57, 64
3, 62760, Note_on_c, 1, 60, 68
3, 62760, Note_on_c, 1, 66, 59
3, 62780, Note_on_c, 1, 66, 0
3, 62781, Note_on_c, 1, 60, 0
3, 62783, Note_on_c, 1, 57, 0
3, 62820, Note_on_c, 1, 57, 57
3, 62820, Note_on_c, 1, 66, 56
3, 62820, Note_on_c, 1, 60, 52
3, 62847, Note_on_c, 1, 60, 0
3, 62850, Note_on_c, 1, 57, 0
3, 62852, Note_on_c, 1, 66, 0
3, 62880, Note_on_c, 1, 62, 76
3, 62880, Note_on_c, 1, 67, 72
3, 62880, Note_on_c, 1, 59, 76
3, 62880, Note_on_c, 1, 43, 72
3, 62886, Control_c, 1, 64, 0
3, 62908, Control_c, 1, 64, 127
3, 63005, Note_on_c, 1, 43, 0
3, 63005, Note_on_c, 1, 67, 0
3, 63006, Note_on_c, 1, 59, 0
3, 63006, Note_on_c, 1, 62, 0
3, 63010, Control_c, 1, 64, 0
3, 63360, Note_on_c, 1, 55, 64
3, 63367, Control_c, 1, 64, 127
3, 63390, Note_on_c, 1, 59, 68
3, 63393, Note_on_c, 1, 55, 0
3, 63400, Control_c, 1, 64, 0
3, 63420, Note_on_c, 1, 59, 0
3, 63420, Note_on_c, 1, 57, 76
3, 63437, Control_c, 1, 64, 127
3, 63449, Note_on_c, 1, 57, 0
3, 63450, Note_on_c, 1, 60, 76
3, 63454, Control_c, 1, 64, 0
3, 63480, Note_on_c, 1, 59, 72
3, 63481, Note_on_c, 1, 60, 0
3, 63496, Control_c, 1, 64, 127
3, 63509, Note_on_c, 1, 59, 0
3, 63510, Note_on_c, 1, 62, 76
3, 63512, Control_c, 1, 64, 0
3, 63539, Note_on_c, 1, 62, 0
3, 63540, Note_on_c, 1, 60, 68
3, 63555, Control_c, 1, 64, 127
3, 63562, Control_c, 1, 64, 0
3, 63569, Note_on_c, 1, 60, 0
3, 63570, Note_on_c, 1, 64, 76
3, 63600, Note_on_c, 1, 62, 76
3, 63601, Note_on_c, 1, 64, 0
3, 63620, Control_c, 1, 64, 127
3, 63710, Note_on_c, 1, 62, 0
3, 63718, Control_c, 1, 64, 0
3, 63840, Note_on_c, 1, 59, 89
3, 63849, Control_c, 1, 64, 127
3, 63868, Note_on_c, 1, 59, 0
3, 63870, Note_on_c, 1, 62, 76
3, 63882, Control_c, 1, 64, 0
3, 63900, Note_on_c, 1, 60, 85
3, 63901, Note_on_c, 1, 62, 0
3, 63915, Control_c, 1, 64, 127
3, 63927, Control_c, 1, 64, 0
3, 63929, Note_on_c, 1, 60, 0
3, 63930, Note_on_c, 1, 64, 89
3, 63946, Control_c, 1, 64, 127
3, 63960, Note_on_c, 1, 64, 0
3, 63960, Note_on_c, 1, 62, 93
3, 63965, Control_c, 1, 64, 0
3, 63984, Control_c, 1, 64, 127
3, 63990, Note_on_c, 1, 65, 93
3, 63991, Note_on_c, 1, 62, 0
3, 64001, Control_c, 1, 64, 0
3, 64018, Note_on_c, 1, 65, 0
3, 64020, Note_on_c, 1, 64, 85
3, 64032, Control_c, 1, 64, 127
3, 64049, Note_on_c, 1, 64, 0
3, 64049, Control_c, 1, 64, 0
3, 64050, Note_on_c, 1, 67, 93
3, 64080, Note_on_c, 1, 65, 98
3, 64083, Note_on_c, 1, 67, 0
3, 64125, Control_c, 1, 64, 127
3, 64169, Note_on_c, 1, 65, 0
3, 64184, Control_c, 1, 64, 0
3, 64320, Note_on_c, 1, 55, 93
3, 64320, Note_on_c, 1, 65, 102
3, 64320, Note_on_c, 1, 62, 98
3, 64320, Note_on_c, 1, 59, 102
3, 64320, Note_on_c, 1, 31, 89
3, 64320, Note_on_c, 1, 43, 85
3, 64349, Control_c, 1, 64, 127
3, 64753, Note_on_c, 1, 59, 0
3, 64754, Note_on_c, 1, 65, 0
3, 64755, Note_on_c, 1, 62, 0
3, 64756, Note_on_c, 1, 55, 0
3, 64757, Note_on_c, 1, 31, 0
3, 64761, Note_on_c, 1, 43, 0
3, 64796, Control_c, 1, 64, 0
3, 64800, Note_on_c, 1, 59, 93
3, 64800, Note_on_c, 1, 62, 93
3, 64800, Note_on_c, 1, 65, 98
3, 64800, Note_on_c, 1, 55, 98
3, 64800, Note_on_c, 1, 31, 93
3, 64800, Note_on_c, 1, 43, 93
3, 64823, Control_c, 1, 64, 127
3, 64925, Note_on_c, 1, 55, 0
3, 64926, Note_on_c, 1, 62, 0
3, 64926, Note_on_c, 1, 59, 0
3, 64926, Note_on_c, 1, 43, 0
3, 64927, Note_on_c, 1, 65, 0
3, 64928, Note_on_c, 1, 31, 0
3, 64928, Control_c, 1, 64, 0
3, 65040, Note_on_c, 1, 62, 89
3, 65040, Note_on_c, 1, 65, 93
3, 65040, Note_on_c, 1, 55, 93
3, 65040, Note_on_c, 1, 59, 102
3, 65040, Note_on_c, 1, 31, 93
3, 65040, Note_on_c, 1, 43, 76
3, 65065, Control_c, 1, 64, 127
3, 65159, Note_on_c, 1, 59, 0
3, 65161, Note_on_c, 1, 62, 0
3, 65161, Note_on_c, 1, 55, 0
3, 65161, Note_on_c, 1, 43, 0
3, 65163, Note_on_c, 1, 65, 0
3, 65163, Note_on_c, 1, 31, 0
3, 65169, Control_c, 1, 64, 0
3, 65280, Note_on_c, 1, 31, 89
3, 65280, Note_on_c, 1, 59, 93
3, 65280, Note_on_c, 1, 65, 98
3, 65280, Note_on_c, 1, 55, 93
3, 65280, Note_on_c, 1, 62, 89
3, 65280, Note_on_c, 1, 43, 85
3, 65289, Control_c, 1, 64, 127
3, 65410, Note_on_c, 1, 43, 0
3, 65410, Note_on_c, 1, 62, 0
3, 65412, Note_on_c, 1, 59, 0
3, 65412, Note_on_c, 1, 55, 0
3, 65414, Note_on_c, 1, 65, 0
3, 65414, Note_on_c, 1, 31, 0
3, 65415, Control_c, 1, 64, 0
3, 65760, Note_on_c, 1, 48, 98
3, 65760, Note_on_c, 1, 36, 93
3, 65771, Control_c, 1, 64, 127
3, 65969, Note_on_c, 1, 36, 0
3, 65970, Note_on_c, 1, 31, 98
3, 65970, Note_on_c, 1, 43, 89
3, 65971, Note_on_c, 1, 48, 0
3, 65994, Control_c, 1, 64, 0
3, 66000, Note_on_c, 1, 43, 0
3, 66000, Note_on_c, 1, 31, 0
3, 66000, Note_on_c, 1, 40, 89
3, 66000, Note_on_c, 1, 52, 98
3, 66040, Control_c, 1, 64, 127
3, 66206, Note_on_c, 1, 52, 0
3, 66207, Note_on_c, 1, 40, 0
3, 66210, Note_on_c, 1, 36, 89
3, 66210, Note_on_c, 1, 48, 98
3, 66233, Control_c, 1, 64, 0
3, 66238, Note_on_c, 1, 48, 0
3, 66240, Note_on_c, 1, 36, 0
3, 66240, Note_on_c, 1, 55, 89
3, 66240, Note_on_c, 1, 43, 89
3, 66257, Note_on_c, 1, 43, 0
3, 66257, Note_on_c, 1, 55, 0
3, 66300, Note_on_c, 1, 52, 93
3, 66300, Note_on_c, 1, 40, 93
3, 66312, Note_on_c, 1, 40, 0
3, 66313, Note_on_c, 1, 52, 0
3, 66360, Note_on_c, 1, 57, 98
3, 66360, Note_on_c, 1, 45, 98
3, 66388, Control_c, 1, 64, 127
3, 66533, Note_on_c, 1, 45, 0
3, 66535, Note_on_c, 1, 57, 0
3, 66538, Control_c, 1, 64, 0
3, 66540, Note_on_c, 1, 55, 89
3, 66540, Note_on_c, 1, 43, 89
3, 66564, Control_c, 1, 64, 127
3, 66600, Note_on_c, 1, 41, 89
3, 66600, Note_on_c, 1, 53, 89
3, 66602, Control_c, 1, 64, 0
3, 66603, Note_on_c, 1, 43, 0
3, 66607, Note_on_c, 1, 55, 0
3, 66626, Control_c, 1, 64, 127
3, 66656, Control_c, 1, 64, 0
3, 66660, Note_on_c, 1, 40, 85
3, 66660, Note_on_c, 1, 52, 89
3, 66663, Note_on_c, 1, 41, 0
3, 66664, Note_on_c, 1, 53, 0
3, 66689, Control_c, 1, 64, 127
3, 66717, Control_c, 1, 64, 0
3, 66720, Note_on_c, 1, 52, 0
3, 66720, Note_on_c, 1, 41, 85
3, 66720, Note_on_c, 1, 53, 89
3, 66722, Note_on_c, 1, 40, 0
3, 66764, Control_c, 1, 64, 127
3, 66779, Control_c, 1, 64, 0
3, 66780, Note_on_c, 1, 53, 0
3, 66780, Note_on_c, 1, 50, 98
3, 66780, Note_on_c, 1, 38, 93
3, 66784, Note_on_c, 1, 41, 0
3, 66839, Note_on_c, 1, 38, 0
3, 66839, Note_on_c, 1, 50, 0
3, 66840, Note_on_c, 1, 55, 89
3, 66840, Note_on_c, 1, 43, 89
3, 66885, Control_c, 1, 64, 127
3, 67013, Note_on_c, 1, 43, 0
3, 67017, Note_on_c, 1, 55, 0
3, 67020, Note_on_c, 1, 41, 89
3, 67020, Note_on_c, 1, 53, 85
3, 67020, Control_c, 1, 64, 0
3, 67050, Control_c, 1, 64, 127
3, 67080, Note_on_c, 1, 40, 89
3, 67080, Note_on_c, 1, 52, 93
3, 67081, Control_c, 1, 64, 0
3, 67082, Note_on_c, 1, 41, 0
3, 67083, Note_on_c, 1, 53, 0
3, 67109, Control_c, 1, 64, 127
3, 67133, Control_c, 1, 64, 0
3, 67138, Note_on_c, 1, 52, 0
3, 67140, Note_on_c, 1, 40, 0
3, 67140, Note_on_c, 1, 50, 93
3, 67140, Note_on_c, 1, 38, 93
3, 67162, Control_c, 1, 64, 127
3, 67196, Control_c, 1, 64, 0
3, 67200, Note_on_c, 1, 52, 89
3, 67200, Note_on_c, 1, 40, 80
3, 67201, Note_on_c, 1, 50, 0
3, 67202, Note_on_c, 1, 38, 0
3, 67226, Control_c, 1, 64, 127
3, 67257, Note_on_c, 1, 52, 0
3, 67259, Control_c, 1, 64, 0
3, 67260, Note_on_c, 1, 48, 89
3, 67260, Note_on_c, 1, 36, 85
3, 67265, Note_on_c, 1, 40, 0
3, 67283, Control_c, 1, 64, 127
3, 67316, Control_c, 1, 64, 0
3, 67320, Note_on_c, 1, 53, 93
3, 67320, Note_on_c, 1, 41, 80
3, 67322, Note_on_c, 1, 36, 0
3, 67324, Note_on_c, 1, 48, 0
3, 67341, Control_c, 1, 64, 127
3, 67376, Control_c, 1, 64, 0
3, 67378, Note_on_c, 1, 53, 0
3, 67380, Note_on_c, 1, 41, 0
3, 67380, Note_on_c, 1, 50, 93
3, 67380, Note_on_c, 1, 38, 93
3, 67400, Control_c, 1, 64, 127
3, 67440, Note_on_c, 1, 38, 0
3, 67440, Note_on_c, 1, 47, 93
3, 67440, Note_on_c, 1, 35, 89
3, 67441, Note_on_c, 1, 50, 0
3, 67442, Control_c, 1, 64, 0
3, 67497, Note_on_c, 1, 47, 0
3, 67500, Note_on_c, 1, 31, 85
3, 67500, Note_on_c, 1, 43, 89
3, 67502, Note_on_c, 1, 35, 0
3, 67535, Control_c, 1, 64, 127
3, 67557, Note_on_c, 1, 43, 0
3, 67559, Control_c, 1, 64, 0
3, 67560, Note_on_c, 1, 33, 80
3, 67560, Note_on_c, 1, 45, 93
3, 67561, Note_on_c, 1, 31, 0
3, 67589, Control_c, 1, 64, 127
3, 67598, Control_c, 1, 64, 0
3, 67619, Note_on_c, 1, 45, 0
3, 67620, Note_on_c, 1, 33, 0
3, 67620, Note_on_c, 1, 47, 93
3, 67620, Note_on_c, 1, 35, 89
3, 67624, Control_c, 1, 64, 127
3, 67639, Note_on_c, 1, 35, 0
3, 67662, Note_on_c, 1, 47, 0
3, 67672, Control_c, 1, 64, 0
3, 67680, Note_on_c, 1, 48, 85
3, 67680, Note_on_c, 1, 36, 89
3, 67693, Control_c, 1, 64, 127
3, 67706, Note_on_c, 1, 48, 0
3, 67721, Note_on_c, 1, 36, 0
3, 67740, Note_on_c, 1, 48, 72
3, 67743, Control_c, 1, 64, 0
3, 67763, Control_c, 1, 64, 127
3, 67797, Note_on_c, 1, 48, 0
3, 67800, Note_on_c, 1, 36, 60
3, 67804, Control_c, 1, 64, 0
3, 67824, Control_c, 1, 64, 127
3, 67859, Note_on_c, 1, 36, 0
3, 67860, Note_on_c, 1, 48, 60
3, 67867, Control_c, 1, 64, 0
3, 67883, Control_c, 1, 64, 127
3, 67919, Note_on_c, 1, 48, 0
3, 67920, Note_on_c, 1, 36, 55
3, 67931, Control_c, 1, 64, 0
3, 67945, Control_c, 1, 64, 127
3, 67977, Control_c, 1, 64, 0
3, 67979, Note_on_c, 1, 36, 0
3, 67980, Note_on_c, 1, 60, 76
3, 67980, Note_on_c, 1, 52, 72
3, 67980, Note_on_c, 1, 48, 51
3, 67989, Control_c, 1, 64, 127
3, 68011, Note_on_c, 1, 60, 0
3, 68012, Note_on_c, 1, 52, 0
3, 68028, Note_on_c, 1, 48, 0
3, 68033, Control_c, 1, 64, 0
3, 68040, Note_on_c, 1, 36, 56
3, 68040, Note_on_c, 1, 53, 62
3, 68040, Note_on_c, 1, 62, 62
3, 68046, Control_c, 1, 64, 127
3, 68073, Note_on_c, 1, 53, 0
3, 68076, Note_on_c, 1, 62, 0
3, 68089, Note_on_c, 1, 36, 0
3, 68090, Control_c, 1, 64, 0
3, 68100, Note_on_c, 1, 48, 60
3, 68100, Note_on_c, 1, 55, 62
3, 68100, Note_on_c, 1, 64, 56
3, 68105, Control_c, 1, 64, 127
3, 68133, Note_on_c, 1, 55, 0
3, 68134, Note_on_c, 1, 64, 0
3, 68143, Note_on_c, 1, 48, 0
3, 68157, Control_c, 1, 64, 0
3, 68160, Note_on_c, 1, 36, 72
3, 68160, Note_on_c, 1, 65, 72
3, 68160, Note_on_c, 1, 57, 62
3, 68176, Control_c, 1, 64, 127
3, 68204, Note_on_c, 1, 57, 0
3, 68207, Note_on_c, 1, 65, 0
3, 68212, Control_c, 1, 64, 0
3, 68219, Note_on_c, 1, 36, 0
3, 68220, Note_on_c, 1, 48, 62
3, 68230, Control_c, 1, 64, 127
3, 68277, Control_c, 1, 64, 0
3, 68278, Note_on_c, 1, 48, 0
3, 68280, Note_on_c, 1, 36, 55
3, 68280, Note_on_c, 1, 69, 72
3, 68280, Note_on_c, 1, 60, 64
3, 68299, Control_c, 1, 64, 127
3, 68331, Note_on_c, 1, 69, 0
3, 68334, Note_on_c, 1, 60, 0
3, 68339, Note_on_c, 1, 36, 0
3, 68340, Note_on_c, 1, 48, 62
3, 68341, Control_c, 1, 64, 0
3, 68366, Control_c, 1, 64, 127
3, 68399, Control_c, 1, 64, 0
3, 68400, Note_on_c, 1, 48, 0
3, 68400, Note_on_c, 1, 36, 62
3, 68400, Note_on_c, 1, 59, 64
3, 68400, Note_on_c, 1, 62, 76
3, 68420, Control_c, 1, 64, 127
3, 68451, Note_on_c, 1, 62, 0
3, 68453, Note_on_c, 1, 59, 0
3, 68458, Note_on_c, 1, 36, 0
3, 68460, Note_on_c, 1, 48, 68
3, 68464, Control_c, 1, 64, 0
3, 68517, Note_on_c, 1, 48, 0
3, 68520, Note_on_c, 1, 36, 57
3, 68520, Note_on_c, 1, 62, 72
3, 68520, Note_on_c, 1, 65, 64
3, 68529, Control_c, 1, 64, 127
3, 68565, Note_on_c, 1, 65, 0
3, 68569, Note_on_c, 1, 62, 0
3, 68575, Note_on_c, 1, 36, 0
3, 68580, Note_on_c, 1, 48, 62
3, 68603, Control_c, 1, 64, 0
3, 68614, Note_on_c, 1, 48, 0
3, 68640, Note_on_c, 1, 36, 60
3, 68640, Note_on_c, 1, 64, 68
3, 68640, Note_on_c, 1, 60, 60
3, 68651, Control_c, 1, 64, 127
3, 68674, Note_on_c, 1, 60, 0
3, 68679, Note_on_c, 1, 64, 0
3, 68684, Note_on_c, 1, 36, 0
3, 68700, Note_on_c, 1, 48, 62
3, 68715, Note_on_c, 1, 65, 72
3, 68729, Note_on_c, 1, 65, 0
3, 68730, Note_on_c, 1, 64, 57
3, 68745, Note_on_c, 1, 62, 62
3, 68746, Note_on_c, 1, 48, 0
3, 68747, Control_c, 1, 64, 0
3, 68751, Note_on_c, 1, 64, 0
3, 68758, Note_on_c, 1, 62, 0
3, 68760, Note_on_c, 1, 36, 60
3, 68760, Note_on_c, 1, 64, 72
3, 68772, Control_c, 1, 64, 127
3, 68776, Note_on_c, 1, 64, 0
3, 68792, Control_c, 1, 64, 0
3, 68795, Note_on_c, 1, 36, 0
3, 68820, Note_on_c, 1, 62, 72
3, 68820, Note_on_c, 1, 65, 62
3, 68820, Note_on_c, 1, 48, 62
3, 68823, Control_c, 1, 64, 127
3, 68835, Note_on_c, 1, 62, 0
3, 68836, Note_on_c, 1, 65, 0
3, 68848, Note_on_c, 1, 48, 0
3, 68869, Control_c, 1, 64, 0
3, 68880, Note_on_c, 1, 36, 72
3, 68880, Note_on_c, 1, 64, 62
3, 68880, Note_on_c, 1, 67, 62
3, 68893, Control_c, 1, 64, 127
3, 68955, Note_on_c, 1, 64, 0
3, 68956, Note_on_c, 1, 67, 0
3, 68957, Note_on_c, 1, 36, 0
3, 68976, Control_c, 1, 64, 0
3, 69882, Control_c, 1, 64, 127
3, 69900, Note_on_c, 1, 52, 62
3, 69900, Note_on_c, 1, 60, 68
3, 69922, Note_on_c, 1, 60, 0
3, 69924, Note_on_c, 1, 52, 0
3, 69956, Control_c, 1, 64, 0
3, 69960, Note_on_c, 1, 53, 57
3, 69960, Note_on_c, 1, 62, 68
3, 69969, Control_c, 1, 64, 127
3, 69985, Note_on_c, 1, 53, 0
3, 69986, Note_on_c, 1, 62, 0
3, 70007, Control_c, 1, 64, 0
3, 70020, Note_on_c, 1, 55, 60
3, 70020, Note_on_c, 1, 64, 64
3, 70023, Control_c, 1, 64, 127
3, 70045, Note_on_c, 1, 55, 0
3, 70046, Note_on_c, 1, 64, 0
3, 70080, Note_on_c, 1, 65, 80
3, 70080, Note_on_c, 1, 57, 64
3, 70080, Note_on_c, 1, 36, 68
3, 70081, Control_c, 1, 64, 0
3, 70102, Control_c, 1, 64, 127
3, 70132, Note_on_c, 1, 36, 0
3, 70134, Note_on_c, 1, 57, 0
3, 70135, Note_on_c, 1, 65, 0
3, 70135, Control_c, 1, 64, 0
3, 70140, Note_on_c, 1, 48, 64
3, 70153, Control_c, 1, 64, 127
3, 70200, Note_on_c, 1, 69, 76
3, 70200, Note_on_c, 1, 60, 62
3, 70200, Note_on_c, 1, 36, 57
3, 70203, Note_on_c, 1, 48, 0
3, 70205, Control_c, 1, 64, 0
3, 70223, Control_c, 1, 64, 127
3, 70244, Note_on_c, 1, 69, 0
3, 70246, Note_on_c, 1, 60, 0
3, 70257, Note_on_c, 1, 36, 0
3, 70260, Note_on_c, 1, 48, 62
3, 70264, Control_c, 1, 64, 0
3, 70286, Control_c, 1, 64, 127
3, 70320, Note_on_c, 1, 59, 68
3, 70320, Note_on_c, 1, 36, 60
3, 70320, Note_on_c, 1, 62, 62
3, 70321, Note_on_c, 1, 48, 0
3, 70322, Control_c, 1, 64, 0
3, 70342, Control_c, 1, 64, 127
3, 70366, Note_on_c, 1, 62, 0
3, 70368, Note_on_c, 1, 59, 0
3, 70375, Note_on_c, 1, 36, 0
3, 70377, Control_c, 1, 64, 0
3, 70380, Note_on_c, 1, 48, 59
3, 70399, Control_c, 1, 64, 127
3, 70437, Control_c, 1, 64, 0
3, 70440, Note_on_c, 1, 62, 76
3, 70440, Note_on_c, 1, 36, 60
3, 70440, Note_on_c, 1, 65, 80
3, 70442, Note_on_c, 1, 48, 0
3, 70461, Control_c, 1, 64, 127
3, 70486, Note_on_c, 1, 65, 0
3, 70491, Note_on_c, 1, 62, 0
3, 70496, Control_c, 1, 64, 0
3, 70497, Note_on_c, 1, 36, 0
3, 70500, Note_on_c, 1, 48, 68
3, 70516, Control_c, 1, 64, 127
3, 70555, Control_c, 1, 64, 0
3, 70557, Note_on_c, 1, 48, 0
3, 70560, Note_on_c, 1, 36, 60
3, 70560, Note_on_c, 1, 64, 72
3, 70560, Note_on_c, 1, 60, 64
3, 70574, Control_c, 1, 64, 127
3, 70598, Note_on_c, 1, 60, 0
3, 70603, Note_on_c, 1, 64, 0
3, 70609, Note_on_c, 1, 36, 0
3, 70618, Control_c, 1, 64, 0
3, 70620, Note_on_c, 1, 48, 76
3, 70635, Note_on_c, 1, 65, 72
3, 70636, Control_c, 1, 64, 127
3, 70650, Note_on_c, 1, 64, 52
3, 70652, Note_on_c, 1, 65, 0
3, 70664, Note_on_c, 1, 64, 0
3, 70665, Note_on_c, 1, 62, 62
3, 70669, Note_on_c, 1, 48, 0
3, 70669, Control_c, 1, 64, 0
3, 70680, Note_on_c, 1, 62, 0
3, 70680, Note_on_c, 1, 64, 76
3, 70680, Note_on_c, 1, 36, 62
3, 70691, Control_c, 1, 64, 127
3, 70693, Note_on_c, 1, 64, 0
3, 70711, Note_on_c, 1, 36, 0
3, 70718, Control_c, 1, 64, 0
3, 70740, Note_on_c, 1, 62, 72
3, 70740, Note_on_c, 1, 65, 64
3, 70740, Note_on_c, 1, 48, 60
3, 70744, Control_c, 1, 64, 127
3, 70755, Note_on_c, 1, 62, 0
3, 70756, Note_on_c, 1, 65, 0
3, 70764, Note_on_c, 1, 48, 0
3, 70786, Control_c, 1, 64, 0
3, 70800, Note_on_c, 1, 36, 76
3, 70800, Note_on_c, 1, 67, 62
3, 70800, Note_on_c, 1, 64, 62
3, 70806, Control_c, 1, 64, 127
3, 70873, Note_on_c, 1, 64, 0
3, 70875, Note_on_c, 1, 67, 0
3, 70879, Note_on_c, 1, 36, 0
3, 70904, Control_c, 1, 64, 0
3, 71340, Note_on_c, 1, 55, 76
3, 71358, Control_c, 1, 64, 127
3, 71399, Note_on_c, 1, 55, 0
3, 71400, Note_on_c, 1, 65, 80
3, 71401, Control_c, 1, 64, 0
3, 71421, Control_c, 1, 64, 127
3, 71457, Note_on_c, 1, 65, 0
3, 71460, Note_on_c, 1, 62, 80
3, 71470, Note_on_c, 1, 62, 0
3, 71520, Control_c, 1, 64, 0
3, 71520, Note_on_c, 1, 64, 113
3, 71520, Note_on_c, 1, 48, 93
3, 71520, Note_on_c, 1, 52, 89
3, 71520, Note_on_c, 1, 55, 89
3, 71550, Note_on_c, 1, 67, 80
3, 71552, Note_on_c, 1, 64, 0
3, 71576, Note_on_c, 1, 67, 0
3, 71580, Note_on_c, 1, 65, 72
3, 71610, Note_on_c, 1, 64, 68
3, 71611, Note_on_c, 1, 65, 0
3, 71640, Note_on_c, 1, 62, 64
3, 71641, Note_on_c, 1, 64, 0
3, 71670, Note_on_c, 1, 62, 0
3, 71670, Note_on_c, 1, 60, 57
3, 71686, Control_c, 1, 64, 127
3, 71699, Note_on_c, 1, 60, 0
3, 71700, Note_on_c, 1, 59, 72
3, 71707, Control_c, 1, 64, 0
3, 71728, Note_on_c, 1, 59, 0
3, 71730, Note_on_c, 1, 60, 56
3, 71742, Control_c, 1, 64, 127
3, 71760, Note_on_c, 1, 59, 76
3, 71761, Note_on_c, 1, 60, 0
3, 71769, Control_c, 1, 64, 0
3, 71790, Note_on_c, 1, 59, 0
3, 71790, Note_on_c, 1, 60, 80
3, 71802, Control_c, 1, 64, 127
3, 71820, Note_on_c, 1, 59, 76
3, 71823, Note_on_c, 1, 60, 0
3, 71838, Control_c, 1, 64, 0
3, 71850, Note_on_c, 1, 60, 89
3, 71851, Note_on_c, 1, 59, 0
3, 71862, Control_c, 1, 64, 127
3, 71880, Note_on_c, 1, 59, 76
3, 71882, Note_on_c, 1, 60, 0
3, 71896, Control_c, 1, 64, 0
3, 71910, Note_on_c, 1, 60, 80
3, 71912, Note_on_c, 1, 59, 0
3, 71918, Control_c, 1, 64, 127
3, 71930, Control_c, 1, 64, 0
3, 71940, Note_on_c, 1, 64, 80
3, 71941, Note_on_c, 1, 60, 0
3, 71950, Note_on_c, 1, 55, 0
3, 71951, Note_on_c, 1, 52, 0
3, 71954, Control_c, 1, 64, 127
3, 71956, Note_on_c, 1, 48, 0
3, 71970, Note_on_c, 1, 60, 64
3, 71973, Note_on_c, 1, 64, 0
3, 72000, Note_on_c, 1, 55, 76
3, 72000, Note_on_c, 1, 43, 72
3, 72001, Note_on_c, 1, 60, 0
3, 72001, Control_c, 1, 64, 0
3, 72025, Control_c, 1, 64, 127
3, 72117, Note_on_c, 1, 43, 0
3, 72117, Control_c, 1, 64, 0
3, 72121, Note_on_c, 1, 55, 0
3, 72300, Note_on_c, 1, 55, 85
3, 72308, Control_c, 1, 64, 127
3, 72360, Note_on_c, 1, 65, 76
3, 72363, Note_on_c, 1, 55, 0
3, 72363, Control_c, 1, 64, 0
3, 72389, Control_c, 1, 64, 127
3, 72417, Note_on_c, 1, 65, 0
3, 72420, Note_on_c, 1, 62, 76
3, 72431, Note_on_c, 1, 62, 0
3, 72480, Note_on_c, 1, 64, 76
3, 72481, Control_c, 1, 64, 0
3, 72510, Note_on_c, 1, 64, 0
3, 72510, Note_on_c, 1, 67, 72
3, 72540, Note_on_c, 1, 65, 72
3, 72543, Control_c, 1, 64, 127
3, 72544, Note_on_c, 1, 67, 0
3, 72570, Note_on_c, 1, 65, 0
3, 72570, Note_on_c, 1, 64, 53
3, 72598, Note_on_c, 1, 64, 0
3, 72600, Control_c, 1, 64, 0
3, 72600, Note_on_c, 1, 62, 76
3, 72600, Note_on_c, 1, 48, 76
3, 72624, Control_c, 1, 64, 127
3, 72629, Note_on_c, 1, 62, 0
3, 72630, Note_on_c, 1, 60, 64
3, 72657, Note_on_c, 1, 60, 0
3, 72660, Note_on_c, 1, 59, 68
3, 72665, Control_c, 1, 64, 0
3, 72667, Note_on_c, 1, 48, 0
3, 72688, Note_on_c, 1, 59, 0
3, 72690, Note_on_c, 1, 60, 62
3, 72718, Note_on_c, 1, 60, 0
3, 72720, Note_on_c, 1, 59, 85
3, 72732, Control_c, 1, 64, 127
3, 72830, Note_on_c, 1, 59, 0
3, 72833, Control_c, 1, 64, 0
3, 72840, Note_on_c, 1, 43, 68
3, 72861, Control_c, 1, 64, 127
3, 72936, Note_on_c, 1, 43, 0
3, 72952, Control_c, 1, 64, 0
3, 72960, Note_on_c, 1, 64, 76
3, 72990, Note_on_c, 1, 64, 0
3, 72990, Note_on_c, 1, 67, 72
3, 73018, Note_on_c, 1, 67, 0
3, 73020, Note_on_c, 1, 65, 60
3, 73031, Control_c, 1, 64, 127
3, 73046, Note_on_c, 1, 65, 0
3, 73050, Note_on_c, 1, 64, 60
3, 73079, Note_on_c, 1, 64, 0
3, 73080, Note_on_c, 1, 62, 80
3, 73080, Note_on_c, 1, 48, 60
3, 73082, Control_c, 1, 64, 0
3, 73110, Note_on_c, 1, 62, 0
3, 73110, Note_on_c, 1, 60, 62
3, 73117, Control_c, 1, 64, 127
3, 73138, Note_on_c, 1, 60, 0
3, 73140, Note_on_c, 1, 59, 72
3, 73169, Control_c, 1, 64, 0
3, 73170, Note_on_c, 1, 59, 0
3, 73170, Note_on_c, 1, 60, 62
3, 73193, Note_on_c, 1, 48, 0
3, 73200, Note_on_c, 1, 60, 0
3, 73200, Note_on_c, 1, 59, 80
3, 73320, Note_on_c, 1, 43, 80
3, 73321, Note_on_c, 1, 59, 0
3, 73356, Control_c, 1, 64, 127
3, 73414, Note_on_c, 1, 43, 0
3, 73436, Control_c, 1, 64, 0
3, 73440, Note_on_c, 1, 60, 85
3, 73440, Note_on_c, 1, 45, 89
3, 73475, Control_c, 1, 64, 127
3, 73560, Note_on_c, 1, 57, 93
3, 73564, Note_on_c, 1, 60, 0
3, 73568, Control_c, 1, 64, 0
3, 73604, Control_c, 1, 64, 127
3, 73678, Note_on_c, 1, 45, 0
3, 73680, Note_on_c, 1, 41, 85
3, 73683, Control_c, 1, 64, 0
3, 73716, Control_c, 1, 64, 127
3, 73800, Note_on_c, 1, 69, 85
3, 73802, Control_c, 1, 64, 0
3, 73828, Control_c, 1, 64, 127
3, 73860, Note_on_c, 1, 69, 0
3, 73860, Note_on_c, 1, 57, 0
3, 73860, Note_on_c, 1, 65, 76
3, 73890, Note_on_c, 1, 65, 0
3, 73920, Note_on_c, 1, 41, 0
3, 73920, Note_on_c, 1, 64, 89
3, 73920, Note_on_c, 1, 43, 76
3, 73925, Control_c, 1, 64, 0
3, 73958, Control_c, 1, 64, 127
3, 74040, Note_on_c, 1, 60, 89
3, 74044, Control_c, 1, 64, 0
3, 74045, Note_on_c, 1, 64, 0
3, 74066, Control_c, 1, 64, 127
3, 74151, Note_on_c, 1, 60, 0
3, 74158, Note_on_c, 1, 43, 0
3, 74160, Note_on_c, 1, 31, 76
3, 74160, Note_on_c, 1, 55, 85
3, 74162, Control_c, 1, 64, 0
3, 74200, Control_c, 1, 64, 127
3, 74280, Note_on_c, 1, 53, 93
3, 74287, Control_c, 1, 64, 0
3, 74313, Control_c, 1, 64, 127
3, 74368, Note_on_c, 1, 53, 0
3, 74370, Note_on_c, 1, 55, 0
3, 74375, Note_on_c, 1, 31, 0
3, 74400, Note_on_c, 1, 36, 76
3, 74400, Note_on_c, 1, 52, 80
3, 74400, Note_on_c, 1, 55, 76
3, 74400, Control_c, 1, 64, 0
3, 74422, Control_c, 1, 64, 127
3, 74528, Control_c, 1, 64, 0
3, 74530, Note_on_c, 1, 36, 0
3, 74532, Note_on_c, 1, 55, 0
3, 74532, Note_on_c, 1, 52, 0
3, 74880, Note_on_c, 1, 34, 89
3, 74880, Note_on_c, 1, 46, 98
3, 74880, Note_on_c, 1, 52, 107
3, 74899, Control_c, 1, 64, 127
3, 74910, Note_on_c, 1, 55, 85
3, 74914, Note_on_c, 1, 52, 0
3, 74940, Note_on_c, 1, 62, 89
3, 74942, Note_on_c, 1, 55, 0
3, 74942, Control_c, 1, 64, 0
3, 74958, Control_c, 1, 64, 127
3, 74970, Note_on_c, 1, 55, 53
3, 74975, Note_on_c, 1, 62, 0
3, 74986, Note_on_c, 1, 46, 0
3, 74988, Note_on_c, 1, 34, 0
3, 75000, Note_on_c, 1, 55, 0
3, 75000, Note_on_c, 1, 52, 80
3, 75000, Note_on_c, 1, 45, 80
3, 75000, Note_on_c, 1, 33, 72
3, 75002, Control_c, 1, 64, 0
3, 75030, Note_on_c, 1, 55, 80
3, 75033, Control_c, 1, 64, 127
3, 75036, Note_on_c, 1, 52, 0
3, 75060, Note_on_c, 1, 61, 85
3, 75063, Note_on_c, 1, 55, 0
3, 75090, Note_on_c, 1, 55, 76
3, 75092, Note_on_c, 1, 61, 0
3, 75120, Note_on_c, 1, 52, 85
3, 75121, Note_on_c, 1, 55, 0
3, 75122, Note_on_c, 1, 45, 0
3, 75123, Note_on_c, 1, 33, 0
3, 75129, Control_c, 1, 64, 0
3, 75148, Control_c, 1, 64, 127
3, 75150, Note_on_c, 1, 55, 72
3, 75154, Note_on_c, 1, 52, 0
3, 75180, Note_on_c, 1, 55, 0
3, 75180, Note_on_c, 1, 61, 76
3, 75186, Control_c, 1, 64, 0
3, 75204, Control_c, 1, 64, 127
3, 75210, Note_on_c, 1, 61, 0
3, 75210, Note_on_c, 1, 55, 76
3, 75240, Note_on_c, 1, 52, 76
3, 75241, Note_on_c, 1, 55, 0
3, 75270, Note_on_c, 1, 55, 76
3, 75276, Control_c, 1, 64, 0
3, 75278, Note_on_c, 1, 52, 0
3, 75293, Control_c, 1, 64, 127
3, 75300, Note_on_c, 1, 61, 80
3, 75301, Note_on_c, 1, 55, 0
3, 75327, Note_on_c, 1, 61, 0
3, 75330, Note_on_c, 1, 55, 89
3, 75341, Note_on_c, 1, 55, 0
3, 75360, Note_on_c, 1, 50, 93
3, 75360, Note_on_c, 1, 32, 89
3, 75360, Note_on_c, 1, 44, 102
3, 75363, Control_c, 1, 64, 0
3, 75390, Note_on_c, 1, 53, 76
3, 75396, Note_on_c, 1, 50, 0
3, 75397, Control_c, 1, 64, 127
3, 75409, Control_c, 1, 64, 0
3, 75420, Note_on_c, 1, 60, 89
3, 75422, Note_on_c, 1, 53, 0
3, 75427, Control_c, 1, 64, 127
3, 75450, Note_on_c, 1, 53, 72
3, 75461, Note_on_c, 1, 44, 0
3, 75463, Note_on_c, 1, 60, 0
3, 75464, Note_on_c, 1, 32, 0
3, 75480, Note_on_c, 1, 50, 85
3, 75480, Note_on_c, 1, 31, 68
3, 75480, Note_on_c, 1, 43, 76
3, 75481, Note_on_c, 1, 53, 0
3, 75486, Control_c, 1, 64, 0
3, 75510, Note_on_c, 1, 53, 72
3, 75516, Note_on_c, 1, 50, 0
3, 75523, Control_c, 1, 64, 127
3, 75540, Note_on_c, 1, 59, 80
3, 75541, Note_on_c, 1, 53, 0
3, 75570, Note_on_c, 1, 59, 0
3, 75570, Note_on_c, 1, 53, 72
3, 75600, Note_on_c, 1, 53, 0
3, 75600, Note_on_c, 1, 43, 0
3, 75600, Note_on_c, 1, 50, 85
3, 75604, Note_on_c, 1, 31, 0
3, 75609, Control_c, 1, 64, 0
3, 75628, Control_c, 1, 64, 127
3, 75630, Note_on_c, 1, 53, 62
3, 75636, Note_on_c, 1, 50, 0
3, 75660, Note_on_c, 1, 59, 76
3, 75663, Note_on_c, 1, 53, 0
3, 75688, Note_on_c, 1, 59, 0
3, 75690, Note_on_c, 1, 53, 72
3, 75717, Control_c, 1, 64, 0
3, 75720, Note_on_c, 1, 53, 0
3, 75720, Note_on_c, 1, 50, 85
3, 75730, Control_c, 1, 64, 127
3, 75750, Note_on_c, 1, 53, 60
3, 75755, Note_on_c, 1, 50, 0
3, 75771, Control_c, 1, 64, 0
3, 75780, Note_on_c, 1, 59, 89
3, 75781, Note_on_c, 1, 53, 0
3, 75786, Control_c, 1, 64, 127
3, 75808, Note_on_c, 1, 59, 0
3, 75810, Note_on_c, 1, 53, 64
3, 75834, Control_c, 1, 64, 0
3, 75836, Note_on_c, 1, 53, 0
3, 75840, Note_on_c, 1, 36, 93
3, 75840, Note_on_c, 1, 52, 85
3, 75851, Control_c, 1, 64, 127
3, 75870, Note_on_c, 1, 58, 72
3, 75873, Note_on_c, 1, 52, 0
3, 75892, Control_c, 1, 64, 0
3, 75896, Note_on_c, 1, 58, 0
3, 75900, Note_on_c, 1, 60, 93
3, 75900, Note_on_c, 1, 48, 89
3, 75901, Note_on_c, 1, 36, 0
3, 75908, Control_c, 1, 64, 127
3, 75929, Note_on_c, 1, 60, 0
3, 75930, Note_on_c, 1, 58, 76
3, 75945, Note_on_c, 1, 48, 0
3, 75956, Control_c, 1, 64, 0
3, 75957, Note_on_c, 1, 58, 0
3, 75960, Note_on_c, 1, 53, 80
3, 75960, Note_on_c, 1, 48, 76
3, 75968, Control_c, 1, 64, 127
3, 75990, Note_on_c, 1, 57, 80
3, 75992, Note_on_c, 1, 53, 0
3, 76007, Note_on_c, 1, 48, 0
3, 76017, Note_on_c, 1, 57, 0
3, 76018, Control_c, 1, 64, 0
3, 76020, Note_on_c, 1, 60, 89
3, 76020, Note_on_c, 1, 48, 80
3, 76031, Control_c, 1, 64, 127
3, 76050, Note_on_c, 1, 60, 0
3, 76050, Note_on_c, 1, 57, 89
3, 76058, Note_on_c, 1, 48, 0
3, 76076, Control_c, 1, 64, 0
3, 76080, Note_on_c, 1, 54, 80
3, 76080, Note_on_c, 1, 48, 85
3, 76081, Note_on_c, 1, 57, 0
3, 76090, Control_c, 1, 64, 127
3, 76109, Note_on_c, 1, 54, 0
3, 76110, Note_on_c, 1, 57, 89
3, 76120, Note_on_c, 1, 48, 0
3, 76136, Note_on_c, 1, 57, 0
3, 76136, Control_c, 1, 64, 0
3, 76140, Note_on_c, 1, 62, 93
3, 76140, Note_on_c, 1, 48, 89
3, 76148, Control_c, 1, 64, 127
3, 76169, Note_on_c, 1, 62, 0
3, 76170, Note_on_c, 1, 57, 93
3, 76174, Note_on_c, 1, 48, 0
3, 76194, Control_c, 1, 64, 0
3, 76200, Note_on_c, 1, 57, 0
3, 76200, Note_on_c, 1, 54, 76
3, 76200, Note_on_c, 1, 48, 85
3, 76207, Control_c, 1, 64, 127
3, 76230, Note_on_c, 1, 60, 89
3, 76232, Note_on_c, 1, 54, 0
3, 76242, Note_on_c, 1, 48, 0
3, 76255, Control_c, 1, 64, 0
3, 76258, Note_on_c, 1, 60, 0
3, 76260, Note_on_c, 1, 62, 85
3, 76260, Note_on_c, 1, 48, 89
3, 76270, Control_c, 1, 64, 127
3, 76288, Note_on_c, 1, 62, 0
3, 76290, Note_on_c, 1, 60, 76
3, 76307, Note_on_c, 1, 48, 0
3, 76312, Control_c, 1, 64, 0
3, 76320, Note_on_c, 1, 55, 76
3, 76320, Note_on_c, 1, 36, 85
3, 76321, Note_on_c, 1, 60, 0
3, 76328, Control_c, 1, 64, 127
3, 76350, Note_on_c, 1, 58, 76
3, 76351, Note_on_c, 1, 55, 0
3, 76373, Control_c, 1, 64, 0
3, 76377, Note_on_c, 1, 58, 0
3, 76377, Note_on_c, 1, 36, 0
3, 76380, Note_on_c, 1, 62, 85
3, 76380, Note_on_c, 1, 48, 80
3, 76388, Control_c, 1, 64, 127
3, 76409, Note_on_c, 1, 62, 0
3, 76410, Note_on_c, 1, 58, 72
3, 76420, Note_on_c, 1, 48, 0
3, 76436, Control_c, 1, 64, 0
3, 76440, Note_on_c, 1, 58, 0
3, 76440, Note_on_c, 1, 53, 80
3, 76440, Note_on_c, 1, 48, 80
3, 76450, Control_c, 1, 64, 127
3, 76470, Note_on_c, 1, 53, 0
3, 76470, Note_on_c, 1, 55, 80
3, 76484, Note_on_c, 1, 48, 0
3, 76495, Control_c, 1, 64, 0
3, 76499, Note_on_c, 1, 55, 0
3, 76500, Note_on_c, 1, 58, 80
3, 76500, Note_on_c, 1, 48, 76
3, 76508, Control_c, 1, 64, 127
3, 76530, Note_on_c, 1, 55, 89
3, 76531, Note_on_c, 1, 58, 0
3, 76536, Note_on_c, 1, 48, 0
3, 76556, Control_c, 1, 64, 0
3, 76558, Note_on_c, 1, 55, 0
3, 76560, Note_on_c, 1, 52, 80
3, 76560, Note_on_c, 1, 48, 76
3, 76570, Control_c, 1, 64, 127
3, 76590, Note_on_c, 1, 55, 76
3, 76591, Note_on_c, 1, 52, 0
3, 76597, Note_on_c, 1, 48, 0
3, 76617, Note_on_c, 1, 55, 0
3, 76617, Control_c, 1, 64, 0
3, 76620, Note_on_c, 1, 60, 89
3, 76620, Note_on_c, 1, 48, 85
3, 76630, Control_c, 1, 64, 127
3, 76650, Note_on_c, 1, 55, 72
3, 76651, Note_on_c, 1, 60, 0
3, 76653, Note_on_c, 1, 48, 0
3, 76678, Control_c, 1, 64, 0
3, 76680, Note_on_c, 1, 55, 0
3, 76680, Note_on_c, 1, 53, 89
3, 76680, Note_on_c, 1, 48, 85
3, 76693, Control_c, 1, 64, 127
3, 76710, Note_on_c, 1, 58, 72
3, 76712, Note_on_c, 1, 53, 0
3, 76716, Note_on_c, 1, 48, 0
3, 76735, Note_on_c, 1, 58, 0
3, 76735, Control_c, 1, 64, 0
3, 76740, Note_on_c, 1, 60, 76
3, 76740, Note_on_c, 1, 48, 80
3, 76749, Control_c, 1, 64, 127
3, 76767, Note_on_c, 1, 60, 0
3, 76770, Note_on_c, 1, 58, 60
3, 76779, Note_on_c, 1, 48, 0
3, 76788, Note_on_c, 1, 58, 0
3, 76789, Control_c, 1, 64, 0
3, 76800, Note_on_c, 1, 41, 76
3, 76800, Note_on_c, 1, 53, 64
3, 76800, Note_on_c, 1, 57, 76
3, 76805, Control_c, 1, 64, 127
3, 76835, Note_on_c, 1, 53, 0
3, 76838, Note_on_c, 1, 57, 0
3, 76852, Note_on_c, 1, 41, 0
3, 76860, Note_on_c, 1, 53, 76
3, 76916, Note_on_c, 1, 53, 0
3, 76920, Note_on_c, 1, 65, 56
3, 76921, Control_c, 1, 64, 0
3, 76936, Control_c, 1, 64, 127
3, 76967, Note_on_c, 1, 65, 0
3, 76980, Note_on_c, 1, 65, 64
3, 77032, Note_on_c, 1, 65, 0
3, 77040, Note_on_c, 1, 65, 57
3, 77083, Note_on_c, 1, 65, 0
3, 77100, Note_on_c, 1, 65, 55
3, 77148, Note_on_c, 1, 65, 0
3, 77160, Note_on_c, 1, 65, 80
3, 77207, Note_on_c, 1, 65, 0
3, 77220, Note_on_c, 1, 65, 80
3, 77268, Note_on_c, 1, 65, 0
3, 77280, Note_on_c, 1, 64, 62
3, 77290, Control_c, 1, 64, 0
3, 77310, Control_c, 1, 64, 127
3, 77326, Note_on_c, 1, 64, 0
3, 77340, Note_on_c, 1, 64, 53
3, 77381, Note_on_c, 1, 64, 0
3, 77400, Note_on_c, 1, 64, 56
3, 77446, Note_on_c, 1, 64, 0
3, 77460, Note_on_c, 1, 64, 52
3, 77506, Note_on_c, 1, 64, 0
3, 77520, Note_on_c, 1, 64, 76
3, 77568, Note_on_c, 1, 64, 0
3, 77580, Note_on_c, 1, 64, 76
3, 77626, Note_on_c, 1, 64, 0
3, 77640, Note_on_c, 1, 64, 62
3, 77685, Note_on_c, 1, 64, 0
3, 77700, Note_on_c, 1, 64, 51
3, 77726, Note_on_c, 1, 64, 0
3, 77760, Note_on_c, 1, 62, 68
3, 77770, Control_c, 1, 64, 0
3, 77789, Control_c, 1, 64, 127
3, 77804, Note_on_c, 1, 62, 0
3, 77820, Note_on_c, 1, 62, 47
3, 77867, Note_on_c, 1, 62, 0
3, 77880, Note_on_c, 1, 62, 62
3, 77920, Note_on_c, 1, 62, 0
3, 77940, Note_on_c, 1, 62, 60
3, 77961, Note_on_c, 1, 62, 0
3, 78000, Note_on_c, 1, 62, 64
3, 78000, Note_on_c, 1, 43, 56
3, 78007, Control_c, 1, 64, 0
3, 78027, Control_c, 1, 64, 127
3, 78040, Note_on_c, 1, 62, 0
3, 78060, Note_on_c, 1, 62, 76
3, 78107, Note_on_c, 1, 62, 0
3, 78120, Note_on_c, 1, 62, 72
3, 78160, Note_on_c, 1, 62, 0
3, 78180, Note_on_c, 1, 62, 76
3, 78203, Note_on_c, 1, 62, 0
3, 78237, Control_c, 1, 64, 0
3, 78238, Note_on_c, 1, 43, 0
3, 78240, Note_on_c, 1, 48, 76
3, 78240, Note_on_c, 1, 60, 89
3, 78255, Control_c, 1, 64, 127
3, 78256, Note_on_c, 1, 60, 0
3, 78262, Control_c, 1, 64, 0
3, 78299, Note_on_c, 1, 48, 0
3, 78300, Note_on_c, 1, 36, 80
3, 78300, Note_on_c, 1, 64, 89
3, 78312, Note_on_c, 1, 64, 0
3, 78349, Note_on_c, 1, 36, 0
3, 78360, Note_on_c, 1, 48, 89
3, 78360, Note_on_c, 1, 69, 98
3, 78367, Control_c, 1, 64, 127
3, 78420, Note_on_c, 1, 51, 85
3, 78424, Control_c, 1, 64, 0
3, 78446, Control_c, 1, 64, 127
3, 78471, Control_c, 1, 64, 0
3, 78476, Note_on_c, 1, 51, 0
3, 78480, Note_on_c, 1, 52, 93
3, 78499, Control_c, 1, 64, 127
3, 78528, Note_on_c, 1, 52, 0
3, 78530, Note_on_c, 1, 48, 0
3, 78532, Note_on_c, 1, 69, 0
3, 78535, Control_c, 1, 64, 0
3, 78540, Note_on_c, 1, 67, 93
3, 78540, Note_on_c, 1, 48, 62
3, 78540, Note_on_c, 1, 52, 62
3, 78553, Control_c, 1, 64, 127
3, 78568, Note_on_c, 1, 67, 0
3, 78581, Note_on_c, 1, 52, 0
3, 78581, Note_on_c, 1, 48, 0
3, 78583, Control_c, 1, 64, 0
3, 78600, Note_on_c, 1, 57, 60
3, 78600, Note_on_c, 1, 65, 72
3, 78600, Note_on_c, 1, 48, 76
3, 78605, Control_c, 1, 64, 127
3, 78624, Note_on_c, 1, 65, 0
3, 78630, Note_on_c, 1, 48, 0
3, 78631, Note_on_c, 1, 57, 0
3, 78645, Control_c, 1, 64, 0
3, 78660, Note_on_c, 1, 64, 80
3, 78660, Note_on_c, 1, 48, 72
3, 78660, Note_on_c, 1, 57, 60
3, 78669, Control_c, 1, 64, 127
3, 78687, Note_on_c, 1, 64, 0
3, 78691, Note_on_c, 1, 48, 0
3, 78694, Note_on_c, 1, 57, 0
3, 78718, Control_c, 1, 64, 0
3, 78720, Note_on_c, 1, 61, 72
3, 78720, Note_on_c, 1, 47, 80
3, 78720, Note_on_c, 1, 57, 62
3, 78737, Control_c, 1, 64, 127
3, 78759, Note_on_c, 1, 47, 0
3, 78761, Note_on_c, 1, 61, 0
3, 78762, Note_on_c, 1, 57, 0
3, 78780, Note_on_c, 1, 47, 76
3, 78780, Note_on_c, 1, 62, 93
3, 78780, Note_on_c, 1, 57, 62
3, 78781, Control_c, 1, 64, 0
3, 78797, Control_c, 1, 64, 127
3, 78818, Note_on_c, 1, 62, 0
3, 78819, Note_on_c, 1, 47, 0
3, 78821, Note_on_c, 1, 57, 0
3, 78840, Note_on_c, 1, 47, 62
3, 78840, Note_on_c, 1, 62, 89
3, 78840, Note_on_c, 1, 59, 72
3, 78847, Control_c, 1, 64, 0
3, 78866, Control_c, 1, 64, 127
3, 78885, Note_on_c, 1, 59, 0
3, 78892, Note_on_c, 1, 47, 0
3, 78900, Note_on_c, 1, 47, 80
3, 78900, Note_on_c, 1, 54, 72
3, 78902, Control_c, 1, 64, 0
3, 78915, Control_c, 1, 64, 127
3, 78935, Note_on_c, 1, 47, 0
3, 78938, Note_on_c, 1, 54, 0
3, 78955, Control_c, 1, 64, 0
3, 78960, Note_on_c, 1, 47, 72
3, 78960, Note_on_c, 1, 57, 64
3, 78971, Control_c, 1, 64, 127
3, 78994, Note_on_c, 1, 47, 0
3, 78997, Note_on_c, 1, 57, 0
3, 79003, Note_on_c, 1, 62, 0
3, 79017, Control_c, 1, 64, 0
3, 79020, Note_on_c, 1, 64, 76
3, 79020, Note_on_c, 1, 47, 89
3, 79020, Note_on_c, 1, 55, 76
3, 79032, Note_on_c, 1, 64, 0
3, 79034, Control_c, 1, 64, 127
3, 79035, Note_on_c, 1, 62, 68
3, 79050, Note_on_c, 1, 61, 76
3, 79053, Note_on_c, 1, 62, 0
3, 79064, Note_on_c, 1, 61, 0
3, 79065, Note_on_c, 1, 62, 59
3, 79066, Note_on_c, 1, 55, 0
3, 79068, Note_on_c, 1, 47, 0
3, 79077, Control_c, 1, 64, 0
3, 79079, Note_on_c, 1, 62, 0
3, 79080, Note_on_c, 1, 64, 85
3, 79080, Note_on_c, 1, 55, 72
3, 79080, Note_on_c, 1, 47, 76
3, 79093, Control_c, 1, 64, 127
3, 79117, Note_on_c, 1, 47, 0
3, 79121, Note_on_c, 1, 55, 0
3, 79121, Note_on_c, 1, 64, 0
3, 79140, Note_on_c, 1, 59, 89
3, 79140, Note_on_c, 1, 47, 80
3, 79140, Control_c, 1, 64, 0
3, 79140, Note_on_c, 1, 55, 62
3, 79155, Control_c, 1, 64, 127
3, 79169, Note_on_c, 1, 47, 0
3, 79175, Note_on_c, 1, 55, 0
3, 79183, Note_on_c, 1, 59, 0
3, 79196, Control_c, 1, 64, 0
3, 79200, Note_on_c, 1, 45, 56
3, 79200, Note_on_c, 1, 62, 76
3, 79200, Note_on_c, 1, 55, 62
3, 79218, Control_c, 1, 64, 127
3, 79243, Note_on_c, 1, 45, 0
3, 79249, Note_on_c, 1, 55, 0
3, 79256, Note_on_c, 1, 62, 0
3, 79260, Note_on_c, 1, 60, 68
3, 79260, Note_on_c, 1, 45, 76
3, 79260, Note_on_c, 1, 55, 60
3, 79282, Note_on_c, 1, 55, 0
3, 79282, Note_on_c, 1, 45, 0
3, 79289, Note_on_c, 1, 60, 0
3, 79313, Control_c, 1, 64, 0
3, 79320, Note_on_c, 1, 60, 80
3, 79320, Note_on_c, 1, 55, 57
3, 79320, Note_on_c, 1, 45, 68
3, 79335, Note_on_c, 1, 60, 0
3, 79338, Control_c, 1, 64, 127
3, 79350, Note_on_c, 1, 55, 0
3, 79353, Note_on_c, 1, 45, 0
3, 79371, Control_c, 1, 64, 0
3, 79380, Note_on_c, 1, 45, 76
3, 79380, Note_on_c, 1, 55, 62
3, 79380, Note_on_c, 1, 60, 89
3, 79393, Note_on_c, 1, 60, 0
3, 79394, Control_c, 1, 64, 127
3, 79406, Note_on_c, 1, 55, 0
3, 79407, Note_on_c, 1, 45, 0
3, 79434, Control_c, 1, 64, 0
3, 79440, Note_on_c, 1, 62, 85
3, 79440, Note_on_c, 1, 54, 59
3, 79440, Note_on_c, 1, 45, 76
3, 79452, Note_on_c, 1, 62, 0
3, 79455, Note_on_c, 1, 60, 52
3, 79456, Control_c, 1, 64, 127
3, 79468, Note_on_c, 1, 60, 0
3, 79470, Note_on_c, 1, 62, 76
3, 79474, Note_on_c, 1, 45, 0
3, 79476, Note_on_c, 1, 54, 0
3, 79484, Note_on_c, 1, 62, 0
3, 79485, Note_on_c, 1, 59, 62
3, 79496, Control_c, 1, 64, 0
3, 79499, Note_on_c, 1, 59, 0
3, 79500, Note_on_c, 1, 59, 76
3, 79500, Note_on_c, 1, 54, 62
3, 79500, Note_on_c, 1, 45, 76
3, 79518, Control_c, 1, 64, 127
3, 79521, Note_on_c, 1, 59, 0
3, 79525, Note_on_c, 1, 45, 0
3, 79530, Note_on_c, 1, 60, 76
3, 79533, Note_on_c, 1, 54, 0
3, 79549, Note_on_c, 1, 60, 0
3, 79555, Control_c, 1, 64, 0
3, 79560, Note_on_c, 1, 54, 62
3, 79560, Note_on_c, 1, 62, 76
3, 79560, Note_on_c, 1, 45, 80
3, 79578, Control_c, 1, 64, 127
3, 79586, Note_on_c, 1, 45, 0
3, 79595, Note_on_c, 1, 54, 0
3, 79597, Note_on_c, 1, 62, 0
3, 79617, Control_c, 1, 64, 0
3, 79620, Note_on_c, 1, 60, 76
3, 79620, Note_on_c, 1, 54, 56
3, 79620, Note_on_c, 1, 45, 76
3, 79632, Control_c, 1, 64, 127
3, 79640, Note_on_c, 1, 45, 0
3, 79640, Note_on_c, 1, 54, 0
3, 79640, Note_on_c, 1, 60, 0
3, 79654, Control_c, 1, 64, 0
3, 79680, Note_on_c, 1, 43, 72
3, 79680, Note_on_c, 1, 59, 89
3, 79680, Note_on_c, 1, 55, 62
3, 79682, Control_c, 1, 64, 127
3, 79692, Note_on_c, 1, 55, 0
3, 79699, Note_on_c, 1, 59, 0
3, 79710, Note_on_c, 1, 43, 0
3, 79740, Note_on_c, 1, 43, 80
3, 79740, Control_c, 1, 64, 0
3, 79758, Control_c, 1, 64, 127
3, 79799, Control_c, 1, 64, 0
3, 79800, Note_on_c, 1, 31, 76
3, 79802, Note_on_c, 1, 43, 0
3, 79819, Control_c, 1, 64, 127
3, 79860, Note_on_c, 1, 31, 0
3, 79860, Note_on_c, 1, 43, 76
3, 79915, Note_on_c, 1, 43, 0
3, 79918, Control_c, 1, 64, 0
3, 79920, Note_on_c, 1, 31, 85
3, 79939, Control_c, 1, 64, 127
3, 79950, Note_on_c, 1, 55, 89
3, 79969, Control_c, 1, 64, 0
3, 79975, Note_on_c, 1, 55, 0
3, 79977, Note_on_c, 1, 31, 0
3, 79980, Note_on_c, 1, 57, 93
3, 79980, Note_on_c, 1, 43, 76
3, 79987, Control_c, 1, 64, 127
3, 80008, Note_on_c, 1, 57, 0
3, 80010, Note_on_c, 1, 59, 89
3, 80024, Note_on_c, 1, 59, 0
3, 80029, Note_on_c, 1, 43, 0
3, 80030, Control_c, 1, 64, 0
3, 80040, Note_on_c, 1, 60, 89
3, 80040, Note_on_c, 1, 31, 76
3, 80049, Control_c, 1, 64, 127
3, 80063, Note_on_c, 1, 60, 0
3, 80070, Note_on_c, 1, 62, 85
3, 80091, Note_on_c, 1, 62, 0
3, 80096, Control_c, 1, 64, 0
3, 80100, Note_on_c, 1, 64, 76
3, 80100, Note_on_c, 1, 43, 72
3, 80102, Note_on_c, 1, 31, 0
3, 80111, Control_c, 1, 64, 127
3, 80130, Note_on_c, 1, 64, 0
3, 80130, Note_on_c, 1, 65, 76
3, 80157, Note_on_c, 1, 43, 0
3, 80158, Control_c, 1, 64, 0
3, 80160, Note_on_c, 1, 64, 80
3, 80160, Note_on_c, 1, 31, 72
3, 80161, Note_on_c, 1, 65, 0
3, 80178, Control_c, 1, 64, 127
3, 80189, Note_on_c, 1, 64, 0
3, 80190, Note_on_c, 1, 67, 76
3, 80211, Note_on_c, 1, 31, 0
3, 80211, Control_c, 1, 64, 0
3, 80215, Note_on_c, 1, 67, 0
3, 80220, Note_on_c, 1, 66, 76
3, 80220, Note_on_c, 1, 43, 64
3, 80227, Control_c, 1, 64, 127
3, 80248, Note_on_c, 1, 66, 0
3, 80250, Note_on_c, 1, 67, 59
3, 80272, Control_c, 1, 64, 0
3, 80274, Note_on_c, 1, 67, 0
3, 80275, Note_on_c, 1, 43, 0
3, 80280, Note_on_c, 1, 66, 72
3, 80280, Note_on_c, 1, 31, 72
3, 80287, Control_c, 1, 64, 127
3, 80310, Note_on_c, 1, 66, 0
3, 80310, Note_on_c, 1, 67, 64
3, 80335, Note_on_c, 1, 67, 0
3, 80335, Control_c, 1, 64, 0
3, 80336, Note_on_c, 1, 31, 0
3, 80340, Note_on_c, 1, 43, 68
3, 80340, Note_on_c, 1, 66, 76
3, 80350, Control_c, 1, 64, 127
3, 80370, Note_on_c, 1, 66, 0
3, 80370, Note_on_c, 1, 67, 76
3, 80387, Note_on_c, 1, 67, 0
3, 80392, Note_on_c, 1, 43, 0
3, 80397, Control_c, 1, 64, 0
3, 80400, Note_on_c, 1, 31, 93
3, 80400, Note_on_c, 1, 66, 89
3, 80416, Control_c, 1, 64, 127
3, 80429, Note_on_c, 1, 66, 0
3, 80430, Note_on_c, 1, 67, 89
3, 80453, Control_c, 1, 64, 0
3, 80454, Note_on_c, 1, 67, 0
3, 80459, Note_on_c, 1, 31, 0
3, 80460, Note_on_c, 1, 69, 89
3, 80460, Note_on_c, 1, 43, 80
3, 80469, Control_c, 1, 64, 127
3, 80490, Note_on_c, 1, 69, 0
3, 80490, Note_on_c, 1, 67, 80
3, 80510, Control_c, 1, 64, 0
3, 80513, Note_on_c, 1, 43, 0
3, 80516, Note_on_c, 1, 67, 0
3, 80520, Note_on_c, 1, 65, 76
3, 80520, Note_on_c, 1, 31, 60
3, 80526, Control_c, 1, 64, 127
3, 80549, Note_on_c, 1, 65, 0
3, 80550, Note_on_c, 1, 64, 72
3, 80570, Control_c, 1, 64, 0
3, 80574, Note_on_c, 1, 64, 0
3, 80580, Note_on_c, 1, 31, 0
3, 80580, Note_on_c, 1, 43, 64
3, 80580, Note_on_c, 1, 62, 76
3, 80586, Control_c, 1, 64, 127
3, 80610, Note_on_c, 1, 60, 76
3, 80612, Note_on_c, 1, 62, 0
3, 80630, Note_on_c, 1, 60, 0
3, 80636, Note_on_c, 1, 43, 0
3, 80636, Control_c, 1, 64, 0
3, 80640, Note_on_c, 1, 55, 76
3, 80640, Note_on_c, 1, 31, 80
3, 80658, Control_c, 1, 64, 127
3, 80696, Note_on_c, 1, 31, 0
3, 80700, Note_on_c, 1, 43, 68
3, 80760, Note_on_c, 1, 31, 72
3, 80761, Note_on_c, 1, 43, 0
3, 80763, Note_on_c, 1, 55, 0
3, 80769, Control_c, 1, 64, 0
3, 80788, Control_c, 1, 64, 127
3, 80813, Note_on_c, 1, 31, 0
3, 80820, Note_on_c, 1, 43, 62
3, 80825, Control_c, 1, 64, 0
3, 80841, Control_c, 1, 64, 127
3, 80880, Note_on_c, 1, 31, 76
3, 80881, Note_on_c, 1, 43, 0
3, 80882, Control_c, 1, 64, 0
3, 80898, Control_c, 1, 64, 127
3, 80910, Note_on_c, 1, 55, 76
3, 80930, Control_c, 1, 64, 0
3, 80937, Note_on_c, 1, 31, 0
3, 80939, Note_on_c, 1, 55, 0
3, 80940, Note_on_c, 1, 57, 93
3, 80940, Note_on_c, 1, 43, 76
3, 80946, Control_c, 1, 64, 127
3, 80969, Note_on_c, 1, 57, 0
3, 80970, Note_on_c, 1, 59, 89
3, 80987, Note_on_c, 1, 59, 0
3, 80992, Note_on_c, 1, 43, 0
3, 80995, Control_c, 1, 64, 0
3, 81000, Note_on_c, 1, 31, 72
3, 81000, Note_on_c, 1, 60, 76
3, 81011, Control_c, 1, 64, 127
3, 81028, Note_on_c, 1, 60, 0
3, 81030, Note_on_c, 1, 62, 85
3, 81055, Control_c, 1, 64, 0
3, 81058, Note_on_c, 1, 62, 0
3, 81059, Note_on_c, 1, 31, 0
3, 81060, Note_on_c, 1, 64, 93
3, 81060, Note_on_c, 1, 43, 64
3, 81070, Control_c, 1, 64, 127
3, 81088, Note_on_c, 1, 64, 0
3, 81090, Note_on_c, 1, 65, 85
3, 81113, Note_on_c, 1, 43, 0
3, 81116, Control_c, 1, 64, 0
3, 81118, Note_on_c, 1, 65, 0
3, 81120, Note_on_c, 1, 31, 76
3, 81120, Note_on_c, 1, 64, 68
3, 81133, Control_c, 1, 64, 127
3, 81148, Note_on_c, 1, 64, 0
3, 81150, Note_on_c, 1, 67, 72
3, 81169, Control_c, 1, 64, 0
3, 81177, Note_on_c, 1, 67, 0
3, 81179, Note_on_c, 1, 31, 0
3, 81180, Note_on_c, 1, 66, 76
3, 81180, Note_on_c, 1, 43, 64
3, 81186, Control_c, 1, 64, 127
3, 81209, Note_on_c, 1, 66, 0
3, 81210, Note_on_c, 1, 67, 60
3, 81233, Note_on_c, 1, 43, 0
3, 81236, Control_c, 1, 64, 0
3, 81240, Note_on_c, 1, 67, 0
3, 81240, Note_on_c, 1, 31, 85
3, 81240, Note_on_c, 1, 66, 80
3, 81253, Control_c, 1, 64, 127
3, 81266, Note_on_c, 1, 66, 0
3, 81270, Note_on_c, 1, 67, 72
3, 81295, Control_c, 1, 64, 0
3, 81298, Note_on_c, 1, 67, 0
3, 81298, Note_on_c, 1, 31, 0
3, 81300, Note_on_c, 1, 66, 80
3, 81300, Note_on_c, 1, 43, 68
3, 81312, Control_c, 1, 64, 127
3, 81330, Note_on_c, 1, 67, 85
3, 81332, Note_on_c, 1, 66, 0
3, 81355, Control_c, 1, 64, 0
3, 81357, Note_on_c, 1, 43, 0
3, 81358, Note_on_c, 1, 67, 0
3, 81360, Note_on_c, 1, 31, 76
3, 81360, Note_on_c, 1, 66, 85
3, 81371, Control_c, 1, 64, 127
3, 81388, Note_on_c, 1, 66, 0
3, 81390, Note_on_c, 1, 67, 80
3, 81411, Control_c, 1, 64, 0
3, 81417, Note_on_c, 1, 67, 0
3, 81419, Note_on_c, 1, 31, 0
3, 81420, Note_on_c, 1, 69, 89
3, 81420, Note_on_c, 1, 43, 76
3, 81428, Control_c, 1, 64, 127
3, 81446, Note_on_c, 1, 69, 0
3, 81450, Note_on_c, 1, 67, 80
3, 81469, Control_c, 1, 64, 0
3, 81475, Note_on_c, 1, 67, 0
3, 81477, Note_on_c, 1, 43, 0
3, 81480, Note_on_c, 1, 65, 93
3, 81480, Note_on_c, 1, 31, 85
3, 81485, Control_c, 1, 64, 127
3, 81510, Note_on_c, 1, 64, 85
3, 81514, Note_on_c, 1, 65, 0
3, 81530, Control_c, 1, 64, 0
3, 81539, Note_on_c, 1, 31, 0
3, 81540, Note_on_c, 1, 64, 0
3, 81540, Note_on_c, 1, 62, 89
3, 81540, Note_on_c, 1, 43, 80
3, 81546, Control_c, 1, 64, 127
3, 81569, Note_on_c, 1, 62, 0
3, 81570, Note_on_c, 1, 60, 89
3, 81595, Note_on_c, 1, 43, 0
3, 81595, Control_c, 1, 64, 0
3, 81598, Note_on_c, 1, 60, 0
3, 81600, Note_on_c, 1, 55, 93
3, 81600, Note_on_c, 1, 31, 89
3, 81621, Control_c, 1, 64, 127
3, 81722, Control_c, 1, 64, 0
3, 81724, Note_on_c, 1, 31, 0
3, 81727, Note_on_c, 1, 55, 0
3, 82080, Note_on_c, 1, 62, 102
3, 82091, Control_c, 1, 64, 127
3, 82094, Control_c, 1, 64, 0
3, 82109, Note_on_c, 1, 62, 0
3, 82110, Note_on_c, 1, 64, 85
3, 82140, Note_on_c, 1, 62, 89
3, 82142, Note_on_c, 1, 64, 0
3, 82170, Note_on_c, 1, 60, 89
3, 82173, Note_on_c, 1, 62, 0
3, 82200, Note_on_c, 1, 59, 89
3, 82201, Note_on_c, 1, 60, 0
3, 82228, Note_on_c, 1, 59, 0
3, 82230, Note_on_c, 1, 57, 98
3, 82260, Note_on_c, 1, 55, 80
3, 82263, Note_on_c, 1, 57, 0
3, 82290, Note_on_c, 1, 54, 85
3, 82292, Note_on_c, 1, 55, 0
3, 82317, Note_on_c, 1, 54, 0
3, 82320, Note_on_c, 1, 55, 93
3, 82350, Note_on_c, 1, 59, 93
3, 82352, Note_on_c, 1, 55, 0
3, 82379, Note_on_c, 1, 59, 0
3, 82380, Note_on_c, 1, 57, 98
3, 82408, Note_on_c, 1, 57, 0
3, 82410, Note_on_c, 1, 55, 93
3, 82412, Control_c, 1, 64, 127
3, 82440, Note_on_c, 1, 55, 0
3, 82440, Note_on_c, 1, 54, 80
3, 82442, Control_c, 1, 64, 0
3, 82468, Note_on_c, 1, 54, 0
3, 82470, Note_on_c, 1, 52, 93
3, 82500, Note_on_c, 1, 52, 0
3, 82500, Note_on_c, 1, 50, 93
3, 82528, Note_on_c, 1, 50, 0
3, 82530, Note_on_c, 1, 49, 93
3, 82557, Note_on_c, 1, 49, 0
3, 82560, Note_on_c, 1, 50, 89
3, 82590, Note_on_c, 1, 52, 93
3, 82591, Note_on_c, 1, 50, 0
3, 82620, Note_on_c, 1, 50, 89
3, 82623, Note_on_c, 1, 52, 0
3, 82650, Note_on_c, 1, 48, 89
3, 82652, Note_on_c, 1, 50, 0
3, 82680, Note_on_c, 1, 47, 85
3, 82684, Note_on_c, 1, 48, 0
3, 82707, Note_on_c, 1, 47, 0
3, 82710, Note_on_c, 1, 45, 93
3, 82740, Note_on_c, 1, 45, 0
3, 82740, Note_on_c, 1, 43, 85
3, 82768, Note_on_c, 1, 43, 0
3, 82770, Note_on_c, 1, 42, 76
3, 82800, Note_on_c, 1, 43, 89
3, 82804, Note_on_c, 1, 42, 0
3, 82830, Note_on_c, 1, 45, 93
3, 82832, Note_on_c, 1, 43, 0
3, 82858, Note_on_c, 1, 45, 0
3, 82860, Note_on_c, 1, 42, 80
3, 82889, Note_on_c, 1, 42, 0
3, 82890, Note_on_c, 1, 45, 93
3, 82920, Note_on_c, 1, 43, 85
3, 82923, Note_on_c, 1, 45, 0
3, 82949, Note_on_c, 1, 43, 0
3, 82950, Note_on_c, 1, 45, 89
3, 82979, Note_on_c, 1, 45, 0
3, 82980, Note_on_c, 1, 42, 62
3, 83005, Control_c, 1, 64, 127
3, 83008, Note_on_c, 1, 42, 0
3, 83010, Note_on_c, 1, 45, 89
3, 83036, Control_c, 1, 64, 0
3, 83040, Note_on_c, 1, 43, 107
3, 83040, Note_on_c, 1, 31, 98
3, 83041, Note_on_c, 1, 45, 0
3, 83083, Control_c, 1, 64, 127
3, 83096, Note_on_c, 1, 31, 0
3, 83098, Note_on_c, 1, 43, 0
3, 83099, Control_c, 1, 64, 0
3, 83100, Note_on_c, 1, 33, 89
3, 83100, Note_on_c, 1, 45, 102
3, 83129, Note_on_c, 1, 45, 0
3, 83130, Note_on_c, 1, 35, 85
3, 83130, Note_on_c, 1, 47, 89
3, 83132, Note_on_c, 1, 33, 0
3, 83158, Note_on_c, 1, 47, 0
3, 83160, Note_on_c, 1, 48, 98
3, 83160, Note_on_c, 1, 36, 80
3, 83168, Note_on_c, 1, 35, 0
3, 83188, Note_on_c, 1, 36, 0
3, 83188, Note_on_c, 1, 48, 0
3, 83190, Note_on_c, 1, 50, 102
3, 83190, Note_on_c, 1, 38, 93
3, 83219, Note_on_c, 1, 50, 0
3, 83220, Note_on_c, 1, 38, 0
3, 83220, Note_on_c, 1, 40, 76
3, 83220, Note_on_c, 1, 52, 93
3, 83246, Note_on_c, 1, 52, 0
3, 83250, Note_on_c, 1, 54, 85
3, 83250, Note_on_c, 1, 42, 76
3, 83256, Note_on_c, 1, 40, 0
3, 83280, Note_on_c, 1, 54, 0
3, 83280, Note_on_c, 1, 55, 93
3, 83280, Note_on_c, 1, 43, 89
3, 83281, Note_on_c, 1, 42, 0
3, 83338, Note_on_c, 1, 43, 0
3, 83338, Note_on_c, 1, 55, 0
3, 83340, Note_on_c, 1, 45, 89
3, 83340, Note_on_c, 1, 57, 102
3, 83367, Note_on_c, 1, 57, 0
3, 83370, Note_on_c, 1, 59, 93
3, 83370, Note_on_c, 1, 47, 80
3, 83372, Note_on_c, 1, 45, 0
3, 83400, Note_on_c, 1, 59, 0
3, 83400, Note_on_c, 1, 60, 89
3, 83400, Note_on_c, 1, 48, 89
3, 83409, Note_on_c, 1, 47, 0
3, 83427, Note_on_c, 1, 60, 0
3, 83428, Note_on_c, 1, 48, 0
3, 83430, Note_on_c, 1, 62, 98
3, 83430, Note_on_c, 1, 50, 89
3, 83458, Note_on_c, 1, 62, 0
3, 83460, Note_on_c, 1, 52, 80
3, 83460, Note_on_c, 1, 64, 93
3, 83464, Note_on_c, 1, 50, 0
3, 83487, Note_on_c, 1, 64, 0
3, 83490, Note_on_c, 1, 52, 0
3, 83490, Note_on_c, 1, 66, 72
3, 83490, Note_on_c, 1, 54, 60
3, 83518, Note_on_c, 1, 54, 0
3, 83518, Note_on_c, 1, 66, 0
3, 83520, Note_on_c, 1, 67, 102
3, 83520, Note_on_c, 1, 55, 98
3, 83537, Control_c, 1, 64, 127
3, 83573, Note_on_c, 1, 55, 0
3, 83574, Note_on_c, 1, 67, 0
3, 83640, Note_on_c, 1, 50, 80
3, 83640, Note_on_c, 1, 47, 72
3, 83640, Note_on_c, 1, 55, 93
3, 83640, Note_on_c, 1, 43, 85
3, 83640, Note_on_c, 1, 31, 93
3, 83647, Control_c, 1, 64, 0
3, 83699, Control_c, 1, 64, 127
3, 83767, Note_on_c, 1, 31, 0
3, 83767, Note_on_c, 1, 50, 0
3, 83767, Note_on_c, 1, 43, 0
3, 83768, Note_on_c, 1, 55, 0
3, 83768, Note_on_c, 1, 47, 0
3, 83770, Control_c, 1, 64, 0
3, 84480, Note_on_c, 1, 48, 60
3, 84480, Note_on_c, 1, 36, 62
3, 84508, Note_on_c, 1, 48, 0
3, 84510, Note_on_c, 1, 50, 64
3, 84540, Note_on_c, 1, 48, 72
3, 84545, Note_on_c, 1, 50, 0
3, 84570, Note_on_c, 1, 47, 62
3, 84571, Note_on_c, 1, 48, 0
3, 84597, Note_on_c, 1, 47, 0
3, 84600, Note_on_c, 1, 48, 93
3, 84615, Note_on_c, 1, 36, 0
3, 84630, Note_on_c, 1, 48, 0
3, 84630, Note_on_c, 1, 50, 89
3, 84659, Note_on_c, 1, 50, 0
3, 84660, Note_on_c, 1, 52, 68
3, 84690, Note_on_c, 1, 53, 72
3, 84693, Note_on_c, 1, 52, 0
3, 84720, Note_on_c, 1, 55, 56
3, 84721, Note_on_c, 1, 53, 0
3, 84750, Note_on_c, 1, 52, 59
3, 84754, Note_on_c, 1, 55, 0
3, 84779, Note_on_c, 1, 52, 0
3, 84780, Note_on_c, 1, 55, 37
3, 84808, Note_on_c, 1, 55, 0
3, 84810, Note_on_c, 1, 52, 55
3, 84840, Note_on_c, 1, 48, 51
3, 84847, Note_on_c, 1, 52, 0
3, 84901, Note_on_c, 1, 48, 0
3, 85440, Note_on_c, 1, 43, 76
3, 85440, Note_on_c, 1, 43, 76
3, 85459, Control_c, 1, 64, 127
3, 85470, Note_on_c, 1, 31, 80
3, 85500, Note_on_c, 1, 33, 72
3, 85502, Control_c, 1, 64, 0
3, 85503, Note_on_c, 1, 31, 0
3, 85505, Note_on_c, 1, 43, 0
3, 85518, Control_c, 1, 64, 127
3, 85530, Note_on_c, 1, 35, 76
3, 85531, Note_on_c, 1, 33, 0
3, 85534, Control_c, 1, 64, 0
3, 85560, Note_on_c, 1, 36, 80
3, 85561, Note_on_c, 1, 35, 0
3, 85562, Note_on_c, 1, 43, 0
3, 85589, Note_on_c, 1, 36, 0
3, 85590, Note_on_c, 1, 38, 93
3, 85620, Note_on_c, 1, 40, 85
3, 85625, Note_on_c, 1, 38, 0
3, 85649, Note_on_c, 1, 40, 0
3, 85650, Note_on_c, 1, 42, 52
3, 85680, Note_on_c, 1, 43, 76
3, 85683, Note_on_c, 1, 42, 0
3, 85708, Note_on_c, 1, 43, 0
3, 85710, Note_on_c, 1, 45, 68
3, 85737, Note_on_c, 1, 45, 0
3, 85740, Note_on_c, 1, 41, 60
3, 85768, Note_on_c, 1, 41, 0
3, 85770, Note_on_c, 1, 43, 62
3, 85800, Note_on_c, 1, 40, 55
3, 85803, Note_on_c, 1, 43, 0
3, 85829, Note_on_c, 1, 40, 0
3, 85830, Note_on_c, 1, 41, 57
3, 85857, Note_on_c, 1, 41, 0
3, 85860, Note_on_c, 1, 38, 56
3, 85886, Note_on_c, 1, 38, 0
3, 85890, Note_on_c, 1, 40, 50
3, 85920, Note_on_c, 1, 40, 0
3, 85920, Note_on_c, 1, 36, 60
3, 86050, Note_on_c, 1, 36, 0
3, 87660, Note_on_c, 1, 55, 68
3, 87672, Note_on_c, 1, 55, 0
3, 87720, Note_on_c, 1, 60, 76
3, 87730, Note_on_c, 1, 60, 0
3, 87780, Note_on_c, 1, 62, 80
3, 87792, Note_on_c, 1, 62, 0
3, 87840, Note_on_c, 1, 64, 80
3, 87840, Note_on_c, 1, 48, 62
3, 87856, Control_c, 1, 64, 127
3, 87900, Note_on_c, 1, 52, 57
3, 87957, Note_on_c, 1, 64, 0
3, 87959, Note_on_c, 1, 52, 0
3, 87960, Note_on_c, 1, 55, 52
3, 88020, Note_on_c, 1, 60, 72
3, 88020, Note_on_c, 1, 52, 60
3, 88021, Note_on_c, 1, 55, 0
3, 88045, Note_on_c, 1, 48, 0
3, 88055, Note_on_c, 1, 52, 0
3, 88057, Note_on_c, 1, 60, 0
3, 88080, Note_on_c, 1, 48, 55
3, 88080, Note_on_c, 1, 65, 72
3, 88088, Control_c, 1, 64, 0
3, 88118, Control_c, 1, 64, 127
3, 88140, Note_on_c, 1, 50, 55
3, 88146, Note_on_c, 1, 65, 0
3, 88200, Note_on_c, 1, 53, 56
3, 88205, Note_on_c, 1, 50, 0
3, 88250, Note_on_c, 1, 53, 0
3, 88257, Note_on_c, 1, 48, 0
3, 88260, Note_on_c, 1, 50, 62
3, 88260, Note_on_c, 1, 62, 80
3, 88278, Note_on_c, 1, 62, 0
3, 88286, Note_on_c, 1, 50, 0
3, 88320, Note_on_c, 1, 48, 60
3, 88320, Note_on_c, 1, 67, 89
3, 88324, Control_c, 1, 64, 0
3, 88331, Note_on_c, 1, 67, 0
3, 88380, Note_on_c, 1, 64, 76
3, 88391, Note_on_c, 1, 64, 0
3, 88440, Note_on_c, 1, 55, 43
3, 88440, Note_on_c, 1, 60, 55
3, 88444, Control_c, 1, 64, 127
3, 88485, Note_on_c, 1, 60, 0
3, 88500, Note_on_c, 1, 52, 57
3, 88502, Note_on_c, 1, 55, 0
3, 88523, Note_on_c, 1, 48, 0
3, 88541, Note_on_c, 1, 52, 0
3, 88560, Note_on_c, 1, 48, 56
3, 88574, Control_c, 1, 64, 0
3, 88620, Note_on_c, 1, 55, 76
3, 88634, Note_on_c, 1, 55, 0
3, 88636, Note_on_c, 1, 48, 0
3, 88680, Note_on_c, 1, 60, 89
3, 88691, Note_on_c, 1, 60, 0
3, 88740, Note_on_c, 1, 62, 80
3, 88752, Note_on_c, 1, 62, 0
3, 88800, Note_on_c, 1, 48, 62
3, 88800, Note_on_c, 1, 64, 85
3, 88828, Control_c, 1, 64, 127
3, 88860, Note_on_c, 1, 52, 53
3, 88900, Note_on_c, 1, 64, 0
3, 88917, Note_on_c, 1, 52, 0
3, 88920, Note_on_c, 1, 55, 49
3, 88977, Note_on_c, 1, 55, 0
3, 88980, Note_on_c, 1, 60, 76
3, 88980, Note_on_c, 1, 52, 62
3, 88986, Note_on_c, 1, 48, 0
3, 88992, Note_on_c, 1, 52, 0
3, 88999, Note_on_c, 1, 60, 0
3, 89038, Control_c, 1, 64, 0
3, 89040, Note_on_c, 1, 50, 60
3, 89040, Note_on_c, 1, 67, 89
3, 89040, Note_on_c, 1, 47, 56
3, 89059, Control_c, 1, 64, 127
3, 89091, Control_c, 1, 64, 0
3, 89100, Note_on_c, 1, 65, 76
3, 89100, Note_on_c, 1, 55, 49
3, 89101, Note_on_c, 1, 67, 0
3, 89106, Control_c, 1, 64, 127
3, 89115, Note_on_c, 1, 65, 0
3, 89120, Note_on_c, 1, 50, 0
3, 89124, Control_c, 1, 64, 0
3, 89125, Note_on_c, 1, 47, 0
3, 89133, Note_on_c, 1, 55, 0
3, 89160, Note_on_c, 1, 52, 57
3, 89160, Note_on_c, 1, 48, 49
3, 89160, Note_on_c, 1, 65, 80
3, 89168, Control_c, 1, 64, 127
3, 89217, Control_c, 1, 64, 0
3, 89220, Note_on_c, 1, 64, 64
3, 89220, Note_on_c, 1, 55, 56
3, 89221, Note_on_c, 1, 65, 0
3, 89228, Note_on_c, 1, 52, 0
3, 89235, Note_on_c, 1, 64, 0
3, 89239, Note_on_c, 1, 48, 0
3, 89244, Note_on_c, 1, 55, 0
3, 89280, Note_on_c, 1, 61, 72
3, 89280, Note_on_c, 1, 43, 59
3, 89297, Control_c, 1, 64, 127
3, 89340, Note_on_c, 1, 47, 62
3, 89342, Note_on_c, 1, 61, 0
3, 89397, Note_on_c, 1, 47, 0
3, 89400, Note_on_c, 1, 50, 46
3, 89400, Note_on_c, 1, 62, 72
3, 89401, Control_c, 1, 64, 0
3, 89423, Control_c, 1, 64, 127
3, 89451, Note_on_c, 1, 62, 0
3, 89455, Note_on_c, 1, 50, 0
3, 89460, Note_on_c, 1, 47, 44
3, 89464, Note_on_c, 1, 43, 0
3, 89499, Note_on_c, 1, 47, 0
3, 89520, Note_on_c, 1, 43, 57
3, 89533, Control_c, 1, 64, 0
3, 89557, Note_on_c, 1, 43, 0
3, 89580, Note_on_c, 1, 55, 80
3, 89596, Note_on_c, 1, 55, 0
3, 89640, Note_on_c, 1, 60, 89
3, 89654, Note_on_c, 1, 60, 0
3, 89700, Note_on_c, 1, 62, 89
3, 89711, Note_on_c, 1, 62, 0
3, 89760, Note_on_c, 1, 48, 60
3, 89760, Note_on_c, 1, 64, 80
3, 89778, Control_c, 1, 64, 127
3, 89820, Note_on_c, 1, 52, 52
3, 89836, Note_on_c, 1, 64, 0
3, 89880, Note_on_c, 1, 55, 59
3, 89887, Note_on_c, 1, 52, 0
3, 89938, Note_on_c, 1, 55, 0
3, 89940, Note_on_c, 1, 60, 80
3, 89940, Note_on_c, 1, 52, 59
3, 89950, Note_on_c, 1, 48, 0
3, 89965, Note_on_c, 1, 52, 0
3, 89977, Note_on_c, 1, 60, 0
3, 90000, Note_on_c, 1, 65, 85
3, 90000, Note_on_c, 1, 48, 59
3, 90006, Control_c, 1, 64, 0
3, 90040, Control_c, 1, 64, 127
3, 90060, Note_on_c, 1, 50, 56
3, 90110, Note_on_c, 1, 65, 0
3, 90120, Note_on_c, 1, 53, 68
3, 90131, Note_on_c, 1, 50, 0
3, 90177, Note_on_c, 1, 48, 0
3, 90178, Note_on_c, 1, 53, 0
3, 90180, Note_on_c, 1, 62, 93
3, 90180, Note_on_c, 1, 50, 76
3, 90180, Note_on_c, 1, 48, 60
3, 90188, Note_on_c, 1, 48, 0
3, 90198, Note_on_c, 1, 50, 0
3, 90199, Note_on_c, 1, 62, 0
3, 90231, Control_c, 1, 64, 0
3, 90240, Note_on_c, 1, 48, 76
3, 90240, Note_on_c, 1, 52, 85
3, 90240, Note_on_c, 1, 67, 119
3, 90249, Note_on_c, 1, 67, 0
3, 90300, Note_on_c, 1, 64, 102
3, 90311, Note_on_c, 1, 64, 0
3, 90317, Note_on_c, 1, 48, 0
3, 90325, Note_on_c, 1, 52, 0
3, 90360, Note_on_c, 1, 41, 89
3, 90360, Note_on_c, 1, 53, 89
3, 90360, Note_on_c, 1, 69, 119
3, 90376, Control_c, 1, 64, 127
3, 90430, Note_on_c, 1, 69, 0
3, 90430, Note_on_c, 1, 41, 0
3, 90433, Note_on_c, 1, 53, 0
3, 90439, Control_c, 1, 64, 0
3, 90540, Note_on_c, 1, 69, 55
3, 90554, Control_c, 1, 64, 127
3, 90570, Note_on_c, 1, 67, 64
3, 90574, Note_on_c, 1, 69, 0
3, 90576, Control_c, 1, 64, 0
3, 90600, Note_on_c, 1, 65, 60
3, 90605, Note_on_c, 1, 67, 0
3, 90629, Note_on_c, 1, 65, 0
3, 90630, Note_on_c, 1, 64, 62
3, 90655, Control_c, 1, 64, 127
3, 90656, Note_on_c, 1, 64, 0
3, 90660, Note_on_c, 1, 62, 68
3, 90683, Note_on_c, 1, 62, 0
3, 90690, Note_on_c, 1, 60, 68
3, 90709, Control_c, 1, 64, 0
3, 90720, Note_on_c, 1, 59, 72
3, 90720, Note_on_c, 1, 43, 60
3, 90720, Note_on_c, 1, 59, 80
3, 90720, Note_on_c, 1, 53, 53
3, 90722, Note_on_c, 1, 60, 0
3, 90730, Control_c, 1, 64, 127
3, 90759, Note_on_c, 1, 59, 0
3, 90762, Note_on_c, 1, 53, 0
3, 90764, Note_on_c, 1, 43, 0
3, 90773, Note_on_c, 1, 59, 0
3, 90774, Control_c, 1, 64, 0
3, 90840, Note_on_c, 1, 60, 80
3, 90840, Note_on_c, 1, 45, 72
3, 90840, Note_on_c, 1, 52, 60
3, 90849, Control_c, 1, 64, 127
3, 90876, Note_on_c, 1, 60, 0
3, 90878, Note_on_c, 1, 52, 0
3, 90884, Note_on_c, 1, 45, 0
3, 90901, Control_c, 1, 64, 0
3, 90960, Note_on_c, 1, 41, 68
3, 90960, Note_on_c, 1, 45, 76
3, 90960, Note_on_c, 1, 62, 76
3, 90965, Control_c, 1, 64, 127
3, 90978, Note_on_c, 1, 45, 0
3, 90979, Note_on_c, 1, 41, 0
3, 90982, Note_on_c, 1, 62, 0
3, 91016, Control_c, 1, 64, 0
3, 91035, Note_on_c, 1, 64, 85
3, 91050, Note_on_c, 1, 62, 60
3, 91053, Note_on_c, 1, 64, 0
3, 91064, Note_on_c, 1, 62, 0
3, 91065, Note_on_c, 1, 60, 57
3, 91080, Note_on_c, 1, 60, 0
3, 91080, Note_on_c, 1, 62, 80
3, 91080, Note_on_c, 1, 47, 64
3, 91080, Note_on_c, 1, 43, 68
3, 91100, Note_on_c, 1, 62, 0
3, 91114, Note_on_c, 1, 47, 0
3, 91115, Note_on_c, 1, 43, 0
3, 91140, Note_on_c, 1, 64, 89
3, 91152, Note_on_c, 1, 64, 0
3, 91200, Note_on_c, 1, 60, 113
3, 91200, Note_on_c, 1, 36, 98
3, 91200, Note_on_c, 1, 48, 89
3, 91205, Control_c, 1, 64, 127
3, 91228, Note_on_c, 1, 48, 0
3, 91229, Note_on_c, 1, 60, 0
3, 91237, Note_on_c, 1, 36, 0
3, 91312, Control_c, 1, 64, 0
3, 91320, Note_on_c, 1, 60, 113
3, 91320, Note_on_c, 1, 29, 113
3, 91320, Note_on_c, 1, 41, 107
3, 91331, Control_c, 1, 64, 127
3, 91345, Note_on_c, 1, 41, 0
3, 91347, Note_on_c, 1, 29, 0
3, 91348, Note_on_c, 1, 60, 0
3, 91433, Control_c, 1, 64, 0
3, 91680, Note_on_c, 1, 31, 76
3, 91680, Note_on_c, 1, 43, 62
3, 91701, Control_c, 1, 64, 127
3, 91734, Control_c, 1, 64, 0
3, 91740, Note_on_c, 1, 57, 76
3, 91770, Note_on_c, 1, 55, 72
3, 91772, Note_on_c, 1, 57, 0
3, 91800, Note_on_c, 1, 53, 51
3, 91803, Note_on_c, 1, 55, 0
3, 91816, Note_on_c, 1, 43, 0
3, 91818, Note_on_c, 1, 31, 0
3, 91830, Note_on_c, 1, 52, 64
3, 91832, Note_on_c, 1, 53, 0
3, 91858, Note_on_c, 1, 52, 0
3, 91860, Note_on_c, 1, 50, 62
3, 91883, Note_on_c, 1, 50, 0
3, 91890, Note_on_c, 1, 48, 44
3, 91893, Note_on_c, 1, 48, 0
3, 91920, Note_on_c, 1, 47, 60
3, 91920, Note_on_c, 1, 31, 64
3, 91920, Note_on_c, 1, 43, 55
3, 91960, Control_c, 1, 64, 127
3, 91983, Note_on_c, 1, 31, 0
3, 91984, Note_on_c, 1, 43, 0
3, 91988, Note_on_c, 1, 47, 0
3, 92001, Control_c, 1, 64, 0
3, 92160, Note_on_c, 1, 31, 80
3, 92160, Note_on_c, 1, 43, 68
3, 92174, Control_c, 1, 64, 127
3, 92220, Note_on_c, 1, 56, 89
3, 92238, Note_on_c, 1, 43, 0
3, 92244, Note_on_c, 1, 31, 0
3, 92250, Note_on_c, 1, 56, 0
3, 92250, Note_on_c, 1, 55, 76
3, 92264, Control_c, 1, 64, 0
3, 92280, Note_on_c, 1, 55, 0
3, 92280, Note_on_c, 1, 53, 68
3, 92310, Note_on_c, 1, 51, 72
3, 92315, Note_on_c, 1, 53, 0
3, 92335, Note_on_c, 1, 51, 0
3, 92340, Note_on_c, 1, 50, 55
3, 92370, Note_on_c, 1, 48, 56
3, 92374, Note_on_c, 1, 50, 0
3, 92400, Note_on_c, 1, 31, 56
3, 92400, Note_on_c, 1, 47, 62
3, 92400, Note_on_c, 1, 43, 43
3, 92401, Note_on_c, 1, 48, 0
3, 92425, Control_c, 1, 64, 127
3, 92471, Note_on_c, 1, 47, 0
3, 92473, Note_on_c, 1, 43, 0
3, 92478, Note_on_c, 1, 31, 0
3, 92510, Control_c, 1, 64, 0
3, 93000, Note_on_c, 1, 62, 76
3, 93000, Note_on_c, 1, 56, 53
3, 93013, Control_c, 1, 64, 127
3, 93070, Note_on_c, 1, 56, 0
3, 93074, Note_on_c, 1, 62, 0
3, 93120, Note_on_c, 1, 60, 64
3, 93120, Note_on_c, 1, 57, 68
3, 93130, Control_c, 1, 64, 0
3, 93149, Control_c, 1, 64, 127
3, 93203, Note_on_c, 1, 60, 0
3, 93204, Note_on_c, 1, 57, 0
3, 93240, Note_on_c, 1, 61, 64
3, 93240, Note_on_c, 1, 55, 72
3, 93245, Control_c, 1, 64, 0
3, 93264, Control_c, 1, 64, 127
3, 93356, Note_on_c, 1, 55, 0
3, 93356, Control_c, 1, 64, 0
3, 93360, Note_on_c, 1, 53, 72
3, 93381, Control_c, 1, 64, 127
3, 93416, Control_c, 1, 64, 0
3, 93420, Note_on_c, 1, 62, 80
3, 93421, Note_on_c, 1, 61, 0
3, 93445, Control_c, 1, 64, 127
3, 93478, Note_on_c, 1, 62, 0
3, 93480, Note_on_c, 1, 64, 89
3, 93484, Control_c, 1, 64, 0
3, 93508, Control_c, 1, 64, 127
3, 93540, Note_on_c, 1, 65, 80
3, 93544, Note_on_c, 1, 64, 0
3, 93558, Control_c, 1, 64, 0
3, 93579, Control_c, 1, 64, 127
3, 93595, Note_on_c, 1, 65, 0
3, 93600, Note_on_c, 1, 55, 72
3, 93604, Note_on_c, 1, 53, 0
3, 93606, Control_c, 1, 64, 0
3, 93638, Control_c, 1, 64, 127
3, 93660, Note_on_c, 1, 60, 64
3, 93699, Note_on_c, 1, 60, 0
3, 93720, Note_on_c, 1, 60, 56
3, 93720, Control_c, 1, 64, 0
3, 93728, Note_on_c, 1, 55, 0
3, 93735, Control_c, 1, 64, 127
3, 93767, Note_on_c, 1, 60, 0
3, 93780, Note_on_c, 1, 60, 64
3, 93828, Note_on_c, 1, 60, 0
3, 93840, Note_on_c, 1, 60, 64
3, 93843, Control_c, 1, 64, 0
3, 93862, Control_c, 1, 64, 127
3, 93887, Note_on_c, 1, 60, 0
3, 93900, Note_on_c, 1, 60, 72
3, 93939, Note_on_c, 1, 60, 0
3, 93959, Control_c, 1, 64, 0
3, 93960, Note_on_c, 1, 60, 93
3, 93960, Note_on_c, 1, 55, 80
3, 93980, Control_c, 1, 64, 127
3, 94002, Note_on_c, 1, 55, 0
3, 94013, Note_on_c, 1, 60, 0
3, 94020, Note_on_c, 1, 60, 62
3, 94024, Control_c, 1, 64, 0
3, 94043, Control_c, 1, 64, 127
3, 94069, Note_on_c, 1, 60, 0
3, 94080, Note_on_c, 1, 60, 64
3, 94080, Note_on_c, 1, 52, 72
3, 94082, Control_c, 1, 64, 0
3, 94101, Control_c, 1, 64, 127
3, 94127, Note_on_c, 1, 60, 0
3, 94129, Note_on_c, 1, 52, 0
3, 94140, Note_on_c, 1, 60, 59
3, 94141, Control_c, 1, 64, 0
3, 94158, Control_c, 1, 64, 127
3, 94186, Note_on_c, 1, 60, 0
3, 94199, Control_c, 1, 64, 0
3, 94200, Note_on_c, 1, 60, 68
3, 94200, Note_on_c, 1, 48, 89
3, 94220, Control_c, 1, 64, 127
3, 94248, Note_on_c, 1, 48, 0
3, 94250, Note_on_c, 1, 60, 0
3, 94260, Note_on_c, 1, 60, 62
3, 94266, Control_c, 1, 64, 0
3, 94286, Control_c, 1, 64, 127
3, 94301, Note_on_c, 1, 60, 0
3, 94312, Control_c, 1, 64, 0
3, 94320, Note_on_c, 1, 55, 93
3, 94320, Note_on_c, 1, 60, 80
3, 94332, Control_c, 1, 64, 127
3, 94355, Note_on_c, 1, 55, 0
3, 94366, Note_on_c, 1, 60, 0
3, 94380, Note_on_c, 1, 60, 68
3, 94412, Note_on_c, 1, 60, 0
3, 94440, Note_on_c, 1, 43, 68
3, 94440, Note_on_c, 1, 59, 89
3, 94441, Control_c, 1, 64, 0
3, 94458, Control_c, 1, 64, 127
3, 94479, Note_on_c, 1, 59, 0
3, 94490, Note_on_c, 1, 43, 0
3, 94500, Note_on_c, 1, 59, 89
3, 94530, Note_on_c, 1, 59, 0
3, 94554, Control_c, 1, 64, 0
3, 94560, Note_on_c, 1, 48, 72
3, 94560, Note_on_c, 1, 60, 76
3, 94571, Control_c, 1, 64, 127
3, 94584, Note_on_c, 1, 60, 0
3, 94588, Note_on_c, 1, 48, 0
3, 94709, Control_c, 1, 64, 0
3, 97440, Note_on_c, 1, 60, 113
3, 97440, Note_on_c, 1, 48, 102
3, 97440, Note_on_c, 1, 36, 107
3, 97459, Control_c, 1, 64, 127
3, 97470, Note_on_c, 1, 55, 72
3, 97473, Note_on_c, 1, 60, 0
3, 97489, Note_on_c, 1, 55, 0
3, 97489, Note_on_c, 1, 36, 0
3, 97500, Note_on_c, 1, 60, 93
3, 97503, Note_on_c, 1, 48, 0
3, 97522, Note_on_c, 1, 60, 0
3, 97530, Note_on_c, 1, 64, 93
3, 97543, Note_on_c, 1, 64, 0
3, 97553, Control_c, 1, 64, 0
3, 97560, Note_on_c, 1, 67, 102
3, 97560, Note_on_c, 1, 52, 113
3, 97580, Control_c, 1, 64, 127
3, 97590, Note_on_c, 1, 60, 72
3, 97592, Note_on_c, 1, 67, 0
3, 97608, Note_on_c, 1, 60, 0
3, 97609, Note_on_c, 1, 52, 0
3, 97610, Control_c, 1, 64, 0
3, 97620, Note_on_c, 1, 66, 85
3, 97620, Note_on_c, 1, 51, 107
3, 97633, Control_c, 1, 64, 127
3, 97650, Note_on_c, 1, 60, 64
3, 97652, Note_on_c, 1, 66, 0
3, 97661, Note_on_c, 1, 60, 0
3, 97662, Note_on_c, 1, 51, 0
3, 97671, Control_c, 1, 64, 0
3, 97680, Note_on_c, 1, 67, 107
3, 97680, Note_on_c, 1, 52, 113
3, 97692, Control_c, 1, 64, 127
3, 97710, Note_on_c, 1, 60, 76
3, 97712, Note_on_c, 1, 67, 0
3, 97730, Note_on_c, 1, 60, 0
3, 97730, Note_on_c, 1, 52, 0
3, 97739, Control_c, 1, 64, 0
3, 97740, Note_on_c, 1, 68, 93
3, 97740, Note_on_c, 1, 52, 89
3, 97757, Control_c, 1, 64, 127
3, 97769, Note_on_c, 1, 68, 0
3, 97770, Note_on_c, 1, 60, 72
3, 97786, Note_on_c, 1, 60, 0
3, 97787, Note_on_c, 1, 52, 0
3, 97792, Control_c, 1, 64, 0
3, 97800, Note_on_c, 1, 53, 93
3, 97800, Note_on_c, 1, 69, 93
3, 97811, Control_c, 1, 64, 127
3, 97830, Note_on_c, 1, 69, 0
3, 97830, Note_on_c, 1, 60, 76
3, 97842, Note_on_c, 1, 53, 0
3, 97847, Note_on_c, 1, 60, 0
3, 97855, Control_c, 1, 64, 0
3, 97860, Note_on_c, 1, 52, 93
3, 97860, Note_on_c, 1, 67, 98
3, 97873, Control_c, 1, 64, 127
3, 97886, Note_on_c, 1, 67, 0
3, 97890, Note_on_c, 1, 60, 80
3, 97898, Note_on_c, 1, 52, 0
3, 97903, Note_on_c, 1, 60, 0
3, 97915, Control_c, 1, 64, 0
3, 97920, Note_on_c, 1, 50, 93
3, 97920, Note_on_c, 1, 65, 93
3, 97935, Control_c, 1, 64, 127
3, 97950, Note_on_c, 1, 55, 62
3, 97958, Note_on_c, 1, 50, 0
3, 97962, Note_on_c, 1, 65, 0
3, 97974, Control_c, 1, 64, 0
3, 97979, Note_on_c, 1, 55, 0
3, 97980, Note_on_c, 1, 59, 89
3, 97995, Control_c, 1, 64, 127
3, 98007, Note_on_c, 1, 59, 0
3, 98010, Note_on_c, 1, 62, 76
3, 98023, Note_on_c, 1, 62, 0
3, 98030, Control_c, 1, 64, 0
3, 98040, Note_on_c, 1, 65, 93
3, 98040, Note_on_c, 1, 50, 113
3, 98050, Control_c, 1, 64, 127
3, 98070, Note_on_c, 1, 55, 62
3, 98071, Note_on_c, 1, 50, 0
3, 98081, Note_on_c, 1, 65, 0
3, 98089, Note_on_c, 1, 55, 0
3, 98094, Control_c, 1, 64, 0
3, 98100, Note_on_c, 1, 64, 89
3, 98100, Note_on_c, 1, 49, 113
3, 98112, Control_c, 1, 64, 127
3, 98126, Note_on_c, 1, 64, 0
3, 98130, Note_on_c, 1, 55, 76
3, 98134, Note_on_c, 1, 49, 0
3, 98143, Note_on_c, 1, 55, 0
3, 98150, Control_c, 1, 64, 0
3, 98160, Note_on_c, 1, 65, 107
3, 98160, Note_on_c, 1, 50, 93
3, 98168, Control_c, 1, 64, 127
3, 98188, Note_on_c, 1, 65, 0
3, 98189, Note_on_c, 1, 50, 0
3, 98190, Note_on_c, 1, 55, 76
3, 98205, Note_on_c, 1, 55, 0
3, 98210, Control_c, 1, 64, 0
3, 98220, Note_on_c, 1, 51, 89
3, 98220, Note_on_c, 1, 66, 102
3, 98226, Control_c, 1, 64, 127
3, 98250, Note_on_c, 1, 66, 0
3, 98250, Note_on_c, 1, 55, 89
3, 98255, Note_on_c, 1, 51, 0
3, 98264, Note_on_c, 1, 55, 0
3, 98269, Control_c, 1, 64, 0
3, 98280, Note_on_c, 1, 67, 107
3, 98280, Note_on_c, 1, 52, 93
3, 98289, Control_c, 1, 64, 127
3, 98306, Note_on_c, 1, 67, 0
3, 98310, Note_on_c, 1, 55, 76
3, 98312, Note_on_c, 1, 52, 0
3, 98325, Note_on_c, 1, 55, 0
3, 98330, Control_c, 1, 64, 0
3, 98340, Note_on_c, 1, 65, 93
3, 98340, Note_on_c, 1, 50, 93
3, 98347, Control_c, 1, 64, 127
3, 98353, Note_on_c, 1, 50, 0
3, 98370, Note_on_c, 1, 55, 89
3, 98371, Note_on_c, 1, 65, 0
3, 98382, Note_on_c, 1, 55, 0
3, 98386, Control_c, 1, 64, 0
3, 98400, Note_on_c, 1, 48, 93
3, 98400, Note_on_c, 1, 64, 102
3, 98405, Control_c, 1, 64, 127
3, 98418, Note_on_c, 1, 64, 0
3, 98430, Note_on_c, 1, 60, 68
3, 98433, Note_on_c, 1, 48, 0
3, 98446, Note_on_c, 1, 60, 0
3, 98453, Control_c, 1, 64, 0
3, 98460, Note_on_c, 1, 47, 80
3, 98460, Note_on_c, 1, 67, 107
3, 98460, Note_on_c, 1, 62, 107
3, 98476, Control_c, 1, 64, 127
3, 98490, Note_on_c, 1, 59, 76
3, 98491, Note_on_c, 1, 62, 0
3, 98492, Note_on_c, 1, 67, 0
3, 98494, Note_on_c, 1, 47, 0
3, 98508, Note_on_c, 1, 59, 0
3, 98508, Control_c, 1, 64, 0
3, 98520, Note_on_c, 1, 45, 76
3, 98520, Note_on_c, 1, 65, 98
3, 98520, Note_on_c, 1, 60, 98
3, 98528, Control_c, 1, 64, 127
3, 98550, Note_on_c, 1, 60, 0
3, 98550, Note_on_c, 1, 57, 80
3, 98553, Note_on_c, 1, 65, 0
3, 98554, Note_on_c, 1, 45, 0
3, 98566, Note_on_c, 1, 57, 0
3, 98570, Control_c, 1, 64, 0
3, 98580, Note_on_c, 1, 43, 59
3, 98580, Note_on_c, 1, 64, 98
3, 98580, Note_on_c, 1, 59, 102
3, 98588, Control_c, 1, 64, 127
3, 98600, Note_on_c, 1, 64, 0
3, 98610, Note_on_c, 1, 55, 76
3, 98614, Note_on_c, 1, 59, 0
3, 98615, Note_on_c, 1, 43, 0
3, 98625, Note_on_c, 1, 55, 0
3, 98632, Control_c, 1, 64, 0
3, 98640, Note_on_c, 1, 62, 89
3, 98640, Note_on_c, 1, 41, 64
3, 98640, Note_on_c, 1, 57, 89
3, 98648, Control_c, 1, 64, 127
3, 98670, Note_on_c, 1, 53, 72
3, 98672, Note_on_c, 1, 41, 0
3, 98677, Note_on_c, 1, 62, 0
3, 98677, Note_on_c, 1, 57, 0
3, 98685, Note_on_c, 1, 53, 0
3, 98687, Control_c, 1, 64, 0
3, 98700, Note_on_c, 1, 40, 89
3, 98700, Note_on_c, 1, 60, 93
3, 98700, Note_on_c, 1, 55, 93
3, 98704, Control_c, 1, 64, 127
3, 98725, Note_on_c, 1, 60, 0
3, 98730, Note_on_c, 1, 52, 80
3, 98736, Note_on_c, 1, 40, 0
3, 98739, Note_on_c, 1, 55, 0
3, 98745, Note_on_c, 1, 52, 0
3, 98749, Control_c, 1, 64, 0
3, 98760, Note_on_c, 1, 38, 76
3, 98760, Note_on_c, 1, 59, 102
3, 98760, Note_on_c, 1, 53, 98
3, 98765, Control_c, 1, 64, 127
3, 98790, Note_on_c, 1, 50, 80
3, 98791, Note_on_c, 1, 38, 0
3, 98794, Note_on_c, 1, 53, 0
3, 98795, Note_on_c, 1, 59, 0
3, 98807, Note_on_c, 1, 50, 0
3, 98807, Control_c, 1, 64, 0
3, 98820, Note_on_c, 1, 36, 68
3, 98820, Note_on_c, 1, 57, 102
3, 98820, Note_on_c, 1, 52, 102
3, 98824, Control_c, 1, 64, 127
3, 98850, Note_on_c, 1, 48, 76
3, 98853, Note_on_c, 1, 36, 0
3, 98855, Note_on_c, 1, 52, 0
3, 98858, Note_on_c, 1, 57, 0
3, 98863, Note_on_c, 1, 48, 0
3, 98869, Control_c, 1, 64, 0
3, 98880, Note_on_c, 1, 35, 89
3, 98880, Note_on_c, 1, 55, 93
3, 98880, Note_on_c, 1, 50, 102
3, 98880, Note_on_c, 1, 47, 76
3, 98890, Control_c, 1, 64, 127
3, 98997, Control_c, 1, 64, 0
3, 99008, Note_on_c, 1, 47, 0
3, 99008, Note_on_c, 1, 35, 0
3, 99012, Note_on_c, 1, 50, 0
3, 99013, Note_on_c, 1, 55, 0
3, 99360, Note_on_c, 1, 53, 98
3, 99390, Note_on_c, 1, 53, 0
3, 99390, Note_on_c, 1, 52, 85
3, 99420, Note_on_c, 1, 55, 89
3, 99421, Note_on_c, 1, 52, 0
3, 99449, Note_on_c, 1, 55, 0
3, 99450, Note_on_c, 1, 53, 80
3, 99476, Note_on_c, 1, 53, 0
3, 99480, Note_on_c, 1, 57, 93
3, 99480, Note_on_c, 1, 48, 85
3, 99506, Control_c, 1, 64, 127
3, 99508, Note_on_c, 1, 57, 0
3, 99510, Note_on_c, 1, 55, 80
3, 99528, Control_c, 1, 64, 0
3, 99538, Note_on_c, 1, 55, 0
3, 99540, Note_on_c, 1, 58, 89
3, 99551, Control_c, 1, 64, 127
3, 99570, Note_on_c, 1, 57, 85
3, 99572, Note_on_c, 1, 58, 0
3, 99594, Note_on_c, 1, 57, 0
3, 99594, Note_on_c, 1, 48, 0
3, 99595, Control_c, 1, 64, 0
3, 99600, Note_on_c, 1, 45, 89
3, 99600, Note_on_c, 1, 60, 93
3, 99623, Control_c, 1, 64, 127
3, 99630, Note_on_c, 1, 60, 0
3, 99630, Note_on_c, 1, 58, 80
3, 99653, Control_c, 1, 64, 0
3, 99658, Note_on_c, 1, 58, 0
3, 99660, Note_on_c, 1, 62, 93
3, 99673, Control_c, 1, 64, 127
3, 99685, Note_on_c, 1, 62, 0
3, 99690, Note_on_c, 1, 60, 89
3, 99702, Note_on_c, 1, 60, 0
3, 99718, Note_on_c, 1, 45, 0
3, 99719, Control_c, 1, 64, 0
3, 99720, Note_on_c, 1, 64, 93
3, 99720, Note_on_c, 1, 41, 89
3, 99750, Note_on_c, 1, 64, 0
3, 99750, Note_on_c, 1, 62, 89
3, 99750, Control_c, 1, 64, 127
3, 99772, Control_c, 1, 64, 0
3, 99774, Note_on_c, 1, 62, 0
3, 99780, Note_on_c, 1, 65, 93
3, 99792, Control_c, 1, 64, 127
3, 99808, Note_on_c, 1, 41, 0
3, 99809, Note_on_c, 1, 65, 0
3, 99810, Note_on_c, 1, 64, 89
3, 99833, Note_on_c, 1, 64, 0
3, 99835, Control_c, 1, 64, 0
3, 99840, Note_on_c, 1, 67, 93
3, 99840, Note_on_c, 1, 36, 76
3, 99855, Control_c, 1, 64, 127
3, 99870, Note_on_c, 1, 40, 85
3, 99871, Note_on_c, 1, 36, 0
3, 99897, Control_c, 1, 64, 0
3, 99900, Note_on_c, 1, 38, 93
3, 99902, Note_on_c, 1, 40, 0
3, 99915, Control_c, 1, 64, 127
3, 99930, Note_on_c, 1, 41, 89
3, 99933, Note_on_c, 1, 38, 0
3, 99933, Control_c, 1, 64, 0
3, 99960, Note_on_c, 1, 41, 0
3, 99960, Note_on_c, 1, 40, 93
3, 99979, Control_c, 1, 64, 127
3, 99990, Note_on_c, 1, 43, 93
3, 99990, Control_c, 1, 64, 0
3, 99991, Note_on_c, 1, 40, 0
3, 100020, Note_on_c, 1, 41, 89
3, 100021, Note_on_c, 1, 43, 0
3, 100050, Note_on_c, 1, 45, 93
3, 100051, Note_on_c, 1, 41, 0
3, 100078, Note_on_c, 1, 45, 0
3, 100080, Note_on_c, 1, 43, 89
3, 100110, Note_on_c, 1, 46, 89
3, 100111, Note_on_c, 1, 43, 0
3, 100139, Note_on_c, 1, 46, 0
3, 100140, Note_on_c, 1, 45, 93
3, 100169, Note_on_c, 1, 45, 0
3, 100170, Note_on_c, 1, 48, 89
3, 100179, Control_c, 1, 64, 127
3, 100193, Control_c, 1, 64, 0
3, 100200, Note_on_c, 1, 48, 0
3, 100200, Note_on_c, 1, 46, 89
3, 100200, Note_on_c, 1, 60, 102
3, 100201, Note_on_c, 1, 67, 0
3, 100225, Control_c, 1, 64, 127
3, 100230, Note_on_c, 1, 50, 89
3, 100231, Note_on_c, 1, 46, 0
3, 100240, Control_c, 1, 64, 0
3, 100259, Note_on_c, 1, 50, 0
3, 100260, Note_on_c, 1, 48, 93
3, 100285, Control_c, 1, 64, 127
3, 100290, Note_on_c, 1, 48, 0
3, 100290, Note_on_c, 1, 52, 85
3, 100303, Note_on_c, 1, 52, 0
3, 100313, Note_on_c, 1, 60, 0
3, 100319, Control_c, 1, 64, 0
3, 100320, Note_on_c, 1, 60, 113
3, 100320, Note_on_c, 1, 41, 93
3, 100320, Note_on_c, 1, 53, 89
3, 100348, Control_c, 1, 64, 127
3, 100434, Note_on_c, 1, 53, 0
3, 100434, Control_c, 1, 64, 0
3, 100438, Note_on_c, 1, 41, 0
3, 100440, Note_on_c, 1, 60, 0
3, 100740, Note_on_c, 1, 57, 107
3, 100740, Note_on_c, 1, 60, 107
3, 100740, Note_on_c, 1, 53, 93
3, 100740, Note_on_c, 1, 41, 107
3, 100742, Control_c, 1, 64, 127
3, 100774, Note_on_c, 1, 41, 0
3, 100775, Note_on_c, 1, 53, 0
3, 100779, Note_on_c, 1, 57, 0
3, 100780, Note_on_c, 1, 60, 0
3, 100795, Control_c, 1, 64, 0
3, 100800, Note_on_c, 1, 59, 107
3, 100800, Note_on_c, 1, 62, 113
3, 100800, Note_on_c, 1, 53, 89
3, 100800, Note_on_c, 1, 41, 107
3, 100818, Control_c, 1, 64, 127
3, 100910, Control_c, 1, 64, 0
3, 100912, Note_on_c, 1, 53, 0
3, 100914, Note_on_c, 1, 41, 0
3, 100917, Note_on_c, 1, 59, 0
3, 100918, Note_on_c, 1, 62, 0
3, 101220, Note_on_c, 1, 59, 113
3, 101220, Note_on_c, 1, 62, 107
3, 101220, Note_on_c, 1, 41, 98
3, 101220, Note_on_c, 1, 53, 93
3, 101231, Control_c, 1, 64, 127
3, 101245, Note_on_c, 1, 41, 0
3, 101252, Note_on_c, 1, 53, 0
3, 101255, Note_on_c, 1, 62, 0
3, 101255, Note_on_c, 1, 59, 0
3, 101275, Control_c, 1, 64, 0
3, 101280, Note_on_c, 1, 63, 102
3, 101280, Note_on_c, 1, 60, 119
3, 101280, Note_on_c, 1, 42, 93
3, 101280, Note_on_c, 1, 54, 93
3, 101315, Control_c, 1, 64, 127
3, 101374, Note_on_c, 1, 54, 0
3, 101376, Note_on_c, 1, 60, 0
3, 101376, Control_c, 1, 64, 0
3, 101377, Note_on_c, 1, 42, 0
3, 101377, Note_on_c, 1, 63, 0
3, 101700, Note_on_c, 1, 48, 102
3, 101700, Note_on_c, 1, 51, 93
3, 101700, Note_on_c, 1, 57, 113
3, 101700, Note_on_c, 1, 54, 102
3, 101700, Note_on_c, 1, 42, 93
3, 101700, Note_on_c, 1, 30, 93
3, 101708, Control_c, 1, 64, 127
3, 101734, Note_on_c, 1, 51, 0
3, 101735, Note_on_c, 1, 30, 0
3, 101736, Note_on_c, 1, 42, 0
3, 101737, Note_on_c, 1, 54, 0
3, 101737, Note_on_c, 1, 57, 0
3, 101738, Note_on_c, 1, 48, 0
3, 101752, Control_c, 1, 64, 0
3, 101760, Note_on_c, 1, 31, 93
3, 101760, Note_on_c, 1, 43, 89
3, 101760, Note_on_c, 1, 55, 89
3, 101760, Note_on_c, 1, 48, 93
3, 101760, Note_on_c, 1, 52, 93
3, 101775, Control_c, 1, 64, 127
3, 101807, Note_on_c, 1, 52, 0
3, 101808, Note_on_c, 1, 48, 0
3, 101811, Note_on_c, 1, 55, 0
3, 101823, Control_c, 1, 64, 0
3, 101880, Note_on_c, 1, 67, 102
3, 101890, Note_on_c, 1, 67, 0
3, 101892, Note_on_c, 1, 43, 0
3, 101896, Note_on_c, 1, 31, 0
3, 102000, Note_on_c, 1, 64, 85
3, 102018, Note_on_c, 1, 64, 0
3, 102120, Note_on_c, 1, 60, 93
3, 102136, Note_on_c, 1, 60, 0
3, 102240, Note_on_c, 1, 55, 72
3, 102270, Note_on_c, 1, 60, 93
3, 102272, Note_on_c, 1, 55, 0
3, 102300, Note_on_c, 1, 60, 0
3, 102300, Note_on_c, 1, 62, 89
3, 102311, Control_c, 1, 64, 127
3, 102325, Note_on_c, 1, 62, 0
3, 102330, Note_on_c, 1, 64, 76
3, 102343, Note_on_c, 1, 64, 0
3, 102355, Control_c, 1, 64, 0
3, 102360, Note_on_c, 1, 65, 107
3, 102360, Note_on_c, 1, 55, 85
3, 102390, Note_on_c, 1, 65, 0
3, 102390, Note_on_c, 1, 67, 93
3, 102391, Control_c, 1, 64, 127
3, 102404, Note_on_c, 1, 55, 0
3, 102414, Control_c, 1, 64, 0
3, 102420, Note_on_c, 1, 67, 0
3, 102420, Note_on_c, 1, 69, 89
3, 102439, Control_c, 1, 64, 127
3, 102448, Note_on_c, 1, 69, 0
3, 102450, Note_on_c, 1, 71, 93
3, 102467, Note_on_c, 1, 71, 0
3, 102472, Control_c, 1, 64, 0
3, 102480, Note_on_c, 1, 52, 98
3, 102480, Note_on_c, 1, 72, 102
3, 102501, Control_c, 1, 64, 127
3, 102504, Control_c, 1, 64, 0
3, 102508, Note_on_c, 1, 52, 0
3, 102510, Note_on_c, 1, 71, 76
3, 102511, Note_on_c, 1, 72, 0
3, 102537, Note_on_c, 1, 71, 0
3, 102540, Note_on_c, 1, 72, 76
3, 102568, Note_on_c, 1, 72, 0
3, 102570, Note_on_c, 1, 71, 89
3, 102597, Note_on_c, 1, 71, 0
3, 102600, Note_on_c, 1, 72, 89
3, 102600, Note_on_c, 1, 48, 93
3, 102617, Note_on_c, 1, 48, 0
3, 102630, Note_on_c, 1, 71, 76
3, 102635, Note_on_c, 1, 72, 0
3, 102657, Note_on_c, 1, 71, 0
3, 102660, Note_on_c, 1, 72, 80
3, 102690, Note_on_c, 1, 71, 80
3, 102695, Note_on_c, 1, 72, 0
3, 102705, Note_on_c, 1, 71, 0
3, 102720, Note_on_c, 1, 43, 93
3, 102720, Note_on_c, 1, 72, 102
3, 102750, Note_on_c, 1, 72, 0
3, 102750, Note_on_c, 1, 71, 93
3, 102780, Note_on_c, 1, 69, 93
3, 102781, Note_on_c, 1, 71, 0
3, 102801, Control_c, 1, 64, 127
3, 102806, Control_c, 1, 64, 0
3, 102810, Note_on_c, 1, 67, 89
3, 102815, Note_on_c, 1, 69, 0
3, 102827, Control_c, 1, 64, 127
3, 102840, Note_on_c, 1, 67, 0
3, 102840, Note_on_c, 1, 65, 80
3, 102843, Control_c, 1, 64, 0
3, 102868, Note_on_c, 1, 65, 0
3, 102870, Note_on_c, 1, 64, 89
3, 102873, Note_on_c, 1, 43, 0
3, 102900, Note_on_c, 1, 62, 80
3, 102906, Note_on_c, 1, 64, 0
3, 102929, Note_on_c, 1, 62, 0
3, 102930, Note_on_c, 1, 60, 85
3, 102957, Note_on_c, 1, 60, 0
3, 102960, Note_on_c, 1, 64, 85
3, 102989, Note_on_c, 1, 64, 0
3, 102990, Note_on_c, 1, 62, 89
3, 103020, Note_on_c, 1, 60, 80
3, 103023, Note_on_c, 1, 62, 0
3, 103050, Note_on_c, 1, 59, 93
3, 103053, Note_on_c, 1, 60, 0
3, 103080, Note_on_c, 1, 57, 85
3, 103081, Note_on_c, 1, 59, 0
3, 103109, Note_on_c, 1, 57, 0
3, 103110, Note_on_c, 1, 55, 85
3, 103130, Control_c, 1, 64, 127
3, 103140, Note_on_c, 1, 53, 76
3, 103141, Note_on_c, 1, 55, 0
3, 103170, Note_on_c, 1, 52, 93
3, 103171, Note_on_c, 1, 53, 0
3, 103187, Control_c, 1, 64, 0
3, 103195, Note_on_c, 1, 52, 0
3, 103200, Note_on_c, 1, 55, 89
3, 103200, Note_on_c, 1, 31, 85
3, 103200, Note_on_c, 1, 43, 72
3, 103210, Control_c, 1, 64, 127
3, 103240, Note_on_c, 1, 43, 0
3, 103244, Note_on_c, 1, 31, 0
3, 103260, Note_on_c, 1, 31, 85
3, 103260, Note_on_c, 1, 43, 72
3, 103295, Note_on_c, 1, 43, 0
3, 103295, Note_on_c, 1, 31, 0
3, 103316, Control_c, 1, 64, 0
3, 103320, Note_on_c, 1, 31, 89
3, 103320, Note_on_c, 1, 43, 76
3, 103331, Note_on_c, 1, 55, 0
3, 103333, Control_c, 1, 64, 127
3, 103356, Note_on_c, 1, 43, 0
3, 103359, Note_on_c, 1, 31, 0
3, 103380, Note_on_c, 1, 31, 76
3, 103380, Note_on_c, 1, 43, 72
3, 103399, Note_on_c, 1, 43, 0
3, 103399, Note_on_c, 1, 31, 0
3, 103431, Control_c, 1, 64, 0
3, 103440, Note_on_c, 1, 59, 93
3, 103440, Note_on_c, 1, 55, 93
3, 103440, Note_on_c, 1, 62, 93
3, 103440, Note_on_c, 1, 31, 85
3, 103440, Note_on_c, 1, 43, 76
3, 103459, Control_c, 1, 64, 127
3, 103479, Note_on_c, 1, 43, 0
3, 103482, Note_on_c, 1, 31, 0
3, 103500, Note_on_c, 1, 31, 89
3, 103500, Note_on_c, 1, 43, 76
3, 103519, Note_on_c, 1, 31, 0
3, 103520, Note_on_c, 1, 43, 0
3, 103560, Note_on_c, 1, 31, 85
3, 103560, Note_on_c, 1, 43, 76
3, 103582, Note_on_c, 1, 43, 0
3, 103582, Note_on_c, 1, 31, 0
3, 103620, Note_on_c, 1, 31, 72
3, 103620, Note_on_c, 1, 43, 72
3, 103633, Note_on_c, 1, 62, 0
3, 103633, Note_on_c, 1, 59, 0
3, 103635, Note_on_c, 1, 31, 0
3, 103636, Note_on_c, 1, 55, 0
3, 103646, Note_on_c, 1, 43, 0
3, 103677, Control_c, 1, 64, 0
3, 103680, Note_on_c, 1, 36, 56
3, 103709, Control_c, 1, 64, 127
3, 103740, Note_on_c, 1, 52, 53
3, 103800, Note_on_c, 1, 55, 53
3, 103800, Note_on_c, 1, 60, 43
3, 103806, Note_on_c, 1, 52, 0
3, 103807, Control_c, 1, 64, 0
3, 103808, Note_on_c, 1, 36, 0
3, 103830, Control_c, 1, 64, 127
3, 103860, Note_on_c, 1, 52, 43
3, 103868, Note_on_c, 1, 55, 0
3, 103896, Note_on_c, 1, 60, 0
3, 103897, Note_on_c, 1, 52, 0
3, 103920, Note_on_c, 1, 60, 50
3, 103920, Note_on_c, 1, 55, 53
3, 103933, Control_c, 1, 64, 0
3, 103952, Control_c, 1, 64, 127
3, 103978, Note_on_c, 1, 55, 0
3, 103980, Note_on_c, 1, 52, 33
3, 104018, Note_on_c, 1, 60, 0
3, 104019, Note_on_c, 1, 52, 0
3, 104040, Note_on_c, 1, 55, 50
3, 104040, Note_on_c, 1, 60, 50
3, 104046, Control_c, 1, 64, 0
3, 104067, Control_c, 1, 64, 127
3, 104097, Note_on_c, 1, 55, 0
3, 104100, Note_on_c, 1, 52, 43
3, 104149, Note_on_c, 1, 60, 0
3, 104153, Note_on_c, 1, 52, 0
3, 104160, Note_on_c, 1, 33, 43
3, 104160, Note_on_c, 1, 45, 44
3, 104165, Control_c, 1, 64, 0
3, 104192, Control_c, 1, 64, 127
3, 104220, Note_on_c, 1, 52, 50
3, 104247, Note_on_c, 1, 52, 0
3, 104280, Note_on_c, 1, 55, 50
3, 104280, Note_on_c, 1, 61, 50
3, 104280, Note_on_c, 1, 57, 59
3, 104287, Note_on_c, 1, 45, 0
3, 104288, Control_c, 1, 64, 0
3, 104290, Note_on_c, 1, 33, 0
3, 104309, Control_c, 1, 64, 127
3, 104340, Note_on_c, 1, 52, 53
3, 104345, Note_on_c, 1, 55, 0
3, 104377, Note_on_c, 1, 61, 0
3, 104377, Note_on_c, 1, 52, 0
3, 104379, Note_on_c, 1, 57, 0
3, 104400, Note_on_c, 1, 55, 50
3, 104400, Note_on_c, 1, 57, 53
3, 104400, Note_on_c, 1, 61, 44
3, 104407, Control_c, 1, 64, 0
3, 104429, Control_c, 1, 64, 127
3, 104455, Note_on_c, 1, 55, 0
3, 104460, Note_on_c, 1, 52, 44
3, 104486, Note_on_c, 1, 61, 0
3, 104487, Note_on_c, 1, 57, 0
3, 104496, Note_on_c, 1, 52, 0
3, 104520, Note_on_c, 1, 55, 53
3, 104520, Note_on_c, 1, 57, 56
3, 104520, Note_on_c, 1, 61, 50
3, 104523, Control_c, 1, 64, 0
3, 104545, Control_c, 1, 64, 127
3, 104580, Note_on_c, 1, 55, 0
3, 104580, Note_on_c, 1, 52, 53
3, 104628, Note_on_c, 1, 61, 0
3, 104629, Note_on_c, 1, 57, 0
3, 104630, Note_on_c, 1, 52, 0
3, 104640, Note_on_c, 1, 38, 62
3, 104641, Control_c, 1, 64, 0
3, 104666, Control_c, 1, 64, 127
3, 104700, Note_on_c, 1, 53, 50
3, 104733, Note_on_c, 1, 53, 0
3, 104755, Control_c, 1, 64, 0
3, 104760, Note_on_c, 1, 57, 59
3, 104760, Note_on_c, 1, 62, 62
3, 104773, Control_c, 1, 64, 127
3, 104815, Note_on_c, 1, 62, 0
3, 104818, Note_on_c, 1, 38, 0
3, 104819, Note_on_c, 1, 57, 0
3, 104820, Note_on_c, 1, 40, 56
3, 104820, Note_on_c, 1, 53, 56
3, 104821, Control_c, 1, 64, 0
3, 104839, Control_c, 1, 64, 127
3, 104850, Note_on_c, 1, 41, 56
3, 104852, Note_on_c, 1, 40, 0
3, 104855, Note_on_c, 1, 53, 0
3, 104879, Control_c, 1, 64, 0
3, 104880, Note_on_c, 1, 52, 59
3, 104880, Note_on_c, 1, 60, 53
3, 104880, Note_on_c, 1, 43, 59
3, 104883, Note_on_c, 1, 41, 0
3, 104906, Control_c, 1, 64, 127
3, 104934, Note_on_c, 1, 52, 0
3, 104934, Note_on_c, 1, 60, 0
3, 104940, Note_on_c, 1, 55, 56
3, 104943, Note_on_c, 1, 43, 0
3, 104950, Note_on_c, 1, 55, 0
3, 104980, Control_c, 1, 64, 0
3, 105000, Note_on_c, 1, 50, 59
3, 105000, Note_on_c, 1, 59, 59
3, 105000, Note_on_c, 1, 43, 53
3, 105017, Control_c, 1, 64, 127
3, 105060, Note_on_c, 1, 43, 0
3, 105060, Note_on_c, 1, 50, 0
3, 105060, Note_on_c, 1, 53, 56
3, 105062, Note_on_c, 1, 59, 0
3, 105072, Note_on_c, 1, 53, 0
3, 105111, Control_c, 1, 64, 0
3, 105120, Note_on_c, 1, 36, 56
3, 105132, Control_c, 1, 64, 127
3, 105180, Note_on_c, 1, 52, 50
3, 105195, Note_on_c, 1, 36, 0
3, 105225, Note_on_c, 1, 52, 0
3, 105240, Note_on_c, 1, 60, 56
3, 105240, Note_on_c, 1, 55, 59
3, 105245, Control_c, 1, 64, 0
3, 105266, Control_c, 1, 64, 127
3, 105300, Note_on_c, 1, 52, 43
3, 105302, Note_on_c, 1, 55, 0
3, 105330, Note_on_c, 1, 60, 0
3, 105332, Note_on_c, 1, 52, 0
3, 105360, Note_on_c, 1, 60, 56
3, 105360, Note_on_c, 1, 55, 53
3, 105362, Control_c, 1, 64, 0
3, 105381, Control_c, 1, 64, 127
3, 105420, Note_on_c, 1, 52, 42
3, 105424, Note_on_c, 1, 55, 0
3, 105428, Note_on_c, 1, 60, 0
3, 105446, Note_on_c, 1, 52, 0
3, 105480, Note_on_c, 1, 55, 56
3, 105480, Note_on_c, 1, 60, 44
3, 105480, Control_c, 1, 64, 0
3, 105498, Control_c, 1, 64, 127
3, 105531, Note_on_c, 1, 60, 0
3, 105538, Note_on_c, 1, 55, 0
3, 105540, Note_on_c, 1, 52, 53
3, 105558, Note_on_c, 1, 52, 0
3, 105593, Control_c, 1, 64, 0
3, 105600, Note_on_c, 1, 33, 53
3, 105600, Note_on_c, 1, 45, 47
3, 105615, Control_c, 1, 64, 127
3, 105660, Note_on_c, 1, 55, 53
3, 105719, Note_on_c, 1, 55, 0
3, 105720, Note_on_c, 1, 57, 59
3, 105720, Note_on_c, 1, 64, 53
3, 105720, Note_on_c, 1, 61, 53
3, 105720, Control_c, 1, 64, 0
3, 105729, Note_on_c, 1, 45, 0
3, 105733, Note_on_c, 1, 33, 0
3, 105739, Control_c, 1, 64, 127
3, 105780, Note_on_c, 1, 64, 0
3, 105780, Note_on_c, 1, 55, 56
3, 105781, Note_on_c, 1, 61, 0
3, 105783, Note_on_c, 1, 57, 0
3, 105808, Note_on_c, 1, 55, 0
3, 105840, Note_on_c, 1, 61, 53
3, 105840, Note_on_c, 1, 64, 59
3, 105840, Note_on_c, 1, 57, 56
3, 105846, Control_c, 1, 64, 0
3, 105864, Control_c, 1, 64, 127
3, 105898, Note_on_c, 1, 64, 0
3, 105899, Note_on_c, 1, 57, 0
3, 105900, Note_on_c, 1, 55, 53
3, 105901, Note_on_c, 1, 61, 0
3, 105923, Note_on_c, 1, 55, 0
3, 105959, Control_c, 1, 64, 0
3, 105960, Note_on_c, 1, 61, 50
3, 105960, Note_on_c, 1, 64, 53
3, 105960, Note_on_c, 1, 57, 53
3, 105977, Control_c, 1, 64, 127
3, 106014, Note_on_c, 1, 64, 0
3, 106016, Note_on_c, 1, 61, 0
3, 106018, Note_on_c, 1, 57, 0
3, 106020, Note_on_c, 1, 55, 53
3, 106048, Note_on_c, 1, 55, 0
3, 106075, Control_c, 1, 64, 0
3, 106080, Note_on_c, 1, 38, 65
3, 106097, Control_c, 1, 64, 127
3, 106140, Note_on_c, 1, 53, 59
3, 106194, Control_c, 1, 64, 0
3, 106199, Note_on_c, 1, 53, 0
3, 106200, Note_on_c, 1, 57, 62
3, 106200, Note_on_c, 1, 62, 56
3, 106212, Control_c, 1, 64, 127
3, 106256, Control_c, 1, 64, 0
3, 106257, Note_on_c, 1, 62, 0
3, 106258, Note_on_c, 1, 57, 0
3, 106260, Note_on_c, 1, 53, 59
3, 106260, Note_on_c, 1, 40, 56
3, 106261, Note_on_c, 1, 38, 0
3, 106273, Control_c, 1, 64, 127
3, 106290, Note_on_c, 1, 41, 50
3, 106293, Note_on_c, 1, 40, 0
3, 106293, Note_on_c, 1, 53, 0
3, 106318, Control_c, 1, 64, 0
3, 106320, Note_on_c, 1, 41, 0
3, 106320, Note_on_c, 1, 60, 62
3, 106320, Note_on_c, 1, 43, 59
3, 106320, Note_on_c, 1, 52, 59
3, 106343, Control_c, 1, 64, 127
3, 106376, Note_on_c, 1, 52, 0
3, 106376, Note_on_c, 1, 60, 0
3, 106380, Note_on_c, 1, 55, 53
3, 106385, Note_on_c, 1, 43, 0
3, 106390, Note_on_c, 1, 55, 0
3, 106412, Control_c, 1, 64, 0
3, 106440, Note_on_c, 1, 43, 42
3, 106440, Note_on_c, 1, 59, 59
3, 106440, Note_on_c, 1, 50, 56
3, 106444, Control_c, 1, 64, 127
3, 106500, Note_on_c, 1, 59, 0
3, 106500, Note_on_c, 1, 55, 53
3, 106512, Note_on_c, 1, 50, 0
3, 106514, Note_on_c, 1, 43, 0
3, 106518, Note_on_c, 1, 55, 0
3, 106553, Control_c, 1, 64, 0
3, 106560, Note_on_c, 1, 60, 93
3, 106560, Note_on_c, 1, 52, 93
3, 106560, Note_on_c, 1, 36, 85
3, 106575, Control_c, 1, 64, 127
3, 106658, Note_on_c, 1, 60, 0
3, 106659, Note_on_c, 1, 36, 0
3, 106663, Note_on_c, 1, 52, 0
3, 106663, Control_c, 1, 64, 0
3, 106920, Note_on_c, 1, 43, 102
3, 106920, Note_on_c, 1, 50, 107
3, 106920, Note_on_c, 1, 53, 113
3, 106920, Note_on_c, 1, 55, 107
3, 106920, Note_on_c, 1, 59, 113
3, 106942, Control_c, 1, 64, 127
3, 106993, Note_on_c, 1, 53, 0
3, 106993, Note_on_c, 1, 43, 0
3, 106993, Note_on_c, 1, 50, 0
3, 106995, Note_on_c, 1, 59, 0
3, 106996, Note_on_c, 1, 55, 0
3, 107033, Control_c, 1, 64, 0
3, 107040, Note_on_c, 1, 60, 98
3, 107040, Note_on_c, 1, 52, 102
3, 107040, Note_on_c, 1, 55, 93
3, 107040, Note_on_c, 1, 48, 93
3, 107040, Note_on_c, 1, 36, 98
3, 107063, Control_c, 1, 64, 127
3, 107155, Note_on_c, 1, 36, 0
3, 107155, Control_c, 1, 64, 0
3, 107156, Note_on_c, 1, 48, 0
3, 107157, Note_on_c, 1, 55, 0
3, 107158, Note_on_c, 1, 52, 0
3, 107160, Note_on_c, 1, 60, 0
3, 107400, Note_on_c, 1, 53, 107
3, 107400, Note_on_c, 1, 50, 113
3, 107400, Note_on_c, 1, 59, 107
3, 107400, Note_on_c, 1, 43, 93
3, 107400, Note_on_c, 1, 55, 93
3, 107412, Control_c, 1, 64, 127
3, 107457, Note_on_c, 1, 55, 0
3, 107457, Note_on_c, 1, 50, 0
3, 107458, Note_on_c, 1, 53, 0
3, 107459, Note_on_c, 1, 59, 0
3, 107466, Note_on_c, 1, 43, 0
3, 107512, Control_c, 1, 64, 0
3, 107520, Note_on_c, 1, 48, 85
3, 107520, Note_on_c, 1, 36, 98
3, 107520, Note_on_c, 1, 60, 113
3, 107535, Control_c, 1, 64, 127
3, 107550, Note_on_c, 1, 55, 76
3, 107551, Note_on_c, 1, 60, 0
3, 107557, Control_c, 1, 64, 0
3, 107580, Note_on_c, 1, 57, 98
3, 107583, Note_on_c, 1, 55, 0
3, 107597, Control_c, 1, 64, 127
3, 107608, Note_on_c, 1, 57, 0
3, 107610, Note_on_c, 1, 59, 98
3, 107632, Note_on_c, 1, 59, 0
3, 107636, Note_on_c, 1, 36, 0
3, 107638, Control_c, 1, 64, 0
3, 107639, Note_on_c, 1, 48, 0
3, 107640, Note_on_c, 1, 60, 98
3, 107669, Note_on_c, 1, 60, 0
3, 107670, Note_on_c, 1, 62, 98
3, 107689, Control_c, 1, 64, 127
3, 107697, Note_on_c, 1, 62, 0
3, 107700, Note_on_c, 1, 64, 93
3, 107727, Note_on_c, 1, 64, 0
3, 107730, Note_on_c, 1, 65, 89
3, 107747, Control_c, 1, 64, 0
3, 107756, Note_on_c, 1, 65, 0
3, 107760, Note_on_c, 1, 67, 89
3, 107760, Note_on_c, 1, 52, 98
3, 107774, Note_on_c, 1, 52, 0
3, 107790, Note_on_c, 1, 64, 85
3, 107793, Note_on_c, 1, 67, 0
3, 107816, Note_on_c, 1, 64, 0
3, 107820, Note_on_c, 1, 65, 89
3, 107820, Note_on_c, 1, 50, 107
3, 107833, Note_on_c, 1, 50, 0
3, 107850, Note_on_c, 1, 62, 85
3, 107851, Note_on_c, 1, 65, 0
3, 107874, Note_on_c, 1, 62, 0
3, 107880, Note_on_c, 1, 64, 93
3, 107880, Note_on_c, 1, 48, 113
3, 107901, Note_on_c, 1, 48, 0
3, 107909, Note_on_c, 1, 64, 0
3, 107910, Note_on_c, 1, 60, 72
3, 107935, Note_on_c, 1, 60, 0
3, 107940, Note_on_c, 1, 62, 89
3, 107940, Note_on_c, 1, 47, 107
3, 107954, Note_on_c, 1, 47, 0
3, 107970, Note_on_c, 1, 59, 85
3, 107973, Note_on_c, 1, 62, 0
3, 107997, Note_on_c, 1, 59, 0
3, 108000, Note_on_c, 1, 45, 98
3, 108000, Note_on_c, 1, 60, 93
3, 108019, Note_on_c, 1, 45, 0
3, 108030, Note_on_c, 1, 57, 68
3, 108036, Note_on_c, 1, 60, 0
3, 108050, Note_on_c, 1, 57, 0
3, 108060, Note_on_c, 1, 59, 98
3, 108060, Note_on_c, 1, 43, 89
3, 108077, Note_on_c, 1, 43, 0
3, 108090, Note_on_c, 1, 55, 76
3, 108093, Note_on_c, 1, 59, 0
3, 108108, Note_on_c, 1, 55, 0
3, 108120, Note_on_c, 1, 57, 102
3, 108120, Note_on_c, 1, 41, 93
3, 108142, Note_on_c, 1, 41, 0
3, 108150, Note_on_c, 1, 57, 0
3, 108150, Note_on_c, 1, 53, 80
3, 108163, Note_on_c, 1, 53, 0
3, 108180, Note_on_c, 1, 55, 98
3, 108180, Note_on_c, 1, 40, 89
3, 108200, Note_on_c, 1, 40, 0
3, 108210, Note_on_c, 1, 52, 93
3, 108213, Note_on_c, 1, 55, 0
3, 108222, Note_on_c, 1, 52, 0
3, 108240, Note_on_c, 1, 53, 102
3, 108240, Note_on_c, 1, 38, 98
3, 108267, Note_on_c, 1, 38, 0
3, 108270, Note_on_c, 1, 50, 93
3, 108275, Note_on_c, 1, 53, 0
3, 108293, Note_on_c, 1, 50, 0
3, 108300, Note_on_c, 1, 52, 89
3, 108300, Note_on_c, 1, 36, 93
3, 108330, Note_on_c, 1, 48, 89
3, 108333, Note_on_c, 1, 36, 0
3, 108335, Note_on_c, 1, 52, 0
3, 108343, Note_on_c, 1, 48, 0
3, 108360, Note_on_c, 1, 50, 102
3, 108360, Note_on_c, 1, 35, 93
3, 108390, Note_on_c, 1, 47, 93
3, 108391, Note_on_c, 1, 35, 0
3, 108391, Note_on_c, 1, 50, 0
3, 108404, Note_on_c, 1, 47, 0
3, 108420, Note_on_c, 1, 48, 93
3, 108420, Note_on_c, 1, 33, 93
3, 108450, Note_on_c, 1, 45, 85
3, 108456, Note_on_c, 1, 48, 0
3, 108464, Note_on_c, 1, 45, 0
3, 108468, Note_on_c, 1, 33, 0
3, 108480, Note_on_c, 1, 31, 98
3, 108480, Note_on_c, 1, 43, 102
3, 108510, Note_on_c, 1, 48, 93
3, 108516, Note_on_c, 1, 43, 0
3, 108531, Control_c, 1, 64, 127
3, 108539, Note_on_c, 1, 48, 0
3, 108540, Note_on_c, 1, 52, 85
3, 108570, Note_on_c, 1, 48, 93
3, 108571, Note_on_c, 1, 52, 0
3, 108595, Note_on_c, 1, 48, 0
3, 108600, Note_on_c, 1, 55, 93
3, 108602, Control_c, 1, 64, 0
3, 108606, Note_on_c, 1, 31, 0
3, 108630, Note_on_c, 1, 55, 0
3, 108630, Note_on_c, 1, 52, 89
3, 108637, Control_c, 1, 64, 127
3, 108657, Note_on_c, 1, 52, 0
3, 108660, Note_on_c, 1, 48, 85
3, 108687, Note_on_c, 1, 48, 0
3, 108690, Note_on_c, 1, 52, 93
3, 108700, Note_on_c, 1, 52, 0
3, 108714, Control_c, 1, 64, 0
3, 108720, Note_on_c, 1, 31, 98
3, 108720, Note_on_c, 1, 43, 107
3, 108747, Control_c, 1, 64, 127
3, 108750, Note_on_c, 1, 50, 89
3, 108755, Note_on_c, 1, 43, 0
3, 108778, Note_on_c, 1, 50, 0
3, 108780, Note_on_c, 1, 53, 89
3, 108808, Note_on_c, 1, 53, 0
3, 108810, Note_on_c, 1, 50, 89
3, 108824, Note_on_c, 1, 50, 0
3, 108828, Note_on_c, 1, 31, 0
3, 108840, Note_on_c, 1, 55, 102
3, 108844, Control_c, 1, 64, 0
3, 108867, Control_c, 1, 64, 127
3, 108868, Note_on_c, 1, 55, 0
3, 108870, Note_on_c, 1, 53, 89
3, 108898, Note_on_c, 1, 53, 0
3, 108900, Note_on_c, 1, 50, 89
3, 108930, Note_on_c, 1, 53, 93
3, 108932, Note_on_c, 1, 50, 0
3, 108948, Note_on_c, 1, 53, 0
3, 108950, Control_c, 1, 64, 0
3, 108960, Note_on_c, 1, 52, 113
3, 108960, Note_on_c, 1, 36, 89
3, 108971, Control_c, 1, 64, 127
3, 109012, Note_on_c, 1, 36, 0
3, 109015, Note_on_c, 1, 52, 0
3, 109052, Control_c, 1, 64, 0
3, 109080, Note_on_c, 1, 55, 113
3, 109080, Note_on_c, 1, 52, 113
3, 109080, Note_on_c, 1, 60, 107
3, 109080, Note_on_c, 1, 36, 107
3, 109080, Note_on_c, 1, 48, 107
3, 109089, Control_c, 1, 64, 127
3, 109162, Note_on_c, 1, 48, 0
3, 109163, Note_on_c, 1, 52, 0
3, 109163, Note_on_c, 1, 36, 0
3, 109165, Note_on_c, 1, 60, 0
3, 109167, Note_on_c, 1, 55, 0
3, 109188, Control_c, 1, 64, 0
3, 109200, Note_on_c, 1, 52, 113
3, 109200, Note_on_c, 1, 55, 107
3, 109200, Note_on_c, 1, 60, 102
3, 109200, Note_on_c, 1, 48, 89
3, 109200, Note_on_c, 1, 36, 98
3, 109212, Control_c, 1, 64, 127
3, 109320, Control_c, 1, 64, 0
3, 109324, Note_on_c, 1, 52, 0
3, 109325, Note_on_c, 1, 48, 0
3, 109325, Note_on_c, 1, 60, 0
3, 109326, Note_on_c, 1, 55, 0
3, 109327, Note_on_c, 1, 36, 0
3, 109920, Note_on_c, 1, 53, 93
3, 109982, Control_c, 1, 64, 127
3, 110036, Note_on_c, 1, 53, 0
3, 110040, Note_on_c, 1, 65, 89
3, 110045, Control_c, 1, 64, 0
3, 110083, Control_c, 1, 64, 127
3, 110160, Note_on_c, 1, 65, 0
3, 110160, Note_on_c, 1, 60, 89
3, 110169, Control_c, 1, 64, 0
3, 110198, Control_c, 1, 64, 127
3, 110280, Note_on_c, 1, 57, 80
3, 110282, Note_on_c, 1, 60, 0
3, 110285, Control_c, 1, 64, 0
3, 110316, Control_c, 1, 64, 127
3, 110399, Note_on_c, 1, 57, 0
3, 110400, Note_on_c, 1, 53, 89
3, 110403, Control_c, 1, 64, 0
3, 110432, Control_c, 1, 64, 127
3, 110492, Note_on_c, 1, 53, 0
3, 110506, Control_c, 1, 64, 0
3, 110640, Note_on_c, 1, 54, 72
3, 110640, Note_on_c, 1, 57, 93
3, 110640, Note_on_c, 1, 50, 80
3, 110653, Control_c, 1, 64, 127
3, 110710, Note_on_c, 1, 57, 0
3, 110710, Note_on_c, 1, 54, 0
3, 110716, Note_on_c, 1, 50, 0
3, 110758, Control_c, 1, 64, 0
3, 110760, Note_on_c, 1, 55, 85
3, 110760, Note_on_c, 1, 58, 76
3, 110760, Note_on_c, 1, 46, 80
3, 110780, Control_c, 1, 64, 127
3, 110812, Note_on_c, 1, 46, 0
3, 110812, Note_on_c, 1, 55, 0
3, 110814, Note_on_c, 1, 58, 0
3, 110820, Note_on_c, 1, 45, 80
3, 110820, Note_on_c, 1, 57, 93
3, 110820, Note_on_c, 1, 60, 85
3, 110821, Control_c, 1, 64, 0
3, 110840, Control_c, 1, 64, 127
3, 110855, Note_on_c, 1, 60, 0
3, 110857, Note_on_c, 1, 57, 0
3, 110877, Note_on_c, 1, 45, 0
3, 110878, Control_c, 1, 64, 0
3, 110880, Note_on_c, 1, 43, 85
3, 110880, Note_on_c, 1, 58, 68
3, 110880, Note_on_c, 1, 62, 80
3, 110896, Control_c, 1, 64, 127
3, 110908, Note_on_c, 1, 58, 0
3, 110915, Note_on_c, 1, 62, 0
3, 110932, Note_on_c, 1, 43, 0
3, 110933, Control_c, 1, 64, 0
3, 110940, Note_on_c, 1, 46, 85
3, 110940, Note_on_c, 1, 58, 72
3, 110940, Note_on_c, 1, 55, 85
3, 110950, Control_c, 1, 64, 127
3, 110959, Note_on_c, 1, 58, 0
3, 110982, Note_on_c, 1, 55, 0
3, 111000, Note_on_c, 1, 46, 0
3, 111000, Note_on_c, 1, 52, 89
3, 111000, Note_on_c, 1, 48, 76
3, 111000, Note_on_c, 1, 55, 80
3, 111002, Control_c, 1, 64, 0
3, 111024, Control_c, 1, 64, 127
3, 111060, Note_on_c, 1, 36, 85
3, 111061, Note_on_c, 1, 48, 0
3, 111095, Note_on_c, 1, 36, 0
3, 111116, Note_on_c, 1, 55, 0
3, 111119, Note_on_c, 1, 52, 0
3, 111120, Note_on_c, 1, 36, 85
3, 111165, Note_on_c, 1, 57, 80
3, 111165, Note_on_c, 1, 53, 72
3, 111176, Note_on_c, 1, 53, 0
3, 111178, Note_on_c, 1, 57, 0
3, 111178, Note_on_c, 1, 36, 0
3, 111180, Control_c, 1, 64, 0
3, 111180, Note_on_c, 1, 53, 80
3, 111180, Note_on_c, 1, 50, 89
3, 111180, Note_on_c, 1, 41, 72
3, 111201, Control_c, 1, 64, 127
3, 111206, Note_on_c, 1, 50, 0
3, 111211, Note_on_c, 1, 53, 0
3, 111225, Note_on_c, 1, 57, 76
3, 111225, Note_on_c, 1, 53, 62
3, 111228, Note_on_c, 1, 41, 0
3, 111239, Note_on_c, 1, 53, 0
3, 111240, Note_on_c, 1, 52, 72
3, 111240, Note_on_c, 1, 36, 80
3, 111240, Note_on_c, 1, 55, 89
3, 111241, Note_on_c, 1, 57, 0
3, 111242, Control_c, 1, 64, 0
3, 111262, Control_c, 1, 64, 127
3, 111293, Note_on_c, 1, 36, 0
3, 111297, Note_on_c, 1, 55, 0
3, 111301, Note_on_c, 1, 52, 0
3, 111331, Control_c, 1, 64, 0
3, 111360, Note_on_c, 1, 41, 80
3, 111360, Note_on_c, 1, 53, 98
3, 111373, Control_c, 1, 64, 127
3, 111479, Control_c, 1, 64, 0
3, 111480, Note_on_c, 1, 29, 98
3, 111483, Note_on_c, 1, 41, 0
3, 111497, Control_c, 1, 64, 127
3, 111530, Note_on_c, 1, 53, 0
3, 111534, Note_on_c, 1, 29, 0
3, 111540, Note_on_c, 1, 55, 93
3, 111558, Control_c, 1, 64, 0
3, 111570, Note_on_c, 1, 57, 93
3, 111574, Note_on_c, 1, 55, 0
3, 111600, Note_on_c, 1, 57, 0
3, 111600, Note_on_c, 1, 58, 76
3, 111629, Note_on_c, 1, 58, 0
3, 111630, Note_on_c, 1, 60, 89
3, 111660, Note_on_c, 1, 62, 85
3, 111662, Note_on_c, 1, 60, 0
3, 111685, Note_on_c, 1, 62, 0
3, 111690, Note_on_c, 1, 64, 89
3, 111718, Note_on_c, 1, 64, 0
3, 111720, Note_on_c, 1, 65, 93
3, 111750, Note_on_c, 1, 64, 72
3, 111754, Note_on_c, 1, 65, 0
3, 111780, Note_on_c, 1, 62, 89
3, 111786, Note_on_c, 1, 64, 0
3, 111800, Control_c, 1, 64, 127
3, 111805, Note_on_c, 1, 62, 0
3, 111810, Note_on_c, 1, 60, 64
3, 111822, Control_c, 1, 64, 0
3, 111840, Note_on_c, 1, 58, 60
3, 111847, Note_on_c, 1, 60, 0
3, 111870, Note_on_c, 1, 57, 76
3, 111875, Note_on_c, 1, 58, 0
3, 111900, Note_on_c, 1, 57, 0
3, 111900, Note_on_c, 1, 55, 59
3, 111930, Note_on_c, 1, 53, 68
3, 111934, Note_on_c, 1, 55, 0
3, 111960, Note_on_c, 1, 52, 68
3, 111961, Note_on_c, 1, 53, 0
3, 111982, Control_c, 1, 64, 127
3, 112016, Note_on_c, 1, 52, 0
3, 112043, Control_c, 1, 64, 0
3, 112080, Note_on_c, 1, 53, 72
3, 112104, Control_c, 1, 64, 127
3, 112140, Note_on_c, 1, 57, 89
3, 112143, Note_on_c, 1, 53, 0
3, 112196, Control_c, 1, 64, 0
3, 112200, Note_on_c, 1, 60, 85
3, 112201, Note_on_c, 1, 57, 0
3, 112226, Control_c, 1, 64, 127
3, 112289, Note_on_c, 1, 60, 0
3, 112320, Note_on_c, 1, 48, 80
3, 112320, Note_on_c, 1, 60, 76
3, 112321, Control_c, 1, 64, 0
3, 112348, Control_c, 1, 64, 127
3, 112423, Note_on_c, 1, 60, 0
3, 112425, Note_on_c, 1, 48, 0
3, 112440, Note_on_c, 1, 41, 85
3, 112440, Note_on_c, 1, 60, 80
3, 112441, Control_c, 1, 64, 0
3, 112471, Control_c, 1, 64, 127
3, 112620, Note_on_c, 1, 58, 72
3, 112623, Note_on_c, 1, 60, 0
3, 112631, Control_c, 1, 64, 0
3, 112635, Note_on_c, 1, 57, 76
3, 112638, Note_on_c, 1, 58, 0
3, 112650, Note_on_c, 1, 57, 0
3, 112650, Note_on_c, 1, 55, 68
3, 112665, Note_on_c, 1, 57, 72
3, 112674, Note_on_c, 1, 55, 0
3, 112680, Note_on_c, 1, 58, 93
3, 112682, Note_on_c, 1, 57, 0
3, 112693, Note_on_c, 1, 41, 0
3, 112737, Note_on_c, 1, 58, 0
3, 112740, Note_on_c, 1, 55, 89
3, 112799, Note_on_c, 1, 55, 0
3, 112800, Note_on_c, 1, 53, 72
3, 112827, Control_c, 1, 64, 127
3, 112920, Note_on_c, 1, 53, 0
3, 112920, Note_on_c, 1, 65, 80
3, 112928, Control_c, 1, 64, 0
3, 112953, Control_c, 1, 64, 127
3, 113040, Note_on_c, 1, 65, 0
3, 113040, Note_on_c, 1, 60, 72
3, 113047, Control_c, 1, 64, 0
3, 113069, Control_c, 1, 64, 127
3, 113160, Note_on_c, 1, 57, 76
3, 113161, Note_on_c, 1, 60, 0
3, 113164, Control_c, 1, 64, 0
3, 113188, Control_c, 1, 64, 127
3, 113274, Note_on_c, 1, 57, 0
3, 113280, Note_on_c, 1, 53, 68
3, 113282, Control_c, 1, 64, 0
3, 113305, Control_c, 1, 64, 127
3, 113350, Control_c, 1, 64, 0
3, 113362, Note_on_c, 1, 53, 0
3, 113520, Note_on_c, 1, 54, 60
3, 113520, Note_on_c, 1, 57, 76
3, 113520, Note_on_c, 1, 50, 59
3, 113526, Control_c, 1, 64, 127
3, 113588, Note_on_c, 1, 57, 0
3, 113593, Note_on_c, 1, 54, 0
3, 113601, Note_on_c, 1, 50, 0
3, 113640, Note_on_c, 1, 55, 72
3, 113640, Note_on_c, 1, 58, 62
3, 113640, Note_on_c, 1, 46, 72
3, 113641, Control_c, 1, 64, 0
3, 113659, Control_c, 1, 64, 127
3, 113690, Note_on_c, 1, 55, 0
3, 113691, Note_on_c, 1, 58, 0
3, 113693, Note_on_c, 1, 46, 0
3, 113698, Control_c, 1, 64, 0
3, 113700, Note_on_c, 1, 45, 62
3, 113700, Note_on_c, 1, 60, 72
3, 113700, Note_on_c, 1, 57, 72
3, 113716, Control_c, 1, 64, 127
3, 113737, Note_on_c, 1, 60, 0
3, 113743, Note_on_c, 1, 57, 0
3, 113754, Note_on_c, 1, 45, 0
3, 113759, Control_c, 1, 64, 0
3, 113760, Note_on_c, 1, 58, 57
3, 113760, Note_on_c, 1, 43, 56
3, 113760, Note_on_c, 1, 62, 76
3, 113778, Control_c, 1, 64, 127
3, 113798, Note_on_c, 1, 58, 0
3, 113801, Note_on_c, 1, 62, 0
3, 113817, Note_on_c, 1, 43, 0
3, 113819, Control_c, 1, 64, 0
3, 113820, Note_on_c, 1, 58, 62
3, 113820, Note_on_c, 1, 46, 64
3, 113820, Note_on_c, 1, 55, 68
3, 113833, Control_c, 1, 64, 127
3, 113849, Note_on_c, 1, 58, 0
3, 113859, Note_on_c, 1, 55, 0
3, 113879, Note_on_c, 1, 46, 0
3, 113880, Note_on_c, 1, 55, 64
3, 113880, Note_on_c, 1, 48, 59
3, 113880, Note_on_c, 1, 52, 76
3, 113882, Control_c, 1, 64, 0
3, 113903, Control_c, 1, 64, 127
3, 113933, Note_on_c, 1, 48, 0
3, 113940, Note_on_c, 1, 36, 60
3, 113962, Note_on_c, 1, 36, 0
3, 113991, Note_on_c, 1, 55, 0
3, 113993, Note_on_c, 1, 52, 0
3, 114000, Note_on_c, 1, 36, 85
3, 114044, Note_on_c, 1, 36, 0
3, 114045, Note_on_c, 1, 57, 62
3, 114045, Note_on_c, 1, 53, 56
3, 114056, Note_on_c, 1, 53, 0
3, 114056, Note_on_c, 1, 57, 0
3, 114057, Control_c, 1, 64, 0
3, 114060, Note_on_c, 1, 53, 62
3, 114060, Note_on_c, 1, 50, 62
3, 114060, Note_on_c, 1, 41, 64
3, 114076, Control_c, 1, 64, 127
3, 114087, Note_on_c, 1, 53, 0
3, 114088, Note_on_c, 1, 50, 0
3, 114105, Note_on_c, 1, 53, 55
3, 114105, Note_on_c, 1, 57, 62
3, 114109, Note_on_c, 1, 41, 0
3, 114118, Note_on_c, 1, 53, 0
3, 114120, Note_on_c, 1, 57, 0
3, 114120, Note_on_c, 1, 52, 76
3, 114120, Note_on_c, 1, 55, 76
3, 114120, Note_on_c, 1, 36, 72
3, 114121, Control_c, 1, 64, 0
3, 114141, Control_c, 1, 64, 127
3, 114174, Note_on_c, 1, 36, 0
3, 114181, Note_on_c, 1, 52, 0
3, 114184, Note_on_c, 1, 55, 0
3, 114211, Control_c, 1, 64, 0
3, 114240, Note_on_c, 1, 41, 72
3, 114240, Note_on_c, 1, 53, 76
3, 114254, Control_c, 1, 64, 127
3, 114356, Control_c, 1, 64, 0
3, 114357, Note_on_c, 1, 41, 0
3, 114360, Note_on_c, 1, 29, 85
3, 114374, Control_c, 1, 64, 127
3, 114407, Note_on_c, 1, 53, 0
3, 114420, Note_on_c, 1, 55, 80
3, 114424, Note_on_c, 1, 29, 0
3, 114434, Control_c, 1, 64, 0
3, 114450, Note_on_c, 1, 57, 80
3, 114458, Note_on_c, 1, 55, 0
3, 114480, Note_on_c, 1, 58, 68
3, 114481, Note_on_c, 1, 57, 0
3, 114508, Note_on_c, 1, 58, 0
3, 114510, Note_on_c, 1, 60, 85
3, 114540, Note_on_c, 1, 62, 76
3, 114542, Note_on_c, 1, 60, 0
3, 114568, Note_on_c, 1, 62, 0
3, 114570, Note_on_c, 1, 64, 80
3, 114600, Note_on_c, 1, 64, 0
3, 114600, Note_on_c, 1, 65, 76
3, 114630, Note_on_c, 1, 64, 56
3, 114632, Note_on_c, 1, 65, 0
3, 114660, Note_on_c, 1, 62, 72
3, 114667, Note_on_c, 1, 64, 0
3, 114689, Note_on_c, 1, 62, 0
3, 114690, Note_on_c, 1, 60, 72
3, 114693, Control_c, 1, 64, 127
3, 114710, Control_c, 1, 64, 0
3, 114717, Note_on_c, 1, 60, 0
3, 114720, Note_on_c, 1, 58, 59
3, 114750, Note_on_c, 1, 57, 76
3, 114755, Note_on_c, 1, 58, 0
3, 114780, Note_on_c, 1, 57, 0
3, 114780, Note_on_c, 1, 55, 68
3, 114810, Note_on_c, 1, 55, 0
3, 114810, Note_on_c, 1, 53, 72
3, 114837, Note_on_c, 1, 53, 0
3, 114840, Note_on_c, 1, 52, 72
3, 114860, Control_c, 1, 64, 127
3, 114902, Note_on_c, 1, 52, 0
3, 114951, Control_c, 1, 64, 0
3, 114960, Note_on_c, 1, 53, 72
3, 114985, Control_c, 1, 64, 127
3, 115019, Note_on_c, 1, 53, 0
3, 115020, Note_on_c, 1, 57, 80
3, 115072, Control_c, 1, 64, 0
3, 115080, Note_on_c, 1, 60, 76
3, 115082, Note_on_c, 1, 57, 0
3, 115104, Control_c, 1, 64, 127
3, 115172, Note_on_c, 1, 60, 0
3, 115200, Note_on_c, 1, 60, 72
3, 115200, Note_on_c, 1, 48, 68
3, 115203, Control_c, 1, 64, 0
3, 115231, Control_c, 1, 64, 127
3, 115285, Note_on_c, 1, 60, 0
3, 115294, Note_on_c, 1, 48, 0
3, 115320, Note_on_c, 1, 60, 76
3, 115320, Note_on_c, 1, 41, 62
3, 115324, Control_c, 1, 64, 0
3, 115352, Control_c, 1, 64, 127
3, 115470, Note_on_c, 1, 60, 0
3, 115485, Note_on_c, 1, 41, 0
3, 115500, Control_c, 1, 64, 0
3, 115500, Note_on_c, 1, 60, 80
3, 115500, Note_on_c, 1, 48, 76
3, 115521, Control_c, 1, 64, 127
3, 115559, Note_on_c, 1, 60, 0
3, 115560, Note_on_c, 1, 45, 89
3, 115560, Note_on_c, 1, 57, 89
3, 115561, Note_on_c, 1, 48, 0
3, 115565, Control_c, 1, 64, 0
3, 115584, Control_c, 1, 64, 127
3, 115615, Note_on_c, 1, 57, 0
3, 115620, Note_on_c, 1, 41, 80
3, 115620, Note_on_c, 1, 53, 85
3, 115621, Note_on_c, 1, 45, 0
3, 115642, Note_on_c, 1, 41, 0
3, 115651, Note_on_c, 1, 53, 0
3, 115678, Control_c, 1, 64, 0
3, 115680, Note_on_c, 1, 48, 80
3, 115680, Note_on_c, 1, 36, 80
3, 115704, Control_c, 1, 64, 127
3, 115740, Note_on_c, 1, 52, 93
3, 115800, Note_on_c, 1, 52, 0
3, 115800, Note_on_c, 1, 58, 72
3, 115800, Note_on_c, 1, 60, 89
3, 115859, Note_on_c, 1, 60, 0
3, 115860, Note_on_c, 1, 52, 80
3, 115863, Note_on_c, 1, 58, 0
3, 115883, Note_on_c, 1, 52, 0
3, 115920, Note_on_c, 1, 48, 0
3, 115920, Note_on_c, 1, 53, 85
3, 115920, Note_on_c, 1, 60, 89
3, 115923, Control_c, 1, 64, 0
3, 115953, Control_c, 1, 64, 127
3, 115980, Note_on_c, 1, 57, 85
3, 115981, Note_on_c, 1, 53, 0
3, 115996, Note_on_c, 1, 36, 0
3, 115997, Note_on_c, 1, 60, 0
3, 116006, Note_on_c, 1, 57, 0
3, 116040, Note_on_c, 1, 36, 85
3, 116040, Note_on_c, 1, 48, 72
3, 116047, Control_c, 1, 64, 0
3, 116081, Control_c, 1, 64, 127
3, 116100, Note_on_c, 1, 52, 89
3, 116158, Note_on_c, 1, 52, 0
3, 116160, Note_on_c, 1, 58, 68
3, 116160, Note_on_c, 1, 60, 76
3, 116162, Control_c, 1, 64, 0
3, 116182, Control_c, 1, 64, 127
3, 116220, Note_on_c, 1, 52, 80
3, 116226, Note_on_c, 1, 58, 0
3, 116241, Note_on_c, 1, 60, 0
3, 116245, Note_on_c, 1, 52, 0
3, 116280, Note_on_c, 1, 53, 72
3, 116280, Note_on_c, 1, 60, 89
3, 116282, Control_c, 1, 64, 0
3, 116305, Control_c, 1, 64, 127
3, 116335, Note_on_c, 1, 60, 0
3, 116340, Note_on_c, 1, 53, 0
3, 116340, Note_on_c, 1, 57, 93
3, 116354, Note_on_c, 1, 48, 0
3, 116357, Note_on_c, 1, 36, 0
3, 116369, Note_on_c, 1, 57, 0
3, 116400, Note_on_c, 1, 36, 85
3, 116400, Note_on_c, 1, 48, 76
3, 116400, Control_c, 1, 64, 0
3, 116425, Control_c, 1, 64, 127
3, 116460, Note_on_c, 1, 52, 80
3, 116460, Note_on_c, 1, 55, 72
3, 116513, Note_on_c, 1, 52, 0
3, 116520, Note_on_c, 1, 60, 89
3, 116558, Note_on_c, 1, 60, 0
3, 116564, Note_on_c, 1, 55, 0
3, 116580, Note_on_c, 1, 53, 76
3, 116580, Note_on_c, 1, 60, 89
3, 116582, Control_c, 1, 64, 0
3, 116601, Control_c, 1, 64, 127
3, 116618, Note_on_c, 1, 60, 0
3, 116621, Note_on_c, 1, 53, 0
3, 116640, Note_on_c, 1, 58, 68
3, 116640, Note_on_c, 1, 52, 89
3, 116640, Note_on_c, 1, 60, 80
3, 116641, Control_c, 1, 64, 0
3, 116657, Control_c, 1, 64, 127
3, 116676, Note_on_c, 1, 52, 0
3, 116679, Note_on_c, 1, 60, 0
3, 116682, Note_on_c, 1, 58, 0
3, 116695, Control_c, 1, 64, 0
3, 116700, Note_on_c, 1, 57, 76
3, 116700, Note_on_c, 1, 53, 72
3, 116700, Note_on_c, 1, 60, 76
3, 116711, Control_c, 1, 64, 127
3, 116721, Note_on_c, 1, 48, 0
3, 116723, Note_on_c, 1, 36, 0
3, 116749, Note_on_c, 1, 57, 0
3, 116753, Note_on_c, 1, 53, 0
3, 116756, Note_on_c, 1, 60, 0
3, 116760, Control_c, 1, 64, 0
3, 116760, Note_on_c, 1, 36, 76
3, 116760, Note_on_c, 1, 48, 76
3, 116783, Control_c, 1, 64, 127
3, 116820, Note_on_c, 1, 53, 85
3, 116820, Note_on_c, 1, 60, 89
3, 116820, Control_c, 1, 64, 0
3, 116838, Control_c, 1, 64, 127
3, 116867, Note_on_c, 1, 36, 0
3, 116875, Note_on_c, 1, 48, 0
3, 116880, Note_on_c, 1, 60, 0
3, 116880, Note_on_c, 1, 52, 98
3, 116884, Note_on_c, 1, 53, 0
3, 116884, Control_c, 1, 64, 0
3, 116900, Control_c, 1, 64, 127
3, 116933, Note_on_c, 1, 52, 0
3, 116940, Note_on_c, 1, 60, 89
3, 116946, Control_c, 1, 64, 0
3, 116970, Control_c, 1, 64, 127
3, 117000, Note_on_c, 1, 55, 76
3, 117002, Note_on_c, 1, 60, 0
3, 117002, Control_c, 1, 64, 0
3, 117021, Control_c, 1, 64, 127
3, 117056, Note_on_c, 1, 55, 0
3, 117060, Note_on_c, 1, 52, 80
3, 117101, Note_on_c, 1, 52, 0
3, 117120, Note_on_c, 1, 48, 76
3, 117124, Control_c, 1, 64, 0
3, 117150, Note_on_c, 1, 55, 89
3, 117155, Control_c, 1, 64, 127
3, 117175, Note_on_c, 1, 55, 0
3, 117180, Note_on_c, 1, 58, 72
3, 117205, Note_on_c, 1, 58, 0
3, 117210, Note_on_c, 1, 60, 76
3, 117235, Control_c, 1, 64, 0
3, 117236, Note_on_c, 1, 60, 0
3, 117240, Note_on_c, 1, 64, 80
3, 117254, Control_c, 1, 64, 127
3, 117270, Note_on_c, 1, 60, 76
3, 117271, Note_on_c, 1, 64, 0
3, 117292, Note_on_c, 1, 60, 0
3, 117297, Note_on_c, 1, 48, 0
3, 117300, Note_on_c, 1, 58, 80
3, 117300, Note_on_c, 1, 36, 85
3, 117300, Control_c, 1, 64, 0
3, 117318, Control_c, 1, 64, 127
3, 117330, Note_on_c, 1, 55, 76
3, 117332, Note_on_c, 1, 58, 0
3, 117348, Note_on_c, 1, 55, 0
3, 117358, Note_on_c, 1, 36, 0
3, 117358, Control_c, 1, 64, 0
3, 117360, Note_on_c, 1, 41, 93
3, 117360, Note_on_c, 1, 65, 80
3, 117380, Control_c, 1, 64, 127
3, 117388, Note_on_c, 1, 65, 0
3, 117390, Note_on_c, 1, 60, 72
3, 117410, Note_on_c, 1, 60, 0
3, 117412, Control_c, 1, 64, 0
3, 117415, Note_on_c, 1, 41, 0
3, 117420, Note_on_c, 1, 57, 89
3, 117420, Note_on_c, 1, 45, 93
3, 117432, Control_c, 1, 64, 127
3, 117450, Note_on_c, 1, 53, 72
3, 117453, Note_on_c, 1, 57, 0
3, 117468, Note_on_c, 1, 53, 0
3, 117480, Note_on_c, 1, 48, 93
3, 117481, Note_on_c, 1, 45, 0
3, 117484, Control_c, 1, 64, 0
3, 117510, Note_on_c, 1, 55, 72
3, 117511, Control_c, 1, 64, 127
3, 117533, Note_on_c, 1, 55, 0
3, 117540, Note_on_c, 1, 58, 72
3, 117561, Note_on_c, 1, 58, 0
3, 117570, Note_on_c, 1, 60, 80
3, 117591, Note_on_c, 1, 60, 0
3, 117600, Note_on_c, 1, 64, 76
3, 117627, Note_on_c, 1, 64, 0
3, 117630, Note_on_c, 1, 60, 59
3, 117646, Note_on_c, 1, 48, 0
3, 117647, Note_on_c, 1, 60, 0
3, 117655, Control_c, 1, 64, 0
3, 117660, Note_on_c, 1, 58, 76
3, 117660, Note_on_c, 1, 36, 93
3, 117675, Control_c, 1, 64, 127
3, 117690, Note_on_c, 1, 55, 80
3, 117692, Note_on_c, 1, 58, 0
3, 117709, Note_on_c, 1, 55, 0
3, 117716, Note_on_c, 1, 36, 0
3, 117720, Note_on_c, 1, 41, 85
3, 117720, Note_on_c, 1, 65, 85
3, 117720, Control_c, 1, 64, 0
3, 117742, Control_c, 1, 64, 127
3, 117750, Note_on_c, 1, 60, 89
3, 117753, Note_on_c, 1, 65, 0
3, 117775, Note_on_c, 1, 60, 0
3, 117780, Note_on_c, 1, 57, 76
3, 117780, Note_on_c, 1, 45, 89
3, 117787, Note_on_c, 1, 41, 0
3, 117808, Note_on_c, 1, 57, 0
3, 117810, Note_on_c, 1, 53, 59
3, 117825, Note_on_c, 1, 53, 0
3, 117836, Note_on_c, 1, 45, 0
3, 117839, Control_c, 1, 64, 0
3, 117840, Note_on_c, 1, 48, 93
3, 117864, Control_c, 1, 64, 127
3, 117870, Note_on_c, 1, 52, 68
3, 117895, Note_on_c, 1, 52, 0
3, 117897, Note_on_c, 1, 48, 0
3, 117900, Note_on_c, 1, 55, 80
3, 117911, Control_c, 1, 64, 0
3, 117929, Note_on_c, 1, 55, 0
3, 117930, Note_on_c, 1, 60, 76
3, 117933, Control_c, 1, 64, 127
3, 117949, Note_on_c, 1, 60, 0
3, 117960, Note_on_c, 1, 41, 93
3, 117965, Control_c, 1, 64, 0
3, 117990, Note_on_c, 1, 50, 62
3, 117997, Control_c, 1, 64, 127
3, 118013, Note_on_c, 1, 50, 0
3, 118013, Note_on_c, 1, 41, 0
3, 118013, Control_c, 1, 64, 0
3, 118020, Note_on_c, 1, 57, 76
3, 118050, Note_on_c, 1, 57, 0
3, 118050, Note_on_c, 1, 60, 64
3, 118053, Control_c, 1, 64, 127
3, 118071, Note_on_c, 1, 60, 0
3, 118080, Control_c, 1, 64, 0
3, 118080, Note_on_c, 1, 43, 93
3, 118110, Note_on_c, 1, 53, 76
3, 118114, Control_c, 1, 64, 127
3, 118129, Note_on_c, 1, 53, 0
3, 118130, Control_c, 1, 64, 0
3, 118135, Note_on_c, 1, 43, 0
3, 118140, Note_on_c, 1, 55, 68
3, 118161, Control_c, 1, 64, 127
3, 118167, Note_on_c, 1, 55, 0
3, 118170, Note_on_c, 1, 62, 76
3, 118190, Note_on_c, 1, 62, 0
3, 118200, Note_on_c, 1, 45, 102
3, 118202, Control_c, 1, 64, 0
3, 118230, Note_on_c, 1, 53, 72
3, 118251, Note_on_c, 1, 53, 0
3, 118256, Control_c, 1, 64, 127
3, 118260, Note_on_c, 1, 60, 76
3, 118273, Note_on_c, 1, 45, 0
3, 118283, Note_on_c, 1, 60, 0
3, 118290, Note_on_c, 1, 64, 89
3, 118308, Note_on_c, 1, 64, 0
3, 118316, Control_c, 1, 64, 0
3, 118320, Note_on_c, 1, 41, 89
3, 118350, Note_on_c, 1, 57, 68
3, 118370, Control_c, 1, 64, 127
3, 118373, Note_on_c, 1, 57, 0
3, 118380, Note_on_c, 1, 62, 85
3, 118384, Note_on_c, 1, 41, 0
3, 118405, Note_on_c, 1, 62, 0
3, 118410, Note_on_c, 1, 65, 89
3, 118424, Note_on_c, 1, 65, 0
3, 118428, Control_c, 1, 64, 0
3, 118440, Note_on_c, 1, 43, 93
3, 118468, Control_c, 1, 64, 127
3, 118470, Note_on_c, 1, 53, 76
3, 118494, Note_on_c, 1, 53, 0
3, 118500, Note_on_c, 1, 55, 76
3, 118503, Note_on_c, 1, 43, 0
3, 118524, Note_on_c, 1, 55, 0
3, 118530, Note_on_c, 1, 62, 80
3, 118547, Note_on_c, 1, 62, 0
3, 118553, Control_c, 1, 64, 0
3, 118560, Note_on_c, 1, 45, 93
3, 118583, Control_c, 1, 64, 127
3, 118590, Note_on_c, 1, 52, 76
3, 118610, Note_on_c, 1, 52, 0
3, 118620, Note_on_c, 1, 60, 72
3, 118621, Note_on_c, 1, 45, 0
3, 118646, Note_on_c, 1, 60, 0
3, 118650, Note_on_c, 1, 64, 80
3, 118666, Note_on_c, 1, 64, 0
3, 118672, Control_c, 1, 64, 0
3, 118680, Note_on_c, 1, 41, 93
3, 118703, Control_c, 1, 64, 127
3, 118710, Note_on_c, 1, 57, 80
3, 118728, Note_on_c, 1, 41, 0
3, 118732, Note_on_c, 1, 57, 0
3, 118740, Note_on_c, 1, 62, 80
3, 118763, Note_on_c, 1, 62, 0
3, 118766, Control_c, 1, 64, 0
3, 118770, Note_on_c, 1, 65, 80
3, 118797, Note_on_c, 1, 65, 0
3, 118800, Note_on_c, 1, 43, 107
3, 118817, Control_c, 1, 64, 127
3, 118830, Note_on_c, 1, 53, 72
3, 118836, Note_on_c, 1, 43, 0
3, 118851, Note_on_c, 1, 53, 0
3, 118854, Control_c, 1, 64, 0
3, 118860, Note_on_c, 1, 55, 76
3, 118889, Note_on_c, 1, 55, 0
3, 118890, Note_on_c, 1, 62, 89
3, 118911, Note_on_c, 1, 62, 0
3, 118920, Note_on_c, 1, 36, 93
3, 118920, Note_on_c, 1, 60, 93
3, 118920, Note_on_c, 1, 55, 89
3, 118920, Note_on_c, 1, 52, 89
3, 118941, Control_c, 1, 64, 127
3, 119038, Note_on_c, 1, 52, 0
3, 119040, Note_on_c, 1, 55, 0
3, 119042, Note_on_c, 1, 36, 0
3, 119042, Control_c, 1, 64, 0
3, 119043, Note_on_c, 1, 60, 0
3, 119640, Note_on_c, 1, 53, 85
3, 119661, Control_c, 1, 64, 127
3, 119760, Note_on_c, 1, 53, 0
3, 119760, Note_on_c, 1, 65, 89
3, 119765, Control_c, 1, 64, 0
3, 119799, Control_c, 1, 64, 127
3, 119879, Note_on_c, 1, 65, 0
3, 119880, Note_on_c, 1, 60, 85
3, 119884, Control_c, 1, 64, 0
3, 119917, Control_c, 1, 64, 127
3, 120000, Note_on_c, 1, 57, 85
3, 120004, Note_on_c, 1, 60, 0
3, 120006, Control_c, 1, 64, 0
3, 120036, Control_c, 1, 64, 127
3, 120118, Note_on_c, 1, 57, 0
3, 120119, Control_c, 1, 64, 0
3, 120120, Note_on_c, 1, 53, 76
3, 120145, Control_c, 1, 64, 127
3, 120188, Note_on_c, 1, 53, 0
3, 120214, Control_c, 1, 64, 0
3, 120360, Note_on_c, 1, 57, 93
3, 120360, Note_on_c, 1, 54, 76
3, 120360, Note_on_c, 1, 50, 89
3, 120369, Control_c, 1, 64, 127
3, 120421, Note_on_c, 1, 57, 0
3, 120424, Note_on_c, 1, 54, 0
3, 120431, Note_on_c, 1, 50, 0
3, 120480, Note_on_c, 1, 55, 89
3, 120480, Note_on_c, 1, 58, 76
3, 120480, Note_on_c, 1, 46, 76
3, 120481, Control_c, 1, 64, 0
3, 120501, Control_c, 1, 64, 127
3, 120530, Note_on_c, 1, 55, 0
3, 120531, Note_on_c, 1, 46, 0
3, 120531, Note_on_c, 1, 58, 0
3, 120540, Note_on_c, 1, 45, 76
3, 120540, Note_on_c, 1, 57, 89
3, 120540, Note_on_c, 1, 60, 85
3, 120542, Control_c, 1, 64, 0
3, 120559, Control_c, 1, 64, 127
3, 120586, Note_on_c, 1, 60, 0
3, 120589, Note_on_c, 1, 57, 0
3, 120597, Note_on_c, 1, 45, 0
3, 120600, Note_on_c, 1, 43, 76
3, 120600, Note_on_c, 1, 58, 76
3, 120600, Note_on_c, 1, 62, 93
3, 120603, Control_c, 1, 64, 0
3, 120622, Control_c, 1, 64, 127
3, 120635, Note_on_c, 1, 58, 0
3, 120641, Note_on_c, 1, 62, 0
3, 120654, Note_on_c, 1, 43, 0
3, 120655, Control_c, 1, 64, 0
3, 120660, Note_on_c, 1, 58, 76
3, 120660, Note_on_c, 1, 46, 85
3, 120660, Note_on_c, 1, 55, 85
3, 120670, Control_c, 1, 64, 127
3, 120696, Note_on_c, 1, 55, 0
3, 120705, Note_on_c, 1, 58, 0
3, 120715, Control_c, 1, 64, 0
3, 120716, Note_on_c, 1, 46, 0
3, 120720, Note_on_c, 1, 48, 72
3, 120720, Note_on_c, 1, 52, 80
3, 120720, Note_on_c, 1, 55, 85
3, 120735, Control_c, 1, 64, 127
3, 120780, Note_on_c, 1, 36, 85
3, 120782, Note_on_c, 1, 48, 0
3, 120807, Note_on_c, 1, 36, 0
3, 120826, Note_on_c, 1, 55, 0
3, 120837, Note_on_c, 1, 52, 0
3, 120840, Note_on_c, 1, 36, 85
3, 120885, Note_on_c, 1, 36, 0
3, 120885, Note_on_c, 1, 57, 62
3, 120885, Note_on_c, 1, 53, 72
3, 120894, Control_c, 1, 64, 0
3, 120897, Note_on_c, 1, 53, 0
3, 120897, Note_on_c, 1, 57, 0
3, 120900, Note_on_c, 1, 53, 80
3, 120900, Note_on_c, 1, 41, 80
3, 120900, Note_on_c, 1, 50, 85
3, 120913, Control_c, 1, 64, 127
3, 120926, Note_on_c, 1, 50, 0
3, 120929, Note_on_c, 1, 53, 0
3, 120945, Note_on_c, 1, 53, 64
3, 120945, Note_on_c, 1, 57, 76
3, 120954, Note_on_c, 1, 41, 0
3, 120954, Control_c, 1, 64, 0
3, 120958, Note_on_c, 1, 57, 0
3, 120958, Note_on_c, 1, 53, 0
3, 120960, Note_on_c, 1, 36, 80
3, 120960, Note_on_c, 1, 52, 80
3, 120960, Note_on_c, 1, 55, 89
3, 120975, Control_c, 1, 64, 127
3, 121016, Note_on_c, 1, 36, 0
3, 121019, Note_on_c, 1, 55, 0
3, 121020, Note_on_c, 1, 52, 0
3, 121051, Control_c, 1, 64, 0
3, 121080, Note_on_c, 1, 41, 76
3, 121080, Note_on_c, 1, 53, 102
3, 121094, Control_c, 1, 64, 127
3, 121195, Control_c, 1, 64, 0
3, 121196, Note_on_c, 1, 41, 0
3, 121200, Note_on_c, 1, 29, 89
3, 121212, Control_c, 1, 64, 127
3, 121248, Note_on_c, 1, 53, 0
3, 121260, Note_on_c, 1, 55, 85
3, 121262, Note_on_c, 1, 29, 0
3, 121270, Control_c, 1, 64, 0
3, 121290, Note_on_c, 1, 57, 93
3, 121295, Note_on_c, 1, 55, 0
3, 121319, Note_on_c, 1, 57, 0
3, 121320, Note_on_c, 1, 58, 76
3, 121347, Note_on_c, 1, 58, 0
3, 121350, Note_on_c, 1, 60, 89
3, 121380, Note_on_c, 1, 60, 0
3, 121380, Note_on_c, 1, 62, 89
3, 121407, Note_on_c, 1, 62, 0
3, 121410, Note_on_c, 1, 64, 89
3, 121437, Note_on_c, 1, 64, 0
3, 121440, Note_on_c, 1, 65, 89
3, 121470, Note_on_c, 1, 64, 76
3, 121475, Note_on_c, 1, 65, 0
3, 121500, Note_on_c, 1, 62, 76
3, 121505, Note_on_c, 1, 64, 0
3, 121529, Note_on_c, 1, 62, 0
3, 121530, Note_on_c, 1, 60, 89
3, 121560, Note_on_c, 1, 58, 80
3, 121561, Note_on_c, 1, 60, 0
3, 121590, Note_on_c, 1, 57, 80
3, 121591, Note_on_c, 1, 58, 0
3, 121620, Note_on_c, 1, 55, 76
3, 121623, Note_on_c, 1, 57, 0
3, 121649, Note_on_c, 1, 55, 0
3, 121650, Note_on_c, 1, 53, 76
3, 121680, Note_on_c, 1, 52, 80
3, 121681, Note_on_c, 1, 53, 0
3, 121701, Control_c, 1, 64, 127
3, 121743, Note_on_c, 1, 52, 0
3, 121779, Control_c, 1, 64, 0
3, 121800, Note_on_c, 1, 53, 62
3, 121825, Control_c, 1, 64, 127
3, 121858, Note_on_c, 1, 53, 0
3, 121860, Note_on_c, 1, 57, 89
3, 121865, Control_c, 1, 64, 0
3, 121890, Control_c, 1, 64, 127
3, 121914, Control_c, 1, 64, 0
3, 121920, Note_on_c, 1, 60, 72
3, 121922, Note_on_c, 1, 57, 0
3, 121941, Control_c, 1, 64, 127
3, 122008, Note_on_c, 1, 60, 0
3, 122040, Note_on_c, 1, 48, 72
3, 122040, Note_on_c, 1, 60, 85
3, 122041, Control_c, 1, 64, 0
3, 122066, Control_c, 1, 64, 127
3, 122126, Note_on_c, 1, 60, 0
3, 122138, Note_on_c, 1, 48, 0
3, 122160, Note_on_c, 1, 60, 80
3, 122160, Note_on_c, 1, 41, 76
3, 122165, Control_c, 1, 64, 0
3, 122193, Control_c, 1, 64, 127
3, 122306, Note_on_c, 1, 41, 0
3, 122307, Note_on_c, 1, 60, 0
3, 122340, Note_on_c, 1, 48, 76
3, 122340, Note_on_c, 1, 60, 85
3, 122346, Control_c, 1, 64, 0
3, 122369, Control_c, 1, 64, 127
3, 122398, Note_on_c, 1, 60, 0
3, 122398, Note_on_c, 1, 48, 0
3, 122400, Note_on_c, 1, 45, 72
3, 122400, Note_on_c, 1, 57, 89
3, 122407, Control_c, 1, 64, 0
3, 122429, Control_c, 1, 64, 127
3, 122456, Control_c, 1, 64, 0
3, 122458, Note_on_c, 1, 57, 0
3, 122460, Note_on_c, 1, 53, 76
3, 122460, Note_on_c, 1, 41, 85
3, 122465, Note_on_c, 1, 45, 0
3, 122475, Control_c, 1, 64, 127
3, 122499, Note_on_c, 1, 41, 0
3, 122500, Note_on_c, 1, 53, 0
3, 122516, Control_c, 1, 64, 0
3, 122520, Note_on_c, 1, 36, 72
3, 122520, Note_on_c, 1, 48, 64
3, 122520, Control_c, 1, 64, 127
3, 122580, Note_on_c, 1, 52, 79
3, 122639, Note_on_c, 1, 52, 0
3, 122640, Note_on_c, 1, 60, 68
3, 122640, Note_on_c, 1, 58, 57
3, 122700, Note_on_c, 1, 52, 68
3, 122702, Note_on_c, 1, 60, 0
3, 122703, Note_on_c, 1, 58, 0
3, 122729, Note_on_c, 1, 52, 0
3, 122760, Note_on_c, 1, 60, 72
3, 122760, Note_on_c, 1, 53, 64
3, 122775, Control_c, 1, 64, 0
3, 122808, Control_c, 1, 64, 127
3, 122820, Note_on_c, 1, 53, 0
3, 122820, Note_on_c, 1, 57, 72
3, 122821, Note_on_c, 1, 60, 0
3, 122841, Note_on_c, 1, 48, 0
3, 122844, Note_on_c, 1, 36, 0
3, 122844, Note_on_c, 1, 57, 0
3, 122880, Note_on_c, 1, 36, 75
3, 122880, Note_on_c, 1, 48, 64
3, 122886, Control_c, 1, 64, 0
3, 122919, Control_c, 1, 64, 127
3, 122940, Note_on_c, 1, 52, 72
3, 122997, Note_on_c, 1, 52, 0
3, 123000, Note_on_c, 1, 58, 54
3, 123000, Note_on_c, 1, 60, 61
3, 123060, Note_on_c, 1, 60, 0
3, 123060, Note_on_c, 1, 52, 72
3, 123065, Note_on_c, 1, 58, 0
3, 123080, Note_on_c, 1, 52, 0
3, 123120, Note_on_c, 1, 53, 61
3, 123120, Note_on_c, 1, 60, 72
3, 123130, Control_c, 1, 64, 0
3, 123151, Control_c, 1, 64, 127
3, 123180, Note_on_c, 1, 53, 0
3, 123180, Note_on_c, 1, 57, 72
3, 123186, Note_on_c, 1, 60, 0
3, 123201, Note_on_c, 1, 48, 0
3, 123204, Note_on_c, 1, 36, 0
3, 123209, Note_on_c, 1, 57, 0
3, 123240, Note_on_c, 1, 36, 68
3, 123240, Note_on_c, 1, 48, 68
3, 123243, Control_c, 1, 64, 0
3, 123265, Control_c, 1, 64, 127
3, 123300, Note_on_c, 1, 52, 64
3, 123300, Note_on_c, 1, 55, 61
3, 123355, Note_on_c, 1, 52, 0
3, 123360, Note_on_c, 1, 55, 0
3, 123360, Note_on_c, 1, 60, 79
3, 123387, Note_on_c, 1, 60, 0
3, 123420, Note_on_c, 1, 53, 68
3, 123420, Note_on_c, 1, 60, 61
3, 123451, Note_on_c, 1, 60, 0
3, 123456, Note_on_c, 1, 53, 0
3, 123478, Control_c, 1, 64, 0
3, 123480, Note_on_c, 1, 58, 61
3, 123480, Note_on_c, 1, 60, 72
3, 123480, Note_on_c, 1, 52, 68
3, 123497, Control_c, 1, 64, 127
3, 123515, Note_on_c, 1, 60, 0
3, 123517, Note_on_c, 1, 52, 0
3, 123519, Note_on_c, 1, 58, 0
3, 123540, Note_on_c, 1, 53, 46
3, 123540, Note_on_c, 1, 60, 72
3, 123540, Note_on_c, 1, 57, 68
3, 123552, Note_on_c, 1, 48, 0
3, 123554, Note_on_c, 1, 36, 0
3, 123590, Note_on_c, 1, 57, 0
3, 123593, Note_on_c, 1, 60, 0
3, 123596, Note_on_c, 1, 53, 0
3, 123600, Note_on_c, 1, 36, 72
3, 123600, Note_on_c, 1, 48, 57
3, 123601, Control_c, 1, 64, 0
3, 123623, Control_c, 1, 64, 127
3, 123660, Note_on_c, 1, 53, 64
3, 123660, Note_on_c, 1, 60, 61
3, 123720, Note_on_c, 1, 60, 0
3, 123720, Note_on_c, 1, 53, 0
3, 123720, Note_on_c, 1, 52, 79
3, 123736, Note_on_c, 1, 48, 0
3, 123738, Note_on_c, 1, 36, 0
3, 123759, Note_on_c, 1, 52, 0
3, 123780, Note_on_c, 1, 60, 75
3, 123792, Control_c, 1, 64, 0
3, 123826, Control_c, 1, 64, 127
3, 123840, Note_on_c, 1, 60, 0
3, 123840, Note_on_c, 1, 55, 68
3, 123852, Control_c, 1, 64, 0
3, 123870, Control_c, 1, 64, 127
3, 123897, Note_on_c, 1, 55, 0
3, 123900, Note_on_c, 1, 52, 75
3, 123948, Note_on_c, 1, 52, 0
3, 123960, Note_on_c, 1, 48, 72
3, 123972, Control_c, 1, 64, 0
3, 123990, Note_on_c, 1, 55, 79
3, 124010, Control_c, 1, 64, 127
3, 124019, Note_on_c, 1, 55, 0
3, 124020, Note_on_c, 1, 58, 64
3, 124050, Note_on_c, 1, 60, 64
3, 124053, Note_on_c, 1, 58, 0
3, 124077, Note_on_c, 1, 60, 0
3, 124080, Note_on_c, 1, 64, 72
3, 124088, Control_c, 1, 64, 0
3, 124106, Control_c, 1, 64, 127
3, 124110, Note_on_c, 1, 64, 0
3, 124110, Note_on_c, 1, 60, 61
3, 124131, Note_on_c, 1, 60, 0
3, 124138, Note_on_c, 1, 48, 0
3, 124140, Note_on_c, 1, 58, 61
3, 124140, Note_on_c, 1, 36, 79
3, 124170, Note_on_c, 1, 58, 0
3, 124170, Note_on_c, 1, 55, 64
3, 124187, Note_on_c, 1, 55, 0
3, 124192, Note_on_c, 1, 36, 0
3, 124197, Control_c, 1, 64, 0
3, 124200, Note_on_c, 1, 41, 83
3, 124200, Note_on_c, 1, 65, 75
3, 124220, Control_c, 1, 64, 127
3, 124228, Note_on_c, 1, 65, 0
3, 124230, Note_on_c, 1, 60, 68
3, 124252, Note_on_c, 1, 60, 0
3, 124256, Control_c, 1, 64, 0
3, 124259, Note_on_c, 1, 41, 0
3, 124260, Note_on_c, 1, 57, 75
3, 124260, Note_on_c, 1, 45, 75
3, 124275, Control_c, 1, 64, 127
3, 124288, Note_on_c, 1, 57, 0
3, 124290, Note_on_c, 1, 53, 64
3, 124308, Note_on_c, 1, 53, 0
3, 124316, Note_on_c, 1, 45, 0
3, 124320, Note_on_c, 1, 48, 79
3, 124324, Control_c, 1, 64, 0
3, 124350, Note_on_c, 1, 55, 72
3, 124356, Control_c, 1, 64, 127
3, 124371, Note_on_c, 1, 55, 0
3, 124380, Note_on_c, 1, 58, 61
3, 124400, Note_on_c, 1, 58, 0
3, 124410, Note_on_c, 1, 60, 57
3, 124434, Note_on_c, 1, 60, 0
3, 124440, Note_on_c, 1, 64, 64
3, 124445, Control_c, 1, 64, 0
3, 124462, Note_on_c, 1, 64, 0
3, 124464, Control_c, 1, 64, 127
3, 124470, Note_on_c, 1, 60, 68
3, 124491, Note_on_c, 1, 60, 0
3, 124497, Note_on_c, 1, 48, 0
3, 124500, Note_on_c, 1, 58, 75
3, 124500, Note_on_c, 1, 36, 75
3, 124529, Note_on_c, 1, 58, 0
3, 124530, Note_on_c, 1, 55, 68
3, 124547, Note_on_c, 1, 55, 0
3, 124556, Note_on_c, 1, 36, 0
3, 124559, Control_c, 1, 64, 0
3, 124560, Note_on_c, 1, 41, 79
3, 124560, Note_on_c, 1, 65, 68
3, 124580, Control_c, 1, 64, 127
3, 124588, Note_on_c, 1, 65, 0
3, 124590, Note_on_c, 1, 60, 75
3, 124609, Note_on_c, 1, 60, 0
3, 124620, Note_on_c, 1, 57, 79
3, 124620, Note_on_c, 1, 45, 75
3, 124621, Note_on_c, 1, 41, 0
3, 124650, Note_on_c, 1, 57, 0
3, 124650, Note_on_c, 1, 53, 61
3, 124666, Note_on_c, 1, 53, 0
3, 124675, Note_on_c, 1, 45, 0
3, 124680, Note_on_c, 1, 48, 83
3, 124682, Control_c, 1, 64, 0
3, 124705, Control_c, 1, 64, 127
3, 124710, Note_on_c, 1, 52, 64
3, 124729, Note_on_c, 1, 52, 0
3, 124735, Note_on_c, 1, 48, 0
3, 124740, Note_on_c, 1, 55, 64
3, 124745, Control_c, 1, 64, 0
3, 124766, Note_on_c, 1, 55, 0
3, 124767, Control_c, 1, 64, 127
3, 124770, Note_on_c, 1, 60, 61
3, 124788, Note_on_c, 1, 60, 0
3, 124798, Control_c, 1, 64, 0
3, 124800, Note_on_c, 1, 41, 79
3, 124826, Control_c, 1, 64, 127
3, 124830, Note_on_c, 1, 50, 68
3, 124850, Control_c, 1, 64, 0
3, 124851, Note_on_c, 1, 50, 0
3, 124860, Note_on_c, 1, 41, 0
3, 124860, Note_on_c, 1, 57, 68
3, 124875, Control_c, 1, 64, 127
3, 124890, Note_on_c, 1, 57, 0
3, 124890, Note_on_c, 1, 60, 61
3, 124906, Note_on_c, 1, 60, 0
3, 124912, Control_c, 1, 64, 0
3, 124920, Note_on_c, 1, 43, 75
3, 124940, Control_c, 1, 64, 127
3, 124950, Note_on_c, 1, 53, 61
3, 124969, Note_on_c, 1, 53, 0
3, 124975, Note_on_c, 1, 43, 0
3, 124980, Note_on_c, 1, 55, 61
3, 124997, Control_c, 1, 64, 0
3, 125004, Note_on_c, 1, 55, 0
3, 125010, Note_on_c, 1, 62, 68
3, 125029, Note_on_c, 1, 62, 0
3, 125040, Note_on_c, 1, 45, 79
3, 125070, Note_on_c, 1, 52, 57
3, 125092, Note_on_c, 1, 52, 0
3, 125100, Note_on_c, 1, 60, 75
3, 125105, Control_c, 1, 64, 127
3, 125121, Note_on_c, 1, 60, 0
3, 125122, Note_on_c, 1, 45, 0
3, 125130, Note_on_c, 1, 64, 68
3, 125144, Note_on_c, 1, 64, 0
3, 125152, Control_c, 1, 64, 0
3, 125160, Note_on_c, 1, 41, 75
3, 125190, Note_on_c, 1, 57, 75
3, 125192, Control_c, 1, 64, 127
3, 125212, Note_on_c, 1, 57, 0
3, 125220, Note_on_c, 1, 62, 68
3, 125241, Note_on_c, 1, 62, 0
3, 125250, Note_on_c, 1, 65, 72
3, 125258, Note_on_c, 1, 41, 0
3, 125261, Note_on_c, 1, 65, 0
3, 125272, Control_c, 1, 64, 0
3, 125280, Note_on_c, 1, 43, 86
3, 125305, Control_c, 1, 64, 127
3, 125310, Note_on_c, 1, 53, 64
3, 125331, Note_on_c, 1, 53, 0
3, 125340, Note_on_c, 1, 55, 68
3, 125364, Note_on_c, 1, 55, 0
3, 125366, Note_on_c, 1, 43, 0
3, 125370, Note_on_c, 1, 62, 75
3, 125386, Note_on_c, 1, 62, 0
3, 125398, Control_c, 1, 64, 0
3, 125400, Note_on_c, 1, 45, 86
3, 125430, Note_on_c, 1, 52, 61
3, 125435, Note_on_c, 1, 52, 0
3, 125444, Control_c, 1, 64, 127
3, 125460, Note_on_c, 1, 60, 68
3, 125482, Note_on_c, 1, 60, 0
3, 125490, Note_on_c, 1, 64, 79
3, 125502, Note_on_c, 1, 45, 0
3, 125504, Note_on_c, 1, 64, 0
3, 125512, Control_c, 1, 64, 0
3, 125520, Note_on_c, 1, 41, 68
3, 125542, Control_c, 1, 64, 127
3, 125550, Note_on_c, 1, 57, 68
3, 125570, Note_on_c, 1, 57, 0
3, 125580, Note_on_c, 1, 62, 64
3, 125603, Note_on_c, 1, 62, 0
3, 125610, Note_on_c, 1, 65, 75
3, 125613, Note_on_c, 1, 41, 0
3, 125623, Note_on_c, 1, 65, 0
3, 125632, Control_c, 1, 64, 0
3, 125640, Note_on_c, 1, 43, 75
3, 125660, Control_c, 1, 64, 127
3, 125670, Note_on_c, 1, 53, 72
3, 125692, Note_on_c, 1, 53, 0
3, 125700, Note_on_c, 1, 55, 72
3, 125725, Note_on_c, 1, 55, 0
3, 125728, Note_on_c, 1, 43, 0
3, 125730, Note_on_c, 1, 62, 61
3, 125746, Note_on_c, 1, 62, 0
3, 125750, Control_c, 1, 64, 0
3, 125760, Note_on_c, 1, 55, 72
3, 125760, Note_on_c, 1, 52, 52
3, 125760, Note_on_c, 1, 60, 68
3, 125760, Note_on_c, 1, 36, 79
3, 125775, Control_c, 1, 64, 127
3, 125884, Control_c, 1, 64, 0
3, 125887, Note_on_c, 1, 52, 0
3, 125889, Note_on_c, 1, 36, 0
3, 125891, Note_on_c, 1, 60, 0
3, 125891, Note_on_c, 1, 55, 0
3, 126480, Note_on_c, 1, 53, 61
3, 126494, Control_c, 1, 64, 127
3, 126600, Note_on_c, 1, 65, 76
3, 126605, Note_on_c, 1, 53, 0
3, 126608, Control_c, 1, 64, 0
3, 126639, Control_c, 1, 64, 127
3, 126717, Note_on_c, 1, 65, 0
3, 126720, Note_on_c, 1, 60, 68
3, 126727, Control_c, 1, 64, 0
3, 126755, Control_c, 1, 64, 127
3, 126840, Note_on_c, 1, 57, 76
3, 126842, Note_on_c, 1, 60, 0
3, 126846, Control_c, 1, 64, 0
3, 126875, Control_c, 1, 64, 127
3, 126960, Note_on_c, 1, 53, 60
3, 126962, Note_on_c, 1, 57, 0
3, 126965, Control_c, 1, 64, 0
3, 126991, Control_c, 1, 64, 127
3, 127053, Note_on_c, 1, 53, 0
3, 127071, Control_c, 1, 64, 0
3, 127200, Note_on_c, 1, 54, 72
3, 127200, Note_on_c, 1, 50, 76
3, 127200, Note_on_c, 1, 57, 89
3, 127208, Control_c, 1, 64, 127
3, 127257, Note_on_c, 1, 57, 0
3, 127259, Note_on_c, 1, 54, 0
3, 127265, Note_on_c, 1, 50, 0
3, 127320, Note_on_c, 1, 55, 76
3, 127320, Note_on_c, 1, 46, 76
3, 127320, Note_on_c, 1, 58, 80
3, 127322, Control_c, 1, 64, 0
3, 127339, Control_c, 1, 64, 127
3, 127371, Note_on_c, 1, 46, 0
3, 127371, Note_on_c, 1, 55, 0
3, 127372, Note_on_c, 1, 58, 0
3, 127380, Note_on_c, 1, 45, 72
3, 127380, Note_on_c, 1, 57, 76
3, 127380, Note_on_c, 1, 60, 72
3, 127382, Control_c, 1, 64, 0
3, 127398, Control_c, 1, 64, 127
3, 127421, Note_on_c, 1, 60, 0
3, 127425, Note_on_c, 1, 57, 0
3, 127438, Note_on_c, 1, 45, 0
3, 127440, Note_on_c, 1, 43, 76
3, 127440, Note_on_c, 1, 58, 64
3, 127440, Note_on_c, 1, 62, 76
3, 127444, Control_c, 1, 64, 0
3, 127461, Control_c, 1, 64, 127
3, 127479, Note_on_c, 1, 58, 0
3, 127480, Note_on_c, 1, 62, 0
3, 127500, Note_on_c, 1, 43, 0
3, 127500, Note_on_c, 1, 58, 62
3, 127500, Note_on_c, 1, 46, 80
3, 127500, Note_on_c, 1, 55, 80
3, 127502, Control_c, 1, 64, 0
3, 127517, Control_c, 1, 64, 127
3, 127536, Note_on_c, 1, 55, 0
3, 127549, Note_on_c, 1, 58, 0
3, 127553, Note_on_c, 1, 46, 0
3, 127557, Control_c, 1, 64, 0
3, 127560, Note_on_c, 1, 48, 64
3, 127560, Note_on_c, 1, 55, 80
3, 127560, Note_on_c, 1, 52, 62
3, 127576, Control_c, 1, 64, 127
3, 127620, Note_on_c, 1, 48, 0
3, 127620, Note_on_c, 1, 36, 60
3, 127648, Note_on_c, 1, 36, 0
3, 127654, Note_on_c, 1, 55, 0
3, 127665, Note_on_c, 1, 52, 0
3, 127680, Note_on_c, 1, 36, 85
3, 127725, Note_on_c, 1, 53, 64
3, 127725, Note_on_c, 1, 57, 68
3, 127727, Note_on_c, 1, 36, 0
3, 127735, Control_c, 1, 64, 0
3, 127736, Note_on_c, 1, 57, 0
3, 127737, Note_on_c, 1, 53, 0
3, 127740, Note_on_c, 1, 50, 68
3, 127740, Note_on_c, 1, 41, 76
3, 127740, Note_on_c, 1, 53, 72
3, 127754, Control_c, 1, 64, 127
3, 127766, Note_on_c, 1, 50, 0
3, 127768, Note_on_c, 1, 53, 0
3, 127785, Note_on_c, 1, 53, 62
3, 127785, Note_on_c, 1, 57, 72
3, 127795, Note_on_c, 1, 41, 0
3, 127796, Control_c, 1, 64, 0
3, 127799, Note_on_c, 1, 57, 0
3, 127799, Note_on_c, 1, 53, 0
3, 127800, Note_on_c, 1, 36, 80
3, 127800, Note_on_c, 1, 52, 76
3, 127800, Note_on_c, 1, 55, 64
3, 127815, Control_c, 1, 64, 127
3, 127848, Note_on_c, 1, 36, 0
3, 127850, Note_on_c, 1, 52, 0
3, 127854, Note_on_c, 1, 55, 0
3, 127914, Control_c, 1, 64, 0
3, 127920, Note_on_c, 1, 41, 72
3, 127920, Note_on_c, 1, 53, 93
3, 127944, Control_c, 1, 64, 127
3, 128035, Note_on_c, 1, 41, 0
3, 128035, Control_c, 1, 64, 0
3, 128040, Note_on_c, 1, 29, 89
3, 128051, Control_c, 1, 64, 127
3, 128075, Note_on_c, 1, 53, 0
3, 128097, Note_on_c, 1, 29, 0
3, 128100, Note_on_c, 1, 55, 76
3, 128112, Control_c, 1, 64, 0
3, 128130, Note_on_c, 1, 57, 85
3, 128136, Note_on_c, 1, 55, 0
3, 128159, Note_on_c, 1, 57, 0
3, 128160, Note_on_c, 1, 58, 72
3, 128188, Note_on_c, 1, 58, 0
3, 128190, Note_on_c, 1, 60, 93
3, 128220, Note_on_c, 1, 62, 85
3, 128221, Note_on_c, 1, 60, 0
3, 128245, Note_on_c, 1, 62, 0
3, 128250, Note_on_c, 1, 64, 89
3, 128280, Note_on_c, 1, 65, 89
3, 128281, Note_on_c, 1, 64, 0
3, 128310, Note_on_c, 1, 64, 76
3, 128316, Note_on_c, 1, 65, 0
3, 128340, Note_on_c, 1, 62, 64
3, 128346, Note_on_c, 1, 64, 0
3, 128368, Note_on_c, 1, 62, 0
3, 128370, Note_on_c, 1, 60, 72
3, 128400, Note_on_c, 1, 58, 62
3, 128403, Note_on_c, 1, 60, 0
3, 128430, Note_on_c, 1, 58, 0
3, 128430, Note_on_c, 1, 57, 76
3, 128460, Note_on_c, 1, 55, 68
3, 128463, Note_on_c, 1, 57, 0
3, 128488, Note_on_c, 1, 55, 0
3, 128490, Note_on_c, 1, 53, 56
3, 128520, Note_on_c, 1, 52, 85
3, 128522, Note_on_c, 1, 53, 0
3, 128549, Control_c, 1, 64, 127
3, 128587, Note_on_c, 1, 52, 0
3, 128605, Control_c, 1, 64, 0
3, 128640, Note_on_c, 1, 53, 76
3, 128657, Control_c, 1, 64, 127
3, 128695, Note_on_c, 1, 53, 0
3, 128700, Note_on_c, 1, 57, 89
3, 128750, Control_c, 1, 64, 0
3, 128756, Note_on_c, 1, 57, 0
3, 128760, Note_on_c, 1, 60, 72
3, 128784, Control_c, 1, 64, 127
3, 128840, Note_on_c, 1, 60, 0
3, 128880, Note_on_c, 1, 48, 64
3, 128880, Note_on_c, 1, 60, 85
3, 128882, Control_c, 1, 64, 0
3, 128908, Control_c, 1, 64, 127
3, 128970, Note_on_c, 1, 60, 0
3, 128975, Note_on_c, 1, 48, 0
3, 129000, Note_on_c, 1, 60, 76
3, 129000, Note_on_c, 1, 41, 89
3, 129003, Control_c, 1, 64, 0
3, 129031, Control_c, 1, 64, 127
3, 129180, Note_on_c, 1, 60, 0
3, 129183, Note_on_c, 1, 41, 0
3, 129192, Control_c, 1, 64, 0
3, 129360, Note_on_c, 1, 38, 98
3, 129372, Control_c, 1, 64, 127
3, 129375, Control_c, 1, 64, 127
3, 129375, Note_on_c, 1, 50, 76
3, 129376, Control_c, 1, 64, 127
3, 129389, Note_on_c, 1, 50, 0
3, 129390, Note_on_c, 1, 53, 72
3, 129396, Note_on_c, 1, 38, 0
3, 129404, Note_on_c, 1, 53, 0
3, 129405, Note_on_c, 1, 57, 80
3, 129419, Note_on_c, 1, 57, 0
3, 129420, Note_on_c, 1, 62, 72
3, 129434, Note_on_c, 1, 62, 0
3, 129435, Note_on_c, 1, 57, 47
3, 129449, Note_on_c, 1, 57, 0
3, 129450, Note_on_c, 1, 53, 60
3, 129461, Control_c, 1, 64, 0
3, 129464, Note_on_c, 1, 53, 0
3, 129465, Note_on_c, 1, 50, 46
3, 129479, Note_on_c, 1, 50, 0
3, 129480, Note_on_c, 1, 65, 72
3, 129494, Note_on_c, 1, 65, 0
3, 129495, Note_on_c, 1, 62, 62
3, 129503, Control_c, 1, 64, 0
3, 129509, Note_on_c, 1, 62, 0
3, 129510, Note_on_c, 1, 57, 62
3, 129524, Note_on_c, 1, 57, 0
3, 129525, Note_on_c, 1, 53, 72
3, 129539, Note_on_c, 1, 53, 0
3, 129540, Control_c, 1, 64, 0
3, 129540, Note_on_c, 1, 53, 89
3, 129555, Control_c, 1, 64, 127
3, 129555, Note_on_c, 1, 57, 76
3, 129556, Control_c, 1, 64, 127
3, 129569, Note_on_c, 1, 57, 0
3, 129570, Note_on_c, 1, 69, 93
3, 129584, Note_on_c, 1, 69, 0
3, 129585, Note_on_c, 1, 57, 76
3, 129595, Note_on_c, 1, 53, 0
3, 129599, Note_on_c, 1, 57, 0
3, 129600, Control_c, 1, 64, 0
3, 129600, Note_on_c, 1, 52, 93
3, 129608, Control_c, 1, 64, 0
3, 129615, Note_on_c, 1, 57, 93
3, 129615, Control_c, 1, 64, 127
3, 129629, Note_on_c, 1, 57, 0
3, 129630, Note_on_c, 1, 67, 85
3, 129638, Control_c, 1, 64, 127
3, 129644, Note_on_c, 1, 67, 0
3, 129645, Note_on_c, 1, 57, 72
3, 129647, Note_on_c, 1, 52, 0
3, 129659, Note_on_c, 1, 57, 0
3, 129660, Control_c, 1, 64, 0
3, 129660, Note_on_c, 1, 50, 98
3, 129675, Note_on_c, 1, 50, 0
3, 129675, Control_c, 1, 64, 127
3, 129675, Note_on_c, 1, 57, 76
3, 129689, Note_on_c, 1, 57, 0
3, 129690, Note_on_c, 1, 65, 80
3, 129704, Note_on_c, 1, 65, 0
3, 129705, Note_on_c, 1, 57, 76
3, 129710, Control_c, 1, 64, 0
3, 129719, Note_on_c, 1, 57, 0
3, 129720, Control_c, 1, 64, 0
3, 129720, Note_on_c, 1, 37, 89
3, 129720, Note_on_c, 1, 49, 89
3, 129735, Note_on_c, 1, 52, 80
3, 129735, Control_c, 1, 64, 127
3, 129749, Note_on_c, 1, 52, 0
3, 129750, Note_on_c, 1, 55, 80
3, 129755, Control_c, 1, 64, 127
3, 129764, Note_on_c, 1, 55, 0
3, 129765, Note_on_c, 1, 58, 76
3, 129779, Note_on_c, 1, 58, 0
3, 129780, Note_on_c, 1, 64, 76
3, 129792, Note_on_c, 1, 37, 0
3, 129794, Note_on_c, 1, 64, 0
3, 129795, Note_on_c, 1, 49, 0
3, 129795, Note_on_c, 1, 58, 62
3, 129809, Note_on_c, 1, 58, 0
3, 129810, Note_on_c, 1, 55, 76
3, 129824, Note_on_c, 1, 55, 0
3, 129825, Note_on_c, 1, 52, 59
3, 129839, Note_on_c, 1, 52, 0
3, 129840, Note_on_c, 1, 67, 80
3, 129854, Note_on_c, 1, 67, 0
3, 129855, Note_on_c, 1, 64, 76
3, 129869, Note_on_c, 1, 64, 0
3, 129870, Note_on_c, 1, 58, 59
3, 129879, Control_c, 1, 64, 0
3, 129884, Note_on_c, 1, 58, 0
3, 129885, Note_on_c, 1, 55, 76
3, 129899, Note_on_c, 1, 55, 0
3, 129900, Control_c, 1, 64, 0
3, 129900, Note_on_c, 1, 55, 107
3, 129915, Control_c, 1, 64, 127
3, 129915, Note_on_c, 1, 61, 42
3, 129929, Note_on_c, 1, 61, 0
3, 129930, Note_on_c, 1, 70, 68
3, 129944, Note_on_c, 1, 70, 0
3, 129945, Note_on_c, 1, 61, 57
3, 129959, Note_on_c, 1, 61, 0
3, 129960, Note_on_c, 1, 55, 0
3, 129960, Control_c, 1, 64, 0
3, 129960, Note_on_c, 1, 53, 89
3, 129975, Control_c, 1, 64, 127
3, 129975, Note_on_c, 1, 62, 72
3, 129989, Note_on_c, 1, 62, 0
3, 129990, Note_on_c, 1, 69, 89
3, 130004, Note_on_c, 1, 69, 0
3, 130005, Note_on_c, 1, 62, 72
3, 130011, Note_on_c, 1, 53, 0
3, 130019, Note_on_c, 1, 62, 0
3, 130020, Control_c, 1, 64, 0
3, 130020, Note_on_c, 1, 52, 93
3, 130022, Control_c, 1, 64, 127
3, 130035, Note_on_c, 1, 52, 0
3, 130035, Control_c, 1, 64, 127
3, 130035, Note_on_c, 1, 67, 76
3, 130049, Note_on_c, 1, 67, 0
3, 130050, Note_on_c, 1, 69, 72
3, 130064, Note_on_c, 1, 69, 0
3, 130064, Control_c, 1, 64, 0
3, 130065, Note_on_c, 1, 67, 64
3, 130079, Note_on_c, 1, 67, 0
3, 130080, Control_c, 1, 64, 0
3, 130080, Note_on_c, 1, 38, 102
3, 130095, Control_c, 1, 64, 127
3, 130095, Note_on_c, 1, 50, 76
3, 130109, Note_on_c, 1, 50, 0
3, 130110, Note_on_c, 1, 53, 76
3, 130114, Control_c, 1, 64, 127
3, 130124, Note_on_c, 1, 53, 0
3, 130125, Note_on_c, 1, 57, 76
3, 130139, Note_on_c, 1, 57, 0
3, 130140, Note_on_c, 1, 62, 89
3, 130147, Note_on_c, 1, 38, 0
3, 130154, Note_on_c, 1, 62, 0
3, 130155, Note_on_c, 1, 57, 80
3, 130169, Note_on_c, 1, 57, 0
3, 130170, Note_on_c, 1, 53, 85
3, 130184, Note_on_c, 1, 53, 0
3, 130185, Note_on_c, 1, 50, 72
3, 130199, Note_on_c, 1, 50, 0
3, 130200, Note_on_c, 1, 65, 76
3, 130214, Note_on_c, 1, 65, 0
3, 130215, Note_on_c, 1, 62, 72
3, 130229, Note_on_c, 1, 62, 0
3, 130230, Note_on_c, 1, 57, 76
3, 130243, Control_c, 1, 64, 0
3, 130244, Note_on_c, 1, 57, 0
3, 130245, Note_on_c, 1, 53, 68
3, 130259, Note_on_c, 1, 53, 0
3, 130260, Control_c, 1, 64, 0
3, 130260, Note_on_c, 1, 53, 113
3, 130275, Control_c, 1, 64, 127
3, 130275, Note_on_c, 1, 57, 85
3, 130289, Note_on_c, 1, 57, 0
3, 130290, Note_on_c, 1, 69, 89
3, 130291, Control_c, 1, 64, 127
3, 130304, Note_on_c, 1, 69, 0
3, 130305, Note_on_c, 1, 57, 62
3, 130316, Control_c, 1, 64, 0
3, 130319, Note_on_c, 1, 57, 0
3, 130320, Control_c, 1, 64, 0
3, 130320, Note_on_c, 1, 52, 98
3, 130321, Note_on_c, 1, 53, 0
3, 130335, Control_c, 1, 64, 127
3, 130335, Note_on_c, 1, 57, 72
3, 130349, Note_on_c, 1, 57, 0
3, 130350, Note_on_c, 1, 67, 89
3, 130364, Note_on_c, 1, 67, 0
3, 130365, Note_on_c, 1, 57, 64
3, 130367, Control_c, 1, 64, 127
3, 130368, Control_c, 1, 64, 0
3, 130371, Note_on_c, 1, 52, 0
3, 130379, Note_on_c, 1, 57, 0
3, 130380, Control_c, 1, 64, 0
3, 130380, Note_on_c, 1, 50, 93
3, 130395, Control_c, 1, 64, 127
3, 130395, Note_on_c, 1, 57, 80
3, 130409, Note_on_c, 1, 57, 0
3, 130410, Note_on_c, 1, 65, 80
3, 130414, Control_c, 1, 64, 127
3, 130424, Note_on_c, 1, 65, 0
3, 130425, Note_on_c, 1, 57, 68
3, 130429, Control_c, 1, 64, 0
3, 130436, Note_on_c, 1, 50, 0
3, 130439, Note_on_c, 1, 57, 0
3, 130440, Control_c, 1, 64, 0
3, 130440, Note_on_c, 1, 45, 102
3, 130455, Control_c, 1, 64, 127
3, 130455, Note_on_c, 1, 57, 85
3, 130464, Control_c, 1, 64, 127
3, 130469, Note_on_c, 1, 57, 0
3, 130470, Note_on_c, 1, 62, 85
3, 130484, Note_on_c, 1, 62, 0
3, 130485, Note_on_c, 1, 65, 89
3, 130494, Note_on_c, 1, 45, 0
3, 130499, Note_on_c, 1, 65, 0
3, 130500, Control_c, 1, 64, 0
3, 130500, Note_on_c, 1, 69, 76
3, 130500, Control_c, 1, 64, 127
3, 130514, Note_on_c, 1, 69, 0
3, 130515, Note_on_c, 1, 65, 55
3, 130529, Note_on_c, 1, 65, 0
3, 130530, Note_on_c, 1, 64, 80
3, 130544, Note_on_c, 1, 64, 0
3, 130545, Note_on_c, 1, 62, 80
3, 130559, Note_on_c, 1, 62, 0
3, 130560, Control_c, 1, 64, 0
3, 130560, Note_on_c, 1, 61, 72
3, 130560, Control_c, 1, 64, 127
3, 130569, Control_c, 1, 64, 0
3, 130574, Note_on_c, 1, 61, 0
3, 130575, Note_on_c, 1, 69, 89
3, 130589, Note_on_c, 1, 69, 0
3, 130590, Note_on_c, 1, 64, 80
3, 130590, Control_c, 1, 64, 0
3, 130590, Control_c, 1, 64, 127
3, 130604, Note_on_c, 1, 64, 0
3, 130605, Note_on_c, 1, 61, 76
3, 130619, Note_on_c, 1, 61, 0
3, 130620, Note_on_c, 1, 58, 62
3, 130620, Control_c, 1, 64, 0
3, 130620, Control_c, 1, 64, 127
3, 130620, Note_on_c, 1, 55, 102
3, 130634, Note_on_c, 1, 58, 0
3, 130635, Note_on_c, 1, 64, 85
3, 130645, Control_c, 1, 64, 127
3, 130649, Note_on_c, 1, 64, 0
3, 130650, Control_c, 1, 64, 0
3, 130650, Note_on_c, 1, 61, 72
3, 130650, Control_c, 1, 64, 127
3, 130664, Note_on_c, 1, 61, 0
3, 130665, Note_on_c, 1, 58, 80
3, 130672, Note_on_c, 1, 55, 0
3, 130673, Control_c, 1, 64, 0
3, 130679, Note_on_c, 1, 58, 0
3, 130680, Note_on_c, 1, 57, 72
3, 130680, Control_c, 1, 64, 0
3, 130680, Control_c, 1, 64, 127
3, 130680, Note_on_c, 1, 53, 93
3, 130694, Note_on_c, 1, 57, 0
3, 130695, Note_on_c, 1, 65, 89
3, 130709, Note_on_c, 1, 65, 0
3, 130710, Note_on_c, 1, 62, 80
3, 130717, Control_c, 1, 64, 127
3, 130723, Note_on_c, 1, 53, 0
3, 130724, Note_on_c, 1, 62, 0
3, 130725, Note_on_c, 1, 57, 76
3, 130739, Note_on_c, 1, 57, 0
3, 130740, Control_c, 1, 64, 0
3, 130740, Note_on_c, 1, 57, 76
3, 130740, Control_c, 1, 64, 127
3, 130740, Note_on_c, 1, 52, 98
3, 130751, Note_on_c, 1, 52, 0
3, 130754, Note_on_c, 1, 57, 0
3, 130755, Note_on_c, 1, 67, 80
3, 130769, Note_on_c, 1, 67, 0
3, 130770, Note_on_c, 1, 61, 85
3, 130784, Note_on_c, 1, 61, 0
3, 130785, Note_on_c, 1, 57, 76
3, 130791, Control_c, 1, 64, 0
3, 130799, Note_on_c, 1, 57, 0
3, 130800, Control_c, 1, 64, 0
3, 130800, Note_on_c, 1, 38, 107
3, 130815, Control_c, 1, 64, 127
3, 130815, Note_on_c, 1, 50, 89
3, 130825, Control_c, 1, 64, 127
3, 130829, Note_on_c, 1, 50, 0
3, 130830, Note_on_c, 1, 53, 76
3, 130840, Note_on_c, 1, 38, 0
3, 130844, Note_on_c, 1, 53, 0
3, 130845, Note_on_c, 1, 57, 64
3, 130859, Note_on_c, 1, 57, 0
3, 130860, Note_on_c, 1, 62, 85
3, 130860, Control_c, 1, 64, 0
3, 130860, Control_c, 1, 64, 127
3, 130874, Note_on_c, 1, 62, 0
3, 130875, Note_on_c, 1, 57, 76
3, 130889, Note_on_c, 1, 57, 0
3, 130890, Note_on_c, 1, 53, 59
3, 130904, Note_on_c, 1, 53, 0
3, 130905, Note_on_c, 1, 50, 72
3, 130919, Note_on_c, 1, 50, 0
3, 130920, Note_on_c, 1, 65, 80
3, 130920, Control_c, 1, 64, 0
3, 130920, Control_c, 1, 64, 127
3, 130934, Note_on_c, 1, 65, 0
3, 130935, Note_on_c, 1, 62, 76
3, 130941, Control_c, 1, 64, 0
3, 130949, Note_on_c, 1, 62, 0
3, 130950, Note_on_c, 1, 57, 80
3, 130964, Note_on_c, 1, 57, 0
3, 130965, Note_on_c, 1, 53, 72
3, 130979, Note_on_c, 1, 53, 0
3, 130980, Note_on_c, 1, 53, 98
3, 130994, Control_c, 1, 64, 127
3, 130995, Control_c, 1, 64, 0
3, 130995, Control_c, 1, 64, 127
3, 130995, Note_on_c, 1, 57, 72
3, 131009, Note_on_c, 1, 57, 0
3, 131010, Note_on_c, 1, 69, 85
3, 131024, Note_on_c, 1, 69, 0
3, 131025, Note_on_c, 1, 57, 64
3, 131029, Note_on_c, 1, 53, 0
3, 131035, Control_c, 1, 64, 0
3, 131039, Note_on_c, 1, 57, 0
3, 131040, Control_c, 1, 64, 0
3, 131040, Note_on_c, 1, 52, 98
3, 131055, Control_c, 1, 64, 127
3, 131055, Note_on_c, 1, 57, 89
3, 131069, Note_on_c, 1, 57, 0
3, 131070, Note_on_c, 1, 67, 76
3, 131072, Control_c, 1, 64, 127
3, 131075, Note_on_c, 1, 52, 0
3, 131084, Note_on_c, 1, 67, 0
3, 131085, Note_on_c, 1, 57, 60
3, 131099, Note_on_c, 1, 57, 0
3, 131100, Control_c, 1, 64, 0
3, 131100, Note_on_c, 1, 50, 102
3, 131112, Note_on_c, 1, 50, 0
3, 131115, Control_c, 1, 64, 127
3, 131115, Note_on_c, 1, 57, 85
3, 131129, Note_on_c, 1, 57, 0
3, 131130, Note_on_c, 1, 65, 80
3, 131144, Note_on_c, 1, 65, 0
3, 131145, Note_on_c, 1, 57, 76
3, 131154, Control_c, 1, 64, 0
3, 131159, Note_on_c, 1, 57, 0
3, 131160, Control_c, 1, 64, 0
3, 131160, Control_c, 1, 64, 127
3, 131160, Note_on_c, 1, 48, 89
3, 131160, Note_on_c, 1, 36, 93
3, 131175, Control_c, 1, 64, 0
3, 131175, Note_on_c, 1, 53, 85
3, 131175, Control_c, 1, 64, 127
3, 131189, Note_on_c, 1, 53, 0
3, 131190, Note_on_c, 1, 57, 85
3, 131192, Control_c, 1, 64, 127
3, 131204, Note_on_c, 1, 57, 0
3, 131205, Note_on_c, 1, 60, 85
3, 131219, Note_on_c, 1, 60, 0
3, 131219, Note_on_c, 1, 36, 0
3, 131220, Note_on_c, 1, 63, 80
3, 131223, Note_on_c, 1, 48, 0
3, 131234, Note_on_c, 1, 63, 0
3, 131235, Note_on_c, 1, 60, 76
3, 131249, Note_on_c, 1, 60, 0
3, 131250, Note_on_c, 1, 57, 85
3, 131264, Note_on_c, 1, 57, 0
3, 131265, Note_on_c, 1, 53, 72
3, 131279, Note_on_c, 1, 53, 0
3, 131280, Control_c, 1, 64, 0
3, 131280, Note_on_c, 1, 65, 85
3, 131280, Control_c, 1, 64, 127
3, 131294, Note_on_c, 1, 65, 0
3, 131295, Note_on_c, 1, 63, 62
3, 131309, Note_on_c, 1, 63, 0
3, 131310, Note_on_c, 1, 60, 64
3, 131317, Control_c, 1, 64, 0
3, 131324, Note_on_c, 1, 60, 0
3, 131325, Note_on_c, 1, 57, 85
3, 131339, Note_on_c, 1, 57, 0
3, 131340, Note_on_c, 1, 48, 98
3, 131355, Control_c, 1, 64, 0
3, 131355, Control_c, 1, 64, 127
3, 131355, Note_on_c, 1, 60, 89
3, 131369, Note_on_c, 1, 60, 0
3, 131370, Note_on_c, 1, 63, 72
3, 131375, Control_c, 1, 64, 127
3, 131384, Note_on_c, 1, 63, 0
3, 131385, Note_on_c, 1, 60, 80
3, 131399, Note_on_c, 1, 60, 0
3, 131400, Control_c, 1, 64, 0
3, 131400, Control_c, 1, 64, 127
3, 131400, Note_on_c, 1, 50, 98
3, 131401, Note_on_c, 1, 48, 0
3, 131402, Control_c, 1, 64, 0
3, 131415, Note_on_c, 1, 58, 85
3, 131429, Note_on_c, 1, 58, 0
3, 131430, Note_on_c, 1, 62, 76
3, 131443, Control_c, 1, 64, 127
3, 131444, Note_on_c, 1, 62, 0
3, 131445, Note_on_c, 1, 58, 76
3, 131453, Control_c, 1, 64, 0
3, 131459, Note_on_c, 1, 58, 0
3, 131459, Note_on_c, 1, 50, 0
3, 131460, Note_on_c, 1, 51, 93
3, 131475, Control_c, 1, 64, 0
3, 131475, Control_c, 1, 64, 127
3, 131475, Note_on_c, 1, 57, 85
3, 131481, Control_c, 1, 64, 127
3, 131489, Note_on_c, 1, 57, 0
3, 131490, Note_on_c, 1, 60, 72
3, 131504, Note_on_c, 1, 60, 0
3, 131504, Note_on_c, 1, 51, 0
3, 131505, Note_on_c, 1, 57, 80
3, 131514, Control_c, 1, 64, 0
3, 131519, Note_on_c, 1, 57, 0
3, 131520, Control_c, 1, 64, 0
3, 131520, Note_on_c, 1, 50, 107
3, 131535, Control_c, 1, 64, 127
3, 131535, Note_on_c, 1, 53, 85
3, 131540, Control_c, 1, 64, 127
3, 131549, Note_on_c, 1, 53, 0
3, 131550, Note_on_c, 1, 58, 76
3, 131564, Note_on_c, 1, 58, 0
3, 131565, Note_on_c, 1, 50, 0
3, 131565, Note_on_c, 1, 62, 76
3, 131579, Note_on_c, 1, 62, 0
3, 131580, Note_on_c, 1, 65, 76
3, 131585, Control_c, 1, 64, 0
3, 131594, Note_on_c, 1, 65, 0
3, 131595, Note_on_c, 1, 62, 76
3, 131609, Note_on_c, 1, 62, 0
3, 131610, Note_on_c, 1, 58, 68
3, 131624, Note_on_c, 1, 58, 0
3, 131625, Note_on_c, 1, 53, 76
3, 131639, Note_on_c, 1, 53, 0
3, 131640, Control_c, 1, 64, 0
3, 131640, Note_on_c, 1, 58, 89
3, 131640, Control_c, 1, 64, 127
3, 131640, Note_on_c, 1, 53, 89
3, 131654, Note_on_c, 1, 58, 0
3, 131655, Note_on_c, 1, 62, 76
3, 131665, Control_c, 1, 64, 127
3, 131669, Note_on_c, 1, 62, 0
3, 131670, Note_on_c, 1, 65, 76
3, 131684, Note_on_c, 1, 65, 0
3, 131685, Note_on_c, 1, 62, 80
3, 131687, Note_on_c, 1, 53, 0
3, 131699, Note_on_c, 1, 62, 0
3, 131700, Control_c, 1, 64, 0
3, 131700, Note_on_c, 1, 58, 80
3, 131700, Control_c, 1, 64, 127
3, 131714, Note_on_c, 1, 58, 0
3, 131715, Note_on_c, 1, 62, 76
3, 131715, Control_c, 1, 64, 0
3, 131729, Note_on_c, 1, 62, 0
3, 131730, Control_c, 1, 64, 0
3, 131730, Note_on_c, 1, 58, 76
3, 131730, Control_c, 1, 64, 127
3, 131744, Note_on_c, 1, 58, 0
3, 131745, Note_on_c, 1, 53, 72
3, 131759, Note_on_c, 1, 53, 0
3, 131760, Control_c, 1, 64, 0
3, 131760, Note_on_c, 1, 57, 89
3, 131760, Control_c, 1, 64, 127
3, 131760, Note_on_c, 1, 41, 98
3, 131774, Note_on_c, 1, 57, 0
3, 131775, Note_on_c, 1, 63, 68
3, 131784, Control_c, 1, 64, 127
3, 131789, Note_on_c, 1, 63, 0
3, 131790, Note_on_c, 1, 65, 85
3, 131804, Note_on_c, 1, 65, 0
3, 131805, Note_on_c, 1, 63, 76
3, 131808, Note_on_c, 1, 41, 0
3, 131819, Note_on_c, 1, 63, 0
3, 131820, Note_on_c, 1, 57, 89
3, 131820, Control_c, 1, 64, 0
3, 131820, Control_c, 1, 64, 127
3, 131834, Note_on_c, 1, 57, 0
3, 131835, Note_on_c, 1, 63, 64
3, 131842, Control_c, 1, 64, 0
3, 131849, Note_on_c, 1, 63, 0
3, 131850, Note_on_c, 1, 57, 80
3, 131864, Note_on_c, 1, 57, 0
3, 131865, Note_on_c, 1, 53, 76
3, 131879, Note_on_c, 1, 53, 0
3, 131880, Control_c, 1, 64, 0
3, 131880, Note_on_c, 1, 46, 98
3, 131895, Control_c, 1, 64, 127
3, 131895, Note_on_c, 1, 58, 89
3, 131898, Control_c, 1, 64, 127
3, 131909, Note_on_c, 1, 58, 0
3, 131910, Note_on_c, 1, 62, 89
3, 131912, Note_on_c, 1, 46, 0
3, 131924, Note_on_c, 1, 62, 0
3, 131925, Note_on_c, 1, 58, 72
3, 131939, Note_on_c, 1, 58, 0
3, 131940, Control_c, 1, 64, 0
3, 131940, Note_on_c, 1, 69, 93
3, 131940, Control_c, 1, 64, 127
3, 131954, Note_on_c, 1, 69, 0
3, 131955, Note_on_c, 1, 65, 80
3, 131969, Note_on_c, 1, 65, 0
3, 131970, Control_c, 1, 64, 0
3, 131970, Note_on_c, 1, 70, 93
3, 131970, Control_c, 1, 64, 127
3, 131984, Note_on_c, 1, 70, 0
3, 131985, Note_on_c, 1, 65, 85
3, 131989, Control_c, 1, 64, 0
3, 131999, Note_on_c, 1, 65, 0
3, 132000, Control_c, 1, 64, 0
3, 132000, Note_on_c, 1, 74, 93
3, 132000, Control_c, 1, 64, 127
3, 132014, Note_on_c, 1, 74, 0
3, 132015, Note_on_c, 1, 70, 80
3, 132029, Note_on_c, 1, 70, 0
3, 132030, Control_c, 1, 64, 0
3, 132030, Note_on_c, 1, 77, 72
3, 132030, Control_c, 1, 64, 127
3, 132044, Note_on_c, 1, 77, 0
3, 132045, Note_on_c, 1, 74, 76
3, 132059, Note_on_c, 1, 74, 0
3, 132060, Control_c, 1, 64, 0
3, 132060, Note_on_c, 1, 70, 89
3, 132060, Control_c, 1, 64, 127
3, 132074, Note_on_c, 1, 70, 0
3, 132075, Note_on_c, 1, 74, 62
3, 132089, Note_on_c, 1, 74, 0
3, 132090, Control_c, 1, 64, 0
3, 132090, Note_on_c, 1, 65, 93
3, 132090, Control_c, 1, 64, 127
3, 132104, Note_on_c, 1, 65, 0
3, 132105, Note_on_c, 1, 70, 57
3, 132119, Note_on_c, 1, 70, 0
3, 132120, Note_on_c, 1, 62, 89
3, 132120, Control_c, 1, 64, 0
3, 132120, Control_c, 1, 64, 127
3, 132134, Note_on_c, 1, 62, 0
3, 132135, Note_on_c, 1, 65, 60
3, 132149, Note_on_c, 1, 65, 0
3, 132150, Control_c, 1, 64, 0
3, 132150, Note_on_c, 1, 58, 85
3, 132150, Control_c, 1, 64, 127
3, 132164, Note_on_c, 1, 58, 0
3, 132165, Note_on_c, 1, 62, 85
3, 132179, Note_on_c, 1, 62, 0
3, 132180, Control_c, 1, 64, 0
3, 132180, Note_on_c, 1, 46, 98
3, 132186, Control_c, 1, 64, 127
3, 132195, Note_on_c, 1, 46, 0
3, 132225, Note_on_c, 1, 53, 72
3, 132229, Control_c, 1, 64, 0
3, 132230, Note_on_c, 1, 58, 60
3, 132235, Note_on_c, 1, 62, 80
3, 132240, Note_on_c, 1, 34, 93
3, 132240, Note_on_c, 1, 65, 113
3, 132244, Note_on_c, 1, 53, 0
3, 132248, Note_on_c, 1, 62, 0
3, 132249, Note_on_c, 1, 58, 0
3, 132258, Control_c, 1, 64, 127
3, 132265, Note_on_c, 1, 34, 0
3, 132311, Control_c, 1, 64, 127
3, 132320, Control_c, 1, 64, 0
3, 132420, Note_on_c, 1, 65, 0
3, 132420, Note_on_c, 1, 50, 102
3, 132420, Note_on_c, 1, 63, 76
3, 132424, Control_c, 1, 64, 0
3, 132435, Note_on_c, 1, 62, 89
3, 132436, Note_on_c, 1, 63, 0
3, 132437, Note_on_c, 1, 50, 0
3, 132449, Note_on_c, 1, 62, 0
3, 132450, Note_on_c, 1, 60, 62
3, 132465, Note_on_c, 1, 58, 102
3, 132470, Note_on_c, 1, 60, 0
3, 132480, Note_on_c, 1, 58, 0
3, 132480, Note_on_c, 1, 48, 89
3, 132480, Note_on_c, 1, 57, 107
3, 132495, Note_on_c, 1, 48, 0
3, 132496, Note_on_c, 1, 57, 0
3, 132540, Note_on_c, 1, 46, 93
3, 132540, Note_on_c, 1, 58, 93
3, 132556, Note_on_c, 1, 58, 0
3, 132559, Note_on_c, 1, 46, 0
3, 132600, Note_on_c, 1, 41, 93
3, 132600, Note_on_c, 1, 60, 85
3, 132611, Control_c, 1, 64, 127
3, 132623, Control_c, 1, 64, 127
3, 132628, Note_on_c, 1, 41, 0
3, 132679, Control_c, 1, 64, 0
3, 132770, Note_on_c, 1, 60, 0
3, 132780, Note_on_c, 1, 45, 102
3, 132780, Note_on_c, 1, 58, 80
3, 132791, Note_on_c, 1, 58, 0
3, 132793, Control_c, 1, 64, 0
3, 132795, Note_on_c, 1, 57, 85
3, 132799, Note_on_c, 1, 45, 0
3, 132810, Note_on_c, 1, 55, 68
3, 132812, Note_on_c, 1, 57, 0
3, 132825, Note_on_c, 1, 53, 62
3, 132826, Note_on_c, 1, 55, 0
3, 132840, Note_on_c, 1, 53, 0
3, 132840, Note_on_c, 1, 43, 89
3, 132840, Note_on_c, 1, 52, 102
3, 132855, Note_on_c, 1, 43, 0
3, 132856, Note_on_c, 1, 52, 0
3, 132900, Note_on_c, 1, 41, 89
3, 132913, Note_on_c, 1, 41, 0
3, 132945, Note_on_c, 1, 53, 98
3, 132950, Note_on_c, 1, 60, 76
3, 132955, Note_on_c, 1, 64, 80
3, 132958, Note_on_c, 1, 53, 0
3, 132960, Note_on_c, 1, 36, 93
3, 132960, Note_on_c, 1, 48, 89
3, 132960, Note_on_c, 1, 67, 107
3, 132962, Note_on_c, 1, 60, 0
3, 132968, Note_on_c, 1, 64, 0
3, 132971, Control_c, 1, 64, 127
3, 132976, Note_on_c, 1, 48, 0
3, 132978, Note_on_c, 1, 36, 0
3, 133041, Control_c, 1, 64, 127
3, 133058, Control_c, 1, 64, 0
3, 133106, Control_c, 1, 64, 0
3, 133126, Note_on_c, 1, 67, 0
3, 133140, Note_on_c, 1, 51, 107
3, 133140, Note_on_c, 1, 65, 89
3, 133155, Note_on_c, 1, 63, 72
3, 133157, Note_on_c, 1, 51, 0
3, 133158, Note_on_c, 1, 65, 0
3, 133170, Note_on_c, 1, 62, 76
3, 133177, Note_on_c, 1, 63, 0
3, 133185, Note_on_c, 1, 60, 60
3, 133186, Note_on_c, 1, 62, 0
3, 133200, Note_on_c, 1, 50, 89
3, 133200, Note_on_c, 1, 59, 98
3, 133202, Note_on_c, 1, 60, 0
3, 133214, Note_on_c, 1, 59, 0
3, 133214, Note_on_c, 1, 50, 0
3, 133260, Note_on_c, 1, 48, 98
3, 133260, Note_on_c, 1, 60, 89
3, 133273, Note_on_c, 1, 60, 0
3, 133276, Note_on_c, 1, 48, 0
3, 133320, Note_on_c, 1, 31, 98
3, 133320, Note_on_c, 1, 43, 89
3, 133320, Note_on_c, 1, 62, 98
3, 133327, Control_c, 1, 64, 127
3, 133347, Note_on_c, 1, 43, 0
3, 133351, Note_on_c, 1, 31, 0
3, 133357, Control_c, 1, 64, 127
3, 133429, Control_c, 1, 64, 0
3, 133491, Control_c, 1, 64, 0
3, 133496, Note_on_c, 1, 62, 0
3, 133500, Note_on_c, 1, 46, 93
3, 133500, Note_on_c, 1, 60, 98
3, 133515, Note_on_c, 1, 46, 0
3, 133515, Note_on_c, 1, 58, 72
3, 133520, Control_c, 1, 64, 127
3, 133523, Note_on_c, 1, 60, 0
3, 133530, Note_on_c, 1, 57, 80
3, 133531, Note_on_c, 1, 58, 0
3, 133537, Control_c, 1, 64, 0
3, 133545, Note_on_c, 1, 55, 60
3, 133548, Note_on_c, 1, 57, 0
3, 133560, Note_on_c, 1, 45, 89
3, 133560, Note_on_c, 1, 54, 89
3, 133563, Note_on_c, 1, 55, 0
3, 133575, Note_on_c, 1, 45, 0
3, 133578, Note_on_c, 1, 54, 0
3, 133620, Note_on_c, 1, 43, 102
3, 133620, Note_on_c, 1, 55, 89
3, 133631, Note_on_c, 1, 55, 0
3, 133632, Note_on_c, 1, 43, 0
3, 133652, Control_c, 1, 64, 127
3, 133652, Control_c, 1, 64, 0
3, 133665, Note_on_c, 1, 45, 62
3, 133670, Note_on_c, 1, 50, 89
3, 133675, Note_on_c, 1, 53, 85
3, 133678, Note_on_c, 1, 45, 0
3, 133680, Note_on_c, 1, 38, 102
3, 133680, Note_on_c, 1, 57, 113
3, 133683, Control_c, 1, 64, 127
3, 133685, Note_on_c, 1, 50, 0
3, 133690, Note_on_c, 1, 53, 0
3, 133711, Note_on_c, 1, 38, 0
3, 133753, Control_c, 1, 64, 127
3, 133788, Control_c, 1, 64, 0
3, 133846, Note_on_c, 1, 57, 0
3, 133847, Control_c, 1, 64, 0
3, 133860, Note_on_c, 1, 41, 93
3, 133860, Note_on_c, 1, 55, 93
3, 133875, Note_on_c, 1, 53, 60
3, 133876, Note_on_c, 1, 41, 0
3, 133885, Note_on_c, 1, 55, 0
3, 133888, Note_on_c, 1, 53, 0
3, 133890, Note_on_c, 1, 52, 89
3, 133905, Note_on_c, 1, 50, 80
3, 133909, Note_on_c, 1, 52, 0
3, 133920, Note_on_c, 1, 40, 98
3, 133920, Note_on_c, 1, 49, 102
3, 133924, Note_on_c, 1, 50, 0
3, 133934, Note_on_c, 1, 49, 0
3, 133936, Note_on_c, 1, 40, 0
3, 133980, Note_on_c, 1, 38, 93
3, 133980, Note_on_c, 1, 50, 102
3, 133991, Note_on_c, 1, 50, 0
3, 133995, Note_on_c, 1, 38, 0
3, 134025, Note_on_c, 1, 53, 43
3, 134030, Note_on_c, 1, 56, 53
3, 134035, Note_on_c, 1, 62, 72
3, 134040, Note_on_c, 1, 35, 98
3, 134040, Note_on_c, 1, 47, 93
3, 134040, Note_on_c, 1, 65, 113
3, 134041, Note_on_c, 1, 53, 0
3, 134045, Note_on_c, 1, 56, 0
3, 134049, Note_on_c, 1, 62, 0
3, 134053, Control_c, 1, 64, 127
3, 134082, Note_on_c, 1, 35, 0
3, 134084, Note_on_c, 1, 47, 0
3, 134130, Control_c, 1, 64, 127
3, 134141, Control_c, 1, 64, 0
3, 134151, Control_c, 1, 64, 0
3, 134195, Note_on_c, 1, 65, 0
3, 134220, Note_on_c, 1, 64, 93
3, 134220, Note_on_c, 1, 47, 93
3, 134235, Note_on_c, 1, 62, 76
3, 134239, Note_on_c, 1, 47, 0
3, 134243, Note_on_c, 1, 64, 0
3, 134250, Note_on_c, 1, 60, 64
3, 134252, Note_on_c, 1, 62, 0
3, 134265, Note_on_c, 1, 59, 85
3, 134269, Note_on_c, 1, 60, 0
3, 134280, Note_on_c, 1, 57, 102
3, 134280, Note_on_c, 1, 48, 89
3, 134282, Note_on_c, 1, 59, 0
3, 134295, Note_on_c, 1, 48, 0
3, 134298, Note_on_c, 1, 57, 0
3, 134340, Note_on_c, 1, 50, 98
3, 134340, Note_on_c, 1, 56, 85
3, 134352, Note_on_c, 1, 56, 0
3, 134353, Note_on_c, 1, 50, 0
3, 134400, Note_on_c, 1, 48, 93
3, 134400, Note_on_c, 1, 64, 98
3, 134403, Control_c, 1, 64, 127
3, 134439, Note_on_c, 1, 64, 0
3, 134445, Note_on_c, 1, 48, 0
3, 134445, Note_on_c, 1, 69, 93
3, 134457, Control_c, 1, 64, 0
3, 134460, Note_on_c, 1, 60, 93
3, 134462, Note_on_c, 1, 69, 0
3, 134494, Note_on_c, 1, 60, 0
3, 134505, Note_on_c, 1, 64, 85
3, 134520, Note_on_c, 1, 64, 0
3, 134520, Note_on_c, 1, 52, 93
3, 134520, Note_on_c, 1, 57, 93
3, 134532, Control_c, 1, 64, 127
3, 134546, Control_c, 1, 64, 127
3, 134554, Note_on_c, 1, 52, 0
3, 134585, Control_c, 1, 64, 0
3, 134596, Note_on_c, 1, 57, 0
3, 134632, Control_c, 1, 64, 0
3, 134640, Note_on_c, 1, 60, 85
3, 134640, Note_on_c, 1, 40, 98
3, 134652, Control_c, 1, 64, 127
3, 134655, Note_on_c, 1, 59, 89
3, 134657, Note_on_c, 1, 60, 0
3, 134675, Note_on_c, 1, 40, 0
3, 134680, Note_on_c, 1, 59, 0
3, 134685, Note_on_c, 1, 57, 76
3, 134700, Note_on_c, 1, 57, 0
3, 134700, Note_on_c, 1, 59, 85
3, 134715, Control_c, 1, 64, 0
3, 134739, Note_on_c, 1, 59, 0
3, 134745, Note_on_c, 1, 60, 76
3, 134758, Note_on_c, 1, 60, 0
3, 134760, Note_on_c, 1, 45, 98
3, 134760, Note_on_c, 1, 57, 89
3, 134775, Control_c, 1, 64, 127
3, 134790, Note_on_c, 1, 45, 0
3, 134828, Control_c, 1, 64, 127
3, 134871, Note_on_c, 1, 57, 0
3, 134878, Control_c, 1, 64, 0
3, 134883, Control_c, 1, 64, 0
3, 135120, Note_on_c, 1, 38, 102
3, 135125, Control_c, 1, 64, 127
3, 135135, Note_on_c, 1, 38, 0
3, 135135, Note_on_c, 1, 50, 80
3, 135149, Note_on_c, 1, 50, 0
3, 135150, Note_on_c, 1, 53, 80
3, 135150, Control_c, 1, 64, 127
3, 135164, Note_on_c, 1, 53, 0
3, 135165, Note_on_c, 1, 57, 85
3, 135179, Note_on_c, 1, 57, 0
3, 135180, Note_on_c, 1, 62, 76
3, 135194, Note_on_c, 1, 62, 0
3, 135195, Note_on_c, 1, 57, 76
3, 135209, Note_on_c, 1, 57, 0
3, 135210, Note_on_c, 1, 53, 80
3, 135212, Control_c, 1, 64, 0
3, 135224, Note_on_c, 1, 53, 0
3, 135225, Note_on_c, 1, 50, 62
3, 135239, Note_on_c, 1, 50, 0
3, 135240, Note_on_c, 1, 65, 85
3, 135254, Note_on_c, 1, 65, 0
3, 135255, Note_on_c, 1, 62, 72
3, 135269, Note_on_c, 1, 62, 0
3, 135270, Note_on_c, 1, 57, 72
3, 135284, Note_on_c, 1, 57, 0
3, 135285, Note_on_c, 1, 53, 64
3, 135296, Control_c, 1, 64, 127
3, 135299, Note_on_c, 1, 53, 0
3, 135300, Note_on_c, 1, 53, 93
3, 135300, Control_c, 1, 64, 0
3, 135315, Control_c, 1, 64, 127
3, 135315, Note_on_c, 1, 57, 68
3, 135318, Note_on_c, 1, 53, 0
3, 135329, Note_on_c, 1, 57, 0
3, 135330, Note_on_c, 1, 69, 93
3, 135333, Control_c, 1, 64, 0
3, 135344, Note_on_c, 1, 69, 0
3, 135345, Note_on_c, 1, 57, 59
3, 135359, Note_on_c, 1, 57, 0
3, 135360, Note_on_c, 1, 52, 80
3, 135373, Control_c, 1, 64, 127
3, 135375, Note_on_c, 1, 57, 89
3, 135382, Note_on_c, 1, 52, 0
3, 135389, Note_on_c, 1, 57, 0
3, 135390, Note_on_c, 1, 67, 93
3, 135404, Note_on_c, 1, 67, 0
3, 135405, Note_on_c, 1, 57, 68
3, 135412, Control_c, 1, 64, 0
3, 135419, Note_on_c, 1, 57, 0
3, 135420, Note_on_c, 1, 50, 93
3, 135420, Control_c, 1, 64, 0
3, 135433, Control_c, 1, 64, 127
3, 135435, Control_c, 1, 64, 127
3, 135435, Note_on_c, 1, 57, 76
3, 135439, Note_on_c, 1, 50, 0
3, 135449, Note_on_c, 1, 57, 0
3, 135450, Note_on_c, 1, 65, 89
3, 135464, Note_on_c, 1, 65, 0
3, 135465, Note_on_c, 1, 57, 80
3, 135471, Control_c, 1, 64, 0
3, 135479, Note_on_c, 1, 57, 0
3, 135480, Note_on_c, 1, 49, 89
3, 135480, Note_on_c, 1, 37, 98
3, 135480, Control_c, 1, 64, 0
3, 135495, Control_c, 1, 64, 127
3, 135495, Note_on_c, 1, 52, 76
3, 135509, Note_on_c, 1, 52, 0
3, 135510, Note_on_c, 1, 55, 72
3, 135517, Control_c, 1, 64, 127
3, 135524, Note_on_c, 1, 55, 0
3, 135525, Note_on_c, 1, 58, 62
3, 135539, Note_on_c, 1, 58, 0
3, 135540, Note_on_c, 1, 64, 89
3, 135543, Note_on_c, 1, 37, 0
3, 135548, Note_on_c, 1, 49, 0
3, 135554, Note_on_c, 1, 64, 0
3, 135555, Note_on_c, 1, 58, 62
3, 135569, Note_on_c, 1, 58, 0
3, 135570, Note_on_c, 1, 55, 72
3, 135584, Note_on_c, 1, 55, 0
3, 135585, Note_on_c, 1, 52, 76
3, 135599, Note_on_c, 1, 52, 0
3, 135600, Note_on_c, 1, 67, 89
3, 135605, Control_c, 1, 64, 0
3, 135614, Note_on_c, 1, 67, 0
3, 135615, Note_on_c, 1, 64, 42
3, 135629, Note_on_c, 1, 64, 0
3, 135630, Note_on_c, 1, 58, 62
3, 135644, Note_on_c, 1, 58, 0
3, 135645, Note_on_c, 1, 55, 68
3, 135659, Note_on_c, 1, 55, 0
3, 135660, Note_on_c, 1, 55, 102
3, 135660, Control_c, 1, 64, 0
3, 135666, Control_c, 1, 64, 127
3, 135675, Control_c, 1, 64, 127
3, 135675, Note_on_c, 1, 61, 93
3, 135689, Note_on_c, 1, 61, 0
3, 135690, Note_on_c, 1, 70, 85
3, 135704, Note_on_c, 1, 70, 0
3, 135704, Note_on_c, 1, 55, 0
3, 135705, Note_on_c, 1, 61, 76
3, 135719, Note_on_c, 1, 61, 0
3, 135720, Note_on_c, 1, 53, 85
3, 135722, Control_c, 1, 64, 0
3, 135735, Control_c, 1, 64, 0
3, 135735, Control_c, 1, 64, 127
3, 135735, Note_on_c, 1, 62, 85
3, 135746, Control_c, 1, 64, 127
3, 135749, Note_on_c, 1, 62, 0
3, 135750, Note_on_c, 1, 69, 93
3, 135758, Note_on_c, 1, 53, 0
3, 135764, Note_on_c, 1, 69, 0
3, 135765, Note_on_c, 1, 62, 57
3, 135772, Control_c, 1, 64, 0
3, 135779, Note_on_c, 1, 62, 0
3, 135780, Note_on_c, 1, 52, 93
3, 135780, Control_c, 1, 64, 0
3, 135788, Control_c, 1, 64, 127
3, 135795, Control_c, 1, 64, 127
3, 135795, Note_on_c, 1, 67, 85
3, 135797, Note_on_c, 1, 52, 0
3, 135809, Note_on_c, 1, 67, 0
3, 135810, Note_on_c, 1, 69, 76
3, 135824, Note_on_c, 1, 69, 0
3, 135825, Note_on_c, 1, 67, 76
3, 135835, Control_c, 1, 64, 0
3, 135839, Note_on_c, 1, 67, 0
3, 135840, Note_on_c, 1, 38, 102
3, 135840, Control_c, 1, 64, 0
3, 135855, Control_c, 1, 64, 127
3, 135855, Note_on_c, 1, 50, 76
3, 135869, Note_on_c, 1, 50, 0
3, 135869, Control_c, 1, 64, 127
3, 135870, Note_on_c, 1, 53, 80
3, 135883, Note_on_c, 1, 38, 0
3, 135884, Note_on_c, 1, 53, 0
3, 135885, Note_on_c, 1, 57, 85
3, 135899, Note_on_c, 1, 57, 0
3, 135900, Note_on_c, 1, 62, 76
3, 135914, Note_on_c, 1, 62, 0
3, 135915, Note_on_c, 1, 57, 72
3, 135929, Note_on_c, 1, 57, 0
3, 135930, Note_on_c, 1, 53, 59
3, 135944, Note_on_c, 1, 53, 0
3, 135945, Note_on_c, 1, 50, 68
3, 135953, Control_c, 1, 64, 0
3, 135959, Note_on_c, 1, 50, 0
3, 135960, Note_on_c, 1, 65, 89
3, 135974, Note_on_c, 1, 65, 0
3, 135975, Note_on_c, 1, 62, 72
3, 135989, Note_on_c, 1, 62, 0
3, 135990, Note_on_c, 1, 57, 72
3, 136004, Note_on_c, 1, 57, 0
3, 136005, Note_on_c, 1, 53, 60
3, 136019, Note_on_c, 1, 53, 0
3, 136020, Note_on_c, 1, 53, 102
3, 136020, Control_c, 1, 64, 0
3, 136025, Control_c, 1, 64, 127
3, 136035, Control_c, 1, 64, 127
3, 136035, Note_on_c, 1, 57, 80
3, 136049, Note_on_c, 1, 57, 0
3, 136050, Note_on_c, 1, 69, 98
3, 136064, Note_on_c, 1, 69, 0
3, 136065, Note_on_c, 1, 57, 68
3, 136078, Note_on_c, 1, 53, 0
3, 136078, Control_c, 1, 64, 0
3, 136079, Note_on_c, 1, 57, 0
3, 136080, Note_on_c, 1, 52, 93
3, 136095, Note_on_c, 1, 57, 89
3, 136102, Control_c, 1, 64, 127
3, 136109, Note_on_c, 1, 57, 0
3, 136110, Note_on_c, 1, 67, 89
3, 136124, Note_on_c, 1, 67, 0
3, 136124, Control_c, 1, 64, 0
3, 136125, Note_on_c, 1, 57, 76
3, 136132, Note_on_c, 1, 52, 0
3, 136139, Note_on_c, 1, 57, 0
3, 136140, Note_on_c, 1, 50, 89
3, 136140, Control_c, 1, 64, 0
3, 136149, Control_c, 1, 64, 127
3, 136155, Control_c, 1, 64, 127
3, 136155, Note_on_c, 1, 57, 80
3, 136169, Note_on_c, 1, 57, 0
3, 136170, Note_on_c, 1, 65, 93
3, 136184, Note_on_c, 1, 65, 0
3, 136185, Note_on_c, 1, 57, 76
3, 136190, Control_c, 1, 64, 0
3, 136192, Note_on_c, 1, 50, 0
3, 136199, Note_on_c, 1, 57, 0
3, 136200, Note_on_c, 1, 45, 107
3, 136200, Control_c, 1, 64, 0
3, 136215, Control_c, 1, 64, 127
3, 136215, Note_on_c, 1, 57, 80
3, 136220, Control_c, 1, 64, 127
3, 136229, Note_on_c, 1, 57, 0
3, 136230, Note_on_c, 1, 62, 89
3, 136244, Note_on_c, 1, 62, 0
3, 136245, Note_on_c, 1, 65, 85
3, 136248, Note_on_c, 1, 45, 0
3, 136259, Note_on_c, 1, 65, 0
3, 136260, Note_on_c, 1, 69, 76
3, 136274, Note_on_c, 1, 69, 0
3, 136275, Note_on_c, 1, 65, 80
3, 136289, Note_on_c, 1, 65, 0
3, 136290, Note_on_c, 1, 64, 76
3, 136304, Note_on_c, 1, 64, 0
3, 136305, Note_on_c, 1, 62, 68
3, 136313, Control_c, 1, 64, 0
3, 136319, Note_on_c, 1, 62, 0
3, 136320, Control_c, 1, 64, 0
3, 136320, Note_on_c, 1, 61, 76
3, 136334, Note_on_c, 1, 61, 0
3, 136335, Control_c, 1, 64, 127
3, 136335, Note_on_c, 1, 69, 89
3, 136349, Note_on_c, 1, 69, 0
3, 136350, Note_on_c, 1, 64, 89
3, 136364, Note_on_c, 1, 64, 0
3, 136365, Note_on_c, 1, 61, 72
3, 136379, Note_on_c, 1, 61, 0
3, 136380, Note_on_c, 1, 55, 102
3, 136380, Note_on_c, 1, 58, 93
3, 136388, Control_c, 1, 64, 127
3, 136394, Note_on_c, 1, 58, 0
3, 136395, Note_on_c, 1, 64, 89
3, 136409, Note_on_c, 1, 64, 0
3, 136410, Note_on_c, 1, 61, 85
3, 136424, Note_on_c, 1, 61, 0
3, 136425, Note_on_c, 1, 58, 72
3, 136437, Note_on_c, 1, 55, 0
3, 136439, Note_on_c, 1, 58, 0
3, 136439, Control_c, 1, 64, 0
3, 136440, Note_on_c, 1, 53, 89
3, 136440, Note_on_c, 1, 57, 89
3, 136440, Control_c, 1, 64, 0
3, 136454, Note_on_c, 1, 57, 0
3, 136455, Control_c, 1, 64, 127
3, 136455, Note_on_c, 1, 65, 85
3, 136467, Control_c, 1, 64, 127
3, 136469, Note_on_c, 1, 65, 0
3, 136470, Note_on_c, 1, 62, 80
3, 136484, Note_on_c, 1, 62, 0
3, 136485, Note_on_c, 1, 57, 76
3, 136489, Control_c, 1, 64, 0
3, 136495, Note_on_c, 1, 53, 0
3, 136499, Note_on_c, 1, 57, 0
3, 136500, Note_on_c, 1, 52, 93
3, 136500, Note_on_c, 1, 57, 89
3, 136509, Control_c, 1, 64, 127
3, 136514, Note_on_c, 1, 57, 0
3, 136514, Note_on_c, 1, 52, 0
3, 136515, Note_on_c, 1, 67, 89
3, 136529, Note_on_c, 1, 67, 0
3, 136530, Note_on_c, 1, 61, 85
3, 136544, Note_on_c, 1, 61, 0
3, 136545, Note_on_c, 1, 57, 85
3, 136551, Control_c, 1, 64, 0
3, 136559, Note_on_c, 1, 57, 0
3, 136560, Note_on_c, 1, 38, 102
3, 136560, Control_c, 1, 64, 0
3, 136575, Control_c, 1, 64, 127
3, 136575, Note_on_c, 1, 50, 76
3, 136579, Control_c, 1, 64, 127
3, 136589, Note_on_c, 1, 50, 0
3, 136590, Note_on_c, 1, 53, 72
3, 136604, Note_on_c, 1, 53, 0
3, 136605, Note_on_c, 1, 57, 80
3, 136619, Note_on_c, 1, 57, 0
3, 136620, Note_on_c, 1, 62, 76
3, 136627, Note_on_c, 1, 38, 0
3, 136634, Note_on_c, 1, 62, 0
3, 136635, Note_on_c, 1, 57, 76
3, 136649, Note_on_c, 1, 57, 0
3, 136650, Note_on_c, 1, 53, 80
3, 136664, Note_on_c, 1, 53, 0
3, 136665, Note_on_c, 1, 50, 76
3, 136679, Note_on_c, 1, 50, 0
3, 136680, Note_on_c, 1, 65, 80
3, 136688, Control_c, 1, 64, 0
3, 136694, Note_on_c, 1, 65, 0
3, 136695, Note_on_c, 1, 62, 80
3, 136709, Note_on_c, 1, 62, 0
3, 136710, Note_on_c, 1, 57, 80
3, 136724, Note_on_c, 1, 57, 0
3, 136725, Note_on_c, 1, 53, 72
3, 136739, Note_on_c, 1, 53, 0
3, 136740, Note_on_c, 1, 53, 93
3, 136740, Control_c, 1, 64, 0
3, 136747, Control_c, 1, 64, 127
3, 136755, Control_c, 1, 64, 127
3, 136755, Note_on_c, 1, 57, 68
3, 136769, Note_on_c, 1, 57, 0
3, 136770, Note_on_c, 1, 69, 93
3, 136784, Note_on_c, 1, 69, 0
3, 136785, Note_on_c, 1, 57, 64
3, 136795, Note_on_c, 1, 53, 0
3, 136799, Note_on_c, 1, 57, 0
3, 136800, Note_on_c, 1, 52, 98
3, 136800, Control_c, 1, 64, 0
3, 136815, Note_on_c, 1, 57, 80
3, 136824, Control_c, 1, 64, 127
3, 136829, Note_on_c, 1, 57, 0
3, 136830, Note_on_c, 1, 67, 93
3, 136839, Control_c, 1, 64, 0
3, 136844, Note_on_c, 1, 67, 0
3, 136845, Note_on_c, 1, 57, 64
3, 136859, Note_on_c, 1, 57, 0
3, 136859, Note_on_c, 1, 52, 0
3, 136860, Note_on_c, 1, 50, 93
3, 136864, Control_c, 1, 64, 127
3, 136875, Note_on_c, 1, 57, 85
3, 136880, Note_on_c, 1, 50, 0
3, 136889, Note_on_c, 1, 57, 0
3, 136890, Note_on_c, 1, 65, 93
3, 136904, Note_on_c, 1, 65, 0
3, 136905, Note_on_c, 1, 57, 72
3, 136914, Control_c, 1, 64, 0
3, 136919, Note_on_c, 1, 57, 0
3, 136920, Note_on_c, 1, 46, 80
3, 136920, Note_on_c, 1, 34, 98
3, 136920, Control_c, 1, 64, 0
3, 136935, Control_c, 1, 64, 127
3, 136935, Note_on_c, 1, 55, 85
3, 136949, Note_on_c, 1, 55, 0
3, 136950, Note_on_c, 1, 58, 76
3, 136955, Control_c, 1, 64, 127
3, 136964, Note_on_c, 1, 58, 0
3, 136965, Note_on_c, 1, 62, 89
3, 136979, Note_on_c, 1, 62, 0
3, 136980, Note_on_c, 1, 67, 80
3, 136984, Note_on_c, 1, 34, 0
3, 136989, Note_on_c, 1, 46, 0
3, 136994, Note_on_c, 1, 67, 0
3, 136995, Note_on_c, 1, 62, 80
3, 137009, Note_on_c, 1, 62, 0
3, 137010, Note_on_c, 1, 58, 68
3, 137024, Note_on_c, 1, 58, 0
3, 137025, Note_on_c, 1, 55, 64
3, 137039, Note_on_c, 1, 55, 0
3, 137040, Note_on_c, 1, 70, 85
3, 137043, Control_c, 1, 64, 0
3, 137054, Note_on_c, 1, 70, 0
3, 137055, Note_on_c, 1, 67, 76
3, 137069, Note_on_c, 1, 67, 0
3, 137070, Note_on_c, 1, 62, 76
3, 137084, Note_on_c, 1, 62, 0
3, 137085, Note_on_c, 1, 58, 62
3, 137099, Note_on_c, 1, 58, 0
3, 137100, Note_on_c, 1, 58, 107
3, 137115, Control_c, 1, 64, 127
3, 137115, Note_on_c, 1, 62, 89
3, 137129, Note_on_c, 1, 62, 0
3, 137130, Note_on_c, 1, 74, 93
3, 137144, Note_on_c, 1, 74, 0
3, 137145, Note_on_c, 1, 62, 68
3, 137152, Note_on_c, 1, 58, 0
3, 137159, Note_on_c, 1, 62, 0
3, 137160, Note_on_c, 1, 57, 98
3, 137163, Control_c, 1, 64, 0
3, 137175, Note_on_c, 1, 62, 89
3, 137188, Control_c, 1, 64, 127
3, 137189, Note_on_c, 1, 62, 0
3, 137190, Note_on_c, 1, 72, 89
3, 137203, Control_c, 1, 64, 0
3, 137204, Note_on_c, 1, 72, 0
3, 137205, Note_on_c, 1, 62, 72
3, 137212, Note_on_c, 1, 57, 0
3, 137219, Note_on_c, 1, 62, 0
3, 137220, Note_on_c, 1, 55, 89
3, 137220, Control_c, 1, 64, 0
3, 137221, Control_c, 1, 64, 127
3, 137234, Note_on_c, 1, 55, 0
3, 137235, Control_c, 1, 64, 127
3, 137235, Note_on_c, 1, 62, 80
3, 137249, Note_on_c, 1, 62, 0
3, 137250, Note_on_c, 1, 70, 89
3, 137264, Note_on_c, 1, 70, 0
3, 137265, Note_on_c, 1, 62, 76
3, 137269, Control_c, 1, 64, 0
3, 137279, Note_on_c, 1, 62, 0
3, 137280, Note_on_c, 1, 45, 93
3, 137280, Control_c, 1, 64, 0
3, 137295, Control_c, 1, 64, 127
3, 137295, Note_on_c, 1, 57, 76
3, 137305, Control_c, 1, 64, 127
3, 137309, Note_on_c, 1, 57, 0
3, 137310, Note_on_c, 1, 62, 80
3, 137324, Note_on_c, 1, 62, 0
3, 137325, Note_on_c, 1, 65, 76
3, 137336, Note_on_c, 1, 45, 0
3, 137339, Note_on_c, 1, 65, 0
3, 137340, Note_on_c, 1, 69, 93
3, 137347, Control_c, 1, 64, 0
3, 137354, Note_on_c, 1, 69, 0
3, 137355, Note_on_c, 1, 65, 64
3, 137369, Note_on_c, 1, 65, 0
3, 137370, Note_on_c, 1, 62, 72
3, 137384, Note_on_c, 1, 62, 0
3, 137385, Note_on_c, 1, 57, 64
3, 137399, Note_on_c, 1, 57, 0
3, 137400, Note_on_c, 1, 45, 93
3, 137400, Note_on_c, 1, 62, 85
3, 137407, Control_c, 1, 64, 127
3, 137414, Note_on_c, 1, 62, 0
3, 137415, Note_on_c, 1, 65, 64
3, 137429, Note_on_c, 1, 65, 0
3, 137430, Note_on_c, 1, 69, 76
3, 137444, Note_on_c, 1, 69, 0
3, 137445, Note_on_c, 1, 65, 62
3, 137451, Note_on_c, 1, 45, 0
3, 137459, Note_on_c, 1, 65, 0
3, 137460, Note_on_c, 1, 62, 89
3, 137474, Note_on_c, 1, 62, 0
3, 137475, Note_on_c, 1, 65, 76
3, 137476, Control_c, 1, 64, 0
3, 137489, Note_on_c, 1, 65, 0
3, 137490, Note_on_c, 1, 62, 76
3, 137504, Note_on_c, 1, 62, 0
3, 137505, Note_on_c, 1, 57, 68
3, 137519, Note_on_c, 1, 57, 0
3, 137520, Note_on_c, 1, 45, 93
3, 137520, Control_c, 1, 64, 0
3, 137520, Note_on_c, 1, 61, 85
3, 137534, Note_on_c, 1, 61, 0
3, 137535, Control_c, 1, 64, 127
3, 137535, Control_c, 1, 64, 127
3, 137535, Note_on_c, 1, 67, 76
3, 137549, Note_on_c, 1, 67, 0
3, 137550, Note_on_c, 1, 69, 68
3, 137562, Note_on_c, 1, 45, 0
3, 137564, Note_on_c, 1, 69, 0
3, 137565, Note_on_c, 1, 67, 76
3, 137579, Note_on_c, 1, 67, 0
3, 137580, Note_on_c, 1, 61, 72
3, 137594, Note_on_c, 1, 61, 0
3, 137595, Note_on_c, 1, 67, 89
3, 137609, Note_on_c, 1, 67, 0
3, 137609, Control_c, 1, 64, 0
3, 137610, Note_on_c, 1, 61, 72
3, 137624, Note_on_c, 1, 61, 0
3, 137625, Note_on_c, 1, 57, 80
3, 137639, Note_on_c, 1, 57, 0
3, 137640, Note_on_c, 1, 38, 98
3, 137640, Control_c, 1, 64, 0
3, 137655, Control_c, 1, 64, 127
3, 137655, Control_c, 1, 64, 127
3, 137655, Note_on_c, 1, 50, 85
3, 137669, Note_on_c, 1, 50, 0
3, 137670, Note_on_c, 1, 53, 80
3, 137673, Note_on_c, 1, 38, 0
3, 137684, Note_on_c, 1, 53, 0
3, 137685, Note_on_c, 1, 57, 89
3, 137699, Note_on_c, 1, 57, 0
3, 137700, Note_on_c, 1, 62, 72
3, 137714, Note_on_c, 1, 62, 0
3, 137715, Note_on_c, 1, 57, 76
3, 137729, Note_on_c, 1, 57, 0
3, 137730, Note_on_c, 1, 53, 80
3, 137744, Note_on_c, 1, 53, 0
3, 137745, Note_on_c, 1, 50, 72
3, 137757, Control_c, 1, 64, 0
3, 137759, Note_on_c, 1, 50, 0
3, 137760, Note_on_c, 1, 65, 76
3, 137774, Note_on_c, 1, 65, 0
3, 137775, Note_on_c, 1, 62, 89
3, 137789, Note_on_c, 1, 62, 0
3, 137790, Note_on_c, 1, 57, 76
3, 137804, Note_on_c, 1, 57, 0
3, 137805, Note_on_c, 1, 53, 46
3, 137819, Note_on_c, 1, 53, 0
3, 137820, Note_on_c, 1, 53, 89
3, 137820, Control_c, 1, 64, 0
3, 137835, Control_c, 1, 64, 127
3, 137835, Note_on_c, 1, 57, 89
3, 137849, Note_on_c, 1, 57, 0
3, 137850, Note_on_c, 1, 69, 93
3, 137864, Note_on_c, 1, 69, 0
3, 137865, Note_on_c, 1, 57, 76
3, 137877, Note_on_c, 1, 53, 0
3, 137879, Note_on_c, 1, 57, 0
3, 137880, Note_on_c, 1, 52, 93
3, 137880, Control_c, 1, 64, 0
3, 137895, Control_c, 1, 64, 127
3, 137895, Note_on_c, 1, 57, 93
3, 137909, Note_on_c, 1, 57, 0
3, 137910, Note_on_c, 1, 67, 89
3, 137924, Note_on_c, 1, 67, 0
3, 137925, Note_on_c, 1, 57, 72
3, 137939, Note_on_c, 1, 57, 0
3, 137940, Note_on_c, 1, 52, 0
3, 137940, Note_on_c, 1, 50, 93
3, 137940, Control_c, 1, 64, 0
3, 137954, Control_c, 1, 64, 127
3, 137955, Control_c, 1, 64, 127
3, 137955, Note_on_c, 1, 57, 85
3, 137966, Note_on_c, 1, 50, 0
3, 137969, Note_on_c, 1, 57, 0
3, 137970, Note_on_c, 1, 65, 85
3, 137984, Note_on_c, 1, 65, 0
3, 137985, Note_on_c, 1, 57, 50
3, 137993, Control_c, 1, 64, 0
3, 137999, Note_on_c, 1, 57, 0
3, 138000, Note_on_c, 1, 46, 89
3, 138000, Note_on_c, 1, 34, 98
3, 138015, Control_c, 1, 64, 0
3, 138015, Control_c, 1, 64, 127
3, 138015, Note_on_c, 1, 55, 85
3, 138029, Note_on_c, 1, 55, 0
3, 138030, Note_on_c, 1, 58, 80
3, 138044, Note_on_c, 1, 58, 0
3, 138045, Note_on_c, 1, 62, 76
3, 138048, Control_c, 1, 64, 127
3, 138059, Note_on_c, 1, 62, 0
3, 138060, Note_on_c, 1, 67, 93
3, 138070, Note_on_c, 1, 34, 0
3, 138074, Note_on_c, 1, 67, 0
3, 138074, Note_on_c, 1, 46, 0
3, 138075, Note_on_c, 1, 62, 80
3, 138089, Note_on_c, 1, 62, 0
3, 138090, Note_on_c, 1, 58, 76
3, 138104, Note_on_c, 1, 58, 0
3, 138105, Note_on_c, 1, 55, 76
3, 138113, Control_c, 1, 64, 0
3, 138119, Note_on_c, 1, 55, 0
3, 138120, Note_on_c, 1, 70, 98
3, 138134, Note_on_c, 1, 70, 0
3, 138135, Note_on_c, 1, 67, 57
3, 138149, Note_on_c, 1, 67, 0
3, 138150, Note_on_c, 1, 62, 64
3, 138164, Note_on_c, 1, 62, 0
3, 138165, Note_on_c, 1, 58, 62
3, 138179, Note_on_c, 1, 58, 0
3, 138180, Note_on_c, 1, 58, 89
3, 138180, Control_c, 1, 64, 0
3, 138188, Control_c, 1, 64, 127
3, 138195, Note_on_c, 1, 62, 89
3, 138195, Control_c, 1, 64, 127
3, 138209, Note_on_c, 1, 62, 0
3, 138210, Note_on_c, 1, 74, 93
3, 138224, Note_on_c, 1, 74, 0
3, 138225, Note_on_c, 1, 62, 68
3, 138230, Control_c, 1, 64, 0
3, 138233, Note_on_c, 1, 58, 0
3, 138239, Note_on_c, 1, 62, 0
3, 138240, Note_on_c, 1, 57, 98
3, 138240, Control_c, 1, 64, 0
3, 138255, Control_c, 1, 64, 127
3, 138255, Note_on_c, 1, 62, 89
3, 138266, Control_c, 1, 64, 127
3, 138269, Note_on_c, 1, 62, 0
3, 138270, Note_on_c, 1, 72, 93
3, 138284, Note_on_c, 1, 72, 0
3, 138285, Note_on_c, 1, 62, 62
3, 138288, Note_on_c, 1, 57, 0
3, 138299, Note_on_c, 1, 62, 0
3, 138300, Note_on_c, 1, 55, 89
3, 138300, Control_c, 1, 64, 0
3, 138311, Note_on_c, 1, 55, 0
3, 138315, Note_on_c, 1, 62, 89
3, 138315, Control_c, 1, 64, 127
3, 138329, Note_on_c, 1, 62, 0
3, 138330, Note_on_c, 1, 70, 76
3, 138340, Control_c, 1, 64, 0
3, 138344, Note_on_c, 1, 70, 0
3, 138345, Note_on_c, 1, 62, 62
3, 138359, Note_on_c, 1, 62, 0
3, 138360, Note_on_c, 1, 62, 89
3, 138360, Note_on_c, 1, 36, 98
3, 138360, Note_on_c, 1, 48, 93
3, 138360, Control_c, 1, 64, 0
3, 138360, Control_c, 1, 64, 127
3, 138360, Control_c, 1, 64, 0
3, 138360, Note_on_c, 1, 64, 89
3, 138360, Note_on_c, 1, 55, 93
3, 138360, Note_on_c, 1, 58, 89
3, 138360, Control_c, 1, 64, 127
3, 138392, Control_c, 1, 64, 127
3, 138599, Note_on_c, 1, 58, 0
3, 138599, Note_on_c, 1, 64, 0
3, 138599, Note_on_c, 1, 62, 0
3, 138599, Note_on_c, 1, 55, 0
3, 138600, Control_c, 1, 64, 0
3, 138609, Note_on_c, 1, 48, 0
3, 138610, Note_on_c, 1, 36, 0
3, 138611, Control_c, 1, 64, 0
3, 138780, Note_on_c, 1, 48, 89
3, 138840, Note_on_c, 1, 48, 0
3, 138840, Note_on_c, 1, 52, 93
3, 138900, Note_on_c, 1, 52, 0
3, 138900, Note_on_c, 1, 55, 85
3, 138960, Note_on_c, 1, 55, 0
3, 138960, Note_on_c, 1, 58, 85
3, 138990, Note_on_c, 1, 58, 0
3, 139020, Note_on_c, 1, 58, 85
3, 139050, Note_on_c, 1, 58, 0
3, 139080, Note_on_c, 1, 58, 98
3, 139140, Note_on_c, 1, 36, 93
3, 139146, Control_c, 1, 64, 127
3, 139200, Note_on_c, 1, 36, 0
3, 139200, Note_on_c, 1, 40, 89
3, 139209, Control_c, 1, 64, 0
3, 139231, Control_c, 1, 64, 127
3, 139260, Note_on_c, 1, 40, 0
3, 139260, Note_on_c, 1, 58, 0
3, 139260, Note_on_c, 1, 57, 89
3, 139260, Note_on_c, 1, 43, 85
3, 139266, Control_c, 1, 64, 0
3, 139274, Note_on_c, 1, 57, 0
3, 139275, Note_on_c, 1, 55, 85
3, 139283, Control_c, 1, 64, 127
3, 139289, Note_on_c, 1, 55, 0
3, 139290, Note_on_c, 1, 53, 89
3, 139304, Note_on_c, 1, 53, 0
3, 139305, Note_on_c, 1, 52, 11
3, 139315, Control_c, 1, 64, 0
3, 139319, Note_on_c, 1, 52, 0
3, 139320, Note_on_c, 1, 43, 0
3, 139320, Note_on_c, 1, 50, 85
3, 139320, Note_on_c, 1, 46, 93
3, 139330, Control_c, 1, 64, 127
3, 139350, Note_on_c, 1, 46, 0
3, 139350, Note_on_c, 1, 50, 0
3, 139350, Note_on_c, 1, 48, 89
3, 139360, Control_c, 1, 64, 0
3, 139364, Note_on_c, 1, 48, 0
3, 139380, Note_on_c, 1, 48, 89
3, 139380, Note_on_c, 1, 46, 98
3, 139410, Note_on_c, 1, 46, 0
3, 139440, Note_on_c, 1, 48, 0
3, 139440, Note_on_c, 1, 48, 89
3, 139440, Note_on_c, 1, 46, 93
3, 139467, Control_c, 1, 64, 127
3, 139620, Note_on_c, 1, 46, 0
3, 139620, Note_on_c, 1, 48, 0
3, 139620, Note_on_c, 1, 50, 80
3, 139620, Note_on_c, 1, 45, 89
3, 139623, Control_c, 1, 64, 0
3, 139634, Note_on_c, 1, 45, 0
3, 139634, Note_on_c, 1, 50, 0
3, 139635, Note_on_c, 1, 48, 76
3, 139635, Note_on_c, 1, 43, 76
3, 139642, Control_c, 1, 64, 127
3, 139649, Note_on_c, 1, 43, 0
3, 139649, Note_on_c, 1, 48, 0
3, 139650, Note_on_c, 1, 47, 76
3, 139650, Note_on_c, 1, 41, 80
3, 139664, Note_on_c, 1, 41, 0
3, 139664, Note_on_c, 1, 47, 0
3, 139665, Note_on_c, 1, 48, 64
3, 139665, Note_on_c, 1, 40, 80
3, 139679, Note_on_c, 1, 40, 0
3, 139679, Note_on_c, 1, 48, 0
3, 139680, Note_on_c, 1, 52, 93
3, 139680, Note_on_c, 1, 38, 80
3, 139694, Note_on_c, 1, 52, 0
3, 139695, Control_c, 1, 64, 0
3, 139710, Note_on_c, 1, 36, 62
3, 139725, Note_on_c, 1, 38, 0
3, 139740, Note_on_c, 1, 36, 0
3, 139740, Note_on_c, 1, 52, 98
3, 139740, Note_on_c, 1, 36, 98
3, 139754, Note_on_c, 1, 52, 0
3, 139770, Note_on_c, 1, 36, 0
3, 139780, Control_c, 1, 64, 127
3, 139796, Control_c, 1, 64, 0
3, 139800, Note_on_c, 1, 52, 102
3, 139800, Note_on_c, 1, 36, 98
3, 139827, Control_c, 1, 64, 127
3, 139905, Note_on_c, 1, 36, 0
3, 139920, Note_on_c, 1, 52, 0
3, 139928, Control_c, 1, 64, 0
3, 140520, Note_on_c, 1, 53, 80
3, 140640, Note_on_c, 1, 53, 0
3, 140640, Note_on_c, 1, 65, 85
3, 140760, Note_on_c, 1, 65, 0
3, 140760, Note_on_c, 1, 60, 85
3, 140880, Note_on_c, 1, 60, 0
3, 140880, Note_on_c, 1, 57, 89
3, 141000, Note_on_c, 1, 57, 0
3, 141000, Note_on_c, 1, 53, 76
3, 141075, Note_on_c, 1, 53, 0
3, 141240, Note_on_c, 1, 54, 68
3, 141240, Note_on_c, 1, 57, 98
3, 141240, Note_on_c, 1, 50, 93
3, 141264, Control_c, 1, 64, 127
3, 141300, Note_on_c, 1, 57, 0
3, 141315, Note_on_c, 1, 54, 0
3, 141360, Note_on_c, 1, 50, 0
3, 141360, Note_on_c, 1, 58, 76
3, 141360, Note_on_c, 1, 55, 72
3, 141360, Note_on_c, 1, 46, 89
3, 141361, Control_c, 1, 64, 0
3, 141393, Control_c, 1, 64, 127
3, 141412, Control_c, 1, 64, 0
3, 141420, Note_on_c, 1, 46, 0
3, 141420, Note_on_c, 1, 55, 0
3, 141420, Note_on_c, 1, 58, 0
3, 141420, Note_on_c, 1, 60, 72
3, 141420, Note_on_c, 1, 57, 89
3, 141420, Note_on_c, 1, 45, 85
3, 141442, Control_c, 1, 64, 127
3, 141465, Note_on_c, 1, 57, 0
3, 141465, Note_on_c, 1, 60, 0
3, 141471, Control_c, 1, 64, 0
3, 141480, Note_on_c, 1, 45, 0
3, 141480, Note_on_c, 1, 58, 60
3, 141480, Note_on_c, 1, 62, 85
3, 141480, Note_on_c, 1, 43, 89
3, 141501, Control_c, 1, 64, 127
3, 141523, Control_c, 1, 64, 0
3, 141525, Note_on_c, 1, 62, 0
3, 141525, Note_on_c, 1, 58, 0
3, 141540, Note_on_c, 1, 43, 0
3, 141540, Note_on_c, 1, 58, 76
3, 141540, Note_on_c, 1, 55, 64
3, 141540, Note_on_c, 1, 46, 89
3, 141562, Control_c, 1, 64, 127
3, 141585, Note_on_c, 1, 55, 0
3, 141585, Control_c, 1, 64, 0
3, 141600, Note_on_c, 1, 46, 0
3, 141600, Note_on_c, 1, 58, 0
3, 141600, Note_on_c, 1, 52, 80
3, 141600, Note_on_c, 1, 55, 89
3, 141600, Note_on_c, 1, 48, 85
3, 141613, Control_c, 1, 64, 127
3, 141660, Control_c, 1, 64, 0
3, 141660, Note_on_c, 1, 36, 89
3, 141679, Control_c, 1, 64, 127
3, 141705, Note_on_c, 1, 36, 0
3, 141720, Note_on_c, 1, 36, 89
3, 141750, Note_on_c, 1, 52, 0
3, 141750, Note_on_c, 1, 55, 0
3, 141765, Note_on_c, 1, 36, 0
3, 141765, Note_on_c, 1, 53, 72
3, 141765, Note_on_c, 1, 57, 85
3, 141779, Note_on_c, 1, 57, 0
3, 141779, Note_on_c, 1, 53, 0
3, 141779, Control_c, 1, 64, 0
3, 141780, Note_on_c, 1, 53, 68
3, 141780, Note_on_c, 1, 50, 76
3, 141780, Note_on_c, 1, 41, 85
3, 141799, Control_c, 1, 64, 127
3, 141810, Note_on_c, 1, 50, 0
3, 141810, Note_on_c, 1, 53, 0
3, 141825, Note_on_c, 1, 53, 76
3, 141825, Note_on_c, 1, 57, 76
3, 141837, Control_c, 1, 64, 0
3, 141839, Note_on_c, 1, 57, 0
3, 141839, Note_on_c, 1, 53, 0
3, 141840, Note_on_c, 1, 41, 0
3, 141840, Note_on_c, 1, 52, 72
3, 141840, Note_on_c, 1, 55, 85
3, 141840, Note_on_c, 1, 36, 76
3, 141857, Control_c, 1, 64, 127
3, 141907, Control_c, 1, 64, 0
3, 141915, Note_on_c, 1, 36, 0
3, 141915, Note_on_c, 1, 48, 0
3, 141915, Note_on_c, 1, 52, 0
3, 141915, Note_on_c, 1, 55, 0
3, 141960, Note_on_c, 1, 53, 93
3, 141960, Note_on_c, 1, 41, 93
3, 141978, Control_c, 1, 64, 127
3, 142080, Note_on_c, 1, 41, 0
3, 142080, Note_on_c, 1, 29, 98
3, 142081, Control_c, 1, 64, 0
3, 142101, Control_c, 1, 64, 127
3, 142125, Note_on_c, 1, 53, 0
3, 142140, Note_on_c, 1, 55, 98
3, 142170, Note_on_c, 1, 55, 0
3, 142170, Note_on_c, 1, 29, 0
3, 142170, Note_on_c, 1, 57, 93
3, 142200, Note_on_c, 1, 57, 0
3, 142200, Note_on_c, 1, 58, 76
3, 142208, Control_c, 1, 64, 0
3, 142230, Note_on_c, 1, 58, 0
3, 142230, Note_on_c, 1, 60, 89
3, 142260, Note_on_c, 1, 60, 0
3, 142260, Note_on_c, 1, 62, 93
3, 142290, Note_on_c, 1, 62, 0
3, 142290, Note_on_c, 1, 64, 89
3, 142320, Note_on_c, 1, 64, 0
3, 142320, Note_on_c, 1, 65, 89
3, 142350, Note_on_c, 1, 64, 76
3, 142365, Note_on_c, 1, 65, 0
3, 142380, Note_on_c, 1, 64, 0
3, 142380, Note_on_c, 1, 62, 72
3, 142410, Note_on_c, 1, 62, 0
3, 142410, Note_on_c, 1, 60, 68
3, 142440, Note_on_c, 1, 60, 0
3, 142440, Note_on_c, 1, 58, 62
3, 142470, Note_on_c, 1, 58, 0
3, 142470, Note_on_c, 1, 57, 72
3, 142500, Note_on_c, 1, 57, 0
3, 142500, Note_on_c, 1, 55, 80
3, 142530, Note_on_c, 1, 55, 0
3, 142530, Note_on_c, 1, 53, 62
3, 142560, Note_on_c, 1, 53, 0
3, 142560, Note_on_c, 1, 52, 93
3, 142635, Note_on_c, 1, 52, 0
3, 142680, Note_on_c, 1, 53, 85
3, 142740, Note_on_c, 1, 53, 0
3, 142740, Note_on_c, 1, 57, 85
3, 142800, Note_on_c, 1, 57, 0
3, 142800, Note_on_c, 1, 60, 85
3, 142905, Note_on_c, 1, 60, 0
3, 142920, Note_on_c, 1, 60, 89
3, 142920, Note_on_c, 1, 48, 93
3, 142948, Control_c, 1, 64, 127
3, 143025, Note_on_c, 1, 60, 0
3, 143038, Control_c, 1, 64, 0
3, 143040, Note_on_c, 1, 48, 0
3, 143040, Note_on_c, 1, 60, 89
3, 143040, Note_on_c, 1, 41, 89
3, 143066, Control_c, 1, 64, 127
3, 143190, Note_on_c, 1, 60, 0
3, 143216, Control_c, 1, 64, 0
3, 143220, Note_on_c, 1, 41, 0
3, 143220, Note_on_c, 1, 60, 89
3, 143220, Note_on_c, 1, 48, 89
3, 143235, Control_c, 1, 64, 127
3, 143277, Control_c, 1, 64, 0
3, 143280, Note_on_c, 1, 48, 0
3, 143280, Note_on_c, 1, 60, 0
3, 143280, Note_on_c, 1, 57, 93
3, 143280, Note_on_c, 1, 45, 89
3, 143298, Control_c, 1, 64, 127
3, 143326, Control_c, 1, 64, 0
3, 143340, Note_on_c, 1, 45, 0
3, 143340, Note_on_c, 1, 57, 0
3, 143340, Note_on_c, 1, 53, 76
3, 143340, Control_c, 1, 64, 127
3, 143340, Note_on_c, 1, 41, 93
3, 143370, Note_on_c, 1, 41, 0
3, 143400, Note_on_c, 1, 53, 0
3, 143400, Note_on_c, 1, 48, 93
3, 143400, Note_on_c, 1, 36, 93
3, 143402, Control_c, 1, 64, 0
3, 143460, Note_on_c, 1, 52, 85
3, 143520, Note_on_c, 1, 52, 0
3, 143520, Note_on_c, 1, 58, 76
3, 143520, Note_on_c, 1, 60, 89
3, 143580, Note_on_c, 1, 52, 76
3, 143610, Note_on_c, 1, 52, 0
3, 143610, Note_on_c, 1, 58, 0
3, 143610, Note_on_c, 1, 60, 0
3, 143640, Note_on_c, 1, 53, 85
3, 143640, Note_on_c, 1, 60, 89
3, 143700, Note_on_c, 1, 60, 0
3, 143700, Note_on_c, 1, 53, 0
3, 143700, Note_on_c, 1, 57, 85
3, 143730, Note_on_c, 1, 36, 0
3, 143730, Note_on_c, 1, 48, 0
3, 143745, Note_on_c, 1, 57, 0
3, 143760, Note_on_c, 1, 36, 98
3, 143760, Note_on_c, 1, 48, 93
3, 143820, Note_on_c, 1, 52, 80
3, 143880, Note_on_c, 1, 52, 0
3, 143880, Note_on_c, 1, 58, 72
3, 143880, Note_on_c, 1, 60, 89
3, 143940, Note_on_c, 1, 60, 0
3, 143940, Note_on_c, 1, 58, 0
3, 143940, Note_on_c, 1, 52, 80
3, 143970, Note_on_c, 1, 52, 0
3, 144000, Note_on_c, 1, 53, 85
3, 144000, Note_on_c, 1, 60, 89
3, 144060, Note_on_c, 1, 60, 0
3, 144060, Note_on_c, 1, 53, 0
3, 144060, Note_on_c, 1, 57, 85
3, 144090, Note_on_c, 1, 48, 0
3, 144090, Note_on_c, 1, 36, 0
3, 144105, Note_on_c, 1, 57, 0
3, 144120, Note_on_c, 1, 36, 98
3, 144120, Note_on_c, 1, 48, 89
3, 144180, Note_on_c, 1, 52, 76
3, 144180, Note_on_c, 1, 55, 85
3, 144240, Note_on_c, 1, 52, 0
3, 144240, Note_on_c, 1, 60, 80
3, 144255, Note_on_c, 1, 55, 0
3, 144270, Note_on_c, 1, 60, 0
3, 144300, Note_on_c, 1, 53, 85
3, 144300, Note_on_c, 1, 60, 89
3, 144330, Note_on_c, 1, 60, 0
3, 144345, Note_on_c, 1, 53, 0
3, 144360, Note_on_c, 1, 58, 64
3, 144360, Note_on_c, 1, 60, 80
3, 144360, Note_on_c, 1, 52, 85
3, 144390, Note_on_c, 1, 52, 0
3, 144390, Note_on_c, 1, 60, 0
3, 144405, Note_on_c, 1, 58, 0
3, 144420, Note_on_c, 1, 57, 85
3, 144420, Note_on_c, 1, 53, 76
3, 144420, Note_on_c, 1, 60, 76
3, 144435, Note_on_c, 1, 48, 0
3, 144435, Note_on_c, 1, 36, 0
3, 144465, Note_on_c, 1, 53, 0
3, 144465, Note_on_c, 1, 57, 0
3, 144465, Note_on_c, 1, 60, 0
3, 144480, Note_on_c, 1, 36, 98
3, 144480, Note_on_c, 1, 48, 89
3, 144540, Note_on_c, 1, 60, 89
3, 144540, Note_on_c, 1, 53, 85
3, 144600, Note_on_c, 1, 53, 0
3, 144600, Note_on_c, 1, 60, 0
3, 144600, Note_on_c, 1, 52, 89
3, 144660, Note_on_c, 1, 52, 0
3, 144660, Note_on_c, 1, 48, 0
3, 144660, Note_on_c, 1, 36, 0
3, 144660, Note_on_c, 1, 60, 89
3, 144668, Control_c, 1, 64, 0
3, 144688, Control_c, 1, 64, 127
3, 144720, Note_on_c, 1, 60, 0
3, 144720, Note_on_c, 1, 55, 89
3, 144729, Control_c, 1, 64, 0
3, 144746, Control_c, 1, 64, 127
3, 144780, Note_on_c, 1, 55, 0
3, 144780, Note_on_c, 1, 52, 89
3, 144783, Control_c, 1, 64, 0
3, 144799, Control_c, 1, 64, 127
3, 144840, Note_on_c, 1, 52, 0
3, 144840, Note_on_c, 1, 48, 85
3, 144850, Control_c, 1, 64, 0
3, 144870, Note_on_c, 1, 55, 93
3, 144880, Control_c, 1, 64, 127
3, 144900, Note_on_c, 1, 55, 0
3, 144900, Note_on_c, 1, 58, 85
3, 144930, Note_on_c, 1, 60, 76
3, 144945, Note_on_c, 1, 58, 0
3, 144960, Note_on_c, 1, 60, 0
3, 144960, Note_on_c, 1, 64, 89
3, 144990, Note_on_c, 1, 60, 80
3, 145005, Note_on_c, 1, 64, 0
3, 145020, Note_on_c, 1, 58, 76
3, 145020, Note_on_c, 1, 36, 85
3, 145035, Note_on_c, 1, 60, 0
3, 145035, Note_on_c, 1, 48, 0
3, 145050, Note_on_c, 1, 58, 0
3, 145050, Note_on_c, 1, 55, 76
3, 145065, Note_on_c, 1, 36, 0
3, 145071, Control_c, 1, 64, 0
3, 145080, Note_on_c, 1, 55, 0
3, 145080, Note_on_c, 1, 65, 76
3, 145080, Note_on_c, 1, 41, 89
3, 145094, Control_c, 1, 64, 127
3, 145110, Note_on_c, 1, 65, 0
3, 145110, Note_on_c, 1, 60, 64
3, 145116, Control_c, 1, 64, 0
3, 145139, Control_c, 1, 64, 127
3, 145140, Note_on_c, 1, 41, 0
3, 145140, Note_on_c, 1, 57, 76
3, 145140, Note_on_c, 1, 45, 89
3, 145155, Note_on_c, 1, 60, 0
3, 145170, Note_on_c, 1, 57, 0
3, 145170, Note_on_c, 1, 53, 76
3, 145184, Note_on_c, 1, 53, 0
3, 145192, Control_c, 1, 64, 0
3, 145200, Note_on_c, 1, 45, 0
3, 145200, Note_on_c, 1, 48, 89
3, 145222, Control_c, 1, 64, 127
3, 145230, Note_on_c, 1, 55, 93
3, 145260, Note_on_c, 1, 55, 0
3, 145260, Note_on_c, 1, 58, 85
3, 145290, Note_on_c, 1, 58, 0
3, 145290, Note_on_c, 1, 60, 89
3, 145320, Note_on_c, 1, 60, 0
3, 145320, Note_on_c, 1, 64, 93
3, 145350, Note_on_c, 1, 64, 0
3, 145350, Note_on_c, 1, 60, 76
3, 145378, Control_c, 1, 64, 0
3, 145380, Note_on_c, 1, 60, 0
3, 145380, Note_on_c, 1, 48, 0
3, 145380, Note_on_c, 1, 58, 80
3, 145380, Note_on_c, 1, 36, 85
3, 145397, Control_c, 1, 64, 127
3, 145410, Note_on_c, 1, 58, 0
3, 145410, Note_on_c, 1, 55, 62
3, 145430, Control_c, 1, 64, 0
3, 145440, Note_on_c, 1, 55, 0
3, 145440, Note_on_c, 1, 36, 0
3, 145440, Note_on_c, 1, 65, 89
3, 145440, Note_on_c, 1, 41, 89
3, 145453, Control_c, 1, 64, 127
3, 145470, Note_on_c, 1, 65, 0
3, 145470, Note_on_c, 1, 60, 85
3, 145491, Control_c, 1, 64, 0
3, 145500, Note_on_c, 1, 60, 0
3, 145500, Note_on_c, 1, 41, 0
3, 145500, Note_on_c, 1, 57, 89
3, 145500, Note_on_c, 1, 45, 85
3, 145512, Control_c, 1, 64, 127
3, 145530, Note_on_c, 1, 57, 0
3, 145530, Note_on_c, 1, 53, 85
3, 145554, Control_c, 1, 64, 0
3, 145560, Note_on_c, 1, 53, 0
3, 145560, Note_on_c, 1, 45, 0
3, 145560, Note_on_c, 1, 48, 89
3, 145575, Control_c, 1, 64, 127
3, 145590, Note_on_c, 1, 52, 85
3, 145620, Note_on_c, 1, 52, 0
3, 145620, Note_on_c, 1, 55, 89
3, 145635, Note_on_c, 1, 48, 0
3, 145644, Control_c, 1, 64, 0
3, 145650, Note_on_c, 1, 55, 0
3, 145650, Note_on_c, 1, 60, 85
3, 145680, Note_on_c, 1, 60, 0
3, 145680, Note_on_c, 1, 41, 93
3, 145695, Control_c, 1, 64, 127
3, 145710, Note_on_c, 1, 50, 93
3, 145740, Note_on_c, 1, 50, 0
3, 145740, Note_on_c, 1, 41, 0
3, 145740, Note_on_c, 1, 57, 93
3, 145745, Control_c, 1, 64, 0
3, 145770, Note_on_c, 1, 57, 0
3, 145770, Note_on_c, 1, 60, 80
3, 145784, Note_on_c, 1, 60, 0
3, 145800, Note_on_c, 1, 43, 93
3, 145806, Control_c, 1, 64, 127
3, 145830, Note_on_c, 1, 53, 102
3, 145860, Note_on_c, 1, 53, 0
3, 145860, Note_on_c, 1, 43, 0
3, 145860, Note_on_c, 1, 55, 80
3, 145874, Control_c, 1, 64, 0
3, 145890, Note_on_c, 1, 55, 0
3, 145890, Note_on_c, 1, 62, 93
3, 145920, Note_on_c, 1, 62, 0
3, 145920, Note_on_c, 1, 45, 98
3, 145933, Control_c, 1, 64, 127
3, 145950, Note_on_c, 1, 52, 76
3, 145980, Note_on_c, 1, 45, 0
3, 145980, Note_on_c, 1, 60, 89
3, 145994, Control_c, 1, 64, 0
3, 145995, Note_on_c, 1, 52, 0
3, 146010, Note_on_c, 1, 60, 0
3, 146010, Note_on_c, 1, 64, 89
3, 146024, Note_on_c, 1, 64, 0
3, 146040, Note_on_c, 1, 41, 98
3, 146051, Control_c, 1, 64, 127
3, 146070, Note_on_c, 1, 57, 102
3, 146100, Note_on_c, 1, 57, 0
3, 146100, Note_on_c, 1, 41, 0
3, 146100, Note_on_c, 1, 62, 93
3, 146109, Control_c, 1, 64, 0
3, 146130, Note_on_c, 1, 62, 0
3, 146130, Note_on_c, 1, 65, 93
3, 146144, Note_on_c, 1, 65, 0
3, 146160, Note_on_c, 1, 43, 98
3, 146175, Control_c, 1, 64, 127
3, 146190, Note_on_c, 1, 53, 98
3, 146220, Note_on_c, 1, 53, 0
3, 146220, Note_on_c, 1, 43, 0
3, 146220, Note_on_c, 1, 55, 89
3, 146242, Control_c, 1, 64, 0
3, 146250, Note_on_c, 1, 55, 0
3, 146250, Note_on_c, 1, 62, 93
3, 146280, Note_on_c, 1, 62, 0
3, 146280, Note_on_c, 1, 45, 107
3, 146289, Control_c, 1, 64, 127
3, 146310, Note_on_c, 1, 52, 76
3, 146324, Note_on_c, 1, 52, 0
3, 146340, Note_on_c, 1, 45, 0
3, 146340, Note_on_c, 1, 60, 89
3, 146353, Control_c, 1, 64, 0
3, 146370, Note_on_c, 1, 60, 0
3, 146370, Note_on_c, 1, 64, 89
3, 146384, Note_on_c, 1, 64, 0
3, 146400, Note_on_c, 1, 41, 93
3, 146408, Control_c, 1, 64, 127
3, 146430, Note_on_c, 1, 57, 89
3, 146460, Note_on_c, 1, 57, 0
3, 146460, Note_on_c, 1, 41, 0
3, 146460, Note_on_c, 1, 62, 89
3, 146477, Control_c, 1, 64, 0
3, 146490, Note_on_c, 1, 62, 0
3, 146490, Note_on_c, 1, 65, 89
3, 146504, Note_on_c, 1, 65, 0
3, 146519, Control_c, 1, 64, 127
3, 146520, Note_on_c, 1, 43, 85
3, 146550, Note_on_c, 1, 53, 89
3, 146564, Note_on_c, 1, 53, 0
3, 146580, Note_on_c, 1, 43, 0
3, 146580, Note_on_c, 1, 55, 85
3, 146594, Note_on_c, 1, 55, 0
3, 146604, Control_c, 1, 64, 0
3, 146610, Note_on_c, 1, 62, 93
3, 146640, Note_on_c, 1, 62, 0
3, 146640, Note_on_c, 1, 52, 93
3, 146640, Note_on_c, 1, 55, 93
3, 146640, Note_on_c, 1, 60, 98
3, 146640, Note_on_c, 1, 36, 107
3, 146652, Control_c, 1, 64, 127
3, 146760, Note_on_c, 1, 36, 0
3, 146760, Note_on_c, 1, 52, 0
3, 146760, Note_on_c, 1, 55, 0
3, 146765, Control_c, 1, 64, 0
3, 146775, Note_on_c, 1, 60, 0
3, 147360, Note_on_c, 1, 53, 80
3, 147480, Note_on_c, 1, 53, 0
3, 147480, Note_on_c, 1, 65, 93
3, 147600, Note_on_c, 1, 65, 0
3, 147600, Note_on_c, 1, 60, 80
3, 147720, Note_on_c, 1, 60, 0
3, 147720, Note_on_c, 1, 57, 93
3, 147840, Note_on_c, 1, 53, 72
3, 147855, Note_on_c, 1, 57, 0
3, 147915, Note_on_c, 1, 53, 0
3, 148080, Note_on_c, 1, 54, 80
3, 148080, Note_on_c, 1, 57, 98
3, 148080, Note_on_c, 1, 50, 98
3, 148110, Control_c, 1, 64, 127
3, 148140, Note_on_c, 1, 57, 0
3, 148140, Note_on_c, 1, 54, 0
3, 148200, Note_on_c, 1, 50, 0
3, 148200, Note_on_c, 1, 58, 89
3, 148200, Note_on_c, 1, 55, 89
3, 148200, Note_on_c, 1, 46, 89
3, 148201, Control_c, 1, 64, 0
3, 148236, Control_c, 1, 64, 127
3, 148243, Control_c, 1, 64, 0
3, 148260, Note_on_c, 1, 46, 0
3, 148260, Note_on_c, 1, 55, 0
3, 148260, Note_on_c, 1, 58, 0
3, 148260, Note_on_c, 1, 57, 89
3, 148260, Note_on_c, 1, 60, 89
3, 148260, Note_on_c, 1, 45, 89
3, 148277, Control_c, 1, 64, 127
3, 148305, Note_on_c, 1, 60, 0
3, 148305, Note_on_c, 1, 57, 0
3, 148308, Control_c, 1, 64, 0
3, 148320, Note_on_c, 1, 45, 0
3, 148320, Note_on_c, 1, 58, 85
3, 148320, Note_on_c, 1, 62, 107
3, 148320, Note_on_c, 1, 43, 85
3, 148354, Control_c, 1, 64, 127
3, 148363, Control_c, 1, 64, 0
3, 148365, Note_on_c, 1, 62, 0
3, 148365, Note_on_c, 1, 58, 0
3, 148380, Note_on_c, 1, 43, 0
3, 148380, Note_on_c, 1, 58, 76
3, 148380, Note_on_c, 1, 55, 89
3, 148380, Note_on_c, 1, 46, 89
3, 148401, Control_c, 1, 64, 127
3, 148410, Note_on_c, 1, 58, 0
3, 148425, Note_on_c, 1, 55, 0
3, 148427, Control_c, 1, 64, 0
3, 148440, Note_on_c, 1, 46, 0
3, 148440, Note_on_c, 1, 55, 89
3, 148440, Note_on_c, 1, 52, 85
3, 148440, Note_on_c, 1, 48, 93
3, 148467, Control_c, 1, 64, 127
3, 148500, Note_on_c, 1, 36, 89
3, 148545, Note_on_c, 1, 36, 0
3, 148560, Note_on_c, 1, 36, 89
3, 148574, Control_c, 1, 64, 127
3, 148590, Note_on_c, 1, 55, 0
3, 148590, Note_on_c, 1, 52, 0
3, 148605, Note_on_c, 1, 53, 76
3, 148605, Note_on_c, 1, 57, 80
3, 148611, Control_c, 1, 64, 0
3, 148616, Control_c, 1, 64, 0
3, 148619, Note_on_c, 1, 57, 0
3, 148619, Note_on_c, 1, 53, 0
3, 148620, Note_on_c, 1, 36, 0
3, 148620, Note_on_c, 1, 53, 89
3, 148620, Note_on_c, 1, 50, 89
3, 148620, Note_on_c, 1, 41, 85
3, 148644, Control_c, 1, 64, 127
3, 148650, Note_on_c, 1, 53, 0
3, 148665, Note_on_c, 1, 50, 0
3, 148665, Note_on_c, 1, 53, 72
3, 148665, Note_on_c, 1, 57, 89
3, 148678, Control_c, 1, 64, 0
3, 148679, Note_on_c, 1, 57, 0
3, 148679, Note_on_c, 1, 53, 0
3, 148680, Note_on_c, 1, 41, 0
3, 148680, Note_on_c, 1, 52, 72
3, 148680, Note_on_c, 1, 55, 89
3, 148680, Note_on_c, 1, 36, 89
3, 148707, Control_c, 1, 64, 127
3, 148755, Note_on_c, 1, 36, 0
3, 148755, Note_on_c, 1, 48, 0
3, 148755, Note_on_c, 1, 52, 0
3, 148755, Note_on_c, 1, 55, 0
3, 148755, Control_c, 1, 64, 0
3, 148800, Note_on_c, 1, 53, 102
3, 148800, Note_on_c, 1, 41, 85
3, 148825, Control_c, 1, 64, 127
3, 148918, Control_c, 1, 64, 0
3, 148920, Note_on_c, 1, 41, 0
3, 148920, Note_on_c, 1, 29, 93
3, 148947, Control_c, 1, 64, 127
3, 148950, Note_on_c, 1, 53, 0
3, 148980, Note_on_c, 1, 55, 107
3, 148995, Note_on_c, 1, 29, 0
3, 149010, Note_on_c, 1, 55, 0
3, 149010, Note_on_c, 1, 57, 89
3, 149040, Note_on_c, 1, 57, 0
3, 149040, Note_on_c, 1, 58, 76
3, 149047, Control_c, 1, 64, 0
3, 149070, Note_on_c, 1, 58, 0
3, 149070, Note_on_c, 1, 60, 80
3, 149100, Note_on_c, 1, 60, 0
3, 149100, Note_on_c, 1, 62, 93
3, 149130, Note_on_c, 1, 62, 0
3, 149130, Note_on_c, 1, 64, 89
3, 149160, Note_on_c, 1, 64, 0
3, 149160, Note_on_c, 1, 65, 89
3, 149190, Note_on_c, 1, 65, 0
3, 149190, Note_on_c, 1, 64, 80
3, 149220, Note_on_c, 1, 64, 0
3, 149220, Note_on_c, 1, 62, 80
3, 149250, Note_on_c, 1, 62, 0
3, 149250, Note_on_c, 1, 60, 85
3, 149280, Note_on_c, 1, 60, 0
3, 149280, Note_on_c, 1, 58, 72
3, 149310, Note_on_c, 1, 58, 0
3, 149310, Note_on_c, 1, 57, 93
3, 149340, Note_on_c, 1, 57, 0
3, 149340, Note_on_c, 1, 55, 62
3, 149370, Note_on_c, 1, 55, 0
3, 149370, Note_on_c, 1, 53, 72
3, 149400, Note_on_c, 1, 53, 0
3, 149400, Note_on_c, 1, 52, 93
3, 149475, Note_on_c, 1, 52, 0
3, 149520, Note_on_c, 1, 53, 89
3, 149580, Note_on_c, 1, 53, 0
3, 149580, Note_on_c, 1, 57, 89
3, 149640, Note_on_c, 1, 57, 0
3, 149640, Note_on_c, 1, 60, 85
3, 149745, Note_on_c, 1, 60, 0
3, 149760, Note_on_c, 1, 60, 89
3, 149760, Note_on_c, 1, 48, 102
3, 149792, Control_c, 1, 64, 127
3, 149850, Note_on_c, 1, 48, 0
3, 149880, Note_on_c, 1, 60, 0
3, 149880, Note_on_c, 1, 41, 68
3, 149880, Note_on_c, 1, 60, 89
3, 149889, Control_c, 1, 64, 127
3, 149940, Note_on_c, 1, 60, 0
3, 149940, Note_on_c, 1, 53, 80
3, 149985, Note_on_c, 1, 53, 0
3, 150000, Note_on_c, 1, 65, 80
3, 150000, Note_on_c, 1, 62, 93
3, 150060, Note_on_c, 1, 65, 0
3, 150060, Note_on_c, 1, 53, 68
3, 150060, Note_on_c, 1, 65, 41
3, 150074, Note_on_c, 1, 65, 0
3, 150075, Note_on_c, 1, 62, 0
3, 150090, Note_on_c, 1, 53, 0
3, 150120, Note_on_c, 1, 64, 76
3, 150120, Note_on_c, 1, 60, 89
3, 150121, Control_c, 1, 64, 0
3, 150134, Control_c, 1, 64, 127
3, 150180, Note_on_c, 1, 53, 68
3, 150210, Note_on_c, 1, 53, 0
3, 150210, Note_on_c, 1, 41, 0
3, 150210, Note_on_c, 1, 64, 0
3, 150210, Note_on_c, 1, 60, 0
3, 150240, Note_on_c, 1, 58, 76
3, 150240, Note_on_c, 1, 41, 76
3, 150240, Note_on_c, 1, 62, 80
3, 150241, Control_c, 1, 64, 0
3, 150256, Control_c, 1, 64, 127
3, 150300, Note_on_c, 1, 58, 0
3, 150300, Note_on_c, 1, 53, 68
3, 150330, Note_on_c, 1, 53, 0
3, 150330, Note_on_c, 1, 62, 0
3, 150360, Note_on_c, 1, 58, 76
3, 150360, Note_on_c, 1, 62, 85
3, 150368, Control_c, 1, 64, 0
3, 150381, Control_c, 1, 64, 127
3, 150420, Note_on_c, 1, 58, 0
3, 150420, Note_on_c, 1, 53, 76
3, 150450, Note_on_c, 1, 62, 0
3, 150465, Note_on_c, 1, 53, 0
3, 150480, Note_on_c, 1, 60, 80
3, 150480, Note_on_c, 1, 57, 85
3, 150485, Control_c, 1, 64, 0
3, 150499, Control_c, 1, 64, 127
3, 150540, Note_on_c, 1, 57, 0
3, 150540, Note_on_c, 1, 53, 85
3, 150570, Note_on_c, 1, 53, 0
3, 150570, Note_on_c, 1, 60, 0
3, 150585, Note_on_c, 1, 41, 0
3, 150600, Note_on_c, 1, 62, 89
3, 150600, Note_on_c, 1, 65, 93
3, 150600, Note_on_c, 1, 43, 76
3, 150606, Control_c, 1, 64, 0
3, 150622, Control_c, 1, 64, 127
3, 150660, Note_on_c, 1, 55, 85
3, 150720, Note_on_c, 1, 55, 0
3, 150720, Note_on_c, 1, 62, 0
3, 150720, Note_on_c, 1, 65, 0
3, 150720, Note_on_c, 1, 43, 0
3, 150720, Note_on_c, 1, 36, 80
3, 150720, Note_on_c, 1, 64, 85
3, 150720, Note_on_c, 1, 60, 89
3, 150727, Control_c, 1, 64, 0
3, 150745, Control_c, 1, 64, 127
3, 150780, Note_on_c, 1, 55, 62
3, 150825, Note_on_c, 1, 55, 0
3, 150825, Note_on_c, 1, 36, 0
3, 150825, Note_on_c, 1, 64, 0
3, 150825, Note_on_c, 1, 60, 0
3, 150840, Note_on_c, 1, 41, 72
3, 150840, Note_on_c, 1, 65, 80
3, 150840, Note_on_c, 1, 60, 80
3, 150840, Note_on_c, 1, 57, 85
3, 150843, Control_c, 1, 64, 0
3, 150855, Control_c, 1, 64, 127
3, 150911, Control_c, 1, 64, 0
3, 150915, Note_on_c, 1, 57, 0
3, 150915, Note_on_c, 1, 41, 0
3, 150915, Note_on_c, 1, 65, 0
3, 150915, Note_on_c, 1, 60, 0
3, 151080, Note_on_c, 1, 60, 85
3, 151085, Control_c, 1, 64, 127
3, 151140, Note_on_c, 1, 60, 0
3, 151147, Control_c, 1, 64, 0
3, 151200, Note_on_c, 1, 60, 89
3, 151202, Control_c, 1, 64, 127
3, 151260, Note_on_c, 1, 60, 0
3, 151267, Control_c, 1, 64, 0
3, 151320, Note_on_c, 1, 29, 62
3, 151320, Note_on_c, 1, 41, 56
3, 151320, Note_on_c, 1, 60, 85
3, 151322, Control_c, 1, 64, 127
3, 151380, Note_on_c, 1, 60, 0
3, 151380, Note_on_c, 1, 53, 85
3, 151395, Note_on_c, 1, 41, 0
3, 151395, Note_on_c, 1, 29, 0
3, 151440, Note_on_c, 1, 53, 0
3, 151440, Note_on_c, 1, 65, 89
3, 151440, Note_on_c, 1, 62, 93
3, 151500, Note_on_c, 1, 65, 0
3, 151500, Note_on_c, 1, 53, 72
3, 151530, Note_on_c, 1, 53, 0
3, 151530, Note_on_c, 1, 62, 0
3, 151560, Note_on_c, 1, 64, 80
3, 151560, Note_on_c, 1, 60, 89
3, 151620, Note_on_c, 1, 60, 0
3, 151620, Note_on_c, 1, 53, 76
3, 151650, Note_on_c, 1, 53, 0
3, 151650, Note_on_c, 1, 64, 0
3, 151680, Note_on_c, 1, 58, 80
3, 151680, Note_on_c, 1, 62, 93
3, 151680, Note_on_c, 1, 29, 72
3, 151680, Note_on_c, 1, 41, 49
3, 151680, Note_on_c, 1, 28, 57
3, 151683, Control_c, 1, 64, 0
3, 151694, Note_on_c, 1, 28, 0
3, 151727, Control_c, 1, 64, 127
3, 151740, Note_on_c, 1, 58, 0
3, 151740, Note_on_c, 1, 62, 0
3, 151740, Note_on_c, 1, 53, 64
3, 151785, Note_on_c, 1, 53, 0
3, 151800, Note_on_c, 1, 58, 76
3, 151800, Note_on_c, 1, 62, 85
3, 151808, Control_c, 1, 64, 0
3, 151819, Control_c, 1, 64, 127
3, 151860, Note_on_c, 1, 58, 0
3, 151860, Note_on_c, 1, 53, 72
3, 151890, Note_on_c, 1, 53, 0
3, 151890, Note_on_c, 1, 62, 0
3, 151920, Note_on_c, 1, 57, 93
3, 151920, Note_on_c, 1, 60, 85
3, 151921, Control_c, 1, 64, 0
3, 151933, Control_c, 1, 64, 127
3, 151980, Note_on_c, 1, 57, 0
3, 151980, Note_on_c, 1, 53, 85
3, 151994, Note_on_c, 1, 53, 0
3, 151995, Note_on_c, 1, 41, 0
3, 151995, Note_on_c, 1, 29, 0
3, 152010, Note_on_c, 1, 60, 0
3, 152040, Note_on_c, 1, 31, 68
3, 152040, Note_on_c, 1, 43, 60
3, 152040, Note_on_c, 1, 55, 89
3, 152040, Control_c, 1, 64, 0
3, 152054, Control_c, 1, 64, 127
3, 152070, Note_on_c, 1, 55, 0
3, 152070, Note_on_c, 1, 57, 85
3, 152084, Note_on_c, 1, 57, 0
3, 152085, Note_on_c, 1, 58, 64
3, 152099, Note_on_c, 1, 58, 0
3, 152100, Note_on_c, 1, 60, 89
3, 152102, Control_c, 1, 64, 0
3, 152114, Note_on_c, 1, 60, 0
3, 152115, Note_on_c, 1, 62, 85
3, 152116, Control_c, 1, 64, 127
3, 152129, Note_on_c, 1, 62, 0
3, 152130, Note_on_c, 1, 64, 76
3, 152144, Note_on_c, 1, 64, 0
3, 152145, Note_on_c, 1, 65, 72
3, 152159, Note_on_c, 1, 65, 0
3, 152160, Note_on_c, 1, 67, 80
3, 152162, Control_c, 1, 64, 0
3, 152174, Note_on_c, 1, 67, 0
3, 152175, Control_c, 1, 64, 127
3, 152175, Note_on_c, 1, 69, 80
3, 152189, Note_on_c, 1, 69, 0
3, 152190, Note_on_c, 1, 70, 62
3, 152204, Note_on_c, 1, 70, 0
3, 152205, Note_on_c, 1, 69, 80
3, 152214, Control_c, 1, 64, 0
3, 152219, Note_on_c, 1, 69, 0
3, 152220, Note_on_c, 1, 67, 93
3, 152234, Note_on_c, 1, 67, 0
3, 152235, Note_on_c, 1, 65, 76
3, 152249, Note_on_c, 1, 65, 0
3, 152250, Note_on_c, 1, 64, 80
3, 152264, Note_on_c, 1, 64, 0
3, 152265, Note_on_c, 1, 62, 80
3, 152279, Note_on_c, 1, 62, 0
3, 152280, Note_on_c, 1, 43, 0
3, 152280, Note_on_c, 1, 31, 0
3, 152280, Note_on_c, 1, 60, 89
3, 152280, Note_on_c, 1, 36, 68
3, 152294, Note_on_c, 1, 60, 0
3, 152295, Note_on_c, 1, 62, 72
3, 152309, Note_on_c, 1, 62, 0
3, 152310, Note_on_c, 1, 64, 80
3, 152324, Note_on_c, 1, 64, 0
3, 152325, Note_on_c, 1, 62, 72
3, 152339, Note_on_c, 1, 62, 0
3, 152340, Note_on_c, 1, 60, 76
3, 152349, Control_c, 1, 64, 127
3, 152354, Note_on_c, 1, 60, 0
3, 152355, Note_on_c, 1, 58, 64
3, 152369, Note_on_c, 1, 58, 0
3, 152370, Note_on_c, 1, 36, 0
3, 152370, Note_on_c, 1, 57, 85
3, 152370, Note_on_c, 1, 38, 89
3, 152384, Note_on_c, 1, 38, 0
3, 152384, Note_on_c, 1, 57, 0
3, 152385, Note_on_c, 1, 40, 76
3, 152385, Note_on_c, 1, 55, 76
3, 152387, Control_c, 1, 64, 0
3, 152399, Note_on_c, 1, 55, 0
3, 152399, Note_on_c, 1, 40, 0
3, 152400, Note_on_c, 1, 53, 102
3, 152400, Note_on_c, 1, 41, 72
3, 152423, Control_c, 1, 64, 127
3, 152520, Note_on_c, 1, 41, 0
3, 152520, Note_on_c, 1, 53, 0
3, 152522, Control_c, 1, 64, 0
3, 152880, Note_on_c, 1, 57, 98
3, 152880, Note_on_c, 1, 48, 89
3, 152880, Note_on_c, 1, 60, 89
3, 152884, Control_c, 1, 64, 127
3, 152939, Control_c, 1, 64, 0
3, 152940, Note_on_c, 1, 60, 0
3, 152940, Note_on_c, 1, 48, 0
3, 152940, Note_on_c, 1, 57, 0
3, 153000, Note_on_c, 1, 52, 93
3, 153000, Note_on_c, 1, 58, 72
3, 153000, Note_on_c, 1, 36, 89
3, 153002, Control_c, 1, 64, 127
3, 153090, Note_on_c, 1, 36, 0
3, 153090, Note_on_c, 1, 58, 0
3, 153090, Note_on_c, 1, 52, 0
3, 153118, Control_c, 1, 64, 0
3, 153120, Note_on_c, 1, 41, 72
3, 153120, Note_on_c, 1, 57, 72
3, 153120, Note_on_c, 1, 53, 68
3, 153133, Control_c, 1, 64, 127
3, 153150, Note_on_c, 1, 53, 0
3, 153150, Note_on_c, 1, 57, 0
3, 153150, Note_on_c, 1, 57, 60
3, 153150, Note_on_c, 1, 60, 68
3, 153164, Note_on_c, 1, 60, 0
3, 153164, Note_on_c, 1, 57, 0
3, 153180, Note_on_c, 1, 60, 72
3, 153180, Note_on_c, 1, 57, 72
3, 153184, Control_c, 1, 64, 0
3, 153194, Note_on_c, 1, 57, 0
3, 153194, Note_on_c, 1, 60, 0
3, 153210, Note_on_c, 1, 57, 89
3, 153210, Note_on_c, 1, 60, 76
3, 153224, Note_on_c, 1, 60, 0
3, 153224, Note_on_c, 1, 57, 0
3, 153240, Note_on_c, 1, 41, 0
3, 153240, Note_on_c, 1, 59, 93
3, 153240, Note_on_c, 1, 56, 85
3, 153244, Control_c, 1, 64, 127
3, 153269, Control_c, 1, 64, 0
3, 153270, Note_on_c, 1, 56, 0
3, 153270, Note_on_c, 1, 59, 0
3, 153270, Note_on_c, 1, 57, 72
3, 153270, Note_on_c, 1, 60, 56
3, 153278, Control_c, 1, 64, 127
3, 153284, Note_on_c, 1, 60, 0
3, 153284, Note_on_c, 1, 57, 0
3, 153295, Control_c, 1, 64, 0
3, 153300, Note_on_c, 1, 60, 76
3, 153300, Note_on_c, 1, 57, 68
3, 153314, Note_on_c, 1, 57, 0
3, 153314, Note_on_c, 1, 60, 0
3, 153330, Note_on_c, 1, 60, 76
3, 153330, Note_on_c, 1, 57, 80
3, 153344, Note_on_c, 1, 57, 0
3, 153344, Note_on_c, 1, 60, 0
3, 153360, Note_on_c, 1, 59, 98
3, 153360, Note_on_c, 1, 56, 93
3, 153366, Control_c, 1, 64, 127
3, 153390, Note_on_c, 1, 56, 0
3, 153390, Note_on_c, 1, 59, 0
3, 153390, Control_c, 1, 64, 0
3, 153390, Note_on_c, 1, 57, 62
3, 153390, Note_on_c, 1, 60, 62
3, 153420, Note_on_c, 1, 60, 0
3, 153420, Note_on_c, 1, 57, 0
3, 153420, Note_on_c, 1, 60, 76
3, 153420, Note_on_c, 1, 57, 80
3, 153434, Note_on_c, 1, 57, 0
3, 153434, Note_on_c, 1, 60, 0
3, 153450, Note_on_c, 1, 57, 80
3, 153450, Note_on_c, 1, 60, 80
3, 153464, Note_on_c, 1, 60, 0
3, 153464, Note_on_c, 1, 57, 0
3, 153480, Note_on_c, 1, 59, 93
3, 153480, Note_on_c, 1, 56, 85
3, 153482, Control_c, 1, 64, 127
3, 153510, Note_on_c, 1, 56, 0
3, 153510, Note_on_c, 1, 59, 0
3, 153510, Note_on_c, 1, 57, 76
3, 153510, Note_on_c, 1, 60, 68
3, 153512, Control_c, 1, 64, 0
3, 153524, Note_on_c, 1, 60, 0
3, 153524, Note_on_c, 1, 57, 0
3, 153540, Note_on_c, 1, 57, 89
3, 153540, Note_on_c, 1, 60, 93
3, 153554, Note_on_c, 1, 60, 0
3, 153554, Note_on_c, 1, 57, 0
3, 153570, Note_on_c, 1, 57, 89
3, 153570, Note_on_c, 1, 60, 85
3, 153584, Note_on_c, 1, 60, 0
3, 153584, Note_on_c, 1, 57, 0
3, 153600, Note_on_c, 1, 56, 85
3, 153600, Note_on_c, 1, 59, 80
3, 153600, Note_on_c, 1, 48, 76
3, 153614, Control_c, 1, 64, 127
3, 153630, Note_on_c, 1, 59, 0
3, 153630, Note_on_c, 1, 56, 0
3, 153630, Note_on_c, 1, 60, 76
3, 153630, Note_on_c, 1, 57, 80
3, 153644, Note_on_c, 1, 57, 0
3, 153644, Note_on_c, 1, 60, 0
3, 153648, Control_c, 1, 64, 0
3, 153660, Note_on_c, 1, 48, 0
3, 153660, Note_on_c, 1, 60, 85
3, 153660, Note_on_c, 1, 57, 72
3, 153674, Note_on_c, 1, 57, 0
3, 153674, Note_on_c, 1, 60, 0
3, 153690, Note_on_c, 1, 60, 89
3, 153690, Note_on_c, 1, 57, 93
3, 153704, Note_on_c, 1, 57, 0
3, 153704, Note_on_c, 1, 60, 0
3, 153720, Note_on_c, 1, 36, 76
3, 153720, Note_on_c, 1, 60, 93
3, 153720, Note_on_c, 1, 65, 98
3, 153720, Note_on_c, 1, 58, 85
3, 153728, Control_c, 1, 64, 127
3, 153750, Note_on_c, 1, 58, 0
3, 153750, Note_on_c, 1, 36, 0
3, 153750, Note_on_c, 1, 60, 0
3, 153750, Note_on_c, 1, 65, 0
3, 153750, Note_on_c, 1, 64, 85
3, 153764, Note_on_c, 1, 64, 0
3, 153780, Note_on_c, 1, 62, 93
3, 153782, Control_c, 1, 64, 0
3, 153803, Control_c, 1, 64, 127
3, 153810, Note_on_c, 1, 62, 0
3, 153810, Note_on_c, 1, 64, 89
3, 153824, Note_on_c, 1, 64, 0
3, 153840, Note_on_c, 1, 65, 93
3, 153840, Note_on_c, 1, 57, 76
3, 153840, Note_on_c, 1, 41, 76
3, 153841, Control_c, 1, 64, 0
3, 153855, Control_c, 1, 64, 127
3, 153870, Note_on_c, 1, 41, 0
3, 153870, Note_on_c, 1, 57, 0
3, 153870, Note_on_c, 1, 65, 0
3, 153870, Note_on_c, 1, 57, 64
3, 153870, Note_on_c, 1, 60, 80
3, 153878, Control_c, 1, 64, 0
3, 153884, Note_on_c, 1, 60, 0
3, 153884, Note_on_c, 1, 57, 0
3, 153885, Note_on_c, 1, 57, 31
3, 153899, Note_on_c, 1, 57, 0
3, 153899, Control_c, 1, 64, 127
3, 153900, Note_on_c, 1, 57, 72
3, 153900, Note_on_c, 1, 60, 80
3, 153911, Control_c, 1, 64, 0
3, 153914, Note_on_c, 1, 60, 0
3, 153914, Note_on_c, 1, 57, 0
3, 153930, Note_on_c, 1, 60, 85
3, 153930, Note_on_c, 1, 57, 72
3, 153944, Note_on_c, 1, 57, 0
3, 153944, Note_on_c, 1, 60, 0
3, 153960, Note_on_c, 1, 56, 72
3, 153960, Note_on_c, 1, 59, 93
3, 153961, Control_c, 1, 64, 127
3, 153990, Note_on_c, 1, 59, 0
3, 153990, Note_on_c, 1, 56, 0
3, 153990, Note_on_c, 1, 60, 46
3, 153990, Note_on_c, 1, 57, 64
3, 153996, Control_c, 1, 64, 0
3, 154004, Note_on_c, 1, 57, 0
3, 154004, Note_on_c, 1, 60, 0
3, 154020, Note_on_c, 1, 60, 60
3, 154020, Note_on_c, 1, 57, 76
3, 154034, Note_on_c, 1, 57, 0
3, 154034, Note_on_c, 1, 60, 0
3, 154050, Note_on_c, 1, 57, 89
3, 154050, Note_on_c, 1, 60, 89
3, 154064, Note_on_c, 1, 60, 0
3, 154064, Note_on_c, 1, 57, 0
3, 154080, Note_on_c, 1, 56, 76
3, 154080, Note_on_c, 1, 59, 102
3, 154084, Control_c, 1, 64, 127
3, 154110, Note_on_c, 1, 59, 0
3, 154110, Note_on_c, 1, 56, 0
3, 154110, Note_on_c, 1, 60, 76
3, 154110, Note_on_c, 1, 57, 80
3, 154114, Control_c, 1, 64, 0
3, 154124, Note_on_c, 1, 57, 0
3, 154124, Note_on_c, 1, 60, 0
3, 154140, Note_on_c, 1, 60, 68
3, 154140, Note_on_c, 1, 57, 76
3, 154154, Note_on_c, 1, 57, 0
3, 154154, Note_on_c, 1, 60, 0
3, 154170, Note_on_c, 1, 57, 89
3, 154170, Note_on_c, 1, 60, 76
3, 154184, Note_on_c, 1, 60, 0
3, 154184, Note_on_c, 1, 57, 0
3, 154200, Note_on_c, 1, 59, 98
3, 154200, Note_on_c, 1, 56, 89
3, 154201, Control_c, 1, 64, 127
3, 154230, Note_on_c, 1, 56, 0
3, 154230, Note_on_c, 1, 59, 0
3, 154230, Note_on_c, 1, 60, 76
3, 154230, Note_on_c, 1, 57, 89
3, 154234, Control_c, 1, 64, 0
3, 154244, Note_on_c, 1, 57, 0
3, 154244, Note_on_c, 1, 60, 0
3, 154260, Note_on_c, 1, 60, 80
3, 154260, Note_on_c, 1, 57, 76
3, 154274, Note_on_c, 1, 57, 0
3, 154274, Note_on_c, 1, 60, 0
3, 154290, Note_on_c, 1, 60, 80
3, 154290, Note_on_c, 1, 57, 85
3, 154304, Note_on_c, 1, 57, 0
3, 154304, Note_on_c, 1, 60, 0
3, 154320, Note_on_c, 1, 56, 85
3, 154320, Note_on_c, 1, 59, 89
3, 154320, Note_on_c, 1, 48, 76
3, 154328, Control_c, 1, 64, 127
3, 154350, Note_on_c, 1, 59, 0
3, 154350, Note_on_c, 1, 56, 0
3, 154350, Note_on_c, 1, 60, 60
3, 154350, Note_on_c, 1, 57, 72
3, 154364, Note_on_c, 1, 57, 0
3, 154364, Note_on_c, 1, 60, 0
3, 154379, Control_c, 1, 64, 0
3, 154380, Note_on_c, 1, 48, 0
3, 154380, Note_on_c, 1, 60, 89
3, 154380, Note_on_c, 1, 57, 98
3, 154394, Note_on_c, 1, 57, 0
3, 154394, Note_on_c, 1, 60, 0
3, 154410, Note_on_c, 1, 60, 89
3, 154410, Note_on_c, 1, 57, 93
3, 154424, Note_on_c, 1, 57, 0
3, 154424, Note_on_c, 1, 60, 0
3, 154440, Note_on_c, 1, 36, 72
3, 154440, Note_on_c, 1, 60, 93
3, 154440, Note_on_c, 1, 58, 76
3, 154440, Note_on_c, 1, 65, 93
3, 154449, Control_c, 1, 64, 127
3, 154470, Note_on_c, 1, 65, 0
3, 154470, Note_on_c, 1, 58, 0
3, 154470, Note_on_c, 1, 60, 0
3, 154470, Note_on_c, 1, 64, 93
3, 154498, Control_c, 1, 64, 0
3, 154500, Note_on_c, 1, 64, 0
3, 154500, Note_on_c, 1, 36, 0
3, 154500, Note_on_c, 1, 63, 89
3, 154519, Control_c, 1, 64, 127
3, 154530, Note_on_c, 1, 63, 0
3, 154530, Note_on_c, 1, 64, 93
3, 154544, Note_on_c, 1, 64, 0
3, 154558, Control_c, 1, 64, 0
3, 154560, Note_on_c, 1, 29, 80
3, 154560, Note_on_c, 1, 58, 89
3, 154560, Note_on_c, 1, 60, 93
3, 154560, Note_on_c, 1, 64, 102
3, 154560, Note_on_c, 1, 41, 68
3, 154578, Control_c, 1, 64, 127
3, 154680, Note_on_c, 1, 64, 0
3, 154680, Note_on_c, 1, 58, 0
3, 154680, Note_on_c, 1, 57, 72
3, 154680, Note_on_c, 1, 65, 76
3, 154740, Note_on_c, 1, 65, 0
3, 154740, Note_on_c, 1, 29, 0
3, 154740, Note_on_c, 1, 41, 0
3, 154740, Note_on_c, 1, 60, 0
3, 154740, Note_on_c, 1, 57, 0
3, 154920, Control_c, 1, 64, 0
3, 155280, Note_on_c, 1, 36, 60
3, 155280, Note_on_c, 1, 48, 62
3, 155280, Note_on_c, 1, 60, 62
3, 155280, Note_on_c, 1, 64, 76
3, 155300, Control_c, 1, 64, 127
3, 155340, Note_on_c, 1, 64, 0
3, 155340, Note_on_c, 1, 60, 0
3, 155340, Note_on_c, 1, 55, 76
3, 155400, Note_on_c, 1, 55, 0
3, 155400, Note_on_c, 1, 60, 76
3, 155400, Note_on_c, 1, 64, 80
3, 155411, Control_c, 1, 64, 0
3, 155434, Control_c, 1, 64, 127
3, 155460, Note_on_c, 1, 64, 0
3, 155460, Note_on_c, 1, 60, 0
3, 155460, Note_on_c, 1, 55, 72
3, 155489, Note_on_c, 1, 55, 0
3, 155520, Note_on_c, 1, 65, 76
3, 155520, Note_on_c, 1, 59, 85
3, 155534, Control_c, 1, 64, 0
3, 155550, Control_c, 1, 64, 127
3, 155580, Note_on_c, 1, 59, 0
3, 155580, Note_on_c, 1, 55, 56
3, 155609, Note_on_c, 1, 55, 0
3, 155610, Note_on_c, 1, 65, 0
3, 155640, Note_on_c, 1, 65, 68
3, 155640, Note_on_c, 1, 59, 85
3, 155650, Control_c, 1, 64, 0
3, 155667, Control_c, 1, 64, 127
3, 155700, Note_on_c, 1, 59, 0
3, 155700, Note_on_c, 1, 55, 60
3, 155729, Note_on_c, 1, 55, 0
3, 155730, Note_on_c, 1, 65, 0
3, 155730, Note_on_c, 1, 48, 0
3, 155730, Note_on_c, 1, 36, 0
3, 155760, Note_on_c, 1, 60, 76
3, 155760, Note_on_c, 1, 64, 80
3, 155760, Note_on_c, 1, 48, 59
3, 155760, Note_on_c, 1, 36, 68
3, 155767, Control_c, 1, 64, 0
3, 155787, Control_c, 1, 64, 127
3, 155820, Note_on_c, 1, 60, 0
3, 155820, Note_on_c, 1, 55, 62
3, 155849, Note_on_c, 1, 55, 0
3, 155850, Note_on_c, 1, 64, 0
3, 155880, Note_on_c, 1, 64, 80
3, 155880, Note_on_c, 1, 60, 76
3, 155890, Control_c, 1, 64, 0
3, 155908, Control_c, 1, 64, 127
3, 155940, Note_on_c, 1, 60, 0
3, 155940, Note_on_c, 1, 55, 68
3, 155969, Note_on_c, 1, 55, 0
3, 155970, Note_on_c, 1, 64, 0
3, 156000, Note_on_c, 1, 59, 85
3, 156000, Note_on_c, 1, 65, 80
3, 156006, Control_c, 1, 64, 0
3, 156029, Control_c, 1, 64, 127
3, 156060, Note_on_c, 1, 65, 0
3, 156060, Note_on_c, 1, 59, 0
3, 156060, Note_on_c, 1, 55, 59
3, 156120, Note_on_c, 1, 55, 0
3, 156120, Note_on_c, 1, 65, 76
3, 156120, Note_on_c, 1, 59, 85
3, 156126, Control_c, 1, 64, 0
3, 156145, Control_c, 1, 64, 127
3, 156180, Note_on_c, 1, 59, 0
3, 156180, Note_on_c, 1, 55, 62
3, 156209, Note_on_c, 1, 55, 0
3, 156210, Note_on_c, 1, 65, 0
3, 156210, Note_on_c, 1, 48, 0
3, 156210, Note_on_c, 1, 36, 0
3, 156240, Note_on_c, 1, 60, 72
3, 156240, Note_on_c, 1, 64, 76
3, 156240, Note_on_c, 1, 48, 52
3, 156240, Note_on_c, 1, 36, 55
3, 156250, Control_c, 1, 64, 0
3, 156270, Control_c, 1, 64, 127
3, 156300, Note_on_c, 1, 64, 0
3, 156300, Note_on_c, 1, 60, 0
3, 156300, Note_on_c, 1, 55, 56
3, 156360, Note_on_c, 1, 55, 0
3, 156360, Note_on_c, 1, 60, 64
3, 156360, Note_on_c, 1, 64, 76
3, 156420, Note_on_c, 1, 60, 0
3, 156420, Note_on_c, 1, 55, 64
3, 156449, Note_on_c, 1, 55, 0
3, 156450, Note_on_c, 1, 64, 0
3, 156480, Note_on_c, 1, 65, 89
3, 156480, Note_on_c, 1, 60, 89
3, 156489, Control_c, 1, 64, 0
3, 156508, Control_c, 1, 64, 127
3, 156540, Note_on_c, 1, 60, 0
3, 156540, Note_on_c, 1, 57, 62
3, 156600, Note_on_c, 1, 57, 0
3, 156600, Note_on_c, 1, 65, 0
3, 156600, Note_on_c, 1, 60, 80
3, 156600, Note_on_c, 1, 64, 85
3, 156606, Control_c, 1, 64, 0
3, 156629, Control_c, 1, 64, 127
3, 156660, Note_on_c, 1, 64, 0
3, 156660, Note_on_c, 1, 36, 0
3, 156660, Note_on_c, 1, 48, 0
3, 156660, Note_on_c, 1, 60, 0
3, 156660, Note_on_c, 1, 55, 72
3, 156689, Note_on_c, 1, 55, 0
3, 156720, Note_on_c, 1, 31, 68
3, 156720, Note_on_c, 1, 43, 55
3, 156720, Note_on_c, 1, 60, 89
3, 156720, Note_on_c, 1, 64, 85
3, 156725, Control_c, 1, 64, 0
3, 156750, Control_c, 1, 64, 127
3, 156780, Note_on_c, 1, 60, 0
3, 156780, Note_on_c, 1, 55, 72
3, 156809, Note_on_c, 1, 55, 0
3, 156810, Note_on_c, 1, 64, 0
3, 156840, Note_on_c, 1, 59, 89
3, 156840, Note_on_c, 1, 65, 72
3, 156846, Control_c, 1, 64, 0
3, 156865, Control_c, 1, 64, 127
3, 156900, Note_on_c, 1, 65, 0
3, 156900, Note_on_c, 1, 31, 0
3, 156900, Note_on_c, 1, 43, 0
3, 156900, Note_on_c, 1, 59, 0
3, 156900, Note_on_c, 1, 55, 76
3, 156929, Note_on_c, 1, 55, 0
3, 156960, Note_on_c, 1, 48, 53
3, 156960, Note_on_c, 1, 36, 59
3, 156960, Note_on_c, 1, 59, 89
3, 156960, Note_on_c, 1, 65, 80
3, 156966, Control_c, 1, 64, 0
3, 156985, Control_c, 1, 64, 127
3, 157020, Note_on_c, 1, 59, 0
3, 157020, Note_on_c, 1, 55, 56
3, 157080, Note_on_c, 1, 55, 0
3, 157080, Note_on_c, 1, 65, 0
3, 157080, Note_on_c, 1, 60, 72
3, 157080, Note_on_c, 1, 64, 64
3, 157090, Control_c, 1, 64, 0
3, 157103, Control_c, 1, 64, 127
3, 157140, Note_on_c, 1, 64, 0
3, 157140, Note_on_c, 1, 60, 0
3, 157140, Note_on_c, 1, 55, 53
3, 157151, Control_c, 1, 64, 0
3, 157169, Note_on_c, 1, 55, 0
3, 157172, Control_c, 1, 64, 127
3, 157200, Note_on_c, 1, 36, 0
3, 157200, Note_on_c, 1, 48, 0
3, 157200, Note_on_c, 1, 48, 41
3, 157200, Note_on_c, 1, 36, 49
3, 157200, Note_on_c, 1, 60, 56
3, 157200, Note_on_c, 1, 64, 56
3, 157206, Control_c, 1, 64, 0
3, 157227, Control_c, 1, 64, 127
3, 157260, Note_on_c, 1, 64, 0
3, 157260, Note_on_c, 1, 60, 0
3, 157260, Note_on_c, 1, 55, 53
3, 157320, Note_on_c, 1, 55, 0
3, 157320, Note_on_c, 1, 64, 60
3, 157320, Note_on_c, 1, 60, 56
3, 157330, Control_c, 1, 64, 0
3, 157341, Control_c, 1, 64, 127
3, 157380, Note_on_c, 1, 60, 0
3, 157380, Note_on_c, 1, 55, 56
3, 157409, Note_on_c, 1, 55, 0
3, 157410, Note_on_c, 1, 64, 0
3, 157440, Note_on_c, 1, 59, 72
3, 157440, Note_on_c, 1, 65, 60
3, 157448, Control_c, 1, 64, 0
3, 157465, Control_c, 1, 64, 127
3, 157500, Note_on_c, 1, 59, 0
3, 157500, Note_on_c, 1, 55, 55
3, 157529, Note_on_c, 1, 55, 0
3, 157530, Note_on_c, 1, 65, 0
3, 157560, Note_on_c, 1, 59, 64
3, 157560, Note_on_c, 1, 65, 51
3, 157572, Control_c, 1, 64, 0
3, 157589, Control_c, 1, 64, 127
3, 157620, Note_on_c, 1, 59, 0
3, 157620, Note_on_c, 1, 55, 57
3, 157649, Note_on_c, 1, 55, 0
3, 157650, Note_on_c, 1, 65, 0
3, 157650, Note_on_c, 1, 36, 0
3, 157650, Note_on_c, 1, 48, 0
3, 157680, Note_on_c, 1, 64, 60
3, 157680, Note_on_c, 1, 48, 49
3, 157680, Note_on_c, 1, 60, 64
3, 157680, Note_on_c, 1, 36, 56
3, 157687, Control_c, 1, 64, 0
3, 157708, Control_c, 1, 64, 127
3, 157740, Note_on_c, 1, 60, 0
3, 157740, Note_on_c, 1, 55, 56
3, 157769, Note_on_c, 1, 55, 0
3, 157770, Note_on_c, 1, 64, 0
3, 157800, Note_on_c, 1, 64, 64
3, 157800, Note_on_c, 1, 60, 64
3, 157807, Control_c, 1, 64, 0
3, 157827, Control_c, 1, 64, 127
3, 157860, Note_on_c, 1, 60, 0
3, 157860, Note_on_c, 1, 55, 60
3, 157889, Note_on_c, 1, 55, 0
3, 157890, Note_on_c, 1, 64, 0
3, 157920, Note_on_c, 1, 59, 62
3, 157920, Note_on_c, 1, 65, 59
3, 157927, Control_c, 1, 64, 0
3, 157949, Control_c, 1, 64, 127
3, 157980, Note_on_c, 1, 65, 0
3, 157980, Note_on_c, 1, 59, 0
3, 157980, Note_on_c, 1, 55, 53
3, 158009, Note_on_c, 1, 55, 0
3, 158040, Note_on_c, 1, 59, 72
3, 158040, Note_on_c, 1, 65, 56
3, 158050, Control_c, 1, 64, 0
3, 158068, Control_c, 1, 64, 127
3, 158100, Note_on_c, 1, 59, 0
3, 158100, Note_on_c, 1, 55, 62
3, 158129, Note_on_c, 1, 55, 0
3, 158130, Note_on_c, 1, 65, 0
3, 158130, Note_on_c, 1, 48, 0
3, 158130, Note_on_c, 1, 36, 0
3, 158160, Note_on_c, 1, 60, 62
3, 158160, Note_on_c, 1, 64, 76
3, 158160, Note_on_c, 1, 36, 60
3, 158160, Note_on_c, 1, 48, 51
3, 158168, Control_c, 1, 64, 0
3, 158190, Control_c, 1, 64, 127
3, 158220, Note_on_c, 1, 60, 0
3, 158220, Note_on_c, 1, 55, 57
3, 158249, Note_on_c, 1, 55, 0
3, 158250, Note_on_c, 1, 64, 0
3, 158280, Note_on_c, 1, 64, 64
3, 158280, Note_on_c, 1, 60, 68
3, 158288, Control_c, 1, 64, 0
3, 158306, Control_c, 1, 64, 127
3, 158340, Note_on_c, 1, 60, 0
3, 158340, Note_on_c, 1, 55, 60
3, 158369, Note_on_c, 1, 55, 0
3, 158370, Note_on_c, 1, 64, 0
3, 158400, Note_on_c, 1, 65, 62
3, 158400, Note_on_c, 1, 60, 72
3, 158404, Control_c, 1, 64, 0
3, 158423, Control_c, 1, 64, 127
3, 158460, Note_on_c, 1, 60, 0
3, 158460, Note_on_c, 1, 57, 62
3, 158489, Note_on_c, 1, 57, 0
3, 158490, Note_on_c, 1, 65, 0
3, 158520, Note_on_c, 1, 60, 68
3, 158520, Note_on_c, 1, 64, 72
3, 158524, Control_c, 1, 64, 0
3, 158542, Control_c, 1, 64, 127
3, 158580, Note_on_c, 1, 60, 0
3, 158580, Note_on_c, 1, 48, 0
3, 158580, Note_on_c, 1, 55, 68
3, 158609, Note_on_c, 1, 55, 0
3, 158610, Note_on_c, 1, 36, 0
3, 158610, Note_on_c, 1, 64, 0
3, 158640, Note_on_c, 1, 31, 60
3, 158640, Note_on_c, 1, 60, 85
3, 158640, Note_on_c, 1, 64, 85
3, 158640, Note_on_c, 1, 43, 41
3, 158656, Control_c, 1, 64, 0
3, 158688, Control_c, 1, 64, 127
3, 158700, Note_on_c, 1, 60, 0
3, 158700, Note_on_c, 1, 55, 62
3, 158729, Note_on_c, 1, 55, 0
3, 158730, Note_on_c, 1, 64, 0
3, 158760, Note_on_c, 1, 59, 76
3, 158760, Note_on_c, 1, 65, 60
3, 158766, Control_c, 1, 64, 0
3, 158786, Control_c, 1, 64, 127
3, 158820, Note_on_c, 1, 65, 0
3, 158820, Note_on_c, 1, 43, 0
3, 158820, Note_on_c, 1, 31, 0
3, 158820, Note_on_c, 1, 59, 0
3, 158820, Note_on_c, 1, 55, 62
3, 158849, Note_on_c, 1, 55, 0
3, 158880, Note_on_c, 1, 59, 76
3, 158880, Note_on_c, 1, 48, 53
3, 158880, Note_on_c, 1, 65, 64
3, 158880, Note_on_c, 1, 36, 62
3, 158886, Control_c, 1, 64, 0
3, 158901, Control_c, 1, 64, 127
3, 158940, Note_on_c, 1, 59, 0
3, 158940, Note_on_c, 1, 55, 68
3, 158970, Note_on_c, 1, 65, 0
3, 159000, Note_on_c, 1, 55, 0
3, 159000, Note_on_c, 1, 64, 72
3, 159000, Note_on_c, 1, 60, 57
3, 159012, Control_c, 1, 64, 0
3, 159024, Control_c, 1, 64, 127
3, 159060, Note_on_c, 1, 60, 0
3, 159060, Note_on_c, 1, 64, 0
3, 159060, Note_on_c, 1, 48, 0
3, 159060, Note_on_c, 1, 55, 60
3, 159089, Note_on_c, 1, 55, 0
3, 159090, Note_on_c, 1, 36, 0
3, 159108, Control_c, 1, 64, 0
3, 159120, Note_on_c, 1, 31, 76
3, 159120, Note_on_c, 1, 62, 89
3, 159120, Note_on_c, 1, 65, 89
3, 159120, Note_on_c, 1, 43, 68
3, 159137, Control_c, 1, 64, 127
3, 159180, Note_on_c, 1, 65, 0
3, 159180, Note_on_c, 1, 62, 0
3, 159180, Note_on_c, 1, 55, 76
3, 159240, Note_on_c, 1, 55, 0
3, 159240, Note_on_c, 1, 60, 93
3, 159240, Note_on_c, 1, 64, 85
3, 159245, Control_c, 1, 64, 0
3, 159267, Control_c, 1, 64, 127
3, 159300, Note_on_c, 1, 60, 0
3, 159300, Note_on_c, 1, 43, 0
3, 159300, Note_on_c, 1, 55, 76
3, 159329, Note_on_c, 1, 55, 0
3, 159330, Note_on_c, 1, 31, 0
3, 159330, Note_on_c, 1, 64, 0
3, 159351, Control_c, 1, 64, 0
3, 159360, Note_on_c, 1, 31, 76
3, 159360, Note_on_c, 1, 62, 93
3, 159360, Note_on_c, 1, 65, 93
3, 159360, Note_on_c, 1, 43, 62
3, 159370, Control_c, 1, 64, 127
3, 159420, Note_on_c, 1, 62, 0
3, 159420, Note_on_c, 1, 55, 80
3, 159449, Note_on_c, 1, 55, 0
3, 159450, Note_on_c, 1, 43, 0
3, 159450, Note_on_c, 1, 65, 0
3, 159450, Note_on_c, 1, 31, 0
3, 159478, Control_c, 1, 64, 0
3, 159480, Note_on_c, 1, 60, 89
3, 159480, Note_on_c, 1, 64, 89
3, 159494, Control_c, 1, 64, 127
3, 159540, Note_on_c, 1, 64, 0
3, 159540, Note_on_c, 1, 60, 0
3, 159540, Note_on_c, 1, 55, 76
3, 159569, Note_on_c, 1, 55, 0
3, 159598, Control_c, 1, 64, 0
3, 159600, Note_on_c, 1, 38, 72
3, 159600, Note_on_c, 1, 66, 80
3, 159600, Note_on_c, 1, 50, 62
3, 159600, Note_on_c, 1, 60, 85
3, 159600, Note_on_c, 1, 62, 89
3, 159623, Control_c, 1, 64, 127
3, 159660, Note_on_c, 1, 62, 0
3, 159660, Note_on_c, 1, 66, 0
3, 159660, Note_on_c, 1, 60, 0
3, 159660, Note_on_c, 1, 57, 76
3, 159689, Note_on_c, 1, 57, 0
3, 159720, Note_on_c, 1, 66, 68
3, 159720, Note_on_c, 1, 60, 76
3, 159720, Note_on_c, 1, 62, 85
3, 159724, Control_c, 1, 64, 0
3, 159744, Control_c, 1, 64, 127
3, 159780, Note_on_c, 1, 62, 0
3, 159780, Note_on_c, 1, 66, 0
3, 159780, Note_on_c, 1, 38, 0
3, 159780, Note_on_c, 1, 50, 0
3, 159780, Note_on_c, 1, 60, 0
3, 159780, Note_on_c, 1, 57, 89
3, 159809, Note_on_c, 1, 57, 0
3, 159840, Note_on_c, 1, 31, 64
3, 159840, Note_on_c, 1, 59, 93
3, 159840, Note_on_c, 1, 43, 55
3, 159840, Note_on_c, 1, 67, 76
3, 159841, Control_c, 1, 64, 0
3, 159852, Control_c, 1, 64, 127
3, 159869, Note_on_c, 1, 67, 0
3, 159869, Note_on_c, 1, 31, 0
3, 159869, Note_on_c, 1, 59, 0
3, 159869, Note_on_c, 1, 43, 0
3, 159900, Note_on_c, 1, 59, 85
3, 159900, Note_on_c, 1, 55, 76
3, 159901, Control_c, 1, 64, 0
3, 159913, Control_c, 1, 64, 127
3, 159929, Note_on_c, 1, 55, 0
3, 159929, Note_on_c, 1, 59, 0
3, 159930, Note_on_c, 1, 60, 89
3, 159930, Note_on_c, 1, 57, 68
3, 159959, Note_on_c, 1, 57, 0
3, 159959, Note_on_c, 1, 60, 0
3, 159960, Note_on_c, 1, 59, 89
3, 159960, Note_on_c, 1, 62, 85
3, 159961, Control_c, 1, 64, 0
3, 159974, Control_c, 1, 64, 127
3, 159989, Note_on_c, 1, 62, 0
3, 159989, Note_on_c, 1, 59, 0
3, 159990, Note_on_c, 1, 57, 89
3, 159990, Note_on_c, 1, 60, 85
3, 160014, Control_c, 1, 64, 0
3, 160019, Note_on_c, 1, 60, 0
3, 160019, Note_on_c, 1, 57, 0
3, 160020, Note_on_c, 1, 62, 72
3, 160020, Note_on_c, 1, 59, 85
3, 160027, Control_c, 1, 64, 127
3, 160049, Note_on_c, 1, 59, 0
3, 160049, Note_on_c, 1, 62, 0
3, 160050, Note_on_c, 1, 60, 64
3, 160050, Note_on_c, 1, 64, 80
3, 160079, Note_on_c, 1, 64, 0
3, 160079, Note_on_c, 1, 60, 0
3, 160080, Note_on_c, 1, 65, 93
3, 160080, Note_on_c, 1, 62, 89
3, 160080, Note_on_c, 1, 31, 64
3, 160080, Note_on_c, 1, 43, 60
3, 160082, Control_c, 1, 64, 0
3, 160101, Control_c, 1, 64, 127
3, 160140, Note_on_c, 1, 55, 80
3, 160169, Note_on_c, 1, 55, 0
3, 160200, Note_on_c, 1, 31, 0
3, 160200, Note_on_c, 1, 65, 0
3, 160200, Note_on_c, 1, 62, 0
3, 160200, Note_on_c, 1, 43, 0
3, 160200, Note_on_c, 1, 60, 72
3, 160200, Note_on_c, 1, 64, 89
3, 160209, Control_c, 1, 64, 0
3, 160228, Control_c, 1, 64, 127
3, 160260, Note_on_c, 1, 60, 0
3, 160260, Note_on_c, 1, 55, 59
3, 160289, Note_on_c, 1, 55, 0
3, 160290, Note_on_c, 1, 64, 0
3, 160320, Note_on_c, 1, 31, 64
3, 160320, Note_on_c, 1, 62, 85
3, 160320, Note_on_c, 1, 65, 85
3, 160320, Note_on_c, 1, 43, 50
3, 160326, Control_c, 1, 64, 0
3, 160347, Control_c, 1, 64, 127
3, 160380, Note_on_c, 1, 55, 56
3, 160440, Note_on_c, 1, 55, 0
3, 160440, Note_on_c, 1, 65, 0
3, 160440, Note_on_c, 1, 31, 0
3, 160440, Note_on_c, 1, 62, 0
3, 160440, Note_on_c, 1, 43, 0
3, 160440, Note_on_c, 1, 64, 64
3, 160440, Note_on_c, 1, 60, 76
3, 160446, Control_c, 1, 64, 0
3, 160466, Control_c, 1, 64, 127
3, 160500, Note_on_c, 1, 60, 0
3, 160500, Note_on_c, 1, 64, 0
3, 160500, Note_on_c, 1, 55, 68
3, 160529, Note_on_c, 1, 55, 0
3, 160560, Note_on_c, 1, 66, 72
3, 160560, Note_on_c, 1, 38, 64
3, 160560, Note_on_c, 1, 60, 76
3, 160560, Note_on_c, 1, 50, 60
3, 160560, Note_on_c, 1, 62, 89
3, 160561, Control_c, 1, 64, 0
3, 160582, Control_c, 1, 64, 127
3, 160620, Note_on_c, 1, 62, 0
3, 160620, Note_on_c, 1, 60, 0
3, 160620, Note_on_c, 1, 66, 0
3, 160620, Note_on_c, 1, 57, 76
3, 160680, Note_on_c, 1, 57, 0
3, 160680, Note_on_c, 1, 66, 68
3, 160680, Note_on_c, 1, 60, 80
3, 160680, Note_on_c, 1, 62, 85
3, 160691, Control_c, 1, 64, 0
3, 160707, Control_c, 1, 64, 127
3, 160740, Note_on_c, 1, 60, 0
3, 160740, Note_on_c, 1, 57, 76
3, 160769, Note_on_c, 1, 57, 0
3, 160770, Note_on_c, 1, 62, 0
3, 160770, Note_on_c, 1, 66, 0
3, 160770, Note_on_c, 1, 50, 0
3, 160800, Note_on_c, 1, 38, 0
3, 160800, Note_on_c, 1, 59, 76
3, 160800, Note_on_c, 1, 55, 72
3, 160800, Note_on_c, 1, 43, 60
3, 160804, Control_c, 1, 64, 0
3, 160818, Control_c, 1, 64, 127
3, 160829, Note_on_c, 1, 55, 0
3, 160829, Note_on_c, 1, 59, 0
3, 160830, Note_on_c, 1, 54, 68
3, 160830, Note_on_c, 1, 57, 85
3, 160859, Note_on_c, 1, 57, 0
3, 160859, Note_on_c, 1, 54, 0
3, 160860, Note_on_c, 1, 59, 76
3, 160860, Note_on_c, 1, 55, 80
3, 160864, Control_c, 1, 64, 0
3, 160876, Control_c, 1, 64, 127
3, 160889, Note_on_c, 1, 55, 0
3, 160889, Note_on_c, 1, 59, 0
3, 160890, Note_on_c, 1, 57, 85
3, 160890, Note_on_c, 1, 60, 76
3, 160919, Note_on_c, 1, 60, 0
3, 160919, Note_on_c, 1, 57, 0
3, 160920, Note_on_c, 1, 43, 0
3, 160920, Note_on_c, 1, 59, 85
3, 160920, Note_on_c, 1, 62, 62
3, 160921, Control_c, 1, 64, 0
3, 160937, Control_c, 1, 64, 127
3, 160949, Note_on_c, 1, 62, 0
3, 160949, Note_on_c, 1, 59, 0
3, 160950, Note_on_c, 1, 57, 72
3, 160950, Note_on_c, 1, 60, 72
3, 160979, Note_on_c, 1, 60, 0
3, 160979, Note_on_c, 1, 57, 0
3, 160979, Control_c, 1, 64, 0
3, 160980, Note_on_c, 1, 59, 76
3, 160980, Note_on_c, 1, 55, 80
3, 160980, Note_on_c, 1, 38, 85
3, 160990, Control_c, 1, 64, 127
3, 161009, Note_on_c, 1, 38, 0
3, 161009, Note_on_c, 1, 55, 0
3, 161009, Note_on_c, 1, 59, 0
3, 161010, Note_on_c, 1, 54, 64
3, 161010, Note_on_c, 1, 57, 93
3, 161039, Note_on_c, 1, 57, 0
3, 161039, Note_on_c, 1, 54, 0
3, 161040, Note_on_c, 1, 59, 93
3, 161040, Note_on_c, 1, 55, 89
3, 161040, Note_on_c, 1, 43, 80
3, 161045, Control_c, 1, 64, 0
3, 161061, Control_c, 1, 64, 127
3, 161069, Note_on_c, 1, 55, 0
3, 161069, Note_on_c, 1, 59, 0
3, 161070, Note_on_c, 1, 57, 89
3, 161070, Note_on_c, 1, 54, 80
3, 161099, Note_on_c, 1, 54, 0
3, 161099, Note_on_c, 1, 57, 0
3, 161100, Note_on_c, 1, 59, 89
3, 161100, Note_on_c, 1, 55, 72
3, 161110, Control_c, 1, 64, 0
3, 161124, Control_c, 1, 64, 127
3, 161129, Note_on_c, 1, 55, 0
3, 161129, Note_on_c, 1, 59, 0
3, 161130, Note_on_c, 1, 43, 0
3, 161130, Note_on_c, 1, 57, 76
3, 161130, Note_on_c, 1, 60, 64
3, 161159, Note_on_c, 1, 60, 0
3, 161159, Note_on_c, 1, 57, 0
3, 161160, Control_c, 1, 64, 0
3, 161160, Note_on_c, 1, 59, 93
3, 161160, Note_on_c, 1, 62, 89
3, 161174, Control_c, 1, 64, 127
3, 161189, Note_on_c, 1, 62, 0
3, 161189, Note_on_c, 1, 59, 0
3, 161190, Note_on_c, 1, 57, 85
3, 161190, Note_on_c, 1, 60, 76
3, 161219, Note_on_c, 1, 60, 0
3, 161219, Note_on_c, 1, 57, 0
3, 161219, Control_c, 1, 64, 0
3, 161220, Note_on_c, 1, 59, 93
3, 161220, Note_on_c, 1, 55, 85
3, 161220, Note_on_c, 1, 38, 85
3, 161232, Control_c, 1, 64, 127
3, 161249, Note_on_c, 1, 55, 0
3, 161249, Note_on_c, 1, 59, 0
3, 161250, Note_on_c, 1, 57, 93
3, 161250, Note_on_c, 1, 54, 72
3, 161279, Note_on_c, 1, 54, 0
3, 161279, Note_on_c, 1, 57, 0
3, 161280, Note_on_c, 1, 38, 0
3, 161280, Note_on_c, 1, 43, 64
3, 161280, Note_on_c, 1, 55, 64
3, 161280, Note_on_c, 1, 59, 72
3, 161281, Control_c, 1, 64, 0
3, 161298, Control_c, 1, 64, 127
3, 161309, Note_on_c, 1, 59, 0
3, 161309, Note_on_c, 1, 55, 0
3, 161310, Note_on_c, 1, 57, 89
3, 161310, Note_on_c, 1, 54, 57
3, 161339, Note_on_c, 1, 54, 0
3, 161339, Note_on_c, 1, 57, 0
3, 161340, Note_on_c, 1, 59, 72
3, 161340, Note_on_c, 1, 55, 60
3, 161343, Control_c, 1, 64, 0
3, 161358, Control_c, 1, 64, 127
3, 161369, Note_on_c, 1, 55, 0
3, 161369, Note_on_c, 1, 59, 0
3, 161370, Note_on_c, 1, 57, 64
3, 161370, Note_on_c, 1, 60, 46
3, 161399, Note_on_c, 1, 60, 0
3, 161399, Note_on_c, 1, 57, 0
3, 161400, Note_on_c, 1, 43, 0
3, 161400, Note_on_c, 1, 59, 60
3, 161400, Note_on_c, 1, 62, 64
3, 161402, Control_c, 1, 64, 0
3, 161412, Control_c, 1, 64, 127
3, 161429, Note_on_c, 1, 62, 0
3, 161429, Note_on_c, 1, 59, 0
3, 161430, Note_on_c, 1, 57, 72
3, 161430, Note_on_c, 1, 60, 76
3, 161458, Control_c, 1, 64, 0
3, 161459, Note_on_c, 1, 60, 0
3, 161459, Note_on_c, 1, 57, 0
3, 161460, Note_on_c, 1, 59, 68
3, 161460, Note_on_c, 1, 62, 57
3, 161470, Control_c, 1, 64, 127
3, 161489, Note_on_c, 1, 62, 0
3, 161489, Note_on_c, 1, 59, 0
3, 161490, Note_on_c, 1, 64, 68
3, 161490, Note_on_c, 1, 60, 68
3, 161518, Control_c, 1, 64, 0
3, 161519, Note_on_c, 1, 60, 0
3, 161519, Note_on_c, 1, 64, 0
3, 161520, Note_on_c, 1, 62, 68
3, 161520, Note_on_c, 1, 65, 80
3, 161531, Control_c, 1, 64, 127
3, 161549, Note_on_c, 1, 65, 0
3, 161549, Note_on_c, 1, 62, 0
3, 161550, Note_on_c, 1, 61, 60
3, 161550, Note_on_c, 1, 64, 93
3, 161575, Control_c, 1, 64, 0
3, 161579, Note_on_c, 1, 64, 0
3, 161579, Note_on_c, 1, 61, 0
3, 161580, Note_on_c, 1, 65, 68
3, 161580, Note_on_c, 1, 62, 89
3, 161586, Control_c, 1, 64, 127
3, 161609, Note_on_c, 1, 62, 0
3, 161609, Note_on_c, 1, 65, 0
3, 161610, Note_on_c, 1, 65, 80
3, 161610, Note_on_c, 1, 69, 76
3, 161632, Control_c, 1, 64, 0
3, 161639, Note_on_c, 1, 69, 0
3, 161639, Note_on_c, 1, 65, 0
3, 161640, Note_on_c, 1, 67, 80
3, 161640, Note_on_c, 1, 64, 80
3, 161645, Control_c, 1, 64, 127
3, 161669, Note_on_c, 1, 64, 0
3, 161669, Note_on_c, 1, 67, 0
3, 161670, Note_on_c, 1, 62, 60
3, 161670, Note_on_c, 1, 65, 76
3, 161697, Control_c, 1, 64, 0
3, 161699, Note_on_c, 1, 65, 0
3, 161699, Note_on_c, 1, 62, 0
3, 161700, Note_on_c, 1, 64, 80
3, 161700, Note_on_c, 1, 60, 76
3, 161709, Control_c, 1, 64, 127
3, 161729, Note_on_c, 1, 60, 0
3, 161729, Note_on_c, 1, 64, 0
3, 161730, Note_on_c, 1, 59, 64
3, 161730, Note_on_c, 1, 62, 56
3, 161758, Control_c, 1, 64, 0
3, 161759, Note_on_c, 1, 62, 0
3, 161759, Note_on_c, 1, 59, 0
3, 161760, Note_on_c, 1, 60, 76
3, 161760, Note_on_c, 1, 64, 76
3, 161760, Note_on_c, 1, 36, 57
3, 161760, Note_on_c, 1, 48, 51
3, 161776, Control_c, 1, 64, 127
3, 161820, Note_on_c, 1, 64, 0
3, 161820, Note_on_c, 1, 60, 0
3, 161820, Note_on_c, 1, 55, 64
3, 161849, Note_on_c, 1, 55, 0
3, 161880, Note_on_c, 1, 64, 64
3, 161880, Note_on_c, 1, 60, 76
3, 161900, Control_c, 1, 64, 0
3, 161915, Control_c, 1, 64, 127
3, 161940, Note_on_c, 1, 60, 0
3, 161940, Note_on_c, 1, 55, 62
3, 161969, Note_on_c, 1, 55, 0
3, 161970, Note_on_c, 1, 64, 0
3, 162000, Note_on_c, 1, 65, 80
3, 162000, Note_on_c, 1, 59, 76
3, 162012, Control_c, 1, 64, 0
3, 162033, Control_c, 1, 64, 127
3, 162060, Note_on_c, 1, 59, 0
3, 162060, Note_on_c, 1, 55, 62
3, 162089, Note_on_c, 1, 55, 0
3, 162090, Note_on_c, 1, 65, 0
3, 162120, Note_on_c, 1, 59, 72
3, 162120, Note_on_c, 1, 65, 72
3, 162131, Control_c, 1, 64, 0
3, 162146, Control_c, 1, 64, 127
3, 162180, Note_on_c, 1, 59, 0
3, 162180, Note_on_c, 1, 55, 68
3, 162209, Note_on_c, 1, 55, 0
3, 162210, Note_on_c, 1, 48, 0
3, 162210, Note_on_c, 1, 36, 0
3, 162240, Note_on_c, 1, 65, 0
3, 162240, Note_on_c, 1, 60, 72
3, 162240, Note_on_c, 1, 64, 80
3, 162240, Note_on_c, 1, 36, 62
3, 162240, Note_on_c, 1, 48, 55
3, 162249, Control_c, 1, 64, 0
3, 162272, Control_c, 1, 64, 127
3, 162300, Note_on_c, 1, 60, 0
3, 162300, Note_on_c, 1, 55, 57
3, 162329, Note_on_c, 1, 55, 0
3, 162330, Note_on_c, 1, 64, 0
3, 162360, Note_on_c, 1, 64, 72
3, 162360, Note_on_c, 1, 60, 72
3, 162370, Control_c, 1, 64, 0
3, 162386, Control_c, 1, 64, 127
3, 162420, Note_on_c, 1, 60, 0
3, 162420, Note_on_c, 1, 55, 72
3, 162449, Note_on_c, 1, 55, 0
3, 162450, Note_on_c, 1, 64, 0
3, 162480, Note_on_c, 1, 59, 89
3, 162480, Note_on_c, 1, 65, 68
3, 162489, Control_c, 1, 64, 0
3, 162508, Control_c, 1, 64, 127
3, 162540, Note_on_c, 1, 59, 0
3, 162540, Note_on_c, 1, 55, 62
3, 162569, Note_on_c, 1, 55, 0
3, 162570, Note_on_c, 1, 65, 0
3, 162600, Note_on_c, 1, 59, 72
3, 162600, Note_on_c, 1, 65, 72
3, 162607, Control_c, 1, 64, 0
3, 162624, Control_c, 1, 64, 127
3, 162660, Note_on_c, 1, 59, 0
3, 162660, Note_on_c, 1, 55, 76
3, 162689, Note_on_c, 1, 55, 0
3, 162690, Note_on_c, 1, 65, 0
3, 162690, Note_on_c, 1, 36, 0
3, 162690, Note_on_c, 1, 48, 0
3, 162720, Note_on_c, 1, 64, 76
3, 162720, Note_on_c, 1, 60, 80
3, 162720, Note_on_c, 1, 36, 68
3, 162720, Note_on_c, 1, 48, 57
3, 162727, Control_c, 1, 64, 0
3, 162747, Control_c, 1, 64, 127
3, 162780, Note_on_c, 1, 60, 0
3, 162780, Note_on_c, 1, 55, 60
3, 162809, Note_on_c, 1, 55, 0
3, 162810, Note_on_c, 1, 64, 0
3, 162840, Note_on_c, 1, 60, 62
3, 162840, Note_on_c, 1, 64, 72
3, 162850, Control_c, 1, 64, 0
3, 162865, Control_c, 1, 64, 127
3, 162900, Note_on_c, 1, 60, 0
3, 162900, Note_on_c, 1, 55, 72
3, 162929, Note_on_c, 1, 55, 0
3, 162930, Note_on_c, 1, 64, 0
3, 162960, Note_on_c, 1, 60, 68
3, 162960, Note_on_c, 1, 65, 72
3, 162969, Control_c, 1, 64, 0
3, 162988, Control_c, 1, 64, 127
3, 163020, Note_on_c, 1, 60, 0
3, 163020, Note_on_c, 1, 57, 76
3, 163049, Note_on_c, 1, 57, 0
3, 163080, Note_on_c, 1, 65, 0
3, 163080, Note_on_c, 1, 60, 76
3, 163080, Note_on_c, 1, 64, 85
3, 163090, Control_c, 1, 64, 0
3, 163108, Control_c, 1, 64, 127
3, 163140, Note_on_c, 1, 64, 0
3, 163140, Note_on_c, 1, 48, 0
3, 163140, Note_on_c, 1, 36, 0
3, 163140, Note_on_c, 1, 60, 0
3, 163140, Note_on_c, 1, 55, 72
3, 163169, Note_on_c, 1, 55, 0
3, 163200, Note_on_c, 1, 31, 64
3, 163200, Note_on_c, 1, 43, 56
3, 163200, Note_on_c, 1, 60, 89
3, 163200, Note_on_c, 1, 64, 85
3, 163203, Control_c, 1, 64, 0
3, 163225, Control_c, 1, 64, 127
3, 163260, Note_on_c, 1, 60, 0
3, 163260, Note_on_c, 1, 55, 62
3, 163289, Note_on_c, 1, 55, 0
3, 163290, Note_on_c, 1, 64, 0
3, 163320, Note_on_c, 1, 65, 80
3, 163320, Note_on_c, 1, 59, 93
3, 163325, Control_c, 1, 64, 0
3, 163343, Control_c, 1, 64, 127
3, 163380, Note_on_c, 1, 59, 0
3, 163380, Note_on_c, 1, 31, 0
3, 163380, Note_on_c, 1, 43, 0
3, 163380, Note_on_c, 1, 65, 0
3, 163380, Note_on_c, 1, 55, 72
3, 163409, Note_on_c, 1, 55, 0
3, 163440, Note_on_c, 1, 59, 89
3, 163440, Note_on_c, 1, 55, 76
3, 163440, Note_on_c, 1, 36, 72
3, 163440, Note_on_c, 1, 65, 76
3, 163440, Note_on_c, 1, 48, 62
3, 163443, Control_c, 1, 64, 0
3, 163462, Control_c, 1, 64, 127
3, 163530, Note_on_c, 1, 59, 0
3, 163560, Note_on_c, 1, 65, 0
3, 163560, Note_on_c, 1, 60, 68
3, 163560, Note_on_c, 1, 64, 72
3, 163567, Control_c, 1, 64, 0
3, 163583, Control_c, 1, 64, 127
3, 163620, Note_on_c, 1, 36, 0
3, 163650, Note_on_c, 1, 60, 0
3, 163650, Note_on_c, 1, 48, 0
3, 163650, Note_on_c, 1, 55, 0
3, 163650, Note_on_c, 1, 64, 0
3, 163665, Control_c, 1, 64, 0
3, 163681, Note_on_c, 1, 60, 102
3, 163681, Note_on_c, 1, 48, 89
3, 163714, Control_c, 1, 64, 127
3, 163769, Note_on_c, 1, 48, 0
3, 163770, Note_on_c, 1, 52, 80
3, 163771, Note_on_c, 1, 60, 0
3, 163771, Note_on_c, 1, 64, 85
3, 163781, Control_c, 1, 64, 0
3, 163784, Note_on_c, 1, 52, 0
3, 163785, Note_on_c, 1, 64, 0
3, 163786, Note_on_c, 1, 48, 76
3, 163786, Note_on_c, 1, 60, 85
3, 163798, Note_on_c, 1, 60, 0
3, 163800, Note_on_c, 1, 55, 85
3, 163801, Note_on_c, 1, 48, 0
3, 163801, Note_on_c, 1, 43, 89
3, 163836, Control_c, 1, 64, 127
3, 163864, Note_on_c, 1, 43, 0
3, 163883, Note_on_c, 1, 55, 0
3, 163889, Note_on_c, 1, 48, 76
3, 163889, Note_on_c, 1, 60, 80
3, 163905, Note_on_c, 1, 60, 0
3, 163906, Note_on_c, 1, 43, 80
3, 163906, Note_on_c, 1, 55, 85
3, 163906, Control_c, 1, 64, 0
3, 163907, Note_on_c, 1, 48, 0
3, 163917, Note_on_c, 1, 43, 0
3, 163918, Note_on_c, 1, 55, 0
3, 163921, Note_on_c, 1, 52, 93
3, 163922, Note_on_c, 1, 40, 93
3, 163949, Note_on_c, 1, 40, 0
3, 163949, Note_on_c, 1, 52, 0
3, 163952, Note_on_c, 1, 43, 76
3, 163953, Note_on_c, 1, 55, 85
3, 163957, Control_c, 1, 64, 127
3, 163967, Note_on_c, 1, 52, 85
3, 163969, Note_on_c, 1, 40, 68
3, 163970, Note_on_c, 1, 55, 0
3, 163970, Note_on_c, 1, 43, 0
3, 163975, Control_c, 1, 64, 0
3, 163978, Note_on_c, 1, 52, 0
3, 163982, Note_on_c, 1, 48, 80
3, 163983, Note_on_c, 1, 40, 0
3, 163984, Note_on_c, 1, 36, 62
3, 164011, Note_on_c, 1, 36, 0
3, 164011, Note_on_c, 1, 48, 0
3, 164013, Note_on_c, 1, 40, 89
3, 164013, Note_on_c, 1, 52, 89
3, 164026, Note_on_c, 1, 36, 64
3, 164027, Note_on_c, 1, 40, 0
3, 164028, Note_on_c, 1, 48, 76
3, 164029, Note_on_c, 1, 52, 0
3, 164039, Note_on_c, 1, 48, 0
3, 164041, Note_on_c, 1, 36, 0
3, 164042, Note_on_c, 1, 31, 93
3, 164043, Note_on_c, 1, 43, 93
3, 164079, Control_c, 1, 64, 127
3, 164081, Note_on_c, 1, 31, 0
3, 164082, Note_on_c, 1, 43, 0
3, 164136, Control_c, 1, 64, 0
3, 164160, Note_on_c, 1, 60, 76
3, 164160, Control_c, 1, 64, 127
3, 164160, Note_on_c, 1, 48, 89
3, 164179, Note_on_c, 1, 60, 0
3, 164180, Note_on_c, 1, 64, 76
3, 164193, Control_c, 1, 64, 127
3, 164197, Control_c, 1, 64, 127
3, 164199, Note_on_c, 1, 64, 0
3, 164200, Note_on_c, 1, 55, 62
3, 164219, Note_on_c, 1, 55, 0
3, 164220, Note_on_c, 1, 62, 72
3, 164220, Control_c, 1, 64, 0
3, 164220, Control_c, 1, 64, 127
3, 164233, Control_c, 1, 64, 0
3, 164239, Note_on_c, 1, 62, 0
3, 164240, Note_on_c, 1, 65, 62
3, 164259, Note_on_c, 1, 65, 0
3, 164260, Note_on_c, 1, 55, 64
3, 164264, Control_c, 1, 64, 127
3, 164271, Note_on_c, 1, 48, 0
3, 164278, Control_c, 1, 64, 0
3, 164279, Note_on_c, 1, 55, 0
3, 164280, Note_on_c, 1, 64, 85
3, 164280, Control_c, 1, 64, 0
3, 164280, Control_c, 1, 64, 127
3, 164285, Control_c, 1, 64, 0
3, 164299, Note_on_c, 1, 64, 0
3, 164300, Note_on_c, 1, 67, 62
3, 164319, Note_on_c, 1, 67, 0
3, 164320, Note_on_c, 1, 55, 68
3, 164321, Control_c, 1, 64, 127
3, 164339, Note_on_c, 1, 55, 0
3, 164340, Control_c, 1, 64, 0
3, 164340, Note_on_c, 1, 65, 80
3, 164340, Control_c, 1, 64, 0
3, 164340, Control_c, 1, 64, 127
3, 164359, Note_on_c, 1, 65, 0
3, 164360, Note_on_c, 1, 69, 80
3, 164365, Control_c, 1, 64, 127
3, 164379, Note_on_c, 1, 69, 0
3, 164380, Note_on_c, 1, 55, 59
3, 164386, Control_c, 1, 64, 0
3, 164399, Note_on_c, 1, 55, 0
3, 164400, Note_on_c, 1, 62, 76
3, 164400, Control_c, 1, 64, 0
3, 164400, Control_c, 1, 64, 127
3, 164400, Note_on_c, 1, 43, 68
3, 164419, Note_on_c, 1, 62, 0
3, 164420, Note_on_c, 1, 65, 68
3, 164435, Control_c, 1, 64, 127
3, 164439, Note_on_c, 1, 65, 0
3, 164440, Control_c, 1, 64, 127
3, 164440, Note_on_c, 1, 55, 76
3, 164459, Note_on_c, 1, 55, 0
3, 164460, Note_on_c, 1, 60, 80
3, 164460, Control_c, 1, 64, 0
3, 164460, Control_c, 1, 64, 127
3, 164479, Note_on_c, 1, 60, 0
3, 164480, Note_on_c, 1, 64, 72
3, 164485, Note_on_c, 1, 43, 0
3, 164499, Note_on_c, 1, 64, 0
3, 164500, Note_on_c, 1, 55, 68
3, 164519, Note_on_c, 1, 55, 0
3, 164520, Note_on_c, 1, 59, 80
3, 164520, Control_c, 1, 64, 0
3, 164520, Control_c, 1, 64, 127
3, 164538, Control_c, 1, 64, 0
3, 164539, Note_on_c, 1, 59, 0
3, 164540, Note_on_c, 1, 62, 62
3, 164559, Note_on_c, 1, 62, 0
3, 164560, Note_on_c, 1, 55, 60
3, 164579, Note_on_c, 1, 55, 0
3, 164580, Control_c, 1, 64, 0
3, 164580, Note_on_c, 1, 59, 72
3, 164580, Control_c, 1, 64, 127
3, 164599, Note_on_c, 1, 59, 0
3, 164600, Note_on_c, 1, 62, 76
3, 164619, Note_on_c, 1, 62, 0
3, 164620, Note_on_c, 1, 55, 68
3, 164639, Note_on_c, 1, 55, 0
3, 164640, Control_c, 1, 64, 0
3, 164640, Note_on_c, 1, 60, 89
3, 164640, Control_c, 1, 64, 127
3, 164640, Note_on_c, 1, 48, 76
3, 164659, Note_on_c, 1, 60, 0
3, 164660, Note_on_c, 1, 64, 76
3, 164668, Control_c, 1, 64, 127
3, 164679, Note_on_c, 1, 64, 0
3, 164680, Note_on_c, 1, 55, 62
3, 164692, Note_on_c, 1, 48, 0
3, 164699, Note_on_c, 1, 55, 0
3, 164700, Note_on_c, 1, 62, 80
3, 164700, Control_c, 1, 64, 0
3, 164700, Control_c, 1, 64, 127
3, 164719, Note_on_c, 1, 62, 0
3, 164720, Note_on_c, 1, 65, 64
3, 164739, Note_on_c, 1, 65, 0
3, 164740, Note_on_c, 1, 55, 60
3, 164759, Note_on_c, 1, 55, 0
3, 164760, Control_c, 1, 64, 0
3, 164760, Note_on_c, 1, 64, 76
3, 164760, Control_c, 1, 64, 127
3, 164776, Control_c, 1, 64, 0
3, 164779, Note_on_c, 1, 64, 0
3, 164780, Note_on_c, 1, 67, 68
3, 164799, Note_on_c, 1, 67, 0
3, 164800, Note_on_c, 1, 55, 55
3, 164819, Note_on_c, 1, 55, 0
3, 164820, Control_c, 1, 64, 0
3, 164820, Note_on_c, 1, 65, 80
3, 164820, Control_c, 1, 64, 127
3, 164839, Note_on_c, 1, 65, 0
3, 164840, Note_on_c, 1, 69, 64
3, 164859, Note_on_c, 1, 69, 0
3, 164860, Note_on_c, 1, 55, 76
3, 164879, Note_on_c, 1, 55, 0
3, 164880, Control_c, 1, 64, 0
3, 164880, Note_on_c, 1, 62, 72
3, 164880, Control_c, 1, 64, 127
3, 164880, Note_on_c, 1, 43, 80
3, 164899, Note_on_c, 1, 62, 0
3, 164900, Note_on_c, 1, 65, 64
3, 164919, Note_on_c, 1, 65, 0
3, 164920, Note_on_c, 1, 55, 62
3, 164930, Control_c, 1, 64, 127
3, 164939, Note_on_c, 1, 55, 0
3, 164940, Note_on_c, 1, 60, 76
3, 164940, Control_c, 1, 64, 0
3, 164940, Control_c, 1, 64, 127
3, 164943, Note_on_c, 1, 43, 0
3, 164959, Note_on_c, 1, 60, 0
3, 164960, Note_on_c, 1, 64, 68
3, 164979, Note_on_c, 1, 64, 0
3, 164980, Note_on_c, 1, 55, 72
3, 164999, Note_on_c, 1, 55, 0
3, 165000, Control_c, 1, 64, 0
3, 165000, Note_on_c, 1, 59, 72
3, 165000, Control_c, 1, 64, 127
3, 165019, Note_on_c, 1, 59, 0
3, 165019, Control_c, 1, 64, 0
3, 165020, Note_on_c, 1, 62, 60
3, 165039, Note_on_c, 1, 62, 0
3, 165040, Note_on_c, 1, 55, 51
3, 165059, Note_on_c, 1, 55, 0
3, 165060, Note_on_c, 1, 59, 85
3, 165060, Control_c, 1, 64, 0
3, 165060, Control_c, 1, 64, 127
3, 165079, Note_on_c, 1, 59, 0
3, 165080, Note_on_c, 1, 62, 72
3, 165099, Note_on_c, 1, 62, 0
3, 165100, Note_on_c, 1, 55, 62
3, 165119, Note_on_c, 1, 55, 0
3, 165120, Note_on_c, 1, 60, 72
3, 165120, Control_c, 1, 64, 0
3, 165120, Control_c, 1, 64, 127
3, 165120, Note_on_c, 1, 48, 85
3, 165139, Note_on_c, 1, 60, 0
3, 165140, Note_on_c, 1, 64, 62
3, 165159, Note_on_c, 1, 64, 0
3, 165160, Note_on_c, 1, 55, 72
3, 165175, Note_on_c, 1, 48, 0
3, 165179, Note_on_c, 1, 55, 0
3, 165179, Control_c, 1, 64, 127
3, 165180, Note_on_c, 1, 60, 76
3, 165180, Control_c, 1, 64, 0
3, 165180, Control_c, 1, 64, 127
3, 165199, Note_on_c, 1, 60, 0
3, 165200, Note_on_c, 1, 64, 85
3, 165219, Note_on_c, 1, 64, 0
3, 165220, Note_on_c, 1, 55, 68
3, 165239, Note_on_c, 1, 55, 0
3, 165240, Note_on_c, 1, 59, 93
3, 165240, Control_c, 1, 64, 0
3, 165240, Control_c, 1, 64, 127
3, 165246, Control_c, 1, 64, 0
3, 165259, Note_on_c, 1, 59, 0
3, 165260, Note_on_c, 1, 62, 85
3, 165279, Note_on_c, 1, 62, 0
3, 165280, Note_on_c, 1, 55, 72
3, 165299, Note_on_c, 1, 55, 0
3, 165300, Note_on_c, 1, 62, 89
3, 165300, Control_c, 1, 64, 0
3, 165300, Control_c, 1, 64, 127
3, 165300, Note_on_c, 1, 43, 76
3, 165319, Note_on_c, 1, 62, 0
3, 165320, Note_on_c, 1, 65, 93
3, 165339, Note_on_c, 1, 65, 0
3, 165340, Note_on_c, 1, 55, 76
3, 165352, Note_on_c, 1, 43, 0
3, 165359, Note_on_c, 1, 55, 0
3, 165360, Note_on_c, 1, 60, 85
3, 165360, Control_c, 1, 64, 0
3, 165360, Control_c, 1, 64, 127
3, 165360, Note_on_c, 1, 48, 89
3, 165379, Note_on_c, 1, 60, 0
3, 165380, Note_on_c, 1, 64, 89
3, 165399, Note_on_c, 1, 64, 0
3, 165400, Note_on_c, 1, 55, 72
3, 165419, Note_on_c, 1, 55, 0
3, 165420, Note_on_c, 1, 60, 89
3, 165420, Control_c, 1, 64, 0
3, 165420, Control_c, 1, 64, 127
3, 165425, Note_on_c, 1, 48, 0
3, 165430, Control_c, 1, 64, 127
3, 165439, Note_on_c, 1, 60, 0
3, 165440, Note_on_c, 1, 64, 89
3, 165459, Note_on_c, 1, 64, 0
3, 165460, Note_on_c, 1, 55, 89
3, 165479, Note_on_c, 1, 55, 0
3, 165480, Note_on_c, 1, 59, 89
3, 165480, Control_c, 1, 64, 0
3, 165480, Control_c, 1, 64, 127
3, 165499, Note_on_c, 1, 59, 0
3, 165500, Note_on_c, 1, 62, 89
3, 165500, Control_c, 1, 64, 0
3, 165519, Note_on_c, 1, 62, 0
3, 165520, Note_on_c, 1, 55, 80
3, 165539, Note_on_c, 1, 55, 0
3, 165540, Control_c, 1, 64, 0
3, 165540, Note_on_c, 1, 62, 102
3, 165540, Control_c, 1, 64, 127
3, 165540, Note_on_c, 1, 43, 93
3, 165559, Note_on_c, 1, 62, 0
3, 165560, Note_on_c, 1, 65, 89
3, 165579, Note_on_c, 1, 65, 0
3, 165580, Note_on_c, 1, 55, 89
3, 165592, Note_on_c, 1, 43, 0
3, 165599, Note_on_c, 1, 55, 0
3, 165600, Note_on_c, 1, 60, 102
3, 165600, Control_c, 1, 64, 0
3, 165600, Control_c, 1, 64, 127
3, 165600, Note_on_c, 1, 48, 89
3, 165619, Note_on_c, 1, 60, 0
3, 165620, Note_on_c, 1, 64, 93
3, 165639, Note_on_c, 1, 64, 0
3, 165640, Note_on_c, 1, 55, 89
3, 165654, Note_on_c, 1, 48, 0
3, 165659, Note_on_c, 1, 55, 0
3, 165660, Note_on_c, 1, 62, 102
3, 165660, Control_c, 1, 64, 0
3, 165660, Control_c, 1, 64, 127
3, 165660, Note_on_c, 1, 43, 93
3, 165679, Note_on_c, 1, 62, 0
3, 165680, Note_on_c, 1, 65, 85
3, 165699, Note_on_c, 1, 65, 0
3, 165700, Note_on_c, 1, 55, 89
3, 165715, Note_on_c, 1, 43, 0
3, 165719, Note_on_c, 1, 55, 0
3, 165720, Note_on_c, 1, 60, 98
3, 165720, Control_c, 1, 64, 0
3, 165720, Control_c, 1, 64, 127
3, 165720, Note_on_c, 1, 48, 89
3, 165739, Note_on_c, 1, 60, 0
3, 165740, Note_on_c, 1, 64, 98
3, 165759, Note_on_c, 1, 64, 0
3, 165760, Note_on_c, 1, 55, 85
3, 165779, Note_on_c, 1, 55, 0
3, 165779, Note_on_c, 1, 48, 0
3, 165780, Control_c, 1, 64, 0
3, 165780, Note_on_c, 1, 62, 98
3, 165780, Control_c, 1, 64, 127
3, 165780, Note_on_c, 1, 43, 98
3, 165799, Note_on_c, 1, 62, 0
3, 165800, Note_on_c, 1, 65, 98
3, 165819, Note_on_c, 1, 65, 0
3, 165820, Note_on_c, 1, 55, 98
3, 165838, Note_on_c, 1, 43, 0
3, 165839, Note_on_c, 1, 55, 0
3, 165840, Control_c, 1, 64, 0
3, 165840, Note_on_c, 1, 48, 107
3, 165840, Note_on_c, 1, 64, 76
3, 165857, Control_c, 1, 64, 127
3, 165896, Note_on_c, 1, 48, 0
3, 165903, Note_on_c, 1, 64, 0
3, 165904, Control_c, 1, 64, 0
3, 165930, Note_on_c, 1, 64, 72
3, 165942, Control_c, 1, 64, 127
3, 165943, Note_on_c, 1, 64, 0
3, 165960, Note_on_c, 1, 50, 93
3, 165960, Note_on_c, 1, 64, 64
3, 165961, Control_c, 1, 64, 0
3, 165984, Control_c, 1, 64, 127
3, 165990, Note_on_c, 1, 64, 0
3, 165990, Note_on_c, 1, 62, 68
3, 165995, Control_c, 1, 64, 0
3, 166006, Note_on_c, 1, 62, 0
3, 166009, Note_on_c, 1, 50, 0
3, 166020, Note_on_c, 1, 38, 88
3, 166020, Note_on_c, 1, 62, 62
3, 166034, Control_c, 1, 64, 127
3, 166047, Note_on_c, 1, 62, 0
3, 166050, Note_on_c, 1, 60, 64
3, 166065, Control_c, 1, 64, 0
3, 166068, Note_on_c, 1, 60, 0
3, 166071, Note_on_c, 1, 38, 0
3, 166080, Note_on_c, 1, 38, 93
3, 166080, Note_on_c, 1, 60, 72
3, 166109, Control_c, 1, 64, 127
3, 166191, Note_on_c, 1, 38, 0
3, 166193, Note_on_c, 1, 60, 0
3, 166198, Control_c, 1, 64, 0
3, 166200, Note_on_c, 1, 43, 79
3, 166200, Note_on_c, 1, 59, 56
3, 166220, Control_c, 1, 64, 127
3, 166252, Note_on_c, 1, 43, 0
3, 166264, Control_c, 1, 64, 0
3, 166269, Note_on_c, 1, 59, 0
3, 166680, Note_on_c, 1, 55, 76
3, 166681, Control_c, 1, 64, 127
3, 166692, Control_c, 1, 64, 0
3, 166695, Note_on_c, 1, 54, 60
3, 166696, Note_on_c, 1, 55, 0
3, 166710, Note_on_c, 1, 52, 80
3, 166711, Note_on_c, 1, 54, 0
3, 166716, Control_c, 1, 64, 127
3, 166725, Note_on_c, 1, 55, 76
3, 166726, Note_on_c, 1, 52, 0
3, 166730, Control_c, 1, 64, 0
3, 166732, Note_on_c, 1, 55, 0
3, 166740, Note_on_c, 1, 59, 93
3, 166753, Note_on_c, 1, 59, 0
3, 166755, Note_on_c, 1, 57, 72
3, 166769, Note_on_c, 1, 57, 0
3, 166770, Note_on_c, 1, 55, 62
3, 166775, Control_c, 1, 64, 127
3, 166781, Control_c, 1, 64, 0
3, 166784, Note_on_c, 1, 55, 0
3, 166785, Note_on_c, 1, 59, 72
3, 166795, Note_on_c, 1, 59, 0
3, 166800, Note_on_c, 1, 45, 88
3, 166800, Note_on_c, 1, 60, 76
3, 166813, Control_c, 1, 64, 127
3, 166829, Control_c, 1, 64, 127
3, 166830, Note_on_c, 1, 50, 79
3, 166838, Note_on_c, 1, 45, 0
3, 166845, Note_on_c, 1, 57, 72
3, 166850, Note_on_c, 1, 60, 0
3, 166851, Control_c, 1, 64, 0
3, 166855, Note_on_c, 1, 50, 0
3, 166860, Note_on_c, 1, 48, 83
3, 166860, Note_on_c, 1, 54, 56
3, 166861, Note_on_c, 1, 57, 0
3, 166867, Control_c, 1, 64, 127
3, 166872, Control_c, 1, 64, 0
3, 166885, Note_on_c, 1, 54, 0
3, 166886, Note_on_c, 1, 48, 0
3, 166890, Note_on_c, 1, 50, 62
3, 166890, Note_on_c, 1, 54, 80
3, 166893, Control_c, 1, 64, 0
3, 166902, Note_on_c, 1, 54, 0
3, 166915, Note_on_c, 1, 50, 0
3, 166920, Note_on_c, 1, 45, 88
3, 166920, Note_on_c, 1, 60, 89
3, 166931, Control_c, 1, 64, 127
3, 166949, Note_on_c, 1, 45, 0
3, 166950, Note_on_c, 1, 50, 66
3, 166965, Note_on_c, 1, 57, 76
3, 166969, Note_on_c, 1, 60, 0
3, 166976, Note_on_c, 1, 50, 0
3, 166979, Note_on_c, 1, 57, 0
3, 166979, Control_c, 1, 64, 0
3, 166980, Note_on_c, 1, 48, 68
3, 166980, Note_on_c, 1, 54, 62
3, 166998, Control_c, 1, 64, 127
3, 166998, Control_c, 1, 64, 127
3, 167005, Note_on_c, 1, 54, 0
3, 167010, Note_on_c, 1, 48, 0
3, 167010, Note_on_c, 1, 50, 83
3, 167010, Note_on_c, 1, 54, 85
3, 167021, Note_on_c, 1, 54, 0
3, 167023, Control_c, 1, 64, 0
3, 167024, Control_c, 1, 64, 0
3, 167032, Note_on_c, 1, 50, 0
3, 167040, Note_on_c, 1, 43, 83
3, 167040, Note_on_c, 1, 47, 83
3, 167040, Note_on_c, 1, 62, 85
3, 167058, Control_c, 1, 64, 127
3, 167059, Control_c, 1, 64, 127
3, 167083, Note_on_c, 1, 62, 0
3, 167085, Note_on_c, 1, 59, 72
3, 167094, Note_on_c, 1, 47, 0
3, 167096, Note_on_c, 1, 59, 0
3, 167096, Control_c, 1, 64, 0
3, 167100, Note_on_c, 1, 43, 0
3, 167100, Note_on_c, 1, 55, 76
3, 167116, Control_c, 1, 64, 127
3, 167128, Note_on_c, 1, 55, 0
3, 167139, Control_c, 1, 64, 0
3, 167154, Control_c, 1, 64, 0
3, 167268, Control_c, 1, 64, 127
3, 167301, Control_c, 1, 64, 0
3, 167340, Note_on_c, 1, 35, 93
3, 167340, Note_on_c, 1, 47, 83
3, 167340, Note_on_c, 1, 56, 102
3, 167361, Note_on_c, 1, 47, 0
3, 167365, Note_on_c, 1, 35, 0
3, 167366, Control_c, 1, 64, 127
3, 167400, Note_on_c, 1, 36, 79
3, 167400, Note_on_c, 1, 48, 79
3, 167400, Note_on_c, 1, 57, 98
3, 167401, Note_on_c, 1, 56, 0
3, 167403, Control_c, 1, 64, 0
3, 167416, Note_on_c, 1, 48, 0
3, 167419, Note_on_c, 1, 36, 0
3, 167426, Control_c, 1, 64, 127
3, 167457, Note_on_c, 1, 57, 0
3, 167460, Note_on_c, 1, 38, 102
3, 167460, Note_on_c, 1, 50, 93
3, 167460, Note_on_c, 1, 65, 80
3, 167461, Control_c, 1, 64, 0
3, 167470, Note_on_c, 1, 65, 0
3, 167475, Note_on_c, 1, 50, 0
3, 167477, Note_on_c, 1, 38, 0
3, 167520, Note_on_c, 1, 40, 102
3, 167520, Note_on_c, 1, 52, 83
3, 167520, Note_on_c, 1, 64, 56
3, 167530, Control_c, 1, 64, 127
3, 167535, Control_c, 1, 64, 127
3, 167536, Note_on_c, 1, 52, 0
3, 167540, Note_on_c, 1, 40, 0
3, 167546, Control_c, 1, 64, 0
3, 167580, Note_on_c, 1, 38, 93
3, 167580, Note_on_c, 1, 50, 83
3, 167594, Note_on_c, 1, 50, 0
3, 167596, Note_on_c, 1, 38, 0
3, 167640, Note_on_c, 1, 36, 97
3, 167640, Note_on_c, 1, 48, 79
3, 167653, Control_c, 1, 64, 127
3, 167689, Note_on_c, 1, 36, 0
3, 167690, Note_on_c, 1, 48, 0
3, 167704, Control_c, 1, 64, 0
3, 167705, Note_on_c, 1, 64, 0
3, 167721, Control_c, 1, 64, 0
3, 167760, Note_on_c, 1, 48, 112
3, 167760, Note_on_c, 1, 57, 85
3, 167772, Control_c, 1, 64, 127
3, 167796, Control_c, 1, 64, 127
3, 167878, Note_on_c, 1, 57, 0
3, 167880, Note_on_c, 1, 60, 80
3, 167885, Control_c, 1, 64, 0
3, 167913, Control_c, 1, 64, 127
3, 167940, Note_on_c, 1, 64, 93
3, 167941, Note_on_c, 1, 60, 0
3, 168000, Note_on_c, 1, 38, 102
3, 168000, Note_on_c, 1, 62, 76
3, 168008, Control_c, 1, 64, 0
3, 168009, Note_on_c, 1, 48, 0
3, 168010, Note_on_c, 1, 64, 0
3, 168010, Control_c, 1, 64, 0
3, 168035, Control_c, 1, 64, 127
3, 168052, Control_c, 1, 64, 127
3, 168134, Note_on_c, 1, 38, 0
3, 168161, Control_c, 1, 64, 0
3, 168180, Note_on_c, 1, 50, 102
3, 168181, Note_on_c, 1, 62, 0
3, 168192, Control_c, 1, 64, 0
3, 168195, Control_c, 1, 64, 127
3, 168224, Note_on_c, 1, 50, 0
3, 168239, Control_c, 1, 64, 0
3, 168240, Note_on_c, 1, 60, 70
3, 168240, Note_on_c, 1, 57, 83
3, 168240, Note_on_c, 1, 66, 107
3, 168241, Control_c, 1, 64, 127
3, 168246, Control_c, 1, 64, 0
3, 168254, Note_on_c, 1, 66, 0
3, 168255, Note_on_c, 1, 67, 76
3, 168270, Note_on_c, 1, 66, 64
3, 168273, Control_c, 1, 64, 127
3, 168275, Note_on_c, 1, 67, 0
3, 168285, Note_on_c, 1, 64, 80
3, 168287, Note_on_c, 1, 66, 0
3, 168300, Note_on_c, 1, 64, 0
3, 168300, Note_on_c, 1, 57, 0
3, 168300, Note_on_c, 1, 50, 83
3, 168300, Note_on_c, 1, 66, 85
3, 168304, Control_c, 1, 64, 0
3, 168314, Note_on_c, 1, 66, 0
3, 168315, Note_on_c, 1, 67, 89
3, 168329, Note_on_c, 1, 67, 0
3, 168330, Note_on_c, 1, 69, 80
3, 168338, Control_c, 1, 64, 127
3, 168345, Note_on_c, 1, 69, 0
3, 168345, Note_on_c, 1, 71, 80
3, 168360, Note_on_c, 1, 71, 0
3, 168360, Note_on_c, 1, 60, 0
3, 168360, Note_on_c, 1, 74, 89
3, 168362, Note_on_c, 1, 50, 0
3, 168371, Control_c, 1, 64, 0
3, 168375, Note_on_c, 1, 72, 76
3, 168376, Note_on_c, 1, 74, 0
3, 168390, Note_on_c, 1, 71, 76
3, 168393, Note_on_c, 1, 72, 0
3, 168405, Note_on_c, 1, 71, 0
3, 168405, Note_on_c, 1, 72, 76
3, 168420, Note_on_c, 1, 50, 102
3, 168420, Note_on_c, 1, 71, 85
3, 168424, Note_on_c, 1, 72, 0
3, 168426, Control_c, 1, 64, 127
3, 168435, Note_on_c, 1, 69, 68
3, 168437, Note_on_c, 1, 71, 0
3, 168449, Note_on_c, 1, 69, 0
3, 168450, Note_on_c, 1, 67, 64
3, 168452, Control_c, 1, 64, 127
3, 168465, Note_on_c, 1, 66, 80
3, 168466, Note_on_c, 1, 67, 0
3, 168468, Note_on_c, 1, 50, 0
3, 168470, Control_c, 1, 64, 0
3, 168478, Note_on_c, 1, 66, 0
3, 168479, Control_c, 1, 64, 0
3, 168480, Note_on_c, 1, 55, 97
3, 168480, Note_on_c, 1, 59, 97
3, 168480, Note_on_c, 1, 74, 93
3, 168510, Control_c, 1, 64, 127
3, 168515, Control_c, 1, 64, 127
3, 168540, Note_on_c, 1, 50, 88
3, 168545, Note_on_c, 1, 55, 0
3, 168552, Control_c, 1, 64, 0
3, 168570, Note_on_c, 1, 74, 0
3, 168570, Note_on_c, 1, 71, 80
3, 168586, Control_c, 1, 64, 0
3, 168599, Note_on_c, 1, 50, 0
3, 168600, Note_on_c, 1, 59, 0
3, 168600, Note_on_c, 1, 67, 89
3, 168602, Note_on_c, 1, 71, 0
3, 168624, Control_c, 1, 64, 127
3, 168660, Note_on_c, 1, 50, 97
3, 168664, Note_on_c, 1, 67, 0
3, 168669, Control_c, 1, 64, 127
3, 168700, Control_c, 1, 64, 0
3, 168718, Note_on_c, 1, 50, 0
3, 168720, Note_on_c, 1, 60, 93
3, 168720, Note_on_c, 1, 57, 102
3, 168720, Note_on_c, 1, 66, 98
3, 168726, Control_c, 1, 64, 0
3, 168730, Control_c, 1, 64, 127
3, 168734, Note_on_c, 1, 66, 0
3, 168735, Note_on_c, 1, 67, 80
3, 168744, Control_c, 1, 64, 0
3, 168750, Note_on_c, 1, 66, 72
3, 168752, Note_on_c, 1, 67, 0
3, 168764, Note_on_c, 1, 66, 0
3, 168765, Note_on_c, 1, 64, 85
3, 168778, Control_c, 1, 64, 127
3, 168780, Note_on_c, 1, 50, 79
3, 168780, Note_on_c, 1, 66, 85
3, 168781, Note_on_c, 1, 64, 0
3, 168786, Note_on_c, 1, 57, 0
3, 168792, Note_on_c, 1, 66, 0
3, 168795, Note_on_c, 1, 67, 85
3, 168804, Control_c, 1, 64, 0
3, 168809, Note_on_c, 1, 67, 0
3, 168810, Note_on_c, 1, 69, 76
3, 168822, Note_on_c, 1, 69, 0
3, 168825, Note_on_c, 1, 71, 80
3, 168838, Note_on_c, 1, 71, 0
3, 168840, Note_on_c, 1, 74, 89
3, 168848, Note_on_c, 1, 60, 0
3, 168851, Note_on_c, 1, 50, 0
3, 168855, Note_on_c, 1, 74, 0
3, 168855, Note_on_c, 1, 72, 85
3, 168870, Note_on_c, 1, 71, 80
3, 168872, Note_on_c, 1, 72, 0
3, 168882, Note_on_c, 1, 71, 0
3, 168885, Note_on_c, 1, 72, 72
3, 168900, Note_on_c, 1, 50, 102
3, 168900, Note_on_c, 1, 71, 80
3, 168904, Note_on_c, 1, 72, 0
3, 168915, Note_on_c, 1, 69, 76
3, 168916, Control_c, 1, 64, 127
3, 168917, Note_on_c, 1, 71, 0
3, 168919, Control_c, 1, 64, 127
3, 168929, Note_on_c, 1, 69, 0
3, 168930, Note_on_c, 1, 67, 64
3, 168943, Control_c, 1, 64, 0
3, 168944, Note_on_c, 1, 67, 0
3, 168945, Note_on_c, 1, 66, 72
3, 168952, Note_on_c, 1, 50, 0
3, 168957, Control_c, 1, 64, 0
3, 168959, Note_on_c, 1, 66, 0
3, 168960, Note_on_c, 1, 55, 97
3, 168960, Note_on_c, 1, 59, 97
3, 168960, Note_on_c, 1, 74, 93
3, 168988, Control_c, 1, 64, 127
3, 169020, Note_on_c, 1, 50, 93
3, 169022, Note_on_c, 1, 55, 0
3, 169024, Control_c, 1, 64, 127
3, 169050, Control_c, 1, 64, 0
3, 169050, Note_on_c, 1, 71, 85
3, 169054, Note_on_c, 1, 74, 0
3, 169066, Control_c, 1, 64, 0
3, 169080, Note_on_c, 1, 71, 0
3, 169080, Note_on_c, 1, 67, 89
3, 169084, Note_on_c, 1, 59, 0
3, 169088, Note_on_c, 1, 50, 0
3, 169098, Control_c, 1, 64, 127
3, 169152, Note_on_c, 1, 67, 0
3, 169172, Control_c, 1, 64, 0
3, 169200, Note_on_c, 1, 60, 89
3, 169213, Control_c, 1, 64, 127
3, 169215, Note_on_c, 1, 62, 76
3, 169216, Note_on_c, 1, 60, 0
3, 169220, Control_c, 1, 64, 0
3, 169230, Note_on_c, 1, 64, 80
3, 169232, Note_on_c, 1, 62, 0
3, 169245, Note_on_c, 1, 66, 72
3, 169246, Note_on_c, 1, 64, 0
3, 169258, Note_on_c, 1, 66, 0
3, 169260, Note_on_c, 1, 48, 102
3, 169260, Note_on_c, 1, 67, 85
3, 169275, Note_on_c, 1, 69, 68
3, 169276, Note_on_c, 1, 67, 0
3, 169284, Control_c, 1, 64, 127
3, 169290, Note_on_c, 1, 69, 0
3, 169290, Note_on_c, 1, 71, 80
3, 169296, Control_c, 1, 64, 127
3, 169304, Note_on_c, 1, 71, 0
3, 169305, Note_on_c, 1, 72, 80
3, 169312, Control_c, 1, 64, 0
3, 169314, Control_c, 1, 64, 0
3, 169315, Note_on_c, 1, 48, 0
3, 169320, Note_on_c, 1, 71, 93
3, 169322, Note_on_c, 1, 72, 0
3, 169335, Note_on_c, 1, 69, 76
3, 169337, Note_on_c, 1, 71, 0
3, 169337, Control_c, 1, 64, 127
3, 169348, Note_on_c, 1, 69, 0
3, 169350, Note_on_c, 1, 67, 76
3, 169365, Note_on_c, 1, 67, 0
3, 169365, Note_on_c, 1, 66, 55
3, 169369, Control_c, 1, 64, 0
3, 169380, Note_on_c, 1, 43, 102
3, 169380, Note_on_c, 1, 64, 80
3, 169381, Note_on_c, 1, 66, 0
3, 169393, Control_c, 1, 64, 127
3, 169394, Note_on_c, 1, 64, 0
3, 169395, Note_on_c, 1, 62, 80
3, 169407, Control_c, 1, 64, 127
3, 169408, Note_on_c, 1, 62, 0
3, 169410, Note_on_c, 1, 60, 76
3, 169425, Note_on_c, 1, 43, 0
3, 169425, Note_on_c, 1, 59, 76
3, 169426, Note_on_c, 1, 60, 0
3, 169429, Control_c, 1, 64, 0
3, 169434, Control_c, 1, 64, 0
3, 169440, Note_on_c, 1, 57, 89
3, 169442, Note_on_c, 1, 59, 0
3, 169455, Note_on_c, 1, 59, 85
3, 169458, Note_on_c, 1, 57, 0
3, 169470, Note_on_c, 1, 60, 80
3, 169471, Note_on_c, 1, 59, 0
3, 169483, Note_on_c, 1, 60, 0
3, 169485, Note_on_c, 1, 62, 89
3, 169496, Note_on_c, 1, 62, 0
3, 169500, Note_on_c, 1, 38, 107
3, 169500, Note_on_c, 1, 64, 57
3, 169506, Control_c, 1, 64, 127
3, 169515, Note_on_c, 1, 66, 62
3, 169517, Note_on_c, 1, 64, 0
3, 169529, Note_on_c, 1, 66, 0
3, 169530, Note_on_c, 1, 67, 80
3, 169532, Control_c, 1, 64, 127
3, 169545, Note_on_c, 1, 69, 62
3, 169546, Note_on_c, 1, 67, 0
3, 169551, Control_c, 1, 64, 0
3, 169555, Note_on_c, 1, 38, 0
3, 169557, Control_c, 1, 64, 0
3, 169559, Note_on_c, 1, 69, 0
3, 169560, Note_on_c, 1, 40, 107
3, 169560, Note_on_c, 1, 66, 80
3, 169587, Note_on_c, 1, 66, 0
3, 169590, Note_on_c, 1, 67, 80
3, 169606, Note_on_c, 1, 67, 0
3, 169620, Note_on_c, 1, 67, 85
3, 169631, Control_c, 1, 64, 127
3, 169632, Control_c, 1, 64, 127
3, 169643, Note_on_c, 1, 67, 0
3, 169650, Control_c, 1, 64, 0
3, 169661, Note_on_c, 1, 40, 0
3, 169663, Control_c, 1, 64, 0
3, 169680, Note_on_c, 1, 60, 76
3, 169690, Note_on_c, 1, 60, 0
3, 169710, Note_on_c, 1, 59, 72
3, 169720, Note_on_c, 1, 59, 0
3, 169740, Note_on_c, 1, 60, 80
3, 169749, Note_on_c, 1, 60, 0
3, 169770, Note_on_c, 1, 62, 85
3, 169778, Note_on_c, 1, 62, 0
3, 169800, Note_on_c, 1, 64, 76
3, 169809, Note_on_c, 1, 64, 0
3, 169830, Note_on_c, 1, 62, 72
3, 169838, Note_on_c, 1, 62, 0
3, 169860, Note_on_c, 1, 64, 62
3, 169869, Note_on_c, 1, 64, 0
3, 169890, Note_on_c, 1, 59, 72
3, 169898, Note_on_c, 1, 59, 0
3, 169920, Note_on_c, 1, 60, 76
3, 169929, Note_on_c, 1, 60, 0
3, 169980, Note_on_c, 1, 59, 76
3, 169987, Note_on_c, 1, 59, 0
3, 170040, Note_on_c, 1, 57, 85
3, 170050, Note_on_c, 1, 57, 0
3, 170100, Note_on_c, 1, 50, 97
3, 170100, Note_on_c, 1, 57, 89
3, 170109, Note_on_c, 1, 57, 0
3, 170137, Note_on_c, 1, 50, 0
3, 170160, Note_on_c, 1, 52, 97
3, 170160, Note_on_c, 1, 55, 80
3, 170169, Control_c, 1, 64, 127
3, 170178, Note_on_c, 1, 52, 0
3, 170220, Note_on_c, 1, 48, 97
3, 170232, Note_on_c, 1, 55, 0
3, 170234, Control_c, 1, 64, 0
3, 170236, Note_on_c, 1, 48, 0
3, 170280, Note_on_c, 1, 50, 102
3, 170303, Note_on_c, 1, 50, 0
3, 170340, Note_on_c, 1, 38, 102
3, 170359, Note_on_c, 1, 38, 0
3, 170408, Control_c, 1, 64, 127
3, 170430, Note_on_c, 1, 62, 89
3, 170433, Control_c, 1, 64, 0
3, 170460, Note_on_c, 1, 50, 107
3, 170460, Note_on_c, 1, 61, 80
3, 170462, Note_on_c, 1, 62, 0
3, 170473, Control_c, 1, 64, 127
3, 170475, Control_c, 1, 64, 127
3, 170483, Control_c, 1, 64, 0
3, 170489, Note_on_c, 1, 61, 0
3, 170490, Note_on_c, 1, 60, 68
3, 170514, Note_on_c, 1, 50, 0
3, 170520, Note_on_c, 1, 43, 112
3, 170520, Note_on_c, 1, 59, 85
3, 170521, Note_on_c, 1, 60, 0
3, 170535, Control_c, 1, 64, 127
3, 170542, Note_on_c, 1, 43, 0
3, 170546, Control_c, 1, 64, 0
3, 170550, Note_on_c, 1, 62, 76
3, 170551, Note_on_c, 1, 59, 0
3, 170580, Note_on_c, 1, 59, 76
3, 170582, Note_on_c, 1, 62, 0
3, 170593, Control_c, 1, 64, 0
3, 170593, Control_c, 1, 64, 127
3, 170610, Note_on_c, 1, 55, 85
3, 170611, Note_on_c, 1, 59, 0
3, 170617, Note_on_c, 1, 55, 0
3, 170633, Control_c, 1, 64, 0
3, 170640, Note_on_c, 1, 60, 107
3, 170654, Note_on_c, 1, 60, 0
3, 170654, Control_c, 1, 64, 127
3, 170655, Note_on_c, 1, 62, 93
3, 170670, Note_on_c, 1, 62, 0
3, 170670, Note_on_c, 1, 64, 85
3, 170679, Control_c, 1, 64, 0
3, 170685, Note_on_c, 1, 64, 0
3, 170685, Note_on_c, 1, 66, 72
3, 170698, Note_on_c, 1, 66, 0
3, 170700, Note_on_c, 1, 48, 117
3, 170700, Note_on_c, 1, 67, 93
3, 170711, Control_c, 1, 64, 127
3, 170714, Note_on_c, 1, 67, 0
3, 170715, Note_on_c, 1, 69, 89
3, 170728, Note_on_c, 1, 69, 0
3, 170730, Note_on_c, 1, 71, 85
3, 170743, Note_on_c, 1, 71, 0
3, 170745, Note_on_c, 1, 72, 80
3, 170760, Note_on_c, 1, 48, 0
3, 170760, Note_on_c, 1, 71, 89
3, 170761, Note_on_c, 1, 72, 0
3, 170775, Control_c, 1, 64, 0
3, 170775, Note_on_c, 1, 69, 76
3, 170776, Note_on_c, 1, 71, 0
3, 170777, Control_c, 1, 64, 127
3, 170788, Note_on_c, 1, 69, 0
3, 170789, Control_c, 1, 64, 0
3, 170790, Note_on_c, 1, 67, 85
3, 170803, Note_on_c, 1, 67, 0
3, 170805, Note_on_c, 1, 66, 72
3, 170819, Note_on_c, 1, 66, 0
3, 170820, Note_on_c, 1, 43, 107
3, 170820, Note_on_c, 1, 64, 85
3, 170830, Control_c, 1, 64, 127
3, 170834, Note_on_c, 1, 64, 0
3, 170835, Note_on_c, 1, 62, 98
3, 170837, Control_c, 1, 64, 127
3, 170845, Note_on_c, 1, 62, 0
3, 170847, Control_c, 1, 64, 0
3, 170850, Note_on_c, 1, 60, 89
3, 170865, Note_on_c, 1, 59, 80
3, 170866, Note_on_c, 1, 43, 0
3, 170869, Note_on_c, 1, 60, 0
3, 170879, Note_on_c, 1, 59, 0
3, 170880, Note_on_c, 1, 57, 85
3, 170895, Control_c, 1, 64, 0
3, 170895, Note_on_c, 1, 59, 89
3, 170896, Note_on_c, 1, 57, 0
3, 170909, Note_on_c, 1, 59, 0
3, 170910, Note_on_c, 1, 60, 80
3, 170923, Note_on_c, 1, 60, 0
3, 170925, Note_on_c, 1, 62, 72
3, 170935, Note_on_c, 1, 62, 0
3, 170940, Note_on_c, 1, 38, 112
3, 170940, Note_on_c, 1, 64, 50
3, 170955, Note_on_c, 1, 66, 68
3, 170956, Control_c, 1, 64, 127
3, 170958, Note_on_c, 1, 64, 0
3, 170969, Note_on_c, 1, 66, 0
3, 170970, Note_on_c, 1, 67, 76
3, 170983, Note_on_c, 1, 67, 0
3, 170985, Note_on_c, 1, 69, 85
3, 170995, Note_on_c, 1, 38, 0
3, 171000, Note_on_c, 1, 40, 112
3, 171000, Note_on_c, 1, 66, 80
3, 171002, Note_on_c, 1, 69, 0
3, 171007, Control_c, 1, 64, 0
3, 171028, Note_on_c, 1, 66, 0
3, 171030, Note_on_c, 1, 67, 80
3, 171032, Control_c, 1, 64, 127
3, 171044, Control_c, 1, 64, 0
3, 171045, Note_on_c, 1, 67, 0
3, 171059, Control_c, 1, 64, 127
3, 171060, Note_on_c, 1, 67, 89
3, 171062, Control_c, 1, 64, 127
3, 171064, Note_on_c, 1, 40, 0
3, 171076, Note_on_c, 1, 67, 0
3, 171092, Control_c, 1, 64, 0
3, 171120, Note_on_c, 1, 48, 102
3, 171120, Note_on_c, 1, 67, 62
3, 171120, Note_on_c, 1, 55, 52
3, 171124, Control_c, 1, 64, 0
3, 171134, Note_on_c, 1, 55, 0
3, 171136, Note_on_c, 1, 67, 0
3, 171137, Note_on_c, 1, 48, 0
3, 171150, Note_on_c, 1, 47, 68
3, 171150, Note_on_c, 1, 55, 52
3, 171150, Note_on_c, 1, 67, 48
3, 171165, Note_on_c, 1, 67, 0
3, 171165, Note_on_c, 1, 55, 0
3, 171180, Note_on_c, 1, 48, 83
3, 171180, Note_on_c, 1, 55, 49
3, 171180, Note_on_c, 1, 67, 51
3, 171181, Note_on_c, 1, 47, 0
3, 171193, Note_on_c, 1, 67, 0
3, 171194, Note_on_c, 1, 55, 0
3, 171201, Note_on_c, 1, 48, 0
3, 171210, Note_on_c, 1, 50, 83
3, 171210, Note_on_c, 1, 55, 57
3, 171210, Note_on_c, 1, 67, 56
3, 171224, Note_on_c, 1, 67, 0
3, 171225, Note_on_c, 1, 55, 0
3, 171227, Note_on_c, 1, 50, 0
3, 171240, Note_on_c, 1, 52, 97
3, 171240, Note_on_c, 1, 55, 53
3, 171240, Note_on_c, 1, 67, 59
3, 171252, Note_on_c, 1, 55, 0
3, 171253, Note_on_c, 1, 67, 0
3, 171265, Note_on_c, 1, 52, 0
3, 171270, Note_on_c, 1, 51, 68
3, 171270, Note_on_c, 1, 55, 62
3, 171270, Note_on_c, 1, 67, 62
3, 171281, Note_on_c, 1, 55, 0
3, 171282, Note_on_c, 1, 67, 0
3, 171293, Note_on_c, 1, 51, 0
3, 171300, Note_on_c, 1, 52, 97
3, 171300, Note_on_c, 1, 55, 56
3, 171300, Note_on_c, 1, 67, 57
3, 171309, Note_on_c, 1, 55, 0
3, 171311, Note_on_c, 1, 67, 0
3, 171326, Note_on_c, 1, 52, 0
3, 171330, Note_on_c, 1, 47, 83
3, 171330, Note_on_c, 1, 55, 62
3, 171330, Note_on_c, 1, 67, 76
3, 171338, Note_on_c, 1, 55, 0
3, 171339, Note_on_c, 1, 67, 0
3, 171352, Note_on_c, 1, 47, 0
3, 171360, Note_on_c, 1, 48, 102
3, 171360, Note_on_c, 1, 55, 64
3, 171360, Note_on_c, 1, 67, 76
3, 171370, Note_on_c, 1, 55, 0
3, 171371, Note_on_c, 1, 67, 0
3, 171382, Note_on_c, 1, 48, 0
3, 171420, Note_on_c, 1, 46, 107
3, 171420, Note_on_c, 1, 55, 72
3, 171420, Note_on_c, 1, 67, 89
3, 171428, Note_on_c, 1, 55, 0
3, 171430, Note_on_c, 1, 67, 0
3, 171440, Note_on_c, 1, 46, 0
3, 171480, Note_on_c, 1, 45, 107
3, 171480, Note_on_c, 1, 57, 76
3, 171480, Note_on_c, 1, 67, 89
3, 171489, Note_on_c, 1, 57, 0
3, 171490, Note_on_c, 1, 67, 0
3, 171505, Note_on_c, 1, 45, 0
3, 171540, Note_on_c, 1, 39, 93
3, 171540, Note_on_c, 1, 57, 76
3, 171540, Note_on_c, 1, 66, 72
3, 171549, Note_on_c, 1, 57, 0
3, 171551, Note_on_c, 1, 66, 0
3, 171562, Note_on_c, 1, 39, 0
3, 171600, Note_on_c, 1, 40, 102
3, 171600, Note_on_c, 1, 55, 72
3, 171600, Note_on_c, 1, 67, 89
3, 171610, Control_c, 1, 64, 127
3, 171618, Control_c, 1, 64, 127
3, 171666, Note_on_c, 1, 40, 0
3, 171669, Control_c, 1, 64, 0
3, 171670, Note_on_c, 1, 67, 0
3, 171671, Note_on_c, 1, 55, 0
3, 171681, Control_c, 1, 64, 0
3, 171720, Note_on_c, 1, 36, 102
3, 171720, Note_on_c, 1, 64, 89
3, 171720, Note_on_c, 1, 57, 89
3, 171720, Note_on_c, 1, 67, 80
3, 171728, Control_c, 1, 64, 127
3, 171733, Control_c, 1, 64, 127
3, 171773, Note_on_c, 1, 36, 0
3, 171780, Note_on_c, 1, 67, 0
3, 171782, Note_on_c, 1, 57, 0
3, 171782, Note_on_c, 1, 64, 0
3, 171784, Control_c, 1, 64, 0
3, 171804, Control_c, 1, 64, 0
3, 171840, Note_on_c, 1, 38, 102
3, 171840, Note_on_c, 1, 59, 89
3, 171840, Note_on_c, 1, 62, 89
3, 171840, Note_on_c, 1, 67, 76
3, 171867, Control_c, 1, 64, 127
3, 171890, Note_on_c, 1, 62, 0
3, 171891, Note_on_c, 1, 67, 0
3, 171892, Note_on_c, 1, 59, 0
3, 171893, Note_on_c, 1, 38, 0
3, 171904, Control_c, 1, 64, 0
3, 171960, Note_on_c, 1, 38, 102
3, 171960, Note_on_c, 1, 60, 80
3, 171960, Note_on_c, 1, 62, 89
3, 171960, Note_on_c, 1, 66, 72
3, 171988, Control_c, 1, 64, 127
3, 171990, Control_c, 1, 64, 127
3, 172004, Note_on_c, 1, 38, 0
3, 172014, Control_c, 1, 64, 0
3, 172024, Note_on_c, 1, 66, 0
3, 172024, Note_on_c, 1, 62, 0
3, 172028, Note_on_c, 1, 60, 0
3, 172033, Control_c, 1, 64, 0
3, 172080, Note_on_c, 1, 55, 97
3, 172080, Note_on_c, 1, 59, 83
3, 172080, Note_on_c, 1, 31, 85
3, 172080, Note_on_c, 1, 43, 76
3, 172104, Control_c, 1, 64, 127
3, 172108, Control_c, 1, 64, 127
3, 172140, Note_on_c, 1, 50, 79
3, 172148, Note_on_c, 1, 55, 0
3, 172157, Note_on_c, 1, 59, 0
3, 172166, Note_on_c, 1, 50, 0
3, 172200, Note_on_c, 1, 55, 88
3, 172200, Note_on_c, 1, 59, 83
3, 172208, Control_c, 1, 64, 0
3, 172242, Control_c, 1, 64, 127
3, 172259, Note_on_c, 1, 55, 0
3, 172260, Note_on_c, 1, 50, 88
3, 172290, Note_on_c, 1, 50, 0
3, 172297, Note_on_c, 1, 59, 0
3, 172317, Control_c, 1, 64, 0
3, 172320, Note_on_c, 1, 54, 83
3, 172320, Note_on_c, 1, 57, 102
3, 172361, Control_c, 1, 64, 127
3, 172380, Note_on_c, 1, 50, 83
3, 172381, Note_on_c, 1, 54, 0
3, 172402, Note_on_c, 1, 50, 0
3, 172403, Note_on_c, 1, 57, 0
3, 172435, Control_c, 1, 64, 0
3, 172440, Note_on_c, 1, 57, 83
3, 172440, Note_on_c, 1, 60, 93
3, 172476, Control_c, 1, 64, 127
3, 172498, Note_on_c, 1, 43, 0
3, 172499, Note_on_c, 1, 60, 0
3, 172500, Note_on_c, 1, 50, 70
3, 172501, Note_on_c, 1, 31, 0
3, 172531, Note_on_c, 1, 50, 0
3, 172543, Note_on_c, 1, 57, 0
3, 172558, Control_c, 1, 64, 0
3, 172559, Control_c, 1, 64, 0
3, 172560, Note_on_c, 1, 55, 97
3, 172560, Note_on_c, 1, 59, 93
3, 172560, Note_on_c, 1, 43, 76
3, 172560, Note_on_c, 1, 31, 89
3, 172599, Control_c, 1, 64, 127
3, 172609, Control_c, 1, 64, 127
3, 172620, Note_on_c, 1, 50, 74
3, 172631, Note_on_c, 1, 55, 0
3, 172644, Note_on_c, 1, 50, 0
3, 172656, Note_on_c, 1, 59, 0
3, 172680, Note_on_c, 1, 55, 93
3, 172680, Note_on_c, 1, 59, 88
3, 172683, Control_c, 1, 64, 0
3, 172718, Control_c, 1, 64, 127
3, 172740, Note_on_c, 1, 50, 79
3, 172741, Note_on_c, 1, 55, 0
3, 172765, Note_on_c, 1, 50, 0
3, 172771, Note_on_c, 1, 59, 0
3, 172797, Control_c, 1, 64, 0
3, 172800, Note_on_c, 1, 54, 83
3, 172800, Note_on_c, 1, 57, 102
3, 172833, Control_c, 1, 64, 127
3, 172860, Note_on_c, 1, 50, 79
3, 172864, Note_on_c, 1, 54, 0
3, 172875, Note_on_c, 1, 57, 0
3, 172883, Note_on_c, 1, 50, 0
3, 172916, Control_c, 1, 64, 0
3, 172920, Note_on_c, 1, 57, 83
3, 172920, Note_on_c, 1, 60, 93
3, 172949, Control_c, 1, 64, 127
3, 172968, Note_on_c, 1, 43, 0
3, 172969, Note_on_c, 1, 31, 0
3, 172980, Note_on_c, 1, 50, 83
3, 172999, Note_on_c, 1, 57, 0
3, 172999, Note_on_c, 1, 60, 0
3, 173007, Note_on_c, 1, 50, 0
3, 173031, Control_c, 1, 64, 0
3, 173035, Control_c, 1, 64, 0
3, 173040, Note_on_c, 1, 59, 97
3, 173040, Note_on_c, 1, 55, 93
3, 173040, Note_on_c, 1, 31, 80
3, 173040, Note_on_c, 1, 43, 68
3, 173063, Control_c, 1, 64, 127
3, 173073, Control_c, 1, 64, 127
3, 173123, Note_on_c, 1, 55, 0
3, 173128, Note_on_c, 1, 59, 0
3, 173145, Control_c, 1, 64, 0
3, 173211, Note_on_c, 1, 43, 0
3, 173212, Note_on_c, 1, 31, 0
3, 173219, Control_c, 1, 64, 127
3, 173220, Note_on_c, 1, 59, 102
3, 173220, Note_on_c, 1, 62, 107
3, 173254, Note_on_c, 1, 59, 0
3, 173255, Note_on_c, 1, 62, 0
3, 173269, Control_c, 1, 64, 0
3, 173278, Control_c, 1, 64, 0
3, 173280, Note_on_c, 1, 60, 97
3, 173280, Note_on_c, 1, 63, 79
3, 173280, Note_on_c, 1, 43, 72
3, 173280, Note_on_c, 1, 31, 76
3, 173305, Control_c, 1, 64, 127
3, 173323, Control_c, 1, 64, 127
3, 173366, Control_c, 1, 64, 0
3, 173370, Note_on_c, 1, 63, 0
3, 173371, Note_on_c, 1, 60, 0
3, 173422, Control_c, 1, 64, 127
3, 173452, Note_on_c, 1, 43, 0
3, 173455, Note_on_c, 1, 31, 0
3, 173460, Note_on_c, 1, 63, 74
3, 173460, Note_on_c, 1, 60, 97
3, 173481, Note_on_c, 1, 60, 0
3, 173487, Note_on_c, 1, 63, 0
3, 173506, Control_c, 1, 64, 0
3, 173513, Control_c, 1, 64, 0
3, 173520, Note_on_c, 1, 62, 97
3, 173520, Note_on_c, 1, 59, 102
3, 173520, Note_on_c, 1, 55, 102
3, 173520, Note_on_c, 1, 31, 93
3, 173520, Note_on_c, 1, 43, 76
3, 173560, Control_c, 1, 64, 127
3, 173563, Control_c, 1, 64, 127
3, 173986, Control_c, 1, 64, 0
3, 174000, Note_on_c, 1, 43, 0
3, 174000, Note_on_c, 1, 55, 0
3, 174000, Note_on_c, 1, 62, 0
3, 174000, Note_on_c, 1, 59, 0
3, 174000, Note_on_c, 1, 31, 0
3, 174003, Control_c, 1, 64, 0
3, 174240, Note_on_c, 1, 60, 64
3, 174240, Note_on_c, 1, 64, 55
3, 174240, Note_on_c, 1, 36, 49
3, 174240, Note_on_c, 1, 48, 45
3, 174244, Control_c, 1, 64, 127
3, 174300, Note_on_c, 1, 55, 54
3, 174303, Note_on_c, 1, 60, 0
3, 174329, Note_on_c, 1, 64, 0
3, 174336, Note_on_c, 1, 55, 0
3, 174360, Note_on_c, 1, 60, 57
3, 174360, Note_on_c, 1, 64, 57
3, 174366, Control_c, 1, 64, 0
3, 174385, Control_c, 1, 64, 127
3, 174420, Note_on_c, 1, 55, 61
3, 174430, Note_on_c, 1, 60, 0
3, 174452, Note_on_c, 1, 64, 0
3, 174452, Note_on_c, 1, 55, 0
3, 174480, Note_on_c, 1, 59, 68
3, 174480, Note_on_c, 1, 65, 61
3, 174487, Control_c, 1, 64, 0
3, 174507, Control_c, 1, 64, 127
3, 174540, Note_on_c, 1, 55, 51
3, 174541, Note_on_c, 1, 59, 0
3, 174549, Note_on_c, 1, 65, 0
3, 174566, Note_on_c, 1, 55, 0
3, 174600, Note_on_c, 1, 65, 55
3, 174600, Note_on_c, 1, 59, 61
3, 174607, Control_c, 1, 64, 0
3, 174625, Control_c, 1, 64, 127
3, 174660, Note_on_c, 1, 55, 53
3, 174663, Note_on_c, 1, 65, 0
3, 174665, Note_on_c, 1, 59, 0
3, 174682, Note_on_c, 1, 48, 0
3, 174682, Note_on_c, 1, 36, 0
3, 174685, Note_on_c, 1, 55, 0
3, 174720, Note_on_c, 1, 60, 61
3, 174720, Note_on_c, 1, 64, 57
3, 174720, Note_on_c, 1, 36, 53
3, 174720, Note_on_c, 1, 48, 43
3, 174722, Control_c, 1, 64, 0
3, 174741, Control_c, 1, 64, 127
3, 174780, Note_on_c, 1, 60, 0
3, 174780, Note_on_c, 1, 55, 54
3, 174812, Note_on_c, 1, 64, 0
3, 174814, Note_on_c, 1, 55, 0
3, 174840, Note_on_c, 1, 60, 64
3, 174840, Note_on_c, 1, 64, 55
3, 174843, Control_c, 1, 64, 0
3, 174859, Control_c, 1, 64, 127
3, 174900, Note_on_c, 1, 55, 64
3, 174917, Note_on_c, 1, 60, 0
3, 174928, Note_on_c, 1, 64, 0
3, 174930, Note_on_c, 1, 55, 0
3, 174960, Note_on_c, 1, 59, 64
3, 174960, Note_on_c, 1, 65, 61
3, 174961, Control_c, 1, 64, 0
3, 174982, Control_c, 1, 64, 127
3, 175017, Note_on_c, 1, 65, 0
3, 175019, Note_on_c, 1, 59, 0
3, 175020, Note_on_c, 1, 55, 55
3, 175049, Note_on_c, 1, 55, 0
3, 175080, Note_on_c, 1, 59, 68
3, 175080, Note_on_c, 1, 65, 57
3, 175083, Control_c, 1, 64, 0
3, 175100, Control_c, 1, 64, 127
3, 175140, Note_on_c, 1, 59, 0
3, 175140, Note_on_c, 1, 55, 57
3, 175164, Note_on_c, 1, 65, 0
3, 175168, Note_on_c, 1, 55, 0
3, 175169, Note_on_c, 1, 36, 0
3, 175169, Note_on_c, 1, 48, 0
3, 175199, Control_c, 1, 64, 0
3, 175200, Note_on_c, 1, 60, 64
3, 175200, Note_on_c, 1, 36, 53
3, 175200, Note_on_c, 1, 48, 42
3, 175200, Note_on_c, 1, 64, 57
3, 175213, Control_c, 1, 64, 127
3, 175260, Note_on_c, 1, 64, 0
3, 175260, Note_on_c, 1, 60, 0
3, 175260, Note_on_c, 1, 55, 55
3, 175307, Note_on_c, 1, 55, 0
3, 175320, Note_on_c, 1, 64, 64
3, 175320, Note_on_c, 1, 60, 64
3, 175322, Control_c, 1, 64, 0
3, 175331, Control_c, 1, 64, 127
3, 175378, Note_on_c, 1, 60, 0
3, 175380, Note_on_c, 1, 55, 68
3, 175402, Note_on_c, 1, 64, 0
3, 175408, Note_on_c, 1, 55, 0
3, 175440, Note_on_c, 1, 60, 64
3, 175440, Note_on_c, 1, 65, 68
3, 175443, Control_c, 1, 64, 0
3, 175458, Control_c, 1, 64, 127
3, 175500, Note_on_c, 1, 57, 64
3, 175501, Note_on_c, 1, 60, 0
3, 175530, Note_on_c, 1, 57, 0
3, 175533, Note_on_c, 1, 65, 0
3, 175560, Note_on_c, 1, 64, 68
3, 175560, Note_on_c, 1, 60, 72
3, 175561, Control_c, 1, 64, 0
3, 175578, Control_c, 1, 64, 127
3, 175620, Note_on_c, 1, 55, 57
3, 175622, Note_on_c, 1, 60, 0
3, 175645, Note_on_c, 1, 48, 0
3, 175646, Note_on_c, 1, 64, 0
3, 175647, Note_on_c, 1, 55, 0
3, 175649, Note_on_c, 1, 36, 0
3, 175678, Control_c, 1, 64, 0
3, 175680, Note_on_c, 1, 60, 72
3, 175680, Note_on_c, 1, 31, 57
3, 175680, Note_on_c, 1, 64, 72
3, 175680, Note_on_c, 1, 43, 47
3, 175699, Control_c, 1, 64, 127
3, 175740, Note_on_c, 1, 60, 0
3, 175740, Note_on_c, 1, 55, 68
3, 175770, Note_on_c, 1, 55, 0
3, 175773, Note_on_c, 1, 64, 0
3, 175800, Note_on_c, 1, 59, 72
3, 175800, Note_on_c, 1, 65, 68
3, 175800, Control_c, 1, 64, 0
3, 175818, Control_c, 1, 64, 127
3, 175857, Note_on_c, 1, 59, 0
3, 175860, Note_on_c, 1, 55, 64
3, 175878, Note_on_c, 1, 31, 0
3, 175882, Note_on_c, 1, 43, 0
3, 175884, Note_on_c, 1, 65, 0
3, 175888, Note_on_c, 1, 55, 0
3, 175920, Note_on_c, 1, 36, 57
3, 175920, Note_on_c, 1, 59, 80
3, 175920, Note_on_c, 1, 65, 68
3, 175920, Note_on_c, 1, 48, 49
3, 175929, Control_c, 1, 64, 0
3, 175952, Control_c, 1, 64, 127
3, 175977, Note_on_c, 1, 59, 0
3, 175980, Note_on_c, 1, 55, 55
3, 176032, Note_on_c, 1, 65, 0
3, 176037, Note_on_c, 1, 55, 0
3, 176040, Note_on_c, 1, 64, 55
3, 176040, Note_on_c, 1, 60, 61
3, 176044, Control_c, 1, 64, 0
3, 176061, Control_c, 1, 64, 127
3, 176100, Note_on_c, 1, 55, 50
3, 176103, Note_on_c, 1, 60, 0
3, 176106, Note_on_c, 1, 64, 0
3, 176126, Note_on_c, 1, 48, 0
3, 176126, Note_on_c, 1, 36, 0
3, 176128, Note_on_c, 1, 55, 0
3, 176146, Control_c, 1, 64, 0
3, 176160, Note_on_c, 1, 64, 50
3, 176160, Note_on_c, 1, 60, 50
3, 176160, Note_on_c, 1, 36, 38
3, 176160, Note_on_c, 1, 48, 29
3, 176169, Control_c, 1, 64, 127
3, 176218, Note_on_c, 1, 60, 0
3, 176219, Note_on_c, 1, 64, 0
3, 176220, Note_on_c, 1, 55, 49
3, 176267, Note_on_c, 1, 55, 0
3, 176280, Note_on_c, 1, 64, 50
3, 176280, Note_on_c, 1, 60, 53
3, 176285, Control_c, 1, 64, 0
3, 176296, Control_c, 1, 64, 127
3, 176336, Note_on_c, 1, 60, 0
3, 176340, Note_on_c, 1, 55, 49
3, 176378, Note_on_c, 1, 55, 0
3, 176380, Note_on_c, 1, 64, 0
3, 176396, Control_c, 1, 64, 0
3, 176400, Note_on_c, 1, 59, 57
3, 176400, Note_on_c, 1, 65, 51
3, 176408, Control_c, 1, 64, 127
3, 176460, Note_on_c, 1, 59, 0
3, 176460, Note_on_c, 1, 55, 49
3, 176488, Note_on_c, 1, 65, 0
3, 176493, Note_on_c, 1, 55, 0
3, 176520, Note_on_c, 1, 59, 55
3, 176520, Note_on_c, 1, 65, 45
3, 176530, Control_c, 1, 64, 0
3, 176542, Control_c, 1, 64, 127
3, 176580, Note_on_c, 1, 59, 0
3, 176580, Note_on_c, 1, 55, 50
3, 176613, Note_on_c, 1, 55, 0
3, 176614, Note_on_c, 1, 65, 0
3, 176614, Note_on_c, 1, 36, 0
3, 176616, Note_on_c, 1, 48, 0
3, 176640, Note_on_c, 1, 36, 53
3, 176640, Note_on_c, 1, 48, 43
3, 176640, Note_on_c, 1, 60, 57
3, 176640, Note_on_c, 1, 64, 55
3, 176642, Control_c, 1, 64, 0
3, 176658, Control_c, 1, 64, 127
3, 176696, Note_on_c, 1, 60, 0
3, 176700, Note_on_c, 1, 55, 50
3, 176731, Note_on_c, 1, 64, 0
3, 176738, Note_on_c, 1, 55, 0
3, 176760, Note_on_c, 1, 64, 54
3, 176760, Note_on_c, 1, 60, 55
3, 176764, Control_c, 1, 64, 0
3, 176778, Control_c, 1, 64, 127
3, 176819, Note_on_c, 1, 60, 0
3, 176820, Note_on_c, 1, 55, 55
3, 176850, Note_on_c, 1, 55, 0
3, 176855, Note_on_c, 1, 64, 0
3, 176880, Note_on_c, 1, 59, 64
3, 176880, Note_on_c, 1, 65, 46
3, 176882, Control_c, 1, 64, 0
3, 176900, Control_c, 1, 64, 127
3, 176940, Note_on_c, 1, 55, 53
3, 176941, Note_on_c, 1, 59, 0
3, 176966, Note_on_c, 1, 65, 0
3, 176969, Note_on_c, 1, 55, 0
3, 177000, Note_on_c, 1, 59, 64
3, 177000, Note_on_c, 1, 65, 50
3, 177005, Control_c, 1, 64, 0
3, 177019, Control_c, 1, 64, 127
3, 177060, Note_on_c, 1, 59, 0
3, 177060, Note_on_c, 1, 55, 51
3, 177093, Note_on_c, 1, 65, 0
3, 177095, Note_on_c, 1, 48, 0
3, 177096, Note_on_c, 1, 36, 0
3, 177099, Note_on_c, 1, 55, 0
3, 177120, Note_on_c, 1, 60, 55
3, 177120, Note_on_c, 1, 36, 54
3, 177120, Note_on_c, 1, 64, 55
3, 177120, Note_on_c, 1, 48, 46
3, 177126, Control_c, 1, 64, 0
3, 177142, Control_c, 1, 64, 127
3, 177176, Note_on_c, 1, 64, 0
3, 177176, Note_on_c, 1, 60, 0
3, 177180, Note_on_c, 1, 55, 54
3, 177238, Note_on_c, 1, 55, 0
3, 177240, Note_on_c, 1, 64, 53
3, 177240, Note_on_c, 1, 60, 55
3, 177246, Control_c, 1, 64, 0
3, 177255, Control_c, 1, 64, 127
3, 177299, Note_on_c, 1, 60, 0
3, 177300, Note_on_c, 1, 55, 54
3, 177337, Note_on_c, 1, 55, 0
3, 177338, Note_on_c, 1, 64, 0
3, 177360, Note_on_c, 1, 60, 68
3, 177360, Note_on_c, 1, 65, 61
3, 177361, Control_c, 1, 64, 0
3, 177372, Control_c, 1, 64, 127
3, 177420, Note_on_c, 1, 57, 57
3, 177423, Note_on_c, 1, 60, 0
3, 177456, Note_on_c, 1, 57, 0
3, 177470, Note_on_c, 1, 65, 0
3, 177480, Note_on_c, 1, 60, 64
3, 177480, Note_on_c, 1, 64, 64
3, 177485, Control_c, 1, 64, 0
3, 177498, Control_c, 1, 64, 127
3, 177538, Note_on_c, 1, 60, 0
3, 177540, Note_on_c, 1, 55, 64
3, 177550, Note_on_c, 1, 48, 0
3, 177556, Note_on_c, 1, 36, 0
3, 177561, Note_on_c, 1, 64, 0
3, 177571, Note_on_c, 1, 55, 0
3, 177600, Note_on_c, 1, 60, 64
3, 177600, Note_on_c, 1, 64, 64
3, 177600, Note_on_c, 1, 43, 46
3, 177600, Note_on_c, 1, 31, 55
3, 177602, Control_c, 1, 64, 0
3, 177621, Control_c, 1, 64, 127
3, 177660, Note_on_c, 1, 60, 0
3, 177660, Note_on_c, 1, 55, 55
3, 177700, Note_on_c, 1, 55, 0
3, 177703, Note_on_c, 1, 64, 0
3, 177720, Note_on_c, 1, 59, 64
3, 177720, Note_on_c, 1, 65, 51
3, 177721, Control_c, 1, 64, 0
3, 177737, Control_c, 1, 64, 127
3, 177777, Note_on_c, 1, 59, 0
3, 177780, Note_on_c, 1, 55, 55
3, 177782, Note_on_c, 1, 65, 0
3, 177795, Note_on_c, 1, 31, 0
3, 177800, Note_on_c, 1, 43, 0
3, 177803, Note_on_c, 1, 55, 0
3, 177840, Note_on_c, 1, 59, 68
3, 177840, Note_on_c, 1, 48, 47
3, 177840, Note_on_c, 1, 36, 53
3, 177840, Note_on_c, 1, 65, 55
3, 177840, Control_c, 1, 64, 0
3, 177858, Control_c, 1, 64, 127
3, 177900, Note_on_c, 1, 55, 54
3, 177904, Note_on_c, 1, 59, 0
3, 177947, Note_on_c, 1, 55, 0
3, 177957, Note_on_c, 1, 65, 0
3, 177960, Note_on_c, 1, 64, 61
3, 177960, Note_on_c, 1, 60, 57
3, 177963, Control_c, 1, 64, 0
3, 177973, Control_c, 1, 64, 127
3, 178020, Note_on_c, 1, 64, 0
3, 178020, Note_on_c, 1, 55, 55
3, 178021, Note_on_c, 1, 60, 0
3, 178027, Control_c, 1, 64, 0
3, 178041, Control_c, 1, 64, 127
3, 178050, Note_on_c, 1, 55, 0
3, 178050, Note_on_c, 1, 48, 0
3, 178052, Note_on_c, 1, 36, 0
3, 178076, Control_c, 1, 64, 0
3, 178080, Note_on_c, 1, 62, 72
3, 178080, Note_on_c, 1, 31, 64
3, 178080, Note_on_c, 1, 65, 83
3, 178080, Note_on_c, 1, 43, 55
3, 178099, Control_c, 1, 64, 127
3, 178138, Note_on_c, 1, 62, 0
3, 178140, Note_on_c, 1, 55, 76
3, 178194, Note_on_c, 1, 65, 0
3, 178196, Note_on_c, 1, 55, 0
3, 178200, Note_on_c, 1, 64, 72
3, 178200, Note_on_c, 1, 60, 80
3, 178201, Note_on_c, 1, 43, 0
3, 178201, Control_c, 1, 64, 0
3, 178204, Note_on_c, 1, 31, 0
3, 178218, Control_c, 1, 64, 127
3, 178260, Note_on_c, 1, 60, 0
3, 178260, Note_on_c, 1, 55, 64
3, 178263, Note_on_c, 1, 64, 0
3, 178287, Note_on_c, 1, 55, 0
3, 178320, Note_on_c, 1, 65, 80
3, 178320, Note_on_c, 1, 31, 72
3, 178320, Note_on_c, 1, 43, 57
3, 178320, Note_on_c, 1, 62, 80
3, 178324, Control_c, 1, 64, 0
3, 178345, Control_c, 1, 64, 127
3, 178379, Note_on_c, 1, 62, 0
3, 178380, Note_on_c, 1, 55, 68
3, 178437, Note_on_c, 1, 55, 0
3, 178438, Note_on_c, 1, 65, 0
3, 178440, Note_on_c, 1, 64, 64
3, 178440, Note_on_c, 1, 60, 68
3, 178447, Control_c, 1, 64, 0
3, 178466, Control_c, 1, 64, 127
3, 178472, Note_on_c, 1, 43, 0
3, 178475, Note_on_c, 1, 31, 0
3, 178483, Control_c, 1, 64, 0
3, 178499, Note_on_c, 1, 60, 0
3, 178500, Note_on_c, 1, 55, 68
3, 178503, Control_c, 1, 64, 127
3, 178534, Note_on_c, 1, 55, 0
3, 178537, Note_on_c, 1, 64, 0
3, 178560, Note_on_c, 1, 38, 68
3, 178560, Note_on_c, 1, 66, 68
3, 178560, Note_on_c, 1, 50, 64
3, 178560, Note_on_c, 1, 60, 72
3, 178560, Note_on_c, 1, 62, 80
3, 178562, Control_c, 1, 64, 0
3, 178582, Control_c, 1, 64, 127
3, 178620, Note_on_c, 1, 60, 0
3, 178620, Note_on_c, 1, 57, 68
3, 178622, Note_on_c, 1, 62, 0
3, 178629, Note_on_c, 1, 66, 0
3, 178666, Note_on_c, 1, 57, 0
3, 178680, Note_on_c, 1, 66, 61
3, 178680, Note_on_c, 1, 62, 76
3, 178680, Note_on_c, 1, 60, 68
3, 178684, Control_c, 1, 64, 0
3, 178699, Control_c, 1, 64, 127
3, 178740, Note_on_c, 1, 57, 83
3, 178741, Note_on_c, 1, 60, 0
3, 178743, Note_on_c, 1, 50, 0
3, 178744, Note_on_c, 1, 62, 0
3, 178751, Note_on_c, 1, 38, 0
3, 178760, Note_on_c, 1, 57, 0
3, 178760, Note_on_c, 1, 66, 0
3, 178800, Control_c, 1, 64, 0
3, 178800, Note_on_c, 1, 31, 72
3, 178800, Note_on_c, 1, 43, 51
3, 178800, Note_on_c, 1, 67, 72
3, 178800, Note_on_c, 1, 59, 80
3, 178811, Control_c, 1, 64, 127
3, 178820, Note_on_c, 1, 67, 0
3, 178825, Note_on_c, 1, 59, 0
3, 178860, Note_on_c, 1, 59, 80
3, 178860, Note_on_c, 1, 55, 76
3, 178865, Control_c, 1, 64, 0
3, 178875, Control_c, 1, 64, 127
3, 178883, Note_on_c, 1, 55, 0
3, 178885, Note_on_c, 1, 59, 0
3, 178890, Note_on_c, 1, 60, 55
3, 178890, Note_on_c, 1, 57, 76
3, 178895, Note_on_c, 1, 43, 0
3, 178898, Note_on_c, 1, 31, 0
3, 178910, Note_on_c, 1, 57, 0
3, 178911, Note_on_c, 1, 60, 0
3, 178919, Control_c, 1, 64, 0
3, 178920, Note_on_c, 1, 59, 80
3, 178920, Note_on_c, 1, 62, 80
3, 178930, Control_c, 1, 64, 127
3, 178946, Note_on_c, 1, 62, 0
3, 178946, Note_on_c, 1, 59, 0
3, 178950, Note_on_c, 1, 57, 72
3, 178950, Note_on_c, 1, 60, 68
3, 178953, Control_c, 1, 64, 0
3, 178974, Control_c, 1, 64, 127
3, 178975, Note_on_c, 1, 60, 0
3, 178975, Note_on_c, 1, 57, 0
3, 178980, Note_on_c, 1, 62, 80
3, 178980, Note_on_c, 1, 59, 83
3, 178995, Note_on_c, 1, 59, 0
3, 178997, Note_on_c, 1, 62, 0
3, 179010, Note_on_c, 1, 60, 53
3, 179010, Note_on_c, 1, 64, 64
3, 179019, Note_on_c, 1, 64, 0
3, 179019, Note_on_c, 1, 60, 0
3, 179034, Control_c, 1, 64, 0
3, 179040, Note_on_c, 1, 65, 68
3, 179040, Note_on_c, 1, 31, 57
3, 179040, Note_on_c, 1, 62, 80
3, 179040, Note_on_c, 1, 43, 53
3, 179054, Control_c, 1, 64, 127
3, 179100, Note_on_c, 1, 55, 50
3, 179109, Note_on_c, 1, 62, 0
3, 179156, Note_on_c, 1, 55, 0
3, 179160, Note_on_c, 1, 64, 57
3, 179160, Note_on_c, 1, 60, 53
3, 179165, Note_on_c, 1, 65, 0
3, 179169, Control_c, 1, 64, 0
3, 179183, Control_c, 1, 64, 127
3, 179217, Note_on_c, 1, 60, 0
3, 179220, Note_on_c, 1, 55, 47
3, 179262, Note_on_c, 1, 55, 0
3, 179262, Note_on_c, 1, 64, 0
3, 179262, Note_on_c, 1, 43, 0
3, 179263, Note_on_c, 1, 31, 0
3, 179280, Note_on_c, 1, 65, 64
3, 179280, Note_on_c, 1, 62, 68
3, 179280, Note_on_c, 1, 31, 55
3, 179280, Note_on_c, 1, 43, 47
3, 179289, Control_c, 1, 64, 0
3, 179306, Control_c, 1, 64, 127
3, 179339, Note_on_c, 1, 62, 0
3, 179340, Note_on_c, 1, 55, 50
3, 179389, Note_on_c, 1, 55, 0
3, 179393, Note_on_c, 1, 65, 0
3, 179400, Note_on_c, 1, 64, 68
3, 179400, Note_on_c, 1, 60, 61
3, 179409, Control_c, 1, 64, 0
3, 179426, Control_c, 1, 64, 127
3, 179456, Note_on_c, 1, 60, 0
3, 179460, Note_on_c, 1, 55, 55
3, 179465, Note_on_c, 1, 31, 0
3, 179470, Note_on_c, 1, 43, 0
3, 179484, Note_on_c, 1, 64, 0
3, 179484, Note_on_c, 1, 55, 0
3, 179520, Note_on_c, 1, 38, 61
3, 179520, Note_on_c, 1, 66, 61
3, 179520, Note_on_c, 1, 60, 64
3, 179520, Note_on_c, 1, 50, 51
3, 179520, Note_on_c, 1, 62, 76
3, 179523, Control_c, 1, 64, 0
3, 179536, Control_c, 1, 64, 127
3, 179580, Note_on_c, 1, 60, 0
3, 179580, Note_on_c, 1, 57, 57
3, 179610, Note_on_c, 1, 66, 0
3, 179611, Note_on_c, 1, 62, 0
3, 179612, Note_on_c, 1, 57, 0
3, 179640, Note_on_c, 1, 66, 55
3, 179640, Note_on_c, 1, 60, 68
3, 179640, Note_on_c, 1, 62, 72
3, 179644, Control_c, 1, 64, 0
3, 179658, Control_c, 1, 64, 127
3, 179700, Note_on_c, 1, 60, 0
3, 179700, Note_on_c, 1, 57, 64
3, 179706, Note_on_c, 1, 62, 0
3, 179713, Note_on_c, 1, 66, 0
3, 179724, Note_on_c, 1, 57, 0
3, 179744, Note_on_c, 1, 50, 0
3, 179757, Note_on_c, 1, 38, 0
3, 179760, Note_on_c, 1, 56, 55
3, 179760, Note_on_c, 1, 59, 61
3, 179760, Note_on_c, 1, 43, 55
3, 179760, Note_on_c, 1, 55, 72
3, 179765, Note_on_c, 1, 56, 0
3, 179767, Control_c, 1, 64, 0
3, 179788, Control_c, 1, 64, 127
3, 179790, Note_on_c, 1, 54, 55
3, 179790, Note_on_c, 1, 57, 88
3, 179791, Note_on_c, 1, 55, 0
3, 179792, Note_on_c, 1, 59, 0
3, 179815, Note_on_c, 1, 57, 0
3, 179817, Note_on_c, 1, 54, 0
3, 179820, Note_on_c, 1, 59, 64
3, 179820, Note_on_c, 1, 55, 80
3, 179822, Control_c, 1, 64, 0
3, 179832, Control_c, 1, 64, 127
3, 179845, Note_on_c, 1, 55, 0
3, 179845, Note_on_c, 1, 59, 0
3, 179850, Note_on_c, 1, 57, 76
3, 179850, Note_on_c, 1, 60, 68
3, 179860, Note_on_c, 1, 57, 0
3, 179863, Note_on_c, 1, 60, 0
3, 179880, Note_on_c, 1, 59, 68
3, 179880, Note_on_c, 1, 62, 55
3, 179881, Control_c, 1, 64, 0
3, 179888, Note_on_c, 1, 43, 0
3, 179893, Control_c, 1, 64, 127
3, 179910, Note_on_c, 1, 62, 0
3, 179910, Note_on_c, 1, 60, 61
3, 179910, Note_on_c, 1, 57, 55
3, 179911, Note_on_c, 1, 59, 0
3, 179938, Note_on_c, 1, 57, 0
3, 179938, Note_on_c, 1, 60, 0
3, 179940, Note_on_c, 1, 59, 76
3, 179940, Note_on_c, 1, 55, 72
3, 179940, Note_on_c, 1, 38, 76
3, 179941, Control_c, 1, 64, 0
3, 179953, Control_c, 1, 64, 127
3, 179959, Note_on_c, 1, 55, 0
3, 179965, Note_on_c, 1, 59, 0
3, 179970, Note_on_c, 1, 57, 83
3, 179970, Note_on_c, 1, 54, 64
3, 179983, Note_on_c, 1, 54, 0
3, 179985, Note_on_c, 1, 57, 0
3, 179989, Note_on_c, 1, 38, 0
3, 180000, Note_on_c, 1, 59, 76
3, 180000, Note_on_c, 1, 55, 80
3, 180000, Note_on_c, 1, 43, 61
3, 180004, Control_c, 1, 64, 0
3, 180018, Control_c, 1, 64, 127
3, 180022, Note_on_c, 1, 55, 0
3, 180027, Note_on_c, 1, 59, 0
3, 180030, Note_on_c, 1, 57, 55
3, 180030, Note_on_c, 1, 54, 54
3, 180046, Note_on_c, 1, 54, 0
3, 180054, Note_on_c, 1, 57, 0
3, 180060, Note_on_c, 1, 55, 64
3, 180060, Note_on_c, 1, 59, 64
3, 180065, Control_c, 1, 64, 0
3, 180077, Control_c, 1, 64, 127
3, 180085, Note_on_c, 1, 59, 0
3, 180087, Note_on_c, 1, 55, 0
3, 180090, Note_on_c, 1, 60, 51
3, 180090, Note_on_c, 1, 57, 68
3, 180110, Note_on_c, 1, 60, 0
3, 180112, Note_on_c, 1, 57, 0
3, 180118, Control_c, 1, 64, 0
3, 180120, Note_on_c, 1, 59, 43
3, 180120, Note_on_c, 1, 62, 45
3, 180127, Note_on_c, 1, 43, 0
3, 180129, Control_c, 1, 64, 127
3, 180148, Note_on_c, 1, 62, 0
3, 180150, Note_on_c, 1, 59, 0
3, 180150, Note_on_c, 1, 60, 49
3, 180150, Note_on_c, 1, 57, 46
3, 180175, Note_on_c, 1, 57, 0
3, 180178, Note_on_c, 1, 60, 0
3, 180180, Note_on_c, 1, 59, 50
3, 180180, Note_on_c, 1, 55, 54
3, 180180, Note_on_c, 1, 38, 49
3, 180180, Control_c, 1, 64, 0
3, 180190, Control_c, 1, 64, 127
3, 180196, Note_on_c, 1, 55, 0
3, 180204, Note_on_c, 1, 59, 0
3, 180210, Note_on_c, 1, 57, 55
3, 180210, Note_on_c, 1, 54, 45
3, 180222, Note_on_c, 1, 54, 0
3, 180223, Note_on_c, 1, 57, 0
3, 180223, Note_on_c, 1, 38, 0
3, 180240, Note_on_c, 1, 55, 55
3, 180240, Note_on_c, 1, 59, 53
3, 180240, Note_on_c, 1, 43, 47
3, 180242, Control_c, 1, 64, 0
3, 180254, Control_c, 1, 64, 127
3, 180262, Note_on_c, 1, 55, 0
3, 180266, Note_on_c, 1, 59, 0
3, 180270, Note_on_c, 1, 57, 72
3, 180270, Note_on_c, 1, 54, 44
3, 180287, Note_on_c, 1, 54, 0
3, 180293, Note_on_c, 1, 57, 0
3, 180300, Note_on_c, 1, 59, 64
3, 180300, Note_on_c, 1, 55, 61
3, 180304, Control_c, 1, 64, 0
3, 180315, Control_c, 1, 64, 127
3, 180326, Note_on_c, 1, 55, 0
3, 180327, Note_on_c, 1, 59, 0
3, 180330, Note_on_c, 1, 57, 68
3, 180330, Note_on_c, 1, 60, 68
3, 180351, Note_on_c, 1, 60, 0
3, 180352, Note_on_c, 1, 57, 0
3, 180358, Control_c, 1, 64, 0
3, 180360, Note_on_c, 1, 62, 68
3, 180360, Note_on_c, 1, 59, 80
3, 180361, Note_on_c, 1, 43, 0
3, 180369, Control_c, 1, 64, 127
3, 180384, Note_on_c, 1, 59, 0
3, 180386, Note_on_c, 1, 62, 0
3, 180390, Note_on_c, 1, 57, 72
3, 180390, Note_on_c, 1, 60, 68
3, 180414, Note_on_c, 1, 60, 0
3, 180414, Note_on_c, 1, 57, 0
3, 180417, Control_c, 1, 64, 0
3, 180420, Note_on_c, 1, 62, 61
3, 180420, Note_on_c, 1, 59, 68
3, 180427, Control_c, 1, 64, 127
3, 180443, Note_on_c, 1, 59, 0
3, 180444, Note_on_c, 1, 62, 0
3, 180450, Note_on_c, 1, 64, 76
3, 180450, Note_on_c, 1, 60, 76
3, 180459, Note_on_c, 1, 60, 0
3, 180460, Note_on_c, 1, 64, 0
3, 180475, Control_c, 1, 64, 0
3, 180480, Note_on_c, 1, 62, 83
3, 180480, Note_on_c, 1, 65, 83
3, 180486, Control_c, 1, 64, 127
3, 180504, Note_on_c, 1, 65, 0
3, 180505, Note_on_c, 1, 62, 0
3, 180510, Note_on_c, 1, 61, 64
3, 180510, Note_on_c, 1, 64, 68
3, 180523, Note_on_c, 1, 61, 0
3, 180527, Note_on_c, 1, 64, 0
3, 180533, Control_c, 1, 64, 0
3, 180540, Note_on_c, 1, 62, 80
3, 180540, Note_on_c, 1, 65, 80
3, 180543, Control_c, 1, 64, 127
3, 180551, Note_on_c, 1, 65, 0
3, 180551, Note_on_c, 1, 62, 0
3, 180570, Note_on_c, 1, 65, 64
3, 180570, Note_on_c, 1, 69, 68
3, 180588, Note_on_c, 1, 65, 0
3, 180590, Note_on_c, 1, 69, 0
3, 180597, Control_c, 1, 64, 0
3, 180600, Note_on_c, 1, 67, 64
3, 180600, Note_on_c, 1, 64, 80
3, 180608, Control_c, 1, 64, 127
3, 180625, Note_on_c, 1, 64, 0
3, 180627, Note_on_c, 1, 67, 0
3, 180630, Note_on_c, 1, 65, 68
3, 180630, Note_on_c, 1, 62, 64
3, 180638, Note_on_c, 1, 62, 0
3, 180638, Note_on_c, 1, 65, 0
3, 180660, Note_on_c, 1, 64, 64
3, 180660, Note_on_c, 1, 60, 61
3, 180663, Control_c, 1, 64, 0
3, 180673, Control_c, 1, 64, 127
3, 180685, Note_on_c, 1, 60, 0
3, 180687, Note_on_c, 1, 64, 0
3, 180690, Note_on_c, 1, 62, 57
3, 180690, Note_on_c, 1, 59, 55
3, 180702, Note_on_c, 1, 59, 0
3, 180706, Note_on_c, 1, 62, 0
3, 180720, Note_on_c, 1, 64, 61
3, 180720, Note_on_c, 1, 36, 51
3, 180720, Note_on_c, 1, 60, 61
3, 180720, Note_on_c, 1, 48, 38
3, 180723, Control_c, 1, 64, 0
3, 180739, Control_c, 1, 64, 127
3, 180780, Note_on_c, 1, 60, 0
3, 180780, Note_on_c, 1, 55, 54
3, 180821, Note_on_c, 1, 55, 0
3, 180822, Note_on_c, 1, 64, 0
3, 180840, Note_on_c, 1, 64, 49
3, 180840, Note_on_c, 1, 60, 57
3, 180853, Control_c, 1, 64, 0
3, 180865, Control_c, 1, 64, 127
3, 180896, Note_on_c, 1, 60, 0
3, 180900, Note_on_c, 1, 55, 55
3, 180931, Note_on_c, 1, 55, 0
3, 180931, Note_on_c, 1, 64, 0
3, 180960, Note_on_c, 1, 59, 64
3, 180960, Note_on_c, 1, 65, 51
3, 180966, Control_c, 1, 64, 0
3, 180976, Control_c, 1, 64, 127
3, 181015, Note_on_c, 1, 59, 0
3, 181020, Note_on_c, 1, 55, 55
3, 181049, Note_on_c, 1, 65, 0
3, 181054, Note_on_c, 1, 55, 0
3, 181080, Note_on_c, 1, 59, 64
3, 181080, Note_on_c, 1, 65, 54
3, 181086, Control_c, 1, 64, 0
3, 181098, Control_c, 1, 64, 127
3, 181140, Note_on_c, 1, 59, 0
3, 181140, Note_on_c, 1, 55, 57
3, 181169, Note_on_c, 1, 48, 0
3, 181171, Note_on_c, 1, 36, 0
3, 181175, Note_on_c, 1, 55, 0
3, 181179, Note_on_c, 1, 65, 0
3, 181200, Note_on_c, 1, 60, 64
3, 181200, Note_on_c, 1, 64, 68
3, 181200, Note_on_c, 1, 48, 50
3, 181200, Note_on_c, 1, 36, 57
3, 181206, Control_c, 1, 64, 0
3, 181221, Control_c, 1, 64, 127
3, 181259, Note_on_c, 1, 60, 0
3, 181260, Note_on_c, 1, 55, 55
3, 181297, Note_on_c, 1, 55, 0
3, 181300, Note_on_c, 1, 64, 0
3, 181320, Note_on_c, 1, 60, 64
3, 181320, Note_on_c, 1, 64, 61
3, 181328, Control_c, 1, 64, 0
3, 181339, Control_c, 1, 64, 127
3, 181378, Note_on_c, 1, 60, 0
3, 181380, Note_on_c, 1, 55, 55
3, 181415, Note_on_c, 1, 55, 0
3, 181421, Note_on_c, 1, 64, 0
3, 181440, Note_on_c, 1, 59, 68
3, 181440, Note_on_c, 1, 65, 61
3, 181445, Control_c, 1, 64, 0
3, 181459, Control_c, 1, 64, 127
3, 181498, Note_on_c, 1, 59, 0
3, 181500, Note_on_c, 1, 55, 53
3, 181530, Note_on_c, 1, 65, 0
3, 181536, Note_on_c, 1, 55, 0
3, 181560, Note_on_c, 1, 65, 57
3, 181560, Note_on_c, 1, 59, 68
3, 181567, Control_c, 1, 64, 0
3, 181582, Control_c, 1, 64, 127
3, 181620, Note_on_c, 1, 55, 55
3, 181621, Note_on_c, 1, 59, 0
3, 181640, Note_on_c, 1, 48, 0
3, 181642, Note_on_c, 1, 36, 0
3, 181647, Note_on_c, 1, 65, 0
3, 181648, Note_on_c, 1, 55, 0
3, 181680, Note_on_c, 1, 60, 68
3, 181680, Note_on_c, 1, 64, 57
3, 181680, Note_on_c, 1, 36, 55
3, 181680, Note_on_c, 1, 48, 53
3, 181684, Control_c, 1, 64, 0
3, 181698, Control_c, 1, 64, 127
3, 181740, Note_on_c, 1, 55, 57
3, 181742, Note_on_c, 1, 60, 0
3, 181778, Note_on_c, 1, 55, 0
3, 181779, Note_on_c, 1, 64, 0
3, 181800, Note_on_c, 1, 60, 68
3, 181800, Note_on_c, 1, 64, 64
3, 181858, Note_on_c, 1, 60, 0
3, 181860, Note_on_c, 1, 55, 61
3, 181904, Note_on_c, 1, 55, 0
3, 181904, Note_on_c, 1, 64, 0
3, 181920, Note_on_c, 1, 65, 68
3, 181920, Note_on_c, 1, 60, 68
3, 181929, Control_c, 1, 64, 0
3, 181939, Control_c, 1, 64, 127
3, 181975, Note_on_c, 1, 60, 0
3, 181980, Note_on_c, 1, 57, 57
3, 182036, Note_on_c, 1, 65, 0
3, 182038, Note_on_c, 1, 57, 0
3, 182040, Note_on_c, 1, 60, 57
3, 182040, Note_on_c, 1, 64, 57
3, 182046, Control_c, 1, 64, 0
3, 182061, Control_c, 1, 64, 127
3, 182097, Note_on_c, 1, 60, 0
3, 182100, Note_on_c, 1, 55, 61
3, 182122, Note_on_c, 1, 48, 0
3, 182126, Note_on_c, 1, 36, 0
3, 182133, Note_on_c, 1, 64, 0
3, 182135, Note_on_c, 1, 55, 0
3, 182160, Note_on_c, 1, 31, 68
3, 182160, Note_on_c, 1, 60, 76
3, 182160, Note_on_c, 1, 64, 72
3, 182160, Note_on_c, 1, 43, 53
3, 182165, Control_c, 1, 64, 0
3, 182183, Control_c, 1, 64, 127
3, 182219, Note_on_c, 1, 60, 0
3, 182220, Note_on_c, 1, 55, 64
3, 182251, Note_on_c, 1, 55, 0
3, 182259, Note_on_c, 1, 64, 0
3, 182280, Note_on_c, 1, 59, 64
3, 182280, Note_on_c, 1, 65, 55
3, 182285, Control_c, 1, 64, 0
3, 182299, Control_c, 1, 64, 127
3, 182340, Note_on_c, 1, 55, 68
3, 182346, Note_on_c, 1, 59, 0
3, 182355, Note_on_c, 1, 31, 0
3, 182358, Note_on_c, 1, 55, 0
3, 182358, Note_on_c, 1, 43, 0
3, 182359, Note_on_c, 1, 65, 0
3, 182400, Note_on_c, 1, 59, 80
3, 182400, Note_on_c, 1, 65, 68
3, 182400, Note_on_c, 1, 55, 68
3, 182400, Note_on_c, 1, 36, 64
3, 182400, Note_on_c, 1, 48, 57
3, 182402, Control_c, 1, 64, 0
3, 182419, Control_c, 1, 64, 127
3, 182496, Note_on_c, 1, 59, 0
3, 182518, Note_on_c, 1, 65, 0
3, 182520, Note_on_c, 1, 64, 72
3, 182520, Note_on_c, 1, 60, 61
3, 182522, Control_c, 1, 64, 0
3, 182538, Control_c, 1, 64, 127
3, 182583, Note_on_c, 1, 60, 0
3, 182583, Note_on_c, 1, 55, 0
3, 182584, Note_on_c, 1, 48, 0
3, 182584, Note_on_c, 1, 36, 0
3, 182584, Note_on_c, 1, 64, 0
3, 182591, Control_c, 1, 64, 0
3, 182640, Note_on_c, 1, 57, 102
3, 182640, Note_on_c, 1, 45, 102
3, 182661, Control_c, 1, 64, 127
3, 182726, Note_on_c, 1, 45, 0
3, 182726, Note_on_c, 1, 57, 0
3, 182730, Note_on_c, 1, 40, 93
3, 182730, Note_on_c, 1, 52, 98
3, 182754, Note_on_c, 1, 52, 0
3, 182758, Note_on_c, 1, 40, 0
3, 182759, Control_c, 1, 64, 0
3, 182760, Note_on_c, 1, 60, 98
3, 182760, Note_on_c, 1, 48, 89
3, 182784, Control_c, 1, 64, 127
3, 182805, Note_on_c, 1, 48, 0
3, 182805, Note_on_c, 1, 45, 85
3, 182805, Note_on_c, 1, 57, 93
3, 182807, Note_on_c, 1, 60, 0
3, 182814, Note_on_c, 1, 57, 0
3, 182818, Note_on_c, 1, 45, 0
3, 182819, Control_c, 1, 64, 0
3, 182820, Note_on_c, 1, 64, 93
3, 182820, Note_on_c, 1, 52, 93
3, 182850, Control_c, 1, 64, 127
3, 182856, Note_on_c, 1, 52, 0
3, 182858, Note_on_c, 1, 64, 0
3, 182865, Note_on_c, 1, 48, 72
3, 182865, Note_on_c, 1, 60, 80
3, 182871, Note_on_c, 1, 60, 0
3, 182871, Note_on_c, 1, 48, 0
3, 182880, Note_on_c, 1, 57, 68
3, 182880, Note_on_c, 1, 69, 119
3, 182886, Control_c, 1, 64, 0
3, 182912, Control_c, 1, 64, 127
3, 182945, Note_on_c, 1, 69, 0
3, 182946, Note_on_c, 1, 57, 0
3, 182955, Control_c, 1, 64, 0
3, 183120, Note_on_c, 1, 52, 102
3, 183120, Note_on_c, 1, 40, 98
3, 183148, Control_c, 1, 64, 127
3, 183188, Note_on_c, 1, 40, 0
3, 183205, Note_on_c, 1, 52, 0
3, 183210, Note_on_c, 1, 35, 93
3, 183210, Note_on_c, 1, 47, 98
3, 183217, Note_on_c, 1, 35, 0
3, 183221, Note_on_c, 1, 47, 0
3, 183240, Note_on_c, 1, 44, 80
3, 183240, Note_on_c, 1, 56, 93
3, 183242, Control_c, 1, 64, 0
3, 183265, Control_c, 1, 64, 127
3, 183280, Note_on_c, 1, 44, 0
3, 183284, Note_on_c, 1, 56, 0
3, 183285, Note_on_c, 1, 40, 80
3, 183285, Note_on_c, 1, 52, 93
3, 183293, Note_on_c, 1, 52, 0
3, 183296, Note_on_c, 1, 40, 0
3, 183300, Control_c, 1, 64, 0
3, 183300, Note_on_c, 1, 59, 93
3, 183300, Note_on_c, 1, 47, 93
3, 183325, Control_c, 1, 64, 127
3, 183334, Note_on_c, 1, 47, 0
3, 183340, Note_on_c, 1, 59, 0
3, 183345, Note_on_c, 1, 44, 80
3, 183345, Note_on_c, 1, 56, 80
3, 183352, Note_on_c, 1, 56, 0
3, 183352, Note_on_c, 1, 44, 0
3, 183360, Note_on_c, 1, 64, 107
3, 183360, Note_on_c, 1, 52, 98
3, 183364, Control_c, 1, 64, 0
3, 183391, Control_c, 1, 64, 127
3, 183417, Note_on_c, 1, 64, 0
3, 183419, Note_on_c, 1, 52, 0
3, 183427, Control_c, 1, 64, 0
3, 183840, Note_on_c, 1, 56, 76
3, 183840, Note_on_c, 1, 63, 98
3, 183840, Note_on_c, 1, 44, 93
3, 183864, Control_c, 1, 64, 127
3, 183930, Note_on_c, 1, 58, 85
3, 183932, Note_on_c, 1, 63, 0
3, 183957, Control_c, 1, 64, 0
3, 183960, Note_on_c, 1, 60, 72
3, 183962, Note_on_c, 1, 58, 0
3, 183971, Control_c, 1, 64, 127
3, 183984, Note_on_c, 1, 60, 0
3, 183990, Note_on_c, 1, 60, 80
3, 183992, Control_c, 1, 64, 0
3, 183996, Note_on_c, 1, 60, 0
3, 184020, Note_on_c, 1, 60, 80
3, 184027, Note_on_c, 1, 60, 0
3, 184043, Control_c, 1, 64, 127
3, 184050, Note_on_c, 1, 60, 85
3, 184057, Note_on_c, 1, 60, 0
3, 184058, Note_on_c, 1, 56, 0
3, 184060, Note_on_c, 1, 44, 0
3, 184074, Control_c, 1, 64, 0
3, 184080, Note_on_c, 1, 60, 72
3, 184080, Note_on_c, 1, 55, 59
3, 184080, Note_on_c, 1, 43, 56
3, 184104, Control_c, 1, 64, 127
3, 184200, Control_c, 1, 64, 0
3, 184203, Note_on_c, 1, 43, 0
3, 184203, Note_on_c, 1, 55, 0
3, 184203, Note_on_c, 1, 60, 0
3, 184260, Note_on_c, 1, 65, 57
3, 184260, Note_on_c, 1, 62, 62
3, 184271, Control_c, 1, 64, 127
3, 184287, Note_on_c, 1, 62, 0
3, 184287, Note_on_c, 1, 65, 0
3, 184320, Note_on_c, 1, 60, 62
3, 184320, Note_on_c, 1, 48, 48
3, 184320, Note_on_c, 1, 64, 59
3, 184323, Control_c, 1, 64, 0
3, 184347, Control_c, 1, 64, 127
3, 184378, Note_on_c, 1, 60, 0
3, 184380, Note_on_c, 1, 55, 56
3, 184440, Note_on_c, 1, 48, 0
3, 184440, Note_on_c, 1, 60, 62
3, 184442, Note_on_c, 1, 55, 0
3, 184443, Control_c, 1, 64, 0
3, 184477, Control_c, 1, 64, 127
3, 184500, Note_on_c, 1, 55, 59
3, 184501, Control_c, 1, 64, 0
3, 184502, Note_on_c, 1, 60, 0
3, 184517, Control_c, 1, 64, 127
3, 184526, Note_on_c, 1, 55, 0
3, 184526, Note_on_c, 1, 64, 0
3, 184560, Note_on_c, 1, 62, 62
3, 184560, Note_on_c, 1, 65, 72
3, 184560, Note_on_c, 1, 43, 68
3, 184561, Control_c, 1, 64, 0
3, 184589, Control_c, 1, 64, 127
3, 184620, Note_on_c, 1, 55, 60
3, 184627, Note_on_c, 1, 62, 0
3, 184666, Note_on_c, 1, 55, 0
3, 184671, Note_on_c, 1, 65, 0
3, 184676, Note_on_c, 1, 43, 0
3, 184680, Note_on_c, 1, 62, 72
3, 184680, Note_on_c, 1, 59, 62
3, 184680, Control_c, 1, 64, 0
3, 184723, Control_c, 1, 64, 127
3, 184737, Note_on_c, 1, 59, 0
3, 184737, Control_c, 1, 64, 0
3, 184740, Note_on_c, 1, 55, 62
3, 184758, Control_c, 1, 64, 127
3, 184777, Note_on_c, 1, 55, 0
3, 184777, Note_on_c, 1, 62, 0
3, 184798, Control_c, 1, 64, 0
3, 184800, Note_on_c, 1, 60, 64
3, 184800, Note_on_c, 1, 48, 55
3, 184800, Note_on_c, 1, 64, 64
3, 184826, Control_c, 1, 64, 127
3, 184860, Note_on_c, 1, 55, 60
3, 184865, Note_on_c, 1, 60, 0
3, 184915, Note_on_c, 1, 55, 0
3, 184919, Note_on_c, 1, 48, 0
3, 184920, Note_on_c, 1, 60, 64
3, 184921, Control_c, 1, 64, 0
3, 184980, Note_on_c, 1, 55, 57
3, 184984, Note_on_c, 1, 60, 0
3, 184984, Control_c, 1, 64, 127
3, 185010, Note_on_c, 1, 64, 0
3, 185013, Note_on_c, 1, 55, 0
3, 185038, Control_c, 1, 64, 0
3, 185040, Note_on_c, 1, 62, 68
3, 185040, Note_on_c, 1, 43, 62
3, 185040, Note_on_c, 1, 65, 72
3, 185066, Control_c, 1, 64, 127
3, 185100, Note_on_c, 1, 55, 55
3, 185103, Note_on_c, 1, 62, 0
3, 185152, Note_on_c, 1, 55, 0
3, 185158, Note_on_c, 1, 65, 0
3, 185160, Note_on_c, 1, 62, 64
3, 185160, Note_on_c, 1, 59, 59
3, 185162, Control_c, 1, 64, 0
3, 185169, Note_on_c, 1, 43, 0
3, 185193, Control_c, 1, 64, 127
3, 185220, Note_on_c, 1, 59, 0
3, 185220, Note_on_c, 1, 55, 68
3, 185241, Note_on_c, 1, 62, 0
3, 185245, Note_on_c, 1, 55, 0
3, 185275, Control_c, 1, 64, 0
3, 185280, Note_on_c, 1, 60, 76
3, 185280, Note_on_c, 1, 64, 72
3, 185280, Note_on_c, 1, 48, 60
3, 185293, Control_c, 1, 64, 127
3, 185340, Note_on_c, 1, 57, 80
3, 185340, Note_on_c, 1, 41, 80
3, 185341, Note_on_c, 1, 48, 0
3, 185341, Note_on_c, 1, 64, 0
3, 185341, Control_c, 1, 64, 0
3, 185342, Note_on_c, 1, 60, 0
3, 185363, Control_c, 1, 64, 127
3, 185400, Note_on_c, 1, 41, 0
3, 185400, Note_on_c, 1, 43, 68
3, 185400, Note_on_c, 1, 55, 80
3, 185401, Note_on_c, 1, 57, 0
3, 185401, Control_c, 1, 64, 0
3, 185425, Control_c, 1, 64, 127
3, 185460, Note_on_c, 1, 55, 0
3, 185460, Note_on_c, 1, 53, 76
3, 185462, Control_c, 1, 64, 0
3, 185479, Control_c, 1, 64, 127
3, 185492, Note_on_c, 1, 53, 0
3, 185515, Control_c, 1, 64, 0
3, 185519, Note_on_c, 1, 43, 0
3, 185520, Note_on_c, 1, 36, 76
3, 185520, Note_on_c, 1, 36, 89
3, 185520, Note_on_c, 1, 55, 93
3, 185535, Note_on_c, 1, 64, 76
3, 185537, Note_on_c, 1, 55, 0
3, 185539, Control_c, 1, 64, 127
3, 185550, Note_on_c, 1, 60, 72
3, 185553, Note_on_c, 1, 64, 0
3, 185565, Note_on_c, 1, 55, 89
3, 185567, Note_on_c, 1, 60, 0
3, 185573, Note_on_c, 1, 55, 0
3, 185577, Note_on_c, 1, 36, 0
3, 185578, Control_c, 1, 64, 0
3, 185580, Note_on_c, 1, 38, 93
3, 185580, Note_on_c, 1, 53, 89
3, 185594, Note_on_c, 1, 53, 0
3, 185595, Note_on_c, 1, 62, 76
3, 185610, Note_on_c, 1, 59, 76
3, 185614, Note_on_c, 1, 62, 0
3, 185615, Control_c, 1, 64, 127
3, 185625, Note_on_c, 1, 53, 93
3, 185626, Note_on_c, 1, 59, 0
3, 185633, Note_on_c, 1, 53, 0
3, 185634, Control_c, 1, 64, 0
3, 185635, Note_on_c, 1, 38, 0
3, 185637, Note_on_c, 1, 36, 0
3, 185640, Note_on_c, 1, 40, 89
3, 185640, Note_on_c, 1, 52, 80
3, 185652, Note_on_c, 1, 52, 0
3, 185655, Note_on_c, 1, 60, 80
3, 185669, Control_c, 1, 64, 127
3, 185670, Note_on_c, 1, 57, 76
3, 185672, Note_on_c, 1, 60, 0
3, 185685, Note_on_c, 1, 52, 85
3, 185686, Note_on_c, 1, 57, 0
3, 185692, Note_on_c, 1, 52, 0
3, 185692, Control_c, 1, 64, 0
3, 185700, Note_on_c, 1, 50, 89
3, 185713, Note_on_c, 1, 50, 0
3, 185715, Note_on_c, 1, 59, 85
3, 185716, Control_c, 1, 64, 127
3, 185730, Note_on_c, 1, 59, 0
3, 185730, Note_on_c, 1, 56, 76
3, 185742, Note_on_c, 1, 56, 0
3, 185745, Note_on_c, 1, 50, 89
3, 185751, Control_c, 1, 64, 0
3, 185753, Note_on_c, 1, 40, 0
3, 185755, Note_on_c, 1, 50, 0
3, 185760, Note_on_c, 1, 49, 102
3, 185760, Note_on_c, 1, 33, 89
3, 185773, Control_c, 1, 64, 127
3, 185782, Note_on_c, 1, 49, 0
3, 185789, Note_on_c, 1, 33, 0
3, 185821, Control_c, 1, 64, 0
3, 186015, Control_c, 1, 64, 127
3, 186030, Note_on_c, 1, 67, 64
3, 186058, Note_on_c, 1, 67, 0
3, 186059, Control_c, 1, 64, 0
3, 186060, Note_on_c, 1, 49, 53
3, 186060, Note_on_c, 1, 65, 72
3, 186060, Note_on_c, 1, 52, 56
3, 186082, Control_c, 1, 64, 127
3, 186090, Note_on_c, 1, 65, 0
3, 186090, Note_on_c, 1, 64, 76
3, 186098, Note_on_c, 1, 52, 0
3, 186099, Note_on_c, 1, 49, 0
3, 186105, Note_on_c, 1, 64, 0
3, 186120, Note_on_c, 1, 50, 64
3, 186120, Control_c, 1, 64, 0
3, 186120, Note_on_c, 1, 64, 72
3, 186120, Note_on_c, 1, 53, 50
3, 186144, Control_c, 1, 64, 127
3, 186150, Note_on_c, 1, 64, 0
3, 186150, Note_on_c, 1, 62, 72
3, 186159, Note_on_c, 1, 53, 0
3, 186161, Note_on_c, 1, 62, 0
3, 186162, Note_on_c, 1, 50, 0
3, 186179, Control_c, 1, 64, 0
3, 186180, Note_on_c, 1, 62, 60
3, 186180, Note_on_c, 1, 55, 55
3, 186180, Note_on_c, 1, 52, 62
3, 186199, Control_c, 1, 64, 127
3, 186208, Note_on_c, 1, 62, 0
3, 186210, Note_on_c, 1, 61, 49
3, 186217, Note_on_c, 1, 55, 0
3, 186221, Note_on_c, 1, 52, 0
3, 186231, Note_on_c, 1, 61, 0
3, 186233, Control_c, 1, 64, 0
3, 186510, Note_on_c, 1, 69, 93
3, 186514, Control_c, 1, 64, 127
3, 186539, Control_c, 1, 64, 0
3, 186540, Note_on_c, 1, 69, 0
3, 186540, Note_on_c, 1, 67, 85
3, 186540, Note_on_c, 1, 53, 60
3, 186540, Note_on_c, 1, 50, 72
3, 186553, Control_c, 1, 64, 127
3, 186570, Note_on_c, 1, 65, 76
3, 186571, Note_on_c, 1, 67, 0
3, 186574, Note_on_c, 1, 50, 0
3, 186576, Note_on_c, 1, 53, 0
3, 186600, Note_on_c, 1, 64, 85
3, 186600, Note_on_c, 1, 52, 60
3, 186600, Note_on_c, 1, 55, 49
3, 186600, Control_c, 1, 64, 0
3, 186601, Note_on_c, 1, 65, 0
3, 186613, Control_c, 1, 64, 127
3, 186630, Note_on_c, 1, 62, 76
3, 186632, Note_on_c, 1, 64, 0
3, 186637, Note_on_c, 1, 55, 0
3, 186637, Note_on_c, 1, 52, 0
3, 186650, Note_on_c, 1, 62, 0
3, 186660, Note_on_c, 1, 61, 76
3, 186660, Note_on_c, 1, 53, 51
3, 186660, Note_on_c, 1, 57, 57
3, 186662, Control_c, 1, 64, 0
3, 186676, Control_c, 1, 64, 127
3, 186681, Note_on_c, 1, 53, 0
3, 186688, Note_on_c, 1, 61, 0
3, 186689, Note_on_c, 1, 57, 0
3, 186690, Note_on_c, 1, 62, 85
3, 186699, Note_on_c, 1, 62, 0
3, 186720, Note_on_c, 1, 52, 72
3, 186723, Control_c, 1, 64, 0
3, 186741, Control_c, 1, 64, 127
3, 186749, Note_on_c, 1, 52, 0
3, 186750, Note_on_c, 1, 62, 64
3, 186778, Note_on_c, 1, 62, 0
3, 186780, Note_on_c, 1, 59, 55
3, 186810, Note_on_c, 1, 62, 68
3, 186813, Note_on_c, 1, 59, 0
3, 186839, Note_on_c, 1, 62, 0
3, 186840, Note_on_c, 1, 52, 64
3, 186849, Control_c, 1, 64, 0
3, 186862, Control_c, 1, 64, 127
3, 186870, Note_on_c, 1, 62, 60
3, 186871, Note_on_c, 1, 52, 0
3, 186897, Note_on_c, 1, 62, 0
3, 186900, Note_on_c, 1, 59, 56
3, 186930, Note_on_c, 1, 62, 48
3, 186933, Note_on_c, 1, 59, 0
3, 186954, Note_on_c, 1, 62, 0
3, 186960, Note_on_c, 1, 52, 72
3, 186960, Note_on_c, 1, 69, 80
3, 186968, Control_c, 1, 64, 127
3, 186989, Note_on_c, 1, 69, 0
3, 186989, Note_on_c, 1, 52, 0
3, 186990, Note_on_c, 1, 68, 80
3, 186990, Note_on_c, 1, 62, 72
3, 187016, Note_on_c, 1, 62, 0
3, 187017, Control_c, 1, 64, 0
3, 187018, Note_on_c, 1, 68, 0
3, 187020, Note_on_c, 1, 66, 64
3, 187020, Note_on_c, 1, 59, 62
3, 187029, Control_c, 1, 64, 127
3, 187048, Note_on_c, 1, 59, 0
3, 187049, Note_on_c, 1, 66, 0
3, 187050, Note_on_c, 1, 62, 64
3, 187050, Note_on_c, 1, 69, 76
3, 187066, Note_on_c, 1, 69, 0
3, 187068, Note_on_c, 1, 62, 0
3, 187073, Control_c, 1, 64, 0
3, 187080, Note_on_c, 1, 52, 72
3, 187080, Note_on_c, 1, 71, 80
3, 187085, Control_c, 1, 64, 127
3, 187088, Control_c, 1, 64, 0
3, 187090, Note_on_c, 1, 71, 0
3, 187100, Note_on_c, 1, 52, 0
3, 187110, Note_on_c, 1, 71, 76
3, 187110, Note_on_c, 1, 59, 68
3, 187120, Note_on_c, 1, 71, 0
3, 187129, Note_on_c, 1, 59, 0
3, 187139, Control_c, 1, 64, 127
3, 187140, Note_on_c, 1, 71, 80
3, 187140, Note_on_c, 1, 56, 62
3, 187152, Note_on_c, 1, 71, 0
3, 187159, Note_on_c, 1, 56, 0
3, 187170, Note_on_c, 1, 59, 68
3, 187170, Note_on_c, 1, 71, 76
3, 187176, Note_on_c, 1, 59, 0
3, 187179, Note_on_c, 1, 71, 0
3, 187197, Control_c, 1, 64, 0
3, 187200, Note_on_c, 1, 71, 85
3, 187200, Note_on_c, 1, 54, 62
3, 187200, Note_on_c, 1, 42, 56
3, 187215, Control_c, 1, 64, 127
3, 187230, Note_on_c, 1, 69, 76
3, 187233, Note_on_c, 1, 71, 0
3, 187258, Control_c, 1, 64, 0
3, 187260, Note_on_c, 1, 69, 0
3, 187260, Note_on_c, 1, 68, 64
3, 187276, Control_c, 1, 64, 127
3, 187290, Note_on_c, 1, 69, 72
3, 187296, Note_on_c, 1, 68, 0
3, 187319, Control_c, 1, 64, 0
3, 187320, Note_on_c, 1, 69, 0
3, 187320, Note_on_c, 1, 71, 80
3, 187335, Control_c, 1, 64, 127
3, 187350, Note_on_c, 1, 69, 89
3, 187352, Note_on_c, 1, 71, 0
3, 187379, Control_c, 1, 64, 0
3, 187380, Note_on_c, 1, 69, 0
3, 187380, Note_on_c, 1, 72, 89
3, 187392, Control_c, 1, 64, 127
3, 187406, Note_on_c, 1, 54, 0
3, 187409, Note_on_c, 1, 72, 0
3, 187410, Note_on_c, 1, 42, 0
3, 187410, Note_on_c, 1, 69, 76
3, 187440, Note_on_c, 1, 68, 76
3, 187440, Note_on_c, 1, 40, 64
3, 187440, Note_on_c, 1, 52, 56
3, 187440, Control_c, 1, 64, 0
3, 187441, Note_on_c, 1, 69, 0
3, 187451, Control_c, 1, 64, 127
3, 187468, Note_on_c, 1, 40, 0
3, 187470, Note_on_c, 1, 52, 0
3, 187475, Note_on_c, 1, 68, 0
3, 187509, Control_c, 1, 64, 0
3, 187680, Note_on_c, 1, 57, 113
3, 187680, Note_on_c, 1, 45, 102
3, 187687, Control_c, 1, 64, 127
3, 187770, Note_on_c, 1, 40, 93
3, 187770, Note_on_c, 1, 52, 98
3, 187774, Note_on_c, 1, 45, 0
3, 187774, Note_on_c, 1, 57, 0
3, 187790, Note_on_c, 1, 52, 0
3, 187796, Note_on_c, 1, 40, 0
3, 187799, Control_c, 1, 64, 0
3, 187800, Note_on_c, 1, 60, 93
3, 187800, Note_on_c, 1, 48, 89
3, 187818, Control_c, 1, 64, 127
3, 187842, Note_on_c, 1, 48, 0
3, 187845, Note_on_c, 1, 60, 0
3, 187845, Note_on_c, 1, 57, 89
3, 187845, Note_on_c, 1, 45, 89
3, 187852, Note_on_c, 1, 57, 0
3, 187853, Note_on_c, 1, 45, 0
3, 187860, Note_on_c, 1, 64, 102
3, 187860, Note_on_c, 1, 52, 89
3, 187863, Control_c, 1, 64, 0
3, 187884, Control_c, 1, 64, 127
3, 187899, Note_on_c, 1, 52, 0
3, 187905, Note_on_c, 1, 64, 0
3, 187905, Note_on_c, 1, 48, 85
3, 187905, Note_on_c, 1, 60, 93
3, 187910, Note_on_c, 1, 60, 0
3, 187911, Note_on_c, 1, 48, 0
3, 187920, Note_on_c, 1, 69, 98
3, 187920, Note_on_c, 1, 57, 102
3, 187924, Control_c, 1, 64, 0
3, 187948, Control_c, 1, 64, 127
3, 187980, Note_on_c, 1, 57, 0
3, 187980, Note_on_c, 1, 69, 0
3, 187984, Control_c, 1, 64, 0
3, 188160, Note_on_c, 1, 53, 93
3, 188160, Note_on_c, 1, 41, 89
3, 188169, Control_c, 1, 64, 127
3, 188249, Note_on_c, 1, 41, 0
3, 188250, Note_on_c, 1, 53, 0
3, 188250, Note_on_c, 1, 36, 89
3, 188250, Note_on_c, 1, 48, 89
3, 188264, Note_on_c, 1, 48, 0
3, 188272, Note_on_c, 1, 36, 0
3, 188274, Control_c, 1, 64, 0
3, 188280, Note_on_c, 1, 57, 93
3, 188280, Note_on_c, 1, 45, 93
3, 188293, Control_c, 1, 64, 127
3, 188322, Note_on_c, 1, 45, 0
3, 188325, Note_on_c, 1, 41, 76
3, 188325, Note_on_c, 1, 53, 93
3, 188326, Note_on_c, 1, 57, 0
3, 188336, Note_on_c, 1, 53, 0
3, 188337, Control_c, 1, 64, 0
3, 188338, Note_on_c, 1, 41, 0
3, 188340, Note_on_c, 1, 60, 98
3, 188340, Note_on_c, 1, 48, 98
3, 188357, Control_c, 1, 64, 127
3, 188376, Note_on_c, 1, 48, 0
3, 188381, Note_on_c, 1, 60, 0
3, 188385, Note_on_c, 1, 45, 93
3, 188385, Note_on_c, 1, 57, 89
3, 188390, Note_on_c, 1, 45, 0
3, 188392, Note_on_c, 1, 57, 0
3, 188400, Note_on_c, 1, 65, 102
3, 188400, Note_on_c, 1, 53, 102
3, 188402, Control_c, 1, 64, 0
3, 188422, Control_c, 1, 64, 127
3, 188456, Note_on_c, 1, 65, 0
3, 188457, Note_on_c, 1, 53, 0
3, 188464, Control_c, 1, 64, 0
3, 189300, Note_on_c, 1, 40, 68
3, 189300, Note_on_c, 1, 47, 72
3, 189300, Note_on_c, 1, 50, 55
3, 189360, Note_on_c, 1, 50, 0
3, 189360, Note_on_c, 1, 47, 0
3, 189360, Note_on_c, 1, 40, 0
3, 189360, Note_on_c, 1, 57, 57
3, 189360, Note_on_c, 1, 45, 64
3, 189360, Note_on_c, 1, 48, 64
3, 189363, Control_c, 1, 64, 127
3, 189374, Note_on_c, 1, 57, 0
3, 189375, Note_on_c, 1, 59, 53
3, 189390, Note_on_c, 1, 57, 55
3, 189390, Control_c, 1, 64, 0
3, 189391, Note_on_c, 1, 59, 0
3, 189399, Control_c, 1, 64, 127
3, 189405, Note_on_c, 1, 56, 45
3, 189406, Note_on_c, 1, 57, 0
3, 189419, Note_on_c, 1, 56, 0
3, 189420, Note_on_c, 1, 57, 57
3, 189420, Note_on_c, 1, 40, 64
3, 189424, Note_on_c, 1, 45, 0
3, 189434, Note_on_c, 1, 57, 0
3, 189435, Note_on_c, 1, 52, 54
3, 189444, Control_c, 1, 64, 127
3, 189450, Note_on_c, 1, 52, 0
3, 189450, Note_on_c, 1, 54, 55
3, 189463, Note_on_c, 1, 54, 0
3, 189465, Note_on_c, 1, 56, 49
3, 189473, Control_c, 1, 64, 0
3, 189475, Note_on_c, 1, 40, 0
3, 189476, Note_on_c, 1, 56, 0
3, 189480, Note_on_c, 1, 57, 68
3, 189480, Control_c, 1, 64, 0
3, 189480, Note_on_c, 1, 45, 61
3, 189495, Note_on_c, 1, 57, 0
3, 189495, Note_on_c, 1, 59, 64
3, 189507, Control_c, 1, 64, 127
3, 189510, Note_on_c, 1, 60, 57
3, 189511, Note_on_c, 1, 59, 0
3, 189524, Control_c, 1, 64, 127
3, 189525, Note_on_c, 1, 60, 0
3, 189525, Note_on_c, 1, 62, 51
3, 189536, Control_c, 1, 64, 0
3, 189540, Note_on_c, 1, 64, 50
3, 189540, Note_on_c, 1, 40, 68
3, 189541, Note_on_c, 1, 62, 0
3, 189541, Note_on_c, 1, 45, 0
3, 189548, Note_on_c, 1, 48, 0
3, 189555, Note_on_c, 1, 60, 54
3, 189555, Control_c, 1, 64, 127
3, 189556, Note_on_c, 1, 64, 0
3, 189568, Note_on_c, 1, 60, 0
3, 189570, Note_on_c, 1, 65, 51
3, 189584, Note_on_c, 1, 65, 0
3, 189585, Note_on_c, 1, 64, 64
3, 189596, Control_c, 1, 64, 0
3, 189600, Note_on_c, 1, 40, 0
3, 189600, Note_on_c, 1, 62, 55
3, 189600, Note_on_c, 1, 47, 54
3, 189600, Note_on_c, 1, 44, 57
3, 189601, Note_on_c, 1, 64, 0
3, 189602, Control_c, 1, 64, 0
3, 189615, Note_on_c, 1, 65, 68
3, 189616, Note_on_c, 1, 62, 0
3, 189618, Control_c, 1, 64, 127
3, 189630, Note_on_c, 1, 62, 54
3, 189631, Note_on_c, 1, 65, 0
3, 189645, Note_on_c, 1, 60, 53
3, 189646, Note_on_c, 1, 62, 0
3, 189659, Note_on_c, 1, 60, 0
3, 189660, Note_on_c, 1, 44, 0
3, 189660, Note_on_c, 1, 59, 54
3, 189660, Note_on_c, 1, 40, 61
3, 189661, Control_c, 1, 64, 0
3, 189673, Note_on_c, 1, 59, 0
3, 189675, Note_on_c, 1, 62, 61
3, 189683, Control_c, 1, 64, 127
3, 189690, Note_on_c, 1, 62, 0
3, 189690, Note_on_c, 1, 59, 53
3, 189705, Note_on_c, 1, 57, 61
3, 189707, Note_on_c, 1, 59, 0
3, 189708, Control_c, 1, 64, 127
3, 189718, Note_on_c, 1, 40, 0
3, 189720, Note_on_c, 1, 56, 51
3, 189720, Note_on_c, 1, 44, 57
3, 189721, Note_on_c, 1, 57, 0
3, 189724, Control_c, 1, 64, 0
3, 189725, Control_c, 1, 64, 0
3, 189734, Note_on_c, 1, 56, 0
3, 189735, Note_on_c, 1, 59, 51
3, 189742, Control_c, 1, 64, 127
3, 189750, Note_on_c, 1, 56, 57
3, 189753, Note_on_c, 1, 59, 0
3, 189765, Note_on_c, 1, 56, 0
3, 189765, Note_on_c, 1, 53, 55
3, 189771, Control_c, 1, 64, 127
3, 189777, Note_on_c, 1, 53, 0
3, 189780, Note_on_c, 1, 52, 64
3, 189780, Note_on_c, 1, 40, 68
3, 189785, Note_on_c, 1, 44, 0
3, 189788, Control_c, 1, 64, 0
3, 189793, Note_on_c, 1, 52, 0
3, 189795, Note_on_c, 1, 59, 55
3, 189810, Note_on_c, 1, 52, 68
3, 189810, Control_c, 1, 64, 127
3, 189812, Note_on_c, 1, 59, 0
3, 189824, Note_on_c, 1, 52, 0
3, 189825, Note_on_c, 1, 50, 55
3, 189830, Note_on_c, 1, 40, 0
3, 189836, Note_on_c, 1, 50, 0
3, 189840, Note_on_c, 1, 48, 57
3, 189840, Note_on_c, 1, 45, 64
3, 189841, Note_on_c, 1, 47, 0
3, 189846, Control_c, 1, 64, 0
3, 189848, Control_c, 1, 64, 0
3, 189855, Note_on_c, 1, 48, 0
3, 189855, Note_on_c, 1, 52, 64
3, 189869, Note_on_c, 1, 52, 0
3, 189870, Note_on_c, 1, 50, 51
3, 189875, Control_c, 1, 64, 127
3, 189885, Note_on_c, 1, 48, 54
3, 189887, Note_on_c, 1, 50, 0
3, 189898, Note_on_c, 1, 48, 0
3, 189899, Control_c, 1, 64, 127
3, 189900, Note_on_c, 1, 50, 55
3, 189900, Note_on_c, 1, 40, 68
3, 189903, Note_on_c, 1, 45, 0
3, 189906, Control_c, 1, 64, 0
3, 189914, Note_on_c, 1, 50, 0
3, 189915, Note_on_c, 1, 52, 61
3, 189925, Control_c, 1, 64, 127
3, 189930, Note_on_c, 1, 54, 55
3, 189932, Note_on_c, 1, 52, 0
3, 189934, Control_c, 1, 64, 0
3, 189945, Note_on_c, 1, 54, 0
3, 189945, Note_on_c, 1, 56, 53
3, 189947, Control_c, 1, 64, 127
3, 189956, Note_on_c, 1, 56, 0
3, 189960, Note_on_c, 1, 57, 61
3, 189960, Note_on_c, 1, 48, 54
3, 189961, Note_on_c, 1, 40, 0
3, 189963, Control_c, 1, 64, 0
3, 189967, Control_c, 1, 64, 0
3, 189973, Note_on_c, 1, 57, 0
3, 189975, Note_on_c, 1, 59, 54
3, 189990, Note_on_c, 1, 60, 64
3, 189993, Note_on_c, 1, 59, 0
3, 189995, Control_c, 1, 64, 127
3, 189998, Control_c, 1, 64, 127
3, 190005, Note_on_c, 1, 62, 57
3, 190008, Note_on_c, 1, 60, 0
3, 190020, Note_on_c, 1, 62, 0
3, 190020, Note_on_c, 1, 64, 68
3, 190020, Note_on_c, 1, 40, 75
3, 190024, Control_c, 1, 64, 0
3, 190025, Note_on_c, 1, 48, 0
3, 190035, Note_on_c, 1, 60, 44
3, 190038, Note_on_c, 1, 64, 0
3, 190039, Control_c, 1, 64, 127
3, 190047, Note_on_c, 1, 60, 0
3, 190050, Note_on_c, 1, 65, 68
3, 190059, Control_c, 1, 64, 0
3, 190064, Note_on_c, 1, 65, 0
3, 190065, Note_on_c, 1, 64, 68
3, 190073, Control_c, 1, 64, 127
3, 190076, Control_c, 1, 64, 0
3, 190078, Note_on_c, 1, 64, 0
3, 190080, Note_on_c, 1, 62, 51
3, 190080, Note_on_c, 1, 44, 61
3, 190080, Note_on_c, 1, 47, 57
3, 190083, Note_on_c, 1, 40, 0
3, 190085, Control_c, 1, 64, 0
3, 190095, Note_on_c, 1, 62, 0
3, 190095, Note_on_c, 1, 65, 72
3, 190104, Control_c, 1, 64, 127
3, 190109, Note_on_c, 1, 65, 0
3, 190110, Note_on_c, 1, 62, 55
3, 190124, Control_c, 1, 64, 127
3, 190125, Note_on_c, 1, 60, 61
3, 190127, Note_on_c, 1, 62, 0
3, 190137, Note_on_c, 1, 44, 0
3, 190138, Control_c, 1, 64, 0
3, 190140, Note_on_c, 1, 60, 0
3, 190140, Note_on_c, 1, 59, 68
3, 190140, Note_on_c, 1, 40, 68
3, 190152, Note_on_c, 1, 59, 0
3, 190155, Note_on_c, 1, 62, 64
3, 190156, Control_c, 1, 64, 127
3, 190169, Note_on_c, 1, 62, 0
3, 190170, Note_on_c, 1, 59, 68
3, 190185, Note_on_c, 1, 57, 64
3, 190187, Note_on_c, 1, 59, 0
3, 190192, Note_on_c, 1, 40, 0
3, 190196, Control_c, 1, 64, 0
3, 190196, Control_c, 1, 64, 0
3, 190200, Note_on_c, 1, 56, 54
3, 190200, Note_on_c, 1, 44, 54
3, 190202, Note_on_c, 1, 57, 0
3, 190213, Note_on_c, 1, 56, 0
3, 190213, Control_c, 1, 64, 127
3, 190215, Note_on_c, 1, 59, 61
3, 190230, Note_on_c, 1, 56, 61
3, 190233, Note_on_c, 1, 59, 0
3, 190235, Control_c, 1, 64, 127
3, 190245, Note_on_c, 1, 56, 0
3, 190245, Note_on_c, 1, 53, 54
3, 190257, Note_on_c, 1, 53, 0
3, 190258, Note_on_c, 1, 44, 0
3, 190260, Control_c, 1, 64, 0
3, 190260, Note_on_c, 1, 52, 72
3, 190260, Note_on_c, 1, 40, 72
3, 190274, Note_on_c, 1, 52, 0
3, 190275, Note_on_c, 1, 59, 64
3, 190279, Control_c, 1, 64, 127
3, 190290, Note_on_c, 1, 52, 64
3, 190292, Note_on_c, 1, 59, 0
3, 190305, Note_on_c, 1, 52, 0
3, 190305, Note_on_c, 1, 50, 54
3, 190312, Note_on_c, 1, 47, 0
3, 190313, Control_c, 1, 64, 0
3, 190318, Note_on_c, 1, 50, 0
3, 190320, Note_on_c, 1, 52, 76
3, 190320, Note_on_c, 1, 45, 75
3, 190323, Note_on_c, 1, 40, 0
3, 190325, Control_c, 1, 64, 0
3, 190334, Note_on_c, 1, 52, 0
3, 190335, Note_on_c, 1, 60, 61
3, 190346, Control_c, 1, 64, 127
3, 190349, Note_on_c, 1, 60, 0
3, 190350, Note_on_c, 1, 57, 68
3, 190365, Note_on_c, 1, 52, 68
3, 190367, Note_on_c, 1, 57, 0
3, 190380, Note_on_c, 1, 50, 68
3, 190380, Note_on_c, 1, 38, 75
3, 190381, Note_on_c, 1, 52, 0
3, 190386, Note_on_c, 1, 45, 0
3, 190389, Control_c, 1, 64, 0
3, 190395, Note_on_c, 1, 59, 72
3, 190397, Note_on_c, 1, 50, 0
3, 190409, Control_c, 1, 64, 127
3, 190410, Note_on_c, 1, 53, 54
3, 190414, Note_on_c, 1, 59, 0
3, 190414, Control_c, 1, 64, 127
3, 190424, Note_on_c, 1, 53, 0
3, 190425, Note_on_c, 1, 50, 51
3, 190430, Control_c, 1, 64, 0
3, 190438, Note_on_c, 1, 50, 0
3, 190440, Note_on_c, 1, 48, 64
3, 190440, Note_on_c, 1, 40, 79
3, 190441, Note_on_c, 1, 38, 0
3, 190448, Control_c, 1, 64, 0
3, 190455, Note_on_c, 1, 57, 72
3, 190456, Note_on_c, 1, 48, 0
3, 190466, Control_c, 1, 64, 127
3, 190469, Note_on_c, 1, 57, 0
3, 190470, Note_on_c, 1, 52, 55
3, 190485, Note_on_c, 1, 48, 55
3, 190488, Note_on_c, 1, 52, 0
3, 190490, Control_c, 1, 64, 127
3, 190494, Note_on_c, 1, 48, 0
3, 190500, Note_on_c, 1, 47, 72
3, 190511, Control_c, 1, 64, 0
3, 190515, Note_on_c, 1, 56, 55
3, 190516, Note_on_c, 1, 47, 0
3, 190528, Control_c, 1, 64, 127
3, 190530, Note_on_c, 1, 50, 68
3, 190531, Note_on_c, 1, 56, 0
3, 190542, Note_on_c, 1, 50, 0
3, 190545, Note_on_c, 1, 47, 64
3, 190550, Control_c, 1, 64, 0
3, 190555, Note_on_c, 1, 47, 0
3, 190560, Note_on_c, 1, 45, 64
3, 190560, Note_on_c, 1, 33, 68
3, 190561, Note_on_c, 1, 40, 0
3, 190562, Control_c, 1, 64, 0
3, 190576, Control_c, 1, 64, 127
3, 190582, Control_c, 1, 64, 127
3, 190621, Note_on_c, 1, 45, 0
3, 190626, Control_c, 1, 64, 0
3, 190634, Note_on_c, 1, 33, 0
3, 190637, Control_c, 1, 64, 0
3, 190800, Note_on_c, 1, 45, 75
3, 190818, Control_c, 1, 64, 127
3, 190860, Note_on_c, 1, 52, 80
3, 190860, Note_on_c, 1, 48, 83
3, 190877, Note_on_c, 1, 48, 0
3, 190878, Note_on_c, 1, 52, 0
3, 190881, Note_on_c, 1, 45, 0
3, 190883, Control_c, 1, 64, 0
3, 190920, Note_on_c, 1, 57, 68
3, 190920, Note_on_c, 1, 60, 76
3, 190931, Control_c, 1, 64, 127
3, 190962, Note_on_c, 1, 57, 0
3, 190963, Note_on_c, 1, 60, 0
3, 190980, Note_on_c, 1, 57, 64
3, 190980, Note_on_c, 1, 52, 55
3, 190991, Control_c, 1, 64, 0
3, 191004, Control_c, 1, 64, 127
3, 191011, Note_on_c, 1, 52, 0
3, 191014, Note_on_c, 1, 57, 0
3, 191040, Note_on_c, 1, 43, 75
3, 191043, Control_c, 1, 64, 0
3, 191047, Control_c, 1, 64, 127
3, 191100, Note_on_c, 1, 52, 80
3, 191100, Note_on_c, 1, 49, 83
3, 191108, Control_c, 1, 64, 127
3, 191110, Note_on_c, 1, 49, 0
3, 191116, Note_on_c, 1, 52, 0
3, 191151, Note_on_c, 1, 43, 0
3, 191151, Control_c, 1, 64, 0
3, 191160, Note_on_c, 1, 57, 80
3, 191160, Note_on_c, 1, 61, 68
3, 191166, Control_c, 1, 64, 0
3, 191179, Control_c, 1, 64, 127
3, 191185, Note_on_c, 1, 61, 0
3, 191185, Note_on_c, 1, 57, 0
3, 191220, Note_on_c, 1, 57, 80
3, 191220, Note_on_c, 1, 52, 68
3, 191226, Control_c, 1, 64, 0
3, 191239, Control_c, 1, 64, 127
3, 191250, Note_on_c, 1, 52, 0
3, 191252, Note_on_c, 1, 57, 0
3, 191280, Note_on_c, 1, 42, 79
3, 191282, Control_c, 1, 64, 0
3, 191313, Control_c, 1, 64, 127
3, 191340, Note_on_c, 1, 54, 91
3, 191340, Note_on_c, 1, 50, 88
3, 191349, Control_c, 1, 64, 127
3, 191361, Note_on_c, 1, 50, 0
3, 191367, Note_on_c, 1, 54, 0
3, 191381, Note_on_c, 1, 42, 0
3, 191387, Control_c, 1, 64, 0
3, 191400, Note_on_c, 1, 57, 88
3, 191400, Note_on_c, 1, 62, 83
3, 191402, Control_c, 1, 64, 0
3, 191415, Control_c, 1, 64, 127
3, 191419, Note_on_c, 1, 62, 0
3, 191424, Note_on_c, 1, 57, 0
3, 191460, Note_on_c, 1, 54, 80
3, 191460, Note_on_c, 1, 57, 83
3, 191463, Control_c, 1, 64, 0
3, 191477, Control_c, 1, 64, 127
3, 191481, Note_on_c, 1, 57, 0
3, 191484, Note_on_c, 1, 54, 0
3, 191520, Note_on_c, 1, 41, 83
3, 191525, Control_c, 1, 64, 0
3, 191556, Control_c, 1, 64, 127
3, 191580, Note_on_c, 1, 51, 88
3, 191580, Note_on_c, 1, 48, 88
3, 191588, Control_c, 1, 64, 127
3, 191594, Note_on_c, 1, 48, 0
3, 191598, Note_on_c, 1, 51, 0
3, 191637, Note_on_c, 1, 41, 0
3, 191640, Note_on_c, 1, 60, 83
3, 191640, Note_on_c, 1, 57, 80
3, 191641, Control_c, 1, 64, 0
3, 191642, Control_c, 1, 64, 0
3, 191654, Control_c, 1, 64, 127
3, 191661, Note_on_c, 1, 60, 0
3, 191663, Note_on_c, 1, 57, 0
3, 191700, Note_on_c, 1, 51, 57
3, 191700, Note_on_c, 1, 57, 68
3, 191703, Control_c, 1, 64, 0
3, 191715, Control_c, 1, 64, 127
3, 191727, Note_on_c, 1, 57, 0
3, 191728, Note_on_c, 1, 51, 0
3, 191760, Control_c, 1, 64, 0
3, 191760, Note_on_c, 1, 56, 61
3, 191760, Note_on_c, 1, 40, 64
3, 191775, Note_on_c, 1, 52, 57
3, 191776, Control_c, 1, 64, 127
3, 191779, Note_on_c, 1, 56, 0
3, 191790, Note_on_c, 1, 52, 0
3, 191790, Note_on_c, 1, 56, 53
3, 191793, Control_c, 1, 64, 0
3, 191793, Control_c, 1, 64, 127
3, 191805, Note_on_c, 1, 56, 0
3, 191805, Note_on_c, 1, 59, 61
3, 191819, Note_on_c, 1, 59, 0
3, 191820, Note_on_c, 1, 64, 35
3, 191829, Note_on_c, 1, 64, 0
3, 191835, Note_on_c, 1, 56, 54
3, 191847, Control_c, 1, 64, 127
3, 191849, Note_on_c, 1, 56, 0
3, 191850, Note_on_c, 1, 59, 64
3, 191865, Note_on_c, 1, 64, 53
3, 191871, Note_on_c, 1, 59, 0
3, 191879, Note_on_c, 1, 64, 0
3, 191880, Note_on_c, 1, 68, 68
3, 191888, Control_c, 1, 64, 0
3, 191895, Note_on_c, 1, 68, 0
3, 191895, Note_on_c, 1, 64, 55
3, 191901, Control_c, 1, 64, 0
3, 191905, Note_on_c, 1, 40, 0
3, 191905, Control_c, 1, 64, 127
3, 191908, Note_on_c, 1, 64, 0
3, 191910, Note_on_c, 1, 59, 55
3, 191925, Note_on_c, 1, 59, 0
3, 191925, Note_on_c, 1, 56, 50
3, 191934, Note_on_c, 1, 56, 0
3, 191940, Note_on_c, 1, 64, 80
3, 191949, Control_c, 1, 64, 0
3, 191955, Note_on_c, 1, 59, 50
3, 191956, Note_on_c, 1, 64, 0
3, 191967, Control_c, 1, 64, 127
3, 191970, Note_on_c, 1, 56, 55
3, 191972, Note_on_c, 1, 59, 0
3, 191985, Note_on_c, 1, 52, 55
3, 191987, Note_on_c, 1, 56, 0
3, 191996, Note_on_c, 1, 52, 0
3, 192000, Note_on_c, 1, 57, 68
3, 192000, Note_on_c, 1, 40, 64
3, 192003, Control_c, 1, 64, 0
3, 192013, Note_on_c, 1, 57, 0
3, 192015, Note_on_c, 1, 52, 50
3, 192018, Control_c, 1, 64, 127
3, 192025, Control_c, 1, 64, 127
3, 192027, Note_on_c, 1, 52, 0
3, 192030, Note_on_c, 1, 57, 64
3, 192044, Note_on_c, 1, 57, 0
3, 192045, Note_on_c, 1, 60, 64
3, 192059, Control_c, 1, 64, 0
3, 192060, Note_on_c, 1, 60, 0
3, 192060, Note_on_c, 1, 64, 68
3, 192072, Note_on_c, 1, 64, 0
3, 192073, Control_c, 1, 64, 127
3, 192075, Note_on_c, 1, 57, 61
3, 192088, Note_on_c, 1, 57, 0
3, 192090, Note_on_c, 1, 60, 57
3, 192105, Note_on_c, 1, 60, 0
3, 192105, Note_on_c, 1, 64, 54
3, 192120, Note_on_c, 1, 69, 61
3, 192121, Note_on_c, 1, 64, 0
3, 192121, Control_c, 1, 64, 0
3, 192135, Note_on_c, 1, 69, 0
3, 192135, Note_on_c, 1, 64, 68
3, 192137, Control_c, 1, 64, 127
3, 192145, Control_c, 1, 64, 0
3, 192149, Note_on_c, 1, 40, 0
3, 192150, Note_on_c, 1, 64, 0
3, 192150, Note_on_c, 1, 60, 53
3, 192164, Note_on_c, 1, 60, 0
3, 192165, Note_on_c, 1, 57, 54
3, 192175, Note_on_c, 1, 57, 0
3, 192180, Note_on_c, 1, 64, 68
3, 192186, Control_c, 1, 64, 0
3, 192195, Note_on_c, 1, 60, 68
3, 192197, Note_on_c, 1, 64, 0
3, 192201, Control_c, 1, 64, 127
3, 192210, Note_on_c, 1, 57, 61
3, 192211, Note_on_c, 1, 60, 0
3, 192225, Note_on_c, 1, 57, 0
3, 192225, Note_on_c, 1, 52, 43
3, 192237, Note_on_c, 1, 52, 0
3, 192240, Note_on_c, 1, 56, 68
3, 192240, Note_on_c, 1, 40, 75
3, 192245, Control_c, 1, 64, 0
3, 192254, Note_on_c, 1, 56, 0
3, 192255, Note_on_c, 1, 52, 36
3, 192260, Control_c, 1, 64, 127
3, 192262, Control_c, 1, 64, 127
3, 192268, Note_on_c, 1, 52, 0
3, 192270, Note_on_c, 1, 56, 64
3, 192285, Note_on_c, 1, 59, 64
3, 192286, Note_on_c, 1, 56, 0
3, 192296, Note_on_c, 1, 59, 0
3, 192300, Note_on_c, 1, 64, 57
3, 192303, Control_c, 1, 64, 0
3, 192313, Note_on_c, 1, 64, 0
3, 192315, Note_on_c, 1, 56, 57
3, 192319, Control_c, 1, 64, 127
3, 192328, Note_on_c, 1, 56, 0
3, 192330, Note_on_c, 1, 59, 61
3, 192345, Note_on_c, 1, 64, 57
3, 192353, Note_on_c, 1, 59, 0
3, 192360, Note_on_c, 1, 64, 0
3, 192360, Note_on_c, 1, 68, 72
3, 192362, Control_c, 1, 64, 0
3, 192375, Note_on_c, 1, 68, 0
3, 192375, Note_on_c, 1, 64, 68
3, 192376, Control_c, 1, 64, 127
3, 192379, Note_on_c, 1, 40, 0
3, 192387, Note_on_c, 1, 64, 0
3, 192389, Control_c, 1, 64, 0
3, 192390, Note_on_c, 1, 59, 61
3, 192405, Note_on_c, 1, 59, 0
3, 192405, Note_on_c, 1, 56, 49
3, 192415, Note_on_c, 1, 56, 0
3, 192420, Note_on_c, 1, 64, 68
3, 192425, Control_c, 1, 64, 0
3, 192433, Note_on_c, 1, 64, 0
3, 192435, Note_on_c, 1, 59, 32
3, 192442, Control_c, 1, 64, 127
3, 192450, Note_on_c, 1, 56, 61
3, 192452, Note_on_c, 1, 59, 0
3, 192465, Note_on_c, 1, 56, 0
3, 192465, Note_on_c, 1, 52, 53
3, 192477, Note_on_c, 1, 52, 0
3, 192480, Note_on_c, 1, 57, 72
3, 192480, Note_on_c, 1, 40, 72
3, 192491, Control_c, 1, 64, 0
3, 192493, Control_c, 1, 64, 127
3, 192495, Note_on_c, 1, 57, 0
3, 192495, Note_on_c, 1, 52, 57
3, 192505, Control_c, 1, 64, 127
3, 192508, Note_on_c, 1, 52, 0
3, 192510, Note_on_c, 1, 57, 72
3, 192525, Note_on_c, 1, 60, 64
3, 192526, Note_on_c, 1, 57, 0
3, 192540, Note_on_c, 1, 64, 76
3, 192542, Note_on_c, 1, 60, 0
3, 192545, Control_c, 1, 64, 0
3, 192554, Note_on_c, 1, 64, 0
3, 192555, Note_on_c, 1, 57, 64
3, 192558, Control_c, 1, 64, 127
3, 192568, Note_on_c, 1, 57, 0
3, 192570, Note_on_c, 1, 60, 55
3, 192585, Note_on_c, 1, 64, 64
3, 192591, Note_on_c, 1, 60, 0
3, 192600, Note_on_c, 1, 64, 0
3, 192600, Note_on_c, 1, 69, 68
3, 192601, Control_c, 1, 64, 0
3, 192612, Note_on_c, 1, 69, 0
3, 192615, Note_on_c, 1, 64, 55
3, 192615, Control_c, 1, 64, 127
3, 192620, Control_c, 1, 64, 0
3, 192621, Note_on_c, 1, 40, 0
3, 192630, Note_on_c, 1, 60, 68
3, 192632, Note_on_c, 1, 64, 0
3, 192644, Note_on_c, 1, 60, 0
3, 192645, Note_on_c, 1, 57, 57
3, 192655, Note_on_c, 1, 57, 0
3, 192660, Note_on_c, 1, 64, 68
3, 192662, Control_c, 1, 64, 0
3, 192675, Note_on_c, 1, 60, 68
3, 192678, Note_on_c, 1, 64, 0
3, 192678, Control_c, 1, 64, 127
3, 192690, Note_on_c, 1, 57, 64
3, 192692, Note_on_c, 1, 60, 0
3, 192705, Note_on_c, 1, 57, 0
3, 192705, Note_on_c, 1, 52, 55
3, 192718, Note_on_c, 1, 52, 0
3, 192720, Note_on_c, 1, 56, 68
3, 192720, Note_on_c, 1, 40, 68
3, 192722, Control_c, 1, 64, 0
3, 192732, Control_c, 1, 64, 127
3, 192734, Note_on_c, 1, 56, 0
3, 192735, Note_on_c, 1, 52, 45
3, 192736, Control_c, 1, 64, 127
3, 192749, Note_on_c, 1, 52, 0
3, 192750, Note_on_c, 1, 56, 61
3, 192764, Note_on_c, 1, 56, 0
3, 192765, Note_on_c, 1, 59, 61
3, 192776, Note_on_c, 1, 59, 0
3, 192779, Control_c, 1, 64, 0
3, 192780, Note_on_c, 1, 64, 57
3, 192794, Note_on_c, 1, 64, 0
3, 192795, Note_on_c, 1, 56, 55
3, 192795, Control_c, 1, 64, 127
3, 192808, Note_on_c, 1, 56, 0
3, 192810, Note_on_c, 1, 59, 54
3, 192825, Note_on_c, 1, 64, 57
3, 192831, Note_on_c, 1, 59, 0
3, 192839, Note_on_c, 1, 64, 0
3, 192839, Control_c, 1, 64, 0
3, 192840, Note_on_c, 1, 68, 64
3, 192854, Control_c, 1, 64, 127
3, 192855, Note_on_c, 1, 68, 0
3, 192855, Note_on_c, 1, 64, 61
3, 192861, Control_c, 1, 64, 0
3, 192862, Note_on_c, 1, 40, 0
3, 192868, Note_on_c, 1, 64, 0
3, 192870, Note_on_c, 1, 59, 55
3, 192885, Note_on_c, 1, 56, 47
3, 192886, Note_on_c, 1, 59, 0
3, 192896, Note_on_c, 1, 56, 0
3, 192900, Note_on_c, 1, 64, 80
3, 192902, Control_c, 1, 64, 0
3, 192915, Note_on_c, 1, 59, 53
3, 192917, Note_on_c, 1, 64, 0
3, 192920, Control_c, 1, 64, 127
3, 192930, Note_on_c, 1, 56, 61
3, 192933, Note_on_c, 1, 59, 0
3, 192945, Note_on_c, 1, 52, 46
3, 192946, Note_on_c, 1, 56, 0
3, 192958, Note_on_c, 1, 52, 0
3, 192960, Note_on_c, 1, 55, 72
3, 192960, Note_on_c, 1, 40, 72
3, 192963, Control_c, 1, 64, 0
3, 192975, Note_on_c, 1, 55, 0
3, 192975, Note_on_c, 1, 52, 47
3, 192978, Control_c, 1, 64, 127
3, 192978, Control_c, 1, 64, 127
3, 192989, Note_on_c, 1, 52, 0
3, 192990, Note_on_c, 1, 55, 55
3, 193005, Note_on_c, 1, 55, 0
3, 193005, Note_on_c, 1, 59, 57
3, 193020, Note_on_c, 1, 59, 0
3, 193020, Note_on_c, 1, 64, 57
3, 193027, Control_c, 1, 64, 0
3, 193035, Note_on_c, 1, 55, 38
3, 193036, Note_on_c, 1, 64, 0
3, 193040, Control_c, 1, 64, 127
3, 193050, Note_on_c, 1, 55, 0
3, 193050, Note_on_c, 1, 59, 57
3, 193065, Note_on_c, 1, 64, 55
3, 193076, Note_on_c, 1, 59, 0
3, 193077, Note_on_c, 1, 64, 0
3, 193080, Note_on_c, 1, 67, 68
3, 193085, Control_c, 1, 64, 0
3, 193090, Note_on_c, 1, 40, 0
3, 193093, Control_c, 1, 64, 0
3, 193095, Note_on_c, 1, 64, 68
3, 193096, Note_on_c, 1, 67, 0
3, 193100, Control_c, 1, 64, 127
3, 193110, Note_on_c, 1, 59, 55
3, 193111, Note_on_c, 1, 64, 0
3, 193124, Note_on_c, 1, 59, 0
3, 193125, Note_on_c, 1, 55, 55
3, 193136, Note_on_c, 1, 55, 0
3, 193140, Note_on_c, 1, 64, 80
3, 193147, Control_c, 1, 64, 0
3, 193155, Note_on_c, 1, 59, 50
3, 193156, Note_on_c, 1, 64, 0
3, 193161, Control_c, 1, 64, 127
3, 193170, Note_on_c, 1, 55, 68
3, 193171, Note_on_c, 1, 59, 0
3, 193185, Note_on_c, 1, 52, 68
3, 193186, Note_on_c, 1, 55, 0
3, 193197, Note_on_c, 1, 52, 0
3, 193200, Note_on_c, 1, 54, 76
3, 193200, Note_on_c, 1, 47, 83
3, 193204, Control_c, 1, 64, 0
3, 193215, Note_on_c, 1, 51, 57
3, 193217, Note_on_c, 1, 54, 0
3, 193217, Control_c, 1, 64, 127
3, 193218, Control_c, 1, 64, 127
3, 193228, Note_on_c, 1, 51, 0
3, 193230, Note_on_c, 1, 54, 68
3, 193245, Note_on_c, 1, 59, 53
3, 193247, Note_on_c, 1, 54, 0
3, 193259, Note_on_c, 1, 59, 0
3, 193260, Note_on_c, 1, 63, 72
3, 193266, Control_c, 1, 64, 0
3, 193275, Note_on_c, 1, 54, 47
3, 193276, Note_on_c, 1, 63, 0
3, 193277, Control_c, 1, 64, 127
3, 193290, Note_on_c, 1, 54, 0
3, 193290, Note_on_c, 1, 59, 83
3, 193305, Note_on_c, 1, 63, 64
3, 193306, Note_on_c, 1, 59, 0
3, 193316, Note_on_c, 1, 63, 0
3, 193317, Note_on_c, 1, 47, 0
3, 193320, Note_on_c, 1, 66, 61
3, 193327, Control_c, 1, 64, 0
3, 193330, Control_c, 1, 64, 0
3, 193335, Note_on_c, 1, 59, 57
3, 193337, Note_on_c, 1, 66, 0
3, 193340, Control_c, 1, 64, 127
3, 193350, Note_on_c, 1, 59, 0
3, 193350, Note_on_c, 1, 63, 64
3, 193363, Note_on_c, 1, 63, 0
3, 193365, Note_on_c, 1, 66, 54
3, 193378, Note_on_c, 1, 66, 0
3, 193380, Note_on_c, 1, 71, 76
3, 193390, Control_c, 1, 64, 0
3, 193395, Note_on_c, 1, 66, 68
3, 193397, Note_on_c, 1, 71, 0
3, 193402, Control_c, 1, 64, 127
3, 193410, Note_on_c, 1, 66, 0
3, 193410, Note_on_c, 1, 63, 68
3, 193425, Note_on_c, 1, 63, 0
3, 193425, Note_on_c, 1, 59, 61
3, 193434, Note_on_c, 1, 59, 0
3, 193440, Note_on_c, 1, 55, 68
3, 193440, Note_on_c, 1, 31, 79
3, 193440, Note_on_c, 1, 43, 75
3, 193445, Control_c, 1, 64, 0
3, 193455, Note_on_c, 1, 55, 0
3, 193455, Note_on_c, 1, 53, 61
3, 193458, Control_c, 1, 64, 127
3, 193467, Control_c, 1, 64, 127
3, 193468, Note_on_c, 1, 53, 0
3, 193470, Note_on_c, 1, 55, 80
3, 193484, Note_on_c, 1, 55, 0
3, 193485, Note_on_c, 1, 59, 80
3, 193499, Note_on_c, 1, 59, 0
3, 193500, Note_on_c, 1, 62, 80
3, 193504, Control_c, 1, 64, 0
3, 193515, Note_on_c, 1, 62, 0
3, 193515, Note_on_c, 1, 55, 64
3, 193516, Control_c, 1, 64, 127
3, 193528, Note_on_c, 1, 55, 0
3, 193530, Note_on_c, 1, 59, 72
3, 193544, Note_on_c, 1, 59, 0
3, 193545, Note_on_c, 1, 62, 83
3, 193559, Note_on_c, 1, 62, 0
3, 193560, Note_on_c, 1, 65, 76
3, 193564, Control_c, 1, 64, 0
3, 193575, Note_on_c, 1, 59, 64
3, 193576, Note_on_c, 1, 65, 0
3, 193576, Control_c, 1, 64, 127
3, 193589, Note_on_c, 1, 59, 0
3, 193590, Note_on_c, 1, 62, 76
3, 193599, Note_on_c, 1, 43, 0
3, 193599, Note_on_c, 1, 31, 0
3, 193605, Note_on_c, 1, 65, 68
3, 193608, Note_on_c, 1, 62, 0
3, 193608, Control_c, 1, 64, 0
3, 193620, Note_on_c, 1, 65, 0
3, 193620, Note_on_c, 1, 67, 64
3, 193624, Control_c, 1, 64, 0
3, 193635, Note_on_c, 1, 65, 64
3, 193637, Note_on_c, 1, 67, 0
3, 193638, Control_c, 1, 64, 127
3, 193650, Note_on_c, 1, 62, 55
3, 193653, Note_on_c, 1, 65, 0
3, 193664, Note_on_c, 1, 62, 0
3, 193665, Note_on_c, 1, 59, 53
3, 193676, Note_on_c, 1, 59, 0
3, 193680, Note_on_c, 1, 60, 59
3, 193680, Note_on_c, 1, 48, 47
3, 193680, Note_on_c, 1, 64, 57
3, 193680, Note_on_c, 1, 36, 51
3, 193686, Control_c, 1, 64, 127
3, 193735, Note_on_c, 1, 60, 0
3, 193740, Note_on_c, 1, 55, 60
3, 193785, Note_on_c, 1, 64, 0
3, 193788, Note_on_c, 1, 55, 0
3, 193800, Note_on_c, 1, 60, 68
3, 193800, Note_on_c, 1, 64, 62
3, 193813, Control_c, 1, 64, 0
3, 193829, Control_c, 1, 64, 127
3, 193859, Note_on_c, 1, 60, 0
3, 193860, Note_on_c, 1, 55, 60
3, 193897, Note_on_c, 1, 55, 0
3, 193901, Note_on_c, 1, 64, 0
3, 193920, Note_on_c, 1, 59, 68
3, 193920, Note_on_c, 1, 65, 60
3, 193930, Control_c, 1, 64, 0
3, 193952, Control_c, 1, 64, 127
3, 193979, Note_on_c, 1, 59, 0
3, 193980, Note_on_c, 1, 55, 55
3, 194001, Note_on_c, 1, 65, 0
3, 194006, Note_on_c, 1, 55, 0
3, 194040, Note_on_c, 1, 59, 62
3, 194040, Note_on_c, 1, 65, 48
3, 194047, Control_c, 1, 64, 0
3, 194065, Control_c, 1, 64, 127
3, 194096, Note_on_c, 1, 59, 0
3, 194100, Note_on_c, 1, 55, 42
3, 194132, Note_on_c, 1, 55, 0
3, 194135, Note_on_c, 1, 65, 0
3, 194136, Note_on_c, 1, 48, 0
3, 194137, Note_on_c, 1, 36, 0
3, 194160, Note_on_c, 1, 64, 62
3, 194160, Note_on_c, 1, 48, 56
3, 194160, Note_on_c, 1, 60, 62
3, 194160, Note_on_c, 1, 36, 56
3, 194162, Control_c, 1, 64, 0
3, 194183, Control_c, 1, 64, 127
3, 194217, Note_on_c, 1, 60, 0
3, 194220, Note_on_c, 1, 55, 55
3, 194252, Note_on_c, 1, 55, 0
3, 194253, Note_on_c, 1, 64, 0
3, 194280, Note_on_c, 1, 64, 62
3, 194280, Note_on_c, 1, 60, 60
3, 194282, Control_c, 1, 64, 0
3, 194299, Control_c, 1, 64, 127
3, 194340, Note_on_c, 1, 60, 0
3, 194340, Note_on_c, 1, 55, 62
3, 194370, Note_on_c, 1, 55, 0
3, 194373, Note_on_c, 1, 64, 0
3, 194400, Note_on_c, 1, 65, 64
3, 194400, Note_on_c, 1, 59, 72
3, 194405, Control_c, 1, 64, 0
3, 194423, Control_c, 1, 64, 127
3, 194460, Note_on_c, 1, 55, 56
3, 194461, Note_on_c, 1, 59, 0
3, 194489, Note_on_c, 1, 65, 0
3, 194491, Note_on_c, 1, 55, 0
3, 194520, Note_on_c, 1, 65, 59
3, 194520, Note_on_c, 1, 59, 62
3, 194527, Control_c, 1, 64, 0
3, 194543, Control_c, 1, 64, 127
3, 194578, Note_on_c, 1, 59, 0
3, 194580, Note_on_c, 1, 55, 56
3, 194607, Note_on_c, 1, 55, 0
3, 194608, Note_on_c, 1, 65, 0
3, 194610, Note_on_c, 1, 48, 0
3, 194611, Note_on_c, 1, 36, 0
3, 194640, Note_on_c, 1, 60, 62
3, 194640, Note_on_c, 1, 64, 62
3, 194640, Note_on_c, 1, 36, 57
3, 194640, Note_on_c, 1, 48, 48
3, 194642, Control_c, 1, 64, 0
3, 194660, Control_c, 1, 64, 127
3, 194700, Note_on_c, 1, 55, 56
3, 194703, Note_on_c, 1, 60, 0
3, 194720, Note_on_c, 1, 64, 0
3, 194724, Note_on_c, 1, 55, 0
3, 194760, Note_on_c, 1, 64, 59
3, 194760, Note_on_c, 1, 60, 64
3, 194764, Control_c, 1, 64, 0
3, 194779, Control_c, 1, 64, 127
3, 194819, Note_on_c, 1, 60, 0
3, 194820, Note_on_c, 1, 55, 64
3, 194855, Note_on_c, 1, 55, 0
3, 194865, Note_on_c, 1, 64, 0
3, 194880, Note_on_c, 1, 65, 52
3, 194880, Note_on_c, 1, 60, 64
3, 194883, Control_c, 1, 64, 0
3, 194898, Control_c, 1, 64, 127
3, 194936, Note_on_c, 1, 60, 0
3, 194940, Note_on_c, 1, 57, 64
3, 194963, Note_on_c, 1, 65, 0
3, 194965, Note_on_c, 1, 57, 0
3, 195000, Note_on_c, 1, 64, 59
3, 195000, Note_on_c, 1, 60, 68
3, 195002, Control_c, 1, 64, 0
3, 195020, Control_c, 1, 64, 127
3, 195060, Note_on_c, 1, 60, 0
3, 195060, Note_on_c, 1, 55, 56
3, 195084, Note_on_c, 1, 48, 0
3, 195088, Note_on_c, 1, 36, 0
3, 195090, Note_on_c, 1, 55, 0
3, 195093, Note_on_c, 1, 64, 0
3, 195120, Note_on_c, 1, 31, 64
3, 195120, Note_on_c, 1, 60, 72
3, 195120, Note_on_c, 1, 64, 68
3, 195120, Note_on_c, 1, 43, 41
3, 195121, Control_c, 1, 64, 0
3, 195143, Control_c, 1, 64, 127
3, 195179, Note_on_c, 1, 60, 0
3, 195180, Note_on_c, 1, 55, 62
3, 195209, Note_on_c, 1, 55, 0
3, 195212, Note_on_c, 1, 64, 0
3, 195240, Note_on_c, 1, 59, 76
3, 195240, Note_on_c, 1, 65, 64
3, 195243, Control_c, 1, 64, 0
3, 195262, Control_c, 1, 64, 127
3, 195299, Note_on_c, 1, 65, 0
3, 195299, Note_on_c, 1, 59, 0
3, 195300, Note_on_c, 1, 55, 60
3, 195303, Note_on_c, 1, 31, 0
3, 195311, Note_on_c, 1, 43, 0
3, 195321, Note_on_c, 1, 55, 0
3, 195360, Note_on_c, 1, 59, 76
3, 195360, Note_on_c, 1, 65, 64
3, 195360, Note_on_c, 1, 36, 53
3, 195360, Note_on_c, 1, 48, 46
3, 195362, Control_c, 1, 64, 0
3, 195382, Control_c, 1, 64, 127
3, 195420, Note_on_c, 1, 55, 62
3, 195423, Note_on_c, 1, 59, 0
3, 195478, Note_on_c, 1, 55, 0
3, 195480, Note_on_c, 1, 60, 56
3, 195480, Note_on_c, 1, 64, 51
3, 195481, Note_on_c, 1, 65, 0
3, 195490, Control_c, 1, 64, 0
3, 195503, Control_c, 1, 64, 127
3, 195538, Note_on_c, 1, 60, 0
3, 195538, Note_on_c, 1, 64, 0
3, 195540, Note_on_c, 1, 55, 56
3, 195556, Control_c, 1, 64, 0
3, 195567, Control_c, 1, 64, 127
3, 195574, Note_on_c, 1, 55, 0
3, 195581, Note_on_c, 1, 36, 0
3, 195582, Note_on_c, 1, 48, 0
3, 195597, Control_c, 1, 64, 0
3, 195600, Note_on_c, 1, 60, 59
3, 195600, Note_on_c, 1, 36, 52
3, 195600, Note_on_c, 1, 64, 51
3, 195600, Note_on_c, 1, 48, 32
3, 195617, Control_c, 1, 64, 127
3, 195651, Note_on_c, 1, 60, 0
3, 195660, Note_on_c, 1, 55, 45
3, 195669, Note_on_c, 1, 64, 0
3, 195693, Note_on_c, 1, 55, 0
3, 195720, Note_on_c, 1, 64, 52
3, 195720, Note_on_c, 1, 60, 55
3, 195723, Control_c, 1, 64, 0
3, 195737, Control_c, 1, 64, 127
3, 195778, Note_on_c, 1, 60, 0
3, 195780, Note_on_c, 1, 55, 55
3, 195807, Note_on_c, 1, 55, 0
3, 195812, Note_on_c, 1, 64, 0
3, 195840, Note_on_c, 1, 65, 51
3, 195840, Note_on_c, 1, 59, 62
3, 195841, Control_c, 1, 64, 0
3, 195859, Control_c, 1, 64, 127
3, 195900, Note_on_c, 1, 59, 0
3, 195900, Note_on_c, 1, 55, 53
3, 195925, Note_on_c, 1, 65, 0
3, 195929, Note_on_c, 1, 55, 0
3, 195960, Note_on_c, 1, 59, 59
3, 195960, Note_on_c, 1, 65, 51
3, 195962, Control_c, 1, 64, 0
3, 195976, Control_c, 1, 64, 127
3, 196017, Note_on_c, 1, 59, 0
3, 196020, Note_on_c, 1, 55, 53
3, 196043, Note_on_c, 1, 48, 0
3, 196043, Note_on_c, 1, 36, 0
3, 196050, Note_on_c, 1, 65, 0
3, 196051, Note_on_c, 1, 55, 0
3, 196080, Note_on_c, 1, 64, 55
3, 196080, Note_on_c, 1, 60, 53
3, 196080, Note_on_c, 1, 36, 50
3, 196080, Note_on_c, 1, 48, 33
3, 196084, Control_c, 1, 64, 0
3, 196100, Control_c, 1, 64, 127
3, 196139, Note_on_c, 1, 60, 0
3, 196140, Note_on_c, 1, 55, 52
3, 196169, Note_on_c, 1, 64, 0
3, 196172, Note_on_c, 1, 55, 0
3, 196200, Note_on_c, 1, 60, 56
3, 196200, Note_on_c, 1, 64, 56
3, 196205, Control_c, 1, 64, 0
3, 196220, Control_c, 1, 64, 127
3, 196254, Note_on_c, 1, 60, 0
3, 196260, Note_on_c, 1, 55, 55
3, 196288, Note_on_c, 1, 64, 0
3, 196290, Note_on_c, 1, 55, 0
3, 196320, Note_on_c, 1, 59, 50
3, 196320, Note_on_c, 1, 65, 43
3, 196321, Control_c, 1, 64, 0
3, 196338, Control_c, 1, 64, 127
3, 196380, Note_on_c, 1, 55, 46
3, 196383, Note_on_c, 1, 59, 0
3, 196404, Note_on_c, 1, 65, 0
3, 196408, Note_on_c, 1, 55, 0
3, 196440, Note_on_c, 1, 59, 55
3, 196440, Note_on_c, 1, 65, 51
3, 196442, Control_c, 1, 64, 0
3, 196459, Control_c, 1, 64, 127
3, 196499, Note_on_c, 1, 59, 0
3, 196500, Note_on_c, 1, 55, 51
3, 196525, Note_on_c, 1, 65, 0
3, 196526, Note_on_c, 1, 48, 0
3, 196528, Note_on_c, 1, 36, 0
3, 196529, Note_on_c, 1, 55, 0
3, 196560, Note_on_c, 1, 60, 56
3, 196560, Note_on_c, 1, 64, 57
3, 196560, Note_on_c, 1, 36, 50
3, 196560, Note_on_c, 1, 48, 38
3, 196562, Control_c, 1, 64, 0
3, 196582, Control_c, 1, 64, 127
3, 196620, Note_on_c, 1, 55, 55
3, 196621, Note_on_c, 1, 60, 0
3, 196651, Note_on_c, 1, 55, 0
3, 196655, Note_on_c, 1, 64, 0
3, 196680, Note_on_c, 1, 60, 62
3, 196680, Note_on_c, 1, 64, 56
3, 196684, Control_c, 1, 64, 0
3, 196701, Control_c, 1, 64, 127
3, 196725, Note_on_c, 1, 55, 48
3, 196730, Note_on_c, 1, 60, 0
3, 196755, Note_on_c, 1, 55, 0
3, 196767, Note_on_c, 1, 64, 0
3, 196800, Note_on_c, 1, 60, 57
3, 196800, Note_on_c, 1, 65, 51
3, 196803, Control_c, 1, 64, 0
3, 196818, Control_c, 1, 64, 127
3, 196859, Note_on_c, 1, 60, 0
3, 196860, Note_on_c, 1, 57, 60
3, 196892, Note_on_c, 1, 65, 0
3, 196894, Note_on_c, 1, 57, 0
3, 196920, Note_on_c, 1, 60, 59
3, 196920, Note_on_c, 1, 64, 56
3, 196921, Control_c, 1, 64, 0
3, 196937, Control_c, 1, 64, 127
3, 196980, Note_on_c, 1, 55, 55
3, 196982, Note_on_c, 1, 60, 0
3, 196993, Note_on_c, 1, 48, 0
3, 196998, Note_on_c, 1, 36, 0
3, 197004, Note_on_c, 1, 55, 0
3, 197005, Note_on_c, 1, 64, 0
3, 197040, Note_on_c, 1, 43, 49
3, 197040, Note_on_c, 1, 64, 59
3, 197040, Note_on_c, 1, 31, 57
3, 197040, Control_c, 1, 64, 0
3, 197040, Note_on_c, 1, 60, 52
3, 197060, Control_c, 1, 64, 127
3, 197097, Note_on_c, 1, 60, 0
3, 197100, Note_on_c, 1, 55, 55
3, 197125, Note_on_c, 1, 64, 0
3, 197126, Note_on_c, 1, 55, 0
3, 197160, Note_on_c, 1, 59, 59
3, 197160, Note_on_c, 1, 65, 43
3, 197162, Control_c, 1, 64, 0
3, 197179, Control_c, 1, 64, 127
3, 197219, Note_on_c, 1, 59, 0
3, 197220, Note_on_c, 1, 55, 55
3, 197232, Note_on_c, 1, 31, 0
3, 197237, Note_on_c, 1, 43, 0
3, 197238, Note_on_c, 1, 65, 0
3, 197243, Note_on_c, 1, 55, 0
3, 197280, Note_on_c, 1, 59, 62
3, 197280, Note_on_c, 1, 48, 43
3, 197280, Note_on_c, 1, 65, 51
3, 197280, Note_on_c, 1, 36, 49
3, 197282, Control_c, 1, 64, 0
3, 197298, Control_c, 1, 64, 127
3, 197334, Note_on_c, 1, 59, 0
3, 197340, Note_on_c, 1, 55, 50
3, 197395, Note_on_c, 1, 65, 0
3, 197398, Note_on_c, 1, 55, 0
3, 197400, Note_on_c, 1, 60, 57
3, 197400, Note_on_c, 1, 64, 57
3, 197400, Control_c, 1, 64, 0
3, 197415, Control_c, 1, 64, 127
3, 197459, Note_on_c, 1, 64, 0
3, 197459, Note_on_c, 1, 60, 0
3, 197460, Note_on_c, 1, 48, 0
3, 197460, Note_on_c, 1, 55, 60
3, 197462, Note_on_c, 1, 36, 0
3, 197476, Note_on_c, 1, 55, 0
3, 197505, Control_c, 1, 64, 0
3, 197520, Note_on_c, 1, 31, 80
3, 197520, Note_on_c, 1, 65, 80
3, 197520, Note_on_c, 1, 43, 62
3, 197520, Note_on_c, 1, 62, 80
3, 197530, Control_c, 1, 64, 127
3, 197577, Note_on_c, 1, 62, 0
3, 197580, Note_on_c, 1, 55, 85
3, 197640, Note_on_c, 1, 65, 0
3, 197640, Note_on_c, 1, 60, 89
3, 197640, Note_on_c, 1, 64, 80
3, 197642, Note_on_c, 1, 55, 0
3, 197647, Note_on_c, 1, 43, 0
3, 197647, Control_c, 1, 64, 0
3, 197650, Note_on_c, 1, 31, 0
3, 197682, Control_c, 1, 64, 127
3, 197700, Note_on_c, 1, 55, 72
3, 197702, Note_on_c, 1, 60, 0
3, 197725, Note_on_c, 1, 55, 0
3, 197729, Note_on_c, 1, 64, 0
3, 197760, Note_on_c, 1, 31, 76
3, 197760, Note_on_c, 1, 43, 62
3, 197760, Note_on_c, 1, 62, 89
3, 197760, Note_on_c, 1, 65, 89
3, 197764, Control_c, 1, 64, 0
3, 197783, Control_c, 1, 64, 127
3, 197816, Note_on_c, 1, 62, 0
3, 197820, Note_on_c, 1, 55, 72
3, 197877, Note_on_c, 1, 65, 0
3, 197878, Note_on_c, 1, 55, 0
3, 197879, Note_on_c, 1, 43, 0
3, 197879, Note_on_c, 1, 31, 0
3, 197880, Note_on_c, 1, 64, 89
3, 197880, Note_on_c, 1, 60, 85
3, 197883, Control_c, 1, 64, 0
3, 197905, Control_c, 1, 64, 127
3, 197938, Note_on_c, 1, 60, 0
3, 197940, Note_on_c, 1, 55, 72
3, 197957, Note_on_c, 1, 55, 0
3, 197957, Note_on_c, 1, 64, 0
3, 197999, Control_c, 1, 64, 0
3, 198000, Note_on_c, 1, 38, 72
3, 198000, Note_on_c, 1, 66, 80
3, 198000, Note_on_c, 1, 60, 89
3, 198000, Note_on_c, 1, 62, 93
3, 198000, Note_on_c, 1, 50, 72
3, 198020, Control_c, 1, 64, 127
3, 198060, Note_on_c, 1, 57, 76
3, 198062, Note_on_c, 1, 62, 0
3, 198062, Note_on_c, 1, 60, 0
3, 198096, Note_on_c, 1, 66, 0
3, 198097, Note_on_c, 1, 57, 0
3, 198120, Note_on_c, 1, 66, 72
3, 198120, Note_on_c, 1, 60, 80
3, 198120, Note_on_c, 1, 62, 89
3, 198124, Control_c, 1, 64, 0
3, 198139, Control_c, 1, 64, 127
3, 198180, Note_on_c, 1, 62, 0
3, 198180, Note_on_c, 1, 57, 89
3, 198181, Note_on_c, 1, 60, 0
3, 198183, Control_c, 1, 64, 0
3, 198193, Control_c, 1, 64, 127
3, 198206, Note_on_c, 1, 50, 0
3, 198211, Note_on_c, 1, 38, 0
3, 198211, Note_on_c, 1, 57, 0
3, 198213, Note_on_c, 1, 66, 0
3, 198240, Note_on_c, 1, 67, 85
3, 198240, Note_on_c, 1, 59, 89
3, 198240, Note_on_c, 1, 31, 68
3, 198240, Note_on_c, 1, 43, 60
3, 198244, Control_c, 1, 64, 0
3, 198257, Control_c, 1, 64, 127
3, 198269, Note_on_c, 1, 67, 0
3, 198274, Note_on_c, 1, 59, 0
3, 198300, Note_on_c, 1, 59, 76
3, 198300, Note_on_c, 1, 55, 76
3, 198314, Note_on_c, 1, 55, 0
3, 198326, Note_on_c, 1, 59, 0
3, 198330, Note_on_c, 1, 60, 80
3, 198330, Note_on_c, 1, 57, 72
3, 198336, Note_on_c, 1, 43, 0
3, 198338, Note_on_c, 1, 31, 0
3, 198347, Note_on_c, 1, 57, 0
3, 198355, Note_on_c, 1, 60, 0
3, 198360, Note_on_c, 1, 59, 85
3, 198360, Note_on_c, 1, 62, 80
3, 198361, Control_c, 1, 64, 0
3, 198374, Control_c, 1, 64, 127
3, 198387, Note_on_c, 1, 62, 0
3, 198388, Note_on_c, 1, 59, 0
3, 198390, Note_on_c, 1, 57, 76
3, 198390, Note_on_c, 1, 60, 76
3, 198415, Note_on_c, 1, 60, 0
3, 198415, Note_on_c, 1, 57, 0
3, 198418, Control_c, 1, 64, 0
3, 198420, Note_on_c, 1, 62, 56
3, 198420, Note_on_c, 1, 59, 80
3, 198428, Control_c, 1, 64, 127
3, 198441, Note_on_c, 1, 59, 0
3, 198443, Note_on_c, 1, 62, 0
3, 198450, Note_on_c, 1, 64, 50
3, 198450, Note_on_c, 1, 60, 46
3, 198459, Note_on_c, 1, 60, 0
3, 198461, Note_on_c, 1, 64, 0
3, 198480, Note_on_c, 1, 31, 47
3, 198480, Note_on_c, 1, 43, 45
3, 198480, Note_on_c, 1, 65, 60
3, 198480, Note_on_c, 1, 62, 47
3, 198482, Control_c, 1, 64, 0
3, 198501, Control_c, 1, 64, 127
3, 198540, Note_on_c, 1, 55, 57
3, 198544, Note_on_c, 1, 62, 0
3, 198578, Note_on_c, 1, 55, 0
3, 198581, Note_on_c, 1, 65, 0
3, 198600, Note_on_c, 1, 64, 56
3, 198600, Note_on_c, 1, 60, 60
3, 198609, Control_c, 1, 64, 0
3, 198627, Control_c, 1, 64, 127
3, 198657, Note_on_c, 1, 60, 0
3, 198660, Note_on_c, 1, 55, 59
3, 198661, Note_on_c, 1, 43, 0
3, 198662, Note_on_c, 1, 31, 0
3, 198662, Control_c, 1, 64, 0
3, 198675, Control_c, 1, 64, 127
3, 198700, Note_on_c, 1, 55, 0
3, 198702, Note_on_c, 1, 64, 0
3, 198720, Note_on_c, 1, 31, 56
3, 198720, Note_on_c, 1, 43, 46
3, 198720, Note_on_c, 1, 62, 72
3, 198720, Note_on_c, 1, 65, 57
3, 198722, Control_c, 1, 64, 0
3, 198741, Control_c, 1, 64, 127
3, 198778, Note_on_c, 1, 62, 0
3, 198780, Note_on_c, 1, 55, 62
3, 198839, Note_on_c, 1, 55, 0
3, 198840, Note_on_c, 1, 65, 0
3, 198840, Note_on_c, 1, 64, 76
3, 198840, Note_on_c, 1, 60, 72
3, 198841, Note_on_c, 1, 43, 0
3, 198841, Note_on_c, 1, 31, 0
3, 198846, Control_c, 1, 64, 0
3, 198865, Control_c, 1, 64, 127
3, 198899, Note_on_c, 1, 60, 0
3, 198900, Note_on_c, 1, 55, 64
3, 198932, Note_on_c, 1, 55, 0
3, 198935, Note_on_c, 1, 64, 0
3, 198960, Note_on_c, 1, 66, 60
3, 198960, Note_on_c, 1, 38, 72
3, 198960, Note_on_c, 1, 62, 80
3, 198960, Note_on_c, 1, 60, 76
3, 198960, Note_on_c, 1, 50, 59
3, 198960, Control_c, 1, 64, 0
3, 198978, Control_c, 1, 64, 127
3, 199020, Note_on_c, 1, 60, 0
3, 199020, Note_on_c, 1, 57, 72
3, 199021, Note_on_c, 1, 62, 0
3, 199051, Note_on_c, 1, 66, 0
3, 199054, Note_on_c, 1, 57, 0
3, 199080, Note_on_c, 1, 66, 60
3, 199080, Note_on_c, 1, 62, 72
3, 199080, Note_on_c, 1, 60, 76
3, 199082, Control_c, 1, 64, 0
3, 199097, Control_c, 1, 64, 127
3, 199139, Note_on_c, 1, 60, 0
3, 199140, Note_on_c, 1, 62, 0
3, 199140, Note_on_c, 1, 57, 76
3, 199141, Note_on_c, 1, 66, 0
3, 199168, Note_on_c, 1, 57, 0
3, 199171, Note_on_c, 1, 50, 0
3, 199174, Note_on_c, 1, 38, 0
3, 199200, Note_on_c, 1, 55, 76
3, 199200, Note_on_c, 1, 43, 60
3, 199200, Note_on_c, 1, 59, 72
3, 199204, Control_c, 1, 64, 0
3, 199218, Control_c, 1, 64, 127
3, 199219, Note_on_c, 1, 59, 0
3, 199228, Note_on_c, 1, 55, 0
3, 199230, Note_on_c, 1, 54, 72
3, 199230, Note_on_c, 1, 57, 80
3, 199239, Note_on_c, 1, 57, 0
3, 199240, Note_on_c, 1, 54, 0
3, 199260, Note_on_c, 1, 55, 68
3, 199260, Note_on_c, 1, 59, 72
3, 199263, Control_c, 1, 64, 0
3, 199277, Control_c, 1, 64, 127
3, 199283, Note_on_c, 1, 55, 0
3, 199286, Note_on_c, 1, 59, 0
3, 199290, Note_on_c, 1, 60, 51
3, 199290, Note_on_c, 1, 57, 62
3, 199293, Note_on_c, 1, 43, 0
3, 199317, Note_on_c, 1, 57, 0
3, 199318, Note_on_c, 1, 60, 0
3, 199320, Note_on_c, 1, 59, 80
3, 199320, Note_on_c, 1, 62, 72
3, 199322, Control_c, 1, 64, 0
3, 199344, Control_c, 1, 64, 127
3, 199346, Note_on_c, 1, 62, 0
3, 199346, Note_on_c, 1, 59, 0
3, 199350, Note_on_c, 1, 60, 62
3, 199350, Note_on_c, 1, 57, 64
3, 199374, Note_on_c, 1, 57, 0
3, 199375, Note_on_c, 1, 60, 0
3, 199378, Control_c, 1, 64, 0
3, 199380, Note_on_c, 1, 59, 72
3, 199380, Note_on_c, 1, 38, 80
3, 199380, Note_on_c, 1, 55, 72
3, 199388, Control_c, 1, 64, 127
3, 199397, Note_on_c, 1, 55, 0
3, 199402, Note_on_c, 1, 59, 0
3, 199410, Note_on_c, 1, 54, 72
3, 199410, Note_on_c, 1, 57, 89
3, 199413, Note_on_c, 1, 38, 0
3, 199421, Note_on_c, 1, 54, 0
3, 199422, Note_on_c, 1, 57, 0
3, 199440, Note_on_c, 1, 59, 89
3, 199440, Note_on_c, 1, 55, 80
3, 199440, Note_on_c, 1, 43, 55
3, 199440, Control_c, 1, 64, 0
3, 199453, Control_c, 1, 64, 127
3, 199459, Note_on_c, 1, 55, 0
3, 199465, Note_on_c, 1, 59, 0
3, 199470, Note_on_c, 1, 57, 80
3, 199470, Note_on_c, 1, 54, 60
3, 199477, Note_on_c, 1, 43, 0
3, 199488, Note_on_c, 1, 54, 0
3, 199492, Note_on_c, 1, 57, 0
3, 199500, Note_on_c, 1, 59, 89
3, 199500, Note_on_c, 1, 55, 64
3, 199504, Control_c, 1, 64, 0
3, 199519, Control_c, 1, 64, 127
3, 199527, Note_on_c, 1, 55, 0
3, 199527, Note_on_c, 1, 59, 0
3, 199530, Note_on_c, 1, 60, 57
3, 199530, Note_on_c, 1, 57, 76
3, 199556, Note_on_c, 1, 60, 0
3, 199558, Note_on_c, 1, 57, 0
3, 199560, Note_on_c, 1, 59, 62
3, 199560, Note_on_c, 1, 62, 57
3, 199561, Control_c, 1, 64, 0
3, 199574, Control_c, 1, 64, 127
3, 199587, Note_on_c, 1, 62, 0
3, 199588, Note_on_c, 1, 59, 0
3, 199590, Note_on_c, 1, 57, 56
3, 199590, Note_on_c, 1, 60, 55
3, 199613, Note_on_c, 1, 60, 0
3, 199614, Note_on_c, 1, 57, 0
3, 199620, Note_on_c, 1, 59, 60
3, 199620, Note_on_c, 1, 38, 62
3, 199620, Note_on_c, 1, 55, 72
3, 199621, Control_c, 1, 64, 0
3, 199632, Control_c, 1, 64, 127
3, 199635, Note_on_c, 1, 55, 0
3, 199642, Note_on_c, 1, 59, 0
3, 199650, Note_on_c, 1, 57, 80
3, 199650, Note_on_c, 1, 54, 50
3, 199661, Note_on_c, 1, 38, 0
3, 199662, Note_on_c, 1, 54, 0
3, 199664, Note_on_c, 1, 57, 0
3, 199679, Control_c, 1, 64, 0
3, 199680, Note_on_c, 1, 59, 72
3, 199680, Note_on_c, 1, 55, 76
3, 199680, Note_on_c, 1, 43, 57
3, 199691, Control_c, 1, 64, 127
3, 199697, Note_on_c, 1, 43, 0
3, 199698, Note_on_c, 1, 55, 0
3, 199703, Note_on_c, 1, 59, 0
3, 199710, Note_on_c, 1, 57, 76
3, 199710, Note_on_c, 1, 54, 53
3, 199724, Note_on_c, 1, 54, 0
3, 199738, Note_on_c, 1, 57, 0
3, 199740, Note_on_c, 1, 55, 72
3, 199740, Note_on_c, 1, 59, 80
3, 199761, Note_on_c, 1, 55, 0
3, 199765, Note_on_c, 1, 59, 0
3, 199770, Note_on_c, 1, 57, 68
3, 199770, Note_on_c, 1, 60, 68
3, 199791, Note_on_c, 1, 60, 0
3, 199794, Note_on_c, 1, 57, 0
3, 199800, Note_on_c, 1, 59, 72
3, 199800, Note_on_c, 1, 62, 62
3, 199800, Control_c, 1, 64, 0
3, 199813, Control_c, 1, 64, 127
3, 199824, Note_on_c, 1, 62, 0
3, 199827, Note_on_c, 1, 59, 0
3, 199830, Note_on_c, 1, 60, 64
3, 199830, Note_on_c, 1, 57, 72
3, 199851, Note_on_c, 1, 60, 0
3, 199852, Note_on_c, 1, 57, 0
3, 199860, Note_on_c, 1, 59, 68
3, 199860, Note_on_c, 1, 62, 76
3, 199872, Note_on_c, 1, 59, 0
3, 199874, Note_on_c, 1, 62, 0
3, 199890, Note_on_c, 1, 60, 72
3, 199890, Note_on_c, 1, 64, 89
3, 199900, Note_on_c, 1, 60, 0
3, 199901, Note_on_c, 1, 64, 0
3, 199914, Control_c, 1, 64, 0
3, 199920, Note_on_c, 1, 62, 59
3, 199920, Note_on_c, 1, 65, 62
3, 199928, Control_c, 1, 64, 127
3, 199939, Note_on_c, 1, 65, 0
3, 199945, Note_on_c, 1, 62, 0
3, 199950, Note_on_c, 1, 61, 64
3, 199950, Note_on_c, 1, 64, 72
3, 199965, Note_on_c, 1, 61, 0
3, 199967, Note_on_c, 1, 64, 0
3, 199973, Control_c, 1, 64, 0
3, 199980, Note_on_c, 1, 62, 68
3, 199980, Note_on_c, 1, 65, 72
3, 199983, Control_c, 1, 64, 127
3, 199992, Note_on_c, 1, 65, 0
3, 199992, Note_on_c, 1, 62, 0
3, 200010, Note_on_c, 1, 65, 56
3, 200010, Note_on_c, 1, 69, 56
3, 200024, Note_on_c, 1, 69, 0
3, 200027, Note_on_c, 1, 65, 0
3, 200038, Control_c, 1, 64, 0
3, 200040, Note_on_c, 1, 64, 62
3, 200040, Note_on_c, 1, 67, 64
3, 200049, Control_c, 1, 64, 127
3, 200065, Note_on_c, 1, 64, 0
3, 200069, Note_on_c, 1, 67, 0
3, 200070, Note_on_c, 1, 65, 72
3, 200070, Note_on_c, 1, 62, 56
3, 200078, Note_on_c, 1, 65, 0
3, 200082, Note_on_c, 1, 62, 0
3, 200100, Note_on_c, 1, 64, 60
3, 200100, Note_on_c, 1, 60, 59
3, 200101, Control_c, 1, 64, 0
3, 200112, Control_c, 1, 64, 127
3, 200124, Note_on_c, 1, 60, 0
3, 200125, Note_on_c, 1, 64, 0
3, 200130, Note_on_c, 1, 62, 72
3, 200130, Note_on_c, 1, 59, 62
3, 200146, Note_on_c, 1, 59, 0
3, 200150, Note_on_c, 1, 62, 0
3, 200160, Note_on_c, 1, 64, 52
3, 200160, Note_on_c, 1, 36, 51
3, 200160, Note_on_c, 1, 48, 47
3, 200160, Note_on_c, 1, 60, 62
3, 200161, Control_c, 1, 64, 0
3, 200179, Control_c, 1, 64, 127
3, 200220, Note_on_c, 1, 60, 0
3, 200220, Note_on_c, 1, 55, 50
3, 200246, Note_on_c, 1, 64, 0
3, 200255, Note_on_c, 1, 55, 0
3, 200280, Note_on_c, 1, 60, 60
3, 200280, Note_on_c, 1, 64, 60
3, 200291, Control_c, 1, 64, 0
3, 200306, Control_c, 1, 64, 127
3, 200334, Note_on_c, 1, 60, 0
3, 200340, Note_on_c, 1, 55, 62
3, 200363, Note_on_c, 1, 64, 0
3, 200367, Note_on_c, 1, 55, 0
3, 200400, Note_on_c, 1, 59, 64
3, 200400, Note_on_c, 1, 65, 57
3, 200404, Control_c, 1, 64, 0
3, 200422, Control_c, 1, 64, 127
3, 200458, Note_on_c, 1, 59, 0
3, 200460, Note_on_c, 1, 55, 60
3, 200488, Note_on_c, 1, 65, 0
3, 200490, Note_on_c, 1, 55, 0
3, 200520, Note_on_c, 1, 65, 60
3, 200520, Note_on_c, 1, 59, 64
3, 200525, Control_c, 1, 64, 0
3, 200541, Control_c, 1, 64, 127
3, 200580, Note_on_c, 1, 55, 64
3, 200581, Note_on_c, 1, 59, 0
3, 200604, Note_on_c, 1, 36, 0
3, 200605, Note_on_c, 1, 55, 0
3, 200607, Note_on_c, 1, 48, 0
3, 200608, Note_on_c, 1, 65, 0
3, 200640, Note_on_c, 1, 60, 62
3, 200640, Note_on_c, 1, 64, 72
3, 200640, Note_on_c, 1, 36, 56
3, 200640, Note_on_c, 1, 48, 45
3, 200642, Control_c, 1, 64, 0
3, 200661, Control_c, 1, 64, 127
3, 200700, Note_on_c, 1, 55, 59
3, 200703, Note_on_c, 1, 60, 0
3, 200730, Note_on_c, 1, 55, 0
3, 200732, Note_on_c, 1, 64, 0
3, 200760, Note_on_c, 1, 60, 57
3, 200760, Note_on_c, 1, 64, 59
3, 200766, Control_c, 1, 64, 0
3, 200782, Control_c, 1, 64, 127
3, 200815, Note_on_c, 1, 60, 0
3, 200820, Note_on_c, 1, 55, 62
3, 200851, Note_on_c, 1, 64, 0
3, 200853, Note_on_c, 1, 55, 0
3, 200880, Note_on_c, 1, 65, 64
3, 200880, Note_on_c, 1, 59, 64
3, 200882, Control_c, 1, 64, 0
3, 200904, Control_c, 1, 64, 127
3, 200940, Note_on_c, 1, 55, 68
3, 200941, Note_on_c, 1, 59, 0
3, 200970, Note_on_c, 1, 55, 0
3, 200971, Note_on_c, 1, 65, 0
3, 201000, Note_on_c, 1, 65, 62
3, 201000, Note_on_c, 1, 59, 68
3, 201004, Control_c, 1, 64, 0
3, 201023, Control_c, 1, 64, 127
3, 201060, Note_on_c, 1, 55, 72
3, 201062, Note_on_c, 1, 59, 0
3, 201085, Note_on_c, 1, 36, 0
3, 201085, Note_on_c, 1, 55, 0
3, 201087, Note_on_c, 1, 48, 0
3, 201089, Note_on_c, 1, 65, 0
3, 201120, Note_on_c, 1, 64, 64
3, 201120, Note_on_c, 1, 60, 64
3, 201120, Note_on_c, 1, 48, 55
3, 201120, Note_on_c, 1, 36, 59
3, 201122, Control_c, 1, 64, 0
3, 201140, Control_c, 1, 64, 127
3, 201179, Note_on_c, 1, 60, 0
3, 201180, Note_on_c, 1, 55, 68
3, 201204, Note_on_c, 1, 64, 0
3, 201209, Note_on_c, 1, 55, 0
3, 201240, Note_on_c, 1, 64, 68
3, 201240, Note_on_c, 1, 60, 72
3, 201244, Control_c, 1, 64, 0
3, 201260, Control_c, 1, 64, 127
3, 201300, Note_on_c, 1, 60, 0
3, 201300, Note_on_c, 1, 55, 76
3, 201326, Note_on_c, 1, 55, 0
3, 201332, Note_on_c, 1, 64, 0
3, 201360, Note_on_c, 1, 65, 76
3, 201360, Note_on_c, 1, 60, 76
3, 201363, Control_c, 1, 64, 0
3, 201379, Control_c, 1, 64, 127
3, 201419, Note_on_c, 1, 60, 0
3, 201420, Note_on_c, 1, 57, 68
3, 201461, Note_on_c, 1, 57, 0
3, 201467, Note_on_c, 1, 65, 0
3, 201480, Note_on_c, 1, 64, 76
3, 201480, Note_on_c, 1, 60, 76
3, 201485, Control_c, 1, 64, 0
3, 201503, Control_c, 1, 64, 127
3, 201540, Note_on_c, 1, 60, 0
3, 201540, Note_on_c, 1, 55, 62
3, 201559, Note_on_c, 1, 48, 0
3, 201564, Note_on_c, 1, 36, 0
3, 201566, Note_on_c, 1, 64, 0
3, 201566, Note_on_c, 1, 55, 0
3, 201600, Note_on_c, 1, 64, 72
3, 201600, Note_on_c, 1, 60, 68
3, 201600, Note_on_c, 1, 31, 56
3, 201600, Note_on_c, 1, 43, 45
3, 201604, Control_c, 1, 64, 0
3, 201624, Control_c, 1, 64, 127
3, 201659, Note_on_c, 1, 60, 0
3, 201660, Note_on_c, 1, 55, 64
3, 201691, Note_on_c, 1, 55, 0
3, 201696, Note_on_c, 1, 64, 0
3, 201720, Note_on_c, 1, 65, 56
3, 201720, Note_on_c, 1, 59, 76
3, 201722, Control_c, 1, 64, 0
3, 201739, Control_c, 1, 64, 127
3, 201775, Note_on_c, 1, 59, 0
3, 201780, Note_on_c, 1, 55, 68
3, 201784, Note_on_c, 1, 65, 0
3, 201786, Note_on_c, 1, 31, 0
3, 201791, Note_on_c, 1, 43, 0
3, 201796, Note_on_c, 1, 55, 0
3, 201836, Control_c, 1, 64, 0
3, 201840, Note_on_c, 1, 59, 72
3, 201840, Note_on_c, 1, 48, 56
3, 201840, Note_on_c, 1, 36, 62
3, 201840, Note_on_c, 1, 65, 57
3, 201840, Note_on_c, 1, 55, 72
3, 201851, Control_c, 1, 64, 127
3, 201942, Note_on_c, 1, 59, 0
3, 201960, Note_on_c, 1, 65, 0
3, 201960, Note_on_c, 1, 64, 62
3, 201960, Note_on_c, 1, 60, 62
3, 201964, Control_c, 1, 64, 0
3, 201977, Control_c, 1, 64, 127
3, 202035, Note_on_c, 1, 60, 0
3, 202037, Note_on_c, 1, 64, 0
3, 202039, Note_on_c, 1, 36, 0
3, 202042, Note_on_c, 1, 55, 0
3, 202045, Note_on_c, 1, 48, 0
3, 202047, Control_c, 1, 64, 0
3, 202080, Note_on_c, 1, 60, 113
3, 202080, Note_on_c, 1, 48, 107
3, 202092, Control_c, 1, 64, 127
3, 202168, Note_on_c, 1, 48, 0
3, 202169, Note_on_c, 1, 60, 0
3, 202170, Note_on_c, 1, 52, 89
3, 202170, Note_on_c, 1, 64, 89
3, 202183, Control_c, 1, 64, 0
3, 202185, Note_on_c, 1, 48, 89
3, 202185, Note_on_c, 1, 60, 89
3, 202186, Note_on_c, 1, 64, 0
3, 202188, Note_on_c, 1, 52, 0
3, 202199, Note_on_c, 1, 60, 0
3, 202200, Note_on_c, 1, 55, 98
3, 202200, Note_on_c, 1, 43, 93
3, 202202, Note_on_c, 1, 48, 0
3, 202217, Control_c, 1, 64, 127
3, 202252, Note_on_c, 1, 43, 0
3, 202283, Note_on_c, 1, 55, 0
3, 202290, Note_on_c, 1, 48, 80
3, 202290, Note_on_c, 1, 60, 89
3, 202305, Note_on_c, 1, 48, 0
3, 202305, Note_on_c, 1, 43, 89
3, 202305, Note_on_c, 1, 55, 85
3, 202306, Note_on_c, 1, 60, 0
3, 202307, Control_c, 1, 64, 0
3, 202319, Note_on_c, 1, 55, 0
3, 202320, Note_on_c, 1, 43, 0
3, 202320, Note_on_c, 1, 52, 107
3, 202320, Note_on_c, 1, 40, 85
3, 202331, Control_c, 1, 64, 127
3, 202347, Note_on_c, 1, 40, 0
3, 202349, Note_on_c, 1, 52, 0
3, 202350, Note_on_c, 1, 43, 80
3, 202350, Note_on_c, 1, 55, 85
3, 202365, Note_on_c, 1, 43, 0
3, 202365, Note_on_c, 1, 52, 76
3, 202365, Note_on_c, 1, 40, 85
3, 202367, Note_on_c, 1, 55, 0
3, 202377, Control_c, 1, 64, 0
3, 202378, Note_on_c, 1, 52, 0
3, 202380, Note_on_c, 1, 48, 93
3, 202380, Note_on_c, 1, 36, 80
3, 202381, Note_on_c, 1, 40, 0
3, 202395, Control_c, 1, 64, 127
3, 202406, Note_on_c, 1, 36, 0
3, 202409, Note_on_c, 1, 48, 0
3, 202410, Note_on_c, 1, 52, 89
3, 202410, Note_on_c, 1, 40, 51
3, 202424, Note_on_c, 1, 40, 0
3, 202425, Note_on_c, 1, 36, 76
3, 202425, Note_on_c, 1, 48, 76
3, 202427, Note_on_c, 1, 52, 0
3, 202432, Control_c, 1, 64, 0
3, 202438, Note_on_c, 1, 48, 0
3, 202440, Note_on_c, 1, 36, 0
3, 202440, Note_on_c, 1, 43, 93
3, 202440, Note_on_c, 1, 31, 93
3, 202460, Control_c, 1, 64, 127
3, 202495, Note_on_c, 1, 31, 0
3, 202497, Note_on_c, 1, 43, 0
3, 202506, Control_c, 1, 64, 0
3, 202560, Control_c, 1, 64, 127
3, 202560, Note_on_c, 1, 60, 55
3, 202560, Note_on_c, 1, 48, 68
3, 202571, Control_c, 1, 64, 127
3, 202579, Note_on_c, 1, 60, 0
3, 202580, Note_on_c, 1, 64, 56
3, 202599, Note_on_c, 1, 64, 0
3, 202600, Note_on_c, 1, 55, 62
3, 202619, Note_on_c, 1, 55, 0
3, 202620, Note_on_c, 1, 62, 59
3, 202639, Note_on_c, 1, 62, 0
3, 202640, Note_on_c, 1, 65, 56
3, 202659, Note_on_c, 1, 65, 0
3, 202660, Note_on_c, 1, 55, 64
3, 202666, Note_on_c, 1, 48, 0
3, 202679, Note_on_c, 1, 55, 0
3, 202680, Note_on_c, 1, 64, 48
3, 202680, Control_c, 1, 64, 0
3, 202680, Control_c, 1, 64, 127
3, 202688, Control_c, 1, 64, 0
3, 202699, Note_on_c, 1, 64, 0
3, 202700, Note_on_c, 1, 67, 52
3, 202719, Note_on_c, 1, 67, 0
3, 202720, Note_on_c, 1, 55, 62
3, 202739, Note_on_c, 1, 55, 0
3, 202740, Note_on_c, 1, 65, 68
3, 202740, Control_c, 1, 64, 0
3, 202740, Control_c, 1, 64, 127
3, 202759, Note_on_c, 1, 65, 0
3, 202760, Note_on_c, 1, 69, 32
3, 202779, Note_on_c, 1, 69, 0
3, 202780, Note_on_c, 1, 55, 41
3, 202794, Note_on_c, 1, 43, 72
3, 202799, Note_on_c, 1, 55, 0
3, 202800, Note_on_c, 1, 62, 72
3, 202800, Control_c, 1, 64, 0
3, 202800, Control_c, 1, 64, 127
3, 202812, Control_c, 1, 64, 127
3, 202819, Note_on_c, 1, 62, 0
3, 202820, Note_on_c, 1, 65, 53
3, 202839, Note_on_c, 1, 65, 0
3, 202840, Note_on_c, 1, 55, 47
3, 202859, Note_on_c, 1, 55, 0
3, 202860, Note_on_c, 1, 60, 76
3, 202860, Control_c, 1, 64, 0
3, 202860, Control_c, 1, 64, 127
3, 202879, Note_on_c, 1, 60, 0
3, 202880, Note_on_c, 1, 64, 56
3, 202898, Note_on_c, 1, 43, 0
3, 202899, Note_on_c, 1, 64, 0
3, 202900, Note_on_c, 1, 55, 53
3, 202919, Note_on_c, 1, 55, 0
3, 202920, Note_on_c, 1, 59, 60
3, 202920, Control_c, 1, 64, 0
3, 202920, Control_c, 1, 64, 127
3, 202935, Control_c, 1, 64, 0
3, 202939, Note_on_c, 1, 59, 0
3, 202940, Note_on_c, 1, 62, 50
3, 202959, Note_on_c, 1, 62, 0
3, 202960, Note_on_c, 1, 55, 55
3, 202979, Note_on_c, 1, 55, 0
3, 202980, Note_on_c, 1, 59, 76
3, 202980, Control_c, 1, 64, 0
3, 202980, Control_c, 1, 64, 127
3, 202999, Note_on_c, 1, 59, 0
3, 203000, Note_on_c, 1, 62, 50
3, 203019, Note_on_c, 1, 62, 0
3, 203020, Note_on_c, 1, 55, 56
3, 203032, Control_c, 1, 64, 127
3, 203038, Note_on_c, 1, 48, 64
3, 203039, Note_on_c, 1, 55, 0
3, 203040, Control_c, 1, 64, 0
3, 203040, Note_on_c, 1, 60, 60
3, 203040, Control_c, 1, 64, 127
3, 203059, Note_on_c, 1, 60, 0
3, 203060, Note_on_c, 1, 64, 59
3, 203079, Note_on_c, 1, 64, 0
3, 203080, Note_on_c, 1, 55, 47
3, 203099, Note_on_c, 1, 55, 0
3, 203100, Note_on_c, 1, 59, 72
3, 203100, Control_c, 1, 64, 0
3, 203100, Control_c, 1, 64, 127
3, 203119, Note_on_c, 1, 59, 0
3, 203120, Note_on_c, 1, 62, 56
3, 203139, Note_on_c, 1, 62, 0
3, 203140, Note_on_c, 1, 52, 59
3, 203149, Note_on_c, 1, 48, 0
3, 203159, Note_on_c, 1, 52, 0
3, 203160, Note_on_c, 1, 60, 60
3, 203160, Control_c, 1, 64, 0
3, 203160, Control_c, 1, 64, 127
3, 203172, Control_c, 1, 64, 0
3, 203179, Note_on_c, 1, 60, 0
3, 203180, Note_on_c, 1, 64, 52
3, 203199, Note_on_c, 1, 64, 0
3, 203200, Note_on_c, 1, 52, 62
3, 203219, Note_on_c, 1, 52, 0
3, 203220, Control_c, 1, 64, 0
3, 203220, Note_on_c, 1, 62, 72
3, 203220, Control_c, 1, 64, 127
3, 203239, Note_on_c, 1, 62, 0
3, 203240, Note_on_c, 1, 65, 76
3, 203259, Note_on_c, 1, 65, 0
3, 203260, Note_on_c, 1, 52, 64
3, 203279, Note_on_c, 1, 52, 0
3, 203280, Control_c, 1, 64, 0
3, 203280, Note_on_c, 1, 59, 72
3, 203280, Control_c, 1, 64, 127
3, 203280, Note_on_c, 1, 40, 72
3, 203294, Control_c, 1, 64, 127
3, 203299, Note_on_c, 1, 59, 0
3, 203300, Note_on_c, 1, 62, 57
3, 203319, Note_on_c, 1, 62, 0
3, 203320, Note_on_c, 1, 52, 62
3, 203339, Note_on_c, 1, 52, 0
3, 203340, Note_on_c, 1, 57, 64
3, 203340, Control_c, 1, 64, 0
3, 203340, Control_c, 1, 64, 127
3, 203359, Note_on_c, 1, 57, 0
3, 203360, Note_on_c, 1, 60, 64
3, 203376, Note_on_c, 1, 40, 0
3, 203379, Note_on_c, 1, 60, 0
3, 203380, Note_on_c, 1, 52, 57
3, 203399, Note_on_c, 1, 52, 0
3, 203400, Control_c, 1, 64, 0
3, 203400, Note_on_c, 1, 56, 76
3, 203400, Control_c, 1, 64, 127
3, 203415, Control_c, 1, 64, 0
3, 203419, Note_on_c, 1, 56, 0
3, 203420, Note_on_c, 1, 59, 59
3, 203439, Note_on_c, 1, 59, 0
3, 203440, Note_on_c, 1, 52, 59
3, 203459, Note_on_c, 1, 52, 0
3, 203460, Control_c, 1, 64, 0
3, 203460, Note_on_c, 1, 56, 60
3, 203460, Control_c, 1, 64, 127
3, 203479, Note_on_c, 1, 56, 0
3, 203480, Note_on_c, 1, 59, 59
3, 203499, Note_on_c, 1, 59, 0
3, 203500, Note_on_c, 1, 52, 76
3, 203518, Note_on_c, 1, 45, 89
3, 203519, Note_on_c, 1, 52, 0
3, 203520, Note_on_c, 1, 57, 85
3, 203520, Control_c, 1, 64, 0
3, 203520, Control_c, 1, 64, 127
3, 203539, Note_on_c, 1, 57, 0
3, 203540, Note_on_c, 1, 60, 72
3, 203540, Control_c, 1, 64, 127
3, 203559, Note_on_c, 1, 60, 0
3, 203560, Note_on_c, 1, 52, 62
3, 203579, Note_on_c, 1, 52, 0
3, 203580, Note_on_c, 1, 55, 85
3, 203580, Control_c, 1, 64, 0
3, 203580, Control_c, 1, 64, 127
3, 203590, Note_on_c, 1, 45, 0
3, 203599, Note_on_c, 1, 55, 0
3, 203600, Note_on_c, 1, 58, 57
3, 203619, Note_on_c, 1, 58, 0
3, 203620, Note_on_c, 1, 48, 68
3, 203639, Note_on_c, 1, 48, 0
3, 203640, Note_on_c, 1, 57, 80
3, 203640, Control_c, 1, 64, 0
3, 203640, Control_c, 1, 64, 127
3, 203659, Note_on_c, 1, 57, 0
3, 203660, Note_on_c, 1, 60, 85
3, 203664, Control_c, 1, 64, 0
3, 203679, Note_on_c, 1, 60, 0
3, 203680, Note_on_c, 1, 48, 68
3, 203699, Note_on_c, 1, 48, 0
3, 203700, Note_on_c, 1, 58, 80
3, 203700, Control_c, 1, 64, 0
3, 203700, Control_c, 1, 64, 127
3, 203719, Note_on_c, 1, 58, 0
3, 203720, Note_on_c, 1, 62, 80
3, 203739, Note_on_c, 1, 62, 0
3, 203740, Note_on_c, 1, 48, 72
3, 203758, Note_on_c, 1, 36, 80
3, 203759, Note_on_c, 1, 48, 0
3, 203760, Note_on_c, 1, 55, 76
3, 203760, Control_c, 1, 64, 0
3, 203760, Control_c, 1, 64, 127
3, 203779, Note_on_c, 1, 55, 0
3, 203779, Control_c, 1, 64, 127
3, 203780, Note_on_c, 1, 58, 72
3, 203799, Note_on_c, 1, 58, 0
3, 203800, Note_on_c, 1, 48, 62
3, 203819, Note_on_c, 1, 48, 0
3, 203820, Note_on_c, 1, 53, 80
3, 203820, Control_c, 1, 64, 0
3, 203820, Control_c, 1, 64, 127
3, 203836, Note_on_c, 1, 36, 0
3, 203839, Note_on_c, 1, 53, 0
3, 203840, Note_on_c, 1, 57, 72
3, 203859, Note_on_c, 1, 57, 0
3, 203860, Note_on_c, 1, 48, 68
3, 203879, Note_on_c, 1, 48, 0
3, 203880, Note_on_c, 1, 52, 72
3, 203880, Control_c, 1, 64, 0
3, 203880, Control_c, 1, 64, 127
3, 203896, Control_c, 1, 64, 0
3, 203899, Note_on_c, 1, 52, 0
3, 203900, Note_on_c, 1, 55, 62
3, 203919, Note_on_c, 1, 55, 0
3, 203920, Note_on_c, 1, 48, 62
3, 203939, Note_on_c, 1, 48, 0
3, 203940, Note_on_c, 1, 52, 72
3, 203940, Control_c, 1, 64, 0
3, 203940, Control_c, 1, 64, 127
3, 203959, Note_on_c, 1, 52, 0
3, 203960, Note_on_c, 1, 55, 64
3, 203979, Note_on_c, 1, 55, 0
3, 203980, Note_on_c, 1, 48, 72
3, 203999, Note_on_c, 1, 48, 0
3, 204000, Note_on_c, 1, 41, 76
3, 204000, Note_on_c, 1, 53, 76
3, 204000, Control_c, 1, 64, 0
3, 204000, Control_c, 1, 64, 127
3, 204009, Control_c, 1, 64, 127
3, 204019, Note_on_c, 1, 53, 0
3, 204020, Note_on_c, 1, 57, 64
3, 204039, Note_on_c, 1, 57, 0
3, 204040, Note_on_c, 1, 48, 68
3, 204041, Control_c, 1, 64, 0
3, 204059, Note_on_c, 1, 48, 0
3, 204060, Control_c, 1, 64, 0
3, 204060, Note_on_c, 1, 58, 80
3, 204060, Control_c, 1, 64, 127
3, 204062, Note_on_c, 1, 43, 76
3, 204065, Note_on_c, 1, 41, 0
3, 204079, Note_on_c, 1, 58, 0
3, 204080, Note_on_c, 1, 61, 76
3, 204096, Control_c, 1, 64, 127
3, 204099, Note_on_c, 1, 61, 0
3, 204100, Note_on_c, 1, 52, 53
3, 204119, Note_on_c, 1, 52, 0
3, 204120, Control_c, 1, 64, 0
3, 204120, Note_on_c, 1, 57, 76
3, 204120, Control_c, 1, 64, 127
3, 204124, Note_on_c, 1, 41, 72
3, 204125, Note_on_c, 1, 43, 0
3, 204130, Control_c, 1, 64, 0
3, 204139, Note_on_c, 1, 57, 0
3, 204140, Note_on_c, 1, 62, 64
3, 204159, Note_on_c, 1, 62, 0
3, 204160, Note_on_c, 1, 53, 76
3, 204179, Note_on_c, 1, 53, 0
3, 204180, Note_on_c, 1, 60, 76
3, 204180, Control_c, 1, 64, 0
3, 204180, Control_c, 1, 64, 127
3, 204186, Note_on_c, 1, 41, 0
3, 204187, Note_on_c, 1, 40, 85
3, 204192, Control_c, 1, 64, 127
3, 204199, Note_on_c, 1, 60, 0
3, 204200, Note_on_c, 1, 67, 80
3, 204219, Note_on_c, 1, 67, 0
3, 204220, Note_on_c, 1, 57, 72
3, 204227, Note_on_c, 1, 40, 0
3, 204235, Control_c, 1, 64, 0
3, 204239, Note_on_c, 1, 57, 0
3, 204240, Note_on_c, 1, 38, 64
3, 204244, Note_on_c, 1, 65, 80
3, 204260, Control_c, 1, 64, 127
3, 204311, Control_c, 1, 64, 127
3, 204369, Control_c, 1, 64, 0
3, 204371, Note_on_c, 1, 65, 0
3, 204392, Note_on_c, 1, 38, 0
3, 204395, Control_c, 1, 64, 0
3, 204420, Note_on_c, 1, 57, 76
3, 204420, Note_on_c, 1, 41, 60
3, 204430, Control_c, 1, 64, 127
3, 204435, Control_c, 1, 64, 127
3, 204468, Note_on_c, 1, 41, 0
3, 204468, Note_on_c, 1, 57, 0
3, 204478, Control_c, 1, 64, 0
3, 204480, Note_on_c, 1, 55, 72
3, 204480, Note_on_c, 1, 43, 60
3, 204484, Control_c, 1, 64, 0
3, 204509, Control_c, 1, 64, 127
3, 204515, Control_c, 1, 64, 127
3, 204598, Note_on_c, 1, 43, 0
3, 204602, Control_c, 1, 64, 0
3, 204656, Control_c, 1, 64, 127
3, 204660, Note_on_c, 1, 55, 0
3, 204660, Note_on_c, 1, 43, 72
3, 204677, Control_c, 1, 64, 0
3, 204682, Note_on_c, 1, 43, 0
3, 204720, Note_on_c, 1, 59, 89
3, 204720, Note_on_c, 1, 50, 51
3, 204720, Note_on_c, 1, 53, 56
3, 204725, Control_c, 1, 64, 0
3, 204735, Note_on_c, 1, 60, 68
3, 204737, Note_on_c, 1, 59, 0
3, 204750, Note_on_c, 1, 59, 76
3, 204752, Note_on_c, 1, 60, 0
3, 204758, Control_c, 1, 64, 127
3, 204764, Note_on_c, 1, 59, 0
3, 204765, Note_on_c, 1, 57, 76
3, 204780, Note_on_c, 1, 57, 0
3, 204780, Note_on_c, 1, 59, 72
3, 204780, Note_on_c, 1, 43, 62
3, 204782, Note_on_c, 1, 50, 0
3, 204795, Note_on_c, 1, 60, 85
3, 204796, Note_on_c, 1, 59, 0
3, 204808, Note_on_c, 1, 60, 0
3, 204808, Control_c, 1, 64, 0
3, 204810, Note_on_c, 1, 62, 76
3, 204825, Note_on_c, 1, 64, 76
3, 204829, Note_on_c, 1, 62, 0
3, 204832, Control_c, 1, 64, 127
3, 204840, Note_on_c, 1, 67, 85
3, 204841, Note_on_c, 1, 64, 0
3, 204854, Note_on_c, 1, 67, 0
3, 204855, Note_on_c, 1, 65, 76
3, 204858, Note_on_c, 1, 53, 0
3, 204861, Note_on_c, 1, 43, 0
3, 204870, Note_on_c, 1, 64, 76
3, 204874, Note_on_c, 1, 65, 0
3, 204874, Control_c, 1, 64, 0
3, 204885, Note_on_c, 1, 64, 0
3, 204885, Note_on_c, 1, 65, 72
3, 204900, Note_on_c, 1, 64, 80
3, 204900, Note_on_c, 1, 43, 68
3, 204900, Control_c, 1, 64, 127
3, 204904, Note_on_c, 1, 65, 0
3, 204918, Note_on_c, 1, 64, 0
3, 204918, Control_c, 1, 64, 127
3, 204919, Note_on_c, 1, 62, 72
3, 204933, Note_on_c, 1, 62, 0
3, 204935, Note_on_c, 1, 60, 76
3, 204938, Note_on_c, 1, 43, 0
3, 204949, Note_on_c, 1, 59, 76
3, 204953, Note_on_c, 1, 60, 0
3, 204956, Control_c, 1, 64, 0
3, 204958, Note_on_c, 1, 59, 0
3, 204960, Control_c, 1, 64, 0
3, 204960, Note_on_c, 1, 52, 64
3, 204960, Note_on_c, 1, 48, 59
3, 204964, Note_on_c, 1, 67, 89
3, 204979, Control_c, 1, 64, 127
3, 205018, Note_on_c, 1, 48, 0
3, 205020, Note_on_c, 1, 43, 76
3, 205021, Note_on_c, 1, 52, 0
3, 205026, Control_c, 1, 64, 0
3, 205027, Control_c, 1, 64, 127
3, 205045, Note_on_c, 1, 67, 0
3, 205050, Note_on_c, 1, 64, 80
3, 205051, Control_c, 1, 64, 127
3, 205053, Control_c, 1, 64, 0
3, 205077, Note_on_c, 1, 64, 0
3, 205080, Note_on_c, 1, 60, 72
3, 205085, Control_c, 1, 64, 127
3, 205101, Note_on_c, 1, 43, 0
3, 205120, Control_c, 1, 64, 0
3, 205140, Note_on_c, 1, 43, 76
3, 205149, Control_c, 1, 64, 127
3, 205165, Note_on_c, 1, 60, 0
3, 205176, Control_c, 1, 64, 0
3, 205188, Note_on_c, 1, 43, 0
3, 205200, Note_on_c, 1, 59, 93
3, 205200, Control_c, 1, 64, 0
3, 205200, Note_on_c, 1, 50, 60
3, 205200, Note_on_c, 1, 53, 60
3, 205206, Control_c, 1, 64, 127
3, 205215, Note_on_c, 1, 60, 80
3, 205216, Control_c, 1, 64, 0
3, 205218, Note_on_c, 1, 59, 0
3, 205223, Control_c, 1, 64, 127
3, 205230, Note_on_c, 1, 59, 80
3, 205232, Note_on_c, 1, 60, 0
3, 205244, Note_on_c, 1, 59, 0
3, 205245, Note_on_c, 1, 57, 68
3, 205257, Note_on_c, 1, 57, 0
3, 205259, Note_on_c, 1, 53, 0
3, 205260, Note_on_c, 1, 59, 72
3, 205260, Note_on_c, 1, 43, 72
3, 205261, Note_on_c, 1, 50, 0
3, 205270, Control_c, 1, 64, 0
3, 205275, Note_on_c, 1, 60, 85
3, 205277, Note_on_c, 1, 59, 0
3, 205282, Control_c, 1, 64, 127
3, 205290, Note_on_c, 1, 62, 72
3, 205290, Control_c, 1, 64, 127
3, 205294, Note_on_c, 1, 60, 0
3, 205305, Note_on_c, 1, 62, 0
3, 205305, Note_on_c, 1, 64, 80
3, 205316, Note_on_c, 1, 64, 0
3, 205320, Note_on_c, 1, 67, 80
3, 205324, Control_c, 1, 64, 0
3, 205335, Note_on_c, 1, 65, 80
3, 205336, Note_on_c, 1, 67, 0
3, 205350, Control_c, 1, 64, 127
3, 205350, Note_on_c, 1, 64, 76
3, 205352, Note_on_c, 1, 65, 0
3, 205354, Note_on_c, 1, 43, 0
3, 205364, Note_on_c, 1, 64, 0
3, 205365, Note_on_c, 1, 65, 72
3, 205370, Control_c, 1, 64, 0
3, 205379, Control_c, 1, 64, 0
3, 205380, Note_on_c, 1, 64, 89
3, 205380, Note_on_c, 1, 43, 76
3, 205382, Note_on_c, 1, 65, 0
3, 205389, Control_c, 1, 64, 127
3, 205395, Note_on_c, 1, 62, 72
3, 205397, Note_on_c, 1, 64, 0
3, 205400, Control_c, 1, 64, 127
3, 205409, Note_on_c, 1, 62, 0
3, 205410, Note_on_c, 1, 60, 72
3, 205422, Note_on_c, 1, 43, 0
3, 205425, Note_on_c, 1, 59, 89
3, 205428, Note_on_c, 1, 60, 0
3, 205432, Control_c, 1, 64, 0
3, 205436, Note_on_c, 1, 59, 0
3, 205439, Control_c, 1, 64, 0
3, 205440, Note_on_c, 1, 67, 89
3, 205440, Note_on_c, 1, 48, 50
3, 205440, Note_on_c, 1, 52, 57
3, 205456, Control_c, 1, 64, 127
3, 205467, Control_c, 1, 64, 127
3, 205496, Note_on_c, 1, 48, 0
3, 205497, Note_on_c, 1, 52, 0
3, 205500, Note_on_c, 1, 43, 72
3, 205502, Control_c, 1, 64, 0
3, 205521, Control_c, 1, 64, 127
3, 205526, Note_on_c, 1, 67, 0
3, 205530, Note_on_c, 1, 64, 85
3, 205536, Control_c, 1, 64, 0
3, 205560, Note_on_c, 1, 60, 89
3, 205561, Note_on_c, 1, 64, 0
3, 205573, Control_c, 1, 64, 127
3, 205581, Note_on_c, 1, 43, 0
3, 205610, Note_on_c, 1, 60, 0
3, 205639, Control_c, 1, 64, 0
3, 205662, Control_c, 1, 64, 0
3, 205680, Note_on_c, 1, 53, 93
3, 205695, Note_on_c, 1, 55, 89
3, 205696, Note_on_c, 1, 53, 0
3, 205710, Note_on_c, 1, 57, 76
3, 205713, Note_on_c, 1, 55, 0
3, 205717, Control_c, 1, 64, 127
3, 205725, Note_on_c, 1, 59, 80
3, 205726, Note_on_c, 1, 57, 0
3, 205737, Note_on_c, 1, 59, 0
3, 205740, Note_on_c, 1, 60, 76
3, 205740, Note_on_c, 1, 53, 80
3, 205742, Control_c, 1, 64, 0
3, 205747, Control_c, 1, 64, 127
3, 205750, Note_on_c, 1, 60, 0
3, 205755, Note_on_c, 1, 62, 85
3, 205770, Note_on_c, 1, 64, 80
3, 205771, Note_on_c, 1, 62, 0
3, 205783, Note_on_c, 1, 64, 0
3, 205785, Note_on_c, 1, 65, 76
3, 205789, Control_c, 1, 64, 127
3, 205796, Control_c, 1, 64, 0
3, 205799, Note_on_c, 1, 53, 0
3, 205800, Note_on_c, 1, 64, 85
3, 205804, Note_on_c, 1, 65, 0
3, 205808, Control_c, 1, 64, 0
3, 205815, Note_on_c, 1, 62, 76
3, 205819, Note_on_c, 1, 64, 0
3, 205830, Note_on_c, 1, 60, 72
3, 205831, Note_on_c, 1, 62, 0
3, 205831, Control_c, 1, 64, 127
3, 205842, Note_on_c, 1, 60, 0
3, 205845, Note_on_c, 1, 59, 72
3, 205853, Control_c, 1, 64, 0
3, 205860, Note_on_c, 1, 57, 89
3, 205860, Note_on_c, 1, 48, 76
3, 205864, Note_on_c, 1, 59, 0
3, 205867, Control_c, 1, 64, 127
3, 205874, Note_on_c, 1, 57, 0
3, 205875, Note_on_c, 1, 55, 80
3, 205887, Note_on_c, 1, 55, 0
3, 205890, Note_on_c, 1, 53, 76
3, 205893, Control_c, 1, 64, 127
3, 205905, Note_on_c, 1, 52, 64
3, 205908, Note_on_c, 1, 53, 0
3, 205912, Note_on_c, 1, 48, 0
3, 205920, Note_on_c, 1, 52, 0
3, 205920, Control_c, 1, 64, 0
3, 205920, Note_on_c, 1, 50, 80
3, 205929, Control_c, 1, 64, 0
3, 205935, Note_on_c, 1, 52, 85
3, 205936, Note_on_c, 1, 50, 0
3, 205950, Note_on_c, 1, 53, 85
3, 205952, Note_on_c, 1, 52, 0
3, 205954, Control_c, 1, 64, 127
3, 205963, Note_on_c, 1, 53, 0
3, 205965, Note_on_c, 1, 55, 76
3, 205970, Control_c, 1, 64, 0
3, 205980, Note_on_c, 1, 57, 85
3, 205980, Note_on_c, 1, 43, 80
3, 205981, Note_on_c, 1, 55, 0
3, 205987, Control_c, 1, 64, 127
3, 205995, Note_on_c, 1, 59, 76
3, 205997, Note_on_c, 1, 57, 0
3, 205999, Control_c, 1, 64, 127
3, 206010, Note_on_c, 1, 60, 64
3, 206012, Note_on_c, 1, 59, 0
3, 206025, Note_on_c, 1, 60, 0
3, 206025, Note_on_c, 1, 62, 72
3, 206032, Note_on_c, 1, 43, 0
3, 206033, Control_c, 1, 64, 0
3, 206040, Note_on_c, 1, 59, 89
3, 206040, Note_on_c, 1, 45, 89
3, 206041, Note_on_c, 1, 62, 0
3, 206043, Control_c, 1, 64, 0
3, 206066, Control_c, 1, 64, 127
3, 206067, Note_on_c, 1, 59, 0
3, 206070, Note_on_c, 1, 60, 72
3, 206076, Control_c, 1, 64, 127
3, 206090, Note_on_c, 1, 60, 0
3, 206097, Control_c, 1, 64, 0
3, 206100, Note_on_c, 1, 60, 76
3, 206112, Control_c, 1, 64, 127
3, 206124, Note_on_c, 1, 60, 0
3, 206147, Note_on_c, 1, 45, 0
3, 206150, Control_c, 1, 64, 0
3, 206155, Control_c, 1, 64, 0
3, 206160, Note_on_c, 1, 65, 72
3, 206169, Note_on_c, 1, 65, 0
3, 206190, Note_on_c, 1, 64, 72
3, 206198, Note_on_c, 1, 64, 0
3, 206220, Note_on_c, 1, 65, 76
3, 206228, Note_on_c, 1, 65, 0
3, 206250, Note_on_c, 1, 67, 85
3, 206259, Note_on_c, 1, 67, 0
3, 206280, Note_on_c, 1, 69, 62
3, 206289, Note_on_c, 1, 69, 0
3, 206310, Note_on_c, 1, 67, 72
3, 206319, Note_on_c, 1, 67, 0
3, 206340, Note_on_c, 1, 69, 72
3, 206349, Note_on_c, 1, 69, 0
3, 206370, Note_on_c, 1, 64, 62
3, 206378, Note_on_c, 1, 64, 0
3, 206400, Note_on_c, 1, 65, 76
3, 206410, Note_on_c, 1, 65, 0
3, 206460, Note_on_c, 1, 64, 64
3, 206469, Note_on_c, 1, 64, 0
3, 206520, Note_on_c, 1, 62, 64
3, 206528, Note_on_c, 1, 62, 0
3, 206580, Note_on_c, 1, 62, 68
3, 206580, Note_on_c, 1, 55, 89
3, 206589, Note_on_c, 1, 62, 0
3, 206592, Note_on_c, 1, 55, 0
3, 206640, Note_on_c, 1, 60, 62
3, 206640, Note_on_c, 1, 57, 76
3, 206646, Control_c, 1, 64, 127
3, 206656, Note_on_c, 1, 57, 0
3, 206700, Note_on_c, 1, 53, 76
3, 206705, Control_c, 1, 64, 0
3, 206708, Note_on_c, 1, 60, 0
3, 206717, Note_on_c, 1, 53, 0
3, 206760, Note_on_c, 1, 55, 93
3, 206777, Note_on_c, 1, 55, 0
3, 206820, Note_on_c, 1, 43, 89
3, 206842, Note_on_c, 1, 43, 0
3, 206910, Note_on_c, 1, 55, 89
3, 206923, Control_c, 1, 64, 127
3, 206940, Note_on_c, 1, 55, 0
3, 206940, Note_on_c, 1, 54, 72
3, 206940, Control_c, 1, 64, 0
3, 206940, Note_on_c, 1, 43, 76
3, 206952, Control_c, 1, 64, 127
3, 206970, Note_on_c, 1, 53, 68
3, 206971, Note_on_c, 1, 54, 0
3, 206995, Note_on_c, 1, 43, 0
3, 206999, Note_on_c, 1, 53, 0
3, 207000, Note_on_c, 1, 52, 76
3, 207000, Note_on_c, 1, 36, 85
3, 207007, Control_c, 1, 64, 127
3, 207023, Control_c, 1, 64, 0
3, 207025, Note_on_c, 1, 52, 0
3, 207026, Control_c, 1, 64, 0
3, 207030, Note_on_c, 1, 55, 80
3, 207037, Note_on_c, 1, 55, 0
3, 207060, Note_on_c, 1, 52, 85
3, 207067, Note_on_c, 1, 52, 0
3, 207090, Note_on_c, 1, 48, 85
3, 207092, Note_on_c, 1, 36, 0
3, 207098, Note_on_c, 1, 48, 0
3, 207120, Note_on_c, 1, 53, 89
3, 207133, Note_on_c, 1, 53, 0
3, 207135, Note_on_c, 1, 55, 85
3, 207150, Note_on_c, 1, 57, 89
3, 207152, Note_on_c, 1, 55, 0
3, 207159, Control_c, 1, 64, 127
3, 207164, Note_on_c, 1, 57, 0
3, 207165, Note_on_c, 1, 59, 89
3, 207173, Note_on_c, 1, 59, 0
3, 207176, Control_c, 1, 64, 0
3, 207180, Note_on_c, 1, 60, 98
3, 207180, Note_on_c, 1, 41, 89
3, 207180, Note_on_c, 1, 53, 89
3, 207188, Control_c, 1, 64, 127
3, 207190, Note_on_c, 1, 60, 0
3, 207195, Note_on_c, 1, 62, 64
3, 207205, Control_c, 1, 64, 127
3, 207207, Note_on_c, 1, 62, 0
3, 207210, Note_on_c, 1, 64, 76
3, 207212, Note_on_c, 1, 53, 0
3, 207218, Note_on_c, 1, 41, 0
3, 207225, Note_on_c, 1, 65, 93
3, 207226, Note_on_c, 1, 64, 0
3, 207240, Note_on_c, 1, 64, 76
3, 207240, Control_c, 1, 64, 0
3, 207242, Note_on_c, 1, 65, 0
3, 207242, Control_c, 1, 64, 0
3, 207255, Note_on_c, 1, 62, 85
3, 207257, Note_on_c, 1, 64, 0
3, 207267, Control_c, 1, 64, 127
3, 207270, Note_on_c, 1, 60, 89
3, 207271, Note_on_c, 1, 62, 0
3, 207281, Note_on_c, 1, 60, 0
3, 207285, Note_on_c, 1, 59, 89
3, 207297, Control_c, 1, 64, 0
3, 207300, Note_on_c, 1, 57, 85
3, 207300, Note_on_c, 1, 36, 89
3, 207300, Note_on_c, 1, 48, 89
3, 207302, Note_on_c, 1, 59, 0
3, 207305, Control_c, 1, 64, 127
3, 207315, Note_on_c, 1, 57, 0
3, 207315, Note_on_c, 1, 55, 89
3, 207321, Control_c, 1, 64, 127
3, 207330, Note_on_c, 1, 53, 72
3, 207331, Note_on_c, 1, 55, 0
3, 207333, Note_on_c, 1, 48, 0
3, 207338, Note_on_c, 1, 36, 0
3, 207345, Note_on_c, 1, 52, 80
3, 207347, Note_on_c, 1, 53, 0
3, 207353, Control_c, 1, 64, 0
3, 207360, Note_on_c, 1, 52, 0
3, 207360, Note_on_c, 1, 50, 102
3, 207365, Control_c, 1, 64, 0
3, 207375, Note_on_c, 1, 52, 89
3, 207376, Note_on_c, 1, 50, 0
3, 207376, Control_c, 1, 64, 127
3, 207390, Note_on_c, 1, 53, 80
3, 207391, Note_on_c, 1, 52, 0
3, 207404, Note_on_c, 1, 53, 0
3, 207405, Note_on_c, 1, 53, 85
3, 207405, Note_on_c, 1, 55, 76
3, 207411, Control_c, 1, 64, 0
3, 207413, Note_on_c, 1, 53, 0
3, 207414, Note_on_c, 1, 55, 0
3, 207418, Control_c, 1, 64, 127
3, 207420, Note_on_c, 1, 57, 80
3, 207420, Note_on_c, 1, 31, 93
3, 207420, Note_on_c, 1, 43, 85
3, 207435, Note_on_c, 1, 59, 76
3, 207436, Note_on_c, 1, 57, 0
3, 207439, Note_on_c, 1, 43, 0
3, 207439, Control_c, 1, 64, 127
3, 207441, Note_on_c, 1, 31, 0
3, 207450, Note_on_c, 1, 60, 60
3, 207452, Note_on_c, 1, 59, 0
3, 207465, Note_on_c, 1, 62, 85
3, 207466, Note_on_c, 1, 60, 0
3, 207473, Control_c, 1, 64, 0
3, 207477, Control_c, 1, 64, 0
3, 207480, Note_on_c, 1, 59, 76
3, 207480, Note_on_c, 1, 33, 85
3, 207480, Note_on_c, 1, 45, 93
3, 207482, Note_on_c, 1, 62, 0
3, 207495, Control_c, 1, 64, 127
3, 207501, Control_c, 1, 64, 127
3, 207505, Note_on_c, 1, 45, 0
3, 207505, Note_on_c, 1, 33, 0
3, 207509, Note_on_c, 1, 59, 0
3, 207510, Note_on_c, 1, 60, 89
3, 207510, Control_c, 1, 64, 0
3, 207528, Note_on_c, 1, 60, 0
3, 207540, Note_on_c, 1, 60, 76
3, 207544, Control_c, 1, 64, 127
3, 207575, Note_on_c, 1, 60, 0
3, 207576, Control_c, 1, 64, 0
3, 207591, Control_c, 1, 64, 0
3, 207600, Note_on_c, 1, 60, 64
3, 207600, Note_on_c, 1, 53, 80
3, 207617, Note_on_c, 1, 53, 0
3, 207624, Note_on_c, 1, 60, 0
3, 207630, Note_on_c, 1, 60, 62
3, 207630, Note_on_c, 1, 52, 68
3, 207648, Note_on_c, 1, 52, 0
3, 207649, Note_on_c, 1, 60, 0
3, 207660, Note_on_c, 1, 60, 62
3, 207660, Note_on_c, 1, 53, 72
3, 207674, Note_on_c, 1, 53, 0
3, 207681, Note_on_c, 1, 60, 0
3, 207690, Note_on_c, 1, 60, 64
3, 207690, Note_on_c, 1, 55, 76
3, 207704, Note_on_c, 1, 55, 0
3, 207712, Note_on_c, 1, 60, 0
3, 207720, Note_on_c, 1, 60, 76
3, 207720, Note_on_c, 1, 57, 85
3, 207736, Note_on_c, 1, 57, 0
3, 207738, Note_on_c, 1, 60, 0
3, 207750, Note_on_c, 1, 60, 68
3, 207750, Note_on_c, 1, 56, 68
3, 207765, Note_on_c, 1, 56, 0
3, 207768, Note_on_c, 1, 60, 0
3, 207780, Note_on_c, 1, 60, 76
3, 207780, Note_on_c, 1, 57, 76
3, 207796, Note_on_c, 1, 60, 0
3, 207797, Note_on_c, 1, 57, 0
3, 207810, Note_on_c, 1, 60, 76
3, 207810, Note_on_c, 1, 52, 76
3, 207821, Note_on_c, 1, 60, 0
3, 207825, Note_on_c, 1, 52, 0
3, 207840, Note_on_c, 1, 60, 72
3, 207840, Note_on_c, 1, 53, 72
3, 207845, Control_c, 1, 64, 0
3, 207852, Note_on_c, 1, 60, 0
3, 207858, Note_on_c, 1, 53, 0
3, 207900, Note_on_c, 1, 60, 72
3, 207900, Note_on_c, 1, 55, 72
3, 207900, Note_on_c, 1, 51, 85
3, 207911, Note_on_c, 1, 55, 0
3, 207912, Note_on_c, 1, 60, 0
3, 207915, Note_on_c, 1, 51, 0
3, 207960, Note_on_c, 1, 60, 72
3, 207960, Note_on_c, 1, 57, 80
3, 207960, Note_on_c, 1, 50, 93
3, 207970, Note_on_c, 1, 57, 0
3, 207972, Note_on_c, 1, 50, 0
3, 207972, Note_on_c, 1, 60, 0
3, 208020, Note_on_c, 1, 59, 72
3, 208020, Note_on_c, 1, 62, 76
3, 208020, Note_on_c, 1, 43, 72
3, 208029, Note_on_c, 1, 59, 0
3, 208030, Note_on_c, 1, 62, 0
3, 208036, Note_on_c, 1, 43, 0
3, 208080, Note_on_c, 1, 55, 72
3, 208080, Note_on_c, 1, 60, 76
3, 208080, Note_on_c, 1, 48, 76
3, 208088, Control_c, 1, 64, 127
3, 208088, Control_c, 1, 64, 127
3, 208138, Note_on_c, 1, 48, 0
3, 208139, Note_on_c, 1, 55, 0
3, 208141, Note_on_c, 1, 60, 0
3, 208143, Control_c, 1, 64, 0
3, 208149, Control_c, 1, 64, 0
3, 208200, Note_on_c, 1, 55, 64
3, 208200, Note_on_c, 1, 60, 80
3, 208200, Note_on_c, 1, 36, 76
3, 208206, Control_c, 1, 64, 127
3, 208208, Control_c, 1, 64, 127
3, 208258, Note_on_c, 1, 36, 0
3, 208261, Control_c, 1, 64, 0
3, 208265, Note_on_c, 1, 60, 0
3, 208267, Note_on_c, 1, 55, 0
3, 208275, Control_c, 1, 64, 0
3, 208320, Note_on_c, 1, 53, 62
3, 208320, Note_on_c, 1, 56, 76
3, 208320, Note_on_c, 1, 41, 76
3, 208324, Control_c, 1, 64, 127
3, 208326, Control_c, 1, 64, 127
3, 208378, Note_on_c, 1, 41, 0
3, 208382, Control_c, 1, 64, 0
3, 208384, Note_on_c, 1, 56, 0
3, 208386, Note_on_c, 1, 53, 0
3, 208394, Control_c, 1, 64, 0
3, 208440, Note_on_c, 1, 51, 68
3, 208440, Note_on_c, 1, 57, 89
3, 208440, Note_on_c, 1, 42, 72
3, 208443, Control_c, 1, 64, 127
3, 208447, Control_c, 1, 64, 127
3, 208491, Note_on_c, 1, 42, 0
3, 208504, Note_on_c, 1, 57, 0
3, 208504, Note_on_c, 1, 51, 0
3, 208508, Control_c, 1, 64, 0
3, 208533, Control_c, 1, 64, 0
3, 208560, Note_on_c, 1, 55, 72
3, 208560, Note_on_c, 1, 59, 76
3, 208560, Note_on_c, 1, 31, 80
3, 208560, Note_on_c, 1, 43, 59
3, 208567, Control_c, 1, 64, 127
3, 208580, Control_c, 1, 64, 127
3, 208620, Note_on_c, 1, 50, 68
3, 208622, Note_on_c, 1, 55, 0
3, 208651, Note_on_c, 1, 59, 0
3, 208655, Note_on_c, 1, 50, 0
3, 208680, Note_on_c, 1, 55, 80
3, 208680, Note_on_c, 1, 59, 68
3, 208686, Control_c, 1, 64, 0
3, 208716, Control_c, 1, 64, 127
3, 208737, Note_on_c, 1, 55, 0
3, 208740, Note_on_c, 1, 50, 76
3, 208773, Note_on_c, 1, 59, 0
3, 208778, Note_on_c, 1, 50, 0
3, 208800, Note_on_c, 1, 57, 76
3, 208800, Note_on_c, 1, 54, 72
3, 208801, Control_c, 1, 64, 0
3, 208830, Control_c, 1, 64, 127
3, 208859, Note_on_c, 1, 54, 0
3, 208860, Note_on_c, 1, 50, 76
3, 208883, Note_on_c, 1, 57, 0
3, 208885, Note_on_c, 1, 50, 0
3, 208918, Control_c, 1, 64, 0
3, 208920, Note_on_c, 1, 57, 72
3, 208920, Note_on_c, 1, 60, 76
3, 208943, Control_c, 1, 64, 127
3, 208979, Note_on_c, 1, 57, 0
3, 208980, Note_on_c, 1, 50, 76
3, 208981, Control_c, 1, 64, 0
3, 208994, Control_c, 1, 64, 127
3, 209000, Note_on_c, 1, 31, 0
3, 209003, Note_on_c, 1, 43, 0
3, 209008, Note_on_c, 1, 60, 0
3, 209014, Note_on_c, 1, 50, 0
3, 209037, Control_c, 1, 64, 0
3, 209040, Note_on_c, 1, 55, 72
3, 209040, Note_on_c, 1, 59, 76
3, 209040, Note_on_c, 1, 31, 76
3, 209040, Note_on_c, 1, 43, 62
3, 209049, Control_c, 1, 64, 0
3, 209065, Control_c, 1, 64, 127
3, 209078, Control_c, 1, 64, 127
3, 209100, Note_on_c, 1, 55, 0
3, 209100, Note_on_c, 1, 50, 59
3, 209100, Control_c, 1, 64, 0
3, 209115, Control_c, 1, 64, 127
3, 209135, Note_on_c, 1, 59, 0
3, 209137, Note_on_c, 1, 50, 0
3, 209160, Control_c, 1, 64, 0
3, 209160, Note_on_c, 1, 55, 68
3, 209160, Note_on_c, 1, 59, 72
3, 209185, Control_c, 1, 64, 127
3, 209220, Note_on_c, 1, 50, 76
3, 209221, Note_on_c, 1, 55, 0
3, 209252, Note_on_c, 1, 59, 0
3, 209253, Note_on_c, 1, 50, 0
3, 209280, Note_on_c, 1, 54, 60
3, 209280, Note_on_c, 1, 57, 76
3, 209281, Control_c, 1, 64, 0
3, 209305, Control_c, 1, 64, 127
3, 209338, Note_on_c, 1, 54, 0
3, 209340, Note_on_c, 1, 50, 76
3, 209364, Note_on_c, 1, 57, 0
3, 209367, Note_on_c, 1, 50, 0
3, 209397, Control_c, 1, 64, 0
3, 209400, Note_on_c, 1, 57, 72
3, 209400, Note_on_c, 1, 60, 72
3, 209418, Control_c, 1, 64, 127
3, 209460, Note_on_c, 1, 50, 80
3, 209464, Note_on_c, 1, 57, 0
3, 209470, Note_on_c, 1, 43, 0
3, 209473, Note_on_c, 1, 31, 0
3, 209489, Note_on_c, 1, 50, 0
3, 209493, Note_on_c, 1, 60, 0
3, 209516, Control_c, 1, 64, 0
3, 209518, Control_c, 1, 64, 0
3, 209520, Note_on_c, 1, 59, 76
3, 209520, Note_on_c, 1, 55, 80
3, 209520, Note_on_c, 1, 31, 85
3, 209520, Note_on_c, 1, 43, 72
3, 209535, Control_c, 1, 64, 127
3, 209539, Control_c, 1, 64, 127
3, 209640, Note_on_c, 1, 55, 0
3, 209642, Note_on_c, 1, 59, 0
3, 209644, Control_c, 1, 64, 0
3, 209700, Note_on_c, 1, 59, 80
3, 209700, Note_on_c, 1, 62, 85
3, 209718, Control_c, 1, 64, 127
3, 209724, Note_on_c, 1, 31, 0
3, 209725, Note_on_c, 1, 43, 0
3, 209760, Note_on_c, 1, 63, 68
3, 209760, Note_on_c, 1, 60, 89
3, 209760, Note_on_c, 1, 31, 85
3, 209760, Note_on_c, 1, 43, 68
3, 209761, Note_on_c, 1, 59, 0
3, 209762, Control_c, 1, 64, 0
3, 209763, Note_on_c, 1, 62, 0
3, 209766, Control_c, 1, 64, 0
3, 209794, Control_c, 1, 64, 127
3, 209819, Control_c, 1, 64, 127
3, 209887, Control_c, 1, 64, 0
3, 209888, Note_on_c, 1, 60, 0
3, 209890, Note_on_c, 1, 63, 0
3, 209940, Note_on_c, 1, 63, 62
3, 209940, Note_on_c, 1, 60, 89
3, 209947, Control_c, 1, 64, 127
3, 209966, Note_on_c, 1, 43, 0
3, 209967, Note_on_c, 1, 31, 0
3, 209970, Note_on_c, 1, 60, 0
3, 209971, Note_on_c, 1, 63, 0
3, 210000, Note_on_c, 1, 55, 76
3, 210000, Note_on_c, 1, 62, 85
3, 210000, Note_on_c, 1, 59, 89
3, 210000, Note_on_c, 1, 31, 80
3, 210000, Note_on_c, 1, 43, 72
3, 210003, Control_c, 1, 64, 0
3, 210010, Control_c, 1, 64, 0
3, 210026, Control_c, 1, 64, 127
3, 210044, Control_c, 1, 64, 127
3, 210453, Note_on_c, 1, 59, 0
3, 210453, Note_on_c, 1, 62, 0
3, 210454, Note_on_c, 1, 55, 0
3, 210463, Control_c, 1, 64, 0
3, 210491, Note_on_c, 1, 43, 0
3, 210493, Note_on_c, 1, 31, 0
3, 210495, Control_c, 1, 64, 0
3, 210720, Note_on_c, 1, 60, 62
3, 210720, Note_on_c, 1, 64, 76
3, 210720, Note_on_c, 1, 36, 56
3, 210720, Note_on_c, 1, 48, 46
3, 210730, Control_c, 1, 64, 127
3, 210780, Note_on_c, 1, 55, 62
3, 210781, Note_on_c, 1, 60, 0
3, 210817, Note_on_c, 1, 64, 0
3, 210824, Note_on_c, 1, 55, 0
3, 210840, Note_on_c, 1, 60, 60
3, 210840, Note_on_c, 1, 64, 62
3, 210851, Control_c, 1, 64, 0
3, 210868, Control_c, 1, 64, 127
3, 210900, Note_on_c, 1, 60, 0
3, 210900, Note_on_c, 1, 55, 64
3, 210925, Note_on_c, 1, 64, 0
3, 210929, Note_on_c, 1, 55, 0
3, 210960, Note_on_c, 1, 65, 76
3, 210960, Note_on_c, 1, 59, 80
3, 210967, Control_c, 1, 64, 0
3, 210989, Control_c, 1, 64, 127
3, 211017, Note_on_c, 1, 59, 0
3, 211020, Note_on_c, 1, 55, 57
3, 211049, Note_on_c, 1, 65, 0
3, 211053, Note_on_c, 1, 55, 0
3, 211080, Note_on_c, 1, 65, 62
3, 211080, Note_on_c, 1, 59, 72
3, 211089, Control_c, 1, 64, 0
3, 211107, Control_c, 1, 64, 127
3, 211140, Note_on_c, 1, 55, 57
3, 211141, Note_on_c, 1, 59, 0
3, 211164, Note_on_c, 1, 65, 0
3, 211165, Note_on_c, 1, 48, 0
3, 211167, Note_on_c, 1, 55, 0
3, 211168, Note_on_c, 1, 36, 0
3, 211200, Note_on_c, 1, 60, 64
3, 211200, Note_on_c, 1, 64, 72
3, 211200, Note_on_c, 1, 36, 62
3, 211200, Note_on_c, 1, 48, 51
3, 211207, Control_c, 1, 64, 0
3, 211229, Control_c, 1, 64, 127
3, 211257, Note_on_c, 1, 60, 0
3, 211260, Note_on_c, 1, 55, 62
3, 211295, Note_on_c, 1, 64, 0
3, 211299, Note_on_c, 1, 55, 0
3, 211320, Note_on_c, 1, 60, 64
3, 211320, Note_on_c, 1, 64, 51
3, 211329, Control_c, 1, 64, 0
3, 211346, Control_c, 1, 64, 127
3, 211377, Note_on_c, 1, 60, 0
3, 211380, Note_on_c, 1, 55, 62
3, 211405, Note_on_c, 1, 64, 0
3, 211408, Note_on_c, 1, 55, 0
3, 211440, Note_on_c, 1, 65, 59
3, 211440, Note_on_c, 1, 59, 76
3, 211444, Control_c, 1, 64, 0
3, 211465, Control_c, 1, 64, 127
3, 211500, Note_on_c, 1, 59, 0
3, 211500, Note_on_c, 1, 55, 57
3, 211532, Note_on_c, 1, 55, 0
3, 211532, Note_on_c, 1, 65, 0
3, 211560, Note_on_c, 1, 65, 62
3, 211560, Note_on_c, 1, 59, 72
3, 211568, Control_c, 1, 64, 0
3, 211585, Control_c, 1, 64, 127
3, 211617, Note_on_c, 1, 59, 0
3, 211620, Note_on_c, 1, 55, 68
3, 211641, Note_on_c, 1, 65, 0
3, 211643, Note_on_c, 1, 55, 0
3, 211643, Note_on_c, 1, 48, 0
3, 211644, Note_on_c, 1, 36, 0
3, 211680, Note_on_c, 1, 60, 72
3, 211680, Note_on_c, 1, 64, 72
3, 211680, Note_on_c, 1, 36, 55
3, 211680, Note_on_c, 1, 48, 50
3, 211685, Control_c, 1, 64, 0
3, 211709, Control_c, 1, 64, 127
3, 211740, Note_on_c, 1, 60, 0
3, 211740, Note_on_c, 1, 55, 57
3, 211770, Note_on_c, 1, 64, 0
3, 211773, Note_on_c, 1, 55, 0
3, 211800, Note_on_c, 1, 60, 76
3, 211800, Note_on_c, 1, 64, 76
3, 211807, Control_c, 1, 64, 0
3, 211824, Control_c, 1, 64, 127
3, 211860, Note_on_c, 1, 55, 72
3, 211861, Note_on_c, 1, 60, 0
3, 211886, Note_on_c, 1, 55, 0
3, 211892, Note_on_c, 1, 64, 0
3, 211920, Note_on_c, 1, 65, 76
3, 211920, Note_on_c, 1, 60, 80
3, 211926, Control_c, 1, 64, 0
3, 211943, Control_c, 1, 64, 127
3, 211980, Note_on_c, 1, 57, 76
3, 211982, Note_on_c, 1, 60, 0
3, 212009, Note_on_c, 1, 57, 0
3, 212013, Note_on_c, 1, 65, 0
3, 212040, Note_on_c, 1, 64, 68
3, 212040, Note_on_c, 1, 60, 64
3, 212050, Control_c, 1, 64, 0
3, 212071, Control_c, 1, 64, 127
3, 212100, Note_on_c, 1, 55, 62
3, 212103, Note_on_c, 1, 64, 0
3, 212104, Note_on_c, 1, 60, 0
3, 212108, Note_on_c, 1, 48, 0
3, 212114, Note_on_c, 1, 36, 0
3, 212129, Note_on_c, 1, 55, 0
3, 212160, Note_on_c, 1, 31, 59
3, 212160, Note_on_c, 1, 43, 48
3, 212160, Note_on_c, 1, 60, 72
3, 212160, Note_on_c, 1, 64, 76
3, 212166, Control_c, 1, 64, 0
3, 212187, Control_c, 1, 64, 127
3, 212216, Note_on_c, 1, 60, 0
3, 212220, Note_on_c, 1, 55, 64
3, 212249, Note_on_c, 1, 55, 0
3, 212250, Note_on_c, 1, 64, 0
3, 212280, Note_on_c, 1, 59, 64
3, 212280, Note_on_c, 1, 65, 59
3, 212282, Control_c, 1, 64, 0
3, 212299, Control_c, 1, 64, 127
3, 212340, Note_on_c, 1, 55, 72
3, 212341, Note_on_c, 1, 59, 0
3, 212346, Note_on_c, 1, 65, 0
3, 212366, Note_on_c, 1, 55, 0
3, 212370, Note_on_c, 1, 31, 0
3, 212371, Note_on_c, 1, 43, 0
3, 212397, Control_c, 1, 64, 0
3, 212400, Note_on_c, 1, 52, 62
3, 212400, Note_on_c, 1, 36, 60
3, 212400, Note_on_c, 1, 55, 50
3, 212409, Control_c, 1, 64, 127
3, 212427, Note_on_c, 1, 52, 0
3, 212430, Note_on_c, 1, 55, 0
3, 212430, Note_on_c, 1, 48, 64
3, 212448, Note_on_c, 1, 48, 0
3, 212460, Note_on_c, 1, 48, 72
3, 212480, Note_on_c, 1, 48, 0
3, 212487, Note_on_c, 1, 36, 0
3, 212490, Note_on_c, 1, 48, 60
3, 212510, Note_on_c, 1, 48, 0
3, 212520, Note_on_c, 1, 48, 62
3, 212528, Control_c, 1, 64, 0
3, 212539, Control_c, 1, 64, 127
3, 212547, Note_on_c, 1, 48, 0
3, 212550, Note_on_c, 1, 48, 62
3, 212572, Note_on_c, 1, 48, 0
3, 212580, Note_on_c, 1, 48, 72
3, 212597, Note_on_c, 1, 48, 0
3, 212610, Note_on_c, 1, 48, 62
3, 212637, Note_on_c, 1, 48, 0
3, 212640, Note_on_c, 1, 36, 85
3, 212643, Control_c, 1, 64, 0
3, 212659, Control_c, 1, 64, 127
3, 212670, Note_on_c, 1, 48, 76
3, 212692, Note_on_c, 1, 48, 0
3, 212700, Note_on_c, 1, 48, 64
3, 212720, Note_on_c, 1, 48, 0
3, 212730, Note_on_c, 1, 48, 62
3, 212746, Note_on_c, 1, 36, 0
3, 212754, Note_on_c, 1, 48, 0
3, 212760, Note_on_c, 1, 48, 72
3, 212782, Note_on_c, 1, 48, 0
3, 212790, Note_on_c, 1, 48, 64
3, 212810, Note_on_c, 1, 48, 0
3, 212820, Note_on_c, 1, 48, 64
3, 212835, Note_on_c, 1, 48, 0
3, 212850, Note_on_c, 1, 48, 72
3, 212877, Note_on_c, 1, 48, 0
3, 212880, Note_on_c, 1, 36, 76
3, 212882, Control_c, 1, 64, 0
3, 212898, Control_c, 1, 64, 127
3, 212910, Note_on_c, 1, 48, 80
3, 212930, Note_on_c, 1, 48, 0
3, 212937, Note_on_c, 1, 36, 0
3, 212940, Note_on_c, 1, 48, 72
3, 212968, Note_on_c, 1, 48, 0
3, 212970, Note_on_c, 1, 48, 76
3, 212976, Control_c, 1, 64, 0
3, 212986, Control_c, 1, 64, 127
3, 212995, Note_on_c, 1, 48, 0
3, 213000, Note_on_c, 1, 48, 89
3, 213022, Note_on_c, 1, 48, 0
3, 213030, Note_on_c, 1, 48, 62
3, 213049, Note_on_c, 1, 48, 0
3, 213060, Note_on_c, 1, 48, 93
3, 213081, Note_on_c, 1, 48, 0
3, 213090, Note_on_c, 1, 48, 68
3, 213104, Note_on_c, 1, 48, 0
3, 213120, Note_on_c, 1, 36, 85
3, 213120, Note_on_c, 1, 48, 93
3, 213121, Control_c, 1, 64, 0
3, 213136, Control_c, 1, 64, 127
3, 213149, Note_on_c, 1, 48, 0
3, 213150, Note_on_c, 1, 60, 89
3, 213164, Note_on_c, 1, 36, 0
3, 213177, Note_on_c, 1, 60, 0
3, 213180, Note_on_c, 1, 48, 85
3, 213180, Note_on_c, 1, 36, 76
3, 213180, Control_c, 1, 64, 0
3, 213191, Control_c, 1, 64, 127
3, 213210, Note_on_c, 1, 60, 85
3, 213211, Note_on_c, 1, 48, 0
3, 213221, Note_on_c, 1, 36, 0
3, 213239, Note_on_c, 1, 60, 0
3, 213240, Note_on_c, 1, 48, 76
3, 213240, Note_on_c, 1, 36, 68
3, 213241, Control_c, 1, 64, 0
3, 213252, Control_c, 1, 64, 127
3, 213270, Note_on_c, 1, 60, 80
3, 213271, Note_on_c, 1, 48, 0
3, 213286, Note_on_c, 1, 36, 0
3, 213299, Note_on_c, 1, 60, 0
3, 213300, Note_on_c, 1, 48, 80
3, 213300, Note_on_c, 1, 36, 76
3, 213300, Control_c, 1, 64, 0
3, 213310, Control_c, 1, 64, 127
3, 213330, Note_on_c, 1, 60, 89
3, 213332, Note_on_c, 1, 48, 0
3, 213343, Note_on_c, 1, 36, 0
3, 213360, Note_on_c, 1, 48, 80
3, 213360, Note_on_c, 1, 36, 72
3, 213361, Note_on_c, 1, 60, 0
3, 213361, Control_c, 1, 64, 0
3, 213372, Control_c, 1, 64, 127
3, 213390, Note_on_c, 1, 48, 0
3, 213390, Note_on_c, 1, 60, 89
3, 213398, Note_on_c, 1, 36, 0
3, 213417, Note_on_c, 1, 60, 0
3, 213417, Control_c, 1, 64, 0
3, 213420, Note_on_c, 1, 48, 72
3, 213420, Note_on_c, 1, 36, 76
3, 213428, Control_c, 1, 64, 127
3, 213450, Note_on_c, 1, 60, 76
3, 213451, Note_on_c, 1, 48, 0
3, 213461, Note_on_c, 1, 36, 0
3, 213478, Control_c, 1, 64, 0
3, 213479, Note_on_c, 1, 60, 0
3, 213480, Note_on_c, 1, 48, 89
3, 213480, Note_on_c, 1, 36, 89
3, 213489, Control_c, 1, 64, 127
3, 213550, Note_on_c, 1, 36, 0
3, 213550, Control_c, 1, 64, 0
3, 213551, Note_on_c, 1, 48, 0
3, 214320, Note_on_c, 1, 36, 59
3, 214328, Control_c, 1, 64, 127
3, 214350, Note_on_c, 1, 48, 49
3, 214367, Note_on_c, 1, 48, 0
3, 214380, Note_on_c, 1, 48, 62
3, 214395, Note_on_c, 1, 48, 0
3, 214410, Note_on_c, 1, 48, 60
3, 214425, Note_on_c, 1, 48, 0
3, 214439, Note_on_c, 1, 36, 0
3, 214440, Note_on_c, 1, 48, 62
3, 214448, Control_c, 1, 64, 0
3, 214459, Control_c, 1, 64, 127
3, 214466, Note_on_c, 1, 48, 0
3, 214470, Note_on_c, 1, 48, 62
3, 214488, Note_on_c, 1, 48, 0
3, 214500, Note_on_c, 1, 48, 68
3, 214517, Note_on_c, 1, 48, 0
3, 214530, Note_on_c, 1, 48, 76
3, 214558, Note_on_c, 1, 48, 0
3, 214560, Note_on_c, 1, 36, 68
3, 214566, Control_c, 1, 64, 0
3, 214582, Control_c, 1, 64, 127
3, 214590, Note_on_c, 1, 48, 56
3, 214606, Note_on_c, 1, 48, 0
3, 214613, Note_on_c, 1, 36, 0
3, 214620, Note_on_c, 1, 48, 76
3, 214640, Note_on_c, 1, 48, 0
3, 214650, Note_on_c, 1, 48, 76
3, 214670, Note_on_c, 1, 48, 0
3, 214680, Note_on_c, 1, 48, 64
3, 214698, Note_on_c, 1, 48, 0
3, 214710, Note_on_c, 1, 48, 76
3, 214726, Note_on_c, 1, 48, 0
3, 214740, Note_on_c, 1, 48, 76
3, 214756, Note_on_c, 1, 48, 0
3, 214770, Note_on_c, 1, 48, 80
3, 214800, Note_on_c, 1, 36, 72
3, 214801, Note_on_c, 1, 48, 0
3, 214804, Control_c, 1, 64, 0
3, 214819, Control_c, 1, 64, 127
3, 214830, Note_on_c, 1, 48, 93
3, 214839, Note_on_c, 1, 36, 0
3, 214850, Note_on_c, 1, 48, 0
3, 214860, Note_on_c, 1, 48, 85
3, 214878, Note_on_c, 1, 48, 0
3, 214890, Note_on_c, 1, 48, 76
3, 214909, Note_on_c, 1, 48, 0
3, 214920, Note_on_c, 1, 48, 72
3, 214939, Note_on_c, 1, 48, 0
3, 214950, Note_on_c, 1, 48, 85
3, 214971, Note_on_c, 1, 48, 0
3, 214980, Note_on_c, 1, 48, 85
3, 214983, Control_c, 1, 64, 0
3, 214991, Control_c, 1, 64, 127
3, 215000, Note_on_c, 1, 48, 0
3, 215010, Note_on_c, 1, 48, 85
3, 215027, Note_on_c, 1, 48, 0
3, 215040, Note_on_c, 1, 36, 80
3, 215040, Note_on_c, 1, 48, 85
3, 215042, Control_c, 1, 64, 0
3, 215059, Control_c, 1, 64, 127
3, 215070, Note_on_c, 1, 48, 0
3, 215070, Note_on_c, 1, 60, 89
3, 215082, Note_on_c, 1, 36, 0
3, 215098, Note_on_c, 1, 60, 0
3, 215099, Control_c, 1, 64, 0
3, 215100, Note_on_c, 1, 36, 80
3, 215100, Note_on_c, 1, 48, 89
3, 215111, Control_c, 1, 64, 127
3, 215130, Note_on_c, 1, 60, 85
3, 215132, Note_on_c, 1, 48, 0
3, 215139, Note_on_c, 1, 36, 0
3, 215160, Note_on_c, 1, 60, 0
3, 215160, Note_on_c, 1, 36, 89
3, 215160, Note_on_c, 1, 48, 93
3, 215162, Control_c, 1, 64, 0
3, 215174, Control_c, 1, 64, 127
3, 215189, Note_on_c, 1, 48, 0
3, 215190, Note_on_c, 1, 60, 89
3, 215196, Note_on_c, 1, 36, 0
3, 215219, Note_on_c, 1, 60, 0
3, 215219, Control_c, 1, 64, 0
3, 215220, Note_on_c, 1, 48, 102
3, 215220, Note_on_c, 1, 36, 89
3, 215230, Control_c, 1, 64, 127
3, 215250, Note_on_c, 1, 60, 89
3, 215251, Note_on_c, 1, 48, 0
3, 215259, Note_on_c, 1, 36, 0
3, 215278, Control_c, 1, 64, 0
3, 215279, Note_on_c, 1, 60, 0
3, 215280, Note_on_c, 1, 36, 85
3, 215280, Note_on_c, 1, 48, 102
3, 215289, Control_c, 1, 64, 127
3, 215310, Note_on_c, 1, 60, 85
3, 215311, Note_on_c, 1, 48, 0
3, 215318, Note_on_c, 1, 36, 0
3, 215336, Control_c, 1, 64, 0
3, 215337, Note_on_c, 1, 60, 0
3, 215340, Note_on_c, 1, 48, 93
3, 215340, Note_on_c, 1, 36, 76
3, 215348, Control_c, 1, 64, 127
3, 215370, Note_on_c, 1, 60, 93
3, 215371, Note_on_c, 1, 48, 0
3, 215379, Note_on_c, 1, 36, 0
3, 215394, Note_on_c, 1, 60, 0
3, 215395, Control_c, 1, 64, 0
3, 215400, Note_on_c, 1, 48, 102
3, 215400, Note_on_c, 1, 36, 85
3, 215407, Control_c, 1, 64, 127
3, 215472, Note_on_c, 1, 36, 0
3, 215472, Note_on_c, 1, 48, 0
3, 215496, Control_c, 1, 64, 0
3, 215520, Note_on_c, 1, 43, 76
3, 215520, Note_on_c, 1, 40, 89
3, 215520, Note_on_c, 1, 55, 98
3, 215520, Note_on_c, 1, 48, 85
3, 215550, Control_c, 1, 64, 127
3, 215605, Note_on_c, 1, 55, 0
3, 215610, Note_on_c, 1, 43, 0
3, 215610, Note_on_c, 1, 57, 89
3, 215611, Note_on_c, 1, 48, 0
3, 215612, Note_on_c, 1, 40, 0
3, 215621, Control_c, 1, 64, 0
3, 215625, Note_on_c, 1, 59, 76
3, 215626, Note_on_c, 1, 57, 0
3, 215640, Note_on_c, 1, 59, 0
3, 215640, Note_on_c, 1, 62, 93
3, 215655, Note_on_c, 1, 60, 72
3, 215656, Note_on_c, 1, 62, 0
3, 215670, Note_on_c, 1, 59, 62
3, 215676, Note_on_c, 1, 60, 0
3, 215685, Note_on_c, 1, 57, 80
3, 215689, Note_on_c, 1, 59, 0
3, 215692, Note_on_c, 1, 57, 0
3, 215700, Note_on_c, 1, 57, 89
3, 215715, Note_on_c, 1, 55, 80
3, 215716, Note_on_c, 1, 57, 0
3, 215730, Note_on_c, 1, 55, 0
3, 215730, Note_on_c, 1, 53, 85
3, 215740, Note_on_c, 1, 53, 0
3, 215744, Control_c, 1, 64, 127
3, 215745, Note_on_c, 1, 52, 62
3, 215751, Note_on_c, 1, 52, 0
3, 215760, Note_on_c, 1, 48, 62
3, 215760, Note_on_c, 1, 50, 93
3, 215760, Note_on_c, 1, 41, 64
3, 215761, Note_on_c, 1, 45, 62
3, 215762, Control_c, 1, 64, 0
3, 215800, Control_c, 1, 64, 127
3, 215818, Note_on_c, 1, 50, 0
3, 215820, Control_c, 1, 64, 0
3, 215820, Note_on_c, 1, 52, 89
3, 215835, Note_on_c, 1, 52, 0
3, 215835, Note_on_c, 1, 50, 89
3, 215850, Note_on_c, 1, 49, 89
3, 215852, Note_on_c, 1, 50, 0
3, 215865, Note_on_c, 1, 52, 80
3, 215866, Note_on_c, 1, 49, 0
3, 215873, Note_on_c, 1, 45, 0
3, 215873, Note_on_c, 1, 48, 0
3, 215874, Note_on_c, 1, 41, 0
3, 215875, Note_on_c, 1, 52, 0
3, 215880, Note_on_c, 1, 55, 93
3, 215895, Note_on_c, 1, 55, 0
3, 215895, Note_on_c, 1, 53, 80
3, 215910, Note_on_c, 1, 52, 76
3, 215913, Note_on_c, 1, 53, 0
3, 215925, Note_on_c, 1, 50, 76
3, 215928, Note_on_c, 1, 52, 0
3, 215931, Note_on_c, 1, 50, 0
3, 215940, Note_on_c, 1, 50, 93
3, 215955, Note_on_c, 1, 48, 68
3, 215958, Note_on_c, 1, 50, 0
3, 215970, Note_on_c, 1, 47, 68
3, 215971, Note_on_c, 1, 48, 0
3, 215983, Control_c, 1, 64, 127
3, 215985, Note_on_c, 1, 45, 89
3, 215986, Note_on_c, 1, 47, 0
3, 215993, Note_on_c, 1, 45, 0
3, 216000, Note_on_c, 1, 43, 89
3, 216000, Note_on_c, 1, 31, 80
3, 216006, Control_c, 1, 64, 0
3, 216011, Note_on_c, 1, 43, 0
3, 216032, Note_on_c, 1, 48, 80
3, 216041, Note_on_c, 1, 48, 0
3, 216047, Note_on_c, 1, 31, 0
3, 216063, Note_on_c, 1, 52, 89
3, 216071, Note_on_c, 1, 52, 0
3, 216090, Note_on_c, 1, 55, 80
3, 216099, Note_on_c, 1, 55, 0
3, 216120, Note_on_c, 1, 31, 76
3, 216120, Note_on_c, 1, 52, 76
3, 216120, Note_on_c, 1, 55, 80
3, 216143, Control_c, 1, 64, 127
3, 216149, Note_on_c, 1, 52, 0
3, 216150, Note_on_c, 1, 55, 0
3, 216150, Note_on_c, 1, 53, 72
3, 216150, Note_on_c, 1, 50, 62
3, 216164, Note_on_c, 1, 53, 0
3, 216165, Note_on_c, 1, 50, 0
3, 216177, Note_on_c, 1, 31, 0
3, 216180, Note_on_c, 1, 48, 76
3, 216180, Note_on_c, 1, 52, 89
3, 216183, Control_c, 1, 64, 0
3, 216188, Note_on_c, 1, 48, 0
3, 216191, Note_on_c, 1, 52, 0
3, 216210, Note_on_c, 1, 50, 76
3, 216210, Note_on_c, 1, 47, 72
3, 216218, Note_on_c, 1, 47, 0
3, 216218, Note_on_c, 1, 50, 0
3, 216240, Note_on_c, 1, 48, 89
3, 216263, Control_c, 1, 64, 127
3, 216345, Note_on_c, 1, 48, 0
3, 216353, Control_c, 1, 64, 0
3, 216720, Note_on_c, 1, 60, 89
3, 216720, Note_on_c, 1, 31, 85
3, 216720, Note_on_c, 1, 55, 85
3, 216720, Note_on_c, 1, 52, 89
3, 216720, Note_on_c, 1, 43, 72
3, 216780, Control_c, 1, 64, 127
3, 216790, Control_c, 1, 64, 0
3, 216791, Control_c, 1, 64, 127
3, 216841, Control_c, 1, 64, 0
3, 216843, Note_on_c, 1, 43, 0
3, 216843, Note_on_c, 1, 52, 0
3, 216845, Note_on_c, 1, 31, 0
3, 216846, Note_on_c, 1, 55, 0
3, 216847, Note_on_c, 1, 60, 0
3, 217200, Note_on_c, 1, 40, 76
3, 217200, Note_on_c, 1, 52, 93
3, 217259, Control_c, 1, 64, 127
3, 217290, Note_on_c, 1, 41, 68
3, 217290, Control_c, 1, 64, 0
3, 217290, Note_on_c, 1, 53, 76
3, 217297, Note_on_c, 1, 52, 0
3, 217300, Note_on_c, 1, 40, 0
3, 217303, Note_on_c, 1, 53, 0
3, 217304, Note_on_c, 1, 41, 0
3, 217305, Note_on_c, 1, 43, 75
3, 217305, Note_on_c, 1, 55, 75
3, 217319, Note_on_c, 1, 55, 0
3, 217319, Note_on_c, 1, 43, 0
3, 217321, Note_on_c, 1, 36, 89
3, 217323, Note_on_c, 1, 48, 62
3, 217354, Control_c, 1, 64, 127
3, 217362, Note_on_c, 1, 36, 0
3, 217369, Note_on_c, 1, 48, 0
3, 217382, Note_on_c, 1, 36, 89
3, 217384, Note_on_c, 1, 48, 76
3, 217385, Control_c, 1, 64, 0
3, 217408, Control_c, 1, 64, 127
3, 217426, Note_on_c, 1, 36, 0
3, 217436, Note_on_c, 1, 48, 0
3, 217440, Note_on_c, 1, 45, 76
3, 217440, Note_on_c, 1, 57, 93
3, 217443, Control_c, 1, 64, 0
3, 217470, Control_c, 1, 64, 127
3, 217486, Note_on_c, 1, 45, 0
3, 217488, Note_on_c, 1, 57, 0
3, 217500, Note_on_c, 1, 45, 76
3, 217500, Note_on_c, 1, 57, 85
3, 217501, Control_c, 1, 64, 0
3, 217526, Control_c, 1, 64, 127
3, 217545, Note_on_c, 1, 45, 0
3, 217549, Note_on_c, 1, 57, 0
3, 217560, Note_on_c, 1, 60, 80
3, 217561, Note_on_c, 1, 48, 72
3, 217563, Control_c, 1, 64, 0
3, 217606, Control_c, 1, 64, 127
3, 217628, Note_on_c, 1, 48, 0
3, 217630, Note_on_c, 1, 60, 0
3, 217635, Control_c, 1, 64, 0
3, 217920, Note_on_c, 1, 52, 89
3, 217920, Note_on_c, 1, 40, 68
3, 217988, Control_c, 1, 64, 127
3, 218010, Note_on_c, 1, 41, 72
3, 218010, Note_on_c, 1, 53, 80
3, 218014, Note_on_c, 1, 40, 0
3, 218016, Note_on_c, 1, 52, 0
3, 218020, Control_c, 1, 64, 0
3, 218024, Note_on_c, 1, 53, 0
3, 218025, Note_on_c, 1, 55, 72
3, 218025, Note_on_c, 1, 43, 56
3, 218027, Note_on_c, 1, 41, 0
3, 218040, Note_on_c, 1, 48, 68
3, 218042, Note_on_c, 1, 55, 0
3, 218043, Note_on_c, 1, 43, 0
3, 218043, Note_on_c, 1, 36, 89
3, 218078, Control_c, 1, 64, 127
3, 218088, Note_on_c, 1, 48, 0
3, 218091, Note_on_c, 1, 36, 0
3, 218100, Note_on_c, 1, 48, 72
3, 218100, Note_on_c, 1, 36, 80
3, 218101, Control_c, 1, 64, 0
3, 218123, Control_c, 1, 64, 127
3, 218155, Control_c, 1, 64, 0
3, 218157, Note_on_c, 1, 36, 0
3, 218159, Note_on_c, 1, 48, 0
3, 218160, Note_on_c, 1, 56, 80
3, 218160, Note_on_c, 1, 44, 76
3, 218177, Note_on_c, 1, 56, 0
3, 218178, Note_on_c, 1, 44, 0
3, 218220, Note_on_c, 1, 56, 72
3, 218220, Note_on_c, 1, 44, 72
3, 218243, Control_c, 1, 64, 127
3, 218280, Note_on_c, 1, 60, 89
3, 218280, Note_on_c, 1, 48, 64
3, 218283, Note_on_c, 1, 44, 0
3, 218283, Note_on_c, 1, 56, 0
3, 218285, Control_c, 1, 64, 0
3, 218346, Note_on_c, 1, 48, 0
3, 218347, Note_on_c, 1, 60, 0
3, 218580, Note_on_c, 1, 44, 98
3, 218580, Note_on_c, 1, 56, 89
3, 218614, Control_c, 1, 64, 127
3, 218640, Note_on_c, 1, 45, 85
3, 218640, Note_on_c, 1, 57, 93
3, 218641, Control_c, 1, 64, 0
3, 218643, Note_on_c, 1, 56, 0
3, 218645, Note_on_c, 1, 44, 0
3, 218664, Control_c, 1, 64, 127
3, 218680, Note_on_c, 1, 45, 0
3, 218682, Note_on_c, 1, 57, 0
3, 218695, Control_c, 1, 64, 0
3, 218700, Note_on_c, 1, 45, 93
3, 218700, Note_on_c, 1, 57, 102
3, 218730, Control_c, 1, 64, 127
3, 218760, Note_on_c, 1, 48, 85
3, 218760, Note_on_c, 1, 60, 93
3, 218761, Control_c, 1, 64, 0
3, 218763, Note_on_c, 1, 57, 0
3, 218763, Note_on_c, 1, 45, 0
3, 218891, Control_c, 1, 64, 127
3, 218933, Note_on_c, 1, 48, 0
3, 218933, Note_on_c, 1, 60, 0
3, 218936, Control_c, 1, 64, 0
3, 218940, Note_on_c, 1, 53, 85
3, 218940, Note_on_c, 1, 41, 85
3, 218971, Control_c, 1, 64, 127
3, 218998, Control_c, 1, 64, 0
3, 219000, Note_on_c, 1, 41, 0
3, 219000, Note_on_c, 1, 43, 72
3, 219000, Note_on_c, 1, 55, 89
3, 219003, Note_on_c, 1, 53, 0
3, 219027, Control_c, 1, 64, 127
3, 219052, Note_on_c, 1, 55, 0
3, 219056, Control_c, 1, 64, 0
3, 219059, Note_on_c, 1, 43, 0
3, 219060, Note_on_c, 1, 31, 89
3, 219060, Note_on_c, 1, 55, 93
3, 219090, Control_c, 1, 64, 127
3, 219113, Note_on_c, 1, 55, 0
3, 219116, Note_on_c, 1, 31, 0
3, 219116, Control_c, 1, 64, 0
3, 219120, Note_on_c, 1, 55, 85
3, 219120, Note_on_c, 1, 36, 89
3, 219155, Control_c, 1, 64, 127
3, 219178, Control_c, 1, 64, 0
3, 219182, Note_on_c, 1, 36, 0
3, 219183, Note_on_c, 1, 55, 0
3, 219360, Note_on_c, 1, 43, 76
3, 219360, Note_on_c, 1, 55, 68
3, 219360, Note_on_c, 1, 43, 68
3, 219368, Control_c, 1, 64, 127
3, 219384, Note_on_c, 1, 43, 0
3, 219389, Note_on_c, 1, 55, 0
3, 219390, Note_on_c, 1, 65, 64
3, 219399, Note_on_c, 1, 43, 0
3, 219419, Note_on_c, 1, 65, 0
3, 219420, Note_on_c, 1, 62, 72
3, 219427, Control_c, 1, 64, 0
3, 219449, Note_on_c, 1, 62, 0
3, 219450, Note_on_c, 1, 65, 72
3, 219451, Control_c, 1, 64, 127
3, 219479, Note_on_c, 1, 65, 0
3, 219479, Control_c, 1, 64, 0
3, 219480, Note_on_c, 1, 55, 72
3, 219480, Note_on_c, 1, 48, 80
3, 219507, Control_c, 1, 64, 127
3, 219510, Note_on_c, 1, 64, 76
3, 219512, Note_on_c, 1, 55, 0
3, 219516, Note_on_c, 1, 48, 0
3, 219538, Note_on_c, 1, 64, 0
3, 219539, Control_c, 1, 64, 0
3, 219540, Note_on_c, 1, 60, 72
3, 219566, Control_c, 1, 64, 127
3, 219569, Note_on_c, 1, 60, 0
3, 219570, Note_on_c, 1, 64, 62
3, 219597, Control_c, 1, 64, 0
3, 219600, Note_on_c, 1, 64, 0
3, 219600, Note_on_c, 1, 55, 76
3, 219600, Note_on_c, 1, 43, 76
3, 219629, Control_c, 1, 64, 127
3, 219630, Note_on_c, 1, 65, 68
3, 219633, Note_on_c, 1, 55, 0
3, 219641, Note_on_c, 1, 43, 0
3, 219657, Note_on_c, 1, 65, 0
3, 219660, Note_on_c, 1, 62, 72
3, 219661, Control_c, 1, 64, 0
3, 219687, Note_on_c, 1, 62, 0
3, 219690, Note_on_c, 1, 65, 85
3, 219695, Control_c, 1, 64, 127
3, 219698, Note_on_c, 1, 65, 0
3, 219714, Control_c, 1, 64, 0
3, 219720, Note_on_c, 1, 45, 80
3, 219720, Note_on_c, 1, 52, 80
3, 219750, Note_on_c, 1, 64, 76
3, 219751, Note_on_c, 1, 52, 0
3, 219753, Control_c, 1, 64, 127
3, 219768, Note_on_c, 1, 45, 0
3, 219776, Note_on_c, 1, 64, 0
3, 219779, Control_c, 1, 64, 0
3, 219780, Note_on_c, 1, 60, 76
3, 219806, Control_c, 1, 64, 127
3, 219809, Note_on_c, 1, 60, 0
3, 219810, Note_on_c, 1, 64, 76
3, 219819, Note_on_c, 1, 64, 0
3, 219838, Control_c, 1, 64, 0
3, 219840, Note_on_c, 1, 57, 76
3, 219840, Note_on_c, 1, 41, 76
3, 219866, Control_c, 1, 64, 127
3, 219870, Note_on_c, 1, 69, 80
3, 219871, Note_on_c, 1, 57, 0
3, 219889, Note_on_c, 1, 69, 0
3, 219891, Note_on_c, 1, 41, 0
3, 219900, Control_c, 1, 64, 0
3, 219900, Note_on_c, 1, 60, 36
3, 219923, Control_c, 1, 64, 127
3, 219928, Note_on_c, 1, 60, 0
3, 219930, Note_on_c, 1, 69, 76
3, 219954, Control_c, 1, 64, 0
3, 219957, Note_on_c, 1, 69, 0
3, 219960, Note_on_c, 1, 43, 72
3, 219960, Note_on_c, 1, 59, 60
3, 219990, Note_on_c, 1, 65, 68
3, 219992, Note_on_c, 1, 59, 0
3, 219992, Control_c, 1, 64, 127
3, 220015, Note_on_c, 1, 65, 0
3, 220019, Note_on_c, 1, 43, 0
3, 220019, Control_c, 1, 64, 0
3, 220020, Note_on_c, 1, 62, 72
3, 220046, Control_c, 1, 64, 127
3, 220050, Note_on_c, 1, 62, 0
3, 220050, Note_on_c, 1, 65, 76
3, 220073, Note_on_c, 1, 65, 0
3, 220076, Control_c, 1, 64, 0
3, 220080, Note_on_c, 1, 36, 68
3, 220080, Note_on_c, 1, 55, 68
3, 220105, Control_c, 1, 64, 127
3, 220110, Note_on_c, 1, 55, 0
3, 220110, Note_on_c, 1, 64, 68
3, 220137, Note_on_c, 1, 64, 0
3, 220137, Note_on_c, 1, 36, 0
3, 220137, Control_c, 1, 64, 0
3, 220140, Note_on_c, 1, 60, 64
3, 220170, Note_on_c, 1, 60, 0
3, 220170, Note_on_c, 1, 64, 76
3, 220179, Control_c, 1, 64, 127
3, 220194, Control_c, 1, 64, 0
3, 220200, Note_on_c, 1, 64, 0
3, 220200, Note_on_c, 1, 55, 72
3, 220229, Note_on_c, 1, 55, 0
3, 220230, Note_on_c, 1, 64, 76
3, 220258, Note_on_c, 1, 64, 0
3, 220260, Note_on_c, 1, 60, 80
3, 220280, Control_c, 1, 64, 127
3, 220288, Note_on_c, 1, 60, 0
3, 220290, Note_on_c, 1, 64, 72
3, 220309, Control_c, 1, 64, 0
3, 220320, Note_on_c, 1, 64, 0
3, 220320, Note_on_c, 1, 43, 72
3, 220320, Note_on_c, 1, 55, 76
3, 220336, Control_c, 1, 64, 127
3, 220350, Note_on_c, 1, 65, 72
3, 220352, Note_on_c, 1, 55, 0
3, 220378, Note_on_c, 1, 65, 0
3, 220379, Control_c, 1, 64, 0
3, 220380, Note_on_c, 1, 62, 72
3, 220386, Note_on_c, 1, 43, 0
3, 220408, Note_on_c, 1, 62, 0
3, 220410, Note_on_c, 1, 65, 56
3, 220416, Control_c, 1, 64, 127
3, 220437, Note_on_c, 1, 65, 0
3, 220437, Control_c, 1, 64, 0
3, 220440, Note_on_c, 1, 55, 80
3, 220440, Note_on_c, 1, 48, 68
3, 220470, Control_c, 1, 64, 127
3, 220470, Note_on_c, 1, 64, 62
3, 220472, Note_on_c, 1, 55, 0
3, 220497, Note_on_c, 1, 48, 0
3, 220499, Note_on_c, 1, 64, 0
3, 220499, Control_c, 1, 64, 0
3, 220500, Note_on_c, 1, 60, 57
3, 220527, Control_c, 1, 64, 127
3, 220528, Note_on_c, 1, 60, 0
3, 220530, Note_on_c, 1, 64, 55
3, 220554, Control_c, 1, 64, 0
3, 220558, Note_on_c, 1, 64, 0
3, 220560, Note_on_c, 1, 55, 76
3, 220560, Note_on_c, 1, 43, 76
3, 220581, Control_c, 1, 64, 127
3, 220590, Note_on_c, 1, 65, 72
3, 220591, Note_on_c, 1, 55, 0
3, 220593, Note_on_c, 1, 43, 0
3, 220613, Control_c, 1, 64, 0
3, 220616, Note_on_c, 1, 65, 0
3, 220620, Note_on_c, 1, 62, 62
3, 220644, Note_on_c, 1, 62, 0
3, 220645, Control_c, 1, 64, 127
3, 220650, Note_on_c, 1, 64, 80
3, 220658, Note_on_c, 1, 64, 0
3, 220675, Control_c, 1, 64, 0
3, 220680, Note_on_c, 1, 52, 76
3, 220680, Note_on_c, 1, 45, 76
3, 220708, Control_c, 1, 64, 127
3, 220710, Note_on_c, 1, 64, 68
3, 220712, Note_on_c, 1, 52, 0
3, 220717, Note_on_c, 1, 45, 0
3, 220732, Control_c, 1, 64, 0
3, 220735, Note_on_c, 1, 64, 0
3, 220740, Note_on_c, 1, 60, 62
3, 220761, Control_c, 1, 64, 127
3, 220767, Note_on_c, 1, 60, 0
3, 220770, Note_on_c, 1, 64, 76
3, 220778, Note_on_c, 1, 64, 0
3, 220789, Control_c, 1, 64, 0
3, 220800, Note_on_c, 1, 41, 89
3, 220800, Note_on_c, 1, 57, 93
3, 220826, Note_on_c, 1, 57, 0
3, 220830, Note_on_c, 1, 69, 76
3, 220836, Control_c, 1, 64, 127
3, 220855, Control_c, 1, 64, 0
3, 220857, Note_on_c, 1, 69, 0
3, 220860, Note_on_c, 1, 60, 62
3, 220861, Note_on_c, 1, 41, 0
3, 220889, Note_on_c, 1, 60, 0
3, 220890, Note_on_c, 1, 69, 85
3, 220890, Control_c, 1, 64, 127
3, 220913, Control_c, 1, 64, 0
3, 220915, Note_on_c, 1, 69, 0
3, 220920, Note_on_c, 1, 59, 89
3, 220920, Note_on_c, 1, 43, 76
3, 220950, Note_on_c, 1, 59, 0
3, 220950, Note_on_c, 1, 65, 76
3, 220964, Control_c, 1, 64, 127
3, 220978, Note_on_c, 1, 65, 0
3, 220978, Control_c, 1, 64, 0
3, 220980, Note_on_c, 1, 62, 76
3, 220988, Note_on_c, 1, 43, 0
3, 221003, Control_c, 1, 64, 127
3, 221007, Note_on_c, 1, 62, 0
3, 221010, Note_on_c, 1, 65, 76
3, 221033, Control_c, 1, 64, 0
3, 221034, Note_on_c, 1, 65, 0
3, 221040, Note_on_c, 1, 36, 93
3, 221040, Note_on_c, 1, 60, 76
3, 221059, Note_on_c, 1, 60, 0
3, 221060, Note_on_c, 1, 64, 64
3, 221079, Note_on_c, 1, 64, 0
3, 221080, Note_on_c, 1, 55, 72
3, 221099, Note_on_c, 1, 55, 0
3, 221100, Note_on_c, 1, 62, 85
3, 221102, Control_c, 1, 64, 127
3, 221119, Note_on_c, 1, 62, 0
3, 221120, Note_on_c, 1, 65, 80
3, 221139, Note_on_c, 1, 65, 0
3, 221140, Note_on_c, 1, 55, 72
3, 221155, Control_c, 1, 64, 0
3, 221159, Note_on_c, 1, 55, 0
3, 221160, Note_on_c, 1, 64, 76
3, 221167, Note_on_c, 1, 36, 0
3, 221179, Note_on_c, 1, 64, 0
3, 221180, Note_on_c, 1, 67, 80
3, 221199, Note_on_c, 1, 67, 0
3, 221200, Note_on_c, 1, 55, 62
3, 221219, Note_on_c, 1, 55, 0
3, 221220, Note_on_c, 1, 65, 85
3, 221239, Note_on_c, 1, 65, 0
3, 221240, Note_on_c, 1, 69, 43
3, 221259, Note_on_c, 1, 69, 0
3, 221260, Note_on_c, 1, 55, 45
3, 221279, Note_on_c, 1, 55, 0
3, 221280, Note_on_c, 1, 43, 89
3, 221280, Note_on_c, 1, 62, 85
3, 221299, Note_on_c, 1, 62, 0
3, 221300, Note_on_c, 1, 65, 62
3, 221301, Control_c, 1, 64, 127
3, 221319, Note_on_c, 1, 65, 0
3, 221320, Note_on_c, 1, 55, 55
3, 221339, Note_on_c, 1, 55, 0
3, 221340, Note_on_c, 1, 60, 85
3, 221359, Note_on_c, 1, 60, 0
3, 221360, Note_on_c, 1, 64, 51
3, 221379, Note_on_c, 1, 64, 0
3, 221380, Note_on_c, 1, 55, 56
3, 221399, Note_on_c, 1, 55, 0
3, 221400, Note_on_c, 1, 59, 93
3, 221404, Control_c, 1, 64, 0
3, 221410, Note_on_c, 1, 43, 0
3, 221419, Note_on_c, 1, 59, 0
3, 221420, Note_on_c, 1, 62, 59
3, 221439, Note_on_c, 1, 62, 0
3, 221440, Note_on_c, 1, 55, 44
3, 221459, Note_on_c, 1, 55, 0
3, 221460, Note_on_c, 1, 62, 89
3, 221479, Note_on_c, 1, 62, 0
3, 221480, Note_on_c, 1, 65, 68
3, 221499, Note_on_c, 1, 65, 0
3, 221500, Note_on_c, 1, 55, 49
3, 221519, Note_on_c, 1, 55, 0
3, 221520, Note_on_c, 1, 36, 89
3, 221520, Note_on_c, 1, 48, 76
3, 221520, Note_on_c, 1, 60, 80
3, 221539, Note_on_c, 1, 60, 0
3, 221540, Note_on_c, 1, 64, 62
3, 221549, Control_c, 1, 64, 127
3, 221559, Note_on_c, 1, 64, 0
3, 221560, Note_on_c, 1, 55, 56
3, 221579, Note_on_c, 1, 55, 0
3, 221580, Note_on_c, 1, 62, 89
3, 221599, Note_on_c, 1, 62, 0
3, 221600, Note_on_c, 1, 65, 30
3, 221619, Note_on_c, 1, 65, 0
3, 221620, Note_on_c, 1, 55, 56
3, 221639, Note_on_c, 1, 55, 0
3, 221640, Note_on_c, 1, 64, 80
3, 221646, Control_c, 1, 64, 0
3, 221649, Note_on_c, 1, 48, 0
3, 221652, Note_on_c, 1, 36, 0
3, 221659, Note_on_c, 1, 64, 0
3, 221660, Note_on_c, 1, 67, 47
3, 221679, Note_on_c, 1, 67, 0
3, 221680, Note_on_c, 1, 55, 53
3, 221699, Note_on_c, 1, 55, 0
3, 221700, Note_on_c, 1, 65, 85
3, 221719, Note_on_c, 1, 65, 0
3, 221720, Note_on_c, 1, 69, 47
3, 221739, Note_on_c, 1, 69, 0
3, 221740, Note_on_c, 1, 55, 59
3, 221759, Note_on_c, 1, 55, 0
3, 221760, Note_on_c, 1, 31, 68
3, 221760, Note_on_c, 1, 43, 64
3, 221760, Note_on_c, 1, 62, 85
3, 221779, Note_on_c, 1, 62, 0
3, 221780, Note_on_c, 1, 65, 46
3, 221792, Control_c, 1, 64, 127
3, 221799, Note_on_c, 1, 65, 0
3, 221800, Note_on_c, 1, 55, 55
3, 221819, Note_on_c, 1, 55, 0
3, 221820, Note_on_c, 1, 60, 85
3, 221839, Note_on_c, 1, 60, 0
3, 221840, Note_on_c, 1, 64, 55
3, 221859, Note_on_c, 1, 64, 0
3, 221860, Note_on_c, 1, 55, 56
3, 221879, Note_on_c, 1, 55, 0
3, 221880, Note_on_c, 1, 59, 85
3, 221886, Note_on_c, 1, 43, 0
3, 221887, Control_c, 1, 64, 0
3, 221889, Note_on_c, 1, 31, 0
3, 221899, Note_on_c, 1, 59, 0
3, 221900, Note_on_c, 1, 62, 56
3, 221919, Note_on_c, 1, 62, 0
3, 221920, Note_on_c, 1, 55, 43
3, 221939, Note_on_c, 1, 55, 0
3, 221940, Note_on_c, 1, 62, 93
3, 221959, Note_on_c, 1, 62, 0
3, 221960, Note_on_c, 1, 65, 72
3, 221979, Note_on_c, 1, 65, 0
3, 221980, Note_on_c, 1, 55, 56
3, 221999, Note_on_c, 1, 55, 0
3, 222000, Note_on_c, 1, 36, 76
3, 222000, Note_on_c, 1, 48, 76
3, 222000, Note_on_c, 1, 60, 72
3, 222019, Note_on_c, 1, 60, 0
3, 222020, Note_on_c, 1, 64, 64
3, 222026, Control_c, 1, 64, 127
3, 222039, Note_on_c, 1, 64, 0
3, 222040, Note_on_c, 1, 60, 62
3, 222059, Note_on_c, 1, 60, 0
3, 222060, Note_on_c, 1, 55, 52
3, 222079, Note_on_c, 1, 55, 0
3, 222080, Note_on_c, 1, 60, 57
3, 222099, Note_on_c, 1, 60, 0
3, 222100, Note_on_c, 1, 55, 48
3, 222119, Note_on_c, 1, 55, 0
3, 222120, Note_on_c, 1, 52, 50
3, 222123, Control_c, 1, 64, 0
3, 222127, Note_on_c, 1, 48, 0
3, 222128, Note_on_c, 1, 36, 0
3, 222139, Note_on_c, 1, 52, 0
3, 222140, Note_on_c, 1, 55, 62
3, 222159, Note_on_c, 1, 55, 0
3, 222160, Note_on_c, 1, 60, 60
3, 222179, Note_on_c, 1, 60, 0
3, 222180, Note_on_c, 1, 31, 85
3, 222180, Note_on_c, 1, 43, 68
3, 222180, Note_on_c, 1, 53, 62
3, 222192, Control_c, 1, 64, 127
3, 222199, Note_on_c, 1, 53, 0
3, 222200, Note_on_c, 1, 55, 60
3, 222206, Note_on_c, 1, 31, 0
3, 222212, Note_on_c, 1, 43, 0
3, 222219, Note_on_c, 1, 55, 0
3, 222220, Note_on_c, 1, 62, 62
3, 222239, Note_on_c, 1, 62, 0
3, 222240, Note_on_c, 1, 48, 57
3, 222240, Note_on_c, 1, 36, 68
3, 222240, Note_on_c, 1, 52, 62
3, 222243, Control_c, 1, 64, 0
3, 222259, Note_on_c, 1, 52, 0
3, 222260, Note_on_c, 1, 55, 62
3, 222279, Note_on_c, 1, 55, 0
3, 222280, Control_c, 1, 64, 127
3, 222280, Note_on_c, 1, 60, 56
3, 222299, Note_on_c, 1, 60, 0
3, 222300, Note_on_c, 1, 52, 57
3, 222319, Note_on_c, 1, 52, 0
3, 222320, Note_on_c, 1, 55, 56
3, 222339, Note_on_c, 1, 55, 0
3, 222340, Note_on_c, 1, 60, 62
3, 222359, Note_on_c, 1, 60, 0
3, 222360, Note_on_c, 1, 52, 53
3, 222366, Note_on_c, 1, 48, 0
3, 222366, Control_c, 1, 64, 0
3, 222370, Note_on_c, 1, 36, 0
3, 222379, Note_on_c, 1, 52, 0
3, 222380, Note_on_c, 1, 55, 56
3, 222399, Note_on_c, 1, 55, 0
3, 222400, Note_on_c, 1, 60, 59
3, 222419, Note_on_c, 1, 60, 0
3, 222420, Note_on_c, 1, 31, 72
3, 222420, Note_on_c, 1, 43, 57
3, 222420, Note_on_c, 1, 53, 53
3, 222436, Control_c, 1, 64, 127
3, 222439, Note_on_c, 1, 53, 0
3, 222440, Note_on_c, 1, 55, 60
3, 222446, Note_on_c, 1, 31, 0
3, 222450, Note_on_c, 1, 43, 0
3, 222459, Note_on_c, 1, 55, 0
3, 222460, Note_on_c, 1, 62, 62
3, 222474, Control_c, 1, 64, 0
3, 222479, Note_on_c, 1, 62, 0
3, 222480, Note_on_c, 1, 48, 65
3, 222480, Note_on_c, 1, 36, 71
3, 222507, Control_c, 1, 64, 127
3, 222541, Note_on_c, 1, 36, 0
3, 222541, Control_c, 1, 64, 0
3, 222544, Note_on_c, 1, 48, 0
3, 222600, Note_on_c, 1, 36, 102
3, 222600, Note_on_c, 1, 48, 102
3, 222614, Control_c, 1, 64, 127
3, 222664, Control_c, 1, 64, 0
3, 222676, Note_on_c, 1, 36, 0
3, 222677, Note_on_c, 1, 48, 0
3, 222720, Note_on_c, 1, 48, 106
3, 222720, Note_on_c, 1, 36, 117
3, 222741, Control_c, 1, 64, 127
3, 222783, Control_c, 1, 64, 0
3, 222788, Note_on_c, 1, 36, 0
3, 222788, Note_on_c, 1, 48, 0
3, 222960, Control_c, 1, 121, 0
3, 222960, End_track
4, 0, Start_track
4, 0, MIDI_port, 0
4, 0, End_track
5, 0, Start_track
5, 0, MIDI_port, 0
5, 0, Title_t, "Title: Sonate in Cmaj (K. 521, 1787)"
5, 0, End_track
6, 0, Start_track
6, 0, MIDI_port, 0
6, 0, Title_t, "Composer: W. A. Mozart"
6, 0, End_track
7, 0, Start_track
7, 0, MIDI_port, 0
7, 0, Title_t, "Sequence Faren Raborn, Copyright 1996"
7, 0, End_track
8, 0, Start_track
8, 0, MIDI_port, 0
8, 0, Title_t, "Email: raborn@dtx.net"
8, 0, End_track
0, 0, End_of_file
