0, 0, Header, 1, 4, 240
1, 0, Start_track
1, 0, Title_t, "untitled"
1, 0, Time_signature, 2, 2, 24, 8
1, 0, Key_signature, 0, "major"
1, 0, Tempo, 476190
1, 8160, Marker_t, "B section"
1, 23520, Marker_t, "C Octaves"
1, 31200, Marker_t, "D Section"
1, 38880, Marker_t, "D'"
1, 54240, Marker_t, "C Octaves"
1, 61920, Marker_t, "A Section"
1, 69600, Marker_t, "B section"
1, 84960, Marker_t, "C Section (16ths)"
1, 92632, Marker_t, "Coda"
1, 92632, End_track
2, 0, Start_track
2, 0, Title_t, "Piano"
2, 0, Program_c, 0, 0
2, 0, Control_c, 0, 7, 127
2, 0, Control_c, 0, 10, 48
2, 0, Control_c, 0, 91, 127
2, 0, Control_c, 0, 93, 0
2, 0, Control_c, 0, 121, 0
2, 240, Note_on_c, 0, 71, 87
2, 300, Note_on_c, 0, 71, 0
2, 300, Note_on_c, 0, 69, 87
2, 360, Note_on_c, 0, 69, 0
2, 360, Note_on_c, 0, 68, 87
2, 420, Note_on_c, 0, 68, 0
2, 420, Note_on_c, 0, 69, 87
2, 480, Note_on_c, 0, 69, 0
2, 480, Note_on_c, 0, 72, 87
2, 600, Note_on_c, 0, 72, 0
2, 720, Note_on_c, 0, 74, 87
2, 780, Note_on_c, 0, 74, 0
2, 780, Note_on_c, 0, 72, 87
2, 840, Note_on_c, 0, 72, 0
2, 840, Note_on_c, 0, 71, 87
2, 900, Note_on_c, 0, 71, 0
2, 900, Note_on_c, 0, 72, 87
2, 960, Note_on_c, 0, 72, 0
2, 960, Note_on_c, 0, 76, 87
2, 1080, Note_on_c, 0, 76, 0
2, 1200, Note_on_c, 0, 77, 87
2, 1260, Note_on_c, 0, 77, 0
2, 1260, Note_on_c, 0, 76, 87
2, 1320, Note_on_c, 0, 76, 0
2, 1320, Note_on_c, 0, 75, 87
2, 1380, Note_on_c, 0, 75, 0
2, 1380, Note_on_c, 0, 76, 87
2, 1440, Note_on_c, 0, 76, 0
2, 1440, Note_on_c, 0, 83, 87
2, 1500, Note_on_c, 0, 83, 0
2, 1500, Note_on_c, 0, 81, 87
2, 1560, Note_on_c, 0, 81, 0
2, 1560, Note_on_c, 0, 80, 87
2, 1620, Note_on_c, 0, 80, 0
2, 1620, Note_on_c, 0, 81, 87
2, 1680, Note_on_c, 0, 81, 0
2, 1680, Note_on_c, 0, 83, 87
2, 1740, Note_on_c, 0, 83, 0
2, 1740, Note_on_c, 0, 81, 87
2, 1800, Note_on_c, 0, 81, 0
2, 1800, Note_on_c, 0, 80, 87
2, 1860, Note_on_c, 0, 80, 0
2, 1860, Note_on_c, 0, 81, 87
2, 1920, Note_on_c, 0, 81, 0
2, 1920, Note_on_c, 0, 84, 87
2, 2160, Note_on_c, 0, 84, 0
2, 2160, Note_on_c, 0, 81, 87
2, 2220, Note_on_c, 0, 81, 0
2, 2280, Note_on_c, 0, 84, 87
2, 2340, Note_on_c, 0, 84, 0
2, 2400, Note_on_c, 0, 79, 110
2, 2420, Note_on_c, 0, 79, 0
2, 2420, Note_on_c, 0, 81, 110
2, 2440, Note_on_c, 0, 81, 0
2, 2440, Note_on_c, 0, 83, 87
2, 2480, Note_on_c, 0, 83, 0
2, 2520, Note_on_c, 0, 81, 87
2, 2520, Note_on_c, 0, 78, 87
2, 2580, Note_on_c, 0, 78, 0
2, 2580, Note_on_c, 0, 81, 0
2, 2640, Note_on_c, 0, 79, 87
2, 2640, Note_on_c, 0, 76, 87
2, 2700, Note_on_c, 0, 76, 0
2, 2700, Note_on_c, 0, 79, 0
2, 2760, Note_on_c, 0, 78, 87
2, 2760, Note_on_c, 0, 81, 87
2, 2820, Note_on_c, 0, 81, 0
2, 2820, Note_on_c, 0, 78, 0
2, 2880, Note_on_c, 0, 79, 110
2, 2900, Note_on_c, 0, 79, 0
2, 2900, Note_on_c, 0, 81, 110
2, 2920, Note_on_c, 0, 81, 0
2, 2920, Note_on_c, 0, 83, 87
2, 2960, Note_on_c, 0, 83, 0
2, 3000, Note_on_c, 0, 81, 87
2, 3000, Note_on_c, 0, 78, 87
2, 3060, Note_on_c, 0, 78, 0
2, 3060, Note_on_c, 0, 81, 0
2, 3120, Note_on_c, 0, 79, 87
2, 3120, Note_on_c, 0, 76, 87
2, 3180, Note_on_c, 0, 76, 0
2, 3180, Note_on_c, 0, 79, 0
2, 3240, Note_on_c, 0, 78, 87
2, 3240, Note_on_c, 0, 81, 87
2, 3300, Note_on_c, 0, 81, 0
2, 3300, Note_on_c, 0, 78, 0
2, 3360, Note_on_c, 0, 79, 110
2, 3380, Note_on_c, 0, 79, 0
2, 3380, Note_on_c, 0, 81, 110
2, 3400, Note_on_c, 0, 81, 0
2, 3400, Note_on_c, 0, 83, 87
2, 3440, Note_on_c, 0, 83, 0
2, 3480, Note_on_c, 0, 81, 87
2, 3480, Note_on_c, 0, 78, 87
2, 3540, Note_on_c, 0, 78, 0
2, 3540, Note_on_c, 0, 81, 0
2, 3600, Note_on_c, 0, 79, 87
2, 3600, Note_on_c, 0, 76, 87
2, 3660, Note_on_c, 0, 76, 0
2, 3660, Note_on_c, 0, 79, 0
2, 3720, Note_on_c, 0, 75, 87
2, 3720, Note_on_c, 0, 78, 87
2, 3780, Note_on_c, 0, 78, 0
2, 3780, Note_on_c, 0, 75, 0
2, 3840, Note_on_c, 0, 76, 87
2, 4080, Note_on_c, 0, 76, 0
2, 4080, Note_on_c, 0, 71, 87
2, 4140, Note_on_c, 0, 71, 0
2, 4140, Note_on_c, 0, 69, 87
2, 4200, Note_on_c, 0, 69, 0
2, 4200, Note_on_c, 0, 68, 87
2, 4260, Note_on_c, 0, 68, 0
2, 4260, Note_on_c, 0, 69, 87
2, 4320, Note_on_c, 0, 69, 0
2, 4320, Note_on_c, 0, 72, 87
2, 4560, Note_on_c, 0, 72, 0
2, 4560, Note_on_c, 0, 74, 87
2, 4620, Note_on_c, 0, 74, 0
2, 4620, Note_on_c, 0, 72, 87
2, 4680, Note_on_c, 0, 72, 0
2, 4680, Note_on_c, 0, 71, 87
2, 4740, Note_on_c, 0, 71, 0
2, 4740, Note_on_c, 0, 72, 87
2, 4800, Note_on_c, 0, 72, 0
2, 4800, Note_on_c, 0, 76, 87
2, 5040, Note_on_c, 0, 76, 0
2, 5040, Note_on_c, 0, 77, 87
2, 5100, Note_on_c, 0, 77, 0
2, 5100, Note_on_c, 0, 76, 87
2, 5160, Note_on_c, 0, 76, 0
2, 5160, Note_on_c, 0, 75, 87
2, 5220, Note_on_c, 0, 75, 0
2, 5220, Note_on_c, 0, 76, 87
2, 5280, Note_on_c, 0, 76, 0
2, 5280, Note_on_c, 0, 83, 87
2, 5340, Note_on_c, 0, 83, 0
2, 5340, Note_on_c, 0, 81, 87
2, 5400, Note_on_c, 0, 81, 0
2, 5400, Note_on_c, 0, 80, 87
2, 5460, Note_on_c, 0, 80, 0
2, 5460, Note_on_c, 0, 81, 87
2, 5520, Note_on_c, 0, 81, 0
2, 5520, Note_on_c, 0, 83, 87
2, 5580, Note_on_c, 0, 83, 0
2, 5580, Note_on_c, 0, 81, 87
2, 5640, Note_on_c, 0, 81, 0
2, 5640, Note_on_c, 0, 80, 87
2, 5700, Note_on_c, 0, 80, 0
2, 5700, Note_on_c, 0, 81, 87
2, 5760, Note_on_c, 0, 81, 0
2, 5760, Note_on_c, 0, 84, 87
2, 6000, Note_on_c, 0, 84, 0
2, 6000, Note_on_c, 0, 81, 87
2, 6060, Note_on_c, 0, 81, 0
2, 6120, Note_on_c, 0, 84, 87
2, 6180, Note_on_c, 0, 84, 0
2, 6240, Note_on_c, 0, 79, 110
2, 6260, Note_on_c, 0, 79, 0
2, 6260, Note_on_c, 0, 81, 110
2, 6280, Note_on_c, 0, 81, 0
2, 6280, Note_on_c, 0, 83, 87
2, 6320, Note_on_c, 0, 83, 0
2, 6360, Note_on_c, 0, 81, 87
2, 6360, Note_on_c, 0, 78, 87
2, 6420, Note_on_c, 0, 78, 0
2, 6420, Note_on_c, 0, 81, 0
2, 6480, Note_on_c, 0, 79, 87
2, 6480, Note_on_c, 0, 76, 87
2, 6540, Note_on_c, 0, 76, 0
2, 6540, Note_on_c, 0, 79, 0
2, 6600, Note_on_c, 0, 78, 87
2, 6600, Note_on_c, 0, 81, 87
2, 6660, Note_on_c, 0, 81, 0
2, 6660, Note_on_c, 0, 78, 0
2, 6720, Note_on_c, 0, 79, 110
2, 6740, Note_on_c, 0, 79, 0
2, 6740, Note_on_c, 0, 81, 110
2, 6760, Note_on_c, 0, 81, 0
2, 6760, Note_on_c, 0, 83, 87
2, 6800, Note_on_c, 0, 83, 0
2, 6840, Note_on_c, 0, 81, 87
2, 6840, Note_on_c, 0, 78, 87
2, 6900, Note_on_c, 0, 78, 0
2, 6900, Note_on_c, 0, 81, 0
2, 6960, Note_on_c, 0, 79, 87
2, 6960, Note_on_c, 0, 76, 87
2, 7020, Note_on_c, 0, 76, 0
2, 7020, Note_on_c, 0, 79, 0
2, 7080, Note_on_c, 0, 78, 87
2, 7080, Note_on_c, 0, 81, 87
2, 7140, Note_on_c, 0, 81, 0
2, 7140, Note_on_c, 0, 78, 0
2, 7200, Note_on_c, 0, 79, 110
2, 7220, Note_on_c, 0, 79, 0
2, 7220, Note_on_c, 0, 81, 110
2, 7240, Note_on_c, 0, 81, 0
2, 7240, Note_on_c, 0, 83, 87
2, 7280, Note_on_c, 0, 83, 0
2, 7320, Note_on_c, 0, 81, 87
2, 7320, Note_on_c, 0, 78, 87
2, 7380, Note_on_c, 0, 78, 0
2, 7380, Note_on_c, 0, 81, 0
2, 7440, Note_on_c, 0, 79, 87
2, 7440, Note_on_c, 0, 76, 87
2, 7500, Note_on_c, 0, 76, 0
2, 7500, Note_on_c, 0, 79, 0
2, 7560, Note_on_c, 0, 75, 87
2, 7560, Note_on_c, 0, 78, 87
2, 7620, Note_on_c, 0, 78, 0
2, 7620, Note_on_c, 0, 75, 0
2, 7680, Note_on_c, 0, 76, 87
2, 7900, Note_on_c, 0, 76, 0
2, 7920, Note_on_c, 0, 72, 87
2, 7920, Note_on_c, 0, 76, 87
2, 7980, Note_on_c, 0, 76, 0
2, 7980, Note_on_c, 0, 72, 0
2, 8040, Note_on_c, 0, 77, 87
2, 8040, Note_on_c, 0, 74, 87
2, 8100, Note_on_c, 0, 74, 0
2, 8100, Note_on_c, 0, 77, 0
2, 8160, Note_on_c, 0, 79, 87
2, 8160, Note_on_c, 0, 76, 87
2, 8220, Note_on_c, 0, 76, 0
2, 8220, Note_on_c, 0, 79, 0
2, 8280, Note_on_c, 0, 79, 87
2, 8280, Note_on_c, 0, 76, 87
2, 8340, Note_on_c, 0, 76, 0
2, 8340, Note_on_c, 0, 79, 0
2, 8400, Note_on_c, 0, 81, 87
2, 8460, Note_on_c, 0, 81, 0
2, 8460, Note_on_c, 0, 79, 87
2, 8520, Note_on_c, 0, 79, 0
2, 8520, Note_on_c, 0, 77, 87
2, 8580, Note_on_c, 0, 77, 0
2, 8580, Note_on_c, 0, 76, 87
2, 8640, Note_on_c, 0, 76, 0
2, 8640, Note_on_c, 0, 74, 87
2, 8640, Note_on_c, 0, 71, 87
2, 8760, Note_on_c, 0, 71, 0
2, 8760, Note_on_c, 0, 67, 87
2, 8880, Note_on_c, 0, 67, 0
2, 8880, Note_on_c, 0, 74, 0
2, 8880, Note_on_c, 0, 76, 87
2, 8880, Note_on_c, 0, 72, 87
2, 8940, Note_on_c, 0, 72, 0
2, 8940, Note_on_c, 0, 76, 0
2, 9000, Note_on_c, 0, 74, 87
2, 9000, Note_on_c, 0, 77, 87
2, 9060, Note_on_c, 0, 77, 0
2, 9060, Note_on_c, 0, 74, 0
2, 9120, Note_on_c, 0, 79, 87
2, 9120, Note_on_c, 0, 76, 87
2, 9180, Note_on_c, 0, 76, 0
2, 9180, Note_on_c, 0, 79, 0
2, 9240, Note_on_c, 0, 79, 87
2, 9240, Note_on_c, 0, 76, 87
2, 9300, Note_on_c, 0, 76, 0
2, 9300, Note_on_c, 0, 79, 0
2, 9360, Note_on_c, 0, 81, 87
2, 9420, Note_on_c, 0, 81, 0
2, 9420, Note_on_c, 0, 79, 87
2, 9480, Note_on_c, 0, 79, 0
2, 9480, Note_on_c, 0, 77, 87
2, 9540, Note_on_c, 0, 77, 0
2, 9540, Note_on_c, 0, 76, 87
2, 9600, Note_on_c, 0, 76, 0
2, 9600, Note_on_c, 0, 71, 87
2, 9600, Note_on_c, 0, 74, 87
2, 9840, Note_on_c, 0, 74, 0
2, 9840, Note_on_c, 0, 71, 0
2, 9840, Note_on_c, 0, 72, 87
2, 9840, Note_on_c, 0, 69, 87
2, 9900, Note_on_c, 0, 69, 0
2, 9900, Note_on_c, 0, 72, 0
2, 9960, Note_on_c, 0, 71, 87
2, 9960, Note_on_c, 0, 74, 87
2, 10020, Note_on_c, 0, 74, 0
2, 10020, Note_on_c, 0, 71, 0
2, 10080, Note_on_c, 0, 76, 87
2, 10080, Note_on_c, 0, 72, 87
2, 10140, Note_on_c, 0, 72, 0
2, 10140, Note_on_c, 0, 76, 0
2, 10200, Note_on_c, 0, 76, 87
2, 10200, Note_on_c, 0, 72, 87
2, 10260, Note_on_c, 0, 72, 0
2, 10260, Note_on_c, 0, 76, 0
2, 10320, Note_on_c, 0, 77, 87
2, 10380, Note_on_c, 0, 77, 0
2, 10380, Note_on_c, 0, 76, 87
2, 10440, Note_on_c, 0, 76, 0
2, 10440, Note_on_c, 0, 74, 87
2, 10500, Note_on_c, 0, 74, 0
2, 10500, Note_on_c, 0, 72, 87
2, 10560, Note_on_c, 0, 72, 0
2, 10560, Note_on_c, 0, 71, 87
2, 10560, Note_on_c, 0, 68, 87
2, 10680, Note_on_c, 0, 68, 0
2, 10680, Note_on_c, 0, 64, 87
2, 10800, Note_on_c, 0, 64, 0
2, 10800, Note_on_c, 0, 71, 0
2, 10800, Note_on_c, 0, 72, 87
2, 10800, Note_on_c, 0, 69, 87
2, 10860, Note_on_c, 0, 69, 0
2, 10860, Note_on_c, 0, 72, 0
2, 10920, Note_on_c, 0, 71, 87
2, 10920, Note_on_c, 0, 74, 87
2, 10980, Note_on_c, 0, 74, 0
2, 10980, Note_on_c, 0, 71, 0
2, 11040, Note_on_c, 0, 76, 87
2, 11040, Note_on_c, 0, 72, 87
2, 11100, Note_on_c, 0, 72, 0
2, 11100, Note_on_c, 0, 76, 0
2, 11160, Note_on_c, 0, 76, 87
2, 11160, Note_on_c, 0, 72, 87
2, 11220, Note_on_c, 0, 72, 0
2, 11220, Note_on_c, 0, 76, 0
2, 11280, Note_on_c, 0, 77, 87
2, 11340, Note_on_c, 0, 77, 0
2, 11340, Note_on_c, 0, 76, 87
2, 11400, Note_on_c, 0, 76, 0
2, 11400, Note_on_c, 0, 74, 87
2, 11460, Note_on_c, 0, 74, 0
2, 11460, Note_on_c, 0, 72, 87
2, 11520, Note_on_c, 0, 72, 0
2, 11520, Note_on_c, 0, 68, 87
2, 11520, Note_on_c, 0, 71, 87
2, 11760, Note_on_c, 0, 71, 0
2, 11760, Note_on_c, 0, 68, 0
2, 11760, Note_on_c, 0, 71, 87
2, 11820, Note_on_c, 0, 71, 0
2, 11820, Note_on_c, 0, 69, 87
2, 11880, Note_on_c, 0, 69, 0
2, 11880, Note_on_c, 0, 68, 87
2, 11940, Note_on_c, 0, 68, 0
2, 11940, Note_on_c, 0, 69, 87
2, 12000, Note_on_c, 0, 69, 0
2, 12000, Note_on_c, 0, 72, 87
2, 12120, Note_on_c, 0, 72, 0
2, 12240, Note_on_c, 0, 74, 87
2, 12300, Note_on_c, 0, 74, 0
2, 12300, Note_on_c, 0, 72, 87
2, 12360, Note_on_c, 0, 72, 0
2, 12360, Note_on_c, 0, 71, 87
2, 12420, Note_on_c, 0, 71, 0
2, 12420, Note_on_c, 0, 72, 87
2, 12480, Note_on_c, 0, 72, 0
2, 12480, Note_on_c, 0, 76, 87
2, 12600, Note_on_c, 0, 76, 0
2, 12720, Note_on_c, 0, 77, 87
2, 12780, Note_on_c, 0, 77, 0
2, 12780, Note_on_c, 0, 76, 87
2, 12840, Note_on_c, 0, 76, 0
2, 12840, Note_on_c, 0, 75, 87
2, 12900, Note_on_c, 0, 75, 0
2, 12900, Note_on_c, 0, 76, 87
2, 12960, Note_on_c, 0, 76, 0
2, 12960, Note_on_c, 0, 83, 87
2, 13020, Note_on_c, 0, 83, 0
2, 13020, Note_on_c, 0, 81, 87
2, 13080, Note_on_c, 0, 81, 0
2, 13080, Note_on_c, 0, 80, 87
2, 13140, Note_on_c, 0, 80, 0
2, 13140, Note_on_c, 0, 81, 87
2, 13200, Note_on_c, 0, 81, 0
2, 13200, Note_on_c, 0, 83, 87
2, 13260, Note_on_c, 0, 83, 0
2, 13260, Note_on_c, 0, 81, 87
2, 13320, Note_on_c, 0, 81, 0
2, 13320, Note_on_c, 0, 80, 87
2, 13380, Note_on_c, 0, 80, 0
2, 13380, Note_on_c, 0, 81, 87
2, 13440, Note_on_c, 0, 81, 0
2, 13440, Note_on_c, 0, 84, 87
2, 13680, Note_on_c, 0, 84, 0
2, 13680, Note_on_c, 0, 81, 87
2, 13740, Note_on_c, 0, 81, 0
2, 13800, Note_on_c, 0, 83, 87
2, 13860, Note_on_c, 0, 83, 0
2, 13920, Note_on_c, 0, 84, 87
2, 13980, Note_on_c, 0, 84, 0
2, 14040, Note_on_c, 0, 83, 87
2, 14100, Note_on_c, 0, 83, 0
2, 14160, Note_on_c, 0, 81, 87
2, 14220, Note_on_c, 0, 81, 0
2, 14280, Note_on_c, 0, 80, 87
2, 14340, Note_on_c, 0, 80, 0
2, 14400, Note_on_c, 0, 81, 87
2, 14460, Note_on_c, 0, 81, 0
2, 14520, Note_on_c, 0, 76, 87
2, 14580, Note_on_c, 0, 76, 0
2, 14640, Note_on_c, 0, 77, 87
2, 14700, Note_on_c, 0, 77, 0
2, 14760, Note_on_c, 0, 74, 87
2, 14820, Note_on_c, 0, 74, 0
2, 14880, Note_on_c, 0, 72, 87
2, 15120, Note_on_c, 0, 72, 0
2, 15120, Note_on_c, 0, 71, 103
2, 15150, Note_on_c, 0, 71, 0
2, 15150, Note_on_c, 0, 72, 72
2, 15180, Note_on_c, 0, 72, 0
2, 15180, Note_on_c, 0, 71, 75
2, 15210, Note_on_c, 0, 71, 0
2, 15210, Note_on_c, 0, 72, 76
2, 15240, Note_on_c, 0, 72, 0
2, 15240, Note_on_c, 0, 71, 78
2, 15260, Note_on_c, 0, 71, 0
2, 15260, Note_on_c, 0, 72, 80
2, 15280, Note_on_c, 0, 72, 0
2, 15280, Note_on_c, 0, 71, 82
2, 15300, Note_on_c, 0, 71, 0
2, 15300, Note_on_c, 0, 69, 85
2, 15330, Note_on_c, 0, 69, 0
2, 15330, Note_on_c, 0, 71, 86
2, 15360, Note_on_c, 0, 71, 0
2, 15360, Note_on_c, 0, 69, 87
2, 15580, Note_on_c, 0, 69, 0
2, 15600, Note_on_c, 0, 72, 87
2, 15600, Note_on_c, 0, 76, 87
2, 15660, Note_on_c, 0, 76, 0
2, 15660, Note_on_c, 0, 72, 0
2, 15720, Note_on_c, 0, 77, 87
2, 15720, Note_on_c, 0, 74, 87
2, 15780, Note_on_c, 0, 74, 0
2, 15780, Note_on_c, 0, 77, 0
2, 15840, Note_on_c, 0, 79, 87
2, 15840, Note_on_c, 0, 76, 87
2, 15900, Note_on_c, 0, 76, 0
2, 15900, Note_on_c, 0, 79, 0
2, 15960, Note_on_c, 0, 79, 87
2, 15960, Note_on_c, 0, 76, 87
2, 16020, Note_on_c, 0, 76, 0
2, 16020, Note_on_c, 0, 79, 0
2, 16080, Note_on_c, 0, 81, 87
2, 16140, Note_on_c, 0, 81, 0
2, 16140, Note_on_c, 0, 79, 87
2, 16200, Note_on_c, 0, 79, 0
2, 16200, Note_on_c, 0, 77, 87
2, 16260, Note_on_c, 0, 77, 0
2, 16260, Note_on_c, 0, 76, 87
2, 16320, Note_on_c, 0, 76, 0
2, 16320, Note_on_c, 0, 74, 87
2, 16320, Note_on_c, 0, 71, 87
2, 16440, Note_on_c, 0, 71, 0
2, 16440, Note_on_c, 0, 67, 87
2, 16560, Note_on_c, 0, 67, 0
2, 16560, Note_on_c, 0, 74, 0
2, 16560, Note_on_c, 0, 76, 87
2, 16560, Note_on_c, 0, 72, 87
2, 16620, Note_on_c, 0, 72, 0
2, 16620, Note_on_c, 0, 76, 0
2, 16680, Note_on_c, 0, 74, 87
2, 16680, Note_on_c, 0, 77, 87
2, 16740, Note_on_c, 0, 77, 0
2, 16740, Note_on_c, 0, 74, 0
2, 16800, Note_on_c, 0, 79, 87
2, 16800, Note_on_c, 0, 76, 87
2, 16860, Note_on_c, 0, 76, 0
2, 16860, Note_on_c, 0, 79, 0
2, 16920, Note_on_c, 0, 79, 87
2, 16920, Note_on_c, 0, 76, 87
2, 16980, Note_on_c, 0, 76, 0
2, 16980, Note_on_c, 0, 79, 0
2, 17040, Note_on_c, 0, 81, 87
2, 17100, Note_on_c, 0, 81, 0
2, 17100, Note_on_c, 0, 79, 87
2, 17160, Note_on_c, 0, 79, 0
2, 17160, Note_on_c, 0, 77, 87
2, 17220, Note_on_c, 0, 77, 0
2, 17220, Note_on_c, 0, 76, 87
2, 17280, Note_on_c, 0, 76, 0
2, 17280, Note_on_c, 0, 71, 87
2, 17280, Note_on_c, 0, 74, 87
2, 17520, Note_on_c, 0, 74, 0
2, 17520, Note_on_c, 0, 71, 0
2, 17520, Note_on_c, 0, 72, 87
2, 17520, Note_on_c, 0, 69, 87
2, 17580, Note_on_c, 0, 69, 0
2, 17580, Note_on_c, 0, 72, 0
2, 17640, Note_on_c, 0, 71, 87
2, 17640, Note_on_c, 0, 74, 87
2, 17700, Note_on_c, 0, 74, 0
2, 17700, Note_on_c, 0, 71, 0
2, 17760, Note_on_c, 0, 76, 87
2, 17760, Note_on_c, 0, 72, 87
2, 17820, Note_on_c, 0, 72, 0
2, 17820, Note_on_c, 0, 76, 0
2, 17880, Note_on_c, 0, 76, 87
2, 17880, Note_on_c, 0, 72, 87
2, 17940, Note_on_c, 0, 72, 0
2, 17940, Note_on_c, 0, 76, 0
2, 18000, Note_on_c, 0, 77, 87
2, 18060, Note_on_c, 0, 77, 0
2, 18060, Note_on_c, 0, 76, 87
2, 18120, Note_on_c, 0, 76, 0
2, 18120, Note_on_c, 0, 74, 87
2, 18180, Note_on_c, 0, 74, 0
2, 18180, Note_on_c, 0, 72, 87
2, 18240, Note_on_c, 0, 72, 0
2, 18240, Note_on_c, 0, 71, 87
2, 18240, Note_on_c, 0, 68, 87
2, 18360, Note_on_c, 0, 68, 0
2, 18360, Note_on_c, 0, 64, 87
2, 18480, Note_on_c, 0, 64, 0
2, 18480, Note_on_c, 0, 71, 0
2, 18480, Note_on_c, 0, 72, 87
2, 18480, Note_on_c, 0, 69, 87
2, 18540, Note_on_c, 0, 69, 0
2, 18540, Note_on_c, 0, 72, 0
2, 18600, Note_on_c, 0, 71, 87
2, 18600, Note_on_c, 0, 74, 87
2, 18660, Note_on_c, 0, 74, 0
2, 18660, Note_on_c, 0, 71, 0
2, 18720, Note_on_c, 0, 76, 87
2, 18720, Note_on_c, 0, 72, 87
2, 18780, Note_on_c, 0, 72, 0
2, 18780, Note_on_c, 0, 76, 0
2, 18840, Note_on_c, 0, 76, 87
2, 18840, Note_on_c, 0, 72, 87
2, 18900, Note_on_c, 0, 72, 0
2, 18900, Note_on_c, 0, 76, 0
2, 18960, Note_on_c, 0, 77, 87
2, 19020, Note_on_c, 0, 77, 0
2, 19020, Note_on_c, 0, 76, 87
2, 19080, Note_on_c, 0, 76, 0
2, 19080, Note_on_c, 0, 74, 87
2, 19140, Note_on_c, 0, 74, 0
2, 19140, Note_on_c, 0, 72, 87
2, 19200, Note_on_c, 0, 72, 0
2, 19200, Note_on_c, 0, 68, 87
2, 19200, Note_on_c, 0, 71, 87
2, 19440, Note_on_c, 0, 71, 0
2, 19440, Note_on_c, 0, 68, 0
2, 19440, Note_on_c, 0, 71, 87
2, 19500, Note_on_c, 0, 71, 0
2, 19500, Note_on_c, 0, 69, 87
2, 19560, Note_on_c, 0, 69, 0
2, 19560, Note_on_c, 0, 68, 87
2, 19620, Note_on_c, 0, 68, 0
2, 19620, Note_on_c, 0, 69, 87
2, 19680, Note_on_c, 0, 69, 0
2, 19680, Note_on_c, 0, 72, 87
2, 19800, Note_on_c, 0, 72, 0
2, 19920, Note_on_c, 0, 74, 87
2, 19980, Note_on_c, 0, 74, 0
2, 19980, Note_on_c, 0, 72, 87
2, 20040, Note_on_c, 0, 72, 0
2, 20040, Note_on_c, 0, 71, 87
2, 20100, Note_on_c, 0, 71, 0
2, 20100, Note_on_c, 0, 72, 87
2, 20160, Note_on_c, 0, 72, 0
2, 20160, Note_on_c, 0, 76, 87
2, 20280, Note_on_c, 0, 76, 0
2, 20400, Note_on_c, 0, 77, 87
2, 20460, Note_on_c, 0, 77, 0
2, 20460, Note_on_c, 0, 76, 87
2, 20520, Note_on_c, 0, 76, 0
2, 20520, Note_on_c, 0, 75, 87
2, 20580, Note_on_c, 0, 75, 0
2, 20580, Note_on_c, 0, 76, 87
2, 20640, Note_on_c, 0, 76, 0
2, 20640, Note_on_c, 0, 83, 87
2, 20700, Note_on_c, 0, 83, 0
2, 20700, Note_on_c, 0, 81, 87
2, 20760, Note_on_c, 0, 81, 0
2, 20760, Note_on_c, 0, 80, 87
2, 20820, Note_on_c, 0, 80, 0
2, 20820, Note_on_c, 0, 81, 87
2, 20880, Note_on_c, 0, 81, 0
2, 20880, Note_on_c, 0, 83, 87
2, 20940, Note_on_c, 0, 83, 0
2, 20940, Note_on_c, 0, 81, 87
2, 21000, Note_on_c, 0, 81, 0
2, 21000, Note_on_c, 0, 80, 87
2, 21060, Note_on_c, 0, 80, 0
2, 21060, Note_on_c, 0, 81, 87
2, 21120, Note_on_c, 0, 81, 0
2, 21120, Note_on_c, 0, 84, 87
2, 21360, Note_on_c, 0, 84, 0
2, 21360, Note_on_c, 0, 81, 87
2, 21420, Note_on_c, 0, 81, 0
2, 21480, Note_on_c, 0, 83, 87
2, 21540, Note_on_c, 0, 83, 0
2, 21600, Note_on_c, 0, 84, 87
2, 21660, Note_on_c, 0, 84, 0
2, 21720, Note_on_c, 0, 83, 87
2, 21780, Note_on_c, 0, 83, 0
2, 21840, Note_on_c, 0, 81, 87
2, 21900, Note_on_c, 0, 81, 0
2, 21960, Note_on_c, 0, 80, 87
2, 22020, Note_on_c, 0, 80, 0
2, 22080, Note_on_c, 0, 81, 87
2, 22140, Note_on_c, 0, 81, 0
2, 22200, Note_on_c, 0, 76, 87
2, 22260, Note_on_c, 0, 76, 0
2, 22320, Note_on_c, 0, 77, 87
2, 22380, Note_on_c, 0, 77, 0
2, 22440, Note_on_c, 0, 74, 87
2, 22500, Note_on_c, 0, 74, 0
2, 22560, Note_on_c, 0, 72, 87
2, 22800, Note_on_c, 0, 72, 0
2, 22800, Note_on_c, 0, 71, 103
2, 22830, Note_on_c, 0, 71, 0
2, 22830, Note_on_c, 0, 72, 72
2, 22860, Note_on_c, 0, 72, 0
2, 22860, Note_on_c, 0, 71, 75
2, 22890, Note_on_c, 0, 71, 0
2, 22890, Note_on_c, 0, 72, 76
2, 22920, Note_on_c, 0, 72, 0
2, 22920, Note_on_c, 0, 71, 78
2, 22940, Note_on_c, 0, 71, 0
2, 22940, Note_on_c, 0, 72, 80
2, 22960, Note_on_c, 0, 72, 0
2, 22960, Note_on_c, 0, 71, 82
2, 22980, Note_on_c, 0, 71, 0
2, 22980, Note_on_c, 0, 69, 85
2, 23010, Note_on_c, 0, 69, 0
2, 23010, Note_on_c, 0, 71, 86
2, 23040, Note_on_c, 0, 71, 0
2, 23040, Note_on_c, 0, 69, 104
2, 23240, Note_on_c, 0, 69, 0
2, 23280, Note_on_c, 0, 81, 104
2, 23280, Note_on_c, 0, 69, 104
2, 23340, Note_on_c, 0, 69, 0
2, 23340, Note_on_c, 0, 81, 0
2, 23400, Note_on_c, 0, 71, 104
2, 23400, Note_on_c, 0, 83, 104
2, 23460, Note_on_c, 0, 83, 0
2, 23460, Note_on_c, 0, 71, 0
2, 23520, Note_on_c, 0, 73, 104
2, 23520, Note_on_c, 0, 85, 104
2, 23760, Note_on_c, 0, 85, 0
2, 23760, Note_on_c, 0, 73, 0
2, 23760, Note_on_c, 0, 81, 104
2, 23760, Note_on_c, 0, 69, 104
2, 23820, Note_on_c, 0, 69, 0
2, 23820, Note_on_c, 0, 81, 0
2, 23880, Note_on_c, 0, 71, 104
2, 23880, Note_on_c, 0, 83, 104
2, 23940, Note_on_c, 0, 83, 0
2, 23940, Note_on_c, 0, 71, 0
2, 24000, Note_on_c, 0, 85, 104
2, 24000, Note_on_c, 0, 73, 104
2, 24060, Note_on_c, 0, 73, 0
2, 24060, Note_on_c, 0, 85, 0
2, 24120, Note_on_c, 0, 83, 104
2, 24120, Note_on_c, 0, 71, 104
2, 24180, Note_on_c, 0, 71, 0
2, 24180, Note_on_c, 0, 83, 0
2, 24240, Note_on_c, 0, 81, 104
2, 24240, Note_on_c, 0, 69, 104
2, 24300, Note_on_c, 0, 69, 0
2, 24300, Note_on_c, 0, 81, 0
2, 24360, Note_on_c, 0, 68, 104
2, 24360, Note_on_c, 0, 80, 104
2, 24420, Note_on_c, 0, 80, 0
2, 24420, Note_on_c, 0, 68, 0
2, 24480, Note_on_c, 0, 78, 104
2, 24480, Note_on_c, 0, 66, 104
2, 24540, Note_on_c, 0, 66, 0
2, 24540, Note_on_c, 0, 78, 0
2, 24600, Note_on_c, 0, 80, 104
2, 24600, Note_on_c, 0, 68, 104
2, 24660, Note_on_c, 0, 68, 0
2, 24660, Note_on_c, 0, 80, 0
2, 24720, Note_on_c, 0, 81, 104
2, 24720, Note_on_c, 0, 69, 104
2, 24780, Note_on_c, 0, 69, 0
2, 24780, Note_on_c, 0, 81, 0
2, 24840, Note_on_c, 0, 71, 104
2, 24840, Note_on_c, 0, 83, 104
2, 24900, Note_on_c, 0, 83, 0
2, 24900, Note_on_c, 0, 71, 0
2, 24960, Note_on_c, 0, 68, 104
2, 24960, Note_on_c, 0, 80, 104
2, 25080, Note_on_c, 0, 80, 0
2, 25080, Note_on_c, 0, 68, 0
2, 25080, Note_on_c, 0, 76, 104
2, 25080, Note_on_c, 0, 64, 104
2, 25140, Note_on_c, 0, 64, 0
2, 25140, Note_on_c, 0, 76, 0
2, 25200, Note_on_c, 0, 81, 104
2, 25200, Note_on_c, 0, 69, 104
2, 25260, Note_on_c, 0, 69, 0
2, 25260, Note_on_c, 0, 81, 0
2, 25320, Note_on_c, 0, 71, 104
2, 25320, Note_on_c, 0, 83, 104
2, 25380, Note_on_c, 0, 83, 0
2, 25380, Note_on_c, 0, 71, 0
2, 25440, Note_on_c, 0, 73, 104
2, 25440, Note_on_c, 0, 85, 104
2, 25680, Note_on_c, 0, 85, 0
2, 25680, Note_on_c, 0, 73, 0
2, 25680, Note_on_c, 0, 81, 104
2, 25680, Note_on_c, 0, 69, 104
2, 25740, Note_on_c, 0, 69, 0
2, 25740, Note_on_c, 0, 81, 0
2, 25800, Note_on_c, 0, 71, 104
2, 25800, Note_on_c, 0, 83, 104
2, 25860, Note_on_c, 0, 83, 0
2, 25860, Note_on_c, 0, 71, 0
2, 25920, Note_on_c, 0, 85, 104
2, 25920, Note_on_c, 0, 73, 104
2, 25980, Note_on_c, 0, 73, 0
2, 25980, Note_on_c, 0, 85, 0
2, 26040, Note_on_c, 0, 83, 104
2, 26040, Note_on_c, 0, 71, 104
2, 26100, Note_on_c, 0, 71, 0
2, 26100, Note_on_c, 0, 83, 0
2, 26160, Note_on_c, 0, 81, 104
2, 26160, Note_on_c, 0, 69, 104
2, 26220, Note_on_c, 0, 69, 0
2, 26220, Note_on_c, 0, 81, 0
2, 26280, Note_on_c, 0, 68, 104
2, 26280, Note_on_c, 0, 80, 104
2, 26340, Note_on_c, 0, 80, 0
2, 26340, Note_on_c, 0, 68, 0
2, 26400, Note_on_c, 0, 78, 104
2, 26400, Note_on_c, 0, 66, 104
2, 26460, Note_on_c, 0, 66, 0
2, 26460, Note_on_c, 0, 78, 0
2, 26520, Note_on_c, 0, 83, 104
2, 26520, Note_on_c, 0, 71, 104
2, 26580, Note_on_c, 0, 71, 0
2, 26580, Note_on_c, 0, 83, 0
2, 26640, Note_on_c, 0, 80, 104
2, 26640, Note_on_c, 0, 68, 104
2, 26700, Note_on_c, 0, 68, 0
2, 26700, Note_on_c, 0, 80, 0
2, 26760, Note_on_c, 0, 64, 104
2, 26760, Note_on_c, 0, 76, 104
2, 26820, Note_on_c, 0, 76, 0
2, 26820, Note_on_c, 0, 64, 0
2, 26880, Note_on_c, 0, 69, 104
2, 26880, Note_on_c, 0, 81, 104
2, 27080, Note_on_c, 0, 81, 0
2, 27080, Note_on_c, 0, 69, 0
2, 27120, Note_on_c, 0, 81, 104
2, 27120, Note_on_c, 0, 69, 104
2, 27180, Note_on_c, 0, 69, 0
2, 27180, Note_on_c, 0, 81, 0
2, 27240, Note_on_c, 0, 71, 104
2, 27240, Note_on_c, 0, 83, 104
2, 27300, Note_on_c, 0, 83, 0
2, 27300, Note_on_c, 0, 71, 0
2, 27360, Note_on_c, 0, 73, 104
2, 27360, Note_on_c, 0, 85, 104
2, 27600, Note_on_c, 0, 85, 0
2, 27600, Note_on_c, 0, 73, 0
2, 27600, Note_on_c, 0, 81, 104
2, 27600, Note_on_c, 0, 69, 104
2, 27660, Note_on_c, 0, 69, 0
2, 27660, Note_on_c, 0, 81, 0
2, 27720, Note_on_c, 0, 71, 104
2, 27720, Note_on_c, 0, 83, 104
2, 27780, Note_on_c, 0, 83, 0
2, 27780, Note_on_c, 0, 71, 0
2, 27840, Note_on_c, 0, 85, 104
2, 27840, Note_on_c, 0, 73, 104
2, 27900, Note_on_c, 0, 73, 0
2, 27900, Note_on_c, 0, 85, 0
2, 27960, Note_on_c, 0, 83, 104
2, 27960, Note_on_c, 0, 71, 104
2, 28020, Note_on_c, 0, 71, 0
2, 28020, Note_on_c, 0, 83, 0
2, 28080, Note_on_c, 0, 81, 104
2, 28080, Note_on_c, 0, 69, 104
2, 28140, Note_on_c, 0, 69, 0
2, 28140, Note_on_c, 0, 81, 0
2, 28200, Note_on_c, 0, 68, 104
2, 28200, Note_on_c, 0, 80, 104
2, 28260, Note_on_c, 0, 80, 0
2, 28260, Note_on_c, 0, 68, 0
2, 28320, Note_on_c, 0, 78, 104
2, 28320, Note_on_c, 0, 66, 104
2, 28380, Note_on_c, 0, 66, 0
2, 28380, Note_on_c, 0, 78, 0
2, 28440, Note_on_c, 0, 80, 104
2, 28440, Note_on_c, 0, 68, 104
2, 28500, Note_on_c, 0, 68, 0
2, 28500, Note_on_c, 0, 80, 0
2, 28560, Note_on_c, 0, 81, 104
2, 28560, Note_on_c, 0, 69, 104
2, 28620, Note_on_c, 0, 69, 0
2, 28620, Note_on_c, 0, 81, 0
2, 28680, Note_on_c, 0, 71, 104
2, 28680, Note_on_c, 0, 83, 104
2, 28740, Note_on_c, 0, 83, 0
2, 28740, Note_on_c, 0, 71, 0
2, 28800, Note_on_c, 0, 68, 104
2, 28800, Note_on_c, 0, 80, 104
2, 28920, Note_on_c, 0, 80, 0
2, 28920, Note_on_c, 0, 68, 0
2, 28920, Note_on_c, 0, 76, 104
2, 28920, Note_on_c, 0, 64, 104
2, 28980, Note_on_c, 0, 64, 0
2, 28980, Note_on_c, 0, 76, 0
2, 29040, Note_on_c, 0, 81, 104
2, 29040, Note_on_c, 0, 69, 104
2, 29100, Note_on_c, 0, 69, 0
2, 29100, Note_on_c, 0, 81, 0
2, 29160, Note_on_c, 0, 71, 104
2, 29160, Note_on_c, 0, 83, 104
2, 29220, Note_on_c, 0, 83, 0
2, 29220, Note_on_c, 0, 71, 0
2, 29280, Note_on_c, 0, 73, 104
2, 29280, Note_on_c, 0, 85, 104
2, 29520, Note_on_c, 0, 85, 0
2, 29520, Note_on_c, 0, 73, 0
2, 29520, Note_on_c, 0, 81, 104
2, 29520, Note_on_c, 0, 69, 104
2, 29580, Note_on_c, 0, 69, 0
2, 29580, Note_on_c, 0, 81, 0
2, 29640, Note_on_c, 0, 71, 104
2, 29640, Note_on_c, 0, 83, 104
2, 29700, Note_on_c, 0, 83, 0
2, 29700, Note_on_c, 0, 71, 0
2, 29760, Note_on_c, 0, 85, 104
2, 29760, Note_on_c, 0, 73, 104
2, 29820, Note_on_c, 0, 73, 0
2, 29820, Note_on_c, 0, 85, 0
2, 29880, Note_on_c, 0, 83, 104
2, 29880, Note_on_c, 0, 71, 104
2, 29940, Note_on_c, 0, 71, 0
2, 29940, Note_on_c, 0, 83, 0
2, 30000, Note_on_c, 0, 81, 104
2, 30000, Note_on_c, 0, 69, 104
2, 30060, Note_on_c, 0, 69, 0
2, 30060, Note_on_c, 0, 81, 0
2, 30120, Note_on_c, 0, 68, 104
2, 30120, Note_on_c, 0, 80, 104
2, 30180, Note_on_c, 0, 80, 0
2, 30180, Note_on_c, 0, 68, 0
2, 30240, Note_on_c, 0, 78, 104
2, 30240, Note_on_c, 0, 66, 104
2, 30300, Note_on_c, 0, 66, 0
2, 30300, Note_on_c, 0, 78, 0
2, 30360, Note_on_c, 0, 83, 104
2, 30360, Note_on_c, 0, 71, 104
2, 30420, Note_on_c, 0, 71, 0
2, 30420, Note_on_c, 0, 83, 0
2, 30480, Note_on_c, 0, 80, 104
2, 30480, Note_on_c, 0, 68, 104
2, 30540, Note_on_c, 0, 68, 0
2, 30540, Note_on_c, 0, 80, 0
2, 30600, Note_on_c, 0, 64, 104
2, 30600, Note_on_c, 0, 76, 104
2, 30660, Note_on_c, 0, 76, 0
2, 30660, Note_on_c, 0, 64, 0
2, 30720, Note_on_c, 0, 69, 104
2, 30720, Note_on_c, 0, 81, 104
2, 30960, Note_on_c, 0, 81, 0
2, 30960, Note_on_c, 0, 69, 0
2, 30960, Note_on_c, 0, 85, 87
2, 31020, Note_on_c, 0, 85, 0
2, 31020, Note_on_c, 0, 86, 87
2, 31080, Note_on_c, 0, 86, 0
2, 31080, Note_on_c, 0, 85, 87
2, 31140, Note_on_c, 0, 85, 0
2, 31140, Note_on_c, 0, 83, 87
2, 31200, Note_on_c, 0, 83, 0
2, 31200, Note_on_c, 0, 81, 87
2, 31260, Note_on_c, 0, 81, 0
2, 31260, Note_on_c, 0, 83, 87
2, 31320, Note_on_c, 0, 83, 0
2, 31320, Note_on_c, 0, 81, 87
2, 31380, Note_on_c, 0, 81, 0
2, 31380, Note_on_c, 0, 80, 87
2, 31440, Note_on_c, 0, 80, 0
2, 31440, Note_on_c, 0, 78, 87
2, 31500, Note_on_c, 0, 78, 0
2, 31500, Note_on_c, 0, 81, 87
2, 31560, Note_on_c, 0, 81, 0
2, 31560, Note_on_c, 0, 80, 87
2, 31620, Note_on_c, 0, 80, 0
2, 31620, Note_on_c, 0, 78, 87
2, 31680, Note_on_c, 0, 78, 0
2, 31680, Note_on_c, 0, 77, 87
2, 31740, Note_on_c, 0, 77, 0
2, 31740, Note_on_c, 0, 78, 87
2, 31800, Note_on_c, 0, 78, 0
2, 31800, Note_on_c, 0, 80, 87
2, 31860, Note_on_c, 0, 80, 0
2, 31860, Note_on_c, 0, 77, 87
2, 31920, Note_on_c, 0, 77, 0
2, 31920, Note_on_c, 0, 73, 87
2, 31980, Note_on_c, 0, 73, 0
2, 31980, Note_on_c, 0, 75, 87
2, 32040, Note_on_c, 0, 75, 0
2, 32040, Note_on_c, 0, 77, 87
2, 32100, Note_on_c, 0, 77, 0
2, 32100, Note_on_c, 0, 73, 87
2, 32160, Note_on_c, 0, 73, 0
2, 32160, Note_on_c, 0, 78, 87
2, 32220, Note_on_c, 0, 78, 0
2, 32220, Note_on_c, 0, 77, 87
2, 32280, Note_on_c, 0, 77, 0
2, 32280, Note_on_c, 0, 78, 87
2, 32340, Note_on_c, 0, 78, 0
2, 32340, Note_on_c, 0, 80, 87
2, 32400, Note_on_c, 0, 80, 0
2, 32400, Note_on_c, 0, 81, 87
2, 32460, Note_on_c, 0, 81, 0
2, 32460, Note_on_c, 0, 80, 87
2, 32520, Note_on_c, 0, 80, 0
2, 32520, Note_on_c, 0, 81, 87
2, 32580, Note_on_c, 0, 81, 0
2, 32580, Note_on_c, 0, 83, 87
2, 32640, Note_on_c, 0, 83, 0
2, 32640, Note_on_c, 0, 85, 87
2, 32700, Note_on_c, 0, 85, 0
2, 32700, Note_on_c, 0, 84, 87
2, 32760, Note_on_c, 0, 84, 0
2, 32760, Note_on_c, 0, 85, 87
2, 32820, Note_on_c, 0, 85, 0
2, 32820, Note_on_c, 0, 84, 87
2, 32880, Note_on_c, 0, 84, 0
2, 32880, Note_on_c, 0, 85, 87
2, 32940, Note_on_c, 0, 85, 0
2, 32940, Note_on_c, 0, 86, 87
2, 33000, Note_on_c, 0, 86, 0
2, 33000, Note_on_c, 0, 85, 87
2, 33060, Note_on_c, 0, 85, 0
2, 33060, Note_on_c, 0, 83, 87
2, 33120, Note_on_c, 0, 83, 0
2, 33120, Note_on_c, 0, 81, 87
2, 33180, Note_on_c, 0, 81, 0
2, 33180, Note_on_c, 0, 83, 87
2, 33240, Note_on_c, 0, 83, 0
2, 33240, Note_on_c, 0, 81, 87
2, 33300, Note_on_c, 0, 81, 0
2, 33300, Note_on_c, 0, 80, 87
2, 33360, Note_on_c, 0, 80, 0
2, 33360, Note_on_c, 0, 78, 87
2, 33420, Note_on_c, 0, 78, 0
2, 33420, Note_on_c, 0, 81, 87
2, 33480, Note_on_c, 0, 81, 0
2, 33480, Note_on_c, 0, 80, 87
2, 33540, Note_on_c, 0, 80, 0
2, 33540, Note_on_c, 0, 78, 87
2, 33600, Note_on_c, 0, 78, 0
2, 33600, Note_on_c, 0, 76, 87
2, 33660, Note_on_c, 0, 76, 0
2, 33660, Note_on_c, 0, 78, 87
2, 33720, Note_on_c, 0, 78, 0
2, 33720, Note_on_c, 0, 80, 87
2, 33780, Note_on_c, 0, 80, 0
2, 33780, Note_on_c, 0, 76, 87
2, 33840, Note_on_c, 0, 76, 0
2, 33840, Note_on_c, 0, 73, 87
2, 33900, Note_on_c, 0, 73, 0
2, 33900, Note_on_c, 0, 75, 87
2, 33960, Note_on_c, 0, 75, 0
2, 33960, Note_on_c, 0, 76, 87
2, 34020, Note_on_c, 0, 76, 0
2, 34020, Note_on_c, 0, 73, 87
2, 34080, Note_on_c, 0, 73, 0
2, 34080, Note_on_c, 0, 75, 87
2, 34140, Note_on_c, 0, 75, 0
2, 34140, Note_on_c, 0, 76, 87
2, 34200, Note_on_c, 0, 76, 0
2, 34200, Note_on_c, 0, 78, 87
2, 34260, Note_on_c, 0, 78, 0
2, 34260, Note_on_c, 0, 75, 87
2, 34320, Note_on_c, 0, 75, 0
2, 34320, Note_on_c, 0, 72, 87
2, 34380, Note_on_c, 0, 72, 0
2, 34380, Note_on_c, 0, 73, 87
2, 34440, Note_on_c, 0, 73, 0
2, 34440, Note_on_c, 0, 75, 87
2, 34500, Note_on_c, 0, 75, 0
2, 34500, Note_on_c, 0, 72, 87
2, 34560, Note_on_c, 0, 72, 0
2, 34560, Note_on_c, 0, 73, 87
2, 34800, Note_on_c, 0, 73, 0
2, 34800, Note_on_c, 0, 85, 73
2, 34860, Note_on_c, 0, 85, 0
2, 34860, Note_on_c, 0, 86, 73
2, 34920, Note_on_c, 0, 86, 0
2, 34920, Note_on_c, 0, 85, 73
2, 34980, Note_on_c, 0, 85, 0
2, 34980, Note_on_c, 0, 83, 73
2, 35040, Note_on_c, 0, 83, 0
2, 35040, Note_on_c, 0, 81, 73
2, 35100, Note_on_c, 0, 81, 0
2, 35100, Note_on_c, 0, 83, 73
2, 35160, Note_on_c, 0, 83, 0
2, 35160, Note_on_c, 0, 81, 73
2, 35220, Note_on_c, 0, 81, 0
2, 35220, Note_on_c, 0, 80, 73
2, 35280, Note_on_c, 0, 80, 0
2, 35280, Note_on_c, 0, 78, 73
2, 35340, Note_on_c, 0, 78, 0
2, 35340, Note_on_c, 0, 81, 73
2, 35400, Note_on_c, 0, 81, 0
2, 35400, Note_on_c, 0, 80, 73
2, 35460, Note_on_c, 0, 80, 0
2, 35460, Note_on_c, 0, 78, 73
2, 35520, Note_on_c, 0, 78, 0
2, 35520, Note_on_c, 0, 77, 73
2, 35580, Note_on_c, 0, 77, 0
2, 35580, Note_on_c, 0, 78, 73
2, 35640, Note_on_c, 0, 78, 0
2, 35640, Note_on_c, 0, 80, 73
2, 35700, Note_on_c, 0, 80, 0
2, 35700, Note_on_c, 0, 77, 73
2, 35760, Note_on_c, 0, 77, 0
2, 35760, Note_on_c, 0, 73, 73
2, 35820, Note_on_c, 0, 73, 0
2, 35820, Note_on_c, 0, 75, 73
2, 35880, Note_on_c, 0, 75, 0
2, 35880, Note_on_c, 0, 77, 73
2, 35940, Note_on_c, 0, 77, 0
2, 35940, Note_on_c, 0, 73, 73
2, 36000, Note_on_c, 0, 73, 0
2, 36000, Note_on_c, 0, 78, 73
2, 36060, Note_on_c, 0, 78, 0
2, 36060, Note_on_c, 0, 77, 73
2, 36120, Note_on_c, 0, 77, 0
2, 36120, Note_on_c, 0, 78, 73
2, 36180, Note_on_c, 0, 78, 0
2, 36180, Note_on_c, 0, 80, 73
2, 36240, Note_on_c, 0, 80, 0
2, 36240, Note_on_c, 0, 81, 73
2, 36300, Note_on_c, 0, 81, 0
2, 36300, Note_on_c, 0, 80, 73
2, 36360, Note_on_c, 0, 80, 0
2, 36360, Note_on_c, 0, 81, 73
2, 36420, Note_on_c, 0, 81, 0
2, 36420, Note_on_c, 0, 83, 73
2, 36480, Note_on_c, 0, 83, 0
2, 36480, Note_on_c, 0, 85, 73
2, 36540, Note_on_c, 0, 85, 0
2, 36540, Note_on_c, 0, 84, 73
2, 36600, Note_on_c, 0, 84, 0
2, 36600, Note_on_c, 0, 85, 73
2, 36660, Note_on_c, 0, 85, 0
2, 36660, Note_on_c, 0, 84, 73
2, 36720, Note_on_c, 0, 84, 0
2, 36720, Note_on_c, 0, 85, 73
2, 36780, Note_on_c, 0, 85, 0
2, 36780, Note_on_c, 0, 86, 73
2, 36840, Note_on_c, 0, 86, 0
2, 36840, Note_on_c, 0, 85, 73
2, 36900, Note_on_c, 0, 85, 0
2, 36900, Note_on_c, 0, 83, 73
2, 36960, Note_on_c, 0, 83, 0
2, 36960, Note_on_c, 0, 81, 73
2, 37020, Note_on_c, 0, 81, 0
2, 37020, Note_on_c, 0, 83, 73
2, 37080, Note_on_c, 0, 83, 0
2, 37080, Note_on_c, 0, 81, 73
2, 37140, Note_on_c, 0, 81, 0
2, 37140, Note_on_c, 0, 80, 73
2, 37200, Note_on_c, 0, 80, 0
2, 37200, Note_on_c, 0, 78, 73
2, 37260, Note_on_c, 0, 78, 0
2, 37260, Note_on_c, 0, 81, 73
2, 37320, Note_on_c, 0, 81, 0
2, 37320, Note_on_c, 0, 80, 73
2, 37380, Note_on_c, 0, 80, 0
2, 37380, Note_on_c, 0, 78, 73
2, 37440, Note_on_c, 0, 78, 0
2, 37440, Note_on_c, 0, 76, 73
2, 37500, Note_on_c, 0, 76, 0
2, 37500, Note_on_c, 0, 78, 73
2, 37560, Note_on_c, 0, 78, 0
2, 37560, Note_on_c, 0, 80, 73
2, 37620, Note_on_c, 0, 80, 0
2, 37620, Note_on_c, 0, 76, 73
2, 37680, Note_on_c, 0, 76, 0
2, 37680, Note_on_c, 0, 73, 73
2, 37740, Note_on_c, 0, 73, 0
2, 37740, Note_on_c, 0, 75, 73
2, 37800, Note_on_c, 0, 75, 0
2, 37800, Note_on_c, 0, 76, 73
2, 37860, Note_on_c, 0, 76, 0
2, 37860, Note_on_c, 0, 73, 73
2, 37920, Note_on_c, 0, 73, 0
2, 37920, Note_on_c, 0, 75, 73
2, 37980, Note_on_c, 0, 75, 0
2, 37980, Note_on_c, 0, 76, 73
2, 38040, Note_on_c, 0, 76, 0
2, 38040, Note_on_c, 0, 78, 73
2, 38100, Note_on_c, 0, 78, 0
2, 38100, Note_on_c, 0, 75, 73
2, 38160, Note_on_c, 0, 75, 0
2, 38160, Note_on_c, 0, 72, 73
2, 38220, Note_on_c, 0, 72, 0
2, 38220, Note_on_c, 0, 73, 73
2, 38280, Note_on_c, 0, 73, 0
2, 38280, Note_on_c, 0, 75, 73
2, 38340, Note_on_c, 0, 75, 0
2, 38340, Note_on_c, 0, 72, 73
2, 38400, Note_on_c, 0, 72, 0
2, 38400, Note_on_c, 0, 73, 73
2, 38640, Note_on_c, 0, 73, 0
2, 38640, Note_on_c, 0, 76, 87
2, 38700, Note_on_c, 0, 76, 0
2, 38700, Note_on_c, 0, 74, 87
2, 38760, Note_on_c, 0, 74, 0
2, 38760, Note_on_c, 0, 73, 87
2, 38820, Note_on_c, 0, 73, 0
2, 38820, Note_on_c, 0, 71, 87
2, 38880, Note_on_c, 0, 71, 0
2, 38880, Note_on_c, 0, 69, 87
2, 38940, Note_on_c, 0, 69, 0
2, 38940, Note_on_c, 0, 71, 87
2, 39000, Note_on_c, 0, 71, 0
2, 39000, Note_on_c, 0, 73, 87
2, 39060, Note_on_c, 0, 73, 0
2, 39060, Note_on_c, 0, 74, 87
2, 39120, Note_on_c, 0, 74, 0
2, 39120, Note_on_c, 0, 76, 87
2, 39180, Note_on_c, 0, 76, 0
2, 39180, Note_on_c, 0, 78, 87
2, 39240, Note_on_c, 0, 78, 0
2, 39240, Note_on_c, 0, 80, 87
2, 39300, Note_on_c, 0, 80, 0
2, 39300, Note_on_c, 0, 81, 87
2, 39360, Note_on_c, 0, 81, 0
2, 39360, Note_on_c, 0, 81, 87
2, 39420, Note_on_c, 0, 81, 0
2, 39420, Note_on_c, 0, 80, 87
2, 39480, Note_on_c, 0, 80, 0
2, 39480, Note_on_c, 0, 78, 87
2, 39540, Note_on_c, 0, 78, 0
2, 39540, Note_on_c, 0, 76, 87
2, 39600, Note_on_c, 0, 76, 0
2, 39600, Note_on_c, 0, 76, 87
2, 39660, Note_on_c, 0, 76, 0
2, 39660, Note_on_c, 0, 74, 87
2, 39720, Note_on_c, 0, 74, 0
2, 39720, Note_on_c, 0, 73, 87
2, 39780, Note_on_c, 0, 73, 0
2, 39780, Note_on_c, 0, 71, 87
2, 39840, Note_on_c, 0, 71, 0
2, 39840, Note_on_c, 0, 69, 87
2, 39900, Note_on_c, 0, 69, 0
2, 39900, Note_on_c, 0, 71, 87
2, 39960, Note_on_c, 0, 71, 0
2, 39960, Note_on_c, 0, 73, 87
2, 40020, Note_on_c, 0, 73, 0
2, 40020, Note_on_c, 0, 74, 87
2, 40080, Note_on_c, 0, 74, 0
2, 40080, Note_on_c, 0, 76, 87
2, 40140, Note_on_c, 0, 76, 0
2, 40140, Note_on_c, 0, 78, 87
2, 40200, Note_on_c, 0, 78, 0
2, 40200, Note_on_c, 0, 80, 87
2, 40260, Note_on_c, 0, 80, 0
2, 40260, Note_on_c, 0, 81, 87
2, 40320, Note_on_c, 0, 81, 0
2, 40320, Note_on_c, 0, 82, 87
2, 40440, Note_on_c, 0, 82, 0
2, 40440, Note_on_c, 0, 83, 87
2, 40560, Note_on_c, 0, 83, 0
2, 40560, Note_on_c, 0, 76, 87
2, 40620, Note_on_c, 0, 76, 0
2, 40620, Note_on_c, 0, 74, 87
2, 40680, Note_on_c, 0, 74, 0
2, 40680, Note_on_c, 0, 73, 87
2, 40740, Note_on_c, 0, 73, 0
2, 40740, Note_on_c, 0, 71, 87
2, 40800, Note_on_c, 0, 71, 0
2, 40800, Note_on_c, 0, 69, 87
2, 40860, Note_on_c, 0, 69, 0
2, 40860, Note_on_c, 0, 71, 87
2, 40920, Note_on_c, 0, 71, 0
2, 40920, Note_on_c, 0, 73, 87
2, 40980, Note_on_c, 0, 73, 0
2, 40980, Note_on_c, 0, 74, 87
2, 41040, Note_on_c, 0, 74, 0
2, 41040, Note_on_c, 0, 76, 87
2, 41100, Note_on_c, 0, 76, 0
2, 41100, Note_on_c, 0, 78, 87
2, 41160, Note_on_c, 0, 78, 0
2, 41160, Note_on_c, 0, 80, 87
2, 41220, Note_on_c, 0, 80, 0
2, 41220, Note_on_c, 0, 81, 87
2, 41280, Note_on_c, 0, 81, 0
2, 41280, Note_on_c, 0, 81, 87
2, 41340, Note_on_c, 0, 81, 0
2, 41340, Note_on_c, 0, 80, 87
2, 41400, Note_on_c, 0, 80, 0
2, 41400, Note_on_c, 0, 78, 87
2, 41460, Note_on_c, 0, 78, 0
2, 41460, Note_on_c, 0, 76, 87
2, 41520, Note_on_c, 0, 76, 0
2, 41520, Note_on_c, 0, 76, 87
2, 41580, Note_on_c, 0, 76, 0
2, 41580, Note_on_c, 0, 74, 87
2, 41640, Note_on_c, 0, 74, 0
2, 41640, Note_on_c, 0, 73, 87
2, 41700, Note_on_c, 0, 73, 0
2, 41700, Note_on_c, 0, 71, 87
2, 41760, Note_on_c, 0, 71, 0
2, 41760, Note_on_c, 0, 73, 87
2, 41820, Note_on_c, 0, 73, 0
2, 41820, Note_on_c, 0, 76, 87
2, 41880, Note_on_c, 0, 76, 0
2, 41880, Note_on_c, 0, 69, 87
2, 41940, Note_on_c, 0, 69, 0
2, 41940, Note_on_c, 0, 73, 87
2, 42000, Note_on_c, 0, 73, 0
2, 42000, Note_on_c, 0, 71, 87
2, 42060, Note_on_c, 0, 71, 0
2, 42060, Note_on_c, 0, 74, 87
2, 42120, Note_on_c, 0, 74, 0
2, 42120, Note_on_c, 0, 68, 87
2, 42180, Note_on_c, 0, 68, 0
2, 42180, Note_on_c, 0, 71, 87
2, 42240, Note_on_c, 0, 71, 0
2, 42240, Note_on_c, 0, 69, 87
2, 42480, Note_on_c, 0, 69, 0
2, 42480, Note_on_c, 0, 85, 73
2, 42540, Note_on_c, 0, 85, 0
2, 42540, Note_on_c, 0, 86, 73
2, 42600, Note_on_c, 0, 86, 0
2, 42600, Note_on_c, 0, 85, 73
2, 42660, Note_on_c, 0, 85, 0
2, 42660, Note_on_c, 0, 83, 73
2, 42720, Note_on_c, 0, 83, 0
2, 42720, Note_on_c, 0, 81, 73
2, 42780, Note_on_c, 0, 81, 0
2, 42780, Note_on_c, 0, 83, 73
2, 42840, Note_on_c, 0, 83, 0
2, 42840, Note_on_c, 0, 81, 73
2, 42900, Note_on_c, 0, 81, 0
2, 42900, Note_on_c, 0, 80, 73
2, 42960, Note_on_c, 0, 80, 0
2, 42960, Note_on_c, 0, 78, 73
2, 43020, Note_on_c, 0, 78, 0
2, 43020, Note_on_c, 0, 81, 73
2, 43080, Note_on_c, 0, 81, 0
2, 43080, Note_on_c, 0, 80, 73
2, 43140, Note_on_c, 0, 80, 0
2, 43140, Note_on_c, 0, 78, 73
2, 43200, Note_on_c, 0, 78, 0
2, 43200, Note_on_c, 0, 77, 73
2, 43260, Note_on_c, 0, 77, 0
2, 43260, Note_on_c, 0, 78, 73
2, 43320, Note_on_c, 0, 78, 0
2, 43320, Note_on_c, 0, 80, 73
2, 43380, Note_on_c, 0, 80, 0
2, 43380, Note_on_c, 0, 77, 73
2, 43440, Note_on_c, 0, 77, 0
2, 43440, Note_on_c, 0, 73, 73
2, 43500, Note_on_c, 0, 73, 0
2, 43500, Note_on_c, 0, 75, 73
2, 43560, Note_on_c, 0, 75, 0
2, 43560, Note_on_c, 0, 77, 73
2, 43620, Note_on_c, 0, 77, 0
2, 43620, Note_on_c, 0, 73, 73
2, 43680, Note_on_c, 0, 73, 0
2, 43680, Note_on_c, 0, 78, 73
2, 43740, Note_on_c, 0, 78, 0
2, 43740, Note_on_c, 0, 77, 73
2, 43800, Note_on_c, 0, 77, 0
2, 43800, Note_on_c, 0, 78, 73
2, 43860, Note_on_c, 0, 78, 0
2, 43860, Note_on_c, 0, 80, 73
2, 43920, Note_on_c, 0, 80, 0
2, 43920, Note_on_c, 0, 81, 73
2, 43980, Note_on_c, 0, 81, 0
2, 43980, Note_on_c, 0, 80, 73
2, 44040, Note_on_c, 0, 80, 0
2, 44040, Note_on_c, 0, 81, 73
2, 44100, Note_on_c, 0, 81, 0
2, 44100, Note_on_c, 0, 83, 73
2, 44160, Note_on_c, 0, 83, 0
2, 44160, Note_on_c, 0, 85, 73
2, 44220, Note_on_c, 0, 85, 0
2, 44220, Note_on_c, 0, 84, 73
2, 44280, Note_on_c, 0, 84, 0
2, 44280, Note_on_c, 0, 85, 73
2, 44340, Note_on_c, 0, 85, 0
2, 44340, Note_on_c, 0, 84, 73
2, 44400, Note_on_c, 0, 84, 0
2, 44400, Note_on_c, 0, 85, 73
2, 44460, Note_on_c, 0, 85, 0
2, 44460, Note_on_c, 0, 84, 73
2, 44520, Note_on_c, 0, 84, 0
2, 44520, Note_on_c, 0, 85, 73
2, 44580, Note_on_c, 0, 85, 0
2, 44580, Note_on_c, 0, 82, 73
2, 44640, Note_on_c, 0, 82, 0
2, 44640, Note_on_c, 0, 86, 73
2, 44700, Note_on_c, 0, 86, 0
2, 44700, Note_on_c, 0, 85, 73
2, 44760, Note_on_c, 0, 85, 0
2, 44760, Note_on_c, 0, 86, 73
2, 44820, Note_on_c, 0, 86, 0
2, 44820, Note_on_c, 0, 85, 73
2, 44880, Note_on_c, 0, 85, 0
2, 44880, Note_on_c, 0, 86, 73
2, 44940, Note_on_c, 0, 86, 0
2, 44940, Note_on_c, 0, 85, 73
2, 45000, Note_on_c, 0, 85, 0
2, 45000, Note_on_c, 0, 86, 73
2, 45060, Note_on_c, 0, 86, 0
2, 45060, Note_on_c, 0, 85, 73
2, 45120, Note_on_c, 0, 85, 0
2, 45120, Note_on_c, 0, 86, 73
2, 45180, Note_on_c, 0, 86, 0
2, 45180, Note_on_c, 0, 85, 73
2, 45240, Note_on_c, 0, 85, 0
2, 45240, Note_on_c, 0, 83, 73
2, 45300, Note_on_c, 0, 83, 0
2, 45300, Note_on_c, 0, 81, 73
2, 45360, Note_on_c, 0, 81, 0
2, 45360, Note_on_c, 0, 80, 73
2, 45420, Note_on_c, 0, 80, 0
2, 45420, Note_on_c, 0, 81, 73
2, 45480, Note_on_c, 0, 81, 0
2, 45480, Note_on_c, 0, 83, 73
2, 45540, Note_on_c, 0, 83, 0
2, 45540, Note_on_c, 0, 80, 73
2, 45600, Note_on_c, 0, 80, 0
2, 45600, Note_on_c, 0, 81, 73
2, 45660, Note_on_c, 0, 81, 0
2, 45660, Note_on_c, 0, 83, 73
2, 45720, Note_on_c, 0, 83, 0
2, 45720, Note_on_c, 0, 85, 73
2, 45780, Note_on_c, 0, 85, 0
2, 45780, Note_on_c, 0, 78, 73
2, 45840, Note_on_c, 0, 78, 0
2, 45840, Note_on_c, 0, 77, 73
2, 45900, Note_on_c, 0, 77, 0
2, 45900, Note_on_c, 0, 78, 73
2, 45960, Note_on_c, 0, 78, 0
2, 45960, Note_on_c, 0, 80, 73
2, 46020, Note_on_c, 0, 80, 0
2, 46020, Note_on_c, 0, 77, 73
2, 46080, Note_on_c, 0, 77, 0
2, 46080, Note_on_c, 0, 78, 73
2, 46320, Note_on_c, 0, 78, 0
2, 46320, Note_on_c, 0, 76, 87
2, 46380, Note_on_c, 0, 76, 0
2, 46380, Note_on_c, 0, 74, 87
2, 46440, Note_on_c, 0, 74, 0
2, 46440, Note_on_c, 0, 73, 87
2, 46500, Note_on_c, 0, 73, 0
2, 46500, Note_on_c, 0, 71, 87
2, 46560, Note_on_c, 0, 71, 0
2, 46560, Note_on_c, 0, 69, 87
2, 46620, Note_on_c, 0, 69, 0
2, 46620, Note_on_c, 0, 71, 87
2, 46680, Note_on_c, 0, 71, 0
2, 46680, Note_on_c, 0, 73, 87
2, 46740, Note_on_c, 0, 73, 0
2, 46740, Note_on_c, 0, 74, 87
2, 46800, Note_on_c, 0, 74, 0
2, 46800, Note_on_c, 0, 76, 87
2, 46860, Note_on_c, 0, 76, 0
2, 46860, Note_on_c, 0, 78, 87
2, 46920, Note_on_c, 0, 78, 0
2, 46920, Note_on_c, 0, 80, 87
2, 46980, Note_on_c, 0, 80, 0
2, 46980, Note_on_c, 0, 81, 87
2, 47040, Note_on_c, 0, 81, 0
2, 47040, Note_on_c, 0, 81, 87
2, 47100, Note_on_c, 0, 81, 0
2, 47100, Note_on_c, 0, 80, 87
2, 47160, Note_on_c, 0, 80, 0
2, 47160, Note_on_c, 0, 78, 87
2, 47220, Note_on_c, 0, 78, 0
2, 47220, Note_on_c, 0, 76, 87
2, 47280, Note_on_c, 0, 76, 0
2, 47280, Note_on_c, 0, 76, 87
2, 47340, Note_on_c, 0, 76, 0
2, 47340, Note_on_c, 0, 74, 87
2, 47400, Note_on_c, 0, 74, 0
2, 47400, Note_on_c, 0, 73, 87
2, 47460, Note_on_c, 0, 73, 0
2, 47460, Note_on_c, 0, 71, 87
2, 47520, Note_on_c, 0, 71, 0
2, 47520, Note_on_c, 0, 69, 87
2, 47580, Note_on_c, 0, 69, 0
2, 47580, Note_on_c, 0, 71, 87
2, 47640, Note_on_c, 0, 71, 0
2, 47640, Note_on_c, 0, 73, 87
2, 47700, Note_on_c, 0, 73, 0
2, 47700, Note_on_c, 0, 74, 87
2, 47760, Note_on_c, 0, 74, 0
2, 47760, Note_on_c, 0, 76, 87
2, 47820, Note_on_c, 0, 76, 0
2, 47820, Note_on_c, 0, 78, 87
2, 47880, Note_on_c, 0, 78, 0
2, 47880, Note_on_c, 0, 80, 87
2, 47940, Note_on_c, 0, 80, 0
2, 47940, Note_on_c, 0, 81, 87
2, 48000, Note_on_c, 0, 81, 0
2, 48000, Note_on_c, 0, 82, 87
2, 48120, Note_on_c, 0, 82, 0
2, 48120, Note_on_c, 0, 83, 87
2, 48240, Note_on_c, 0, 83, 0
2, 48240, Note_on_c, 0, 76, 87
2, 48300, Note_on_c, 0, 76, 0
2, 48300, Note_on_c, 0, 74, 87
2, 48360, Note_on_c, 0, 74, 0
2, 48360, Note_on_c, 0, 73, 87
2, 48420, Note_on_c, 0, 73, 0
2, 48420, Note_on_c, 0, 71, 87
2, 48480, Note_on_c, 0, 71, 0
2, 48480, Note_on_c, 0, 69, 87
2, 48540, Note_on_c, 0, 69, 0
2, 48540, Note_on_c, 0, 71, 87
2, 48600, Note_on_c, 0, 71, 0
2, 48600, Note_on_c, 0, 73, 87
2, 48660, Note_on_c, 0, 73, 0
2, 48660, Note_on_c, 0, 74, 87
2, 48720, Note_on_c, 0, 74, 0
2, 48720, Note_on_c, 0, 76, 87
2, 48780, Note_on_c, 0, 76, 0
2, 48780, Note_on_c, 0, 78, 87
2, 48840, Note_on_c, 0, 78, 0
2, 48840, Note_on_c, 0, 80, 87
2, 48900, Note_on_c, 0, 80, 0
2, 48900, Note_on_c, 0, 81, 87
2, 48960, Note_on_c, 0, 81, 0
2, 48960, Note_on_c, 0, 81, 87
2, 49020, Note_on_c, 0, 81, 0
2, 49020, Note_on_c, 0, 80, 87
2, 49080, Note_on_c, 0, 80, 0
2, 49080, Note_on_c, 0, 78, 87
2, 49140, Note_on_c, 0, 78, 0
2, 49140, Note_on_c, 0, 76, 87
2, 49200, Note_on_c, 0, 76, 0
2, 49200, Note_on_c, 0, 76, 87
2, 49260, Note_on_c, 0, 76, 0
2, 49260, Note_on_c, 0, 74, 87
2, 49320, Note_on_c, 0, 74, 0
2, 49320, Note_on_c, 0, 73, 87
2, 49380, Note_on_c, 0, 73, 0
2, 49380, Note_on_c, 0, 71, 87
2, 49440, Note_on_c, 0, 71, 0
2, 49440, Note_on_c, 0, 73, 87
2, 49500, Note_on_c, 0, 73, 0
2, 49500, Note_on_c, 0, 76, 87
2, 49560, Note_on_c, 0, 76, 0
2, 49560, Note_on_c, 0, 69, 87
2, 49620, Note_on_c, 0, 69, 0
2, 49620, Note_on_c, 0, 73, 87
2, 49680, Note_on_c, 0, 73, 0
2, 49680, Note_on_c, 0, 71, 87
2, 49740, Note_on_c, 0, 71, 0
2, 49740, Note_on_c, 0, 74, 87
2, 49800, Note_on_c, 0, 74, 0
2, 49800, Note_on_c, 0, 68, 87
2, 49860, Note_on_c, 0, 68, 0
2, 49860, Note_on_c, 0, 71, 87
2, 49920, Note_on_c, 0, 71, 0
2, 49920, Note_on_c, 0, 69, 87
2, 50160, Note_on_c, 0, 69, 0
2, 50160, Note_on_c, 0, 85, 87
2, 50220, Note_on_c, 0, 85, 0
2, 50220, Note_on_c, 0, 86, 87
2, 50280, Note_on_c, 0, 86, 0
2, 50280, Note_on_c, 0, 85, 87
2, 50340, Note_on_c, 0, 85, 0
2, 50340, Note_on_c, 0, 83, 87
2, 50400, Note_on_c, 0, 83, 0
2, 50400, Note_on_c, 0, 81, 87
2, 50460, Note_on_c, 0, 81, 0
2, 50460, Note_on_c, 0, 83, 87
2, 50520, Note_on_c, 0, 83, 0
2, 50520, Note_on_c, 0, 81, 87
2, 50580, Note_on_c, 0, 81, 0
2, 50580, Note_on_c, 0, 80, 87
2, 50640, Note_on_c, 0, 80, 0
2, 50640, Note_on_c, 0, 78, 87
2, 50700, Note_on_c, 0, 78, 0
2, 50700, Note_on_c, 0, 81, 87
2, 50760, Note_on_c, 0, 81, 0
2, 50760, Note_on_c, 0, 80, 87
2, 50820, Note_on_c, 0, 80, 0
2, 50820, Note_on_c, 0, 78, 87
2, 50880, Note_on_c, 0, 78, 0
2, 50880, Note_on_c, 0, 77, 87
2, 50940, Note_on_c, 0, 77, 0
2, 50940, Note_on_c, 0, 78, 87
2, 51000, Note_on_c, 0, 78, 0
2, 51000, Note_on_c, 0, 80, 87
2, 51060, Note_on_c, 0, 80, 0
2, 51060, Note_on_c, 0, 77, 87
2, 51120, Note_on_c, 0, 77, 0
2, 51120, Note_on_c, 0, 73, 87
2, 51180, Note_on_c, 0, 73, 0
2, 51180, Note_on_c, 0, 75, 87
2, 51240, Note_on_c, 0, 75, 0
2, 51240, Note_on_c, 0, 77, 87
2, 51300, Note_on_c, 0, 77, 0
2, 51300, Note_on_c, 0, 73, 87
2, 51360, Note_on_c, 0, 73, 0
2, 51360, Note_on_c, 0, 78, 87
2, 51420, Note_on_c, 0, 78, 0
2, 51420, Note_on_c, 0, 77, 87
2, 51480, Note_on_c, 0, 77, 0
2, 51480, Note_on_c, 0, 78, 87
2, 51540, Note_on_c, 0, 78, 0
2, 51540, Note_on_c, 0, 80, 87
2, 51600, Note_on_c, 0, 80, 0
2, 51600, Note_on_c, 0, 81, 87
2, 51660, Note_on_c, 0, 81, 0
2, 51660, Note_on_c, 0, 80, 87
2, 51720, Note_on_c, 0, 80, 0
2, 51720, Note_on_c, 0, 81, 87
2, 51780, Note_on_c, 0, 81, 0
2, 51780, Note_on_c, 0, 83, 87
2, 51840, Note_on_c, 0, 83, 0
2, 51840, Note_on_c, 0, 85, 87
2, 51900, Note_on_c, 0, 85, 0
2, 51900, Note_on_c, 0, 84, 87
2, 51960, Note_on_c, 0, 84, 0
2, 51960, Note_on_c, 0, 85, 87
2, 52020, Note_on_c, 0, 85, 0
2, 52020, Note_on_c, 0, 84, 87
2, 52080, Note_on_c, 0, 84, 0
2, 52080, Note_on_c, 0, 85, 87
2, 52140, Note_on_c, 0, 85, 0
2, 52140, Note_on_c, 0, 84, 87
2, 52200, Note_on_c, 0, 84, 0
2, 52200, Note_on_c, 0, 85, 87
2, 52260, Note_on_c, 0, 85, 0
2, 52260, Note_on_c, 0, 82, 87
2, 52320, Note_on_c, 0, 82, 0
2, 52320, Note_on_c, 0, 86, 87
2, 52380, Note_on_c, 0, 86, 0
2, 52380, Note_on_c, 0, 85, 87
2, 52440, Note_on_c, 0, 85, 0
2, 52440, Note_on_c, 0, 86, 87
2, 52500, Note_on_c, 0, 86, 0
2, 52500, Note_on_c, 0, 85, 87
2, 52560, Note_on_c, 0, 85, 0
2, 52560, Note_on_c, 0, 86, 87
2, 52620, Note_on_c, 0, 86, 0
2, 52620, Note_on_c, 0, 85, 87
2, 52680, Note_on_c, 0, 85, 0
2, 52680, Note_on_c, 0, 86, 87
2, 52740, Note_on_c, 0, 86, 0
2, 52740, Note_on_c, 0, 85, 87
2, 52800, Note_on_c, 0, 85, 0
2, 52800, Note_on_c, 0, 86, 87
2, 52860, Note_on_c, 0, 86, 0
2, 52860, Note_on_c, 0, 85, 87
2, 52920, Note_on_c, 0, 85, 0
2, 52920, Note_on_c, 0, 83, 87
2, 52980, Note_on_c, 0, 83, 0
2, 52980, Note_on_c, 0, 81, 87
2, 53040, Note_on_c, 0, 81, 0
2, 53040, Note_on_c, 0, 80, 87
2, 53100, Note_on_c, 0, 80, 0
2, 53100, Note_on_c, 0, 81, 87
2, 53160, Note_on_c, 0, 81, 0
2, 53160, Note_on_c, 0, 83, 87
2, 53220, Note_on_c, 0, 83, 0
2, 53220, Note_on_c, 0, 80, 87
2, 53280, Note_on_c, 0, 80, 0
2, 53280, Note_on_c, 0, 81, 87
2, 53340, Note_on_c, 0, 81, 0
2, 53340, Note_on_c, 0, 83, 87
2, 53400, Note_on_c, 0, 83, 0
2, 53400, Note_on_c, 0, 85, 87
2, 53460, Note_on_c, 0, 85, 0
2, 53460, Note_on_c, 0, 78, 87
2, 53520, Note_on_c, 0, 78, 0
2, 53520, Note_on_c, 0, 77, 87
2, 53580, Note_on_c, 0, 77, 0
2, 53580, Note_on_c, 0, 78, 87
2, 53640, Note_on_c, 0, 78, 0
2, 53640, Note_on_c, 0, 80, 87
2, 53700, Note_on_c, 0, 80, 0
2, 53700, Note_on_c, 0, 77, 87
2, 53760, Note_on_c, 0, 77, 0
2, 53760, Note_on_c, 0, 78, 87
2, 54000, Note_on_c, 0, 78, 0
2, 54000, Note_on_c, 0, 81, 100
2, 54000, Note_on_c, 0, 69, 100
2, 54060, Note_on_c, 0, 69, 0
2, 54060, Note_on_c, 0, 81, 0
2, 54120, Note_on_c, 0, 71, 100
2, 54120, Note_on_c, 0, 83, 100
2, 54180, Note_on_c, 0, 83, 0
2, 54180, Note_on_c, 0, 71, 0
2, 54240, Note_on_c, 0, 73, 100
2, 54240, Note_on_c, 0, 85, 100
2, 54480, Note_on_c, 0, 85, 0
2, 54480, Note_on_c, 0, 73, 0
2, 54480, Note_on_c, 0, 81, 100
2, 54480, Note_on_c, 0, 69, 100
2, 54540, Note_on_c, 0, 69, 0
2, 54540, Note_on_c, 0, 81, 0
2, 54600, Note_on_c, 0, 71, 100
2, 54600, Note_on_c, 0, 83, 100
2, 54660, Note_on_c, 0, 83, 0
2, 54660, Note_on_c, 0, 71, 0
2, 54720, Note_on_c, 0, 85, 100
2, 54720, Note_on_c, 0, 73, 100
2, 54780, Note_on_c, 0, 73, 0
2, 54780, Note_on_c, 0, 85, 0
2, 54840, Note_on_c, 0, 83, 100
2, 54840, Note_on_c, 0, 71, 100
2, 54900, Note_on_c, 0, 71, 0
2, 54900, Note_on_c, 0, 83, 0
2, 54960, Note_on_c, 0, 81, 100
2, 54960, Note_on_c, 0, 69, 100
2, 55020, Note_on_c, 0, 69, 0
2, 55020, Note_on_c, 0, 81, 0
2, 55080, Note_on_c, 0, 68, 100
2, 55080, Note_on_c, 0, 80, 100
2, 55140, Note_on_c, 0, 80, 0
2, 55140, Note_on_c, 0, 68, 0
2, 55200, Note_on_c, 0, 78, 100
2, 55200, Note_on_c, 0, 66, 100
2, 55260, Note_on_c, 0, 66, 0
2, 55260, Note_on_c, 0, 78, 0
2, 55320, Note_on_c, 0, 80, 100
2, 55320, Note_on_c, 0, 68, 100
2, 55380, Note_on_c, 0, 68, 0
2, 55380, Note_on_c, 0, 80, 0
2, 55440, Note_on_c, 0, 81, 100
2, 55440, Note_on_c, 0, 69, 100
2, 55500, Note_on_c, 0, 69, 0
2, 55500, Note_on_c, 0, 81, 0
2, 55560, Note_on_c, 0, 71, 100
2, 55560, Note_on_c, 0, 83, 100
2, 55620, Note_on_c, 0, 83, 0
2, 55620, Note_on_c, 0, 71, 0
2, 55680, Note_on_c, 0, 68, 100
2, 55680, Note_on_c, 0, 80, 100
2, 55800, Note_on_c, 0, 80, 0
2, 55800, Note_on_c, 0, 68, 0
2, 55800, Note_on_c, 0, 76, 100
2, 55800, Note_on_c, 0, 64, 100
2, 55860, Note_on_c, 0, 64, 0
2, 55860, Note_on_c, 0, 76, 0
2, 55920, Note_on_c, 0, 81, 100
2, 55920, Note_on_c, 0, 69, 100
2, 55980, Note_on_c, 0, 69, 0
2, 55980, Note_on_c, 0, 81, 0
2, 56040, Note_on_c, 0, 71, 100
2, 56040, Note_on_c, 0, 83, 100
2, 56100, Note_on_c, 0, 83, 0
2, 56100, Note_on_c, 0, 71, 0
2, 56160, Note_on_c, 0, 73, 100
2, 56160, Note_on_c, 0, 85, 100
2, 56400, Note_on_c, 0, 85, 0
2, 56400, Note_on_c, 0, 73, 0
2, 56400, Note_on_c, 0, 81, 100
2, 56400, Note_on_c, 0, 69, 100
2, 56460, Note_on_c, 0, 69, 0
2, 56460, Note_on_c, 0, 81, 0
2, 56520, Note_on_c, 0, 71, 100
2, 56520, Note_on_c, 0, 83, 100
2, 56580, Note_on_c, 0, 83, 0
2, 56580, Note_on_c, 0, 71, 0
2, 56640, Note_on_c, 0, 85, 100
2, 56640, Note_on_c, 0, 73, 100
2, 56700, Note_on_c, 0, 73, 0
2, 56700, Note_on_c, 0, 85, 0
2, 56760, Note_on_c, 0, 83, 100
2, 56760, Note_on_c, 0, 71, 100
2, 56820, Note_on_c, 0, 71, 0
2, 56820, Note_on_c, 0, 83, 0
2, 56880, Note_on_c, 0, 81, 100
2, 56880, Note_on_c, 0, 69, 100
2, 56940, Note_on_c, 0, 69, 0
2, 56940, Note_on_c, 0, 81, 0
2, 57000, Note_on_c, 0, 68, 100
2, 57000, Note_on_c, 0, 80, 100
2, 57060, Note_on_c, 0, 80, 0
2, 57060, Note_on_c, 0, 68, 0
2, 57120, Note_on_c, 0, 78, 100
2, 57120, Note_on_c, 0, 66, 100
2, 57180, Note_on_c, 0, 66, 0
2, 57180, Note_on_c, 0, 78, 0
2, 57240, Note_on_c, 0, 83, 100
2, 57240, Note_on_c, 0, 71, 100
2, 57300, Note_on_c, 0, 71, 0
2, 57300, Note_on_c, 0, 83, 0
2, 57360, Note_on_c, 0, 80, 100
2, 57360, Note_on_c, 0, 68, 100
2, 57420, Note_on_c, 0, 68, 0
2, 57420, Note_on_c, 0, 80, 0
2, 57480, Note_on_c, 0, 64, 100
2, 57480, Note_on_c, 0, 76, 100
2, 57540, Note_on_c, 0, 76, 0
2, 57540, Note_on_c, 0, 64, 0
2, 57600, Note_on_c, 0, 69, 100
2, 57600, Note_on_c, 0, 81, 100
2, 57800, Note_on_c, 0, 81, 0
2, 57800, Note_on_c, 0, 69, 0
2, 57840, Note_on_c, 0, 81, 100
2, 57840, Note_on_c, 0, 69, 100
2, 57900, Note_on_c, 0, 69, 0
2, 57900, Note_on_c, 0, 81, 0
2, 57960, Note_on_c, 0, 71, 100
2, 57960, Note_on_c, 0, 83, 100
2, 58020, Note_on_c, 0, 83, 0
2, 58020, Note_on_c, 0, 71, 0
2, 58080, Note_on_c, 0, 73, 100
2, 58080, Note_on_c, 0, 85, 100
2, 58320, Note_on_c, 0, 85, 0
2, 58320, Note_on_c, 0, 73, 0
2, 58320, Note_on_c, 0, 81, 100
2, 58320, Note_on_c, 0, 69, 100
2, 58380, Note_on_c, 0, 69, 0
2, 58380, Note_on_c, 0, 81, 0
2, 58440, Note_on_c, 0, 71, 100
2, 58440, Note_on_c, 0, 83, 100
2, 58500, Note_on_c, 0, 83, 0
2, 58500, Note_on_c, 0, 71, 0
2, 58560, Note_on_c, 0, 85, 100
2, 58560, Note_on_c, 0, 73, 100
2, 58620, Note_on_c, 0, 73, 0
2, 58620, Note_on_c, 0, 85, 0
2, 58680, Note_on_c, 0, 83, 100
2, 58680, Note_on_c, 0, 71, 100
2, 58740, Note_on_c, 0, 71, 0
2, 58740, Note_on_c, 0, 83, 0
2, 58800, Note_on_c, 0, 81, 100
2, 58800, Note_on_c, 0, 69, 100
2, 58860, Note_on_c, 0, 69, 0
2, 58860, Note_on_c, 0, 81, 0
2, 58920, Note_on_c, 0, 68, 100
2, 58920, Note_on_c, 0, 80, 100
2, 58980, Note_on_c, 0, 80, 0
2, 58980, Note_on_c, 0, 68, 0
2, 59040, Note_on_c, 0, 78, 100
2, 59040, Note_on_c, 0, 66, 100
2, 59100, Note_on_c, 0, 66, 0
2, 59100, Note_on_c, 0, 78, 0
2, 59160, Note_on_c, 0, 80, 100
2, 59160, Note_on_c, 0, 68, 100
2, 59220, Note_on_c, 0, 68, 0
2, 59220, Note_on_c, 0, 80, 0
2, 59280, Note_on_c, 0, 81, 100
2, 59280, Note_on_c, 0, 69, 100
2, 59340, Note_on_c, 0, 69, 0
2, 59340, Note_on_c, 0, 81, 0
2, 59400, Note_on_c, 0, 71, 100
2, 59400, Note_on_c, 0, 83, 100
2, 59460, Note_on_c, 0, 83, 0
2, 59460, Note_on_c, 0, 71, 0
2, 59520, Note_on_c, 0, 68, 100
2, 59520, Note_on_c, 0, 80, 100
2, 59640, Note_on_c, 0, 80, 0
2, 59640, Note_on_c, 0, 68, 0
2, 59640, Note_on_c, 0, 76, 100
2, 59640, Note_on_c, 0, 64, 100
2, 59700, Note_on_c, 0, 64, 0
2, 59700, Note_on_c, 0, 76, 0
2, 59760, Note_on_c, 0, 81, 100
2, 59760, Note_on_c, 0, 69, 100
2, 59820, Note_on_c, 0, 69, 0
2, 59820, Note_on_c, 0, 81, 0
2, 59880, Note_on_c, 0, 71, 100
2, 59880, Note_on_c, 0, 83, 100
2, 59940, Note_on_c, 0, 83, 0
2, 59940, Note_on_c, 0, 71, 0
2, 60000, Note_on_c, 0, 73, 100
2, 60000, Note_on_c, 0, 85, 100
2, 60240, Note_on_c, 0, 85, 0
2, 60240, Note_on_c, 0, 73, 0
2, 60240, Note_on_c, 0, 81, 100
2, 60240, Note_on_c, 0, 69, 100
2, 60300, Note_on_c, 0, 69, 0
2, 60300, Note_on_c, 0, 81, 0
2, 60360, Note_on_c, 0, 71, 100
2, 60360, Note_on_c, 0, 83, 100
2, 60420, Note_on_c, 0, 83, 0
2, 60420, Note_on_c, 0, 71, 0
2, 60480, Note_on_c, 0, 85, 100
2, 60480, Note_on_c, 0, 73, 100
2, 60540, Note_on_c, 0, 73, 0
2, 60540, Note_on_c, 0, 85, 0
2, 60600, Note_on_c, 0, 83, 100
2, 60600, Note_on_c, 0, 71, 100
2, 60660, Note_on_c, 0, 71, 0
2, 60660, Note_on_c, 0, 83, 0
2, 60720, Note_on_c, 0, 81, 100
2, 60720, Note_on_c, 0, 69, 100
2, 60780, Note_on_c, 0, 69, 0
2, 60780, Note_on_c, 0, 81, 0
2, 60840, Note_on_c, 0, 68, 100
2, 60840, Note_on_c, 0, 80, 100
2, 60900, Note_on_c, 0, 80, 0
2, 60900, Note_on_c, 0, 68, 0
2, 60960, Note_on_c, 0, 78, 100
2, 60960, Note_on_c, 0, 66, 100
2, 61020, Note_on_c, 0, 66, 0
2, 61020, Note_on_c, 0, 78, 0
2, 61080, Note_on_c, 0, 83, 100
2, 61080, Note_on_c, 0, 71, 100
2, 61140, Note_on_c, 0, 71, 0
2, 61140, Note_on_c, 0, 83, 0
2, 61200, Note_on_c, 0, 80, 100
2, 61200, Note_on_c, 0, 68, 100
2, 61260, Note_on_c, 0, 68, 0
2, 61260, Note_on_c, 0, 80, 0
2, 61320, Note_on_c, 0, 64, 100
2, 61320, Note_on_c, 0, 76, 100
2, 61380, Note_on_c, 0, 76, 0
2, 61380, Note_on_c, 0, 64, 0
2, 61440, Note_on_c, 0, 81, 100
2, 61440, Note_on_c, 0, 69, 100
2, 61640, Note_on_c, 0, 69, 0
2, 61640, Note_on_c, 0, 81, 0
2, 61680, Note_on_c, 0, 71, 87
2, 61740, Note_on_c, 0, 71, 0
2, 61740, Note_on_c, 0, 69, 87
2, 61800, Note_on_c, 0, 69, 0
2, 61800, Note_on_c, 0, 68, 87
2, 61860, Note_on_c, 0, 68, 0
2, 61860, Note_on_c, 0, 69, 87
2, 61920, Note_on_c, 0, 69, 0
2, 61920, Note_on_c, 0, 72, 87
2, 62040, Note_on_c, 0, 72, 0
2, 62160, Note_on_c, 0, 74, 87
2, 62220, Note_on_c, 0, 74, 0
2, 62220, Note_on_c, 0, 72, 87
2, 62280, Note_on_c, 0, 72, 0
2, 62280, Note_on_c, 0, 71, 87
2, 62340, Note_on_c, 0, 71, 0
2, 62340, Note_on_c, 0, 72, 87
2, 62400, Note_on_c, 0, 72, 0
2, 62400, Note_on_c, 0, 76, 87
2, 62520, Note_on_c, 0, 76, 0
2, 62640, Note_on_c, 0, 77, 87
2, 62700, Note_on_c, 0, 77, 0
2, 62700, Note_on_c, 0, 76, 87
2, 62760, Note_on_c, 0, 76, 0
2, 62760, Note_on_c, 0, 75, 87
2, 62820, Note_on_c, 0, 75, 0
2, 62820, Note_on_c, 0, 76, 87
2, 62880, Note_on_c, 0, 76, 0
2, 62880, Note_on_c, 0, 83, 87
2, 62940, Note_on_c, 0, 83, 0
2, 62940, Note_on_c, 0, 81, 87
2, 63000, Note_on_c, 0, 81, 0
2, 63000, Note_on_c, 0, 80, 87
2, 63060, Note_on_c, 0, 80, 0
2, 63060, Note_on_c, 0, 81, 87
2, 63120, Note_on_c, 0, 81, 0
2, 63120, Note_on_c, 0, 83, 87
2, 63180, Note_on_c, 0, 83, 0
2, 63180, Note_on_c, 0, 81, 87
2, 63240, Note_on_c, 0, 81, 0
2, 63240, Note_on_c, 0, 80, 87
2, 63300, Note_on_c, 0, 80, 0
2, 63300, Note_on_c, 0, 81, 87
2, 63360, Note_on_c, 0, 81, 0
2, 63360, Note_on_c, 0, 84, 87
2, 63600, Note_on_c, 0, 84, 0
2, 63600, Note_on_c, 0, 81, 87
2, 63660, Note_on_c, 0, 81, 0
2, 63720, Note_on_c, 0, 84, 87
2, 63780, Note_on_c, 0, 84, 0
2, 63840, Note_on_c, 0, 79, 110
2, 63860, Note_on_c, 0, 79, 0
2, 63860, Note_on_c, 0, 81, 110
2, 63880, Note_on_c, 0, 81, 0
2, 63880, Note_on_c, 0, 83, 87
2, 63920, Note_on_c, 0, 83, 0
2, 63960, Note_on_c, 0, 81, 87
2, 63960, Note_on_c, 0, 78, 87
2, 64020, Note_on_c, 0, 78, 0
2, 64020, Note_on_c, 0, 81, 0
2, 64080, Note_on_c, 0, 79, 87
2, 64080, Note_on_c, 0, 76, 87
2, 64140, Note_on_c, 0, 76, 0
2, 64140, Note_on_c, 0, 79, 0
2, 64200, Note_on_c, 0, 78, 87
2, 64200, Note_on_c, 0, 81, 87
2, 64260, Note_on_c, 0, 81, 0
2, 64260, Note_on_c, 0, 78, 0
2, 64320, Note_on_c, 0, 79, 110
2, 64340, Note_on_c, 0, 79, 0
2, 64340, Note_on_c, 0, 81, 110
2, 64360, Note_on_c, 0, 81, 0
2, 64360, Note_on_c, 0, 83, 87
2, 64400, Note_on_c, 0, 83, 0
2, 64440, Note_on_c, 0, 81, 87
2, 64440, Note_on_c, 0, 78, 87
2, 64500, Note_on_c, 0, 78, 0
2, 64500, Note_on_c, 0, 81, 0
2, 64560, Note_on_c, 0, 79, 87
2, 64560, Note_on_c, 0, 76, 87
2, 64620, Note_on_c, 0, 76, 0
2, 64620, Note_on_c, 0, 79, 0
2, 64680, Note_on_c, 0, 78, 87
2, 64680, Note_on_c, 0, 81, 87
2, 64740, Note_on_c, 0, 81, 0
2, 64740, Note_on_c, 0, 78, 0
2, 64800, Note_on_c, 0, 79, 110
2, 64820, Note_on_c, 0, 79, 0
2, 64820, Note_on_c, 0, 81, 110
2, 64840, Note_on_c, 0, 81, 0
2, 64840, Note_on_c, 0, 83, 87
2, 64880, Note_on_c, 0, 83, 0
2, 64920, Note_on_c, 0, 81, 87
2, 64920, Note_on_c, 0, 78, 87
2, 64980, Note_on_c, 0, 78, 0
2, 64980, Note_on_c, 0, 81, 0
2, 65040, Note_on_c, 0, 79, 87
2, 65040, Note_on_c, 0, 76, 87
2, 65100, Note_on_c, 0, 76, 0
2, 65100, Note_on_c, 0, 79, 0
2, 65160, Note_on_c, 0, 75, 87
2, 65160, Note_on_c, 0, 78, 87
2, 65220, Note_on_c, 0, 78, 0
2, 65220, Note_on_c, 0, 75, 0
2, 65280, Note_on_c, 0, 76, 87
2, 65520, Note_on_c, 0, 76, 0
2, 65520, Note_on_c, 0, 71, 87
2, 65580, Note_on_c, 0, 71, 0
2, 65580, Note_on_c, 0, 69, 87
2, 65640, Note_on_c, 0, 69, 0
2, 65640, Note_on_c, 0, 68, 87
2, 65700, Note_on_c, 0, 68, 0
2, 65700, Note_on_c, 0, 69, 87
2, 65760, Note_on_c, 0, 69, 0
2, 65760, Note_on_c, 0, 72, 87
2, 66000, Note_on_c, 0, 72, 0
2, 66000, Note_on_c, 0, 74, 87
2, 66060, Note_on_c, 0, 74, 0
2, 66060, Note_on_c, 0, 72, 87
2, 66120, Note_on_c, 0, 72, 0
2, 66120, Note_on_c, 0, 71, 87
2, 66180, Note_on_c, 0, 71, 0
2, 66180, Note_on_c, 0, 72, 87
2, 66240, Note_on_c, 0, 72, 0
2, 66240, Note_on_c, 0, 76, 87
2, 66480, Note_on_c, 0, 76, 0
2, 66480, Note_on_c, 0, 77, 87
2, 66540, Note_on_c, 0, 77, 0
2, 66540, Note_on_c, 0, 76, 87
2, 66600, Note_on_c, 0, 76, 0
2, 66600, Note_on_c, 0, 75, 87
2, 66660, Note_on_c, 0, 75, 0
2, 66660, Note_on_c, 0, 76, 87
2, 66720, Note_on_c, 0, 76, 0
2, 66720, Note_on_c, 0, 83, 87
2, 66780, Note_on_c, 0, 83, 0
2, 66780, Note_on_c, 0, 81, 87
2, 66840, Note_on_c, 0, 81, 0
2, 66840, Note_on_c, 0, 80, 87
2, 66900, Note_on_c, 0, 80, 0
2, 66900, Note_on_c, 0, 81, 87
2, 66960, Note_on_c, 0, 81, 0
2, 66960, Note_on_c, 0, 83, 87
2, 67020, Note_on_c, 0, 83, 0
2, 67020, Note_on_c, 0, 81, 87
2, 67080, Note_on_c, 0, 81, 0
2, 67080, Note_on_c, 0, 80, 87
2, 67140, Note_on_c, 0, 80, 0
2, 67140, Note_on_c, 0, 81, 87
2, 67200, Note_on_c, 0, 81, 0
2, 67200, Note_on_c, 0, 84, 87
2, 67440, Note_on_c, 0, 84, 0
2, 67440, Note_on_c, 0, 81, 87
2, 67500, Note_on_c, 0, 81, 0
2, 67560, Note_on_c, 0, 84, 87
2, 67620, Note_on_c, 0, 84, 0
2, 67680, Note_on_c, 0, 79, 110
2, 67700, Note_on_c, 0, 79, 0
2, 67700, Note_on_c, 0, 81, 110
2, 67720, Note_on_c, 0, 81, 0
2, 67720, Note_on_c, 0, 83, 87
2, 67760, Note_on_c, 0, 83, 0
2, 67800, Note_on_c, 0, 81, 87
2, 67800, Note_on_c, 0, 78, 87
2, 67860, Note_on_c, 0, 78, 0
2, 67860, Note_on_c, 0, 81, 0
2, 67920, Note_on_c, 0, 79, 87
2, 67920, Note_on_c, 0, 76, 87
2, 67980, Note_on_c, 0, 76, 0
2, 67980, Note_on_c, 0, 79, 0
2, 68040, Note_on_c, 0, 78, 87
2, 68040, Note_on_c, 0, 81, 87
2, 68100, Note_on_c, 0, 81, 0
2, 68100, Note_on_c, 0, 78, 0
2, 68160, Note_on_c, 0, 79, 110
2, 68180, Note_on_c, 0, 79, 0
2, 68180, Note_on_c, 0, 81, 110
2, 68200, Note_on_c, 0, 81, 0
2, 68200, Note_on_c, 0, 83, 87
2, 68240, Note_on_c, 0, 83, 0
2, 68280, Note_on_c, 0, 81, 87
2, 68280, Note_on_c, 0, 78, 87
2, 68340, Note_on_c, 0, 78, 0
2, 68340, Note_on_c, 0, 81, 0
2, 68400, Note_on_c, 0, 79, 87
2, 68400, Note_on_c, 0, 76, 87
2, 68460, Note_on_c, 0, 76, 0
2, 68460, Note_on_c, 0, 79, 0
2, 68520, Note_on_c, 0, 78, 87
2, 68520, Note_on_c, 0, 81, 87
2, 68580, Note_on_c, 0, 81, 0
2, 68580, Note_on_c, 0, 78, 0
2, 68640, Note_on_c, 0, 79, 110
2, 68660, Note_on_c, 0, 79, 0
2, 68660, Note_on_c, 0, 81, 110
2, 68680, Note_on_c, 0, 81, 0
2, 68680, Note_on_c, 0, 83, 87
2, 68720, Note_on_c, 0, 83, 0
2, 68760, Note_on_c, 0, 81, 87
2, 68760, Note_on_c, 0, 78, 87
2, 68820, Note_on_c, 0, 78, 0
2, 68820, Note_on_c, 0, 81, 0
2, 68880, Note_on_c, 0, 79, 87
2, 68880, Note_on_c, 0, 76, 87
2, 68940, Note_on_c, 0, 76, 0
2, 68940, Note_on_c, 0, 79, 0
2, 69000, Note_on_c, 0, 75, 87
2, 69000, Note_on_c, 0, 78, 87
2, 69060, Note_on_c, 0, 78, 0
2, 69060, Note_on_c, 0, 75, 0
2, 69120, Note_on_c, 0, 76, 87
2, 69340, Note_on_c, 0, 76, 0
2, 69360, Note_on_c, 0, 72, 87
2, 69360, Note_on_c, 0, 76, 87
2, 69420, Note_on_c, 0, 76, 0
2, 69420, Note_on_c, 0, 72, 0
2, 69480, Note_on_c, 0, 77, 87
2, 69480, Note_on_c, 0, 74, 87
2, 69540, Note_on_c, 0, 74, 0
2, 69540, Note_on_c, 0, 77, 0
2, 69600, Note_on_c, 0, 79, 87
2, 69600, Note_on_c, 0, 76, 87
2, 69660, Note_on_c, 0, 76, 0
2, 69660, Note_on_c, 0, 79, 0
2, 69720, Note_on_c, 0, 79, 87
2, 69720, Note_on_c, 0, 76, 87
2, 69780, Note_on_c, 0, 76, 0
2, 69780, Note_on_c, 0, 79, 0
2, 69840, Note_on_c, 0, 81, 87
2, 69900, Note_on_c, 0, 81, 0
2, 69900, Note_on_c, 0, 79, 87
2, 69960, Note_on_c, 0, 79, 0
2, 69960, Note_on_c, 0, 77, 87
2, 70020, Note_on_c, 0, 77, 0
2, 70020, Note_on_c, 0, 76, 87
2, 70080, Note_on_c, 0, 76, 0
2, 70080, Note_on_c, 0, 74, 87
2, 70080, Note_on_c, 0, 71, 87
2, 70200, Note_on_c, 0, 71, 0
2, 70200, Note_on_c, 0, 67, 87
2, 70320, Note_on_c, 0, 67, 0
2, 70320, Note_on_c, 0, 74, 0
2, 70320, Note_on_c, 0, 76, 87
2, 70320, Note_on_c, 0, 72, 87
2, 70380, Note_on_c, 0, 72, 0
2, 70380, Note_on_c, 0, 76, 0
2, 70440, Note_on_c, 0, 74, 87
2, 70440, Note_on_c, 0, 77, 87
2, 70500, Note_on_c, 0, 77, 0
2, 70500, Note_on_c, 0, 74, 0
2, 70560, Note_on_c, 0, 79, 87
2, 70560, Note_on_c, 0, 76, 87
2, 70620, Note_on_c, 0, 76, 0
2, 70620, Note_on_c, 0, 79, 0
2, 70680, Note_on_c, 0, 79, 87
2, 70680, Note_on_c, 0, 76, 87
2, 70740, Note_on_c, 0, 76, 0
2, 70740, Note_on_c, 0, 79, 0
2, 70800, Note_on_c, 0, 81, 87
2, 70860, Note_on_c, 0, 81, 0
2, 70860, Note_on_c, 0, 79, 87
2, 70920, Note_on_c, 0, 79, 0
2, 70920, Note_on_c, 0, 77, 87
2, 70980, Note_on_c, 0, 77, 0
2, 70980, Note_on_c, 0, 76, 87
2, 71040, Note_on_c, 0, 76, 0
2, 71040, Note_on_c, 0, 71, 87
2, 71040, Note_on_c, 0, 74, 87
2, 71280, Note_on_c, 0, 74, 0
2, 71280, Note_on_c, 0, 71, 0
2, 71280, Note_on_c, 0, 72, 87
2, 71280, Note_on_c, 0, 69, 87
2, 71340, Note_on_c, 0, 69, 0
2, 71340, Note_on_c, 0, 72, 0
2, 71400, Note_on_c, 0, 71, 87
2, 71400, Note_on_c, 0, 74, 87
2, 71460, Note_on_c, 0, 74, 0
2, 71460, Note_on_c, 0, 71, 0
2, 71520, Note_on_c, 0, 76, 87
2, 71520, Note_on_c, 0, 72, 87
2, 71580, Note_on_c, 0, 72, 0
2, 71580, Note_on_c, 0, 76, 0
2, 71640, Note_on_c, 0, 76, 87
2, 71640, Note_on_c, 0, 72, 87
2, 71700, Note_on_c, 0, 72, 0
2, 71700, Note_on_c, 0, 76, 0
2, 71760, Note_on_c, 0, 77, 87
2, 71820, Note_on_c, 0, 77, 0
2, 71820, Note_on_c, 0, 76, 87
2, 71880, Note_on_c, 0, 76, 0
2, 71880, Note_on_c, 0, 74, 87
2, 71940, Note_on_c, 0, 74, 0
2, 71940, Note_on_c, 0, 72, 87
2, 72000, Note_on_c, 0, 72, 0
2, 72000, Note_on_c, 0, 71, 87
2, 72000, Note_on_c, 0, 68, 87
2, 72120, Note_on_c, 0, 68, 0
2, 72120, Note_on_c, 0, 64, 87
2, 72240, Note_on_c, 0, 64, 0
2, 72240, Note_on_c, 0, 71, 0
2, 72240, Note_on_c, 0, 72, 87
2, 72240, Note_on_c, 0, 69, 87
2, 72300, Note_on_c, 0, 69, 0
2, 72300, Note_on_c, 0, 72, 0
2, 72360, Note_on_c, 0, 71, 87
2, 72360, Note_on_c, 0, 74, 87
2, 72420, Note_on_c, 0, 74, 0
2, 72420, Note_on_c, 0, 71, 0
2, 72480, Note_on_c, 0, 76, 87
2, 72480, Note_on_c, 0, 72, 87
2, 72540, Note_on_c, 0, 72, 0
2, 72540, Note_on_c, 0, 76, 0
2, 72600, Note_on_c, 0, 76, 87
2, 72600, Note_on_c, 0, 72, 87
2, 72660, Note_on_c, 0, 72, 0
2, 72660, Note_on_c, 0, 76, 0
2, 72720, Note_on_c, 0, 77, 87
2, 72780, Note_on_c, 0, 77, 0
2, 72780, Note_on_c, 0, 76, 87
2, 72840, Note_on_c, 0, 76, 0
2, 72840, Note_on_c, 0, 74, 87
2, 72900, Note_on_c, 0, 74, 0
2, 72900, Note_on_c, 0, 72, 87
2, 72960, Note_on_c, 0, 72, 0
2, 72960, Note_on_c, 0, 68, 87
2, 72960, Note_on_c, 0, 71, 87
2, 73200, Note_on_c, 0, 71, 0
2, 73200, Note_on_c, 0, 68, 0
2, 73200, Note_on_c, 0, 71, 87
2, 73260, Note_on_c, 0, 71, 0
2, 73260, Note_on_c, 0, 69, 87
2, 73320, Note_on_c, 0, 69, 0
2, 73320, Note_on_c, 0, 68, 87
2, 73380, Note_on_c, 0, 68, 0
2, 73380, Note_on_c, 0, 69, 87
2, 73440, Note_on_c, 0, 69, 0
2, 73440, Note_on_c, 0, 72, 87
2, 73560, Note_on_c, 0, 72, 0
2, 73680, Note_on_c, 0, 74, 87
2, 73740, Note_on_c, 0, 74, 0
2, 73740, Note_on_c, 0, 72, 87
2, 73800, Note_on_c, 0, 72, 0
2, 73800, Note_on_c, 0, 71, 87
2, 73860, Note_on_c, 0, 71, 0
2, 73860, Note_on_c, 0, 72, 87
2, 73920, Note_on_c, 0, 72, 0
2, 73920, Note_on_c, 0, 76, 87
2, 74040, Note_on_c, 0, 76, 0
2, 74160, Note_on_c, 0, 77, 87
2, 74220, Note_on_c, 0, 77, 0
2, 74220, Note_on_c, 0, 76, 87
2, 74280, Note_on_c, 0, 76, 0
2, 74280, Note_on_c, 0, 75, 87
2, 74340, Note_on_c, 0, 75, 0
2, 74340, Note_on_c, 0, 76, 87
2, 74400, Note_on_c, 0, 76, 0
2, 74400, Note_on_c, 0, 83, 87
2, 74460, Note_on_c, 0, 83, 0
2, 74460, Note_on_c, 0, 81, 87
2, 74520, Note_on_c, 0, 81, 0
2, 74520, Note_on_c, 0, 80, 87
2, 74580, Note_on_c, 0, 80, 0
2, 74580, Note_on_c, 0, 81, 87
2, 74640, Note_on_c, 0, 81, 0
2, 74640, Note_on_c, 0, 83, 87
2, 74700, Note_on_c, 0, 83, 0
2, 74700, Note_on_c, 0, 81, 87
2, 74760, Note_on_c, 0, 81, 0
2, 74760, Note_on_c, 0, 80, 87
2, 74820, Note_on_c, 0, 80, 0
2, 74820, Note_on_c, 0, 81, 87
2, 74880, Note_on_c, 0, 81, 0
2, 74880, Note_on_c, 0, 84, 87
2, 75120, Note_on_c, 0, 84, 0
2, 75120, Note_on_c, 0, 81, 87
2, 75180, Note_on_c, 0, 81, 0
2, 75240, Note_on_c, 0, 83, 87
2, 75300, Note_on_c, 0, 83, 0
2, 75360, Note_on_c, 0, 84, 87
2, 75420, Note_on_c, 0, 84, 0
2, 75480, Note_on_c, 0, 83, 87
2, 75540, Note_on_c, 0, 83, 0
2, 75600, Note_on_c, 0, 81, 87
2, 75660, Note_on_c, 0, 81, 0
2, 75720, Note_on_c, 0, 80, 87
2, 75780, Note_on_c, 0, 80, 0
2, 75840, Note_on_c, 0, 81, 87
2, 75900, Note_on_c, 0, 81, 0
2, 75960, Note_on_c, 0, 76, 87
2, 76020, Note_on_c, 0, 76, 0
2, 76080, Note_on_c, 0, 77, 87
2, 76140, Note_on_c, 0, 77, 0
2, 76200, Note_on_c, 0, 74, 87
2, 76260, Note_on_c, 0, 74, 0
2, 76320, Note_on_c, 0, 72, 87
2, 76560, Note_on_c, 0, 72, 0
2, 76560, Note_on_c, 0, 71, 103
2, 76590, Note_on_c, 0, 71, 0
2, 76590, Note_on_c, 0, 72, 72
2, 76620, Note_on_c, 0, 72, 0
2, 76620, Note_on_c, 0, 71, 75
2, 76650, Note_on_c, 0, 71, 0
2, 76650, Note_on_c, 0, 72, 76
2, 76680, Note_on_c, 0, 72, 0
2, 76680, Note_on_c, 0, 71, 78
2, 76700, Note_on_c, 0, 71, 0
2, 76700, Note_on_c, 0, 72, 80
2, 76720, Note_on_c, 0, 72, 0
2, 76720, Note_on_c, 0, 71, 82
2, 76740, Note_on_c, 0, 71, 0
2, 76740, Note_on_c, 0, 69, 85
2, 76770, Note_on_c, 0, 69, 0
2, 76770, Note_on_c, 0, 71, 86
2, 76800, Note_on_c, 0, 71, 0
2, 76800, Note_on_c, 0, 69, 87
2, 77020, Note_on_c, 0, 69, 0
2, 77040, Note_on_c, 0, 72, 87
2, 77040, Note_on_c, 0, 76, 87
2, 77100, Note_on_c, 0, 76, 0
2, 77100, Note_on_c, 0, 72, 0
2, 77160, Note_on_c, 0, 77, 87
2, 77160, Note_on_c, 0, 74, 87
2, 77220, Note_on_c, 0, 74, 0
2, 77220, Note_on_c, 0, 77, 0
2, 77280, Note_on_c, 0, 79, 87
2, 77280, Note_on_c, 0, 76, 87
2, 77340, Note_on_c, 0, 76, 0
2, 77340, Note_on_c, 0, 79, 0
2, 77400, Note_on_c, 0, 79, 87
2, 77400, Note_on_c, 0, 76, 87
2, 77460, Note_on_c, 0, 76, 0
2, 77460, Note_on_c, 0, 79, 0
2, 77520, Note_on_c, 0, 81, 87
2, 77580, Note_on_c, 0, 81, 0
2, 77580, Note_on_c, 0, 79, 87
2, 77640, Note_on_c, 0, 79, 0
2, 77640, Note_on_c, 0, 77, 87
2, 77700, Note_on_c, 0, 77, 0
2, 77700, Note_on_c, 0, 76, 87
2, 77760, Note_on_c, 0, 76, 0
2, 77760, Note_on_c, 0, 74, 87
2, 77760, Note_on_c, 0, 71, 87
2, 77880, Note_on_c, 0, 71, 0
2, 77880, Note_on_c, 0, 67, 87
2, 78000, Note_on_c, 0, 67, 0
2, 78000, Note_on_c, 0, 74, 0
2, 78000, Note_on_c, 0, 76, 87
2, 78000, Note_on_c, 0, 72, 87
2, 78060, Note_on_c, 0, 72, 0
2, 78060, Note_on_c, 0, 76, 0
2, 78120, Note_on_c, 0, 74, 87
2, 78120, Note_on_c, 0, 77, 87
2, 78180, Note_on_c, 0, 77, 0
2, 78180, Note_on_c, 0, 74, 0
2, 78240, Note_on_c, 0, 79, 87
2, 78240, Note_on_c, 0, 76, 87
2, 78300, Note_on_c, 0, 76, 0
2, 78300, Note_on_c, 0, 79, 0
2, 78360, Note_on_c, 0, 79, 87
2, 78360, Note_on_c, 0, 76, 87
2, 78420, Note_on_c, 0, 76, 0
2, 78420, Note_on_c, 0, 79, 0
2, 78480, Note_on_c, 0, 81, 87
2, 78540, Note_on_c, 0, 81, 0
2, 78540, Note_on_c, 0, 79, 87
2, 78600, Note_on_c, 0, 79, 0
2, 78600, Note_on_c, 0, 77, 87
2, 78660, Note_on_c, 0, 77, 0
2, 78660, Note_on_c, 0, 76, 87
2, 78720, Note_on_c, 0, 76, 0
2, 78720, Note_on_c, 0, 71, 87
2, 78720, Note_on_c, 0, 74, 87
2, 78960, Note_on_c, 0, 74, 0
2, 78960, Note_on_c, 0, 71, 0
2, 78960, Note_on_c, 0, 72, 87
2, 78960, Note_on_c, 0, 69, 87
2, 79020, Note_on_c, 0, 69, 0
2, 79020, Note_on_c, 0, 72, 0
2, 79080, Note_on_c, 0, 71, 87
2, 79080, Note_on_c, 0, 74, 87
2, 79140, Note_on_c, 0, 74, 0
2, 79140, Note_on_c, 0, 71, 0
2, 79200, Note_on_c, 0, 76, 87
2, 79200, Note_on_c, 0, 72, 87
2, 79260, Note_on_c, 0, 72, 0
2, 79260, Note_on_c, 0, 76, 0
2, 79320, Note_on_c, 0, 76, 87
2, 79320, Note_on_c, 0, 72, 87
2, 79380, Note_on_c, 0, 72, 0
2, 79380, Note_on_c, 0, 76, 0
2, 79440, Note_on_c, 0, 77, 87
2, 79500, Note_on_c, 0, 77, 0
2, 79500, Note_on_c, 0, 76, 87
2, 79560, Note_on_c, 0, 76, 0
2, 79560, Note_on_c, 0, 74, 87
2, 79620, Note_on_c, 0, 74, 0
2, 79620, Note_on_c, 0, 72, 87
2, 79680, Note_on_c, 0, 72, 0
2, 79680, Note_on_c, 0, 71, 87
2, 79680, Note_on_c, 0, 68, 87
2, 79800, Note_on_c, 0, 68, 0
2, 79800, Note_on_c, 0, 64, 87
2, 79920, Note_on_c, 0, 64, 0
2, 79920, Note_on_c, 0, 71, 0
2, 79920, Note_on_c, 0, 72, 87
2, 79920, Note_on_c, 0, 69, 87
2, 79980, Note_on_c, 0, 69, 0
2, 79980, Note_on_c, 0, 72, 0
2, 80040, Note_on_c, 0, 71, 87
2, 80040, Note_on_c, 0, 74, 87
2, 80100, Note_on_c, 0, 74, 0
2, 80100, Note_on_c, 0, 71, 0
2, 80160, Note_on_c, 0, 76, 87
2, 80160, Note_on_c, 0, 72, 87
2, 80220, Note_on_c, 0, 72, 0
2, 80220, Note_on_c, 0, 76, 0
2, 80280, Note_on_c, 0, 76, 87
2, 80280, Note_on_c, 0, 72, 87
2, 80340, Note_on_c, 0, 72, 0
2, 80340, Note_on_c, 0, 76, 0
2, 80400, Note_on_c, 0, 77, 87
2, 80460, Note_on_c, 0, 77, 0
2, 80460, Note_on_c, 0, 76, 87
2, 80520, Note_on_c, 0, 76, 0
2, 80520, Note_on_c, 0, 74, 87
2, 80580, Note_on_c, 0, 74, 0
2, 80580, Note_on_c, 0, 72, 87
2, 80640, Note_on_c, 0, 72, 0
2, 80640, Note_on_c, 0, 68, 87
2, 80640, Note_on_c, 0, 71, 87
2, 80880, Note_on_c, 0, 71, 0
2, 80880, Note_on_c, 0, 68, 0
2, 80880, Note_on_c, 0, 71, 87
2, 80940, Note_on_c, 0, 71, 0
2, 80940, Note_on_c, 0, 69, 87
2, 81000, Note_on_c, 0, 69, 0
2, 81000, Note_on_c, 0, 68, 87
2, 81060, Note_on_c, 0, 68, 0
2, 81060, Note_on_c, 0, 69, 87
2, 81120, Note_on_c, 0, 69, 0
2, 81120, Note_on_c, 0, 72, 87
2, 81240, Note_on_c, 0, 72, 0
2, 81360, Note_on_c, 0, 74, 87
2, 81420, Note_on_c, 0, 74, 0
2, 81420, Note_on_c, 0, 72, 87
2, 81480, Note_on_c, 0, 72, 0
2, 81480, Note_on_c, 0, 71, 87
2, 81540, Note_on_c, 0, 71, 0
2, 81540, Note_on_c, 0, 72, 87
2, 81600, Note_on_c, 0, 72, 0
2, 81600, Note_on_c, 0, 76, 87
2, 81720, Note_on_c, 0, 76, 0
2, 81840, Note_on_c, 0, 77, 87
2, 81900, Note_on_c, 0, 77, 0
2, 81900, Note_on_c, 0, 76, 87
2, 81960, Note_on_c, 0, 76, 0
2, 81960, Note_on_c, 0, 75, 87
2, 82020, Note_on_c, 0, 75, 0
2, 82020, Note_on_c, 0, 76, 87
2, 82080, Note_on_c, 0, 76, 0
2, 82080, Note_on_c, 0, 83, 87
2, 82140, Note_on_c, 0, 83, 0
2, 82140, Note_on_c, 0, 81, 87
2, 82200, Note_on_c, 0, 81, 0
2, 82200, Note_on_c, 0, 80, 87
2, 82260, Note_on_c, 0, 80, 0
2, 82260, Note_on_c, 0, 81, 87
2, 82320, Note_on_c, 0, 81, 0
2, 82320, Note_on_c, 0, 83, 87
2, 82380, Note_on_c, 0, 83, 0
2, 82380, Note_on_c, 0, 81, 87
2, 82440, Note_on_c, 0, 81, 0
2, 82440, Note_on_c, 0, 80, 87
2, 82500, Note_on_c, 0, 80, 0
2, 82500, Note_on_c, 0, 81, 87
2, 82560, Note_on_c, 0, 81, 0
2, 82560, Note_on_c, 0, 84, 87
2, 82800, Note_on_c, 0, 84, 0
2, 82800, Note_on_c, 0, 81, 87
2, 82860, Note_on_c, 0, 81, 0
2, 82920, Note_on_c, 0, 83, 87
2, 82980, Note_on_c, 0, 83, 0
2, 83040, Note_on_c, 0, 84, 87
2, 83100, Note_on_c, 0, 84, 0
2, 83160, Note_on_c, 0, 83, 87
2, 83220, Note_on_c, 0, 83, 0
2, 83280, Note_on_c, 0, 81, 87
2, 83340, Note_on_c, 0, 81, 0
2, 83400, Note_on_c, 0, 80, 87
2, 83460, Note_on_c, 0, 80, 0
2, 83520, Note_on_c, 0, 81, 87
2, 83580, Note_on_c, 0, 81, 0
2, 83640, Note_on_c, 0, 76, 87
2, 83700, Note_on_c, 0, 76, 0
2, 83760, Note_on_c, 0, 77, 87
2, 83820, Note_on_c, 0, 77, 0
2, 83880, Note_on_c, 0, 74, 87
2, 83940, Note_on_c, 0, 74, 0
2, 84000, Note_on_c, 0, 72, 87
2, 84240, Note_on_c, 0, 72, 0
2, 84240, Note_on_c, 0, 71, 103
2, 84270, Note_on_c, 0, 71, 0
2, 84270, Note_on_c, 0, 72, 72
2, 84300, Note_on_c, 0, 72, 0
2, 84300, Note_on_c, 0, 71, 75
2, 84330, Note_on_c, 0, 71, 0
2, 84330, Note_on_c, 0, 72, 76
2, 84360, Note_on_c, 0, 72, 0
2, 84360, Note_on_c, 0, 71, 78
2, 84380, Note_on_c, 0, 71, 0
2, 84380, Note_on_c, 0, 72, 80
2, 84400, Note_on_c, 0, 72, 0
2, 84400, Note_on_c, 0, 71, 82
2, 84420, Note_on_c, 0, 71, 0
2, 84420, Note_on_c, 0, 69, 85
2, 84450, Note_on_c, 0, 69, 0
2, 84450, Note_on_c, 0, 71, 86
2, 84480, Note_on_c, 0, 71, 0
2, 84480, Note_on_c, 0, 69, 85
2, 84720, Note_on_c, 0, 69, 0
2, 84720, Note_on_c, 0, 69, 100
2, 84780, Note_on_c, 0, 69, 0
2, 84780, Note_on_c, 0, 81, 100
2, 84840, Note_on_c, 0, 81, 0
2, 84840, Note_on_c, 0, 71, 100
2, 84900, Note_on_c, 0, 71, 0
2, 84900, Note_on_c, 0, 83, 100
2, 84960, Note_on_c, 0, 83, 0
2, 84960, Note_on_c, 0, 73, 100
2, 85020, Note_on_c, 0, 73, 0
2, 85020, Note_on_c, 0, 85, 100
2, 85080, Note_on_c, 0, 85, 0
2, 85200, Note_on_c, 0, 69, 100
2, 85260, Note_on_c, 0, 69, 0
2, 85260, Note_on_c, 0, 81, 100
2, 85320, Note_on_c, 0, 81, 0
2, 85320, Note_on_c, 0, 71, 100
2, 85380, Note_on_c, 0, 71, 0
2, 85380, Note_on_c, 0, 83, 100
2, 85440, Note_on_c, 0, 83, 0
2, 85440, Note_on_c, 0, 73, 100
2, 85500, Note_on_c, 0, 73, 0
2, 85500, Note_on_c, 0, 85, 100
2, 85560, Note_on_c, 0, 85, 0
2, 85560, Note_on_c, 0, 71, 100
2, 85620, Note_on_c, 0, 71, 0
2, 85620, Note_on_c, 0, 83, 100
2, 85680, Note_on_c, 0, 83, 0
2, 85680, Note_on_c, 0, 69, 100
2, 85740, Note_on_c, 0, 69, 0
2, 85740, Note_on_c, 0, 81, 100
2, 85800, Note_on_c, 0, 81, 0
2, 85800, Note_on_c, 0, 68, 100
2, 85860, Note_on_c, 0, 68, 0
2, 85860, Note_on_c, 0, 80, 100
2, 85920, Note_on_c, 0, 80, 0
2, 85920, Note_on_c, 0, 66, 100
2, 85980, Note_on_c, 0, 66, 0
2, 85980, Note_on_c, 0, 78, 100
2, 86040, Note_on_c, 0, 78, 0
2, 86040, Note_on_c, 0, 68, 100
2, 86100, Note_on_c, 0, 68, 0
2, 86100, Note_on_c, 0, 80, 100
2, 86160, Note_on_c, 0, 80, 0
2, 86160, Note_on_c, 0, 69, 100
2, 86220, Note_on_c, 0, 69, 0
2, 86220, Note_on_c, 0, 81, 100
2, 86280, Note_on_c, 0, 81, 0
2, 86280, Note_on_c, 0, 71, 100
2, 86340, Note_on_c, 0, 71, 0
2, 86340, Note_on_c, 0, 83, 100
2, 86400, Note_on_c, 0, 83, 0
2, 86400, Note_on_c, 0, 68, 100
2, 86460, Note_on_c, 0, 68, 0
2, 86460, Note_on_c, 0, 80, 100
2, 86520, Note_on_c, 0, 80, 0
2, 86520, Note_on_c, 0, 64, 100
2, 86580, Note_on_c, 0, 64, 0
2, 86580, Note_on_c, 0, 76, 100
2, 86640, Note_on_c, 0, 76, 0
2, 86640, Note_on_c, 0, 69, 100
2, 86700, Note_on_c, 0, 69, 0
2, 86700, Note_on_c, 0, 81, 100
2, 86760, Note_on_c, 0, 81, 0
2, 86760, Note_on_c, 0, 71, 100
2, 86820, Note_on_c, 0, 71, 0
2, 86820, Note_on_c, 0, 83, 100
2, 86880, Note_on_c, 0, 83, 0
2, 86880, Note_on_c, 0, 73, 100
2, 86940, Note_on_c, 0, 73, 0
2, 86940, Note_on_c, 0, 85, 100
2, 87000, Note_on_c, 0, 85, 0
2, 87120, Note_on_c, 0, 69, 100
2, 87180, Note_on_c, 0, 69, 0
2, 87180, Note_on_c, 0, 81, 100
2, 87240, Note_on_c, 0, 81, 0
2, 87240, Note_on_c, 0, 71, 100
2, 87300, Note_on_c, 0, 71, 0
2, 87300, Note_on_c, 0, 83, 100
2, 87360, Note_on_c, 0, 83, 0
2, 87360, Note_on_c, 0, 73, 100
2, 87420, Note_on_c, 0, 73, 0
2, 87420, Note_on_c, 0, 85, 100
2, 87480, Note_on_c, 0, 85, 0
2, 87480, Note_on_c, 0, 71, 100
2, 87540, Note_on_c, 0, 71, 0
2, 87540, Note_on_c, 0, 83, 100
2, 87600, Note_on_c, 0, 83, 0
2, 87600, Note_on_c, 0, 69, 100
2, 87660, Note_on_c, 0, 69, 0
2, 87660, Note_on_c, 0, 81, 100
2, 87720, Note_on_c, 0, 81, 0
2, 87720, Note_on_c, 0, 68, 100
2, 87780, Note_on_c, 0, 68, 0
2, 87780, Note_on_c, 0, 80, 100
2, 87840, Note_on_c, 0, 80, 0
2, 87840, Note_on_c, 0, 66, 100
2, 87900, Note_on_c, 0, 66, 0
2, 87900, Note_on_c, 0, 78, 100
2, 87960, Note_on_c, 0, 78, 0
2, 87960, Note_on_c, 0, 71, 100
2, 88020, Note_on_c, 0, 71, 0
2, 88020, Note_on_c, 0, 83, 100
2, 88080, Note_on_c, 0, 83, 0
2, 88080, Note_on_c, 0, 68, 100
2, 88140, Note_on_c, 0, 68, 0
2, 88140, Note_on_c, 0, 80, 100
2, 88200, Note_on_c, 0, 80, 0
2, 88200, Note_on_c, 0, 64, 100
2, 88260, Note_on_c, 0, 64, 0
2, 88260, Note_on_c, 0, 76, 100
2, 88320, Note_on_c, 0, 76, 0
2, 88320, Note_on_c, 0, 69, 100
2, 88560, Note_on_c, 0, 69, 0
2, 88560, Note_on_c, 0, 69, 100
2, 88620, Note_on_c, 0, 69, 0
2, 88620, Note_on_c, 0, 81, 100
2, 88680, Note_on_c, 0, 81, 0
2, 88680, Note_on_c, 0, 71, 100
2, 88740, Note_on_c, 0, 71, 0
2, 88740, Note_on_c, 0, 83, 100
2, 88800, Note_on_c, 0, 83, 0
2, 88800, Note_on_c, 0, 73, 100
2, 88860, Note_on_c, 0, 73, 0
2, 88860, Note_on_c, 0, 85, 100
2, 88920, Note_on_c, 0, 85, 0
2, 89040, Note_on_c, 0, 69, 100
2, 89100, Note_on_c, 0, 69, 0
2, 89100, Note_on_c, 0, 81, 100
2, 89160, Note_on_c, 0, 81, 0
2, 89160, Note_on_c, 0, 71, 100
2, 89220, Note_on_c, 0, 71, 0
2, 89220, Note_on_c, 0, 83, 100
2, 89280, Note_on_c, 0, 83, 0
2, 89280, Note_on_c, 0, 73, 100
2, 89340, Note_on_c, 0, 73, 0
2, 89340, Note_on_c, 0, 85, 100
2, 89400, Note_on_c, 0, 85, 0
2, 89400, Note_on_c, 0, 71, 100
2, 89460, Note_on_c, 0, 71, 0
2, 89460, Note_on_c, 0, 83, 100
2, 89520, Note_on_c, 0, 83, 0
2, 89520, Note_on_c, 0, 69, 100
2, 89580, Note_on_c, 0, 69, 0
2, 89580, Note_on_c, 0, 81, 100
2, 89640, Note_on_c, 0, 81, 0
2, 89640, Note_on_c, 0, 68, 100
2, 89700, Note_on_c, 0, 68, 0
2, 89700, Note_on_c, 0, 80, 100
2, 89760, Note_on_c, 0, 80, 0
2, 89760, Note_on_c, 0, 66, 100
2, 89820, Note_on_c, 0, 66, 0
2, 89820, Note_on_c, 0, 78, 100
2, 89880, Note_on_c, 0, 78, 0
2, 89880, Note_on_c, 0, 68, 100
2, 89940, Note_on_c, 0, 68, 0
2, 89940, Note_on_c, 0, 80, 100
2, 90000, Note_on_c, 0, 80, 0
2, 90000, Note_on_c, 0, 69, 100
2, 90060, Note_on_c, 0, 69, 0
2, 90060, Note_on_c, 0, 81, 100
2, 90120, Note_on_c, 0, 81, 0
2, 90120, Note_on_c, 0, 71, 100
2, 90180, Note_on_c, 0, 71, 0
2, 90180, Note_on_c, 0, 83, 100
2, 90240, Note_on_c, 0, 83, 0
2, 90240, Note_on_c, 0, 68, 100
2, 90300, Note_on_c, 0, 68, 0
2, 90300, Note_on_c, 0, 80, 100
2, 90360, Note_on_c, 0, 80, 0
2, 90360, Note_on_c, 0, 64, 100
2, 90420, Note_on_c, 0, 64, 0
2, 90420, Note_on_c, 0, 76, 100
2, 90480, Note_on_c, 0, 76, 0
2, 90480, Note_on_c, 0, 69, 100
2, 90540, Note_on_c, 0, 69, 0
2, 90540, Note_on_c, 0, 81, 100
2, 90600, Note_on_c, 0, 81, 0
2, 90600, Note_on_c, 0, 71, 100
2, 90660, Note_on_c, 0, 71, 0
2, 90660, Note_on_c, 0, 83, 100
2, 90720, Note_on_c, 0, 83, 0
2, 90720, Note_on_c, 0, 73, 100
2, 90780, Note_on_c, 0, 73, 0
2, 90780, Note_on_c, 0, 85, 100
2, 90840, Note_on_c, 0, 85, 0
2, 90960, Note_on_c, 0, 69, 100
2, 91020, Note_on_c, 0, 69, 0
2, 91020, Note_on_c, 0, 81, 100
2, 91080, Note_on_c, 0, 81, 0
2, 91080, Note_on_c, 0, 71, 100
2, 91140, Note_on_c, 0, 71, 0
2, 91140, Note_on_c, 0, 83, 100
2, 91200, Note_on_c, 0, 83, 0
2, 91200, Note_on_c, 0, 73, 100
2, 91260, Note_on_c, 0, 73, 0
2, 91260, Note_on_c, 0, 85, 100
2, 91320, Note_on_c, 0, 85, 0
2, 91320, Note_on_c, 0, 71, 100
2, 91380, Note_on_c, 0, 71, 0
2, 91380, Note_on_c, 0, 83, 100
2, 91440, Note_on_c, 0, 83, 0
2, 91440, Note_on_c, 0, 69, 100
2, 91500, Note_on_c, 0, 69, 0
2, 91500, Note_on_c, 0, 81, 100
2, 91560, Note_on_c, 0, 81, 0
2, 91560, Note_on_c, 0, 68, 100
2, 91620, Note_on_c, 0, 68, 0
2, 91620, Note_on_c, 0, 80, 100
2, 91680, Note_on_c, 0, 80, 0
2, 91680, Note_on_c, 0, 66, 100
2, 91740, Note_on_c, 0, 66, 0
2, 91740, Note_on_c, 0, 78, 100
2, 91800, Note_on_c, 0, 78, 0
2, 91800, Note_on_c, 0, 71, 100
2, 91860, Note_on_c, 0, 71, 0
2, 91860, Note_on_c, 0, 83, 100
2, 91920, Note_on_c, 0, 83, 0
2, 91920, Note_on_c, 0, 68, 100
2, 91980, Note_on_c, 0, 68, 0
2, 91980, Note_on_c, 0, 80, 100
2, 92040, Note_on_c, 0, 80, 0
2, 92040, Note_on_c, 0, 64, 100
2, 92100, Note_on_c, 0, 64, 0
2, 92100, Note_on_c, 0, 76, 100
2, 92160, Note_on_c, 0, 76, 0
2, 92160, Note_on_c, 0, 69, 100
2, 92160, Note_on_c, 0, 81, 100
2, 92400, Note_on_c, 0, 81, 0
2, 92400, Note_on_c, 0, 69, 0
2, 92400, Note_on_c, 0, 85, 104
2, 92400, Note_on_c, 0, 73, 104
2, 92560, Note_on_c, 0, 73, 0
2, 92560, Note_on_c, 0, 85, 0
2, 92580, Note_on_c, 0, 73, 104
2, 92580, Note_on_c, 0, 85, 104
2, 92600, Note_on_c, 0, 76, 104
2, 92620, Note_on_c, 0, 85, 0
2, 92620, Note_on_c, 0, 81, 104
2, 92640, Note_on_c, 0, 85, 104
2, 92820, Note_on_c, 0, 73, 0
2, 92840, Note_on_c, 0, 76, 0
2, 92860, Note_on_c, 0, 81, 0
2, 93060, Note_on_c, 0, 73, 104
2, 93080, Note_on_c, 0, 76, 104
2, 93100, Note_on_c, 0, 81, 104
2, 93120, Note_on_c, 0, 85, 0
2, 93120, Note_on_c, 0, 85, 104
2, 93300, Note_on_c, 0, 73, 0
2, 93320, Note_on_c, 0, 76, 0
2, 93340, Note_on_c, 0, 81, 0
2, 93600, Note_on_c, 0, 85, 0
2, 93600, Note_on_c, 0, 86, 104
2, 93660, Note_on_c, 0, 86, 0
2, 93660, Note_on_c, 0, 85, 104
2, 93705, Note_on_c, 0, 85, 0
2, 93720, Note_on_c, 0, 83, 104
2, 93765, Note_on_c, 0, 83, 0
2, 93780, Note_on_c, 0, 85, 104
2, 93825, Note_on_c, 0, 85, 0
2, 93840, Note_on_c, 0, 86, 104
2, 93900, Note_on_c, 0, 86, 0
2, 93900, Note_on_c, 0, 85, 104
2, 93945, Note_on_c, 0, 85, 0
2, 93960, Note_on_c, 0, 83, 104
2, 94005, Note_on_c, 0, 83, 0
2, 94020, Note_on_c, 0, 85, 104
2, 94065, Note_on_c, 0, 85, 0
2, 94080, Note_on_c, 0, 78, 104
2, 94080, Note_on_c, 0, 81, 104
2, 94080, Note_on_c, 0, 86, 104
2, 94560, Note_on_c, 0, 86, 0
2, 94560, Note_on_c, 0, 81, 0
2, 94560, Note_on_c, 0, 78, 0
2, 94560, Note_on_c, 0, 86, 127
2, 94560, Note_on_c, 0, 81, 104
2, 94560, Note_on_c, 0, 76, 104
2, 94580, Note_on_c, 0, 86, 0
2, 94580, Note_on_c, 0, 85, 104
2, 94620, Note_on_c, 0, 76, 0
2, 94620, Note_on_c, 0, 81, 0
2, 94640, Note_on_c, 0, 85, 0
2, 94680, Note_on_c, 0, 86, 127
2, 94680, Note_on_c, 0, 81, 104
2, 94680, Note_on_c, 0, 76, 104
2, 94700, Note_on_c, 0, 86, 0
2, 94700, Note_on_c, 0, 85, 104
2, 94740, Note_on_c, 0, 76, 0
2, 94740, Note_on_c, 0, 81, 0
2, 94760, Note_on_c, 0, 85, 0
2, 94800, Note_on_c, 0, 86, 127
2, 94800, Note_on_c, 0, 81, 104
2, 94800, Note_on_c, 0, 76, 104
2, 94820, Note_on_c, 0, 86, 0
2, 94820, Note_on_c, 0, 85, 104
2, 94860, Note_on_c, 0, 76, 0
2, 94860, Note_on_c, 0, 81, 0
2, 94880, Note_on_c, 0, 85, 0
2, 94920, Note_on_c, 0, 86, 127
2, 94920, Note_on_c, 0, 76, 104
2, 94920, Note_on_c, 0, 81, 104
2, 94940, Note_on_c, 0, 86, 0
2, 94940, Note_on_c, 0, 85, 104
2, 94980, Note_on_c, 0, 81, 0
2, 94980, Note_on_c, 0, 76, 0
2, 95000, Note_on_c, 0, 85, 0
2, 95040, Note_on_c, 0, 76, 104
2, 95040, Note_on_c, 0, 80, 104
2, 95040, Note_on_c, 0, 83, 104
2, 95400, Note_on_c, 0, 83, 0
2, 95400, Note_on_c, 0, 88, 123
2, 95460, Note_on_c, 0, 80, 0
2, 95460, Note_on_c, 0, 76, 0
2, 95460, Note_on_c, 0, 73, 104
2, 95480, Note_on_c, 0, 76, 104
2, 95490, Note_on_c, 0, 88, 0
2, 95500, Note_on_c, 0, 81, 104
2, 95520, Note_on_c, 0, 85, 104
2, 95700, Note_on_c, 0, 73, 0
2, 95720, Note_on_c, 0, 76, 0
2, 95740, Note_on_c, 0, 81, 0
2, 95940, Note_on_c, 0, 73, 104
2, 95960, Note_on_c, 0, 76, 104
2, 95980, Note_on_c, 0, 81, 104
2, 96000, Note_on_c, 0, 85, 0
2, 96000, Note_on_c, 0, 85, 104
2, 96180, Note_on_c, 0, 73, 0
2, 96200, Note_on_c, 0, 76, 0
2, 96220, Note_on_c, 0, 81, 0
2, 96480, Note_on_c, 0, 85, 0
2, 96480, Note_on_c, 0, 86, 104
2, 96540, Note_on_c, 0, 86, 0
2, 96540, Note_on_c, 0, 85, 104
2, 96585, Note_on_c, 0, 85, 0
2, 96600, Note_on_c, 0, 83, 104
2, 96645, Note_on_c, 0, 83, 0
2, 96660, Note_on_c, 0, 85, 104
2, 96705, Note_on_c, 0, 85, 0
2, 96720, Note_on_c, 0, 86, 104
2, 96780, Note_on_c, 0, 86, 0
2, 96780, Note_on_c, 0, 85, 104
2, 96825, Note_on_c, 0, 85, 0
2, 96840, Note_on_c, 0, 83, 104
2, 96885, Note_on_c, 0, 83, 0
2, 96900, Note_on_c, 0, 85, 104
2, 96945, Note_on_c, 0, 85, 0
2, 96960, Note_on_c, 0, 78, 104
2, 96960, Note_on_c, 0, 81, 104
2, 96960, Note_on_c, 0, 86, 104
2, 97440, Note_on_c, 0, 86, 0
2, 97440, Note_on_c, 0, 81, 0
2, 97440, Note_on_c, 0, 78, 0
2, 97440, Note_on_c, 0, 76, 104
2, 97440, Note_on_c, 0, 81, 104
2, 97440, Note_on_c, 0, 86, 127
2, 97460, Note_on_c, 0, 86, 0
2, 97460, Note_on_c, 0, 85, 104
2, 97920, Note_on_c, 0, 85, 0
2, 97920, Note_on_c, 0, 81, 0
2, 97920, Note_on_c, 0, 76, 0
2, 97920, Note_on_c, 0, 85, 127
2, 97920, Note_on_c, 0, 80, 104
2, 97920, Note_on_c, 0, 76, 104
2, 97940, Note_on_c, 0, 85, 0
2, 97940, Note_on_c, 0, 83, 104
2, 97980, Note_on_c, 0, 76, 0
2, 97980, Note_on_c, 0, 80, 0
2, 98000, Note_on_c, 0, 83, 0
2, 98040, Note_on_c, 0, 85, 127
2, 98040, Note_on_c, 0, 80, 104
2, 98040, Note_on_c, 0, 76, 104
2, 98060, Note_on_c, 0, 85, 0
2, 98060, Note_on_c, 0, 83, 104
2, 98100, Note_on_c, 0, 76, 0
2, 98100, Note_on_c, 0, 80, 0
2, 98120, Note_on_c, 0, 83, 0
2, 98160, Note_on_c, 0, 85, 127
2, 98160, Note_on_c, 0, 80, 104
2, 98160, Note_on_c, 0, 76, 104
2, 98180, Note_on_c, 0, 85, 0
2, 98180, Note_on_c, 0, 83, 104
2, 98220, Note_on_c, 0, 76, 0
2, 98220, Note_on_c, 0, 80, 0
2, 98240, Note_on_c, 0, 83, 0
2, 98280, Note_on_c, 0, 85, 127
2, 98280, Note_on_c, 0, 76, 104
2, 98280, Note_on_c, 0, 80, 104
2, 98300, Note_on_c, 0, 85, 0
2, 98300, Note_on_c, 0, 83, 104
2, 98340, Note_on_c, 0, 80, 0
2, 98340, Note_on_c, 0, 76, 0
2, 98360, Note_on_c, 0, 83, 0
2, 98400, Note_on_c, 0, 81, 104
2, 98640, Note_on_c, 0, 81, 0
2, 98640, Note_on_c, 0, 76, 80
2, 98660, Note_on_c, 0, 76, 0
2, 98660, Note_on_c, 0, 81, 80
2, 98680, Note_on_c, 0, 81, 0
2, 98680, Note_on_c, 0, 85, 87
2, 98800, Note_on_c, 0, 85, 0
2, 98820, Note_on_c, 0, 85, 87
2, 98860, Note_on_c, 0, 85, 0
2, 98880, Note_on_c, 0, 76, 80
2, 98900, Note_on_c, 0, 76, 0
2, 98900, Note_on_c, 0, 81, 80
2, 98920, Note_on_c, 0, 81, 0
2, 98920, Note_on_c, 0, 85, 87
2, 99360, Note_on_c, 0, 85, 0
2, 99360, Note_on_c, 0, 76, 80
2, 99380, Note_on_c, 0, 76, 0
2, 99380, Note_on_c, 0, 81, 80
2, 99400, Note_on_c, 0, 81, 0
2, 99400, Note_on_c, 0, 85, 87
2, 99840, Note_on_c, 0, 85, 0
2, 99840, Note_on_c, 0, 86, 87
2, 99900, Note_on_c, 0, 86, 0
2, 99900, Note_on_c, 0, 85, 87
2, 99945, Note_on_c, 0, 85, 0
2, 99960, Note_on_c, 0, 83, 87
2, 100005, Note_on_c, 0, 83, 0
2, 100020, Note_on_c, 0, 85, 87
2, 100065, Note_on_c, 0, 85, 0
2, 100080, Note_on_c, 0, 86, 87
2, 100140, Note_on_c, 0, 86, 0
2, 100140, Note_on_c, 0, 85, 87
2, 100185, Note_on_c, 0, 85, 0
2, 100200, Note_on_c, 0, 83, 87
2, 100245, Note_on_c, 0, 83, 0
2, 100260, Note_on_c, 0, 85, 87
2, 100305, Note_on_c, 0, 85, 0
2, 100320, Note_on_c, 0, 86, 87
2, 100800, Note_on_c, 0, 86, 0
2, 100800, Note_on_c, 0, 86, 110
2, 100820, Note_on_c, 0, 86, 0
2, 100820, Note_on_c, 0, 85, 87
2, 100880, Note_on_c, 0, 85, 0
2, 100920, Note_on_c, 0, 86, 110
2, 100940, Note_on_c, 0, 86, 0
2, 100940, Note_on_c, 0, 85, 87
2, 101000, Note_on_c, 0, 85, 0
2, 101040, Note_on_c, 0, 86, 110
2, 101060, Note_on_c, 0, 86, 0
2, 101060, Note_on_c, 0, 85, 87
2, 101120, Note_on_c, 0, 85, 0
2, 101160, Note_on_c, 0, 86, 110
2, 101180, Note_on_c, 0, 86, 0
2, 101180, Note_on_c, 0, 85, 87
2, 101240, Note_on_c, 0, 85, 0
2, 101280, Note_on_c, 0, 83, 87
2, 101640, Note_on_c, 0, 83, 0
2, 101640, Note_on_c, 0, 88, 96
2, 101700, Note_on_c, 0, 73, 104
2, 101720, Note_on_c, 0, 76, 104
2, 101740, Note_on_c, 0, 81, 104
2, 101760, Note_on_c, 0, 88, 0
2, 101760, Note_on_c, 0, 85, 104
2, 101940, Note_on_c, 0, 73, 0
2, 101960, Note_on_c, 0, 76, 0
2, 101980, Note_on_c, 0, 81, 0
2, 102180, Note_on_c, 0, 73, 104
2, 102200, Note_on_c, 0, 76, 104
2, 102220, Note_on_c, 0, 81, 104
2, 102240, Note_on_c, 0, 85, 0
2, 102240, Note_on_c, 0, 85, 104
2, 102420, Note_on_c, 0, 73, 0
2, 102440, Note_on_c, 0, 76, 0
2, 102460, Note_on_c, 0, 81, 0
2, 102720, Note_on_c, 0, 85, 0
2, 102720, Note_on_c, 0, 86, 104
2, 102780, Note_on_c, 0, 86, 0
2, 102780, Note_on_c, 0, 85, 104
2, 102825, Note_on_c, 0, 85, 0
2, 102840, Note_on_c, 0, 83, 104
2, 102885, Note_on_c, 0, 83, 0
2, 102900, Note_on_c, 0, 85, 104
2, 102945, Note_on_c, 0, 85, 0
2, 102960, Note_on_c, 0, 86, 104
2, 103020, Note_on_c, 0, 86, 0
2, 103020, Note_on_c, 0, 85, 104
2, 103065, Note_on_c, 0, 85, 0
2, 103080, Note_on_c, 0, 83, 104
2, 103125, Note_on_c, 0, 83, 0
2, 103140, Note_on_c, 0, 85, 104
2, 103185, Note_on_c, 0, 85, 0
2, 103200, Note_on_c, 0, 78, 104
2, 103200, Note_on_c, 0, 81, 104
2, 103200, Note_on_c, 0, 86, 104
2, 103680, Note_on_c, 0, 86, 0
2, 103680, Note_on_c, 0, 81, 0
2, 103680, Note_on_c, 0, 78, 0
2, 103680, Note_on_c, 0, 76, 104
2, 103680, Note_on_c, 0, 81, 104
2, 103680, Note_on_c, 0, 86, 127
2, 103700, Note_on_c, 0, 86, 0
2, 103700, Note_on_c, 0, 85, 104
2, 104160, Note_on_c, 0, 85, 0
2, 104160, Note_on_c, 0, 81, 0
2, 104160, Note_on_c, 0, 76, 0
2, 104160, Note_on_c, 0, 85, 127
2, 104160, Note_on_c, 0, 80, 104
2, 104160, Note_on_c, 0, 76, 104
2, 104180, Note_on_c, 0, 85, 0
2, 104180, Note_on_c, 0, 83, 104
2, 104220, Note_on_c, 0, 76, 0
2, 104220, Note_on_c, 0, 80, 0
2, 104240, Note_on_c, 0, 83, 0
2, 104280, Note_on_c, 0, 85, 127
2, 104280, Note_on_c, 0, 80, 104
2, 104280, Note_on_c, 0, 76, 104
2, 104300, Note_on_c, 0, 85, 0
2, 104300, Note_on_c, 0, 83, 104
2, 104340, Note_on_c, 0, 76, 0
2, 104340, Note_on_c, 0, 80, 0
2, 104360, Note_on_c, 0, 83, 0
2, 104400, Note_on_c, 0, 85, 127
2, 104400, Note_on_c, 0, 80, 104
2, 104400, Note_on_c, 0, 76, 104
2, 104420, Note_on_c, 0, 85, 0
2, 104420, Note_on_c, 0, 83, 104
2, 104460, Note_on_c, 0, 76, 0
2, 104460, Note_on_c, 0, 80, 0
2, 104480, Note_on_c, 0, 83, 0
2, 104520, Note_on_c, 0, 85, 127
2, 104520, Note_on_c, 0, 76, 104
2, 104520, Note_on_c, 0, 80, 104
2, 104540, Note_on_c, 0, 85, 0
2, 104540, Note_on_c, 0, 83, 104
2, 104580, Note_on_c, 0, 80, 0
2, 104580, Note_on_c, 0, 76, 0
2, 104600, Note_on_c, 0, 83, 0
2, 104640, Note_on_c, 0, 69, 104
2, 104640, Note_on_c, 0, 73, 104
2, 104640, Note_on_c, 0, 76, 104
2, 104640, Note_on_c, 0, 81, 104
2, 105000, Note_on_c, 0, 81, 0
2, 105000, Note_on_c, 0, 69, 0
2, 105000, Note_on_c, 0, 73, 0
2, 105000, Note_on_c, 0, 76, 0
2, 105000, Note_on_c, 0, 73, 104
2, 105000, Note_on_c, 0, 85, 104
2, 105060, Note_on_c, 0, 85, 0
2, 105060, Note_on_c, 0, 73, 0
2, 105120, Note_on_c, 0, 69, 104
2, 105120, Note_on_c, 0, 81, 104
2, 105480, Note_on_c, 0, 81, 0
2, 105480, Note_on_c, 0, 69, 0
2, 105480, Note_on_c, 0, 76, 104
2, 105480, Note_on_c, 0, 88, 104
2, 105540, Note_on_c, 0, 88, 0
2, 105540, Note_on_c, 0, 76, 0
2, 105600, Note_on_c, 0, 69, 104
2, 105600, Note_on_c, 0, 81, 104
2, 105960, Note_on_c, 0, 81, 0
2, 105960, Note_on_c, 0, 69, 0
2, 105960, Note_on_c, 0, 73, 104
2, 105960, Note_on_c, 0, 85, 104
2, 106020, Note_on_c, 0, 85, 0
2, 106020, Note_on_c, 0, 73, 0
2, 106080, Note_on_c, 0, 81, 104
2, 106080, Note_on_c, 0, 69, 104
2, 106140, Note_on_c, 0, 69, 0
2, 106140, Note_on_c, 0, 81, 0
2, 106200, Note_on_c, 0, 85, 104
2, 106200, Note_on_c, 0, 73, 104
2, 106260, Note_on_c, 0, 73, 0
2, 106260, Note_on_c, 0, 85, 0
2, 106320, Note_on_c, 0, 81, 104
2, 106320, Note_on_c, 0, 69, 104
2, 106380, Note_on_c, 0, 69, 0
2, 106380, Note_on_c, 0, 81, 0
2, 106440, Note_on_c, 0, 76, 104
2, 106440, Note_on_c, 0, 88, 104
2, 106500, Note_on_c, 0, 88, 0
2, 106500, Note_on_c, 0, 76, 0
2, 106560, Note_on_c, 0, 81, 104
2, 106560, Note_on_c, 0, 69, 104
2, 106680, Note_on_c, 0, 69, 0
2, 106680, Note_on_c, 0, 81, 0
2, 106800, Note_on_c, 0, 69, 104
2, 106800, Note_on_c, 0, 73, 104
2, 106800, Note_on_c, 0, 76, 104
2, 106800, Note_on_c, 0, 81, 104
2, 107280, Note_on_c, 0, 81, 0
2, 107280, Note_on_c, 0, 69, 0
2, 107280, Note_on_c, 0, 73, 0
2, 107280, Note_on_c, 0, 76, 0
2, 107280, End_track
3, 0, Start_track
3, 0, Title_t, "Piano"
3, 0, Program_c, 1, 0
3, 0, Control_c, 1, 7, 127
3, 0, Control_c, 1, 10, 80
3, 0, Control_c, 1, 91, 127
3, 0, Control_c, 1, 93, 0
3, 0, Control_c, 1, 121, 0
3, 480, Note_on_c, 1, 57, 80
3, 600, Note_on_c, 1, 57, 0
3, 600, Note_on_c, 1, 64, 80
3, 600, Note_on_c, 1, 60, 80
3, 660, Note_on_c, 1, 60, 0
3, 660, Note_on_c, 1, 64, 0
3, 720, Note_on_c, 1, 64, 80
3, 720, Note_on_c, 1, 60, 80
3, 780, Note_on_c, 1, 60, 0
3, 780, Note_on_c, 1, 64, 0
3, 840, Note_on_c, 1, 60, 80
3, 840, Note_on_c, 1, 64, 80
3, 900, Note_on_c, 1, 64, 0
3, 900, Note_on_c, 1, 60, 0
3, 960, Note_on_c, 1, 57, 80
3, 1080, Note_on_c, 1, 57, 0
3, 1080, Note_on_c, 1, 64, 80
3, 1080, Note_on_c, 1, 60, 80
3, 1140, Note_on_c, 1, 60, 0
3, 1140, Note_on_c, 1, 64, 0
3, 1200, Note_on_c, 1, 64, 80
3, 1200, Note_on_c, 1, 60, 80
3, 1260, Note_on_c, 1, 60, 0
3, 1260, Note_on_c, 1, 64, 0
3, 1320, Note_on_c, 1, 60, 80
3, 1320, Note_on_c, 1, 64, 80
3, 1380, Note_on_c, 1, 64, 0
3, 1380, Note_on_c, 1, 60, 0
3, 1440, Note_on_c, 1, 57, 80
3, 1500, Note_on_c, 1, 57, 0
3, 1560, Note_on_c, 1, 64, 80
3, 1560, Note_on_c, 1, 60, 80
3, 1620, Note_on_c, 1, 60, 0
3, 1620, Note_on_c, 1, 64, 0
3, 1680, Note_on_c, 1, 57, 80
3, 1740, Note_on_c, 1, 57, 0
3, 1800, Note_on_c, 1, 60, 80
3, 1800, Note_on_c, 1, 64, 80
3, 1860, Note_on_c, 1, 64, 0
3, 1860, Note_on_c, 1, 60, 0
3, 1920, Note_on_c, 1, 57, 80
3, 2040, Note_on_c, 1, 57, 0
3, 2040, Note_on_c, 1, 64, 80
3, 2040, Note_on_c, 1, 60, 80
3, 2100, Note_on_c, 1, 60, 0
3, 2100, Note_on_c, 1, 64, 0
3, 2160, Note_on_c, 1, 64, 80
3, 2160, Note_on_c, 1, 60, 80
3, 2220, Note_on_c, 1, 60, 0
3, 2220, Note_on_c, 1, 64, 0
3, 2280, Note_on_c, 1, 60, 80
3, 2280, Note_on_c, 1, 64, 80
3, 2340, Note_on_c, 1, 64, 0
3, 2340, Note_on_c, 1, 60, 0
3, 2400, Note_on_c, 1, 52, 80
3, 2460, Note_on_c, 1, 52, 0
3, 2520, Note_on_c, 1, 64, 80
3, 2520, Note_on_c, 1, 59, 80
3, 2580, Note_on_c, 1, 59, 0
3, 2580, Note_on_c, 1, 64, 0
3, 2640, Note_on_c, 1, 64, 80
3, 2640, Note_on_c, 1, 59, 80
3, 2700, Note_on_c, 1, 59, 0
3, 2700, Note_on_c, 1, 64, 0
3, 2760, Note_on_c, 1, 59, 80
3, 2760, Note_on_c, 1, 64, 80
3, 2820, Note_on_c, 1, 64, 0
3, 2820, Note_on_c, 1, 59, 0
3, 2880, Note_on_c, 1, 52, 80
3, 2940, Note_on_c, 1, 52, 0
3, 3000, Note_on_c, 1, 64, 80
3, 3000, Note_on_c, 1, 59, 80
3, 3060, Note_on_c, 1, 59, 0
3, 3060, Note_on_c, 1, 64, 0
3, 3120, Note_on_c, 1, 64, 80
3, 3120, Note_on_c, 1, 59, 80
3, 3180, Note_on_c, 1, 59, 0
3, 3180, Note_on_c, 1, 64, 0
3, 3240, Note_on_c, 1, 59, 80
3, 3240, Note_on_c, 1, 64, 80
3, 3300, Note_on_c, 1, 64, 0
3, 3300, Note_on_c, 1, 59, 0
3, 3360, Note_on_c, 1, 52, 80
3, 3420, Note_on_c, 1, 52, 0
3, 3480, Note_on_c, 1, 64, 80
3, 3480, Note_on_c, 1, 59, 80
3, 3540, Note_on_c, 1, 59, 0
3, 3540, Note_on_c, 1, 64, 0
3, 3600, Note_on_c, 1, 47, 80
3, 3660, Note_on_c, 1, 47, 0
3, 3720, Note_on_c, 1, 59, 80
3, 3780, Note_on_c, 1, 59, 0
3, 3840, Note_on_c, 1, 52, 80
3, 4080, Note_on_c, 1, 52, 0
3, 4320, Note_on_c, 1, 57, 80
3, 4440, Note_on_c, 1, 57, 0
3, 4440, Note_on_c, 1, 64, 80
3, 4440, Note_on_c, 1, 60, 80
3, 4500, Note_on_c, 1, 60, 0
3, 4500, Note_on_c, 1, 64, 0
3, 4560, Note_on_c, 1, 64, 80
3, 4560, Note_on_c, 1, 60, 80
3, 4620, Note_on_c, 1, 60, 0
3, 4620, Note_on_c, 1, 64, 0
3, 4680, Note_on_c, 1, 60, 80
3, 4680, Note_on_c, 1, 64, 80
3, 4740, Note_on_c, 1, 64, 0
3, 4740, Note_on_c, 1, 60, 0
3, 4800, Note_on_c, 1, 57, 80
3, 4920, Note_on_c, 1, 57, 0
3, 4920, Note_on_c, 1, 64, 80
3, 4920, Note_on_c, 1, 60, 80
3, 4980, Note_on_c, 1, 60, 0
3, 4980, Note_on_c, 1, 64, 0
3, 5040, Note_on_c, 1, 64, 80
3, 5040, Note_on_c, 1, 60, 80
3, 5100, Note_on_c, 1, 60, 0
3, 5100, Note_on_c, 1, 64, 0
3, 5160, Note_on_c, 1, 60, 80
3, 5160, Note_on_c, 1, 64, 80
3, 5220, Note_on_c, 1, 64, 0
3, 5220, Note_on_c, 1, 60, 0
3, 5280, Note_on_c, 1, 57, 80
3, 5340, Note_on_c, 1, 57, 0
3, 5400, Note_on_c, 1, 64, 80
3, 5400, Note_on_c, 1, 60, 80
3, 5460, Note_on_c, 1, 60, 0
3, 5460, Note_on_c, 1, 64, 0
3, 5520, Note_on_c, 1, 57, 80
3, 5580, Note_on_c, 1, 57, 0
3, 5640, Note_on_c, 1, 60, 80
3, 5640, Note_on_c, 1, 64, 80
3, 5700, Note_on_c, 1, 64, 0
3, 5700, Note_on_c, 1, 60, 0
3, 5760, Note_on_c, 1, 57, 80
3, 5880, Note_on_c, 1, 57, 0
3, 5880, Note_on_c, 1, 64, 80
3, 5880, Note_on_c, 1, 60, 80
3, 5940, Note_on_c, 1, 60, 0
3, 5940, Note_on_c, 1, 64, 0
3, 6000, Note_on_c, 1, 64, 80
3, 6000, Note_on_c, 1, 60, 80
3, 6060, Note_on_c, 1, 60, 0
3, 6060, Note_on_c, 1, 64, 0
3, 6120, Note_on_c, 1, 60, 80
3, 6120, Note_on_c, 1, 64, 80
3, 6180, Note_on_c, 1, 64, 0
3, 6180, Note_on_c, 1, 60, 0
3, 6240, Note_on_c, 1, 52, 80
3, 6300, Note_on_c, 1, 52, 0
3, 6360, Note_on_c, 1, 64, 80
3, 6360, Note_on_c, 1, 59, 80
3, 6420, Note_on_c, 1, 59, 0
3, 6420, Note_on_c, 1, 64, 0
3, 6480, Note_on_c, 1, 64, 80
3, 6480, Note_on_c, 1, 59, 80
3, 6540, Note_on_c, 1, 59, 0
3, 6540, Note_on_c, 1, 64, 0
3, 6600, Note_on_c, 1, 59, 80
3, 6600, Note_on_c, 1, 64, 80
3, 6660, Note_on_c, 1, 64, 0
3, 6660, Note_on_c, 1, 59, 0
3, 6720, Note_on_c, 1, 52, 80
3, 6780, Note_on_c, 1, 52, 0
3, 6840, Note_on_c, 1, 64, 80
3, 6840, Note_on_c, 1, 59, 80
3, 6900, Note_on_c, 1, 59, 0
3, 6900, Note_on_c, 1, 64, 0
3, 6960, Note_on_c, 1, 64, 80
3, 6960, Note_on_c, 1, 59, 80
3, 7020, Note_on_c, 1, 59, 0
3, 7020, Note_on_c, 1, 64, 0
3, 7080, Note_on_c, 1, 59, 80
3, 7080, Note_on_c, 1, 64, 80
3, 7140, Note_on_c, 1, 64, 0
3, 7140, Note_on_c, 1, 59, 0
3, 7200, Note_on_c, 1, 52, 80
3, 7260, Note_on_c, 1, 52, 0
3, 7320, Note_on_c, 1, 64, 80
3, 7320, Note_on_c, 1, 59, 80
3, 7380, Note_on_c, 1, 59, 0
3, 7380, Note_on_c, 1, 64, 0
3, 7440, Note_on_c, 1, 47, 80
3, 7500, Note_on_c, 1, 47, 0
3, 7560, Note_on_c, 1, 59, 80
3, 7620, Note_on_c, 1, 59, 0
3, 7680, Note_on_c, 1, 52, 80
3, 7920, Note_on_c, 1, 52, 0
3, 8160, Note_on_c, 1, 48, 80
3, 8220, Note_on_c, 1, 48, 0
3, 8280, Note_on_c, 1, 60, 80
3, 8340, Note_on_c, 1, 60, 0
3, 8400, Note_on_c, 1, 52, 80
3, 8460, Note_on_c, 1, 52, 0
3, 8520, Note_on_c, 1, 64, 80
3, 8580, Note_on_c, 1, 64, 0
3, 8640, Note_on_c, 1, 55, 80
3, 8880, Note_on_c, 1, 55, 0
3, 9120, Note_on_c, 1, 48, 80
3, 9180, Note_on_c, 1, 48, 0
3, 9240, Note_on_c, 1, 60, 80
3, 9300, Note_on_c, 1, 60, 0
3, 9360, Note_on_c, 1, 52, 80
3, 9420, Note_on_c, 1, 52, 0
3, 9480, Note_on_c, 1, 64, 80
3, 9540, Note_on_c, 1, 64, 0
3, 9600, Note_on_c, 1, 55, 80
3, 9840, Note_on_c, 1, 55, 0
3, 10080, Note_on_c, 1, 45, 80
3, 10140, Note_on_c, 1, 45, 0
3, 10200, Note_on_c, 1, 57, 80
3, 10260, Note_on_c, 1, 57, 0
3, 10320, Note_on_c, 1, 48, 80
3, 10380, Note_on_c, 1, 48, 0
3, 10440, Note_on_c, 1, 60, 80
3, 10500, Note_on_c, 1, 60, 0
3, 10560, Note_on_c, 1, 52, 80
3, 10800, Note_on_c, 1, 52, 0
3, 11040, Note_on_c, 1, 45, 80
3, 11100, Note_on_c, 1, 45, 0
3, 11160, Note_on_c, 1, 57, 80
3, 11220, Note_on_c, 1, 57, 0
3, 11280, Note_on_c, 1, 48, 80
3, 11340, Note_on_c, 1, 48, 0
3, 11400, Note_on_c, 1, 60, 80
3, 11460, Note_on_c, 1, 60, 0
3, 11520, Note_on_c, 1, 52, 80
3, 11760, Note_on_c, 1, 52, 0
3, 12000, Note_on_c, 1, 57, 80
3, 12120, Note_on_c, 1, 57, 0
3, 12120, Note_on_c, 1, 64, 80
3, 12120, Note_on_c, 1, 60, 80
3, 12180, Note_on_c, 1, 60, 0
3, 12180, Note_on_c, 1, 64, 0
3, 12240, Note_on_c, 1, 64, 80
3, 12240, Note_on_c, 1, 60, 80
3, 12300, Note_on_c, 1, 60, 0
3, 12300, Note_on_c, 1, 64, 0
3, 12360, Note_on_c, 1, 60, 80
3, 12360, Note_on_c, 1, 64, 80
3, 12420, Note_on_c, 1, 64, 0
3, 12420, Note_on_c, 1, 60, 0
3, 12480, Note_on_c, 1, 57, 80
3, 12600, Note_on_c, 1, 57, 0
3, 12600, Note_on_c, 1, 64, 80
3, 12600, Note_on_c, 1, 60, 80
3, 12660, Note_on_c, 1, 60, 0
3, 12660, Note_on_c, 1, 64, 0
3, 12720, Note_on_c, 1, 64, 80
3, 12720, Note_on_c, 1, 60, 80
3, 12780, Note_on_c, 1, 60, 0
3, 12780, Note_on_c, 1, 64, 0
3, 12840, Note_on_c, 1, 60, 80
3, 12840, Note_on_c, 1, 64, 80
3, 12900, Note_on_c, 1, 64, 0
3, 12900, Note_on_c, 1, 60, 0
3, 12960, Note_on_c, 1, 57, 80
3, 13020, Note_on_c, 1, 57, 0
3, 13080, Note_on_c, 1, 64, 80
3, 13080, Note_on_c, 1, 60, 80
3, 13140, Note_on_c, 1, 60, 0
3, 13140, Note_on_c, 1, 64, 0
3, 13200, Note_on_c, 1, 57, 80
3, 13260, Note_on_c, 1, 57, 0
3, 13320, Note_on_c, 1, 60, 80
3, 13320, Note_on_c, 1, 64, 80
3, 13380, Note_on_c, 1, 64, 0
3, 13380, Note_on_c, 1, 60, 0
3, 13440, Note_on_c, 1, 53, 80
3, 13560, Note_on_c, 1, 53, 0
3, 13560, Note_on_c, 1, 63, 80
3, 13560, Note_on_c, 1, 57, 80
3, 13620, Note_on_c, 1, 57, 0
3, 13620, Note_on_c, 1, 63, 0
3, 13680, Note_on_c, 1, 53, 80
3, 13740, Note_on_c, 1, 53, 0
3, 13800, Note_on_c, 1, 57, 80
3, 13800, Note_on_c, 1, 63, 80
3, 13860, Note_on_c, 1, 63, 0
3, 13860, Note_on_c, 1, 57, 0
3, 13920, Note_on_c, 1, 52, 80
3, 13980, Note_on_c, 1, 52, 0
3, 14040, Note_on_c, 1, 64, 80
3, 14040, Note_on_c, 1, 57, 80
3, 14100, Note_on_c, 1, 57, 0
3, 14100, Note_on_c, 1, 64, 0
3, 14160, Note_on_c, 1, 50, 80
3, 14220, Note_on_c, 1, 50, 0
3, 14280, Note_on_c, 1, 53, 80
3, 14280, Note_on_c, 1, 59, 80
3, 14340, Note_on_c, 1, 59, 0
3, 14340, Note_on_c, 1, 53, 0
3, 14400, Note_on_c, 1, 48, 80
3, 14460, Note_on_c, 1, 48, 0
3, 14520, Note_on_c, 1, 57, 80
3, 14520, Note_on_c, 1, 52, 80
3, 14580, Note_on_c, 1, 52, 0
3, 14580, Note_on_c, 1, 57, 0
3, 14640, Note_on_c, 1, 50, 80
3, 14700, Note_on_c, 1, 50, 0
3, 14760, Note_on_c, 1, 53, 80
3, 14760, Note_on_c, 1, 59, 80
3, 14820, Note_on_c, 1, 59, 0
3, 14820, Note_on_c, 1, 53, 0
3, 14880, Note_on_c, 1, 57, 80
3, 14880, Note_on_c, 1, 52, 80
3, 14940, Note_on_c, 1, 52, 0
3, 14940, Note_on_c, 1, 57, 0
3, 15000, Note_on_c, 1, 57, 80
3, 15000, Note_on_c, 1, 52, 80
3, 15060, Note_on_c, 1, 52, 0
3, 15060, Note_on_c, 1, 57, 0
3, 15120, Note_on_c, 1, 56, 80
3, 15120, Note_on_c, 1, 52, 80
3, 15180, Note_on_c, 1, 52, 0
3, 15180, Note_on_c, 1, 56, 0
3, 15240, Note_on_c, 1, 52, 80
3, 15240, Note_on_c, 1, 56, 80
3, 15300, Note_on_c, 1, 56, 0
3, 15300, Note_on_c, 1, 52, 0
3, 15360, Note_on_c, 1, 45, 80
3, 15360, Note_on_c, 1, 57, 80
3, 15600, Note_on_c, 1, 57, 0
3, 15600, Note_on_c, 1, 45, 0
3, 15840, Note_on_c, 1, 48, 80
3, 15900, Note_on_c, 1, 48, 0
3, 15960, Note_on_c, 1, 60, 80
3, 16020, Note_on_c, 1, 60, 0
3, 16080, Note_on_c, 1, 52, 80
3, 16140, Note_on_c, 1, 52, 0
3, 16200, Note_on_c, 1, 64, 80
3, 16260, Note_on_c, 1, 64, 0
3, 16320, Note_on_c, 1, 55, 80
3, 16560, Note_on_c, 1, 55, 0
3, 16800, Note_on_c, 1, 48, 80
3, 16860, Note_on_c, 1, 48, 0
3, 16920, Note_on_c, 1, 60, 80
3, 16980, Note_on_c, 1, 60, 0
3, 17040, Note_on_c, 1, 52, 80
3, 17100, Note_on_c, 1, 52, 0
3, 17160, Note_on_c, 1, 64, 80
3, 17220, Note_on_c, 1, 64, 0
3, 17280, Note_on_c, 1, 55, 80
3, 17520, Note_on_c, 1, 55, 0
3, 17760, Note_on_c, 1, 45, 80
3, 17820, Note_on_c, 1, 45, 0
3, 17880, Note_on_c, 1, 57, 80
3, 17940, Note_on_c, 1, 57, 0
3, 18000, Note_on_c, 1, 48, 80
3, 18060, Note_on_c, 1, 48, 0
3, 18120, Note_on_c, 1, 60, 80
3, 18180, Note_on_c, 1, 60, 0
3, 18240, Note_on_c, 1, 52, 80
3, 18480, Note_on_c, 1, 52, 0
3, 18720, Note_on_c, 1, 45, 80
3, 18780, Note_on_c, 1, 45, 0
3, 18840, Note_on_c, 1, 57, 80
3, 18900, Note_on_c, 1, 57, 0
3, 18960, Note_on_c, 1, 48, 80
3, 19020, Note_on_c, 1, 48, 0
3, 19080, Note_on_c, 1, 60, 80
3, 19140, Note_on_c, 1, 60, 0
3, 19200, Note_on_c, 1, 52, 80
3, 19440, Note_on_c, 1, 52, 0
3, 19680, Note_on_c, 1, 57, 80
3, 19800, Note_on_c, 1, 57, 0
3, 19800, Note_on_c, 1, 64, 80
3, 19800, Note_on_c, 1, 60, 80
3, 19860, Note_on_c, 1, 60, 0
3, 19860, Note_on_c, 1, 64, 0
3, 19920, Note_on_c, 1, 64, 80
3, 19920, Note_on_c, 1, 60, 80
3, 19980, Note_on_c, 1, 60, 0
3, 19980, Note_on_c, 1, 64, 0
3, 20040, Note_on_c, 1, 60, 80
3, 20040, Note_on_c, 1, 64, 80
3, 20100, Note_on_c, 1, 64, 0
3, 20100, Note_on_c, 1, 60, 0
3, 20160, Note_on_c, 1, 57, 80
3, 20280, Note_on_c, 1, 57, 0
3, 20280, Note_on_c, 1, 64, 80
3, 20280, Note_on_c, 1, 60, 80
3, 20340, Note_on_c, 1, 60, 0
3, 20340, Note_on_c, 1, 64, 0
3, 20400, Note_on_c, 1, 64, 80
3, 20400, Note_on_c, 1, 60, 80
3, 20460, Note_on_c, 1, 60, 0
3, 20460, Note_on_c, 1, 64, 0
3, 20520, Note_on_c, 1, 60, 80
3, 20520, Note_on_c, 1, 64, 80
3, 20580, Note_on_c, 1, 64, 0
3, 20580, Note_on_c, 1, 60, 0
3, 20640, Note_on_c, 1, 57, 80
3, 20700, Note_on_c, 1, 57, 0
3, 20760, Note_on_c, 1, 64, 80
3, 20760, Note_on_c, 1, 60, 80
3, 20820, Note_on_c, 1, 60, 0
3, 20820, Note_on_c, 1, 64, 0
3, 20880, Note_on_c, 1, 57, 80
3, 20940, Note_on_c, 1, 57, 0
3, 21000, Note_on_c, 1, 60, 80
3, 21000, Note_on_c, 1, 64, 80
3, 21060, Note_on_c, 1, 64, 0
3, 21060, Note_on_c, 1, 60, 0
3, 21120, Note_on_c, 1, 53, 80
3, 21240, Note_on_c, 1, 53, 0
3, 21240, Note_on_c, 1, 63, 80
3, 21240, Note_on_c, 1, 57, 80
3, 21300, Note_on_c, 1, 57, 0
3, 21300, Note_on_c, 1, 63, 0
3, 21360, Note_on_c, 1, 53, 80
3, 21420, Note_on_c, 1, 53, 0
3, 21480, Note_on_c, 1, 57, 80
3, 21480, Note_on_c, 1, 63, 80
3, 21540, Note_on_c, 1, 63, 0
3, 21540, Note_on_c, 1, 57, 0
3, 21600, Note_on_c, 1, 52, 80
3, 21660, Note_on_c, 1, 52, 0
3, 21720, Note_on_c, 1, 64, 80
3, 21720, Note_on_c, 1, 57, 80
3, 21780, Note_on_c, 1, 57, 0
3, 21780, Note_on_c, 1, 64, 0
3, 21840, Note_on_c, 1, 50, 80
3, 21900, Note_on_c, 1, 50, 0
3, 21960, Note_on_c, 1, 53, 80
3, 21960, Note_on_c, 1, 59, 80
3, 22020, Note_on_c, 1, 59, 0
3, 22020, Note_on_c, 1, 53, 0
3, 22080, Note_on_c, 1, 48, 80
3, 22140, Note_on_c, 1, 48, 0
3, 22200, Note_on_c, 1, 57, 80
3, 22200, Note_on_c, 1, 52, 80
3, 22260, Note_on_c, 1, 52, 0
3, 22260, Note_on_c, 1, 57, 0
3, 22320, Note_on_c, 1, 50, 80
3, 22380, Note_on_c, 1, 50, 0
3, 22440, Note_on_c, 1, 53, 80
3, 22440, Note_on_c, 1, 59, 80
3, 22500, Note_on_c, 1, 59, 0
3, 22500, Note_on_c, 1, 53, 0
3, 22560, Note_on_c, 1, 57, 80
3, 22560, Note_on_c, 1, 52, 80
3, 22620, Note_on_c, 1, 52, 0
3, 22620, Note_on_c, 1, 57, 0
3, 22680, Note_on_c, 1, 57, 80
3, 22680, Note_on_c, 1, 52, 80
3, 22740, Note_on_c, 1, 52, 0
3, 22740, Note_on_c, 1, 57, 0
3, 22800, Note_on_c, 1, 56, 80
3, 22800, Note_on_c, 1, 52, 80
3, 22860, Note_on_c, 1, 52, 0
3, 22860, Note_on_c, 1, 56, 0
3, 22920, Note_on_c, 1, 52, 80
3, 22920, Note_on_c, 1, 56, 80
3, 22980, Note_on_c, 1, 56, 0
3, 22980, Note_on_c, 1, 52, 0
3, 23040, Note_on_c, 1, 45, 96
3, 23040, Note_on_c, 1, 57, 96
3, 23280, Note_on_c, 1, 57, 0
3, 23280, Note_on_c, 1, 45, 0
3, 23460, Note_on_c, 1, 45, 108
3, 23480, Note_on_c, 1, 49, 96
3, 23500, Note_on_c, 1, 45, 0
3, 23500, Note_on_c, 1, 52, 97
3, 23520, Note_on_c, 1, 52, 0
3, 23520, Note_on_c, 1, 49, 0
3, 23520, Note_on_c, 1, 57, 96
3, 23580, Note_on_c, 1, 57, 0
3, 23640, Note_on_c, 1, 57, 96
3, 23700, Note_on_c, 1, 57, 0
3, 23760, Note_on_c, 1, 57, 96
3, 23820, Note_on_c, 1, 57, 0
3, 23880, Note_on_c, 1, 57, 96
3, 23940, Note_on_c, 1, 57, 0
3, 23940, Note_on_c, 1, 45, 108
3, 23960, Note_on_c, 1, 49, 96
3, 23980, Note_on_c, 1, 45, 0
3, 23980, Note_on_c, 1, 52, 97
3, 24000, Note_on_c, 1, 52, 0
3, 24000, Note_on_c, 1, 49, 0
3, 24000, Note_on_c, 1, 57, 96
3, 24060, Note_on_c, 1, 57, 0
3, 24120, Note_on_c, 1, 57, 96
3, 24180, Note_on_c, 1, 57, 0
3, 24240, Note_on_c, 1, 57, 96
3, 24300, Note_on_c, 1, 57, 0
3, 24360, Note_on_c, 1, 57, 96
3, 24420, Note_on_c, 1, 57, 0
3, 24420, Note_on_c, 1, 38, 108
3, 24440, Note_on_c, 1, 42, 96
3, 24460, Note_on_c, 1, 38, 0
3, 24460, Note_on_c, 1, 45, 97
3, 24480, Note_on_c, 1, 45, 0
3, 24480, Note_on_c, 1, 42, 0
3, 24480, Note_on_c, 1, 50, 96
3, 24540, Note_on_c, 1, 50, 0
3, 24600, Note_on_c, 1, 50, 96
3, 24660, Note_on_c, 1, 50, 0
3, 24660, Note_on_c, 1, 39, 108
3, 24680, Note_on_c, 1, 42, 96
3, 24700, Note_on_c, 1, 39, 0
3, 24700, Note_on_c, 1, 45, 97
3, 24720, Note_on_c, 1, 45, 0
3, 24720, Note_on_c, 1, 42, 0
3, 24720, Note_on_c, 1, 51, 96
3, 24780, Note_on_c, 1, 51, 0
3, 24840, Note_on_c, 1, 51, 96
3, 24900, Note_on_c, 1, 51, 0
3, 24900, Note_on_c, 1, 40, 108
3, 24920, Note_on_c, 1, 44, 96
3, 24940, Note_on_c, 1, 40, 0
3, 24940, Note_on_c, 1, 47, 97
3, 24960, Note_on_c, 1, 47, 0
3, 24960, Note_on_c, 1, 44, 0
3, 24960, Note_on_c, 1, 52, 96
3, 25020, Note_on_c, 1, 52, 0
3, 25080, Note_on_c, 1, 52, 96
3, 25140, Note_on_c, 1, 52, 0
3, 25200, Note_on_c, 1, 52, 96
3, 25260, Note_on_c, 1, 52, 0
3, 25320, Note_on_c, 1, 52, 96
3, 25380, Note_on_c, 1, 52, 0
3, 25380, Note_on_c, 1, 45, 108
3, 25400, Note_on_c, 1, 49, 96
3, 25420, Note_on_c, 1, 45, 0
3, 25420, Note_on_c, 1, 52, 97
3, 25440, Note_on_c, 1, 52, 0
3, 25440, Note_on_c, 1, 49, 0
3, 25440, Note_on_c, 1, 57, 96
3, 25500, Note_on_c, 1, 57, 0
3, 25560, Note_on_c, 1, 57, 96
3, 25620, Note_on_c, 1, 57, 0
3, 25680, Note_on_c, 1, 57, 96
3, 25740, Note_on_c, 1, 57, 0
3, 25800, Note_on_c, 1, 57, 96
3, 25860, Note_on_c, 1, 57, 0
3, 25860, Note_on_c, 1, 45, 108
3, 25880, Note_on_c, 1, 49, 96
3, 25900, Note_on_c, 1, 45, 0
3, 25900, Note_on_c, 1, 52, 97
3, 25920, Note_on_c, 1, 52, 0
3, 25920, Note_on_c, 1, 49, 0
3, 25920, Note_on_c, 1, 57, 96
3, 25980, Note_on_c, 1, 57, 0
3, 26040, Note_on_c, 1, 57, 96
3, 26100, Note_on_c, 1, 57, 0
3, 26160, Note_on_c, 1, 57, 96
3, 26220, Note_on_c, 1, 57, 0
3, 26280, Note_on_c, 1, 57, 96
3, 26340, Note_on_c, 1, 57, 0
3, 26340, Note_on_c, 1, 38, 108
3, 26360, Note_on_c, 1, 42, 96
3, 26380, Note_on_c, 1, 38, 0
3, 26380, Note_on_c, 1, 45, 97
3, 26400, Note_on_c, 1, 45, 0
3, 26400, Note_on_c, 1, 42, 0
3, 26400, Note_on_c, 1, 50, 96
3, 26460, Note_on_c, 1, 50, 0
3, 26520, Note_on_c, 1, 50, 96
3, 26580, Note_on_c, 1, 50, 0
3, 26580, Note_on_c, 1, 40, 108
3, 26600, Note_on_c, 1, 44, 96
3, 26620, Note_on_c, 1, 40, 0
3, 26620, Note_on_c, 1, 47, 97
3, 26640, Note_on_c, 1, 47, 0
3, 26640, Note_on_c, 1, 44, 0
3, 26640, Note_on_c, 1, 52, 96
3, 26700, Note_on_c, 1, 52, 0
3, 26760, Note_on_c, 1, 52, 96
3, 26820, Note_on_c, 1, 52, 0
3, 26880, Note_on_c, 1, 45, 96
3, 27120, Note_on_c, 1, 45, 0
3, 27300, Note_on_c, 1, 45, 108
3, 27320, Note_on_c, 1, 49, 96
3, 27340, Note_on_c, 1, 45, 0
3, 27340, Note_on_c, 1, 52, 97
3, 27360, Note_on_c, 1, 52, 0
3, 27360, Note_on_c, 1, 49, 0
3, 27360, Note_on_c, 1, 57, 96
3, 27420, Note_on_c, 1, 57, 0
3, 27480, Note_on_c, 1, 57, 96
3, 27540, Note_on_c, 1, 57, 0
3, 27600, Note_on_c, 1, 57, 96
3, 27660, Note_on_c, 1, 57, 0
3, 27720, Note_on_c, 1, 57, 96
3, 27780, Note_on_c, 1, 57, 0
3, 27780, Note_on_c, 1, 45, 108
3, 27800, Note_on_c, 1, 49, 96
3, 27820, Note_on_c, 1, 45, 0
3, 27820, Note_on_c, 1, 52, 97
3, 27840, Note_on_c, 1, 52, 0
3, 27840, Note_on_c, 1, 49, 0
3, 27840, Note_on_c, 1, 57, 96
3, 27900, Note_on_c, 1, 57, 0
3, 27960, Note_on_c, 1, 57, 96
3, 28020, Note_on_c, 1, 57, 0
3, 28080, Note_on_c, 1, 57, 96
3, 28140, Note_on_c, 1, 57, 0
3, 28200, Note_on_c, 1, 57, 96
3, 28260, Note_on_c, 1, 57, 0
3, 28260, Note_on_c, 1, 38, 108
3, 28280, Note_on_c, 1, 42, 96
3, 28300, Note_on_c, 1, 38, 0
3, 28300, Note_on_c, 1, 45, 97
3, 28320, Note_on_c, 1, 45, 0
3, 28320, Note_on_c, 1, 42, 0
3, 28320, Note_on_c, 1, 50, 96
3, 28380, Note_on_c, 1, 50, 0
3, 28440, Note_on_c, 1, 50, 96
3, 28500, Note_on_c, 1, 50, 0
3, 28500, Note_on_c, 1, 39, 108
3, 28520, Note_on_c, 1, 42, 96
3, 28540, Note_on_c, 1, 39, 0
3, 28540, Note_on_c, 1, 45, 97
3, 28560, Note_on_c, 1, 45, 0
3, 28560, Note_on_c, 1, 42, 0
3, 28560, Note_on_c, 1, 51, 96
3, 28620, Note_on_c, 1, 51, 0
3, 28680, Note_on_c, 1, 51, 96
3, 28740, Note_on_c, 1, 51, 0
3, 28740, Note_on_c, 1, 40, 108
3, 28760, Note_on_c, 1, 44, 96
3, 28780, Note_on_c, 1, 40, 0
3, 28780, Note_on_c, 1, 47, 97
3, 28800, Note_on_c, 1, 47, 0
3, 28800, Note_on_c, 1, 44, 0
3, 28800, Note_on_c, 1, 52, 96
3, 28860, Note_on_c, 1, 52, 0
3, 28920, Note_on_c, 1, 52, 96
3, 28980, Note_on_c, 1, 52, 0
3, 29040, Note_on_c, 1, 52, 96
3, 29100, Note_on_c, 1, 52, 0
3, 29160, Note_on_c, 1, 52, 96
3, 29220, Note_on_c, 1, 52, 0
3, 29220, Note_on_c, 1, 45, 108
3, 29240, Note_on_c, 1, 49, 96
3, 29260, Note_on_c, 1, 45, 0
3, 29260, Note_on_c, 1, 52, 97
3, 29280, Note_on_c, 1, 52, 0
3, 29280, Note_on_c, 1, 49, 0
3, 29280, Note_on_c, 1, 57, 96
3, 29340, Note_on_c, 1, 57, 0
3, 29400, Note_on_c, 1, 57, 96
3, 29460, Note_on_c, 1, 57, 0
3, 29520, Note_on_c, 1, 57, 96
3, 29580, Note_on_c, 1, 57, 0
3, 29640, Note_on_c, 1, 57, 96
3, 29700, Note_on_c, 1, 57, 0
3, 29700, Note_on_c, 1, 45, 108
3, 29720, Note_on_c, 1, 49, 96
3, 29740, Note_on_c, 1, 45, 0
3, 29740, Note_on_c, 1, 52, 97
3, 29760, Note_on_c, 1, 52, 0
3, 29760, Note_on_c, 1, 49, 0
3, 29760, Note_on_c, 1, 57, 96
3, 29820, Note_on_c, 1, 57, 0
3, 29880, Note_on_c, 1, 57, 96
3, 29940, Note_on_c, 1, 57, 0
3, 30000, Note_on_c, 1, 57, 96
3, 30060, Note_on_c, 1, 57, 0
3, 30120, Note_on_c, 1, 57, 96
3, 30180, Note_on_c, 1, 57, 0
3, 30180, Note_on_c, 1, 38, 108
3, 30200, Note_on_c, 1, 42, 96
3, 30220, Note_on_c, 1, 38, 0
3, 30220, Note_on_c, 1, 45, 97
3, 30240, Note_on_c, 1, 45, 0
3, 30240, Note_on_c, 1, 42, 0
3, 30240, Note_on_c, 1, 50, 96
3, 30300, Note_on_c, 1, 50, 0
3, 30360, Note_on_c, 1, 50, 96
3, 30420, Note_on_c, 1, 50, 0
3, 30420, Note_on_c, 1, 40, 108
3, 30440, Note_on_c, 1, 44, 96
3, 30460, Note_on_c, 1, 40, 0
3, 30460, Note_on_c, 1, 47, 97
3, 30480, Note_on_c, 1, 47, 0
3, 30480, Note_on_c, 1, 44, 0
3, 30480, Note_on_c, 1, 52, 96
3, 30540, Note_on_c, 1, 52, 0
3, 30600, Note_on_c, 1, 52, 96
3, 30660, Note_on_c, 1, 52, 0
3, 30720, Note_on_c, 1, 45, 107
3, 30780, Note_on_c, 1, 45, 0
3, 31200, Note_on_c, 1, 54, 80
3, 31320, Note_on_c, 1, 54, 0
3, 31320, Note_on_c, 1, 61, 80
3, 31320, Note_on_c, 1, 57, 80
3, 31380, Note_on_c, 1, 57, 0
3, 31380, Note_on_c, 1, 61, 0
3, 31440, Note_on_c, 1, 61, 80
3, 31440, Note_on_c, 1, 57, 80
3, 31500, Note_on_c, 1, 57, 0
3, 31500, Note_on_c, 1, 61, 0
3, 31560, Note_on_c, 1, 57, 80
3, 31560, Note_on_c, 1, 61, 80
3, 31620, Note_on_c, 1, 61, 0
3, 31620, Note_on_c, 1, 57, 0
3, 31680, Note_on_c, 1, 56, 80
3, 31800, Note_on_c, 1, 56, 0
3, 31800, Note_on_c, 1, 61, 80
3, 31800, Note_on_c, 1, 59, 80
3, 31860, Note_on_c, 1, 59, 0
3, 31860, Note_on_c, 1, 61, 0
3, 31920, Note_on_c, 1, 61, 80
3, 31920, Note_on_c, 1, 59, 80
3, 31980, Note_on_c, 1, 59, 0
3, 31980, Note_on_c, 1, 61, 0
3, 32040, Note_on_c, 1, 59, 80
3, 32040, Note_on_c, 1, 61, 80
3, 32100, Note_on_c, 1, 61, 0
3, 32100, Note_on_c, 1, 59, 0
3, 32160, Note_on_c, 1, 54, 80
3, 32280, Note_on_c, 1, 54, 0
3, 32280, Note_on_c, 1, 61, 80
3, 32280, Note_on_c, 1, 57, 80
3, 32340, Note_on_c, 1, 57, 0
3, 32340, Note_on_c, 1, 61, 0
3, 32400, Note_on_c, 1, 61, 80
3, 32400, Note_on_c, 1, 57, 80
3, 32460, Note_on_c, 1, 57, 0
3, 32460, Note_on_c, 1, 61, 0
3, 32520, Note_on_c, 1, 57, 80
3, 32520, Note_on_c, 1, 61, 80
3, 32580, Note_on_c, 1, 61, 0
3, 32580, Note_on_c, 1, 57, 0
3, 32640, Note_on_c, 1, 53, 80
3, 32760, Note_on_c, 1, 53, 0
3, 32760, Note_on_c, 1, 61, 80
3, 32760, Note_on_c, 1, 56, 80
3, 32820, Note_on_c, 1, 56, 0
3, 32820, Note_on_c, 1, 61, 0
3, 32880, Note_on_c, 1, 61, 80
3, 32880, Note_on_c, 1, 56, 80
3, 32940, Note_on_c, 1, 56, 0
3, 32940, Note_on_c, 1, 61, 0
3, 33000, Note_on_c, 1, 56, 80
3, 33000, Note_on_c, 1, 61, 80
3, 33060, Note_on_c, 1, 61, 0
3, 33060, Note_on_c, 1, 56, 0
3, 33120, Note_on_c, 1, 54, 80
3, 33240, Note_on_c, 1, 54, 0
3, 33240, Note_on_c, 1, 61, 80
3, 33240, Note_on_c, 1, 57, 80
3, 33300, Note_on_c, 1, 57, 0
3, 33300, Note_on_c, 1, 61, 0
3, 33360, Note_on_c, 1, 61, 80
3, 33360, Note_on_c, 1, 57, 80
3, 33420, Note_on_c, 1, 57, 0
3, 33420, Note_on_c, 1, 61, 0
3, 33480, Note_on_c, 1, 57, 80
3, 33480, Note_on_c, 1, 61, 80
3, 33540, Note_on_c, 1, 61, 0
3, 33540, Note_on_c, 1, 57, 0
3, 33600, Note_on_c, 1, 56, 80
3, 33720, Note_on_c, 1, 56, 0
3, 33720, Note_on_c, 1, 64, 80
3, 33720, Note_on_c, 1, 61, 80
3, 33780, Note_on_c, 1, 61, 0
3, 33780, Note_on_c, 1, 64, 0
3, 33840, Note_on_c, 1, 64, 80
3, 33840, Note_on_c, 1, 61, 80
3, 33900, Note_on_c, 1, 61, 0
3, 33900, Note_on_c, 1, 64, 0
3, 33960, Note_on_c, 1, 61, 80
3, 33960, Note_on_c, 1, 64, 80
3, 34020, Note_on_c, 1, 64, 0
3, 34020, Note_on_c, 1, 61, 0
3, 34080, Note_on_c, 1, 56, 80
3, 34200, Note_on_c, 1, 56, 0
3, 34200, Note_on_c, 1, 66, 80
3, 34200, Note_on_c, 1, 63, 80
3, 34260, Note_on_c, 1, 63, 0
3, 34260, Note_on_c, 1, 66, 0
3, 34320, Note_on_c, 1, 66, 80
3, 34320, Note_on_c, 1, 63, 80
3, 34380, Note_on_c, 1, 63, 0
3, 34380, Note_on_c, 1, 66, 0
3, 34440, Note_on_c, 1, 63, 80
3, 34440, Note_on_c, 1, 66, 80
3, 34500, Note_on_c, 1, 66, 0
3, 34500, Note_on_c, 1, 63, 0
3, 34560, Note_on_c, 1, 61, 84
3, 34560, Note_on_c, 1, 64, 84
3, 34800, Note_on_c, 1, 64, 0
3, 34800, Note_on_c, 1, 61, 0
3, 35040, Note_on_c, 1, 54, 68
3, 35160, Note_on_c, 1, 54, 0
3, 35160, Note_on_c, 1, 61, 68
3, 35160, Note_on_c, 1, 57, 68
3, 35220, Note_on_c, 1, 57, 0
3, 35220, Note_on_c, 1, 61, 0
3, 35280, Note_on_c, 1, 61, 68
3, 35280, Note_on_c, 1, 57, 68
3, 35340, Note_on_c, 1, 57, 0
3, 35340, Note_on_c, 1, 61, 0
3, 35400, Note_on_c, 1, 57, 68
3, 35400, Note_on_c, 1, 61, 68
3, 35460, Note_on_c, 1, 61, 0
3, 35460, Note_on_c, 1, 57, 0
3, 35520, Note_on_c, 1, 56, 68
3, 35640, Note_on_c, 1, 56, 0
3, 35640, Note_on_c, 1, 61, 68
3, 35640, Note_on_c, 1, 59, 68
3, 35700, Note_on_c, 1, 59, 0
3, 35700, Note_on_c, 1, 61, 0
3, 35760, Note_on_c, 1, 61, 68
3, 35760, Note_on_c, 1, 59, 68
3, 35820, Note_on_c, 1, 59, 0
3, 35820, Note_on_c, 1, 61, 0
3, 35880, Note_on_c, 1, 59, 68
3, 35880, Note_on_c, 1, 61, 68
3, 35940, Note_on_c, 1, 61, 0
3, 35940, Note_on_c, 1, 59, 0
3, 36000, Note_on_c, 1, 54, 68
3, 36120, Note_on_c, 1, 54, 0
3, 36120, Note_on_c, 1, 61, 68
3, 36120, Note_on_c, 1, 57, 68
3, 36180, Note_on_c, 1, 57, 0
3, 36180, Note_on_c, 1, 61, 0
3, 36240, Note_on_c, 1, 61, 68
3, 36240, Note_on_c, 1, 57, 68
3, 36300, Note_on_c, 1, 57, 0
3, 36300, Note_on_c, 1, 61, 0
3, 36360, Note_on_c, 1, 57, 68
3, 36360, Note_on_c, 1, 61, 68
3, 36420, Note_on_c, 1, 61, 0
3, 36420, Note_on_c, 1, 57, 0
3, 36480, Note_on_c, 1, 53, 68
3, 36600, Note_on_c, 1, 53, 0
3, 36600, Note_on_c, 1, 61, 68
3, 36600, Note_on_c, 1, 56, 68
3, 36660, Note_on_c, 1, 56, 0
3, 36660, Note_on_c, 1, 61, 0
3, 36720, Note_on_c, 1, 61, 68
3, 36720, Note_on_c, 1, 56, 68
3, 36780, Note_on_c, 1, 56, 0
3, 36780, Note_on_c, 1, 61, 0
3, 36840, Note_on_c, 1, 56, 68
3, 36840, Note_on_c, 1, 61, 68
3, 36900, Note_on_c, 1, 61, 0
3, 36900, Note_on_c, 1, 56, 0
3, 36960, Note_on_c, 1, 54, 68
3, 37080, Note_on_c, 1, 54, 0
3, 37080, Note_on_c, 1, 61, 68
3, 37080, Note_on_c, 1, 57, 68
3, 37140, Note_on_c, 1, 57, 0
3, 37140, Note_on_c, 1, 61, 0
3, 37200, Note_on_c, 1, 61, 68
3, 37200, Note_on_c, 1, 57, 68
3, 37260, Note_on_c, 1, 57, 0
3, 37260, Note_on_c, 1, 61, 0
3, 37320, Note_on_c, 1, 57, 68
3, 37320, Note_on_c, 1, 61, 68
3, 37380, Note_on_c, 1, 61, 0
3, 37380, Note_on_c, 1, 57, 0
3, 37440, Note_on_c, 1, 56, 68
3, 37560, Note_on_c, 1, 56, 0
3, 37560, Note_on_c, 1, 64, 68
3, 37560, Note_on_c, 1, 61, 68
3, 37620, Note_on_c, 1, 61, 0
3, 37620, Note_on_c, 1, 64, 0
3, 37680, Note_on_c, 1, 64, 68
3, 37680, Note_on_c, 1, 61, 68
3, 37740, Note_on_c, 1, 61, 0
3, 37740, Note_on_c, 1, 64, 0
3, 37800, Note_on_c, 1, 61, 68
3, 37800, Note_on_c, 1, 64, 68
3, 37860, Note_on_c, 1, 64, 0
3, 37860, Note_on_c, 1, 61, 0
3, 37920, Note_on_c, 1, 56, 68
3, 38040, Note_on_c, 1, 56, 0
3, 38040, Note_on_c, 1, 66, 68
3, 38040, Note_on_c, 1, 63, 68
3, 38100, Note_on_c, 1, 63, 0
3, 38100, Note_on_c, 1, 66, 0
3, 38160, Note_on_c, 1, 66, 68
3, 38160, Note_on_c, 1, 63, 68
3, 38220, Note_on_c, 1, 63, 0
3, 38220, Note_on_c, 1, 66, 0
3, 38280, Note_on_c, 1, 63, 68
3, 38280, Note_on_c, 1, 66, 68
3, 38340, Note_on_c, 1, 66, 0
3, 38340, Note_on_c, 1, 63, 0
3, 38400, Note_on_c, 1, 61, 68
3, 38400, Note_on_c, 1, 64, 68
3, 38640, Note_on_c, 1, 64, 0
3, 38640, Note_on_c, 1, 61, 0
3, 38880, Note_on_c, 1, 57, 80
3, 39000, Note_on_c, 1, 57, 0
3, 39000, Note_on_c, 1, 64, 80
3, 39000, Note_on_c, 1, 61, 80
3, 39060, Note_on_c, 1, 61, 0
3, 39060, Note_on_c, 1, 64, 0
3, 39120, Note_on_c, 1, 64, 80
3, 39120, Note_on_c, 1, 61, 80
3, 39180, Note_on_c, 1, 61, 0
3, 39180, Note_on_c, 1, 64, 0
3, 39240, Note_on_c, 1, 61, 80
3, 39240, Note_on_c, 1, 64, 80
3, 39300, Note_on_c, 1, 64, 0
3, 39300, Note_on_c, 1, 61, 0
3, 39360, Note_on_c, 1, 59, 80
3, 39420, Note_on_c, 1, 59, 0
3, 39480, Note_on_c, 1, 64, 80
3, 39480, Note_on_c, 1, 62, 80
3, 39540, Note_on_c, 1, 62, 0
3, 39540, Note_on_c, 1, 64, 0
3, 39600, Note_on_c, 1, 56, 80
3, 39660, Note_on_c, 1, 56, 0
3, 39720, Note_on_c, 1, 62, 80
3, 39720, Note_on_c, 1, 64, 80
3, 39780, Note_on_c, 1, 64, 0
3, 39780, Note_on_c, 1, 62, 0
3, 39840, Note_on_c, 1, 57, 80
3, 39960, Note_on_c, 1, 57, 0
3, 39960, Note_on_c, 1, 64, 80
3, 39960, Note_on_c, 1, 61, 80
3, 40020, Note_on_c, 1, 61, 0
3, 40020, Note_on_c, 1, 64, 0
3, 40080, Note_on_c, 1, 64, 80
3, 40080, Note_on_c, 1, 61, 80
3, 40140, Note_on_c, 1, 61, 0
3, 40140, Note_on_c, 1, 64, 0
3, 40200, Note_on_c, 1, 61, 80
3, 40200, Note_on_c, 1, 64, 80
3, 40260, Note_on_c, 1, 64, 0
3, 40260, Note_on_c, 1, 61, 0
3, 40320, Note_on_c, 1, 52, 80
3, 40440, Note_on_c, 1, 52, 0
3, 40440, Note_on_c, 1, 62, 80
3, 40440, Note_on_c, 1, 56, 80
3, 40500, Note_on_c, 1, 56, 0
3, 40500, Note_on_c, 1, 62, 0
3, 40560, Note_on_c, 1, 62, 80
3, 40560, Note_on_c, 1, 56, 80
3, 40620, Note_on_c, 1, 56, 0
3, 40620, Note_on_c, 1, 62, 0
3, 40680, Note_on_c, 1, 56, 80
3, 40680, Note_on_c, 1, 62, 80
3, 40740, Note_on_c, 1, 62, 0
3, 40740, Note_on_c, 1, 56, 0
3, 40800, Note_on_c, 1, 57, 80
3, 40920, Note_on_c, 1, 57, 0
3, 40920, Note_on_c, 1, 64, 80
3, 40920, Note_on_c, 1, 61, 80
3, 40980, Note_on_c, 1, 61, 0
3, 40980, Note_on_c, 1, 64, 0
3, 41040, Note_on_c, 1, 64, 80
3, 41040, Note_on_c, 1, 61, 80
3, 41100, Note_on_c, 1, 61, 0
3, 41100, Note_on_c, 1, 64, 0
3, 41160, Note_on_c, 1, 61, 80
3, 41160, Note_on_c, 1, 64, 100
3, 41220, Note_on_c, 1, 64, 0
3, 41220, Note_on_c, 1, 61, 0
3, 41280, Note_on_c, 1, 59, 80
3, 41340, Note_on_c, 1, 59, 0
3, 41400, Note_on_c, 1, 64, 80
3, 41400, Note_on_c, 1, 62, 80
3, 41460, Note_on_c, 1, 62, 0
3, 41460, Note_on_c, 1, 64, 0
3, 41520, Note_on_c, 1, 56, 80
3, 41580, Note_on_c, 1, 56, 0
3, 41640, Note_on_c, 1, 62, 80
3, 41640, Note_on_c, 1, 64, 80
3, 41700, Note_on_c, 1, 64, 0
3, 41700, Note_on_c, 1, 62, 0
3, 41760, Note_on_c, 1, 57, 80
3, 41820, Note_on_c, 1, 57, 0
3, 41880, Note_on_c, 1, 54, 80
3, 41940, Note_on_c, 1, 54, 0
3, 42000, Note_on_c, 1, 50, 80
3, 42060, Note_on_c, 1, 50, 0
3, 42120, Note_on_c, 1, 52, 80
3, 42180, Note_on_c, 1, 52, 0
3, 42240, Note_on_c, 1, 45, 80
3, 42300, Note_on_c, 1, 45, 0
3, 42360, Note_on_c, 1, 57, 80
3, 42420, Note_on_c, 1, 57, 0
3, 42720, Note_on_c, 1, 54, 68
3, 42840, Note_on_c, 1, 54, 0
3, 42840, Note_on_c, 1, 61, 68
3, 42840, Note_on_c, 1, 57, 68
3, 42900, Note_on_c, 1, 57, 0
3, 42900, Note_on_c, 1, 61, 0
3, 42960, Note_on_c, 1, 61, 68
3, 42960, Note_on_c, 1, 57, 68
3, 43020, Note_on_c, 1, 57, 0
3, 43020, Note_on_c, 1, 61, 0
3, 43080, Note_on_c, 1, 57, 68
3, 43080, Note_on_c, 1, 61, 68
3, 43140, Note_on_c, 1, 61, 0
3, 43140, Note_on_c, 1, 57, 0
3, 43200, Note_on_c, 1, 56, 68
3, 43320, Note_on_c, 1, 56, 0
3, 43320, Note_on_c, 1, 61, 68
3, 43320, Note_on_c, 1, 59, 68
3, 43380, Note_on_c, 1, 59, 0
3, 43380, Note_on_c, 1, 61, 0
3, 43440, Note_on_c, 1, 61, 68
3, 43440, Note_on_c, 1, 59, 68
3, 43500, Note_on_c, 1, 59, 0
3, 43500, Note_on_c, 1, 61, 0
3, 43560, Note_on_c, 1, 59, 68
3, 43560, Note_on_c, 1, 61, 68
3, 43620, Note_on_c, 1, 61, 0
3, 43620, Note_on_c, 1, 59, 0
3, 43680, Note_on_c, 1, 54, 68
3, 43800, Note_on_c, 1, 54, 0
3, 43800, Note_on_c, 1, 61, 68
3, 43800, Note_on_c, 1, 57, 68
3, 43860, Note_on_c, 1, 57, 0
3, 43860, Note_on_c, 1, 61, 0
3, 43920, Note_on_c, 1, 61, 68
3, 43920, Note_on_c, 1, 57, 68
3, 43980, Note_on_c, 1, 57, 0
3, 43980, Note_on_c, 1, 61, 0
3, 44040, Note_on_c, 1, 57, 68
3, 44040, Note_on_c, 1, 61, 68
3, 44100, Note_on_c, 1, 61, 0
3, 44100, Note_on_c, 1, 57, 0
3, 44160, Note_on_c, 1, 49, 68
3, 44280, Note_on_c, 1, 49, 0
3, 44280, Note_on_c, 1, 61, 68
3, 44280, Note_on_c, 1, 56, 68
3, 44340, Note_on_c, 1, 56, 0
3, 44340, Note_on_c, 1, 61, 0
3, 44400, Note_on_c, 1, 61, 68
3, 44400, Note_on_c, 1, 55, 68
3, 44460, Note_on_c, 1, 55, 0
3, 44460, Note_on_c, 1, 61, 0
3, 44520, Note_on_c, 1, 54, 68
3, 44520, Note_on_c, 1, 61, 68
3, 44580, Note_on_c, 1, 61, 0
3, 44580, Note_on_c, 1, 54, 0
3, 44640, Note_on_c, 1, 47, 68
3, 44760, Note_on_c, 1, 47, 0
3, 44760, Note_on_c, 1, 59, 68
3, 44760, Note_on_c, 1, 54, 68
3, 44820, Note_on_c, 1, 54, 0
3, 44820, Note_on_c, 1, 59, 0
3, 44880, Note_on_c, 1, 59, 68
3, 44880, Note_on_c, 1, 54, 68
3, 44940, Note_on_c, 1, 54, 0
3, 44940, Note_on_c, 1, 59, 0
3, 45000, Note_on_c, 1, 54, 68
3, 45000, Note_on_c, 1, 59, 68
3, 45060, Note_on_c, 1, 59, 0
3, 45060, Note_on_c, 1, 54, 0
3, 45120, Note_on_c, 1, 47, 68
3, 45240, Note_on_c, 1, 47, 0
3, 45240, Note_on_c, 1, 59, 68
3, 45240, Note_on_c, 1, 56, 68
3, 45300, Note_on_c, 1, 56, 0
3, 45300, Note_on_c, 1, 59, 0
3, 45360, Note_on_c, 1, 59, 68
3, 45360, Note_on_c, 1, 56, 68
3, 45420, Note_on_c, 1, 56, 0
3, 45420, Note_on_c, 1, 59, 0
3, 45480, Note_on_c, 1, 56, 68
3, 45480, Note_on_c, 1, 59, 68
3, 45540, Note_on_c, 1, 59, 0
3, 45540, Note_on_c, 1, 56, 0
3, 45600, Note_on_c, 1, 49, 68
3, 45660, Note_on_c, 1, 49, 0
3, 45720, Note_on_c, 1, 57, 68
3, 45720, Note_on_c, 1, 54, 68
3, 45780, Note_on_c, 1, 54, 0
3, 45780, Note_on_c, 1, 57, 0
3, 45840, Note_on_c, 1, 49, 68
3, 45900, Note_on_c, 1, 49, 0
3, 45960, Note_on_c, 1, 56, 68
3, 45960, Note_on_c, 1, 59, 68
3, 46020, Note_on_c, 1, 59, 0
3, 46020, Note_on_c, 1, 56, 0
3, 46080, Note_on_c, 1, 54, 68
3, 46080, Note_on_c, 1, 57, 68
3, 46320, Note_on_c, 1, 57, 0
3, 46320, Note_on_c, 1, 54, 0
3, 46560, Note_on_c, 1, 57, 80
3, 46680, Note_on_c, 1, 57, 0
3, 46680, Note_on_c, 1, 64, 80
3, 46680, Note_on_c, 1, 61, 80
3, 46740, Note_on_c, 1, 61, 0
3, 46740, Note_on_c, 1, 64, 0
3, 46800, Note_on_c, 1, 64, 80
3, 46800, Note_on_c, 1, 61, 80
3, 46860, Note_on_c, 1, 61, 0
3, 46860, Note_on_c, 1, 64, 0
3, 46920, Note_on_c, 1, 61, 80
3, 46920, Note_on_c, 1, 64, 80
3, 46980, Note_on_c, 1, 64, 0
3, 46980, Note_on_c, 1, 61, 0
3, 47040, Note_on_c, 1, 59, 80
3, 47100, Note_on_c, 1, 59, 0
3, 47160, Note_on_c, 1, 64, 80
3, 47160, Note_on_c, 1, 62, 80
3, 47220, Note_on_c, 1, 62, 0
3, 47220, Note_on_c, 1, 64, 0
3, 47280, Note_on_c, 1, 56, 80
3, 47340, Note_on_c, 1, 56, 0
3, 47400, Note_on_c, 1, 62, 80
3, 47400, Note_on_c, 1, 64, 80
3, 47460, Note_on_c, 1, 64, 0
3, 47460, Note_on_c, 1, 62, 0
3, 47520, Note_on_c, 1, 57, 80
3, 47640, Note_on_c, 1, 57, 0
3, 47640, Note_on_c, 1, 64, 80
3, 47640, Note_on_c, 1, 61, 80
3, 47700, Note_on_c, 1, 61, 0
3, 47700, Note_on_c, 1, 64, 0
3, 47760, Note_on_c, 1, 64, 80
3, 47760, Note_on_c, 1, 61, 80
3, 47820, Note_on_c, 1, 61, 0
3, 47820, Note_on_c, 1, 64, 0
3, 47880, Note_on_c, 1, 61, 80
3, 47880, Note_on_c, 1, 64, 80
3, 47940, Note_on_c, 1, 64, 0
3, 47940, Note_on_c, 1, 61, 0
3, 48000, Note_on_c, 1, 52, 80
3, 48120, Note_on_c, 1, 52, 0
3, 48120, Note_on_c, 1, 62, 80
3, 48120, Note_on_c, 1, 56, 80
3, 48180, Note_on_c, 1, 56, 0
3, 48180, Note_on_c, 1, 62, 0
3, 48240, Note_on_c, 1, 62, 80
3, 48240, Note_on_c, 1, 56, 80
3, 48300, Note_on_c, 1, 56, 0
3, 48300, Note_on_c, 1, 62, 0
3, 48360, Note_on_c, 1, 56, 80
3, 48360, Note_on_c, 1, 62, 80
3, 48420, Note_on_c, 1, 62, 0
3, 48420, Note_on_c, 1, 56, 0
3, 48480, Note_on_c, 1, 57, 80
3, 48600, Note_on_c, 1, 57, 0
3, 48600, Note_on_c, 1, 64, 80
3, 48600, Note_on_c, 1, 61, 80
3, 48660, Note_on_c, 1, 61, 0
3, 48660, Note_on_c, 1, 64, 0
3, 48720, Note_on_c, 1, 64, 80
3, 48720, Note_on_c, 1, 61, 80
3, 48780, Note_on_c, 1, 61, 0
3, 48780, Note_on_c, 1, 64, 0
3, 48840, Note_on_c, 1, 61, 80
3, 48840, Note_on_c, 1, 64, 100
3, 48900, Note_on_c, 1, 64, 0
3, 48900, Note_on_c, 1, 61, 0
3, 48960, Note_on_c, 1, 59, 80
3, 49020, Note_on_c, 1, 59, 0
3, 49080, Note_on_c, 1, 64, 80
3, 49080, Note_on_c, 1, 62, 80
3, 49140, Note_on_c, 1, 62, 0
3, 49140, Note_on_c, 1, 64, 0
3, 49200, Note_on_c, 1, 56, 80
3, 49260, Note_on_c, 1, 56, 0
3, 49320, Note_on_c, 1, 62, 80
3, 49320, Note_on_c, 1, 64, 80
3, 49380, Note_on_c, 1, 64, 0
3, 49380, Note_on_c, 1, 62, 0
3, 49440, Note_on_c, 1, 57, 80
3, 49500, Note_on_c, 1, 57, 0
3, 49560, Note_on_c, 1, 54, 80
3, 49620, Note_on_c, 1, 54, 0
3, 49680, Note_on_c, 1, 50, 80
3, 49740, Note_on_c, 1, 50, 0
3, 49800, Note_on_c, 1, 52, 80
3, 49860, Note_on_c, 1, 52, 0
3, 49920, Note_on_c, 1, 45, 80
3, 49980, Note_on_c, 1, 45, 0
3, 50040, Note_on_c, 1, 57, 80
3, 50100, Note_on_c, 1, 57, 0
3, 50400, Note_on_c, 1, 54, 80
3, 50520, Note_on_c, 1, 54, 0
3, 50520, Note_on_c, 1, 61, 80
3, 50520, Note_on_c, 1, 57, 80
3, 50580, Note_on_c, 1, 57, 0
3, 50580, Note_on_c, 1, 61, 0
3, 50640, Note_on_c, 1, 61, 80
3, 50640, Note_on_c, 1, 57, 80
3, 50700, Note_on_c, 1, 57, 0
3, 50700, Note_on_c, 1, 61, 0
3, 50760, Note_on_c, 1, 57, 80
3, 50760, Note_on_c, 1, 61, 80
3, 50820, Note_on_c, 1, 61, 0
3, 50820, Note_on_c, 1, 57, 0
3, 50880, Note_on_c, 1, 56, 80
3, 51000, Note_on_c, 1, 56, 0
3, 51000, Note_on_c, 1, 61, 80
3, 51000, Note_on_c, 1, 59, 80
3, 51060, Note_on_c, 1, 59, 0
3, 51060, Note_on_c, 1, 61, 0
3, 51120, Note_on_c, 1, 61, 80
3, 51120, Note_on_c, 1, 59, 80
3, 51180, Note_on_c, 1, 59, 0
3, 51180, Note_on_c, 1, 61, 0
3, 51240, Note_on_c, 1, 59, 80
3, 51240, Note_on_c, 1, 61, 80
3, 51300, Note_on_c, 1, 61, 0
3, 51300, Note_on_c, 1, 59, 0
3, 51360, Note_on_c, 1, 54, 80
3, 51480, Note_on_c, 1, 54, 0
3, 51480, Note_on_c, 1, 61, 80
3, 51480, Note_on_c, 1, 57, 80
3, 51540, Note_on_c, 1, 57, 0
3, 51540, Note_on_c, 1, 61, 0
3, 51600, Note_on_c, 1, 61, 80
3, 51600, Note_on_c, 1, 57, 80
3, 51660, Note_on_c, 1, 57, 0
3, 51660, Note_on_c, 1, 61, 0
3, 51720, Note_on_c, 1, 57, 80
3, 51720, Note_on_c, 1, 61, 80
3, 51780, Note_on_c, 1, 61, 0
3, 51780, Note_on_c, 1, 57, 0
3, 51840, Note_on_c, 1, 49, 80
3, 51960, Note_on_c, 1, 49, 0
3, 51960, Note_on_c, 1, 61, 80
3, 51960, Note_on_c, 1, 56, 80
3, 52020, Note_on_c, 1, 56, 0
3, 52020, Note_on_c, 1, 61, 0
3, 52080, Note_on_c, 1, 61, 80
3, 52080, Note_on_c, 1, 55, 80
3, 52140, Note_on_c, 1, 55, 0
3, 52140, Note_on_c, 1, 61, 0
3, 52200, Note_on_c, 1, 54, 80
3, 52200, Note_on_c, 1, 61, 80
3, 52260, Note_on_c, 1, 61, 0
3, 52260, Note_on_c, 1, 54, 0
3, 52320, Note_on_c, 1, 47, 80
3, 52440, Note_on_c, 1, 47, 0
3, 52440, Note_on_c, 1, 59, 80
3, 52440, Note_on_c, 1, 54, 80
3, 52500, Note_on_c, 1, 54, 0
3, 52500, Note_on_c, 1, 59, 0
3, 52560, Note_on_c, 1, 59, 80
3, 52560, Note_on_c, 1, 54, 80
3, 52620, Note_on_c, 1, 54, 0
3, 52620, Note_on_c, 1, 59, 0
3, 52680, Note_on_c, 1, 54, 80
3, 52680, Note_on_c, 1, 59, 80
3, 52740, Note_on_c, 1, 59, 0
3, 52740, Note_on_c, 1, 54, 0
3, 52800, Note_on_c, 1, 47, 80
3, 52920, Note_on_c, 1, 47, 0
3, 52920, Note_on_c, 1, 59, 80
3, 52920, Note_on_c, 1, 56, 80
3, 52980, Note_on_c, 1, 56, 0
3, 52980, Note_on_c, 1, 59, 0
3, 53040, Note_on_c, 1, 59, 80
3, 53040, Note_on_c, 1, 56, 80
3, 53100, Note_on_c, 1, 56, 0
3, 53100, Note_on_c, 1, 59, 0
3, 53160, Note_on_c, 1, 56, 80
3, 53160, Note_on_c, 1, 59, 80
3, 53220, Note_on_c, 1, 59, 0
3, 53220, Note_on_c, 1, 56, 0
3, 53280, Note_on_c, 1, 49, 80
3, 53340, Note_on_c, 1, 49, 0
3, 53400, Note_on_c, 1, 57, 80
3, 53400, Note_on_c, 1, 54, 80
3, 53460, Note_on_c, 1, 54, 0
3, 53460, Note_on_c, 1, 57, 0
3, 53520, Note_on_c, 1, 49, 80
3, 53580, Note_on_c, 1, 49, 0
3, 53640, Note_on_c, 1, 56, 80
3, 53640, Note_on_c, 1, 59, 80
3, 53700, Note_on_c, 1, 59, 0
3, 53700, Note_on_c, 1, 56, 0
3, 53760, Note_on_c, 1, 54, 80
3, 53760, Note_on_c, 1, 57, 80
3, 54000, Note_on_c, 1, 57, 0
3, 54000, Note_on_c, 1, 54, 0
3, 54180, Note_on_c, 1, 45, 103
3, 54200, Note_on_c, 1, 49, 92
3, 54220, Note_on_c, 1, 45, 0
3, 54220, Note_on_c, 1, 52, 93
3, 54240, Note_on_c, 1, 52, 0
3, 54240, Note_on_c, 1, 49, 0
3, 54240, Note_on_c, 1, 57, 92
3, 54300, Note_on_c, 1, 57, 0
3, 54360, Note_on_c, 1, 57, 92
3, 54420, Note_on_c, 1, 57, 0
3, 54480, Note_on_c, 1, 57, 92
3, 54540, Note_on_c, 1, 57, 0
3, 54600, Note_on_c, 1, 57, 92
3, 54660, Note_on_c, 1, 57, 0
3, 54660, Note_on_c, 1, 45, 103
3, 54680, Note_on_c, 1, 49, 92
3, 54700, Note_on_c, 1, 45, 0
3, 54700, Note_on_c, 1, 52, 93
3, 54720, Note_on_c, 1, 52, 0
3, 54720, Note_on_c, 1, 49, 0
3, 54720, Note_on_c, 1, 57, 92
3, 54780, Note_on_c, 1, 57, 0
3, 54840, Note_on_c, 1, 57, 92
3, 54900, Note_on_c, 1, 57, 0
3, 54960, Note_on_c, 1, 57, 92
3, 55020, Note_on_c, 1, 57, 0
3, 55080, Note_on_c, 1, 57, 92
3, 55140, Note_on_c, 1, 57, 0
3, 55140, Note_on_c, 1, 38, 103
3, 55160, Note_on_c, 1, 42, 92
3, 55180, Note_on_c, 1, 38, 0
3, 55180, Note_on_c, 1, 45, 93
3, 55200, Note_on_c, 1, 45, 0
3, 55200, Note_on_c, 1, 42, 0
3, 55200, Note_on_c, 1, 50, 92
3, 55260, Note_on_c, 1, 50, 0
3, 55320, Note_on_c, 1, 50, 92
3, 55380, Note_on_c, 1, 50, 0
3, 55380, Note_on_c, 1, 39, 103
3, 55400, Note_on_c, 1, 42, 92
3, 55420, Note_on_c, 1, 39, 0
3, 55420, Note_on_c, 1, 45, 93
3, 55440, Note_on_c, 1, 45, 0
3, 55440, Note_on_c, 1, 42, 0
3, 55440, Note_on_c, 1, 51, 92
3, 55500, Note_on_c, 1, 51, 0
3, 55560, Note_on_c, 1, 51, 92
3, 55620, Note_on_c, 1, 51, 0
3, 55620, Note_on_c, 1, 40, 103
3, 55640, Note_on_c, 1, 44, 92
3, 55660, Note_on_c, 1, 40, 0
3, 55660, Note_on_c, 1, 47, 93
3, 55680, Note_on_c, 1, 47, 0
3, 55680, Note_on_c, 1, 44, 0
3, 55680, Note_on_c, 1, 52, 92
3, 55740, Note_on_c, 1, 52, 0
3, 55800, Note_on_c, 1, 52, 92
3, 55860, Note_on_c, 1, 52, 0
3, 55920, Note_on_c, 1, 52, 92
3, 55980, Note_on_c, 1, 52, 0
3, 56040, Note_on_c, 1, 52, 92
3, 56100, Note_on_c, 1, 52, 0
3, 56100, Note_on_c, 1, 45, 103
3, 56120, Note_on_c, 1, 49, 92
3, 56140, Note_on_c, 1, 45, 0
3, 56140, Note_on_c, 1, 52, 93
3, 56160, Note_on_c, 1, 52, 0
3, 56160, Note_on_c, 1, 49, 0
3, 56160, Note_on_c, 1, 57, 92
3, 56220, Note_on_c, 1, 57, 0
3, 56280, Note_on_c, 1, 57, 92
3, 56340, Note_on_c, 1, 57, 0
3, 56400, Note_on_c, 1, 57, 92
3, 56460, Note_on_c, 1, 57, 0
3, 56520, Note_on_c, 1, 57, 92
3, 56580, Note_on_c, 1, 57, 0
3, 56580, Note_on_c, 1, 45, 103
3, 56600, Note_on_c, 1, 49, 92
3, 56620, Note_on_c, 1, 45, 0
3, 56620, Note_on_c, 1, 52, 93
3, 56640, Note_on_c, 1, 52, 0
3, 56640, Note_on_c, 1, 49, 0
3, 56640, Note_on_c, 1, 57, 92
3, 56700, Note_on_c, 1, 57, 0
3, 56760, Note_on_c, 1, 57, 92
3, 56820, Note_on_c, 1, 57, 0
3, 56880, Note_on_c, 1, 57, 92
3, 56940, Note_on_c, 1, 57, 0
3, 57000, Note_on_c, 1, 57, 92
3, 57060, Note_on_c, 1, 57, 0
3, 57060, Note_on_c, 1, 38, 103
3, 57080, Note_on_c, 1, 42, 92
3, 57100, Note_on_c, 1, 38, 0
3, 57100, Note_on_c, 1, 45, 93
3, 57120, Note_on_c, 1, 45, 0
3, 57120, Note_on_c, 1, 42, 0
3, 57120, Note_on_c, 1, 50, 92
3, 57180, Note_on_c, 1, 50, 0
3, 57240, Note_on_c, 1, 50, 92
3, 57300, Note_on_c, 1, 50, 0
3, 57300, Note_on_c, 1, 40, 103
3, 57320, Note_on_c, 1, 44, 92
3, 57340, Note_on_c, 1, 40, 0
3, 57340, Note_on_c, 1, 47, 93
3, 57360, Note_on_c, 1, 47, 0
3, 57360, Note_on_c, 1, 44, 0
3, 57360, Note_on_c, 1, 52, 92
3, 57420, Note_on_c, 1, 52, 0
3, 57480, Note_on_c, 1, 52, 92
3, 57540, Note_on_c, 1, 52, 0
3, 57600, Note_on_c, 1, 45, 92
3, 57840, Note_on_c, 1, 45, 0
3, 58020, Note_on_c, 1, 45, 103
3, 58040, Note_on_c, 1, 49, 92
3, 58060, Note_on_c, 1, 45, 0
3, 58060, Note_on_c, 1, 52, 93
3, 58080, Note_on_c, 1, 52, 0
3, 58080, Note_on_c, 1, 49, 0
3, 58080, Note_on_c, 1, 57, 92
3, 58140, Note_on_c, 1, 57, 0
3, 58200, Note_on_c, 1, 57, 92
3, 58260, Note_on_c, 1, 57, 0
3, 58320, Note_on_c, 1, 57, 92
3, 58380, Note_on_c, 1, 57, 0
3, 58440, Note_on_c, 1, 57, 92
3, 58500, Note_on_c, 1, 57, 0
3, 58500, Note_on_c, 1, 45, 103
3, 58520, Note_on_c, 1, 49, 92
3, 58540, Note_on_c, 1, 45, 0
3, 58540, Note_on_c, 1, 52, 93
3, 58560, Note_on_c, 1, 52, 0
3, 58560, Note_on_c, 1, 49, 0
3, 58560, Note_on_c, 1, 57, 92
3, 58620, Note_on_c, 1, 57, 0
3, 58680, Note_on_c, 1, 57, 92
3, 58740, Note_on_c, 1, 57, 0
3, 58800, Note_on_c, 1, 57, 92
3, 58860, Note_on_c, 1, 57, 0
3, 58920, Note_on_c, 1, 57, 92
3, 58980, Note_on_c, 1, 57, 0
3, 58980, Note_on_c, 1, 38, 103
3, 59000, Note_on_c, 1, 42, 92
3, 59020, Note_on_c, 1, 38, 0
3, 59020, Note_on_c, 1, 45, 93
3, 59040, Note_on_c, 1, 45, 0
3, 59040, Note_on_c, 1, 42, 0
3, 59040, Note_on_c, 1, 50, 92
3, 59100, Note_on_c, 1, 50, 0
3, 59160, Note_on_c, 1, 50, 92
3, 59220, Note_on_c, 1, 50, 0
3, 59220, Note_on_c, 1, 39, 103
3, 59240, Note_on_c, 1, 42, 92
3, 59260, Note_on_c, 1, 39, 0
3, 59260, Note_on_c, 1, 45, 93
3, 59280, Note_on_c, 1, 45, 0
3, 59280, Note_on_c, 1, 42, 0
3, 59280, Note_on_c, 1, 51, 92
3, 59340, Note_on_c, 1, 51, 0
3, 59400, Note_on_c, 1, 51, 92
3, 59460, Note_on_c, 1, 51, 0
3, 59460, Note_on_c, 1, 40, 103
3, 59480, Note_on_c, 1, 44, 92
3, 59500, Note_on_c, 1, 40, 0
3, 59500, Note_on_c, 1, 47, 93
3, 59520, Note_on_c, 1, 47, 0
3, 59520, Note_on_c, 1, 44, 0
3, 59520, Note_on_c, 1, 52, 92
3, 59580, Note_on_c, 1, 52, 0
3, 59640, Note_on_c, 1, 52, 92
3, 59700, Note_on_c, 1, 52, 0
3, 59760, Note_on_c, 1, 52, 92
3, 59820, Note_on_c, 1, 52, 0
3, 59880, Note_on_c, 1, 52, 92
3, 59940, Note_on_c, 1, 52, 0
3, 59940, Note_on_c, 1, 45, 103
3, 59960, Note_on_c, 1, 49, 92
3, 59980, Note_on_c, 1, 45, 0
3, 59980, Note_on_c, 1, 52, 93
3, 60000, Note_on_c, 1, 52, 0
3, 60000, Note_on_c, 1, 49, 0
3, 60000, Note_on_c, 1, 57, 92
3, 60060, Note_on_c, 1, 57, 0
3, 60120, Note_on_c, 1, 57, 92
3, 60180, Note_on_c, 1, 57, 0
3, 60240, Note_on_c, 1, 57, 92
3, 60300, Note_on_c, 1, 57, 0
3, 60360, Note_on_c, 1, 57, 92
3, 60420, Note_on_c, 1, 57, 0
3, 60420, Note_on_c, 1, 45, 103
3, 60440, Note_on_c, 1, 49, 92
3, 60460, Note_on_c, 1, 45, 0
3, 60460, Note_on_c, 1, 52, 93
3, 60480, Note_on_c, 1, 52, 0
3, 60480, Note_on_c, 1, 49, 0
3, 60480, Note_on_c, 1, 57, 92
3, 60540, Note_on_c, 1, 57, 0
3, 60600, Note_on_c, 1, 57, 92
3, 60660, Note_on_c, 1, 57, 0
3, 60720, Note_on_c, 1, 57, 92
3, 60780, Note_on_c, 1, 57, 0
3, 60840, Note_on_c, 1, 57, 92
3, 60900, Note_on_c, 1, 57, 0
3, 60900, Note_on_c, 1, 38, 103
3, 60920, Note_on_c, 1, 42, 92
3, 60940, Note_on_c, 1, 38, 0
3, 60940, Note_on_c, 1, 45, 93
3, 60960, Note_on_c, 1, 45, 0
3, 60960, Note_on_c, 1, 42, 0
3, 60960, Note_on_c, 1, 50, 92
3, 61020, Note_on_c, 1, 50, 0
3, 61080, Note_on_c, 1, 50, 92
3, 61140, Note_on_c, 1, 50, 0
3, 61140, Note_on_c, 1, 40, 103
3, 61160, Note_on_c, 1, 44, 92
3, 61180, Note_on_c, 1, 40, 0
3, 61180, Note_on_c, 1, 47, 93
3, 61200, Note_on_c, 1, 47, 0
3, 61200, Note_on_c, 1, 44, 0
3, 61200, Note_on_c, 1, 52, 92
3, 61260, Note_on_c, 1, 52, 0
3, 61320, Note_on_c, 1, 52, 92
3, 61380, Note_on_c, 1, 52, 0
3, 61440, Note_on_c, 1, 45, 104
3, 61680, Note_on_c, 1, 45, 0
3, 61920, Note_on_c, 1, 57, 80
3, 62040, Note_on_c, 1, 57, 0
3, 62040, Note_on_c, 1, 64, 80
3, 62040, Note_on_c, 1, 60, 80
3, 62100, Note_on_c, 1, 60, 0
3, 62100, Note_on_c, 1, 64, 0
3, 62160, Note_on_c, 1, 64, 80
3, 62160, Note_on_c, 1, 60, 80
3, 62220, Note_on_c, 1, 60, 0
3, 62220, Note_on_c, 1, 64, 0
3, 62280, Note_on_c, 1, 60, 80
3, 62280, Note_on_c, 1, 64, 80
3, 62340, Note_on_c, 1, 64, 0
3, 62340, Note_on_c, 1, 60, 0
3, 62400, Note_on_c, 1, 57, 80
3, 62520, Note_on_c, 1, 57, 0
3, 62520, Note_on_c, 1, 64, 80
3, 62520, Note_on_c, 1, 60, 80
3, 62580, Note_on_c, 1, 60, 0
3, 62580, Note_on_c, 1, 64, 0
3, 62640, Note_on_c, 1, 64, 80
3, 62640, Note_on_c, 1, 60, 80
3, 62700, Note_on_c, 1, 60, 0
3, 62700, Note_on_c, 1, 64, 0
3, 62760, Note_on_c, 1, 60, 80
3, 62760, Note_on_c, 1, 64, 80
3, 62820, Note_on_c, 1, 64, 0
3, 62820, Note_on_c, 1, 60, 0
3, 62880, Note_on_c, 1, 57, 80
3, 62940, Note_on_c, 1, 57, 0
3, 63000, Note_on_c, 1, 64, 80
3, 63000, Note_on_c, 1, 60, 80
3, 63060, Note_on_c, 1, 60, 0
3, 63060, Note_on_c, 1, 64, 0
3, 63120, Note_on_c, 1, 57, 80
3, 63180, Note_on_c, 1, 57, 0
3, 63240, Note_on_c, 1, 60, 80
3, 63240, Note_on_c, 1, 64, 80
3, 63300, Note_on_c, 1, 64, 0
3, 63300, Note_on_c, 1, 60, 0
3, 63360, Note_on_c, 1, 57, 80
3, 63480, Note_on_c, 1, 57, 0
3, 63480, Note_on_c, 1, 64, 80
3, 63480, Note_on_c, 1, 60, 80
3, 63540, Note_on_c, 1, 60, 0
3, 63540, Note_on_c, 1, 64, 0
3, 63600, Note_on_c, 1, 64, 80
3, 63600, Note_on_c, 1, 60, 80
3, 63660, Note_on_c, 1, 60, 0
3, 63660, Note_on_c, 1, 64, 0
3, 63720, Note_on_c, 1, 60, 80
3, 63720, Note_on_c, 1, 64, 80
3, 63780, Note_on_c, 1, 64, 0
3, 63780, Note_on_c, 1, 60, 0
3, 63840, Note_on_c, 1, 52, 80
3, 63900, Note_on_c, 1, 52, 0
3, 63960, Note_on_c, 1, 64, 80
3, 63960, Note_on_c, 1, 59, 80
3, 64020, Note_on_c, 1, 59, 0
3, 64020, Note_on_c, 1, 64, 0
3, 64080, Note_on_c, 1, 64, 80
3, 64080, Note_on_c, 1, 59, 80
3, 64140, Note_on_c, 1, 59, 0
3, 64140, Note_on_c, 1, 64, 0
3, 64200, Note_on_c, 1, 59, 80
3, 64200, Note_on_c, 1, 64, 80
3, 64260, Note_on_c, 1, 64, 0
3, 64260, Note_on_c, 1, 59, 0
3, 64320, Note_on_c, 1, 52, 80
3, 64380, Note_on_c, 1, 52, 0
3, 64440, Note_on_c, 1, 64, 80
3, 64440, Note_on_c, 1, 59, 80
3, 64500, Note_on_c, 1, 59, 0
3, 64500, Note_on_c, 1, 64, 0
3, 64560, Note_on_c, 1, 64, 80
3, 64560, Note_on_c, 1, 59, 80
3, 64620, Note_on_c, 1, 59, 0
3, 64620, Note_on_c, 1, 64, 0
3, 64680, Note_on_c, 1, 59, 80
3, 64680, Note_on_c, 1, 64, 80
3, 64740, Note_on_c, 1, 64, 0
3, 64740, Note_on_c, 1, 59, 0
3, 64800, Note_on_c, 1, 52, 80
3, 64860, Note_on_c, 1, 52, 0
3, 64920, Note_on_c, 1, 64, 80
3, 64920, Note_on_c, 1, 59, 80
3, 64980, Note_on_c, 1, 59, 0
3, 64980, Note_on_c, 1, 64, 0
3, 65040, Note_on_c, 1, 47, 80
3, 65100, Note_on_c, 1, 47, 0
3, 65160, Note_on_c, 1, 59, 80
3, 65220, Note_on_c, 1, 59, 0
3, 65280, Note_on_c, 1, 52, 80
3, 65520, Note_on_c, 1, 52, 0
3, 65760, Note_on_c, 1, 57, 80
3, 65880, Note_on_c, 1, 57, 0
3, 65880, Note_on_c, 1, 64, 80
3, 65880, Note_on_c, 1, 60, 80
3, 65940, Note_on_c, 1, 60, 0
3, 65940, Note_on_c, 1, 64, 0
3, 66000, Note_on_c, 1, 64, 80
3, 66000, Note_on_c, 1, 60, 80
3, 66060, Note_on_c, 1, 60, 0
3, 66060, Note_on_c, 1, 64, 0
3, 66120, Note_on_c, 1, 60, 80
3, 66120, Note_on_c, 1, 64, 80
3, 66180, Note_on_c, 1, 64, 0
3, 66180, Note_on_c, 1, 60, 0
3, 66240, Note_on_c, 1, 57, 80
3, 66360, Note_on_c, 1, 57, 0
3, 66360, Note_on_c, 1, 64, 80
3, 66360, Note_on_c, 1, 60, 80
3, 66420, Note_on_c, 1, 60, 0
3, 66420, Note_on_c, 1, 64, 0
3, 66480, Note_on_c, 1, 64, 80
3, 66480, Note_on_c, 1, 60, 80
3, 66540, Note_on_c, 1, 60, 0
3, 66540, Note_on_c, 1, 64, 0
3, 66600, Note_on_c, 1, 60, 80
3, 66600, Note_on_c, 1, 64, 80
3, 66660, Note_on_c, 1, 64, 0
3, 66660, Note_on_c, 1, 60, 0
3, 66720, Note_on_c, 1, 57, 80
3, 66780, Note_on_c, 1, 57, 0
3, 66840, Note_on_c, 1, 64, 80
3, 66840, Note_on_c, 1, 60, 80
3, 66900, Note_on_c, 1, 60, 0
3, 66900, Note_on_c, 1, 64, 0
3, 66960, Note_on_c, 1, 57, 80
3, 67020, Note_on_c, 1, 57, 0
3, 67080, Note_on_c, 1, 60, 80
3, 67080, Note_on_c, 1, 64, 80
3, 67140, Note_on_c, 1, 64, 0
3, 67140, Note_on_c, 1, 60, 0
3, 67200, Note_on_c, 1, 57, 80
3, 67320, Note_on_c, 1, 57, 0
3, 67320, Note_on_c, 1, 64, 80
3, 67320, Note_on_c, 1, 60, 80
3, 67380, Note_on_c, 1, 60, 0
3, 67380, Note_on_c, 1, 64, 0
3, 67440, Note_on_c, 1, 64, 80
3, 67440, Note_on_c, 1, 60, 80
3, 67500, Note_on_c, 1, 60, 0
3, 67500, Note_on_c, 1, 64, 0
3, 67560, Note_on_c, 1, 60, 80
3, 67560, Note_on_c, 1, 64, 80
3, 67620, Note_on_c, 1, 64, 0
3, 67620, Note_on_c, 1, 60, 0
3, 67680, Note_on_c, 1, 52, 80
3, 67740, Note_on_c, 1, 52, 0
3, 67800, Note_on_c, 1, 64, 80
3, 67800, Note_on_c, 1, 59, 80
3, 67860, Note_on_c, 1, 59, 0
3, 67860, Note_on_c, 1, 64, 0
3, 67920, Note_on_c, 1, 64, 80
3, 67920, Note_on_c, 1, 59, 80
3, 67980, Note_on_c, 1, 59, 0
3, 67980, Note_on_c, 1, 64, 0
3, 68040, Note_on_c, 1, 59, 80
3, 68040, Note_on_c, 1, 64, 80
3, 68100, Note_on_c, 1, 64, 0
3, 68100, Note_on_c, 1, 59, 0
3, 68160, Note_on_c, 1, 52, 80
3, 68220, Note_on_c, 1, 52, 0
3, 68280, Note_on_c, 1, 64, 80
3, 68280, Note_on_c, 1, 59, 80
3, 68340, Note_on_c, 1, 59, 0
3, 68340, Note_on_c, 1, 64, 0
3, 68400, Note_on_c, 1, 64, 80
3, 68400, Note_on_c, 1, 59, 80
3, 68460, Note_on_c, 1, 59, 0
3, 68460, Note_on_c, 1, 64, 0
3, 68520, Note_on_c, 1, 59, 80
3, 68520, Note_on_c, 1, 64, 80
3, 68580, Note_on_c, 1, 64, 0
3, 68580, Note_on_c, 1, 59, 0
3, 68640, Note_on_c, 1, 52, 80
3, 68700, Note_on_c, 1, 52, 0
3, 68760, Note_on_c, 1, 64, 80
3, 68760, Note_on_c, 1, 59, 80
3, 68820, Note_on_c, 1, 59, 0
3, 68820, Note_on_c, 1, 64, 0
3, 68880, Note_on_c, 1, 47, 80
3, 68940, Note_on_c, 1, 47, 0
3, 69000, Note_on_c, 1, 59, 80
3, 69060, Note_on_c, 1, 59, 0
3, 69120, Note_on_c, 1, 52, 80
3, 69360, Note_on_c, 1, 52, 0
3, 69600, Note_on_c, 1, 48, 80
3, 69660, Note_on_c, 1, 48, 0
3, 69720, Note_on_c, 1, 60, 80
3, 69780, Note_on_c, 1, 60, 0
3, 69840, Note_on_c, 1, 52, 80
3, 69900, Note_on_c, 1, 52, 0
3, 69960, Note_on_c, 1, 64, 80
3, 70020, Note_on_c, 1, 64, 0
3, 70080, Note_on_c, 1, 55, 80
3, 70320, Note_on_c, 1, 55, 0
3, 70560, Note_on_c, 1, 48, 80
3, 70620, Note_on_c, 1, 48, 0
3, 70680, Note_on_c, 1, 60, 80
3, 70740, Note_on_c, 1, 60, 0
3, 70800, Note_on_c, 1, 52, 80
3, 70860, Note_on_c, 1, 52, 0
3, 70920, Note_on_c, 1, 64, 80
3, 70980, Note_on_c, 1, 64, 0
3, 71040, Note_on_c, 1, 55, 80
3, 71280, Note_on_c, 1, 55, 0
3, 71520, Note_on_c, 1, 45, 80
3, 71580, Note_on_c, 1, 45, 0
3, 71640, Note_on_c, 1, 57, 80
3, 71700, Note_on_c, 1, 57, 0
3, 71760, Note_on_c, 1, 48, 80
3, 71820, Note_on_c, 1, 48, 0
3, 71880, Note_on_c, 1, 60, 80
3, 71940, Note_on_c, 1, 60, 0
3, 72000, Note_on_c, 1, 52, 80
3, 72240, Note_on_c, 1, 52, 0
3, 72480, Note_on_c, 1, 45, 80
3, 72540, Note_on_c, 1, 45, 0
3, 72600, Note_on_c, 1, 57, 80
3, 72660, Note_on_c, 1, 57, 0
3, 72720, Note_on_c, 1, 48, 80
3, 72780, Note_on_c, 1, 48, 0
3, 72840, Note_on_c, 1, 60, 80
3, 72900, Note_on_c, 1, 60, 0
3, 72960, Note_on_c, 1, 52, 80
3, 73200, Note_on_c, 1, 52, 0
3, 73440, Note_on_c, 1, 57, 80
3, 73560, Note_on_c, 1, 57, 0
3, 73560, Note_on_c, 1, 64, 80
3, 73560, Note_on_c, 1, 60, 80
3, 73620, Note_on_c, 1, 60, 0
3, 73620, Note_on_c, 1, 64, 0
3, 73680, Note_on_c, 1, 64, 80
3, 73680, Note_on_c, 1, 60, 80
3, 73740, Note_on_c, 1, 60, 0
3, 73740, Note_on_c, 1, 64, 0
3, 73800, Note_on_c, 1, 60, 80
3, 73800, Note_on_c, 1, 64, 80
3, 73860, Note_on_c, 1, 64, 0
3, 73860, Note_on_c, 1, 60, 0
3, 73920, Note_on_c, 1, 57, 80
3, 74040, Note_on_c, 1, 57, 0
3, 74040, Note_on_c, 1, 64, 80
3, 74040, Note_on_c, 1, 60, 80
3, 74100, Note_on_c, 1, 60, 0
3, 74100, Note_on_c, 1, 64, 0
3, 74160, Note_on_c, 1, 64, 80
3, 74160, Note_on_c, 1, 60, 80
3, 74220, Note_on_c, 1, 60, 0
3, 74220, Note_on_c, 1, 64, 0
3, 74280, Note_on_c, 1, 60, 80
3, 74280, Note_on_c, 1, 64, 80
3, 74340, Note_on_c, 1, 64, 0
3, 74340, Note_on_c, 1, 60, 0
3, 74400, Note_on_c, 1, 57, 80
3, 74460, Note_on_c, 1, 57, 0
3, 74520, Note_on_c, 1, 64, 80
3, 74520, Note_on_c, 1, 60, 80
3, 74580, Note_on_c, 1, 60, 0
3, 74580, Note_on_c, 1, 64, 0
3, 74640, Note_on_c, 1, 57, 80
3, 74700, Note_on_c, 1, 57, 0
3, 74760, Note_on_c, 1, 60, 80
3, 74760, Note_on_c, 1, 64, 80
3, 74820, Note_on_c, 1, 64, 0
3, 74820, Note_on_c, 1, 60, 0
3, 74880, Note_on_c, 1, 53, 80
3, 75000, Note_on_c, 1, 53, 0
3, 75000, Note_on_c, 1, 63, 80
3, 75000, Note_on_c, 1, 57, 80
3, 75060, Note_on_c, 1, 57, 0
3, 75060, Note_on_c, 1, 63, 0
3, 75120, Note_on_c, 1, 53, 80
3, 75180, Note_on_c, 1, 53, 0
3, 75240, Note_on_c, 1, 57, 80
3, 75240, Note_on_c, 1, 63, 80
3, 75300, Note_on_c, 1, 63, 0
3, 75300, Note_on_c, 1, 57, 0
3, 75360, Note_on_c, 1, 52, 80
3, 75420, Note_on_c, 1, 52, 0
3, 75480, Note_on_c, 1, 64, 80
3, 75480, Note_on_c, 1, 57, 80
3, 75540, Note_on_c, 1, 57, 0
3, 75540, Note_on_c, 1, 64, 0
3, 75600, Note_on_c, 1, 50, 80
3, 75660, Note_on_c, 1, 50, 0
3, 75720, Note_on_c, 1, 53, 80
3, 75720, Note_on_c, 1, 59, 80
3, 75780, Note_on_c, 1, 59, 0
3, 75780, Note_on_c, 1, 53, 0
3, 75840, Note_on_c, 1, 48, 80
3, 75900, Note_on_c, 1, 48, 0
3, 75960, Note_on_c, 1, 57, 80
3, 75960, Note_on_c, 1, 52, 80
3, 76020, Note_on_c, 1, 52, 0
3, 76020, Note_on_c, 1, 57, 0
3, 76080, Note_on_c, 1, 50, 80
3, 76140, Note_on_c, 1, 50, 0
3, 76200, Note_on_c, 1, 53, 80
3, 76200, Note_on_c, 1, 59, 80
3, 76260, Note_on_c, 1, 59, 0
3, 76260, Note_on_c, 1, 53, 0
3, 76320, Note_on_c, 1, 57, 80
3, 76320, Note_on_c, 1, 52, 80
3, 76380, Note_on_c, 1, 52, 0
3, 76380, Note_on_c, 1, 57, 0
3, 76440, Note_on_c, 1, 57, 80
3, 76440, Note_on_c, 1, 52, 80
3, 76500, Note_on_c, 1, 52, 0
3, 76500, Note_on_c, 1, 57, 0
3, 76560, Note_on_c, 1, 56, 80
3, 76560, Note_on_c, 1, 52, 80
3, 76620, Note_on_c, 1, 52, 0
3, 76620, Note_on_c, 1, 56, 0
3, 76680, Note_on_c, 1, 52, 80
3, 76680, Note_on_c, 1, 56, 80
3, 76740, Note_on_c, 1, 56, 0
3, 76740, Note_on_c, 1, 52, 0
3, 76800, Note_on_c, 1, 45, 80
3, 76800, Note_on_c, 1, 57, 80
3, 77040, Note_on_c, 1, 57, 0
3, 77040, Note_on_c, 1, 45, 0
3, 77280, Note_on_c, 1, 48, 80
3, 77340, Note_on_c, 1, 48, 0
3, 77400, Note_on_c, 1, 60, 80
3, 77460, Note_on_c, 1, 60, 0
3, 77520, Note_on_c, 1, 52, 80
3, 77580, Note_on_c, 1, 52, 0
3, 77640, Note_on_c, 1, 64, 80
3, 77700, Note_on_c, 1, 64, 0
3, 77760, Note_on_c, 1, 55, 80
3, 78000, Note_on_c, 1, 55, 0
3, 78240, Note_on_c, 1, 48, 80
3, 78300, Note_on_c, 1, 48, 0
3, 78360, Note_on_c, 1, 60, 80
3, 78420, Note_on_c, 1, 60, 0
3, 78480, Note_on_c, 1, 52, 80
3, 78540, Note_on_c, 1, 52, 0
3, 78600, Note_on_c, 1, 64, 80
3, 78660, Note_on_c, 1, 64, 0
3, 78720, Note_on_c, 1, 55, 80
3, 78960, Note_on_c, 1, 55, 0
3, 79200, Note_on_c, 1, 45, 80
3, 79260, Note_on_c, 1, 45, 0
3, 79320, Note_on_c, 1, 57, 80
3, 79380, Note_on_c, 1, 57, 0
3, 79440, Note_on_c, 1, 48, 80
3, 79500, Note_on_c, 1, 48, 0
3, 79560, Note_on_c, 1, 60, 80
3, 79620, Note_on_c, 1, 60, 0
3, 79680, Note_on_c, 1, 52, 80
3, 79920, Note_on_c, 1, 52, 0
3, 80160, Note_on_c, 1, 45, 80
3, 80220, Note_on_c, 1, 45, 0
3, 80280, Note_on_c, 1, 57, 80
3, 80340, Note_on_c, 1, 57, 0
3, 80400, Note_on_c, 1, 48, 80
3, 80460, Note_on_c, 1, 48, 0
3, 80520, Note_on_c, 1, 60, 80
3, 80580, Note_on_c, 1, 60, 0
3, 80640, Note_on_c, 1, 52, 80
3, 80880, Note_on_c, 1, 52, 0
3, 81120, Note_on_c, 1, 57, 80
3, 81240, Note_on_c, 1, 57, 0
3, 81240, Note_on_c, 1, 64, 80
3, 81240, Note_on_c, 1, 60, 80
3, 81300, Note_on_c, 1, 60, 0
3, 81300, Note_on_c, 1, 64, 0
3, 81360, Note_on_c, 1, 64, 80
3, 81360, Note_on_c, 1, 60, 80
3, 81420, Note_on_c, 1, 60, 0
3, 81420, Note_on_c, 1, 64, 0
3, 81480, Note_on_c, 1, 60, 80
3, 81480, Note_on_c, 1, 64, 80
3, 81540, Note_on_c, 1, 64, 0
3, 81540, Note_on_c, 1, 60, 0
3, 81600, Note_on_c, 1, 57, 80
3, 81720, Note_on_c, 1, 57, 0
3, 81720, Note_on_c, 1, 64, 80
3, 81720, Note_on_c, 1, 60, 80
3, 81780, Note_on_c, 1, 60, 0
3, 81780, Note_on_c, 1, 64, 0
3, 81840, Note_on_c, 1, 64, 80
3, 81840, Note_on_c, 1, 60, 80
3, 81900, Note_on_c, 1, 60, 0
3, 81900, Note_on_c, 1, 64, 0
3, 81960, Note_on_c, 1, 60, 80
3, 81960, Note_on_c, 1, 64, 80
3, 82020, Note_on_c, 1, 64, 0
3, 82020, Note_on_c, 1, 60, 0
3, 82080, Note_on_c, 1, 57, 80
3, 82140, Note_on_c, 1, 57, 0
3, 82200, Note_on_c, 1, 64, 80
3, 82200, Note_on_c, 1, 60, 80
3, 82260, Note_on_c, 1, 60, 0
3, 82260, Note_on_c, 1, 64, 0
3, 82320, Note_on_c, 1, 57, 80
3, 82380, Note_on_c, 1, 57, 0
3, 82440, Note_on_c, 1, 60, 80
3, 82440, Note_on_c, 1, 64, 80
3, 82500, Note_on_c, 1, 64, 0
3, 82500, Note_on_c, 1, 60, 0
3, 82560, Note_on_c, 1, 53, 80
3, 82680, Note_on_c, 1, 53, 0
3, 82680, Note_on_c, 1, 63, 80
3, 82680, Note_on_c, 1, 57, 80
3, 82740, Note_on_c, 1, 57, 0
3, 82740, Note_on_c, 1, 63, 0
3, 82800, Note_on_c, 1, 53, 80
3, 82860, Note_on_c, 1, 53, 0
3, 82920, Note_on_c, 1, 57, 80
3, 82920, Note_on_c, 1, 63, 80
3, 82980, Note_on_c, 1, 63, 0
3, 82980, Note_on_c, 1, 57, 0
3, 83040, Note_on_c, 1, 52, 80
3, 83100, Note_on_c, 1, 52, 0
3, 83160, Note_on_c, 1, 64, 80
3, 83160, Note_on_c, 1, 57, 80
3, 83220, Note_on_c, 1, 57, 0
3, 83220, Note_on_c, 1, 64, 0
3, 83280, Note_on_c, 1, 50, 80
3, 83340, Note_on_c, 1, 50, 0
3, 83400, Note_on_c, 1, 53, 80
3, 83400, Note_on_c, 1, 59, 80
3, 83460, Note_on_c, 1, 59, 0
3, 83460, Note_on_c, 1, 53, 0
3, 83520, Note_on_c, 1, 48, 80
3, 83580, Note_on_c, 1, 48, 0
3, 83640, Note_on_c, 1, 57, 80
3, 83640, Note_on_c, 1, 52, 80
3, 83700, Note_on_c, 1, 52, 0
3, 83700, Note_on_c, 1, 57, 0
3, 83760, Note_on_c, 1, 50, 80
3, 83820, Note_on_c, 1, 50, 0
3, 83880, Note_on_c, 1, 53, 80
3, 83880, Note_on_c, 1, 59, 80
3, 83940, Note_on_c, 1, 59, 0
3, 83940, Note_on_c, 1, 53, 0
3, 84000, Note_on_c, 1, 57, 80
3, 84000, Note_on_c, 1, 52, 80
3, 84060, Note_on_c, 1, 52, 0
3, 84060, Note_on_c, 1, 57, 0
3, 84120, Note_on_c, 1, 57, 80
3, 84120, Note_on_c, 1, 52, 80
3, 84180, Note_on_c, 1, 52, 0
3, 84180, Note_on_c, 1, 57, 0
3, 84240, Note_on_c, 1, 56, 80
3, 84240, Note_on_c, 1, 52, 80
3, 84300, Note_on_c, 1, 52, 0
3, 84300, Note_on_c, 1, 56, 0
3, 84360, Note_on_c, 1, 52, 80
3, 84360, Note_on_c, 1, 56, 80
3, 84420, Note_on_c, 1, 56, 0
3, 84420, Note_on_c, 1, 52, 0
3, 84480, Note_on_c, 1, 45, 80
3, 84480, Note_on_c, 1, 57, 80
3, 84720, Note_on_c, 1, 57, 0
3, 84720, Note_on_c, 1, 45, 0
3, 84900, Note_on_c, 1, 45, 103
3, 84920, Note_on_c, 1, 49, 92
3, 84940, Note_on_c, 1, 45, 0
3, 84940, Note_on_c, 1, 52, 93
3, 84960, Note_on_c, 1, 52, 0
3, 84960, Note_on_c, 1, 49, 0
3, 84960, Note_on_c, 1, 57, 92
3, 85020, Note_on_c, 1, 57, 0
3, 85080, Note_on_c, 1, 57, 92
3, 85140, Note_on_c, 1, 57, 0
3, 85200, Note_on_c, 1, 57, 92
3, 85260, Note_on_c, 1, 57, 0
3, 85320, Note_on_c, 1, 57, 92
3, 85380, Note_on_c, 1, 57, 0
3, 85380, Note_on_c, 1, 45, 103
3, 85400, Note_on_c, 1, 49, 92
3, 85420, Note_on_c, 1, 45, 0
3, 85420, Note_on_c, 1, 52, 93
3, 85440, Note_on_c, 1, 52, 0
3, 85440, Note_on_c, 1, 49, 0
3, 85440, Note_on_c, 1, 57, 92
3, 85500, Note_on_c, 1, 57, 0
3, 85560, Note_on_c, 1, 57, 92
3, 85620, Note_on_c, 1, 57, 0
3, 85680, Note_on_c, 1, 57, 92
3, 85740, Note_on_c, 1, 57, 0
3, 85800, Note_on_c, 1, 57, 92
3, 85860, Note_on_c, 1, 57, 0
3, 85860, Note_on_c, 1, 38, 103
3, 85880, Note_on_c, 1, 42, 92
3, 85900, Note_on_c, 1, 38, 0
3, 85900, Note_on_c, 1, 45, 93
3, 85920, Note_on_c, 1, 45, 0
3, 85920, Note_on_c, 1, 42, 0
3, 85920, Note_on_c, 1, 50, 92
3, 85980, Note_on_c, 1, 50, 0
3, 86040, Note_on_c, 1, 50, 92
3, 86100, Note_on_c, 1, 50, 0
3, 86100, Note_on_c, 1, 39, 103
3, 86120, Note_on_c, 1, 42, 92
3, 86140, Note_on_c, 1, 39, 0
3, 86140, Note_on_c, 1, 45, 93
3, 86160, Note_on_c, 1, 45, 0
3, 86160, Note_on_c, 1, 42, 0
3, 86160, Note_on_c, 1, 51, 92
3, 86220, Note_on_c, 1, 51, 0
3, 86280, Note_on_c, 1, 51, 92
3, 86340, Note_on_c, 1, 51, 0
3, 86340, Note_on_c, 1, 40, 103
3, 86360, Note_on_c, 1, 44, 92
3, 86380, Note_on_c, 1, 40, 0
3, 86380, Note_on_c, 1, 47, 93
3, 86400, Note_on_c, 1, 47, 0
3, 86400, Note_on_c, 1, 44, 0
3, 86400, Note_on_c, 1, 52, 92
3, 86460, Note_on_c, 1, 52, 0
3, 86520, Note_on_c, 1, 52, 92
3, 86580, Note_on_c, 1, 52, 0
3, 86640, Note_on_c, 1, 52, 92
3, 86700, Note_on_c, 1, 52, 0
3, 86760, Note_on_c, 1, 52, 92
3, 86820, Note_on_c, 1, 52, 0
3, 86820, Note_on_c, 1, 45, 103
3, 86840, Note_on_c, 1, 49, 92
3, 86860, Note_on_c, 1, 45, 0
3, 86860, Note_on_c, 1, 52, 93
3, 86880, Note_on_c, 1, 52, 0
3, 86880, Note_on_c, 1, 49, 0
3, 86880, Note_on_c, 1, 57, 92
3, 86940, Note_on_c, 1, 57, 0
3, 87000, Note_on_c, 1, 57, 92
3, 87060, Note_on_c, 1, 57, 0
3, 87120, Note_on_c, 1, 57, 92
3, 87180, Note_on_c, 1, 57, 0
3, 87240, Note_on_c, 1, 57, 92
3, 87300, Note_on_c, 1, 57, 0
3, 87300, Note_on_c, 1, 45, 103
3, 87320, Note_on_c, 1, 49, 92
3, 87340, Note_on_c, 1, 45, 0
3, 87340, Note_on_c, 1, 52, 93
3, 87360, Note_on_c, 1, 52, 0
3, 87360, Note_on_c, 1, 49, 0
3, 87360, Note_on_c, 1, 57, 92
3, 87420, Note_on_c, 1, 57, 0
3, 87480, Note_on_c, 1, 57, 92
3, 87540, Note_on_c, 1, 57, 0
3, 87600, Note_on_c, 1, 57, 92
3, 87660, Note_on_c, 1, 57, 0
3, 87720, Note_on_c, 1, 57, 92
3, 87780, Note_on_c, 1, 57, 0
3, 87780, Note_on_c, 1, 38, 103
3, 87800, Note_on_c, 1, 42, 92
3, 87820, Note_on_c, 1, 38, 0
3, 87820, Note_on_c, 1, 45, 93
3, 87840, Note_on_c, 1, 45, 0
3, 87840, Note_on_c, 1, 42, 0
3, 87840, Note_on_c, 1, 50, 92
3, 87900, Note_on_c, 1, 50, 0
3, 87960, Note_on_c, 1, 50, 92
3, 88020, Note_on_c, 1, 50, 0
3, 88020, Note_on_c, 1, 40, 103
3, 88040, Note_on_c, 1, 44, 92
3, 88060, Note_on_c, 1, 40, 0
3, 88060, Note_on_c, 1, 47, 93
3, 88080, Note_on_c, 1, 47, 0
3, 88080, Note_on_c, 1, 44, 0
3, 88080, Note_on_c, 1, 52, 92
3, 88140, Note_on_c, 1, 52, 0
3, 88200, Note_on_c, 1, 52, 92
3, 88260, Note_on_c, 1, 52, 0
3, 88320, Note_on_c, 1, 45, 92
3, 88560, Note_on_c, 1, 45, 0
3, 88740, Note_on_c, 1, 45, 103
3, 88760, Note_on_c, 1, 49, 92
3, 88780, Note_on_c, 1, 45, 0
3, 88780, Note_on_c, 1, 52, 93
3, 88800, Note_on_c, 1, 52, 0
3, 88800, Note_on_c, 1, 49, 0
3, 88800, Note_on_c, 1, 57, 92
3, 88860, Note_on_c, 1, 57, 0
3, 88920, Note_on_c, 1, 57, 92
3, 88980, Note_on_c, 1, 57, 0
3, 89040, Note_on_c, 1, 57, 92
3, 89100, Note_on_c, 1, 57, 0
3, 89160, Note_on_c, 1, 57, 92
3, 89220, Note_on_c, 1, 57, 0
3, 89220, Note_on_c, 1, 45, 103
3, 89240, Note_on_c, 1, 49, 92
3, 89260, Note_on_c, 1, 45, 0
3, 89260, Note_on_c, 1, 52, 93
3, 89280, Note_on_c, 1, 52, 0
3, 89280, Note_on_c, 1, 49, 0
3, 89280, Note_on_c, 1, 57, 92
3, 89340, Note_on_c, 1, 57, 0
3, 89400, Note_on_c, 1, 57, 92
3, 89460, Note_on_c, 1, 57, 0
3, 89520, Note_on_c, 1, 57, 92
3, 89580, Note_on_c, 1, 57, 0
3, 89640, Note_on_c, 1, 57, 92
3, 89700, Note_on_c, 1, 57, 0
3, 89700, Note_on_c, 1, 38, 103
3, 89720, Note_on_c, 1, 42, 92
3, 89740, Note_on_c, 1, 38, 0
3, 89740, Note_on_c, 1, 45, 93
3, 89760, Note_on_c, 1, 45, 0
3, 89760, Note_on_c, 1, 42, 0
3, 89760, Note_on_c, 1, 50, 92
3, 89820, Note_on_c, 1, 50, 0
3, 89880, Note_on_c, 1, 50, 92
3, 89940, Note_on_c, 1, 50, 0
3, 89940, Note_on_c, 1, 39, 103
3, 89960, Note_on_c, 1, 42, 92
3, 89980, Note_on_c, 1, 39, 0
3, 89980, Note_on_c, 1, 45, 93
3, 90000, Note_on_c, 1, 45, 0
3, 90000, Note_on_c, 1, 42, 0
3, 90000, Note_on_c, 1, 51, 92
3, 90060, Note_on_c, 1, 51, 0
3, 90120, Note_on_c, 1, 51, 92
3, 90180, Note_on_c, 1, 51, 0
3, 90180, Note_on_c, 1, 40, 103
3, 90200, Note_on_c, 1, 44, 92
3, 90220, Note_on_c, 1, 40, 0
3, 90220, Note_on_c, 1, 47, 93
3, 90240, Note_on_c, 1, 47, 0
3, 90240, Note_on_c, 1, 44, 0
3, 90240, Note_on_c, 1, 52, 92
3, 90300, Note_on_c, 1, 52, 0
3, 90360, Note_on_c, 1, 52, 92
3, 90420, Note_on_c, 1, 52, 0
3, 90480, Note_on_c, 1, 52, 92
3, 90540, Note_on_c, 1, 52, 0
3, 90600, Note_on_c, 1, 52, 92
3, 90660, Note_on_c, 1, 52, 0
3, 90660, Note_on_c, 1, 45, 103
3, 90680, Note_on_c, 1, 49, 92
3, 90700, Note_on_c, 1, 45, 0
3, 90700, Note_on_c, 1, 52, 93
3, 90720, Note_on_c, 1, 52, 0
3, 90720, Note_on_c, 1, 49, 0
3, 90720, Note_on_c, 1, 57, 92
3, 90780, Note_on_c, 1, 57, 0
3, 90840, Note_on_c, 1, 57, 92
3, 90900, Note_on_c, 1, 57, 0
3, 90960, Note_on_c, 1, 57, 92
3, 91020, Note_on_c, 1, 57, 0
3, 91080, Note_on_c, 1, 57, 92
3, 91140, Note_on_c, 1, 57, 0
3, 91140, Note_on_c, 1, 45, 103
3, 91160, Note_on_c, 1, 49, 92
3, 91180, Note_on_c, 1, 45, 0
3, 91180, Note_on_c, 1, 52, 93
3, 91200, Note_on_c, 1, 52, 0
3, 91200, Note_on_c, 1, 49, 0
3, 91200, Note_on_c, 1, 57, 92
3, 91260, Note_on_c, 1, 57, 0
3, 91320, Note_on_c, 1, 57, 92
3, 91380, Note_on_c, 1, 57, 0
3, 91440, Note_on_c, 1, 57, 92
3, 91500, Note_on_c, 1, 57, 0
3, 91560, Note_on_c, 1, 57, 92
3, 91620, Note_on_c, 1, 57, 0
3, 91620, Note_on_c, 1, 38, 103
3, 91640, Note_on_c, 1, 42, 92
3, 91660, Note_on_c, 1, 38, 0
3, 91660, Note_on_c, 1, 45, 93
3, 91680, Note_on_c, 1, 45, 0
3, 91680, Note_on_c, 1, 42, 0
3, 91680, Note_on_c, 1, 50, 92
3, 91740, Note_on_c, 1, 50, 0
3, 91800, Note_on_c, 1, 50, 92
3, 91860, Note_on_c, 1, 50, 0
3, 91860, Note_on_c, 1, 40, 103
3, 91880, Note_on_c, 1, 44, 92
3, 91900, Note_on_c, 1, 40, 0
3, 91900, Note_on_c, 1, 47, 93
3, 91920, Note_on_c, 1, 47, 0
3, 91920, Note_on_c, 1, 44, 0
3, 91920, Note_on_c, 1, 52, 92
3, 91980, Note_on_c, 1, 52, 0
3, 92040, Note_on_c, 1, 52, 92
3, 92100, Note_on_c, 1, 52, 0
3, 92100, Note_on_c, 1, 45, 103
3, 92120, Note_on_c, 1, 49, 92
3, 92140, Note_on_c, 1, 45, 0
3, 92140, Note_on_c, 1, 52, 93
3, 92160, Note_on_c, 1, 52, 0
3, 92160, Note_on_c, 1, 49, 0
3, 92160, Note_on_c, 1, 57, 93
3, 92220, Note_on_c, 1, 57, 0
3, 92280, Note_on_c, 1, 57, 93
3, 92340, Note_on_c, 1, 57, 0
3, 92400, Note_on_c, 1, 57, 96
3, 92460, Note_on_c, 1, 57, 0
3, 92520, Note_on_c, 1, 57, 96
3, 92580, Note_on_c, 1, 57, 0
3, 92580, Note_on_c, 1, 45, 108
3, 92600, Note_on_c, 1, 49, 96
3, 92620, Note_on_c, 1, 45, 0
3, 92620, Note_on_c, 1, 52, 97
3, 92640, Note_on_c, 1, 52, 0
3, 92640, Note_on_c, 1, 49, 0
3, 92640, Note_on_c, 1, 57, 96
3, 92700, Note_on_c, 1, 57, 0
3, 92760, Note_on_c, 1, 57, 96
3, 92820, Note_on_c, 1, 57, 0
3, 92880, Note_on_c, 1, 57, 96
3, 92940, Note_on_c, 1, 57, 0
3, 93000, Note_on_c, 1, 57, 96
3, 93060, Note_on_c, 1, 57, 0
3, 93060, Note_on_c, 1, 45, 108
3, 93080, Note_on_c, 1, 49, 96
3, 93100, Note_on_c, 1, 45, 0
3, 93100, Note_on_c, 1, 52, 97
3, 93120, Note_on_c, 1, 52, 0
3, 93120, Note_on_c, 1, 49, 0
3, 93120, Note_on_c, 1, 57, 96
3, 93180, Note_on_c, 1, 57, 0
3, 93240, Note_on_c, 1, 57, 96
3, 93300, Note_on_c, 1, 57, 0
3, 93360, Note_on_c, 1, 57, 96
3, 93420, Note_on_c, 1, 57, 0
3, 93480, Note_on_c, 1, 57, 96
3, 93540, Note_on_c, 1, 57, 0
3, 93540, Note_on_c, 1, 45, 108
3, 93560, Note_on_c, 1, 49, 96
3, 93580, Note_on_c, 1, 45, 0
3, 93580, Note_on_c, 1, 52, 97
3, 93600, Note_on_c, 1, 52, 0
3, 93600, Note_on_c, 1, 49, 0
3, 93600, Note_on_c, 1, 57, 96
3, 93660, Note_on_c, 1, 57, 0
3, 93720, Note_on_c, 1, 57, 96
3, 93780, Note_on_c, 1, 57, 0
3, 93840, Note_on_c, 1, 57, 96
3, 93900, Note_on_c, 1, 57, 0
3, 93960, Note_on_c, 1, 57, 96
3, 94020, Note_on_c, 1, 57, 0
3, 94020, Note_on_c, 1, 38, 108
3, 94040, Note_on_c, 1, 42, 96
3, 94060, Note_on_c, 1, 38, 0
3, 94060, Note_on_c, 1, 45, 97
3, 94080, Note_on_c, 1, 45, 0
3, 94080, Note_on_c, 1, 42, 0
3, 94080, Note_on_c, 1, 50, 96
3, 94140, Note_on_c, 1, 50, 0
3, 94200, Note_on_c, 1, 50, 96
3, 94260, Note_on_c, 1, 50, 0
3, 94320, Note_on_c, 1, 50, 96
3, 94380, Note_on_c, 1, 50, 0
3, 94440, Note_on_c, 1, 50, 96
3, 94500, Note_on_c, 1, 50, 0
3, 94500, Note_on_c, 1, 45, 108
3, 94520, Note_on_c, 1, 49, 96
3, 94540, Note_on_c, 1, 45, 0
3, 94540, Note_on_c, 1, 52, 97
3, 94560, Note_on_c, 1, 52, 0
3, 94560, Note_on_c, 1, 49, 0
3, 94560, Note_on_c, 1, 57, 96
3, 94620, Note_on_c, 1, 57, 0
3, 94680, Note_on_c, 1, 57, 96
3, 94740, Note_on_c, 1, 57, 0
3, 94800, Note_on_c, 1, 57, 96
3, 94860, Note_on_c, 1, 57, 0
3, 94920, Note_on_c, 1, 57, 96
3, 94980, Note_on_c, 1, 57, 0
3, 94980, Note_on_c, 1, 40, 108
3, 95000, Note_on_c, 1, 44, 96
3, 95020, Note_on_c, 1, 40, 0
3, 95020, Note_on_c, 1, 47, 97
3, 95040, Note_on_c, 1, 47, 0
3, 95040, Note_on_c, 1, 44, 0
3, 95040, Note_on_c, 1, 52, 96
3, 95100, Note_on_c, 1, 52, 0
3, 95160, Note_on_c, 1, 52, 96
3, 95220, Note_on_c, 1, 52, 0
3, 95280, Note_on_c, 1, 52, 96
3, 95340, Note_on_c, 1, 52, 0
3, 95400, Note_on_c, 1, 52, 96
3, 95460, Note_on_c, 1, 52, 0
3, 95460, Note_on_c, 1, 45, 108
3, 95480, Note_on_c, 1, 49, 96
3, 95500, Note_on_c, 1, 45, 0
3, 95500, Note_on_c, 1, 52, 97
3, 95520, Note_on_c, 1, 52, 0
3, 95520, Note_on_c, 1, 49, 0
3, 95520, Note_on_c, 1, 57, 96
3, 95580, Note_on_c, 1, 57, 0
3, 95640, Note_on_c, 1, 57, 96
3, 95700, Note_on_c, 1, 57, 0
3, 95760, Note_on_c, 1, 57, 96
3, 95820, Note_on_c, 1, 57, 0
3, 95880, Note_on_c, 1, 57, 96
3, 95940, Note_on_c, 1, 57, 0
3, 95940, Note_on_c, 1, 45, 108
3, 95960, Note_on_c, 1, 49, 96
3, 95980, Note_on_c, 1, 45, 0
3, 95980, Note_on_c, 1, 52, 97
3, 96000, Note_on_c, 1, 52, 0
3, 96000, Note_on_c, 1, 49, 0
3, 96000, Note_on_c, 1, 57, 96
3, 96060, Note_on_c, 1, 57, 0
3, 96120, Note_on_c, 1, 57, 96
3, 96180, Note_on_c, 1, 57, 0
3, 96240, Note_on_c, 1, 57, 96
3, 96300, Note_on_c, 1, 57, 0
3, 96360, Note_on_c, 1, 57, 96
3, 96420, Note_on_c, 1, 57, 0
3, 96420, Note_on_c, 1, 45, 108
3, 96440, Note_on_c, 1, 49, 96
3, 96460, Note_on_c, 1, 45, 0
3, 96460, Note_on_c, 1, 52, 97
3, 96480, Note_on_c, 1, 52, 0
3, 96480, Note_on_c, 1, 49, 0
3, 96480, Note_on_c, 1, 57, 96
3, 96540, Note_on_c, 1, 57, 0
3, 96600, Note_on_c, 1, 57, 96
3, 96660, Note_on_c, 1, 57, 0
3, 96720, Note_on_c, 1, 57, 96
3, 96780, Note_on_c, 1, 57, 0
3, 96840, Note_on_c, 1, 57, 96
3, 96900, Note_on_c, 1, 57, 0
3, 96900, Note_on_c, 1, 38, 108
3, 96920, Note_on_c, 1, 42, 96
3, 96940, Note_on_c, 1, 38, 0
3, 96940, Note_on_c, 1, 45, 97
3, 96960, Note_on_c, 1, 45, 0
3, 96960, Note_on_c, 1, 42, 0
3, 96960, Note_on_c, 1, 50, 96
3, 97020, Note_on_c, 1, 50, 0
3, 97080, Note_on_c, 1, 50, 96
3, 97140, Note_on_c, 1, 50, 0
3, 97200, Note_on_c, 1, 50, 96
3, 97260, Note_on_c, 1, 50, 0
3, 97320, Note_on_c, 1, 50, 96
3, 97380, Note_on_c, 1, 50, 0
3, 97380, Note_on_c, 1, 45, 108
3, 97400, Note_on_c, 1, 49, 96
3, 97420, Note_on_c, 1, 45, 0
3, 97420, Note_on_c, 1, 52, 97
3, 97440, Note_on_c, 1, 52, 0
3, 97440, Note_on_c, 1, 49, 0
3, 97440, Note_on_c, 1, 57, 96
3, 97500, Note_on_c, 1, 57, 0
3, 97560, Note_on_c, 1, 57, 96
3, 97620, Note_on_c, 1, 57, 0
3, 97680, Note_on_c, 1, 57, 96
3, 97740, Note_on_c, 1, 57, 0
3, 97800, Note_on_c, 1, 57, 96
3, 97860, Note_on_c, 1, 57, 0
3, 97860, Note_on_c, 1, 40, 108
3, 97880, Note_on_c, 1, 44, 96
3, 97900, Note_on_c, 1, 40, 0
3, 97900, Note_on_c, 1, 47, 97
3, 97920, Note_on_c, 1, 47, 0
3, 97920, Note_on_c, 1, 44, 0
3, 97920, Note_on_c, 1, 52, 96
3, 97980, Note_on_c, 1, 52, 0
3, 98040, Note_on_c, 1, 52, 96
3, 98100, Note_on_c, 1, 52, 0
3, 98160, Note_on_c, 1, 52, 96
3, 98220, Note_on_c, 1, 52, 0
3, 98280, Note_on_c, 1, 52, 96
3, 98340, Note_on_c, 1, 52, 0
3, 98400, Note_on_c, 1, 57, 80
3, 98460, Note_on_c, 1, 57, 0
3, 98460, Note_on_c, 1, 64, 80
3, 98520, Note_on_c, 1, 64, 0
3, 98520, Note_on_c, 1, 61, 80
3, 98580, Note_on_c, 1, 61, 0
3, 98580, Note_on_c, 1, 64, 80
3, 98640, Note_on_c, 1, 64, 0
3, 98640, Note_on_c, 1, 57, 80
3, 98700, Note_on_c, 1, 57, 0
3, 98700, Note_on_c, 1, 64, 80
3, 98760, Note_on_c, 1, 64, 0
3, 98760, Note_on_c, 1, 61, 80
3, 98820, Note_on_c, 1, 61, 0
3, 98820, Note_on_c, 1, 64, 80
3, 98880, Note_on_c, 1, 64, 0
3, 98880, Note_on_c, 1, 57, 80
3, 98940, Note_on_c, 1, 57, 0
3, 98940, Note_on_c, 1, 64, 80
3, 99000, Note_on_c, 1, 64, 0
3, 99000, Note_on_c, 1, 61, 80
3, 99060, Note_on_c, 1, 61, 0
3, 99060, Note_on_c, 1, 64, 80
3, 99120, Note_on_c, 1, 64, 0
3, 99120, Note_on_c, 1, 57, 80
3, 99180, Note_on_c, 1, 57, 0
3, 99180, Note_on_c, 1, 64, 80
3, 99240, Note_on_c, 1, 64, 0
3, 99240, Note_on_c, 1, 61, 80
3, 99300, Note_on_c, 1, 61, 0
3, 99300, Note_on_c, 1, 64, 80
3, 99360, Note_on_c, 1, 64, 0
3, 99360, Note_on_c, 1, 57, 80
3, 99420, Note_on_c, 1, 57, 0
3, 99420, Note_on_c, 1, 64, 80
3, 99480, Note_on_c, 1, 64, 0
3, 99480, Note_on_c, 1, 61, 80
3, 99540, Note_on_c, 1, 61, 0
3, 99540, Note_on_c, 1, 64, 80
3, 99600, Note_on_c, 1, 64, 0
3, 99600, Note_on_c, 1, 57, 80
3, 99660, Note_on_c, 1, 57, 0
3, 99660, Note_on_c, 1, 64, 80
3, 99720, Note_on_c, 1, 64, 0
3, 99720, Note_on_c, 1, 61, 80
3, 99780, Note_on_c, 1, 61, 0
3, 99780, Note_on_c, 1, 64, 80
3, 99840, Note_on_c, 1, 64, 0
3, 99840, Note_on_c, 1, 57, 80
3, 99900, Note_on_c, 1, 57, 0
3, 99900, Note_on_c, 1, 64, 80
3, 99960, Note_on_c, 1, 64, 0
3, 99960, Note_on_c, 1, 61, 80
3, 100020, Note_on_c, 1, 61, 0
3, 100020, Note_on_c, 1, 64, 80
3, 100080, Note_on_c, 1, 64, 0
3, 100080, Note_on_c, 1, 57, 80
3, 100140, Note_on_c, 1, 57, 0
3, 100140, Note_on_c, 1, 64, 80
3, 100200, Note_on_c, 1, 64, 0
3, 100200, Note_on_c, 1, 61, 80
3, 100260, Note_on_c, 1, 61, 0
3, 100260, Note_on_c, 1, 64, 80
3, 100320, Note_on_c, 1, 64, 0
3, 100320, Note_on_c, 1, 57, 80
3, 100380, Note_on_c, 1, 57, 0
3, 100380, Note_on_c, 1, 66, 80
3, 100440, Note_on_c, 1, 66, 0
3, 100440, Note_on_c, 1, 62, 80
3, 100500, Note_on_c, 1, 62, 0
3, 100500, Note_on_c, 1, 66, 80
3, 100560, Note_on_c, 1, 66, 0
3, 100560, Note_on_c, 1, 57, 80
3, 100620, Note_on_c, 1, 57, 0
3, 100620, Note_on_c, 1, 66, 80
3, 100680, Note_on_c, 1, 66, 0
3, 100680, Note_on_c, 1, 62, 80
3, 100740, Note_on_c, 1, 62, 0
3, 100740, Note_on_c, 1, 66, 80
3, 100800, Note_on_c, 1, 66, 0
3, 100800, Note_on_c, 1, 57, 80
3, 100860, Note_on_c, 1, 57, 0
3, 100860, Note_on_c, 1, 64, 80
3, 100920, Note_on_c, 1, 64, 0
3, 100920, Note_on_c, 1, 61, 80
3, 100980, Note_on_c, 1, 61, 0
3, 100980, Note_on_c, 1, 64, 80
3, 101040, Note_on_c, 1, 64, 0
3, 101040, Note_on_c, 1, 57, 80
3, 101100, Note_on_c, 1, 57, 0
3, 101100, Note_on_c, 1, 64, 80
3, 101160, Note_on_c, 1, 64, 0
3, 101160, Note_on_c, 1, 61, 80
3, 101220, Note_on_c, 1, 61, 0
3, 101220, Note_on_c, 1, 64, 80
3, 101280, Note_on_c, 1, 64, 0
3, 101280, Note_on_c, 1, 52, 80
3, 101340, Note_on_c, 1, 52, 0
3, 101340, Note_on_c, 1, 64, 80
3, 101400, Note_on_c, 1, 64, 0
3, 101400, Note_on_c, 1, 56, 80
3, 101460, Note_on_c, 1, 56, 0
3, 101460, Note_on_c, 1, 64, 80
3, 101520, Note_on_c, 1, 64, 0
3, 101520, Note_on_c, 1, 52, 80
3, 101580, Note_on_c, 1, 52, 0
3, 101580, Note_on_c, 1, 64, 80
3, 101640, Note_on_c, 1, 64, 0
3, 101640, Note_on_c, 1, 56, 80
3, 101700, Note_on_c, 1, 56, 0
3, 101700, Note_on_c, 1, 64, 96
3, 101700, Note_on_c, 1, 45, 108
3, 101720, Note_on_c, 1, 49, 96
3, 101740, Note_on_c, 1, 45, 0
3, 101740, Note_on_c, 1, 52, 97
3, 101760, Note_on_c, 1, 52, 0
3, 101760, Note_on_c, 1, 49, 0
3, 101760, Note_on_c, 1, 64, 0
3, 101760, Note_on_c, 1, 57, 96
3, 101820, Note_on_c, 1, 57, 0
3, 101880, Note_on_c, 1, 57, 96
3, 101940, Note_on_c, 1, 57, 0
3, 102000, Note_on_c, 1, 57, 96
3, 102060, Note_on_c, 1, 57, 0
3, 102120, Note_on_c, 1, 57, 96
3, 102180, Note_on_c, 1, 57, 0
3, 102180, Note_on_c, 1, 45, 108
3, 102200, Note_on_c, 1, 49, 96
3, 102220, Note_on_c, 1, 45, 0
3, 102220, Note_on_c, 1, 52, 97
3, 102240, Note_on_c, 1, 52, 0
3, 102240, Note_on_c, 1, 49, 0
3, 102240, Note_on_c, 1, 57, 96
3, 102300, Note_on_c, 1, 57, 0
3, 102360, Note_on_c, 1, 57, 96
3, 102420, Note_on_c, 1, 57, 0
3, 102480, Note_on_c, 1, 57, 96
3, 102540, Note_on_c, 1, 57, 0
3, 102600, Note_on_c, 1, 57, 96
3, 102660, Note_on_c, 1, 57, 0
3, 102660, Note_on_c, 1, 45, 108
3, 102680, Note_on_c, 1, 49, 96
3, 102700, Note_on_c, 1, 45, 0
3, 102700, Note_on_c, 1, 52, 97
3, 102720, Note_on_c, 1, 52, 0
3, 102720, Note_on_c, 1, 49, 0
3, 102720, Note_on_c, 1, 57, 96
3, 102780, Note_on_c, 1, 57, 0
3, 102840, Note_on_c, 1, 57, 96
3, 102900, Note_on_c, 1, 57, 0
3, 102960, Note_on_c, 1, 57, 96
3, 103020, Note_on_c, 1, 57, 0
3, 103080, Note_on_c, 1, 57, 96
3, 103140, Note_on_c, 1, 57, 0
3, 103140, Note_on_c, 1, 38, 108
3, 103160, Note_on_c, 1, 42, 96
3, 103180, Note_on_c, 1, 38, 0
3, 103180, Note_on_c, 1, 45, 97
3, 103200, Note_on_c, 1, 45, 0
3, 103200, Note_on_c, 1, 42, 0
3, 103200, Note_on_c, 1, 50, 96
3, 103260, Note_on_c, 1, 50, 0
3, 103320, Note_on_c, 1, 50, 96
3, 103380, Note_on_c, 1, 50, 0
3, 103440, Note_on_c, 1, 50, 96
3, 103500, Note_on_c, 1, 50, 0
3, 103560, Note_on_c, 1, 50, 96
3, 103620, Note_on_c, 1, 50, 0
3, 103620, Note_on_c, 1, 45, 108
3, 103640, Note_on_c, 1, 49, 96
3, 103660, Note_on_c, 1, 45, 0
3, 103660, Note_on_c, 1, 52, 97
3, 103680, Note_on_c, 1, 52, 0
3, 103680, Note_on_c, 1, 49, 0
3, 103680, Note_on_c, 1, 57, 96
3, 103740, Note_on_c, 1, 57, 0
3, 103800, Note_on_c, 1, 57, 96
3, 103860, Note_on_c, 1, 57, 0
3, 103920, Note_on_c, 1, 57, 96
3, 103980, Note_on_c, 1, 57, 0
3, 104040, Note_on_c, 1, 57, 96
3, 104100, Note_on_c, 1, 57, 0
3, 104100, Note_on_c, 1, 40, 108
3, 104120, Note_on_c, 1, 44, 96
3, 104140, Note_on_c, 1, 40, 0
3, 104140, Note_on_c, 1, 47, 97
3, 104160, Note_on_c, 1, 47, 0
3, 104160, Note_on_c, 1, 44, 0
3, 104160, Note_on_c, 1, 52, 96
3, 104220, Note_on_c, 1, 52, 0
3, 104280, Note_on_c, 1, 52, 96
3, 104340, Note_on_c, 1, 52, 0
3, 104400, Note_on_c, 1, 52, 96
3, 104460, Note_on_c, 1, 52, 0
3, 104520, Note_on_c, 1, 52, 96
3, 104580, Note_on_c, 1, 52, 0
3, 104580, Note_on_c, 1, 45, 108
3, 104600, Note_on_c, 1, 49, 96
3, 104620, Note_on_c, 1, 45, 0
3, 104620, Note_on_c, 1, 52, 97
3, 104640, Note_on_c, 1, 52, 0
3, 104640, Note_on_c, 1, 49, 0
3, 104640, Note_on_c, 1, 57, 96
3, 104700, Note_on_c, 1, 57, 0
3, 104760, Note_on_c, 1, 57, 96
3, 104820, Note_on_c, 1, 57, 0
3, 104880, Note_on_c, 1, 57, 96
3, 104940, Note_on_c, 1, 57, 0
3, 105000, Note_on_c, 1, 57, 96
3, 105060, Note_on_c, 1, 57, 0
3, 105060, Note_on_c, 1, 45, 108
3, 105080, Note_on_c, 1, 49, 96
3, 105100, Note_on_c, 1, 45, 0
3, 105100, Note_on_c, 1, 52, 97
3, 105120, Note_on_c, 1, 52, 0
3, 105120, Note_on_c, 1, 49, 0
3, 105120, Note_on_c, 1, 57, 96
3, 105180, Note_on_c, 1, 57, 0
3, 105240, Note_on_c, 1, 57, 96
3, 105300, Note_on_c, 1, 57, 0
3, 105360, Note_on_c, 1, 57, 96
3, 105420, Note_on_c, 1, 57, 0
3, 105480, Note_on_c, 1, 57, 96
3, 105540, Note_on_c, 1, 57, 0
3, 105540, Note_on_c, 1, 45, 108
3, 105560, Note_on_c, 1, 49, 96
3, 105580, Note_on_c, 1, 45, 0
3, 105580, Note_on_c, 1, 52, 97
3, 105600, Note_on_c, 1, 52, 0
3, 105600, Note_on_c, 1, 49, 0
3, 105600, Note_on_c, 1, 57, 96
3, 105660, Note_on_c, 1, 57, 0
3, 105720, Note_on_c, 1, 57, 96
3, 105780, Note_on_c, 1, 57, 0
3, 105840, Note_on_c, 1, 57, 96
3, 105900, Note_on_c, 1, 57, 0
3, 105960, Note_on_c, 1, 57, 96
3, 106020, Note_on_c, 1, 57, 0
3, 106020, Note_on_c, 1, 45, 108
3, 106040, Note_on_c, 1, 49, 96
3, 106060, Note_on_c, 1, 45, 0
3, 106060, Note_on_c, 1, 52, 97
3, 106080, Note_on_c, 1, 52, 0
3, 106080, Note_on_c, 1, 49, 0
3, 106080, Note_on_c, 1, 57, 96
3, 106140, Note_on_c, 1, 57, 0
3, 106200, Note_on_c, 1, 57, 96
3, 106260, Note_on_c, 1, 57, 0
3, 106260, Note_on_c, 1, 45, 108
3, 106280, Note_on_c, 1, 49, 96
3, 106300, Note_on_c, 1, 45, 0
3, 106300, Note_on_c, 1, 52, 97
3, 106320, Note_on_c, 1, 52, 0
3, 106320, Note_on_c, 1, 49, 0
3, 106320, Note_on_c, 1, 57, 96
3, 106380, Note_on_c, 1, 57, 0
3, 106440, Note_on_c, 1, 57, 96
3, 106500, Note_on_c, 1, 57, 0
3, 106560, Note_on_c, 1, 45, 96
3, 106680, Note_on_c, 1, 45, 0
3, 106800, Note_on_c, 1, 45, 96
3, 106800, Note_on_c, 1, 49, 96
3, 106800, Note_on_c, 1, 52, 96
3, 106800, Note_on_c, 1, 57, 96
3, 107280, Note_on_c, 1, 57, 0
3, 107280, Note_on_c, 1, 45, 0
3, 107280, Note_on_c, 1, 49, 0
3, 107280, Note_on_c, 1, 52, 0
3, 107280, End_track
4, 0, Start_track
4, 0, End_track
0, 0, End_of_file
