0, 0, Header, 1, 9, 480
1, 0, Start_track
1, 0, Title_t, "Klaviersonate C-Dur KV 330"
1, 0, Title_t, "3. Satz"
1, 0, Copyright_t, "Copyright © 1997 von Bernd Krüger. http://www.piano-midi.de"
1, 0, Text_t, "Mozart"
1, 0, Text_t, "Allegretto"
1, 0, Text_t, "Update am 31.3.2000\012"
1, 0, Text_t, "Update am 8.1.2001\012"
1, 0, Text_t, "Update am 4.12.2001\012"
1, 0, Text_t, "Normierung: 23.12.2002\012"
1, 0, Text_t, "Gesamtdauer: 8:20 Minuten\012"
1, 0, Time_signature, 2, 2, 24, 8
1, 0, Key_signature, 0, "major"
1, 0, Tempo, 717103
1, 0, Marker_t, "Allegretto"
1, 1440, Tempo, 731707
1, 1920, Tempo, 717103
1, 3120, Tempo, 724725
1, 3360, Tempo, 731707
1, 3840, Tempo, 717103
1, 4560, Tempo, 732601
1, 4800, Tempo, 717103
1, 6720, Tempo, 717103
1, 6880, Tempo, 720894
1, 7040, Tempo, 724725
1, 7200, Tempo, 728686
1, 7360, Tempo, 732601
1, 7520, Tempo, 736558
1, 7680, Tempo, 717103
1, 9120, Tempo, 724725
1, 9600, Tempo, 717103
1, 10800, Tempo, 724725
1, 11040, Tempo, 724725
1, 11520, Tempo, 717103
1, 12240, Tempo, 732601
1, 12480, Tempo, 717103
1, 13440, Tempo, 728686
1, 13680, Tempo, 717103
1, 13920, Tempo, 752823
1, 14400, Tempo, 728686
1, 14880, Tempo, 717103
1, 15360, Tempo, 732601
1, 15600, Tempo, 714286
1, 16080, Tempo, 727273
1, 16320, Tempo, 728686
1, 16800, Tempo, 717103
1, 17280, Tempo, 732601
1, 17500, Tempo, 731707
1, 17520, Tempo, 710059
1, 18000, Tempo, 727273
1, 18220, Tempo, 701754
1, 18240, Tempo, 779221
1, 18480, Tempo, 882353
1, 19200, Tempo, 717103
1, 20520, Tempo, 748690
1, 20640, Tempo, 714286
1, 21720, Tempo, 757002
1, 21840, Tempo, 724725
1, 22320, Tempo, 740558
1, 22440, Tempo, 724725
1, 23040, Tempo, 717103
1, 23520, Tempo, 705882
1, 24360, Tempo, 744602
1, 24480, Tempo, 717103
1, 24960, Tempo, 713352
1, 25160, Tempo, 717103
1, 25360, Tempo, 720894
1, 25560, Tempo, 724725
1, 25800, Tempo, 783085
1, 25920, Tempo, 748690
1, 26760, Tempo, 845070
1, 26880, Tempo, 745342
1, 27120, Tempo, 714286
1, 27600, Tempo, 714286
1, 27680, Tempo, 718563
1, 27760, Tempo, 722892
1, 27840, Tempo, 745342
1, 28080, Tempo, 714286
1, 28720, Tempo, 759494
1, 28800, Tempo, 714286
1, 29200, Tempo, 784314
1, 29280, Tempo, 714286
1, 29680, Tempo, 794702
1, 29760, Tempo, 727273
1, 30720, Tempo, 714286
1, 32160, Tempo, 705882
1, 32520, Tempo, 759494
1, 32640, Tempo, 722892
1, 33120, Tempo, 714286
1, 34560, Tempo, 714286
1, 36000, Tempo, 722892
1, 36480, Tempo, 714286
1, 38760, Tempo, 750000
1, 38880, Tempo, 714286
1, 39840, Tempo, 705882
1, 40200, Tempo, 759494
1, 40320, Tempo, 727273
1, 40680, Tempo, 754717
1, 40800, Tempo, 714286
1, 42600, Tempo, 750000
1, 42720, Tempo, 714286
1, 44040, Tempo, 794702
1, 44160, Tempo, 727273
1, 45000, Tempo, 794702
1, 45120, Tempo, 727273
1, 45360, Tempo, 722892
1, 45420, Tempo, 727273
1, 45480, Tempo, 731707
1, 45520, Tempo, 736196
1, 45580, Tempo, 740741
1, 45640, Tempo, 745342
1, 45680, Tempo, 750000
1, 45740, Tempo, 754717
1, 45800, Tempo, 759494
1, 45840, Tempo, 764331
1, 45900, Tempo, 769231
1, 45940, Tempo, 774194
1, 45960, Tempo, 784314
1, 46080, Tempo, 727273
1, 46920, Tempo, 794702
1, 47040, Tempo, 727273
1, 47280, Tempo, 722892
1, 47340, Tempo, 727273
1, 47400, Tempo, 731707
1, 47440, Tempo, 736196
1, 47500, Tempo, 740741
1, 47560, Tempo, 745342
1, 47600, Tempo, 750000
1, 47660, Tempo, 754717
1, 47720, Tempo, 759494
1, 47760, Tempo, 764331
1, 47820, Tempo, 769231
1, 47860, Tempo, 774194
1, 47880, Tempo, 784314
1, 48120, Tempo, 722892
1, 48960, Tempo, 731707
1, 49120, Tempo, 816327
1, 49180, Tempo, 740741
1, 49200, Tempo, 740741
1, 49300, Tempo, 745342
1, 49400, Tempo, 750000
1, 49500, Tempo, 754717
1, 49600, Tempo, 759494
1, 49700, Tempo, 764331
1, 49800, Tempo, 769231
1, 49900, Tempo, 774194
1, 49920, Tempo, 805369
1, 50040, Tempo, 759494
1, 51120, Tempo, 779221
1, 51600, Tempo, 800000
1, 51840, Tempo, 789474
1, 51960, Tempo, 722892
1, 52800, Tempo, 731707
1, 52960, Tempo, 816327
1, 53020, Tempo, 740741
1, 53040, Tempo, 740741
1, 53140, Tempo, 745342
1, 53240, Tempo, 750000
1, 53340, Tempo, 754717
1, 53440, Tempo, 759494
1, 53540, Tempo, 764331
1, 53640, Tempo, 769231
1, 53740, Tempo, 774194
1, 53760, Tempo, 805369
1, 53880, Tempo, 764331
1, 54600, Tempo, 810811
1, 54720, Tempo, 764331
1, 55040, Tempo, 759494
1, 55340, Tempo, 754717
1, 55640, Tempo, 750000
1, 55680, Tempo, 784314
1, 55920, Tempo, 727273
1, 56400, Tempo, 745342
1, 57120, Tempo, 714286
1, 57360, Tempo, 740741
1, 58080, Tempo, 714286
1, 58560, Tempo, 736196
1, 60000, Tempo, 714286
1, 60480, Tempo, 740741
1, 61920, Tempo, 714286
1, 62400, Tempo, 740741
1, 62880, Tempo, 714286
1, 63360, Tempo, 740741
1, 63600, Tempo, 805369
1, 64080, Tempo, 888889
1, 64320, Tempo, 960000
1, 64560, Tempo, 1132075
1, 64800, Tempo, 1290323
1, 65040, Tempo, 718563
1, 65280, Tempo, 717103
1, 65280, Marker_t, "1. Teil Wiederholung"
1, 66720, Tempo, 731707
1, 67200, Tempo, 717103
1, 68400, Tempo, 724725
1, 68640, Tempo, 731707
1, 69120, Tempo, 717103
1, 69840, Tempo, 732601
1, 70080, Tempo, 717103
1, 72000, Tempo, 717103
1, 72160, Tempo, 720894
1, 72320, Tempo, 724725
1, 72480, Tempo, 728686
1, 72640, Tempo, 732601
1, 72800, Tempo, 736558
1, 72960, Tempo, 717103
1, 74400, Tempo, 724725
1, 74880, Tempo, 717103
1, 76080, Tempo, 724725
1, 76320, Tempo, 724725
1, 76800, Tempo, 717103
1, 77520, Tempo, 732601
1, 77760, Tempo, 717103
1, 78720, Tempo, 728686
1, 78960, Tempo, 717103
1, 79200, Tempo, 752823
1, 79680, Tempo, 728686
1, 80160, Tempo, 717103
1, 80640, Tempo, 732601
1, 80880, Tempo, 714286
1, 81360, Tempo, 727273
1, 81600, Tempo, 728686
1, 82080, Tempo, 717103
1, 82560, Tempo, 732601
1, 82780, Tempo, 731707
1, 82800, Tempo, 710059
1, 83280, Tempo, 727273
1, 83500, Tempo, 701754
1, 83520, Tempo, 779221
1, 83760, Tempo, 882353
1, 84480, Tempo, 717103
1, 85800, Tempo, 748690
1, 85920, Tempo, 714286
1, 87000, Tempo, 757002
1, 87120, Tempo, 724725
1, 87600, Tempo, 740558
1, 87720, Tempo, 724725
1, 88320, Tempo, 717103
1, 88800, Tempo, 705882
1, 89640, Tempo, 744602
1, 89760, Tempo, 717103
1, 90240, Tempo, 713352
1, 90440, Tempo, 717103
1, 90640, Tempo, 720894
1, 90840, Tempo, 724725
1, 91080, Tempo, 783085
1, 91200, Tempo, 748690
1, 92040, Tempo, 845070
1, 92160, Tempo, 745342
1, 92400, Tempo, 714286
1, 92880, Tempo, 714286
1, 92960, Tempo, 718563
1, 93040, Tempo, 722892
1, 93120, Tempo, 745342
1, 93360, Tempo, 714286
1, 94000, Tempo, 759494
1, 94080, Tempo, 714286
1, 94480, Tempo, 784314
1, 94560, Tempo, 714286
1, 94960, Tempo, 794702
1, 95040, Tempo, 727273
1, 96000, Tempo, 714286
1, 97440, Tempo, 705882
1, 97800, Tempo, 759494
1, 97920, Tempo, 722892
1, 98400, Tempo, 714286
1, 99840, Tempo, 714286
1, 101280, Tempo, 722892
1, 101760, Tempo, 714286
1, 104040, Tempo, 750000
1, 104160, Tempo, 714286
1, 105120, Tempo, 705882
1, 105480, Tempo, 759494
1, 105600, Tempo, 727273
1, 105960, Tempo, 754717
1, 106080, Tempo, 714286
1, 107880, Tempo, 750000
1, 108000, Tempo, 714286
1, 109320, Tempo, 794702
1, 109440, Tempo, 727273
1, 110280, Tempo, 794702
1, 110400, Tempo, 727273
1, 110640, Tempo, 722892
1, 110700, Tempo, 727273
1, 110760, Tempo, 731707
1, 110800, Tempo, 736196
1, 110860, Tempo, 740741
1, 110920, Tempo, 745342
1, 110960, Tempo, 750000
1, 111020, Tempo, 754717
1, 111080, Tempo, 759494
1, 111120, Tempo, 764331
1, 111180, Tempo, 769231
1, 111220, Tempo, 774194
1, 111240, Tempo, 784314
1, 111360, Tempo, 727273
1, 112200, Tempo, 794702
1, 112320, Tempo, 727273
1, 112560, Tempo, 722892
1, 112620, Tempo, 727273
1, 112680, Tempo, 731707
1, 112720, Tempo, 736196
1, 112780, Tempo, 740741
1, 112840, Tempo, 745342
1, 112880, Tempo, 750000
1, 112940, Tempo, 754717
1, 113000, Tempo, 759494
1, 113040, Tempo, 764331
1, 113100, Tempo, 769231
1, 113140, Tempo, 774194
1, 113160, Tempo, 784314
1, 113400, Tempo, 722892
1, 114240, Tempo, 731707
1, 114400, Tempo, 816327
1, 114460, Tempo, 740741
1, 114480, Tempo, 740741
1, 114580, Tempo, 745342
1, 114680, Tempo, 750000
1, 114780, Tempo, 754717
1, 114880, Tempo, 759494
1, 114980, Tempo, 764331
1, 115080, Tempo, 769231
1, 115180, Tempo, 774194
1, 115200, Tempo, 805369
1, 115320, Tempo, 759494
1, 116400, Tempo, 779221
1, 116880, Tempo, 800000
1, 117120, Tempo, 789474
1, 117240, Tempo, 722892
1, 118080, Tempo, 731707
1, 118240, Tempo, 816327
1, 118300, Tempo, 740741
1, 118320, Tempo, 740741
1, 118420, Tempo, 745342
1, 118520, Tempo, 750000
1, 118620, Tempo, 754717
1, 118720, Tempo, 759494
1, 118820, Tempo, 764331
1, 118920, Tempo, 769231
1, 119020, Tempo, 774194
1, 119040, Tempo, 805369
1, 119160, Tempo, 764331
1, 119880, Tempo, 810811
1, 120000, Tempo, 764331
1, 120320, Tempo, 759494
1, 120620, Tempo, 754717
1, 120920, Tempo, 750000
1, 120960, Tempo, 784314
1, 121200, Tempo, 727273
1, 121680, Tempo, 745342
1, 122400, Tempo, 714286
1, 122640, Tempo, 740741
1, 123360, Tempo, 714286
1, 123840, Tempo, 736196
1, 125280, Tempo, 714286
1, 125760, Tempo, 740741
1, 127200, Tempo, 714286
1, 127680, Tempo, 740741
1, 128160, Tempo, 714286
1, 128640, Tempo, 740741
1, 128880, Tempo, 805369
1, 129360, Tempo, 888889
1, 129600, Tempo, 1043478
1, 129840, Tempo, 1290323
1, 130320, Tempo, 718563
1, 130560, Marker_t, "2. Teil"
1, 131280, Tempo, 754717
1, 131520, Tempo, 731707
1, 131800, Tempo, 731707
1, 132000, Tempo, 714286
1, 132240, Tempo, 745342
1, 132480, Tempo, 718563
1, 132960, Tempo, 727273
1, 133200, Tempo, 805369
1, 133440, Tempo, 750000
1, 133920, Tempo, 731707
1, 134400, Tempo, 714286
1, 135120, Tempo, 740741
1, 135360, Tempo, 714286
1, 135600, Tempo, 731707
1, 135840, Tempo, 714286
1, 136080, Tempo, 731707
1, 136320, Tempo, 714286
1, 136560, Tempo, 727273
1, 136800, Tempo, 745342
1, 137040, Tempo, 833333
1, 137280, Tempo, 805369
1, 137760, Tempo, 789474
1, 138000, Tempo, 714286
1, 138960, Tempo, 736196
1, 139200, Tempo, 714286
1, 139680, Tempo, 714286
1, 140160, Tempo, 689655
1, 140880, Tempo, 701754
1, 141120, Tempo, 701754
1, 142080, Tempo, 689655
1, 142800, Tempo, 701754
1, 143040, Tempo, 701754
1, 144000, Tempo, 689655
1, 144720, Tempo, 714286
1, 144960, Tempo, 701754
1, 147840, Tempo, 714286
1, 148560, Tempo, 701754
1, 148800, Tempo, 714286
1, 149520, Tempo, 701754
1, 149760, Tempo, 714286
1, 150000, Tempo, 701754
1, 150240, Tempo, 714286
1, 150480, Tempo, 697674
1, 150720, Tempo, 714286
1, 151320, Tempo, 701754
1, 151680, Tempo, 731707
1, 151800, Tempo, 714286
1, 152160, Tempo, 731707
1, 152280, Tempo, 718563
1, 152640, Tempo, 714286
1, 152880, Tempo, 731707
1, 153120, Tempo, 714286
1, 153360, Tempo, 731707
1, 153600, Tempo, 714286
1, 154560, Tempo, 740741
1, 154800, Tempo, 769231
1, 155040, Tempo, 740741
1, 155280, Tempo, 769231
1, 155520, Tempo, 750000
1, 156480, Tempo, 717103
1, 157720, Tempo, 731707
1, 157920, Tempo, 731707
1, 158400, Tempo, 717103
1, 159600, Tempo, 724725
1, 159840, Tempo, 731707
1, 160320, Tempo, 717103
1, 161040, Tempo, 732601
1, 161280, Tempo, 717103
1, 163200, Tempo, 717103
1, 163360, Tempo, 720894
1, 163520, Tempo, 724725
1, 163680, Tempo, 728686
1, 163840, Tempo, 732601
1, 164000, Tempo, 736558
1, 164160, Tempo, 717103
1, 165600, Tempo, 724725
1, 166080, Tempo, 717103
1, 167280, Tempo, 724725
1, 167520, Tempo, 724725
1, 168000, Tempo, 717103
1, 168720, Tempo, 732601
1, 168960, Tempo, 717103
1, 169920, Tempo, 728686
1, 170160, Tempo, 717103
1, 170400, Tempo, 752823
1, 170880, Tempo, 728686
1, 171360, Tempo, 717103
1, 171840, Tempo, 732601
1, 172080, Tempo, 714286
1, 172560, Tempo, 727273
1, 172800, Tempo, 728686
1, 173280, Tempo, 717103
1, 173760, Tempo, 732601
1, 173980, Tempo, 731707
1, 174000, Tempo, 710059
1, 174480, Tempo, 727273
1, 174700, Tempo, 701754
1, 174720, Tempo, 779221
1, 174960, Tempo, 882353
1, 175680, Tempo, 717103
1, 177000, Tempo, 748690
1, 177120, Tempo, 714286
1, 178200, Tempo, 757002
1, 178320, Tempo, 724725
1, 178800, Tempo, 740558
1, 178920, Tempo, 724725
1, 179520, Tempo, 717103
1, 180000, Tempo, 705882
1, 180840, Tempo, 744602
1, 180960, Tempo, 717103
1, 181440, Tempo, 713352
1, 181640, Tempo, 717103
1, 181840, Tempo, 720894
1, 182040, Tempo, 724725
1, 182280, Tempo, 783085
1, 182400, Tempo, 748690
1, 183240, Tempo, 845070
1, 183600, Tempo, 714286
1, 184080, Tempo, 714286
1, 184160, Tempo, 718563
1, 184240, Tempo, 722892
1, 184320, Tempo, 745342
1, 184560, Tempo, 714286
1, 185200, Tempo, 759494
1, 185280, Tempo, 745342
1, 185520, Tempo, 714286
1, 185760, Tempo, 710059
1, 185820, Tempo, 714286
1, 185860, Tempo, 718563
1, 185900, Tempo, 722892
1, 185940, Tempo, 727273
1, 186000, Tempo, 731707
1, 186040, Tempo, 736196
1, 186080, Tempo, 740741
1, 186120, Tempo, 745342
1, 186140, Tempo, 727273
1, 186160, Tempo, 759494
1, 186240, Tempo, 745342
1, 186480, Tempo, 727273
1, 186720, Tempo, 714286
1, 187120, Tempo, 759494
1, 187200, Tempo, 745342
1, 187440, Tempo, 722892
1, 188080, Tempo, 759494
1, 188160, Tempo, 745342
1, 188400, Tempo, 714286
1, 189040, Tempo, 759494
1, 189120, Tempo, 714286
1, 189520, Tempo, 784314
1, 189600, Tempo, 714286
1, 190000, Tempo, 794702
1, 190080, Tempo, 736196
1, 190520, Tempo, 750000
1, 190800, Tempo, 774194
1, 190920, Tempo, 816327
1, 191040, Tempo, 750000
1, 191520, Tempo, 727273
1, 192480, Tempo, 714286
1, 192840, Tempo, 759494
1, 192960, Tempo, 731707
1, 193440, Tempo, 714286
1, 194400, Tempo, 722892
1, 194640, Tempo, 727273
1, 194860, Tempo, 697674
1, 194880, Tempo, 750000
1, 195360, Tempo, 727273
1, 196320, Tempo, 714286
1, 196680, Tempo, 759494
1, 197040, Tempo, 714286
1, 199080, Tempo, 750000
1, 199200, Tempo, 714286
1, 200160, Tempo, 705882
1, 200520, Tempo, 759494
1, 200640, Tempo, 727273
1, 201000, Tempo, 754717
1, 201120, Tempo, 714286
1, 202920, Tempo, 750000
1, 203040, Tempo, 714286
1, 204360, Tempo, 794702
1, 204480, Tempo, 727273
1, 205320, Tempo, 794702
1, 205440, Tempo, 727273
1, 205680, Tempo, 722892
1, 205740, Tempo, 727273
1, 205800, Tempo, 731707
1, 205840, Tempo, 736196
1, 205900, Tempo, 740741
1, 205960, Tempo, 745342
1, 206000, Tempo, 750000
1, 206060, Tempo, 754717
1, 206120, Tempo, 759494
1, 206160, Tempo, 764331
1, 206220, Tempo, 769231
1, 206260, Tempo, 774194
1, 206280, Tempo, 784314
1, 206400, Tempo, 727273
1, 207240, Tempo, 794702
1, 207360, Tempo, 727273
1, 207600, Tempo, 722892
1, 207660, Tempo, 727273
1, 207720, Tempo, 731707
1, 207760, Tempo, 736196
1, 207820, Tempo, 740741
1, 207880, Tempo, 745342
1, 207920, Tempo, 750000
1, 207980, Tempo, 754717
1, 208040, Tempo, 759494
1, 208080, Tempo, 764331
1, 208140, Tempo, 769231
1, 208180, Tempo, 774194
1, 208200, Tempo, 784314
1, 208440, Tempo, 722892
1, 209280, Tempo, 731707
1, 209440, Tempo, 816327
1, 209500, Tempo, 740741
1, 209520, Tempo, 740741
1, 209620, Tempo, 745342
1, 209720, Tempo, 750000
1, 209820, Tempo, 754717
1, 209920, Tempo, 759494
1, 210020, Tempo, 764331
1, 210120, Tempo, 769231
1, 210220, Tempo, 774194
1, 210240, Tempo, 805369
1, 210360, Tempo, 759494
1, 211440, Tempo, 779221
1, 211920, Tempo, 800000
1, 212160, Tempo, 789474
1, 212280, Tempo, 722892
1, 213120, Tempo, 731707
1, 213280, Tempo, 816327
1, 213340, Tempo, 740741
1, 213360, Tempo, 740741
1, 213460, Tempo, 745342
1, 213560, Tempo, 750000
1, 213660, Tempo, 754717
1, 213760, Tempo, 759494
1, 213860, Tempo, 764331
1, 213960, Tempo, 769231
1, 214060, Tempo, 774194
1, 214080, Tempo, 805369
1, 214200, Tempo, 764331
1, 214920, Tempo, 810811
1, 215040, Tempo, 764331
1, 215360, Tempo, 759494
1, 215660, Tempo, 754717
1, 215960, Tempo, 750000
1, 216000, Tempo, 784314
1, 216240, Tempo, 727273
1, 216720, Tempo, 745342
1, 217440, Tempo, 714286
1, 217680, Tempo, 740741
1, 218400, Tempo, 714286
1, 218880, Tempo, 736196
1, 220320, Tempo, 714286
1, 220800, Tempo, 740741
1, 222240, Tempo, 714286
1, 222720, Tempo, 740741
1, 223200, Tempo, 714286
1, 223680, Tempo, 731707
1, 224160, Tempo, 714286
1, 224640, Tempo, 736196
1, 225120, Tempo, 705882
1, 225600, Tempo, 727273
1, 225840, Tempo, 759494
1, 226320, Tempo, 845070
1, 229440, Tempo, 731707
1, 229440, Marker_t, "2. Teil Wiederholung"
1, 230160, Tempo, 754717
1, 230400, Tempo, 731707
1, 230680, Tempo, 731707
1, 230880, Tempo, 714286
1, 231120, Tempo, 745342
1, 231360, Tempo, 718563
1, 231840, Tempo, 727273
1, 232080, Tempo, 805369
1, 232320, Tempo, 750000
1, 232800, Tempo, 731707
1, 233280, Tempo, 714286
1, 234000, Tempo, 740741
1, 234240, Tempo, 714286
1, 234480, Tempo, 731707
1, 234720, Tempo, 714286
1, 234960, Tempo, 731707
1, 235200, Tempo, 714286
1, 235440, Tempo, 727273
1, 235680, Tempo, 745342
1, 235920, Tempo, 833333
1, 236160, Tempo, 805369
1, 236640, Tempo, 789474
1, 236880, Tempo, 714286
1, 237840, Tempo, 736196
1, 238080, Tempo, 714286
1, 238560, Tempo, 714286
1, 239040, Tempo, 689655
1, 239760, Tempo, 701754
1, 240000, Tempo, 701754
1, 240960, Tempo, 689655
1, 241680, Tempo, 701754
1, 241920, Tempo, 701754
1, 242880, Tempo, 689655
1, 243600, Tempo, 714286
1, 243840, Tempo, 701754
1, 246720, Tempo, 714286
1, 247440, Tempo, 701754
1, 247680, Tempo, 714286
1, 248400, Tempo, 701754
1, 248640, Tempo, 714286
1, 248880, Tempo, 701754
1, 249120, Tempo, 714286
1, 249360, Tempo, 697674
1, 249600, Tempo, 714286
1, 250200, Tempo, 701754
1, 250560, Tempo, 731707
1, 250680, Tempo, 714286
1, 251040, Tempo, 731707
1, 251160, Tempo, 718563
1, 251520, Tempo, 714286
1, 251760, Tempo, 731707
1, 252000, Tempo, 714286
1, 252240, Tempo, 731707
1, 252480, Tempo, 714286
1, 253440, Tempo, 740741
1, 253680, Tempo, 769231
1, 253920, Tempo, 740741
1, 254160, Tempo, 769231
1, 254400, Tempo, 750000
1, 255360, Tempo, 717103
1, 256600, Tempo, 731707
1, 256800, Tempo, 731707
1, 257280, Tempo, 717103
1, 258480, Tempo, 724725
1, 258720, Tempo, 731707
1, 259200, Tempo, 717103
1, 259920, Tempo, 732601
1, 260160, Tempo, 717103
1, 262080, Tempo, 717103
1, 262240, Tempo, 720894
1, 262400, Tempo, 724725
1, 262560, Tempo, 728686
1, 262720, Tempo, 732601
1, 262880, Tempo, 736558
1, 263040, Tempo, 717103
1, 264480, Tempo, 724725
1, 264960, Tempo, 717103
1, 266160, Tempo, 724725
1, 266400, Tempo, 724725
1, 266880, Tempo, 717103
1, 267600, Tempo, 732601
1, 267840, Tempo, 717103
1, 268800, Tempo, 728686
1, 269040, Tempo, 717103
1, 269280, Tempo, 752823
1, 269760, Tempo, 728686
1, 270240, Tempo, 717103
1, 270720, Tempo, 732601
1, 270960, Tempo, 714286
1, 271440, Tempo, 727273
1, 271680, Tempo, 728686
1, 272160, Tempo, 717103
1, 272640, Tempo, 732601
1, 272860, Tempo, 731707
1, 272880, Tempo, 710059
1, 273360, Tempo, 727273
1, 273580, Tempo, 701754
1, 273600, Tempo, 779221
1, 273840, Tempo, 882353
1, 274560, Tempo, 717103
1, 275880, Tempo, 748690
1, 276000, Tempo, 714286
1, 277080, Tempo, 757002
1, 277200, Tempo, 724725
1, 277680, Tempo, 740558
1, 277800, Tempo, 724725
1, 278400, Tempo, 717103
1, 278880, Tempo, 705882
1, 279720, Tempo, 744602
1, 279840, Tempo, 717103
1, 280320, Tempo, 713352
1, 280520, Tempo, 717103
1, 280720, Tempo, 720894
1, 280920, Tempo, 724725
1, 281160, Tempo, 783085
1, 281280, Tempo, 748690
1, 282120, Tempo, 845070
1, 282480, Tempo, 714286
1, 282960, Tempo, 714286
1, 283040, Tempo, 718563
1, 283120, Tempo, 722892
1, 283200, Tempo, 745342
1, 283440, Tempo, 714286
1, 284080, Tempo, 759494
1, 284160, Tempo, 745342
1, 284400, Tempo, 714286
1, 284640, Tempo, 710059
1, 284700, Tempo, 714286
1, 284740, Tempo, 718563
1, 284780, Tempo, 722892
1, 284820, Tempo, 727273
1, 284880, Tempo, 731707
1, 284920, Tempo, 736196
1, 284960, Tempo, 740741
1, 285000, Tempo, 745342
1, 285020, Tempo, 727273
1, 285040, Tempo, 759494
1, 285120, Tempo, 745342
1, 285360, Tempo, 727273
1, 285600, Tempo, 714286
1, 286000, Tempo, 759494
1, 286080, Tempo, 745342
1, 286320, Tempo, 722892
1, 286960, Tempo, 759494
1, 287040, Tempo, 745342
1, 287280, Tempo, 714286
1, 287920, Tempo, 759494
1, 288000, Tempo, 714286
1, 288400, Tempo, 784314
1, 288480, Tempo, 714286
1, 288880, Tempo, 794702
1, 288960, Tempo, 736196
1, 289400, Tempo, 750000
1, 289680, Tempo, 774194
1, 289800, Tempo, 816327
1, 289920, Tempo, 750000
1, 290400, Tempo, 727273
1, 291360, Tempo, 714286
1, 291720, Tempo, 759494
1, 291840, Tempo, 731707
1, 292320, Tempo, 714286
1, 293280, Tempo, 722892
1, 293520, Tempo, 727273
1, 293740, Tempo, 697674
1, 293760, Tempo, 750000
1, 294240, Tempo, 727273
1, 295200, Tempo, 714286
1, 295560, Tempo, 759494
1, 295920, Tempo, 714286
1, 297960, Tempo, 750000
1, 298080, Tempo, 714286
1, 299040, Tempo, 705882
1, 299400, Tempo, 759494
1, 299520, Tempo, 727273
1, 299880, Tempo, 754717
1, 300000, Tempo, 714286
1, 301800, Tempo, 750000
1, 301920, Tempo, 714286
1, 303240, Tempo, 794702
1, 303360, Tempo, 727273
1, 304200, Tempo, 794702
1, 304320, Tempo, 727273
1, 304560, Tempo, 722892
1, 304620, Tempo, 727273
1, 304680, Tempo, 731707
1, 304720, Tempo, 736196
1, 304780, Tempo, 740741
1, 304840, Tempo, 745342
1, 304880, Tempo, 750000
1, 304940, Tempo, 754717
1, 305000, Tempo, 759494
1, 305040, Tempo, 764331
1, 305100, Tempo, 769231
1, 305140, Tempo, 774194
1, 305160, Tempo, 784314
1, 305280, Tempo, 727273
1, 306120, Tempo, 794702
1, 306240, Tempo, 727273
1, 306480, Tempo, 722892
1, 306540, Tempo, 727273
1, 306600, Tempo, 731707
1, 306640, Tempo, 736196
1, 306700, Tempo, 740741
1, 306760, Tempo, 745342
1, 306800, Tempo, 750000
1, 306860, Tempo, 754717
1, 306920, Tempo, 759494
1, 306960, Tempo, 764331
1, 307020, Tempo, 769231
1, 307060, Tempo, 774194
1, 307080, Tempo, 784314
1, 307320, Tempo, 722892
1, 308160, Tempo, 731707
1, 308320, Tempo, 816327
1, 308380, Tempo, 740741
1, 308400, Tempo, 740741
1, 308500, Tempo, 745342
1, 308600, Tempo, 750000
1, 308700, Tempo, 754717
1, 308800, Tempo, 759494
1, 308900, Tempo, 764331
1, 309000, Tempo, 769231
1, 309100, Tempo, 774194
1, 309120, Tempo, 805369
1, 309240, Tempo, 759494
1, 310320, Tempo, 779221
1, 310800, Tempo, 800000
1, 311040, Tempo, 789474
1, 311160, Tempo, 722892
1, 312000, Tempo, 731707
1, 312160, Tempo, 816327
1, 312220, Tempo, 740741
1, 312240, Tempo, 740741
1, 312340, Tempo, 745342
1, 312440, Tempo, 750000
1, 312540, Tempo, 754717
1, 312640, Tempo, 759494
1, 312740, Tempo, 764331
1, 312840, Tempo, 769231
1, 312940, Tempo, 774194
1, 312960, Tempo, 805369
1, 313080, Tempo, 764331
1, 313800, Tempo, 810811
1, 313920, Tempo, 764331
1, 314240, Tempo, 759494
1, 314540, Tempo, 754717
1, 314840, Tempo, 750000
1, 314880, Tempo, 784314
1, 315120, Tempo, 727273
1, 315600, Tempo, 745342
1, 316320, Tempo, 714286
1, 316560, Tempo, 740741
1, 317280, Tempo, 714286
1, 317760, Tempo, 736196
1, 319200, Tempo, 714286
1, 319680, Tempo, 740741
1, 321120, Tempo, 714286
1, 321600, Tempo, 740741
1, 322080, Tempo, 714286
1, 322560, Tempo, 731707
1, 323040, Tempo, 714286
1, 323520, Tempo, 736196
1, 324000, Tempo, 705882
1, 324480, Tempo, 754717
1, 324720, Tempo, 759494
1, 325200, Tempo, 845070
1, 327480, Marker_t, "Fine"
1, 327480, End_track
2, 0, Start_track
2, 0, MIDI_port, 0
2, 0, Title_t, "Piano right"
2, 0, Program_c, 0, 0
2, 0, Control_c, 0, 7, 100
2, 0, Control_c, 0, 10, 64
2, 0, Control_c, 0, 91, 127
2, 0, Control_c, 0, 91, 127
2, 0, Text_t, "bdca426d104a26ac9dcb070447587523"
2, 1, Note_on_c, 0, 76, 69
2, 360, Note_on_c, 0, 76, 0
2, 360, Note_on_c, 0, 77, 63
2, 420, Note_on_c, 0, 77, 0
2, 420, Note_on_c, 0, 79, 63
2, 480, Note_on_c, 0, 79, 0
2, 480, Note_on_c, 0, 72, 69
2, 720, Note_on_c, 0, 72, 0
2, 720, Note_on_c, 0, 71, 57
2, 720, Note_on_c, 0, 74, 57
2, 960, Note_on_c, 0, 74, 0
2, 960, Note_on_c, 0, 71, 0
2, 960, Note_on_c, 0, 71, 62
2, 960, Note_on_c, 0, 74, 62
2, 1140, Note_on_c, 0, 77, 56
2, 1200, Note_on_c, 0, 77, 0
2, 1200, Note_on_c, 0, 74, 0
2, 1200, Note_on_c, 0, 71, 0
2, 1200, Note_on_c, 0, 76, 62
2, 1200, Note_on_c, 0, 72, 62
2, 1440, Note_on_c, 0, 72, 0
2, 1440, Note_on_c, 0, 76, 0
2, 1440, Note_on_c, 0, 71, 58
2, 1440, Note_on_c, 0, 74, 58
2, 1920, Note_on_c, 0, 74, 0
2, 1920, Note_on_c, 0, 71, 0
2, 1920, Note_on_c, 0, 76, 69
2, 2280, Note_on_c, 0, 76, 0
2, 2280, Note_on_c, 0, 77, 65
2, 2340, Note_on_c, 0, 77, 0
2, 2340, Note_on_c, 0, 79, 65
2, 2400, Note_on_c, 0, 79, 0
2, 2400, Note_on_c, 0, 72, 70
2, 2640, Note_on_c, 0, 72, 0
2, 2640, Note_on_c, 0, 74, 57
2, 2640, Note_on_c, 0, 71, 57
2, 2760, Note_on_c, 0, 71, 0
2, 2760, Note_on_c, 0, 74, 0
2, 2880, Note_on_c, 0, 74, 63
2, 2880, Note_on_c, 0, 77, 63
2, 3120, Note_on_c, 0, 77, 0
2, 3120, Note_on_c, 0, 74, 0
2, 3120, Note_on_c, 0, 77, 57
2, 3120, Note_on_c, 0, 72, 57
2, 3180, Note_on_c, 0, 77, 0
2, 3180, Note_on_c, 0, 76, 57
2, 3240, Note_on_c, 0, 76, 0
2, 3240, Note_on_c, 0, 77, 57
2, 3300, Note_on_c, 0, 77, 0
2, 3300, Note_on_c, 0, 76, 57
2, 3360, Note_on_c, 0, 76, 0
2, 3360, Note_on_c, 0, 72, 0
2, 3360, Note_on_c, 0, 71, 60
2, 3360, Note_on_c, 0, 74, 60
2, 3840, Note_on_c, 0, 74, 0
2, 3840, Note_on_c, 0, 71, 0
2, 3840, Note_on_c, 0, 77, 74
2, 4200, Note_on_c, 0, 77, 0
2, 4200, Note_on_c, 0, 79, 69
2, 4260, Note_on_c, 0, 79, 0
2, 4260, Note_on_c, 0, 77, 69
2, 4320, Note_on_c, 0, 77, 0
2, 4320, Note_on_c, 0, 76, 74
2, 4560, Note_on_c, 0, 76, 0
2, 4560, Note_on_c, 0, 76, 72
2, 4680, Note_on_c, 0, 76, 0
2, 4800, Note_on_c, 0, 81, 80
2, 5160, Note_on_c, 0, 81, 0
2, 5160, Note_on_c, 0, 83, 73
2, 5220, Note_on_c, 0, 83, 0
2, 5220, Note_on_c, 0, 84, 73
2, 5280, Note_on_c, 0, 84, 0
2, 5280, Note_on_c, 0, 79, 81
2, 5520, Note_on_c, 0, 79, 0
2, 5520, Note_on_c, 0, 79, 81
2, 5640, Note_on_c, 0, 79, 0
2, 5760, Note_on_c, 0, 79, 79
2, 5880, Note_on_c, 0, 79, 0
2, 5880, Note_on_c, 0, 77, 73
2, 6000, Note_on_c, 0, 77, 0
2, 6000, Note_on_c, 0, 77, 75
2, 6120, Note_on_c, 0, 77, 0
2, 6120, Note_on_c, 0, 74, 73
2, 6240, Note_on_c, 0, 74, 0
2, 6240, Note_on_c, 0, 77, 80
2, 6360, Note_on_c, 0, 77, 0
2, 6360, Note_on_c, 0, 76, 75
2, 6480, Note_on_c, 0, 76, 0
2, 6480, Note_on_c, 0, 76, 77
2, 6600, Note_on_c, 0, 76, 0
2, 6600, Note_on_c, 0, 72, 75
2, 6720, Note_on_c, 0, 72, 0
2, 6720, Note_on_c, 0, 73, 75
2, 6840, Note_on_c, 0, 73, 0
2, 6840, Note_on_c, 0, 74, 69
2, 6960, Note_on_c, 0, 74, 0
2, 6960, Note_on_c, 0, 76, 75
2, 7080, Note_on_c, 0, 76, 0
2, 7080, Note_on_c, 0, 74, 72
2, 7200, Note_on_c, 0, 74, 0
2, 7200, Note_on_c, 0, 72, 73
2, 7320, Note_on_c, 0, 72, 0
2, 7320, Note_on_c, 0, 71, 70
2, 7440, Note_on_c, 0, 71, 0
2, 7440, Note_on_c, 0, 69, 70
2, 7560, Note_on_c, 0, 69, 0
2, 7560, Note_on_c, 0, 67, 69
2, 7680, Note_on_c, 0, 67, 0
2, 7680, Note_on_c, 0, 76, 82
2, 7680, Control_c, 0, 91, 127
2, 8040, Note_on_c, 0, 76, 0
2, 8040, Note_on_c, 0, 77, 75
2, 8100, Note_on_c, 0, 77, 0
2, 8100, Note_on_c, 0, 79, 75
2, 8160, Note_on_c, 0, 79, 0
2, 8160, Note_on_c, 0, 72, 82
2, 8400, Note_on_c, 0, 72, 0
2, 8400, Note_on_c, 0, 74, 69
2, 8400, Note_on_c, 0, 71, 69
2, 8640, Note_on_c, 0, 71, 0
2, 8640, Note_on_c, 0, 74, 0
2, 8640, Note_on_c, 0, 74, 73
2, 8640, Note_on_c, 0, 71, 73
2, 8820, Note_on_c, 0, 77, 66
2, 8880, Note_on_c, 0, 77, 0
2, 8880, Note_on_c, 0, 71, 0
2, 8880, Note_on_c, 0, 74, 0
2, 8880, Note_on_c, 0, 72, 73
2, 8880, Note_on_c, 0, 76, 73
2, 9120, Note_on_c, 0, 76, 0
2, 9120, Note_on_c, 0, 72, 0
2, 9120, Note_on_c, 0, 71, 70
2, 9120, Note_on_c, 0, 74, 70
2, 9600, Note_on_c, 0, 74, 0
2, 9600, Note_on_c, 0, 71, 0
2, 9600, Note_on_c, 0, 76, 82
2, 9960, Note_on_c, 0, 76, 0
2, 9960, Note_on_c, 0, 77, 78
2, 10020, Note_on_c, 0, 77, 0
2, 10020, Note_on_c, 0, 79, 78
2, 10080, Note_on_c, 0, 79, 0
2, 10080, Note_on_c, 0, 72, 83
2, 10320, Note_on_c, 0, 72, 0
2, 10320, Note_on_c, 0, 74, 69
2, 10320, Note_on_c, 0, 71, 69
2, 10440, Note_on_c, 0, 71, 0
2, 10440, Note_on_c, 0, 74, 0
2, 10560, Note_on_c, 0, 77, 75
2, 10560, Note_on_c, 0, 74, 75
2, 10800, Note_on_c, 0, 74, 0
2, 10800, Note_on_c, 0, 77, 0
2, 10800, Note_on_c, 0, 72, 69
2, 10800, Note_on_c, 0, 77, 69
2, 10860, Note_on_c, 0, 77, 0
2, 10860, Note_on_c, 0, 76, 69
2, 10920, Note_on_c, 0, 76, 0
2, 10920, Note_on_c, 0, 77, 69
2, 10980, Note_on_c, 0, 77, 0
2, 10980, Note_on_c, 0, 76, 69
2, 11040, Note_on_c, 0, 76, 0
2, 11040, Note_on_c, 0, 72, 0
2, 11040, Note_on_c, 0, 71, 72
2, 11040, Note_on_c, 0, 74, 72
2, 11520, Note_on_c, 0, 74, 0
2, 11520, Note_on_c, 0, 71, 0
2, 11520, Note_on_c, 0, 77, 89
2, 11880, Note_on_c, 0, 77, 0
2, 11880, Note_on_c, 0, 79, 82
2, 11940, Note_on_c, 0, 79, 0
2, 11940, Note_on_c, 0, 77, 82
2, 12000, Note_on_c, 0, 77, 0
2, 12000, Note_on_c, 0, 76, 89
2, 12240, Note_on_c, 0, 76, 0
2, 12240, Note_on_c, 0, 76, 86
2, 12360, Note_on_c, 0, 76, 0
2, 12480, Note_on_c, 0, 81, 96
2, 12840, Note_on_c, 0, 81, 0
2, 12840, Note_on_c, 0, 83, 87
2, 12900, Note_on_c, 0, 83, 0
2, 12900, Note_on_c, 0, 84, 85
2, 12960, Note_on_c, 0, 84, 0
2, 12960, Note_on_c, 0, 79, 97
2, 13200, Note_on_c, 0, 79, 0
2, 13200, Note_on_c, 0, 79, 95
2, 13320, Note_on_c, 0, 79, 0
2, 13440, Note_on_c, 0, 80, 95
2, 13560, Note_on_c, 0, 80, 0
2, 13560, Note_on_c, 0, 81, 90
2, 13680, Note_on_c, 0, 81, 0
2, 13680, Note_on_c, 0, 77, 92
2, 13800, Note_on_c, 0, 77, 0
2, 13800, Note_on_c, 0, 74, 88
2, 13920, Note_on_c, 0, 74, 0
2, 13920, Note_on_c, 0, 72, 92
2, 14160, Note_on_c, 0, 72, 0
2, 14160, Note_on_c, 0, 71, 87
2, 14400, Note_on_c, 0, 71, 0
2, 14400, Note_on_c, 0, 72, 87
2, 14480, Note_on_c, 0, 72, 0
2, 14480, Note_on_c, 0, 67, 80
2, 14560, Note_on_c, 0, 67, 0
2, 14560, Note_on_c, 0, 76, 77
2, 14640, Note_on_c, 0, 76, 0
2, 14640, Note_on_c, 0, 72, 87
2, 14720, Note_on_c, 0, 72, 0
2, 14720, Note_on_c, 0, 79, 80
2, 14800, Note_on_c, 0, 79, 0
2, 14800, Note_on_c, 0, 76, 77
2, 14880, Note_on_c, 0, 76, 0
2, 14880, Note_on_c, 0, 84, 85
2, 14960, Note_on_c, 0, 84, 0
2, 14960, Note_on_c, 0, 83, 77
2, 15040, Note_on_c, 0, 83, 0
2, 15040, Note_on_c, 0, 81, 76
2, 15120, Note_on_c, 0, 81, 0
2, 15120, Note_on_c, 0, 79, 82
2, 15200, Note_on_c, 0, 79, 0
2, 15200, Note_on_c, 0, 77, 78
2, 15280, Note_on_c, 0, 77, 0
2, 15280, Note_on_c, 0, 76, 76
2, 15360, Note_on_c, 0, 76, 0
2, 15360, Note_on_c, 0, 73, 73
2, 15440, Note_on_c, 0, 73, 0
2, 15440, Note_on_c, 0, 74, 69
2, 15520, Note_on_c, 0, 74, 0
2, 15520, Note_on_c, 0, 77, 69
2, 15600, Note_on_c, 0, 77, 0
2, 15600, Note_on_c, 0, 81, 72
2, 15680, Note_on_c, 0, 81, 0
2, 15680, Note_on_c, 0, 77, 66
2, 15760, Note_on_c, 0, 77, 0
2, 15760, Note_on_c, 0, 74, 66
2, 15840, Note_on_c, 0, 74, 0
2, 15840, Note_on_c, 0, 79, 70
2, 15920, Note_on_c, 0, 79, 0
2, 15920, Note_on_c, 0, 76, 66
2, 16000, Note_on_c, 0, 76, 0
2, 16000, Note_on_c, 0, 72, 66
2, 16080, Note_on_c, 0, 72, 0
2, 16080, Note_on_c, 0, 77, 71
2, 16160, Note_on_c, 0, 77, 0
2, 16160, Note_on_c, 0, 74, 64
2, 16240, Note_on_c, 0, 74, 0
2, 16240, Note_on_c, 0, 71, 64
2, 16320, Note_on_c, 0, 71, 0
2, 16320, Note_on_c, 0, 72, 87
2, 16400, Note_on_c, 0, 72, 0
2, 16400, Note_on_c, 0, 67, 80
2, 16480, Note_on_c, 0, 67, 0
2, 16480, Note_on_c, 0, 76, 78
2, 16560, Note_on_c, 0, 76, 0
2, 16560, Note_on_c, 0, 72, 87
2, 16640, Note_on_c, 0, 72, 0
2, 16640, Note_on_c, 0, 79, 80
2, 16720, Note_on_c, 0, 79, 0
2, 16720, Note_on_c, 0, 76, 78
2, 16800, Note_on_c, 0, 76, 0
2, 16800, Note_on_c, 0, 84, 85
2, 16880, Note_on_c, 0, 84, 0
2, 16880, Note_on_c, 0, 83, 77
2, 16960, Note_on_c, 0, 83, 0
2, 16960, Note_on_c, 0, 81, 74
2, 17040, Note_on_c, 0, 81, 0
2, 17040, Note_on_c, 0, 79, 82
2, 17120, Note_on_c, 0, 79, 0
2, 17120, Note_on_c, 0, 77, 78
2, 17200, Note_on_c, 0, 77, 0
2, 17200, Note_on_c, 0, 76, 76
2, 17280, Note_on_c, 0, 76, 0
2, 17280, Note_on_c, 0, 73, 73
2, 17360, Note_on_c, 0, 73, 0
2, 17360, Note_on_c, 0, 74, 69
2, 17440, Note_on_c, 0, 74, 0
2, 17440, Note_on_c, 0, 77, 68
2, 17520, Note_on_c, 0, 77, 0
2, 17520, Note_on_c, 0, 81, 72
2, 17600, Note_on_c, 0, 81, 0
2, 17600, Note_on_c, 0, 77, 66
2, 17680, Note_on_c, 0, 77, 0
2, 17680, Note_on_c, 0, 74, 64
2, 17760, Note_on_c, 0, 74, 0
2, 17760, Note_on_c, 0, 79, 70
2, 17840, Note_on_c, 0, 79, 0
2, 17840, Note_on_c, 0, 76, 66
2, 17920, Note_on_c, 0, 76, 0
2, 17920, Note_on_c, 0, 72, 63
2, 18000, Note_on_c, 0, 72, 0
2, 18000, Note_on_c, 0, 77, 71
2, 18080, Note_on_c, 0, 77, 0
2, 18080, Note_on_c, 0, 74, 64
2, 18160, Note_on_c, 0, 74, 0
2, 18160, Note_on_c, 0, 71, 64
2, 18240, Note_on_c, 0, 71, 0
2, 18240, Note_on_c, 0, 72, 60
2, 18360, Note_on_c, 0, 72, 0
2, 18480, Note_on_c, 0, 67, 58
2, 18600, Note_on_c, 0, 67, 0
2, 18720, Note_on_c, 0, 60, 58
2, 19200, Note_on_c, 0, 60, 0
2, 19200, Note_on_c, 0, 76, 58
2, 19680, Note_on_c, 0, 76, 0
2, 19680, Note_on_c, 0, 77, 54
2, 19740, Note_on_c, 0, 77, 0
2, 19740, Note_on_c, 0, 76, 54
2, 19800, Note_on_c, 0, 76, 0
2, 19800, Note_on_c, 0, 74, 54
2, 19860, Note_on_c, 0, 74, 0
2, 19860, Note_on_c, 0, 76, 54
2, 19920, Note_on_c, 0, 76, 0
2, 19920, Note_on_c, 0, 79, 58
2, 20040, Note_on_c, 0, 79, 0
2, 20040, Note_on_c, 0, 77, 54
2, 20160, Note_on_c, 0, 77, 0
2, 20160, Note_on_c, 0, 76, 59
2, 20280, Note_on_c, 0, 76, 0
2, 20280, Note_on_c, 0, 74, 57
2, 20400, Note_on_c, 0, 74, 0
2, 20400, Note_on_c, 0, 72, 57
2, 20520, Note_on_c, 0, 72, 0
2, 20520, Note_on_c, 0, 71, 57
2, 20640, Note_on_c, 0, 71, 0
2, 20640, Note_on_c, 0, 72, 60
2, 20760, Note_on_c, 0, 72, 0
2, 20880, Note_on_c, 0, 73, 64
2, 21000, Note_on_c, 0, 73, 0
2, 21120, Note_on_c, 0, 74, 65
2, 21240, Note_on_c, 0, 74, 0
2, 21360, Note_on_c, 0, 75, 69
2, 21480, Note_on_c, 0, 75, 0
2, 21600, Note_on_c, 0, 76, 73
2, 21720, Note_on_c, 0, 76, 0
2, 21840, Note_on_c, 0, 79, 72
2, 21960, Note_on_c, 0, 79, 0
2, 21960, Note_on_c, 0, 77, 66
2, 22080, Note_on_c, 0, 77, 0
2, 22080, Note_on_c, 0, 76, 72
2, 22440, Note_on_c, 0, 76, 0
2, 22440, Note_on_c, 0, 77, 64
2, 22500, Note_on_c, 0, 77, 0
2, 22500, Note_on_c, 0, 76, 64
2, 22560, Note_on_c, 0, 76, 0
2, 22560, Note_on_c, 0, 74, 65
2, 22800, Note_on_c, 0, 74, 0
2, 23040, Note_on_c, 0, 77, 67
2, 23520, Note_on_c, 0, 77, 0
2, 23520, Note_on_c, 0, 79, 56
2, 23580, Note_on_c, 0, 79, 0
2, 23580, Note_on_c, 0, 77, 57
2, 23640, Note_on_c, 0, 77, 0
2, 23640, Note_on_c, 0, 76, 57
2, 23700, Note_on_c, 0, 76, 0
2, 23700, Note_on_c, 0, 77, 57
2, 23760, Note_on_c, 0, 77, 0
2, 23760, Note_on_c, 0, 81, 64
2, 23880, Note_on_c, 0, 81, 0
2, 23880, Note_on_c, 0, 79, 60
2, 24000, Note_on_c, 0, 79, 0
2, 24000, Note_on_c, 0, 77, 60
2, 24120, Note_on_c, 0, 77, 0
2, 24120, Note_on_c, 0, 76, 58
2, 24240, Note_on_c, 0, 76, 0
2, 24240, Note_on_c, 0, 74, 58
2, 24360, Note_on_c, 0, 74, 0
2, 24360, Note_on_c, 0, 72, 58
2, 24480, Note_on_c, 0, 72, 0
2, 24480, Note_on_c, 0, 71, 57
2, 24600, Note_on_c, 0, 71, 0
2, 24600, Note_on_c, 0, 72, 58
2, 24660, Note_on_c, 0, 72, 0
2, 24720, Note_on_c, 0, 74, 59
2, 24780, Note_on_c, 0, 74, 0
2, 24840, Note_on_c, 0, 76, 62
2, 24900, Note_on_c, 0, 76, 0
2, 24960, Note_on_c, 0, 77, 63
2, 25020, Note_on_c, 0, 77, 0
2, 25080, Note_on_c, 0, 79, 64
2, 25140, Note_on_c, 0, 79, 0
2, 25200, Note_on_c, 0, 81, 65
2, 25260, Note_on_c, 0, 81, 0
2, 25320, Note_on_c, 0, 83, 67
2, 25380, Note_on_c, 0, 83, 0
2, 25440, Note_on_c, 0, 84, 69
2, 25500, Note_on_c, 0, 84, 0
2, 25560, Note_on_c, 0, 86, 70
2, 25620, Note_on_c, 0, 86, 0
2, 25680, Note_on_c, 0, 88, 72
2, 25740, Note_on_c, 0, 88, 0
2, 25800, Note_on_c, 0, 89, 73
2, 25860, Note_on_c, 0, 89, 0
2, 25920, Note_on_c, 0, 87, 92
2, 26400, Note_on_c, 0, 87, 0
2, 26400, Note_on_c, 0, 88, 87
2, 26640, Note_on_c, 0, 88, 0
2, 26880, Note_on_c, 0, 76, 74
2, 27200, Note_on_c, 0, 76, 0
2, 27200, Note_on_c, 0, 81, 69
2, 27280, Note_on_c, 0, 81, 0
2, 27280, Note_on_c, 0, 84, 69
2, 27360, Note_on_c, 0, 84, 0
2, 27360, Note_on_c, 0, 88, 69
2, 27440, Note_on_c, 0, 88, 0
2, 27440, Note_on_c, 0, 84, 67
2, 27520, Note_on_c, 0, 84, 0
2, 27520, Note_on_c, 0, 81, 67
2, 27600, Note_on_c, 0, 81, 0
2, 27600, Note_on_c, 0, 84, 69
2, 27680, Note_on_c, 0, 84, 0
2, 27680, Note_on_c, 0, 81, 67
2, 27760, Note_on_c, 0, 81, 0
2, 27760, Note_on_c, 0, 76, 67
2, 27840, Note_on_c, 0, 76, 0
2, 27840, Note_on_c, 0, 74, 75
2, 28160, Note_on_c, 0, 74, 0
2, 28160, Note_on_c, 0, 79, 69
2, 28240, Note_on_c, 0, 79, 0
2, 28240, Note_on_c, 0, 83, 69
2, 28320, Note_on_c, 0, 83, 0
2, 28320, Note_on_c, 0, 86, 69
2, 28400, Note_on_c, 0, 86, 0
2, 28400, Note_on_c, 0, 83, 68
2, 28480, Note_on_c, 0, 83, 0
2, 28480, Note_on_c, 0, 79, 68
2, 28560, Note_on_c, 0, 79, 0
2, 28560, Note_on_c, 0, 83, 69
2, 28640, Note_on_c, 0, 83, 0
2, 28640, Note_on_c, 0, 79, 67
2, 28720, Note_on_c, 0, 79, 0
2, 28720, Note_on_c, 0, 74, 67
2, 28800, Note_on_c, 0, 74, 0
2, 28880, Note_on_c, 0, 74, 69
2, 28960, Note_on_c, 0, 74, 0
2, 28960, Note_on_c, 0, 81, 69
2, 29040, Note_on_c, 0, 81, 0
2, 29040, Note_on_c, 0, 84, 69
2, 29120, Note_on_c, 0, 84, 0
2, 29120, Note_on_c, 0, 81, 67
2, 29200, Note_on_c, 0, 81, 0
2, 29200, Note_on_c, 0, 74, 69
2, 29280, Note_on_c, 0, 74, 0
2, 29360, Note_on_c, 0, 74, 69
2, 29440, Note_on_c, 0, 74, 0
2, 29440, Note_on_c, 0, 79, 69
2, 29520, Note_on_c, 0, 79, 0
2, 29520, Note_on_c, 0, 83, 69
2, 29600, Note_on_c, 0, 83, 0
2, 29600, Note_on_c, 0, 79, 68
2, 29680, Note_on_c, 0, 79, 0
2, 29680, Note_on_c, 0, 74, 69
2, 29760, Note_on_c, 0, 74, 0
2, 29760, Note_on_c, 0, 81, 79
2, 29940, Note_on_c, 0, 81, 0
2, 29940, Note_on_c, 0, 78, 73
2, 30000, Note_on_c, 0, 78, 0
2, 30000, Note_on_c, 0, 74, 69
2, 30240, Note_on_c, 0, 74, 0
2, 30660, Note_on_c, 0, 67, 51
2, 30720, Note_on_c, 0, 67, 0
2, 30720, Note_on_c, 0, 79, 75
2, 31320, Note_on_c, 0, 79, 0
2, 31320, Note_on_c, 0, 78, 58
2, 31440, Note_on_c, 0, 78, 0
2, 31440, Note_on_c, 0, 76, 58
2, 31560, Note_on_c, 0, 76, 0
2, 31560, Note_on_c, 0, 74, 58
2, 31680, Note_on_c, 0, 74, 0
2, 31680, Note_on_c, 0, 74, 62
2, 31800, Note_on_c, 0, 74, 0
2, 31800, Note_on_c, 0, 72, 57
2, 31920, Note_on_c, 0, 72, 0
2, 31920, Note_on_c, 0, 71, 58
2, 32040, Note_on_c, 0, 71, 0
2, 32040, Note_on_c, 0, 69, 55
2, 32160, Note_on_c, 0, 69, 0
2, 32160, Note_on_c, 0, 74, 63
2, 32280, Note_on_c, 0, 74, 0
2, 32400, Note_on_c, 0, 72, 59
2, 32520, Note_on_c, 0, 72, 0
2, 32640, Note_on_c, 0, 70, 62
2, 32880, Note_on_c, 0, 70, 0
2, 32880, Note_on_c, 0, 71, 59
2, 33120, Note_on_c, 0, 71, 0
2, 34500, Note_on_c, 0, 67, 51
2, 34560, Note_on_c, 0, 67, 0
2, 34560, Note_on_c, 0, 79, 75
2, 35160, Note_on_c, 0, 79, 0
2, 35160, Note_on_c, 0, 78, 58
2, 35280, Note_on_c, 0, 78, 0
2, 35280, Note_on_c, 0, 76, 58
2, 35400, Note_on_c, 0, 76, 0
2, 35400, Note_on_c, 0, 74, 56
2, 35520, Note_on_c, 0, 74, 0
2, 35520, Note_on_c, 0, 74, 62
2, 35640, Note_on_c, 0, 74, 0
2, 35640, Note_on_c, 0, 72, 55
2, 35760, Note_on_c, 0, 72, 0
2, 35760, Note_on_c, 0, 71, 58
2, 35880, Note_on_c, 0, 71, 0
2, 35880, Note_on_c, 0, 69, 58
2, 36000, Note_on_c, 0, 69, 0
2, 36000, Note_on_c, 0, 74, 63
2, 36120, Note_on_c, 0, 74, 0
2, 36240, Note_on_c, 0, 72, 59
2, 36360, Note_on_c, 0, 72, 0
2, 36480, Note_on_c, 0, 71, 63
2, 36720, Note_on_c, 0, 71, 0
2, 36960, Note_on_c, 0, 78, 64
2, 37000, Note_on_c, 0, 78, 0
2, 37000, Note_on_c, 0, 76, 61
2, 37040, Note_on_c, 0, 76, 0
2, 37040, Note_on_c, 0, 78, 64
2, 37080, Note_on_c, 0, 78, 0
2, 37080, Note_on_c, 0, 76, 62
2, 37140, Note_on_c, 0, 76, 0
2, 37140, Note_on_c, 0, 78, 72
2, 37200, Note_on_c, 0, 78, 0
2, 37200, Note_on_c, 0, 79, 72
2, 37320, Note_on_c, 0, 79, 0
2, 37320, Note_on_c, 0, 79, 69
2, 37380, Note_on_c, 0, 79, 0
2, 37440, Note_on_c, 0, 79, 69
2, 37680, Note_on_c, 0, 79, 0
2, 37920, Note_on_c, 0, 83, 64
2, 37960, Note_on_c, 0, 83, 0
2, 37960, Note_on_c, 0, 81, 61
2, 38000, Note_on_c, 0, 81, 0
2, 38000, Note_on_c, 0, 83, 64
2, 38040, Note_on_c, 0, 83, 0
2, 38040, Note_on_c, 0, 81, 60
2, 38100, Note_on_c, 0, 81, 0
2, 38100, Note_on_c, 0, 83, 72
2, 38160, Note_on_c, 0, 83, 0
2, 38160, Note_on_c, 0, 84, 72
2, 38280, Note_on_c, 0, 84, 0
2, 38280, Note_on_c, 0, 84, 69
2, 38340, Note_on_c, 0, 84, 0
2, 38400, Note_on_c, 0, 84, 69
2, 38640, Note_on_c, 0, 84, 0
2, 38880, Note_on_c, 0, 86, 63
2, 38920, Note_on_c, 0, 86, 0
2, 38920, Note_on_c, 0, 84, 59
2, 38960, Note_on_c, 0, 84, 0
2, 38960, Note_on_c, 0, 86, 63
2, 39000, Note_on_c, 0, 86, 0
2, 39000, Note_on_c, 0, 84, 59
2, 39060, Note_on_c, 0, 84, 0
2, 39060, Note_on_c, 0, 86, 73
2, 39120, Note_on_c, 0, 86, 0
2, 39120, Note_on_c, 0, 88, 73
2, 39240, Note_on_c, 0, 88, 0
2, 39240, Note_on_c, 0, 88, 69
2, 39300, Note_on_c, 0, 88, 0
2, 39360, Note_on_c, 0, 88, 69
2, 39480, Note_on_c, 0, 88, 0
2, 39480, Note_on_c, 0, 86, 70
2, 39600, Note_on_c, 0, 86, 0
2, 39600, Note_on_c, 0, 84, 65
2, 39660, Note_on_c, 0, 84, 0
2, 39720, Note_on_c, 0, 83, 65
2, 39780, Note_on_c, 0, 83, 0
2, 39840, Note_on_c, 0, 81, 65
2, 39960, Note_on_c, 0, 81, 0
2, 40080, Note_on_c, 0, 86, 65
2, 40200, Note_on_c, 0, 86, 0
2, 40320, Note_on_c, 0, 84, 72
2, 40560, Note_on_c, 0, 84, 0
2, 40560, Note_on_c, 0, 83, 67
2, 40800, Note_on_c, 0, 83, 0
2, 40800, Note_on_c, 0, 78, 63
2, 40840, Note_on_c, 0, 78, 0
2, 40840, Note_on_c, 0, 76, 59
2, 40880, Note_on_c, 0, 76, 0
2, 40880, Note_on_c, 0, 78, 63
2, 40920, Note_on_c, 0, 78, 0
2, 40920, Note_on_c, 0, 76, 59
2, 40980, Note_on_c, 0, 76, 0
2, 40980, Note_on_c, 0, 78, 75
2, 41040, Note_on_c, 0, 78, 0
2, 41040, Note_on_c, 0, 79, 75
2, 41160, Note_on_c, 0, 79, 0
2, 41160, Note_on_c, 0, 79, 69
2, 41220, Note_on_c, 0, 79, 0
2, 41280, Note_on_c, 0, 79, 69
2, 41520, Note_on_c, 0, 79, 0
2, 41760, Note_on_c, 0, 83, 63
2, 41800, Note_on_c, 0, 83, 0
2, 41800, Note_on_c, 0, 81, 58
2, 41840, Note_on_c, 0, 81, 0
2, 41840, Note_on_c, 0, 83, 63
2, 41880, Note_on_c, 0, 83, 0
2, 41880, Note_on_c, 0, 81, 59
2, 41940, Note_on_c, 0, 81, 0
2, 41940, Note_on_c, 0, 83, 77
2, 42000, Note_on_c, 0, 83, 0
2, 42000, Note_on_c, 0, 84, 77
2, 42120, Note_on_c, 0, 84, 0
2, 42120, Note_on_c, 0, 84, 69
2, 42180, Note_on_c, 0, 84, 0
2, 42240, Note_on_c, 0, 84, 69
2, 42480, Note_on_c, 0, 84, 0
2, 42720, Note_on_c, 0, 86, 63
2, 42760, Note_on_c, 0, 86, 0
2, 42760, Note_on_c, 0, 84, 58
2, 42800, Note_on_c, 0, 84, 0
2, 42800, Note_on_c, 0, 86, 63
2, 42840, Note_on_c, 0, 86, 0
2, 42840, Note_on_c, 0, 84, 59
2, 42900, Note_on_c, 0, 84, 0
2, 42900, Note_on_c, 0, 86, 75
2, 42960, Note_on_c, 0, 86, 0
2, 42960, Note_on_c, 0, 88, 75
2, 43080, Note_on_c, 0, 88, 0
2, 43080, Note_on_c, 0, 88, 71
2, 43140, Note_on_c, 0, 88, 0
2, 43200, Note_on_c, 0, 88, 72
2, 43320, Note_on_c, 0, 88, 0
2, 43320, Note_on_c, 0, 86, 70
2, 43440, Note_on_c, 0, 86, 0
2, 43440, Note_on_c, 0, 84, 70
2, 43500, Note_on_c, 0, 84, 0
2, 43560, Note_on_c, 0, 83, 70
2, 43620, Note_on_c, 0, 83, 0
2, 43680, Note_on_c, 0, 83, 72
2, 43800, Note_on_c, 0, 83, 0
2, 43800, Note_on_c, 0, 81, 70
2, 43920, Note_on_c, 0, 81, 0
2, 43920, Note_on_c, 0, 79, 70
2, 43980, Note_on_c, 0, 79, 0
2, 44040, Note_on_c, 0, 78, 70
2, 44100, Note_on_c, 0, 78, 0
2, 44160, Note_on_c, 0, 86, 97
2, 44480, Note_on_c, 0, 86, 0
2, 44480, Note_on_c, 0, 83, 71
2, 44560, Note_on_c, 0, 83, 0
2, 44560, Note_on_c, 0, 79, 71
2, 44640, Note_on_c, 0, 79, 0
2, 44640, Note_on_c, 0, 78, 73
2, 44720, Note_on_c, 0, 78, 0
2, 44720, Note_on_c, 0, 81, 73
2, 44800, Note_on_c, 0, 81, 0
2, 44800, Note_on_c, 0, 74, 71
2, 44880, Note_on_c, 0, 74, 0
2, 44880, Note_on_c, 0, 79, 73
2, 44960, Note_on_c, 0, 79, 0
2, 44960, Note_on_c, 0, 83, 70
2, 45040, Note_on_c, 0, 83, 0
2, 45040, Note_on_c, 0, 74, 70
2, 45120, Note_on_c, 0, 74, 0
2, 45120, Note_on_c, 0, 81, 82
2, 45440, Note_on_c, 0, 81, 0
2, 45440, Note_on_c, 0, 78, 67
2, 45520, Note_on_c, 0, 78, 0
2, 45520, Note_on_c, 0, 74, 68
2, 45600, Note_on_c, 0, 74, 0
2, 45600, Note_on_c, 0, 73, 71
2, 45680, Note_on_c, 0, 73, 0
2, 45680, Note_on_c, 0, 74, 66
2, 45760, Note_on_c, 0, 74, 0
2, 45760, Note_on_c, 0, 69, 66
2, 45840, Note_on_c, 0, 69, 0
2, 45840, Note_on_c, 0, 72, 69
2, 45920, Note_on_c, 0, 72, 0
2, 45920, Note_on_c, 0, 74, 66
2, 46000, Note_on_c, 0, 74, 0
2, 46000, Note_on_c, 0, 69, 66
2, 46080, Note_on_c, 0, 69, 0
2, 46080, Note_on_c, 0, 86, 92
2, 46400, Note_on_c, 0, 86, 0
2, 46400, Note_on_c, 0, 83, 71
2, 46480, Note_on_c, 0, 83, 0
2, 46480, Note_on_c, 0, 79, 71
2, 46560, Note_on_c, 0, 79, 0
2, 46560, Note_on_c, 0, 78, 73
2, 46640, Note_on_c, 0, 78, 0
2, 46640, Note_on_c, 0, 81, 73
2, 46720, Note_on_c, 0, 81, 0
2, 46720, Note_on_c, 0, 74, 71
2, 46800, Note_on_c, 0, 74, 0
2, 46800, Note_on_c, 0, 79, 73
2, 46880, Note_on_c, 0, 79, 0
2, 46880, Note_on_c, 0, 83, 70
2, 46960, Note_on_c, 0, 83, 0
2, 46960, Note_on_c, 0, 74, 70
2, 47040, Note_on_c, 0, 74, 0
2, 47040, Note_on_c, 0, 81, 87
2, 47360, Note_on_c, 0, 81, 0
2, 47360, Note_on_c, 0, 78, 64
2, 47440, Note_on_c, 0, 78, 0
2, 47440, Note_on_c, 0, 74, 64
2, 47520, Note_on_c, 0, 74, 0
2, 47520, Note_on_c, 0, 73, 66
2, 47600, Note_on_c, 0, 73, 0
2, 47600, Note_on_c, 0, 74, 63
2, 47680, Note_on_c, 0, 74, 0
2, 47680, Note_on_c, 0, 69, 63
2, 47760, Note_on_c, 0, 69, 0
2, 47760, Note_on_c, 0, 72, 64
2, 47840, Note_on_c, 0, 72, 0
2, 47840, Note_on_c, 0, 74, 62
2, 47920, Note_on_c, 0, 74, 0
2, 47920, Note_on_c, 0, 69, 62
2, 48000, Note_on_c, 0, 69, 0
2, 48000, Note_on_c, 0, 71, 62
2, 48080, Note_on_c, 0, 71, 0
2, 48080, Note_on_c, 0, 67, 63
2, 48160, Note_on_c, 0, 67, 0
2, 48160, Note_on_c, 0, 71, 65
2, 48240, Note_on_c, 0, 71, 0
2, 48240, Note_on_c, 0, 74, 66
2, 48320, Note_on_c, 0, 74, 0
2, 48320, Note_on_c, 0, 71, 67
2, 48400, Note_on_c, 0, 71, 0
2, 48400, Note_on_c, 0, 74, 70
2, 48480, Note_on_c, 0, 74, 0
2, 48480, Note_on_c, 0, 79, 71
2, 48560, Note_on_c, 0, 79, 0
2, 48560, Note_on_c, 0, 74, 73
2, 48640, Note_on_c, 0, 74, 0
2, 48640, Note_on_c, 0, 79, 74
2, 48720, Note_on_c, 0, 79, 0
2, 48720, Note_on_c, 0, 83, 75
2, 48800, Note_on_c, 0, 83, 0
2, 48800, Note_on_c, 0, 79, 78
2, 48880, Note_on_c, 0, 79, 0
2, 48880, Note_on_c, 0, 83, 79
2, 48960, Note_on_c, 0, 83, 0
2, 48960, Note_on_c, 0, 86, 81
2, 49040, Note_on_c, 0, 86, 0
2, 49040, Note_on_c, 0, 83, 82
2, 49120, Note_on_c, 0, 83, 0
2, 49120, Note_on_c, 0, 86, 85
2, 49200, Note_on_c, 0, 86, 0
2, 49200, Note_on_c, 0, 89, 85
2, 49280, Note_on_c, 0, 89, 0
2, 49280, Note_on_c, 0, 86, 82
2, 49360, Note_on_c, 0, 86, 0
2, 49360, Note_on_c, 0, 83, 79
2, 49440, Note_on_c, 0, 83, 0
2, 49440, Note_on_c, 0, 79, 77
2, 49520, Note_on_c, 0, 79, 0
2, 49520, Note_on_c, 0, 77, 74
2, 49600, Note_on_c, 0, 77, 0
2, 49600, Note_on_c, 0, 74, 71
2, 49680, Note_on_c, 0, 74, 0
2, 49680, Note_on_c, 0, 71, 69
2, 49760, Note_on_c, 0, 71, 0
2, 49760, Note_on_c, 0, 67, 65
2, 49840, Note_on_c, 0, 67, 0
2, 49840, Note_on_c, 0, 65, 63
2, 49920, Note_on_c, 0, 65, 0
2, 49920, Note_on_c, 0, 64, 59
2, 49980, Note_on_c, 0, 64, 0
2, 50040, Note_on_c, 0, 76, 56
2, 50160, Note_on_c, 0, 76, 0
2, 50160, Note_on_c, 0, 75, 56
2, 50280, Note_on_c, 0, 75, 0
2, 50280, Note_on_c, 0, 76, 56
2, 50400, Note_on_c, 0, 76, 0
2, 50400, Note_on_c, 0, 75, 57
2, 50520, Note_on_c, 0, 75, 0
2, 50520, Note_on_c, 0, 76, 57
2, 50640, Note_on_c, 0, 76, 0
2, 50640, Note_on_c, 0, 75, 57
2, 50760, Note_on_c, 0, 75, 0
2, 50760, Note_on_c, 0, 76, 57
2, 50880, Note_on_c, 0, 76, 0
2, 50880, Note_on_c, 0, 67, 62
2, 51600, Note_on_c, 0, 67, 0
2, 51600, Note_on_c, 0, 71, 57
2, 51600, Note_on_c, 0, 66, 57
2, 51720, Note_on_c, 0, 71, 0
2, 51720, Note_on_c, 0, 69, 57
2, 51840, Note_on_c, 0, 69, 0
2, 51840, Note_on_c, 0, 66, 0
2, 51920, Note_on_c, 0, 67, 63
2, 52000, Note_on_c, 0, 67, 0
2, 52000, Note_on_c, 0, 71, 65
2, 52080, Note_on_c, 0, 71, 0
2, 52080, Note_on_c, 0, 74, 66
2, 52160, Note_on_c, 0, 74, 0
2, 52160, Note_on_c, 0, 71, 67
2, 52240, Note_on_c, 0, 71, 0
2, 52240, Note_on_c, 0, 74, 70
2, 52320, Note_on_c, 0, 74, 0
2, 52320, Note_on_c, 0, 79, 71
2, 52400, Note_on_c, 0, 79, 0
2, 52400, Note_on_c, 0, 74, 73
2, 52480, Note_on_c, 0, 74, 0
2, 52480, Note_on_c, 0, 79, 74
2, 52560, Note_on_c, 0, 79, 0
2, 52560, Note_on_c, 0, 83, 75
2, 52640, Note_on_c, 0, 83, 0
2, 52640, Note_on_c, 0, 79, 78
2, 52720, Note_on_c, 0, 79, 0
2, 52720, Note_on_c, 0, 83, 79
2, 52800, Note_on_c, 0, 83, 0
2, 52800, Note_on_c, 0, 86, 81
2, 52880, Note_on_c, 0, 86, 0
2, 52880, Note_on_c, 0, 83, 82
2, 52960, Note_on_c, 0, 83, 0
2, 52960, Note_on_c, 0, 86, 85
2, 53040, Note_on_c, 0, 86, 0
2, 53040, Note_on_c, 0, 89, 85
2, 53120, Note_on_c, 0, 89, 0
2, 53120, Note_on_c, 0, 86, 82
2, 53200, Note_on_c, 0, 86, 0
2, 53200, Note_on_c, 0, 83, 79
2, 53280, Note_on_c, 0, 83, 0
2, 53280, Note_on_c, 0, 79, 77
2, 53360, Note_on_c, 0, 79, 0
2, 53360, Note_on_c, 0, 77, 74
2, 53440, Note_on_c, 0, 77, 0
2, 53440, Note_on_c, 0, 74, 71
2, 53520, Note_on_c, 0, 74, 0
2, 53520, Note_on_c, 0, 71, 69
2, 53600, Note_on_c, 0, 71, 0
2, 53600, Note_on_c, 0, 67, 65
2, 53680, Note_on_c, 0, 67, 0
2, 53680, Note_on_c, 0, 65, 63
2, 53760, Note_on_c, 0, 65, 0
2, 53760, Note_on_c, 0, 64, 59
2, 53820, Note_on_c, 0, 64, 0
2, 53880, Note_on_c, 0, 76, 56
2, 54000, Note_on_c, 0, 76, 0
2, 54000, Note_on_c, 0, 75, 56
2, 54120, Note_on_c, 0, 75, 0
2, 54120, Note_on_c, 0, 76, 54
2, 54240, Note_on_c, 0, 76, 0
2, 54240, Note_on_c, 0, 75, 57
2, 54360, Note_on_c, 0, 75, 0
2, 54360, Note_on_c, 0, 76, 55
2, 54480, Note_on_c, 0, 76, 0
2, 54480, Note_on_c, 0, 75, 57
2, 54600, Note_on_c, 0, 75, 0
2, 54600, Note_on_c, 0, 76, 55
2, 54720, Note_on_c, 0, 76, 0
2, 54840, Note_on_c, 0, 79, 63
2, 54960, Note_on_c, 0, 79, 0
2, 54960, Note_on_c, 0, 78, 67
2, 55080, Note_on_c, 0, 78, 0
2, 55080, Note_on_c, 0, 79, 64
2, 55200, Note_on_c, 0, 79, 0
2, 55200, Note_on_c, 0, 78, 70
2, 55320, Note_on_c, 0, 78, 0
2, 55320, Note_on_c, 0, 79, 68
2, 55440, Note_on_c, 0, 79, 0
2, 55440, Note_on_c, 0, 78, 71
2, 55560, Note_on_c, 0, 78, 0
2, 55560, Note_on_c, 0, 79, 74
2, 55680, Note_on_c, 0, 79, 0
2, 55680, Note_on_c, 0, 79, 72
2, 55800, Note_on_c, 0, 79, 0
2, 55800, Note_on_c, 0, 74, 59
2, 55920, Note_on_c, 0, 74, 0
2, 55920, Note_on_c, 0, 74, 63
2, 55980, Note_on_c, 0, 74, 0
2, 56040, Note_on_c, 0, 74, 59
2, 56100, Note_on_c, 0, 74, 0
2, 56160, Note_on_c, 0, 76, 66
2, 56280, Note_on_c, 0, 76, 0
2, 56280, Note_on_c, 0, 74, 62
2, 56400, Note_on_c, 0, 74, 0
2, 56400, Note_on_c, 0, 72, 60
2, 56460, Note_on_c, 0, 72, 0
2, 56520, Note_on_c, 0, 71, 59
2, 56580, Note_on_c, 0, 71, 0
2, 56640, Note_on_c, 0, 71, 57
2, 56880, Note_on_c, 0, 71, 0
2, 57120, Note_on_c, 0, 71, 56
2, 57180, Note_on_c, 0, 71, 0
2, 57180, Note_on_c, 0, 69, 53
2, 57240, Note_on_c, 0, 69, 0
2, 57240, Note_on_c, 0, 71, 56
2, 57300, Note_on_c, 0, 71, 0
2, 57300, Note_on_c, 0, 69, 53
2, 57360, Note_on_c, 0, 69, 0
2, 57360, Note_on_c, 0, 71, 56
2, 57420, Note_on_c, 0, 71, 0
2, 57420, Note_on_c, 0, 69, 54
2, 57480, Note_on_c, 0, 69, 0
2, 57480, Note_on_c, 0, 67, 59
2, 57540, Note_on_c, 0, 67, 0
2, 57540, Note_on_c, 0, 69, 56
2, 57600, Note_on_c, 0, 69, 0
2, 57600, Note_on_c, 0, 67, 58
2, 57840, Note_on_c, 0, 67, 0
2, 58080, Note_on_c, 0, 74, 58
2, 58410, Note_on_c, 0, 74, 0
2, 58410, Note_on_c, 0, 78, 56
2, 58440, Note_on_c, 0, 78, 0
2, 58440, Note_on_c, 0, 76, 56
2, 58500, Note_on_c, 0, 76, 0
2, 58500, Note_on_c, 0, 74, 56
2, 58560, Note_on_c, 0, 74, 0
2, 58560, Note_on_c, 0, 86, 66
2, 58680, Note_on_c, 0, 86, 0
2, 58800, Note_on_c, 0, 84, 65
2, 58920, Note_on_c, 0, 84, 0
2, 59040, Note_on_c, 0, 83, 63
2, 59160, Note_on_c, 0, 83, 0
2, 59280, Note_on_c, 0, 81, 59
2, 59400, Note_on_c, 0, 81, 0
2, 59520, Note_on_c, 0, 79, 64
2, 60000, Note_on_c, 0, 79, 0
2, 60000, Note_on_c, 0, 74, 58
2, 60330, Note_on_c, 0, 74, 0
2, 60330, Note_on_c, 0, 78, 56
2, 60360, Note_on_c, 0, 78, 0
2, 60360, Note_on_c, 0, 76, 56
2, 60420, Note_on_c, 0, 76, 0
2, 60420, Note_on_c, 0, 74, 56
2, 60480, Note_on_c, 0, 74, 0
2, 60480, Note_on_c, 0, 86, 65
2, 60600, Note_on_c, 0, 86, 0
2, 60720, Note_on_c, 0, 84, 62
2, 60840, Note_on_c, 0, 84, 0
2, 60960, Note_on_c, 0, 83, 60
2, 61080, Note_on_c, 0, 83, 0
2, 61200, Note_on_c, 0, 81, 57
2, 61320, Note_on_c, 0, 81, 0
2, 61440, Note_on_c, 0, 79, 62
2, 61680, Note_on_c, 0, 79, 0
2, 61880, Note_on_c, 0, 74, 65
2, 61920, Note_on_c, 0, 74, 0
2, 61920, Note_on_c, 0, 86, 82
2, 62280, Note_on_c, 0, 86, 0
2, 62280, Note_on_c, 0, 84, 61
2, 62320, Note_on_c, 0, 84, 0
2, 62320, Note_on_c, 0, 83, 59
2, 62360, Note_on_c, 0, 83, 0
2, 62360, Note_on_c, 0, 81, 56
2, 62400, Note_on_c, 0, 81, 0
2, 62400, Note_on_c, 0, 79, 62
2, 62640, Note_on_c, 0, 79, 0
2, 62840, Note_on_c, 0, 74, 65
2, 62880, Note_on_c, 0, 74, 0
2, 62880, Note_on_c, 0, 86, 83
2, 63240, Note_on_c, 0, 86, 0
2, 63240, Note_on_c, 0, 84, 62
2, 63280, Note_on_c, 0, 84, 0
2, 63280, Note_on_c, 0, 83, 59
2, 63320, Note_on_c, 0, 83, 0
2, 63320, Note_on_c, 0, 81, 57
2, 63360, Note_on_c, 0, 81, 0
2, 63360, Note_on_c, 0, 79, 62
2, 63600, Note_on_c, 0, 79, 0
2, 63600, Note_on_c, 0, 62, 49
2, 63780, Note_on_c, 0, 62, 0
2, 63780, Note_on_c, 0, 67, 48
2, 63840, Note_on_c, 0, 67, 0
2, 63840, Note_on_c, 0, 71, 51
2, 63960, Note_on_c, 0, 71, 0
2, 64080, Note_on_c, 0, 69, 43
2, 64080, Note_on_c, 0, 60, 43
2, 64320, Note_on_c, 0, 60, 0
2, 64320, Note_on_c, 0, 69, 0
2, 64320, Note_on_c, 0, 60, 43
2, 64320, Note_on_c, 0, 69, 43
2, 64800, Note_on_c, 0, 69, 0
2, 64800, Note_on_c, 0, 60, 0
2, 64800, Note_on_c, 0, 67, 44
2, 64800, Note_on_c, 0, 59, 44
2, 65040, Note_on_c, 0, 59, 0
2, 65040, Note_on_c, 0, 67, 0
2, 65280, Control_c, 0, 91, 127
2, 65281, Note_on_c, 0, 76, 69
2, 65640, Note_on_c, 0, 76, 0
2, 65640, Note_on_c, 0, 77, 63
2, 65700, Note_on_c, 0, 77, 0
2, 65700, Note_on_c, 0, 79, 63
2, 65760, Note_on_c, 0, 79, 0
2, 65760, Note_on_c, 0, 72, 69
2, 66000, Note_on_c, 0, 72, 0
2, 66000, Note_on_c, 0, 71, 57
2, 66000, Note_on_c, 0, 74, 57
2, 66240, Note_on_c, 0, 74, 0
2, 66240, Note_on_c, 0, 71, 0
2, 66240, Note_on_c, 0, 71, 62
2, 66240, Note_on_c, 0, 74, 62
2, 66420, Note_on_c, 0, 77, 56
2, 66480, Note_on_c, 0, 77, 0
2, 66480, Note_on_c, 0, 74, 0
2, 66480, Note_on_c, 0, 71, 0
2, 66480, Note_on_c, 0, 72, 62
2, 66480, Note_on_c, 0, 76, 62
2, 66720, Note_on_c, 0, 76, 0
2, 66720, Note_on_c, 0, 72, 0
2, 66720, Note_on_c, 0, 71, 58
2, 66720, Note_on_c, 0, 74, 58
2, 67200, Note_on_c, 0, 74, 0
2, 67200, Note_on_c, 0, 71, 0
2, 67200, Note_on_c, 0, 76, 69
2, 67560, Note_on_c, 0, 76, 0
2, 67560, Note_on_c, 0, 77, 65
2, 67620, Note_on_c, 0, 77, 0
2, 67620, Note_on_c, 0, 79, 65
2, 67680, Note_on_c, 0, 79, 0
2, 67680, Note_on_c, 0, 72, 70
2, 67920, Note_on_c, 0, 72, 0
2, 67920, Note_on_c, 0, 71, 57
2, 67920, Note_on_c, 0, 74, 57
2, 68040, Note_on_c, 0, 74, 0
2, 68040, Note_on_c, 0, 71, 0
2, 68160, Note_on_c, 0, 74, 63
2, 68160, Note_on_c, 0, 77, 63
2, 68400, Note_on_c, 0, 77, 0
2, 68400, Note_on_c, 0, 74, 0
2, 68400, Note_on_c, 0, 77, 57
2, 68400, Note_on_c, 0, 72, 57
2, 68460, Note_on_c, 0, 77, 0
2, 68460, Note_on_c, 0, 76, 57
2, 68520, Note_on_c, 0, 76, 0
2, 68520, Note_on_c, 0, 77, 57
2, 68580, Note_on_c, 0, 77, 0
2, 68580, Note_on_c, 0, 76, 57
2, 68640, Note_on_c, 0, 76, 0
2, 68640, Note_on_c, 0, 72, 0
2, 68640, Note_on_c, 0, 71, 60
2, 68640, Note_on_c, 0, 74, 60
2, 69120, Note_on_c, 0, 74, 0
2, 69120, Note_on_c, 0, 71, 0
2, 69120, Note_on_c, 0, 77, 74
2, 69480, Note_on_c, 0, 77, 0
2, 69480, Note_on_c, 0, 79, 69
2, 69540, Note_on_c, 0, 79, 0
2, 69540, Note_on_c, 0, 77, 69
2, 69600, Note_on_c, 0, 77, 0
2, 69600, Note_on_c, 0, 76, 74
2, 69840, Note_on_c, 0, 76, 0
2, 69840, Note_on_c, 0, 76, 72
2, 69960, Note_on_c, 0, 76, 0
2, 70080, Note_on_c, 0, 81, 80
2, 70440, Note_on_c, 0, 81, 0
2, 70440, Note_on_c, 0, 83, 73
2, 70500, Note_on_c, 0, 83, 0
2, 70500, Note_on_c, 0, 84, 73
2, 70560, Note_on_c, 0, 84, 0
2, 70560, Note_on_c, 0, 79, 81
2, 70800, Note_on_c, 0, 79, 0
2, 70800, Note_on_c, 0, 79, 81
2, 70920, Note_on_c, 0, 79, 0
2, 71040, Note_on_c, 0, 79, 79
2, 71160, Note_on_c, 0, 79, 0
2, 71160, Note_on_c, 0, 77, 73
2, 71280, Note_on_c, 0, 77, 0
2, 71280, Note_on_c, 0, 77, 75
2, 71400, Note_on_c, 0, 77, 0
2, 71400, Note_on_c, 0, 74, 73
2, 71520, Note_on_c, 0, 74, 0
2, 71520, Note_on_c, 0, 77, 80
2, 71640, Note_on_c, 0, 77, 0
2, 71640, Note_on_c, 0, 76, 75
2, 71760, Note_on_c, 0, 76, 0
2, 71760, Note_on_c, 0, 76, 77
2, 71880, Note_on_c, 0, 76, 0
2, 71880, Note_on_c, 0, 72, 75
2, 72000, Note_on_c, 0, 72, 0
2, 72000, Note_on_c, 0, 73, 75
2, 72120, Note_on_c, 0, 73, 0
2, 72120, Note_on_c, 0, 74, 69
2, 72240, Note_on_c, 0, 74, 0
2, 72240, Note_on_c, 0, 76, 75
2, 72360, Note_on_c, 0, 76, 0
2, 72360, Note_on_c, 0, 74, 72
2, 72480, Note_on_c, 0, 74, 0
2, 72480, Note_on_c, 0, 72, 73
2, 72600, Note_on_c, 0, 72, 0
2, 72600, Note_on_c, 0, 71, 70
2, 72720, Note_on_c, 0, 71, 0
2, 72720, Note_on_c, 0, 69, 70
2, 72840, Note_on_c, 0, 69, 0
2, 72840, Note_on_c, 0, 67, 69
2, 72960, Note_on_c, 0, 67, 0
2, 72960, Control_c, 0, 91, 127
2, 72960, Note_on_c, 0, 76, 82
2, 73320, Note_on_c, 0, 76, 0
2, 73320, Note_on_c, 0, 77, 75
2, 73380, Note_on_c, 0, 77, 0
2, 73380, Note_on_c, 0, 79, 75
2, 73440, Note_on_c, 0, 79, 0
2, 73440, Note_on_c, 0, 72, 82
2, 73680, Note_on_c, 0, 72, 0
2, 73680, Note_on_c, 0, 71, 69
2, 73680, Note_on_c, 0, 74, 69
2, 73920, Note_on_c, 0, 74, 0
2, 73920, Note_on_c, 0, 71, 0
2, 73920, Note_on_c, 0, 71, 73
2, 73920, Note_on_c, 0, 74, 73
2, 74100, Note_on_c, 0, 77, 66
2, 74160, Note_on_c, 0, 77, 0
2, 74160, Note_on_c, 0, 74, 0
2, 74160, Note_on_c, 0, 71, 0
2, 74160, Note_on_c, 0, 72, 73
2, 74160, Note_on_c, 0, 76, 73
2, 74400, Note_on_c, 0, 76, 0
2, 74400, Note_on_c, 0, 72, 0
2, 74400, Note_on_c, 0, 71, 70
2, 74400, Note_on_c, 0, 74, 70
2, 74880, Note_on_c, 0, 74, 0
2, 74880, Note_on_c, 0, 71, 0
2, 74880, Note_on_c, 0, 76, 82
2, 75240, Note_on_c, 0, 76, 0
2, 75240, Note_on_c, 0, 77, 78
2, 75300, Note_on_c, 0, 77, 0
2, 75300, Note_on_c, 0, 79, 78
2, 75360, Note_on_c, 0, 79, 0
2, 75360, Note_on_c, 0, 72, 83
2, 75600, Note_on_c, 0, 72, 0
2, 75600, Note_on_c, 0, 71, 69
2, 75600, Note_on_c, 0, 74, 69
2, 75720, Note_on_c, 0, 74, 0
2, 75720, Note_on_c, 0, 71, 0
2, 75840, Note_on_c, 0, 74, 75
2, 75840, Note_on_c, 0, 77, 75
2, 76080, Note_on_c, 0, 77, 0
2, 76080, Note_on_c, 0, 74, 0
2, 76080, Note_on_c, 0, 77, 69
2, 76080, Note_on_c, 0, 72, 69
2, 76140, Note_on_c, 0, 77, 0
2, 76140, Note_on_c, 0, 76, 69
2, 76200, Note_on_c, 0, 76, 0
2, 76200, Note_on_c, 0, 77, 69
2, 76260, Note_on_c, 0, 77, 0
2, 76260, Note_on_c, 0, 76, 69
2, 76320, Note_on_c, 0, 76, 0
2, 76320, Note_on_c, 0, 72, 0
2, 76320, Note_on_c, 0, 71, 72
2, 76320, Note_on_c, 0, 74, 72
2, 76800, Note_on_c, 0, 74, 0
2, 76800, Note_on_c, 0, 71, 0
2, 76800, Note_on_c, 0, 77, 89
2, 77160, Note_on_c, 0, 77, 0
2, 77160, Note_on_c, 0, 79, 82
2, 77220, Note_on_c, 0, 79, 0
2, 77220, Note_on_c, 0, 77, 82
2, 77280, Note_on_c, 0, 77, 0
2, 77280, Note_on_c, 0, 76, 89
2, 77520, Note_on_c, 0, 76, 0
2, 77520, Note_on_c, 0, 76, 86
2, 77640, Note_on_c, 0, 76, 0
2, 77760, Note_on_c, 0, 81, 96
2, 78120, Note_on_c, 0, 81, 0
2, 78120, Note_on_c, 0, 83, 87
2, 78180, Note_on_c, 0, 83, 0
2, 78180, Note_on_c, 0, 84, 85
2, 78240, Note_on_c, 0, 84, 0
2, 78240, Note_on_c, 0, 79, 97
2, 78480, Note_on_c, 0, 79, 0
2, 78480, Note_on_c, 0, 79, 95
2, 78600, Note_on_c, 0, 79, 0
2, 78720, Note_on_c, 0, 80, 95
2, 78840, Note_on_c, 0, 80, 0
2, 78840, Note_on_c, 0, 81, 90
2, 78960, Note_on_c, 0, 81, 0
2, 78960, Note_on_c, 0, 77, 92
2, 79080, Note_on_c, 0, 77, 0
2, 79080, Note_on_c, 0, 74, 88
2, 79200, Note_on_c, 0, 74, 0
2, 79200, Note_on_c, 0, 72, 92
2, 79440, Note_on_c, 0, 72, 0
2, 79440, Note_on_c, 0, 71, 87
2, 79680, Note_on_c, 0, 71, 0
2, 79680, Note_on_c, 0, 72, 87
2, 79760, Note_on_c, 0, 72, 0
2, 79760, Note_on_c, 0, 67, 80
2, 79840, Note_on_c, 0, 67, 0
2, 79840, Note_on_c, 0, 76, 77
2, 79920, Note_on_c, 0, 76, 0
2, 79920, Note_on_c, 0, 72, 87
2, 80000, Note_on_c, 0, 72, 0
2, 80000, Note_on_c, 0, 79, 80
2, 80080, Note_on_c, 0, 79, 0
2, 80080, Note_on_c, 0, 76, 77
2, 80160, Note_on_c, 0, 76, 0
2, 80160, Note_on_c, 0, 84, 85
2, 80240, Note_on_c, 0, 84, 0
2, 80240, Note_on_c, 0, 83, 77
2, 80320, Note_on_c, 0, 83, 0
2, 80320, Note_on_c, 0, 81, 76
2, 80400, Note_on_c, 0, 81, 0
2, 80400, Note_on_c, 0, 79, 82
2, 80480, Note_on_c, 0, 79, 0
2, 80480, Note_on_c, 0, 77, 78
2, 80560, Note_on_c, 0, 77, 0
2, 80560, Note_on_c, 0, 76, 76
2, 80640, Note_on_c, 0, 76, 0
2, 80640, Note_on_c, 0, 73, 73
2, 80720, Note_on_c, 0, 73, 0
2, 80720, Note_on_c, 0, 74, 69
2, 80800, Note_on_c, 0, 74, 0
2, 80800, Note_on_c, 0, 77, 69
2, 80880, Note_on_c, 0, 77, 0
2, 80880, Note_on_c, 0, 81, 72
2, 80960, Note_on_c, 0, 81, 0
2, 80960, Note_on_c, 0, 77, 66
2, 81040, Note_on_c, 0, 77, 0
2, 81040, Note_on_c, 0, 74, 66
2, 81120, Note_on_c, 0, 74, 0
2, 81120, Note_on_c, 0, 79, 70
2, 81200, Note_on_c, 0, 79, 0
2, 81200, Note_on_c, 0, 76, 66
2, 81280, Note_on_c, 0, 76, 0
2, 81280, Note_on_c, 0, 72, 66
2, 81360, Note_on_c, 0, 72, 0
2, 81360, Note_on_c, 0, 77, 71
2, 81440, Note_on_c, 0, 77, 0
2, 81440, Note_on_c, 0, 74, 64
2, 81520, Note_on_c, 0, 74, 0
2, 81520, Note_on_c, 0, 71, 64
2, 81600, Note_on_c, 0, 71, 0
2, 81600, Note_on_c, 0, 72, 87
2, 81680, Note_on_c, 0, 72, 0
2, 81680, Note_on_c, 0, 67, 80
2, 81760, Note_on_c, 0, 67, 0
2, 81760, Note_on_c, 0, 76, 78
2, 81840, Note_on_c, 0, 76, 0
2, 81840, Note_on_c, 0, 72, 87
2, 81920, Note_on_c, 0, 72, 0
2, 81920, Note_on_c, 0, 79, 80
2, 82000, Note_on_c, 0, 79, 0
2, 82000, Note_on_c, 0, 76, 78
2, 82080, Note_on_c, 0, 76, 0
2, 82080, Note_on_c, 0, 84, 85
2, 82160, Note_on_c, 0, 84, 0
2, 82160, Note_on_c, 0, 83, 77
2, 82240, Note_on_c, 0, 83, 0
2, 82240, Note_on_c, 0, 81, 74
2, 82320, Note_on_c, 0, 81, 0
2, 82320, Note_on_c, 0, 79, 82
2, 82400, Note_on_c, 0, 79, 0
2, 82400, Note_on_c, 0, 77, 78
2, 82480, Note_on_c, 0, 77, 0
2, 82480, Note_on_c, 0, 76, 76
2, 82560, Note_on_c, 0, 76, 0
2, 82560, Note_on_c, 0, 73, 73
2, 82640, Note_on_c, 0, 73, 0
2, 82640, Note_on_c, 0, 74, 69
2, 82720, Note_on_c, 0, 74, 0
2, 82720, Note_on_c, 0, 77, 68
2, 82800, Note_on_c, 0, 77, 0
2, 82800, Note_on_c, 0, 81, 72
2, 82880, Note_on_c, 0, 81, 0
2, 82880, Note_on_c, 0, 77, 66
2, 82960, Note_on_c, 0, 77, 0
2, 82960, Note_on_c, 0, 74, 64
2, 83040, Note_on_c, 0, 74, 0
2, 83040, Note_on_c, 0, 79, 70
2, 83120, Note_on_c, 0, 79, 0
2, 83120, Note_on_c, 0, 76, 66
2, 83200, Note_on_c, 0, 76, 0
2, 83200, Note_on_c, 0, 72, 63
2, 83280, Note_on_c, 0, 72, 0
2, 83280, Note_on_c, 0, 77, 71
2, 83360, Note_on_c, 0, 77, 0
2, 83360, Note_on_c, 0, 74, 64
2, 83440, Note_on_c, 0, 74, 0
2, 83440, Note_on_c, 0, 71, 64
2, 83520, Note_on_c, 0, 71, 0
2, 83520, Note_on_c, 0, 72, 60
2, 83640, Note_on_c, 0, 72, 0
2, 83760, Note_on_c, 0, 67, 58
2, 83880, Note_on_c, 0, 67, 0
2, 84000, Note_on_c, 0, 60, 58
2, 84480, Note_on_c, 0, 60, 0
2, 84480, Note_on_c, 0, 76, 58
2, 84960, Note_on_c, 0, 76, 0
2, 84960, Note_on_c, 0, 77, 54
2, 85020, Note_on_c, 0, 77, 0
2, 85020, Note_on_c, 0, 76, 54
2, 85080, Note_on_c, 0, 76, 0
2, 85080, Note_on_c, 0, 74, 54
2, 85140, Note_on_c, 0, 74, 0
2, 85140, Note_on_c, 0, 76, 54
2, 85200, Note_on_c, 0, 76, 0
2, 85200, Note_on_c, 0, 79, 58
2, 85320, Note_on_c, 0, 79, 0
2, 85320, Note_on_c, 0, 77, 54
2, 85440, Note_on_c, 0, 77, 0
2, 85440, Note_on_c, 0, 76, 59
2, 85560, Note_on_c, 0, 76, 0
2, 85560, Note_on_c, 0, 74, 57
2, 85680, Note_on_c, 0, 74, 0
2, 85680, Note_on_c, 0, 72, 57
2, 85800, Note_on_c, 0, 72, 0
2, 85800, Note_on_c, 0, 71, 57
2, 85920, Note_on_c, 0, 71, 0
2, 85920, Note_on_c, 0, 72, 60
2, 86040, Note_on_c, 0, 72, 0
2, 86160, Note_on_c, 0, 73, 64
2, 86280, Note_on_c, 0, 73, 0
2, 86400, Note_on_c, 0, 74, 65
2, 86520, Note_on_c, 0, 74, 0
2, 86640, Note_on_c, 0, 75, 69
2, 86760, Note_on_c, 0, 75, 0
2, 86880, Note_on_c, 0, 76, 73
2, 87000, Note_on_c, 0, 76, 0
2, 87120, Note_on_c, 0, 79, 72
2, 87240, Note_on_c, 0, 79, 0
2, 87240, Note_on_c, 0, 77, 66
2, 87360, Note_on_c, 0, 77, 0
2, 87360, Note_on_c, 0, 76, 72
2, 87720, Note_on_c, 0, 76, 0
2, 87720, Note_on_c, 0, 77, 64
2, 87780, Note_on_c, 0, 77, 0
2, 87780, Note_on_c, 0, 76, 64
2, 87840, Note_on_c, 0, 76, 0
2, 87840, Note_on_c, 0, 74, 65
2, 88080, Note_on_c, 0, 74, 0
2, 88320, Note_on_c, 0, 77, 67
2, 88800, Note_on_c, 0, 77, 0
2, 88800, Note_on_c, 0, 79, 56
2, 88860, Note_on_c, 0, 79, 0
2, 88860, Note_on_c, 0, 77, 57
2, 88920, Note_on_c, 0, 77, 0
2, 88920, Note_on_c, 0, 76, 57
2, 88980, Note_on_c, 0, 76, 0
2, 88980, Note_on_c, 0, 77, 57
2, 89040, Note_on_c, 0, 77, 0
2, 89040, Note_on_c, 0, 81, 64
2, 89160, Note_on_c, 0, 81, 0
2, 89160, Note_on_c, 0, 79, 60
2, 89280, Note_on_c, 0, 79, 0
2, 89280, Note_on_c, 0, 77, 60
2, 89400, Note_on_c, 0, 77, 0
2, 89400, Note_on_c, 0, 76, 58
2, 89520, Note_on_c, 0, 76, 0
2, 89520, Note_on_c, 0, 74, 58
2, 89640, Note_on_c, 0, 74, 0
2, 89640, Note_on_c, 0, 72, 58
2, 89760, Note_on_c, 0, 72, 0
2, 89760, Note_on_c, 0, 71, 57
2, 89880, Note_on_c, 0, 71, 0
2, 89880, Note_on_c, 0, 72, 58
2, 89940, Note_on_c, 0, 72, 0
2, 90000, Note_on_c, 0, 74, 59
2, 90060, Note_on_c, 0, 74, 0
2, 90120, Note_on_c, 0, 76, 62
2, 90180, Note_on_c, 0, 76, 0
2, 90240, Note_on_c, 0, 77, 63
2, 90300, Note_on_c, 0, 77, 0
2, 90360, Note_on_c, 0, 79, 64
2, 90420, Note_on_c, 0, 79, 0
2, 90480, Note_on_c, 0, 81, 65
2, 90540, Note_on_c, 0, 81, 0
2, 90600, Note_on_c, 0, 83, 67
2, 90660, Note_on_c, 0, 83, 0
2, 90720, Note_on_c, 0, 84, 69
2, 90780, Note_on_c, 0, 84, 0
2, 90840, Note_on_c, 0, 86, 70
2, 90900, Note_on_c, 0, 86, 0
2, 90960, Note_on_c, 0, 88, 72
2, 91020, Note_on_c, 0, 88, 0
2, 91080, Note_on_c, 0, 89, 73
2, 91140, Note_on_c, 0, 89, 0
2, 91200, Note_on_c, 0, 87, 92
2, 91680, Note_on_c, 0, 87, 0
2, 91680, Note_on_c, 0, 88, 87
2, 91920, Note_on_c, 0, 88, 0
2, 92160, Note_on_c, 0, 76, 74
2, 92480, Note_on_c, 0, 76, 0
2, 92480, Note_on_c, 0, 81, 69
2, 92560, Note_on_c, 0, 81, 0
2, 92560, Note_on_c, 0, 84, 69
2, 92640, Note_on_c, 0, 84, 0
2, 92640, Note_on_c, 0, 88, 69
2, 92720, Note_on_c, 0, 88, 0
2, 92720, Note_on_c, 0, 84, 67
2, 92800, Note_on_c, 0, 84, 0
2, 92800, Note_on_c, 0, 81, 67
2, 92880, Note_on_c, 0, 81, 0
2, 92880, Note_on_c, 0, 84, 69
2, 92960, Note_on_c, 0, 84, 0
2, 92960, Note_on_c, 0, 81, 67
2, 93040, Note_on_c, 0, 81, 0
2, 93040, Note_on_c, 0, 76, 67
2, 93120, Note_on_c, 0, 76, 0
2, 93120, Note_on_c, 0, 74, 75
2, 93440, Note_on_c, 0, 74, 0
2, 93440, Note_on_c, 0, 79, 69
2, 93520, Note_on_c, 0, 79, 0
2, 93520, Note_on_c, 0, 83, 69
2, 93600, Note_on_c, 0, 83, 0
2, 93600, Note_on_c, 0, 86, 69
2, 93680, Note_on_c, 0, 86, 0
2, 93680, Note_on_c, 0, 83, 68
2, 93760, Note_on_c, 0, 83, 0
2, 93760, Note_on_c, 0, 79, 68
2, 93840, Note_on_c, 0, 79, 0
2, 93840, Note_on_c, 0, 83, 69
2, 93920, Note_on_c, 0, 83, 0
2, 93920, Note_on_c, 0, 79, 67
2, 94000, Note_on_c, 0, 79, 0
2, 94000, Note_on_c, 0, 74, 67
2, 94080, Note_on_c, 0, 74, 0
2, 94160, Note_on_c, 0, 74, 69
2, 94240, Note_on_c, 0, 74, 0
2, 94240, Note_on_c, 0, 81, 69
2, 94320, Note_on_c, 0, 81, 0
2, 94320, Note_on_c, 0, 84, 69
2, 94400, Note_on_c, 0, 84, 0
2, 94400, Note_on_c, 0, 81, 67
2, 94480, Note_on_c, 0, 81, 0
2, 94480, Note_on_c, 0, 74, 69
2, 94560, Note_on_c, 0, 74, 0
2, 94640, Note_on_c, 0, 74, 69
2, 94720, Note_on_c, 0, 74, 0
2, 94720, Note_on_c, 0, 79, 69
2, 94800, Note_on_c, 0, 79, 0
2, 94800, Note_on_c, 0, 83, 69
2, 94880, Note_on_c, 0, 83, 0
2, 94880, Note_on_c, 0, 79, 68
2, 94960, Note_on_c, 0, 79, 0
2, 94960, Note_on_c, 0, 74, 69
2, 95040, Note_on_c, 0, 74, 0
2, 95040, Note_on_c, 0, 81, 79
2, 95220, Note_on_c, 0, 81, 0
2, 95220, Note_on_c, 0, 78, 73
2, 95280, Note_on_c, 0, 78, 0
2, 95280, Note_on_c, 0, 74, 69
2, 95520, Note_on_c, 0, 74, 0
2, 95940, Note_on_c, 0, 67, 51
2, 96000, Note_on_c, 0, 67, 0
2, 96000, Note_on_c, 0, 79, 75
2, 96600, Note_on_c, 0, 79, 0
2, 96600, Note_on_c, 0, 78, 58
2, 96720, Note_on_c, 0, 78, 0
2, 96720, Note_on_c, 0, 76, 58
2, 96840, Note_on_c, 0, 76, 0
2, 96840, Note_on_c, 0, 74, 58
2, 96960, Note_on_c, 0, 74, 0
2, 96960, Note_on_c, 0, 74, 62
2, 97080, Note_on_c, 0, 74, 0
2, 97080, Note_on_c, 0, 72, 57
2, 97200, Note_on_c, 0, 72, 0
2, 97200, Note_on_c, 0, 71, 58
2, 97320, Note_on_c, 0, 71, 0
2, 97320, Note_on_c, 0, 69, 55
2, 97440, Note_on_c, 0, 69, 0
2, 97440, Note_on_c, 0, 74, 63
2, 97560, Note_on_c, 0, 74, 0
2, 97680, Note_on_c, 0, 72, 59
2, 97800, Note_on_c, 0, 72, 0
2, 97920, Note_on_c, 0, 70, 62
2, 98160, Note_on_c, 0, 70, 0
2, 98160, Note_on_c, 0, 71, 59
2, 98400, Note_on_c, 0, 71, 0
2, 99780, Note_on_c, 0, 67, 51
2, 99840, Note_on_c, 0, 67, 0
2, 99840, Note_on_c, 0, 79, 75
2, 100440, Note_on_c, 0, 79, 0
2, 100440, Note_on_c, 0, 78, 58
2, 100560, Note_on_c, 0, 78, 0
2, 100560, Note_on_c, 0, 76, 58
2, 100680, Note_on_c, 0, 76, 0
2, 100680, Note_on_c, 0, 74, 56
2, 100800, Note_on_c, 0, 74, 0
2, 100800, Note_on_c, 0, 74, 62
2, 100920, Note_on_c, 0, 74, 0
2, 100920, Note_on_c, 0, 72, 55
2, 101040, Note_on_c, 0, 72, 0
2, 101040, Note_on_c, 0, 71, 58
2, 101160, Note_on_c, 0, 71, 0
2, 101160, Note_on_c, 0, 69, 58
2, 101280, Note_on_c, 0, 69, 0
2, 101280, Note_on_c, 0, 74, 63
2, 101400, Note_on_c, 0, 74, 0
2, 101520, Note_on_c, 0, 72, 59
2, 101640, Note_on_c, 0, 72, 0
2, 101760, Note_on_c, 0, 71, 63
2, 102000, Note_on_c, 0, 71, 0
2, 102240, Note_on_c, 0, 78, 64
2, 102280, Note_on_c, 0, 78, 0
2, 102280, Note_on_c, 0, 76, 61
2, 102320, Note_on_c, 0, 76, 0
2, 102320, Note_on_c, 0, 78, 64
2, 102360, Note_on_c, 0, 78, 0
2, 102360, Note_on_c, 0, 76, 62
2, 102420, Note_on_c, 0, 76, 0
2, 102420, Note_on_c, 0, 78, 72
2, 102480, Note_on_c, 0, 78, 0
2, 102480, Note_on_c, 0, 79, 72
2, 102600, Note_on_c, 0, 79, 0
2, 102600, Note_on_c, 0, 79, 69
2, 102660, Note_on_c, 0, 79, 0
2, 102720, Note_on_c, 0, 79, 69
2, 102960, Note_on_c, 0, 79, 0
2, 103200, Note_on_c, 0, 83, 64
2, 103240, Note_on_c, 0, 83, 0
2, 103240, Note_on_c, 0, 81, 61
2, 103280, Note_on_c, 0, 81, 0
2, 103280, Note_on_c, 0, 83, 64
2, 103320, Note_on_c, 0, 83, 0
2, 103320, Note_on_c, 0, 81, 60
2, 103380, Note_on_c, 0, 81, 0
2, 103380, Note_on_c, 0, 83, 72
2, 103440, Note_on_c, 0, 83, 0
2, 103440, Note_on_c, 0, 84, 72
2, 103560, Note_on_c, 0, 84, 0
2, 103560, Note_on_c, 0, 84, 69
2, 103620, Note_on_c, 0, 84, 0
2, 103680, Note_on_c, 0, 84, 69
2, 103920, Note_on_c, 0, 84, 0
2, 104160, Note_on_c, 0, 86, 63
2, 104200, Note_on_c, 0, 86, 0
2, 104200, Note_on_c, 0, 84, 59
2, 104240, Note_on_c, 0, 84, 0
2, 104240, Note_on_c, 0, 86, 63
2, 104280, Note_on_c, 0, 86, 0
2, 104280, Note_on_c, 0, 84, 59
2, 104340, Note_on_c, 0, 84, 0
2, 104340, Note_on_c, 0, 86, 73
2, 104400, Note_on_c, 0, 86, 0
2, 104400, Note_on_c, 0, 88, 73
2, 104520, Note_on_c, 0, 88, 0
2, 104520, Note_on_c, 0, 88, 69
2, 104580, Note_on_c, 0, 88, 0
2, 104640, Note_on_c, 0, 88, 69
2, 104760, Note_on_c, 0, 88, 0
2, 104760, Note_on_c, 0, 86, 70
2, 104880, Note_on_c, 0, 86, 0
2, 104880, Note_on_c, 0, 84, 65
2, 104940, Note_on_c, 0, 84, 0
2, 105000, Note_on_c, 0, 83, 65
2, 105060, Note_on_c, 0, 83, 0
2, 105120, Note_on_c, 0, 81, 65
2, 105240, Note_on_c, 0, 81, 0
2, 105360, Note_on_c, 0, 86, 65
2, 105480, Note_on_c, 0, 86, 0
2, 105600, Note_on_c, 0, 84, 72
2, 105840, Note_on_c, 0, 84, 0
2, 105840, Note_on_c, 0, 83, 67
2, 106080, Note_on_c, 0, 83, 0
2, 106080, Note_on_c, 0, 78, 63
2, 106120, Note_on_c, 0, 78, 0
2, 106120, Note_on_c, 0, 76, 59
2, 106160, Note_on_c, 0, 76, 0
2, 106160, Note_on_c, 0, 78, 63
2, 106200, Note_on_c, 0, 78, 0
2, 106200, Note_on_c, 0, 76, 59
2, 106260, Note_on_c, 0, 76, 0
2, 106260, Note_on_c, 0, 78, 75
2, 106320, Note_on_c, 0, 78, 0
2, 106320, Note_on_c, 0, 79, 75
2, 106440, Note_on_c, 0, 79, 0
2, 106440, Note_on_c, 0, 79, 69
2, 106500, Note_on_c, 0, 79, 0
2, 106560, Note_on_c, 0, 79, 69
2, 106800, Note_on_c, 0, 79, 0
2, 107040, Note_on_c, 0, 83, 63
2, 107080, Note_on_c, 0, 83, 0
2, 107080, Note_on_c, 0, 81, 58
2, 107120, Note_on_c, 0, 81, 0
2, 107120, Note_on_c, 0, 83, 63
2, 107160, Note_on_c, 0, 83, 0
2, 107160, Note_on_c, 0, 81, 59
2, 107220, Note_on_c, 0, 81, 0
2, 107220, Note_on_c, 0, 83, 77
2, 107280, Note_on_c, 0, 83, 0
2, 107280, Note_on_c, 0, 84, 77
2, 107400, Note_on_c, 0, 84, 0
2, 107400, Note_on_c, 0, 84, 69
2, 107460, Note_on_c, 0, 84, 0
2, 107520, Note_on_c, 0, 84, 69
2, 107760, Note_on_c, 0, 84, 0
2, 108000, Note_on_c, 0, 86, 63
2, 108040, Note_on_c, 0, 86, 0
2, 108040, Note_on_c, 0, 84, 58
2, 108080, Note_on_c, 0, 84, 0
2, 108080, Note_on_c, 0, 86, 63
2, 108120, Note_on_c, 0, 86, 0
2, 108120, Note_on_c, 0, 84, 59
2, 108180, Note_on_c, 0, 84, 0
2, 108180, Note_on_c, 0, 86, 75
2, 108240, Note_on_c, 0, 86, 0
2, 108240, Note_on_c, 0, 88, 75
2, 108360, Note_on_c, 0, 88, 0
2, 108360, Note_on_c, 0, 88, 71
2, 108420, Note_on_c, 0, 88, 0
2, 108480, Note_on_c, 0, 88, 72
2, 108600, Note_on_c, 0, 88, 0
2, 108600, Note_on_c, 0, 86, 70
2, 108720, Note_on_c, 0, 86, 0
2, 108720, Note_on_c, 0, 84, 70
2, 108780, Note_on_c, 0, 84, 0
2, 108840, Note_on_c, 0, 83, 70
2, 108900, Note_on_c, 0, 83, 0
2, 108960, Note_on_c, 0, 83, 72
2, 109080, Note_on_c, 0, 83, 0
2, 109080, Note_on_c, 0, 81, 70
2, 109200, Note_on_c, 0, 81, 0
2, 109200, Note_on_c, 0, 79, 70
2, 109260, Note_on_c, 0, 79, 0
2, 109320, Note_on_c, 0, 78, 70
2, 109380, Note_on_c, 0, 78, 0
2, 109440, Note_on_c, 0, 86, 96
2, 109760, Note_on_c, 0, 86, 0
2, 109760, Note_on_c, 0, 83, 71
2, 109840, Note_on_c, 0, 83, 0
2, 109840, Note_on_c, 0, 79, 71
2, 109920, Note_on_c, 0, 79, 0
2, 109920, Note_on_c, 0, 78, 73
2, 110000, Note_on_c, 0, 78, 0
2, 110000, Note_on_c, 0, 81, 73
2, 110080, Note_on_c, 0, 81, 0
2, 110080, Note_on_c, 0, 74, 71
2, 110160, Note_on_c, 0, 74, 0
2, 110160, Note_on_c, 0, 79, 73
2, 110240, Note_on_c, 0, 79, 0
2, 110240, Note_on_c, 0, 83, 70
2, 110320, Note_on_c, 0, 83, 0
2, 110320, Note_on_c, 0, 74, 70
2, 110400, Note_on_c, 0, 74, 0
2, 110400, Note_on_c, 0, 81, 82
2, 110720, Note_on_c, 0, 81, 0
2, 110720, Note_on_c, 0, 78, 67
2, 110800, Note_on_c, 0, 78, 0
2, 110800, Note_on_c, 0, 74, 68
2, 110880, Note_on_c, 0, 74, 0
2, 110880, Note_on_c, 0, 73, 71
2, 110960, Note_on_c, 0, 73, 0
2, 110960, Note_on_c, 0, 74, 66
2, 111040, Note_on_c, 0, 74, 0
2, 111040, Note_on_c, 0, 69, 66
2, 111120, Note_on_c, 0, 69, 0
2, 111120, Note_on_c, 0, 72, 69
2, 111200, Note_on_c, 0, 72, 0
2, 111200, Note_on_c, 0, 74, 66
2, 111280, Note_on_c, 0, 74, 0
2, 111280, Note_on_c, 0, 69, 66
2, 111360, Note_on_c, 0, 69, 0
2, 111360, Note_on_c, 0, 86, 93
2, 111680, Note_on_c, 0, 86, 0
2, 111680, Note_on_c, 0, 83, 71
2, 111760, Note_on_c, 0, 83, 0
2, 111760, Note_on_c, 0, 79, 71
2, 111840, Note_on_c, 0, 79, 0
2, 111840, Note_on_c, 0, 78, 73
2, 111920, Note_on_c, 0, 78, 0
2, 111920, Note_on_c, 0, 81, 73
2, 112000, Note_on_c, 0, 81, 0
2, 112000, Note_on_c, 0, 74, 71
2, 112080, Note_on_c, 0, 74, 0
2, 112080, Note_on_c, 0, 79, 73
2, 112160, Note_on_c, 0, 79, 0
2, 112160, Note_on_c, 0, 83, 70
2, 112240, Note_on_c, 0, 83, 0
2, 112240, Note_on_c, 0, 74, 70
2, 112320, Note_on_c, 0, 74, 0
2, 112320, Note_on_c, 0, 81, 87
2, 112640, Note_on_c, 0, 81, 0
2, 112640, Note_on_c, 0, 78, 64
2, 112720, Note_on_c, 0, 78, 0
2, 112720, Note_on_c, 0, 74, 64
2, 112800, Note_on_c, 0, 74, 0
2, 112800, Note_on_c, 0, 73, 66
2, 112880, Note_on_c, 0, 73, 0
2, 112880, Note_on_c, 0, 74, 63
2, 112960, Note_on_c, 0, 74, 0
2, 112960, Note_on_c, 0, 69, 63
2, 113040, Note_on_c, 0, 69, 0
2, 113040, Note_on_c, 0, 72, 64
2, 113120, Note_on_c, 0, 72, 0
2, 113120, Note_on_c, 0, 74, 62
2, 113200, Note_on_c, 0, 74, 0
2, 113200, Note_on_c, 0, 69, 62
2, 113280, Note_on_c, 0, 69, 0
2, 113280, Note_on_c, 0, 71, 62
2, 113360, Note_on_c, 0, 71, 0
2, 113360, Note_on_c, 0, 67, 63
2, 113440, Note_on_c, 0, 67, 0
2, 113440, Note_on_c, 0, 71, 65
2, 113520, Note_on_c, 0, 71, 0
2, 113520, Note_on_c, 0, 74, 66
2, 113600, Note_on_c, 0, 74, 0
2, 113600, Note_on_c, 0, 71, 67
2, 113680, Note_on_c, 0, 71, 0
2, 113680, Note_on_c, 0, 74, 70
2, 113760, Note_on_c, 0, 74, 0
2, 113760, Note_on_c, 0, 79, 71
2, 113840, Note_on_c, 0, 79, 0
2, 113840, Note_on_c, 0, 74, 73
2, 113920, Note_on_c, 0, 74, 0
2, 113920, Note_on_c, 0, 79, 74
2, 114000, Note_on_c, 0, 79, 0
2, 114000, Note_on_c, 0, 83, 75
2, 114080, Note_on_c, 0, 83, 0
2, 114080, Note_on_c, 0, 79, 78
2, 114160, Note_on_c, 0, 79, 0
2, 114160, Note_on_c, 0, 83, 79
2, 114240, Note_on_c, 0, 83, 0
2, 114240, Note_on_c, 0, 86, 81
2, 114320, Note_on_c, 0, 86, 0
2, 114320, Note_on_c, 0, 83, 82
2, 114400, Note_on_c, 0, 83, 0
2, 114400, Note_on_c, 0, 86, 85
2, 114480, Note_on_c, 0, 86, 0
2, 114480, Note_on_c, 0, 89, 85
2, 114560, Note_on_c, 0, 89, 0
2, 114560, Note_on_c, 0, 86, 82
2, 114640, Note_on_c, 0, 86, 0
2, 114640, Note_on_c, 0, 83, 79
2, 114720, Note_on_c, 0, 83, 0
2, 114720, Note_on_c, 0, 79, 77
2, 114800, Note_on_c, 0, 79, 0
2, 114800, Note_on_c, 0, 77, 74
2, 114880, Note_on_c, 0, 77, 0
2, 114880, Note_on_c, 0, 74, 71
2, 114960, Note_on_c, 0, 74, 0
2, 114960, Note_on_c, 0, 71, 69
2, 115040, Note_on_c, 0, 71, 0
2, 115040, Note_on_c, 0, 67, 65
2, 115120, Note_on_c, 0, 67, 0
2, 115120, Note_on_c, 0, 65, 63
2, 115200, Note_on_c, 0, 65, 0
2, 115200, Note_on_c, 0, 64, 59
2, 115260, Note_on_c, 0, 64, 0
2, 115320, Note_on_c, 0, 76, 56
2, 115440, Note_on_c, 0, 76, 0
2, 115440, Note_on_c, 0, 75, 56
2, 115560, Note_on_c, 0, 75, 0
2, 115560, Note_on_c, 0, 76, 56
2, 115680, Note_on_c, 0, 76, 0
2, 115680, Note_on_c, 0, 75, 57
2, 115800, Note_on_c, 0, 75, 0
2, 115800, Note_on_c, 0, 76, 57
2, 115920, Note_on_c, 0, 76, 0
2, 115920, Note_on_c, 0, 75, 57
2, 116040, Note_on_c, 0, 75, 0
2, 116040, Note_on_c, 0, 76, 57
2, 116160, Note_on_c, 0, 76, 0
2, 116160, Note_on_c, 0, 67, 62
2, 116880, Note_on_c, 0, 67, 0
2, 116880, Note_on_c, 0, 71, 57
2, 116880, Note_on_c, 0, 66, 57
2, 117000, Note_on_c, 0, 71, 0
2, 117000, Note_on_c, 0, 69, 57
2, 117120, Note_on_c, 0, 69, 0
2, 117120, Note_on_c, 0, 66, 0
2, 117200, Note_on_c, 0, 67, 63
2, 117280, Note_on_c, 0, 67, 0
2, 117280, Note_on_c, 0, 71, 65
2, 117360, Note_on_c, 0, 71, 0
2, 117360, Note_on_c, 0, 74, 66
2, 117440, Note_on_c, 0, 74, 0
2, 117440, Note_on_c, 0, 71, 67
2, 117520, Note_on_c, 0, 71, 0
2, 117520, Note_on_c, 0, 74, 70
2, 117600, Note_on_c, 0, 74, 0
2, 117600, Note_on_c, 0, 79, 71
2, 117680, Note_on_c, 0, 79, 0
2, 117680, Note_on_c, 0, 74, 73
2, 117760, Note_on_c, 0, 74, 0
2, 117760, Note_on_c, 0, 79, 74
2, 117840, Note_on_c, 0, 79, 0
2, 117840, Note_on_c, 0, 83, 75
2, 117920, Note_on_c, 0, 83, 0
2, 117920, Note_on_c, 0, 79, 78
2, 118000, Note_on_c, 0, 79, 0
2, 118000, Note_on_c, 0, 83, 79
2, 118080, Note_on_c, 0, 83, 0
2, 118080, Note_on_c, 0, 86, 81
2, 118160, Note_on_c, 0, 86, 0
2, 118160, Note_on_c, 0, 83, 82
2, 118240, Note_on_c, 0, 83, 0
2, 118240, Note_on_c, 0, 86, 85
2, 118320, Note_on_c, 0, 86, 0
2, 118320, Note_on_c, 0, 89, 85
2, 118400, Note_on_c, 0, 89, 0
2, 118400, Note_on_c, 0, 86, 82
2, 118480, Note_on_c, 0, 86, 0
2, 118480, Note_on_c, 0, 83, 79
2, 118560, Note_on_c, 0, 83, 0
2, 118560, Note_on_c, 0, 79, 77
2, 118640, Note_on_c, 0, 79, 0
2, 118640, Note_on_c, 0, 77, 74
2, 118720, Note_on_c, 0, 77, 0
2, 118720, Note_on_c, 0, 74, 71
2, 118800, Note_on_c, 0, 74, 0
2, 118800, Note_on_c, 0, 71, 69
2, 118880, Note_on_c, 0, 71, 0
2, 118880, Note_on_c, 0, 67, 65
2, 118960, Note_on_c, 0, 67, 0
2, 118960, Note_on_c, 0, 65, 63
2, 119040, Note_on_c, 0, 65, 0
2, 119040, Note_on_c, 0, 64, 59
2, 119100, Note_on_c, 0, 64, 0
2, 119160, Note_on_c, 0, 76, 56
2, 119280, Note_on_c, 0, 76, 0
2, 119280, Note_on_c, 0, 75, 56
2, 119400, Note_on_c, 0, 75, 0
2, 119400, Note_on_c, 0, 76, 54
2, 119520, Note_on_c, 0, 76, 0
2, 119520, Note_on_c, 0, 75, 57
2, 119640, Note_on_c, 0, 75, 0
2, 119640, Note_on_c, 0, 76, 55
2, 119760, Note_on_c, 0, 76, 0
2, 119760, Note_on_c, 0, 75, 57
2, 119880, Note_on_c, 0, 75, 0
2, 119880, Note_on_c, 0, 76, 55
2, 120000, Note_on_c, 0, 76, 0
2, 120120, Note_on_c, 0, 79, 67
2, 120240, Note_on_c, 0, 79, 0
2, 120240, Note_on_c, 0, 78, 64
2, 120360, Note_on_c, 0, 78, 0
2, 120360, Note_on_c, 0, 79, 63
2, 120480, Note_on_c, 0, 79, 0
2, 120480, Note_on_c, 0, 78, 66
2, 120600, Note_on_c, 0, 78, 0
2, 120600, Note_on_c, 0, 79, 65
2, 120720, Note_on_c, 0, 79, 0
2, 120720, Note_on_c, 0, 78, 69
2, 120840, Note_on_c, 0, 78, 0
2, 120840, Note_on_c, 0, 79, 74
2, 120960, Note_on_c, 0, 79, 0
2, 120960, Note_on_c, 0, 79, 72
2, 121080, Note_on_c, 0, 79, 0
2, 121080, Note_on_c, 0, 74, 59
2, 121200, Note_on_c, 0, 74, 0
2, 121200, Note_on_c, 0, 74, 63
2, 121260, Note_on_c, 0, 74, 0
2, 121320, Note_on_c, 0, 74, 59
2, 121380, Note_on_c, 0, 74, 0
2, 121440, Note_on_c, 0, 76, 66
2, 121560, Note_on_c, 0, 76, 0
2, 121560, Note_on_c, 0, 74, 62
2, 121680, Note_on_c, 0, 74, 0
2, 121680, Note_on_c, 0, 72, 60
2, 121740, Note_on_c, 0, 72, 0
2, 121800, Note_on_c, 0, 71, 59
2, 121860, Note_on_c, 0, 71, 0
2, 121920, Note_on_c, 0, 71, 57
2, 122160, Note_on_c, 0, 71, 0
2, 122400, Note_on_c, 0, 71, 56
2, 122460, Note_on_c, 0, 71, 0
2, 122460, Note_on_c, 0, 69, 53
2, 122520, Note_on_c, 0, 69, 0
2, 122520, Note_on_c, 0, 71, 56
2, 122580, Note_on_c, 0, 71, 0
2, 122580, Note_on_c, 0, 69, 53
2, 122640, Note_on_c, 0, 69, 0
2, 122640, Note_on_c, 0, 71, 56
2, 122700, Note_on_c, 0, 71, 0
2, 122700, Note_on_c, 0, 69, 54
2, 122760, Note_on_c, 0, 69, 0
2, 122760, Note_on_c, 0, 67, 59
2, 122820, Note_on_c, 0, 67, 0
2, 122820, Note_on_c, 0, 69, 56
2, 122880, Note_on_c, 0, 69, 0
2, 122880, Note_on_c, 0, 67, 58
2, 123120, Note_on_c, 0, 67, 0
2, 123360, Note_on_c, 0, 74, 58
2, 123690, Note_on_c, 0, 74, 0
2, 123690, Note_on_c, 0, 78, 56
2, 123720, Note_on_c, 0, 78, 0
2, 123720, Note_on_c, 0, 76, 56
2, 123780, Note_on_c, 0, 76, 0
2, 123780, Note_on_c, 0, 74, 56
2, 123840, Note_on_c, 0, 74, 0
2, 123840, Note_on_c, 0, 86, 66
2, 123960, Note_on_c, 0, 86, 0
2, 124080, Note_on_c, 0, 84, 65
2, 124200, Note_on_c, 0, 84, 0
2, 124320, Note_on_c, 0, 83, 63
2, 124440, Note_on_c, 0, 83, 0
2, 124560, Note_on_c, 0, 81, 59
2, 124680, Note_on_c, 0, 81, 0
2, 124800, Note_on_c, 0, 79, 64
2, 125280, Note_on_c, 0, 79, 0
2, 125280, Note_on_c, 0, 74, 58
2, 125610, Note_on_c, 0, 74, 0
2, 125610, Note_on_c, 0, 78, 56
2, 125640, Note_on_c, 0, 78, 0
2, 125640, Note_on_c, 0, 76, 56
2, 125700, Note_on_c, 0, 76, 0
2, 125700, Note_on_c, 0, 74, 56
2, 125760, Note_on_c, 0, 74, 0
2, 125760, Note_on_c, 0, 86, 65
2, 125880, Note_on_c, 0, 86, 0
2, 126000, Note_on_c, 0, 84, 62
2, 126120, Note_on_c, 0, 84, 0
2, 126240, Note_on_c, 0, 83, 60
2, 126360, Note_on_c, 0, 83, 0
2, 126480, Note_on_c, 0, 81, 57
2, 126600, Note_on_c, 0, 81, 0
2, 126720, Note_on_c, 0, 79, 62
2, 126960, Note_on_c, 0, 79, 0
2, 127160, Note_on_c, 0, 74, 65
2, 127200, Note_on_c, 0, 74, 0
2, 127200, Note_on_c, 0, 86, 81
2, 127560, Note_on_c, 0, 86, 0
2, 127560, Note_on_c, 0, 84, 61
2, 127600, Note_on_c, 0, 84, 0
2, 127600, Note_on_c, 0, 83, 59
2, 127640, Note_on_c, 0, 83, 0
2, 127640, Note_on_c, 0, 81, 56
2, 127680, Note_on_c, 0, 81, 0
2, 127680, Note_on_c, 0, 79, 62
2, 127920, Note_on_c, 0, 79, 0
2, 128120, Note_on_c, 0, 74, 65
2, 128160, Note_on_c, 0, 74, 0
2, 128160, Note_on_c, 0, 86, 81
2, 128520, Note_on_c, 0, 86, 0
2, 128520, Note_on_c, 0, 84, 62
2, 128560, Note_on_c, 0, 84, 0
2, 128560, Note_on_c, 0, 83, 59
2, 128600, Note_on_c, 0, 83, 0
2, 128600, Note_on_c, 0, 81, 57
2, 128640, Note_on_c, 0, 81, 0
2, 128640, Note_on_c, 0, 79, 62
2, 128880, Note_on_c, 0, 79, 0
2, 128880, Note_on_c, 0, 62, 49
2, 129060, Note_on_c, 0, 62, 0
2, 129060, Note_on_c, 0, 67, 48
2, 129120, Note_on_c, 0, 67, 0
2, 129120, Note_on_c, 0, 71, 51
2, 129240, Note_on_c, 0, 71, 0
2, 129360, Note_on_c, 0, 60, 43
2, 129360, Note_on_c, 0, 69, 43
2, 129600, Note_on_c, 0, 69, 0
2, 129600, Note_on_c, 0, 60, 0
2, 129600, Note_on_c, 0, 60, 43
2, 129600, Note_on_c, 0, 69, 43
2, 130080, Note_on_c, 0, 69, 0
2, 130080, Note_on_c, 0, 60, 0
2, 130080, Note_on_c, 0, 59, 44
2, 130080, Note_on_c, 0, 67, 44
2, 130320, Note_on_c, 0, 67, 0
2, 130320, Note_on_c, 0, 59, 0
2, 130560, Control_c, 0, 91, 127
2, 130560, Note_on_c, 0, 74, 55
2, 130800, Note_on_c, 0, 74, 0
2, 130800, Note_on_c, 0, 71, 51
2, 131040, Note_on_c, 0, 71, 0
2, 131040, Note_on_c, 0, 71, 51
2, 131160, Note_on_c, 0, 71, 0
2, 131280, Note_on_c, 0, 72, 43
2, 131310, Note_on_c, 0, 72, 0
2, 131310, Note_on_c, 0, 71, 43
2, 131340, Note_on_c, 0, 71, 0
2, 131340, Note_on_c, 0, 72, 43
2, 131370, Note_on_c, 0, 72, 0
2, 131370, Note_on_c, 0, 71, 43
2, 131400, Note_on_c, 0, 71, 0
2, 131400, Note_on_c, 0, 69, 48
2, 131460, Note_on_c, 0, 69, 0
2, 131460, Note_on_c, 0, 71, 48
2, 131520, Note_on_c, 0, 71, 0
2, 131520, Note_on_c, 0, 74, 57
2, 131760, Note_on_c, 0, 74, 0
2, 131760, Note_on_c, 0, 72, 51
2, 131880, Note_on_c, 0, 72, 0
2, 132000, Note_on_c, 0, 69, 51
2, 132480, Note_on_c, 0, 69, 0
2, 132480, Note_on_c, 0, 72, 59
2, 132720, Note_on_c, 0, 72, 0
2, 132720, Note_on_c, 0, 71, 52
2, 132840, Note_on_c, 0, 71, 0
2, 132960, Note_on_c, 0, 74, 62
2, 133200, Note_on_c, 0, 74, 0
2, 133200, Note_on_c, 0, 72, 50
2, 133320, Note_on_c, 0, 72, 0
2, 133440, Note_on_c, 0, 76, 69
2, 133920, Note_on_c, 0, 76, 0
2, 133920, Note_on_c, 0, 74, 57
2, 134160, Note_on_c, 0, 74, 0
2, 134400, Note_on_c, 0, 74, 69
2, 134640, Note_on_c, 0, 74, 0
2, 134640, Note_on_c, 0, 67, 58
2, 134880, Note_on_c, 0, 67, 0
2, 134880, Note_on_c, 0, 67, 58
2, 135120, Note_on_c, 0, 67, 0
2, 135120, Note_on_c, 0, 69, 49
2, 135150, Note_on_c, 0, 69, 0
2, 135150, Note_on_c, 0, 68, 49
2, 135180, Note_on_c, 0, 68, 0
2, 135180, Note_on_c, 0, 69, 49
2, 135210, Note_on_c, 0, 69, 0
2, 135210, Note_on_c, 0, 68, 49
2, 135240, Note_on_c, 0, 68, 0
2, 135240, Note_on_c, 0, 66, 50
2, 135300, Note_on_c, 0, 66, 0
2, 135300, Note_on_c, 0, 68, 50
2, 135360, Note_on_c, 0, 68, 0
2, 135360, Note_on_c, 0, 69, 58
2, 135600, Note_on_c, 0, 69, 0
2, 135600, Note_on_c, 0, 72, 58
2, 135720, Note_on_c, 0, 72, 0
2, 135840, Note_on_c, 0, 76, 69
2, 136320, Note_on_c, 0, 76, 0
2, 136320, Note_on_c, 0, 74, 56
2, 136560, Note_on_c, 0, 74, 0
2, 136560, Note_on_c, 0, 67, 50
2, 136680, Note_on_c, 0, 67, 0
2, 136800, Note_on_c, 0, 72, 55
2, 137040, Note_on_c, 0, 72, 0
2, 137040, Note_on_c, 0, 66, 50
2, 137160, Note_on_c, 0, 66, 0
2, 137280, Note_on_c, 0, 69, 51
2, 137760, Note_on_c, 0, 69, 0
2, 137760, Note_on_c, 0, 67, 48
2, 138000, Note_on_c, 0, 67, 0
2, 138240, Note_on_c, 0, 74, 55
2, 138480, Note_on_c, 0, 74, 0
2, 138480, Note_on_c, 0, 71, 51
2, 138720, Note_on_c, 0, 71, 0
2, 138720, Note_on_c, 0, 71, 51
2, 138840, Note_on_c, 0, 71, 0
2, 138960, Note_on_c, 0, 72, 43
2, 138990, Note_on_c, 0, 72, 0
2, 138990, Note_on_c, 0, 71, 43
2, 139020, Note_on_c, 0, 71, 0
2, 139020, Note_on_c, 0, 72, 43
2, 139050, Note_on_c, 0, 72, 0
2, 139050, Note_on_c, 0, 71, 43
2, 139080, Note_on_c, 0, 71, 0
2, 139080, Note_on_c, 0, 69, 48
2, 139140, Note_on_c, 0, 69, 0
2, 139140, Note_on_c, 0, 71, 48
2, 139200, Note_on_c, 0, 71, 0
2, 139200, Note_on_c, 0, 74, 57
2, 139440, Note_on_c, 0, 74, 0
2, 139440, Note_on_c, 0, 72, 51
2, 139560, Note_on_c, 0, 72, 0
2, 139680, Note_on_c, 0, 69, 51
2, 140160, Note_on_c, 0, 69, 0
2, 140160, Note_on_c, 0, 72, 59
2, 140400, Note_on_c, 0, 72, 0
2, 140400, Note_on_c, 0, 71, 52
2, 140520, Note_on_c, 0, 71, 0
2, 140640, Note_on_c, 0, 74, 62
2, 140880, Note_on_c, 0, 74, 0
2, 140880, Note_on_c, 0, 72, 50
2, 141000, Note_on_c, 0, 72, 0
2, 141120, Note_on_c, 0, 76, 69
2, 141600, Note_on_c, 0, 76, 0
2, 141600, Note_on_c, 0, 74, 57
2, 141840, Note_on_c, 0, 74, 0
2, 142080, Note_on_c, 0, 74, 63
2, 142320, Note_on_c, 0, 74, 0
2, 142320, Note_on_c, 0, 72, 55
2, 142440, Note_on_c, 0, 72, 0
2, 142560, Note_on_c, 0, 76, 64
2, 142800, Note_on_c, 0, 76, 0
2, 142800, Note_on_c, 0, 74, 51
2, 142920, Note_on_c, 0, 74, 0
2, 143040, Note_on_c, 0, 77, 71
2, 143520, Note_on_c, 0, 77, 0
2, 143520, Note_on_c, 0, 76, 59
2, 143760, Note_on_c, 0, 76, 0
2, 144000, Note_on_c, 0, 76, 65
2, 144240, Note_on_c, 0, 76, 0
2, 144240, Note_on_c, 0, 74, 57
2, 144360, Note_on_c, 0, 74, 0
2, 144480, Note_on_c, 0, 77, 66
2, 144720, Note_on_c, 0, 77, 0
2, 144720, Note_on_c, 0, 76, 55
2, 144840, Note_on_c, 0, 76, 0
2, 144960, Note_on_c, 0, 79, 75
2, 145440, Note_on_c, 0, 79, 0
2, 145440, Note_on_c, 0, 77, 63
2, 145680, Note_on_c, 0, 77, 0
2, 145920, Note_on_c, 0, 76, 65
2, 146280, Note_on_c, 0, 76, 0
2, 146280, Note_on_c, 0, 77, 62
2, 146340, Note_on_c, 0, 77, 0
2, 146340, Note_on_c, 0, 79, 62
2, 146400, Note_on_c, 0, 79, 0
2, 146400, Note_on_c, 0, 77, 65
2, 146640, Note_on_c, 0, 77, 0
2, 146640, Note_on_c, 0, 76, 65
2, 146760, Note_on_c, 0, 76, 0
2, 146880, Note_on_c, 0, 74, 64
2, 147360, Note_on_c, 0, 74, 0
2, 147600, Note_on_c, 0, 79, 75
2, 147720, Note_on_c, 0, 79, 0
2, 147840, Note_on_c, 0, 77, 73
2, 148080, Note_on_c, 0, 77, 0
2, 148080, Note_on_c, 0, 75, 52
2, 148320, Note_on_c, 0, 75, 0
2, 148560, Note_on_c, 0, 72, 51
2, 148680, Note_on_c, 0, 72, 0
2, 148800, Note_on_c, 0, 71, 58
2, 149040, Note_on_c, 0, 71, 0
2, 149040, Note_on_c, 0, 74, 55
2, 149280, Note_on_c, 0, 74, 0
2, 149520, Note_on_c, 0, 79, 74
2, 149640, Note_on_c, 0, 79, 0
2, 150000, Note_on_c, 0, 77, 55
2, 150120, Note_on_c, 0, 77, 0
2, 150120, Note_on_c, 0, 75, 55
2, 150240, Note_on_c, 0, 75, 0
2, 150480, Note_on_c, 0, 74, 51
2, 150600, Note_on_c, 0, 74, 0
2, 150600, Note_on_c, 0, 72, 51
2, 150720, Note_on_c, 0, 72, 0
2, 150720, Note_on_c, 0, 71, 59
2, 150960, Note_on_c, 0, 71, 0
2, 150960, Note_on_c, 0, 74, 51
2, 151200, Note_on_c, 0, 74, 0
2, 151320, Note_on_c, 0, 79, 70
2, 151440, Note_on_c, 0, 79, 0
2, 151440, Note_on_c, 0, 78, 72
2, 151560, Note_on_c, 0, 78, 0
2, 151560, Note_on_c, 0, 79, 70
2, 151680, Note_on_c, 0, 79, 0
2, 151800, Note_on_c, 0, 75, 66
2, 151920, Note_on_c, 0, 75, 0
2, 151920, Note_on_c, 0, 74, 69
2, 152040, Note_on_c, 0, 74, 0
2, 152040, Note_on_c, 0, 75, 67
2, 152160, Note_on_c, 0, 75, 0
2, 152280, Note_on_c, 0, 72, 64
2, 152400, Note_on_c, 0, 72, 0
2, 152400, Note_on_c, 0, 71, 66
2, 152520, Note_on_c, 0, 71, 0
2, 152520, Note_on_c, 0, 72, 65
2, 152640, Note_on_c, 0, 72, 0
2, 152640, Note_on_c, 0, 71, 74
2, 152880, Note_on_c, 0, 71, 0
2, 152880, Note_on_c, 0, 74, 65
2, 153000, Note_on_c, 0, 74, 0
2, 153120, Note_on_c, 0, 71, 72
2, 153360, Note_on_c, 0, 71, 0
2, 153360, Note_on_c, 0, 74, 65
2, 153480, Note_on_c, 0, 74, 0
2, 153600, Note_on_c, 0, 71, 72
2, 153840, Note_on_c, 0, 71, 0
2, 153840, Note_on_c, 0, 74, 63
2, 153960, Note_on_c, 0, 74, 0
2, 154560, Note_on_c, 0, 74, 44
2, 154800, Note_on_c, 0, 74, 0
2, 154800, Note_on_c, 0, 77, 41
2, 154920, Note_on_c, 0, 77, 0
2, 155040, Note_on_c, 0, 74, 44
2, 155280, Note_on_c, 0, 74, 0
2, 155280, Note_on_c, 0, 77, 41
2, 155400, Note_on_c, 0, 77, 0
2, 155520, Note_on_c, 0, 74, 44
2, 155760, Note_on_c, 0, 74, 0
2, 155760, Note_on_c, 0, 77, 42
2, 155880, Note_on_c, 0, 77, 0
2, 156480, Control_c, 0, 91, 127
2, 156481, Note_on_c, 0, 76, 69
2, 156840, Note_on_c, 0, 76, 0
2, 156840, Note_on_c, 0, 77, 63
2, 156900, Note_on_c, 0, 77, 0
2, 156900, Note_on_c, 0, 79, 63
2, 156960, Note_on_c, 0, 79, 0
2, 156960, Note_on_c, 0, 72, 69
2, 157200, Note_on_c, 0, 72, 0
2, 157200, Note_on_c, 0, 71, 57
2, 157200, Note_on_c, 0, 74, 57
2, 157440, Note_on_c, 0, 74, 0
2, 157440, Note_on_c, 0, 71, 0
2, 157440, Note_on_c, 0, 71, 62
2, 157440, Note_on_c, 0, 74, 62
2, 157620, Note_on_c, 0, 77, 56
2, 157680, Note_on_c, 0, 77, 0
2, 157680, Note_on_c, 0, 74, 0
2, 157680, Note_on_c, 0, 71, 0
2, 157680, Note_on_c, 0, 72, 62
2, 157680, Note_on_c, 0, 76, 62
2, 157920, Note_on_c, 0, 76, 0
2, 157920, Note_on_c, 0, 72, 0
2, 157920, Note_on_c, 0, 71, 58
2, 157920, Note_on_c, 0, 74, 58
2, 158400, Note_on_c, 0, 74, 0
2, 158400, Note_on_c, 0, 71, 0
2, 158400, Note_on_c, 0, 76, 69
2, 158760, Note_on_c, 0, 76, 0
2, 158760, Note_on_c, 0, 77, 65
2, 158820, Note_on_c, 0, 77, 0
2, 158820, Note_on_c, 0, 79, 65
2, 158880, Note_on_c, 0, 79, 0
2, 158880, Note_on_c, 0, 72, 70
2, 159120, Note_on_c, 0, 72, 0
2, 159120, Note_on_c, 0, 71, 57
2, 159120, Note_on_c, 0, 74, 57
2, 159240, Note_on_c, 0, 74, 0
2, 159240, Note_on_c, 0, 71, 0
2, 159360, Note_on_c, 0, 74, 63
2, 159360, Note_on_c, 0, 77, 63
2, 159600, Note_on_c, 0, 77, 0
2, 159600, Note_on_c, 0, 74, 0
2, 159600, Note_on_c, 0, 77, 57
2, 159600, Note_on_c, 0, 72, 57
2, 159660, Note_on_c, 0, 77, 0
2, 159660, Note_on_c, 0, 76, 57
2, 159720, Note_on_c, 0, 76, 0
2, 159720, Note_on_c, 0, 77, 57
2, 159780, Note_on_c, 0, 77, 0
2, 159780, Note_on_c, 0, 76, 57
2, 159840, Note_on_c, 0, 76, 0
2, 159840, Note_on_c, 0, 72, 0
2, 159840, Note_on_c, 0, 71, 60
2, 159840, Note_on_c, 0, 74, 60
2, 160320, Note_on_c, 0, 74, 0
2, 160320, Note_on_c, 0, 71, 0
2, 160320, Note_on_c, 0, 77, 74
2, 160680, Note_on_c, 0, 77, 0
2, 160680, Note_on_c, 0, 79, 69
2, 160740, Note_on_c, 0, 79, 0
2, 160740, Note_on_c, 0, 77, 69
2, 160800, Note_on_c, 0, 77, 0
2, 160800, Note_on_c, 0, 76, 74
2, 161040, Note_on_c, 0, 76, 0
2, 161040, Note_on_c, 0, 76, 72
2, 161160, Note_on_c, 0, 76, 0
2, 161280, Note_on_c, 0, 81, 80
2, 161640, Note_on_c, 0, 81, 0
2, 161640, Note_on_c, 0, 83, 73
2, 161700, Note_on_c, 0, 83, 0
2, 161700, Note_on_c, 0, 84, 73
2, 161760, Note_on_c, 0, 84, 0
2, 161760, Note_on_c, 0, 79, 81
2, 162000, Note_on_c, 0, 79, 0
2, 162000, Note_on_c, 0, 79, 81
2, 162120, Note_on_c, 0, 79, 0
2, 162240, Note_on_c, 0, 79, 79
2, 162360, Note_on_c, 0, 79, 0
2, 162360, Note_on_c, 0, 77, 73
2, 162480, Note_on_c, 0, 77, 0
2, 162480, Note_on_c, 0, 77, 75
2, 162600, Note_on_c, 0, 77, 0
2, 162600, Note_on_c, 0, 74, 73
2, 162720, Note_on_c, 0, 74, 0
2, 162720, Note_on_c, 0, 77, 80
2, 162840, Note_on_c, 0, 77, 0
2, 162840, Note_on_c, 0, 76, 75
2, 162960, Note_on_c, 0, 76, 0
2, 162960, Note_on_c, 0, 76, 77
2, 163080, Note_on_c, 0, 76, 0
2, 163080, Note_on_c, 0, 72, 75
2, 163200, Note_on_c, 0, 72, 0
2, 163200, Note_on_c, 0, 73, 75
2, 163320, Note_on_c, 0, 73, 0
2, 163320, Note_on_c, 0, 74, 69
2, 163440, Note_on_c, 0, 74, 0
2, 163440, Note_on_c, 0, 76, 75
2, 163560, Note_on_c, 0, 76, 0
2, 163560, Note_on_c, 0, 74, 72
2, 163680, Note_on_c, 0, 74, 0
2, 163680, Note_on_c, 0, 72, 73
2, 163800, Note_on_c, 0, 72, 0
2, 163800, Note_on_c, 0, 71, 70
2, 163920, Note_on_c, 0, 71, 0
2, 163920, Note_on_c, 0, 69, 70
2, 164040, Note_on_c, 0, 69, 0
2, 164040, Note_on_c, 0, 67, 69
2, 164160, Note_on_c, 0, 67, 0
2, 164160, Control_c, 0, 91, 127
2, 164160, Note_on_c, 0, 76, 82
2, 164520, Note_on_c, 0, 76, 0
2, 164520, Note_on_c, 0, 77, 75
2, 164580, Note_on_c, 0, 77, 0
2, 164580, Note_on_c, 0, 79, 75
2, 164640, Note_on_c, 0, 79, 0
2, 164640, Note_on_c, 0, 72, 82
2, 164880, Note_on_c, 0, 72, 0
2, 164880, Note_on_c, 0, 71, 69
2, 164880, Note_on_c, 0, 74, 69
2, 165120, Note_on_c, 0, 74, 0
2, 165120, Note_on_c, 0, 71, 0
2, 165120, Note_on_c, 0, 71, 73
2, 165120, Note_on_c, 0, 74, 73
2, 165300, Note_on_c, 0, 77, 66
2, 165360, Note_on_c, 0, 77, 0
2, 165360, Note_on_c, 0, 74, 0
2, 165360, Note_on_c, 0, 71, 0
2, 165360, Note_on_c, 0, 72, 73
2, 165360, Note_on_c, 0, 76, 73
2, 165600, Note_on_c, 0, 76, 0
2, 165600, Note_on_c, 0, 72, 0
2, 165600, Note_on_c, 0, 71, 70
2, 165600, Note_on_c, 0, 74, 70
2, 166080, Note_on_c, 0, 74, 0
2, 166080, Note_on_c, 0, 71, 0
2, 166080, Note_on_c, 0, 76, 82
2, 166440, Note_on_c, 0, 76, 0
2, 166440, Note_on_c, 0, 77, 78
2, 166500, Note_on_c, 0, 77, 0
2, 166500, Note_on_c, 0, 79, 78
2, 166560, Note_on_c, 0, 79, 0
2, 166560, Note_on_c, 0, 72, 83
2, 166800, Note_on_c, 0, 72, 0
2, 166800, Note_on_c, 0, 71, 69
2, 166800, Note_on_c, 0, 74, 69
2, 166920, Note_on_c, 0, 74, 0
2, 166920, Note_on_c, 0, 71, 0
2, 167040, Note_on_c, 0, 74, 75
2, 167040, Note_on_c, 0, 77, 75
2, 167280, Note_on_c, 0, 77, 0
2, 167280, Note_on_c, 0, 74, 0
2, 167280, Note_on_c, 0, 77, 69
2, 167280, Note_on_c, 0, 72, 69
2, 167340, Note_on_c, 0, 77, 0
2, 167340, Note_on_c, 0, 76, 69
2, 167400, Note_on_c, 0, 76, 0
2, 167400, Note_on_c, 0, 77, 69
2, 167460, Note_on_c, 0, 77, 0
2, 167460, Note_on_c, 0, 76, 69
2, 167520, Note_on_c, 0, 76, 0
2, 167520, Note_on_c, 0, 72, 0
2, 167520, Note_on_c, 0, 71, 72
2, 167520, Note_on_c, 0, 74, 72
2, 168000, Note_on_c, 0, 74, 0
2, 168000, Note_on_c, 0, 71, 0
2, 168000, Note_on_c, 0, 77, 89
2, 168360, Note_on_c, 0, 77, 0
2, 168360, Note_on_c, 0, 79, 82
2, 168420, Note_on_c, 0, 79, 0
2, 168420, Note_on_c, 0, 77, 82
2, 168480, Note_on_c, 0, 77, 0
2, 168480, Note_on_c, 0, 76, 89
2, 168720, Note_on_c, 0, 76, 0
2, 168720, Note_on_c, 0, 76, 86
2, 168840, Note_on_c, 0, 76, 0
2, 168960, Note_on_c, 0, 81, 96
2, 169320, Note_on_c, 0, 81, 0
2, 169320, Note_on_c, 0, 83, 87
2, 169380, Note_on_c, 0, 83, 0
2, 169380, Note_on_c, 0, 84, 85
2, 169440, Note_on_c, 0, 84, 0
2, 169440, Note_on_c, 0, 79, 97
2, 169680, Note_on_c, 0, 79, 0
2, 169680, Note_on_c, 0, 79, 95
2, 169800, Note_on_c, 0, 79, 0
2, 169920, Note_on_c, 0, 80, 95
2, 170040, Note_on_c, 0, 80, 0
2, 170040, Note_on_c, 0, 81, 90
2, 170160, Note_on_c, 0, 81, 0
2, 170160, Note_on_c, 0, 77, 92
2, 170280, Note_on_c, 0, 77, 0
2, 170280, Note_on_c, 0, 74, 88
2, 170400, Note_on_c, 0, 74, 0
2, 170400, Note_on_c, 0, 72, 92
2, 170640, Note_on_c, 0, 72, 0
2, 170640, Note_on_c, 0, 71, 87
2, 170880, Note_on_c, 0, 71, 0
2, 170880, Note_on_c, 0, 72, 87
2, 170960, Note_on_c, 0, 72, 0
2, 170960, Note_on_c, 0, 67, 80
2, 171040, Note_on_c, 0, 67, 0
2, 171040, Note_on_c, 0, 76, 77
2, 171120, Note_on_c, 0, 76, 0
2, 171120, Note_on_c, 0, 72, 87
2, 171200, Note_on_c, 0, 72, 0
2, 171200, Note_on_c, 0, 79, 80
2, 171280, Note_on_c, 0, 79, 0
2, 171280, Note_on_c, 0, 76, 77
2, 171360, Note_on_c, 0, 76, 0
2, 171360, Note_on_c, 0, 84, 85
2, 171440, Note_on_c, 0, 84, 0
2, 171440, Note_on_c, 0, 83, 77
2, 171520, Note_on_c, 0, 83, 0
2, 171520, Note_on_c, 0, 81, 76
2, 171600, Note_on_c, 0, 81, 0
2, 171600, Note_on_c, 0, 79, 82
2, 171680, Note_on_c, 0, 79, 0
2, 171680, Note_on_c, 0, 77, 78
2, 171760, Note_on_c, 0, 77, 0
2, 171760, Note_on_c, 0, 76, 76
2, 171840, Note_on_c, 0, 76, 0
2, 171840, Note_on_c, 0, 73, 73
2, 171920, Note_on_c, 0, 73, 0
2, 171920, Note_on_c, 0, 74, 69
2, 172000, Note_on_c, 0, 74, 0
2, 172000, Note_on_c, 0, 77, 69
2, 172080, Note_on_c, 0, 77, 0
2, 172080, Note_on_c, 0, 81, 72
2, 172160, Note_on_c, 0, 81, 0
2, 172160, Note_on_c, 0, 77, 66
2, 172240, Note_on_c, 0, 77, 0
2, 172240, Note_on_c, 0, 74, 66
2, 172320, Note_on_c, 0, 74, 0
2, 172320, Note_on_c, 0, 79, 70
2, 172400, Note_on_c, 0, 79, 0
2, 172400, Note_on_c, 0, 76, 66
2, 172480, Note_on_c, 0, 76, 0
2, 172480, Note_on_c, 0, 72, 66
2, 172560, Note_on_c, 0, 72, 0
2, 172560, Note_on_c, 0, 77, 71
2, 172640, Note_on_c, 0, 77, 0
2, 172640, Note_on_c, 0, 74, 64
2, 172720, Note_on_c, 0, 74, 0
2, 172720, Note_on_c, 0, 71, 64
2, 172800, Note_on_c, 0, 71, 0
2, 172800, Note_on_c, 0, 72, 87
2, 172880, Note_on_c, 0, 72, 0
2, 172880, Note_on_c, 0, 67, 80
2, 172960, Note_on_c, 0, 67, 0
2, 172960, Note_on_c, 0, 76, 78
2, 173040, Note_on_c, 0, 76, 0
2, 173040, Note_on_c, 0, 72, 87
2, 173120, Note_on_c, 0, 72, 0
2, 173120, Note_on_c, 0, 79, 80
2, 173200, Note_on_c, 0, 79, 0
2, 173200, Note_on_c, 0, 76, 78
2, 173280, Note_on_c, 0, 76, 0
2, 173280, Note_on_c, 0, 84, 85
2, 173360, Note_on_c, 0, 84, 0
2, 173360, Note_on_c, 0, 83, 77
2, 173440, Note_on_c, 0, 83, 0
2, 173440, Note_on_c, 0, 81, 74
2, 173520, Note_on_c, 0, 81, 0
2, 173520, Note_on_c, 0, 79, 82
2, 173600, Note_on_c, 0, 79, 0
2, 173600, Note_on_c, 0, 77, 78
2, 173680, Note_on_c, 0, 77, 0
2, 173680, Note_on_c, 0, 76, 76
2, 173760, Note_on_c, 0, 76, 0
2, 173760, Note_on_c, 0, 73, 73
2, 173840, Note_on_c, 0, 73, 0
2, 173840, Note_on_c, 0, 74, 69
2, 173920, Note_on_c, 0, 74, 0
2, 173920, Note_on_c, 0, 77, 68
2, 174000, Note_on_c, 0, 77, 0
2, 174000, Note_on_c, 0, 81, 72
2, 174080, Note_on_c, 0, 81, 0
2, 174080, Note_on_c, 0, 77, 66
2, 174160, Note_on_c, 0, 77, 0
2, 174160, Note_on_c, 0, 74, 64
2, 174240, Note_on_c, 0, 74, 0
2, 174240, Note_on_c, 0, 79, 70
2, 174320, Note_on_c, 0, 79, 0
2, 174320, Note_on_c, 0, 76, 66
2, 174400, Note_on_c, 0, 76, 0
2, 174400, Note_on_c, 0, 72, 63
2, 174480, Note_on_c, 0, 72, 0
2, 174480, Note_on_c, 0, 77, 71
2, 174560, Note_on_c, 0, 77, 0
2, 174560, Note_on_c, 0, 74, 64
2, 174640, Note_on_c, 0, 74, 0
2, 174640, Note_on_c, 0, 71, 64
2, 174720, Note_on_c, 0, 71, 0
2, 174720, Note_on_c, 0, 72, 60
2, 174840, Note_on_c, 0, 72, 0
2, 174960, Note_on_c, 0, 67, 58
2, 175080, Note_on_c, 0, 67, 0
2, 175200, Note_on_c, 0, 60, 58
2, 175680, Note_on_c, 0, 60, 0
2, 175680, Note_on_c, 0, 76, 58
2, 176160, Note_on_c, 0, 76, 0
2, 176160, Note_on_c, 0, 77, 54
2, 176220, Note_on_c, 0, 77, 0
2, 176220, Note_on_c, 0, 76, 54
2, 176280, Note_on_c, 0, 76, 0
2, 176280, Note_on_c, 0, 74, 54
2, 176340, Note_on_c, 0, 74, 0
2, 176340, Note_on_c, 0, 76, 54
2, 176400, Note_on_c, 0, 76, 0
2, 176400, Note_on_c, 0, 79, 58
2, 176520, Note_on_c, 0, 79, 0
2, 176520, Note_on_c, 0, 77, 54
2, 176640, Note_on_c, 0, 77, 0
2, 176640, Note_on_c, 0, 76, 59
2, 176760, Note_on_c, 0, 76, 0
2, 176760, Note_on_c, 0, 74, 57
2, 176880, Note_on_c, 0, 74, 0
2, 176880, Note_on_c, 0, 72, 57
2, 177000, Note_on_c, 0, 72, 0
2, 177000, Note_on_c, 0, 71, 57
2, 177120, Note_on_c, 0, 71, 0
2, 177120, Note_on_c, 0, 72, 60
2, 177240, Note_on_c, 0, 72, 0
2, 177360, Note_on_c, 0, 73, 64
2, 177480, Note_on_c, 0, 73, 0
2, 177600, Note_on_c, 0, 74, 65
2, 177720, Note_on_c, 0, 74, 0
2, 177840, Note_on_c, 0, 75, 69
2, 177960, Note_on_c, 0, 75, 0
2, 178080, Note_on_c, 0, 76, 73
2, 178200, Note_on_c, 0, 76, 0
2, 178320, Note_on_c, 0, 79, 72
2, 178440, Note_on_c, 0, 79, 0
2, 178440, Note_on_c, 0, 77, 66
2, 178560, Note_on_c, 0, 77, 0
2, 178560, Note_on_c, 0, 76, 72
2, 178920, Note_on_c, 0, 76, 0
2, 178920, Note_on_c, 0, 77, 64
2, 178980, Note_on_c, 0, 77, 0
2, 178980, Note_on_c, 0, 76, 64
2, 179040, Note_on_c, 0, 76, 0
2, 179040, Note_on_c, 0, 74, 65
2, 179280, Note_on_c, 0, 74, 0
2, 179520, Note_on_c, 0, 77, 67
2, 180000, Note_on_c, 0, 77, 0
2, 180000, Note_on_c, 0, 79, 56
2, 180060, Note_on_c, 0, 79, 0
2, 180060, Note_on_c, 0, 77, 57
2, 180120, Note_on_c, 0, 77, 0
2, 180120, Note_on_c, 0, 76, 57
2, 180180, Note_on_c, 0, 76, 0
2, 180180, Note_on_c, 0, 77, 57
2, 180240, Note_on_c, 0, 77, 0
2, 180240, Note_on_c, 0, 81, 64
2, 180360, Note_on_c, 0, 81, 0
2, 180360, Note_on_c, 0, 79, 60
2, 180480, Note_on_c, 0, 79, 0
2, 180480, Note_on_c, 0, 77, 60
2, 180600, Note_on_c, 0, 77, 0
2, 180600, Note_on_c, 0, 76, 58
2, 180720, Note_on_c, 0, 76, 0
2, 180720, Note_on_c, 0, 74, 58
2, 180840, Note_on_c, 0, 74, 0
2, 180840, Note_on_c, 0, 72, 58
2, 180960, Note_on_c, 0, 72, 0
2, 180960, Note_on_c, 0, 71, 57
2, 181080, Note_on_c, 0, 71, 0
2, 181080, Note_on_c, 0, 72, 58
2, 181140, Note_on_c, 0, 72, 0
2, 181200, Note_on_c, 0, 74, 59
2, 181260, Note_on_c, 0, 74, 0
2, 181320, Note_on_c, 0, 76, 62
2, 181380, Note_on_c, 0, 76, 0
2, 181440, Note_on_c, 0, 77, 63
2, 181500, Note_on_c, 0, 77, 0
2, 181560, Note_on_c, 0, 79, 64
2, 181620, Note_on_c, 0, 79, 0
2, 181680, Note_on_c, 0, 81, 65
2, 181740, Note_on_c, 0, 81, 0
2, 181800, Note_on_c, 0, 83, 67
2, 181860, Note_on_c, 0, 83, 0
2, 181920, Note_on_c, 0, 84, 69
2, 181980, Note_on_c, 0, 84, 0
2, 182040, Note_on_c, 0, 86, 70
2, 182100, Note_on_c, 0, 86, 0
2, 182160, Note_on_c, 0, 88, 72
2, 182220, Note_on_c, 0, 88, 0
2, 182280, Note_on_c, 0, 89, 73
2, 182340, Note_on_c, 0, 89, 0
2, 182400, Note_on_c, 0, 87, 92
2, 182880, Note_on_c, 0, 87, 0
2, 182880, Note_on_c, 0, 88, 87
2, 183120, Note_on_c, 0, 88, 0
2, 183360, Note_on_c, 0, 70, 74
2, 183680, Note_on_c, 0, 70, 0
2, 183680, Note_on_c, 0, 76, 69
2, 183760, Note_on_c, 0, 76, 0
2, 183760, Note_on_c, 0, 79, 69
2, 183840, Note_on_c, 0, 79, 0
2, 183840, Note_on_c, 0, 82, 69
2, 183920, Note_on_c, 0, 82, 0
2, 183920, Note_on_c, 0, 79, 67
2, 184000, Note_on_c, 0, 79, 0
2, 184000, Note_on_c, 0, 76, 67
2, 184080, Note_on_c, 0, 76, 0
2, 184080, Note_on_c, 0, 79, 69
2, 184160, Note_on_c, 0, 79, 0
2, 184160, Note_on_c, 0, 76, 67
2, 184240, Note_on_c, 0, 76, 0
2, 184240, Note_on_c, 0, 70, 67
2, 184320, Note_on_c, 0, 70, 0
2, 184320, Note_on_c, 0, 69, 75
2, 184640, Note_on_c, 0, 69, 0
2, 184640, Note_on_c, 0, 72, 69
2, 184720, Note_on_c, 0, 72, 0
2, 184720, Note_on_c, 0, 77, 67
2, 184800, Note_on_c, 0, 77, 0
2, 184800, Note_on_c, 0, 81, 69
2, 184880, Note_on_c, 0, 81, 0
2, 184880, Note_on_c, 0, 77, 68
2, 184960, Note_on_c, 0, 77, 0
2, 184960, Note_on_c, 0, 72, 68
2, 185040, Note_on_c, 0, 72, 0
2, 185040, Note_on_c, 0, 77, 69
2, 185120, Note_on_c, 0, 77, 0
2, 185120, Note_on_c, 0, 72, 68
2, 185200, Note_on_c, 0, 72, 0
2, 185200, Note_on_c, 0, 69, 68
2, 185280, Note_on_c, 0, 69, 0
2, 185280, Note_on_c, 0, 67, 75
2, 185600, Note_on_c, 0, 67, 0
2, 185600, Note_on_c, 0, 73, 69
2, 185680, Note_on_c, 0, 73, 0
2, 185680, Note_on_c, 0, 76, 67
2, 185760, Note_on_c, 0, 76, 0
2, 185760, Note_on_c, 0, 79, 69
2, 185840, Note_on_c, 0, 79, 0
2, 185840, Note_on_c, 0, 76, 67
2, 185920, Note_on_c, 0, 76, 0
2, 185920, Note_on_c, 0, 73, 67
2, 186000, Note_on_c, 0, 73, 0
2, 186000, Note_on_c, 0, 76, 69
2, 186080, Note_on_c, 0, 76, 0
2, 186080, Note_on_c, 0, 73, 67
2, 186160, Note_on_c, 0, 73, 0
2, 186160, Note_on_c, 0, 67, 67
2, 186240, Note_on_c, 0, 67, 0
2, 186240, Note_on_c, 0, 66, 75
2, 186560, Note_on_c, 0, 66, 0
2, 186560, Note_on_c, 0, 69, 69
2, 186640, Note_on_c, 0, 69, 0
2, 186640, Note_on_c, 0, 74, 66
2, 186720, Note_on_c, 0, 74, 0
2, 186720, Note_on_c, 0, 78, 69
2, 186800, Note_on_c, 0, 78, 0
2, 186800, Note_on_c, 0, 74, 67
2, 186880, Note_on_c, 0, 74, 0
2, 186880, Note_on_c, 0, 69, 67
2, 186960, Note_on_c, 0, 69, 0
2, 186960, Note_on_c, 0, 74, 69
2, 187040, Note_on_c, 0, 74, 0
2, 187040, Note_on_c, 0, 69, 67
2, 187120, Note_on_c, 0, 69, 0
2, 187120, Note_on_c, 0, 66, 67
2, 187200, Note_on_c, 0, 66, 0
2, 187200, Note_on_c, 0, 65, 75
2, 187520, Note_on_c, 0, 65, 0
2, 187520, Note_on_c, 0, 71, 69
2, 187600, Note_on_c, 0, 71, 0
2, 187600, Note_on_c, 0, 74, 67
2, 187680, Note_on_c, 0, 74, 0
2, 187680, Note_on_c, 0, 77, 69
2, 187760, Note_on_c, 0, 77, 0
2, 187760, Note_on_c, 0, 74, 67
2, 187840, Note_on_c, 0, 74, 0
2, 187840, Note_on_c, 0, 71, 67
2, 187920, Note_on_c, 0, 71, 0
2, 187920, Note_on_c, 0, 74, 69
2, 188000, Note_on_c, 0, 74, 0
2, 188000, Note_on_c, 0, 71, 67
2, 188080, Note_on_c, 0, 71, 0
2, 188080, Note_on_c, 0, 65, 68
2, 188160, Note_on_c, 0, 65, 0
2, 188160, Note_on_c, 0, 64, 75
2, 188480, Note_on_c, 0, 64, 0
2, 188480, Note_on_c, 0, 67, 69
2, 188560, Note_on_c, 0, 67, 0
2, 188560, Note_on_c, 0, 72, 69
2, 188640, Note_on_c, 0, 72, 0
2, 188640, Note_on_c, 0, 76, 69
2, 188720, Note_on_c, 0, 76, 0
2, 188720, Note_on_c, 0, 72, 67
2, 188800, Note_on_c, 0, 72, 0
2, 188800, Note_on_c, 0, 67, 67
2, 188880, Note_on_c, 0, 67, 0
2, 188880, Note_on_c, 0, 72, 69
2, 188960, Note_on_c, 0, 72, 0
2, 188960, Note_on_c, 0, 67, 66
2, 189040, Note_on_c, 0, 67, 0
2, 189040, Note_on_c, 0, 64, 66
2, 189120, Note_on_c, 0, 64, 0
2, 189200, Note_on_c, 0, 62, 69
2, 189280, Note_on_c, 0, 62, 0
2, 189280, Note_on_c, 0, 69, 67
2, 189360, Note_on_c, 0, 69, 0
2, 189360, Note_on_c, 0, 74, 67
2, 189440, Note_on_c, 0, 74, 0
2, 189440, Note_on_c, 0, 69, 69
2, 189520, Note_on_c, 0, 69, 0
2, 189520, Note_on_c, 0, 62, 67
2, 189600, Note_on_c, 0, 62, 0
2, 189680, Note_on_c, 0, 62, 69
2, 189760, Note_on_c, 0, 62, 0
2, 189760, Note_on_c, 0, 69, 66
2, 189840, Note_on_c, 0, 69, 0
2, 189840, Note_on_c, 0, 72, 69
2, 189920, Note_on_c, 0, 72, 0
2, 189920, Note_on_c, 0, 69, 67
2, 190000, Note_on_c, 0, 69, 0
2, 190000, Note_on_c, 0, 62, 67
2, 190080, Note_on_c, 0, 62, 0
2, 190080, Note_on_c, 0, 71, 73
2, 190320, Note_on_c, 0, 71, 0
2, 190680, Note_on_c, 0, 79, 72
2, 190740, Note_on_c, 0, 79, 0
2, 190800, Note_on_c, 0, 81, 75
2, 190860, Note_on_c, 0, 81, 0
2, 190920, Note_on_c, 0, 83, 79
2, 190980, Note_on_c, 0, 83, 0
2, 191040, Note_on_c, 0, 84, 75
2, 191640, Note_on_c, 0, 84, 0
2, 191640, Note_on_c, 0, 83, 58
2, 191760, Note_on_c, 0, 83, 0
2, 191760, Note_on_c, 0, 81, 59
2, 191880, Note_on_c, 0, 81, 0
2, 191880, Note_on_c, 0, 79, 58
2, 192000, Note_on_c, 0, 79, 0
2, 192000, Note_on_c, 0, 79, 62
2, 192120, Note_on_c, 0, 79, 0
2, 192120, Note_on_c, 0, 77, 58
2, 192240, Note_on_c, 0, 77, 0
2, 192240, Note_on_c, 0, 76, 59
2, 192360, Note_on_c, 0, 76, 0
2, 192360, Note_on_c, 0, 74, 58
2, 192480, Note_on_c, 0, 74, 0
2, 192480, Note_on_c, 0, 79, 63
2, 192600, Note_on_c, 0, 79, 0
2, 192720, Note_on_c, 0, 77, 59
2, 192840, Note_on_c, 0, 77, 0
2, 192960, Note_on_c, 0, 75, 62
2, 193200, Note_on_c, 0, 75, 0
2, 193200, Note_on_c, 0, 76, 59
2, 193440, Note_on_c, 0, 76, 0
2, 194280, Note_on_c, 0, 79, 63
2, 194340, Note_on_c, 0, 79, 0
2, 194400, Note_on_c, 0, 80, 66
2, 194460, Note_on_c, 0, 80, 0
2, 194520, Note_on_c, 0, 81, 71
2, 194580, Note_on_c, 0, 81, 0
2, 194640, Note_on_c, 0, 82, 75
2, 194700, Note_on_c, 0, 82, 0
2, 194760, Note_on_c, 0, 83, 78
2, 194820, Note_on_c, 0, 83, 0
2, 194880, Note_on_c, 0, 84, 85
2, 195480, Note_on_c, 0, 84, 0
2, 195480, Note_on_c, 0, 83, 56
2, 195600, Note_on_c, 0, 83, 0
2, 195600, Note_on_c, 0, 81, 58
2, 195720, Note_on_c, 0, 81, 0
2, 195720, Note_on_c, 0, 79, 55
2, 195840, Note_on_c, 0, 79, 0
2, 195840, Note_on_c, 0, 79, 62
2, 195960, Note_on_c, 0, 79, 0
2, 195960, Note_on_c, 0, 77, 55
2, 196080, Note_on_c, 0, 77, 0
2, 196080, Note_on_c, 0, 76, 58
2, 196200, Note_on_c, 0, 76, 0
2, 196200, Note_on_c, 0, 74, 56
2, 196320, Note_on_c, 0, 74, 0
2, 196320, Note_on_c, 0, 79, 63
2, 196440, Note_on_c, 0, 79, 0
2, 196560, Note_on_c, 0, 77, 59
2, 196680, Note_on_c, 0, 77, 0
2, 196800, Note_on_c, 0, 76, 59
2, 197040, Note_on_c, 0, 76, 0
2, 197280, Note_on_c, 0, 83, 70
2, 197320, Note_on_c, 0, 83, 0
2, 197320, Note_on_c, 0, 81, 66
2, 197360, Note_on_c, 0, 81, 0
2, 197360, Note_on_c, 0, 83, 70
2, 197400, Note_on_c, 0, 83, 0
2, 197400, Note_on_c, 0, 81, 67
2, 197460, Note_on_c, 0, 81, 0
2, 197460, Note_on_c, 0, 83, 79
2, 197520, Note_on_c, 0, 83, 0
2, 197520, Note_on_c, 0, 84, 79
2, 197640, Note_on_c, 0, 84, 0
2, 197640, Note_on_c, 0, 84, 75
2, 197700, Note_on_c, 0, 84, 0
2, 197760, Note_on_c, 0, 84, 75
2, 198000, Note_on_c, 0, 84, 0
2, 198240, Note_on_c, 0, 88, 70
2, 198280, Note_on_c, 0, 88, 0
2, 198280, Note_on_c, 0, 86, 67
2, 198320, Note_on_c, 0, 86, 0
2, 198320, Note_on_c, 0, 88, 70
2, 198360, Note_on_c, 0, 88, 0
2, 198360, Note_on_c, 0, 86, 68
2, 198420, Note_on_c, 0, 86, 0
2, 198420, Note_on_c, 0, 88, 79
2, 198480, Note_on_c, 0, 88, 0
2, 198480, Note_on_c, 0, 89, 79
2, 198600, Note_on_c, 0, 89, 0
2, 198600, Note_on_c, 0, 89, 75
2, 198660, Note_on_c, 0, 89, 0
2, 198720, Note_on_c, 0, 89, 75
2, 198960, Note_on_c, 0, 89, 0
2, 199200, Note_on_c, 0, 79, 63
2, 199240, Note_on_c, 0, 79, 0
2, 199240, Note_on_c, 0, 77, 59
2, 199280, Note_on_c, 0, 77, 0
2, 199280, Note_on_c, 0, 79, 63
2, 199320, Note_on_c, 0, 79, 0
2, 199320, Note_on_c, 0, 77, 60
2, 199380, Note_on_c, 0, 77, 0
2, 199380, Note_on_c, 0, 79, 73
2, 199440, Note_on_c, 0, 79, 0
2, 199440, Note_on_c, 0, 81, 73
2, 199560, Note_on_c, 0, 81, 0
2, 199560, Note_on_c, 0, 81, 69
2, 199620, Note_on_c, 0, 81, 0
2, 199680, Note_on_c, 0, 81, 69
2, 199800, Note_on_c, 0, 81, 0
2, 199800, Note_on_c, 0, 79, 70
2, 199920, Note_on_c, 0, 79, 0
2, 199920, Note_on_c, 0, 77, 65
2, 199980, Note_on_c, 0, 77, 0
2, 200040, Note_on_c, 0, 76, 65
2, 200100, Note_on_c, 0, 76, 0
2, 200160, Note_on_c, 0, 74, 65
2, 200280, Note_on_c, 0, 74, 0
2, 200400, Note_on_c, 0, 79, 65
2, 200520, Note_on_c, 0, 79, 0
2, 200640, Note_on_c, 0, 77, 72
2, 200880, Note_on_c, 0, 77, 0
2, 200880, Note_on_c, 0, 76, 67
2, 201120, Note_on_c, 0, 76, 0
2, 201120, Note_on_c, 0, 71, 63
2, 201160, Note_on_c, 0, 71, 0
2, 201160, Note_on_c, 0, 69, 58
2, 201200, Note_on_c, 0, 69, 0
2, 201200, Note_on_c, 0, 71, 63
2, 201240, Note_on_c, 0, 71, 0
2, 201240, Note_on_c, 0, 69, 58
2, 201300, Note_on_c, 0, 69, 0
2, 201300, Note_on_c, 0, 71, 75
2, 201360, Note_on_c, 0, 71, 0
2, 201360, Note_on_c, 0, 72, 75
2, 201480, Note_on_c, 0, 72, 0
2, 201480, Note_on_c, 0, 72, 69
2, 201540, Note_on_c, 0, 72, 0
2, 201600, Note_on_c, 0, 72, 69
2, 201840, Note_on_c, 0, 72, 0
2, 202080, Note_on_c, 0, 76, 63
2, 202120, Note_on_c, 0, 76, 0
2, 202120, Note_on_c, 0, 74, 57
2, 202160, Note_on_c, 0, 74, 0
2, 202160, Note_on_c, 0, 76, 63
2, 202200, Note_on_c, 0, 76, 0
2, 202200, Note_on_c, 0, 74, 58
2, 202260, Note_on_c, 0, 74, 0
2, 202260, Note_on_c, 0, 76, 77
2, 202320, Note_on_c, 0, 76, 0
2, 202320, Note_on_c, 0, 77, 77
2, 202440, Note_on_c, 0, 77, 0
2, 202440, Note_on_c, 0, 77, 69
2, 202500, Note_on_c, 0, 77, 0
2, 202560, Note_on_c, 0, 77, 69
2, 202800, Note_on_c, 0, 77, 0
2, 203040, Note_on_c, 0, 79, 63
2, 203080, Note_on_c, 0, 79, 0
2, 203080, Note_on_c, 0, 77, 58
2, 203120, Note_on_c, 0, 77, 0
2, 203120, Note_on_c, 0, 79, 63
2, 203160, Note_on_c, 0, 79, 0
2, 203160, Note_on_c, 0, 77, 58
2, 203220, Note_on_c, 0, 77, 0
2, 203220, Note_on_c, 0, 79, 75
2, 203280, Note_on_c, 0, 79, 0
2, 203280, Note_on_c, 0, 81, 75
2, 203400, Note_on_c, 0, 81, 0
2, 203400, Note_on_c, 0, 81, 71
2, 203460, Note_on_c, 0, 81, 0
2, 203520, Note_on_c, 0, 81, 72
2, 203640, Note_on_c, 0, 81, 0
2, 203640, Note_on_c, 0, 79, 70
2, 203760, Note_on_c, 0, 79, 0
2, 203760, Note_on_c, 0, 77, 70
2, 203820, Note_on_c, 0, 77, 0
2, 203880, Note_on_c, 0, 76, 70
2, 203940, Note_on_c, 0, 76, 0
2, 204000, Note_on_c, 0, 76, 72
2, 204120, Note_on_c, 0, 76, 0
2, 204120, Note_on_c, 0, 74, 69
2, 204240, Note_on_c, 0, 74, 0
2, 204240, Note_on_c, 0, 72, 70
2, 204300, Note_on_c, 0, 72, 0
2, 204360, Note_on_c, 0, 71, 68
2, 204420, Note_on_c, 0, 71, 0
2, 204480, Note_on_c, 0, 79, 90
2, 204800, Note_on_c, 0, 79, 0
2, 204800, Note_on_c, 0, 76, 71
2, 204880, Note_on_c, 0, 76, 0
2, 204880, Note_on_c, 0, 72, 70
2, 204960, Note_on_c, 0, 72, 0
2, 204960, Note_on_c, 0, 71, 73
2, 205040, Note_on_c, 0, 71, 0
2, 205040, Note_on_c, 0, 74, 73
2, 205120, Note_on_c, 0, 74, 0
2, 205120, Note_on_c, 0, 67, 71
2, 205200, Note_on_c, 0, 67, 0
2, 205200, Note_on_c, 0, 72, 73
2, 205280, Note_on_c, 0, 72, 0
2, 205280, Note_on_c, 0, 76, 70
2, 205360, Note_on_c, 0, 76, 0
2, 205360, Note_on_c, 0, 67, 68
2, 205440, Note_on_c, 0, 67, 0
2, 205440, Note_on_c, 0, 74, 89
2, 205760, Note_on_c, 0, 74, 0
2, 205760, Note_on_c, 0, 71, 64
2, 205840, Note_on_c, 0, 71, 0
2, 205840, Note_on_c, 0, 67, 61
2, 205920, Note_on_c, 0, 67, 0
2, 205920, Note_on_c, 0, 66, 66
2, 206000, Note_on_c, 0, 66, 0
2, 206000, Note_on_c, 0, 67, 63
2, 206080, Note_on_c, 0, 67, 0
2, 206080, Note_on_c, 0, 62, 63
2, 206160, Note_on_c, 0, 62, 0
2, 206160, Note_on_c, 0, 65, 64
2, 206240, Note_on_c, 0, 65, 0
2, 206240, Note_on_c, 0, 67, 62
2, 206320, Note_on_c, 0, 67, 0
2, 206320, Note_on_c, 0, 62, 62
2, 206400, Note_on_c, 0, 62, 0
2, 206400, Note_on_c, 0, 79, 87
2, 206720, Note_on_c, 0, 79, 0
2, 206720, Note_on_c, 0, 76, 71
2, 206800, Note_on_c, 0, 76, 0
2, 206800, Note_on_c, 0, 72, 69
2, 206880, Note_on_c, 0, 72, 0
2, 206880, Note_on_c, 0, 71, 73
2, 206960, Note_on_c, 0, 71, 0
2, 206960, Note_on_c, 0, 74, 73
2, 207040, Note_on_c, 0, 74, 0
2, 207040, Note_on_c, 0, 67, 71
2, 207120, Note_on_c, 0, 67, 0
2, 207120, Note_on_c, 0, 72, 73
2, 207200, Note_on_c, 0, 72, 0
2, 207200, Note_on_c, 0, 76, 70
2, 207280, Note_on_c, 0, 76, 0
2, 207280, Note_on_c, 0, 67, 70
2, 207360, Note_on_c, 0, 67, 0
2, 207360, Note_on_c, 0, 74, 89
2, 207680, Note_on_c, 0, 74, 0
2, 207680, Note_on_c, 0, 71, 64
2, 207760, Note_on_c, 0, 71, 0
2, 207760, Note_on_c, 0, 67, 64
2, 207840, Note_on_c, 0, 67, 0
2, 207840, Note_on_c, 0, 66, 66
2, 207920, Note_on_c, 0, 66, 0
2, 207920, Note_on_c, 0, 67, 63
2, 208000, Note_on_c, 0, 67, 0
2, 208000, Note_on_c, 0, 62, 63
2, 208080, Note_on_c, 0, 62, 0
2, 208080, Note_on_c, 0, 65, 64
2, 208160, Note_on_c, 0, 65, 0
2, 208160, Note_on_c, 0, 67, 62
2, 208240, Note_on_c, 0, 67, 0
2, 208240, Note_on_c, 0, 62, 62
2, 208320, Note_on_c, 0, 62, 0
2, 208320, Note_on_c, 0, 64, 62
2, 208400, Note_on_c, 0, 64, 0
2, 208400, Note_on_c, 0, 60, 63
2, 208480, Note_on_c, 0, 60, 0
2, 208480, Note_on_c, 0, 64, 65
2, 208560, Note_on_c, 0, 64, 0
2, 208560, Note_on_c, 0, 67, 66
2, 208640, Note_on_c, 0, 67, 0
2, 208640, Note_on_c, 0, 64, 67
2, 208720, Note_on_c, 0, 64, 0
2, 208720, Note_on_c, 0, 67, 70
2, 208800, Note_on_c, 0, 67, 0
2, 208800, Note_on_c, 0, 72, 71
2, 208880, Note_on_c, 0, 72, 0
2, 208880, Note_on_c, 0, 67, 73
2, 208960, Note_on_c, 0, 67, 0
2, 208960, Note_on_c, 0, 72, 74
2, 209040, Note_on_c, 0, 72, 0
2, 209040, Note_on_c, 0, 76, 75
2, 209120, Note_on_c, 0, 76, 0
2, 209120, Note_on_c, 0, 72, 78
2, 209200, Note_on_c, 0, 72, 0
2, 209200, Note_on_c, 0, 76, 79
2, 209280, Note_on_c, 0, 76, 0
2, 209280, Note_on_c, 0, 79, 81
2, 209360, Note_on_c, 0, 79, 0
2, 209360, Note_on_c, 0, 76, 82
2, 209440, Note_on_c, 0, 76, 0
2, 209440, Note_on_c, 0, 79, 85
2, 209520, Note_on_c, 0, 79, 0
2, 209520, Note_on_c, 0, 82, 85
2, 209600, Note_on_c, 0, 82, 0
2, 209600, Note_on_c, 0, 79, 82
2, 209680, Note_on_c, 0, 79, 0
2, 209680, Note_on_c, 0, 76, 79
2, 209760, Note_on_c, 0, 76, 0
2, 209760, Note_on_c, 0, 72, 77
2, 209840, Note_on_c, 0, 72, 0
2, 209840, Note_on_c, 0, 70, 74
2, 209920, Note_on_c, 0, 70, 0
2, 209920, Note_on_c, 0, 67, 71
2, 210000, Note_on_c, 0, 67, 0
2, 210000, Note_on_c, 0, 72, 69
2, 210080, Note_on_c, 0, 72, 0
2, 210080, Note_on_c, 0, 70, 65
2, 210160, Note_on_c, 0, 70, 0
2, 210160, Note_on_c, 0, 68, 63
2, 210240, Note_on_c, 0, 68, 0
2, 210240, Note_on_c, 0, 69, 59
2, 210300, Note_on_c, 0, 69, 0
2, 210360, Note_on_c, 0, 81, 60
2, 210480, Note_on_c, 0, 81, 0
2, 210480, Note_on_c, 0, 80, 59
2, 210600, Note_on_c, 0, 80, 0
2, 210600, Note_on_c, 0, 81, 56
2, 210720, Note_on_c, 0, 81, 0
2, 210720, Note_on_c, 0, 80, 61
2, 210840, Note_on_c, 0, 80, 0
2, 210840, Note_on_c, 0, 81, 57
2, 210960, Note_on_c, 0, 81, 0
2, 210960, Note_on_c, 0, 80, 61
2, 211080, Note_on_c, 0, 80, 0
2, 211080, Note_on_c, 0, 81, 57
2, 211200, Note_on_c, 0, 81, 0
2, 211200, Note_on_c, 0, 72, 62
2, 211680, Note_on_c, 0, 72, 0
2, 211680, Note_on_c, 0, 74, 54
2, 211740, Note_on_c, 0, 74, 0
2, 211740, Note_on_c, 0, 72, 53
2, 211800, Note_on_c, 0, 72, 0
2, 211800, Note_on_c, 0, 71, 54
2, 211860, Note_on_c, 0, 71, 0
2, 211860, Note_on_c, 0, 72, 57
2, 211920, Note_on_c, 0, 72, 0
2, 211920, Note_on_c, 0, 76, 52
2, 211920, Note_on_c, 0, 71, 52
2, 212040, Note_on_c, 0, 76, 0
2, 212040, Note_on_c, 0, 74, 57
2, 212160, Note_on_c, 0, 74, 0
2, 212160, Note_on_c, 0, 71, 0
2, 212160, Note_on_c, 0, 72, 63
2, 212240, Note_on_c, 0, 72, 0
2, 212240, Note_on_c, 0, 67, 63
2, 212320, Note_on_c, 0, 67, 0
2, 212320, Note_on_c, 0, 72, 65
2, 212400, Note_on_c, 0, 72, 0
2, 212400, Note_on_c, 0, 76, 66
2, 212480, Note_on_c, 0, 76, 0
2, 212480, Note_on_c, 0, 72, 67
2, 212560, Note_on_c, 0, 72, 0
2, 212560, Note_on_c, 0, 76, 70
2, 212640, Note_on_c, 0, 76, 0
2, 212640, Note_on_c, 0, 79, 71
2, 212720, Note_on_c, 0, 79, 0
2, 212720, Note_on_c, 0, 76, 73
2, 212800, Note_on_c, 0, 76, 0
2, 212800, Note_on_c, 0, 79, 74
2, 212880, Note_on_c, 0, 79, 0
2, 212880, Note_on_c, 0, 84, 75
2, 212960, Note_on_c, 0, 84, 0
2, 212960, Note_on_c, 0, 86, 78
2, 213040, Note_on_c, 0, 86, 0
2, 213040, Note_on_c, 0, 84, 79
2, 213120, Note_on_c, 0, 84, 0
2, 213120, Note_on_c, 0, 82, 81
2, 213200, Note_on_c, 0, 82, 0
2, 213200, Note_on_c, 0, 81, 82
2, 213280, Note_on_c, 0, 81, 0
2, 213280, Note_on_c, 0, 79, 85
2, 213360, Note_on_c, 0, 79, 0
2, 213360, Note_on_c, 0, 77, 85
2, 213440, Note_on_c, 0, 77, 0
2, 213440, Note_on_c, 0, 76, 82
2, 213520, Note_on_c, 0, 76, 0
2, 213520, Note_on_c, 0, 74, 79
2, 213600, Note_on_c, 0, 74, 0
2, 213600, Note_on_c, 0, 72, 77
2, 213680, Note_on_c, 0, 72, 0
2, 213680, Note_on_c, 0, 74, 74
2, 213760, Note_on_c, 0, 74, 0
2, 213760, Note_on_c, 0, 72, 71
2, 213840, Note_on_c, 0, 72, 0
2, 213840, Note_on_c, 0, 70, 69
2, 213920, Note_on_c, 0, 70, 0
2, 213920, Note_on_c, 0, 69, 65
2, 214000, Note_on_c, 0, 69, 0
2, 214000, Note_on_c, 0, 68, 63
2, 214080, Note_on_c, 0, 68, 0
2, 214080, Note_on_c, 0, 69, 59
2, 214140, Note_on_c, 0, 69, 0
2, 214200, Note_on_c, 0, 81, 56
2, 214320, Note_on_c, 0, 81, 0
2, 214320, Note_on_c, 0, 80, 59
2, 214440, Note_on_c, 0, 80, 0
2, 214440, Note_on_c, 0, 81, 56
2, 214560, Note_on_c, 0, 81, 0
2, 214560, Note_on_c, 0, 80, 60
2, 214680, Note_on_c, 0, 80, 0
2, 214680, Note_on_c, 0, 81, 57
2, 214800, Note_on_c, 0, 81, 0
2, 214800, Note_on_c, 0, 80, 59
2, 214920, Note_on_c, 0, 80, 0
2, 214920, Note_on_c, 0, 81, 57
2, 215040, Note_on_c, 0, 81, 0
2, 215160, Note_on_c, 0, 84, 69
2, 215280, Note_on_c, 0, 84, 0
2, 215280, Note_on_c, 0, 83, 69
2, 215400, Note_on_c, 0, 83, 0
2, 215400, Note_on_c, 0, 84, 66
2, 215520, Note_on_c, 0, 84, 0
2, 215520, Note_on_c, 0, 83, 69
2, 215640, Note_on_c, 0, 83, 0
2, 215640, Note_on_c, 0, 84, 71
2, 215760, Note_on_c, 0, 84, 0
2, 215760, Note_on_c, 0, 83, 73
2, 215880, Note_on_c, 0, 83, 0
2, 215880, Note_on_c, 0, 84, 77
2, 216000, Note_on_c, 0, 84, 0
2, 216000, Note_on_c, 0, 84, 79
2, 216120, Note_on_c, 0, 84, 0
2, 216120, Note_on_c, 0, 79, 69
2, 216240, Note_on_c, 0, 79, 0
2, 216240, Note_on_c, 0, 79, 69
2, 216300, Note_on_c, 0, 79, 0
2, 216360, Note_on_c, 0, 79, 69
2, 216420, Note_on_c, 0, 79, 0
2, 216480, Note_on_c, 0, 81, 72
2, 216600, Note_on_c, 0, 81, 0
2, 216600, Note_on_c, 0, 79, 67
2, 216720, Note_on_c, 0, 79, 0
2, 216720, Note_on_c, 0, 77, 66
2, 216780, Note_on_c, 0, 77, 0
2, 216840, Note_on_c, 0, 76, 65
2, 216900, Note_on_c, 0, 76, 0
2, 216960, Note_on_c, 0, 76, 63
2, 217200, Note_on_c, 0, 76, 0
2, 217440, Note_on_c, 0, 76, 60
2, 217500, Note_on_c, 0, 76, 0
2, 217500, Note_on_c, 0, 74, 57
2, 217560, Note_on_c, 0, 74, 0
2, 217560, Note_on_c, 0, 76, 60
2, 217620, Note_on_c, 0, 76, 0
2, 217620, Note_on_c, 0, 74, 56
2, 217680, Note_on_c, 0, 74, 0
2, 217680, Note_on_c, 0, 76, 60
2, 217740, Note_on_c, 0, 76, 0
2, 217740, Note_on_c, 0, 74, 57
2, 217800, Note_on_c, 0, 74, 0
2, 217800, Note_on_c, 0, 72, 65
2, 217860, Note_on_c, 0, 72, 0
2, 217860, Note_on_c, 0, 74, 62
2, 217920, Note_on_c, 0, 74, 0
2, 217920, Note_on_c, 0, 72, 64
2, 218160, Note_on_c, 0, 72, 0
2, 218400, Note_on_c, 0, 67, 58
2, 218730, Note_on_c, 0, 67, 0
2, 218730, Note_on_c, 0, 71, 56
2, 218760, Note_on_c, 0, 71, 0
2, 218760, Note_on_c, 0, 69, 56
2, 218820, Note_on_c, 0, 69, 0
2, 218820, Note_on_c, 0, 67, 56
2, 218880, Note_on_c, 0, 67, 0
2, 218880, Note_on_c, 0, 79, 66
2, 219000, Note_on_c, 0, 79, 0
2, 219120, Note_on_c, 0, 77, 65
2, 219240, Note_on_c, 0, 77, 0
2, 219360, Note_on_c, 0, 76, 63
2, 219480, Note_on_c, 0, 76, 0
2, 219600, Note_on_c, 0, 74, 59
2, 219720, Note_on_c, 0, 74, 0
2, 219840, Note_on_c, 0, 72, 64
2, 220320, Note_on_c, 0, 72, 0
2, 220320, Note_on_c, 0, 67, 58
2, 220650, Note_on_c, 0, 67, 0
2, 220650, Note_on_c, 0, 71, 56
2, 220680, Note_on_c, 0, 71, 0
2, 220680, Note_on_c, 0, 69, 56
2, 220740, Note_on_c, 0, 69, 0
2, 220740, Note_on_c, 0, 67, 56
2, 220800, Note_on_c, 0, 67, 0
2, 220800, Note_on_c, 0, 79, 65
2, 220920, Note_on_c, 0, 79, 0
2, 221040, Note_on_c, 0, 77, 62
2, 221160, Note_on_c, 0, 77, 0
2, 221280, Note_on_c, 0, 76, 60
2, 221400, Note_on_c, 0, 76, 0
2, 221520, Note_on_c, 0, 74, 57
2, 221640, Note_on_c, 0, 74, 0
2, 221760, Note_on_c, 0, 72, 62
2, 222000, Note_on_c, 0, 72, 0
2, 222200, Note_on_c, 0, 67, 65
2, 222240, Note_on_c, 0, 67, 0
2, 222240, Note_on_c, 0, 79, 77
2, 222600, Note_on_c, 0, 79, 0
2, 222600, Note_on_c, 0, 77, 65
2, 222640, Note_on_c, 0, 77, 0
2, 222640, Note_on_c, 0, 76, 65
2, 222680, Note_on_c, 0, 76, 0
2, 222680, Note_on_c, 0, 74, 60
2, 222720, Note_on_c, 0, 74, 0
2, 222720, Note_on_c, 0, 72, 62
2, 222960, Note_on_c, 0, 72, 0
2, 223160, Note_on_c, 0, 67, 65
2, 223200, Note_on_c, 0, 67, 0
2, 223200, Note_on_c, 0, 79, 77
2, 223560, Note_on_c, 0, 79, 0
2, 223560, Note_on_c, 0, 81, 69
2, 223620, Note_on_c, 0, 81, 0
2, 223620, Note_on_c, 0, 83, 64
2, 223680, Note_on_c, 0, 83, 0
2, 223680, Note_on_c, 0, 84, 78
2, 223920, Note_on_c, 0, 84, 0
2, 224160, Note_on_c, 0, 79, 80
2, 224240, Note_on_c, 0, 79, 0
2, 224240, Note_on_c, 0, 81, 73
2, 224320, Note_on_c, 0, 81, 0
2, 224320, Note_on_c, 0, 79, 73
2, 224400, Note_on_c, 0, 79, 0
2, 224400, Note_on_c, 0, 77, 76
2, 224480, Note_on_c, 0, 77, 0
2, 224480, Note_on_c, 0, 76, 73
2, 224560, Note_on_c, 0, 76, 0
2, 224560, Note_on_c, 0, 74, 68
2, 224640, Note_on_c, 0, 74, 0
2, 224640, Note_on_c, 0, 72, 69
2, 224880, Note_on_c, 0, 72, 0
2, 225120, Note_on_c, 0, 78, 84
2, 225200, Note_on_c, 0, 78, 0
2, 225200, Note_on_c, 0, 79, 76
2, 225280, Note_on_c, 0, 79, 0
2, 225280, Note_on_c, 0, 80, 77
2, 225360, Note_on_c, 0, 80, 0
2, 225360, Note_on_c, 0, 81, 80
2, 225440, Note_on_c, 0, 81, 0
2, 225440, Note_on_c, 0, 82, 78
2, 225520, Note_on_c, 0, 82, 0
2, 225520, Note_on_c, 0, 83, 76
2, 225600, Note_on_c, 0, 83, 0
2, 225600, Note_on_c, 0, 84, 69
2, 225840, Note_on_c, 0, 84, 0
2, 225840, Note_on_c, 0, 67, 49
2, 226020, Note_on_c, 0, 67, 0
2, 226020, Note_on_c, 0, 72, 49
2, 226080, Note_on_c, 0, 72, 0
2, 226080, Note_on_c, 0, 76, 52
2, 226200, Note_on_c, 0, 76, 0
2, 226320, Note_on_c, 0, 65, 48
2, 226320, Note_on_c, 0, 74, 48
2, 226440, Note_on_c, 0, 74, 0
2, 226440, Note_on_c, 0, 65, 0
2, 226560, Note_on_c, 0, 65, 49
2, 226560, Note_on_c, 0, 74, 49
2, 227040, Note_on_c, 0, 74, 0
2, 227040, Note_on_c, 0, 65, 0
2, 227040, Note_on_c, 0, 64, 43
2, 227040, Note_on_c, 0, 72, 43
2, 227280, Note_on_c, 0, 72, 0
2, 227280, Note_on_c, 0, 64, 0
2, 227520, Note_on_c, 0, 81, 92
2, 227520, Note_on_c, 0, 77, 92
2, 227520, Note_on_c, 0, 74, 92
2, 227520, Note_on_c, 0, 69, 92
2, 227640, Note_on_c, 0, 69, 0
2, 227640, Note_on_c, 0, 81, 0
2, 227640, Note_on_c, 0, 77, 0
2, 227640, Note_on_c, 0, 74, 0
2, 228000, Note_on_c, 0, 62, 92
2, 228000, Note_on_c, 0, 65, 92
2, 228000, Note_on_c, 0, 67, 92
2, 228000, Note_on_c, 0, 71, 92
2, 228120, Note_on_c, 0, 71, 0
2, 228120, Note_on_c, 0, 62, 0
2, 228120, Note_on_c, 0, 65, 0
2, 228120, Note_on_c, 0, 67, 0
2, 228480, Note_on_c, 0, 67, 92
2, 228480, Note_on_c, 0, 60, 92
2, 228480, Note_on_c, 0, 64, 92
2, 228480, Note_on_c, 0, 72, 92
2, 228600, Note_on_c, 0, 72, 0
2, 228600, Note_on_c, 0, 67, 0
2, 228600, Note_on_c, 0, 60, 0
2, 228600, Note_on_c, 0, 64, 0
2, 229440, Control_c, 0, 91, 127
2, 229440, Note_on_c, 0, 74, 55
2, 229680, Note_on_c, 0, 74, 0
2, 229680, Note_on_c, 0, 71, 51
2, 229920, Note_on_c, 0, 71, 0
2, 229920, Note_on_c, 0, 71, 51
2, 230040, Note_on_c, 0, 71, 0
2, 230160, Note_on_c, 0, 72, 43
2, 230190, Note_on_c, 0, 72, 0
2, 230190, Note_on_c, 0, 71, 43
2, 230220, Note_on_c, 0, 71, 0
2, 230220, Note_on_c, 0, 72, 43
2, 230250, Note_on_c, 0, 72, 0
2, 230250, Note_on_c, 0, 71, 43
2, 230280, Note_on_c, 0, 71, 0
2, 230280, Note_on_c, 0, 69, 48
2, 230340, Note_on_c, 0, 69, 0
2, 230340, Note_on_c, 0, 71, 48
2, 230400, Note_on_c, 0, 71, 0
2, 230400, Note_on_c, 0, 74, 57
2, 230640, Note_on_c, 0, 74, 0
2, 230640, Note_on_c, 0, 72, 51
2, 230760, Note_on_c, 0, 72, 0
2, 230880, Note_on_c, 0, 69, 51
2, 231360, Note_on_c, 0, 69, 0
2, 231360, Note_on_c, 0, 72, 59
2, 231600, Note_on_c, 0, 72, 0
2, 231600, Note_on_c, 0, 71, 52
2, 231720, Note_on_c, 0, 71, 0
2, 231840, Note_on_c, 0, 74, 62
2, 232080, Note_on_c, 0, 74, 0
2, 232080, Note_on_c, 0, 72, 50
2, 232200, Note_on_c, 0, 72, 0
2, 232320, Note_on_c, 0, 76, 69
2, 232800, Note_on_c, 0, 76, 0
2, 232800, Note_on_c, 0, 74, 57
2, 233040, Note_on_c, 0, 74, 0
2, 233280, Note_on_c, 0, 74, 69
2, 233520, Note_on_c, 0, 74, 0
2, 233520, Note_on_c, 0, 67, 58
2, 233760, Note_on_c, 0, 67, 0
2, 233760, Note_on_c, 0, 67, 58
2, 234000, Note_on_c, 0, 67, 0
2, 234000, Note_on_c, 0, 69, 49
2, 234030, Note_on_c, 0, 69, 0
2, 234030, Note_on_c, 0, 68, 49
2, 234060, Note_on_c, 0, 68, 0
2, 234060, Note_on_c, 0, 69, 49
2, 234090, Note_on_c, 0, 69, 0
2, 234090, Note_on_c, 0, 68, 49
2, 234120, Note_on_c, 0, 68, 0
2, 234120, Note_on_c, 0, 66, 50
2, 234180, Note_on_c, 0, 66, 0
2, 234180, Note_on_c, 0, 68, 50
2, 234240, Note_on_c, 0, 68, 0
2, 234240, Note_on_c, 0, 69, 58
2, 234480, Note_on_c, 0, 69, 0
2, 234480, Note_on_c, 0, 72, 58
2, 234600, Note_on_c, 0, 72, 0
2, 234720, Note_on_c, 0, 76, 69
2, 235200, Note_on_c, 0, 76, 0
2, 235200, Note_on_c, 0, 74, 56
2, 235440, Note_on_c, 0, 74, 0
2, 235440, Note_on_c, 0, 67, 50
2, 235560, Note_on_c, 0, 67, 0
2, 235680, Note_on_c, 0, 72, 55
2, 235920, Note_on_c, 0, 72, 0
2, 235920, Note_on_c, 0, 66, 50
2, 236040, Note_on_c, 0, 66, 0
2, 236160, Note_on_c, 0, 69, 51
2, 236640, Note_on_c, 0, 69, 0
2, 236640, Note_on_c, 0, 67, 48
2, 236880, Note_on_c, 0, 67, 0
2, 237120, Note_on_c, 0, 74, 55
2, 237360, Note_on_c, 0, 74, 0
2, 237360, Note_on_c, 0, 71, 51
2, 237600, Note_on_c, 0, 71, 0
2, 237600, Note_on_c, 0, 71, 51
2, 237720, Note_on_c, 0, 71, 0
2, 237840, Note_on_c, 0, 72, 43
2, 237870, Note_on_c, 0, 72, 0
2, 237870, Note_on_c, 0, 71, 43
2, 237900, Note_on_c, 0, 71, 0
2, 237900, Note_on_c, 0, 72, 43
2, 237930, Note_on_c, 0, 72, 0
2, 237930, Note_on_c, 0, 71, 43
2, 237960, Note_on_c, 0, 71, 0
2, 237960, Note_on_c, 0, 69, 48
2, 238020, Note_on_c, 0, 69, 0
2, 238020, Note_on_c, 0, 71, 48
2, 238080, Note_on_c, 0, 71, 0
2, 238080, Note_on_c, 0, 74, 57
2, 238320, Note_on_c, 0, 74, 0
2, 238320, Note_on_c, 0, 72, 51
2, 238440, Note_on_c, 0, 72, 0
2, 238560, Note_on_c, 0, 69, 51
2, 239040, Note_on_c, 0, 69, 0
2, 239040, Note_on_c, 0, 72, 59
2, 239280, Note_on_c, 0, 72, 0
2, 239280, Note_on_c, 0, 71, 52
2, 239400, Note_on_c, 0, 71, 0
2, 239520, Note_on_c, 0, 74, 62
2, 239760, Note_on_c, 0, 74, 0
2, 239760, Note_on_c, 0, 72, 50
2, 239880, Note_on_c, 0, 72, 0
2, 240000, Note_on_c, 0, 76, 69
2, 240480, Note_on_c, 0, 76, 0
2, 240480, Note_on_c, 0, 74, 57
2, 240720, Note_on_c, 0, 74, 0
2, 240960, Note_on_c, 0, 74, 63
2, 241200, Note_on_c, 0, 74, 0
2, 241200, Note_on_c, 0, 72, 55
2, 241320, Note_on_c, 0, 72, 0
2, 241440, Note_on_c, 0, 76, 64
2, 241680, Note_on_c, 0, 76, 0
2, 241680, Note_on_c, 0, 74, 51
2, 241800, Note_on_c, 0, 74, 0
2, 241920, Note_on_c, 0, 77, 71
2, 242400, Note_on_c, 0, 77, 0
2, 242400, Note_on_c, 0, 76, 59
2, 242640, Note_on_c, 0, 76, 0
2, 242880, Note_on_c, 0, 76, 65
2, 243120, Note_on_c, 0, 76, 0
2, 243120, Note_on_c, 0, 74, 57
2, 243240, Note_on_c, 0, 74, 0
2, 243360, Note_on_c, 0, 77, 66
2, 243600, Note_on_c, 0, 77, 0
2, 243600, Note_on_c, 0, 76, 55
2, 243720, Note_on_c, 0, 76, 0
2, 243840, Note_on_c, 0, 79, 75
2, 244320, Note_on_c, 0, 79, 0
2, 244320, Note_on_c, 0, 77, 63
2, 244560, Note_on_c, 0, 77, 0
2, 244800, Note_on_c, 0, 76, 65
2, 245160, Note_on_c, 0, 76, 0
2, 245160, Note_on_c, 0, 77, 62
2, 245220, Note_on_c, 0, 77, 0
2, 245220, Note_on_c, 0, 79, 62
2, 245280, Note_on_c, 0, 79, 0
2, 245280, Note_on_c, 0, 77, 65
2, 245520, Note_on_c, 0, 77, 0
2, 245520, Note_on_c, 0, 76, 65
2, 245640, Note_on_c, 0, 76, 0
2, 245760, Note_on_c, 0, 74, 64
2, 246240, Note_on_c, 0, 74, 0
2, 246480, Note_on_c, 0, 79, 75
2, 246600, Note_on_c, 0, 79, 0
2, 246720, Note_on_c, 0, 77, 73
2, 246960, Note_on_c, 0, 77, 0
2, 246960, Note_on_c, 0, 75, 52
2, 247200, Note_on_c, 0, 75, 0
2, 247440, Note_on_c, 0, 72, 51
2, 247560, Note_on_c, 0, 72, 0
2, 247680, Note_on_c, 0, 71, 58
2, 247920, Note_on_c, 0, 71, 0
2, 247920, Note_on_c, 0, 74, 55
2, 248160, Note_on_c, 0, 74, 0
2, 248400, Note_on_c, 0, 79, 74
2, 248520, Note_on_c, 0, 79, 0
2, 248880, Note_on_c, 0, 77, 55
2, 249000, Note_on_c, 0, 77, 0
2, 249000, Note_on_c, 0, 75, 55
2, 249120, Note_on_c, 0, 75, 0
2, 249360, Note_on_c, 0, 74, 51
2, 249480, Note_on_c, 0, 74, 0
2, 249480, Note_on_c, 0, 72, 51
2, 249600, Note_on_c, 0, 72, 0
2, 249600, Note_on_c, 0, 71, 59
2, 249840, Note_on_c, 0, 71, 0
2, 249840, Note_on_c, 0, 74, 51
2, 250080, Note_on_c, 0, 74, 0
2, 250200, Note_on_c, 0, 79, 70
2, 250320, Note_on_c, 0, 79, 0
2, 250320, Note_on_c, 0, 78, 72
2, 250440, Note_on_c, 0, 78, 0
2, 250440, Note_on_c, 0, 79, 70
2, 250560, Note_on_c, 0, 79, 0
2, 250680, Note_on_c, 0, 75, 66
2, 250800, Note_on_c, 0, 75, 0
2, 250800, Note_on_c, 0, 74, 69
2, 250920, Note_on_c, 0, 74, 0
2, 250920, Note_on_c, 0, 75, 67
2, 251040, Note_on_c, 0, 75, 0
2, 251160, Note_on_c, 0, 72, 64
2, 251280, Note_on_c, 0, 72, 0
2, 251280, Note_on_c, 0, 71, 66
2, 251400, Note_on_c, 0, 71, 0
2, 251400, Note_on_c, 0, 72, 65
2, 251520, Note_on_c, 0, 72, 0
2, 251520, Note_on_c, 0, 71, 74
2, 251760, Note_on_c, 0, 71, 0
2, 251760, Note_on_c, 0, 74, 65
2, 251880, Note_on_c, 0, 74, 0
2, 252000, Note_on_c, 0, 71, 72
2, 252240, Note_on_c, 0, 71, 0
2, 252240, Note_on_c, 0, 74, 65
2, 252360, Note_on_c, 0, 74, 0
2, 252480, Note_on_c, 0, 71, 72
2, 252720, Note_on_c, 0, 71, 0
2, 252720, Note_on_c, 0, 74, 63
2, 252840, Note_on_c, 0, 74, 0
2, 253440, Note_on_c, 0, 74, 44
2, 253680, Note_on_c, 0, 74, 0
2, 253680, Note_on_c, 0, 77, 41
2, 253800, Note_on_c, 0, 77, 0
2, 253920, Note_on_c, 0, 74, 44
2, 254160, Note_on_c, 0, 74, 0
2, 254160, Note_on_c, 0, 77, 41
2, 254280, Note_on_c, 0, 77, 0
2, 254400, Note_on_c, 0, 74, 44
2, 254640, Note_on_c, 0, 74, 0
2, 254640, Note_on_c, 0, 77, 42
2, 254760, Note_on_c, 0, 77, 0
2, 255360, Control_c, 0, 91, 127
2, 255361, Note_on_c, 0, 76, 69
2, 255720, Note_on_c, 0, 76, 0
2, 255720, Note_on_c, 0, 77, 63
2, 255780, Note_on_c, 0, 77, 0
2, 255780, Note_on_c, 0, 79, 63
2, 255840, Note_on_c, 0, 79, 0
2, 255840, Note_on_c, 0, 72, 69
2, 256080, Note_on_c, 0, 72, 0
2, 256080, Note_on_c, 0, 71, 57
2, 256080, Note_on_c, 0, 74, 57
2, 256320, Note_on_c, 0, 74, 0
2, 256320, Note_on_c, 0, 71, 0
2, 256320, Note_on_c, 0, 71, 62
2, 256320, Note_on_c, 0, 74, 62
2, 256500, Note_on_c, 0, 77, 56
2, 256560, Note_on_c, 0, 77, 0
2, 256560, Note_on_c, 0, 74, 0
2, 256560, Note_on_c, 0, 71, 0
2, 256560, Note_on_c, 0, 72, 62
2, 256560, Note_on_c, 0, 76, 62
2, 256800, Note_on_c, 0, 76, 0
2, 256800, Note_on_c, 0, 72, 0
2, 256800, Note_on_c, 0, 71, 58
2, 256800, Note_on_c, 0, 74, 58
2, 257280, Note_on_c, 0, 74, 0
2, 257280, Note_on_c, 0, 71, 0
2, 257280, Note_on_c, 0, 76, 69
2, 257640, Note_on_c, 0, 76, 0
2, 257640, Note_on_c, 0, 77, 65
2, 257700, Note_on_c, 0, 77, 0
2, 257700, Note_on_c, 0, 79, 65
2, 257760, Note_on_c, 0, 79, 0
2, 257760, Note_on_c, 0, 72, 70
2, 258000, Note_on_c, 0, 72, 0
2, 258000, Note_on_c, 0, 71, 57
2, 258000, Note_on_c, 0, 74, 57
2, 258120, Note_on_c, 0, 74, 0
2, 258120, Note_on_c, 0, 71, 0
2, 258240, Note_on_c, 0, 74, 63
2, 258240, Note_on_c, 0, 77, 63
2, 258480, Note_on_c, 0, 77, 0
2, 258480, Note_on_c, 0, 74, 0
2, 258480, Note_on_c, 0, 77, 57
2, 258480, Note_on_c, 0, 72, 57
2, 258540, Note_on_c, 0, 77, 0
2, 258540, Note_on_c, 0, 76, 57
2, 258600, Note_on_c, 0, 76, 0
2, 258600, Note_on_c, 0, 77, 57
2, 258660, Note_on_c, 0, 77, 0
2, 258660, Note_on_c, 0, 76, 57
2, 258720, Note_on_c, 0, 76, 0
2, 258720, Note_on_c, 0, 72, 0
2, 258720, Note_on_c, 0, 71, 60
2, 258720, Note_on_c, 0, 74, 60
2, 259200, Note_on_c, 0, 74, 0
2, 259200, Note_on_c, 0, 71, 0
2, 259200, Note_on_c, 0, 77, 74
2, 259560, Note_on_c, 0, 77, 0
2, 259560, Note_on_c, 0, 79, 69
2, 259620, Note_on_c, 0, 79, 0
2, 259620, Note_on_c, 0, 77, 69
2, 259680, Note_on_c, 0, 77, 0
2, 259680, Note_on_c, 0, 76, 74
2, 259920, Note_on_c, 0, 76, 0
2, 259920, Note_on_c, 0, 76, 72
2, 260040, Note_on_c, 0, 76, 0
2, 260160, Note_on_c, 0, 81, 80
2, 260520, Note_on_c, 0, 81, 0
2, 260520, Note_on_c, 0, 83, 73
2, 260580, Note_on_c, 0, 83, 0
2, 260580, Note_on_c, 0, 84, 73
2, 260640, Note_on_c, 0, 84, 0
2, 260640, Note_on_c, 0, 79, 81
2, 260880, Note_on_c, 0, 79, 0
2, 260880, Note_on_c, 0, 79, 81
2, 261000, Note_on_c, 0, 79, 0
2, 261120, Note_on_c, 0, 79, 79
2, 261240, Note_on_c, 0, 79, 0
2, 261240, Note_on_c, 0, 77, 73
2, 261360, Note_on_c, 0, 77, 0
2, 261360, Note_on_c, 0, 77, 75
2, 261480, Note_on_c, 0, 77, 0
2, 261480, Note_on_c, 0, 74, 73
2, 261600, Note_on_c, 0, 74, 0
2, 261600, Note_on_c, 0, 77, 80
2, 261720, Note_on_c, 0, 77, 0
2, 261720, Note_on_c, 0, 76, 75
2, 261840, Note_on_c, 0, 76, 0
2, 261840, Note_on_c, 0, 76, 77
2, 261960, Note_on_c, 0, 76, 0
2, 261960, Note_on_c, 0, 72, 75
2, 262080, Note_on_c, 0, 72, 0
2, 262080, Note_on_c, 0, 73, 75
2, 262200, Note_on_c, 0, 73, 0
2, 262200, Note_on_c, 0, 74, 69
2, 262320, Note_on_c, 0, 74, 0
2, 262320, Note_on_c, 0, 76, 75
2, 262440, Note_on_c, 0, 76, 0
2, 262440, Note_on_c, 0, 74, 72
2, 262560, Note_on_c, 0, 74, 0
2, 262560, Note_on_c, 0, 72, 73
2, 262680, Note_on_c, 0, 72, 0
2, 262680, Note_on_c, 0, 71, 70
2, 262800, Note_on_c, 0, 71, 0
2, 262800, Note_on_c, 0, 69, 70
2, 262920, Note_on_c, 0, 69, 0
2, 262920, Note_on_c, 0, 67, 69
2, 263040, Note_on_c, 0, 67, 0
2, 263040, Control_c, 0, 91, 127
2, 263040, Note_on_c, 0, 76, 82
2, 263400, Note_on_c, 0, 76, 0
2, 263400, Note_on_c, 0, 77, 75
2, 263460, Note_on_c, 0, 77, 0
2, 263460, Note_on_c, 0, 79, 75
2, 263520, Note_on_c, 0, 79, 0
2, 263520, Note_on_c, 0, 72, 82
2, 263760, Note_on_c, 0, 72, 0
2, 263760, Note_on_c, 0, 71, 69
2, 263760, Note_on_c, 0, 74, 69
2, 264000, Note_on_c, 0, 74, 0
2, 264000, Note_on_c, 0, 71, 0
2, 264000, Note_on_c, 0, 71, 73
2, 264000, Note_on_c, 0, 74, 73
2, 264180, Note_on_c, 0, 77, 66
2, 264240, Note_on_c, 0, 77, 0
2, 264240, Note_on_c, 0, 74, 0
2, 264240, Note_on_c, 0, 71, 0
2, 264240, Note_on_c, 0, 72, 73
2, 264240, Note_on_c, 0, 76, 73
2, 264480, Note_on_c, 0, 76, 0
2, 264480, Note_on_c, 0, 72, 0
2, 264480, Note_on_c, 0, 71, 70
2, 264480, Note_on_c, 0, 74, 70
2, 264960, Note_on_c, 0, 74, 0
2, 264960, Note_on_c, 0, 71, 0
2, 264960, Note_on_c, 0, 76, 82
2, 265320, Note_on_c, 0, 76, 0
2, 265320, Note_on_c, 0, 77, 78
2, 265380, Note_on_c, 0, 77, 0
2, 265380, Note_on_c, 0, 79, 78
2, 265440, Note_on_c, 0, 79, 0
2, 265440, Note_on_c, 0, 72, 83
2, 265680, Note_on_c, 0, 72, 0
2, 265680, Note_on_c, 0, 71, 69
2, 265680, Note_on_c, 0, 74, 69
2, 265800, Note_on_c, 0, 74, 0
2, 265800, Note_on_c, 0, 71, 0
2, 265920, Note_on_c, 0, 74, 75
2, 265920, Note_on_c, 0, 77, 75
2, 266160, Note_on_c, 0, 77, 0
2, 266160, Note_on_c, 0, 74, 0
2, 266160, Note_on_c, 0, 77, 69
2, 266160, Note_on_c, 0, 72, 69
2, 266220, Note_on_c, 0, 77, 0
2, 266220, Note_on_c, 0, 76, 69
2, 266280, Note_on_c, 0, 76, 0
2, 266280, Note_on_c, 0, 77, 69
2, 266340, Note_on_c, 0, 77, 0
2, 266340, Note_on_c, 0, 76, 69
2, 266400, Note_on_c, 0, 76, 0
2, 266400, Note_on_c, 0, 72, 0
2, 266400, Note_on_c, 0, 71, 72
2, 266400, Note_on_c, 0, 74, 72
2, 266880, Note_on_c, 0, 74, 0
2, 266880, Note_on_c, 0, 71, 0
2, 266880, Note_on_c, 0, 77, 89
2, 267240, Note_on_c, 0, 77, 0
2, 267240, Note_on_c, 0, 79, 82
2, 267300, Note_on_c, 0, 79, 0
2, 267300, Note_on_c, 0, 77, 82
2, 267360, Note_on_c, 0, 77, 0
2, 267360, Note_on_c, 0, 76, 89
2, 267600, Note_on_c, 0, 76, 0
2, 267600, Note_on_c, 0, 76, 86
2, 267720, Note_on_c, 0, 76, 0
2, 267840, Note_on_c, 0, 81, 96
2, 268200, Note_on_c, 0, 81, 0
2, 268200, Note_on_c, 0, 83, 87
2, 268260, Note_on_c, 0, 83, 0
2, 268260, Note_on_c, 0, 84, 85
2, 268320, Note_on_c, 0, 84, 0
2, 268320, Note_on_c, 0, 79, 97
2, 268560, Note_on_c, 0, 79, 0
2, 268560, Note_on_c, 0, 79, 95
2, 268680, Note_on_c, 0, 79, 0
2, 268800, Note_on_c, 0, 80, 95
2, 268920, Note_on_c, 0, 80, 0
2, 268920, Note_on_c, 0, 81, 90
2, 269040, Note_on_c, 0, 81, 0
2, 269040, Note_on_c, 0, 77, 92
2, 269160, Note_on_c, 0, 77, 0
2, 269160, Note_on_c, 0, 74, 88
2, 269280, Note_on_c, 0, 74, 0
2, 269280, Note_on_c, 0, 72, 92
2, 269520, Note_on_c, 0, 72, 0
2, 269520, Note_on_c, 0, 71, 87
2, 269760, Note_on_c, 0, 71, 0
2, 269760, Note_on_c, 0, 72, 87
2, 269840, Note_on_c, 0, 72, 0
2, 269840, Note_on_c, 0, 67, 80
2, 269920, Note_on_c, 0, 67, 0
2, 269920, Note_on_c, 0, 76, 77
2, 270000, Note_on_c, 0, 76, 0
2, 270000, Note_on_c, 0, 72, 87
2, 270080, Note_on_c, 0, 72, 0
2, 270080, Note_on_c, 0, 79, 80
2, 270160, Note_on_c, 0, 79, 0
2, 270160, Note_on_c, 0, 76, 77
2, 270240, Note_on_c, 0, 76, 0
2, 270240, Note_on_c, 0, 84, 85
2, 270320, Note_on_c, 0, 84, 0
2, 270320, Note_on_c, 0, 83, 77
2, 270400, Note_on_c, 0, 83, 0
2, 270400, Note_on_c, 0, 81, 76
2, 270480, Note_on_c, 0, 81, 0
2, 270480, Note_on_c, 0, 79, 82
2, 270560, Note_on_c, 0, 79, 0
2, 270560, Note_on_c, 0, 77, 78
2, 270640, Note_on_c, 0, 77, 0
2, 270640, Note_on_c, 0, 76, 76
2, 270720, Note_on_c, 0, 76, 0
2, 270720, Note_on_c, 0, 73, 73
2, 270800, Note_on_c, 0, 73, 0
2, 270800, Note_on_c, 0, 74, 69
2, 270880, Note_on_c, 0, 74, 0
2, 270880, Note_on_c, 0, 77, 69
2, 270960, Note_on_c, 0, 77, 0
2, 270960, Note_on_c, 0, 81, 72
2, 271040, Note_on_c, 0, 81, 0
2, 271040, Note_on_c, 0, 77, 66
2, 271120, Note_on_c, 0, 77, 0
2, 271120, Note_on_c, 0, 74, 66
2, 271200, Note_on_c, 0, 74, 0
2, 271200, Note_on_c, 0, 79, 70
2, 271280, Note_on_c, 0, 79, 0
2, 271280, Note_on_c, 0, 76, 66
2, 271360, Note_on_c, 0, 76, 0
2, 271360, Note_on_c, 0, 72, 66
2, 271440, Note_on_c, 0, 72, 0
2, 271440, Note_on_c, 0, 77, 71
2, 271520, Note_on_c, 0, 77, 0
2, 271520, Note_on_c, 0, 74, 64
2, 271600, Note_on_c, 0, 74, 0
2, 271600, Note_on_c, 0, 71, 64
2, 271680, Note_on_c, 0, 71, 0
2, 271680, Note_on_c, 0, 72, 87
2, 271760, Note_on_c, 0, 72, 0
2, 271760, Note_on_c, 0, 67, 80
2, 271840, Note_on_c, 0, 67, 0
2, 271840, Note_on_c, 0, 76, 78
2, 271920, Note_on_c, 0, 76, 0
2, 271920, Note_on_c, 0, 72, 87
2, 272000, Note_on_c, 0, 72, 0
2, 272000, Note_on_c, 0, 79, 80
2, 272080, Note_on_c, 0, 79, 0
2, 272080, Note_on_c, 0, 76, 78
2, 272160, Note_on_c, 0, 76, 0
2, 272160, Note_on_c, 0, 84, 85
2, 272240, Note_on_c, 0, 84, 0
2, 272240, Note_on_c, 0, 83, 77
2, 272320, Note_on_c, 0, 83, 0
2, 272320, Note_on_c, 0, 81, 74
2, 272400, Note_on_c, 0, 81, 0
2, 272400, Note_on_c, 0, 79, 82
2, 272480, Note_on_c, 0, 79, 0
2, 272480, Note_on_c, 0, 77, 78
2, 272560, Note_on_c, 0, 77, 0
2, 272560, Note_on_c, 0, 76, 76
2, 272640, Note_on_c, 0, 76, 0
2, 272640, Note_on_c, 0, 73, 73
2, 272720, Note_on_c, 0, 73, 0
2, 272720, Note_on_c, 0, 74, 69
2, 272800, Note_on_c, 0, 74, 0
2, 272800, Note_on_c, 0, 77, 68
2, 272880, Note_on_c, 0, 77, 0
2, 272880, Note_on_c, 0, 81, 72
2, 272960, Note_on_c, 0, 81, 0
2, 272960, Note_on_c, 0, 77, 66
2, 273040, Note_on_c, 0, 77, 0
2, 273040, Note_on_c, 0, 74, 64
2, 273120, Note_on_c, 0, 74, 0
2, 273120, Note_on_c, 0, 79, 70
2, 273200, Note_on_c, 0, 79, 0
2, 273200, Note_on_c, 0, 76, 66
2, 273280, Note_on_c, 0, 76, 0
2, 273280, Note_on_c, 0, 72, 63
2, 273360, Note_on_c, 0, 72, 0
2, 273360, Note_on_c, 0, 77, 71
2, 273440, Note_on_c, 0, 77, 0
2, 273440, Note_on_c, 0, 74, 64
2, 273520, Note_on_c, 0, 74, 0
2, 273520, Note_on_c, 0, 71, 64
2, 273600, Note_on_c, 0, 71, 0
2, 273600, Note_on_c, 0, 72, 60
2, 273720, Note_on_c, 0, 72, 0
2, 273840, Note_on_c, 0, 67, 58
2, 273960, Note_on_c, 0, 67, 0
2, 274080, Note_on_c, 0, 60, 58
2, 274560, Note_on_c, 0, 60, 0
2, 274560, Note_on_c, 0, 76, 58
2, 275040, Note_on_c, 0, 76, 0
2, 275040, Note_on_c, 0, 77, 54
2, 275100, Note_on_c, 0, 77, 0
2, 275100, Note_on_c, 0, 76, 54
2, 275160, Note_on_c, 0, 76, 0
2, 275160, Note_on_c, 0, 74, 54
2, 275220, Note_on_c, 0, 74, 0
2, 275220, Note_on_c, 0, 76, 54
2, 275280, Note_on_c, 0, 76, 0
2, 275280, Note_on_c, 0, 79, 58
2, 275400, Note_on_c, 0, 79, 0
2, 275400, Note_on_c, 0, 77, 54
2, 275520, Note_on_c, 0, 77, 0
2, 275520, Note_on_c, 0, 76, 59
2, 275640, Note_on_c, 0, 76, 0
2, 275640, Note_on_c, 0, 74, 57
2, 275760, Note_on_c, 0, 74, 0
2, 275760, Note_on_c, 0, 72, 57
2, 275880, Note_on_c, 0, 72, 0
2, 275880, Note_on_c, 0, 71, 57
2, 276000, Note_on_c, 0, 71, 0
2, 276000, Note_on_c, 0, 72, 60
2, 276120, Note_on_c, 0, 72, 0
2, 276240, Note_on_c, 0, 73, 64
2, 276360, Note_on_c, 0, 73, 0
2, 276480, Note_on_c, 0, 74, 65
2, 276600, Note_on_c, 0, 74, 0
2, 276720, Note_on_c, 0, 75, 69
2, 276840, Note_on_c, 0, 75, 0
2, 276960, Note_on_c, 0, 76, 73
2, 277080, Note_on_c, 0, 76, 0
2, 277200, Note_on_c, 0, 79, 72
2, 277320, Note_on_c, 0, 79, 0
2, 277320, Note_on_c, 0, 77, 66
2, 277440, Note_on_c, 0, 77, 0
2, 277440, Note_on_c, 0, 76, 72
2, 277800, Note_on_c, 0, 76, 0
2, 277800, Note_on_c, 0, 77, 64
2, 277860, Note_on_c, 0, 77, 0
2, 277860, Note_on_c, 0, 76, 64
2, 277920, Note_on_c, 0, 76, 0
2, 277920, Note_on_c, 0, 74, 65
2, 278160, Note_on_c, 0, 74, 0
2, 278400, Note_on_c, 0, 77, 67
2, 278880, Note_on_c, 0, 77, 0
2, 278880, Note_on_c, 0, 79, 56
2, 278940, Note_on_c, 0, 79, 0
2, 278940, Note_on_c, 0, 77, 57
2, 279000, Note_on_c, 0, 77, 0
2, 279000, Note_on_c, 0, 76, 57
2, 279060, Note_on_c, 0, 76, 0
2, 279060, Note_on_c, 0, 77, 57
2, 279120, Note_on_c, 0, 77, 0
2, 279120, Note_on_c, 0, 81, 64
2, 279240, Note_on_c, 0, 81, 0
2, 279240, Note_on_c, 0, 79, 60
2, 279360, Note_on_c, 0, 79, 0
2, 279360, Note_on_c, 0, 77, 60
2, 279480, Note_on_c, 0, 77, 0
2, 279480, Note_on_c, 0, 76, 58
2, 279600, Note_on_c, 0, 76, 0
2, 279600, Note_on_c, 0, 74, 58
2, 279720, Note_on_c, 0, 74, 0
2, 279720, Note_on_c, 0, 72, 58
2, 279840, Note_on_c, 0, 72, 0
2, 279840, Note_on_c, 0, 71, 57
2, 279960, Note_on_c, 0, 71, 0
2, 279960, Note_on_c, 0, 72, 58
2, 280020, Note_on_c, 0, 72, 0
2, 280080, Note_on_c, 0, 74, 59
2, 280140, Note_on_c, 0, 74, 0
2, 280200, Note_on_c, 0, 76, 62
2, 280260, Note_on_c, 0, 76, 0
2, 280320, Note_on_c, 0, 77, 63
2, 280380, Note_on_c, 0, 77, 0
2, 280440, Note_on_c, 0, 79, 64
2, 280500, Note_on_c, 0, 79, 0
2, 280560, Note_on_c, 0, 81, 65
2, 280620, Note_on_c, 0, 81, 0
2, 280680, Note_on_c, 0, 83, 67
2, 280740, Note_on_c, 0, 83, 0
2, 280800, Note_on_c, 0, 84, 69
2, 280860, Note_on_c, 0, 84, 0
2, 280920, Note_on_c, 0, 86, 70
2, 280980, Note_on_c, 0, 86, 0
2, 281040, Note_on_c, 0, 88, 72
2, 281100, Note_on_c, 0, 88, 0
2, 281160, Note_on_c, 0, 89, 73
2, 281220, Note_on_c, 0, 89, 0
2, 281280, Note_on_c, 0, 87, 92
2, 281760, Note_on_c, 0, 87, 0
2, 281760, Note_on_c, 0, 88, 87
2, 282000, Note_on_c, 0, 88, 0
2, 282240, Note_on_c, 0, 70, 74
2, 282560, Note_on_c, 0, 70, 0
2, 282560, Note_on_c, 0, 76, 69
2, 282640, Note_on_c, 0, 76, 0
2, 282640, Note_on_c, 0, 79, 69
2, 282720, Note_on_c, 0, 79, 0
2, 282720, Note_on_c, 0, 82, 69
2, 282800, Note_on_c, 0, 82, 0
2, 282800, Note_on_c, 0, 79, 67
2, 282880, Note_on_c, 0, 79, 0
2, 282880, Note_on_c, 0, 76, 67
2, 282960, Note_on_c, 0, 76, 0
2, 282960, Note_on_c, 0, 79, 69
2, 283040, Note_on_c, 0, 79, 0
2, 283040, Note_on_c, 0, 76, 67
2, 283120, Note_on_c, 0, 76, 0
2, 283120, Note_on_c, 0, 70, 67
2, 283200, Note_on_c, 0, 70, 0
2, 283200, Note_on_c, 0, 69, 75
2, 283520, Note_on_c, 0, 69, 0
2, 283520, Note_on_c, 0, 72, 69
2, 283600, Note_on_c, 0, 72, 0
2, 283600, Note_on_c, 0, 77, 67
2, 283680, Note_on_c, 0, 77, 0
2, 283680, Note_on_c, 0, 81, 69
2, 283760, Note_on_c, 0, 81, 0
2, 283760, Note_on_c, 0, 77, 68
2, 283840, Note_on_c, 0, 77, 0
2, 283840, Note_on_c, 0, 72, 68
2, 283920, Note_on_c, 0, 72, 0
2, 283920, Note_on_c, 0, 77, 69
2, 284000, Note_on_c, 0, 77, 0
2, 284000, Note_on_c, 0, 72, 68
2, 284080, Note_on_c, 0, 72, 0
2, 284080, Note_on_c, 0, 69, 68
2, 284160, Note_on_c, 0, 69, 0
2, 284160, Note_on_c, 0, 67, 75
2, 284480, Note_on_c, 0, 67, 0
2, 284480, Note_on_c, 0, 73, 69
2, 284560, Note_on_c, 0, 73, 0
2, 284560, Note_on_c, 0, 76, 67
2, 284640, Note_on_c, 0, 76, 0
2, 284640, Note_on_c, 0, 79, 69
2, 284720, Note_on_c, 0, 79, 0
2, 284720, Note_on_c, 0, 76, 67
2, 284800, Note_on_c, 0, 76, 0
2, 284800, Note_on_c, 0, 73, 67
2, 284880, Note_on_c, 0, 73, 0
2, 284880, Note_on_c, 0, 76, 69
2, 284960, Note_on_c, 0, 76, 0
2, 284960, Note_on_c, 0, 73, 67
2, 285040, Note_on_c, 0, 73, 0
2, 285040, Note_on_c, 0, 67, 67
2, 285120, Note_on_c, 0, 67, 0
2, 285120, Note_on_c, 0, 66, 75
2, 285440, Note_on_c, 0, 66, 0
2, 285440, Note_on_c, 0, 69, 69
2, 285520, Note_on_c, 0, 69, 0
2, 285520, Note_on_c, 0, 74, 66
2, 285600, Note_on_c, 0, 74, 0
2, 285600, Note_on_c, 0, 78, 69
2, 285680, Note_on_c, 0, 78, 0
2, 285680, Note_on_c, 0, 74, 67
2, 285760, Note_on_c, 0, 74, 0
2, 285760, Note_on_c, 0, 69, 67
2, 285840, Note_on_c, 0, 69, 0
2, 285840, Note_on_c, 0, 74, 69
2, 285920, Note_on_c, 0, 74, 0
2, 285920, Note_on_c, 0, 69, 67
2, 286000, Note_on_c, 0, 69, 0
2, 286000, Note_on_c, 0, 66, 67
2, 286080, Note_on_c, 0, 66, 0
2, 286080, Note_on_c, 0, 65, 75
2, 286400, Note_on_c, 0, 65, 0
2, 286400, Note_on_c, 0, 71, 69
2, 286480, Note_on_c, 0, 71, 0
2, 286480, Note_on_c, 0, 74, 67
2, 286560, Note_on_c, 0, 74, 0
2, 286560, Note_on_c, 0, 77, 69
2, 286640, Note_on_c, 0, 77, 0
2, 286640, Note_on_c, 0, 74, 67
2, 286720, Note_on_c, 0, 74, 0
2, 286720, Note_on_c, 0, 71, 67
2, 286800, Note_on_c, 0, 71, 0
2, 286800, Note_on_c, 0, 74, 69
2, 286880, Note_on_c, 0, 74, 0
2, 286880, Note_on_c, 0, 71, 67
2, 286960, Note_on_c, 0, 71, 0
2, 286960, Note_on_c, 0, 65, 68
2, 287040, Note_on_c, 0, 65, 0
2, 287040, Note_on_c, 0, 64, 75
2, 287360, Note_on_c, 0, 64, 0
2, 287360, Note_on_c, 0, 67, 69
2, 287440, Note_on_c, 0, 67, 0
2, 287440, Note_on_c, 0, 72, 69
2, 287520, Note_on_c, 0, 72, 0
2, 287520, Note_on_c, 0, 76, 69
2, 287600, Note_on_c, 0, 76, 0
2, 287600, Note_on_c, 0, 72, 67
2, 287680, Note_on_c, 0, 72, 0
2, 287680, Note_on_c, 0, 67, 67
2, 287760, Note_on_c, 0, 67, 0
2, 287760, Note_on_c, 0, 72, 69
2, 287840, Note_on_c, 0, 72, 0
2, 287840, Note_on_c, 0, 67, 66
2, 287920, Note_on_c, 0, 67, 0
2, 287920, Note_on_c, 0, 64, 66
2, 288000, Note_on_c, 0, 64, 0
2, 288080, Note_on_c, 0, 62, 69
2, 288160, Note_on_c, 0, 62, 0
2, 288160, Note_on_c, 0, 69, 67
2, 288240, Note_on_c, 0, 69, 0
2, 288240, Note_on_c, 0, 74, 67
2, 288320, Note_on_c, 0, 74, 0
2, 288320, Note_on_c, 0, 69, 69
2, 288400, Note_on_c, 0, 69, 0
2, 288400, Note_on_c, 0, 62, 67
2, 288480, Note_on_c, 0, 62, 0
2, 288560, Note_on_c, 0, 62, 69
2, 288640, Note_on_c, 0, 62, 0
2, 288640, Note_on_c, 0, 69, 66
2, 288720, Note_on_c, 0, 69, 0
2, 288720, Note_on_c, 0, 72, 69
2, 288800, Note_on_c, 0, 72, 0
2, 288800, Note_on_c, 0, 69, 67
2, 288880, Note_on_c, 0, 69, 0
2, 288880, Note_on_c, 0, 62, 67
2, 288960, Note_on_c, 0, 62, 0
2, 288960, Note_on_c, 0, 71, 73
2, 289200, Note_on_c, 0, 71, 0
2, 289560, Note_on_c, 0, 79, 72
2, 289620, Note_on_c, 0, 79, 0
2, 289680, Note_on_c, 0, 81, 75
2, 289740, Note_on_c, 0, 81, 0
2, 289800, Note_on_c, 0, 83, 79
2, 289860, Note_on_c, 0, 83, 0
2, 289920, Note_on_c, 0, 84, 75
2, 290520, Note_on_c, 0, 84, 0
2, 290520, Note_on_c, 0, 83, 58
2, 290640, Note_on_c, 0, 83, 0
2, 290640, Note_on_c, 0, 81, 59
2, 290760, Note_on_c, 0, 81, 0
2, 290760, Note_on_c, 0, 79, 58
2, 290880, Note_on_c, 0, 79, 0
2, 290880, Note_on_c, 0, 79, 62
2, 291000, Note_on_c, 0, 79, 0
2, 291000, Note_on_c, 0, 77, 58
2, 291120, Note_on_c, 0, 77, 0
2, 291120, Note_on_c, 0, 76, 59
2, 291240, Note_on_c, 0, 76, 0
2, 291240, Note_on_c, 0, 74, 58
2, 291360, Note_on_c, 0, 74, 0
2, 291360, Note_on_c, 0, 79, 63
2, 291480, Note_on_c, 0, 79, 0
2, 291600, Note_on_c, 0, 77, 59
2, 291720, Note_on_c, 0, 77, 0
2, 291840, Note_on_c, 0, 75, 62
2, 292080, Note_on_c, 0, 75, 0
2, 292080, Note_on_c, 0, 76, 59
2, 292320, Note_on_c, 0, 76, 0
2, 293160, Note_on_c, 0, 79, 63
2, 293220, Note_on_c, 0, 79, 0
2, 293280, Note_on_c, 0, 80, 66
2, 293340, Note_on_c, 0, 80, 0
2, 293400, Note_on_c, 0, 81, 71
2, 293460, Note_on_c, 0, 81, 0
2, 293520, Note_on_c, 0, 82, 75
2, 293580, Note_on_c, 0, 82, 0
2, 293640, Note_on_c, 0, 83, 78
2, 293700, Note_on_c, 0, 83, 0
2, 293760, Note_on_c, 0, 84, 85
2, 294360, Note_on_c, 0, 84, 0
2, 294360, Note_on_c, 0, 83, 56
2, 294480, Note_on_c, 0, 83, 0
2, 294480, Note_on_c, 0, 81, 58
2, 294600, Note_on_c, 0, 81, 0
2, 294600, Note_on_c, 0, 79, 55
2, 294720, Note_on_c, 0, 79, 0
2, 294720, Note_on_c, 0, 79, 62
2, 294840, Note_on_c, 0, 79, 0
2, 294840, Note_on_c, 0, 77, 55
2, 294960, Note_on_c, 0, 77, 0
2, 294960, Note_on_c, 0, 76, 58
2, 295080, Note_on_c, 0, 76, 0
2, 295080, Note_on_c, 0, 74, 56
2, 295200, Note_on_c, 0, 74, 0
2, 295200, Note_on_c, 0, 79, 63
2, 295320, Note_on_c, 0, 79, 0
2, 295440, Note_on_c, 0, 77, 59
2, 295560, Note_on_c, 0, 77, 0
2, 295680, Note_on_c, 0, 76, 59
2, 295920, Note_on_c, 0, 76, 0
2, 296160, Note_on_c, 0, 83, 70
2, 296200, Note_on_c, 0, 83, 0
2, 296200, Note_on_c, 0, 81, 66
2, 296240, Note_on_c, 0, 81, 0
2, 296240, Note_on_c, 0, 83, 70
2, 296280, Note_on_c, 0, 83, 0
2, 296280, Note_on_c, 0, 81, 67
2, 296340, Note_on_c, 0, 81, 0
2, 296340, Note_on_c, 0, 83, 79
2, 296400, Note_on_c, 0, 83, 0
2, 296400, Note_on_c, 0, 84, 79
2, 296520, Note_on_c, 0, 84, 0
2, 296520, Note_on_c, 0, 84, 75
2, 296580, Note_on_c, 0, 84, 0
2, 296640, Note_on_c, 0, 84, 75
2, 296880, Note_on_c, 0, 84, 0
2, 297120, Note_on_c, 0, 88, 70
2, 297160, Note_on_c, 0, 88, 0
2, 297160, Note_on_c, 0, 86, 67
2, 297200, Note_on_c, 0, 86, 0
2, 297200, Note_on_c, 0, 88, 70
2, 297240, Note_on_c, 0, 88, 0
2, 297240, Note_on_c, 0, 86, 68
2, 297300, Note_on_c, 0, 86, 0
2, 297300, Note_on_c, 0, 88, 79
2, 297360, Note_on_c, 0, 88, 0
2, 297360, Note_on_c, 0, 89, 79
2, 297480, Note_on_c, 0, 89, 0
2, 297480, Note_on_c, 0, 89, 75
2, 297540, Note_on_c, 0, 89, 0
2, 297600, Note_on_c, 0, 89, 75
2, 297840, Note_on_c, 0, 89, 0
2, 298080, Note_on_c, 0, 79, 63
2, 298120, Note_on_c, 0, 79, 0
2, 298120, Note_on_c, 0, 77, 59
2, 298160, Note_on_c, 0, 77, 0
2, 298160, Note_on_c, 0, 79, 63
2, 298200, Note_on_c, 0, 79, 0
2, 298200, Note_on_c, 0, 77, 60
2, 298260, Note_on_c, 0, 77, 0
2, 298260, Note_on_c, 0, 79, 73
2, 298320, Note_on_c, 0, 79, 0
2, 298320, Note_on_c, 0, 81, 73
2, 298440, Note_on_c, 0, 81, 0
2, 298440, Note_on_c, 0, 81, 69
2, 298500, Note_on_c, 0, 81, 0
2, 298560, Note_on_c, 0, 81, 69
2, 298680, Note_on_c, 0, 81, 0
2, 298680, Note_on_c, 0, 79, 70
2, 298800, Note_on_c, 0, 79, 0
2, 298800, Note_on_c, 0, 77, 65
2, 298860, Note_on_c, 0, 77, 0
2, 298920, Note_on_c, 0, 76, 65
2, 298980, Note_on_c, 0, 76, 0
2, 299040, Note_on_c, 0, 74, 65
2, 299160, Note_on_c, 0, 74, 0
2, 299280, Note_on_c, 0, 79, 65
2, 299400, Note_on_c, 0, 79, 0
2, 299520, Note_on_c, 0, 77, 72
2, 299760, Note_on_c, 0, 77, 0
2, 299760, Note_on_c, 0, 76, 67
2, 300000, Note_on_c, 0, 76, 0
2, 300000, Note_on_c, 0, 71, 63
2, 300040, Note_on_c, 0, 71, 0
2, 300040, Note_on_c, 0, 69, 58
2, 300080, Note_on_c, 0, 69, 0
2, 300080, Note_on_c, 0, 71, 63
2, 300120, Note_on_c, 0, 71, 0
2, 300120, Note_on_c, 0, 69, 58
2, 300180, Note_on_c, 0, 69, 0
2, 300180, Note_on_c, 0, 71, 75
2, 300240, Note_on_c, 0, 71, 0
2, 300240, Note_on_c, 0, 72, 75
2, 300360, Note_on_c, 0, 72, 0
2, 300360, Note_on_c, 0, 72, 69
2, 300420, Note_on_c, 0, 72, 0
2, 300480, Note_on_c, 0, 72, 69
2, 300720, Note_on_c, 0, 72, 0
2, 300960, Note_on_c, 0, 76, 63
2, 301000, Note_on_c, 0, 76, 0
2, 301000, Note_on_c, 0, 74, 57
2, 301040, Note_on_c, 0, 74, 0
2, 301040, Note_on_c, 0, 76, 63
2, 301080, Note_on_c, 0, 76, 0
2, 301080, Note_on_c, 0, 74, 58
2, 301140, Note_on_c, 0, 74, 0
2, 301140, Note_on_c, 0, 76, 77
2, 301200, Note_on_c, 0, 76, 0
2, 301200, Note_on_c, 0, 77, 77
2, 301320, Note_on_c, 0, 77, 0
2, 301320, Note_on_c, 0, 77, 69
2, 301380, Note_on_c, 0, 77, 0
2, 301440, Note_on_c, 0, 77, 69
2, 301680, Note_on_c, 0, 77, 0
2, 301920, Note_on_c, 0, 79, 63
2, 301960, Note_on_c, 0, 79, 0
2, 301960, Note_on_c, 0, 77, 58
2, 302000, Note_on_c, 0, 77, 0
2, 302000, Note_on_c, 0, 79, 63
2, 302040, Note_on_c, 0, 79, 0
2, 302040, Note_on_c, 0, 77, 58
2, 302100, Note_on_c, 0, 77, 0
2, 302100, Note_on_c, 0, 79, 75
2, 302160, Note_on_c, 0, 79, 0
2, 302160, Note_on_c, 0, 81, 75
2, 302280, Note_on_c, 0, 81, 0
2, 302280, Note_on_c, 0, 81, 71
2, 302340, Note_on_c, 0, 81, 0
2, 302400, Note_on_c, 0, 81, 72
2, 302520, Note_on_c, 0, 81, 0
2, 302520, Note_on_c, 0, 79, 70
2, 302640, Note_on_c, 0, 79, 0
2, 302640, Note_on_c, 0, 77, 70
2, 302700, Note_on_c, 0, 77, 0
2, 302760, Note_on_c, 0, 76, 70
2, 302820, Note_on_c, 0, 76, 0
2, 302880, Note_on_c, 0, 76, 72
2, 303000, Note_on_c, 0, 76, 0
2, 303000, Note_on_c, 0, 74, 69
2, 303120, Note_on_c, 0, 74, 0
2, 303120, Note_on_c, 0, 72, 70
2, 303180, Note_on_c, 0, 72, 0
2, 303240, Note_on_c, 0, 71, 68
2, 303300, Note_on_c, 0, 71, 0
2, 303360, Note_on_c, 0, 79, 90
2, 303680, Note_on_c, 0, 79, 0
2, 303680, Note_on_c, 0, 76, 71
2, 303760, Note_on_c, 0, 76, 0
2, 303760, Note_on_c, 0, 72, 70
2, 303840, Note_on_c, 0, 72, 0
2, 303840, Note_on_c, 0, 71, 73
2, 303920, Note_on_c, 0, 71, 0
2, 303920, Note_on_c, 0, 74, 73
2, 304000, Note_on_c, 0, 74, 0
2, 304000, Note_on_c, 0, 67, 71
2, 304080, Note_on_c, 0, 67, 0
2, 304080, Note_on_c, 0, 72, 73
2, 304160, Note_on_c, 0, 72, 0
2, 304160, Note_on_c, 0, 76, 70
2, 304240, Note_on_c, 0, 76, 0
2, 304240, Note_on_c, 0, 67, 68
2, 304320, Note_on_c, 0, 67, 0
2, 304320, Note_on_c, 0, 74, 89
2, 304640, Note_on_c, 0, 74, 0
2, 304640, Note_on_c, 0, 71, 64
2, 304720, Note_on_c, 0, 71, 0
2, 304720, Note_on_c, 0, 67, 61
2, 304800, Note_on_c, 0, 67, 0
2, 304800, Note_on_c, 0, 66, 66
2, 304880, Note_on_c, 0, 66, 0
2, 304880, Note_on_c, 0, 67, 63
2, 304960, Note_on_c, 0, 67, 0
2, 304960, Note_on_c, 0, 62, 63
2, 305040, Note_on_c, 0, 62, 0
2, 305040, Note_on_c, 0, 65, 64
2, 305120, Note_on_c, 0, 65, 0
2, 305120, Note_on_c, 0, 67, 62
2, 305200, Note_on_c, 0, 67, 0
2, 305200, Note_on_c, 0, 62, 62
2, 305280, Note_on_c, 0, 62, 0
2, 305280, Note_on_c, 0, 79, 87
2, 305600, Note_on_c, 0, 79, 0
2, 305600, Note_on_c, 0, 76, 71
2, 305680, Note_on_c, 0, 76, 0
2, 305680, Note_on_c, 0, 72, 69
2, 305760, Note_on_c, 0, 72, 0
2, 305760, Note_on_c, 0, 71, 73
2, 305840, Note_on_c, 0, 71, 0
2, 305840, Note_on_c, 0, 74, 73
2, 305920, Note_on_c, 0, 74, 0
2, 305920, Note_on_c, 0, 67, 71
2, 306000, Note_on_c, 0, 67, 0
2, 306000, Note_on_c, 0, 72, 73
2, 306080, Note_on_c, 0, 72, 0
2, 306080, Note_on_c, 0, 76, 70
2, 306160, Note_on_c, 0, 76, 0
2, 306160, Note_on_c, 0, 67, 70
2, 306240, Note_on_c, 0, 67, 0
2, 306240, Note_on_c, 0, 74, 89
2, 306560, Note_on_c, 0, 74, 0
2, 306560, Note_on_c, 0, 71, 64
2, 306640, Note_on_c, 0, 71, 0
2, 306640, Note_on_c, 0, 67, 64
2, 306720, Note_on_c, 0, 67, 0
2, 306720, Note_on_c, 0, 66, 66
2, 306800, Note_on_c, 0, 66, 0
2, 306800, Note_on_c, 0, 67, 63
2, 306880, Note_on_c, 0, 67, 0
2, 306880, Note_on_c, 0, 62, 63
2, 306960, Note_on_c, 0, 62, 0
2, 306960, Note_on_c, 0, 65, 64
2, 307040, Note_on_c, 0, 65, 0
2, 307040, Note_on_c, 0, 67, 62
2, 307120, Note_on_c, 0, 67, 0
2, 307120, Note_on_c, 0, 62, 62
2, 307200, Note_on_c, 0, 62, 0
2, 307200, Note_on_c, 0, 64, 62
2, 307280, Note_on_c, 0, 64, 0
2, 307280, Note_on_c, 0, 60, 63
2, 307360, Note_on_c, 0, 60, 0
2, 307360, Note_on_c, 0, 64, 65
2, 307440, Note_on_c, 0, 64, 0
2, 307440, Note_on_c, 0, 67, 66
2, 307520, Note_on_c, 0, 67, 0
2, 307520, Note_on_c, 0, 64, 67
2, 307600, Note_on_c, 0, 64, 0
2, 307600, Note_on_c, 0, 67, 70
2, 307680, Note_on_c, 0, 67, 0
2, 307680, Note_on_c, 0, 72, 71
2, 307760, Note_on_c, 0, 72, 0
2, 307760, Note_on_c, 0, 67, 73
2, 307840, Note_on_c, 0, 67, 0
2, 307840, Note_on_c, 0, 72, 74
2, 307920, Note_on_c, 0, 72, 0
2, 307920, Note_on_c, 0, 76, 75
2, 308000, Note_on_c, 0, 76, 0
2, 308000, Note_on_c, 0, 72, 78
2, 308080, Note_on_c, 0, 72, 0
2, 308080, Note_on_c, 0, 76, 79
2, 308160, Note_on_c, 0, 76, 0
2, 308160, Note_on_c, 0, 79, 81
2, 308240, Note_on_c, 0, 79, 0
2, 308240, Note_on_c, 0, 76, 82
2, 308320, Note_on_c, 0, 76, 0
2, 308320, Note_on_c, 0, 79, 85
2, 308400, Note_on_c, 0, 79, 0
2, 308400, Note_on_c, 0, 82, 85
2, 308480, Note_on_c, 0, 82, 0
2, 308480, Note_on_c, 0, 79, 82
2, 308560, Note_on_c, 0, 79, 0
2, 308560, Note_on_c, 0, 76, 79
2, 308640, Note_on_c, 0, 76, 0
2, 308640, Note_on_c, 0, 72, 77
2, 308720, Note_on_c, 0, 72, 0
2, 308720, Note_on_c, 0, 70, 74
2, 308800, Note_on_c, 0, 70, 0
2, 308800, Note_on_c, 0, 67, 71
2, 308880, Note_on_c, 0, 67, 0
2, 308880, Note_on_c, 0, 72, 69
2, 308960, Note_on_c, 0, 72, 0
2, 308960, Note_on_c, 0, 70, 65
2, 309040, Note_on_c, 0, 70, 0
2, 309040, Note_on_c, 0, 68, 63
2, 309120, Note_on_c, 0, 68, 0
2, 309120, Note_on_c, 0, 69, 59
2, 309180, Note_on_c, 0, 69, 0
2, 309240, Note_on_c, 0, 81, 60
2, 309360, Note_on_c, 0, 81, 0
2, 309360, Note_on_c, 0, 80, 59
2, 309480, Note_on_c, 0, 80, 0
2, 309480, Note_on_c, 0, 81, 56
2, 309600, Note_on_c, 0, 81, 0
2, 309600, Note_on_c, 0, 80, 61
2, 309720, Note_on_c, 0, 80, 0
2, 309720, Note_on_c, 0, 81, 57
2, 309840, Note_on_c, 0, 81, 0
2, 309840, Note_on_c, 0, 80, 61
2, 309960, Note_on_c, 0, 80, 0
2, 309960, Note_on_c, 0, 81, 57
2, 310080, Note_on_c, 0, 81, 0
2, 310080, Note_on_c, 0, 72, 62
2, 310560, Note_on_c, 0, 72, 0
2, 310560, Note_on_c, 0, 74, 54
2, 310620, Note_on_c, 0, 74, 0
2, 310620, Note_on_c, 0, 72, 53
2, 310680, Note_on_c, 0, 72, 0
2, 310680, Note_on_c, 0, 71, 54
2, 310740, Note_on_c, 0, 71, 0
2, 310740, Note_on_c, 0, 72, 57
2, 310800, Note_on_c, 0, 72, 0
2, 310800, Note_on_c, 0, 76, 52
2, 310800, Note_on_c, 0, 71, 52
2, 310920, Note_on_c, 0, 76, 0
2, 310920, Note_on_c, 0, 74, 57
2, 311040, Note_on_c, 0, 74, 0
2, 311040, Note_on_c, 0, 71, 0
2, 311040, Note_on_c, 0, 72, 63
2, 311120, Note_on_c, 0, 72, 0
2, 311120, Note_on_c, 0, 67, 63
2, 311200, Note_on_c, 0, 67, 0
2, 311200, Note_on_c, 0, 72, 65
2, 311280, Note_on_c, 0, 72, 0
2, 311280, Note_on_c, 0, 76, 66
2, 311360, Note_on_c, 0, 76, 0
2, 311360, Note_on_c, 0, 72, 67
2, 311440, Note_on_c, 0, 72, 0
2, 311440, Note_on_c, 0, 76, 70
2, 311520, Note_on_c, 0, 76, 0
2, 311520, Note_on_c, 0, 79, 71
2, 311600, Note_on_c, 0, 79, 0
2, 311600, Note_on_c, 0, 76, 73
2, 311680, Note_on_c, 0, 76, 0
2, 311680, Note_on_c, 0, 79, 74
2, 311760, Note_on_c, 0, 79, 0
2, 311760, Note_on_c, 0, 84, 75
2, 311840, Note_on_c, 0, 84, 0
2, 311840, Note_on_c, 0, 86, 78
2, 311920, Note_on_c, 0, 86, 0
2, 311920, Note_on_c, 0, 84, 79
2, 312000, Note_on_c, 0, 84, 0
2, 312000, Note_on_c, 0, 82, 81
2, 312080, Note_on_c, 0, 82, 0
2, 312080, Note_on_c, 0, 81, 82
2, 312160, Note_on_c, 0, 81, 0
2, 312160, Note_on_c, 0, 79, 85
2, 312240, Note_on_c, 0, 79, 0
2, 312240, Note_on_c, 0, 77, 85
2, 312320, Note_on_c, 0, 77, 0
2, 312320, Note_on_c, 0, 76, 82
2, 312400, Note_on_c, 0, 76, 0
2, 312400, Note_on_c, 0, 74, 79
2, 312480, Note_on_c, 0, 74, 0
2, 312480, Note_on_c, 0, 72, 77
2, 312560, Note_on_c, 0, 72, 0
2, 312560, Note_on_c, 0, 74, 74
2, 312640, Note_on_c, 0, 74, 0
2, 312640, Note_on_c, 0, 72, 71
2, 312720, Note_on_c, 0, 72, 0
2, 312720, Note_on_c, 0, 70, 69
2, 312800, Note_on_c, 0, 70, 0
2, 312800, Note_on_c, 0, 69, 65
2, 312880, Note_on_c, 0, 69, 0
2, 312880, Note_on_c, 0, 68, 63
2, 312960, Note_on_c, 0, 68, 0
2, 312960, Note_on_c, 0, 69, 59
2, 313020, Note_on_c, 0, 69, 0
2, 313080, Note_on_c, 0, 81, 56
2, 313200, Note_on_c, 0, 81, 0
2, 313200, Note_on_c, 0, 80, 59
2, 313320, Note_on_c, 0, 80, 0
2, 313320, Note_on_c, 0, 81, 56
2, 313440, Note_on_c, 0, 81, 0
2, 313440, Note_on_c, 0, 80, 60
2, 313560, Note_on_c, 0, 80, 0
2, 313560, Note_on_c, 0, 81, 57
2, 313680, Note_on_c, 0, 81, 0
2, 313680, Note_on_c, 0, 80, 59
2, 313800, Note_on_c, 0, 80, 0
2, 313800, Note_on_c, 0, 81, 57
2, 313920, Note_on_c, 0, 81, 0
2, 314040, Note_on_c, 0, 84, 69
2, 314160, Note_on_c, 0, 84, 0
2, 314160, Note_on_c, 0, 83, 69
2, 314280, Note_on_c, 0, 83, 0
2, 314280, Note_on_c, 0, 84, 66
2, 314400, Note_on_c, 0, 84, 0
2, 314400, Note_on_c, 0, 83, 69
2, 314520, Note_on_c, 0, 83, 0
2, 314520, Note_on_c, 0, 84, 71
2, 314640, Note_on_c, 0, 84, 0
2, 314640, Note_on_c, 0, 83, 73
2, 314760, Note_on_c, 0, 83, 0
2, 314760, Note_on_c, 0, 84, 77
2, 314880, Note_on_c, 0, 84, 0
2, 314880, Note_on_c, 0, 84, 79
2, 315000, Note_on_c, 0, 84, 0
2, 315000, Note_on_c, 0, 79, 69
2, 315120, Note_on_c, 0, 79, 0
2, 315120, Note_on_c, 0, 79, 69
2, 315180, Note_on_c, 0, 79, 0
2, 315240, Note_on_c, 0, 79, 69
2, 315300, Note_on_c, 0, 79, 0
2, 315360, Note_on_c, 0, 81, 72
2, 315480, Note_on_c, 0, 81, 0
2, 315480, Note_on_c, 0, 79, 67
2, 315600, Note_on_c, 0, 79, 0
2, 315600, Note_on_c, 0, 77, 66
2, 315660, Note_on_c, 0, 77, 0
2, 315720, Note_on_c, 0, 76, 65
2, 315780, Note_on_c, 0, 76, 0
2, 315840, Note_on_c, 0, 76, 63
2, 316080, Note_on_c, 0, 76, 0
2, 316320, Note_on_c, 0, 76, 60
2, 316380, Note_on_c, 0, 76, 0
2, 316380, Note_on_c, 0, 74, 57
2, 316440, Note_on_c, 0, 74, 0
2, 316440, Note_on_c, 0, 76, 60
2, 316500, Note_on_c, 0, 76, 0
2, 316500, Note_on_c, 0, 74, 56
2, 316560, Note_on_c, 0, 74, 0
2, 316560, Note_on_c, 0, 76, 60
2, 316620, Note_on_c, 0, 76, 0
2, 316620, Note_on_c, 0, 74, 57
2, 316680, Note_on_c, 0, 74, 0
2, 316680, Note_on_c, 0, 72, 65
2, 316740, Note_on_c, 0, 72, 0
2, 316740, Note_on_c, 0, 74, 62
2, 316800, Note_on_c, 0, 74, 0
2, 316800, Note_on_c, 0, 72, 64
2, 317040, Note_on_c, 0, 72, 0
2, 317280, Note_on_c, 0, 67, 58
2, 317610, Note_on_c, 0, 67, 0
2, 317610, Note_on_c, 0, 71, 56
2, 317640, Note_on_c, 0, 71, 0
2, 317640, Note_on_c, 0, 69, 56
2, 317700, Note_on_c, 0, 69, 0
2, 317700, Note_on_c, 0, 67, 56
2, 317760, Note_on_c, 0, 67, 0
2, 317760, Note_on_c, 0, 79, 66
2, 317880, Note_on_c, 0, 79, 0
2, 318000, Note_on_c, 0, 77, 65
2, 318120, Note_on_c, 0, 77, 0
2, 318240, Note_on_c, 0, 76, 63
2, 318360, Note_on_c, 0, 76, 0
2, 318480, Note_on_c, 0, 74, 59
2, 318600, Note_on_c, 0, 74, 0
2, 318720, Note_on_c, 0, 72, 64
2, 319200, Note_on_c, 0, 72, 0
2, 319200, Note_on_c, 0, 67, 58
2, 319530, Note_on_c, 0, 67, 0
2, 319530, Note_on_c, 0, 71, 56
2, 319560, Note_on_c, 0, 71, 0
2, 319560, Note_on_c, 0, 69, 56
2, 319620, Note_on_c, 0, 69, 0
2, 319620, Note_on_c, 0, 67, 56
2, 319680, Note_on_c, 0, 67, 0
2, 319680, Note_on_c, 0, 79, 65
2, 319800, Note_on_c, 0, 79, 0
2, 319920, Note_on_c, 0, 77, 62
2, 320040, Note_on_c, 0, 77, 0
2, 320160, Note_on_c, 0, 76, 60
2, 320280, Note_on_c, 0, 76, 0
2, 320400, Note_on_c, 0, 74, 57
2, 320520, Note_on_c, 0, 74, 0
2, 320640, Note_on_c, 0, 72, 62
2, 320880, Note_on_c, 0, 72, 0
2, 321080, Note_on_c, 0, 67, 65
2, 321120, Note_on_c, 0, 67, 0
2, 321120, Note_on_c, 0, 79, 77
2, 321480, Note_on_c, 0, 79, 0
2, 321480, Note_on_c, 0, 77, 65
2, 321520, Note_on_c, 0, 77, 0
2, 321520, Note_on_c, 0, 76, 65
2, 321560, Note_on_c, 0, 76, 0
2, 321560, Note_on_c, 0, 74, 60
2, 321600, Note_on_c, 0, 74, 0
2, 321600, Note_on_c, 0, 72, 62
2, 321840, Note_on_c, 0, 72, 0
2, 322040, Note_on_c, 0, 67, 65
2, 322080, Note_on_c, 0, 67, 0
2, 322080, Note_on_c, 0, 79, 77
2, 322440, Note_on_c, 0, 79, 0
2, 322440, Note_on_c, 0, 81, 69
2, 322500, Note_on_c, 0, 81, 0
2, 322500, Note_on_c, 0, 83, 64
2, 322560, Note_on_c, 0, 83, 0
2, 322560, Note_on_c, 0, 84, 78
2, 322800, Note_on_c, 0, 84, 0
2, 323040, Note_on_c, 0, 79, 80
2, 323120, Note_on_c, 0, 79, 0
2, 323120, Note_on_c, 0, 81, 73
2, 323200, Note_on_c, 0, 81, 0
2, 323200, Note_on_c, 0, 79, 73
2, 323280, Note_on_c, 0, 79, 0
2, 323280, Note_on_c, 0, 77, 76
2, 323360, Note_on_c, 0, 77, 0
2, 323360, Note_on_c, 0, 76, 73
2, 323440, Note_on_c, 0, 76, 0
2, 323440, Note_on_c, 0, 74, 68
2, 323520, Note_on_c, 0, 74, 0
2, 323520, Note_on_c, 0, 72, 69
2, 323760, Note_on_c, 0, 72, 0
2, 324000, Note_on_c, 0, 78, 84
2, 324080, Note_on_c, 0, 78, 0
2, 324080, Note_on_c, 0, 79, 76
2, 324160, Note_on_c, 0, 79, 0
2, 324160, Note_on_c, 0, 80, 77
2, 324240, Note_on_c, 0, 80, 0
2, 324240, Note_on_c, 0, 81, 80
2, 324320, Note_on_c, 0, 81, 0
2, 324320, Note_on_c, 0, 82, 78
2, 324400, Note_on_c, 0, 82, 0
2, 324400, Note_on_c, 0, 83, 76
2, 324480, Note_on_c, 0, 83, 0
2, 324480, Note_on_c, 0, 84, 69
2, 324720, Note_on_c, 0, 84, 0
2, 324720, Note_on_c, 0, 67, 49
2, 324900, Note_on_c, 0, 67, 0
2, 324900, Note_on_c, 0, 72, 49
2, 324960, Note_on_c, 0, 72, 0
2, 324960, Note_on_c, 0, 76, 52
2, 325080, Note_on_c, 0, 76, 0
2, 325200, Note_on_c, 0, 65, 48
2, 325200, Note_on_c, 0, 74, 48
2, 325320, Note_on_c, 0, 74, 0
2, 325320, Note_on_c, 0, 65, 0
2, 325440, Note_on_c, 0, 65, 49
2, 325440, Note_on_c, 0, 74, 49
2, 325920, Note_on_c, 0, 74, 0
2, 325920, Note_on_c, 0, 65, 0
2, 325920, Note_on_c, 0, 64, 43
2, 325920, Note_on_c, 0, 72, 43
2, 326160, Note_on_c, 0, 72, 0
2, 326160, Note_on_c, 0, 64, 0
2, 326400, Note_on_c, 0, 81, 92
2, 326400, Note_on_c, 0, 77, 92
2, 326400, Note_on_c, 0, 74, 92
2, 326400, Note_on_c, 0, 69, 92
2, 326520, Note_on_c, 0, 69, 0
2, 326520, Note_on_c, 0, 81, 0
2, 326520, Note_on_c, 0, 77, 0
2, 326520, Note_on_c, 0, 74, 0
2, 326880, Note_on_c, 0, 62, 92
2, 326880, Note_on_c, 0, 65, 92
2, 326880, Note_on_c, 0, 67, 92
2, 326880, Note_on_c, 0, 71, 92
2, 327000, Note_on_c, 0, 71, 0
2, 327000, Note_on_c, 0, 62, 0
2, 327000, Note_on_c, 0, 65, 0
2, 327000, Note_on_c, 0, 67, 0
2, 327360, Note_on_c, 0, 67, 92
2, 327360, Note_on_c, 0, 60, 92
2, 327360, Note_on_c, 0, 64, 92
2, 327360, Note_on_c, 0, 72, 92
2, 327480, Note_on_c, 0, 72, 0
2, 327480, Note_on_c, 0, 67, 0
2, 327480, Note_on_c, 0, 60, 0
2, 327480, Note_on_c, 0, 64, 0
2, 327480, End_track
3, 0, Start_track
3, 0, MIDI_port, 0
3, 0, Title_t, "Piano left"
3, 0, Program_c, 0, 0
3, 0, Control_c, 0, 7, 100
3, 0, Control_c, 0, 10, 64
3, 0, Control_c, 0, 91, 127
3, 0, Control_c, 0, 64, 0
3, 0, Control_c, 0, 64, 0
3, 240, Note_on_c, 0, 48, 51
3, 480, Note_on_c, 0, 48, 0
3, 480, Note_on_c, 0, 52, 51
3, 720, Note_on_c, 0, 52, 0
3, 720, Note_on_c, 0, 55, 51
3, 960, Note_on_c, 0, 55, 0
3, 960, Note_on_c, 0, 60, 54
3, 1200, Note_on_c, 0, 60, 0
3, 1200, Note_on_c, 0, 48, 51
3, 1440, Note_on_c, 0, 48, 0
3, 1440, Note_on_c, 0, 55, 54
3, 1680, Note_on_c, 0, 55, 0
3, 1680, Note_on_c, 0, 43, 50
3, 1920, Note_on_c, 0, 43, 0
3, 2160, Note_on_c, 0, 48, 51
3, 2400, Note_on_c, 0, 48, 0
3, 2400, Note_on_c, 0, 52, 51
3, 2640, Note_on_c, 0, 52, 0
3, 2640, Note_on_c, 0, 55, 54
3, 2880, Note_on_c, 0, 55, 0
3, 2880, Note_on_c, 0, 60, 55
3, 3120, Note_on_c, 0, 60, 0
3, 3120, Note_on_c, 0, 48, 52
3, 3360, Note_on_c, 0, 48, 0
3, 3360, Note_on_c, 0, 55, 54
3, 3600, Note_on_c, 0, 55, 0
3, 3600, Note_on_c, 0, 43, 52
3, 3840, Note_on_c, 0, 43, 0
3, 3840, Note_on_c, 0, 57, 58
3, 4080, Note_on_c, 0, 57, 0
3, 4080, Note_on_c, 0, 60, 57
3, 4320, Note_on_c, 0, 60, 0
3, 4320, Note_on_c, 0, 55, 60
3, 4560, Note_on_c, 0, 55, 0
3, 4560, Note_on_c, 0, 60, 56
3, 4800, Note_on_c, 0, 60, 0
3, 4800, Note_on_c, 0, 53, 60
3, 5040, Note_on_c, 0, 53, 0
3, 5040, Note_on_c, 0, 60, 58
3, 5280, Note_on_c, 0, 60, 0
3, 5280, Note_on_c, 0, 52, 62
3, 5520, Note_on_c, 0, 52, 0
3, 5520, Note_on_c, 0, 60, 57
3, 5760, Note_on_c, 0, 60, 0
3, 5760, Control_c, 0, 64, 127
3, 6000, Note_on_c, 0, 67, 54
3, 6000, Note_on_c, 0, 59, 54
3, 6233, Control_c, 0, 64, 0
3, 6240, Note_on_c, 0, 59, 0
3, 6240, Note_on_c, 0, 67, 0
3, 6240, Note_on_c, 0, 60, 54
3, 6240, Note_on_c, 0, 67, 54
3, 6289, Control_c, 0, 64, 127
3, 6395, Control_c, 0, 64, 0
3, 6480, Note_on_c, 0, 67, 0
3, 6480, Note_on_c, 0, 60, 0
3, 6720, Note_on_c, 0, 59, 55
3, 6720, Note_on_c, 0, 55, 55
3, 7200, Note_on_c, 0, 55, 0
3, 7200, Note_on_c, 0, 59, 0
3, 7680, Note_on_c, 0, 36, 79
3, 7705, Control_c, 0, 64, 127
3, 7800, Note_on_c, 0, 36, 0
3, 7800, Note_on_c, 0, 40, 68
3, 7913, Control_c, 0, 64, 0
3, 7920, Note_on_c, 0, 40, 0
3, 7920, Note_on_c, 0, 43, 69
3, 7934, Control_c, 0, 64, 127
3, 8040, Note_on_c, 0, 43, 0
3, 8040, Note_on_c, 0, 48, 68
3, 8149, Control_c, 0, 64, 0
3, 8160, Note_on_c, 0, 48, 0
3, 8160, Note_on_c, 0, 40, 74
3, 8280, Note_on_c, 0, 40, 0
3, 8280, Note_on_c, 0, 52, 69
3, 8400, Note_on_c, 0, 52, 0
3, 8400, Note_on_c, 0, 43, 74
3, 8520, Note_on_c, 0, 43, 0
3, 8520, Note_on_c, 0, 55, 69
3, 8640, Note_on_c, 0, 55, 0
3, 8640, Note_on_c, 0, 48, 74
3, 8760, Note_on_c, 0, 48, 0
3, 8760, Note_on_c, 0, 52, 67
3, 8880, Note_on_c, 0, 52, 0
3, 8880, Note_on_c, 0, 55, 69
3, 9000, Note_on_c, 0, 55, 0
3, 9000, Note_on_c, 0, 60, 68
3, 9120, Note_on_c, 0, 60, 0
3, 9120, Note_on_c, 0, 43, 74
3, 9155, Control_c, 0, 64, 127
3, 9240, Note_on_c, 0, 43, 0
3, 9240, Note_on_c, 0, 47, 69
3, 9360, Note_on_c, 0, 47, 0
3, 9360, Note_on_c, 0, 50, 73
3, 9480, Note_on_c, 0, 50, 0
3, 9480, Note_on_c, 0, 55, 69
3, 9600, Note_on_c, 0, 55, 0
3, 9600, Control_c, 0, 64, 0
3, 9600, Note_on_c, 0, 36, 74
3, 9646, Control_c, 0, 64, 127
3, 9720, Note_on_c, 0, 36, 0
3, 9720, Note_on_c, 0, 40, 68
3, 9840, Note_on_c, 0, 40, 0
3, 9840, Note_on_c, 0, 43, 69
3, 9960, Note_on_c, 0, 43, 0
3, 9960, Note_on_c, 0, 48, 67
3, 10062, Control_c, 0, 64, 0
3, 10080, Note_on_c, 0, 48, 0
3, 10080, Note_on_c, 0, 40, 74
3, 10200, Note_on_c, 0, 40, 0
3, 10200, Note_on_c, 0, 52, 69
3, 10320, Note_on_c, 0, 52, 0
3, 10320, Note_on_c, 0, 43, 72
3, 10440, Note_on_c, 0, 43, 0
3, 10440, Note_on_c, 0, 55, 69
3, 10560, Note_on_c, 0, 55, 0
3, 10560, Note_on_c, 0, 48, 75
3, 10680, Note_on_c, 0, 48, 0
3, 10680, Note_on_c, 0, 52, 67
3, 10800, Note_on_c, 0, 52, 0
3, 10800, Note_on_c, 0, 55, 69
3, 10920, Note_on_c, 0, 55, 0
3, 10920, Note_on_c, 0, 60, 68
3, 11040, Note_on_c, 0, 60, 0
3, 11040, Note_on_c, 0, 43, 77
3, 11072, Control_c, 0, 64, 127
3, 11160, Note_on_c, 0, 43, 0
3, 11160, Note_on_c, 0, 47, 68
3, 11280, Note_on_c, 0, 47, 0
3, 11280, Note_on_c, 0, 50, 69
3, 11400, Note_on_c, 0, 50, 0
3, 11400, Note_on_c, 0, 55, 68
3, 11449, Control_c, 0, 64, 0
3, 11520, Note_on_c, 0, 55, 0
3, 11520, Note_on_c, 0, 57, 65
3, 11640, Note_on_c, 0, 57, 0
3, 11640, Note_on_c, 0, 60, 60
3, 11760, Note_on_c, 0, 60, 0
3, 11760, Note_on_c, 0, 57, 65
3, 11880, Note_on_c, 0, 57, 0
3, 11880, Note_on_c, 0, 60, 60
3, 12000, Note_on_c, 0, 60, 0
3, 12000, Note_on_c, 0, 55, 65
3, 12120, Note_on_c, 0, 55, 0
3, 12120, Note_on_c, 0, 60, 62
3, 12240, Note_on_c, 0, 60, 0
3, 12240, Note_on_c, 0, 55, 65
3, 12360, Note_on_c, 0, 55, 0
3, 12360, Note_on_c, 0, 60, 62
3, 12480, Note_on_c, 0, 60, 0
3, 12480, Note_on_c, 0, 53, 69
3, 12600, Note_on_c, 0, 53, 0
3, 12600, Note_on_c, 0, 60, 65
3, 12720, Note_on_c, 0, 60, 0
3, 12720, Note_on_c, 0, 53, 69
3, 12840, Note_on_c, 0, 53, 0
3, 12840, Note_on_c, 0, 60, 65
3, 12960, Note_on_c, 0, 60, 0
3, 12960, Note_on_c, 0, 52, 69
3, 13080, Note_on_c, 0, 52, 0
3, 13080, Note_on_c, 0, 60, 65
3, 13200, Note_on_c, 0, 60, 0
3, 13200, Note_on_c, 0, 52, 69
3, 13320, Note_on_c, 0, 52, 0
3, 13320, Note_on_c, 0, 60, 64
3, 13440, Note_on_c, 0, 60, 0
3, 13680, Note_on_c, 0, 62, 60
3, 13680, Note_on_c, 0, 53, 60
3, 13800, Note_on_c, 0, 53, 0
3, 13800, Note_on_c, 0, 62, 0
3, 13920, Note_on_c, 0, 64, 60
3, 13920, Note_on_c, 0, 55, 60
3, 14160, Note_on_c, 0, 64, 0
3, 14160, Note_on_c, 0, 62, 60
3, 14400, Note_on_c, 0, 62, 0
3, 14400, Note_on_c, 0, 55, 0
3, 14400, Note_on_c, 0, 64, 60
3, 14400, Note_on_c, 0, 60, 60
3, 14880, Note_on_c, 0, 60, 0
3, 14880, Note_on_c, 0, 64, 0
3, 15600, Note_on_c, 0, 62, 48
3, 15600, Note_on_c, 0, 53, 48
3, 15600, Note_on_c, 0, 57, 48
3, 15840, Note_on_c, 0, 57, 0
3, 15840, Note_on_c, 0, 53, 0
3, 15840, Note_on_c, 0, 62, 0
3, 15840, Note_on_c, 0, 64, 48
3, 15840, Note_on_c, 0, 55, 48
3, 16080, Note_on_c, 0, 64, 0
3, 16080, Note_on_c, 0, 62, 55
3, 16320, Note_on_c, 0, 62, 0
3, 16320, Note_on_c, 0, 55, 0
3, 16320, Note_on_c, 0, 60, 60
3, 16320, Note_on_c, 0, 64, 60
3, 16800, Note_on_c, 0, 64, 0
3, 16800, Note_on_c, 0, 60, 0
3, 17520, Note_on_c, 0, 57, 48
3, 17520, Note_on_c, 0, 62, 48
3, 17520, Note_on_c, 0, 53, 48
3, 17760, Note_on_c, 0, 53, 0
3, 17760, Note_on_c, 0, 62, 0
3, 17760, Note_on_c, 0, 57, 0
3, 17760, Note_on_c, 0, 55, 48
3, 17760, Note_on_c, 0, 64, 48
3, 18000, Note_on_c, 0, 64, 0
3, 18000, Note_on_c, 0, 62, 51
3, 18240, Note_on_c, 0, 62, 0
3, 18240, Note_on_c, 0, 55, 0
3, 18240, Note_on_c, 0, 60, 47
3, 18240, Note_on_c, 0, 64, 47
3, 18360, Note_on_c, 0, 64, 0
3, 18360, Note_on_c, 0, 60, 0
3, 18480, Note_on_c, 0, 55, 47
3, 18600, Note_on_c, 0, 55, 0
3, 18720, Note_on_c, 0, 48, 47
3, 19200, Note_on_c, 0, 48, 0
3, 19200, Note_on_c, 0, 60, 46
3, 19204, Control_c, 0, 64, 127
3, 19320, Note_on_c, 0, 60, 0
3, 19320, Note_on_c, 0, 67, 38
3, 19440, Note_on_c, 0, 67, 0
3, 19440, Note_on_c, 0, 66, 42
3, 19560, Note_on_c, 0, 66, 0
3, 19560, Note_on_c, 0, 67, 38
3, 19669, Control_c, 0, 64, 0
3, 19680, Note_on_c, 0, 67, 0
3, 19680, Note_on_c, 0, 60, 46
3, 19691, Control_c, 0, 64, 127
3, 19800, Note_on_c, 0, 60, 0
3, 19800, Note_on_c, 0, 67, 38
3, 19885, Control_c, 0, 64, 0
3, 19920, Note_on_c, 0, 67, 0
3, 19920, Note_on_c, 0, 62, 42
3, 20040, Note_on_c, 0, 62, 0
3, 20040, Note_on_c, 0, 67, 38
3, 20160, Note_on_c, 0, 67, 0
3, 20160, Note_on_c, 0, 64, 46
3, 20280, Note_on_c, 0, 64, 0
3, 20280, Note_on_c, 0, 67, 38
3, 20400, Note_on_c, 0, 67, 0
3, 20400, Note_on_c, 0, 65, 42
3, 20520, Note_on_c, 0, 65, 0
3, 20520, Note_on_c, 0, 67, 38
3, 20640, Note_on_c, 0, 67, 0
3, 20640, Note_on_c, 0, 64, 46
3, 20760, Note_on_c, 0, 64, 0
3, 20760, Note_on_c, 0, 67, 38
3, 20880, Note_on_c, 0, 67, 0
3, 20880, Note_on_c, 0, 58, 42
3, 21000, Note_on_c, 0, 58, 0
3, 21000, Note_on_c, 0, 67, 39
3, 21120, Note_on_c, 0, 67, 0
3, 21120, Note_on_c, 0, 59, 48
3, 21240, Note_on_c, 0, 59, 0
3, 21240, Note_on_c, 0, 67, 39
3, 21360, Note_on_c, 0, 67, 0
3, 21360, Note_on_c, 0, 59, 44
3, 21480, Note_on_c, 0, 59, 0
3, 21480, Note_on_c, 0, 67, 40
3, 21600, Note_on_c, 0, 67, 0
3, 21600, Note_on_c, 0, 60, 52
3, 21720, Note_on_c, 0, 60, 0
3, 21720, Note_on_c, 0, 67, 42
3, 21840, Note_on_c, 0, 67, 0
3, 21840, Note_on_c, 0, 60, 46
3, 21960, Note_on_c, 0, 60, 0
3, 21960, Note_on_c, 0, 67, 42
3, 22080, Note_on_c, 0, 67, 0
3, 22080, Note_on_c, 0, 60, 50
3, 22101, Control_c, 0, 64, 127
3, 22200, Note_on_c, 0, 60, 0
3, 22200, Note_on_c, 0, 67, 38
3, 22320, Note_on_c, 0, 67, 0
3, 22320, Note_on_c, 0, 66, 42
3, 22412, Control_c, 0, 64, 0
3, 22440, Note_on_c, 0, 66, 0
3, 22440, Note_on_c, 0, 67, 38
3, 22560, Note_on_c, 0, 67, 0
3, 22560, Note_on_c, 0, 59, 46
3, 22680, Note_on_c, 0, 59, 0
3, 22680, Note_on_c, 0, 67, 39
3, 22800, Note_on_c, 0, 67, 0
3, 22800, Note_on_c, 0, 66, 42
3, 22920, Note_on_c, 0, 66, 0
3, 22920, Note_on_c, 0, 67, 40
3, 23040, Note_on_c, 0, 67, 0
3, 23040, Note_on_c, 0, 59, 46
3, 23079, Control_c, 0, 64, 127
3, 23160, Note_on_c, 0, 59, 0
3, 23160, Note_on_c, 0, 67, 39
3, 23280, Note_on_c, 0, 67, 0
3, 23280, Note_on_c, 0, 66, 42
3, 23400, Note_on_c, 0, 66, 0
3, 23400, Note_on_c, 0, 67, 39
3, 23520, Note_on_c, 0, 67, 0
3, 23520, Note_on_c, 0, 59, 46
3, 23527, Control_c, 0, 64, 0
3, 23548, Control_c, 0, 64, 127
3, 23640, Note_on_c, 0, 59, 0
3, 23640, Note_on_c, 0, 67, 39
3, 23742, Control_c, 0, 64, 0
3, 23760, Note_on_c, 0, 67, 0
3, 23760, Note_on_c, 0, 60, 42
3, 23778, Control_c, 0, 64, 127
3, 23880, Note_on_c, 0, 60, 0
3, 23880, Note_on_c, 0, 67, 39
3, 23961, Control_c, 0, 64, 0
3, 24000, Note_on_c, 0, 67, 0
3, 24000, Note_on_c, 0, 62, 46
3, 24120, Note_on_c, 0, 62, 0
3, 24120, Note_on_c, 0, 67, 39
3, 24240, Note_on_c, 0, 67, 0
3, 24240, Note_on_c, 0, 64, 42
3, 24360, Note_on_c, 0, 64, 0
3, 24360, Note_on_c, 0, 67, 39
3, 24480, Note_on_c, 0, 67, 0
3, 24480, Note_on_c, 0, 65, 46
3, 24600, Note_on_c, 0, 65, 0
3, 24600, Note_on_c, 0, 67, 40
3, 24720, Note_on_c, 0, 67, 0
3, 24720, Note_on_c, 0, 62, 43
3, 24840, Note_on_c, 0, 62, 0
3, 24840, Note_on_c, 0, 67, 39
3, 24960, Note_on_c, 0, 67, 0
3, 24960, Note_on_c, 0, 59, 51
3, 25080, Note_on_c, 0, 59, 0
3, 25080, Note_on_c, 0, 67, 39
3, 25200, Note_on_c, 0, 67, 0
3, 25200, Note_on_c, 0, 62, 43
3, 25320, Note_on_c, 0, 62, 0
3, 25320, Note_on_c, 0, 67, 39
3, 25440, Note_on_c, 0, 67, 0
3, 25440, Note_on_c, 0, 59, 57
3, 25560, Note_on_c, 0, 59, 0
3, 25560, Note_on_c, 0, 67, 44
3, 25680, Note_on_c, 0, 67, 0
3, 25680, Note_on_c, 0, 55, 46
3, 25800, Note_on_c, 0, 55, 0
3, 25800, Note_on_c, 0, 67, 44
3, 25920, Note_on_c, 0, 67, 0
3, 25920, Note_on_c, 0, 60, 55
3, 25984, Control_c, 0, 64, 127
3, 26040, Note_on_c, 0, 60, 0
3, 26040, Note_on_c, 0, 67, 46
3, 26160, Note_on_c, 0, 67, 0
3, 26160, Note_on_c, 0, 65, 50
3, 26280, Note_on_c, 0, 65, 0
3, 26280, Note_on_c, 0, 67, 46
3, 26336, Control_c, 0, 64, 0
3, 26400, Note_on_c, 0, 67, 0
3, 26400, Note_on_c, 0, 60, 55
3, 26520, Note_on_c, 0, 60, 0
3, 26520, Note_on_c, 0, 67, 46
3, 26640, Note_on_c, 0, 67, 0
3, 26640, Note_on_c, 0, 64, 50
3, 26760, Note_on_c, 0, 64, 0
3, 26760, Note_on_c, 0, 67, 46
3, 26880, Note_on_c, 0, 67, 0
3, 26880, Note_on_c, 0, 60, 59
3, 26912, Control_c, 0, 64, 127
3, 26960, Note_on_c, 0, 60, 0
3, 26960, Note_on_c, 0, 64, 54
3, 27040, Note_on_c, 0, 64, 0
3, 27040, Note_on_c, 0, 67, 54
3, 27120, Note_on_c, 0, 67, 0
3, 27120, Note_on_c, 0, 72, 57
3, 27328, Control_c, 0, 64, 0
3, 27360, Note_on_c, 0, 72, 0
3, 27840, Note_on_c, 0, 59, 59
3, 27889, Control_c, 0, 64, 127
3, 27920, Note_on_c, 0, 59, 0
3, 27920, Note_on_c, 0, 62, 54
3, 28000, Note_on_c, 0, 62, 0
3, 28000, Note_on_c, 0, 67, 54
3, 28080, Note_on_c, 0, 67, 0
3, 28080, Note_on_c, 0, 71, 59
3, 28278, Control_c, 0, 64, 0
3, 28320, Note_on_c, 0, 71, 0
3, 28800, Note_on_c, 0, 57, 62
3, 28800, Note_on_c, 0, 62, 62
3, 28800, Note_on_c, 0, 54, 62
3, 28828, Control_c, 0, 64, 127
3, 29040, Note_on_c, 0, 54, 0
3, 29040, Note_on_c, 0, 62, 0
3, 29040, Note_on_c, 0, 57, 0
3, 29280, Control_c, 0, 64, 0
3, 29280, Note_on_c, 0, 59, 64
3, 29280, Note_on_c, 0, 55, 64
3, 29280, Note_on_c, 0, 62, 64
3, 29333, Control_c, 0, 64, 127
3, 29520, Note_on_c, 0, 62, 0
3, 29520, Note_on_c, 0, 55, 0
3, 29520, Note_on_c, 0, 59, 0
3, 29693, Control_c, 0, 64, 0
3, 29760, Note_on_c, 0, 50, 69
3, 29880, Note_on_c, 0, 50, 0
3, 29880, Note_on_c, 0, 62, 49
3, 30000, Note_on_c, 0, 62, 0
3, 30000, Note_on_c, 0, 61, 50
3, 30120, Note_on_c, 0, 61, 0
3, 30120, Note_on_c, 0, 62, 52
3, 30240, Note_on_c, 0, 62, 0
3, 30240, Note_on_c, 0, 61, 55
3, 30360, Note_on_c, 0, 61, 0
3, 30360, Note_on_c, 0, 62, 56
3, 30480, Note_on_c, 0, 62, 0
3, 30480, Note_on_c, 0, 60, 58
3, 30600, Note_on_c, 0, 60, 0
3, 30600, Note_on_c, 0, 62, 60
3, 30720, Note_on_c, 0, 62, 0
3, 30720, Note_on_c, 0, 59, 60
3, 30726, Control_c, 0, 64, 127
3, 30840, Note_on_c, 0, 59, 0
3, 30840, Note_on_c, 0, 62, 55
3, 30960, Note_on_c, 0, 62, 0
3, 30960, Note_on_c, 0, 59, 44
3, 31080, Note_on_c, 0, 59, 0
3, 31080, Note_on_c, 0, 62, 38
3, 31109, Control_c, 0, 64, 0
3, 31200, Note_on_c, 0, 62, 0
3, 31200, Note_on_c, 0, 59, 46
3, 31320, Note_on_c, 0, 59, 0
3, 31320, Note_on_c, 0, 62, 40
3, 31440, Note_on_c, 0, 62, 0
3, 31440, Note_on_c, 0, 55, 44
3, 31560, Note_on_c, 0, 55, 0
3, 31560, Note_on_c, 0, 62, 43
3, 31680, Note_on_c, 0, 62, 0
3, 31680, Note_on_c, 0, 57, 46
3, 31800, Note_on_c, 0, 57, 0
3, 31800, Note_on_c, 0, 62, 43
3, 31920, Note_on_c, 0, 62, 0
3, 31920, Note_on_c, 0, 55, 46
3, 32040, Note_on_c, 0, 55, 0
3, 32040, Note_on_c, 0, 62, 43
3, 32160, Note_on_c, 0, 62, 0
3, 32160, Note_on_c, 0, 54, 46
3, 32280, Note_on_c, 0, 54, 0
3, 32280, Note_on_c, 0, 62, 43
3, 32400, Note_on_c, 0, 62, 0
3, 32400, Note_on_c, 0, 50, 46
3, 32520, Note_on_c, 0, 50, 0
3, 32520, Note_on_c, 0, 62, 43
3, 32640, Note_on_c, 0, 62, 0
3, 32640, Note_on_c, 0, 55, 48
3, 32657, Control_c, 0, 64, 127
3, 32760, Note_on_c, 0, 55, 0
3, 32760, Note_on_c, 0, 62, 43
3, 32869, Control_c, 0, 64, 0
3, 32880, Note_on_c, 0, 62, 0
3, 32880, Note_on_c, 0, 61, 43
3, 32897, Control_c, 0, 64, 127
3, 33000, Note_on_c, 0, 61, 0
3, 33000, Note_on_c, 0, 62, 43
3, 33046, Control_c, 0, 64, 0
3, 33120, Note_on_c, 0, 62, 0
3, 33120, Note_on_c, 0, 61, 49
3, 33240, Note_on_c, 0, 61, 0
3, 33240, Note_on_c, 0, 62, 52
3, 33360, Note_on_c, 0, 62, 0
3, 33360, Note_on_c, 0, 64, 55
3, 33480, Note_on_c, 0, 64, 0
3, 33480, Note_on_c, 0, 62, 52
3, 33600, Note_on_c, 0, 62, 0
3, 33600, Note_on_c, 0, 60, 60
3, 33720, Note_on_c, 0, 60, 0
3, 33720, Note_on_c, 0, 62, 58
3, 33840, Note_on_c, 0, 62, 0
3, 33840, Note_on_c, 0, 59, 60
3, 33960, Note_on_c, 0, 59, 0
3, 33960, Note_on_c, 0, 62, 58
3, 34080, Note_on_c, 0, 62, 0
3, 34080, Note_on_c, 0, 60, 60
3, 34200, Note_on_c, 0, 60, 0
3, 34200, Note_on_c, 0, 62, 58
3, 34320, Note_on_c, 0, 62, 0
3, 34320, Note_on_c, 0, 57, 60
3, 34440, Note_on_c, 0, 57, 0
3, 34440, Note_on_c, 0, 62, 58
3, 34560, Note_on_c, 0, 62, 0
3, 34560, Note_on_c, 0, 59, 60
3, 34589, Control_c, 0, 64, 127
3, 34680, Note_on_c, 0, 59, 0
3, 34680, Note_on_c, 0, 62, 53
3, 34800, Note_on_c, 0, 62, 0
3, 34800, Note_on_c, 0, 59, 44
3, 34920, Note_on_c, 0, 59, 0
3, 34920, Note_on_c, 0, 62, 38
3, 35040, Note_on_c, 0, 62, 0
3, 35040, Note_on_c, 0, 59, 46
3, 35046, Control_c, 0, 64, 0
3, 35160, Note_on_c, 0, 59, 0
3, 35160, Note_on_c, 0, 62, 38
3, 35280, Note_on_c, 0, 62, 0
3, 35280, Note_on_c, 0, 55, 44
3, 35400, Note_on_c, 0, 55, 0
3, 35400, Note_on_c, 0, 62, 38
3, 35520, Note_on_c, 0, 62, 0
3, 35520, Note_on_c, 0, 57, 46
3, 35640, Note_on_c, 0, 57, 0
3, 35640, Note_on_c, 0, 62, 43
3, 35760, Note_on_c, 0, 62, 0
3, 35760, Note_on_c, 0, 55, 46
3, 35880, Note_on_c, 0, 55, 0
3, 35880, Note_on_c, 0, 62, 43
3, 36000, Note_on_c, 0, 62, 0
3, 36000, Note_on_c, 0, 54, 46
3, 36120, Note_on_c, 0, 54, 0
3, 36120, Note_on_c, 0, 62, 43
3, 36240, Note_on_c, 0, 62, 0
3, 36240, Note_on_c, 0, 50, 46
3, 36360, Note_on_c, 0, 50, 0
3, 36360, Note_on_c, 0, 62, 43
3, 36480, Note_on_c, 0, 62, 0
3, 36480, Control_c, 0, 64, 127
3, 36480, Note_on_c, 0, 55, 46
3, 36600, Note_on_c, 0, 55, 0
3, 36600, Note_on_c, 0, 62, 43
3, 36720, Note_on_c, 0, 62, 0
3, 36720, Note_on_c, 0, 59, 46
3, 36840, Note_on_c, 0, 59, 0
3, 36840, Note_on_c, 0, 62, 43
3, 36952, Control_c, 0, 64, 0
3, 36960, Note_on_c, 0, 62, 0
3, 36960, Note_on_c, 0, 55, 46
3, 36974, Control_c, 0, 64, 127
3, 37080, Note_on_c, 0, 55, 0
3, 37080, Note_on_c, 0, 64, 36
3, 37163, Control_c, 0, 64, 0
3, 37200, Note_on_c, 0, 64, 0
3, 37200, Note_on_c, 0, 60, 41
3, 37320, Note_on_c, 0, 60, 0
3, 37320, Note_on_c, 0, 64, 36
3, 37440, Note_on_c, 0, 64, 0
3, 37440, Note_on_c, 0, 55, 41
3, 37468, Control_c, 0, 64, 127
3, 37560, Note_on_c, 0, 55, 0
3, 37560, Note_on_c, 0, 62, 37
3, 37680, Note_on_c, 0, 62, 0
3, 37680, Note_on_c, 0, 59, 41
3, 37800, Note_on_c, 0, 59, 0
3, 37800, Note_on_c, 0, 62, 39
3, 37914, Control_c, 0, 64, 0
3, 37920, Note_on_c, 0, 62, 0
3, 37920, Note_on_c, 0, 53, 41
3, 37948, Control_c, 0, 64, 127
3, 38040, Note_on_c, 0, 53, 0
3, 38040, Note_on_c, 0, 60, 37
3, 38160, Note_on_c, 0, 60, 0
3, 38160, Note_on_c, 0, 57, 41
3, 38280, Note_on_c, 0, 57, 0
3, 38280, Note_on_c, 0, 60, 37
3, 38400, Note_on_c, 0, 60, 0
3, 38400, Control_c, 0, 64, 0
3, 38400, Note_on_c, 0, 52, 41
3, 38447, Control_c, 0, 64, 127
3, 38520, Note_on_c, 0, 52, 0
3, 38520, Note_on_c, 0, 60, 37
3, 38640, Note_on_c, 0, 60, 0
3, 38640, Note_on_c, 0, 55, 41
3, 38760, Note_on_c, 0, 55, 0
3, 38760, Note_on_c, 0, 60, 37
3, 38867, Control_c, 0, 64, 0
3, 38880, Note_on_c, 0, 60, 0
3, 38880, Note_on_c, 0, 48, 50
3, 38893, Control_c, 0, 64, 127
3, 39000, Note_on_c, 0, 48, 0
3, 39000, Note_on_c, 0, 55, 43
3, 39095, Control_c, 0, 64, 0
3, 39120, Note_on_c, 0, 55, 0
3, 39120, Note_on_c, 0, 52, 50
3, 39240, Note_on_c, 0, 52, 0
3, 39240, Note_on_c, 0, 55, 42
3, 39360, Note_on_c, 0, 55, 0
3, 39360, Note_on_c, 0, 50, 49
3, 39480, Note_on_c, 0, 50, 0
3, 39480, Note_on_c, 0, 59, 43
3, 39600, Note_on_c, 0, 59, 0
3, 39600, Note_on_c, 0, 55, 49
3, 39720, Note_on_c, 0, 55, 0
3, 39720, Note_on_c, 0, 59, 43
3, 39840, Note_on_c, 0, 59, 0
3, 39840, Note_on_c, 0, 50, 49
3, 39960, Note_on_c, 0, 50, 0
3, 39960, Note_on_c, 0, 60, 43
3, 40080, Note_on_c, 0, 60, 0
3, 40080, Note_on_c, 0, 54, 48
3, 40200, Note_on_c, 0, 54, 0
3, 40200, Note_on_c, 0, 60, 42
3, 40320, Note_on_c, 0, 60, 0
3, 40320, Note_on_c, 0, 55, 50
3, 40353, Control_c, 0, 64, 127
3, 40440, Note_on_c, 0, 55, 0
3, 40440, Note_on_c, 0, 62, 44
3, 40560, Note_on_c, 0, 62, 0
3, 40560, Note_on_c, 0, 59, 50
3, 40579, Control_c, 0, 64, 0
3, 40595, Control_c, 0, 64, 127
3, 40680, Note_on_c, 0, 59, 0
3, 40680, Note_on_c, 0, 62, 43
3, 40792, Control_c, 0, 64, 0
3, 40800, Note_on_c, 0, 62, 0
3, 40800, Note_on_c, 0, 55, 41
3, 40806, Control_c, 0, 64, 127
3, 40920, Note_on_c, 0, 55, 0
3, 40920, Note_on_c, 0, 64, 37
3, 41013, Control_c, 0, 64, 0
3, 41040, Note_on_c, 0, 64, 0
3, 41040, Note_on_c, 0, 60, 41
3, 41160, Note_on_c, 0, 60, 0
3, 41160, Note_on_c, 0, 64, 37
3, 41280, Note_on_c, 0, 64, 0
3, 41280, Note_on_c, 0, 55, 41
3, 41324, Control_c, 0, 64, 127
3, 41400, Note_on_c, 0, 55, 0
3, 41400, Note_on_c, 0, 62, 37
3, 41520, Note_on_c, 0, 62, 0
3, 41520, Note_on_c, 0, 59, 41
3, 41640, Note_on_c, 0, 59, 0
3, 41640, Note_on_c, 0, 62, 37
3, 41754, Control_c, 0, 64, 0
3, 41760, Note_on_c, 0, 62, 0
3, 41760, Note_on_c, 0, 53, 41
3, 41779, Control_c, 0, 64, 127
3, 41880, Note_on_c, 0, 53, 0
3, 41880, Note_on_c, 0, 60, 36
3, 41943, Control_c, 0, 64, 0
3, 42000, Note_on_c, 0, 60, 0
3, 42000, Note_on_c, 0, 57, 41
3, 42120, Note_on_c, 0, 57, 0
3, 42120, Note_on_c, 0, 60, 36
3, 42240, Note_on_c, 0, 60, 0
3, 42240, Note_on_c, 0, 52, 43
3, 42253, Control_c, 0, 64, 127
3, 42360, Note_on_c, 0, 52, 0
3, 42360, Note_on_c, 0, 60, 37
3, 42480, Note_on_c, 0, 60, 0
3, 42480, Note_on_c, 0, 55, 42
3, 42600, Note_on_c, 0, 55, 0
3, 42600, Note_on_c, 0, 60, 36
3, 42720, Note_on_c, 0, 60, 0
3, 42720, Note_on_c, 0, 48, 52
3, 42733, Control_c, 0, 64, 0
3, 42755, Control_c, 0, 64, 127
3, 42840, Note_on_c, 0, 48, 0
3, 42840, Note_on_c, 0, 55, 47
3, 42928, Control_c, 0, 64, 0
3, 42960, Note_on_c, 0, 55, 0
3, 42960, Note_on_c, 0, 52, 50
3, 43080, Note_on_c, 0, 52, 0
3, 43080, Note_on_c, 0, 55, 46
3, 43200, Note_on_c, 0, 55, 0
3, 43200, Note_on_c, 0, 50, 50
3, 43320, Note_on_c, 0, 50, 0
3, 43320, Note_on_c, 0, 59, 46
3, 43440, Note_on_c, 0, 59, 0
3, 43440, Note_on_c, 0, 55, 49
3, 43560, Note_on_c, 0, 55, 0
3, 43560, Note_on_c, 0, 59, 41
3, 43680, Note_on_c, 0, 59, 0
3, 43680, Note_on_c, 0, 50, 48
3, 43800, Note_on_c, 0, 50, 0
3, 43800, Note_on_c, 0, 60, 42
3, 43920, Note_on_c, 0, 60, 0
3, 43920, Note_on_c, 0, 57, 48
3, 44040, Note_on_c, 0, 57, 0
3, 44040, Note_on_c, 0, 60, 41
3, 44160, Note_on_c, 0, 60, 0
3, 44400, Note_on_c, 0, 59, 48
3, 44400, Note_on_c, 0, 55, 48
3, 44409, Control_c, 0, 64, 127
3, 44640, Note_on_c, 0, 55, 0
3, 44640, Note_on_c, 0, 59, 0
3, 44640, Note_on_c, 0, 57, 55
3, 44640, Note_on_c, 0, 60, 55
3, 44646, Control_c, 0, 64, 0
3, 44663, Control_c, 0, 64, 127
3, 44851, Control_c, 0, 64, 0
3, 44877, Control_c, 0, 64, 127
3, 44880, Note_on_c, 0, 60, 0
3, 44880, Note_on_c, 0, 57, 0
3, 44880, Note_on_c, 0, 59, 60
3, 44880, Note_on_c, 0, 62, 60
3, 45049, Control_c, 0, 64, 0
3, 45120, Note_on_c, 0, 62, 0
3, 45120, Note_on_c, 0, 59, 0
3, 45357, Control_c, 0, 64, 127
3, 45360, Note_on_c, 0, 54, 46
3, 45360, Note_on_c, 0, 50, 46
3, 45600, Note_on_c, 0, 50, 0
3, 45600, Note_on_c, 0, 54, 0
3, 45600, Note_on_c, 0, 55, 50
3, 45600, Note_on_c, 0, 52, 50
3, 45606, Control_c, 0, 64, 0
3, 45631, Control_c, 0, 64, 127
3, 45840, Note_on_c, 0, 52, 0
3, 45840, Note_on_c, 0, 55, 0
3, 45840, Note_on_c, 0, 57, 55
3, 45840, Note_on_c, 0, 54, 55
3, 45846, Control_c, 0, 64, 0
3, 45869, Control_c, 0, 64, 127
3, 46020, Control_c, 0, 64, 0
3, 46080, Note_on_c, 0, 54, 0
3, 46080, Note_on_c, 0, 57, 0
3, 46320, Note_on_c, 0, 55, 48
3, 46320, Note_on_c, 0, 59, 48
3, 46349, Control_c, 0, 64, 127
3, 46560, Note_on_c, 0, 59, 0
3, 46560, Note_on_c, 0, 55, 0
3, 46560, Note_on_c, 0, 57, 55
3, 46560, Note_on_c, 0, 60, 55
3, 46571, Control_c, 0, 64, 0
3, 46600, Control_c, 0, 64, 127
3, 46800, Note_on_c, 0, 60, 0
3, 46800, Note_on_c, 0, 57, 0
3, 46800, Note_on_c, 0, 62, 60
3, 46800, Note_on_c, 0, 59, 60
3, 46820, Control_c, 0, 64, 0
3, 46837, Control_c, 0, 64, 127
3, 47003, Control_c, 0, 64, 0
3, 47040, Note_on_c, 0, 59, 0
3, 47040, Note_on_c, 0, 62, 0
3, 47280, Note_on_c, 0, 50, 46
3, 47280, Control_c, 0, 64, 127
3, 47280, Note_on_c, 0, 54, 46
3, 47511, Control_c, 0, 64, 0
3, 47520, Note_on_c, 0, 54, 0
3, 47520, Note_on_c, 0, 50, 0
3, 47520, Note_on_c, 0, 55, 50
3, 47520, Note_on_c, 0, 52, 50
3, 47531, Control_c, 0, 64, 127
3, 47743, Control_c, 0, 64, 0
3, 47760, Note_on_c, 0, 52, 0
3, 47760, Note_on_c, 0, 55, 0
3, 47760, Note_on_c, 0, 57, 55
3, 47760, Note_on_c, 0, 54, 55
3, 47763, Control_c, 0, 64, 127
3, 48000, Note_on_c, 0, 54, 0
3, 48000, Note_on_c, 0, 57, 0
3, 48000, Control_c, 0, 64, 0
3, 48000, Note_on_c, 0, 55, 55
3, 48064, Control_c, 0, 64, 127
3, 48480, Note_on_c, 0, 55, 0
3, 48960, Note_on_c, 0, 43, 55
3, 48960, Note_on_c, 0, 55, 55
3, 48960, Note_on_c, 0, 50, 55
3, 48960, Note_on_c, 0, 47, 55
3, 48981, Control_c, 0, 64, 0
3, 48985, Control_c, 0, 64, 127
3, 49804, Control_c, 0, 64, 0
3, 49920, Note_on_c, 0, 47, 0
3, 49920, Note_on_c, 0, 50, 0
3, 49920, Note_on_c, 0, 43, 0
3, 49920, Note_on_c, 0, 48, 48
3, 50400, Note_on_c, 0, 48, 0
3, 50400, Note_on_c, 0, 55, 0
3, 50951, Control_c, 0, 64, 127
3, 51120, Note_on_c, 0, 49, 46
3, 51120, Note_on_c, 0, 58, 46
3, 51304, Control_c, 0, 64, 0
3, 51360, Note_on_c, 0, 58, 0
3, 51360, Note_on_c, 0, 49, 0
3, 51360, Note_on_c, 0, 50, 50
3, 51360, Note_on_c, 0, 59, 50
3, 51381, Control_c, 0, 64, 127
3, 51600, Note_on_c, 0, 59, 0
3, 51600, Note_on_c, 0, 50, 0
3, 51600, Note_on_c, 0, 60, 55
3, 51840, Note_on_c, 0, 60, 0
3, 51840, Control_c, 0, 64, 0
3, 51840, Note_on_c, 0, 55, 55
3, 51840, Note_on_c, 0, 59, 55
3, 51882, Control_c, 0, 64, 127
3, 52320, Note_on_c, 0, 59, 0
3, 52320, Note_on_c, 0, 55, 0
3, 52775, Control_c, 0, 64, 0
3, 52800, Note_on_c, 0, 43, 55
3, 52800, Note_on_c, 0, 55, 55
3, 52800, Note_on_c, 0, 50, 55
3, 52800, Note_on_c, 0, 47, 55
3, 52818, Control_c, 0, 64, 127
3, 53689, Control_c, 0, 64, 0
3, 53760, Note_on_c, 0, 47, 0
3, 53760, Note_on_c, 0, 50, 0
3, 53760, Note_on_c, 0, 43, 0
3, 53760, Note_on_c, 0, 48, 48
3, 54240, Note_on_c, 0, 48, 0
3, 54240, Note_on_c, 0, 55, 0
3, 54720, Note_on_c, 0, 58, 52
3, 54720, Note_on_c, 0, 49, 52
3, 55200, Note_on_c, 0, 49, 0
3, 55200, Note_on_c, 0, 58, 0
3, 55680, Note_on_c, 0, 50, 59
3, 55694, Control_c, 0, 64, 127
3, 55800, Note_on_c, 0, 50, 0
3, 55800, Note_on_c, 0, 59, 50
3, 55920, Note_on_c, 0, 59, 0
3, 55920, Note_on_c, 0, 55, 52
3, 56040, Note_on_c, 0, 55, 0
3, 56040, Note_on_c, 0, 59, 49
3, 56142, Control_c, 0, 64, 0
3, 56160, Note_on_c, 0, 59, 0
3, 56160, Note_on_c, 0, 50, 59
3, 56178, Control_c, 0, 64, 127
3, 56280, Note_on_c, 0, 50, 0
3, 56280, Note_on_c, 0, 59, 50
3, 56400, Note_on_c, 0, 59, 0
3, 56400, Note_on_c, 0, 55, 52
3, 56520, Note_on_c, 0, 55, 0
3, 56520, Note_on_c, 0, 59, 50
3, 56640, Note_on_c, 0, 59, 0
3, 56640, Control_c, 0, 64, 0
3, 56640, Note_on_c, 0, 50, 54
3, 56689, Control_c, 0, 64, 127
3, 56760, Note_on_c, 0, 50, 0
3, 56760, Note_on_c, 0, 62, 46
3, 56880, Note_on_c, 0, 62, 0
3, 56880, Note_on_c, 0, 55, 48
3, 57000, Note_on_c, 0, 55, 0
3, 57000, Note_on_c, 0, 62, 45
3, 57120, Note_on_c, 0, 62, 0
3, 57120, Note_on_c, 0, 50, 49
3, 57124, Control_c, 0, 64, 0
3, 57152, Control_c, 0, 64, 127
3, 57240, Note_on_c, 0, 50, 0
3, 57240, Note_on_c, 0, 60, 37
3, 57360, Note_on_c, 0, 60, 0
3, 57360, Note_on_c, 0, 54, 41
3, 57480, Note_on_c, 0, 54, 0
3, 57480, Note_on_c, 0, 60, 38
3, 57600, Note_on_c, 0, 60, 0
3, 57600, Note_on_c, 0, 55, 44
3, 57600, Control_c, 0, 64, 0
3, 57717, Control_c, 0, 64, 127
3, 57720, Note_on_c, 0, 55, 0
3, 57720, Note_on_c, 0, 59, 38
3, 57840, Note_on_c, 0, 59, 0
3, 57840, Note_on_c, 0, 67, 40
3, 57960, Note_on_c, 0, 67, 0
3, 57960, Note_on_c, 0, 59, 37
3, 58080, Note_on_c, 0, 59, 0
3, 58080, Note_on_c, 0, 55, 44
3, 58089, Control_c, 0, 64, 0
3, 58123, Control_c, 0, 64, 127
3, 58200, Note_on_c, 0, 55, 0
3, 58200, Note_on_c, 0, 59, 37
3, 58320, Note_on_c, 0, 59, 0
3, 58320, Note_on_c, 0, 67, 40
3, 58440, Note_on_c, 0, 67, 0
3, 58440, Note_on_c, 0, 59, 37
3, 58526, Control_c, 0, 64, 0
3, 58560, Note_on_c, 0, 59, 0
3, 58560, Note_on_c, 0, 55, 44
3, 58680, Note_on_c, 0, 55, 0
3, 58680, Note_on_c, 0, 57, 38
3, 58800, Note_on_c, 0, 57, 0
3, 58800, Note_on_c, 0, 66, 40
3, 58920, Note_on_c, 0, 66, 0
3, 58920, Note_on_c, 0, 57, 37
3, 59040, Note_on_c, 0, 57, 0
3, 59040, Note_on_c, 0, 55, 44
3, 59160, Note_on_c, 0, 55, 0
3, 59160, Note_on_c, 0, 60, 38
3, 59280, Note_on_c, 0, 60, 0
3, 59280, Note_on_c, 0, 66, 41
3, 59400, Note_on_c, 0, 66, 0
3, 59400, Note_on_c, 0, 60, 38
3, 59520, Note_on_c, 0, 60, 0
3, 59520, Note_on_c, 0, 55, 44
3, 59546, Control_c, 0, 64, 127
3, 59640, Note_on_c, 0, 55, 0
3, 59640, Note_on_c, 0, 59, 38
3, 59760, Note_on_c, 0, 59, 0
3, 59760, Note_on_c, 0, 67, 40
3, 59880, Note_on_c, 0, 67, 0
3, 59880, Note_on_c, 0, 59, 39
3, 60000, Note_on_c, 0, 59, 0
3, 60000, Note_on_c, 0, 55, 44
3, 60017, Control_c, 0, 64, 0
3, 60049, Control_c, 0, 64, 127
3, 60120, Note_on_c, 0, 55, 0
3, 60120, Note_on_c, 0, 59, 38
3, 60240, Note_on_c, 0, 59, 0
3, 60240, Note_on_c, 0, 67, 40
3, 60360, Note_on_c, 0, 67, 0
3, 60360, Note_on_c, 0, 59, 38
3, 60446, Control_c, 0, 64, 0
3, 60480, Note_on_c, 0, 59, 0
3, 60480, Note_on_c, 0, 55, 44
3, 60600, Note_on_c, 0, 55, 0
3, 60600, Note_on_c, 0, 57, 38
3, 60720, Note_on_c, 0, 57, 0
3, 60720, Note_on_c, 0, 66, 40
3, 60840, Note_on_c, 0, 66, 0
3, 60840, Note_on_c, 0, 57, 38
3, 60960, Note_on_c, 0, 57, 0
3, 60960, Note_on_c, 0, 55, 44
3, 61080, Note_on_c, 0, 55, 0
3, 61080, Note_on_c, 0, 60, 38
3, 61200, Note_on_c, 0, 60, 0
3, 61200, Note_on_c, 0, 66, 41
3, 61320, Note_on_c, 0, 66, 0
3, 61320, Note_on_c, 0, 60, 37
3, 61440, Note_on_c, 0, 60, 0
3, 61440, Note_on_c, 0, 55, 44
3, 61487, Control_c, 0, 64, 127
3, 61560, Note_on_c, 0, 55, 0
3, 61560, Note_on_c, 0, 59, 38
3, 61680, Note_on_c, 0, 59, 0
3, 61680, Note_on_c, 0, 67, 41
3, 61800, Note_on_c, 0, 67, 0
3, 61800, Note_on_c, 0, 59, 38
3, 61895, Control_c, 0, 64, 0
3, 61920, Note_on_c, 0, 59, 0
3, 61920, Note_on_c, 0, 55, 44
3, 61942, Control_c, 0, 64, 127
3, 62040, Note_on_c, 0, 55, 0
3, 62040, Note_on_c, 0, 60, 37
3, 62160, Note_on_c, 0, 60, 0
3, 62160, Note_on_c, 0, 66, 41
3, 62280, Note_on_c, 0, 66, 0
3, 62280, Note_on_c, 0, 60, 37
3, 62400, Note_on_c, 0, 60, 0
3, 62400, Note_on_c, 0, 55, 44
3, 62419, Control_c, 0, 64, 0
3, 62460, Control_c, 0, 64, 127
3, 62520, Note_on_c, 0, 55, 0
3, 62520, Note_on_c, 0, 59, 38
3, 62640, Note_on_c, 0, 59, 0
3, 62640, Note_on_c, 0, 67, 41
3, 62760, Note_on_c, 0, 67, 0
3, 62760, Note_on_c, 0, 59, 37
3, 62874, Control_c, 0, 64, 0
3, 62880, Note_on_c, 0, 59, 0
3, 62880, Note_on_c, 0, 55, 44
3, 62902, Control_c, 0, 64, 127
3, 63000, Note_on_c, 0, 55, 0
3, 63000, Note_on_c, 0, 60, 37
3, 63120, Note_on_c, 0, 60, 0
3, 63120, Note_on_c, 0, 66, 41
3, 63240, Note_on_c, 0, 66, 0
3, 63240, Note_on_c, 0, 60, 37
3, 63322, Control_c, 0, 64, 0
3, 63360, Note_on_c, 0, 60, 0
3, 63360, Note_on_c, 0, 67, 39
3, 63360, Note_on_c, 0, 59, 39
3, 63360, Note_on_c, 0, 55, 39
3, 63600, Note_on_c, 0, 55, 0
3, 63600, Note_on_c, 0, 59, 0
3, 63600, Note_on_c, 0, 67, 0
3, 64080, Note_on_c, 0, 50, 37
3, 64320, Note_on_c, 0, 50, 0
3, 64320, Note_on_c, 0, 55, 42
3, 64334, Control_c, 0, 64, 127
3, 64560, Note_on_c, 0, 55, 0
3, 64560, Note_on_c, 0, 50, 41
3, 64772, Control_c, 0, 64, 0
3, 64800, Note_on_c, 0, 50, 0
3, 64800, Note_on_c, 0, 43, 42
3, 64871, Control_c, 0, 64, 127
3, 65040, Note_on_c, 0, 43, 0
3, 65040, Control_c, 0, 64, 0
3, 65280, Control_c, 0, 91, 127
3, 65520, Note_on_c, 0, 48, 51
3, 65760, Note_on_c, 0, 48, 0
3, 65760, Note_on_c, 0, 52, 51
3, 66000, Note_on_c, 0, 52, 0
3, 66000, Note_on_c, 0, 55, 51
3, 66240, Note_on_c, 0, 55, 0
3, 66240, Note_on_c, 0, 60, 54
3, 66480, Note_on_c, 0, 60, 0
3, 66480, Note_on_c, 0, 48, 51
3, 66720, Note_on_c, 0, 48, 0
3, 66720, Note_on_c, 0, 55, 54
3, 66960, Note_on_c, 0, 55, 0
3, 66960, Note_on_c, 0, 43, 50
3, 67200, Note_on_c, 0, 43, 0
3, 67440, Note_on_c, 0, 48, 51
3, 67680, Note_on_c, 0, 48, 0
3, 67680, Note_on_c, 0, 52, 51
3, 67920, Note_on_c, 0, 52, 0
3, 67920, Note_on_c, 0, 55, 54
3, 68160, Note_on_c, 0, 55, 0
3, 68160, Note_on_c, 0, 60, 55
3, 68396, Control_c, 0, 64, 127
3, 68400, Note_on_c, 0, 60, 0
3, 68400, Note_on_c, 0, 48, 52
3, 68622, Control_c, 0, 64, 0
3, 68640, Note_on_c, 0, 48, 0
3, 68640, Note_on_c, 0, 55, 54
3, 68880, Note_on_c, 0, 55, 0
3, 68880, Note_on_c, 0, 43, 52
3, 69120, Note_on_c, 0, 43, 0
3, 69120, Note_on_c, 0, 57, 58
3, 69360, Note_on_c, 0, 57, 0
3, 69360, Note_on_c, 0, 60, 57
3, 69600, Note_on_c, 0, 60, 0
3, 69600, Note_on_c, 0, 55, 60
3, 69840, Note_on_c, 0, 55, 0
3, 69840, Note_on_c, 0, 60, 56
3, 70080, Note_on_c, 0, 60, 0
3, 70080, Note_on_c, 0, 53, 60
3, 70320, Note_on_c, 0, 53, 0
3, 70320, Note_on_c, 0, 60, 58
3, 70560, Note_on_c, 0, 60, 0
3, 70560, Note_on_c, 0, 52, 62
3, 70800, Note_on_c, 0, 52, 0
3, 70800, Note_on_c, 0, 60, 57
3, 71040, Note_on_c, 0, 60, 0
3, 71040, Control_c, 0, 64, 127
3, 71280, Note_on_c, 0, 67, 54
3, 71280, Note_on_c, 0, 59, 54
3, 71513, Control_c, 0, 64, 0
3, 71520, Note_on_c, 0, 59, 0
3, 71520, Note_on_c, 0, 67, 0
3, 71520, Note_on_c, 0, 67, 54
3, 71520, Note_on_c, 0, 60, 54
3, 71569, Control_c, 0, 64, 127
3, 71675, Control_c, 0, 64, 0
3, 71760, Note_on_c, 0, 60, 0
3, 71760, Note_on_c, 0, 67, 0
3, 72000, Note_on_c, 0, 55, 55
3, 72000, Note_on_c, 0, 59, 55
3, 72480, Note_on_c, 0, 59, 0
3, 72480, Note_on_c, 0, 55, 0
3, 72960, Note_on_c, 0, 36, 79
3, 72985, Control_c, 0, 64, 127
3, 73080, Note_on_c, 0, 36, 0
3, 73080, Note_on_c, 0, 40, 68
3, 73193, Control_c, 0, 64, 0
3, 73200, Note_on_c, 0, 40, 0
3, 73200, Note_on_c, 0, 43, 69
3, 73214, Control_c, 0, 64, 127
3, 73320, Note_on_c, 0, 43, 0
3, 73320, Note_on_c, 0, 48, 68
3, 73429, Control_c, 0, 64, 0
3, 73440, Note_on_c, 0, 48, 0
3, 73440, Note_on_c, 0, 40, 74
3, 73560, Note_on_c, 0, 40, 0
3, 73560, Note_on_c, 0, 52, 69
3, 73680, Note_on_c, 0, 52, 0
3, 73680, Note_on_c, 0, 43, 74
3, 73800, Note_on_c, 0, 43, 0
3, 73800, Note_on_c, 0, 55, 69
3, 73920, Note_on_c, 0, 55, 0
3, 73920, Note_on_c, 0, 48, 74
3, 74040, Note_on_c, 0, 48, 0
3, 74040, Note_on_c, 0, 52, 67
3, 74160, Note_on_c, 0, 52, 0
3, 74160, Note_on_c, 0, 55, 69
3, 74280, Note_on_c, 0, 55, 0
3, 74280, Note_on_c, 0, 60, 68
3, 74400, Note_on_c, 0, 60, 0
3, 74400, Note_on_c, 0, 43, 74
3, 74435, Control_c, 0, 64, 127
3, 74520, Note_on_c, 0, 43, 0
3, 74520, Note_on_c, 0, 47, 69
3, 74640, Note_on_c, 0, 47, 0
3, 74640, Note_on_c, 0, 50, 73
3, 74760, Note_on_c, 0, 50, 0
3, 74760, Note_on_c, 0, 55, 69
3, 74880, Note_on_c, 0, 55, 0
3, 74880, Control_c, 0, 64, 0
3, 74880, Note_on_c, 0, 36, 74
3, 74912, Control_c, 0, 64, 127
3, 75000, Note_on_c, 0, 36, 0
3, 75000, Note_on_c, 0, 40, 68
3, 75120, Note_on_c, 0, 40, 0
3, 75120, Note_on_c, 0, 43, 69
3, 75240, Note_on_c, 0, 43, 0
3, 75240, Note_on_c, 0, 48, 67
3, 75342, Control_c, 0, 64, 0
3, 75360, Note_on_c, 0, 48, 0
3, 75360, Note_on_c, 0, 40, 74
3, 75480, Note_on_c, 0, 40, 0
3, 75480, Note_on_c, 0, 52, 69
3, 75600, Note_on_c, 0, 52, 0
3, 75600, Note_on_c, 0, 43, 72
3, 75720, Note_on_c, 0, 43, 0
3, 75720, Note_on_c, 0, 55, 69
3, 75840, Note_on_c, 0, 55, 0
3, 75840, Note_on_c, 0, 48, 75
3, 75960, Note_on_c, 0, 48, 0
3, 75960, Note_on_c, 0, 52, 67
3, 76080, Note_on_c, 0, 52, 0
3, 76080, Note_on_c, 0, 55, 69
3, 76094, Control_c, 0, 64, 127
3, 76200, Note_on_c, 0, 55, 0
3, 76200, Note_on_c, 0, 60, 68
3, 76320, Note_on_c, 0, 60, 0
3, 76320, Control_c, 0, 64, 0
3, 76320, Note_on_c, 0, 43, 77
3, 76352, Control_c, 0, 64, 127
3, 76440, Note_on_c, 0, 43, 0
3, 76440, Note_on_c, 0, 47, 68
3, 76560, Note_on_c, 0, 47, 0
3, 76560, Note_on_c, 0, 50, 69
3, 76680, Note_on_c, 0, 50, 0
3, 76680, Note_on_c, 0, 55, 68
3, 76729, Control_c, 0, 64, 0
3, 76800, Note_on_c, 0, 55, 0
3, 76800, Note_on_c, 0, 57, 65
3, 76920, Note_on_c, 0, 57, 0
3, 76920, Note_on_c, 0, 60, 60
3, 77040, Note_on_c, 0, 60, 0
3, 77040, Note_on_c, 0, 57, 65
3, 77160, Note_on_c, 0, 57, 0
3, 77160, Note_on_c, 0, 60, 60
3, 77280, Note_on_c, 0, 60, 0
3, 77280, Note_on_c, 0, 55, 65
3, 77400, Note_on_c, 0, 55, 0
3, 77400, Note_on_c, 0, 60, 62
3, 77520, Note_on_c, 0, 60, 0
3, 77520, Note_on_c, 0, 55, 65
3, 77640, Note_on_c, 0, 55, 0
3, 77640, Note_on_c, 0, 60, 62
3, 77760, Note_on_c, 0, 60, 0
3, 77760, Note_on_c, 0, 53, 69
3, 77880, Note_on_c, 0, 53, 0
3, 77880, Note_on_c, 0, 60, 65
3, 78000, Note_on_c, 0, 60, 0
3, 78000, Note_on_c, 0, 53, 69
3, 78120, Note_on_c, 0, 53, 0
3, 78120, Note_on_c, 0, 60, 65
3, 78240, Note_on_c, 0, 60, 0
3, 78240, Note_on_c, 0, 52, 69
3, 78360, Note_on_c, 0, 52, 0
3, 78360, Note_on_c, 0, 60, 65
3, 78480, Note_on_c, 0, 60, 0
3, 78480, Note_on_c, 0, 52, 69
3, 78600, Note_on_c, 0, 52, 0
3, 78600, Note_on_c, 0, 60, 64
3, 78720, Note_on_c, 0, 60, 0
3, 78960, Note_on_c, 0, 53, 60
3, 78960, Note_on_c, 0, 62, 60
3, 79080, Note_on_c, 0, 62, 0
3, 79080, Note_on_c, 0, 53, 0
3, 79200, Note_on_c, 0, 55, 60
3, 79200, Note_on_c, 0, 64, 60
3, 79440, Note_on_c, 0, 64, 0
3, 79440, Note_on_c, 0, 62, 60
3, 79680, Note_on_c, 0, 62, 0
3, 79680, Note_on_c, 0, 55, 0
3, 79680, Note_on_c, 0, 64, 60
3, 79680, Note_on_c, 0, 60, 60
3, 80160, Note_on_c, 0, 60, 0
3, 80160, Note_on_c, 0, 64, 0
3, 80880, Note_on_c, 0, 62, 48
3, 80880, Note_on_c, 0, 57, 48
3, 80880, Note_on_c, 0, 53, 48
3, 81120, Note_on_c, 0, 53, 0
3, 81120, Note_on_c, 0, 57, 0
3, 81120, Note_on_c, 0, 62, 0
3, 81120, Note_on_c, 0, 55, 48
3, 81120, Note_on_c, 0, 64, 48
3, 81360, Note_on_c, 0, 64, 0
3, 81360, Note_on_c, 0, 62, 55
3, 81600, Note_on_c, 0, 62, 0
3, 81600, Note_on_c, 0, 55, 0
3, 81600, Note_on_c, 0, 64, 60
3, 81600, Note_on_c, 0, 60, 60
3, 82080, Note_on_c, 0, 60, 0
3, 82080, Note_on_c, 0, 64, 0
3, 82800, Note_on_c, 0, 62, 48
3, 82800, Note_on_c, 0, 57, 48
3, 82800, Note_on_c, 0, 53, 48
3, 83040, Note_on_c, 0, 53, 0
3, 83040, Note_on_c, 0, 57, 0
3, 83040, Note_on_c, 0, 62, 0
3, 83040, Note_on_c, 0, 55, 48
3, 83040, Note_on_c, 0, 64, 48
3, 83280, Note_on_c, 0, 64, 0
3, 83280, Note_on_c, 0, 62, 51
3, 83520, Note_on_c, 0, 62, 0
3, 83520, Note_on_c, 0, 55, 0
3, 83520, Note_on_c, 0, 64, 47
3, 83520, Note_on_c, 0, 60, 47
3, 83640, Note_on_c, 0, 60, 0
3, 83640, Note_on_c, 0, 64, 0
3, 83760, Note_on_c, 0, 55, 47
3, 83880, Note_on_c, 0, 55, 0
3, 84000, Note_on_c, 0, 48, 47
3, 84480, Note_on_c, 0, 48, 0
3, 84480, Note_on_c, 0, 60, 46
3, 84484, Control_c, 0, 64, 127
3, 84600, Note_on_c, 0, 60, 0
3, 84600, Note_on_c, 0, 67, 38
3, 84720, Note_on_c, 0, 67, 0
3, 84720, Note_on_c, 0, 66, 42
3, 84840, Note_on_c, 0, 66, 0
3, 84840, Note_on_c, 0, 67, 38
3, 84949, Control_c, 0, 64, 0
3, 84960, Note_on_c, 0, 67, 0
3, 84960, Note_on_c, 0, 60, 46
3, 84971, Control_c, 0, 64, 127
3, 85080, Note_on_c, 0, 60, 0
3, 85080, Note_on_c, 0, 67, 38
3, 85165, Control_c, 0, 64, 0
3, 85200, Note_on_c, 0, 67, 0
3, 85200, Note_on_c, 0, 62, 42
3, 85320, Note_on_c, 0, 62, 0
3, 85320, Note_on_c, 0, 67, 38
3, 85440, Note_on_c, 0, 67, 0
3, 85440, Note_on_c, 0, 64, 46
3, 85560, Note_on_c, 0, 64, 0
3, 85560, Note_on_c, 0, 67, 38
3, 85680, Note_on_c, 0, 67, 0
3, 85680, Note_on_c, 0, 65, 42
3, 85800, Note_on_c, 0, 65, 0
3, 85800, Note_on_c, 0, 67, 38
3, 85920, Note_on_c, 0, 67, 0
3, 85920, Note_on_c, 0, 64, 46
3, 86040, Note_on_c, 0, 64, 0
3, 86040, Note_on_c, 0, 67, 38
3, 86160, Note_on_c, 0, 67, 0
3, 86160, Note_on_c, 0, 58, 42
3, 86280, Note_on_c, 0, 58, 0
3, 86280, Note_on_c, 0, 67, 39
3, 86400, Note_on_c, 0, 67, 0
3, 86400, Note_on_c, 0, 59, 48
3, 86520, Note_on_c, 0, 59, 0
3, 86520, Note_on_c, 0, 67, 39
3, 86640, Note_on_c, 0, 67, 0
3, 86640, Note_on_c, 0, 59, 44
3, 86760, Note_on_c, 0, 59, 0
3, 86760, Note_on_c, 0, 67, 40
3, 86880, Note_on_c, 0, 67, 0
3, 86880, Note_on_c, 0, 60, 52
3, 87000, Note_on_c, 0, 60, 0
3, 87000, Note_on_c, 0, 67, 42
3, 87120, Note_on_c, 0, 67, 0
3, 87120, Note_on_c, 0, 60, 46
3, 87240, Note_on_c, 0, 60, 0
3, 87240, Note_on_c, 0, 67, 42
3, 87360, Note_on_c, 0, 67, 0
3, 87360, Note_on_c, 0, 60, 50
3, 87480, Note_on_c, 0, 60, 0
3, 87480, Note_on_c, 0, 67, 38
3, 87600, Note_on_c, 0, 67, 0
3, 87600, Note_on_c, 0, 66, 42
3, 87720, Note_on_c, 0, 66, 0
3, 87720, Note_on_c, 0, 67, 38
3, 87840, Note_on_c, 0, 67, 0
3, 87840, Note_on_c, 0, 59, 46
3, 87960, Note_on_c, 0, 59, 0
3, 87960, Note_on_c, 0, 67, 39
3, 88080, Note_on_c, 0, 67, 0
3, 88080, Note_on_c, 0, 66, 42
3, 88200, Note_on_c, 0, 66, 0
3, 88200, Note_on_c, 0, 67, 40
3, 88320, Note_on_c, 0, 67, 0
3, 88320, Note_on_c, 0, 59, 46
3, 88359, Control_c, 0, 64, 127
3, 88440, Note_on_c, 0, 59, 0
3, 88440, Note_on_c, 0, 67, 39
3, 88560, Note_on_c, 0, 67, 0
3, 88560, Note_on_c, 0, 66, 42
3, 88680, Note_on_c, 0, 66, 0
3, 88680, Note_on_c, 0, 67, 39
3, 88800, Note_on_c, 0, 67, 0
3, 88800, Note_on_c, 0, 59, 46
3, 88807, Control_c, 0, 64, 0
3, 88828, Control_c, 0, 64, 127
3, 88920, Note_on_c, 0, 59, 0
3, 88920, Note_on_c, 0, 67, 39
3, 89022, Control_c, 0, 64, 0
3, 89040, Note_on_c, 0, 67, 0
3, 89040, Note_on_c, 0, 60, 42
3, 89058, Control_c, 0, 64, 127
3, 89160, Note_on_c, 0, 60, 0
3, 89160, Note_on_c, 0, 67, 39
3, 89241, Control_c, 0, 64, 0
3, 89280, Note_on_c, 0, 67, 0
3, 89280, Note_on_c, 0, 62, 46
3, 89400, Note_on_c, 0, 62, 0
3, 89400, Note_on_c, 0, 67, 39
3, 89520, Note_on_c, 0, 67, 0
3, 89520, Note_on_c, 0, 64, 42
3, 89640, Note_on_c, 0, 64, 0
3, 89640, Note_on_c, 0, 67, 39
3, 89760, Note_on_c, 0, 67, 0
3, 89760, Note_on_c, 0, 65, 46
3, 89880, Note_on_c, 0, 65, 0
3, 89880, Note_on_c, 0, 67, 40
3, 90000, Note_on_c, 0, 67, 0
3, 90000, Note_on_c, 0, 62, 43
3, 90120, Note_on_c, 0, 62, 0
3, 90120, Note_on_c, 0, 67, 39
3, 90240, Note_on_c, 0, 67, 0
3, 90240, Note_on_c, 0, 59, 51
3, 90360, Note_on_c, 0, 59, 0
3, 90360, Note_on_c, 0, 67, 39
3, 90480, Note_on_c, 0, 67, 0
3, 90480, Note_on_c, 0, 62, 43
3, 90600, Note_on_c, 0, 62, 0
3, 90600, Note_on_c, 0, 67, 39
3, 90720, Note_on_c, 0, 67, 0
3, 90720, Note_on_c, 0, 59, 57
3, 90840, Note_on_c, 0, 59, 0
3, 90840, Note_on_c, 0, 67, 44
3, 90960, Note_on_c, 0, 67, 0
3, 90960, Note_on_c, 0, 55, 46
3, 91080, Note_on_c, 0, 55, 0
3, 91080, Note_on_c, 0, 67, 44
3, 91200, Note_on_c, 0, 67, 0
3, 91200, Note_on_c, 0, 60, 55
3, 91264, Control_c, 0, 64, 127
3, 91320, Note_on_c, 0, 60, 0
3, 91320, Note_on_c, 0, 67, 46
3, 91440, Note_on_c, 0, 67, 0
3, 91440, Note_on_c, 0, 65, 50
3, 91560, Note_on_c, 0, 65, 0
3, 91560, Note_on_c, 0, 67, 46
3, 91616, Control_c, 0, 64, 0
3, 91680, Note_on_c, 0, 67, 0
3, 91680, Note_on_c, 0, 60, 55
3, 91800, Note_on_c, 0, 60, 0
3, 91800, Note_on_c, 0, 67, 46
3, 91920, Note_on_c, 0, 67, 0
3, 91920, Note_on_c, 0, 64, 50
3, 92040, Note_on_c, 0, 64, 0
3, 92040, Note_on_c, 0, 67, 46
3, 92160, Note_on_c, 0, 67, 0
3, 92160, Note_on_c, 0, 60, 59
3, 92192, Control_c, 0, 64, 127
3, 92240, Note_on_c, 0, 60, 0
3, 92240, Note_on_c, 0, 64, 54
3, 92320, Note_on_c, 0, 64, 0
3, 92320, Note_on_c, 0, 67, 54
3, 92400, Note_on_c, 0, 67, 0
3, 92400, Note_on_c, 0, 72, 57
3, 92608, Control_c, 0, 64, 0
3, 92640, Note_on_c, 0, 72, 0
3, 93120, Note_on_c, 0, 59, 59
3, 93141, Control_c, 0, 64, 127
3, 93200, Note_on_c, 0, 59, 0
3, 93200, Note_on_c, 0, 62, 54
3, 93280, Note_on_c, 0, 62, 0
3, 93280, Note_on_c, 0, 67, 54
3, 93360, Note_on_c, 0, 67, 0
3, 93360, Note_on_c, 0, 71, 59
3, 93558, Control_c, 0, 64, 0
3, 93600, Note_on_c, 0, 71, 0
3, 94080, Note_on_c, 0, 54, 62
3, 94080, Note_on_c, 0, 57, 62
3, 94080, Note_on_c, 0, 62, 62
3, 94108, Control_c, 0, 64, 127
3, 94320, Note_on_c, 0, 62, 0
3, 94320, Note_on_c, 0, 57, 0
3, 94320, Note_on_c, 0, 54, 0
3, 94560, Note_on_c, 0, 62, 64
3, 94560, Note_on_c, 0, 59, 64
3, 94560, Note_on_c, 0, 55, 64
3, 94578, Control_c, 0, 64, 0
3, 94613, Control_c, 0, 64, 127
3, 94800, Note_on_c, 0, 55, 0
3, 94800, Note_on_c, 0, 59, 0
3, 94800, Note_on_c, 0, 62, 0
3, 94973, Control_c, 0, 64, 0
3, 95040, Note_on_c, 0, 50, 69
3, 95160, Note_on_c, 0, 50, 0
3, 95160, Note_on_c, 0, 62, 49
3, 95280, Note_on_c, 0, 62, 0
3, 95280, Note_on_c, 0, 61, 50
3, 95400, Note_on_c, 0, 61, 0
3, 95400, Note_on_c, 0, 62, 52
3, 95520, Note_on_c, 0, 62, 0
3, 95520, Note_on_c, 0, 61, 55
3, 95640, Note_on_c, 0, 61, 0
3, 95640, Note_on_c, 0, 62, 56
3, 95760, Note_on_c, 0, 62, 0
3, 95760, Note_on_c, 0, 60, 58
3, 95880, Note_on_c, 0, 60, 0
3, 95880, Note_on_c, 0, 62, 60
3, 96000, Note_on_c, 0, 62, 0
3, 96000, Note_on_c, 0, 59, 60
3, 96006, Control_c, 0, 64, 127
3, 96120, Note_on_c, 0, 59, 0
3, 96120, Note_on_c, 0, 62, 55
3, 96240, Note_on_c, 0, 62, 0
3, 96240, Note_on_c, 0, 59, 44
3, 96360, Note_on_c, 0, 59, 0
3, 96360, Note_on_c, 0, 62, 38
3, 96389, Control_c, 0, 64, 0
3, 96480, Note_on_c, 0, 62, 0
3, 96480, Note_on_c, 0, 59, 46
3, 96600, Note_on_c, 0, 59, 0
3, 96600, Note_on_c, 0, 62, 40
3, 96720, Note_on_c, 0, 62, 0
3, 96720, Note_on_c, 0, 55, 44
3, 96840, Note_on_c, 0, 55, 0
3, 96840, Note_on_c, 0, 62, 43
3, 96960, Note_on_c, 0, 62, 0
3, 96960, Note_on_c, 0, 57, 46
3, 97080, Note_on_c, 0, 57, 0
3, 97080, Note_on_c, 0, 62, 43
3, 97200, Note_on_c, 0, 62, 0
3, 97200, Note_on_c, 0, 55, 46
3, 97320, Note_on_c, 0, 55, 0
3, 97320, Note_on_c, 0, 62, 43
3, 97440, Note_on_c, 0, 62, 0
3, 97440, Note_on_c, 0, 54, 46
3, 97560, Note_on_c, 0, 54, 0
3, 97560, Note_on_c, 0, 62, 43
3, 97680, Note_on_c, 0, 62, 0
3, 97680, Note_on_c, 0, 50, 46
3, 97800, Note_on_c, 0, 50, 0
3, 97800, Note_on_c, 0, 62, 43
3, 97920, Note_on_c, 0, 62, 0
3, 97920, Note_on_c, 0, 55, 48
3, 97937, Control_c, 0, 64, 127
3, 98040, Note_on_c, 0, 55, 0
3, 98040, Note_on_c, 0, 62, 43
3, 98154, Control_c, 0, 64, 0
3, 98160, Note_on_c, 0, 62, 0
3, 98160, Note_on_c, 0, 61, 43
3, 98183, Control_c, 0, 64, 127
3, 98280, Note_on_c, 0, 61, 0
3, 98280, Note_on_c, 0, 62, 43
3, 98326, Control_c, 0, 64, 0
3, 98400, Note_on_c, 0, 62, 0
3, 98400, Note_on_c, 0, 61, 49
3, 98520, Note_on_c, 0, 61, 0
3, 98520, Note_on_c, 0, 62, 52
3, 98640, Note_on_c, 0, 62, 0
3, 98640, Note_on_c, 0, 64, 55
3, 98760, Note_on_c, 0, 64, 0
3, 98760, Note_on_c, 0, 62, 52
3, 98880, Note_on_c, 0, 62, 0
3, 98880, Note_on_c, 0, 60, 60
3, 99000, Note_on_c, 0, 60, 0
3, 99000, Note_on_c, 0, 62, 58
3, 99120, Note_on_c, 0, 62, 0
3, 99120, Note_on_c, 0, 59, 60
3, 99240, Note_on_c, 0, 59, 0
3, 99240, Note_on_c, 0, 62, 58
3, 99360, Note_on_c, 0, 62, 0
3, 99360, Note_on_c, 0, 60, 60
3, 99480, Note_on_c, 0, 60, 0
3, 99480, Note_on_c, 0, 62, 58
3, 99600, Note_on_c, 0, 62, 0
3, 99600, Note_on_c, 0, 57, 60
3, 99720, Note_on_c, 0, 57, 0
3, 99720, Note_on_c, 0, 62, 58
3, 99840, Note_on_c, 0, 62, 0
3, 99840, Note_on_c, 0, 59, 60
3, 99869, Control_c, 0, 64, 127
3, 99960, Note_on_c, 0, 59, 0
3, 99960, Note_on_c, 0, 62, 53
3, 100080, Note_on_c, 0, 62, 0
3, 100080, Note_on_c, 0, 59, 44
3, 100200, Note_on_c, 0, 59, 0
3, 100200, Note_on_c, 0, 62, 38
3, 100320, Note_on_c, 0, 62, 0
3, 100320, Note_on_c, 0, 59, 46
3, 100326, Control_c, 0, 64, 0
3, 100440, Note_on_c, 0, 59, 0
3, 100440, Note_on_c, 0, 62, 38
3, 100560, Note_on_c, 0, 62, 0
3, 100560, Note_on_c, 0, 55, 44
3, 100680, Note_on_c, 0, 55, 0
3, 100680, Note_on_c, 0, 62, 38
3, 100800, Note_on_c, 0, 62, 0
3, 100800, Note_on_c, 0, 57, 46
3, 100920, Note_on_c, 0, 57, 0
3, 100920, Note_on_c, 0, 62, 43
3, 101040, Note_on_c, 0, 62, 0
3, 101040, Note_on_c, 0, 55, 46
3, 101160, Note_on_c, 0, 55, 0
3, 101160, Note_on_c, 0, 62, 43
3, 101280, Note_on_c, 0, 62, 0
3, 101280, Note_on_c, 0, 54, 46
3, 101400, Note_on_c, 0, 54, 0
3, 101400, Note_on_c, 0, 62, 43
3, 101520, Note_on_c, 0, 62, 0
3, 101520, Note_on_c, 0, 50, 46
3, 101640, Note_on_c, 0, 50, 0
3, 101640, Note_on_c, 0, 62, 43
3, 101760, Note_on_c, 0, 62, 0
3, 101760, Control_c, 0, 64, 127
3, 101760, Note_on_c, 0, 55, 46
3, 101880, Note_on_c, 0, 55, 0
3, 101880, Note_on_c, 0, 62, 43
3, 102000, Note_on_c, 0, 62, 0
3, 102000, Note_on_c, 0, 59, 46
3, 102120, Note_on_c, 0, 59, 0
3, 102120, Note_on_c, 0, 62, 43
3, 102234, Control_c, 0, 64, 0
3, 102240, Note_on_c, 0, 62, 0
3, 102240, Note_on_c, 0, 55, 46
3, 102254, Control_c, 0, 64, 127
3, 102360, Note_on_c, 0, 55, 0
3, 102360, Note_on_c, 0, 64, 36
3, 102443, Control_c, 0, 64, 0
3, 102480, Note_on_c, 0, 64, 0
3, 102480, Note_on_c, 0, 60, 41
3, 102600, Note_on_c, 0, 60, 0
3, 102600, Note_on_c, 0, 64, 36
3, 102720, Note_on_c, 0, 64, 0
3, 102720, Note_on_c, 0, 55, 41
3, 102748, Control_c, 0, 64, 127
3, 102840, Note_on_c, 0, 55, 0
3, 102840, Note_on_c, 0, 62, 37
3, 102960, Note_on_c, 0, 62, 0
3, 102960, Note_on_c, 0, 59, 41
3, 103080, Note_on_c, 0, 59, 0
3, 103080, Note_on_c, 0, 62, 39
3, 103194, Control_c, 0, 64, 0
3, 103200, Note_on_c, 0, 62, 0
3, 103200, Note_on_c, 0, 53, 41
3, 103228, Control_c, 0, 64, 127
3, 103320, Note_on_c, 0, 53, 0
3, 103320, Note_on_c, 0, 60, 37
3, 103440, Note_on_c, 0, 60, 0
3, 103440, Control_c, 0, 64, 0
3, 103440, Note_on_c, 0, 57, 41
3, 103560, Note_on_c, 0, 57, 0
3, 103560, Note_on_c, 0, 60, 37
3, 103680, Note_on_c, 0, 60, 0
3, 103680, Note_on_c, 0, 52, 41
3, 103693, Control_c, 0, 64, 127
3, 103800, Note_on_c, 0, 52, 0
3, 103800, Note_on_c, 0, 60, 37
3, 103920, Note_on_c, 0, 60, 0
3, 103920, Note_on_c, 0, 55, 41
3, 104040, Note_on_c, 0, 55, 0
3, 104040, Note_on_c, 0, 60, 37
3, 104160, Note_on_c, 0, 60, 0
3, 104160, Control_c, 0, 64, 0
3, 104160, Note_on_c, 0, 48, 50
3, 104185, Control_c, 0, 64, 127
3, 104280, Note_on_c, 0, 48, 0
3, 104280, Note_on_c, 0, 55, 43
3, 104375, Control_c, 0, 64, 0
3, 104400, Note_on_c, 0, 55, 0
3, 104400, Note_on_c, 0, 52, 50
3, 104520, Note_on_c, 0, 52, 0
3, 104520, Note_on_c, 0, 55, 42
3, 104640, Note_on_c, 0, 55, 0
3, 104640, Note_on_c, 0, 50, 49
3, 104760, Note_on_c, 0, 50, 0
3, 104760, Note_on_c, 0, 59, 43
3, 104880, Note_on_c, 0, 59, 0
3, 104880, Note_on_c, 0, 55, 49
3, 105000, Note_on_c, 0, 55, 0
3, 105000, Note_on_c, 0, 59, 43
3, 105120, Note_on_c, 0, 59, 0
3, 105120, Note_on_c, 0, 50, 49
3, 105240, Note_on_c, 0, 50, 0
3, 105240, Note_on_c, 0, 60, 43
3, 105360, Note_on_c, 0, 60, 0
3, 105360, Note_on_c, 0, 54, 48
3, 105480, Note_on_c, 0, 54, 0
3, 105480, Note_on_c, 0, 60, 42
3, 105600, Note_on_c, 0, 60, 0
3, 105600, Note_on_c, 0, 55, 50
3, 105637, Control_c, 0, 64, 127
3, 105720, Note_on_c, 0, 55, 0
3, 105720, Note_on_c, 0, 62, 44
3, 105840, Note_on_c, 0, 62, 0
3, 105840, Note_on_c, 0, 59, 50
3, 105844, Control_c, 0, 64, 0
3, 105861, Control_c, 0, 64, 127
3, 105960, Note_on_c, 0, 59, 0
3, 105960, Note_on_c, 0, 62, 43
3, 106070, Control_c, 0, 64, 0
3, 106080, Note_on_c, 0, 62, 0
3, 106080, Note_on_c, 0, 55, 41
3, 106086, Control_c, 0, 64, 127
3, 106200, Note_on_c, 0, 55, 0
3, 106200, Note_on_c, 0, 64, 37
3, 106293, Control_c, 0, 64, 0
3, 106320, Note_on_c, 0, 64, 0
3, 106320, Note_on_c, 0, 60, 41
3, 106440, Note_on_c, 0, 60, 0
3, 106440, Note_on_c, 0, 64, 37
3, 106560, Note_on_c, 0, 64, 0
3, 106560, Note_on_c, 0, 55, 41
3, 106566, Control_c, 0, 64, 127
3, 106680, Note_on_c, 0, 55, 0
3, 106680, Note_on_c, 0, 62, 37
3, 106800, Note_on_c, 0, 62, 0
3, 106800, Note_on_c, 0, 59, 41
3, 106920, Note_on_c, 0, 59, 0
3, 106920, Note_on_c, 0, 62, 37
3, 107040, Note_on_c, 0, 62, 0
3, 107040, Note_on_c, 0, 53, 41
3, 107043, Control_c, 0, 64, 0
3, 107068, Control_c, 0, 64, 127
3, 107160, Note_on_c, 0, 53, 0
3, 107160, Note_on_c, 0, 60, 36
3, 107223, Control_c, 0, 64, 0
3, 107280, Note_on_c, 0, 60, 0
3, 107280, Note_on_c, 0, 57, 41
3, 107400, Note_on_c, 0, 57, 0
3, 107400, Note_on_c, 0, 60, 36
3, 107520, Note_on_c, 0, 60, 0
3, 107520, Note_on_c, 0, 52, 43
3, 107533, Control_c, 0, 64, 127
3, 107640, Note_on_c, 0, 52, 0
3, 107640, Note_on_c, 0, 60, 37
3, 107760, Note_on_c, 0, 60, 0
3, 107760, Note_on_c, 0, 55, 42
3, 107880, Note_on_c, 0, 55, 0
3, 107880, Note_on_c, 0, 60, 36
3, 107994, Control_c, 0, 64, 0
3, 108000, Note_on_c, 0, 60, 0
3, 108000, Note_on_c, 0, 48, 52
3, 108016, Control_c, 0, 64, 127
3, 108120, Note_on_c, 0, 48, 0
3, 108120, Note_on_c, 0, 55, 47
3, 108208, Control_c, 0, 64, 0
3, 108240, Note_on_c, 0, 55, 0
3, 108240, Note_on_c, 0, 52, 50
3, 108360, Note_on_c, 0, 52, 0
3, 108360, Note_on_c, 0, 55, 46
3, 108480, Note_on_c, 0, 55, 0
3, 108480, Note_on_c, 0, 50, 50
3, 108600, Note_on_c, 0, 50, 0
3, 108600, Note_on_c, 0, 59, 46
3, 108720, Note_on_c, 0, 59, 0
3, 108720, Note_on_c, 0, 55, 49
3, 108840, Note_on_c, 0, 55, 0
3, 108840, Note_on_c, 0, 59, 41
3, 108960, Note_on_c, 0, 59, 0
3, 108960, Note_on_c, 0, 50, 48
3, 109080, Note_on_c, 0, 50, 0
3, 109080, Note_on_c, 0, 60, 42
3, 109200, Note_on_c, 0, 60, 0
3, 109200, Note_on_c, 0, 57, 48
3, 109320, Note_on_c, 0, 57, 0
3, 109320, Note_on_c, 0, 60, 41
3, 109440, Note_on_c, 0, 60, 0
3, 109666, Control_c, 0, 64, 127
3, 109680, Note_on_c, 0, 55, 48
3, 109680, Note_on_c, 0, 59, 48
3, 109920, Note_on_c, 0, 59, 0
3, 109920, Note_on_c, 0, 55, 0
3, 109920, Note_on_c, 0, 57, 55
3, 109920, Note_on_c, 0, 60, 55
3, 109926, Control_c, 0, 64, 0
3, 109943, Control_c, 0, 64, 127
3, 110131, Control_c, 0, 64, 0
3, 110157, Control_c, 0, 64, 127
3, 110160, Note_on_c, 0, 60, 0
3, 110160, Note_on_c, 0, 57, 0
3, 110160, Note_on_c, 0, 62, 60
3, 110160, Note_on_c, 0, 59, 60
3, 110329, Control_c, 0, 64, 0
3, 110400, Note_on_c, 0, 59, 0
3, 110400, Note_on_c, 0, 62, 0
3, 110620, Control_c, 0, 64, 127
3, 110640, Note_on_c, 0, 50, 46
3, 110640, Note_on_c, 0, 54, 46
3, 110880, Note_on_c, 0, 54, 0
3, 110880, Note_on_c, 0, 50, 0
3, 110880, Note_on_c, 0, 52, 50
3, 110880, Note_on_c, 0, 55, 50
3, 110886, Control_c, 0, 64, 0
3, 110911, Control_c, 0, 64, 127
3, 111097, Control_c, 0, 64, 0
3, 111120, Note_on_c, 0, 55, 0
3, 111120, Note_on_c, 0, 52, 0
3, 111120, Control_c, 0, 64, 127
3, 111120, Note_on_c, 0, 54, 55
3, 111120, Note_on_c, 0, 57, 55
3, 111300, Control_c, 0, 64, 0
3, 111360, Note_on_c, 0, 57, 0
3, 111360, Note_on_c, 0, 54, 0
3, 111589, Control_c, 0, 64, 127
3, 111600, Note_on_c, 0, 55, 48
3, 111600, Note_on_c, 0, 59, 48
3, 111840, Note_on_c, 0, 59, 0
3, 111840, Note_on_c, 0, 55, 0
3, 111840, Note_on_c, 0, 57, 55
3, 111840, Note_on_c, 0, 60, 55
3, 111854, Control_c, 0, 64, 0
3, 111866, Control_c, 0, 64, 127
3, 112069, Control_c, 0, 64, 0
3, 112080, Note_on_c, 0, 60, 0
3, 112080, Note_on_c, 0, 57, 0
3, 112080, Note_on_c, 0, 62, 60
3, 112080, Note_on_c, 0, 59, 60
3, 112091, Control_c, 0, 64, 127
3, 112283, Control_c, 0, 64, 0
3, 112320, Note_on_c, 0, 59, 0
3, 112320, Note_on_c, 0, 62, 0
3, 112546, Control_c, 0, 64, 127
3, 112560, Note_on_c, 0, 50, 46
3, 112560, Note_on_c, 0, 54, 46
3, 112800, Note_on_c, 0, 54, 0
3, 112800, Note_on_c, 0, 50, 0
3, 112800, Note_on_c, 0, 52, 50
3, 112800, Note_on_c, 0, 55, 50
3, 112820, Control_c, 0, 64, 0
3, 112843, Control_c, 0, 64, 127
3, 113040, Note_on_c, 0, 55, 0
3, 113040, Note_on_c, 0, 52, 0
3, 113040, Note_on_c, 0, 54, 55
3, 113040, Note_on_c, 0, 57, 55
3, 113074, Control_c, 0, 64, 0
3, 113097, Control_c, 0, 64, 127
3, 113280, Note_on_c, 0, 57, 0
3, 113280, Note_on_c, 0, 54, 0
3, 113280, Note_on_c, 0, 55, 55
3, 113284, Control_c, 0, 64, 0
3, 113347, Control_c, 0, 64, 127
3, 113760, Note_on_c, 0, 55, 0
3, 114240, Note_on_c, 0, 55, 55
3, 114240, Note_on_c, 0, 43, 55
3, 114240, Note_on_c, 0, 47, 55
3, 114240, Note_on_c, 0, 50, 55
3, 114261, Control_c, 0, 64, 0
3, 114265, Control_c, 0, 64, 127
3, 115084, Control_c, 0, 64, 0
3, 115200, Note_on_c, 0, 50, 0
3, 115200, Note_on_c, 0, 47, 0
3, 115200, Note_on_c, 0, 43, 0
3, 115200, Note_on_c, 0, 48, 48
3, 115680, Note_on_c, 0, 48, 0
3, 115680, Note_on_c, 0, 55, 0
3, 116231, Control_c, 0, 64, 127
3, 116400, Note_on_c, 0, 49, 46
3, 116400, Note_on_c, 0, 58, 46
3, 116633, Control_c, 0, 64, 0
3, 116640, Note_on_c, 0, 58, 0
3, 116640, Note_on_c, 0, 49, 0
3, 116640, Note_on_c, 0, 50, 50
3, 116640, Note_on_c, 0, 59, 50
3, 116682, Control_c, 0, 64, 127
3, 116838, Control_c, 0, 64, 0
3, 116880, Note_on_c, 0, 59, 0
3, 116880, Note_on_c, 0, 50, 0
3, 116880, Note_on_c, 0, 60, 55
3, 117120, Note_on_c, 0, 60, 0
3, 117120, Note_on_c, 0, 59, 55
3, 117120, Note_on_c, 0, 55, 55
3, 117173, Control_c, 0, 64, 127
3, 117600, Note_on_c, 0, 55, 0
3, 117600, Note_on_c, 0, 59, 0
3, 118055, Control_c, 0, 64, 0
3, 118080, Note_on_c, 0, 55, 55
3, 118080, Note_on_c, 0, 43, 55
3, 118080, Note_on_c, 0, 47, 55
3, 118080, Note_on_c, 0, 50, 55
3, 118098, Control_c, 0, 64, 127
3, 118969, Control_c, 0, 64, 0
3, 119040, Note_on_c, 0, 50, 0
3, 119040, Note_on_c, 0, 47, 0
3, 119040, Note_on_c, 0, 43, 0
3, 119040, Note_on_c, 0, 48, 48
3, 119520, Note_on_c, 0, 48, 0
3, 119520, Note_on_c, 0, 55, 0
3, 120000, Note_on_c, 0, 49, 52
3, 120000, Note_on_c, 0, 58, 52
3, 120480, Note_on_c, 0, 58, 0
3, 120480, Note_on_c, 0, 49, 0
3, 120960, Note_on_c, 0, 50, 59
3, 120974, Control_c, 0, 64, 127
3, 121080, Note_on_c, 0, 50, 0
3, 121080, Note_on_c, 0, 59, 50
3, 121200, Note_on_c, 0, 59, 0
3, 121200, Note_on_c, 0, 55, 52
3, 121320, Note_on_c, 0, 55, 0
3, 121320, Note_on_c, 0, 59, 49
3, 121429, Control_c, 0, 64, 0
3, 121440, Note_on_c, 0, 59, 0
3, 121440, Note_on_c, 0, 50, 59
3, 121458, Control_c, 0, 64, 127
3, 121560, Note_on_c, 0, 50, 0
3, 121560, Note_on_c, 0, 59, 50
3, 121680, Note_on_c, 0, 59, 0
3, 121680, Note_on_c, 0, 55, 52
3, 121800, Note_on_c, 0, 55, 0
3, 121800, Note_on_c, 0, 59, 50
3, 121920, Note_on_c, 0, 59, 0
3, 121920, Note_on_c, 0, 50, 54
3, 121924, Control_c, 0, 64, 0
3, 121959, Control_c, 0, 64, 127
3, 122040, Note_on_c, 0, 50, 0
3, 122040, Note_on_c, 0, 62, 46
3, 122160, Note_on_c, 0, 62, 0
3, 122160, Note_on_c, 0, 55, 48
3, 122280, Note_on_c, 0, 55, 0
3, 122280, Note_on_c, 0, 62, 45
3, 122389, Control_c, 0, 64, 0
3, 122400, Note_on_c, 0, 62, 0
3, 122400, Note_on_c, 0, 50, 49
3, 122414, Control_c, 0, 64, 127
3, 122520, Note_on_c, 0, 50, 0
3, 122520, Note_on_c, 0, 60, 37
3, 122640, Note_on_c, 0, 60, 0
3, 122640, Note_on_c, 0, 54, 41
3, 122760, Note_on_c, 0, 54, 0
3, 122760, Note_on_c, 0, 60, 38
3, 122880, Note_on_c, 0, 60, 0
3, 122880, Note_on_c, 0, 55, 44
3, 122883, Control_c, 0, 64, 0
3, 123000, Note_on_c, 0, 55, 0
3, 123000, Note_on_c, 0, 59, 38
3, 123023, Control_c, 0, 64, 127
3, 123120, Note_on_c, 0, 59, 0
3, 123120, Note_on_c, 0, 67, 40
3, 123240, Note_on_c, 0, 67, 0
3, 123240, Note_on_c, 0, 59, 37
3, 123360, Note_on_c, 0, 59, 0
3, 123360, Note_on_c, 0, 55, 44
3, 123363, Control_c, 0, 64, 0
3, 123397, Control_c, 0, 64, 127
3, 123480, Note_on_c, 0, 55, 0
3, 123480, Note_on_c, 0, 59, 37
3, 123600, Note_on_c, 0, 59, 0
3, 123600, Note_on_c, 0, 67, 40
3, 123720, Note_on_c, 0, 67, 0
3, 123720, Note_on_c, 0, 59, 37
3, 123806, Control_c, 0, 64, 0
3, 123840, Note_on_c, 0, 59, 0
3, 123840, Note_on_c, 0, 55, 44
3, 123960, Note_on_c, 0, 55, 0
3, 123960, Note_on_c, 0, 57, 38
3, 124080, Note_on_c, 0, 57, 0
3, 124080, Note_on_c, 0, 66, 40
3, 124200, Note_on_c, 0, 66, 0
3, 124200, Note_on_c, 0, 57, 37
3, 124320, Note_on_c, 0, 57, 0
3, 124320, Note_on_c, 0, 55, 44
3, 124440, Note_on_c, 0, 55, 0
3, 124440, Note_on_c, 0, 60, 38
3, 124560, Note_on_c, 0, 60, 0
3, 124560, Note_on_c, 0, 66, 41
3, 124680, Note_on_c, 0, 66, 0
3, 124680, Note_on_c, 0, 60, 38
3, 124800, Note_on_c, 0, 60, 0
3, 124800, Note_on_c, 0, 55, 44
3, 124837, Control_c, 0, 64, 127
3, 124920, Note_on_c, 0, 55, 0
3, 124920, Note_on_c, 0, 59, 38
3, 125040, Note_on_c, 0, 59, 0
3, 125040, Note_on_c, 0, 67, 40
3, 125160, Note_on_c, 0, 67, 0
3, 125160, Note_on_c, 0, 59, 39
3, 125280, Note_on_c, 0, 59, 0
3, 125280, Note_on_c, 0, 55, 44
3, 125289, Control_c, 0, 64, 0
3, 125317, Control_c, 0, 64, 127
3, 125400, Note_on_c, 0, 55, 0
3, 125400, Note_on_c, 0, 59, 38
3, 125520, Note_on_c, 0, 59, 0
3, 125520, Note_on_c, 0, 67, 40
3, 125640, Note_on_c, 0, 67, 0
3, 125640, Note_on_c, 0, 59, 38
3, 125726, Control_c, 0, 64, 0
3, 125760, Note_on_c, 0, 59, 0
3, 125760, Note_on_c, 0, 55, 44
3, 125880, Note_on_c, 0, 55, 0
3, 125880, Note_on_c, 0, 57, 38
3, 126000, Note_on_c, 0, 57, 0
3, 126000, Note_on_c, 0, 66, 40
3, 126120, Note_on_c, 0, 66, 0
3, 126120, Note_on_c, 0, 57, 38
3, 126240, Note_on_c, 0, 57, 0
3, 126240, Note_on_c, 0, 55, 44
3, 126360, Note_on_c, 0, 55, 0
3, 126360, Note_on_c, 0, 60, 38
3, 126480, Note_on_c, 0, 60, 0
3, 126480, Note_on_c, 0, 66, 41
3, 126600, Note_on_c, 0, 66, 0
3, 126600, Note_on_c, 0, 60, 37
3, 126720, Note_on_c, 0, 60, 0
3, 126720, Note_on_c, 0, 55, 44
3, 126748, Control_c, 0, 64, 127
3, 126840, Note_on_c, 0, 55, 0
3, 126840, Note_on_c, 0, 59, 38
3, 126960, Note_on_c, 0, 59, 0
3, 126960, Note_on_c, 0, 67, 41
3, 127080, Note_on_c, 0, 67, 0
3, 127080, Note_on_c, 0, 59, 38
3, 127200, Note_on_c, 0, 59, 0
3, 127200, Control_c, 0, 64, 0
3, 127200, Note_on_c, 0, 55, 44
3, 127222, Control_c, 0, 64, 127
3, 127320, Note_on_c, 0, 55, 0
3, 127320, Note_on_c, 0, 60, 37
3, 127440, Note_on_c, 0, 60, 0
3, 127440, Note_on_c, 0, 66, 41
3, 127560, Note_on_c, 0, 66, 0
3, 127560, Note_on_c, 0, 60, 37
3, 127680, Note_on_c, 0, 60, 0
3, 127680, Control_c, 0, 64, 0
3, 127680, Note_on_c, 0, 55, 44
3, 127718, Control_c, 0, 64, 127
3, 127800, Note_on_c, 0, 55, 0
3, 127800, Note_on_c, 0, 59, 38
3, 127920, Note_on_c, 0, 59, 0
3, 127920, Note_on_c, 0, 67, 41
3, 128040, Note_on_c, 0, 67, 0
3, 128040, Note_on_c, 0, 59, 37
3, 128147, Control_c, 0, 64, 0
3, 128160, Note_on_c, 0, 59, 0
3, 128160, Note_on_c, 0, 55, 44
3, 128182, Control_c, 0, 64, 127
3, 128280, Note_on_c, 0, 55, 0
3, 128280, Note_on_c, 0, 60, 37
3, 128400, Note_on_c, 0, 60, 0
3, 128400, Note_on_c, 0, 66, 41
3, 128520, Note_on_c, 0, 66, 0
3, 128520, Note_on_c, 0, 60, 37
3, 128602, Control_c, 0, 64, 0
3, 128640, Note_on_c, 0, 60, 0
3, 128640, Note_on_c, 0, 67, 39
3, 128640, Note_on_c, 0, 55, 39
3, 128640, Note_on_c, 0, 59, 39
3, 128880, Note_on_c, 0, 59, 0
3, 128880, Note_on_c, 0, 55, 0
3, 128880, Note_on_c, 0, 67, 0
3, 129360, Note_on_c, 0, 50, 37
3, 129600, Note_on_c, 0, 50, 0
3, 129600, Note_on_c, 0, 55, 42
3, 129614, Control_c, 0, 64, 127
3, 129840, Note_on_c, 0, 55, 0
3, 129840, Note_on_c, 0, 50, 41
3, 130080, Note_on_c, 0, 50, 0
3, 130080, Control_c, 0, 64, 0
3, 130080, Note_on_c, 0, 43, 42
3, 130151, Control_c, 0, 64, 127
3, 130320, Note_on_c, 0, 43, 0
3, 130320, Control_c, 0, 64, 0
3, 130560, Control_c, 0, 64, 127
3, 130560, Note_on_c, 0, 62, 49
3, 130560, Note_on_c, 0, 59, 49
3, 130560, Control_c, 0, 91, 127
3, 130800, Note_on_c, 0, 59, 0
3, 130800, Note_on_c, 0, 55, 47
3, 131040, Note_on_c, 0, 55, 0
3, 131040, Note_on_c, 0, 62, 0
3, 131040, Note_on_c, 0, 62, 51
3, 131040, Note_on_c, 0, 55, 51
3, 131049, Control_c, 0, 64, 0
3, 131160, Note_on_c, 0, 55, 0
3, 131160, Note_on_c, 0, 62, 0
3, 131280, Note_on_c, 0, 62, 47
3, 131280, Note_on_c, 0, 55, 47
3, 131296, Control_c, 0, 64, 127
3, 131469, Control_c, 0, 64, 0
3, 131520, Note_on_c, 0, 55, 0
3, 131520, Note_on_c, 0, 62, 0
3, 131520, Note_on_c, 0, 59, 51
3, 131520, Note_on_c, 0, 62, 51
3, 131760, Note_on_c, 0, 59, 0
3, 131760, Note_on_c, 0, 57, 48
3, 131880, Note_on_c, 0, 57, 0
3, 132000, Note_on_c, 0, 62, 0
3, 132000, Note_on_c, 0, 54, 48
3, 132000, Note_on_c, 0, 62, 48
3, 132480, Note_on_c, 0, 62, 0
3, 132480, Note_on_c, 0, 54, 0
3, 132480, Note_on_c, 0, 62, 52
3, 132480, Note_on_c, 0, 57, 52
3, 132536, Control_c, 0, 64, 127
3, 132720, Note_on_c, 0, 57, 0
3, 132720, Note_on_c, 0, 55, 48
3, 132776, Control_c, 0, 64, 0
3, 132840, Note_on_c, 0, 55, 0
3, 132960, Note_on_c, 0, 62, 0
3, 132960, Note_on_c, 0, 62, 51
3, 132960, Note_on_c, 0, 59, 51
3, 132995, Control_c, 0, 64, 127
3, 133200, Note_on_c, 0, 59, 0
3, 133200, Note_on_c, 0, 57, 48
3, 133313, Control_c, 0, 64, 0
3, 133320, Note_on_c, 0, 57, 0
3, 133440, Note_on_c, 0, 62, 0
3, 133440, Note_on_c, 0, 62, 62
3, 133440, Note_on_c, 0, 60, 62
3, 133525, Control_c, 0, 64, 127
3, 133920, Note_on_c, 0, 60, 0
3, 133920, Note_on_c, 0, 59, 50
3, 133948, Control_c, 0, 64, 0
3, 134160, Note_on_c, 0, 59, 0
3, 134160, Note_on_c, 0, 62, 0
3, 134413, Control_c, 0, 64, 127
3, 134880, Note_on_c, 0, 47, 48
3, 134880, Note_on_c, 0, 50, 48
3, 135125, Control_c, 0, 64, 0
3, 135136, Control_c, 0, 64, 127
3, 135360, Note_on_c, 0, 50, 0
3, 135360, Note_on_c, 0, 47, 0
3, 135360, Control_c, 0, 64, 0
3, 135360, Note_on_c, 0, 48, 48
3, 135360, Note_on_c, 0, 52, 48
3, 135438, Control_c, 0, 64, 127
3, 135642, Control_c, 0, 64, 0
3, 135840, Note_on_c, 0, 52, 0
3, 135840, Note_on_c, 0, 48, 0
3, 135840, Note_on_c, 0, 49, 51
3, 135840, Note_on_c, 0, 55, 51
3, 135868, Control_c, 0, 64, 127
3, 136320, Note_on_c, 0, 55, 0
3, 136320, Note_on_c, 0, 49, 0
3, 136320, Control_c, 0, 64, 0
3, 136320, Note_on_c, 0, 50, 43
3, 136320, Note_on_c, 0, 59, 43
3, 136366, Control_c, 0, 64, 127
3, 136674, Control_c, 0, 64, 0
3, 136800, Note_on_c, 0, 59, 0
3, 136800, Note_on_c, 0, 57, 43
3, 136851, Control_c, 0, 64, 127
3, 137109, Control_c, 0, 64, 0
3, 137280, Note_on_c, 0, 57, 0
3, 137280, Note_on_c, 0, 50, 0
3, 137280, Note_on_c, 0, 60, 49
3, 137280, Note_on_c, 0, 55, 49
3, 137365, Control_c, 0, 64, 127
3, 137760, Note_on_c, 0, 60, 0
3, 137760, Note_on_c, 0, 59, 44
3, 137901, Control_c, 0, 64, 0
3, 138000, Note_on_c, 0, 59, 0
3, 138000, Note_on_c, 0, 55, 0
3, 138240, Note_on_c, 0, 59, 48
3, 138268, Control_c, 0, 64, 127
3, 138360, Note_on_c, 0, 59, 0
3, 138360, Note_on_c, 0, 62, 37
3, 138480, Note_on_c, 0, 62, 0
3, 138480, Note_on_c, 0, 55, 44
3, 138600, Note_on_c, 0, 55, 0
3, 138600, Note_on_c, 0, 62, 38
3, 138720, Note_on_c, 0, 62, 0
3, 138720, Note_on_c, 0, 55, 48
3, 138840, Note_on_c, 0, 55, 0
3, 138840, Note_on_c, 0, 62, 40
3, 138954, Control_c, 0, 64, 0
3, 138960, Note_on_c, 0, 62, 0
3, 138960, Note_on_c, 0, 56, 46
3, 138982, Control_c, 0, 64, 127
3, 139080, Note_on_c, 0, 56, 0
3, 139080, Note_on_c, 0, 62, 40
3, 139200, Note_on_c, 0, 62, 0
3, 139200, Control_c, 0, 64, 0
3, 139200, Note_on_c, 0, 57, 50
3, 139234, Control_c, 0, 64, 127
3, 139320, Note_on_c, 0, 57, 0
3, 139320, Note_on_c, 0, 62, 39
3, 139411, Control_c, 0, 64, 0
3, 139440, Note_on_c, 0, 62, 0
3, 139440, Note_on_c, 0, 55, 44
3, 139457, Control_c, 0, 64, 127
3, 139560, Note_on_c, 0, 55, 0
3, 139560, Note_on_c, 0, 62, 38
3, 139657, Control_c, 0, 64, 0
3, 139680, Note_on_c, 0, 62, 0
3, 139680, Note_on_c, 0, 54, 48
3, 139703, Control_c, 0, 64, 127
3, 139800, Note_on_c, 0, 54, 0
3, 139800, Note_on_c, 0, 62, 44
3, 139920, Note_on_c, 0, 62, 0
3, 139920, Note_on_c, 0, 50, 48
3, 140040, Note_on_c, 0, 50, 0
3, 140040, Note_on_c, 0, 62, 43
3, 140160, Note_on_c, 0, 62, 0
3, 140160, Control_c, 0, 64, 0
3, 140160, Note_on_c, 0, 55, 48
3, 140202, Control_c, 0, 64, 127
3, 140280, Note_on_c, 0, 55, 0
3, 140280, Note_on_c, 0, 67, 43
3, 140400, Note_on_c, 0, 67, 0
3, 140400, Note_on_c, 0, 59, 48
3, 140442, Control_c, 0, 64, 0
3, 140520, Note_on_c, 0, 59, 0
3, 140520, Note_on_c, 0, 67, 42
3, 140640, Note_on_c, 0, 67, 0
3, 140640, Note_on_c, 0, 57, 51
3, 140689, Control_c, 0, 64, 127
3, 140760, Note_on_c, 0, 57, 0
3, 140760, Note_on_c, 0, 67, 48
3, 140880, Note_on_c, 0, 67, 0
3, 140880, Note_on_c, 0, 60, 51
3, 140908, Control_c, 0, 64, 0
3, 141000, Note_on_c, 0, 60, 0
3, 141000, Note_on_c, 0, 67, 48
3, 141120, Note_on_c, 0, 67, 0
3, 141120, Note_on_c, 0, 60, 58
3, 141191, Control_c, 0, 64, 127
3, 141240, Note_on_c, 0, 60, 0
3, 141240, Note_on_c, 0, 67, 47
3, 141360, Note_on_c, 0, 67, 0
3, 141360, Note_on_c, 0, 64, 51
3, 141480, Note_on_c, 0, 64, 0
3, 141480, Note_on_c, 0, 67, 47
3, 141600, Note_on_c, 0, 67, 0
3, 141600, Control_c, 0, 64, 0
3, 141600, Note_on_c, 0, 59, 51
3, 141649, Control_c, 0, 64, 127
3, 141720, Note_on_c, 0, 59, 0
3, 141720, Note_on_c, 0, 67, 42
3, 141840, Note_on_c, 0, 67, 0
3, 141840, Note_on_c, 0, 62, 47
3, 141960, Note_on_c, 0, 62, 0
3, 141960, Note_on_c, 0, 67, 43
3, 142080, Note_on_c, 0, 67, 0
3, 142080, Control_c, 0, 64, 0
3, 142080, Note_on_c, 0, 57, 49
3, 142144, Control_c, 0, 64, 127
3, 142200, Note_on_c, 0, 57, 0
3, 142200, Note_on_c, 0, 67, 44
3, 142320, Note_on_c, 0, 67, 0
3, 142320, Note_on_c, 0, 60, 49
3, 142440, Note_on_c, 0, 60, 0
3, 142440, Note_on_c, 0, 67, 43
3, 142447, Control_c, 0, 64, 0
3, 142560, Note_on_c, 0, 67, 0
3, 142560, Note_on_c, 0, 59, 52
3, 142631, Control_c, 0, 64, 127
3, 142680, Note_on_c, 0, 59, 0
3, 142680, Note_on_c, 0, 67, 46
3, 142800, Note_on_c, 0, 67, 0
3, 142800, Note_on_c, 0, 62, 50
3, 142920, Note_on_c, 0, 62, 0
3, 142920, Note_on_c, 0, 67, 46
3, 142984, Control_c, 0, 64, 0
3, 143040, Note_on_c, 0, 67, 0
3, 143040, Note_on_c, 0, 62, 62
3, 143104, Control_c, 0, 64, 127
3, 143160, Note_on_c, 0, 62, 0
3, 143160, Note_on_c, 0, 67, 48
3, 143280, Note_on_c, 0, 67, 0
3, 143280, Note_on_c, 0, 65, 52
3, 143400, Note_on_c, 0, 65, 0
3, 143400, Note_on_c, 0, 67, 47
3, 143520, Note_on_c, 0, 67, 0
3, 143520, Note_on_c, 0, 60, 52
3, 143548, Control_c, 0, 64, 0
3, 143626, Control_c, 0, 64, 127
3, 143640, Note_on_c, 0, 60, 0
3, 143640, Note_on_c, 0, 67, 46
3, 143760, Note_on_c, 0, 67, 0
3, 143760, Note_on_c, 0, 64, 49
3, 143880, Note_on_c, 0, 64, 0
3, 143880, Note_on_c, 0, 67, 46
3, 144000, Note_on_c, 0, 67, 0
3, 144000, Control_c, 0, 64, 0
3, 144000, Note_on_c, 0, 59, 51
3, 144042, Control_c, 0, 64, 127
3, 144120, Note_on_c, 0, 59, 0
3, 144120, Note_on_c, 0, 67, 48
3, 144240, Note_on_c, 0, 67, 0
3, 144240, Note_on_c, 0, 62, 51
3, 144360, Note_on_c, 0, 62, 0
3, 144360, Note_on_c, 0, 67, 46
3, 144367, Control_c, 0, 64, 0
3, 144480, Note_on_c, 0, 67, 0
3, 144480, Note_on_c, 0, 60, 56
3, 144544, Control_c, 0, 64, 127
3, 144600, Note_on_c, 0, 60, 0
3, 144600, Note_on_c, 0, 67, 51
3, 144720, Note_on_c, 0, 67, 0
3, 144720, Note_on_c, 0, 64, 56
3, 144840, Note_on_c, 0, 64, 0
3, 144840, Note_on_c, 0, 67, 51
3, 144868, Control_c, 0, 64, 0
3, 144960, Note_on_c, 0, 67, 0
3, 144960, Note_on_c, 0, 64, 64
3, 145006, Control_c, 0, 64, 127
3, 145080, Note_on_c, 0, 64, 0
3, 145080, Note_on_c, 0, 67, 52
3, 145200, Note_on_c, 0, 67, 0
3, 145200, Note_on_c, 0, 66, 56
3, 145320, Note_on_c, 0, 66, 0
3, 145320, Note_on_c, 0, 67, 51
3, 145417, Control_c, 0, 64, 0
3, 145440, Note_on_c, 0, 67, 0
3, 145440, Note_on_c, 0, 62, 56
3, 145480, Control_c, 0, 64, 127
3, 145560, Note_on_c, 0, 62, 0
3, 145560, Note_on_c, 0, 67, 48
3, 145680, Note_on_c, 0, 67, 0
3, 145680, Note_on_c, 0, 66, 51
3, 145800, Note_on_c, 0, 66, 0
3, 145800, Note_on_c, 0, 67, 47
3, 145920, Note_on_c, 0, 67, 0
3, 145920, Control_c, 0, 64, 0
3, 145920, Note_on_c, 0, 60, 50
3, 145959, Control_c, 0, 64, 127
3, 146040, Note_on_c, 0, 60, 0
3, 146040, Note_on_c, 0, 67, 44
3, 146160, Note_on_c, 0, 67, 0
3, 146160, Note_on_c, 0, 66, 46
3, 146280, Note_on_c, 0, 66, 0
3, 146280, Note_on_c, 0, 67, 44
3, 146400, Note_on_c, 0, 67, 0
3, 146400, Note_on_c, 0, 59, 50
3, 146407, Control_c, 0, 64, 0
3, 146439, Control_c, 0, 64, 127
3, 146520, Note_on_c, 0, 59, 0
3, 146520, Note_on_c, 0, 67, 44
3, 146608, Control_c, 0, 64, 0
3, 146633, Control_c, 0, 64, 127
3, 146640, Note_on_c, 0, 67, 0
3, 146640, Note_on_c, 0, 60, 46
3, 146760, Note_on_c, 0, 60, 0
3, 146760, Note_on_c, 0, 67, 43
3, 146880, Note_on_c, 0, 67, 0
3, 146880, Control_c, 0, 64, 0
3, 146880, Note_on_c, 0, 55, 46
3, 146958, Control_c, 0, 64, 127
3, 147000, Note_on_c, 0, 55, 0
3, 147000, Note_on_c, 0, 67, 38
3, 147120, Note_on_c, 0, 67, 0
3, 147120, Note_on_c, 0, 59, 42
3, 147240, Note_on_c, 0, 59, 0
3, 147240, Note_on_c, 0, 67, 38
3, 147360, Note_on_c, 0, 67, 0
3, 147360, Note_on_c, 0, 55, 47
3, 147480, Note_on_c, 0, 55, 0
3, 147480, Note_on_c, 0, 67, 42
3, 147487, Control_c, 0, 64, 0
3, 147600, Note_on_c, 0, 67, 0
3, 147600, Note_on_c, 0, 59, 39
3, 147720, Note_on_c, 0, 59, 0
3, 147720, Note_on_c, 0, 67, 39
3, 147840, Note_on_c, 0, 67, 0
3, 147840, Note_on_c, 0, 55, 43
3, 147886, Control_c, 0, 64, 127
3, 147960, Note_on_c, 0, 55, 0
3, 147960, Note_on_c, 0, 67, 36
3, 148069, Control_c, 0, 64, 0
3, 148080, Note_on_c, 0, 67, 0
3, 148080, Note_on_c, 0, 60, 39
3, 148097, Control_c, 0, 64, 127
3, 148200, Note_on_c, 0, 60, 0
3, 148200, Note_on_c, 0, 67, 37
3, 148320, Note_on_c, 0, 67, 0
3, 148320, Note_on_c, 0, 55, 42
3, 148440, Note_on_c, 0, 55, 0
3, 148440, Note_on_c, 0, 67, 37
3, 148491, Control_c, 0, 64, 0
3, 148560, Note_on_c, 0, 67, 0
3, 148560, Note_on_c, 0, 63, 39
3, 148680, Note_on_c, 0, 63, 0
3, 148680, Note_on_c, 0, 67, 36
3, 148800, Note_on_c, 0, 67, 0
3, 148800, Note_on_c, 0, 55, 41
3, 148842, Control_c, 0, 64, 127
3, 148920, Note_on_c, 0, 55, 0
3, 148920, Note_on_c, 0, 67, 38
3, 149040, Note_on_c, 0, 67, 0
3, 149040, Note_on_c, 0, 62, 41
3, 149160, Note_on_c, 0, 62, 0
3, 149160, Note_on_c, 0, 67, 37
3, 149280, Note_on_c, 0, 67, 0
3, 149280, Note_on_c, 0, 55, 46
3, 149400, Note_on_c, 0, 55, 0
3, 149400, Note_on_c, 0, 67, 38
3, 149414, Control_c, 0, 64, 0
3, 149520, Note_on_c, 0, 67, 0
3, 149520, Note_on_c, 0, 59, 41
3, 149640, Note_on_c, 0, 59, 0
3, 149640, Note_on_c, 0, 67, 38
3, 149760, Note_on_c, 0, 67, 0
3, 149760, Note_on_c, 0, 55, 44
3, 149880, Note_on_c, 0, 55, 0
3, 149880, Note_on_c, 0, 67, 37
3, 150000, Note_on_c, 0, 67, 0
3, 150000, Note_on_c, 0, 60, 41
3, 150006, Control_c, 0, 64, 127
3, 150120, Note_on_c, 0, 60, 0
3, 150120, Note_on_c, 0, 67, 38
3, 150194, Control_c, 0, 64, 0
3, 150240, Note_on_c, 0, 67, 0
3, 150240, Note_on_c, 0, 55, 46
3, 150360, Note_on_c, 0, 55, 0
3, 150360, Note_on_c, 0, 67, 38
3, 150480, Note_on_c, 0, 67, 0
3, 150480, Control_c, 0, 64, 127
3, 150480, Note_on_c, 0, 63, 42
3, 150600, Note_on_c, 0, 63, 0
3, 150600, Note_on_c, 0, 67, 38
3, 150720, Note_on_c, 0, 67, 0
3, 150720, Control_c, 0, 64, 0
3, 150720, Note_on_c, 0, 55, 44
3, 150766, Control_c, 0, 64, 127
3, 150840, Note_on_c, 0, 55, 0
3, 150840, Note_on_c, 0, 67, 38
3, 150960, Note_on_c, 0, 67, 0
3, 150960, Note_on_c, 0, 62, 41
3, 151080, Note_on_c, 0, 62, 0
3, 151080, Note_on_c, 0, 67, 37
3, 151200, Note_on_c, 0, 67, 0
3, 151200, Note_on_c, 0, 55, 56
3, 151280, Control_c, 0, 64, 0
3, 151320, Note_on_c, 0, 55, 0
3, 151320, Control_c, 0, 64, 127
3, 151320, Note_on_c, 0, 67, 44
3, 151440, Note_on_c, 0, 67, 0
3, 151440, Note_on_c, 0, 59, 48
3, 151560, Note_on_c, 0, 59, 0
3, 151560, Note_on_c, 0, 67, 45
3, 151680, Note_on_c, 0, 67, 0
3, 151680, Control_c, 0, 64, 0
3, 151680, Note_on_c, 0, 56, 56
3, 151714, Control_c, 0, 64, 127
3, 151800, Note_on_c, 0, 56, 0
3, 151800, Note_on_c, 0, 67, 37
3, 151920, Note_on_c, 0, 67, 0
3, 151920, Note_on_c, 0, 60, 42
3, 152040, Note_on_c, 0, 60, 0
3, 152040, Note_on_c, 0, 67, 38
3, 152154, Control_c, 0, 64, 0
3, 152160, Note_on_c, 0, 67, 0
3, 152160, Note_on_c, 0, 56, 56
3, 152200, Control_c, 0, 64, 127
3, 152280, Note_on_c, 0, 56, 0
3, 152280, Note_on_c, 0, 66, 42
3, 152400, Note_on_c, 0, 66, 0
3, 152400, Note_on_c, 0, 60, 42
3, 152520, Note_on_c, 0, 60, 0
3, 152520, Note_on_c, 0, 66, 42
3, 152640, Note_on_c, 0, 66, 0
3, 152640, Control_c, 0, 64, 0
3, 152640, Note_on_c, 0, 55, 56
3, 152640, Note_on_c, 0, 67, 56
3, 152696, Control_c, 0, 64, 127
3, 152880, Note_on_c, 0, 67, 0
3, 152880, Note_on_c, 0, 55, 0
3, 152972, Control_c, 0, 64, 0
3, 153120, Note_on_c, 0, 55, 54
3, 153120, Note_on_c, 0, 67, 54
3, 153148, Control_c, 0, 64, 127
3, 153360, Note_on_c, 0, 67, 0
3, 153360, Note_on_c, 0, 55, 0
3, 153395, Control_c, 0, 64, 0
3, 153600, Note_on_c, 0, 55, 55
3, 153600, Note_on_c, 0, 67, 55
3, 153671, Control_c, 0, 64, 127
3, 153840, Note_on_c, 0, 67, 0
3, 153840, Note_on_c, 0, 55, 0
3, 153960, Control_c, 0, 64, 0
3, 154560, Note_on_c, 0, 55, 31
3, 154560, Note_on_c, 0, 59, 31
3, 154560, Note_on_c, 0, 62, 31
3, 154560, Note_on_c, 0, 65, 31
3, 154588, Control_c, 0, 64, 127
3, 154800, Note_on_c, 0, 65, 0
3, 154800, Note_on_c, 0, 55, 0
3, 154800, Note_on_c, 0, 59, 0
3, 154800, Note_on_c, 0, 62, 0
3, 154878, Control_c, 0, 64, 0
3, 155040, Note_on_c, 0, 55, 31
3, 155040, Note_on_c, 0, 59, 31
3, 155040, Note_on_c, 0, 62, 31
3, 155040, Note_on_c, 0, 65, 31
3, 155068, Control_c, 0, 64, 127
3, 155280, Note_on_c, 0, 65, 0
3, 155280, Note_on_c, 0, 55, 0
3, 155280, Note_on_c, 0, 59, 0
3, 155280, Note_on_c, 0, 62, 0
3, 155393, Control_c, 0, 64, 0
3, 155520, Note_on_c, 0, 55, 31
3, 155520, Note_on_c, 0, 59, 31
3, 155520, Note_on_c, 0, 62, 31
3, 155520, Note_on_c, 0, 65, 31
3, 155576, Control_c, 0, 64, 127
3, 155760, Note_on_c, 0, 65, 0
3, 155760, Note_on_c, 0, 55, 0
3, 155760, Note_on_c, 0, 59, 0
3, 155760, Note_on_c, 0, 62, 0
3, 155887, Control_c, 0, 64, 0
3, 156480, Control_c, 0, 91, 127
3, 156720, Note_on_c, 0, 48, 51
3, 156960, Note_on_c, 0, 48, 0
3, 156960, Note_on_c, 0, 52, 51
3, 157200, Note_on_c, 0, 52, 0
3, 157200, Note_on_c, 0, 55, 51
3, 157440, Note_on_c, 0, 55, 0
3, 157440, Note_on_c, 0, 60, 54
3, 157680, Note_on_c, 0, 60, 0
3, 157680, Note_on_c, 0, 48, 51
3, 157920, Note_on_c, 0, 48, 0
3, 157920, Note_on_c, 0, 55, 54
3, 158160, Note_on_c, 0, 55, 0
3, 158160, Note_on_c, 0, 43, 50
3, 158400, Note_on_c, 0, 43, 0
3, 158640, Note_on_c, 0, 48, 51
3, 158880, Note_on_c, 0, 48, 0
3, 158880, Note_on_c, 0, 52, 51
3, 159120, Note_on_c, 0, 52, 0
3, 159120, Note_on_c, 0, 55, 54
3, 159360, Note_on_c, 0, 55, 0
3, 159360, Note_on_c, 0, 60, 55
3, 159600, Note_on_c, 0, 60, 0
3, 159600, Note_on_c, 0, 48, 52
3, 159625, Control_c, 0, 64, 127
3, 159840, Note_on_c, 0, 48, 0
3, 159840, Control_c, 0, 64, 0
3, 159840, Note_on_c, 0, 55, 54
3, 160080, Note_on_c, 0, 55, 0
3, 160080, Note_on_c, 0, 43, 52
3, 160320, Note_on_c, 0, 43, 0
3, 160320, Note_on_c, 0, 57, 58
3, 160560, Note_on_c, 0, 57, 0
3, 160560, Note_on_c, 0, 60, 57
3, 160800, Note_on_c, 0, 60, 0
3, 160800, Note_on_c, 0, 55, 60
3, 161040, Note_on_c, 0, 55, 0
3, 161040, Note_on_c, 0, 60, 56
3, 161280, Note_on_c, 0, 60, 0
3, 161280, Note_on_c, 0, 53, 60
3, 161520, Note_on_c, 0, 53, 0
3, 161520, Note_on_c, 0, 60, 58
3, 161760, Note_on_c, 0, 60, 0
3, 161760, Note_on_c, 0, 52, 62
3, 162000, Note_on_c, 0, 52, 0
3, 162000, Note_on_c, 0, 60, 57
3, 162240, Note_on_c, 0, 60, 0
3, 162240, Control_c, 0, 64, 127
3, 162480, Note_on_c, 0, 67, 54
3, 162480, Note_on_c, 0, 59, 54
3, 162706, Control_c, 0, 64, 0
3, 162720, Note_on_c, 0, 59, 0
3, 162720, Note_on_c, 0, 67, 0
3, 162720, Note_on_c, 0, 67, 54
3, 162720, Note_on_c, 0, 60, 54
3, 162769, Control_c, 0, 64, 127
3, 162875, Control_c, 0, 64, 0
3, 162960, Note_on_c, 0, 60, 0
3, 162960, Note_on_c, 0, 67, 0
3, 163200, Note_on_c, 0, 55, 55
3, 163200, Note_on_c, 0, 59, 55
3, 163680, Note_on_c, 0, 59, 0
3, 163680, Note_on_c, 0, 55, 0
3, 164160, Note_on_c, 0, 36, 79
3, 164185, Control_c, 0, 64, 127
3, 164280, Note_on_c, 0, 36, 0
3, 164280, Note_on_c, 0, 40, 68
3, 164393, Control_c, 0, 64, 0
3, 164400, Note_on_c, 0, 40, 0
3, 164400, Note_on_c, 0, 43, 69
3, 164414, Control_c, 0, 64, 127
3, 164520, Note_on_c, 0, 43, 0
3, 164520, Note_on_c, 0, 48, 68
3, 164629, Control_c, 0, 64, 0
3, 164640, Note_on_c, 0, 48, 0
3, 164640, Note_on_c, 0, 40, 74
3, 164760, Note_on_c, 0, 40, 0
3, 164760, Note_on_c, 0, 52, 69
3, 164880, Note_on_c, 0, 52, 0
3, 164880, Note_on_c, 0, 43, 74
3, 165000, Note_on_c, 0, 43, 0
3, 165000, Note_on_c, 0, 55, 69
3, 165120, Note_on_c, 0, 55, 0
3, 165120, Note_on_c, 0, 48, 74
3, 165240, Note_on_c, 0, 48, 0
3, 165240, Note_on_c, 0, 52, 67
3, 165360, Note_on_c, 0, 52, 0
3, 165360, Note_on_c, 0, 55, 69
3, 165480, Note_on_c, 0, 55, 0
3, 165480, Note_on_c, 0, 60, 68
3, 165600, Note_on_c, 0, 60, 0
3, 165600, Note_on_c, 0, 43, 74
3, 165635, Control_c, 0, 64, 127
3, 165720, Note_on_c, 0, 43, 0
3, 165720, Note_on_c, 0, 47, 69
3, 165840, Note_on_c, 0, 47, 0
3, 165840, Note_on_c, 0, 50, 73
3, 165960, Note_on_c, 0, 50, 0
3, 165960, Note_on_c, 0, 55, 69
3, 166080, Note_on_c, 0, 55, 0
3, 166080, Control_c, 0, 64, 0
3, 166080, Note_on_c, 0, 36, 74
3, 166129, Control_c, 0, 64, 127
3, 166200, Note_on_c, 0, 36, 0
3, 166200, Note_on_c, 0, 40, 68
3, 166320, Note_on_c, 0, 40, 0
3, 166320, Note_on_c, 0, 43, 69
3, 166440, Note_on_c, 0, 43, 0
3, 166440, Note_on_c, 0, 48, 67
3, 166542, Control_c, 0, 64, 0
3, 166560, Note_on_c, 0, 48, 0
3, 166560, Note_on_c, 0, 40, 74
3, 166680, Note_on_c, 0, 40, 0
3, 166680, Note_on_c, 0, 52, 69
3, 166800, Note_on_c, 0, 52, 0
3, 166800, Note_on_c, 0, 43, 72
3, 166920, Note_on_c, 0, 43, 0
3, 166920, Note_on_c, 0, 55, 69
3, 167040, Note_on_c, 0, 55, 0
3, 167040, Note_on_c, 0, 48, 75
3, 167160, Note_on_c, 0, 48, 0
3, 167160, Note_on_c, 0, 52, 67
3, 167280, Note_on_c, 0, 52, 0
3, 167280, Note_on_c, 0, 55, 69
3, 167301, Control_c, 0, 64, 127
3, 167400, Note_on_c, 0, 55, 0
3, 167400, Note_on_c, 0, 60, 68
3, 167520, Note_on_c, 0, 60, 0
3, 167520, Note_on_c, 0, 43, 77
3, 167538, Control_c, 0, 64, 0
3, 167552, Control_c, 0, 64, 127
3, 167640, Note_on_c, 0, 43, 0
3, 167640, Note_on_c, 0, 47, 68
3, 167760, Note_on_c, 0, 47, 0
3, 167760, Note_on_c, 0, 50, 69
3, 167880, Note_on_c, 0, 50, 0
3, 167880, Note_on_c, 0, 55, 68
3, 167929, Control_c, 0, 64, 0
3, 168000, Note_on_c, 0, 55, 0
3, 168000, Note_on_c, 0, 57, 65
3, 168120, Note_on_c, 0, 57, 0
3, 168120, Note_on_c, 0, 60, 60
3, 168240, Note_on_c, 0, 60, 0
3, 168240, Note_on_c, 0, 57, 65
3, 168360, Note_on_c, 0, 57, 0
3, 168360, Note_on_c, 0, 60, 60
3, 168480, Note_on_c, 0, 60, 0
3, 168480, Note_on_c, 0, 55, 65
3, 168600, Note_on_c, 0, 55, 0
3, 168600, Note_on_c, 0, 60, 62
3, 168720, Note_on_c, 0, 60, 0
3, 168720, Note_on_c, 0, 55, 65
3, 168840, Note_on_c, 0, 55, 0
3, 168840, Note_on_c, 0, 60, 62
3, 168960, Note_on_c, 0, 60, 0
3, 168960, Note_on_c, 0, 53, 69
3, 169080, Note_on_c, 0, 53, 0
3, 169080, Note_on_c, 0, 60, 65
3, 169200, Note_on_c, 0, 60, 0
3, 169200, Note_on_c, 0, 53, 69
3, 169320, Note_on_c, 0, 53, 0
3, 169320, Note_on_c, 0, 60, 65
3, 169440, Note_on_c, 0, 60, 0
3, 169440, Note_on_c, 0, 52, 69
3, 169560, Note_on_c, 0, 52, 0
3, 169560, Note_on_c, 0, 60, 65
3, 169680, Note_on_c, 0, 60, 0
3, 169680, Note_on_c, 0, 52, 69
3, 169800, Note_on_c, 0, 52, 0
3, 169800, Note_on_c, 0, 60, 64
3, 169920, Note_on_c, 0, 60, 0
3, 170160, Note_on_c, 0, 53, 60
3, 170160, Note_on_c, 0, 62, 60
3, 170280, Note_on_c, 0, 62, 0
3, 170280, Note_on_c, 0, 53, 0
3, 170400, Note_on_c, 0, 55, 60
3, 170400, Note_on_c, 0, 64, 60
3, 170640, Note_on_c, 0, 64, 0
3, 170640, Note_on_c, 0, 62, 60
3, 170880, Note_on_c, 0, 62, 0
3, 170880, Note_on_c, 0, 55, 0
3, 170880, Note_on_c, 0, 64, 60
3, 170880, Note_on_c, 0, 60, 60
3, 171360, Note_on_c, 0, 60, 0
3, 171360, Note_on_c, 0, 64, 0
3, 172080, Note_on_c, 0, 62, 48
3, 172080, Note_on_c, 0, 57, 48
3, 172080, Note_on_c, 0, 53, 48
3, 172320, Note_on_c, 0, 53, 0
3, 172320, Note_on_c, 0, 57, 0
3, 172320, Note_on_c, 0, 62, 0
3, 172320, Note_on_c, 0, 55, 48
3, 172320, Note_on_c, 0, 64, 48
3, 172560, Note_on_c, 0, 64, 0
3, 172560, Note_on_c, 0, 62, 55
3, 172800, Note_on_c, 0, 62, 0
3, 172800, Note_on_c, 0, 55, 0
3, 172800, Note_on_c, 0, 64, 60
3, 172800, Note_on_c, 0, 60, 60
3, 173280, Note_on_c, 0, 60, 0
3, 173280, Note_on_c, 0, 64, 0
3, 174000, Note_on_c, 0, 62, 48
3, 174000, Note_on_c, 0, 57, 48
3, 174000, Note_on_c, 0, 53, 48
3, 174240, Note_on_c, 0, 53, 0
3, 174240, Note_on_c, 0, 57, 0
3, 174240, Note_on_c, 0, 62, 0
3, 174240, Note_on_c, 0, 55, 48
3, 174240, Note_on_c, 0, 64, 48
3, 174480, Note_on_c, 0, 64, 0
3, 174480, Note_on_c, 0, 62, 51
3, 174720, Note_on_c, 0, 62, 0
3, 174720, Note_on_c, 0, 55, 0
3, 174720, Note_on_c, 0, 64, 47
3, 174720, Note_on_c, 0, 60, 47
3, 174840, Note_on_c, 0, 60, 0
3, 174840, Note_on_c, 0, 64, 0
3, 174960, Note_on_c, 0, 55, 47
3, 175080, Note_on_c, 0, 55, 0
3, 175200, Note_on_c, 0, 48, 47
3, 175680, Note_on_c, 0, 48, 0
3, 175680, Note_on_c, 0, 60, 46
3, 175684, Control_c, 0, 64, 127
3, 175800, Note_on_c, 0, 60, 0
3, 175800, Note_on_c, 0, 67, 38
3, 175920, Note_on_c, 0, 67, 0
3, 175920, Note_on_c, 0, 66, 42
3, 176040, Note_on_c, 0, 66, 0
3, 176040, Note_on_c, 0, 67, 38
3, 176153, Control_c, 0, 64, 0
3, 176160, Note_on_c, 0, 67, 0
3, 176160, Note_on_c, 0, 60, 46
3, 176185, Control_c, 0, 64, 127
3, 176280, Note_on_c, 0, 60, 0
3, 176280, Note_on_c, 0, 67, 38
3, 176365, Control_c, 0, 64, 0
3, 176400, Note_on_c, 0, 67, 0
3, 176400, Note_on_c, 0, 62, 42
3, 176520, Note_on_c, 0, 62, 0
3, 176520, Note_on_c, 0, 67, 38
3, 176640, Note_on_c, 0, 67, 0
3, 176640, Note_on_c, 0, 64, 46
3, 176760, Note_on_c, 0, 64, 0
3, 176760, Note_on_c, 0, 67, 38
3, 176880, Note_on_c, 0, 67, 0
3, 176880, Note_on_c, 0, 65, 42
3, 177000, Note_on_c, 0, 65, 0
3, 177000, Note_on_c, 0, 67, 38
3, 177120, Note_on_c, 0, 67, 0
3, 177120, Note_on_c, 0, 64, 46
3, 177240, Note_on_c, 0, 64, 0
3, 177240, Note_on_c, 0, 67, 38
3, 177360, Note_on_c, 0, 67, 0
3, 177360, Note_on_c, 0, 58, 42
3, 177480, Note_on_c, 0, 58, 0
3, 177480, Note_on_c, 0, 67, 39
3, 177600, Note_on_c, 0, 67, 0
3, 177600, Note_on_c, 0, 59, 48
3, 177720, Note_on_c, 0, 59, 0
3, 177720, Note_on_c, 0, 67, 39
3, 177840, Note_on_c, 0, 67, 0
3, 177840, Note_on_c, 0, 59, 44
3, 177960, Note_on_c, 0, 59, 0
3, 177960, Note_on_c, 0, 67, 40
3, 178080, Note_on_c, 0, 67, 0
3, 178080, Note_on_c, 0, 60, 52
3, 178200, Note_on_c, 0, 60, 0
3, 178200, Note_on_c, 0, 67, 42
3, 178320, Note_on_c, 0, 67, 0
3, 178320, Note_on_c, 0, 60, 46
3, 178440, Note_on_c, 0, 60, 0
3, 178440, Note_on_c, 0, 67, 42
3, 178560, Note_on_c, 0, 67, 0
3, 178560, Note_on_c, 0, 60, 50
3, 178680, Note_on_c, 0, 60, 0
3, 178680, Note_on_c, 0, 67, 38
3, 178800, Note_on_c, 0, 67, 0
3, 178800, Note_on_c, 0, 66, 42
3, 178920, Note_on_c, 0, 66, 0
3, 178920, Note_on_c, 0, 67, 38
3, 179040, Note_on_c, 0, 67, 0
3, 179040, Note_on_c, 0, 59, 46
3, 179160, Note_on_c, 0, 59, 0
3, 179160, Note_on_c, 0, 67, 39
3, 179280, Note_on_c, 0, 67, 0
3, 179280, Note_on_c, 0, 66, 42
3, 179400, Note_on_c, 0, 66, 0
3, 179400, Note_on_c, 0, 67, 40
3, 179520, Note_on_c, 0, 67, 0
3, 179520, Note_on_c, 0, 59, 46
3, 179559, Control_c, 0, 64, 127
3, 179640, Note_on_c, 0, 59, 0
3, 179640, Note_on_c, 0, 67, 39
3, 179760, Note_on_c, 0, 67, 0
3, 179760, Note_on_c, 0, 66, 42
3, 179880, Note_on_c, 0, 66, 0
3, 179880, Note_on_c, 0, 67, 39
3, 180000, Note_on_c, 0, 67, 0
3, 180000, Note_on_c, 0, 59, 46
3, 180007, Control_c, 0, 64, 0
3, 180028, Control_c, 0, 64, 127
3, 180120, Note_on_c, 0, 59, 0
3, 180120, Note_on_c, 0, 67, 39
3, 180222, Control_c, 0, 64, 0
3, 180240, Note_on_c, 0, 67, 0
3, 180240, Note_on_c, 0, 60, 42
3, 180258, Control_c, 0, 64, 127
3, 180360, Note_on_c, 0, 60, 0
3, 180360, Note_on_c, 0, 67, 39
3, 180441, Control_c, 0, 64, 0
3, 180480, Note_on_c, 0, 67, 0
3, 180480, Note_on_c, 0, 62, 46
3, 180600, Note_on_c, 0, 62, 0
3, 180600, Note_on_c, 0, 67, 39
3, 180720, Note_on_c, 0, 67, 0
3, 180720, Note_on_c, 0, 64, 42
3, 180840, Note_on_c, 0, 64, 0
3, 180840, Note_on_c, 0, 67, 39
3, 180960, Note_on_c, 0, 67, 0
3, 180960, Note_on_c, 0, 65, 46
3, 181080, Note_on_c, 0, 65, 0
3, 181080, Note_on_c, 0, 67, 40
3, 181200, Note_on_c, 0, 67, 0
3, 181200, Note_on_c, 0, 62, 43
3, 181320, Note_on_c, 0, 62, 0
3, 181320, Note_on_c, 0, 67, 39
3, 181440, Note_on_c, 0, 67, 0
3, 181440, Note_on_c, 0, 59, 51
3, 181560, Note_on_c, 0, 59, 0
3, 181560, Note_on_c, 0, 67, 39
3, 181680, Note_on_c, 0, 67, 0
3, 181680, Note_on_c, 0, 62, 43
3, 181800, Note_on_c, 0, 62, 0
3, 181800, Note_on_c, 0, 67, 39
3, 181920, Note_on_c, 0, 67, 0
3, 181920, Note_on_c, 0, 59, 57
3, 182040, Note_on_c, 0, 59, 0
3, 182040, Note_on_c, 0, 67, 44
3, 182160, Note_on_c, 0, 67, 0
3, 182160, Note_on_c, 0, 55, 46
3, 182280, Note_on_c, 0, 55, 0
3, 182280, Note_on_c, 0, 67, 44
3, 182400, Note_on_c, 0, 67, 0
3, 182400, Note_on_c, 0, 60, 55
3, 182464, Control_c, 0, 64, 127
3, 182520, Note_on_c, 0, 60, 0
3, 182520, Note_on_c, 0, 67, 46
3, 182640, Note_on_c, 0, 67, 0
3, 182640, Note_on_c, 0, 65, 50
3, 182760, Note_on_c, 0, 65, 0
3, 182760, Note_on_c, 0, 67, 46
3, 182816, Control_c, 0, 64, 0
3, 182880, Note_on_c, 0, 67, 0
3, 182880, Note_on_c, 0, 60, 55
3, 183000, Note_on_c, 0, 60, 0
3, 183000, Note_on_c, 0, 67, 46
3, 183120, Note_on_c, 0, 67, 0
3, 183120, Note_on_c, 0, 64, 50
3, 183240, Note_on_c, 0, 64, 0
3, 183240, Note_on_c, 0, 67, 46
3, 183360, Note_on_c, 0, 67, 0
3, 183360, Note_on_c, 0, 48, 59
3, 183369, Control_c, 0, 64, 127
3, 183440, Note_on_c, 0, 48, 0
3, 183440, Note_on_c, 0, 52, 54
3, 183520, Note_on_c, 0, 52, 0
3, 183520, Note_on_c, 0, 55, 52
3, 183600, Note_on_c, 0, 55, 0
3, 183600, Note_on_c, 0, 60, 57
3, 183800, Control_c, 0, 64, 0
3, 183840, Note_on_c, 0, 60, 0
3, 184320, Note_on_c, 0, 41, 59
3, 184352, Control_c, 0, 64, 127
3, 184400, Note_on_c, 0, 41, 0
3, 184400, Note_on_c, 0, 45, 54
3, 184480, Note_on_c, 0, 45, 0
3, 184480, Note_on_c, 0, 48, 52
3, 184560, Note_on_c, 0, 48, 0
3, 184560, Note_on_c, 0, 53, 59
3, 184754, Control_c, 0, 64, 0
3, 184800, Note_on_c, 0, 53, 0
3, 185280, Note_on_c, 0, 45, 59
3, 185314, Control_c, 0, 64, 127
3, 185360, Note_on_c, 0, 45, 0
3, 185360, Note_on_c, 0, 49, 54
3, 185440, Note_on_c, 0, 49, 0
3, 185440, Note_on_c, 0, 52, 51
3, 185520, Note_on_c, 0, 52, 0
3, 185520, Note_on_c, 0, 57, 59
3, 185711, Control_c, 0, 64, 0
3, 185760, Note_on_c, 0, 57, 0
3, 186240, Note_on_c, 0, 50, 59
3, 186303, Control_c, 0, 64, 127
3, 186320, Note_on_c, 0, 50, 0
3, 186320, Note_on_c, 0, 54, 54
3, 186400, Note_on_c, 0, 54, 0
3, 186400, Note_on_c, 0, 57, 51
3, 186480, Note_on_c, 0, 57, 0
3, 186480, Note_on_c, 0, 62, 59
3, 186677, Control_c, 0, 64, 0
3, 186720, Note_on_c, 0, 62, 0
3, 187200, Note_on_c, 0, 47, 59
3, 187232, Control_c, 0, 64, 127
3, 187280, Note_on_c, 0, 47, 0
3, 187280, Note_on_c, 0, 50, 54
3, 187360, Note_on_c, 0, 50, 0
3, 187360, Note_on_c, 0, 55, 51
3, 187440, Note_on_c, 0, 55, 0
3, 187440, Note_on_c, 0, 59, 59
3, 187648, Control_c, 0, 64, 0
3, 187680, Note_on_c, 0, 59, 0
3, 188160, Note_on_c, 0, 48, 59
3, 188206, Control_c, 0, 64, 127
3, 188240, Note_on_c, 0, 48, 0
3, 188240, Note_on_c, 0, 52, 54
3, 188320, Note_on_c, 0, 52, 0
3, 188320, Note_on_c, 0, 55, 51
3, 188400, Note_on_c, 0, 55, 0
3, 188400, Note_on_c, 0, 60, 59
3, 188569, Control_c, 0, 64, 0
3, 188640, Note_on_c, 0, 60, 0
3, 189120, Note_on_c, 0, 53, 62
3, 189120, Note_on_c, 0, 57, 62
3, 189152, Control_c, 0, 64, 127
3, 189360, Note_on_c, 0, 57, 0
3, 189360, Note_on_c, 0, 53, 0
3, 189596, Control_c, 0, 64, 0
3, 189600, Note_on_c, 0, 57, 64
3, 189600, Note_on_c, 0, 54, 64
3, 189632, Control_c, 0, 64, 127
3, 189840, Note_on_c, 0, 54, 0
3, 189840, Note_on_c, 0, 57, 0
3, 190024, Control_c, 0, 64, 0
3, 190080, Note_on_c, 0, 55, 69
3, 190140, Note_on_c, 0, 55, 0
3, 190200, Note_on_c, 0, 67, 51
3, 190320, Note_on_c, 0, 67, 0
3, 190320, Note_on_c, 0, 66, 55
3, 190440, Note_on_c, 0, 66, 0
3, 190440, Note_on_c, 0, 67, 51
3, 190560, Note_on_c, 0, 67, 0
3, 190560, Note_on_c, 0, 66, 55
3, 190680, Note_on_c, 0, 66, 0
3, 190680, Note_on_c, 0, 67, 52
3, 190800, Note_on_c, 0, 67, 0
3, 190800, Note_on_c, 0, 65, 55
3, 190920, Note_on_c, 0, 65, 0
3, 190920, Note_on_c, 0, 67, 51
3, 191040, Note_on_c, 0, 67, 0
3, 191040, Note_on_c, 0, 64, 60
3, 191047, Control_c, 0, 64, 127
3, 191160, Note_on_c, 0, 64, 0
3, 191160, Note_on_c, 0, 67, 51
3, 191280, Note_on_c, 0, 67, 0
3, 191280, Note_on_c, 0, 64, 44
3, 191400, Note_on_c, 0, 64, 0
3, 191400, Note_on_c, 0, 67, 38
3, 191464, Control_c, 0, 64, 0
3, 191520, Note_on_c, 0, 67, 0
3, 191520, Note_on_c, 0, 64, 46
3, 191640, Note_on_c, 0, 64, 0
3, 191640, Note_on_c, 0, 67, 39
3, 191760, Note_on_c, 0, 67, 0
3, 191760, Note_on_c, 0, 60, 44
3, 191880, Note_on_c, 0, 60, 0
3, 191880, Note_on_c, 0, 67, 39
3, 192000, Note_on_c, 0, 67, 0
3, 192000, Note_on_c, 0, 62, 46
3, 192120, Note_on_c, 0, 62, 0
3, 192120, Note_on_c, 0, 67, 43
3, 192240, Note_on_c, 0, 67, 0
3, 192240, Note_on_c, 0, 60, 46
3, 192360, Note_on_c, 0, 60, 0
3, 192360, Note_on_c, 0, 67, 43
3, 192480, Note_on_c, 0, 67, 0
3, 192480, Note_on_c, 0, 59, 46
3, 192600, Note_on_c, 0, 59, 0
3, 192600, Note_on_c, 0, 67, 43
3, 192720, Note_on_c, 0, 67, 0
3, 192720, Note_on_c, 0, 55, 46
3, 192840, Note_on_c, 0, 55, 0
3, 192840, Note_on_c, 0, 67, 43
3, 192960, Note_on_c, 0, 67, 0
3, 192960, Note_on_c, 0, 60, 48
3, 192983, Control_c, 0, 64, 127
3, 193080, Note_on_c, 0, 60, 0
3, 193080, Note_on_c, 0, 67, 39
3, 193137, Control_c, 0, 64, 0
3, 193200, Note_on_c, 0, 67, 0
3, 193200, Note_on_c, 0, 66, 43
3, 193320, Note_on_c, 0, 66, 0
3, 193320, Note_on_c, 0, 67, 39
3, 193440, Note_on_c, 0, 67, 0
3, 193440, Note_on_c, 0, 66, 49
3, 193560, Note_on_c, 0, 66, 0
3, 193560, Note_on_c, 0, 67, 52
3, 193680, Note_on_c, 0, 67, 0
3, 193680, Note_on_c, 0, 69, 55
3, 193800, Note_on_c, 0, 69, 0
3, 193800, Note_on_c, 0, 67, 52
3, 193920, Note_on_c, 0, 67, 0
3, 193920, Note_on_c, 0, 65, 60
3, 194040, Note_on_c, 0, 65, 0
3, 194040, Note_on_c, 0, 67, 58
3, 194160, Note_on_c, 0, 67, 0
3, 194160, Note_on_c, 0, 64, 60
3, 194280, Note_on_c, 0, 64, 0
3, 194280, Note_on_c, 0, 67, 56
3, 194400, Note_on_c, 0, 67, 0
3, 194400, Note_on_c, 0, 65, 60
3, 194520, Note_on_c, 0, 65, 0
3, 194520, Note_on_c, 0, 67, 57
3, 194640, Note_on_c, 0, 67, 0
3, 194640, Note_on_c, 0, 62, 60
3, 194760, Note_on_c, 0, 62, 0
3, 194760, Note_on_c, 0, 67, 57
3, 194880, Note_on_c, 0, 67, 0
3, 194880, Note_on_c, 0, 64, 60
3, 194929, Control_c, 0, 64, 127
3, 195000, Note_on_c, 0, 64, 0
3, 195000, Note_on_c, 0, 67, 52
3, 195120, Note_on_c, 0, 67, 0
3, 195120, Note_on_c, 0, 64, 44
3, 195240, Note_on_c, 0, 64, 0
3, 195240, Note_on_c, 0, 67, 39
3, 195304, Control_c, 0, 64, 0
3, 195360, Note_on_c, 0, 67, 0
3, 195360, Note_on_c, 0, 64, 46
3, 195480, Note_on_c, 0, 64, 0
3, 195480, Note_on_c, 0, 67, 39
3, 195600, Note_on_c, 0, 67, 0
3, 195600, Note_on_c, 0, 60, 44
3, 195720, Note_on_c, 0, 60, 0
3, 195720, Note_on_c, 0, 67, 39
3, 195840, Note_on_c, 0, 67, 0
3, 195840, Note_on_c, 0, 62, 46
3, 195960, Note_on_c, 0, 62, 0
3, 195960, Note_on_c, 0, 67, 43
3, 196080, Note_on_c, 0, 67, 0
3, 196080, Note_on_c, 0, 60, 46
3, 196200, Note_on_c, 0, 60, 0
3, 196200, Note_on_c, 0, 67, 43
3, 196320, Note_on_c, 0, 67, 0
3, 196320, Note_on_c, 0, 59, 46
3, 196440, Note_on_c, 0, 59, 0
3, 196440, Note_on_c, 0, 67, 43
3, 196560, Note_on_c, 0, 67, 0
3, 196560, Note_on_c, 0, 55, 46
3, 196680, Note_on_c, 0, 55, 0
3, 196680, Note_on_c, 0, 67, 43
3, 196800, Note_on_c, 0, 67, 0
3, 196800, Note_on_c, 0, 60, 43
3, 196803, Control_c, 0, 64, 127
3, 196920, Note_on_c, 0, 60, 0
3, 196920, Note_on_c, 0, 67, 40
3, 197040, Note_on_c, 0, 67, 0
3, 197040, Note_on_c, 0, 64, 40
3, 197160, Note_on_c, 0, 64, 0
3, 197160, Note_on_c, 0, 67, 40
3, 197280, Note_on_c, 0, 67, 0
3, 197280, Note_on_c, 0, 60, 46
3, 197286, Control_c, 0, 64, 0
3, 197321, Control_c, 0, 64, 127
3, 197400, Note_on_c, 0, 60, 0
3, 197400, Note_on_c, 0, 69, 36
3, 197501, Control_c, 0, 64, 0
3, 197520, Note_on_c, 0, 69, 0
3, 197520, Note_on_c, 0, 65, 41
3, 197640, Note_on_c, 0, 65, 0
3, 197640, Note_on_c, 0, 69, 36
3, 197760, Note_on_c, 0, 69, 0
3, 197760, Note_on_c, 0, 60, 41
3, 197776, Control_c, 0, 64, 127
3, 197880, Note_on_c, 0, 60, 0
3, 197880, Note_on_c, 0, 67, 37
3, 198000, Note_on_c, 0, 67, 0
3, 198000, Note_on_c, 0, 64, 41
3, 198120, Note_on_c, 0, 64, 0
3, 198120, Note_on_c, 0, 67, 39
3, 198240, Note_on_c, 0, 67, 0
3, 198240, Note_on_c, 0, 58, 41
3, 198243, Control_c, 0, 64, 0
3, 198272, Control_c, 0, 64, 127
3, 198360, Note_on_c, 0, 58, 0
3, 198360, Note_on_c, 0, 65, 37
3, 198480, Note_on_c, 0, 65, 0
3, 198480, Note_on_c, 0, 62, 41
3, 198527, Control_c, 0, 64, 0
3, 198600, Note_on_c, 0, 62, 0
3, 198600, Note_on_c, 0, 65, 37
3, 198720, Note_on_c, 0, 65, 0
3, 198720, Note_on_c, 0, 57, 41
3, 198733, Control_c, 0, 64, 127
3, 198840, Note_on_c, 0, 57, 0
3, 198840, Note_on_c, 0, 65, 37
3, 198960, Note_on_c, 0, 65, 0
3, 198960, Note_on_c, 0, 60, 41
3, 199080, Note_on_c, 0, 60, 0
3, 199080, Note_on_c, 0, 65, 37
3, 199200, Note_on_c, 0, 65, 0
3, 199200, Note_on_c, 0, 53, 50
3, 199203, Control_c, 0, 64, 0
3, 199225, Control_c, 0, 64, 127
3, 199320, Note_on_c, 0, 53, 0
3, 199320, Note_on_c, 0, 62, 43
3, 199374, Control_c, 0, 64, 0
3, 199440, Note_on_c, 0, 62, 0
3, 199440, Note_on_c, 0, 57, 50
3, 199560, Note_on_c, 0, 57, 0
3, 199560, Note_on_c, 0, 62, 42
3, 199680, Note_on_c, 0, 62, 0
3, 199680, Note_on_c, 0, 55, 49
3, 199800, Note_on_c, 0, 55, 0
3, 199800, Note_on_c, 0, 64, 43
3, 199920, Note_on_c, 0, 64, 0
3, 199920, Note_on_c, 0, 60, 49
3, 200040, Note_on_c, 0, 60, 0
3, 200040, Note_on_c, 0, 64, 43
3, 200160, Note_on_c, 0, 64, 0
3, 200160, Note_on_c, 0, 55, 49
3, 200280, Note_on_c, 0, 55, 0
3, 200280, Note_on_c, 0, 65, 43
3, 200400, Note_on_c, 0, 65, 0
3, 200400, Note_on_c, 0, 59, 48
3, 200520, Note_on_c, 0, 59, 0
3, 200520, Note_on_c, 0, 65, 42
3, 200640, Note_on_c, 0, 65, 0
3, 200640, Note_on_c, 0, 48, 50
3, 200643, Control_c, 0, 64, 127
3, 200760, Note_on_c, 0, 48, 0
3, 200760, Note_on_c, 0, 55, 44
3, 200880, Note_on_c, 0, 55, 0
3, 200880, Note_on_c, 0, 52, 50
3, 200899, Control_c, 0, 64, 0
3, 200912, Control_c, 0, 64, 127
3, 201000, Note_on_c, 0, 52, 0
3, 201000, Note_on_c, 0, 55, 43
3, 201117, Control_c, 0, 64, 0
3, 201120, Note_on_c, 0, 55, 0
3, 201120, Note_on_c, 0, 48, 41
3, 201145, Control_c, 0, 64, 127
3, 201240, Note_on_c, 0, 48, 0
3, 201240, Note_on_c, 0, 57, 37
3, 201335, Control_c, 0, 64, 0
3, 201360, Note_on_c, 0, 57, 0
3, 201360, Note_on_c, 0, 53, 41
3, 201480, Note_on_c, 0, 53, 0
3, 201480, Note_on_c, 0, 57, 37
3, 201600, Note_on_c, 0, 57, 0
3, 201600, Note_on_c, 0, 48, 41
3, 201638, Control_c, 0, 64, 127
3, 201720, Note_on_c, 0, 48, 0
3, 201720, Note_on_c, 0, 55, 37
3, 201840, Note_on_c, 0, 55, 0
3, 201840, Note_on_c, 0, 52, 41
3, 201960, Note_on_c, 0, 52, 0
3, 201960, Note_on_c, 0, 55, 37
3, 202071, Control_c, 0, 64, 0
3, 202080, Note_on_c, 0, 55, 0
3, 202080, Note_on_c, 0, 46, 41
3, 202096, Control_c, 0, 64, 127
3, 202200, Note_on_c, 0, 46, 0
3, 202200, Note_on_c, 0, 53, 36
3, 202273, Control_c, 0, 64, 0
3, 202320, Note_on_c, 0, 53, 0
3, 202320, Note_on_c, 0, 50, 41
3, 202440, Note_on_c, 0, 50, 0
3, 202440, Note_on_c, 0, 53, 36
3, 202560, Note_on_c, 0, 53, 0
3, 202560, Note_on_c, 0, 45, 43
3, 202601, Control_c, 0, 64, 127
3, 202680, Note_on_c, 0, 45, 0
3, 202680, Note_on_c, 0, 53, 37
3, 202800, Note_on_c, 0, 53, 0
3, 202800, Note_on_c, 0, 48, 42
3, 202920, Note_on_c, 0, 48, 0
3, 202920, Note_on_c, 0, 53, 36
3, 203040, Note_on_c, 0, 53, 0
3, 203040, Note_on_c, 0, 41, 52
3, 203068, Control_c, 0, 64, 0
3, 203091, Control_c, 0, 64, 127
3, 203160, Note_on_c, 0, 41, 0
3, 203160, Note_on_c, 0, 50, 47
3, 203280, Note_on_c, 0, 50, 0
3, 203280, Note_on_c, 0, 45, 50
3, 203299, Control_c, 0, 64, 0
3, 203400, Note_on_c, 0, 45, 0
3, 203400, Note_on_c, 0, 50, 46
3, 203520, Note_on_c, 0, 50, 0
3, 203520, Note_on_c, 0, 43, 50
3, 203640, Note_on_c, 0, 43, 0
3, 203640, Note_on_c, 0, 52, 46
3, 203760, Note_on_c, 0, 52, 0
3, 203760, Note_on_c, 0, 48, 49
3, 203880, Note_on_c, 0, 48, 0
3, 203880, Note_on_c, 0, 52, 41
3, 204000, Note_on_c, 0, 52, 0
3, 204000, Note_on_c, 0, 43, 48
3, 204120, Note_on_c, 0, 43, 0
3, 204120, Note_on_c, 0, 53, 42
3, 204240, Note_on_c, 0, 53, 0
3, 204240, Note_on_c, 0, 50, 48
3, 204360, Note_on_c, 0, 50, 0
3, 204360, Note_on_c, 0, 53, 41
3, 204480, Note_on_c, 0, 53, 0
3, 204699, Control_c, 0, 64, 127
3, 204720, Note_on_c, 0, 48, 48
3, 204720, Note_on_c, 0, 52, 48
3, 204953, Control_c, 0, 64, 0
3, 204960, Note_on_c, 0, 52, 0
3, 204960, Note_on_c, 0, 48, 0
3, 204960, Note_on_c, 0, 50, 55
3, 204960, Note_on_c, 0, 53, 55
3, 204985, Control_c, 0, 64, 127
3, 205200, Note_on_c, 0, 53, 0
3, 205200, Note_on_c, 0, 50, 0
3, 205200, Control_c, 0, 64, 0
3, 205200, Note_on_c, 0, 55, 60
3, 205200, Note_on_c, 0, 52, 60
3, 205221, Control_c, 0, 64, 127
3, 205369, Control_c, 0, 64, 0
3, 205440, Note_on_c, 0, 52, 0
3, 205440, Note_on_c, 0, 55, 0
3, 205637, Control_c, 0, 64, 127
3, 205680, Note_on_c, 0, 43, 46
3, 205680, Note_on_c, 0, 47, 46
3, 205920, Note_on_c, 0, 47, 0
3, 205920, Note_on_c, 0, 43, 0
3, 205920, Note_on_c, 0, 45, 50
3, 205920, Note_on_c, 0, 48, 50
3, 205926, Control_c, 0, 64, 0
3, 205954, Control_c, 0, 64, 127
3, 206151, Control_c, 0, 64, 0
3, 206160, Note_on_c, 0, 48, 0
3, 206160, Note_on_c, 0, 45, 0
3, 206160, Note_on_c, 0, 47, 55
3, 206160, Note_on_c, 0, 50, 55
3, 206174, Control_c, 0, 64, 127
3, 206323, Control_c, 0, 64, 0
3, 206400, Note_on_c, 0, 50, 0
3, 206400, Note_on_c, 0, 47, 0
3, 206615, Control_c, 0, 64, 127
3, 206640, Note_on_c, 0, 48, 48
3, 206640, Note_on_c, 0, 52, 48
3, 206880, Note_on_c, 0, 52, 0
3, 206880, Note_on_c, 0, 48, 0
3, 206880, Note_on_c, 0, 50, 55
3, 206880, Note_on_c, 0, 53, 55
3, 206891, Control_c, 0, 64, 0
3, 206922, Control_c, 0, 64, 127
3, 207095, Control_c, 0, 64, 0
3, 207120, Note_on_c, 0, 53, 0
3, 207120, Note_on_c, 0, 50, 0
3, 207120, Note_on_c, 0, 55, 60
3, 207120, Note_on_c, 0, 52, 60
3, 207131, Control_c, 0, 64, 127
3, 207311, Control_c, 0, 64, 0
3, 207360, Note_on_c, 0, 52, 0
3, 207360, Note_on_c, 0, 55, 0
3, 207600, Note_on_c, 0, 43, 46
3, 207600, Note_on_c, 0, 47, 46
3, 207609, Control_c, 0, 64, 127
3, 207837, Control_c, 0, 64, 0
3, 207840, Note_on_c, 0, 47, 0
3, 207840, Note_on_c, 0, 43, 0
3, 207840, Note_on_c, 0, 45, 50
3, 207840, Note_on_c, 0, 48, 50
3, 207866, Control_c, 0, 64, 127
3, 208080, Note_on_c, 0, 48, 0
3, 208080, Note_on_c, 0, 45, 0
3, 208080, Note_on_c, 0, 47, 55
3, 208080, Note_on_c, 0, 50, 55
3, 208091, Control_c, 0, 64, 0
3, 208109, Control_c, 0, 64, 127
3, 208320, Note_on_c, 0, 50, 0
3, 208320, Note_on_c, 0, 47, 0
3, 208320, Note_on_c, 0, 48, 55
3, 208324, Control_c, 0, 64, 0
3, 208387, Control_c, 0, 64, 127
3, 208800, Note_on_c, 0, 48, 0
3, 209280, Control_c, 0, 64, 0
3, 209280, Note_on_c, 0, 55, 55
3, 209280, Note_on_c, 0, 60, 55
3, 209280, Note_on_c, 0, 52, 55
3, 209314, Control_c, 0, 64, 127
3, 210000, Note_on_c, 0, 55, 0
3, 210000, Note_on_c, 0, 58, 55
3, 210011, Control_c, 0, 64, 0
3, 210026, Control_c, 0, 64, 127
3, 210191, Control_c, 0, 64, 0
3, 210240, Note_on_c, 0, 58, 0
3, 210240, Note_on_c, 0, 52, 0
3, 210240, Note_on_c, 0, 53, 48
3, 210720, Note_on_c, 0, 53, 0
3, 210720, Note_on_c, 0, 60, 0
3, 211440, Note_on_c, 0, 54, 46
3, 211440, Note_on_c, 0, 63, 46
3, 211454, Control_c, 0, 64, 127
3, 211680, Note_on_c, 0, 63, 0
3, 211680, Note_on_c, 0, 54, 0
3, 211680, Note_on_c, 0, 55, 50
3, 211680, Note_on_c, 0, 64, 50
3, 211687, Control_c, 0, 64, 0
3, 211705, Control_c, 0, 64, 127
3, 211892, Control_c, 0, 64, 0
3, 211920, Note_on_c, 0, 64, 0
3, 211920, Note_on_c, 0, 55, 0
3, 211920, Note_on_c, 0, 65, 55
3, 212160, Note_on_c, 0, 65, 0
3, 212160, Note_on_c, 0, 64, 55
3, 212160, Note_on_c, 0, 60, 55
3, 212202, Control_c, 0, 64, 127
3, 212640, Note_on_c, 0, 60, 0
3, 212640, Note_on_c, 0, 64, 0
3, 213120, Note_on_c, 0, 55, 55
3, 213120, Note_on_c, 0, 60, 55
3, 213120, Note_on_c, 0, 52, 55
3, 213134, Control_c, 0, 64, 0
3, 213166, Control_c, 0, 64, 127
3, 213840, Note_on_c, 0, 55, 0
3, 213840, Note_on_c, 0, 58, 55
3, 213846, Control_c, 0, 64, 0
3, 213866, Control_c, 0, 64, 127
3, 214031, Control_c, 0, 64, 0
3, 214080, Note_on_c, 0, 58, 0
3, 214080, Note_on_c, 0, 52, 0
3, 214080, Note_on_c, 0, 57, 48
3, 214080, Note_on_c, 0, 53, 48
3, 214560, Note_on_c, 0, 53, 0
3, 214560, Note_on_c, 0, 57, 0
3, 214560, Note_on_c, 0, 60, 0
3, 215040, Note_on_c, 0, 54, 52
3, 215040, Note_on_c, 0, 63, 52
3, 215520, Note_on_c, 0, 63, 0
3, 215520, Note_on_c, 0, 54, 0
3, 216000, Control_c, 0, 64, 127
3, 216000, Note_on_c, 0, 55, 59
3, 216120, Note_on_c, 0, 55, 0
3, 216120, Note_on_c, 0, 64, 49
3, 216240, Note_on_c, 0, 64, 0
3, 216240, Note_on_c, 0, 60, 52
3, 216360, Note_on_c, 0, 60, 0
3, 216360, Note_on_c, 0, 64, 49
3, 216476, Control_c, 0, 64, 0
3, 216480, Note_on_c, 0, 64, 0
3, 216480, Note_on_c, 0, 55, 59
3, 216515, Control_c, 0, 64, 127
3, 216600, Note_on_c, 0, 55, 0
3, 216600, Note_on_c, 0, 64, 48
3, 216720, Note_on_c, 0, 64, 0
3, 216720, Note_on_c, 0, 60, 52
3, 216840, Note_on_c, 0, 60, 0
3, 216840, Note_on_c, 0, 64, 49
3, 216960, Note_on_c, 0, 64, 0
3, 216960, Control_c, 0, 64, 0
3, 216960, Note_on_c, 0, 55, 54
3, 216995, Control_c, 0, 64, 127
3, 217080, Note_on_c, 0, 55, 0
3, 217080, Note_on_c, 0, 67, 45
3, 217200, Note_on_c, 0, 67, 0
3, 217200, Note_on_c, 0, 60, 48
3, 217320, Note_on_c, 0, 60, 0
3, 217320, Note_on_c, 0, 67, 44
3, 217440, Note_on_c, 0, 67, 0
3, 217440, Note_on_c, 0, 55, 49
3, 217465, Control_c, 0, 64, 0
3, 217489, Control_c, 0, 64, 127
3, 217560, Note_on_c, 0, 55, 0
3, 217560, Note_on_c, 0, 65, 37
3, 217680, Note_on_c, 0, 65, 0
3, 217680, Note_on_c, 0, 59, 41
3, 217800, Note_on_c, 0, 59, 0
3, 217800, Note_on_c, 0, 65, 37
3, 217920, Note_on_c, 0, 65, 0
3, 217920, Note_on_c, 0, 48, 44
3, 217924, Control_c, 0, 64, 0
3, 217980, Control_c, 0, 64, 127
3, 218040, Note_on_c, 0, 48, 0
3, 218040, Note_on_c, 0, 52, 38
3, 218160, Note_on_c, 0, 52, 0
3, 218160, Note_on_c, 0, 60, 40
3, 218280, Note_on_c, 0, 60, 0
3, 218280, Note_on_c, 0, 52, 37
3, 218400, Note_on_c, 0, 52, 0
3, 218400, Note_on_c, 0, 48, 44
3, 218418, Control_c, 0, 64, 0
3, 218446, Control_c, 0, 64, 127
3, 218520, Note_on_c, 0, 48, 0
3, 218520, Note_on_c, 0, 52, 38
3, 218640, Note_on_c, 0, 52, 0
3, 218640, Note_on_c, 0, 60, 40
3, 218647, Control_c, 0, 64, 0
3, 218760, Note_on_c, 0, 60, 0
3, 218760, Note_on_c, 0, 52, 38
3, 218880, Note_on_c, 0, 52, 0
3, 218880, Note_on_c, 0, 48, 44
3, 219000, Note_on_c, 0, 48, 0
3, 219000, Note_on_c, 0, 50, 38
3, 219120, Note_on_c, 0, 50, 0
3, 219120, Note_on_c, 0, 59, 40
3, 219240, Note_on_c, 0, 59, 0
3, 219240, Note_on_c, 0, 50, 38
3, 219360, Note_on_c, 0, 50, 0
3, 219360, Note_on_c, 0, 48, 44
3, 219480, Note_on_c, 0, 48, 0
3, 219480, Note_on_c, 0, 53, 38
3, 219600, Note_on_c, 0, 53, 0
3, 219600, Note_on_c, 0, 59, 41
3, 219720, Note_on_c, 0, 59, 0
3, 219720, Note_on_c, 0, 53, 37
3, 219840, Note_on_c, 0, 53, 0
3, 219840, Note_on_c, 0, 48, 44
3, 219872, Control_c, 0, 64, 127
3, 219960, Note_on_c, 0, 48, 0
3, 219960, Note_on_c, 0, 52, 38
3, 220080, Note_on_c, 0, 52, 0
3, 220080, Note_on_c, 0, 60, 40
3, 220200, Note_on_c, 0, 60, 0
3, 220200, Note_on_c, 0, 52, 38
3, 220320, Note_on_c, 0, 52, 0
3, 220320, Note_on_c, 0, 48, 44
3, 220440, Note_on_c, 0, 48, 0
3, 220440, Note_on_c, 0, 52, 38
3, 220535, Control_c, 0, 64, 0
3, 220560, Note_on_c, 0, 52, 0
3, 220560, Note_on_c, 0, 60, 40
3, 220680, Note_on_c, 0, 60, 0
3, 220680, Note_on_c, 0, 52, 38
3, 220800, Note_on_c, 0, 52, 0
3, 220800, Note_on_c, 0, 48, 44
3, 220920, Note_on_c, 0, 48, 0
3, 220920, Note_on_c, 0, 50, 38
3, 221040, Note_on_c, 0, 50, 0
3, 221040, Note_on_c, 0, 59, 40
3, 221160, Note_on_c, 0, 59, 0
3, 221160, Note_on_c, 0, 50, 38
3, 221280, Note_on_c, 0, 50, 0
3, 221280, Note_on_c, 0, 48, 44
3, 221400, Note_on_c, 0, 48, 0
3, 221400, Note_on_c, 0, 53, 38
3, 221520, Note_on_c, 0, 53, 0
3, 221520, Note_on_c, 0, 59, 41
3, 221640, Note_on_c, 0, 59, 0
3, 221640, Note_on_c, 0, 53, 38
3, 221760, Note_on_c, 0, 53, 0
3, 221760, Note_on_c, 0, 48, 44
3, 221798, Control_c, 0, 64, 127
3, 221880, Note_on_c, 0, 48, 0
3, 221880, Note_on_c, 0, 52, 38
3, 222000, Note_on_c, 0, 52, 0
3, 222000, Note_on_c, 0, 60, 41
3, 222120, Note_on_c, 0, 60, 0
3, 222120, Note_on_c, 0, 52, 38
3, 222237, Control_c, 0, 64, 0
3, 222240, Note_on_c, 0, 52, 0
3, 222240, Note_on_c, 0, 48, 44
3, 222272, Control_c, 0, 64, 127
3, 222360, Note_on_c, 0, 48, 0
3, 222360, Note_on_c, 0, 53, 38
3, 222480, Note_on_c, 0, 53, 0
3, 222480, Note_on_c, 0, 59, 41
3, 222600, Note_on_c, 0, 59, 0
3, 222600, Note_on_c, 0, 53, 38
3, 222720, Note_on_c, 0, 53, 0
3, 222720, Control_c, 0, 64, 0
3, 222720, Note_on_c, 0, 48, 44
3, 222784, Control_c, 0, 64, 127
3, 222840, Note_on_c, 0, 48, 0
3, 222840, Note_on_c, 0, 52, 38
3, 222960, Note_on_c, 0, 52, 0
3, 222960, Note_on_c, 0, 60, 41
3, 223080, Note_on_c, 0, 60, 0
3, 223080, Note_on_c, 0, 52, 38
3, 223179, Control_c, 0, 64, 0
3, 223200, Note_on_c, 0, 52, 0
3, 223200, Note_on_c, 0, 48, 44
3, 223221, Control_c, 0, 64, 127
3, 223320, Note_on_c, 0, 48, 0
3, 223320, Note_on_c, 0, 53, 37
3, 223440, Note_on_c, 0, 53, 0
3, 223440, Note_on_c, 0, 59, 41
3, 223560, Note_on_c, 0, 59, 0
3, 223560, Note_on_c, 0, 53, 38
3, 223680, Note_on_c, 0, 53, 0
3, 223680, Control_c, 0, 64, 0
3, 223680, Note_on_c, 0, 48, 44
3, 223751, Control_c, 0, 64, 127
3, 223800, Note_on_c, 0, 48, 0
3, 223800, Note_on_c, 0, 52, 38
3, 223920, Note_on_c, 0, 52, 0
3, 223920, Note_on_c, 0, 60, 40
3, 224040, Note_on_c, 0, 60, 0
3, 224040, Note_on_c, 0, 52, 39
3, 224128, Control_c, 0, 64, 0
3, 224160, Note_on_c, 0, 52, 0
3, 224160, Note_on_c, 0, 48, 52
3, 224171, Control_c, 0, 64, 127
3, 224280, Note_on_c, 0, 48, 0
3, 224280, Note_on_c, 0, 53, 44
3, 224365, Control_c, 0, 64, 0
3, 224396, Control_c, 0, 64, 127
3, 224400, Note_on_c, 0, 53, 0
3, 224400, Note_on_c, 0, 59, 44
3, 224520, Note_on_c, 0, 59, 0
3, 224520, Note_on_c, 0, 53, 40
3, 224640, Note_on_c, 0, 53, 0
3, 224640, Control_c, 0, 64, 0
3, 224640, Note_on_c, 0, 48, 44
3, 224729, Control_c, 0, 64, 127
3, 224760, Note_on_c, 0, 48, 0
3, 224760, Note_on_c, 0, 52, 38
3, 224880, Note_on_c, 0, 52, 0
3, 224880, Note_on_c, 0, 60, 40
3, 225000, Note_on_c, 0, 60, 0
3, 225000, Note_on_c, 0, 52, 38
3, 225120, Note_on_c, 0, 52, 0
3, 225120, Note_on_c, 0, 48, 52
3, 225126, Control_c, 0, 64, 0
3, 225151, Control_c, 0, 64, 127
3, 225240, Note_on_c, 0, 48, 0
3, 225240, Note_on_c, 0, 53, 44
3, 225340, Control_c, 0, 64, 0
3, 225360, Note_on_c, 0, 53, 0
3, 225360, Control_c, 0, 64, 127
3, 225360, Note_on_c, 0, 59, 40
3, 225480, Note_on_c, 0, 59, 0
3, 225480, Note_on_c, 0, 53, 38
3, 225600, Note_on_c, 0, 53, 0
3, 225600, Control_c, 0, 64, 0
3, 225600, Note_on_c, 0, 48, 44
3, 225600, Note_on_c, 0, 52, 44
3, 225660, Control_c, 0, 64, 127
3, 225773, Control_c, 0, 64, 0
3, 226080, Note_on_c, 0, 52, 0
3, 226080, Note_on_c, 0, 48, 0
3, 226320, Note_on_c, 0, 56, 42
3, 226440, Note_on_c, 0, 56, 0
3, 226560, Note_on_c, 0, 57, 42
3, 227280, Note_on_c, 0, 57, 0
3, 227520, Note_on_c, 0, 41, 73
3, 227520, Note_on_c, 0, 53, 73
3, 227564, Control_c, 0, 64, 127
3, 227640, Note_on_c, 0, 53, 0
3, 227640, Note_on_c, 0, 41, 0
3, 227684, Control_c, 0, 64, 0
3, 228000, Note_on_c, 0, 43, 73
3, 228000, Note_on_c, 0, 55, 73
3, 228057, Control_c, 0, 64, 127
3, 228120, Note_on_c, 0, 55, 0
3, 228120, Note_on_c, 0, 43, 0
3, 228189, Control_c, 0, 64, 0
3, 228480, Note_on_c, 0, 36, 69
3, 228480, Note_on_c, 0, 40, 69
3, 228480, Note_on_c, 0, 43, 69
3, 228480, Note_on_c, 0, 48, 69
3, 228522, Control_c, 0, 64, 127
3, 228600, Note_on_c, 0, 48, 0
3, 228600, Note_on_c, 0, 36, 0
3, 228600, Note_on_c, 0, 40, 0
3, 228600, Note_on_c, 0, 43, 0
3, 228713, Control_c, 0, 64, 0
3, 229440, Control_c, 0, 64, 127
3, 229440, Note_on_c, 0, 62, 49
3, 229440, Note_on_c, 0, 59, 49
3, 229440, Control_c, 0, 91, 127
3, 229680, Note_on_c, 0, 59, 0
3, 229680, Note_on_c, 0, 55, 47
3, 229920, Note_on_c, 0, 55, 0
3, 229920, Note_on_c, 0, 62, 0
3, 229920, Note_on_c, 0, 62, 51
3, 229920, Note_on_c, 0, 55, 51
3, 229929, Control_c, 0, 64, 0
3, 230040, Note_on_c, 0, 55, 0
3, 230040, Note_on_c, 0, 62, 0
3, 230160, Note_on_c, 0, 62, 47
3, 230160, Note_on_c, 0, 55, 47
3, 230176, Control_c, 0, 64, 127
3, 230349, Control_c, 0, 64, 0
3, 230400, Note_on_c, 0, 55, 0
3, 230400, Note_on_c, 0, 62, 0
3, 230400, Note_on_c, 0, 59, 51
3, 230400, Note_on_c, 0, 62, 51
3, 230640, Note_on_c, 0, 59, 0
3, 230640, Note_on_c, 0, 57, 48
3, 230760, Note_on_c, 0, 57, 0
3, 230880, Note_on_c, 0, 62, 0
3, 230880, Note_on_c, 0, 54, 48
3, 230880, Note_on_c, 0, 62, 48
3, 231360, Note_on_c, 0, 62, 0
3, 231360, Note_on_c, 0, 54, 0
3, 231360, Note_on_c, 0, 62, 52
3, 231360, Note_on_c, 0, 57, 52
3, 231416, Control_c, 0, 64, 127
3, 231600, Note_on_c, 0, 57, 0
3, 231600, Note_on_c, 0, 55, 48
3, 231656, Control_c, 0, 64, 0
3, 231720, Note_on_c, 0, 55, 0
3, 231840, Note_on_c, 0, 62, 0
3, 231840, Note_on_c, 0, 62, 51
3, 231840, Note_on_c, 0, 59, 51
3, 231875, Control_c, 0, 64, 127
3, 232080, Note_on_c, 0, 59, 0
3, 232080, Note_on_c, 0, 57, 48
3, 232193, Control_c, 0, 64, 0
3, 232200, Note_on_c, 0, 57, 0
3, 232320, Note_on_c, 0, 62, 0
3, 232320, Note_on_c, 0, 62, 62
3, 232320, Note_on_c, 0, 60, 62
3, 232405, Control_c, 0, 64, 127
3, 232800, Note_on_c, 0, 60, 0
3, 232800, Note_on_c, 0, 59, 50
3, 232828, Control_c, 0, 64, 0
3, 233040, Note_on_c, 0, 59, 0
3, 233040, Note_on_c, 0, 62, 0
3, 233293, Control_c, 0, 64, 127
3, 233760, Note_on_c, 0, 47, 48
3, 233760, Note_on_c, 0, 50, 48
3, 234002, Control_c, 0, 64, 0
3, 234011, Control_c, 0, 64, 127
3, 234240, Note_on_c, 0, 50, 0
3, 234240, Note_on_c, 0, 47, 0
3, 234240, Control_c, 0, 64, 0
3, 234240, Note_on_c, 0, 48, 48
3, 234240, Note_on_c, 0, 52, 48
3, 234318, Control_c, 0, 64, 127
3, 234522, Control_c, 0, 64, 0
3, 234720, Note_on_c, 0, 52, 0
3, 234720, Note_on_c, 0, 48, 0
3, 234720, Note_on_c, 0, 49, 51
3, 234720, Note_on_c, 0, 55, 51
3, 234748, Control_c, 0, 64, 127
3, 235052, Control_c, 0, 64, 0
3, 235200, Note_on_c, 0, 55, 0
3, 235200, Note_on_c, 0, 49, 0
3, 235200, Note_on_c, 0, 50, 43
3, 235200, Note_on_c, 0, 59, 43
3, 235274, Control_c, 0, 64, 127
3, 235554, Control_c, 0, 64, 0
3, 235680, Note_on_c, 0, 59, 0
3, 235680, Note_on_c, 0, 57, 43
3, 235731, Control_c, 0, 64, 127
3, 235989, Control_c, 0, 64, 0
3, 236160, Note_on_c, 0, 57, 0
3, 236160, Note_on_c, 0, 50, 0
3, 236160, Note_on_c, 0, 60, 49
3, 236160, Note_on_c, 0, 55, 49
3, 236245, Control_c, 0, 64, 127
3, 236640, Note_on_c, 0, 60, 0
3, 236640, Note_on_c, 0, 59, 44
3, 236781, Control_c, 0, 64, 0
3, 236880, Note_on_c, 0, 59, 0
3, 236880, Note_on_c, 0, 55, 0
3, 237120, Note_on_c, 0, 59, 48
3, 237148, Control_c, 0, 64, 127
3, 237240, Note_on_c, 0, 59, 0
3, 237240, Note_on_c, 0, 62, 37
3, 237360, Note_on_c, 0, 62, 0
3, 237360, Note_on_c, 0, 55, 44
3, 237480, Note_on_c, 0, 55, 0
3, 237480, Note_on_c, 0, 62, 38
3, 237600, Note_on_c, 0, 62, 0
3, 237600, Note_on_c, 0, 55, 48
3, 237720, Note_on_c, 0, 55, 0
3, 237720, Note_on_c, 0, 62, 40
3, 237840, Note_on_c, 0, 62, 0
3, 237840, Control_c, 0, 64, 0
3, 237840, Note_on_c, 0, 56, 46
3, 237868, Control_c, 0, 64, 127
3, 237960, Note_on_c, 0, 56, 0
3, 237960, Note_on_c, 0, 62, 40
3, 238042, Control_c, 0, 64, 0
3, 238080, Note_on_c, 0, 62, 0
3, 238080, Note_on_c, 0, 57, 50
3, 238114, Control_c, 0, 64, 127
3, 238200, Note_on_c, 0, 57, 0
3, 238200, Note_on_c, 0, 62, 39
3, 238291, Control_c, 0, 64, 0
3, 238320, Note_on_c, 0, 62, 0
3, 238320, Note_on_c, 0, 55, 44
3, 238337, Control_c, 0, 64, 127
3, 238440, Note_on_c, 0, 55, 0
3, 238440, Note_on_c, 0, 62, 38
3, 238543, Control_c, 0, 64, 0
3, 238560, Note_on_c, 0, 62, 0
3, 238560, Note_on_c, 0, 54, 48
3, 238583, Control_c, 0, 64, 127
3, 238680, Note_on_c, 0, 54, 0
3, 238680, Note_on_c, 0, 62, 44
3, 238800, Note_on_c, 0, 62, 0
3, 238800, Note_on_c, 0, 50, 48
3, 238920, Note_on_c, 0, 50, 0
3, 238920, Note_on_c, 0, 62, 43
3, 239040, Note_on_c, 0, 62, 0
3, 239040, Control_c, 0, 64, 0
3, 239040, Note_on_c, 0, 55, 48
3, 239096, Control_c, 0, 64, 127
3, 239160, Note_on_c, 0, 55, 0
3, 239160, Note_on_c, 0, 67, 43
3, 239280, Note_on_c, 0, 67, 0
3, 239280, Note_on_c, 0, 59, 48
3, 239386, Control_c, 0, 64, 0
3, 239400, Note_on_c, 0, 59, 0
3, 239400, Note_on_c, 0, 67, 42
3, 239520, Note_on_c, 0, 67, 0
3, 239520, Note_on_c, 0, 57, 51
3, 239569, Control_c, 0, 64, 127
3, 239640, Note_on_c, 0, 57, 0
3, 239640, Note_on_c, 0, 67, 48
3, 239760, Note_on_c, 0, 67, 0
3, 239760, Note_on_c, 0, 60, 51
3, 239880, Note_on_c, 0, 60, 0
3, 239880, Note_on_c, 0, 67, 48
3, 239894, Control_c, 0, 64, 0
3, 240000, Note_on_c, 0, 67, 0
3, 240000, Note_on_c, 0, 60, 58
3, 240028, Control_c, 0, 64, 127
3, 240120, Note_on_c, 0, 60, 0
3, 240120, Note_on_c, 0, 67, 47
3, 240240, Note_on_c, 0, 67, 0
3, 240240, Note_on_c, 0, 64, 51
3, 240360, Note_on_c, 0, 64, 0
3, 240360, Note_on_c, 0, 67, 47
3, 240480, Note_on_c, 0, 67, 0
3, 240480, Note_on_c, 0, 59, 51
3, 240501, Control_c, 0, 64, 0
3, 240572, Control_c, 0, 64, 127
3, 240600, Note_on_c, 0, 59, 0
3, 240600, Note_on_c, 0, 67, 42
3, 240720, Note_on_c, 0, 67, 0
3, 240720, Note_on_c, 0, 62, 47
3, 240833, Control_c, 0, 64, 0
3, 240840, Note_on_c, 0, 62, 0
3, 240840, Note_on_c, 0, 67, 43
3, 240960, Note_on_c, 0, 67, 0
3, 240960, Note_on_c, 0, 57, 49
3, 240988, Control_c, 0, 64, 127
3, 241080, Note_on_c, 0, 57, 0
3, 241080, Note_on_c, 0, 67, 44
3, 241200, Note_on_c, 0, 67, 0
3, 241200, Note_on_c, 0, 60, 49
3, 241320, Note_on_c, 0, 60, 0
3, 241320, Note_on_c, 0, 67, 43
3, 241327, Control_c, 0, 64, 0
3, 241440, Note_on_c, 0, 67, 0
3, 241440, Note_on_c, 0, 59, 52
3, 241511, Control_c, 0, 64, 127
3, 241560, Note_on_c, 0, 59, 0
3, 241560, Note_on_c, 0, 67, 46
3, 241680, Note_on_c, 0, 67, 0
3, 241680, Note_on_c, 0, 62, 50
3, 241800, Note_on_c, 0, 62, 0
3, 241800, Note_on_c, 0, 67, 46
3, 241849, Control_c, 0, 64, 0
3, 241920, Note_on_c, 0, 67, 0
3, 241920, Note_on_c, 0, 62, 62
3, 241984, Control_c, 0, 64, 127
3, 242040, Note_on_c, 0, 62, 0
3, 242040, Note_on_c, 0, 67, 48
3, 242160, Note_on_c, 0, 67, 0
3, 242160, Note_on_c, 0, 65, 52
3, 242280, Note_on_c, 0, 65, 0
3, 242280, Note_on_c, 0, 67, 47
3, 242358, Control_c, 0, 64, 0
3, 242400, Note_on_c, 0, 67, 0
3, 242400, Note_on_c, 0, 60, 52
3, 242471, Control_c, 0, 64, 127
3, 242520, Note_on_c, 0, 60, 0
3, 242520, Note_on_c, 0, 67, 46
3, 242640, Note_on_c, 0, 67, 0
3, 242640, Note_on_c, 0, 64, 49
3, 242760, Note_on_c, 0, 64, 0
3, 242760, Note_on_c, 0, 67, 46
3, 242774, Control_c, 0, 64, 0
3, 242880, Note_on_c, 0, 67, 0
3, 242880, Note_on_c, 0, 59, 51
3, 242922, Control_c, 0, 64, 127
3, 243000, Note_on_c, 0, 59, 0
3, 243000, Note_on_c, 0, 67, 48
3, 243120, Note_on_c, 0, 67, 0
3, 243120, Note_on_c, 0, 62, 51
3, 243240, Note_on_c, 0, 62, 0
3, 243240, Note_on_c, 0, 67, 46
3, 243247, Control_c, 0, 64, 0
3, 243360, Note_on_c, 0, 67, 0
3, 243360, Note_on_c, 0, 60, 56
3, 243424, Control_c, 0, 64, 127
3, 243480, Note_on_c, 0, 60, 0
3, 243480, Note_on_c, 0, 67, 51
3, 243600, Note_on_c, 0, 67, 0
3, 243600, Note_on_c, 0, 64, 56
3, 243720, Note_on_c, 0, 64, 0
3, 243720, Note_on_c, 0, 67, 51
3, 243748, Control_c, 0, 64, 0
3, 243840, Note_on_c, 0, 67, 0
3, 243840, Note_on_c, 0, 64, 64
3, 243886, Control_c, 0, 64, 127
3, 243960, Note_on_c, 0, 64, 0
3, 243960, Note_on_c, 0, 67, 52
3, 244080, Note_on_c, 0, 67, 0
3, 244080, Note_on_c, 0, 66, 56
3, 244200, Note_on_c, 0, 66, 0
3, 244200, Note_on_c, 0, 67, 51
3, 244309, Control_c, 0, 64, 0
3, 244320, Note_on_c, 0, 67, 0
3, 244320, Note_on_c, 0, 62, 56
3, 244360, Control_c, 0, 64, 127
3, 244440, Note_on_c, 0, 62, 0
3, 244440, Note_on_c, 0, 67, 48
3, 244560, Note_on_c, 0, 67, 0
3, 244560, Note_on_c, 0, 66, 51
3, 244680, Note_on_c, 0, 66, 0
3, 244680, Note_on_c, 0, 67, 47
3, 244800, Note_on_c, 0, 67, 0
3, 244800, Control_c, 0, 64, 0
3, 244800, Note_on_c, 0, 60, 50
3, 244839, Control_c, 0, 64, 127
3, 244920, Note_on_c, 0, 60, 0
3, 244920, Note_on_c, 0, 67, 44
3, 245040, Note_on_c, 0, 67, 0
3, 245040, Note_on_c, 0, 66, 46
3, 245160, Note_on_c, 0, 66, 0
3, 245160, Note_on_c, 0, 67, 44
3, 245276, Control_c, 0, 64, 0
3, 245280, Note_on_c, 0, 67, 0
3, 245280, Note_on_c, 0, 59, 50
3, 245319, Control_c, 0, 64, 127
3, 245400, Note_on_c, 0, 59, 0
3, 245400, Note_on_c, 0, 67, 44
3, 245488, Control_c, 0, 64, 0
3, 245513, Control_c, 0, 64, 127
3, 245520, Note_on_c, 0, 67, 0
3, 245520, Note_on_c, 0, 60, 46
3, 245640, Note_on_c, 0, 60, 0
3, 245640, Note_on_c, 0, 67, 43
3, 245760, Note_on_c, 0, 67, 0
3, 245760, Control_c, 0, 64, 0
3, 245760, Note_on_c, 0, 55, 46
3, 245838, Control_c, 0, 64, 127
3, 245880, Note_on_c, 0, 55, 0
3, 245880, Note_on_c, 0, 67, 38
3, 246000, Note_on_c, 0, 67, 0
3, 246000, Note_on_c, 0, 59, 42
3, 246120, Note_on_c, 0, 59, 0
3, 246120, Note_on_c, 0, 67, 38
3, 246240, Note_on_c, 0, 67, 0
3, 246240, Note_on_c, 0, 55, 47
3, 246360, Note_on_c, 0, 55, 0
3, 246360, Note_on_c, 0, 67, 42
3, 246367, Control_c, 0, 64, 0
3, 246480, Note_on_c, 0, 67, 0
3, 246480, Note_on_c, 0, 59, 39
3, 246600, Note_on_c, 0, 59, 0
3, 246600, Note_on_c, 0, 67, 39
3, 246720, Note_on_c, 0, 67, 0
3, 246720, Note_on_c, 0, 55, 43
3, 246766, Control_c, 0, 64, 127
3, 246840, Note_on_c, 0, 55, 0
3, 246840, Note_on_c, 0, 67, 36
3, 246954, Control_c, 0, 64, 0
3, 246960, Note_on_c, 0, 67, 0
3, 246960, Note_on_c, 0, 60, 39
3, 247017, Control_c, 0, 64, 127
3, 247080, Note_on_c, 0, 60, 0
3, 247080, Note_on_c, 0, 67, 37
3, 247200, Note_on_c, 0, 67, 0
3, 247200, Note_on_c, 0, 55, 42
3, 247320, Note_on_c, 0, 55, 0
3, 247320, Note_on_c, 0, 67, 37
3, 247371, Control_c, 0, 64, 0
3, 247440, Note_on_c, 0, 67, 0
3, 247440, Note_on_c, 0, 63, 39
3, 247560, Note_on_c, 0, 63, 0
3, 247560, Note_on_c, 0, 67, 36
3, 247680, Note_on_c, 0, 67, 0
3, 247680, Note_on_c, 0, 55, 41
3, 247722, Control_c, 0, 64, 127
3, 247800, Note_on_c, 0, 55, 0
3, 247800, Note_on_c, 0, 67, 38
3, 247920, Note_on_c, 0, 67, 0
3, 247920, Note_on_c, 0, 62, 41
3, 248040, Note_on_c, 0, 62, 0
3, 248040, Note_on_c, 0, 67, 37
3, 248160, Note_on_c, 0, 67, 0
3, 248160, Note_on_c, 0, 55, 46
3, 248280, Note_on_c, 0, 55, 0
3, 248280, Note_on_c, 0, 67, 38
3, 248294, Control_c, 0, 64, 0
3, 248400, Note_on_c, 0, 67, 0
3, 248400, Note_on_c, 0, 59, 41
3, 248520, Note_on_c, 0, 59, 0
3, 248520, Note_on_c, 0, 67, 38
3, 248640, Note_on_c, 0, 67, 0
3, 248640, Note_on_c, 0, 55, 44
3, 248760, Note_on_c, 0, 55, 0
3, 248760, Note_on_c, 0, 67, 37
3, 248880, Note_on_c, 0, 67, 0
3, 248880, Note_on_c, 0, 60, 41
3, 248886, Control_c, 0, 64, 127
3, 249000, Note_on_c, 0, 60, 0
3, 249000, Note_on_c, 0, 67, 38
3, 249074, Control_c, 0, 64, 0
3, 249120, Note_on_c, 0, 67, 0
3, 249120, Note_on_c, 0, 55, 46
3, 249240, Note_on_c, 0, 55, 0
3, 249240, Note_on_c, 0, 67, 38
3, 249360, Note_on_c, 0, 67, 0
3, 249360, Control_c, 0, 64, 127
3, 249360, Note_on_c, 0, 63, 42
3, 249480, Note_on_c, 0, 63, 0
3, 249480, Note_on_c, 0, 67, 38
3, 249600, Note_on_c, 0, 67, 0
3, 249600, Control_c, 0, 64, 0
3, 249600, Note_on_c, 0, 55, 44
3, 249646, Control_c, 0, 64, 127
3, 249720, Note_on_c, 0, 55, 0
3, 249720, Note_on_c, 0, 67, 38
3, 249840, Note_on_c, 0, 67, 0
3, 249840, Note_on_c, 0, 62, 41
3, 249960, Note_on_c, 0, 62, 0
3, 249960, Note_on_c, 0, 67, 37
3, 250080, Note_on_c, 0, 67, 0
3, 250080, Note_on_c, 0, 55, 56
3, 250160, Control_c, 0, 64, 0
3, 250200, Note_on_c, 0, 55, 0
3, 250200, Note_on_c, 0, 67, 44
3, 250229, Control_c, 0, 64, 127
3, 250320, Note_on_c, 0, 67, 0
3, 250320, Note_on_c, 0, 59, 48
3, 250440, Note_on_c, 0, 59, 0
3, 250440, Note_on_c, 0, 67, 45
3, 250560, Note_on_c, 0, 67, 0
3, 250560, Control_c, 0, 64, 0
3, 250560, Note_on_c, 0, 56, 56
3, 250617, Control_c, 0, 64, 127
3, 250680, Note_on_c, 0, 56, 0
3, 250680, Note_on_c, 0, 67, 37
3, 250800, Note_on_c, 0, 67, 0
3, 250800, Note_on_c, 0, 60, 42
3, 250920, Note_on_c, 0, 60, 0
3, 250920, Note_on_c, 0, 67, 38
3, 251040, Note_on_c, 0, 67, 0
3, 251040, Control_c, 0, 64, 0
3, 251040, Note_on_c, 0, 56, 56
3, 251080, Control_c, 0, 64, 127
3, 251160, Note_on_c, 0, 56, 0
3, 251160, Note_on_c, 0, 66, 42
3, 251280, Note_on_c, 0, 66, 0
3, 251280, Note_on_c, 0, 60, 42
3, 251400, Note_on_c, 0, 60, 0
3, 251400, Note_on_c, 0, 66, 42
3, 251520, Note_on_c, 0, 66, 0
3, 251520, Control_c, 0, 64, 0
3, 251520, Note_on_c, 0, 55, 56
3, 251520, Note_on_c, 0, 67, 56
3, 251555, Control_c, 0, 64, 127
3, 251760, Note_on_c, 0, 67, 0
3, 251760, Note_on_c, 0, 55, 0
3, 251852, Control_c, 0, 64, 0
3, 252000, Note_on_c, 0, 55, 54
3, 252000, Note_on_c, 0, 67, 54
3, 252028, Control_c, 0, 64, 127
3, 252240, Note_on_c, 0, 67, 0
3, 252240, Note_on_c, 0, 55, 0
3, 252275, Control_c, 0, 64, 0
3, 252480, Note_on_c, 0, 55, 55
3, 252480, Note_on_c, 0, 67, 55
3, 252551, Control_c, 0, 64, 127
3, 252720, Note_on_c, 0, 67, 0
3, 252720, Note_on_c, 0, 55, 0
3, 252840, Control_c, 0, 64, 0
3, 253440, Note_on_c, 0, 55, 31
3, 253440, Note_on_c, 0, 59, 31
3, 253440, Note_on_c, 0, 62, 31
3, 253440, Note_on_c, 0, 65, 31
3, 253468, Control_c, 0, 64, 127
3, 253680, Note_on_c, 0, 65, 0
3, 253680, Note_on_c, 0, 55, 0
3, 253680, Note_on_c, 0, 59, 0
3, 253680, Note_on_c, 0, 62, 0
3, 253758, Control_c, 0, 64, 0
3, 253920, Note_on_c, 0, 55, 31
3, 253920, Note_on_c, 0, 59, 31
3, 253920, Note_on_c, 0, 62, 31
3, 253920, Note_on_c, 0, 65, 31
3, 253948, Control_c, 0, 64, 127
3, 254160, Note_on_c, 0, 65, 0
3, 254160, Note_on_c, 0, 55, 0
3, 254160, Note_on_c, 0, 59, 0
3, 254160, Note_on_c, 0, 62, 0
3, 254273, Control_c, 0, 64, 0
3, 254400, Note_on_c, 0, 55, 31
3, 254400, Note_on_c, 0, 59, 31
3, 254400, Note_on_c, 0, 62, 31
3, 254400, Note_on_c, 0, 65, 31
3, 254456, Control_c, 0, 64, 127
3, 254640, Note_on_c, 0, 65, 0
3, 254640, Note_on_c, 0, 55, 0
3, 254640, Note_on_c, 0, 59, 0
3, 254640, Note_on_c, 0, 62, 0
3, 254767, Control_c, 0, 64, 0
3, 255360, Control_c, 0, 91, 127
3, 255360, Control_c, 0, 64, 0
3, 255600, Note_on_c, 0, 48, 51
3, 255840, Note_on_c, 0, 48, 0
3, 255840, Note_on_c, 0, 52, 51
3, 256080, Note_on_c, 0, 52, 0
3, 256080, Note_on_c, 0, 55, 51
3, 256320, Note_on_c, 0, 55, 0
3, 256320, Note_on_c, 0, 60, 54
3, 256560, Note_on_c, 0, 60, 0
3, 256560, Note_on_c, 0, 48, 51
3, 256800, Note_on_c, 0, 48, 0
3, 256800, Note_on_c, 0, 55, 54
3, 257040, Note_on_c, 0, 55, 0
3, 257040, Note_on_c, 0, 43, 50
3, 257280, Note_on_c, 0, 43, 0
3, 257520, Note_on_c, 0, 48, 51
3, 257760, Note_on_c, 0, 48, 0
3, 257760, Note_on_c, 0, 52, 51
3, 258000, Note_on_c, 0, 52, 0
3, 258000, Note_on_c, 0, 55, 54
3, 258240, Note_on_c, 0, 55, 0
3, 258240, Note_on_c, 0, 60, 55
3, 258480, Note_on_c, 0, 60, 0
3, 258480, Note_on_c, 0, 48, 52
3, 258720, Note_on_c, 0, 48, 0
3, 258720, Note_on_c, 0, 55, 54
3, 258960, Note_on_c, 0, 55, 0
3, 258960, Note_on_c, 0, 43, 52
3, 259200, Note_on_c, 0, 43, 0
3, 259200, Note_on_c, 0, 57, 58
3, 259440, Note_on_c, 0, 57, 0
3, 259440, Note_on_c, 0, 60, 57
3, 259680, Note_on_c, 0, 60, 0
3, 259680, Note_on_c, 0, 55, 60
3, 259920, Note_on_c, 0, 55, 0
3, 259920, Note_on_c, 0, 60, 56
3, 260160, Note_on_c, 0, 60, 0
3, 260160, Note_on_c, 0, 53, 60
3, 260400, Note_on_c, 0, 53, 0
3, 260400, Note_on_c, 0, 60, 58
3, 260640, Note_on_c, 0, 60, 0
3, 260640, Note_on_c, 0, 52, 62
3, 260880, Note_on_c, 0, 52, 0
3, 260880, Note_on_c, 0, 60, 57
3, 261120, Note_on_c, 0, 60, 0
3, 261120, Control_c, 0, 64, 127
3, 261360, Note_on_c, 0, 67, 54
3, 261360, Note_on_c, 0, 59, 54
3, 261600, Note_on_c, 0, 59, 0
3, 261600, Note_on_c, 0, 67, 0
3, 261600, Note_on_c, 0, 67, 54
3, 261600, Note_on_c, 0, 60, 54
3, 261607, Control_c, 0, 64, 0
3, 261649, Control_c, 0, 64, 127
3, 261755, Control_c, 0, 64, 0
3, 261840, Note_on_c, 0, 60, 0
3, 261840, Note_on_c, 0, 67, 0
3, 262080, Note_on_c, 0, 55, 55
3, 262080, Note_on_c, 0, 59, 55
3, 262560, Note_on_c, 0, 59, 0
3, 262560, Note_on_c, 0, 55, 0
3, 263040, Note_on_c, 0, 36, 79
3, 263093, Control_c, 0, 64, 127
3, 263160, Note_on_c, 0, 36, 0
3, 263160, Note_on_c, 0, 40, 68
3, 263273, Control_c, 0, 64, 0
3, 263280, Note_on_c, 0, 40, 0
3, 263280, Note_on_c, 0, 43, 69
3, 263294, Control_c, 0, 64, 127
3, 263400, Note_on_c, 0, 43, 0
3, 263400, Note_on_c, 0, 48, 68
3, 263509, Control_c, 0, 64, 0
3, 263520, Note_on_c, 0, 48, 0
3, 263520, Note_on_c, 0, 40, 74
3, 263640, Note_on_c, 0, 40, 0
3, 263640, Note_on_c, 0, 52, 69
3, 263760, Note_on_c, 0, 52, 0
3, 263760, Note_on_c, 0, 43, 74
3, 263880, Note_on_c, 0, 43, 0
3, 263880, Note_on_c, 0, 55, 69
3, 264000, Note_on_c, 0, 55, 0
3, 264000, Note_on_c, 0, 48, 74
3, 264120, Note_on_c, 0, 48, 0
3, 264120, Note_on_c, 0, 52, 67
3, 264240, Note_on_c, 0, 52, 0
3, 264240, Note_on_c, 0, 55, 69
3, 264360, Note_on_c, 0, 55, 0
3, 264360, Note_on_c, 0, 60, 68
3, 264480, Note_on_c, 0, 60, 0
3, 264480, Note_on_c, 0, 43, 74
3, 264515, Control_c, 0, 64, 127
3, 264600, Note_on_c, 0, 43, 0
3, 264600, Note_on_c, 0, 47, 69
3, 264720, Note_on_c, 0, 47, 0
3, 264720, Note_on_c, 0, 50, 73
3, 264840, Note_on_c, 0, 50, 0
3, 264840, Note_on_c, 0, 55, 69
3, 264960, Note_on_c, 0, 55, 0
3, 264960, Note_on_c, 0, 36, 74
3, 264971, Control_c, 0, 64, 0
3, 265045, Control_c, 0, 64, 127
3, 265080, Note_on_c, 0, 36, 0
3, 265080, Note_on_c, 0, 40, 68
3, 265200, Note_on_c, 0, 40, 0
3, 265200, Note_on_c, 0, 43, 69
3, 265320, Note_on_c, 0, 43, 0
3, 265320, Note_on_c, 0, 48, 67
3, 265422, Control_c, 0, 64, 0
3, 265440, Note_on_c, 0, 48, 0
3, 265440, Note_on_c, 0, 40, 74
3, 265560, Note_on_c, 0, 40, 0
3, 265560, Note_on_c, 0, 52, 69
3, 265680, Note_on_c, 0, 52, 0
3, 265680, Note_on_c, 0, 43, 72
3, 265800, Note_on_c, 0, 43, 0
3, 265800, Note_on_c, 0, 55, 69
3, 265920, Note_on_c, 0, 55, 0
3, 265920, Note_on_c, 0, 48, 75
3, 266040, Note_on_c, 0, 48, 0
3, 266040, Note_on_c, 0, 52, 67
3, 266160, Note_on_c, 0, 52, 0
3, 266160, Note_on_c, 0, 55, 69
3, 266280, Note_on_c, 0, 55, 0
3, 266280, Note_on_c, 0, 60, 68
3, 266400, Note_on_c, 0, 60, 0
3, 266400, Note_on_c, 0, 43, 77
3, 266432, Control_c, 0, 64, 127
3, 266520, Note_on_c, 0, 43, 0
3, 266520, Note_on_c, 0, 47, 68
3, 266640, Note_on_c, 0, 47, 0
3, 266640, Note_on_c, 0, 50, 69
3, 266760, Note_on_c, 0, 50, 0
3, 266760, Note_on_c, 0, 55, 68
3, 266809, Control_c, 0, 64, 0
3, 266880, Note_on_c, 0, 55, 0
3, 266880, Note_on_c, 0, 57, 65
3, 267000, Note_on_c, 0, 57, 0
3, 267000, Note_on_c, 0, 60, 60
3, 267120, Note_on_c, 0, 60, 0
3, 267120, Note_on_c, 0, 57, 65
3, 267240, Note_on_c, 0, 57, 0
3, 267240, Note_on_c, 0, 60, 60
3, 267360, Note_on_c, 0, 60, 0
3, 267360, Note_on_c, 0, 55, 65
3, 267480, Note_on_c, 0, 55, 0
3, 267480, Note_on_c, 0, 60, 62
3, 267600, Note_on_c, 0, 60, 0
3, 267600, Note_on_c, 0, 55, 65
3, 267720, Note_on_c, 0, 55, 0
3, 267720, Note_on_c, 0, 60, 62
3, 267840, Note_on_c, 0, 60, 0
3, 267840, Note_on_c, 0, 53, 69
3, 267960, Note_on_c, 0, 53, 0
3, 267960, Note_on_c, 0, 60, 65
3, 268080, Note_on_c, 0, 60, 0
3, 268080, Note_on_c, 0, 53, 69
3, 268200, Note_on_c, 0, 53, 0
3, 268200, Note_on_c, 0, 60, 65
3, 268320, Note_on_c, 0, 60, 0
3, 268320, Note_on_c, 0, 52, 69
3, 268440, Note_on_c, 0, 52, 0
3, 268440, Note_on_c, 0, 60, 65
3, 268560, Note_on_c, 0, 60, 0
3, 268560, Note_on_c, 0, 52, 69
3, 268680, Note_on_c, 0, 52, 0
3, 268680, Note_on_c, 0, 60, 64
3, 268800, Note_on_c, 0, 60, 0
3, 269040, Note_on_c, 0, 53, 60
3, 269040, Note_on_c, 0, 62, 60
3, 269160, Note_on_c, 0, 62, 0
3, 269160, Note_on_c, 0, 53, 0
3, 269280, Note_on_c, 0, 55, 60
3, 269280, Note_on_c, 0, 64, 60
3, 269520, Note_on_c, 0, 64, 0
3, 269520, Note_on_c, 0, 62, 60
3, 269760, Note_on_c, 0, 62, 0
3, 269760, Note_on_c, 0, 55, 0
3, 269760, Note_on_c, 0, 64, 60
3, 269760, Note_on_c, 0, 60, 60
3, 270240, Note_on_c, 0, 60, 0
3, 270240, Note_on_c, 0, 64, 0
3, 270960, Note_on_c, 0, 62, 48
3, 270960, Note_on_c, 0, 57, 48
3, 270960, Note_on_c, 0, 53, 48
3, 271200, Note_on_c, 0, 53, 0
3, 271200, Note_on_c, 0, 57, 0
3, 271200, Note_on_c, 0, 62, 0
3, 271200, Note_on_c, 0, 55, 48
3, 271200, Note_on_c, 0, 64, 48
3, 271440, Note_on_c, 0, 64, 0
3, 271440, Note_on_c, 0, 62, 55
3, 271680, Note_on_c, 0, 62, 0
3, 271680, Note_on_c, 0, 55, 0
3, 271680, Note_on_c, 0, 64, 60
3, 271680, Note_on_c, 0, 60, 60
3, 272160, Note_on_c, 0, 60, 0
3, 272160, Note_on_c, 0, 64, 0
3, 272880, Note_on_c, 0, 62, 48
3, 272880, Note_on_c, 0, 57, 48
3, 272880, Note_on_c, 0, 53, 48
3, 273120, Note_on_c, 0, 53, 0
3, 273120, Note_on_c, 0, 57, 0
3, 273120, Note_on_c, 0, 62, 0
3, 273120, Note_on_c, 0, 55, 48
3, 273120, Note_on_c, 0, 64, 48
3, 273360, Note_on_c, 0, 64, 0
3, 273360, Note_on_c, 0, 62, 51
3, 273600, Note_on_c, 0, 62, 0
3, 273600, Note_on_c, 0, 55, 0
3, 273600, Note_on_c, 0, 64, 47
3, 273600, Note_on_c, 0, 60, 47
3, 273720, Note_on_c, 0, 60, 0
3, 273720, Note_on_c, 0, 64, 0
3, 273840, Note_on_c, 0, 55, 47
3, 273960, Note_on_c, 0, 55, 0
3, 274080, Note_on_c, 0, 48, 47
3, 274560, Note_on_c, 0, 48, 0
3, 274560, Note_on_c, 0, 60, 46
3, 274564, Control_c, 0, 64, 127
3, 274680, Note_on_c, 0, 60, 0
3, 274680, Note_on_c, 0, 67, 38
3, 274800, Note_on_c, 0, 67, 0
3, 274800, Note_on_c, 0, 66, 42
3, 274920, Note_on_c, 0, 66, 0
3, 274920, Note_on_c, 0, 67, 38
3, 275040, Note_on_c, 0, 67, 0
3, 275040, Note_on_c, 0, 60, 46
3, 275047, Control_c, 0, 64, 0
3, 275086, Control_c, 0, 64, 127
3, 275160, Note_on_c, 0, 60, 0
3, 275160, Note_on_c, 0, 67, 38
3, 275245, Control_c, 0, 64, 0
3, 275280, Note_on_c, 0, 67, 0
3, 275280, Note_on_c, 0, 62, 42
3, 275400, Note_on_c, 0, 62, 0
3, 275400, Note_on_c, 0, 67, 38
3, 275520, Note_on_c, 0, 67, 0
3, 275520, Note_on_c, 0, 64, 46
3, 275640, Note_on_c, 0, 64, 0
3, 275640, Note_on_c, 0, 67, 38
3, 275760, Note_on_c, 0, 67, 0
3, 275760, Note_on_c, 0, 65, 42
3, 275880, Note_on_c, 0, 65, 0
3, 275880, Note_on_c, 0, 67, 38
3, 276000, Note_on_c, 0, 67, 0
3, 276000, Note_on_c, 0, 64, 46
3, 276120, Note_on_c, 0, 64, 0
3, 276120, Note_on_c, 0, 67, 38
3, 276240, Note_on_c, 0, 67, 0
3, 276240, Note_on_c, 0, 58, 42
3, 276360, Note_on_c, 0, 58, 0
3, 276360, Note_on_c, 0, 67, 39
3, 276480, Note_on_c, 0, 67, 0
3, 276480, Note_on_c, 0, 59, 48
3, 276600, Note_on_c, 0, 59, 0
3, 276600, Note_on_c, 0, 67, 39
3, 276720, Note_on_c, 0, 67, 0
3, 276720, Note_on_c, 0, 59, 44
3, 276840, Note_on_c, 0, 59, 0
3, 276840, Note_on_c, 0, 67, 40
3, 276960, Note_on_c, 0, 67, 0
3, 276960, Note_on_c, 0, 60, 52
3, 277080, Note_on_c, 0, 60, 0
3, 277080, Note_on_c, 0, 67, 42
3, 277200, Note_on_c, 0, 67, 0
3, 277200, Note_on_c, 0, 60, 46
3, 277320, Note_on_c, 0, 60, 0
3, 277320, Note_on_c, 0, 67, 42
3, 277440, Note_on_c, 0, 67, 0
3, 277440, Note_on_c, 0, 60, 50
3, 277560, Note_on_c, 0, 60, 0
3, 277560, Note_on_c, 0, 67, 38
3, 277680, Note_on_c, 0, 67, 0
3, 277680, Note_on_c, 0, 66, 42
3, 277800, Note_on_c, 0, 66, 0
3, 277800, Note_on_c, 0, 67, 38
3, 277920, Note_on_c, 0, 67, 0
3, 277920, Note_on_c, 0, 59, 46
3, 278040, Note_on_c, 0, 59, 0
3, 278040, Note_on_c, 0, 67, 39
3, 278160, Note_on_c, 0, 67, 0
3, 278160, Note_on_c, 0, 66, 42
3, 278280, Note_on_c, 0, 66, 0
3, 278280, Note_on_c, 0, 67, 40
3, 278400, Note_on_c, 0, 67, 0
3, 278400, Note_on_c, 0, 59, 46
3, 278439, Control_c, 0, 64, 127
3, 278520, Note_on_c, 0, 59, 0
3, 278520, Note_on_c, 0, 67, 39
3, 278640, Note_on_c, 0, 67, 0
3, 278640, Note_on_c, 0, 66, 42
3, 278760, Note_on_c, 0, 66, 0
3, 278760, Note_on_c, 0, 67, 39
3, 278880, Note_on_c, 0, 67, 0
3, 278880, Note_on_c, 0, 59, 46
3, 278891, Control_c, 0, 64, 0
3, 278908, Control_c, 0, 64, 127
3, 279000, Note_on_c, 0, 59, 0
3, 279000, Note_on_c, 0, 67, 39
3, 279102, Control_c, 0, 64, 0
3, 279120, Note_on_c, 0, 67, 0
3, 279120, Note_on_c, 0, 60, 42
3, 279138, Control_c, 0, 64, 127
3, 279240, Note_on_c, 0, 60, 0
3, 279240, Note_on_c, 0, 67, 39
3, 279321, Control_c, 0, 64, 0
3, 279360, Note_on_c, 0, 67, 0
3, 279360, Note_on_c, 0, 62, 46
3, 279480, Note_on_c, 0, 62, 0
3, 279480, Note_on_c, 0, 67, 39
3, 279600, Note_on_c, 0, 67, 0
3, 279600, Note_on_c, 0, 64, 42
3, 279720, Note_on_c, 0, 64, 0
3, 279720, Note_on_c, 0, 67, 39
3, 279840, Note_on_c, 0, 67, 0
3, 279840, Note_on_c, 0, 65, 46
3, 279960, Note_on_c, 0, 65, 0
3, 279960, Note_on_c, 0, 67, 40
3, 280080, Note_on_c, 0, 67, 0
3, 280080, Note_on_c, 0, 62, 43
3, 280200, Note_on_c, 0, 62, 0
3, 280200, Note_on_c, 0, 67, 39
3, 280320, Note_on_c, 0, 67, 0
3, 280320, Note_on_c, 0, 59, 51
3, 280440, Note_on_c, 0, 59, 0
3, 280440, Note_on_c, 0, 67, 39
3, 280560, Note_on_c, 0, 67, 0
3, 280560, Note_on_c, 0, 62, 43
3, 280680, Note_on_c, 0, 62, 0
3, 280680, Note_on_c, 0, 67, 39
3, 280800, Note_on_c, 0, 67, 0
3, 280800, Note_on_c, 0, 59, 57
3, 280920, Note_on_c, 0, 59, 0
3, 280920, Note_on_c, 0, 67, 44
3, 281040, Note_on_c, 0, 67, 0
3, 281040, Note_on_c, 0, 55, 46
3, 281160, Note_on_c, 0, 55, 0
3, 281160, Note_on_c, 0, 67, 44
3, 281280, Note_on_c, 0, 67, 0
3, 281280, Note_on_c, 0, 60, 55
3, 281344, Control_c, 0, 64, 127
3, 281400, Note_on_c, 0, 60, 0
3, 281400, Note_on_c, 0, 67, 46
3, 281520, Note_on_c, 0, 67, 0
3, 281520, Note_on_c, 0, 65, 50
3, 281640, Note_on_c, 0, 65, 0
3, 281640, Note_on_c, 0, 67, 46
3, 281696, Control_c, 0, 64, 0
3, 281760, Note_on_c, 0, 67, 0
3, 281760, Note_on_c, 0, 60, 55
3, 281880, Note_on_c, 0, 60, 0
3, 281880, Note_on_c, 0, 67, 46
3, 282000, Note_on_c, 0, 67, 0
3, 282000, Note_on_c, 0, 64, 50
3, 282120, Note_on_c, 0, 64, 0
3, 282120, Note_on_c, 0, 67, 46
3, 282240, Note_on_c, 0, 67, 0
3, 282240, Note_on_c, 0, 48, 59
3, 282249, Control_c, 0, 64, 127
3, 282320, Note_on_c, 0, 48, 0
3, 282320, Note_on_c, 0, 52, 54
3, 282400, Note_on_c, 0, 52, 0
3, 282400, Note_on_c, 0, 55, 52
3, 282480, Note_on_c, 0, 55, 0
3, 282480, Note_on_c, 0, 60, 57
3, 282680, Control_c, 0, 64, 0
3, 282720, Note_on_c, 0, 60, 0
3, 283200, Note_on_c, 0, 41, 59
3, 283232, Control_c, 0, 64, 127
3, 283280, Note_on_c, 0, 41, 0
3, 283280, Note_on_c, 0, 45, 54
3, 283360, Note_on_c, 0, 45, 0
3, 283360, Note_on_c, 0, 48, 52
3, 283440, Note_on_c, 0, 48, 0
3, 283440, Note_on_c, 0, 53, 59
3, 283634, Control_c, 0, 64, 0
3, 283680, Note_on_c, 0, 53, 0
3, 284160, Note_on_c, 0, 45, 59
3, 284194, Control_c, 0, 64, 127
3, 284240, Note_on_c, 0, 45, 0
3, 284240, Note_on_c, 0, 49, 54
3, 284320, Note_on_c, 0, 49, 0
3, 284320, Note_on_c, 0, 52, 51
3, 284400, Note_on_c, 0, 52, 0
3, 284400, Note_on_c, 0, 57, 59
3, 284591, Control_c, 0, 64, 0
3, 284640, Note_on_c, 0, 57, 0
3, 285120, Note_on_c, 0, 50, 59
3, 285163, Control_c, 0, 64, 127
3, 285200, Note_on_c, 0, 50, 0
3, 285200, Note_on_c, 0, 54, 54
3, 285280, Note_on_c, 0, 54, 0
3, 285280, Note_on_c, 0, 57, 51
3, 285360, Note_on_c, 0, 57, 0
3, 285360, Note_on_c, 0, 62, 59
3, 285557, Control_c, 0, 64, 0
3, 285600, Note_on_c, 0, 62, 0
3, 286080, Note_on_c, 0, 47, 59
3, 286122, Control_c, 0, 64, 127
3, 286160, Note_on_c, 0, 47, 0
3, 286160, Note_on_c, 0, 50, 54
3, 286240, Note_on_c, 0, 50, 0
3, 286240, Note_on_c, 0, 55, 51
3, 286320, Note_on_c, 0, 55, 0
3, 286320, Note_on_c, 0, 59, 59
3, 286528, Control_c, 0, 64, 0
3, 286560, Note_on_c, 0, 59, 0
3, 287040, Note_on_c, 0, 48, 59
3, 287075, Control_c, 0, 64, 127
3, 287120, Note_on_c, 0, 48, 0
3, 287120, Note_on_c, 0, 52, 54
3, 287200, Note_on_c, 0, 52, 0
3, 287200, Note_on_c, 0, 55, 51
3, 287280, Note_on_c, 0, 55, 0
3, 287280, Note_on_c, 0, 60, 59
3, 287449, Control_c, 0, 64, 0
3, 287520, Note_on_c, 0, 60, 0
3, 288000, Note_on_c, 0, 53, 62
3, 288000, Note_on_c, 0, 57, 62
3, 288032, Control_c, 0, 64, 127
3, 288240, Note_on_c, 0, 57, 0
3, 288240, Note_on_c, 0, 53, 0
3, 288480, Note_on_c, 0, 57, 64
3, 288480, Note_on_c, 0, 54, 64
3, 288484, Control_c, 0, 64, 0
3, 288512, Control_c, 0, 64, 127
3, 288720, Note_on_c, 0, 54, 0
3, 288720, Note_on_c, 0, 57, 0
3, 288904, Control_c, 0, 64, 0
3, 288960, Note_on_c, 0, 55, 69
3, 289020, Note_on_c, 0, 55, 0
3, 289080, Note_on_c, 0, 67, 51
3, 289200, Note_on_c, 0, 67, 0
3, 289200, Note_on_c, 0, 66, 55
3, 289320, Note_on_c, 0, 66, 0
3, 289320, Note_on_c, 0, 67, 51
3, 289440, Note_on_c, 0, 67, 0
3, 289440, Note_on_c, 0, 66, 55
3, 289560, Note_on_c, 0, 66, 0
3, 289560, Note_on_c, 0, 67, 52
3, 289680, Note_on_c, 0, 67, 0
3, 289680, Note_on_c, 0, 65, 55
3, 289800, Note_on_c, 0, 65, 0
3, 289800, Note_on_c, 0, 67, 51
3, 289920, Note_on_c, 0, 67, 0
3, 289920, Note_on_c, 0, 64, 60
3, 289927, Control_c, 0, 64, 127
3, 290040, Note_on_c, 0, 64, 0
3, 290040, Note_on_c, 0, 67, 51
3, 290160, Note_on_c, 0, 67, 0
3, 290160, Note_on_c, 0, 64, 44
3, 290280, Note_on_c, 0, 64, 0
3, 290280, Note_on_c, 0, 67, 38
3, 290344, Control_c, 0, 64, 0
3, 290400, Note_on_c, 0, 67, 0
3, 290400, Note_on_c, 0, 64, 46
3, 290520, Note_on_c, 0, 64, 0
3, 290520, Note_on_c, 0, 67, 39
3, 290640, Note_on_c, 0, 67, 0
3, 290640, Note_on_c, 0, 60, 44
3, 290760, Note_on_c, 0, 60, 0
3, 290760, Note_on_c, 0, 67, 39
3, 290880, Note_on_c, 0, 67, 0
3, 290880, Note_on_c, 0, 62, 46
3, 291000, Note_on_c, 0, 62, 0
3, 291000, Note_on_c, 0, 67, 43
3, 291120, Note_on_c, 0, 67, 0
3, 291120, Note_on_c, 0, 60, 46
3, 291240, Note_on_c, 0, 60, 0
3, 291240, Note_on_c, 0, 67, 43
3, 291360, Note_on_c, 0, 67, 0
3, 291360, Note_on_c, 0, 59, 46
3, 291480, Note_on_c, 0, 59, 0
3, 291480, Note_on_c, 0, 67, 43
3, 291600, Note_on_c, 0, 67, 0
3, 291600, Note_on_c, 0, 55, 46
3, 291720, Note_on_c, 0, 55, 0
3, 291720, Note_on_c, 0, 67, 43
3, 291840, Note_on_c, 0, 67, 0
3, 291840, Note_on_c, 0, 60, 48
3, 291863, Control_c, 0, 64, 127
3, 291960, Note_on_c, 0, 60, 0
3, 291960, Note_on_c, 0, 67, 39
3, 292017, Control_c, 0, 64, 0
3, 292080, Note_on_c, 0, 67, 0
3, 292080, Note_on_c, 0, 66, 43
3, 292200, Note_on_c, 0, 66, 0
3, 292200, Note_on_c, 0, 67, 39
3, 292320, Note_on_c, 0, 67, 0
3, 292320, Note_on_c, 0, 66, 49
3, 292440, Note_on_c, 0, 66, 0
3, 292440, Note_on_c, 0, 67, 52
3, 292560, Note_on_c, 0, 67, 0
3, 292560, Note_on_c, 0, 69, 55
3, 292680, Note_on_c, 0, 69, 0
3, 292680, Note_on_c, 0, 67, 52
3, 292800, Note_on_c, 0, 67, 0
3, 292800, Note_on_c, 0, 65, 60
3, 292920, Note_on_c, 0, 65, 0
3, 292920, Note_on_c, 0, 67, 58
3, 293040, Note_on_c, 0, 67, 0
3, 293040, Note_on_c, 0, 64, 60
3, 293160, Note_on_c, 0, 64, 0
3, 293160, Note_on_c, 0, 67, 56
3, 293280, Note_on_c, 0, 67, 0
3, 293280, Note_on_c, 0, 65, 60
3, 293400, Note_on_c, 0, 65, 0
3, 293400, Note_on_c, 0, 67, 57
3, 293520, Note_on_c, 0, 67, 0
3, 293520, Note_on_c, 0, 62, 60
3, 293640, Note_on_c, 0, 62, 0
3, 293640, Note_on_c, 0, 67, 57
3, 293760, Note_on_c, 0, 67, 0
3, 293760, Note_on_c, 0, 64, 60
3, 293809, Control_c, 0, 64, 127
3, 293880, Note_on_c, 0, 64, 0
3, 293880, Note_on_c, 0, 67, 52
3, 294000, Note_on_c, 0, 67, 0
3, 294000, Note_on_c, 0, 64, 44
3, 294120, Note_on_c, 0, 64, 0
3, 294120, Note_on_c, 0, 67, 39
3, 294184, Control_c, 0, 64, 0
3, 294240, Note_on_c, 0, 67, 0
3, 294240, Note_on_c, 0, 64, 46
3, 294360, Note_on_c, 0, 64, 0
3, 294360, Note_on_c, 0, 67, 39
3, 294480, Note_on_c, 0, 67, 0
3, 294480, Note_on_c, 0, 60, 44
3, 294600, Note_on_c, 0, 60, 0
3, 294600, Note_on_c, 0, 67, 39
3, 294720, Note_on_c, 0, 67, 0
3, 294720, Note_on_c, 0, 62, 46
3, 294840, Note_on_c, 0, 62, 0
3, 294840, Note_on_c, 0, 67, 43
3, 294960, Note_on_c, 0, 67, 0
3, 294960, Note_on_c, 0, 60, 46
3, 295080, Note_on_c, 0, 60, 0
3, 295080, Note_on_c, 0, 67, 43
3, 295200, Note_on_c, 0, 67, 0
3, 295200, Note_on_c, 0, 59, 46
3, 295320, Note_on_c, 0, 59, 0
3, 295320, Note_on_c, 0, 67, 43
3, 295440, Note_on_c, 0, 67, 0
3, 295440, Note_on_c, 0, 55, 46
3, 295560, Note_on_c, 0, 55, 0
3, 295560, Note_on_c, 0, 67, 43
3, 295680, Note_on_c, 0, 67, 0
3, 295680, Note_on_c, 0, 60, 43
3, 295683, Control_c, 0, 64, 127
3, 295800, Note_on_c, 0, 60, 0
3, 295800, Note_on_c, 0, 67, 40
3, 295920, Note_on_c, 0, 67, 0
3, 295920, Note_on_c, 0, 64, 40
3, 296040, Note_on_c, 0, 64, 0
3, 296040, Note_on_c, 0, 67, 40
3, 296160, Note_on_c, 0, 67, 0
3, 296160, Note_on_c, 0, 60, 46
3, 296176, Control_c, 0, 64, 0
3, 296204, Control_c, 0, 64, 127
3, 296280, Note_on_c, 0, 60, 0
3, 296280, Note_on_c, 0, 69, 36
3, 296381, Control_c, 0, 64, 0
3, 296400, Note_on_c, 0, 69, 0
3, 296400, Note_on_c, 0, 65, 41
3, 296520, Note_on_c, 0, 65, 0
3, 296520, Note_on_c, 0, 69, 36
3, 296640, Note_on_c, 0, 69, 0
3, 296640, Note_on_c, 0, 60, 41
3, 296656, Control_c, 0, 64, 127
3, 296760, Note_on_c, 0, 60, 0
3, 296760, Note_on_c, 0, 67, 37
3, 296880, Note_on_c, 0, 67, 0
3, 296880, Note_on_c, 0, 64, 41
3, 297000, Note_on_c, 0, 64, 0
3, 297000, Note_on_c, 0, 67, 39
3, 297114, Control_c, 0, 64, 0
3, 297120, Note_on_c, 0, 67, 0
3, 297120, Note_on_c, 0, 58, 41
3, 297142, Control_c, 0, 64, 127
3, 297240, Note_on_c, 0, 58, 0
3, 297240, Note_on_c, 0, 65, 37
3, 297360, Note_on_c, 0, 65, 0
3, 297360, Note_on_c, 0, 62, 41
3, 297407, Control_c, 0, 64, 0
3, 297480, Note_on_c, 0, 62, 0
3, 297480, Note_on_c, 0, 65, 37
3, 297600, Note_on_c, 0, 65, 0
3, 297600, Note_on_c, 0, 57, 41
3, 297613, Control_c, 0, 64, 127
3, 297720, Note_on_c, 0, 57, 0
3, 297720, Note_on_c, 0, 65, 37
3, 297840, Note_on_c, 0, 65, 0
3, 297840, Note_on_c, 0, 60, 41
3, 297960, Note_on_c, 0, 60, 0
3, 297960, Note_on_c, 0, 65, 37
3, 298074, Control_c, 0, 64, 0
3, 298080, Note_on_c, 0, 65, 0
3, 298080, Note_on_c, 0, 53, 50
3, 298105, Control_c, 0, 64, 127
3, 298200, Note_on_c, 0, 53, 0
3, 298200, Note_on_c, 0, 62, 43
3, 298254, Control_c, 0, 64, 0
3, 298320, Note_on_c, 0, 62, 0
3, 298320, Note_on_c, 0, 57, 50
3, 298440, Note_on_c, 0, 57, 0
3, 298440, Note_on_c, 0, 62, 42
3, 298560, Note_on_c, 0, 62, 0
3, 298560, Note_on_c, 0, 55, 49
3, 298680, Note_on_c, 0, 55, 0
3, 298680, Note_on_c, 0, 64, 43
3, 298800, Note_on_c, 0, 64, 0
3, 298800, Note_on_c, 0, 60, 49
3, 298920, Note_on_c, 0, 60, 0
3, 298920, Note_on_c, 0, 64, 43
3, 299040, Note_on_c, 0, 64, 0
3, 299040, Note_on_c, 0, 55, 49
3, 299160, Note_on_c, 0, 55, 0
3, 299160, Note_on_c, 0, 65, 43
3, 299280, Note_on_c, 0, 65, 0
3, 299280, Note_on_c, 0, 59, 48
3, 299400, Note_on_c, 0, 59, 0
3, 299400, Note_on_c, 0, 65, 42
3, 299520, Note_on_c, 0, 65, 0
3, 299520, Note_on_c, 0, 48, 50
3, 299523, Control_c, 0, 64, 127
3, 299640, Note_on_c, 0, 48, 0
3, 299640, Note_on_c, 0, 55, 44
3, 299760, Note_on_c, 0, 55, 0
3, 299760, Note_on_c, 0, 52, 50
3, 299798, Control_c, 0, 64, 0
3, 299811, Control_c, 0, 64, 127
3, 299880, Note_on_c, 0, 52, 0
3, 299880, Note_on_c, 0, 55, 43
3, 300000, Note_on_c, 0, 55, 0
3, 300000, Note_on_c, 0, 48, 41
3, 300003, Control_c, 0, 64, 0
3, 300025, Control_c, 0, 64, 127
3, 300120, Note_on_c, 0, 48, 0
3, 300120, Note_on_c, 0, 57, 37
3, 300215, Control_c, 0, 64, 0
3, 300240, Note_on_c, 0, 57, 0
3, 300240, Note_on_c, 0, 53, 41
3, 300360, Note_on_c, 0, 53, 0
3, 300360, Note_on_c, 0, 57, 37
3, 300480, Note_on_c, 0, 57, 0
3, 300480, Note_on_c, 0, 48, 41
3, 300499, Control_c, 0, 64, 127
3, 300600, Note_on_c, 0, 48, 0
3, 300600, Note_on_c, 0, 55, 37
3, 300720, Note_on_c, 0, 55, 0
3, 300720, Note_on_c, 0, 52, 41
3, 300840, Note_on_c, 0, 52, 0
3, 300840, Note_on_c, 0, 55, 37
3, 300947, Control_c, 0, 64, 0
3, 300960, Note_on_c, 0, 55, 0
3, 300960, Note_on_c, 0, 46, 41
3, 300976, Control_c, 0, 64, 127
3, 301080, Note_on_c, 0, 46, 0
3, 301080, Note_on_c, 0, 53, 36
3, 301153, Control_c, 0, 64, 0
3, 301200, Note_on_c, 0, 53, 0
3, 301200, Note_on_c, 0, 50, 41
3, 301320, Note_on_c, 0, 50, 0
3, 301320, Note_on_c, 0, 53, 36
3, 301440, Note_on_c, 0, 53, 0
3, 301440, Note_on_c, 0, 45, 43
3, 301487, Control_c, 0, 64, 127
3, 301560, Note_on_c, 0, 45, 0
3, 301560, Note_on_c, 0, 53, 37
3, 301680, Note_on_c, 0, 53, 0
3, 301680, Note_on_c, 0, 48, 42
3, 301800, Note_on_c, 0, 48, 0
3, 301800, Note_on_c, 0, 53, 36
3, 301920, Note_on_c, 0, 53, 0
3, 301920, Note_on_c, 0, 41, 52
3, 301933, Control_c, 0, 64, 0
3, 301964, Control_c, 0, 64, 127
3, 302040, Note_on_c, 0, 41, 0
3, 302040, Note_on_c, 0, 50, 47
3, 302160, Note_on_c, 0, 50, 0
3, 302160, Note_on_c, 0, 45, 50
3, 302179, Control_c, 0, 64, 0
3, 302280, Note_on_c, 0, 45, 0
3, 302280, Note_on_c, 0, 50, 46
3, 302400, Note_on_c, 0, 50, 0
3, 302400, Note_on_c, 0, 43, 50
3, 302520, Note_on_c, 0, 43, 0
3, 302520, Note_on_c, 0, 52, 46
3, 302640, Note_on_c, 0, 52, 0
3, 302640, Note_on_c, 0, 48, 49
3, 302760, Note_on_c, 0, 48, 0
3, 302760, Note_on_c, 0, 52, 41
3, 302880, Note_on_c, 0, 52, 0
3, 302880, Note_on_c, 0, 43, 48
3, 303000, Note_on_c, 0, 43, 0
3, 303000, Note_on_c, 0, 53, 42
3, 303120, Note_on_c, 0, 53, 0
3, 303120, Note_on_c, 0, 50, 48
3, 303240, Note_on_c, 0, 50, 0
3, 303240, Note_on_c, 0, 53, 41
3, 303360, Note_on_c, 0, 53, 0
3, 303551, Control_c, 0, 64, 127
3, 303600, Note_on_c, 0, 48, 48
3, 303600, Note_on_c, 0, 52, 48
3, 303829, Control_c, 0, 64, 0
3, 303840, Note_on_c, 0, 52, 0
3, 303840, Note_on_c, 0, 48, 0
3, 303840, Note_on_c, 0, 50, 55
3, 303840, Note_on_c, 0, 53, 55
3, 303851, Control_c, 0, 64, 127
3, 304080, Note_on_c, 0, 53, 0
3, 304080, Note_on_c, 0, 50, 0
3, 304080, Note_on_c, 0, 55, 60
3, 304080, Note_on_c, 0, 52, 60
3, 304087, Control_c, 0, 64, 0
3, 304101, Control_c, 0, 64, 127
3, 304249, Control_c, 0, 64, 0
3, 304320, Note_on_c, 0, 52, 0
3, 304320, Note_on_c, 0, 55, 0
3, 304551, Control_c, 0, 64, 127
3, 304560, Note_on_c, 0, 43, 46
3, 304560, Note_on_c, 0, 47, 46
3, 304800, Note_on_c, 0, 47, 0
3, 304800, Note_on_c, 0, 43, 0
3, 304800, Note_on_c, 0, 45, 50
3, 304800, Note_on_c, 0, 48, 50
3, 304811, Control_c, 0, 64, 0
3, 304834, Control_c, 0, 64, 127
3, 305031, Control_c, 0, 64, 0
3, 305040, Note_on_c, 0, 48, 0
3, 305040, Note_on_c, 0, 45, 0
3, 305040, Note_on_c, 0, 47, 55
3, 305040, Note_on_c, 0, 50, 55
3, 305054, Control_c, 0, 64, 127
3, 305203, Control_c, 0, 64, 0
3, 305280, Note_on_c, 0, 50, 0
3, 305280, Note_on_c, 0, 47, 0
3, 305520, Note_on_c, 0, 48, 48
3, 305520, Note_on_c, 0, 52, 48
3, 305524, Control_c, 0, 64, 127
3, 305760, Note_on_c, 0, 52, 0
3, 305760, Note_on_c, 0, 48, 0
3, 305760, Note_on_c, 0, 50, 55
3, 305760, Note_on_c, 0, 53, 55
3, 305771, Control_c, 0, 64, 0
3, 305802, Control_c, 0, 64, 127
3, 305975, Control_c, 0, 64, 0
3, 306000, Note_on_c, 0, 53, 0
3, 306000, Note_on_c, 0, 50, 0
3, 306000, Note_on_c, 0, 55, 60
3, 306000, Note_on_c, 0, 52, 60
3, 306011, Control_c, 0, 64, 127
3, 306191, Control_c, 0, 64, 0
3, 306240, Note_on_c, 0, 52, 0
3, 306240, Note_on_c, 0, 55, 0
3, 306480, Note_on_c, 0, 43, 46
3, 306480, Note_on_c, 0, 47, 46
3, 306486, Control_c, 0, 64, 127
3, 306720, Note_on_c, 0, 47, 0
3, 306720, Note_on_c, 0, 43, 0
3, 306720, Control_c, 0, 64, 0
3, 306720, Note_on_c, 0, 45, 50
3, 306720, Note_on_c, 0, 48, 50
3, 306746, Control_c, 0, 64, 127
3, 306940, Control_c, 0, 64, 0
3, 306960, Note_on_c, 0, 48, 0
3, 306960, Note_on_c, 0, 45, 0
3, 306960, Note_on_c, 0, 47, 55
3, 306960, Note_on_c, 0, 50, 55
3, 306977, Control_c, 0, 64, 127
3, 307200, Note_on_c, 0, 50, 0
3, 307200, Note_on_c, 0, 47, 0
3, 307200, Control_c, 0, 64, 0
3, 307200, Note_on_c, 0, 48, 55
3, 307260, Control_c, 0, 64, 127
3, 307680, Note_on_c, 0, 48, 0
3, 308160, Control_c, 0, 64, 0
3, 308160, Note_on_c, 0, 55, 55
3, 308160, Note_on_c, 0, 60, 55
3, 308160, Note_on_c, 0, 52, 55
3, 308194, Control_c, 0, 64, 127
3, 308880, Note_on_c, 0, 55, 0
3, 308880, Note_on_c, 0, 58, 55
3, 308886, Control_c, 0, 64, 0
3, 308897, Control_c, 0, 64, 127
3, 309071, Control_c, 0, 64, 0
3, 309120, Note_on_c, 0, 58, 0
3, 309120, Note_on_c, 0, 52, 0
3, 309120, Note_on_c, 0, 53, 48
3, 309600, Note_on_c, 0, 53, 0
3, 309600, Note_on_c, 0, 60, 0
3, 310320, Note_on_c, 0, 54, 46
3, 310320, Note_on_c, 0, 63, 46
3, 310334, Control_c, 0, 64, 127
3, 310560, Note_on_c, 0, 63, 0
3, 310560, Note_on_c, 0, 54, 0
3, 310560, Note_on_c, 0, 55, 50
3, 310560, Note_on_c, 0, 64, 50
3, 310564, Control_c, 0, 64, 0
3, 310585, Control_c, 0, 64, 127
3, 310772, Control_c, 0, 64, 0
3, 310800, Note_on_c, 0, 64, 0
3, 310800, Note_on_c, 0, 55, 0
3, 310800, Note_on_c, 0, 65, 55
3, 311040, Note_on_c, 0, 65, 0
3, 311040, Note_on_c, 0, 64, 55
3, 311040, Note_on_c, 0, 60, 55
3, 311079, Control_c, 0, 64, 127
3, 311520, Note_on_c, 0, 60, 0
3, 311520, Note_on_c, 0, 64, 0
3, 312000, Control_c, 0, 64, 0
3, 312000, Note_on_c, 0, 55, 55
3, 312000, Note_on_c, 0, 60, 55
3, 312000, Note_on_c, 0, 52, 55
3, 312031, Control_c, 0, 64, 127
3, 312717, Control_c, 0, 64, 0
3, 312720, Note_on_c, 0, 55, 0
3, 312720, Note_on_c, 0, 58, 55
3, 312731, Control_c, 0, 64, 127
3, 312911, Control_c, 0, 64, 0
3, 312960, Note_on_c, 0, 58, 0
3, 312960, Note_on_c, 0, 52, 0
3, 312960, Note_on_c, 0, 57, 48
3, 312960, Note_on_c, 0, 53, 48
3, 313440, Note_on_c, 0, 53, 0
3, 313440, Note_on_c, 0, 57, 0
3, 313440, Note_on_c, 0, 60, 0
3, 313920, Note_on_c, 0, 54, 52
3, 313920, Note_on_c, 0, 63, 52
3, 314400, Note_on_c, 0, 63, 0
3, 314400, Note_on_c, 0, 54, 0
3, 314880, Control_c, 0, 64, 127
3, 314880, Note_on_c, 0, 55, 59
3, 315000, Note_on_c, 0, 55, 0
3, 315000, Note_on_c, 0, 64, 49
3, 315120, Note_on_c, 0, 64, 0
3, 315120, Note_on_c, 0, 60, 52
3, 315240, Note_on_c, 0, 60, 0
3, 315240, Note_on_c, 0, 64, 49
3, 315321, Control_c, 0, 64, 0
3, 315360, Note_on_c, 0, 64, 0
3, 315360, Note_on_c, 0, 55, 59
3, 315364, Control_c, 0, 64, 127
3, 315480, Note_on_c, 0, 55, 0
3, 315480, Note_on_c, 0, 64, 48
3, 315600, Note_on_c, 0, 64, 0
3, 315600, Note_on_c, 0, 60, 52
3, 315720, Note_on_c, 0, 60, 0
3, 315720, Note_on_c, 0, 64, 49
3, 315840, Note_on_c, 0, 64, 0
3, 315840, Control_c, 0, 64, 0
3, 315840, Note_on_c, 0, 55, 54
3, 315875, Control_c, 0, 64, 127
3, 315960, Note_on_c, 0, 55, 0
3, 315960, Note_on_c, 0, 67, 45
3, 316080, Note_on_c, 0, 67, 0
3, 316080, Note_on_c, 0, 60, 48
3, 316200, Note_on_c, 0, 60, 0
3, 316200, Note_on_c, 0, 67, 44
3, 316320, Note_on_c, 0, 67, 0
3, 316320, Note_on_c, 0, 55, 49
3, 316345, Control_c, 0, 64, 0
3, 316369, Control_c, 0, 64, 127
3, 316440, Note_on_c, 0, 55, 0
3, 316440, Note_on_c, 0, 65, 37
3, 316560, Note_on_c, 0, 65, 0
3, 316560, Note_on_c, 0, 59, 41
3, 316680, Note_on_c, 0, 59, 0
3, 316680, Note_on_c, 0, 65, 37
3, 316800, Note_on_c, 0, 65, 0
3, 316800, Control_c, 0, 64, 0
3, 316800, Note_on_c, 0, 48, 44
3, 316842, Control_c, 0, 64, 127
3, 316920, Note_on_c, 0, 48, 0
3, 316920, Note_on_c, 0, 52, 38
3, 317040, Note_on_c, 0, 52, 0
3, 317040, Note_on_c, 0, 60, 40
3, 317160, Note_on_c, 0, 60, 0
3, 317160, Note_on_c, 0, 52, 37
3, 317266, Control_c, 0, 64, 0
3, 317280, Note_on_c, 0, 52, 0
3, 317280, Note_on_c, 0, 48, 44
3, 317294, Control_c, 0, 64, 127
3, 317400, Note_on_c, 0, 48, 0
3, 317400, Note_on_c, 0, 52, 38
3, 317520, Note_on_c, 0, 52, 0
3, 317520, Note_on_c, 0, 60, 40
3, 317527, Control_c, 0, 64, 0
3, 317640, Note_on_c, 0, 60, 0
3, 317640, Note_on_c, 0, 52, 38
3, 317760, Note_on_c, 0, 52, 0
3, 317760, Note_on_c, 0, 48, 44
3, 317880, Note_on_c, 0, 48, 0
3, 317880, Note_on_c, 0, 50, 38
3, 318000, Note_on_c, 0, 50, 0
3, 318000, Note_on_c, 0, 59, 40
3, 318120, Note_on_c, 0, 59, 0
3, 318120, Note_on_c, 0, 50, 38
3, 318240, Note_on_c, 0, 50, 0
3, 318240, Note_on_c, 0, 48, 44
3, 318360, Note_on_c, 0, 48, 0
3, 318360, Note_on_c, 0, 53, 38
3, 318480, Note_on_c, 0, 53, 0
3, 318480, Note_on_c, 0, 59, 41
3, 318600, Note_on_c, 0, 59, 0
3, 318600, Note_on_c, 0, 53, 37
3, 318720, Note_on_c, 0, 53, 0
3, 318720, Note_on_c, 0, 48, 44
3, 318794, Control_c, 0, 64, 127
3, 318840, Note_on_c, 0, 48, 0
3, 318840, Note_on_c, 0, 52, 38
3, 318960, Note_on_c, 0, 52, 0
3, 318960, Note_on_c, 0, 60, 40
3, 319080, Note_on_c, 0, 60, 0
3, 319080, Note_on_c, 0, 52, 38
3, 319200, Note_on_c, 0, 52, 0
3, 319200, Note_on_c, 0, 48, 44
3, 319320, Note_on_c, 0, 48, 0
3, 319320, Note_on_c, 0, 52, 38
3, 319415, Control_c, 0, 64, 0
3, 319440, Note_on_c, 0, 52, 0
3, 319440, Note_on_c, 0, 60, 40
3, 319560, Note_on_c, 0, 60, 0
3, 319560, Note_on_c, 0, 52, 38
3, 319680, Note_on_c, 0, 52, 0
3, 319680, Note_on_c, 0, 48, 44
3, 319800, Note_on_c, 0, 48, 0
3, 319800, Note_on_c, 0, 50, 38
3, 319920, Note_on_c, 0, 50, 0
3, 319920, Note_on_c, 0, 59, 40
3, 320040, Note_on_c, 0, 59, 0
3, 320040, Note_on_c, 0, 50, 38
3, 320160, Note_on_c, 0, 50, 0
3, 320160, Note_on_c, 0, 48, 44
3, 320280, Note_on_c, 0, 48, 0
3, 320280, Note_on_c, 0, 53, 38
3, 320400, Note_on_c, 0, 53, 0
3, 320400, Note_on_c, 0, 59, 41
3, 320520, Note_on_c, 0, 59, 0
3, 320520, Note_on_c, 0, 53, 38
3, 320640, Note_on_c, 0, 53, 0
3, 320640, Note_on_c, 0, 48, 44
3, 320687, Control_c, 0, 64, 127
3, 320760, Note_on_c, 0, 48, 0
3, 320760, Note_on_c, 0, 52, 38
3, 320880, Note_on_c, 0, 52, 0
3, 320880, Note_on_c, 0, 60, 41
3, 321000, Note_on_c, 0, 60, 0
3, 321000, Note_on_c, 0, 52, 38
3, 321101, Control_c, 0, 64, 0
3, 321120, Note_on_c, 0, 52, 0
3, 321120, Note_on_c, 0, 48, 44
3, 321129, Control_c, 0, 64, 127
3, 321240, Note_on_c, 0, 48, 0
3, 321240, Note_on_c, 0, 53, 38
3, 321360, Note_on_c, 0, 53, 0
3, 321360, Note_on_c, 0, 59, 41
3, 321480, Note_on_c, 0, 59, 0
3, 321480, Note_on_c, 0, 53, 38
3, 321600, Note_on_c, 0, 53, 0
3, 321600, Control_c, 0, 64, 0
3, 321600, Note_on_c, 0, 48, 44
3, 321664, Control_c, 0, 64, 127
3, 321720, Note_on_c, 0, 48, 0
3, 321720, Note_on_c, 0, 52, 38
3, 321840, Note_on_c, 0, 52, 0
3, 321840, Note_on_c, 0, 60, 41
3, 321960, Note_on_c, 0, 60, 0
3, 321960, Note_on_c, 0, 52, 38
3, 322059, Control_c, 0, 64, 0
3, 322080, Note_on_c, 0, 52, 0
3, 322080, Note_on_c, 0, 48, 44
3, 322101, Control_c, 0, 64, 127
3, 322200, Note_on_c, 0, 48, 0
3, 322200, Note_on_c, 0, 53, 37
3, 322320, Note_on_c, 0, 53, 0
3, 322320, Note_on_c, 0, 59, 41
3, 322440, Note_on_c, 0, 59, 0
3, 322440, Note_on_c, 0, 53, 38
3, 322511, Control_c, 0, 64, 0
3, 322560, Note_on_c, 0, 53, 0
3, 322560, Note_on_c, 0, 48, 44
3, 322631, Control_c, 0, 64, 127
3, 322680, Note_on_c, 0, 48, 0
3, 322680, Note_on_c, 0, 52, 38
3, 322800, Note_on_c, 0, 52, 0
3, 322800, Note_on_c, 0, 60, 40
3, 322920, Note_on_c, 0, 60, 0
3, 322920, Note_on_c, 0, 52, 39
3, 323033, Control_c, 0, 64, 0
3, 323040, Note_on_c, 0, 52, 0
3, 323040, Note_on_c, 0, 48, 52
3, 323051, Control_c, 0, 64, 127
3, 323160, Note_on_c, 0, 48, 0
3, 323160, Note_on_c, 0, 53, 44
3, 323245, Control_c, 0, 64, 0
3, 323276, Control_c, 0, 64, 127
3, 323280, Note_on_c, 0, 53, 0
3, 323280, Note_on_c, 0, 59, 44
3, 323400, Note_on_c, 0, 59, 0
3, 323400, Note_on_c, 0, 53, 40
3, 323520, Note_on_c, 0, 53, 0
3, 323520, Control_c, 0, 64, 0
3, 323520, Note_on_c, 0, 48, 44
3, 323609, Control_c, 0, 64, 127
3, 323640, Note_on_c, 0, 48, 0
3, 323640, Note_on_c, 0, 52, 38
3, 323760, Note_on_c, 0, 52, 0
3, 323760, Note_on_c, 0, 60, 40
3, 323880, Note_on_c, 0, 60, 0
3, 323880, Note_on_c, 0, 52, 38
3, 324000, Note_on_c, 0, 52, 0
3, 324000, Note_on_c, 0, 48, 52
3, 324003, Control_c, 0, 64, 0
3, 324031, Control_c, 0, 64, 127
3, 324120, Note_on_c, 0, 48, 0
3, 324120, Note_on_c, 0, 53, 44
3, 324220, Control_c, 0, 64, 0
3, 324240, Note_on_c, 0, 53, 0
3, 324240, Control_c, 0, 64, 127
3, 324240, Note_on_c, 0, 59, 40
3, 324360, Note_on_c, 0, 59, 0
3, 324360, Note_on_c, 0, 53, 38
3, 324480, Note_on_c, 0, 53, 0
3, 324480, Control_c, 0, 64, 0
3, 324480, Note_on_c, 0, 48, 44
3, 324480, Note_on_c, 0, 52, 44
3, 324551, Control_c, 0, 64, 127
3, 324653, Control_c, 0, 64, 0
3, 324960, Note_on_c, 0, 52, 0
3, 324960, Note_on_c, 0, 48, 0
3, 325200, Note_on_c, 0, 56, 42
3, 325320, Note_on_c, 0, 56, 0
3, 325440, Note_on_c, 0, 57, 42
3, 326160, Note_on_c, 0, 57, 0
3, 326400, Note_on_c, 0, 41, 73
3, 326400, Note_on_c, 0, 53, 73
3, 326444, Control_c, 0, 64, 127
3, 326520, Note_on_c, 0, 53, 0
3, 326520, Note_on_c, 0, 41, 0
3, 326564, Control_c, 0, 64, 0
3, 326880, Note_on_c, 0, 43, 73
3, 326880, Note_on_c, 0, 55, 73
3, 326937, Control_c, 0, 64, 127
3, 327000, Note_on_c, 0, 55, 0
3, 327000, Note_on_c, 0, 43, 0
3, 327069, Control_c, 0, 64, 0
3, 327360, Note_on_c, 0, 36, 69
3, 327360, Note_on_c, 0, 40, 69
3, 327360, Note_on_c, 0, 43, 69
3, 327360, Note_on_c, 0, 48, 69
3, 327402, Control_c, 0, 64, 127
3, 327480, Note_on_c, 0, 48, 0
3, 327480, Note_on_c, 0, 36, 0
3, 327480, Note_on_c, 0, 40, 0
3, 327480, Note_on_c, 0, 43, 0
3, 327593, Control_c, 0, 64, 0
3, 327593, End_track
4, 0, Start_track
4, 0, MIDI_port, 0
4, 0, Title_t, "Mozart: Klaviersonate C-Dur KV 330 3. Satz"
4, 0, End_track
5, 0, Start_track
5, 0, MIDI_port, 0
5, 0, Title_t, "Copyright © 1997 by Bernd Krüger"
5, 0, End_track
6, 0, Start_track
6, 0, MIDI_port, 0
6, 0, Title_t, "email: bernd.krueger@piano-midi.de"
6, 0, End_track
7, 0, Start_track
7, 0, MIDI_port, 0
7, 0, Title_t, "http://www.piano-midi.de"
7, 0, End_track
8, 0, Start_track
8, 0, MIDI_port, 0
8, 0, Title_t, "Editon: 4.12.2001"
8, 0, End_track
9, 0, Start_track
9, 0, MIDI_port, 0
9, 0, End_track
0, 0, End_of_file
