0, 0, Header, 1, 8, 120
1, 0, Start_track
1, 0, MIDI_port, 0
1, 0, System_exclusive, 5, 126, 127, 9, 1, 247
1, 0, MIDI_port, 0
1, 0, Time_signature, 4, 2, 24, 8
1, 0, Key_signature, 2, "major"
1, 0, Tempo, 545455
1, 480, Marker_t, "1st Mov't. ""Allegro"""
1, 14400, Tempo, 545455
1, 14409, Tempo, 550459
1, 14419, Tempo, 555556
1, 14428, Tempo, 560748
1, 14438, Tempo, 566038
1, 14447, Tempo, 571429
1, 14457, Tempo, 576923
1, 14467, Tempo, 582524
1, 14476, Tempo, 588235
1, 14486, Tempo, 594059
1, 14495, Tempo, 600000
1, 14505, Tempo, 606061
1, 14514, Tempo, 612245
1, 14524, Tempo, 618557
1, 14534, Tempo, 625000
1, 14543, Tempo, 631579
1, 14553, Tempo, 638298
1, 14562, Tempo, 645161
1, 14572, Tempo, 652174
1, 14582, Tempo, 659341
1, 14591, Tempo, 666667
1, 14601, Tempo, 674157
1, 14610, Tempo, 681818
1, 14620, Tempo, 689655
1, 14629, Tempo, 697674
1, 14639, Tempo, 705882
1, 14649, Tempo, 714286
1, 14658, Tempo, 722892
1, 14668, Tempo, 731707
1, 14677, Tempo, 740741
1, 14687, Tempo, 750000
1, 14696, Tempo, 759494
1, 14706, Tempo, 769231
1, 14716, Tempo, 779221
1, 14725, Tempo, 789474
1, 14735, Tempo, 800000
1, 14744, Tempo, 810811
1, 14754, Tempo, 821918
1, 14764, Tempo, 833333
1, 14773, Tempo, 845070
1, 14783, Tempo, 857143
1, 14792, Tempo, 869565
1, 14802, Tempo, 882353
1, 14811, Tempo, 895522
1, 14821, Tempo, 909091
1, 14831, Tempo, 923077
1, 14840, Tempo, 937500
1, 14850, Tempo, 952381
1, 14859, Tempo, 967742
1, 14869, Tempo, 983607
1, 14879, Tempo, 1000000
1, 14880, Tempo, 545455
1, 24000, Tempo, 545455
1, 24047, Tempo, 550459
1, 24095, Tempo, 555556
1, 24143, Tempo, 560748
1, 24191, Tempo, 566038
1, 24239, Tempo, 571429
1, 24287, Tempo, 576923
1, 24335, Tempo, 582524
1, 24383, Tempo, 588235
1, 24431, Tempo, 594059
1, 24479, Tempo, 600000
1, 24527, Tempo, 606061
1, 24575, Tempo, 612245
1, 24623, Tempo, 618557
1, 24671, Tempo, 625000
1, 24719, Tempo, 631579
1, 24767, Tempo, 638298
1, 24815, Tempo, 645161
1, 24863, Tempo, 652174
1, 24911, Tempo, 659341
1, 24959, Tempo, 666667
1, 24960, Tempo, 545455
1, 32640, Tempo, 545455
1, 32649, Tempo, 550459
1, 32659, Tempo, 555556
1, 32668, Tempo, 560748
1, 32678, Tempo, 566038
1, 32687, Tempo, 571429
1, 32697, Tempo, 576923
1, 32707, Tempo, 582524
1, 32716, Tempo, 588235
1, 32726, Tempo, 594059
1, 32735, Tempo, 600000
1, 32745, Tempo, 606061
1, 32754, Tempo, 612245
1, 32764, Tempo, 618557
1, 32774, Tempo, 625000
1, 32783, Tempo, 631579
1, 32793, Tempo, 638298
1, 32802, Tempo, 645161
1, 32812, Tempo, 652174
1, 32822, Tempo, 659341
1, 32831, Tempo, 666667
1, 32841, Tempo, 674157
1, 32850, Tempo, 681818
1, 32860, Tempo, 689655
1, 32869, Tempo, 697674
1, 32879, Tempo, 705882
1, 32889, Tempo, 714286
1, 32898, Tempo, 722892
1, 32908, Tempo, 731707
1, 32917, Tempo, 740741
1, 32927, Tempo, 750000
1, 32936, Tempo, 759494
1, 32946, Tempo, 769231
1, 32956, Tempo, 779221
1, 32965, Tempo, 789474
1, 32975, Tempo, 800000
1, 32984, Tempo, 810811
1, 32994, Tempo, 821918
1, 33004, Tempo, 833333
1, 33013, Tempo, 845070
1, 33023, Tempo, 857143
1, 33032, Tempo, 869565
1, 33042, Tempo, 882353
1, 33051, Tempo, 895522
1, 33061, Tempo, 909091
1, 33071, Tempo, 923077
1, 33080, Tempo, 937500
1, 33090, Tempo, 952381
1, 33099, Tempo, 967742
1, 33109, Tempo, 983607
1, 33119, Tempo, 1000000
1, 33120, Tempo, 545455
1, 45600, Tempo, 545455
1, 45609, Tempo, 550459
1, 45619, Tempo, 555556
1, 45628, Tempo, 560748
1, 45638, Tempo, 566038
1, 45647, Tempo, 571429
1, 45657, Tempo, 576923
1, 45667, Tempo, 582524
1, 45676, Tempo, 588235
1, 45686, Tempo, 594059
1, 45695, Tempo, 600000
1, 45705, Tempo, 606061
1, 45714, Tempo, 612245
1, 45724, Tempo, 618557
1, 45734, Tempo, 625000
1, 45743, Tempo, 631579
1, 45753, Tempo, 638298
1, 45762, Tempo, 645161
1, 45772, Tempo, 652174
1, 45782, Tempo, 659341
1, 45791, Tempo, 666667
1, 45801, Tempo, 674157
1, 45810, Tempo, 681818
1, 45820, Tempo, 689655
1, 45829, Tempo, 697674
1, 45839, Tempo, 705882
1, 45849, Tempo, 714286
1, 45858, Tempo, 722892
1, 45868, Tempo, 731707
1, 45877, Tempo, 740741
1, 45887, Tempo, 750000
1, 45896, Tempo, 759494
1, 45906, Tempo, 769231
1, 45916, Tempo, 779221
1, 45925, Tempo, 789474
1, 45935, Tempo, 800000
1, 45944, Tempo, 810811
1, 45954, Tempo, 821918
1, 45964, Tempo, 833333
1, 45973, Tempo, 845070
1, 45983, Tempo, 857143
1, 45992, Tempo, 869565
1, 46002, Tempo, 882353
1, 46011, Tempo, 895522
1, 46021, Tempo, 909091
1, 46031, Tempo, 923077
1, 46040, Tempo, 937500
1, 46050, Tempo, 952381
1, 46059, Tempo, 967742
1, 46069, Tempo, 983607
1, 46079, Tempo, 1000000
1, 46080, Tempo, 1000000
1, 46560, Marker_t, "2nd Mov't. ""Andante"""
1, 47040, Time_signature, 3, 2, 24, 8
1, 47040, Key_signature, 1, "major"
1, 57480, Tempo, 1000000
1, 57551, Tempo, 1016949
1, 57623, Tempo, 1034483
1, 57695, Tempo, 1052632
1, 57767, Tempo, 1071429
1, 57839, Tempo, 1090909
1, 57911, Tempo, 1111111
1, 57983, Tempo, 1132075
1, 58055, Tempo, 1153846
1, 58127, Tempo, 1176471
1, 58199, Tempo, 1200000
1, 58200, Tempo, 1000000
1, 74040, Tempo, 1000000
1, 74111, Tempo, 1016949
1, 74183, Tempo, 1034483
1, 74255, Tempo, 1052632
1, 74327, Tempo, 1071429
1, 74399, Tempo, 1090909
1, 74471, Tempo, 1111111
1, 74543, Tempo, 1132075
1, 74615, Tempo, 1153846
1, 74687, Tempo, 1176471
1, 74759, Tempo, 1200000
1, 74760, Tempo, 500000
1, 75120, Time_signature, 2, 2, 24, 8
1, 75120, Key_signature, 2, "major"
1, 75120, Marker_t, "3rd Mov't. ""Allegro molto"""
1, 91440, Tempo, 500000
1, 91447, Tempo, 504202
1, 91455, Tempo, 508475
1, 91463, Tempo, 512821
1, 91471, Tempo, 517241
1, 91479, Tempo, 521739
1, 91487, Tempo, 526316
1, 91495, Tempo, 530973
1, 91503, Tempo, 535714
1, 91511, Tempo, 540541
1, 91519, Tempo, 545455
1, 91527, Tempo, 550459
1, 91535, Tempo, 555556
1, 91543, Tempo, 560748
1, 91551, Tempo, 566038
1, 91559, Tempo, 571429
1, 91567, Tempo, 576923
1, 91575, Tempo, 582524
1, 91583, Tempo, 588235
1, 91591, Tempo, 594059
1, 91599, Tempo, 600000
1, 91607, Tempo, 606061
1, 91615, Tempo, 612245
1, 91623, Tempo, 618557
1, 91631, Tempo, 625000
1, 91639, Tempo, 631579
1, 91647, Tempo, 638298
1, 91655, Tempo, 645161
1, 91663, Tempo, 652174
1, 91671, Tempo, 659341
1, 91679, Tempo, 666667
1, 91680, Tempo, 500000
1, 98160, Tempo, 500000
1, 98167, Tempo, 504202
1, 98175, Tempo, 508475
1, 98183, Tempo, 512821
1, 98191, Tempo, 517241
1, 98199, Tempo, 521739
1, 98207, Tempo, 526316
1, 98215, Tempo, 530973
1, 98223, Tempo, 535714
1, 98231, Tempo, 540541
1, 98239, Tempo, 545455
1, 98247, Tempo, 550459
1, 98255, Tempo, 555556
1, 98263, Tempo, 560748
1, 98271, Tempo, 566038
1, 98279, Tempo, 571429
1, 98287, Tempo, 576923
1, 98295, Tempo, 582524
1, 98303, Tempo, 588235
1, 98311, Tempo, 594059
1, 98319, Tempo, 600000
1, 98327, Tempo, 606061
1, 98335, Tempo, 612245
1, 98343, Tempo, 618557
1, 98351, Tempo, 625000
1, 98359, Tempo, 631579
1, 98367, Tempo, 638298
1, 98375, Tempo, 645161
1, 98383, Tempo, 652174
1, 98391, Tempo, 659341
1, 98399, Tempo, 666667
1, 98400, Tempo, 500000
1, 114720, Tempo, 500000
1, 114731, Tempo, 504202
1, 114743, Tempo, 508475
1, 114755, Tempo, 512821
1, 114767, Tempo, 517241
1, 114779, Tempo, 521739
1, 114791, Tempo, 526316
1, 114803, Tempo, 530973
1, 114815, Tempo, 535714
1, 114827, Tempo, 540541
1, 114839, Tempo, 545455
1, 114851, Tempo, 550459
1, 114863, Tempo, 555556
1, 114875, Tempo, 560748
1, 114887, Tempo, 566038
1, 114899, Tempo, 571429
1, 114911, Tempo, 576923
1, 114923, Tempo, 582524
1, 114935, Tempo, 588235
1, 114947, Tempo, 594059
1, 114959, Tempo, 600000
1, 114971, Tempo, 606061
1, 114983, Tempo, 612245
1, 114995, Tempo, 618557
1, 115007, Tempo, 625000
1, 115019, Tempo, 631579
1, 115031, Tempo, 638298
1, 115043, Tempo, 645161
1, 115055, Tempo, 652174
1, 115067, Tempo, 659341
1, 115079, Tempo, 666667
1, 115091, Tempo, 674157
1, 115103, Tempo, 681818
1, 115115, Tempo, 689655
1, 115127, Tempo, 697674
1, 115139, Tempo, 705882
1, 115151, Tempo, 714286
1, 115163, Tempo, 722892
1, 115175, Tempo, 731707
1, 115187, Tempo, 740741
1, 115199, Tempo, 750000
1, 115200, Tempo, 500000
1, 115200, End_track
2, 0, Start_track
2, 0, MIDI_port, 0
2, 0, Title_t, "Primo"
2, 0, Program_c, 0, 0
2, 0, Control_c, 0, 10, 84
2, 0, Control_c, 0, 121, 0
2, 0, Control_c, 0, 7, 114
2, 0, Control_c, 0, 91, 75
2, 480, Note_on_c, 0, 86, 107
2, 480, Note_on_c, 0, 81, 113
2, 480, Note_on_c, 0, 78, 102
2, 480, Note_on_c, 0, 62, 113
2, 480, Note_on_c, 0, 74, 113
2, 480, Note_on_c, 0, 66, 98
2, 480, Note_on_c, 0, 69, 102
2, 492, Control_c, 0, 64, 127
2, 496, Note_on_c, 0, 69, 0
2, 498, Note_on_c, 0, 66, 0
2, 499, Note_on_c, 0, 81, 0
2, 500, Note_on_c, 0, 62, 0
2, 500, Note_on_c, 0, 86, 0
2, 505, Note_on_c, 0, 78, 0
2, 505, Note_on_c, 0, 74, 0
2, 540, Note_on_c, 0, 78, 98
2, 549, Control_c, 0, 64, 0
2, 560, Note_on_c, 0, 78, 0
2, 570, Note_on_c, 0, 79, 93
2, 593, Note_on_c, 0, 79, 0
2, 600, Note_on_c, 0, 81, 89
2, 622, Note_on_c, 0, 81, 0
2, 630, Note_on_c, 0, 79, 102
2, 652, Note_on_c, 0, 79, 0
2, 660, Note_on_c, 0, 78, 102
2, 681, Note_on_c, 0, 78, 0
2, 690, Note_on_c, 0, 76, 102
2, 711, Note_on_c, 0, 76, 0
2, 720, Note_on_c, 0, 74, 113
2, 762, Note_on_c, 0, 74, 0
2, 780, Note_on_c, 0, 66, 89
2, 810, Note_on_c, 0, 67, 98
2, 813, Note_on_c, 0, 66, 0
2, 840, Note_on_c, 0, 69, 113
2, 841, Note_on_c, 0, 67, 0
2, 866, Note_on_c, 0, 69, 0
2, 870, Note_on_c, 0, 67, 85
2, 897, Note_on_c, 0, 67, 0
2, 900, Note_on_c, 0, 66, 62
2, 930, Note_on_c, 0, 64, 85
2, 932, Note_on_c, 0, 66, 0
2, 956, Note_on_c, 0, 64, 0
2, 960, Note_on_c, 0, 74, 127
2, 960, Note_on_c, 0, 62, 102
2, 980, Note_on_c, 0, 74, 0
2, 983, Note_on_c, 0, 62, 0
2, 1020, Note_on_c, 0, 76, 107
2, 1020, Note_on_c, 0, 64, 93
2, 1037, Note_on_c, 0, 64, 0
2, 1041, Note_on_c, 0, 76, 0
2, 1080, Note_on_c, 0, 66, 93
2, 1080, Note_on_c, 0, 78, 113
2, 1098, Note_on_c, 0, 78, 0
2, 1100, Note_on_c, 0, 66, 0
2, 1140, Note_on_c, 0, 79, 113
2, 1140, Note_on_c, 0, 67, 93
2, 1158, Note_on_c, 0, 79, 0
2, 1165, Note_on_c, 0, 67, 0
2, 1200, Note_on_c, 0, 81, 107
2, 1200, Note_on_c, 0, 69, 102
2, 1219, Note_on_c, 0, 69, 0
2, 1221, Note_on_c, 0, 81, 0
2, 1260, Note_on_c, 0, 83, 107
2, 1260, Note_on_c, 0, 71, 93
2, 1279, Note_on_c, 0, 83, 0
2, 1280, Note_on_c, 0, 71, 0
2, 1320, Note_on_c, 0, 73, 93
2, 1320, Note_on_c, 0, 85, 102
2, 1339, Note_on_c, 0, 85, 0
2, 1345, Note_on_c, 0, 73, 0
2, 1380, Note_on_c, 0, 86, 113
2, 1380, Note_on_c, 0, 74, 107
2, 1393, Note_on_c, 0, 74, 0
2, 1394, Note_on_c, 0, 86, 0
2, 1440, Note_on_c, 0, 79, 93
2, 1440, Note_on_c, 0, 67, 85
2, 1472, Control_c, 0, 64, 127
2, 1494, Note_on_c, 0, 67, 0
2, 1495, Note_on_c, 0, 79, 0
2, 1500, Note_on_c, 0, 64, 80
2, 1500, Note_on_c, 0, 76, 76
2, 1522, Control_c, 0, 64, 0
2, 1542, Control_c, 0, 64, 127
2, 1560, Note_on_c, 0, 73, 72
2, 1560, Note_on_c, 0, 61, 72
2, 1561, Note_on_c, 0, 64, 0
2, 1562, Note_on_c, 0, 76, 0
2, 1569, Control_c, 0, 64, 0
2, 1590, Control_c, 0, 64, 127
2, 1615, Note_on_c, 0, 61, 0
2, 1616, Note_on_c, 0, 73, 0
2, 1620, Note_on_c, 0, 57, 89
2, 1620, Note_on_c, 0, 69, 76
2, 1621, Control_c, 0, 64, 0
2, 1639, Control_c, 0, 64, 127
2, 1672, Note_on_c, 0, 69, 0
2, 1675, Note_on_c, 0, 57, 0
2, 1680, Note_on_c, 0, 79, 93
2, 1680, Note_on_c, 0, 67, 72
2, 1681, Control_c, 0, 64, 0
2, 1707, Control_c, 0, 64, 127
2, 1732, Note_on_c, 0, 79, 0
2, 1737, Note_on_c, 0, 67, 0
2, 1740, Note_on_c, 0, 76, 85
2, 1740, Note_on_c, 0, 64, 80
2, 1743, Control_c, 0, 64, 0
2, 1770, Control_c, 0, 64, 127
2, 1795, Note_on_c, 0, 64, 0
2, 1795, Note_on_c, 0, 76, 0
2, 1800, Note_on_c, 0, 73, 76
2, 1800, Note_on_c, 0, 61, 64
2, 1813, Control_c, 0, 64, 0
2, 1856, Control_c, 0, 64, 127
2, 1859, Note_on_c, 0, 73, 0
2, 1860, Note_on_c, 0, 57, 93
2, 1860, Note_on_c, 0, 69, 89
2, 1864, Note_on_c, 0, 61, 0
2, 1874, Note_on_c, 0, 69, 0
2, 1874, Note_on_c, 0, 57, 0
2, 1920, Note_on_c, 0, 74, 113
2, 1920, Note_on_c, 0, 62, 102
2, 1921, Control_c, 0, 64, 0
2, 1935, Note_on_c, 0, 74, 0
2, 1939, Note_on_c, 0, 62, 0
2, 1980, Note_on_c, 0, 76, 113
2, 1980, Note_on_c, 0, 64, 89
2, 1997, Note_on_c, 0, 76, 0
2, 2001, Note_on_c, 0, 64, 0
2, 2040, Note_on_c, 0, 66, 93
2, 2040, Note_on_c, 0, 78, 113
2, 2057, Note_on_c, 0, 78, 0
2, 2059, Note_on_c, 0, 66, 0
2, 2100, Note_on_c, 0, 79, 113
2, 2100, Note_on_c, 0, 67, 93
2, 2117, Note_on_c, 0, 79, 0
2, 2121, Note_on_c, 0, 67, 0
2, 2160, Note_on_c, 0, 81, 107
2, 2160, Note_on_c, 0, 69, 93
2, 2180, Note_on_c, 0, 69, 0
2, 2180, Note_on_c, 0, 81, 0
2, 2220, Note_on_c, 0, 83, 107
2, 2220, Note_on_c, 0, 71, 98
2, 2238, Note_on_c, 0, 83, 0
2, 2239, Note_on_c, 0, 71, 0
2, 2280, Note_on_c, 0, 85, 102
2, 2280, Note_on_c, 0, 73, 93
2, 2301, Note_on_c, 0, 85, 0
2, 2302, Note_on_c, 0, 73, 0
2, 2340, Note_on_c, 0, 86, 107
2, 2340, Note_on_c, 0, 74, 98
2, 2354, Note_on_c, 0, 74, 0
2, 2354, Note_on_c, 0, 86, 0
2, 2400, Note_on_c, 0, 79, 89
2, 2400, Note_on_c, 0, 67, 85
2, 2436, Control_c, 0, 64, 127
2, 2454, Note_on_c, 0, 79, 0
2, 2455, Note_on_c, 0, 67, 0
2, 2460, Note_on_c, 0, 76, 80
2, 2460, Note_on_c, 0, 64, 68
2, 2471, Control_c, 0, 64, 0
2, 2496, Control_c, 0, 64, 127
2, 2520, Note_on_c, 0, 73, 76
2, 2520, Note_on_c, 0, 61, 62
2, 2521, Note_on_c, 0, 64, 0
2, 2522, Note_on_c, 0, 76, 0
2, 2528, Control_c, 0, 64, 0
2, 2552, Control_c, 0, 64, 127
2, 2578, Note_on_c, 0, 61, 0
2, 2580, Note_on_c, 0, 73, 0
2, 2580, Note_on_c, 0, 57, 76
2, 2580, Note_on_c, 0, 69, 76
2, 2585, Control_c, 0, 64, 0
2, 2605, Control_c, 0, 64, 127
2, 2610, Note_on_c, 0, 69, 0
2, 2629, Note_on_c, 0, 57, 0
2, 2640, Note_on_c, 0, 79, 93
2, 2640, Note_on_c, 0, 67, 76
2, 2643, Control_c, 0, 64, 0
2, 2665, Control_c, 0, 64, 127
2, 2692, Note_on_c, 0, 79, 0
2, 2696, Note_on_c, 0, 67, 0
2, 2699, Control_c, 0, 64, 0
2, 2700, Note_on_c, 0, 64, 76
2, 2700, Note_on_c, 0, 76, 89
2, 2724, Control_c, 0, 64, 127
2, 2760, Note_on_c, 0, 64, 0
2, 2760, Note_on_c, 0, 73, 72
2, 2760, Note_on_c, 0, 61, 76
2, 2761, Note_on_c, 0, 76, 0
2, 2773, Control_c, 0, 64, 0
2, 2795, Control_c, 0, 64, 127
2, 2819, Note_on_c, 0, 61, 0
2, 2820, Note_on_c, 0, 57, 93
2, 2820, Note_on_c, 0, 69, 80
2, 2823, Note_on_c, 0, 73, 0
2, 2838, Note_on_c, 0, 57, 0
2, 2848, Note_on_c, 0, 69, 0
2, 2880, Note_on_c, 0, 74, 113
2, 2880, Note_on_c, 0, 66, 93
2, 2882, Control_c, 0, 64, 0
2, 2921, Control_c, 0, 64, 127
2, 3055, Note_on_c, 0, 66, 0
2, 3055, Note_on_c, 0, 74, 0
2, 3060, Note_on_c, 0, 67, 98
2, 3060, Note_on_c, 0, 76, 93
2, 3061, Control_c, 0, 64, 0
2, 3083, Control_c, 0, 64, 127
2, 3090, Note_on_c, 0, 66, 76
2, 3090, Note_on_c, 0, 74, 93
2, 3091, Note_on_c, 0, 76, 0
2, 3094, Note_on_c, 0, 67, 0
2, 3113, Note_on_c, 0, 74, 0
2, 3120, Note_on_c, 0, 73, 107
2, 3120, Note_on_c, 0, 64, 107
2, 3121, Note_on_c, 0, 66, 0
2, 3121, Control_c, 0, 64, 0
2, 3136, Note_on_c, 0, 73, 0
2, 3137, Note_on_c, 0, 64, 0
2, 3180, Note_on_c, 0, 74, 113
2, 3180, Note_on_c, 0, 66, 107
2, 3198, Note_on_c, 0, 66, 0
2, 3198, Note_on_c, 0, 74, 0
2, 3240, Note_on_c, 0, 76, 107
2, 3240, Note_on_c, 0, 67, 93
2, 3258, Note_on_c, 0, 76, 0
2, 3259, Note_on_c, 0, 67, 0
2, 3300, Note_on_c, 0, 69, 98
2, 3300, Note_on_c, 0, 78, 107
2, 3315, Note_on_c, 0, 69, 0
2, 3317, Note_on_c, 0, 78, 0
2, 3360, Note_on_c, 0, 71, 113
2, 3360, Note_on_c, 0, 79, 113
2, 3385, Control_c, 0, 64, 127
2, 3420, Note_on_c, 0, 71, 0
2, 3420, Note_on_c, 0, 69, 93
2, 3420, Note_on_c, 0, 78, 93
2, 3422, Note_on_c, 0, 79, 0
2, 3432, Control_c, 0, 64, 0
2, 3477, Note_on_c, 0, 78, 0
2, 3480, Note_on_c, 0, 76, 93
2, 3480, Note_on_c, 0, 67, 102
2, 3481, Note_on_c, 0, 69, 0
2, 3492, Note_on_c, 0, 76, 0
2, 3493, Note_on_c, 0, 67, 0
2, 3540, Note_on_c, 0, 66, 76
2, 3540, Note_on_c, 0, 74, 107
2, 3556, Note_on_c, 0, 74, 0
2, 3556, Note_on_c, 0, 66, 0
2, 3600, Note_on_c, 0, 79, 119
2, 3600, Note_on_c, 0, 71, 107
2, 3627, Control_c, 0, 64, 127
2, 3660, Note_on_c, 0, 78, 93
2, 3660, Note_on_c, 0, 69, 93
2, 3665, Note_on_c, 0, 71, 0
2, 3669, Note_on_c, 0, 79, 0
2, 3670, Control_c, 0, 64, 0
2, 3718, Note_on_c, 0, 69, 0
2, 3719, Note_on_c, 0, 78, 0
2, 3720, Note_on_c, 0, 76, 102
2, 3720, Note_on_c, 0, 67, 98
2, 3733, Note_on_c, 0, 76, 0
2, 3738, Note_on_c, 0, 67, 0
2, 3780, Note_on_c, 0, 66, 80
2, 3780, Note_on_c, 0, 74, 107
2, 3796, Note_on_c, 0, 66, 0
2, 3799, Note_on_c, 0, 74, 0
2, 3840, Note_on_c, 0, 74, 113
2, 3840, Note_on_c, 0, 78, 119
2, 3892, Control_c, 0, 64, 127
2, 3939, Note_on_c, 0, 74, 0
2, 3948, Note_on_c, 0, 78, 0
2, 4020, Note_on_c, 0, 79, 107
2, 4020, Note_on_c, 0, 76, 113
2, 4031, Control_c, 0, 64, 0
2, 4034, Note_on_c, 0, 76, 0
2, 4039, Note_on_c, 0, 79, 0
2, 4050, Note_on_c, 0, 78, 80
2, 4050, Note_on_c, 0, 74, 89
2, 4064, Note_on_c, 0, 74, 0
2, 4069, Note_on_c, 0, 78, 0
2, 4080, Note_on_c, 0, 76, 107
2, 4080, Note_on_c, 0, 73, 107
2, 4094, Note_on_c, 0, 73, 0
2, 4104, Note_on_c, 0, 76, 0
2, 4140, Note_on_c, 0, 74, 113
2, 4140, Note_on_c, 0, 78, 107
2, 4154, Note_on_c, 0, 74, 0
2, 4160, Note_on_c, 0, 78, 0
2, 4200, Note_on_c, 0, 76, 113
2, 4200, Note_on_c, 0, 79, 113
2, 4212, Note_on_c, 0, 76, 0
2, 4216, Note_on_c, 0, 79, 0
2, 4260, Note_on_c, 0, 78, 98
2, 4260, Note_on_c, 0, 81, 98
2, 4273, Note_on_c, 0, 81, 0
2, 4277, Note_on_c, 0, 78, 0
2, 4320, Note_on_c, 0, 79, 119
2, 4320, Note_on_c, 0, 83, 119
2, 4347, Control_c, 0, 64, 127
2, 4374, Note_on_c, 0, 79, 0
2, 4378, Note_on_c, 0, 83, 0
2, 4380, Note_on_c, 0, 78, 89
2, 4380, Note_on_c, 0, 81, 89
2, 4398, Control_c, 0, 64, 0
2, 4400, Note_on_c, 0, 78, 0
2, 4408, Note_on_c, 0, 81, 0
2, 4440, Note_on_c, 0, 76, 102
2, 4440, Note_on_c, 0, 79, 107
2, 4453, Note_on_c, 0, 76, 0
2, 4455, Note_on_c, 0, 79, 0
2, 4500, Note_on_c, 0, 78, 107
2, 4500, Note_on_c, 0, 74, 107
2, 4513, Note_on_c, 0, 74, 0
2, 4516, Note_on_c, 0, 78, 0
2, 4560, Note_on_c, 0, 79, 119
2, 4560, Note_on_c, 0, 83, 119
2, 4578, Control_c, 0, 64, 127
2, 4614, Note_on_c, 0, 79, 0
2, 4615, Note_on_c, 0, 83, 0
2, 4620, Note_on_c, 0, 78, 80
2, 4620, Note_on_c, 0, 81, 72
2, 4635, Control_c, 0, 64, 0
2, 4641, Note_on_c, 0, 78, 0
2, 4643, Note_on_c, 0, 81, 0
2, 4680, Note_on_c, 0, 79, 102
2, 4680, Note_on_c, 0, 76, 102
2, 4696, Note_on_c, 0, 76, 0
2, 4697, Note_on_c, 0, 79, 0
2, 4740, Note_on_c, 0, 78, 93
2, 4740, Note_on_c, 0, 74, 93
2, 4752, Note_on_c, 0, 74, 0
2, 4755, Note_on_c, 0, 78, 0
2, 4800, Note_on_c, 0, 86, 119
2, 4800, Note_on_c, 0, 74, 113
2, 4828, Control_c, 0, 64, 127
2, 4854, Note_on_c, 0, 86, 0
2, 4855, Note_on_c, 0, 74, 0
2, 4890, Note_on_c, 0, 86, 113
2, 4890, Note_on_c, 0, 74, 93
2, 4904, Control_c, 0, 64, 0
2, 4905, Note_on_c, 0, 74, 0
2, 4907, Note_on_c, 0, 86, 0
2, 4920, Note_on_c, 0, 73, 107
2, 4920, Note_on_c, 0, 85, 119
2, 4947, Control_c, 0, 64, 127
2, 4979, Note_on_c, 0, 73, 0
2, 4981, Note_on_c, 0, 85, 0
2, 5010, Note_on_c, 0, 85, 107
2, 5010, Note_on_c, 0, 73, 93
2, 5028, Note_on_c, 0, 73, 0
2, 5029, Note_on_c, 0, 85, 0
2, 5034, Control_c, 0, 64, 0
2, 5040, Note_on_c, 0, 83, 113
2, 5040, Note_on_c, 0, 71, 98
2, 5067, Control_c, 0, 64, 127
2, 5091, Note_on_c, 0, 71, 0
2, 5095, Note_on_c, 0, 83, 0
2, 5130, Note_on_c, 0, 83, 107
2, 5130, Note_on_c, 0, 71, 98
2, 5144, Control_c, 0, 64, 0
2, 5145, Note_on_c, 0, 83, 0
2, 5146, Note_on_c, 0, 71, 0
2, 5160, Note_on_c, 0, 70, 98
2, 5160, Note_on_c, 0, 82, 119
2, 5180, Control_c, 0, 64, 127
2, 5215, Note_on_c, 0, 70, 0
2, 5218, Note_on_c, 0, 82, 0
2, 5250, Note_on_c, 0, 82, 113
2, 5250, Note_on_c, 0, 70, 113
2, 5266, Control_c, 0, 64, 0
2, 5268, Note_on_c, 0, 70, 0
2, 5268, Note_on_c, 0, 82, 0
2, 5280, Note_on_c, 0, 83, 113
2, 5280, Note_on_c, 0, 71, 113
2, 5304, Control_c, 0, 64, 127
2, 5335, Note_on_c, 0, 71, 0
2, 5339, Note_on_c, 0, 83, 0
2, 5370, Note_on_c, 0, 83, 107
2, 5370, Note_on_c, 0, 71, 102
2, 5388, Note_on_c, 0, 83, 0
2, 5388, Control_c, 0, 64, 0
2, 5389, Note_on_c, 0, 71, 0
2, 5400, Note_on_c, 0, 69, 107
2, 5400, Note_on_c, 0, 81, 113
2, 5421, Control_c, 0, 64, 127
2, 5460, Note_on_c, 0, 69, 0
2, 5463, Note_on_c, 0, 81, 0
2, 5490, Note_on_c, 0, 81, 102
2, 5490, Note_on_c, 0, 69, 93
2, 5507, Note_on_c, 0, 81, 0
2, 5509, Note_on_c, 0, 69, 0
2, 5510, Control_c, 0, 64, 0
2, 5520, Note_on_c, 0, 67, 102
2, 5520, Note_on_c, 0, 79, 113
2, 5544, Control_c, 0, 64, 127
2, 5576, Note_on_c, 0, 67, 0
2, 5584, Note_on_c, 0, 79, 0
2, 5610, Note_on_c, 0, 79, 98
2, 5610, Note_on_c, 0, 67, 89
2, 5625, Note_on_c, 0, 79, 0
2, 5627, Note_on_c, 0, 67, 0
2, 5634, Control_c, 0, 64, 0
2, 5640, Note_on_c, 0, 66, 113
2, 5640, Note_on_c, 0, 78, 113
2, 5667, Control_c, 0, 64, 127
2, 5703, Note_on_c, 0, 66, 0
2, 5707, Note_on_c, 0, 78, 0
2, 5730, Note_on_c, 0, 78, 113
2, 5730, Note_on_c, 0, 66, 113
2, 5747, Note_on_c, 0, 66, 0
2, 5747, Note_on_c, 0, 78, 0
2, 5756, Control_c, 0, 64, 0
2, 5760, Note_on_c, 0, 79, 113
2, 5760, Note_on_c, 0, 67, 107
2, 5788, Control_c, 0, 64, 127
2, 5812, Note_on_c, 0, 67, 0
2, 5816, Note_on_c, 0, 79, 0
2, 5850, Note_on_c, 0, 79, 98
2, 5850, Note_on_c, 0, 67, 98
2, 5867, Note_on_c, 0, 67, 0
2, 5868, Note_on_c, 0, 79, 0
2, 5868, Control_c, 0, 64, 0
2, 5880, Note_on_c, 0, 66, 113
2, 5880, Note_on_c, 0, 78, 113
2, 5900, Control_c, 0, 64, 127
2, 5937, Note_on_c, 0, 66, 0
2, 5941, Note_on_c, 0, 78, 0
2, 5970, Note_on_c, 0, 78, 107
2, 5970, Note_on_c, 0, 66, 98
2, 5986, Control_c, 0, 64, 0
2, 5987, Note_on_c, 0, 66, 0
2, 5988, Note_on_c, 0, 78, 0
2, 6000, Note_on_c, 0, 76, 113
2, 6000, Note_on_c, 0, 64, 98
2, 6021, Control_c, 0, 64, 127
2, 6049, Note_on_c, 0, 64, 0
2, 6063, Note_on_c, 0, 76, 0
2, 6090, Note_on_c, 0, 64, 93
2, 6090, Note_on_c, 0, 76, 102
2, 6105, Note_on_c, 0, 76, 0
2, 6107, Note_on_c, 0, 64, 0
2, 6107, Control_c, 0, 64, 0
2, 6120, Note_on_c, 0, 62, 107
2, 6120, Note_on_c, 0, 74, 113
2, 6136, Control_c, 0, 64, 127
2, 6150, Note_on_c, 0, 62, 0
2, 6169, Note_on_c, 0, 74, 0
2, 6210, Note_on_c, 0, 62, 76
2, 6210, Note_on_c, 0, 74, 98
2, 6226, Control_c, 0, 64, 0
2, 6228, Note_on_c, 0, 74, 0
2, 6233, Note_on_c, 0, 62, 0
2, 6240, Note_on_c, 0, 81, 107
2, 6240, Note_on_c, 0, 69, 93
2, 6256, Control_c, 0, 64, 127
2, 6267, Note_on_c, 0, 81, 0
2, 6268, Note_on_c, 0, 69, 0
2, 6345, Control_c, 0, 64, 0
2, 6360, Note_on_c, 0, 69, 102
2, 6360, Note_on_c, 0, 64, 107
2, 6360, Note_on_c, 0, 61, 113
2, 6360, Note_on_c, 0, 57, 102
2, 6377, Control_c, 0, 64, 127
2, 6405, Note_on_c, 0, 57, 0
2, 6408, Note_on_c, 0, 61, 0
2, 6409, Note_on_c, 0, 69, 0
2, 6410, Note_on_c, 0, 64, 0
2, 6465, Control_c, 0, 64, 0
2, 6480, Note_on_c, 0, 69, 107
2, 6480, Note_on_c, 0, 64, 113
2, 6480, Note_on_c, 0, 61, 102
2, 6480, Note_on_c, 0, 57, 107
2, 6494, Note_on_c, 0, 61, 0
2, 6494, Control_c, 0, 64, 127
2, 6498, Note_on_c, 0, 57, 0
2, 6502, Note_on_c, 0, 64, 0
2, 6503, Note_on_c, 0, 69, 0
2, 6620, Control_c, 0, 64, 0
2, 6720, Note_on_c, 0, 76, 76
2, 6720, Note_on_c, 0, 64, 64
2, 6754, Control_c, 0, 64, 127
2, 6887, Note_on_c, 0, 64, 0
2, 6895, Note_on_c, 0, 76, 0
2, 6896, Control_c, 0, 64, 0
2, 6900, Note_on_c, 0, 66, 64
2, 6900, Note_on_c, 0, 78, 76
2, 6916, Control_c, 0, 64, 127
2, 6930, Note_on_c, 0, 80, 64
2, 6930, Note_on_c, 0, 68, 62
2, 6934, Note_on_c, 0, 78, 0
2, 6939, Note_on_c, 0, 66, 0
2, 6950, Note_on_c, 0, 80, 0
2, 6952, Control_c, 0, 64, 0
2, 6958, Note_on_c, 0, 68, 0
2, 6960, Note_on_c, 0, 81, 93
2, 6960, Note_on_c, 0, 69, 85
2, 6976, Note_on_c, 0, 69, 0
2, 6978, Note_on_c, 0, 81, 0
2, 7020, Note_on_c, 0, 83, 89
2, 7020, Note_on_c, 0, 71, 64
2, 7034, Note_on_c, 0, 83, 0
2, 7035, Note_on_c, 0, 71, 0
2, 7080, Note_on_c, 0, 85, 76
2, 7080, Note_on_c, 0, 73, 72
2, 7091, Note_on_c, 0, 73, 0
2, 7094, Note_on_c, 0, 85, 0
2, 7140, Note_on_c, 0, 85, 85
2, 7140, Note_on_c, 0, 73, 89
2, 7149, Note_on_c, 0, 73, 0
2, 7150, Note_on_c, 0, 85, 0
2, 7200, Note_on_c, 0, 85, 102
2, 7200, Note_on_c, 0, 73, 98
2, 7215, Control_c, 0, 64, 127
2, 7257, Note_on_c, 0, 85, 0
2, 7260, Note_on_c, 0, 73, 0
2, 7260, Note_on_c, 0, 86, 89
2, 7260, Note_on_c, 0, 74, 72
2, 7265, Control_c, 0, 64, 0
2, 7316, Note_on_c, 0, 74, 0
2, 7320, Note_on_c, 0, 71, 76
2, 7320, Note_on_c, 0, 83, 93
2, 7323, Note_on_c, 0, 86, 0
2, 7331, Note_on_c, 0, 83, 0
2, 7333, Note_on_c, 0, 71, 0
2, 7440, Note_on_c, 0, 73, 89
2, 7440, Note_on_c, 0, 85, 98
2, 7459, Control_c, 0, 64, 127
2, 7500, Note_on_c, 0, 86, 93
2, 7500, Note_on_c, 0, 74, 72
2, 7502, Note_on_c, 0, 85, 0
2, 7504, Note_on_c, 0, 73, 0
2, 7519, Control_c, 0, 64, 0
2, 7557, Note_on_c, 0, 74, 0
2, 7560, Note_on_c, 0, 71, 76
2, 7560, Note_on_c, 0, 83, 89
2, 7562, Note_on_c, 0, 86, 0
2, 7572, Note_on_c, 0, 83, 0
2, 7576, Note_on_c, 0, 71, 0
2, 7680, Note_on_c, 0, 76, 89
2, 7680, Note_on_c, 0, 64, 89
2, 7713, Control_c, 0, 64, 127
2, 7855, Note_on_c, 0, 64, 0
2, 7860, Note_on_c, 0, 66, 72
2, 7860, Note_on_c, 0, 78, 72
2, 7863, Note_on_c, 0, 76, 0
2, 7885, Control_c, 0, 64, 0
2, 7890, Note_on_c, 0, 68, 64
2, 7890, Note_on_c, 0, 80, 72
2, 7894, Note_on_c, 0, 78, 0
2, 7896, Note_on_c, 0, 66, 0
2, 7913, Note_on_c, 0, 80, 0
2, 7917, Note_on_c, 0, 68, 0
2, 7920, Note_on_c, 0, 69, 80
2, 7920, Note_on_c, 0, 81, 93
2, 7938, Note_on_c, 0, 81, 0
2, 7940, Note_on_c, 0, 69, 0
2, 7980, Note_on_c, 0, 83, 89
2, 7980, Note_on_c, 0, 71, 89
2, 7992, Note_on_c, 0, 83, 0
2, 7993, Note_on_c, 0, 71, 0
2, 8040, Note_on_c, 0, 85, 102
2, 8040, Note_on_c, 0, 73, 93
2, 8052, Note_on_c, 0, 73, 0
2, 8053, Note_on_c, 0, 85, 0
2, 8100, Note_on_c, 0, 85, 107
2, 8100, Note_on_c, 0, 73, 107
2, 8111, Note_on_c, 0, 73, 0
2, 8111, Note_on_c, 0, 85, 0
2, 8160, Note_on_c, 0, 85, 113
2, 8160, Note_on_c, 0, 73, 113
2, 8175, Control_c, 0, 64, 127
2, 8214, Control_c, 0, 64, 0
2, 8220, Note_on_c, 0, 86, 85
2, 8220, Note_on_c, 0, 74, 68
2, 8221, Note_on_c, 0, 73, 0
2, 8221, Note_on_c, 0, 85, 0
2, 8276, Note_on_c, 0, 74, 0
2, 8279, Note_on_c, 0, 86, 0
2, 8280, Note_on_c, 0, 83, 93
2, 8280, Note_on_c, 0, 71, 76
2, 8290, Note_on_c, 0, 83, 0
2, 8292, Note_on_c, 0, 71, 0
2, 8340, Note_on_c, 0, 83, 98
2, 8340, Note_on_c, 0, 71, 93
2, 8352, Note_on_c, 0, 71, 0
2, 8352, Note_on_c, 0, 83, 0
2, 8400, Note_on_c, 0, 85, 107
2, 8400, Note_on_c, 0, 73, 93
2, 8420, Control_c, 0, 64, 127
2, 8453, Note_on_c, 0, 85, 0
2, 8455, Control_c, 0, 64, 0
2, 8459, Note_on_c, 0, 73, 0
2, 8460, Note_on_c, 0, 86, 89
2, 8460, Note_on_c, 0, 74, 76
2, 8486, Note_on_c, 0, 86, 0
2, 8495, Note_on_c, 0, 74, 0
2, 8520, Note_on_c, 0, 83, 93
2, 8520, Note_on_c, 0, 71, 76
2, 8534, Note_on_c, 0, 71, 0
2, 8536, Note_on_c, 0, 83, 0
2, 8580, Note_on_c, 0, 71, 72
2, 8580, Note_on_c, 0, 83, 80
2, 8591, Note_on_c, 0, 83, 0
2, 8591, Note_on_c, 0, 71, 0
2, 8640, Note_on_c, 0, 61, 89
2, 8640, Note_on_c, 0, 76, 102
2, 8640, Note_on_c, 0, 88, 98
2, 8664, Control_c, 0, 64, 127
2, 8665, Note_on_c, 0, 61, 0
2, 8670, Note_on_c, 0, 69, 64
2, 8691, Note_on_c, 0, 88, 0
2, 8695, Note_on_c, 0, 69, 0
2, 8696, Note_on_c, 0, 76, 0
2, 8700, Note_on_c, 0, 64, 76
2, 8726, Note_on_c, 0, 64, 0
2, 8730, Note_on_c, 0, 69, 80
2, 8748, Note_on_c, 0, 69, 0
2, 8752, Control_c, 0, 64, 0
2, 8760, Note_on_c, 0, 73, 107
2, 8760, Note_on_c, 0, 85, 107
2, 8760, Note_on_c, 0, 61, 80
2, 8774, Control_c, 0, 64, 127
2, 8784, Note_on_c, 0, 73, 0
2, 8787, Note_on_c, 0, 61, 0
2, 8790, Note_on_c, 0, 69, 60
2, 8794, Note_on_c, 0, 85, 0
2, 8812, Note_on_c, 0, 69, 0
2, 8820, Note_on_c, 0, 64, 89
2, 8840, Note_on_c, 0, 64, 0
2, 8850, Note_on_c, 0, 69, 80
2, 8868, Note_on_c, 0, 69, 0
2, 8871, Control_c, 0, 64, 0
2, 8880, Note_on_c, 0, 76, 107
2, 8880, Note_on_c, 0, 88, 107
2, 8880, Note_on_c, 0, 61, 89
2, 8897, Control_c, 0, 64, 127
2, 8902, Note_on_c, 0, 61, 0
2, 8909, Note_on_c, 0, 88, 0
2, 8910, Note_on_c, 0, 76, 0
2, 8910, Note_on_c, 0, 69, 80
2, 8935, Note_on_c, 0, 69, 0
2, 8940, Note_on_c, 0, 64, 76
2, 8963, Note_on_c, 0, 64, 0
2, 8970, Note_on_c, 0, 69, 76
2, 8993, Note_on_c, 0, 69, 0
2, 9000, Note_on_c, 0, 61, 93
2, 9000, Control_c, 0, 64, 0
2, 9000, Note_on_c, 0, 73, 119
2, 9000, Note_on_c, 0, 85, 107
2, 9022, Control_c, 0, 64, 127
2, 9027, Note_on_c, 0, 61, 0
2, 9030, Note_on_c, 0, 69, 72
2, 9043, Note_on_c, 0, 73, 0
2, 9045, Note_on_c, 0, 85, 0
2, 9055, Note_on_c, 0, 69, 0
2, 9060, Note_on_c, 0, 64, 76
2, 9089, Note_on_c, 0, 64, 0
2, 9090, Note_on_c, 0, 69, 76
2, 9106, Note_on_c, 0, 69, 0
2, 9116, Control_c, 0, 64, 0
2, 9120, Note_on_c, 0, 62, 93
2, 9120, Note_on_c, 0, 83, 98
2, 9120, Note_on_c, 0, 71, 113
2, 9144, Note_on_c, 0, 71, 0
2, 9144, Control_c, 0, 64, 127
2, 9150, Note_on_c, 0, 69, 50
2, 9153, Note_on_c, 0, 83, 0
2, 9155, Note_on_c, 0, 62, 0
2, 9173, Note_on_c, 0, 69, 0
2, 9180, Note_on_c, 0, 66, 62
2, 9207, Note_on_c, 0, 66, 0
2, 9210, Note_on_c, 0, 69, 72
2, 9231, Control_c, 0, 64, 0
2, 9232, Note_on_c, 0, 69, 0
2, 9240, Note_on_c, 0, 62, 98
2, 9240, Note_on_c, 0, 86, 113
2, 9240, Note_on_c, 0, 74, 113
2, 9256, Control_c, 0, 64, 127
2, 9266, Note_on_c, 0, 86, 0
2, 9267, Note_on_c, 0, 74, 0
2, 9270, Note_on_c, 0, 69, 64
2, 9272, Note_on_c, 0, 62, 0
2, 9293, Note_on_c, 0, 69, 0
2, 9300, Note_on_c, 0, 66, 68
2, 9326, Note_on_c, 0, 66, 0
2, 9330, Note_on_c, 0, 69, 76
2, 9349, Note_on_c, 0, 69, 0
2, 9354, Control_c, 0, 64, 0
2, 9360, Note_on_c, 0, 83, 98
2, 9360, Note_on_c, 0, 62, 98
2, 9360, Note_on_c, 0, 71, 113
2, 9378, Control_c, 0, 64, 127
2, 9382, Note_on_c, 0, 71, 0
2, 9390, Note_on_c, 0, 83, 0
2, 9390, Note_on_c, 0, 69, 76
2, 9392, Note_on_c, 0, 62, 0
2, 9416, Note_on_c, 0, 69, 0
2, 9420, Note_on_c, 0, 66, 72
2, 9447, Note_on_c, 0, 66, 0
2, 9450, Note_on_c, 0, 69, 72
2, 9473, Note_on_c, 0, 69, 0
2, 9480, Control_c, 0, 64, 0
2, 9480, Note_on_c, 0, 62, 93
2, 9480, Note_on_c, 0, 86, 102
2, 9480, Note_on_c, 0, 74, 113
2, 9503, Control_c, 0, 64, 127
2, 9510, Note_on_c, 0, 69, 76
2, 9518, Note_on_c, 0, 74, 0
2, 9522, Note_on_c, 0, 86, 0
2, 9523, Note_on_c, 0, 62, 0
2, 9535, Note_on_c, 0, 69, 0
2, 9540, Note_on_c, 0, 66, 59
2, 9570, Note_on_c, 0, 69, 89
2, 9571, Note_on_c, 0, 66, 0
2, 9589, Note_on_c, 0, 69, 0
2, 9600, Note_on_c, 0, 63, 42
2, 9600, Note_on_c, 0, 64, 80
2, 9600, Note_on_c, 0, 85, 107
2, 9606, Control_c, 0, 64, 0
2, 9607, Note_on_c, 0, 63, 0
2, 9614, Note_on_c, 0, 85, 0
2, 9615, Note_on_c, 0, 83, 107
2, 9629, Note_on_c, 0, 83, 0
2, 9630, Note_on_c, 0, 73, 89
2, 9630, Note_on_c, 0, 81, 93
2, 9640, Control_c, 0, 64, 127
2, 9641, Note_on_c, 0, 64, 0
2, 9656, Note_on_c, 0, 73, 0
2, 9660, Note_on_c, 0, 69, 89
2, 9685, Note_on_c, 0, 69, 0
2, 9690, Note_on_c, 0, 73, 76
2, 9707, Control_c, 0, 64, 0
2, 9708, Note_on_c, 0, 73, 0
2, 9719, Note_on_c, 0, 81, 0
2, 9720, Note_on_c, 0, 64, 89
2, 9720, Note_on_c, 0, 85, 102
2, 9730, Control_c, 0, 64, 127
2, 9734, Note_on_c, 0, 85, 0
2, 9735, Note_on_c, 0, 83, 93
2, 9749, Note_on_c, 0, 83, 0
2, 9750, Note_on_c, 0, 73, 89
2, 9750, Note_on_c, 0, 81, 93
2, 9758, Note_on_c, 0, 64, 0
2, 9775, Note_on_c, 0, 73, 0
2, 9780, Note_on_c, 0, 69, 85
2, 9808, Note_on_c, 0, 69, 0
2, 9810, Note_on_c, 0, 73, 72
2, 9831, Note_on_c, 0, 73, 0
2, 9838, Control_c, 0, 64, 0
2, 9839, Note_on_c, 0, 81, 0
2, 9840, Note_on_c, 0, 64, 89
2, 9840, Note_on_c, 0, 85, 93
2, 9854, Note_on_c, 0, 85, 0
2, 9855, Note_on_c, 0, 83, 93
2, 9866, Control_c, 0, 64, 127
2, 9869, Note_on_c, 0, 83, 0
2, 9870, Note_on_c, 0, 71, 80
2, 9870, Note_on_c, 0, 85, 98
2, 9874, Note_on_c, 0, 64, 0
2, 9884, Note_on_c, 0, 85, 0
2, 9885, Note_on_c, 0, 83, 93
2, 9895, Note_on_c, 0, 71, 0
2, 9899, Note_on_c, 0, 83, 0
2, 9900, Note_on_c, 0, 68, 64
2, 9900, Note_on_c, 0, 85, 102
2, 9914, Note_on_c, 0, 85, 0
2, 9915, Note_on_c, 0, 83, 89
2, 9928, Note_on_c, 0, 68, 0
2, 9929, Note_on_c, 0, 83, 0
2, 9930, Note_on_c, 0, 71, 76
2, 9930, Note_on_c, 0, 85, 93
2, 9944, Note_on_c, 0, 85, 0
2, 9945, Note_on_c, 0, 83, 89
2, 9954, Note_on_c, 0, 71, 0
2, 9957, Control_c, 0, 64, 0
2, 9959, Note_on_c, 0, 83, 0
2, 9960, Note_on_c, 0, 64, 93
2, 9960, Note_on_c, 0, 85, 93
2, 9974, Note_on_c, 0, 85, 0
2, 9975, Note_on_c, 0, 83, 89
2, 9979, Control_c, 0, 64, 127
2, 9989, Note_on_c, 0, 83, 0
2, 9990, Note_on_c, 0, 71, 76
2, 9990, Note_on_c, 0, 85, 98
2, 9994, Note_on_c, 0, 64, 0
2, 10004, Note_on_c, 0, 85, 0
2, 10005, Note_on_c, 0, 83, 89
2, 10019, Note_on_c, 0, 83, 0
2, 10020, Note_on_c, 0, 81, 93
2, 10020, Note_on_c, 0, 68, 76
2, 10022, Note_on_c, 0, 71, 0
2, 10049, Note_on_c, 0, 68, 0
2, 10049, Note_on_c, 0, 81, 0
2, 10050, Note_on_c, 0, 83, 89
2, 10050, Note_on_c, 0, 69, 76
2, 10064, Note_on_c, 0, 83, 0
2, 10066, Note_on_c, 0, 69, 0
2, 10075, Control_c, 0, 64, 0
2, 10080, Note_on_c, 0, 81, 113
2, 10080, Note_on_c, 0, 69, 113
2, 10101, Control_c, 0, 64, 127
2, 10128, Note_on_c, 0, 69, 0
2, 10132, Note_on_c, 0, 81, 0
2, 10150, Control_c, 0, 64, 0
2, 10200, Note_on_c, 0, 67, 102
2, 10200, Note_on_c, 0, 79, 119
2, 10209, Control_c, 0, 64, 127
2, 10319, Note_on_c, 0, 79, 0
2, 10320, Note_on_c, 0, 67, 0
2, 10320, Note_on_c, 0, 66, 93
2, 10320, Note_on_c, 0, 78, 113
2, 10324, Control_c, 0, 64, 0
2, 10351, Control_c, 0, 64, 127
2, 10439, Note_on_c, 0, 78, 0
2, 10440, Note_on_c, 0, 77, 107
2, 10440, Note_on_c, 0, 65, 98
2, 10442, Note_on_c, 0, 66, 0
2, 10445, Control_c, 0, 64, 0
2, 10472, Control_c, 0, 64, 127
2, 10550, Note_on_c, 0, 65, 0
2, 10554, Control_c, 0, 64, 0
2, 10555, Note_on_c, 0, 77, 0
2, 10560, Note_on_c, 0, 78, 102
2, 10560, Note_on_c, 0, 66, 98
2, 10578, Control_c, 0, 64, 127
2, 10584, Note_on_c, 0, 66, 0
2, 10585, Note_on_c, 0, 78, 0
2, 10678, Control_c, 0, 64, 0
2, 10680, Note_on_c, 0, 70, 113
2, 10680, Note_on_c, 0, 58, 89
2, 10703, Control_c, 0, 64, 127
2, 10779, Note_on_c, 0, 58, 0
2, 10787, Note_on_c, 0, 70, 0
2, 10795, Control_c, 0, 64, 0
2, 10800, Note_on_c, 0, 59, 93
2, 10800, Note_on_c, 0, 71, 107
2, 10820, Control_c, 0, 64, 127
2, 10854, Note_on_c, 0, 71, 0
2, 10857, Note_on_c, 0, 59, 0
2, 10912, Control_c, 0, 64, 0
2, 10920, Note_on_c, 0, 77, 107
2, 10920, Note_on_c, 0, 65, 102
2, 10932, Control_c, 0, 64, 127
2, 10954, Note_on_c, 0, 65, 0
2, 10961, Note_on_c, 0, 77, 0
2, 11037, Control_c, 0, 64, 0
2, 11040, Note_on_c, 0, 78, 119
2, 11040, Note_on_c, 0, 66, 93
2, 11061, Control_c, 0, 64, 127
2, 11109, Note_on_c, 0, 66, 0
2, 11143, Note_on_c, 0, 78, 0
2, 11156, Control_c, 0, 64, 0
2, 11160, Note_on_c, 0, 82, 119
2, 11160, Note_on_c, 0, 70, 98
2, 11179, Control_c, 0, 64, 127
2, 11209, Note_on_c, 0, 70, 0
2, 11220, Note_on_c, 0, 82, 0
2, 11276, Control_c, 0, 64, 0
2, 11280, Note_on_c, 0, 83, 113
2, 11280, Note_on_c, 0, 71, 93
2, 11299, Control_c, 0, 64, 127
2, 11317, Note_on_c, 0, 83, 0
2, 11321, Note_on_c, 0, 71, 0
2, 11389, Control_c, 0, 64, 0
2, 11400, Note_on_c, 0, 85, 107
2, 11400, Note_on_c, 0, 73, 102
2, 11409, Control_c, 0, 64, 127
2, 11417, Note_on_c, 0, 73, 0
2, 11424, Note_on_c, 0, 85, 0
2, 11505, Control_c, 0, 64, 0
2, 11520, Note_on_c, 0, 78, 93
2, 11520, Note_on_c, 0, 86, 102
2, 11529, Control_c, 0, 64, 127
2, 11534, Note_on_c, 0, 86, 0
2, 11534, Note_on_c, 0, 78, 0
2, 11535, Note_on_c, 0, 76, 93
2, 11535, Note_on_c, 0, 85, 85
2, 11549, Note_on_c, 0, 85, 0
2, 11549, Note_on_c, 0, 76, 0
2, 11550, Note_on_c, 0, 74, 80
2, 11550, Note_on_c, 0, 83, 93
2, 11557, Control_c, 0, 64, 0
2, 11586, Control_c, 0, 64, 127
2, 11619, Control_c, 0, 64, 0
2, 11639, Note_on_c, 0, 83, 0
2, 11639, Note_on_c, 0, 74, 0
2, 11640, Note_on_c, 0, 78, 85
2, 11640, Note_on_c, 0, 86, 98
2, 11647, Control_c, 0, 64, 127
2, 11654, Note_on_c, 0, 86, 0
2, 11654, Note_on_c, 0, 78, 0
2, 11655, Note_on_c, 0, 85, 76
2, 11655, Note_on_c, 0, 76, 93
2, 11658, Control_c, 0, 64, 0
2, 11669, Note_on_c, 0, 76, 0
2, 11669, Note_on_c, 0, 85, 0
2, 11670, Note_on_c, 0, 74, 89
2, 11670, Note_on_c, 0, 83, 93
2, 11691, Control_c, 0, 64, 127
2, 11735, Control_c, 0, 64, 0
2, 11759, Note_on_c, 0, 83, 0
2, 11759, Note_on_c, 0, 74, 0
2, 11760, Note_on_c, 0, 78, 72
2, 11760, Note_on_c, 0, 86, 93
2, 11765, Control_c, 0, 64, 127
2, 11769, Control_c, 0, 64, 0
2, 11774, Note_on_c, 0, 86, 0
2, 11774, Note_on_c, 0, 78, 0
2, 11775, Note_on_c, 0, 76, 89
2, 11775, Note_on_c, 0, 85, 85
2, 11789, Note_on_c, 0, 85, 0
2, 11789, Note_on_c, 0, 76, 0
2, 11790, Note_on_c, 0, 74, 89
2, 11790, Note_on_c, 0, 83, 89
2, 11879, Note_on_c, 0, 83, 0
2, 11879, Note_on_c, 0, 74, 0
2, 11880, Note_on_c, 0, 86, 98
2, 11880, Note_on_c, 0, 78, 76
2, 11894, Note_on_c, 0, 78, 0
2, 11894, Note_on_c, 0, 86, 0
2, 11895, Note_on_c, 0, 85, 89
2, 11895, Note_on_c, 0, 76, 89
2, 11909, Note_on_c, 0, 76, 0
2, 11909, Note_on_c, 0, 85, 0
2, 11910, Control_c, 0, 64, 127
2, 11910, Note_on_c, 0, 74, 76
2, 11910, Note_on_c, 0, 83, 93
2, 11992, Control_c, 0, 64, 0
2, 11999, Note_on_c, 0, 83, 0
2, 11999, Note_on_c, 0, 74, 0
2, 12000, Note_on_c, 0, 81, 102
2, 12000, Note_on_c, 0, 73, 93
2, 12016, Note_on_c, 0, 73, 0
2, 12016, Note_on_c, 0, 81, 0
2, 12019, Control_c, 0, 64, 127
2, 12030, Note_on_c, 0, 69, 98
2, 12052, Control_c, 0, 64, 0
2, 12053, Note_on_c, 0, 69, 0
2, 12060, Note_on_c, 0, 71, 98
2, 12083, Control_c, 0, 64, 127
2, 12086, Note_on_c, 0, 71, 0
2, 12090, Note_on_c, 0, 73, 93
2, 12106, Note_on_c, 0, 73, 0
2, 12120, Note_on_c, 0, 74, 113
2, 12122, Control_c, 0, 64, 0
2, 12140, Note_on_c, 0, 74, 0
2, 12150, Note_on_c, 0, 76, 107
2, 12154, Control_c, 0, 64, 127
2, 12169, Note_on_c, 0, 76, 0
2, 12177, Control_c, 0, 64, 0
2, 12180, Note_on_c, 0, 78, 98
2, 12196, Control_c, 0, 64, 127
2, 12200, Note_on_c, 0, 78, 0
2, 12210, Note_on_c, 0, 80, 89
2, 12227, Note_on_c, 0, 80, 0
2, 12240, Note_on_c, 0, 81, 100
2, 12245, Control_c, 0, 64, 0
2, 12255, Note_on_c, 0, 81, 0
2, 12270, Note_on_c, 0, 83, 93
2, 12288, Note_on_c, 0, 83, 0
2, 12291, Control_c, 0, 64, 127
2, 12300, Note_on_c, 0, 85, 98
2, 12317, Note_on_c, 0, 85, 0
2, 12330, Note_on_c, 0, 86, 102
2, 12348, Note_on_c, 0, 86, 0
2, 12360, Note_on_c, 0, 88, 107
2, 12363, Control_c, 0, 64, 0
2, 12377, Note_on_c, 0, 88, 0
2, 12390, Note_on_c, 0, 85, 107
2, 12396, Control_c, 0, 64, 127
2, 12406, Note_on_c, 0, 85, 0
2, 12420, Note_on_c, 0, 83, 107
2, 12438, Note_on_c, 0, 83, 0
2, 12450, Note_on_c, 0, 81, 107
2, 12468, Note_on_c, 0, 81, 0
2, 12477, Control_c, 0, 64, 0
2, 12480, Note_on_c, 0, 85, 80
2, 12480, Note_on_c, 0, 69, 68
2, 12494, Note_on_c, 0, 69, 0
2, 12494, Note_on_c, 0, 85, 0
2, 12495, Note_on_c, 0, 83, 89
2, 12495, Note_on_c, 0, 68, 76
2, 12509, Note_on_c, 0, 68, 0
2, 12509, Note_on_c, 0, 83, 0
2, 12510, Note_on_c, 0, 85, 80
2, 12510, Note_on_c, 0, 69, 76
2, 12524, Note_on_c, 0, 69, 0
2, 12524, Note_on_c, 0, 85, 0
2, 12525, Note_on_c, 0, 83, 93
2, 12525, Note_on_c, 0, 68, 89
2, 12539, Note_on_c, 0, 68, 0
2, 12539, Note_on_c, 0, 83, 0
2, 12540, Note_on_c, 0, 85, 93
2, 12540, Note_on_c, 0, 69, 76
2, 12554, Note_on_c, 0, 69, 0
2, 12554, Note_on_c, 0, 85, 0
2, 12555, Note_on_c, 0, 83, 85
2, 12555, Note_on_c, 0, 68, 72
2, 12569, Note_on_c, 0, 68, 0
2, 12569, Note_on_c, 0, 83, 0
2, 12570, Note_on_c, 0, 85, 89
2, 12570, Note_on_c, 0, 69, 76
2, 12584, Note_on_c, 0, 69, 0
2, 12584, Note_on_c, 0, 85, 0
2, 12585, Note_on_c, 0, 83, 80
2, 12585, Note_on_c, 0, 68, 89
2, 12599, Note_on_c, 0, 68, 0
2, 12599, Note_on_c, 0, 83, 0
2, 12600, Note_on_c, 0, 85, 80
2, 12600, Note_on_c, 0, 69, 89
2, 12614, Note_on_c, 0, 69, 0
2, 12614, Note_on_c, 0, 85, 0
2, 12615, Note_on_c, 0, 83, 68
2, 12615, Note_on_c, 0, 68, 85
2, 12629, Note_on_c, 0, 68, 0
2, 12629, Note_on_c, 0, 83, 0
2, 12630, Note_on_c, 0, 85, 62
2, 12630, Note_on_c, 0, 69, 72
2, 12644, Note_on_c, 0, 69, 0
2, 12644, Note_on_c, 0, 85, 0
2, 12645, Note_on_c, 0, 83, 80
2, 12645, Note_on_c, 0, 68, 76
2, 12659, Note_on_c, 0, 68, 0
2, 12659, Note_on_c, 0, 83, 0
2, 12660, Note_on_c, 0, 85, 89
2, 12660, Note_on_c, 0, 69, 62
2, 12674, Note_on_c, 0, 69, 0
2, 12674, Note_on_c, 0, 85, 0
2, 12675, Note_on_c, 0, 83, 80
2, 12675, Note_on_c, 0, 68, 72
2, 12689, Note_on_c, 0, 68, 0
2, 12689, Note_on_c, 0, 83, 0
2, 12690, Note_on_c, 0, 85, 85
2, 12690, Note_on_c, 0, 69, 72
2, 12704, Note_on_c, 0, 69, 0
2, 12704, Note_on_c, 0, 85, 0
2, 12705, Note_on_c, 0, 83, 93
2, 12705, Note_on_c, 0, 68, 76
2, 12719, Note_on_c, 0, 68, 0
2, 12719, Note_on_c, 0, 83, 0
2, 12720, Note_on_c, 0, 85, 98
2, 12720, Note_on_c, 0, 69, 80
2, 12734, Note_on_c, 0, 69, 0
2, 12734, Note_on_c, 0, 85, 0
2, 12735, Note_on_c, 0, 83, 68
2, 12735, Note_on_c, 0, 68, 76
2, 12749, Note_on_c, 0, 68, 0
2, 12749, Note_on_c, 0, 83, 0
2, 12750, Note_on_c, 0, 85, 76
2, 12750, Note_on_c, 0, 69, 80
2, 12764, Note_on_c, 0, 69, 0
2, 12764, Note_on_c, 0, 85, 0
2, 12765, Note_on_c, 0, 83, 76
2, 12765, Note_on_c, 0, 68, 85
2, 12779, Note_on_c, 0, 68, 0
2, 12779, Note_on_c, 0, 83, 0
2, 12780, Note_on_c, 0, 85, 72
2, 12780, Note_on_c, 0, 69, 68
2, 12794, Note_on_c, 0, 69, 0
2, 12794, Note_on_c, 0, 85, 0
2, 12795, Note_on_c, 0, 83, 64
2, 12795, Note_on_c, 0, 68, 80
2, 12809, Note_on_c, 0, 68, 0
2, 12809, Note_on_c, 0, 83, 0
2, 12810, Note_on_c, 0, 85, 68
2, 12810, Note_on_c, 0, 69, 85
2, 12824, Note_on_c, 0, 69, 0
2, 12824, Note_on_c, 0, 85, 0
2, 12825, Note_on_c, 0, 83, 80
2, 12825, Note_on_c, 0, 68, 72
2, 12839, Note_on_c, 0, 68, 0
2, 12839, Note_on_c, 0, 83, 0
2, 12840, Note_on_c, 0, 85, 80
2, 12840, Note_on_c, 0, 69, 76
2, 12854, Note_on_c, 0, 69, 0
2, 12854, Note_on_c, 0, 85, 0
2, 12855, Note_on_c, 0, 83, 76
2, 12855, Note_on_c, 0, 68, 76
2, 12869, Note_on_c, 0, 68, 0
2, 12869, Note_on_c, 0, 83, 0
2, 12870, Note_on_c, 0, 85, 72
2, 12870, Note_on_c, 0, 69, 76
2, 12884, Note_on_c, 0, 69, 0
2, 12884, Note_on_c, 0, 85, 0
2, 12885, Note_on_c, 0, 83, 85
2, 12885, Note_on_c, 0, 68, 76
2, 12899, Note_on_c, 0, 68, 0
2, 12899, Note_on_c, 0, 83, 0
2, 12900, Note_on_c, 0, 85, 55
2, 12900, Note_on_c, 0, 69, 76
2, 12914, Note_on_c, 0, 69, 0
2, 12914, Note_on_c, 0, 85, 0
2, 12915, Note_on_c, 0, 83, 76
2, 12915, Note_on_c, 0, 68, 93
2, 12929, Note_on_c, 0, 68, 0
2, 12929, Note_on_c, 0, 83, 0
2, 12930, Note_on_c, 0, 81, 85
2, 12930, Note_on_c, 0, 66, 85
2, 12944, Note_on_c, 0, 66, 0
2, 12944, Note_on_c, 0, 81, 0
2, 12945, Note_on_c, 0, 83, 85
2, 12945, Note_on_c, 0, 68, 93
2, 12959, Note_on_c, 0, 68, 0
2, 12959, Note_on_c, 0, 83, 0
2, 12960, Note_on_c, 0, 69, 100
2, 12960, Note_on_c, 0, 81, 119
2, 12991, Control_c, 0, 64, 127
2, 13020, Note_on_c, 0, 69, 0
2, 13022, Control_c, 0, 64, 0
2, 13026, Note_on_c, 0, 81, 0
2, 13200, Note_on_c, 0, 83, 100
2, 13200, Note_on_c, 0, 86, 119
2, 13215, Control_c, 0, 64, 127
2, 13247, Note_on_c, 0, 86, 0
2, 13260, Note_on_c, 0, 83, 0
2, 13272, Control_c, 0, 64, 0
2, 13440, Note_on_c, 0, 81, 100
2, 13440, Note_on_c, 0, 85, 127
2, 13454, Control_c, 0, 64, 127
2, 13488, Note_on_c, 0, 85, 0
2, 13500, Note_on_c, 0, 81, 0
2, 13514, Control_c, 0, 64, 0
2, 13680, Note_on_c, 0, 71, 100
2, 13680, Note_on_c, 0, 74, 100
2, 13680, Note_on_c, 0, 80, 127
2, 13695, Control_c, 0, 64, 127
2, 13727, Note_on_c, 0, 80, 0
2, 13740, Note_on_c, 0, 74, 0
2, 13740, Note_on_c, 0, 71, 0
2, 13764, Control_c, 0, 64, 0
2, 13920, Note_on_c, 0, 69, 100
2, 13920, Note_on_c, 0, 73, 100
2, 13920, Note_on_c, 0, 81, 102
2, 13925, Control_c, 0, 64, 127
2, 13952, Note_on_c, 0, 81, 0
2, 13977, Control_c, 0, 64, 0
2, 13980, Note_on_c, 0, 73, 0
2, 13980, Note_on_c, 0, 69, 0
2, 13980, Note_on_c, 0, 64, 100
2, 13980, Note_on_c, 0, 76, 107
2, 14001, Control_c, 0, 64, 127
2, 14030, Note_on_c, 0, 76, 0
2, 14034, Control_c, 0, 64, 0
2, 14040, Note_on_c, 0, 64, 0
2, 14040, Note_on_c, 0, 61, 100
2, 14040, Note_on_c, 0, 73, 119
2, 14053, Control_c, 0, 64, 127
2, 14067, Note_on_c, 0, 73, 0
2, 14070, Note_on_c, 0, 73, 37
2, 14088, Note_on_c, 0, 73, 0
2, 14100, Note_on_c, 0, 61, 0
2, 14100, Note_on_c, 0, 57, 100
2, 14100, Note_on_c, 0, 69, 113
2, 14126, Note_on_c, 0, 69, 0
2, 14139, Control_c, 0, 64, 0
2, 14160, Note_on_c, 0, 57, 0
2, 14160, Note_on_c, 0, 69, 100
2, 14160, Note_on_c, 0, 81, 119
2, 14176, Control_c, 0, 64, 127
2, 14203, Note_on_c, 0, 81, 0
2, 14220, Note_on_c, 0, 69, 0
2, 14220, Note_on_c, 0, 64, 100
2, 14220, Note_on_c, 0, 76, 102
2, 14223, Control_c, 0, 64, 0
2, 14242, Control_c, 0, 64, 127
2, 14273, Note_on_c, 0, 76, 0
2, 14277, Control_c, 0, 64, 0
2, 14280, Note_on_c, 0, 64, 0
2, 14280, Note_on_c, 0, 61, 100
2, 14280, Note_on_c, 0, 73, 113
2, 14301, Control_c, 0, 64, 127
2, 14337, Note_on_c, 0, 73, 0
2, 14340, Note_on_c, 0, 61, 0
2, 14340, Note_on_c, 0, 57, 100
2, 14340, Note_on_c, 0, 69, 107
2, 14355, Note_on_c, 0, 69, 0
2, 14392, Control_c, 0, 64, 0
2, 14400, Note_on_c, 0, 57, 0
2, 14400, Note_on_c, 0, 69, 100
2, 14400, Note_on_c, 0, 81, 119
2, 14431, Control_c, 0, 64, 127
2, 14460, Note_on_c, 0, 69, 0
2, 14462, Note_on_c, 0, 81, 0
2, 14518, Control_c, 0, 64, 0
2, 14520, Note_on_c, 0, 69, 100
2, 14520, Note_on_c, 0, 76, 100
2, 14520, Note_on_c, 0, 85, 127
2, 14545, Control_c, 0, 64, 127
2, 14575, Note_on_c, 0, 85, 0
2, 14580, Note_on_c, 0, 76, 0
2, 14580, Note_on_c, 0, 69, 0
2, 14629, Control_c, 0, 64, 0
2, 14640, Note_on_c, 0, 69, 100
2, 14640, Note_on_c, 0, 73, 100
2, 14640, Note_on_c, 0, 81, 127
2, 14658, Control_c, 0, 64, 127
2, 14688, Note_on_c, 0, 81, 0
2, 14700, Note_on_c, 0, 73, 0
2, 14700, Note_on_c, 0, 69, 0
2, 14772, Control_c, 0, 64, 0
2, 14880, Note_on_c, 0, 66, 113
2, 14880, Note_on_c, 0, 54, 102
2, 14917, Control_c, 0, 64, 127
2, 15116, Note_on_c, 0, 54, 0
2, 15116, Note_on_c, 0, 66, 0
2, 15120, Note_on_c, 0, 67, 107
2, 15120, Note_on_c, 0, 55, 98
2, 15133, Control_c, 0, 64, 0
2, 15163, Control_c, 0, 64, 127
2, 15233, Note_on_c, 0, 67, 0
2, 15236, Note_on_c, 0, 55, 0
2, 15237, Control_c, 0, 64, 0
2, 15240, Note_on_c, 0, 66, 93
2, 15240, Note_on_c, 0, 54, 89
2, 15262, Control_c, 0, 64, 127
2, 15360, Note_on_c, 0, 65, 98
2, 15360, Note_on_c, 0, 53, 89
2, 15365, Note_on_c, 0, 54, 0
2, 15365, Note_on_c, 0, 66, 0
2, 15369, Control_c, 0, 64, 0
2, 15400, Control_c, 0, 64, 127
2, 15478, Note_on_c, 0, 53, 0
2, 15480, Note_on_c, 0, 54, 89
2, 15480, Note_on_c, 0, 66, 102
2, 15484, Note_on_c, 0, 65, 0
2, 15486, Control_c, 0, 64, 0
2, 15510, Control_c, 0, 64, 127
2, 15592, Note_on_c, 0, 66, 0
2, 15592, Note_on_c, 0, 54, 0
2, 15617, Control_c, 0, 64, 0
2, 15720, Note_on_c, 0, 78, 72
2, 15720, Note_on_c, 0, 74, 80
2, 15732, Note_on_c, 0, 74, 0
2, 15739, Note_on_c, 0, 78, 0
2, 15840, Note_on_c, 0, 79, 72
2, 15840, Note_on_c, 0, 76, 72
2, 15854, Note_on_c, 0, 76, 0
2, 15855, Note_on_c, 0, 79, 0
2, 15960, Note_on_c, 0, 73, 64
2, 15960, Note_on_c, 0, 76, 60
2, 15975, Note_on_c, 0, 73, 0
2, 15976, Note_on_c, 0, 76, 0
2, 16080, Note_on_c, 0, 74, 72
2, 16080, Note_on_c, 0, 78, 56
2, 16095, Note_on_c, 0, 74, 0
2, 16098, Note_on_c, 0, 78, 0
2, 16200, Note_on_c, 0, 74, 80
2, 16200, Note_on_c, 0, 71, 76
2, 16216, Note_on_c, 0, 71, 0
2, 16219, Note_on_c, 0, 74, 0
2, 16320, Note_on_c, 0, 73, 72
2, 16320, Note_on_c, 0, 76, 72
2, 16336, Note_on_c, 0, 76, 0
2, 16337, Note_on_c, 0, 73, 0
2, 16440, Note_on_c, 0, 73, 62
2, 16440, Note_on_c, 0, 70, 64
2, 16456, Note_on_c, 0, 70, 0
2, 16460, Note_on_c, 0, 73, 0
2, 16560, Note_on_c, 0, 71, 76
2, 16560, Note_on_c, 0, 74, 76
2, 16575, Note_on_c, 0, 71, 0
2, 16577, Note_on_c, 0, 74, 0
2, 16800, Note_on_c, 0, 64, 119
2, 16800, Note_on_c, 0, 52, 98
2, 16828, Control_c, 0, 64, 127
2, 17026, Note_on_c, 0, 52, 0
2, 17029, Note_on_c, 0, 64, 0
2, 17038, Control_c, 0, 64, 0
2, 17040, Note_on_c, 0, 54, 89
2, 17040, Note_on_c, 0, 66, 107
2, 17160, Note_on_c, 0, 64, 102
2, 17160, Note_on_c, 0, 52, 93
2, 17166, Note_on_c, 0, 66, 0
2, 17168, Note_on_c, 0, 54, 0
2, 17178, Control_c, 0, 64, 127
2, 17280, Note_on_c, 0, 63, 102
2, 17280, Note_on_c, 0, 51, 76
2, 17283, Control_c, 0, 64, 0
2, 17285, Note_on_c, 0, 52, 0
2, 17288, Note_on_c, 0, 64, 0
2, 17316, Control_c, 0, 64, 127
2, 17399, Note_on_c, 0, 63, 0
2, 17399, Note_on_c, 0, 51, 0
2, 17400, Note_on_c, 0, 52, 93
2, 17400, Note_on_c, 0, 64, 98
2, 17410, Control_c, 0, 64, 0
2, 17439, Control_c, 0, 64, 127
2, 17479, Note_on_c, 0, 64, 0
2, 17481, Note_on_c, 0, 52, 0
2, 17547, Control_c, 0, 64, 0
2, 17640, Note_on_c, 0, 73, 76
2, 17640, Note_on_c, 0, 76, 76
2, 17655, Note_on_c, 0, 73, 0
2, 17656, Note_on_c, 0, 76, 0
2, 17760, Note_on_c, 0, 78, 64
2, 17760, Note_on_c, 0, 74, 80
2, 17777, Note_on_c, 0, 74, 0
2, 17779, Note_on_c, 0, 78, 0
2, 17880, Note_on_c, 0, 71, 76
2, 17880, Note_on_c, 0, 74, 72
2, 17896, Note_on_c, 0, 71, 0
2, 17897, Note_on_c, 0, 74, 0
2, 18000, Note_on_c, 0, 73, 68
2, 18000, Note_on_c, 0, 76, 72
2, 18017, Note_on_c, 0, 73, 0
2, 18019, Note_on_c, 0, 76, 0
2, 18120, Note_on_c, 0, 73, 64
2, 18120, Note_on_c, 0, 69, 76
2, 18137, Note_on_c, 0, 69, 0
2, 18142, Note_on_c, 0, 73, 0
2, 18240, Note_on_c, 0, 74, 72
2, 18240, Note_on_c, 0, 71, 76
2, 18256, Note_on_c, 0, 71, 0
2, 18261, Note_on_c, 0, 74, 0
2, 18360, Note_on_c, 0, 68, 68
2, 18360, Note_on_c, 0, 71, 80
2, 18378, Note_on_c, 0, 68, 0
2, 18379, Note_on_c, 0, 71, 0
2, 18480, Note_on_c, 0, 73, 72
2, 18480, Note_on_c, 0, 69, 93
2, 18497, Note_on_c, 0, 69, 0
2, 18500, Note_on_c, 0, 73, 0
2, 18720, Note_on_c, 0, 72, 93
2, 18742, Control_c, 0, 64, 127
2, 18746, Note_on_c, 0, 72, 0
2, 18750, Note_on_c, 0, 81, 80
2, 18777, Note_on_c, 0, 81, 0
2, 18780, Note_on_c, 0, 72, 80
2, 18804, Note_on_c, 0, 72, 0
2, 18810, Note_on_c, 0, 81, 80
2, 18833, Note_on_c, 0, 81, 0
2, 18840, Note_on_c, 0, 72, 89
2, 18863, Note_on_c, 0, 72, 0
2, 18870, Note_on_c, 0, 81, 76
2, 18895, Note_on_c, 0, 81, 0
2, 18900, Note_on_c, 0, 72, 89
2, 18926, Note_on_c, 0, 72, 0
2, 18930, Note_on_c, 0, 81, 76
2, 18955, Note_on_c, 0, 81, 0
2, 18960, Note_on_c, 0, 72, 72
2, 18980, Note_on_c, 0, 72, 0
2, 18990, Note_on_c, 0, 81, 60
2, 19015, Note_on_c, 0, 81, 0
2, 19020, Note_on_c, 0, 72, 62
2, 19044, Note_on_c, 0, 72, 0
2, 19050, Note_on_c, 0, 81, 76
2, 19080, Note_on_c, 0, 81, 0
2, 19080, Note_on_c, 0, 72, 68
2, 19105, Note_on_c, 0, 72, 0
2, 19110, Note_on_c, 0, 81, 76
2, 19136, Note_on_c, 0, 81, 0
2, 19140, Note_on_c, 0, 72, 52
2, 19166, Note_on_c, 0, 72, 0
2, 19170, Note_on_c, 0, 81, 72
2, 19197, Note_on_c, 0, 81, 0
2, 19200, Note_on_c, 0, 72, 89
2, 19202, Control_c, 0, 64, 0
2, 19221, Control_c, 0, 64, 127
2, 19230, Note_on_c, 0, 81, 76
2, 19233, Note_on_c, 0, 72, 0
2, 19260, Note_on_c, 0, 81, 0
2, 19260, Note_on_c, 0, 72, 72
2, 19288, Note_on_c, 0, 72, 0
2, 19290, Note_on_c, 0, 81, 64
2, 19316, Note_on_c, 0, 81, 0
2, 19320, Note_on_c, 0, 72, 76
2, 19349, Note_on_c, 0, 72, 0
2, 19350, Note_on_c, 0, 81, 76
2, 19377, Note_on_c, 0, 81, 0
2, 19380, Note_on_c, 0, 72, 62
2, 19407, Note_on_c, 0, 72, 0
2, 19410, Note_on_c, 0, 81, 72
2, 19433, Note_on_c, 0, 81, 0
2, 19440, Note_on_c, 0, 72, 64
2, 19470, Note_on_c, 0, 81, 76
2, 19474, Note_on_c, 0, 72, 0
2, 19500, Note_on_c, 0, 72, 76
2, 19502, Note_on_c, 0, 81, 0
2, 19524, Note_on_c, 0, 72, 0
2, 19530, Note_on_c, 0, 81, 72
2, 19557, Note_on_c, 0, 81, 0
2, 19560, Note_on_c, 0, 72, 76
2, 19587, Note_on_c, 0, 72, 0
2, 19590, Note_on_c, 0, 81, 76
2, 19617, Note_on_c, 0, 81, 0
2, 19620, Note_on_c, 0, 72, 68
2, 19650, Note_on_c, 0, 72, 0
2, 19650, Note_on_c, 0, 81, 72
2, 19680, Control_c, 0, 64, 0
2, 19680, Note_on_c, 0, 71, 80
2, 19681, Note_on_c, 0, 81, 0
2, 19703, Control_c, 0, 64, 127
2, 19710, Note_on_c, 0, 71, 0
2, 19710, Note_on_c, 0, 81, 80
2, 19736, Note_on_c, 0, 81, 0
2, 19740, Note_on_c, 0, 71, 76
2, 19766, Note_on_c, 0, 71, 0
2, 19770, Note_on_c, 0, 81, 72
2, 19797, Note_on_c, 0, 81, 0
2, 19800, Note_on_c, 0, 71, 64
2, 19825, Note_on_c, 0, 71, 0
2, 19830, Note_on_c, 0, 81, 76
2, 19855, Note_on_c, 0, 81, 0
2, 19860, Note_on_c, 0, 71, 51
2, 19883, Note_on_c, 0, 71, 0
2, 19890, Note_on_c, 0, 81, 76
2, 19914, Note_on_c, 0, 81, 0
2, 19920, Note_on_c, 0, 71, 64
2, 19947, Note_on_c, 0, 71, 0
2, 19950, Note_on_c, 0, 81, 80
2, 19978, Note_on_c, 0, 81, 0
2, 19980, Note_on_c, 0, 71, 85
2, 20003, Note_on_c, 0, 71, 0
2, 20010, Note_on_c, 0, 81, 72
2, 20039, Note_on_c, 0, 81, 0
2, 20040, Note_on_c, 0, 71, 89
2, 20064, Note_on_c, 0, 71, 0
2, 20070, Note_on_c, 0, 81, 76
2, 20100, Note_on_c, 0, 81, 0
2, 20100, Note_on_c, 0, 71, 93
2, 20125, Note_on_c, 0, 71, 0
2, 20130, Note_on_c, 0, 81, 85
2, 20159, Note_on_c, 0, 81, 0
2, 20160, Note_on_c, 0, 71, 107
2, 20182, Note_on_c, 0, 71, 0
2, 20190, Note_on_c, 0, 81, 80
2, 20220, Note_on_c, 0, 71, 89
2, 20222, Note_on_c, 0, 81, 0
2, 20241, Note_on_c, 0, 71, 0
2, 20250, Note_on_c, 0, 81, 76
2, 20275, Note_on_c, 0, 81, 0
2, 20280, Note_on_c, 0, 71, 57
2, 20303, Note_on_c, 0, 71, 0
2, 20310, Note_on_c, 0, 81, 72
2, 20340, Note_on_c, 0, 71, 76
2, 20341, Note_on_c, 0, 81, 0
2, 20360, Note_on_c, 0, 71, 0
2, 20370, Note_on_c, 0, 81, 80
2, 20397, Note_on_c, 0, 81, 0
2, 20400, Note_on_c, 0, 71, 62
2, 20423, Note_on_c, 0, 71, 0
2, 20430, Note_on_c, 0, 81, 68
2, 20456, Note_on_c, 0, 81, 0
2, 20460, Note_on_c, 0, 71, 76
2, 20484, Note_on_c, 0, 71, 0
2, 20490, Note_on_c, 0, 81, 72
2, 20513, Note_on_c, 0, 81, 0
2, 20520, Note_on_c, 0, 71, 72
2, 20547, Note_on_c, 0, 71, 0
2, 20550, Note_on_c, 0, 81, 76
2, 20578, Note_on_c, 0, 81, 0
2, 20580, Note_on_c, 0, 71, 93
2, 20608, Note_on_c, 0, 71, 0
2, 20610, Note_on_c, 0, 81, 89
2, 20637, Note_on_c, 0, 81, 0
2, 20640, Note_on_c, 0, 71, 102
2, 20655, Control_c, 0, 64, 0
2, 20670, Note_on_c, 0, 79, 76
2, 20671, Note_on_c, 0, 71, 0
2, 20673, Control_c, 0, 64, 127
2, 20700, Note_on_c, 0, 71, 68
2, 20704, Note_on_c, 0, 79, 0
2, 20724, Note_on_c, 0, 71, 0
2, 20730, Note_on_c, 0, 79, 76
2, 20755, Note_on_c, 0, 79, 0
2, 20760, Note_on_c, 0, 71, 62
2, 20785, Note_on_c, 0, 71, 0
2, 20790, Note_on_c, 0, 79, 76
2, 20820, Note_on_c, 0, 71, 80
2, 20823, Note_on_c, 0, 79, 0
2, 20842, Note_on_c, 0, 71, 0
2, 20850, Note_on_c, 0, 79, 89
2, 20874, Note_on_c, 0, 79, 0
2, 20880, Note_on_c, 0, 71, 85
2, 20910, Note_on_c, 0, 79, 93
2, 20911, Note_on_c, 0, 71, 0
2, 20940, Note_on_c, 0, 79, 0
2, 20940, Note_on_c, 0, 71, 93
2, 20959, Note_on_c, 0, 71, 0
2, 20970, Note_on_c, 0, 79, 80
2, 20996, Note_on_c, 0, 79, 0
2, 21000, Note_on_c, 0, 71, 93
2, 21025, Note_on_c, 0, 71, 0
2, 21030, Note_on_c, 0, 79, 64
2, 21059, Note_on_c, 0, 79, 0
2, 21060, Note_on_c, 0, 71, 64
2, 21087, Note_on_c, 0, 71, 0
2, 21090, Note_on_c, 0, 79, 76
2, 21120, Note_on_c, 0, 71, 64
2, 21121, Note_on_c, 0, 79, 0
2, 21149, Note_on_c, 0, 71, 0
2, 21150, Note_on_c, 0, 79, 76
2, 21179, Note_on_c, 0, 79, 0
2, 21180, Note_on_c, 0, 71, 62
2, 21208, Note_on_c, 0, 71, 0
2, 21210, Note_on_c, 0, 79, 76
2, 21235, Note_on_c, 0, 79, 0
2, 21240, Note_on_c, 0, 71, 57
2, 21269, Note_on_c, 0, 71, 0
2, 21270, Note_on_c, 0, 79, 76
2, 21300, Note_on_c, 0, 71, 76
2, 21303, Note_on_c, 0, 79, 0
2, 21327, Note_on_c, 0, 71, 0
2, 21330, Note_on_c, 0, 79, 89
2, 21360, Note_on_c, 0, 79, 0
2, 21360, Note_on_c, 0, 71, 89
2, 21385, Note_on_c, 0, 71, 0
2, 21390, Note_on_c, 0, 79, 89
2, 21419, Note_on_c, 0, 79, 0
2, 21420, Note_on_c, 0, 71, 98
2, 21443, Note_on_c, 0, 71, 0
2, 21450, Note_on_c, 0, 79, 76
2, 21480, Note_on_c, 0, 79, 0
2, 21480, Note_on_c, 0, 71, 107
2, 21505, Note_on_c, 0, 71, 0
2, 21510, Note_on_c, 0, 79, 89
2, 21539, Note_on_c, 0, 79, 0
2, 21540, Note_on_c, 0, 71, 102
2, 21564, Note_on_c, 0, 71, 0
2, 21570, Note_on_c, 0, 79, 89
2, 21600, Note_on_c, 0, 69, 93
2, 21603, Note_on_c, 0, 79, 0
2, 21607, Control_c, 0, 64, 0
2, 21629, Note_on_c, 0, 69, 0
2, 21629, Control_c, 0, 64, 127
2, 21630, Note_on_c, 0, 79, 76
2, 21659, Note_on_c, 0, 79, 0
2, 21660, Note_on_c, 0, 69, 53
2, 21684, Note_on_c, 0, 69, 0
2, 21690, Note_on_c, 0, 79, 76
2, 21720, Note_on_c, 0, 79, 0
2, 21720, Note_on_c, 0, 69, 51
2, 21746, Note_on_c, 0, 69, 0
2, 21750, Note_on_c, 0, 79, 76
2, 21776, Note_on_c, 0, 79, 0
2, 21780, Note_on_c, 0, 69, 62
2, 21809, Note_on_c, 0, 69, 0
2, 21810, Note_on_c, 0, 79, 76
2, 21839, Note_on_c, 0, 79, 0
2, 21840, Note_on_c, 0, 69, 64
2, 21864, Note_on_c, 0, 69, 0
2, 21870, Note_on_c, 0, 79, 76
2, 21893, Note_on_c, 0, 79, 0
2, 21900, Note_on_c, 0, 69, 56
2, 21925, Note_on_c, 0, 69, 0
2, 21930, Note_on_c, 0, 79, 76
2, 21955, Note_on_c, 0, 79, 0
2, 21960, Note_on_c, 0, 69, 62
2, 21985, Note_on_c, 0, 69, 0
2, 21990, Note_on_c, 0, 79, 76
2, 22017, Note_on_c, 0, 79, 0
2, 22020, Note_on_c, 0, 69, 60
2, 22046, Note_on_c, 0, 69, 0
2, 22050, Note_on_c, 0, 79, 80
2, 22077, Control_c, 0, 64, 0
2, 22080, Note_on_c, 0, 69, 62
2, 22083, Control_c, 0, 64, 127
2, 22084, Note_on_c, 0, 79, 0
2, 22108, Note_on_c, 0, 69, 0
2, 22110, Note_on_c, 0, 79, 76
2, 22140, Note_on_c, 0, 69, 62
2, 22142, Note_on_c, 0, 79, 0
2, 22164, Note_on_c, 0, 69, 0
2, 22170, Note_on_c, 0, 79, 76
2, 22198, Note_on_c, 0, 79, 0
2, 22200, Note_on_c, 0, 69, 53
2, 22230, Note_on_c, 0, 69, 0
2, 22230, Note_on_c, 0, 79, 72
2, 22260, Note_on_c, 0, 69, 72
2, 22262, Note_on_c, 0, 79, 0
2, 22290, Note_on_c, 0, 79, 89
2, 22294, Note_on_c, 0, 69, 0
2, 22317, Note_on_c, 0, 79, 0
2, 22320, Note_on_c, 0, 69, 76
2, 22348, Note_on_c, 0, 69, 0
2, 22350, Note_on_c, 0, 79, 93
2, 22378, Note_on_c, 0, 79, 0
2, 22380, Note_on_c, 0, 69, 98
2, 22400, Note_on_c, 0, 69, 0
2, 22410, Note_on_c, 0, 79, 89
2, 22430, Note_on_c, 0, 79, 0
2, 22440, Note_on_c, 0, 69, 68
2, 22467, Note_on_c, 0, 69, 0
2, 22470, Note_on_c, 0, 79, 85
2, 22498, Note_on_c, 0, 79, 0
2, 22500, Note_on_c, 0, 69, 89
2, 22528, Note_on_c, 0, 69, 0
2, 22530, Note_on_c, 0, 79, 76
2, 22558, Note_on_c, 0, 79, 0
2, 22560, Note_on_c, 0, 69, 98
2, 22564, Control_c, 0, 64, 0
2, 22582, Control_c, 0, 64, 127
2, 22588, Note_on_c, 0, 69, 0
2, 22590, Note_on_c, 0, 78, 60
2, 22618, Note_on_c, 0, 78, 0
2, 22620, Note_on_c, 0, 69, 62
2, 22645, Note_on_c, 0, 69, 0
2, 22650, Note_on_c, 0, 78, 72
2, 22677, Note_on_c, 0, 78, 0
2, 22680, Note_on_c, 0, 69, 50
2, 22710, Note_on_c, 0, 78, 80
2, 22711, Note_on_c, 0, 69, 0
2, 22737, Note_on_c, 0, 78, 0
2, 22740, Note_on_c, 0, 69, 93
2, 22767, Note_on_c, 0, 69, 0
2, 22770, Note_on_c, 0, 78, 76
2, 22797, Note_on_c, 0, 78, 0
2, 22800, Note_on_c, 0, 69, 102
2, 22811, Control_c, 0, 64, 0
2, 22825, Control_c, 0, 64, 127
2, 22830, Note_on_c, 0, 69, 0
2, 22830, Note_on_c, 0, 79, 93
2, 22860, Note_on_c, 0, 69, 102
2, 22861, Note_on_c, 0, 79, 0
2, 22884, Note_on_c, 0, 69, 0
2, 22890, Note_on_c, 0, 79, 93
2, 22911, Note_on_c, 0, 79, 0
2, 22920, Note_on_c, 0, 69, 60
2, 22947, Note_on_c, 0, 69, 0
2, 22950, Note_on_c, 0, 79, 89
2, 22978, Note_on_c, 0, 79, 0
2, 22980, Note_on_c, 0, 69, 85
2, 23005, Note_on_c, 0, 69, 0
2, 23010, Note_on_c, 0, 79, 89
2, 23034, Note_on_c, 0, 79, 0
2, 23040, Note_on_c, 0, 69, 80
2, 23051, Control_c, 0, 64, 0
2, 23067, Note_on_c, 0, 69, 0
2, 23069, Control_c, 0, 64, 127
2, 23070, Note_on_c, 0, 78, 64
2, 23095, Note_on_c, 0, 78, 0
2, 23100, Note_on_c, 0, 69, 62
2, 23128, Note_on_c, 0, 69, 0
2, 23130, Note_on_c, 0, 78, 72
2, 23152, Note_on_c, 0, 78, 0
2, 23160, Note_on_c, 0, 69, 55
2, 23190, Note_on_c, 0, 69, 0
2, 23190, Note_on_c, 0, 78, 72
2, 23217, Note_on_c, 0, 78, 0
2, 23220, Note_on_c, 0, 69, 89
2, 23248, Note_on_c, 0, 69, 0
2, 23250, Note_on_c, 0, 78, 62
2, 23272, Note_on_c, 0, 78, 0
2, 23280, Note_on_c, 0, 69, 102
2, 23295, Control_c, 0, 64, 0
2, 23310, Note_on_c, 0, 79, 89
2, 23311, Note_on_c, 0, 69, 0
2, 23314, Control_c, 0, 64, 127
2, 23337, Note_on_c, 0, 79, 0
2, 23340, Note_on_c, 0, 69, 89
2, 23364, Note_on_c, 0, 69, 0
2, 23370, Note_on_c, 0, 79, 93
2, 23394, Note_on_c, 0, 79, 0
2, 23400, Note_on_c, 0, 69, 98
2, 23425, Note_on_c, 0, 69, 0
2, 23430, Note_on_c, 0, 79, 93
2, 23457, Note_on_c, 0, 79, 0
2, 23460, Note_on_c, 0, 69, 102
2, 23490, Note_on_c, 0, 69, 0
2, 23490, Note_on_c, 0, 79, 93
2, 23511, Note_on_c, 0, 79, 0
2, 23520, Note_on_c, 0, 78, 93
2, 23520, Note_on_c, 0, 69, 85
2, 23523, Control_c, 0, 64, 0
2, 23546, Control_c, 0, 64, 127
2, 23569, Note_on_c, 0, 69, 0
2, 23569, Note_on_c, 0, 78, 0
2, 23638, Control_c, 0, 64, 0
2, 23640, Note_on_c, 0, 69, 107
2, 23640, Note_on_c, 0, 81, 113
2, 23662, Control_c, 0, 64, 127
2, 23692, Note_on_c, 0, 69, 0
2, 23693, Note_on_c, 0, 81, 0
2, 23730, Note_on_c, 0, 81, 89
2, 23730, Note_on_c, 0, 69, 93
2, 23745, Note_on_c, 0, 69, 0
2, 23750, Note_on_c, 0, 81, 0
2, 23758, Control_c, 0, 64, 0
2, 23760, Note_on_c, 0, 66, 98
2, 23760, Note_on_c, 0, 78, 107
2, 23784, Control_c, 0, 64, 127
2, 23823, Note_on_c, 0, 66, 0
2, 23832, Note_on_c, 0, 78, 0
2, 23850, Note_on_c, 0, 66, 85
2, 23850, Note_on_c, 0, 78, 107
2, 23868, Note_on_c, 0, 78, 0
2, 23868, Note_on_c, 0, 66, 0
2, 23880, Note_on_c, 0, 74, 93
2, 23880, Note_on_c, 0, 62, 93
2, 23886, Control_c, 0, 64, 0
2, 23911, Control_c, 0, 64, 127
2, 23932, Note_on_c, 0, 62, 0
2, 23939, Note_on_c, 0, 74, 0
2, 23970, Note_on_c, 0, 62, 93
2, 23970, Note_on_c, 0, 74, 102
2, 23987, Note_on_c, 0, 62, 0
2, 23990, Note_on_c, 0, 74, 0
2, 24000, Note_on_c, 0, 69, 113
2, 24000, Note_on_c, 0, 81, 102
2, 24003, Control_c, 0, 64, 0
2, 24026, Control_c, 0, 64, 127
2, 24064, Note_on_c, 0, 69, 0
2, 24070, Note_on_c, 0, 81, 0
2, 24127, Control_c, 0, 64, 0
2, 24960, Note_on_c, 0, 78, 93
2, 24960, Note_on_c, 0, 86, 102
2, 24960, Note_on_c, 0, 81, 102
2, 24960, Note_on_c, 0, 74, 107
2, 24960, Note_on_c, 0, 62, 107
2, 24960, Note_on_c, 0, 66, 89
2, 24960, Note_on_c, 0, 69, 98
2, 24969, Control_c, 0, 64, 127
2, 24975, Note_on_c, 0, 69, 0
2, 24979, Note_on_c, 0, 86, 0
2, 24980, Note_on_c, 0, 81, 0
2, 24981, Note_on_c, 0, 62, 0
2, 24981, Note_on_c, 0, 66, 0
2, 24985, Note_on_c, 0, 74, 0
2, 24987, Note_on_c, 0, 78, 0
2, 25020, Note_on_c, 0, 78, 107
2, 25027, Control_c, 0, 64, 0
2, 25050, Note_on_c, 0, 79, 80
2, 25052, Note_on_c, 0, 78, 0
2, 25072, Note_on_c, 0, 79, 0
2, 25080, Note_on_c, 0, 81, 93
2, 25106, Note_on_c, 0, 81, 0
2, 25110, Note_on_c, 0, 79, 93
2, 25135, Note_on_c, 0, 79, 0
2, 25140, Note_on_c, 0, 78, 89
2, 25163, Note_on_c, 0, 78, 0
2, 25170, Note_on_c, 0, 76, 102
2, 25190, Note_on_c, 0, 76, 0
2, 25200, Note_on_c, 0, 74, 107
2, 25244, Note_on_c, 0, 74, 0
2, 25260, Note_on_c, 0, 66, 89
2, 25290, Note_on_c, 0, 67, 102
2, 25292, Note_on_c, 0, 66, 0
2, 25319, Note_on_c, 0, 67, 0
2, 25320, Note_on_c, 0, 69, 93
2, 25350, Note_on_c, 0, 67, 89
2, 25352, Note_on_c, 0, 69, 0
2, 25379, Note_on_c, 0, 67, 0
2, 25380, Note_on_c, 0, 66, 76
2, 25410, Note_on_c, 0, 64, 80
2, 25415, Note_on_c, 0, 66, 0
2, 25438, Note_on_c, 0, 64, 0
2, 25440, Note_on_c, 0, 62, 102
2, 25440, Note_on_c, 0, 74, 113
2, 25460, Note_on_c, 0, 74, 0
2, 25462, Note_on_c, 0, 62, 0
2, 25500, Note_on_c, 0, 76, 107
2, 25500, Note_on_c, 0, 64, 89
2, 25519, Note_on_c, 0, 64, 0
2, 25524, Note_on_c, 0, 76, 0
2, 25560, Note_on_c, 0, 78, 107
2, 25560, Note_on_c, 0, 66, 89
2, 25579, Note_on_c, 0, 78, 0
2, 25584, Note_on_c, 0, 66, 0
2, 25620, Note_on_c, 0, 79, 107
2, 25620, Note_on_c, 0, 67, 93
2, 25640, Note_on_c, 0, 79, 0
2, 25648, Note_on_c, 0, 67, 0
2, 25680, Note_on_c, 0, 81, 102
2, 25680, Note_on_c, 0, 69, 89
2, 25699, Note_on_c, 0, 81, 0
2, 25701, Note_on_c, 0, 69, 0
2, 25740, Note_on_c, 0, 83, 102
2, 25740, Note_on_c, 0, 71, 93
2, 25758, Note_on_c, 0, 83, 0
2, 25764, Note_on_c, 0, 71, 0
2, 25800, Note_on_c, 0, 85, 98
2, 25800, Note_on_c, 0, 73, 89
2, 25820, Note_on_c, 0, 85, 0
2, 25825, Note_on_c, 0, 73, 0
2, 25860, Note_on_c, 0, 86, 102
2, 25860, Note_on_c, 0, 74, 98
2, 25874, Note_on_c, 0, 74, 0
2, 25874, Note_on_c, 0, 86, 0
2, 25920, Note_on_c, 0, 79, 80
2, 25920, Note_on_c, 0, 67, 72
2, 25946, Control_c, 0, 64, 127
2, 25977, Note_on_c, 0, 67, 0
2, 25977, Note_on_c, 0, 79, 0
2, 25980, Note_on_c, 0, 76, 72
2, 25980, Note_on_c, 0, 64, 72
2, 26037, Note_on_c, 0, 64, 0
2, 26040, Note_on_c, 0, 61, 59
2, 26040, Note_on_c, 0, 73, 68
2, 26042, Note_on_c, 0, 76, 0
2, 26098, Note_on_c, 0, 61, 0
2, 26099, Note_on_c, 0, 73, 0
2, 26100, Note_on_c, 0, 57, 60
2, 26100, Note_on_c, 0, 69, 64
2, 26129, Note_on_c, 0, 69, 0
2, 26147, Note_on_c, 0, 57, 0
2, 26160, Note_on_c, 0, 67, 68
2, 26160, Note_on_c, 0, 79, 89
2, 26170, Control_c, 0, 64, 0
2, 26193, Control_c, 0, 64, 127
2, 26210, Note_on_c, 0, 79, 0
2, 26218, Note_on_c, 0, 67, 0
2, 26220, Note_on_c, 0, 76, 76
2, 26220, Note_on_c, 0, 64, 80
2, 26272, Note_on_c, 0, 76, 0
2, 26276, Note_on_c, 0, 64, 0
2, 26280, Note_on_c, 0, 73, 76
2, 26280, Note_on_c, 0, 61, 72
2, 26292, Control_c, 0, 64, 0
2, 26312, Control_c, 0, 64, 127
2, 26338, Note_on_c, 0, 73, 0
2, 26340, Note_on_c, 0, 57, 89
2, 26340, Note_on_c, 0, 69, 85
2, 26341, Note_on_c, 0, 61, 0
2, 26353, Note_on_c, 0, 69, 0
2, 26354, Note_on_c, 0, 57, 0
2, 26400, Control_c, 0, 64, 0
2, 26400, Note_on_c, 0, 74, 119
2, 26400, Note_on_c, 0, 62, 98
2, 26416, Note_on_c, 0, 74, 0
2, 26419, Note_on_c, 0, 62, 0
2, 26460, Note_on_c, 0, 64, 93
2, 26460, Note_on_c, 0, 76, 107
2, 26478, Note_on_c, 0, 76, 0
2, 26478, Note_on_c, 0, 64, 0
2, 26520, Note_on_c, 0, 66, 89
2, 26520, Note_on_c, 0, 78, 102
2, 26536, Note_on_c, 0, 78, 0
2, 26542, Note_on_c, 0, 66, 0
2, 26580, Note_on_c, 0, 67, 93
2, 26580, Note_on_c, 0, 79, 113
2, 26598, Note_on_c, 0, 79, 0
2, 26606, Note_on_c, 0, 67, 0
2, 26640, Note_on_c, 0, 81, 113
2, 26640, Note_on_c, 0, 69, 93
2, 26659, Note_on_c, 0, 81, 0
2, 26661, Note_on_c, 0, 69, 0
2, 26700, Note_on_c, 0, 83, 102
2, 26700, Note_on_c, 0, 71, 93
2, 26720, Note_on_c, 0, 83, 0
2, 26723, Note_on_c, 0, 71, 0
2, 26760, Note_on_c, 0, 73, 89
2, 26760, Note_on_c, 0, 85, 93
2, 26782, Note_on_c, 0, 85, 0
2, 26784, Note_on_c, 0, 73, 0
2, 26820, Note_on_c, 0, 86, 102
2, 26820, Note_on_c, 0, 74, 93
2, 26833, Note_on_c, 0, 74, 0
2, 26834, Note_on_c, 0, 86, 0
2, 26880, Note_on_c, 0, 79, 93
2, 26880, Note_on_c, 0, 67, 76
2, 26908, Control_c, 0, 64, 127
2, 26934, Note_on_c, 0, 67, 0
2, 26936, Note_on_c, 0, 79, 0
2, 26940, Note_on_c, 0, 64, 80
2, 26940, Note_on_c, 0, 76, 76
2, 27000, Note_on_c, 0, 61, 62
2, 27000, Note_on_c, 0, 73, 76
2, 27002, Note_on_c, 0, 76, 0
2, 27002, Note_on_c, 0, 64, 0
2, 27005, Control_c, 0, 64, 0
2, 27030, Control_c, 0, 64, 127
2, 27053, Note_on_c, 0, 73, 0
2, 27057, Note_on_c, 0, 61, 0
2, 27060, Note_on_c, 0, 57, 76
2, 27060, Note_on_c, 0, 69, 62
2, 27088, Note_on_c, 0, 69, 0
2, 27105, Note_on_c, 0, 57, 0
2, 27120, Control_c, 0, 64, 0
2, 27120, Note_on_c, 0, 67, 72
2, 27120, Note_on_c, 0, 79, 93
2, 27144, Control_c, 0, 64, 127
2, 27167, Note_on_c, 0, 79, 0
2, 27177, Note_on_c, 0, 67, 0
2, 27180, Note_on_c, 0, 64, 76
2, 27180, Note_on_c, 0, 76, 89
2, 27186, Control_c, 0, 64, 0
2, 27207, Control_c, 0, 64, 127
2, 27240, Note_on_c, 0, 76, 0
2, 27240, Note_on_c, 0, 73, 80
2, 27240, Note_on_c, 0, 61, 68
2, 27243, Note_on_c, 0, 64, 0
2, 27246, Control_c, 0, 64, 0
2, 27266, Control_c, 0, 64, 127
2, 27299, Note_on_c, 0, 73, 0
2, 27300, Note_on_c, 0, 57, 62
2, 27300, Note_on_c, 0, 69, 80
2, 27302, Note_on_c, 0, 61, 0
2, 27318, Note_on_c, 0, 57, 0
2, 27325, Note_on_c, 0, 69, 0
2, 27360, Note_on_c, 0, 66, 76
2, 27360, Note_on_c, 0, 74, 93
2, 27369, Control_c, 0, 64, 0
2, 27399, Control_c, 0, 64, 127
2, 27534, Note_on_c, 0, 74, 0
2, 27540, Note_on_c, 0, 67, 68
2, 27540, Note_on_c, 0, 76, 72
2, 27542, Note_on_c, 0, 66, 0
2, 27544, Control_c, 0, 64, 0
2, 27565, Control_c, 0, 64, 127
2, 27569, Note_on_c, 0, 76, 0
2, 27570, Note_on_c, 0, 66, 64
2, 27570, Note_on_c, 0, 74, 72
2, 27574, Note_on_c, 0, 67, 0
2, 27588, Note_on_c, 0, 74, 0
2, 27599, Note_on_c, 0, 66, 0
2, 27600, Note_on_c, 0, 73, 85
2, 27600, Note_on_c, 0, 64, 93
2, 27609, Control_c, 0, 64, 0
2, 27614, Note_on_c, 0, 73, 0
2, 27619, Note_on_c, 0, 64, 0
2, 27660, Note_on_c, 0, 74, 93
2, 27660, Note_on_c, 0, 66, 80
2, 27679, Note_on_c, 0, 66, 0
2, 27679, Note_on_c, 0, 74, 0
2, 27720, Note_on_c, 0, 76, 89
2, 27720, Note_on_c, 0, 67, 89
2, 27736, Note_on_c, 0, 67, 0
2, 27736, Note_on_c, 0, 76, 0
2, 27780, Note_on_c, 0, 69, 98
2, 27780, Note_on_c, 0, 78, 98
2, 27793, Note_on_c, 0, 69, 0
2, 27796, Note_on_c, 0, 78, 0
2, 27840, Note_on_c, 0, 79, 93
2, 27840, Note_on_c, 0, 71, 80
2, 27853, Control_c, 0, 64, 127
2, 27899, Note_on_c, 0, 71, 0
2, 27900, Note_on_c, 0, 69, 72
2, 27900, Note_on_c, 0, 78, 76
2, 27902, Note_on_c, 0, 79, 0
2, 27907, Control_c, 0, 64, 0
2, 27959, Note_on_c, 0, 69, 0
2, 27960, Note_on_c, 0, 78, 0
2, 27960, Note_on_c, 0, 76, 93
2, 27960, Note_on_c, 0, 67, 80
2, 27973, Note_on_c, 0, 76, 0
2, 27977, Note_on_c, 0, 67, 0
2, 28020, Note_on_c, 0, 66, 72
2, 28020, Note_on_c, 0, 74, 93
2, 28035, Note_on_c, 0, 74, 0
2, 28037, Note_on_c, 0, 66, 0
2, 28080, Note_on_c, 0, 71, 93
2, 28080, Note_on_c, 0, 79, 113
2, 28091, Control_c, 0, 64, 127
2, 28140, Note_on_c, 0, 71, 0
2, 28140, Note_on_c, 0, 69, 68
2, 28140, Note_on_c, 0, 78, 85
2, 28144, Note_on_c, 0, 79, 0
2, 28144, Control_c, 0, 64, 0
2, 28196, Note_on_c, 0, 78, 0
2, 28196, Note_on_c, 0, 69, 0
2, 28200, Note_on_c, 0, 67, 89
2, 28200, Note_on_c, 0, 76, 93
2, 28215, Note_on_c, 0, 76, 0
2, 28219, Note_on_c, 0, 67, 0
2, 28260, Note_on_c, 0, 66, 68
2, 28260, Note_on_c, 0, 74, 107
2, 28280, Note_on_c, 0, 74, 0
2, 28280, Note_on_c, 0, 66, 0
2, 28320, Note_on_c, 0, 78, 107
2, 28320, Note_on_c, 0, 74, 107
2, 28354, Control_c, 0, 64, 127
2, 28425, Note_on_c, 0, 74, 0
2, 28440, Note_on_c, 0, 78, 0
2, 28500, Note_on_c, 0, 79, 98
2, 28500, Note_on_c, 0, 76, 93
2, 28510, Control_c, 0, 64, 0
2, 28523, Note_on_c, 0, 76, 0
2, 28530, Note_on_c, 0, 74, 89
2, 28530, Note_on_c, 0, 78, 89
2, 28531, Note_on_c, 0, 79, 0
2, 28531, Control_c, 0, 64, 127
2, 28545, Note_on_c, 0, 74, 0
2, 28552, Note_on_c, 0, 78, 0
2, 28560, Note_on_c, 0, 76, 107
2, 28560, Note_on_c, 0, 73, 107
2, 28562, Control_c, 0, 64, 0
2, 28575, Note_on_c, 0, 73, 0
2, 28583, Note_on_c, 0, 76, 0
2, 28620, Note_on_c, 0, 74, 107
2, 28620, Note_on_c, 0, 78, 98
2, 28635, Note_on_c, 0, 74, 0
2, 28642, Note_on_c, 0, 78, 0
2, 28680, Note_on_c, 0, 76, 102
2, 28680, Note_on_c, 0, 79, 98
2, 28694, Note_on_c, 0, 76, 0
2, 28700, Note_on_c, 0, 79, 0
2, 28740, Note_on_c, 0, 78, 102
2, 28740, Note_on_c, 0, 81, 102
2, 28754, Note_on_c, 0, 81, 0
2, 28756, Note_on_c, 0, 78, 0
2, 28800, Note_on_c, 0, 83, 113
2, 28800, Note_on_c, 0, 79, 119
2, 28826, Control_c, 0, 64, 127
2, 28853, Note_on_c, 0, 79, 0
2, 28855, Note_on_c, 0, 83, 0
2, 28860, Note_on_c, 0, 81, 89
2, 28860, Note_on_c, 0, 78, 89
2, 28880, Control_c, 0, 64, 0
2, 28908, Note_on_c, 0, 81, 0
2, 28909, Note_on_c, 0, 78, 0
2, 28920, Note_on_c, 0, 76, 93
2, 28920, Note_on_c, 0, 79, 98
2, 28940, Note_on_c, 0, 76, 0
2, 28942, Note_on_c, 0, 79, 0
2, 28980, Note_on_c, 0, 78, 93
2, 28980, Note_on_c, 0, 74, 102
2, 28995, Note_on_c, 0, 74, 0
2, 28999, Note_on_c, 0, 78, 0
2, 29040, Note_on_c, 0, 79, 113
2, 29040, Note_on_c, 0, 83, 113
2, 29056, Control_c, 0, 64, 127
2, 29092, Note_on_c, 0, 79, 0
2, 29095, Note_on_c, 0, 83, 0
2, 29100, Note_on_c, 0, 78, 80
2, 29100, Note_on_c, 0, 81, 89
2, 29129, Note_on_c, 0, 78, 0
2, 29132, Note_on_c, 0, 81, 0
2, 29145, Control_c, 0, 64, 0
2, 29160, Note_on_c, 0, 76, 57
2, 29160, Note_on_c, 0, 79, 85
2, 29176, Note_on_c, 0, 79, 0
2, 29176, Note_on_c, 0, 76, 0
2, 29220, Note_on_c, 0, 78, 93
2, 29220, Note_on_c, 0, 74, 102
2, 29237, Note_on_c, 0, 74, 0
2, 29240, Note_on_c, 0, 78, 0
2, 29280, Note_on_c, 0, 71, 98
2, 29294, Control_c, 0, 64, 127
2, 29298, Note_on_c, 0, 71, 0
2, 29310, Note_on_c, 0, 83, 93
2, 29338, Note_on_c, 0, 83, 0
2, 29340, Note_on_c, 0, 71, 93
2, 29354, Note_on_c, 0, 71, 0
2, 29370, Note_on_c, 0, 83, 93
2, 29389, Note_on_c, 0, 83, 0
2, 29392, Control_c, 0, 64, 0
2, 29400, Note_on_c, 0, 71, 107
2, 29400, Note_on_c, 0, 63, 89
2, 29424, Control_c, 0, 64, 127
2, 29425, Note_on_c, 0, 71, 0
2, 29430, Note_on_c, 0, 83, 107
2, 29454, Note_on_c, 0, 83, 0
2, 29460, Note_on_c, 0, 71, 102
2, 29478, Note_on_c, 0, 71, 0
2, 29490, Note_on_c, 0, 83, 93
2, 29491, Note_on_c, 0, 63, 0
2, 29509, Note_on_c, 0, 83, 0
2, 29512, Control_c, 0, 64, 0
2, 29520, Note_on_c, 0, 71, 107
2, 29520, Note_on_c, 0, 64, 107
2, 29520, Note_on_c, 0, 63, 62
2, 29524, Note_on_c, 0, 63, 0
2, 29538, Note_on_c, 0, 71, 0
2, 29538, Control_c, 0, 64, 127
2, 29550, Note_on_c, 0, 83, 89
2, 29573, Note_on_c, 0, 83, 0
2, 29580, Note_on_c, 0, 71, 102
2, 29595, Note_on_c, 0, 71, 0
2, 29603, Note_on_c, 0, 64, 0
2, 29610, Note_on_c, 0, 83, 72
2, 29630, Control_c, 0, 64, 0
2, 29632, Note_on_c, 0, 83, 0
2, 29640, Note_on_c, 0, 69, 127
2, 29640, Note_on_c, 0, 71, 107
2, 29652, Control_c, 0, 64, 127
2, 29660, Note_on_c, 0, 71, 0
2, 29670, Note_on_c, 0, 83, 89
2, 29693, Note_on_c, 0, 83, 0
2, 29700, Note_on_c, 0, 71, 98
2, 29717, Note_on_c, 0, 71, 0
2, 29730, Note_on_c, 0, 83, 85
2, 29746, Note_on_c, 0, 69, 0
2, 29749, Control_c, 0, 64, 0
2, 29751, Note_on_c, 0, 83, 0
2, 29760, Note_on_c, 0, 67, 119
2, 29760, Note_on_c, 0, 71, 102
2, 29776, Control_c, 0, 64, 127
2, 29780, Note_on_c, 0, 71, 0
2, 29790, Note_on_c, 0, 83, 93
2, 29812, Note_on_c, 0, 83, 0
2, 29820, Note_on_c, 0, 71, 93
2, 29838, Note_on_c, 0, 71, 0
2, 29850, Note_on_c, 0, 83, 80
2, 29867, Control_c, 0, 64, 0
2, 29870, Note_on_c, 0, 67, 0
2, 29874, Note_on_c, 0, 83, 0
2, 29880, Note_on_c, 0, 69, 119
2, 29880, Note_on_c, 0, 71, 107
2, 29892, Control_c, 0, 64, 127
2, 29902, Note_on_c, 0, 71, 0
2, 29910, Note_on_c, 0, 83, 93
2, 29932, Note_on_c, 0, 83, 0
2, 29940, Note_on_c, 0, 71, 80
2, 29961, Note_on_c, 0, 71, 0
2, 29970, Note_on_c, 0, 83, 93
2, 29992, Control_c, 0, 64, 0
2, 29994, Note_on_c, 0, 83, 0
2, 29995, Note_on_c, 0, 69, 0
2, 30000, Note_on_c, 0, 67, 113
2, 30000, Note_on_c, 0, 71, 107
2, 30019, Control_c, 0, 64, 127
2, 30021, Note_on_c, 0, 71, 0
2, 30030, Note_on_c, 0, 83, 89
2, 30052, Note_on_c, 0, 83, 0
2, 30060, Note_on_c, 0, 71, 76
2, 30083, Note_on_c, 0, 71, 0
2, 30090, Note_on_c, 0, 83, 93
2, 30114, Note_on_c, 0, 83, 0
2, 30114, Note_on_c, 0, 67, 0
2, 30114, Control_c, 0, 64, 0
2, 30120, Note_on_c, 0, 71, 113
2, 30120, Note_on_c, 0, 64, 98
2, 30139, Control_c, 0, 64, 127
2, 30143, Note_on_c, 0, 71, 0
2, 30150, Note_on_c, 0, 83, 76
2, 30174, Note_on_c, 0, 83, 0
2, 30180, Note_on_c, 0, 71, 89
2, 30202, Note_on_c, 0, 71, 0
2, 30202, Note_on_c, 0, 64, 0
2, 30210, Note_on_c, 0, 83, 93
2, 30227, Note_on_c, 0, 83, 0
2, 30240, Note_on_c, 0, 64, 98
2, 30240, Note_on_c, 0, 69, 113
2, 30240, Control_c, 0, 64, 0
2, 30262, Note_on_c, 0, 69, 0
2, 30268, Control_c, 0, 64, 127
2, 30270, Note_on_c, 0, 81, 76
2, 30296, Note_on_c, 0, 81, 0
2, 30300, Note_on_c, 0, 69, 80
2, 30322, Note_on_c, 0, 69, 0
2, 30330, Note_on_c, 0, 81, 93
2, 30352, Note_on_c, 0, 64, 0
2, 30352, Control_c, 0, 64, 0
2, 30353, Note_on_c, 0, 81, 0
2, 30360, Note_on_c, 0, 61, 93
2, 30360, Note_on_c, 0, 69, 113
2, 30377, Control_c, 0, 64, 127
2, 30381, Note_on_c, 0, 69, 0
2, 30390, Note_on_c, 0, 81, 93
2, 30416, Note_on_c, 0, 81, 0
2, 30420, Note_on_c, 0, 69, 98
2, 30440, Note_on_c, 0, 69, 0
2, 30450, Note_on_c, 0, 81, 93
2, 30471, Note_on_c, 0, 81, 0
2, 30474, Note_on_c, 0, 61, 0
2, 30475, Control_c, 0, 64, 0
2, 30480, Note_on_c, 0, 69, 107
2, 30480, Note_on_c, 0, 62, 107
2, 30499, Note_on_c, 0, 69, 0
2, 30499, Control_c, 0, 64, 127
2, 30510, Note_on_c, 0, 81, 89
2, 30533, Note_on_c, 0, 81, 0
2, 30540, Note_on_c, 0, 69, 93
2, 30542, Note_on_c, 0, 62, 0
2, 30555, Note_on_c, 0, 69, 0
2, 30570, Note_on_c, 0, 81, 93
2, 30594, Note_on_c, 0, 81, 0
2, 30598, Control_c, 0, 64, 0
2, 30600, Note_on_c, 0, 67, 113
2, 30600, Note_on_c, 0, 69, 107
2, 30620, Note_on_c, 0, 69, 0
2, 30621, Control_c, 0, 64, 127
2, 30630, Note_on_c, 0, 81, 89
2, 30653, Note_on_c, 0, 81, 0
2, 30660, Note_on_c, 0, 69, 89
2, 30679, Note_on_c, 0, 69, 0
2, 30690, Note_on_c, 0, 81, 85
2, 30704, Note_on_c, 0, 67, 0
2, 30712, Control_c, 0, 64, 0
2, 30715, Note_on_c, 0, 81, 0
2, 30720, Note_on_c, 0, 66, 113
2, 30720, Note_on_c, 0, 69, 107
2, 30737, Control_c, 0, 64, 127
2, 30741, Note_on_c, 0, 69, 0
2, 30750, Note_on_c, 0, 81, 80
2, 30770, Note_on_c, 0, 81, 0
2, 30780, Note_on_c, 0, 69, 76
2, 30798, Note_on_c, 0, 69, 0
2, 30810, Note_on_c, 0, 81, 93
2, 30833, Control_c, 0, 64, 0
2, 30834, Note_on_c, 0, 81, 0
2, 30838, Note_on_c, 0, 66, 0
2, 30840, Note_on_c, 0, 69, 102
2, 30840, Note_on_c, 0, 67, 107
2, 30856, Control_c, 0, 64, 127
2, 30862, Note_on_c, 0, 69, 0
2, 30870, Note_on_c, 0, 81, 89
2, 30893, Note_on_c, 0, 81, 0
2, 30900, Note_on_c, 0, 69, 93
2, 30919, Note_on_c, 0, 69, 0
2, 30930, Note_on_c, 0, 81, 80
2, 30945, Note_on_c, 0, 67, 0
2, 30954, Note_on_c, 0, 81, 0
2, 30957, Control_c, 0, 64, 0
2, 30960, Note_on_c, 0, 66, 119
2, 30960, Note_on_c, 0, 69, 98
2, 30976, Note_on_c, 0, 69, 0
2, 30981, Control_c, 0, 64, 127
2, 30990, Note_on_c, 0, 81, 89
2, 31012, Note_on_c, 0, 81, 0
2, 31020, Note_on_c, 0, 69, 93
2, 31034, Note_on_c, 0, 69, 0
2, 31050, Note_on_c, 0, 81, 80
2, 31072, Note_on_c, 0, 66, 0
2, 31077, Note_on_c, 0, 81, 0
2, 31077, Control_c, 0, 64, 0
2, 31080, Note_on_c, 0, 69, 107
2, 31080, Note_on_c, 0, 62, 102
2, 31099, Note_on_c, 0, 69, 0
2, 31100, Control_c, 0, 64, 127
2, 31110, Note_on_c, 0, 81, 89
2, 31137, Note_on_c, 0, 81, 0
2, 31140, Note_on_c, 0, 69, 107
2, 31156, Note_on_c, 0, 62, 0
2, 31158, Note_on_c, 0, 69, 0
2, 31170, Note_on_c, 0, 81, 89
2, 31191, Control_c, 0, 64, 0
2, 31192, Note_on_c, 0, 81, 0
2, 31200, Note_on_c, 0, 79, 113
2, 31200, Note_on_c, 0, 67, 113
2, 31218, Control_c, 0, 64, 127
2, 31267, Note_on_c, 0, 67, 0
2, 31267, Note_on_c, 0, 79, 0
2, 31290, Note_on_c, 0, 79, 113
2, 31290, Note_on_c, 0, 67, 113
2, 31307, Note_on_c, 0, 79, 0
2, 31308, Note_on_c, 0, 67, 0
2, 31319, Control_c, 0, 64, 0
2, 31320, Note_on_c, 0, 66, 113
2, 31320, Note_on_c, 0, 78, 113
2, 31350, Control_c, 0, 64, 127
2, 31385, Note_on_c, 0, 66, 0
2, 31388, Note_on_c, 0, 78, 0
2, 31410, Note_on_c, 0, 78, 102
2, 31410, Note_on_c, 0, 66, 107
2, 31428, Note_on_c, 0, 66, 0
2, 31429, Note_on_c, 0, 78, 0
2, 31439, Control_c, 0, 64, 0
2, 31440, Note_on_c, 0, 76, 107
2, 31440, Note_on_c, 0, 64, 107
2, 31469, Control_c, 0, 64, 127
2, 31499, Note_on_c, 0, 64, 0
2, 31507, Note_on_c, 0, 76, 0
2, 31530, Note_on_c, 0, 76, 102
2, 31530, Note_on_c, 0, 64, 107
2, 31546, Note_on_c, 0, 64, 0
2, 31546, Note_on_c, 0, 76, 0
2, 31556, Control_c, 0, 64, 0
2, 31560, Note_on_c, 0, 62, 107
2, 31560, Note_on_c, 0, 74, 113
2, 31583, Control_c, 0, 64, 127
2, 31603, Note_on_c, 0, 62, 0
2, 31612, Note_on_c, 0, 74, 0
2, 31650, Note_on_c, 0, 62, 72
2, 31650, Note_on_c, 0, 74, 98
2, 31669, Note_on_c, 0, 74, 0
2, 31678, Note_on_c, 0, 62, 0
2, 31680, Note_on_c, 0, 69, 102
2, 31680, Note_on_c, 0, 81, 119
2, 31682, Control_c, 0, 64, 0
2, 31710, Control_c, 0, 64, 127
2, 31721, Note_on_c, 0, 81, 0
2, 31732, Note_on_c, 0, 69, 0
2, 31740, Note_on_c, 0, 57, 107
2, 31793, Note_on_c, 0, 57, 0
2, 31800, Note_on_c, 0, 61, 89
2, 31800, Note_on_c, 0, 76, 102
2, 31800, Note_on_c, 0, 81, 107
2, 31800, Note_on_c, 0, 85, 107
2, 31805, Control_c, 0, 64, 0
2, 31831, Control_c, 0, 64, 127
2, 31860, Note_on_c, 0, 57, 102
2, 31862, Note_on_c, 0, 61, 0
2, 31871, Note_on_c, 0, 76, 0
2, 31873, Note_on_c, 0, 81, 0
2, 31876, Note_on_c, 0, 85, 0
2, 31901, Note_on_c, 0, 57, 0
2, 31920, Note_on_c, 0, 86, 113
2, 31920, Note_on_c, 0, 81, 119
2, 31920, Note_on_c, 0, 62, 98
2, 31920, Note_on_c, 0, 78, 119
2, 31926, Control_c, 0, 64, 0
2, 31947, Note_on_c, 0, 62, 0
2, 31948, Control_c, 0, 64, 127
2, 31950, Note_on_c, 0, 86, 0
2, 31954, Note_on_c, 0, 81, 0
2, 31961, Note_on_c, 0, 78, 0
2, 32040, Control_c, 0, 64, 0
2, 32040, Note_on_c, 0, 79, 119
2, 32040, Note_on_c, 0, 67, 107
2, 32066, Control_c, 0, 64, 127
2, 32067, Note_on_c, 0, 67, 0
2, 32068, Note_on_c, 0, 79, 0
2, 32070, Note_on_c, 0, 78, 89
2, 32070, Note_on_c, 0, 66, 80
2, 32093, Note_on_c, 0, 78, 0
2, 32099, Note_on_c, 0, 66, 0
2, 32100, Note_on_c, 0, 76, 107
2, 32100, Note_on_c, 0, 64, 98
2, 32107, Control_c, 0, 64, 0
2, 32122, Note_on_c, 0, 76, 0
2, 32128, Note_on_c, 0, 64, 0
2, 32128, Control_c, 0, 64, 127
2, 32130, Note_on_c, 0, 74, 113
2, 32130, Note_on_c, 0, 62, 89
2, 32150, Note_on_c, 0, 62, 0
2, 32151, Note_on_c, 0, 74, 0
2, 32151, Control_c, 0, 64, 0
2, 32160, Note_on_c, 0, 81, 113
2, 32160, Note_on_c, 0, 69, 93
2, 32178, Control_c, 0, 64, 127
2, 32195, Note_on_c, 0, 81, 0
2, 32211, Note_on_c, 0, 69, 0
2, 32220, Note_on_c, 0, 57, 102
2, 32273, Note_on_c, 0, 57, 0
2, 32276, Control_c, 0, 64, 0
2, 32280, Note_on_c, 0, 76, 102
2, 32280, Note_on_c, 0, 61, 93
2, 32280, Note_on_c, 0, 85, 107
2, 32280, Note_on_c, 0, 81, 107
2, 32302, Control_c, 0, 64, 127
2, 32339, Note_on_c, 0, 85, 0
2, 32339, Note_on_c, 0, 61, 0
2, 32340, Note_on_c, 0, 57, 93
2, 32341, Note_on_c, 0, 76, 0
2, 32341, Note_on_c, 0, 81, 0
2, 32379, Note_on_c, 0, 57, 0
2, 32394, Control_c, 0, 64, 0
2, 32400, Note_on_c, 0, 78, 107
2, 32400, Note_on_c, 0, 81, 119
2, 32400, Note_on_c, 0, 86, 113
2, 32400, Note_on_c, 0, 62, 113
2, 32420, Control_c, 0, 64, 127
2, 32421, Note_on_c, 0, 62, 0
2, 32431, Note_on_c, 0, 86, 0
2, 32431, Note_on_c, 0, 81, 0
2, 32440, Note_on_c, 0, 78, 0
2, 32513, Control_c, 0, 64, 0
2, 32520, Note_on_c, 0, 79, 113
2, 32520, Note_on_c, 0, 67, 102
2, 32540, Note_on_c, 0, 79, 0
2, 32544, Control_c, 0, 64, 127
2, 32548, Note_on_c, 0, 67, 0
2, 32550, Note_on_c, 0, 78, 107
2, 32550, Note_on_c, 0, 66, 89
2, 32571, Note_on_c, 0, 78, 0
2, 32576, Note_on_c, 0, 66, 0
2, 32580, Note_on_c, 0, 64, 93
2, 32580, Note_on_c, 0, 76, 102
2, 32599, Note_on_c, 0, 76, 0
2, 32601, Note_on_c, 0, 64, 0
2, 32610, Note_on_c, 0, 62, 76
2, 32610, Note_on_c, 0, 74, 107
2, 32629, Note_on_c, 0, 74, 0
2, 32631, Note_on_c, 0, 62, 0
2, 32637, Control_c, 0, 64, 0
2, 32640, Note_on_c, 0, 81, 107
2, 32640, Note_on_c, 0, 69, 113
2, 32666, Control_c, 0, 64, 127
2, 32672, Note_on_c, 0, 69, 0
2, 32676, Note_on_c, 0, 81, 0
2, 32754, Control_c, 0, 64, 0
2, 32760, Note_on_c, 0, 69, 107
2, 32760, Note_on_c, 0, 61, 119
2, 32760, Note_on_c, 0, 64, 113
2, 32760, Note_on_c, 0, 57, 107
2, 32783, Control_c, 0, 64, 127
2, 32807, Note_on_c, 0, 61, 0
2, 32809, Note_on_c, 0, 57, 0
2, 32812, Note_on_c, 0, 69, 0
2, 32814, Note_on_c, 0, 64, 0
2, 32870, Control_c, 0, 64, 0
2, 32880, Note_on_c, 0, 69, 107
2, 32880, Note_on_c, 0, 61, 119
2, 32880, Note_on_c, 0, 64, 113
2, 32880, Note_on_c, 0, 57, 98
2, 32896, Control_c, 0, 64, 127
2, 32909, Note_on_c, 0, 57, 0
2, 32909, Note_on_c, 0, 61, 0
2, 32910, Note_on_c, 0, 64, 0
2, 32912, Note_on_c, 0, 69, 0
2, 33011, Control_c, 0, 64, 0
2, 33120, Note_on_c, 0, 69, 85
2, 33120, Note_on_c, 0, 57, 93
2, 33136, Control_c, 0, 64, 127
2, 33293, Note_on_c, 0, 57, 0
2, 33299, Control_c, 0, 64, 0
2, 33300, Note_on_c, 0, 59, 68
2, 33300, Note_on_c, 0, 71, 85
2, 33301, Note_on_c, 0, 69, 0
2, 33322, Control_c, 0, 64, 127
2, 33330, Note_on_c, 0, 71, 0
2, 33330, Note_on_c, 0, 61, 72
2, 33330, Note_on_c, 0, 73, 62
2, 33334, Note_on_c, 0, 59, 0
2, 33343, Control_c, 0, 64, 0
2, 33357, Note_on_c, 0, 73, 0
2, 33360, Note_on_c, 0, 62, 85
2, 33360, Note_on_c, 0, 74, 72
2, 33363, Note_on_c, 0, 61, 0
2, 33387, Note_on_c, 0, 74, 0
2, 33388, Note_on_c, 0, 62, 0
2, 33420, Note_on_c, 0, 64, 89
2, 33420, Note_on_c, 0, 76, 89
2, 33433, Note_on_c, 0, 76, 0
2, 33434, Note_on_c, 0, 64, 0
2, 33480, Note_on_c, 0, 78, 76
2, 33480, Note_on_c, 0, 66, 72
2, 33494, Note_on_c, 0, 66, 0
2, 33495, Note_on_c, 0, 78, 0
2, 33540, Note_on_c, 0, 66, 102
2, 33540, Note_on_c, 0, 78, 93
2, 33551, Note_on_c, 0, 66, 0
2, 33553, Note_on_c, 0, 78, 0
2, 33600, Note_on_c, 0, 78, 85
2, 33600, Note_on_c, 0, 66, 102
2, 33614, Control_c, 0, 64, 127
2, 33659, Note_on_c, 0, 78, 0
2, 33660, Note_on_c, 0, 66, 0
2, 33660, Note_on_c, 0, 79, 80
2, 33660, Note_on_c, 0, 67, 68
2, 33666, Control_c, 0, 64, 0
2, 33719, Note_on_c, 0, 67, 0
2, 33720, Note_on_c, 0, 64, 68
2, 33720, Note_on_c, 0, 76, 89
2, 33728, Note_on_c, 0, 79, 0
2, 33735, Note_on_c, 0, 76, 0
2, 33740, Note_on_c, 0, 64, 0
2, 33840, Note_on_c, 0, 66, 93
2, 33840, Note_on_c, 0, 78, 80
2, 33862, Control_c, 0, 64, 127
2, 33896, Note_on_c, 0, 66, 0
2, 33897, Note_on_c, 0, 78, 0
2, 33900, Note_on_c, 0, 79, 85
2, 33900, Note_on_c, 0, 67, 64
2, 33914, Control_c, 0, 64, 0
2, 33960, Note_on_c, 0, 64, 76
2, 33960, Note_on_c, 0, 76, 93
2, 33961, Note_on_c, 0, 67, 0
2, 33966, Note_on_c, 0, 79, 0
2, 33977, Note_on_c, 0, 76, 0
2, 33982, Note_on_c, 0, 64, 0
2, 34080, Note_on_c, 0, 69, 93
2, 34080, Note_on_c, 0, 57, 89
2, 34104, Control_c, 0, 64, 127
2, 34246, Note_on_c, 0, 57, 0
2, 34254, Note_on_c, 0, 69, 0
2, 34260, Note_on_c, 0, 59, 80
2, 34260, Note_on_c, 0, 71, 85
2, 34279, Control_c, 0, 64, 0
2, 34290, Note_on_c, 0, 61, 72
2, 34290, Note_on_c, 0, 73, 62
2, 34291, Note_on_c, 0, 71, 0
2, 34291, Note_on_c, 0, 59, 0
2, 34311, Note_on_c, 0, 73, 0
2, 34319, Note_on_c, 0, 61, 0
2, 34320, Note_on_c, 0, 74, 76
2, 34320, Note_on_c, 0, 62, 89
2, 34337, Note_on_c, 0, 62, 0
2, 34337, Note_on_c, 0, 74, 0
2, 34380, Note_on_c, 0, 76, 89
2, 34380, Note_on_c, 0, 64, 85
2, 34394, Note_on_c, 0, 76, 0
2, 34395, Note_on_c, 0, 64, 0
2, 34440, Note_on_c, 0, 78, 76
2, 34440, Note_on_c, 0, 66, 80
2, 34453, Note_on_c, 0, 66, 0
2, 34455, Note_on_c, 0, 78, 0
2, 34500, Note_on_c, 0, 66, 93
2, 34500, Note_on_c, 0, 78, 85
2, 34510, Note_on_c, 0, 66, 0
2, 34513, Note_on_c, 0, 78, 0
2, 34560, Note_on_c, 0, 78, 93
2, 34560, Note_on_c, 0, 66, 93
2, 34576, Control_c, 0, 64, 127
2, 34615, Note_on_c, 0, 78, 0
2, 34620, Note_on_c, 0, 79, 76
2, 34620, Note_on_c, 0, 67, 76
2, 34621, Note_on_c, 0, 66, 0
2, 34623, Control_c, 0, 64, 0
2, 34672, Note_on_c, 0, 67, 0
2, 34678, Note_on_c, 0, 79, 0
2, 34680, Note_on_c, 0, 64, 72
2, 34680, Note_on_c, 0, 76, 89
2, 34694, Note_on_c, 0, 76, 0
2, 34699, Note_on_c, 0, 64, 0
2, 34740, Note_on_c, 0, 76, 93
2, 34740, Note_on_c, 0, 64, 89
2, 34755, Note_on_c, 0, 64, 0
2, 34756, Note_on_c, 0, 76, 0
2, 34800, Note_on_c, 0, 66, 85
2, 34800, Note_on_c, 0, 78, 93
2, 34825, Control_c, 0, 64, 127
2, 34853, Note_on_c, 0, 78, 0
2, 34859, Note_on_c, 0, 66, 0
2, 34860, Note_on_c, 0, 79, 80
2, 34860, Note_on_c, 0, 67, 80
2, 34875, Control_c, 0, 64, 0
2, 34880, Note_on_c, 0, 79, 0
2, 34881, Note_on_c, 0, 67, 0
2, 34920, Note_on_c, 0, 64, 76
2, 34920, Note_on_c, 0, 76, 89
2, 34936, Note_on_c, 0, 76, 0
2, 34937, Note_on_c, 0, 64, 0
2, 34980, Note_on_c, 0, 76, 85
2, 34980, Note_on_c, 0, 64, 89
2, 34992, Note_on_c, 0, 64, 0
2, 34993, Note_on_c, 0, 76, 0
2, 35040, Note_on_c, 0, 81, 119
2, 35040, Note_on_c, 0, 69, 113
2, 35040, Note_on_c, 0, 62, 93
2, 35040, Control_c, 0, 64, 127
2, 35057, Control_c, 0, 64, 127
2, 35069, Note_on_c, 0, 62, 0
2, 35070, Note_on_c, 0, 69, 89
2, 35074, Note_on_c, 0, 69, 0
2, 35081, Note_on_c, 0, 81, 0
2, 35099, Note_on_c, 0, 69, 0
2, 35100, Note_on_c, 0, 66, 76
2, 35129, Note_on_c, 0, 66, 0
2, 35130, Note_on_c, 0, 69, 80
2, 35159, Note_on_c, 0, 69, 0
2, 35160, Note_on_c, 0, 74, 113
2, 35160, Note_on_c, 0, 86, 113
2, 35160, Note_on_c, 0, 62, 85
2, 35169, Control_c, 0, 64, 0
2, 35189, Note_on_c, 0, 62, 0
2, 35190, Note_on_c, 0, 69, 76
2, 35193, Note_on_c, 0, 86, 0
2, 35194, Control_c, 0, 64, 127
2, 35196, Note_on_c, 0, 74, 0
2, 35219, Note_on_c, 0, 69, 0
2, 35220, Note_on_c, 0, 66, 59
2, 35249, Note_on_c, 0, 66, 0
2, 35250, Note_on_c, 0, 69, 68
2, 35274, Control_c, 0, 64, 0
2, 35279, Note_on_c, 0, 69, 0
2, 35280, Note_on_c, 0, 69, 107
2, 35280, Note_on_c, 0, 81, 93
2, 35280, Note_on_c, 0, 62, 80
2, 35298, Control_c, 0, 64, 127
2, 35299, Note_on_c, 0, 69, 0
2, 35309, Note_on_c, 0, 62, 0
2, 35310, Note_on_c, 0, 69, 76
2, 35311, Note_on_c, 0, 81, 0
2, 35339, Note_on_c, 0, 69, 0
2, 35340, Note_on_c, 0, 66, 72
2, 35369, Note_on_c, 0, 66, 0
2, 35370, Note_on_c, 0, 69, 85
2, 35394, Control_c, 0, 64, 0
2, 35399, Note_on_c, 0, 69, 0
2, 35400, Note_on_c, 0, 86, 102
2, 35400, Note_on_c, 0, 74, 113
2, 35400, Note_on_c, 0, 62, 89
2, 35417, Control_c, 0, 64, 127
2, 35429, Note_on_c, 0, 62, 0
2, 35430, Note_on_c, 0, 69, 76
2, 35435, Note_on_c, 0, 86, 0
2, 35438, Note_on_c, 0, 74, 0
2, 35459, Note_on_c, 0, 69, 0
2, 35460, Note_on_c, 0, 66, 64
2, 35489, Note_on_c, 0, 66, 0
2, 35490, Note_on_c, 0, 69, 72
2, 35504, Control_c, 0, 64, 0
2, 35519, Note_on_c, 0, 69, 0
2, 35520, Note_on_c, 0, 71, 107
2, 35520, Note_on_c, 0, 83, 113
2, 35520, Control_c, 0, 64, 0
2, 35520, Note_on_c, 0, 62, 89
2, 35520, Control_c, 0, 64, 127
2, 35530, Control_c, 0, 64, 127
2, 35549, Note_on_c, 0, 62, 0
2, 35549, Note_on_c, 0, 71, 0
2, 35550, Note_on_c, 0, 67, 72
2, 35554, Note_on_c, 0, 83, 0
2, 35579, Note_on_c, 0, 67, 0
2, 35580, Note_on_c, 0, 71, 76
2, 35609, Note_on_c, 0, 71, 0
2, 35610, Note_on_c, 0, 67, 64
2, 35628, Control_c, 0, 64, 0
2, 35639, Note_on_c, 0, 67, 0
2, 35640, Note_on_c, 0, 74, 113
2, 35640, Note_on_c, 0, 86, 119
2, 35640, Control_c, 0, 64, 0
2, 35640, Note_on_c, 0, 62, 93
2, 35640, Control_c, 0, 64, 127
2, 35654, Control_c, 0, 64, 127
2, 35669, Note_on_c, 0, 62, 0
2, 35670, Note_on_c, 0, 86, 0
2, 35670, Note_on_c, 0, 67, 64
2, 35672, Note_on_c, 0, 74, 0
2, 35699, Note_on_c, 0, 67, 0
2, 35700, Note_on_c, 0, 71, 76
2, 35729, Note_on_c, 0, 71, 0
2, 35730, Note_on_c, 0, 67, 72
2, 35756, Control_c, 0, 64, 0
2, 35759, Note_on_c, 0, 67, 0
2, 35760, Note_on_c, 0, 71, 107
2, 35760, Note_on_c, 0, 83, 98
2, 35760, Note_on_c, 0, 62, 93
2, 35760, Control_c, 0, 64, 0
2, 35760, Control_c, 0, 64, 127
2, 35780, Control_c, 0, 64, 127
2, 35788, Note_on_c, 0, 71, 0
2, 35789, Note_on_c, 0, 62, 0
2, 35790, Note_on_c, 0, 67, 55
2, 35796, Note_on_c, 0, 83, 0
2, 35819, Note_on_c, 0, 67, 0
2, 35820, Note_on_c, 0, 71, 80
2, 35849, Note_on_c, 0, 71, 0
2, 35850, Note_on_c, 0, 67, 64
2, 35872, Control_c, 0, 64, 0
2, 35879, Note_on_c, 0, 67, 0
2, 35880, Note_on_c, 0, 74, 113
2, 35880, Note_on_c, 0, 86, 113
2, 35880, Control_c, 0, 64, 0
2, 35880, Note_on_c, 0, 62, 93
2, 35880, Control_c, 0, 64, 127
2, 35893, Control_c, 0, 64, 127
2, 35909, Note_on_c, 0, 62, 0
2, 35910, Note_on_c, 0, 67, 59
2, 35935, Note_on_c, 0, 86, 0
2, 35939, Note_on_c, 0, 67, 0
2, 35940, Note_on_c, 0, 71, 85
2, 35948, Note_on_c, 0, 74, 0
2, 35969, Note_on_c, 0, 71, 0
2, 35970, Note_on_c, 0, 67, 72
2, 35997, Control_c, 0, 64, 0
2, 35999, Note_on_c, 0, 67, 0
2, 36000, Control_c, 0, 64, 0
2, 36000, Note_on_c, 0, 62, 98
2, 36000, Control_c, 0, 64, 127
2, 36000, Note_on_c, 0, 78, 102
2, 36014, Note_on_c, 0, 78, 0
2, 36015, Note_on_c, 0, 76, 98
2, 36029, Note_on_c, 0, 76, 0
2, 36029, Note_on_c, 0, 62, 0
2, 36030, Note_on_c, 0, 69, 80
2, 36030, Note_on_c, 0, 74, 89
2, 36059, Note_on_c, 0, 69, 0
2, 36060, Note_on_c, 0, 66, 72
2, 36089, Note_on_c, 0, 66, 0
2, 36090, Note_on_c, 0, 69, 76
2, 36119, Note_on_c, 0, 69, 0
2, 36119, Note_on_c, 0, 74, 0
2, 36120, Note_on_c, 0, 62, 98
2, 36120, Control_c, 0, 64, 0
2, 36120, Control_c, 0, 64, 127
2, 36120, Note_on_c, 0, 81, 98
2, 36134, Note_on_c, 0, 81, 0
2, 36135, Note_on_c, 0, 78, 102
2, 36149, Note_on_c, 0, 78, 0
2, 36149, Note_on_c, 0, 62, 0
2, 36150, Note_on_c, 0, 69, 80
2, 36150, Note_on_c, 0, 74, 102
2, 36179, Note_on_c, 0, 69, 0
2, 36180, Note_on_c, 0, 66, 60
2, 36209, Note_on_c, 0, 66, 0
2, 36210, Note_on_c, 0, 69, 76
2, 36239, Note_on_c, 0, 69, 0
2, 36239, Note_on_c, 0, 74, 0
2, 36240, Note_on_c, 0, 61, 80
2, 36240, Control_c, 0, 64, 0
2, 36240, Note_on_c, 0, 78, 93
2, 36254, Note_on_c, 0, 78, 0
2, 36255, Note_on_c, 0, 76, 89
2, 36269, Note_on_c, 0, 76, 0
2, 36269, Note_on_c, 0, 61, 0
2, 36270, Control_c, 0, 64, 127
2, 36270, Note_on_c, 0, 69, 76
2, 36270, Note_on_c, 0, 78, 89
2, 36284, Note_on_c, 0, 78, 0
2, 36285, Note_on_c, 0, 76, 80
2, 36299, Note_on_c, 0, 76, 0
2, 36299, Note_on_c, 0, 69, 0
2, 36300, Note_on_c, 0, 64, 80
2, 36300, Note_on_c, 0, 78, 85
2, 36314, Note_on_c, 0, 78, 0
2, 36315, Note_on_c, 0, 76, 76
2, 36329, Note_on_c, 0, 76, 0
2, 36329, Note_on_c, 0, 64, 0
2, 36330, Note_on_c, 0, 69, 76
2, 36330, Note_on_c, 0, 78, 72
2, 36344, Note_on_c, 0, 78, 0
2, 36345, Note_on_c, 0, 76, 93
2, 36359, Note_on_c, 0, 76, 0
2, 36359, Note_on_c, 0, 69, 0
2, 36360, Control_c, 0, 64, 0
2, 36360, Note_on_c, 0, 61, 72
2, 36360, Control_c, 0, 64, 127
2, 36360, Note_on_c, 0, 78, 85
2, 36374, Note_on_c, 0, 78, 0
2, 36375, Note_on_c, 0, 76, 93
2, 36389, Note_on_c, 0, 76, 0
2, 36389, Note_on_c, 0, 61, 0
2, 36390, Note_on_c, 0, 69, 64
2, 36390, Note_on_c, 0, 78, 85
2, 36404, Note_on_c, 0, 78, 0
2, 36405, Note_on_c, 0, 76, 93
2, 36419, Note_on_c, 0, 76, 0
2, 36419, Note_on_c, 0, 69, 0
2, 36420, Note_on_c, 0, 64, 68
2, 36420, Note_on_c, 0, 74, 93
2, 36449, Note_on_c, 0, 74, 0
2, 36449, Note_on_c, 0, 64, 0
2, 36450, Note_on_c, 0, 69, 76
2, 36450, Note_on_c, 0, 76, 89
2, 36479, Note_on_c, 0, 76, 0
2, 36479, Note_on_c, 0, 69, 0
2, 36480, Note_on_c, 0, 74, 113
2, 36480, Note_on_c, 0, 62, 102
2, 36480, Control_c, 0, 64, 0
2, 36494, Control_c, 0, 64, 127
2, 36537, Control_c, 0, 64, 0
2, 36540, Note_on_c, 0, 74, 0
2, 36540, Note_on_c, 0, 66, 85
2, 36540, Note_on_c, 0, 78, 113
2, 36542, Note_on_c, 0, 62, 0
2, 36599, Note_on_c, 0, 78, 0
2, 36600, Note_on_c, 0, 81, 98
2, 36600, Note_on_c, 0, 69, 93
2, 36603, Note_on_c, 0, 66, 0
2, 36608, Control_c, 0, 64, 127
2, 36639, Control_c, 0, 64, 0
2, 36653, Note_on_c, 0, 81, 0
2, 36656, Note_on_c, 0, 69, 0
2, 36660, Note_on_c, 0, 66, 89
2, 36660, Note_on_c, 0, 78, 113
2, 36718, Note_on_c, 0, 78, 0
2, 36720, Note_on_c, 0, 74, 119
2, 36720, Note_on_c, 0, 62, 107
2, 36721, Note_on_c, 0, 66, 0
2, 36729, Control_c, 0, 64, 127
2, 36750, Note_on_c, 0, 62, 0
2, 36752, Note_on_c, 0, 74, 0
2, 36825, Control_c, 0, 64, 0
2, 36960, Note_on_c, 0, 69, 76
2, 36960, Note_on_c, 0, 57, 72
2, 36975, Control_c, 0, 64, 127
2, 37136, Note_on_c, 0, 57, 0
2, 37140, Note_on_c, 0, 59, 72
2, 37140, Note_on_c, 0, 71, 80
2, 37149, Note_on_c, 0, 69, 0
2, 37161, Control_c, 0, 64, 0
2, 37170, Note_on_c, 0, 71, 0
2, 37170, Note_on_c, 0, 61, 60
2, 37170, Note_on_c, 0, 73, 59
2, 37175, Note_on_c, 0, 59, 0
2, 37195, Note_on_c, 0, 73, 0
2, 37200, Note_on_c, 0, 61, 0
2, 37200, Note_on_c, 0, 74, 76
2, 37200, Note_on_c, 0, 62, 89
2, 37218, Note_on_c, 0, 74, 0
2, 37219, Note_on_c, 0, 62, 0
2, 37260, Note_on_c, 0, 76, 85
2, 37260, Note_on_c, 0, 64, 89
2, 37272, Note_on_c, 0, 76, 0
2, 37274, Note_on_c, 0, 64, 0
2, 37320, Note_on_c, 0, 77, 76
2, 37320, Note_on_c, 0, 65, 85
2, 37331, Note_on_c, 0, 65, 0
2, 37333, Note_on_c, 0, 77, 0
2, 37380, Note_on_c, 0, 77, 89
2, 37380, Note_on_c, 0, 65, 80
2, 37391, Note_on_c, 0, 65, 0
2, 37392, Note_on_c, 0, 77, 0
2, 37440, Note_on_c, 0, 77, 98
2, 37440, Note_on_c, 0, 65, 93
2, 37464, Control_c, 0, 64, 127
2, 37497, Note_on_c, 0, 77, 0
2, 37499, Note_on_c, 0, 65, 0
2, 37500, Note_on_c, 0, 79, 80
2, 37500, Note_on_c, 0, 67, 76
2, 37511, Control_c, 0, 64, 0
2, 37560, Note_on_c, 0, 64, 85
2, 37560, Note_on_c, 0, 76, 93
2, 37561, Note_on_c, 0, 67, 0
2, 37570, Note_on_c, 0, 79, 0
2, 37577, Note_on_c, 0, 76, 0
2, 37580, Note_on_c, 0, 64, 0
2, 37680, Note_on_c, 0, 65, 89
2, 37680, Note_on_c, 0, 77, 89
2, 37702, Control_c, 0, 64, 127
2, 37740, Note_on_c, 0, 65, 0
2, 37740, Note_on_c, 0, 79, 76
2, 37740, Note_on_c, 0, 67, 76
2, 37743, Note_on_c, 0, 77, 0
2, 37757, Control_c, 0, 64, 0
2, 37797, Note_on_c, 0, 67, 0
2, 37800, Note_on_c, 0, 64, 76
2, 37800, Note_on_c, 0, 76, 85
2, 37802, Note_on_c, 0, 79, 0
2, 37815, Note_on_c, 0, 76, 0
2, 37818, Note_on_c, 0, 64, 0
2, 37920, Note_on_c, 0, 69, 89
2, 37920, Note_on_c, 0, 57, 93
2, 37948, Control_c, 0, 64, 127
2, 38096, Note_on_c, 0, 57, 0
2, 38100, Note_on_c, 0, 71, 89
2, 38100, Note_on_c, 0, 59, 80
2, 38102, Note_on_c, 0, 69, 0
2, 38119, Control_c, 0, 64, 0
2, 38130, Note_on_c, 0, 61, 68
2, 38130, Note_on_c, 0, 73, 72
2, 38131, Note_on_c, 0, 59, 0
2, 38133, Note_on_c, 0, 71, 0
2, 38150, Note_on_c, 0, 73, 0
2, 38156, Note_on_c, 0, 61, 0
2, 38160, Note_on_c, 0, 62, 93
2, 38160, Note_on_c, 0, 74, 85
2, 38177, Note_on_c, 0, 74, 0
2, 38177, Note_on_c, 0, 62, 0
2, 38220, Note_on_c, 0, 76, 85
2, 38220, Note_on_c, 0, 64, 80
2, 38233, Note_on_c, 0, 64, 0
2, 38233, Note_on_c, 0, 76, 0
2, 38280, Note_on_c, 0, 65, 93
2, 38280, Note_on_c, 0, 77, 93
2, 38291, Note_on_c, 0, 65, 0
2, 38294, Note_on_c, 0, 77, 0
2, 38340, Note_on_c, 0, 77, 98
2, 38340, Note_on_c, 0, 65, 98
2, 38351, Note_on_c, 0, 65, 0
2, 38353, Note_on_c, 0, 77, 0
2, 38400, Note_on_c, 0, 77, 102
2, 38400, Note_on_c, 0, 65, 93
2, 38415, Control_c, 0, 64, 127
2, 38456, Control_c, 0, 64, 0
2, 38460, Note_on_c, 0, 79, 76
2, 38460, Note_on_c, 0, 67, 72
2, 38461, Note_on_c, 0, 65, 0
2, 38461, Note_on_c, 0, 77, 0
2, 38516, Note_on_c, 0, 79, 0
2, 38516, Note_on_c, 0, 67, 0
2, 38520, Note_on_c, 0, 64, 85
2, 38520, Note_on_c, 0, 76, 89
2, 38531, Note_on_c, 0, 76, 0
2, 38533, Note_on_c, 0, 64, 0
2, 38580, Note_on_c, 0, 76, 93
2, 38580, Note_on_c, 0, 64, 93
2, 38592, Note_on_c, 0, 64, 0
2, 38593, Note_on_c, 0, 76, 0
2, 38640, Note_on_c, 0, 65, 93
2, 38640, Note_on_c, 0, 77, 98
2, 38662, Control_c, 0, 64, 127
2, 38694, Note_on_c, 0, 77, 0
2, 38700, Note_on_c, 0, 65, 0
2, 38700, Note_on_c, 0, 79, 85
2, 38700, Note_on_c, 0, 67, 76
2, 38702, Control_c, 0, 64, 0
2, 38747, Note_on_c, 0, 67, 0
2, 38748, Note_on_c, 0, 79, 0
2, 38760, Note_on_c, 0, 64, 89
2, 38760, Note_on_c, 0, 76, 89
2, 38773, Note_on_c, 0, 64, 0
2, 38778, Note_on_c, 0, 76, 0
2, 38820, Note_on_c, 0, 76, 85
2, 38820, Note_on_c, 0, 64, 93
2, 38831, Note_on_c, 0, 64, 0
2, 38833, Note_on_c, 0, 76, 0
2, 38880, Note_on_c, 0, 81, 119
2, 38880, Note_on_c, 0, 69, 107
2, 38880, Note_on_c, 0, 62, 93
2, 38880, Control_c, 0, 64, 127
2, 38909, Note_on_c, 0, 62, 0
2, 38909, Control_c, 0, 64, 127
2, 38910, Note_on_c, 0, 69, 68
2, 38926, Note_on_c, 0, 69, 0
2, 38932, Note_on_c, 0, 81, 0
2, 38939, Note_on_c, 0, 69, 0
2, 38940, Note_on_c, 0, 66, 62
2, 38969, Note_on_c, 0, 66, 0
2, 38970, Note_on_c, 0, 69, 76
2, 38996, Control_c, 0, 64, 0
2, 38999, Note_on_c, 0, 69, 0
2, 39000, Note_on_c, 0, 74, 107
2, 39000, Note_on_c, 0, 86, 119
2, 39000, Note_on_c, 0, 62, 85
2, 39000, Control_c, 0, 64, 0
2, 39000, Control_c, 0, 64, 127
2, 39023, Control_c, 0, 64, 127
2, 39029, Note_on_c, 0, 62, 0
2, 39030, Note_on_c, 0, 69, 76
2, 39032, Note_on_c, 0, 86, 0
2, 39036, Note_on_c, 0, 74, 0
2, 39059, Note_on_c, 0, 69, 0
2, 39060, Note_on_c, 0, 66, 62
2, 39089, Note_on_c, 0, 66, 0
2, 39090, Note_on_c, 0, 69, 64
2, 39108, Control_c, 0, 64, 0
2, 39119, Note_on_c, 0, 69, 0
2, 39120, Note_on_c, 0, 81, 98
2, 39120, Note_on_c, 0, 69, 113
2, 39120, Control_c, 0, 64, 0
2, 39120, Note_on_c, 0, 62, 76
2, 39120, Control_c, 0, 64, 127
2, 39132, Control_c, 0, 64, 127
2, 39141, Note_on_c, 0, 69, 0
2, 39148, Note_on_c, 0, 81, 0
2, 39149, Note_on_c, 0, 62, 0
2, 39150, Note_on_c, 0, 69, 76
2, 39179, Note_on_c, 0, 69, 0
2, 39180, Note_on_c, 0, 66, 68
2, 39209, Note_on_c, 0, 66, 0
2, 39210, Note_on_c, 0, 69, 72
2, 39223, Control_c, 0, 64, 0
2, 39239, Note_on_c, 0, 69, 0
2, 39240, Note_on_c, 0, 74, 107
2, 39240, Note_on_c, 0, 86, 107
2, 39240, Control_c, 0, 64, 0
2, 39240, Note_on_c, 0, 62, 89
2, 39240, Control_c, 0, 64, 127
2, 39248, Control_c, 0, 64, 127
2, 39269, Note_on_c, 0, 62, 0
2, 39269, Note_on_c, 0, 86, 0
2, 39270, Note_on_c, 0, 69, 55
2, 39272, Note_on_c, 0, 74, 0
2, 39299, Note_on_c, 0, 69, 0
2, 39300, Note_on_c, 0, 66, 64
2, 39329, Note_on_c, 0, 66, 0
2, 39330, Note_on_c, 0, 69, 72
2, 39346, Control_c, 0, 64, 0
2, 39359, Note_on_c, 0, 69, 0
2, 39360, Note_on_c, 0, 83, 98
2, 39360, Note_on_c, 0, 71, 113
2, 39360, Control_c, 0, 64, 0
2, 39360, Note_on_c, 0, 62, 80
2, 39360, Control_c, 0, 64, 127
2, 39371, Control_c, 0, 64, 127
2, 39385, Note_on_c, 0, 71, 0
2, 39389, Note_on_c, 0, 62, 0
2, 39390, Note_on_c, 0, 83, 0
2, 39390, Note_on_c, 0, 67, 62
2, 39419, Note_on_c, 0, 67, 0
2, 39420, Note_on_c, 0, 71, 76
2, 39449, Note_on_c, 0, 71, 0
2, 39450, Note_on_c, 0, 67, 68
2, 39473, Control_c, 0, 64, 0
2, 39479, Note_on_c, 0, 67, 0
2, 39480, Note_on_c, 0, 74, 107
2, 39480, Note_on_c, 0, 86, 107
2, 39480, Control_c, 0, 64, 0
2, 39480, Note_on_c, 0, 62, 89
2, 39480, Control_c, 0, 64, 127
2, 39480, Note_on_c, 0, 67, 68
2, 39497, Control_c, 0, 64, 127
2, 39507, Note_on_c, 0, 86, 0
2, 39509, Note_on_c, 0, 74, 0
2, 39509, Note_on_c, 0, 62, 0
2, 39509, Note_on_c, 0, 67, 0
2, 39510, Note_on_c, 0, 71, 76
2, 39539, Note_on_c, 0, 71, 0
2, 39540, Note_on_c, 0, 67, 64
2, 39569, Note_on_c, 0, 67, 0
2, 39570, Control_c, 0, 64, 0
2, 39570, Note_on_c, 0, 62, 89
2, 39570, Control_c, 0, 64, 127
2, 39596, Control_c, 0, 64, 0
2, 39599, Note_on_c, 0, 62, 0
2, 39600, Note_on_c, 0, 71, 107
2, 39600, Note_on_c, 0, 83, 102
2, 39600, Note_on_c, 0, 67, 60
2, 39621, Control_c, 0, 64, 127
2, 39628, Note_on_c, 0, 71, 0
2, 39629, Note_on_c, 0, 67, 0
2, 39630, Note_on_c, 0, 71, 64
2, 39630, Note_on_c, 0, 67, 80
2, 39631, Note_on_c, 0, 83, 0
2, 39659, Note_on_c, 0, 67, 0
2, 39659, Note_on_c, 0, 71, 0
2, 39660, Control_c, 0, 64, 0
2, 39660, Note_on_c, 0, 62, 85
2, 39660, Control_c, 0, 64, 127
2, 39689, Note_on_c, 0, 62, 0
2, 39690, Note_on_c, 0, 67, 64
2, 39705, Control_c, 0, 64, 0
2, 39719, Note_on_c, 0, 67, 0
2, 39720, Note_on_c, 0, 74, 107
2, 39720, Note_on_c, 0, 86, 113
2, 39720, Note_on_c, 0, 71, 64
2, 39731, Control_c, 0, 64, 127
2, 39744, Note_on_c, 0, 74, 0
2, 39746, Note_on_c, 0, 86, 0
2, 39749, Note_on_c, 0, 71, 0
2, 39750, Note_on_c, 0, 67, 76
2, 39779, Note_on_c, 0, 67, 0
2, 39780, Control_c, 0, 64, 0
2, 39780, Note_on_c, 0, 62, 80
2, 39780, Control_c, 0, 64, 127
2, 39809, Note_on_c, 0, 62, 0
2, 39810, Note_on_c, 0, 69, 76
2, 39831, Control_c, 0, 64, 0
2, 39839, Note_on_c, 0, 69, 0
2, 39840, Note_on_c, 0, 62, 93
2, 39840, Control_c, 0, 64, 127
2, 39840, Note_on_c, 0, 78, 93
2, 39854, Note_on_c, 0, 78, 0
2, 39855, Control_c, 0, 64, 127
2, 39855, Note_on_c, 0, 76, 98
2, 39869, Note_on_c, 0, 76, 0
2, 39869, Note_on_c, 0, 62, 0
2, 39870, Note_on_c, 0, 69, 80
2, 39870, Note_on_c, 0, 74, 93
2, 39899, Note_on_c, 0, 69, 0
2, 39900, Control_c, 0, 64, 0
2, 39900, Control_c, 0, 64, 127
2, 39900, Note_on_c, 0, 66, 60
2, 39912, Control_c, 0, 64, 0
2, 39929, Note_on_c, 0, 66, 0
2, 39930, Note_on_c, 0, 69, 68
2, 39932, Control_c, 0, 64, 127
2, 39954, Control_c, 0, 64, 0
2, 39959, Note_on_c, 0, 69, 0
2, 39959, Note_on_c, 0, 74, 0
2, 39960, Note_on_c, 0, 62, 85
2, 39960, Note_on_c, 0, 81, 93
2, 39973, Control_c, 0, 64, 127
2, 39974, Note_on_c, 0, 81, 0
2, 39975, Note_on_c, 0, 78, 80
2, 39989, Note_on_c, 0, 78, 0
2, 39989, Note_on_c, 0, 62, 0
2, 39990, Note_on_c, 0, 69, 76
2, 39990, Note_on_c, 0, 74, 89
2, 40019, Note_on_c, 0, 69, 0
2, 40020, Control_c, 0, 64, 0
2, 40020, Control_c, 0, 64, 127
2, 40020, Note_on_c, 0, 66, 76
2, 40049, Note_on_c, 0, 66, 0
2, 40050, Note_on_c, 0, 69, 60
2, 40075, Control_c, 0, 64, 0
2, 40079, Note_on_c, 0, 69, 0
2, 40079, Note_on_c, 0, 74, 0
2, 40080, Note_on_c, 0, 61, 80
2, 40080, Control_c, 0, 64, 0
2, 40080, Control_c, 0, 64, 127
2, 40080, Note_on_c, 0, 78, 85
2, 40094, Note_on_c, 0, 78, 0
2, 40095, Note_on_c, 0, 76, 76
2, 40103, Control_c, 0, 64, 127
2, 40109, Note_on_c, 0, 76, 0
2, 40109, Note_on_c, 0, 61, 0
2, 40110, Note_on_c, 0, 69, 62
2, 40110, Note_on_c, 0, 78, 89
2, 40124, Note_on_c, 0, 78, 0
2, 40125, Note_on_c, 0, 76, 89
2, 40139, Note_on_c, 0, 76, 0
2, 40139, Note_on_c, 0, 69, 0
2, 40140, Control_c, 0, 64, 0
2, 40140, Control_c, 0, 64, 127
2, 40140, Note_on_c, 0, 64, 76
2, 40140, Note_on_c, 0, 78, 85
2, 40154, Note_on_c, 0, 78, 0
2, 40155, Note_on_c, 0, 76, 89
2, 40169, Note_on_c, 0, 76, 0
2, 40169, Note_on_c, 0, 64, 0
2, 40170, Note_on_c, 0, 69, 80
2, 40170, Note_on_c, 0, 78, 89
2, 40184, Note_on_c, 0, 78, 0
2, 40185, Note_on_c, 0, 76, 89
2, 40189, Control_c, 0, 64, 0
2, 40199, Note_on_c, 0, 76, 0
2, 40199, Note_on_c, 0, 69, 0
2, 40200, Note_on_c, 0, 61, 76
2, 40200, Control_c, 0, 64, 0
2, 40200, Control_c, 0, 64, 127
2, 40200, Note_on_c, 0, 78, 93
2, 40214, Note_on_c, 0, 78, 0
2, 40215, Note_on_c, 0, 76, 89
2, 40216, Control_c, 0, 64, 127
2, 40229, Note_on_c, 0, 76, 0
2, 40229, Note_on_c, 0, 61, 0
2, 40230, Note_on_c, 0, 69, 62
2, 40230, Note_on_c, 0, 78, 80
2, 40244, Note_on_c, 0, 78, 0
2, 40245, Note_on_c, 0, 76, 93
2, 40259, Note_on_c, 0, 76, 0
2, 40259, Note_on_c, 0, 69, 0
2, 40260, Control_c, 0, 64, 0
2, 40260, Note_on_c, 0, 64, 76
2, 40260, Note_on_c, 0, 74, 89
2, 40289, Note_on_c, 0, 74, 0
2, 40289, Note_on_c, 0, 64, 0
2, 40290, Note_on_c, 0, 69, 85
2, 40290, Note_on_c, 0, 76, 89
2, 40315, Control_c, 0, 64, 0
2, 40319, Note_on_c, 0, 76, 0
2, 40319, Note_on_c, 0, 69, 0
2, 40320, Note_on_c, 0, 74, 98
2, 40320, Note_on_c, 0, 62, 93
2, 40320, Control_c, 0, 64, 0
2, 40350, Control_c, 0, 64, 127
2, 40386, Note_on_c, 0, 62, 0
2, 40388, Note_on_c, 0, 74, 0
2, 40408, Control_c, 0, 64, 0
2, 40440, Note_on_c, 0, 72, 85
2, 40440, Note_on_c, 0, 60, 93
2, 40456, Control_c, 0, 64, 127
2, 40553, Note_on_c, 0, 60, 0
2, 40560, Note_on_c, 0, 72, 0
2, 40560, Note_on_c, 0, 59, 98
2, 40560, Note_on_c, 0, 71, 102
2, 40567, Control_c, 0, 64, 0
2, 40598, Control_c, 0, 64, 127
2, 40674, Note_on_c, 0, 71, 0
2, 40676, Note_on_c, 0, 59, 0
2, 40679, Control_c, 0, 64, 0
2, 40680, Note_on_c, 0, 58, 85
2, 40680, Note_on_c, 0, 70, 107
2, 40712, Control_c, 0, 64, 127
2, 40795, Control_c, 0, 64, 0
2, 40799, Note_on_c, 0, 70, 0
2, 40800, Note_on_c, 0, 71, 89
2, 40800, Note_on_c, 0, 59, 107
2, 40804, Note_on_c, 0, 58, 0
2, 40820, Control_c, 0, 64, 127
2, 40831, Note_on_c, 0, 71, 0
2, 40836, Note_on_c, 0, 59, 0
2, 40918, Control_c, 0, 64, 0
2, 40920, Note_on_c, 0, 63, 113
2, 40920, Note_on_c, 0, 51, 89
2, 40944, Control_c, 0, 64, 127
2, 40984, Note_on_c, 0, 51, 0
2, 41005, Note_on_c, 0, 63, 0
2, 41040, Control_c, 0, 64, 0
2, 41040, Note_on_c, 0, 64, 107
2, 41040, Note_on_c, 0, 52, 89
2, 41062, Control_c, 0, 64, 127
2, 41068, Note_on_c, 0, 52, 0
2, 41072, Note_on_c, 0, 64, 0
2, 41156, Control_c, 0, 64, 0
2, 41160, Note_on_c, 0, 70, 119
2, 41160, Note_on_c, 0, 58, 93
2, 41178, Control_c, 0, 64, 127
2, 41203, Note_on_c, 0, 70, 0
2, 41215, Note_on_c, 0, 58, 0
2, 41267, Control_c, 0, 64, 0
2, 41280, Note_on_c, 0, 71, 107
2, 41280, Note_on_c, 0, 59, 107
2, 41290, Control_c, 0, 64, 127
2, 41304, Note_on_c, 0, 59, 0
2, 41306, Note_on_c, 0, 71, 0
2, 41393, Control_c, 0, 64, 0
2, 41400, Note_on_c, 0, 75, 107
2, 41400, Note_on_c, 0, 63, 85
2, 41417, Control_c, 0, 64, 127
2, 41450, Note_on_c, 0, 63, 0
2, 41453, Note_on_c, 0, 75, 0
2, 41508, Control_c, 0, 64, 0
2, 41520, Note_on_c, 0, 76, 113
2, 41520, Note_on_c, 0, 64, 89
2, 41532, Control_c, 0, 64, 127
2, 41570, Note_on_c, 0, 76, 0
2, 41578, Note_on_c, 0, 64, 0
2, 41630, Control_c, 0, 64, 0
2, 41640, Note_on_c, 0, 79, 113
2, 41640, Note_on_c, 0, 67, 107
2, 41648, Control_c, 0, 64, 127
2, 41673, Note_on_c, 0, 67, 0
2, 41676, Note_on_c, 0, 79, 0
2, 41735, Control_c, 0, 64, 0
2, 41760, Note_on_c, 0, 67, 85
2, 41760, Note_on_c, 0, 83, 93
2, 41774, Note_on_c, 0, 83, 0
2, 41774, Note_on_c, 0, 67, 0
2, 41775, Note_on_c, 0, 81, 89
2, 41775, Note_on_c, 0, 69, 80
2, 41789, Note_on_c, 0, 69, 0
2, 41789, Note_on_c, 0, 81, 0
2, 41790, Note_on_c, 0, 79, 93
2, 41790, Note_on_c, 0, 71, 93
2, 41879, Note_on_c, 0, 71, 0
2, 41879, Note_on_c, 0, 79, 0
2, 41880, Note_on_c, 0, 67, 93
2, 41880, Note_on_c, 0, 83, 89
2, 41894, Note_on_c, 0, 83, 0
2, 41894, Note_on_c, 0, 67, 0
2, 41895, Note_on_c, 0, 69, 93
2, 41895, Note_on_c, 0, 81, 85
2, 41909, Note_on_c, 0, 81, 0
2, 41909, Note_on_c, 0, 69, 0
2, 41910, Note_on_c, 0, 79, 80
2, 41910, Note_on_c, 0, 71, 85
2, 41999, Note_on_c, 0, 71, 0
2, 41999, Note_on_c, 0, 79, 0
2, 42000, Note_on_c, 0, 67, 80
2, 42000, Note_on_c, 0, 83, 93
2, 42014, Note_on_c, 0, 83, 0
2, 42014, Note_on_c, 0, 67, 0
2, 42015, Note_on_c, 0, 81, 89
2, 42015, Note_on_c, 0, 69, 80
2, 42029, Note_on_c, 0, 69, 0
2, 42029, Note_on_c, 0, 81, 0
2, 42030, Note_on_c, 0, 79, 93
2, 42030, Note_on_c, 0, 71, 89
2, 42119, Note_on_c, 0, 71, 0
2, 42119, Note_on_c, 0, 79, 0
2, 42120, Note_on_c, 0, 67, 89
2, 42120, Note_on_c, 0, 83, 89
2, 42134, Note_on_c, 0, 83, 0
2, 42134, Note_on_c, 0, 67, 0
2, 42135, Note_on_c, 0, 81, 93
2, 42135, Note_on_c, 0, 69, 93
2, 42149, Note_on_c, 0, 69, 0
2, 42149, Note_on_c, 0, 81, 0
2, 42150, Note_on_c, 0, 79, 93
2, 42150, Note_on_c, 0, 71, 93
2, 42239, Note_on_c, 0, 71, 0
2, 42239, Note_on_c, 0, 79, 0
2, 42240, Note_on_c, 0, 66, 85
2, 42240, Note_on_c, 0, 62, 98
2, 42240, Note_on_c, 0, 69, 102
2, 42240, Control_c, 0, 64, 127
2, 42240, Note_on_c, 0, 78, 102
2, 42249, Control_c, 0, 64, 127
2, 42269, Note_on_c, 0, 78, 0
2, 42270, Note_on_c, 0, 81, 93
2, 42295, Control_c, 0, 64, 0
2, 42299, Note_on_c, 0, 81, 0
2, 42300, Note_on_c, 0, 79, 93
2, 42300, Control_c, 0, 64, 0
2, 42319, Control_c, 0, 64, 127
2, 42329, Note_on_c, 0, 79, 0
2, 42330, Control_c, 0, 64, 127
2, 42330, Note_on_c, 0, 78, 85
2, 42354, Control_c, 0, 64, 0
2, 42359, Note_on_c, 0, 78, 0
2, 42360, Control_c, 0, 64, 0
2, 42360, Note_on_c, 0, 79, 98
2, 42372, Note_on_c, 0, 69, 0
2, 42372, Note_on_c, 0, 66, 0
2, 42374, Note_on_c, 0, 62, 0
2, 42389, Note_on_c, 0, 79, 0
2, 42390, Note_on_c, 0, 81, 98
2, 42419, Note_on_c, 0, 81, 0
2, 42420, Control_c, 0, 64, 127
2, 42420, Note_on_c, 0, 83, 98
2, 42449, Note_on_c, 0, 83, 0
2, 42450, Note_on_c, 0, 85, 93
2, 42479, Note_on_c, 0, 85, 0
2, 42480, Control_c, 0, 64, 0
2, 42480, Note_on_c, 0, 86, 113
2, 42480, Control_c, 0, 64, 127
2, 42509, Note_on_c, 0, 86, 0
2, 42510, Note_on_c, 0, 85, 98
2, 42539, Note_on_c, 0, 85, 0
2, 42540, Control_c, 0, 64, 0
2, 42540, Note_on_c, 0, 86, 107
2, 42540, Control_c, 0, 64, 127
2, 42569, Note_on_c, 0, 86, 0
2, 42570, Note_on_c, 0, 85, 98
2, 42599, Note_on_c, 0, 85, 0
2, 42600, Control_c, 0, 64, 0
2, 42600, Note_on_c, 0, 86, 107
2, 42600, Control_c, 0, 64, 127
2, 42629, Note_on_c, 0, 86, 0
2, 42630, Note_on_c, 0, 81, 98
2, 42630, Control_c, 0, 64, 0
2, 42630, Control_c, 0, 64, 127
2, 42659, Note_on_c, 0, 81, 0
2, 42660, Control_c, 0, 64, 0
2, 42660, Note_on_c, 0, 78, 113
2, 42660, Control_c, 0, 64, 127
2, 42689, Note_on_c, 0, 78, 0
2, 42690, Control_c, 0, 64, 0
2, 42690, Note_on_c, 0, 74, 102
2, 42690, Control_c, 0, 64, 127
2, 42719, Note_on_c, 0, 74, 0
2, 42720, Control_c, 0, 64, 127
2, 42720, Note_on_c, 0, 78, 76
2, 42720, Note_on_c, 0, 62, 85
2, 42734, Note_on_c, 0, 62, 0
2, 42734, Note_on_c, 0, 78, 0
2, 42735, Control_c, 0, 64, 0
2, 42735, Note_on_c, 0, 61, 76
2, 42735, Note_on_c, 0, 76, 89
2, 42735, Control_c, 0, 64, 127
2, 42749, Note_on_c, 0, 76, 0
2, 42749, Note_on_c, 0, 61, 0
2, 42750, Control_c, 0, 64, 0
2, 42750, Note_on_c, 0, 78, 76
2, 42750, Note_on_c, 0, 62, 80
2, 42750, Control_c, 0, 64, 127
2, 42764, Note_on_c, 0, 62, 0
2, 42764, Note_on_c, 0, 78, 0
2, 42765, Control_c, 0, 64, 0
2, 42765, Note_on_c, 0, 61, 68
2, 42765, Note_on_c, 0, 76, 93
2, 42765, Control_c, 0, 64, 127
2, 42779, Note_on_c, 0, 76, 0
2, 42779, Note_on_c, 0, 61, 0
2, 42780, Note_on_c, 0, 78, 85
2, 42780, Note_on_c, 0, 62, 85
2, 42780, Control_c, 0, 64, 0
2, 42794, Note_on_c, 0, 62, 0
2, 42794, Note_on_c, 0, 78, 0
2, 42795, Note_on_c, 0, 61, 62
2, 42795, Note_on_c, 0, 76, 89
2, 42809, Note_on_c, 0, 76, 0
2, 42809, Note_on_c, 0, 61, 0
2, 42810, Control_c, 0, 64, 127
2, 42810, Note_on_c, 0, 78, 89
2, 42810, Note_on_c, 0, 62, 80
2, 42810, Control_c, 0, 64, 0
2, 42824, Note_on_c, 0, 62, 0
2, 42824, Note_on_c, 0, 78, 0
2, 42825, Note_on_c, 0, 76, 89
2, 42825, Note_on_c, 0, 61, 60
2, 42839, Note_on_c, 0, 61, 0
2, 42839, Note_on_c, 0, 76, 0
2, 42840, Note_on_c, 0, 78, 85
2, 42840, Note_on_c, 0, 62, 80
2, 42854, Note_on_c, 0, 62, 0
2, 42854, Note_on_c, 0, 78, 0
2, 42855, Note_on_c, 0, 61, 57
2, 42855, Note_on_c, 0, 76, 76
2, 42869, Note_on_c, 0, 76, 0
2, 42869, Note_on_c, 0, 61, 0
2, 42870, Note_on_c, 0, 78, 72
2, 42870, Note_on_c, 0, 62, 72
2, 42884, Note_on_c, 0, 62, 0
2, 42884, Note_on_c, 0, 78, 0
2, 42885, Note_on_c, 0, 61, 59
2, 42885, Note_on_c, 0, 76, 76
2, 42899, Note_on_c, 0, 76, 0
2, 42899, Note_on_c, 0, 61, 0
2, 42900, Note_on_c, 0, 62, 72
2, 42900, Note_on_c, 0, 78, 64
2, 42914, Note_on_c, 0, 78, 0
2, 42914, Note_on_c, 0, 62, 0
2, 42915, Note_on_c, 0, 61, 60
2, 42915, Note_on_c, 0, 76, 68
2, 42929, Note_on_c, 0, 76, 0
2, 42929, Note_on_c, 0, 61, 0
2, 42930, Note_on_c, 0, 62, 76
2, 42930, Note_on_c, 0, 78, 60
2, 42944, Note_on_c, 0, 78, 0
2, 42944, Note_on_c, 0, 62, 0
2, 42945, Note_on_c, 0, 61, 62
2, 42945, Note_on_c, 0, 76, 89
2, 42959, Note_on_c, 0, 76, 0
2, 42959, Note_on_c, 0, 61, 0
2, 42960, Note_on_c, 0, 78, 80
2, 42960, Note_on_c, 0, 62, 76
2, 42974, Note_on_c, 0, 62, 0
2, 42974, Note_on_c, 0, 78, 0
2, 42975, Note_on_c, 0, 61, 72
2, 42975, Note_on_c, 0, 76, 93
2, 42989, Note_on_c, 0, 76, 0
2, 42989, Note_on_c, 0, 61, 0
2, 42990, Note_on_c, 0, 78, 89
2, 42990, Note_on_c, 0, 62, 68
2, 43004, Note_on_c, 0, 62, 0
2, 43004, Note_on_c, 0, 78, 0
2, 43005, Note_on_c, 0, 61, 62
2, 43005, Note_on_c, 0, 76, 93
2, 43019, Note_on_c, 0, 76, 0
2, 43019, Note_on_c, 0, 61, 0
2, 43020, Note_on_c, 0, 62, 89
2, 43020, Note_on_c, 0, 78, 93
2, 43034, Note_on_c, 0, 78, 0
2, 43034, Note_on_c, 0, 62, 0
2, 43035, Note_on_c, 0, 61, 68
2, 43035, Note_on_c, 0, 76, 93
2, 43049, Note_on_c, 0, 76, 0
2, 43049, Note_on_c, 0, 61, 0
2, 43050, Note_on_c, 0, 78, 76
2, 43050, Note_on_c, 0, 62, 80
2, 43064, Note_on_c, 0, 62, 0
2, 43064, Note_on_c, 0, 78, 0
2, 43065, Note_on_c, 0, 61, 64
2, 43065, Note_on_c, 0, 76, 93
2, 43079, Note_on_c, 0, 76, 0
2, 43079, Note_on_c, 0, 61, 0
2, 43080, Note_on_c, 0, 78, 107
2, 43080, Note_on_c, 0, 62, 93
2, 43094, Note_on_c, 0, 62, 0
2, 43094, Note_on_c, 0, 78, 0
2, 43095, Note_on_c, 0, 61, 68
2, 43095, Note_on_c, 0, 76, 89
2, 43109, Note_on_c, 0, 76, 0
2, 43109, Note_on_c, 0, 61, 0
2, 43110, Note_on_c, 0, 78, 98
2, 43110, Note_on_c, 0, 62, 89
2, 43124, Note_on_c, 0, 62, 0
2, 43124, Note_on_c, 0, 78, 0
2, 43125, Note_on_c, 0, 76, 102
2, 43125, Note_on_c, 0, 61, 76
2, 43139, Note_on_c, 0, 61, 0
2, 43139, Note_on_c, 0, 76, 0
2, 43140, Note_on_c, 0, 62, 89
2, 43140, Note_on_c, 0, 74, 93
2, 43169, Note_on_c, 0, 74, 0
2, 43169, Note_on_c, 0, 62, 0
2, 43170, Note_on_c, 0, 64, 85
2, 43170, Note_on_c, 0, 76, 98
2, 43199, Note_on_c, 0, 76, 0
2, 43199, Note_on_c, 0, 64, 0
2, 43200, Note_on_c, 0, 74, 127
2, 43200, Note_on_c, 0, 62, 102
2, 43208, Control_c, 0, 64, 127
2, 43255, Note_on_c, 0, 74, 0
2, 43258, Note_on_c, 0, 62, 0
2, 43319, Control_c, 0, 64, 0
2, 43440, Note_on_c, 0, 76, 119
2, 43440, Note_on_c, 0, 79, 113
2, 43440, Note_on_c, 0, 69, 107
2, 43449, Control_c, 0, 64, 127
2, 43485, Note_on_c, 0, 69, 0
2, 43488, Note_on_c, 0, 76, 0
2, 43489, Note_on_c, 0, 79, 0
2, 43544, Control_c, 0, 64, 0
2, 43680, Note_on_c, 0, 78, 113
2, 43680, Note_on_c, 0, 74, 119
2, 43680, Note_on_c, 0, 69, 113
2, 43691, Control_c, 0, 64, 127
2, 43725, Note_on_c, 0, 74, 0
2, 43725, Note_on_c, 0, 78, 0
2, 43729, Note_on_c, 0, 69, 0
2, 43772, Control_c, 0, 64, 0
2, 43920, Note_on_c, 0, 76, 107
2, 43920, Note_on_c, 0, 85, 113
2, 43920, Note_on_c, 0, 67, 89
2, 43920, Note_on_c, 0, 69, 102
2, 43926, Control_c, 0, 64, 127
2, 43977, Note_on_c, 0, 69, 0
2, 43977, Note_on_c, 0, 67, 0
2, 43977, Note_on_c, 0, 85, 0
2, 43981, Note_on_c, 0, 76, 0
2, 44030, Control_c, 0, 64, 0
2, 44160, Note_on_c, 0, 78, 113
2, 44160, Note_on_c, 0, 86, 113
2, 44160, Note_on_c, 0, 66, 93
2, 44160, Note_on_c, 0, 69, 107
2, 44161, Control_c, 0, 64, 127
2, 44207, Note_on_c, 0, 69, 0
2, 44208, Note_on_c, 0, 78, 0
2, 44209, Note_on_c, 0, 66, 0
2, 44210, Note_on_c, 0, 86, 0
2, 44265, Control_c, 0, 64, 0
2, 44400, Note_on_c, 0, 73, 107
2, 44400, Note_on_c, 0, 76, 113
2, 44400, Note_on_c, 0, 79, 107
2, 44400, Note_on_c, 0, 64, 98
2, 44400, Note_on_c, 0, 69, 107
2, 44411, Control_c, 0, 64, 127
2, 44456, Note_on_c, 0, 64, 0
2, 44457, Note_on_c, 0, 73, 0
2, 44459, Note_on_c, 0, 69, 0
2, 44460, Note_on_c, 0, 79, 0
2, 44461, Note_on_c, 0, 76, 0
2, 44502, Control_c, 0, 64, 0
2, 44640, Note_on_c, 0, 62, 113
2, 44640, Note_on_c, 0, 74, 113
2, 44640, Note_on_c, 0, 78, 102
2, 44640, Note_on_c, 0, 69, 107
2, 44649, Control_c, 0, 64, 127
2, 44683, Note_on_c, 0, 69, 0
2, 44685, Note_on_c, 0, 74, 0
2, 44687, Note_on_c, 0, 78, 0
2, 44687, Note_on_c, 0, 62, 0
2, 44743, Control_c, 0, 64, 0
2, 44880, Note_on_c, 0, 73, 93
2, 44880, Note_on_c, 0, 67, 113
2, 44880, Note_on_c, 0, 57, 107
2, 44880, Note_on_c, 0, 64, 107
2, 44892, Control_c, 0, 64, 127
2, 44945, Note_on_c, 0, 64, 0
2, 44945, Note_on_c, 0, 57, 0
2, 44946, Note_on_c, 0, 73, 0
2, 44951, Note_on_c, 0, 67, 0
2, 44975, Control_c, 0, 64, 0
2, 45113, Control_c, 0, 64, 127
2, 45120, Note_on_c, 0, 74, 107
2, 45120, Note_on_c, 0, 62, 107
2, 45120, Note_on_c, 0, 66, 113
2, 45120, Note_on_c, 0, 69, 113
2, 45133, Note_on_c, 0, 66, 0
2, 45134, Note_on_c, 0, 62, 0
2, 45135, Note_on_c, 0, 69, 0
2, 45139, Note_on_c, 0, 74, 0
2, 45170, Control_c, 0, 64, 0
2, 45180, Note_on_c, 0, 66, 93
2, 45180, Note_on_c, 0, 78, 102
2, 45233, Note_on_c, 0, 78, 0
2, 45237, Note_on_c, 0, 66, 0
2, 45240, Note_on_c, 0, 69, 102
2, 45240, Note_on_c, 0, 81, 107
2, 45250, Control_c, 0, 64, 127
2, 45294, Note_on_c, 0, 81, 0
2, 45298, Note_on_c, 0, 69, 0
2, 45300, Note_on_c, 0, 66, 89
2, 45300, Note_on_c, 0, 78, 107
2, 45313, Note_on_c, 0, 78, 0
2, 45320, Note_on_c, 0, 66, 0
2, 45347, Control_c, 0, 64, 0
2, 45360, Note_on_c, 0, 69, 107
2, 45360, Note_on_c, 0, 74, 107
2, 45360, Note_on_c, 0, 66, 119
2, 45360, Note_on_c, 0, 62, 102
2, 45373, Control_c, 0, 64, 127
2, 45375, Note_on_c, 0, 66, 0
2, 45377, Note_on_c, 0, 69, 0
2, 45379, Note_on_c, 0, 74, 0
2, 45393, Note_on_c, 0, 62, 0
2, 45418, Control_c, 0, 64, 0
2, 45420, Note_on_c, 0, 66, 93
2, 45420, Note_on_c, 0, 78, 113
2, 45460, Control_c, 0, 64, 127
2, 45467, Note_on_c, 0, 78, 0
2, 45468, Control_c, 0, 64, 0
2, 45475, Note_on_c, 0, 66, 0
2, 45480, Note_on_c, 0, 81, 102
2, 45480, Note_on_c, 0, 69, 98
2, 45493, Control_c, 0, 64, 127
2, 45526, Note_on_c, 0, 81, 0
2, 45538, Note_on_c, 0, 69, 0
2, 45540, Note_on_c, 0, 66, 93
2, 45540, Note_on_c, 0, 78, 102
2, 45571, Note_on_c, 0, 78, 0
2, 45573, Note_on_c, 0, 66, 0
2, 45589, Control_c, 0, 64, 0
2, 45600, Note_on_c, 0, 74, 113
2, 45600, Note_on_c, 0, 62, 102
2, 45616, Control_c, 0, 64, 127
2, 45630, Note_on_c, 0, 74, 0
2, 45633, Note_on_c, 0, 62, 0
2, 45708, Control_c, 0, 64, 0
2, 45720, Note_on_c, 0, 86, 113
2, 45720, Note_on_c, 0, 78, 113
2, 45720, Note_on_c, 0, 81, 113
2, 45720, Note_on_c, 0, 74, 102
2, 45739, Control_c, 0, 64, 127
2, 45756, Note_on_c, 0, 86, 0
2, 45757, Note_on_c, 0, 81, 0
2, 45761, Note_on_c, 0, 78, 0
2, 45761, Note_on_c, 0, 74, 0
2, 45826, Control_c, 0, 64, 0
2, 45840, Note_on_c, 0, 62, 107
2, 45840, Note_on_c, 0, 74, 127
2, 45856, Control_c, 0, 64, 127
2, 45862, Note_on_c, 0, 62, 0
2, 45863, Note_on_c, 0, 74, 0
2, 45971, Control_c, 0, 64, 0
2, 46560, Note_on_c, 0, 74, 72
2, 46560, Note_on_c, 0, 55, 56
2, 46574, Control_c, 0, 64, 127
2, 46590, Note_on_c, 0, 62, 50
2, 46592, Note_on_c, 0, 55, 0
2, 46615, Note_on_c, 0, 62, 0
2, 46620, Note_on_c, 0, 59, 59
2, 46642, Note_on_c, 0, 59, 0
2, 46650, Note_on_c, 0, 62, 49
2, 46674, Note_on_c, 0, 62, 0
2, 46680, Note_on_c, 0, 55, 51
2, 46702, Note_on_c, 0, 74, 0
2, 46710, Note_on_c, 0, 62, 55
2, 46711, Note_on_c, 0, 55, 0
2, 46735, Note_on_c, 0, 62, 0
2, 46740, Note_on_c, 0, 59, 55
2, 46740, Note_on_c, 0, 71, 85
2, 46770, Note_on_c, 0, 62, 50
2, 46771, Note_on_c, 0, 59, 0
2, 46773, Note_on_c, 0, 71, 0
2, 46793, Note_on_c, 0, 62, 0
2, 46800, Note_on_c, 0, 74, 76
2, 46800, Note_on_c, 0, 55, 53
2, 46803, Control_c, 0, 64, 0
2, 46815, Control_c, 0, 64, 127
2, 46830, Note_on_c, 0, 62, 45
2, 46831, Note_on_c, 0, 55, 0
2, 46833, Note_on_c, 0, 74, 0
2, 46853, Note_on_c, 0, 62, 0
2, 46860, Note_on_c, 0, 67, 72
2, 46860, Note_on_c, 0, 59, 56
2, 46888, Note_on_c, 0, 59, 0
2, 46890, Note_on_c, 0, 62, 62
2, 46891, Note_on_c, 0, 67, 0
2, 46910, Note_on_c, 0, 62, 0
2, 46916, Control_c, 0, 64, 0
2, 46920, Note_on_c, 0, 69, 72
2, 46920, Note_on_c, 0, 57, 57
2, 46928, Control_c, 0, 64, 127
2, 46931, Note_on_c, 0, 69, 0
2, 46935, Note_on_c, 0, 67, 72
2, 46946, Note_on_c, 0, 67, 0
2, 46948, Note_on_c, 0, 57, 0
2, 46950, Note_on_c, 0, 69, 64
2, 46950, Note_on_c, 0, 62, 64
2, 46961, Note_on_c, 0, 69, 0
2, 46965, Note_on_c, 0, 67, 60
2, 46975, Note_on_c, 0, 67, 0
2, 46976, Note_on_c, 0, 62, 0
2, 46980, Note_on_c, 0, 69, 64
2, 46980, Note_on_c, 0, 60, 59
2, 46994, Note_on_c, 0, 69, 0
2, 46995, Note_on_c, 0, 67, 80
2, 47008, Control_c, 0, 64, 0
2, 47009, Note_on_c, 0, 60, 0
2, 47010, Note_on_c, 0, 67, 0
2, 47010, Note_on_c, 0, 66, 64
2, 47010, Note_on_c, 0, 62, 64
2, 47018, Control_c, 0, 64, 127
2, 47020, Note_on_c, 0, 66, 0
2, 47025, Note_on_c, 0, 67, 76
2, 47034, Note_on_c, 0, 62, 0
2, 47038, Control_c, 0, 64, 0
2, 47039, Note_on_c, 0, 67, 0
2, 47040, Note_on_c, 0, 57, 60
2, 47040, Note_on_c, 0, 66, 57
2, 47052, Control_c, 0, 64, 127
2, 47068, Note_on_c, 0, 57, 0
2, 47070, Note_on_c, 0, 62, 60
2, 47078, Note_on_c, 0, 66, 0
2, 47095, Note_on_c, 0, 62, 0
2, 47100, Note_on_c, 0, 60, 53
2, 47123, Note_on_c, 0, 60, 0
2, 47130, Note_on_c, 0, 62, 56
2, 47158, Control_c, 0, 64, 0
2, 47159, Note_on_c, 0, 62, 0
2, 47160, Note_on_c, 0, 57, 62
2, 47173, Control_c, 0, 64, 127
2, 47190, Note_on_c, 0, 57, 0
2, 47190, Note_on_c, 0, 62, 60
2, 47219, Note_on_c, 0, 62, 0
2, 47220, Note_on_c, 0, 60, 72
2, 47246, Note_on_c, 0, 60, 0
2, 47250, Note_on_c, 0, 62, 68
2, 47262, Note_on_c, 0, 62, 0
2, 47280, Note_on_c, 0, 50, 57
2, 47280, Note_on_c, 0, 72, 80
2, 47283, Control_c, 0, 64, 0
2, 47298, Control_c, 0, 64, 127
2, 47310, Note_on_c, 0, 60, 49
2, 47313, Note_on_c, 0, 50, 0
2, 47340, Note_on_c, 0, 57, 56
2, 47341, Note_on_c, 0, 60, 0
2, 47367, Note_on_c, 0, 57, 0
2, 47370, Note_on_c, 0, 60, 48
2, 47400, Note_on_c, 0, 50, 60
2, 47402, Note_on_c, 0, 60, 0
2, 47404, Control_c, 0, 64, 0
2, 47416, Control_c, 0, 64, 127
2, 47430, Note_on_c, 0, 50, 0
2, 47430, Note_on_c, 0, 60, 55
2, 47458, Note_on_c, 0, 60, 0
2, 47460, Note_on_c, 0, 57, 53
2, 47460, Note_on_c, 0, 69, 80
2, 47462, Note_on_c, 0, 72, 0
2, 47465, Control_c, 0, 64, 0
2, 47476, Control_c, 0, 64, 127
2, 47490, Note_on_c, 0, 60, 52
2, 47494, Note_on_c, 0, 57, 0
2, 47515, Note_on_c, 0, 60, 0
2, 47519, Note_on_c, 0, 69, 0
2, 47520, Note_on_c, 0, 72, 80
2, 47520, Note_on_c, 0, 50, 59
2, 47522, Control_c, 0, 64, 0
2, 47533, Control_c, 0, 64, 127
2, 47549, Note_on_c, 0, 50, 0
2, 47550, Note_on_c, 0, 60, 57
2, 47579, Note_on_c, 0, 60, 0
2, 47580, Note_on_c, 0, 72, 0
2, 47580, Note_on_c, 0, 66, 68
2, 47580, Note_on_c, 0, 57, 62
2, 47583, Control_c, 0, 64, 0
2, 47595, Control_c, 0, 64, 127
2, 47610, Note_on_c, 0, 57, 0
2, 47610, Note_on_c, 0, 60, 64
2, 47621, Note_on_c, 0, 66, 0
2, 47633, Note_on_c, 0, 60, 0
2, 47640, Note_on_c, 0, 55, 56
2, 47640, Note_on_c, 0, 69, 80
2, 47643, Control_c, 0, 64, 0
2, 47656, Control_c, 0, 64, 127
2, 47669, Note_on_c, 0, 55, 0
2, 47670, Note_on_c, 0, 60, 46
2, 47700, Note_on_c, 0, 60, 0
2, 47700, Note_on_c, 0, 57, 56
2, 47727, Note_on_c, 0, 57, 0
2, 47730, Note_on_c, 0, 60, 38
2, 47749, Note_on_c, 0, 69, 0
2, 47757, Note_on_c, 0, 60, 0
2, 47760, Note_on_c, 0, 67, 76
2, 47760, Note_on_c, 0, 55, 56
2, 47765, Control_c, 0, 64, 0
2, 47778, Control_c, 0, 64, 127
2, 47790, Note_on_c, 0, 62, 51
2, 47791, Note_on_c, 0, 55, 0
2, 47819, Note_on_c, 0, 62, 0
2, 47820, Note_on_c, 0, 59, 55
2, 47847, Note_on_c, 0, 59, 0
2, 47850, Note_on_c, 0, 62, 56
2, 47862, Note_on_c, 0, 67, 0
2, 47879, Note_on_c, 0, 62, 0
2, 47880, Note_on_c, 0, 55, 55
2, 47887, Control_c, 0, 64, 0
2, 47900, Control_c, 0, 64, 127
2, 47910, Note_on_c, 0, 55, 0
2, 47910, Note_on_c, 0, 62, 56
2, 47936, Note_on_c, 0, 62, 0
2, 47940, Note_on_c, 0, 59, 57
2, 47967, Note_on_c, 0, 59, 0
2, 47970, Note_on_c, 0, 62, 62
2, 47978, Note_on_c, 0, 62, 0
2, 48000, Note_on_c, 0, 48, 62
2, 48000, Note_on_c, 0, 64, 85
2, 48004, Control_c, 0, 64, 0
2, 48019, Control_c, 0, 64, 127
2, 48030, Note_on_c, 0, 55, 52
2, 48034, Note_on_c, 0, 48, 0
2, 48056, Note_on_c, 0, 55, 0
2, 48060, Note_on_c, 0, 52, 43
2, 48087, Note_on_c, 0, 52, 0
2, 48090, Note_on_c, 0, 55, 45
2, 48115, Note_on_c, 0, 55, 0
2, 48120, Note_on_c, 0, 48, 59
2, 48125, Control_c, 0, 64, 0
2, 48137, Control_c, 0, 64, 127
2, 48146, Note_on_c, 0, 48, 0
2, 48150, Note_on_c, 0, 55, 56
2, 48162, Note_on_c, 0, 64, 0
2, 48176, Note_on_c, 0, 55, 0
2, 48178, Control_c, 0, 64, 0
2, 48180, Note_on_c, 0, 52, 56
2, 48180, Note_on_c, 0, 66, 72
2, 48188, Control_c, 0, 64, 127
2, 48193, Note_on_c, 0, 66, 0
2, 48195, Note_on_c, 0, 64, 68
2, 48206, Note_on_c, 0, 52, 0
2, 48207, Note_on_c, 0, 64, 0
2, 48210, Note_on_c, 0, 66, 62
2, 48210, Note_on_c, 0, 55, 62
2, 48220, Note_on_c, 0, 66, 0
2, 48225, Note_on_c, 0, 64, 72
2, 48229, Note_on_c, 0, 55, 0
2, 48235, Control_c, 0, 64, 0
2, 48236, Note_on_c, 0, 64, 0
2, 48240, Note_on_c, 0, 66, 76
2, 48240, Note_on_c, 0, 48, 60
2, 48249, Control_c, 0, 64, 127
2, 48270, Note_on_c, 0, 55, 55
2, 48274, Note_on_c, 0, 48, 0
2, 48300, Note_on_c, 0, 55, 0
2, 48300, Note_on_c, 0, 52, 57
2, 48300, Note_on_c, 0, 67, 76
2, 48301, Control_c, 0, 64, 0
2, 48302, Note_on_c, 0, 66, 0
2, 48312, Control_c, 0, 64, 127
2, 48330, Note_on_c, 0, 55, 56
2, 48333, Note_on_c, 0, 52, 0
2, 48336, Note_on_c, 0, 67, 0
2, 48351, Note_on_c, 0, 55, 0
2, 48360, Note_on_c, 0, 47, 56
2, 48360, Note_on_c, 0, 67, 80
2, 48365, Control_c, 0, 64, 0
2, 48378, Control_c, 0, 64, 127
2, 48390, Note_on_c, 0, 55, 56
2, 48392, Note_on_c, 0, 47, 0
2, 48419, Note_on_c, 0, 55, 0
2, 48420, Note_on_c, 0, 50, 62
2, 48440, Note_on_c, 0, 67, 0
2, 48448, Note_on_c, 0, 50, 0
2, 48450, Note_on_c, 0, 55, 49
2, 48472, Note_on_c, 0, 55, 0
2, 48480, Note_on_c, 0, 47, 64
2, 48480, Note_on_c, 0, 62, 80
2, 48482, Control_c, 0, 64, 0
2, 48493, Control_c, 0, 64, 127
2, 48510, Note_on_c, 0, 47, 0
2, 48510, Note_on_c, 0, 55, 55
2, 48521, Note_on_c, 0, 62, 0
2, 48530, Note_on_c, 0, 55, 0
2, 48540, Note_on_c, 0, 67, 89
2, 48540, Note_on_c, 0, 50, 57
2, 48545, Control_c, 0, 64, 0
2, 48556, Control_c, 0, 64, 127
2, 48568, Note_on_c, 0, 50, 0
2, 48570, Note_on_c, 0, 55, 56
2, 48577, Note_on_c, 0, 67, 0
2, 48593, Note_on_c, 0, 55, 0
2, 48600, Note_on_c, 0, 71, 80
2, 48600, Note_on_c, 0, 47, 59
2, 48602, Control_c, 0, 64, 0
2, 48613, Control_c, 0, 64, 127
2, 48630, Note_on_c, 0, 55, 57
2, 48632, Note_on_c, 0, 47, 0
2, 48637, Note_on_c, 0, 71, 0
2, 48657, Note_on_c, 0, 55, 0
2, 48660, Note_on_c, 0, 50, 56
2, 48660, Note_on_c, 0, 74, 85
2, 48664, Control_c, 0, 64, 0
2, 48674, Control_c, 0, 64, 127
2, 48686, Note_on_c, 0, 74, 0
2, 48687, Note_on_c, 0, 50, 0
2, 48690, Note_on_c, 0, 55, 64
2, 48696, Note_on_c, 0, 55, 0
2, 48720, Note_on_c, 0, 54, 76
2, 48720, Note_on_c, 0, 71, 64
2, 48720, Note_on_c, 0, 74, 76
2, 48724, Control_c, 0, 64, 0
2, 48738, Control_c, 0, 64, 127
2, 48750, Note_on_c, 0, 54, 0
2, 48750, Note_on_c, 0, 62, 52
2, 48778, Note_on_c, 0, 62, 0
2, 48780, Note_on_c, 0, 57, 56
2, 48805, Note_on_c, 0, 57, 0
2, 48807, Note_on_c, 0, 74, 0
2, 48807, Note_on_c, 0, 71, 0
2, 48810, Note_on_c, 0, 62, 57
2, 48826, Note_on_c, 0, 62, 0
2, 48840, Note_on_c, 0, 69, 72
2, 48840, Note_on_c, 0, 72, 85
2, 48840, Note_on_c, 0, 54, 57
2, 48842, Control_c, 0, 64, 0
2, 48855, Control_c, 0, 64, 127
2, 48870, Note_on_c, 0, 54, 0
2, 48870, Note_on_c, 0, 62, 56
2, 48892, Note_on_c, 0, 62, 0
2, 48900, Note_on_c, 0, 57, 62
2, 48927, Note_on_c, 0, 72, 0
2, 48928, Note_on_c, 0, 57, 0
2, 48930, Note_on_c, 0, 62, 62
2, 48932, Note_on_c, 0, 69, 0
2, 48948, Note_on_c, 0, 62, 0
2, 48960, Note_on_c, 0, 55, 62
2, 48960, Note_on_c, 0, 71, 76
2, 48960, Note_on_c, 0, 67, 76
2, 48963, Control_c, 0, 64, 0
2, 48977, Control_c, 0, 64, 127
2, 48990, Note_on_c, 0, 62, 57
2, 48992, Note_on_c, 0, 55, 0
2, 49013, Note_on_c, 0, 62, 0
2, 49020, Note_on_c, 0, 59, 57
2, 49044, Note_on_c, 0, 67, 0
2, 49049, Note_on_c, 0, 59, 0
2, 49050, Note_on_c, 0, 62, 64
2, 49055, Note_on_c, 0, 71, 0
2, 49068, Note_on_c, 0, 62, 0
2, 49073, Control_c, 0, 64, 0
2, 49080, Note_on_c, 0, 50, 60
2, 49080, Note_on_c, 0, 67, 72
2, 49080, Note_on_c, 0, 72, 80
2, 49084, Control_c, 0, 64, 127
2, 49095, Note_on_c, 0, 71, 64
2, 49096, Note_on_c, 0, 72, 0
2, 49109, Note_on_c, 0, 71, 0
2, 49109, Note_on_c, 0, 50, 0
2, 49110, Note_on_c, 0, 72, 72
2, 49110, Note_on_c, 0, 62, 72
2, 49124, Note_on_c, 0, 72, 0
2, 49125, Note_on_c, 0, 71, 64
2, 49134, Note_on_c, 0, 62, 0
2, 49137, Note_on_c, 0, 71, 0
2, 49137, Control_c, 0, 64, 0
2, 49140, Note_on_c, 0, 61, 57
2, 49140, Note_on_c, 0, 72, 68
2, 49147, Control_c, 0, 64, 127
2, 49155, Note_on_c, 0, 71, 62
2, 49157, Note_on_c, 0, 72, 0
2, 49165, Note_on_c, 0, 71, 0
2, 49170, Note_on_c, 0, 69, 57
2, 49170, Note_on_c, 0, 62, 62
2, 49171, Note_on_c, 0, 61, 0
2, 49177, Note_on_c, 0, 67, 0
2, 49185, Note_on_c, 0, 69, 0
2, 49185, Note_on_c, 0, 71, 76
2, 49190, Note_on_c, 0, 62, 0
2, 49197, Note_on_c, 0, 71, 0
2, 49200, Note_on_c, 0, 69, 80
2, 49200, Note_on_c, 0, 66, 57
2, 49200, Control_c, 0, 64, 0
2, 49200, Note_on_c, 0, 50, 60
2, 49210, Control_c, 0, 64, 127
2, 49217, Note_on_c, 0, 69, 0
2, 49220, Note_on_c, 0, 50, 0
2, 49220, Note_on_c, 0, 66, 0
2, 49230, Note_on_c, 0, 62, 85
2, 49240, Control_c, 0, 64, 0
2, 49260, Note_on_c, 0, 64, 89
2, 49261, Note_on_c, 0, 62, 0
2, 49290, Note_on_c, 0, 64, 0
2, 49290, Note_on_c, 0, 66, 72
2, 49319, Note_on_c, 0, 66, 0
2, 49320, Note_on_c, 0, 67, 76
2, 49350, Note_on_c, 0, 67, 0
2, 49350, Note_on_c, 0, 69, 98
2, 49378, Note_on_c, 0, 69, 0
2, 49380, Note_on_c, 0, 71, 102
2, 49386, Control_c, 0, 64, 127
2, 49407, Note_on_c, 0, 71, 0
2, 49410, Note_on_c, 0, 72, 93
2, 49417, Note_on_c, 0, 72, 0
2, 49439, Control_c, 0, 64, 0
2, 49440, Note_on_c, 0, 74, 93
2, 49440, Note_on_c, 0, 86, 113
2, 49454, Control_c, 0, 64, 127
2, 49599, Note_on_c, 0, 86, 0
2, 49606, Note_on_c, 0, 74, 0
2, 49620, Note_on_c, 0, 83, 113
2, 49620, Note_on_c, 0, 71, 89
2, 49622, Control_c, 0, 64, 0
2, 49634, Control_c, 0, 64, 127
2, 49675, Note_on_c, 0, 83, 0
2, 49677, Note_on_c, 0, 71, 0
2, 49677, Control_c, 0, 64, 0
2, 49680, Note_on_c, 0, 86, 102
2, 49680, Note_on_c, 0, 74, 93
2, 49688, Control_c, 0, 64, 127
2, 49729, Note_on_c, 0, 74, 0
2, 49740, Note_on_c, 0, 86, 0
2, 49740, Note_on_c, 0, 79, 93
2, 49740, Note_on_c, 0, 67, 93
2, 49750, Note_on_c, 0, 67, 0
2, 49758, Note_on_c, 0, 79, 0
2, 49793, Control_c, 0, 64, 0
2, 49800, Note_on_c, 0, 69, 93
2, 49800, Note_on_c, 0, 81, 98
2, 49806, Control_c, 0, 64, 127
2, 49812, Note_on_c, 0, 81, 0
2, 49815, Note_on_c, 0, 69, 0
2, 49815, Note_on_c, 0, 67, 76
2, 49815, Note_on_c, 0, 79, 93
2, 49816, Control_c, 0, 64, 0
2, 49825, Note_on_c, 0, 79, 0
2, 49827, Note_on_c, 0, 67, 0
2, 49830, Note_on_c, 0, 69, 89
2, 49830, Note_on_c, 0, 81, 89
2, 49841, Note_on_c, 0, 81, 0
2, 49844, Note_on_c, 0, 69, 0
2, 49845, Note_on_c, 0, 79, 93
2, 49845, Note_on_c, 0, 67, 85
2, 49854, Note_on_c, 0, 79, 0
2, 49858, Note_on_c, 0, 67, 0
2, 49860, Note_on_c, 0, 81, 89
2, 49860, Note_on_c, 0, 69, 80
2, 49875, Note_on_c, 0, 81, 0
2, 49875, Note_on_c, 0, 79, 93
2, 49875, Note_on_c, 0, 67, 76
2, 49877, Note_on_c, 0, 69, 0
2, 49889, Note_on_c, 0, 67, 0
2, 49890, Note_on_c, 0, 66, 76
2, 49890, Note_on_c, 0, 78, 80
2, 49891, Note_on_c, 0, 79, 0
2, 49902, Note_on_c, 0, 78, 0
2, 49905, Note_on_c, 0, 79, 80
2, 49905, Note_on_c, 0, 67, 89
2, 49908, Note_on_c, 0, 66, 0
2, 49918, Note_on_c, 0, 67, 0
2, 49918, Note_on_c, 0, 79, 0
2, 49920, Note_on_c, 0, 66, 85
2, 49920, Note_on_c, 0, 78, 93
2, 49932, Control_c, 0, 64, 127
2, 50041, Note_on_c, 0, 66, 0
2, 50042, Note_on_c, 0, 78, 0
2, 50042, Control_c, 0, 64, 0
2, 50160, Note_on_c, 0, 84, 102
2, 50160, Note_on_c, 0, 72, 89
2, 50167, Control_c, 0, 64, 127
2, 50329, Note_on_c, 0, 84, 0
2, 50330, Note_on_c, 0, 72, 0
2, 50340, Note_on_c, 0, 81, 113
2, 50340, Note_on_c, 0, 69, 85
2, 50342, Control_c, 0, 64, 0
2, 50354, Control_c, 0, 64, 127
2, 50397, Note_on_c, 0, 81, 0
2, 50397, Control_c, 0, 64, 0
2, 50399, Note_on_c, 0, 69, 0
2, 50400, Note_on_c, 0, 84, 102
2, 50400, Note_on_c, 0, 72, 89
2, 50409, Control_c, 0, 64, 127
2, 50426, Note_on_c, 0, 72, 0
2, 50427, Note_on_c, 0, 84, 0
2, 50460, Note_on_c, 0, 78, 113
2, 50460, Note_on_c, 0, 66, 85
2, 50460, Control_c, 0, 64, 0
2, 50471, Control_c, 0, 64, 127
2, 50501, Note_on_c, 0, 78, 0
2, 50506, Note_on_c, 0, 66, 0
2, 50520, Note_on_c, 0, 81, 98
2, 50520, Note_on_c, 0, 69, 93
2, 50523, Control_c, 0, 64, 0
2, 50539, Control_c, 0, 64, 127
2, 50639, Note_on_c, 0, 69, 0
2, 50640, Note_on_c, 0, 67, 85
2, 50640, Note_on_c, 0, 79, 93
2, 50641, Control_c, 0, 64, 0
2, 50642, Note_on_c, 0, 81, 0
2, 50654, Control_c, 0, 64, 127
2, 50760, Control_c, 0, 64, 0
2, 50771, Note_on_c, 0, 79, 0
2, 50771, Note_on_c, 0, 67, 0
2, 50880, Note_on_c, 0, 76, 89
2, 50880, Note_on_c, 0, 64, 89
2, 50889, Control_c, 0, 64, 127
2, 51027, Note_on_c, 0, 64, 0
2, 51031, Note_on_c, 0, 76, 0
2, 51057, Control_c, 0, 64, 0
2, 51060, Note_on_c, 0, 66, 85
2, 51060, Note_on_c, 0, 78, 98
2, 51070, Note_on_c, 0, 66, 0
2, 51070, Control_c, 0, 64, 127
2, 51071, Note_on_c, 0, 78, 0
2, 51075, Note_on_c, 0, 64, 85
2, 51075, Note_on_c, 0, 76, 93
2, 51087, Note_on_c, 0, 76, 0
2, 51090, Note_on_c, 0, 66, 76
2, 51090, Note_on_c, 0, 78, 93
2, 51091, Note_on_c, 0, 64, 0
2, 51100, Note_on_c, 0, 78, 0
2, 51102, Note_on_c, 0, 66, 0
2, 51105, Note_on_c, 0, 64, 68
2, 51105, Note_on_c, 0, 76, 98
2, 51113, Control_c, 0, 64, 0
2, 51114, Note_on_c, 0, 76, 0
2, 51117, Note_on_c, 0, 64, 0
2, 51120, Note_on_c, 0, 66, 89
2, 51120, Note_on_c, 0, 78, 107
2, 51128, Control_c, 0, 64, 127
2, 51180, Note_on_c, 0, 79, 107
2, 51180, Note_on_c, 0, 67, 93
2, 51181, Control_c, 0, 64, 0
2, 51184, Note_on_c, 0, 78, 0
2, 51186, Note_on_c, 0, 66, 0
2, 51192, Control_c, 0, 64, 127
2, 51213, Note_on_c, 0, 79, 0
2, 51213, Note_on_c, 0, 67, 0
2, 51240, Note_on_c, 0, 79, 93
2, 51240, Note_on_c, 0, 67, 89
2, 51242, Control_c, 0, 64, 0
2, 51256, Control_c, 0, 64, 127
2, 51314, Note_on_c, 0, 67, 0
2, 51316, Note_on_c, 0, 79, 0
2, 51359, Control_c, 0, 64, 0
2, 51360, Note_on_c, 0, 62, 89
2, 51360, Note_on_c, 0, 74, 102
2, 51371, Control_c, 0, 64, 127
2, 51415, Note_on_c, 0, 74, 0
2, 51417, Note_on_c, 0, 62, 0
2, 51419, Control_c, 0, 64, 0
2, 51420, Note_on_c, 0, 79, 107
2, 51420, Note_on_c, 0, 67, 89
2, 51428, Control_c, 0, 64, 127
2, 51453, Note_on_c, 0, 67, 0
2, 51453, Note_on_c, 0, 79, 0
2, 51477, Control_c, 0, 64, 0
2, 51480, Note_on_c, 0, 71, 93
2, 51480, Note_on_c, 0, 83, 107
2, 51489, Control_c, 0, 64, 127
2, 51535, Note_on_c, 0, 83, 0
2, 51538, Control_c, 0, 64, 0
2, 51539, Note_on_c, 0, 71, 0
2, 51540, Note_on_c, 0, 74, 85
2, 51540, Note_on_c, 0, 86, 107
2, 51548, Control_c, 0, 64, 127
2, 51570, Note_on_c, 0, 74, 0
2, 51573, Note_on_c, 0, 86, 0
2, 51600, Note_on_c, 0, 74, 89
2, 51600, Note_on_c, 0, 86, 113
2, 51601, Control_c, 0, 64, 0
2, 51613, Control_c, 0, 64, 127
2, 51627, Note_on_c, 0, 86, 0
2, 51629, Note_on_c, 0, 74, 0
2, 51630, Note_on_c, 0, 72, 85
2, 51630, Control_c, 0, 64, 0
2, 51630, Note_on_c, 0, 84, 93
2, 51644, Control_c, 0, 64, 127
2, 51657, Note_on_c, 0, 84, 0
2, 51658, Note_on_c, 0, 72, 0
2, 51659, Control_c, 0, 64, 0
2, 51660, Note_on_c, 0, 71, 80
2, 51660, Note_on_c, 0, 83, 89
2, 51671, Control_c, 0, 64, 127
2, 51688, Note_on_c, 0, 71, 0
2, 51689, Note_on_c, 0, 83, 0
2, 51690, Note_on_c, 0, 69, 68
2, 51690, Note_on_c, 0, 81, 93
2, 51714, Note_on_c, 0, 69, 0
2, 51719, Control_c, 0, 64, 0
2, 51720, Note_on_c, 0, 67, 53
2, 51720, Note_on_c, 0, 79, 107
2, 51721, Note_on_c, 0, 81, 0
2, 51735, Control_c, 0, 64, 127
2, 51812, Note_on_c, 0, 67, 0
2, 51820, Note_on_c, 0, 79, 0
2, 51837, Control_c, 0, 64, 0
2, 51840, Note_on_c, 0, 67, 89
2, 51840, Note_on_c, 0, 79, 98
2, 51850, Control_c, 0, 64, 127
2, 51854, Note_on_c, 0, 79, 0
2, 51855, Note_on_c, 0, 66, 76
2, 51855, Note_on_c, 0, 78, 102
2, 51856, Note_on_c, 0, 67, 0
2, 51866, Note_on_c, 0, 78, 0
2, 51869, Note_on_c, 0, 66, 0
2, 51869, Control_c, 0, 64, 0
2, 51870, Note_on_c, 0, 67, 72
2, 51870, Note_on_c, 0, 79, 98
2, 51883, Note_on_c, 0, 79, 0
2, 51885, Note_on_c, 0, 67, 0
2, 51885, Note_on_c, 0, 66, 80
2, 51885, Note_on_c, 0, 78, 98
2, 51895, Note_on_c, 0, 78, 0
2, 51899, Note_on_c, 0, 66, 0
2, 51900, Note_on_c, 0, 67, 76
2, 51900, Note_on_c, 0, 79, 93
2, 51908, Control_c, 0, 64, 127
2, 51914, Note_on_c, 0, 79, 0
2, 51915, Note_on_c, 0, 67, 0
2, 51915, Note_on_c, 0, 66, 62
2, 51915, Note_on_c, 0, 78, 93
2, 51928, Note_on_c, 0, 78, 0
2, 51929, Note_on_c, 0, 66, 0
2, 51930, Note_on_c, 0, 64, 80
2, 51930, Note_on_c, 0, 76, 80
2, 51931, Control_c, 0, 64, 0
2, 51944, Note_on_c, 0, 76, 0
2, 51945, Note_on_c, 0, 78, 93
2, 51945, Note_on_c, 0, 66, 89
2, 51948, Note_on_c, 0, 64, 0
2, 51957, Note_on_c, 0, 78, 0
2, 51958, Note_on_c, 0, 66, 0
2, 51960, Note_on_c, 0, 79, 107
2, 51960, Note_on_c, 0, 67, 85
2, 51971, Control_c, 0, 64, 127
2, 52081, Control_c, 0, 64, 0
2, 52085, Note_on_c, 0, 67, 0
2, 52088, Note_on_c, 0, 79, 0
2, 52320, Note_on_c, 0, 71, 93
2, 52320, Note_on_c, 0, 83, 113
2, 52337, Control_c, 0, 64, 127
2, 52497, Control_c, 0, 64, 0
2, 52498, Note_on_c, 0, 83, 0
2, 52499, Note_on_c, 0, 71, 0
2, 52500, Note_on_c, 0, 86, 107
2, 52500, Note_on_c, 0, 74, 93
2, 52508, Control_c, 0, 64, 127
2, 52526, Note_on_c, 0, 86, 0
2, 52535, Note_on_c, 0, 74, 0
2, 52560, Note_on_c, 0, 69, 93
2, 52560, Note_on_c, 0, 81, 102
2, 52562, Control_c, 0, 64, 0
2, 52574, Control_c, 0, 64, 127
2, 52617, Note_on_c, 0, 81, 0
2, 52618, Note_on_c, 0, 69, 0
2, 52619, Control_c, 0, 64, 0
2, 52620, Note_on_c, 0, 78, 93
2, 52620, Note_on_c, 0, 66, 93
2, 52631, Control_c, 0, 64, 127
2, 52679, Note_on_c, 0, 78, 0
2, 52680, Note_on_c, 0, 66, 0
2, 52680, Note_on_c, 0, 79, 93
2, 52680, Note_on_c, 0, 67, 85
2, 52688, Control_c, 0, 64, 0
2, 52710, Control_c, 0, 64, 127
2, 52857, Note_on_c, 0, 67, 0
2, 52859, Note_on_c, 0, 79, 0
2, 52860, Note_on_c, 0, 64, 80
2, 52860, Note_on_c, 0, 76, 102
2, 52862, Control_c, 0, 64, 0
2, 52878, Control_c, 0, 64, 127
2, 52918, Control_c, 0, 64, 0
2, 52919, Note_on_c, 0, 76, 0
2, 52920, Note_on_c, 0, 64, 0
2, 52920, Note_on_c, 0, 66, 85
2, 52920, Note_on_c, 0, 78, 89
2, 52935, Control_c, 0, 64, 127
2, 52974, Control_c, 0, 64, 0
2, 52976, Note_on_c, 0, 78, 0
2, 52979, Note_on_c, 0, 66, 0
2, 52980, Note_on_c, 0, 74, 98
2, 52980, Note_on_c, 0, 62, 98
2, 52986, Control_c, 0, 64, 127
2, 53000, Note_on_c, 0, 62, 0
2, 53009, Note_on_c, 0, 74, 0
2, 53038, Control_c, 0, 64, 0
2, 53040, Note_on_c, 0, 83, 107
2, 53040, Note_on_c, 0, 71, 93
2, 53056, Control_c, 0, 64, 127
2, 53217, Note_on_c, 0, 71, 0
2, 53217, Note_on_c, 0, 83, 0
2, 53217, Control_c, 0, 64, 0
2, 53220, Note_on_c, 0, 67, 89
2, 53220, Note_on_c, 0, 79, 98
2, 53231, Control_c, 0, 64, 127
2, 53269, Control_c, 0, 64, 0
2, 53272, Note_on_c, 0, 67, 0
2, 53274, Note_on_c, 0, 79, 0
2, 53280, Note_on_c, 0, 76, 98
2, 53280, Note_on_c, 0, 64, 89
2, 53282, Control_c, 0, 64, 127
2, 53305, Note_on_c, 0, 64, 0
2, 53313, Note_on_c, 0, 76, 0
2, 53337, Control_c, 0, 64, 0
2, 53340, Note_on_c, 0, 76, 102
2, 53340, Note_on_c, 0, 88, 113
2, 53351, Control_c, 0, 64, 127
2, 53376, Note_on_c, 0, 76, 0
2, 53380, Note_on_c, 0, 88, 0
2, 53400, Note_on_c, 0, 86, 107
2, 53400, Note_on_c, 0, 74, 93
2, 53404, Control_c, 0, 64, 0
2, 53420, Control_c, 0, 64, 127
2, 53520, Note_on_c, 0, 73, 80
2, 53520, Note_on_c, 0, 85, 98
2, 53521, Note_on_c, 0, 74, 0
2, 53523, Note_on_c, 0, 86, 0
2, 53524, Control_c, 0, 64, 0
2, 53538, Control_c, 0, 64, 127
2, 53642, Note_on_c, 0, 85, 0
2, 53645, Control_c, 0, 64, 0
2, 53646, Note_on_c, 0, 73, 0
2, 53760, Note_on_c, 0, 57, 68
2, 53760, Note_on_c, 0, 69, 72
2, 53770, Control_c, 0, 64, 127
2, 53788, Note_on_c, 0, 57, 0
2, 53790, Note_on_c, 0, 66, 46
2, 53818, Note_on_c, 0, 66, 0
2, 53820, Note_on_c, 0, 62, 72
2, 53843, Note_on_c, 0, 69, 0
2, 53848, Note_on_c, 0, 62, 0
2, 53850, Note_on_c, 0, 66, 68
2, 53850, Note_on_c, 0, 71, 85
2, 53862, Note_on_c, 0, 66, 0
2, 53867, Note_on_c, 0, 71, 0
2, 53880, Note_on_c, 0, 57, 80
2, 53880, Note_on_c, 0, 69, 76
2, 53881, Control_c, 0, 64, 0
2, 53893, Control_c, 0, 64, 127
2, 53909, Note_on_c, 0, 57, 0
2, 53910, Note_on_c, 0, 66, 50
2, 53923, Note_on_c, 0, 69, 0
2, 53935, Note_on_c, 0, 66, 0
2, 53940, Note_on_c, 0, 62, 62
2, 53940, Note_on_c, 0, 74, 80
2, 53970, Note_on_c, 0, 66, 55
2, 53974, Note_on_c, 0, 62, 0
2, 53975, Note_on_c, 0, 74, 0
2, 53991, Note_on_c, 0, 66, 0
2, 54000, Note_on_c, 0, 57, 76
2, 54000, Note_on_c, 0, 76, 89
2, 54002, Control_c, 0, 64, 0
2, 54013, Control_c, 0, 64, 127
2, 54030, Note_on_c, 0, 66, 53
2, 54036, Note_on_c, 0, 57, 0
2, 54038, Note_on_c, 0, 76, 0
2, 54052, Note_on_c, 0, 66, 0
2, 54060, Note_on_c, 0, 62, 68
2, 54060, Note_on_c, 0, 78, 80
2, 54090, Note_on_c, 0, 62, 0
2, 54090, Note_on_c, 0, 66, 56
2, 54092, Note_on_c, 0, 78, 0
2, 54104, Note_on_c, 0, 66, 0
2, 54120, Note_on_c, 0, 78, 98
2, 54120, Note_on_c, 0, 57, 89
2, 54121, Control_c, 0, 64, 0
2, 54134, Control_c, 0, 64, 127
2, 54150, Note_on_c, 0, 64, 57
2, 54154, Note_on_c, 0, 57, 0
2, 54160, Note_on_c, 0, 78, 0
2, 54174, Note_on_c, 0, 64, 0
2, 54180, Note_on_c, 0, 61, 57
2, 54180, Note_on_c, 0, 79, 85
2, 54208, Note_on_c, 0, 79, 0
2, 54210, Note_on_c, 0, 61, 0
2, 54210, Note_on_c, 0, 64, 62
2, 54227, Note_on_c, 0, 64, 0
2, 54240, Note_on_c, 0, 79, 85
2, 54240, Note_on_c, 0, 57, 72
2, 54244, Control_c, 0, 64, 0
2, 54256, Control_c, 0, 64, 127
2, 54270, Note_on_c, 0, 64, 50
2, 54277, Note_on_c, 0, 57, 0
2, 54298, Note_on_c, 0, 64, 0
2, 54300, Note_on_c, 0, 61, 60
2, 54328, Note_on_c, 0, 61, 0
2, 54330, Note_on_c, 0, 64, 60
2, 54358, Note_on_c, 0, 64, 0
2, 54360, Note_on_c, 0, 57, 72
2, 54362, Control_c, 0, 64, 0
2, 54371, Control_c, 0, 64, 127
2, 54389, Note_on_c, 0, 57, 0
2, 54390, Note_on_c, 0, 64, 50
2, 54419, Note_on_c, 0, 64, 0
2, 54420, Note_on_c, 0, 61, 64
2, 54422, Note_on_c, 0, 79, 0
2, 54449, Note_on_c, 0, 61, 0
2, 54450, Note_on_c, 0, 64, 55
2, 54466, Note_on_c, 0, 64, 0
2, 54480, Control_c, 0, 64, 0
2, 54480, Note_on_c, 0, 69, 89
2, 54480, Note_on_c, 0, 57, 76
2, 54493, Control_c, 0, 64, 127
2, 54506, Note_on_c, 0, 57, 0
2, 54510, Note_on_c, 0, 66, 57
2, 54535, Note_on_c, 0, 66, 0
2, 54540, Note_on_c, 0, 62, 80
2, 54552, Note_on_c, 0, 69, 0
2, 54569, Note_on_c, 0, 62, 0
2, 54570, Note_on_c, 0, 66, 56
2, 54570, Note_on_c, 0, 71, 89
2, 54585, Note_on_c, 0, 71, 0
2, 54588, Note_on_c, 0, 66, 0
2, 54600, Note_on_c, 0, 57, 72
2, 54600, Note_on_c, 0, 69, 76
2, 54602, Control_c, 0, 64, 0
2, 54615, Control_c, 0, 64, 127
2, 54628, Note_on_c, 0, 57, 0
2, 54630, Note_on_c, 0, 66, 47
2, 54637, Note_on_c, 0, 69, 0
2, 54653, Note_on_c, 0, 66, 0
2, 54660, Note_on_c, 0, 74, 93
2, 54660, Note_on_c, 0, 62, 72
2, 54666, Control_c, 0, 64, 0
2, 54674, Control_c, 0, 64, 127
2, 54690, Note_on_c, 0, 66, 55
2, 54691, Note_on_c, 0, 62, 0
2, 54705, Note_on_c, 0, 74, 0
2, 54707, Note_on_c, 0, 66, 0
2, 54720, Note_on_c, 0, 76, 89
2, 54720, Note_on_c, 0, 57, 68
2, 54724, Control_c, 0, 64, 0
2, 54735, Control_c, 0, 64, 127
2, 54749, Note_on_c, 0, 57, 0
2, 54750, Note_on_c, 0, 66, 45
2, 54755, Note_on_c, 0, 76, 0
2, 54773, Note_on_c, 0, 66, 0
2, 54780, Note_on_c, 0, 78, 85
2, 54780, Note_on_c, 0, 62, 68
2, 54785, Control_c, 0, 64, 0
2, 54795, Control_c, 0, 64, 127
2, 54810, Note_on_c, 0, 66, 51
2, 54813, Note_on_c, 0, 62, 0
2, 54816, Note_on_c, 0, 78, 0
2, 54825, Note_on_c, 0, 66, 0
2, 54840, Note_on_c, 0, 57, 76
2, 54840, Note_on_c, 0, 78, 76
2, 54842, Control_c, 0, 64, 0
2, 54854, Control_c, 0, 64, 127
2, 54870, Note_on_c, 0, 64, 59
2, 54872, Note_on_c, 0, 57, 0
2, 54881, Note_on_c, 0, 78, 0
2, 54896, Note_on_c, 0, 64, 0
2, 54900, Note_on_c, 0, 61, 56
2, 54900, Note_on_c, 0, 79, 93
2, 54903, Control_c, 0, 64, 0
2, 54912, Control_c, 0, 64, 127
2, 54930, Note_on_c, 0, 64, 56
2, 54932, Note_on_c, 0, 61, 0
2, 54938, Note_on_c, 0, 79, 0
2, 54955, Note_on_c, 0, 64, 0
2, 54960, Note_on_c, 0, 57, 68
2, 54960, Note_on_c, 0, 79, 80
2, 54962, Control_c, 0, 64, 0
2, 54974, Control_c, 0, 64, 127
2, 54990, Note_on_c, 0, 64, 52
2, 54994, Note_on_c, 0, 57, 0
2, 55017, Note_on_c, 0, 64, 0
2, 55020, Note_on_c, 0, 61, 51
2, 55050, Note_on_c, 0, 61, 0
2, 55050, Note_on_c, 0, 64, 57
2, 55080, Note_on_c, 0, 57, 68
2, 55082, Note_on_c, 0, 64, 0
2, 55082, Control_c, 0, 64, 0
2, 55093, Control_c, 0, 64, 127
2, 55110, Note_on_c, 0, 57, 0
2, 55110, Note_on_c, 0, 64, 62
2, 55134, Note_on_c, 0, 64, 0
2, 55140, Note_on_c, 0, 61, 56
2, 55170, Note_on_c, 0, 61, 0
2, 55170, Note_on_c, 0, 79, 0
2, 55170, Note_on_c, 0, 64, 57
2, 55187, Note_on_c, 0, 64, 0
2, 55199, Control_c, 0, 64, 0
2, 55200, Note_on_c, 0, 57, 76
2, 55200, Note_on_c, 0, 83, 93
2, 55208, Control_c, 0, 64, 127
2, 55211, Note_on_c, 0, 83, 0
2, 55215, Note_on_c, 0, 81, 85
2, 55223, Note_on_c, 0, 81, 0
2, 55226, Note_on_c, 0, 57, 0
2, 55230, Note_on_c, 0, 83, 85
2, 55230, Note_on_c, 0, 62, 76
2, 55240, Note_on_c, 0, 83, 0
2, 55245, Note_on_c, 0, 81, 89
2, 55253, Note_on_c, 0, 81, 0
2, 55255, Note_on_c, 0, 62, 0
2, 55258, Control_c, 0, 64, 0
2, 55260, Note_on_c, 0, 83, 93
2, 55260, Note_on_c, 0, 66, 72
2, 55270, Note_on_c, 0, 83, 0
2, 55270, Control_c, 0, 64, 127
2, 55275, Note_on_c, 0, 81, 89
2, 55284, Note_on_c, 0, 81, 0
2, 55285, Note_on_c, 0, 66, 0
2, 55286, Control_c, 0, 64, 0
2, 55290, Note_on_c, 0, 83, 98
2, 55290, Note_on_c, 0, 64, 93
2, 55297, Control_c, 0, 64, 127
2, 55302, Note_on_c, 0, 83, 0
2, 55306, Note_on_c, 0, 64, 0
2, 55319, Control_c, 0, 64, 0
2, 55320, Note_on_c, 0, 66, 56
2, 55320, Note_on_c, 0, 74, 89
2, 55346, Control_c, 0, 64, 127
2, 55350, Note_on_c, 0, 69, 72
2, 55352, Note_on_c, 0, 66, 0
2, 55380, Note_on_c, 0, 66, 72
2, 55381, Note_on_c, 0, 69, 0
2, 55403, Note_on_c, 0, 66, 0
2, 55410, Note_on_c, 0, 62, 76
2, 55411, Note_on_c, 0, 74, 0
2, 55428, Note_on_c, 0, 62, 0
2, 55440, Note_on_c, 0, 64, 80
2, 55440, Note_on_c, 0, 73, 89
2, 55441, Control_c, 0, 64, 0
2, 55456, Control_c, 0, 64, 127
2, 55470, Note_on_c, 0, 67, 62
2, 55473, Note_on_c, 0, 64, 0
2, 55499, Note_on_c, 0, 67, 0
2, 55500, Note_on_c, 0, 69, 72
2, 55520, Note_on_c, 0, 73, 0
2, 55521, Note_on_c, 0, 69, 0
2, 55530, Note_on_c, 0, 67, 76
2, 55540, Note_on_c, 0, 67, 0
2, 55560, Note_on_c, 0, 69, 89
2, 55560, Note_on_c, 0, 73, 80
2, 55560, Note_on_c, 0, 64, 68
2, 55560, Note_on_c, 0, 67, 80
2, 55562, Control_c, 0, 64, 0
2, 55582, Control_c, 0, 64, 127
2, 55777, Note_on_c, 0, 64, 0
2, 55783, Note_on_c, 0, 67, 0
2, 55800, Note_on_c, 0, 62, 60
2, 55800, Note_on_c, 0, 74, 76
2, 55800, Note_on_c, 0, 66, 57
2, 55802, Note_on_c, 0, 69, 0
2, 55805, Note_on_c, 0, 73, 0
2, 55808, Control_c, 0, 64, 0
2, 55821, Control_c, 0, 64, 127
2, 55863, Note_on_c, 0, 62, 0
2, 55864, Note_on_c, 0, 66, 0
2, 55865, Note_on_c, 0, 74, 0
2, 55908, Control_c, 0, 64, 0
2, 55920, Note_on_c, 0, 69, 98
2, 55920, Note_on_c, 0, 81, 113
2, 55931, Control_c, 0, 64, 127
2, 55948, Note_on_c, 0, 69, 0
2, 55949, Note_on_c, 0, 81, 0
2, 55950, Note_on_c, 0, 71, 93
2, 55950, Note_on_c, 0, 83, 89
2, 55952, Control_c, 0, 64, 0
2, 55979, Note_on_c, 0, 83, 0
2, 55980, Note_on_c, 0, 69, 98
2, 55980, Note_on_c, 0, 81, 98
2, 55981, Note_on_c, 0, 71, 0
2, 55984, Control_c, 0, 64, 127
2, 56009, Note_on_c, 0, 81, 0
2, 56009, Note_on_c, 0, 69, 0
2, 56010, Note_on_c, 0, 68, 72
2, 56010, Note_on_c, 0, 80, 107
2, 56011, Control_c, 0, 64, 0
2, 56039, Note_on_c, 0, 80, 0
2, 56040, Note_on_c, 0, 69, 93
2, 56040, Note_on_c, 0, 81, 102
2, 56043, Note_on_c, 0, 68, 0
2, 56046, Control_c, 0, 64, 127
2, 56066, Control_c, 0, 64, 0
2, 56068, Note_on_c, 0, 81, 0
2, 56070, Note_on_c, 0, 69, 0
2, 56070, Note_on_c, 0, 74, 76
2, 56070, Note_on_c, 0, 86, 102
2, 56095, Note_on_c, 0, 86, 0
2, 56096, Note_on_c, 0, 74, 0
2, 56100, Note_on_c, 0, 69, 89
2, 56100, Note_on_c, 0, 81, 102
2, 56103, Control_c, 0, 64, 127
2, 56128, Note_on_c, 0, 81, 0
2, 56128, Note_on_c, 0, 69, 0
2, 56130, Note_on_c, 0, 66, 62
2, 56130, Note_on_c, 0, 78, 102
2, 56155, Note_on_c, 0, 78, 0
2, 56159, Note_on_c, 0, 66, 0
2, 56159, Control_c, 0, 64, 0
2, 56160, Note_on_c, 0, 67, 89
2, 56160, Note_on_c, 0, 79, 107
2, 56176, Control_c, 0, 64, 127
2, 56190, Note_on_c, 0, 79, 0
2, 56190, Note_on_c, 0, 64, 76
2, 56190, Note_on_c, 0, 76, 93
2, 56191, Note_on_c, 0, 67, 0
2, 56216, Note_on_c, 0, 76, 0
2, 56217, Control_c, 0, 64, 0
2, 56219, Note_on_c, 0, 64, 0
2, 56220, Note_on_c, 0, 69, 93
2, 56220, Note_on_c, 0, 81, 102
2, 56230, Control_c, 0, 64, 127
2, 56250, Note_on_c, 0, 62, 85
2, 56250, Note_on_c, 0, 74, 98
2, 56252, Note_on_c, 0, 81, 0
2, 56252, Note_on_c, 0, 69, 0
2, 56261, Note_on_c, 0, 62, 0
2, 56263, Note_on_c, 0, 74, 0
2, 56277, Control_c, 0, 64, 0
2, 56280, Note_on_c, 0, 74, 107
2, 56280, Note_on_c, 0, 62, 93
2, 56291, Control_c, 0, 64, 127
2, 56310, Note_on_c, 0, 74, 0
2, 56310, Note_on_c, 0, 66, 85
2, 56310, Note_on_c, 0, 78, 85
2, 56311, Note_on_c, 0, 62, 0
2, 56335, Note_on_c, 0, 78, 0
2, 56336, Note_on_c, 0, 66, 0
2, 56340, Note_on_c, 0, 64, 80
2, 56340, Note_on_c, 0, 76, 107
2, 56341, Control_c, 0, 64, 0
2, 56356, Control_c, 0, 64, 127
2, 56367, Note_on_c, 0, 76, 0
2, 56369, Note_on_c, 0, 64, 0
2, 56370, Note_on_c, 0, 62, 89
2, 56370, Note_on_c, 0, 74, 102
2, 56381, Note_on_c, 0, 74, 0
2, 56388, Note_on_c, 0, 62, 0
2, 56398, Control_c, 0, 64, 0
2, 56400, Note_on_c, 0, 61, 80
2, 56400, Note_on_c, 0, 73, 113
2, 56412, Control_c, 0, 64, 127
2, 56428, Note_on_c, 0, 73, 0
2, 56430, Note_on_c, 0, 62, 93
2, 56430, Note_on_c, 0, 74, 98
2, 56431, Note_on_c, 0, 61, 0
2, 56456, Note_on_c, 0, 74, 0
2, 56458, Note_on_c, 0, 62, 0
2, 56459, Control_c, 0, 64, 0
2, 56460, Note_on_c, 0, 64, 80
2, 56460, Note_on_c, 0, 76, 93
2, 56472, Control_c, 0, 64, 127
2, 56487, Note_on_c, 0, 76, 0
2, 56490, Note_on_c, 0, 64, 0
2, 56490, Note_on_c, 0, 62, 85
2, 56490, Note_on_c, 0, 74, 93
2, 56493, Control_c, 0, 64, 0
2, 56504, Control_c, 0, 64, 127
2, 56519, Note_on_c, 0, 74, 0
2, 56519, Note_on_c, 0, 62, 0
2, 56520, Control_c, 0, 64, 0
2, 56520, Note_on_c, 0, 61, 76
2, 56520, Note_on_c, 0, 73, 89
2, 56533, Control_c, 0, 64, 127
2, 56547, Note_on_c, 0, 61, 0
2, 56549, Note_on_c, 0, 73, 0
2, 56550, Note_on_c, 0, 59, 89
2, 56550, Note_on_c, 0, 71, 89
2, 56554, Control_c, 0, 64, 0
2, 56565, Control_c, 0, 64, 127
2, 56578, Note_on_c, 0, 71, 0
2, 56579, Note_on_c, 0, 59, 0
2, 56580, Note_on_c, 0, 61, 68
2, 56580, Note_on_c, 0, 73, 89
2, 56583, Control_c, 0, 64, 0
2, 56597, Control_c, 0, 64, 127
2, 56608, Note_on_c, 0, 73, 0
2, 56610, Note_on_c, 0, 57, 93
2, 56610, Note_on_c, 0, 69, 93
2, 56611, Note_on_c, 0, 61, 0
2, 56617, Note_on_c, 0, 57, 0
2, 56618, Note_on_c, 0, 69, 0
2, 56639, Control_c, 0, 64, 0
2, 56640, Note_on_c, 0, 69, 93
2, 56640, Note_on_c, 0, 81, 98
2, 56653, Control_c, 0, 64, 127
2, 56669, Note_on_c, 0, 81, 0
2, 56670, Note_on_c, 0, 83, 89
2, 56670, Note_on_c, 0, 71, 80
2, 56671, Note_on_c, 0, 69, 0
2, 56700, Note_on_c, 0, 71, 0
2, 56700, Note_on_c, 0, 83, 0
2, 56700, Control_c, 0, 64, 0
2, 56700, Note_on_c, 0, 69, 93
2, 56700, Note_on_c, 0, 81, 98
2, 56711, Control_c, 0, 64, 127
2, 56729, Note_on_c, 0, 81, 0
2, 56729, Control_c, 0, 64, 0
2, 56730, Note_on_c, 0, 69, 0
2, 56730, Note_on_c, 0, 80, 89
2, 56730, Note_on_c, 0, 68, 72
2, 56737, Control_c, 0, 64, 127
2, 56757, Note_on_c, 0, 80, 0
2, 56758, Control_c, 0, 64, 0
2, 56760, Note_on_c, 0, 69, 93
2, 56760, Note_on_c, 0, 81, 98
2, 56761, Note_on_c, 0, 68, 0
2, 56770, Control_c, 0, 64, 127
2, 56788, Note_on_c, 0, 81, 0
2, 56788, Control_c, 0, 64, 0
2, 56790, Note_on_c, 0, 86, 93
2, 56790, Note_on_c, 0, 74, 72
2, 56791, Note_on_c, 0, 69, 0
2, 56797, Control_c, 0, 64, 127
2, 56815, Note_on_c, 0, 74, 0
2, 56815, Note_on_c, 0, 86, 0
2, 56820, Note_on_c, 0, 69, 76
2, 56820, Note_on_c, 0, 81, 89
2, 56820, Control_c, 0, 64, 0
2, 56830, Control_c, 0, 64, 127
2, 56847, Note_on_c, 0, 81, 0
2, 56849, Note_on_c, 0, 69, 0
2, 56850, Note_on_c, 0, 78, 85
2, 56850, Note_on_c, 0, 66, 72
2, 56875, Note_on_c, 0, 66, 0
2, 56878, Note_on_c, 0, 78, 0
2, 56878, Control_c, 0, 64, 0
2, 56880, Note_on_c, 0, 67, 80
2, 56880, Note_on_c, 0, 79, 93
2, 56892, Control_c, 0, 64, 127
2, 56909, Note_on_c, 0, 79, 0
2, 56909, Note_on_c, 0, 67, 0
2, 56910, Note_on_c, 0, 64, 80
2, 56910, Note_on_c, 0, 76, 89
2, 56933, Control_c, 0, 64, 0
2, 56937, Note_on_c, 0, 76, 0
2, 56940, Note_on_c, 0, 64, 0
2, 56940, Note_on_c, 0, 81, 93
2, 56940, Note_on_c, 0, 69, 80
2, 56947, Control_c, 0, 64, 127
2, 56969, Note_on_c, 0, 69, 0
2, 56969, Note_on_c, 0, 81, 0
2, 56970, Note_on_c, 0, 74, 89
2, 56970, Note_on_c, 0, 62, 76
2, 56979, Note_on_c, 0, 62, 0
2, 56981, Note_on_c, 0, 74, 0
2, 57000, Note_on_c, 0, 62, 89
2, 57000, Control_c, 0, 64, 0
2, 57000, Note_on_c, 0, 74, 102
2, 57013, Control_c, 0, 64, 127
2, 57030, Note_on_c, 0, 74, 0
2, 57030, Note_on_c, 0, 78, 80
2, 57030, Note_on_c, 0, 66, 68
2, 57031, Note_on_c, 0, 62, 0
2, 57035, Control_c, 0, 64, 0
2, 57059, Note_on_c, 0, 66, 0
2, 57060, Note_on_c, 0, 78, 0
2, 57060, Note_on_c, 0, 76, 93
2, 57060, Note_on_c, 0, 64, 76
2, 57066, Control_c, 0, 64, 127
2, 57087, Note_on_c, 0, 64, 0
2, 57088, Note_on_c, 0, 76, 0
2, 57090, Note_on_c, 0, 62, 80
2, 57090, Note_on_c, 0, 74, 93
2, 57098, Note_on_c, 0, 74, 0
2, 57098, Note_on_c, 0, 62, 0
2, 57120, Note_on_c, 0, 73, 107
2, 57120, Note_on_c, 0, 61, 85
2, 57120, Control_c, 0, 64, 0
2, 57132, Control_c, 0, 64, 127
2, 57147, Note_on_c, 0, 73, 0
2, 57149, Note_on_c, 0, 61, 0
2, 57150, Note_on_c, 0, 62, 80
2, 57150, Note_on_c, 0, 74, 89
2, 57154, Control_c, 0, 64, 0
2, 57165, Control_c, 0, 64, 127
2, 57178, Control_c, 0, 64, 0
2, 57179, Note_on_c, 0, 74, 0
2, 57180, Note_on_c, 0, 76, 80
2, 57180, Note_on_c, 0, 64, 89
2, 57182, Note_on_c, 0, 62, 0
2, 57190, Control_c, 0, 64, 127
2, 57208, Note_on_c, 0, 64, 0
2, 57209, Note_on_c, 0, 76, 0
2, 57209, Control_c, 0, 64, 0
2, 57210, Note_on_c, 0, 62, 89
2, 57210, Note_on_c, 0, 74, 89
2, 57218, Control_c, 0, 64, 127
2, 57236, Control_c, 0, 64, 0
2, 57238, Note_on_c, 0, 74, 0
2, 57238, Note_on_c, 0, 62, 0
2, 57240, Note_on_c, 0, 61, 80
2, 57240, Note_on_c, 0, 73, 89
2, 57248, Control_c, 0, 64, 127
2, 57266, Note_on_c, 0, 73, 0
2, 57266, Note_on_c, 0, 61, 0
2, 57267, Control_c, 0, 64, 0
2, 57270, Note_on_c, 0, 71, 89
2, 57270, Note_on_c, 0, 59, 76
2, 57278, Control_c, 0, 64, 127
2, 57296, Control_c, 0, 64, 0
2, 57298, Note_on_c, 0, 71, 0
2, 57300, Note_on_c, 0, 61, 72
2, 57300, Note_on_c, 0, 73, 89
2, 57301, Note_on_c, 0, 59, 0
2, 57308, Control_c, 0, 64, 127
2, 57327, Note_on_c, 0, 73, 0
2, 57329, Note_on_c, 0, 61, 0
2, 57330, Note_on_c, 0, 57, 89
2, 57330, Note_on_c, 0, 69, 93
2, 57337, Note_on_c, 0, 57, 0
2, 57338, Note_on_c, 0, 69, 0
2, 57353, Control_c, 0, 64, 0
2, 57360, Note_on_c, 0, 71, 76
2, 57360, Note_on_c, 0, 83, 107
2, 57371, Note_on_c, 0, 83, 0
2, 57374, Control_c, 0, 64, 127
2, 57375, Note_on_c, 0, 71, 0
2, 57375, Note_on_c, 0, 81, 98
2, 57375, Note_on_c, 0, 69, 89
2, 57384, Note_on_c, 0, 81, 0
2, 57388, Note_on_c, 0, 69, 0
2, 57390, Note_on_c, 0, 71, 85
2, 57390, Note_on_c, 0, 83, 93
2, 57400, Note_on_c, 0, 83, 0
2, 57404, Note_on_c, 0, 71, 0
2, 57405, Note_on_c, 0, 69, 89
2, 57405, Note_on_c, 0, 81, 93
2, 57415, Note_on_c, 0, 81, 0
2, 57417, Note_on_c, 0, 69, 0
2, 57420, Note_on_c, 0, 71, 80
2, 57420, Note_on_c, 0, 83, 85
2, 57431, Note_on_c, 0, 83, 0
2, 57434, Note_on_c, 0, 71, 0
2, 57435, Note_on_c, 0, 69, 89
2, 57435, Note_on_c, 0, 81, 93
2, 57443, Control_c, 0, 64, 0
2, 57444, Note_on_c, 0, 81, 0
2, 57446, Note_on_c, 0, 69, 0
2, 57450, Note_on_c, 0, 83, 113
2, 57450, Note_on_c, 0, 71, 76
2, 57455, Control_c, 0, 64, 127
2, 57465, Note_on_c, 0, 83, 0
2, 57472, Note_on_c, 0, 71, 0
2, 57476, Control_c, 0, 64, 0
2, 57480, Note_on_c, 0, 66, 72
2, 57480, Note_on_c, 0, 74, 107
2, 57493, Control_c, 0, 64, 127
2, 57510, Note_on_c, 0, 69, 64
2, 57511, Note_on_c, 0, 66, 0
2, 57535, Note_on_c, 0, 69, 0
2, 57540, Note_on_c, 0, 66, 60
2, 57566, Note_on_c, 0, 66, 0
2, 57570, Note_on_c, 0, 69, 55
2, 57587, Note_on_c, 0, 74, 0
2, 57600, Note_on_c, 0, 67, 62
2, 57600, Note_on_c, 0, 73, 76
2, 57601, Note_on_c, 0, 69, 0
2, 57605, Control_c, 0, 64, 0
2, 57619, Control_c, 0, 64, 127
2, 57628, Note_on_c, 0, 67, 0
2, 57630, Note_on_c, 0, 69, 64
2, 57658, Note_on_c, 0, 69, 0
2, 57660, Note_on_c, 0, 67, 62
2, 57690, Note_on_c, 0, 69, 72
2, 57692, Note_on_c, 0, 67, 0
2, 57696, Note_on_c, 0, 73, 0
2, 57701, Note_on_c, 0, 69, 0
2, 57720, Note_on_c, 0, 73, 80
2, 57720, Note_on_c, 0, 67, 56
2, 57720, Note_on_c, 0, 69, 80
2, 57724, Control_c, 0, 64, 0
2, 57737, Control_c, 0, 64, 127
2, 57824, Note_on_c, 0, 69, 0
2, 57827, Note_on_c, 0, 67, 0
2, 57833, Note_on_c, 0, 73, 0
2, 57840, Note_on_c, 0, 69, 64
2, 57840, Note_on_c, 0, 74, 76
2, 57840, Note_on_c, 0, 66, 60
2, 57842, Control_c, 0, 64, 0
2, 57852, Control_c, 0, 64, 127
2, 57855, Note_on_c, 0, 66, 0
2, 57855, Note_on_c, 0, 69, 0
2, 57857, Note_on_c, 0, 74, 0
2, 57900, Control_c, 0, 64, 0
2, 57900, Note_on_c, 0, 67, 59
2, 57900, Note_on_c, 0, 61, 64
2, 57900, Note_on_c, 0, 64, 60
2, 57900, Note_on_c, 0, 57, 62
2, 57918, Control_c, 0, 64, 127
2, 57931, Note_on_c, 0, 64, 0
2, 57932, Note_on_c, 0, 57, 0
2, 57933, Note_on_c, 0, 67, 0
2, 57934, Note_on_c, 0, 61, 0
2, 57958, Control_c, 0, 64, 0
2, 57960, Note_on_c, 0, 64, 62
2, 57960, Note_on_c, 0, 67, 64
2, 57960, Note_on_c, 0, 61, 55
2, 57960, Note_on_c, 0, 57, 60
2, 57969, Control_c, 0, 64, 127
2, 57990, Note_on_c, 0, 57, 0
2, 57991, Note_on_c, 0, 61, 0
2, 57992, Note_on_c, 0, 67, 0
2, 57992, Note_on_c, 0, 64, 0
2, 58020, Note_on_c, 0, 64, 62
2, 58020, Note_on_c, 0, 67, 64
2, 58020, Note_on_c, 0, 61, 60
2, 58020, Note_on_c, 0, 57, 62
2, 58021, Control_c, 0, 64, 0
2, 58031, Control_c, 0, 64, 127
2, 58043, Note_on_c, 0, 64, 0
2, 58046, Note_on_c, 0, 57, 0
2, 58047, Note_on_c, 0, 61, 0
2, 58047, Note_on_c, 0, 67, 0
2, 58080, Note_on_c, 0, 67, 62
2, 58080, Note_on_c, 0, 64, 68
2, 58080, Note_on_c, 0, 61, 60
2, 58080, Note_on_c, 0, 57, 60
2, 58083, Control_c, 0, 64, 0
2, 58096, Control_c, 0, 64, 127
2, 58317, Note_on_c, 0, 57, 0
2, 58318, Note_on_c, 0, 61, 0
2, 58318, Note_on_c, 0, 67, 0
2, 58319, Note_on_c, 0, 64, 0
2, 58320, Note_on_c, 0, 62, 56
2, 58320, Note_on_c, 0, 66, 59
2, 58323, Control_c, 0, 64, 0
2, 58334, Control_c, 0, 64, 127
2, 58355, Note_on_c, 0, 66, 0
2, 58355, Note_on_c, 0, 62, 0
2, 58385, Control_c, 0, 64, 0
2, 58559, Note_on_c, 0, 66, 64
2, 58559, Note_on_c, 0, 81, 76
2, 58571, Control_c, 0, 64, 127
2, 58587, Note_on_c, 0, 66, 0
2, 58589, Note_on_c, 0, 62, 53
2, 58616, Note_on_c, 0, 62, 0
2, 58619, Note_on_c, 0, 66, 60
2, 58647, Note_on_c, 0, 66, 0
2, 58649, Note_on_c, 0, 62, 60
2, 58675, Note_on_c, 0, 62, 0
2, 58679, Note_on_c, 0, 66, 57
2, 58708, Note_on_c, 0, 66, 0
2, 58709, Note_on_c, 0, 62, 60
2, 58711, Note_on_c, 0, 81, 0
2, 58724, Note_on_c, 0, 83, 76
2, 58732, Note_on_c, 0, 83, 0
2, 58732, Note_on_c, 0, 62, 0
2, 58739, Note_on_c, 0, 83, 80
2, 58739, Note_on_c, 0, 66, 62
2, 58751, Note_on_c, 0, 83, 0
2, 58754, Note_on_c, 0, 81, 72
2, 58760, Note_on_c, 0, 66, 0
2, 58763, Note_on_c, 0, 81, 0
2, 58769, Note_on_c, 0, 79, 76
2, 58769, Note_on_c, 0, 62, 51
2, 58780, Note_on_c, 0, 79, 0
2, 58784, Note_on_c, 0, 81, 64
2, 58790, Note_on_c, 0, 62, 0
2, 58794, Note_on_c, 0, 81, 0
2, 58799, Note_on_c, 0, 83, 80
2, 58799, Control_c, 0, 64, 0
2, 58799, Note_on_c, 0, 67, 57
2, 58810, Control_c, 0, 64, 127
2, 58825, Note_on_c, 0, 67, 0
2, 58829, Note_on_c, 0, 62, 62
2, 58838, Note_on_c, 0, 83, 0
2, 58854, Note_on_c, 0, 62, 0
2, 58859, Note_on_c, 0, 79, 80
2, 58859, Note_on_c, 0, 71, 57
2, 58889, Note_on_c, 0, 79, 0
2, 58889, Note_on_c, 0, 62, 72
2, 58891, Note_on_c, 0, 71, 0
2, 58909, Note_on_c, 0, 62, 0
2, 58919, Note_on_c, 0, 66, 59
2, 58919, Note_on_c, 0, 86, 80
2, 58922, Control_c, 0, 64, 0
2, 58934, Control_c, 0, 64, 127
2, 58948, Note_on_c, 0, 66, 0
2, 58949, Note_on_c, 0, 62, 56
2, 58955, Note_on_c, 0, 86, 0
2, 58979, Note_on_c, 0, 62, 0
2, 58979, Note_on_c, 0, 81, 80
2, 58979, Note_on_c, 0, 66, 53
2, 59004, Note_on_c, 0, 66, 0
2, 59009, Note_on_c, 0, 62, 62
2, 59037, Note_on_c, 0, 62, 0
2, 59039, Note_on_c, 0, 66, 56
2, 59064, Note_on_c, 0, 66, 0
2, 59069, Note_on_c, 0, 62, 57
2, 59075, Note_on_c, 0, 81, 0
2, 59098, Note_on_c, 0, 62, 0
2, 59099, Note_on_c, 0, 66, 59
2, 59099, Note_on_c, 0, 83, 72
2, 59110, Note_on_c, 0, 83, 0
2, 59114, Note_on_c, 0, 81, 62
2, 59124, Note_on_c, 0, 81, 0
2, 59124, Note_on_c, 0, 66, 0
2, 59128, Control_c, 0, 64, 0
2, 59129, Note_on_c, 0, 79, 68
2, 59129, Note_on_c, 0, 62, 64
2, 59138, Control_c, 0, 64, 127
2, 59142, Note_on_c, 0, 79, 0
2, 59144, Note_on_c, 0, 81, 72
2, 59155, Note_on_c, 0, 62, 0
2, 59156, Note_on_c, 0, 81, 0
2, 59159, Note_on_c, 0, 67, 62
2, 59159, Note_on_c, 0, 83, 85
2, 59159, Control_c, 0, 64, 0
2, 59169, Control_c, 0, 64, 127
2, 59188, Note_on_c, 0, 67, 0
2, 59189, Note_on_c, 0, 83, 0
2, 59189, Note_on_c, 0, 62, 64
2, 59215, Note_on_c, 0, 62, 0
2, 59219, Note_on_c, 0, 79, 80
2, 59219, Note_on_c, 0, 71, 60
2, 59220, Control_c, 0, 64, 0
2, 59229, Control_c, 0, 64, 127
2, 59248, Note_on_c, 0, 71, 0
2, 59249, Note_on_c, 0, 62, 50
2, 59251, Note_on_c, 0, 79, 0
2, 59270, Note_on_c, 0, 62, 0
2, 59279, Control_c, 0, 64, 0
2, 59279, Note_on_c, 0, 72, 60
2, 59279, Note_on_c, 0, 79, 80
2, 59289, Control_c, 0, 64, 127
2, 59292, Note_on_c, 0, 79, 0
2, 59294, Note_on_c, 0, 78, 51
2, 59305, Note_on_c, 0, 78, 0
2, 59309, Note_on_c, 0, 79, 68
2, 59309, Note_on_c, 0, 69, 62
2, 59312, Note_on_c, 0, 72, 0
2, 59313, Control_c, 0, 64, 0
2, 59322, Control_c, 0, 64, 127
2, 59323, Note_on_c, 0, 79, 0
2, 59324, Note_on_c, 0, 78, 57
2, 59334, Note_on_c, 0, 78, 0
2, 59336, Note_on_c, 0, 69, 0
2, 59338, Control_c, 0, 64, 0
2, 59339, Note_on_c, 0, 72, 57
2, 59339, Note_on_c, 0, 79, 68
2, 59348, Control_c, 0, 64, 127
2, 59351, Note_on_c, 0, 79, 0
2, 59354, Note_on_c, 0, 78, 72
2, 59363, Note_on_c, 0, 78, 0
2, 59369, Note_on_c, 0, 72, 0
2, 59369, Note_on_c, 0, 79, 62
2, 59369, Note_on_c, 0, 62, 62
2, 59370, Control_c, 0, 64, 0
2, 59380, Control_c, 0, 64, 127
2, 59384, Note_on_c, 0, 79, 0
2, 59384, Note_on_c, 0, 78, 72
2, 59388, Note_on_c, 0, 62, 0
2, 59394, Note_on_c, 0, 78, 0
2, 59396, Control_c, 0, 64, 0
2, 59399, Note_on_c, 0, 72, 62
2, 59399, Note_on_c, 0, 79, 72
2, 59406, Control_c, 0, 64, 127
2, 59412, Note_on_c, 0, 79, 0
2, 59414, Note_on_c, 0, 78, 64
2, 59424, Note_on_c, 0, 78, 0
2, 59427, Control_c, 0, 64, 0
2, 59429, Note_on_c, 0, 79, 64
2, 59429, Note_on_c, 0, 69, 64
2, 59430, Note_on_c, 0, 72, 0
2, 59436, Control_c, 0, 64, 127
2, 59442, Note_on_c, 0, 79, 0
2, 59444, Note_on_c, 0, 78, 64
2, 59454, Note_on_c, 0, 78, 0
2, 59454, Note_on_c, 0, 69, 0
2, 59454, Control_c, 0, 64, 0
2, 59459, Note_on_c, 0, 79, 62
2, 59459, Note_on_c, 0, 72, 64
2, 59464, Control_c, 0, 64, 127
2, 59474, Note_on_c, 0, 78, 62
2, 59475, Note_on_c, 0, 79, 0
2, 59486, Control_c, 0, 64, 0
2, 59487, Note_on_c, 0, 78, 0
2, 59489, Note_on_c, 0, 72, 0
2, 59489, Note_on_c, 0, 76, 62
2, 59489, Note_on_c, 0, 62, 76
2, 59495, Control_c, 0, 64, 127
2, 59502, Note_on_c, 0, 76, 0
2, 59504, Note_on_c, 0, 78, 51
2, 59510, Note_on_c, 0, 62, 0
2, 59515, Note_on_c, 0, 78, 0
2, 59516, Control_c, 0, 64, 0
2, 59519, Note_on_c, 0, 79, 80
2, 59519, Note_on_c, 0, 71, 53
2, 59529, Control_c, 0, 64, 127
2, 59549, Note_on_c, 0, 71, 0
2, 59549, Note_on_c, 0, 74, 62
2, 59550, Note_on_c, 0, 79, 0
2, 59579, Note_on_c, 0, 74, 0
2, 59579, Note_on_c, 0, 71, 68
2, 59579, Note_on_c, 0, 83, 80
2, 59581, Control_c, 0, 64, 0
2, 59591, Control_c, 0, 64, 127
2, 59609, Note_on_c, 0, 67, 68
2, 59611, Note_on_c, 0, 83, 0
2, 59612, Note_on_c, 0, 71, 0
2, 59621, Note_on_c, 0, 67, 0
2, 59639, Note_on_c, 0, 83, 85
2, 59639, Note_on_c, 0, 66, 59
2, 59649, Control_c, 0, 64, 0
2, 59653, Note_on_c, 0, 83, 0
2, 59654, Note_on_c, 0, 81, 85
2, 59672, Control_c, 0, 64, 127
2, 59696, Note_on_c, 0, 81, 0
2, 59699, Control_c, 0, 64, 0
2, 59699, Note_on_c, 0, 79, 76
2, 59710, Control_c, 0, 64, 127
2, 59713, Note_on_c, 0, 79, 0
2, 59714, Note_on_c, 0, 78, 60
2, 59757, Note_on_c, 0, 66, 0
2, 59759, Note_on_c, 0, 78, 0
2, 59759, Note_on_c, 0, 76, 76
2, 59759, Control_c, 0, 64, 0
2, 59770, Note_on_c, 0, 76, 0
2, 59774, Note_on_c, 0, 74, 62
2, 59775, Control_c, 0, 64, 127
2, 59818, Control_c, 0, 64, 0
2, 59819, Note_on_c, 0, 62, 72
2, 59826, Control_c, 0, 64, 127
2, 59863, Note_on_c, 0, 74, 0
2, 59867, Note_on_c, 0, 62, 0
2, 59878, Control_c, 0, 64, 0
2, 59879, Note_on_c, 0, 57, 72
2, 59893, Control_c, 0, 64, 127
2, 59938, Control_c, 0, 64, 0
2, 59939, Note_on_c, 0, 54, 62
2, 59942, Note_on_c, 0, 57, 0
2, 59947, Control_c, 0, 64, 127
2, 59964, Note_on_c, 0, 54, 0
2, 60000, Control_c, 0, 64, 0
2, 61439, Note_on_c, 0, 74, 72
2, 61439, Note_on_c, 0, 55, 57
2, 61453, Control_c, 0, 64, 127
2, 61469, Note_on_c, 0, 62, 62
2, 61479, Note_on_c, 0, 55, 0
2, 61497, Note_on_c, 0, 62, 0
2, 61499, Note_on_c, 0, 59, 53
2, 61527, Note_on_c, 0, 59, 0
2, 61529, Note_on_c, 0, 62, 55
2, 61554, Note_on_c, 0, 62, 0
2, 61559, Note_on_c, 0, 55, 62
2, 61579, Note_on_c, 0, 74, 0
2, 61589, Note_on_c, 0, 55, 0
2, 61589, Note_on_c, 0, 62, 55
2, 61615, Note_on_c, 0, 62, 0
2, 61619, Note_on_c, 0, 59, 53
2, 61619, Note_on_c, 0, 71, 89
2, 61626, Control_c, 0, 64, 0
2, 61637, Control_c, 0, 64, 127
2, 61649, Note_on_c, 0, 62, 62
2, 61650, Note_on_c, 0, 59, 0
2, 61659, Note_on_c, 0, 71, 0
2, 61676, Note_on_c, 0, 62, 0
2, 61679, Note_on_c, 0, 55, 52
2, 61679, Note_on_c, 0, 74, 89
2, 61690, Control_c, 0, 64, 0
2, 61701, Control_c, 0, 64, 127
2, 61709, Note_on_c, 0, 62, 53
2, 61711, Note_on_c, 0, 55, 0
2, 61716, Note_on_c, 0, 74, 0
2, 61736, Note_on_c, 0, 62, 0
2, 61739, Note_on_c, 0, 67, 76
2, 61739, Note_on_c, 0, 59, 60
2, 61746, Control_c, 0, 64, 0
2, 61756, Control_c, 0, 64, 127
2, 61768, Note_on_c, 0, 59, 0
2, 61769, Note_on_c, 0, 62, 64
2, 61778, Note_on_c, 0, 67, 0
2, 61790, Note_on_c, 0, 62, 0
2, 61799, Control_c, 0, 64, 0
2, 61799, Note_on_c, 0, 57, 56
2, 61799, Note_on_c, 0, 69, 76
2, 61810, Note_on_c, 0, 69, 0
2, 61811, Control_c, 0, 64, 127
2, 61814, Note_on_c, 0, 67, 62
2, 61825, Note_on_c, 0, 67, 0
2, 61826, Note_on_c, 0, 57, 0
2, 61829, Note_on_c, 0, 69, 76
2, 61829, Note_on_c, 0, 62, 62
2, 61840, Note_on_c, 0, 69, 0
2, 61844, Note_on_c, 0, 67, 85
2, 61852, Note_on_c, 0, 67, 0
2, 61855, Note_on_c, 0, 62, 0
2, 61859, Note_on_c, 0, 69, 64
2, 61859, Note_on_c, 0, 60, 64
2, 61860, Control_c, 0, 64, 0
2, 61870, Control_c, 0, 64, 127
2, 61874, Note_on_c, 0, 69, 0
2, 61874, Note_on_c, 0, 67, 59
2, 61886, Note_on_c, 0, 60, 0
2, 61889, Note_on_c, 0, 67, 0
2, 61889, Note_on_c, 0, 62, 64
2, 61889, Note_on_c, 0, 66, 72
2, 61899, Note_on_c, 0, 66, 0
2, 61904, Note_on_c, 0, 67, 76
2, 61913, Note_on_c, 0, 62, 0
2, 61914, Note_on_c, 0, 67, 0
2, 61915, Control_c, 0, 64, 0
2, 61919, Note_on_c, 0, 66, 60
2, 61919, Note_on_c, 0, 57, 60
2, 61927, Control_c, 0, 64, 127
2, 61946, Note_on_c, 0, 57, 0
2, 61949, Note_on_c, 0, 62, 64
2, 61975, Note_on_c, 0, 62, 0
2, 61978, Note_on_c, 0, 66, 0
2, 61979, Note_on_c, 0, 60, 57
2, 62007, Note_on_c, 0, 60, 0
2, 62009, Note_on_c, 0, 62, 59
2, 62034, Note_on_c, 0, 62, 0
2, 62039, Note_on_c, 0, 57, 57
2, 62043, Control_c, 0, 64, 0
2, 62058, Control_c, 0, 64, 127
2, 62069, Note_on_c, 0, 62, 60
2, 62070, Note_on_c, 0, 57, 0
2, 62097, Note_on_c, 0, 62, 0
2, 62099, Note_on_c, 0, 60, 60
2, 62126, Note_on_c, 0, 60, 0
2, 62129, Note_on_c, 0, 62, 64
2, 62144, Note_on_c, 0, 62, 0
2, 62159, Note_on_c, 0, 50, 64
2, 62159, Note_on_c, 0, 72, 80
2, 62165, Control_c, 0, 64, 0
2, 62178, Control_c, 0, 64, 127
2, 62189, Note_on_c, 0, 60, 56
2, 62195, Note_on_c, 0, 50, 0
2, 62217, Note_on_c, 0, 60, 0
2, 62219, Note_on_c, 0, 57, 64
2, 62248, Note_on_c, 0, 57, 0
2, 62249, Note_on_c, 0, 60, 56
2, 62279, Note_on_c, 0, 50, 62
2, 62280, Note_on_c, 0, 60, 0
2, 62283, Control_c, 0, 64, 0
2, 62293, Control_c, 0, 64, 127
2, 62307, Note_on_c, 0, 50, 0
2, 62309, Note_on_c, 0, 60, 59
2, 62317, Note_on_c, 0, 72, 0
2, 62335, Note_on_c, 0, 60, 0
2, 62339, Note_on_c, 0, 69, 85
2, 62339, Note_on_c, 0, 57, 52
2, 62369, Note_on_c, 0, 57, 0
2, 62369, Note_on_c, 0, 60, 57
2, 62380, Note_on_c, 0, 69, 0
2, 62393, Note_on_c, 0, 60, 0
2, 62399, Note_on_c, 0, 72, 72
2, 62399, Note_on_c, 0, 50, 50
2, 62406, Control_c, 0, 64, 0
2, 62416, Control_c, 0, 64, 127
2, 62428, Note_on_c, 0, 50, 0
2, 62429, Note_on_c, 0, 60, 56
2, 62430, Note_on_c, 0, 72, 0
2, 62455, Note_on_c, 0, 60, 0
2, 62459, Note_on_c, 0, 66, 62
2, 62459, Note_on_c, 0, 57, 62
2, 62486, Note_on_c, 0, 66, 0
2, 62487, Note_on_c, 0, 57, 0
2, 62489, Note_on_c, 0, 60, 60
2, 62510, Note_on_c, 0, 60, 0
2, 62519, Note_on_c, 0, 55, 56
2, 62519, Note_on_c, 0, 69, 85
2, 62524, Control_c, 0, 64, 0
2, 62536, Control_c, 0, 64, 127
2, 62549, Note_on_c, 0, 60, 56
2, 62552, Note_on_c, 0, 55, 0
2, 62579, Note_on_c, 0, 60, 0
2, 62579, Note_on_c, 0, 57, 60
2, 62587, Control_c, 0, 64, 0
2, 62597, Control_c, 0, 64, 127
2, 62605, Note_on_c, 0, 57, 0
2, 62609, Note_on_c, 0, 60, 62
2, 62625, Note_on_c, 0, 69, 0
2, 62630, Note_on_c, 0, 60, 0
2, 62639, Note_on_c, 0, 55, 56
2, 62639, Note_on_c, 0, 67, 76
2, 62645, Control_c, 0, 64, 0
2, 62657, Control_c, 0, 64, 127
2, 62668, Note_on_c, 0, 55, 0
2, 62669, Note_on_c, 0, 62, 37
2, 62698, Note_on_c, 0, 62, 0
2, 62699, Note_on_c, 0, 59, 55
2, 62708, Note_on_c, 0, 67, 0
2, 62724, Note_on_c, 0, 59, 0
2, 62729, Note_on_c, 0, 62, 50
2, 62757, Note_on_c, 0, 62, 0
2, 62759, Note_on_c, 0, 55, 57
2, 62763, Control_c, 0, 64, 0
2, 62777, Control_c, 0, 64, 127
2, 62789, Note_on_c, 0, 62, 64
2, 62790, Note_on_c, 0, 55, 0
2, 62816, Note_on_c, 0, 62, 0
2, 62819, Note_on_c, 0, 59, 60
2, 62845, Note_on_c, 0, 59, 0
2, 62849, Note_on_c, 0, 62, 62
2, 62857, Note_on_c, 0, 62, 0
2, 62879, Note_on_c, 0, 48, 64
2, 62879, Note_on_c, 0, 64, 80
2, 62883, Control_c, 0, 64, 0
2, 62897, Control_c, 0, 64, 127
2, 62909, Note_on_c, 0, 55, 62
2, 62911, Note_on_c, 0, 48, 0
2, 62933, Note_on_c, 0, 55, 0
2, 62939, Note_on_c, 0, 52, 52
2, 62966, Note_on_c, 0, 52, 0
2, 62969, Note_on_c, 0, 55, 52
2, 62994, Note_on_c, 0, 55, 0
2, 62999, Note_on_c, 0, 48, 60
2, 63024, Note_on_c, 0, 64, 0
2, 63029, Note_on_c, 0, 48, 0
2, 63029, Note_on_c, 0, 55, 62
2, 63050, Note_on_c, 0, 55, 0
2, 63054, Control_c, 0, 64, 0
2, 63059, Note_on_c, 0, 52, 60
2, 63059, Note_on_c, 0, 66, 64
2, 63064, Control_c, 0, 64, 127
2, 63070, Note_on_c, 0, 66, 0
2, 63074, Note_on_c, 0, 64, 72
2, 63085, Note_on_c, 0, 64, 0
2, 63085, Note_on_c, 0, 52, 0
2, 63089, Note_on_c, 0, 66, 60
2, 63089, Note_on_c, 0, 55, 62
2, 63100, Note_on_c, 0, 66, 0
2, 63104, Note_on_c, 0, 64, 68
2, 63107, Note_on_c, 0, 55, 0
2, 63114, Control_c, 0, 64, 0
2, 63115, Note_on_c, 0, 64, 0
2, 63119, Note_on_c, 0, 66, 76
2, 63119, Note_on_c, 0, 48, 55
2, 63126, Control_c, 0, 64, 127
2, 63149, Note_on_c, 0, 55, 56
2, 63150, Note_on_c, 0, 48, 0
2, 63155, Note_on_c, 0, 66, 0
2, 63178, Note_on_c, 0, 55, 0
2, 63179, Note_on_c, 0, 67, 80
2, 63179, Note_on_c, 0, 52, 60
2, 63179, Control_c, 0, 64, 0
2, 63189, Control_c, 0, 64, 127
2, 63209, Note_on_c, 0, 55, 72
2, 63211, Note_on_c, 0, 52, 0
2, 63212, Note_on_c, 0, 67, 0
2, 63229, Note_on_c, 0, 55, 0
2, 63239, Note_on_c, 0, 47, 68
2, 63239, Note_on_c, 0, 67, 80
2, 63244, Control_c, 0, 64, 0
2, 63258, Control_c, 0, 64, 127
2, 63269, Note_on_c, 0, 55, 51
2, 63272, Note_on_c, 0, 47, 0
2, 63296, Note_on_c, 0, 55, 0
2, 63299, Note_on_c, 0, 50, 59
2, 63307, Note_on_c, 0, 67, 0
2, 63319, Note_on_c, 0, 50, 0
2, 63329, Note_on_c, 0, 55, 59
2, 63349, Note_on_c, 0, 55, 0
2, 63359, Note_on_c, 0, 62, 76
2, 63359, Note_on_c, 0, 47, 68
2, 63362, Control_c, 0, 64, 0
2, 63373, Control_c, 0, 64, 127
2, 63388, Note_on_c, 0, 47, 0
2, 63389, Note_on_c, 0, 55, 62
2, 63399, Note_on_c, 0, 62, 0
2, 63409, Note_on_c, 0, 55, 0
2, 63419, Note_on_c, 0, 67, 85
2, 63419, Note_on_c, 0, 50, 55
2, 63427, Control_c, 0, 64, 0
2, 63437, Control_c, 0, 64, 127
2, 63447, Note_on_c, 0, 50, 0
2, 63449, Note_on_c, 0, 55, 55
2, 63458, Note_on_c, 0, 67, 0
2, 63472, Note_on_c, 0, 55, 0
2, 63479, Note_on_c, 0, 47, 62
2, 63479, Note_on_c, 0, 71, 85
2, 63483, Control_c, 0, 64, 0
2, 63493, Control_c, 0, 64, 127
2, 63508, Note_on_c, 0, 47, 0
2, 63509, Note_on_c, 0, 55, 52
2, 63511, Note_on_c, 0, 71, 0
2, 63533, Note_on_c, 0, 55, 0
2, 63539, Note_on_c, 0, 50, 72
2, 63539, Note_on_c, 0, 74, 80
2, 63541, Control_c, 0, 64, 0
2, 63551, Control_c, 0, 64, 127
2, 63562, Note_on_c, 0, 74, 0
2, 63565, Note_on_c, 0, 50, 0
2, 63569, Note_on_c, 0, 55, 59
2, 63575, Note_on_c, 0, 55, 0
2, 63599, Note_on_c, 0, 54, 55
2, 63599, Note_on_c, 0, 71, 68
2, 63599, Note_on_c, 0, 74, 76
2, 63603, Control_c, 0, 64, 0
2, 63614, Control_c, 0, 64, 127
2, 63628, Note_on_c, 0, 54, 0
2, 63629, Note_on_c, 0, 62, 42
2, 63655, Note_on_c, 0, 62, 0
2, 63659, Note_on_c, 0, 57, 62
2, 63667, Control_c, 0, 64, 0
2, 63674, Control_c, 0, 64, 127
2, 63689, Note_on_c, 0, 57, 0
2, 63689, Note_on_c, 0, 62, 62
2, 63697, Note_on_c, 0, 74, 0
2, 63698, Note_on_c, 0, 71, 0
2, 63704, Note_on_c, 0, 62, 0
2, 63719, Note_on_c, 0, 54, 53
2, 63719, Note_on_c, 0, 72, 72
2, 63719, Note_on_c, 0, 69, 72
2, 63722, Control_c, 0, 64, 0
2, 63733, Control_c, 0, 64, 127
2, 63749, Note_on_c, 0, 62, 60
2, 63752, Note_on_c, 0, 54, 0
2, 63772, Note_on_c, 0, 62, 0
2, 63779, Note_on_c, 0, 57, 68
2, 63806, Note_on_c, 0, 57, 0
2, 63809, Note_on_c, 0, 62, 62
2, 63810, Note_on_c, 0, 69, 0
2, 63810, Note_on_c, 0, 72, 0
2, 63826, Note_on_c, 0, 62, 0
2, 63839, Note_on_c, 0, 55, 62
2, 63839, Note_on_c, 0, 67, 68
2, 63839, Note_on_c, 0, 71, 80
2, 63839, Control_c, 0, 64, 0
2, 63853, Control_c, 0, 64, 127
2, 63867, Note_on_c, 0, 55, 0
2, 63869, Note_on_c, 0, 62, 60
2, 63897, Note_on_c, 0, 62, 0
2, 63899, Note_on_c, 0, 59, 56
2, 63913, Note_on_c, 0, 67, 0
2, 63915, Note_on_c, 0, 71, 0
2, 63926, Note_on_c, 0, 59, 0
2, 63929, Note_on_c, 0, 62, 68
2, 63946, Note_on_c, 0, 62, 0
2, 63956, Control_c, 0, 64, 0
2, 63959, Note_on_c, 0, 50, 55
2, 63959, Note_on_c, 0, 72, 76
2, 63959, Note_on_c, 0, 67, 76
2, 63968, Control_c, 0, 64, 127
2, 63974, Note_on_c, 0, 71, 72
2, 63976, Note_on_c, 0, 72, 0
2, 63985, Note_on_c, 0, 71, 0
2, 63987, Note_on_c, 0, 50, 0
2, 63989, Note_on_c, 0, 72, 62
2, 63989, Note_on_c, 0, 62, 68
2, 64004, Note_on_c, 0, 72, 0
2, 64004, Note_on_c, 0, 71, 64
2, 64008, Note_on_c, 0, 62, 0
2, 64017, Note_on_c, 0, 71, 0
2, 64017, Control_c, 0, 64, 0
2, 64019, Note_on_c, 0, 72, 64
2, 64019, Note_on_c, 0, 61, 64
2, 64026, Control_c, 0, 64, 127
2, 64034, Note_on_c, 0, 71, 64
2, 64040, Note_on_c, 0, 72, 0
2, 64045, Note_on_c, 0, 71, 0
2, 64047, Note_on_c, 0, 61, 0
2, 64049, Note_on_c, 0, 69, 76
2, 64049, Note_on_c, 0, 62, 68
2, 64053, Note_on_c, 0, 67, 0
2, 64064, Note_on_c, 0, 69, 0
2, 64064, Note_on_c, 0, 71, 50
2, 64071, Note_on_c, 0, 62, 0
2, 64075, Note_on_c, 0, 71, 0
2, 64079, Note_on_c, 0, 66, 60
2, 64079, Note_on_c, 0, 69, 85
2, 64079, Control_c, 0, 64, 0
2, 64079, Note_on_c, 0, 50, 76
2, 64089, Control_c, 0, 64, 127
2, 64097, Note_on_c, 0, 69, 0
2, 64098, Note_on_c, 0, 66, 0
2, 64100, Note_on_c, 0, 50, 0
2, 64109, Note_on_c, 0, 62, 76
2, 64123, Control_c, 0, 64, 0
2, 64139, Note_on_c, 0, 64, 93
2, 64142, Note_on_c, 0, 62, 0
2, 64145, Control_c, 0, 64, 127
2, 64166, Control_c, 0, 64, 0
2, 64168, Note_on_c, 0, 64, 0
2, 64169, Note_on_c, 0, 66, 89
2, 64178, Control_c, 0, 64, 127
2, 64197, Control_c, 0, 64, 0
2, 64198, Note_on_c, 0, 66, 0
2, 64199, Note_on_c, 0, 67, 93
2, 64208, Control_c, 0, 64, 127
2, 64227, Note_on_c, 0, 67, 0
2, 64229, Note_on_c, 0, 69, 102
2, 64236, Control_c, 0, 64, 0
2, 64257, Note_on_c, 0, 69, 0
2, 64259, Note_on_c, 0, 71, 113
2, 64263, Control_c, 0, 64, 127
2, 64286, Note_on_c, 0, 71, 0
2, 64289, Note_on_c, 0, 72, 98
2, 64296, Note_on_c, 0, 72, 0
2, 64319, Note_on_c, 0, 74, 93
2, 64319, Note_on_c, 0, 86, 113
2, 64320, Control_c, 0, 64, 0
2, 64340, Control_c, 0, 64, 127
2, 64477, Note_on_c, 0, 86, 0
2, 64478, Note_on_c, 0, 74, 0
2, 64499, Note_on_c, 0, 83, 107
2, 64499, Note_on_c, 0, 71, 89
2, 64503, Control_c, 0, 64, 0
2, 64515, Control_c, 0, 64, 127
2, 64556, Note_on_c, 0, 83, 0
2, 64559, Note_on_c, 0, 71, 0
2, 64559, Control_c, 0, 64, 0
2, 64559, Note_on_c, 0, 86, 107
2, 64559, Note_on_c, 0, 74, 89
2, 64569, Control_c, 0, 64, 127
2, 64590, Note_on_c, 0, 74, 0
2, 64590, Note_on_c, 0, 86, 0
2, 64616, Control_c, 0, 64, 0
2, 64619, Note_on_c, 0, 79, 89
2, 64619, Note_on_c, 0, 67, 93
2, 64627, Control_c, 0, 64, 127
2, 64634, Note_on_c, 0, 67, 0
2, 64644, Note_on_c, 0, 79, 0
2, 64672, Control_c, 0, 64, 0
2, 64679, Note_on_c, 0, 69, 93
2, 64679, Note_on_c, 0, 81, 98
2, 64689, Note_on_c, 0, 81, 0
2, 64694, Note_on_c, 0, 69, 0
2, 64694, Note_on_c, 0, 67, 80
2, 64694, Note_on_c, 0, 79, 93
2, 64703, Note_on_c, 0, 79, 0
2, 64708, Note_on_c, 0, 67, 0
2, 64709, Note_on_c, 0, 69, 72
2, 64709, Note_on_c, 0, 81, 98
2, 64720, Note_on_c, 0, 81, 0
2, 64724, Note_on_c, 0, 69, 0
2, 64724, Note_on_c, 0, 67, 89
2, 64724, Note_on_c, 0, 79, 98
2, 64733, Note_on_c, 0, 79, 0
2, 64739, Note_on_c, 0, 67, 0
2, 64739, Note_on_c, 0, 69, 76
2, 64739, Note_on_c, 0, 81, 89
2, 64753, Note_on_c, 0, 81, 0
2, 64754, Note_on_c, 0, 79, 89
2, 64754, Note_on_c, 0, 67, 68
2, 64755, Note_on_c, 0, 69, 0
2, 64768, Note_on_c, 0, 67, 0
2, 64768, Note_on_c, 0, 79, 0
2, 64769, Note_on_c, 0, 66, 80
2, 64769, Note_on_c, 0, 78, 76
2, 64779, Note_on_c, 0, 78, 0
2, 64784, Note_on_c, 0, 79, 89
2, 64784, Note_on_c, 0, 67, 85
2, 64786, Note_on_c, 0, 66, 0
2, 64795, Note_on_c, 0, 67, 0
2, 64797, Note_on_c, 0, 79, 0
2, 64799, Note_on_c, 0, 78, 98
2, 64799, Note_on_c, 0, 66, 85
2, 64808, Control_c, 0, 64, 127
2, 64920, Control_c, 0, 64, 0
2, 64924, Note_on_c, 0, 66, 0
2, 64925, Note_on_c, 0, 78, 0
2, 65039, Note_on_c, 0, 84, 102
2, 65039, Note_on_c, 0, 72, 93
2, 65051, Control_c, 0, 64, 127
2, 65189, Note_on_c, 0, 72, 0
2, 65198, Note_on_c, 0, 84, 0
2, 65219, Note_on_c, 0, 81, 107
2, 65219, Note_on_c, 0, 69, 85
2, 65222, Control_c, 0, 64, 0
2, 65234, Control_c, 0, 64, 127
2, 65275, Note_on_c, 0, 81, 0
2, 65277, Note_on_c, 0, 69, 0
2, 65279, Note_on_c, 0, 84, 102
2, 65279, Control_c, 0, 64, 0
2, 65279, Note_on_c, 0, 72, 93
2, 65289, Control_c, 0, 64, 127
2, 65319, Note_on_c, 0, 84, 0
2, 65335, Note_on_c, 0, 72, 0
2, 65339, Note_on_c, 0, 66, 72
2, 65339, Note_on_c, 0, 78, 102
2, 65346, Control_c, 0, 64, 0
2, 65357, Control_c, 0, 64, 127
2, 65384, Note_on_c, 0, 66, 0
2, 65392, Note_on_c, 0, 78, 0
2, 65399, Note_on_c, 0, 81, 102
2, 65399, Note_on_c, 0, 69, 93
2, 65406, Control_c, 0, 64, 0
2, 65419, Control_c, 0, 64, 127
2, 65515, Note_on_c, 0, 69, 0
2, 65517, Note_on_c, 0, 81, 0
2, 65519, Note_on_c, 0, 67, 89
2, 65519, Note_on_c, 0, 79, 89
2, 65522, Control_c, 0, 64, 0
2, 65535, Control_c, 0, 64, 127
2, 65638, Control_c, 0, 64, 0
2, 65641, Note_on_c, 0, 79, 0
2, 65641, Note_on_c, 0, 67, 0
2, 65759, Note_on_c, 0, 64, 89
2, 65759, Note_on_c, 0, 76, 98
2, 65769, Control_c, 0, 64, 127
2, 65901, Note_on_c, 0, 64, 0
2, 65908, Note_on_c, 0, 76, 0
2, 65938, Control_c, 0, 64, 0
2, 65939, Note_on_c, 0, 66, 85
2, 65939, Note_on_c, 0, 78, 93
2, 65951, Note_on_c, 0, 78, 0
2, 65951, Note_on_c, 0, 66, 0
2, 65954, Note_on_c, 0, 64, 80
2, 65954, Note_on_c, 0, 76, 93
2, 65965, Note_on_c, 0, 76, 0
2, 65969, Note_on_c, 0, 66, 62
2, 65969, Note_on_c, 0, 78, 89
2, 65970, Note_on_c, 0, 64, 0
2, 65981, Note_on_c, 0, 78, 0
2, 65983, Note_on_c, 0, 66, 0
2, 65984, Note_on_c, 0, 64, 80
2, 65984, Note_on_c, 0, 76, 93
2, 65995, Note_on_c, 0, 76, 0
2, 65999, Note_on_c, 0, 78, 107
2, 65999, Note_on_c, 0, 66, 98
2, 66000, Note_on_c, 0, 64, 0
2, 66008, Control_c, 0, 64, 127
2, 66059, Note_on_c, 0, 79, 102
2, 66059, Note_on_c, 0, 67, 89
2, 66060, Control_c, 0, 64, 0
2, 66063, Note_on_c, 0, 78, 0
2, 66066, Note_on_c, 0, 66, 0
2, 66072, Control_c, 0, 64, 127
2, 66093, Note_on_c, 0, 67, 0
2, 66101, Note_on_c, 0, 79, 0
2, 66119, Note_on_c, 0, 67, 89
2, 66119, Note_on_c, 0, 79, 93
2, 66121, Control_c, 0, 64, 0
2, 66134, Control_c, 0, 64, 127
2, 66237, Note_on_c, 0, 67, 0
2, 66238, Note_on_c, 0, 79, 0
2, 66239, Note_on_c, 0, 62, 89
2, 66239, Control_c, 0, 64, 0
2, 66239, Note_on_c, 0, 74, 102
2, 66252, Control_c, 0, 64, 127
2, 66294, Note_on_c, 0, 74, 0
2, 66296, Note_on_c, 0, 62, 0
2, 66299, Note_on_c, 0, 67, 85
2, 66299, Note_on_c, 0, 79, 107
2, 66299, Control_c, 0, 64, 0
2, 66311, Control_c, 0, 64, 127
2, 66355, Note_on_c, 0, 79, 0
2, 66355, Control_c, 0, 64, 0
2, 66358, Note_on_c, 0, 67, 0
2, 66359, Note_on_c, 0, 83, 98
2, 66359, Note_on_c, 0, 71, 89
2, 66365, Control_c, 0, 64, 127
2, 66419, Control_c, 0, 64, 0
2, 66419, Note_on_c, 0, 86, 107
2, 66419, Note_on_c, 0, 74, 89
2, 66422, Note_on_c, 0, 83, 0
2, 66423, Note_on_c, 0, 71, 0
2, 66429, Control_c, 0, 64, 127
2, 66449, Note_on_c, 0, 74, 0
2, 66454, Note_on_c, 0, 86, 0
2, 66479, Control_c, 0, 64, 0
2, 66479, Note_on_c, 0, 86, 102
2, 66479, Note_on_c, 0, 74, 85
2, 66491, Control_c, 0, 64, 127
2, 66506, Note_on_c, 0, 86, 0
2, 66507, Note_on_c, 0, 74, 0
2, 66509, Note_on_c, 0, 72, 80
2, 66509, Note_on_c, 0, 84, 89
2, 66516, Control_c, 0, 64, 0
2, 66536, Note_on_c, 0, 84, 0
2, 66539, Note_on_c, 0, 72, 0
2, 66539, Note_on_c, 0, 71, 85
2, 66539, Note_on_c, 0, 83, 89
2, 66543, Control_c, 0, 64, 127
2, 66567, Note_on_c, 0, 83, 0
2, 66569, Note_on_c, 0, 71, 0
2, 66569, Note_on_c, 0, 69, 85
2, 66569, Note_on_c, 0, 81, 89
2, 66590, Control_c, 0, 64, 0
2, 66598, Note_on_c, 0, 81, 0
2, 66598, Note_on_c, 0, 69, 0
2, 66599, Note_on_c, 0, 79, 93
2, 66599, Note_on_c, 0, 67, 85
2, 66606, Control_c, 0, 64, 127
2, 66694, Note_on_c, 0, 67, 0
2, 66699, Note_on_c, 0, 79, 0
2, 66715, Control_c, 0, 64, 0
2, 66719, Note_on_c, 0, 67, 93
2, 66719, Note_on_c, 0, 79, 98
2, 66734, Note_on_c, 0, 79, 0
2, 66734, Note_on_c, 0, 66, 64
2, 66734, Note_on_c, 0, 78, 107
2, 66735, Note_on_c, 0, 67, 0
2, 66745, Note_on_c, 0, 78, 0
2, 66748, Note_on_c, 0, 66, 0
2, 66749, Note_on_c, 0, 67, 76
2, 66749, Note_on_c, 0, 79, 93
2, 66761, Note_on_c, 0, 79, 0
2, 66764, Note_on_c, 0, 66, 72
2, 66764, Note_on_c, 0, 78, 93
2, 66766, Note_on_c, 0, 67, 0
2, 66774, Note_on_c, 0, 78, 0
2, 66779, Note_on_c, 0, 66, 0
2, 66779, Note_on_c, 0, 67, 72
2, 66779, Note_on_c, 0, 79, 93
2, 66794, Note_on_c, 0, 66, 62
2, 66794, Note_on_c, 0, 78, 89
2, 66795, Note_on_c, 0, 79, 0
2, 66797, Note_on_c, 0, 67, 0
2, 66807, Note_on_c, 0, 78, 0
2, 66809, Note_on_c, 0, 66, 0
2, 66809, Note_on_c, 0, 76, 76
2, 66809, Note_on_c, 0, 64, 80
2, 66823, Note_on_c, 0, 76, 0
2, 66824, Note_on_c, 0, 78, 85
2, 66824, Note_on_c, 0, 66, 64
2, 66826, Note_on_c, 0, 64, 0
2, 66836, Note_on_c, 0, 78, 0
2, 66838, Note_on_c, 0, 66, 0
2, 66839, Note_on_c, 0, 79, 93
2, 66839, Note_on_c, 0, 67, 80
2, 66853, Control_c, 0, 64, 127
2, 66962, Control_c, 0, 64, 0
2, 66964, Note_on_c, 0, 67, 0
2, 66965, Note_on_c, 0, 79, 0
2, 67199, Note_on_c, 0, 76, 113
2, 67199, Note_on_c, 0, 64, 93
2, 67207, Control_c, 0, 64, 127
2, 67347, Note_on_c, 0, 64, 0
2, 67349, Note_on_c, 0, 76, 0
2, 67374, Control_c, 0, 64, 0
2, 67379, Note_on_c, 0, 76, 107
2, 67379, Note_on_c, 0, 88, 107
2, 67386, Control_c, 0, 64, 127
2, 67429, Note_on_c, 0, 76, 0
2, 67431, Note_on_c, 0, 88, 0
2, 67439, Note_on_c, 0, 88, 98
2, 67439, Note_on_c, 0, 76, 102
2, 67471, Note_on_c, 0, 76, 0
2, 67475, Note_on_c, 0, 88, 0
2, 67499, Note_on_c, 0, 76, 107
2, 67499, Note_on_c, 0, 88, 102
2, 67514, Note_on_c, 0, 76, 0
2, 67515, Note_on_c, 0, 88, 0
2, 67557, Control_c, 0, 64, 0
2, 67559, Note_on_c, 0, 76, 89
2, 67559, Note_on_c, 0, 88, 107
2, 67569, Control_c, 0, 64, 127
2, 67587, Note_on_c, 0, 88, 0
2, 67588, Note_on_c, 0, 76, 0
2, 67589, Note_on_c, 0, 72, 76
2, 67589, Note_on_c, 0, 84, 85
2, 67602, Control_c, 0, 64, 0
2, 67618, Note_on_c, 0, 84, 0
2, 67619, Note_on_c, 0, 81, 102
2, 67619, Note_on_c, 0, 69, 89
2, 67622, Note_on_c, 0, 72, 0
2, 67626, Note_on_c, 0, 69, 0
2, 67626, Note_on_c, 0, 81, 0
2, 67649, Note_on_c, 0, 81, 107
2, 67649, Note_on_c, 0, 69, 93
2, 67655, Note_on_c, 0, 69, 0
2, 67656, Note_on_c, 0, 81, 0
2, 67679, Note_on_c, 0, 76, 76
2, 67679, Note_on_c, 0, 88, 107
2, 67687, Control_c, 0, 64, 127
2, 67706, Note_on_c, 0, 88, 0
2, 67707, Note_on_c, 0, 76, 0
2, 67709, Note_on_c, 0, 72, 76
2, 67709, Note_on_c, 0, 84, 89
2, 67739, Note_on_c, 0, 69, 89
2, 67739, Note_on_c, 0, 81, 98
2, 67740, Note_on_c, 0, 84, 0
2, 67740, Note_on_c, 0, 72, 0
2, 67741, Control_c, 0, 64, 0
2, 67745, Note_on_c, 0, 81, 0
2, 67746, Note_on_c, 0, 69, 0
2, 67769, Note_on_c, 0, 69, 93
2, 67769, Note_on_c, 0, 81, 113
2, 67776, Note_on_c, 0, 81, 0
2, 67776, Note_on_c, 0, 69, 0
2, 67799, Note_on_c, 0, 88, 107
2, 67799, Note_on_c, 0, 76, 76
2, 67802, Control_c, 0, 64, 127
2, 67826, Note_on_c, 0, 88, 0
2, 67827, Note_on_c, 0, 76, 0
2, 67829, Note_on_c, 0, 72, 76
2, 67829, Note_on_c, 0, 84, 89
2, 67853, Control_c, 0, 64, 0
2, 67855, Note_on_c, 0, 84, 0
2, 67856, Note_on_c, 0, 72, 0
2, 67859, Note_on_c, 0, 81, 102
2, 67859, Note_on_c, 0, 69, 80
2, 67867, Note_on_c, 0, 81, 0
2, 67868, Note_on_c, 0, 69, 0
2, 67889, Note_on_c, 0, 81, 93
2, 67889, Note_on_c, 0, 69, 89
2, 67896, Note_on_c, 0, 69, 0
2, 67897, Note_on_c, 0, 81, 0
2, 67919, Note_on_c, 0, 74, 107
2, 67919, Note_on_c, 0, 62, 89
2, 67942, Control_c, 0, 64, 127
2, 68052, Note_on_c, 0, 62, 0
2, 68077, Note_on_c, 0, 74, 0
2, 68099, Note_on_c, 0, 86, 102
2, 68099, Note_on_c, 0, 74, 93
2, 68102, Control_c, 0, 64, 0
2, 68113, Control_c, 0, 64, 127
2, 68138, Note_on_c, 0, 86, 0
2, 68140, Note_on_c, 0, 74, 0
2, 68159, Note_on_c, 0, 86, 107
2, 68159, Note_on_c, 0, 74, 85
2, 68190, Note_on_c, 0, 86, 0
2, 68192, Note_on_c, 0, 74, 0
2, 68219, Note_on_c, 0, 86, 107
2, 68219, Note_on_c, 0, 74, 89
2, 68232, Note_on_c, 0, 86, 0
2, 68235, Note_on_c, 0, 74, 0
2, 68279, Control_c, 0, 64, 0
2, 68279, Note_on_c, 0, 86, 113
2, 68279, Note_on_c, 0, 74, 89
2, 68290, Control_c, 0, 64, 127
2, 68306, Note_on_c, 0, 74, 0
2, 68307, Note_on_c, 0, 86, 0
2, 68309, Note_on_c, 0, 71, 85
2, 68309, Note_on_c, 0, 83, 98
2, 68338, Note_on_c, 0, 83, 0
2, 68338, Control_c, 0, 64, 0
2, 68339, Note_on_c, 0, 79, 102
2, 68339, Note_on_c, 0, 67, 89
2, 68341, Note_on_c, 0, 71, 0
2, 68347, Note_on_c, 0, 67, 0
2, 68348, Note_on_c, 0, 79, 0
2, 68369, Note_on_c, 0, 79, 102
2, 68369, Note_on_c, 0, 67, 89
2, 68377, Note_on_c, 0, 67, 0
2, 68378, Note_on_c, 0, 79, 0
2, 68399, Note_on_c, 0, 74, 80
2, 68399, Note_on_c, 0, 86, 102
2, 68404, Control_c, 0, 64, 127
2, 68429, Note_on_c, 0, 86, 0
2, 68429, Note_on_c, 0, 74, 0
2, 68429, Note_on_c, 0, 83, 89
2, 68429, Note_on_c, 0, 71, 80
2, 68457, Note_on_c, 0, 71, 0
2, 68459, Note_on_c, 0, 83, 0
2, 68459, Note_on_c, 0, 79, 98
2, 68459, Note_on_c, 0, 67, 89
2, 68463, Control_c, 0, 64, 0
2, 68466, Note_on_c, 0, 67, 0
2, 68467, Note_on_c, 0, 79, 0
2, 68489, Note_on_c, 0, 67, 89
2, 68489, Note_on_c, 0, 79, 102
2, 68497, Note_on_c, 0, 67, 0
2, 68498, Note_on_c, 0, 79, 0
2, 68519, Note_on_c, 0, 74, 80
2, 68519, Note_on_c, 0, 86, 107
2, 68522, Control_c, 0, 64, 127
2, 68547, Note_on_c, 0, 74, 0
2, 68548, Note_on_c, 0, 86, 0
2, 68549, Note_on_c, 0, 71, 85
2, 68549, Note_on_c, 0, 83, 89
2, 68574, Control_c, 0, 64, 0
2, 68579, Note_on_c, 0, 83, 0
2, 68579, Note_on_c, 0, 79, 93
2, 68579, Note_on_c, 0, 67, 93
2, 68580, Note_on_c, 0, 71, 0
2, 68587, Note_on_c, 0, 67, 0
2, 68588, Note_on_c, 0, 79, 0
2, 68609, Note_on_c, 0, 67, 89
2, 68609, Note_on_c, 0, 79, 98
2, 68617, Note_on_c, 0, 67, 0
2, 68621, Note_on_c, 0, 79, 0
2, 68639, Note_on_c, 0, 77, 93
2, 68639, Note_on_c, 0, 65, 85
2, 68653, Control_c, 0, 64, 127
2, 68819, Note_on_c, 0, 81, 98
2, 68819, Note_on_c, 0, 69, 93
2, 68820, Note_on_c, 0, 77, 0
2, 68821, Note_on_c, 0, 65, 0
2, 68822, Control_c, 0, 64, 0
2, 68835, Control_c, 0, 64, 127
2, 68876, Note_on_c, 0, 81, 0
2, 68876, Note_on_c, 0, 69, 0
2, 68878, Control_c, 0, 64, 0
2, 68879, Note_on_c, 0, 74, 98
2, 68879, Note_on_c, 0, 62, 89
2, 68893, Control_c, 0, 64, 127
2, 68937, Note_on_c, 0, 74, 0
2, 68939, Note_on_c, 0, 79, 93
2, 68939, Note_on_c, 0, 67, 89
2, 68940, Note_on_c, 0, 62, 0
2, 68941, Control_c, 0, 64, 0
2, 68955, Control_c, 0, 64, 127
2, 68977, Note_on_c, 0, 79, 0
2, 68978, Note_on_c, 0, 67, 0
2, 68999, Note_on_c, 0, 63, 80
2, 68999, Note_on_c, 0, 75, 107
2, 69002, Control_c, 0, 64, 0
2, 69016, Control_c, 0, 64, 127
2, 69034, Note_on_c, 0, 63, 0
2, 69056, Note_on_c, 0, 75, 0
2, 69059, Note_on_c, 0, 76, 89
2, 69059, Note_on_c, 0, 64, 89
2, 69062, Control_c, 0, 64, 0
2, 69077, Control_c, 0, 64, 127
2, 69093, Note_on_c, 0, 64, 0
2, 69101, Note_on_c, 0, 76, 0
2, 69119, Note_on_c, 0, 76, 98
2, 69119, Note_on_c, 0, 64, 89
2, 69121, Control_c, 0, 64, 0
2, 69134, Control_c, 0, 64, 127
2, 69216, Note_on_c, 0, 64, 0
2, 69221, Note_on_c, 0, 76, 0
2, 69239, Note_on_c, 0, 65, 89
2, 69239, Note_on_c, 0, 77, 93
2, 69240, Control_c, 0, 64, 0
2, 69252, Control_c, 0, 64, 127
2, 69268, Note_on_c, 0, 77, 0
2, 69269, Note_on_c, 0, 65, 0
2, 69269, Note_on_c, 0, 64, 93
2, 69269, Note_on_c, 0, 76, 89
2, 69292, Control_c, 0, 64, 0
2, 69298, Note_on_c, 0, 76, 0
2, 69298, Note_on_c, 0, 64, 0
2, 69299, Note_on_c, 0, 74, 93
2, 69299, Note_on_c, 0, 62, 89
2, 69307, Control_c, 0, 64, 127
2, 69327, Note_on_c, 0, 62, 0
2, 69328, Note_on_c, 0, 74, 0
2, 69329, Note_on_c, 0, 60, 89
2, 69329, Note_on_c, 0, 72, 89
2, 69350, Note_on_c, 0, 60, 0
2, 69351, Note_on_c, 0, 72, 0
2, 69359, Note_on_c, 0, 59, 76
2, 69359, Control_c, 0, 64, 0
2, 69359, Note_on_c, 0, 71, 98
2, 69374, Control_c, 0, 64, 127
2, 69479, Note_on_c, 0, 69, 98
2, 69479, Note_on_c, 0, 57, 93
2, 69482, Note_on_c, 0, 71, 0
2, 69482, Control_c, 0, 64, 0
2, 69483, Note_on_c, 0, 59, 0
2, 69494, Control_c, 0, 64, 127
2, 69497, Note_on_c, 0, 57, 0
2, 69499, Note_on_c, 0, 69, 0
2, 69539, Note_on_c, 0, 76, 102
2, 69539, Note_on_c, 0, 88, 102
2, 69542, Control_c, 0, 64, 0
2, 69558, Control_c, 0, 64, 127
2, 69570, Note_on_c, 0, 76, 0
2, 69576, Note_on_c, 0, 88, 0
2, 69599, Note_on_c, 0, 64, 98
2, 69599, Note_on_c, 0, 76, 98
2, 69604, Control_c, 0, 64, 0
2, 69614, Control_c, 0, 64, 127
2, 69643, Note_on_c, 0, 64, 0
2, 69655, Note_on_c, 0, 76, 0
2, 69659, Note_on_c, 0, 81, 93
2, 69659, Note_on_c, 0, 69, 85
2, 69664, Control_c, 0, 64, 0
2, 69674, Control_c, 0, 64, 127
2, 69689, Note_on_c, 0, 69, 0
2, 69697, Note_on_c, 0, 81, 0
2, 69719, Note_on_c, 0, 79, 93
2, 69719, Note_on_c, 0, 67, 93
2, 69726, Control_c, 0, 64, 0
2, 69738, Control_c, 0, 64, 127
2, 69839, Note_on_c, 0, 67, 0
2, 69839, Note_on_c, 0, 78, 80
2, 69839, Note_on_c, 0, 66, 68
2, 69841, Note_on_c, 0, 79, 0
2, 69842, Control_c, 0, 64, 0
2, 69856, Control_c, 0, 64, 127
2, 69960, Note_on_c, 0, 66, 0
2, 69962, Control_c, 0, 64, 0
2, 69963, Note_on_c, 0, 78, 0
2, 70079, Note_on_c, 0, 74, 62
2, 70079, Note_on_c, 0, 62, 57
2, 70086, Control_c, 0, 64, 127
2, 70109, Note_on_c, 0, 71, 64
2, 70121, Note_on_c, 0, 62, 0
2, 70134, Note_on_c, 0, 71, 0
2, 70139, Note_on_c, 0, 67, 47
2, 70149, Note_on_c, 0, 74, 0
2, 70169, Note_on_c, 0, 76, 72
2, 70169, Note_on_c, 0, 71, 53
2, 70171, Note_on_c, 0, 67, 0
2, 70181, Note_on_c, 0, 76, 0
2, 70189, Note_on_c, 0, 71, 0
2, 70199, Note_on_c, 0, 74, 62
2, 70199, Note_on_c, 0, 62, 47
2, 70200, Control_c, 0, 64, 0
2, 70211, Control_c, 0, 64, 127
2, 70229, Note_on_c, 0, 71, 48
2, 70231, Note_on_c, 0, 62, 0
2, 70250, Note_on_c, 0, 74, 0
2, 70257, Note_on_c, 0, 71, 0
2, 70259, Note_on_c, 0, 67, 45
2, 70259, Note_on_c, 0, 79, 85
2, 70289, Note_on_c, 0, 71, 59
2, 70290, Note_on_c, 0, 67, 0
2, 70291, Note_on_c, 0, 79, 0
2, 70315, Note_on_c, 0, 71, 0
2, 70319, Note_on_c, 0, 62, 62
2, 70319, Note_on_c, 0, 81, 76
2, 70323, Control_c, 0, 64, 0
2, 70333, Control_c, 0, 64, 127
2, 70349, Note_on_c, 0, 71, 52
2, 70350, Note_on_c, 0, 62, 0
2, 70354, Note_on_c, 0, 81, 0
2, 70376, Note_on_c, 0, 71, 0
2, 70379, Note_on_c, 0, 67, 48
2, 70379, Note_on_c, 0, 83, 80
2, 70406, Note_on_c, 0, 83, 0
2, 70409, Note_on_c, 0, 71, 62
2, 70411, Note_on_c, 0, 67, 0
2, 70429, Note_on_c, 0, 71, 0
2, 70439, Note_on_c, 0, 83, 80
2, 70439, Note_on_c, 0, 62, 56
2, 70445, Control_c, 0, 64, 0
2, 70456, Control_c, 0, 64, 127
2, 70469, Note_on_c, 0, 69, 56
2, 70472, Note_on_c, 0, 62, 0
2, 70486, Note_on_c, 0, 83, 0
2, 70496, Note_on_c, 0, 69, 0
2, 70499, Note_on_c, 0, 66, 56
2, 70499, Note_on_c, 0, 84, 76
2, 70502, Control_c, 0, 64, 0
2, 70511, Control_c, 0, 64, 127
2, 70529, Note_on_c, 0, 69, 57
2, 70530, Note_on_c, 0, 66, 0
2, 70537, Note_on_c, 0, 84, 0
2, 70554, Note_on_c, 0, 69, 0
2, 70559, Note_on_c, 0, 62, 52
2, 70559, Note_on_c, 0, 84, 76
2, 70565, Control_c, 0, 64, 0
2, 70576, Control_c, 0, 64, 127
2, 70589, Note_on_c, 0, 69, 46
2, 70592, Note_on_c, 0, 62, 0
2, 70619, Note_on_c, 0, 66, 60
2, 70620, Note_on_c, 0, 69, 0
2, 70646, Note_on_c, 0, 66, 0
2, 70649, Note_on_c, 0, 69, 59
2, 70675, Note_on_c, 0, 69, 0
2, 70679, Note_on_c, 0, 62, 62
2, 70683, Control_c, 0, 64, 0
2, 70690, Control_c, 0, 64, 127
2, 70709, Note_on_c, 0, 69, 53
2, 70713, Note_on_c, 0, 62, 0
2, 70721, Note_on_c, 0, 84, 0
2, 70737, Note_on_c, 0, 69, 0
2, 70739, Note_on_c, 0, 66, 51
2, 70766, Note_on_c, 0, 66, 0
2, 70769, Note_on_c, 0, 69, 47
2, 70790, Note_on_c, 0, 69, 0
2, 70799, Note_on_c, 0, 62, 56
2, 70799, Note_on_c, 0, 74, 72
2, 70801, Control_c, 0, 64, 0
2, 70811, Control_c, 0, 64, 127
2, 70829, Note_on_c, 0, 71, 60
2, 70833, Note_on_c, 0, 62, 0
2, 70859, Note_on_c, 0, 67, 49
2, 70860, Note_on_c, 0, 71, 0
2, 70863, Note_on_c, 0, 74, 0
2, 70887, Note_on_c, 0, 67, 0
2, 70889, Note_on_c, 0, 71, 64
2, 70889, Note_on_c, 0, 76, 76
2, 70896, Note_on_c, 0, 76, 0
2, 70901, Note_on_c, 0, 71, 0
2, 70919, Note_on_c, 0, 62, 57
2, 70919, Note_on_c, 0, 74, 72
2, 70920, Control_c, 0, 64, 0
2, 70931, Control_c, 0, 64, 127
2, 70949, Note_on_c, 0, 71, 51
2, 70951, Note_on_c, 0, 62, 0
2, 70959, Note_on_c, 0, 74, 0
2, 70977, Note_on_c, 0, 71, 0
2, 70979, Note_on_c, 0, 67, 43
2, 70979, Note_on_c, 0, 79, 80
2, 70985, Control_c, 0, 64, 0
2, 70994, Control_c, 0, 64, 127
2, 71009, Note_on_c, 0, 71, 56
2, 71012, Note_on_c, 0, 67, 0
2, 71016, Note_on_c, 0, 79, 0
2, 71032, Note_on_c, 0, 71, 0
2, 71039, Note_on_c, 0, 62, 51
2, 71039, Note_on_c, 0, 81, 72
2, 71043, Control_c, 0, 64, 0
2, 71053, Control_c, 0, 64, 127
2, 71069, Note_on_c, 0, 71, 51
2, 71071, Note_on_c, 0, 62, 0
2, 71074, Note_on_c, 0, 81, 0
2, 71094, Note_on_c, 0, 71, 0
2, 71099, Note_on_c, 0, 67, 40
2, 71099, Note_on_c, 0, 83, 76
2, 71105, Control_c, 0, 64, 0
2, 71114, Control_c, 0, 64, 127
2, 71128, Note_on_c, 0, 83, 0
2, 71129, Note_on_c, 0, 71, 60
2, 71130, Note_on_c, 0, 67, 0
2, 71149, Note_on_c, 0, 71, 0
2, 71159, Note_on_c, 0, 83, 85
2, 71159, Note_on_c, 0, 62, 64
2, 71163, Control_c, 0, 64, 0
2, 71174, Control_c, 0, 64, 127
2, 71189, Note_on_c, 0, 69, 52
2, 71191, Note_on_c, 0, 62, 0
2, 71197, Note_on_c, 0, 83, 0
2, 71214, Note_on_c, 0, 69, 0
2, 71219, Note_on_c, 0, 66, 48
2, 71219, Note_on_c, 0, 84, 76
2, 71225, Control_c, 0, 64, 0
2, 71233, Control_c, 0, 64, 127
2, 71248, Note_on_c, 0, 66, 0
2, 71249, Note_on_c, 0, 69, 52
2, 71254, Note_on_c, 0, 84, 0
2, 71270, Note_on_c, 0, 69, 0
2, 71279, Note_on_c, 0, 62, 47
2, 71279, Note_on_c, 0, 84, 76
2, 71284, Control_c, 0, 64, 0
2, 71295, Control_c, 0, 64, 127
2, 71309, Note_on_c, 0, 69, 55
2, 71311, Note_on_c, 0, 62, 0
2, 71337, Note_on_c, 0, 69, 0
2, 71339, Note_on_c, 0, 66, 56
2, 71366, Note_on_c, 0, 66, 0
2, 71369, Note_on_c, 0, 69, 56
2, 71398, Note_on_c, 0, 69, 0
2, 71399, Note_on_c, 0, 62, 62
2, 71403, Control_c, 0, 64, 0
2, 71414, Control_c, 0, 64, 127
2, 71429, Note_on_c, 0, 62, 0
2, 71429, Note_on_c, 0, 69, 64
2, 71456, Note_on_c, 0, 69, 0
2, 71459, Note_on_c, 0, 66, 57
2, 71470, Note_on_c, 0, 84, 0
2, 71486, Note_on_c, 0, 66, 0
2, 71489, Note_on_c, 0, 69, 59
2, 71502, Note_on_c, 0, 69, 0
2, 71518, Control_c, 0, 64, 0
2, 71519, Note_on_c, 0, 67, 72
2, 71519, Note_on_c, 0, 88, 80
2, 71529, Control_c, 0, 64, 127
2, 71534, Note_on_c, 0, 88, 0
2, 71534, Note_on_c, 0, 86, 76
2, 71544, Note_on_c, 0, 86, 0
2, 71549, Note_on_c, 0, 88, 59
2, 71564, Note_on_c, 0, 88, 0
2, 71564, Note_on_c, 0, 86, 72
2, 71577, Note_on_c, 0, 86, 0
2, 71579, Note_on_c, 0, 88, 62
2, 71594, Note_on_c, 0, 88, 0
2, 71594, Note_on_c, 0, 86, 72
2, 71605, Note_on_c, 0, 86, 0
2, 71607, Control_c, 0, 64, 0
2, 71609, Note_on_c, 0, 88, 89
2, 71609, Note_on_c, 0, 72, 68
2, 71611, Note_on_c, 0, 67, 0
2, 71616, Control_c, 0, 64, 127
2, 71632, Note_on_c, 0, 88, 0
2, 71637, Note_on_c, 0, 72, 0
2, 71639, Note_on_c, 0, 71, 60
2, 71639, Note_on_c, 0, 83, 80
2, 71643, Control_c, 0, 64, 0
2, 71656, Control_c, 0, 64, 127
2, 71669, Note_on_c, 0, 74, 56
2, 71670, Note_on_c, 0, 71, 0
2, 71699, Note_on_c, 0, 71, 62
2, 71702, Note_on_c, 0, 74, 0
2, 71718, Note_on_c, 0, 83, 0
2, 71721, Note_on_c, 0, 71, 0
2, 71729, Note_on_c, 0, 67, 31
2, 71745, Note_on_c, 0, 67, 0
2, 71759, Note_on_c, 0, 78, 72
2, 71759, Note_on_c, 0, 72, 62
2, 71769, Control_c, 0, 64, 0
2, 71783, Control_c, 0, 64, 127
2, 71786, Note_on_c, 0, 72, 0
2, 71789, Note_on_c, 0, 74, 64
2, 71819, Note_on_c, 0, 72, 76
2, 71823, Note_on_c, 0, 74, 0
2, 71848, Note_on_c, 0, 72, 0
2, 71849, Note_on_c, 0, 69, 76
2, 71855, Note_on_c, 0, 78, 0
2, 71864, Note_on_c, 0, 69, 0
2, 71879, Note_on_c, 0, 78, 62
2, 71879, Note_on_c, 0, 72, 76
2, 71879, Note_on_c, 0, 67, 80
2, 71879, Note_on_c, 0, 69, 64
2, 71888, Control_c, 0, 64, 0
2, 71903, Control_c, 0, 64, 127
2, 72100, Note_on_c, 0, 69, 0
2, 72101, Note_on_c, 0, 72, 0
2, 72114, Note_on_c, 0, 78, 0
2, 72119, Note_on_c, 0, 79, 72
2, 72119, Note_on_c, 0, 71, 62
2, 72122, Control_c, 0, 64, 0
2, 72133, Control_c, 0, 64, 127
2, 72182, Note_on_c, 0, 67, 0
2, 72183, Note_on_c, 0, 71, 0
2, 72185, Note_on_c, 0, 79, 0
2, 72195, Control_c, 0, 64, 0
2, 72240, Note_on_c, 0, 74, 80
2, 72240, Note_on_c, 0, 86, 101
2, 72242, Control_c, 0, 64, 127
2, 72266, Note_on_c, 0, 86, 0
2, 72266, Note_on_c, 0, 74, 0
2, 72269, Note_on_c, 0, 88, 83
2, 72269, Note_on_c, 0, 76, 83
2, 72269, Control_c, 0, 64, 0
2, 72294, Note_on_c, 0, 88, 0
2, 72299, Note_on_c, 0, 86, 83
2, 72299, Note_on_c, 0, 74, 83
2, 72300, Note_on_c, 0, 76, 0
2, 72302, Control_c, 0, 64, 127
2, 72322, Note_on_c, 0, 74, 0
2, 72326, Note_on_c, 0, 86, 0
2, 72329, Note_on_c, 0, 73, 80
2, 72329, Note_on_c, 0, 85, 80
2, 72339, Note_on_c, 0, 85, 0
2, 72341, Note_on_c, 0, 73, 0
2, 72350, Control_c, 0, 64, 0
2, 72359, Note_on_c, 0, 86, 88
2, 72359, Note_on_c, 0, 74, 61
2, 72369, Control_c, 0, 64, 127
2, 72384, Note_on_c, 0, 86, 0
2, 72385, Note_on_c, 0, 74, 0
2, 72389, Note_on_c, 0, 71, 80
2, 72389, Note_on_c, 0, 83, 88
2, 72398, Note_on_c, 0, 71, 0
2, 72402, Note_on_c, 0, 83, 0
2, 72414, Control_c, 0, 64, 0
2, 72419, Note_on_c, 0, 83, 83
2, 72419, Note_on_c, 0, 71, 72
2, 72422, Note_on_c, 0, 71, 0
2, 72422, Note_on_c, 0, 83, 0
2, 72425, Control_c, 0, 64, 127
2, 72426, Note_on_c, 0, 81, 80
2, 72426, Note_on_c, 0, 69, 68
2, 72429, Note_on_c, 0, 69, 0
2, 72429, Note_on_c, 0, 81, 0
2, 72433, Note_on_c, 0, 83, 80
2, 72433, Note_on_c, 0, 71, 68
2, 72436, Note_on_c, 0, 71, 0
2, 72436, Note_on_c, 0, 83, 0
2, 72440, Note_on_c, 0, 81, 72
2, 72440, Note_on_c, 0, 69, 55
2, 72443, Note_on_c, 0, 69, 0
2, 72443, Note_on_c, 0, 81, 0
2, 72449, Note_on_c, 0, 67, 80
2, 72449, Note_on_c, 0, 79, 96
2, 72455, Note_on_c, 0, 67, 0
2, 72455, Control_c, 0, 64, 0
2, 72472, Note_on_c, 0, 79, 0
2, 72479, Note_on_c, 0, 72, 76
2, 72479, Note_on_c, 0, 84, 88
2, 72507, Note_on_c, 0, 84, 0
2, 72508, Note_on_c, 0, 72, 0
2, 72509, Note_on_c, 0, 69, 76
2, 72509, Note_on_c, 0, 81, 83
2, 72538, Note_on_c, 0, 81, 0
2, 72538, Note_on_c, 0, 69, 0
2, 72539, Note_on_c, 0, 86, 88
2, 72539, Note_on_c, 0, 74, 72
2, 72542, Control_c, 0, 64, 127
2, 72569, Note_on_c, 0, 86, 0
2, 72569, Note_on_c, 0, 79, 83
2, 72569, Note_on_c, 0, 67, 76
2, 72570, Note_on_c, 0, 74, 0
2, 72578, Note_on_c, 0, 67, 0
2, 72579, Note_on_c, 0, 79, 0
2, 72596, Control_c, 0, 64, 0
2, 72599, Note_on_c, 0, 67, 72
2, 72599, Note_on_c, 0, 79, 91
2, 72610, Control_c, 0, 64, 127
2, 72627, Note_on_c, 0, 79, 0
2, 72628, Note_on_c, 0, 67, 0
2, 72629, Note_on_c, 0, 83, 83
2, 72629, Note_on_c, 0, 71, 83
2, 72634, Control_c, 0, 64, 0
2, 72657, Note_on_c, 0, 71, 0
2, 72657, Note_on_c, 0, 83, 0
2, 72659, Note_on_c, 0, 69, 76
2, 72659, Note_on_c, 0, 81, 83
2, 72665, Control_c, 0, 64, 127
2, 72687, Note_on_c, 0, 69, 0
2, 72688, Note_on_c, 0, 81, 0
2, 72689, Note_on_c, 0, 67, 83
2, 72689, Note_on_c, 0, 79, 88
2, 72696, Note_on_c, 0, 79, 0
2, 72696, Note_on_c, 0, 67, 0
2, 72716, Control_c, 0, 64, 0
2, 72719, Note_on_c, 0, 66, 72
2, 72719, Note_on_c, 0, 78, 96
2, 72731, Control_c, 0, 64, 127
2, 72746, Note_on_c, 0, 78, 0
2, 72749, Note_on_c, 0, 66, 0
2, 72749, Note_on_c, 0, 67, 80
2, 72749, Note_on_c, 0, 79, 83
2, 72752, Control_c, 0, 64, 0
2, 72764, Control_c, 0, 64, 127
2, 72776, Note_on_c, 0, 79, 0
2, 72777, Note_on_c, 0, 67, 0
2, 72777, Control_c, 0, 64, 0
2, 72779, Note_on_c, 0, 81, 80
2, 72779, Note_on_c, 0, 69, 83
2, 72789, Control_c, 0, 64, 127
2, 72805, Note_on_c, 0, 81, 0
2, 72806, Control_c, 0, 64, 0
2, 72808, Note_on_c, 0, 69, 0
2, 72809, Note_on_c, 0, 67, 80
2, 72809, Note_on_c, 0, 79, 88
2, 72816, Control_c, 0, 64, 127
2, 72834, Control_c, 0, 64, 0
2, 72835, Note_on_c, 0, 79, 0
2, 72835, Note_on_c, 0, 67, 0
2, 72839, Note_on_c, 0, 78, 80
2, 72839, Note_on_c, 0, 66, 83
2, 72846, Control_c, 0, 64, 127
2, 72866, Note_on_c, 0, 66, 0
2, 72867, Control_c, 0, 64, 0
2, 72868, Note_on_c, 0, 78, 0
2, 72869, Note_on_c, 0, 64, 76
2, 72869, Note_on_c, 0, 76, 83
2, 72877, Control_c, 0, 64, 127
2, 72895, Control_c, 0, 64, 0
2, 72897, Note_on_c, 0, 76, 0
2, 72897, Note_on_c, 0, 64, 0
2, 72899, Note_on_c, 0, 66, 76
2, 72899, Note_on_c, 0, 78, 88
2, 72907, Control_c, 0, 64, 127
2, 72927, Note_on_c, 0, 78, 0
2, 72927, Note_on_c, 0, 66, 0
2, 72929, Note_on_c, 0, 62, 83
2, 72929, Note_on_c, 0, 74, 83
2, 72937, Note_on_c, 0, 74, 0
2, 72937, Note_on_c, 0, 62, 0
2, 72959, Note_on_c, 0, 74, 83
2, 72959, Note_on_c, 0, 86, 96
2, 72959, Control_c, 0, 64, 0
2, 72970, Control_c, 0, 64, 127
2, 72988, Note_on_c, 0, 86, 0
2, 72989, Note_on_c, 0, 76, 76
2, 72989, Note_on_c, 0, 88, 80
2, 72990, Note_on_c, 0, 74, 0
2, 73015, Note_on_c, 0, 88, 0
2, 73018, Control_c, 0, 64, 0
2, 73019, Note_on_c, 0, 74, 80
2, 73019, Note_on_c, 0, 86, 96
2, 73021, Note_on_c, 0, 76, 0
2, 73030, Control_c, 0, 64, 127
2, 73047, Note_on_c, 0, 74, 0
2, 73048, Note_on_c, 0, 86, 0
2, 73049, Note_on_c, 0, 85, 80
2, 73049, Note_on_c, 0, 73, 68
2, 73069, Note_on_c, 0, 85, 0
2, 73072, Control_c, 0, 64, 0
2, 73074, Note_on_c, 0, 73, 0
2, 73079, Note_on_c, 0, 74, 68
2, 73079, Note_on_c, 0, 86, 91
2, 73083, Control_c, 0, 64, 127
2, 73103, Note_on_c, 0, 74, 0
2, 73105, Note_on_c, 0, 86, 0
2, 73109, Note_on_c, 0, 71, 80
2, 73109, Note_on_c, 0, 83, 88
2, 73117, Note_on_c, 0, 71, 0
2, 73121, Note_on_c, 0, 83, 0
2, 73134, Control_c, 0, 64, 0
2, 73139, Note_on_c, 0, 71, 83
2, 73139, Note_on_c, 0, 83, 76
2, 73142, Note_on_c, 0, 83, 0
2, 73142, Note_on_c, 0, 71, 0
2, 73146, Control_c, 0, 64, 127
2, 73146, Note_on_c, 0, 81, 68
2, 73146, Note_on_c, 0, 69, 72
2, 73149, Note_on_c, 0, 69, 0
2, 73149, Note_on_c, 0, 81, 0
2, 73153, Note_on_c, 0, 71, 83
2, 73153, Note_on_c, 0, 83, 72
2, 73156, Note_on_c, 0, 83, 0
2, 73156, Note_on_c, 0, 71, 0
2, 73160, Note_on_c, 0, 69, 76
2, 73160, Note_on_c, 0, 81, 72
2, 73163, Note_on_c, 0, 81, 0
2, 73163, Note_on_c, 0, 69, 0
2, 73169, Control_c, 0, 64, 0
2, 73169, Note_on_c, 0, 79, 96
2, 73169, Note_on_c, 0, 67, 83
2, 73188, Control_c, 0, 64, 127
2, 73190, Note_on_c, 0, 67, 0
2, 73195, Note_on_c, 0, 79, 0
2, 73199, Control_c, 0, 64, 0
2, 73199, Note_on_c, 0, 72, 68
2, 73199, Note_on_c, 0, 84, 83
2, 73229, Note_on_c, 0, 84, 0
2, 73229, Note_on_c, 0, 72, 0
2, 73229, Control_c, 0, 64, 127
2, 73229, Note_on_c, 0, 81, 83
2, 73229, Note_on_c, 0, 69, 72
2, 73258, Note_on_c, 0, 69, 0
2, 73258, Control_c, 0, 64, 0
2, 73259, Note_on_c, 0, 81, 0
2, 73259, Note_on_c, 0, 74, 76
2, 73259, Note_on_c, 0, 86, 91
2, 73270, Control_c, 0, 64, 127
2, 73286, Note_on_c, 0, 74, 0
2, 73288, Note_on_c, 0, 86, 0
2, 73289, Note_on_c, 0, 67, 80
2, 73289, Note_on_c, 0, 79, 83
2, 73298, Note_on_c, 0, 67, 0
2, 73299, Note_on_c, 0, 79, 0
2, 73318, Control_c, 0, 64, 0
2, 73319, Note_on_c, 0, 67, 72
2, 73319, Note_on_c, 0, 79, 91
2, 73331, Control_c, 0, 64, 127
2, 73347, Note_on_c, 0, 67, 0
2, 73348, Note_on_c, 0, 79, 0
2, 73349, Note_on_c, 0, 83, 80
2, 73349, Note_on_c, 0, 71, 68
2, 73353, Control_c, 0, 64, 0
2, 73363, Control_c, 0, 64, 127
2, 73377, Note_on_c, 0, 71, 0
2, 73377, Note_on_c, 0, 83, 0
2, 73378, Control_c, 0, 64, 0
2, 73379, Note_on_c, 0, 69, 80
2, 73379, Note_on_c, 0, 81, 83
2, 73388, Control_c, 0, 64, 127
2, 73408, Note_on_c, 0, 81, 0
2, 73409, Note_on_c, 0, 69, 0
2, 73409, Note_on_c, 0, 79, 91
2, 73409, Note_on_c, 0, 67, 88
2, 73415, Note_on_c, 0, 67, 0
2, 73415, Note_on_c, 0, 79, 0
2, 73435, Control_c, 0, 64, 0
2, 73439, Note_on_c, 0, 78, 101
2, 73439, Note_on_c, 0, 66, 76
2, 73448, Control_c, 0, 64, 127
2, 73467, Note_on_c, 0, 78, 0
2, 73469, Note_on_c, 0, 66, 0
2, 73469, Note_on_c, 0, 67, 80
2, 73469, Note_on_c, 0, 79, 83
2, 73471, Control_c, 0, 64, 0
2, 73481, Control_c, 0, 64, 127
2, 73498, Note_on_c, 0, 79, 0
2, 73499, Note_on_c, 0, 67, 0
2, 73499, Note_on_c, 0, 81, 80
2, 73499, Note_on_c, 0, 69, 88
2, 73500, Control_c, 0, 64, 0
2, 73510, Control_c, 0, 64, 127
2, 73524, Note_on_c, 0, 81, 0
2, 73526, Note_on_c, 0, 69, 0
2, 73527, Control_c, 0, 64, 0
2, 73529, Note_on_c, 0, 79, 91
2, 73529, Note_on_c, 0, 67, 83
2, 73536, Control_c, 0, 64, 127
2, 73555, Note_on_c, 0, 67, 0
2, 73555, Note_on_c, 0, 79, 0
2, 73558, Control_c, 0, 64, 0
2, 73559, Note_on_c, 0, 66, 72
2, 73559, Note_on_c, 0, 78, 83
2, 73567, Control_c, 0, 64, 127
2, 73586, Control_c, 0, 64, 0
2, 73587, Note_on_c, 0, 78, 0
2, 73587, Note_on_c, 0, 66, 0
2, 73589, Note_on_c, 0, 64, 72
2, 73589, Note_on_c, 0, 76, 80
2, 73598, Control_c, 0, 64, 127
2, 73614, Note_on_c, 0, 76, 0
2, 73615, Note_on_c, 0, 64, 0
2, 73616, Control_c, 0, 64, 0
2, 73619, Note_on_c, 0, 66, 72
2, 73619, Note_on_c, 0, 78, 88
2, 73627, Control_c, 0, 64, 127
2, 73646, Note_on_c, 0, 66, 0
2, 73647, Note_on_c, 0, 78, 0
2, 73649, Note_on_c, 0, 62, 76
2, 73649, Note_on_c, 0, 74, 80
2, 73656, Note_on_c, 0, 74, 0
2, 73658, Note_on_c, 0, 62, 0
2, 73672, Control_c, 0, 64, 0
2, 73679, Note_on_c, 0, 76, 83
2, 73679, Note_on_c, 0, 88, 96
2, 73684, Control_c, 0, 64, 127
2, 73688, Note_on_c, 0, 88, 0
2, 73692, Note_on_c, 0, 76, 0
2, 73694, Note_on_c, 0, 74, 80
2, 73694, Note_on_c, 0, 86, 80
2, 73702, Note_on_c, 0, 86, 0
2, 73704, Note_on_c, 0, 74, 0
2, 73709, Note_on_c, 0, 76, 68
2, 73709, Note_on_c, 0, 88, 80
2, 73720, Note_on_c, 0, 88, 0
2, 73721, Note_on_c, 0, 76, 0
2, 73724, Note_on_c, 0, 74, 64
2, 73724, Note_on_c, 0, 86, 64
2, 73737, Note_on_c, 0, 86, 0
2, 73739, Note_on_c, 0, 74, 0
2, 73739, Note_on_c, 0, 88, 80
2, 73739, Note_on_c, 0, 76, 68
2, 73747, Note_on_c, 0, 88, 0
2, 73750, Note_on_c, 0, 76, 0
2, 73754, Note_on_c, 0, 86, 91
2, 73754, Note_on_c, 0, 74, 80
2, 73759, Control_c, 0, 64, 0
2, 73769, Note_on_c, 0, 76, 91
2, 73769, Note_on_c, 0, 88, 91
2, 73771, Note_on_c, 0, 86, 0
2, 73772, Control_c, 0, 64, 127
2, 73774, Note_on_c, 0, 74, 0
2, 73797, Control_c, 0, 64, 0
2, 73799, Note_on_c, 0, 76, 0
2, 73799, Note_on_c, 0, 88, 0
2, 73799, Note_on_c, 0, 79, 96
2, 73799, Note_on_c, 0, 67, 64
2, 73816, Control_c, 0, 64, 127
2, 73919, Note_on_c, 0, 79, 0
2, 73919, Note_on_c, 0, 78, 80
2, 73919, Note_on_c, 0, 66, 68
2, 73920, Note_on_c, 0, 67, 0
2, 73922, Control_c, 0, 64, 0
2, 73938, Control_c, 0, 64, 127
2, 74014, Note_on_c, 0, 66, 0
2, 74014, Note_on_c, 0, 78, 0
2, 74039, Note_on_c, 0, 78, 98
2, 74039, Note_on_c, 0, 66, 68
2, 74047, Control_c, 0, 64, 0
2, 74062, Control_c, 0, 64, 127
2, 74151, Note_on_c, 0, 78, 0
2, 74153, Note_on_c, 0, 66, 0
2, 74159, Note_on_c, 0, 79, 68
2, 74159, Note_on_c, 0, 67, 62
2, 74160, Control_c, 0, 64, 0
2, 74171, Control_c, 0, 64, 127
2, 74173, Note_on_c, 0, 79, 0
2, 74178, Note_on_c, 0, 67, 0
2, 74208, Control_c, 0, 64, 0
2, 74219, Note_on_c, 0, 72, 53
2, 74219, Note_on_c, 0, 69, 62
2, 74219, Note_on_c, 0, 66, 53
2, 74219, Note_on_c, 0, 62, 53
2, 74226, Control_c, 0, 64, 127
2, 74249, Note_on_c, 0, 62, 0
2, 74249, Note_on_c, 0, 66, 0
2, 74252, Note_on_c, 0, 69, 0
2, 74252, Note_on_c, 0, 72, 0
2, 74279, Note_on_c, 0, 72, 60
2, 74279, Note_on_c, 0, 69, 64
2, 74279, Control_c, 0, 64, 0
2, 74279, Note_on_c, 0, 66, 56
2, 74279, Note_on_c, 0, 62, 56
2, 74288, Control_c, 0, 64, 127
2, 74312, Note_on_c, 0, 62, 0
2, 74312, Note_on_c, 0, 66, 0
2, 74312, Note_on_c, 0, 69, 0
2, 74314, Note_on_c, 0, 72, 0
2, 74337, Control_c, 0, 64, 0
2, 74339, Note_on_c, 0, 72, 62
2, 74339, Note_on_c, 0, 69, 62
2, 74339, Note_on_c, 0, 62, 56
2, 74339, Note_on_c, 0, 66, 60
2, 74346, Control_c, 0, 64, 127
2, 74361, Note_on_c, 0, 62, 0
2, 74361, Note_on_c, 0, 72, 0
2, 74362, Note_on_c, 0, 69, 0
2, 74362, Note_on_c, 0, 66, 0
2, 74397, Control_c, 0, 64, 0
2, 74399, Note_on_c, 0, 72, 64
2, 74399, Note_on_c, 0, 69, 62
2, 74399, Note_on_c, 0, 62, 56
2, 74399, Note_on_c, 0, 66, 62
2, 74411, Control_c, 0, 64, 127
2, 74634, Note_on_c, 0, 66, 0
2, 74639, Note_on_c, 0, 72, 0
2, 74639, Note_on_c, 0, 67, 31
2, 74639, Note_on_c, 0, 71, 57
2, 74640, Note_on_c, 0, 69, 0
2, 74642, Control_c, 0, 64, 0
2, 74653, Control_c, 0, 64, 127
2, 74704, Note_on_c, 0, 71, 0
2, 74704, Control_c, 0, 64, 0
2, 74705, Note_on_c, 0, 67, 0
2, 74705, Note_on_c, 0, 62, 0
2, 75120, Note_on_c, 0, 78, 93
2, 75120, Note_on_c, 0, 81, 107
2, 75120, Note_on_c, 0, 74, 113
2, 75120, Note_on_c, 0, 86, 107
2, 75120, Note_on_c, 0, 62, 107
2, 75120, Note_on_c, 0, 66, 85
2, 75120, Note_on_c, 0, 69, 98
2, 75122, Control_c, 0, 64, 127
2, 75153, Note_on_c, 0, 74, 0
2, 75154, Note_on_c, 0, 78, 0
2, 75154, Note_on_c, 0, 81, 0
2, 75156, Note_on_c, 0, 66, 0
2, 75157, Note_on_c, 0, 86, 0
2, 75158, Note_on_c, 0, 62, 0
2, 75158, Note_on_c, 0, 69, 0
2, 75228, Control_c, 0, 64, 0
2, 75240, Note_on_c, 0, 78, 93
2, 75240, Note_on_c, 0, 74, 107
2, 75240, Note_on_c, 0, 62, 102
2, 75240, Note_on_c, 0, 86, 113
2, 75240, Note_on_c, 0, 66, 85
2, 75240, Note_on_c, 0, 81, 107
2, 75240, Note_on_c, 0, 69, 98
2, 75256, Control_c, 0, 64, 127
2, 75275, Note_on_c, 0, 74, 0
2, 75275, Note_on_c, 0, 78, 0
2, 75277, Note_on_c, 0, 81, 0
2, 75280, Note_on_c, 0, 86, 0
2, 75283, Note_on_c, 0, 69, 0
2, 75283, Note_on_c, 0, 62, 0
2, 75283, Note_on_c, 0, 66, 0
2, 75343, Control_c, 0, 64, 0
2, 75360, Note_on_c, 0, 78, 93
2, 75360, Note_on_c, 0, 74, 98
2, 75360, Note_on_c, 0, 86, 102
2, 75360, Note_on_c, 0, 81, 102
2, 75360, Note_on_c, 0, 62, 98
2, 75360, Note_on_c, 0, 66, 85
2, 75360, Note_on_c, 0, 69, 98
2, 75369, Control_c, 0, 64, 127
2, 75382, Note_on_c, 0, 69, 0
2, 75384, Note_on_c, 0, 62, 0
2, 75385, Note_on_c, 0, 74, 0
2, 75385, Note_on_c, 0, 66, 0
2, 75389, Note_on_c, 0, 81, 0
2, 75390, Note_on_c, 0, 86, 0
2, 75390, Note_on_c, 0, 78, 0
2, 75478, Control_c, 0, 64, 0
2, 76080, Note_on_c, 0, 86, 107
2, 76080, Note_on_c, 0, 62, 93
2, 76080, Note_on_c, 0, 74, 102
2, 76080, Note_on_c, 0, 66, 80
2, 76080, Note_on_c, 0, 78, 93
2, 76080, Note_on_c, 0, 81, 102
2, 76080, Note_on_c, 0, 69, 98
2, 76085, Control_c, 0, 64, 127
2, 76118, Note_on_c, 0, 74, 0
2, 76120, Note_on_c, 0, 81, 0
2, 76121, Note_on_c, 0, 78, 0
2, 76123, Note_on_c, 0, 69, 0
2, 76124, Note_on_c, 0, 62, 0
2, 76125, Note_on_c, 0, 66, 0
2, 76125, Note_on_c, 0, 86, 0
2, 76192, Control_c, 0, 64, 0
2, 76200, Note_on_c, 0, 78, 89
2, 76200, Note_on_c, 0, 74, 102
2, 76200, Note_on_c, 0, 86, 107
2, 76200, Note_on_c, 0, 81, 102
2, 76200, Note_on_c, 0, 62, 98
2, 76200, Note_on_c, 0, 66, 89
2, 76200, Note_on_c, 0, 69, 98
2, 76223, Control_c, 0, 64, 127
2, 76237, Note_on_c, 0, 74, 0
2, 76240, Note_on_c, 0, 78, 0
2, 76241, Note_on_c, 0, 81, 0
2, 76244, Note_on_c, 0, 86, 0
2, 76245, Note_on_c, 0, 62, 0
2, 76246, Note_on_c, 0, 66, 0
2, 76246, Note_on_c, 0, 69, 0
2, 76302, Control_c, 0, 64, 0
2, 76320, Note_on_c, 0, 78, 93
2, 76320, Note_on_c, 0, 74, 102
2, 76320, Note_on_c, 0, 86, 102
2, 76320, Note_on_c, 0, 62, 102
2, 76320, Note_on_c, 0, 81, 107
2, 76320, Note_on_c, 0, 66, 85
2, 76320, Note_on_c, 0, 69, 98
2, 76328, Control_c, 0, 64, 127
2, 76337, Note_on_c, 0, 69, 0
2, 76338, Note_on_c, 0, 74, 0
2, 76339, Note_on_c, 0, 62, 0
2, 76340, Note_on_c, 0, 66, 0
2, 76343, Note_on_c, 0, 81, 0
2, 76344, Note_on_c, 0, 86, 0
2, 76344, Note_on_c, 0, 78, 0
2, 76441, Control_c, 0, 64, 0
2, 77040, Note_on_c, 0, 86, 89
2, 77040, Note_on_c, 0, 74, 76
2, 77042, Control_c, 0, 64, 127
2, 77088, Note_on_c, 0, 74, 0
2, 77089, Note_on_c, 0, 86, 0
2, 77100, Note_on_c, 0, 78, 64
2, 77100, Note_on_c, 0, 66, 68
2, 77100, Note_on_c, 0, 81, 80
2, 77100, Note_on_c, 0, 69, 64
2, 77118, Note_on_c, 0, 69, 0
2, 77119, Note_on_c, 0, 78, 0
2, 77121, Note_on_c, 0, 66, 0
2, 77122, Note_on_c, 0, 81, 0
2, 77160, Note_on_c, 0, 66, 62
2, 77160, Note_on_c, 0, 69, 62
2, 77160, Note_on_c, 0, 81, 89
2, 77160, Note_on_c, 0, 78, 55
2, 77179, Note_on_c, 0, 78, 0
2, 77182, Note_on_c, 0, 69, 0
2, 77183, Note_on_c, 0, 66, 0
2, 77184, Note_on_c, 0, 81, 0
2, 77220, Note_on_c, 0, 66, 72
2, 77220, Note_on_c, 0, 81, 85
2, 77220, Note_on_c, 0, 78, 64
2, 77220, Note_on_c, 0, 69, 72
2, 77236, Note_on_c, 0, 81, 0
2, 77237, Note_on_c, 0, 69, 0
2, 77240, Note_on_c, 0, 66, 0
2, 77244, Note_on_c, 0, 78, 0
2, 77269, Control_c, 0, 64, 0
2, 77280, Note_on_c, 0, 66, 68
2, 77280, Note_on_c, 0, 78, 80
2, 77280, Note_on_c, 0, 69, 76
2, 77280, Note_on_c, 0, 81, 89
2, 77296, Control_c, 0, 64, 127
2, 77306, Note_on_c, 0, 69, 0
2, 77315, Note_on_c, 0, 81, 0
2, 77315, Note_on_c, 0, 78, 0
2, 77317, Note_on_c, 0, 66, 0
2, 77340, Note_on_c, 0, 76, 68
2, 77340, Note_on_c, 0, 79, 76
2, 77340, Note_on_c, 0, 67, 49
2, 77340, Note_on_c, 0, 64, 46
2, 77363, Note_on_c, 0, 64, 0
2, 77366, Note_on_c, 0, 79, 0
2, 77367, Note_on_c, 0, 67, 0
2, 77367, Note_on_c, 0, 76, 0
2, 77395, Control_c, 0, 64, 0
2, 77400, Note_on_c, 0, 64, 72
2, 77400, Note_on_c, 0, 76, 89
2, 77400, Note_on_c, 0, 79, 85
2, 77400, Note_on_c, 0, 67, 76
2, 77421, Control_c, 0, 64, 127
2, 77433, Note_on_c, 0, 76, 0
2, 77434, Note_on_c, 0, 79, 0
2, 77435, Note_on_c, 0, 64, 0
2, 77435, Note_on_c, 0, 67, 0
2, 77520, Control_c, 0, 64, 0
2, 77520, Note_on_c, 0, 67, 80
2, 77520, Note_on_c, 0, 79, 85
2, 77520, Note_on_c, 0, 88, 89
2, 77520, Note_on_c, 0, 76, 76
2, 77546, Note_on_c, 0, 67, 0
2, 77546, Control_c, 0, 64, 127
2, 77547, Note_on_c, 0, 76, 0
2, 77550, Note_on_c, 0, 88, 0
2, 77552, Note_on_c, 0, 79, 0
2, 77580, Note_on_c, 0, 76, 72
2, 77580, Note_on_c, 0, 64, 76
2, 77580, Note_on_c, 0, 79, 89
2, 77580, Note_on_c, 0, 67, 51
2, 77606, Note_on_c, 0, 67, 0
2, 77608, Note_on_c, 0, 64, 0
2, 77611, Note_on_c, 0, 79, 0
2, 77611, Note_on_c, 0, 76, 0
2, 77640, Control_c, 0, 64, 0
2, 77640, Note_on_c, 0, 64, 76
2, 77640, Note_on_c, 0, 67, 68
2, 77640, Note_on_c, 0, 79, 89
2, 77640, Note_on_c, 0, 76, 80
2, 77662, Control_c, 0, 64, 127
2, 77668, Note_on_c, 0, 67, 0
2, 77670, Note_on_c, 0, 76, 0
2, 77671, Note_on_c, 0, 79, 0
2, 77686, Note_on_c, 0, 64, 0
2, 77700, Note_on_c, 0, 64, 76
2, 77700, Note_on_c, 0, 67, 62
2, 77700, Note_on_c, 0, 79, 80
2, 77700, Note_on_c, 0, 76, 80
2, 77711, Note_on_c, 0, 67, 0
2, 77716, Note_on_c, 0, 79, 0
2, 77722, Note_on_c, 0, 64, 0
2, 77723, Note_on_c, 0, 76, 0
2, 77758, Control_c, 0, 64, 0
2, 77760, Note_on_c, 0, 76, 80
2, 77760, Note_on_c, 0, 67, 62
2, 77760, Note_on_c, 0, 79, 80
2, 77760, Note_on_c, 0, 64, 76
2, 77782, Control_c, 0, 64, 127
2, 77792, Note_on_c, 0, 64, 0
2, 77793, Note_on_c, 0, 79, 0
2, 77795, Note_on_c, 0, 76, 0
2, 77799, Note_on_c, 0, 67, 0
2, 77820, Note_on_c, 0, 66, 60
2, 77820, Note_on_c, 0, 78, 60
2, 77820, Note_on_c, 0, 74, 76
2, 77820, Note_on_c, 0, 62, 72
2, 77839, Note_on_c, 0, 62, 0
2, 77845, Note_on_c, 0, 78, 0
2, 77847, Note_on_c, 0, 74, 0
2, 77847, Note_on_c, 0, 66, 0
2, 77868, Control_c, 0, 64, 0
2, 77880, Note_on_c, 0, 78, 72
2, 77880, Note_on_c, 0, 74, 85
2, 77880, Note_on_c, 0, 62, 72
2, 77880, Note_on_c, 0, 66, 68
2, 77896, Control_c, 0, 64, 127
2, 77902, Note_on_c, 0, 78, 0
2, 77903, Note_on_c, 0, 66, 0
2, 77903, Note_on_c, 0, 62, 0
2, 77907, Note_on_c, 0, 74, 0
2, 77997, Control_c, 0, 64, 0
2, 78000, Note_on_c, 0, 78, 76
2, 78000, Note_on_c, 0, 86, 93
2, 78000, Note_on_c, 0, 66, 62
2, 78000, Note_on_c, 0, 74, 64
2, 78022, Control_c, 0, 64, 127
2, 78025, Note_on_c, 0, 66, 0
2, 78027, Note_on_c, 0, 86, 0
2, 78028, Note_on_c, 0, 74, 0
2, 78029, Note_on_c, 0, 78, 0
2, 78060, Note_on_c, 0, 74, 64
2, 78060, Note_on_c, 0, 78, 68
2, 78060, Note_on_c, 0, 66, 60
2, 78060, Note_on_c, 0, 62, 85
2, 78068, Control_c, 0, 64, 0
2, 78090, Control_c, 0, 64, 127
2, 78096, Note_on_c, 0, 62, 0
2, 78099, Note_on_c, 0, 74, 0
2, 78100, Note_on_c, 0, 66, 0
2, 78100, Note_on_c, 0, 78, 0
2, 78120, Note_on_c, 0, 62, 76
2, 78120, Note_on_c, 0, 74, 68
2, 78120, Note_on_c, 0, 78, 68
2, 78120, Note_on_c, 0, 66, 68
2, 78122, Control_c, 0, 64, 0
2, 78140, Control_c, 0, 64, 127
2, 78146, Note_on_c, 0, 66, 0
2, 78148, Note_on_c, 0, 62, 0
2, 78151, Note_on_c, 0, 78, 0
2, 78152, Note_on_c, 0, 74, 0
2, 78180, Note_on_c, 0, 66, 64
2, 78180, Note_on_c, 0, 62, 72
2, 78180, Note_on_c, 0, 78, 72
2, 78180, Note_on_c, 0, 74, 80
2, 78195, Note_on_c, 0, 62, 0
2, 78197, Note_on_c, 0, 66, 0
2, 78200, Note_on_c, 0, 74, 0
2, 78203, Note_on_c, 0, 78, 0
2, 78240, Note_on_c, 0, 64, 76
2, 78240, Note_on_c, 0, 59, 80
2, 78240, Note_on_c, 0, 76, 80
2, 78240, Note_on_c, 0, 71, 85
2, 78241, Control_c, 0, 64, 0
2, 78272, Control_c, 0, 64, 127
2, 78289, Note_on_c, 0, 64, 0
2, 78293, Note_on_c, 0, 59, 0
2, 78293, Note_on_c, 0, 71, 0
2, 78298, Note_on_c, 0, 76, 0
2, 78410, Control_c, 0, 64, 0
2, 78420, Note_on_c, 0, 79, 80
2, 78420, Note_on_c, 0, 83, 80
2, 78420, Note_on_c, 0, 67, 80
2, 78420, Note_on_c, 0, 71, 72
2, 78433, Control_c, 0, 64, 127
2, 78444, Note_on_c, 0, 71, 0
2, 78444, Note_on_c, 0, 67, 0
2, 78453, Note_on_c, 0, 79, 0
2, 78457, Note_on_c, 0, 83, 0
2, 78475, Control_c, 0, 64, 0
2, 78480, Note_on_c, 0, 78, 72
2, 78480, Note_on_c, 0, 66, 68
2, 78480, Note_on_c, 0, 81, 85
2, 78480, Note_on_c, 0, 69, 76
2, 78497, Control_c, 0, 64, 127
2, 78516, Note_on_c, 0, 81, 0
2, 78516, Note_on_c, 0, 78, 0
2, 78517, Note_on_c, 0, 69, 0
2, 78521, Note_on_c, 0, 66, 0
2, 78533, Control_c, 0, 64, 0
2, 78540, Note_on_c, 0, 64, 72
2, 78540, Note_on_c, 0, 79, 80
2, 78540, Note_on_c, 0, 76, 80
2, 78540, Note_on_c, 0, 67, 56
2, 78552, Control_c, 0, 64, 127
2, 78561, Note_on_c, 0, 67, 0
2, 78562, Note_on_c, 0, 79, 0
2, 78568, Note_on_c, 0, 64, 0
2, 78572, Note_on_c, 0, 76, 0
2, 78590, Control_c, 0, 64, 0
2, 78600, Note_on_c, 0, 66, 60
2, 78600, Note_on_c, 0, 78, 80
2, 78600, Note_on_c, 0, 62, 89
2, 78600, Note_on_c, 0, 74, 89
2, 78609, Control_c, 0, 64, 127
2, 78624, Note_on_c, 0, 62, 0
2, 78628, Note_on_c, 0, 66, 0
2, 78629, Note_on_c, 0, 74, 0
2, 78636, Note_on_c, 0, 78, 0
2, 78648, Control_c, 0, 64, 0
2, 78660, Note_on_c, 0, 76, 93
2, 78660, Note_on_c, 0, 61, 62
2, 78660, Note_on_c, 0, 73, 85
2, 78660, Note_on_c, 0, 64, 80
2, 78666, Control_c, 0, 64, 127
2, 78685, Note_on_c, 0, 64, 0
2, 78687, Note_on_c, 0, 73, 0
2, 78687, Note_on_c, 0, 76, 0
2, 78692, Note_on_c, 0, 61, 0
2, 78712, Control_c, 0, 64, 0
2, 78720, Note_on_c, 0, 62, 89
2, 78720, Note_on_c, 0, 74, 93
2, 78735, Control_c, 0, 64, 127
2, 78747, Note_on_c, 0, 74, 0
2, 78754, Note_on_c, 0, 62, 0
2, 78840, Note_on_c, 0, 62, 93
2, 78841, Control_c, 0, 64, 0
2, 78865, Control_c, 0, 64, 127
2, 78875, Note_on_c, 0, 62, 0
2, 78956, Control_c, 0, 64, 0
2, 78960, Note_on_c, 0, 66, 51
2, 78960, Note_on_c, 0, 74, 62
2, 78960, Note_on_c, 0, 57, 60
2, 78980, Control_c, 0, 64, 127
2, 78984, Note_on_c, 0, 66, 0
2, 78990, Note_on_c, 0, 57, 0
2, 78991, Note_on_c, 0, 74, 0
2, 79020, Note_on_c, 0, 66, 57
2, 79020, Note_on_c, 0, 57, 60
2, 79020, Note_on_c, 0, 69, 76
2, 79040, Note_on_c, 0, 69, 0
2, 79040, Note_on_c, 0, 66, 0
2, 79041, Note_on_c, 0, 57, 0
2, 79080, Note_on_c, 0, 57, 68
2, 79080, Note_on_c, 0, 69, 80
2, 79080, Note_on_c, 0, 66, 57
2, 79100, Note_on_c, 0, 66, 0
2, 79103, Note_on_c, 0, 69, 0
2, 79103, Note_on_c, 0, 57, 0
2, 79140, Note_on_c, 0, 69, 76
2, 79140, Note_on_c, 0, 57, 64
2, 79140, Note_on_c, 0, 66, 56
2, 79154, Note_on_c, 0, 69, 0
2, 79157, Note_on_c, 0, 57, 0
2, 79160, Note_on_c, 0, 66, 0
2, 79198, Control_c, 0, 64, 0
2, 79200, Note_on_c, 0, 66, 68
2, 79200, Note_on_c, 0, 69, 56
2, 79200, Note_on_c, 0, 57, 62
2, 79221, Control_c, 0, 64, 127
2, 79231, Note_on_c, 0, 69, 0
2, 79232, Note_on_c, 0, 57, 0
2, 79238, Note_on_c, 0, 66, 0
2, 79260, Note_on_c, 0, 57, 62
2, 79260, Note_on_c, 0, 64, 59
2, 79260, Note_on_c, 0, 67, 64
2, 79282, Note_on_c, 0, 57, 0
2, 79283, Note_on_c, 0, 67, 0
2, 79283, Note_on_c, 0, 64, 0
2, 79320, Note_on_c, 0, 57, 64
2, 79320, Note_on_c, 0, 67, 62
2, 79320, Note_on_c, 0, 64, 60
2, 79324, Control_c, 0, 64, 0
2, 79331, Control_c, 0, 64, 127
2, 79350, Note_on_c, 0, 64, 0
2, 79351, Note_on_c, 0, 57, 0
2, 79352, Note_on_c, 0, 67, 0
2, 79380, Note_on_c, 0, 57, 72
2, 79399, Note_on_c, 0, 57, 0
2, 79436, Control_c, 0, 64, 0
2, 79440, Note_on_c, 0, 57, 72
2, 79440, Note_on_c, 0, 67, 80
2, 79440, Note_on_c, 0, 76, 80
2, 79460, Control_c, 0, 64, 127
2, 79470, Note_on_c, 0, 76, 0
2, 79471, Note_on_c, 0, 57, 0
2, 79473, Note_on_c, 0, 67, 0
2, 79500, Note_on_c, 0, 57, 57
2, 79500, Note_on_c, 0, 64, 72
2, 79500, Note_on_c, 0, 67, 76
2, 79524, Note_on_c, 0, 57, 0
2, 79526, Note_on_c, 0, 67, 0
2, 79526, Note_on_c, 0, 64, 0
2, 79560, Note_on_c, 0, 57, 64
2, 79560, Note_on_c, 0, 64, 62
2, 79560, Note_on_c, 0, 67, 68
2, 79582, Note_on_c, 0, 57, 0
2, 79583, Note_on_c, 0, 67, 0
2, 79583, Note_on_c, 0, 64, 0
2, 79620, Note_on_c, 0, 67, 76
2, 79620, Note_on_c, 0, 57, 62
2, 79620, Note_on_c, 0, 64, 62
2, 79637, Note_on_c, 0, 67, 0
2, 79640, Note_on_c, 0, 57, 0
2, 79642, Note_on_c, 0, 64, 0
2, 79677, Control_c, 0, 64, 0
2, 79680, Note_on_c, 0, 64, 76
2, 79680, Note_on_c, 0, 67, 76
2, 79680, Note_on_c, 0, 57, 68
2, 79700, Control_c, 0, 64, 127
2, 79711, Note_on_c, 0, 67, 0
2, 79715, Note_on_c, 0, 57, 0
2, 79719, Note_on_c, 0, 64, 0
2, 79740, Note_on_c, 0, 66, 64
2, 79740, Note_on_c, 0, 62, 72
2, 79740, Note_on_c, 0, 57, 68
2, 79761, Note_on_c, 0, 57, 0
2, 79763, Note_on_c, 0, 62, 0
2, 79764, Note_on_c, 0, 66, 0
2, 79794, Control_c, 0, 64, 0
2, 79800, Note_on_c, 0, 57, 76
2, 79800, Note_on_c, 0, 62, 76
2, 79800, Note_on_c, 0, 66, 62
2, 79816, Control_c, 0, 64, 127
2, 79822, Note_on_c, 0, 62, 0
2, 79823, Note_on_c, 0, 66, 0
2, 79823, Note_on_c, 0, 57, 0
2, 79860, Note_on_c, 0, 57, 76
2, 79877, Note_on_c, 0, 57, 0
2, 79911, Control_c, 0, 64, 0
2, 79920, Note_on_c, 0, 74, 113
2, 79920, Note_on_c, 0, 62, 102
2, 79939, Control_c, 0, 64, 127
2, 80015, Note_on_c, 0, 62, 0
2, 80029, Note_on_c, 0, 74, 0
2, 80031, Control_c, 0, 64, 0
2, 80040, Note_on_c, 0, 57, 107
2, 80040, Note_on_c, 0, 69, 119
2, 80056, Control_c, 0, 64, 127
2, 80122, Note_on_c, 0, 69, 0
2, 80128, Note_on_c, 0, 57, 0
2, 80130, Note_on_c, 0, 62, 89
2, 80130, Note_on_c, 0, 74, 93
2, 80141, Control_c, 0, 64, 0
2, 80146, Note_on_c, 0, 74, 0
2, 80147, Note_on_c, 0, 62, 0
2, 80160, Note_on_c, 0, 66, 107
2, 80160, Note_on_c, 0, 78, 107
2, 80186, Control_c, 0, 64, 127
2, 80263, Note_on_c, 0, 66, 0
2, 80266, Control_c, 0, 64, 0
2, 80273, Note_on_c, 0, 78, 0
2, 80280, Note_on_c, 0, 62, 98
2, 80280, Note_on_c, 0, 74, 107
2, 80297, Control_c, 0, 64, 127
2, 80369, Note_on_c, 0, 74, 0
2, 80370, Note_on_c, 0, 62, 0
2, 80370, Note_on_c, 0, 66, 93
2, 80370, Note_on_c, 0, 78, 102
2, 80376, Control_c, 0, 64, 0
2, 80388, Note_on_c, 0, 78, 0
2, 80394, Note_on_c, 0, 66, 0
2, 80400, Note_on_c, 0, 69, 98
2, 80400, Note_on_c, 0, 81, 119
2, 80420, Control_c, 0, 64, 127
2, 80477, Note_on_c, 0, 69, 0
2, 80486, Note_on_c, 0, 81, 0
2, 80510, Control_c, 0, 64, 0
2, 80520, Note_on_c, 0, 81, 113
2, 80520, Note_on_c, 0, 69, 98
2, 80535, Control_c, 0, 64, 127
2, 80579, Note_on_c, 0, 69, 0
2, 80580, Note_on_c, 0, 81, 0
2, 80610, Note_on_c, 0, 81, 102
2, 80610, Note_on_c, 0, 69, 93
2, 80623, Control_c, 0, 64, 0
2, 80624, Note_on_c, 0, 81, 0
2, 80627, Note_on_c, 0, 69, 0
2, 80640, Note_on_c, 0, 81, 107
2, 80640, Note_on_c, 0, 69, 102
2, 80649, Control_c, 0, 64, 127
2, 80670, Note_on_c, 0, 69, 0
2, 80671, Note_on_c, 0, 81, 0
2, 80770, Control_c, 0, 64, 0
2, 80880, Note_on_c, 0, 64, 80
2, 80887, Control_c, 0, 64, 127
2, 80920, Note_on_c, 0, 69, 76
2, 80930, Note_on_c, 0, 64, 0
2, 80960, Note_on_c, 0, 73, 62
2, 80963, Note_on_c, 0, 69, 0
2, 80998, Note_on_c, 0, 73, 0
2, 81000, Note_on_c, 0, 64, 76
2, 81040, Note_on_c, 0, 69, 64
2, 81042, Note_on_c, 0, 64, 0
2, 81080, Note_on_c, 0, 73, 55
2, 81081, Note_on_c, 0, 69, 0
2, 81113, Note_on_c, 0, 73, 0
2, 81120, Note_on_c, 0, 64, 80
2, 81120, Note_on_c, 0, 85, 89
2, 81160, Note_on_c, 0, 69, 76
2, 81161, Note_on_c, 0, 64, 0
2, 81200, Note_on_c, 0, 73, 62
2, 81204, Note_on_c, 0, 69, 0
2, 81229, Note_on_c, 0, 73, 0
2, 81239, Note_on_c, 0, 85, 0
2, 81240, Note_on_c, 0, 64, 72
2, 81240, Note_on_c, 0, 86, 89
2, 81254, Note_on_c, 0, 86, 0
2, 81255, Note_on_c, 0, 85, 93
2, 81269, Note_on_c, 0, 85, 0
2, 81270, Note_on_c, 0, 86, 89
2, 81280, Note_on_c, 0, 69, 76
2, 81281, Note_on_c, 0, 64, 0
2, 81284, Note_on_c, 0, 86, 0
2, 81285, Note_on_c, 0, 85, 93
2, 81299, Note_on_c, 0, 85, 0
2, 81300, Note_on_c, 0, 86, 89
2, 81314, Note_on_c, 0, 86, 0
2, 81315, Note_on_c, 0, 85, 89
2, 81316, Note_on_c, 0, 69, 0
2, 81320, Note_on_c, 0, 73, 60
2, 81329, Note_on_c, 0, 85, 0
2, 81330, Note_on_c, 0, 83, 80
2, 81344, Note_on_c, 0, 83, 0
2, 81344, Note_on_c, 0, 73, 0
2, 81345, Note_on_c, 0, 85, 85
2, 81359, Note_on_c, 0, 85, 0
2, 81360, Note_on_c, 0, 64, 76
2, 81360, Note_on_c, 0, 86, 93
2, 81368, Control_c, 0, 64, 0
2, 81395, Control_c, 0, 64, 127
2, 81400, Note_on_c, 0, 68, 68
2, 81406, Note_on_c, 0, 64, 0
2, 81438, Note_on_c, 0, 68, 0
2, 81440, Note_on_c, 0, 71, 76
2, 81464, Note_on_c, 0, 71, 0
2, 81479, Note_on_c, 0, 86, 0
2, 81480, Note_on_c, 0, 64, 80
2, 81480, Note_on_c, 0, 83, 93
2, 81520, Note_on_c, 0, 68, 72
2, 81529, Note_on_c, 0, 64, 0
2, 81539, Note_on_c, 0, 83, 0
2, 81554, Note_on_c, 0, 68, 0
2, 81560, Note_on_c, 0, 71, 64
2, 81592, Note_on_c, 0, 71, 0
2, 81600, Note_on_c, 0, 64, 76
2, 81600, Note_on_c, 0, 80, 107
2, 81602, Control_c, 0, 64, 0
2, 81627, Control_c, 0, 64, 127
2, 81640, Note_on_c, 0, 71, 72
2, 81659, Note_on_c, 0, 64, 0
2, 81680, Note_on_c, 0, 74, 68
2, 81682, Note_on_c, 0, 71, 0
2, 81710, Note_on_c, 0, 74, 0
2, 81719, Note_on_c, 0, 80, 0
2, 81720, Note_on_c, 0, 64, 76
2, 81720, Note_on_c, 0, 81, 93
2, 81734, Note_on_c, 0, 81, 0
2, 81735, Note_on_c, 0, 80, 93
2, 81749, Note_on_c, 0, 80, 0
2, 81750, Note_on_c, 0, 81, 85
2, 81760, Note_on_c, 0, 71, 62
2, 81764, Note_on_c, 0, 81, 0
2, 81765, Note_on_c, 0, 80, 93
2, 81777, Note_on_c, 0, 64, 0
2, 81779, Note_on_c, 0, 80, 0
2, 81780, Note_on_c, 0, 81, 89
2, 81794, Note_on_c, 0, 81, 0
2, 81795, Note_on_c, 0, 80, 98
2, 81800, Note_on_c, 0, 74, 68
2, 81804, Note_on_c, 0, 71, 0
2, 81809, Note_on_c, 0, 80, 0
2, 81810, Note_on_c, 0, 78, 76
2, 81824, Note_on_c, 0, 78, 0
2, 81825, Note_on_c, 0, 80, 85
2, 81835, Note_on_c, 0, 74, 0
2, 81839, Note_on_c, 0, 80, 0
2, 81840, Note_on_c, 0, 64, 80
2, 81840, Control_c, 0, 64, 0
2, 81840, Note_on_c, 0, 81, 89
2, 81864, Control_c, 0, 64, 127
2, 81880, Note_on_c, 0, 69, 64
2, 81895, Note_on_c, 0, 64, 0
2, 81904, Note_on_c, 0, 69, 0
2, 81920, Note_on_c, 0, 73, 64
2, 81948, Note_on_c, 0, 73, 0
2, 81959, Note_on_c, 0, 81, 0
2, 81960, Note_on_c, 0, 64, 80
2, 81960, Note_on_c, 0, 76, 93
2, 82000, Note_on_c, 0, 64, 0
2, 82000, Note_on_c, 0, 69, 64
2, 82019, Note_on_c, 0, 76, 0
2, 82030, Note_on_c, 0, 69, 0
2, 82040, Note_on_c, 0, 73, 60
2, 82068, Note_on_c, 0, 73, 0
2, 82080, Note_on_c, 0, 64, 72
2, 82080, Note_on_c, 0, 85, 93
2, 82117, Note_on_c, 0, 64, 0
2, 82120, Note_on_c, 0, 69, 68
2, 82157, Note_on_c, 0, 69, 0
2, 82160, Note_on_c, 0, 73, 59
2, 82187, Note_on_c, 0, 73, 0
2, 82199, Note_on_c, 0, 85, 0
2, 82200, Note_on_c, 0, 64, 72
2, 82200, Note_on_c, 0, 86, 80
2, 82214, Note_on_c, 0, 86, 0
2, 82215, Note_on_c, 0, 85, 98
2, 82229, Note_on_c, 0, 85, 0
2, 82230, Note_on_c, 0, 86, 89
2, 82239, Note_on_c, 0, 64, 0
2, 82240, Note_on_c, 0, 69, 62
2, 82244, Note_on_c, 0, 86, 0
2, 82245, Note_on_c, 0, 85, 93
2, 82259, Note_on_c, 0, 85, 0
2, 82260, Note_on_c, 0, 86, 93
2, 82273, Note_on_c, 0, 69, 0
2, 82274, Note_on_c, 0, 86, 0
2, 82275, Note_on_c, 0, 85, 93
2, 82280, Note_on_c, 0, 73, 59
2, 82289, Note_on_c, 0, 85, 0
2, 82290, Note_on_c, 0, 83, 89
2, 82304, Note_on_c, 0, 83, 0
2, 82305, Note_on_c, 0, 85, 89
2, 82306, Note_on_c, 0, 73, 0
2, 82319, Note_on_c, 0, 85, 0
2, 82320, Note_on_c, 0, 64, 80
2, 82320, Note_on_c, 0, 86, 98
2, 82328, Control_c, 0, 64, 0
2, 82356, Control_c, 0, 64, 127
2, 82360, Note_on_c, 0, 64, 0
2, 82360, Note_on_c, 0, 68, 59
2, 82400, Note_on_c, 0, 71, 68
2, 82403, Note_on_c, 0, 68, 0
2, 82426, Note_on_c, 0, 71, 0
2, 82439, Note_on_c, 0, 86, 0
2, 82440, Note_on_c, 0, 64, 80
2, 82440, Note_on_c, 0, 83, 93
2, 82480, Note_on_c, 0, 68, 62
2, 82487, Note_on_c, 0, 64, 0
2, 82499, Note_on_c, 0, 83, 0
2, 82520, Note_on_c, 0, 71, 76
2, 82525, Note_on_c, 0, 68, 0
2, 82545, Note_on_c, 0, 71, 0
2, 82560, Note_on_c, 0, 64, 89
2, 82560, Note_on_c, 0, 80, 93
2, 82563, Control_c, 0, 64, 0
2, 82587, Control_c, 0, 64, 127
2, 82600, Note_on_c, 0, 71, 62
2, 82627, Note_on_c, 0, 64, 0
2, 82640, Note_on_c, 0, 74, 62
2, 82641, Note_on_c, 0, 71, 0
2, 82669, Note_on_c, 0, 74, 0
2, 82679, Note_on_c, 0, 80, 0
2, 82680, Note_on_c, 0, 64, 72
2, 82680, Note_on_c, 0, 81, 89
2, 82694, Note_on_c, 0, 81, 0
2, 82695, Note_on_c, 0, 80, 93
2, 82709, Note_on_c, 0, 80, 0
2, 82710, Note_on_c, 0, 81, 85
2, 82720, Note_on_c, 0, 71, 64
2, 82724, Note_on_c, 0, 81, 0
2, 82725, Note_on_c, 0, 80, 98
2, 82739, Note_on_c, 0, 80, 0
2, 82740, Note_on_c, 0, 81, 76
2, 82743, Note_on_c, 0, 64, 0
2, 82754, Note_on_c, 0, 81, 0
2, 82755, Note_on_c, 0, 80, 98
2, 82760, Note_on_c, 0, 74, 68
2, 82761, Note_on_c, 0, 71, 0
2, 82769, Note_on_c, 0, 80, 0
2, 82770, Note_on_c, 0, 78, 85
2, 82784, Note_on_c, 0, 78, 0
2, 82785, Note_on_c, 0, 74, 0
2, 82785, Note_on_c, 0, 80, 89
2, 82795, Control_c, 0, 64, 0
2, 82799, Note_on_c, 0, 80, 0
2, 82800, Note_on_c, 0, 64, 80
2, 82800, Note_on_c, 0, 81, 93
2, 82820, Control_c, 0, 64, 127
2, 82840, Note_on_c, 0, 69, 64
2, 82851, Note_on_c, 0, 64, 0
2, 82877, Note_on_c, 0, 69, 0
2, 82880, Note_on_c, 0, 73, 62
2, 82906, Note_on_c, 0, 73, 0
2, 82919, Note_on_c, 0, 81, 0
2, 82920, Note_on_c, 0, 64, 85
2, 82920, Note_on_c, 0, 76, 89
2, 82927, Control_c, 0, 64, 0
2, 82946, Control_c, 0, 64, 127
2, 82960, Note_on_c, 0, 64, 0
2, 82960, Note_on_c, 0, 69, 72
2, 82979, Note_on_c, 0, 76, 0
2, 82991, Note_on_c, 0, 69, 0
2, 83000, Note_on_c, 0, 73, 64
2, 83019, Note_on_c, 0, 73, 0
2, 83046, Control_c, 0, 64, 0
2, 84000, Note_on_c, 0, 74, 93
2, 84000, Note_on_c, 0, 86, 113
2, 84000, Note_on_c, 0, 83, 107
2, 84000, Note_on_c, 0, 78, 89
2, 84014, Control_c, 0, 64, 127
2, 84057, Note_on_c, 0, 78, 0
2, 84057, Note_on_c, 0, 74, 0
2, 84064, Note_on_c, 0, 86, 0
2, 84066, Note_on_c, 0, 83, 0
2, 84116, Control_c, 0, 64, 0
2, 84120, Note_on_c, 0, 83, 113
2, 84120, Note_on_c, 0, 86, 107
2, 84120, Note_on_c, 0, 74, 89
2, 84120, Note_on_c, 0, 78, 80
2, 84144, Control_c, 0, 64, 127
2, 84151, Note_on_c, 0, 78, 0
2, 84152, Note_on_c, 0, 74, 0
2, 84160, Note_on_c, 0, 86, 0
2, 84164, Note_on_c, 0, 83, 0
2, 84210, Note_on_c, 0, 74, 89
2, 84210, Note_on_c, 0, 78, 80
2, 84210, Note_on_c, 0, 86, 93
2, 84210, Note_on_c, 0, 83, 93
2, 84226, Note_on_c, 0, 83, 0
2, 84226, Note_on_c, 0, 74, 0
2, 84227, Note_on_c, 0, 78, 0
2, 84233, Note_on_c, 0, 86, 0
2, 84237, Control_c, 0, 64, 0
2, 84240, Note_on_c, 0, 81, 93
2, 84240, Note_on_c, 0, 76, 76
2, 84240, Note_on_c, 0, 85, 107
2, 84240, Note_on_c, 0, 73, 102
2, 84277, Control_c, 0, 64, 127
2, 84309, Note_on_c, 0, 73, 0
2, 84311, Note_on_c, 0, 81, 0
2, 84312, Note_on_c, 0, 85, 0
2, 84314, Note_on_c, 0, 76, 0
2, 84351, Control_c, 0, 64, 0
2, 84360, Note_on_c, 0, 81, 107
2, 84360, Note_on_c, 0, 85, 113
2, 84360, Note_on_c, 0, 73, 107
2, 84360, Note_on_c, 0, 76, 98
2, 84380, Control_c, 0, 64, 127
2, 84391, Note_on_c, 0, 73, 0
2, 84397, Note_on_c, 0, 76, 0
2, 84400, Note_on_c, 0, 85, 0
2, 84401, Note_on_c, 0, 81, 0
2, 84450, Note_on_c, 0, 85, 89
2, 84450, Note_on_c, 0, 81, 98
2, 84450, Note_on_c, 0, 73, 80
2, 84450, Note_on_c, 0, 76, 89
2, 84467, Note_on_c, 0, 81, 0
2, 84468, Control_c, 0, 64, 0
2, 84471, Note_on_c, 0, 73, 0
2, 84473, Note_on_c, 0, 76, 0
2, 84475, Note_on_c, 0, 85, 0
2, 84480, Note_on_c, 0, 83, 98
2, 84480, Note_on_c, 0, 71, 76
2, 84480, Note_on_c, 0, 74, 93
2, 84480, Note_on_c, 0, 80, 107
2, 84511, Control_c, 0, 64, 127
2, 84529, Note_on_c, 0, 83, 0
2, 84536, Note_on_c, 0, 71, 0
2, 84537, Note_on_c, 0, 80, 0
2, 84538, Note_on_c, 0, 74, 0
2, 84588, Control_c, 0, 64, 0
2, 84600, Note_on_c, 0, 71, 89
2, 84600, Note_on_c, 0, 80, 102
2, 84600, Note_on_c, 0, 83, 102
2, 84600, Note_on_c, 0, 74, 89
2, 84616, Control_c, 0, 64, 127
2, 84633, Note_on_c, 0, 74, 0
2, 84635, Note_on_c, 0, 71, 0
2, 84638, Note_on_c, 0, 83, 0
2, 84643, Note_on_c, 0, 80, 0
2, 84660, Note_on_c, 0, 71, 80
2, 84684, Note_on_c, 0, 71, 0
2, 84690, Note_on_c, 0, 83, 93
2, 84690, Note_on_c, 0, 80, 89
2, 84690, Note_on_c, 0, 74, 89
2, 84707, Control_c, 0, 64, 0
2, 84709, Note_on_c, 0, 80, 0
2, 84712, Note_on_c, 0, 83, 0
2, 84714, Note_on_c, 0, 74, 0
2, 84720, Note_on_c, 0, 81, 113
2, 84720, Note_on_c, 0, 73, 89
2, 84720, Note_on_c, 0, 69, 102
2, 84740, Control_c, 0, 64, 127
2, 84805, Note_on_c, 0, 69, 0
2, 84806, Note_on_c, 0, 73, 0
2, 84815, Note_on_c, 0, 81, 0
2, 84851, Control_c, 0, 64, 0
2, 84960, Note_on_c, 0, 73, 89
2, 84960, Note_on_c, 0, 85, 113
2, 84971, Control_c, 0, 64, 127
2, 85000, Note_on_c, 0, 85, 0
2, 85000, Note_on_c, 0, 83, 93
2, 85000, Note_on_c, 0, 71, 85
2, 85004, Control_c, 0, 64, 0
2, 85005, Note_on_c, 0, 73, 0
2, 85036, Note_on_c, 0, 83, 0
2, 85037, Note_on_c, 0, 71, 0
2, 85040, Note_on_c, 0, 81, 113
2, 85040, Note_on_c, 0, 69, 93
2, 85068, Note_on_c, 0, 81, 0
2, 85080, Note_on_c, 0, 73, 98
2, 85080, Note_on_c, 0, 85, 119
2, 85082, Note_on_c, 0, 69, 0
2, 85118, Note_on_c, 0, 85, 0
2, 85120, Note_on_c, 0, 73, 0
2, 85120, Note_on_c, 0, 71, 89
2, 85120, Note_on_c, 0, 83, 93
2, 85155, Note_on_c, 0, 83, 0
2, 85160, Note_on_c, 0, 69, 80
2, 85160, Note_on_c, 0, 81, 107
2, 85161, Note_on_c, 0, 71, 0
2, 85186, Note_on_c, 0, 81, 0
2, 85190, Note_on_c, 0, 69, 0
2, 85200, Note_on_c, 0, 76, 102
2, 85200, Note_on_c, 0, 88, 102
2, 85217, Control_c, 0, 64, 127
2, 85248, Note_on_c, 0, 76, 0
2, 85249, Note_on_c, 0, 88, 0
2, 85326, Control_c, 0, 64, 0
2, 87360, Note_on_c, 0, 81, 80
2, 87360, Note_on_c, 0, 69, 89
2, 87388, Control_c, 0, 64, 127
2, 87397, Note_on_c, 0, 81, 0
2, 87400, Note_on_c, 0, 83, 76
2, 87435, Note_on_c, 0, 83, 0
2, 87440, Note_on_c, 0, 81, 80
2, 87474, Note_on_c, 0, 69, 0
2, 87477, Note_on_c, 0, 81, 0
2, 87480, Note_on_c, 0, 68, 76
2, 87480, Note_on_c, 0, 80, 72
2, 87481, Control_c, 0, 64, 0
2, 87520, Note_on_c, 0, 80, 0
2, 87520, Control_c, 0, 64, 127
2, 87520, Note_on_c, 0, 81, 76
2, 87560, Note_on_c, 0, 80, 62
2, 87566, Note_on_c, 0, 81, 0
2, 87596, Note_on_c, 0, 80, 0
2, 87599, Note_on_c, 0, 68, 0
2, 87600, Note_on_c, 0, 78, 60
2, 87600, Note_on_c, 0, 66, 76
2, 87603, Control_c, 0, 64, 0
2, 87632, Control_c, 0, 64, 127
2, 87635, Note_on_c, 0, 78, 0
2, 87640, Note_on_c, 0, 80, 62
2, 87678, Note_on_c, 0, 80, 0
2, 87680, Note_on_c, 0, 78, 64
2, 87701, Note_on_c, 0, 78, 0
2, 87706, Note_on_c, 0, 66, 0
2, 87720, Note_on_c, 0, 64, 64
2, 87720, Note_on_c, 0, 76, 76
2, 87724, Control_c, 0, 64, 0
2, 87757, Note_on_c, 0, 76, 0
2, 87758, Control_c, 0, 64, 127
2, 87760, Note_on_c, 0, 78, 62
2, 87796, Note_on_c, 0, 78, 0
2, 87800, Note_on_c, 0, 76, 76
2, 87835, Note_on_c, 0, 76, 0
2, 87837, Note_on_c, 0, 64, 0
2, 87840, Note_on_c, 0, 74, 64
2, 87840, Note_on_c, 0, 62, 80
2, 87841, Control_c, 0, 64, 0
2, 87870, Note_on_c, 0, 74, 0
2, 87873, Control_c, 0, 64, 127
2, 87880, Note_on_c, 0, 76, 68
2, 87915, Note_on_c, 0, 76, 0
2, 87920, Note_on_c, 0, 74, 76
2, 87942, Note_on_c, 0, 74, 0
2, 87953, Note_on_c, 0, 62, 0
2, 87958, Control_c, 0, 64, 0
2, 87960, Note_on_c, 0, 73, 68
2, 87960, Note_on_c, 0, 61, 72
2, 87990, Control_c, 0, 64, 127
2, 87994, Note_on_c, 0, 73, 0
2, 88000, Note_on_c, 0, 74, 68
2, 88040, Note_on_c, 0, 73, 76
2, 88041, Note_on_c, 0, 74, 0
2, 88074, Note_on_c, 0, 73, 0
2, 88074, Note_on_c, 0, 61, 0
2, 88075, Control_c, 0, 64, 0
2, 88080, Note_on_c, 0, 59, 62
2, 88080, Note_on_c, 0, 71, 72
2, 88106, Control_c, 0, 64, 127
2, 88119, Note_on_c, 0, 71, 0
2, 88120, Note_on_c, 0, 73, 68
2, 88160, Note_on_c, 0, 71, 80
2, 88167, Note_on_c, 0, 73, 0
2, 88181, Note_on_c, 0, 71, 0
2, 88196, Note_on_c, 0, 59, 0
2, 88196, Control_c, 0, 64, 0
2, 88200, Note_on_c, 0, 69, 89
2, 88200, Note_on_c, 0, 57, 89
2, 88226, Control_c, 0, 64, 127
2, 88229, Note_on_c, 0, 69, 0
2, 88240, Note_on_c, 0, 71, 89
2, 88245, Note_on_c, 0, 57, 0
2, 88280, Note_on_c, 0, 69, 93
2, 88281, Note_on_c, 0, 71, 0
2, 88295, Note_on_c, 0, 69, 0
2, 88320, Note_on_c, 0, 83, 119
2, 88320, Note_on_c, 0, 86, 119
2, 88320, Note_on_c, 0, 74, 98
2, 88320, Note_on_c, 0, 78, 76
2, 88320, Note_on_c, 0, 84, 59
2, 88324, Note_on_c, 0, 84, 0
2, 88329, Control_c, 0, 64, 0
2, 88369, Control_c, 0, 64, 127
2, 88417, Note_on_c, 0, 78, 0
2, 88421, Note_on_c, 0, 86, 0
2, 88426, Note_on_c, 0, 74, 0
2, 88426, Note_on_c, 0, 83, 0
2, 88440, Note_on_c, 0, 74, 98
2, 88440, Note_on_c, 0, 83, 107
2, 88440, Note_on_c, 0, 86, 107
2, 88449, Control_c, 0, 64, 0
2, 88482, Control_c, 0, 64, 127
2, 88495, Note_on_c, 0, 86, 0
2, 88499, Note_on_c, 0, 83, 0
2, 88500, Note_on_c, 0, 74, 0
2, 88530, Note_on_c, 0, 74, 76
2, 88530, Note_on_c, 0, 78, 85
2, 88530, Note_on_c, 0, 83, 102
2, 88530, Note_on_c, 0, 86, 93
2, 88549, Note_on_c, 0, 83, 0
2, 88549, Note_on_c, 0, 78, 0
2, 88552, Note_on_c, 0, 74, 0
2, 88552, Note_on_c, 0, 86, 0
2, 88560, Note_on_c, 0, 81, 107
2, 88560, Note_on_c, 0, 85, 98
2, 88560, Note_on_c, 0, 73, 68
2, 88560, Note_on_c, 0, 76, 80
2, 88576, Control_c, 0, 64, 0
2, 88613, Control_c, 0, 64, 127
2, 88618, Note_on_c, 0, 76, 0
2, 88619, Note_on_c, 0, 73, 0
2, 88628, Note_on_c, 0, 85, 0
2, 88629, Note_on_c, 0, 81, 0
2, 88672, Control_c, 0, 64, 0
2, 88680, Note_on_c, 0, 85, 107
2, 88680, Note_on_c, 0, 81, 113
2, 88680, Note_on_c, 0, 73, 89
2, 88680, Note_on_c, 0, 76, 80
2, 88698, Control_c, 0, 64, 127
2, 88717, Note_on_c, 0, 76, 0
2, 88721, Note_on_c, 0, 73, 0
2, 88727, Note_on_c, 0, 85, 0
2, 88733, Note_on_c, 0, 81, 0
2, 88770, Note_on_c, 0, 85, 85
2, 88770, Note_on_c, 0, 81, 93
2, 88770, Note_on_c, 0, 73, 72
2, 88770, Note_on_c, 0, 76, 85
2, 88786, Note_on_c, 0, 81, 0
2, 88791, Control_c, 0, 64, 0
2, 88792, Note_on_c, 0, 85, 0
2, 88792, Note_on_c, 0, 76, 0
2, 88794, Note_on_c, 0, 73, 0
2, 88800, Note_on_c, 0, 83, 107
2, 88800, Note_on_c, 0, 80, 107
2, 88800, Note_on_c, 0, 71, 85
2, 88800, Note_on_c, 0, 74, 93
2, 88832, Control_c, 0, 64, 127
2, 88864, Note_on_c, 0, 71, 0
2, 88865, Note_on_c, 0, 74, 0
2, 88881, Note_on_c, 0, 83, 0
2, 88883, Note_on_c, 0, 80, 0
2, 88913, Control_c, 0, 64, 0
2, 88920, Note_on_c, 0, 71, 80
2, 88920, Note_on_c, 0, 74, 80
2, 88920, Note_on_c, 0, 80, 102
2, 88920, Note_on_c, 0, 83, 102
2, 88939, Control_c, 0, 64, 127
2, 88953, Note_on_c, 0, 74, 0
2, 88960, Note_on_c, 0, 83, 0
2, 88961, Note_on_c, 0, 71, 0
2, 88964, Note_on_c, 0, 80, 0
2, 89010, Note_on_c, 0, 80, 85
2, 89010, Note_on_c, 0, 83, 89
2, 89010, Note_on_c, 0, 71, 76
2, 89010, Note_on_c, 0, 74, 76
2, 89028, Control_c, 0, 64, 0
2, 89031, Note_on_c, 0, 80, 0
2, 89032, Note_on_c, 0, 83, 0
2, 89032, Note_on_c, 0, 71, 0
2, 89032, Note_on_c, 0, 74, 0
2, 89040, Note_on_c, 0, 73, 89
2, 89040, Note_on_c, 0, 81, 107
2, 89040, Note_on_c, 0, 69, 98
2, 89059, Control_c, 0, 64, 127
2, 89087, Note_on_c, 0, 69, 0
2, 89089, Note_on_c, 0, 73, 0
2, 89100, Note_on_c, 0, 81, 0
2, 89157, Control_c, 0, 64, 0
2, 89160, Note_on_c, 0, 76, 119
2, 89181, Note_on_c, 0, 76, 0
2, 89190, Note_on_c, 0, 88, 119
2, 89215, Control_c, 0, 64, 127
2, 89273, Note_on_c, 0, 88, 0
2, 89280, Note_on_c, 0, 75, 113
2, 89291, Control_c, 0, 64, 0
2, 89304, Note_on_c, 0, 75, 0
2, 89310, Note_on_c, 0, 87, 107
2, 89323, Control_c, 0, 64, 127
2, 89383, Note_on_c, 0, 87, 0
2, 89400, Note_on_c, 0, 74, 113
2, 89408, Control_c, 0, 64, 0
2, 89420, Note_on_c, 0, 74, 0
2, 89430, Note_on_c, 0, 86, 113
2, 89441, Control_c, 0, 64, 127
2, 89505, Note_on_c, 0, 86, 0
2, 89520, Note_on_c, 0, 73, 113
2, 89528, Control_c, 0, 64, 0
2, 89541, Note_on_c, 0, 73, 0
2, 89550, Note_on_c, 0, 85, 113
2, 89561, Control_c, 0, 64, 127
2, 89605, Note_on_c, 0, 85, 0
2, 89640, Note_on_c, 0, 83, 102
2, 89640, Note_on_c, 0, 74, 89
2, 89645, Control_c, 0, 64, 0
2, 89669, Note_on_c, 0, 83, 0
2, 89677, Control_c, 0, 64, 127
2, 89680, Note_on_c, 0, 76, 76
2, 89680, Note_on_c, 0, 85, 102
2, 89681, Note_on_c, 0, 74, 0
2, 89708, Note_on_c, 0, 85, 0
2, 89720, Note_on_c, 0, 86, 85
2, 89720, Note_on_c, 0, 78, 76
2, 89721, Note_on_c, 0, 76, 0
2, 89754, Note_on_c, 0, 86, 0
2, 89757, Note_on_c, 0, 78, 0
2, 89759, Control_c, 0, 64, 0
2, 89760, Note_on_c, 0, 85, 72
2, 89760, Note_on_c, 0, 76, 68
2, 89795, Note_on_c, 0, 85, 0
2, 89800, Note_on_c, 0, 83, 80
2, 89800, Note_on_c, 0, 74, 72
2, 89800, Control_c, 0, 64, 127
2, 89809, Note_on_c, 0, 76, 0
2, 89838, Note_on_c, 0, 74, 0
2, 89840, Note_on_c, 0, 83, 0
2, 89840, Note_on_c, 0, 81, 80
2, 89840, Note_on_c, 0, 73, 76
2, 89861, Note_on_c, 0, 81, 0
2, 89864, Note_on_c, 0, 73, 0
2, 89873, Control_c, 0, 64, 0
2, 89880, Note_on_c, 0, 71, 89
2, 89880, Note_on_c, 0, 80, 85
2, 89902, Note_on_c, 0, 80, 0
2, 89906, Control_c, 0, 64, 127
2, 89920, Note_on_c, 0, 73, 68
2, 89920, Note_on_c, 0, 81, 89
2, 89926, Note_on_c, 0, 71, 0
2, 89949, Note_on_c, 0, 81, 0
2, 89957, Note_on_c, 0, 73, 0
2, 89960, Note_on_c, 0, 83, 85
2, 89960, Note_on_c, 0, 74, 76
2, 89988, Note_on_c, 0, 74, 0
2, 89992, Control_c, 0, 64, 0
2, 90000, Note_on_c, 0, 83, 0
2, 90000, Note_on_c, 0, 73, 62
2, 90000, Note_on_c, 0, 81, 98
2, 90020, Control_c, 0, 64, 127
2, 90037, Note_on_c, 0, 73, 0
2, 90039, Note_on_c, 0, 81, 0
2, 90108, Control_c, 0, 64, 0
2, 90120, Note_on_c, 0, 76, 119
2, 90139, Note_on_c, 0, 76, 0
2, 90150, Note_on_c, 0, 88, 107
2, 90154, Control_c, 0, 64, 127
2, 90234, Note_on_c, 0, 88, 0
2, 90240, Note_on_c, 0, 75, 107
2, 90246, Control_c, 0, 64, 0
2, 90266, Note_on_c, 0, 75, 0
2, 90270, Note_on_c, 0, 87, 107
2, 90280, Control_c, 0, 64, 127
2, 90334, Note_on_c, 0, 87, 0
2, 90360, Note_on_c, 0, 74, 107
2, 90369, Control_c, 0, 64, 0
2, 90381, Note_on_c, 0, 74, 0
2, 90390, Note_on_c, 0, 86, 107
2, 90405, Control_c, 0, 64, 127
2, 90450, Note_on_c, 0, 86, 0
2, 90480, Note_on_c, 0, 73, 113
2, 90483, Control_c, 0, 64, 0
2, 90496, Note_on_c, 0, 73, 0
2, 90510, Note_on_c, 0, 85, 107
2, 90515, Control_c, 0, 64, 127
2, 90560, Note_on_c, 0, 85, 0
2, 90596, Control_c, 0, 64, 0
2, 90600, Note_on_c, 0, 74, 80
2, 90600, Note_on_c, 0, 83, 93
2, 90626, Note_on_c, 0, 83, 0
2, 90626, Control_c, 0, 64, 127
2, 90640, Note_on_c, 0, 76, 62
2, 90640, Note_on_c, 0, 85, 89
2, 90643, Note_on_c, 0, 74, 0
2, 90663, Note_on_c, 0, 85, 0
2, 90677, Note_on_c, 0, 76, 0
2, 90680, Note_on_c, 0, 86, 89
2, 90680, Note_on_c, 0, 78, 80
2, 90712, Note_on_c, 0, 86, 0
2, 90718, Control_c, 0, 64, 0
2, 90720, Note_on_c, 0, 78, 0
2, 90720, Note_on_c, 0, 76, 80
2, 90720, Note_on_c, 0, 85, 85
2, 90748, Control_c, 0, 64, 127
2, 90758, Note_on_c, 0, 85, 0
2, 90760, Note_on_c, 0, 76, 0
2, 90760, Note_on_c, 0, 74, 80
2, 90760, Note_on_c, 0, 83, 89
2, 90797, Note_on_c, 0, 83, 0
2, 90797, Note_on_c, 0, 74, 0
2, 90800, Note_on_c, 0, 81, 89
2, 90800, Note_on_c, 0, 73, 85
2, 90820, Note_on_c, 0, 73, 0
2, 90826, Note_on_c, 0, 81, 0
2, 90838, Control_c, 0, 64, 0
2, 90840, Note_on_c, 0, 80, 98
2, 90840, Note_on_c, 0, 71, 80
2, 90867, Control_c, 0, 64, 127
2, 90872, Note_on_c, 0, 80, 0
2, 90880, Note_on_c, 0, 73, 52
2, 90880, Note_on_c, 0, 81, 93
2, 90881, Note_on_c, 0, 71, 0
2, 90912, Note_on_c, 0, 81, 0
2, 90912, Note_on_c, 0, 73, 0
2, 90920, Note_on_c, 0, 74, 59
2, 90920, Note_on_c, 0, 83, 89
2, 90942, Note_on_c, 0, 83, 0
2, 90948, Note_on_c, 0, 74, 0
2, 90960, Note_on_c, 0, 69, 80
2, 90960, Note_on_c, 0, 81, 107
2, 90964, Control_c, 0, 64, 0
2, 90986, Note_on_c, 0, 81, 0
2, 90998, Control_c, 0, 64, 127
2, 91000, Note_on_c, 0, 83, 93
2, 91000, Note_on_c, 0, 71, 76
2, 91007, Note_on_c, 0, 69, 0
2, 91027, Note_on_c, 0, 83, 0
2, 91040, Note_on_c, 0, 73, 72
2, 91040, Note_on_c, 0, 85, 93
2, 91047, Note_on_c, 0, 71, 0
2, 91065, Note_on_c, 0, 85, 0
2, 91072, Control_c, 0, 64, 0
2, 91073, Note_on_c, 0, 73, 0
2, 91080, Note_on_c, 0, 74, 89
2, 91080, Note_on_c, 0, 86, 107
2, 91106, Control_c, 0, 64, 127
2, 91117, Note_on_c, 0, 86, 0
2, 91119, Note_on_c, 0, 74, 0
2, 91120, Note_on_c, 0, 73, 72
2, 91120, Note_on_c, 0, 85, 93
2, 91148, Note_on_c, 0, 85, 0
2, 91159, Note_on_c, 0, 73, 0
2, 91160, Note_on_c, 0, 71, 68
2, 91160, Note_on_c, 0, 83, 93
2, 91170, Control_c, 0, 64, 0
2, 91189, Note_on_c, 0, 83, 0
2, 91193, Note_on_c, 0, 71, 0
2, 91200, Note_on_c, 0, 69, 89
2, 91200, Note_on_c, 0, 81, 102
2, 91210, Control_c, 0, 64, 127
2, 91228, Note_on_c, 0, 81, 0
2, 91240, Note_on_c, 0, 71, 93
2, 91240, Note_on_c, 0, 83, 93
2, 91244, Note_on_c, 0, 69, 0
2, 91265, Note_on_c, 0, 83, 0
2, 91280, Note_on_c, 0, 73, 72
2, 91280, Note_on_c, 0, 85, 113
2, 91282, Note_on_c, 0, 71, 0
2, 91291, Control_c, 0, 64, 0
2, 91304, Note_on_c, 0, 85, 0
2, 91320, Note_on_c, 0, 73, 0
2, 91320, Note_on_c, 0, 74, 98
2, 91320, Note_on_c, 0, 86, 107
2, 91331, Control_c, 0, 64, 127
2, 91356, Note_on_c, 0, 86, 0
2, 91360, Note_on_c, 0, 73, 85
2, 91360, Note_on_c, 0, 85, 89
2, 91364, Note_on_c, 0, 74, 0
2, 91386, Note_on_c, 0, 85, 0
2, 91400, Note_on_c, 0, 71, 89
2, 91400, Note_on_c, 0, 83, 89
2, 91401, Note_on_c, 0, 73, 0
2, 91424, Note_on_c, 0, 83, 0
2, 91427, Control_c, 0, 64, 0
2, 91431, Note_on_c, 0, 71, 0
2, 91440, Note_on_c, 0, 69, 98
2, 91440, Note_on_c, 0, 81, 113
2, 91460, Control_c, 0, 64, 127
2, 91472, Note_on_c, 0, 81, 0
2, 91482, Note_on_c, 0, 69, 0
2, 91541, Control_c, 0, 64, 0
2, 91560, Note_on_c, 0, 76, 107
2, 91560, Note_on_c, 0, 85, 113
2, 91560, Note_on_c, 0, 69, 93
2, 91574, Control_c, 0, 64, 127
2, 91594, Note_on_c, 0, 85, 0
2, 91603, Note_on_c, 0, 69, 0
2, 91604, Note_on_c, 0, 76, 0
2, 91665, Control_c, 0, 64, 0
2, 91680, Note_on_c, 0, 81, 102
2, 91680, Note_on_c, 0, 73, 107
2, 91680, Note_on_c, 0, 69, 113
2, 91697, Control_c, 0, 64, 127
2, 91701, Note_on_c, 0, 69, 0
2, 91706, Note_on_c, 0, 73, 0
2, 91710, Note_on_c, 0, 81, 0
2, 91802, Control_c, 0, 64, 0
2, 91920, Note_on_c, 0, 57, 98
2, 91920, Note_on_c, 0, 69, 93
2, 91940, Control_c, 0, 64, 127
2, 92033, Note_on_c, 0, 69, 0
2, 92037, Note_on_c, 0, 57, 0
2, 92040, Note_on_c, 0, 78, 107
2, 92040, Note_on_c, 0, 81, 113
2, 92047, Control_c, 0, 64, 0
2, 92083, Control_c, 0, 64, 127
2, 92116, Note_on_c, 0, 81, 0
2, 92124, Note_on_c, 0, 78, 0
2, 92160, Note_on_c, 0, 75, 89
2, 92160, Note_on_c, 0, 78, 89
2, 92160, Control_c, 0, 64, 0
2, 92187, Control_c, 0, 64, 127
2, 92215, Note_on_c, 0, 75, 0
2, 92217, Note_on_c, 0, 78, 0
2, 92267, Control_c, 0, 64, 0
2, 92280, Note_on_c, 0, 79, 98
2, 92280, Note_on_c, 0, 76, 102
2, 92296, Control_c, 0, 64, 127
2, 92387, Note_on_c, 0, 76, 0
2, 92390, Note_on_c, 0, 79, 0
2, 92394, Control_c, 0, 64, 0
2, 92400, Note_on_c, 0, 57, 93
2, 92400, Note_on_c, 0, 69, 89
2, 92430, Control_c, 0, 64, 127
2, 92486, Note_on_c, 0, 69, 0
2, 92491, Note_on_c, 0, 57, 0
2, 92520, Note_on_c, 0, 76, 102
2, 92520, Note_on_c, 0, 79, 102
2, 92521, Control_c, 0, 64, 0
2, 92548, Control_c, 0, 64, 127
2, 92558, Note_on_c, 0, 76, 0
2, 92570, Note_on_c, 0, 79, 0
2, 92631, Control_c, 0, 64, 0
2, 92640, Note_on_c, 0, 73, 85
2, 92640, Note_on_c, 0, 76, 93
2, 92658, Control_c, 0, 64, 127
2, 92678, Note_on_c, 0, 73, 0
2, 92680, Note_on_c, 0, 76, 0
2, 92752, Control_c, 0, 64, 0
2, 92760, Note_on_c, 0, 78, 85
2, 92760, Note_on_c, 0, 74, 102
2, 92778, Control_c, 0, 64, 127
2, 92816, Note_on_c, 0, 74, 0
2, 92827, Note_on_c, 0, 78, 0
2, 92863, Control_c, 0, 64, 0
2, 92880, Note_on_c, 0, 57, 93
2, 92880, Note_on_c, 0, 69, 93
2, 92894, Control_c, 0, 64, 127
2, 92901, Note_on_c, 0, 57, 0
2, 92907, Note_on_c, 0, 69, 0
2, 92986, Control_c, 0, 64, 0
2, 93000, Note_on_c, 0, 78, 85
2, 93000, Note_on_c, 0, 86, 107
2, 93016, Control_c, 0, 64, 127
2, 93034, Note_on_c, 0, 86, 0
2, 93040, Note_on_c, 0, 88, 89
2, 93040, Note_on_c, 0, 79, 93
2, 93041, Note_on_c, 0, 78, 0
2, 93072, Note_on_c, 0, 88, 0
2, 93080, Note_on_c, 0, 79, 0
2, 93080, Note_on_c, 0, 78, 72
2, 93080, Note_on_c, 0, 86, 98
2, 93092, Control_c, 0, 64, 0
2, 93113, Note_on_c, 0, 86, 0
2, 93113, Note_on_c, 0, 78, 0
2, 93120, Note_on_c, 0, 76, 64
2, 93120, Note_on_c, 0, 85, 107
2, 93133, Control_c, 0, 64, 127
2, 93152, Note_on_c, 0, 85, 0
2, 93160, Note_on_c, 0, 78, 76
2, 93160, Note_on_c, 0, 86, 98
2, 93166, Note_on_c, 0, 76, 0
2, 93198, Note_on_c, 0, 86, 0
2, 93200, Note_on_c, 0, 78, 0
2, 93200, Note_on_c, 0, 76, 80
2, 93200, Note_on_c, 0, 85, 89
2, 93231, Note_on_c, 0, 76, 0
2, 93231, Control_c, 0, 64, 0
2, 93240, Note_on_c, 0, 74, 76
2, 93240, Note_on_c, 0, 83, 98
2, 93241, Note_on_c, 0, 85, 0
2, 93261, Control_c, 0, 64, 127
2, 93279, Note_on_c, 0, 83, 0
2, 93280, Note_on_c, 0, 74, 0
2, 93280, Note_on_c, 0, 85, 89
2, 93280, Note_on_c, 0, 76, 80
2, 93320, Note_on_c, 0, 74, 93
2, 93320, Note_on_c, 0, 83, 93
2, 93324, Note_on_c, 0, 76, 0
2, 93324, Note_on_c, 0, 85, 0
2, 93348, Note_on_c, 0, 83, 0
2, 93351, Control_c, 0, 64, 0
2, 93352, Note_on_c, 0, 74, 0
2, 93360, Note_on_c, 0, 73, 80
2, 93360, Note_on_c, 0, 81, 102
2, 93381, Control_c, 0, 64, 127
2, 93394, Note_on_c, 0, 81, 0
2, 93400, Note_on_c, 0, 83, 93
2, 93400, Note_on_c, 0, 74, 76
2, 93403, Note_on_c, 0, 73, 0
2, 93437, Note_on_c, 0, 83, 0
2, 93440, Note_on_c, 0, 73, 85
2, 93440, Note_on_c, 0, 81, 93
2, 93442, Note_on_c, 0, 74, 0
2, 93474, Note_on_c, 0, 73, 0
2, 93477, Control_c, 0, 64, 0
2, 93480, Note_on_c, 0, 81, 0
2, 93480, Note_on_c, 0, 71, 68
2, 93480, Note_on_c, 0, 80, 98
2, 93509, Note_on_c, 0, 80, 0
2, 93509, Control_c, 0, 64, 127
2, 93520, Note_on_c, 0, 81, 93
2, 93520, Note_on_c, 0, 73, 85
2, 93525, Note_on_c, 0, 71, 0
2, 93554, Note_on_c, 0, 73, 0
2, 93560, Note_on_c, 0, 81, 0
2, 93560, Note_on_c, 0, 71, 55
2, 93560, Note_on_c, 0, 80, 89
2, 93587, Note_on_c, 0, 80, 0
2, 93587, Note_on_c, 0, 71, 0
2, 93592, Control_c, 0, 64, 0
2, 93600, Note_on_c, 0, 81, 107
2, 93600, Note_on_c, 0, 69, 93
2, 93621, Control_c, 0, 64, 127
2, 93695, Note_on_c, 0, 81, 0
2, 93696, Note_on_c, 0, 69, 0
2, 93704, Control_c, 0, 64, 0
2, 93840, Note_on_c, 0, 81, 107
2, 93840, Note_on_c, 0, 69, 93
2, 93847, Control_c, 0, 64, 127
2, 93954, Note_on_c, 0, 69, 0
2, 93954, Note_on_c, 0, 81, 0
2, 93962, Control_c, 0, 64, 0
2, 94320, Note_on_c, 0, 81, 107
2, 94320, Note_on_c, 0, 69, 93
2, 94323, Control_c, 0, 64, 127
2, 94422, Control_c, 0, 64, 0
2, 94428, Note_on_c, 0, 81, 0
2, 94433, Note_on_c, 0, 69, 0
2, 94799, Control_c, 0, 64, 127
2, 94800, Note_on_c, 0, 81, 102
2, 94800, Note_on_c, 0, 69, 98
2, 94910, Control_c, 0, 64, 0
2, 94913, Note_on_c, 0, 69, 0
2, 94913, Note_on_c, 0, 81, 0
2, 95640, Note_on_c, 0, 69, 113
2, 95662, Note_on_c, 0, 69, 0
2, 95670, Note_on_c, 0, 81, 107
2, 95712, Control_c, 0, 64, 127
2, 95743, Note_on_c, 0, 81, 0
2, 95760, Note_on_c, 0, 68, 113
2, 95768, Control_c, 0, 64, 0
2, 95784, Note_on_c, 0, 68, 0
2, 95790, Note_on_c, 0, 80, 89
2, 95810, Control_c, 0, 64, 127
2, 95849, Note_on_c, 0, 80, 0
2, 95880, Note_on_c, 0, 67, 107
2, 95881, Control_c, 0, 64, 0
2, 95906, Note_on_c, 0, 67, 0
2, 95910, Note_on_c, 0, 79, 107
2, 95922, Control_c, 0, 64, 127
2, 95959, Note_on_c, 0, 79, 0
2, 95998, Control_c, 0, 64, 0
2, 96000, Note_on_c, 0, 66, 113
2, 96030, Note_on_c, 0, 66, 0
2, 96030, Note_on_c, 0, 78, 85
2, 96044, Control_c, 0, 64, 127
2, 96112, Note_on_c, 0, 78, 0
2, 96112, Control_c, 0, 64, 0
2, 96600, Note_on_c, 0, 69, 113
2, 96619, Note_on_c, 0, 69, 0
2, 96630, Note_on_c, 0, 81, 102
2, 96633, Control_c, 0, 64, 127
2, 96693, Note_on_c, 0, 81, 0
2, 96718, Control_c, 0, 64, 0
2, 96720, Note_on_c, 0, 68, 113
2, 96743, Note_on_c, 0, 68, 0
2, 96750, Note_on_c, 0, 80, 107
2, 96756, Control_c, 0, 64, 127
2, 96803, Note_on_c, 0, 80, 0
2, 96833, Control_c, 0, 64, 0
2, 96840, Note_on_c, 0, 67, 107
2, 96861, Note_on_c, 0, 67, 0
2, 96870, Note_on_c, 0, 79, 107
2, 96872, Control_c, 0, 64, 127
2, 96915, Note_on_c, 0, 79, 0
2, 96949, Control_c, 0, 64, 0
2, 96960, Note_on_c, 0, 66, 107
2, 96976, Note_on_c, 0, 66, 0
2, 96983, Control_c, 0, 64, 127
2, 96990, Note_on_c, 0, 78, 107
2, 97043, Note_on_c, 0, 78, 0
2, 97079, Control_c, 0, 64, 0
2, 97560, Note_on_c, 0, 80, 85
2, 97560, Note_on_c, 0, 65, 64
2, 97574, Note_on_c, 0, 65, 0
2, 97577, Note_on_c, 0, 80, 0
2, 97590, Note_on_c, 0, 66, 93
2, 97590, Note_on_c, 0, 81, 93
2, 97697, Note_on_c, 0, 81, 0
2, 97705, Note_on_c, 0, 66, 0
2, 97800, Note_on_c, 0, 64, 60
2, 97800, Note_on_c, 0, 78, 89
2, 97823, Note_on_c, 0, 78, 0
2, 97823, Note_on_c, 0, 64, 0
2, 97830, Note_on_c, 0, 64, 85
2, 97830, Note_on_c, 0, 79, 76
2, 97927, Note_on_c, 0, 79, 0
2, 97927, Note_on_c, 0, 64, 0
2, 98040, Note_on_c, 0, 61, 72
2, 98040, Note_on_c, 0, 77, 93
2, 98060, Note_on_c, 0, 77, 0
2, 98062, Note_on_c, 0, 61, 0
2, 98070, Note_on_c, 0, 62, 80
2, 98070, Note_on_c, 0, 78, 89
2, 98162, Note_on_c, 0, 78, 0
2, 98165, Note_on_c, 0, 62, 0
2, 98280, Note_on_c, 0, 59, 72
2, 98280, Note_on_c, 0, 75, 89
2, 98295, Note_on_c, 0, 75, 0
2, 98304, Note_on_c, 0, 59, 0
2, 98310, Note_on_c, 0, 61, 98
2, 98310, Note_on_c, 0, 76, 89
2, 98370, Note_on_c, 0, 76, 0
2, 98370, Note_on_c, 0, 61, 0
2, 98400, Note_on_c, 0, 81, 93
2, 98400, Note_on_c, 0, 78, 93
2, 98400, Note_on_c, 0, 66, 80
2, 98400, Note_on_c, 0, 74, 102
2, 98400, Note_on_c, 0, 62, 102
2, 98400, Note_on_c, 0, 69, 93
2, 98400, Note_on_c, 0, 86, 119
2, 98427, Control_c, 0, 64, 127
2, 98453, Note_on_c, 0, 74, 0
2, 98453, Note_on_c, 0, 66, 0
2, 98454, Note_on_c, 0, 78, 0
2, 98454, Note_on_c, 0, 62, 0
2, 98454, Note_on_c, 0, 81, 0
2, 98454, Note_on_c, 0, 69, 0
2, 98455, Note_on_c, 0, 86, 0
2, 98507, Control_c, 0, 64, 0
2, 98520, Note_on_c, 0, 81, 98
2, 98520, Note_on_c, 0, 78, 98
2, 98520, Note_on_c, 0, 74, 102
2, 98520, Note_on_c, 0, 86, 102
2, 98520, Note_on_c, 0, 66, 85
2, 98520, Note_on_c, 0, 62, 102
2, 98520, Note_on_c, 0, 69, 98
2, 98531, Control_c, 0, 64, 127
2, 98570, Note_on_c, 0, 74, 0
2, 98573, Note_on_c, 0, 66, 0
2, 98573, Note_on_c, 0, 69, 0
2, 98574, Note_on_c, 0, 62, 0
2, 98575, Note_on_c, 0, 78, 0
2, 98577, Note_on_c, 0, 81, 0
2, 98577, Note_on_c, 0, 86, 0
2, 98629, Control_c, 0, 64, 0
2, 98640, Note_on_c, 0, 81, 102
2, 98640, Note_on_c, 0, 78, 98
2, 98640, Note_on_c, 0, 74, 113
2, 98640, Note_on_c, 0, 86, 107
2, 98640, Note_on_c, 0, 66, 93
2, 98640, Note_on_c, 0, 62, 102
2, 98640, Note_on_c, 0, 69, 98
2, 98651, Control_c, 0, 64, 127
2, 98670, Note_on_c, 0, 74, 0
2, 98672, Note_on_c, 0, 69, 0
2, 98673, Note_on_c, 0, 66, 0
2, 98674, Note_on_c, 0, 86, 0
2, 98674, Note_on_c, 0, 81, 0
2, 98674, Note_on_c, 0, 62, 0
2, 98676, Note_on_c, 0, 78, 0
2, 98761, Control_c, 0, 64, 0
2, 99360, Note_on_c, 0, 78, 93
2, 99360, Note_on_c, 0, 74, 107
2, 99360, Note_on_c, 0, 81, 107
2, 99360, Note_on_c, 0, 86, 107
2, 99360, Note_on_c, 0, 66, 89
2, 99360, Note_on_c, 0, 62, 102
2, 99360, Note_on_c, 0, 69, 102
2, 99363, Control_c, 0, 64, 127
2, 99404, Note_on_c, 0, 74, 0
2, 99405, Note_on_c, 0, 62, 0
2, 99407, Note_on_c, 0, 66, 0
2, 99407, Note_on_c, 0, 69, 0
2, 99411, Note_on_c, 0, 78, 0
2, 99413, Note_on_c, 0, 81, 0
2, 99414, Note_on_c, 0, 86, 0
2, 99468, Control_c, 0, 64, 0
2, 99480, Note_on_c, 0, 78, 89
2, 99480, Note_on_c, 0, 81, 102
2, 99480, Note_on_c, 0, 86, 107
2, 99480, Note_on_c, 0, 74, 107
2, 99480, Note_on_c, 0, 62, 98
2, 99480, Note_on_c, 0, 66, 89
2, 99480, Note_on_c, 0, 69, 89
2, 99496, Control_c, 0, 64, 127
2, 99518, Note_on_c, 0, 74, 0
2, 99519, Note_on_c, 0, 78, 0
2, 99519, Note_on_c, 0, 66, 0
2, 99520, Note_on_c, 0, 62, 0
2, 99520, Note_on_c, 0, 81, 0
2, 99523, Note_on_c, 0, 86, 0
2, 99523, Note_on_c, 0, 69, 0
2, 99594, Control_c, 0, 64, 0
2, 99600, Note_on_c, 0, 78, 93
2, 99600, Note_on_c, 0, 81, 102
2, 99600, Note_on_c, 0, 74, 98
2, 99600, Note_on_c, 0, 86, 102
2, 99600, Note_on_c, 0, 62, 102
2, 99600, Note_on_c, 0, 66, 85
2, 99600, Note_on_c, 0, 69, 93
2, 99620, Control_c, 0, 64, 127
2, 99725, Note_on_c, 0, 74, 0
2, 99726, Note_on_c, 0, 78, 0
2, 99727, Note_on_c, 0, 66, 0
2, 99727, Note_on_c, 0, 81, 0
2, 99727, Note_on_c, 0, 69, 0
2, 99728, Note_on_c, 0, 62, 0
2, 99729, Note_on_c, 0, 86, 0
2, 99730, Control_c, 0, 64, 0
2, 100320, Note_on_c, 0, 86, 93
2, 100320, Note_on_c, 0, 74, 85
2, 100324, Control_c, 0, 64, 127
2, 100371, Note_on_c, 0, 86, 0
2, 100372, Note_on_c, 0, 74, 0
2, 100380, Note_on_c, 0, 78, 68
2, 100380, Note_on_c, 0, 81, 89
2, 100380, Note_on_c, 0, 66, 62
2, 100380, Note_on_c, 0, 69, 76
2, 100403, Note_on_c, 0, 69, 0
2, 100405, Note_on_c, 0, 78, 0
2, 100406, Note_on_c, 0, 66, 0
2, 100408, Note_on_c, 0, 81, 0
2, 100440, Note_on_c, 0, 66, 76
2, 100440, Note_on_c, 0, 78, 76
2, 100440, Note_on_c, 0, 81, 93
2, 100440, Note_on_c, 0, 69, 80
2, 100463, Note_on_c, 0, 69, 0
2, 100466, Note_on_c, 0, 78, 0
2, 100469, Note_on_c, 0, 81, 0
2, 100469, Note_on_c, 0, 66, 0
2, 100500, Note_on_c, 0, 81, 98
2, 100500, Note_on_c, 0, 78, 76
2, 100500, Note_on_c, 0, 66, 72
2, 100500, Note_on_c, 0, 69, 80
2, 100517, Note_on_c, 0, 81, 0
2, 100522, Note_on_c, 0, 69, 0
2, 100523, Note_on_c, 0, 66, 0
2, 100528, Note_on_c, 0, 78, 0
2, 100550, Control_c, 0, 64, 0
2, 100560, Note_on_c, 0, 66, 76
2, 100560, Note_on_c, 0, 78, 89
2, 100560, Note_on_c, 0, 81, 85
2, 100560, Note_on_c, 0, 69, 72
2, 100575, Control_c, 0, 64, 127
2, 100579, Note_on_c, 0, 69, 0
2, 100586, Note_on_c, 0, 66, 0
2, 100592, Note_on_c, 0, 78, 0
2, 100596, Note_on_c, 0, 81, 0
2, 100620, Note_on_c, 0, 64, 85
2, 100620, Note_on_c, 0, 67, 76
2, 100620, Control_c, 0, 64, 0
2, 100620, Note_on_c, 0, 76, 80
2, 100620, Note_on_c, 0, 79, 89
2, 100645, Control_c, 0, 64, 127
2, 100660, Note_on_c, 0, 67, 0
2, 100661, Note_on_c, 0, 64, 0
2, 100661, Note_on_c, 0, 79, 0
2, 100662, Note_on_c, 0, 76, 0
2, 100670, Control_c, 0, 64, 0
2, 100680, Note_on_c, 0, 76, 89
2, 100680, Note_on_c, 0, 79, 93
2, 100680, Note_on_c, 0, 67, 76
2, 100680, Note_on_c, 0, 64, 80
2, 100688, Control_c, 0, 64, 127
2, 100699, Note_on_c, 0, 64, 0
2, 100700, Note_on_c, 0, 67, 0
2, 100704, Note_on_c, 0, 79, 0
2, 100709, Note_on_c, 0, 76, 0
2, 100794, Control_c, 0, 64, 0
2, 100800, Note_on_c, 0, 67, 80
2, 100800, Note_on_c, 0, 76, 60
2, 100800, Note_on_c, 0, 88, 98
2, 100800, Note_on_c, 0, 79, 98
2, 100819, Control_c, 0, 64, 127
2, 100825, Note_on_c, 0, 67, 0
2, 100826, Note_on_c, 0, 76, 0
2, 100833, Note_on_c, 0, 88, 0
2, 100836, Note_on_c, 0, 79, 0
2, 100860, Note_on_c, 0, 79, 93
2, 100860, Note_on_c, 0, 76, 85
2, 100860, Note_on_c, 0, 67, 62
2, 100860, Note_on_c, 0, 64, 64
2, 100863, Control_c, 0, 64, 0
2, 100886, Control_c, 0, 64, 127
2, 100901, Note_on_c, 0, 67, 0
2, 100903, Note_on_c, 0, 64, 0
2, 100904, Note_on_c, 0, 79, 0
2, 100906, Note_on_c, 0, 76, 0
2, 100920, Note_on_c, 0, 76, 80
2, 100920, Note_on_c, 0, 64, 72
2, 100920, Note_on_c, 0, 79, 85
2, 100920, Note_on_c, 0, 67, 64
2, 100954, Note_on_c, 0, 67, 0
2, 100955, Note_on_c, 0, 79, 0
2, 100955, Note_on_c, 0, 64, 0
2, 100956, Note_on_c, 0, 76, 0
2, 100980, Note_on_c, 0, 64, 76
2, 100980, Note_on_c, 0, 76, 85
2, 100980, Note_on_c, 0, 79, 98
2, 100980, Note_on_c, 0, 67, 64
2, 101006, Note_on_c, 0, 67, 0
2, 101006, Note_on_c, 0, 64, 0
2, 101006, Note_on_c, 0, 76, 0
2, 101006, Note_on_c, 0, 79, 0
2, 101034, Control_c, 0, 64, 0
2, 101040, Note_on_c, 0, 64, 76
2, 101040, Note_on_c, 0, 67, 62
2, 101040, Note_on_c, 0, 79, 89
2, 101040, Note_on_c, 0, 76, 85
2, 101056, Control_c, 0, 64, 127
2, 101063, Note_on_c, 0, 79, 0
2, 101064, Note_on_c, 0, 64, 0
2, 101066, Note_on_c, 0, 67, 0
2, 101071, Note_on_c, 0, 76, 0
2, 101096, Control_c, 0, 64, 0
2, 101100, Note_on_c, 0, 78, 76
2, 101100, Note_on_c, 0, 74, 80
2, 101100, Note_on_c, 0, 66, 64
2, 101100, Note_on_c, 0, 62, 76
2, 101117, Control_c, 0, 64, 127
2, 101137, Note_on_c, 0, 66, 0
2, 101139, Note_on_c, 0, 74, 0
2, 101140, Note_on_c, 0, 78, 0
2, 101140, Note_on_c, 0, 62, 0
2, 101155, Control_c, 0, 64, 0
2, 101160, Note_on_c, 0, 62, 68
2, 101160, Note_on_c, 0, 74, 76
2, 101160, Note_on_c, 0, 78, 68
2, 101160, Note_on_c, 0, 66, 72
2, 101172, Control_c, 0, 64, 127
2, 101183, Note_on_c, 0, 66, 0
2, 101186, Note_on_c, 0, 62, 0
2, 101193, Note_on_c, 0, 74, 0
2, 101198, Note_on_c, 0, 78, 0
2, 101274, Control_c, 0, 64, 0
2, 101280, Note_on_c, 0, 66, 64
2, 101280, Note_on_c, 0, 78, 89
2, 101280, Note_on_c, 0, 74, 72
2, 101280, Note_on_c, 0, 86, 93
2, 101296, Control_c, 0, 64, 127
2, 101302, Note_on_c, 0, 74, 0
2, 101308, Note_on_c, 0, 86, 0
2, 101311, Note_on_c, 0, 66, 0
2, 101312, Note_on_c, 0, 78, 0
2, 101338, Control_c, 0, 64, 0
2, 101340, Note_on_c, 0, 66, 80
2, 101340, Note_on_c, 0, 78, 85
2, 101340, Note_on_c, 0, 74, 76
2, 101340, Note_on_c, 0, 62, 89
2, 101360, Control_c, 0, 64, 127
2, 101369, Note_on_c, 0, 62, 0
2, 101372, Note_on_c, 0, 66, 0
2, 101374, Note_on_c, 0, 74, 0
2, 101378, Note_on_c, 0, 78, 0
2, 101400, Note_on_c, 0, 78, 85
2, 101400, Note_on_c, 0, 66, 68
2, 101400, Note_on_c, 0, 74, 89
2, 101400, Note_on_c, 0, 62, 93
2, 101425, Note_on_c, 0, 66, 0
2, 101428, Note_on_c, 0, 62, 0
2, 101432, Note_on_c, 0, 74, 0
2, 101435, Note_on_c, 0, 78, 0
2, 101460, Note_on_c, 0, 66, 64
2, 101460, Note_on_c, 0, 78, 76
2, 101460, Note_on_c, 0, 74, 62
2, 101460, Note_on_c, 0, 62, 55
2, 101467, Note_on_c, 0, 62, 0
2, 101475, Note_on_c, 0, 66, 0
2, 101478, Note_on_c, 0, 74, 0
2, 101478, Note_on_c, 0, 78, 0
2, 101520, Note_on_c, 0, 71, 93
2, 101520, Note_on_c, 0, 76, 93
2, 101520, Note_on_c, 0, 64, 89
2, 101520, Note_on_c, 0, 59, 93
2, 101522, Control_c, 0, 64, 0
2, 101550, Control_c, 0, 64, 127
2, 101558, Note_on_c, 0, 71, 0
2, 101559, Note_on_c, 0, 64, 0
2, 101562, Note_on_c, 0, 59, 0
2, 101564, Note_on_c, 0, 76, 0
2, 101687, Control_c, 0, 64, 0
2, 101700, Note_on_c, 0, 79, 93
2, 101700, Note_on_c, 0, 83, 89
2, 101700, Note_on_c, 0, 67, 76
2, 101700, Note_on_c, 0, 71, 80
2, 101710, Control_c, 0, 64, 127
2, 101722, Note_on_c, 0, 67, 0
2, 101724, Note_on_c, 0, 71, 0
2, 101734, Note_on_c, 0, 79, 0
2, 101735, Note_on_c, 0, 83, 0
2, 101757, Control_c, 0, 64, 0
2, 101760, Note_on_c, 0, 66, 72
2, 101760, Note_on_c, 0, 78, 85
2, 101760, Note_on_c, 0, 81, 93
2, 101760, Note_on_c, 0, 69, 80
2, 101776, Control_c, 0, 64, 127
2, 101795, Note_on_c, 0, 69, 0
2, 101796, Note_on_c, 0, 81, 0
2, 101797, Note_on_c, 0, 78, 0
2, 101804, Note_on_c, 0, 66, 0
2, 101811, Control_c, 0, 64, 0
2, 101820, Note_on_c, 0, 79, 93
2, 101820, Note_on_c, 0, 64, 80
2, 101820, Note_on_c, 0, 67, 68
2, 101820, Note_on_c, 0, 76, 89
2, 101830, Control_c, 0, 64, 127
2, 101841, Note_on_c, 0, 79, 0
2, 101843, Note_on_c, 0, 67, 0
2, 101849, Note_on_c, 0, 76, 0
2, 101852, Note_on_c, 0, 64, 0
2, 101873, Control_c, 0, 64, 0
2, 101880, Note_on_c, 0, 66, 62
2, 101880, Note_on_c, 0, 62, 85
2, 101880, Note_on_c, 0, 74, 89
2, 101880, Note_on_c, 0, 78, 80
2, 101891, Control_c, 0, 64, 127
2, 101898, Note_on_c, 0, 66, 0
2, 101902, Note_on_c, 0, 62, 0
2, 101906, Note_on_c, 0, 74, 0
2, 101911, Note_on_c, 0, 78, 0
2, 101934, Control_c, 0, 64, 0
2, 101940, Note_on_c, 0, 76, 89
2, 101940, Note_on_c, 0, 73, 72
2, 101940, Note_on_c, 0, 64, 85
2, 101940, Note_on_c, 0, 61, 76
2, 101949, Control_c, 0, 64, 127
2, 101960, Note_on_c, 0, 73, 0
2, 101964, Note_on_c, 0, 64, 0
2, 101966, Note_on_c, 0, 76, 0
2, 101967, Note_on_c, 0, 61, 0
2, 101989, Control_c, 0, 64, 0
2, 102000, Note_on_c, 0, 62, 89
2, 102000, Note_on_c, 0, 74, 93
2, 102010, Control_c, 0, 64, 127
2, 102026, Note_on_c, 0, 74, 0
2, 102043, Note_on_c, 0, 62, 0
2, 102120, Note_on_c, 0, 62, 93
2, 102125, Control_c, 0, 64, 0
2, 102155, Control_c, 0, 64, 127
2, 102181, Note_on_c, 0, 62, 0
2, 102234, Control_c, 0, 64, 0
2, 102240, Note_on_c, 0, 74, 80
2, 102240, Note_on_c, 0, 57, 72
2, 102264, Control_c, 0, 64, 127
2, 102285, Note_on_c, 0, 57, 0
2, 102285, Note_on_c, 0, 74, 0
2, 102300, Note_on_c, 0, 66, 55
2, 102300, Note_on_c, 0, 57, 64
2, 102300, Note_on_c, 0, 69, 89
2, 102321, Note_on_c, 0, 69, 0
2, 102322, Note_on_c, 0, 66, 0
2, 102325, Note_on_c, 0, 57, 0
2, 102360, Note_on_c, 0, 57, 76
2, 102360, Note_on_c, 0, 66, 55
2, 102360, Note_on_c, 0, 69, 80
2, 102380, Note_on_c, 0, 69, 0
2, 102380, Note_on_c, 0, 66, 0
2, 102387, Note_on_c, 0, 57, 0
2, 102420, Note_on_c, 0, 69, 76
2, 102420, Note_on_c, 0, 57, 76
2, 102420, Note_on_c, 0, 66, 60
2, 102435, Note_on_c, 0, 69, 0
2, 102440, Note_on_c, 0, 57, 0
2, 102443, Note_on_c, 0, 66, 0
2, 102480, Note_on_c, 0, 66, 62
2, 102480, Control_c, 0, 64, 0
2, 102480, Note_on_c, 0, 69, 72
2, 102480, Note_on_c, 0, 57, 64
2, 102503, Control_c, 0, 64, 127
2, 102517, Note_on_c, 0, 57, 0
2, 102517, Note_on_c, 0, 69, 0
2, 102520, Note_on_c, 0, 66, 0
2, 102540, Note_on_c, 0, 57, 60
2, 102540, Note_on_c, 0, 64, 62
2, 102540, Note_on_c, 0, 67, 72
2, 102570, Note_on_c, 0, 57, 0
2, 102575, Note_on_c, 0, 67, 0
2, 102580, Note_on_c, 0, 64, 0
2, 102593, Control_c, 0, 64, 0
2, 102600, Note_on_c, 0, 57, 80
2, 102600, Note_on_c, 0, 67, 76
2, 102600, Note_on_c, 0, 64, 59
2, 102616, Control_c, 0, 64, 127
2, 102641, Note_on_c, 0, 67, 0
2, 102647, Note_on_c, 0, 64, 0
2, 102659, Note_on_c, 0, 57, 0
2, 102714, Control_c, 0, 64, 0
2, 102720, Note_on_c, 0, 76, 72
2, 102720, Note_on_c, 0, 57, 80
2, 102720, Note_on_c, 0, 67, 80
2, 102737, Control_c, 0, 64, 127
2, 102751, Note_on_c, 0, 76, 0
2, 102754, Note_on_c, 0, 67, 0
2, 102756, Note_on_c, 0, 57, 0
2, 102780, Note_on_c, 0, 64, 60
2, 102780, Note_on_c, 0, 67, 72
2, 102780, Note_on_c, 0, 57, 62
2, 102800, Note_on_c, 0, 57, 0
2, 102807, Note_on_c, 0, 67, 0
2, 102811, Note_on_c, 0, 64, 0
2, 102837, Control_c, 0, 64, 0
2, 102840, Note_on_c, 0, 57, 76
2, 102840, Note_on_c, 0, 67, 80
2, 102840, Note_on_c, 0, 64, 64
2, 102857, Control_c, 0, 64, 127
2, 102873, Note_on_c, 0, 64, 0
2, 102873, Note_on_c, 0, 57, 0
2, 102875, Note_on_c, 0, 67, 0
2, 102900, Note_on_c, 0, 57, 76
2, 102900, Note_on_c, 0, 67, 76
2, 102900, Note_on_c, 0, 64, 64
2, 102914, Note_on_c, 0, 67, 0
2, 102920, Note_on_c, 0, 64, 0
2, 102923, Note_on_c, 0, 57, 0
2, 102957, Control_c, 0, 64, 0
2, 102960, Note_on_c, 0, 64, 72
2, 102960, Note_on_c, 0, 67, 72
2, 102960, Note_on_c, 0, 57, 76
2, 102978, Control_c, 0, 64, 127
2, 102995, Note_on_c, 0, 67, 0
2, 102996, Note_on_c, 0, 57, 0
2, 102996, Note_on_c, 0, 64, 0
2, 103020, Note_on_c, 0, 66, 60
2, 103020, Note_on_c, 0, 57, 68
2, 103020, Note_on_c, 0, 62, 72
2, 103045, Note_on_c, 0, 57, 0
2, 103047, Note_on_c, 0, 62, 0
2, 103050, Note_on_c, 0, 66, 0
2, 103055, Control_c, 0, 64, 0
2, 103080, Note_on_c, 0, 57, 85
2, 103080, Note_on_c, 0, 66, 68
2, 103080, Note_on_c, 0, 62, 80
2, 103082, Control_c, 0, 64, 127
2, 103101, Note_on_c, 0, 62, 0
2, 103104, Note_on_c, 0, 66, 0
2, 103106, Note_on_c, 0, 57, 0
2, 103178, Control_c, 0, 64, 0
2, 103200, Note_on_c, 0, 62, 107
2, 103200, Note_on_c, 0, 74, 113
2, 103221, Control_c, 0, 64, 127
2, 103315, Note_on_c, 0, 74, 0
2, 103315, Control_c, 0, 64, 0
2, 103316, Note_on_c, 0, 62, 0
2, 103320, Note_on_c, 0, 57, 98
2, 103320, Note_on_c, 0, 69, 113
2, 103343, Control_c, 0, 64, 127
2, 103395, Note_on_c, 0, 69, 0
2, 103401, Note_on_c, 0, 57, 0
2, 103410, Note_on_c, 0, 62, 89
2, 103410, Note_on_c, 0, 74, 98
2, 103420, Control_c, 0, 64, 0
2, 103430, Note_on_c, 0, 74, 0
2, 103433, Note_on_c, 0, 62, 0
2, 103440, Note_on_c, 0, 66, 98
2, 103440, Note_on_c, 0, 78, 113
2, 103469, Control_c, 0, 64, 127
2, 103551, Note_on_c, 0, 66, 0
2, 103552, Control_c, 0, 64, 0
2, 103555, Note_on_c, 0, 78, 0
2, 103560, Note_on_c, 0, 62, 98
2, 103560, Note_on_c, 0, 74, 107
2, 103582, Control_c, 0, 64, 127
2, 103648, Note_on_c, 0, 74, 0
2, 103648, Note_on_c, 0, 62, 0
2, 103650, Note_on_c, 0, 66, 89
2, 103650, Note_on_c, 0, 78, 85
2, 103661, Control_c, 0, 64, 0
2, 103675, Note_on_c, 0, 78, 0
2, 103678, Note_on_c, 0, 66, 0
2, 103680, Note_on_c, 0, 69, 89
2, 103680, Note_on_c, 0, 81, 119
2, 103708, Control_c, 0, 64, 127
2, 103768, Note_on_c, 0, 81, 0
2, 103771, Note_on_c, 0, 69, 0
2, 103795, Control_c, 0, 64, 0
2, 103800, Note_on_c, 0, 81, 113
2, 103800, Note_on_c, 0, 69, 102
2, 103819, Control_c, 0, 64, 127
2, 103858, Note_on_c, 0, 69, 0
2, 103859, Note_on_c, 0, 81, 0
2, 103890, Note_on_c, 0, 81, 102
2, 103890, Note_on_c, 0, 69, 107
2, 103897, Control_c, 0, 64, 0
2, 103907, Note_on_c, 0, 69, 0
2, 103907, Note_on_c, 0, 81, 0
2, 103920, Note_on_c, 0, 81, 113
2, 103920, Note_on_c, 0, 69, 107
2, 103934, Control_c, 0, 64, 127
2, 103966, Note_on_c, 0, 81, 0
2, 103968, Note_on_c, 0, 69, 0
2, 104051, Control_c, 0, 64, 0
2, 104160, Note_on_c, 0, 57, 72
2, 104168, Control_c, 0, 64, 127
2, 104200, Note_on_c, 0, 62, 62
2, 104208, Note_on_c, 0, 57, 0
2, 104240, Note_on_c, 0, 66, 59
2, 104245, Note_on_c, 0, 62, 0
2, 104274, Note_on_c, 0, 66, 0
2, 104280, Note_on_c, 0, 57, 76
2, 104320, Note_on_c, 0, 62, 68
2, 104324, Note_on_c, 0, 57, 0
2, 104360, Note_on_c, 0, 62, 0
2, 104360, Note_on_c, 0, 66, 52
2, 104399, Note_on_c, 0, 66, 0
2, 104400, Note_on_c, 0, 57, 89
2, 104400, Note_on_c, 0, 78, 85
2, 104440, Note_on_c, 0, 62, 68
2, 104445, Note_on_c, 0, 57, 0
2, 104480, Note_on_c, 0, 66, 60
2, 104481, Note_on_c, 0, 62, 0
2, 104513, Note_on_c, 0, 66, 0
2, 104519, Note_on_c, 0, 78, 0
2, 104520, Note_on_c, 0, 57, 72
2, 104520, Note_on_c, 0, 79, 85
2, 104534, Note_on_c, 0, 79, 0
2, 104535, Note_on_c, 0, 78, 68
2, 104549, Note_on_c, 0, 78, 0
2, 104550, Note_on_c, 0, 79, 89
2, 104560, Note_on_c, 0, 62, 72
2, 104564, Note_on_c, 0, 79, 0
2, 104564, Note_on_c, 0, 57, 0
2, 104565, Note_on_c, 0, 78, 56
2, 104579, Note_on_c, 0, 78, 0
2, 104580, Note_on_c, 0, 79, 80
2, 104594, Note_on_c, 0, 79, 0
2, 104595, Note_on_c, 0, 78, 72
2, 104597, Note_on_c, 0, 62, 0
2, 104600, Note_on_c, 0, 66, 60
2, 104609, Note_on_c, 0, 78, 0
2, 104610, Note_on_c, 0, 76, 85
2, 104624, Note_on_c, 0, 76, 0
2, 104625, Note_on_c, 0, 78, 80
2, 104630, Note_on_c, 0, 66, 0
2, 104639, Note_on_c, 0, 78, 0
2, 104640, Note_on_c, 0, 57, 80
2, 104640, Note_on_c, 0, 79, 80
2, 104645, Control_c, 0, 64, 0
2, 104672, Control_c, 0, 64, 127
2, 104680, Note_on_c, 0, 61, 60
2, 104682, Note_on_c, 0, 57, 0
2, 104720, Note_on_c, 0, 61, 0
2, 104720, Note_on_c, 0, 64, 76
2, 104750, Note_on_c, 0, 64, 0
2, 104759, Note_on_c, 0, 79, 0
2, 104760, Note_on_c, 0, 57, 76
2, 104760, Note_on_c, 0, 76, 89
2, 104770, Control_c, 0, 64, 0
2, 104791, Control_c, 0, 64, 127
2, 104800, Note_on_c, 0, 61, 60
2, 104811, Note_on_c, 0, 57, 0
2, 104819, Note_on_c, 0, 76, 0
2, 104840, Note_on_c, 0, 61, 0
2, 104840, Note_on_c, 0, 64, 76
2, 104872, Note_on_c, 0, 64, 0
2, 104880, Note_on_c, 0, 57, 76
2, 104880, Control_c, 0, 64, 0
2, 104880, Note_on_c, 0, 85, 89
2, 104900, Control_c, 0, 64, 127
2, 104920, Note_on_c, 0, 64, 72
2, 104939, Note_on_c, 0, 57, 0
2, 104960, Note_on_c, 0, 67, 68
2, 104961, Note_on_c, 0, 64, 0
2, 104994, Note_on_c, 0, 67, 0
2, 104999, Note_on_c, 0, 85, 0
2, 105000, Note_on_c, 0, 57, 80
2, 105000, Note_on_c, 0, 86, 93
2, 105014, Note_on_c, 0, 86, 0
2, 105015, Note_on_c, 0, 85, 72
2, 105029, Note_on_c, 0, 85, 0
2, 105030, Note_on_c, 0, 86, 85
2, 105040, Note_on_c, 0, 64, 72
2, 105044, Note_on_c, 0, 86, 0
2, 105045, Note_on_c, 0, 85, 76
2, 105054, Note_on_c, 0, 57, 0
2, 105059, Note_on_c, 0, 85, 0
2, 105060, Note_on_c, 0, 86, 89
2, 105074, Note_on_c, 0, 86, 0
2, 105075, Note_on_c, 0, 85, 80
2, 105080, Note_on_c, 0, 67, 72
2, 105082, Note_on_c, 0, 64, 0
2, 105089, Note_on_c, 0, 85, 0
2, 105090, Note_on_c, 0, 83, 89
2, 105104, Note_on_c, 0, 83, 0
2, 105105, Note_on_c, 0, 85, 93
2, 105111, Note_on_c, 0, 67, 0
2, 105116, Control_c, 0, 64, 0
2, 105119, Note_on_c, 0, 85, 0
2, 105120, Note_on_c, 0, 57, 64
2, 105120, Note_on_c, 0, 86, 93
2, 105142, Control_c, 0, 64, 127
2, 105160, Note_on_c, 0, 62, 64
2, 105171, Note_on_c, 0, 57, 0
2, 105199, Note_on_c, 0, 62, 0
2, 105200, Note_on_c, 0, 66, 57
2, 105234, Note_on_c, 0, 66, 0
2, 105239, Note_on_c, 0, 86, 0
2, 105240, Note_on_c, 0, 57, 80
2, 105240, Note_on_c, 0, 81, 89
2, 105280, Note_on_c, 0, 62, 72
2, 105284, Note_on_c, 0, 57, 0
2, 105299, Note_on_c, 0, 81, 0
2, 105318, Note_on_c, 0, 62, 0
2, 105320, Note_on_c, 0, 66, 62
2, 105355, Note_on_c, 0, 66, 0
2, 105360, Note_on_c, 0, 57, 89
2, 105360, Note_on_c, 0, 78, 89
2, 105366, Control_c, 0, 64, 0
2, 105387, Control_c, 0, 64, 127
2, 105400, Note_on_c, 0, 62, 68
2, 105403, Note_on_c, 0, 57, 0
2, 105440, Note_on_c, 0, 62, 0
2, 105440, Note_on_c, 0, 66, 60
2, 105475, Note_on_c, 0, 66, 0
2, 105479, Note_on_c, 0, 78, 0
2, 105480, Note_on_c, 0, 57, 72
2, 105480, Note_on_c, 0, 79, 80
2, 105494, Note_on_c, 0, 79, 0
2, 105495, Note_on_c, 0, 78, 76
2, 105509, Note_on_c, 0, 78, 0
2, 105510, Note_on_c, 0, 79, 80
2, 105519, Note_on_c, 0, 57, 0
2, 105520, Note_on_c, 0, 62, 72
2, 105524, Note_on_c, 0, 79, 0
2, 105525, Note_on_c, 0, 78, 72
2, 105539, Note_on_c, 0, 78, 0
2, 105540, Note_on_c, 0, 79, 93
2, 105554, Note_on_c, 0, 79, 0
2, 105555, Note_on_c, 0, 62, 0
2, 105555, Note_on_c, 0, 78, 89
2, 105560, Note_on_c, 0, 66, 56
2, 105569, Note_on_c, 0, 78, 0
2, 105570, Note_on_c, 0, 76, 80
2, 105584, Note_on_c, 0, 76, 0
2, 105585, Note_on_c, 0, 78, 76
2, 105589, Note_on_c, 0, 66, 0
2, 105599, Note_on_c, 0, 78, 0
2, 105600, Note_on_c, 0, 57, 80
2, 105600, Note_on_c, 0, 79, 85
2, 105606, Control_c, 0, 64, 0
2, 105629, Control_c, 0, 64, 127
2, 105640, Note_on_c, 0, 61, 57
2, 105645, Note_on_c, 0, 57, 0
2, 105680, Note_on_c, 0, 64, 62
2, 105686, Note_on_c, 0, 61, 0
2, 105717, Note_on_c, 0, 64, 0
2, 105719, Note_on_c, 0, 79, 0
2, 105720, Note_on_c, 0, 57, 85
2, 105720, Note_on_c, 0, 76, 85
2, 105729, Control_c, 0, 64, 0
2, 105747, Control_c, 0, 64, 127
2, 105760, Note_on_c, 0, 61, 62
2, 105768, Note_on_c, 0, 57, 0
2, 105779, Note_on_c, 0, 76, 0
2, 105799, Note_on_c, 0, 61, 0
2, 105800, Note_on_c, 0, 64, 59
2, 105830, Note_on_c, 0, 64, 0
2, 105838, Control_c, 0, 64, 0
2, 105840, Note_on_c, 0, 57, 89
2, 105840, Note_on_c, 0, 85, 89
2, 105860, Control_c, 0, 64, 127
2, 105880, Note_on_c, 0, 64, 62
2, 105898, Note_on_c, 0, 57, 0
2, 105920, Note_on_c, 0, 67, 68
2, 105924, Note_on_c, 0, 64, 0
2, 105959, Note_on_c, 0, 67, 0
2, 105959, Note_on_c, 0, 85, 0
2, 105960, Note_on_c, 0, 57, 85
2, 105960, Note_on_c, 0, 86, 85
2, 105961, Control_c, 0, 64, 0
2, 105974, Note_on_c, 0, 86, 0
2, 105975, Note_on_c, 0, 85, 85
2, 105979, Control_c, 0, 64, 127
2, 105989, Note_on_c, 0, 85, 0
2, 105990, Note_on_c, 0, 86, 85
2, 106000, Note_on_c, 0, 64, 72
2, 106004, Note_on_c, 0, 86, 0
2, 106005, Note_on_c, 0, 85, 89
2, 106017, Note_on_c, 0, 57, 0
2, 106019, Note_on_c, 0, 85, 0
2, 106020, Note_on_c, 0, 86, 93
2, 106034, Note_on_c, 0, 86, 0
2, 106035, Note_on_c, 0, 85, 76
2, 106040, Note_on_c, 0, 67, 62
2, 106041, Note_on_c, 0, 64, 0
2, 106049, Note_on_c, 0, 85, 0
2, 106050, Note_on_c, 0, 83, 85
2, 106064, Note_on_c, 0, 83, 0
2, 106065, Note_on_c, 0, 85, 85
2, 106070, Control_c, 0, 64, 0
2, 106074, Note_on_c, 0, 67, 0
2, 106079, Note_on_c, 0, 85, 0
2, 106080, Note_on_c, 0, 57, 89
2, 106080, Note_on_c, 0, 86, 93
2, 106096, Control_c, 0, 64, 127
2, 106120, Note_on_c, 0, 62, 80
2, 106125, Note_on_c, 0, 57, 0
2, 106158, Note_on_c, 0, 62, 0
2, 106160, Note_on_c, 0, 66, 76
2, 106198, Note_on_c, 0, 66, 0
2, 106199, Note_on_c, 0, 86, 0
2, 106199, Control_c, 0, 64, 0
2, 106200, Note_on_c, 0, 62, 93
2, 106200, Note_on_c, 0, 81, 93
2, 106216, Control_c, 0, 64, 127
2, 106259, Note_on_c, 0, 81, 0
2, 106303, Note_on_c, 0, 62, 0
2, 106318, Control_c, 0, 64, 0
2, 107280, Note_on_c, 0, 78, 102
2, 107280, Note_on_c, 0, 81, 102
2, 107280, Note_on_c, 0, 66, 93
2, 107280, Note_on_c, 0, 69, 107
2, 107297, Control_c, 0, 64, 127
2, 107353, Note_on_c, 0, 69, 0
2, 107353, Note_on_c, 0, 66, 0
2, 107356, Note_on_c, 0, 78, 0
2, 107357, Note_on_c, 0, 81, 0
2, 107393, Control_c, 0, 64, 0
2, 107400, Note_on_c, 0, 66, 93
2, 107400, Note_on_c, 0, 81, 107
2, 107400, Note_on_c, 0, 69, 102
2, 107400, Note_on_c, 0, 78, 113
2, 107419, Control_c, 0, 64, 127
2, 107449, Note_on_c, 0, 66, 0
2, 107450, Note_on_c, 0, 69, 0
2, 107453, Note_on_c, 0, 81, 0
2, 107454, Note_on_c, 0, 78, 0
2, 107490, Note_on_c, 0, 78, 89
2, 107490, Note_on_c, 0, 81, 93
2, 107490, Note_on_c, 0, 66, 76
2, 107490, Note_on_c, 0, 69, 93
2, 107507, Note_on_c, 0, 78, 0
2, 107508, Note_on_c, 0, 81, 0
2, 107509, Note_on_c, 0, 69, 0
2, 107511, Note_on_c, 0, 66, 0
2, 107514, Control_c, 0, 64, 0
2, 107520, Note_on_c, 0, 79, 107
2, 107520, Note_on_c, 0, 64, 93
2, 107520, Note_on_c, 0, 76, 113
2, 107520, Note_on_c, 0, 67, 93
2, 107564, Control_c, 0, 64, 127
2, 107597, Note_on_c, 0, 67, 0
2, 107598, Note_on_c, 0, 64, 0
2, 107602, Note_on_c, 0, 79, 0
2, 107603, Note_on_c, 0, 76, 0
2, 107637, Control_c, 0, 64, 0
2, 107640, Note_on_c, 0, 76, 113
2, 107640, Note_on_c, 0, 79, 113
2, 107640, Note_on_c, 0, 64, 89
2, 107640, Note_on_c, 0, 67, 93
2, 107659, Control_c, 0, 64, 127
2, 107672, Note_on_c, 0, 64, 0
2, 107673, Note_on_c, 0, 67, 0
2, 107673, Note_on_c, 0, 79, 0
2, 107678, Note_on_c, 0, 76, 0
2, 107730, Note_on_c, 0, 64, 76
2, 107730, Note_on_c, 0, 67, 85
2, 107730, Note_on_c, 0, 79, 93
2, 107730, Note_on_c, 0, 76, 93
2, 107741, Note_on_c, 0, 67, 0
2, 107742, Note_on_c, 0, 76, 0
2, 107743, Note_on_c, 0, 64, 0
2, 107744, Note_on_c, 0, 79, 0
2, 107760, Note_on_c, 0, 76, 113
2, 107760, Note_on_c, 0, 61, 93
2, 107760, Note_on_c, 0, 73, 107
2, 107760, Note_on_c, 0, 64, 93
2, 107771, Control_c, 0, 64, 0
2, 107812, Control_c, 0, 64, 127
2, 107835, Note_on_c, 0, 61, 0
2, 107836, Note_on_c, 0, 64, 0
2, 107839, Note_on_c, 0, 73, 0
2, 107842, Note_on_c, 0, 76, 0
2, 107878, Control_c, 0, 64, 0
2, 107880, Note_on_c, 0, 76, 102
2, 107880, Note_on_c, 0, 73, 107
2, 107880, Note_on_c, 0, 64, 93
2, 107880, Note_on_c, 0, 61, 98
2, 107902, Control_c, 0, 64, 127
2, 107917, Note_on_c, 0, 61, 0
2, 107920, Note_on_c, 0, 64, 0
2, 107925, Note_on_c, 0, 73, 0
2, 107925, Note_on_c, 0, 76, 0
2, 107970, Note_on_c, 0, 76, 98
2, 107970, Note_on_c, 0, 73, 98
2, 107970, Note_on_c, 0, 61, 89
2, 107970, Note_on_c, 0, 64, 93
2, 107988, Note_on_c, 0, 73, 0
2, 107989, Note_on_c, 0, 64, 0
2, 107990, Note_on_c, 0, 61, 0
2, 107991, Note_on_c, 0, 76, 0
2, 107991, Control_c, 0, 64, 0
2, 108000, Note_on_c, 0, 74, 107
2, 108000, Note_on_c, 0, 62, 113
2, 108025, Control_c, 0, 64, 127
2, 108119, Note_on_c, 0, 62, 0
2, 108121, Note_on_c, 0, 74, 0
2, 108134, Control_c, 0, 64, 0
2, 108240, Note_on_c, 0, 66, 93
2, 108240, Note_on_c, 0, 78, 113
2, 108280, Note_on_c, 0, 76, 93
2, 108280, Note_on_c, 0, 64, 93
2, 108282, Note_on_c, 0, 78, 0
2, 108284, Note_on_c, 0, 66, 0
2, 108318, Note_on_c, 0, 76, 0
2, 108319, Note_on_c, 0, 64, 0
2, 108320, Note_on_c, 0, 62, 93
2, 108320, Note_on_c, 0, 74, 107
2, 108355, Note_on_c, 0, 74, 0
2, 108360, Note_on_c, 0, 66, 107
2, 108360, Note_on_c, 0, 78, 107
2, 108363, Note_on_c, 0, 62, 0
2, 108398, Note_on_c, 0, 66, 0
2, 108400, Note_on_c, 0, 78, 0
2, 108400, Note_on_c, 0, 76, 98
2, 108400, Note_on_c, 0, 64, 76
2, 108437, Note_on_c, 0, 76, 0
2, 108438, Note_on_c, 0, 64, 0
2, 108440, Note_on_c, 0, 62, 89
2, 108440, Note_on_c, 0, 74, 102
2, 108471, Note_on_c, 0, 74, 0
2, 108474, Note_on_c, 0, 62, 0
2, 108480, Note_on_c, 0, 69, 89
2, 108480, Note_on_c, 0, 81, 102
2, 108492, Control_c, 0, 64, 127
2, 108605, Control_c, 0, 64, 0
2, 108607, Note_on_c, 0, 81, 0
2, 108610, Note_on_c, 0, 69, 0
2, 110640, Note_on_c, 0, 86, 102
2, 110640, Note_on_c, 0, 74, 85
2, 110656, Control_c, 0, 64, 127
2, 110678, Note_on_c, 0, 86, 0
2, 110680, Note_on_c, 0, 88, 85
2, 110716, Note_on_c, 0, 88, 0
2, 110720, Note_on_c, 0, 86, 85
2, 110756, Note_on_c, 0, 86, 0
2, 110756, Note_on_c, 0, 74, 0
2, 110760, Note_on_c, 0, 85, 93
2, 110760, Note_on_c, 0, 73, 85
2, 110762, Control_c, 0, 64, 0
2, 110800, Note_on_c, 0, 85, 0
2, 110800, Control_c, 0, 64, 127
2, 110800, Note_on_c, 0, 86, 89
2, 110840, Note_on_c, 0, 85, 72
2, 110842, Note_on_c, 0, 86, 0
2, 110870, Note_on_c, 0, 73, 0
2, 110874, Note_on_c, 0, 85, 0
2, 110878, Control_c, 0, 64, 0
2, 110880, Note_on_c, 0, 83, 89
2, 110880, Note_on_c, 0, 71, 76
2, 110916, Note_on_c, 0, 83, 0
2, 110919, Control_c, 0, 64, 127
2, 110920, Note_on_c, 0, 85, 72
2, 110960, Note_on_c, 0, 83, 85
2, 110963, Note_on_c, 0, 85, 0
2, 110984, Note_on_c, 0, 83, 0
2, 110993, Note_on_c, 0, 71, 0
2, 110999, Control_c, 0, 64, 0
2, 111000, Note_on_c, 0, 69, 80
2, 111000, Note_on_c, 0, 81, 89
2, 111035, Control_c, 0, 64, 127
2, 111036, Note_on_c, 0, 81, 0
2, 111040, Note_on_c, 0, 83, 93
2, 111080, Note_on_c, 0, 81, 85
2, 111083, Note_on_c, 0, 83, 0
2, 111113, Note_on_c, 0, 69, 0
2, 111115, Note_on_c, 0, 81, 0
2, 111118, Control_c, 0, 64, 0
2, 111120, Note_on_c, 0, 67, 89
2, 111120, Note_on_c, 0, 79, 89
2, 111150, Control_c, 0, 64, 127
2, 111158, Note_on_c, 0, 79, 0
2, 111160, Note_on_c, 0, 81, 93
2, 111200, Note_on_c, 0, 79, 93
2, 111204, Note_on_c, 0, 81, 0
2, 111231, Control_c, 0, 64, 0
2, 111233, Note_on_c, 0, 67, 0
2, 111237, Note_on_c, 0, 79, 0
2, 111240, Note_on_c, 0, 78, 102
2, 111240, Note_on_c, 0, 66, 89
2, 111263, Control_c, 0, 64, 127
2, 111277, Note_on_c, 0, 78, 0
2, 111280, Note_on_c, 0, 79, 93
2, 111320, Note_on_c, 0, 78, 98
2, 111324, Note_on_c, 0, 79, 0
2, 111345, Note_on_c, 0, 66, 0
2, 111345, Control_c, 0, 64, 0
2, 111351, Note_on_c, 0, 78, 0
2, 111360, Note_on_c, 0, 64, 93
2, 111360, Note_on_c, 0, 76, 113
2, 111382, Control_c, 0, 64, 127
2, 111392, Note_on_c, 0, 76, 0
2, 111400, Note_on_c, 0, 78, 98
2, 111440, Note_on_c, 0, 76, 93
2, 111444, Note_on_c, 0, 78, 0
2, 111463, Note_on_c, 0, 76, 0
2, 111468, Control_c, 0, 64, 0
2, 111474, Note_on_c, 0, 64, 0
2, 111480, Note_on_c, 0, 62, 93
2, 111480, Note_on_c, 0, 74, 102
2, 111496, Control_c, 0, 64, 127
2, 111513, Note_on_c, 0, 74, 0
2, 111520, Note_on_c, 0, 76, 93
2, 111525, Note_on_c, 0, 62, 0
2, 111551, Note_on_c, 0, 76, 0
2, 111560, Note_on_c, 0, 74, 98
2, 111579, Control_c, 0, 64, 0
2, 111583, Note_on_c, 0, 74, 0
2, 111600, Note_on_c, 0, 66, 98
2, 111600, Note_on_c, 0, 78, 113
2, 111600, Note_on_c, 0, 81, 119
2, 111600, Note_on_c, 0, 69, 98
2, 111613, Control_c, 0, 64, 127
2, 111684, Note_on_c, 0, 81, 0
2, 111685, Note_on_c, 0, 69, 0
2, 111685, Note_on_c, 0, 66, 0
2, 111687, Note_on_c, 0, 78, 0
2, 111719, Control_c, 0, 64, 0
2, 111720, Note_on_c, 0, 69, 93
2, 111720, Note_on_c, 0, 78, 119
2, 111720, Note_on_c, 0, 81, 113
2, 111720, Note_on_c, 0, 66, 113
2, 111747, Control_c, 0, 64, 127
2, 111771, Note_on_c, 0, 66, 0
2, 111775, Note_on_c, 0, 81, 0
2, 111776, Note_on_c, 0, 78, 0
2, 111777, Note_on_c, 0, 69, 0
2, 111810, Note_on_c, 0, 78, 102
2, 111810, Note_on_c, 0, 81, 98
2, 111810, Note_on_c, 0, 66, 89
2, 111810, Note_on_c, 0, 69, 102
2, 111831, Note_on_c, 0, 69, 0
2, 111831, Note_on_c, 0, 81, 0
2, 111832, Note_on_c, 0, 66, 0
2, 111832, Note_on_c, 0, 78, 0
2, 111837, Control_c, 0, 64, 0
2, 111840, Note_on_c, 0, 79, 107
2, 111840, Note_on_c, 0, 76, 113
2, 111840, Note_on_c, 0, 64, 93
2, 111840, Note_on_c, 0, 67, 93
2, 111875, Control_c, 0, 64, 127
2, 111896, Note_on_c, 0, 67, 0
2, 111897, Note_on_c, 0, 64, 0
2, 111903, Note_on_c, 0, 76, 0
2, 111903, Note_on_c, 0, 79, 0
2, 111946, Control_c, 0, 64, 0
2, 111960, Note_on_c, 0, 76, 113
2, 111960, Note_on_c, 0, 64, 89
2, 111960, Note_on_c, 0, 79, 107
2, 111960, Note_on_c, 0, 67, 93
2, 111975, Control_c, 0, 64, 127
2, 111996, Note_on_c, 0, 67, 0
2, 111999, Note_on_c, 0, 64, 0
2, 112006, Note_on_c, 0, 79, 0
2, 112008, Note_on_c, 0, 76, 0
2, 112050, Note_on_c, 0, 64, 68
2, 112050, Note_on_c, 0, 67, 85
2, 112050, Note_on_c, 0, 79, 89
2, 112050, Note_on_c, 0, 76, 93
2, 112060, Note_on_c, 0, 67, 0
2, 112062, Note_on_c, 0, 64, 0
2, 112066, Note_on_c, 0, 76, 0
2, 112069, Note_on_c, 0, 79, 0
2, 112079, Control_c, 0, 64, 0
2, 112080, Note_on_c, 0, 76, 107
2, 112080, Note_on_c, 0, 73, 98
2, 112080, Note_on_c, 0, 61, 89
2, 112080, Note_on_c, 0, 64, 93
2, 112115, Control_c, 0, 64, 127
2, 112138, Note_on_c, 0, 73, 0
2, 112141, Note_on_c, 0, 61, 0
2, 112145, Note_on_c, 0, 76, 0
2, 112145, Note_on_c, 0, 64, 0
2, 112191, Control_c, 0, 64, 0
2, 112200, Note_on_c, 0, 76, 107
2, 112200, Note_on_c, 0, 73, 107
2, 112200, Note_on_c, 0, 61, 93
2, 112200, Note_on_c, 0, 64, 98
2, 112220, Control_c, 0, 64, 127
2, 112233, Note_on_c, 0, 61, 0
2, 112239, Note_on_c, 0, 64, 0
2, 112240, Note_on_c, 0, 73, 0
2, 112259, Note_on_c, 0, 76, 0
2, 112290, Note_on_c, 0, 73, 89
2, 112290, Note_on_c, 0, 76, 93
2, 112290, Note_on_c, 0, 61, 85
2, 112290, Note_on_c, 0, 64, 93
2, 112309, Note_on_c, 0, 64, 0
2, 112309, Note_on_c, 0, 61, 0
2, 112309, Note_on_c, 0, 76, 0
2, 112311, Note_on_c, 0, 73, 0
2, 112313, Control_c, 0, 64, 0
2, 112320, Note_on_c, 0, 62, 113
2, 112320, Note_on_c, 0, 74, 113
2, 112347, Control_c, 0, 64, 127
2, 112362, Note_on_c, 0, 62, 0
2, 112368, Note_on_c, 0, 74, 0
2, 112440, Control_c, 0, 64, 0
2, 112440, Note_on_c, 0, 69, 113
2, 112459, Note_on_c, 0, 69, 0
2, 112470, Note_on_c, 0, 81, 107
2, 112485, Control_c, 0, 64, 127
2, 112539, Note_on_c, 0, 81, 0
2, 112560, Note_on_c, 0, 68, 113
2, 112561, Control_c, 0, 64, 0
2, 112579, Note_on_c, 0, 68, 0
2, 112590, Note_on_c, 0, 80, 113
2, 112596, Control_c, 0, 64, 127
2, 112651, Note_on_c, 0, 80, 0
2, 112678, Control_c, 0, 64, 0
2, 112680, Note_on_c, 0, 67, 107
2, 112698, Note_on_c, 0, 67, 0
2, 112709, Control_c, 0, 64, 127
2, 112710, Note_on_c, 0, 79, 113
2, 112755, Note_on_c, 0, 79, 0
2, 112800, Control_c, 0, 64, 0
2, 112800, Note_on_c, 0, 66, 107
2, 112816, Note_on_c, 0, 66, 0
2, 112830, Note_on_c, 0, 78, 102
2, 112835, Control_c, 0, 64, 127
2, 112886, Note_on_c, 0, 78, 0
2, 112919, Control_c, 0, 64, 0
2, 112920, Note_on_c, 0, 67, 80
2, 112920, Note_on_c, 0, 76, 102
2, 112951, Note_on_c, 0, 76, 0
2, 112960, Note_on_c, 0, 69, 76
2, 112960, Control_c, 0, 64, 127
2, 112960, Note_on_c, 0, 78, 89
2, 112963, Note_on_c, 0, 67, 0
2, 112989, Note_on_c, 0, 78, 0
2, 113000, Note_on_c, 0, 79, 93
2, 113000, Note_on_c, 0, 71, 98
2, 113000, Control_c, 0, 64, 0
2, 113007, Note_on_c, 0, 69, 0
2, 113040, Note_on_c, 0, 79, 0
2, 113040, Note_on_c, 0, 69, 93
2, 113040, Note_on_c, 0, 78, 89
2, 113042, Note_on_c, 0, 71, 0
2, 113077, Note_on_c, 0, 78, 0
2, 113079, Note_on_c, 0, 69, 0
2, 113080, Note_on_c, 0, 76, 93
2, 113080, Note_on_c, 0, 67, 89
2, 113088, Control_c, 0, 64, 127
2, 113107, Note_on_c, 0, 67, 0
2, 113117, Note_on_c, 0, 76, 0
2, 113120, Note_on_c, 0, 74, 89
2, 113120, Note_on_c, 0, 66, 107
2, 113138, Note_on_c, 0, 66, 0
2, 113150, Note_on_c, 0, 74, 0
2, 113160, Note_on_c, 0, 63, 57
2, 113160, Note_on_c, 0, 64, 102
2, 113160, Note_on_c, 0, 73, 98
2, 113162, Control_c, 0, 64, 0
2, 113163, Note_on_c, 0, 63, 0
2, 113194, Note_on_c, 0, 73, 0
2, 113195, Control_c, 0, 64, 127
2, 113200, Note_on_c, 0, 64, 0
2, 113200, Note_on_c, 0, 66, 89
2, 113200, Note_on_c, 0, 74, 93
2, 113232, Note_on_c, 0, 74, 0
2, 113240, Note_on_c, 0, 66, 0
2, 113240, Note_on_c, 0, 76, 85
2, 113240, Note_on_c, 0, 67, 98
2, 113269, Note_on_c, 0, 67, 0
2, 113275, Control_c, 0, 64, 0
2, 113277, Note_on_c, 0, 76, 0
2, 113280, Note_on_c, 0, 66, 113
2, 113280, Note_on_c, 0, 74, 107
2, 113304, Control_c, 0, 64, 127
2, 113315, Note_on_c, 0, 74, 0
2, 113319, Note_on_c, 0, 66, 0
2, 113391, Control_c, 0, 64, 0
2, 113400, Note_on_c, 0, 69, 113
2, 113423, Note_on_c, 0, 69, 0
2, 113428, Control_c, 0, 64, 127
2, 113430, Note_on_c, 0, 81, 113
2, 113487, Note_on_c, 0, 81, 0
2, 113515, Control_c, 0, 64, 0
2, 113520, Note_on_c, 0, 68, 113
2, 113542, Note_on_c, 0, 68, 0
2, 113544, Control_c, 0, 64, 127
2, 113550, Note_on_c, 0, 80, 102
2, 113602, Note_on_c, 0, 80, 0
2, 113640, Note_on_c, 0, 67, 107
2, 113641, Control_c, 0, 64, 0
2, 113659, Note_on_c, 0, 67, 0
2, 113670, Note_on_c, 0, 79, 107
2, 113673, Control_c, 0, 64, 127
2, 113715, Note_on_c, 0, 79, 0
2, 113760, Control_c, 0, 64, 0
2, 113760, Note_on_c, 0, 66, 107
2, 113778, Note_on_c, 0, 66, 0
2, 113789, Control_c, 0, 64, 127
2, 113790, Note_on_c, 0, 78, 107
2, 113835, Note_on_c, 0, 78, 0
2, 113875, Control_c, 0, 64, 0
2, 113878, Note_on_c, 0, 67, 85
2, 113880, Note_on_c, 0, 76, 107
2, 113906, Control_c, 0, 64, 127
2, 113913, Note_on_c, 0, 76, 0
2, 113917, Note_on_c, 0, 67, 0
2, 113920, Note_on_c, 0, 69, 80
2, 113920, Note_on_c, 0, 78, 89
2, 113949, Note_on_c, 0, 78, 0
2, 113956, Control_c, 0, 64, 0
2, 113960, Note_on_c, 0, 79, 93
2, 113960, Note_on_c, 0, 71, 93
2, 113963, Note_on_c, 0, 69, 0
2, 113999, Note_on_c, 0, 79, 0
2, 114000, Note_on_c, 0, 78, 89
2, 114000, Note_on_c, 0, 69, 93
2, 114001, Note_on_c, 0, 71, 0
2, 114031, Note_on_c, 0, 69, 0
2, 114040, Note_on_c, 0, 67, 85
2, 114040, Note_on_c, 0, 76, 93
2, 114041, Note_on_c, 0, 78, 0
2, 114079, Note_on_c, 0, 67, 0
2, 114080, Note_on_c, 0, 66, 107
2, 114080, Note_on_c, 0, 74, 93
2, 114081, Note_on_c, 0, 76, 0
2, 114109, Note_on_c, 0, 74, 0
2, 114114, Note_on_c, 0, 66, 0
2, 114120, Note_on_c, 0, 64, 85
2, 114120, Note_on_c, 0, 73, 93
2, 114155, Note_on_c, 0, 73, 0
2, 114160, Note_on_c, 0, 74, 85
2, 114160, Note_on_c, 0, 66, 85
2, 114169, Note_on_c, 0, 64, 0
2, 114184, Control_c, 0, 64, 127
2, 114196, Note_on_c, 0, 74, 0
2, 114198, Note_on_c, 0, 66, 0
2, 114200, Note_on_c, 0, 67, 76
2, 114200, Note_on_c, 0, 76, 85
2, 114229, Control_c, 0, 64, 0
2, 114234, Note_on_c, 0, 76, 0
2, 114239, Note_on_c, 0, 67, 0
2, 114240, Note_on_c, 0, 62, 93
2, 114240, Note_on_c, 0, 74, 107
2, 114274, Note_on_c, 0, 74, 0
2, 114280, Note_on_c, 0, 76, 93
2, 114280, Note_on_c, 0, 64, 85
2, 114286, Note_on_c, 0, 62, 0
2, 114311, Control_c, 0, 64, 127
2, 114317, Note_on_c, 0, 76, 0
2, 114320, Note_on_c, 0, 66, 76
2, 114320, Note_on_c, 0, 78, 98
2, 114326, Note_on_c, 0, 64, 0
2, 114335, Control_c, 0, 64, 0
2, 114351, Note_on_c, 0, 78, 0
2, 114360, Note_on_c, 0, 67, 98
2, 114360, Note_on_c, 0, 79, 107
2, 114362, Note_on_c, 0, 66, 0
2, 114371, Control_c, 0, 64, 127
2, 114400, Note_on_c, 0, 66, 76
2, 114400, Note_on_c, 0, 78, 80
2, 114403, Note_on_c, 0, 79, 0
2, 114407, Note_on_c, 0, 67, 0
2, 114430, Note_on_c, 0, 78, 0
2, 114440, Note_on_c, 0, 66, 0
2, 114440, Note_on_c, 0, 64, 89
2, 114440, Note_on_c, 0, 76, 93
2, 114448, Control_c, 0, 64, 0
2, 114473, Note_on_c, 0, 64, 0
2, 114474, Note_on_c, 0, 76, 0
2, 114480, Note_on_c, 0, 62, 89
2, 114480, Note_on_c, 0, 74, 113
2, 114490, Control_c, 0, 64, 127
2, 114514, Note_on_c, 0, 74, 0
2, 114520, Note_on_c, 0, 64, 80
2, 114520, Note_on_c, 0, 76, 98
2, 114525, Note_on_c, 0, 62, 0
2, 114547, Note_on_c, 0, 76, 0
2, 114560, Note_on_c, 0, 66, 85
2, 114560, Note_on_c, 0, 78, 107
2, 114563, Note_on_c, 0, 64, 0
2, 114564, Control_c, 0, 64, 0
2, 114590, Note_on_c, 0, 78, 0
2, 114600, Note_on_c, 0, 67, 102
2, 114600, Note_on_c, 0, 79, 107
2, 114601, Note_on_c, 0, 66, 0
2, 114613, Control_c, 0, 64, 127
2, 114634, Note_on_c, 0, 79, 0
2, 114640, Note_on_c, 0, 66, 85
2, 114640, Note_on_c, 0, 78, 107
2, 114646, Note_on_c, 0, 67, 0
2, 114672, Note_on_c, 0, 78, 0
2, 114680, Note_on_c, 0, 76, 98
2, 114680, Note_on_c, 0, 64, 93
2, 114684, Note_on_c, 0, 66, 0
2, 114702, Control_c, 0, 64, 0
2, 114708, Note_on_c, 0, 76, 0
2, 114710, Note_on_c, 0, 64, 0
2, 114720, Note_on_c, 0, 74, 113
2, 114720, Note_on_c, 0, 62, 93
2, 114733, Control_c, 0, 64, 127
2, 114750, Note_on_c, 0, 62, 0
2, 114755, Note_on_c, 0, 74, 0
2, 114840, Note_on_c, 0, 78, 102
2, 114840, Note_on_c, 0, 74, 113
2, 114840, Note_on_c, 0, 62, 98
2, 114840, Note_on_c, 0, 69, 102
2, 114840, Note_on_c, 0, 86, 113
2, 114840, Note_on_c, 0, 81, 107
2, 114840, Note_on_c, 0, 66, 89
2, 114843, Control_c, 0, 64, 0
2, 114875, Control_c, 0, 64, 127
2, 114900, Note_on_c, 0, 66, 0
2, 114906, Note_on_c, 0, 69, 0
2, 114907, Note_on_c, 0, 62, 0
2, 114907, Note_on_c, 0, 81, 0
2, 114909, Note_on_c, 0, 78, 0
2, 114909, Note_on_c, 0, 74, 0
2, 114910, Note_on_c, 0, 86, 0
2, 114960, Note_on_c, 0, 62, 102
2, 114960, Note_on_c, 0, 78, 107
2, 114960, Note_on_c, 0, 74, 119
2, 114960, Note_on_c, 0, 86, 119
2, 114960, Note_on_c, 0, 81, 113
2, 114960, Note_on_c, 0, 69, 98
2, 114960, Note_on_c, 0, 66, 89
2, 114967, Control_c, 0, 64, 0
2, 114995, Control_c, 0, 64, 127
2, 115076, Note_on_c, 0, 69, 0
2, 115078, Note_on_c, 0, 66, 0
2, 115079, Note_on_c, 0, 78, 0
2, 115079, Note_on_c, 0, 74, 0
2, 115079, Note_on_c, 0, 81, 0
2, 115082, Note_on_c, 0, 62, 0
2, 115083, Note_on_c, 0, 86, 0
2, 115102, Control_c, 0, 64, 0
2, 115200, Control_c, 0, 121, 0
2, 115200, End_track
3, 0, Start_track
3, 0, MIDI_port, 0
3, 0, Title_t, "Secondo"
3, 0, Program_c, 1, 0
3, 0, Control_c, 1, 10, 44
3, 15, Control_c, 1, 121, 0
3, 15, Control_c, 1, 7, 127
3, 15, Control_c, 1, 91, 75
3, 480, Note_on_c, 1, 50, 102
3, 480, Note_on_c, 1, 57, 113
3, 480, Note_on_c, 1, 54, 113
3, 480, Note_on_c, 1, 38, 98
3, 491, Control_c, 1, 64, 127
3, 611, Note_on_c, 1, 38, 0
3, 611, Note_on_c, 1, 50, 0
3, 612, Note_on_c, 1, 54, 0
3, 612, Note_on_c, 1, 57, 0
3, 618, Control_c, 1, 64, 0
3, 780, Note_on_c, 1, 54, 107
3, 780, Note_on_c, 1, 42, 107
3, 810, Note_on_c, 1, 54, 0
3, 810, Note_on_c, 1, 55, 85
3, 810, Note_on_c, 1, 43, 93
3, 815, Note_on_c, 1, 42, 0
3, 834, Note_on_c, 1, 55, 0
3, 840, Note_on_c, 1, 57, 93
3, 840, Note_on_c, 1, 45, 107
3, 841, Note_on_c, 1, 43, 0
3, 861, Note_on_c, 1, 57, 0
3, 865, Note_on_c, 1, 45, 0
3, 870, Note_on_c, 1, 55, 89
3, 870, Note_on_c, 1, 43, 72
3, 891, Note_on_c, 1, 55, 0
3, 899, Note_on_c, 1, 43, 0
3, 900, Note_on_c, 1, 42, 72
3, 900, Note_on_c, 1, 54, 98
3, 922, Note_on_c, 1, 54, 0
3, 930, Note_on_c, 1, 52, 93
3, 930, Note_on_c, 1, 40, 80
3, 931, Note_on_c, 1, 42, 0
3, 952, Note_on_c, 1, 52, 0
3, 955, Note_on_c, 1, 40, 0
3, 960, Note_on_c, 1, 50, 107
3, 960, Note_on_c, 1, 38, 98
3, 981, Note_on_c, 1, 38, 0
3, 981, Note_on_c, 1, 50, 0
3, 1020, Note_on_c, 1, 52, 102
3, 1020, Note_on_c, 1, 40, 98
3, 1037, Note_on_c, 1, 40, 0
3, 1039, Note_on_c, 1, 52, 0
3, 1080, Note_on_c, 1, 42, 98
3, 1080, Note_on_c, 1, 54, 113
3, 1097, Note_on_c, 1, 54, 0
3, 1098, Note_on_c, 1, 42, 0
3, 1140, Note_on_c, 1, 55, 113
3, 1140, Note_on_c, 1, 43, 89
3, 1157, Note_on_c, 1, 43, 0
3, 1158, Note_on_c, 1, 55, 0
3, 1200, Note_on_c, 1, 57, 107
3, 1200, Note_on_c, 1, 45, 93
3, 1219, Note_on_c, 1, 57, 0
3, 1220, Note_on_c, 1, 45, 0
3, 1260, Note_on_c, 1, 59, 107
3, 1260, Note_on_c, 1, 47, 89
3, 1277, Note_on_c, 1, 47, 0
3, 1278, Note_on_c, 1, 59, 0
3, 1320, Note_on_c, 1, 49, 89
3, 1320, Note_on_c, 1, 61, 107
3, 1337, Note_on_c, 1, 61, 0
3, 1340, Note_on_c, 1, 49, 0
3, 1380, Note_on_c, 1, 62, 102
3, 1380, Note_on_c, 1, 50, 107
3, 1394, Note_on_c, 1, 50, 0
3, 1396, Note_on_c, 1, 62, 0
3, 1440, Note_on_c, 1, 55, 89
3, 1440, Note_on_c, 1, 43, 76
3, 1472, Control_c, 1, 64, 127
3, 1496, Note_on_c, 1, 55, 0
3, 1499, Note_on_c, 1, 43, 0
3, 1500, Note_on_c, 1, 52, 68
3, 1500, Note_on_c, 1, 40, 72
3, 1521, Control_c, 1, 64, 0
3, 1547, Control_c, 1, 64, 127
3, 1559, Note_on_c, 1, 40, 0
3, 1559, Note_on_c, 1, 52, 0
3, 1560, Note_on_c, 1, 49, 68
3, 1560, Note_on_c, 1, 37, 72
3, 1573, Control_c, 1, 64, 0
3, 1597, Control_c, 1, 64, 127
3, 1616, Note_on_c, 1, 37, 0
3, 1617, Note_on_c, 1, 49, 0
3, 1620, Note_on_c, 1, 33, 68
3, 1620, Note_on_c, 1, 45, 76
3, 1627, Control_c, 1, 64, 0
3, 1647, Control_c, 1, 64, 127
3, 1669, Note_on_c, 1, 45, 0
3, 1677, Note_on_c, 1, 33, 0
3, 1680, Note_on_c, 1, 43, 72
3, 1680, Note_on_c, 1, 55, 76
3, 1688, Control_c, 1, 64, 0
3, 1711, Control_c, 1, 64, 127
3, 1733, Note_on_c, 1, 55, 0
3, 1740, Note_on_c, 1, 43, 0
3, 1740, Note_on_c, 1, 40, 72
3, 1740, Note_on_c, 1, 52, 76
3, 1753, Control_c, 1, 64, 0
3, 1779, Control_c, 1, 64, 127
3, 1794, Note_on_c, 1, 52, 0
3, 1796, Note_on_c, 1, 40, 0
3, 1800, Note_on_c, 1, 37, 62
3, 1800, Note_on_c, 1, 49, 59
3, 1815, Control_c, 1, 64, 0
3, 1851, Note_on_c, 1, 49, 0
3, 1852, Control_c, 1, 64, 127
3, 1860, Note_on_c, 1, 45, 76
3, 1860, Note_on_c, 1, 33, 80
3, 1866, Note_on_c, 1, 37, 0
3, 1877, Note_on_c, 1, 33, 0
3, 1877, Note_on_c, 1, 45, 0
3, 1920, Note_on_c, 1, 50, 119
3, 1920, Note_on_c, 1, 38, 98
3, 1921, Control_c, 1, 64, 0
3, 1935, Note_on_c, 1, 50, 0
3, 1940, Note_on_c, 1, 38, 0
3, 1980, Note_on_c, 1, 40, 89
3, 1980, Note_on_c, 1, 52, 107
3, 1994, Note_on_c, 1, 40, 0
3, 1997, Note_on_c, 1, 52, 0
3, 2040, Note_on_c, 1, 54, 113
3, 2040, Note_on_c, 1, 42, 80
3, 2056, Note_on_c, 1, 54, 0
3, 2058, Note_on_c, 1, 42, 0
3, 2100, Note_on_c, 1, 55, 107
3, 2100, Note_on_c, 1, 43, 93
3, 2120, Note_on_c, 1, 43, 0
3, 2120, Note_on_c, 1, 55, 0
3, 2160, Note_on_c, 1, 57, 107
3, 2160, Note_on_c, 1, 45, 98
3, 2180, Note_on_c, 1, 45, 0
3, 2182, Note_on_c, 1, 57, 0
3, 2220, Note_on_c, 1, 59, 107
3, 2220, Note_on_c, 1, 47, 93
3, 2237, Note_on_c, 1, 47, 0
3, 2239, Note_on_c, 1, 59, 0
3, 2280, Note_on_c, 1, 61, 107
3, 2280, Note_on_c, 1, 49, 89
3, 2299, Note_on_c, 1, 49, 0
3, 2299, Note_on_c, 1, 61, 0
3, 2340, Note_on_c, 1, 62, 107
3, 2340, Note_on_c, 1, 50, 102
3, 2354, Note_on_c, 1, 50, 0
3, 2355, Note_on_c, 1, 62, 0
3, 2400, Note_on_c, 1, 55, 89
3, 2400, Note_on_c, 1, 43, 64
3, 2429, Control_c, 1, 64, 127
3, 2455, Note_on_c, 1, 55, 0
3, 2459, Note_on_c, 1, 43, 0
3, 2460, Note_on_c, 1, 52, 62
3, 2460, Note_on_c, 1, 40, 72
3, 2480, Control_c, 1, 64, 0
3, 2500, Control_c, 1, 64, 127
3, 2519, Note_on_c, 1, 40, 0
3, 2519, Note_on_c, 1, 52, 0
3, 2520, Note_on_c, 1, 49, 62
3, 2520, Note_on_c, 1, 37, 62
3, 2533, Control_c, 1, 64, 0
3, 2556, Control_c, 1, 64, 127
3, 2575, Note_on_c, 1, 37, 0
3, 2580, Note_on_c, 1, 49, 0
3, 2580, Note_on_c, 1, 33, 72
3, 2580, Note_on_c, 1, 45, 80
3, 2591, Control_c, 1, 64, 0
3, 2610, Control_c, 1, 64, 127
3, 2632, Note_on_c, 1, 45, 0
3, 2634, Note_on_c, 1, 33, 0
3, 2640, Note_on_c, 1, 43, 72
3, 2640, Note_on_c, 1, 55, 76
3, 2648, Control_c, 1, 64, 0
3, 2668, Control_c, 1, 64, 127
3, 2685, Note_on_c, 1, 55, 0
3, 2695, Note_on_c, 1, 43, 0
3, 2700, Note_on_c, 1, 40, 76
3, 2700, Note_on_c, 1, 52, 80
3, 2708, Control_c, 1, 64, 0
3, 2730, Control_c, 1, 64, 127
3, 2752, Note_on_c, 1, 52, 0
3, 2757, Note_on_c, 1, 40, 0
3, 2760, Note_on_c, 1, 49, 72
3, 2760, Note_on_c, 1, 37, 72
3, 2764, Control_c, 1, 64, 0
3, 2784, Control_c, 1, 64, 127
3, 2814, Note_on_c, 1, 37, 0
3, 2814, Note_on_c, 1, 49, 0
3, 2820, Note_on_c, 1, 33, 76
3, 2820, Note_on_c, 1, 45, 89
3, 2843, Note_on_c, 1, 45, 0
3, 2849, Note_on_c, 1, 33, 0
3, 2862, Control_c, 1, 64, 0
3, 2880, Note_on_c, 1, 38, 89
3, 2880, Note_on_c, 1, 50, 93
3, 2881, Control_c, 1, 64, 127
3, 2898, Note_on_c, 1, 50, 0
3, 2904, Note_on_c, 1, 38, 0
3, 2940, Note_on_c, 1, 62, 80
3, 2967, Note_on_c, 1, 62, 0
3, 3000, Note_on_c, 1, 62, 89
3, 3003, Control_c, 1, 64, 0
3, 3018, Control_c, 1, 64, 127
3, 3047, Note_on_c, 1, 62, 0
3, 3060, Note_on_c, 1, 62, 93
3, 3097, Note_on_c, 1, 62, 0
3, 3120, Note_on_c, 1, 62, 98
3, 3163, Note_on_c, 1, 62, 0
3, 3180, Note_on_c, 1, 62, 98
3, 3210, Note_on_c, 1, 62, 0
3, 3240, Note_on_c, 1, 62, 85
3, 3267, Note_on_c, 1, 62, 0
3, 3300, Note_on_c, 1, 62, 76
3, 3334, Note_on_c, 1, 62, 0
3, 3360, Note_on_c, 1, 62, 85
3, 3392, Note_on_c, 1, 62, 0
3, 3420, Note_on_c, 1, 62, 89
3, 3447, Note_on_c, 1, 62, 0
3, 3480, Note_on_c, 1, 62, 98
3, 3513, Note_on_c, 1, 62, 0
3, 3540, Note_on_c, 1, 62, 107
3, 3566, Note_on_c, 1, 62, 0
3, 3600, Note_on_c, 1, 62, 107
3, 3624, Note_on_c, 1, 62, 0
3, 3660, Note_on_c, 1, 62, 107
3, 3683, Note_on_c, 1, 62, 0
3, 3720, Note_on_c, 1, 62, 119
3, 3740, Note_on_c, 1, 62, 0
3, 3780, Note_on_c, 1, 62, 107
3, 3803, Note_on_c, 1, 62, 0
3, 3839, Control_c, 1, 64, 0
3, 3840, Note_on_c, 1, 66, 107
3, 3840, Note_on_c, 1, 62, 113
3, 3840, Note_on_c, 1, 38, 76
3, 3840, Note_on_c, 1, 50, 80
3, 3861, Control_c, 1, 64, 127
3, 3880, Note_on_c, 1, 50, 0
3, 3882, Note_on_c, 1, 38, 0
3, 3900, Note_on_c, 1, 50, 76
3, 3923, Note_on_c, 1, 50, 0
3, 3923, Note_on_c, 1, 66, 0
3, 3929, Note_on_c, 1, 62, 0
3, 3960, Note_on_c, 1, 50, 89
3, 3979, Note_on_c, 1, 50, 0
3, 4020, Note_on_c, 1, 67, 93
3, 4020, Note_on_c, 1, 64, 98
3, 4020, Note_on_c, 1, 50, 89
3, 4037, Note_on_c, 1, 64, 0
3, 4038, Note_on_c, 1, 67, 0
3, 4040, Note_on_c, 1, 50, 0
3, 4050, Note_on_c, 1, 66, 76
3, 4050, Note_on_c, 1, 62, 80
3, 4063, Note_on_c, 1, 62, 0
3, 4070, Note_on_c, 1, 66, 0
3, 4071, Control_c, 1, 64, 0
3, 4080, Note_on_c, 1, 50, 93
3, 4080, Note_on_c, 1, 64, 93
3, 4080, Note_on_c, 1, 61, 102
3, 4089, Control_c, 1, 64, 127
3, 4091, Note_on_c, 1, 61, 0
3, 4095, Note_on_c, 1, 64, 0
3, 4101, Note_on_c, 1, 50, 0
3, 4115, Control_c, 1, 64, 0
3, 4138, Control_c, 1, 64, 127
3, 4140, Note_on_c, 1, 66, 102
3, 4140, Note_on_c, 1, 62, 102
3, 4140, Note_on_c, 1, 50, 76
3, 4153, Control_c, 1, 64, 0
3, 4154, Note_on_c, 1, 62, 0
3, 4157, Note_on_c, 1, 66, 0
3, 4159, Note_on_c, 1, 50, 0
3, 4195, Control_c, 1, 64, 127
3, 4200, Note_on_c, 1, 64, 107
3, 4200, Note_on_c, 1, 67, 93
3, 4200, Note_on_c, 1, 50, 85
3, 4213, Note_on_c, 1, 67, 0
3, 4214, Note_on_c, 1, 64, 0
3, 4218, Note_on_c, 1, 50, 0
3, 4227, Control_c, 1, 64, 0
3, 4253, Control_c, 1, 64, 127
3, 4260, Note_on_c, 1, 50, 85
3, 4260, Note_on_c, 1, 66, 102
3, 4260, Note_on_c, 1, 69, 107
3, 4273, Note_on_c, 1, 69, 0
3, 4274, Note_on_c, 1, 66, 0
3, 4279, Note_on_c, 1, 50, 0
3, 4297, Control_c, 1, 64, 0
3, 4320, Note_on_c, 1, 38, 85
3, 4320, Note_on_c, 1, 50, 85
3, 4320, Note_on_c, 1, 67, 107
3, 4320, Note_on_c, 1, 71, 102
3, 4324, Control_c, 1, 64, 127
3, 4340, Note_on_c, 1, 67, 0
3, 4346, Note_on_c, 1, 71, 0
3, 4350, Note_on_c, 1, 38, 0
3, 4358, Note_on_c, 1, 50, 0
3, 4380, Note_on_c, 1, 50, 76
3, 4380, Note_on_c, 1, 66, 76
3, 4380, Note_on_c, 1, 69, 89
3, 4381, Control_c, 1, 64, 0
3, 4399, Control_c, 1, 64, 127
3, 4403, Note_on_c, 1, 66, 0
3, 4408, Note_on_c, 1, 69, 0
3, 4412, Note_on_c, 1, 50, 0
3, 4434, Control_c, 1, 64, 0
3, 4440, Note_on_c, 1, 67, 98
3, 4440, Note_on_c, 1, 64, 89
3, 4440, Note_on_c, 1, 50, 85
3, 4452, Note_on_c, 1, 67, 0
3, 4453, Note_on_c, 1, 64, 0
3, 4455, Note_on_c, 1, 50, 0
3, 4486, Control_c, 1, 64, 127
3, 4500, Note_on_c, 1, 50, 80
3, 4500, Note_on_c, 1, 66, 85
3, 4500, Note_on_c, 1, 62, 93
3, 4513, Note_on_c, 1, 62, 0
3, 4513, Note_on_c, 1, 66, 0
3, 4517, Note_on_c, 1, 50, 0
3, 4539, Control_c, 1, 64, 0
3, 4560, Note_on_c, 1, 71, 98
3, 4560, Note_on_c, 1, 67, 113
3, 4560, Note_on_c, 1, 50, 93
3, 4566, Control_c, 1, 64, 127
3, 4585, Note_on_c, 1, 50, 0
3, 4588, Note_on_c, 1, 67, 0
3, 4589, Note_on_c, 1, 71, 0
3, 4620, Note_on_c, 1, 50, 76
3, 4620, Note_on_c, 1, 66, 72
3, 4620, Note_on_c, 1, 69, 85
3, 4636, Note_on_c, 1, 66, 0
3, 4637, Note_on_c, 1, 69, 0
3, 4639, Note_on_c, 1, 50, 0
3, 4677, Control_c, 1, 64, 0
3, 4680, Note_on_c, 1, 50, 89
3, 4680, Note_on_c, 1, 67, 89
3, 4680, Note_on_c, 1, 64, 93
3, 4695, Note_on_c, 1, 64, 0
3, 4696, Note_on_c, 1, 67, 0
3, 4700, Note_on_c, 1, 50, 0
3, 4732, Control_c, 1, 64, 127
3, 4740, Note_on_c, 1, 66, 89
3, 4740, Note_on_c, 1, 62, 93
3, 4740, Note_on_c, 1, 50, 93
3, 4754, Note_on_c, 1, 66, 0
3, 4755, Note_on_c, 1, 62, 0
3, 4756, Note_on_c, 1, 50, 0
3, 4762, Control_c, 1, 64, 0
3, 4800, Note_on_c, 1, 62, 107
3, 4800, Note_on_c, 1, 50, 107
3, 4812, Control_c, 1, 64, 127
3, 4833, Note_on_c, 1, 50, 0
3, 4843, Note_on_c, 1, 62, 0
3, 4890, Note_on_c, 1, 50, 93
3, 4890, Note_on_c, 1, 62, 107
3, 4907, Note_on_c, 1, 50, 0
3, 4909, Note_on_c, 1, 62, 0
3, 4916, Control_c, 1, 64, 0
3, 4920, Note_on_c, 1, 49, 107
3, 4920, Note_on_c, 1, 61, 113
3, 4946, Control_c, 1, 64, 127
3, 4964, Note_on_c, 1, 49, 0
3, 4967, Note_on_c, 1, 61, 0
3, 5010, Note_on_c, 1, 61, 102
3, 5010, Note_on_c, 1, 49, 89
3, 5030, Note_on_c, 1, 49, 0
3, 5031, Note_on_c, 1, 61, 0
3, 5035, Control_c, 1, 64, 0
3, 5040, Note_on_c, 1, 59, 107
3, 5040, Note_on_c, 1, 47, 98
3, 5068, Control_c, 1, 64, 127
3, 5083, Note_on_c, 1, 47, 0
3, 5088, Note_on_c, 1, 59, 0
3, 5130, Note_on_c, 1, 47, 89
3, 5130, Note_on_c, 1, 59, 102
3, 5149, Note_on_c, 1, 59, 0
3, 5150, Note_on_c, 1, 47, 0
3, 5160, Note_on_c, 1, 46, 89
3, 5160, Note_on_c, 1, 58, 113
3, 5168, Control_c, 1, 64, 0
3, 5197, Control_c, 1, 64, 127
3, 5202, Note_on_c, 1, 58, 0
3, 5202, Note_on_c, 1, 46, 0
3, 5250, Note_on_c, 1, 58, 107
3, 5250, Note_on_c, 1, 46, 93
3, 5268, Note_on_c, 1, 46, 0
3, 5268, Note_on_c, 1, 58, 0
3, 5280, Note_on_c, 1, 47, 102
3, 5280, Note_on_c, 1, 59, 107
3, 5286, Control_c, 1, 64, 0
3, 5316, Control_c, 1, 64, 127
3, 5320, Note_on_c, 1, 59, 0
3, 5322, Note_on_c, 1, 47, 0
3, 5370, Note_on_c, 1, 59, 89
3, 5370, Note_on_c, 1, 47, 93
3, 5390, Note_on_c, 1, 59, 0
3, 5391, Note_on_c, 1, 47, 0
3, 5400, Note_on_c, 1, 45, 107
3, 5400, Note_on_c, 1, 57, 102
3, 5413, Control_c, 1, 64, 0
3, 5440, Control_c, 1, 64, 127
3, 5443, Note_on_c, 1, 57, 0
3, 5443, Note_on_c, 1, 45, 0
3, 5490, Note_on_c, 1, 57, 93
3, 5490, Note_on_c, 1, 45, 89
3, 5508, Note_on_c, 1, 57, 0
3, 5510, Note_on_c, 1, 45, 0
3, 5520, Note_on_c, 1, 55, 102
3, 5520, Note_on_c, 1, 43, 89
3, 5530, Control_c, 1, 64, 0
3, 5557, Control_c, 1, 64, 127
3, 5563, Note_on_c, 1, 43, 0
3, 5563, Note_on_c, 1, 55, 0
3, 5610, Note_on_c, 1, 55, 89
3, 5610, Note_on_c, 1, 43, 72
3, 5626, Note_on_c, 1, 43, 0
3, 5627, Note_on_c, 1, 55, 0
3, 5640, Note_on_c, 1, 54, 113
3, 5640, Note_on_c, 1, 42, 98
3, 5648, Control_c, 1, 64, 0
3, 5676, Control_c, 1, 64, 127
3, 5681, Note_on_c, 1, 42, 0
3, 5684, Note_on_c, 1, 54, 0
3, 5730, Note_on_c, 1, 54, 102
3, 5730, Note_on_c, 1, 42, 102
3, 5748, Note_on_c, 1, 42, 0
3, 5749, Note_on_c, 1, 54, 0
3, 5759, Control_c, 1, 64, 0
3, 5760, Note_on_c, 1, 55, 102
3, 5760, Note_on_c, 1, 43, 98
3, 5783, Note_on_c, 1, 43, 0
3, 5786, Control_c, 1, 64, 127
3, 5794, Note_on_c, 1, 55, 0
3, 5850, Note_on_c, 1, 55, 93
3, 5850, Note_on_c, 1, 43, 93
3, 5868, Note_on_c, 1, 43, 0
3, 5869, Note_on_c, 1, 55, 0
3, 5877, Control_c, 1, 64, 0
3, 5880, Note_on_c, 1, 54, 113
3, 5880, Note_on_c, 1, 42, 102
3, 5905, Control_c, 1, 64, 127
3, 5917, Note_on_c, 1, 42, 0
3, 5923, Note_on_c, 1, 54, 0
3, 5970, Note_on_c, 1, 54, 107
3, 5970, Note_on_c, 1, 42, 93
3, 5989, Note_on_c, 1, 42, 0
3, 5989, Control_c, 1, 64, 0
3, 5990, Note_on_c, 1, 54, 0
3, 6000, Note_on_c, 1, 52, 98
3, 6000, Note_on_c, 1, 40, 93
3, 6022, Control_c, 1, 64, 127
3, 6045, Note_on_c, 1, 40, 0
3, 6055, Note_on_c, 1, 52, 0
3, 6090, Note_on_c, 1, 52, 102
3, 6090, Note_on_c, 1, 40, 93
3, 6105, Note_on_c, 1, 40, 0
3, 6108, Note_on_c, 1, 52, 0
3, 6112, Control_c, 1, 64, 0
3, 6120, Note_on_c, 1, 50, 107
3, 6120, Note_on_c, 1, 38, 98
3, 6142, Control_c, 1, 64, 127
3, 6145, Note_on_c, 1, 38, 0
3, 6159, Note_on_c, 1, 50, 0
3, 6210, Note_on_c, 1, 38, 89
3, 6210, Note_on_c, 1, 50, 93
3, 6225, Control_c, 1, 64, 0
3, 6229, Note_on_c, 1, 50, 0
3, 6230, Note_on_c, 1, 38, 0
3, 6240, Note_on_c, 1, 57, 107
3, 6240, Note_on_c, 1, 45, 113
3, 6254, Control_c, 1, 64, 127
3, 6264, Note_on_c, 1, 57, 0
3, 6268, Note_on_c, 1, 45, 0
3, 6342, Control_c, 1, 64, 0
3, 6360, Note_on_c, 1, 45, 107
3, 6360, Note_on_c, 1, 49, 113
3, 6360, Note_on_c, 1, 52, 107
3, 6360, Note_on_c, 1, 33, 102
3, 6370, Control_c, 1, 64, 127
3, 6398, Note_on_c, 1, 52, 0
3, 6403, Note_on_c, 1, 45, 0
3, 6406, Note_on_c, 1, 49, 0
3, 6407, Note_on_c, 1, 33, 0
3, 6468, Control_c, 1, 64, 0
3, 6480, Note_on_c, 1, 49, 113
3, 6480, Note_on_c, 1, 45, 107
3, 6480, Note_on_c, 1, 52, 113
3, 6480, Note_on_c, 1, 33, 98
3, 6494, Control_c, 1, 64, 127
3, 6496, Note_on_c, 1, 45, 0
3, 6498, Note_on_c, 1, 52, 0
3, 6499, Note_on_c, 1, 33, 0
3, 6502, Note_on_c, 1, 49, 0
3, 6612, Control_c, 1, 64, 0
3, 6720, Note_on_c, 1, 61, 56
3, 6720, Note_on_c, 1, 45, 64
3, 6720, Note_on_c, 1, 57, 72
3, 6726, Control_c, 1, 64, 127
3, 6752, Note_on_c, 1, 61, 0
3, 6754, Note_on_c, 1, 57, 0
3, 6780, Note_on_c, 1, 57, 62
3, 6780, Note_on_c, 1, 61, 55
3, 6801, Note_on_c, 1, 61, 0
3, 6802, Note_on_c, 1, 57, 0
3, 6831, Note_on_c, 1, 45, 0
3, 6840, Note_on_c, 1, 57, 62
3, 6840, Note_on_c, 1, 61, 55
3, 6849, Control_c, 1, 64, 0
3, 6868, Note_on_c, 1, 61, 0
3, 6868, Control_c, 1, 64, 127
3, 6870, Note_on_c, 1, 57, 0
3, 6900, Note_on_c, 1, 61, 52
3, 6900, Note_on_c, 1, 57, 57
3, 6928, Note_on_c, 1, 61, 0
3, 6929, Note_on_c, 1, 57, 0
3, 6960, Note_on_c, 1, 61, 59
3, 6960, Note_on_c, 1, 57, 62
3, 6995, Note_on_c, 1, 57, 0
3, 6995, Note_on_c, 1, 61, 0
3, 7020, Note_on_c, 1, 57, 60
3, 7020, Note_on_c, 1, 61, 62
3, 7052, Note_on_c, 1, 57, 0
3, 7053, Note_on_c, 1, 61, 0
3, 7080, Note_on_c, 1, 57, 76
3, 7080, Note_on_c, 1, 61, 62
3, 7104, Note_on_c, 1, 61, 0
3, 7107, Note_on_c, 1, 57, 0
3, 7140, Note_on_c, 1, 61, 62
3, 7140, Note_on_c, 1, 57, 76
3, 7162, Note_on_c, 1, 57, 0
3, 7163, Note_on_c, 1, 61, 0
3, 7200, Note_on_c, 1, 40, 68
3, 7200, Note_on_c, 1, 59, 76
3, 7200, Note_on_c, 1, 56, 55
3, 7210, Control_c, 1, 64, 0
3, 7232, Control_c, 1, 64, 127
3, 7235, Note_on_c, 1, 56, 0
3, 7240, Note_on_c, 1, 59, 0
3, 7260, Note_on_c, 1, 59, 80
3, 7260, Note_on_c, 1, 56, 36
3, 7270, Note_on_c, 1, 40, 0
3, 7281, Note_on_c, 1, 56, 0
3, 7281, Note_on_c, 1, 59, 0
3, 7320, Note_on_c, 1, 56, 51
3, 7320, Note_on_c, 1, 62, 76
3, 7327, Control_c, 1, 64, 0
3, 7347, Control_c, 1, 64, 127
3, 7357, Note_on_c, 1, 56, 0
3, 7360, Note_on_c, 1, 62, 0
3, 7380, Note_on_c, 1, 56, 49
3, 7380, Note_on_c, 1, 62, 68
3, 7400, Note_on_c, 1, 56, 0
3, 7404, Note_on_c, 1, 62, 0
3, 7440, Note_on_c, 1, 56, 53
3, 7440, Note_on_c, 1, 59, 76
3, 7449, Control_c, 1, 64, 0
3, 7467, Control_c, 1, 64, 127
3, 7476, Note_on_c, 1, 59, 0
3, 7477, Note_on_c, 1, 56, 0
3, 7500, Note_on_c, 1, 59, 72
3, 7500, Note_on_c, 1, 56, 53
3, 7521, Note_on_c, 1, 56, 0
3, 7524, Note_on_c, 1, 59, 0
3, 7560, Note_on_c, 1, 56, 59
3, 7560, Note_on_c, 1, 62, 76
3, 7565, Control_c, 1, 64, 0
3, 7584, Control_c, 1, 64, 127
3, 7590, Note_on_c, 1, 56, 0
3, 7594, Note_on_c, 1, 62, 0
3, 7620, Note_on_c, 1, 56, 57
3, 7620, Note_on_c, 1, 62, 76
3, 7638, Note_on_c, 1, 62, 0
3, 7638, Note_on_c, 1, 56, 0
3, 7680, Note_on_c, 1, 61, 60
3, 7680, Note_on_c, 1, 57, 68
3, 7680, Note_on_c, 1, 45, 62
3, 7684, Control_c, 1, 64, 0
3, 7707, Control_c, 1, 64, 127
3, 7719, Note_on_c, 1, 57, 0
3, 7720, Note_on_c, 1, 61, 0
3, 7740, Note_on_c, 1, 57, 62
3, 7740, Note_on_c, 1, 61, 60
3, 7750, Note_on_c, 1, 45, 0
3, 7760, Note_on_c, 1, 57, 0
3, 7763, Note_on_c, 1, 61, 0
3, 7800, Note_on_c, 1, 57, 57
3, 7800, Note_on_c, 1, 61, 47
3, 7812, Control_c, 1, 64, 0
3, 7831, Control_c, 1, 64, 127
3, 7832, Note_on_c, 1, 57, 0
3, 7836, Note_on_c, 1, 61, 0
3, 7860, Note_on_c, 1, 61, 53
3, 7860, Note_on_c, 1, 57, 62
3, 7890, Note_on_c, 1, 57, 0
3, 7895, Note_on_c, 1, 61, 0
3, 7920, Note_on_c, 1, 61, 64
3, 7920, Note_on_c, 1, 57, 72
3, 7930, Control_c, 1, 64, 0
3, 7947, Control_c, 1, 64, 127
3, 7956, Note_on_c, 1, 57, 0
3, 7959, Note_on_c, 1, 61, 0
3, 7980, Note_on_c, 1, 57, 72
3, 7980, Note_on_c, 1, 61, 56
3, 8004, Note_on_c, 1, 61, 0
3, 8006, Note_on_c, 1, 57, 0
3, 8040, Note_on_c, 1, 61, 60
3, 8040, Note_on_c, 1, 57, 72
3, 8065, Note_on_c, 1, 57, 0
3, 8066, Note_on_c, 1, 61, 0
3, 8100, Note_on_c, 1, 57, 76
3, 8100, Note_on_c, 1, 61, 60
3, 8119, Note_on_c, 1, 61, 0
3, 8122, Note_on_c, 1, 57, 0
3, 8160, Note_on_c, 1, 40, 64
3, 8160, Note_on_c, 1, 59, 80
3, 8160, Note_on_c, 1, 56, 56
3, 8162, Control_c, 1, 64, 0
3, 8184, Control_c, 1, 64, 127
3, 8194, Note_on_c, 1, 56, 0
3, 8194, Note_on_c, 1, 59, 0
3, 8215, Note_on_c, 1, 40, 0
3, 8220, Note_on_c, 1, 59, 72
3, 8220, Note_on_c, 1, 56, 45
3, 8239, Note_on_c, 1, 59, 0
3, 8241, Note_on_c, 1, 56, 0
3, 8280, Note_on_c, 1, 56, 56
3, 8280, Note_on_c, 1, 62, 76
3, 8288, Control_c, 1, 64, 0
3, 8306, Control_c, 1, 64, 127
3, 8315, Note_on_c, 1, 56, 0
3, 8318, Note_on_c, 1, 62, 0
3, 8340, Note_on_c, 1, 56, 51
3, 8340, Note_on_c, 1, 62, 51
3, 8360, Note_on_c, 1, 62, 0
3, 8360, Note_on_c, 1, 56, 0
3, 8400, Note_on_c, 1, 59, 60
3, 8400, Note_on_c, 1, 56, 44
3, 8407, Control_c, 1, 64, 0
3, 8425, Control_c, 1, 64, 127
3, 8430, Note_on_c, 1, 59, 0
3, 8431, Note_on_c, 1, 56, 0
3, 8460, Note_on_c, 1, 56, 53
3, 8460, Note_on_c, 1, 59, 64
3, 8481, Note_on_c, 1, 56, 0
3, 8482, Note_on_c, 1, 59, 0
3, 8520, Note_on_c, 1, 62, 80
3, 8520, Note_on_c, 1, 56, 60
3, 8523, Control_c, 1, 64, 0
3, 8541, Note_on_c, 1, 56, 0
3, 8542, Control_c, 1, 64, 127
3, 8543, Note_on_c, 1, 62, 0
3, 8580, Note_on_c, 1, 62, 68
3, 8580, Note_on_c, 1, 56, 62
3, 8591, Note_on_c, 1, 62, 0
3, 8597, Note_on_c, 1, 56, 0
3, 8640, Note_on_c, 1, 45, 89
3, 8640, Note_on_c, 1, 52, 85
3, 8643, Control_c, 1, 64, 0
3, 8663, Note_on_c, 1, 52, 0
3, 8666, Control_c, 1, 64, 127
3, 8670, Note_on_c, 1, 57, 89
3, 8691, Note_on_c, 1, 57, 0
3, 8700, Note_on_c, 1, 49, 80
3, 8718, Note_on_c, 1, 49, 0
3, 8730, Note_on_c, 1, 57, 85
3, 8735, Note_on_c, 1, 45, 0
3, 8747, Note_on_c, 1, 57, 0
3, 8760, Note_on_c, 1, 45, 93
3, 8760, Note_on_c, 1, 52, 98
3, 8770, Control_c, 1, 64, 0
3, 8778, Note_on_c, 1, 52, 0
3, 8790, Note_on_c, 1, 57, 72
3, 8791, Control_c, 1, 64, 127
3, 8811, Note_on_c, 1, 57, 0
3, 8820, Note_on_c, 1, 49, 89
3, 8834, Note_on_c, 1, 49, 0
3, 8850, Note_on_c, 1, 57, 76
3, 8854, Note_on_c, 1, 45, 0
3, 8867, Note_on_c, 1, 57, 0
3, 8880, Note_on_c, 1, 45, 89
3, 8880, Note_on_c, 1, 52, 85
3, 8882, Control_c, 1, 64, 0
3, 8900, Note_on_c, 1, 52, 0
3, 8901, Control_c, 1, 64, 127
3, 8910, Note_on_c, 1, 57, 76
3, 8929, Note_on_c, 1, 57, 0
3, 8940, Note_on_c, 1, 49, 59
3, 8960, Note_on_c, 1, 49, 0
3, 8970, Note_on_c, 1, 57, 89
3, 8972, Note_on_c, 1, 45, 0
3, 8988, Note_on_c, 1, 57, 0
3, 9000, Note_on_c, 1, 45, 89
3, 9000, Note_on_c, 1, 52, 89
3, 9005, Control_c, 1, 64, 0
3, 9019, Note_on_c, 1, 52, 0
3, 9024, Control_c, 1, 64, 127
3, 9030, Note_on_c, 1, 57, 80
3, 9050, Note_on_c, 1, 57, 0
3, 9060, Note_on_c, 1, 49, 85
3, 9080, Note_on_c, 1, 49, 0
3, 9084, Note_on_c, 1, 45, 0
3, 9090, Note_on_c, 1, 57, 89
3, 9105, Note_on_c, 1, 57, 0
3, 9120, Note_on_c, 1, 54, 76
3, 9120, Note_on_c, 1, 38, 93
3, 9121, Control_c, 1, 64, 0
3, 9144, Control_c, 1, 64, 127
3, 9145, Note_on_c, 1, 54, 0
3, 9150, Note_on_c, 1, 57, 89
3, 9170, Note_on_c, 1, 57, 0
3, 9180, Note_on_c, 1, 50, 60
3, 9202, Note_on_c, 1, 38, 0
3, 9203, Note_on_c, 1, 50, 0
3, 9210, Note_on_c, 1, 57, 89
3, 9229, Note_on_c, 1, 57, 0
3, 9239, Control_c, 1, 64, 0
3, 9240, Note_on_c, 1, 54, 72
3, 9240, Note_on_c, 1, 38, 93
3, 9260, Control_c, 1, 64, 127
3, 9262, Note_on_c, 1, 54, 0
3, 9270, Note_on_c, 1, 57, 62
3, 9295, Note_on_c, 1, 57, 0
3, 9300, Note_on_c, 1, 50, 85
3, 9320, Note_on_c, 1, 50, 0
3, 9330, Note_on_c, 1, 38, 0
3, 9330, Note_on_c, 1, 57, 85
3, 9347, Note_on_c, 1, 57, 0
3, 9356, Control_c, 1, 64, 0
3, 9360, Note_on_c, 1, 54, 76
3, 9360, Note_on_c, 1, 38, 89
3, 9376, Control_c, 1, 64, 127
3, 9381, Note_on_c, 1, 54, 0
3, 9390, Note_on_c, 1, 57, 76
3, 9406, Note_on_c, 1, 57, 0
3, 9420, Note_on_c, 1, 50, 89
3, 9437, Note_on_c, 1, 38, 0
3, 9438, Note_on_c, 1, 50, 0
3, 9450, Note_on_c, 1, 57, 80
3, 9467, Note_on_c, 1, 57, 0
3, 9472, Control_c, 1, 64, 0
3, 9480, Note_on_c, 1, 54, 93
3, 9480, Note_on_c, 1, 38, 89
3, 9493, Control_c, 1, 64, 127
3, 9500, Note_on_c, 1, 54, 0
3, 9510, Note_on_c, 1, 57, 80
3, 9527, Note_on_c, 1, 57, 0
3, 9540, Note_on_c, 1, 50, 85
3, 9556, Note_on_c, 1, 50, 0
3, 9570, Note_on_c, 1, 57, 64
3, 9582, Note_on_c, 1, 38, 0
3, 9591, Note_on_c, 1, 57, 0
3, 9600, Note_on_c, 1, 52, 80
3, 9600, Note_on_c, 1, 40, 80
3, 9611, Control_c, 1, 64, 0
3, 9630, Note_on_c, 1, 57, 98
3, 9637, Note_on_c, 1, 52, 0
3, 9637, Control_c, 1, 64, 127
3, 9648, Note_on_c, 1, 57, 0
3, 9660, Note_on_c, 1, 61, 89
3, 9679, Note_on_c, 1, 61, 0
3, 9690, Note_on_c, 1, 57, 89
3, 9692, Note_on_c, 1, 40, 0
3, 9703, Note_on_c, 1, 57, 0
3, 9720, Note_on_c, 1, 52, 93
3, 9720, Note_on_c, 1, 40, 89
3, 9724, Control_c, 1, 64, 0
3, 9742, Note_on_c, 1, 52, 0
3, 9743, Control_c, 1, 64, 127
3, 9750, Note_on_c, 1, 57, 93
3, 9772, Note_on_c, 1, 57, 0
3, 9780, Note_on_c, 1, 40, 0
3, 9780, Note_on_c, 1, 61, 72
3, 9806, Note_on_c, 1, 61, 0
3, 9810, Note_on_c, 1, 57, 80
3, 9825, Note_on_c, 1, 57, 0
3, 9840, Note_on_c, 1, 40, 80
3, 9840, Note_on_c, 1, 52, 93
3, 9841, Control_c, 1, 64, 0
3, 9861, Note_on_c, 1, 52, 0
3, 9864, Control_c, 1, 64, 127
3, 9870, Note_on_c, 1, 62, 85
3, 9891, Note_on_c, 1, 62, 0
3, 9900, Note_on_c, 1, 59, 85
3, 9918, Note_on_c, 1, 59, 0
3, 9922, Note_on_c, 1, 40, 0
3, 9930, Note_on_c, 1, 62, 80
3, 9946, Note_on_c, 1, 62, 0
3, 9956, Control_c, 1, 64, 0
3, 9960, Note_on_c, 1, 52, 93
3, 9960, Note_on_c, 1, 40, 80
3, 9976, Control_c, 1, 64, 127
3, 9980, Note_on_c, 1, 52, 0
3, 9990, Note_on_c, 1, 62, 76
3, 10010, Note_on_c, 1, 62, 0
3, 10013, Note_on_c, 1, 40, 0
3, 10020, Note_on_c, 1, 59, 80
3, 10041, Note_on_c, 1, 59, 0
3, 10050, Note_on_c, 1, 62, 85
3, 10064, Note_on_c, 1, 62, 0
3, 10076, Control_c, 1, 64, 0
3, 10080, Note_on_c, 1, 61, 102
3, 10080, Note_on_c, 1, 33, 89
3, 10097, Control_c, 1, 64, 127
3, 10129, Note_on_c, 1, 61, 0
3, 10131, Note_on_c, 1, 33, 0
3, 10200, Control_c, 1, 64, 0
3, 10440, Note_on_c, 1, 49, 119
3, 10440, Note_on_c, 1, 37, 107
3, 10456, Control_c, 1, 64, 127
3, 10554, Note_on_c, 1, 37, 0
3, 10556, Note_on_c, 1, 49, 0
3, 10559, Control_c, 1, 64, 0
3, 10560, Note_on_c, 1, 38, 98
3, 10560, Note_on_c, 1, 50, 113
3, 10584, Control_c, 1, 64, 127
3, 10622, Note_on_c, 1, 50, 0
3, 10622, Note_on_c, 1, 38, 0
3, 10668, Control_c, 1, 64, 0
3, 11520, Note_on_c, 1, 50, 107
3, 11520, Note_on_c, 1, 54, 107
3, 11520, Note_on_c, 1, 59, 107
3, 11520, Note_on_c, 1, 38, 93
3, 11533, Control_c, 1, 64, 127
3, 11581, Note_on_c, 1, 59, 0
3, 11582, Note_on_c, 1, 38, 0
3, 11582, Note_on_c, 1, 50, 0
3, 11586, Note_on_c, 1, 54, 0
3, 11639, Control_c, 1, 64, 0
3, 11640, Note_on_c, 1, 50, 107
3, 11640, Note_on_c, 1, 54, 107
3, 11640, Note_on_c, 1, 59, 107
3, 11640, Note_on_c, 1, 38, 98
3, 11662, Control_c, 1, 64, 127
3, 11703, Note_on_c, 1, 59, 0
3, 11703, Note_on_c, 1, 50, 0
3, 11705, Note_on_c, 1, 54, 0
3, 11705, Note_on_c, 1, 38, 0
3, 11755, Control_c, 1, 64, 0
3, 11760, Note_on_c, 1, 50, 107
3, 11760, Note_on_c, 1, 54, 113
3, 11760, Note_on_c, 1, 59, 102
3, 11760, Note_on_c, 1, 38, 93
3, 11777, Control_c, 1, 64, 127
3, 11816, Note_on_c, 1, 50, 0
3, 11819, Note_on_c, 1, 59, 0
3, 11820, Note_on_c, 1, 54, 0
3, 11821, Note_on_c, 1, 38, 0
3, 11873, Control_c, 1, 64, 0
3, 11880, Note_on_c, 1, 50, 113
3, 11880, Note_on_c, 1, 38, 102
3, 11880, Note_on_c, 1, 54, 113
3, 11880, Note_on_c, 1, 59, 113
3, 11894, Control_c, 1, 64, 127
3, 11913, Note_on_c, 1, 54, 0
3, 11913, Note_on_c, 1, 50, 0
3, 11915, Note_on_c, 1, 59, 0
3, 11927, Note_on_c, 1, 38, 0
3, 11988, Control_c, 1, 64, 0
3, 12000, Note_on_c, 1, 57, 107
3, 12000, Note_on_c, 1, 40, 93
3, 12000, Note_on_c, 1, 61, 102
3, 12000, Note_on_c, 1, 52, 98
3, 12019, Control_c, 1, 64, 127
3, 12113, Note_on_c, 1, 61, 0
3, 12114, Note_on_c, 1, 52, 0
3, 12115, Note_on_c, 1, 57, 0
3, 12116, Note_on_c, 1, 40, 0
3, 12125, Control_c, 1, 64, 0
3, 12480, Note_on_c, 1, 40, 85
3, 12480, Note_on_c, 1, 52, 113
3, 12485, Control_c, 1, 64, 127
3, 12502, Note_on_c, 1, 52, 0
3, 12505, Note_on_c, 1, 40, 0
3, 12510, Note_on_c, 1, 62, 76
3, 12527, Note_on_c, 1, 62, 0
3, 12540, Note_on_c, 1, 59, 98
3, 12540, Note_on_c, 1, 40, 93
3, 12558, Note_on_c, 1, 40, 0
3, 12558, Note_on_c, 1, 59, 0
3, 12570, Note_on_c, 1, 62, 89
3, 12586, Note_on_c, 1, 62, 0
3, 12595, Control_c, 1, 64, 0
3, 12600, Note_on_c, 1, 40, 93
3, 12600, Note_on_c, 1, 52, 98
3, 12613, Control_c, 1, 64, 127
3, 12619, Note_on_c, 1, 52, 0
3, 12621, Note_on_c, 1, 40, 0
3, 12630, Note_on_c, 1, 62, 80
3, 12647, Note_on_c, 1, 62, 0
3, 12660, Note_on_c, 1, 59, 93
3, 12660, Note_on_c, 1, 40, 89
3, 12677, Note_on_c, 1, 40, 0
3, 12678, Note_on_c, 1, 59, 0
3, 12690, Note_on_c, 1, 62, 80
3, 12704, Note_on_c, 1, 62, 0
3, 12709, Control_c, 1, 64, 0
3, 12720, Note_on_c, 1, 40, 102
3, 12720, Note_on_c, 1, 52, 98
3, 12728, Control_c, 1, 64, 127
3, 12739, Note_on_c, 1, 52, 0
3, 12739, Note_on_c, 1, 40, 0
3, 12750, Note_on_c, 1, 62, 85
3, 12768, Note_on_c, 1, 62, 0
3, 12780, Note_on_c, 1, 59, 93
3, 12780, Note_on_c, 1, 40, 102
3, 12796, Note_on_c, 1, 59, 0
3, 12797, Note_on_c, 1, 40, 0
3, 12810, Note_on_c, 1, 62, 85
3, 12825, Note_on_c, 1, 62, 0
3, 12829, Control_c, 1, 64, 0
3, 12840, Note_on_c, 1, 40, 102
3, 12840, Note_on_c, 1, 52, 98
3, 12847, Control_c, 1, 64, 127
3, 12858, Note_on_c, 1, 52, 0
3, 12859, Note_on_c, 1, 40, 0
3, 12870, Note_on_c, 1, 62, 80
3, 12888, Note_on_c, 1, 62, 0
3, 12900, Note_on_c, 1, 59, 93
3, 12900, Note_on_c, 1, 40, 98
3, 12914, Note_on_c, 1, 40, 0
3, 12918, Note_on_c, 1, 59, 0
3, 12930, Note_on_c, 1, 62, 89
3, 12947, Note_on_c, 1, 62, 0
3, 12957, Control_c, 1, 64, 0
3, 12960, Note_on_c, 1, 57, 98
3, 12960, Note_on_c, 1, 61, 93
3, 12960, Note_on_c, 1, 33, 93
3, 12960, Note_on_c, 1, 45, 93
3, 12978, Control_c, 1, 64, 127
3, 12988, Note_on_c, 1, 57, 0
3, 12991, Note_on_c, 1, 61, 0
3, 12999, Note_on_c, 1, 33, 0
3, 13001, Note_on_c, 1, 45, 0
3, 13020, Note_on_c, 1, 61, 98
3, 13020, Note_on_c, 1, 64, 93
3, 13033, Control_c, 1, 64, 0
3, 13051, Control_c, 1, 64, 127
3, 13066, Note_on_c, 1, 64, 0
3, 13066, Note_on_c, 1, 61, 0
3, 13080, Note_on_c, 1, 62, 98
3, 13080, Note_on_c, 1, 59, 98
3, 13083, Control_c, 1, 64, 0
3, 13104, Control_c, 1, 64, 127
3, 13127, Note_on_c, 1, 62, 0
3, 13130, Note_on_c, 1, 59, 0
3, 13140, Note_on_c, 1, 57, 98
3, 13140, Note_on_c, 1, 61, 102
3, 13148, Control_c, 1, 64, 0
3, 13166, Control_c, 1, 64, 127
3, 13182, Note_on_c, 1, 57, 0
3, 13186, Note_on_c, 1, 61, 0
3, 13200, Note_on_c, 1, 52, 93
3, 13200, Note_on_c, 1, 40, 98
3, 13203, Control_c, 1, 64, 0
3, 13223, Control_c, 1, 64, 127
3, 13260, Note_on_c, 1, 52, 0
3, 13260, Note_on_c, 1, 56, 102
3, 13260, Note_on_c, 1, 59, 107
3, 13263, Note_on_c, 1, 40, 0
3, 13263, Control_c, 1, 64, 0
3, 13280, Control_c, 1, 64, 127
3, 13291, Note_on_c, 1, 56, 0
3, 13298, Note_on_c, 1, 59, 0
3, 13320, Note_on_c, 1, 57, 98
3, 13320, Note_on_c, 1, 61, 89
3, 13322, Control_c, 1, 64, 0
3, 13342, Control_c, 1, 64, 127
3, 13354, Note_on_c, 1, 57, 0
3, 13368, Note_on_c, 1, 61, 0
3, 13380, Note_on_c, 1, 62, 98
3, 13380, Note_on_c, 1, 59, 93
3, 13382, Control_c, 1, 64, 0
3, 13400, Control_c, 1, 64, 127
3, 13418, Note_on_c, 1, 62, 0
3, 13422, Note_on_c, 1, 59, 0
3, 13440, Note_on_c, 1, 45, 98
3, 13440, Note_on_c, 1, 33, 89
3, 13441, Control_c, 1, 64, 0
3, 13467, Control_c, 1, 64, 127
3, 13500, Note_on_c, 1, 64, 102
3, 13500, Note_on_c, 1, 61, 113
3, 13502, Control_c, 1, 64, 0
3, 13506, Note_on_c, 1, 45, 0
3, 13507, Note_on_c, 1, 33, 0
3, 13519, Control_c, 1, 64, 127
3, 13542, Note_on_c, 1, 64, 0
3, 13544, Note_on_c, 1, 61, 0
3, 13554, Control_c, 1, 64, 0
3, 13560, Note_on_c, 1, 59, 89
3, 13560, Note_on_c, 1, 62, 93
3, 13577, Control_c, 1, 64, 127
3, 13608, Note_on_c, 1, 62, 0
3, 13610, Note_on_c, 1, 59, 0
3, 13620, Note_on_c, 1, 57, 98
3, 13620, Note_on_c, 1, 61, 89
3, 13625, Control_c, 1, 64, 0
3, 13643, Control_c, 1, 64, 127
3, 13666, Note_on_c, 1, 57, 0
3, 13671, Note_on_c, 1, 61, 0
3, 13680, Note_on_c, 1, 52, 93
3, 13680, Note_on_c, 1, 40, 102
3, 13682, Control_c, 1, 64, 0
3, 13702, Control_c, 1, 64, 127
3, 13736, Control_c, 1, 64, 0
3, 13740, Note_on_c, 1, 59, 107
3, 13740, Note_on_c, 1, 56, 85
3, 13754, Control_c, 1, 64, 127
3, 13764, Note_on_c, 1, 56, 0
3, 13771, Note_on_c, 1, 59, 0
3, 13784, Note_on_c, 1, 52, 0
3, 13788, Note_on_c, 1, 40, 0
3, 13799, Control_c, 1, 64, 0
3, 13800, Note_on_c, 1, 61, 89
3, 13800, Note_on_c, 1, 57, 107
3, 13820, Control_c, 1, 64, 127
3, 13834, Note_on_c, 1, 57, 0
3, 13838, Note_on_c, 1, 61, 0
3, 13858, Control_c, 1, 64, 0
3, 13860, Note_on_c, 1, 59, 93
3, 13860, Note_on_c, 1, 62, 93
3, 13876, Note_on_c, 1, 62, 0
3, 13876, Control_c, 1, 64, 127
3, 13878, Note_on_c, 1, 59, 0
3, 13914, Control_c, 1, 64, 0
3, 13920, Note_on_c, 1, 57, 107
3, 13920, Note_on_c, 1, 61, 93
3, 13920, Note_on_c, 1, 45, 93
3, 13936, Control_c, 1, 64, 127
3, 13948, Note_on_c, 1, 45, 0
3, 13949, Note_on_c, 1, 61, 0
3, 13949, Note_on_c, 1, 57, 0
3, 13980, Note_on_c, 1, 52, 89
3, 13980, Note_on_c, 1, 40, 102
3, 13982, Control_c, 1, 64, 0
3, 14008, Control_c, 1, 64, 127
3, 14035, Control_c, 1, 64, 0
3, 14036, Note_on_c, 1, 52, 0
3, 14038, Note_on_c, 1, 40, 0
3, 14040, Note_on_c, 1, 49, 93
3, 14040, Note_on_c, 1, 37, 89
3, 14063, Control_c, 1, 64, 127
3, 14095, Control_c, 1, 64, 0
3, 14096, Note_on_c, 1, 37, 0
3, 14096, Note_on_c, 1, 49, 0
3, 14100, Note_on_c, 1, 33, 93
3, 14100, Note_on_c, 1, 45, 102
3, 14116, Control_c, 1, 64, 127
3, 14131, Note_on_c, 1, 45, 0
3, 14149, Note_on_c, 1, 33, 0
3, 14154, Control_c, 1, 64, 0
3, 14160, Note_on_c, 1, 57, 102
3, 14160, Note_on_c, 1, 45, 102
3, 14179, Control_c, 1, 64, 127
3, 14206, Note_on_c, 1, 45, 0
3, 14210, Note_on_c, 1, 57, 0
3, 14220, Note_on_c, 1, 40, 93
3, 14220, Note_on_c, 1, 52, 93
3, 14221, Control_c, 1, 64, 0
3, 14242, Control_c, 1, 64, 127
3, 14273, Note_on_c, 1, 40, 0
3, 14276, Note_on_c, 1, 52, 0
3, 14277, Control_c, 1, 64, 0
3, 14280, Note_on_c, 1, 49, 89
3, 14280, Note_on_c, 1, 37, 85
3, 14295, Control_c, 1, 64, 127
3, 14333, Control_c, 1, 64, 0
3, 14339, Note_on_c, 1, 37, 0
3, 14340, Note_on_c, 1, 45, 102
3, 14340, Note_on_c, 1, 33, 93
3, 14341, Note_on_c, 1, 49, 0
3, 14350, Control_c, 1, 64, 127
3, 14367, Note_on_c, 1, 33, 0
3, 14369, Note_on_c, 1, 45, 0
3, 14389, Control_c, 1, 64, 0
3, 14400, Note_on_c, 1, 33, 89
3, 14400, Note_on_c, 1, 45, 107
3, 14400, Note_on_c, 1, 49, 119
3, 14400, Note_on_c, 1, 57, 102
3, 14417, Control_c, 1, 64, 127
3, 14428, Note_on_c, 1, 49, 0
3, 14432, Note_on_c, 1, 57, 0
3, 14432, Note_on_c, 1, 45, 0
3, 14433, Note_on_c, 1, 33, 0
3, 14495, Control_c, 1, 64, 0
3, 14520, Note_on_c, 1, 61, 93
3, 14520, Note_on_c, 1, 52, 107
3, 14520, Note_on_c, 1, 33, 93
3, 14520, Note_on_c, 1, 45, 102
3, 14537, Control_c, 1, 64, 127
3, 14549, Note_on_c, 1, 45, 0
3, 14550, Note_on_c, 1, 33, 0
3, 14552, Note_on_c, 1, 61, 0
3, 14553, Note_on_c, 1, 52, 0
3, 14623, Control_c, 1, 64, 0
3, 14640, Note_on_c, 1, 57, 107
3, 14640, Note_on_c, 1, 49, 107
3, 14640, Note_on_c, 1, 33, 102
3, 14640, Note_on_c, 1, 45, 107
3, 14653, Control_c, 1, 64, 127
3, 14655, Note_on_c, 1, 45, 0
3, 14656, Note_on_c, 1, 33, 0
3, 14658, Note_on_c, 1, 49, 0
3, 14663, Note_on_c, 1, 57, 0
3, 14764, Control_c, 1, 64, 0
3, 14880, Note_on_c, 1, 42, 93
3, 14896, Control_c, 1, 64, 127
3, 15101, Note_on_c, 1, 42, 0
3, 15110, Control_c, 1, 64, 0
3, 15120, Note_on_c, 1, 43, 102
3, 15141, Control_c, 1, 64, 127
3, 15233, Control_c, 1, 64, 0
3, 15240, Note_on_c, 1, 42, 93
3, 15247, Note_on_c, 1, 43, 0
3, 15263, Control_c, 1, 64, 127
3, 15356, Control_c, 1, 64, 0
3, 15360, Note_on_c, 1, 41, 93
3, 15365, Note_on_c, 1, 42, 0
3, 15391, Control_c, 1, 64, 127
3, 15477, Control_c, 1, 64, 0
3, 15478, Note_on_c, 1, 41, 0
3, 15480, Note_on_c, 1, 42, 89
3, 15502, Control_c, 1, 64, 127
3, 15614, Note_on_c, 1, 42, 0
3, 15617, Control_c, 1, 64, 0
3, 15720, Note_on_c, 1, 66, 60
3, 15720, Note_on_c, 1, 62, 76
3, 15739, Note_on_c, 1, 62, 0
3, 15745, Note_on_c, 1, 66, 0
3, 15840, Note_on_c, 1, 64, 80
3, 15840, Note_on_c, 1, 67, 76
3, 15858, Note_on_c, 1, 67, 0
3, 15858, Note_on_c, 1, 64, 0
3, 15960, Note_on_c, 1, 61, 72
3, 15960, Note_on_c, 1, 64, 72
3, 15977, Note_on_c, 1, 61, 0
3, 15981, Note_on_c, 1, 64, 0
3, 16080, Note_on_c, 1, 66, 62
3, 16080, Note_on_c, 1, 62, 76
3, 16096, Note_on_c, 1, 62, 0
3, 16099, Note_on_c, 1, 66, 0
3, 16200, Note_on_c, 1, 59, 80
3, 16200, Note_on_c, 1, 62, 76
3, 16217, Note_on_c, 1, 59, 0
3, 16218, Note_on_c, 1, 62, 0
3, 16320, Note_on_c, 1, 61, 64
3, 16320, Note_on_c, 1, 64, 76
3, 16337, Note_on_c, 1, 61, 0
3, 16338, Note_on_c, 1, 64, 0
3, 16440, Note_on_c, 1, 61, 62
3, 16440, Note_on_c, 1, 58, 62
3, 16459, Note_on_c, 1, 58, 0
3, 16461, Note_on_c, 1, 61, 0
3, 16560, Note_on_c, 1, 62, 64
3, 16560, Note_on_c, 1, 59, 72
3, 16576, Note_on_c, 1, 59, 0
3, 16578, Note_on_c, 1, 62, 0
3, 16800, Note_on_c, 1, 40, 113
3, 16864, Control_c, 1, 64, 127
3, 17019, Note_on_c, 1, 40, 0
3, 17030, Control_c, 1, 64, 0
3, 17040, Note_on_c, 1, 42, 107
3, 17073, Control_c, 1, 64, 127
3, 17151, Control_c, 1, 64, 0
3, 17160, Note_on_c, 1, 42, 0
3, 17160, Note_on_c, 1, 40, 93
3, 17184, Control_c, 1, 64, 127
3, 17271, Control_c, 1, 64, 0
3, 17280, Note_on_c, 1, 39, 113
3, 17290, Note_on_c, 1, 40, 0
3, 17312, Control_c, 1, 64, 127
3, 17400, Note_on_c, 1, 40, 93
3, 17406, Note_on_c, 1, 39, 0
3, 17407, Control_c, 1, 64, 0
3, 17455, Control_c, 1, 64, 127
3, 17517, Note_on_c, 1, 40, 0
3, 17544, Control_c, 1, 64, 0
3, 17640, Note_on_c, 1, 61, 68
3, 17640, Note_on_c, 1, 64, 64
3, 17660, Note_on_c, 1, 61, 0
3, 17661, Note_on_c, 1, 64, 0
3, 17760, Note_on_c, 1, 66, 57
3, 17760, Note_on_c, 1, 62, 72
3, 17776, Note_on_c, 1, 62, 0
3, 17779, Note_on_c, 1, 66, 0
3, 17880, Note_on_c, 1, 59, 68
3, 17880, Note_on_c, 1, 62, 72
3, 17898, Note_on_c, 1, 62, 0
3, 17900, Note_on_c, 1, 59, 0
3, 18000, Note_on_c, 1, 61, 59
3, 18000, Note_on_c, 1, 64, 62
3, 18017, Note_on_c, 1, 61, 0
3, 18018, Note_on_c, 1, 64, 0
3, 18120, Note_on_c, 1, 57, 72
3, 18120, Note_on_c, 1, 61, 62
3, 18140, Note_on_c, 1, 57, 0
3, 18141, Note_on_c, 1, 61, 0
3, 18240, Note_on_c, 1, 59, 76
3, 18240, Note_on_c, 1, 62, 60
3, 18257, Note_on_c, 1, 59, 0
3, 18260, Note_on_c, 1, 62, 0
3, 18360, Note_on_c, 1, 59, 60
3, 18360, Note_on_c, 1, 56, 85
3, 18378, Note_on_c, 1, 56, 0
3, 18379, Note_on_c, 1, 59, 0
3, 18480, Note_on_c, 1, 61, 56
3, 18480, Note_on_c, 1, 57, 68
3, 18496, Note_on_c, 1, 57, 0
3, 18502, Note_on_c, 1, 61, 0
3, 18720, Note_on_c, 1, 45, 102
3, 18720, Note_on_c, 1, 57, 119
3, 18748, Control_c, 1, 64, 127
3, 18790, Note_on_c, 1, 57, 0
3, 18794, Note_on_c, 1, 45, 0
3, 18840, Note_on_c, 1, 45, 93
3, 18840, Note_on_c, 1, 57, 107
3, 18842, Control_c, 1, 64, 0
3, 18877, Control_c, 1, 64, 127
3, 18892, Note_on_c, 1, 57, 0
3, 18900, Note_on_c, 1, 45, 0
3, 18900, Note_on_c, 1, 59, 98
3, 18900, Note_on_c, 1, 47, 93
3, 18900, Control_c, 1, 64, 0
3, 18959, Note_on_c, 1, 47, 0
3, 18959, Note_on_c, 1, 59, 0
3, 18960, Note_on_c, 1, 60, 93
3, 18960, Note_on_c, 1, 48, 93
3, 19018, Note_on_c, 1, 60, 0
3, 19020, Note_on_c, 1, 48, 0
3, 19020, Note_on_c, 1, 59, 98
3, 19020, Note_on_c, 1, 47, 89
3, 19077, Note_on_c, 1, 47, 0
3, 19077, Note_on_c, 1, 59, 0
3, 19080, Note_on_c, 1, 45, 89
3, 19080, Note_on_c, 1, 57, 98
3, 19092, Control_c, 1, 64, 127
3, 19114, Control_c, 1, 64, 0
3, 19134, Control_c, 1, 64, 127
3, 19136, Note_on_c, 1, 57, 0
3, 19140, Note_on_c, 1, 43, 85
3, 19140, Note_on_c, 1, 55, 89
3, 19148, Note_on_c, 1, 45, 0
3, 19161, Note_on_c, 1, 43, 0
3, 19163, Note_on_c, 1, 55, 0
3, 19192, Control_c, 1, 64, 0
3, 19200, Note_on_c, 1, 54, 102
3, 19200, Note_on_c, 1, 42, 85
3, 19220, Control_c, 1, 64, 127
3, 19274, Note_on_c, 1, 42, 0
3, 19276, Note_on_c, 1, 54, 0
3, 19303, Control_c, 1, 64, 0
3, 19320, Note_on_c, 1, 54, 107
3, 19320, Note_on_c, 1, 42, 98
3, 19329, Control_c, 1, 64, 127
3, 19377, Note_on_c, 1, 54, 0
3, 19380, Note_on_c, 1, 43, 93
3, 19380, Note_on_c, 1, 55, 93
3, 19383, Note_on_c, 1, 42, 0
3, 19384, Control_c, 1, 64, 0
3, 19436, Note_on_c, 1, 55, 0
3, 19439, Note_on_c, 1, 43, 0
3, 19440, Note_on_c, 1, 57, 93
3, 19440, Note_on_c, 1, 45, 89
3, 19441, Control_c, 1, 64, 127
3, 19487, Control_c, 1, 64, 0
3, 19498, Note_on_c, 1, 57, 0
3, 19500, Note_on_c, 1, 43, 89
3, 19500, Note_on_c, 1, 55, 89
3, 19503, Note_on_c, 1, 45, 0
3, 19556, Note_on_c, 1, 55, 0
3, 19559, Note_on_c, 1, 43, 0
3, 19560, Note_on_c, 1, 42, 72
3, 19560, Note_on_c, 1, 54, 80
3, 19565, Control_c, 1, 64, 127
3, 19613, Note_on_c, 1, 54, 0
3, 19620, Note_on_c, 1, 52, 93
3, 19620, Note_on_c, 1, 40, 80
3, 19626, Note_on_c, 1, 42, 0
3, 19659, Control_c, 1, 64, 0
3, 19680, Note_on_c, 1, 40, 0
3, 19680, Note_on_c, 1, 39, 80
3, 19680, Note_on_c, 1, 51, 98
3, 19684, Note_on_c, 1, 52, 0
3, 19690, Control_c, 1, 64, 127
3, 19711, Note_on_c, 1, 51, 0
3, 19719, Note_on_c, 1, 39, 0
3, 19782, Control_c, 1, 64, 0
3, 19800, Note_on_c, 1, 63, 113
3, 19800, Note_on_c, 1, 51, 102
3, 19816, Control_c, 1, 64, 127
3, 19855, Note_on_c, 1, 63, 0
3, 19860, Note_on_c, 1, 64, 98
3, 19860, Note_on_c, 1, 52, 102
3, 19863, Note_on_c, 1, 51, 0
3, 19863, Control_c, 1, 64, 0
3, 19916, Note_on_c, 1, 64, 0
3, 19918, Note_on_c, 1, 52, 0
3, 19919, Control_c, 1, 64, 127
3, 19920, Note_on_c, 1, 66, 89
3, 19920, Note_on_c, 1, 54, 89
3, 19974, Note_on_c, 1, 66, 0
3, 19976, Control_c, 1, 64, 0
3, 19980, Note_on_c, 1, 54, 0
3, 19980, Note_on_c, 1, 64, 93
3, 19980, Note_on_c, 1, 52, 98
3, 20037, Note_on_c, 1, 64, 0
3, 20040, Note_on_c, 1, 51, 93
3, 20040, Note_on_c, 1, 63, 89
3, 20041, Note_on_c, 1, 52, 0
3, 20044, Control_c, 1, 64, 127
3, 20098, Note_on_c, 1, 51, 0
3, 20099, Note_on_c, 1, 63, 0
3, 20100, Note_on_c, 1, 61, 93
3, 20100, Note_on_c, 1, 49, 98
3, 20123, Note_on_c, 1, 61, 0
3, 20132, Note_on_c, 1, 49, 0
3, 20144, Control_c, 1, 64, 0
3, 20160, Note_on_c, 1, 47, 93
3, 20160, Note_on_c, 1, 59, 107
3, 20174, Control_c, 1, 64, 127
3, 20225, Note_on_c, 1, 59, 0
3, 20232, Note_on_c, 1, 47, 0
3, 20280, Note_on_c, 1, 47, 93
3, 20280, Note_on_c, 1, 59, 107
3, 20334, Control_c, 1, 64, 0
3, 20338, Note_on_c, 1, 59, 0
3, 20339, Note_on_c, 1, 47, 0
3, 20340, Note_on_c, 1, 60, 98
3, 20340, Note_on_c, 1, 48, 89
3, 20400, Note_on_c, 1, 48, 0
3, 20400, Note_on_c, 1, 47, 93
3, 20400, Note_on_c, 1, 59, 102
3, 20402, Note_on_c, 1, 60, 0
3, 20403, Control_c, 1, 64, 127
3, 20443, Control_c, 1, 64, 0
3, 20460, Note_on_c, 1, 47, 0
3, 20460, Note_on_c, 1, 45, 89
3, 20460, Note_on_c, 1, 57, 102
3, 20462, Note_on_c, 1, 59, 0
3, 20480, Control_c, 1, 64, 127
3, 20513, Control_c, 1, 64, 0
3, 20520, Note_on_c, 1, 57, 0
3, 20520, Note_on_c, 1, 55, 89
3, 20520, Note_on_c, 1, 43, 93
3, 20527, Note_on_c, 1, 45, 0
3, 20534, Control_c, 1, 64, 127
3, 20554, Note_on_c, 1, 43, 0
3, 20575, Control_c, 1, 64, 0
3, 20579, Note_on_c, 1, 55, 0
3, 20580, Note_on_c, 1, 42, 49
3, 20580, Note_on_c, 1, 54, 93
3, 20592, Control_c, 1, 64, 127
3, 20632, Note_on_c, 1, 42, 0
3, 20634, Control_c, 1, 64, 0
3, 20635, Note_on_c, 1, 54, 0
3, 20640, Note_on_c, 1, 43, 85
3, 20640, Note_on_c, 1, 55, 98
3, 20667, Control_c, 1, 64, 127
3, 20744, Note_on_c, 1, 55, 0
3, 20744, Note_on_c, 1, 43, 0
3, 20759, Control_c, 1, 64, 0
3, 20760, Note_on_c, 1, 55, 102
3, 20760, Note_on_c, 1, 43, 89
3, 20781, Control_c, 1, 64, 127
3, 20814, Note_on_c, 1, 55, 0
3, 20817, Control_c, 1, 64, 0
3, 20820, Note_on_c, 1, 57, 102
3, 20820, Note_on_c, 1, 45, 93
3, 20827, Note_on_c, 1, 43, 0
3, 20879, Note_on_c, 1, 57, 0
3, 20880, Note_on_c, 1, 45, 0
3, 20880, Note_on_c, 1, 59, 107
3, 20880, Note_on_c, 1, 47, 93
3, 20888, Control_c, 1, 64, 127
3, 20923, Control_c, 1, 64, 0
3, 20940, Note_on_c, 1, 57, 98
3, 20940, Note_on_c, 1, 45, 93
3, 20941, Note_on_c, 1, 59, 0
3, 20942, Note_on_c, 1, 47, 0
3, 20997, Note_on_c, 1, 57, 0
3, 20998, Note_on_c, 1, 45, 0
3, 21000, Note_on_c, 1, 43, 85
3, 21000, Note_on_c, 1, 55, 89
3, 21002, Control_c, 1, 64, 127
3, 21055, Note_on_c, 1, 55, 0
3, 21060, Note_on_c, 1, 54, 107
3, 21060, Note_on_c, 1, 42, 76
3, 21061, Note_on_c, 1, 43, 0
3, 21108, Control_c, 1, 64, 0
3, 21120, Note_on_c, 1, 40, 93
3, 21120, Note_on_c, 1, 52, 98
3, 21122, Note_on_c, 1, 42, 0
3, 21124, Note_on_c, 1, 54, 0
3, 21143, Control_c, 1, 64, 127
3, 21182, Note_on_c, 1, 40, 0
3, 21199, Note_on_c, 1, 52, 0
3, 21234, Control_c, 1, 64, 0
3, 21240, Note_on_c, 1, 40, 89
3, 21240, Note_on_c, 1, 52, 113
3, 21262, Control_c, 1, 64, 127
3, 21294, Note_on_c, 1, 52, 0
3, 21297, Note_on_c, 1, 40, 0
3, 21300, Note_on_c, 1, 42, 85
3, 21300, Note_on_c, 1, 54, 113
3, 21301, Control_c, 1, 64, 0
3, 21329, Control_c, 1, 64, 127
3, 21353, Note_on_c, 1, 54, 0
3, 21353, Control_c, 1, 64, 0
3, 21359, Note_on_c, 1, 42, 0
3, 21360, Note_on_c, 1, 43, 93
3, 21360, Note_on_c, 1, 55, 98
3, 21379, Control_c, 1, 64, 127
3, 21408, Control_c, 1, 64, 0
3, 21414, Note_on_c, 1, 55, 0
3, 21420, Note_on_c, 1, 42, 80
3, 21420, Note_on_c, 1, 54, 98
3, 21424, Note_on_c, 1, 43, 0
3, 21432, Control_c, 1, 64, 127
3, 21464, Control_c, 1, 64, 0
3, 21474, Note_on_c, 1, 54, 0
3, 21477, Note_on_c, 1, 42, 0
3, 21480, Note_on_c, 1, 52, 93
3, 21480, Note_on_c, 1, 40, 98
3, 21488, Control_c, 1, 64, 127
3, 21515, Control_c, 1, 64, 0
3, 21536, Control_c, 1, 64, 127
3, 21538, Note_on_c, 1, 52, 0
3, 21540, Note_on_c, 1, 50, 102
3, 21540, Note_on_c, 1, 38, 89
3, 21546, Note_on_c, 1, 40, 0
3, 21586, Note_on_c, 1, 50, 0
3, 21586, Control_c, 1, 64, 0
3, 21597, Note_on_c, 1, 38, 0
3, 21600, Note_on_c, 1, 49, 119
3, 21600, Note_on_c, 1, 37, 93
3, 21616, Control_c, 1, 64, 127
3, 21639, Note_on_c, 1, 49, 0
3, 21645, Note_on_c, 1, 37, 0
3, 21695, Control_c, 1, 64, 0
3, 21720, Note_on_c, 1, 61, 113
3, 21720, Note_on_c, 1, 49, 113
3, 21733, Control_c, 1, 64, 127
3, 21780, Note_on_c, 1, 50, 93
3, 21780, Note_on_c, 1, 62, 102
3, 21781, Note_on_c, 1, 61, 0
3, 21782, Note_on_c, 1, 49, 0
3, 21794, Control_c, 1, 64, 0
3, 21833, Note_on_c, 1, 62, 0
3, 21837, Note_on_c, 1, 50, 0
3, 21840, Note_on_c, 1, 52, 98
3, 21840, Note_on_c, 1, 64, 102
3, 21844, Control_c, 1, 64, 127
3, 21889, Control_c, 1, 64, 0
3, 21890, Note_on_c, 1, 64, 0
3, 21897, Note_on_c, 1, 52, 0
3, 21900, Note_on_c, 1, 62, 102
3, 21900, Note_on_c, 1, 50, 93
3, 21954, Note_on_c, 1, 62, 0
3, 21959, Note_on_c, 1, 50, 0
3, 21959, Control_c, 1, 64, 127
3, 21960, Note_on_c, 1, 61, 93
3, 21960, Note_on_c, 1, 49, 89
3, 22017, Note_on_c, 1, 61, 0
3, 22017, Control_c, 1, 64, 0
3, 22019, Note_on_c, 1, 49, 0
3, 22020, Note_on_c, 1, 47, 93
3, 22020, Note_on_c, 1, 59, 102
3, 22080, Note_on_c, 1, 47, 0
3, 22080, Note_on_c, 1, 57, 107
3, 22080, Note_on_c, 1, 45, 93
3, 22081, Control_c, 1, 64, 127
3, 22082, Note_on_c, 1, 59, 0
3, 22133, Note_on_c, 1, 45, 0
3, 22143, Note_on_c, 1, 57, 0
3, 22185, Control_c, 1, 64, 0
3, 22200, Note_on_c, 1, 45, 98
3, 22200, Note_on_c, 1, 57, 119
3, 22214, Control_c, 1, 64, 127
3, 22258, Note_on_c, 1, 57, 0
3, 22260, Note_on_c, 1, 59, 93
3, 22260, Note_on_c, 1, 47, 98
3, 22261, Control_c, 1, 64, 0
3, 22262, Note_on_c, 1, 45, 0
3, 22314, Note_on_c, 1, 59, 0
3, 22320, Note_on_c, 1, 47, 0
3, 22320, Note_on_c, 1, 57, 102
3, 22320, Note_on_c, 1, 45, 93
3, 22327, Control_c, 1, 64, 127
3, 22377, Control_c, 1, 64, 0
3, 22379, Note_on_c, 1, 57, 0
3, 22380, Note_on_c, 1, 43, 85
3, 22380, Note_on_c, 1, 55, 98
3, 22382, Note_on_c, 1, 45, 0
3, 22401, Control_c, 1, 64, 127
3, 22435, Control_c, 1, 64, 0
3, 22437, Note_on_c, 1, 43, 0
3, 22439, Note_on_c, 1, 55, 0
3, 22440, Note_on_c, 1, 42, 60
3, 22440, Note_on_c, 1, 54, 93
3, 22474, Control_c, 1, 64, 127
3, 22487, Control_c, 1, 64, 0
3, 22500, Note_on_c, 1, 54, 0
3, 22500, Note_on_c, 1, 40, 89
3, 22500, Note_on_c, 1, 52, 102
3, 22501, Note_on_c, 1, 42, 0
3, 22508, Control_c, 1, 64, 127
3, 22539, Note_on_c, 1, 52, 0
3, 22545, Note_on_c, 1, 40, 0
3, 22552, Control_c, 1, 64, 0
3, 22560, Note_on_c, 1, 38, 93
3, 22560, Note_on_c, 1, 50, 119
3, 22573, Control_c, 1, 64, 127
3, 22587, Note_on_c, 1, 50, 0
3, 22590, Note_on_c, 1, 57, 89
3, 22613, Note_on_c, 1, 57, 0
3, 22620, Note_on_c, 1, 54, 89
3, 22643, Note_on_c, 1, 54, 0
3, 22650, Note_on_c, 1, 57, 93
3, 22667, Note_on_c, 1, 57, 0
3, 22668, Note_on_c, 1, 38, 0
3, 22673, Control_c, 1, 64, 0
3, 22680, Note_on_c, 1, 38, 93
3, 22680, Note_on_c, 1, 50, 93
3, 22695, Control_c, 1, 64, 127
3, 22702, Note_on_c, 1, 50, 0
3, 22710, Note_on_c, 1, 57, 85
3, 22730, Note_on_c, 1, 57, 0
3, 22740, Note_on_c, 1, 54, 76
3, 22752, Note_on_c, 1, 38, 0
3, 22762, Note_on_c, 1, 54, 0
3, 22770, Note_on_c, 1, 38, 80
3, 22770, Note_on_c, 1, 57, 93
3, 22785, Note_on_c, 1, 38, 0
3, 22788, Note_on_c, 1, 57, 0
3, 22800, Note_on_c, 1, 37, 98
3, 22800, Note_on_c, 1, 52, 113
3, 22807, Control_c, 1, 64, 0
3, 22819, Note_on_c, 1, 52, 0
3, 22830, Note_on_c, 1, 57, 89
3, 22836, Control_c, 1, 64, 127
3, 22851, Note_on_c, 1, 57, 0
3, 22860, Note_on_c, 1, 55, 89
3, 22878, Note_on_c, 1, 55, 0
3, 22890, Note_on_c, 1, 57, 89
3, 22903, Note_on_c, 1, 37, 0
3, 22905, Control_c, 1, 64, 0
3, 22906, Note_on_c, 1, 57, 0
3, 22920, Note_on_c, 1, 52, 113
3, 22920, Note_on_c, 1, 37, 98
3, 22927, Control_c, 1, 64, 127
3, 22939, Note_on_c, 1, 52, 0
3, 22950, Note_on_c, 1, 57, 89
3, 22969, Note_on_c, 1, 57, 0
3, 22980, Note_on_c, 1, 55, 80
3, 22991, Note_on_c, 1, 37, 0
3, 22999, Note_on_c, 1, 55, 0
3, 23010, Note_on_c, 1, 37, 89
3, 23010, Note_on_c, 1, 57, 93
3, 23026, Note_on_c, 1, 57, 0
3, 23028, Note_on_c, 1, 37, 0
3, 23035, Control_c, 1, 64, 0
3, 23040, Note_on_c, 1, 50, 107
3, 23040, Note_on_c, 1, 38, 107
3, 23062, Note_on_c, 1, 50, 0
3, 23066, Control_c, 1, 64, 127
3, 23070, Note_on_c, 1, 57, 89
3, 23088, Note_on_c, 1, 57, 0
3, 23100, Note_on_c, 1, 54, 85
3, 23120, Note_on_c, 1, 54, 0
3, 23130, Note_on_c, 1, 57, 93
3, 23142, Note_on_c, 1, 38, 0
3, 23146, Note_on_c, 1, 57, 0
3, 23147, Control_c, 1, 64, 0
3, 23160, Note_on_c, 1, 38, 107
3, 23160, Note_on_c, 1, 50, 98
3, 23169, Control_c, 1, 64, 127
3, 23180, Note_on_c, 1, 50, 0
3, 23190, Note_on_c, 1, 57, 89
3, 23209, Note_on_c, 1, 57, 0
3, 23220, Note_on_c, 1, 54, 93
3, 23236, Note_on_c, 1, 54, 0
3, 23239, Note_on_c, 1, 38, 0
3, 23250, Note_on_c, 1, 57, 102
3, 23250, Note_on_c, 1, 38, 93
3, 23266, Note_on_c, 1, 38, 0
3, 23268, Note_on_c, 1, 57, 0
3, 23280, Note_on_c, 1, 52, 107
3, 23280, Note_on_c, 1, 37, 102
3, 23283, Control_c, 1, 64, 0
3, 23298, Note_on_c, 1, 52, 0
3, 23310, Note_on_c, 1, 57, 93
3, 23313, Control_c, 1, 64, 127
3, 23330, Note_on_c, 1, 57, 0
3, 23340, Note_on_c, 1, 52, 93
3, 23354, Note_on_c, 1, 52, 0
3, 23370, Note_on_c, 1, 57, 89
3, 23387, Note_on_c, 1, 37, 0
3, 23388, Note_on_c, 1, 57, 0
3, 23397, Control_c, 1, 64, 0
3, 23400, Note_on_c, 1, 52, 102
3, 23400, Note_on_c, 1, 37, 93
3, 23418, Note_on_c, 1, 52, 0
3, 23421, Control_c, 1, 64, 127
3, 23430, Note_on_c, 1, 57, 89
3, 23449, Note_on_c, 1, 57, 0
3, 23460, Note_on_c, 1, 55, 85
3, 23477, Note_on_c, 1, 37, 0
3, 23479, Note_on_c, 1, 55, 0
3, 23490, Note_on_c, 1, 37, 93
3, 23490, Note_on_c, 1, 57, 102
3, 23490, Control_c, 1, 64, 0
3, 23506, Note_on_c, 1, 57, 0
3, 23508, Note_on_c, 1, 37, 0
3, 23520, Note_on_c, 1, 62, 113
3, 23520, Note_on_c, 1, 38, 102
3, 23524, Control_c, 1, 64, 127
3, 23558, Note_on_c, 1, 38, 0
3, 23558, Note_on_c, 1, 62, 0
3, 23630, Control_c, 1, 64, 0
3, 23640, Note_on_c, 1, 57, 113
3, 23640, Note_on_c, 1, 45, 113
3, 23654, Control_c, 1, 64, 127
3, 23683, Note_on_c, 1, 45, 0
3, 23685, Note_on_c, 1, 57, 0
3, 23730, Note_on_c, 1, 57, 98
3, 23730, Note_on_c, 1, 45, 102
3, 23749, Note_on_c, 1, 57, 0
3, 23750, Control_c, 1, 64, 0
3, 23751, Note_on_c, 1, 45, 0
3, 23760, Note_on_c, 1, 54, 113
3, 23760, Note_on_c, 1, 42, 113
3, 23779, Control_c, 1, 64, 127
3, 23812, Note_on_c, 1, 42, 0
3, 23823, Note_on_c, 1, 54, 0
3, 23850, Note_on_c, 1, 42, 89
3, 23850, Note_on_c, 1, 54, 107
3, 23852, Control_c, 1, 64, 0
3, 23868, Note_on_c, 1, 54, 0
3, 23868, Note_on_c, 1, 42, 0
3, 23880, Note_on_c, 1, 38, 98
3, 23880, Note_on_c, 1, 50, 107
3, 23891, Control_c, 1, 64, 127
3, 23925, Note_on_c, 1, 50, 0
3, 23925, Note_on_c, 1, 38, 0
3, 23970, Note_on_c, 1, 38, 85
3, 23970, Note_on_c, 1, 50, 102
3, 23987, Note_on_c, 1, 50, 0
3, 23987, Control_c, 1, 64, 0
3, 23990, Note_on_c, 1, 38, 0
3, 24000, Note_on_c, 1, 57, 119
3, 24000, Note_on_c, 1, 45, 113
3, 24017, Control_c, 1, 64, 127
3, 24075, Note_on_c, 1, 57, 0
3, 24084, Note_on_c, 1, 45, 0
3, 24102, Control_c, 1, 64, 0
3, 24120, Note_on_c, 1, 42, 107
3, 24139, Control_c, 1, 64, 127
3, 24180, Note_on_c, 1, 54, 113
3, 24221, Note_on_c, 1, 54, 0
3, 24224, Control_c, 1, 64, 0
3, 24239, Note_on_c, 1, 42, 0
3, 24240, Note_on_c, 1, 43, 113
3, 24276, Control_c, 1, 64, 127
3, 24300, Note_on_c, 1, 55, 113
3, 24341, Note_on_c, 1, 55, 0
3, 24357, Control_c, 1, 64, 0
3, 24360, Note_on_c, 1, 43, 0
3, 24360, Note_on_c, 1, 44, 113
3, 24410, Control_c, 1, 64, 127
3, 24420, Note_on_c, 1, 56, 119
3, 24467, Note_on_c, 1, 56, 0
3, 24477, Control_c, 1, 64, 0
3, 24480, Note_on_c, 1, 44, 0
3, 24480, Note_on_c, 1, 45, 119
3, 24519, Control_c, 1, 64, 127
3, 24540, Note_on_c, 1, 57, 127
3, 24590, Note_on_c, 1, 45, 0
3, 24600, Note_on_c, 1, 46, 119
3, 24602, Note_on_c, 1, 57, 0
3, 24603, Control_c, 1, 64, 0
3, 24646, Control_c, 1, 64, 127
3, 24660, Note_on_c, 1, 58, 127
3, 24700, Note_on_c, 1, 46, 0
3, 24714, Note_on_c, 1, 58, 0
3, 24720, Note_on_c, 1, 47, 119
3, 24722, Control_c, 1, 64, 0
3, 24752, Control_c, 1, 64, 127
3, 24780, Note_on_c, 1, 59, 119
3, 24809, Note_on_c, 1, 59, 0
3, 24831, Note_on_c, 1, 47, 0
3, 24837, Control_c, 1, 64, 0
3, 24840, Note_on_c, 1, 49, 113
3, 24863, Control_c, 1, 64, 127
3, 24880, Note_on_c, 1, 49, 0
3, 24900, Note_on_c, 1, 61, 98
3, 24916, Note_on_c, 1, 61, 0
3, 24946, Control_c, 1, 64, 0
3, 24960, Note_on_c, 1, 57, 113
3, 24960, Note_on_c, 1, 54, 113
3, 24960, Note_on_c, 1, 50, 113
3, 24960, Note_on_c, 1, 38, 119
3, 24978, Control_c, 1, 64, 127
3, 25080, Note_on_c, 1, 38, 0
3, 25081, Control_c, 1, 64, 0
3, 25083, Note_on_c, 1, 50, 0
3, 25085, Note_on_c, 1, 54, 0
3, 25087, Note_on_c, 1, 57, 0
3, 25260, Note_on_c, 1, 42, 113
3, 25260, Note_on_c, 1, 54, 119
3, 25282, Note_on_c, 1, 54, 0
3, 25290, Note_on_c, 1, 55, 93
3, 25290, Note_on_c, 1, 43, 113
3, 25298, Note_on_c, 1, 42, 0
3, 25311, Note_on_c, 1, 55, 0
3, 25319, Note_on_c, 1, 43, 0
3, 25320, Note_on_c, 1, 57, 107
3, 25320, Note_on_c, 1, 45, 119
3, 25341, Note_on_c, 1, 57, 0
3, 25348, Note_on_c, 1, 45, 0
3, 25350, Note_on_c, 1, 55, 93
3, 25350, Note_on_c, 1, 43, 89
3, 25370, Note_on_c, 1, 55, 0
3, 25380, Note_on_c, 1, 43, 0
3, 25380, Note_on_c, 1, 54, 107
3, 25380, Note_on_c, 1, 42, 85
3, 25400, Note_on_c, 1, 54, 0
3, 25410, Note_on_c, 1, 52, 98
3, 25410, Note_on_c, 1, 40, 93
3, 25422, Note_on_c, 1, 42, 0
3, 25430, Note_on_c, 1, 52, 0
3, 25434, Note_on_c, 1, 40, 0
3, 25440, Note_on_c, 1, 50, 113
3, 25440, Note_on_c, 1, 38, 107
3, 25457, Note_on_c, 1, 50, 0
3, 25458, Note_on_c, 1, 38, 0
3, 25500, Note_on_c, 1, 40, 107
3, 25500, Note_on_c, 1, 52, 107
3, 25516, Note_on_c, 1, 40, 0
3, 25517, Note_on_c, 1, 52, 0
3, 25560, Note_on_c, 1, 42, 102
3, 25560, Note_on_c, 1, 54, 113
3, 25577, Note_on_c, 1, 54, 0
3, 25578, Note_on_c, 1, 42, 0
3, 25620, Note_on_c, 1, 55, 113
3, 25620, Note_on_c, 1, 43, 107
3, 25638, Note_on_c, 1, 55, 0
3, 25645, Note_on_c, 1, 43, 0
3, 25680, Note_on_c, 1, 57, 107
3, 25680, Note_on_c, 1, 45, 93
3, 25698, Note_on_c, 1, 57, 0
3, 25701, Note_on_c, 1, 45, 0
3, 25740, Note_on_c, 1, 59, 98
3, 25740, Note_on_c, 1, 47, 98
3, 25758, Note_on_c, 1, 59, 0
3, 25760, Note_on_c, 1, 47, 0
3, 25800, Note_on_c, 1, 61, 107
3, 25800, Note_on_c, 1, 49, 93
3, 25818, Note_on_c, 1, 61, 0
3, 25820, Note_on_c, 1, 49, 0
3, 25860, Note_on_c, 1, 50, 107
3, 25860, Note_on_c, 1, 62, 107
3, 25874, Note_on_c, 1, 62, 0
3, 25875, Note_on_c, 1, 50, 0
3, 25920, Note_on_c, 1, 55, 89
3, 25920, Note_on_c, 1, 43, 72
3, 25944, Control_c, 1, 64, 127
3, 25978, Note_on_c, 1, 55, 0
3, 25980, Note_on_c, 1, 43, 0
3, 25980, Note_on_c, 1, 52, 80
3, 25980, Note_on_c, 1, 40, 76
3, 25989, Control_c, 1, 64, 0
3, 26010, Control_c, 1, 64, 127
3, 26038, Note_on_c, 1, 40, 0
3, 26038, Note_on_c, 1, 52, 0
3, 26040, Note_on_c, 1, 49, 76
3, 26040, Note_on_c, 1, 37, 72
3, 26042, Control_c, 1, 64, 0
3, 26064, Control_c, 1, 64, 127
3, 26096, Control_c, 1, 64, 0
3, 26097, Note_on_c, 1, 49, 0
3, 26098, Note_on_c, 1, 37, 0
3, 26100, Note_on_c, 1, 33, 85
3, 26100, Note_on_c, 1, 45, 72
3, 26118, Control_c, 1, 64, 127
3, 26155, Note_on_c, 1, 45, 0
3, 26159, Control_c, 1, 64, 0
3, 26160, Note_on_c, 1, 33, 0
3, 26160, Note_on_c, 1, 55, 89
3, 26160, Note_on_c, 1, 43, 76
3, 26182, Control_c, 1, 64, 127
3, 26215, Note_on_c, 1, 55, 0
3, 26219, Control_c, 1, 64, 0
3, 26220, Note_on_c, 1, 43, 0
3, 26220, Note_on_c, 1, 52, 93
3, 26220, Note_on_c, 1, 40, 80
3, 26244, Control_c, 1, 64, 127
3, 26274, Note_on_c, 1, 52, 0
3, 26277, Note_on_c, 1, 40, 0
3, 26280, Note_on_c, 1, 49, 76
3, 26280, Note_on_c, 1, 37, 76
3, 26295, Control_c, 1, 64, 0
3, 26321, Control_c, 1, 64, 127
3, 26334, Note_on_c, 1, 49, 0
3, 26340, Note_on_c, 1, 37, 0
3, 26340, Note_on_c, 1, 33, 93
3, 26340, Note_on_c, 1, 45, 89
3, 26355, Note_on_c, 1, 45, 0
3, 26355, Note_on_c, 1, 33, 0
3, 26392, Control_c, 1, 64, 0
3, 26400, Note_on_c, 1, 38, 102
3, 26400, Note_on_c, 1, 50, 113
3, 26417, Note_on_c, 1, 50, 0
3, 26419, Note_on_c, 1, 38, 0
3, 26460, Note_on_c, 1, 52, 102
3, 26460, Note_on_c, 1, 40, 98
3, 26479, Note_on_c, 1, 40, 0
3, 26479, Note_on_c, 1, 52, 0
3, 26520, Note_on_c, 1, 42, 89
3, 26520, Note_on_c, 1, 54, 113
3, 26537, Note_on_c, 1, 54, 0
3, 26540, Note_on_c, 1, 42, 0
3, 26580, Note_on_c, 1, 55, 113
3, 26580, Note_on_c, 1, 43, 98
3, 26598, Note_on_c, 1, 55, 0
3, 26604, Note_on_c, 1, 43, 0
3, 26640, Note_on_c, 1, 57, 107
3, 26640, Note_on_c, 1, 45, 102
3, 26661, Note_on_c, 1, 57, 0
3, 26663, Note_on_c, 1, 45, 0
3, 26700, Note_on_c, 1, 59, 107
3, 26700, Note_on_c, 1, 47, 98
3, 26719, Note_on_c, 1, 59, 0
3, 26722, Note_on_c, 1, 47, 0
3, 26760, Note_on_c, 1, 61, 107
3, 26760, Note_on_c, 1, 49, 93
3, 26780, Note_on_c, 1, 61, 0
3, 26782, Note_on_c, 1, 49, 0
3, 26820, Note_on_c, 1, 62, 107
3, 26820, Note_on_c, 1, 50, 113
3, 26835, Note_on_c, 1, 50, 0
3, 26835, Note_on_c, 1, 62, 0
3, 26880, Note_on_c, 1, 55, 89
3, 26880, Note_on_c, 1, 43, 85
3, 26898, Control_c, 1, 64, 127
3, 26937, Note_on_c, 1, 55, 0
3, 26940, Note_on_c, 1, 52, 76
3, 26940, Note_on_c, 1, 40, 85
3, 26941, Note_on_c, 1, 43, 0
3, 26943, Control_c, 1, 64, 0
3, 26967, Control_c, 1, 64, 127
3, 26996, Control_c, 1, 64, 0
3, 26997, Note_on_c, 1, 52, 0
3, 26999, Note_on_c, 1, 40, 0
3, 27000, Note_on_c, 1, 37, 80
3, 27000, Note_on_c, 1, 49, 76
3, 27017, Control_c, 1, 64, 127
3, 27050, Control_c, 1, 64, 0
3, 27056, Note_on_c, 1, 49, 0
3, 27059, Note_on_c, 1, 37, 0
3, 27060, Note_on_c, 1, 45, 80
3, 27060, Note_on_c, 1, 33, 80
3, 27076, Control_c, 1, 64, 127
3, 27112, Note_on_c, 1, 45, 0
3, 27112, Control_c, 1, 64, 0
3, 27120, Note_on_c, 1, 33, 0
3, 27120, Note_on_c, 1, 43, 76
3, 27120, Note_on_c, 1, 55, 89
3, 27141, Control_c, 1, 64, 127
3, 27176, Note_on_c, 1, 55, 0
3, 27180, Note_on_c, 1, 52, 80
3, 27180, Note_on_c, 1, 40, 89
3, 27181, Note_on_c, 1, 43, 0
3, 27181, Control_c, 1, 64, 0
3, 27238, Note_on_c, 1, 52, 0
3, 27240, Note_on_c, 1, 40, 0
3, 27240, Note_on_c, 1, 49, 76
3, 27240, Note_on_c, 1, 37, 76
3, 27241, Control_c, 1, 64, 127
3, 27297, Note_on_c, 1, 37, 0
3, 27300, Note_on_c, 1, 33, 80
3, 27300, Note_on_c, 1, 45, 80
3, 27301, Note_on_c, 1, 49, 0
3, 27329, Note_on_c, 1, 45, 0
3, 27331, Control_c, 1, 64, 0
3, 27348, Note_on_c, 1, 33, 0
3, 27357, Control_c, 1, 64, 127
3, 27360, Note_on_c, 1, 50, 93
3, 27360, Note_on_c, 1, 38, 89
3, 27384, Note_on_c, 1, 50, 0
3, 27420, Note_on_c, 1, 38, 0
3, 27420, Note_on_c, 1, 62, 80
3, 27440, Note_on_c, 1, 62, 0
3, 27475, Control_c, 1, 64, 0
3, 27480, Note_on_c, 1, 62, 76
3, 27493, Control_c, 1, 64, 127
3, 27523, Note_on_c, 1, 62, 0
3, 27540, Note_on_c, 1, 62, 76
3, 27568, Note_on_c, 1, 62, 0
3, 27600, Note_on_c, 1, 62, 93
3, 27641, Note_on_c, 1, 62, 0
3, 27660, Note_on_c, 1, 62, 107
3, 27703, Note_on_c, 1, 62, 0
3, 27720, Note_on_c, 1, 62, 107
3, 27762, Note_on_c, 1, 62, 0
3, 27780, Note_on_c, 1, 62, 93
3, 27819, Note_on_c, 1, 62, 0
3, 27840, Note_on_c, 1, 62, 89
3, 27878, Note_on_c, 1, 62, 0
3, 27900, Note_on_c, 1, 62, 93
3, 27940, Note_on_c, 1, 62, 0
3, 27960, Note_on_c, 1, 62, 102
3, 27997, Note_on_c, 1, 62, 0
3, 28020, Note_on_c, 1, 62, 102
3, 28049, Note_on_c, 1, 62, 0
3, 28080, Note_on_c, 1, 62, 113
3, 28120, Note_on_c, 1, 62, 0
3, 28140, Note_on_c, 1, 62, 113
3, 28168, Note_on_c, 1, 62, 0
3, 28200, Note_on_c, 1, 62, 113
3, 28219, Note_on_c, 1, 62, 0
3, 28260, Note_on_c, 1, 62, 113
3, 28280, Note_on_c, 1, 62, 0
3, 28319, Control_c, 1, 64, 0
3, 28320, Note_on_c, 1, 66, 113
3, 28320, Note_on_c, 1, 38, 89
3, 28320, Note_on_c, 1, 62, 113
3, 28320, Note_on_c, 1, 50, 89
3, 28340, Control_c, 1, 64, 127
3, 28359, Note_on_c, 1, 50, 0
3, 28363, Note_on_c, 1, 38, 0
3, 28380, Note_on_c, 1, 50, 80
3, 28406, Note_on_c, 1, 66, 0
3, 28407, Note_on_c, 1, 50, 0
3, 28410, Note_on_c, 1, 62, 0
3, 28440, Note_on_c, 1, 50, 93
3, 28466, Note_on_c, 1, 50, 0
3, 28500, Note_on_c, 1, 67, 102
3, 28500, Note_on_c, 1, 64, 98
3, 28500, Note_on_c, 1, 50, 93
3, 28517, Note_on_c, 1, 64, 0
3, 28520, Note_on_c, 1, 67, 0
3, 28523, Note_on_c, 1, 50, 0
3, 28530, Note_on_c, 1, 66, 72
3, 28530, Note_on_c, 1, 62, 93
3, 28543, Note_on_c, 1, 62, 0
3, 28546, Control_c, 1, 64, 0
3, 28550, Note_on_c, 1, 66, 0
3, 28560, Note_on_c, 1, 50, 89
3, 28560, Note_on_c, 1, 61, 113
3, 28560, Note_on_c, 1, 64, 107
3, 28563, Control_c, 1, 64, 127
3, 28578, Note_on_c, 1, 61, 0
3, 28580, Note_on_c, 1, 64, 0
3, 28584, Control_c, 1, 64, 0
3, 28586, Note_on_c, 1, 50, 0
3, 28620, Note_on_c, 1, 66, 98
3, 28620, Note_on_c, 1, 62, 102
3, 28620, Note_on_c, 1, 50, 93
3, 28634, Note_on_c, 1, 62, 0
3, 28642, Note_on_c, 1, 50, 0
3, 28642, Note_on_c, 1, 66, 0
3, 28672, Control_c, 1, 64, 127
3, 28680, Note_on_c, 1, 64, 102
3, 28680, Note_on_c, 1, 67, 102
3, 28680, Note_on_c, 1, 50, 93
3, 28695, Control_c, 1, 64, 0
3, 28696, Note_on_c, 1, 67, 0
3, 28696, Note_on_c, 1, 64, 0
3, 28699, Note_on_c, 1, 50, 0
3, 28732, Control_c, 1, 64, 127
3, 28740, Note_on_c, 1, 50, 93
3, 28740, Note_on_c, 1, 69, 107
3, 28740, Note_on_c, 1, 66, 107
3, 28754, Note_on_c, 1, 69, 0
3, 28756, Note_on_c, 1, 66, 0
3, 28760, Note_on_c, 1, 50, 0
3, 28770, Control_c, 1, 64, 0
3, 28800, Note_on_c, 1, 67, 107
3, 28800, Note_on_c, 1, 71, 102
3, 28800, Note_on_c, 1, 38, 93
3, 28800, Note_on_c, 1, 50, 89
3, 28802, Control_c, 1, 64, 127
3, 28825, Note_on_c, 1, 38, 0
3, 28829, Note_on_c, 1, 71, 0
3, 28831, Note_on_c, 1, 67, 0
3, 28834, Note_on_c, 1, 50, 0
3, 28854, Control_c, 1, 64, 0
3, 28860, Note_on_c, 1, 69, 89
3, 28860, Note_on_c, 1, 66, 76
3, 28860, Note_on_c, 1, 50, 89
3, 28877, Control_c, 1, 64, 127
3, 28887, Note_on_c, 1, 66, 0
3, 28893, Note_on_c, 1, 69, 0
3, 28898, Note_on_c, 1, 50, 0
3, 28906, Control_c, 1, 64, 0
3, 28920, Note_on_c, 1, 67, 98
3, 28920, Note_on_c, 1, 50, 89
3, 28920, Note_on_c, 1, 64, 89
3, 28935, Note_on_c, 1, 64, 0
3, 28936, Note_on_c, 1, 67, 0
3, 28940, Note_on_c, 1, 50, 0
3, 28980, Note_on_c, 1, 50, 89
3, 28980, Note_on_c, 1, 62, 98
3, 28980, Note_on_c, 1, 66, 89
3, 28994, Note_on_c, 1, 66, 0
3, 28994, Note_on_c, 1, 62, 0
3, 29000, Note_on_c, 1, 50, 0
3, 29040, Note_on_c, 1, 50, 85
3, 29040, Note_on_c, 1, 67, 107
3, 29040, Note_on_c, 1, 71, 113
3, 29040, Note_on_c, 1, 38, 89
3, 29040, Control_c, 1, 64, 127
3, 29049, Note_on_c, 1, 38, 0
3, 29080, Control_c, 1, 64, 0
3, 29083, Note_on_c, 1, 71, 0
3, 29087, Note_on_c, 1, 67, 0
3, 29091, Note_on_c, 1, 50, 0
3, 29100, Note_on_c, 1, 50, 102
3, 29100, Note_on_c, 1, 66, 98
3, 29100, Note_on_c, 1, 69, 98
3, 29100, Control_c, 1, 64, 127
3, 29116, Note_on_c, 1, 66, 0
3, 29120, Note_on_c, 1, 69, 0
3, 29120, Note_on_c, 1, 50, 0
3, 29135, Control_c, 1, 64, 0
3, 29160, Note_on_c, 1, 50, 93
3, 29160, Note_on_c, 1, 64, 93
3, 29160, Note_on_c, 1, 67, 93
3, 29175, Note_on_c, 1, 67, 0
3, 29175, Note_on_c, 1, 64, 0
3, 29179, Note_on_c, 1, 50, 0
3, 29203, Control_c, 1, 64, 127
3, 29220, Note_on_c, 1, 50, 93
3, 29220, Note_on_c, 1, 62, 102
3, 29220, Note_on_c, 1, 66, 98
3, 29233, Note_on_c, 1, 66, 0
3, 29234, Note_on_c, 1, 62, 0
3, 29234, Note_on_c, 1, 50, 0
3, 29258, Control_c, 1, 64, 0
3, 29280, Note_on_c, 1, 59, 127
3, 29300, Control_c, 1, 64, 127
3, 29354, Note_on_c, 1, 59, 0
3, 29370, Note_on_c, 1, 59, 107
3, 29385, Note_on_c, 1, 59, 0
3, 29392, Control_c, 1, 64, 0
3, 29400, Note_on_c, 1, 57, 113
3, 29400, Note_on_c, 1, 42, 89
3, 29421, Control_c, 1, 64, 127
3, 29462, Note_on_c, 1, 57, 0
3, 29490, Note_on_c, 1, 57, 93
3, 29501, Note_on_c, 1, 42, 0
3, 29506, Note_on_c, 1, 57, 0
3, 29508, Control_c, 1, 64, 0
3, 29520, Note_on_c, 1, 40, 93
3, 29520, Note_on_c, 1, 55, 113
3, 29538, Control_c, 1, 64, 127
3, 29588, Note_on_c, 1, 55, 0
3, 29610, Note_on_c, 1, 55, 89
3, 29625, Note_on_c, 1, 55, 0
3, 29627, Note_on_c, 1, 40, 0
3, 29630, Control_c, 1, 64, 0
3, 29640, Note_on_c, 1, 54, 119
3, 29640, Note_on_c, 1, 39, 113
3, 29660, Control_c, 1, 64, 127
3, 29711, Note_on_c, 1, 54, 0
3, 29730, Note_on_c, 1, 54, 107
3, 29747, Note_on_c, 1, 54, 0
3, 29749, Note_on_c, 1, 39, 0
3, 29751, Control_c, 1, 64, 0
3, 29760, Note_on_c, 1, 40, 107
3, 29760, Note_on_c, 1, 55, 98
3, 29783, Control_c, 1, 64, 127
3, 29817, Note_on_c, 1, 55, 0
3, 29850, Note_on_c, 1, 55, 107
3, 29867, Note_on_c, 1, 55, 0
3, 29869, Control_c, 1, 64, 0
3, 29870, Note_on_c, 1, 40, 0
3, 29880, Note_on_c, 1, 54, 119
3, 29880, Note_on_c, 1, 39, 102
3, 29899, Control_c, 1, 64, 127
3, 29938, Note_on_c, 1, 54, 0
3, 29970, Note_on_c, 1, 54, 113
3, 29984, Control_c, 1, 64, 0
3, 29988, Note_on_c, 1, 54, 0
3, 29990, Note_on_c, 1, 39, 0
3, 30000, Note_on_c, 1, 55, 107
3, 30000, Note_on_c, 1, 40, 113
3, 30016, Control_c, 1, 64, 127
3, 30066, Note_on_c, 1, 55, 0
3, 30090, Note_on_c, 1, 55, 98
3, 30108, Note_on_c, 1, 55, 0
3, 30109, Note_on_c, 1, 40, 0
3, 30111, Control_c, 1, 64, 0
3, 30120, Note_on_c, 1, 56, 113
3, 30120, Note_on_c, 1, 38, 93
3, 30141, Control_c, 1, 64, 127
3, 30180, Note_on_c, 1, 56, 0
3, 30210, Note_on_c, 1, 56, 107
3, 30223, Note_on_c, 1, 38, 0
3, 30228, Note_on_c, 1, 56, 0
3, 30228, Control_c, 1, 64, 0
3, 30240, Note_on_c, 1, 57, 113
3, 30240, Note_on_c, 1, 37, 113
3, 30259, Control_c, 1, 64, 127
3, 30297, Note_on_c, 1, 57, 0
3, 30330, Note_on_c, 1, 57, 102
3, 30349, Note_on_c, 1, 57, 0
3, 30352, Control_c, 1, 64, 0
3, 30356, Note_on_c, 1, 37, 0
3, 30360, Note_on_c, 1, 55, 107
3, 30360, Note_on_c, 1, 40, 98
3, 30381, Control_c, 1, 64, 127
3, 30426, Note_on_c, 1, 55, 0
3, 30450, Note_on_c, 1, 55, 93
3, 30467, Note_on_c, 1, 55, 0
3, 30467, Note_on_c, 1, 40, 0
3, 30469, Control_c, 1, 64, 0
3, 30480, Note_on_c, 1, 38, 93
3, 30480, Note_on_c, 1, 54, 113
3, 30501, Control_c, 1, 64, 127
3, 30543, Note_on_c, 1, 54, 0
3, 30570, Note_on_c, 1, 54, 113
3, 30587, Control_c, 1, 64, 0
3, 30588, Note_on_c, 1, 54, 0
3, 30588, Note_on_c, 1, 38, 0
3, 30600, Note_on_c, 1, 52, 107
3, 30600, Note_on_c, 1, 37, 107
3, 30618, Control_c, 1, 64, 127
3, 30666, Note_on_c, 1, 52, 0
3, 30690, Note_on_c, 1, 52, 107
3, 30705, Note_on_c, 1, 52, 0
3, 30707, Control_c, 1, 64, 0
3, 30716, Note_on_c, 1, 37, 0
3, 30720, Note_on_c, 1, 38, 107
3, 30720, Note_on_c, 1, 54, 107
3, 30737, Control_c, 1, 64, 127
3, 30781, Note_on_c, 1, 54, 0
3, 30810, Note_on_c, 1, 54, 113
3, 30822, Note_on_c, 1, 38, 0
3, 30823, Control_c, 1, 64, 0
3, 30827, Note_on_c, 1, 54, 0
3, 30840, Note_on_c, 1, 52, 113
3, 30840, Note_on_c, 1, 37, 107
3, 30853, Control_c, 1, 64, 127
3, 30907, Note_on_c, 1, 52, 0
3, 30930, Note_on_c, 1, 52, 107
3, 30945, Note_on_c, 1, 52, 0
3, 30945, Control_c, 1, 64, 0
3, 30954, Note_on_c, 1, 37, 0
3, 30960, Note_on_c, 1, 38, 102
3, 30960, Note_on_c, 1, 54, 113
3, 30974, Control_c, 1, 64, 127
3, 31011, Note_on_c, 1, 54, 0
3, 31050, Note_on_c, 1, 54, 107
3, 31062, Note_on_c, 1, 38, 0
3, 31064, Control_c, 1, 64, 0
3, 31069, Note_on_c, 1, 54, 0
3, 31080, Note_on_c, 1, 42, 107
3, 31080, Note_on_c, 1, 50, 113
3, 31093, Control_c, 1, 64, 127
3, 31138, Note_on_c, 1, 50, 0
3, 31170, Note_on_c, 1, 50, 102
3, 31177, Control_c, 1, 64, 0
3, 31186, Note_on_c, 1, 50, 0
3, 31188, Note_on_c, 1, 42, 0
3, 31200, Note_on_c, 1, 43, 107
3, 31200, Note_on_c, 1, 55, 113
3, 31208, Control_c, 1, 64, 127
3, 31259, Note_on_c, 1, 55, 0
3, 31290, Note_on_c, 1, 55, 98
3, 31303, Control_c, 1, 64, 0
3, 31308, Note_on_c, 1, 55, 0
3, 31310, Note_on_c, 1, 43, 0
3, 31320, Note_on_c, 1, 54, 113
3, 31320, Note_on_c, 1, 42, 107
3, 31332, Control_c, 1, 64, 127
3, 31386, Note_on_c, 1, 54, 0
3, 31410, Note_on_c, 1, 54, 113
3, 31420, Control_c, 1, 64, 0
3, 31429, Note_on_c, 1, 54, 0
3, 31433, Note_on_c, 1, 42, 0
3, 31440, Note_on_c, 1, 52, 113
3, 31440, Note_on_c, 1, 40, 93
3, 31452, Control_c, 1, 64, 127
3, 31511, Note_on_c, 1, 52, 0
3, 31530, Note_on_c, 1, 52, 107
3, 31539, Control_c, 1, 64, 0
3, 31546, Note_on_c, 1, 52, 0
3, 31551, Note_on_c, 1, 40, 0
3, 31560, Note_on_c, 1, 38, 102
3, 31560, Note_on_c, 1, 50, 107
3, 31567, Control_c, 1, 64, 127
3, 31613, Note_on_c, 1, 50, 0
3, 31622, Note_on_c, 1, 38, 0
3, 31650, Note_on_c, 1, 50, 113
3, 31665, Note_on_c, 1, 50, 0
3, 31668, Control_c, 1, 64, 0
3, 31680, Note_on_c, 1, 45, 119
3, 31680, Note_on_c, 1, 57, 107
3, 31697, Control_c, 1, 64, 127
3, 31797, Note_on_c, 1, 57, 0
3, 31800, Note_on_c, 1, 45, 0
3, 31801, Control_c, 1, 64, 0
3, 32040, Note_on_c, 1, 43, 107
3, 32040, Note_on_c, 1, 55, 113
3, 32040, Control_c, 1, 64, 127
3, 32064, Note_on_c, 1, 55, 0
3, 32070, Note_on_c, 1, 43, 0
3, 32070, Note_on_c, 1, 54, 93
3, 32070, Note_on_c, 1, 42, 80
3, 32072, Control_c, 1, 64, 0
3, 32092, Note_on_c, 1, 54, 0
3, 32100, Note_on_c, 1, 52, 107
3, 32100, Note_on_c, 1, 40, 102
3, 32105, Note_on_c, 1, 42, 0
3, 32122, Note_on_c, 1, 52, 0
3, 32127, Note_on_c, 1, 40, 0
3, 32130, Note_on_c, 1, 50, 113
3, 32130, Note_on_c, 1, 38, 85
3, 32149, Note_on_c, 1, 50, 0
3, 32152, Note_on_c, 1, 38, 0
3, 32160, Note_on_c, 1, 57, 113
3, 32160, Note_on_c, 1, 45, 119
3, 32177, Control_c, 1, 64, 127
3, 32263, Control_c, 1, 64, 0
3, 32266, Note_on_c, 1, 45, 0
3, 32266, Note_on_c, 1, 57, 0
3, 32520, Note_on_c, 1, 43, 107
3, 32520, Note_on_c, 1, 55, 113
3, 32531, Control_c, 1, 64, 127
3, 32542, Note_on_c, 1, 55, 0
3, 32546, Control_c, 1, 64, 0
3, 32548, Note_on_c, 1, 43, 0
3, 32550, Note_on_c, 1, 54, 102
3, 32550, Note_on_c, 1, 42, 68
3, 32568, Note_on_c, 1, 54, 0
3, 32579, Note_on_c, 1, 42, 0
3, 32580, Note_on_c, 1, 52, 107
3, 32580, Note_on_c, 1, 40, 98
3, 32600, Note_on_c, 1, 52, 0
3, 32610, Note_on_c, 1, 50, 113
3, 32610, Note_on_c, 1, 38, 93
3, 32612, Note_on_c, 1, 40, 0
3, 32628, Note_on_c, 1, 38, 0
3, 32630, Note_on_c, 1, 50, 0
3, 32640, Note_on_c, 1, 57, 113
3, 32640, Note_on_c, 1, 45, 119
3, 32652, Control_c, 1, 64, 127
3, 32671, Note_on_c, 1, 57, 0
3, 32677, Note_on_c, 1, 45, 0
3, 32740, Control_c, 1, 64, 0
3, 32760, Note_on_c, 1, 52, 113
3, 32760, Note_on_c, 1, 45, 113
3, 32760, Note_on_c, 1, 49, 119
3, 32760, Note_on_c, 1, 33, 113
3, 32777, Control_c, 1, 64, 127
3, 32807, Note_on_c, 1, 52, 0
3, 32808, Note_on_c, 1, 49, 0
3, 32811, Note_on_c, 1, 45, 0
3, 32811, Note_on_c, 1, 33, 0
3, 32857, Control_c, 1, 64, 0
3, 32880, Note_on_c, 1, 45, 113
3, 32880, Note_on_c, 1, 49, 119
3, 32880, Note_on_c, 1, 52, 113
3, 32880, Note_on_c, 1, 33, 107
3, 32891, Control_c, 1, 64, 127
3, 32900, Note_on_c, 1, 33, 0
3, 32900, Note_on_c, 1, 45, 0
3, 32904, Note_on_c, 1, 52, 0
3, 32904, Note_on_c, 1, 49, 0
3, 33016, Control_c, 1, 64, 0
3, 33120, Note_on_c, 1, 54, 59
3, 33120, Note_on_c, 1, 38, 64
3, 33120, Note_on_c, 1, 50, 72
3, 33130, Control_c, 1, 64, 127
3, 33147, Note_on_c, 1, 50, 0
3, 33156, Note_on_c, 1, 54, 0
3, 33180, Note_on_c, 1, 54, 48
3, 33180, Note_on_c, 1, 50, 62
3, 33185, Note_on_c, 1, 38, 0
3, 33204, Note_on_c, 1, 50, 0
3, 33208, Note_on_c, 1, 54, 0
3, 33240, Note_on_c, 1, 54, 48
3, 33240, Note_on_c, 1, 50, 64
3, 33246, Control_c, 1, 64, 0
3, 33270, Control_c, 1, 64, 127
3, 33273, Note_on_c, 1, 50, 0
3, 33281, Note_on_c, 1, 54, 0
3, 33300, Note_on_c, 1, 54, 55
3, 33300, Note_on_c, 1, 50, 62
3, 33327, Note_on_c, 1, 50, 0
3, 33329, Note_on_c, 1, 54, 0
3, 33360, Note_on_c, 1, 54, 55
3, 33360, Note_on_c, 1, 50, 64
3, 33385, Note_on_c, 1, 50, 0
3, 33386, Note_on_c, 1, 54, 0
3, 33420, Note_on_c, 1, 50, 62
3, 33420, Note_on_c, 1, 54, 55
3, 33448, Note_on_c, 1, 50, 0
3, 33451, Note_on_c, 1, 54, 0
3, 33480, Note_on_c, 1, 54, 60
3, 33480, Note_on_c, 1, 50, 64
3, 33506, Note_on_c, 1, 50, 0
3, 33508, Note_on_c, 1, 54, 0
3, 33540, Note_on_c, 1, 54, 56
3, 33540, Note_on_c, 1, 50, 56
3, 33560, Note_on_c, 1, 50, 0
3, 33564, Note_on_c, 1, 54, 0
3, 33600, Note_on_c, 1, 33, 57
3, 33600, Note_on_c, 1, 52, 62
3, 33600, Note_on_c, 1, 49, 51
3, 33604, Control_c, 1, 64, 0
3, 33626, Control_c, 1, 64, 127
3, 33634, Note_on_c, 1, 49, 0
3, 33636, Note_on_c, 1, 52, 0
3, 33660, Note_on_c, 1, 49, 45
3, 33660, Note_on_c, 1, 52, 64
3, 33681, Note_on_c, 1, 52, 0
3, 33683, Note_on_c, 1, 33, 0
3, 33684, Note_on_c, 1, 49, 0
3, 33720, Note_on_c, 1, 49, 48
3, 33720, Note_on_c, 1, 55, 62
3, 33729, Control_c, 1, 64, 0
3, 33750, Control_c, 1, 64, 127
3, 33760, Note_on_c, 1, 55, 0
3, 33761, Note_on_c, 1, 49, 0
3, 33780, Note_on_c, 1, 55, 64
3, 33780, Note_on_c, 1, 49, 35
3, 33798, Note_on_c, 1, 49, 0
3, 33801, Note_on_c, 1, 55, 0
3, 33840, Note_on_c, 1, 49, 41
3, 33840, Note_on_c, 1, 52, 76
3, 33847, Control_c, 1, 64, 0
3, 33866, Control_c, 1, 64, 127
3, 33873, Note_on_c, 1, 52, 0
3, 33879, Note_on_c, 1, 49, 0
3, 33900, Note_on_c, 1, 49, 39
3, 33900, Note_on_c, 1, 52, 64
3, 33920, Note_on_c, 1, 52, 0
3, 33923, Note_on_c, 1, 49, 0
3, 33960, Note_on_c, 1, 49, 56
3, 33960, Note_on_c, 1, 55, 62
3, 33963, Control_c, 1, 64, 0
3, 33983, Control_c, 1, 64, 127
3, 33990, Note_on_c, 1, 55, 0
3, 33995, Note_on_c, 1, 49, 0
3, 34020, Note_on_c, 1, 49, 51
3, 34020, Note_on_c, 1, 55, 59
3, 34042, Note_on_c, 1, 55, 0
3, 34044, Note_on_c, 1, 49, 0
3, 34078, Control_c, 1, 64, 0
3, 34080, Note_on_c, 1, 54, 57
3, 34080, Note_on_c, 1, 50, 76
3, 34080, Note_on_c, 1, 38, 60
3, 34101, Control_c, 1, 64, 127
3, 34117, Note_on_c, 1, 50, 0
3, 34122, Note_on_c, 1, 54, 0
3, 34140, Note_on_c, 1, 54, 51
3, 34140, Note_on_c, 1, 50, 60
3, 34159, Note_on_c, 1, 50, 0
3, 34161, Note_on_c, 1, 38, 0
3, 34167, Note_on_c, 1, 54, 0
3, 34200, Note_on_c, 1, 54, 52
3, 34200, Note_on_c, 1, 50, 60
3, 34206, Control_c, 1, 64, 0
3, 34226, Control_c, 1, 64, 127
3, 34235, Note_on_c, 1, 50, 0
3, 34242, Note_on_c, 1, 54, 0
3, 34260, Note_on_c, 1, 54, 50
3, 34260, Note_on_c, 1, 50, 49
3, 34284, Note_on_c, 1, 50, 0
3, 34293, Note_on_c, 1, 54, 0
3, 34320, Note_on_c, 1, 54, 56
3, 34320, Note_on_c, 1, 50, 64
3, 34345, Note_on_c, 1, 50, 0
3, 34353, Note_on_c, 1, 54, 0
3, 34380, Note_on_c, 1, 54, 56
3, 34380, Note_on_c, 1, 50, 60
3, 34406, Note_on_c, 1, 50, 0
3, 34407, Note_on_c, 1, 54, 0
3, 34440, Note_on_c, 1, 54, 60
3, 34440, Note_on_c, 1, 50, 72
3, 34470, Note_on_c, 1, 50, 0
3, 34470, Note_on_c, 1, 54, 0
3, 34500, Note_on_c, 1, 54, 59
3, 34500, Note_on_c, 1, 50, 59
3, 34521, Note_on_c, 1, 50, 0
3, 34523, Note_on_c, 1, 54, 0
3, 34560, Note_on_c, 1, 33, 56
3, 34560, Note_on_c, 1, 52, 76
3, 34560, Note_on_c, 1, 49, 46
3, 34561, Control_c, 1, 64, 0
3, 34586, Control_c, 1, 64, 127
3, 34594, Note_on_c, 1, 49, 0
3, 34596, Note_on_c, 1, 52, 0
3, 34620, Note_on_c, 1, 52, 76
3, 34620, Note_on_c, 1, 49, 45
3, 34639, Note_on_c, 1, 52, 0
3, 34641, Note_on_c, 1, 49, 0
3, 34668, Note_on_c, 1, 33, 0
3, 34680, Note_on_c, 1, 49, 45
3, 34680, Note_on_c, 1, 55, 62
3, 34687, Control_c, 1, 64, 0
3, 34708, Control_c, 1, 64, 127
3, 34721, Note_on_c, 1, 55, 0
3, 34721, Note_on_c, 1, 49, 0
3, 34740, Note_on_c, 1, 55, 62
3, 34740, Note_on_c, 1, 49, 39
3, 34759, Note_on_c, 1, 49, 0
3, 34764, Note_on_c, 1, 55, 0
3, 34800, Note_on_c, 1, 49, 40
3, 34800, Note_on_c, 1, 52, 56
3, 34805, Control_c, 1, 64, 0
3, 34822, Control_c, 1, 64, 127
3, 34832, Note_on_c, 1, 52, 0
3, 34836, Note_on_c, 1, 49, 0
3, 34860, Note_on_c, 1, 49, 40
3, 34860, Note_on_c, 1, 52, 64
3, 34877, Note_on_c, 1, 49, 0
3, 34879, Note_on_c, 1, 52, 0
3, 34919, Control_c, 1, 64, 0
3, 34920, Note_on_c, 1, 49, 50
3, 34920, Note_on_c, 1, 55, 62
3, 34937, Control_c, 1, 64, 127
3, 34941, Note_on_c, 1, 49, 0
3, 34947, Note_on_c, 1, 55, 0
3, 34980, Note_on_c, 1, 49, 55
3, 34980, Note_on_c, 1, 55, 80
3, 34999, Note_on_c, 1, 55, 0
3, 34999, Note_on_c, 1, 49, 0
3, 35030, Control_c, 1, 64, 0
3, 35040, Note_on_c, 1, 38, 93
3, 35040, Note_on_c, 1, 50, 89
3, 35057, Control_c, 1, 64, 127
3, 35064, Note_on_c, 1, 50, 0
3, 35070, Note_on_c, 1, 57, 85
3, 35091, Note_on_c, 1, 57, 0
3, 35100, Note_on_c, 1, 54, 68
3, 35122, Note_on_c, 1, 54, 0
3, 35125, Note_on_c, 1, 38, 0
3, 35130, Note_on_c, 1, 57, 72
3, 35148, Note_on_c, 1, 57, 0
3, 35155, Control_c, 1, 64, 0
3, 35160, Note_on_c, 1, 50, 89
3, 35160, Note_on_c, 1, 38, 93
3, 35178, Control_c, 1, 64, 127
3, 35183, Note_on_c, 1, 50, 0
3, 35190, Note_on_c, 1, 57, 85
3, 35209, Note_on_c, 1, 57, 0
3, 35220, Note_on_c, 1, 54, 62
3, 35240, Note_on_c, 1, 54, 0
3, 35242, Note_on_c, 1, 38, 0
3, 35250, Note_on_c, 1, 57, 85
3, 35267, Note_on_c, 1, 57, 0
3, 35269, Control_c, 1, 64, 0
3, 35280, Note_on_c, 1, 50, 89
3, 35280, Note_on_c, 1, 38, 98
3, 35290, Control_c, 1, 64, 127
3, 35303, Note_on_c, 1, 50, 0
3, 35310, Note_on_c, 1, 57, 80
3, 35330, Note_on_c, 1, 57, 0
3, 35340, Note_on_c, 1, 54, 62
3, 35360, Note_on_c, 1, 54, 0
3, 35370, Note_on_c, 1, 57, 80
3, 35375, Note_on_c, 1, 38, 0
3, 35388, Note_on_c, 1, 57, 0
3, 35390, Control_c, 1, 64, 0
3, 35400, Note_on_c, 1, 38, 89
3, 35400, Note_on_c, 1, 50, 93
3, 35410, Control_c, 1, 64, 127
3, 35423, Note_on_c, 1, 50, 0
3, 35430, Note_on_c, 1, 57, 80
3, 35457, Note_on_c, 1, 57, 0
3, 35460, Note_on_c, 1, 54, 56
3, 35478, Note_on_c, 1, 54, 0
3, 35485, Note_on_c, 1, 38, 0
3, 35490, Note_on_c, 1, 57, 89
3, 35508, Note_on_c, 1, 57, 0
3, 35510, Control_c, 1, 64, 0
3, 35520, Note_on_c, 1, 50, 89
3, 35520, Note_on_c, 1, 43, 93
3, 35534, Control_c, 1, 64, 127
3, 35542, Note_on_c, 1, 50, 0
3, 35550, Note_on_c, 1, 59, 80
3, 35570, Note_on_c, 1, 59, 0
3, 35580, Note_on_c, 1, 55, 76
3, 35601, Note_on_c, 1, 55, 0
3, 35607, Note_on_c, 1, 43, 0
3, 35610, Note_on_c, 1, 59, 76
3, 35625, Control_c, 1, 64, 0
3, 35627, Note_on_c, 1, 59, 0
3, 35640, Note_on_c, 1, 50, 93
3, 35640, Note_on_c, 1, 43, 89
3, 35649, Control_c, 1, 64, 127
3, 35663, Note_on_c, 1, 50, 0
3, 35670, Note_on_c, 1, 59, 89
3, 35691, Note_on_c, 1, 59, 0
3, 35700, Note_on_c, 1, 55, 62
3, 35717, Note_on_c, 1, 55, 0
3, 35720, Note_on_c, 1, 43, 0
3, 35730, Note_on_c, 1, 59, 89
3, 35748, Control_c, 1, 64, 0
3, 35749, Note_on_c, 1, 59, 0
3, 35760, Note_on_c, 1, 50, 89
3, 35760, Note_on_c, 1, 43, 72
3, 35769, Control_c, 1, 64, 127
3, 35783, Note_on_c, 1, 50, 0
3, 35790, Note_on_c, 1, 59, 85
3, 35810, Note_on_c, 1, 59, 0
3, 35820, Note_on_c, 1, 55, 72
3, 35838, Note_on_c, 1, 55, 0
3, 35844, Note_on_c, 1, 43, 0
3, 35850, Note_on_c, 1, 59, 89
3, 35863, Control_c, 1, 64, 0
3, 35868, Note_on_c, 1, 59, 0
3, 35880, Note_on_c, 1, 50, 89
3, 35880, Note_on_c, 1, 43, 89
3, 35883, Control_c, 1, 64, 127
3, 35902, Note_on_c, 1, 50, 0
3, 35910, Note_on_c, 1, 59, 85
3, 35932, Note_on_c, 1, 59, 0
3, 35940, Note_on_c, 1, 55, 68
3, 35958, Note_on_c, 1, 55, 0
3, 35963, Note_on_c, 1, 43, 0
3, 35970, Note_on_c, 1, 59, 85
3, 35989, Note_on_c, 1, 59, 0
3, 35991, Control_c, 1, 64, 0
3, 36000, Note_on_c, 1, 50, 98
3, 36000, Note_on_c, 1, 45, 89
3, 36012, Control_c, 1, 64, 127
3, 36021, Note_on_c, 1, 50, 0
3, 36030, Note_on_c, 1, 57, 76
3, 36032, Note_on_c, 1, 45, 0
3, 36048, Control_c, 1, 64, 0
3, 36049, Note_on_c, 1, 57, 0
3, 36060, Note_on_c, 1, 54, 72
3, 36060, Note_on_c, 1, 45, 85
3, 36064, Control_c, 1, 64, 127
3, 36079, Note_on_c, 1, 54, 0
3, 36085, Note_on_c, 1, 45, 0
3, 36090, Note_on_c, 1, 57, 72
3, 36107, Control_c, 1, 64, 0
3, 36108, Note_on_c, 1, 57, 0
3, 36120, Note_on_c, 1, 50, 89
3, 36120, Note_on_c, 1, 45, 89
3, 36126, Control_c, 1, 64, 127
3, 36140, Note_on_c, 1, 50, 0
3, 36147, Note_on_c, 1, 45, 0
3, 36150, Note_on_c, 1, 57, 80
3, 36168, Note_on_c, 1, 57, 0
3, 36180, Note_on_c, 1, 54, 68
3, 36180, Note_on_c, 1, 45, 85
3, 36199, Note_on_c, 1, 54, 0
3, 36204, Note_on_c, 1, 45, 0
3, 36210, Note_on_c, 1, 57, 89
3, 36227, Control_c, 1, 64, 0
3, 36229, Note_on_c, 1, 57, 0
3, 36240, Note_on_c, 1, 33, 93
3, 36240, Note_on_c, 1, 49, 102
3, 36250, Control_c, 1, 64, 127
3, 36256, Note_on_c, 1, 49, 0
3, 36270, Note_on_c, 1, 57, 89
3, 36272, Note_on_c, 1, 33, 0
3, 36289, Note_on_c, 1, 57, 0
3, 36293, Control_c, 1, 64, 0
3, 36300, Note_on_c, 1, 52, 89
3, 36300, Note_on_c, 1, 33, 85
3, 36310, Control_c, 1, 64, 127
3, 36317, Note_on_c, 1, 52, 0
3, 36324, Note_on_c, 1, 33, 0
3, 36330, Note_on_c, 1, 57, 89
3, 36348, Note_on_c, 1, 57, 0
3, 36351, Control_c, 1, 64, 0
3, 36360, Note_on_c, 1, 49, 89
3, 36360, Note_on_c, 1, 33, 89
3, 36368, Control_c, 1, 64, 127
3, 36378, Note_on_c, 1, 49, 0
3, 36385, Note_on_c, 1, 33, 0
3, 36390, Note_on_c, 1, 57, 57
3, 36410, Control_c, 1, 64, 0
3, 36414, Note_on_c, 1, 57, 0
3, 36420, Note_on_c, 1, 52, 85
3, 36420, Note_on_c, 1, 33, 85
3, 36426, Control_c, 1, 64, 127
3, 36439, Note_on_c, 1, 33, 0
3, 36444, Note_on_c, 1, 52, 0
3, 36450, Note_on_c, 1, 57, 80
3, 36469, Note_on_c, 1, 57, 0
3, 36477, Control_c, 1, 64, 0
3, 36480, Note_on_c, 1, 38, 93
3, 36480, Note_on_c, 1, 50, 107
3, 36502, Control_c, 1, 64, 127
3, 36530, Note_on_c, 1, 50, 0
3, 36540, Note_on_c, 1, 54, 89
3, 36540, Note_on_c, 1, 42, 85
3, 36541, Note_on_c, 1, 38, 0
3, 36541, Control_c, 1, 64, 0
3, 36561, Control_c, 1, 64, 127
3, 36592, Control_c, 1, 64, 0
3, 36596, Note_on_c, 1, 54, 0
3, 36599, Note_on_c, 1, 42, 0
3, 36600, Note_on_c, 1, 57, 93
3, 36600, Note_on_c, 1, 45, 89
3, 36611, Control_c, 1, 64, 127
3, 36651, Control_c, 1, 64, 0
3, 36655, Note_on_c, 1, 57, 0
3, 36657, Note_on_c, 1, 45, 0
3, 36660, Note_on_c, 1, 54, 89
3, 36660, Note_on_c, 1, 42, 85
3, 36672, Control_c, 1, 64, 127
3, 36710, Control_c, 1, 64, 0
3, 36718, Note_on_c, 1, 54, 0
3, 36720, Note_on_c, 1, 50, 107
3, 36720, Note_on_c, 1, 38, 102
3, 36722, Note_on_c, 1, 42, 0
3, 36731, Control_c, 1, 64, 127
3, 36768, Note_on_c, 1, 50, 0
3, 36769, Note_on_c, 1, 38, 0
3, 36835, Control_c, 1, 64, 0
3, 36956, Control_c, 1, 64, 127
3, 36960, Note_on_c, 1, 50, 68
3, 36960, Note_on_c, 1, 53, 59
3, 36960, Note_on_c, 1, 38, 57
3, 36992, Note_on_c, 1, 50, 0
3, 36994, Note_on_c, 1, 53, 0
3, 37020, Note_on_c, 1, 53, 56
3, 37020, Note_on_c, 1, 50, 56
3, 37025, Note_on_c, 1, 38, 0
3, 37049, Note_on_c, 1, 50, 0
3, 37050, Note_on_c, 1, 53, 0
3, 37079, Control_c, 1, 64, 0
3, 37080, Note_on_c, 1, 50, 56
3, 37080, Note_on_c, 1, 53, 57
3, 37103, Control_c, 1, 64, 127
3, 37123, Note_on_c, 1, 53, 0
3, 37125, Note_on_c, 1, 50, 0
3, 37140, Note_on_c, 1, 53, 50
3, 37140, Note_on_c, 1, 50, 55
3, 37171, Note_on_c, 1, 50, 0
3, 37177, Note_on_c, 1, 53, 0
3, 37200, Note_on_c, 1, 53, 57
3, 37200, Note_on_c, 1, 50, 60
3, 37236, Note_on_c, 1, 50, 0
3, 37239, Note_on_c, 1, 53, 0
3, 37260, Note_on_c, 1, 53, 60
3, 37260, Note_on_c, 1, 50, 60
3, 37294, Note_on_c, 1, 50, 0
3, 37297, Note_on_c, 1, 53, 0
3, 37320, Note_on_c, 1, 53, 64
3, 37320, Note_on_c, 1, 50, 72
3, 37356, Note_on_c, 1, 50, 0
3, 37357, Note_on_c, 1, 53, 0
3, 37380, Note_on_c, 1, 53, 72
3, 37380, Note_on_c, 1, 50, 76
3, 37405, Note_on_c, 1, 53, 0
3, 37406, Note_on_c, 1, 50, 0
3, 37440, Note_on_c, 1, 52, 89
3, 37440, Note_on_c, 1, 33, 72
3, 37440, Note_on_c, 1, 49, 60
3, 37450, Control_c, 1, 64, 0
3, 37474, Control_c, 1, 64, 127
3, 37480, Note_on_c, 1, 49, 0
3, 37480, Note_on_c, 1, 52, 0
3, 37500, Note_on_c, 1, 52, 80
3, 37500, Note_on_c, 1, 49, 48
3, 37501, Note_on_c, 1, 33, 0
3, 37521, Note_on_c, 1, 49, 0
3, 37525, Note_on_c, 1, 52, 0
3, 37560, Note_on_c, 1, 55, 68
3, 37560, Note_on_c, 1, 49, 50
3, 37570, Control_c, 1, 64, 0
3, 37592, Control_c, 1, 64, 127
3, 37599, Note_on_c, 1, 49, 0
3, 37607, Note_on_c, 1, 55, 0
3, 37620, Note_on_c, 1, 55, 62
3, 37620, Note_on_c, 1, 49, 51
3, 37643, Note_on_c, 1, 49, 0
3, 37650, Note_on_c, 1, 55, 0
3, 37680, Note_on_c, 1, 49, 46
3, 37680, Note_on_c, 1, 52, 72
3, 37691, Control_c, 1, 64, 0
3, 37711, Control_c, 1, 64, 127
3, 37721, Note_on_c, 1, 52, 0
3, 37722, Note_on_c, 1, 49, 0
3, 37740, Note_on_c, 1, 49, 53
3, 37740, Note_on_c, 1, 52, 80
3, 37761, Note_on_c, 1, 49, 0
3, 37764, Note_on_c, 1, 52, 0
3, 37800, Note_on_c, 1, 49, 56
3, 37800, Control_c, 1, 64, 0
3, 37800, Note_on_c, 1, 55, 76
3, 37820, Control_c, 1, 64, 127
3, 37832, Note_on_c, 1, 49, 0
3, 37834, Note_on_c, 1, 55, 0
3, 37860, Note_on_c, 1, 49, 55
3, 37860, Note_on_c, 1, 55, 72
3, 37886, Note_on_c, 1, 55, 0
3, 37886, Note_on_c, 1, 49, 0
3, 37920, Note_on_c, 1, 53, 56
3, 37920, Note_on_c, 1, 50, 80
3, 37920, Note_on_c, 1, 38, 57
3, 37921, Control_c, 1, 64, 0
3, 37944, Control_c, 1, 64, 127
3, 37955, Note_on_c, 1, 50, 0
3, 37962, Note_on_c, 1, 53, 0
3, 37980, Note_on_c, 1, 53, 46
3, 37980, Note_on_c, 1, 50, 60
3, 37994, Note_on_c, 1, 38, 0
3, 38006, Note_on_c, 1, 50, 0
3, 38013, Note_on_c, 1, 53, 0
3, 38040, Note_on_c, 1, 53, 44
3, 38040, Note_on_c, 1, 50, 60
3, 38048, Control_c, 1, 64, 0
3, 38069, Control_c, 1, 64, 127
3, 38073, Note_on_c, 1, 50, 0
3, 38083, Note_on_c, 1, 53, 0
3, 38100, Note_on_c, 1, 53, 41
3, 38100, Note_on_c, 1, 50, 72
3, 38128, Note_on_c, 1, 50, 0
3, 38137, Note_on_c, 1, 53, 0
3, 38160, Note_on_c, 1, 53, 56
3, 38160, Note_on_c, 1, 50, 72
3, 38196, Note_on_c, 1, 50, 0
3, 38198, Note_on_c, 1, 53, 0
3, 38220, Note_on_c, 1, 50, 76
3, 38220, Note_on_c, 1, 53, 76
3, 38253, Note_on_c, 1, 50, 0
3, 38255, Note_on_c, 1, 53, 0
3, 38280, Note_on_c, 1, 53, 68
3, 38280, Note_on_c, 1, 50, 85
3, 38311, Note_on_c, 1, 50, 0
3, 38312, Note_on_c, 1, 53, 0
3, 38340, Note_on_c, 1, 53, 62
3, 38340, Note_on_c, 1, 50, 89
3, 38363, Note_on_c, 1, 53, 0
3, 38364, Note_on_c, 1, 50, 0
3, 38400, Note_on_c, 1, 49, 62
3, 38400, Note_on_c, 1, 52, 89
3, 38400, Note_on_c, 1, 33, 85
3, 38401, Control_c, 1, 64, 0
3, 38424, Control_c, 1, 64, 127
3, 38437, Note_on_c, 1, 52, 0
3, 38437, Note_on_c, 1, 49, 0
3, 38458, Note_on_c, 1, 33, 0
3, 38460, Note_on_c, 1, 52, 80
3, 38460, Note_on_c, 1, 49, 55
3, 38481, Note_on_c, 1, 49, 0
3, 38482, Note_on_c, 1, 52, 0
3, 38520, Note_on_c, 1, 49, 62
3, 38520, Note_on_c, 1, 55, 76
3, 38525, Control_c, 1, 64, 0
3, 38548, Control_c, 1, 64, 127
3, 38558, Note_on_c, 1, 49, 0
3, 38565, Note_on_c, 1, 55, 0
3, 38580, Note_on_c, 1, 55, 62
3, 38580, Note_on_c, 1, 49, 52
3, 38602, Note_on_c, 1, 49, 0
3, 38607, Note_on_c, 1, 55, 0
3, 38640, Note_on_c, 1, 49, 60
3, 38640, Note_on_c, 1, 52, 72
3, 38643, Control_c, 1, 64, 0
3, 38663, Control_c, 1, 64, 127
3, 38673, Note_on_c, 1, 52, 0
3, 38673, Note_on_c, 1, 49, 0
3, 38700, Note_on_c, 1, 52, 64
3, 38700, Note_on_c, 1, 49, 39
3, 38721, Note_on_c, 1, 49, 0
3, 38725, Note_on_c, 1, 52, 0
3, 38753, Control_c, 1, 64, 0
3, 38760, Note_on_c, 1, 49, 59
3, 38760, Note_on_c, 1, 55, 76
3, 38774, Control_c, 1, 64, 127
3, 38784, Note_on_c, 1, 49, 0
3, 38789, Note_on_c, 1, 55, 0
3, 38820, Note_on_c, 1, 49, 59
3, 38820, Note_on_c, 1, 55, 76
3, 38839, Note_on_c, 1, 55, 0
3, 38841, Note_on_c, 1, 49, 0
3, 38869, Control_c, 1, 64, 0
3, 38880, Note_on_c, 1, 38, 98
3, 38880, Note_on_c, 1, 50, 107
3, 38897, Control_c, 1, 64, 127
3, 38901, Note_on_c, 1, 50, 0
3, 38910, Note_on_c, 1, 57, 85
3, 38930, Note_on_c, 1, 57, 0
3, 38940, Note_on_c, 1, 54, 62
3, 38955, Note_on_c, 1, 38, 0
3, 38960, Note_on_c, 1, 54, 0
3, 38970, Note_on_c, 1, 57, 80
3, 38987, Note_on_c, 1, 57, 0
3, 38988, Control_c, 1, 64, 0
3, 39000, Note_on_c, 1, 38, 107
3, 39000, Note_on_c, 1, 50, 102
3, 39008, Control_c, 1, 64, 127
3, 39024, Note_on_c, 1, 50, 0
3, 39030, Note_on_c, 1, 57, 85
3, 39049, Note_on_c, 1, 57, 0
3, 39060, Note_on_c, 1, 54, 72
3, 39078, Note_on_c, 1, 38, 0
3, 39081, Note_on_c, 1, 54, 0
3, 39090, Note_on_c, 1, 57, 89
3, 39106, Note_on_c, 1, 57, 0
3, 39109, Control_c, 1, 64, 0
3, 39120, Note_on_c, 1, 38, 102
3, 39120, Note_on_c, 1, 50, 89
3, 39129, Control_c, 1, 64, 127
3, 39140, Note_on_c, 1, 50, 0
3, 39150, Note_on_c, 1, 57, 85
3, 39168, Note_on_c, 1, 57, 0
3, 39180, Note_on_c, 1, 54, 68
3, 39198, Note_on_c, 1, 54, 0
3, 39202, Note_on_c, 1, 38, 0
3, 39210, Note_on_c, 1, 57, 89
3, 39225, Note_on_c, 1, 57, 0
3, 39225, Control_c, 1, 64, 0
3, 39240, Note_on_c, 1, 50, 107
3, 39240, Note_on_c, 1, 38, 98
3, 39244, Control_c, 1, 64, 127
3, 39260, Note_on_c, 1, 50, 0
3, 39270, Note_on_c, 1, 57, 89
3, 39289, Note_on_c, 1, 57, 0
3, 39300, Note_on_c, 1, 54, 76
3, 39319, Note_on_c, 1, 54, 0
3, 39325, Note_on_c, 1, 38, 0
3, 39330, Note_on_c, 1, 57, 93
3, 39346, Note_on_c, 1, 57, 0
3, 39346, Control_c, 1, 64, 0
3, 39360, Note_on_c, 1, 43, 98
3, 39360, Note_on_c, 1, 50, 93
3, 39370, Control_c, 1, 64, 127
3, 39379, Note_on_c, 1, 50, 0
3, 39390, Note_on_c, 1, 59, 89
3, 39409, Note_on_c, 1, 59, 0
3, 39420, Note_on_c, 1, 55, 72
3, 39438, Note_on_c, 1, 55, 0
3, 39442, Note_on_c, 1, 43, 0
3, 39450, Note_on_c, 1, 59, 85
3, 39467, Note_on_c, 1, 59, 0
3, 39469, Control_c, 1, 64, 0
3, 39480, Note_on_c, 1, 50, 98
3, 39480, Note_on_c, 1, 43, 107
3, 39490, Control_c, 1, 64, 127
3, 39500, Note_on_c, 1, 50, 0
3, 39510, Note_on_c, 1, 59, 89
3, 39530, Note_on_c, 1, 59, 0
3, 39539, Note_on_c, 1, 43, 0
3, 39540, Note_on_c, 1, 55, 76
3, 39558, Note_on_c, 1, 55, 0
3, 39570, Note_on_c, 1, 59, 89
3, 39587, Note_on_c, 1, 59, 0
3, 39587, Control_c, 1, 64, 0
3, 39600, Note_on_c, 1, 50, 102
3, 39600, Note_on_c, 1, 43, 85
3, 39608, Control_c, 1, 64, 127
3, 39618, Note_on_c, 1, 50, 0
3, 39630, Note_on_c, 1, 59, 85
3, 39649, Note_on_c, 1, 59, 0
3, 39654, Note_on_c, 1, 43, 0
3, 39660, Note_on_c, 1, 55, 76
3, 39681, Note_on_c, 1, 55, 0
3, 39690, Note_on_c, 1, 59, 76
3, 39705, Note_on_c, 1, 59, 0
3, 39710, Control_c, 1, 64, 0
3, 39720, Note_on_c, 1, 43, 93
3, 39720, Note_on_c, 1, 50, 102
3, 39731, Control_c, 1, 64, 127
3, 39739, Note_on_c, 1, 50, 0
3, 39750, Note_on_c, 1, 59, 80
3, 39770, Note_on_c, 1, 59, 0
3, 39778, Note_on_c, 1, 43, 0
3, 39780, Note_on_c, 1, 55, 76
3, 39799, Note_on_c, 1, 55, 0
3, 39810, Note_on_c, 1, 59, 85
3, 39828, Note_on_c, 1, 59, 0
3, 39828, Control_c, 1, 64, 0
3, 39840, Note_on_c, 1, 45, 102
3, 39840, Note_on_c, 1, 45, 102
3, 39840, Control_c, 1, 64, 127
3, 39840, Note_on_c, 1, 50, 93
3, 39857, Note_on_c, 1, 45, 0
3, 39858, Note_on_c, 1, 50, 0
3, 39870, Note_on_c, 1, 57, 80
3, 39887, Note_on_c, 1, 57, 0
3, 39890, Note_on_c, 1, 45, 0
3, 39900, Note_on_c, 1, 54, 89
3, 39900, Note_on_c, 1, 45, 98
3, 39918, Note_on_c, 1, 45, 0
3, 39920, Note_on_c, 1, 54, 0
3, 39930, Note_on_c, 1, 57, 89
3, 39945, Note_on_c, 1, 57, 0
3, 39960, Note_on_c, 1, 45, 107
3, 39960, Note_on_c, 1, 50, 85
3, 39979, Note_on_c, 1, 50, 0
3, 39980, Note_on_c, 1, 45, 0
3, 39990, Note_on_c, 1, 57, 89
3, 40007, Note_on_c, 1, 57, 0
3, 40020, Note_on_c, 1, 54, 93
3, 40020, Note_on_c, 1, 45, 89
3, 40041, Note_on_c, 1, 54, 0
3, 40044, Note_on_c, 1, 45, 0
3, 40050, Note_on_c, 1, 57, 85
3, 40067, Control_c, 1, 64, 0
3, 40068, Note_on_c, 1, 57, 0
3, 40080, Note_on_c, 1, 33, 93
3, 40080, Note_on_c, 1, 49, 102
3, 40090, Control_c, 1, 64, 127
3, 40097, Note_on_c, 1, 49, 0
3, 40107, Note_on_c, 1, 33, 0
3, 40110, Note_on_c, 1, 57, 85
3, 40128, Note_on_c, 1, 57, 0
3, 40140, Note_on_c, 1, 52, 89
3, 40140, Note_on_c, 1, 33, 89
3, 40155, Note_on_c, 1, 52, 0
3, 40162, Note_on_c, 1, 33, 0
3, 40170, Note_on_c, 1, 57, 80
3, 40187, Note_on_c, 1, 57, 0
3, 40188, Control_c, 1, 64, 0
3, 40200, Note_on_c, 1, 49, 93
3, 40200, Note_on_c, 1, 33, 93
3, 40209, Control_c, 1, 64, 127
3, 40218, Note_on_c, 1, 49, 0
3, 40224, Note_on_c, 1, 33, 0
3, 40230, Note_on_c, 1, 57, 85
3, 40247, Note_on_c, 1, 57, 0
3, 40260, Note_on_c, 1, 52, 89
3, 40260, Note_on_c, 1, 33, 93
3, 40278, Note_on_c, 1, 52, 0
3, 40284, Note_on_c, 1, 33, 0
3, 40290, Note_on_c, 1, 57, 89
3, 40305, Note_on_c, 1, 57, 0
3, 40308, Control_c, 1, 64, 0
3, 40320, Note_on_c, 1, 50, 113
3, 40320, Note_on_c, 1, 38, 102
3, 40339, Control_c, 1, 64, 127
3, 40420, Note_on_c, 1, 50, 0
3, 40425, Note_on_c, 1, 38, 0
3, 40435, Control_c, 1, 64, 0
3, 40680, Note_on_c, 1, 42, 113
3, 40680, Note_on_c, 1, 30, 107
3, 40680, Control_c, 1, 64, 127
3, 40781, Note_on_c, 1, 30, 0
3, 40785, Control_c, 1, 64, 0
3, 40792, Note_on_c, 1, 42, 0
3, 40800, Note_on_c, 1, 43, 98
3, 40800, Note_on_c, 1, 31, 89
3, 40809, Control_c, 1, 64, 127
3, 40890, Note_on_c, 1, 43, 0
3, 40891, Note_on_c, 1, 31, 0
3, 40909, Control_c, 1, 64, 0
3, 41760, Note_on_c, 1, 64, 102
3, 41760, Note_on_c, 1, 59, 107
3, 41760, Note_on_c, 1, 55, 102
3, 41760, Note_on_c, 1, 43, 107
3, 41767, Control_c, 1, 64, 127
3, 41809, Note_on_c, 1, 55, 0
3, 41810, Note_on_c, 1, 64, 0
3, 41815, Note_on_c, 1, 59, 0
3, 41815, Note_on_c, 1, 43, 0
3, 41875, Control_c, 1, 64, 0
3, 41880, Note_on_c, 1, 64, 98
3, 41880, Note_on_c, 1, 59, 107
3, 41880, Note_on_c, 1, 55, 102
3, 41880, Note_on_c, 1, 43, 93
3, 41897, Control_c, 1, 64, 127
3, 41929, Note_on_c, 1, 64, 0
3, 41934, Note_on_c, 1, 55, 0
3, 41935, Note_on_c, 1, 59, 0
3, 41939, Note_on_c, 1, 43, 0
3, 41994, Control_c, 1, 64, 0
3, 42000, Note_on_c, 1, 59, 107
3, 42000, Note_on_c, 1, 64, 98
3, 42000, Note_on_c, 1, 55, 107
3, 42000, Note_on_c, 1, 43, 98
3, 42016, Control_c, 1, 64, 127
3, 42045, Note_on_c, 1, 64, 0
3, 42048, Note_on_c, 1, 55, 0
3, 42051, Note_on_c, 1, 59, 0
3, 42054, Note_on_c, 1, 43, 0
3, 42114, Control_c, 1, 64, 0
3, 42120, Note_on_c, 1, 64, 102
3, 42120, Note_on_c, 1, 59, 102
3, 42120, Note_on_c, 1, 55, 107
3, 42120, Note_on_c, 1, 43, 98
3, 42135, Control_c, 1, 64, 127
3, 42153, Note_on_c, 1, 64, 0
3, 42157, Note_on_c, 1, 59, 0
3, 42163, Note_on_c, 1, 43, 0
3, 42167, Note_on_c, 1, 55, 0
3, 42233, Control_c, 1, 64, 0
3, 42240, Note_on_c, 1, 54, 98
3, 42240, Note_on_c, 1, 62, 113
3, 42240, Note_on_c, 1, 57, 113
3, 42240, Note_on_c, 1, 45, 107
3, 42257, Control_c, 1, 64, 127
3, 42336, Note_on_c, 1, 45, 0
3, 42336, Note_on_c, 1, 62, 0
3, 42338, Note_on_c, 1, 57, 0
3, 42338, Note_on_c, 1, 54, 0
3, 42365, Control_c, 1, 64, 0
3, 42720, Note_on_c, 1, 45, 113
3, 42720, Note_on_c, 1, 52, 113
3, 42732, Control_c, 1, 64, 127
3, 42741, Note_on_c, 1, 52, 0
3, 42742, Note_on_c, 1, 45, 0
3, 42750, Note_on_c, 1, 57, 85
3, 42767, Note_on_c, 1, 57, 0
3, 42779, Control_c, 1, 64, 0
3, 42780, Note_on_c, 1, 55, 107
3, 42780, Note_on_c, 1, 45, 113
3, 42799, Note_on_c, 1, 55, 0
3, 42801, Note_on_c, 1, 45, 0
3, 42801, Control_c, 1, 64, 127
3, 42810, Note_on_c, 1, 57, 89
3, 42826, Note_on_c, 1, 57, 0
3, 42836, Control_c, 1, 64, 0
3, 42840, Note_on_c, 1, 52, 102
3, 42840, Note_on_c, 1, 45, 107
3, 42858, Control_c, 1, 64, 127
3, 42859, Note_on_c, 1, 52, 0
3, 42862, Note_on_c, 1, 45, 0
3, 42870, Note_on_c, 1, 57, 80
3, 42885, Note_on_c, 1, 57, 0
3, 42900, Note_on_c, 1, 55, 98
3, 42900, Note_on_c, 1, 45, 102
3, 42917, Note_on_c, 1, 55, 0
3, 42920, Note_on_c, 1, 45, 0
3, 42930, Note_on_c, 1, 57, 89
3, 42946, Note_on_c, 1, 57, 0
3, 42947, Control_c, 1, 64, 0
3, 42960, Note_on_c, 1, 52, 98
3, 42960, Note_on_c, 1, 45, 107
3, 42970, Control_c, 1, 64, 127
3, 42977, Note_on_c, 1, 52, 0
3, 42981, Note_on_c, 1, 45, 0
3, 42990, Note_on_c, 1, 57, 89
3, 43005, Note_on_c, 1, 57, 0
3, 43020, Note_on_c, 1, 55, 98
3, 43020, Note_on_c, 1, 45, 107
3, 43036, Note_on_c, 1, 55, 0
3, 43040, Note_on_c, 1, 45, 0
3, 43050, Note_on_c, 1, 57, 93
3, 43066, Note_on_c, 1, 57, 0
3, 43071, Control_c, 1, 64, 0
3, 43080, Note_on_c, 1, 52, 93
3, 43080, Note_on_c, 1, 45, 107
3, 43093, Control_c, 1, 64, 127
3, 43098, Note_on_c, 1, 52, 0
3, 43105, Note_on_c, 1, 45, 0
3, 43110, Note_on_c, 1, 57, 89
3, 43127, Note_on_c, 1, 57, 0
3, 43140, Note_on_c, 1, 55, 80
3, 43140, Note_on_c, 1, 45, 107
3, 43160, Note_on_c, 1, 55, 0
3, 43170, Note_on_c, 1, 57, 85
3, 43172, Note_on_c, 1, 45, 0
3, 43189, Note_on_c, 1, 57, 0
3, 43196, Control_c, 1, 64, 0
3, 43200, Note_on_c, 1, 54, 102
3, 43200, Note_on_c, 1, 50, 102
3, 43220, Control_c, 1, 64, 127
3, 43226, Note_on_c, 1, 54, 0
3, 43242, Note_on_c, 1, 50, 0
3, 43260, Note_on_c, 1, 57, 98
3, 43260, Note_on_c, 1, 66, 98
3, 43268, Control_c, 1, 64, 0
3, 43284, Control_c, 1, 64, 127
3, 43291, Note_on_c, 1, 66, 0
3, 43303, Note_on_c, 1, 57, 0
3, 43320, Note_on_c, 1, 64, 93
3, 43320, Note_on_c, 1, 55, 102
3, 43326, Control_c, 1, 64, 0
3, 43345, Note_on_c, 1, 55, 0
3, 43345, Control_c, 1, 64, 127
3, 43349, Note_on_c, 1, 64, 0
3, 43380, Note_on_c, 1, 62, 102
3, 43380, Note_on_c, 1, 54, 98
3, 43396, Note_on_c, 1, 62, 0
3, 43397, Note_on_c, 1, 54, 0
3, 43440, Note_on_c, 1, 45, 119
3, 43442, Control_c, 1, 64, 0
3, 43470, Control_c, 1, 64, 127
3, 43500, Note_on_c, 1, 52, 107
3, 43500, Note_on_c, 1, 61, 98
3, 43508, Note_on_c, 1, 45, 0
3, 43519, Note_on_c, 1, 52, 0
3, 43521, Note_on_c, 1, 61, 0
3, 43555, Control_c, 1, 64, 0
3, 43560, Note_on_c, 1, 54, 93
3, 43560, Note_on_c, 1, 62, 89
3, 43576, Control_c, 1, 64, 127
3, 43586, Note_on_c, 1, 62, 0
3, 43589, Note_on_c, 1, 54, 0
3, 43620, Note_on_c, 1, 64, 93
3, 43620, Note_on_c, 1, 55, 107
3, 43637, Note_on_c, 1, 55, 0
3, 43645, Note_on_c, 1, 64, 0
3, 43678, Control_c, 1, 64, 0
3, 43680, Note_on_c, 1, 50, 127
3, 43707, Control_c, 1, 64, 127
3, 43740, Note_on_c, 1, 66, 89
3, 43740, Note_on_c, 1, 57, 107
3, 43757, Note_on_c, 1, 57, 0
3, 43759, Note_on_c, 1, 66, 0
3, 43765, Note_on_c, 1, 50, 0
3, 43800, Control_c, 1, 64, 0
3, 43800, Note_on_c, 1, 64, 93
3, 43800, Note_on_c, 1, 55, 93
3, 43826, Control_c, 1, 64, 127
3, 43830, Note_on_c, 1, 55, 0
3, 43830, Note_on_c, 1, 64, 0
3, 43860, Note_on_c, 1, 54, 102
3, 43860, Note_on_c, 1, 62, 98
3, 43877, Note_on_c, 1, 62, 0
3, 43881, Note_on_c, 1, 54, 0
3, 43919, Control_c, 1, 64, 0
3, 43920, Note_on_c, 1, 45, 107
3, 43948, Control_c, 1, 64, 127
3, 43971, Note_on_c, 1, 45, 0
3, 43980, Note_on_c, 1, 52, 89
3, 43980, Note_on_c, 1, 61, 93
3, 44000, Note_on_c, 1, 52, 0
3, 44004, Note_on_c, 1, 61, 0
3, 44040, Control_c, 1, 64, 0
3, 44040, Note_on_c, 1, 54, 102
3, 44040, Note_on_c, 1, 62, 107
3, 44063, Control_c, 1, 64, 127
3, 44068, Note_on_c, 1, 54, 0
3, 44069, Note_on_c, 1, 62, 0
3, 44100, Note_on_c, 1, 55, 102
3, 44100, Note_on_c, 1, 64, 98
3, 44134, Note_on_c, 1, 64, 0
3, 44138, Note_on_c, 1, 55, 0
3, 44160, Note_on_c, 1, 38, 107
3, 44164, Control_c, 1, 64, 0
3, 44195, Control_c, 1, 64, 127
3, 44220, Note_on_c, 1, 54, 107
3, 44220, Note_on_c, 1, 62, 102
3, 44235, Note_on_c, 1, 38, 0
3, 44243, Note_on_c, 1, 62, 0
3, 44244, Note_on_c, 1, 54, 0
3, 44276, Control_c, 1, 64, 0
3, 44280, Note_on_c, 1, 54, 85
3, 44280, Note_on_c, 1, 57, 107
3, 44298, Control_c, 1, 64, 127
3, 44300, Note_on_c, 1, 57, 0
3, 44307, Note_on_c, 1, 54, 0
3, 44340, Note_on_c, 1, 50, 102
3, 44340, Note_on_c, 1, 54, 93
3, 44373, Note_on_c, 1, 54, 0
3, 44377, Note_on_c, 1, 50, 0
3, 44397, Control_c, 1, 64, 0
3, 44400, Note_on_c, 1, 33, 98
3, 44425, Control_c, 1, 64, 127
3, 44460, Note_on_c, 1, 52, 102
3, 44460, Note_on_c, 1, 49, 98
3, 44463, Control_c, 1, 64, 0
3, 44480, Control_c, 1, 64, 127
3, 44489, Note_on_c, 1, 33, 0
3, 44492, Note_on_c, 1, 49, 0
3, 44494, Note_on_c, 1, 52, 0
3, 44520, Note_on_c, 1, 54, 85
3, 44520, Note_on_c, 1, 50, 98
3, 44521, Control_c, 1, 64, 0
3, 44545, Control_c, 1, 64, 127
3, 44557, Note_on_c, 1, 50, 0
3, 44566, Note_on_c, 1, 54, 0
3, 44580, Note_on_c, 1, 52, 102
3, 44580, Note_on_c, 1, 55, 98
3, 44585, Control_c, 1, 64, 0
3, 44619, Note_on_c, 1, 55, 0
3, 44623, Note_on_c, 1, 52, 0
3, 44640, Note_on_c, 1, 38, 113
3, 44660, Control_c, 1, 64, 127
3, 44700, Note_on_c, 1, 54, 107
3, 44700, Note_on_c, 1, 57, 113
3, 44733, Note_on_c, 1, 38, 0
3, 44740, Note_on_c, 1, 57, 0
3, 44748, Note_on_c, 1, 54, 0
3, 44760, Note_on_c, 1, 55, 93
3, 44760, Note_on_c, 1, 52, 93
3, 44769, Control_c, 1, 64, 0
3, 44795, Control_c, 1, 64, 127
3, 44805, Note_on_c, 1, 52, 0
3, 44807, Note_on_c, 1, 55, 0
3, 44820, Note_on_c, 1, 54, 93
3, 44820, Note_on_c, 1, 50, 98
3, 44821, Control_c, 1, 64, 0
3, 44841, Control_c, 1, 64, 127
3, 44854, Note_on_c, 1, 50, 0
3, 44859, Note_on_c, 1, 54, 0
3, 44880, Control_c, 1, 64, 0
3, 44880, Note_on_c, 1, 33, 102
3, 44907, Control_c, 1, 64, 127
3, 44936, Control_c, 1, 64, 0
3, 44940, Note_on_c, 1, 52, 98
3, 44940, Note_on_c, 1, 49, 102
3, 44954, Control_c, 1, 64, 127
3, 44958, Note_on_c, 1, 33, 0
3, 44968, Note_on_c, 1, 49, 0
3, 44971, Note_on_c, 1, 52, 0
3, 44999, Control_c, 1, 64, 0
3, 45000, Note_on_c, 1, 50, 98
3, 45000, Note_on_c, 1, 54, 93
3, 45025, Control_c, 1, 64, 127
3, 45039, Note_on_c, 1, 50, 0
3, 45040, Note_on_c, 1, 54, 0
3, 45060, Note_on_c, 1, 52, 93
3, 45060, Note_on_c, 1, 55, 98
3, 45086, Note_on_c, 1, 52, 0
3, 45088, Note_on_c, 1, 55, 0
3, 45110, Control_c, 1, 64, 0
3, 45120, Note_on_c, 1, 50, 113
3, 45120, Note_on_c, 1, 38, 98
3, 45141, Control_c, 1, 64, 127
3, 45166, Note_on_c, 1, 50, 0
3, 45173, Note_on_c, 1, 38, 0
3, 45178, Control_c, 1, 64, 0
3, 45180, Note_on_c, 1, 42, 93
3, 45180, Note_on_c, 1, 54, 113
3, 45204, Control_c, 1, 64, 127
3, 45232, Note_on_c, 1, 54, 0
3, 45236, Control_c, 1, 64, 0
3, 45239, Note_on_c, 1, 42, 0
3, 45240, Note_on_c, 1, 57, 98
3, 45240, Note_on_c, 1, 45, 107
3, 45260, Control_c, 1, 64, 127
3, 45293, Note_on_c, 1, 57, 0
3, 45298, Note_on_c, 1, 45, 0
3, 45299, Control_c, 1, 64, 0
3, 45300, Note_on_c, 1, 54, 98
3, 45300, Note_on_c, 1, 42, 93
3, 45320, Control_c, 1, 64, 127
3, 45355, Note_on_c, 1, 54, 0
3, 45357, Note_on_c, 1, 42, 0
3, 45360, Note_on_c, 1, 38, 102
3, 45360, Note_on_c, 1, 50, 127
3, 45361, Control_c, 1, 64, 0
3, 45384, Control_c, 1, 64, 127
3, 45413, Note_on_c, 1, 50, 0
3, 45417, Note_on_c, 1, 38, 0
3, 45420, Note_on_c, 1, 42, 80
3, 45420, Note_on_c, 1, 54, 113
3, 45421, Control_c, 1, 64, 0
3, 45446, Control_c, 1, 64, 127
3, 45473, Note_on_c, 1, 54, 0
3, 45474, Control_c, 1, 64, 0
3, 45480, Note_on_c, 1, 42, 0
3, 45480, Note_on_c, 1, 57, 93
3, 45480, Note_on_c, 1, 45, 102
3, 45496, Control_c, 1, 64, 127
3, 45529, Note_on_c, 1, 57, 0
3, 45535, Control_c, 1, 64, 0
3, 45537, Note_on_c, 1, 45, 0
3, 45540, Note_on_c, 1, 54, 107
3, 45540, Note_on_c, 1, 42, 89
3, 45556, Control_c, 1, 64, 127
3, 45572, Note_on_c, 1, 54, 0
3, 45573, Note_on_c, 1, 42, 0
3, 45592, Control_c, 1, 64, 0
3, 45600, Note_on_c, 1, 50, 127
3, 45600, Note_on_c, 1, 38, 107
3, 45618, Control_c, 1, 64, 127
3, 45628, Note_on_c, 1, 50, 0
3, 45634, Note_on_c, 1, 38, 0
3, 45699, Control_c, 1, 64, 0
3, 45720, Note_on_c, 1, 54, 119
3, 45720, Note_on_c, 1, 62, 113
3, 45720, Note_on_c, 1, 57, 107
3, 45720, Note_on_c, 1, 50, 127
3, 45736, Control_c, 1, 64, 127
3, 45752, Note_on_c, 1, 50, 0
3, 45754, Note_on_c, 1, 54, 0
3, 45758, Note_on_c, 1, 57, 0
3, 45759, Note_on_c, 1, 62, 0
3, 45827, Control_c, 1, 64, 0
3, 45840, Note_on_c, 1, 38, 107
3, 45840, Note_on_c, 1, 50, 127
3, 45860, Control_c, 1, 64, 127
3, 45874, Note_on_c, 1, 50, 0
3, 45875, Note_on_c, 1, 38, 0
3, 45975, Control_c, 1, 64, 0
3, 46560, Note_on_c, 1, 43, 56
3, 46575, Control_c, 1, 64, 127
3, 46620, Note_on_c, 1, 50, 62
3, 46640, Note_on_c, 1, 43, 0
3, 46644, Note_on_c, 1, 50, 0
3, 46680, Note_on_c, 1, 50, 62
3, 46685, Control_c, 1, 64, 0
3, 46697, Control_c, 1, 64, 127
3, 46714, Note_on_c, 1, 50, 0
3, 46740, Note_on_c, 1, 50, 64
3, 46774, Note_on_c, 1, 50, 0
3, 46800, Note_on_c, 1, 50, 62
3, 46832, Note_on_c, 1, 50, 0
3, 46860, Note_on_c, 1, 50, 62
3, 46894, Note_on_c, 1, 50, 0
3, 46920, Note_on_c, 1, 45, 62
3, 46927, Control_c, 1, 64, 0
3, 46944, Control_c, 1, 64, 127
3, 46980, Note_on_c, 1, 50, 64
3, 46994, Note_on_c, 1, 45, 0
3, 47000, Note_on_c, 1, 50, 0
3, 47040, Note_on_c, 1, 50, 62
3, 47046, Control_c, 1, 64, 0
3, 47059, Control_c, 1, 64, 127
3, 47072, Note_on_c, 1, 50, 0
3, 47100, Note_on_c, 1, 50, 68
3, 47132, Note_on_c, 1, 50, 0
3, 47160, Note_on_c, 1, 50, 60
3, 47190, Note_on_c, 1, 50, 0
3, 47220, Note_on_c, 1, 50, 62
3, 47250, Note_on_c, 1, 50, 0
3, 47280, Note_on_c, 1, 38, 60
3, 47294, Control_c, 1, 64, 0
3, 47311, Control_c, 1, 64, 127
3, 47340, Note_on_c, 1, 42, 48
3, 47344, Control_c, 1, 64, 0
3, 47355, Control_c, 1, 64, 127
3, 47372, Note_on_c, 1, 42, 0
3, 47396, Note_on_c, 1, 38, 0
3, 47400, Note_on_c, 1, 42, 59
3, 47403, Control_c, 1, 64, 0
3, 47414, Control_c, 1, 64, 127
3, 47441, Note_on_c, 1, 42, 0
3, 47460, Note_on_c, 1, 42, 60
3, 47492, Note_on_c, 1, 42, 0
3, 47520, Note_on_c, 1, 42, 62
3, 47526, Control_c, 1, 64, 0
3, 47538, Control_c, 1, 64, 127
3, 47555, Note_on_c, 1, 42, 0
3, 47580, Note_on_c, 1, 42, 57
3, 47608, Note_on_c, 1, 42, 0
3, 47640, Note_on_c, 1, 31, 56
3, 47644, Control_c, 1, 64, 0
3, 47661, Control_c, 1, 64, 127
3, 47700, Note_on_c, 1, 43, 55
3, 47723, Note_on_c, 1, 43, 0
3, 47741, Note_on_c, 1, 31, 0
3, 47760, Note_on_c, 1, 43, 62
3, 47765, Control_c, 1, 64, 0
3, 47777, Control_c, 1, 64, 127
3, 47794, Note_on_c, 1, 43, 0
3, 47820, Note_on_c, 1, 43, 68
3, 47853, Note_on_c, 1, 43, 0
3, 47880, Note_on_c, 1, 43, 62
3, 47912, Note_on_c, 1, 43, 0
3, 47940, Note_on_c, 1, 43, 62
3, 47964, Note_on_c, 1, 43, 0
3, 48000, Note_on_c, 1, 36, 72
3, 48007, Control_c, 1, 64, 0
3, 48030, Control_c, 1, 64, 127
3, 48060, Note_on_c, 1, 43, 64
3, 48065, Control_c, 1, 64, 0
3, 48075, Control_c, 1, 64, 127
3, 48089, Note_on_c, 1, 43, 0
3, 48095, Note_on_c, 1, 36, 0
3, 48120, Note_on_c, 1, 43, 55
3, 48130, Control_c, 1, 64, 0
3, 48141, Control_c, 1, 64, 127
3, 48158, Note_on_c, 1, 43, 0
3, 48180, Note_on_c, 1, 43, 62
3, 48207, Note_on_c, 1, 43, 0
3, 48240, Note_on_c, 1, 43, 64
3, 48244, Control_c, 1, 64, 0
3, 48254, Control_c, 1, 64, 127
3, 48275, Note_on_c, 1, 43, 0
3, 48300, Note_on_c, 1, 43, 62
3, 48322, Note_on_c, 1, 43, 0
3, 48360, Note_on_c, 1, 35, 76
3, 48367, Control_c, 1, 64, 0
3, 48383, Control_c, 1, 64, 127
3, 48420, Note_on_c, 1, 43, 68
3, 48432, Note_on_c, 1, 35, 0
3, 48442, Note_on_c, 1, 43, 0
3, 48480, Note_on_c, 1, 43, 72
3, 48489, Control_c, 1, 64, 0
3, 48502, Control_c, 1, 64, 127
3, 48512, Note_on_c, 1, 43, 0
3, 48540, Note_on_c, 1, 43, 60
3, 48572, Note_on_c, 1, 43, 0
3, 48600, Note_on_c, 1, 43, 64
3, 48627, Note_on_c, 1, 43, 0
3, 48660, Note_on_c, 1, 43, 64
3, 48678, Note_on_c, 1, 43, 0
3, 48720, Note_on_c, 1, 42, 64
3, 48727, Control_c, 1, 64, 0
3, 48747, Control_c, 1, 64, 127
3, 48780, Note_on_c, 1, 50, 72
3, 48801, Note_on_c, 1, 50, 0
3, 48840, Note_on_c, 1, 50, 64
3, 48859, Note_on_c, 1, 50, 0
3, 48865, Note_on_c, 1, 42, 0
3, 48900, Note_on_c, 1, 50, 72
3, 48906, Control_c, 1, 64, 0
3, 48921, Control_c, 1, 64, 127
3, 48934, Note_on_c, 1, 50, 0
3, 48960, Note_on_c, 1, 43, 64
3, 48960, Note_on_c, 1, 50, 80
3, 48965, Control_c, 1, 64, 0
3, 48978, Control_c, 1, 64, 127
3, 48991, Note_on_c, 1, 50, 0
3, 49020, Note_on_c, 1, 50, 62
3, 49026, Note_on_c, 1, 43, 0
3, 49036, Note_on_c, 1, 50, 0
3, 49080, Note_on_c, 1, 38, 76
3, 49085, Control_c, 1, 64, 0
3, 49099, Control_c, 1, 64, 127
3, 49205, Note_on_c, 1, 38, 0
3, 49209, Control_c, 1, 64, 0
3, 49439, Control_c, 1, 64, 127
3, 49440, Note_on_c, 1, 55, 76
3, 49449, Control_c, 1, 64, 127
3, 49469, Note_on_c, 1, 55, 0
3, 49470, Note_on_c, 1, 62, 76
3, 49490, Note_on_c, 1, 62, 0
3, 49500, Note_on_c, 1, 59, 72
3, 49527, Note_on_c, 1, 59, 0
3, 49530, Note_on_c, 1, 62, 62
3, 49559, Note_on_c, 1, 62, 0
3, 49560, Note_on_c, 1, 55, 72
3, 49560, Note_on_c, 1, 31, 93
3, 49569, Control_c, 1, 64, 0
3, 49584, Control_c, 1, 64, 127
3, 49590, Note_on_c, 1, 62, 85
3, 49591, Note_on_c, 1, 55, 0
3, 49616, Note_on_c, 1, 62, 0
3, 49620, Note_on_c, 1, 59, 62
3, 49647, Note_on_c, 1, 59, 0
3, 49650, Note_on_c, 1, 62, 80
3, 49675, Note_on_c, 1, 31, 0
3, 49678, Note_on_c, 1, 62, 0
3, 49680, Note_on_c, 1, 43, 85
3, 49680, Note_on_c, 1, 55, 76
3, 49688, Control_c, 1, 64, 0
3, 49702, Control_c, 1, 64, 127
3, 49710, Note_on_c, 1, 62, 80
3, 49711, Note_on_c, 1, 55, 0
3, 49733, Note_on_c, 1, 62, 0
3, 49740, Note_on_c, 1, 59, 80
3, 49758, Note_on_c, 1, 43, 0
3, 49768, Note_on_c, 1, 59, 0
3, 49770, Note_on_c, 1, 62, 76
3, 49800, Note_on_c, 1, 57, 89
3, 49800, Note_on_c, 1, 50, 80
3, 49802, Note_on_c, 1, 62, 0
3, 49808, Control_c, 1, 64, 0
3, 49825, Control_c, 1, 64, 127
3, 49830, Note_on_c, 1, 62, 76
3, 49831, Note_on_c, 1, 57, 0
3, 49853, Note_on_c, 1, 62, 0
3, 49860, Note_on_c, 1, 60, 76
3, 49889, Note_on_c, 1, 60, 0
3, 49890, Note_on_c, 1, 62, 76
3, 49915, Note_on_c, 1, 50, 0
3, 49919, Note_on_c, 1, 62, 0
3, 49920, Note_on_c, 1, 38, 85
3, 49920, Note_on_c, 1, 57, 85
3, 49926, Control_c, 1, 64, 0
3, 49939, Control_c, 1, 64, 127
3, 49948, Note_on_c, 1, 57, 0
3, 49950, Note_on_c, 1, 62, 85
3, 49976, Note_on_c, 1, 62, 0
3, 49980, Note_on_c, 1, 60, 80
3, 49987, Note_on_c, 1, 38, 0
3, 50008, Note_on_c, 1, 60, 0
3, 50010, Note_on_c, 1, 62, 89
3, 50038, Note_on_c, 1, 62, 0
3, 50040, Note_on_c, 1, 60, 89
3, 50047, Control_c, 1, 64, 0
3, 50054, Note_on_c, 1, 60, 0
3, 50055, Note_on_c, 1, 62, 85
3, 50070, Note_on_c, 1, 59, 89
3, 50073, Note_on_c, 1, 62, 0
3, 50084, Note_on_c, 1, 59, 0
3, 50085, Note_on_c, 1, 60, 76
3, 50100, Note_on_c, 1, 57, 102
3, 50104, Note_on_c, 1, 60, 0
3, 50115, Note_on_c, 1, 57, 0
3, 50115, Note_on_c, 1, 59, 89
3, 50130, Note_on_c, 1, 55, 76
3, 50131, Note_on_c, 1, 59, 0
3, 50142, Note_on_c, 1, 55, 0
3, 50145, Note_on_c, 1, 57, 76
3, 50160, Note_on_c, 1, 54, 76
3, 50161, Note_on_c, 1, 57, 0
3, 50189, Control_c, 1, 64, 127
3, 50190, Note_on_c, 1, 62, 85
3, 50191, Note_on_c, 1, 54, 0
3, 50217, Note_on_c, 1, 62, 0
3, 50220, Note_on_c, 1, 57, 76
3, 50250, Note_on_c, 1, 57, 0
3, 50250, Note_on_c, 1, 62, 85
3, 50278, Note_on_c, 1, 62, 0
3, 50280, Note_on_c, 1, 54, 60
3, 50280, Note_on_c, 1, 38, 102
3, 50288, Control_c, 1, 64, 0
3, 50304, Control_c, 1, 64, 127
3, 50310, Note_on_c, 1, 62, 76
3, 50313, Note_on_c, 1, 54, 0
3, 50335, Note_on_c, 1, 62, 0
3, 50340, Note_on_c, 1, 57, 72
3, 50363, Note_on_c, 1, 57, 0
3, 50370, Note_on_c, 1, 62, 76
3, 50392, Note_on_c, 1, 38, 0
3, 50393, Note_on_c, 1, 62, 0
3, 50400, Note_on_c, 1, 54, 72
3, 50400, Note_on_c, 1, 50, 98
3, 50408, Control_c, 1, 64, 0
3, 50423, Control_c, 1, 64, 127
3, 50430, Note_on_c, 1, 62, 72
3, 50433, Note_on_c, 1, 54, 0
3, 50451, Note_on_c, 1, 62, 0
3, 50460, Note_on_c, 1, 57, 85
3, 50484, Note_on_c, 1, 57, 0
3, 50490, Note_on_c, 1, 62, 85
3, 50514, Note_on_c, 1, 50, 0
3, 50517, Note_on_c, 1, 62, 0
3, 50520, Note_on_c, 1, 54, 72
3, 50520, Note_on_c, 1, 43, 76
3, 50526, Control_c, 1, 64, 0
3, 50545, Control_c, 1, 64, 127
3, 50549, Note_on_c, 1, 54, 0
3, 50550, Note_on_c, 1, 62, 80
3, 50572, Note_on_c, 1, 62, 0
3, 50580, Note_on_c, 1, 60, 64
3, 50605, Note_on_c, 1, 60, 0
3, 50610, Note_on_c, 1, 62, 76
3, 50636, Note_on_c, 1, 62, 0
3, 50637, Note_on_c, 1, 43, 0
3, 50640, Note_on_c, 1, 31, 80
3, 50640, Note_on_c, 1, 55, 76
3, 50646, Control_c, 1, 64, 0
3, 50660, Control_c, 1, 64, 127
3, 50669, Note_on_c, 1, 55, 0
3, 50670, Note_on_c, 1, 62, 76
3, 50692, Note_on_c, 1, 62, 0
3, 50700, Note_on_c, 1, 59, 80
3, 50729, Note_on_c, 1, 59, 0
3, 50730, Note_on_c, 1, 31, 0
3, 50730, Note_on_c, 1, 62, 76
3, 50739, Note_on_c, 1, 62, 0
3, 50760, Note_on_c, 1, 55, 93
3, 50767, Control_c, 1, 64, 0
3, 50773, Note_on_c, 1, 55, 0
3, 50775, Note_on_c, 1, 57, 89
3, 50790, Note_on_c, 1, 54, 85
3, 50792, Note_on_c, 1, 57, 0
3, 50804, Note_on_c, 1, 54, 0
3, 50805, Note_on_c, 1, 55, 89
3, 50819, Note_on_c, 1, 55, 0
3, 50820, Note_on_c, 1, 52, 80
3, 50834, Note_on_c, 1, 52, 0
3, 50835, Note_on_c, 1, 54, 80
3, 50849, Note_on_c, 1, 54, 0
3, 50850, Note_on_c, 1, 50, 76
3, 50862, Note_on_c, 1, 50, 0
3, 50865, Note_on_c, 1, 52, 64
3, 50880, Note_on_c, 1, 48, 85
3, 50882, Note_on_c, 1, 52, 0
3, 50909, Note_on_c, 1, 48, 0
3, 50910, Note_on_c, 1, 55, 80
3, 50927, Control_c, 1, 64, 127
3, 50936, Note_on_c, 1, 55, 0
3, 50940, Note_on_c, 1, 52, 80
3, 50969, Note_on_c, 1, 52, 0
3, 50970, Note_on_c, 1, 55, 72
3, 50999, Note_on_c, 1, 55, 0
3, 51000, Note_on_c, 1, 36, 76
3, 51000, Note_on_c, 1, 48, 76
3, 51007, Control_c, 1, 64, 0
3, 51021, Control_c, 1, 64, 127
3, 51030, Note_on_c, 1, 55, 72
3, 51032, Note_on_c, 1, 48, 0
3, 51058, Note_on_c, 1, 55, 0
3, 51060, Note_on_c, 1, 52, 80
3, 51088, Note_on_c, 1, 52, 0
3, 51090, Note_on_c, 1, 55, 76
3, 51091, Note_on_c, 1, 36, 0
3, 51119, Note_on_c, 1, 55, 0
3, 51120, Note_on_c, 1, 48, 76
3, 51120, Note_on_c, 1, 36, 89
3, 51128, Control_c, 1, 64, 0
3, 51144, Control_c, 1, 64, 127
3, 51150, Note_on_c, 1, 55, 72
3, 51152, Note_on_c, 1, 48, 0
3, 51174, Note_on_c, 1, 55, 0
3, 51180, Note_on_c, 1, 52, 80
3, 51205, Note_on_c, 1, 36, 0
3, 51210, Note_on_c, 1, 52, 0
3, 51210, Note_on_c, 1, 55, 76
3, 51226, Note_on_c, 1, 55, 0
3, 51240, Note_on_c, 1, 47, 80
3, 51240, Note_on_c, 1, 35, 72
3, 51246, Control_c, 1, 64, 0
3, 51262, Control_c, 1, 64, 127
3, 51270, Note_on_c, 1, 55, 76
3, 51272, Note_on_c, 1, 47, 0
3, 51291, Note_on_c, 1, 55, 0
3, 51300, Note_on_c, 1, 50, 80
3, 51309, Note_on_c, 1, 35, 0
3, 51330, Note_on_c, 1, 50, 0
3, 51330, Note_on_c, 1, 55, 85
3, 51357, Note_on_c, 1, 55, 0
3, 51360, Note_on_c, 1, 31, 85
3, 51360, Note_on_c, 1, 47, 85
3, 51365, Control_c, 1, 64, 0
3, 51380, Control_c, 1, 64, 127
3, 51390, Note_on_c, 1, 50, 89
3, 51391, Note_on_c, 1, 47, 0
3, 51416, Note_on_c, 1, 50, 0
3, 51420, Note_on_c, 1, 55, 76
3, 51433, Note_on_c, 1, 31, 0
3, 51449, Note_on_c, 1, 55, 0
3, 51450, Note_on_c, 1, 50, 93
3, 51456, Note_on_c, 1, 50, 0
3, 51480, Note_on_c, 1, 43, 85
3, 51480, Note_on_c, 1, 59, 93
3, 51486, Control_c, 1, 64, 0
3, 51501, Control_c, 1, 64, 127
3, 51509, Note_on_c, 1, 59, 0
3, 51510, Note_on_c, 1, 55, 80
3, 51531, Note_on_c, 1, 55, 0
3, 51540, Note_on_c, 1, 62, 89
3, 51556, Note_on_c, 1, 43, 0
3, 51565, Note_on_c, 1, 62, 0
3, 51570, Note_on_c, 1, 59, 89
3, 51577, Note_on_c, 1, 59, 0
3, 51600, Note_on_c, 1, 60, 76
3, 51600, Note_on_c, 1, 48, 72
3, 51611, Control_c, 1, 64, 0
3, 51613, Note_on_c, 1, 60, 0
3, 51615, Note_on_c, 1, 62, 93
3, 51625, Note_on_c, 1, 62, 0
3, 51630, Note_on_c, 1, 64, 85
3, 51660, Note_on_c, 1, 62, 93
3, 51664, Note_on_c, 1, 64, 0
3, 51672, Control_c, 1, 64, 127
3, 51688, Note_on_c, 1, 62, 0
3, 51690, Note_on_c, 1, 60, 85
3, 51714, Note_on_c, 1, 60, 0
3, 51718, Note_on_c, 1, 48, 0
3, 51720, Note_on_c, 1, 59, 93
3, 51720, Note_on_c, 1, 50, 72
3, 51725, Control_c, 1, 64, 0
3, 51742, Control_c, 1, 64, 127
3, 51749, Note_on_c, 1, 59, 0
3, 51750, Note_on_c, 1, 62, 72
3, 51780, Note_on_c, 1, 62, 0
3, 51780, Note_on_c, 1, 59, 89
3, 51810, Note_on_c, 1, 55, 76
3, 51811, Note_on_c, 1, 59, 0
3, 51836, Note_on_c, 1, 55, 0
3, 51838, Note_on_c, 1, 50, 0
3, 51840, Note_on_c, 1, 38, 85
3, 51840, Note_on_c, 1, 60, 80
3, 51848, Control_c, 1, 64, 0
3, 51864, Control_c, 1, 64, 127
3, 51868, Note_on_c, 1, 60, 0
3, 51870, Note_on_c, 1, 62, 80
3, 51898, Note_on_c, 1, 62, 0
3, 51900, Note_on_c, 1, 60, 89
3, 51908, Control_c, 1, 64, 0
3, 51915, Control_c, 1, 64, 127
3, 51929, Note_on_c, 1, 60, 0
3, 51930, Note_on_c, 1, 57, 89
3, 51953, Note_on_c, 1, 57, 0
3, 51956, Note_on_c, 1, 38, 0
3, 51960, Note_on_c, 1, 43, 68
3, 51960, Note_on_c, 1, 59, 89
3, 51973, Control_c, 1, 64, 0
3, 51987, Control_c, 1, 64, 127
3, 51990, Note_on_c, 1, 62, 80
3, 51991, Note_on_c, 1, 59, 0
3, 52010, Note_on_c, 1, 62, 0
3, 52020, Note_on_c, 1, 59, 76
3, 52044, Note_on_c, 1, 59, 0
3, 52050, Note_on_c, 1, 55, 76
3, 52077, Note_on_c, 1, 55, 0
3, 52080, Note_on_c, 1, 50, 72
3, 52088, Note_on_c, 1, 43, 0
3, 52097, Note_on_c, 1, 50, 0
3, 52110, Note_on_c, 1, 55, 64
3, 52122, Note_on_c, 1, 55, 0
3, 52140, Note_on_c, 1, 43, 102
3, 52140, Note_on_c, 1, 59, 89
3, 52143, Control_c, 1, 64, 0
3, 52156, Control_c, 1, 64, 127
3, 52170, Note_on_c, 1, 59, 0
3, 52170, Note_on_c, 1, 55, 68
3, 52186, Note_on_c, 1, 55, 0
3, 52197, Note_on_c, 1, 43, 0
3, 52200, Note_on_c, 1, 62, 89
3, 52200, Note_on_c, 1, 47, 93
3, 52206, Control_c, 1, 64, 0
3, 52218, Control_c, 1, 64, 127
3, 52229, Note_on_c, 1, 62, 0
3, 52230, Note_on_c, 1, 55, 72
3, 52252, Note_on_c, 1, 55, 0
3, 52255, Note_on_c, 1, 47, 0
3, 52260, Note_on_c, 1, 50, 93
3, 52260, Note_on_c, 1, 54, 76
3, 52264, Control_c, 1, 64, 0
3, 52276, Control_c, 1, 64, 127
3, 52286, Note_on_c, 1, 54, 0
3, 52290, Note_on_c, 1, 57, 85
3, 52319, Note_on_c, 1, 57, 0
3, 52320, Note_on_c, 1, 55, 76
3, 52320, Note_on_c, 1, 43, 93
3, 52321, Note_on_c, 1, 50, 0
3, 52324, Control_c, 1, 64, 0
3, 52339, Control_c, 1, 64, 127
3, 52350, Note_on_c, 1, 59, 59
3, 52352, Note_on_c, 1, 55, 0
3, 52379, Note_on_c, 1, 59, 0
3, 52380, Note_on_c, 1, 62, 64
3, 52408, Note_on_c, 1, 62, 0
3, 52410, Note_on_c, 1, 59, 76
3, 52440, Note_on_c, 1, 55, 80
3, 52441, Note_on_c, 1, 59, 0
3, 52468, Note_on_c, 1, 55, 0
3, 52470, Note_on_c, 1, 59, 72
3, 52484, Note_on_c, 1, 43, 0
3, 52495, Note_on_c, 1, 59, 0
3, 52500, Note_on_c, 1, 62, 89
3, 52500, Note_on_c, 1, 43, 93
3, 52506, Control_c, 1, 64, 0
3, 52518, Control_c, 1, 64, 127
3, 52529, Note_on_c, 1, 62, 0
3, 52530, Note_on_c, 1, 55, 76
3, 52555, Note_on_c, 1, 55, 0
3, 52558, Note_on_c, 1, 43, 0
3, 52560, Note_on_c, 1, 54, 85
3, 52560, Note_on_c, 1, 50, 89
3, 52568, Control_c, 1, 64, 0
3, 52581, Control_c, 1, 64, 127
3, 52588, Note_on_c, 1, 54, 0
3, 52590, Note_on_c, 1, 57, 76
3, 52617, Note_on_c, 1, 57, 0
3, 52620, Note_on_c, 1, 50, 0
3, 52620, Note_on_c, 1, 62, 85
3, 52620, Note_on_c, 1, 38, 93
3, 52628, Control_c, 1, 64, 0
3, 52640, Control_c, 1, 64, 127
3, 52648, Note_on_c, 1, 62, 0
3, 52650, Note_on_c, 1, 54, 76
3, 52661, Note_on_c, 1, 54, 0
3, 52678, Note_on_c, 1, 38, 0
3, 52680, Note_on_c, 1, 52, 80
3, 52680, Note_on_c, 1, 45, 93
3, 52690, Control_c, 1, 64, 0
3, 52706, Control_c, 1, 64, 127
3, 52710, Note_on_c, 1, 57, 64
3, 52715, Note_on_c, 1, 52, 0
3, 52740, Note_on_c, 1, 61, 76
3, 52741, Note_on_c, 1, 57, 0
3, 52769, Note_on_c, 1, 61, 0
3, 52770, Note_on_c, 1, 57, 76
3, 52796, Note_on_c, 1, 57, 0
3, 52800, Note_on_c, 1, 52, 72
3, 52821, Note_on_c, 1, 52, 0
3, 52821, Note_on_c, 1, 45, 0
3, 52830, Note_on_c, 1, 57, 76
3, 52857, Note_on_c, 1, 57, 0
3, 52860, Note_on_c, 1, 45, 98
3, 52860, Note_on_c, 1, 61, 85
3, 52861, Control_c, 1, 64, 0
3, 52872, Control_c, 1, 64, 127
3, 52890, Note_on_c, 1, 61, 0
3, 52890, Note_on_c, 1, 57, 85
3, 52897, Note_on_c, 1, 57, 0
3, 52917, Note_on_c, 1, 45, 0
3, 52920, Note_on_c, 1, 50, 98
3, 52920, Note_on_c, 1, 62, 93
3, 52922, Control_c, 1, 64, 0
3, 52934, Control_c, 1, 64, 127
3, 52950, Note_on_c, 1, 62, 0
3, 52950, Note_on_c, 1, 57, 76
3, 52958, Note_on_c, 1, 50, 0
3, 52978, Note_on_c, 1, 57, 0
3, 52980, Note_on_c, 1, 54, 85
3, 52980, Note_on_c, 1, 38, 102
3, 52985, Control_c, 1, 64, 0
3, 52994, Control_c, 1, 64, 127
3, 53010, Note_on_c, 1, 50, 85
3, 53011, Note_on_c, 1, 54, 0
3, 53023, Note_on_c, 1, 50, 0
3, 53032, Note_on_c, 1, 38, 0
3, 53040, Note_on_c, 1, 55, 89
3, 53040, Note_on_c, 1, 43, 89
3, 53047, Control_c, 1, 64, 0
3, 53061, Control_c, 1, 64, 127
3, 53070, Note_on_c, 1, 59, 56
3, 53073, Note_on_c, 1, 55, 0
3, 53099, Note_on_c, 1, 59, 0
3, 53100, Note_on_c, 1, 62, 76
3, 53124, Note_on_c, 1, 62, 0
3, 53130, Note_on_c, 1, 59, 64
3, 53158, Note_on_c, 1, 59, 0
3, 53160, Note_on_c, 1, 55, 72
3, 53186, Note_on_c, 1, 55, 0
3, 53190, Note_on_c, 1, 43, 0
3, 53190, Note_on_c, 1, 59, 76
3, 53201, Note_on_c, 1, 59, 0
3, 53220, Note_on_c, 1, 43, 89
3, 53220, Note_on_c, 1, 62, 89
3, 53226, Control_c, 1, 64, 0
3, 53238, Control_c, 1, 64, 127
3, 53245, Note_on_c, 1, 62, 0
3, 53250, Note_on_c, 1, 59, 85
3, 53277, Note_on_c, 1, 43, 0
3, 53279, Note_on_c, 1, 59, 0
3, 53280, Note_on_c, 1, 55, 93
3, 53280, Note_on_c, 1, 40, 93
3, 53287, Control_c, 1, 64, 0
3, 53299, Control_c, 1, 64, 127
3, 53307, Note_on_c, 1, 55, 0
3, 53310, Note_on_c, 1, 59, 80
3, 53339, Note_on_c, 1, 59, 0
3, 53339, Note_on_c, 1, 40, 0
3, 53340, Note_on_c, 1, 55, 93
3, 53340, Note_on_c, 1, 43, 89
3, 53347, Control_c, 1, 64, 0
3, 53357, Control_c, 1, 64, 127
3, 53369, Note_on_c, 1, 55, 0
3, 53370, Note_on_c, 1, 52, 93
3, 53397, Note_on_c, 1, 52, 0
3, 53398, Note_on_c, 1, 43, 0
3, 53400, Note_on_c, 1, 45, 85
3, 53400, Note_on_c, 1, 54, 80
3, 53408, Control_c, 1, 64, 0
3, 53423, Control_c, 1, 64, 127
3, 53427, Note_on_c, 1, 54, 0
3, 53430, Note_on_c, 1, 57, 72
3, 53459, Note_on_c, 1, 57, 0
3, 53460, Note_on_c, 1, 54, 76
3, 53490, Note_on_c, 1, 54, 0
3, 53490, Note_on_c, 1, 50, 68
3, 53516, Note_on_c, 1, 50, 0
3, 53516, Note_on_c, 1, 45, 0
3, 53520, Note_on_c, 1, 52, 85
3, 53520, Note_on_c, 1, 33, 89
3, 53524, Control_c, 1, 64, 0
3, 53538, Control_c, 1, 64, 127
3, 53579, Note_on_c, 1, 33, 0
3, 53579, Control_c, 1, 64, 0
3, 53580, Note_on_c, 1, 52, 0
3, 53580, Note_on_c, 1, 43, 93
3, 53590, Control_c, 1, 64, 127
3, 53640, Note_on_c, 1, 42, 80
3, 53642, Control_c, 1, 64, 0
3, 53643, Note_on_c, 1, 43, 0
3, 53657, Control_c, 1, 64, 127
3, 53700, Note_on_c, 1, 42, 0
3, 53700, Note_on_c, 1, 40, 89
3, 53702, Control_c, 1, 64, 0
3, 53714, Control_c, 1, 64, 127
3, 53759, Note_on_c, 1, 40, 0
3, 53760, Note_on_c, 1, 38, 72
3, 53760, Note_on_c, 1, 45, 89
3, 53764, Control_c, 1, 64, 0
3, 53777, Control_c, 1, 64, 127
3, 53798, Note_on_c, 1, 38, 0
3, 53820, Note_on_c, 1, 38, 72
3, 53828, Note_on_c, 1, 45, 0
3, 53848, Note_on_c, 1, 38, 0
3, 53850, Note_on_c, 1, 47, 80
3, 53877, Note_on_c, 1, 47, 0
3, 53878, Control_c, 1, 64, 0
3, 53880, Note_on_c, 1, 38, 62
3, 53880, Note_on_c, 1, 45, 72
3, 53891, Control_c, 1, 64, 127
3, 53917, Note_on_c, 1, 38, 0
3, 53932, Note_on_c, 1, 45, 0
3, 53940, Note_on_c, 1, 50, 85
3, 53940, Note_on_c, 1, 38, 68
3, 53946, Control_c, 1, 64, 0
3, 53956, Control_c, 1, 64, 127
3, 53976, Note_on_c, 1, 38, 0
3, 53979, Note_on_c, 1, 50, 0
3, 54000, Note_on_c, 1, 38, 72
3, 54000, Note_on_c, 1, 52, 76
3, 54007, Control_c, 1, 64, 0
3, 54016, Control_c, 1, 64, 127
3, 54026, Note_on_c, 1, 52, 0
3, 54034, Note_on_c, 1, 38, 0
3, 54060, Note_on_c, 1, 54, 72
3, 54060, Note_on_c, 1, 38, 68
3, 54066, Control_c, 1, 64, 0
3, 54077, Control_c, 1, 64, 127
3, 54085, Note_on_c, 1, 38, 0
3, 54091, Note_on_c, 1, 54, 0
3, 54120, Note_on_c, 1, 54, 68
3, 54120, Note_on_c, 1, 37, 64
3, 54124, Control_c, 1, 64, 0
3, 54135, Control_c, 1, 64, 127
3, 54155, Note_on_c, 1, 37, 0
3, 54160, Note_on_c, 1, 54, 0
3, 54180, Note_on_c, 1, 55, 72
3, 54180, Note_on_c, 1, 37, 68
3, 54188, Control_c, 1, 64, 0
3, 54198, Control_c, 1, 64, 127
3, 54211, Note_on_c, 1, 37, 0
3, 54213, Note_on_c, 1, 55, 0
3, 54240, Note_on_c, 1, 55, 72
3, 54240, Note_on_c, 1, 37, 68
3, 54244, Control_c, 1, 64, 0
3, 54254, Control_c, 1, 64, 127
3, 54282, Note_on_c, 1, 37, 0
3, 54300, Note_on_c, 1, 37, 60
3, 54339, Note_on_c, 1, 37, 0
3, 54360, Note_on_c, 1, 37, 64
3, 54388, Note_on_c, 1, 37, 0
3, 54419, Note_on_c, 1, 55, 0
3, 54420, Note_on_c, 1, 37, 72
3, 54443, Note_on_c, 1, 37, 0
3, 54480, Note_on_c, 1, 38, 72
3, 54480, Note_on_c, 1, 45, 76
3, 54481, Control_c, 1, 64, 0
3, 54493, Control_c, 1, 64, 127
3, 54515, Note_on_c, 1, 38, 0
3, 54540, Note_on_c, 1, 38, 72
3, 54544, Note_on_c, 1, 45, 0
3, 54563, Note_on_c, 1, 38, 0
3, 54570, Note_on_c, 1, 47, 85
3, 54600, Note_on_c, 1, 47, 0
3, 54600, Note_on_c, 1, 38, 72
3, 54600, Note_on_c, 1, 45, 80
3, 54602, Control_c, 1, 64, 0
3, 54615, Control_c, 1, 64, 127
3, 54637, Note_on_c, 1, 45, 0
3, 54637, Note_on_c, 1, 38, 0
3, 54660, Note_on_c, 1, 50, 93
3, 54660, Note_on_c, 1, 38, 72
3, 54666, Control_c, 1, 64, 0
3, 54676, Control_c, 1, 64, 127
3, 54698, Note_on_c, 1, 38, 0
3, 54698, Note_on_c, 1, 50, 0
3, 54720, Note_on_c, 1, 38, 72
3, 54720, Note_on_c, 1, 52, 89
3, 54727, Control_c, 1, 64, 0
3, 54736, Control_c, 1, 64, 127
3, 54753, Note_on_c, 1, 52, 0
3, 54760, Note_on_c, 1, 38, 0
3, 54780, Note_on_c, 1, 54, 76
3, 54780, Note_on_c, 1, 38, 76
3, 54789, Control_c, 1, 64, 0
3, 54799, Control_c, 1, 64, 127
3, 54813, Note_on_c, 1, 54, 0
3, 54818, Note_on_c, 1, 38, 0
3, 54840, Note_on_c, 1, 54, 72
3, 54840, Note_on_c, 1, 37, 68
3, 54846, Control_c, 1, 64, 0
3, 54857, Control_c, 1, 64, 127
3, 54882, Note_on_c, 1, 37, 0
3, 54890, Note_on_c, 1, 54, 0
3, 54900, Note_on_c, 1, 55, 76
3, 54900, Note_on_c, 1, 37, 64
3, 54907, Control_c, 1, 64, 0
3, 54917, Control_c, 1, 64, 127
3, 54933, Note_on_c, 1, 37, 0
3, 54936, Note_on_c, 1, 55, 0
3, 54960, Note_on_c, 1, 55, 76
3, 54960, Note_on_c, 1, 37, 64
3, 54965, Control_c, 1, 64, 0
3, 54975, Control_c, 1, 64, 127
3, 55000, Note_on_c, 1, 37, 0
3, 55020, Note_on_c, 1, 37, 68
3, 55055, Note_on_c, 1, 37, 0
3, 55080, Note_on_c, 1, 37, 76
3, 55101, Note_on_c, 1, 37, 0
3, 55140, Note_on_c, 1, 37, 57
3, 55159, Note_on_c, 1, 37, 0
3, 55160, Note_on_c, 1, 55, 0
3, 55200, Control_c, 1, 64, 0
3, 55200, Note_on_c, 1, 38, 89
3, 55200, Note_on_c, 1, 55, 89
3, 55212, Control_c, 1, 64, 127
3, 55215, Note_on_c, 1, 54, 60
3, 55217, Note_on_c, 1, 55, 0
3, 55226, Note_on_c, 1, 54, 0
3, 55230, Note_on_c, 1, 55, 59
3, 55244, Note_on_c, 1, 55, 0
3, 55245, Note_on_c, 1, 54, 60
3, 55258, Note_on_c, 1, 54, 0
3, 55260, Note_on_c, 1, 55, 100
3, 55261, Note_on_c, 1, 38, 0
3, 55265, Control_c, 1, 64, 0
3, 55274, Control_c, 1, 64, 127
3, 55275, Note_on_c, 1, 55, 0
3, 55275, Note_on_c, 1, 54, 100
3, 55290, Note_on_c, 1, 54, 0
3, 55290, Note_on_c, 1, 43, 76
3, 55290, Note_on_c, 1, 55, 93
3, 55320, Note_on_c, 1, 50, 72
3, 55320, Note_on_c, 1, 45, 76
3, 55321, Control_c, 1, 64, 0
3, 55336, Control_c, 1, 64, 127
3, 55348, Note_on_c, 1, 43, 0
3, 55349, Note_on_c, 1, 55, 0
3, 55350, Note_on_c, 1, 54, 59
3, 55357, Note_on_c, 1, 50, 0
3, 55380, Note_on_c, 1, 54, 0
3, 55380, Note_on_c, 1, 57, 89
3, 55410, Note_on_c, 1, 54, 62
3, 55411, Note_on_c, 1, 57, 0
3, 55440, Note_on_c, 1, 54, 0
3, 55440, Note_on_c, 1, 52, 80
3, 55440, Note_on_c, 1, 33, 85
3, 55444, Note_on_c, 1, 45, 0
3, 55449, Control_c, 1, 64, 0
3, 55464, Control_c, 1, 64, 127
3, 55469, Note_on_c, 1, 52, 0
3, 55470, Note_on_c, 1, 55, 76
3, 55500, Note_on_c, 1, 55, 0
3, 55500, Note_on_c, 1, 57, 85
3, 55530, Note_on_c, 1, 57, 0
3, 55530, Note_on_c, 1, 55, 76
3, 55540, Note_on_c, 1, 55, 0
3, 55540, Note_on_c, 1, 33, 0
3, 55560, Note_on_c, 1, 57, 80
3, 55560, Note_on_c, 1, 38, 72
3, 55560, Note_on_c, 1, 55, 80
3, 55560, Note_on_c, 1, 52, 72
3, 55567, Control_c, 1, 64, 0
3, 55581, Control_c, 1, 64, 127
3, 55683, Note_on_c, 1, 38, 0
3, 55691, Control_c, 1, 64, 0
3, 55695, Note_on_c, 1, 33, 76
3, 55704, Control_c, 1, 64, 127
3, 55780, Note_on_c, 1, 52, 0
3, 55790, Note_on_c, 1, 55, 0
3, 55800, Note_on_c, 1, 50, 60
3, 55800, Note_on_c, 1, 54, 60
3, 55800, Note_on_c, 1, 38, 62
3, 55807, Control_c, 1, 64, 0
3, 55810, Note_on_c, 1, 33, 0
3, 55820, Control_c, 1, 64, 127
3, 55871, Note_on_c, 1, 57, 0
3, 55875, Note_on_c, 1, 54, 0
3, 55879, Note_on_c, 1, 38, 0
3, 55880, Note_on_c, 1, 50, 0
3, 55918, Control_c, 1, 64, 0
3, 55920, Note_on_c, 1, 45, 113
3, 55920, Note_on_c, 1, 33, 98
3, 56009, Note_on_c, 1, 33, 0
3, 56010, Note_on_c, 1, 45, 0
3, 56010, Note_on_c, 1, 35, 85
3, 56010, Note_on_c, 1, 47, 102
3, 56039, Note_on_c, 1, 35, 0
3, 56040, Note_on_c, 1, 47, 0
3, 56040, Note_on_c, 1, 33, 98
3, 56040, Note_on_c, 1, 45, 113
3, 56100, Note_on_c, 1, 50, 102
3, 56100, Note_on_c, 1, 38, 93
3, 56101, Note_on_c, 1, 45, 0
3, 56104, Note_on_c, 1, 33, 0
3, 56160, Note_on_c, 1, 52, 102
3, 56160, Note_on_c, 1, 40, 93
3, 56161, Note_on_c, 1, 50, 0
3, 56161, Note_on_c, 1, 38, 0
3, 56181, Control_c, 1, 64, 127
3, 56220, Control_c, 1, 64, 0
3, 56220, Note_on_c, 1, 42, 89
3, 56220, Note_on_c, 1, 54, 89
3, 56221, Note_on_c, 1, 40, 0
3, 56222, Note_on_c, 1, 52, 0
3, 56235, Control_c, 1, 64, 127
3, 56272, Note_on_c, 1, 42, 0
3, 56274, Note_on_c, 1, 54, 0
3, 56280, Note_on_c, 1, 54, 98
3, 56280, Note_on_c, 1, 42, 85
3, 56284, Control_c, 1, 64, 0
3, 56298, Control_c, 1, 64, 127
3, 56339, Note_on_c, 1, 54, 0
3, 56340, Note_on_c, 1, 43, 89
3, 56340, Note_on_c, 1, 55, 93
3, 56342, Note_on_c, 1, 42, 0
3, 56342, Control_c, 1, 64, 0
3, 56355, Control_c, 1, 64, 127
3, 56382, Note_on_c, 1, 43, 0
3, 56386, Note_on_c, 1, 55, 0
3, 56400, Note_on_c, 1, 55, 102
3, 56400, Note_on_c, 1, 43, 93
3, 56402, Control_c, 1, 64, 0
3, 56415, Control_c, 1, 64, 127
3, 56599, Note_on_c, 1, 55, 0
3, 56603, Note_on_c, 1, 43, 0
3, 56640, Note_on_c, 1, 33, 93
3, 56640, Note_on_c, 1, 45, 107
3, 56642, Control_c, 1, 64, 0
3, 56658, Control_c, 1, 64, 127
3, 56724, Note_on_c, 1, 33, 0
3, 56728, Note_on_c, 1, 45, 0
3, 56730, Note_on_c, 1, 35, 76
3, 56730, Note_on_c, 1, 47, 102
3, 56731, Control_c, 1, 64, 0
3, 56760, Note_on_c, 1, 33, 93
3, 56760, Note_on_c, 1, 45, 102
3, 56762, Note_on_c, 1, 47, 0
3, 56764, Note_on_c, 1, 35, 0
3, 56771, Control_c, 1, 64, 127
3, 56819, Control_c, 1, 64, 0
3, 56820, Note_on_c, 1, 45, 0
3, 56820, Note_on_c, 1, 50, 102
3, 56820, Note_on_c, 1, 38, 98
3, 56821, Note_on_c, 1, 33, 0
3, 56835, Control_c, 1, 64, 127
3, 56879, Note_on_c, 1, 50, 0
3, 56879, Control_c, 1, 64, 0
3, 56880, Note_on_c, 1, 38, 0
3, 56880, Note_on_c, 1, 52, 102
3, 56880, Note_on_c, 1, 40, 89
3, 56897, Control_c, 1, 64, 127
3, 56937, Note_on_c, 1, 52, 0
3, 56938, Note_on_c, 1, 40, 0
3, 56939, Control_c, 1, 64, 0
3, 56940, Note_on_c, 1, 54, 89
3, 56940, Note_on_c, 1, 42, 89
3, 56954, Control_c, 1, 64, 127
3, 56989, Note_on_c, 1, 42, 0
3, 56993, Note_on_c, 1, 54, 0
3, 57000, Control_c, 1, 64, 0
3, 57000, Note_on_c, 1, 54, 93
3, 57000, Note_on_c, 1, 42, 76
3, 57014, Control_c, 1, 64, 127
3, 57055, Note_on_c, 1, 42, 0
3, 57056, Note_on_c, 1, 54, 0
3, 57060, Note_on_c, 1, 43, 93
3, 57060, Note_on_c, 1, 55, 102
3, 57066, Control_c, 1, 64, 0
3, 57080, Control_c, 1, 64, 127
3, 57106, Note_on_c, 1, 43, 0
3, 57107, Note_on_c, 1, 55, 0
3, 57120, Note_on_c, 1, 43, 89
3, 57120, Note_on_c, 1, 55, 98
3, 57124, Control_c, 1, 64, 0
3, 57138, Control_c, 1, 64, 127
3, 57337, Note_on_c, 1, 43, 0
3, 57344, Note_on_c, 1, 55, 0
3, 57360, Note_on_c, 1, 59, 93
3, 57360, Note_on_c, 1, 43, 93
3, 57363, Control_c, 1, 64, 0
3, 57375, Note_on_c, 1, 42, 85
3, 57375, Note_on_c, 1, 57, 89
3, 57376, Note_on_c, 1, 59, 0
3, 57377, Note_on_c, 1, 43, 0
3, 57387, Note_on_c, 1, 57, 0
3, 57390, Note_on_c, 1, 59, 89
3, 57390, Note_on_c, 1, 43, 72
3, 57394, Note_on_c, 1, 42, 0
3, 57404, Note_on_c, 1, 59, 0
3, 57405, Note_on_c, 1, 43, 0
3, 57405, Note_on_c, 1, 42, 89
3, 57405, Note_on_c, 1, 57, 89
3, 57416, Note_on_c, 1, 57, 0
3, 57419, Note_on_c, 1, 42, 0
3, 57420, Note_on_c, 1, 43, 85
3, 57420, Note_on_c, 1, 59, 102
3, 57434, Control_c, 1, 64, 127
3, 57478, Note_on_c, 1, 59, 0
3, 57479, Note_on_c, 1, 43, 0
3, 57480, Note_on_c, 1, 57, 93
3, 57480, Note_on_c, 1, 45, 80
3, 57482, Control_c, 1, 64, 0
3, 57500, Control_c, 1, 64, 127
3, 57510, Note_on_c, 1, 62, 80
3, 57514, Note_on_c, 1, 57, 0
3, 57538, Note_on_c, 1, 62, 0
3, 57540, Note_on_c, 1, 57, 85
3, 57570, Note_on_c, 1, 57, 0
3, 57570, Note_on_c, 1, 54, 72
3, 57600, Note_on_c, 1, 55, 89
3, 57600, Note_on_c, 1, 33, 80
3, 57601, Note_on_c, 1, 54, 0
3, 57605, Note_on_c, 1, 45, 0
3, 57610, Control_c, 1, 64, 0
3, 57624, Control_c, 1, 64, 127
3, 57630, Note_on_c, 1, 55, 0
3, 57630, Note_on_c, 1, 57, 85
3, 57660, Note_on_c, 1, 57, 0
3, 57660, Note_on_c, 1, 61, 80
3, 57690, Note_on_c, 1, 57, 89
3, 57691, Note_on_c, 1, 61, 0
3, 57698, Note_on_c, 1, 57, 0
3, 57698, Note_on_c, 1, 33, 0
3, 57720, Note_on_c, 1, 61, 76
3, 57720, Note_on_c, 1, 57, 89
3, 57720, Note_on_c, 1, 38, 85
3, 57720, Note_on_c, 1, 55, 93
3, 57725, Control_c, 1, 64, 0
3, 57738, Control_c, 1, 64, 127
3, 57796, Note_on_c, 1, 55, 0
3, 57797, Note_on_c, 1, 61, 0
3, 57797, Note_on_c, 1, 57, 0
3, 57840, Note_on_c, 1, 54, 55
3, 57840, Note_on_c, 1, 57, 76
3, 57840, Note_on_c, 1, 62, 62
3, 57844, Control_c, 1, 64, 0
3, 57853, Note_on_c, 1, 62, 0
3, 57853, Control_c, 1, 64, 127
3, 57855, Note_on_c, 1, 57, 0
3, 57858, Note_on_c, 1, 54, 0
3, 57863, Note_on_c, 1, 38, 0
3, 57899, Control_c, 1, 64, 0
3, 57900, Note_on_c, 1, 33, 53
3, 57900, Note_on_c, 1, 49, 38
3, 57900, Note_on_c, 1, 52, 62
3, 57900, Note_on_c, 1, 57, 56
3, 57900, Note_on_c, 1, 55, 59
3, 57912, Control_c, 1, 64, 127
3, 57929, Note_on_c, 1, 55, 0
3, 57929, Note_on_c, 1, 52, 0
3, 57929, Note_on_c, 1, 49, 0
3, 57931, Note_on_c, 1, 57, 0
3, 57939, Note_on_c, 1, 33, 0
3, 57960, Note_on_c, 1, 57, 36
3, 57960, Note_on_c, 1, 33, 51
3, 57960, Note_on_c, 1, 49, 46
3, 57960, Note_on_c, 1, 52, 60
3, 57960, Note_on_c, 1, 55, 56
3, 57964, Control_c, 1, 64, 0
3, 57974, Control_c, 1, 64, 127
3, 57984, Note_on_c, 1, 52, 0
3, 57985, Note_on_c, 1, 49, 0
3, 57985, Note_on_c, 1, 55, 0
3, 57985, Note_on_c, 1, 57, 0
3, 57991, Note_on_c, 1, 33, 0
3, 58020, Note_on_c, 1, 33, 48
3, 58020, Note_on_c, 1, 49, 40
3, 58020, Note_on_c, 1, 55, 60
3, 58020, Note_on_c, 1, 52, 72
3, 58020, Note_on_c, 1, 57, 57
3, 58025, Control_c, 1, 64, 0
3, 58035, Control_c, 1, 64, 127
3, 58044, Note_on_c, 1, 52, 0
3, 58045, Note_on_c, 1, 49, 0
3, 58047, Note_on_c, 1, 57, 0
3, 58047, Note_on_c, 1, 55, 0
3, 58053, Note_on_c, 1, 33, 0
3, 58080, Note_on_c, 1, 52, 76
3, 58080, Note_on_c, 1, 57, 62
3, 58080, Note_on_c, 1, 38, 76
3, 58080, Note_on_c, 1, 49, 59
3, 58080, Note_on_c, 1, 55, 72
3, 58096, Control_c, 1, 64, 0
3, 58111, Control_c, 1, 64, 127
3, 58306, Note_on_c, 1, 49, 0
3, 58310, Note_on_c, 1, 55, 0
3, 58311, Note_on_c, 1, 52, 0
3, 58320, Note_on_c, 1, 54, 57
3, 58320, Note_on_c, 1, 50, 55
3, 58328, Control_c, 1, 64, 0
3, 58341, Control_c, 1, 64, 127
3, 58374, Note_on_c, 1, 57, 0
3, 58375, Note_on_c, 1, 50, 0
3, 58376, Note_on_c, 1, 54, 0
3, 58377, Note_on_c, 1, 38, 0
3, 58382, Control_c, 1, 64, 0
3, 59999, Note_on_c, 1, 42, 64
3, 59999, Note_on_c, 1, 57, 68
3, 60007, Control_c, 1, 64, 127
3, 60029, Note_on_c, 1, 42, 0
3, 60029, Note_on_c, 1, 38, 60
3, 60057, Note_on_c, 1, 38, 0
3, 60059, Note_on_c, 1, 42, 60
3, 60087, Note_on_c, 1, 42, 0
3, 60089, Note_on_c, 1, 38, 60
3, 60116, Note_on_c, 1, 38, 0
3, 60117, Note_on_c, 1, 57, 0
3, 60119, Note_on_c, 1, 42, 64
3, 60149, Note_on_c, 1, 42, 0
3, 60149, Note_on_c, 1, 38, 68
3, 60164, Note_on_c, 1, 59, 80
3, 60173, Note_on_c, 1, 59, 0
3, 60173, Note_on_c, 1, 38, 0
3, 60178, Control_c, 1, 64, 0
3, 60179, Note_on_c, 1, 59, 89
3, 60179, Note_on_c, 1, 42, 60
3, 60190, Control_c, 1, 64, 127
3, 60193, Note_on_c, 1, 59, 0
3, 60194, Note_on_c, 1, 57, 76
3, 60204, Note_on_c, 1, 57, 0
3, 60207, Note_on_c, 1, 42, 0
3, 60208, Control_c, 1, 64, 0
3, 60209, Note_on_c, 1, 55, 72
3, 60209, Note_on_c, 1, 38, 76
3, 60218, Control_c, 1, 64, 127
3, 60222, Note_on_c, 1, 55, 0
3, 60224, Note_on_c, 1, 57, 72
3, 60234, Note_on_c, 1, 57, 0
3, 60235, Note_on_c, 1, 38, 0
3, 60239, Note_on_c, 1, 59, 72
3, 60239, Control_c, 1, 64, 0
3, 60239, Note_on_c, 1, 43, 62
3, 60253, Control_c, 1, 64, 127
3, 60265, Note_on_c, 1, 43, 0
3, 60269, Note_on_c, 1, 38, 68
3, 60285, Note_on_c, 1, 59, 0
3, 60297, Note_on_c, 1, 38, 0
3, 60299, Note_on_c, 1, 55, 76
3, 60299, Note_on_c, 1, 47, 59
3, 60299, Control_c, 1, 64, 0
3, 60311, Control_c, 1, 64, 127
3, 60329, Note_on_c, 1, 38, 55
3, 60332, Note_on_c, 1, 47, 0
3, 60332, Note_on_c, 1, 55, 0
3, 60359, Note_on_c, 1, 38, 0
3, 60359, Note_on_c, 1, 62, 72
3, 60359, Note_on_c, 1, 42, 57
3, 60360, Control_c, 1, 64, 0
3, 60373, Control_c, 1, 64, 127
3, 60389, Note_on_c, 1, 38, 68
3, 60390, Note_on_c, 1, 62, 0
3, 60391, Note_on_c, 1, 42, 0
3, 60417, Note_on_c, 1, 38, 0
3, 60419, Note_on_c, 1, 57, 72
3, 60419, Note_on_c, 1, 42, 55
3, 60421, Control_c, 1, 64, 0
3, 60433, Control_c, 1, 64, 127
3, 60449, Note_on_c, 1, 42, 0
3, 60449, Note_on_c, 1, 38, 57
3, 60477, Note_on_c, 1, 38, 0
3, 60477, Note_on_c, 1, 57, 0
3, 60479, Note_on_c, 1, 42, 56
3, 60507, Note_on_c, 1, 42, 0
3, 60509, Note_on_c, 1, 38, 64
3, 60535, Note_on_c, 1, 38, 0
3, 60535, Control_c, 1, 64, 0
3, 60539, Note_on_c, 1, 42, 59
3, 60539, Note_on_c, 1, 59, 68
3, 60547, Control_c, 1, 64, 127
3, 60553, Note_on_c, 1, 59, 0
3, 60554, Note_on_c, 1, 57, 60
3, 60564, Note_on_c, 1, 57, 0
3, 60569, Note_on_c, 1, 55, 64
3, 60569, Note_on_c, 1, 38, 68
3, 60569, Control_c, 1, 64, 0
3, 60571, Note_on_c, 1, 42, 0
3, 60580, Control_c, 1, 64, 127
3, 60582, Note_on_c, 1, 55, 0
3, 60584, Note_on_c, 1, 57, 59
3, 60595, Note_on_c, 1, 57, 0
3, 60597, Note_on_c, 1, 38, 0
3, 60599, Note_on_c, 1, 59, 72
3, 60599, Note_on_c, 1, 43, 62
3, 60601, Control_c, 1, 64, 0
3, 60616, Control_c, 1, 64, 127
3, 60626, Note_on_c, 1, 43, 0
3, 60629, Note_on_c, 1, 38, 72
3, 60632, Note_on_c, 1, 59, 0
3, 60657, Note_on_c, 1, 38, 0
3, 60659, Note_on_c, 1, 55, 76
3, 60659, Note_on_c, 1, 47, 64
3, 60659, Control_c, 1, 64, 0
3, 60671, Control_c, 1, 64, 127
3, 60687, Note_on_c, 1, 47, 0
3, 60689, Note_on_c, 1, 38, 62
3, 60694, Note_on_c, 1, 55, 0
3, 60711, Note_on_c, 1, 38, 0
3, 60716, Control_c, 1, 64, 0
3, 60719, Note_on_c, 1, 48, 56
3, 60719, Note_on_c, 1, 55, 68
3, 60728, Control_c, 1, 64, 127
3, 60734, Note_on_c, 1, 55, 0
3, 60734, Note_on_c, 1, 54, 60
3, 60746, Note_on_c, 1, 54, 0
3, 60749, Note_on_c, 1, 55, 62
3, 60749, Note_on_c, 1, 45, 62
3, 60750, Control_c, 1, 64, 0
3, 60752, Note_on_c, 1, 48, 0
3, 60761, Control_c, 1, 64, 127
3, 60764, Note_on_c, 1, 54, 60
3, 60765, Note_on_c, 1, 55, 0
3, 60774, Note_on_c, 1, 54, 0
3, 60777, Note_on_c, 1, 45, 0
3, 60777, Control_c, 1, 64, 0
3, 60779, Note_on_c, 1, 55, 60
3, 60779, Note_on_c, 1, 48, 64
3, 60788, Control_c, 1, 64, 127
3, 60791, Note_on_c, 1, 55, 0
3, 60794, Note_on_c, 1, 54, 72
3, 60805, Note_on_c, 1, 54, 0
3, 60808, Note_on_c, 1, 48, 0
3, 60808, Control_c, 1, 64, 0
3, 60809, Note_on_c, 1, 55, 59
3, 60809, Note_on_c, 1, 38, 72
3, 60819, Control_c, 1, 64, 127
3, 60824, Note_on_c, 1, 55, 0
3, 60824, Note_on_c, 1, 54, 62
3, 60834, Note_on_c, 1, 38, 0
3, 60836, Note_on_c, 1, 54, 0
3, 60836, Control_c, 1, 64, 0
3, 60839, Note_on_c, 1, 48, 62
3, 60839, Note_on_c, 1, 55, 62
3, 60848, Control_c, 1, 64, 127
3, 60853, Note_on_c, 1, 55, 0
3, 60854, Note_on_c, 1, 54, 60
3, 60865, Note_on_c, 1, 54, 0
3, 60867, Control_c, 1, 64, 0
3, 60869, Note_on_c, 1, 48, 0
3, 60869, Note_on_c, 1, 55, 60
3, 60869, Note_on_c, 1, 45, 64
3, 60878, Control_c, 1, 64, 127
3, 60884, Note_on_c, 1, 54, 62
3, 60886, Note_on_c, 1, 55, 0
3, 60895, Note_on_c, 1, 54, 0
3, 60895, Control_c, 1, 64, 0
3, 60897, Note_on_c, 1, 45, 0
3, 60899, Note_on_c, 1, 55, 55
3, 60899, Note_on_c, 1, 48, 62
3, 60905, Control_c, 1, 64, 127
3, 60914, Note_on_c, 1, 55, 0
3, 60914, Note_on_c, 1, 54, 55
3, 60923, Control_c, 1, 64, 0
3, 60925, Note_on_c, 1, 48, 0
3, 60928, Note_on_c, 1, 54, 0
3, 60929, Note_on_c, 1, 38, 62
3, 60929, Note_on_c, 1, 52, 62
3, 60933, Control_c, 1, 64, 127
3, 60943, Note_on_c, 1, 52, 0
3, 60944, Note_on_c, 1, 54, 62
3, 60946, Note_on_c, 1, 38, 0
3, 60955, Note_on_c, 1, 54, 0
3, 60955, Control_c, 1, 64, 0
3, 60959, Note_on_c, 1, 55, 76
3, 60959, Note_on_c, 1, 47, 72
3, 60968, Control_c, 1, 64, 127
3, 60989, Note_on_c, 1, 47, 0
3, 60989, Note_on_c, 1, 50, 72
3, 60990, Note_on_c, 1, 55, 0
3, 61016, Control_c, 1, 64, 0
3, 61019, Note_on_c, 1, 47, 64
3, 61019, Note_on_c, 1, 59, 68
3, 61021, Note_on_c, 1, 50, 0
3, 61028, Control_c, 1, 64, 127
3, 61049, Note_on_c, 1, 59, 0
3, 61049, Note_on_c, 1, 43, 68
3, 61051, Note_on_c, 1, 47, 0
3, 61056, Note_on_c, 1, 43, 0
3, 61079, Note_on_c, 1, 59, 76
3, 61079, Note_on_c, 1, 38, 68
3, 61088, Control_c, 1, 64, 127
3, 61094, Note_on_c, 1, 59, 0
3, 61094, Note_on_c, 1, 57, 62
3, 61099, Control_c, 1, 64, 0
3, 61133, Note_on_c, 1, 57, 0
3, 61139, Note_on_c, 1, 55, 76
3, 61144, Control_c, 1, 64, 127
3, 61147, Control_c, 1, 64, 0
3, 61154, Note_on_c, 1, 54, 62
3, 61156, Note_on_c, 1, 55, 0
3, 61192, Note_on_c, 1, 54, 0
3, 61198, Note_on_c, 1, 38, 0
3, 61199, Note_on_c, 1, 52, 76
3, 61201, Control_c, 1, 64, 127
3, 61202, Control_c, 1, 64, 0
3, 61214, Note_on_c, 1, 50, 62
3, 61215, Note_on_c, 1, 52, 0
3, 61229, Note_on_c, 1, 40, 76
3, 61257, Note_on_c, 1, 40, 0
3, 61259, Note_on_c, 1, 38, 64
3, 61273, Note_on_c, 1, 50, 0
3, 61288, Note_on_c, 1, 38, 0
3, 61289, Note_on_c, 1, 37, 68
3, 61318, Note_on_c, 1, 37, 0
3, 61319, Note_on_c, 1, 38, 72
3, 61349, Note_on_c, 1, 36, 72
3, 61350, Note_on_c, 1, 38, 0
3, 61379, Note_on_c, 1, 35, 72
3, 61381, Note_on_c, 1, 36, 0
3, 61392, Control_c, 1, 64, 127
3, 61407, Note_on_c, 1, 35, 0
3, 61409, Note_on_c, 1, 33, 62
3, 61438, Note_on_c, 1, 33, 0
3, 61439, Note_on_c, 1, 31, 68
3, 61440, Control_c, 1, 64, 0
3, 61467, Control_c, 1, 64, 127
3, 61499, Note_on_c, 1, 50, 62
3, 61518, Note_on_c, 1, 50, 0
3, 61559, Note_on_c, 1, 50, 57
3, 61576, Note_on_c, 1, 50, 0
3, 61619, Note_on_c, 1, 50, 64
3, 61650, Note_on_c, 1, 50, 0
3, 61666, Note_on_c, 1, 31, 0
3, 61678, Control_c, 1, 64, 0
3, 61679, Note_on_c, 1, 50, 80
3, 61693, Control_c, 1, 64, 127
3, 61718, Note_on_c, 1, 50, 0
3, 61739, Note_on_c, 1, 50, 68
3, 61743, Control_c, 1, 64, 0
3, 61756, Control_c, 1, 64, 127
3, 61777, Note_on_c, 1, 50, 0
3, 61799, Note_on_c, 1, 33, 62
3, 61810, Control_c, 1, 64, 0
3, 61830, Control_c, 1, 64, 127
3, 61859, Note_on_c, 1, 50, 60
3, 61867, Control_c, 1, 64, 0
3, 61877, Control_c, 1, 64, 127
3, 61887, Note_on_c, 1, 50, 0
3, 61919, Note_on_c, 1, 50, 72
3, 61920, Control_c, 1, 64, 0
3, 61924, Note_on_c, 1, 33, 0
3, 61932, Control_c, 1, 64, 127
3, 61957, Note_on_c, 1, 50, 0
3, 61978, Control_c, 1, 64, 0
3, 61979, Note_on_c, 1, 50, 57
3, 61990, Control_c, 1, 64, 127
3, 62016, Note_on_c, 1, 50, 0
3, 62039, Note_on_c, 1, 50, 57
3, 62043, Control_c, 1, 64, 0
3, 62054, Control_c, 1, 64, 127
3, 62071, Note_on_c, 1, 50, 0
3, 62099, Note_on_c, 1, 50, 60
3, 62106, Control_c, 1, 64, 0
3, 62116, Control_c, 1, 64, 127
3, 62128, Note_on_c, 1, 50, 0
3, 62159, Note_on_c, 1, 38, 62
3, 62169, Control_c, 1, 64, 0
3, 62186, Control_c, 1, 64, 127
3, 62219, Note_on_c, 1, 42, 53
3, 62222, Control_c, 1, 64, 0
3, 62233, Control_c, 1, 64, 127
3, 62250, Note_on_c, 1, 42, 0
3, 62278, Note_on_c, 1, 38, 0
3, 62279, Note_on_c, 1, 42, 52
3, 62283, Control_c, 1, 64, 0
3, 62295, Control_c, 1, 64, 127
3, 62321, Note_on_c, 1, 42, 0
3, 62339, Note_on_c, 1, 42, 51
3, 62344, Control_c, 1, 64, 0
3, 62354, Control_c, 1, 64, 127
3, 62377, Note_on_c, 1, 42, 0
3, 62399, Note_on_c, 1, 42, 50
3, 62404, Control_c, 1, 64, 0
3, 62415, Control_c, 1, 64, 127
3, 62436, Note_on_c, 1, 42, 0
3, 62459, Note_on_c, 1, 42, 59
3, 62464, Control_c, 1, 64, 0
3, 62476, Control_c, 1, 64, 127
3, 62500, Note_on_c, 1, 42, 0
3, 62519, Note_on_c, 1, 31, 57
3, 62528, Control_c, 1, 64, 0
3, 62545, Control_c, 1, 64, 127
3, 62579, Note_on_c, 1, 43, 60
3, 62583, Control_c, 1, 64, 0
3, 62594, Control_c, 1, 64, 127
3, 62611, Note_on_c, 1, 43, 0
3, 62637, Control_c, 1, 64, 0
3, 62639, Note_on_c, 1, 43, 68
3, 62646, Note_on_c, 1, 31, 0
3, 62649, Control_c, 1, 64, 127
3, 62675, Note_on_c, 1, 43, 0
3, 62699, Note_on_c, 1, 43, 64
3, 62701, Control_c, 1, 64, 0
3, 62713, Control_c, 1, 64, 127
3, 62734, Note_on_c, 1, 43, 0
3, 62759, Note_on_c, 1, 43, 60
3, 62763, Control_c, 1, 64, 0
3, 62775, Control_c, 1, 64, 127
3, 62795, Note_on_c, 1, 43, 0
3, 62819, Note_on_c, 1, 43, 56
3, 62823, Control_c, 1, 64, 0
3, 62832, Control_c, 1, 64, 127
3, 62861, Note_on_c, 1, 43, 0
3, 62879, Note_on_c, 1, 36, 60
3, 62883, Control_c, 1, 64, 0
3, 62898, Control_c, 1, 64, 127
3, 62939, Note_on_c, 1, 43, 68
3, 62943, Control_c, 1, 64, 0
3, 62954, Control_c, 1, 64, 127
3, 62966, Note_on_c, 1, 43, 0
3, 62999, Note_on_c, 1, 43, 62
3, 63004, Control_c, 1, 64, 0
3, 63005, Note_on_c, 1, 36, 0
3, 63016, Control_c, 1, 64, 127
3, 63033, Note_on_c, 1, 43, 0
3, 63059, Control_c, 1, 64, 0
3, 63059, Note_on_c, 1, 43, 60
3, 63069, Control_c, 1, 64, 127
3, 63094, Note_on_c, 1, 43, 0
3, 63119, Note_on_c, 1, 43, 62
3, 63121, Control_c, 1, 64, 0
3, 63132, Control_c, 1, 64, 127
3, 63151, Note_on_c, 1, 43, 0
3, 63179, Note_on_c, 1, 43, 64
3, 63183, Control_c, 1, 64, 0
3, 63195, Control_c, 1, 64, 127
3, 63210, Note_on_c, 1, 43, 0
3, 63239, Note_on_c, 1, 35, 72
3, 63252, Control_c, 1, 64, 0
3, 63270, Control_c, 1, 64, 127
3, 63299, Note_on_c, 1, 43, 72
3, 63304, Control_c, 1, 64, 0
3, 63316, Control_c, 1, 64, 127
3, 63329, Note_on_c, 1, 43, 0
3, 63342, Note_on_c, 1, 35, 0
3, 63359, Note_on_c, 1, 43, 62
3, 63365, Control_c, 1, 64, 0
3, 63377, Control_c, 1, 64, 127
3, 63393, Note_on_c, 1, 43, 0
3, 63419, Note_on_c, 1, 43, 59
3, 63424, Control_c, 1, 64, 0
3, 63434, Control_c, 1, 64, 127
3, 63453, Note_on_c, 1, 43, 0
3, 63479, Note_on_c, 1, 43, 57
3, 63484, Control_c, 1, 64, 0
3, 63494, Control_c, 1, 64, 127
3, 63511, Note_on_c, 1, 43, 0
3, 63539, Note_on_c, 1, 43, 62
3, 63542, Control_c, 1, 64, 0
3, 63553, Control_c, 1, 64, 127
3, 63577, Note_on_c, 1, 43, 0
3, 63599, Note_on_c, 1, 42, 64
3, 63605, Control_c, 1, 64, 0
3, 63620, Control_c, 1, 64, 127
3, 63659, Note_on_c, 1, 50, 72
3, 63661, Control_c, 1, 64, 0
3, 63672, Control_c, 1, 64, 127
3, 63689, Note_on_c, 1, 50, 0
3, 63719, Note_on_c, 1, 50, 68
3, 63721, Note_on_c, 1, 42, 0
3, 63722, Control_c, 1, 64, 0
3, 63734, Control_c, 1, 64, 127
3, 63754, Note_on_c, 1, 50, 0
3, 63779, Note_on_c, 1, 50, 64
3, 63781, Control_c, 1, 64, 0
3, 63792, Control_c, 1, 64, 127
3, 63807, Note_on_c, 1, 50, 0
3, 63839, Control_c, 1, 64, 0
3, 63839, Note_on_c, 1, 43, 56
3, 63839, Note_on_c, 1, 50, 68
3, 63854, Control_c, 1, 64, 127
3, 63869, Note_on_c, 1, 50, 0
3, 63896, Control_c, 1, 64, 0
3, 63899, Note_on_c, 1, 50, 62
3, 63906, Control_c, 1, 64, 127
3, 63923, Note_on_c, 1, 43, 0
3, 63924, Note_on_c, 1, 50, 0
3, 63958, Control_c, 1, 64, 0
3, 63959, Note_on_c, 1, 38, 72
3, 63971, Control_c, 1, 64, 127
3, 64082, Note_on_c, 1, 38, 0
3, 64085, Control_c, 1, 64, 0
3, 64319, Note_on_c, 1, 55, 89
3, 64321, Control_c, 1, 64, 127
3, 64344, Note_on_c, 1, 55, 0
3, 64349, Note_on_c, 1, 62, 76
3, 64378, Note_on_c, 1, 62, 0
3, 64379, Note_on_c, 1, 59, 80
3, 64407, Note_on_c, 1, 59, 0
3, 64409, Note_on_c, 1, 62, 76
3, 64438, Control_c, 1, 64, 0
3, 64439, Note_on_c, 1, 62, 0
3, 64439, Note_on_c, 1, 55, 76
3, 64439, Note_on_c, 1, 31, 85
3, 64452, Control_c, 1, 64, 127
3, 64469, Note_on_c, 1, 55, 0
3, 64469, Note_on_c, 1, 62, 76
3, 64495, Note_on_c, 1, 62, 0
3, 64499, Note_on_c, 1, 59, 72
3, 64528, Note_on_c, 1, 59, 0
3, 64529, Note_on_c, 1, 62, 68
3, 64555, Note_on_c, 1, 62, 0
3, 64556, Note_on_c, 1, 31, 0
3, 64559, Note_on_c, 1, 55, 76
3, 64559, Note_on_c, 1, 43, 102
3, 64560, Control_c, 1, 64, 0
3, 64577, Control_c, 1, 64, 127
3, 64588, Note_on_c, 1, 55, 0
3, 64589, Note_on_c, 1, 62, 76
3, 64609, Note_on_c, 1, 62, 0
3, 64619, Note_on_c, 1, 59, 76
3, 64631, Note_on_c, 1, 43, 0
3, 64649, Note_on_c, 1, 59, 0
3, 64649, Note_on_c, 1, 62, 68
3, 64677, Note_on_c, 1, 62, 0
3, 64678, Control_c, 1, 64, 0
3, 64679, Note_on_c, 1, 57, 80
3, 64679, Note_on_c, 1, 50, 89
3, 64694, Control_c, 1, 64, 127
3, 64708, Note_on_c, 1, 57, 0
3, 64709, Note_on_c, 1, 62, 72
3, 64734, Note_on_c, 1, 62, 0
3, 64739, Note_on_c, 1, 60, 76
3, 64766, Note_on_c, 1, 60, 0
3, 64769, Note_on_c, 1, 62, 72
3, 64795, Control_c, 1, 64, 0
3, 64796, Note_on_c, 1, 50, 0
3, 64797, Note_on_c, 1, 62, 0
3, 64799, Note_on_c, 1, 38, 76
3, 64799, Note_on_c, 1, 57, 76
3, 64808, Control_c, 1, 64, 127
3, 64829, Note_on_c, 1, 62, 80
3, 64830, Note_on_c, 1, 57, 0
3, 64857, Note_on_c, 1, 62, 0
3, 64859, Note_on_c, 1, 60, 68
3, 64888, Note_on_c, 1, 60, 0
3, 64889, Note_on_c, 1, 62, 76
3, 64891, Note_on_c, 1, 38, 0
3, 64918, Note_on_c, 1, 62, 0
3, 64919, Note_on_c, 1, 60, 76
3, 64919, Control_c, 1, 64, 0
3, 64933, Note_on_c, 1, 60, 0
3, 64934, Note_on_c, 1, 62, 57
3, 64949, Note_on_c, 1, 59, 76
3, 64953, Note_on_c, 1, 62, 0
3, 64963, Note_on_c, 1, 59, 0
3, 64964, Note_on_c, 1, 60, 72
3, 64979, Note_on_c, 1, 57, 80
3, 64984, Note_on_c, 1, 60, 0
3, 64993, Note_on_c, 1, 57, 0
3, 64994, Note_on_c, 1, 59, 76
3, 65007, Note_on_c, 1, 59, 0
3, 65009, Note_on_c, 1, 55, 60
3, 65024, Note_on_c, 1, 55, 0
3, 65024, Note_on_c, 1, 57, 85
3, 65039, Note_on_c, 1, 57, 0
3, 65039, Note_on_c, 1, 54, 76
3, 65069, Note_on_c, 1, 54, 0
3, 65069, Note_on_c, 1, 62, 76
3, 65075, Control_c, 1, 64, 127
3, 65096, Note_on_c, 1, 62, 0
3, 65099, Note_on_c, 1, 57, 85
3, 65125, Note_on_c, 1, 57, 0
3, 65129, Note_on_c, 1, 62, 68
3, 65156, Note_on_c, 1, 62, 0
3, 65159, Note_on_c, 1, 54, 60
3, 65159, Note_on_c, 1, 38, 89
3, 65159, Control_c, 1, 64, 0
3, 65173, Control_c, 1, 64, 127
3, 65189, Note_on_c, 1, 62, 64
3, 65194, Note_on_c, 1, 54, 0
3, 65209, Note_on_c, 1, 62, 0
3, 65219, Note_on_c, 1, 57, 76
3, 65238, Note_on_c, 1, 57, 0
3, 65249, Note_on_c, 1, 62, 72
3, 65260, Note_on_c, 1, 38, 0
3, 65267, Note_on_c, 1, 62, 0
3, 65279, Note_on_c, 1, 54, 68
3, 65279, Note_on_c, 1, 50, 98
3, 65282, Control_c, 1, 64, 0
3, 65299, Control_c, 1, 64, 127
3, 65309, Note_on_c, 1, 62, 64
3, 65311, Note_on_c, 1, 54, 0
3, 65329, Note_on_c, 1, 62, 0
3, 65339, Note_on_c, 1, 57, 76
3, 65365, Note_on_c, 1, 57, 0
3, 65369, Note_on_c, 1, 62, 85
3, 65392, Note_on_c, 1, 50, 0
3, 65393, Note_on_c, 1, 62, 0
3, 65399, Note_on_c, 1, 54, 62
3, 65399, Note_on_c, 1, 43, 62
3, 65402, Control_c, 1, 64, 0
3, 65418, Control_c, 1, 64, 127
3, 65429, Note_on_c, 1, 54, 0
3, 65429, Note_on_c, 1, 62, 76
3, 65452, Note_on_c, 1, 62, 0
3, 65459, Note_on_c, 1, 60, 72
3, 65483, Note_on_c, 1, 60, 0
3, 65489, Note_on_c, 1, 62, 68
3, 65515, Note_on_c, 1, 43, 0
3, 65516, Note_on_c, 1, 62, 0
3, 65517, Control_c, 1, 64, 0
3, 65519, Note_on_c, 1, 31, 72
3, 65519, Note_on_c, 1, 55, 72
3, 65531, Control_c, 1, 64, 127
3, 65548, Note_on_c, 1, 55, 0
3, 65549, Note_on_c, 1, 62, 76
3, 65574, Note_on_c, 1, 62, 0
3, 65579, Note_on_c, 1, 59, 62
3, 65584, Note_on_c, 1, 31, 0
3, 65604, Note_on_c, 1, 59, 0
3, 65609, Note_on_c, 1, 62, 76
3, 65619, Note_on_c, 1, 62, 0
3, 65639, Note_on_c, 1, 55, 89
3, 65643, Control_c, 1, 64, 0
3, 65653, Note_on_c, 1, 55, 0
3, 65654, Note_on_c, 1, 57, 76
3, 65669, Note_on_c, 1, 54, 72
3, 65673, Note_on_c, 1, 57, 0
3, 65683, Note_on_c, 1, 54, 0
3, 65684, Note_on_c, 1, 55, 80
3, 65696, Note_on_c, 1, 55, 0
3, 65699, Note_on_c, 1, 52, 64
3, 65713, Note_on_c, 1, 52, 0
3, 65714, Note_on_c, 1, 54, 64
3, 65729, Note_on_c, 1, 50, 85
3, 65730, Note_on_c, 1, 54, 0
3, 65742, Note_on_c, 1, 50, 0
3, 65744, Note_on_c, 1, 52, 72
3, 65757, Note_on_c, 1, 52, 0
3, 65759, Note_on_c, 1, 48, 72
3, 65779, Control_c, 1, 64, 127
3, 65789, Note_on_c, 1, 55, 60
3, 65790, Note_on_c, 1, 48, 0
3, 65819, Note_on_c, 1, 52, 64
3, 65820, Note_on_c, 1, 55, 0
3, 65848, Note_on_c, 1, 52, 0
3, 65849, Note_on_c, 1, 55, 80
3, 65878, Note_on_c, 1, 55, 0
3, 65879, Note_on_c, 1, 48, 72
3, 65879, Note_on_c, 1, 36, 64
3, 65883, Control_c, 1, 64, 0
3, 65902, Control_c, 1, 64, 127
3, 65909, Note_on_c, 1, 55, 68
3, 65913, Note_on_c, 1, 48, 0
3, 65939, Note_on_c, 1, 55, 0
3, 65939, Note_on_c, 1, 52, 68
3, 65962, Note_on_c, 1, 36, 0
3, 65967, Note_on_c, 1, 52, 0
3, 65969, Note_on_c, 1, 55, 62
3, 65996, Note_on_c, 1, 55, 0
3, 65999, Note_on_c, 1, 36, 72
3, 65999, Note_on_c, 1, 48, 72
3, 66001, Control_c, 1, 64, 0
3, 66015, Control_c, 1, 64, 127
3, 66029, Note_on_c, 1, 55, 72
3, 66030, Note_on_c, 1, 48, 0
3, 66057, Note_on_c, 1, 55, 0
3, 66059, Note_on_c, 1, 52, 72
3, 66073, Note_on_c, 1, 36, 0
3, 66083, Note_on_c, 1, 52, 0
3, 66089, Note_on_c, 1, 55, 80
3, 66097, Note_on_c, 1, 55, 0
3, 66119, Note_on_c, 1, 35, 72
3, 66119, Note_on_c, 1, 47, 72
3, 66121, Control_c, 1, 64, 0
3, 66136, Control_c, 1, 64, 127
3, 66148, Note_on_c, 1, 47, 0
3, 66149, Note_on_c, 1, 55, 76
3, 66170, Note_on_c, 1, 55, 0
3, 66179, Note_on_c, 1, 50, 80
3, 66182, Note_on_c, 1, 35, 0
3, 66207, Note_on_c, 1, 50, 0
3, 66209, Note_on_c, 1, 55, 72
3, 66236, Note_on_c, 1, 55, 0
3, 66238, Control_c, 1, 64, 0
3, 66239, Note_on_c, 1, 31, 85
3, 66239, Note_on_c, 1, 47, 85
3, 66251, Control_c, 1, 64, 127
3, 66265, Note_on_c, 1, 47, 0
3, 66269, Note_on_c, 1, 50, 80
3, 66293, Note_on_c, 1, 50, 0
3, 66299, Note_on_c, 1, 55, 76
3, 66318, Note_on_c, 1, 31, 0
3, 66329, Note_on_c, 1, 50, 85
3, 66332, Note_on_c, 1, 55, 0
3, 66335, Note_on_c, 1, 50, 0
3, 66359, Note_on_c, 1, 59, 89
3, 66359, Note_on_c, 1, 43, 76
3, 66362, Control_c, 1, 64, 0
3, 66376, Control_c, 1, 64, 127
3, 66388, Note_on_c, 1, 59, 0
3, 66389, Note_on_c, 1, 55, 72
3, 66411, Note_on_c, 1, 55, 0
3, 66419, Note_on_c, 1, 62, 62
3, 66440, Note_on_c, 1, 62, 0
3, 66448, Note_on_c, 1, 43, 0
3, 66449, Note_on_c, 1, 59, 85
3, 66456, Note_on_c, 1, 59, 0
3, 66479, Note_on_c, 1, 60, 64
3, 66479, Note_on_c, 1, 48, 72
3, 66484, Control_c, 1, 64, 0
3, 66489, Note_on_c, 1, 60, 0
3, 66494, Note_on_c, 1, 62, 68
3, 66505, Note_on_c, 1, 62, 0
3, 66509, Note_on_c, 1, 64, 72
3, 66539, Note_on_c, 1, 62, 89
3, 66543, Control_c, 1, 64, 127
3, 66553, Note_on_c, 1, 64, 0
3, 66569, Note_on_c, 1, 62, 0
3, 66569, Note_on_c, 1, 60, 76
3, 66592, Note_on_c, 1, 60, 0
3, 66598, Note_on_c, 1, 48, 0
3, 66599, Note_on_c, 1, 59, 85
3, 66599, Note_on_c, 1, 50, 64
3, 66600, Control_c, 1, 64, 0
3, 66615, Control_c, 1, 64, 127
3, 66629, Note_on_c, 1, 59, 0
3, 66629, Note_on_c, 1, 62, 64
3, 66659, Note_on_c, 1, 62, 0
3, 66659, Note_on_c, 1, 59, 80
3, 66687, Note_on_c, 1, 59, 0
3, 66689, Note_on_c, 1, 55, 76
3, 66712, Note_on_c, 1, 55, 0
3, 66715, Note_on_c, 1, 50, 0
3, 66719, Note_on_c, 1, 38, 72
3, 66719, Note_on_c, 1, 60, 85
3, 66721, Control_c, 1, 64, 0
3, 66737, Control_c, 1, 64, 127
3, 66748, Note_on_c, 1, 60, 0
3, 66749, Note_on_c, 1, 62, 62
3, 66779, Note_on_c, 1, 60, 76
3, 66783, Note_on_c, 1, 62, 0
3, 66783, Control_c, 1, 64, 0
3, 66792, Control_c, 1, 64, 127
3, 66807, Note_on_c, 1, 60, 0
3, 66809, Note_on_c, 1, 57, 72
3, 66823, Note_on_c, 1, 57, 0
3, 66830, Note_on_c, 1, 38, 0
3, 66839, Note_on_c, 1, 43, 76
3, 66839, Note_on_c, 1, 55, 89
3, 66845, Control_c, 1, 64, 0
3, 66859, Control_c, 1, 64, 127
3, 66869, Note_on_c, 1, 55, 0
3, 66869, Note_on_c, 1, 59, 68
3, 66899, Note_on_c, 1, 55, 72
3, 66900, Note_on_c, 1, 59, 0
3, 66929, Note_on_c, 1, 55, 0
3, 66929, Note_on_c, 1, 50, 76
3, 66948, Note_on_c, 1, 50, 0
3, 66957, Control_c, 1, 64, 0
3, 66959, Note_on_c, 1, 59, 68
3, 66962, Note_on_c, 1, 43, 0
3, 66971, Control_c, 1, 64, 127
3, 66988, Note_on_c, 1, 59, 0
3, 66989, Note_on_c, 1, 62, 76
3, 67015, Note_on_c, 1, 62, 0
3, 67018, Control_c, 1, 64, 0
3, 67019, Note_on_c, 1, 59, 76
3, 67019, Note_on_c, 1, 43, 93
3, 67030, Control_c, 1, 64, 127
3, 67049, Note_on_c, 1, 55, 72
3, 67050, Note_on_c, 1, 59, 0
3, 67060, Note_on_c, 1, 43, 0
3, 67066, Note_on_c, 1, 55, 0
3, 67079, Note_on_c, 1, 62, 89
3, 67079, Note_on_c, 1, 43, 85
3, 67080, Control_c, 1, 64, 0
3, 67092, Control_c, 1, 64, 127
3, 67109, Note_on_c, 1, 62, 0
3, 67109, Note_on_c, 1, 59, 85
3, 67122, Note_on_c, 1, 59, 0
3, 67123, Note_on_c, 1, 43, 0
3, 67139, Note_on_c, 1, 62, 85
3, 67139, Note_on_c, 1, 41, 89
3, 67140, Control_c, 1, 64, 0
3, 67153, Control_c, 1, 64, 127
3, 67167, Note_on_c, 1, 62, 0
3, 67169, Note_on_c, 1, 57, 89
3, 67176, Note_on_c, 1, 57, 0
3, 67182, Note_on_c, 1, 41, 0
3, 67199, Note_on_c, 1, 56, 85
3, 67199, Note_on_c, 1, 40, 89
3, 67203, Control_c, 1, 64, 0
3, 67216, Control_c, 1, 64, 127
3, 67229, Note_on_c, 1, 56, 0
3, 67229, Note_on_c, 1, 59, 80
3, 67237, Control_c, 1, 64, 0
3, 67251, Control_c, 1, 64, 127
3, 67259, Note_on_c, 1, 59, 0
3, 67259, Note_on_c, 1, 56, 64
3, 67287, Note_on_c, 1, 56, 0
3, 67289, Note_on_c, 1, 40, 0
3, 67289, Note_on_c, 1, 52, 76
3, 67315, Note_on_c, 1, 52, 0
3, 67319, Note_on_c, 1, 56, 72
3, 67319, Note_on_c, 1, 44, 102
3, 67321, Control_c, 1, 64, 0
3, 67333, Control_c, 1, 64, 127
3, 67348, Note_on_c, 1, 56, 0
3, 67349, Note_on_c, 1, 59, 72
3, 67378, Note_on_c, 1, 59, 0
3, 67379, Note_on_c, 1, 56, 76
3, 67379, Control_c, 1, 64, 0
3, 67379, Note_on_c, 1, 47, 89
3, 67380, Note_on_c, 1, 44, 0
3, 67390, Control_c, 1, 64, 127
3, 67409, Note_on_c, 1, 56, 0
3, 67409, Note_on_c, 1, 52, 68
3, 67432, Note_on_c, 1, 52, 0
3, 67437, Note_on_c, 1, 47, 0
3, 67439, Note_on_c, 1, 56, 85
3, 67439, Note_on_c, 1, 50, 93
3, 67447, Control_c, 1, 64, 0
3, 67462, Control_c, 1, 64, 127
3, 67469, Note_on_c, 1, 56, 0
3, 67469, Note_on_c, 1, 59, 80
3, 67499, Note_on_c, 1, 56, 76
3, 67503, Note_on_c, 1, 59, 0
3, 67517, Control_c, 1, 64, 0
3, 67527, Control_c, 1, 64, 127
3, 67529, Note_on_c, 1, 56, 0
3, 67529, Note_on_c, 1, 52, 72
3, 67554, Note_on_c, 1, 52, 0
3, 67558, Note_on_c, 1, 50, 0
3, 67559, Note_on_c, 1, 48, 72
3, 67559, Note_on_c, 1, 57, 89
3, 67566, Control_c, 1, 64, 0
3, 67576, Control_c, 1, 64, 127
3, 67584, Note_on_c, 1, 57, 0
3, 67589, Note_on_c, 1, 60, 72
3, 67603, Note_on_c, 1, 60, 0
3, 67619, Note_on_c, 1, 60, 72
3, 67619, Note_on_c, 1, 64, 72
3, 67624, Note_on_c, 1, 64, 0
3, 67626, Note_on_c, 1, 60, 0
3, 67626, Control_c, 1, 64, 0
3, 67649, Note_on_c, 1, 60, 85
3, 67649, Note_on_c, 1, 64, 85
3, 67655, Note_on_c, 1, 64, 0
3, 67657, Note_on_c, 1, 60, 0
3, 67675, Note_on_c, 1, 48, 0
3, 67679, Note_on_c, 1, 45, 76
3, 67679, Note_on_c, 1, 57, 76
3, 67685, Control_c, 1, 64, 127
3, 67707, Note_on_c, 1, 57, 0
3, 67709, Note_on_c, 1, 60, 72
3, 67718, Note_on_c, 1, 60, 0
3, 67739, Note_on_c, 1, 60, 85
3, 67739, Note_on_c, 1, 64, 89
3, 67744, Note_on_c, 1, 64, 0
3, 67746, Note_on_c, 1, 60, 0
3, 67749, Control_c, 1, 64, 0
3, 67769, Note_on_c, 1, 60, 89
3, 67769, Note_on_c, 1, 64, 72
3, 67773, Note_on_c, 1, 64, 0
3, 67775, Note_on_c, 1, 60, 0
3, 67799, Note_on_c, 1, 57, 76
3, 67799, Control_c, 1, 64, 127
3, 67800, Note_on_c, 1, 45, 0
3, 67827, Note_on_c, 1, 57, 0
3, 67829, Note_on_c, 1, 60, 76
3, 67841, Note_on_c, 1, 60, 0
3, 67855, Control_c, 1, 64, 0
3, 67859, Note_on_c, 1, 64, 76
3, 67859, Note_on_c, 1, 60, 76
3, 67866, Note_on_c, 1, 60, 0
3, 67868, Note_on_c, 1, 64, 0
3, 67889, Note_on_c, 1, 60, 76
3, 67889, Note_on_c, 1, 64, 60
3, 67892, Note_on_c, 1, 64, 0
3, 67895, Note_on_c, 1, 60, 0
3, 67919, Note_on_c, 1, 38, 76
3, 67919, Note_on_c, 1, 54, 93
3, 67929, Control_c, 1, 64, 127
3, 67949, Note_on_c, 1, 54, 0
3, 67949, Note_on_c, 1, 57, 76
3, 67979, Note_on_c, 1, 54, 64
3, 67982, Note_on_c, 1, 57, 0
3, 68007, Note_on_c, 1, 54, 0
3, 68009, Note_on_c, 1, 50, 64
3, 68038, Note_on_c, 1, 38, 0
3, 68039, Note_on_c, 1, 54, 72
3, 68039, Note_on_c, 1, 42, 68
3, 68040, Note_on_c, 1, 50, 0
3, 68042, Control_c, 1, 64, 0
3, 68055, Control_c, 1, 64, 127
3, 68067, Note_on_c, 1, 54, 0
3, 68069, Note_on_c, 1, 57, 85
3, 68096, Note_on_c, 1, 57, 0
3, 68097, Control_c, 1, 64, 0
3, 68099, Note_on_c, 1, 42, 0
3, 68099, Note_on_c, 1, 54, 72
3, 68099, Note_on_c, 1, 45, 93
3, 68108, Control_c, 1, 64, 127
3, 68128, Note_on_c, 1, 54, 0
3, 68129, Note_on_c, 1, 50, 60
3, 68156, Note_on_c, 1, 50, 0
3, 68159, Note_on_c, 1, 45, 0
3, 68159, Note_on_c, 1, 54, 80
3, 68159, Note_on_c, 1, 48, 85
3, 68160, Control_c, 1, 64, 0
3, 68176, Control_c, 1, 64, 127
3, 68189, Note_on_c, 1, 54, 0
3, 68189, Note_on_c, 1, 57, 72
3, 68216, Control_c, 1, 64, 0
3, 68219, Note_on_c, 1, 54, 72
3, 68222, Note_on_c, 1, 57, 0
3, 68225, Control_c, 1, 64, 127
3, 68249, Note_on_c, 1, 50, 72
3, 68254, Note_on_c, 1, 54, 0
3, 68258, Note_on_c, 1, 50, 0
3, 68272, Note_on_c, 1, 48, 0
3, 68279, Note_on_c, 1, 55, 72
3, 68279, Note_on_c, 1, 47, 80
3, 68282, Control_c, 1, 64, 0
3, 68297, Control_c, 1, 64, 127
3, 68307, Note_on_c, 1, 55, 0
3, 68309, Note_on_c, 1, 59, 76
3, 68321, Note_on_c, 1, 59, 0
3, 68339, Note_on_c, 1, 59, 76
3, 68339, Note_on_c, 1, 62, 72
3, 68341, Control_c, 1, 64, 0
3, 68345, Note_on_c, 1, 62, 0
3, 68345, Note_on_c, 1, 59, 0
3, 68369, Note_on_c, 1, 59, 76
3, 68369, Note_on_c, 1, 62, 68
3, 68375, Note_on_c, 1, 62, 0
3, 68375, Note_on_c, 1, 59, 0
3, 68398, Note_on_c, 1, 47, 0
3, 68399, Note_on_c, 1, 43, 76
3, 68399, Note_on_c, 1, 55, 60
3, 68401, Control_c, 1, 64, 127
3, 68417, Note_on_c, 1, 55, 0
3, 68429, Note_on_c, 1, 59, 64
3, 68438, Note_on_c, 1, 59, 0
3, 68459, Note_on_c, 1, 59, 68
3, 68459, Note_on_c, 1, 62, 72
3, 68465, Note_on_c, 1, 62, 0
3, 68466, Note_on_c, 1, 59, 0
3, 68475, Control_c, 1, 64, 0
3, 68489, Note_on_c, 1, 59, 85
3, 68489, Note_on_c, 1, 62, 76
3, 68493, Note_on_c, 1, 62, 0
3, 68495, Note_on_c, 1, 59, 0
3, 68509, Note_on_c, 1, 43, 0
3, 68519, Note_on_c, 1, 55, 76
3, 68521, Control_c, 1, 64, 127
3, 68544, Note_on_c, 1, 55, 0
3, 68549, Note_on_c, 1, 59, 62
3, 68560, Note_on_c, 1, 59, 0
3, 68579, Note_on_c, 1, 59, 80
3, 68579, Note_on_c, 1, 62, 80
3, 68583, Control_c, 1, 64, 0
3, 68584, Note_on_c, 1, 62, 0
3, 68586, Note_on_c, 1, 59, 0
3, 68600, Control_c, 1, 64, 127
3, 68609, Note_on_c, 1, 59, 76
3, 68609, Note_on_c, 1, 62, 60
3, 68616, Note_on_c, 1, 62, 0
3, 68616, Note_on_c, 1, 59, 0
3, 68629, Control_c, 1, 64, 0
3, 68639, Note_on_c, 1, 33, 72
3, 68639, Note_on_c, 1, 57, 89
3, 68648, Control_c, 1, 64, 127
3, 68667, Note_on_c, 1, 57, 0
3, 68669, Note_on_c, 1, 60, 76
3, 68699, Note_on_c, 1, 57, 80
3, 68700, Note_on_c, 1, 60, 0
3, 68700, Control_c, 1, 64, 0
3, 68711, Control_c, 1, 64, 127
3, 68728, Note_on_c, 1, 57, 0
3, 68729, Note_on_c, 1, 53, 62
3, 68759, Note_on_c, 1, 53, 0
3, 68759, Note_on_c, 1, 57, 80
3, 68764, Control_c, 1, 64, 0
3, 68775, Control_c, 1, 64, 127
3, 68789, Note_on_c, 1, 57, 0
3, 68789, Note_on_c, 1, 60, 80
3, 68819, Note_on_c, 1, 57, 76
3, 68823, Note_on_c, 1, 60, 0
3, 68849, Note_on_c, 1, 53, 72
3, 68852, Note_on_c, 1, 57, 0
3, 68870, Note_on_c, 1, 53, 0
3, 68876, Note_on_c, 1, 33, 0
3, 68879, Note_on_c, 1, 35, 76
3, 68879, Note_on_c, 1, 55, 89
3, 68880, Control_c, 1, 64, 0
3, 68895, Control_c, 1, 64, 127
3, 68909, Note_on_c, 1, 55, 0
3, 68909, Note_on_c, 1, 59, 76
3, 68937, Control_c, 1, 64, 0
3, 68939, Note_on_c, 1, 55, 76
3, 68942, Note_on_c, 1, 59, 0
3, 68948, Control_c, 1, 64, 127
3, 68969, Note_on_c, 1, 50, 80
3, 68970, Note_on_c, 1, 55, 0
3, 68989, Note_on_c, 1, 50, 0
3, 68998, Note_on_c, 1, 35, 0
3, 68999, Note_on_c, 1, 36, 68
3, 68999, Note_on_c, 1, 55, 85
3, 69000, Control_c, 1, 64, 0
3, 69016, Control_c, 1, 64, 127
3, 69029, Note_on_c, 1, 60, 80
3, 69030, Note_on_c, 1, 55, 0
3, 69056, Note_on_c, 1, 60, 0
3, 69059, Note_on_c, 1, 55, 76
3, 69087, Note_on_c, 1, 55, 0
3, 69089, Note_on_c, 1, 48, 76
3, 69096, Note_on_c, 1, 36, 0
3, 69109, Note_on_c, 1, 48, 0
3, 69119, Note_on_c, 1, 36, 76
3, 69119, Note_on_c, 1, 55, 76
3, 69121, Control_c, 1, 64, 0
3, 69135, Control_c, 1, 64, 127
3, 69149, Note_on_c, 1, 60, 85
3, 69150, Note_on_c, 1, 55, 0
3, 69176, Note_on_c, 1, 60, 0
3, 69179, Note_on_c, 1, 55, 76
3, 69208, Note_on_c, 1, 55, 0
3, 69209, Note_on_c, 1, 48, 76
3, 69215, Note_on_c, 1, 36, 0
3, 69227, Note_on_c, 1, 48, 0
3, 69239, Note_on_c, 1, 36, 68
3, 69239, Note_on_c, 1, 52, 76
3, 69243, Control_c, 1, 64, 0
3, 69256, Control_c, 1, 64, 127
3, 69268, Note_on_c, 1, 52, 0
3, 69269, Note_on_c, 1, 57, 89
3, 69291, Note_on_c, 1, 57, 0
3, 69299, Note_on_c, 1, 52, 76
3, 69318, Note_on_c, 1, 36, 0
3, 69329, Note_on_c, 1, 45, 76
3, 69330, Note_on_c, 1, 52, 0
3, 69348, Note_on_c, 1, 45, 0
3, 69359, Note_on_c, 1, 36, 59
3, 69359, Note_on_c, 1, 48, 89
3, 69365, Control_c, 1, 64, 0
3, 69383, Control_c, 1, 64, 127
3, 69389, Note_on_c, 1, 48, 0
3, 69389, Note_on_c, 1, 52, 72
3, 69417, Note_on_c, 1, 52, 0
3, 69419, Note_on_c, 1, 48, 62
3, 69449, Note_on_c, 1, 48, 0
3, 69449, Note_on_c, 1, 45, 68
3, 69465, Note_on_c, 1, 45, 0
3, 69479, Note_on_c, 1, 48, 80
3, 69482, Note_on_c, 1, 36, 0
3, 69485, Control_c, 1, 64, 0
3, 69499, Control_c, 1, 64, 127
3, 69508, Note_on_c, 1, 48, 0
3, 69509, Note_on_c, 1, 52, 89
3, 69536, Note_on_c, 1, 52, 0
3, 69538, Control_c, 1, 64, 0
3, 69539, Note_on_c, 1, 36, 72
3, 69539, Note_on_c, 1, 48, 85
3, 69550, Control_c, 1, 64, 127
3, 69569, Note_on_c, 1, 45, 76
3, 69573, Note_on_c, 1, 48, 0
3, 69577, Note_on_c, 1, 45, 0
3, 69599, Note_on_c, 1, 52, 76
3, 69599, Note_on_c, 1, 33, 85
3, 69601, Note_on_c, 1, 36, 0
3, 69605, Control_c, 1, 64, 0
3, 69621, Control_c, 1, 64, 127
3, 69629, Note_on_c, 1, 52, 0
3, 69629, Note_on_c, 1, 57, 80
3, 69655, Note_on_c, 1, 57, 0
3, 69659, Note_on_c, 1, 60, 80
3, 69659, Note_on_c, 1, 45, 89
3, 69661, Note_on_c, 1, 33, 0
3, 69661, Control_c, 1, 64, 0
3, 69674, Control_c, 1, 64, 127
3, 69689, Note_on_c, 1, 57, 80
3, 69695, Note_on_c, 1, 60, 0
3, 69710, Note_on_c, 1, 57, 0
3, 69714, Note_on_c, 1, 45, 0
3, 69719, Note_on_c, 1, 38, 72
3, 69719, Note_on_c, 1, 59, 93
3, 69727, Control_c, 1, 64, 0
3, 69743, Control_c, 1, 64, 127
3, 69833, Note_on_c, 1, 59, 0
3, 69835, Control_c, 1, 64, 0
3, 69839, Note_on_c, 1, 57, 85
3, 69847, Control_c, 1, 64, 127
3, 69864, Note_on_c, 1, 38, 0
3, 69869, Note_on_c, 1, 40, 72
3, 69873, Control_c, 1, 64, 0
3, 69886, Control_c, 1, 64, 127
3, 69899, Note_on_c, 1, 40, 0
3, 69899, Note_on_c, 1, 38, 62
3, 69901, Control_c, 1, 64, 0
3, 69912, Control_c, 1, 64, 127
3, 69929, Note_on_c, 1, 37, 85
3, 69933, Note_on_c, 1, 38, 0
3, 69937, Control_c, 1, 64, 0
3, 69939, Note_on_c, 1, 57, 0
3, 69959, Note_on_c, 1, 38, 76
3, 69960, Note_on_c, 1, 37, 0
3, 69989, Note_on_c, 1, 36, 76
3, 69991, Note_on_c, 1, 38, 0
3, 70018, Note_on_c, 1, 36, 0
3, 70019, Note_on_c, 1, 35, 72
3, 70049, Note_on_c, 1, 33, 62
3, 70052, Note_on_c, 1, 35, 0
3, 70076, Note_on_c, 1, 33, 0
3, 70079, Note_on_c, 1, 31, 64
3, 70079, Note_on_c, 1, 50, 72
3, 70087, Control_c, 1, 64, 127
3, 70131, Note_on_c, 1, 31, 0
3, 70139, Note_on_c, 1, 43, 64
3, 70146, Note_on_c, 1, 50, 0
3, 70168, Note_on_c, 1, 43, 0
3, 70169, Note_on_c, 1, 52, 62
3, 70181, Note_on_c, 1, 52, 0
3, 70197, Control_c, 1, 64, 0
3, 70199, Note_on_c, 1, 43, 57
3, 70199, Note_on_c, 1, 50, 76
3, 70208, Control_c, 1, 64, 127
3, 70232, Note_on_c, 1, 43, 0
3, 70234, Note_on_c, 1, 50, 0
3, 70259, Note_on_c, 1, 55, 68
3, 70259, Note_on_c, 1, 43, 53
3, 70261, Control_c, 1, 64, 0
3, 70269, Control_c, 1, 64, 127
3, 70290, Note_on_c, 1, 55, 0
3, 70294, Note_on_c, 1, 43, 0
3, 70319, Note_on_c, 1, 57, 72
3, 70319, Note_on_c, 1, 43, 56
3, 70321, Control_c, 1, 64, 0
3, 70331, Control_c, 1, 64, 127
3, 70348, Note_on_c, 1, 57, 0
3, 70355, Note_on_c, 1, 43, 0
3, 70379, Note_on_c, 1, 59, 64
3, 70379, Note_on_c, 1, 43, 62
3, 70383, Control_c, 1, 64, 0
3, 70393, Control_c, 1, 64, 127
3, 70405, Note_on_c, 1, 59, 0
3, 70416, Note_on_c, 1, 43, 0
3, 70437, Control_c, 1, 64, 0
3, 70439, Note_on_c, 1, 42, 60
3, 70439, Note_on_c, 1, 59, 76
3, 70449, Control_c, 1, 64, 127
3, 70478, Note_on_c, 1, 59, 0
3, 70482, Note_on_c, 1, 42, 0
3, 70499, Note_on_c, 1, 42, 56
3, 70499, Note_on_c, 1, 60, 68
3, 70503, Control_c, 1, 64, 0
3, 70514, Control_c, 1, 64, 127
3, 70531, Note_on_c, 1, 60, 0
3, 70533, Note_on_c, 1, 42, 0
3, 70559, Note_on_c, 1, 42, 62
3, 70559, Note_on_c, 1, 60, 62
3, 70562, Control_c, 1, 64, 0
3, 70572, Control_c, 1, 64, 127
3, 70598, Note_on_c, 1, 42, 0
3, 70619, Note_on_c, 1, 42, 57
3, 70655, Note_on_c, 1, 42, 0
3, 70679, Note_on_c, 1, 42, 64
3, 70701, Note_on_c, 1, 60, 0
3, 70704, Note_on_c, 1, 42, 0
3, 70739, Note_on_c, 1, 42, 62
3, 70757, Note_on_c, 1, 42, 0
3, 70799, Note_on_c, 1, 50, 89
3, 70799, Note_on_c, 1, 31, 64
3, 70804, Control_c, 1, 64, 0
3, 70818, Control_c, 1, 64, 127
3, 70846, Note_on_c, 1, 31, 0
3, 70859, Note_on_c, 1, 43, 64
3, 70879, Note_on_c, 1, 50, 0
3, 70884, Note_on_c, 1, 43, 0
3, 70889, Note_on_c, 1, 52, 80
3, 70917, Note_on_c, 1, 52, 0
3, 70917, Control_c, 1, 64, 0
3, 70919, Note_on_c, 1, 43, 62
3, 70919, Note_on_c, 1, 50, 85
3, 70927, Control_c, 1, 64, 127
3, 70948, Note_on_c, 1, 43, 0
3, 70951, Note_on_c, 1, 50, 0
3, 70978, Control_c, 1, 64, 0
3, 70979, Note_on_c, 1, 55, 76
3, 70979, Note_on_c, 1, 43, 56
3, 70988, Control_c, 1, 64, 127
3, 71009, Note_on_c, 1, 55, 0
3, 71010, Note_on_c, 1, 43, 0
3, 71037, Control_c, 1, 64, 0
3, 71039, Note_on_c, 1, 43, 53
3, 71039, Note_on_c, 1, 57, 72
3, 71047, Control_c, 1, 64, 127
3, 71067, Note_on_c, 1, 57, 0
3, 71072, Note_on_c, 1, 43, 0
3, 71099, Note_on_c, 1, 43, 57
3, 71099, Note_on_c, 1, 59, 72
3, 71101, Control_c, 1, 64, 0
3, 71111, Control_c, 1, 64, 127
3, 71126, Note_on_c, 1, 59, 0
3, 71128, Note_on_c, 1, 43, 0
3, 71159, Note_on_c, 1, 42, 60
3, 71159, Note_on_c, 1, 59, 68
3, 71159, Control_c, 1, 64, 0
3, 71170, Control_c, 1, 64, 127
3, 71195, Note_on_c, 1, 59, 0
3, 71197, Note_on_c, 1, 42, 0
3, 71219, Note_on_c, 1, 42, 60
3, 71219, Note_on_c, 1, 60, 64
3, 71219, Control_c, 1, 64, 0
3, 71228, Control_c, 1, 64, 127
3, 71249, Note_on_c, 1, 60, 0
3, 71252, Note_on_c, 1, 42, 0
3, 71279, Note_on_c, 1, 60, 64
3, 71279, Note_on_c, 1, 42, 60
3, 71282, Control_c, 1, 64, 0
3, 71292, Control_c, 1, 64, 127
3, 71315, Note_on_c, 1, 42, 0
3, 71339, Note_on_c, 1, 42, 60
3, 71367, Note_on_c, 1, 42, 0
3, 71399, Note_on_c, 1, 42, 60
3, 71413, Note_on_c, 1, 42, 0
3, 71459, Note_on_c, 1, 42, 62
3, 71465, Note_on_c, 1, 60, 0
3, 71477, Note_on_c, 1, 42, 0
3, 71516, Control_c, 1, 64, 0
3, 71519, Note_on_c, 1, 43, 64
3, 71519, Note_on_c, 1, 60, 76
3, 71527, Control_c, 1, 64, 127
3, 71533, Note_on_c, 1, 60, 0
3, 71534, Note_on_c, 1, 59, 57
3, 71547, Note_on_c, 1, 59, 0
3, 71549, Note_on_c, 1, 60, 56
3, 71563, Note_on_c, 1, 60, 0
3, 71564, Note_on_c, 1, 59, 56
3, 71576, Note_on_c, 1, 59, 0
3, 71579, Note_on_c, 1, 60, 57
3, 71593, Note_on_c, 1, 60, 0
3, 71594, Note_on_c, 1, 59, 76
3, 71607, Note_on_c, 1, 59, 0
3, 71609, Note_on_c, 1, 60, 76
3, 71609, Note_on_c, 1, 36, 72
3, 71618, Note_on_c, 1, 43, 0
3, 71639, Note_on_c, 1, 36, 0
3, 71639, Note_on_c, 1, 59, 76
3, 71639, Note_on_c, 1, 38, 89
3, 71640, Note_on_c, 1, 60, 0
3, 71640, Control_c, 1, 64, 0
3, 71656, Control_c, 1, 64, 127
3, 71669, Note_on_c, 1, 62, 76
3, 71670, Note_on_c, 1, 59, 0
3, 71699, Note_on_c, 1, 59, 72
3, 71701, Note_on_c, 1, 62, 0
3, 71703, Control_c, 1, 64, 0
3, 71713, Control_c, 1, 64, 127
3, 71729, Note_on_c, 1, 59, 0
3, 71729, Note_on_c, 1, 55, 62
3, 71743, Note_on_c, 1, 38, 0
3, 71750, Note_on_c, 1, 55, 0
3, 71759, Note_on_c, 1, 60, 80
3, 71759, Note_on_c, 1, 38, 76
3, 71767, Control_c, 1, 64, 0
3, 71780, Control_c, 1, 64, 127
3, 71788, Note_on_c, 1, 60, 0
3, 71789, Note_on_c, 1, 62, 76
3, 71818, Note_on_c, 1, 62, 0
3, 71819, Note_on_c, 1, 60, 62
3, 71840, Note_on_c, 1, 38, 0
3, 71846, Note_on_c, 1, 60, 0
3, 71849, Note_on_c, 1, 57, 64
3, 71861, Note_on_c, 1, 57, 0
3, 71879, Note_on_c, 1, 60, 64
3, 71879, Note_on_c, 1, 43, 62
3, 71879, Note_on_c, 1, 55, 68
3, 71879, Note_on_c, 1, 62, 80
3, 71886, Control_c, 1, 64, 0
3, 71900, Control_c, 1, 64, 127
3, 71997, Note_on_c, 1, 43, 0
3, 71999, Note_on_c, 1, 38, 68
3, 72005, Control_c, 1, 64, 0
3, 72016, Control_c, 1, 64, 127
3, 72109, Note_on_c, 1, 60, 0
3, 72119, Note_on_c, 1, 31, 57
3, 72119, Note_on_c, 1, 59, 56
3, 72122, Note_on_c, 1, 38, 0
3, 72127, Control_c, 1, 64, 0
3, 72138, Control_c, 1, 64, 127
3, 72171, Note_on_c, 1, 62, 0
3, 72174, Note_on_c, 1, 59, 0
3, 72174, Note_on_c, 1, 55, 0
3, 72178, Note_on_c, 1, 31, 0
3, 72191, Control_c, 1, 64, 0
3, 72239, Note_on_c, 1, 38, 89
3, 72239, Note_on_c, 1, 50, 119
3, 72329, Note_on_c, 1, 52, 107
3, 72329, Note_on_c, 1, 40, 98
3, 72332, Note_on_c, 1, 50, 0
3, 72334, Note_on_c, 1, 38, 0
3, 72357, Note_on_c, 1, 40, 0
3, 72358, Note_on_c, 1, 52, 0
3, 72359, Note_on_c, 1, 38, 89
3, 72359, Note_on_c, 1, 50, 107
3, 72364, Control_c, 1, 64, 127
3, 72387, Control_c, 1, 64, 0
3, 72417, Note_on_c, 1, 38, 0
3, 72418, Note_on_c, 1, 50, 0
3, 72419, Note_on_c, 1, 43, 93
3, 72419, Note_on_c, 1, 55, 93
3, 72419, Control_c, 1, 64, 127
3, 72424, Control_c, 1, 64, 0
3, 72479, Note_on_c, 1, 57, 107
3, 72479, Note_on_c, 1, 45, 89
3, 72480, Note_on_c, 1, 55, 0
3, 72481, Note_on_c, 1, 43, 0
3, 72484, Control_c, 1, 64, 127
3, 72489, Control_c, 1, 64, 0
3, 72538, Note_on_c, 1, 45, 0
3, 72539, Note_on_c, 1, 47, 93
3, 72539, Note_on_c, 1, 59, 98
3, 72540, Note_on_c, 1, 57, 0
3, 72549, Control_c, 1, 64, 127
3, 72574, Note_on_c, 1, 59, 0
3, 72576, Note_on_c, 1, 47, 0
3, 72599, Note_on_c, 1, 47, 93
3, 72599, Note_on_c, 1, 59, 93
3, 72600, Control_c, 1, 64, 0
3, 72614, Control_c, 1, 64, 127
3, 72659, Note_on_c, 1, 59, 0
3, 72659, Control_c, 1, 64, 0
3, 72659, Note_on_c, 1, 60, 89
3, 72659, Note_on_c, 1, 48, 89
3, 72661, Note_on_c, 1, 47, 0
3, 72672, Control_c, 1, 64, 127
3, 72700, Note_on_c, 1, 48, 0
3, 72702, Note_on_c, 1, 60, 0
3, 72719, Note_on_c, 1, 60, 98
3, 72719, Note_on_c, 1, 48, 89
3, 72723, Control_c, 1, 64, 0
3, 72735, Control_c, 1, 64, 127
3, 72901, Note_on_c, 1, 60, 0
3, 72906, Note_on_c, 1, 48, 0
3, 72948, Control_c, 1, 64, 0
3, 72959, Note_on_c, 1, 50, 107
3, 72959, Note_on_c, 1, 38, 93
3, 72971, Control_c, 1, 64, 127
3, 73044, Note_on_c, 1, 50, 0
3, 73046, Note_on_c, 1, 38, 0
3, 73049, Note_on_c, 1, 52, 98
3, 73049, Note_on_c, 1, 40, 89
3, 73056, Control_c, 1, 64, 0
3, 73079, Note_on_c, 1, 40, 0
3, 73079, Note_on_c, 1, 38, 93
3, 73079, Note_on_c, 1, 50, 102
3, 73081, Note_on_c, 1, 52, 0
3, 73086, Control_c, 1, 64, 127
3, 73137, Note_on_c, 1, 50, 0
3, 73137, Control_c, 1, 64, 0
3, 73139, Note_on_c, 1, 38, 0
3, 73139, Note_on_c, 1, 55, 102
3, 73139, Note_on_c, 1, 43, 89
3, 73155, Control_c, 1, 64, 127
3, 73196, Control_c, 1, 64, 0
3, 73198, Note_on_c, 1, 55, 0
3, 73199, Note_on_c, 1, 43, 0
3, 73199, Note_on_c, 1, 57, 102
3, 73199, Note_on_c, 1, 45, 85
3, 73211, Control_c, 1, 64, 127
3, 73259, Control_c, 1, 64, 0
3, 73259, Note_on_c, 1, 59, 98
3, 73259, Note_on_c, 1, 47, 93
3, 73260, Note_on_c, 1, 57, 0
3, 73261, Note_on_c, 1, 45, 0
3, 73273, Control_c, 1, 64, 127
3, 73295, Note_on_c, 1, 59, 0
3, 73300, Note_on_c, 1, 47, 0
3, 73319, Note_on_c, 1, 59, 93
3, 73319, Note_on_c, 1, 47, 93
3, 73322, Control_c, 1, 64, 0
3, 73336, Control_c, 1, 64, 127
3, 73373, Note_on_c, 1, 59, 0
3, 73374, Note_on_c, 1, 47, 0
3, 73379, Control_c, 1, 64, 0
3, 73379, Note_on_c, 1, 60, 89
3, 73379, Note_on_c, 1, 48, 89
3, 73392, Control_c, 1, 64, 127
3, 73419, Note_on_c, 1, 48, 0
3, 73419, Note_on_c, 1, 60, 0
3, 73438, Control_c, 1, 64, 0
3, 73439, Note_on_c, 1, 60, 98
3, 73439, Note_on_c, 1, 48, 85
3, 73452, Control_c, 1, 64, 127
3, 73652, Note_on_c, 1, 48, 0
3, 73658, Note_on_c, 1, 60, 0
3, 73673, Control_c, 1, 64, 0
3, 73679, Note_on_c, 1, 48, 89
3, 73679, Note_on_c, 1, 64, 98
3, 73685, Control_c, 1, 64, 127
3, 73687, Control_c, 1, 64, 0
3, 73694, Note_on_c, 1, 64, 0
3, 73694, Note_on_c, 1, 48, 0
3, 73694, Note_on_c, 1, 47, 85
3, 73694, Note_on_c, 1, 62, 89
3, 73706, Note_on_c, 1, 62, 0
3, 73709, Note_on_c, 1, 48, 80
3, 73709, Note_on_c, 1, 64, 89
3, 73711, Note_on_c, 1, 47, 0
3, 73721, Note_on_c, 1, 64, 0
3, 73723, Note_on_c, 1, 48, 0
3, 73724, Note_on_c, 1, 47, 85
3, 73724, Note_on_c, 1, 62, 85
3, 73736, Note_on_c, 1, 62, 0
3, 73739, Note_on_c, 1, 47, 0
3, 73739, Note_on_c, 1, 64, 72
3, 73739, Note_on_c, 1, 48, 68
3, 73752, Note_on_c, 1, 64, 0
3, 73753, Note_on_c, 1, 48, 0
3, 73754, Note_on_c, 1, 47, 93
3, 73754, Note_on_c, 1, 62, 89
3, 73765, Note_on_c, 1, 62, 0
3, 73769, Note_on_c, 1, 47, 0
3, 73769, Note_on_c, 1, 64, 89
3, 73769, Note_on_c, 1, 48, 80
3, 73783, Note_on_c, 1, 64, 0
3, 73783, Control_c, 1, 64, 127
3, 73796, Note_on_c, 1, 48, 0
3, 73799, Note_on_c, 1, 50, 72
3, 73799, Note_on_c, 1, 55, 76
3, 73804, Control_c, 1, 64, 0
3, 73823, Control_c, 1, 64, 127
3, 73828, Note_on_c, 1, 55, 0
3, 73829, Note_on_c, 1, 59, 76
3, 73857, Note_on_c, 1, 59, 0
3, 73859, Note_on_c, 1, 62, 64
3, 73887, Note_on_c, 1, 62, 0
3, 73889, Note_on_c, 1, 59, 76
3, 73915, Note_on_c, 1, 50, 0
3, 73918, Note_on_c, 1, 59, 0
3, 73919, Note_on_c, 1, 57, 80
3, 73919, Note_on_c, 1, 38, 85
3, 73920, Control_c, 1, 64, 0
3, 73935, Control_c, 1, 64, 127
3, 73949, Note_on_c, 1, 60, 85
3, 73953, Note_on_c, 1, 57, 0
3, 73978, Note_on_c, 1, 60, 0
3, 73979, Note_on_c, 1, 62, 80
3, 74009, Note_on_c, 1, 62, 0
3, 74009, Note_on_c, 1, 60, 89
3, 74016, Note_on_c, 1, 38, 0
3, 74018, Note_on_c, 1, 60, 0
3, 74039, Note_on_c, 1, 60, 80
3, 74039, Note_on_c, 1, 43, 76
3, 74039, Note_on_c, 1, 57, 80
3, 74039, Note_on_c, 1, 62, 89
3, 74039, Control_c, 1, 64, 0
3, 74055, Control_c, 1, 64, 127
3, 74122, Note_on_c, 1, 62, 0
3, 74125, Note_on_c, 1, 57, 0
3, 74126, Note_on_c, 1, 60, 0
3, 74154, Control_c, 1, 64, 0
3, 74159, Note_on_c, 1, 62, 57
3, 74159, Note_on_c, 1, 55, 57
3, 74159, Note_on_c, 1, 59, 76
3, 74165, Control_c, 1, 64, 127
3, 74173, Note_on_c, 1, 43, 0
3, 74176, Note_on_c, 1, 62, 0
3, 74176, Note_on_c, 1, 59, 0
3, 74178, Note_on_c, 1, 55, 0
3, 74202, Control_c, 1, 64, 0
3, 74219, Note_on_c, 1, 54, 53
3, 74219, Note_on_c, 1, 38, 64
3, 74219, Note_on_c, 1, 50, 49
3, 74219, Note_on_c, 1, 57, 62
3, 74219, Note_on_c, 1, 60, 34
3, 74222, Control_c, 1, 64, 127
3, 74252, Note_on_c, 1, 57, 0
3, 74252, Note_on_c, 1, 50, 0
3, 74253, Note_on_c, 1, 60, 0
3, 74253, Note_on_c, 1, 54, 0
3, 74257, Note_on_c, 1, 38, 0
3, 74279, Note_on_c, 1, 50, 55
3, 74279, Note_on_c, 1, 54, 60
3, 74279, Note_on_c, 1, 60, 55
3, 74279, Note_on_c, 1, 38, 60
3, 74279, Note_on_c, 1, 57, 72
3, 74279, Control_c, 1, 64, 0
3, 74288, Control_c, 1, 64, 127
3, 74306, Note_on_c, 1, 38, 0
3, 74309, Note_on_c, 1, 54, 0
3, 74309, Note_on_c, 1, 50, 0
3, 74309, Note_on_c, 1, 57, 0
3, 74310, Note_on_c, 1, 60, 0
3, 74335, Control_c, 1, 64, 0
3, 74339, Note_on_c, 1, 50, 55
3, 74339, Note_on_c, 1, 54, 59
3, 74339, Note_on_c, 1, 57, 72
3, 74339, Note_on_c, 1, 60, 53
3, 74339, Note_on_c, 1, 38, 55
3, 74343, Control_c, 1, 64, 127
3, 74359, Note_on_c, 1, 38, 0
3, 74360, Note_on_c, 1, 50, 0
3, 74361, Note_on_c, 1, 60, 0
3, 74361, Note_on_c, 1, 57, 0
3, 74362, Note_on_c, 1, 54, 0
3, 74399, Note_on_c, 1, 57, 64
3, 74399, Note_on_c, 1, 54, 59
3, 74399, Note_on_c, 1, 50, 62
3, 74399, Note_on_c, 1, 60, 57
3, 74399, Note_on_c, 1, 43, 52
3, 74399, Note_on_c, 1, 31, 53
3, 74402, Control_c, 1, 64, 0
3, 74417, Control_c, 1, 64, 127
3, 74622, Note_on_c, 1, 54, 0
3, 74624, Note_on_c, 1, 60, 0
3, 74631, Note_on_c, 1, 57, 0
3, 74638, Control_c, 1, 64, 0
3, 74639, Note_on_c, 1, 55, 57
3, 74639, Note_on_c, 1, 59, 53
3, 74652, Control_c, 1, 64, 127
3, 74698, Note_on_c, 1, 43, 0
3, 74698, Note_on_c, 1, 50, 0
3, 74700, Note_on_c, 1, 31, 0
3, 74701, Note_on_c, 1, 59, 0
3, 74702, Note_on_c, 1, 55, 0
3, 74703, Control_c, 1, 64, 0
3, 75120, Note_on_c, 1, 54, 98
3, 75120, Note_on_c, 1, 57, 102
3, 75120, Note_on_c, 1, 50, 107
3, 75120, Note_on_c, 1, 38, 102
3, 75132, Control_c, 1, 64, 127
3, 75171, Note_on_c, 1, 54, 0
3, 75173, Note_on_c, 1, 57, 0
3, 75173, Note_on_c, 1, 50, 0
3, 75173, Note_on_c, 1, 38, 0
3, 75224, Control_c, 1, 64, 0
3, 75240, Note_on_c, 1, 57, 102
3, 75240, Note_on_c, 1, 54, 93
3, 75240, Note_on_c, 1, 50, 102
3, 75240, Note_on_c, 1, 38, 102
3, 75253, Control_c, 1, 64, 127
3, 75288, Note_on_c, 1, 50, 0
3, 75288, Note_on_c, 1, 57, 0
3, 75288, Note_on_c, 1, 54, 0
3, 75291, Note_on_c, 1, 38, 0
3, 75344, Control_c, 1, 64, 0
3, 75360, Note_on_c, 1, 54, 93
3, 75360, Note_on_c, 1, 57, 102
3, 75360, Note_on_c, 1, 50, 107
3, 75360, Note_on_c, 1, 38, 107
3, 75371, Control_c, 1, 64, 127
3, 75377, Note_on_c, 1, 50, 0
3, 75379, Note_on_c, 1, 38, 0
3, 75384, Note_on_c, 1, 57, 0
3, 75385, Note_on_c, 1, 54, 0
3, 75479, Control_c, 1, 64, 0
3, 75540, Note_on_c, 1, 54, 107
3, 75540, Note_on_c, 1, 62, 102
3, 75571, Control_c, 1, 64, 127
3, 75579, Note_on_c, 1, 62, 0
3, 75583, Note_on_c, 1, 54, 0
3, 75596, Control_c, 1, 64, 0
3, 75600, Note_on_c, 1, 55, 85
3, 75600, Note_on_c, 1, 64, 98
3, 75640, Note_on_c, 1, 62, 89
3, 75640, Note_on_c, 1, 54, 80
3, 75645, Note_on_c, 1, 55, 0
3, 75647, Note_on_c, 1, 64, 0
3, 75677, Note_on_c, 1, 62, 0
3, 75680, Note_on_c, 1, 55, 80
3, 75680, Note_on_c, 1, 64, 93
3, 75681, Note_on_c, 1, 54, 0
3, 75714, Note_on_c, 1, 64, 0
3, 75714, Note_on_c, 1, 55, 0
3, 75720, Note_on_c, 1, 52, 80
3, 75720, Note_on_c, 1, 61, 102
3, 75759, Note_on_c, 1, 61, 0
3, 75759, Note_on_c, 1, 52, 0
3, 75760, Note_on_c, 1, 62, 89
3, 75760, Note_on_c, 1, 54, 76
3, 75799, Note_on_c, 1, 62, 0
3, 75800, Note_on_c, 1, 64, 89
3, 75800, Note_on_c, 1, 55, 89
3, 75802, Note_on_c, 1, 54, 0
3, 75840, Note_on_c, 1, 54, 93
3, 75840, Note_on_c, 1, 62, 107
3, 75846, Note_on_c, 1, 55, 0
3, 75846, Note_on_c, 1, 64, 0
3, 75865, Control_c, 1, 64, 127
3, 75895, Note_on_c, 1, 62, 0
3, 75898, Note_on_c, 1, 54, 0
3, 75963, Control_c, 1, 64, 0
3, 76080, Note_on_c, 1, 54, 102
3, 76080, Note_on_c, 1, 57, 107
3, 76080, Note_on_c, 1, 50, 107
3, 76080, Note_on_c, 1, 38, 102
3, 76083, Control_c, 1, 64, 127
3, 76115, Note_on_c, 1, 57, 0
3, 76116, Note_on_c, 1, 38, 0
3, 76116, Note_on_c, 1, 50, 0
3, 76124, Note_on_c, 1, 54, 0
3, 76181, Control_c, 1, 64, 0
3, 76200, Note_on_c, 1, 54, 102
3, 76200, Note_on_c, 1, 57, 107
3, 76200, Note_on_c, 1, 50, 107
3, 76200, Note_on_c, 1, 38, 102
3, 76216, Control_c, 1, 64, 127
3, 76237, Note_on_c, 1, 38, 0
3, 76239, Note_on_c, 1, 50, 0
3, 76244, Note_on_c, 1, 54, 0
3, 76245, Note_on_c, 1, 57, 0
3, 76311, Control_c, 1, 64, 0
3, 76320, Note_on_c, 1, 54, 89
3, 76320, Note_on_c, 1, 38, 102
3, 76320, Note_on_c, 1, 57, 102
3, 76320, Note_on_c, 1, 50, 107
3, 76340, Control_c, 1, 64, 127
3, 76348, Note_on_c, 1, 50, 0
3, 76348, Note_on_c, 1, 54, 0
3, 76348, Note_on_c, 1, 38, 0
3, 76348, Note_on_c, 1, 57, 0
3, 76457, Control_c, 1, 64, 0
3, 76500, Note_on_c, 1, 66, 113
3, 76500, Note_on_c, 1, 62, 119
3, 76524, Note_on_c, 1, 62, 0
3, 76526, Control_c, 1, 64, 127
3, 76529, Note_on_c, 1, 66, 0
3, 76560, Note_on_c, 1, 67, 102
3, 76560, Note_on_c, 1, 64, 107
3, 76564, Control_c, 1, 64, 0
3, 76592, Note_on_c, 1, 67, 0
3, 76593, Control_c, 1, 64, 127
3, 76594, Note_on_c, 1, 64, 0
3, 76600, Note_on_c, 1, 66, 93
3, 76600, Note_on_c, 1, 62, 89
3, 76621, Control_c, 1, 64, 0
3, 76623, Note_on_c, 1, 62, 0
3, 76625, Note_on_c, 1, 66, 0
3, 76640, Note_on_c, 1, 67, 85
3, 76640, Note_on_c, 1, 64, 89
3, 76649, Control_c, 1, 64, 127
3, 76664, Note_on_c, 1, 64, 0
3, 76664, Note_on_c, 1, 67, 0
3, 76680, Note_on_c, 1, 64, 98
3, 76680, Note_on_c, 1, 61, 80
3, 76681, Control_c, 1, 64, 0
3, 76704, Note_on_c, 1, 61, 0
3, 76706, Control_c, 1, 64, 127
3, 76709, Note_on_c, 1, 64, 0
3, 76720, Note_on_c, 1, 62, 89
3, 76720, Note_on_c, 1, 66, 89
3, 76742, Note_on_c, 1, 62, 0
3, 76745, Note_on_c, 1, 66, 0
3, 76753, Control_c, 1, 64, 0
3, 76760, Note_on_c, 1, 67, 89
3, 76760, Note_on_c, 1, 64, 85
3, 76788, Note_on_c, 1, 64, 0
3, 76790, Note_on_c, 1, 67, 0
3, 76805, Note_on_c, 1, 62, 107
3, 76805, Note_on_c, 1, 66, 119
3, 76818, Control_c, 1, 64, 127
3, 76846, Note_on_c, 1, 62, 0
3, 76849, Note_on_c, 1, 66, 0
3, 76928, Control_c, 1, 64, 0
3, 77040, Note_on_c, 1, 38, 107
3, 77052, Control_c, 1, 64, 127
3, 77160, Note_on_c, 1, 50, 98
3, 77169, Control_c, 1, 64, 0
3, 77179, Note_on_c, 1, 38, 0
3, 77200, Control_c, 1, 64, 127
3, 77220, Note_on_c, 1, 38, 93
3, 77259, Note_on_c, 1, 38, 0
3, 77260, Note_on_c, 1, 50, 0
3, 77276, Control_c, 1, 64, 0
3, 77280, Note_on_c, 1, 40, 93
3, 77314, Control_c, 1, 64, 127
3, 77340, Note_on_c, 1, 47, 102
3, 77370, Note_on_c, 1, 47, 0
3, 77400, Control_c, 1, 64, 0
3, 77400, Note_on_c, 1, 52, 93
3, 77408, Note_on_c, 1, 40, 0
3, 77434, Control_c, 1, 64, 127
3, 77453, Note_on_c, 1, 52, 0
3, 77460, Note_on_c, 1, 40, 80
3, 77460, Note_on_c, 1, 50, 93
3, 77481, Note_on_c, 1, 40, 0
3, 77513, Note_on_c, 1, 50, 0
3, 77520, Note_on_c, 1, 49, 93
3, 77520, Note_on_c, 1, 45, 93
3, 77528, Control_c, 1, 64, 0
3, 77565, Control_c, 1, 64, 127
3, 77582, Note_on_c, 1, 49, 0
3, 77586, Note_on_c, 1, 45, 0
3, 77640, Note_on_c, 1, 45, 102
3, 77682, Control_c, 1, 64, 0
3, 77700, Note_on_c, 1, 37, 89
3, 77712, Control_c, 1, 64, 127
3, 77730, Note_on_c, 1, 37, 0
3, 77760, Note_on_c, 1, 38, 102
3, 77761, Control_c, 1, 64, 0
3, 77812, Control_c, 1, 64, 127
3, 77816, Note_on_c, 1, 45, 0
3, 77818, Control_c, 1, 64, 0
3, 77820, Note_on_c, 1, 54, 89
3, 77874, Note_on_c, 1, 54, 0
3, 77879, Control_c, 1, 64, 127
3, 77880, Note_on_c, 1, 57, 98
3, 77882, Note_on_c, 1, 38, 0
3, 77940, Note_on_c, 1, 38, 93
3, 77940, Note_on_c, 1, 54, 85
3, 77942, Note_on_c, 1, 57, 0
3, 77952, Note_on_c, 1, 38, 0
3, 77986, Note_on_c, 1, 54, 0
3, 78000, Note_on_c, 1, 50, 107
3, 78000, Note_on_c, 1, 47, 89
3, 78004, Control_c, 1, 64, 0
3, 78054, Control_c, 1, 64, 127
3, 78091, Note_on_c, 1, 50, 0
3, 78117, Control_c, 1, 64, 0
3, 78120, Note_on_c, 1, 50, 107
3, 78123, Note_on_c, 1, 47, 0
3, 78164, Control_c, 1, 64, 127
3, 78180, Note_on_c, 1, 47, 89
3, 78205, Note_on_c, 1, 47, 0
3, 78232, Control_c, 1, 64, 0
3, 78240, Note_on_c, 1, 43, 89
3, 78267, Control_c, 1, 64, 127
3, 78275, Note_on_c, 1, 50, 0
3, 78300, Note_on_c, 1, 47, 102
3, 78333, Note_on_c, 1, 47, 0
3, 78360, Note_on_c, 1, 55, 93
3, 78367, Note_on_c, 1, 43, 0
3, 78389, Note_on_c, 1, 55, 0
3, 78420, Note_on_c, 1, 52, 93
3, 78420, Note_on_c, 1, 43, 76
3, 78437, Note_on_c, 1, 52, 0
3, 78445, Note_on_c, 1, 43, 0
3, 78474, Control_c, 1, 64, 0
3, 78480, Note_on_c, 1, 54, 102
3, 78480, Note_on_c, 1, 45, 89
3, 78525, Control_c, 1, 64, 127
3, 78539, Note_on_c, 1, 54, 0
3, 78540, Note_on_c, 1, 55, 93
3, 78592, Note_on_c, 1, 55, 0
3, 78593, Note_on_c, 1, 45, 0
3, 78599, Control_c, 1, 64, 0
3, 78600, Note_on_c, 1, 57, 102
3, 78651, Note_on_c, 1, 57, 0
3, 78659, Control_c, 1, 64, 127
3, 78660, Note_on_c, 1, 55, 102
3, 78660, Note_on_c, 1, 45, 98
3, 78674, Note_on_c, 1, 45, 0
3, 78692, Note_on_c, 1, 55, 0
3, 78714, Control_c, 1, 64, 0
3, 78720, Note_on_c, 1, 54, 107
3, 78720, Note_on_c, 1, 38, 89
3, 78749, Control_c, 1, 64, 127
3, 78780, Note_on_c, 1, 42, 72
3, 78782, Note_on_c, 1, 38, 0
3, 78815, Note_on_c, 1, 54, 0
3, 78840, Note_on_c, 1, 50, 93
3, 78840, Note_on_c, 1, 45, 80
3, 78844, Note_on_c, 1, 42, 0
3, 78845, Control_c, 1, 64, 0
3, 78872, Control_c, 1, 64, 127
3, 78900, Note_on_c, 1, 42, 76
3, 78902, Note_on_c, 1, 45, 0
3, 78915, Note_on_c, 1, 50, 0
3, 78927, Note_on_c, 1, 42, 0
3, 78959, Control_c, 1, 64, 0
3, 78960, Note_on_c, 1, 38, 89
3, 79002, Control_c, 1, 64, 127
3, 79020, Note_on_c, 1, 50, 60
3, 79045, Note_on_c, 1, 50, 0
3, 79080, Note_on_c, 1, 50, 80
3, 79104, Note_on_c, 1, 50, 0
3, 79119, Note_on_c, 1, 38, 0
3, 79140, Note_on_c, 1, 50, 59
3, 79145, Control_c, 1, 64, 0
3, 79189, Note_on_c, 1, 50, 0
3, 79200, Note_on_c, 1, 40, 85
3, 79260, Note_on_c, 1, 49, 76
3, 79298, Note_on_c, 1, 49, 0
3, 79320, Note_on_c, 1, 49, 80
3, 79327, Control_c, 1, 64, 127
3, 79349, Note_on_c, 1, 49, 0
3, 79366, Note_on_c, 1, 40, 0
3, 79380, Note_on_c, 1, 49, 72
3, 79403, Note_on_c, 1, 49, 0
3, 79422, Control_c, 1, 64, 0
3, 79440, Note_on_c, 1, 33, 72
3, 79488, Control_c, 1, 64, 127
3, 79500, Note_on_c, 1, 49, 62
3, 79526, Note_on_c, 1, 49, 0
3, 79558, Control_c, 1, 64, 0
3, 79560, Note_on_c, 1, 49, 68
3, 79581, Control_c, 1, 64, 127
3, 79597, Note_on_c, 1, 49, 0
3, 79620, Note_on_c, 1, 49, 68
3, 79629, Note_on_c, 1, 33, 0
3, 79637, Note_on_c, 1, 49, 0
3, 79648, Control_c, 1, 64, 0
3, 79680, Note_on_c, 1, 38, 76
3, 79703, Control_c, 1, 64, 127
3, 79740, Note_on_c, 1, 50, 80
3, 79750, Note_on_c, 1, 38, 0
3, 79770, Note_on_c, 1, 50, 0
3, 79794, Control_c, 1, 64, 0
3, 79800, Note_on_c, 1, 50, 89
3, 79821, Control_c, 1, 64, 127
3, 79839, Note_on_c, 1, 50, 0
3, 79860, Note_on_c, 1, 50, 89
3, 79878, Note_on_c, 1, 50, 0
3, 79903, Control_c, 1, 64, 0
3, 79920, Note_on_c, 1, 50, 119
3, 79920, Note_on_c, 1, 38, 102
3, 79937, Control_c, 1, 64, 127
3, 79956, Note_on_c, 1, 50, 0
3, 79960, Note_on_c, 1, 38, 0
3, 80032, Control_c, 1, 64, 0
3, 80040, Note_on_c, 1, 45, 113
3, 80040, Note_on_c, 1, 33, 93
3, 80062, Control_c, 1, 64, 127
3, 80087, Note_on_c, 1, 33, 0
3, 80094, Note_on_c, 1, 45, 0
3, 80130, Note_on_c, 1, 38, 89
3, 80130, Note_on_c, 1, 50, 98
3, 80147, Control_c, 1, 64, 0
3, 80150, Note_on_c, 1, 50, 0
3, 80153, Note_on_c, 1, 38, 0
3, 80160, Note_on_c, 1, 42, 98
3, 80160, Note_on_c, 1, 54, 107
3, 80188, Control_c, 1, 64, 127
3, 80226, Note_on_c, 1, 42, 0
3, 80240, Note_on_c, 1, 54, 0
3, 80271, Control_c, 1, 64, 0
3, 80280, Note_on_c, 1, 38, 98
3, 80280, Note_on_c, 1, 50, 113
3, 80301, Control_c, 1, 64, 127
3, 80354, Note_on_c, 1, 38, 0
3, 80360, Note_on_c, 1, 50, 0
3, 80370, Note_on_c, 1, 54, 102
3, 80370, Note_on_c, 1, 42, 80
3, 80387, Control_c, 1, 64, 0
3, 80391, Note_on_c, 1, 54, 0
3, 80393, Note_on_c, 1, 42, 0
3, 80400, Note_on_c, 1, 57, 113
3, 80400, Note_on_c, 1, 45, 113
3, 80424, Control_c, 1, 64, 127
3, 80461, Note_on_c, 1, 57, 0
3, 80462, Note_on_c, 1, 45, 0
3, 80512, Control_c, 1, 64, 0
3, 80520, Note_on_c, 1, 57, 119
3, 80520, Note_on_c, 1, 45, 113
3, 80541, Control_c, 1, 64, 127
3, 80567, Note_on_c, 1, 45, 0
3, 80567, Note_on_c, 1, 57, 0
3, 80609, Control_c, 1, 64, 0
3, 80610, Note_on_c, 1, 57, 113
3, 80610, Note_on_c, 1, 45, 107
3, 80626, Note_on_c, 1, 45, 0
3, 80626, Note_on_c, 1, 57, 0
3, 80640, Note_on_c, 1, 45, 113
3, 80640, Note_on_c, 1, 57, 113
3, 80665, Control_c, 1, 64, 127
3, 80750, Note_on_c, 1, 57, 0
3, 80753, Note_on_c, 1, 45, 0
3, 80764, Control_c, 1, 64, 0
3, 80880, Note_on_c, 1, 52, 85
3, 80880, Note_on_c, 1, 45, 85
3, 80901, Control_c, 1, 64, 127
3, 80982, Note_on_c, 1, 45, 0
3, 81000, Control_c, 1, 64, 0
3, 81038, Control_c, 1, 64, 127
3, 81062, Note_on_c, 1, 52, 0
3, 81104, Control_c, 1, 64, 0
3, 81120, Note_on_c, 1, 52, 89
3, 81120, Note_on_c, 1, 45, 85
3, 81141, Control_c, 1, 64, 127
3, 81243, Note_on_c, 1, 45, 0
3, 81243, Control_c, 1, 64, 0
3, 81312, Note_on_c, 1, 52, 0
3, 81360, Note_on_c, 1, 52, 80
3, 81360, Note_on_c, 1, 40, 85
3, 81375, Control_c, 1, 64, 127
3, 81435, Note_on_c, 1, 40, 0
3, 81476, Control_c, 1, 64, 0
3, 81560, Note_on_c, 1, 52, 0
3, 81600, Note_on_c, 1, 52, 85
3, 81600, Note_on_c, 1, 40, 89
3, 81602, Control_c, 1, 64, 127
3, 81647, Note_on_c, 1, 40, 0
3, 81688, Control_c, 1, 64, 0
3, 81798, Note_on_c, 1, 52, 0
3, 81840, Note_on_c, 1, 52, 89
3, 81840, Note_on_c, 1, 45, 89
3, 81844, Control_c, 1, 64, 127
3, 81884, Note_on_c, 1, 45, 0
3, 81965, Control_c, 1, 64, 0
3, 82040, Note_on_c, 1, 52, 0
3, 82080, Note_on_c, 1, 45, 85
3, 82080, Note_on_c, 1, 52, 80
3, 82087, Control_c, 1, 64, 127
3, 82101, Note_on_c, 1, 45, 0
3, 82190, Control_c, 1, 64, 0
3, 82283, Note_on_c, 1, 52, 0
3, 82320, Note_on_c, 1, 52, 80
3, 82320, Note_on_c, 1, 40, 85
3, 82328, Control_c, 1, 64, 127
3, 82341, Note_on_c, 1, 40, 0
3, 82426, Control_c, 1, 64, 0
3, 82531, Note_on_c, 1, 52, 0
3, 82560, Note_on_c, 1, 40, 80
3, 82560, Note_on_c, 1, 52, 76
3, 82572, Control_c, 1, 64, 127
3, 82577, Note_on_c, 1, 40, 0
3, 82645, Control_c, 1, 64, 0
3, 82760, Note_on_c, 1, 52, 0
3, 82800, Note_on_c, 1, 45, 89
3, 82800, Note_on_c, 1, 52, 89
3, 82810, Control_c, 1, 64, 127
3, 82820, Note_on_c, 1, 45, 0
3, 82929, Control_c, 1, 64, 0
3, 82948, Note_on_c, 1, 52, 0
3, 83040, Note_on_c, 1, 33, 93
3, 83040, Note_on_c, 1, 45, 107
3, 83054, Control_c, 1, 64, 127
3, 83070, Control_c, 1, 64, 0
3, 83078, Note_on_c, 1, 45, 0
3, 83079, Note_on_c, 1, 33, 0
3, 83080, Note_on_c, 1, 32, 62
3, 83080, Note_on_c, 1, 44, 89
3, 83108, Note_on_c, 1, 44, 0
3, 83120, Note_on_c, 1, 45, 93
3, 83120, Note_on_c, 1, 33, 93
3, 83123, Note_on_c, 1, 32, 0
3, 83155, Note_on_c, 1, 45, 0
3, 83160, Note_on_c, 1, 33, 0
3, 83160, Note_on_c, 1, 47, 93
3, 83160, Note_on_c, 1, 35, 89
3, 83195, Note_on_c, 1, 35, 0
3, 83196, Note_on_c, 1, 47, 0
3, 83200, Note_on_c, 1, 33, 76
3, 83200, Note_on_c, 1, 45, 93
3, 83233, Note_on_c, 1, 45, 0
3, 83240, Note_on_c, 1, 47, 93
3, 83240, Note_on_c, 1, 35, 85
3, 83241, Note_on_c, 1, 33, 0
3, 83275, Note_on_c, 1, 47, 0
3, 83277, Note_on_c, 1, 35, 0
3, 83280, Note_on_c, 1, 37, 76
3, 83280, Note_on_c, 1, 49, 107
3, 83316, Note_on_c, 1, 49, 0
3, 83319, Note_on_c, 1, 37, 0
3, 83320, Note_on_c, 1, 35, 89
3, 83320, Note_on_c, 1, 47, 89
3, 83355, Note_on_c, 1, 47, 0
3, 83360, Note_on_c, 1, 37, 89
3, 83360, Note_on_c, 1, 49, 93
3, 83364, Note_on_c, 1, 35, 0
3, 83395, Note_on_c, 1, 49, 0
3, 83397, Note_on_c, 1, 37, 0
3, 83400, Note_on_c, 1, 38, 93
3, 83400, Note_on_c, 1, 50, 89
3, 83440, Note_on_c, 1, 49, 93
3, 83440, Note_on_c, 1, 37, 85
3, 83441, Note_on_c, 1, 50, 0
3, 83443, Note_on_c, 1, 38, 0
3, 83480, Note_on_c, 1, 50, 89
3, 83480, Note_on_c, 1, 38, 89
3, 83483, Note_on_c, 1, 49, 0
3, 83484, Note_on_c, 1, 37, 0
3, 83519, Note_on_c, 1, 38, 0
3, 83520, Note_on_c, 1, 40, 93
3, 83520, Note_on_c, 1, 52, 93
3, 83522, Note_on_c, 1, 50, 0
3, 83560, Note_on_c, 1, 52, 0
3, 83560, Note_on_c, 1, 50, 98
3, 83560, Note_on_c, 1, 38, 80
3, 83567, Note_on_c, 1, 40, 0
3, 83593, Note_on_c, 1, 50, 0
3, 83600, Note_on_c, 1, 40, 62
3, 83600, Note_on_c, 1, 52, 93
3, 83610, Note_on_c, 1, 38, 0
3, 83635, Note_on_c, 1, 52, 0
3, 83640, Note_on_c, 1, 54, 107
3, 83640, Note_on_c, 1, 42, 85
3, 83643, Note_on_c, 1, 40, 0
3, 83680, Note_on_c, 1, 52, 89
3, 83680, Note_on_c, 1, 40, 89
3, 83682, Note_on_c, 1, 42, 0
3, 83682, Note_on_c, 1, 54, 0
3, 83720, Note_on_c, 1, 52, 0
3, 83720, Note_on_c, 1, 54, 89
3, 83720, Note_on_c, 1, 42, 80
3, 83726, Note_on_c, 1, 40, 0
3, 83760, Note_on_c, 1, 56, 93
3, 83760, Note_on_c, 1, 44, 76
3, 83761, Note_on_c, 1, 54, 0
3, 83765, Note_on_c, 1, 42, 0
3, 83800, Note_on_c, 1, 42, 72
3, 83800, Note_on_c, 1, 54, 89
3, 83802, Note_on_c, 1, 44, 0
3, 83805, Note_on_c, 1, 56, 0
3, 83839, Note_on_c, 1, 54, 0
3, 83840, Note_on_c, 1, 56, 93
3, 83840, Note_on_c, 1, 44, 60
3, 83849, Note_on_c, 1, 42, 0
3, 83875, Note_on_c, 1, 44, 0
3, 83878, Note_on_c, 1, 56, 0
3, 83880, Note_on_c, 1, 57, 93
3, 83880, Note_on_c, 1, 45, 113
3, 83920, Note_on_c, 1, 56, 85
3, 83920, Note_on_c, 1, 44, 76
3, 83922, Note_on_c, 1, 57, 0
3, 83923, Note_on_c, 1, 45, 0
3, 83959, Control_c, 1, 64, 127
3, 83960, Note_on_c, 1, 45, 93
3, 83960, Note_on_c, 1, 57, 98
3, 83961, Note_on_c, 1, 56, 0
3, 83961, Note_on_c, 1, 44, 0
3, 83977, Note_on_c, 1, 57, 0
3, 83988, Note_on_c, 1, 45, 0
3, 83995, Control_c, 1, 64, 0
3, 84000, Note_on_c, 1, 54, 102
3, 84000, Note_on_c, 1, 62, 102
3, 84000, Note_on_c, 1, 59, 113
3, 84000, Note_on_c, 1, 38, 107
3, 84042, Control_c, 1, 64, 127
3, 84063, Note_on_c, 1, 59, 0
3, 84063, Note_on_c, 1, 54, 0
3, 84065, Note_on_c, 1, 62, 0
3, 84067, Note_on_c, 1, 38, 0
3, 84104, Control_c, 1, 64, 0
3, 84120, Note_on_c, 1, 54, 107
3, 84120, Note_on_c, 1, 59, 113
3, 84120, Note_on_c, 1, 62, 107
3, 84120, Note_on_c, 1, 38, 89
3, 84136, Control_c, 1, 64, 127
3, 84153, Note_on_c, 1, 38, 0
3, 84155, Note_on_c, 1, 54, 0
3, 84158, Note_on_c, 1, 62, 0
3, 84159, Note_on_c, 1, 59, 0
3, 84210, Note_on_c, 1, 54, 89
3, 84210, Note_on_c, 1, 62, 93
3, 84210, Note_on_c, 1, 59, 93
3, 84210, Note_on_c, 1, 38, 93
3, 84223, Control_c, 1, 64, 0
3, 84227, Note_on_c, 1, 62, 0
3, 84228, Note_on_c, 1, 54, 0
3, 84228, Note_on_c, 1, 59, 0
3, 84233, Note_on_c, 1, 38, 0
3, 84240, Note_on_c, 1, 57, 93
3, 84240, Note_on_c, 1, 52, 89
3, 84240, Note_on_c, 1, 61, 98
3, 84240, Note_on_c, 1, 40, 89
3, 84267, Control_c, 1, 64, 127
3, 84290, Note_on_c, 1, 61, 0
3, 84292, Note_on_c, 1, 52, 0
3, 84293, Note_on_c, 1, 57, 0
3, 84293, Note_on_c, 1, 40, 0
3, 84344, Control_c, 1, 64, 0
3, 84360, Note_on_c, 1, 52, 107
3, 84360, Note_on_c, 1, 61, 98
3, 84360, Note_on_c, 1, 57, 107
3, 84360, Note_on_c, 1, 40, 85
3, 84372, Control_c, 1, 64, 127
3, 84402, Note_on_c, 1, 40, 0
3, 84402, Note_on_c, 1, 52, 0
3, 84402, Note_on_c, 1, 61, 0
3, 84403, Note_on_c, 1, 57, 0
3, 84450, Note_on_c, 1, 52, 85
3, 84450, Note_on_c, 1, 57, 93
3, 84450, Note_on_c, 1, 61, 85
3, 84450, Note_on_c, 1, 40, 76
3, 84453, Control_c, 1, 64, 0
3, 84465, Note_on_c, 1, 57, 0
3, 84468, Note_on_c, 1, 40, 0
3, 84470, Note_on_c, 1, 61, 0
3, 84471, Note_on_c, 1, 52, 0
3, 84480, Note_on_c, 1, 59, 107
3, 84480, Note_on_c, 1, 52, 113
3, 84480, Note_on_c, 1, 56, 102
3, 84480, Note_on_c, 1, 40, 102
3, 84498, Control_c, 1, 64, 127
3, 84534, Note_on_c, 1, 59, 0
3, 84539, Note_on_c, 1, 52, 0
3, 84541, Note_on_c, 1, 56, 0
3, 84541, Note_on_c, 1, 40, 0
3, 84577, Control_c, 1, 64, 0
3, 84600, Note_on_c, 1, 56, 93
3, 84600, Note_on_c, 1, 59, 107
3, 84600, Note_on_c, 1, 52, 113
3, 84600, Note_on_c, 1, 40, 93
3, 84607, Control_c, 1, 64, 127
3, 84628, Note_on_c, 1, 40, 0
3, 84628, Note_on_c, 1, 59, 0
3, 84636, Note_on_c, 1, 56, 0
3, 84638, Note_on_c, 1, 52, 0
3, 84690, Note_on_c, 1, 40, 85
3, 84690, Note_on_c, 1, 52, 93
3, 84690, Note_on_c, 1, 56, 85
3, 84690, Note_on_c, 1, 59, 80
3, 84700, Note_on_c, 1, 59, 0
3, 84702, Note_on_c, 1, 56, 0
3, 84706, Note_on_c, 1, 52, 0
3, 84707, Control_c, 1, 64, 0
3, 84711, Note_on_c, 1, 40, 0
3, 84720, Note_on_c, 1, 57, 93
3, 84720, Note_on_c, 1, 49, 89
3, 84720, Note_on_c, 1, 45, 93
3, 84720, Note_on_c, 1, 52, 93
3, 84845, Note_on_c, 1, 49, 0
3, 84846, Note_on_c, 1, 52, 0
3, 84847, Note_on_c, 1, 45, 0
3, 84848, Note_on_c, 1, 57, 0
3, 84987, Control_c, 1, 64, 127
3, 85077, Control_c, 1, 64, 0
3, 85200, Note_on_c, 1, 40, 76
3, 85207, Control_c, 1, 64, 127
3, 85236, Note_on_c, 1, 40, 0
3, 85240, Note_on_c, 1, 45, 62
3, 85280, Note_on_c, 1, 49, 57
3, 85281, Note_on_c, 1, 45, 0
3, 85308, Note_on_c, 1, 49, 0
3, 85320, Note_on_c, 1, 40, 76
3, 85326, Control_c, 1, 64, 0
3, 85350, Control_c, 1, 64, 127
3, 85360, Note_on_c, 1, 45, 76
3, 85362, Note_on_c, 1, 40, 0
3, 85400, Note_on_c, 1, 45, 0
3, 85400, Note_on_c, 1, 49, 56
3, 85424, Note_on_c, 1, 49, 0
3, 85440, Note_on_c, 1, 40, 76
3, 85440, Note_on_c, 1, 61, 80
3, 85441, Control_c, 1, 64, 0
3, 85465, Control_c, 1, 64, 127
3, 85479, Note_on_c, 1, 40, 0
3, 85480, Note_on_c, 1, 45, 76
3, 85514, Note_on_c, 1, 45, 0
3, 85520, Note_on_c, 1, 49, 60
3, 85548, Note_on_c, 1, 49, 0
3, 85552, Control_c, 1, 64, 0
3, 85559, Note_on_c, 1, 61, 0
3, 85560, Note_on_c, 1, 40, 76
3, 85560, Note_on_c, 1, 62, 89
3, 85574, Note_on_c, 1, 62, 0
3, 85575, Note_on_c, 1, 61, 85
3, 85577, Control_c, 1, 64, 127
3, 85589, Note_on_c, 1, 61, 0
3, 85590, Note_on_c, 1, 62, 89
3, 85600, Note_on_c, 1, 45, 76
3, 85603, Note_on_c, 1, 40, 0
3, 85604, Note_on_c, 1, 62, 0
3, 85605, Note_on_c, 1, 61, 62
3, 85619, Note_on_c, 1, 61, 0
3, 85620, Note_on_c, 1, 62, 89
3, 85634, Note_on_c, 1, 62, 0
3, 85634, Note_on_c, 1, 45, 0
3, 85635, Note_on_c, 1, 61, 80
3, 85640, Note_on_c, 1, 49, 57
3, 85649, Note_on_c, 1, 61, 0
3, 85650, Note_on_c, 1, 59, 93
3, 85664, Note_on_c, 1, 59, 0
3, 85665, Note_on_c, 1, 61, 89
3, 85667, Note_on_c, 1, 49, 0
3, 85676, Control_c, 1, 64, 0
3, 85679, Note_on_c, 1, 61, 0
3, 85680, Note_on_c, 1, 40, 72
3, 85680, Note_on_c, 1, 62, 89
3, 85704, Control_c, 1, 64, 127
3, 85720, Note_on_c, 1, 44, 60
3, 85723, Note_on_c, 1, 40, 0
3, 85757, Note_on_c, 1, 44, 0
3, 85760, Note_on_c, 1, 47, 72
3, 85789, Note_on_c, 1, 47, 0
3, 85792, Control_c, 1, 64, 0
3, 85799, Note_on_c, 1, 62, 0
3, 85800, Note_on_c, 1, 40, 72
3, 85800, Note_on_c, 1, 59, 89
3, 85816, Control_c, 1, 64, 127
3, 85840, Note_on_c, 1, 44, 72
3, 85850, Note_on_c, 1, 40, 0
3, 85859, Note_on_c, 1, 59, 0
3, 85876, Note_on_c, 1, 44, 0
3, 85880, Note_on_c, 1, 47, 59
3, 85911, Note_on_c, 1, 47, 0
3, 85911, Control_c, 1, 64, 0
3, 85920, Note_on_c, 1, 40, 80
3, 85920, Note_on_c, 1, 68, 89
3, 85938, Control_c, 1, 64, 127
3, 85960, Note_on_c, 1, 47, 64
3, 85966, Note_on_c, 1, 40, 0
3, 86000, Note_on_c, 1, 50, 76
3, 86001, Note_on_c, 1, 47, 0
3, 86030, Note_on_c, 1, 50, 0
3, 86036, Control_c, 1, 64, 0
3, 86039, Note_on_c, 1, 68, 0
3, 86040, Note_on_c, 1, 40, 85
3, 86040, Note_on_c, 1, 69, 89
3, 86054, Note_on_c, 1, 69, 0
3, 86055, Note_on_c, 1, 68, 85
3, 86060, Control_c, 1, 64, 127
3, 86069, Note_on_c, 1, 68, 0
3, 86070, Note_on_c, 1, 69, 89
3, 86080, Note_on_c, 1, 47, 76
3, 86084, Note_on_c, 1, 69, 0
3, 86085, Note_on_c, 1, 68, 93
3, 86089, Note_on_c, 1, 40, 0
3, 86099, Note_on_c, 1, 68, 0
3, 86100, Note_on_c, 1, 69, 80
3, 86114, Note_on_c, 1, 69, 0
3, 86115, Note_on_c, 1, 68, 93
3, 86120, Note_on_c, 1, 50, 76
3, 86121, Note_on_c, 1, 47, 0
3, 86129, Note_on_c, 1, 68, 0
3, 86130, Note_on_c, 1, 66, 85
3, 86144, Note_on_c, 1, 66, 0
3, 86145, Note_on_c, 1, 68, 98
3, 86146, Note_on_c, 1, 50, 0
3, 86146, Control_c, 1, 64, 0
3, 86159, Note_on_c, 1, 68, 0
3, 86160, Note_on_c, 1, 40, 80
3, 86160, Note_on_c, 1, 69, 93
3, 86173, Control_c, 1, 64, 127
3, 86200, Note_on_c, 1, 45, 76
3, 86201, Note_on_c, 1, 40, 0
3, 86231, Note_on_c, 1, 45, 0
3, 86240, Note_on_c, 1, 49, 57
3, 86270, Note_on_c, 1, 49, 0
3, 86273, Control_c, 1, 64, 0
3, 86279, Note_on_c, 1, 69, 0
3, 86280, Note_on_c, 1, 40, 76
3, 86280, Note_on_c, 1, 64, 80
3, 86299, Control_c, 1, 64, 127
3, 86320, Note_on_c, 1, 45, 76
3, 86321, Note_on_c, 1, 40, 0
3, 86339, Note_on_c, 1, 64, 0
3, 86358, Note_on_c, 1, 45, 0
3, 86360, Note_on_c, 1, 49, 59
3, 86390, Note_on_c, 1, 49, 0
3, 86393, Control_c, 1, 64, 0
3, 86400, Note_on_c, 1, 40, 85
3, 86400, Note_on_c, 1, 73, 102
3, 86420, Control_c, 1, 64, 127
3, 86438, Note_on_c, 1, 40, 0
3, 86440, Note_on_c, 1, 45, 62
3, 86475, Note_on_c, 1, 45, 0
3, 86480, Note_on_c, 1, 49, 59
3, 86513, Note_on_c, 1, 49, 0
3, 86514, Control_c, 1, 64, 0
3, 86519, Note_on_c, 1, 73, 0
3, 86520, Note_on_c, 1, 40, 89
3, 86520, Note_on_c, 1, 74, 80
3, 86534, Note_on_c, 1, 74, 0
3, 86535, Note_on_c, 1, 73, 89
3, 86539, Control_c, 1, 64, 127
3, 86549, Note_on_c, 1, 73, 0
3, 86550, Note_on_c, 1, 74, 89
3, 86557, Note_on_c, 1, 40, 0
3, 86560, Note_on_c, 1, 45, 64
3, 86564, Note_on_c, 1, 74, 0
3, 86565, Note_on_c, 1, 73, 89
3, 86579, Note_on_c, 1, 73, 0
3, 86580, Note_on_c, 1, 74, 89
3, 86593, Note_on_c, 1, 45, 0
3, 86594, Note_on_c, 1, 74, 0
3, 86595, Note_on_c, 1, 73, 98
3, 86600, Note_on_c, 1, 49, 59
3, 86609, Note_on_c, 1, 73, 0
3, 86610, Note_on_c, 1, 71, 80
3, 86624, Note_on_c, 1, 71, 0
3, 86625, Note_on_c, 1, 73, 89
3, 86627, Note_on_c, 1, 49, 0
3, 86638, Control_c, 1, 64, 0
3, 86639, Note_on_c, 1, 73, 0
3, 86640, Note_on_c, 1, 40, 85
3, 86640, Note_on_c, 1, 74, 89
3, 86665, Control_c, 1, 64, 127
3, 86680, Note_on_c, 1, 40, 0
3, 86680, Note_on_c, 1, 44, 62
3, 86720, Note_on_c, 1, 44, 0
3, 86720, Note_on_c, 1, 47, 68
3, 86752, Note_on_c, 1, 47, 0
3, 86756, Control_c, 1, 64, 0
3, 86759, Note_on_c, 1, 74, 0
3, 86760, Note_on_c, 1, 40, 80
3, 86760, Note_on_c, 1, 71, 89
3, 86781, Control_c, 1, 64, 127
3, 86800, Note_on_c, 1, 44, 64
3, 86801, Note_on_c, 1, 40, 0
3, 86819, Note_on_c, 1, 71, 0
3, 86840, Note_on_c, 1, 44, 0
3, 86840, Note_on_c, 1, 47, 76
3, 86864, Note_on_c, 1, 47, 0
3, 86873, Control_c, 1, 64, 0
3, 86880, Note_on_c, 1, 40, 89
3, 86880, Note_on_c, 1, 68, 93
3, 86903, Control_c, 1, 64, 127
3, 86920, Note_on_c, 1, 47, 76
3, 86933, Note_on_c, 1, 40, 0
3, 86960, Note_on_c, 1, 47, 0
3, 86960, Note_on_c, 1, 50, 72
3, 86990, Control_c, 1, 64, 0
3, 86994, Note_on_c, 1, 50, 0
3, 86999, Note_on_c, 1, 68, 0
3, 87000, Note_on_c, 1, 40, 89
3, 87000, Note_on_c, 1, 69, 89
3, 87014, Note_on_c, 1, 69, 0
3, 87015, Note_on_c, 1, 68, 93
3, 87016, Control_c, 1, 64, 127
3, 87029, Note_on_c, 1, 68, 0
3, 87030, Note_on_c, 1, 69, 93
3, 87040, Note_on_c, 1, 47, 76
3, 87044, Note_on_c, 1, 69, 0
3, 87045, Note_on_c, 1, 68, 80
3, 87050, Note_on_c, 1, 40, 0
3, 87059, Note_on_c, 1, 68, 0
3, 87060, Note_on_c, 1, 69, 89
3, 87074, Note_on_c, 1, 69, 0
3, 87075, Note_on_c, 1, 68, 93
3, 87080, Note_on_c, 1, 50, 76
3, 87081, Note_on_c, 1, 47, 0
3, 87089, Note_on_c, 1, 68, 0
3, 87090, Note_on_c, 1, 66, 89
3, 87104, Note_on_c, 1, 66, 0
3, 87105, Note_on_c, 1, 68, 93
3, 87108, Note_on_c, 1, 50, 0
3, 87115, Control_c, 1, 64, 0
3, 87119, Note_on_c, 1, 68, 0
3, 87120, Note_on_c, 1, 40, 89
3, 87120, Note_on_c, 1, 69, 93
3, 87141, Control_c, 1, 64, 127
3, 87160, Note_on_c, 1, 45, 72
3, 87166, Note_on_c, 1, 40, 0
3, 87196, Note_on_c, 1, 45, 0
3, 87200, Note_on_c, 1, 49, 55
3, 87220, Control_c, 1, 64, 0
3, 87229, Note_on_c, 1, 49, 0
3, 87239, Note_on_c, 1, 69, 0
3, 87240, Note_on_c, 1, 40, 80
3, 87240, Note_on_c, 1, 64, 89
3, 87245, Control_c, 1, 64, 127
3, 87279, Note_on_c, 1, 40, 0
3, 87280, Note_on_c, 1, 45, 72
3, 87299, Note_on_c, 1, 64, 0
3, 87317, Note_on_c, 1, 45, 0
3, 87320, Note_on_c, 1, 49, 62
3, 87345, Note_on_c, 1, 49, 0
3, 87354, Control_c, 1, 64, 0
3, 88320, Note_on_c, 1, 54, 102
3, 88320, Note_on_c, 1, 59, 107
3, 88320, Note_on_c, 1, 62, 102
3, 88320, Note_on_c, 1, 38, 102
3, 88321, Control_c, 1, 64, 127
3, 88371, Note_on_c, 1, 59, 0
3, 88373, Note_on_c, 1, 62, 0
3, 88375, Note_on_c, 1, 38, 0
3, 88376, Note_on_c, 1, 54, 0
3, 88428, Control_c, 1, 64, 0
3, 88440, Note_on_c, 1, 54, 107
3, 88440, Note_on_c, 1, 62, 107
3, 88440, Note_on_c, 1, 59, 107
3, 88440, Note_on_c, 1, 38, 102
3, 88456, Control_c, 1, 64, 127
3, 88468, Note_on_c, 1, 59, 0
3, 88473, Note_on_c, 1, 38, 0
3, 88475, Note_on_c, 1, 62, 0
3, 88477, Note_on_c, 1, 54, 0
3, 88530, Note_on_c, 1, 62, 89
3, 88530, Note_on_c, 1, 54, 89
3, 88530, Note_on_c, 1, 59, 98
3, 88530, Note_on_c, 1, 38, 98
3, 88547, Note_on_c, 1, 62, 0
3, 88550, Control_c, 1, 64, 0
3, 88551, Note_on_c, 1, 54, 0
3, 88552, Note_on_c, 1, 59, 0
3, 88558, Note_on_c, 1, 38, 0
3, 88560, Note_on_c, 1, 57, 98
3, 88560, Note_on_c, 1, 40, 93
3, 88560, Note_on_c, 1, 52, 107
3, 88560, Note_on_c, 1, 61, 102
3, 88594, Control_c, 1, 64, 127
3, 88623, Note_on_c, 1, 61, 0
3, 88625, Note_on_c, 1, 52, 0
3, 88627, Note_on_c, 1, 40, 0
3, 88629, Note_on_c, 1, 57, 0
3, 88663, Control_c, 1, 64, 0
3, 88680, Note_on_c, 1, 52, 107
3, 88680, Note_on_c, 1, 61, 98
3, 88680, Note_on_c, 1, 57, 107
3, 88680, Note_on_c, 1, 40, 85
3, 88691, Control_c, 1, 64, 127
3, 88725, Note_on_c, 1, 61, 0
3, 88726, Note_on_c, 1, 40, 0
3, 88729, Note_on_c, 1, 57, 0
3, 88729, Note_on_c, 1, 52, 0
3, 88770, Note_on_c, 1, 52, 85
3, 88770, Note_on_c, 1, 57, 93
3, 88770, Note_on_c, 1, 61, 76
3, 88770, Note_on_c, 1, 40, 89
3, 88783, Control_c, 1, 64, 0
3, 88787, Note_on_c, 1, 57, 0
3, 88790, Note_on_c, 1, 52, 0
3, 88791, Note_on_c, 1, 61, 0
3, 88794, Note_on_c, 1, 40, 0
3, 88800, Note_on_c, 1, 52, 107
3, 88800, Note_on_c, 1, 59, 113
3, 88800, Note_on_c, 1, 56, 113
3, 88800, Note_on_c, 1, 40, 93
3, 88825, Control_c, 1, 64, 127
3, 88848, Note_on_c, 1, 59, 0
3, 88853, Note_on_c, 1, 56, 0
3, 88858, Note_on_c, 1, 40, 0
3, 88860, Note_on_c, 1, 52, 0
3, 88907, Control_c, 1, 64, 0
3, 88920, Note_on_c, 1, 52, 107
3, 88920, Note_on_c, 1, 59, 113
3, 88920, Note_on_c, 1, 56, 113
3, 88920, Note_on_c, 1, 40, 93
3, 88938, Control_c, 1, 64, 127
3, 88961, Note_on_c, 1, 56, 0
3, 88962, Note_on_c, 1, 59, 0
3, 88963, Note_on_c, 1, 40, 0
3, 88968, Note_on_c, 1, 52, 0
3, 89010, Note_on_c, 1, 40, 89
3, 89010, Note_on_c, 1, 52, 89
3, 89010, Note_on_c, 1, 56, 76
3, 89010, Note_on_c, 1, 59, 72
3, 89020, Control_c, 1, 64, 0
3, 89023, Note_on_c, 1, 59, 0
3, 89024, Note_on_c, 1, 52, 0
3, 89030, Note_on_c, 1, 56, 0
3, 89034, Note_on_c, 1, 40, 0
3, 89040, Note_on_c, 1, 57, 93
3, 89040, Note_on_c, 1, 52, 98
3, 89040, Note_on_c, 1, 49, 113
3, 89040, Note_on_c, 1, 33, 107
3, 89056, Control_c, 1, 64, 127
3, 89157, Note_on_c, 1, 33, 0
3, 89157, Note_on_c, 1, 49, 0
3, 89158, Control_c, 1, 64, 0
3, 89160, Note_on_c, 1, 52, 0
3, 89160, Note_on_c, 1, 57, 0
3, 89640, Note_on_c, 1, 38, 93
3, 89640, Note_on_c, 1, 59, 85
3, 89658, Control_c, 1, 64, 127
3, 89676, Note_on_c, 1, 59, 0
3, 89680, Note_on_c, 1, 61, 76
3, 89714, Note_on_c, 1, 61, 0
3, 89720, Note_on_c, 1, 62, 72
3, 89749, Control_c, 1, 64, 0
3, 89752, Note_on_c, 1, 38, 0
3, 89754, Note_on_c, 1, 62, 0
3, 89760, Note_on_c, 1, 61, 76
3, 89760, Note_on_c, 1, 40, 80
3, 89792, Control_c, 1, 64, 127
3, 89800, Note_on_c, 1, 61, 0
3, 89800, Note_on_c, 1, 59, 89
3, 89837, Note_on_c, 1, 59, 0
3, 89840, Note_on_c, 1, 57, 89
3, 89857, Note_on_c, 1, 40, 0
3, 89865, Note_on_c, 1, 57, 0
3, 89868, Control_c, 1, 64, 0
3, 89880, Note_on_c, 1, 56, 89
3, 89880, Note_on_c, 1, 40, 80
3, 89901, Control_c, 1, 64, 127
3, 89918, Note_on_c, 1, 56, 0
3, 89920, Note_on_c, 1, 57, 89
3, 89954, Note_on_c, 1, 57, 0
3, 89960, Note_on_c, 1, 59, 76
3, 89981, Control_c, 1, 64, 0
3, 89985, Note_on_c, 1, 40, 0
3, 89992, Note_on_c, 1, 59, 0
3, 90000, Note_on_c, 1, 57, 93
3, 90000, Note_on_c, 1, 45, 89
3, 90010, Control_c, 1, 64, 127
3, 90055, Note_on_c, 1, 45, 0
3, 90058, Note_on_c, 1, 57, 0
3, 90108, Control_c, 1, 64, 0
3, 90600, Note_on_c, 1, 38, 93
3, 90600, Note_on_c, 1, 59, 107
3, 90615, Control_c, 1, 64, 127
3, 90633, Note_on_c, 1, 59, 0
3, 90640, Note_on_c, 1, 61, 93
3, 90666, Note_on_c, 1, 61, 0
3, 90680, Note_on_c, 1, 62, 93
3, 90705, Note_on_c, 1, 62, 0
3, 90712, Note_on_c, 1, 38, 0
3, 90716, Control_c, 1, 64, 0
3, 90720, Note_on_c, 1, 61, 113
3, 90720, Note_on_c, 1, 40, 89
3, 90753, Control_c, 1, 64, 127
3, 90756, Note_on_c, 1, 61, 0
3, 90760, Note_on_c, 1, 59, 89
3, 90798, Note_on_c, 1, 59, 0
3, 90800, Note_on_c, 1, 57, 93
3, 90811, Note_on_c, 1, 40, 0
3, 90819, Note_on_c, 1, 57, 0
3, 90829, Control_c, 1, 64, 0
3, 90840, Note_on_c, 1, 56, 102
3, 90840, Note_on_c, 1, 40, 89
3, 90863, Control_c, 1, 64, 127
3, 90871, Note_on_c, 1, 56, 0
3, 90880, Note_on_c, 1, 57, 93
3, 90888, Note_on_c, 1, 40, 0
3, 90913, Note_on_c, 1, 57, 0
3, 90920, Note_on_c, 1, 59, 76
3, 90939, Note_on_c, 1, 59, 0
3, 90950, Control_c, 1, 64, 0
3, 90960, Note_on_c, 1, 45, 89
3, 90960, Note_on_c, 1, 57, 113
3, 90984, Control_c, 1, 64, 127
3, 90989, Note_on_c, 1, 57, 0
3, 91000, Note_on_c, 1, 47, 89
3, 91000, Note_on_c, 1, 59, 93
3, 91002, Note_on_c, 1, 45, 0
3, 91026, Note_on_c, 1, 59, 0
3, 91039, Note_on_c, 1, 47, 0
3, 91039, Control_c, 1, 64, 0
3, 91040, Note_on_c, 1, 49, 72
3, 91040, Note_on_c, 1, 61, 102
3, 91064, Note_on_c, 1, 61, 0
3, 91076, Note_on_c, 1, 49, 0
3, 91080, Note_on_c, 1, 62, 93
3, 91080, Note_on_c, 1, 50, 89
3, 91083, Control_c, 1, 64, 127
3, 91120, Note_on_c, 1, 62, 0
3, 91120, Note_on_c, 1, 61, 89
3, 91120, Note_on_c, 1, 49, 76
3, 91127, Note_on_c, 1, 50, 0
3, 91152, Note_on_c, 1, 61, 0
3, 91153, Control_c, 1, 64, 0
3, 91160, Note_on_c, 1, 49, 0
3, 91160, Note_on_c, 1, 59, 93
3, 91160, Note_on_c, 1, 47, 85
3, 91191, Note_on_c, 1, 47, 0
3, 91193, Note_on_c, 1, 59, 0
3, 91200, Note_on_c, 1, 45, 89
3, 91200, Note_on_c, 1, 57, 113
3, 91200, Control_c, 1, 64, 127
3, 91227, Control_c, 1, 64, 0
3, 91240, Note_on_c, 1, 47, 80
3, 91240, Note_on_c, 1, 59, 98
3, 91244, Note_on_c, 1, 57, 0
3, 91246, Note_on_c, 1, 45, 0
3, 91279, Note_on_c, 1, 59, 0
3, 91280, Note_on_c, 1, 61, 98
3, 91280, Note_on_c, 1, 49, 89
3, 91290, Note_on_c, 1, 47, 0
3, 91311, Note_on_c, 1, 61, 0
3, 91320, Note_on_c, 1, 62, 89
3, 91320, Note_on_c, 1, 50, 93
3, 91321, Note_on_c, 1, 49, 0
3, 91323, Control_c, 1, 64, 127
3, 91343, Control_c, 1, 64, 0
3, 91359, Note_on_c, 1, 62, 0
3, 91360, Note_on_c, 1, 49, 76
3, 91360, Note_on_c, 1, 61, 102
3, 91364, Note_on_c, 1, 50, 0
3, 91397, Note_on_c, 1, 61, 0
3, 91400, Note_on_c, 1, 59, 93
3, 91400, Note_on_c, 1, 47, 93
3, 91405, Note_on_c, 1, 49, 0
3, 91428, Note_on_c, 1, 47, 0
3, 91431, Note_on_c, 1, 59, 0
3, 91440, Note_on_c, 1, 57, 113
3, 91440, Note_on_c, 1, 45, 102
3, 91443, Control_c, 1, 64, 127
3, 91478, Note_on_c, 1, 57, 0
3, 91482, Note_on_c, 1, 45, 0
3, 91535, Control_c, 1, 64, 0
3, 91560, Note_on_c, 1, 45, 107
3, 91560, Note_on_c, 1, 57, 113
3, 91560, Note_on_c, 1, 61, 113
3, 91560, Note_on_c, 1, 64, 107
3, 91574, Control_c, 1, 64, 127
3, 91605, Note_on_c, 1, 57, 0
3, 91606, Note_on_c, 1, 64, 0
3, 91606, Note_on_c, 1, 61, 0
3, 91611, Note_on_c, 1, 45, 0
3, 91659, Control_c, 1, 64, 0
3, 91680, Note_on_c, 1, 45, 107
3, 91680, Note_on_c, 1, 57, 113
3, 91680, Note_on_c, 1, 61, 119
3, 91680, Note_on_c, 1, 64, 113
3, 91689, Control_c, 1, 64, 127
3, 91700, Note_on_c, 1, 57, 0
3, 91701, Note_on_c, 1, 45, 0
3, 91703, Note_on_c, 1, 61, 0
3, 91703, Note_on_c, 1, 64, 0
3, 91813, Control_c, 1, 64, 0
3, 91920, Note_on_c, 1, 45, 107
3, 91920, Note_on_c, 1, 33, 98
3, 91934, Control_c, 1, 64, 127
3, 92046, Note_on_c, 1, 33, 0
3, 92047, Control_c, 1, 64, 0
3, 92048, Note_on_c, 1, 45, 0
3, 92400, Note_on_c, 1, 45, 113
3, 92400, Note_on_c, 1, 33, 98
3, 92403, Control_c, 1, 64, 127
3, 92521, Control_c, 1, 64, 0
3, 92530, Note_on_c, 1, 45, 0
3, 92534, Note_on_c, 1, 33, 0
3, 92880, Note_on_c, 1, 45, 107
3, 92880, Note_on_c, 1, 33, 98
3, 92884, Control_c, 1, 64, 127
3, 93008, Note_on_c, 1, 33, 0
3, 93008, Note_on_c, 1, 45, 0
3, 93011, Control_c, 1, 64, 0
3, 93600, Note_on_c, 1, 57, 98
3, 93600, Note_on_c, 1, 45, 89
3, 93608, Control_c, 1, 64, 127
3, 93622, Control_c, 1, 64, 0
3, 93640, Note_on_c, 1, 59, 93
3, 93640, Note_on_c, 1, 47, 89
3, 93643, Note_on_c, 1, 57, 0
3, 93648, Note_on_c, 1, 45, 0
3, 93677, Note_on_c, 1, 59, 0
3, 93680, Note_on_c, 1, 49, 72
3, 93680, Note_on_c, 1, 61, 85
3, 93685, Note_on_c, 1, 47, 0
3, 93712, Note_on_c, 1, 61, 0
3, 93720, Note_on_c, 1, 49, 0
3, 93720, Note_on_c, 1, 62, 93
3, 93720, Note_on_c, 1, 50, 85
3, 93760, Note_on_c, 1, 49, 72
3, 93760, Note_on_c, 1, 61, 93
3, 93765, Note_on_c, 1, 50, 0
3, 93765, Note_on_c, 1, 62, 0
3, 93796, Note_on_c, 1, 49, 0
3, 93798, Note_on_c, 1, 61, 0
3, 93800, Note_on_c, 1, 47, 85
3, 93800, Note_on_c, 1, 59, 98
3, 93822, Note_on_c, 1, 47, 0
3, 93838, Note_on_c, 1, 59, 0
3, 93840, Note_on_c, 1, 45, 89
3, 93840, Note_on_c, 1, 57, 98
3, 93840, Note_on_c, 1, 33, 107
3, 93903, Control_c, 1, 64, 127
3, 93933, Note_on_c, 1, 57, 0
3, 93951, Control_c, 1, 64, 0
3, 93960, Note_on_c, 1, 57, 102
3, 93960, Note_on_c, 1, 54, 98
3, 93976, Control_c, 1, 64, 127
3, 94018, Note_on_c, 1, 33, 0
3, 94019, Note_on_c, 1, 45, 0
3, 94026, Note_on_c, 1, 57, 0
3, 94033, Note_on_c, 1, 54, 0
3, 94045, Control_c, 1, 64, 0
3, 94080, Note_on_c, 1, 51, 89
3, 94080, Note_on_c, 1, 54, 93
3, 94095, Control_c, 1, 64, 127
3, 94153, Note_on_c, 1, 51, 0
3, 94159, Note_on_c, 1, 54, 0
3, 94191, Control_c, 1, 64, 0
3, 94200, Note_on_c, 1, 52, 98
3, 94200, Note_on_c, 1, 55, 98
3, 94224, Control_c, 1, 64, 127
3, 94312, Note_on_c, 1, 55, 0
3, 94314, Note_on_c, 1, 52, 0
3, 94317, Control_c, 1, 64, 0
3, 94320, Note_on_c, 1, 45, 93
3, 94320, Note_on_c, 1, 33, 102
3, 94360, Control_c, 1, 64, 127
3, 94440, Note_on_c, 1, 55, 102
3, 94440, Note_on_c, 1, 52, 98
3, 94443, Control_c, 1, 64, 0
3, 94459, Note_on_c, 1, 45, 0
3, 94460, Note_on_c, 1, 33, 0
3, 94469, Control_c, 1, 64, 127
3, 94541, Note_on_c, 1, 52, 0
3, 94547, Note_on_c, 1, 55, 0
3, 94554, Control_c, 1, 64, 0
3, 94560, Note_on_c, 1, 49, 85
3, 94560, Note_on_c, 1, 52, 98
3, 94585, Control_c, 1, 64, 127
3, 94624, Note_on_c, 1, 49, 0
3, 94636, Note_on_c, 1, 52, 0
3, 94673, Control_c, 1, 64, 0
3, 94680, Note_on_c, 1, 54, 80
3, 94680, Note_on_c, 1, 50, 98
3, 94701, Control_c, 1, 64, 127
3, 94766, Note_on_c, 1, 50, 0
3, 94771, Note_on_c, 1, 54, 0
3, 94795, Control_c, 1, 64, 0
3, 94800, Note_on_c, 1, 33, 93
3, 94800, Note_on_c, 1, 45, 93
3, 94821, Control_c, 1, 64, 127
3, 94830, Note_on_c, 1, 33, 0
3, 94840, Note_on_c, 1, 45, 0
3, 94910, Control_c, 1, 64, 0
3, 94920, Note_on_c, 1, 54, 89
3, 94920, Note_on_c, 1, 62, 107
3, 94942, Control_c, 1, 64, 127
3, 94945, Control_c, 1, 64, 0
3, 94956, Note_on_c, 1, 62, 0
3, 94960, Note_on_c, 1, 64, 80
3, 94960, Note_on_c, 1, 55, 76
3, 94963, Note_on_c, 1, 54, 0
3, 94999, Note_on_c, 1, 64, 0
3, 95000, Note_on_c, 1, 62, 89
3, 95000, Note_on_c, 1, 54, 85
3, 95003, Note_on_c, 1, 55, 0
3, 95035, Note_on_c, 1, 54, 0
3, 95040, Note_on_c, 1, 52, 89
3, 95040, Note_on_c, 1, 61, 98
3, 95043, Note_on_c, 1, 62, 0
3, 95076, Note_on_c, 1, 61, 0
3, 95080, Note_on_c, 1, 54, 76
3, 95080, Note_on_c, 1, 62, 89
3, 95081, Note_on_c, 1, 52, 0
3, 95120, Note_on_c, 1, 61, 89
3, 95120, Note_on_c, 1, 52, 76
3, 95122, Note_on_c, 1, 62, 0
3, 95122, Control_c, 1, 64, 127
3, 95126, Note_on_c, 1, 54, 0
3, 95140, Control_c, 1, 64, 0
3, 95153, Note_on_c, 1, 52, 0
3, 95157, Note_on_c, 1, 61, 0
3, 95160, Note_on_c, 1, 50, 93
3, 95160, Note_on_c, 1, 59, 93
3, 95192, Control_c, 1, 64, 127
3, 95194, Note_on_c, 1, 59, 0
3, 95199, Note_on_c, 1, 50, 0
3, 95200, Note_on_c, 1, 52, 89
3, 95200, Note_on_c, 1, 61, 89
3, 95238, Note_on_c, 1, 61, 0
3, 95240, Note_on_c, 1, 59, 98
3, 95240, Note_on_c, 1, 50, 85
3, 95241, Note_on_c, 1, 52, 0
3, 95256, Control_c, 1, 64, 0
3, 95275, Note_on_c, 1, 50, 0
3, 95280, Note_on_c, 1, 59, 0
3, 95280, Note_on_c, 1, 49, 76
3, 95280, Note_on_c, 1, 57, 102
3, 95293, Control_c, 1, 64, 127
3, 95313, Note_on_c, 1, 57, 0
3, 95320, Note_on_c, 1, 59, 93
3, 95320, Note_on_c, 1, 50, 89
3, 95321, Note_on_c, 1, 49, 0
3, 95358, Note_on_c, 1, 50, 0
3, 95359, Note_on_c, 1, 59, 0
3, 95360, Note_on_c, 1, 57, 93
3, 95360, Note_on_c, 1, 49, 80
3, 95374, Control_c, 1, 64, 0
3, 95390, Note_on_c, 1, 57, 0
3, 95397, Note_on_c, 1, 49, 0
3, 95400, Note_on_c, 1, 47, 89
3, 95400, Note_on_c, 1, 56, 80
3, 95414, Control_c, 1, 64, 127
3, 95433, Note_on_c, 1, 56, 0
3, 95440, Note_on_c, 1, 57, 89
3, 95440, Note_on_c, 1, 49, 89
3, 95445, Note_on_c, 1, 47, 0
3, 95472, Note_on_c, 1, 49, 0
3, 95479, Note_on_c, 1, 57, 0
3, 95480, Note_on_c, 1, 47, 89
3, 95480, Note_on_c, 1, 56, 102
3, 95490, Control_c, 1, 64, 0
3, 95512, Note_on_c, 1, 56, 0
3, 95516, Note_on_c, 1, 47, 0
3, 95520, Note_on_c, 1, 57, 93
3, 95520, Note_on_c, 1, 45, 93
3, 95525, Control_c, 1, 64, 127
3, 95631, Control_c, 1, 64, 0
3, 95639, Note_on_c, 1, 57, 0
3, 95640, Note_on_c, 1, 45, 0
3, 96120, Note_on_c, 1, 38, 89
3, 96120, Note_on_c, 1, 50, 107
3, 96125, Control_c, 1, 64, 127
3, 96157, Note_on_c, 1, 50, 0
3, 96160, Note_on_c, 1, 42, 68
3, 96160, Note_on_c, 1, 54, 85
3, 96167, Note_on_c, 1, 38, 0
3, 96188, Note_on_c, 1, 54, 0
3, 96200, Note_on_c, 1, 45, 89
3, 96200, Note_on_c, 1, 57, 102
3, 96205, Note_on_c, 1, 42, 0
3, 96223, Control_c, 1, 64, 0
3, 96231, Note_on_c, 1, 57, 0
3, 96240, Note_on_c, 1, 62, 102
3, 96240, Note_on_c, 1, 50, 85
3, 96241, Note_on_c, 1, 45, 0
3, 96254, Control_c, 1, 64, 127
3, 96280, Note_on_c, 1, 57, 89
3, 96280, Note_on_c, 1, 45, 89
3, 96281, Note_on_c, 1, 62, 0
3, 96282, Note_on_c, 1, 50, 0
3, 96319, Note_on_c, 1, 57, 0
3, 96320, Note_on_c, 1, 54, 76
3, 96320, Note_on_c, 1, 42, 76
3, 96322, Note_on_c, 1, 45, 0
3, 96352, Control_c, 1, 64, 0
3, 96358, Note_on_c, 1, 42, 0
3, 96360, Note_on_c, 1, 54, 0
3, 96360, Note_on_c, 1, 38, 93
3, 96360, Note_on_c, 1, 50, 98
3, 96382, Control_c, 1, 64, 127
3, 96397, Note_on_c, 1, 50, 0
3, 96400, Note_on_c, 1, 42, 72
3, 96400, Note_on_c, 1, 54, 89
3, 96402, Note_on_c, 1, 38, 0
3, 96435, Note_on_c, 1, 54, 0
3, 96436, Note_on_c, 1, 42, 0
3, 96440, Note_on_c, 1, 38, 89
3, 96440, Note_on_c, 1, 50, 93
3, 96464, Control_c, 1, 64, 0
3, 96468, Note_on_c, 1, 50, 0
3, 96479, Note_on_c, 1, 38, 0
3, 96480, Note_on_c, 1, 57, 107
3, 96480, Note_on_c, 1, 45, 102
3, 96499, Control_c, 1, 64, 127
3, 96564, Note_on_c, 1, 45, 0
3, 96565, Note_on_c, 1, 57, 0
3, 96584, Control_c, 1, 64, 0
3, 97080, Note_on_c, 1, 38, 98
3, 97080, Note_on_c, 1, 50, 113
3, 97086, Control_c, 1, 64, 127
3, 97115, Note_on_c, 1, 50, 0
3, 97120, Note_on_c, 1, 42, 72
3, 97120, Note_on_c, 1, 54, 89
3, 97128, Note_on_c, 1, 38, 0
3, 97152, Note_on_c, 1, 54, 0
3, 97160, Note_on_c, 1, 45, 85
3, 97160, Note_on_c, 1, 57, 98
3, 97165, Note_on_c, 1, 42, 0
3, 97171, Control_c, 1, 64, 0
3, 97197, Note_on_c, 1, 57, 0
3, 97200, Note_on_c, 1, 62, 93
3, 97200, Note_on_c, 1, 50, 89
3, 97204, Note_on_c, 1, 45, 0
3, 97209, Control_c, 1, 64, 127
3, 97237, Note_on_c, 1, 62, 0
3, 97240, Note_on_c, 1, 57, 89
3, 97240, Note_on_c, 1, 45, 80
3, 97242, Note_on_c, 1, 50, 0
3, 97278, Note_on_c, 1, 57, 0
3, 97280, Note_on_c, 1, 54, 80
3, 97280, Note_on_c, 1, 42, 68
3, 97281, Note_on_c, 1, 45, 0
3, 97304, Control_c, 1, 64, 0
3, 97316, Note_on_c, 1, 42, 0
3, 97318, Note_on_c, 1, 54, 0
3, 97320, Note_on_c, 1, 38, 93
3, 97320, Note_on_c, 1, 50, 102
3, 97336, Control_c, 1, 64, 127
3, 97354, Note_on_c, 1, 50, 0
3, 97360, Note_on_c, 1, 54, 85
3, 97360, Note_on_c, 1, 42, 76
3, 97364, Note_on_c, 1, 38, 0
3, 97397, Note_on_c, 1, 54, 0
3, 97398, Note_on_c, 1, 42, 0
3, 97400, Note_on_c, 1, 38, 89
3, 97400, Note_on_c, 1, 50, 98
3, 97425, Control_c, 1, 64, 0
3, 97430, Note_on_c, 1, 50, 0
3, 97438, Note_on_c, 1, 38, 0
3, 97440, Note_on_c, 1, 57, 102
3, 97440, Note_on_c, 1, 45, 93
3, 97458, Control_c, 1, 64, 127
3, 97537, Note_on_c, 1, 45, 0
3, 97541, Note_on_c, 1, 57, 0
3, 97552, Control_c, 1, 64, 0
3, 97680, Note_on_c, 1, 44, 93
3, 97680, Note_on_c, 1, 56, 107
3, 97700, Note_on_c, 1, 56, 0
3, 97701, Note_on_c, 1, 44, 0
3, 97710, Note_on_c, 1, 45, 93
3, 97710, Note_on_c, 1, 57, 93
3, 97825, Note_on_c, 1, 57, 0
3, 97827, Note_on_c, 1, 45, 0
3, 97920, Note_on_c, 1, 44, 85
3, 97920, Note_on_c, 1, 56, 93
3, 97930, Control_c, 1, 64, 127
3, 97942, Note_on_c, 1, 56, 0
3, 97948, Note_on_c, 1, 44, 0
3, 97950, Note_on_c, 1, 57, 76
3, 97950, Note_on_c, 1, 45, 62
3, 97954, Control_c, 1, 64, 0
3, 98053, Note_on_c, 1, 45, 0
3, 98057, Note_on_c, 1, 57, 0
3, 98160, Note_on_c, 1, 44, 76
3, 98160, Note_on_c, 1, 56, 93
3, 98161, Control_c, 1, 64, 127
3, 98181, Note_on_c, 1, 56, 0
3, 98182, Control_c, 1, 64, 0
3, 98186, Note_on_c, 1, 44, 0
3, 98190, Note_on_c, 1, 57, 80
3, 98190, Note_on_c, 1, 45, 68
3, 98280, Note_on_c, 1, 45, 0
3, 98289, Note_on_c, 1, 57, 0
3, 98400, Note_on_c, 1, 50, 107
3, 98400, Note_on_c, 1, 54, 113
3, 98400, Note_on_c, 1, 38, 102
3, 98400, Note_on_c, 1, 57, 107
3, 98402, Control_c, 1, 64, 127
3, 98458, Note_on_c, 1, 57, 0
3, 98461, Note_on_c, 1, 50, 0
3, 98462, Note_on_c, 1, 54, 0
3, 98465, Note_on_c, 1, 38, 0
3, 98498, Control_c, 1, 64, 0
3, 98520, Note_on_c, 1, 54, 119
3, 98520, Note_on_c, 1, 50, 113
3, 98520, Note_on_c, 1, 38, 107
3, 98520, Note_on_c, 1, 57, 113
3, 98528, Control_c, 1, 64, 127
3, 98574, Note_on_c, 1, 50, 0
3, 98576, Note_on_c, 1, 54, 0
3, 98576, Note_on_c, 1, 57, 0
3, 98579, Note_on_c, 1, 38, 0
3, 98621, Control_c, 1, 64, 0
3, 98640, Note_on_c, 1, 50, 107
3, 98640, Note_on_c, 1, 54, 113
3, 98640, Note_on_c, 1, 57, 113
3, 98640, Note_on_c, 1, 38, 98
3, 98648, Control_c, 1, 64, 127
3, 98659, Note_on_c, 1, 50, 0
3, 98660, Note_on_c, 1, 38, 0
3, 98665, Note_on_c, 1, 54, 0
3, 98668, Note_on_c, 1, 57, 0
3, 98754, Control_c, 1, 64, 0
3, 98820, Note_on_c, 1, 54, 98
3, 98820, Note_on_c, 1, 62, 102
3, 98844, Control_c, 1, 64, 127
3, 98859, Note_on_c, 1, 62, 0
3, 98863, Note_on_c, 1, 54, 0
3, 98873, Control_c, 1, 64, 0
3, 98880, Note_on_c, 1, 64, 93
3, 98880, Note_on_c, 1, 55, 80
3, 98920, Note_on_c, 1, 54, 76
3, 98920, Note_on_c, 1, 62, 93
3, 98922, Note_on_c, 1, 55, 0
3, 98924, Note_on_c, 1, 64, 0
3, 98956, Note_on_c, 1, 62, 0
3, 98960, Note_on_c, 1, 64, 85
3, 98960, Note_on_c, 1, 55, 80
3, 98961, Note_on_c, 1, 54, 0
3, 98995, Note_on_c, 1, 64, 0
3, 99000, Note_on_c, 1, 61, 102
3, 99000, Note_on_c, 1, 52, 93
3, 99001, Note_on_c, 1, 55, 0
3, 99039, Note_on_c, 1, 61, 0
3, 99040, Note_on_c, 1, 54, 64
3, 99040, Note_on_c, 1, 62, 93
3, 99043, Note_on_c, 1, 52, 0
3, 99078, Note_on_c, 1, 62, 0
3, 99080, Note_on_c, 1, 55, 89
3, 99080, Note_on_c, 1, 64, 93
3, 99082, Note_on_c, 1, 54, 0
3, 99117, Note_on_c, 1, 64, 0
3, 99120, Note_on_c, 1, 55, 0
3, 99120, Note_on_c, 1, 62, 102
3, 99120, Note_on_c, 1, 54, 85
3, 99131, Control_c, 1, 64, 127
3, 99177, Note_on_c, 1, 62, 0
3, 99180, Note_on_c, 1, 54, 0
3, 99219, Control_c, 1, 64, 0
3, 99359, Control_c, 1, 64, 127
3, 99360, Note_on_c, 1, 50, 113
3, 99360, Note_on_c, 1, 57, 102
3, 99360, Note_on_c, 1, 38, 102
3, 99360, Note_on_c, 1, 54, 98
3, 99398, Note_on_c, 1, 57, 0
3, 99398, Note_on_c, 1, 50, 0
3, 99400, Note_on_c, 1, 38, 0
3, 99405, Note_on_c, 1, 54, 0
3, 99464, Control_c, 1, 64, 0
3, 99480, Note_on_c, 1, 54, 89
3, 99480, Note_on_c, 1, 50, 107
3, 99480, Note_on_c, 1, 57, 107
3, 99480, Note_on_c, 1, 38, 102
3, 99493, Control_c, 1, 64, 127
3, 99516, Note_on_c, 1, 38, 0
3, 99517, Note_on_c, 1, 50, 0
3, 99518, Note_on_c, 1, 57, 0
3, 99523, Note_on_c, 1, 54, 0
3, 99583, Control_c, 1, 64, 0
3, 99600, Note_on_c, 1, 54, 93
3, 99600, Note_on_c, 1, 38, 102
3, 99600, Note_on_c, 1, 57, 102
3, 99600, Note_on_c, 1, 50, 107
3, 99611, Control_c, 1, 64, 127
3, 99628, Note_on_c, 1, 50, 0
3, 99628, Note_on_c, 1, 38, 0
3, 99632, Note_on_c, 1, 54, 0
3, 99636, Note_on_c, 1, 57, 0
3, 99728, Control_c, 1, 64, 0
3, 99780, Note_on_c, 1, 62, 107
3, 99780, Note_on_c, 1, 66, 113
3, 99798, Control_c, 1, 64, 127
3, 99800, Note_on_c, 1, 62, 0
3, 99806, Note_on_c, 1, 66, 0
3, 99840, Note_on_c, 1, 64, 107
3, 99840, Note_on_c, 1, 67, 98
3, 99842, Control_c, 1, 64, 0
3, 99872, Note_on_c, 1, 67, 0
3, 99874, Note_on_c, 1, 64, 0
3, 99880, Note_on_c, 1, 66, 85
3, 99880, Note_on_c, 1, 62, 80
3, 99902, Note_on_c, 1, 62, 0
3, 99904, Note_on_c, 1, 66, 0
3, 99908, Control_c, 1, 64, 127
3, 99920, Note_on_c, 1, 67, 68
3, 99920, Note_on_c, 1, 64, 93
3, 99943, Note_on_c, 1, 64, 0
3, 99945, Note_on_c, 1, 67, 0
3, 99955, Control_c, 1, 64, 0
3, 99960, Note_on_c, 1, 61, 107
3, 99960, Note_on_c, 1, 64, 107
3, 99975, Control_c, 1, 64, 127
3, 99990, Note_on_c, 1, 61, 0
3, 99994, Note_on_c, 1, 64, 0
3, 100000, Note_on_c, 1, 66, 89
3, 100000, Note_on_c, 1, 62, 93
3, 100021, Note_on_c, 1, 62, 0
3, 100027, Note_on_c, 1, 66, 0
3, 100040, Note_on_c, 1, 64, 85
3, 100040, Note_on_c, 1, 67, 80
3, 100061, Control_c, 1, 64, 0
3, 100065, Note_on_c, 1, 67, 0
3, 100065, Note_on_c, 1, 64, 0
3, 100080, Note_on_c, 1, 62, 102
3, 100080, Note_on_c, 1, 66, 113
3, 100087, Control_c, 1, 64, 127
3, 100129, Note_on_c, 1, 62, 0
3, 100130, Note_on_c, 1, 66, 0
3, 100194, Control_c, 1, 64, 0
3, 100320, Note_on_c, 1, 38, 98
3, 100323, Control_c, 1, 64, 127
3, 100420, Control_c, 1, 64, 0
3, 100440, Note_on_c, 1, 50, 107
3, 100461, Note_on_c, 1, 38, 0
3, 100500, Note_on_c, 1, 38, 93
3, 100543, Note_on_c, 1, 38, 0
3, 100560, Note_on_c, 1, 40, 93
3, 100590, Control_c, 1, 64, 127
3, 100617, Note_on_c, 1, 50, 0
3, 100620, Note_on_c, 1, 47, 93
3, 100651, Control_c, 1, 64, 0
3, 100671, Note_on_c, 1, 47, 0
3, 100680, Note_on_c, 1, 52, 98
3, 100681, Note_on_c, 1, 40, 0
3, 100723, Control_c, 1, 64, 127
3, 100740, Note_on_c, 1, 40, 89
3, 100785, Control_c, 1, 64, 0
3, 100792, Note_on_c, 1, 40, 0
3, 100798, Note_on_c, 1, 52, 0
3, 100800, Note_on_c, 1, 49, 98
3, 100800, Note_on_c, 1, 45, 89
3, 100828, Control_c, 1, 64, 127
3, 100880, Note_on_c, 1, 45, 0
3, 100915, Note_on_c, 1, 49, 0
3, 100915, Control_c, 1, 64, 0
3, 100920, Note_on_c, 1, 45, 102
3, 100980, Note_on_c, 1, 37, 93
3, 100991, Control_c, 1, 64, 127
3, 101030, Note_on_c, 1, 37, 0
3, 101030, Control_c, 1, 64, 0
3, 101040, Note_on_c, 1, 38, 102
3, 101057, Control_c, 1, 64, 127
3, 101073, Control_c, 1, 64, 0
3, 101074, Note_on_c, 1, 45, 0
3, 101100, Note_on_c, 1, 54, 113
3, 101120, Control_c, 1, 64, 127
3, 101150, Control_c, 1, 64, 0
3, 101154, Note_on_c, 1, 54, 0
3, 101156, Note_on_c, 1, 38, 0
3, 101160, Note_on_c, 1, 57, 98
3, 101208, Control_c, 1, 64, 127
3, 101220, Note_on_c, 1, 57, 0
3, 101220, Note_on_c, 1, 54, 85
3, 101220, Note_on_c, 1, 38, 93
3, 101236, Note_on_c, 1, 38, 0
3, 101278, Control_c, 1, 64, 0
3, 101280, Note_on_c, 1, 54, 0
3, 101280, Note_on_c, 1, 47, 85
3, 101280, Note_on_c, 1, 50, 102
3, 101328, Control_c, 1, 64, 127
3, 101394, Note_on_c, 1, 50, 0
3, 101400, Note_on_c, 1, 50, 107
3, 101415, Control_c, 1, 64, 0
3, 101417, Note_on_c, 1, 47, 0
3, 101460, Note_on_c, 1, 47, 89
3, 101462, Control_c, 1, 64, 127
3, 101490, Note_on_c, 1, 47, 0
3, 101505, Control_c, 1, 64, 0
3, 101520, Note_on_c, 1, 43, 89
3, 101531, Note_on_c, 1, 50, 0
3, 101534, Control_c, 1, 64, 127
3, 101580, Note_on_c, 1, 47, 89
3, 101596, Control_c, 1, 64, 0
3, 101631, Note_on_c, 1, 47, 0
3, 101635, Control_c, 1, 64, 127
3, 101640, Note_on_c, 1, 55, 93
3, 101649, Note_on_c, 1, 43, 0
3, 101696, Note_on_c, 1, 55, 0
3, 101700, Note_on_c, 1, 43, 85
3, 101700, Note_on_c, 1, 52, 98
3, 101722, Control_c, 1, 64, 0
3, 101733, Note_on_c, 1, 43, 0
3, 101749, Note_on_c, 1, 52, 0
3, 101760, Note_on_c, 1, 54, 85
3, 101760, Note_on_c, 1, 45, 93
3, 101789, Control_c, 1, 64, 127
3, 101813, Note_on_c, 1, 54, 0
3, 101820, Note_on_c, 1, 55, 93
3, 101866, Control_c, 1, 64, 0
3, 101871, Note_on_c, 1, 45, 0
3, 101879, Note_on_c, 1, 55, 0
3, 101880, Note_on_c, 1, 57, 93
3, 101934, Control_c, 1, 64, 127
3, 101935, Note_on_c, 1, 57, 0
3, 101940, Note_on_c, 1, 55, 93
3, 101940, Note_on_c, 1, 45, 89
3, 101978, Note_on_c, 1, 45, 0
3, 101988, Note_on_c, 1, 55, 0
3, 101990, Control_c, 1, 64, 0
3, 102000, Note_on_c, 1, 54, 107
3, 102000, Note_on_c, 1, 38, 89
3, 102024, Control_c, 1, 64, 127
3, 102060, Note_on_c, 1, 42, 68
3, 102064, Note_on_c, 1, 38, 0
3, 102109, Note_on_c, 1, 54, 0
3, 102115, Control_c, 1, 64, 0
3, 102120, Note_on_c, 1, 42, 0
3, 102120, Note_on_c, 1, 45, 76
3, 102120, Note_on_c, 1, 50, 89
3, 102145, Control_c, 1, 64, 127
3, 102180, Note_on_c, 1, 42, 64
3, 102182, Note_on_c, 1, 45, 0
3, 102206, Note_on_c, 1, 50, 0
3, 102238, Control_c, 1, 64, 0
3, 102239, Note_on_c, 1, 42, 0
3, 102240, Note_on_c, 1, 38, 93
3, 102270, Control_c, 1, 64, 127
3, 102300, Note_on_c, 1, 50, 76
3, 102330, Note_on_c, 1, 50, 0
3, 102360, Note_on_c, 1, 50, 76
3, 102360, Control_c, 1, 64, 0
3, 102361, Note_on_c, 1, 38, 0
3, 102389, Control_c, 1, 64, 127
3, 102408, Note_on_c, 1, 50, 0
3, 102420, Note_on_c, 1, 50, 76
3, 102469, Note_on_c, 1, 50, 0
3, 102479, Control_c, 1, 64, 0
3, 102480, Note_on_c, 1, 40, 72
3, 102512, Control_c, 1, 64, 127
3, 102540, Note_on_c, 1, 49, 68
3, 102571, Note_on_c, 1, 49, 0
3, 102585, Note_on_c, 1, 40, 0
3, 102600, Note_on_c, 1, 49, 68
3, 102600, Control_c, 1, 64, 0
3, 102629, Control_c, 1, 64, 127
3, 102647, Note_on_c, 1, 49, 0
3, 102660, Note_on_c, 1, 49, 62
3, 102716, Note_on_c, 1, 49, 0
3, 102720, Note_on_c, 1, 33, 76
3, 102720, Control_c, 1, 64, 0
3, 102753, Control_c, 1, 64, 127
3, 102780, Note_on_c, 1, 49, 89
3, 102804, Note_on_c, 1, 49, 0
3, 102838, Control_c, 1, 64, 0
3, 102840, Note_on_c, 1, 49, 68
3, 102844, Note_on_c, 1, 33, 0
3, 102865, Control_c, 1, 64, 127
3, 102891, Note_on_c, 1, 49, 0
3, 102900, Note_on_c, 1, 49, 57
3, 102939, Note_on_c, 1, 49, 0
3, 102959, Control_c, 1, 64, 0
3, 102960, Note_on_c, 1, 38, 80
3, 102996, Control_c, 1, 64, 127
3, 103020, Note_on_c, 1, 50, 76
3, 103048, Note_on_c, 1, 50, 0
3, 103074, Note_on_c, 1, 38, 0
3, 103076, Control_c, 1, 64, 0
3, 103080, Note_on_c, 1, 50, 89
3, 103105, Control_c, 1, 64, 127
3, 103125, Note_on_c, 1, 50, 0
3, 103140, Note_on_c, 1, 50, 89
3, 103162, Note_on_c, 1, 50, 0
3, 103186, Control_c, 1, 64, 0
3, 103200, Note_on_c, 1, 50, 119
3, 103200, Note_on_c, 1, 38, 113
3, 103220, Control_c, 1, 64, 127
3, 103237, Note_on_c, 1, 50, 0
3, 103244, Note_on_c, 1, 38, 0
3, 103310, Control_c, 1, 64, 0
3, 103320, Note_on_c, 1, 45, 113
3, 103320, Note_on_c, 1, 33, 93
3, 103339, Control_c, 1, 64, 127
3, 103382, Note_on_c, 1, 33, 0
3, 103384, Note_on_c, 1, 45, 0
3, 103410, Note_on_c, 1, 38, 89
3, 103410, Note_on_c, 1, 50, 102
3, 103424, Control_c, 1, 64, 0
3, 103425, Note_on_c, 1, 38, 0
3, 103429, Note_on_c, 1, 50, 0
3, 103440, Note_on_c, 1, 42, 98
3, 103440, Note_on_c, 1, 54, 113
3, 103461, Control_c, 1, 64, 127
3, 103498, Note_on_c, 1, 42, 0
3, 103539, Note_on_c, 1, 54, 0
3, 103548, Control_c, 1, 64, 0
3, 103560, Note_on_c, 1, 50, 107
3, 103560, Note_on_c, 1, 38, 98
3, 103582, Control_c, 1, 64, 127
3, 103640, Note_on_c, 1, 38, 0
3, 103640, Note_on_c, 1, 50, 0
3, 103650, Note_on_c, 1, 54, 89
3, 103650, Note_on_c, 1, 42, 76
3, 103665, Control_c, 1, 64, 0
3, 103670, Note_on_c, 1, 54, 0
3, 103672, Note_on_c, 1, 42, 0
3, 103680, Note_on_c, 1, 45, 98
3, 103680, Note_on_c, 1, 57, 113
3, 103707, Control_c, 1, 64, 127
3, 103758, Note_on_c, 1, 45, 0
3, 103761, Note_on_c, 1, 57, 0
3, 103787, Control_c, 1, 64, 0
3, 103800, Note_on_c, 1, 57, 107
3, 103800, Note_on_c, 1, 45, 98
3, 103815, Control_c, 1, 64, 127
3, 103849, Note_on_c, 1, 45, 0
3, 103854, Note_on_c, 1, 57, 0
3, 103890, Note_on_c, 1, 57, 107
3, 103890, Note_on_c, 1, 45, 93
3, 103906, Note_on_c, 1, 45, 0
3, 103906, Note_on_c, 1, 57, 0
3, 103909, Control_c, 1, 64, 0
3, 103920, Note_on_c, 1, 57, 102
3, 103920, Note_on_c, 1, 45, 98
3, 103936, Control_c, 1, 64, 127
3, 103973, Note_on_c, 1, 45, 0
3, 103975, Note_on_c, 1, 57, 0
3, 104054, Control_c, 1, 64, 0
3, 104160, Note_on_c, 1, 45, 98
3, 104160, Note_on_c, 1, 38, 89
3, 104172, Control_c, 1, 64, 127
3, 104266, Note_on_c, 1, 38, 0
3, 104286, Control_c, 1, 64, 0
3, 104400, Note_on_c, 1, 38, 89
3, 104409, Control_c, 1, 64, 127
3, 104517, Note_on_c, 1, 38, 0
3, 104520, Control_c, 1, 64, 0
3, 104640, Note_on_c, 1, 33, 85
3, 104641, Control_c, 1, 64, 127
3, 104760, Control_c, 1, 64, 0
3, 104767, Note_on_c, 1, 33, 0
3, 104880, Note_on_c, 1, 33, 80
3, 104883, Control_c, 1, 64, 127
3, 105004, Control_c, 1, 64, 0
3, 105005, Note_on_c, 1, 33, 0
3, 105120, Note_on_c, 1, 38, 76
3, 105126, Control_c, 1, 64, 127
3, 105240, Control_c, 1, 64, 0
3, 105245, Note_on_c, 1, 38, 0
3, 105360, Note_on_c, 1, 38, 93
3, 105364, Control_c, 1, 64, 127
3, 105480, Control_c, 1, 64, 0
3, 105482, Note_on_c, 1, 38, 0
3, 105600, Note_on_c, 1, 33, 89
3, 105601, Control_c, 1, 64, 127
3, 105715, Control_c, 1, 64, 0
3, 105728, Note_on_c, 1, 33, 0
3, 105839, Control_c, 1, 64, 127
3, 105840, Note_on_c, 1, 33, 85
3, 105958, Note_on_c, 1, 33, 0
3, 105966, Control_c, 1, 64, 0
3, 106079, Control_c, 1, 64, 127
3, 106080, Note_on_c, 1, 38, 89
3, 106196, Control_c, 1, 64, 0
3, 106204, Note_on_c, 1, 45, 0
3, 106212, Note_on_c, 1, 38, 0
3, 106320, Note_on_c, 1, 38, 107
3, 106320, Note_on_c, 1, 50, 107
3, 106320, Control_c, 1, 64, 127
3, 106359, Note_on_c, 1, 50, 0
3, 106360, Note_on_c, 1, 38, 0
3, 106360, Note_on_c, 1, 49, 93
3, 106360, Note_on_c, 1, 37, 76
3, 106392, Note_on_c, 1, 49, 0
3, 106399, Note_on_c, 1, 37, 0
3, 106400, Note_on_c, 1, 50, 102
3, 106400, Note_on_c, 1, 38, 93
3, 106412, Control_c, 1, 64, 0
3, 106430, Note_on_c, 1, 50, 0
3, 106437, Note_on_c, 1, 38, 0
3, 106440, Note_on_c, 1, 52, 98
3, 106440, Note_on_c, 1, 40, 93
3, 106449, Control_c, 1, 64, 127
3, 106480, Note_on_c, 1, 52, 0
3, 106480, Note_on_c, 1, 50, 98
3, 106480, Note_on_c, 1, 38, 85
3, 106482, Note_on_c, 1, 40, 0
3, 106513, Note_on_c, 1, 50, 0
3, 106520, Note_on_c, 1, 52, 93
3, 106520, Note_on_c, 1, 40, 89
3, 106521, Note_on_c, 1, 38, 0
3, 106544, Control_c, 1, 64, 0
3, 106553, Note_on_c, 1, 52, 0
3, 106559, Note_on_c, 1, 40, 0
3, 106560, Note_on_c, 1, 42, 80
3, 106560, Note_on_c, 1, 54, 107
3, 106578, Control_c, 1, 64, 127
3, 106600, Note_on_c, 1, 54, 0
3, 106600, Note_on_c, 1, 52, 93
3, 106600, Note_on_c, 1, 40, 85
3, 106602, Note_on_c, 1, 42, 0
3, 106632, Note_on_c, 1, 52, 0
3, 106640, Note_on_c, 1, 42, 85
3, 106640, Note_on_c, 1, 54, 89
3, 106643, Note_on_c, 1, 40, 0
3, 106655, Control_c, 1, 64, 0
3, 106670, Note_on_c, 1, 54, 0
3, 106680, Note_on_c, 1, 42, 0
3, 106680, Note_on_c, 1, 55, 107
3, 106680, Note_on_c, 1, 43, 89
3, 106690, Control_c, 1, 64, 127
3, 106720, Note_on_c, 1, 42, 72
3, 106720, Note_on_c, 1, 54, 76
3, 106723, Note_on_c, 1, 43, 0
3, 106724, Note_on_c, 1, 55, 0
3, 106751, Note_on_c, 1, 54, 0
3, 106760, Note_on_c, 1, 55, 93
3, 106760, Note_on_c, 1, 43, 89
3, 106763, Note_on_c, 1, 42, 0
3, 106785, Note_on_c, 1, 43, 0
3, 106790, Control_c, 1, 64, 0
3, 106791, Note_on_c, 1, 55, 0
3, 106800, Note_on_c, 1, 45, 93
3, 106800, Note_on_c, 1, 57, 113
3, 106827, Control_c, 1, 64, 127
3, 106835, Note_on_c, 1, 57, 0
3, 106838, Note_on_c, 1, 45, 0
3, 106840, Note_on_c, 1, 43, 72
3, 106840, Note_on_c, 1, 55, 93
3, 106868, Note_on_c, 1, 55, 0
3, 106880, Note_on_c, 1, 45, 98
3, 106880, Note_on_c, 1, 57, 98
3, 106881, Note_on_c, 1, 43, 0
3, 106906, Note_on_c, 1, 57, 0
3, 106908, Control_c, 1, 64, 0
3, 106920, Note_on_c, 1, 47, 98
3, 106920, Note_on_c, 1, 59, 113
3, 106921, Note_on_c, 1, 45, 0
3, 106943, Control_c, 1, 64, 127
3, 106954, Note_on_c, 1, 59, 0
3, 106960, Note_on_c, 1, 45, 89
3, 106960, Note_on_c, 1, 57, 102
3, 106961, Note_on_c, 1, 47, 0
3, 106988, Note_on_c, 1, 57, 0
3, 107000, Note_on_c, 1, 59, 93
3, 107000, Note_on_c, 1, 47, 89
3, 107001, Note_on_c, 1, 45, 0
3, 107027, Note_on_c, 1, 59, 0
3, 107030, Note_on_c, 1, 47, 0
3, 107037, Control_c, 1, 64, 0
3, 107040, Note_on_c, 1, 49, 93
3, 107040, Note_on_c, 1, 61, 107
3, 107067, Control_c, 1, 64, 127
3, 107076, Note_on_c, 1, 61, 0
3, 107076, Note_on_c, 1, 49, 0
3, 107080, Note_on_c, 1, 47, 89
3, 107080, Note_on_c, 1, 59, 102
3, 107108, Note_on_c, 1, 59, 0
3, 107120, Note_on_c, 1, 49, 89
3, 107120, Note_on_c, 1, 61, 102
3, 107123, Note_on_c, 1, 47, 0
3, 107144, Note_on_c, 1, 61, 0
3, 107149, Control_c, 1, 64, 0
3, 107156, Note_on_c, 1, 49, 0
3, 107160, Note_on_c, 1, 50, 98
3, 107160, Note_on_c, 1, 62, 102
3, 107177, Control_c, 1, 64, 127
3, 107196, Note_on_c, 1, 62, 0
3, 107197, Note_on_c, 1, 50, 0
3, 107200, Note_on_c, 1, 61, 93
3, 107200, Note_on_c, 1, 49, 89
3, 107228, Note_on_c, 1, 61, 0
3, 107240, Note_on_c, 1, 62, 102
3, 107240, Note_on_c, 1, 50, 93
3, 107243, Note_on_c, 1, 49, 0
3, 107254, Note_on_c, 1, 62, 0
3, 107257, Note_on_c, 1, 50, 0
3, 107280, Note_on_c, 1, 54, 107
3, 107280, Note_on_c, 1, 50, 107
3, 107280, Note_on_c, 1, 57, 119
3, 107280, Note_on_c, 1, 38, 76
3, 107286, Control_c, 1, 64, 0
3, 107357, Control_c, 1, 64, 127
3, 107375, Note_on_c, 1, 57, 0
3, 107375, Note_on_c, 1, 54, 0
3, 107376, Note_on_c, 1, 38, 0
3, 107377, Note_on_c, 1, 50, 0
3, 107387, Control_c, 1, 64, 0
3, 107400, Note_on_c, 1, 38, 107
3, 107400, Note_on_c, 1, 50, 107
3, 107400, Note_on_c, 1, 54, 119
3, 107400, Note_on_c, 1, 57, 107
3, 107422, Control_c, 1, 64, 127
3, 107461, Note_on_c, 1, 38, 0
3, 107463, Note_on_c, 1, 50, 0
3, 107463, Note_on_c, 1, 54, 0
3, 107464, Note_on_c, 1, 57, 0
3, 107490, Note_on_c, 1, 54, 93
3, 107490, Note_on_c, 1, 50, 93
3, 107490, Note_on_c, 1, 57, 93
3, 107490, Note_on_c, 1, 38, 85
3, 107505, Note_on_c, 1, 38, 0
3, 107506, Note_on_c, 1, 50, 0
3, 107509, Note_on_c, 1, 57, 0
3, 107510, Note_on_c, 1, 54, 0
3, 107520, Note_on_c, 1, 43, 113
3, 107520, Note_on_c, 1, 50, 107
3, 107520, Note_on_c, 1, 59, 107
3, 107520, Note_on_c, 1, 55, 102
3, 107524, Control_c, 1, 64, 0
3, 107568, Control_c, 1, 64, 127
3, 107598, Note_on_c, 1, 43, 0
3, 107602, Note_on_c, 1, 50, 0
3, 107603, Note_on_c, 1, 59, 0
3, 107603, Note_on_c, 1, 55, 0
3, 107626, Control_c, 1, 64, 0
3, 107640, Note_on_c, 1, 55, 98
3, 107640, Note_on_c, 1, 50, 98
3, 107640, Note_on_c, 1, 59, 98
3, 107640, Note_on_c, 1, 43, 107
3, 107653, Control_c, 1, 64, 127
3, 107685, Note_on_c, 1, 43, 0
3, 107692, Note_on_c, 1, 55, 0
3, 107692, Note_on_c, 1, 50, 0
3, 107699, Note_on_c, 1, 59, 0
3, 107730, Note_on_c, 1, 59, 85
3, 107730, Note_on_c, 1, 55, 93
3, 107730, Note_on_c, 1, 50, 98
3, 107730, Note_on_c, 1, 43, 89
3, 107745, Note_on_c, 1, 59, 0
3, 107747, Note_on_c, 1, 50, 0
3, 107747, Control_c, 1, 64, 0
3, 107752, Note_on_c, 1, 43, 0
3, 107760, Note_on_c, 1, 55, 0
3, 107760, Note_on_c, 1, 55, 89
3, 107760, Note_on_c, 1, 57, 93
3, 107760, Note_on_c, 1, 52, 93
3, 107760, Note_on_c, 1, 49, 113
3, 107760, Note_on_c, 1, 45, 107
3, 107787, Control_c, 1, 64, 127
3, 107823, Note_on_c, 1, 57, 0
3, 107826, Note_on_c, 1, 49, 0
3, 107829, Note_on_c, 1, 52, 0
3, 107830, Note_on_c, 1, 55, 0
3, 107833, Note_on_c, 1, 45, 0
3, 107864, Control_c, 1, 64, 0
3, 107880, Note_on_c, 1, 49, 98
3, 107880, Note_on_c, 1, 45, 98
3, 107880, Note_on_c, 1, 52, 102
3, 107880, Note_on_c, 1, 55, 98
3, 107880, Note_on_c, 1, 57, 102
3, 107891, Control_c, 1, 64, 127
3, 107909, Note_on_c, 1, 57, 0
3, 107915, Note_on_c, 1, 49, 0
3, 107918, Note_on_c, 1, 55, 0
3, 107924, Note_on_c, 1, 52, 0
3, 107924, Note_on_c, 1, 45, 0
3, 107970, Note_on_c, 1, 49, 76
3, 107970, Note_on_c, 1, 52, 89
3, 107970, Note_on_c, 1, 55, 89
3, 107970, Note_on_c, 1, 45, 93
3, 107970, Note_on_c, 1, 57, 85
3, 107982, Note_on_c, 1, 57, 0
3, 107986, Note_on_c, 1, 55, 0
3, 107988, Control_c, 1, 64, 0
3, 107991, Note_on_c, 1, 52, 0
3, 107994, Note_on_c, 1, 49, 0
3, 107996, Note_on_c, 1, 45, 0
3, 108000, Note_on_c, 1, 50, 102
3, 108000, Note_on_c, 1, 54, 102
3, 108000, Note_on_c, 1, 57, 102
3, 108000, Note_on_c, 1, 38, 102
3, 108025, Control_c, 1, 64, 127
3, 108118, Control_c, 1, 64, 0
3, 108121, Note_on_c, 1, 38, 0
3, 108122, Note_on_c, 1, 57, 0
3, 108123, Note_on_c, 1, 50, 0
3, 108125, Note_on_c, 1, 54, 0
3, 108480, Note_on_c, 1, 45, 76
3, 108486, Control_c, 1, 64, 127
3, 108520, Note_on_c, 1, 50, 80
3, 108529, Note_on_c, 1, 45, 0
3, 108560, Note_on_c, 1, 54, 60
3, 108563, Note_on_c, 1, 50, 0
3, 108595, Note_on_c, 1, 54, 0
3, 108600, Note_on_c, 1, 45, 80
3, 108640, Note_on_c, 1, 50, 72
3, 108645, Note_on_c, 1, 45, 0
3, 108677, Note_on_c, 1, 50, 0
3, 108680, Note_on_c, 1, 54, 56
3, 108720, Note_on_c, 1, 45, 85
3, 108720, Note_on_c, 1, 66, 85
3, 108723, Note_on_c, 1, 54, 0
3, 108760, Note_on_c, 1, 50, 62
3, 108767, Note_on_c, 1, 45, 0
3, 108796, Note_on_c, 1, 50, 0
3, 108800, Note_on_c, 1, 54, 59
3, 108839, Note_on_c, 1, 54, 0
3, 108839, Note_on_c, 1, 66, 0
3, 108840, Note_on_c, 1, 45, 85
3, 108840, Note_on_c, 1, 67, 76
3, 108854, Note_on_c, 1, 67, 0
3, 108855, Note_on_c, 1, 66, 76
3, 108869, Note_on_c, 1, 66, 0
3, 108870, Note_on_c, 1, 67, 85
3, 108880, Note_on_c, 1, 50, 72
3, 108883, Note_on_c, 1, 45, 0
3, 108884, Note_on_c, 1, 67, 0
3, 108885, Note_on_c, 1, 66, 64
3, 108899, Note_on_c, 1, 66, 0
3, 108900, Note_on_c, 1, 67, 76
3, 108914, Note_on_c, 1, 67, 0
3, 108915, Note_on_c, 1, 66, 80
3, 108920, Note_on_c, 1, 54, 47
3, 108921, Note_on_c, 1, 50, 0
3, 108929, Note_on_c, 1, 66, 0
3, 108930, Note_on_c, 1, 64, 72
3, 108944, Note_on_c, 1, 64, 0
3, 108945, Note_on_c, 1, 66, 85
3, 108949, Note_on_c, 1, 54, 0
3, 108959, Note_on_c, 1, 66, 0
3, 108960, Note_on_c, 1, 45, 76
3, 108960, Note_on_c, 1, 67, 85
3, 108967, Control_c, 1, 64, 0
3, 108994, Control_c, 1, 64, 127
3, 109000, Note_on_c, 1, 49, 68
3, 109007, Note_on_c, 1, 45, 0
3, 109039, Note_on_c, 1, 49, 0
3, 109040, Note_on_c, 1, 52, 56
3, 109076, Note_on_c, 1, 52, 0
3, 109079, Note_on_c, 1, 67, 0
3, 109080, Note_on_c, 1, 45, 85
3, 109080, Note_on_c, 1, 64, 89
3, 109120, Note_on_c, 1, 49, 62
3, 109129, Note_on_c, 1, 45, 0
3, 109139, Note_on_c, 1, 64, 0
3, 109156, Note_on_c, 1, 49, 0
3, 109160, Note_on_c, 1, 52, 64
3, 109190, Note_on_c, 1, 52, 0
3, 109200, Note_on_c, 1, 45, 80
3, 109200, Note_on_c, 1, 73, 80
3, 109201, Control_c, 1, 64, 0
3, 109226, Control_c, 1, 64, 127
3, 109240, Note_on_c, 1, 52, 64
3, 109262, Note_on_c, 1, 45, 0
3, 109280, Note_on_c, 1, 55, 68
3, 109284, Note_on_c, 1, 52, 0
3, 109317, Note_on_c, 1, 55, 0
3, 109319, Note_on_c, 1, 73, 0
3, 109320, Note_on_c, 1, 45, 80
3, 109320, Note_on_c, 1, 74, 85
3, 109334, Note_on_c, 1, 74, 0
3, 109335, Note_on_c, 1, 73, 72
3, 109349, Note_on_c, 1, 73, 0
3, 109350, Note_on_c, 1, 74, 85
3, 109360, Note_on_c, 1, 52, 80
3, 109364, Note_on_c, 1, 74, 0
3, 109365, Note_on_c, 1, 73, 56
3, 109370, Note_on_c, 1, 45, 0
3, 109379, Note_on_c, 1, 73, 0
3, 109380, Note_on_c, 1, 74, 89
3, 109394, Note_on_c, 1, 74, 0
3, 109395, Note_on_c, 1, 73, 72
3, 109400, Note_on_c, 1, 55, 72
3, 109402, Note_on_c, 1, 52, 0
3, 109409, Note_on_c, 1, 73, 0
3, 109410, Note_on_c, 1, 71, 76
3, 109424, Note_on_c, 1, 71, 0
3, 109425, Note_on_c, 1, 73, 80
3, 109429, Note_on_c, 1, 55, 0
3, 109439, Note_on_c, 1, 73, 0
3, 109439, Control_c, 1, 64, 0
3, 109440, Note_on_c, 1, 45, 89
3, 109440, Note_on_c, 1, 74, 89
3, 109464, Control_c, 1, 64, 127
3, 109480, Note_on_c, 1, 50, 64
3, 109491, Note_on_c, 1, 45, 0
3, 109518, Note_on_c, 1, 50, 0
3, 109520, Note_on_c, 1, 54, 60
3, 109554, Note_on_c, 1, 54, 0
3, 109559, Note_on_c, 1, 74, 0
3, 109560, Note_on_c, 1, 45, 89
3, 109560, Note_on_c, 1, 69, 89
3, 109600, Note_on_c, 1, 45, 0
3, 109600, Note_on_c, 1, 50, 76
3, 109619, Note_on_c, 1, 69, 0
3, 109640, Note_on_c, 1, 50, 0
3, 109640, Note_on_c, 1, 54, 57
3, 109674, Note_on_c, 1, 54, 0
3, 109680, Note_on_c, 1, 45, 89
3, 109680, Note_on_c, 1, 66, 98
3, 109688, Control_c, 1, 64, 0
3, 109712, Control_c, 1, 64, 127
3, 109720, Note_on_c, 1, 50, 72
3, 109722, Note_on_c, 1, 45, 0
3, 109758, Note_on_c, 1, 50, 0
3, 109760, Note_on_c, 1, 54, 56
3, 109792, Note_on_c, 1, 54, 0
3, 109799, Note_on_c, 1, 66, 0
3, 109800, Note_on_c, 1, 45, 85
3, 109800, Note_on_c, 1, 67, 89
3, 109814, Note_on_c, 1, 67, 0
3, 109815, Note_on_c, 1, 66, 76
3, 109829, Note_on_c, 1, 66, 0
3, 109830, Note_on_c, 1, 67, 80
3, 109833, Note_on_c, 1, 45, 0
3, 109840, Note_on_c, 1, 50, 57
3, 109844, Note_on_c, 1, 67, 0
3, 109845, Note_on_c, 1, 66, 80
3, 109859, Note_on_c, 1, 66, 0
3, 109860, Note_on_c, 1, 67, 89
3, 109873, Note_on_c, 1, 50, 0
3, 109874, Note_on_c, 1, 67, 0
3, 109875, Note_on_c, 1, 66, 89
3, 109880, Note_on_c, 1, 54, 50
3, 109889, Note_on_c, 1, 66, 0
3, 109890, Note_on_c, 1, 64, 64
3, 109904, Note_on_c, 1, 64, 0
3, 109905, Note_on_c, 1, 66, 85
3, 109911, Note_on_c, 1, 54, 0
3, 109919, Note_on_c, 1, 66, 0
3, 109920, Note_on_c, 1, 45, 76
3, 109920, Control_c, 1, 64, 0
3, 109920, Note_on_c, 1, 67, 85
3, 109944, Control_c, 1, 64, 127
3, 109960, Note_on_c, 1, 49, 68
3, 109965, Note_on_c, 1, 45, 0
3, 110000, Note_on_c, 1, 52, 62
3, 110002, Note_on_c, 1, 49, 0
3, 110028, Note_on_c, 1, 52, 0
3, 110039, Note_on_c, 1, 67, 0
3, 110040, Note_on_c, 1, 45, 85
3, 110040, Note_on_c, 1, 64, 89
3, 110080, Note_on_c, 1, 49, 62
3, 110088, Note_on_c, 1, 45, 0
3, 110099, Note_on_c, 1, 64, 0
3, 110120, Note_on_c, 1, 52, 68
3, 110122, Note_on_c, 1, 49, 0
3, 110151, Note_on_c, 1, 52, 0
3, 110160, Note_on_c, 1, 45, 85
3, 110160, Note_on_c, 1, 61, 102
3, 110168, Control_c, 1, 64, 0
3, 110192, Control_c, 1, 64, 127
3, 110200, Note_on_c, 1, 52, 76
3, 110217, Note_on_c, 1, 45, 0
3, 110240, Note_on_c, 1, 55, 72
3, 110241, Note_on_c, 1, 52, 0
3, 110271, Note_on_c, 1, 55, 0
3, 110279, Note_on_c, 1, 61, 0
3, 110280, Note_on_c, 1, 45, 72
3, 110280, Note_on_c, 1, 62, 89
3, 110294, Note_on_c, 1, 62, 0
3, 110295, Note_on_c, 1, 61, 85
3, 110309, Note_on_c, 1, 61, 0
3, 110310, Note_on_c, 1, 62, 76
3, 110320, Note_on_c, 1, 52, 72
3, 110324, Note_on_c, 1, 62, 0
3, 110325, Note_on_c, 1, 61, 85
3, 110332, Note_on_c, 1, 45, 0
3, 110339, Note_on_c, 1, 61, 0
3, 110340, Note_on_c, 1, 62, 85
3, 110354, Note_on_c, 1, 62, 0
3, 110355, Note_on_c, 1, 61, 76
3, 110359, Note_on_c, 1, 52, 0
3, 110360, Note_on_c, 1, 55, 72
3, 110369, Note_on_c, 1, 61, 0
3, 110370, Note_on_c, 1, 59, 85
3, 110384, Note_on_c, 1, 59, 0
3, 110385, Note_on_c, 1, 61, 89
3, 110393, Note_on_c, 1, 55, 0
3, 110399, Note_on_c, 1, 61, 0
3, 110399, Control_c, 1, 64, 0
3, 110400, Note_on_c, 1, 45, 76
3, 110400, Note_on_c, 1, 62, 93
3, 110425, Control_c, 1, 64, 127
3, 110440, Note_on_c, 1, 50, 76
3, 110447, Note_on_c, 1, 45, 0
3, 110480, Note_on_c, 1, 50, 0
3, 110480, Note_on_c, 1, 54, 68
3, 110510, Note_on_c, 1, 54, 0
3, 110519, Note_on_c, 1, 62, 0
3, 110520, Note_on_c, 1, 45, 80
3, 110520, Note_on_c, 1, 57, 89
3, 110560, Note_on_c, 1, 45, 0
3, 110560, Note_on_c, 1, 50, 76
3, 110579, Note_on_c, 1, 57, 0
3, 110592, Note_on_c, 1, 50, 0
3, 110600, Note_on_c, 1, 54, 64
3, 110621, Note_on_c, 1, 54, 0
3, 110647, Control_c, 1, 64, 0
3, 111600, Note_on_c, 1, 50, 102
3, 111600, Note_on_c, 1, 54, 107
3, 111600, Note_on_c, 1, 57, 107
3, 111600, Note_on_c, 1, 38, 98
3, 111605, Control_c, 1, 64, 127
3, 111656, Note_on_c, 1, 38, 0
3, 111659, Note_on_c, 1, 50, 0
3, 111660, Note_on_c, 1, 57, 0
3, 111660, Note_on_c, 1, 54, 0
3, 111709, Control_c, 1, 64, 0
3, 111720, Note_on_c, 1, 50, 107
3, 111720, Note_on_c, 1, 54, 107
3, 111720, Note_on_c, 1, 57, 107
3, 111720, Note_on_c, 1, 38, 107
3, 111735, Control_c, 1, 64, 127
3, 111757, Note_on_c, 1, 38, 0
3, 111765, Note_on_c, 1, 54, 0
3, 111766, Note_on_c, 1, 57, 0
3, 111772, Note_on_c, 1, 50, 0
3, 111810, Note_on_c, 1, 54, 80
3, 111810, Note_on_c, 1, 57, 93
3, 111810, Note_on_c, 1, 50, 93
3, 111810, Note_on_c, 1, 38, 93
3, 111827, Control_c, 1, 64, 0
3, 111828, Note_on_c, 1, 57, 0
3, 111829, Note_on_c, 1, 50, 0
3, 111830, Note_on_c, 1, 54, 0
3, 111833, Note_on_c, 1, 38, 0
3, 111840, Note_on_c, 1, 50, 107
3, 111840, Note_on_c, 1, 55, 107
3, 111840, Note_on_c, 1, 59, 107
3, 111840, Note_on_c, 1, 43, 98
3, 111867, Control_c, 1, 64, 127
3, 111916, Note_on_c, 1, 59, 0
3, 111920, Note_on_c, 1, 43, 0
3, 111920, Note_on_c, 1, 50, 0
3, 111921, Note_on_c, 1, 55, 0
3, 111949, Control_c, 1, 64, 0
3, 111960, Note_on_c, 1, 55, 93
3, 111960, Note_on_c, 1, 59, 102
3, 111960, Note_on_c, 1, 50, 107
3, 111960, Note_on_c, 1, 43, 89
3, 111976, Control_c, 1, 64, 127
3, 112007, Note_on_c, 1, 43, 0
3, 112011, Note_on_c, 1, 50, 0
3, 112017, Note_on_c, 1, 59, 0
3, 112017, Note_on_c, 1, 55, 0
3, 112050, Note_on_c, 1, 55, 93
3, 112050, Note_on_c, 1, 50, 102
3, 112050, Note_on_c, 1, 59, 89
3, 112050, Note_on_c, 1, 43, 89
3, 112066, Note_on_c, 1, 50, 0
3, 112068, Note_on_c, 1, 43, 0
3, 112068, Note_on_c, 1, 59, 0
3, 112072, Control_c, 1, 64, 0
3, 112079, Note_on_c, 1, 55, 0
3, 112080, Note_on_c, 1, 55, 93
3, 112080, Note_on_c, 1, 57, 102
3, 112080, Note_on_c, 1, 52, 98
3, 112080, Note_on_c, 1, 45, 102
3, 112080, Note_on_c, 1, 49, 113
3, 112120, Control_c, 1, 64, 127
3, 112143, Note_on_c, 1, 49, 0
3, 112150, Note_on_c, 1, 57, 0
3, 112174, Note_on_c, 1, 55, 0
3, 112174, Note_on_c, 1, 52, 0
3, 112176, Note_on_c, 1, 45, 0
3, 112187, Control_c, 1, 64, 0
3, 112200, Note_on_c, 1, 49, 107
3, 112200, Note_on_c, 1, 55, 102
3, 112200, Note_on_c, 1, 52, 107
3, 112200, Note_on_c, 1, 57, 102
3, 112200, Note_on_c, 1, 45, 102
3, 112216, Control_c, 1, 64, 127
3, 112247, Note_on_c, 1, 49, 0
3, 112250, Note_on_c, 1, 45, 0
3, 112252, Note_on_c, 1, 57, 0
3, 112255, Note_on_c, 1, 52, 0
3, 112257, Note_on_c, 1, 55, 0
3, 112290, Note_on_c, 1, 49, 89
3, 112290, Note_on_c, 1, 52, 98
3, 112290, Note_on_c, 1, 55, 85
3, 112290, Note_on_c, 1, 57, 93
3, 112290, Note_on_c, 1, 45, 93
3, 112307, Control_c, 1, 64, 0
3, 112308, Note_on_c, 1, 52, 0
3, 112313, Note_on_c, 1, 57, 0
3, 112313, Note_on_c, 1, 49, 0
3, 112315, Note_on_c, 1, 55, 0
3, 112315, Note_on_c, 1, 45, 0
3, 112320, Note_on_c, 1, 57, 102
3, 112320, Note_on_c, 1, 38, 98
3, 112320, Note_on_c, 1, 50, 107
3, 112320, Note_on_c, 1, 54, 93
3, 112346, Control_c, 1, 64, 127
3, 112377, Note_on_c, 1, 38, 0
3, 112391, Note_on_c, 1, 57, 0
3, 112393, Note_on_c, 1, 54, 0
3, 112394, Note_on_c, 1, 50, 0
3, 112434, Control_c, 1, 64, 0
3, 112920, Note_on_c, 1, 43, 89
3, 112920, Note_on_c, 1, 55, 107
3, 112943, Control_c, 1, 64, 127
3, 112955, Note_on_c, 1, 55, 0
3, 112960, Note_on_c, 1, 57, 93
3, 112993, Note_on_c, 1, 57, 0
3, 113000, Note_on_c, 1, 59, 107
3, 113023, Note_on_c, 1, 59, 0
3, 113029, Note_on_c, 1, 43, 0
3, 113032, Control_c, 1, 64, 0
3, 113040, Note_on_c, 1, 57, 107
3, 113040, Note_on_c, 1, 45, 93
3, 113065, Control_c, 1, 64, 127
3, 113076, Note_on_c, 1, 57, 0
3, 113080, Note_on_c, 1, 55, 85
3, 113111, Note_on_c, 1, 55, 0
3, 113120, Note_on_c, 1, 54, 89
3, 113144, Note_on_c, 1, 54, 0
3, 113149, Note_on_c, 1, 45, 0
3, 113149, Control_c, 1, 64, 0
3, 113160, Note_on_c, 1, 52, 113
3, 113160, Note_on_c, 1, 33, 89
3, 113185, Control_c, 1, 64, 127
3, 113193, Note_on_c, 1, 52, 0
3, 113200, Note_on_c, 1, 54, 107
3, 113222, Note_on_c, 1, 54, 0
3, 113240, Note_on_c, 1, 55, 93
3, 113257, Note_on_c, 1, 33, 0
3, 113260, Note_on_c, 1, 55, 0
3, 113261, Control_c, 1, 64, 0
3, 113280, Note_on_c, 1, 54, 113
3, 113280, Note_on_c, 1, 38, 89
3, 113292, Control_c, 1, 64, 127
3, 113367, Note_on_c, 1, 38, 0
3, 113369, Note_on_c, 1, 54, 0
3, 113384, Control_c, 1, 64, 0
3, 113880, Note_on_c, 1, 55, 107
3, 113880, Note_on_c, 1, 43, 102
3, 113905, Control_c, 1, 64, 127
3, 113920, Note_on_c, 1, 57, 89
3, 113921, Note_on_c, 1, 55, 0
3, 113946, Note_on_c, 1, 57, 0
3, 113960, Note_on_c, 1, 59, 98
3, 113973, Note_on_c, 1, 43, 0
3, 113976, Note_on_c, 1, 59, 0
3, 113991, Control_c, 1, 64, 0
3, 114000, Note_on_c, 1, 57, 102
3, 114000, Note_on_c, 1, 45, 98
3, 114028, Control_c, 1, 64, 127
3, 114033, Note_on_c, 1, 57, 0
3, 114040, Note_on_c, 1, 55, 89
3, 114080, Note_on_c, 1, 54, 93
3, 114081, Note_on_c, 1, 55, 0
3, 114098, Note_on_c, 1, 54, 0
3, 114110, Control_c, 1, 64, 0
3, 114111, Note_on_c, 1, 45, 0
3, 114120, Note_on_c, 1, 55, 93
3, 114120, Note_on_c, 1, 33, 89
3, 114144, Control_c, 1, 64, 127
3, 114158, Note_on_c, 1, 55, 0
3, 114160, Note_on_c, 1, 54, 98
3, 114178, Note_on_c, 1, 33, 0
3, 114198, Note_on_c, 1, 54, 0
3, 114200, Note_on_c, 1, 52, 107
3, 114220, Note_on_c, 1, 52, 0
3, 114222, Control_c, 1, 64, 0
3, 114240, Note_on_c, 1, 50, 107
3, 114240, Note_on_c, 1, 38, 93
3, 114272, Note_on_c, 1, 50, 0
3, 114280, Note_on_c, 1, 38, 0
3, 114280, Note_on_c, 1, 40, 89
3, 114280, Note_on_c, 1, 52, 98
3, 114312, Note_on_c, 1, 52, 0
3, 114320, Note_on_c, 1, 42, 76
3, 114320, Note_on_c, 1, 54, 93
3, 114324, Note_on_c, 1, 40, 0
3, 114347, Note_on_c, 1, 54, 0
3, 114354, Control_c, 1, 64, 127
3, 114358, Note_on_c, 1, 42, 0
3, 114360, Note_on_c, 1, 43, 93
3, 114360, Note_on_c, 1, 55, 98
3, 114368, Control_c, 1, 64, 0
3, 114400, Note_on_c, 1, 54, 85
3, 114400, Note_on_c, 1, 42, 68
3, 114402, Note_on_c, 1, 55, 0
3, 114402, Note_on_c, 1, 43, 0
3, 114433, Note_on_c, 1, 54, 0
3, 114435, Note_on_c, 1, 42, 0
3, 114440, Note_on_c, 1, 40, 72
3, 114440, Note_on_c, 1, 52, 98
3, 114477, Note_on_c, 1, 52, 0
3, 114480, Note_on_c, 1, 50, 107
3, 114480, Note_on_c, 1, 38, 93
3, 114482, Note_on_c, 1, 40, 0
3, 114515, Note_on_c, 1, 50, 0
3, 114520, Note_on_c, 1, 52, 93
3, 114520, Note_on_c, 1, 40, 89
3, 114522, Note_on_c, 1, 38, 0
3, 114553, Note_on_c, 1, 52, 0
3, 114560, Note_on_c, 1, 54, 98
3, 114560, Note_on_c, 1, 42, 93
3, 114568, Note_on_c, 1, 40, 0
3, 114592, Note_on_c, 1, 54, 0
3, 114598, Note_on_c, 1, 42, 0
3, 114600, Note_on_c, 1, 55, 89
3, 114600, Note_on_c, 1, 43, 107
3, 114639, Note_on_c, 1, 55, 0
3, 114640, Note_on_c, 1, 42, 60
3, 114640, Note_on_c, 1, 54, 89
3, 114644, Note_on_c, 1, 43, 0
3, 114675, Note_on_c, 1, 54, 0
3, 114680, Note_on_c, 1, 52, 98
3, 114680, Note_on_c, 1, 40, 76
3, 114681, Note_on_c, 1, 42, 0
3, 114710, Note_on_c, 1, 52, 0
3, 114711, Note_on_c, 1, 40, 0
3, 114718, Control_c, 1, 64, 127
3, 114720, Note_on_c, 1, 38, 107
3, 114720, Note_on_c, 1, 50, 107
3, 114763, Note_on_c, 1, 50, 0
3, 114765, Note_on_c, 1, 38, 0
3, 114801, Control_c, 1, 64, 0
3, 114839, Control_c, 1, 64, 127
3, 114840, Note_on_c, 1, 50, 107
3, 114840, Note_on_c, 1, 57, 107
3, 114840, Note_on_c, 1, 38, 107
3, 114840, Note_on_c, 1, 54, 113
3, 114891, Note_on_c, 1, 54, 0
3, 114892, Note_on_c, 1, 38, 0
3, 114893, Note_on_c, 1, 50, 0
3, 114894, Note_on_c, 1, 57, 0
3, 114927, Control_c, 1, 64, 0
3, 114959, Control_c, 1, 64, 127
3, 114960, Note_on_c, 1, 50, 107
3, 114960, Note_on_c, 1, 57, 102
3, 114960, Note_on_c, 1, 38, 102
3, 114960, Note_on_c, 1, 54, 102
3, 114982, Note_on_c, 1, 50, 0
3, 114983, Note_on_c, 1, 38, 0
3, 114986, Note_on_c, 1, 57, 0
3, 114990, Note_on_c, 1, 54, 0
3, 115068, Control_c, 1, 64, 0
3, 115200, Control_c, 1, 121, 0
3, 115200, End_track
4, 0, Start_track
4, 0, MIDI_port, 0
4, 0, End_track
5, 0, Start_track
5, 0, MIDI_port, 0
5, 0, Title_t, "Title: Sonate in Dmaj (K. 381, 1772)"
5, 0, End_track
6, 0, Start_track
6, 0, MIDI_port, 0
6, 0, Title_t, "Composer: W. A. Mozart"
6, 0, End_track
7, 0, Start_track
7, 0, MIDI_port, 0
7, 0, Title_t, "Sequence: Faren Raborn, Copyright 1996"
7, 0, End_track
8, 0, Start_track
8, 0, MIDI_port, 0
8, 0, Title_t, "Email: raborn@dtx.net"
8, 0, End_track
0, 0, End_of_file
