0, 0, Header, 1, 8, 120
1, 0, Start_track
1, 0, MIDI_port, 0
1, 0, System_exclusive, 5, 126, 127, 9, 1, 247
1, 0, MIDI_port, 0
1, 0, Time_signature, 4, 2, 24, 8
1, 0, Key_signature, 0, "major"
1, 0, Tempo, 461538
1, 0, Marker_t, "1st Mov't. ""Allegro"""
1, 52800, Time_signature, 3, 2, 24, 8
1, 52800, Tempo, 600000
1, 52800, Marker_t, "2nd Mov't. ""Menuetto"""
1, 70800, Key_signature, -1, "major"
1, 70800, Marker_t, "Trio"
1, 79440, Key_signature, 0, "major"
1, 90600, Time_signature, 2, 2, 24, 8
1, 90600, Marker_t, "3rd Mov't. ""Rondeau"""
1, 124200, Time_signature, 3, 2, 24, 8
1, 124200, Tempo, 750000
1, 131400, Tempo, 1000000
1, 131760, Time_signature, 2, 2, 24, 8
1, 131760, Tempo, 600000
1, 131760, End_track
2, 0, Start_track
2, 0, MIDI_port, 0
2, 0, Title_t, "Primo"
2, 0, Program_c, 0, 0
2, 0, Control_c, 0, 7, 121
2, 0, Control_c, 0, 10, 84
2, 0, Control_c, 0, 121, 0
2, 0, Control_c, 0, 7, 121
2, 0, Control_c, 0, 91, 75
2, 0, Note_on_c, 0, 76, 103
2, 0, Note_on_c, 0, 72, 99
2, 0, Note_on_c, 0, 84, 99
2, 0, Note_on_c, 0, 67, 86
2, 0, Note_on_c, 0, 64, 103
2, 2, Control_c, 0, 64, 127
2, 133, Note_on_c, 0, 72, 0
2, 138, Note_on_c, 0, 76, 0
2, 142, Note_on_c, 0, 84, 0
2, 146, Note_on_c, 0, 67, 0
2, 147, Note_on_c, 0, 64, 0
2, 239, Control_c, 0, 64, 0
2, 240, Note_on_c, 0, 84, 95
2, 240, Note_on_c, 0, 72, 90
2, 240, Note_on_c, 0, 67, 86
2, 240, Note_on_c, 0, 64, 90
2, 240, Note_on_c, 0, 76, 103
2, 271, Control_c, 0, 64, 127
2, 392, Note_on_c, 0, 72, 0
2, 395, Note_on_c, 0, 76, 0
2, 398, Note_on_c, 0, 84, 0
2, 401, Note_on_c, 0, 64, 0
2, 402, Note_on_c, 0, 67, 0
2, 475, Control_c, 0, 64, 0
2, 480, Note_on_c, 0, 76, 95
2, 480, Note_on_c, 0, 84, 99
2, 480, Note_on_c, 0, 72, 99
2, 480, Note_on_c, 0, 67, 90
2, 480, Note_on_c, 0, 64, 90
2, 508, Control_c, 0, 64, 127
2, 729, Note_on_c, 0, 67, 0
2, 729, Note_on_c, 0, 72, 0
2, 730, Note_on_c, 0, 76, 0
2, 732, Note_on_c, 0, 84, 0
2, 733, Note_on_c, 0, 64, 0
2, 737, Control_c, 0, 64, 0
2, 840, Note_on_c, 0, 79, 99
2, 846, Control_c, 0, 64, 127
2, 900, Note_on_c, 0, 76, 95
2, 903, Note_on_c, 0, 79, 0
2, 922, Note_on_c, 0, 76, 0
2, 951, Control_c, 0, 64, 0
2, 960, Note_on_c, 0, 76, 95
2, 984, Control_c, 0, 64, 127
2, 987, Note_on_c, 0, 76, 0
2, 990, Note_on_c, 0, 74, 86
2, 1011, Note_on_c, 0, 74, 0
2, 1020, Note_on_c, 0, 72, 95
2, 1047, Note_on_c, 0, 72, 0
2, 1080, Note_on_c, 0, 74, 90
2, 1080, Note_on_c, 0, 64, 72
2, 1080, Control_c, 0, 64, 0
2, 1080, Note_on_c, 0, 67, 72
2, 1106, Note_on_c, 0, 74, 0
2, 1110, Note_on_c, 0, 72, 86
2, 1114, Control_c, 0, 64, 127
2, 1134, Note_on_c, 0, 72, 0
2, 1140, Note_on_c, 0, 74, 57
2, 1157, Note_on_c, 0, 67, 0
2, 1161, Note_on_c, 0, 64, 0
2, 1166, Note_on_c, 0, 74, 0
2, 1170, Note_on_c, 0, 72, 74
2, 1194, Note_on_c, 0, 72, 0
2, 1196, Control_c, 0, 64, 0
2, 1200, Note_on_c, 0, 64, 74
2, 1200, Note_on_c, 0, 74, 82
2, 1200, Note_on_c, 0, 67, 86
2, 1225, Control_c, 0, 64, 127
2, 1227, Note_on_c, 0, 74, 0
2, 1230, Note_on_c, 0, 72, 90
2, 1257, Note_on_c, 0, 72, 0
2, 1260, Note_on_c, 0, 71, 86
2, 1273, Note_on_c, 0, 67, 0
2, 1276, Note_on_c, 0, 64, 0
2, 1288, Note_on_c, 0, 71, 0
2, 1290, Note_on_c, 0, 72, 82
2, 1307, Note_on_c, 0, 72, 0
2, 1309, Control_c, 0, 64, 0
2, 1320, Note_on_c, 0, 81, 72
2, 1358, Control_c, 0, 64, 127
2, 1380, Note_on_c, 0, 77, 90
2, 1383, Note_on_c, 0, 81, 0
2, 1436, Control_c, 0, 64, 0
2, 1440, Note_on_c, 0, 76, 95
2, 1441, Note_on_c, 0, 77, 0
2, 1467, Control_c, 0, 64, 127
2, 1494, Note_on_c, 0, 76, 0
2, 1500, Note_on_c, 0, 74, 86
2, 1531, Note_on_c, 0, 74, 0
2, 1558, Control_c, 0, 64, 0
2, 1560, Note_on_c, 0, 65, 78
2, 1560, Note_on_c, 0, 69, 86
2, 1560, Note_on_c, 0, 76, 99
2, 1584, Note_on_c, 0, 76, 0
2, 1589, Control_c, 0, 64, 127
2, 1590, Note_on_c, 0, 74, 86
2, 1613, Note_on_c, 0, 74, 0
2, 1620, Note_on_c, 0, 76, 82
2, 1645, Note_on_c, 0, 76, 0
2, 1648, Note_on_c, 0, 69, 0
2, 1650, Note_on_c, 0, 65, 0
2, 1650, Note_on_c, 0, 74, 86
2, 1670, Note_on_c, 0, 74, 0
2, 1675, Control_c, 0, 64, 0
2, 1680, Note_on_c, 0, 76, 86
2, 1680, Note_on_c, 0, 65, 82
2, 1680, Note_on_c, 0, 69, 74
2, 1703, Control_c, 0, 64, 127
2, 1708, Note_on_c, 0, 76, 0
2, 1710, Note_on_c, 0, 74, 95
2, 1735, Note_on_c, 0, 69, 0
2, 1736, Note_on_c, 0, 74, 0
2, 1740, Note_on_c, 0, 65, 0
2, 1740, Note_on_c, 0, 72, 90
2, 1768, Note_on_c, 0, 72, 0
2, 1770, Note_on_c, 0, 74, 95
2, 1778, Control_c, 0, 64, 0
2, 1793, Note_on_c, 0, 74, 0
2, 1800, Note_on_c, 0, 77, 82
2, 1830, Control_c, 0, 64, 127
2, 1860, Note_on_c, 0, 74, 86
2, 1865, Note_on_c, 0, 77, 0
2, 1911, Control_c, 0, 64, 0
2, 1918, Note_on_c, 0, 74, 0
2, 1920, Note_on_c, 0, 76, 95
2, 1946, Control_c, 0, 64, 127
2, 1980, Note_on_c, 0, 74, 90
2, 1982, Note_on_c, 0, 76, 0
2, 2032, Note_on_c, 0, 74, 0
2, 2040, Note_on_c, 0, 67, 66
2, 2040, Note_on_c, 0, 79, 99
2, 2040, Note_on_c, 0, 59, 82
2, 2042, Control_c, 0, 64, 0
2, 2075, Control_c, 0, 64, 127
2, 2108, Note_on_c, 0, 59, 0
2, 2110, Note_on_c, 0, 67, 0
2, 2160, Note_on_c, 0, 59, 86
2, 2160, Note_on_c, 0, 67, 63
2, 2220, Note_on_c, 0, 59, 0
2, 2224, Note_on_c, 0, 67, 0
2, 2235, Note_on_c, 0, 79, 0
2, 2277, Control_c, 0, 64, 0
2, 2280, Note_on_c, 0, 59, 95
2, 2280, Note_on_c, 0, 67, 66
2, 2280, Note_on_c, 0, 77, 95
2, 2304, Control_c, 0, 64, 127
2, 2328, Note_on_c, 0, 77, 0
2, 2333, Note_on_c, 0, 59, 0
2, 2337, Note_on_c, 0, 67, 0
2, 2394, Control_c, 0, 64, 0
2, 2400, Note_on_c, 0, 79, 86
2, 2400, Note_on_c, 0, 60, 86
2, 2400, Note_on_c, 0, 67, 69
2, 2430, Note_on_c, 0, 77, 82
2, 2432, Control_c, 0, 64, 127
2, 2434, Note_on_c, 0, 79, 0
2, 2456, Note_on_c, 0, 77, 0
2, 2460, Note_on_c, 0, 79, 86
2, 2486, Note_on_c, 0, 79, 0
2, 2490, Note_on_c, 0, 77, 82
2, 2517, Note_on_c, 0, 77, 0
2, 2520, Note_on_c, 0, 79, 86
2, 2547, Note_on_c, 0, 79, 0
2, 2550, Note_on_c, 0, 77, 82
2, 2579, Note_on_c, 0, 77, 0
2, 2580, Note_on_c, 0, 76, 90
2, 2607, Note_on_c, 0, 76, 0
2, 2610, Note_on_c, 0, 77, 82
2, 2614, Note_on_c, 0, 67, 0
2, 2617, Note_on_c, 0, 60, 0
2, 2631, Control_c, 0, 64, 0
2, 2633, Note_on_c, 0, 77, 0
2, 2640, Note_on_c, 0, 76, 99
2, 2640, Note_on_c, 0, 60, 90
2, 2640, Note_on_c, 0, 67, 66
2, 2660, Control_c, 0, 64, 127
2, 2753, Note_on_c, 0, 60, 0
2, 2755, Note_on_c, 0, 76, 0
2, 2763, Note_on_c, 0, 67, 0
2, 2767, Control_c, 0, 64, 0
2, 2880, Note_on_c, 0, 64, 90
2, 2880, Note_on_c, 0, 67, 86
2, 2880, Note_on_c, 0, 79, 103
2, 2880, Note_on_c, 0, 84, 99
2, 2880, Note_on_c, 0, 76, 108
2, 2880, Note_on_c, 0, 72, 90
2, 2882, Control_c, 0, 64, 127
2, 3046, Note_on_c, 0, 76, 0
2, 3047, Note_on_c, 0, 84, 0
2, 3047, Note_on_c, 0, 67, 0
2, 3048, Note_on_c, 0, 64, 0
2, 3048, Note_on_c, 0, 72, 0
2, 3049, Note_on_c, 0, 79, 0
2, 3120, Note_on_c, 0, 76, 99
2, 3120, Note_on_c, 0, 79, 108
2, 3120, Note_on_c, 0, 84, 99
2, 3120, Note_on_c, 0, 64, 90
2, 3120, Note_on_c, 0, 67, 90
2, 3120, Note_on_c, 0, 72, 90
2, 3121, Control_c, 0, 64, 0
2, 3155, Control_c, 0, 64, 127
2, 3281, Note_on_c, 0, 67, 0
2, 3284, Note_on_c, 0, 64, 0
2, 3285, Note_on_c, 0, 72, 0
2, 3288, Note_on_c, 0, 76, 0
2, 3289, Note_on_c, 0, 84, 0
2, 3290, Note_on_c, 0, 79, 0
2, 3356, Control_c, 0, 64, 0
2, 3360, Note_on_c, 0, 76, 103
2, 3360, Note_on_c, 0, 79, 103
2, 3360, Note_on_c, 0, 84, 99
2, 3360, Note_on_c, 0, 64, 103
2, 3360, Note_on_c, 0, 67, 95
2, 3360, Note_on_c, 0, 72, 90
2, 3388, Control_c, 0, 64, 127
2, 3603, Note_on_c, 0, 79, 0
2, 3605, Note_on_c, 0, 72, 0
2, 3605, Control_c, 0, 64, 0
2, 3606, Note_on_c, 0, 76, 0
2, 3607, Note_on_c, 0, 84, 0
2, 3608, Note_on_c, 0, 67, 0
2, 3610, Note_on_c, 0, 64, 0
2, 5640, Note_on_c, 0, 72, 90
2, 5653, Control_c, 0, 64, 127
2, 5670, Note_on_c, 0, 74, 82
2, 5671, Note_on_c, 0, 72, 0
2, 5697, Note_on_c, 0, 74, 0
2, 5700, Note_on_c, 0, 76, 86
2, 5723, Note_on_c, 0, 76, 0
2, 5730, Note_on_c, 0, 77, 72
2, 5738, Control_c, 0, 64, 0
2, 5751, Note_on_c, 0, 77, 0
2, 5760, Note_on_c, 0, 79, 95
2, 5760, Note_on_c, 0, 60, 86
2, 5772, Control_c, 0, 64, 127
2, 5810, Note_on_c, 0, 79, 0
2, 5820, Note_on_c, 0, 67, 86
2, 5822, Note_on_c, 0, 60, 0
2, 5842, Control_c, 0, 64, 0
2, 5850, Note_on_c, 0, 64, 72
2, 5866, Note_on_c, 0, 67, 0
2, 5880, Note_on_c, 0, 79, 103
2, 5886, Control_c, 0, 64, 127
2, 5916, Note_on_c, 0, 64, 0
2, 5940, Note_on_c, 0, 67, 78
2, 5948, Note_on_c, 0, 79, 0
2, 5980, Note_on_c, 0, 67, 0
2, 5994, Control_c, 0, 64, 0
2, 6000, Note_on_c, 0, 79, 99
2, 6000, Note_on_c, 0, 60, 72
2, 6027, Control_c, 0, 64, 127
2, 6060, Note_on_c, 0, 67, 69
2, 6065, Note_on_c, 0, 60, 0
2, 6066, Note_on_c, 0, 79, 0
2, 6116, Note_on_c, 0, 67, 0
2, 6118, Control_c, 0, 64, 0
2, 6120, Note_on_c, 0, 64, 72
2, 6120, Note_on_c, 0, 77, 95
2, 6146, Note_on_c, 0, 77, 0
2, 6148, Control_c, 0, 64, 127
2, 6150, Note_on_c, 0, 76, 78
2, 6172, Note_on_c, 0, 76, 0
2, 6180, Note_on_c, 0, 74, 90
2, 6180, Note_on_c, 0, 67, 82
2, 6184, Note_on_c, 0, 64, 0
2, 6205, Note_on_c, 0, 74, 0
2, 6210, Note_on_c, 0, 72, 90
2, 6215, Note_on_c, 0, 67, 0
2, 6235, Note_on_c, 0, 72, 0
2, 6238, Control_c, 0, 64, 0
2, 6240, Note_on_c, 0, 81, 99
2, 6240, Note_on_c, 0, 60, 86
2, 6271, Control_c, 0, 64, 127
2, 6297, Note_on_c, 0, 60, 0
2, 6300, Note_on_c, 0, 69, 90
2, 6301, Note_on_c, 0, 81, 0
2, 6349, Note_on_c, 0, 69, 0
2, 6360, Control_c, 0, 64, 0
2, 6360, Note_on_c, 0, 65, 67
2, 6360, Note_on_c, 0, 81, 103
2, 6394, Control_c, 0, 64, 127
2, 6412, Note_on_c, 0, 81, 0
2, 6420, Note_on_c, 0, 65, 0
2, 6420, Note_on_c, 0, 69, 82
2, 6469, Note_on_c, 0, 69, 0
2, 6478, Control_c, 0, 64, 0
2, 6480, Note_on_c, 0, 81, 90
2, 6480, Note_on_c, 0, 60, 74
2, 6512, Control_c, 0, 64, 127
2, 6536, Note_on_c, 0, 81, 0
2, 6540, Note_on_c, 0, 83, 99
2, 6540, Note_on_c, 0, 69, 78
2, 6542, Note_on_c, 0, 60, 0
2, 6587, Note_on_c, 0, 83, 0
2, 6593, Note_on_c, 0, 69, 0
2, 6599, Control_c, 0, 64, 0
2, 6600, Note_on_c, 0, 84, 86
2, 6600, Note_on_c, 0, 65, 70
2, 6627, Control_c, 0, 64, 127
2, 6660, Note_on_c, 0, 81, 99
2, 6660, Note_on_c, 0, 69, 82
2, 6663, Note_on_c, 0, 65, 0
2, 6664, Note_on_c, 0, 84, 0
2, 6681, Note_on_c, 0, 81, 0
2, 6698, Note_on_c, 0, 69, 0
2, 6717, Control_c, 0, 64, 0
2, 6720, Note_on_c, 0, 60, 86
2, 6720, Note_on_c, 0, 81, 90
2, 6750, Control_c, 0, 64, 127
2, 6779, Note_on_c, 0, 81, 0
2, 6780, Note_on_c, 0, 79, 86
2, 6780, Note_on_c, 0, 67, 66
2, 6783, Note_on_c, 0, 60, 0
2, 6836, Control_c, 0, 64, 0
2, 6838, Note_on_c, 0, 67, 0
2, 6840, Note_on_c, 0, 64, 82
2, 6840, Note_on_c, 0, 77, 95
2, 6843, Note_on_c, 0, 79, 0
2, 6866, Control_c, 0, 64, 127
2, 6893, Note_on_c, 0, 77, 0
2, 6897, Note_on_c, 0, 64, 0
2, 6900, Note_on_c, 0, 76, 95
2, 6900, Note_on_c, 0, 67, 72
2, 6936, Note_on_c, 0, 76, 0
2, 6944, Note_on_c, 0, 67, 0
2, 6953, Control_c, 0, 64, 0
2, 6960, Note_on_c, 0, 59, 72
2, 6960, Note_on_c, 0, 79, 82
2, 6987, Control_c, 0, 64, 127
2, 7014, Note_on_c, 0, 79, 0
2, 7020, Note_on_c, 0, 77, 86
2, 7020, Note_on_c, 0, 67, 74
2, 7022, Note_on_c, 0, 59, 0
2, 7072, Note_on_c, 0, 77, 0
2, 7074, Control_c, 0, 64, 0
2, 7076, Note_on_c, 0, 67, 0
2, 7080, Note_on_c, 0, 76, 95
2, 7080, Note_on_c, 0, 65, 82
2, 7106, Control_c, 0, 64, 127
2, 7138, Note_on_c, 0, 76, 0
2, 7139, Note_on_c, 0, 65, 0
2, 7140, Note_on_c, 0, 77, 95
2, 7140, Note_on_c, 0, 67, 86
2, 7166, Note_on_c, 0, 77, 0
2, 7184, Note_on_c, 0, 67, 0
2, 7190, Control_c, 0, 64, 0
2, 7200, Note_on_c, 0, 60, 70
2, 7200, Note_on_c, 0, 79, 95
2, 7223, Note_on_c, 0, 79, 0
2, 7223, Control_c, 0, 64, 127
2, 7230, Note_on_c, 0, 77, 86
2, 7250, Note_on_c, 0, 77, 0
2, 7258, Note_on_c, 0, 60, 0
2, 7260, Note_on_c, 0, 67, 72
2, 7260, Note_on_c, 0, 79, 90
2, 7282, Note_on_c, 0, 79, 0
2, 7290, Note_on_c, 0, 77, 86
2, 7312, Note_on_c, 0, 77, 0
2, 7320, Note_on_c, 0, 79, 74
2, 7320, Note_on_c, 0, 64, 74
2, 7320, Control_c, 0, 64, 0
2, 7322, Note_on_c, 0, 67, 0
2, 7347, Control_c, 0, 64, 127
2, 7348, Note_on_c, 0, 79, 0
2, 7350, Note_on_c, 0, 77, 90
2, 7375, Note_on_c, 0, 64, 0
2, 7376, Note_on_c, 0, 77, 0
2, 7380, Note_on_c, 0, 76, 78
2, 7380, Note_on_c, 0, 67, 72
2, 7404, Note_on_c, 0, 76, 0
2, 7410, Note_on_c, 0, 77, 86
2, 7425, Note_on_c, 0, 67, 0
2, 7425, Control_c, 0, 64, 0
2, 7433, Note_on_c, 0, 77, 0
2, 7440, Note_on_c, 0, 76, 86
2, 7440, Note_on_c, 0, 60, 74
2, 7455, Control_c, 0, 64, 127
2, 7496, Note_on_c, 0, 76, 0
2, 7500, Note_on_c, 0, 67, 78
2, 7502, Note_on_c, 0, 60, 0
2, 7549, Note_on_c, 0, 67, 0
2, 7557, Control_c, 0, 64, 0
2, 7560, Note_on_c, 0, 72, 82
2, 7560, Note_on_c, 0, 64, 67
2, 7585, Note_on_c, 0, 72, 0
2, 7585, Control_c, 0, 64, 127
2, 7590, Note_on_c, 0, 74, 86
2, 7614, Note_on_c, 0, 74, 0
2, 7620, Note_on_c, 0, 64, 0
2, 7620, Note_on_c, 0, 76, 86
2, 7620, Note_on_c, 0, 67, 70
2, 7645, Note_on_c, 0, 76, 0
2, 7650, Note_on_c, 0, 77, 82
2, 7662, Note_on_c, 0, 67, 0
2, 7670, Note_on_c, 0, 77, 0
2, 7672, Control_c, 0, 64, 0
2, 7680, Note_on_c, 0, 79, 90
2, 7680, Note_on_c, 0, 60, 72
2, 7701, Control_c, 0, 64, 127
2, 7713, Note_on_c, 0, 79, 0
2, 7738, Note_on_c, 0, 60, 0
2, 7740, Note_on_c, 0, 67, 78
2, 7784, Note_on_c, 0, 67, 0
2, 7789, Control_c, 0, 64, 0
2, 7800, Note_on_c, 0, 64, 82
2, 7800, Note_on_c, 0, 79, 99
2, 7823, Control_c, 0, 64, 127
2, 7858, Note_on_c, 0, 79, 0
2, 7859, Note_on_c, 0, 64, 0
2, 7860, Note_on_c, 0, 67, 69
2, 7899, Note_on_c, 0, 67, 0
2, 7916, Control_c, 0, 64, 0
2, 7920, Note_on_c, 0, 60, 72
2, 7920, Note_on_c, 0, 79, 99
2, 7947, Control_c, 0, 64, 127
2, 7980, Note_on_c, 0, 67, 82
2, 7984, Note_on_c, 0, 60, 0
2, 7989, Note_on_c, 0, 79, 0
2, 8032, Note_on_c, 0, 67, 0
2, 8035, Control_c, 0, 64, 0
2, 8040, Note_on_c, 0, 64, 78
2, 8040, Note_on_c, 0, 77, 99
2, 8065, Note_on_c, 0, 77, 0
2, 8066, Control_c, 0, 64, 127
2, 8070, Note_on_c, 0, 76, 99
2, 8095, Note_on_c, 0, 76, 0
2, 8100, Note_on_c, 0, 74, 78
2, 8100, Note_on_c, 0, 67, 86
2, 8103, Control_c, 0, 64, 0
2, 8104, Note_on_c, 0, 64, 0
2, 8123, Note_on_c, 0, 74, 0
2, 8123, Control_c, 0, 64, 127
2, 8130, Note_on_c, 0, 72, 90
2, 8145, Note_on_c, 0, 67, 0
2, 8152, Control_c, 0, 64, 0
2, 8156, Note_on_c, 0, 72, 0
2, 8160, Note_on_c, 0, 60, 86
2, 8160, Note_on_c, 0, 81, 103
2, 8187, Control_c, 0, 64, 127
2, 8209, Note_on_c, 0, 81, 0
2, 8219, Note_on_c, 0, 60, 0
2, 8220, Note_on_c, 0, 69, 74
2, 8259, Control_c, 0, 64, 0
2, 8268, Note_on_c, 0, 69, 0
2, 8280, Note_on_c, 0, 81, 99
2, 8280, Note_on_c, 0, 65, 74
2, 8298, Control_c, 0, 64, 127
2, 8336, Note_on_c, 0, 65, 0
2, 8340, Note_on_c, 0, 69, 69
2, 8357, Note_on_c, 0, 81, 0
2, 8394, Note_on_c, 0, 69, 0
2, 8397, Control_c, 0, 64, 0
2, 8400, Note_on_c, 0, 60, 74
2, 8400, Note_on_c, 0, 81, 103
2, 8428, Control_c, 0, 64, 127
2, 8459, Note_on_c, 0, 81, 0
2, 8460, Note_on_c, 0, 83, 99
2, 8460, Note_on_c, 0, 69, 82
2, 8482, Note_on_c, 0, 60, 0
2, 8490, Note_on_c, 0, 83, 0
2, 8516, Note_on_c, 0, 69, 0
2, 8519, Control_c, 0, 64, 0
2, 8520, Note_on_c, 0, 84, 90
2, 8520, Note_on_c, 0, 65, 72
2, 8548, Control_c, 0, 64, 127
2, 8579, Note_on_c, 0, 65, 0
2, 8580, Note_on_c, 0, 69, 72
2, 8580, Note_on_c, 0, 81, 99
2, 8582, Note_on_c, 0, 84, 0
2, 8601, Note_on_c, 0, 81, 0
2, 8623, Note_on_c, 0, 69, 0
2, 8636, Control_c, 0, 64, 0
2, 8640, Note_on_c, 0, 60, 72
2, 8640, Note_on_c, 0, 81, 90
2, 8670, Control_c, 0, 64, 127
2, 8698, Note_on_c, 0, 81, 0
2, 8700, Note_on_c, 0, 67, 69
2, 8700, Note_on_c, 0, 79, 90
2, 8702, Note_on_c, 0, 60, 0
2, 8755, Control_c, 0, 64, 0
2, 8757, Note_on_c, 0, 79, 0
2, 8760, Note_on_c, 0, 77, 90
2, 8760, Note_on_c, 0, 64, 72
2, 8761, Note_on_c, 0, 67, 0
2, 8784, Control_c, 0, 64, 127
2, 8817, Note_on_c, 0, 64, 0
2, 8817, Note_on_c, 0, 77, 0
2, 8820, Note_on_c, 0, 76, 90
2, 8820, Note_on_c, 0, 67, 82
2, 8844, Note_on_c, 0, 76, 0
2, 8866, Note_on_c, 0, 67, 0
2, 8874, Control_c, 0, 64, 0
2, 8880, Note_on_c, 0, 59, 65
2, 8880, Note_on_c, 0, 76, 82
2, 8880, Note_on_c, 0, 79, 95
2, 8904, Control_c, 0, 64, 127
2, 8909, Note_on_c, 0, 76, 0
2, 8923, Note_on_c, 0, 79, 0
2, 8940, Note_on_c, 0, 75, 86
2, 8940, Note_on_c, 0, 78, 74
2, 8940, Note_on_c, 0, 67, 82
2, 8945, Note_on_c, 0, 59, 0
2, 8966, Note_on_c, 0, 75, 0
2, 8967, Note_on_c, 0, 78, 0
2, 8987, Note_on_c, 0, 67, 0
2, 8998, Control_c, 0, 64, 0
2, 9000, Note_on_c, 0, 60, 54
2, 9000, Note_on_c, 0, 74, 86
2, 9000, Note_on_c, 0, 77, 99
2, 9030, Control_c, 0, 64, 127
2, 9047, Note_on_c, 0, 74, 0
2, 9051, Note_on_c, 0, 77, 0
2, 9055, Note_on_c, 0, 60, 0
2, 9060, Note_on_c, 0, 64, 67
2, 9060, Note_on_c, 0, 76, 90
2, 9060, Note_on_c, 0, 72, 86
2, 9081, Note_on_c, 0, 72, 0
2, 9084, Note_on_c, 0, 64, 0
2, 9089, Note_on_c, 0, 76, 0
2, 9109, Control_c, 0, 64, 0
2, 9120, Note_on_c, 0, 71, 90
2, 9120, Note_on_c, 0, 74, 99
2, 9120, Note_on_c, 0, 67, 82
2, 9141, Control_c, 0, 64, 127
2, 9178, Note_on_c, 0, 74, 0
2, 9179, Note_on_c, 0, 71, 0
2, 9180, Note_on_c, 0, 67, 0
2, 9237, Control_c, 0, 64, 0
2, 9240, Note_on_c, 0, 67, 74
2, 9240, Note_on_c, 0, 71, 86
2, 9240, Note_on_c, 0, 74, 99
2, 9266, Control_c, 0, 64, 127
2, 9291, Note_on_c, 0, 71, 0
2, 9296, Note_on_c, 0, 74, 0
2, 9298, Note_on_c, 0, 67, 0
2, 9350, Control_c, 0, 64, 0
2, 9360, Note_on_c, 0, 71, 90
2, 9360, Note_on_c, 0, 74, 95
2, 9360, Note_on_c, 0, 67, 90
2, 9379, Control_c, 0, 64, 127
2, 9406, Note_on_c, 0, 67, 0
2, 9408, Note_on_c, 0, 71, 0
2, 9415, Note_on_c, 0, 74, 0
2, 9492, Control_c, 0, 64, 0
2, 9600, Note_on_c, 0, 74, 117
2, 9600, Note_on_c, 0, 67, 86
2, 9600, Note_on_c, 0, 71, 99
2, 9608, Control_c, 0, 64, 127
2, 9657, Note_on_c, 0, 74, 0
2, 9660, Note_on_c, 0, 79, 108
2, 9706, Note_on_c, 0, 79, 0
2, 9720, Note_on_c, 0, 83, 103
2, 9750, Note_on_c, 0, 83, 0
2, 9780, Note_on_c, 0, 86, 103
2, 9809, Note_on_c, 0, 86, 0
2, 9837, Note_on_c, 0, 71, 0
2, 9840, Note_on_c, 0, 67, 0
2, 9840, Note_on_c, 0, 84, 108
2, 9841, Control_c, 0, 64, 0
2, 9900, Note_on_c, 0, 83, 95
2, 9903, Note_on_c, 0, 84, 0
2, 9960, Note_on_c, 0, 81, 99
2, 9962, Note_on_c, 0, 83, 0
2, 9982, Control_c, 0, 64, 127
2, 10020, Note_on_c, 0, 79, 108
2, 10021, Note_on_c, 0, 81, 0
2, 10045, Note_on_c, 0, 79, 0
2, 10071, Control_c, 0, 64, 0
2, 10080, Note_on_c, 0, 79, 99
2, 10080, Note_on_c, 0, 69, 86
2, 10108, Control_c, 0, 64, 127
2, 10138, Note_on_c, 0, 79, 0
2, 10140, Note_on_c, 0, 78, 90
2, 10140, Note_on_c, 0, 72, 72
2, 10145, Note_on_c, 0, 69, 0
2, 10177, Note_on_c, 0, 78, 0
2, 10197, Note_on_c, 0, 72, 0
2, 10200, Note_on_c, 0, 74, 86
2, 10200, Note_on_c, 0, 78, 117
2, 10206, Control_c, 0, 64, 0
2, 10241, Control_c, 0, 64, 127
2, 10260, Note_on_c, 0, 72, 74
2, 10274, Note_on_c, 0, 74, 0
2, 10319, Note_on_c, 0, 72, 0
2, 10320, Note_on_c, 0, 69, 74
2, 10334, Control_c, 0, 64, 0
2, 10367, Control_c, 0, 64, 127
2, 10380, Note_on_c, 0, 72, 72
2, 10386, Note_on_c, 0, 69, 0
2, 10416, Note_on_c, 0, 78, 0
2, 10439, Note_on_c, 0, 72, 0
2, 10440, Note_on_c, 0, 74, 82
2, 10488, Note_on_c, 0, 74, 0
2, 10500, Note_on_c, 0, 72, 69
2, 10524, Note_on_c, 0, 72, 0
2, 10560, Note_on_c, 0, 74, 72
2, 10560, Note_on_c, 0, 71, 63
2, 10560, Note_on_c, 0, 67, 72
2, 10563, Control_c, 0, 64, 0
2, 10607, Control_c, 0, 64, 127
2, 10618, Note_on_c, 0, 74, 0
2, 10620, Note_on_c, 0, 79, 74
2, 10666, Note_on_c, 0, 79, 0
2, 10680, Note_on_c, 0, 83, 82
2, 10727, Note_on_c, 0, 83, 0
2, 10740, Note_on_c, 0, 86, 74
2, 10743, Note_on_c, 0, 71, 0
2, 10748, Note_on_c, 0, 67, 0
2, 10799, Note_on_c, 0, 86, 0
2, 10800, Note_on_c, 0, 84, 82
2, 10803, Control_c, 0, 64, 0
2, 10860, Note_on_c, 0, 84, 0
2, 10860, Note_on_c, 0, 83, 82
2, 10920, Note_on_c, 0, 81, 74
2, 10923, Note_on_c, 0, 83, 0
2, 10933, Control_c, 0, 64, 127
2, 10980, Note_on_c, 0, 81, 0
2, 10980, Note_on_c, 0, 79, 78
2, 11005, Note_on_c, 0, 79, 0
2, 11035, Control_c, 0, 64, 0
2, 11040, Note_on_c, 0, 79, 78
2, 11040, Note_on_c, 0, 69, 66
2, 11069, Control_c, 0, 64, 127
2, 11098, Note_on_c, 0, 79, 0
2, 11100, Note_on_c, 0, 78, 86
2, 11100, Note_on_c, 0, 72, 65
2, 11101, Note_on_c, 0, 69, 0
2, 11131, Note_on_c, 0, 78, 0
2, 11150, Note_on_c, 0, 72, 0
2, 11160, Note_on_c, 0, 78, 74
2, 11160, Note_on_c, 0, 74, 62
2, 11165, Control_c, 0, 64, 0
2, 11199, Control_c, 0, 64, 127
2, 11220, Note_on_c, 0, 72, 62
2, 11232, Note_on_c, 0, 74, 0
2, 11278, Note_on_c, 0, 72, 0
2, 11280, Note_on_c, 0, 69, 74
2, 11296, Control_c, 0, 64, 0
2, 11328, Control_c, 0, 64, 127
2, 11338, Note_on_c, 0, 69, 0
2, 11340, Note_on_c, 0, 72, 70
2, 11398, Note_on_c, 0, 72, 0
2, 11400, Note_on_c, 0, 74, 74
2, 11431, Note_on_c, 0, 78, 0
2, 11460, Note_on_c, 0, 72, 82
2, 11461, Note_on_c, 0, 74, 0
2, 11502, Note_on_c, 0, 72, 0
2, 11520, Control_c, 0, 64, 0
2, 11520, Note_on_c, 0, 71, 86
2, 11550, Note_on_c, 0, 74, 74
2, 11553, Note_on_c, 0, 71, 0
2, 11580, Note_on_c, 0, 76, 90
2, 11581, Note_on_c, 0, 74, 0
2, 11608, Note_on_c, 0, 76, 0
2, 11610, Note_on_c, 0, 78, 86
2, 11634, Note_on_c, 0, 78, 0
2, 11640, Note_on_c, 0, 79, 86
2, 11670, Note_on_c, 0, 81, 82
2, 11675, Note_on_c, 0, 79, 0
2, 11697, Note_on_c, 0, 81, 0
2, 11700, Note_on_c, 0, 83, 90
2, 11723, Note_on_c, 0, 83, 0
2, 11730, Note_on_c, 0, 84, 99
2, 11755, Note_on_c, 0, 84, 0
2, 11760, Note_on_c, 0, 86, 99
2, 11760, Note_on_c, 0, 71, 90
2, 11788, Note_on_c, 0, 86, 0
2, 11790, Note_on_c, 0, 84, 86
2, 11812, Note_on_c, 0, 71, 0
2, 11820, Note_on_c, 0, 83, 95
2, 11827, Note_on_c, 0, 84, 0
2, 11850, Note_on_c, 0, 81, 90
2, 11856, Note_on_c, 0, 83, 0
2, 11877, Note_on_c, 0, 81, 0
2, 11880, Note_on_c, 0, 79, 74
2, 11910, Note_on_c, 0, 78, 82
2, 11911, Note_on_c, 0, 79, 0
2, 11939, Note_on_c, 0, 78, 0
2, 11940, Note_on_c, 0, 76, 95
2, 11970, Note_on_c, 0, 74, 78
2, 11971, Note_on_c, 0, 76, 0
2, 11993, Note_on_c, 0, 74, 0
2, 12000, Note_on_c, 0, 72, 99
2, 12030, Note_on_c, 0, 76, 99
2, 12060, Note_on_c, 0, 78, 78
2, 12061, Note_on_c, 0, 76, 0
2, 12085, Note_on_c, 0, 78, 0
2, 12090, Note_on_c, 0, 79, 103
2, 12116, Note_on_c, 0, 79, 0
2, 12120, Note_on_c, 0, 81, 95
2, 12123, Note_on_c, 0, 72, 0
2, 12150, Note_on_c, 0, 81, 0
2, 12150, Note_on_c, 0, 83, 90
2, 12176, Note_on_c, 0, 83, 0
2, 12180, Note_on_c, 0, 84, 99
2, 12207, Note_on_c, 0, 84, 0
2, 12210, Note_on_c, 0, 86, 86
2, 12227, Note_on_c, 0, 86, 0
2, 12240, Note_on_c, 0, 88, 112
2, 12262, Control_c, 0, 64, 127
2, 12363, Note_on_c, 0, 88, 0
2, 12475, Control_c, 0, 64, 0
2, 12480, Note_on_c, 0, 83, 99
2, 12480, Note_on_c, 0, 74, 65
2, 12480, Note_on_c, 0, 71, 78
2, 12510, Control_c, 0, 64, 127
2, 12521, Note_on_c, 0, 71, 0
2, 12524, Note_on_c, 0, 74, 0
2, 12540, Note_on_c, 0, 74, 86
2, 12540, Note_on_c, 0, 71, 72
2, 12560, Note_on_c, 0, 71, 0
2, 12563, Note_on_c, 0, 74, 0
2, 12600, Note_on_c, 0, 71, 72
2, 12600, Note_on_c, 0, 74, 82
2, 12611, Note_on_c, 0, 83, 0
2, 12622, Note_on_c, 0, 74, 0
2, 12623, Note_on_c, 0, 71, 0
2, 12660, Note_on_c, 0, 84, 99
2, 12660, Note_on_c, 0, 71, 74
2, 12660, Note_on_c, 0, 74, 78
2, 12681, Note_on_c, 0, 74, 0
2, 12684, Note_on_c, 0, 71, 0
2, 12688, Note_on_c, 0, 84, 0
2, 12720, Note_on_c, 0, 74, 78
2, 12720, Note_on_c, 0, 81, 99
2, 12720, Note_on_c, 0, 72, 72
2, 12725, Control_c, 0, 64, 0
2, 12755, Note_on_c, 0, 72, 0
2, 12758, Note_on_c, 0, 74, 0
2, 12759, Control_c, 0, 64, 127
2, 12780, Note_on_c, 0, 72, 72
2, 12780, Note_on_c, 0, 74, 78
2, 12801, Note_on_c, 0, 74, 0
2, 12804, Note_on_c, 0, 72, 0
2, 12840, Note_on_c, 0, 72, 74
2, 12840, Note_on_c, 0, 74, 74
2, 12861, Note_on_c, 0, 74, 0
2, 12863, Note_on_c, 0, 72, 0
2, 12884, Note_on_c, 0, 81, 0
2, 12900, Note_on_c, 0, 74, 86
2, 12900, Note_on_c, 0, 72, 74
2, 12921, Note_on_c, 0, 72, 0
2, 12921, Note_on_c, 0, 74, 0
2, 12960, Note_on_c, 0, 74, 103
2, 12960, Note_on_c, 0, 71, 78
2, 12960, Note_on_c, 0, 67, 82
2, 12961, Control_c, 0, 64, 0
2, 12991, Control_c, 0, 64, 127
2, 13019, Note_on_c, 0, 74, 0
2, 13020, Note_on_c, 0, 79, 99
2, 13026, Note_on_c, 0, 71, 0
2, 13028, Note_on_c, 0, 67, 0
2, 13043, Control_c, 0, 64, 0
2, 13079, Note_on_c, 0, 79, 0
2, 13080, Note_on_c, 0, 83, 86
2, 13102, Control_c, 0, 64, 127
2, 13118, Note_on_c, 0, 83, 0
2, 13140, Note_on_c, 0, 83, 99
2, 13163, Note_on_c, 0, 83, 0
2, 13196, Control_c, 0, 64, 0
2, 13200, Note_on_c, 0, 66, 72
2, 13200, Note_on_c, 0, 74, 90
2, 13200, Note_on_c, 0, 72, 86
2, 13236, Control_c, 0, 64, 127
2, 13258, Note_on_c, 0, 74, 0
2, 13260, Note_on_c, 0, 81, 86
2, 13320, Note_on_c, 0, 84, 99
2, 13322, Note_on_c, 0, 81, 0
2, 13325, Control_c, 0, 64, 0
2, 13329, Note_on_c, 0, 72, 0
2, 13334, Note_on_c, 0, 66, 0
2, 13353, Control_c, 0, 64, 127
2, 13362, Note_on_c, 0, 84, 0
2, 13380, Note_on_c, 0, 84, 95
2, 13406, Note_on_c, 0, 84, 0
2, 13433, Control_c, 0, 64, 0
2, 13440, Note_on_c, 0, 83, 103
2, 13440, Note_on_c, 0, 67, 86
2, 13440, Note_on_c, 0, 71, 82
2, 13440, Note_on_c, 0, 74, 90
2, 13466, Control_c, 0, 64, 127
2, 13558, Note_on_c, 0, 71, 0
2, 13558, Control_c, 0, 64, 0
2, 13559, Note_on_c, 0, 74, 0
2, 13560, Note_on_c, 0, 67, 0
2, 13563, Note_on_c, 0, 83, 0
2, 13920, Note_on_c, 0, 74, 82
2, 13920, Note_on_c, 0, 67, 66
2, 13920, Note_on_c, 0, 71, 67
2, 13945, Control_c, 0, 64, 127
2, 13980, Note_on_c, 0, 79, 66
2, 13984, Note_on_c, 0, 74, 0
2, 14032, Note_on_c, 0, 79, 0
2, 14040, Note_on_c, 0, 83, 72
2, 14063, Note_on_c, 0, 71, 0
2, 14067, Note_on_c, 0, 83, 0
2, 14069, Note_on_c, 0, 67, 0
2, 14100, Note_on_c, 0, 83, 69
2, 14109, Note_on_c, 0, 83, 0
2, 14145, Control_c, 0, 64, 0
2, 14160, Note_on_c, 0, 66, 74
2, 14160, Note_on_c, 0, 74, 78
2, 14160, Note_on_c, 0, 72, 63
2, 14190, Control_c, 0, 64, 127
2, 14220, Note_on_c, 0, 81, 82
2, 14221, Note_on_c, 0, 74, 0
2, 14228, Note_on_c, 0, 72, 0
2, 14232, Note_on_c, 0, 66, 0
2, 14270, Note_on_c, 0, 81, 0
2, 14275, Control_c, 0, 64, 0
2, 14280, Note_on_c, 0, 84, 86
2, 14306, Control_c, 0, 64, 127
2, 14323, Note_on_c, 0, 84, 0
2, 14340, Note_on_c, 0, 84, 78
2, 14362, Note_on_c, 0, 84, 0
2, 14389, Control_c, 0, 64, 0
2, 14400, Note_on_c, 0, 83, 74
2, 14400, Note_on_c, 0, 74, 69
2, 14400, Note_on_c, 0, 71, 69
2, 14400, Note_on_c, 0, 67, 82
2, 14419, Control_c, 0, 64, 127
2, 14476, Note_on_c, 0, 71, 0
2, 14478, Note_on_c, 0, 67, 0
2, 14484, Note_on_c, 0, 74, 0
2, 14485, Note_on_c, 0, 83, 0
2, 14514, Control_c, 0, 64, 0
2, 14880, Note_on_c, 0, 84, 103
2, 14880, Note_on_c, 0, 72, 86
2, 14880, Note_on_c, 0, 76, 103
2, 14896, Control_c, 0, 64, 127
2, 15000, Control_c, 0, 64, 0
2, 15002, Note_on_c, 0, 76, 0
2, 15002, Note_on_c, 0, 72, 0
2, 15009, Note_on_c, 0, 84, 0
2, 15120, Note_on_c, 0, 71, 86
2, 15120, Note_on_c, 0, 83, 108
2, 15120, Note_on_c, 0, 74, 99
2, 15130, Control_c, 0, 64, 127
2, 15192, Note_on_c, 0, 83, 0
2, 15192, Note_on_c, 0, 71, 0
2, 15196, Note_on_c, 0, 74, 0
2, 15257, Control_c, 0, 64, 0
2, 15360, Note_on_c, 0, 74, 90
2, 15360, Note_on_c, 0, 71, 86
2, 15360, Note_on_c, 0, 83, 95
2, 15360, Note_on_c, 0, 67, 95
2, 15391, Control_c, 0, 64, 127
2, 15414, Note_on_c, 0, 71, 0
2, 15415, Note_on_c, 0, 74, 0
2, 15415, Note_on_c, 0, 67, 0
2, 15420, Note_on_c, 0, 84, 95
2, 15424, Note_on_c, 0, 83, 0
2, 15468, Control_c, 0, 64, 0
2, 15477, Note_on_c, 0, 84, 0
2, 15480, Note_on_c, 0, 85, 103
2, 15537, Note_on_c, 0, 85, 0
2, 15540, Note_on_c, 0, 86, 108
2, 15600, Note_on_c, 0, 84, 103
2, 15607, Note_on_c, 0, 86, 0
2, 15660, Note_on_c, 0, 83, 99
2, 15663, Note_on_c, 0, 84, 0
2, 15720, Note_on_c, 0, 81, 99
2, 15723, Note_on_c, 0, 83, 0
2, 15780, Note_on_c, 0, 79, 99
2, 15790, Note_on_c, 0, 81, 0
2, 15833, Note_on_c, 0, 79, 0
2, 15840, Note_on_c, 0, 69, 78
2, 15840, Note_on_c, 0, 83, 99
2, 15869, Note_on_c, 0, 83, 0
2, 15870, Control_c, 0, 64, 127
2, 15870, Note_on_c, 0, 81, 86
2, 15893, Note_on_c, 0, 81, 0
2, 15897, Note_on_c, 0, 69, 0
2, 15900, Note_on_c, 0, 83, 99
2, 15900, Note_on_c, 0, 74, 74
2, 15905, Control_c, 0, 64, 0
2, 15926, Control_c, 0, 64, 127
2, 15928, Note_on_c, 0, 83, 0
2, 15930, Note_on_c, 0, 81, 103
2, 15953, Note_on_c, 0, 81, 0
2, 15957, Note_on_c, 0, 74, 0
2, 15960, Note_on_c, 0, 83, 99
2, 15960, Note_on_c, 0, 72, 82
2, 15962, Control_c, 0, 64, 0
2, 15986, Control_c, 0, 64, 127
2, 15988, Note_on_c, 0, 83, 0
2, 15990, Note_on_c, 0, 81, 90
2, 16010, Note_on_c, 0, 81, 0
2, 16018, Note_on_c, 0, 72, 0
2, 16020, Note_on_c, 0, 83, 78
2, 16020, Note_on_c, 0, 74, 78
2, 16047, Note_on_c, 0, 83, 0
2, 16050, Note_on_c, 0, 81, 86
2, 16063, Note_on_c, 0, 74, 0
2, 16070, Note_on_c, 0, 81, 0
2, 16070, Control_c, 0, 64, 0
2, 16080, Note_on_c, 0, 83, 103
2, 16080, Note_on_c, 0, 69, 82
2, 16099, Control_c, 0, 64, 127
2, 16105, Note_on_c, 0, 83, 0
2, 16110, Note_on_c, 0, 81, 90
2, 16130, Note_on_c, 0, 69, 0
2, 16132, Note_on_c, 0, 81, 0
2, 16140, Note_on_c, 0, 83, 99
2, 16140, Note_on_c, 0, 74, 82
2, 16166, Note_on_c, 0, 83, 0
2, 16170, Note_on_c, 0, 81, 82
2, 16194, Note_on_c, 0, 81, 0
2, 16194, Note_on_c, 0, 74, 0
2, 16200, Note_on_c, 0, 83, 99
2, 16200, Note_on_c, 0, 72, 78
2, 16223, Note_on_c, 0, 83, 0
2, 16230, Note_on_c, 0, 81, 74
2, 16255, Note_on_c, 0, 72, 0
2, 16256, Note_on_c, 0, 81, 0
2, 16260, Note_on_c, 0, 79, 99
2, 16260, Note_on_c, 0, 74, 82
2, 16290, Note_on_c, 0, 81, 99
2, 16292, Note_on_c, 0, 79, 0
2, 16305, Note_on_c, 0, 74, 0
2, 16310, Control_c, 0, 64, 0
2, 16311, Note_on_c, 0, 81, 0
2, 16320, Note_on_c, 0, 71, 70
2, 16320, Note_on_c, 0, 79, 103
2, 16348, Control_c, 0, 64, 127
2, 16380, Note_on_c, 0, 71, 0
2, 16380, Note_on_c, 0, 74, 82
2, 16440, Note_on_c, 0, 72, 72
2, 16441, Note_on_c, 0, 74, 0
2, 16459, Note_on_c, 0, 79, 0
2, 16500, Note_on_c, 0, 80, 95
2, 16500, Note_on_c, 0, 74, 82
2, 16503, Note_on_c, 0, 72, 0
2, 16558, Note_on_c, 0, 80, 0
2, 16560, Note_on_c, 0, 81, 95
2, 16560, Note_on_c, 0, 72, 72
2, 16561, Note_on_c, 0, 74, 0
2, 16561, Control_c, 0, 64, 0
2, 16598, Control_c, 0, 64, 127
2, 16620, Note_on_c, 0, 83, 99
2, 16620, Note_on_c, 0, 74, 78
2, 16623, Note_on_c, 0, 72, 0
2, 16624, Note_on_c, 0, 81, 0
2, 16673, Note_on_c, 0, 83, 0
2, 16677, Note_on_c, 0, 74, 0
2, 16680, Note_on_c, 0, 72, 72
2, 16680, Note_on_c, 0, 84, 90
2, 16740, Note_on_c, 0, 72, 0
2, 16740, Note_on_c, 0, 74, 82
2, 16740, Note_on_c, 0, 81, 86
2, 16742, Note_on_c, 0, 84, 0
2, 16779, Note_on_c, 0, 81, 0
2, 16791, Note_on_c, 0, 74, 0
2, 16800, Note_on_c, 0, 79, 99
2, 16800, Note_on_c, 0, 71, 66
2, 16802, Control_c, 0, 64, 0
2, 16844, Control_c, 0, 64, 127
2, 16856, Note_on_c, 0, 71, 0
2, 16860, Note_on_c, 0, 74, 66
2, 16915, Note_on_c, 0, 79, 0
2, 16920, Note_on_c, 0, 71, 74
2, 16923, Note_on_c, 0, 74, 0
2, 16974, Note_on_c, 0, 71, 0
2, 16980, Note_on_c, 0, 74, 74
2, 16980, Note_on_c, 0, 80, 90
2, 17013, Note_on_c, 0, 80, 0
2, 17027, Note_on_c, 0, 74, 0
2, 17040, Note_on_c, 0, 81, 78
2, 17040, Note_on_c, 0, 72, 61
2, 17047, Control_c, 0, 64, 0
2, 17083, Control_c, 0, 64, 127
2, 17095, Note_on_c, 0, 72, 0
2, 17096, Note_on_c, 0, 81, 0
2, 17100, Note_on_c, 0, 83, 78
2, 17100, Note_on_c, 0, 74, 69
2, 17155, Note_on_c, 0, 83, 0
2, 17157, Note_on_c, 0, 74, 0
2, 17160, Note_on_c, 0, 72, 66
2, 17160, Note_on_c, 0, 84, 82
2, 17165, Control_c, 0, 64, 0
2, 17192, Control_c, 0, 64, 127
2, 17215, Note_on_c, 0, 84, 0
2, 17216, Note_on_c, 0, 72, 0
2, 17220, Note_on_c, 0, 74, 72
2, 17220, Note_on_c, 0, 81, 78
2, 17261, Note_on_c, 0, 81, 0
2, 17278, Note_on_c, 0, 74, 0
2, 17280, Note_on_c, 0, 71, 69
2, 17280, Note_on_c, 0, 79, 90
2, 17283, Control_c, 0, 64, 0
2, 17318, Control_c, 0, 64, 127
2, 17340, Note_on_c, 0, 74, 72
2, 17341, Note_on_c, 0, 71, 0
2, 17354, Note_on_c, 0, 79, 0
2, 17398, Note_on_c, 0, 74, 0
2, 17400, Note_on_c, 0, 81, 86
2, 17400, Note_on_c, 0, 72, 60
2, 17404, Control_c, 0, 64, 0
2, 17437, Control_c, 0, 64, 127
2, 17460, Note_on_c, 0, 74, 69
2, 17461, Note_on_c, 0, 72, 0
2, 17467, Note_on_c, 0, 81, 0
2, 17490, Note_on_c, 0, 78, 78
2, 17508, Note_on_c, 0, 74, 0
2, 17513, Note_on_c, 0, 78, 0
2, 17513, Control_c, 0, 64, 0
2, 17520, Note_on_c, 0, 71, 67
2, 17520, Note_on_c, 0, 79, 86
2, 17547, Control_c, 0, 64, 127
2, 17558, Note_on_c, 0, 79, 0
2, 17579, Note_on_c, 0, 71, 0
2, 17580, Note_on_c, 0, 74, 82
2, 17635, Note_on_c, 0, 74, 0
2, 17636, Control_c, 0, 64, 0
2, 17640, Note_on_c, 0, 72, 72
2, 17640, Note_on_c, 0, 86, 103
2, 17669, Control_c, 0, 64, 127
2, 17700, Note_on_c, 0, 74, 67
2, 17704, Note_on_c, 0, 86, 0
2, 17704, Note_on_c, 0, 72, 0
2, 17730, Note_on_c, 0, 78, 74
2, 17743, Note_on_c, 0, 74, 0
2, 17745, Note_on_c, 0, 78, 0
2, 17758, Control_c, 0, 64, 0
2, 17760, Note_on_c, 0, 79, 86
2, 17760, Note_on_c, 0, 71, 70
2, 17792, Control_c, 0, 64, 127
2, 17819, Note_on_c, 0, 71, 0
2, 17820, Note_on_c, 0, 74, 74
2, 17826, Note_on_c, 0, 79, 0
2, 17869, Note_on_c, 0, 74, 0
2, 17880, Note_on_c, 0, 72, 67
2, 17880, Note_on_c, 0, 81, 90
2, 17880, Control_c, 0, 64, 0
2, 17912, Control_c, 0, 64, 127
2, 17940, Note_on_c, 0, 74, 78
2, 17942, Note_on_c, 0, 72, 0
2, 17953, Note_on_c, 0, 81, 0
2, 17970, Note_on_c, 0, 78, 70
2, 17984, Note_on_c, 0, 74, 0
2, 17988, Control_c, 0, 64, 0
2, 17989, Note_on_c, 0, 78, 0
2, 18000, Note_on_c, 0, 71, 74
2, 18000, Note_on_c, 0, 79, 86
2, 18019, Control_c, 0, 64, 127
2, 18037, Note_on_c, 0, 79, 0
2, 18060, Note_on_c, 0, 74, 78
2, 18061, Note_on_c, 0, 71, 0
2, 18112, Note_on_c, 0, 74, 0
2, 18115, Control_c, 0, 64, 0
2, 18120, Note_on_c, 0, 72, 86
2, 18120, Note_on_c, 0, 86, 103
2, 18146, Control_c, 0, 64, 127
2, 18180, Note_on_c, 0, 74, 70
2, 18181, Note_on_c, 0, 72, 0
2, 18205, Note_on_c, 0, 86, 0
2, 18208, Note_on_c, 0, 74, 0
2, 18210, Note_on_c, 0, 78, 72
2, 18229, Control_c, 0, 64, 0
2, 18230, Note_on_c, 0, 78, 0
2, 18240, Note_on_c, 0, 79, 103
2, 18240, Note_on_c, 0, 74, 74
2, 18240, Note_on_c, 0, 71, 63
2, 18259, Control_c, 0, 64, 127
2, 18294, Note_on_c, 0, 74, 0
2, 18295, Note_on_c, 0, 79, 0
2, 18298, Note_on_c, 0, 71, 0
2, 18353, Control_c, 0, 64, 0
2, 18360, Note_on_c, 0, 79, 99
2, 18360, Note_on_c, 0, 71, 63
2, 18360, Note_on_c, 0, 74, 70
2, 18384, Control_c, 0, 64, 127
2, 18419, Note_on_c, 0, 74, 0
2, 18421, Note_on_c, 0, 71, 0
2, 18427, Note_on_c, 0, 79, 0
2, 18471, Control_c, 0, 64, 0
2, 18480, Note_on_c, 0, 79, 99
2, 18480, Note_on_c, 0, 71, 66
2, 18480, Note_on_c, 0, 74, 72
2, 18499, Control_c, 0, 64, 127
2, 18529, Note_on_c, 0, 79, 0
2, 18530, Note_on_c, 0, 74, 0
2, 18532, Note_on_c, 0, 71, 0
2, 18602, Control_c, 0, 64, 0
2, 18720, Note_on_c, 0, 79, 108
2, 18720, Note_on_c, 0, 74, 103
2, 18720, Note_on_c, 0, 71, 108
2, 18720, Note_on_c, 0, 67, 103
2, 18731, Control_c, 0, 64, 127
2, 18868, Note_on_c, 0, 71, 0
2, 18870, Note_on_c, 0, 74, 0
2, 18874, Note_on_c, 0, 79, 0
2, 18874, Note_on_c, 0, 67, 0
2, 18960, Note_on_c, 0, 79, 103
2, 18960, Note_on_c, 0, 71, 103
2, 18960, Note_on_c, 0, 74, 108
2, 18960, Note_on_c, 0, 67, 103
2, 18976, Control_c, 0, 64, 0
2, 19018, Control_c, 0, 64, 127
2, 19076, Note_on_c, 0, 71, 0
2, 19080, Note_on_c, 0, 74, 0
2, 19082, Note_on_c, 0, 79, 0
2, 19083, Note_on_c, 0, 67, 0
2, 19200, Control_c, 0, 64, 0
2, 19200, Note_on_c, 0, 67, 99
2, 19200, Note_on_c, 0, 79, 108
2, 19200, Note_on_c, 0, 74, 108
2, 19200, Note_on_c, 0, 71, 103
2, 19233, Control_c, 0, 64, 127
2, 19274, Note_on_c, 0, 71, 0
2, 19276, Note_on_c, 0, 74, 0
2, 19276, Note_on_c, 0, 67, 0
2, 19282, Note_on_c, 0, 79, 0
2, 19431, Control_c, 0, 64, 0
2, 19440, Note_on_c, 0, 81, 117
2, 19500, Note_on_c, 0, 79, 99
2, 19505, Note_on_c, 0, 81, 0
2, 19560, Note_on_c, 0, 78, 82
2, 19563, Note_on_c, 0, 79, 0
2, 19620, Note_on_c, 0, 79, 103
2, 19638, Note_on_c, 0, 78, 0
2, 19666, Note_on_c, 0, 79, 0
2, 19680, Note_on_c, 0, 74, 103
2, 19680, Note_on_c, 0, 77, 108
2, 19680, Note_on_c, 0, 80, 103
2, 19680, Note_on_c, 0, 65, 86
2, 19680, Note_on_c, 0, 68, 86
2, 19680, Note_on_c, 0, 71, 99
2, 19747, Control_c, 0, 64, 127
2, 19793, Note_on_c, 0, 68, 0
2, 19795, Note_on_c, 0, 74, 0
2, 19795, Note_on_c, 0, 71, 0
2, 19797, Note_on_c, 0, 80, 0
2, 19799, Note_on_c, 0, 77, 0
2, 19800, Note_on_c, 0, 65, 0
2, 19914, Control_c, 0, 64, 0
2, 19920, Note_on_c, 0, 80, 103
2, 19920, Note_on_c, 0, 77, 108
2, 19920, Note_on_c, 0, 74, 108
2, 19920, Note_on_c, 0, 65, 90
2, 19920, Note_on_c, 0, 68, 90
2, 19920, Note_on_c, 0, 71, 103
2, 19961, Control_c, 0, 64, 127
2, 20029, Note_on_c, 0, 68, 0
2, 20036, Note_on_c, 0, 71, 0
2, 20037, Note_on_c, 0, 65, 0
2, 20038, Note_on_c, 0, 74, 0
2, 20040, Note_on_c, 0, 77, 0
2, 20043, Note_on_c, 0, 80, 0
2, 20160, Note_on_c, 0, 74, 112
2, 20160, Note_on_c, 0, 80, 103
2, 20160, Note_on_c, 0, 77, 108
2, 20160, Note_on_c, 0, 68, 90
2, 20160, Note_on_c, 0, 65, 90
2, 20160, Note_on_c, 0, 71, 103
2, 20169, Control_c, 0, 64, 0
2, 20207, Control_c, 0, 64, 127
2, 20256, Note_on_c, 0, 71, 0
2, 20257, Note_on_c, 0, 68, 0
2, 20258, Note_on_c, 0, 65, 0
2, 20260, Note_on_c, 0, 77, 0
2, 20262, Note_on_c, 0, 74, 0
2, 20264, Note_on_c, 0, 80, 0
2, 20392, Control_c, 0, 64, 0
2, 20400, Note_on_c, 0, 83, 103
2, 20451, Note_on_c, 0, 83, 0
2, 20460, Note_on_c, 0, 80, 95
2, 20514, Control_c, 0, 64, 127
2, 20515, Note_on_c, 0, 80, 0
2, 20520, Note_on_c, 0, 77, 99
2, 20580, Note_on_c, 0, 76, 90
2, 20581, Note_on_c, 0, 77, 0
2, 20618, Note_on_c, 0, 76, 0
2, 20628, Control_c, 0, 64, 0
2, 20640, Note_on_c, 0, 64, 67
2, 20640, Note_on_c, 0, 81, 103
2, 20681, Control_c, 0, 64, 127
2, 20700, Note_on_c, 0, 72, 70
2, 20703, Note_on_c, 0, 81, 0
2, 20711, Note_on_c, 0, 64, 0
2, 20759, Note_on_c, 0, 72, 0
2, 20760, Note_on_c, 0, 69, 67
2, 20760, Note_on_c, 0, 76, 90
2, 20781, Control_c, 0, 64, 0
2, 20817, Control_c, 0, 64, 127
2, 20819, Note_on_c, 0, 69, 0
2, 20820, Note_on_c, 0, 72, 70
2, 20844, Note_on_c, 0, 76, 0
2, 20873, Note_on_c, 0, 72, 0
2, 20880, Note_on_c, 0, 64, 82
2, 20897, Control_c, 0, 64, 0
2, 20933, Control_c, 0, 64, 127
2, 20940, Note_on_c, 0, 72, 72
2, 20951, Note_on_c, 0, 64, 0
2, 20994, Note_on_c, 0, 72, 0
2, 21000, Note_on_c, 0, 69, 74
2, 21000, Note_on_c, 0, 81, 103
2, 21008, Control_c, 0, 64, 0
2, 21041, Control_c, 0, 64, 127
2, 21059, Note_on_c, 0, 69, 0
2, 21060, Note_on_c, 0, 72, 74
2, 21085, Note_on_c, 0, 81, 0
2, 21103, Note_on_c, 0, 72, 0
2, 21120, Note_on_c, 0, 64, 90
2, 21120, Note_on_c, 0, 83, 108
2, 21122, Control_c, 0, 64, 0
2, 21159, Control_c, 0, 64, 127
2, 21180, Note_on_c, 0, 71, 86
2, 21184, Note_on_c, 0, 64, 0
2, 21214, Note_on_c, 0, 83, 0
2, 21231, Note_on_c, 0, 71, 0
2, 21240, Note_on_c, 0, 68, 72
2, 21240, Note_on_c, 0, 83, 103
2, 21251, Control_c, 0, 64, 0
2, 21285, Control_c, 0, 64, 127
2, 21300, Note_on_c, 0, 71, 86
2, 21305, Note_on_c, 0, 68, 0
2, 21326, Note_on_c, 0, 83, 0
2, 21342, Note_on_c, 0, 71, 0
2, 21359, Control_c, 0, 64, 0
2, 21360, Note_on_c, 0, 64, 95
2, 21360, Note_on_c, 0, 81, 99
2, 21396, Control_c, 0, 64, 127
2, 21412, Note_on_c, 0, 81, 0
2, 21420, Note_on_c, 0, 80, 99
2, 21420, Note_on_c, 0, 71, 86
2, 21423, Note_on_c, 0, 64, 0
2, 21471, Control_c, 0, 64, 0
2, 21475, Note_on_c, 0, 71, 0
2, 21478, Note_on_c, 0, 80, 0
2, 21480, Note_on_c, 0, 68, 82
2, 21480, Note_on_c, 0, 78, 90
2, 21503, Control_c, 0, 64, 127
2, 21526, Note_on_c, 0, 78, 0
2, 21540, Note_on_c, 0, 68, 0
2, 21540, Note_on_c, 0, 76, 99
2, 21540, Note_on_c, 0, 71, 95
2, 21576, Note_on_c, 0, 71, 0
2, 21578, Note_on_c, 0, 76, 0
2, 21594, Control_c, 0, 64, 0
2, 21600, Note_on_c, 0, 64, 99
2, 21600, Note_on_c, 0, 81, 99
2, 21636, Control_c, 0, 64, 127
2, 21660, Note_on_c, 0, 72, 82
2, 21668, Note_on_c, 0, 64, 0
2, 21685, Note_on_c, 0, 81, 0
2, 21715, Note_on_c, 0, 72, 0
2, 21720, Note_on_c, 0, 69, 66
2, 21720, Note_on_c, 0, 76, 99
2, 21727, Control_c, 0, 64, 0
2, 21758, Control_c, 0, 64, 127
2, 21780, Note_on_c, 0, 69, 0
2, 21780, Note_on_c, 0, 72, 74
2, 21789, Note_on_c, 0, 76, 0
2, 21822, Note_on_c, 0, 72, 0
2, 21840, Note_on_c, 0, 64, 90
2, 21842, Control_c, 0, 64, 0
2, 21878, Control_c, 0, 64, 127
2, 21898, Note_on_c, 0, 64, 0
2, 21900, Note_on_c, 0, 72, 74
2, 21959, Note_on_c, 0, 72, 0
2, 21960, Note_on_c, 0, 69, 70
2, 21960, Control_c, 0, 64, 0
2, 21960, Note_on_c, 0, 81, 103
2, 21993, Control_c, 0, 64, 127
2, 22020, Note_on_c, 0, 72, 86
2, 22024, Note_on_c, 0, 69, 0
2, 22028, Note_on_c, 0, 81, 0
2, 22060, Note_on_c, 0, 72, 0
2, 22080, Note_on_c, 0, 64, 86
2, 22080, Note_on_c, 0, 83, 117
2, 22087, Control_c, 0, 64, 0
2, 22123, Control_c, 0, 64, 127
2, 22140, Note_on_c, 0, 71, 82
2, 22142, Note_on_c, 0, 83, 0
2, 22145, Note_on_c, 0, 64, 0
2, 22193, Note_on_c, 0, 71, 0
2, 22200, Note_on_c, 0, 68, 74
2, 22200, Note_on_c, 0, 83, 117
2, 22214, Control_c, 0, 64, 0
2, 22245, Control_c, 0, 64, 127
2, 22260, Note_on_c, 0, 71, 82
2, 22265, Note_on_c, 0, 68, 0
2, 22279, Note_on_c, 0, 83, 0
2, 22305, Note_on_c, 0, 71, 0
2, 22320, Note_on_c, 0, 83, 117
2, 22320, Note_on_c, 0, 64, 82
2, 22321, Control_c, 0, 64, 0
2, 22351, Control_c, 0, 64, 127
2, 22357, Note_on_c, 0, 83, 0
2, 22380, Note_on_c, 0, 64, 0
2, 22380, Note_on_c, 0, 71, 86
2, 22380, Note_on_c, 0, 86, 112
2, 22409, Note_on_c, 0, 86, 0
2, 22434, Note_on_c, 0, 71, 0
2, 22440, Note_on_c, 0, 68, 74
2, 22440, Note_on_c, 0, 84, 103
2, 22451, Control_c, 0, 64, 0
2, 22477, Note_on_c, 0, 84, 0
2, 22486, Control_c, 0, 64, 127
2, 22500, Note_on_c, 0, 68, 0
2, 22500, Note_on_c, 0, 83, 99
2, 22500, Note_on_c, 0, 71, 86
2, 22533, Note_on_c, 0, 83, 0
2, 22534, Note_on_c, 0, 71, 0
2, 22554, Control_c, 0, 64, 0
2, 22560, Note_on_c, 0, 64, 82
2, 22560, Note_on_c, 0, 81, 108
2, 22587, Control_c, 0, 64, 127
2, 22608, Note_on_c, 0, 81, 0
2, 22620, Note_on_c, 0, 72, 78
2, 22629, Note_on_c, 0, 64, 0
2, 22675, Note_on_c, 0, 72, 0
2, 22680, Note_on_c, 0, 69, 67
2, 22680, Note_on_c, 0, 76, 99
2, 22683, Control_c, 0, 64, 0
2, 22716, Control_c, 0, 64, 127
2, 22738, Note_on_c, 0, 69, 0
2, 22740, Note_on_c, 0, 72, 72
2, 22761, Note_on_c, 0, 76, 0
2, 22786, Note_on_c, 0, 72, 0
2, 22800, Note_on_c, 0, 64, 90
2, 22807, Control_c, 0, 64, 0
2, 22841, Control_c, 0, 64, 127
2, 22856, Note_on_c, 0, 64, 0
2, 22860, Note_on_c, 0, 72, 78
2, 22916, Note_on_c, 0, 72, 0
2, 22920, Note_on_c, 0, 69, 69
2, 22920, Note_on_c, 0, 81, 112
2, 22928, Control_c, 0, 64, 0
2, 22961, Control_c, 0, 64, 127
2, 22978, Note_on_c, 0, 69, 0
2, 22980, Note_on_c, 0, 72, 86
2, 23007, Note_on_c, 0, 81, 0
2, 23019, Note_on_c, 0, 72, 0
2, 23040, Note_on_c, 0, 64, 86
2, 23040, Control_c, 0, 64, 0
2, 23040, Note_on_c, 0, 82, 123
2, 23076, Control_c, 0, 64, 127
2, 23100, Note_on_c, 0, 72, 86
2, 23102, Note_on_c, 0, 64, 0
2, 23131, Note_on_c, 0, 82, 0
2, 23153, Note_on_c, 0, 72, 0
2, 23160, Note_on_c, 0, 67, 86
2, 23160, Note_on_c, 0, 82, 127
2, 23165, Control_c, 0, 64, 0
2, 23193, Control_c, 0, 64, 127
2, 23220, Note_on_c, 0, 72, 82
2, 23227, Note_on_c, 0, 67, 0
2, 23233, Note_on_c, 0, 82, 0
2, 23261, Note_on_c, 0, 72, 0
2, 23269, Control_c, 0, 64, 0
2, 23280, Note_on_c, 0, 64, 95
2, 23280, Note_on_c, 0, 82, 117
2, 23298, Control_c, 0, 64, 127
2, 23333, Note_on_c, 0, 82, 0
2, 23338, Note_on_c, 0, 64, 0
2, 23340, Note_on_c, 0, 72, 82
2, 23340, Note_on_c, 0, 86, 99
2, 23383, Note_on_c, 0, 86, 0
2, 23394, Note_on_c, 0, 72, 0
2, 23400, Note_on_c, 0, 67, 82
2, 23400, Note_on_c, 0, 84, 99
2, 23454, Note_on_c, 0, 84, 0
2, 23460, Note_on_c, 0, 67, 0
2, 23460, Note_on_c, 0, 72, 72
2, 23460, Note_on_c, 0, 82, 103
2, 23496, Note_on_c, 0, 82, 0
2, 23508, Note_on_c, 0, 72, 0
2, 23509, Control_c, 0, 64, 0
2, 23520, Note_on_c, 0, 65, 72
2, 23520, Note_on_c, 0, 81, 99
2, 23552, Control_c, 0, 64, 127
2, 23580, Note_on_c, 0, 72, 69
2, 23583, Note_on_c, 0, 81, 0
2, 23583, Note_on_c, 0, 65, 0
2, 23634, Note_on_c, 0, 72, 0
2, 23640, Note_on_c, 0, 69, 67
2, 23640, Note_on_c, 0, 77, 99
2, 23649, Control_c, 0, 64, 0
2, 23683, Control_c, 0, 64, 127
2, 23699, Note_on_c, 0, 69, 0
2, 23700, Note_on_c, 0, 72, 67
2, 23722, Note_on_c, 0, 77, 0
2, 23755, Note_on_c, 0, 72, 0
2, 23760, Note_on_c, 0, 65, 82
2, 23773, Control_c, 0, 64, 0
2, 23810, Control_c, 0, 64, 127
2, 23820, Note_on_c, 0, 72, 70
2, 23823, Note_on_c, 0, 65, 0
2, 23874, Note_on_c, 0, 72, 0
2, 23880, Note_on_c, 0, 69, 63
2, 23880, Note_on_c, 0, 81, 78
2, 23888, Control_c, 0, 64, 0
2, 23919, Control_c, 0, 64, 127
2, 23940, Note_on_c, 0, 72, 86
2, 23941, Note_on_c, 0, 69, 0
2, 23970, Note_on_c, 0, 81, 0
2, 23978, Note_on_c, 0, 72, 0
2, 24000, Note_on_c, 0, 82, 103
2, 24000, Note_on_c, 0, 64, 82
2, 24004, Control_c, 0, 64, 0
2, 24039, Control_c, 0, 64, 127
2, 24060, Note_on_c, 0, 72, 66
2, 24071, Note_on_c, 0, 64, 0
2, 24084, Note_on_c, 0, 82, 0
2, 24111, Note_on_c, 0, 72, 0
2, 24120, Note_on_c, 0, 67, 67
2, 24120, Note_on_c, 0, 82, 117
2, 24131, Control_c, 0, 64, 0
2, 24158, Control_c, 0, 64, 127
2, 24179, Note_on_c, 0, 67, 0
2, 24180, Note_on_c, 0, 72, 70
2, 24185, Note_on_c, 0, 82, 0
2, 24223, Note_on_c, 0, 72, 0
2, 24240, Note_on_c, 0, 64, 90
2, 24240, Note_on_c, 0, 82, 112
2, 24244, Control_c, 0, 64, 0
2, 24273, Control_c, 0, 64, 127
2, 24288, Note_on_c, 0, 82, 0
2, 24295, Note_on_c, 0, 64, 0
2, 24300, Note_on_c, 0, 72, 72
2, 24300, Note_on_c, 0, 86, 99
2, 24337, Note_on_c, 0, 86, 0
2, 24358, Note_on_c, 0, 72, 0
2, 24360, Note_on_c, 0, 67, 72
2, 24360, Note_on_c, 0, 84, 90
2, 24361, Control_c, 0, 64, 0
2, 24391, Control_c, 0, 64, 127
2, 24406, Note_on_c, 0, 84, 0
2, 24414, Note_on_c, 0, 67, 0
2, 24420, Note_on_c, 0, 82, 78
2, 24420, Note_on_c, 0, 72, 72
2, 24454, Note_on_c, 0, 82, 0
2, 24468, Note_on_c, 0, 72, 0
2, 24476, Control_c, 0, 64, 0
2, 24480, Note_on_c, 0, 81, 95
2, 24480, Note_on_c, 0, 65, 70
2, 24512, Control_c, 0, 64, 127
2, 24539, Note_on_c, 0, 65, 0
2, 24540, Note_on_c, 0, 81, 0
2, 24540, Note_on_c, 0, 72, 74
2, 24583, Note_on_c, 0, 72, 0
2, 24600, Note_on_c, 0, 69, 67
2, 24600, Note_on_c, 0, 77, 86
2, 24602, Control_c, 0, 64, 0
2, 24635, Control_c, 0, 64, 127
2, 24656, Note_on_c, 0, 69, 0
2, 24660, Note_on_c, 0, 72, 72
2, 24673, Note_on_c, 0, 77, 0
2, 24700, Note_on_c, 0, 72, 0
2, 24720, Note_on_c, 0, 65, 74
2, 24720, Control_c, 0, 64, 0
2, 24755, Control_c, 0, 64, 127
2, 24780, Note_on_c, 0, 65, 0
2, 24780, Note_on_c, 0, 72, 70
2, 24834, Note_on_c, 0, 72, 0
2, 24840, Note_on_c, 0, 69, 74
2, 24840, Note_on_c, 0, 77, 108
2, 24843, Control_c, 0, 64, 0
2, 24874, Control_c, 0, 64, 127
2, 24900, Note_on_c, 0, 72, 82
2, 24903, Note_on_c, 0, 69, 0
2, 24920, Note_on_c, 0, 77, 0
2, 24938, Note_on_c, 0, 72, 0
2, 24958, Control_c, 0, 64, 0
2, 24960, Note_on_c, 0, 63, 72
2, 24960, Note_on_c, 0, 81, 112
2, 24994, Control_c, 0, 64, 127
2, 25017, Note_on_c, 0, 63, 0
2, 25020, Note_on_c, 0, 72, 74
2, 25029, Note_on_c, 0, 81, 0
2, 25075, Note_on_c, 0, 72, 0
2, 25080, Note_on_c, 0, 69, 86
2, 25080, Note_on_c, 0, 81, 108
2, 25083, Control_c, 0, 64, 0
2, 25116, Control_c, 0, 64, 127
2, 25140, Note_on_c, 0, 69, 0
2, 25140, Note_on_c, 0, 72, 86
2, 25145, Note_on_c, 0, 81, 0
2, 25180, Note_on_c, 0, 72, 0
2, 25200, Note_on_c, 0, 63, 74
2, 25200, Note_on_c, 0, 81, 108
2, 25202, Control_c, 0, 64, 0
2, 25232, Control_c, 0, 64, 127
2, 25244, Note_on_c, 0, 81, 0
2, 25256, Note_on_c, 0, 63, 0
2, 25260, Note_on_c, 0, 72, 82
2, 25260, Note_on_c, 0, 84, 103
2, 25295, Note_on_c, 0, 84, 0
2, 25309, Note_on_c, 0, 72, 0
2, 25320, Note_on_c, 0, 69, 74
2, 25320, Note_on_c, 0, 83, 99
2, 25363, Note_on_c, 0, 83, 0
2, 25380, Note_on_c, 0, 81, 90
2, 25380, Note_on_c, 0, 72, 82
2, 25382, Note_on_c, 0, 69, 0
2, 25406, Note_on_c, 0, 81, 0
2, 25416, Note_on_c, 0, 72, 0
2, 25440, Note_on_c, 0, 81, 117
2, 25440, Note_on_c, 0, 62, 67
2, 25451, Control_c, 0, 64, 0
2, 25493, Control_c, 0, 64, 127
2, 25500, Note_on_c, 0, 72, 69
2, 25511, Note_on_c, 0, 62, 0
2, 25532, Note_on_c, 0, 81, 0
2, 25560, Note_on_c, 0, 69, 82
2, 25560, Note_on_c, 0, 81, 123
2, 25565, Note_on_c, 0, 72, 0
2, 25567, Control_c, 0, 64, 0
2, 25593, Control_c, 0, 64, 127
2, 25620, Note_on_c, 0, 72, 82
2, 25626, Note_on_c, 0, 81, 0
2, 25634, Note_on_c, 0, 69, 0
2, 25656, Note_on_c, 0, 72, 0
2, 25673, Control_c, 0, 64, 0
2, 25680, Note_on_c, 0, 62, 90
2, 25680, Note_on_c, 0, 81, 112
2, 25705, Control_c, 0, 64, 127
2, 25719, Note_on_c, 0, 81, 0
2, 25738, Note_on_c, 0, 62, 0
2, 25740, Note_on_c, 0, 72, 82
2, 25740, Note_on_c, 0, 84, 99
2, 25775, Note_on_c, 0, 84, 0
2, 25788, Note_on_c, 0, 72, 0
2, 25800, Note_on_c, 0, 83, 99
2, 25800, Note_on_c, 0, 69, 86
2, 25837, Note_on_c, 0, 83, 0
2, 25860, Note_on_c, 0, 81, 99
2, 25860, Note_on_c, 0, 72, 86
2, 25863, Note_on_c, 0, 69, 0
2, 25893, Note_on_c, 0, 72, 0
2, 25893, Note_on_c, 0, 81, 0
2, 25920, Note_on_c, 0, 79, 117
2, 25920, Note_on_c, 0, 61, 72
2, 25921, Control_c, 0, 64, 0
2, 25962, Control_c, 0, 64, 127
2, 25980, Note_on_c, 0, 70, 78
2, 25989, Note_on_c, 0, 61, 0
2, 26007, Note_on_c, 0, 79, 0
2, 26020, Note_on_c, 0, 70, 0
2, 26040, Note_on_c, 0, 67, 86
2, 26040, Note_on_c, 0, 79, 103
2, 26042, Control_c, 0, 64, 0
2, 26071, Control_c, 0, 64, 127
2, 26100, Note_on_c, 0, 70, 72
2, 26101, Note_on_c, 0, 67, 0
2, 26115, Note_on_c, 0, 79, 0
2, 26136, Note_on_c, 0, 70, 0
2, 26154, Control_c, 0, 64, 0
2, 26160, Note_on_c, 0, 61, 82
2, 26160, Note_on_c, 0, 79, 112
2, 26184, Control_c, 0, 64, 127
2, 26206, Note_on_c, 0, 79, 0
2, 26210, Note_on_c, 0, 61, 0
2, 26220, Note_on_c, 0, 70, 74
2, 26220, Note_on_c, 0, 82, 95
2, 26258, Note_on_c, 0, 82, 0
2, 26268, Note_on_c, 0, 70, 0
2, 26278, Control_c, 0, 64, 0
2, 26280, Note_on_c, 0, 67, 82
2, 26280, Note_on_c, 0, 81, 99
2, 26307, Control_c, 0, 64, 127
2, 26322, Note_on_c, 0, 67, 0
2, 26328, Note_on_c, 0, 81, 0
2, 26340, Note_on_c, 0, 70, 78
2, 26340, Note_on_c, 0, 79, 103
2, 26365, Note_on_c, 0, 79, 0
2, 26378, Note_on_c, 0, 70, 0
2, 26393, Control_c, 0, 64, 0
2, 26400, Note_on_c, 0, 62, 86
2, 26400, Note_on_c, 0, 78, 123
2, 26431, Control_c, 0, 64, 127
2, 26445, Note_on_c, 0, 78, 0
2, 26460, Note_on_c, 0, 69, 82
2, 26461, Note_on_c, 0, 62, 0
2, 26513, Note_on_c, 0, 69, 0
2, 26520, Note_on_c, 0, 66, 86
2, 26520, Note_on_c, 0, 74, 95
2, 26520, Note_on_c, 0, 86, 117
2, 26529, Control_c, 0, 64, 0
2, 26567, Control_c, 0, 64, 127
2, 26580, Note_on_c, 0, 69, 86
2, 26582, Note_on_c, 0, 66, 0
2, 26635, Note_on_c, 0, 69, 0
2, 26640, Note_on_c, 0, 62, 99
2, 26643, Note_on_c, 0, 86, 0
2, 26656, Note_on_c, 0, 74, 0
2, 26667, Control_c, 0, 64, 0
2, 26700, Note_on_c, 0, 62, 0
2, 26700, Control_c, 0, 64, 127
2, 26700, Note_on_c, 0, 69, 90
2, 26738, Note_on_c, 0, 69, 0
2, 26760, Note_on_c, 0, 66, 90
2, 26760, Note_on_c, 0, 78, 108
2, 26767, Control_c, 0, 64, 0
2, 26798, Control_c, 0, 64, 127
2, 26820, Note_on_c, 0, 69, 90
2, 26823, Note_on_c, 0, 66, 0
2, 26827, Note_on_c, 0, 78, 0
2, 26847, Note_on_c, 0, 69, 0
2, 26868, Control_c, 0, 64, 0
2, 26880, Note_on_c, 0, 79, 103
2, 26880, Note_on_c, 0, 61, 69
2, 26911, Control_c, 0, 64, 127
2, 26940, Note_on_c, 0, 70, 72
2, 26942, Note_on_c, 0, 61, 0
2, 26956, Note_on_c, 0, 79, 0
2, 26993, Note_on_c, 0, 70, 0
2, 27000, Note_on_c, 0, 79, 103
2, 27000, Control_c, 0, 64, 0
2, 27000, Note_on_c, 0, 67, 86
2, 27032, Control_c, 0, 64, 127
2, 27058, Note_on_c, 0, 67, 0
2, 27060, Note_on_c, 0, 70, 74
2, 27073, Note_on_c, 0, 79, 0
2, 27110, Note_on_c, 0, 70, 0
2, 27117, Control_c, 0, 64, 0
2, 27120, Note_on_c, 0, 61, 72
2, 27120, Note_on_c, 0, 79, 103
2, 27151, Control_c, 0, 64, 127
2, 27172, Note_on_c, 0, 79, 0
2, 27173, Note_on_c, 0, 61, 0
2, 27180, Note_on_c, 0, 70, 72
2, 27180, Note_on_c, 0, 82, 86
2, 27220, Note_on_c, 0, 82, 0
2, 27226, Note_on_c, 0, 70, 0
2, 27239, Control_c, 0, 64, 0
2, 27240, Note_on_c, 0, 81, 82
2, 27240, Note_on_c, 0, 67, 86
2, 27268, Control_c, 0, 64, 127
2, 27292, Note_on_c, 0, 81, 0
2, 27297, Note_on_c, 0, 67, 0
2, 27300, Note_on_c, 0, 70, 67
2, 27300, Note_on_c, 0, 79, 95
2, 27323, Note_on_c, 0, 79, 0
2, 27333, Note_on_c, 0, 70, 0
2, 27360, Note_on_c, 0, 78, 95
2, 27360, Note_on_c, 0, 62, 82
2, 27360, Control_c, 0, 64, 0
2, 27394, Control_c, 0, 64, 127
2, 27403, Note_on_c, 0, 78, 0
2, 27420, Note_on_c, 0, 62, 0
2, 27420, Note_on_c, 0, 69, 90
2, 27453, Note_on_c, 0, 69, 0
2, 27480, Note_on_c, 0, 66, 78
2, 27480, Note_on_c, 0, 74, 99
2, 27480, Note_on_c, 0, 86, 112
2, 27483, Control_c, 0, 64, 0
2, 27519, Control_c, 0, 64, 127
2, 27539, Note_on_c, 0, 66, 0
2, 27540, Note_on_c, 0, 69, 82
2, 27584, Note_on_c, 0, 69, 0
2, 27598, Control_c, 0, 64, 0
2, 27600, Note_on_c, 0, 62, 90
2, 27627, Control_c, 0, 64, 127
2, 27652, Note_on_c, 0, 86, 0
2, 27660, Note_on_c, 0, 62, 0
2, 27660, Note_on_c, 0, 69, 90
2, 27663, Note_on_c, 0, 74, 0
2, 27698, Control_c, 0, 64, 0
2, 27712, Note_on_c, 0, 69, 0
2, 27720, Note_on_c, 0, 66, 78
2, 27720, Note_on_c, 0, 78, 112
2, 27741, Control_c, 0, 64, 127
2, 27780, Note_on_c, 0, 69, 90
2, 27781, Note_on_c, 0, 66, 0
2, 27813, Note_on_c, 0, 78, 0
2, 27818, Note_on_c, 0, 69, 0
2, 27827, Control_c, 0, 64, 0
2, 27840, Note_on_c, 0, 61, 86
2, 27840, Note_on_c, 0, 79, 108
2, 27862, Control_c, 0, 64, 127
2, 27900, Note_on_c, 0, 70, 78
2, 27905, Note_on_c, 0, 61, 0
2, 27921, Note_on_c, 0, 79, 0
2, 27949, Note_on_c, 0, 70, 0
2, 27959, Control_c, 0, 64, 0
2, 27960, Note_on_c, 0, 79, 103
2, 27960, Note_on_c, 0, 67, 86
2, 27979, Control_c, 0, 64, 127
2, 28020, Note_on_c, 0, 70, 70
2, 28023, Note_on_c, 0, 67, 0
2, 28041, Note_on_c, 0, 79, 0
2, 28055, Control_c, 0, 64, 0
2, 28065, Note_on_c, 0, 70, 0
2, 28080, Note_on_c, 0, 61, 95
2, 28080, Note_on_c, 0, 79, 108
2, 28081, Control_c, 0, 64, 127
2, 28140, Note_on_c, 0, 70, 74
2, 28140, Note_on_c, 0, 82, 99
2, 28141, Note_on_c, 0, 79, 0
2, 28143, Note_on_c, 0, 61, 0
2, 28180, Note_on_c, 0, 82, 0
2, 28191, Note_on_c, 0, 70, 0
2, 28200, Note_on_c, 0, 81, 103
2, 28200, Note_on_c, 0, 67, 90
2, 28245, Note_on_c, 0, 81, 0
2, 28260, Note_on_c, 0, 79, 95
2, 28260, Note_on_c, 0, 70, 67
2, 28262, Note_on_c, 0, 67, 0
2, 28285, Note_on_c, 0, 79, 0
2, 28287, Note_on_c, 0, 70, 0
2, 28320, Note_on_c, 0, 66, 72
2, 28320, Note_on_c, 0, 60, 95
2, 28320, Note_on_c, 0, 78, 127
2, 28320, Note_on_c, 0, 69, 72
2, 28330, Control_c, 0, 64, 0
2, 28368, Control_c, 0, 64, 127
2, 28423, Note_on_c, 0, 78, 0
2, 28440, Note_on_c, 0, 74, 103
2, 28440, Note_on_c, 0, 86, 127
2, 28448, Control_c, 0, 64, 0
2, 28489, Control_c, 0, 64, 127
2, 28802, Note_on_c, 0, 86, 0
2, 28802, Note_on_c, 0, 74, 0
2, 28804, Control_c, 0, 64, 0
2, 28805, Note_on_c, 0, 69, 0
2, 28812, Note_on_c, 0, 66, 0
2, 28813, Note_on_c, 0, 60, 0
2, 29280, Note_on_c, 0, 82, 86
2, 29338, Note_on_c, 0, 82, 0
2, 29340, Note_on_c, 0, 77, 90
2, 29349, Control_c, 0, 64, 127
2, 29383, Note_on_c, 0, 77, 0
2, 29400, Note_on_c, 0, 77, 99
2, 29400, Note_on_c, 0, 70, 74
2, 29400, Note_on_c, 0, 74, 67
2, 29406, Control_c, 0, 64, 0
2, 29433, Control_c, 0, 64, 127
2, 29478, Note_on_c, 0, 70, 0
2, 29481, Note_on_c, 0, 74, 0
2, 29520, Note_on_c, 0, 74, 70
2, 29520, Note_on_c, 0, 70, 74
2, 29561, Note_on_c, 0, 70, 0
2, 29567, Note_on_c, 0, 74, 0
2, 29588, Note_on_c, 0, 77, 0
2, 29640, Note_on_c, 0, 82, 95
2, 29640, Note_on_c, 0, 74, 78
2, 29640, Note_on_c, 0, 70, 82
2, 29687, Note_on_c, 0, 70, 0
2, 29698, Note_on_c, 0, 74, 0
2, 29714, Note_on_c, 0, 82, 0
2, 29760, Note_on_c, 0, 82, 95
2, 29772, Control_c, 0, 64, 0
2, 29805, Control_c, 0, 64, 127
2, 29817, Note_on_c, 0, 82, 0
2, 29820, Note_on_c, 0, 81, 99
2, 29873, Note_on_c, 0, 81, 0
2, 29879, Control_c, 0, 64, 0
2, 29880, Note_on_c, 0, 79, 103
2, 29880, Note_on_c, 0, 72, 86
2, 29880, Note_on_c, 0, 75, 82
2, 29911, Control_c, 0, 64, 127
2, 29936, Note_on_c, 0, 79, 0
2, 29937, Note_on_c, 0, 75, 0
2, 29937, Note_on_c, 0, 72, 0
2, 29940, Note_on_c, 0, 77, 99
2, 29973, Note_on_c, 0, 77, 0
2, 29998, Control_c, 0, 64, 0
2, 30000, Note_on_c, 0, 77, 99
2, 30000, Note_on_c, 0, 72, 82
2, 30000, Note_on_c, 0, 75, 86
2, 30027, Control_c, 0, 64, 127
2, 30065, Note_on_c, 0, 75, 0
2, 30069, Note_on_c, 0, 72, 0
2, 30120, Control_c, 0, 64, 0
2, 30120, Note_on_c, 0, 75, 82
2, 30120, Note_on_c, 0, 72, 90
2, 30143, Control_c, 0, 64, 127
2, 30185, Note_on_c, 0, 77, 0
2, 30194, Note_on_c, 0, 72, 0
2, 30197, Note_on_c, 0, 75, 0
2, 30235, Control_c, 0, 64, 0
2, 30240, Note_on_c, 0, 77, 117
2, 30272, Control_c, 0, 64, 127
2, 30328, Note_on_c, 0, 77, 0
2, 30360, Note_on_c, 0, 70, 86
2, 30360, Note_on_c, 0, 82, 123
2, 30360, Note_on_c, 0, 74, 86
2, 30363, Control_c, 0, 64, 0
2, 30394, Control_c, 0, 64, 127
2, 30426, Note_on_c, 0, 74, 0
2, 30428, Note_on_c, 0, 70, 0
2, 30449, Note_on_c, 0, 82, 0
2, 30480, Note_on_c, 0, 70, 86
2, 30480, Note_on_c, 0, 82, 117
2, 30480, Note_on_c, 0, 74, 86
2, 30482, Control_c, 0, 64, 0
2, 30506, Control_c, 0, 64, 127
2, 30534, Note_on_c, 0, 82, 0
2, 30540, Note_on_c, 0, 86, 103
2, 30545, Note_on_c, 0, 74, 0
2, 30545, Note_on_c, 0, 70, 0
2, 30577, Note_on_c, 0, 86, 0
2, 30600, Note_on_c, 0, 84, 99
2, 30600, Note_on_c, 0, 74, 90
2, 30600, Note_on_c, 0, 70, 78
2, 30604, Control_c, 0, 64, 0
2, 30633, Control_c, 0, 64, 127
2, 30650, Note_on_c, 0, 70, 0
2, 30653, Note_on_c, 0, 74, 0
2, 30660, Note_on_c, 0, 84, 0
2, 30660, Note_on_c, 0, 82, 103
2, 30687, Note_on_c, 0, 82, 0
2, 30699, Control_c, 0, 64, 0
2, 30720, Note_on_c, 0, 82, 99
2, 30733, Control_c, 0, 64, 127
2, 30756, Note_on_c, 0, 82, 0
2, 30780, Note_on_c, 0, 81, 95
2, 30823, Control_c, 0, 64, 0
2, 30832, Note_on_c, 0, 81, 0
2, 30840, Note_on_c, 0, 79, 99
2, 30840, Note_on_c, 0, 72, 86
2, 30840, Note_on_c, 0, 75, 82
2, 30856, Control_c, 0, 64, 127
2, 30890, Note_on_c, 0, 75, 0
2, 30897, Note_on_c, 0, 72, 0
2, 30897, Note_on_c, 0, 79, 0
2, 30900, Note_on_c, 0, 77, 99
2, 30934, Note_on_c, 0, 77, 0
2, 30954, Control_c, 0, 64, 0
2, 30960, Note_on_c, 0, 77, 108
2, 30960, Note_on_c, 0, 75, 82
2, 30960, Note_on_c, 0, 72, 86
2, 30987, Control_c, 0, 64, 127
2, 31023, Note_on_c, 0, 72, 0
2, 31023, Note_on_c, 0, 75, 0
2, 31080, Note_on_c, 0, 72, 86
2, 31080, Note_on_c, 0, 75, 90
2, 31089, Note_on_c, 0, 77, 0
2, 31119, Note_on_c, 0, 75, 0
2, 31122, Note_on_c, 0, 72, 0
2, 31197, Control_c, 0, 64, 0
2, 31200, Note_on_c, 0, 77, 103
2, 31235, Control_c, 0, 64, 127
2, 31260, Note_on_c, 0, 82, 99
2, 31262, Note_on_c, 0, 77, 0
2, 31291, Note_on_c, 0, 82, 0
2, 31313, Control_c, 0, 64, 0
2, 31320, Note_on_c, 0, 82, 112
2, 31320, Note_on_c, 0, 70, 78
2, 31320, Note_on_c, 0, 74, 86
2, 31344, Control_c, 0, 64, 127
2, 31384, Note_on_c, 0, 70, 0
2, 31385, Note_on_c, 0, 74, 0
2, 31440, Note_on_c, 0, 74, 90
2, 31440, Note_on_c, 0, 70, 82
2, 31442, Control_c, 0, 64, 0
2, 31466, Control_c, 0, 64, 127
2, 31506, Note_on_c, 0, 70, 0
2, 31512, Note_on_c, 0, 74, 0
2, 31538, Note_on_c, 0, 82, 0
2, 31560, Note_on_c, 0, 80, 108
2, 31560, Note_on_c, 0, 70, 86
2, 31560, Note_on_c, 0, 74, 95
2, 31570, Control_c, 0, 64, 0
2, 31599, Control_c, 0, 64, 127
2, 31630, Note_on_c, 0, 70, 0
2, 31636, Note_on_c, 0, 74, 0
2, 31654, Note_on_c, 0, 80, 0
2, 31680, Note_on_c, 0, 78, 103
2, 31681, Control_c, 0, 64, 0
2, 31714, Control_c, 0, 64, 127
2, 31723, Note_on_c, 0, 78, 0
2, 31740, Note_on_c, 0, 79, 99
2, 31776, Note_on_c, 0, 79, 0
2, 31795, Control_c, 0, 64, 0
2, 31800, Note_on_c, 0, 79, 108
2, 31800, Note_on_c, 0, 70, 86
2, 31800, Note_on_c, 0, 75, 90
2, 31827, Control_c, 0, 64, 127
2, 31867, Note_on_c, 0, 70, 0
2, 31870, Note_on_c, 0, 75, 0
2, 31920, Note_on_c, 0, 75, 86
2, 31920, Note_on_c, 0, 70, 78
2, 31955, Note_on_c, 0, 70, 0
2, 31962, Note_on_c, 0, 75, 0
2, 31990, Note_on_c, 0, 79, 0
2, 32044, Note_on_c, 0, 81, 103
2, 32046, Note_on_c, 0, 75, 82
2, 32046, Note_on_c, 0, 70, 78
2, 32076, Note_on_c, 0, 70, 0
2, 32083, Note_on_c, 0, 75, 0
2, 32088, Note_on_c, 0, 81, 0
2, 32143, Control_c, 0, 64, 0
2, 32160, Note_on_c, 0, 70, 86
2, 32160, Note_on_c, 0, 74, 90
2, 32160, Note_on_c, 0, 82, 112
2, 32173, Control_c, 0, 64, 127
2, 32193, Note_on_c, 0, 82, 0
2, 32200, Note_on_c, 0, 70, 0
2, 32200, Note_on_c, 0, 86, 103
2, 32201, Note_on_c, 0, 74, 0
2, 32219, Control_c, 0, 64, 0
2, 32238, Note_on_c, 0, 86, 0
2, 32240, Note_on_c, 0, 84, 103
2, 32280, Note_on_c, 0, 84, 0
2, 32280, Note_on_c, 0, 82, 99
2, 32314, Control_c, 0, 64, 127
2, 32320, Note_on_c, 0, 81, 86
2, 32331, Note_on_c, 0, 82, 0
2, 32360, Note_on_c, 0, 79, 108
2, 32362, Note_on_c, 0, 81, 0
2, 32362, Control_c, 0, 64, 0
2, 32383, Note_on_c, 0, 79, 0
2, 32400, Note_on_c, 0, 77, 99
2, 32439, Control_c, 0, 64, 127
2, 32440, Note_on_c, 0, 75, 82
2, 32449, Note_on_c, 0, 77, 0
2, 32477, Note_on_c, 0, 75, 0
2, 32480, Note_on_c, 0, 74, 99
2, 32515, Note_on_c, 0, 74, 0
2, 32520, Note_on_c, 0, 72, 86
2, 32525, Control_c, 0, 64, 0
2, 32560, Note_on_c, 0, 70, 112
2, 32562, Control_c, 0, 64, 127
2, 32567, Note_on_c, 0, 72, 0
2, 32600, Note_on_c, 0, 69, 103
2, 32601, Note_on_c, 0, 70, 0
2, 32632, Control_c, 0, 64, 0
2, 32633, Note_on_c, 0, 69, 0
2, 32640, Note_on_c, 0, 67, 103
2, 32648, Control_c, 0, 64, 127
2, 32676, Note_on_c, 0, 67, 0
2, 32700, Note_on_c, 0, 79, 103
2, 32738, Note_on_c, 0, 79, 0
2, 32753, Control_c, 0, 64, 0
2, 32760, Note_on_c, 0, 77, 99
2, 32760, Note_on_c, 0, 63, 90
2, 32790, Note_on_c, 0, 75, 74
2, 32792, Control_c, 0, 64, 127
2, 32793, Note_on_c, 0, 77, 0
2, 32820, Note_on_c, 0, 75, 0
2, 32820, Note_on_c, 0, 74, 70
2, 32838, Note_on_c, 0, 63, 0
2, 32846, Note_on_c, 0, 74, 0
2, 32850, Note_on_c, 0, 72, 95
2, 32872, Control_c, 0, 64, 0
2, 32876, Note_on_c, 0, 72, 0
2, 32880, Note_on_c, 0, 70, 117
2, 32880, Note_on_c, 0, 65, 103
2, 32912, Control_c, 0, 64, 127
2, 32950, Note_on_c, 0, 65, 0
2, 32951, Note_on_c, 0, 70, 0
2, 32997, Control_c, 0, 64, 0
2, 33000, Note_on_c, 0, 69, 108
2, 33000, Note_on_c, 0, 65, 99
2, 33024, Control_c, 0, 64, 127
2, 33025, Note_on_c, 0, 65, 0
2, 33025, Note_on_c, 0, 69, 0
2, 33108, Control_c, 0, 64, 0
2, 33117, Note_on_c, 0, 70, 95
2, 33119, Note_on_c, 0, 82, 108
2, 33133, Control_c, 0, 64, 127
2, 33153, Note_on_c, 0, 82, 0
2, 33156, Note_on_c, 0, 70, 0
2, 33160, Note_on_c, 0, 86, 99
2, 33167, Control_c, 0, 64, 0
2, 33192, Note_on_c, 0, 86, 0
2, 33200, Note_on_c, 0, 84, 99
2, 33235, Note_on_c, 0, 84, 0
2, 33240, Note_on_c, 0, 82, 86
2, 33280, Note_on_c, 0, 81, 90
2, 33291, Note_on_c, 0, 82, 0
2, 33300, Control_c, 0, 64, 127
2, 33320, Note_on_c, 0, 79, 99
2, 33321, Note_on_c, 0, 81, 0
2, 33344, Note_on_c, 0, 79, 0
2, 33348, Control_c, 0, 64, 0
2, 33360, Note_on_c, 0, 77, 108
2, 33390, Control_c, 0, 64, 127
2, 33400, Note_on_c, 0, 75, 66
2, 33406, Note_on_c, 0, 77, 0
2, 33436, Note_on_c, 0, 75, 0
2, 33440, Note_on_c, 0, 74, 99
2, 33468, Control_c, 0, 64, 0
2, 33469, Note_on_c, 0, 74, 0
2, 33480, Note_on_c, 0, 72, 82
2, 33512, Control_c, 0, 64, 127
2, 33520, Note_on_c, 0, 70, 108
2, 33527, Note_on_c, 0, 72, 0
2, 33557, Note_on_c, 0, 70, 0
2, 33560, Note_on_c, 0, 69, 99
2, 33588, Control_c, 0, 64, 0
2, 33591, Note_on_c, 0, 69, 0
2, 33600, Note_on_c, 0, 67, 103
2, 33637, Control_c, 0, 64, 127
2, 33649, Note_on_c, 0, 67, 0
2, 33660, Note_on_c, 0, 79, 108
2, 33703, Note_on_c, 0, 79, 0
2, 33719, Control_c, 0, 64, 0
2, 33720, Note_on_c, 0, 77, 103
2, 33720, Note_on_c, 0, 63, 74
2, 33750, Note_on_c, 0, 75, 72
2, 33756, Note_on_c, 0, 77, 0
2, 33756, Control_c, 0, 64, 127
2, 33780, Note_on_c, 0, 74, 82
2, 33783, Note_on_c, 0, 75, 0
2, 33810, Note_on_c, 0, 74, 0
2, 33810, Note_on_c, 0, 72, 82
2, 33811, Note_on_c, 0, 63, 0
2, 33832, Control_c, 0, 64, 0
2, 33840, Note_on_c, 0, 70, 99
2, 33840, Note_on_c, 0, 65, 82
2, 33850, Note_on_c, 0, 72, 0
2, 33870, Control_c, 0, 64, 127
2, 33918, Note_on_c, 0, 65, 0
2, 33927, Note_on_c, 0, 70, 0
2, 33960, Note_on_c, 0, 69, 99
2, 33960, Note_on_c, 0, 65, 90
2, 33965, Control_c, 0, 64, 0
2, 33996, Control_c, 0, 64, 127
2, 34012, Note_on_c, 0, 65, 0
2, 34032, Note_on_c, 0, 69, 0
2, 34070, Control_c, 0, 64, 0
2, 34080, Note_on_c, 0, 70, 103
2, 34080, Note_on_c, 0, 65, 90
2, 34080, Note_on_c, 0, 62, 86
2, 34104, Control_c, 0, 64, 127
2, 34156, Note_on_c, 0, 62, 0
2, 34157, Note_on_c, 0, 65, 0
2, 34159, Note_on_c, 0, 70, 0
2, 34170, Note_on_c, 0, 72, 82
2, 34184, Control_c, 0, 64, 0
2, 34190, Note_on_c, 0, 72, 0
2, 34200, Note_on_c, 0, 69, 99
2, 34200, Note_on_c, 0, 63, 74
2, 34200, Note_on_c, 0, 65, 82
2, 34222, Control_c, 0, 64, 127
2, 34273, Note_on_c, 0, 65, 0
2, 34276, Note_on_c, 0, 69, 0
2, 34281, Note_on_c, 0, 63, 0
2, 34290, Note_on_c, 0, 72, 82
2, 34303, Control_c, 0, 64, 0
2, 34308, Note_on_c, 0, 72, 0
2, 34320, Note_on_c, 0, 70, 99
2, 34320, Note_on_c, 0, 62, 86
2, 34320, Note_on_c, 0, 65, 86
2, 34343, Control_c, 0, 64, 127
2, 34391, Note_on_c, 0, 70, 0
2, 34401, Note_on_c, 0, 65, 0
2, 34404, Note_on_c, 0, 62, 0
2, 34410, Note_on_c, 0, 72, 82
2, 34425, Control_c, 0, 64, 0
2, 34433, Note_on_c, 0, 72, 0
2, 34440, Note_on_c, 0, 69, 99
2, 34440, Note_on_c, 0, 63, 78
2, 34440, Note_on_c, 0, 65, 82
2, 34461, Control_c, 0, 64, 127
2, 34505, Note_on_c, 0, 65, 0
2, 34512, Note_on_c, 0, 69, 0
2, 34513, Note_on_c, 0, 63, 0
2, 34530, Note_on_c, 0, 72, 78
2, 34547, Control_c, 0, 64, 0
2, 34555, Note_on_c, 0, 72, 0
2, 34560, Note_on_c, 0, 70, 117
2, 34560, Note_on_c, 0, 62, 95
2, 34560, Note_on_c, 0, 65, 90
2, 34583, Control_c, 0, 64, 127
2, 34599, Note_on_c, 0, 70, 0
2, 34607, Note_on_c, 0, 65, 0
2, 34609, Note_on_c, 0, 62, 0
2, 34786, Control_c, 0, 64, 0
2, 35040, Note_on_c, 0, 74, 95
2, 35040, Note_on_c, 0, 79, 117
2, 35040, Note_on_c, 0, 77, 66
2, 35040, Note_on_c, 0, 70, 90
2, 35040, Note_on_c, 0, 74, 90
2, 35040, Note_on_c, 0, 79, 103
2, 35052, Control_c, 0, 64, 127
2, 35056, Note_on_c, 0, 77, 0
2, 35110, Note_on_c, 0, 79, 0
2, 35118, Note_on_c, 0, 70, 0
2, 35120, Note_on_c, 0, 79, 0
2, 35122, Note_on_c, 0, 74, 0
2, 35123, Note_on_c, 0, 74, 0
2, 35130, Note_on_c, 0, 81, 86
2, 35148, Control_c, 0, 64, 0
2, 35155, Note_on_c, 0, 81, 0
2, 35160, Note_on_c, 0, 78, 108
2, 35160, Note_on_c, 0, 74, 95
2, 35160, Note_on_c, 0, 72, 95
2, 35191, Control_c, 0, 64, 127
2, 35231, Note_on_c, 0, 78, 0
2, 35236, Note_on_c, 0, 74, 0
2, 35242, Note_on_c, 0, 72, 0
2, 35250, Note_on_c, 0, 81, 99
2, 35260, Control_c, 0, 64, 0
2, 35272, Note_on_c, 0, 81, 0
2, 35280, Note_on_c, 0, 70, 86
2, 35280, Note_on_c, 0, 79, 108
2, 35280, Note_on_c, 0, 74, 82
2, 35302, Control_c, 0, 64, 127
2, 35345, Note_on_c, 0, 79, 0
2, 35352, Note_on_c, 0, 74, 0
2, 35357, Note_on_c, 0, 70, 0
2, 35370, Note_on_c, 0, 81, 90
2, 35383, Control_c, 0, 64, 0
2, 35394, Note_on_c, 0, 81, 0
2, 35400, Note_on_c, 0, 78, 117
2, 35400, Note_on_c, 0, 72, 90
2, 35400, Note_on_c, 0, 74, 95
2, 35414, Control_c, 0, 64, 127
2, 35459, Note_on_c, 0, 74, 0
2, 35459, Note_on_c, 0, 78, 0
2, 35467, Note_on_c, 0, 72, 0
2, 35490, Note_on_c, 0, 81, 90
2, 35499, Control_c, 0, 64, 0
2, 35513, Note_on_c, 0, 81, 0
2, 35520, Note_on_c, 0, 79, 117
2, 35520, Note_on_c, 0, 70, 86
2, 35520, Note_on_c, 0, 74, 95
2, 35533, Control_c, 0, 64, 127
2, 35654, Note_on_c, 0, 79, 0
2, 35658, Note_on_c, 0, 70, 0
2, 35660, Note_on_c, 0, 74, 0
2, 35673, Control_c, 0, 64, 0
2, 36000, Note_on_c, 0, 69, 103
2, 36000, Note_on_c, 0, 72, 99
2, 36000, Note_on_c, 0, 77, 117
2, 36007, Control_c, 0, 64, 127
2, 36060, Note_on_c, 0, 69, 0
2, 36066, Note_on_c, 0, 72, 0
2, 36069, Note_on_c, 0, 77, 0
2, 36090, Note_on_c, 0, 79, 90
2, 36105, Control_c, 0, 64, 0
2, 36113, Note_on_c, 0, 79, 0
2, 36120, Note_on_c, 0, 70, 90
2, 36120, Note_on_c, 0, 76, 117
2, 36120, Note_on_c, 0, 72, 99
2, 36154, Control_c, 0, 64, 127
2, 36192, Note_on_c, 0, 76, 0
2, 36207, Note_on_c, 0, 72, 0
2, 36209, Note_on_c, 0, 70, 0
2, 36210, Note_on_c, 0, 79, 99
2, 36229, Control_c, 0, 64, 0
2, 36232, Note_on_c, 0, 79, 0
2, 36240, Note_on_c, 0, 69, 90
2, 36240, Note_on_c, 0, 72, 90
2, 36240, Note_on_c, 0, 77, 112
2, 36274, Control_c, 0, 64, 127
2, 36313, Note_on_c, 0, 77, 0
2, 36323, Note_on_c, 0, 72, 0
2, 36323, Note_on_c, 0, 69, 0
2, 36330, Note_on_c, 0, 79, 86
2, 36353, Note_on_c, 0, 79, 0
2, 36360, Control_c, 0, 64, 0
2, 36360, Note_on_c, 0, 70, 103
2, 36360, Note_on_c, 0, 76, 112
2, 36360, Note_on_c, 0, 72, 95
2, 36408, Control_c, 0, 64, 127
2, 36430, Note_on_c, 0, 76, 0
2, 36440, Note_on_c, 0, 72, 0
2, 36446, Note_on_c, 0, 70, 0
2, 36450, Note_on_c, 0, 77, 103
2, 36468, Note_on_c, 0, 77, 0
2, 36478, Control_c, 0, 64, 0
2, 36480, Note_on_c, 0, 72, 95
2, 36480, Note_on_c, 0, 69, 99
2, 36480, Note_on_c, 0, 77, 112
2, 36512, Control_c, 0, 64, 127
2, 36525, Note_on_c, 0, 77, 0
2, 36539, Note_on_c, 0, 69, 0
2, 36540, Note_on_c, 0, 72, 0
2, 36540, Note_on_c, 0, 81, 108
2, 36544, Control_c, 0, 64, 0
2, 36561, Note_on_c, 0, 81, 0
2, 36600, Note_on_c, 0, 84, 108
2, 36600, Note_on_c, 0, 72, 99
2, 36628, Note_on_c, 0, 84, 0
2, 36632, Note_on_c, 0, 72, 0
2, 36660, Note_on_c, 0, 70, 86
2, 36660, Note_on_c, 0, 82, 117
2, 36688, Note_on_c, 0, 82, 0
2, 36693, Note_on_c, 0, 70, 0
2, 36720, Note_on_c, 0, 81, 117
2, 36720, Note_on_c, 0, 69, 86
2, 36744, Note_on_c, 0, 81, 0
2, 36751, Note_on_c, 0, 69, 0
2, 36780, Note_on_c, 0, 82, 117
2, 36780, Note_on_c, 0, 70, 95
2, 36804, Note_on_c, 0, 82, 0
2, 36811, Note_on_c, 0, 70, 0
2, 36840, Note_on_c, 0, 67, 103
2, 36840, Note_on_c, 0, 79, 108
2, 36864, Note_on_c, 0, 79, 0
2, 36873, Note_on_c, 0, 67, 0
2, 36900, Note_on_c, 0, 81, 108
2, 36900, Note_on_c, 0, 69, 95
2, 36923, Note_on_c, 0, 81, 0
2, 36930, Note_on_c, 0, 69, 0
2, 36960, Note_on_c, 0, 65, 90
2, 36960, Note_on_c, 0, 77, 103
2, 36980, Control_c, 0, 64, 127
2, 37017, Note_on_c, 0, 77, 0
2, 37020, Note_on_c, 0, 67, 86
2, 37020, Note_on_c, 0, 79, 99
2, 37022, Note_on_c, 0, 65, 0
2, 37059, Note_on_c, 0, 79, 0
2, 37064, Control_c, 0, 64, 0
2, 37076, Note_on_c, 0, 67, 0
2, 37080, Note_on_c, 0, 69, 95
2, 37080, Note_on_c, 0, 81, 99
2, 37105, Control_c, 0, 64, 127
2, 37140, Note_on_c, 0, 81, 0
2, 37140, Note_on_c, 0, 69, 0
2, 37140, Note_on_c, 0, 79, 99
2, 37140, Note_on_c, 0, 67, 95
2, 37171, Note_on_c, 0, 67, 0
2, 37178, Note_on_c, 0, 79, 0
2, 37182, Control_c, 0, 64, 0
2, 37200, Note_on_c, 0, 77, 103
2, 37200, Note_on_c, 0, 65, 103
2, 37252, Note_on_c, 0, 77, 0
2, 37258, Note_on_c, 0, 65, 0
2, 37260, Note_on_c, 0, 79, 99
2, 37260, Note_on_c, 0, 67, 99
2, 37309, Note_on_c, 0, 79, 0
2, 37314, Note_on_c, 0, 67, 0
2, 37320, Note_on_c, 0, 64, 103
2, 37320, Note_on_c, 0, 76, 99
2, 37367, Control_c, 0, 64, 127
2, 37370, Note_on_c, 0, 76, 0
2, 37380, Note_on_c, 0, 77, 99
2, 37380, Note_on_c, 0, 65, 99
2, 37381, Note_on_c, 0, 64, 0
2, 37390, Control_c, 0, 64, 0
2, 37430, Note_on_c, 0, 77, 0
2, 37431, Note_on_c, 0, 65, 0
2, 37440, Note_on_c, 0, 62, 99
2, 37440, Note_on_c, 0, 74, 103
2, 37449, Control_c, 0, 64, 127
2, 37484, Note_on_c, 0, 74, 0
2, 37500, Note_on_c, 0, 64, 99
2, 37500, Note_on_c, 0, 76, 103
2, 37502, Note_on_c, 0, 62, 0
2, 37513, Control_c, 0, 64, 0
2, 37554, Note_on_c, 0, 76, 0
2, 37558, Note_on_c, 0, 64, 0
2, 37560, Note_on_c, 0, 65, 95
2, 37560, Note_on_c, 0, 77, 99
2, 37585, Control_c, 0, 64, 127
2, 37619, Note_on_c, 0, 77, 0
2, 37620, Note_on_c, 0, 76, 99
2, 37620, Note_on_c, 0, 64, 103
2, 37624, Note_on_c, 0, 65, 0
2, 37655, Control_c, 0, 64, 0
2, 37671, Note_on_c, 0, 64, 0
2, 37674, Note_on_c, 0, 76, 0
2, 37680, Note_on_c, 0, 62, 90
2, 37680, Note_on_c, 0, 74, 103
2, 37705, Control_c, 0, 64, 127
2, 37732, Note_on_c, 0, 74, 0
2, 37735, Note_on_c, 0, 62, 0
2, 37740, Note_on_c, 0, 64, 95
2, 37740, Note_on_c, 0, 76, 108
2, 37783, Control_c, 0, 64, 0
2, 37793, Note_on_c, 0, 76, 0
2, 37800, Note_on_c, 0, 60, 82
2, 37800, Note_on_c, 0, 72, 108
2, 37804, Note_on_c, 0, 64, 0
2, 37826, Control_c, 0, 64, 127
2, 37842, Note_on_c, 0, 72, 0
2, 37853, Note_on_c, 0, 60, 0
2, 37860, Note_on_c, 0, 74, 99
2, 37860, Note_on_c, 0, 62, 99
2, 37891, Note_on_c, 0, 62, 0
2, 37904, Note_on_c, 0, 74, 0
2, 37909, Control_c, 0, 64, 0
2, 37920, Note_on_c, 0, 59, 99
2, 37920, Note_on_c, 0, 71, 117
2, 37968, Control_c, 0, 64, 127
2, 37975, Note_on_c, 0, 71, 0
2, 37980, Note_on_c, 0, 72, 103
2, 37980, Note_on_c, 0, 60, 99
2, 37988, Note_on_c, 0, 59, 0
2, 38013, Control_c, 0, 64, 0
2, 38032, Note_on_c, 0, 72, 0
2, 38036, Note_on_c, 0, 60, 0
2, 38040, Note_on_c, 0, 62, 103
2, 38040, Note_on_c, 0, 74, 103
2, 38061, Control_c, 0, 64, 127
2, 38100, Note_on_c, 0, 60, 103
2, 38100, Note_on_c, 0, 72, 99
2, 38103, Note_on_c, 0, 74, 0
2, 38109, Note_on_c, 0, 62, 0
2, 38127, Control_c, 0, 64, 0
2, 38151, Note_on_c, 0, 60, 0
2, 38154, Note_on_c, 0, 72, 0
2, 38160, Note_on_c, 0, 59, 90
2, 38160, Note_on_c, 0, 71, 108
2, 38180, Control_c, 0, 64, 127
2, 38205, Note_on_c, 0, 71, 0
2, 38218, Note_on_c, 0, 59, 0
2, 38220, Note_on_c, 0, 72, 103
2, 38220, Note_on_c, 0, 60, 99
2, 38263, Control_c, 0, 64, 0
2, 38267, Note_on_c, 0, 72, 0
2, 38270, Note_on_c, 0, 60, 0
2, 38280, Note_on_c, 0, 57, 86
2, 38280, Note_on_c, 0, 69, 108
2, 38305, Control_c, 0, 64, 127
2, 38333, Note_on_c, 0, 69, 0
2, 38340, Note_on_c, 0, 59, 95
2, 38340, Note_on_c, 0, 71, 103
2, 38343, Note_on_c, 0, 57, 0
2, 38376, Note_on_c, 0, 71, 0
2, 38376, Note_on_c, 0, 59, 0
2, 38400, Note_on_c, 0, 55, 95
2, 38400, Note_on_c, 0, 55, 103
2, 38400, Note_on_c, 0, 62, 112
2, 38400, Note_on_c, 0, 67, 112
2, 38520, Note_on_c, 0, 71, 127
2, 38520, Note_on_c, 0, 77, 117
2, 38520, Note_on_c, 0, 74, 127
2, 38566, Control_c, 0, 64, 127
2, 38754, Note_on_c, 0, 55, 0
2, 38879, Note_on_c, 0, 74, 0
2, 38880, Note_on_c, 0, 67, 0
2, 38881, Note_on_c, 0, 71, 0
2, 38881, Note_on_c, 0, 77, 0
2, 38883, Note_on_c, 0, 62, 0
2, 38885, Control_c, 0, 64, 0
2, 38889, Note_on_c, 0, 55, 0
2, 39360, Note_on_c, 0, 72, 99
2, 39360, Control_c, 0, 64, 127
2, 39360, Note_on_c, 0, 64, 95
2, 39360, Note_on_c, 0, 76, 103
2, 39360, Note_on_c, 0, 67, 99
2, 39394, Note_on_c, 0, 64, 0
2, 39396, Note_on_c, 0, 67, 0
2, 39397, Note_on_c, 0, 72, 0
2, 39399, Note_on_c, 0, 76, 0
2, 39476, Control_c, 0, 64, 0
2, 39480, Note_on_c, 0, 67, 86
2, 39480, Note_on_c, 0, 76, 99
2, 39480, Note_on_c, 0, 79, 99
2, 39480, Note_on_c, 0, 72, 95
2, 39499, Control_c, 0, 64, 127
2, 39530, Note_on_c, 0, 79, 0
2, 39531, Note_on_c, 0, 76, 0
2, 39534, Note_on_c, 0, 67, 0
2, 39534, Note_on_c, 0, 72, 0
2, 39598, Control_c, 0, 64, 0
2, 39840, Note_on_c, 0, 67, 86
2, 39840, Note_on_c, 0, 77, 95
2, 39856, Control_c, 0, 64, 127
2, 39870, Note_on_c, 0, 74, 95
2, 39874, Note_on_c, 0, 77, 0
2, 39899, Note_on_c, 0, 74, 0
2, 39900, Note_on_c, 0, 76, 90
2, 39929, Note_on_c, 0, 76, 0
2, 39930, Note_on_c, 0, 77, 99
2, 39948, Note_on_c, 0, 77, 0
2, 39960, Note_on_c, 0, 79, 112
2, 39968, Control_c, 0, 64, 0
2, 39981, Note_on_c, 0, 79, 0
2, 39990, Note_on_c, 0, 81, 86
2, 39995, Control_c, 0, 64, 127
2, 40009, Note_on_c, 0, 81, 0
2, 40020, Note_on_c, 0, 83, 99
2, 40037, Note_on_c, 0, 83, 0
2, 40050, Note_on_c, 0, 84, 82
2, 40070, Note_on_c, 0, 84, 0
2, 40075, Note_on_c, 0, 67, 0
2, 40080, Note_on_c, 0, 71, 99
2, 40080, Note_on_c, 0, 86, 112
2, 40086, Control_c, 0, 64, 0
2, 40103, Note_on_c, 0, 86, 0
2, 40110, Note_on_c, 0, 84, 103
2, 40124, Control_c, 0, 64, 127
2, 40133, Note_on_c, 0, 84, 0
2, 40140, Note_on_c, 0, 83, 99
2, 40161, Note_on_c, 0, 83, 0
2, 40170, Note_on_c, 0, 81, 103
2, 40195, Note_on_c, 0, 81, 0
2, 40200, Note_on_c, 0, 79, 103
2, 40217, Note_on_c, 0, 79, 0
2, 40230, Note_on_c, 0, 77, 95
2, 40251, Note_on_c, 0, 71, 0
2, 40253, Note_on_c, 0, 77, 0
2, 40260, Note_on_c, 0, 76, 72
2, 40280, Note_on_c, 0, 76, 0
2, 40290, Note_on_c, 0, 74, 82
2, 40310, Note_on_c, 0, 74, 0
2, 40320, Note_on_c, 0, 64, 86
2, 40320, Note_on_c, 0, 76, 99
2, 40320, Note_on_c, 0, 67, 82
2, 40320, Note_on_c, 0, 72, 99
2, 40325, Control_c, 0, 64, 0
2, 40353, Control_c, 0, 64, 127
2, 40357, Note_on_c, 0, 67, 0
2, 40357, Note_on_c, 0, 64, 0
2, 40362, Note_on_c, 0, 76, 0
2, 40364, Note_on_c, 0, 72, 0
2, 40435, Control_c, 0, 64, 0
2, 40440, Note_on_c, 0, 76, 95
2, 40440, Note_on_c, 0, 67, 86
2, 40440, Note_on_c, 0, 79, 99
2, 40440, Note_on_c, 0, 72, 90
2, 40460, Control_c, 0, 64, 127
2, 40491, Note_on_c, 0, 79, 0
2, 40496, Note_on_c, 0, 76, 0
2, 40498, Note_on_c, 0, 67, 0
2, 40499, Note_on_c, 0, 72, 0
2, 40561, Control_c, 0, 64, 0
2, 40800, Note_on_c, 0, 67, 74
2, 40800, Note_on_c, 0, 77, 82
2, 40827, Note_on_c, 0, 77, 0
2, 40827, Control_c, 0, 64, 127
2, 40830, Note_on_c, 0, 74, 86
2, 40860, Note_on_c, 0, 74, 0
2, 40860, Note_on_c, 0, 76, 82
2, 40885, Note_on_c, 0, 76, 0
2, 40890, Note_on_c, 0, 77, 78
2, 40910, Note_on_c, 0, 77, 0
2, 40920, Note_on_c, 0, 79, 82
2, 40932, Control_c, 0, 64, 0
2, 40941, Note_on_c, 0, 79, 0
2, 40950, Note_on_c, 0, 81, 90
2, 40957, Control_c, 0, 64, 127
2, 40972, Note_on_c, 0, 81, 0
2, 40980, Note_on_c, 0, 83, 86
2, 41001, Note_on_c, 0, 83, 0
2, 41010, Note_on_c, 0, 84, 82
2, 41027, Note_on_c, 0, 67, 0
2, 41030, Note_on_c, 0, 84, 0
2, 41040, Note_on_c, 0, 71, 95
2, 41040, Note_on_c, 0, 86, 99
2, 41043, Control_c, 0, 64, 0
2, 41064, Note_on_c, 0, 86, 0
2, 41070, Note_on_c, 0, 84, 82
2, 41075, Control_c, 0, 64, 127
2, 41096, Note_on_c, 0, 84, 0
2, 41100, Note_on_c, 0, 83, 74
2, 41130, Note_on_c, 0, 83, 0
2, 41130, Note_on_c, 0, 81, 74
2, 41160, Note_on_c, 0, 81, 0
2, 41160, Note_on_c, 0, 79, 86
2, 41178, Note_on_c, 0, 79, 0
2, 41190, Note_on_c, 0, 77, 86
2, 41209, Note_on_c, 0, 77, 0
2, 41220, Note_on_c, 0, 76, 67
2, 41228, Note_on_c, 0, 71, 0
2, 41243, Note_on_c, 0, 76, 0
2, 41250, Note_on_c, 0, 74, 72
2, 41271, Note_on_c, 0, 74, 0
2, 41274, Control_c, 0, 64, 0
2, 41280, Note_on_c, 0, 76, 78
2, 41280, Note_on_c, 0, 67, 86
2, 41280, Note_on_c, 0, 72, 74
2, 41302, Control_c, 0, 64, 127
2, 41329, Note_on_c, 0, 72, 0
2, 41332, Note_on_c, 0, 76, 0
2, 41340, Note_on_c, 0, 72, 65
2, 41340, Note_on_c, 0, 76, 69
2, 41373, Note_on_c, 0, 72, 0
2, 41374, Note_on_c, 0, 76, 0
2, 41400, Note_on_c, 0, 72, 82
2, 41400, Note_on_c, 0, 76, 82
2, 41436, Note_on_c, 0, 72, 0
2, 41439, Note_on_c, 0, 76, 0
2, 41460, Note_on_c, 0, 76, 74
2, 41460, Note_on_c, 0, 72, 78
2, 41478, Note_on_c, 0, 67, 0
2, 41481, Note_on_c, 0, 76, 0
2, 41487, Note_on_c, 0, 72, 0
2, 41519, Control_c, 0, 64, 0
2, 41520, Note_on_c, 0, 67, 74
2, 41520, Note_on_c, 0, 76, 78
2, 41520, Note_on_c, 0, 72, 90
2, 41545, Control_c, 0, 64, 127
2, 41575, Note_on_c, 0, 72, 0
2, 41576, Note_on_c, 0, 76, 0
2, 41580, Note_on_c, 0, 72, 86
2, 41580, Note_on_c, 0, 76, 86
2, 41615, Note_on_c, 0, 76, 0
2, 41616, Note_on_c, 0, 72, 0
2, 41640, Note_on_c, 0, 72, 86
2, 41640, Note_on_c, 0, 76, 95
2, 41673, Note_on_c, 0, 76, 0
2, 41675, Note_on_c, 0, 72, 0
2, 41700, Note_on_c, 0, 67, 0
2, 41700, Note_on_c, 0, 76, 82
2, 41700, Note_on_c, 0, 72, 86
2, 41718, Note_on_c, 0, 72, 0
2, 41722, Note_on_c, 0, 76, 0
2, 41760, Note_on_c, 0, 77, 82
2, 41760, Note_on_c, 0, 72, 86
2, 41760, Note_on_c, 0, 69, 90
2, 41761, Control_c, 0, 64, 0
2, 41786, Control_c, 0, 64, 127
2, 41853, Note_on_c, 0, 69, 0
2, 41853, Note_on_c, 0, 77, 0
2, 41854, Note_on_c, 0, 72, 0
2, 41864, Control_c, 0, 64, 0
2, 42003, Control_c, 0, 64, 127
2, 42060, Note_on_c, 0, 69, 99
2, 42060, Note_on_c, 0, 72, 86
2, 42060, Note_on_c, 0, 77, 99
2, 42082, Note_on_c, 0, 72, 0
2, 42084, Note_on_c, 0, 69, 0
2, 42086, Note_on_c, 0, 77, 0
2, 42120, Note_on_c, 0, 69, 99
2, 42120, Note_on_c, 0, 72, 82
2, 42120, Note_on_c, 0, 77, 86
2, 42141, Note_on_c, 0, 69, 0
2, 42143, Note_on_c, 0, 77, 0
2, 42143, Note_on_c, 0, 72, 0
2, 42180, Note_on_c, 0, 69, 86
2, 42180, Note_on_c, 0, 72, 72
2, 42180, Note_on_c, 0, 77, 78
2, 42202, Note_on_c, 0, 77, 0
2, 42204, Note_on_c, 0, 72, 0
2, 42207, Note_on_c, 0, 69, 0
2, 42235, Control_c, 0, 64, 0
2, 42240, Note_on_c, 0, 76, 90
2, 42240, Note_on_c, 0, 67, 90
2, 42243, Control_c, 0, 64, 127
2, 42264, Note_on_c, 0, 67, 0
2, 42300, Note_on_c, 0, 67, 86
2, 42320, Note_on_c, 0, 67, 0
2, 42334, Note_on_c, 0, 76, 0
2, 42360, Note_on_c, 0, 67, 86
2, 42384, Note_on_c, 0, 67, 0
2, 42420, Note_on_c, 0, 67, 86
2, 42443, Note_on_c, 0, 67, 0
2, 42450, Note_on_c, 0, 77, 86
2, 42468, Note_on_c, 0, 77, 0
2, 42480, Note_on_c, 0, 67, 95
2, 42480, Note_on_c, 0, 65, 86
2, 42480, Note_on_c, 0, 76, 86
2, 42484, Control_c, 0, 64, 0
2, 42508, Note_on_c, 0, 76, 0
2, 42510, Note_on_c, 0, 74, 86
2, 42511, Control_c, 0, 64, 127
2, 42520, Note_on_c, 0, 67, 0
2, 42522, Note_on_c, 0, 74, 0
2, 42522, Note_on_c, 0, 65, 0
2, 42540, Note_on_c, 0, 76, 95
2, 42540, Note_on_c, 0, 65, 74
2, 42540, Note_on_c, 0, 67, 86
2, 42561, Note_on_c, 0, 76, 0
2, 42562, Note_on_c, 0, 67, 0
2, 42563, Note_on_c, 0, 65, 0
2, 42570, Note_on_c, 0, 74, 86
2, 42584, Note_on_c, 0, 74, 0
2, 42600, Note_on_c, 0, 76, 90
2, 42600, Note_on_c, 0, 65, 90
2, 42600, Note_on_c, 0, 67, 86
2, 42606, Control_c, 0, 64, 0
2, 42621, Note_on_c, 0, 76, 0
2, 42626, Control_c, 0, 64, 127
2, 42630, Note_on_c, 0, 74, 82
2, 42638, Note_on_c, 0, 67, 0
2, 42641, Note_on_c, 0, 65, 0
2, 42649, Note_on_c, 0, 74, 0
2, 42660, Note_on_c, 0, 72, 82
2, 42660, Note_on_c, 0, 65, 86
2, 42660, Note_on_c, 0, 67, 74
2, 42677, Note_on_c, 0, 65, 0
2, 42678, Note_on_c, 0, 67, 0
2, 42682, Note_on_c, 0, 72, 0
2, 42690, Note_on_c, 0, 74, 86
2, 42703, Note_on_c, 0, 74, 0
2, 42713, Control_c, 0, 64, 0
2, 42720, Note_on_c, 0, 60, 86
2, 42720, Note_on_c, 0, 72, 103
2, 42739, Control_c, 0, 64, 127
2, 42740, Note_on_c, 0, 72, 0
2, 42771, Note_on_c, 0, 60, 0
2, 42780, Note_on_c, 0, 67, 78
2, 42811, Note_on_c, 0, 67, 0
2, 42818, Control_c, 0, 64, 0
2, 42840, Note_on_c, 0, 64, 78
2, 42840, Note_on_c, 0, 79, 103
2, 42854, Control_c, 0, 64, 127
2, 42900, Note_on_c, 0, 64, 0
2, 42900, Note_on_c, 0, 67, 72
2, 42916, Note_on_c, 0, 79, 0
2, 42937, Note_on_c, 0, 67, 0
2, 42960, Note_on_c, 0, 60, 72
2, 42960, Note_on_c, 0, 79, 103
2, 42962, Control_c, 0, 64, 0
2, 42990, Control_c, 0, 64, 127
2, 43019, Note_on_c, 0, 60, 0
2, 43020, Note_on_c, 0, 67, 86
2, 43025, Note_on_c, 0, 79, 0
2, 43058, Note_on_c, 0, 67, 0
2, 43080, Note_on_c, 0, 64, 90
2, 43080, Note_on_c, 0, 77, 99
2, 43083, Control_c, 0, 64, 0
2, 43103, Note_on_c, 0, 77, 0
2, 43107, Control_c, 0, 64, 127
2, 43110, Note_on_c, 0, 76, 86
2, 43127, Note_on_c, 0, 76, 0
2, 43139, Note_on_c, 0, 64, 0
2, 43140, Note_on_c, 0, 74, 86
2, 43140, Note_on_c, 0, 67, 86
2, 43157, Note_on_c, 0, 74, 0
2, 43160, Note_on_c, 0, 67, 0
2, 43170, Note_on_c, 0, 72, 74
2, 43188, Note_on_c, 0, 72, 0
2, 43191, Control_c, 0, 64, 0
2, 43200, Note_on_c, 0, 60, 90
2, 43200, Note_on_c, 0, 81, 103
2, 43220, Control_c, 0, 64, 127
2, 43254, Note_on_c, 0, 81, 0
2, 43257, Note_on_c, 0, 60, 0
2, 43260, Note_on_c, 0, 69, 86
2, 43304, Note_on_c, 0, 69, 0
2, 43320, Note_on_c, 0, 65, 90
2, 43320, Note_on_c, 0, 81, 108
2, 43326, Control_c, 0, 64, 0
2, 43349, Control_c, 0, 64, 127
2, 43379, Note_on_c, 0, 65, 0
2, 43380, Note_on_c, 0, 69, 86
2, 43382, Note_on_c, 0, 81, 0
2, 43417, Note_on_c, 0, 69, 0
2, 43438, Control_c, 0, 64, 0
2, 43440, Note_on_c, 0, 81, 103
2, 43440, Note_on_c, 0, 60, 82
2, 43460, Control_c, 0, 64, 127
2, 43491, Note_on_c, 0, 81, 0
2, 43497, Note_on_c, 0, 60, 0
2, 43500, Note_on_c, 0, 83, 103
2, 43500, Note_on_c, 0, 69, 82
2, 43514, Note_on_c, 0, 83, 0
2, 43541, Note_on_c, 0, 69, 0
2, 43560, Note_on_c, 0, 65, 72
2, 43560, Note_on_c, 0, 84, 99
2, 43614, Note_on_c, 0, 65, 0
2, 43617, Note_on_c, 0, 84, 0
2, 43620, Note_on_c, 0, 81, 103
2, 43620, Note_on_c, 0, 69, 82
2, 43633, Note_on_c, 0, 81, 0
2, 43641, Note_on_c, 0, 69, 0
2, 43667, Control_c, 0, 64, 0
2, 43680, Note_on_c, 0, 60, 78
2, 43680, Note_on_c, 0, 81, 103
2, 43699, Control_c, 0, 64, 127
2, 43738, Note_on_c, 0, 81, 0
2, 43740, Note_on_c, 0, 60, 0
2, 43740, Note_on_c, 0, 67, 62
2, 43740, Note_on_c, 0, 79, 99
2, 43784, Note_on_c, 0, 79, 0
2, 43792, Note_on_c, 0, 67, 0
2, 43800, Note_on_c, 0, 64, 86
2, 43800, Note_on_c, 0, 77, 86
2, 43802, Control_c, 0, 64, 0
2, 43825, Control_c, 0, 64, 127
2, 43856, Note_on_c, 0, 77, 0
2, 43860, Note_on_c, 0, 64, 0
2, 43860, Note_on_c, 0, 76, 95
2, 43860, Note_on_c, 0, 67, 86
2, 43882, Note_on_c, 0, 67, 0
2, 43884, Note_on_c, 0, 76, 0
2, 43917, Control_c, 0, 64, 0
2, 43920, Note_on_c, 0, 62, 82
2, 43920, Note_on_c, 0, 79, 103
2, 43942, Control_c, 0, 64, 127
2, 43977, Note_on_c, 0, 79, 0
2, 43978, Note_on_c, 0, 62, 0
2, 43980, Note_on_c, 0, 67, 82
2, 43980, Note_on_c, 0, 77, 99
2, 44001, Note_on_c, 0, 77, 0
2, 44030, Note_on_c, 0, 67, 0
2, 44035, Control_c, 0, 64, 0
2, 44040, Note_on_c, 0, 65, 78
2, 44040, Note_on_c, 0, 76, 95
2, 44058, Control_c, 0, 64, 127
2, 44093, Note_on_c, 0, 76, 0
2, 44100, Note_on_c, 0, 65, 0
2, 44100, Note_on_c, 0, 67, 82
2, 44100, Note_on_c, 0, 77, 103
2, 44116, Note_on_c, 0, 77, 0
2, 44120, Note_on_c, 0, 67, 0
2, 44155, Control_c, 0, 64, 0
2, 44160, Note_on_c, 0, 60, 74
2, 44160, Note_on_c, 0, 79, 108
2, 44182, Control_c, 0, 64, 127
2, 44190, Note_on_c, 0, 77, 78
2, 44191, Note_on_c, 0, 79, 0
2, 44210, Note_on_c, 0, 77, 0
2, 44218, Note_on_c, 0, 60, 0
2, 44220, Note_on_c, 0, 67, 86
2, 44220, Note_on_c, 0, 79, 99
2, 44245, Note_on_c, 0, 79, 0
2, 44250, Note_on_c, 0, 77, 95
2, 44269, Note_on_c, 0, 77, 0
2, 44269, Note_on_c, 0, 67, 0
2, 44277, Control_c, 0, 64, 0
2, 44280, Note_on_c, 0, 79, 95
2, 44280, Note_on_c, 0, 64, 90
2, 44297, Control_c, 0, 64, 127
2, 44305, Note_on_c, 0, 79, 0
2, 44310, Note_on_c, 0, 77, 99
2, 44330, Note_on_c, 0, 77, 0
2, 44338, Note_on_c, 0, 64, 0
2, 44340, Note_on_c, 0, 76, 99
2, 44340, Note_on_c, 0, 67, 86
2, 44361, Note_on_c, 0, 76, 0
2, 44369, Note_on_c, 0, 67, 0
2, 44370, Note_on_c, 0, 77, 86
2, 44387, Note_on_c, 0, 77, 0
2, 44388, Control_c, 0, 64, 0
2, 44400, Note_on_c, 0, 60, 78
2, 44400, Note_on_c, 0, 76, 103
2, 44415, Control_c, 0, 64, 127
2, 44452, Note_on_c, 0, 76, 0
2, 44459, Note_on_c, 0, 60, 0
2, 44460, Note_on_c, 0, 67, 86
2, 44483, Note_on_c, 0, 67, 0
2, 44512, Control_c, 0, 64, 0
2, 44520, Note_on_c, 0, 64, 72
2, 44520, Note_on_c, 0, 72, 86
2, 44538, Control_c, 0, 64, 127
2, 44543, Note_on_c, 0, 72, 0
2, 44550, Note_on_c, 0, 74, 78
2, 44570, Note_on_c, 0, 74, 0
2, 44580, Note_on_c, 0, 76, 90
2, 44580, Note_on_c, 0, 67, 78
2, 44581, Note_on_c, 0, 64, 0
2, 44601, Note_on_c, 0, 67, 0
2, 44603, Note_on_c, 0, 76, 0
2, 44610, Note_on_c, 0, 77, 70
2, 44629, Note_on_c, 0, 77, 0
2, 44631, Control_c, 0, 64, 0
2, 44640, Note_on_c, 0, 60, 86
2, 44640, Note_on_c, 0, 79, 78
2, 44656, Control_c, 0, 64, 127
2, 44699, Note_on_c, 0, 79, 0
2, 44699, Note_on_c, 0, 60, 0
2, 44700, Note_on_c, 0, 67, 58
2, 44755, Note_on_c, 0, 67, 0
2, 44760, Note_on_c, 0, 64, 74
2, 44760, Note_on_c, 0, 79, 86
2, 44760, Control_c, 0, 64, 0
2, 44779, Control_c, 0, 64, 127
2, 44820, Note_on_c, 0, 79, 0
2, 44820, Note_on_c, 0, 67, 70
2, 44823, Note_on_c, 0, 64, 0
2, 44861, Note_on_c, 0, 67, 0
2, 44880, Note_on_c, 0, 79, 86
2, 44880, Note_on_c, 0, 60, 70
2, 44880, Control_c, 0, 64, 0
2, 44901, Control_c, 0, 64, 127
2, 44938, Note_on_c, 0, 60, 0
2, 44940, Note_on_c, 0, 67, 74
2, 44944, Note_on_c, 0, 79, 0
2, 44988, Note_on_c, 0, 67, 0
2, 44998, Control_c, 0, 64, 0
2, 45000, Note_on_c, 0, 64, 86
2, 45000, Note_on_c, 0, 77, 90
2, 45021, Control_c, 0, 64, 127
2, 45027, Note_on_c, 0, 77, 0
2, 45030, Note_on_c, 0, 76, 86
2, 45050, Note_on_c, 0, 76, 0
2, 45057, Note_on_c, 0, 64, 0
2, 45060, Note_on_c, 0, 74, 86
2, 45060, Note_on_c, 0, 67, 86
2, 45078, Note_on_c, 0, 74, 0
2, 45081, Note_on_c, 0, 67, 0
2, 45090, Note_on_c, 0, 72, 74
2, 45106, Control_c, 0, 64, 0
2, 45113, Note_on_c, 0, 72, 0
2, 45120, Note_on_c, 0, 60, 82
2, 45120, Note_on_c, 0, 81, 103
2, 45134, Control_c, 0, 64, 127
2, 45176, Note_on_c, 0, 60, 0
2, 45178, Note_on_c, 0, 81, 0
2, 45180, Note_on_c, 0, 69, 82
2, 45237, Note_on_c, 0, 69, 0
2, 45239, Control_c, 0, 64, 0
2, 45240, Note_on_c, 0, 81, 103
2, 45240, Note_on_c, 0, 65, 69
2, 45260, Control_c, 0, 64, 127
2, 45297, Note_on_c, 0, 81, 0
2, 45299, Note_on_c, 0, 65, 0
2, 45300, Note_on_c, 0, 69, 74
2, 45356, Control_c, 0, 64, 0
2, 45358, Note_on_c, 0, 69, 0
2, 45360, Note_on_c, 0, 60, 74
2, 45360, Note_on_c, 0, 81, 99
2, 45380, Control_c, 0, 64, 127
2, 45415, Note_on_c, 0, 81, 0
2, 45420, Note_on_c, 0, 69, 74
2, 45420, Note_on_c, 0, 83, 103
2, 45423, Note_on_c, 0, 60, 0
2, 45435, Note_on_c, 0, 83, 0
2, 45477, Note_on_c, 0, 69, 0
2, 45477, Control_c, 0, 64, 0
2, 45480, Note_on_c, 0, 65, 74
2, 45480, Note_on_c, 0, 84, 95
2, 45498, Control_c, 0, 64, 127
2, 45540, Note_on_c, 0, 81, 95
2, 45540, Note_on_c, 0, 69, 82
2, 45542, Note_on_c, 0, 84, 0
2, 45545, Note_on_c, 0, 65, 0
2, 45554, Note_on_c, 0, 81, 0
2, 45561, Note_on_c, 0, 69, 0
2, 45597, Control_c, 0, 64, 0
2, 45600, Note_on_c, 0, 60, 69
2, 45600, Note_on_c, 0, 81, 99
2, 45623, Control_c, 0, 64, 127
2, 45658, Note_on_c, 0, 81, 0
2, 45658, Note_on_c, 0, 60, 0
2, 45660, Note_on_c, 0, 67, 67
2, 45660, Note_on_c, 0, 79, 86
2, 45717, Note_on_c, 0, 79, 0
2, 45719, Note_on_c, 0, 67, 0
2, 45720, Note_on_c, 0, 77, 95
2, 45720, Note_on_c, 0, 64, 72
2, 45720, Control_c, 0, 64, 0
2, 45742, Control_c, 0, 64, 127
2, 45778, Note_on_c, 0, 77, 0
2, 45780, Note_on_c, 0, 64, 0
2, 45780, Note_on_c, 0, 67, 82
2, 45780, Note_on_c, 0, 76, 95
2, 45805, Note_on_c, 0, 76, 0
2, 45821, Note_on_c, 0, 67, 0
2, 45839, Control_c, 0, 64, 0
2, 45840, Note_on_c, 0, 79, 99
2, 45840, Note_on_c, 0, 62, 74
2, 45868, Control_c, 0, 64, 127
2, 45899, Note_on_c, 0, 62, 0
2, 45900, Note_on_c, 0, 79, 0
2, 45900, Note_on_c, 0, 67, 72
2, 45900, Note_on_c, 0, 77, 86
2, 45951, Note_on_c, 0, 77, 0
2, 45960, Note_on_c, 0, 67, 0
2, 45960, Note_on_c, 0, 76, 86
2, 45960, Note_on_c, 0, 65, 72
2, 45961, Control_c, 0, 64, 0
2, 45989, Control_c, 0, 64, 127
2, 46018, Note_on_c, 0, 76, 0
2, 46020, Note_on_c, 0, 65, 0
2, 46020, Note_on_c, 0, 74, 99
2, 46020, Note_on_c, 0, 67, 78
2, 46042, Note_on_c, 0, 74, 0
2, 46062, Note_on_c, 0, 67, 0
2, 46080, Note_on_c, 0, 60, 82
2, 46080, Note_on_c, 0, 74, 86
2, 46085, Control_c, 0, 64, 0
2, 46123, Control_c, 0, 64, 127
2, 46140, Note_on_c, 0, 67, 67
2, 46142, Note_on_c, 0, 60, 0
2, 46200, Note_on_c, 0, 64, 70
2, 46210, Note_on_c, 0, 67, 0
2, 46257, Note_on_c, 0, 64, 0
2, 46260, Note_on_c, 0, 67, 66
2, 46266, Note_on_c, 0, 74, 0
2, 46311, Note_on_c, 0, 67, 0
2, 46320, Note_on_c, 0, 76, 99
2, 46320, Note_on_c, 0, 60, 63
2, 46331, Control_c, 0, 64, 0
2, 46358, Control_c, 0, 64, 127
2, 46380, Note_on_c, 0, 67, 69
2, 46384, Note_on_c, 0, 76, 0
2, 46385, Note_on_c, 0, 60, 0
2, 46440, Control_c, 0, 64, 0
2, 46440, Note_on_c, 0, 64, 82
2, 46444, Note_on_c, 0, 67, 0
2, 46471, Control_c, 0, 64, 127
2, 46496, Note_on_c, 0, 64, 0
2, 46500, Note_on_c, 0, 79, 112
2, 46500, Note_on_c, 0, 67, 82
2, 46516, Note_on_c, 0, 79, 0
2, 46523, Note_on_c, 0, 67, 0
2, 46560, Note_on_c, 0, 60, 69
2, 46560, Note_on_c, 0, 79, 103
2, 46568, Control_c, 0, 64, 0
2, 46592, Control_c, 0, 64, 127
2, 46620, Note_on_c, 0, 67, 61
2, 46620, Note_on_c, 0, 76, 90
2, 46622, Note_on_c, 0, 79, 0
2, 46626, Note_on_c, 0, 60, 0
2, 46634, Control_c, 0, 64, 0
2, 46657, Control_c, 0, 64, 127
2, 46669, Note_on_c, 0, 76, 0
2, 46680, Note_on_c, 0, 64, 67
2, 46681, Note_on_c, 0, 67, 0
2, 46697, Control_c, 0, 64, 0
2, 46731, Control_c, 0, 64, 127
2, 46740, Note_on_c, 0, 79, 99
2, 46740, Note_on_c, 0, 67, 67
2, 46742, Note_on_c, 0, 64, 0
2, 46761, Note_on_c, 0, 79, 0
2, 46793, Note_on_c, 0, 67, 0
2, 46800, Note_on_c, 0, 62, 86
2, 46800, Note_on_c, 0, 79, 99
2, 46803, Control_c, 0, 64, 0
2, 46827, Control_c, 0, 64, 127
2, 46854, Note_on_c, 0, 79, 0
2, 46858, Note_on_c, 0, 62, 0
2, 46860, Note_on_c, 0, 67, 72
2, 46860, Note_on_c, 0, 77, 86
2, 46872, Control_c, 0, 64, 0
2, 46905, Note_on_c, 0, 77, 0
2, 46906, Control_c, 0, 64, 127
2, 46917, Note_on_c, 0, 67, 0
2, 46920, Note_on_c, 0, 65, 69
2, 46930, Control_c, 0, 64, 0
2, 46972, Control_c, 0, 64, 127
2, 46978, Note_on_c, 0, 65, 0
2, 46980, Note_on_c, 0, 67, 69
2, 46980, Note_on_c, 0, 74, 90
2, 47002, Note_on_c, 0, 74, 0
2, 47022, Note_on_c, 0, 67, 0
2, 47032, Control_c, 0, 64, 0
2, 47040, Note_on_c, 0, 76, 90
2, 47040, Note_on_c, 0, 60, 74
2, 47051, Control_c, 0, 64, 127
2, 47070, Note_on_c, 0, 72, 86
2, 47073, Note_on_c, 0, 76, 0
2, 47076, Control_c, 0, 64, 0
2, 47100, Note_on_c, 0, 74, 95
2, 47102, Note_on_c, 0, 72, 0
2, 47128, Note_on_c, 0, 74, 0
2, 47130, Note_on_c, 0, 76, 99
2, 47134, Note_on_c, 0, 60, 0
2, 47152, Note_on_c, 0, 76, 0
2, 47160, Note_on_c, 0, 77, 103
2, 47189, Note_on_c, 0, 77, 0
2, 47190, Note_on_c, 0, 79, 86
2, 47217, Note_on_c, 0, 79, 0
2, 47220, Note_on_c, 0, 81, 95
2, 47249, Note_on_c, 0, 81, 0
2, 47250, Note_on_c, 0, 83, 108
2, 47275, Note_on_c, 0, 83, 0
2, 47280, Note_on_c, 0, 84, 103
2, 47305, Note_on_c, 0, 84, 0
2, 47310, Note_on_c, 0, 83, 103
2, 47340, Note_on_c, 0, 81, 99
2, 47348, Note_on_c, 0, 83, 0
2, 47370, Note_on_c, 0, 79, 82
2, 47380, Note_on_c, 0, 81, 0
2, 47400, Note_on_c, 0, 79, 0
2, 47400, Note_on_c, 0, 77, 95
2, 47424, Note_on_c, 0, 77, 0
2, 47430, Note_on_c, 0, 76, 78
2, 47460, Note_on_c, 0, 74, 72
2, 47463, Note_on_c, 0, 76, 0
2, 47490, Note_on_c, 0, 72, 90
2, 47492, Note_on_c, 0, 74, 0
2, 47519, Note_on_c, 0, 72, 0
2, 47520, Note_on_c, 0, 60, 70
2, 47520, Note_on_c, 0, 79, 95
2, 47529, Control_c, 0, 64, 127
2, 47578, Note_on_c, 0, 79, 0
2, 47580, Note_on_c, 0, 67, 66
2, 47580, Note_on_c, 0, 76, 82
2, 47583, Note_on_c, 0, 60, 0
2, 47590, Control_c, 0, 64, 0
2, 47636, Note_on_c, 0, 76, 0
2, 47640, Note_on_c, 0, 64, 72
2, 47643, Note_on_c, 0, 67, 0
2, 47643, Control_c, 0, 64, 127
2, 47698, Note_on_c, 0, 64, 0
2, 47700, Note_on_c, 0, 67, 66
2, 47700, Note_on_c, 0, 76, 82
2, 47721, Note_on_c, 0, 76, 0
2, 47746, Note_on_c, 0, 67, 0
2, 47751, Control_c, 0, 64, 0
2, 47760, Note_on_c, 0, 79, 86
2, 47760, Note_on_c, 0, 62, 69
2, 47776, Control_c, 0, 64, 127
2, 47815, Note_on_c, 0, 79, 0
2, 47819, Note_on_c, 0, 62, 0
2, 47820, Note_on_c, 0, 67, 53
2, 47820, Note_on_c, 0, 77, 86
2, 47841, Control_c, 0, 64, 0
2, 47867, Control_c, 0, 64, 127
2, 47880, Note_on_c, 0, 65, 63
2, 47882, Note_on_c, 0, 67, 0
2, 47887, Note_on_c, 0, 77, 0
2, 47935, Control_c, 0, 64, 0
2, 47939, Note_on_c, 0, 65, 0
2, 47940, Note_on_c, 0, 67, 66
2, 47940, Note_on_c, 0, 74, 86
2, 47958, Control_c, 0, 64, 127
2, 47996, Note_on_c, 0, 74, 0
2, 47998, Note_on_c, 0, 67, 0
2, 48000, Note_on_c, 0, 76, 86
2, 48000, Note_on_c, 0, 64, 66
2, 48012, Control_c, 0, 64, 0
2, 48030, Note_on_c, 0, 76, 0
2, 48030, Note_on_c, 0, 72, 82
2, 48037, Note_on_c, 0, 64, 0
2, 48060, Note_on_c, 0, 74, 86
2, 48061, Note_on_c, 0, 72, 0
2, 48090, Note_on_c, 0, 76, 78
2, 48092, Note_on_c, 0, 74, 0
2, 48114, Note_on_c, 0, 76, 0
2, 48120, Note_on_c, 0, 77, 86
2, 48150, Note_on_c, 0, 79, 70
2, 48155, Note_on_c, 0, 77, 0
2, 48180, Note_on_c, 0, 81, 90
2, 48181, Note_on_c, 0, 79, 0
2, 48210, Note_on_c, 0, 83, 99
2, 48214, Note_on_c, 0, 81, 0
2, 48240, Note_on_c, 0, 84, 90
2, 48241, Note_on_c, 0, 83, 0
2, 48264, Note_on_c, 0, 84, 0
2, 48270, Note_on_c, 0, 83, 86
2, 48300, Note_on_c, 0, 81, 74
2, 48309, Note_on_c, 0, 83, 0
2, 48330, Note_on_c, 0, 79, 67
2, 48342, Note_on_c, 0, 81, 0
2, 48360, Note_on_c, 0, 77, 90
2, 48363, Note_on_c, 0, 79, 0
2, 48389, Note_on_c, 0, 77, 0
2, 48390, Note_on_c, 0, 76, 78
2, 48420, Note_on_c, 0, 74, 82
2, 48424, Note_on_c, 0, 76, 0
2, 48429, Control_c, 0, 64, 127
2, 48445, Note_on_c, 0, 74, 0
2, 48450, Note_on_c, 0, 72, 82
2, 48466, Note_on_c, 0, 72, 0
2, 48469, Control_c, 0, 64, 0
2, 48480, Note_on_c, 0, 65, 86
2, 48480, Note_on_c, 0, 81, 90
2, 48495, Control_c, 0, 64, 127
2, 48510, Note_on_c, 0, 81, 0
2, 48510, Note_on_c, 0, 79, 86
2, 48539, Note_on_c, 0, 79, 0
2, 48540, Note_on_c, 0, 81, 95
2, 48566, Note_on_c, 0, 81, 0
2, 48570, Note_on_c, 0, 83, 86
2, 48577, Note_on_c, 0, 65, 0
2, 48598, Note_on_c, 0, 83, 0
2, 48598, Control_c, 0, 64, 0
2, 48600, Note_on_c, 0, 84, 86
2, 48630, Note_on_c, 0, 83, 86
2, 48632, Note_on_c, 0, 84, 0
2, 48658, Note_on_c, 0, 83, 0
2, 48660, Note_on_c, 0, 84, 82
2, 48690, Note_on_c, 0, 83, 74
2, 48698, Note_on_c, 0, 84, 0
2, 48708, Note_on_c, 0, 83, 0
2, 48720, Note_on_c, 0, 84, 90
2, 48720, Note_on_c, 0, 64, 90
2, 48750, Note_on_c, 0, 83, 99
2, 48754, Note_on_c, 0, 84, 0
2, 48767, Control_c, 0, 64, 127
2, 48780, Note_on_c, 0, 81, 90
2, 48789, Note_on_c, 0, 83, 0
2, 48803, Control_c, 0, 64, 0
2, 48810, Note_on_c, 0, 79, 86
2, 48822, Note_on_c, 0, 64, 0
2, 48828, Note_on_c, 0, 81, 0
2, 48836, Note_on_c, 0, 79, 0
2, 48840, Note_on_c, 0, 77, 86
2, 48866, Note_on_c, 0, 77, 0
2, 48870, Note_on_c, 0, 76, 70
2, 48895, Control_c, 0, 64, 127
2, 48900, Note_on_c, 0, 74, 82
2, 48908, Note_on_c, 0, 76, 0
2, 48927, Note_on_c, 0, 74, 0
2, 48930, Note_on_c, 0, 72, 78
2, 48950, Note_on_c, 0, 72, 0
2, 48956, Control_c, 0, 64, 0
2, 48960, Note_on_c, 0, 72, 67
2, 48960, Note_on_c, 0, 76, 99
2, 48995, Control_c, 0, 64, 127
2, 49020, Note_on_c, 0, 77, 95
2, 49022, Note_on_c, 0, 76, 0
2, 49080, Note_on_c, 0, 78, 65
2, 49082, Note_on_c, 0, 77, 0
2, 49086, Note_on_c, 0, 72, 0
2, 49094, Control_c, 0, 64, 0
2, 49137, Note_on_c, 0, 78, 0
2, 49140, Note_on_c, 0, 79, 103
2, 49148, Control_c, 0, 64, 127
2, 49195, Control_c, 0, 64, 0
2, 49200, Note_on_c, 0, 79, 0
2, 49200, Note_on_c, 0, 77, 90
2, 49254, Control_c, 0, 64, 127
2, 49260, Note_on_c, 0, 76, 95
2, 49263, Control_c, 0, 64, 0
2, 49266, Note_on_c, 0, 77, 0
2, 49320, Note_on_c, 0, 74, 90
2, 49327, Note_on_c, 0, 76, 0
2, 49338, Control_c, 0, 64, 127
2, 49377, Note_on_c, 0, 74, 0
2, 49380, Note_on_c, 0, 72, 90
2, 49438, Control_c, 0, 64, 0
2, 49439, Note_on_c, 0, 72, 0
2, 49440, Note_on_c, 0, 76, 86
2, 49440, Note_on_c, 0, 62, 70
2, 49469, Control_c, 0, 64, 127
2, 49470, Note_on_c, 0, 74, 82
2, 49472, Note_on_c, 0, 76, 0
2, 49497, Note_on_c, 0, 74, 0
2, 49498, Note_on_c, 0, 62, 0
2, 49498, Control_c, 0, 64, 0
2, 49500, Note_on_c, 0, 76, 74
2, 49500, Note_on_c, 0, 67, 78
2, 49527, Control_c, 0, 64, 127
2, 49530, Note_on_c, 0, 74, 72
2, 49533, Note_on_c, 0, 76, 0
2, 49555, Note_on_c, 0, 74, 0
2, 49557, Control_c, 0, 64, 0
2, 49558, Note_on_c, 0, 67, 0
2, 49560, Note_on_c, 0, 65, 82
2, 49560, Note_on_c, 0, 76, 74
2, 49582, Control_c, 0, 64, 127
2, 49590, Note_on_c, 0, 74, 82
2, 49592, Note_on_c, 0, 76, 0
2, 49615, Note_on_c, 0, 74, 0
2, 49620, Note_on_c, 0, 65, 0
2, 49620, Note_on_c, 0, 76, 82
2, 49620, Control_c, 0, 64, 0
2, 49620, Note_on_c, 0, 67, 86
2, 49642, Control_c, 0, 64, 127
2, 49650, Note_on_c, 0, 74, 72
2, 49653, Note_on_c, 0, 76, 0
2, 49669, Control_c, 0, 64, 0
2, 49673, Note_on_c, 0, 67, 0
2, 49674, Note_on_c, 0, 74, 0
2, 49680, Note_on_c, 0, 62, 72
2, 49680, Note_on_c, 0, 76, 95
2, 49697, Control_c, 0, 64, 127
2, 49710, Note_on_c, 0, 74, 86
2, 49714, Note_on_c, 0, 76, 0
2, 49736, Note_on_c, 0, 74, 0
2, 49740, Note_on_c, 0, 76, 86
2, 49740, Note_on_c, 0, 67, 82
2, 49741, Note_on_c, 0, 62, 0
2, 49745, Control_c, 0, 64, 0
2, 49769, Control_c, 0, 64, 127
2, 49770, Note_on_c, 0, 76, 0
2, 49770, Note_on_c, 0, 74, 72
2, 49796, Note_on_c, 0, 74, 0
2, 49799, Note_on_c, 0, 67, 0
2, 49800, Note_on_c, 0, 76, 82
2, 49800, Note_on_c, 0, 65, 78
2, 49810, Control_c, 0, 64, 0
2, 49830, Note_on_c, 0, 74, 74
2, 49833, Note_on_c, 0, 76, 0
2, 49833, Control_c, 0, 64, 127
2, 49857, Control_c, 0, 64, 0
2, 49859, Note_on_c, 0, 65, 0
2, 49860, Note_on_c, 0, 74, 0
2, 49860, Note_on_c, 0, 72, 74
2, 49860, Note_on_c, 0, 67, 82
2, 49879, Control_c, 0, 64, 127
2, 49890, Note_on_c, 0, 74, 86
2, 49891, Note_on_c, 0, 72, 0
2, 49909, Note_on_c, 0, 67, 0
2, 49910, Control_c, 0, 64, 0
2, 49915, Note_on_c, 0, 74, 0
2, 49920, Note_on_c, 0, 72, 86
2, 49920, Note_on_c, 0, 64, 72
2, 49933, Control_c, 0, 64, 127
2, 49978, Note_on_c, 0, 64, 0
2, 49980, Note_on_c, 0, 67, 74
2, 49987, Note_on_c, 0, 72, 0
2, 50038, Note_on_c, 0, 67, 0
2, 50040, Note_on_c, 0, 64, 74
2, 50054, Control_c, 0, 64, 0
2, 50098, Note_on_c, 0, 64, 0
2, 50100, Note_on_c, 0, 73, 99
2, 50100, Note_on_c, 0, 67, 82
2, 50116, Control_c, 0, 64, 127
2, 50160, Note_on_c, 0, 73, 0
2, 50160, Note_on_c, 0, 65, 86
2, 50160, Note_on_c, 0, 74, 99
2, 50161, Note_on_c, 0, 67, 0
2, 50168, Control_c, 0, 64, 0
2, 50200, Control_c, 0, 64, 127
2, 50215, Note_on_c, 0, 74, 0
2, 50218, Note_on_c, 0, 65, 0
2, 50220, Note_on_c, 0, 76, 95
2, 50220, Note_on_c, 0, 67, 86
2, 50231, Control_c, 0, 64, 0
2, 50277, Note_on_c, 0, 76, 0
2, 50280, Note_on_c, 0, 77, 90
2, 50280, Note_on_c, 0, 65, 74
2, 50284, Note_on_c, 0, 67, 0
2, 50339, Note_on_c, 0, 65, 0
2, 50340, Note_on_c, 0, 77, 0
2, 50340, Note_on_c, 0, 74, 86
2, 50340, Note_on_c, 0, 67, 67
2, 50344, Control_c, 0, 64, 127
2, 50398, Note_on_c, 0, 67, 0
2, 50400, Note_on_c, 0, 64, 72
2, 50400, Note_on_c, 0, 72, 78
2, 50402, Note_on_c, 0, 74, 0
2, 50405, Control_c, 0, 64, 0
2, 50444, Control_c, 0, 64, 127
2, 50460, Note_on_c, 0, 72, 0
2, 50460, Note_on_c, 0, 67, 66
2, 50462, Note_on_c, 0, 64, 0
2, 50517, Note_on_c, 0, 67, 0
2, 50520, Note_on_c, 0, 64, 74
2, 50532, Control_c, 0, 64, 0
2, 50573, Control_c, 0, 64, 127
2, 50577, Note_on_c, 0, 64, 0
2, 50580, Note_on_c, 0, 73, 117
2, 50580, Note_on_c, 0, 67, 74
2, 50627, Note_on_c, 0, 73, 0
2, 50639, Note_on_c, 0, 67, 0
2, 50640, Note_on_c, 0, 65, 86
2, 50640, Note_on_c, 0, 74, 103
2, 50652, Control_c, 0, 64, 0
2, 50684, Control_c, 0, 64, 127
2, 50692, Note_on_c, 0, 74, 0
2, 50700, Note_on_c, 0, 65, 0
2, 50700, Note_on_c, 0, 76, 99
2, 50700, Note_on_c, 0, 67, 82
2, 50715, Control_c, 0, 64, 0
2, 50760, Note_on_c, 0, 76, 0
2, 50760, Note_on_c, 0, 77, 95
2, 50760, Note_on_c, 0, 65, 74
2, 50762, Note_on_c, 0, 67, 0
2, 50781, Control_c, 0, 64, 127
2, 50818, Note_on_c, 0, 65, 0
2, 50819, Note_on_c, 0, 77, 0
2, 50820, Note_on_c, 0, 67, 86
2, 50820, Note_on_c, 0, 74, 86
2, 50875, Note_on_c, 0, 74, 0
2, 50876, Control_c, 0, 64, 0
2, 50879, Note_on_c, 0, 67, 0
2, 50880, Note_on_c, 0, 64, 70
2, 50880, Note_on_c, 0, 72, 90
2, 50920, Control_c, 0, 64, 127
2, 50940, Note_on_c, 0, 67, 86
2, 50941, Note_on_c, 0, 64, 0
2, 50952, Note_on_c, 0, 72, 0
2, 50994, Note_on_c, 0, 67, 0
2, 51000, Note_on_c, 0, 65, 74
2, 51000, Note_on_c, 0, 74, 103
2, 51001, Control_c, 0, 64, 0
2, 51036, Control_c, 0, 64, 127
2, 51060, Note_on_c, 0, 67, 86
2, 51063, Note_on_c, 0, 65, 0
2, 51087, Note_on_c, 0, 74, 0
2, 51090, Note_on_c, 0, 71, 99
2, 51113, Note_on_c, 0, 71, 0
2, 51114, Note_on_c, 0, 67, 0
2, 51114, Control_c, 0, 64, 0
2, 51120, Note_on_c, 0, 72, 103
2, 51120, Note_on_c, 0, 64, 74
2, 51151, Control_c, 0, 64, 127
2, 51173, Note_on_c, 0, 64, 0
2, 51180, Note_on_c, 0, 67, 78
2, 51218, Note_on_c, 0, 72, 0
2, 51236, Note_on_c, 0, 67, 0
2, 51238, Control_c, 0, 64, 0
2, 51240, Note_on_c, 0, 65, 86
2, 51240, Note_on_c, 0, 79, 103
2, 51272, Control_c, 0, 64, 127
2, 51300, Note_on_c, 0, 67, 86
2, 51303, Note_on_c, 0, 65, 0
2, 51323, Note_on_c, 0, 79, 0
2, 51330, Note_on_c, 0, 71, 95
2, 51347, Note_on_c, 0, 67, 0
2, 51349, Note_on_c, 0, 71, 0
2, 51353, Control_c, 0, 64, 0
2, 51360, Note_on_c, 0, 72, 95
2, 51360, Note_on_c, 0, 64, 78
2, 51389, Control_c, 0, 64, 127
2, 51418, Note_on_c, 0, 64, 0
2, 51420, Note_on_c, 0, 67, 86
2, 51430, Note_on_c, 0, 72, 0
2, 51475, Note_on_c, 0, 67, 0
2, 51480, Note_on_c, 0, 65, 78
2, 51480, Note_on_c, 0, 74, 103
2, 51481, Control_c, 0, 64, 0
2, 51515, Control_c, 0, 64, 127
2, 51540, Note_on_c, 0, 67, 86
2, 51542, Note_on_c, 0, 65, 0
2, 51569, Note_on_c, 0, 74, 0
2, 51570, Note_on_c, 0, 71, 99
2, 51591, Note_on_c, 0, 71, 0
2, 51591, Note_on_c, 0, 67, 0
2, 51591, Control_c, 0, 64, 0
2, 51600, Note_on_c, 0, 72, 99
2, 51600, Note_on_c, 0, 64, 86
2, 51626, Control_c, 0, 64, 127
2, 51660, Note_on_c, 0, 64, 0
2, 51660, Note_on_c, 0, 67, 90
2, 51672, Note_on_c, 0, 72, 0
2, 51713, Note_on_c, 0, 67, 0
2, 51718, Control_c, 0, 64, 0
2, 51720, Note_on_c, 0, 65, 86
2, 51720, Note_on_c, 0, 79, 112
2, 51749, Control_c, 0, 64, 127
2, 51780, Note_on_c, 0, 67, 90
2, 51782, Note_on_c, 0, 65, 0
2, 51806, Note_on_c, 0, 79, 0
2, 51810, Note_on_c, 0, 71, 82
2, 51815, Note_on_c, 0, 67, 0
2, 51827, Note_on_c, 0, 71, 0
2, 51840, Note_on_c, 0, 67, 78
2, 51840, Note_on_c, 0, 72, 108
2, 51840, Note_on_c, 0, 64, 90
2, 51841, Control_c, 0, 64, 0
2, 51867, Control_c, 0, 64, 127
2, 51883, Note_on_c, 0, 72, 0
2, 51889, Note_on_c, 0, 64, 0
2, 51889, Note_on_c, 0, 67, 0
2, 51955, Control_c, 0, 64, 0
2, 51960, Note_on_c, 0, 84, 103
2, 51960, Note_on_c, 0, 76, 117
2, 51960, Note_on_c, 0, 67, 90
2, 51960, Note_on_c, 0, 64, 103
2, 51960, Note_on_c, 0, 72, 90
2, 51986, Control_c, 0, 64, 127
2, 52018, Note_on_c, 0, 64, 0
2, 52019, Note_on_c, 0, 67, 0
2, 52022, Note_on_c, 0, 72, 0
2, 52029, Note_on_c, 0, 76, 0
2, 52033, Note_on_c, 0, 84, 0
2, 52074, Control_c, 0, 64, 0
2, 52080, Note_on_c, 0, 84, 108
2, 52080, Note_on_c, 0, 76, 117
2, 52080, Note_on_c, 0, 67, 99
2, 52080, Note_on_c, 0, 64, 103
2, 52080, Note_on_c, 0, 72, 95
2, 52097, Control_c, 0, 64, 127
2, 52117, Note_on_c, 0, 72, 0
2, 52119, Note_on_c, 0, 67, 0
2, 52120, Note_on_c, 0, 64, 0
2, 52120, Note_on_c, 0, 76, 0
2, 52123, Note_on_c, 0, 84, 0
2, 52204, Control_c, 0, 64, 0
2, 52320, Control_c, 0, 7, 91
2, 52436, Control_c, 0, 64, 0
2, 52474, Control_c, 0, 64, 127
2, 52561, Control_c, 0, 64, 0
2, 52589, Control_c, 0, 64, 127
2, 52663, Control_c, 0, 64, 0
2, 52800, Note_on_c, 0, 79, 99
2, 52920, Note_on_c, 0, 64, 86
2, 52920, Note_on_c, 0, 72, 86
2, 52930, Control_c, 0, 64, 127
2, 52954, Note_on_c, 0, 64, 0
2, 52957, Note_on_c, 0, 72, 0
2, 52959, Note_on_c, 0, 79, 0
2, 53040, Note_on_c, 0, 80, 103
2, 53040, Note_on_c, 0, 72, 86
2, 53040, Note_on_c, 0, 64, 86
2, 53043, Control_c, 0, 64, 0
2, 53069, Control_c, 0, 64, 127
2, 53100, Note_on_c, 0, 64, 0
2, 53100, Note_on_c, 0, 72, 0
2, 53101, Note_on_c, 0, 80, 0
2, 53160, Note_on_c, 0, 80, 90
2, 53161, Control_c, 0, 64, 0
2, 53220, Note_on_c, 0, 80, 0
2, 53220, Note_on_c, 0, 81, 95
2, 53280, Note_on_c, 0, 65, 90
2, 53280, Note_on_c, 0, 72, 72
2, 53289, Control_c, 0, 64, 127
2, 53321, Note_on_c, 0, 72, 0
2, 53325, Note_on_c, 0, 81, 0
2, 53326, Note_on_c, 0, 65, 0
2, 53399, Control_c, 0, 64, 0
2, 53400, Note_on_c, 0, 64, 78
2, 53400, Note_on_c, 0, 79, 99
2, 53400, Note_on_c, 0, 72, 66
2, 53424, Control_c, 0, 64, 127
2, 53453, Note_on_c, 0, 79, 0
2, 53454, Note_on_c, 0, 72, 0
2, 53454, Note_on_c, 0, 64, 0
2, 53520, Note_on_c, 0, 79, 103
2, 53527, Control_c, 0, 64, 0
2, 53578, Note_on_c, 0, 79, 0
2, 53580, Note_on_c, 0, 77, 90
2, 53638, Control_c, 0, 64, 127
2, 53640, Note_on_c, 0, 71, 82
2, 53640, Note_on_c, 0, 62, 90
2, 53674, Note_on_c, 0, 77, 0
2, 53678, Note_on_c, 0, 62, 0
2, 53678, Note_on_c, 0, 71, 0
2, 53754, Control_c, 0, 64, 0
2, 53760, Note_on_c, 0, 76, 103
2, 53760, Note_on_c, 0, 72, 78
2, 53760, Note_on_c, 0, 64, 86
2, 53778, Control_c, 0, 64, 127
2, 53784, Note_on_c, 0, 72, 0
2, 53785, Note_on_c, 0, 64, 0
2, 53794, Note_on_c, 0, 76, 0
2, 53876, Control_c, 0, 64, 0
2, 53880, Note_on_c, 0, 72, 90
2, 53880, Note_on_c, 0, 76, 90
2, 53880, Note_on_c, 0, 67, 86
2, 53900, Control_c, 0, 64, 127
2, 53934, Note_on_c, 0, 67, 0
2, 53940, Note_on_c, 0, 55, 62
2, 53944, Note_on_c, 0, 76, 0
2, 53945, Note_on_c, 0, 72, 0
2, 53996, Note_on_c, 0, 55, 0
2, 54000, Note_on_c, 0, 71, 70
2, 54000, Note_on_c, 0, 74, 74
2, 54000, Note_on_c, 0, 67, 72
2, 54012, Control_c, 0, 64, 0
2, 54036, Control_c, 0, 64, 127
2, 54059, Note_on_c, 0, 67, 0
2, 54060, Note_on_c, 0, 65, 74
2, 54119, Note_on_c, 0, 65, 0
2, 54120, Note_on_c, 0, 71, 0
2, 54120, Note_on_c, 0, 64, 86
2, 54121, Note_on_c, 0, 74, 0
2, 54124, Control_c, 0, 64, 0
2, 54172, Control_c, 0, 64, 127
2, 54176, Note_on_c, 0, 64, 0
2, 54180, Note_on_c, 0, 62, 86
2, 54233, Control_c, 0, 64, 0
2, 54237, Note_on_c, 0, 62, 0
2, 54240, Note_on_c, 0, 72, 103
2, 54240, Note_on_c, 0, 60, 82
2, 54264, Control_c, 0, 64, 127
2, 54284, Note_on_c, 0, 60, 0
2, 54284, Note_on_c, 0, 72, 0
2, 54360, Note_on_c, 0, 72, 86
2, 54360, Note_on_c, 0, 76, 103
2, 54362, Control_c, 0, 64, 0
2, 54387, Control_c, 0, 64, 127
2, 54418, Note_on_c, 0, 76, 0
2, 54419, Note_on_c, 0, 72, 0
2, 54480, Note_on_c, 0, 76, 108
2, 54480, Note_on_c, 0, 72, 95
2, 54509, Note_on_c, 0, 76, 0
2, 54516, Note_on_c, 0, 72, 0
2, 54599, Control_c, 0, 64, 0
2, 54600, Note_on_c, 0, 74, 108
2, 54600, Note_on_c, 0, 71, 99
2, 54626, Control_c, 0, 64, 127
2, 54660, Note_on_c, 0, 76, 103
2, 54662, Note_on_c, 0, 74, 0
2, 54664, Control_c, 0, 64, 0
2, 54687, Control_c, 0, 64, 127
2, 54690, Note_on_c, 0, 78, 70
2, 54693, Note_on_c, 0, 76, 0
2, 54715, Note_on_c, 0, 78, 0
2, 54720, Note_on_c, 0, 79, 108
2, 54724, Control_c, 0, 64, 0
2, 54749, Note_on_c, 0, 79, 0
2, 54750, Note_on_c, 0, 81, 82
2, 54757, Control_c, 0, 64, 127
2, 54774, Note_on_c, 0, 81, 0
2, 54780, Note_on_c, 0, 83, 108
2, 54801, Note_on_c, 0, 83, 0
2, 54810, Note_on_c, 0, 84, 99
2, 54827, Note_on_c, 0, 71, 0
2, 54830, Note_on_c, 0, 84, 0
2, 54837, Control_c, 0, 64, 0
2, 54840, Note_on_c, 0, 86, 112
2, 54869, Control_c, 0, 64, 127
2, 54883, Note_on_c, 0, 86, 0
2, 54900, Note_on_c, 0, 86, 103
2, 54924, Note_on_c, 0, 86, 0
2, 54960, Note_on_c, 0, 84, 103
2, 54960, Note_on_c, 0, 69, 90
2, 54961, Control_c, 0, 64, 0
2, 54982, Note_on_c, 0, 84, 0
2, 54990, Note_on_c, 0, 86, 90
2, 54994, Control_c, 0, 64, 127
2, 55012, Note_on_c, 0, 86, 0
2, 55012, Control_c, 0, 64, 0
2, 55020, Note_on_c, 0, 88, 99
2, 55042, Note_on_c, 0, 88, 0
2, 55050, Note_on_c, 0, 86, 103
2, 55072, Note_on_c, 0, 86, 0
2, 55080, Note_on_c, 0, 84, 103
2, 55103, Note_on_c, 0, 84, 0
2, 55110, Note_on_c, 0, 83, 108
2, 55111, Control_c, 0, 64, 127
2, 55140, Note_on_c, 0, 81, 90
2, 55144, Note_on_c, 0, 83, 0
2, 55157, Note_on_c, 0, 81, 0
2, 55170, Note_on_c, 0, 79, 103
2, 55184, Note_on_c, 0, 79, 0
2, 55195, Note_on_c, 0, 69, 0
2, 55200, Note_on_c, 0, 81, 103
2, 55207, Control_c, 0, 64, 0
2, 55230, Note_on_c, 0, 79, 103
2, 55237, Note_on_c, 0, 81, 0
2, 55252, Control_c, 0, 64, 127
2, 55254, Note_on_c, 0, 79, 0
2, 55260, Note_on_c, 0, 78, 69
2, 55285, Note_on_c, 0, 78, 0
2, 55290, Note_on_c, 0, 76, 103
2, 55307, Note_on_c, 0, 76, 0
2, 55320, Control_c, 0, 64, 0
2, 55320, Note_on_c, 0, 66, 82
2, 55320, Note_on_c, 0, 78, 99
2, 55320, Note_on_c, 0, 86, 103
2, 55346, Note_on_c, 0, 66, 0
2, 55350, Note_on_c, 0, 62, 90
2, 55379, Note_on_c, 0, 62, 0
2, 55380, Note_on_c, 0, 64, 86
2, 55410, Note_on_c, 0, 66, 69
2, 55414, Note_on_c, 0, 64, 0
2, 55440, Note_on_c, 0, 67, 95
2, 55446, Note_on_c, 0, 66, 0
2, 55469, Note_on_c, 0, 67, 0
2, 55470, Note_on_c, 0, 69, 86
2, 55500, Note_on_c, 0, 71, 82
2, 55503, Note_on_c, 0, 69, 0
2, 55530, Note_on_c, 0, 72, 82
2, 55534, Note_on_c, 0, 71, 0
2, 55560, Note_on_c, 0, 74, 82
2, 55561, Note_on_c, 0, 72, 0
2, 55590, Note_on_c, 0, 72, 74
2, 55595, Note_on_c, 0, 74, 0
2, 55618, Note_on_c, 0, 72, 0
2, 55620, Control_c, 0, 64, 127
2, 55620, Note_on_c, 0, 71, 69
2, 55643, Note_on_c, 0, 71, 0
2, 55650, Note_on_c, 0, 69, 74
2, 55663, Note_on_c, 0, 78, 0
2, 55674, Note_on_c, 0, 69, 0
2, 55675, Note_on_c, 0, 86, 0
2, 55680, Note_on_c, 0, 83, 95
2, 55680, Note_on_c, 0, 67, 95
2, 55681, Control_c, 0, 64, 0
2, 55710, Note_on_c, 0, 83, 0
2, 55710, Note_on_c, 0, 79, 86
2, 55740, Note_on_c, 0, 79, 0
2, 55740, Note_on_c, 0, 81, 86
2, 55756, Control_c, 0, 64, 127
2, 55765, Note_on_c, 0, 81, 0
2, 55770, Note_on_c, 0, 83, 95
2, 55794, Note_on_c, 0, 83, 0
2, 55798, Note_on_c, 0, 67, 0
2, 55800, Note_on_c, 0, 69, 90
2, 55800, Note_on_c, 0, 84, 82
2, 55803, Control_c, 0, 64, 0
2, 55830, Note_on_c, 0, 81, 99
2, 55833, Note_on_c, 0, 84, 0
2, 55839, Control_c, 0, 64, 127
2, 55853, Note_on_c, 0, 81, 0
2, 55860, Note_on_c, 0, 83, 95
2, 55881, Note_on_c, 0, 83, 0
2, 55890, Note_on_c, 0, 84, 99
2, 55909, Note_on_c, 0, 84, 0
2, 55916, Note_on_c, 0, 69, 0
2, 55920, Note_on_c, 0, 71, 86
2, 55920, Note_on_c, 0, 86, 112
2, 55928, Control_c, 0, 64, 0
2, 55944, Note_on_c, 0, 86, 0
2, 55950, Note_on_c, 0, 83, 103
2, 55962, Control_c, 0, 64, 127
2, 55969, Note_on_c, 0, 83, 0
2, 55980, Note_on_c, 0, 84, 95
2, 55998, Note_on_c, 0, 84, 0
2, 56010, Note_on_c, 0, 86, 99
2, 56027, Note_on_c, 0, 86, 0
2, 56037, Note_on_c, 0, 71, 0
2, 56040, Note_on_c, 0, 88, 99
2, 56040, Note_on_c, 0, 72, 86
2, 56049, Control_c, 0, 64, 0
2, 56070, Note_on_c, 0, 84, 95
2, 56071, Note_on_c, 0, 88, 0
2, 56086, Control_c, 0, 64, 127
2, 56100, Note_on_c, 0, 83, 90
2, 56105, Note_on_c, 0, 84, 0
2, 56118, Note_on_c, 0, 83, 0
2, 56123, Note_on_c, 0, 72, 0
2, 56130, Note_on_c, 0, 81, 117
2, 56141, Note_on_c, 0, 81, 0
2, 56160, Note_on_c, 0, 79, 117
2, 56160, Note_on_c, 0, 74, 95
2, 56171, Control_c, 0, 64, 0
2, 56198, Control_c, 0, 64, 127
2, 56216, Note_on_c, 0, 79, 0
2, 56227, Note_on_c, 0, 74, 0
2, 56280, Note_on_c, 0, 83, 108
2, 56280, Note_on_c, 0, 74, 86
2, 56280, Note_on_c, 0, 72, 74
2, 56284, Control_c, 0, 64, 0
2, 56303, Note_on_c, 0, 83, 0
2, 56310, Note_on_c, 0, 81, 86
2, 56312, Control_c, 0, 64, 127
2, 56340, Note_on_c, 0, 81, 0
2, 56340, Note_on_c, 0, 79, 99
2, 56363, Note_on_c, 0, 79, 0
2, 56368, Note_on_c, 0, 74, 0
2, 56370, Note_on_c, 0, 81, 99
2, 56372, Note_on_c, 0, 72, 0
2, 56386, Note_on_c, 0, 81, 0
2, 56400, Note_on_c, 0, 81, 99
2, 56400, Note_on_c, 0, 71, 69
2, 56400, Note_on_c, 0, 74, 72
2, 56409, Control_c, 0, 64, 0
2, 56460, Note_on_c, 0, 79, 99
2, 56466, Note_on_c, 0, 81, 0
2, 56529, Control_c, 0, 64, 127
2, 56776, Note_on_c, 0, 79, 0
2, 56778, Note_on_c, 0, 74, 0
2, 56779, Note_on_c, 0, 71, 0
2, 56785, Control_c, 0, 64, 0
2, 57479, Control_c, 0, 64, 127
2, 57480, Note_on_c, 0, 67, 90
2, 57480, Note_on_c, 0, 72, 99
2, 57533, Note_on_c, 0, 72, 0
2, 57540, Note_on_c, 0, 76, 95
2, 57563, Note_on_c, 0, 76, 0
2, 57570, Note_on_c, 0, 79, 99
2, 57591, Note_on_c, 0, 79, 0
2, 57591, Control_c, 0, 64, 0
2, 57600, Note_on_c, 0, 84, 103
2, 57614, Control_c, 0, 64, 127
2, 57642, Note_on_c, 0, 84, 0
2, 57660, Note_on_c, 0, 84, 86
2, 57682, Note_on_c, 0, 84, 0
2, 57698, Note_on_c, 0, 67, 0
2, 57714, Control_c, 0, 64, 0
2, 57720, Note_on_c, 0, 64, 90
2, 57720, Note_on_c, 0, 84, 99
2, 57736, Control_c, 0, 64, 127
2, 57766, Note_on_c, 0, 84, 0
2, 57780, Note_on_c, 0, 82, 95
2, 57780, Note_on_c, 0, 79, 99
2, 57795, Note_on_c, 0, 79, 0
2, 57800, Note_on_c, 0, 82, 0
2, 57805, Note_on_c, 0, 64, 0
2, 57840, Note_on_c, 0, 65, 72
2, 57840, Note_on_c, 0, 81, 99
2, 57840, Note_on_c, 0, 77, 86
2, 57847, Control_c, 0, 64, 0
2, 57874, Control_c, 0, 64, 127
2, 57893, Note_on_c, 0, 77, 0
2, 57897, Note_on_c, 0, 81, 0
2, 57900, Note_on_c, 0, 79, 99
2, 57900, Note_on_c, 0, 76, 95
2, 57915, Note_on_c, 0, 76, 0
2, 57916, Note_on_c, 0, 79, 0
2, 57958, Control_c, 0, 64, 0
2, 57960, Note_on_c, 0, 74, 82
2, 57960, Note_on_c, 0, 77, 90
2, 57982, Control_c, 0, 64, 127
2, 58011, Note_on_c, 0, 77, 0
2, 58012, Note_on_c, 0, 74, 0
2, 58020, Note_on_c, 0, 76, 86
2, 58020, Note_on_c, 0, 72, 90
2, 58037, Note_on_c, 0, 65, 0
2, 58041, Note_on_c, 0, 72, 0
2, 58046, Note_on_c, 0, 76, 0
2, 58080, Note_on_c, 0, 66, 86
2, 58080, Control_c, 0, 64, 0
2, 58080, Note_on_c, 0, 71, 86
2, 58080, Note_on_c, 0, 74, 99
2, 58105, Control_c, 0, 64, 127
2, 58112, Note_on_c, 0, 71, 0
2, 58128, Note_on_c, 0, 74, 0
2, 58140, Note_on_c, 0, 76, 103
2, 58140, Note_on_c, 0, 72, 86
2, 58159, Note_on_c, 0, 76, 0
2, 58162, Note_on_c, 0, 72, 0
2, 58164, Note_on_c, 0, 66, 0
2, 58200, Note_on_c, 0, 72, 90
2, 58200, Note_on_c, 0, 76, 86
2, 58200, Note_on_c, 0, 67, 86
2, 58211, Control_c, 0, 64, 0
2, 58239, Control_c, 0, 64, 127
2, 58282, Note_on_c, 0, 67, 0
2, 58285, Note_on_c, 0, 72, 0
2, 58286, Note_on_c, 0, 76, 0
2, 58320, Note_on_c, 0, 71, 86
2, 58320, Note_on_c, 0, 74, 86
2, 58320, Note_on_c, 0, 67, 78
2, 58329, Control_c, 0, 64, 0
2, 58351, Control_c, 0, 64, 127
2, 58387, Note_on_c, 0, 71, 0
2, 58390, Note_on_c, 0, 74, 0
2, 58391, Note_on_c, 0, 67, 0
2, 58446, Control_c, 0, 64, 0
2, 58560, Note_on_c, 0, 67, 74
2, 58560, Note_on_c, 0, 79, 103
2, 58575, Control_c, 0, 64, 127
2, 58616, Note_on_c, 0, 67, 0
2, 58620, Note_on_c, 0, 72, 82
2, 58629, Note_on_c, 0, 79, 0
2, 58667, Note_on_c, 0, 72, 0
2, 58680, Note_on_c, 0, 84, 112
2, 58680, Note_on_c, 0, 67, 82
2, 58694, Control_c, 0, 64, 0
2, 58716, Control_c, 0, 64, 127
2, 58736, Note_on_c, 0, 67, 0
2, 58740, Note_on_c, 0, 72, 72
2, 58759, Note_on_c, 0, 84, 0
2, 58786, Note_on_c, 0, 72, 0
2, 58800, Note_on_c, 0, 84, 108
2, 58800, Note_on_c, 0, 67, 86
2, 58815, Control_c, 0, 64, 0
2, 58835, Control_c, 0, 64, 127
2, 58854, Note_on_c, 0, 67, 0
2, 58860, Note_on_c, 0, 72, 66
2, 58876, Note_on_c, 0, 84, 0
2, 58896, Note_on_c, 0, 72, 0
2, 58920, Note_on_c, 0, 84, 108
2, 58920, Note_on_c, 0, 67, 78
2, 58926, Control_c, 0, 64, 0
2, 58946, Control_c, 0, 64, 127
2, 58971, Note_on_c, 0, 67, 0
2, 58974, Note_on_c, 0, 84, 0
2, 58980, Note_on_c, 0, 83, 99
2, 58980, Note_on_c, 0, 71, 90
2, 59003, Note_on_c, 0, 71, 0
2, 59008, Note_on_c, 0, 83, 0
2, 59040, Note_on_c, 0, 81, 112
2, 59040, Note_on_c, 0, 67, 78
2, 59044, Control_c, 0, 64, 0
2, 59066, Control_c, 0, 64, 127
2, 59092, Note_on_c, 0, 67, 0
2, 59093, Note_on_c, 0, 81, 0
2, 59100, Note_on_c, 0, 79, 99
2, 59100, Note_on_c, 0, 71, 90
2, 59119, Note_on_c, 0, 71, 0
2, 59121, Note_on_c, 0, 79, 0
2, 59160, Note_on_c, 0, 79, 112
2, 59160, Note_on_c, 0, 67, 86
2, 59164, Control_c, 0, 64, 0
2, 59188, Control_c, 0, 64, 127
2, 59209, Note_on_c, 0, 67, 0
2, 59220, Note_on_c, 0, 71, 90
2, 59235, Note_on_c, 0, 79, 0
2, 59244, Note_on_c, 0, 71, 0
2, 59280, Note_on_c, 0, 67, 86
2, 59280, Note_on_c, 0, 79, 117
2, 59287, Control_c, 0, 64, 0
2, 59312, Control_c, 0, 64, 127
2, 59332, Note_on_c, 0, 79, 0
2, 59335, Note_on_c, 0, 67, 0
2, 59340, Note_on_c, 0, 72, 86
2, 59377, Note_on_c, 0, 72, 0
2, 59400, Note_on_c, 0, 84, 112
2, 59400, Note_on_c, 0, 67, 86
2, 59405, Control_c, 0, 64, 0
2, 59425, Control_c, 0, 64, 127
2, 59455, Note_on_c, 0, 67, 0
2, 59457, Note_on_c, 0, 84, 0
2, 59460, Note_on_c, 0, 72, 82
2, 59460, Note_on_c, 0, 88, 108
2, 59485, Note_on_c, 0, 88, 0
2, 59493, Note_on_c, 0, 72, 0
2, 59519, Control_c, 0, 64, 0
2, 59520, Note_on_c, 0, 67, 86
2, 59520, Note_on_c, 0, 86, 117
2, 59539, Control_c, 0, 64, 127
2, 59575, Note_on_c, 0, 86, 0
2, 59577, Note_on_c, 0, 67, 0
2, 59580, Note_on_c, 0, 84, 99
2, 59580, Note_on_c, 0, 72, 72
2, 59598, Note_on_c, 0, 84, 0
2, 59602, Note_on_c, 0, 72, 0
2, 59640, Note_on_c, 0, 67, 74
2, 59640, Note_on_c, 0, 84, 112
2, 59646, Control_c, 0, 64, 0
2, 59669, Control_c, 0, 64, 127
2, 59693, Note_on_c, 0, 84, 0
2, 59695, Note_on_c, 0, 67, 0
2, 59700, Note_on_c, 0, 83, 95
2, 59700, Note_on_c, 0, 71, 86
2, 59727, Note_on_c, 0, 71, 0
2, 59731, Note_on_c, 0, 83, 0
2, 59760, Note_on_c, 0, 67, 74
2, 59760, Note_on_c, 0, 81, 108
2, 59766, Control_c, 0, 64, 0
2, 59788, Control_c, 0, 64, 127
2, 59809, Note_on_c, 0, 81, 0
2, 59812, Note_on_c, 0, 67, 0
2, 59820, Note_on_c, 0, 79, 99
2, 59820, Note_on_c, 0, 71, 86
2, 59842, Note_on_c, 0, 71, 0
2, 59842, Note_on_c, 0, 79, 0
2, 59880, Note_on_c, 0, 67, 90
2, 59880, Note_on_c, 0, 79, 103
2, 59883, Control_c, 0, 64, 0
2, 59905, Control_c, 0, 64, 127
2, 59938, Note_on_c, 0, 67, 0
2, 59940, Note_on_c, 0, 71, 90
2, 59953, Note_on_c, 0, 79, 0
2, 59972, Note_on_c, 0, 71, 0
2, 60000, Note_on_c, 0, 79, 123
2, 60005, Control_c, 0, 64, 0
2, 60028, Control_c, 0, 64, 127
2, 60057, Note_on_c, 0, 79, 0
2, 60118, Control_c, 0, 64, 0
2, 60120, Note_on_c, 0, 64, 90
2, 60120, Note_on_c, 0, 84, 117
2, 60120, Note_on_c, 0, 72, 82
2, 60139, Control_c, 0, 64, 127
2, 60175, Note_on_c, 0, 64, 0
2, 60181, Note_on_c, 0, 72, 0
2, 60187, Note_on_c, 0, 84, 0
2, 60240, Note_on_c, 0, 83, 108
2, 60240, Note_on_c, 0, 64, 99
2, 60240, Note_on_c, 0, 72, 82
2, 60246, Control_c, 0, 64, 0
2, 60267, Control_c, 0, 64, 127
2, 60317, Note_on_c, 0, 64, 0
2, 60318, Note_on_c, 0, 83, 0
2, 60323, Note_on_c, 0, 72, 0
2, 60360, Control_c, 0, 64, 0
2, 60360, Note_on_c, 0, 83, 108
2, 60388, Control_c, 0, 64, 127
2, 60410, Note_on_c, 0, 83, 0
2, 60420, Note_on_c, 0, 81, 99
2, 60465, Control_c, 0, 64, 0
2, 60480, Note_on_c, 0, 65, 103
2, 60480, Note_on_c, 0, 72, 86
2, 60492, Control_c, 0, 64, 127
2, 60528, Note_on_c, 0, 72, 0
2, 60531, Note_on_c, 0, 65, 0
2, 60535, Note_on_c, 0, 81, 0
2, 60595, Control_c, 0, 64, 0
2, 60600, Note_on_c, 0, 79, 103
2, 60600, Note_on_c, 0, 64, 99
2, 60600, Note_on_c, 0, 72, 90
2, 60617, Control_c, 0, 64, 127
2, 60643, Note_on_c, 0, 79, 0
2, 60661, Note_on_c, 0, 64, 0
2, 60665, Note_on_c, 0, 72, 0
2, 60708, Control_c, 0, 64, 0
2, 60720, Note_on_c, 0, 79, 103
2, 60735, Control_c, 0, 64, 127
2, 60772, Note_on_c, 0, 79, 0
2, 60780, Note_on_c, 0, 77, 90
2, 60822, Control_c, 0, 64, 0
2, 60840, Note_on_c, 0, 62, 99
2, 60840, Note_on_c, 0, 71, 95
2, 60845, Control_c, 0, 64, 127
2, 60873, Note_on_c, 0, 77, 0
2, 60878, Note_on_c, 0, 62, 0
2, 60882, Note_on_c, 0, 71, 0
2, 60957, Control_c, 0, 64, 0
2, 60960, Note_on_c, 0, 60, 78
2, 60960, Note_on_c, 0, 76, 108
2, 60960, Note_on_c, 0, 72, 82
2, 60979, Control_c, 0, 64, 127
2, 61018, Note_on_c, 0, 72, 0
2, 61025, Note_on_c, 0, 60, 0
2, 61034, Note_on_c, 0, 76, 0
2, 61076, Control_c, 0, 64, 0
2, 61080, Note_on_c, 0, 65, 82
2, 61080, Note_on_c, 0, 76, 86
2, 61100, Control_c, 0, 64, 127
2, 61110, Note_on_c, 0, 74, 99
2, 61113, Note_on_c, 0, 76, 0
2, 61133, Note_on_c, 0, 74, 0
2, 61140, Note_on_c, 0, 77, 86
2, 61168, Note_on_c, 0, 77, 0
2, 61170, Note_on_c, 0, 74, 90
2, 61188, Note_on_c, 0, 74, 0
2, 61188, Note_on_c, 0, 65, 0
2, 61197, Control_c, 0, 64, 0
2, 61200, Note_on_c, 0, 72, 99
2, 61200, Note_on_c, 0, 67, 103
2, 61218, Control_c, 0, 64, 127
2, 61249, Note_on_c, 0, 67, 0
2, 61258, Note_on_c, 0, 72, 0
2, 61312, Control_c, 0, 64, 0
2, 61320, Note_on_c, 0, 71, 103
2, 61320, Note_on_c, 0, 65, 78
2, 61320, Note_on_c, 0, 67, 70
2, 61335, Control_c, 0, 64, 127
2, 61371, Note_on_c, 0, 67, 0
2, 61371, Note_on_c, 0, 65, 0
2, 61374, Note_on_c, 0, 71, 0
2, 61440, Note_on_c, 0, 71, 103
2, 61440, Note_on_c, 0, 64, 78
2, 61440, Note_on_c, 0, 67, 86
2, 61443, Control_c, 0, 64, 0
2, 61465, Control_c, 0, 64, 127
2, 61500, Note_on_c, 0, 72, 95
2, 61503, Note_on_c, 0, 71, 0
2, 61513, Control_c, 0, 64, 0
2, 61545, Control_c, 0, 64, 127
2, 61745, Note_on_c, 0, 64, 0
2, 61746, Note_on_c, 0, 72, 0
2, 61748, Note_on_c, 0, 67, 0
2, 61764, Control_c, 0, 64, 0
2, 61800, Note_on_c, 0, 79, 86
2, 61882, Control_c, 0, 64, 127
2, 61920, Note_on_c, 0, 72, 58
2, 61920, Note_on_c, 0, 64, 74
2, 61941, Note_on_c, 0, 79, 0
2, 61954, Note_on_c, 0, 64, 0
2, 61963, Note_on_c, 0, 72, 0
2, 62040, Note_on_c, 0, 72, 58
2, 62040, Note_on_c, 0, 80, 74
2, 62040, Note_on_c, 0, 64, 82
2, 62045, Control_c, 0, 64, 0
2, 62067, Control_c, 0, 64, 127
2, 62096, Note_on_c, 0, 80, 0
2, 62109, Note_on_c, 0, 64, 0
2, 62112, Note_on_c, 0, 72, 0
2, 62160, Note_on_c, 0, 80, 70
2, 62164, Control_c, 0, 64, 0
2, 62201, Control_c, 0, 64, 127
2, 62220, Note_on_c, 0, 81, 86
2, 62221, Note_on_c, 0, 80, 0
2, 62254, Control_c, 0, 64, 0
2, 62280, Note_on_c, 0, 65, 78
2, 62280, Note_on_c, 0, 72, 60
2, 62287, Control_c, 0, 64, 127
2, 62323, Note_on_c, 0, 81, 0
2, 62328, Note_on_c, 0, 72, 0
2, 62328, Note_on_c, 0, 65, 0
2, 62400, Note_on_c, 0, 79, 86
2, 62400, Note_on_c, 0, 72, 54
2, 62400, Control_c, 0, 64, 0
2, 62400, Note_on_c, 0, 64, 67
2, 62423, Control_c, 0, 64, 127
2, 62458, Note_on_c, 0, 79, 0
2, 62466, Note_on_c, 0, 64, 0
2, 62469, Note_on_c, 0, 72, 0
2, 62517, Control_c, 0, 64, 0
2, 62520, Note_on_c, 0, 79, 72
2, 62548, Control_c, 0, 64, 127
2, 62571, Note_on_c, 0, 79, 0
2, 62580, Note_on_c, 0, 77, 72
2, 62626, Control_c, 0, 64, 0
2, 62640, Note_on_c, 0, 62, 74
2, 62640, Note_on_c, 0, 71, 63
2, 62651, Control_c, 0, 64, 127
2, 62681, Note_on_c, 0, 62, 0
2, 62683, Note_on_c, 0, 71, 0
2, 62683, Note_on_c, 0, 77, 0
2, 62760, Note_on_c, 0, 76, 82
2, 62760, Note_on_c, 0, 64, 66
2, 62760, Note_on_c, 0, 72, 66
2, 62761, Control_c, 0, 64, 0
2, 62782, Control_c, 0, 64, 127
2, 62783, Note_on_c, 0, 64, 0
2, 62793, Note_on_c, 0, 72, 0
2, 62798, Note_on_c, 0, 76, 0
2, 62875, Control_c, 0, 64, 0
2, 62880, Note_on_c, 0, 72, 74
2, 62880, Note_on_c, 0, 76, 70
2, 62880, Note_on_c, 0, 67, 72
2, 62896, Control_c, 0, 64, 127
2, 62936, Note_on_c, 0, 67, 0
2, 62940, Note_on_c, 0, 55, 90
2, 62947, Note_on_c, 0, 72, 0
2, 62950, Note_on_c, 0, 76, 0
2, 62996, Note_on_c, 0, 55, 0
2, 63000, Note_on_c, 0, 71, 72
2, 63000, Note_on_c, 0, 67, 72
2, 63000, Note_on_c, 0, 74, 74
2, 63005, Control_c, 0, 64, 0
2, 63029, Control_c, 0, 64, 127
2, 63060, Note_on_c, 0, 65, 74
2, 63062, Note_on_c, 0, 67, 0
2, 63081, Control_c, 0, 64, 0
2, 63118, Note_on_c, 0, 65, 0
2, 63120, Note_on_c, 0, 64, 86
2, 63128, Control_c, 0, 64, 127
2, 63155, Control_c, 0, 64, 0
2, 63161, Note_on_c, 0, 74, 0
2, 63165, Note_on_c, 0, 71, 0
2, 63173, Note_on_c, 0, 64, 0
2, 63180, Note_on_c, 0, 62, 95
2, 63189, Control_c, 0, 64, 127
2, 63239, Control_c, 0, 64, 0
2, 63240, Note_on_c, 0, 72, 95
2, 63240, Note_on_c, 0, 60, 82
2, 63243, Note_on_c, 0, 62, 0
2, 63267, Control_c, 0, 64, 127
2, 63298, Note_on_c, 0, 72, 0
2, 63314, Note_on_c, 0, 60, 0
2, 63360, Note_on_c, 0, 72, 69
2, 63360, Note_on_c, 0, 76, 86
2, 63367, Control_c, 0, 64, 0
2, 63389, Control_c, 0, 64, 127
2, 63422, Note_on_c, 0, 72, 0
2, 63423, Note_on_c, 0, 76, 0
2, 63480, Note_on_c, 0, 72, 72
2, 63480, Note_on_c, 0, 76, 90
2, 63509, Note_on_c, 0, 76, 0
2, 63521, Note_on_c, 0, 72, 0
2, 63600, Note_on_c, 0, 74, 90
2, 63600, Note_on_c, 0, 71, 72
2, 63608, Control_c, 0, 64, 0
2, 63632, Control_c, 0, 64, 127
2, 63660, Note_on_c, 0, 74, 0
2, 63660, Note_on_c, 0, 76, 86
2, 63666, Control_c, 0, 64, 0
2, 63688, Note_on_c, 0, 76, 0
2, 63690, Note_on_c, 0, 78, 69
2, 63714, Note_on_c, 0, 78, 0
2, 63720, Note_on_c, 0, 79, 86
2, 63750, Note_on_c, 0, 81, 78
2, 63751, Note_on_c, 0, 79, 0
2, 63778, Note_on_c, 0, 81, 0
2, 63780, Note_on_c, 0, 83, 74
2, 63807, Note_on_c, 0, 83, 0
2, 63810, Note_on_c, 0, 84, 78
2, 63837, Note_on_c, 0, 84, 0
2, 63840, Note_on_c, 0, 86, 90
2, 63858, Note_on_c, 0, 71, 0
2, 63868, Note_on_c, 0, 86, 0
2, 63899, Control_c, 0, 64, 127
2, 63900, Note_on_c, 0, 86, 95
2, 63945, Note_on_c, 0, 86, 0
2, 63960, Note_on_c, 0, 84, 86
2, 63960, Note_on_c, 0, 69, 86
2, 63967, Control_c, 0, 64, 0
2, 63990, Note_on_c, 0, 84, 0
2, 63990, Note_on_c, 0, 86, 95
2, 64014, Note_on_c, 0, 86, 0
2, 64016, Control_c, 0, 64, 127
2, 64020, Note_on_c, 0, 88, 86
2, 64050, Note_on_c, 0, 86, 99
2, 64053, Note_on_c, 0, 88, 0
2, 64080, Note_on_c, 0, 84, 86
2, 64082, Control_c, 0, 64, 0
2, 64084, Note_on_c, 0, 86, 0
2, 64108, Control_c, 0, 64, 127
2, 64110, Note_on_c, 0, 83, 86
2, 64115, Note_on_c, 0, 84, 0
2, 64140, Note_on_c, 0, 81, 72
2, 64142, Note_on_c, 0, 83, 0
2, 64170, Note_on_c, 0, 79, 90
2, 64175, Note_on_c, 0, 81, 0
2, 64184, Note_on_c, 0, 79, 0
2, 64197, Note_on_c, 0, 69, 0
2, 64200, Note_on_c, 0, 81, 90
2, 64200, Control_c, 0, 64, 0
2, 64230, Note_on_c, 0, 79, 86
2, 64234, Control_c, 0, 64, 127
2, 64239, Note_on_c, 0, 81, 0
2, 64260, Note_on_c, 0, 78, 61
2, 64266, Note_on_c, 0, 79, 0
2, 64290, Note_on_c, 0, 76, 74
2, 64293, Note_on_c, 0, 78, 0
2, 64308, Note_on_c, 0, 76, 0
2, 64320, Note_on_c, 0, 66, 74
2, 64320, Note_on_c, 0, 78, 69
2, 64320, Note_on_c, 0, 86, 86
2, 64323, Control_c, 0, 64, 127
2, 64350, Note_on_c, 0, 62, 72
2, 64351, Control_c, 0, 64, 0
2, 64368, Note_on_c, 0, 66, 0
2, 64377, Note_on_c, 0, 62, 0
2, 64380, Note_on_c, 0, 64, 72
2, 64410, Note_on_c, 0, 66, 69
2, 64411, Note_on_c, 0, 64, 0
2, 64440, Note_on_c, 0, 67, 74
2, 64445, Note_on_c, 0, 66, 0
2, 64470, Note_on_c, 0, 67, 0
2, 64470, Note_on_c, 0, 69, 70
2, 64500, Note_on_c, 0, 71, 78
2, 64505, Note_on_c, 0, 69, 0
2, 64530, Note_on_c, 0, 71, 0
2, 64530, Note_on_c, 0, 72, 86
2, 64560, Note_on_c, 0, 74, 78
2, 64562, Note_on_c, 0, 72, 0
2, 64590, Note_on_c, 0, 72, 72
2, 64593, Note_on_c, 0, 74, 0
2, 64618, Note_on_c, 0, 72, 0
2, 64620, Note_on_c, 0, 71, 69
2, 64644, Note_on_c, 0, 71, 0
2, 64650, Note_on_c, 0, 69, 69
2, 64661, Note_on_c, 0, 78, 0
2, 64675, Note_on_c, 0, 69, 0
2, 64679, Note_on_c, 0, 86, 0
2, 64680, Note_on_c, 0, 83, 74
2, 64680, Note_on_c, 0, 67, 74
2, 64710, Note_on_c, 0, 79, 57
2, 64713, Note_on_c, 0, 83, 0
2, 64740, Note_on_c, 0, 81, 86
2, 64742, Note_on_c, 0, 79, 0
2, 64770, Note_on_c, 0, 83, 90
2, 64773, Note_on_c, 0, 81, 0
2, 64793, Note_on_c, 0, 67, 0
2, 64795, Note_on_c, 0, 83, 0
2, 64800, Note_on_c, 0, 69, 86
2, 64800, Note_on_c, 0, 84, 82
2, 64830, Note_on_c, 0, 81, 82
2, 64834, Note_on_c, 0, 84, 0
2, 64860, Note_on_c, 0, 83, 82
2, 64868, Note_on_c, 0, 81, 0
2, 64890, Note_on_c, 0, 83, 0
2, 64890, Note_on_c, 0, 84, 86
2, 64916, Note_on_c, 0, 84, 0
2, 64920, Note_on_c, 0, 69, 0
2, 64920, Note_on_c, 0, 86, 86
2, 64920, Note_on_c, 0, 71, 90
2, 64950, Note_on_c, 0, 83, 72
2, 64953, Note_on_c, 0, 86, 0
2, 64979, Note_on_c, 0, 83, 0
2, 64980, Note_on_c, 0, 84, 90
2, 64987, Control_c, 0, 64, 127
2, 65003, Note_on_c, 0, 84, 0
2, 65010, Note_on_c, 0, 86, 90
2, 65028, Note_on_c, 0, 86, 0
2, 65032, Note_on_c, 0, 71, 0
2, 65040, Note_on_c, 0, 72, 82
2, 65040, Note_on_c, 0, 88, 103
2, 65044, Control_c, 0, 64, 0
2, 65068, Note_on_c, 0, 88, 0
2, 65070, Note_on_c, 0, 84, 74
2, 65093, Control_c, 0, 64, 127
2, 65100, Note_on_c, 0, 84, 0
2, 65100, Note_on_c, 0, 83, 74
2, 65130, Note_on_c, 0, 81, 67
2, 65132, Note_on_c, 0, 83, 0
2, 65152, Note_on_c, 0, 81, 0
2, 65152, Note_on_c, 0, 72, 0
2, 65158, Control_c, 0, 64, 0
2, 65160, Note_on_c, 0, 79, 90
2, 65160, Note_on_c, 0, 74, 78
2, 65184, Control_c, 0, 64, 127
2, 65223, Note_on_c, 0, 74, 0
2, 65224, Note_on_c, 0, 79, 0
2, 65279, Control_c, 0, 64, 0
2, 65280, Note_on_c, 0, 74, 69
2, 65280, Note_on_c, 0, 72, 67
2, 65280, Note_on_c, 0, 83, 99
2, 65310, Note_on_c, 0, 81, 74
2, 65312, Note_on_c, 0, 83, 0
2, 65312, Control_c, 0, 64, 127
2, 65340, Note_on_c, 0, 79, 74
2, 65341, Note_on_c, 0, 81, 0
2, 65362, Note_on_c, 0, 79, 0
2, 65362, Note_on_c, 0, 74, 0
2, 65367, Note_on_c, 0, 72, 0
2, 65370, Note_on_c, 0, 81, 86
2, 65388, Note_on_c, 0, 81, 0
2, 65400, Note_on_c, 0, 81, 86
2, 65400, Note_on_c, 0, 74, 72
2, 65400, Note_on_c, 0, 71, 70
2, 65403, Control_c, 0, 64, 0
2, 65430, Control_c, 0, 64, 127
2, 65516, Note_on_c, 0, 81, 0
2, 65520, Note_on_c, 0, 79, 74
2, 65524, Control_c, 0, 64, 0
2, 65634, Control_c, 0, 64, 127
2, 65753, Note_on_c, 0, 71, 0
2, 65753, Control_c, 0, 64, 0
2, 65757, Note_on_c, 0, 79, 0
2, 65757, Note_on_c, 0, 74, 0
2, 66480, Note_on_c, 0, 67, 78
2, 66480, Note_on_c, 0, 72, 74
2, 66488, Control_c, 0, 64, 127
2, 66535, Note_on_c, 0, 72, 0
2, 66540, Note_on_c, 0, 76, 70
2, 66567, Note_on_c, 0, 76, 0
2, 66570, Note_on_c, 0, 79, 74
2, 66594, Note_on_c, 0, 79, 0
2, 66600, Note_on_c, 0, 84, 74
2, 66604, Control_c, 0, 64, 0
2, 66624, Control_c, 0, 64, 127
2, 66642, Note_on_c, 0, 84, 0
2, 66660, Note_on_c, 0, 84, 78
2, 66685, Note_on_c, 0, 84, 0
2, 66694, Note_on_c, 0, 67, 0
2, 66720, Note_on_c, 0, 84, 86
2, 66720, Note_on_c, 0, 64, 82
2, 66724, Control_c, 0, 64, 0
2, 66745, Control_c, 0, 64, 127
2, 66767, Note_on_c, 0, 84, 0
2, 66780, Note_on_c, 0, 82, 74
2, 66780, Note_on_c, 0, 79, 86
2, 66795, Note_on_c, 0, 79, 0
2, 66797, Note_on_c, 0, 64, 0
2, 66803, Note_on_c, 0, 82, 0
2, 66840, Note_on_c, 0, 65, 72
2, 66840, Note_on_c, 0, 81, 90
2, 66840, Note_on_c, 0, 77, 86
2, 66851, Control_c, 0, 64, 0
2, 66874, Control_c, 0, 64, 127
2, 66892, Note_on_c, 0, 77, 0
2, 66897, Note_on_c, 0, 81, 0
2, 66900, Note_on_c, 0, 79, 82
2, 66900, Note_on_c, 0, 76, 78
2, 66919, Note_on_c, 0, 79, 0
2, 66922, Note_on_c, 0, 76, 0
2, 66960, Note_on_c, 0, 74, 74
2, 66960, Note_on_c, 0, 77, 74
2, 66969, Control_c, 0, 64, 0
2, 66992, Control_c, 0, 64, 127
2, 67004, Note_on_c, 0, 77, 0
2, 67005, Note_on_c, 0, 74, 0
2, 67020, Note_on_c, 0, 76, 82
2, 67020, Note_on_c, 0, 72, 82
2, 67035, Note_on_c, 0, 65, 0
2, 67043, Note_on_c, 0, 72, 0
2, 67045, Note_on_c, 0, 76, 0
2, 67080, Note_on_c, 0, 66, 74
2, 67080, Note_on_c, 0, 71, 86
2, 67080, Note_on_c, 0, 74, 86
2, 67085, Control_c, 0, 64, 0
2, 67110, Note_on_c, 0, 71, 0
2, 67112, Control_c, 0, 64, 127
2, 67127, Note_on_c, 0, 74, 0
2, 67140, Note_on_c, 0, 76, 90
2, 67140, Note_on_c, 0, 72, 86
2, 67159, Note_on_c, 0, 76, 0
2, 67162, Note_on_c, 0, 72, 0
2, 67165, Note_on_c, 0, 66, 0
2, 67200, Note_on_c, 0, 72, 74
2, 67200, Note_on_c, 0, 76, 86
2, 67200, Note_on_c, 0, 67, 72
2, 67205, Control_c, 0, 64, 0
2, 67228, Control_c, 0, 64, 127
2, 67257, Note_on_c, 0, 67, 0
2, 67257, Note_on_c, 0, 76, 0
2, 67261, Note_on_c, 0, 72, 0
2, 67320, Note_on_c, 0, 71, 72
2, 67320, Note_on_c, 0, 74, 72
2, 67320, Note_on_c, 0, 67, 59
2, 67322, Control_c, 0, 64, 0
2, 67343, Control_c, 0, 64, 127
2, 67407, Note_on_c, 0, 71, 0
2, 67408, Note_on_c, 0, 67, 0
2, 67410, Note_on_c, 0, 74, 0
2, 67444, Control_c, 0, 64, 0
2, 67560, Note_on_c, 0, 79, 90
2, 67560, Note_on_c, 0, 67, 70
2, 67582, Control_c, 0, 64, 127
2, 67617, Note_on_c, 0, 67, 0
2, 67620, Note_on_c, 0, 72, 70
2, 67633, Note_on_c, 0, 79, 0
2, 67675, Note_on_c, 0, 72, 0
2, 67680, Note_on_c, 0, 84, 99
2, 67680, Note_on_c, 0, 67, 66
2, 67697, Control_c, 0, 64, 0
2, 67721, Control_c, 0, 64, 127
2, 67735, Note_on_c, 0, 67, 0
2, 67740, Note_on_c, 0, 72, 67
2, 67758, Note_on_c, 0, 84, 0
2, 67796, Note_on_c, 0, 72, 0
2, 67800, Note_on_c, 0, 84, 95
2, 67800, Note_on_c, 0, 67, 69
2, 67814, Control_c, 0, 64, 0
2, 67838, Control_c, 0, 64, 127
2, 67854, Note_on_c, 0, 67, 0
2, 67860, Note_on_c, 0, 72, 69
2, 67874, Note_on_c, 0, 84, 0
2, 67898, Note_on_c, 0, 72, 0
2, 67920, Note_on_c, 0, 84, 90
2, 67920, Note_on_c, 0, 67, 74
2, 67922, Control_c, 0, 64, 0
2, 67945, Control_c, 0, 64, 127
2, 67973, Note_on_c, 0, 67, 0
2, 67975, Note_on_c, 0, 84, 0
2, 67980, Note_on_c, 0, 71, 72
2, 67980, Note_on_c, 0, 83, 90
2, 67991, Control_c, 0, 64, 0
2, 68010, Control_c, 0, 64, 127
2, 68034, Note_on_c, 0, 83, 0
2, 68034, Note_on_c, 0, 71, 0
2, 68040, Note_on_c, 0, 81, 90
2, 68040, Note_on_c, 0, 67, 65
2, 68043, Control_c, 0, 64, 0
2, 68071, Control_c, 0, 64, 127
2, 68095, Note_on_c, 0, 81, 0
2, 68096, Note_on_c, 0, 67, 0
2, 68100, Note_on_c, 0, 79, 99
2, 68100, Note_on_c, 0, 71, 74
2, 68121, Note_on_c, 0, 71, 0
2, 68126, Note_on_c, 0, 79, 0
2, 68160, Note_on_c, 0, 79, 90
2, 68160, Note_on_c, 0, 67, 72
2, 68161, Control_c, 0, 64, 0
2, 68185, Control_c, 0, 64, 127
2, 68207, Note_on_c, 0, 67, 0
2, 68220, Note_on_c, 0, 71, 86
2, 68236, Note_on_c, 0, 79, 0
2, 68245, Note_on_c, 0, 71, 0
2, 68280, Note_on_c, 0, 79, 86
2, 68280, Note_on_c, 0, 67, 78
2, 68291, Control_c, 0, 64, 0
2, 68314, Control_c, 0, 64, 127
2, 68333, Note_on_c, 0, 67, 0
2, 68340, Note_on_c, 0, 72, 78
2, 68361, Note_on_c, 0, 79, 0
2, 68385, Note_on_c, 0, 72, 0
2, 68400, Note_on_c, 0, 84, 90
2, 68400, Note_on_c, 0, 67, 72
2, 68404, Control_c, 0, 64, 0
2, 68427, Control_c, 0, 64, 127
2, 68454, Note_on_c, 0, 67, 0
2, 68455, Note_on_c, 0, 84, 0
2, 68460, Note_on_c, 0, 88, 82
2, 68460, Note_on_c, 0, 72, 70
2, 68496, Note_on_c, 0, 88, 0
2, 68500, Note_on_c, 0, 72, 0
2, 68520, Note_on_c, 0, 67, 66
2, 68520, Note_on_c, 0, 86, 86
2, 68529, Control_c, 0, 64, 0
2, 68551, Control_c, 0, 64, 127
2, 68574, Note_on_c, 0, 67, 0
2, 68580, Note_on_c, 0, 86, 0
2, 68580, Note_on_c, 0, 72, 60
2, 68580, Note_on_c, 0, 84, 86
2, 68601, Note_on_c, 0, 84, 0
2, 68606, Note_on_c, 0, 72, 0
2, 68640, Note_on_c, 0, 84, 90
2, 68640, Note_on_c, 0, 67, 67
2, 68651, Control_c, 0, 64, 0
2, 68678, Control_c, 0, 64, 127
2, 68695, Note_on_c, 0, 84, 0
2, 68699, Note_on_c, 0, 67, 0
2, 68700, Note_on_c, 0, 83, 74
2, 68700, Note_on_c, 0, 71, 72
2, 68716, Control_c, 0, 64, 0
2, 68735, Control_c, 0, 64, 127
2, 68751, Note_on_c, 0, 71, 0
2, 68756, Note_on_c, 0, 83, 0
2, 68760, Note_on_c, 0, 67, 67
2, 68760, Note_on_c, 0, 81, 74
2, 68768, Control_c, 0, 64, 0
2, 68784, Control_c, 0, 64, 127
2, 68810, Note_on_c, 0, 81, 0
2, 68815, Note_on_c, 0, 67, 0
2, 68820, Note_on_c, 0, 79, 82
2, 68820, Note_on_c, 0, 71, 55
2, 68836, Note_on_c, 0, 71, 0
2, 68840, Note_on_c, 0, 79, 0
2, 68880, Note_on_c, 0, 67, 72
2, 68880, Note_on_c, 0, 79, 82
2, 68887, Control_c, 0, 64, 0
2, 68910, Control_c, 0, 64, 127
2, 68934, Note_on_c, 0, 67, 0
2, 68940, Note_on_c, 0, 71, 74
2, 68953, Note_on_c, 0, 79, 0
2, 68959, Note_on_c, 0, 71, 0
2, 69000, Note_on_c, 0, 79, 90
2, 69004, Control_c, 0, 64, 0
2, 69031, Control_c, 0, 64, 127
2, 69068, Note_on_c, 0, 79, 0
2, 69120, Control_c, 0, 64, 0
2, 69120, Note_on_c, 0, 84, 86
2, 69120, Note_on_c, 0, 72, 66
2, 69120, Note_on_c, 0, 64, 74
2, 69141, Control_c, 0, 64, 127
2, 69171, Note_on_c, 0, 64, 0
2, 69176, Note_on_c, 0, 72, 0
2, 69184, Note_on_c, 0, 84, 0
2, 69240, Note_on_c, 0, 83, 90
2, 69240, Note_on_c, 0, 64, 86
2, 69240, Note_on_c, 0, 72, 67
2, 69241, Control_c, 0, 64, 0
2, 69264, Control_c, 0, 64, 127
2, 69310, Note_on_c, 0, 64, 0
2, 69317, Note_on_c, 0, 72, 0
2, 69325, Note_on_c, 0, 83, 0
2, 69359, Control_c, 0, 64, 0
2, 69360, Note_on_c, 0, 83, 90
2, 69385, Control_c, 0, 64, 127
2, 69412, Note_on_c, 0, 83, 0
2, 69420, Note_on_c, 0, 81, 90
2, 69472, Control_c, 0, 64, 0
2, 69480, Note_on_c, 0, 65, 78
2, 69480, Note_on_c, 0, 72, 66
2, 69493, Control_c, 0, 64, 127
2, 69530, Note_on_c, 0, 72, 0
2, 69532, Note_on_c, 0, 65, 0
2, 69535, Note_on_c, 0, 81, 0
2, 69600, Note_on_c, 0, 79, 99
2, 69600, Note_on_c, 0, 64, 72
2, 69600, Control_c, 0, 64, 0
2, 69600, Note_on_c, 0, 72, 62
2, 69622, Control_c, 0, 64, 127
2, 69650, Note_on_c, 0, 79, 0
2, 69659, Note_on_c, 0, 64, 0
2, 69664, Note_on_c, 0, 72, 0
2, 69715, Control_c, 0, 64, 0
2, 69720, Note_on_c, 0, 79, 82
2, 69745, Control_c, 0, 64, 127
2, 69771, Note_on_c, 0, 79, 0
2, 69780, Note_on_c, 0, 77, 86
2, 69824, Control_c, 0, 64, 0
2, 69840, Note_on_c, 0, 62, 86
2, 69840, Note_on_c, 0, 71, 74
2, 69847, Control_c, 0, 64, 127
2, 69870, Note_on_c, 0, 77, 0
2, 69873, Note_on_c, 0, 62, 0
2, 69879, Note_on_c, 0, 71, 0
2, 69960, Note_on_c, 0, 60, 66
2, 69960, Note_on_c, 0, 72, 72
2, 69960, Note_on_c, 0, 76, 95
2, 69961, Control_c, 0, 64, 0
2, 69984, Control_c, 0, 64, 127
2, 70003, Note_on_c, 0, 72, 0
2, 70005, Note_on_c, 0, 76, 0
2, 70007, Note_on_c, 0, 60, 0
2, 70080, Note_on_c, 0, 76, 86
2, 70080, Note_on_c, 0, 65, 72
2, 70082, Control_c, 0, 64, 0
2, 70106, Note_on_c, 0, 76, 0
2, 70107, Control_c, 0, 64, 127
2, 70110, Note_on_c, 0, 74, 72
2, 70138, Note_on_c, 0, 74, 0
2, 70140, Note_on_c, 0, 77, 78
2, 70151, Control_c, 0, 64, 0
2, 70170, Note_on_c, 0, 74, 78
2, 70171, Note_on_c, 0, 77, 0
2, 70172, Control_c, 0, 64, 127
2, 70188, Note_on_c, 0, 65, 0
2, 70193, Note_on_c, 0, 74, 0
2, 70199, Control_c, 0, 64, 0
2, 70200, Note_on_c, 0, 72, 72
2, 70200, Note_on_c, 0, 67, 74
2, 70222, Control_c, 0, 64, 127
2, 70246, Note_on_c, 0, 67, 0
2, 70255, Note_on_c, 0, 72, 0
2, 70317, Control_c, 0, 64, 0
2, 70320, Note_on_c, 0, 71, 99
2, 70320, Note_on_c, 0, 65, 60
2, 70320, Note_on_c, 0, 67, 70
2, 70339, Control_c, 0, 64, 127
2, 70373, Note_on_c, 0, 67, 0
2, 70373, Note_on_c, 0, 65, 0
2, 70382, Note_on_c, 0, 71, 0
2, 70440, Note_on_c, 0, 71, 86
2, 70440, Note_on_c, 0, 67, 65
2, 70440, Note_on_c, 0, 64, 72
2, 70447, Control_c, 0, 64, 0
2, 70473, Control_c, 0, 64, 127
2, 70500, Note_on_c, 0, 71, 0
2, 70500, Note_on_c, 0, 72, 90
2, 70510, Control_c, 0, 64, 0
2, 70560, Control_c, 0, 64, 127
2, 70790, Note_on_c, 0, 64, 0
2, 70791, Note_on_c, 0, 72, 0
2, 70791, Note_on_c, 0, 67, 0
2, 70798, Control_c, 0, 64, 0
2, 70800, Note_on_c, 0, 69, 72
2, 70800, Note_on_c, 0, 77, 99
2, 70844, Control_c, 0, 64, 127
2, 70860, Note_on_c, 0, 69, 0
2, 70860, Note_on_c, 0, 72, 78
2, 70885, Note_on_c, 0, 77, 0
2, 70906, Note_on_c, 0, 72, 0
2, 70920, Note_on_c, 0, 69, 74
2, 70920, Note_on_c, 0, 77, 99
2, 70977, Note_on_c, 0, 69, 0
2, 70980, Note_on_c, 0, 72, 74
2, 70998, Note_on_c, 0, 77, 0
2, 71023, Note_on_c, 0, 72, 0
2, 71040, Note_on_c, 0, 69, 70
2, 71040, Note_on_c, 0, 77, 95
2, 71094, Note_on_c, 0, 77, 0
2, 71100, Note_on_c, 0, 69, 0
2, 71100, Note_on_c, 0, 72, 74
2, 71141, Note_on_c, 0, 72, 0
2, 71157, Control_c, 0, 64, 0
2, 71160, Note_on_c, 0, 78, 86
2, 71160, Note_on_c, 0, 70, 82
2, 71197, Control_c, 0, 64, 127
2, 71218, Note_on_c, 0, 70, 0
2, 71218, Note_on_c, 0, 78, 0
2, 71220, Note_on_c, 0, 72, 72
2, 71220, Note_on_c, 0, 79, 86
2, 71234, Control_c, 0, 64, 0
2, 71280, Note_on_c, 0, 70, 72
2, 71287, Note_on_c, 0, 72, 0
2, 71300, Control_c, 0, 64, 127
2, 71338, Note_on_c, 0, 70, 0
2, 71340, Note_on_c, 0, 72, 74
2, 71344, Control_c, 0, 64, 0
2, 71382, Control_c, 0, 64, 127
2, 71398, Note_on_c, 0, 72, 0
2, 71400, Note_on_c, 0, 70, 72
2, 71460, Note_on_c, 0, 70, 0
2, 71460, Note_on_c, 0, 72, 69
2, 71462, Note_on_c, 0, 79, 0
2, 71511, Note_on_c, 0, 72, 0
2, 71514, Control_c, 0, 64, 0
2, 71520, Note_on_c, 0, 84, 95
2, 71520, Note_on_c, 0, 67, 72
2, 71560, Control_c, 0, 64, 127
2, 71574, Note_on_c, 0, 84, 0
2, 71579, Note_on_c, 0, 67, 0
2, 71580, Note_on_c, 0, 82, 95
2, 71580, Note_on_c, 0, 72, 72
2, 71635, Note_on_c, 0, 82, 0
2, 71637, Note_on_c, 0, 72, 0
2, 71640, Note_on_c, 0, 67, 90
2, 71640, Note_on_c, 0, 82, 99
2, 71641, Control_c, 0, 64, 0
2, 71677, Control_c, 0, 64, 127
2, 71693, Note_on_c, 0, 67, 0
2, 71699, Note_on_c, 0, 82, 0
2, 71700, Note_on_c, 0, 72, 74
2, 71700, Note_on_c, 0, 81, 90
2, 71751, Control_c, 0, 64, 0
2, 71754, Note_on_c, 0, 81, 0
2, 71757, Note_on_c, 0, 72, 0
2, 71760, Note_on_c, 0, 67, 74
2, 71760, Note_on_c, 0, 82, 90
2, 71789, Control_c, 0, 64, 127
2, 71816, Note_on_c, 0, 82, 0
2, 71817, Note_on_c, 0, 67, 0
2, 71820, Note_on_c, 0, 72, 59
2, 71820, Note_on_c, 0, 84, 99
2, 71855, Note_on_c, 0, 84, 0
2, 71866, Note_on_c, 0, 72, 0
2, 71867, Control_c, 0, 64, 0
2, 71880, Note_on_c, 0, 65, 65
2, 71880, Note_on_c, 0, 82, 82
2, 71898, Control_c, 0, 64, 127
2, 71933, Note_on_c, 0, 82, 0
2, 71936, Note_on_c, 0, 65, 0
2, 71940, Note_on_c, 0, 72, 70
2, 71940, Note_on_c, 0, 81, 86
2, 71943, Control_c, 0, 64, 0
2, 71979, Control_c, 0, 64, 127
2, 72000, Note_on_c, 0, 65, 55
2, 72004, Note_on_c, 0, 72, 0
2, 72007, Note_on_c, 0, 81, 0
2, 72049, Note_on_c, 0, 65, 0
2, 72060, Note_on_c, 0, 69, 66
2, 72064, Control_c, 0, 64, 0
2, 72103, Control_c, 0, 64, 127
2, 72114, Note_on_c, 0, 69, 0
2, 72120, Note_on_c, 0, 65, 66
2, 72178, Note_on_c, 0, 65, 0
2, 72180, Note_on_c, 0, 69, 72
2, 72212, Note_on_c, 0, 69, 0
2, 72240, Note_on_c, 0, 65, 72
2, 72240, Note_on_c, 0, 81, 86
2, 72240, Note_on_c, 0, 72, 67
2, 72240, Control_c, 0, 64, 0
2, 72275, Control_c, 0, 64, 127
2, 72297, Note_on_c, 0, 81, 0
2, 72300, Note_on_c, 0, 82, 78
2, 72356, Note_on_c, 0, 72, 0
2, 72357, Control_c, 0, 64, 0
2, 72358, Note_on_c, 0, 82, 0
2, 72359, Note_on_c, 0, 65, 0
2, 72360, Note_on_c, 0, 84, 90
2, 72396, Control_c, 0, 64, 127
2, 72409, Note_on_c, 0, 84, 0
2, 72420, Note_on_c, 0, 84, 82
2, 72464, Note_on_c, 0, 84, 0
2, 72473, Control_c, 0, 64, 0
2, 72480, Note_on_c, 0, 65, 86
2, 72480, Note_on_c, 0, 72, 78
2, 72480, Note_on_c, 0, 84, 99
2, 72503, Control_c, 0, 64, 127
2, 72520, Note_on_c, 0, 84, 0
2, 72537, Note_on_c, 0, 65, 0
2, 72539, Note_on_c, 0, 72, 0
2, 72540, Note_on_c, 0, 84, 90
2, 72577, Note_on_c, 0, 84, 0
2, 72600, Note_on_c, 0, 79, 90
2, 72600, Note_on_c, 0, 64, 99
2, 72600, Note_on_c, 0, 72, 82
2, 72607, Control_c, 0, 64, 0
2, 72650, Control_c, 0, 64, 127
2, 72660, Note_on_c, 0, 79, 0
2, 72660, Note_on_c, 0, 83, 90
2, 72715, Control_c, 0, 64, 0
2, 72716, Note_on_c, 0, 83, 0
2, 72720, Note_on_c, 0, 84, 99
2, 72730, Note_on_c, 0, 72, 0
2, 72730, Note_on_c, 0, 64, 0
2, 72759, Control_c, 0, 64, 127
2, 72769, Note_on_c, 0, 84, 0
2, 72780, Note_on_c, 0, 84, 90
2, 72826, Note_on_c, 0, 84, 0
2, 72832, Control_c, 0, 64, 0
2, 72840, Note_on_c, 0, 72, 82
2, 72840, Note_on_c, 0, 64, 95
2, 72840, Note_on_c, 0, 84, 103
2, 72862, Control_c, 0, 64, 127
2, 72879, Note_on_c, 0, 84, 0
2, 72884, Note_on_c, 0, 64, 0
2, 72890, Note_on_c, 0, 72, 0
2, 72900, Note_on_c, 0, 84, 82
2, 72925, Note_on_c, 0, 84, 0
2, 72950, Control_c, 0, 64, 0
2, 72960, Note_on_c, 0, 65, 82
2, 72960, Note_on_c, 0, 77, 99
2, 72960, Note_on_c, 0, 86, 108
2, 72981, Control_c, 0, 64, 127
2, 73018, Note_on_c, 0, 86, 0
2, 73018, Note_on_c, 0, 65, 0
2, 73025, Note_on_c, 0, 77, 0
2, 73080, Control_c, 0, 64, 0
2, 73080, Note_on_c, 0, 67, 86
2, 73080, Note_on_c, 0, 76, 95
2, 73080, Note_on_c, 0, 84, 103
2, 73111, Control_c, 0, 64, 127
2, 73123, Note_on_c, 0, 76, 0
2, 73123, Note_on_c, 0, 67, 0
2, 73130, Note_on_c, 0, 84, 0
2, 73193, Control_c, 0, 64, 0
2, 73200, Note_on_c, 0, 65, 90
2, 73200, Note_on_c, 0, 83, 95
2, 73200, Note_on_c, 0, 74, 86
2, 73200, Note_on_c, 0, 67, 86
2, 73226, Control_c, 0, 64, 127
2, 73236, Note_on_c, 0, 67, 0
2, 73237, Note_on_c, 0, 65, 0
2, 73244, Note_on_c, 0, 74, 0
2, 73252, Note_on_c, 0, 83, 0
2, 73319, Control_c, 0, 64, 0
2, 73320, Note_on_c, 0, 76, 103
2, 73320, Note_on_c, 0, 84, 99
2, 73320, Note_on_c, 0, 64, 90
2, 73320, Note_on_c, 0, 67, 95
2, 73320, Note_on_c, 0, 72, 78
2, 73368, Control_c, 0, 64, 127
2, 73668, Control_c, 0, 64, 0
2, 73673, Note_on_c, 0, 72, 0
2, 73676, Note_on_c, 0, 67, 0
2, 73678, Note_on_c, 0, 84, 0
2, 73679, Note_on_c, 0, 76, 0
2, 73680, Note_on_c, 0, 64, 0
2, 76560, Note_on_c, 0, 77, 95
2, 76560, Note_on_c, 0, 69, 82
2, 76620, Note_on_c, 0, 72, 78
2, 76622, Note_on_c, 0, 69, 0
2, 76641, Note_on_c, 0, 77, 0
2, 76664, Note_on_c, 0, 72, 0
2, 76680, Note_on_c, 0, 69, 74
2, 76680, Note_on_c, 0, 77, 103
2, 76738, Note_on_c, 0, 69, 0
2, 76740, Note_on_c, 0, 72, 78
2, 76756, Note_on_c, 0, 77, 0
2, 76786, Note_on_c, 0, 72, 0
2, 76800, Note_on_c, 0, 69, 78
2, 76800, Note_on_c, 0, 77, 103
2, 76860, Note_on_c, 0, 72, 78
2, 76862, Note_on_c, 0, 69, 0
2, 76864, Note_on_c, 0, 77, 0
2, 76909, Note_on_c, 0, 72, 0
2, 76920, Note_on_c, 0, 78, 99
2, 76920, Note_on_c, 0, 70, 72
2, 76940, Control_c, 0, 64, 127
2, 76976, Note_on_c, 0, 78, 0
2, 76980, Note_on_c, 0, 70, 0
2, 76980, Note_on_c, 0, 72, 78
2, 76980, Note_on_c, 0, 79, 99
2, 76991, Control_c, 0, 64, 0
2, 77020, Control_c, 0, 64, 127
2, 77038, Note_on_c, 0, 72, 0
2, 77040, Note_on_c, 0, 70, 70
2, 77053, Control_c, 0, 64, 0
2, 77079, Control_c, 0, 64, 127
2, 77100, Note_on_c, 0, 72, 86
2, 77102, Note_on_c, 0, 70, 0
2, 77106, Control_c, 0, 64, 0
2, 77137, Control_c, 0, 64, 127
2, 77160, Note_on_c, 0, 70, 86
2, 77163, Note_on_c, 0, 72, 0
2, 77163, Note_on_c, 0, 79, 0
2, 77199, Note_on_c, 0, 70, 0
2, 77220, Note_on_c, 0, 72, 90
2, 77270, Note_on_c, 0, 72, 0
2, 77272, Control_c, 0, 64, 0
2, 77280, Note_on_c, 0, 67, 82
2, 77280, Note_on_c, 0, 84, 99
2, 77324, Control_c, 0, 64, 127
2, 77335, Note_on_c, 0, 67, 0
2, 77337, Note_on_c, 0, 84, 0
2, 77340, Note_on_c, 0, 72, 72
2, 77340, Note_on_c, 0, 82, 95
2, 77368, Note_on_c, 0, 82, 0
2, 77384, Note_on_c, 0, 72, 0
2, 77400, Control_c, 0, 64, 0
2, 77400, Note_on_c, 0, 67, 78
2, 77400, Note_on_c, 0, 82, 86
2, 77437, Control_c, 0, 64, 127
2, 77453, Note_on_c, 0, 67, 0
2, 77454, Note_on_c, 0, 82, 0
2, 77460, Note_on_c, 0, 72, 72
2, 77460, Note_on_c, 0, 81, 103
2, 77506, Note_on_c, 0, 81, 0
2, 77510, Note_on_c, 0, 72, 0
2, 77517, Control_c, 0, 64, 0
2, 77520, Note_on_c, 0, 82, 86
2, 77520, Note_on_c, 0, 67, 82
2, 77550, Control_c, 0, 64, 127
2, 77571, Note_on_c, 0, 82, 0
2, 77573, Note_on_c, 0, 67, 0
2, 77580, Note_on_c, 0, 72, 78
2, 77580, Note_on_c, 0, 84, 103
2, 77605, Note_on_c, 0, 72, 0
2, 77609, Note_on_c, 0, 84, 0
2, 77638, Control_c, 0, 64, 0
2, 77640, Note_on_c, 0, 80, 99
2, 77640, Note_on_c, 0, 65, 86
2, 77674, Control_c, 0, 64, 127
2, 77684, Note_on_c, 0, 65, 0
2, 77691, Note_on_c, 0, 80, 0
2, 77700, Note_on_c, 0, 72, 72
2, 77700, Control_c, 0, 64, 0
2, 77700, Note_on_c, 0, 81, 95
2, 77724, Control_c, 0, 64, 127
2, 77753, Note_on_c, 0, 72, 0
2, 77754, Control_c, 0, 64, 0
2, 77760, Note_on_c, 0, 65, 74
2, 77785, Note_on_c, 0, 81, 0
2, 77791, Control_c, 0, 64, 127
2, 77800, Control_c, 0, 64, 0
2, 77820, Note_on_c, 0, 72, 72
2, 77824, Note_on_c, 0, 65, 0
2, 77845, Control_c, 0, 64, 127
2, 77868, Note_on_c, 0, 72, 0
2, 77880, Note_on_c, 0, 65, 82
2, 77936, Note_on_c, 0, 65, 0
2, 77940, Note_on_c, 0, 72, 82
2, 77964, Note_on_c, 0, 72, 0
2, 77999, Control_c, 0, 64, 0
2, 78001, Note_on_c, 0, 70, 86
2, 78002, Note_on_c, 0, 65, 90
2, 78002, Note_on_c, 0, 74, 86
2, 78039, Note_on_c, 0, 76, 99
2, 78045, Note_on_c, 0, 74, 0
2, 78053, Control_c, 0, 64, 127
2, 78058, Control_c, 0, 64, 0
2, 78064, Control_c, 0, 64, 127
2, 78073, Note_on_c, 0, 76, 0
2, 78075, Note_on_c, 0, 77, 99
2, 78110, Note_on_c, 0, 77, 0
2, 78123, Note_on_c, 0, 77, 103
2, 78128, Note_on_c, 0, 65, 0
2, 78128, Note_on_c, 0, 70, 0
2, 78132, Control_c, 0, 64, 0
2, 78172, Note_on_c, 0, 77, 0
2, 78177, Control_c, 0, 64, 127
2, 78184, Note_on_c, 0, 77, 95
2, 78221, Note_on_c, 0, 77, 0
2, 78225, Control_c, 0, 64, 0
2, 78240, Note_on_c, 0, 77, 103
2, 78242, Note_on_c, 0, 65, 86
2, 78242, Note_on_c, 0, 70, 86
2, 78258, Control_c, 0, 64, 127
2, 78279, Note_on_c, 0, 77, 0
2, 78291, Note_on_c, 0, 65, 0
2, 78298, Note_on_c, 0, 70, 0
2, 78306, Note_on_c, 0, 77, 99
2, 78332, Note_on_c, 0, 77, 0
2, 78364, Note_on_c, 0, 65, 86
2, 78364, Note_on_c, 0, 72, 95
2, 78365, Note_on_c, 0, 69, 90
2, 78366, Control_c, 0, 64, 0
2, 78402, Note_on_c, 0, 76, 95
2, 78403, Note_on_c, 0, 72, 0
2, 78407, Control_c, 0, 64, 127
2, 78433, Note_on_c, 0, 76, 0
2, 78439, Note_on_c, 0, 69, 0
2, 78441, Note_on_c, 0, 65, 0
2, 78441, Note_on_c, 0, 77, 103
2, 78468, Note_on_c, 0, 77, 0
2, 78469, Control_c, 0, 64, 0
2, 78485, Note_on_c, 0, 77, 103
2, 78512, Control_c, 0, 64, 127
2, 78528, Note_on_c, 0, 77, 0
2, 78545, Note_on_c, 0, 77, 99
2, 78575, Note_on_c, 0, 77, 0
2, 78589, Control_c, 0, 64, 0
2, 78600, Note_on_c, 0, 77, 112
2, 78603, Note_on_c, 0, 69, 90
2, 78603, Note_on_c, 0, 65, 86
2, 78620, Control_c, 0, 64, 127
2, 78629, Note_on_c, 0, 77, 0
2, 78647, Note_on_c, 0, 65, 0
2, 78647, Note_on_c, 0, 69, 0
2, 78665, Note_on_c, 0, 77, 108
2, 78684, Note_on_c, 0, 77, 0
2, 78721, Note_on_c, 0, 67, 72
2, 78723, Note_on_c, 0, 72, 66
2, 78726, Note_on_c, 0, 79, 108
2, 78726, Note_on_c, 0, 76, 86
2, 78728, Control_c, 0, 64, 0
2, 78761, Note_on_c, 0, 79, 0
2, 78763, Note_on_c, 0, 81, 99
2, 78778, Control_c, 0, 64, 127
2, 78793, Note_on_c, 0, 81, 0
2, 78800, Note_on_c, 0, 82, 117
2, 78824, Note_on_c, 0, 76, 0
2, 78828, Note_on_c, 0, 72, 0
2, 78829, Note_on_c, 0, 67, 0
2, 78829, Note_on_c, 0, 82, 0
2, 78834, Control_c, 0, 64, 0
2, 78846, Note_on_c, 0, 82, 117
2, 78885, Note_on_c, 0, 82, 0
2, 78904, Note_on_c, 0, 82, 112
2, 78936, Note_on_c, 0, 82, 0
2, 78960, Note_on_c, 0, 82, 123
2, 78962, Note_on_c, 0, 67, 95
2, 78964, Note_on_c, 0, 72, 86
2, 78965, Note_on_c, 0, 76, 86
2, 78966, Control_c, 0, 64, 127
2, 78997, Note_on_c, 0, 82, 0
2, 79015, Note_on_c, 0, 67, 0
2, 79015, Note_on_c, 0, 72, 0
2, 79015, Note_on_c, 0, 76, 0
2, 79024, Note_on_c, 0, 82, 117
2, 79049, Note_on_c, 0, 82, 0
2, 79060, Control_c, 0, 64, 0
2, 79080, Note_on_c, 0, 67, 95
2, 79080, Note_on_c, 0, 72, 86
2, 79080, Note_on_c, 0, 76, 86
2, 79086, Note_on_c, 0, 82, 127
2, 79094, Control_c, 0, 64, 127
2, 79200, Note_on_c, 0, 76, 0
2, 79203, Note_on_c, 0, 72, 0
2, 79204, Note_on_c, 0, 82, 0
2, 79206, Note_on_c, 0, 67, 0
2, 79206, Control_c, 0, 64, 0
2, 79440, Note_on_c, 0, 79, 90
2, 79477, Control_c, 0, 64, 127
2, 79560, Note_on_c, 0, 70, 74
2, 79560, Note_on_c, 0, 72, 86
2, 79573, Note_on_c, 0, 79, 0
2, 79597, Note_on_c, 0, 70, 0
2, 79605, Note_on_c, 0, 72, 0
2, 79620, Note_on_c, 0, 82, 86
2, 79669, Control_c, 0, 64, 0
2, 79676, Note_on_c, 0, 82, 0
2, 79680, Note_on_c, 0, 72, 74
2, 79680, Note_on_c, 0, 76, 90
2, 79680, Note_on_c, 0, 70, 72
2, 79704, Control_c, 0, 64, 127
2, 79730, Note_on_c, 0, 72, 0
2, 79738, Note_on_c, 0, 76, 0
2, 79739, Note_on_c, 0, 70, 0
2, 79740, Note_on_c, 0, 79, 86
2, 79770, Note_on_c, 0, 79, 0
2, 79793, Control_c, 0, 64, 0
2, 79800, Note_on_c, 0, 72, 60
2, 79800, Note_on_c, 0, 77, 95
2, 79800, Note_on_c, 0, 69, 78
2, 79825, Control_c, 0, 64, 127
2, 79853, Note_on_c, 0, 69, 0
2, 79854, Note_on_c, 0, 72, 0
2, 79862, Note_on_c, 0, 77, 0
2, 79920, Note_on_c, 0, 77, 86
2, 79920, Note_on_c, 0, 69, 67
2, 79920, Note_on_c, 0, 72, 72
2, 79959, Note_on_c, 0, 72, 0
2, 79959, Note_on_c, 0, 69, 0
2, 79972, Note_on_c, 0, 77, 0
2, 80040, Note_on_c, 0, 77, 90
2, 80040, Note_on_c, 0, 69, 70
2, 80040, Note_on_c, 0, 72, 86
2, 80082, Note_on_c, 0, 77, 0
2, 80085, Note_on_c, 0, 72, 0
2, 80087, Note_on_c, 0, 69, 0
2, 80160, Note_on_c, 0, 79, 103
2, 80165, Control_c, 0, 64, 0
2, 80225, Control_c, 0, 64, 127
2, 80280, Note_on_c, 0, 72, 74
2, 80280, Note_on_c, 0, 70, 86
2, 80329, Note_on_c, 0, 79, 0
2, 80335, Note_on_c, 0, 72, 0
2, 80338, Note_on_c, 0, 70, 0
2, 80340, Note_on_c, 0, 82, 99
2, 80384, Note_on_c, 0, 82, 0
2, 80397, Control_c, 0, 64, 0
2, 80400, Note_on_c, 0, 76, 103
2, 80400, Note_on_c, 0, 70, 78
2, 80400, Note_on_c, 0, 72, 82
2, 80430, Control_c, 0, 64, 127
2, 80453, Note_on_c, 0, 72, 0
2, 80453, Note_on_c, 0, 76, 0
2, 80454, Note_on_c, 0, 70, 0
2, 80460, Note_on_c, 0, 79, 95
2, 80486, Note_on_c, 0, 79, 0
2, 80516, Control_c, 0, 64, 0
2, 80520, Note_on_c, 0, 77, 99
2, 80520, Note_on_c, 0, 72, 78
2, 80520, Note_on_c, 0, 69, 82
2, 80545, Control_c, 0, 64, 127
2, 80604, Note_on_c, 0, 69, 0
2, 80605, Note_on_c, 0, 77, 0
2, 80606, Note_on_c, 0, 72, 0
2, 80619, Control_c, 0, 64, 0
2, 80760, Note_on_c, 0, 79, 99
2, 80760, Note_on_c, 0, 70, 82
2, 80760, Note_on_c, 0, 72, 86
2, 80774, Control_c, 0, 64, 127
2, 80802, Note_on_c, 0, 72, 0
2, 80803, Note_on_c, 0, 70, 0
2, 80806, Note_on_c, 0, 79, 0
2, 80861, Control_c, 0, 64, 0
2, 80880, Note_on_c, 0, 77, 99
2, 80880, Note_on_c, 0, 69, 74
2, 80880, Note_on_c, 0, 72, 82
2, 80922, Control_c, 0, 64, 127
2, 81154, Control_c, 0, 64, 0
2, 81163, Note_on_c, 0, 77, 0
2, 81168, Note_on_c, 0, 69, 0
2, 81171, Note_on_c, 0, 72, 0
2, 81240, Note_on_c, 0, 79, 99
2, 81280, Control_c, 0, 64, 127
2, 81360, Note_on_c, 0, 64, 90
2, 81360, Note_on_c, 0, 72, 70
2, 81404, Note_on_c, 0, 64, 0
2, 81411, Note_on_c, 0, 72, 0
2, 81416, Note_on_c, 0, 79, 0
2, 81480, Note_on_c, 0, 80, 103
2, 81480, Note_on_c, 0, 64, 90
2, 81480, Note_on_c, 0, 72, 72
2, 81490, Control_c, 0, 64, 0
2, 81513, Control_c, 0, 64, 127
2, 81548, Note_on_c, 0, 72, 0
2, 81548, Note_on_c, 0, 64, 0
2, 81551, Note_on_c, 0, 80, 0
2, 81598, Control_c, 0, 64, 0
2, 81600, Note_on_c, 0, 80, 103
2, 81637, Control_c, 0, 64, 127
2, 81655, Note_on_c, 0, 80, 0
2, 81660, Note_on_c, 0, 81, 95
2, 81702, Control_c, 0, 64, 0
2, 81720, Note_on_c, 0, 65, 90
2, 81720, Note_on_c, 0, 72, 82
2, 81744, Control_c, 0, 64, 127
2, 81771, Note_on_c, 0, 72, 0
2, 81772, Note_on_c, 0, 65, 0
2, 81778, Note_on_c, 0, 81, 0
2, 81835, Control_c, 0, 64, 0
2, 81840, Note_on_c, 0, 79, 108
2, 81840, Note_on_c, 0, 64, 99
2, 81840, Note_on_c, 0, 72, 82
2, 81864, Control_c, 0, 64, 127
2, 81907, Note_on_c, 0, 64, 0
2, 81910, Note_on_c, 0, 72, 0
2, 81914, Note_on_c, 0, 79, 0
2, 81949, Control_c, 0, 64, 0
2, 81960, Note_on_c, 0, 79, 103
2, 82014, Note_on_c, 0, 79, 0
2, 82020, Note_on_c, 0, 77, 90
2, 82080, Note_on_c, 0, 62, 99
2, 82080, Note_on_c, 0, 71, 90
2, 82084, Control_c, 0, 64, 127
2, 82120, Note_on_c, 0, 71, 0
2, 82124, Note_on_c, 0, 62, 0
2, 82135, Note_on_c, 0, 77, 0
2, 82187, Control_c, 0, 64, 0
2, 82200, Note_on_c, 0, 64, 90
2, 82200, Note_on_c, 0, 72, 90
2, 82200, Note_on_c, 0, 76, 108
2, 82215, Control_c, 0, 64, 127
2, 82230, Note_on_c, 0, 64, 0
2, 82234, Note_on_c, 0, 72, 0
2, 82250, Note_on_c, 0, 76, 0
2, 82313, Control_c, 0, 64, 0
2, 82320, Note_on_c, 0, 67, 90
2, 82320, Note_on_c, 0, 76, 99
2, 82320, Note_on_c, 0, 72, 108
2, 82343, Control_c, 0, 64, 127
2, 82380, Note_on_c, 0, 67, 0
2, 82380, Note_on_c, 0, 55, 95
2, 82382, Note_on_c, 0, 72, 0
2, 82393, Note_on_c, 0, 76, 0
2, 82436, Note_on_c, 0, 55, 0
2, 82440, Note_on_c, 0, 74, 99
2, 82440, Note_on_c, 0, 67, 90
2, 82440, Note_on_c, 0, 71, 103
2, 82445, Control_c, 0, 64, 0
2, 82475, Control_c, 0, 64, 127
2, 82500, Note_on_c, 0, 65, 86
2, 82503, Note_on_c, 0, 67, 0
2, 82524, Note_on_c, 0, 71, 0
2, 82525, Note_on_c, 0, 74, 0
2, 82556, Note_on_c, 0, 65, 0
2, 82560, Note_on_c, 0, 64, 99
2, 82568, Control_c, 0, 64, 0
2, 82602, Control_c, 0, 64, 127
2, 82614, Note_on_c, 0, 64, 0
2, 82620, Note_on_c, 0, 62, 99
2, 82670, Control_c, 0, 64, 0
2, 82673, Note_on_c, 0, 62, 0
2, 82680, Note_on_c, 0, 60, 90
2, 82680, Note_on_c, 0, 72, 99
2, 82702, Control_c, 0, 64, 127
2, 82735, Note_on_c, 0, 72, 0
2, 82747, Note_on_c, 0, 60, 0
2, 82800, Note_on_c, 0, 76, 103
2, 82800, Note_on_c, 0, 72, 99
2, 82801, Control_c, 0, 64, 0
2, 82827, Control_c, 0, 64, 127
2, 82870, Note_on_c, 0, 72, 0
2, 82876, Note_on_c, 0, 76, 0
2, 82920, Note_on_c, 0, 76, 108
2, 82920, Note_on_c, 0, 72, 95
2, 82950, Note_on_c, 0, 76, 0
2, 82961, Note_on_c, 0, 72, 0
2, 83040, Control_c, 0, 64, 0
2, 83040, Note_on_c, 0, 71, 90
2, 83040, Note_on_c, 0, 74, 103
2, 83073, Control_c, 0, 64, 127
2, 83097, Note_on_c, 0, 74, 0
2, 83100, Note_on_c, 0, 76, 99
2, 83128, Note_on_c, 0, 76, 0
2, 83130, Note_on_c, 0, 78, 74
2, 83151, Note_on_c, 0, 78, 0
2, 83160, Note_on_c, 0, 79, 103
2, 83166, Control_c, 0, 64, 0
2, 83188, Note_on_c, 0, 79, 0
2, 83190, Note_on_c, 0, 81, 86
2, 83206, Control_c, 0, 64, 127
2, 83215, Note_on_c, 0, 81, 0
2, 83220, Note_on_c, 0, 83, 95
2, 83242, Note_on_c, 0, 83, 0
2, 83250, Note_on_c, 0, 84, 86
2, 83273, Note_on_c, 0, 84, 0
2, 83280, Note_on_c, 0, 86, 108
2, 83281, Note_on_c, 0, 71, 0
2, 83281, Control_c, 0, 64, 0
2, 83324, Control_c, 0, 64, 127
2, 83327, Note_on_c, 0, 86, 0
2, 83340, Note_on_c, 0, 86, 99
2, 83382, Note_on_c, 0, 86, 0
2, 83400, Note_on_c, 0, 69, 95
2, 83400, Note_on_c, 0, 84, 103
2, 83421, Control_c, 0, 64, 127
2, 83425, Note_on_c, 0, 84, 0
2, 83430, Note_on_c, 0, 86, 99
2, 83450, Note_on_c, 0, 86, 0
2, 83460, Note_on_c, 0, 88, 99
2, 83480, Note_on_c, 0, 88, 0
2, 83490, Note_on_c, 0, 86, 99
2, 83509, Note_on_c, 0, 86, 0
2, 83516, Control_c, 0, 64, 0
2, 83520, Note_on_c, 0, 84, 103
2, 83550, Note_on_c, 0, 83, 99
2, 83550, Control_c, 0, 64, 127
2, 83552, Note_on_c, 0, 84, 0
2, 83580, Note_on_c, 0, 81, 99
2, 83583, Note_on_c, 0, 83, 0
2, 83601, Note_on_c, 0, 81, 0
2, 83610, Note_on_c, 0, 79, 90
2, 83612, Note_on_c, 0, 69, 0
2, 83631, Note_on_c, 0, 79, 0
2, 83634, Control_c, 0, 64, 0
2, 83640, Note_on_c, 0, 81, 86
2, 83670, Note_on_c, 0, 79, 86
2, 83676, Note_on_c, 0, 81, 0
2, 83700, Note_on_c, 0, 78, 72
2, 83701, Note_on_c, 0, 79, 0
2, 83713, Control_c, 0, 64, 127
2, 83727, Note_on_c, 0, 78, 0
2, 83730, Note_on_c, 0, 76, 86
2, 83752, Note_on_c, 0, 76, 0
2, 83755, Control_c, 0, 64, 0
2, 83760, Note_on_c, 0, 66, 90
2, 83760, Note_on_c, 0, 78, 90
2, 83760, Note_on_c, 0, 86, 108
2, 83790, Note_on_c, 0, 62, 82
2, 83791, Note_on_c, 0, 66, 0
2, 83820, Note_on_c, 0, 64, 95
2, 83826, Note_on_c, 0, 62, 0
2, 83850, Note_on_c, 0, 66, 74
2, 83853, Note_on_c, 0, 64, 0
2, 83880, Note_on_c, 0, 67, 99
2, 83883, Note_on_c, 0, 66, 0
2, 83910, Note_on_c, 0, 69, 63
2, 83914, Note_on_c, 0, 67, 0
2, 83940, Note_on_c, 0, 71, 82
2, 83943, Note_on_c, 0, 69, 0
2, 83970, Note_on_c, 0, 72, 78
2, 83971, Note_on_c, 0, 71, 0
2, 84000, Note_on_c, 0, 74, 82
2, 84001, Note_on_c, 0, 72, 0
2, 84030, Note_on_c, 0, 74, 0
2, 84030, Note_on_c, 0, 72, 90
2, 84060, Note_on_c, 0, 71, 95
2, 84065, Note_on_c, 0, 72, 0
2, 84086, Note_on_c, 0, 71, 0
2, 84090, Note_on_c, 0, 69, 70
2, 84110, Note_on_c, 0, 78, 0
2, 84113, Note_on_c, 0, 69, 0
2, 84114, Note_on_c, 0, 86, 0
2, 84120, Note_on_c, 0, 67, 86
2, 84120, Note_on_c, 0, 83, 90
2, 84148, Note_on_c, 0, 83, 0
2, 84150, Note_on_c, 0, 79, 78
2, 84180, Note_on_c, 0, 79, 0
2, 84180, Note_on_c, 0, 81, 95
2, 84206, Note_on_c, 0, 81, 0
2, 84210, Note_on_c, 0, 83, 90
2, 84236, Note_on_c, 0, 83, 0
2, 84238, Note_on_c, 0, 67, 0
2, 84240, Note_on_c, 0, 84, 86
2, 84240, Note_on_c, 0, 69, 86
2, 84270, Note_on_c, 0, 81, 95
2, 84272, Note_on_c, 0, 84, 0
2, 84295, Note_on_c, 0, 81, 0
2, 84300, Note_on_c, 0, 83, 103
2, 84320, Note_on_c, 0, 83, 0
2, 84330, Note_on_c, 0, 84, 99
2, 84352, Note_on_c, 0, 69, 0
2, 84353, Note_on_c, 0, 84, 0
2, 84360, Note_on_c, 0, 86, 99
2, 84360, Note_on_c, 0, 71, 103
2, 84387, Note_on_c, 0, 86, 0
2, 84390, Note_on_c, 0, 83, 108
2, 84411, Note_on_c, 0, 83, 0
2, 84420, Note_on_c, 0, 84, 90
2, 84441, Note_on_c, 0, 84, 0
2, 84450, Note_on_c, 0, 86, 103
2, 84472, Note_on_c, 0, 86, 0
2, 84480, Note_on_c, 0, 88, 99
2, 84480, Note_on_c, 0, 72, 99
2, 84482, Note_on_c, 0, 71, 0
2, 84510, Note_on_c, 0, 84, 99
2, 84516, Note_on_c, 0, 88, 0
2, 84540, Note_on_c, 0, 83, 86
2, 84546, Note_on_c, 0, 84, 0
2, 84564, Note_on_c, 0, 83, 0
2, 84568, Control_c, 0, 64, 127
2, 84570, Note_on_c, 0, 81, 108
2, 84594, Note_on_c, 0, 81, 0
2, 84599, Note_on_c, 0, 72, 0
2, 84600, Note_on_c, 0, 79, 90
2, 84600, Note_on_c, 0, 74, 99
2, 84603, Control_c, 0, 64, 0
2, 84633, Control_c, 0, 64, 127
2, 84679, Note_on_c, 0, 74, 0
2, 84699, Note_on_c, 0, 79, 0
2, 84720, Note_on_c, 0, 74, 86
2, 84720, Note_on_c, 0, 72, 74
2, 84720, Note_on_c, 0, 83, 108
2, 84730, Control_c, 0, 64, 0
2, 84750, Note_on_c, 0, 81, 86
2, 84751, Note_on_c, 0, 83, 0
2, 84769, Control_c, 0, 64, 127
2, 84780, Note_on_c, 0, 79, 95
2, 84781, Note_on_c, 0, 81, 0
2, 84803, Note_on_c, 0, 79, 0
2, 84810, Note_on_c, 0, 81, 103
2, 84812, Note_on_c, 0, 74, 0
2, 84815, Note_on_c, 0, 72, 0
2, 84828, Note_on_c, 0, 81, 0
2, 84840, Note_on_c, 0, 81, 99
2, 84840, Note_on_c, 0, 71, 74
2, 84840, Note_on_c, 0, 74, 72
2, 84848, Control_c, 0, 64, 0
2, 84900, Note_on_c, 0, 79, 90
2, 84904, Note_on_c, 0, 81, 0
2, 84969, Control_c, 0, 64, 127
2, 85204, Note_on_c, 0, 79, 0
2, 85205, Note_on_c, 0, 74, 0
2, 85207, Note_on_c, 0, 71, 0
2, 85920, Note_on_c, 0, 72, 99
2, 85920, Note_on_c, 0, 67, 103
2, 85937, Control_c, 0, 64, 127
2, 85978, Note_on_c, 0, 72, 0
2, 85980, Note_on_c, 0, 76, 99
2, 86003, Note_on_c, 0, 76, 0
2, 86010, Note_on_c, 0, 79, 95
2, 86028, Note_on_c, 0, 79, 0
2, 86040, Note_on_c, 0, 84, 99
2, 86060, Note_on_c, 0, 84, 0
2, 86100, Note_on_c, 0, 84, 99
2, 86120, Note_on_c, 0, 84, 0
2, 86141, Note_on_c, 0, 67, 0
2, 86157, Control_c, 0, 64, 0
2, 86160, Note_on_c, 0, 84, 99
2, 86160, Note_on_c, 0, 64, 86
2, 86184, Control_c, 0, 64, 127
2, 86207, Note_on_c, 0, 84, 0
2, 86220, Note_on_c, 0, 82, 90
2, 86220, Note_on_c, 0, 79, 103
2, 86237, Note_on_c, 0, 79, 0
2, 86247, Note_on_c, 0, 82, 0
2, 86256, Note_on_c, 0, 64, 0
2, 86280, Note_on_c, 0, 65, 82
2, 86280, Note_on_c, 0, 81, 99
2, 86280, Note_on_c, 0, 77, 99
2, 86281, Control_c, 0, 64, 0
2, 86316, Control_c, 0, 64, 127
2, 86330, Note_on_c, 0, 77, 0
2, 86338, Note_on_c, 0, 81, 0
2, 86340, Note_on_c, 0, 79, 99
2, 86340, Note_on_c, 0, 76, 99
2, 86358, Note_on_c, 0, 79, 0
2, 86362, Note_on_c, 0, 76, 0
2, 86400, Note_on_c, 0, 77, 90
2, 86400, Note_on_c, 0, 74, 99
2, 86402, Control_c, 0, 64, 0
2, 86431, Control_c, 0, 64, 127
2, 86442, Note_on_c, 0, 74, 0
2, 86449, Note_on_c, 0, 77, 0
2, 86460, Note_on_c, 0, 76, 99
2, 86460, Note_on_c, 0, 72, 103
2, 86472, Note_on_c, 0, 65, 0
2, 86484, Note_on_c, 0, 72, 0
2, 86491, Note_on_c, 0, 76, 0
2, 86520, Control_c, 0, 64, 0
2, 86520, Note_on_c, 0, 66, 86
2, 86520, Note_on_c, 0, 74, 99
2, 86520, Note_on_c, 0, 71, 99
2, 86554, Note_on_c, 0, 71, 0
2, 86554, Control_c, 0, 64, 127
2, 86569, Note_on_c, 0, 74, 0
2, 86580, Note_on_c, 0, 76, 103
2, 86580, Note_on_c, 0, 72, 95
2, 86597, Note_on_c, 0, 66, 0
2, 86600, Note_on_c, 0, 76, 0
2, 86603, Note_on_c, 0, 72, 0
2, 86640, Note_on_c, 0, 72, 103
2, 86640, Note_on_c, 0, 76, 99
2, 86640, Note_on_c, 0, 67, 99
2, 86643, Control_c, 0, 64, 0
2, 86672, Control_c, 0, 64, 127
2, 86702, Note_on_c, 0, 67, 0
2, 86707, Note_on_c, 0, 76, 0
2, 86709, Note_on_c, 0, 72, 0
2, 86760, Note_on_c, 0, 67, 86
2, 86760, Note_on_c, 0, 71, 95
2, 86760, Note_on_c, 0, 74, 99
2, 86768, Control_c, 0, 64, 0
2, 86792, Control_c, 0, 64, 127
2, 86827, Note_on_c, 0, 71, 0
2, 86827, Note_on_c, 0, 67, 0
2, 86832, Note_on_c, 0, 74, 0
2, 86894, Control_c, 0, 64, 0
2, 87000, Note_on_c, 0, 67, 74
2, 87000, Note_on_c, 0, 79, 108
2, 87026, Control_c, 0, 64, 127
2, 87057, Note_on_c, 0, 67, 0
2, 87060, Note_on_c, 0, 72, 90
2, 87086, Note_on_c, 0, 79, 0
2, 87110, Note_on_c, 0, 72, 0
2, 87120, Note_on_c, 0, 84, 108
2, 87120, Note_on_c, 0, 67, 74
2, 87174, Note_on_c, 0, 67, 0
2, 87180, Note_on_c, 0, 72, 78
2, 87204, Note_on_c, 0, 84, 0
2, 87227, Note_on_c, 0, 72, 0
2, 87240, Note_on_c, 0, 67, 86
2, 87240, Note_on_c, 0, 84, 112
2, 87289, Note_on_c, 0, 67, 0
2, 87300, Note_on_c, 0, 72, 70
2, 87318, Note_on_c, 0, 84, 0
2, 87330, Note_on_c, 0, 72, 0
2, 87360, Note_on_c, 0, 67, 74
2, 87360, Note_on_c, 0, 84, 103
2, 87363, Control_c, 0, 64, 0
2, 87393, Control_c, 0, 64, 127
2, 87412, Note_on_c, 0, 84, 0
2, 87412, Note_on_c, 0, 67, 0
2, 87420, Note_on_c, 0, 83, 99
2, 87420, Note_on_c, 0, 71, 86
2, 87463, Note_on_c, 0, 71, 0
2, 87466, Note_on_c, 0, 83, 0
2, 87480, Control_c, 0, 64, 0
2, 87480, Note_on_c, 0, 67, 86
2, 87480, Note_on_c, 0, 81, 90
2, 87508, Control_c, 0, 64, 127
2, 87534, Note_on_c, 0, 81, 0
2, 87534, Note_on_c, 0, 67, 0
2, 87540, Note_on_c, 0, 79, 103
2, 87540, Note_on_c, 0, 71, 86
2, 87563, Note_on_c, 0, 71, 0
2, 87569, Note_on_c, 0, 79, 0
2, 87600, Note_on_c, 0, 67, 90
2, 87600, Note_on_c, 0, 79, 103
2, 87602, Control_c, 0, 64, 0
2, 87632, Control_c, 0, 64, 127
2, 87657, Note_on_c, 0, 67, 0
2, 87660, Note_on_c, 0, 71, 90
2, 87673, Note_on_c, 0, 79, 0
2, 87686, Note_on_c, 0, 71, 0
2, 87720, Note_on_c, 0, 79, 112
2, 87720, Note_on_c, 0, 67, 82
2, 87724, Control_c, 0, 64, 0
2, 87754, Control_c, 0, 64, 127
2, 87773, Note_on_c, 0, 67, 0
2, 87780, Note_on_c, 0, 72, 82
2, 87797, Note_on_c, 0, 79, 0
2, 87827, Note_on_c, 0, 72, 0
2, 87840, Note_on_c, 0, 67, 86
2, 87840, Note_on_c, 0, 84, 103
2, 87844, Control_c, 0, 64, 0
2, 87871, Control_c, 0, 64, 127
2, 87889, Note_on_c, 0, 84, 0
2, 87891, Note_on_c, 0, 67, 0
2, 87900, Note_on_c, 0, 72, 82
2, 87900, Note_on_c, 0, 88, 103
2, 87924, Note_on_c, 0, 88, 0
2, 87935, Note_on_c, 0, 72, 0
2, 87960, Note_on_c, 0, 67, 86
2, 87960, Note_on_c, 0, 86, 108
2, 87961, Control_c, 0, 64, 0
2, 87979, Control_c, 0, 64, 127
2, 88017, Note_on_c, 0, 67, 0
2, 88018, Note_on_c, 0, 86, 0
2, 88020, Note_on_c, 0, 72, 90
2, 88020, Note_on_c, 0, 84, 103
2, 88038, Note_on_c, 0, 84, 0
2, 88046, Note_on_c, 0, 72, 0
2, 88078, Control_c, 0, 64, 0
2, 88080, Note_on_c, 0, 67, 82
2, 88080, Note_on_c, 0, 84, 108
2, 88108, Control_c, 0, 64, 127
2, 88135, Note_on_c, 0, 84, 0
2, 88137, Note_on_c, 0, 67, 0
2, 88140, Note_on_c, 0, 83, 99
2, 88140, Note_on_c, 0, 71, 86
2, 88177, Note_on_c, 0, 71, 0
2, 88186, Note_on_c, 0, 83, 0
2, 88200, Note_on_c, 0, 67, 82
2, 88200, Note_on_c, 0, 81, 99
2, 88201, Control_c, 0, 64, 0
2, 88229, Control_c, 0, 64, 127
2, 88250, Note_on_c, 0, 81, 0
2, 88253, Note_on_c, 0, 67, 0
2, 88260, Note_on_c, 0, 79, 108
2, 88260, Note_on_c, 0, 71, 86
2, 88283, Note_on_c, 0, 71, 0
2, 88284, Note_on_c, 0, 79, 0
2, 88315, Control_c, 0, 64, 0
2, 88320, Note_on_c, 0, 67, 82
2, 88320, Note_on_c, 0, 79, 117
2, 88343, Control_c, 0, 64, 127
2, 88380, Note_on_c, 0, 71, 95
2, 88381, Note_on_c, 0, 67, 0
2, 88399, Note_on_c, 0, 79, 0
2, 88407, Note_on_c, 0, 71, 0
2, 88440, Note_on_c, 0, 79, 123
2, 88443, Control_c, 0, 64, 0
2, 88471, Control_c, 0, 64, 127
2, 88526, Note_on_c, 0, 79, 0
2, 88558, Control_c, 0, 64, 0
2, 88560, Note_on_c, 0, 64, 99
2, 88560, Note_on_c, 0, 84, 103
2, 88560, Note_on_c, 0, 72, 90
2, 88583, Control_c, 0, 64, 127
2, 88616, Note_on_c, 0, 64, 0
2, 88620, Note_on_c, 0, 72, 0
2, 88631, Note_on_c, 0, 84, 0
2, 88680, Note_on_c, 0, 83, 112
2, 88680, Note_on_c, 0, 64, 99
2, 88680, Note_on_c, 0, 72, 82
2, 88686, Control_c, 0, 64, 0
2, 88711, Control_c, 0, 64, 127
2, 88752, Note_on_c, 0, 72, 0
2, 88754, Note_on_c, 0, 64, 0
2, 88770, Note_on_c, 0, 83, 0
2, 88793, Control_c, 0, 64, 0
2, 88800, Note_on_c, 0, 83, 108
2, 88822, Control_c, 0, 64, 127
2, 88851, Note_on_c, 0, 83, 0
2, 88860, Note_on_c, 0, 81, 108
2, 88899, Control_c, 0, 64, 0
2, 88920, Note_on_c, 0, 65, 90
2, 88920, Note_on_c, 0, 72, 86
2, 88928, Control_c, 0, 64, 127
2, 88964, Note_on_c, 0, 72, 0
2, 88965, Note_on_c, 0, 65, 0
2, 88967, Note_on_c, 0, 81, 0
2, 89040, Control_c, 0, 64, 0
2, 89040, Note_on_c, 0, 79, 108
2, 89040, Note_on_c, 0, 64, 95
2, 89040, Note_on_c, 0, 72, 86
2, 89066, Control_c, 0, 64, 127
2, 89083, Note_on_c, 0, 79, 0
2, 89099, Note_on_c, 0, 64, 0
2, 89100, Note_on_c, 0, 72, 0
2, 89147, Control_c, 0, 64, 0
2, 89160, Note_on_c, 0, 79, 112
2, 89179, Control_c, 0, 64, 127
2, 89214, Note_on_c, 0, 79, 0
2, 89220, Note_on_c, 0, 77, 103
2, 89241, Control_c, 0, 64, 0
2, 89280, Note_on_c, 0, 62, 99
2, 89280, Note_on_c, 0, 71, 86
2, 89280, Control_c, 0, 64, 127
2, 89314, Note_on_c, 0, 62, 0
2, 89318, Note_on_c, 0, 77, 0
2, 89319, Note_on_c, 0, 71, 0
2, 89393, Control_c, 0, 64, 0
2, 89400, Note_on_c, 0, 60, 72
2, 89400, Note_on_c, 0, 76, 99
2, 89400, Note_on_c, 0, 72, 90
2, 89420, Control_c, 0, 64, 127
2, 89460, Note_on_c, 0, 72, 0
2, 89464, Note_on_c, 0, 60, 0
2, 89475, Note_on_c, 0, 76, 0
2, 89520, Note_on_c, 0, 65, 82
2, 89520, Note_on_c, 0, 76, 90
2, 89529, Control_c, 0, 64, 0
2, 89550, Note_on_c, 0, 74, 82
2, 89560, Note_on_c, 0, 76, 0
2, 89579, Note_on_c, 0, 74, 0
2, 89580, Note_on_c, 0, 77, 86
2, 89610, Note_on_c, 0, 74, 99
2, 89613, Control_c, 0, 64, 127
2, 89614, Note_on_c, 0, 77, 0
2, 89631, Note_on_c, 0, 74, 0
2, 89640, Note_on_c, 0, 72, 103
2, 89640, Note_on_c, 0, 67, 86
2, 89644, Note_on_c, 0, 65, 0
2, 89645, Control_c, 0, 64, 0
2, 89674, Control_c, 0, 64, 127
2, 89702, Note_on_c, 0, 67, 0
2, 89708, Note_on_c, 0, 72, 0
2, 89758, Control_c, 0, 64, 0
2, 89760, Note_on_c, 0, 65, 72
2, 89760, Note_on_c, 0, 67, 86
2, 89760, Note_on_c, 0, 71, 108
2, 89782, Control_c, 0, 64, 127
2, 89815, Note_on_c, 0, 67, 0
2, 89819, Note_on_c, 0, 65, 0
2, 89821, Note_on_c, 0, 71, 0
2, 89882, Note_on_c, 0, 71, 103
2, 89883, Control_c, 0, 64, 0
2, 89883, Note_on_c, 0, 67, 78
2, 89885, Note_on_c, 0, 64, 78
2, 89914, Control_c, 0, 64, 127
2, 89946, Note_on_c, 0, 71, 0
2, 89948, Note_on_c, 0, 72, 103
2, 89961, Control_c, 0, 64, 0
2, 90004, Control_c, 0, 64, 127
2, 90235, Control_c, 0, 64, 0
2, 90239, Note_on_c, 0, 72, 0
2, 90240, Control_c, 0, 7, 121
2, 90241, Note_on_c, 0, 67, 0
2, 90243, Note_on_c, 0, 64, 0
2, 90600, Note_on_c, 0, 64, 82
2, 90600, Note_on_c, 0, 79, 112
2, 90605, Control_c, 0, 64, 127
2, 90626, Note_on_c, 0, 79, 0
2, 90630, Note_on_c, 0, 76, 86
2, 90642, Note_on_c, 0, 76, 0
2, 90655, Note_on_c, 0, 64, 0
2, 90660, Note_on_c, 0, 79, 99
2, 90660, Note_on_c, 0, 67, 90
2, 90677, Note_on_c, 0, 79, 0
2, 90690, Note_on_c, 0, 76, 99
2, 90699, Note_on_c, 0, 76, 0
2, 90699, Note_on_c, 0, 67, 0
2, 90713, Control_c, 0, 64, 0
2, 90720, Note_on_c, 0, 64, 90
2, 90720, Note_on_c, 0, 72, 112
2, 90732, Note_on_c, 0, 72, 0
2, 90779, Note_on_c, 0, 64, 0
2, 90780, Note_on_c, 0, 67, 86
2, 90780, Note_on_c, 0, 72, 117
2, 90792, Note_on_c, 0, 72, 0
2, 90840, Note_on_c, 0, 65, 82
2, 90840, Note_on_c, 0, 77, 112
2, 90842, Note_on_c, 0, 67, 0
2, 90861, Note_on_c, 0, 77, 0
2, 90870, Note_on_c, 0, 74, 90
2, 90883, Note_on_c, 0, 74, 0
2, 90900, Note_on_c, 0, 65, 0
2, 90900, Note_on_c, 0, 67, 90
2, 90900, Note_on_c, 0, 77, 108
2, 90915, Note_on_c, 0, 77, 0
2, 90930, Note_on_c, 0, 74, 86
2, 90941, Note_on_c, 0, 74, 0
2, 90960, Note_on_c, 0, 67, 0
2, 90960, Note_on_c, 0, 65, 90
2, 90960, Note_on_c, 0, 71, 112
2, 90971, Note_on_c, 0, 71, 0
2, 91020, Note_on_c, 0, 71, 123
2, 91020, Note_on_c, 0, 67, 86
2, 91021, Note_on_c, 0, 65, 0
2, 91031, Note_on_c, 0, 71, 0
2, 91080, Note_on_c, 0, 64, 95
2, 91080, Note_on_c, 0, 72, 108
2, 91081, Note_on_c, 0, 67, 0
2, 91089, Control_c, 0, 64, 127
2, 91100, Note_on_c, 0, 72, 0
2, 91110, Note_on_c, 0, 74, 99
2, 91126, Note_on_c, 0, 74, 0
2, 91132, Control_c, 0, 64, 0
2, 91139, Note_on_c, 0, 64, 0
2, 91140, Note_on_c, 0, 76, 103
2, 91140, Note_on_c, 0, 67, 90
2, 91161, Note_on_c, 0, 76, 0
2, 91170, Note_on_c, 0, 77, 117
2, 91184, Note_on_c, 0, 77, 0
2, 91200, Note_on_c, 0, 64, 99
2, 91200, Note_on_c, 0, 79, 108
2, 91201, Note_on_c, 0, 67, 0
2, 91211, Control_c, 0, 64, 127
2, 91216, Note_on_c, 0, 79, 0
2, 91230, Note_on_c, 0, 81, 103
2, 91244, Note_on_c, 0, 81, 0
2, 91260, Note_on_c, 0, 83, 108
2, 91260, Note_on_c, 0, 67, 99
2, 91262, Note_on_c, 0, 64, 0
2, 91276, Note_on_c, 0, 83, 0
2, 91290, Note_on_c, 0, 84, 103
2, 91302, Note_on_c, 0, 84, 0
2, 91309, Note_on_c, 0, 67, 0
2, 91314, Control_c, 0, 64, 0
2, 91320, Note_on_c, 0, 65, 95
2, 91320, Note_on_c, 0, 84, 117
2, 91336, Note_on_c, 0, 84, 0
2, 91338, Control_c, 0, 64, 127
2, 91350, Note_on_c, 0, 83, 99
2, 91365, Note_on_c, 0, 83, 0
2, 91378, Control_c, 0, 64, 0
2, 91380, Note_on_c, 0, 81, 108
2, 91380, Note_on_c, 0, 67, 86
2, 91383, Note_on_c, 0, 65, 0
2, 91396, Control_c, 0, 64, 127
2, 91409, Note_on_c, 0, 81, 0
2, 91410, Note_on_c, 0, 79, 103
2, 91420, Note_on_c, 0, 79, 0
2, 91437, Note_on_c, 0, 67, 0
2, 91437, Control_c, 0, 64, 0
2, 91440, Note_on_c, 0, 65, 90
2, 91440, Note_on_c, 0, 79, 123
2, 91457, Note_on_c, 0, 79, 0
2, 91460, Control_c, 0, 64, 127
2, 91470, Note_on_c, 0, 77, 108
2, 91483, Note_on_c, 0, 77, 0
2, 91500, Control_c, 0, 64, 0
2, 91500, Note_on_c, 0, 67, 90
2, 91500, Note_on_c, 0, 76, 123
2, 91502, Note_on_c, 0, 65, 0
2, 91515, Note_on_c, 0, 76, 0
2, 91519, Control_c, 0, 64, 127
2, 91530, Note_on_c, 0, 74, 108
2, 91542, Note_on_c, 0, 74, 0
2, 91555, Control_c, 0, 64, 0
2, 91557, Note_on_c, 0, 67, 0
2, 91560, Note_on_c, 0, 64, 86
2, 91560, Note_on_c, 0, 79, 108
2, 91576, Note_on_c, 0, 79, 0
2, 91579, Control_c, 0, 64, 127
2, 91590, Note_on_c, 0, 76, 99
2, 91602, Note_on_c, 0, 76, 0
2, 91616, Note_on_c, 0, 64, 0
2, 91616, Control_c, 0, 64, 0
2, 91620, Note_on_c, 0, 67, 78
2, 91620, Note_on_c, 0, 79, 99
2, 91636, Control_c, 0, 64, 127
2, 91639, Note_on_c, 0, 79, 0
2, 91650, Note_on_c, 0, 76, 99
2, 91660, Note_on_c, 0, 76, 0
2, 91678, Control_c, 0, 64, 0
2, 91680, Note_on_c, 0, 67, 0
2, 91680, Note_on_c, 0, 64, 90
2, 91680, Note_on_c, 0, 72, 117
2, 91692, Note_on_c, 0, 72, 0
2, 91740, Note_on_c, 0, 67, 86
2, 91740, Note_on_c, 0, 72, 117
2, 91741, Note_on_c, 0, 64, 0
2, 91752, Note_on_c, 0, 72, 0
2, 91800, Note_on_c, 0, 65, 86
2, 91800, Note_on_c, 0, 77, 117
2, 91804, Note_on_c, 0, 67, 0
2, 91813, Control_c, 0, 64, 127
2, 91819, Note_on_c, 0, 77, 0
2, 91830, Note_on_c, 0, 74, 99
2, 91842, Note_on_c, 0, 74, 0
2, 91860, Note_on_c, 0, 65, 0
2, 91860, Note_on_c, 0, 77, 103
2, 91860, Note_on_c, 0, 67, 86
2, 91861, Control_c, 0, 64, 0
2, 91882, Control_c, 0, 64, 127
2, 91883, Note_on_c, 0, 77, 0
2, 91890, Note_on_c, 0, 74, 99
2, 91900, Note_on_c, 0, 74, 0
2, 91918, Control_c, 0, 64, 0
2, 91920, Note_on_c, 0, 65, 86
2, 91920, Note_on_c, 0, 71, 123
2, 91922, Note_on_c, 0, 67, 0
2, 91931, Note_on_c, 0, 71, 0
2, 91980, Note_on_c, 0, 65, 0
2, 91980, Note_on_c, 0, 71, 123
2, 91980, Note_on_c, 0, 67, 90
2, 91992, Note_on_c, 0, 71, 0
2, 92040, Note_on_c, 0, 64, 82
2, 92040, Note_on_c, 0, 72, 123
2, 92042, Note_on_c, 0, 67, 0
2, 92049, Control_c, 0, 64, 127
2, 92056, Note_on_c, 0, 72, 0
2, 92070, Note_on_c, 0, 74, 90
2, 92086, Note_on_c, 0, 74, 0
2, 92092, Control_c, 0, 64, 0
2, 92100, Note_on_c, 0, 64, 0
2, 92100, Note_on_c, 0, 76, 103
2, 92100, Note_on_c, 0, 67, 95
2, 92119, Note_on_c, 0, 76, 0
2, 92124, Control_c, 0, 64, 127
2, 92130, Note_on_c, 0, 77, 90
2, 92145, Note_on_c, 0, 77, 0
2, 92154, Note_on_c, 0, 67, 0
2, 92157, Control_c, 0, 64, 0
2, 92160, Note_on_c, 0, 64, 86
2, 92160, Note_on_c, 0, 79, 123
2, 92175, Note_on_c, 0, 79, 0
2, 92182, Control_c, 0, 64, 127
2, 92190, Note_on_c, 0, 81, 103
2, 92202, Note_on_c, 0, 81, 0
2, 92220, Note_on_c, 0, 67, 86
2, 92220, Note_on_c, 0, 83, 108
2, 92221, Control_c, 0, 64, 0
2, 92225, Note_on_c, 0, 64, 0
2, 92240, Control_c, 0, 64, 127
2, 92245, Note_on_c, 0, 83, 0
2, 92250, Note_on_c, 0, 84, 99
2, 92262, Note_on_c, 0, 84, 0
2, 92277, Note_on_c, 0, 67, 0
2, 92280, Note_on_c, 0, 79, 117
2, 92280, Note_on_c, 0, 65, 90
2, 92283, Control_c, 0, 64, 0
2, 92304, Note_on_c, 0, 79, 0
2, 92307, Control_c, 0, 64, 127
2, 92310, Note_on_c, 0, 77, 95
2, 92322, Note_on_c, 0, 77, 0
2, 92340, Note_on_c, 0, 67, 86
2, 92340, Note_on_c, 0, 76, 112
2, 92341, Note_on_c, 0, 65, 0
2, 92341, Control_c, 0, 64, 0
2, 92358, Control_c, 0, 64, 127
2, 92366, Note_on_c, 0, 76, 0
2, 92370, Note_on_c, 0, 74, 99
2, 92384, Note_on_c, 0, 74, 0
2, 92384, Note_on_c, 0, 67, 0
2, 92399, Control_c, 0, 64, 0
2, 92400, Note_on_c, 0, 72, 112
2, 92400, Note_on_c, 0, 64, 90
2, 92422, Control_c, 0, 64, 127
2, 92434, Note_on_c, 0, 72, 0
2, 92444, Note_on_c, 0, 64, 0
2, 92492, Control_c, 0, 64, 0
2, 92520, Note_on_c, 0, 77, 99
2, 92520, Note_on_c, 0, 65, 72
2, 92529, Control_c, 0, 64, 127
2, 92540, Note_on_c, 0, 77, 0
2, 92550, Note_on_c, 0, 74, 74
2, 92565, Note_on_c, 0, 74, 0
2, 92580, Note_on_c, 0, 77, 86
2, 92580, Note_on_c, 0, 67, 74
2, 92581, Note_on_c, 0, 65, 0
2, 92582, Control_c, 0, 64, 0
2, 92600, Control_c, 0, 64, 127
2, 92605, Note_on_c, 0, 77, 0
2, 92610, Note_on_c, 0, 74, 86
2, 92621, Note_on_c, 0, 74, 0
2, 92637, Control_c, 0, 64, 0
2, 92640, Note_on_c, 0, 67, 0
2, 92640, Note_on_c, 0, 71, 90
2, 92640, Note_on_c, 0, 65, 72
2, 92652, Note_on_c, 0, 71, 0
2, 92699, Note_on_c, 0, 65, 0
2, 92700, Note_on_c, 0, 67, 74
2, 92700, Note_on_c, 0, 71, 103
2, 92703, Control_c, 0, 64, 127
2, 92712, Note_on_c, 0, 71, 0
2, 92726, Control_c, 0, 64, 0
2, 92756, Note_on_c, 0, 67, 0
2, 92760, Note_on_c, 0, 64, 78
2, 92760, Note_on_c, 0, 72, 103
2, 92770, Control_c, 0, 64, 127
2, 92788, Note_on_c, 0, 72, 0
2, 92790, Note_on_c, 0, 74, 99
2, 92814, Note_on_c, 0, 74, 0
2, 92814, Control_c, 0, 64, 0
2, 92818, Note_on_c, 0, 64, 0
2, 92820, Note_on_c, 0, 76, 103
2, 92820, Note_on_c, 0, 67, 90
2, 92836, Control_c, 0, 64, 127
2, 92849, Note_on_c, 0, 76, 0
2, 92850, Note_on_c, 0, 77, 99
2, 92865, Note_on_c, 0, 77, 0
2, 92877, Control_c, 0, 64, 0
2, 92879, Note_on_c, 0, 67, 0
2, 92880, Note_on_c, 0, 79, 112
2, 92880, Note_on_c, 0, 64, 95
2, 92894, Control_c, 0, 64, 127
2, 92903, Note_on_c, 0, 79, 0
2, 92910, Note_on_c, 0, 81, 99
2, 92927, Note_on_c, 0, 81, 0
2, 92938, Control_c, 0, 64, 0
2, 92940, Note_on_c, 0, 64, 0
2, 92940, Note_on_c, 0, 83, 117
2, 92940, Note_on_c, 0, 67, 103
2, 92954, Control_c, 0, 64, 127
2, 92962, Note_on_c, 0, 83, 0
2, 92970, Note_on_c, 0, 84, 99
2, 92984, Note_on_c, 0, 84, 0
2, 92996, Control_c, 0, 64, 0
2, 92999, Note_on_c, 0, 67, 0
2, 93000, Note_on_c, 0, 65, 90
2, 93000, Note_on_c, 0, 84, 108
2, 93015, Control_c, 0, 64, 127
2, 93022, Note_on_c, 0, 84, 0
2, 93030, Note_on_c, 0, 83, 99
2, 93046, Note_on_c, 0, 83, 0
2, 93060, Control_c, 0, 64, 0
2, 93060, Note_on_c, 0, 81, 108
2, 93060, Note_on_c, 0, 67, 86
2, 93064, Note_on_c, 0, 65, 0
2, 93078, Control_c, 0, 64, 127
2, 93090, Note_on_c, 0, 79, 99
2, 93091, Note_on_c, 0, 81, 0
2, 93105, Note_on_c, 0, 79, 0
2, 93114, Note_on_c, 0, 67, 0
2, 93120, Note_on_c, 0, 81, 117
2, 93120, Note_on_c, 0, 65, 90
2, 93122, Control_c, 0, 64, 0
2, 93141, Control_c, 0, 64, 127
2, 93149, Note_on_c, 0, 81, 0
2, 93150, Note_on_c, 0, 79, 103
2, 93165, Note_on_c, 0, 79, 0
2, 93180, Control_c, 0, 64, 0
2, 93180, Note_on_c, 0, 81, 103
2, 93180, Note_on_c, 0, 67, 82
2, 93183, Note_on_c, 0, 65, 0
2, 93197, Control_c, 0, 64, 127
2, 93200, Note_on_c, 0, 81, 0
2, 93210, Note_on_c, 0, 83, 103
2, 93228, Note_on_c, 0, 83, 0
2, 93235, Control_c, 0, 64, 0
2, 93236, Note_on_c, 0, 67, 0
2, 93240, Note_on_c, 0, 64, 99
2, 93240, Note_on_c, 0, 84, 112
2, 93254, Control_c, 0, 64, 127
2, 93263, Note_on_c, 0, 84, 0
2, 93270, Note_on_c, 0, 83, 103
2, 93285, Note_on_c, 0, 83, 0
2, 93300, Control_c, 0, 64, 0
2, 93300, Note_on_c, 0, 84, 99
2, 93300, Note_on_c, 0, 67, 95
2, 93301, Note_on_c, 0, 64, 0
2, 93317, Control_c, 0, 64, 127
2, 93322, Note_on_c, 0, 84, 0
2, 93330, Note_on_c, 0, 86, 99
2, 93347, Note_on_c, 0, 86, 0
2, 93353, Note_on_c, 0, 67, 0
2, 93355, Control_c, 0, 64, 0
2, 93360, Note_on_c, 0, 64, 99
2, 93360, Note_on_c, 0, 88, 123
2, 93373, Control_c, 0, 64, 127
2, 93390, Note_on_c, 0, 88, 0
2, 93420, Note_on_c, 0, 64, 0
2, 93420, Note_on_c, 0, 67, 103
2, 93420, Note_on_c, 0, 79, 103
2, 93422, Control_c, 0, 64, 0
2, 93438, Control_c, 0, 64, 127
2, 93439, Note_on_c, 0, 79, 0
2, 93465, Note_on_c, 0, 67, 0
2, 93480, Control_c, 0, 64, 0
2, 93480, Note_on_c, 0, 77, 90
2, 93480, Note_on_c, 0, 65, 66
2, 93503, Note_on_c, 0, 77, 0
2, 93504, Control_c, 0, 64, 127
2, 93510, Note_on_c, 0, 74, 86
2, 93525, Note_on_c, 0, 74, 0
2, 93540, Note_on_c, 0, 65, 0
2, 93540, Note_on_c, 0, 67, 69
2, 93540, Note_on_c, 0, 77, 82
2, 93543, Control_c, 0, 64, 0
2, 93559, Control_c, 0, 64, 127
2, 93565, Note_on_c, 0, 77, 0
2, 93570, Note_on_c, 0, 74, 82
2, 93582, Note_on_c, 0, 74, 0
2, 93597, Note_on_c, 0, 67, 0
2, 93600, Note_on_c, 0, 65, 74
2, 93600, Note_on_c, 0, 71, 90
2, 93604, Control_c, 0, 64, 0
2, 93613, Note_on_c, 0, 71, 0
2, 93658, Control_c, 0, 64, 127
2, 93660, Note_on_c, 0, 65, 0
2, 93660, Note_on_c, 0, 71, 99
2, 93660, Note_on_c, 0, 67, 82
2, 93673, Note_on_c, 0, 71, 0
2, 93705, Control_c, 0, 64, 0
2, 93720, Note_on_c, 0, 64, 86
2, 93720, Note_on_c, 0, 72, 99
2, 93721, Note_on_c, 0, 67, 0
2, 93735, Control_c, 0, 64, 127
2, 93746, Note_on_c, 0, 72, 0
2, 93750, Note_on_c, 0, 74, 86
2, 93770, Control_c, 0, 64, 0
2, 93778, Note_on_c, 0, 74, 0
2, 93779, Note_on_c, 0, 64, 0
2, 93780, Note_on_c, 0, 67, 86
2, 93780, Note_on_c, 0, 76, 103
2, 93795, Control_c, 0, 64, 127
2, 93808, Note_on_c, 0, 76, 0
2, 93810, Note_on_c, 0, 77, 103
2, 93826, Note_on_c, 0, 77, 0
2, 93840, Note_on_c, 0, 64, 95
2, 93840, Note_on_c, 0, 79, 103
2, 93842, Note_on_c, 0, 67, 0
2, 93842, Control_c, 0, 64, 0
2, 93857, Note_on_c, 0, 79, 0
2, 93860, Control_c, 0, 64, 127
2, 93870, Note_on_c, 0, 81, 108
2, 93886, Note_on_c, 0, 81, 0
2, 93900, Note_on_c, 0, 67, 90
2, 93900, Note_on_c, 0, 83, 117
2, 93901, Note_on_c, 0, 64, 0
2, 93901, Control_c, 0, 64, 0
2, 93917, Note_on_c, 0, 83, 0
2, 93917, Control_c, 0, 64, 127
2, 93930, Note_on_c, 0, 84, 108
2, 93944, Note_on_c, 0, 84, 0
2, 93949, Note_on_c, 0, 67, 0
2, 93959, Control_c, 0, 64, 0
2, 93960, Note_on_c, 0, 65, 82
2, 93960, Note_on_c, 0, 84, 108
2, 93977, Control_c, 0, 64, 127
2, 93978, Note_on_c, 0, 84, 0
2, 93990, Note_on_c, 0, 83, 99
2, 94006, Note_on_c, 0, 83, 0
2, 94018, Control_c, 0, 64, 0
2, 94020, Note_on_c, 0, 81, 108
2, 94020, Note_on_c, 0, 67, 90
2, 94023, Note_on_c, 0, 65, 0
2, 94035, Control_c, 0, 64, 127
2, 94050, Note_on_c, 0, 79, 103
2, 94054, Note_on_c, 0, 81, 0
2, 94062, Note_on_c, 0, 79, 0
2, 94077, Note_on_c, 0, 67, 0
2, 94077, Control_c, 0, 64, 0
2, 94080, Note_on_c, 0, 79, 108
2, 94080, Note_on_c, 0, 65, 86
2, 94094, Control_c, 0, 64, 127
2, 94099, Note_on_c, 0, 79, 0
2, 94110, Note_on_c, 0, 77, 103
2, 94127, Note_on_c, 0, 77, 0
2, 94136, Control_c, 0, 64, 0
2, 94140, Note_on_c, 0, 76, 99
2, 94140, Note_on_c, 0, 67, 90
2, 94142, Note_on_c, 0, 65, 0
2, 94153, Control_c, 0, 64, 127
2, 94166, Note_on_c, 0, 76, 0
2, 94170, Note_on_c, 0, 74, 103
2, 94185, Note_on_c, 0, 74, 0
2, 94191, Note_on_c, 0, 67, 0
2, 94194, Control_c, 0, 64, 0
2, 94200, Note_on_c, 0, 64, 86
2, 94200, Note_on_c, 0, 76, 103
2, 94213, Control_c, 0, 64, 127
2, 94225, Note_on_c, 0, 76, 0
2, 94230, Note_on_c, 0, 74, 99
2, 94245, Note_on_c, 0, 74, 0
2, 94251, Control_c, 0, 64, 0
2, 94260, Note_on_c, 0, 76, 103
2, 94260, Note_on_c, 0, 67, 86
2, 94261, Note_on_c, 0, 64, 0
2, 94271, Control_c, 0, 64, 127
2, 94280, Note_on_c, 0, 76, 0
2, 94290, Note_on_c, 0, 79, 90
2, 94310, Control_c, 0, 64, 0
2, 94312, Note_on_c, 0, 79, 0
2, 94317, Note_on_c, 0, 67, 0
2, 94320, Note_on_c, 0, 72, 112
2, 94320, Note_on_c, 0, 64, 99
2, 94328, Control_c, 0, 64, 127
2, 94345, Note_on_c, 0, 72, 0
2, 94348, Note_on_c, 0, 64, 0
2, 94435, Control_c, 0, 64, 0
2, 94440, Note_on_c, 0, 53, 99
2, 94440, Note_on_c, 0, 81, 123
2, 94463, Control_c, 0, 64, 127
2, 94464, Note_on_c, 0, 81, 0
2, 94470, Note_on_c, 0, 84, 99
2, 94488, Note_on_c, 0, 84, 0
2, 94500, Note_on_c, 0, 86, 103
2, 94521, Note_on_c, 0, 86, 0
2, 94530, Note_on_c, 0, 84, 103
2, 94540, Note_on_c, 0, 84, 0
2, 94558, Note_on_c, 0, 53, 0
2, 94560, Note_on_c, 0, 57, 99
2, 94560, Note_on_c, 0, 82, 112
2, 94566, Control_c, 0, 64, 0
2, 94589, Note_on_c, 0, 82, 0
2, 94590, Control_c, 0, 64, 127
2, 94590, Note_on_c, 0, 81, 99
2, 94617, Note_on_c, 0, 81, 0
2, 94620, Note_on_c, 0, 79, 103
2, 94649, Note_on_c, 0, 79, 0
2, 94650, Note_on_c, 0, 77, 95
2, 94664, Note_on_c, 0, 77, 0
2, 94672, Note_on_c, 0, 57, 0
2, 94680, Note_on_c, 0, 60, 95
2, 94680, Note_on_c, 0, 76, 112
2, 94685, Control_c, 0, 64, 0
2, 94706, Note_on_c, 0, 76, 0
2, 94709, Control_c, 0, 64, 127
2, 94710, Note_on_c, 0, 77, 95
2, 94728, Note_on_c, 0, 77, 0
2, 94740, Note_on_c, 0, 79, 103
2, 94759, Note_on_c, 0, 79, 0
2, 94770, Note_on_c, 0, 77, 99
2, 94786, Note_on_c, 0, 77, 0
2, 94788, Note_on_c, 0, 60, 0
2, 94798, Control_c, 0, 64, 0
2, 94800, Note_on_c, 0, 76, 112
2, 94800, Note_on_c, 0, 52, 103
2, 94819, Control_c, 0, 64, 127
2, 94830, Note_on_c, 0, 74, 99
2, 94831, Note_on_c, 0, 76, 0
2, 94843, Note_on_c, 0, 74, 0
2, 94860, Note_on_c, 0, 72, 86
2, 94876, Note_on_c, 0, 72, 0
2, 94890, Note_on_c, 0, 70, 103
2, 94903, Note_on_c, 0, 70, 0
2, 94911, Note_on_c, 0, 52, 0
2, 94911, Control_c, 0, 64, 0
2, 94920, Note_on_c, 0, 69, 112
2, 94920, Note_on_c, 0, 53, 86
2, 94938, Control_c, 0, 64, 127
2, 94939, Note_on_c, 0, 69, 0
2, 94950, Note_on_c, 0, 72, 99
2, 94973, Note_on_c, 0, 72, 0
2, 94980, Note_on_c, 0, 77, 103
2, 95002, Note_on_c, 0, 77, 0
2, 95010, Note_on_c, 0, 76, 112
2, 95018, Note_on_c, 0, 76, 0
2, 95035, Note_on_c, 0, 53, 0
2, 95035, Control_c, 0, 64, 0
2, 95040, Note_on_c, 0, 46, 99
2, 95040, Note_on_c, 0, 74, 117
2, 95063, Note_on_c, 0, 74, 0
2, 95069, Control_c, 0, 64, 127
2, 95070, Note_on_c, 0, 79, 103
2, 95086, Note_on_c, 0, 79, 0
2, 95100, Note_on_c, 0, 82, 95
2, 95119, Note_on_c, 0, 82, 0
2, 95130, Note_on_c, 0, 81, 103
2, 95146, Note_on_c, 0, 81, 0
2, 95150, Note_on_c, 0, 46, 0
2, 95154, Control_c, 0, 64, 0
2, 95160, Note_on_c, 0, 79, 112
2, 95160, Note_on_c, 0, 48, 90
2, 95175, Control_c, 0, 64, 127
2, 95181, Note_on_c, 0, 79, 0
2, 95190, Note_on_c, 0, 81, 103
2, 95202, Note_on_c, 0, 48, 0
2, 95205, Note_on_c, 0, 81, 0
2, 95214, Control_c, 0, 64, 0
2, 95220, Note_on_c, 0, 79, 108
2, 95220, Note_on_c, 0, 48, 86
2, 95228, Control_c, 0, 64, 127
2, 95249, Note_on_c, 0, 79, 0
2, 95250, Note_on_c, 0, 77, 99
2, 95254, Note_on_c, 0, 48, 0
2, 95264, Note_on_c, 0, 77, 0
2, 95267, Control_c, 0, 64, 0
2, 95280, Note_on_c, 0, 76, 117
2, 95280, Note_on_c, 0, 48, 90
2, 95286, Control_c, 0, 64, 127
2, 95306, Note_on_c, 0, 76, 0
2, 95308, Note_on_c, 0, 48, 0
2, 95369, Control_c, 0, 64, 0
2, 95400, Note_on_c, 0, 53, 90
2, 95400, Note_on_c, 0, 81, 117
2, 95419, Control_c, 0, 64, 127
2, 95423, Note_on_c, 0, 81, 0
2, 95430, Note_on_c, 0, 84, 99
2, 95445, Note_on_c, 0, 84, 0
2, 95460, Note_on_c, 0, 86, 99
2, 95475, Note_on_c, 0, 86, 0
2, 95490, Note_on_c, 0, 84, 99
2, 95500, Note_on_c, 0, 84, 0
2, 95518, Note_on_c, 0, 53, 0
2, 95518, Control_c, 0, 64, 0
2, 95520, Note_on_c, 0, 82, 99
2, 95520, Note_on_c, 0, 57, 99
2, 95544, Control_c, 0, 64, 127
2, 95548, Note_on_c, 0, 82, 0
2, 95550, Note_on_c, 0, 81, 103
2, 95570, Note_on_c, 0, 81, 0
2, 95580, Note_on_c, 0, 79, 103
2, 95609, Note_on_c, 0, 79, 0
2, 95610, Note_on_c, 0, 77, 90
2, 95623, Note_on_c, 0, 77, 0
2, 95634, Note_on_c, 0, 57, 0
2, 95634, Control_c, 0, 64, 0
2, 95640, Note_on_c, 0, 60, 95
2, 95640, Note_on_c, 0, 76, 112
2, 95658, Control_c, 0, 64, 127
2, 95660, Note_on_c, 0, 76, 0
2, 95670, Note_on_c, 0, 77, 90
2, 95684, Note_on_c, 0, 77, 0
2, 95700, Note_on_c, 0, 79, 103
2, 95714, Note_on_c, 0, 79, 0
2, 95730, Note_on_c, 0, 77, 99
2, 95746, Note_on_c, 0, 77, 0
2, 95749, Control_c, 0, 64, 0
2, 95751, Note_on_c, 0, 60, 0
2, 95760, Note_on_c, 0, 76, 117
2, 95760, Note_on_c, 0, 52, 99
2, 95768, Control_c, 0, 64, 127
2, 95775, Note_on_c, 0, 76, 0
2, 95790, Note_on_c, 0, 74, 103
2, 95805, Note_on_c, 0, 74, 0
2, 95820, Note_on_c, 0, 72, 86
2, 95838, Note_on_c, 0, 72, 0
2, 95850, Note_on_c, 0, 70, 99
2, 95863, Note_on_c, 0, 70, 0
2, 95867, Control_c, 0, 64, 0
2, 95873, Note_on_c, 0, 52, 0
2, 95880, Note_on_c, 0, 69, 117
2, 95880, Note_on_c, 0, 53, 86
2, 95896, Control_c, 0, 64, 127
2, 95899, Note_on_c, 0, 69, 0
2, 95910, Note_on_c, 0, 72, 99
2, 95927, Note_on_c, 0, 72, 0
2, 95940, Note_on_c, 0, 77, 99
2, 95962, Note_on_c, 0, 77, 0
2, 95970, Note_on_c, 0, 72, 86
2, 95983, Note_on_c, 0, 72, 0
2, 95990, Control_c, 0, 64, 0
2, 95993, Note_on_c, 0, 53, 0
2, 96000, Note_on_c, 0, 70, 112
2, 96000, Note_on_c, 0, 46, 99
2, 96011, Control_c, 0, 64, 127
2, 96019, Note_on_c, 0, 70, 0
2, 96030, Note_on_c, 0, 74, 103
2, 96047, Note_on_c, 0, 74, 0
2, 96060, Note_on_c, 0, 79, 99
2, 96087, Note_on_c, 0, 79, 0
2, 96090, Note_on_c, 0, 74, 99
2, 96100, Note_on_c, 0, 74, 0
2, 96108, Note_on_c, 0, 46, 0
2, 96111, Control_c, 0, 64, 0
2, 96120, Note_on_c, 0, 48, 95
2, 96120, Note_on_c, 0, 67, 99
2, 96140, Control_c, 0, 64, 127
2, 96142, Note_on_c, 0, 67, 0
2, 96150, Note_on_c, 0, 70, 90
2, 96171, Note_on_c, 0, 70, 0
2, 96180, Note_on_c, 0, 76, 99
2, 96207, Note_on_c, 0, 76, 0
2, 96210, Note_on_c, 0, 70, 95
2, 96227, Note_on_c, 0, 70, 0
2, 96233, Control_c, 0, 64, 0
2, 96237, Note_on_c, 0, 48, 0
2, 96240, Note_on_c, 0, 77, 108
2, 96240, Note_on_c, 0, 53, 103
2, 96250, Control_c, 0, 64, 127
2, 96277, Note_on_c, 0, 77, 0
2, 96282, Note_on_c, 0, 53, 0
2, 96328, Control_c, 0, 64, 0
2, 96360, Note_on_c, 0, 78, 90
2, 96360, Note_on_c, 0, 66, 103
2, 96360, Control_c, 0, 64, 127
2, 96360, Note_on_c, 0, 84, 99
2, 96370, Note_on_c, 0, 78, 0
2, 96371, Note_on_c, 0, 66, 0
2, 96390, Note_on_c, 0, 74, 99
2, 96392, Note_on_c, 0, 84, 0
2, 96407, Note_on_c, 0, 74, 0
2, 96416, Control_c, 0, 64, 0
2, 96420, Note_on_c, 0, 62, 95
2, 96420, Note_on_c, 0, 74, 86
2, 96420, Note_on_c, 0, 81, 103
2, 96432, Control_c, 0, 64, 127
2, 96435, Note_on_c, 0, 62, 0
2, 96438, Note_on_c, 0, 74, 0
2, 96444, Note_on_c, 0, 81, 0
2, 96450, Note_on_c, 0, 74, 82
2, 96464, Note_on_c, 0, 74, 0
2, 96472, Control_c, 0, 64, 0
2, 96480, Note_on_c, 0, 66, 82
2, 96480, Note_on_c, 0, 84, 112
2, 96480, Note_on_c, 0, 78, 82
2, 96488, Control_c, 0, 64, 127
2, 96497, Note_on_c, 0, 78, 0
2, 96498, Note_on_c, 0, 66, 0
2, 96509, Note_on_c, 0, 84, 0
2, 96510, Note_on_c, 0, 74, 86
2, 96528, Note_on_c, 0, 74, 0
2, 96540, Note_on_c, 0, 81, 103
2, 96540, Note_on_c, 0, 62, 95
2, 96540, Note_on_c, 0, 74, 86
2, 96551, Note_on_c, 0, 74, 0
2, 96551, Note_on_c, 0, 62, 0
2, 96561, Note_on_c, 0, 81, 0
2, 96570, Note_on_c, 0, 74, 60
2, 96584, Note_on_c, 0, 74, 0
2, 96593, Control_c, 0, 64, 0
2, 96600, Note_on_c, 0, 82, 99
2, 96600, Note_on_c, 0, 67, 90
2, 96600, Note_on_c, 0, 74, 103
2, 96600, Note_on_c, 0, 79, 103
2, 96615, Note_on_c, 0, 79, 0
2, 96618, Note_on_c, 0, 82, 0
2, 96621, Note_on_c, 0, 67, 0
2, 96660, Note_on_c, 0, 81, 112
2, 96660, Note_on_c, 0, 69, 103
2, 96670, Note_on_c, 0, 69, 0
2, 96671, Note_on_c, 0, 81, 0
2, 96720, Note_on_c, 0, 79, 123
2, 96720, Note_on_c, 0, 70, 103
2, 96730, Note_on_c, 0, 79, 0
2, 96732, Note_on_c, 0, 70, 0
2, 96783, Note_on_c, 0, 74, 0
2, 96840, Note_on_c, 0, 82, 103
2, 96840, Note_on_c, 0, 64, 103
2, 96840, Note_on_c, 0, 63, 70
2, 96842, Note_on_c, 0, 63, 0
2, 96851, Control_c, 0, 64, 127
2, 96870, Note_on_c, 0, 72, 86
2, 96871, Note_on_c, 0, 82, 0
2, 96883, Note_on_c, 0, 64, 0
2, 96890, Note_on_c, 0, 72, 0
2, 96897, Control_c, 0, 64, 0
2, 96900, Note_on_c, 0, 60, 103
2, 96900, Note_on_c, 0, 79, 103
2, 96913, Control_c, 0, 64, 127
2, 96925, Note_on_c, 0, 79, 0
2, 96930, Note_on_c, 0, 72, 95
2, 96941, Note_on_c, 0, 60, 0
2, 96946, Note_on_c, 0, 72, 0
2, 96946, Control_c, 0, 64, 0
2, 96960, Note_on_c, 0, 82, 95
2, 96960, Note_on_c, 0, 64, 99
2, 96964, Control_c, 0, 64, 127
2, 96988, Note_on_c, 0, 82, 0
2, 96990, Note_on_c, 0, 72, 82
2, 96993, Note_on_c, 0, 64, 0
2, 97013, Note_on_c, 0, 72, 0
2, 97020, Note_on_c, 0, 79, 103
2, 97020, Note_on_c, 0, 60, 103
2, 97037, Note_on_c, 0, 60, 0
2, 97043, Note_on_c, 0, 79, 0
2, 97050, Note_on_c, 0, 72, 86
2, 97067, Control_c, 0, 64, 0
2, 97080, Note_on_c, 0, 81, 117
2, 97080, Note_on_c, 0, 65, 108
2, 97091, Note_on_c, 0, 65, 0
2, 97091, Note_on_c, 0, 81, 0
2, 97140, Note_on_c, 0, 79, 99
2, 97140, Note_on_c, 0, 67, 103
2, 97148, Note_on_c, 0, 79, 0
2, 97152, Note_on_c, 0, 67, 0
2, 97200, Note_on_c, 0, 77, 99
2, 97200, Note_on_c, 0, 69, 103
2, 97203, Control_c, 0, 64, 127
2, 97209, Note_on_c, 0, 69, 0
2, 97209, Note_on_c, 0, 77, 0
2, 97240, Control_c, 0, 64, 0
2, 97244, Note_on_c, 0, 72, 0
2, 97320, Note_on_c, 0, 81, 95
2, 97320, Note_on_c, 0, 41, 82
2, 97320, Note_on_c, 0, 53, 82
2, 97325, Control_c, 0, 64, 127
2, 97345, Note_on_c, 0, 81, 0
2, 97350, Note_on_c, 0, 84, 103
2, 97366, Note_on_c, 0, 84, 0
2, 97380, Note_on_c, 0, 86, 112
2, 97389, Note_on_c, 0, 41, 0
2, 97395, Note_on_c, 0, 53, 0
2, 97397, Note_on_c, 0, 86, 0
2, 97410, Note_on_c, 0, 84, 99
2, 97425, Note_on_c, 0, 84, 0
2, 97430, Control_c, 0, 64, 0
2, 97440, Note_on_c, 0, 82, 117
2, 97440, Note_on_c, 0, 45, 99
2, 97440, Note_on_c, 0, 57, 90
2, 97459, Control_c, 0, 64, 127
2, 97466, Note_on_c, 0, 82, 0
2, 97470, Note_on_c, 0, 81, 95
2, 97498, Note_on_c, 0, 81, 0
2, 97500, Note_on_c, 0, 79, 95
2, 97510, Note_on_c, 0, 45, 0
2, 97515, Note_on_c, 0, 79, 0
2, 97517, Note_on_c, 0, 57, 0
2, 97530, Note_on_c, 0, 77, 103
2, 97544, Note_on_c, 0, 77, 0
2, 97548, Control_c, 0, 64, 0
2, 97560, Note_on_c, 0, 76, 123
2, 97560, Note_on_c, 0, 48, 99
2, 97560, Note_on_c, 0, 60, 67
2, 97571, Control_c, 0, 64, 127
2, 97577, Note_on_c, 0, 76, 0
2, 97590, Note_on_c, 0, 77, 95
2, 97599, Note_on_c, 0, 60, 0
2, 97607, Note_on_c, 0, 77, 0
2, 97610, Note_on_c, 0, 48, 0
2, 97620, Note_on_c, 0, 79, 95
2, 97640, Note_on_c, 0, 79, 0
2, 97659, Control_c, 0, 64, 0
2, 97679, Control_c, 0, 64, 127
2, 97680, Note_on_c, 0, 76, 117
2, 97680, Note_on_c, 0, 52, 95
2, 97680, Note_on_c, 0, 40, 99
2, 97698, Note_on_c, 0, 76, 0
2, 97710, Note_on_c, 0, 74, 90
2, 97733, Note_on_c, 0, 74, 0
2, 97740, Note_on_c, 0, 40, 0
2, 97740, Note_on_c, 0, 72, 86
2, 97751, Note_on_c, 0, 52, 0
2, 97756, Note_on_c, 0, 72, 0
2, 97770, Note_on_c, 0, 70, 117
2, 97787, Control_c, 0, 64, 0
2, 97793, Note_on_c, 0, 70, 0
2, 97800, Note_on_c, 0, 53, 82
2, 97808, Control_c, 0, 64, 127
2, 97830, Note_on_c, 0, 72, 86
2, 97856, Note_on_c, 0, 72, 0
2, 97860, Note_on_c, 0, 77, 99
2, 97869, Note_on_c, 0, 53, 0
2, 97889, Note_on_c, 0, 77, 0
2, 97890, Note_on_c, 0, 72, 99
2, 97904, Control_c, 0, 64, 0
2, 97906, Note_on_c, 0, 72, 0
2, 97920, Note_on_c, 0, 70, 117
2, 97920, Note_on_c, 0, 46, 103
2, 97926, Control_c, 0, 64, 127
2, 97944, Note_on_c, 0, 70, 0
2, 97950, Note_on_c, 0, 74, 103
2, 97975, Note_on_c, 0, 74, 0
2, 97980, Note_on_c, 0, 79, 99
2, 98008, Note_on_c, 0, 79, 0
2, 98010, Note_on_c, 0, 74, 99
2, 98021, Note_on_c, 0, 74, 0
2, 98026, Control_c, 0, 64, 0
2, 98029, Note_on_c, 0, 46, 0
2, 98040, Note_on_c, 0, 67, 108
2, 98040, Note_on_c, 0, 48, 99
2, 98045, Control_c, 0, 64, 127
2, 98061, Note_on_c, 0, 67, 0
2, 98070, Note_on_c, 0, 70, 90
2, 98073, Note_on_c, 0, 48, 0
2, 98083, Control_c, 0, 64, 0
2, 98087, Note_on_c, 0, 70, 0
2, 98098, Control_c, 0, 64, 127
2, 98100, Note_on_c, 0, 48, 95
2, 98100, Note_on_c, 0, 76, 103
2, 98129, Note_on_c, 0, 48, 0
2, 98130, Note_on_c, 0, 70, 86
2, 98131, Note_on_c, 0, 76, 0
2, 98142, Control_c, 0, 64, 0
2, 98146, Note_on_c, 0, 70, 0
2, 98160, Note_on_c, 0, 77, 108
2, 98160, Note_on_c, 0, 53, 108
2, 98160, Control_c, 0, 64, 127
2, 98182, Note_on_c, 0, 53, 0
2, 98186, Note_on_c, 0, 77, 0
2, 98233, Control_c, 0, 64, 0
2, 98280, Note_on_c, 0, 79, 103
2, 98280, Note_on_c, 0, 64, 74
2, 98280, Note_on_c, 0, 67, 86
2, 98284, Control_c, 0, 64, 127
2, 98310, Note_on_c, 0, 76, 86
2, 98311, Note_on_c, 0, 79, 0
2, 98334, Note_on_c, 0, 76, 0
2, 98340, Note_on_c, 0, 79, 90
2, 98370, Note_on_c, 0, 76, 90
2, 98371, Note_on_c, 0, 79, 0
2, 98395, Control_c, 0, 64, 0
2, 98399, Note_on_c, 0, 76, 0
2, 98400, Note_on_c, 0, 72, 95
2, 98412, Control_c, 0, 64, 127
2, 98442, Note_on_c, 0, 72, 0
2, 98460, Note_on_c, 0, 72, 99
2, 98480, Note_on_c, 0, 67, 0
2, 98482, Note_on_c, 0, 64, 0
2, 98485, Note_on_c, 0, 72, 0
2, 98520, Note_on_c, 0, 77, 99
2, 98520, Note_on_c, 0, 65, 69
2, 98520, Note_on_c, 0, 67, 82
2, 98521, Control_c, 0, 64, 0
2, 98541, Control_c, 0, 64, 127
2, 98550, Note_on_c, 0, 74, 86
2, 98552, Note_on_c, 0, 77, 0
2, 98578, Note_on_c, 0, 74, 0
2, 98580, Note_on_c, 0, 77, 90
2, 98610, Note_on_c, 0, 74, 82
2, 98616, Note_on_c, 0, 77, 0
2, 98636, Note_on_c, 0, 74, 0
2, 98639, Control_c, 0, 64, 0
2, 98640, Note_on_c, 0, 71, 99
2, 98656, Control_c, 0, 64, 127
2, 98682, Note_on_c, 0, 71, 0
2, 98700, Note_on_c, 0, 71, 103
2, 98708, Note_on_c, 0, 67, 0
2, 98718, Note_on_c, 0, 71, 0
2, 98718, Note_on_c, 0, 65, 0
2, 98756, Control_c, 0, 64, 0
2, 98760, Note_on_c, 0, 72, 112
2, 98760, Note_on_c, 0, 64, 86
2, 98760, Note_on_c, 0, 67, 90
2, 98775, Control_c, 0, 64, 127
2, 98790, Note_on_c, 0, 74, 95
2, 98795, Note_on_c, 0, 72, 0
2, 98798, Control_c, 0, 64, 0
2, 98813, Control_c, 0, 64, 127
2, 98820, Note_on_c, 0, 76, 103
2, 98823, Note_on_c, 0, 74, 0
2, 98848, Note_on_c, 0, 76, 0
2, 98850, Note_on_c, 0, 77, 99
2, 98874, Note_on_c, 0, 77, 0
2, 98874, Control_c, 0, 64, 0
2, 98880, Note_on_c, 0, 79, 103
2, 98892, Control_c, 0, 64, 127
2, 98907, Note_on_c, 0, 79, 0
2, 98910, Note_on_c, 0, 81, 103
2, 98934, Note_on_c, 0, 81, 0
2, 98940, Note_on_c, 0, 83, 82
2, 98961, Note_on_c, 0, 83, 0
2, 98970, Note_on_c, 0, 84, 103
2, 98973, Note_on_c, 0, 67, 0
2, 98976, Note_on_c, 0, 64, 0
2, 98984, Note_on_c, 0, 84, 0
2, 98997, Control_c, 0, 64, 0
2, 99000, Note_on_c, 0, 65, 82
2, 99000, Note_on_c, 0, 84, 112
2, 99000, Note_on_c, 0, 67, 90
2, 99016, Control_c, 0, 64, 127
2, 99029, Note_on_c, 0, 84, 0
2, 99030, Note_on_c, 0, 83, 103
2, 99060, Note_on_c, 0, 81, 90
2, 99061, Note_on_c, 0, 83, 0
2, 99063, Control_c, 0, 64, 0
2, 99075, Control_c, 0, 64, 127
2, 99090, Note_on_c, 0, 79, 108
2, 99094, Note_on_c, 0, 81, 0
2, 99101, Note_on_c, 0, 79, 0
2, 99112, Control_c, 0, 64, 0
2, 99120, Note_on_c, 0, 79, 108
2, 99127, Control_c, 0, 64, 127
2, 99150, Note_on_c, 0, 79, 0
2, 99150, Note_on_c, 0, 77, 99
2, 99180, Note_on_c, 0, 76, 90
2, 99182, Note_on_c, 0, 77, 0
2, 99200, Note_on_c, 0, 67, 0
2, 99207, Note_on_c, 0, 76, 0
2, 99209, Note_on_c, 0, 65, 0
2, 99210, Note_on_c, 0, 74, 99
2, 99228, Note_on_c, 0, 74, 0
2, 99234, Control_c, 0, 64, 0
2, 99240, Note_on_c, 0, 64, 82
2, 99240, Note_on_c, 0, 79, 95
2, 99240, Note_on_c, 0, 67, 86
2, 99254, Control_c, 0, 64, 127
2, 99270, Note_on_c, 0, 76, 95
2, 99273, Note_on_c, 0, 79, 0
2, 99298, Note_on_c, 0, 76, 0
2, 99300, Note_on_c, 0, 79, 95
2, 99330, Note_on_c, 0, 79, 0
2, 99330, Note_on_c, 0, 76, 99
2, 99349, Control_c, 0, 64, 0
2, 99360, Note_on_c, 0, 76, 0
2, 99360, Note_on_c, 0, 72, 95
2, 99366, Control_c, 0, 64, 127
2, 99399, Note_on_c, 0, 72, 0
2, 99420, Note_on_c, 0, 72, 103
2, 99430, Note_on_c, 0, 67, 0
2, 99435, Note_on_c, 0, 64, 0
2, 99450, Note_on_c, 0, 72, 0
2, 99475, Control_c, 0, 64, 0
2, 99480, Note_on_c, 0, 77, 103
2, 99480, Note_on_c, 0, 67, 86
2, 99480, Note_on_c, 0, 65, 78
2, 99494, Control_c, 0, 64, 127
2, 99510, Note_on_c, 0, 74, 90
2, 99512, Note_on_c, 0, 77, 0
2, 99538, Note_on_c, 0, 74, 0
2, 99540, Note_on_c, 0, 77, 90
2, 99570, Note_on_c, 0, 77, 0
2, 99570, Note_on_c, 0, 74, 95
2, 99592, Control_c, 0, 64, 0
2, 99596, Note_on_c, 0, 74, 0
2, 99600, Note_on_c, 0, 71, 99
2, 99609, Control_c, 0, 64, 127
2, 99640, Note_on_c, 0, 71, 0
2, 99660, Note_on_c, 0, 71, 108
2, 99668, Note_on_c, 0, 67, 0
2, 99674, Note_on_c, 0, 65, 0
2, 99679, Note_on_c, 0, 71, 0
2, 99712, Control_c, 0, 64, 0
2, 99720, Note_on_c, 0, 72, 112
2, 99720, Note_on_c, 0, 64, 82
2, 99720, Note_on_c, 0, 67, 86
2, 99731, Control_c, 0, 64, 127
2, 99750, Note_on_c, 0, 74, 95
2, 99753, Note_on_c, 0, 72, 0
2, 99758, Control_c, 0, 64, 0
2, 99775, Control_c, 0, 64, 127
2, 99780, Note_on_c, 0, 76, 95
2, 99782, Note_on_c, 0, 74, 0
2, 99808, Note_on_c, 0, 76, 0
2, 99810, Note_on_c, 0, 77, 99
2, 99833, Control_c, 0, 64, 0
2, 99838, Note_on_c, 0, 77, 0
2, 99840, Note_on_c, 0, 79, 99
2, 99850, Control_c, 0, 64, 127
2, 99865, Note_on_c, 0, 79, 0
2, 99870, Note_on_c, 0, 81, 99
2, 99893, Note_on_c, 0, 81, 0
2, 99900, Note_on_c, 0, 83, 99
2, 99924, Note_on_c, 0, 83, 0
2, 99928, Note_on_c, 0, 67, 0
2, 99930, Note_on_c, 0, 84, 99
2, 99941, Note_on_c, 0, 64, 0
2, 99943, Note_on_c, 0, 84, 0
2, 99959, Control_c, 0, 64, 0
2, 99960, Note_on_c, 0, 79, 108
2, 99960, Note_on_c, 0, 65, 74
2, 99960, Note_on_c, 0, 67, 90
2, 99983, Control_c, 0, 64, 127
2, 99990, Note_on_c, 0, 77, 82
2, 99994, Note_on_c, 0, 79, 0
2, 100020, Note_on_c, 0, 77, 0
2, 100020, Note_on_c, 0, 76, 99
2, 100047, Note_on_c, 0, 67, 0
2, 100049, Note_on_c, 0, 76, 0
2, 100050, Note_on_c, 0, 74, 86
2, 100053, Note_on_c, 0, 65, 0
2, 100066, Note_on_c, 0, 74, 0
2, 100071, Control_c, 0, 64, 0
2, 100080, Note_on_c, 0, 72, 95
2, 100080, Note_on_c, 0, 67, 82
2, 100080, Note_on_c, 0, 64, 86
2, 100090, Control_c, 0, 64, 127
2, 100116, Note_on_c, 0, 72, 0
2, 100128, Note_on_c, 0, 67, 0
2, 100131, Note_on_c, 0, 64, 0
2, 100188, Control_c, 0, 64, 0
2, 100200, Note_on_c, 0, 77, 90
2, 100200, Note_on_c, 0, 67, 78
2, 100200, Note_on_c, 0, 65, 72
2, 100216, Control_c, 0, 64, 127
2, 100230, Note_on_c, 0, 74, 74
2, 100232, Note_on_c, 0, 77, 0
2, 100258, Note_on_c, 0, 74, 0
2, 100260, Note_on_c, 0, 77, 86
2, 100290, Note_on_c, 0, 77, 0
2, 100290, Note_on_c, 0, 74, 86
2, 100318, Note_on_c, 0, 74, 0
2, 100319, Control_c, 0, 64, 0
2, 100320, Note_on_c, 0, 71, 90
2, 100335, Control_c, 0, 64, 127
2, 100356, Note_on_c, 0, 71, 0
2, 100380, Note_on_c, 0, 71, 99
2, 100382, Note_on_c, 0, 67, 0
2, 100388, Note_on_c, 0, 65, 0
2, 100398, Note_on_c, 0, 71, 0
2, 100440, Control_c, 0, 64, 0
2, 100440, Note_on_c, 0, 72, 112
2, 100440, Note_on_c, 0, 64, 74
2, 100440, Note_on_c, 0, 67, 82
2, 100460, Control_c, 0, 64, 127
2, 100470, Note_on_c, 0, 74, 99
2, 100474, Note_on_c, 0, 72, 0
2, 100481, Control_c, 0, 64, 0
2, 100494, Control_c, 0, 64, 127
2, 100500, Note_on_c, 0, 74, 0
2, 100500, Note_on_c, 0, 76, 99
2, 100526, Note_on_c, 0, 76, 0
2, 100530, Note_on_c, 0, 77, 103
2, 100554, Note_on_c, 0, 77, 0
2, 100559, Control_c, 0, 64, 0
2, 100560, Note_on_c, 0, 79, 103
2, 100573, Control_c, 0, 64, 127
2, 100586, Note_on_c, 0, 79, 0
2, 100590, Note_on_c, 0, 81, 103
2, 100612, Note_on_c, 0, 81, 0
2, 100620, Note_on_c, 0, 83, 99
2, 100637, Note_on_c, 0, 83, 0
2, 100639, Note_on_c, 0, 67, 0
2, 100644, Note_on_c, 0, 64, 0
2, 100650, Note_on_c, 0, 84, 112
2, 100663, Note_on_c, 0, 84, 0
2, 100679, Control_c, 0, 64, 0
2, 100680, Note_on_c, 0, 84, 117
2, 100680, Note_on_c, 0, 65, 82
2, 100680, Note_on_c, 0, 67, 86
2, 100699, Control_c, 0, 64, 127
2, 100710, Note_on_c, 0, 84, 0
2, 100710, Note_on_c, 0, 83, 103
2, 100740, Note_on_c, 0, 81, 95
2, 100740, Control_c, 0, 64, 0
2, 100741, Note_on_c, 0, 83, 0
2, 100755, Control_c, 0, 64, 127
2, 100770, Note_on_c, 0, 79, 90
2, 100775, Note_on_c, 0, 81, 0
2, 100795, Control_c, 0, 64, 0
2, 100796, Note_on_c, 0, 79, 0
2, 100800, Note_on_c, 0, 81, 103
2, 100812, Control_c, 0, 64, 127
2, 100829, Note_on_c, 0, 81, 0
2, 100830, Note_on_c, 0, 79, 112
2, 100851, Note_on_c, 0, 79, 0
2, 100860, Note_on_c, 0, 81, 103
2, 100882, Note_on_c, 0, 81, 0
2, 100884, Note_on_c, 0, 67, 0
2, 100890, Note_on_c, 0, 65, 0
2, 100890, Note_on_c, 0, 83, 103
2, 100907, Note_on_c, 0, 83, 0
2, 100915, Control_c, 0, 64, 0
2, 100920, Note_on_c, 0, 64, 95
2, 100920, Note_on_c, 0, 67, 99
2, 100920, Note_on_c, 0, 84, 117
2, 100934, Control_c, 0, 64, 127
2, 100950, Note_on_c, 0, 84, 0
2, 100950, Note_on_c, 0, 83, 108
2, 100968, Note_on_c, 0, 83, 0
2, 100980, Note_on_c, 0, 84, 90
2, 101001, Note_on_c, 0, 84, 0
2, 101010, Note_on_c, 0, 86, 112
2, 101026, Note_on_c, 0, 86, 0
2, 101033, Control_c, 0, 64, 0
2, 101040, Note_on_c, 0, 88, 123
2, 101053, Control_c, 0, 64, 127
2, 101097, Note_on_c, 0, 88, 0
2, 101100, Note_on_c, 0, 79, 103
2, 101116, Note_on_c, 0, 67, 0
2, 101117, Note_on_c, 0, 79, 0
2, 101121, Note_on_c, 0, 64, 0
2, 101153, Control_c, 0, 64, 0
2, 101160, Note_on_c, 0, 77, 99
2, 101160, Note_on_c, 0, 65, 72
2, 101160, Note_on_c, 0, 67, 74
2, 101173, Control_c, 0, 64, 127
2, 101190, Note_on_c, 0, 74, 82
2, 101192, Note_on_c, 0, 77, 0
2, 101218, Note_on_c, 0, 74, 0
2, 101220, Note_on_c, 0, 77, 86
2, 101250, Note_on_c, 0, 74, 82
2, 101252, Note_on_c, 0, 77, 0
2, 101277, Control_c, 0, 64, 0
2, 101279, Note_on_c, 0, 74, 0
2, 101280, Note_on_c, 0, 71, 103
2, 101293, Control_c, 0, 64, 127
2, 101321, Note_on_c, 0, 71, 0
2, 101340, Note_on_c, 0, 71, 103
2, 101355, Note_on_c, 0, 67, 0
2, 101358, Note_on_c, 0, 71, 0
2, 101360, Note_on_c, 0, 65, 0
2, 101393, Control_c, 0, 64, 0
2, 101400, Note_on_c, 0, 72, 103
2, 101400, Note_on_c, 0, 64, 72
2, 101400, Note_on_c, 0, 67, 72
2, 101413, Control_c, 0, 64, 127
2, 101430, Note_on_c, 0, 74, 90
2, 101432, Note_on_c, 0, 72, 0
2, 101460, Note_on_c, 0, 76, 99
2, 101462, Note_on_c, 0, 74, 0
2, 101487, Note_on_c, 0, 76, 0
2, 101490, Note_on_c, 0, 77, 103
2, 101517, Note_on_c, 0, 77, 0
2, 101517, Control_c, 0, 64, 0
2, 101520, Note_on_c, 0, 79, 99
2, 101534, Control_c, 0, 64, 127
2, 101550, Note_on_c, 0, 79, 0
2, 101550, Note_on_c, 0, 81, 86
2, 101570, Control_c, 0, 64, 0
2, 101576, Note_on_c, 0, 81, 0
2, 101580, Note_on_c, 0, 83, 103
2, 101583, Control_c, 0, 64, 127
2, 101604, Note_on_c, 0, 83, 0
2, 101610, Note_on_c, 0, 84, 86
2, 101619, Note_on_c, 0, 67, 0
2, 101623, Note_on_c, 0, 64, 0
2, 101625, Note_on_c, 0, 84, 0
2, 101629, Control_c, 0, 64, 0
2, 101640, Note_on_c, 0, 84, 99
2, 101640, Note_on_c, 0, 65, 70
2, 101640, Note_on_c, 0, 67, 82
2, 101648, Control_c, 0, 64, 127
2, 101669, Note_on_c, 0, 84, 0
2, 101670, Note_on_c, 0, 83, 90
2, 101700, Note_on_c, 0, 81, 95
2, 101703, Control_c, 0, 64, 0
2, 101704, Note_on_c, 0, 83, 0
2, 101718, Control_c, 0, 64, 127
2, 101730, Note_on_c, 0, 79, 99
2, 101735, Note_on_c, 0, 81, 0
2, 101743, Note_on_c, 0, 79, 0
2, 101756, Control_c, 0, 64, 0
2, 101760, Note_on_c, 0, 79, 99
2, 101772, Control_c, 0, 64, 127
2, 101789, Note_on_c, 0, 79, 0
2, 101790, Note_on_c, 0, 77, 95
2, 101820, Note_on_c, 0, 76, 90
2, 101821, Note_on_c, 0, 77, 0
2, 101849, Note_on_c, 0, 76, 0
2, 101850, Note_on_c, 0, 67, 0
2, 101850, Note_on_c, 0, 74, 95
2, 101857, Note_on_c, 0, 65, 0
2, 101871, Note_on_c, 0, 74, 0
2, 101872, Control_c, 0, 64, 0
2, 101880, Note_on_c, 0, 76, 99
2, 101880, Note_on_c, 0, 64, 72
2, 101880, Note_on_c, 0, 67, 74
2, 101893, Control_c, 0, 64, 127
2, 101910, Note_on_c, 0, 74, 86
2, 101913, Note_on_c, 0, 76, 0
2, 101930, Note_on_c, 0, 74, 0
2, 101940, Note_on_c, 0, 76, 99
2, 101955, Note_on_c, 0, 76, 0
2, 101970, Note_on_c, 0, 79, 86
2, 101988, Control_c, 0, 64, 0
2, 101997, Note_on_c, 0, 79, 0
2, 102000, Note_on_c, 0, 72, 103
2, 102006, Control_c, 0, 64, 127
2, 102039, Note_on_c, 0, 72, 0
2, 102052, Note_on_c, 0, 64, 0
2, 102053, Note_on_c, 0, 67, 0
2, 102114, Control_c, 0, 64, 0
2, 102120, Note_on_c, 0, 81, 90
2, 102120, Note_on_c, 0, 84, 99
2, 102120, Note_on_c, 0, 65, 86
2, 102120, Note_on_c, 0, 81, 123
2, 102120, Note_on_c, 0, 65, 74
2, 102120, Note_on_c, 0, 84, 112
2, 102127, Control_c, 0, 64, 127
2, 102157, Note_on_c, 0, 65, 0
2, 102162, Note_on_c, 0, 65, 0
2, 102180, Note_on_c, 0, 65, 72
2, 102195, Note_on_c, 0, 65, 0
2, 102228, Note_on_c, 0, 84, 0
2, 102229, Note_on_c, 0, 81, 0
2, 102240, Note_on_c, 0, 65, 78
2, 102248, Note_on_c, 0, 84, 0
2, 102250, Note_on_c, 0, 81, 0
2, 102256, Note_on_c, 0, 65, 0
2, 102299, Control_c, 0, 64, 0
2, 102300, Note_on_c, 0, 82, 103
2, 102300, Note_on_c, 0, 79, 108
2, 102300, Note_on_c, 0, 65, 82
2, 102315, Control_c, 0, 64, 127
2, 102324, Note_on_c, 0, 65, 0
2, 102328, Note_on_c, 0, 79, 0
2, 102334, Note_on_c, 0, 82, 0
2, 102360, Note_on_c, 0, 77, 103
2, 102360, Note_on_c, 0, 65, 86
2, 102360, Note_on_c, 0, 81, 108
2, 102361, Control_c, 0, 64, 0
2, 102377, Control_c, 0, 64, 127
2, 102389, Note_on_c, 0, 65, 0
2, 102419, Note_on_c, 0, 81, 0
2, 102420, Note_on_c, 0, 77, 0
2, 102420, Note_on_c, 0, 65, 78
2, 102434, Note_on_c, 0, 65, 0
2, 102477, Control_c, 0, 64, 0
2, 102480, Note_on_c, 0, 77, 117
2, 102480, Note_on_c, 0, 65, 82
2, 102480, Note_on_c, 0, 81, 108
2, 102493, Control_c, 0, 64, 127
2, 102513, Note_on_c, 0, 65, 0
2, 102520, Note_on_c, 0, 81, 0
2, 102524, Note_on_c, 0, 77, 0
2, 102540, Note_on_c, 0, 65, 86
2, 102557, Note_on_c, 0, 65, 0
2, 102594, Control_c, 0, 64, 0
2, 102600, Note_on_c, 0, 72, 112
2, 102600, Note_on_c, 0, 81, 103
2, 102600, Note_on_c, 0, 65, 86
2, 102615, Control_c, 0, 64, 127
2, 102640, Note_on_c, 0, 65, 0
2, 102660, Note_on_c, 0, 65, 86
2, 102680, Note_on_c, 0, 65, 0
2, 102717, Note_on_c, 0, 81, 0
2, 102720, Note_on_c, 0, 65, 90
2, 102724, Note_on_c, 0, 72, 0
2, 102735, Note_on_c, 0, 65, 0
2, 102777, Control_c, 0, 64, 0
2, 102780, Note_on_c, 0, 65, 82
2, 102780, Note_on_c, 0, 70, 95
2, 102780, Note_on_c, 0, 79, 103
2, 102791, Control_c, 0, 64, 127
2, 102806, Note_on_c, 0, 79, 0
2, 102806, Note_on_c, 0, 65, 0
2, 102808, Note_on_c, 0, 70, 0
2, 102834, Control_c, 0, 64, 0
2, 102840, Note_on_c, 0, 77, 99
2, 102840, Note_on_c, 0, 69, 99
2, 102840, Note_on_c, 0, 65, 90
2, 102860, Control_c, 0, 64, 127
2, 102874, Note_on_c, 0, 65, 0
2, 102899, Note_on_c, 0, 77, 0
2, 102900, Note_on_c, 0, 65, 90
2, 102901, Note_on_c, 0, 69, 0
2, 102915, Note_on_c, 0, 65, 0
2, 102955, Control_c, 0, 64, 0
2, 102960, Note_on_c, 0, 65, 90
2, 102960, Note_on_c, 0, 77, 99
2, 102960, Note_on_c, 0, 69, 103
2, 102972, Control_c, 0, 64, 127
2, 102982, Note_on_c, 0, 65, 0
2, 103017, Note_on_c, 0, 77, 0
2, 103020, Note_on_c, 0, 65, 95
2, 103021, Note_on_c, 0, 69, 0
2, 103037, Note_on_c, 0, 65, 0
2, 103074, Control_c, 0, 64, 0
2, 103080, Note_on_c, 0, 76, 103
2, 103080, Note_on_c, 0, 79, 103
2, 103097, Control_c, 0, 64, 127
2, 103129, Control_c, 0, 64, 0
2, 103140, Note_on_c, 0, 72, 86
2, 103140, Note_on_c, 0, 64, 99
2, 103151, Note_on_c, 0, 79, 0
2, 103153, Note_on_c, 0, 76, 0
2, 103181, Note_on_c, 0, 64, 0
2, 103182, Note_on_c, 0, 72, 0
2, 103200, Note_on_c, 0, 72, 74
2, 103200, Note_on_c, 0, 64, 99
2, 103201, Control_c, 0, 64, 127
2, 103226, Note_on_c, 0, 64, 0
2, 103227, Note_on_c, 0, 72, 0
2, 103253, Control_c, 0, 64, 0
2, 103260, Note_on_c, 0, 64, 99
2, 103260, Note_on_c, 0, 72, 82
2, 103275, Control_c, 0, 64, 127
2, 103297, Note_on_c, 0, 72, 0
2, 103299, Note_on_c, 0, 64, 0
2, 103314, Control_c, 0, 64, 0
2, 103320, Note_on_c, 0, 81, 108
2, 103320, Note_on_c, 0, 77, 108
2, 103367, Control_c, 0, 64, 127
2, 103380, Note_on_c, 0, 77, 0
2, 103380, Note_on_c, 0, 72, 65
2, 103380, Note_on_c, 0, 65, 86
2, 103383, Note_on_c, 0, 81, 0
2, 103383, Control_c, 0, 64, 0
2, 103408, Control_c, 0, 64, 127
2, 103418, Note_on_c, 0, 65, 0
2, 103419, Note_on_c, 0, 72, 0
2, 103431, Control_c, 0, 64, 0
2, 103440, Note_on_c, 0, 72, 86
2, 103440, Note_on_c, 0, 65, 99
2, 103453, Control_c, 0, 64, 127
2, 103464, Note_on_c, 0, 72, 0
2, 103467, Note_on_c, 0, 65, 0
2, 103493, Control_c, 0, 64, 0
2, 103500, Note_on_c, 0, 65, 103
2, 103500, Note_on_c, 0, 72, 90
2, 103512, Control_c, 0, 64, 127
2, 103534, Note_on_c, 0, 72, 0
2, 103538, Note_on_c, 0, 65, 0
2, 103552, Control_c, 0, 64, 0
2, 103560, Note_on_c, 0, 84, 99
2, 103560, Note_on_c, 0, 76, 117
2, 103583, Control_c, 0, 64, 127
2, 103613, Control_c, 0, 64, 0
2, 103618, Note_on_c, 0, 76, 0
2, 103619, Note_on_c, 0, 84, 0
2, 103620, Note_on_c, 0, 67, 86
2, 103620, Note_on_c, 0, 72, 95
2, 103634, Control_c, 0, 64, 127
2, 103652, Note_on_c, 0, 67, 0
2, 103653, Note_on_c, 0, 72, 0
2, 103654, Control_c, 0, 64, 0
2, 103680, Note_on_c, 0, 67, 86
2, 103680, Note_on_c, 0, 72, 99
2, 103686, Control_c, 0, 64, 127
2, 103698, Note_on_c, 0, 72, 0
2, 103703, Note_on_c, 0, 67, 0
2, 103740, Note_on_c, 0, 67, 90
2, 103740, Note_on_c, 0, 72, 99
2, 103756, Note_on_c, 0, 72, 0
2, 103756, Note_on_c, 0, 67, 0
2, 103789, Control_c, 0, 64, 0
2, 103800, Note_on_c, 0, 81, 103
2, 103800, Note_on_c, 0, 77, 112
2, 103800, Note_on_c, 0, 65, 99
2, 103800, Note_on_c, 0, 69, 103
2, 103812, Control_c, 0, 64, 127
2, 103815, Note_on_c, 0, 77, 0
2, 103816, Note_on_c, 0, 81, 0
2, 103820, Note_on_c, 0, 69, 0
2, 103822, Note_on_c, 0, 65, 0
2, 103943, Control_c, 0, 64, 0
2, 104040, Note_on_c, 0, 60, 86
2, 104040, Note_on_c, 0, 76, 103
2, 104040, Note_on_c, 0, 79, 99
2, 104048, Control_c, 0, 64, 127
2, 104077, Note_on_c, 0, 60, 0
2, 104100, Note_on_c, 0, 60, 86
2, 104117, Note_on_c, 0, 60, 0
2, 104146, Note_on_c, 0, 79, 0
2, 104147, Note_on_c, 0, 76, 0
2, 104160, Note_on_c, 0, 60, 82
2, 104173, Note_on_c, 0, 60, 0
2, 104219, Control_c, 0, 64, 0
2, 104220, Note_on_c, 0, 77, 112
2, 104220, Note_on_c, 0, 60, 82
2, 104220, Note_on_c, 0, 74, 123
2, 104232, Control_c, 0, 64, 127
2, 104249, Note_on_c, 0, 60, 0
2, 104255, Note_on_c, 0, 77, 0
2, 104257, Note_on_c, 0, 74, 0
2, 104274, Control_c, 0, 64, 0
2, 104280, Note_on_c, 0, 60, 74
2, 104280, Note_on_c, 0, 72, 103
2, 104280, Note_on_c, 0, 76, 103
2, 104288, Control_c, 0, 64, 127
2, 104312, Note_on_c, 0, 60, 0
2, 104313, Note_on_c, 0, 72, 0
2, 104318, Note_on_c, 0, 76, 0
2, 104330, Control_c, 0, 64, 0
2, 104340, Note_on_c, 0, 77, 103
2, 104340, Note_on_c, 0, 74, 103
2, 104340, Note_on_c, 0, 60, 86
2, 104341, Control_c, 0, 64, 127
2, 104364, Note_on_c, 0, 60, 0
2, 104364, Note_on_c, 0, 74, 0
2, 104366, Note_on_c, 0, 77, 0
2, 104385, Control_c, 0, 64, 0
2, 104398, Control_c, 0, 64, 127
2, 104400, Note_on_c, 0, 60, 90
2, 104400, Note_on_c, 0, 79, 103
2, 104400, Note_on_c, 0, 76, 99
2, 104418, Note_on_c, 0, 76, 0
2, 104418, Note_on_c, 0, 79, 0
2, 104421, Note_on_c, 0, 60, 0
2, 104446, Control_c, 0, 64, 0
2, 104459, Control_c, 0, 64, 127
2, 104460, Note_on_c, 0, 60, 90
2, 104460, Note_on_c, 0, 81, 99
2, 104460, Note_on_c, 0, 77, 108
2, 104480, Note_on_c, 0, 77, 0
2, 104482, Note_on_c, 0, 81, 0
2, 104485, Note_on_c, 0, 60, 0
2, 104511, Control_c, 0, 64, 0
2, 104520, Note_on_c, 0, 82, 108
2, 104520, Note_on_c, 0, 79, 103
2, 104520, Note_on_c, 0, 60, 95
2, 104527, Control_c, 0, 64, 127
2, 104551, Note_on_c, 0, 60, 0
2, 104568, Note_on_c, 0, 79, 0
2, 104571, Note_on_c, 0, 82, 0
2, 104580, Note_on_c, 0, 60, 86
2, 104595, Note_on_c, 0, 60, 0
2, 104630, Control_c, 0, 64, 0
2, 104640, Note_on_c, 0, 77, 95
2, 104640, Note_on_c, 0, 81, 90
2, 104640, Note_on_c, 0, 60, 90
2, 104646, Control_c, 0, 64, 127
2, 104676, Note_on_c, 0, 60, 0
2, 104691, Note_on_c, 0, 81, 0
2, 104691, Note_on_c, 0, 77, 0
2, 104700, Note_on_c, 0, 60, 90
2, 104715, Note_on_c, 0, 60, 0
2, 104751, Control_c, 0, 64, 0
2, 104760, Note_on_c, 0, 60, 82
2, 104760, Note_on_c, 0, 79, 95
2, 104760, Note_on_c, 0, 76, 99
2, 104766, Control_c, 0, 64, 127
2, 104792, Note_on_c, 0, 76, 0
2, 104792, Note_on_c, 0, 60, 0
2, 104793, Note_on_c, 0, 79, 0
2, 104820, Note_on_c, 0, 60, 82
2, 104835, Note_on_c, 0, 60, 0
2, 104874, Control_c, 0, 64, 0
2, 104880, Note_on_c, 0, 60, 82
2, 104894, Control_c, 0, 64, 127
2, 104916, Note_on_c, 0, 60, 0
2, 104940, Note_on_c, 0, 60, 95
2, 104959, Note_on_c, 0, 60, 0
2, 104995, Control_c, 0, 64, 0
2, 105000, Note_on_c, 0, 81, 103
2, 105000, Note_on_c, 0, 84, 99
2, 105000, Note_on_c, 0, 65, 86
2, 105012, Control_c, 0, 64, 127
2, 105041, Note_on_c, 0, 65, 0
2, 105060, Note_on_c, 0, 65, 62
2, 105063, Note_on_c, 0, 81, 0
2, 105066, Note_on_c, 0, 84, 0
2, 105078, Note_on_c, 0, 65, 0
2, 105120, Note_on_c, 0, 65, 70
2, 105136, Note_on_c, 0, 65, 0
2, 105177, Control_c, 0, 64, 0
2, 105180, Note_on_c, 0, 82, 99
2, 105180, Note_on_c, 0, 65, 86
2, 105180, Note_on_c, 0, 79, 108
2, 105190, Control_c, 0, 64, 127
2, 105201, Note_on_c, 0, 65, 0
2, 105204, Note_on_c, 0, 79, 0
2, 105205, Note_on_c, 0, 82, 0
2, 105235, Control_c, 0, 64, 0
2, 105240, Note_on_c, 0, 77, 103
2, 105240, Note_on_c, 0, 81, 112
2, 105240, Note_on_c, 0, 65, 86
2, 105247, Control_c, 0, 64, 127
2, 105260, Note_on_c, 0, 65, 0
2, 105265, Note_on_c, 0, 77, 0
2, 105275, Note_on_c, 0, 81, 0
2, 105294, Control_c, 0, 64, 0
2, 105300, Note_on_c, 0, 65, 90
2, 105300, Note_on_c, 0, 82, 112
2, 105300, Note_on_c, 0, 79, 123
2, 105306, Control_c, 0, 64, 127
2, 105321, Note_on_c, 0, 65, 0
2, 105330, Note_on_c, 0, 79, 0
2, 105336, Note_on_c, 0, 82, 0
2, 105354, Control_c, 0, 64, 0
2, 105360, Note_on_c, 0, 81, 112
2, 105360, Note_on_c, 0, 84, 108
2, 105360, Note_on_c, 0, 65, 95
2, 105365, Control_c, 0, 64, 127
2, 105381, Note_on_c, 0, 65, 0
2, 105382, Note_on_c, 0, 81, 0
2, 105385, Note_on_c, 0, 84, 0
2, 105409, Control_c, 0, 64, 0
2, 105420, Note_on_c, 0, 86, 112
2, 105420, Note_on_c, 0, 65, 99
2, 105420, Note_on_c, 0, 82, 112
2, 105421, Control_c, 0, 64, 127
2, 105436, Note_on_c, 0, 86, 0
2, 105437, Note_on_c, 0, 65, 0
2, 105439, Note_on_c, 0, 82, 0
2, 105472, Control_c, 0, 64, 0
2, 105480, Note_on_c, 0, 84, 112
2, 105480, Note_on_c, 0, 87, 108
2, 105480, Note_on_c, 0, 65, 95
2, 105488, Control_c, 0, 64, 127
2, 105510, Note_on_c, 0, 65, 0
2, 105522, Note_on_c, 0, 87, 0
2, 105526, Note_on_c, 0, 84, 0
2, 105540, Note_on_c, 0, 65, 86
2, 105556, Note_on_c, 0, 65, 0
2, 105590, Control_c, 0, 64, 0
2, 105600, Note_on_c, 0, 86, 99
2, 105600, Note_on_c, 0, 82, 99
2, 105600, Note_on_c, 0, 65, 90
2, 105605, Control_c, 0, 64, 127
2, 105629, Note_on_c, 0, 65, 0
2, 105644, Note_on_c, 0, 86, 0
2, 105645, Note_on_c, 0, 82, 0
2, 105660, Note_on_c, 0, 65, 82
2, 105677, Note_on_c, 0, 65, 0
2, 105709, Control_c, 0, 64, 0
2, 105720, Note_on_c, 0, 65, 86
2, 105720, Note_on_c, 0, 81, 103
2, 105720, Note_on_c, 0, 84, 86
2, 105726, Control_c, 0, 64, 127
2, 105748, Note_on_c, 0, 65, 0
2, 105762, Note_on_c, 0, 84, 0
2, 105762, Note_on_c, 0, 81, 0
2, 105780, Note_on_c, 0, 65, 86
2, 105795, Note_on_c, 0, 65, 0
2, 105832, Control_c, 0, 64, 0
2, 105840, Note_on_c, 0, 65, 90
2, 105848, Control_c, 0, 64, 127
2, 105861, Note_on_c, 0, 65, 0
2, 105900, Note_on_c, 0, 65, 90
2, 105913, Note_on_c, 0, 65, 0
2, 105953, Control_c, 0, 64, 0
2, 105960, Note_on_c, 0, 70, 74
2, 105960, Note_on_c, 0, 82, 99
2, 105960, Note_on_c, 0, 74, 103
2, 105971, Control_c, 0, 64, 127
2, 105997, Note_on_c, 0, 70, 0
2, 106020, Note_on_c, 0, 70, 74
2, 106048, Note_on_c, 0, 70, 0
2, 106077, Control_c, 0, 64, 0
2, 106080, Note_on_c, 0, 67, 86
2, 106091, Control_c, 0, 64, 127
2, 106112, Note_on_c, 0, 67, 0
2, 106140, Note_on_c, 0, 67, 86
2, 106143, Note_on_c, 0, 82, 0
2, 106146, Note_on_c, 0, 74, 0
2, 106153, Note_on_c, 0, 67, 0
2, 106193, Control_c, 0, 64, 0
2, 106200, Note_on_c, 0, 74, 112
2, 106200, Note_on_c, 0, 82, 103
2, 106200, Note_on_c, 0, 64, 90
2, 106208, Control_c, 0, 64, 127
2, 106235, Note_on_c, 0, 64, 0
2, 106260, Note_on_c, 0, 64, 74
2, 106283, Note_on_c, 0, 82, 0
2, 106286, Note_on_c, 0, 64, 0
2, 106288, Note_on_c, 0, 74, 0
2, 106315, Control_c, 0, 64, 0
2, 106320, Note_on_c, 0, 81, 99
2, 106320, Note_on_c, 0, 72, 99
2, 106320, Note_on_c, 0, 65, 90
2, 106331, Control_c, 0, 64, 127
2, 106349, Note_on_c, 0, 65, 0
2, 106380, Note_on_c, 0, 65, 86
2, 106391, Note_on_c, 0, 65, 0
2, 106393, Note_on_c, 0, 81, 0
2, 106398, Note_on_c, 0, 72, 0
2, 106435, Control_c, 0, 64, 0
2, 106440, Note_on_c, 0, 70, 90
2, 106440, Note_on_c, 0, 81, 99
2, 106440, Note_on_c, 0, 74, 99
2, 106453, Control_c, 0, 64, 127
2, 106483, Note_on_c, 0, 70, 0
2, 106500, Note_on_c, 0, 70, 90
2, 106509, Note_on_c, 0, 74, 0
2, 106512, Note_on_c, 0, 81, 0
2, 106517, Note_on_c, 0, 70, 0
2, 106550, Control_c, 0, 64, 0
2, 106560, Note_on_c, 0, 79, 95
2, 106560, Note_on_c, 0, 70, 95
2, 106560, Note_on_c, 0, 74, 103
2, 106564, Control_c, 0, 64, 127
2, 106587, Note_on_c, 0, 74, 0
2, 106587, Note_on_c, 0, 79, 0
2, 106593, Note_on_c, 0, 70, 0
2, 106607, Control_c, 0, 64, 0
2, 106619, Control_c, 0, 64, 127
2, 106620, Note_on_c, 0, 77, 95
2, 106620, Note_on_c, 0, 71, 95
2, 106620, Note_on_c, 0, 74, 95
2, 106639, Note_on_c, 0, 77, 0
2, 106645, Note_on_c, 0, 71, 0
2, 106652, Note_on_c, 0, 74, 0
2, 106667, Control_c, 0, 64, 0
2, 106680, Note_on_c, 0, 72, 108
2, 106685, Control_c, 0, 64, 127
2, 106790, Control_c, 0, 64, 0
2, 106795, Note_on_c, 0, 72, 0
2, 106800, Note_on_c, 0, 60, 99
2, 106812, Control_c, 0, 64, 127
2, 106852, Note_on_c, 0, 60, 0
2, 106912, Control_c, 0, 64, 0
2, 106920, Note_on_c, 0, 81, 82
2, 106920, Note_on_c, 0, 84, 90
2, 106920, Note_on_c, 0, 65, 67
2, 106932, Control_c, 0, 64, 127
2, 106958, Note_on_c, 0, 65, 0
2, 106980, Note_on_c, 0, 65, 67
2, 106999, Note_on_c, 0, 65, 0
2, 107009, Note_on_c, 0, 81, 0
2, 107011, Note_on_c, 0, 84, 0
2, 107040, Note_on_c, 0, 65, 72
2, 107059, Note_on_c, 0, 65, 0
2, 107100, Note_on_c, 0, 82, 82
2, 107100, Note_on_c, 0, 79, 86
2, 107100, Note_on_c, 0, 65, 67
2, 107112, Note_on_c, 0, 65, 0
2, 107117, Note_on_c, 0, 79, 0
2, 107118, Note_on_c, 0, 82, 0
2, 107156, Control_c, 0, 64, 0
2, 107160, Note_on_c, 0, 65, 72
2, 107160, Note_on_c, 0, 81, 86
2, 107160, Note_on_c, 0, 77, 78
2, 107172, Control_c, 0, 64, 127
2, 107189, Note_on_c, 0, 65, 0
2, 107213, Note_on_c, 0, 77, 0
2, 107213, Note_on_c, 0, 81, 0
2, 107220, Note_on_c, 0, 65, 67
2, 107235, Note_on_c, 0, 65, 0
2, 107271, Control_c, 0, 64, 0
2, 107280, Note_on_c, 0, 65, 72
2, 107280, Note_on_c, 0, 77, 72
2, 107280, Note_on_c, 0, 81, 86
2, 107285, Control_c, 0, 64, 127
2, 107316, Note_on_c, 0, 65, 0
2, 107330, Note_on_c, 0, 81, 0
2, 107332, Note_on_c, 0, 77, 0
2, 107340, Note_on_c, 0, 65, 74
2, 107354, Note_on_c, 0, 65, 0
2, 107393, Control_c, 0, 64, 0
2, 107400, Note_on_c, 0, 77, 86
2, 107400, Note_on_c, 0, 65, 86
2, 107400, Note_on_c, 0, 81, 90
2, 107407, Control_c, 0, 64, 127
2, 107432, Note_on_c, 0, 65, 0
2, 107460, Note_on_c, 0, 65, 74
2, 107479, Note_on_c, 0, 65, 0
2, 107492, Note_on_c, 0, 77, 0
2, 107493, Note_on_c, 0, 81, 0
2, 107520, Note_on_c, 0, 65, 74
2, 107536, Note_on_c, 0, 65, 0
2, 107574, Control_c, 0, 64, 0
2, 107580, Note_on_c, 0, 79, 86
2, 107580, Note_on_c, 0, 65, 78
2, 107580, Note_on_c, 0, 76, 90
2, 107588, Control_c, 0, 64, 127
2, 107606, Note_on_c, 0, 65, 0
2, 107611, Note_on_c, 0, 76, 0
2, 107613, Note_on_c, 0, 79, 0
2, 107634, Control_c, 0, 64, 0
2, 107640, Note_on_c, 0, 74, 86
2, 107640, Note_on_c, 0, 65, 72
2, 107640, Note_on_c, 0, 77, 82
2, 107640, Note_on_c, 0, 77, 74
2, 107640, Note_on_c, 0, 74, 82
2, 107640, Control_c, 0, 64, 127
2, 107640, Note_on_c, 0, 62, 72
2, 107675, Note_on_c, 0, 62, 0
2, 107675, Note_on_c, 0, 65, 0
2, 107688, Note_on_c, 0, 77, 0
2, 107689, Note_on_c, 0, 74, 0
2, 107700, Note_on_c, 0, 62, 69
2, 107715, Note_on_c, 0, 62, 0
2, 107735, Note_on_c, 0, 74, 0
2, 107737, Note_on_c, 0, 77, 0
2, 107760, Note_on_c, 0, 74, 99
2, 107760, Note_on_c, 0, 77, 90
2, 107760, Note_on_c, 0, 62, 66
2, 107780, Note_on_c, 0, 62, 0
2, 107788, Note_on_c, 0, 74, 0
2, 107789, Note_on_c, 0, 77, 0
2, 107820, Note_on_c, 0, 62, 82
2, 107836, Note_on_c, 0, 62, 0
2, 107874, Control_c, 0, 64, 0
2, 107880, Note_on_c, 0, 77, 103
2, 107880, Note_on_c, 0, 74, 103
2, 107880, Note_on_c, 0, 58, 74
2, 107892, Control_c, 0, 64, 127
2, 107918, Note_on_c, 0, 58, 0
2, 107940, Note_on_c, 0, 58, 67
2, 107949, Note_on_c, 0, 74, 0
2, 107952, Note_on_c, 0, 77, 0
2, 107959, Note_on_c, 0, 58, 0
2, 108000, Note_on_c, 0, 58, 70
2, 108017, Note_on_c, 0, 58, 0
2, 108060, Note_on_c, 0, 72, 90
2, 108060, Note_on_c, 0, 75, 78
2, 108060, Note_on_c, 0, 58, 74
2, 108061, Control_c, 0, 64, 0
2, 108077, Control_c, 0, 64, 127
2, 108086, Note_on_c, 0, 58, 0
2, 108087, Note_on_c, 0, 72, 0
2, 108088, Note_on_c, 0, 75, 0
2, 108115, Control_c, 0, 64, 0
2, 108120, Note_on_c, 0, 58, 74
2, 108120, Note_on_c, 0, 74, 108
2, 108120, Note_on_c, 0, 70, 86
2, 108130, Control_c, 0, 64, 127
2, 108147, Note_on_c, 0, 58, 0
2, 108151, Note_on_c, 0, 74, 0
2, 108154, Note_on_c, 0, 70, 0
2, 108180, Note_on_c, 0, 58, 82
2, 108194, Note_on_c, 0, 58, 0
2, 108238, Control_c, 0, 64, 0
2, 108240, Note_on_c, 0, 74, 103
2, 108240, Note_on_c, 0, 82, 99
2, 108240, Note_on_c, 0, 58, 74
2, 108254, Control_c, 0, 64, 127
2, 108268, Note_on_c, 0, 58, 0
2, 108295, Note_on_c, 0, 82, 0
2, 108300, Note_on_c, 0, 58, 82
2, 108304, Note_on_c, 0, 74, 0
2, 108321, Note_on_c, 0, 58, 0
2, 108350, Control_c, 0, 64, 0
2, 108360, Note_on_c, 0, 81, 103
2, 108360, Note_on_c, 0, 60, 86
2, 108360, Note_on_c, 0, 72, 99
2, 108365, Control_c, 0, 64, 127
2, 108380, Note_on_c, 0, 81, 0
2, 108382, Note_on_c, 0, 72, 0
2, 108385, Note_on_c, 0, 60, 0
2, 108420, Note_on_c, 0, 79, 99
2, 108420, Note_on_c, 0, 70, 82
2, 108420, Note_on_c, 0, 60, 90
2, 108434, Note_on_c, 0, 60, 0
2, 108438, Note_on_c, 0, 70, 0
2, 108440, Note_on_c, 0, 79, 0
2, 108469, Control_c, 0, 64, 0
2, 108480, Note_on_c, 0, 60, 82
2, 108480, Note_on_c, 0, 77, 90
2, 108480, Note_on_c, 0, 69, 99
2, 108484, Control_c, 0, 64, 127
2, 108507, Note_on_c, 0, 60, 0
2, 108511, Note_on_c, 0, 77, 0
2, 108514, Note_on_c, 0, 69, 0
2, 108540, Note_on_c, 0, 76, 90
2, 108540, Note_on_c, 0, 67, 95
2, 108540, Note_on_c, 0, 60, 82
2, 108554, Note_on_c, 0, 67, 0
2, 108559, Note_on_c, 0, 60, 0
2, 108562, Note_on_c, 0, 76, 0
2, 108598, Control_c, 0, 64, 0
2, 108600, Note_on_c, 0, 69, 90
2, 108600, Note_on_c, 0, 77, 90
2, 108600, Note_on_c, 0, 72, 90
2, 108600, Note_on_c, 0, 65, 103
2, 108616, Control_c, 0, 64, 127
2, 108720, Control_c, 0, 64, 0
2, 108723, Note_on_c, 0, 65, 0
2, 108725, Note_on_c, 0, 72, 0
2, 108727, Note_on_c, 0, 69, 0
2, 108730, Note_on_c, 0, 77, 0
2, 108840, Note_on_c, 0, 67, 67
2, 108840, Note_on_c, 0, 64, 78
2, 108840, Note_on_c, 0, 79, 99
2, 108858, Control_c, 0, 64, 127
2, 108870, Note_on_c, 0, 76, 86
2, 108872, Note_on_c, 0, 79, 0
2, 108896, Note_on_c, 0, 76, 0
2, 108900, Note_on_c, 0, 79, 86
2, 108930, Note_on_c, 0, 76, 90
2, 108935, Note_on_c, 0, 79, 0
2, 108952, Note_on_c, 0, 76, 0
2, 108960, Note_on_c, 0, 72, 99
2, 108961, Note_on_c, 0, 64, 0
2, 108962, Note_on_c, 0, 67, 0
2, 108965, Control_c, 0, 64, 0
2, 108973, Note_on_c, 0, 72, 0
2, 109020, Note_on_c, 0, 72, 103
2, 109036, Note_on_c, 0, 72, 0
2, 109080, Note_on_c, 0, 77, 90
2, 109080, Note_on_c, 0, 67, 67
2, 109080, Note_on_c, 0, 65, 72
2, 109098, Control_c, 0, 64, 127
2, 109110, Note_on_c, 0, 74, 86
2, 109113, Note_on_c, 0, 77, 0
2, 109135, Note_on_c, 0, 74, 0
2, 109140, Note_on_c, 0, 77, 90
2, 109158, Control_c, 0, 64, 0
2, 109170, Note_on_c, 0, 77, 0
2, 109170, Note_on_c, 0, 74, 82
2, 109184, Note_on_c, 0, 74, 0
2, 109200, Note_on_c, 0, 71, 95
2, 109212, Note_on_c, 0, 71, 0
2, 109260, Note_on_c, 0, 71, 99
2, 109273, Note_on_c, 0, 71, 0
2, 109291, Note_on_c, 0, 67, 0
2, 109303, Note_on_c, 0, 65, 0
2, 109320, Note_on_c, 0, 72, 108
2, 109320, Note_on_c, 0, 67, 86
2, 109320, Note_on_c, 0, 64, 82
2, 109336, Control_c, 0, 64, 127
2, 109350, Note_on_c, 0, 74, 99
2, 109353, Note_on_c, 0, 72, 0
2, 109358, Control_c, 0, 64, 0
2, 109380, Note_on_c, 0, 76, 86
2, 109383, Note_on_c, 0, 74, 0
2, 109409, Note_on_c, 0, 76, 0
2, 109410, Note_on_c, 0, 77, 86
2, 109440, Note_on_c, 0, 79, 112
2, 109441, Note_on_c, 0, 77, 0
2, 109470, Note_on_c, 0, 81, 90
2, 109471, Note_on_c, 0, 79, 0
2, 109483, Control_c, 0, 64, 127
2, 109500, Note_on_c, 0, 83, 103
2, 109502, Note_on_c, 0, 81, 0
2, 109522, Note_on_c, 0, 83, 0
2, 109530, Note_on_c, 0, 84, 103
2, 109544, Note_on_c, 0, 67, 0
2, 109545, Note_on_c, 0, 84, 0
2, 109546, Note_on_c, 0, 64, 0
2, 109560, Note_on_c, 0, 84, 103
2, 109560, Note_on_c, 0, 65, 72
2, 109560, Note_on_c, 0, 67, 72
2, 109566, Control_c, 0, 64, 0
2, 109590, Note_on_c, 0, 83, 95
2, 109595, Note_on_c, 0, 84, 0
2, 109604, Control_c, 0, 64, 127
2, 109620, Note_on_c, 0, 81, 95
2, 109621, Note_on_c, 0, 83, 0
2, 109650, Note_on_c, 0, 79, 90
2, 109657, Note_on_c, 0, 81, 0
2, 109662, Note_on_c, 0, 79, 0
2, 109680, Note_on_c, 0, 79, 108
2, 109683, Control_c, 0, 64, 0
2, 109708, Control_c, 0, 64, 127
2, 109710, Note_on_c, 0, 77, 86
2, 109711, Note_on_c, 0, 79, 0
2, 109740, Note_on_c, 0, 76, 95
2, 109744, Note_on_c, 0, 77, 0
2, 109767, Note_on_c, 0, 76, 0
2, 109769, Note_on_c, 0, 67, 0
2, 109770, Note_on_c, 0, 74, 90
2, 109778, Note_on_c, 0, 65, 0
2, 109789, Note_on_c, 0, 74, 0
2, 109800, Note_on_c, 0, 79, 99
2, 109800, Note_on_c, 0, 67, 82
2, 109800, Note_on_c, 0, 64, 82
2, 109801, Control_c, 0, 64, 0
2, 109824, Control_c, 0, 64, 127
2, 109830, Note_on_c, 0, 76, 99
2, 109835, Note_on_c, 0, 79, 0
2, 109859, Note_on_c, 0, 76, 0
2, 109860, Note_on_c, 0, 79, 99
2, 109882, Control_c, 0, 64, 0
2, 109889, Note_on_c, 0, 79, 0
2, 109890, Note_on_c, 0, 76, 95
2, 109917, Note_on_c, 0, 76, 0
2, 109920, Note_on_c, 0, 72, 103
2, 109932, Note_on_c, 0, 72, 0
2, 109980, Note_on_c, 0, 72, 108
2, 109994, Note_on_c, 0, 72, 0
2, 110005, Note_on_c, 0, 67, 0
2, 110012, Note_on_c, 0, 64, 0
2, 110040, Note_on_c, 0, 67, 78
2, 110040, Note_on_c, 0, 65, 61
2, 110040, Note_on_c, 0, 77, 99
2, 110053, Control_c, 0, 64, 127
2, 110070, Note_on_c, 0, 74, 86
2, 110071, Note_on_c, 0, 77, 0
2, 110098, Note_on_c, 0, 74, 0
2, 110100, Note_on_c, 0, 77, 86
2, 110130, Note_on_c, 0, 74, 86
2, 110132, Note_on_c, 0, 77, 0
2, 110148, Note_on_c, 0, 74, 0
2, 110156, Control_c, 0, 64, 0
2, 110160, Note_on_c, 0, 71, 95
2, 110173, Note_on_c, 0, 71, 0
2, 110220, Note_on_c, 0, 71, 112
2, 110234, Note_on_c, 0, 71, 0
2, 110255, Note_on_c, 0, 67, 0
2, 110261, Note_on_c, 0, 65, 0
2, 110280, Note_on_c, 0, 67, 86
2, 110280, Note_on_c, 0, 72, 117
2, 110280, Note_on_c, 0, 64, 82
2, 110298, Control_c, 0, 64, 127
2, 110309, Note_on_c, 0, 72, 0
2, 110310, Note_on_c, 0, 74, 103
2, 110318, Control_c, 0, 64, 0
2, 110340, Note_on_c, 0, 76, 103
2, 110341, Note_on_c, 0, 74, 0
2, 110341, Control_c, 0, 64, 127
2, 110368, Note_on_c, 0, 76, 0
2, 110370, Note_on_c, 0, 77, 99
2, 110384, Note_on_c, 0, 77, 0
2, 110395, Control_c, 0, 64, 0
2, 110400, Note_on_c, 0, 79, 117
2, 110421, Control_c, 0, 64, 127
2, 110424, Note_on_c, 0, 79, 0
2, 110430, Note_on_c, 0, 81, 99
2, 110454, Note_on_c, 0, 81, 0
2, 110460, Note_on_c, 0, 83, 103
2, 110482, Note_on_c, 0, 83, 0
2, 110490, Note_on_c, 0, 84, 86
2, 110494, Note_on_c, 0, 67, 0
2, 110500, Note_on_c, 0, 64, 0
2, 110502, Note_on_c, 0, 84, 0
2, 110520, Note_on_c, 0, 65, 69
2, 110520, Note_on_c, 0, 67, 82
2, 110520, Note_on_c, 0, 79, 99
2, 110523, Control_c, 0, 64, 0
2, 110550, Note_on_c, 0, 79, 0
2, 110550, Note_on_c, 0, 77, 82
2, 110554, Control_c, 0, 64, 127
2, 110580, Note_on_c, 0, 77, 0
2, 110580, Note_on_c, 0, 76, 95
2, 110610, Note_on_c, 0, 74, 86
2, 110611, Note_on_c, 0, 76, 0
2, 110618, Note_on_c, 0, 67, 0
2, 110621, Note_on_c, 0, 65, 0
2, 110625, Note_on_c, 0, 74, 0
2, 110640, Note_on_c, 0, 64, 74
2, 110640, Note_on_c, 0, 67, 63
2, 110640, Note_on_c, 0, 72, 95
2, 110641, Control_c, 0, 64, 0
2, 110661, Control_c, 0, 64, 127
2, 110680, Note_on_c, 0, 72, 0
2, 110693, Note_on_c, 0, 67, 0
2, 110696, Note_on_c, 0, 64, 0
2, 110749, Control_c, 0, 64, 0
2, 110760, Note_on_c, 0, 77, 103
2, 110760, Note_on_c, 0, 67, 72
2, 110760, Note_on_c, 0, 65, 72
2, 110780, Control_c, 0, 64, 127
2, 110790, Note_on_c, 0, 74, 90
2, 110793, Note_on_c, 0, 77, 0
2, 110817, Note_on_c, 0, 74, 0
2, 110820, Note_on_c, 0, 77, 86
2, 110850, Note_on_c, 0, 77, 0
2, 110850, Note_on_c, 0, 74, 86
2, 110865, Note_on_c, 0, 74, 0
2, 110878, Control_c, 0, 64, 0
2, 110880, Note_on_c, 0, 71, 90
2, 110891, Note_on_c, 0, 71, 0
2, 110940, Note_on_c, 0, 71, 95
2, 110953, Note_on_c, 0, 71, 0
2, 110969, Note_on_c, 0, 65, 0
2, 110969, Note_on_c, 0, 67, 0
2, 111000, Note_on_c, 0, 72, 103
2, 111000, Note_on_c, 0, 67, 82
2, 111000, Note_on_c, 0, 64, 82
2, 111020, Control_c, 0, 64, 127
2, 111030, Note_on_c, 0, 74, 99
2, 111033, Note_on_c, 0, 72, 0
2, 111046, Control_c, 0, 64, 0
2, 111060, Note_on_c, 0, 76, 103
2, 111061, Note_on_c, 0, 74, 0
2, 111064, Control_c, 0, 64, 127
2, 111087, Note_on_c, 0, 76, 0
2, 111090, Note_on_c, 0, 77, 103
2, 111099, Control_c, 0, 64, 0
2, 111118, Note_on_c, 0, 77, 0
2, 111120, Note_on_c, 0, 79, 108
2, 111140, Control_c, 0, 64, 127
2, 111147, Note_on_c, 0, 79, 0
2, 111150, Note_on_c, 0, 81, 103
2, 111177, Note_on_c, 0, 81, 0
2, 111180, Note_on_c, 0, 83, 99
2, 111200, Note_on_c, 0, 83, 0
2, 111210, Note_on_c, 0, 84, 103
2, 111217, Note_on_c, 0, 67, 0
2, 111222, Note_on_c, 0, 64, 0
2, 111223, Note_on_c, 0, 84, 0
2, 111240, Note_on_c, 0, 84, 117
2, 111240, Note_on_c, 0, 67, 74
2, 111240, Note_on_c, 0, 65, 78
2, 111243, Control_c, 0, 64, 0
2, 111270, Control_c, 0, 64, 127
2, 111270, Note_on_c, 0, 83, 103
2, 111271, Note_on_c, 0, 84, 0
2, 111300, Note_on_c, 0, 83, 0
2, 111300, Note_on_c, 0, 81, 99
2, 111328, Note_on_c, 0, 81, 0
2, 111330, Note_on_c, 0, 79, 86
2, 111343, Note_on_c, 0, 79, 0
2, 111360, Note_on_c, 0, 81, 117
2, 111366, Control_c, 0, 64, 0
2, 111386, Control_c, 0, 64, 127
2, 111390, Note_on_c, 0, 81, 0
2, 111390, Note_on_c, 0, 79, 103
2, 111409, Note_on_c, 0, 79, 0
2, 111420, Note_on_c, 0, 81, 103
2, 111440, Note_on_c, 0, 81, 0
2, 111450, Note_on_c, 0, 83, 103
2, 111455, Note_on_c, 0, 67, 0
2, 111459, Note_on_c, 0, 65, 0
2, 111467, Note_on_c, 0, 83, 0
2, 111480, Note_on_c, 0, 64, 74
2, 111480, Note_on_c, 0, 84, 112
2, 111480, Note_on_c, 0, 67, 82
2, 111483, Control_c, 0, 64, 0
2, 111503, Control_c, 0, 64, 127
2, 111508, Note_on_c, 0, 84, 0
2, 111510, Note_on_c, 0, 83, 103
2, 111532, Note_on_c, 0, 83, 0
2, 111540, Note_on_c, 0, 84, 90
2, 111561, Note_on_c, 0, 84, 0
2, 111570, Note_on_c, 0, 86, 108
2, 111586, Note_on_c, 0, 86, 0
2, 111598, Control_c, 0, 64, 0
2, 111600, Note_on_c, 0, 88, 123
2, 111620, Control_c, 0, 64, 127
2, 111660, Note_on_c, 0, 88, 0
2, 111660, Note_on_c, 0, 79, 103
2, 111680, Note_on_c, 0, 79, 0
2, 111680, Note_on_c, 0, 64, 0
2, 111681, Note_on_c, 0, 67, 0
2, 111720, Note_on_c, 0, 67, 69
2, 111720, Note_on_c, 0, 77, 86
2, 111720, Note_on_c, 0, 65, 61
2, 111722, Control_c, 0, 64, 0
2, 111744, Control_c, 0, 64, 127
2, 111750, Note_on_c, 0, 74, 86
2, 111752, Note_on_c, 0, 77, 0
2, 111778, Note_on_c, 0, 74, 0
2, 111780, Note_on_c, 0, 77, 82
2, 111809, Note_on_c, 0, 77, 0
2, 111810, Note_on_c, 0, 74, 86
2, 111831, Note_on_c, 0, 74, 0
2, 111840, Note_on_c, 0, 71, 90
2, 111849, Control_c, 0, 64, 0
2, 111851, Note_on_c, 0, 71, 0
2, 111900, Note_on_c, 0, 71, 103
2, 111913, Note_on_c, 0, 71, 0
2, 111945, Note_on_c, 0, 65, 0
2, 111949, Note_on_c, 0, 67, 0
2, 111960, Note_on_c, 0, 72, 95
2, 111960, Note_on_c, 0, 67, 70
2, 111960, Note_on_c, 0, 64, 74
2, 111978, Control_c, 0, 64, 127
2, 111988, Note_on_c, 0, 72, 0
2, 111990, Note_on_c, 0, 74, 95
2, 112019, Note_on_c, 0, 74, 0
2, 112020, Note_on_c, 0, 76, 99
2, 112048, Note_on_c, 0, 76, 0
2, 112050, Note_on_c, 0, 77, 103
2, 112066, Note_on_c, 0, 77, 0
2, 112080, Note_on_c, 0, 79, 95
2, 112087, Control_c, 0, 64, 0
2, 112102, Control_c, 0, 64, 127
2, 112103, Note_on_c, 0, 79, 0
2, 112110, Note_on_c, 0, 81, 95
2, 112128, Note_on_c, 0, 81, 0
2, 112140, Note_on_c, 0, 83, 108
2, 112155, Note_on_c, 0, 83, 0
2, 112170, Note_on_c, 0, 84, 108
2, 112173, Note_on_c, 0, 67, 0
2, 112175, Note_on_c, 0, 64, 0
2, 112183, Note_on_c, 0, 84, 0
2, 112200, Note_on_c, 0, 67, 74
2, 112200, Note_on_c, 0, 84, 112
2, 112200, Note_on_c, 0, 65, 74
2, 112205, Control_c, 0, 64, 0
2, 112225, Control_c, 0, 64, 127
2, 112226, Note_on_c, 0, 84, 0
2, 112230, Note_on_c, 0, 83, 82
2, 112260, Note_on_c, 0, 81, 103
2, 112261, Note_on_c, 0, 83, 0
2, 112290, Note_on_c, 0, 79, 99
2, 112294, Note_on_c, 0, 81, 0
2, 112300, Note_on_c, 0, 79, 0
2, 112320, Note_on_c, 0, 79, 108
2, 112322, Control_c, 0, 64, 0
2, 112342, Control_c, 0, 64, 127
2, 112350, Note_on_c, 0, 77, 95
2, 112351, Note_on_c, 0, 79, 0
2, 112380, Note_on_c, 0, 76, 95
2, 112381, Note_on_c, 0, 77, 0
2, 112407, Note_on_c, 0, 76, 0
2, 112410, Note_on_c, 0, 74, 90
2, 112419, Note_on_c, 0, 67, 0
2, 112422, Note_on_c, 0, 65, 0
2, 112427, Note_on_c, 0, 74, 0
2, 112440, Note_on_c, 0, 64, 74
2, 112440, Note_on_c, 0, 67, 69
2, 112440, Note_on_c, 0, 76, 95
2, 112443, Control_c, 0, 64, 0
2, 112464, Control_c, 0, 64, 127
2, 112470, Note_on_c, 0, 74, 90
2, 112473, Note_on_c, 0, 76, 0
2, 112491, Note_on_c, 0, 74, 0
2, 112500, Note_on_c, 0, 76, 99
2, 112519, Note_on_c, 0, 76, 0
2, 112530, Note_on_c, 0, 79, 95
2, 112546, Note_on_c, 0, 79, 0
2, 112560, Note_on_c, 0, 72, 117
2, 112564, Control_c, 0, 64, 0
2, 112581, Control_c, 0, 64, 127
2, 112646, Control_c, 0, 64, 0
2, 112680, Note_on_c, 0, 72, 0
2, 112680, Note_on_c, 0, 67, 0
2, 112680, Note_on_c, 0, 64, 0
2, 112680, Note_on_c, 0, 79, 95
2, 112680, Note_on_c, 0, 60, 67
2, 112700, Control_c, 0, 64, 127
2, 112800, Note_on_c, 0, 63, 74
2, 112801, Note_on_c, 0, 60, 0
2, 112850, Note_on_c, 0, 79, 0
2, 112860, Note_on_c, 0, 75, 86
2, 112890, Note_on_c, 0, 72, 66
2, 112896, Note_on_c, 0, 75, 0
2, 112917, Note_on_c, 0, 63, 0
2, 112920, Note_on_c, 0, 72, 0
2, 112920, Note_on_c, 0, 74, 90
2, 112920, Note_on_c, 0, 62, 86
2, 112926, Control_c, 0, 64, 0
2, 112961, Control_c, 0, 64, 127
2, 113035, Note_on_c, 0, 62, 0
2, 113040, Note_on_c, 0, 65, 86
2, 113087, Note_on_c, 0, 74, 0
2, 113096, Note_on_c, 0, 65, 0
2, 113100, Note_on_c, 0, 71, 86
2, 113124, Note_on_c, 0, 71, 0
2, 113130, Note_on_c, 0, 67, 66
2, 113142, Control_c, 0, 64, 0
2, 113158, Note_on_c, 0, 67, 0
2, 113160, Note_on_c, 0, 63, 74
2, 113160, Note_on_c, 0, 72, 99
2, 113176, Control_c, 0, 64, 127
2, 113218, Note_on_c, 0, 72, 0
2, 113220, Note_on_c, 0, 67, 90
2, 113263, Note_on_c, 0, 67, 0
2, 113274, Note_on_c, 0, 63, 0
2, 113278, Control_c, 0, 64, 0
2, 113280, Note_on_c, 0, 60, 86
2, 113280, Note_on_c, 0, 72, 103
2, 113304, Control_c, 0, 64, 127
2, 113336, Note_on_c, 0, 72, 0
2, 113340, Note_on_c, 0, 75, 90
2, 113342, Note_on_c, 0, 60, 0
2, 113380, Note_on_c, 0, 75, 0
2, 113396, Control_c, 0, 64, 0
2, 113400, Note_on_c, 0, 74, 90
2, 113400, Note_on_c, 0, 59, 72
2, 113426, Control_c, 0, 64, 127
2, 113458, Note_on_c, 0, 74, 0
2, 113460, Note_on_c, 0, 67, 90
2, 113470, Note_on_c, 0, 59, 0
2, 113479, Note_on_c, 0, 67, 0
2, 113515, Control_c, 0, 64, 0
2, 113520, Note_on_c, 0, 74, 99
2, 113520, Note_on_c, 0, 67, 86
2, 113543, Control_c, 0, 64, 127
2, 113564, Note_on_c, 0, 67, 0
2, 113580, Note_on_c, 0, 74, 0
2, 113580, Note_on_c, 0, 79, 99
2, 113611, Note_on_c, 0, 79, 0
2, 113639, Control_c, 0, 64, 0
2, 113640, Note_on_c, 0, 72, 86
2, 113640, Note_on_c, 0, 77, 103
2, 113668, Control_c, 0, 64, 127
2, 113700, Note_on_c, 0, 75, 95
2, 113703, Note_on_c, 0, 77, 0
2, 113719, Note_on_c, 0, 75, 0
2, 113730, Note_on_c, 0, 72, 0
2, 113760, Control_c, 0, 64, 0
2, 113760, Note_on_c, 0, 74, 95
2, 113760, Note_on_c, 0, 68, 74
2, 113790, Control_c, 0, 64, 127
2, 113814, Note_on_c, 0, 74, 0
2, 113820, Note_on_c, 0, 72, 82
2, 113826, Note_on_c, 0, 68, 0
2, 113843, Note_on_c, 0, 72, 0
2, 113871, Control_c, 0, 64, 0
2, 113880, Note_on_c, 0, 67, 86
2, 113880, Note_on_c, 0, 74, 90
2, 113896, Control_c, 0, 64, 127
2, 114003, Note_on_c, 0, 74, 0
2, 114004, Note_on_c, 0, 67, 0
2, 114004, Control_c, 0, 64, 0
2, 114120, Note_on_c, 0, 75, 78
2, 114120, Note_on_c, 0, 63, 61
2, 114123, Control_c, 0, 64, 127
2, 114175, Note_on_c, 0, 63, 0
2, 114180, Note_on_c, 0, 70, 72
2, 114190, Note_on_c, 0, 75, 0
2, 114239, Note_on_c, 0, 70, 0
2, 114240, Note_on_c, 0, 67, 82
2, 114300, Note_on_c, 0, 70, 72
2, 114300, Note_on_c, 0, 79, 103
2, 114302, Note_on_c, 0, 67, 0
2, 114315, Note_on_c, 0, 79, 0
2, 114337, Note_on_c, 0, 70, 0
2, 114353, Control_c, 0, 64, 0
2, 114360, Note_on_c, 0, 82, 99
2, 114360, Note_on_c, 0, 65, 82
2, 114384, Control_c, 0, 64, 127
2, 114413, Note_on_c, 0, 82, 0
2, 114416, Note_on_c, 0, 65, 0
2, 114420, Note_on_c, 0, 70, 70
2, 114420, Note_on_c, 0, 80, 99
2, 114420, Control_c, 0, 64, 0
2, 114447, Control_c, 0, 64, 127
2, 114473, Note_on_c, 0, 80, 0
2, 114480, Note_on_c, 0, 68, 86
2, 114483, Note_on_c, 0, 70, 0
2, 114528, Control_c, 0, 64, 0
2, 114537, Note_on_c, 0, 68, 0
2, 114540, Note_on_c, 0, 70, 86
2, 114540, Note_on_c, 0, 77, 95
2, 114551, Control_c, 0, 64, 127
2, 114585, Control_c, 0, 64, 0
2, 114596, Note_on_c, 0, 77, 0
2, 114598, Note_on_c, 0, 70, 0
2, 114600, Note_on_c, 0, 63, 82
2, 114600, Note_on_c, 0, 75, 86
2, 114607, Control_c, 0, 64, 127
2, 114620, Note_on_c, 0, 75, 0
2, 114630, Note_on_c, 0, 77, 95
2, 114642, Control_c, 0, 64, 0
2, 114653, Note_on_c, 0, 63, 0
2, 114656, Note_on_c, 0, 77, 0
2, 114660, Note_on_c, 0, 79, 95
2, 114660, Note_on_c, 0, 70, 70
2, 114674, Control_c, 0, 64, 127
2, 114690, Note_on_c, 0, 79, 0
2, 114690, Note_on_c, 0, 80, 82
2, 114702, Control_c, 0, 64, 0
2, 114715, Note_on_c, 0, 70, 0
2, 114716, Note_on_c, 0, 80, 0
2, 114720, Note_on_c, 0, 82, 95
2, 114720, Note_on_c, 0, 67, 90
2, 114724, Control_c, 0, 64, 127
2, 114740, Note_on_c, 0, 82, 0
2, 114750, Note_on_c, 0, 84, 103
2, 114768, Note_on_c, 0, 84, 0
2, 114772, Control_c, 0, 64, 0
2, 114780, Note_on_c, 0, 86, 95
2, 114780, Note_on_c, 0, 70, 72
2, 114782, Note_on_c, 0, 67, 0
2, 114794, Control_c, 0, 64, 127
2, 114801, Note_on_c, 0, 86, 0
2, 114810, Note_on_c, 0, 87, 99
2, 114824, Control_c, 0, 64, 0
2, 114826, Note_on_c, 0, 87, 0
2, 114826, Note_on_c, 0, 70, 0
2, 114840, Note_on_c, 0, 87, 112
2, 114840, Note_on_c, 0, 65, 90
2, 114850, Control_c, 0, 64, 127
2, 114894, Control_c, 0, 64, 0
2, 114898, Note_on_c, 0, 87, 0
2, 114900, Note_on_c, 0, 65, 0
2, 114900, Note_on_c, 0, 70, 67
2, 114900, Note_on_c, 0, 86, 108
2, 114919, Control_c, 0, 64, 127
2, 114955, Note_on_c, 0, 86, 0
2, 114960, Note_on_c, 0, 68, 90
2, 114964, Note_on_c, 0, 70, 0
2, 114993, Control_c, 0, 64, 0
2, 115020, Note_on_c, 0, 68, 0
2, 115020, Note_on_c, 0, 82, 103
2, 115020, Note_on_c, 0, 70, 74
2, 115027, Control_c, 0, 64, 127
2, 115059, Note_on_c, 0, 82, 0
2, 115077, Control_c, 0, 64, 0
2, 115079, Note_on_c, 0, 70, 0
2, 115080, Note_on_c, 0, 82, 95
2, 115080, Note_on_c, 0, 63, 72
2, 115103, Control_c, 0, 64, 127
2, 115134, Note_on_c, 0, 82, 0
2, 115140, Note_on_c, 0, 63, 0
2, 115140, Note_on_c, 0, 70, 67
2, 115140, Note_on_c, 0, 79, 99
2, 115144, Control_c, 0, 64, 0
2, 115168, Control_c, 0, 64, 127
2, 115200, Note_on_c, 0, 67, 82
2, 115202, Note_on_c, 0, 79, 0
2, 115204, Note_on_c, 0, 70, 0
2, 115248, Control_c, 0, 64, 0
2, 115260, Note_on_c, 0, 70, 72
2, 115260, Note_on_c, 0, 82, 108
2, 115261, Note_on_c, 0, 67, 0
2, 115271, Control_c, 0, 64, 127
2, 115290, Note_on_c, 0, 82, 0
2, 115318, Note_on_c, 0, 70, 0
2, 115320, Note_on_c, 0, 82, 103
2, 115320, Note_on_c, 0, 65, 70
2, 115328, Control_c, 0, 64, 0
2, 115352, Control_c, 0, 64, 127
2, 115370, Note_on_c, 0, 82, 0
2, 115375, Note_on_c, 0, 65, 0
2, 115380, Note_on_c, 0, 70, 70
2, 115380, Note_on_c, 0, 80, 99
2, 115390, Control_c, 0, 64, 0
2, 115414, Control_c, 0, 64, 127
2, 115431, Note_on_c, 0, 80, 0
2, 115440, Note_on_c, 0, 68, 82
2, 115441, Note_on_c, 0, 70, 0
2, 115491, Control_c, 0, 64, 0
2, 115497, Note_on_c, 0, 68, 0
2, 115500, Note_on_c, 0, 70, 70
2, 115500, Note_on_c, 0, 77, 103
2, 115514, Control_c, 0, 64, 127
2, 115531, Note_on_c, 0, 77, 0
2, 115549, Note_on_c, 0, 70, 0
2, 115550, Control_c, 0, 64, 0
2, 115560, Note_on_c, 0, 75, 86
2, 115560, Note_on_c, 0, 63, 82
2, 115573, Control_c, 0, 64, 127
2, 115579, Note_on_c, 0, 75, 0
2, 115590, Note_on_c, 0, 77, 86
2, 115613, Note_on_c, 0, 77, 0
2, 115614, Control_c, 0, 64, 0
2, 115617, Note_on_c, 0, 63, 0
2, 115620, Note_on_c, 0, 79, 99
2, 115620, Note_on_c, 0, 70, 74
2, 115637, Control_c, 0, 64, 127
2, 115643, Note_on_c, 0, 79, 0
2, 115650, Note_on_c, 0, 80, 82
2, 115665, Control_c, 0, 64, 0
2, 115675, Note_on_c, 0, 70, 0
2, 115678, Note_on_c, 0, 80, 0
2, 115680, Note_on_c, 0, 82, 90
2, 115680, Note_on_c, 0, 67, 86
2, 115684, Control_c, 0, 64, 127
2, 115698, Note_on_c, 0, 82, 0
2, 115710, Note_on_c, 0, 84, 99
2, 115728, Note_on_c, 0, 84, 0
2, 115731, Control_c, 0, 64, 0
2, 115740, Note_on_c, 0, 86, 86
2, 115740, Note_on_c, 0, 70, 72
2, 115741, Note_on_c, 0, 67, 0
2, 115751, Control_c, 0, 64, 127
2, 115762, Note_on_c, 0, 86, 0
2, 115770, Note_on_c, 0, 87, 99
2, 115786, Control_c, 0, 64, 0
2, 115787, Note_on_c, 0, 87, 0
2, 115790, Note_on_c, 0, 70, 0
2, 115800, Note_on_c, 0, 87, 99
2, 115800, Note_on_c, 0, 65, 86
2, 115808, Control_c, 0, 64, 127
2, 115854, Note_on_c, 0, 87, 0
2, 115855, Control_c, 0, 64, 0
2, 115858, Note_on_c, 0, 65, 0
2, 115860, Note_on_c, 0, 86, 99
2, 115860, Note_on_c, 0, 70, 70
2, 115878, Control_c, 0, 64, 127
2, 115916, Note_on_c, 0, 86, 0
2, 115920, Note_on_c, 0, 68, 82
2, 115924, Note_on_c, 0, 70, 0
2, 115937, Control_c, 0, 64, 0
2, 115980, Note_on_c, 0, 70, 78
2, 115980, Note_on_c, 0, 86, 103
2, 115982, Control_c, 0, 64, 127
2, 115983, Note_on_c, 0, 68, 0
2, 116017, Note_on_c, 0, 86, 0
2, 116034, Control_c, 0, 64, 0
2, 116039, Note_on_c, 0, 70, 0
2, 116040, Note_on_c, 0, 63, 74
2, 116040, Note_on_c, 0, 87, 99
2, 116058, Control_c, 0, 64, 127
2, 116095, Note_on_c, 0, 87, 0
2, 116100, Note_on_c, 0, 70, 65
2, 116100, Control_c, 0, 64, 0
2, 116100, Note_on_c, 0, 82, 99
2, 116105, Note_on_c, 0, 63, 0
2, 116124, Control_c, 0, 64, 127
2, 116147, Note_on_c, 0, 82, 0
2, 116160, Note_on_c, 0, 70, 0
2, 116160, Note_on_c, 0, 67, 82
2, 116164, Control_c, 0, 64, 0
2, 116194, Control_c, 0, 64, 127
2, 116216, Note_on_c, 0, 67, 0
2, 116220, Note_on_c, 0, 70, 72
2, 116220, Note_on_c, 0, 82, 99
2, 116254, Note_on_c, 0, 82, 0
2, 116254, Note_on_c, 0, 70, 0
2, 116273, Control_c, 0, 64, 0
2, 116280, Note_on_c, 0, 84, 99
2, 116280, Note_on_c, 0, 68, 86
2, 116296, Control_c, 0, 64, 127
2, 116334, Note_on_c, 0, 84, 0
2, 116340, Note_on_c, 0, 68, 0
2, 116340, Note_on_c, 0, 80, 99
2, 116340, Note_on_c, 0, 72, 74
2, 116340, Control_c, 0, 64, 0
2, 116364, Control_c, 0, 64, 127
2, 116383, Note_on_c, 0, 80, 0
2, 116399, Note_on_c, 0, 72, 0
2, 116400, Note_on_c, 0, 68, 82
2, 116403, Control_c, 0, 64, 0
2, 116441, Control_c, 0, 64, 127
2, 116458, Note_on_c, 0, 68, 0
2, 116460, Note_on_c, 0, 72, 82
2, 116460, Note_on_c, 0, 80, 99
2, 116486, Note_on_c, 0, 80, 0
2, 116506, Note_on_c, 0, 72, 0
2, 116516, Control_c, 0, 64, 0
2, 116520, Note_on_c, 0, 70, 86
2, 116520, Note_on_c, 0, 79, 99
2, 116543, Control_c, 0, 64, 127
2, 116576, Note_on_c, 0, 79, 0
2, 116580, Note_on_c, 0, 75, 90
2, 116591, Note_on_c, 0, 70, 0
2, 116598, Note_on_c, 0, 75, 0
2, 116640, Control_c, 0, 64, 0
2, 116640, Note_on_c, 0, 70, 74
2, 116640, Note_on_c, 0, 77, 90
2, 116666, Control_c, 0, 64, 127
2, 116692, Note_on_c, 0, 77, 0
2, 116700, Note_on_c, 0, 74, 90
2, 116701, Note_on_c, 0, 70, 0
2, 116730, Note_on_c, 0, 74, 0
2, 116751, Control_c, 0, 64, 0
2, 116760, Note_on_c, 0, 75, 90
2, 116760, Note_on_c, 0, 67, 72
2, 116776, Control_c, 0, 64, 127
2, 116878, Note_on_c, 0, 75, 0
2, 116879, Control_c, 0, 64, 0
2, 116880, Note_on_c, 0, 67, 0
2, 117000, Note_on_c, 0, 64, 86
2, 117000, Note_on_c, 0, 79, 99
2, 117012, Control_c, 0, 64, 127
2, 117057, Note_on_c, 0, 64, 0
2, 117060, Note_on_c, 0, 72, 74
2, 117110, Note_on_c, 0, 72, 0
2, 117120, Note_on_c, 0, 67, 86
2, 117126, Note_on_c, 0, 79, 0
2, 117180, Note_on_c, 0, 72, 82
2, 117181, Note_on_c, 0, 67, 0
2, 117217, Note_on_c, 0, 72, 0
2, 117235, Control_c, 0, 64, 0
2, 117240, Note_on_c, 0, 65, 86
2, 117240, Note_on_c, 0, 80, 99
2, 117269, Note_on_c, 0, 80, 0
2, 117270, Note_on_c, 0, 82, 78
2, 117278, Control_c, 0, 64, 127
2, 117279, Control_c, 0, 64, 0
2, 117296, Control_c, 0, 64, 127
2, 117300, Note_on_c, 0, 82, 0
2, 117300, Note_on_c, 0, 84, 86
2, 117321, Control_c, 0, 64, 0
2, 117330, Note_on_c, 0, 82, 90
2, 117338, Note_on_c, 0, 84, 0
2, 117360, Note_on_c, 0, 80, 72
2, 117360, Control_c, 0, 64, 127
2, 117363, Note_on_c, 0, 82, 0
2, 117390, Note_on_c, 0, 80, 0
2, 117390, Note_on_c, 0, 79, 86
2, 117409, Note_on_c, 0, 79, 0
2, 117415, Note_on_c, 0, 65, 0
2, 117420, Note_on_c, 0, 77, 60
2, 117440, Note_on_c, 0, 77, 0
2, 117450, Note_on_c, 0, 75, 99
2, 117467, Note_on_c, 0, 75, 0
2, 117469, Control_c, 0, 64, 0
2, 117480, Note_on_c, 0, 77, 90
2, 117480, Note_on_c, 0, 62, 86
2, 117510, Control_c, 0, 64, 127
2, 117540, Note_on_c, 0, 70, 78
2, 117546, Note_on_c, 0, 62, 0
2, 117592, Note_on_c, 0, 70, 0
2, 117600, Note_on_c, 0, 65, 86
2, 117658, Note_on_c, 0, 65, 0
2, 117660, Note_on_c, 0, 70, 74
2, 117666, Note_on_c, 0, 77, 0
2, 117693, Note_on_c, 0, 70, 0
2, 117720, Note_on_c, 0, 63, 74
2, 117720, Note_on_c, 0, 79, 103
2, 117720, Note_on_c, 0, 67, 90
2, 117723, Control_c, 0, 64, 0
2, 117747, Note_on_c, 0, 79, 0
2, 117750, Note_on_c, 0, 80, 78
2, 117778, Control_c, 0, 64, 127
2, 117780, Note_on_c, 0, 82, 90
2, 117782, Note_on_c, 0, 80, 0
2, 117810, Note_on_c, 0, 80, 82
2, 117812, Control_c, 0, 64, 0
2, 117814, Note_on_c, 0, 82, 0
2, 117835, Note_on_c, 0, 80, 0
2, 117840, Note_on_c, 0, 79, 99
2, 117851, Note_on_c, 0, 67, 0
2, 117852, Note_on_c, 0, 63, 0
2, 117866, Note_on_c, 0, 79, 0
2, 117870, Note_on_c, 0, 77, 90
2, 117893, Control_c, 0, 64, 127
2, 117898, Note_on_c, 0, 77, 0
2, 117900, Note_on_c, 0, 75, 95
2, 117924, Note_on_c, 0, 75, 0
2, 117930, Note_on_c, 0, 74, 86
2, 117945, Control_c, 0, 64, 0
2, 117950, Note_on_c, 0, 74, 0
2, 117960, Note_on_c, 0, 79, 90
2, 117960, Note_on_c, 0, 60, 86
2, 117977, Control_c, 0, 64, 127
2, 118020, Note_on_c, 0, 79, 0
2, 118020, Note_on_c, 0, 75, 86
2, 118020, Control_c, 0, 64, 0
2, 118020, Note_on_c, 0, 67, 74
2, 118027, Note_on_c, 0, 60, 0
2, 118048, Control_c, 0, 64, 127
2, 118074, Note_on_c, 0, 75, 0
2, 118080, Note_on_c, 0, 63, 72
2, 118082, Note_on_c, 0, 67, 0
2, 118088, Control_c, 0, 64, 0
2, 118116, Control_c, 0, 64, 127
2, 118140, Note_on_c, 0, 79, 99
2, 118140, Note_on_c, 0, 67, 82
2, 118141, Note_on_c, 0, 63, 0
2, 118158, Note_on_c, 0, 79, 0
2, 118187, Note_on_c, 0, 67, 0
2, 118197, Control_c, 0, 64, 0
2, 118200, Note_on_c, 0, 79, 99
2, 118200, Note_on_c, 0, 62, 86
2, 118224, Control_c, 0, 64, 127
2, 118257, Note_on_c, 0, 79, 0
2, 118260, Note_on_c, 0, 62, 0
2, 118260, Note_on_c, 0, 67, 72
2, 118260, Note_on_c, 0, 77, 90
2, 118263, Control_c, 0, 64, 0
2, 118289, Control_c, 0, 64, 127
2, 118319, Note_on_c, 0, 77, 0
2, 118319, Note_on_c, 0, 67, 0
2, 118320, Note_on_c, 0, 65, 82
2, 118328, Control_c, 0, 64, 0
2, 118351, Control_c, 0, 64, 127
2, 118380, Note_on_c, 0, 74, 95
2, 118380, Note_on_c, 0, 67, 72
2, 118384, Note_on_c, 0, 65, 0
2, 118436, Control_c, 0, 64, 0
2, 118437, Note_on_c, 0, 67, 0
2, 118438, Note_on_c, 0, 74, 0
2, 118440, Note_on_c, 0, 72, 82
2, 118440, Note_on_c, 0, 60, 82
2, 118463, Control_c, 0, 64, 127
2, 118470, Note_on_c, 0, 74, 86
2, 118471, Note_on_c, 0, 72, 0
2, 118497, Note_on_c, 0, 74, 0
2, 118499, Note_on_c, 0, 60, 0
2, 118500, Note_on_c, 0, 75, 82
2, 118500, Note_on_c, 0, 67, 86
2, 118521, Note_on_c, 0, 75, 0
2, 118530, Note_on_c, 0, 77, 99
2, 118550, Note_on_c, 0, 77, 0
2, 118550, Note_on_c, 0, 67, 0
2, 118557, Control_c, 0, 64, 0
2, 118560, Note_on_c, 0, 79, 90
2, 118560, Note_on_c, 0, 63, 78
2, 118585, Control_c, 0, 64, 127
2, 118586, Note_on_c, 0, 79, 0
2, 118590, Note_on_c, 0, 81, 82
2, 118611, Note_on_c, 0, 81, 0
2, 118618, Note_on_c, 0, 63, 0
2, 118620, Note_on_c, 0, 83, 99
2, 118620, Note_on_c, 0, 67, 86
2, 118642, Note_on_c, 0, 83, 0
2, 118650, Note_on_c, 0, 84, 69
2, 118661, Note_on_c, 0, 67, 0
2, 118669, Note_on_c, 0, 84, 0
2, 118677, Control_c, 0, 64, 0
2, 118680, Note_on_c, 0, 84, 95
2, 118680, Note_on_c, 0, 62, 86
2, 118705, Control_c, 0, 64, 127
2, 118737, Note_on_c, 0, 84, 0
2, 118738, Control_c, 0, 64, 0
2, 118739, Note_on_c, 0, 62, 0
2, 118740, Note_on_c, 0, 67, 72
2, 118740, Note_on_c, 0, 83, 99
2, 118764, Control_c, 0, 64, 127
2, 118793, Note_on_c, 0, 83, 0
2, 118800, Note_on_c, 0, 65, 86
2, 118801, Note_on_c, 0, 67, 0
2, 118813, Control_c, 0, 64, 0
2, 118844, Control_c, 0, 64, 127
2, 118860, Note_on_c, 0, 79, 99
2, 118860, Note_on_c, 0, 67, 74
2, 118866, Note_on_c, 0, 65, 0
2, 118880, Note_on_c, 0, 79, 0
2, 118916, Note_on_c, 0, 67, 0
2, 118917, Control_c, 0, 64, 0
2, 118920, Note_on_c, 0, 60, 72
2, 118920, Note_on_c, 0, 79, 90
2, 118943, Control_c, 0, 64, 127
2, 118980, Note_on_c, 0, 67, 65
2, 118980, Note_on_c, 0, 75, 78
2, 118983, Note_on_c, 0, 79, 0
2, 118983, Control_c, 0, 64, 0
2, 118984, Note_on_c, 0, 60, 0
2, 119008, Control_c, 0, 64, 127
2, 119030, Note_on_c, 0, 75, 0
2, 119040, Note_on_c, 0, 63, 70
2, 119043, Note_on_c, 0, 67, 0
2, 119064, Control_c, 0, 64, 0
2, 119097, Control_c, 0, 64, 127
2, 119100, Note_on_c, 0, 67, 74
2, 119100, Note_on_c, 0, 79, 86
2, 119102, Note_on_c, 0, 63, 0
2, 119121, Note_on_c, 0, 79, 0
2, 119154, Note_on_c, 0, 67, 0
2, 119160, Note_on_c, 0, 62, 70
2, 119160, Note_on_c, 0, 79, 86
2, 119161, Control_c, 0, 64, 0
2, 119188, Control_c, 0, 64, 127
2, 119215, Note_on_c, 0, 79, 0
2, 119215, Note_on_c, 0, 62, 0
2, 119220, Note_on_c, 0, 67, 70
2, 119220, Note_on_c, 0, 77, 78
2, 119229, Control_c, 0, 64, 0
2, 119260, Control_c, 0, 64, 127
2, 119280, Note_on_c, 0, 65, 82
2, 119288, Note_on_c, 0, 67, 0
2, 119318, Note_on_c, 0, 77, 0
2, 119324, Control_c, 0, 64, 0
2, 119339, Note_on_c, 0, 65, 0
2, 119340, Note_on_c, 0, 67, 86
2, 119340, Note_on_c, 0, 74, 95
2, 119349, Control_c, 0, 64, 127
2, 119389, Note_on_c, 0, 74, 0
2, 119394, Control_c, 0, 64, 0
2, 119395, Note_on_c, 0, 67, 0
2, 119400, Note_on_c, 0, 72, 86
2, 119400, Note_on_c, 0, 60, 90
2, 119425, Control_c, 0, 64, 127
2, 119430, Note_on_c, 0, 74, 86
2, 119432, Note_on_c, 0, 72, 0
2, 119452, Control_c, 0, 64, 0
2, 119457, Note_on_c, 0, 74, 0
2, 119460, Note_on_c, 0, 60, 0
2, 119460, Note_on_c, 0, 75, 78
2, 119460, Note_on_c, 0, 67, 86
2, 119474, Control_c, 0, 64, 127
2, 119485, Note_on_c, 0, 75, 0
2, 119490, Note_on_c, 0, 77, 103
2, 119505, Control_c, 0, 64, 0
2, 119509, Note_on_c, 0, 77, 0
2, 119515, Note_on_c, 0, 67, 0
2, 119520, Note_on_c, 0, 79, 86
2, 119520, Note_on_c, 0, 63, 78
2, 119531, Control_c, 0, 64, 127
2, 119542, Note_on_c, 0, 79, 0
2, 119550, Note_on_c, 0, 81, 86
2, 119564, Control_c, 0, 64, 0
2, 119570, Note_on_c, 0, 81, 0
2, 119576, Note_on_c, 0, 63, 0
2, 119580, Note_on_c, 0, 83, 90
2, 119580, Note_on_c, 0, 67, 86
2, 119587, Control_c, 0, 64, 127
2, 119601, Note_on_c, 0, 83, 0
2, 119610, Note_on_c, 0, 84, 90
2, 119618, Control_c, 0, 64, 0
2, 119623, Note_on_c, 0, 67, 0
2, 119626, Note_on_c, 0, 84, 0
2, 119640, Note_on_c, 0, 62, 86
2, 119640, Note_on_c, 0, 84, 86
2, 119642, Control_c, 0, 64, 127
2, 119689, Note_on_c, 0, 84, 0
2, 119694, Control_c, 0, 64, 0
2, 119700, Note_on_c, 0, 62, 0
2, 119700, Note_on_c, 0, 83, 99
2, 119700, Note_on_c, 0, 67, 72
2, 119720, Control_c, 0, 64, 127
2, 119760, Note_on_c, 0, 67, 0
2, 119760, Note_on_c, 0, 65, 82
2, 119761, Note_on_c, 0, 83, 0
2, 119802, Control_c, 0, 64, 0
2, 119820, Note_on_c, 0, 83, 99
2, 119820, Note_on_c, 0, 67, 86
2, 119825, Control_c, 0, 64, 127
2, 119832, Note_on_c, 0, 65, 0
2, 119860, Note_on_c, 0, 83, 0
2, 119868, Control_c, 0, 64, 0
2, 119878, Note_on_c, 0, 67, 0
2, 119880, Note_on_c, 0, 60, 90
2, 119880, Note_on_c, 0, 84, 99
2, 119895, Control_c, 0, 64, 127
2, 119939, Note_on_c, 0, 84, 0
2, 119940, Control_c, 0, 64, 0
2, 119940, Note_on_c, 0, 67, 74
2, 119940, Note_on_c, 0, 79, 99
2, 119947, Note_on_c, 0, 60, 0
2, 119966, Control_c, 0, 64, 127
2, 119994, Note_on_c, 0, 79, 0
2, 120000, Note_on_c, 0, 63, 74
2, 120004, Note_on_c, 0, 67, 0
2, 120012, Control_c, 0, 64, 0
2, 120055, Control_c, 0, 64, 127
2, 120059, Note_on_c, 0, 63, 0
2, 120060, Note_on_c, 0, 67, 82
2, 120060, Note_on_c, 0, 79, 99
2, 120110, Note_on_c, 0, 79, 0
2, 120117, Note_on_c, 0, 67, 0
2, 120117, Control_c, 0, 64, 0
2, 120120, Note_on_c, 0, 80, 99
2, 120120, Note_on_c, 0, 65, 90
2, 120143, Control_c, 0, 64, 127
2, 120176, Note_on_c, 0, 80, 0
2, 120180, Note_on_c, 0, 77, 95
2, 120180, Note_on_c, 0, 68, 74
2, 120182, Note_on_c, 0, 65, 0
2, 120187, Control_c, 0, 64, 0
2, 120211, Control_c, 0, 64, 127
2, 120231, Note_on_c, 0, 77, 0
2, 120239, Note_on_c, 0, 68, 0
2, 120240, Note_on_c, 0, 65, 82
2, 120289, Note_on_c, 0, 65, 0
2, 120289, Control_c, 0, 64, 0
2, 120300, Note_on_c, 0, 68, 82
2, 120300, Note_on_c, 0, 77, 95
2, 120316, Control_c, 0, 64, 127
2, 120331, Note_on_c, 0, 77, 0
2, 120334, Note_on_c, 0, 68, 0
2, 120359, Control_c, 0, 64, 0
2, 120360, Note_on_c, 0, 75, 95
2, 120360, Note_on_c, 0, 67, 95
2, 120386, Control_c, 0, 64, 127
2, 120420, Note_on_c, 0, 72, 90
2, 120426, Note_on_c, 0, 75, 0
2, 120439, Note_on_c, 0, 72, 0
2, 120441, Note_on_c, 0, 67, 0
2, 120471, Control_c, 0, 64, 0
2, 120480, Note_on_c, 0, 67, 86
2, 120480, Note_on_c, 0, 74, 86
2, 120480, Note_on_c, 0, 77, 86
2, 120501, Control_c, 0, 64, 127
2, 120517, Note_on_c, 0, 74, 0
2, 120518, Note_on_c, 0, 77, 0
2, 120540, Note_on_c, 0, 71, 86
2, 120540, Note_on_c, 0, 74, 99
2, 120552, Note_on_c, 0, 67, 0
2, 120560, Note_on_c, 0, 74, 0
2, 120565, Note_on_c, 0, 71, 0
2, 120594, Control_c, 0, 64, 0
2, 120600, Note_on_c, 0, 72, 90
2, 120600, Note_on_c, 0, 63, 86
2, 120618, Control_c, 0, 64, 127
2, 120716, Note_on_c, 0, 72, 0
2, 120721, Note_on_c, 0, 63, 0
2, 120724, Control_c, 0, 64, 0
2, 120840, Note_on_c, 0, 79, 103
2, 120840, Note_on_c, 0, 64, 82
2, 120840, Note_on_c, 0, 67, 82
2, 120854, Control_c, 0, 64, 127
2, 120869, Note_on_c, 0, 79, 0
2, 120870, Note_on_c, 0, 76, 74
2, 120893, Note_on_c, 0, 76, 0
2, 120900, Note_on_c, 0, 79, 86
2, 120926, Note_on_c, 0, 79, 0
2, 120929, Control_c, 0, 64, 0
2, 120930, Note_on_c, 0, 76, 78
2, 120946, Note_on_c, 0, 76, 0
2, 120960, Note_on_c, 0, 72, 86
2, 120976, Note_on_c, 0, 72, 0
2, 121020, Note_on_c, 0, 72, 90
2, 121035, Note_on_c, 0, 72, 0
2, 121050, Note_on_c, 0, 67, 0
2, 121056, Note_on_c, 0, 64, 0
2, 121080, Note_on_c, 0, 77, 95
2, 121080, Note_on_c, 0, 67, 72
2, 121080, Note_on_c, 0, 65, 82
2, 121095, Control_c, 0, 64, 127
2, 121103, Note_on_c, 0, 77, 0
2, 121110, Note_on_c, 0, 74, 82
2, 121130, Note_on_c, 0, 74, 0
2, 121140, Note_on_c, 0, 77, 82
2, 121162, Note_on_c, 0, 77, 0
2, 121170, Note_on_c, 0, 74, 86
2, 121170, Control_c, 0, 64, 0
2, 121186, Note_on_c, 0, 74, 0
2, 121200, Note_on_c, 0, 71, 95
2, 121216, Note_on_c, 0, 71, 0
2, 121260, Note_on_c, 0, 71, 99
2, 121274, Note_on_c, 0, 71, 0
2, 121290, Note_on_c, 0, 67, 0
2, 121291, Note_on_c, 0, 65, 0
2, 121320, Note_on_c, 0, 72, 103
2, 121320, Note_on_c, 0, 64, 74
2, 121320, Note_on_c, 0, 67, 72
2, 121339, Control_c, 0, 64, 127
2, 121347, Note_on_c, 0, 72, 0
2, 121350, Note_on_c, 0, 74, 86
2, 121375, Note_on_c, 0, 74, 0
2, 121376, Control_c, 0, 64, 0
2, 121380, Note_on_c, 0, 76, 95
2, 121401, Note_on_c, 0, 76, 0
2, 121410, Note_on_c, 0, 77, 103
2, 121430, Note_on_c, 0, 77, 0
2, 121431, Control_c, 0, 64, 127
2, 121440, Note_on_c, 0, 79, 99
2, 121458, Note_on_c, 0, 79, 0
2, 121470, Note_on_c, 0, 81, 103
2, 121487, Note_on_c, 0, 81, 0
2, 121500, Note_on_c, 0, 83, 103
2, 121517, Note_on_c, 0, 83, 0
2, 121530, Note_on_c, 0, 84, 99
2, 121535, Note_on_c, 0, 67, 0
2, 121539, Note_on_c, 0, 64, 0
2, 121545, Note_on_c, 0, 84, 0
2, 121558, Control_c, 0, 64, 0
2, 121560, Note_on_c, 0, 84, 108
2, 121560, Note_on_c, 0, 67, 82
2, 121560, Note_on_c, 0, 65, 82
2, 121584, Note_on_c, 0, 84, 0
2, 121590, Note_on_c, 0, 83, 90
2, 121594, Control_c, 0, 64, 127
2, 121617, Note_on_c, 0, 83, 0
2, 121620, Note_on_c, 0, 81, 99
2, 121642, Note_on_c, 0, 81, 0
2, 121650, Note_on_c, 0, 79, 99
2, 121662, Note_on_c, 0, 79, 0
2, 121670, Control_c, 0, 64, 0
2, 121680, Note_on_c, 0, 79, 103
2, 121706, Control_c, 0, 64, 127
2, 121710, Note_on_c, 0, 77, 86
2, 121715, Note_on_c, 0, 79, 0
2, 121731, Note_on_c, 0, 77, 0
2, 121740, Note_on_c, 0, 76, 99
2, 121762, Note_on_c, 0, 76, 0
2, 121770, Note_on_c, 0, 74, 99
2, 121771, Note_on_c, 0, 67, 0
2, 121774, Note_on_c, 0, 65, 0
2, 121785, Note_on_c, 0, 74, 0
2, 121794, Control_c, 0, 64, 0
2, 121800, Note_on_c, 0, 79, 90
2, 121800, Note_on_c, 0, 67, 63
2, 121800, Note_on_c, 0, 64, 70
2, 121827, Note_on_c, 0, 79, 0
2, 121830, Note_on_c, 0, 76, 86
2, 121832, Control_c, 0, 64, 127
2, 121849, Note_on_c, 0, 76, 0
2, 121860, Note_on_c, 0, 79, 72
2, 121890, Note_on_c, 0, 76, 70
2, 121893, Note_on_c, 0, 79, 0
2, 121904, Control_c, 0, 64, 0
2, 121905, Note_on_c, 0, 76, 0
2, 121920, Note_on_c, 0, 72, 90
2, 121936, Note_on_c, 0, 72, 0
2, 121980, Note_on_c, 0, 72, 82
2, 121995, Note_on_c, 0, 72, 0
2, 122009, Note_on_c, 0, 67, 0
2, 122013, Note_on_c, 0, 64, 0
2, 122040, Note_on_c, 0, 77, 86
2, 122040, Note_on_c, 0, 65, 72
2, 122040, Note_on_c, 0, 67, 70
2, 122051, Control_c, 0, 64, 127
2, 122062, Note_on_c, 0, 77, 0
2, 122070, Note_on_c, 0, 74, 72
2, 122089, Note_on_c, 0, 74, 0
2, 122100, Note_on_c, 0, 77, 82
2, 122123, Note_on_c, 0, 77, 0
2, 122130, Note_on_c, 0, 74, 86
2, 122143, Note_on_c, 0, 74, 0
2, 122154, Control_c, 0, 64, 0
2, 122160, Note_on_c, 0, 71, 90
2, 122175, Note_on_c, 0, 71, 0
2, 122220, Note_on_c, 0, 71, 90
2, 122233, Note_on_c, 0, 71, 0
2, 122245, Note_on_c, 0, 67, 0
2, 122248, Note_on_c, 0, 65, 0
2, 122280, Note_on_c, 0, 72, 78
2, 122280, Note_on_c, 0, 64, 67
2, 122280, Note_on_c, 0, 67, 67
2, 122304, Control_c, 0, 64, 127
2, 122310, Note_on_c, 0, 74, 82
2, 122313, Note_on_c, 0, 72, 0
2, 122338, Note_on_c, 0, 74, 0
2, 122340, Note_on_c, 0, 76, 86
2, 122358, Note_on_c, 0, 76, 0
2, 122370, Note_on_c, 0, 77, 99
2, 122389, Note_on_c, 0, 77, 0
2, 122400, Note_on_c, 0, 79, 99
2, 122418, Note_on_c, 0, 79, 0
2, 122430, Note_on_c, 0, 81, 103
2, 122446, Note_on_c, 0, 81, 0
2, 122460, Note_on_c, 0, 83, 99
2, 122479, Note_on_c, 0, 83, 0
2, 122490, Note_on_c, 0, 84, 99
2, 122493, Note_on_c, 0, 67, 0
2, 122499, Note_on_c, 0, 64, 0
2, 122502, Note_on_c, 0, 84, 0
2, 122520, Note_on_c, 0, 67, 69
2, 122520, Note_on_c, 0, 65, 82
2, 122520, Note_on_c, 0, 79, 108
2, 122529, Control_c, 0, 64, 0
2, 122548, Note_on_c, 0, 79, 0
2, 122550, Note_on_c, 0, 77, 82
2, 122565, Control_c, 0, 64, 127
2, 122573, Note_on_c, 0, 77, 0
2, 122580, Note_on_c, 0, 76, 90
2, 122604, Note_on_c, 0, 76, 0
2, 122610, Note_on_c, 0, 74, 99
2, 122615, Note_on_c, 0, 67, 0
2, 122618, Note_on_c, 0, 65, 0
2, 122628, Note_on_c, 0, 74, 0
2, 122640, Note_on_c, 0, 64, 72
2, 122640, Note_on_c, 0, 72, 99
2, 122640, Note_on_c, 0, 67, 72
2, 122641, Control_c, 0, 64, 0
2, 122668, Control_c, 0, 64, 127
2, 122686, Note_on_c, 0, 72, 0
2, 122701, Note_on_c, 0, 67, 0
2, 122703, Note_on_c, 0, 64, 0
2, 122736, Control_c, 0, 64, 0
2, 122760, Note_on_c, 0, 77, 90
2, 122760, Note_on_c, 0, 67, 72
2, 122760, Note_on_c, 0, 65, 72
2, 122775, Control_c, 0, 64, 127
2, 122785, Note_on_c, 0, 77, 0
2, 122790, Note_on_c, 0, 74, 82
2, 122810, Note_on_c, 0, 74, 0
2, 122820, Note_on_c, 0, 77, 78
2, 122845, Note_on_c, 0, 77, 0
2, 122850, Note_on_c, 0, 74, 70
2, 122867, Note_on_c, 0, 74, 0
2, 122880, Note_on_c, 0, 71, 95
2, 122887, Control_c, 0, 64, 0
2, 122894, Note_on_c, 0, 71, 0
2, 122940, Note_on_c, 0, 71, 90
2, 122955, Note_on_c, 0, 71, 0
2, 122967, Note_on_c, 0, 67, 0
2, 122973, Note_on_c, 0, 65, 0
2, 123000, Note_on_c, 0, 72, 99
2, 123000, Note_on_c, 0, 67, 74
2, 123000, Note_on_c, 0, 64, 74
2, 123022, Control_c, 0, 64, 127
2, 123027, Note_on_c, 0, 72, 0
2, 123030, Note_on_c, 0, 74, 86
2, 123052, Control_c, 0, 64, 0
2, 123059, Note_on_c, 0, 74, 0
2, 123060, Note_on_c, 0, 76, 95
2, 123073, Control_c, 0, 64, 127
2, 123081, Note_on_c, 0, 76, 0
2, 123090, Note_on_c, 0, 77, 82
2, 123108, Note_on_c, 0, 77, 0
2, 123120, Note_on_c, 0, 79, 103
2, 123138, Note_on_c, 0, 79, 0
2, 123150, Note_on_c, 0, 81, 99
2, 123166, Note_on_c, 0, 81, 0
2, 123180, Note_on_c, 0, 83, 99
2, 123198, Note_on_c, 0, 83, 0
2, 123210, Note_on_c, 0, 84, 103
2, 123218, Note_on_c, 0, 67, 0
2, 123220, Note_on_c, 0, 64, 0
2, 123225, Note_on_c, 0, 84, 0
2, 123240, Note_on_c, 0, 67, 78
2, 123240, Note_on_c, 0, 84, 99
2, 123240, Note_on_c, 0, 65, 82
2, 123250, Control_c, 0, 64, 0
2, 123264, Note_on_c, 0, 84, 0
2, 123270, Note_on_c, 0, 83, 90
2, 123283, Control_c, 0, 64, 127
2, 123300, Note_on_c, 0, 81, 82
2, 123308, Note_on_c, 0, 83, 0
2, 123327, Note_on_c, 0, 81, 0
2, 123330, Note_on_c, 0, 79, 90
2, 123343, Note_on_c, 0, 79, 0
2, 123360, Note_on_c, 0, 81, 99
2, 123370, Control_c, 0, 64, 0
2, 123380, Note_on_c, 0, 81, 0
2, 123390, Note_on_c, 0, 79, 95
2, 123393, Control_c, 0, 64, 127
2, 123409, Note_on_c, 0, 79, 0
2, 123420, Note_on_c, 0, 81, 72
2, 123439, Note_on_c, 0, 81, 0
2, 123450, Note_on_c, 0, 83, 103
2, 123467, Note_on_c, 0, 83, 0
2, 123468, Note_on_c, 0, 65, 0
2, 123468, Note_on_c, 0, 67, 0
2, 123480, Note_on_c, 0, 84, 99
2, 123480, Note_on_c, 0, 64, 90
2, 123480, Note_on_c, 0, 67, 90
2, 123489, Control_c, 0, 64, 0
2, 123504, Note_on_c, 0, 84, 0
2, 123510, Note_on_c, 0, 83, 90
2, 123520, Control_c, 0, 64, 127
2, 123529, Note_on_c, 0, 83, 0
2, 123540, Note_on_c, 0, 84, 86
2, 123562, Note_on_c, 0, 84, 0
2, 123570, Note_on_c, 0, 86, 103
2, 123586, Note_on_c, 0, 86, 0
2, 123600, Note_on_c, 0, 88, 117
2, 123603, Control_c, 0, 64, 0
2, 123629, Control_c, 0, 64, 127
2, 123632, Note_on_c, 0, 88, 0
2, 123660, Note_on_c, 0, 79, 117
2, 123675, Control_c, 0, 64, 0
2, 123679, Note_on_c, 0, 79, 0
2, 123685, Note_on_c, 0, 67, 0
2, 123692, Note_on_c, 0, 64, 0
2, 123720, Note_on_c, 0, 77, 99
2, 123720, Note_on_c, 0, 67, 95
2, 123720, Note_on_c, 0, 65, 95
2, 123733, Control_c, 0, 64, 127
2, 123750, Note_on_c, 0, 74, 90
2, 123752, Note_on_c, 0, 77, 0
2, 123774, Note_on_c, 0, 74, 0
2, 123780, Note_on_c, 0, 77, 86
2, 123810, Note_on_c, 0, 74, 90
2, 123811, Note_on_c, 0, 77, 0
2, 123824, Note_on_c, 0, 74, 0
2, 123840, Note_on_c, 0, 71, 99
2, 123854, Note_on_c, 0, 71, 0
2, 123867, Control_c, 0, 64, 0
2, 123900, Note_on_c, 0, 71, 117
2, 123914, Note_on_c, 0, 71, 0
2, 123936, Note_on_c, 0, 65, 0
2, 123939, Note_on_c, 0, 67, 0
2, 124200, Note_on_c, 0, 76, 103
2, 124200, Note_on_c, 0, 79, 99
2, 124200, Note_on_c, 0, 60, 86
2, 124200, Note_on_c, 0, 64, 86
2, 124219, Control_c, 0, 64, 127
2, 124262, Note_on_c, 0, 60, 0
2, 124267, Note_on_c, 0, 64, 0
2, 124268, Note_on_c, 0, 79, 0
2, 124268, Note_on_c, 0, 76, 0
2, 124318, Control_c, 0, 64, 0
2, 124320, Note_on_c, 0, 74, 99
2, 124320, Note_on_c, 0, 77, 99
2, 124320, Note_on_c, 0, 62, 86
2, 124320, Note_on_c, 0, 65, 90
2, 124346, Control_c, 0, 64, 127
2, 124375, Note_on_c, 0, 62, 0
2, 124376, Note_on_c, 0, 65, 0
2, 124380, Note_on_c, 0, 74, 0
2, 124381, Note_on_c, 0, 77, 0
2, 124435, Control_c, 0, 64, 0
2, 124440, Note_on_c, 0, 76, 99
2, 124440, Note_on_c, 0, 72, 90
2, 124440, Note_on_c, 0, 64, 86
2, 124440, Note_on_c, 0, 67, 78
2, 124462, Control_c, 0, 64, 127
2, 124496, Note_on_c, 0, 67, 0
2, 124501, Note_on_c, 0, 64, 0
2, 124502, Note_on_c, 0, 76, 0
2, 124504, Note_on_c, 0, 72, 0
2, 124556, Control_c, 0, 64, 0
2, 124560, Note_on_c, 0, 71, 99
2, 124560, Note_on_c, 0, 74, 99
2, 124560, Note_on_c, 0, 67, 86
2, 124560, Note_on_c, 0, 65, 86
2, 124591, Control_c, 0, 64, 127
2, 124670, Note_on_c, 0, 67, 0
2, 124672, Note_on_c, 0, 65, 0
2, 124675, Note_on_c, 0, 71, 0
2, 124682, Note_on_c, 0, 74, 0
2, 124736, Control_c, 0, 64, 0
2, 124740, Note_on_c, 0, 72, 90
2, 124740, Note_on_c, 0, 76, 99
2, 124740, Note_on_c, 0, 67, 82
2, 124740, Note_on_c, 0, 64, 86
2, 124758, Control_c, 0, 64, 127
2, 124784, Note_on_c, 0, 64, 0
2, 124785, Note_on_c, 0, 72, 0
2, 124787, Note_on_c, 0, 76, 0
2, 124789, Note_on_c, 0, 67, 0
2, 124792, Control_c, 0, 64, 0
2, 124800, Note_on_c, 0, 74, 95
2, 124800, Note_on_c, 0, 77, 90
2, 124800, Note_on_c, 0, 62, 82
2, 124800, Note_on_c, 0, 65, 86
2, 124816, Control_c, 0, 64, 127
2, 124837, Note_on_c, 0, 74, 0
2, 124838, Note_on_c, 0, 62, 0
2, 124840, Note_on_c, 0, 77, 0
2, 124846, Note_on_c, 0, 65, 0
2, 124860, Note_on_c, 0, 76, 86
2, 124860, Note_on_c, 0, 79, 90
2, 124860, Note_on_c, 0, 60, 86
2, 124860, Note_on_c, 0, 64, 95
2, 124876, Note_on_c, 0, 64, 0
2, 124881, Note_on_c, 0, 60, 0
2, 124882, Note_on_c, 0, 76, 0
2, 124885, Note_on_c, 0, 79, 0
2, 124919, Control_c, 0, 64, 0
2, 124920, Note_on_c, 0, 77, 103
2, 124920, Note_on_c, 0, 81, 99
2, 124920, Note_on_c, 0, 62, 72
2, 124920, Note_on_c, 0, 59, 90
2, 124920, Note_on_c, 0, 67, 86
2, 125040, Control_c, 0, 64, 127
2, 125142, Note_on_c, 0, 67, 0
2, 125142, Note_on_c, 0, 81, 0
2, 125145, Note_on_c, 0, 77, 0
2, 125146, Note_on_c, 0, 62, 0
2, 125150, Control_c, 0, 64, 0
2, 125151, Note_on_c, 0, 59, 0
2, 125160, Note_on_c, 0, 79, 95
2, 125160, Note_on_c, 0, 76, 99
2, 125184, Control_c, 0, 64, 127
2, 125208, Note_on_c, 0, 76, 0
2, 125219, Note_on_c, 0, 79, 0
2, 125220, Note_on_c, 0, 77, 95
2, 125220, Note_on_c, 0, 74, 74
2, 125246, Note_on_c, 0, 77, 0
2, 125247, Note_on_c, 0, 74, 0
2, 125280, Note_on_c, 0, 77, 90
2, 125280, Note_on_c, 0, 60, 74
2, 125280, Note_on_c, 0, 72, 74
2, 125280, Note_on_c, 0, 64, 82
2, 125284, Control_c, 0, 64, 0
2, 125340, Note_on_c, 0, 76, 103
2, 125345, Note_on_c, 0, 77, 0
2, 125409, Control_c, 0, 64, 127
2, 125460, Control_c, 0, 64, 0
2, 125462, Note_on_c, 0, 64, 0
2, 125462, Note_on_c, 0, 76, 0
2, 125466, Note_on_c, 0, 72, 0
2, 125466, Note_on_c, 0, 60, 0
2, 125640, Note_on_c, 0, 79, 90
2, 125648, Control_c, 0, 64, 127
2, 125700, Note_on_c, 0, 64, 86
2, 125700, Note_on_c, 0, 72, 72
2, 125736, Note_on_c, 0, 64, 0
2, 125738, Note_on_c, 0, 72, 0
2, 125760, Note_on_c, 0, 64, 99
2, 125760, Note_on_c, 0, 72, 74
2, 125793, Note_on_c, 0, 64, 0
2, 125798, Note_on_c, 0, 72, 0
2, 125820, Note_on_c, 0, 72, 67
2, 125820, Note_on_c, 0, 64, 82
2, 125823, Note_on_c, 0, 79, 0
2, 125840, Note_on_c, 0, 64, 0
2, 125841, Note_on_c, 0, 72, 0
2, 125872, Control_c, 0, 64, 0
2, 125880, Note_on_c, 0, 80, 112
2, 125880, Note_on_c, 0, 64, 90
2, 125880, Note_on_c, 0, 72, 72
2, 125896, Control_c, 0, 64, 127
2, 125916, Note_on_c, 0, 64, 0
2, 125919, Note_on_c, 0, 72, 0
2, 125940, Note_on_c, 0, 64, 95
2, 125940, Note_on_c, 0, 72, 74
2, 125963, Note_on_c, 0, 80, 0
2, 125973, Note_on_c, 0, 72, 0
2, 125977, Note_on_c, 0, 64, 0
2, 125997, Control_c, 0, 64, 0
2, 126000, Note_on_c, 0, 81, 103
2, 126029, Control_c, 0, 64, 127
2, 126060, Note_on_c, 0, 65, 86
2, 126060, Note_on_c, 0, 72, 65
2, 126090, Note_on_c, 0, 72, 0
2, 126091, Note_on_c, 0, 65, 0
2, 126095, Note_on_c, 0, 81, 0
2, 126120, Note_on_c, 0, 65, 90
2, 126120, Note_on_c, 0, 72, 67
2, 126148, Note_on_c, 0, 72, 0
2, 126151, Note_on_c, 0, 65, 0
2, 126180, Note_on_c, 0, 65, 78
2, 126180, Note_on_c, 0, 72, 66
2, 126200, Note_on_c, 0, 72, 0
2, 126201, Note_on_c, 0, 65, 0
2, 126235, Control_c, 0, 64, 0
2, 126240, Note_on_c, 0, 73, 99
2, 126240, Note_on_c, 0, 65, 90
2, 126240, Note_on_c, 0, 72, 82
2, 126258, Control_c, 0, 64, 127
2, 126272, Note_on_c, 0, 72, 0
2, 126273, Note_on_c, 0, 65, 0
2, 126279, Note_on_c, 0, 73, 0
2, 126300, Note_on_c, 0, 65, 86
2, 126300, Note_on_c, 0, 74, 103
2, 126300, Note_on_c, 0, 72, 69
2, 126318, Note_on_c, 0, 72, 0
2, 126319, Note_on_c, 0, 74, 0
2, 126328, Note_on_c, 0, 65, 0
2, 126358, Control_c, 0, 64, 0
2, 126360, Note_on_c, 0, 67, 78
2, 126360, Note_on_c, 0, 76, 90
2, 126360, Note_on_c, 0, 72, 90
2, 126383, Control_c, 0, 64, 127
2, 126443, Note_on_c, 0, 76, 0
2, 126450, Note_on_c, 0, 77, 86
2, 126451, Note_on_c, 0, 67, 0
2, 126452, Note_on_c, 0, 72, 0
2, 126470, Note_on_c, 0, 77, 0
2, 126480, Note_on_c, 0, 76, 82
2, 126480, Note_on_c, 0, 67, 90
2, 126480, Note_on_c, 0, 72, 86
2, 126489, Control_c, 0, 64, 0
2, 126508, Note_on_c, 0, 76, 0
2, 126510, Note_on_c, 0, 74, 95
2, 126510, Note_on_c, 0, 71, 90
2, 126511, Note_on_c, 0, 72, 0
2, 126536, Control_c, 0, 64, 127
2, 126581, Control_c, 0, 64, 0
2, 126599, Note_on_c, 0, 67, 0
2, 126600, Note_on_c, 0, 65, 90
2, 126604, Control_c, 0, 64, 127
2, 126670, Note_on_c, 0, 71, 0
2, 126675, Note_on_c, 0, 74, 0
2, 126687, Note_on_c, 0, 65, 0
2, 126720, Note_on_c, 0, 64, 86
2, 126720, Note_on_c, 0, 72, 103
2, 126720, Note_on_c, 0, 67, 95
2, 126733, Control_c, 0, 64, 0
2, 126754, Control_c, 0, 64, 127
2, 126815, Note_on_c, 0, 72, 0
2, 126821, Note_on_c, 0, 67, 0
2, 126823, Note_on_c, 0, 64, 0
2, 126840, Note_on_c, 0, 72, 112
2, 126850, Control_c, 0, 64, 0
2, 126870, Note_on_c, 0, 74, 99
2, 126873, Note_on_c, 0, 72, 0
2, 126900, Note_on_c, 0, 76, 99
2, 126901, Note_on_c, 0, 74, 0
2, 126925, Note_on_c, 0, 76, 0
2, 126930, Note_on_c, 0, 77, 103
2, 126955, Note_on_c, 0, 77, 0
2, 126960, Note_on_c, 0, 79, 103
2, 126986, Note_on_c, 0, 79, 0
2, 126990, Note_on_c, 0, 81, 103
2, 127020, Note_on_c, 0, 83, 108
2, 127024, Note_on_c, 0, 81, 0
2, 127046, Note_on_c, 0, 83, 0
2, 127050, Note_on_c, 0, 84, 103
2, 127068, Note_on_c, 0, 84, 0
2, 127080, Note_on_c, 0, 84, 103
2, 127130, Note_on_c, 0, 84, 0
2, 127140, Note_on_c, 0, 72, 72
2, 127140, Note_on_c, 0, 64, 90
2, 127140, Note_on_c, 0, 79, 103
2, 127146, Control_c, 0, 64, 127
2, 127187, Note_on_c, 0, 72, 0
2, 127188, Note_on_c, 0, 64, 0
2, 127200, Note_on_c, 0, 72, 72
2, 127200, Note_on_c, 0, 64, 86
2, 127231, Note_on_c, 0, 64, 0
2, 127233, Note_on_c, 0, 72, 0
2, 127259, Note_on_c, 0, 79, 0
2, 127260, Note_on_c, 0, 64, 86
2, 127260, Note_on_c, 0, 72, 67
2, 127284, Note_on_c, 0, 72, 0
2, 127284, Note_on_c, 0, 64, 0
2, 127320, Note_on_c, 0, 80, 112
2, 127320, Note_on_c, 0, 64, 90
2, 127320, Note_on_c, 0, 72, 70
2, 127322, Control_c, 0, 64, 0
2, 127344, Control_c, 0, 64, 127
2, 127352, Note_on_c, 0, 64, 0
2, 127354, Note_on_c, 0, 72, 0
2, 127380, Note_on_c, 0, 64, 99
2, 127380, Note_on_c, 0, 72, 65
2, 127418, Note_on_c, 0, 72, 0
2, 127418, Note_on_c, 0, 80, 0
2, 127420, Note_on_c, 0, 64, 0
2, 127440, Note_on_c, 0, 81, 103
2, 127441, Control_c, 0, 64, 0
2, 127469, Control_c, 0, 64, 127
2, 127500, Note_on_c, 0, 65, 86
2, 127500, Note_on_c, 0, 72, 65
2, 127529, Note_on_c, 0, 72, 0
2, 127531, Note_on_c, 0, 65, 0
2, 127544, Note_on_c, 0, 81, 0
2, 127560, Note_on_c, 0, 65, 86
2, 127560, Note_on_c, 0, 72, 69
2, 127587, Note_on_c, 0, 65, 0
2, 127591, Note_on_c, 0, 72, 0
2, 127620, Note_on_c, 0, 65, 86
2, 127620, Note_on_c, 0, 72, 70
2, 127639, Note_on_c, 0, 72, 0
2, 127639, Note_on_c, 0, 65, 0
2, 127677, Control_c, 0, 64, 0
2, 127680, Note_on_c, 0, 73, 108
2, 127680, Note_on_c, 0, 65, 95
2, 127680, Note_on_c, 0, 72, 86
2, 127697, Control_c, 0, 64, 127
2, 127713, Note_on_c, 0, 72, 0
2, 127713, Note_on_c, 0, 73, 0
2, 127714, Note_on_c, 0, 65, 0
2, 127740, Note_on_c, 0, 74, 103
2, 127740, Note_on_c, 0, 65, 78
2, 127740, Note_on_c, 0, 72, 69
2, 127759, Note_on_c, 0, 72, 0
2, 127764, Note_on_c, 0, 74, 0
2, 127766, Note_on_c, 0, 65, 0
2, 127800, Note_on_c, 0, 76, 112
2, 127800, Note_on_c, 0, 67, 86
2, 127800, Note_on_c, 0, 72, 86
2, 127805, Control_c, 0, 64, 0
2, 127832, Control_c, 0, 64, 127
2, 127872, Note_on_c, 0, 76, 0
2, 127885, Note_on_c, 0, 72, 0
2, 127886, Note_on_c, 0, 67, 0
2, 127890, Note_on_c, 0, 77, 86
2, 127908, Note_on_c, 0, 77, 0
2, 127920, Note_on_c, 0, 76, 95
2, 127920, Note_on_c, 0, 67, 74
2, 127920, Note_on_c, 0, 72, 95
2, 127924, Control_c, 0, 64, 0
2, 127947, Note_on_c, 0, 76, 0
2, 127950, Note_on_c, 0, 74, 99
2, 127950, Note_on_c, 0, 71, 86
2, 127951, Note_on_c, 0, 72, 0
2, 127997, Control_c, 0, 64, 127
2, 128052, Control_c, 0, 64, 0
2, 128063, Control_c, 0, 64, 127
2, 128110, Note_on_c, 0, 71, 0
2, 128112, Note_on_c, 0, 74, 0
2, 128113, Note_on_c, 0, 67, 0
2, 128160, Note_on_c, 0, 72, 90
2, 128160, Note_on_c, 0, 69, 95
2, 128160, Note_on_c, 0, 77, 90
2, 128164, Control_c, 0, 64, 0
2, 128190, Control_c, 0, 64, 127
2, 128233, Note_on_c, 0, 69, 0
2, 128280, Note_on_c, 0, 69, 99
2, 128312, Note_on_c, 0, 72, 0
2, 128322, Note_on_c, 0, 77, 0
2, 128344, Note_on_c, 0, 69, 0
2, 128400, Note_on_c, 0, 72, 103
2, 128400, Note_on_c, 0, 76, 103
2, 128400, Note_on_c, 0, 67, 99
2, 128402, Control_c, 0, 64, 0
2, 128426, Control_c, 0, 64, 127
2, 128454, Note_on_c, 0, 72, 0
2, 128458, Note_on_c, 0, 67, 0
2, 128460, Note_on_c, 0, 76, 0
2, 128520, Note_on_c, 0, 65, 86
2, 128520, Note_on_c, 0, 72, 103
2, 128520, Note_on_c, 0, 81, 112
2, 128530, Control_c, 0, 64, 0
2, 128554, Control_c, 0, 64, 127
2, 128633, Note_on_c, 0, 65, 0
2, 128638, Note_on_c, 0, 81, 0
2, 128639, Control_c, 0, 64, 0
2, 128640, Note_on_c, 0, 64, 90
2, 128640, Note_on_c, 0, 79, 108
2, 128659, Control_c, 0, 64, 127
2, 128688, Note_on_c, 0, 72, 0
2, 128690, Note_on_c, 0, 79, 0
2, 128701, Note_on_c, 0, 64, 0
2, 128758, Control_c, 0, 64, 0
2, 128760, Note_on_c, 0, 83, 103
2, 128760, Note_on_c, 0, 74, 108
2, 128760, Note_on_c, 0, 67, 99
2, 128779, Control_c, 0, 64, 127
2, 128807, Note_on_c, 0, 67, 0
2, 128809, Note_on_c, 0, 74, 0
2, 128810, Note_on_c, 0, 83, 0
2, 128869, Control_c, 0, 64, 0
2, 128880, Note_on_c, 0, 76, 112
2, 128880, Note_on_c, 0, 84, 108
2, 128880, Note_on_c, 0, 72, 99
2, 128896, Control_c, 0, 64, 127
2, 129107, Control_c, 0, 64, 0
2, 129116, Note_on_c, 0, 72, 0
2, 129116, Note_on_c, 0, 84, 0
2, 129116, Note_on_c, 0, 76, 0
2, 129240, Note_on_c, 0, 69, 103
2, 129240, Note_on_c, 0, 72, 108
2, 129240, Note_on_c, 0, 74, 108
2, 129240, Note_on_c, 0, 81, 103
2, 129240, Note_on_c, 0, 84, 108
2, 129248, Control_c, 0, 64, 127
2, 129608, Control_c, 0, 64, 0
2, 129840, Note_on_c, 0, 84, 0
2, 129840, Note_on_c, 0, 74, 0
2, 129840, Note_on_c, 0, 69, 0
2, 129840, Note_on_c, 0, 72, 0
2, 129840, Note_on_c, 0, 81, 0
2, 129960, Control_c, 0, 64, 127
2, 129960, Note_on_c, 0, 84, 95
2, 129984, Note_on_c, 0, 84, 0
2, 129990, Note_on_c, 0, 83, 95
2, 130013, Note_on_c, 0, 83, 0
2, 130017, Control_c, 0, 64, 0
2, 130020, Note_on_c, 0, 81, 86
2, 130020, Note_on_c, 0, 67, 86
2, 130020, Note_on_c, 0, 74, 74
2, 130038, Control_c, 0, 64, 127
2, 130049, Note_on_c, 0, 81, 0
2, 130050, Note_on_c, 0, 79, 90
2, 130052, Note_on_c, 0, 67, 0
2, 130057, Note_on_c, 0, 74, 0
2, 130069, Note_on_c, 0, 79, 0
2, 130080, Control_c, 0, 64, 0
2, 130080, Note_on_c, 0, 79, 90
2, 130080, Note_on_c, 0, 67, 90
2, 130080, Note_on_c, 0, 74, 72
2, 130100, Control_c, 0, 64, 127
2, 130121, Note_on_c, 0, 67, 0
2, 130122, Note_on_c, 0, 74, 0
2, 130140, Note_on_c, 0, 67, 75
2, 130140, Note_on_c, 0, 74, 73
2, 130154, Note_on_c, 0, 79, 0
2, 130175, Note_on_c, 0, 67, 0
2, 130177, Note_on_c, 0, 74, 0
2, 130200, Note_on_c, 0, 74, 71
2, 130200, Note_on_c, 0, 67, 88
2, 130206, Control_c, 0, 64, 0
2, 130228, Control_c, 0, 64, 127
2, 130234, Note_on_c, 0, 67, 0
2, 130234, Note_on_c, 0, 74, 0
2, 130260, Note_on_c, 0, 74, 68
2, 130260, Note_on_c, 0, 67, 68
2, 130281, Note_on_c, 0, 67, 0
2, 130287, Note_on_c, 0, 74, 0
2, 130320, Note_on_c, 0, 77, 99
2, 130321, Control_c, 0, 64, 0
2, 130343, Control_c, 0, 64, 127
2, 130347, Note_on_c, 0, 77, 0
2, 130350, Note_on_c, 0, 76, 73
2, 130372, Note_on_c, 0, 76, 0
2, 130374, Control_c, 0, 64, 0
2, 130380, Note_on_c, 0, 77, 94
2, 130380, Note_on_c, 0, 74, 89
2, 130380, Note_on_c, 0, 67, 94
2, 130393, Control_c, 0, 64, 127
2, 130406, Note_on_c, 0, 77, 0
2, 130408, Note_on_c, 0, 67, 0
2, 130410, Note_on_c, 0, 76, 77
2, 130411, Note_on_c, 0, 74, 0
2, 130430, Note_on_c, 0, 76, 0
2, 130439, Control_c, 0, 64, 0
2, 130440, Note_on_c, 0, 77, 100
2, 130440, Note_on_c, 0, 74, 73
2, 130440, Note_on_c, 0, 67, 94
2, 130460, Control_c, 0, 64, 127
2, 130475, Note_on_c, 0, 67, 0
2, 130476, Note_on_c, 0, 74, 0
2, 130489, Note_on_c, 0, 77, 0
2, 130500, Note_on_c, 0, 74, 76
2, 130500, Note_on_c, 0, 67, 82
2, 130521, Note_on_c, 0, 74, 0
2, 130524, Note_on_c, 0, 67, 0
2, 130559, Control_c, 0, 64, 0
2, 130560, Note_on_c, 0, 67, 87
2, 130560, Note_on_c, 0, 74, 76
2, 130580, Control_c, 0, 64, 127
2, 130593, Note_on_c, 0, 74, 0
2, 130596, Note_on_c, 0, 67, 0
2, 130620, Note_on_c, 0, 74, 74
2, 130620, Note_on_c, 0, 67, 88
2, 130642, Note_on_c, 0, 67, 0
2, 130642, Note_on_c, 0, 74, 0
2, 130672, Control_c, 0, 64, 0
2, 130680, Note_on_c, 0, 77, 103
2, 130696, Control_c, 0, 64, 127
2, 130704, Note_on_c, 0, 77, 0
2, 130710, Note_on_c, 0, 76, 98
2, 130729, Note_on_c, 0, 76, 0
2, 130739, Control_c, 0, 64, 0
2, 130740, Note_on_c, 0, 77, 104
2, 130740, Note_on_c, 0, 67, 98
2, 130740, Note_on_c, 0, 74, 89
2, 130760, Control_c, 0, 64, 127
2, 130764, Note_on_c, 0, 77, 0
2, 130768, Note_on_c, 0, 74, 0
2, 130768, Note_on_c, 0, 67, 0
2, 130770, Note_on_c, 0, 76, 76
2, 130789, Note_on_c, 0, 76, 0
2, 130797, Control_c, 0, 64, 0
2, 130800, Note_on_c, 0, 77, 108
2, 130800, Note_on_c, 0, 67, 98
2, 130800, Note_on_c, 0, 74, 78
2, 130816, Control_c, 0, 64, 127
2, 130831, Note_on_c, 0, 74, 0
2, 130831, Note_on_c, 0, 67, 0
2, 130858, Note_on_c, 0, 77, 0
2, 130860, Note_on_c, 0, 67, 95
2, 130860, Note_on_c, 0, 74, 73
2, 130879, Note_on_c, 0, 74, 0
2, 130880, Note_on_c, 0, 67, 0
2, 130914, Control_c, 0, 64, 0
2, 130920, Note_on_c, 0, 67, 95
2, 130920, Note_on_c, 0, 74, 80
2, 130936, Control_c, 0, 64, 127
2, 130952, Note_on_c, 0, 67, 0
2, 130953, Note_on_c, 0, 74, 0
2, 130980, Note_on_c, 0, 74, 69
2, 130980, Note_on_c, 0, 67, 92
2, 130998, Note_on_c, 0, 67, 0
2, 131000, Note_on_c, 0, 74, 0
2, 131038, Control_c, 0, 64, 0
2, 131040, Note_on_c, 0, 77, 107
2, 131040, Note_on_c, 0, 67, 107
2, 131040, Note_on_c, 0, 74, 97
2, 131059, Control_c, 0, 64, 127
2, 131066, Note_on_c, 0, 77, 0
2, 131070, Note_on_c, 0, 76, 107
2, 131092, Note_on_c, 0, 76, 0
2, 131098, Control_c, 0, 64, 0
2, 131100, Note_on_c, 0, 77, 108
2, 131121, Control_c, 0, 64, 127
2, 131123, Note_on_c, 0, 77, 0
2, 131130, Note_on_c, 0, 76, 102
2, 131145, Control_c, 0, 64, 0
2, 131151, Note_on_c, 0, 76, 0
2, 131160, Note_on_c, 0, 77, 114
2, 131174, Control_c, 0, 64, 127
2, 131396, Note_on_c, 0, 74, 0
2, 131397, Note_on_c, 0, 77, 0
2, 131397, Note_on_c, 0, 67, 0
2, 131400, Note_on_c, 0, 76, 82
2, 131520, Note_on_c, 0, 77, 90
2, 131541, Note_on_c, 0, 76, 0
2, 131639, Note_on_c, 0, 77, 0
2, 131640, Note_on_c, 0, 78, 82
2, 131759, Note_on_c, 0, 78, 0
2, 131760, Note_on_c, 0, 67, 80
2, 131760, Note_on_c, 0, 64, 80
2, 131760, Note_on_c, 0, 79, 98
2, 131779, Control_c, 0, 64, 127
2, 131787, Note_on_c, 0, 79, 0
2, 131790, Note_on_c, 0, 76, 98
2, 131811, Note_on_c, 0, 76, 0
2, 131820, Note_on_c, 0, 79, 93
2, 131846, Note_on_c, 0, 79, 0
2, 131850, Note_on_c, 0, 76, 93
2, 131855, Control_c, 0, 64, 0
2, 131875, Note_on_c, 0, 76, 0
2, 131880, Note_on_c, 0, 72, 98
2, 131896, Control_c, 0, 64, 127
2, 131919, Note_on_c, 0, 72, 0
2, 131940, Note_on_c, 0, 72, 98
2, 131954, Note_on_c, 0, 67, 0
2, 131960, Note_on_c, 0, 64, 0
2, 131966, Note_on_c, 0, 72, 0
2, 132000, Control_c, 0, 64, 0
2, 132000, Note_on_c, 0, 77, 98
2, 132000, Note_on_c, 0, 65, 78
2, 132000, Note_on_c, 0, 67, 84
2, 132030, Note_on_c, 0, 74, 93
2, 132032, Note_on_c, 0, 77, 0
2, 132043, Control_c, 0, 64, 127
2, 132053, Note_on_c, 0, 74, 0
2, 132060, Note_on_c, 0, 77, 89
2, 132086, Note_on_c, 0, 77, 0
2, 132090, Note_on_c, 0, 74, 84
2, 132109, Note_on_c, 0, 74, 0
2, 132119, Control_c, 0, 64, 0
2, 132120, Note_on_c, 0, 71, 107
2, 132148, Control_c, 0, 64, 127
2, 132162, Note_on_c, 0, 71, 0
2, 132180, Note_on_c, 0, 71, 107
2, 132195, Note_on_c, 0, 67, 0
2, 132203, Note_on_c, 0, 71, 0
2, 132203, Note_on_c, 0, 65, 0
2, 132239, Control_c, 0, 64, 0
2, 132240, Note_on_c, 0, 72, 122
2, 132240, Note_on_c, 0, 67, 84
2, 132240, Note_on_c, 0, 64, 89
2, 132268, Control_c, 0, 64, 127
2, 132270, Note_on_c, 0, 74, 93
2, 132272, Note_on_c, 0, 72, 0
2, 132300, Note_on_c, 0, 74, 0
2, 132300, Note_on_c, 0, 76, 98
2, 132320, Note_on_c, 0, 76, 0
2, 132330, Note_on_c, 0, 77, 107
2, 132349, Note_on_c, 0, 77, 0
2, 132359, Control_c, 0, 64, 0
2, 132360, Note_on_c, 0, 79, 107
2, 132380, Note_on_c, 0, 79, 0
2, 132386, Control_c, 0, 64, 127
2, 132390, Note_on_c, 0, 81, 103
2, 132408, Note_on_c, 0, 81, 0
2, 132420, Note_on_c, 0, 83, 112
2, 132439, Note_on_c, 0, 83, 0
2, 132450, Note_on_c, 0, 84, 107
2, 132457, Note_on_c, 0, 67, 0
2, 132460, Note_on_c, 0, 64, 0
2, 132467, Note_on_c, 0, 84, 0
2, 132480, Note_on_c, 0, 84, 112
2, 132480, Note_on_c, 0, 67, 84
2, 132480, Note_on_c, 0, 65, 89
2, 132482, Control_c, 0, 64, 0
2, 132506, Note_on_c, 0, 84, 0
2, 132510, Note_on_c, 0, 83, 93
2, 132516, Control_c, 0, 64, 127
2, 132540, Note_on_c, 0, 81, 89
2, 132542, Note_on_c, 0, 83, 0
2, 132563, Note_on_c, 0, 81, 0
2, 132570, Note_on_c, 0, 79, 103
2, 132584, Note_on_c, 0, 79, 0
2, 132600, Note_on_c, 0, 79, 107
2, 132628, Note_on_c, 0, 79, 0
2, 132630, Note_on_c, 0, 77, 93
2, 132655, Note_on_c, 0, 77, 0
2, 132660, Note_on_c, 0, 76, 98
2, 132686, Note_on_c, 0, 76, 0
2, 132690, Note_on_c, 0, 74, 103
2, 132698, Note_on_c, 0, 67, 0
2, 132699, Note_on_c, 0, 65, 0
2, 132709, Note_on_c, 0, 74, 0
2, 132718, Control_c, 0, 64, 0
2, 132720, Note_on_c, 0, 79, 112
2, 132720, Note_on_c, 0, 67, 76
2, 132720, Note_on_c, 0, 64, 89
2, 132747, Note_on_c, 0, 79, 0
2, 132750, Note_on_c, 0, 76, 98
2, 132753, Control_c, 0, 64, 127
2, 132769, Note_on_c, 0, 76, 0
2, 132780, Note_on_c, 0, 79, 93
2, 132807, Note_on_c, 0, 79, 0
2, 132810, Note_on_c, 0, 76, 89
2, 132828, Note_on_c, 0, 76, 0
2, 132839, Control_c, 0, 64, 0
2, 132840, Note_on_c, 0, 72, 103
2, 132864, Control_c, 0, 64, 127
2, 132879, Note_on_c, 0, 72, 0
2, 132900, Note_on_c, 0, 72, 107
2, 132915, Note_on_c, 0, 67, 0
2, 132919, Note_on_c, 0, 64, 0
2, 132922, Note_on_c, 0, 72, 0
2, 132960, Note_on_c, 0, 77, 112
2, 132960, Note_on_c, 0, 67, 80
2, 132960, Note_on_c, 0, 65, 76
2, 132965, Control_c, 0, 64, 0
2, 132987, Note_on_c, 0, 77, 0
2, 132990, Note_on_c, 0, 74, 84
2, 132994, Control_c, 0, 64, 127
2, 133012, Note_on_c, 0, 74, 0
2, 133020, Note_on_c, 0, 77, 89
2, 133045, Note_on_c, 0, 77, 0
2, 133050, Note_on_c, 0, 74, 84
2, 133068, Note_on_c, 0, 74, 0
2, 133080, Note_on_c, 0, 71, 107
2, 133082, Control_c, 0, 64, 0
2, 133107, Control_c, 0, 64, 127
2, 133116, Note_on_c, 0, 71, 0
2, 133140, Note_on_c, 0, 71, 93
2, 133155, Note_on_c, 0, 67, 0
2, 133157, Note_on_c, 0, 65, 0
2, 133161, Note_on_c, 0, 71, 0
2, 133200, Note_on_c, 0, 67, 89
2, 133200, Note_on_c, 0, 72, 107
2, 133200, Note_on_c, 0, 64, 93
2, 133202, Control_c, 0, 64, 0
2, 133230, Control_c, 0, 64, 127
2, 133230, Note_on_c, 0, 74, 93
2, 133231, Note_on_c, 0, 72, 0
2, 133241, Control_c, 0, 64, 0
2, 133259, Note_on_c, 0, 74, 0
2, 133260, Note_on_c, 0, 76, 107
2, 133266, Control_c, 0, 64, 127
2, 133282, Note_on_c, 0, 76, 0
2, 133290, Note_on_c, 0, 77, 107
2, 133309, Note_on_c, 0, 77, 0
2, 133320, Note_on_c, 0, 79, 112
2, 133328, Control_c, 0, 64, 0
2, 133339, Note_on_c, 0, 79, 0
2, 133350, Note_on_c, 0, 81, 107
2, 133351, Control_c, 0, 64, 127
2, 133369, Note_on_c, 0, 81, 0
2, 133380, Note_on_c, 0, 83, 98
2, 133406, Note_on_c, 0, 83, 0
2, 133410, Note_on_c, 0, 84, 107
2, 133419, Note_on_c, 0, 67, 0
2, 133424, Note_on_c, 0, 64, 0
2, 133427, Note_on_c, 0, 84, 0
2, 133440, Note_on_c, 0, 67, 80
2, 133440, Note_on_c, 0, 65, 89
2, 133440, Note_on_c, 0, 79, 112
2, 133446, Control_c, 0, 64, 0
2, 133470, Note_on_c, 0, 77, 89
2, 133475, Note_on_c, 0, 79, 0
2, 133480, Control_c, 0, 64, 127
2, 133492, Note_on_c, 0, 77, 0
2, 133500, Note_on_c, 0, 76, 107
2, 133525, Note_on_c, 0, 76, 0
2, 133530, Note_on_c, 0, 74, 71
2, 133533, Note_on_c, 0, 67, 0
2, 133538, Note_on_c, 0, 65, 0
2, 133547, Note_on_c, 0, 74, 0
2, 133558, Control_c, 0, 64, 0
2, 133560, Note_on_c, 0, 72, 122
2, 133560, Note_on_c, 0, 64, 78
2, 133560, Note_on_c, 0, 67, 89
2, 133588, Control_c, 0, 64, 127
2, 133618, Note_on_c, 0, 72, 0
2, 133629, Note_on_c, 0, 67, 0
2, 133636, Note_on_c, 0, 64, 0
2, 133679, Control_c, 0, 64, 0
2, 133680, Note_on_c, 0, 77, 103
2, 133680, Note_on_c, 0, 67, 78
2, 133680, Note_on_c, 0, 65, 78
2, 133708, Note_on_c, 0, 77, 0
2, 133710, Note_on_c, 0, 74, 93
2, 133715, Control_c, 0, 64, 127
2, 133733, Note_on_c, 0, 74, 0
2, 133740, Note_on_c, 0, 77, 93
2, 133764, Note_on_c, 0, 77, 0
2, 133770, Note_on_c, 0, 74, 98
2, 133787, Note_on_c, 0, 74, 0
2, 133795, Control_c, 0, 64, 0
2, 133800, Note_on_c, 0, 71, 112
2, 133821, Control_c, 0, 64, 127
2, 133838, Note_on_c, 0, 71, 0
2, 133860, Note_on_c, 0, 71, 112
2, 133865, Note_on_c, 0, 67, 0
2, 133871, Note_on_c, 0, 65, 0
2, 133879, Note_on_c, 0, 71, 0
2, 133919, Control_c, 0, 64, 0
2, 133920, Note_on_c, 0, 72, 117
2, 133920, Note_on_c, 0, 67, 84
2, 133920, Note_on_c, 0, 64, 84
2, 133947, Control_c, 0, 64, 127
2, 133950, Note_on_c, 0, 74, 103
2, 133951, Note_on_c, 0, 72, 0
2, 133975, Note_on_c, 0, 74, 0
2, 133980, Note_on_c, 0, 76, 107
2, 133998, Note_on_c, 0, 76, 0
2, 134010, Note_on_c, 0, 77, 112
2, 134028, Note_on_c, 0, 77, 0
2, 134034, Control_c, 0, 64, 0
2, 134040, Note_on_c, 0, 79, 112
2, 134057, Control_c, 0, 64, 127
2, 134061, Note_on_c, 0, 79, 0
2, 134070, Note_on_c, 0, 81, 107
2, 134088, Note_on_c, 0, 81, 0
2, 134100, Note_on_c, 0, 83, 107
2, 134119, Note_on_c, 0, 83, 0
2, 134130, Note_on_c, 0, 84, 112
2, 134142, Note_on_c, 0, 67, 0
2, 134143, Note_on_c, 0, 64, 0
2, 134146, Note_on_c, 0, 84, 0
2, 134160, Note_on_c, 0, 67, 80
2, 134160, Note_on_c, 0, 65, 89
2, 134160, Note_on_c, 0, 84, 112
2, 134164, Control_c, 0, 64, 0
2, 134184, Note_on_c, 0, 84, 0
2, 134190, Note_on_c, 0, 83, 112
2, 134193, Control_c, 0, 64, 127
2, 134213, Note_on_c, 0, 83, 0
2, 134220, Note_on_c, 0, 81, 103
2, 134246, Note_on_c, 0, 81, 0
2, 134250, Note_on_c, 0, 79, 107
2, 134268, Note_on_c, 0, 79, 0
2, 134280, Note_on_c, 0, 81, 107
2, 134285, Control_c, 0, 64, 0
2, 134303, Note_on_c, 0, 81, 0
2, 134310, Control_c, 0, 64, 127
2, 134310, Note_on_c, 0, 79, 107
2, 134331, Note_on_c, 0, 79, 0
2, 134340, Note_on_c, 0, 81, 112
2, 134360, Note_on_c, 0, 81, 0
2, 134370, Note_on_c, 0, 83, 107
2, 134383, Note_on_c, 0, 65, 0
2, 134384, Note_on_c, 0, 67, 0
2, 134390, Note_on_c, 0, 83, 0
2, 134400, Control_c, 0, 64, 0
2, 134400, Note_on_c, 0, 64, 98
2, 134400, Note_on_c, 0, 67, 93
2, 134400, Note_on_c, 0, 84, 112
2, 134426, Note_on_c, 0, 84, 0
2, 134427, Control_c, 0, 64, 127
2, 134430, Note_on_c, 0, 83, 107
2, 134449, Note_on_c, 0, 83, 0
2, 134460, Note_on_c, 0, 84, 107
2, 134483, Note_on_c, 0, 84, 0
2, 134490, Note_on_c, 0, 88, 112
2, 134509, Note_on_c, 0, 88, 0
2, 134519, Control_c, 0, 64, 0
2, 134520, Note_on_c, 0, 79, 107
2, 134548, Control_c, 0, 64, 127
2, 134593, Note_on_c, 0, 79, 0
2, 134607, Note_on_c, 0, 67, 0
2, 134607, Note_on_c, 0, 64, 0
2, 134633, Control_c, 0, 64, 0
2, 134640, Note_on_c, 0, 77, 112
2, 134640, Note_on_c, 0, 65, 76
2, 134640, Note_on_c, 0, 67, 80
2, 134669, Note_on_c, 0, 77, 0
2, 134670, Note_on_c, 0, 74, 84
2, 134671, Control_c, 0, 64, 127
2, 134689, Note_on_c, 0, 74, 0
2, 134700, Note_on_c, 0, 77, 89
2, 134728, Note_on_c, 0, 77, 0
2, 134730, Note_on_c, 0, 74, 89
2, 134753, Note_on_c, 0, 74, 0
2, 134760, Note_on_c, 0, 71, 93
2, 134761, Control_c, 0, 64, 0
2, 134787, Control_c, 0, 64, 127
2, 134806, Note_on_c, 0, 71, 0
2, 134820, Note_on_c, 0, 71, 107
2, 134832, Note_on_c, 0, 67, 0
2, 134837, Note_on_c, 0, 65, 0
2, 134840, Note_on_c, 0, 71, 0
2, 134877, Control_c, 0, 64, 0
2, 134880, Note_on_c, 0, 72, 107
2, 134880, Note_on_c, 0, 67, 76
2, 134880, Note_on_c, 0, 64, 80
2, 134905, Control_c, 0, 64, 127
2, 134910, Note_on_c, 0, 74, 98
2, 134911, Note_on_c, 0, 72, 0
2, 134930, Control_c, 0, 64, 0
2, 134940, Note_on_c, 0, 76, 103
2, 134942, Note_on_c, 0, 74, 0
2, 134952, Control_c, 0, 64, 127
2, 134966, Note_on_c, 0, 76, 0
2, 134970, Note_on_c, 0, 77, 107
2, 134989, Note_on_c, 0, 77, 0
2, 135000, Note_on_c, 0, 79, 112
2, 135019, Note_on_c, 0, 79, 0
2, 135030, Note_on_c, 0, 81, 112
2, 135047, Note_on_c, 0, 81, 0
2, 135060, Note_on_c, 0, 83, 112
2, 135079, Note_on_c, 0, 83, 0
2, 135090, Note_on_c, 0, 84, 112
2, 135106, Note_on_c, 0, 67, 0
2, 135107, Note_on_c, 0, 84, 0
2, 135108, Note_on_c, 0, 64, 0
2, 135120, Note_on_c, 0, 84, 112
2, 135120, Note_on_c, 0, 67, 80
2, 135120, Note_on_c, 0, 65, 78
2, 135128, Control_c, 0, 64, 0
2, 135146, Note_on_c, 0, 84, 0
2, 135150, Note_on_c, 0, 83, 98
2, 135161, Control_c, 0, 64, 127
2, 135180, Note_on_c, 0, 81, 80
2, 135182, Note_on_c, 0, 83, 0
2, 135210, Note_on_c, 0, 79, 98
2, 135213, Note_on_c, 0, 81, 0
2, 135224, Note_on_c, 0, 79, 0
2, 135240, Note_on_c, 0, 79, 103
2, 135242, Control_c, 0, 64, 0
2, 135269, Control_c, 0, 64, 127
2, 135270, Note_on_c, 0, 79, 0
2, 135270, Note_on_c, 0, 77, 93
2, 135299, Note_on_c, 0, 77, 0
2, 135300, Note_on_c, 0, 76, 80
2, 135321, Note_on_c, 0, 67, 0
2, 135327, Note_on_c, 0, 76, 0
2, 135330, Note_on_c, 0, 74, 93
2, 135331, Note_on_c, 0, 65, 0
2, 135350, Note_on_c, 0, 74, 0
2, 135360, Note_on_c, 0, 64, 71
2, 135360, Note_on_c, 0, 76, 98
2, 135360, Note_on_c, 0, 67, 74
2, 135365, Control_c, 0, 64, 0
2, 135386, Note_on_c, 0, 76, 0
2, 135390, Note_on_c, 0, 74, 93
2, 135396, Control_c, 0, 64, 127
2, 135412, Note_on_c, 0, 74, 0
2, 135420, Note_on_c, 0, 76, 93
2, 135440, Note_on_c, 0, 76, 0
2, 135450, Note_on_c, 0, 79, 98
2, 135457, Control_c, 0, 64, 0
2, 135475, Note_on_c, 0, 79, 0
2, 135480, Note_on_c, 0, 72, 117
2, 135484, Control_c, 0, 64, 127
2, 135500, Note_on_c, 0, 72, 0
2, 135512, Note_on_c, 0, 64, 0
2, 135521, Note_on_c, 0, 67, 0
2, 135597, Control_c, 0, 64, 0
2, 135600, Note_on_c, 0, 83, 127
2, 135600, Note_on_c, 0, 71, 107
2, 135600, Note_on_c, 0, 67, 98
2, 135624, Note_on_c, 0, 83, 0
2, 135625, Control_c, 0, 64, 127
2, 135630, Note_on_c, 0, 86, 112
2, 135652, Note_on_c, 0, 86, 0
2, 135660, Note_on_c, 0, 83, 103
2, 135663, Note_on_c, 0, 67, 0
2, 135681, Note_on_c, 0, 71, 0
2, 135685, Note_on_c, 0, 83, 0
2, 135690, Note_on_c, 0, 79, 117
2, 135707, Note_on_c, 0, 79, 0
2, 135720, Note_on_c, 0, 84, 127
2, 135720, Note_on_c, 0, 72, 103
2, 135720, Note_on_c, 0, 67, 103
2, 135722, Control_c, 0, 64, 0
2, 135750, Control_c, 0, 64, 127
2, 135775, Note_on_c, 0, 84, 0
2, 135780, Note_on_c, 0, 88, 127
2, 135795, Note_on_c, 0, 72, 0
2, 135796, Note_on_c, 0, 67, 0
2, 135798, Note_on_c, 0, 88, 0
2, 135840, Note_on_c, 0, 83, 127
2, 135840, Note_on_c, 0, 74, 98
2, 135840, Note_on_c, 0, 67, 103
2, 135845, Control_c, 0, 64, 0
2, 135864, Note_on_c, 0, 83, 0
2, 135870, Note_on_c, 0, 86, 117
2, 135873, Control_c, 0, 64, 127
2, 135890, Note_on_c, 0, 86, 0
2, 135900, Note_on_c, 0, 83, 122
2, 135919, Note_on_c, 0, 83, 0
2, 135930, Note_on_c, 0, 79, 112
2, 135947, Note_on_c, 0, 79, 0
2, 135957, Control_c, 0, 64, 0
2, 135958, Note_on_c, 0, 74, 0
2, 135960, Note_on_c, 0, 72, 107
2, 135960, Note_on_c, 0, 84, 127
2, 135983, Control_c, 0, 64, 127
2, 136001, Note_on_c, 0, 84, 0
2, 136020, Note_on_c, 0, 84, 127
2, 136040, Note_on_c, 0, 84, 0
2, 136047, Note_on_c, 0, 67, 0
2, 136050, Note_on_c, 0, 72, 0
2, 136080, Note_on_c, 0, 83, 127
2, 136080, Note_on_c, 0, 67, 98
2, 136080, Note_on_c, 0, 74, 93
2, 136083, Control_c, 0, 64, 0
2, 136103, Note_on_c, 0, 83, 0
2, 136110, Control_c, 0, 64, 127
2, 136110, Note_on_c, 0, 86, 117
2, 136130, Note_on_c, 0, 86, 0
2, 136140, Note_on_c, 0, 83, 107
2, 136161, Note_on_c, 0, 83, 0
2, 136170, Note_on_c, 0, 79, 112
2, 136188, Note_on_c, 0, 79, 0
2, 136194, Note_on_c, 0, 74, 0
2, 136198, Control_c, 0, 64, 0
2, 136200, Note_on_c, 0, 72, 107
2, 136200, Note_on_c, 0, 84, 127
2, 136224, Control_c, 0, 64, 127
2, 136255, Note_on_c, 0, 84, 0
2, 136260, Note_on_c, 0, 88, 107
2, 136280, Note_on_c, 0, 88, 0
2, 136282, Note_on_c, 0, 67, 0
2, 136287, Note_on_c, 0, 72, 0
2, 136320, Note_on_c, 0, 67, 93
2, 136320, Note_on_c, 0, 74, 93
2, 136320, Note_on_c, 0, 83, 127
2, 136324, Control_c, 0, 64, 0
2, 136343, Note_on_c, 0, 83, 0
2, 136350, Note_on_c, 0, 86, 112
2, 136351, Control_c, 0, 64, 127
2, 136380, Note_on_c, 0, 86, 0
2, 136380, Note_on_c, 0, 83, 103
2, 136402, Note_on_c, 0, 83, 0
2, 136410, Note_on_c, 0, 79, 112
2, 136430, Note_on_c, 0, 79, 0
2, 136436, Note_on_c, 0, 74, 0
2, 136436, Control_c, 0, 64, 0
2, 136440, Note_on_c, 0, 72, 112
2, 136440, Note_on_c, 0, 84, 122
2, 136462, Control_c, 0, 64, 127
2, 136484, Note_on_c, 0, 84, 0
2, 136500, Note_on_c, 0, 84, 127
2, 136520, Note_on_c, 0, 84, 0
2, 136526, Note_on_c, 0, 72, 0
2, 136526, Note_on_c, 0, 67, 0
2, 136560, Note_on_c, 0, 84, 127
2, 136560, Note_on_c, 0, 67, 98
2, 136560, Note_on_c, 0, 72, 89
2, 136560, Note_on_c, 0, 76, 98
2, 136561, Control_c, 0, 64, 0
2, 136586, Control_c, 0, 64, 127
2, 136635, Note_on_c, 0, 72, 0
2, 136636, Note_on_c, 0, 67, 0
2, 136637, Note_on_c, 0, 84, 0
2, 136638, Note_on_c, 0, 76, 0
2, 136680, Note_on_c, 0, 76, 103
2, 136680, Note_on_c, 0, 67, 112
2, 136680, Note_on_c, 0, 72, 93
2, 136680, Note_on_c, 0, 84, 127
2, 136684, Control_c, 0, 64, 0
2, 136706, Control_c, 0, 64, 127
2, 136732, Note_on_c, 0, 84, 0
2, 136735, Note_on_c, 0, 67, 0
2, 136738, Note_on_c, 0, 76, 0
2, 136739, Note_on_c, 0, 72, 0
2, 136800, Note_on_c, 0, 67, 86
2, 136800, Note_on_c, 0, 72, 99
2, 136800, Note_on_c, 0, 76, 99
2, 136800, Note_on_c, 0, 84, 123
2, 136813, Control_c, 0, 64, 0
2, 136864, Control_c, 0, 64, 127
2, 137045, Control_c, 0, 64, 0
2, 137280, Note_on_c, 0, 84, 0
2, 137280, Note_on_c, 0, 67, 0
2, 137280, Note_on_c, 0, 72, 0
2, 137280, Note_on_c, 0, 76, 0
2, 137280, Control_c, 0, 64, 0
2, 137340, Control_c, 0, 64, 127
2, 137531, Control_c, 0, 64, 0
2, 137760, Control_c, 0, 121, 0
2, 137760, End_track
3, 0, Start_track
3, 0, MIDI_port, 0
3, 0, Title_t, "Secondo"
3, 0, Program_c, 1, 0
3, 0, Control_c, 1, 7, 127
3, 0, Control_c, 1, 10, 44
3, 0, Control_c, 1, 121, 0
3, 0, Control_c, 1, 7, 127
3, 0, Control_c, 1, 91, 75
3, 0, Note_on_c, 1, 52, 90
3, 0, Note_on_c, 1, 60, 95
3, 0, Note_on_c, 1, 55, 90
3, 0, Note_on_c, 1, 36, 82
3, 0, Note_on_c, 1, 48, 72
3, 19, Control_c, 1, 64, 127
3, 169, Note_on_c, 1, 48, 0
3, 169, Note_on_c, 1, 55, 0
3, 169, Note_on_c, 1, 36, 0
3, 171, Note_on_c, 1, 52, 0
3, 173, Note_on_c, 1, 60, 0
3, 240, Note_on_c, 1, 60, 95
3, 240, Note_on_c, 1, 55, 90
3, 240, Note_on_c, 1, 52, 86
3, 240, Note_on_c, 1, 48, 72
3, 240, Note_on_c, 1, 36, 86
3, 242, Control_c, 1, 64, 0
3, 277, Control_c, 1, 64, 127
3, 387, Note_on_c, 1, 36, 0
3, 387, Note_on_c, 1, 52, 0
3, 388, Note_on_c, 1, 48, 0
3, 389, Note_on_c, 1, 60, 0
3, 391, Note_on_c, 1, 55, 0
3, 480, Note_on_c, 1, 60, 95
3, 480, Note_on_c, 1, 52, 86
3, 480, Note_on_c, 1, 55, 90
3, 480, Note_on_c, 1, 36, 95
3, 480, Note_on_c, 1, 48, 82
3, 481, Control_c, 1, 64, 0
3, 515, Control_c, 1, 64, 127
3, 723, Note_on_c, 1, 48, 0
3, 723, Control_c, 1, 64, 0
3, 724, Note_on_c, 1, 55, 0
3, 724, Note_on_c, 1, 52, 0
3, 726, Note_on_c, 1, 60, 0
3, 728, Note_on_c, 1, 36, 0
3, 2880, Note_on_c, 1, 60, 90
3, 2880, Note_on_c, 1, 52, 95
3, 2880, Note_on_c, 1, 55, 95
3, 2880, Note_on_c, 1, 36, 95
3, 2896, Control_c, 1, 64, 127
3, 3026, Note_on_c, 1, 36, 0
3, 3060, Note_on_c, 1, 40, 95
3, 3061, Note_on_c, 1, 52, 0
3, 3064, Note_on_c, 1, 60, 0
3, 3064, Note_on_c, 1, 55, 0
3, 3079, Note_on_c, 1, 40, 0
3, 3120, Note_on_c, 1, 43, 86
3, 3120, Note_on_c, 1, 52, 82
3, 3120, Note_on_c, 1, 60, 90
3, 3120, Note_on_c, 1, 55, 82
3, 3121, Control_c, 1, 64, 0
3, 3166, Control_c, 1, 64, 127
3, 3262, Note_on_c, 1, 43, 0
3, 3300, Note_on_c, 1, 40, 103
3, 3310, Note_on_c, 1, 52, 0
3, 3314, Note_on_c, 1, 55, 0
3, 3314, Note_on_c, 1, 60, 0
3, 3326, Note_on_c, 1, 40, 0
3, 3360, Note_on_c, 1, 60, 78
3, 3360, Note_on_c, 1, 52, 82
3, 3360, Note_on_c, 1, 36, 90
3, 3360, Note_on_c, 1, 55, 78
3, 3363, Control_c, 1, 64, 0
3, 3400, Control_c, 1, 64, 127
3, 3524, Note_on_c, 1, 55, 0
3, 3527, Note_on_c, 1, 52, 0
3, 3529, Note_on_c, 1, 36, 0
3, 3531, Note_on_c, 1, 60, 0
3, 3625, Control_c, 1, 64, 0
3, 3720, Note_on_c, 1, 67, 95
3, 3742, Control_c, 1, 64, 127
3, 3780, Note_on_c, 1, 64, 95
3, 3784, Note_on_c, 1, 67, 0
3, 3800, Note_on_c, 1, 64, 0
3, 3833, Control_c, 1, 64, 0
3, 3840, Note_on_c, 1, 64, 95
3, 3866, Note_on_c, 1, 64, 0
3, 3870, Note_on_c, 1, 62, 86
3, 3873, Control_c, 1, 64, 127
3, 3895, Note_on_c, 1, 62, 0
3, 3900, Note_on_c, 1, 60, 99
3, 3927, Note_on_c, 1, 60, 0
3, 3958, Control_c, 1, 64, 0
3, 3960, Note_on_c, 1, 62, 90
3, 3960, Note_on_c, 1, 48, 82
3, 3960, Note_on_c, 1, 52, 74
3, 3960, Note_on_c, 1, 55, 78
3, 3983, Note_on_c, 1, 62, 0
3, 3990, Note_on_c, 1, 60, 86
3, 3993, Control_c, 1, 64, 127
3, 4010, Note_on_c, 1, 60, 0
3, 4020, Note_on_c, 1, 62, 95
3, 4024, Note_on_c, 1, 48, 0
3, 4025, Note_on_c, 1, 55, 0
3, 4026, Note_on_c, 1, 52, 0
3, 4042, Note_on_c, 1, 62, 0
3, 4050, Note_on_c, 1, 60, 86
3, 4070, Note_on_c, 1, 60, 0
3, 4078, Control_c, 1, 64, 0
3, 4080, Note_on_c, 1, 62, 86
3, 4080, Note_on_c, 1, 55, 78
3, 4080, Note_on_c, 1, 52, 78
3, 4080, Note_on_c, 1, 48, 82
3, 4102, Note_on_c, 1, 62, 0
3, 4109, Control_c, 1, 64, 127
3, 4110, Note_on_c, 1, 60, 86
3, 4137, Note_on_c, 1, 48, 0
3, 4137, Note_on_c, 1, 52, 0
3, 4138, Note_on_c, 1, 60, 0
3, 4139, Note_on_c, 1, 55, 0
3, 4140, Note_on_c, 1, 59, 82
3, 4169, Note_on_c, 1, 59, 0
3, 4170, Note_on_c, 1, 60, 90
3, 4174, Control_c, 1, 64, 0
3, 4191, Note_on_c, 1, 60, 0
3, 4200, Note_on_c, 1, 69, 95
3, 4257, Note_on_c, 1, 69, 0
3, 4260, Note_on_c, 1, 65, 86
3, 4320, Note_on_c, 1, 64, 99
3, 4323, Note_on_c, 1, 65, 0
3, 4328, Control_c, 1, 64, 127
3, 4379, Note_on_c, 1, 64, 0
3, 4380, Note_on_c, 1, 62, 103
3, 4414, Note_on_c, 1, 62, 0
3, 4429, Control_c, 1, 64, 0
3, 4440, Note_on_c, 1, 64, 90
3, 4440, Note_on_c, 1, 50, 86
3, 4440, Note_on_c, 1, 57, 82
3, 4440, Note_on_c, 1, 53, 67
3, 4463, Control_c, 1, 64, 127
3, 4468, Note_on_c, 1, 64, 0
3, 4470, Note_on_c, 1, 62, 82
3, 4492, Note_on_c, 1, 62, 0
3, 4500, Note_on_c, 1, 50, 0
3, 4500, Note_on_c, 1, 64, 86
3, 4503, Note_on_c, 1, 57, 0
3, 4505, Note_on_c, 1, 53, 0
3, 4525, Note_on_c, 1, 64, 0
3, 4530, Note_on_c, 1, 62, 103
3, 4551, Note_on_c, 1, 62, 0
3, 4555, Control_c, 1, 64, 0
3, 4560, Note_on_c, 1, 64, 90
3, 4560, Note_on_c, 1, 53, 69
3, 4560, Note_on_c, 1, 50, 78
3, 4560, Note_on_c, 1, 57, 82
3, 4590, Note_on_c, 1, 64, 0
3, 4590, Note_on_c, 1, 62, 99
3, 4591, Control_c, 1, 64, 127
3, 4614, Note_on_c, 1, 62, 0
3, 4620, Note_on_c, 1, 60, 99
3, 4638, Note_on_c, 1, 53, 0
3, 4638, Note_on_c, 1, 50, 0
3, 4639, Note_on_c, 1, 57, 0
3, 4646, Note_on_c, 1, 60, 0
3, 4650, Note_on_c, 1, 62, 95
3, 4677, Note_on_c, 1, 62, 0
3, 4677, Control_c, 1, 64, 0
3, 4680, Note_on_c, 1, 65, 90
3, 4722, Control_c, 1, 64, 127
3, 4740, Note_on_c, 1, 62, 103
3, 4743, Note_on_c, 1, 65, 0
3, 4760, Note_on_c, 1, 62, 0
3, 4797, Control_c, 1, 64, 0
3, 4800, Note_on_c, 1, 60, 95
3, 4828, Control_c, 1, 64, 127
3, 4857, Note_on_c, 1, 60, 0
3, 4860, Note_on_c, 1, 59, 99
3, 4911, Note_on_c, 1, 59, 0
3, 4920, Note_on_c, 1, 55, 78
3, 4920, Note_on_c, 1, 69, 103
3, 4920, Note_on_c, 1, 43, 86
3, 4922, Control_c, 1, 64, 0
3, 4955, Control_c, 1, 64, 127
3, 4990, Note_on_c, 1, 43, 0
3, 4994, Note_on_c, 1, 55, 0
3, 5040, Note_on_c, 1, 55, 86
3, 5040, Note_on_c, 1, 43, 86
3, 5091, Note_on_c, 1, 43, 0
3, 5101, Note_on_c, 1, 55, 0
3, 5115, Note_on_c, 1, 69, 0
3, 5160, Note_on_c, 1, 65, 99
3, 5160, Note_on_c, 1, 43, 82
3, 5160, Note_on_c, 1, 55, 74
3, 5166, Control_c, 1, 64, 0
3, 5195, Control_c, 1, 64, 127
3, 5208, Note_on_c, 1, 43, 0
3, 5216, Note_on_c, 1, 55, 0
3, 5216, Note_on_c, 1, 65, 0
3, 5280, Note_on_c, 1, 67, 108
3, 5280, Note_on_c, 1, 43, 86
3, 5280, Note_on_c, 1, 55, 78
3, 5291, Control_c, 1, 64, 0
3, 5310, Note_on_c, 1, 65, 82
3, 5314, Note_on_c, 1, 67, 0
3, 5327, Control_c, 1, 64, 127
3, 5336, Note_on_c, 1, 65, 0
3, 5340, Note_on_c, 1, 67, 86
3, 5366, Note_on_c, 1, 67, 0
3, 5370, Note_on_c, 1, 65, 99
3, 5399, Note_on_c, 1, 65, 0
3, 5400, Note_on_c, 1, 67, 90
3, 5410, Control_c, 1, 64, 0
3, 5430, Note_on_c, 1, 65, 95
3, 5431, Note_on_c, 1, 67, 0
3, 5439, Control_c, 1, 64, 127
3, 5456, Note_on_c, 1, 65, 0
3, 5460, Note_on_c, 1, 64, 78
3, 5469, Note_on_c, 1, 43, 0
3, 5474, Note_on_c, 1, 55, 0
3, 5482, Note_on_c, 1, 64, 0
3, 5490, Note_on_c, 1, 65, 86
3, 5506, Control_c, 1, 64, 0
3, 5514, Note_on_c, 1, 65, 0
3, 5520, Note_on_c, 1, 64, 86
3, 5520, Note_on_c, 1, 45, 78
3, 5520, Note_on_c, 1, 57, 69
3, 5541, Control_c, 1, 64, 127
3, 5585, Note_on_c, 1, 57, 0
3, 5585, Note_on_c, 1, 64, 0
3, 5589, Note_on_c, 1, 45, 0
3, 5654, Control_c, 1, 64, 0
3, 5759, Control_c, 1, 64, 127
3, 5760, Note_on_c, 1, 36, 70
3, 5760, Note_on_c, 1, 48, 65
3, 5760, Note_on_c, 1, 52, 78
3, 5820, Note_on_c, 1, 55, 74
3, 5822, Note_on_c, 1, 52, 0
3, 5866, Note_on_c, 1, 55, 0
3, 5880, Note_on_c, 1, 60, 72
3, 5932, Note_on_c, 1, 60, 0
3, 5940, Note_on_c, 1, 55, 82
3, 5942, Note_on_c, 1, 48, 0
3, 5942, Note_on_c, 1, 36, 0
3, 5994, Note_on_c, 1, 55, 0
3, 5996, Control_c, 1, 64, 0
3, 6000, Note_on_c, 1, 52, 82
3, 6000, Note_on_c, 1, 36, 78
3, 6000, Note_on_c, 1, 48, 69
3, 6035, Control_c, 1, 64, 127
3, 6060, Note_on_c, 1, 55, 82
3, 6069, Note_on_c, 1, 52, 0
3, 6119, Note_on_c, 1, 55, 0
3, 6120, Note_on_c, 1, 60, 78
3, 6151, Note_on_c, 1, 36, 0
3, 6167, Note_on_c, 1, 48, 0
3, 6169, Note_on_c, 1, 60, 0
3, 6180, Note_on_c, 1, 55, 86
3, 6200, Note_on_c, 1, 55, 0
3, 6240, Note_on_c, 1, 41, 78
3, 6240, Note_on_c, 1, 53, 72
3, 6246, Control_c, 1, 64, 0
3, 6293, Control_c, 1, 64, 127
3, 6300, Note_on_c, 1, 57, 86
3, 6354, Note_on_c, 1, 57, 0
3, 6360, Note_on_c, 1, 60, 86
3, 6419, Note_on_c, 1, 60, 0
3, 6420, Note_on_c, 1, 57, 78
3, 6441, Note_on_c, 1, 53, 0
3, 6441, Note_on_c, 1, 41, 0
3, 6451, Note_on_c, 1, 57, 0
3, 6480, Note_on_c, 1, 53, 66
3, 6480, Note_on_c, 1, 41, 72
3, 6499, Control_c, 1, 64, 0
3, 6537, Control_c, 1, 64, 127
3, 6540, Note_on_c, 1, 57, 86
3, 6587, Note_on_c, 1, 57, 0
3, 6600, Note_on_c, 1, 53, 0
3, 6600, Note_on_c, 1, 60, 72
3, 6608, Note_on_c, 1, 41, 0
3, 6660, Note_on_c, 1, 57, 82
3, 6662, Note_on_c, 1, 60, 0
3, 6678, Note_on_c, 1, 57, 0
3, 6720, Note_on_c, 1, 52, 78
3, 6720, Note_on_c, 1, 48, 65
3, 6720, Note_on_c, 1, 36, 70
3, 6731, Control_c, 1, 64, 0
3, 6771, Control_c, 1, 64, 127
3, 6780, Note_on_c, 1, 55, 82
3, 6783, Note_on_c, 1, 52, 0
3, 6821, Note_on_c, 1, 36, 0
3, 6822, Note_on_c, 1, 55, 0
3, 6840, Note_on_c, 1, 60, 82
3, 6841, Note_on_c, 1, 48, 0
3, 6873, Note_on_c, 1, 60, 0
3, 6900, Note_on_c, 1, 55, 82
3, 6913, Note_on_c, 1, 55, 0
3, 6960, Note_on_c, 1, 55, 86
3, 6960, Note_on_c, 1, 43, 78
3, 6960, Note_on_c, 1, 50, 82
3, 6970, Control_c, 1, 64, 0
3, 7020, Note_on_c, 1, 53, 78
3, 7033, Note_on_c, 1, 50, 0
3, 7045, Control_c, 1, 64, 127
3, 7080, Note_on_c, 1, 59, 78
3, 7085, Note_on_c, 1, 53, 0
3, 7097, Note_on_c, 1, 55, 0
3, 7111, Note_on_c, 1, 43, 0
3, 7132, Note_on_c, 1, 59, 0
3, 7140, Note_on_c, 1, 53, 78
3, 7158, Note_on_c, 1, 53, 0
3, 7198, Control_c, 1, 64, 0
3, 7200, Note_on_c, 1, 52, 82
3, 7200, Note_on_c, 1, 48, 65
3, 7200, Note_on_c, 1, 36, 70
3, 7239, Control_c, 1, 64, 127
3, 7255, Note_on_c, 1, 52, 0
3, 7260, Note_on_c, 1, 55, 74
3, 7309, Note_on_c, 1, 55, 0
3, 7320, Note_on_c, 1, 60, 86
3, 7374, Note_on_c, 1, 60, 0
3, 7380, Note_on_c, 1, 55, 70
3, 7387, Note_on_c, 1, 36, 0
3, 7387, Note_on_c, 1, 48, 0
3, 7438, Note_on_c, 1, 55, 0
3, 7440, Note_on_c, 1, 52, 74
3, 7440, Note_on_c, 1, 48, 61
3, 7440, Note_on_c, 1, 36, 69
3, 7446, Control_c, 1, 64, 0
3, 7483, Control_c, 1, 64, 127
3, 7500, Note_on_c, 1, 55, 74
3, 7504, Note_on_c, 1, 52, 0
3, 7556, Note_on_c, 1, 55, 0
3, 7560, Note_on_c, 1, 60, 78
3, 7608, Note_on_c, 1, 36, 0
3, 7611, Note_on_c, 1, 60, 0
3, 7614, Note_on_c, 1, 48, 0
3, 7620, Note_on_c, 1, 55, 74
3, 7679, Note_on_c, 1, 55, 0
3, 7680, Note_on_c, 1, 48, 63
3, 7680, Note_on_c, 1, 52, 86
3, 7680, Note_on_c, 1, 36, 69
3, 7682, Control_c, 1, 64, 0
3, 7720, Control_c, 1, 64, 127
3, 7740, Note_on_c, 1, 55, 86
3, 7748, Note_on_c, 1, 52, 0
3, 7800, Note_on_c, 1, 55, 0
3, 7800, Note_on_c, 1, 60, 82
3, 7856, Note_on_c, 1, 60, 0
3, 7860, Note_on_c, 1, 55, 82
3, 7875, Note_on_c, 1, 36, 0
3, 7877, Note_on_c, 1, 48, 0
3, 7915, Note_on_c, 1, 55, 0
3, 7920, Note_on_c, 1, 52, 82
3, 7920, Note_on_c, 1, 48, 65
3, 7920, Note_on_c, 1, 36, 69
3, 7929, Control_c, 1, 64, 0
3, 7966, Control_c, 1, 64, 127
3, 7979, Note_on_c, 1, 52, 0
3, 7980, Note_on_c, 1, 55, 86
3, 8017, Note_on_c, 1, 36, 0
3, 8033, Note_on_c, 1, 55, 0
3, 8040, Note_on_c, 1, 60, 86
3, 8045, Note_on_c, 1, 48, 0
3, 8095, Note_on_c, 1, 60, 0
3, 8100, Note_on_c, 1, 55, 78
3, 8117, Note_on_c, 1, 55, 0
3, 8160, Note_on_c, 1, 41, 78
3, 8160, Note_on_c, 1, 53, 72
3, 8162, Control_c, 1, 64, 0
3, 8200, Control_c, 1, 64, 127
3, 8220, Note_on_c, 1, 57, 82
3, 8279, Note_on_c, 1, 57, 0
3, 8280, Note_on_c, 1, 60, 90
3, 8338, Note_on_c, 1, 60, 0
3, 8340, Note_on_c, 1, 57, 86
3, 8351, Note_on_c, 1, 53, 0
3, 8351, Note_on_c, 1, 41, 0
3, 8363, Note_on_c, 1, 57, 0
3, 8400, Note_on_c, 1, 41, 78
3, 8400, Note_on_c, 1, 53, 72
3, 8407, Control_c, 1, 64, 0
3, 8448, Control_c, 1, 64, 127
3, 8460, Note_on_c, 1, 57, 86
3, 8513, Note_on_c, 1, 57, 0
3, 8518, Note_on_c, 1, 53, 0
3, 8520, Note_on_c, 1, 60, 86
3, 8527, Note_on_c, 1, 41, 0
3, 8573, Note_on_c, 1, 60, 0
3, 8580, Note_on_c, 1, 57, 82
3, 8595, Note_on_c, 1, 57, 0
3, 8640, Note_on_c, 1, 48, 69
3, 8640, Note_on_c, 1, 52, 90
3, 8640, Note_on_c, 1, 36, 74
3, 8641, Control_c, 1, 64, 0
3, 8681, Control_c, 1, 64, 127
3, 8700, Note_on_c, 1, 55, 82
3, 8703, Note_on_c, 1, 52, 0
3, 8753, Note_on_c, 1, 55, 0
3, 8760, Note_on_c, 1, 60, 74
3, 8785, Note_on_c, 1, 36, 0
3, 8811, Note_on_c, 1, 60, 0
3, 8820, Note_on_c, 1, 55, 72
3, 8834, Note_on_c, 1, 55, 0
3, 8837, Note_on_c, 1, 48, 0
3, 8878, Control_c, 1, 64, 0
3, 8880, Note_on_c, 1, 47, 86
3, 8880, Note_on_c, 1, 50, 99
3, 8917, Control_c, 1, 64, 127
3, 8939, Note_on_c, 1, 50, 0
3, 8940, Note_on_c, 1, 55, 78
3, 8975, Note_on_c, 1, 55, 0
3, 8984, Note_on_c, 1, 47, 0
3, 8994, Control_c, 1, 64, 0
3, 9000, Note_on_c, 1, 52, 90
3, 9000, Note_on_c, 1, 48, 86
3, 9024, Control_c, 1, 64, 127
3, 9041, Note_on_c, 1, 52, 0
3, 9060, Note_on_c, 1, 55, 90
3, 9065, Note_on_c, 1, 48, 0
3, 9078, Note_on_c, 1, 55, 0
3, 9115, Control_c, 1, 64, 0
3, 9120, Note_on_c, 1, 59, 99
3, 9120, Note_on_c, 1, 43, 95
3, 9120, Note_on_c, 1, 43, 103
3, 9120, Note_on_c, 1, 55, 99
3, 9120, Note_on_c, 1, 59, 103
3, 9120, Note_on_c, 1, 50, 103
3, 9122, Control_c, 1, 64, 127
3, 9179, Note_on_c, 1, 50, 0
3, 9179, Note_on_c, 1, 43, 0
3, 9183, Note_on_c, 1, 55, 0
3, 9183, Note_on_c, 1, 59, 0
3, 9201, Note_on_c, 1, 43, 0
3, 9206, Note_on_c, 1, 59, 0
3, 9236, Control_c, 1, 64, 0
3, 9240, Note_on_c, 1, 55, 99
3, 9240, Note_on_c, 1, 59, 99
3, 9240, Note_on_c, 1, 50, 99
3, 9240, Note_on_c, 1, 43, 99
3, 9266, Control_c, 1, 64, 127
3, 9285, Note_on_c, 1, 50, 0
3, 9289, Note_on_c, 1, 43, 0
3, 9291, Note_on_c, 1, 59, 0
3, 9292, Note_on_c, 1, 55, 0
3, 9358, Control_c, 1, 64, 0
3, 9360, Note_on_c, 1, 55, 95
3, 9360, Note_on_c, 1, 50, 95
3, 9360, Note_on_c, 1, 59, 103
3, 9360, Note_on_c, 1, 43, 103
3, 9383, Control_c, 1, 64, 127
3, 9392, Note_on_c, 1, 59, 0
3, 9394, Note_on_c, 1, 55, 0
3, 9399, Note_on_c, 1, 50, 0
3, 9404, Note_on_c, 1, 43, 0
3, 9484, Control_c, 1, 64, 0
3, 9600, Note_on_c, 1, 55, 86
3, 9600, Note_on_c, 1, 47, 99
3, 9600, Note_on_c, 1, 43, 86
3, 9600, Note_on_c, 1, 31, 99
3, 9603, Control_c, 1, 64, 127
3, 9830, Note_on_c, 1, 43, 0
3, 9830, Note_on_c, 1, 47, 0
3, 9832, Note_on_c, 1, 31, 0
3, 9837, Note_on_c, 1, 55, 0
3, 9837, Control_c, 1, 64, 0
3, 10080, Note_on_c, 1, 38, 95
3, 10080, Note_on_c, 1, 50, 95
3, 10080, Note_on_c, 1, 60, 99
3, 10108, Control_c, 1, 64, 127
3, 10110, Note_on_c, 1, 57, 90
3, 10112, Note_on_c, 1, 60, 0
3, 10132, Control_c, 1, 64, 0
3, 10139, Note_on_c, 1, 57, 0
3, 10140, Note_on_c, 1, 59, 86
3, 10170, Note_on_c, 1, 60, 86
3, 10175, Note_on_c, 1, 59, 0
3, 10188, Note_on_c, 1, 60, 0
3, 10200, Note_on_c, 1, 62, 86
3, 10222, Note_on_c, 1, 62, 0
3, 10230, Note_on_c, 1, 64, 72
3, 10248, Control_c, 1, 64, 127
3, 10251, Note_on_c, 1, 64, 0
3, 10257, Note_on_c, 1, 38, 0
3, 10260, Note_on_c, 1, 66, 90
3, 10269, Note_on_c, 1, 50, 0
3, 10279, Note_on_c, 1, 66, 0
3, 10290, Note_on_c, 1, 67, 99
3, 10309, Note_on_c, 1, 67, 0
3, 10320, Control_c, 1, 64, 0
3, 10320, Note_on_c, 1, 69, 99
3, 10320, Note_on_c, 1, 42, 70
3, 10320, Note_on_c, 1, 54, 70
3, 10345, Note_on_c, 1, 69, 0
3, 10350, Note_on_c, 1, 67, 103
3, 10368, Control_c, 1, 64, 127
3, 10372, Note_on_c, 1, 67, 0
3, 10380, Note_on_c, 1, 66, 90
3, 10403, Note_on_c, 1, 66, 0
3, 10410, Note_on_c, 1, 64, 82
3, 10434, Note_on_c, 1, 64, 0
3, 10440, Note_on_c, 1, 62, 90
3, 10440, Control_c, 1, 64, 0
3, 10461, Note_on_c, 1, 62, 0
3, 10470, Note_on_c, 1, 60, 95
3, 10480, Control_c, 1, 64, 127
3, 10494, Note_on_c, 1, 60, 0
3, 10500, Note_on_c, 1, 59, 86
3, 10514, Note_on_c, 1, 54, 0
3, 10518, Note_on_c, 1, 42, 0
3, 10527, Note_on_c, 1, 59, 0
3, 10530, Note_on_c, 1, 57, 86
3, 10550, Note_on_c, 1, 57, 0
3, 10555, Control_c, 1, 64, 0
3, 10560, Note_on_c, 1, 43, 78
3, 10560, Note_on_c, 1, 59, 99
3, 10560, Note_on_c, 1, 55, 74
3, 10591, Control_c, 1, 64, 127
3, 10744, Note_on_c, 1, 59, 0
3, 10750, Note_on_c, 1, 55, 0
3, 10754, Note_on_c, 1, 43, 0
3, 10796, Control_c, 1, 64, 0
3, 11040, Note_on_c, 1, 60, 78
3, 11040, Note_on_c, 1, 38, 82
3, 11040, Note_on_c, 1, 50, 70
3, 11052, Control_c, 1, 64, 127
3, 11060, Note_on_c, 1, 60, 0
3, 11070, Note_on_c, 1, 57, 78
3, 11100, Note_on_c, 1, 59, 82
3, 11102, Note_on_c, 1, 57, 0
3, 11130, Note_on_c, 1, 60, 78
3, 11132, Note_on_c, 1, 59, 0
3, 11148, Note_on_c, 1, 60, 0
3, 11156, Control_c, 1, 64, 0
3, 11160, Note_on_c, 1, 62, 86
3, 11181, Note_on_c, 1, 62, 0
3, 11190, Note_on_c, 1, 64, 67
3, 11193, Control_c, 1, 64, 127
3, 11212, Note_on_c, 1, 64, 0
3, 11220, Note_on_c, 1, 66, 72
3, 11234, Note_on_c, 1, 38, 0
3, 11243, Note_on_c, 1, 66, 0
3, 11245, Note_on_c, 1, 50, 0
3, 11250, Note_on_c, 1, 67, 86
3, 11274, Note_on_c, 1, 67, 0
3, 11280, Note_on_c, 1, 69, 90
3, 11280, Note_on_c, 1, 42, 86
3, 11280, Note_on_c, 1, 54, 74
3, 11286, Control_c, 1, 64, 0
3, 11307, Note_on_c, 1, 69, 0
3, 11310, Note_on_c, 1, 67, 90
3, 11327, Control_c, 1, 64, 127
3, 11337, Note_on_c, 1, 67, 0
3, 11340, Note_on_c, 1, 66, 67
3, 11370, Note_on_c, 1, 64, 66
3, 11374, Note_on_c, 1, 66, 0
3, 11395, Note_on_c, 1, 64, 0
3, 11400, Note_on_c, 1, 62, 82
3, 11412, Control_c, 1, 64, 0
3, 11423, Note_on_c, 1, 62, 0
3, 11430, Note_on_c, 1, 60, 70
3, 11441, Control_c, 1, 64, 127
3, 11460, Note_on_c, 1, 59, 82
3, 11463, Note_on_c, 1, 60, 0
3, 11474, Note_on_c, 1, 42, 0
3, 11476, Note_on_c, 1, 54, 0
3, 11489, Note_on_c, 1, 59, 0
3, 11490, Note_on_c, 1, 57, 65
3, 11510, Note_on_c, 1, 57, 0
3, 11515, Control_c, 1, 64, 0
3, 11520, Note_on_c, 1, 43, 72
3, 11520, Note_on_c, 1, 55, 66
3, 11520, Note_on_c, 1, 59, 95
3, 11547, Control_c, 1, 64, 127
3, 11635, Note_on_c, 1, 59, 0
3, 11636, Note_on_c, 1, 43, 0
3, 11639, Note_on_c, 1, 55, 0
3, 11645, Control_c, 1, 64, 0
3, 11760, Note_on_c, 1, 55, 90
3, 11760, Note_on_c, 1, 59, 99
3, 11760, Note_on_c, 1, 50, 86
3, 11762, Control_c, 1, 64, 127
3, 11873, Note_on_c, 1, 50, 0
3, 11874, Note_on_c, 1, 59, 0
3, 11875, Note_on_c, 1, 55, 0
3, 11883, Control_c, 1, 64, 0
3, 12000, Note_on_c, 1, 60, 95
3, 12000, Note_on_c, 1, 48, 90
3, 12000, Note_on_c, 1, 64, 99
3, 12007, Control_c, 1, 64, 127
3, 12107, Note_on_c, 1, 64, 0
3, 12107, Note_on_c, 1, 60, 0
3, 12109, Note_on_c, 1, 48, 0
3, 12139, Control_c, 1, 64, 0
3, 12480, Note_on_c, 1, 43, 67
3, 12480, Note_on_c, 1, 55, 70
3, 12480, Note_on_c, 1, 59, 95
3, 12492, Control_c, 1, 64, 127
3, 12540, Note_on_c, 1, 62, 86
3, 12548, Note_on_c, 1, 59, 0
3, 12599, Note_on_c, 1, 62, 0
3, 12600, Note_on_c, 1, 67, 86
3, 12631, Note_on_c, 1, 55, 0
3, 12641, Note_on_c, 1, 43, 0
3, 12660, Note_on_c, 1, 67, 0
3, 12660, Note_on_c, 1, 62, 82
3, 12702, Note_on_c, 1, 62, 0
3, 12720, Note_on_c, 1, 57, 86
3, 12720, Note_on_c, 1, 50, 70
3, 12720, Note_on_c, 1, 38, 69
3, 12733, Control_c, 1, 64, 0
3, 12776, Control_c, 1, 64, 127
3, 12780, Note_on_c, 1, 62, 86
3, 12787, Note_on_c, 1, 57, 0
3, 12839, Note_on_c, 1, 62, 0
3, 12840, Note_on_c, 1, 66, 82
3, 12863, Note_on_c, 1, 38, 0
3, 12895, Note_on_c, 1, 66, 0
3, 12897, Note_on_c, 1, 50, 0
3, 12900, Note_on_c, 1, 62, 99
3, 12920, Note_on_c, 1, 62, 0
3, 12954, Control_c, 1, 64, 0
3, 12960, Note_on_c, 1, 43, 82
3, 12960, Note_on_c, 1, 62, 103
3, 12987, Control_c, 1, 64, 127
3, 13012, Note_on_c, 1, 62, 0
3, 13020, Note_on_c, 1, 59, 86
3, 13020, Note_on_c, 1, 50, 82
3, 13023, Note_on_c, 1, 43, 0
3, 13030, Control_c, 1, 64, 0
3, 13064, Control_c, 1, 64, 127
3, 13074, Note_on_c, 1, 59, 0
3, 13079, Note_on_c, 1, 50, 0
3, 13080, Note_on_c, 1, 47, 82
3, 13100, Control_c, 1, 64, 0
3, 13135, Note_on_c, 1, 47, 0
3, 13140, Note_on_c, 1, 62, 103
3, 13140, Note_on_c, 1, 50, 86
3, 13142, Control_c, 1, 64, 127
3, 13159, Note_on_c, 1, 62, 0
3, 13185, Note_on_c, 1, 50, 0
3, 13190, Control_c, 1, 64, 0
3, 13200, Note_on_c, 1, 45, 74
3, 13200, Note_on_c, 1, 62, 112
3, 13227, Control_c, 1, 64, 127
3, 13249, Note_on_c, 1, 62, 0
3, 13258, Note_on_c, 1, 45, 0
3, 13260, Note_on_c, 1, 50, 82
3, 13260, Note_on_c, 1, 60, 82
3, 13277, Control_c, 1, 64, 0
3, 13314, Control_c, 1, 64, 127
3, 13320, Note_on_c, 1, 48, 82
3, 13322, Note_on_c, 1, 50, 0
3, 13328, Note_on_c, 1, 60, 0
3, 13369, Control_c, 1, 64, 0
3, 13376, Note_on_c, 1, 48, 0
3, 13380, Note_on_c, 1, 50, 82
3, 13380, Note_on_c, 1, 57, 95
3, 13395, Control_c, 1, 64, 127
3, 13407, Note_on_c, 1, 57, 0
3, 13413, Note_on_c, 1, 50, 0
3, 13436, Control_c, 1, 64, 0
3, 13440, Note_on_c, 1, 43, 90
3, 13440, Note_on_c, 1, 59, 86
3, 13459, Control_c, 1, 64, 127
3, 13464, Note_on_c, 1, 59, 0
3, 13470, Note_on_c, 1, 55, 90
3, 13487, Note_on_c, 1, 43, 0
3, 13491, Control_c, 1, 64, 0
3, 13500, Note_on_c, 1, 55, 0
3, 13500, Note_on_c, 1, 57, 95
3, 13529, Note_on_c, 1, 57, 0
3, 13530, Note_on_c, 1, 59, 90
3, 13554, Note_on_c, 1, 59, 0
3, 13560, Note_on_c, 1, 60, 103
3, 13584, Note_on_c, 1, 60, 0
3, 13590, Note_on_c, 1, 62, 90
3, 13619, Note_on_c, 1, 62, 0
3, 13620, Note_on_c, 1, 64, 95
3, 13649, Note_on_c, 1, 64, 0
3, 13650, Note_on_c, 1, 66, 103
3, 13675, Note_on_c, 1, 66, 0
3, 13680, Note_on_c, 1, 67, 103
3, 13706, Note_on_c, 1, 67, 0
3, 13710, Note_on_c, 1, 66, 86
3, 13740, Note_on_c, 1, 64, 99
3, 13741, Note_on_c, 1, 66, 0
3, 13770, Note_on_c, 1, 62, 90
3, 13774, Note_on_c, 1, 64, 0
3, 13797, Note_on_c, 1, 62, 0
3, 13800, Note_on_c, 1, 60, 82
3, 13828, Note_on_c, 1, 60, 0
3, 13830, Note_on_c, 1, 59, 78
3, 13838, Control_c, 1, 64, 127
3, 13860, Note_on_c, 1, 57, 86
3, 13862, Note_on_c, 1, 59, 0
3, 13890, Note_on_c, 1, 55, 82
3, 13891, Note_on_c, 1, 57, 0
3, 13904, Control_c, 1, 64, 0
3, 13912, Note_on_c, 1, 55, 0
3, 13920, Note_on_c, 1, 43, 72
3, 13920, Note_on_c, 1, 62, 99
3, 13940, Control_c, 1, 64, 127
3, 13972, Note_on_c, 1, 62, 0
3, 13980, Note_on_c, 1, 59, 69
3, 13980, Note_on_c, 1, 50, 69
3, 13991, Control_c, 1, 64, 0
3, 13996, Note_on_c, 1, 43, 0
3, 14021, Control_c, 1, 64, 127
3, 14038, Note_on_c, 1, 50, 0
3, 14038, Note_on_c, 1, 59, 0
3, 14040, Note_on_c, 1, 47, 72
3, 14078, Control_c, 1, 64, 0
3, 14100, Note_on_c, 1, 50, 74
3, 14100, Note_on_c, 1, 62, 95
3, 14105, Note_on_c, 1, 47, 0
3, 14112, Control_c, 1, 64, 127
3, 14125, Note_on_c, 1, 62, 0
3, 14149, Note_on_c, 1, 50, 0
3, 14160, Note_on_c, 1, 62, 86
3, 14160, Note_on_c, 1, 45, 72
3, 14161, Control_c, 1, 64, 0
3, 14193, Control_c, 1, 64, 127
3, 14206, Note_on_c, 1, 62, 0
3, 14215, Note_on_c, 1, 45, 0
3, 14220, Note_on_c, 1, 50, 72
3, 14220, Note_on_c, 1, 60, 86
3, 14228, Control_c, 1, 64, 0
3, 14263, Control_c, 1, 64, 127
3, 14279, Note_on_c, 1, 50, 0
3, 14280, Note_on_c, 1, 48, 69
3, 14281, Note_on_c, 1, 60, 0
3, 14321, Control_c, 1, 64, 0
3, 14333, Note_on_c, 1, 48, 0
3, 14340, Note_on_c, 1, 50, 67
3, 14340, Note_on_c, 1, 57, 86
3, 14345, Control_c, 1, 64, 127
3, 14367, Note_on_c, 1, 57, 0
3, 14379, Note_on_c, 1, 50, 0
3, 14387, Control_c, 1, 64, 0
3, 14400, Note_on_c, 1, 59, 74
3, 14400, Note_on_c, 1, 43, 74
3, 14414, Control_c, 1, 64, 127
3, 14429, Note_on_c, 1, 59, 0
3, 14430, Note_on_c, 1, 55, 72
3, 14438, Note_on_c, 1, 43, 0
3, 14440, Control_c, 1, 64, 0
3, 14460, Note_on_c, 1, 57, 90
3, 14466, Note_on_c, 1, 55, 0
3, 14490, Note_on_c, 1, 59, 74
3, 14492, Note_on_c, 1, 57, 0
3, 14513, Note_on_c, 1, 59, 0
3, 14520, Note_on_c, 1, 60, 72
3, 14548, Note_on_c, 1, 60, 0
3, 14550, Note_on_c, 1, 62, 86
3, 14580, Note_on_c, 1, 64, 78
3, 14588, Note_on_c, 1, 62, 0
3, 14610, Note_on_c, 1, 66, 72
3, 14611, Note_on_c, 1, 64, 0
3, 14640, Note_on_c, 1, 66, 0
3, 14640, Note_on_c, 1, 67, 103
3, 14670, Note_on_c, 1, 67, 0
3, 14670, Note_on_c, 1, 66, 74
3, 14700, Note_on_c, 1, 64, 95
3, 14708, Note_on_c, 1, 66, 0
3, 14730, Note_on_c, 1, 62, 86
3, 14734, Note_on_c, 1, 64, 0
3, 14760, Note_on_c, 1, 60, 82
3, 14763, Note_on_c, 1, 62, 0
3, 14789, Note_on_c, 1, 60, 0
3, 14790, Note_on_c, 1, 59, 72
3, 14820, Note_on_c, 1, 57, 86
3, 14826, Note_on_c, 1, 59, 0
3, 14827, Control_c, 1, 64, 127
3, 14848, Note_on_c, 1, 57, 0
3, 14850, Note_on_c, 1, 55, 74
3, 14875, Note_on_c, 1, 55, 0
3, 14877, Control_c, 1, 64, 0
3, 14880, Note_on_c, 1, 64, 99
3, 14880, Note_on_c, 1, 48, 86
3, 14891, Control_c, 1, 64, 127
3, 14900, Note_on_c, 1, 64, 0
3, 14910, Note_on_c, 1, 63, 99
3, 14937, Note_on_c, 1, 63, 0
3, 14939, Control_c, 1, 64, 0
3, 14940, Note_on_c, 1, 64, 95
3, 14966, Note_on_c, 1, 64, 0
3, 14970, Note_on_c, 1, 66, 82
3, 14990, Note_on_c, 1, 66, 0
3, 15000, Note_on_c, 1, 67, 103
3, 15014, Control_c, 1, 64, 127
3, 15028, Note_on_c, 1, 67, 0
3, 15030, Note_on_c, 1, 66, 86
3, 15052, Note_on_c, 1, 66, 0
3, 15060, Note_on_c, 1, 67, 90
3, 15089, Note_on_c, 1, 67, 0
3, 15090, Note_on_c, 1, 66, 99
3, 15107, Note_on_c, 1, 66, 0
3, 15109, Control_c, 1, 64, 0
3, 15113, Note_on_c, 1, 48, 0
3, 15120, Note_on_c, 1, 67, 90
3, 15120, Note_on_c, 1, 47, 95
3, 15148, Note_on_c, 1, 67, 0
3, 15150, Note_on_c, 1, 66, 78
3, 15173, Control_c, 1, 64, 127
3, 15180, Note_on_c, 1, 64, 99
3, 15186, Note_on_c, 1, 66, 0
3, 15210, Note_on_c, 1, 62, 86
3, 15212, Note_on_c, 1, 64, 0
3, 15239, Note_on_c, 1, 62, 0
3, 15240, Note_on_c, 1, 60, 95
3, 15262, Note_on_c, 1, 60, 0
3, 15270, Note_on_c, 1, 59, 90
3, 15294, Note_on_c, 1, 59, 0
3, 15300, Note_on_c, 1, 57, 103
3, 15319, Note_on_c, 1, 47, 0
3, 15326, Note_on_c, 1, 57, 0
3, 15330, Note_on_c, 1, 55, 99
3, 15346, Note_on_c, 1, 55, 0
3, 15351, Control_c, 1, 64, 0
3, 15360, Note_on_c, 1, 43, 99
3, 15360, Note_on_c, 1, 67, 99
3, 15360, Note_on_c, 1, 43, 82
3, 15374, Control_c, 1, 64, 127
3, 15399, Note_on_c, 1, 43, 0
3, 15420, Note_on_c, 1, 69, 103
3, 15424, Note_on_c, 1, 67, 0
3, 15460, Note_on_c, 1, 43, 0
3, 15470, Note_on_c, 1, 69, 0
3, 15480, Note_on_c, 1, 70, 99
3, 15482, Control_c, 1, 64, 0
3, 15535, Note_on_c, 1, 70, 0
3, 15540, Note_on_c, 1, 71, 99
3, 15600, Note_on_c, 1, 69, 103
3, 15603, Note_on_c, 1, 71, 0
3, 15660, Note_on_c, 1, 67, 90
3, 15661, Note_on_c, 1, 69, 0
3, 15720, Note_on_c, 1, 66, 82
3, 15727, Note_on_c, 1, 67, 0
3, 15771, Note_on_c, 1, 66, 0
3, 15772, Control_c, 1, 64, 127
3, 15780, Note_on_c, 1, 67, 99
3, 15799, Note_on_c, 1, 67, 0
3, 15840, Note_on_c, 1, 50, 95
3, 15840, Note_on_c, 1, 57, 90
3, 15842, Control_c, 1, 64, 0
3, 15897, Control_c, 1, 64, 127
3, 15900, Note_on_c, 1, 60, 78
3, 15912, Note_on_c, 1, 57, 0
3, 15960, Note_on_c, 1, 66, 82
3, 15963, Note_on_c, 1, 60, 0
3, 16017, Note_on_c, 1, 66, 0
3, 16020, Note_on_c, 1, 60, 86
3, 16077, Note_on_c, 1, 60, 0
3, 16080, Note_on_c, 1, 57, 82
3, 16080, Note_on_c, 1, 38, 86
3, 16081, Note_on_c, 1, 50, 0
3, 16095, Control_c, 1, 64, 0
3, 16137, Control_c, 1, 64, 127
3, 16140, Note_on_c, 1, 60, 86
3, 16144, Note_on_c, 1, 57, 0
3, 16190, Note_on_c, 1, 38, 0
3, 16198, Note_on_c, 1, 60, 0
3, 16200, Note_on_c, 1, 66, 74
3, 16248, Note_on_c, 1, 66, 0
3, 16260, Note_on_c, 1, 60, 70
3, 16305, Note_on_c, 1, 60, 0
3, 16317, Control_c, 1, 64, 0
3, 16320, Note_on_c, 1, 55, 72
3, 16320, Note_on_c, 1, 59, 74
3, 16369, Control_c, 1, 64, 127
3, 16380, Note_on_c, 1, 62, 86
3, 16395, Note_on_c, 1, 59, 0
3, 16440, Note_on_c, 1, 67, 69
3, 16441, Note_on_c, 1, 62, 0
3, 16500, Note_on_c, 1, 62, 86
3, 16506, Note_on_c, 1, 67, 0
3, 16531, Note_on_c, 1, 55, 0
3, 16551, Note_on_c, 1, 62, 0
3, 16560, Note_on_c, 1, 57, 90
3, 16560, Note_on_c, 1, 50, 72
3, 16567, Control_c, 1, 64, 0
3, 16617, Control_c, 1, 64, 127
3, 16620, Note_on_c, 1, 60, 72
3, 16631, Note_on_c, 1, 57, 0
3, 16680, Note_on_c, 1, 66, 72
3, 16685, Note_on_c, 1, 60, 0
3, 16734, Note_on_c, 1, 66, 0
3, 16740, Note_on_c, 1, 60, 70
3, 16773, Note_on_c, 1, 50, 0
3, 16797, Note_on_c, 1, 60, 0
3, 16800, Note_on_c, 1, 59, 72
3, 16800, Note_on_c, 1, 43, 66
3, 16808, Control_c, 1, 64, 0
3, 16850, Control_c, 1, 64, 127
3, 16860, Note_on_c, 1, 62, 82
3, 16867, Note_on_c, 1, 59, 0
3, 16914, Note_on_c, 1, 62, 0
3, 16920, Note_on_c, 1, 67, 82
3, 16978, Note_on_c, 1, 43, 0
3, 16980, Note_on_c, 1, 62, 86
3, 16982, Note_on_c, 1, 67, 0
3, 17002, Note_on_c, 1, 62, 0
3, 17040, Note_on_c, 1, 57, 82
3, 17040, Note_on_c, 1, 50, 72
3, 17051, Control_c, 1, 64, 0
3, 17093, Control_c, 1, 64, 127
3, 17099, Note_on_c, 1, 57, 0
3, 17100, Note_on_c, 1, 60, 72
3, 17157, Note_on_c, 1, 60, 0
3, 17160, Note_on_c, 1, 66, 69
3, 17175, Note_on_c, 1, 50, 0
3, 17215, Note_on_c, 1, 66, 0
3, 17220, Note_on_c, 1, 60, 72
3, 17272, Note_on_c, 1, 60, 0
3, 17280, Note_on_c, 1, 55, 86
3, 17280, Note_on_c, 1, 59, 95
3, 17283, Control_c, 1, 64, 0
3, 17319, Control_c, 1, 64, 127
3, 17338, Note_on_c, 1, 59, 0
3, 17340, Note_on_c, 1, 67, 99
3, 17367, Note_on_c, 1, 67, 0
3, 17367, Note_on_c, 1, 55, 0
3, 17400, Note_on_c, 1, 60, 90
3, 17400, Note_on_c, 1, 50, 90
3, 17404, Control_c, 1, 64, 0
3, 17437, Control_c, 1, 64, 127
3, 17455, Note_on_c, 1, 60, 0
3, 17460, Note_on_c, 1, 66, 86
3, 17479, Note_on_c, 1, 50, 0
3, 17509, Note_on_c, 1, 66, 0
3, 17520, Note_on_c, 1, 59, 99
3, 17520, Note_on_c, 1, 55, 86
3, 17522, Control_c, 1, 64, 0
3, 17558, Control_c, 1, 64, 127
3, 17580, Note_on_c, 1, 67, 99
3, 17581, Note_on_c, 1, 59, 0
3, 17604, Note_on_c, 1, 55, 0
3, 17612, Note_on_c, 1, 67, 0
3, 17640, Note_on_c, 1, 60, 82
3, 17640, Note_on_c, 1, 50, 72
3, 17645, Control_c, 1, 64, 0
3, 17680, Control_c, 1, 64, 127
3, 17697, Note_on_c, 1, 60, 0
3, 17700, Note_on_c, 1, 66, 78
3, 17720, Note_on_c, 1, 50, 0
3, 17735, Note_on_c, 1, 66, 0
3, 17760, Note_on_c, 1, 55, 86
3, 17760, Note_on_c, 1, 59, 72
3, 17774, Control_c, 1, 64, 0
3, 17815, Note_on_c, 1, 59, 0
3, 17819, Control_c, 1, 64, 127
3, 17820, Note_on_c, 1, 67, 90
3, 17861, Note_on_c, 1, 55, 0
3, 17862, Note_on_c, 1, 67, 0
3, 17880, Note_on_c, 1, 60, 95
3, 17880, Note_on_c, 1, 50, 86
3, 17885, Control_c, 1, 64, 0
3, 17916, Control_c, 1, 64, 127
3, 17937, Note_on_c, 1, 60, 0
3, 17940, Note_on_c, 1, 66, 78
3, 17959, Note_on_c, 1, 50, 0
3, 17991, Note_on_c, 1, 66, 0
3, 18000, Note_on_c, 1, 59, 90
3, 18000, Note_on_c, 1, 55, 74
3, 18003, Control_c, 1, 64, 0
3, 18037, Control_c, 1, 64, 127
3, 18059, Note_on_c, 1, 59, 0
3, 18060, Note_on_c, 1, 67, 90
3, 18088, Note_on_c, 1, 55, 0
3, 18103, Note_on_c, 1, 67, 0
3, 18118, Control_c, 1, 64, 0
3, 18120, Note_on_c, 1, 60, 90
3, 18120, Note_on_c, 1, 50, 82
3, 18146, Control_c, 1, 64, 127
3, 18163, Note_on_c, 1, 50, 0
3, 18176, Note_on_c, 1, 60, 0
3, 18180, Note_on_c, 1, 66, 82
3, 18196, Note_on_c, 1, 66, 0
3, 18240, Note_on_c, 1, 62, 103
3, 18240, Note_on_c, 1, 67, 99
3, 18240, Note_on_c, 1, 31, 82
3, 18240, Note_on_c, 1, 43, 78
3, 18246, Control_c, 1, 64, 127
3, 18306, Note_on_c, 1, 43, 0
3, 18306, Note_on_c, 1, 31, 0
3, 18308, Note_on_c, 1, 62, 0
3, 18309, Note_on_c, 1, 67, 0
3, 18360, Control_c, 1, 64, 0
3, 18360, Note_on_c, 1, 31, 99
3, 18360, Note_on_c, 1, 67, 103
3, 18360, Note_on_c, 1, 62, 99
3, 18360, Note_on_c, 1, 43, 78
3, 18388, Control_c, 1, 64, 127
3, 18426, Note_on_c, 1, 43, 0
3, 18426, Note_on_c, 1, 67, 0
3, 18427, Note_on_c, 1, 62, 0
3, 18427, Note_on_c, 1, 31, 0
3, 18470, Control_c, 1, 64, 0
3, 18480, Note_on_c, 1, 62, 103
3, 18480, Note_on_c, 1, 31, 99
3, 18480, Note_on_c, 1, 67, 112
3, 18480, Note_on_c, 1, 43, 82
3, 18497, Control_c, 1, 64, 127
3, 18528, Note_on_c, 1, 67, 0
3, 18528, Note_on_c, 1, 62, 0
3, 18529, Note_on_c, 1, 43, 0
3, 18530, Note_on_c, 1, 31, 0
3, 18604, Control_c, 1, 64, 0
3, 18720, Note_on_c, 1, 59, 99
3, 18720, Note_on_c, 1, 62, 103
3, 18720, Note_on_c, 1, 43, 95
3, 18720, Note_on_c, 1, 55, 86
3, 18742, Control_c, 1, 64, 127
3, 18864, Note_on_c, 1, 62, 0
3, 18866, Note_on_c, 1, 59, 0
3, 18867, Note_on_c, 1, 55, 0
3, 18871, Note_on_c, 1, 43, 0
3, 18960, Note_on_c, 1, 55, 95
3, 18960, Note_on_c, 1, 59, 108
3, 18960, Note_on_c, 1, 62, 108
3, 18960, Note_on_c, 1, 43, 99
3, 18965, Control_c, 1, 64, 0
3, 19002, Control_c, 1, 64, 127
3, 19124, Note_on_c, 1, 62, 0
3, 19126, Note_on_c, 1, 43, 0
3, 19126, Note_on_c, 1, 55, 0
3, 19127, Note_on_c, 1, 59, 0
3, 19200, Note_on_c, 1, 59, 117
3, 19200, Note_on_c, 1, 55, 103
3, 19200, Note_on_c, 1, 62, 112
3, 19200, Note_on_c, 1, 43, 99
3, 19204, Control_c, 1, 64, 0
3, 19239, Control_c, 1, 64, 127
3, 19429, Note_on_c, 1, 55, 0
3, 19429, Control_c, 1, 64, 0
3, 19430, Note_on_c, 1, 62, 0
3, 19433, Note_on_c, 1, 59, 0
3, 19434, Note_on_c, 1, 43, 0
3, 19680, Note_on_c, 1, 59, 112
3, 19680, Note_on_c, 1, 41, 99
3, 19680, Note_on_c, 1, 56, 103
3, 19680, Note_on_c, 1, 53, 95
3, 19680, Note_on_c, 1, 62, 103
3, 19680, Note_on_c, 1, 50, 103
3, 19699, Control_c, 1, 64, 127
3, 19841, Note_on_c, 1, 62, 0
3, 19842, Note_on_c, 1, 59, 0
3, 19844, Note_on_c, 1, 56, 0
3, 19845, Note_on_c, 1, 50, 0
3, 19845, Note_on_c, 1, 41, 0
3, 19846, Note_on_c, 1, 53, 0
3, 19920, Note_on_c, 1, 53, 86
3, 19920, Note_on_c, 1, 56, 90
3, 19920, Note_on_c, 1, 59, 108
3, 19920, Note_on_c, 1, 41, 90
3, 19920, Note_on_c, 1, 62, 108
3, 19920, Note_on_c, 1, 50, 99
3, 19922, Control_c, 1, 64, 0
3, 19958, Control_c, 1, 64, 127
3, 20062, Note_on_c, 1, 62, 0
3, 20063, Note_on_c, 1, 59, 0
3, 20064, Note_on_c, 1, 56, 0
3, 20065, Note_on_c, 1, 50, 0
3, 20066, Note_on_c, 1, 53, 0
3, 20067, Note_on_c, 1, 41, 0
3, 20156, Control_c, 1, 64, 0
3, 20160, Note_on_c, 1, 56, 86
3, 20160, Note_on_c, 1, 59, 112
3, 20160, Note_on_c, 1, 62, 103
3, 20160, Note_on_c, 1, 41, 95
3, 20160, Note_on_c, 1, 53, 86
3, 20160, Note_on_c, 1, 50, 99
3, 20189, Control_c, 1, 64, 127
3, 20392, Note_on_c, 1, 50, 0
3, 20395, Note_on_c, 1, 59, 0
3, 20396, Control_c, 1, 64, 0
3, 20398, Note_on_c, 1, 53, 0
3, 20399, Note_on_c, 1, 62, 0
3, 20400, Note_on_c, 1, 56, 0
3, 20402, Note_on_c, 1, 41, 0
3, 20640, Note_on_c, 1, 57, 82
3, 20640, Note_on_c, 1, 40, 72
3, 20640, Note_on_c, 1, 52, 62
3, 20657, Control_c, 1, 64, 127
3, 20700, Note_on_c, 1, 60, 78
3, 20715, Note_on_c, 1, 57, 0
3, 20755, Note_on_c, 1, 60, 0
3, 20760, Note_on_c, 1, 64, 78
3, 20763, Note_on_c, 1, 40, 0
3, 20772, Note_on_c, 1, 52, 0
3, 20820, Note_on_c, 1, 60, 82
3, 20823, Note_on_c, 1, 64, 0
3, 20846, Note_on_c, 1, 60, 0
3, 20880, Note_on_c, 1, 45, 74
3, 20880, Note_on_c, 1, 57, 82
3, 20886, Control_c, 1, 64, 0
3, 20926, Control_c, 1, 64, 127
3, 20940, Note_on_c, 1, 60, 74
3, 20987, Note_on_c, 1, 60, 0
3, 21000, Note_on_c, 1, 64, 86
3, 21003, Note_on_c, 1, 57, 0
3, 21014, Note_on_c, 1, 45, 0
3, 21052, Note_on_c, 1, 64, 0
3, 21060, Note_on_c, 1, 60, 86
3, 21079, Note_on_c, 1, 60, 0
3, 21120, Note_on_c, 1, 56, 78
3, 21120, Note_on_c, 1, 40, 82
3, 21120, Note_on_c, 1, 52, 72
3, 21129, Control_c, 1, 64, 0
3, 21166, Control_c, 1, 64, 127
3, 21177, Note_on_c, 1, 56, 0
3, 21180, Note_on_c, 1, 59, 90
3, 21212, Note_on_c, 1, 59, 0
3, 21240, Note_on_c, 1, 64, 70
3, 21271, Note_on_c, 1, 52, 0
3, 21274, Note_on_c, 1, 40, 0
3, 21283, Note_on_c, 1, 64, 0
3, 21300, Note_on_c, 1, 59, 86
3, 21355, Note_on_c, 1, 59, 0
3, 21360, Note_on_c, 1, 40, 74
3, 21360, Note_on_c, 1, 52, 70
3, 21360, Note_on_c, 1, 56, 78
3, 21363, Control_c, 1, 64, 0
3, 21397, Control_c, 1, 64, 127
3, 21417, Note_on_c, 1, 56, 0
3, 21420, Note_on_c, 1, 59, 86
3, 21459, Note_on_c, 1, 40, 0
3, 21464, Note_on_c, 1, 59, 0
3, 21480, Note_on_c, 1, 64, 74
3, 21483, Note_on_c, 1, 52, 0
3, 21528, Note_on_c, 1, 64, 0
3, 21540, Note_on_c, 1, 59, 86
3, 21556, Note_on_c, 1, 59, 0
3, 21600, Note_on_c, 1, 45, 86
3, 21600, Note_on_c, 1, 57, 86
3, 21609, Control_c, 1, 64, 0
3, 21646, Control_c, 1, 64, 127
3, 21660, Note_on_c, 1, 60, 90
3, 21715, Note_on_c, 1, 60, 0
3, 21720, Note_on_c, 1, 64, 82
3, 21764, Note_on_c, 1, 57, 0
3, 21766, Note_on_c, 1, 45, 0
3, 21771, Note_on_c, 1, 64, 0
3, 21780, Note_on_c, 1, 60, 86
3, 21808, Note_on_c, 1, 60, 0
3, 21840, Note_on_c, 1, 45, 82
3, 21840, Note_on_c, 1, 57, 74
3, 21850, Control_c, 1, 64, 0
3, 21885, Control_c, 1, 64, 127
3, 21900, Note_on_c, 1, 60, 82
3, 21951, Note_on_c, 1, 57, 0
3, 21956, Note_on_c, 1, 60, 0
3, 21960, Note_on_c, 1, 64, 90
3, 21964, Note_on_c, 1, 45, 0
3, 22013, Note_on_c, 1, 64, 0
3, 22020, Note_on_c, 1, 60, 82
3, 22044, Note_on_c, 1, 60, 0
3, 22080, Note_on_c, 1, 56, 82
3, 22080, Note_on_c, 1, 40, 82
3, 22080, Note_on_c, 1, 52, 74
3, 22095, Control_c, 1, 64, 0
3, 22135, Control_c, 1, 64, 127
3, 22140, Note_on_c, 1, 59, 90
3, 22143, Note_on_c, 1, 56, 0
3, 22183, Note_on_c, 1, 59, 0
3, 22200, Note_on_c, 1, 64, 86
3, 22246, Note_on_c, 1, 64, 0
3, 22248, Note_on_c, 1, 52, 0
3, 22252, Note_on_c, 1, 40, 0
3, 22260, Note_on_c, 1, 59, 82
3, 22314, Note_on_c, 1, 59, 0
3, 22320, Note_on_c, 1, 56, 86
3, 22320, Note_on_c, 1, 52, 72
3, 22320, Note_on_c, 1, 40, 82
3, 22337, Control_c, 1, 64, 0
3, 22369, Control_c, 1, 64, 127
3, 22380, Note_on_c, 1, 59, 86
3, 22381, Note_on_c, 1, 56, 0
3, 22425, Note_on_c, 1, 59, 0
3, 22440, Note_on_c, 1, 64, 95
3, 22460, Note_on_c, 1, 52, 0
3, 22464, Note_on_c, 1, 40, 0
3, 22490, Note_on_c, 1, 64, 0
3, 22500, Note_on_c, 1, 59, 86
3, 22526, Note_on_c, 1, 59, 0
3, 22560, Note_on_c, 1, 57, 95
3, 22560, Note_on_c, 1, 45, 82
3, 22560, Note_on_c, 1, 33, 78
3, 22571, Control_c, 1, 64, 0
3, 22609, Control_c, 1, 64, 127
3, 22620, Note_on_c, 1, 60, 86
3, 22629, Note_on_c, 1, 57, 0
3, 22680, Note_on_c, 1, 64, 95
3, 22683, Note_on_c, 1, 60, 0
3, 22739, Note_on_c, 1, 64, 0
3, 22740, Note_on_c, 1, 60, 86
3, 22743, Note_on_c, 1, 45, 0
3, 22752, Note_on_c, 1, 33, 0
3, 22799, Note_on_c, 1, 60, 0
3, 22800, Note_on_c, 1, 57, 90
3, 22800, Note_on_c, 1, 33, 82
3, 22800, Note_on_c, 1, 45, 78
3, 22811, Control_c, 1, 64, 0
3, 22846, Control_c, 1, 64, 127
3, 22860, Note_on_c, 1, 60, 86
3, 22865, Note_on_c, 1, 57, 0
3, 22920, Note_on_c, 1, 64, 99
3, 22922, Note_on_c, 1, 60, 0
3, 22931, Note_on_c, 1, 33, 0
3, 22952, Note_on_c, 1, 45, 0
3, 22975, Note_on_c, 1, 64, 0
3, 22980, Note_on_c, 1, 60, 72
3, 23008, Note_on_c, 1, 60, 0
3, 23040, Note_on_c, 1, 58, 99
3, 23040, Note_on_c, 1, 48, 82
3, 23040, Note_on_c, 1, 36, 78
3, 23062, Control_c, 1, 64, 0
3, 23100, Note_on_c, 1, 60, 99
3, 23104, Note_on_c, 1, 58, 0
3, 23107, Control_c, 1, 64, 127
3, 23160, Note_on_c, 1, 64, 99
3, 23161, Note_on_c, 1, 60, 0
3, 23213, Note_on_c, 1, 64, 0
3, 23218, Note_on_c, 1, 36, 0
3, 23220, Note_on_c, 1, 60, 86
3, 23223, Note_on_c, 1, 48, 0
3, 23280, Note_on_c, 1, 60, 0
3, 23280, Note_on_c, 1, 48, 78
3, 23280, Note_on_c, 1, 58, 82
3, 23280, Note_on_c, 1, 36, 86
3, 23289, Control_c, 1, 64, 0
3, 23319, Control_c, 1, 64, 127
3, 23340, Note_on_c, 1, 60, 90
3, 23347, Note_on_c, 1, 58, 0
3, 23400, Note_on_c, 1, 64, 90
3, 23401, Note_on_c, 1, 60, 0
3, 23415, Note_on_c, 1, 36, 0
3, 23436, Note_on_c, 1, 48, 0
3, 23459, Note_on_c, 1, 64, 0
3, 23460, Note_on_c, 1, 60, 90
3, 23505, Note_on_c, 1, 60, 0
3, 23520, Note_on_c, 1, 57, 90
3, 23520, Note_on_c, 1, 41, 86
3, 23520, Note_on_c, 1, 53, 74
3, 23530, Control_c, 1, 64, 0
3, 23571, Control_c, 1, 64, 127
3, 23580, Note_on_c, 1, 60, 86
3, 23584, Note_on_c, 1, 57, 0
3, 23639, Note_on_c, 1, 60, 0
3, 23640, Note_on_c, 1, 65, 103
3, 23687, Note_on_c, 1, 53, 0
3, 23687, Note_on_c, 1, 41, 0
3, 23700, Note_on_c, 1, 65, 0
3, 23700, Note_on_c, 1, 60, 86
3, 23760, Note_on_c, 1, 41, 86
3, 23760, Note_on_c, 1, 57, 95
3, 23760, Note_on_c, 1, 53, 72
3, 23761, Note_on_c, 1, 60, 0
3, 23773, Control_c, 1, 64, 0
3, 23808, Control_c, 1, 64, 127
3, 23820, Note_on_c, 1, 60, 82
3, 23827, Note_on_c, 1, 57, 0
3, 23880, Note_on_c, 1, 65, 86
3, 23882, Note_on_c, 1, 60, 0
3, 23888, Note_on_c, 1, 53, 0
3, 23899, Note_on_c, 1, 41, 0
3, 23938, Note_on_c, 1, 65, 0
3, 23940, Note_on_c, 1, 60, 74
3, 24000, Note_on_c, 1, 58, 82
3, 24000, Note_on_c, 1, 48, 70
3, 24000, Note_on_c, 1, 36, 82
3, 24001, Note_on_c, 1, 60, 0
3, 24006, Control_c, 1, 64, 0
3, 24044, Control_c, 1, 64, 127
3, 24060, Note_on_c, 1, 60, 86
3, 24071, Note_on_c, 1, 58, 0
3, 24120, Note_on_c, 1, 60, 0
3, 24120, Note_on_c, 1, 64, 86
3, 24173, Note_on_c, 1, 36, 0
3, 24176, Note_on_c, 1, 48, 0
3, 24177, Note_on_c, 1, 64, 0
3, 24180, Note_on_c, 1, 60, 82
3, 24236, Note_on_c, 1, 60, 0
3, 24240, Note_on_c, 1, 58, 78
3, 24240, Note_on_c, 1, 48, 70
3, 24240, Note_on_c, 1, 36, 82
3, 24247, Control_c, 1, 64, 0
3, 24279, Control_c, 1, 64, 127
3, 24300, Note_on_c, 1, 60, 86
3, 24305, Note_on_c, 1, 58, 0
3, 24358, Note_on_c, 1, 60, 0
3, 24360, Note_on_c, 1, 64, 82
3, 24371, Note_on_c, 1, 36, 0
3, 24395, Note_on_c, 1, 48, 0
3, 24413, Note_on_c, 1, 64, 0
3, 24420, Note_on_c, 1, 60, 78
3, 24464, Note_on_c, 1, 60, 0
3, 24480, Note_on_c, 1, 57, 86
3, 24480, Note_on_c, 1, 41, 72
3, 24480, Note_on_c, 1, 53, 70
3, 24488, Control_c, 1, 64, 0
3, 24525, Control_c, 1, 64, 127
3, 24540, Note_on_c, 1, 60, 86
3, 24545, Note_on_c, 1, 57, 0
3, 24599, Note_on_c, 1, 60, 0
3, 24600, Note_on_c, 1, 65, 86
3, 24625, Note_on_c, 1, 41, 0
3, 24626, Note_on_c, 1, 53, 0
3, 24653, Note_on_c, 1, 65, 0
3, 24660, Note_on_c, 1, 60, 82
3, 24720, Note_on_c, 1, 41, 78
3, 24720, Note_on_c, 1, 53, 72
3, 24720, Note_on_c, 1, 57, 90
3, 24721, Note_on_c, 1, 60, 0
3, 24730, Control_c, 1, 64, 0
3, 24764, Control_c, 1, 64, 127
3, 24780, Note_on_c, 1, 60, 86
3, 24787, Note_on_c, 1, 57, 0
3, 24838, Note_on_c, 1, 60, 0
3, 24840, Note_on_c, 1, 65, 99
3, 24854, Note_on_c, 1, 53, 0
3, 24858, Note_on_c, 1, 41, 0
3, 24898, Note_on_c, 1, 65, 0
3, 24900, Note_on_c, 1, 60, 86
3, 24960, Note_on_c, 1, 57, 86
3, 24960, Note_on_c, 1, 39, 82
3, 24960, Note_on_c, 1, 51, 90
3, 24962, Note_on_c, 1, 60, 0
3, 24979, Control_c, 1, 64, 0
3, 25020, Note_on_c, 1, 60, 86
3, 25028, Control_c, 1, 64, 127
3, 25029, Note_on_c, 1, 57, 0
3, 25080, Note_on_c, 1, 63, 86
3, 25090, Note_on_c, 1, 60, 0
3, 25140, Note_on_c, 1, 60, 95
3, 25141, Note_on_c, 1, 63, 0
3, 25142, Note_on_c, 1, 51, 0
3, 25145, Note_on_c, 1, 39, 0
3, 25198, Note_on_c, 1, 60, 0
3, 25200, Note_on_c, 1, 57, 90
3, 25200, Note_on_c, 1, 39, 90
3, 25200, Note_on_c, 1, 51, 90
3, 25212, Control_c, 1, 64, 0
3, 25247, Control_c, 1, 64, 127
3, 25260, Note_on_c, 1, 60, 95
3, 25269, Note_on_c, 1, 57, 0
3, 25320, Note_on_c, 1, 63, 99
3, 25324, Note_on_c, 1, 60, 0
3, 25365, Note_on_c, 1, 51, 0
3, 25371, Note_on_c, 1, 39, 0
3, 25373, Note_on_c, 1, 63, 0
3, 25380, Note_on_c, 1, 60, 99
3, 25399, Note_on_c, 1, 60, 0
3, 25440, Note_on_c, 1, 54, 99
3, 25440, Note_on_c, 1, 38, 86
3, 25440, Note_on_c, 1, 50, 86
3, 25455, Control_c, 1, 64, 0
3, 25492, Control_c, 1, 64, 127
3, 25500, Note_on_c, 1, 57, 99
3, 25504, Note_on_c, 1, 54, 0
3, 25557, Note_on_c, 1, 57, 0
3, 25560, Note_on_c, 1, 62, 99
3, 25616, Note_on_c, 1, 62, 0
3, 25616, Note_on_c, 1, 50, 0
3, 25620, Note_on_c, 1, 57, 99
3, 25621, Note_on_c, 1, 38, 0
3, 25676, Note_on_c, 1, 57, 0
3, 25680, Note_on_c, 1, 54, 95
3, 25680, Note_on_c, 1, 38, 90
3, 25680, Note_on_c, 1, 50, 86
3, 25689, Control_c, 1, 64, 0
3, 25721, Control_c, 1, 64, 127
3, 25740, Note_on_c, 1, 57, 103
3, 25749, Note_on_c, 1, 54, 0
3, 25799, Note_on_c, 1, 57, 0
3, 25800, Note_on_c, 1, 62, 103
3, 25819, Note_on_c, 1, 38, 0
3, 25824, Note_on_c, 1, 50, 0
3, 25857, Note_on_c, 1, 62, 0
3, 25860, Note_on_c, 1, 57, 103
3, 25918, Note_on_c, 1, 57, 0
3, 25920, Note_on_c, 1, 51, 74
3, 25920, Note_on_c, 1, 55, 103
3, 25920, Note_on_c, 1, 39, 82
3, 25932, Control_c, 1, 64, 0
3, 25969, Control_c, 1, 64, 127
3, 25980, Note_on_c, 1, 58, 82
3, 25990, Note_on_c, 1, 55, 0
3, 26040, Note_on_c, 1, 61, 78
3, 26047, Note_on_c, 1, 58, 0
3, 26096, Note_on_c, 1, 61, 0
3, 26100, Note_on_c, 1, 58, 82
3, 26109, Note_on_c, 1, 39, 0
3, 26109, Note_on_c, 1, 51, 0
3, 26160, Note_on_c, 1, 55, 86
3, 26160, Note_on_c, 1, 51, 67
3, 26160, Note_on_c, 1, 39, 74
3, 26161, Note_on_c, 1, 58, 0
3, 26171, Control_c, 1, 64, 0
3, 26204, Control_c, 1, 64, 127
3, 26220, Note_on_c, 1, 58, 74
3, 26231, Note_on_c, 1, 55, 0
3, 26280, Note_on_c, 1, 61, 86
3, 26284, Note_on_c, 1, 58, 0
3, 26303, Note_on_c, 1, 51, 0
3, 26309, Note_on_c, 1, 39, 0
3, 26330, Note_on_c, 1, 61, 0
3, 26340, Note_on_c, 1, 58, 70
3, 26373, Note_on_c, 1, 58, 0
3, 26400, Note_on_c, 1, 54, 90
3, 26400, Note_on_c, 1, 38, 86
3, 26400, Note_on_c, 1, 50, 78
3, 26415, Control_c, 1, 64, 0
3, 26449, Control_c, 1, 64, 127
3, 26460, Note_on_c, 1, 57, 99
3, 26468, Note_on_c, 1, 54, 0
3, 26520, Note_on_c, 1, 62, 103
3, 26521, Note_on_c, 1, 57, 0
3, 26563, Note_on_c, 1, 50, 0
3, 26568, Note_on_c, 1, 38, 0
3, 26572, Note_on_c, 1, 62, 0
3, 26580, Note_on_c, 1, 57, 103
3, 26640, Note_on_c, 1, 54, 103
3, 26640, Note_on_c, 1, 38, 103
3, 26640, Note_on_c, 1, 50, 99
3, 26641, Note_on_c, 1, 57, 0
3, 26647, Control_c, 1, 64, 0
3, 26677, Control_c, 1, 64, 127
3, 26700, Note_on_c, 1, 57, 99
3, 26706, Note_on_c, 1, 54, 0
3, 26757, Note_on_c, 1, 57, 0
3, 26760, Note_on_c, 1, 62, 99
3, 26783, Note_on_c, 1, 38, 0
3, 26792, Note_on_c, 1, 50, 0
3, 26814, Note_on_c, 1, 62, 0
3, 26820, Note_on_c, 1, 57, 86
3, 26876, Note_on_c, 1, 57, 0
3, 26880, Note_on_c, 1, 55, 86
3, 26880, Note_on_c, 1, 51, 60
3, 26880, Note_on_c, 1, 39, 63
3, 26885, Control_c, 1, 64, 0
3, 26921, Control_c, 1, 64, 127
3, 26940, Note_on_c, 1, 58, 74
3, 26955, Note_on_c, 1, 55, 0
3, 27000, Note_on_c, 1, 61, 70
3, 27005, Note_on_c, 1, 58, 0
3, 27049, Note_on_c, 1, 39, 0
3, 27052, Note_on_c, 1, 51, 0
3, 27056, Note_on_c, 1, 61, 0
3, 27060, Note_on_c, 1, 58, 70
3, 27120, Note_on_c, 1, 58, 0
3, 27120, Note_on_c, 1, 55, 74
3, 27120, Note_on_c, 1, 51, 70
3, 27120, Note_on_c, 1, 39, 82
3, 27126, Control_c, 1, 64, 0
3, 27157, Control_c, 1, 64, 127
3, 27180, Note_on_c, 1, 58, 78
3, 27192, Note_on_c, 1, 55, 0
3, 27240, Note_on_c, 1, 61, 86
3, 27243, Note_on_c, 1, 58, 0
3, 27269, Note_on_c, 1, 51, 0
3, 27272, Note_on_c, 1, 39, 0
3, 27290, Note_on_c, 1, 61, 0
3, 27300, Note_on_c, 1, 58, 69
3, 27326, Note_on_c, 1, 58, 0
3, 27360, Note_on_c, 1, 54, 66
3, 27360, Note_on_c, 1, 38, 82
3, 27360, Note_on_c, 1, 50, 70
3, 27371, Control_c, 1, 64, 0
3, 27403, Control_c, 1, 64, 127
3, 27419, Note_on_c, 1, 54, 0
3, 27420, Note_on_c, 1, 57, 99
3, 27480, Note_on_c, 1, 62, 86
3, 27481, Note_on_c, 1, 57, 0
3, 27518, Note_on_c, 1, 50, 0
3, 27521, Note_on_c, 1, 38, 0
3, 27536, Note_on_c, 1, 62, 0
3, 27540, Note_on_c, 1, 57, 86
3, 27600, Note_on_c, 1, 54, 86
3, 27600, Note_on_c, 1, 38, 86
3, 27600, Note_on_c, 1, 50, 78
3, 27601, Note_on_c, 1, 57, 0
3, 27617, Control_c, 1, 64, 0
3, 27645, Control_c, 1, 64, 127
3, 27660, Note_on_c, 1, 57, 99
3, 27668, Note_on_c, 1, 54, 0
3, 27717, Note_on_c, 1, 57, 0
3, 27720, Note_on_c, 1, 62, 99
3, 27738, Note_on_c, 1, 38, 0
3, 27744, Note_on_c, 1, 50, 0
3, 27779, Note_on_c, 1, 62, 0
3, 27780, Note_on_c, 1, 57, 99
3, 27839, Note_on_c, 1, 57, 0
3, 27840, Note_on_c, 1, 55, 108
3, 27840, Note_on_c, 1, 39, 90
3, 27840, Note_on_c, 1, 51, 86
3, 27855, Control_c, 1, 64, 0
3, 27895, Control_c, 1, 64, 127
3, 27900, Note_on_c, 1, 58, 86
3, 27913, Note_on_c, 1, 55, 0
3, 27960, Note_on_c, 1, 61, 95
3, 27963, Note_on_c, 1, 58, 0
3, 28017, Note_on_c, 1, 61, 0
3, 28020, Note_on_c, 1, 58, 86
3, 28043, Note_on_c, 1, 51, 0
3, 28043, Note_on_c, 1, 39, 0
3, 28077, Note_on_c, 1, 58, 0
3, 28080, Note_on_c, 1, 55, 99
3, 28080, Note_on_c, 1, 39, 86
3, 28080, Note_on_c, 1, 51, 74
3, 28085, Control_c, 1, 64, 0
3, 28118, Control_c, 1, 64, 127
3, 28140, Note_on_c, 1, 58, 72
3, 28149, Note_on_c, 1, 55, 0
3, 28200, Note_on_c, 1, 61, 78
3, 28202, Note_on_c, 1, 58, 0
3, 28227, Note_on_c, 1, 51, 0
3, 28234, Note_on_c, 1, 39, 0
3, 28260, Note_on_c, 1, 61, 0
3, 28260, Note_on_c, 1, 58, 86
3, 28283, Note_on_c, 1, 58, 0
3, 28316, Control_c, 1, 64, 0
3, 28320, Note_on_c, 1, 54, 78
3, 28320, Note_on_c, 1, 57, 103
3, 28320, Note_on_c, 1, 62, 99
3, 28320, Note_on_c, 1, 38, 86
3, 28320, Note_on_c, 1, 50, 78
3, 28351, Control_c, 1, 64, 127
3, 28795, Control_c, 1, 64, 0
3, 28800, Note_on_c, 1, 62, 0
3, 28802, Note_on_c, 1, 50, 0
3, 28803, Note_on_c, 1, 38, 0
3, 28803, Note_on_c, 1, 57, 0
3, 28804, Note_on_c, 1, 54, 0
3, 29280, Note_on_c, 1, 34, 67
3, 29280, Note_on_c, 1, 50, 82
3, 29280, Note_on_c, 1, 46, 90
3, 29291, Control_c, 1, 64, 127
3, 29340, Note_on_c, 1, 53, 78
3, 29360, Note_on_c, 1, 50, 0
3, 29400, Note_on_c, 1, 58, 72
3, 29405, Note_on_c, 1, 53, 0
3, 29456, Note_on_c, 1, 58, 0
3, 29460, Note_on_c, 1, 53, 72
3, 29508, Note_on_c, 1, 46, 0
3, 29511, Note_on_c, 1, 34, 0
3, 29517, Note_on_c, 1, 53, 0
3, 29520, Note_on_c, 1, 50, 78
3, 29532, Control_c, 1, 64, 0
3, 29569, Control_c, 1, 64, 127
3, 29580, Note_on_c, 1, 53, 86
3, 29587, Note_on_c, 1, 50, 0
3, 29637, Note_on_c, 1, 53, 0
3, 29640, Note_on_c, 1, 58, 70
3, 29646, Control_c, 1, 64, 0
3, 29673, Control_c, 1, 64, 127
3, 29700, Note_on_c, 1, 53, 69
3, 29703, Note_on_c, 1, 58, 0
3, 29749, Note_on_c, 1, 53, 0
3, 29760, Control_c, 1, 64, 0
3, 29760, Note_on_c, 1, 51, 82
3, 29760, Note_on_c, 1, 41, 86
3, 29760, Note_on_c, 1, 53, 67
3, 29797, Control_c, 1, 64, 127
3, 29822, Note_on_c, 1, 51, 0
3, 29875, Note_on_c, 1, 53, 0
3, 29880, Note_on_c, 1, 57, 90
3, 29882, Note_on_c, 1, 41, 0
3, 29940, Note_on_c, 1, 57, 0
3, 29940, Note_on_c, 1, 53, 82
3, 29999, Control_c, 1, 64, 0
3, 30000, Note_on_c, 1, 53, 0
3, 30000, Note_on_c, 1, 51, 78
3, 30031, Control_c, 1, 64, 127
3, 30060, Note_on_c, 1, 53, 74
3, 30070, Note_on_c, 1, 51, 0
3, 30120, Note_on_c, 1, 57, 82
3, 30124, Note_on_c, 1, 53, 0
3, 30175, Note_on_c, 1, 57, 0
3, 30180, Note_on_c, 1, 53, 86
3, 30230, Note_on_c, 1, 53, 0
3, 30240, Note_on_c, 1, 34, 72
3, 30240, Note_on_c, 1, 46, 70
3, 30240, Note_on_c, 1, 50, 86
3, 30242, Control_c, 1, 64, 0
3, 30279, Control_c, 1, 64, 127
3, 30300, Note_on_c, 1, 53, 69
3, 30305, Note_on_c, 1, 50, 0
3, 30360, Note_on_c, 1, 58, 72
3, 30362, Note_on_c, 1, 53, 0
3, 30420, Note_on_c, 1, 58, 0
3, 30420, Note_on_c, 1, 53, 70
3, 30433, Note_on_c, 1, 46, 0
3, 30438, Note_on_c, 1, 34, 0
3, 30480, Note_on_c, 1, 50, 86
3, 30481, Note_on_c, 1, 53, 0
3, 30487, Control_c, 1, 64, 0
3, 30523, Control_c, 1, 64, 127
3, 30537, Note_on_c, 1, 50, 0
3, 30540, Note_on_c, 1, 53, 78
3, 30600, Note_on_c, 1, 58, 72
3, 30601, Control_c, 1, 64, 0
3, 30604, Note_on_c, 1, 53, 0
3, 30624, Control_c, 1, 64, 127
3, 30658, Note_on_c, 1, 58, 0
3, 30660, Note_on_c, 1, 53, 78
3, 30700, Note_on_c, 1, 53, 0
3, 30720, Note_on_c, 1, 51, 99
3, 30720, Note_on_c, 1, 53, 74
3, 30720, Note_on_c, 1, 41, 82
3, 30727, Control_c, 1, 64, 0
3, 30772, Control_c, 1, 64, 127
3, 30778, Note_on_c, 1, 51, 0
3, 30836, Note_on_c, 1, 53, 0
3, 30840, Note_on_c, 1, 57, 99
3, 30857, Control_c, 1, 64, 0
3, 30884, Control_c, 1, 64, 127
3, 30900, Note_on_c, 1, 57, 0
3, 30900, Note_on_c, 1, 53, 86
3, 30960, Note_on_c, 1, 51, 70
3, 30961, Note_on_c, 1, 53, 0
3, 30963, Control_c, 1, 64, 0
3, 30984, Control_c, 1, 64, 127
3, 31020, Note_on_c, 1, 53, 72
3, 31032, Note_on_c, 1, 51, 0
3, 31079, Note_on_c, 1, 41, 0
3, 31080, Note_on_c, 1, 57, 95
3, 31081, Note_on_c, 1, 53, 0
3, 31130, Note_on_c, 1, 57, 0
3, 31140, Note_on_c, 1, 53, 67
3, 31190, Note_on_c, 1, 53, 0
3, 31199, Control_c, 1, 64, 0
3, 31200, Note_on_c, 1, 34, 69
3, 31200, Note_on_c, 1, 50, 82
3, 31200, Note_on_c, 1, 46, 66
3, 31237, Control_c, 1, 64, 127
3, 31260, Note_on_c, 1, 53, 67
3, 31266, Note_on_c, 1, 50, 0
3, 31320, Note_on_c, 1, 58, 70
3, 31327, Note_on_c, 1, 53, 0
3, 31380, Note_on_c, 1, 53, 82
3, 31383, Note_on_c, 1, 58, 0
3, 31440, Note_on_c, 1, 50, 82
3, 31442, Note_on_c, 1, 53, 0
3, 31443, Note_on_c, 1, 46, 0
3, 31447, Note_on_c, 1, 34, 0
3, 31450, Control_c, 1, 64, 0
3, 31489, Control_c, 1, 64, 127
3, 31498, Note_on_c, 1, 50, 0
3, 31500, Note_on_c, 1, 53, 60
3, 31543, Control_c, 1, 64, 0
3, 31560, Note_on_c, 1, 58, 72
3, 31563, Note_on_c, 1, 53, 0
3, 31567, Control_c, 1, 64, 127
3, 31620, Note_on_c, 1, 53, 72
3, 31624, Note_on_c, 1, 58, 0
3, 31680, Note_on_c, 1, 53, 0
3, 31680, Note_on_c, 1, 39, 82
3, 31680, Note_on_c, 1, 51, 86
3, 31682, Control_c, 1, 64, 0
3, 31712, Control_c, 1, 64, 127
3, 31740, Note_on_c, 1, 55, 90
3, 31747, Note_on_c, 1, 51, 0
3, 31770, Note_on_c, 1, 51, 54
3, 31789, Note_on_c, 1, 55, 0
3, 31800, Note_on_c, 1, 58, 58
3, 31857, Note_on_c, 1, 58, 0
3, 31860, Note_on_c, 1, 55, 78
3, 31882, Note_on_c, 1, 51, 0
3, 31914, Note_on_c, 1, 55, 0
3, 31920, Note_on_c, 1, 51, 70
3, 31933, Control_c, 1, 64, 0
3, 31955, Control_c, 1, 64, 127
3, 31980, Note_on_c, 1, 55, 90
3, 31989, Note_on_c, 1, 51, 0
3, 32034, Note_on_c, 1, 55, 0
3, 32040, Note_on_c, 1, 58, 74
3, 32055, Note_on_c, 1, 39, 0
3, 32094, Note_on_c, 1, 58, 0
3, 32100, Note_on_c, 1, 55, 74
3, 32140, Note_on_c, 1, 55, 0
3, 32160, Note_on_c, 1, 34, 78
3, 32160, Note_on_c, 1, 46, 74
3, 32160, Note_on_c, 1, 50, 99
3, 32161, Control_c, 1, 64, 0
3, 32188, Control_c, 1, 64, 127
3, 32261, Note_on_c, 1, 50, 0
3, 32266, Note_on_c, 1, 46, 0
3, 32271, Note_on_c, 1, 34, 0
3, 32278, Control_c, 1, 64, 0
3, 32760, Note_on_c, 1, 51, 103
3, 32760, Note_on_c, 1, 39, 82
3, 32773, Control_c, 1, 64, 127
3, 32820, Note_on_c, 1, 51, 0
3, 32820, Note_on_c, 1, 60, 99
3, 32847, Note_on_c, 1, 60, 0
3, 32862, Note_on_c, 1, 39, 0
3, 32874, Control_c, 1, 64, 0
3, 32880, Note_on_c, 1, 50, 99
3, 32880, Note_on_c, 1, 41, 99
3, 32911, Control_c, 1, 64, 127
3, 32939, Note_on_c, 1, 50, 0
3, 32940, Note_on_c, 1, 58, 86
3, 32966, Note_on_c, 1, 58, 0
3, 32966, Note_on_c, 1, 41, 0
3, 32993, Control_c, 1, 64, 0
3, 33000, Note_on_c, 1, 51, 95
3, 33000, Note_on_c, 1, 41, 95
3, 33023, Control_c, 1, 64, 127
3, 33051, Note_on_c, 1, 51, 0
3, 33060, Note_on_c, 1, 57, 103
3, 33075, Note_on_c, 1, 41, 0
3, 33087, Note_on_c, 1, 57, 0
3, 33113, Control_c, 1, 64, 0
3, 33120, Note_on_c, 1, 34, 78
3, 33120, Note_on_c, 1, 58, 86
3, 33120, Note_on_c, 1, 50, 99
3, 33120, Note_on_c, 1, 46, 72
3, 33144, Control_c, 1, 64, 127
3, 33229, Note_on_c, 1, 50, 0
3, 33230, Note_on_c, 1, 58, 0
3, 33232, Control_c, 1, 64, 0
3, 33233, Note_on_c, 1, 34, 0
3, 33233, Note_on_c, 1, 46, 0
3, 33720, Note_on_c, 1, 51, 66
3, 33720, Note_on_c, 1, 39, 70
3, 33734, Control_c, 1, 64, 127
3, 33774, Note_on_c, 1, 51, 0
3, 33780, Note_on_c, 1, 60, 78
3, 33798, Note_on_c, 1, 60, 0
3, 33800, Note_on_c, 1, 39, 0
3, 33837, Control_c, 1, 64, 0
3, 33840, Note_on_c, 1, 41, 82
3, 33840, Note_on_c, 1, 50, 82
3, 33874, Control_c, 1, 64, 127
3, 33898, Note_on_c, 1, 50, 0
3, 33900, Note_on_c, 1, 58, 70
3, 33915, Note_on_c, 1, 41, 0
3, 33923, Note_on_c, 1, 58, 0
3, 33950, Control_c, 1, 64, 0
3, 33960, Note_on_c, 1, 51, 82
3, 33960, Note_on_c, 1, 41, 86
3, 33978, Control_c, 1, 64, 127
3, 34008, Note_on_c, 1, 51, 0
3, 34010, Note_on_c, 1, 41, 0
3, 34020, Note_on_c, 1, 57, 86
3, 34038, Note_on_c, 1, 57, 0
3, 34066, Control_c, 1, 64, 0
3, 34080, Note_on_c, 1, 58, 82
3, 34080, Note_on_c, 1, 50, 86
3, 34080, Note_on_c, 1, 46, 86
3, 34100, Control_c, 1, 64, 127
3, 34134, Note_on_c, 1, 50, 0
3, 34135, Note_on_c, 1, 46, 0
3, 34135, Note_on_c, 1, 58, 0
3, 34186, Control_c, 1, 64, 0
3, 34200, Note_on_c, 1, 51, 95
3, 34200, Note_on_c, 1, 41, 95
3, 34200, Note_on_c, 1, 57, 103
3, 34220, Control_c, 1, 64, 127
3, 34252, Note_on_c, 1, 51, 0
3, 34255, Note_on_c, 1, 57, 0
3, 34261, Note_on_c, 1, 41, 0
3, 34313, Control_c, 1, 64, 0
3, 34320, Note_on_c, 1, 50, 99
3, 34320, Note_on_c, 1, 46, 90
3, 34320, Note_on_c, 1, 58, 95
3, 34345, Control_c, 1, 64, 127
3, 34365, Note_on_c, 1, 50, 0
3, 34378, Note_on_c, 1, 46, 0
3, 34381, Note_on_c, 1, 58, 0
3, 34425, Control_c, 1, 64, 0
3, 34440, Note_on_c, 1, 51, 95
3, 34440, Note_on_c, 1, 57, 108
3, 34440, Note_on_c, 1, 41, 99
3, 34452, Control_c, 1, 64, 127
3, 34475, Note_on_c, 1, 41, 0
3, 34480, Note_on_c, 1, 51, 0
3, 34481, Note_on_c, 1, 57, 0
3, 34545, Control_c, 1, 64, 0
3, 34560, Note_on_c, 1, 58, 108
3, 34560, Note_on_c, 1, 46, 90
3, 34573, Control_c, 1, 64, 127
3, 34615, Note_on_c, 1, 58, 0
3, 34618, Note_on_c, 1, 46, 0
3, 34620, Note_on_c, 1, 48, 103
3, 34620, Note_on_c, 1, 60, 99
3, 34646, Control_c, 1, 64, 0
3, 34669, Note_on_c, 1, 60, 0
3, 34676, Note_on_c, 1, 48, 0
3, 34680, Note_on_c, 1, 50, 99
3, 34680, Note_on_c, 1, 62, 95
3, 34688, Control_c, 1, 64, 127
3, 34727, Note_on_c, 1, 62, 0
3, 34738, Note_on_c, 1, 50, 0
3, 34739, Control_c, 1, 64, 0
3, 34740, Note_on_c, 1, 60, 103
3, 34740, Note_on_c, 1, 48, 103
3, 34791, Note_on_c, 1, 60, 0
3, 34794, Note_on_c, 1, 48, 0
3, 34800, Note_on_c, 1, 58, 99
3, 34800, Note_on_c, 1, 46, 86
3, 34802, Control_c, 1, 64, 127
3, 34837, Control_c, 1, 64, 0
3, 34855, Note_on_c, 1, 58, 0
3, 34858, Note_on_c, 1, 46, 0
3, 34860, Note_on_c, 1, 60, 103
3, 34860, Note_on_c, 1, 48, 95
3, 34913, Note_on_c, 1, 48, 0
3, 34914, Note_on_c, 1, 60, 0
3, 34920, Note_on_c, 1, 45, 95
3, 34920, Note_on_c, 1, 57, 108
3, 34921, Control_c, 1, 64, 127
3, 34950, Control_c, 1, 64, 0
3, 34979, Note_on_c, 1, 57, 0
3, 34980, Note_on_c, 1, 46, 99
3, 34980, Note_on_c, 1, 58, 103
3, 34982, Note_on_c, 1, 45, 0
3, 35029, Note_on_c, 1, 46, 0
3, 35031, Note_on_c, 1, 58, 0
3, 35040, Control_c, 1, 64, 127
3, 35040, Note_on_c, 1, 46, 99
3, 35040, Note_on_c, 1, 55, 108
3, 35040, Note_on_c, 1, 43, 103
3, 35089, Note_on_c, 1, 43, 0
3, 35089, Note_on_c, 1, 46, 0
3, 35090, Note_on_c, 1, 55, 0
3, 35156, Control_c, 1, 64, 0
3, 35160, Note_on_c, 1, 38, 103
3, 35160, Note_on_c, 1, 48, 99
3, 35160, Note_on_c, 1, 54, 95
3, 35186, Control_c, 1, 64, 127
3, 35205, Note_on_c, 1, 54, 0
3, 35208, Note_on_c, 1, 48, 0
3, 35217, Note_on_c, 1, 38, 0
3, 35269, Control_c, 1, 64, 0
3, 35280, Note_on_c, 1, 46, 90
3, 35280, Note_on_c, 1, 55, 99
3, 35280, Note_on_c, 1, 43, 95
3, 35299, Control_c, 1, 64, 127
3, 35327, Note_on_c, 1, 46, 0
3, 35328, Note_on_c, 1, 43, 0
3, 35329, Note_on_c, 1, 55, 0
3, 35383, Control_c, 1, 64, 0
3, 35400, Note_on_c, 1, 48, 99
3, 35400, Note_on_c, 1, 54, 95
3, 35400, Note_on_c, 1, 38, 99
3, 35408, Control_c, 1, 64, 127
3, 35421, Note_on_c, 1, 38, 0
3, 35422, Note_on_c, 1, 48, 0
3, 35426, Note_on_c, 1, 54, 0
3, 35511, Control_c, 1, 64, 0
3, 35520, Note_on_c, 1, 43, 99
3, 35520, Note_on_c, 1, 55, 103
3, 35545, Control_c, 1, 64, 127
3, 35576, Note_on_c, 1, 55, 0
3, 35576, Note_on_c, 1, 43, 0
3, 35580, Note_on_c, 1, 45, 103
3, 35580, Note_on_c, 1, 57, 99
3, 35604, Control_c, 1, 64, 0
3, 35637, Note_on_c, 1, 57, 0
3, 35638, Note_on_c, 1, 45, 0
3, 35640, Note_on_c, 1, 46, 99
3, 35640, Note_on_c, 1, 58, 99
3, 35650, Control_c, 1, 64, 127
3, 35700, Note_on_c, 1, 57, 99
3, 35700, Note_on_c, 1, 45, 99
3, 35703, Note_on_c, 1, 46, 0
3, 35705, Note_on_c, 1, 58, 0
3, 35721, Control_c, 1, 64, 0
3, 35755, Note_on_c, 1, 45, 0
3, 35760, Note_on_c, 1, 57, 0
3, 35760, Note_on_c, 1, 43, 86
3, 35760, Note_on_c, 1, 55, 103
3, 35772, Control_c, 1, 64, 127
3, 35814, Note_on_c, 1, 55, 0
3, 35819, Note_on_c, 1, 43, 0
3, 35820, Note_on_c, 1, 45, 95
3, 35820, Note_on_c, 1, 57, 108
3, 35828, Control_c, 1, 64, 0
3, 35880, Note_on_c, 1, 45, 0
3, 35880, Note_on_c, 1, 41, 86
3, 35880, Note_on_c, 1, 53, 95
3, 35881, Note_on_c, 1, 57, 0
3, 35896, Control_c, 1, 64, 127
3, 35930, Note_on_c, 1, 53, 0
3, 35940, Note_on_c, 1, 55, 99
3, 35940, Note_on_c, 1, 43, 99
3, 35942, Note_on_c, 1, 41, 0
3, 35954, Note_on_c, 1, 55, 0
3, 35961, Note_on_c, 1, 43, 0
3, 35993, Control_c, 1, 64, 0
3, 36000, Note_on_c, 1, 41, 103
3, 36000, Note_on_c, 1, 53, 103
3, 36000, Note_on_c, 1, 45, 103
3, 36039, Control_c, 1, 64, 127
3, 36070, Note_on_c, 1, 45, 0
3, 36076, Note_on_c, 1, 41, 0
3, 36077, Note_on_c, 1, 53, 0
3, 36118, Control_c, 1, 64, 0
3, 36120, Note_on_c, 1, 46, 90
3, 36120, Note_on_c, 1, 52, 99
3, 36120, Note_on_c, 1, 36, 99
3, 36153, Control_c, 1, 64, 127
3, 36179, Note_on_c, 1, 36, 0
3, 36179, Note_on_c, 1, 52, 0
3, 36181, Note_on_c, 1, 46, 0
3, 36232, Control_c, 1, 64, 0
3, 36240, Note_on_c, 1, 41, 86
3, 36240, Note_on_c, 1, 45, 103
3, 36240, Note_on_c, 1, 53, 99
3, 36263, Control_c, 1, 64, 127
3, 36307, Note_on_c, 1, 45, 0
3, 36311, Note_on_c, 1, 53, 0
3, 36314, Note_on_c, 1, 41, 0
3, 36341, Control_c, 1, 64, 0
3, 36360, Note_on_c, 1, 46, 86
3, 36360, Note_on_c, 1, 52, 99
3, 36360, Note_on_c, 1, 36, 95
3, 36371, Control_c, 1, 64, 127
3, 36378, Note_on_c, 1, 36, 0
3, 36380, Note_on_c, 1, 46, 0
3, 36383, Note_on_c, 1, 52, 0
3, 36477, Control_c, 1, 64, 0
3, 36480, Note_on_c, 1, 41, 103
3, 36480, Note_on_c, 1, 53, 117
3, 36503, Note_on_c, 1, 41, 0
3, 36504, Note_on_c, 1, 53, 0
3, 36540, Note_on_c, 1, 45, 95
3, 36540, Note_on_c, 1, 57, 103
3, 36557, Note_on_c, 1, 57, 0
3, 36561, Note_on_c, 1, 45, 0
3, 36600, Note_on_c, 1, 60, 103
3, 36600, Note_on_c, 1, 48, 103
3, 36620, Note_on_c, 1, 60, 0
3, 36621, Note_on_c, 1, 48, 0
3, 36660, Note_on_c, 1, 58, 108
3, 36660, Note_on_c, 1, 46, 86
3, 36679, Note_on_c, 1, 46, 0
3, 36679, Note_on_c, 1, 58, 0
3, 36720, Note_on_c, 1, 45, 82
3, 36720, Note_on_c, 1, 57, 103
3, 36737, Note_on_c, 1, 57, 0
3, 36743, Note_on_c, 1, 45, 0
3, 36780, Note_on_c, 1, 58, 108
3, 36780, Note_on_c, 1, 46, 90
3, 36802, Note_on_c, 1, 58, 0
3, 36806, Note_on_c, 1, 46, 0
3, 36840, Note_on_c, 1, 43, 86
3, 36840, Note_on_c, 1, 55, 108
3, 36858, Note_on_c, 1, 55, 0
3, 36859, Note_on_c, 1, 43, 0
3, 36900, Note_on_c, 1, 45, 95
3, 36900, Note_on_c, 1, 57, 99
3, 36916, Note_on_c, 1, 57, 0
3, 36920, Note_on_c, 1, 45, 0
3, 36960, Note_on_c, 1, 41, 99
3, 36960, Note_on_c, 1, 53, 90
3, 36978, Control_c, 1, 64, 127
3, 37012, Note_on_c, 1, 53, 0
3, 37019, Note_on_c, 1, 41, 0
3, 37020, Note_on_c, 1, 43, 86
3, 37020, Note_on_c, 1, 55, 103
3, 37052, Control_c, 1, 64, 0
3, 37078, Note_on_c, 1, 55, 0
3, 37080, Note_on_c, 1, 57, 103
3, 37080, Note_on_c, 1, 45, 99
3, 37083, Note_on_c, 1, 43, 0
3, 37117, Control_c, 1, 64, 127
3, 37138, Note_on_c, 1, 57, 0
3, 37140, Note_on_c, 1, 45, 0
3, 37140, Note_on_c, 1, 43, 90
3, 37140, Note_on_c, 1, 55, 99
3, 37188, Control_c, 1, 64, 0
3, 37196, Note_on_c, 1, 55, 0
3, 37200, Note_on_c, 1, 43, 0
3, 37200, Note_on_c, 1, 41, 90
3, 37200, Note_on_c, 1, 53, 103
3, 37221, Control_c, 1, 64, 127
3, 37249, Note_on_c, 1, 53, 0
3, 37255, Note_on_c, 1, 41, 0
3, 37260, Note_on_c, 1, 55, 99
3, 37260, Note_on_c, 1, 43, 86
3, 37306, Control_c, 1, 64, 0
3, 37320, Note_on_c, 1, 43, 0
3, 37320, Note_on_c, 1, 40, 86
3, 37320, Note_on_c, 1, 52, 103
3, 37323, Note_on_c, 1, 55, 0
3, 37345, Control_c, 1, 64, 127
3, 37377, Note_on_c, 1, 52, 0
3, 37380, Note_on_c, 1, 53, 99
3, 37380, Note_on_c, 1, 41, 95
3, 37381, Note_on_c, 1, 40, 0
3, 37420, Control_c, 1, 64, 0
3, 37438, Note_on_c, 1, 53, 0
3, 37439, Note_on_c, 1, 41, 0
3, 37440, Note_on_c, 1, 38, 99
3, 37440, Note_on_c, 1, 50, 112
3, 37457, Control_c, 1, 64, 127
3, 37492, Note_on_c, 1, 50, 0
3, 37496, Control_c, 1, 64, 0
3, 37500, Note_on_c, 1, 52, 103
3, 37500, Note_on_c, 1, 40, 95
3, 37502, Note_on_c, 1, 38, 0
3, 37559, Note_on_c, 1, 52, 0
3, 37560, Note_on_c, 1, 41, 90
3, 37560, Note_on_c, 1, 53, 95
3, 37561, Note_on_c, 1, 40, 0
3, 37565, Control_c, 1, 64, 127
3, 37594, Control_c, 1, 64, 0
3, 37620, Note_on_c, 1, 52, 103
3, 37620, Note_on_c, 1, 40, 103
3, 37621, Note_on_c, 1, 41, 0
3, 37623, Note_on_c, 1, 53, 0
3, 37629, Control_c, 1, 64, 127
3, 37653, Control_c, 1, 64, 0
3, 37676, Note_on_c, 1, 52, 0
3, 37676, Note_on_c, 1, 40, 0
3, 37680, Note_on_c, 1, 38, 103
3, 37680, Note_on_c, 1, 50, 103
3, 37694, Control_c, 1, 64, 127
3, 37724, Control_c, 1, 64, 0
3, 37727, Note_on_c, 1, 50, 0
3, 37733, Note_on_c, 1, 38, 0
3, 37740, Note_on_c, 1, 52, 99
3, 37740, Note_on_c, 1, 40, 95
3, 37797, Note_on_c, 1, 52, 0
3, 37800, Note_on_c, 1, 36, 86
3, 37800, Note_on_c, 1, 48, 99
3, 37802, Note_on_c, 1, 40, 0
3, 37811, Control_c, 1, 64, 127
3, 37858, Note_on_c, 1, 48, 0
3, 37860, Note_on_c, 1, 50, 103
3, 37860, Note_on_c, 1, 38, 99
3, 37865, Note_on_c, 1, 36, 0
3, 37904, Note_on_c, 1, 50, 0
3, 37914, Note_on_c, 1, 38, 0
3, 37919, Control_c, 1, 64, 0
3, 37920, Note_on_c, 1, 35, 95
3, 37920, Note_on_c, 1, 47, 117
3, 37927, Control_c, 1, 64, 127
3, 37971, Note_on_c, 1, 47, 0
3, 37978, Control_c, 1, 64, 0
3, 37980, Note_on_c, 1, 48, 99
3, 37980, Note_on_c, 1, 36, 90
3, 37985, Note_on_c, 1, 35, 0
3, 38039, Note_on_c, 1, 48, 0
3, 38040, Note_on_c, 1, 50, 99
3, 38040, Note_on_c, 1, 38, 99
3, 38043, Note_on_c, 1, 36, 0
3, 38100, Note_on_c, 1, 48, 99
3, 38100, Note_on_c, 1, 36, 95
3, 38106, Note_on_c, 1, 50, 0
3, 38111, Note_on_c, 1, 38, 0
3, 38113, Control_c, 1, 64, 127
3, 38154, Control_c, 1, 64, 0
3, 38155, Note_on_c, 1, 48, 0
3, 38158, Note_on_c, 1, 36, 0
3, 38160, Note_on_c, 1, 35, 95
3, 38160, Note_on_c, 1, 47, 108
3, 38183, Control_c, 1, 64, 127
3, 38212, Note_on_c, 1, 47, 0
3, 38216, Note_on_c, 1, 35, 0
3, 38220, Note_on_c, 1, 36, 86
3, 38220, Note_on_c, 1, 48, 99
3, 38262, Control_c, 1, 64, 0
3, 38277, Note_on_c, 1, 36, 0
3, 38278, Note_on_c, 1, 48, 0
3, 38280, Note_on_c, 1, 33, 95
3, 38280, Note_on_c, 1, 45, 103
3, 38304, Control_c, 1, 64, 127
3, 38340, Note_on_c, 1, 35, 95
3, 38340, Note_on_c, 1, 47, 95
3, 38342, Note_on_c, 1, 45, 0
3, 38343, Note_on_c, 1, 33, 0
3, 38361, Note_on_c, 1, 47, 0
3, 38371, Note_on_c, 1, 35, 0
3, 38400, Note_on_c, 1, 55, 103
3, 38400, Note_on_c, 1, 50, 99
3, 38400, Note_on_c, 1, 31, 103
3, 38400, Note_on_c, 1, 45, 65
3, 38400, Note_on_c, 1, 43, 78
3, 38404, Control_c, 1, 64, 0
3, 38407, Note_on_c, 1, 45, 0
3, 38510, Control_c, 1, 64, 127
3, 38869, Note_on_c, 1, 31, 0
3, 38869, Note_on_c, 1, 43, 0
3, 38870, Note_on_c, 1, 50, 0
3, 38871, Note_on_c, 1, 55, 0
3, 38877, Control_c, 1, 64, 0
3, 39360, Note_on_c, 1, 55, 99
3, 39360, Note_on_c, 1, 48, 95
3, 39360, Note_on_c, 1, 52, 82
3, 39389, Control_c, 1, 64, 127
3, 39416, Note_on_c, 1, 55, 0
3, 39420, Note_on_c, 1, 60, 99
3, 39465, Note_on_c, 1, 60, 0
3, 39480, Note_on_c, 1, 64, 108
3, 39526, Note_on_c, 1, 64, 0
3, 39540, Note_on_c, 1, 67, 95
3, 39594, Note_on_c, 1, 67, 0
3, 39600, Note_on_c, 1, 52, 0
3, 39600, Note_on_c, 1, 65, 103
3, 39603, Note_on_c, 1, 48, 0
3, 39608, Control_c, 1, 64, 0
3, 39646, Control_c, 1, 64, 127
3, 39660, Note_on_c, 1, 65, 0
3, 39660, Note_on_c, 1, 64, 99
3, 39669, Control_c, 1, 64, 0
3, 39720, Note_on_c, 1, 62, 103
3, 39723, Note_on_c, 1, 64, 0
3, 39738, Control_c, 1, 64, 127
3, 39780, Note_on_c, 1, 60, 103
3, 39781, Note_on_c, 1, 62, 0
3, 39815, Note_on_c, 1, 60, 0
3, 39840, Note_on_c, 1, 60, 103
3, 39840, Note_on_c, 1, 50, 95
3, 39844, Control_c, 1, 64, 0
3, 39876, Control_c, 1, 64, 127
3, 39896, Note_on_c, 1, 60, 0
3, 39899, Note_on_c, 1, 50, 0
3, 39900, Note_on_c, 1, 53, 86
3, 39900, Note_on_c, 1, 59, 103
3, 39903, Control_c, 1, 64, 0
3, 39928, Control_c, 1, 64, 127
3, 39949, Note_on_c, 1, 59, 0
3, 39957, Note_on_c, 1, 53, 0
3, 39958, Control_c, 1, 64, 0
3, 39960, Note_on_c, 1, 55, 86
3, 39960, Note_on_c, 1, 59, 108
3, 39989, Control_c, 1, 64, 127
3, 40020, Note_on_c, 1, 53, 82
3, 40021, Note_on_c, 1, 55, 0
3, 40080, Note_on_c, 1, 50, 86
3, 40082, Note_on_c, 1, 53, 0
3, 40085, Control_c, 1, 64, 0
3, 40113, Control_c, 1, 64, 127
3, 40140, Note_on_c, 1, 53, 86
3, 40145, Note_on_c, 1, 50, 0
3, 40200, Note_on_c, 1, 53, 0
3, 40200, Note_on_c, 1, 55, 82
3, 40208, Control_c, 1, 64, 0
3, 40232, Control_c, 1, 64, 127
3, 40255, Note_on_c, 1, 55, 0
3, 40257, Note_on_c, 1, 59, 0
3, 40260, Note_on_c, 1, 53, 78
3, 40283, Note_on_c, 1, 53, 0
3, 40320, Note_on_c, 1, 48, 90
3, 40320, Note_on_c, 1, 52, 99
3, 40320, Note_on_c, 1, 55, 117
3, 40321, Control_c, 1, 64, 0
3, 40362, Control_c, 1, 64, 127
3, 40379, Note_on_c, 1, 55, 0
3, 40380, Note_on_c, 1, 60, 103
3, 40430, Note_on_c, 1, 60, 0
3, 40440, Note_on_c, 1, 64, 99
3, 40445, Control_c, 1, 64, 0
3, 40469, Control_c, 1, 64, 127
3, 40497, Note_on_c, 1, 64, 0
3, 40500, Note_on_c, 1, 67, 108
3, 40556, Control_c, 1, 64, 0
3, 40558, Note_on_c, 1, 67, 0
3, 40560, Note_on_c, 1, 65, 103
3, 40563, Note_on_c, 1, 52, 0
3, 40565, Note_on_c, 1, 48, 0
3, 40581, Control_c, 1, 64, 127
3, 40620, Note_on_c, 1, 64, 86
3, 40620, Control_c, 1, 64, 0
3, 40621, Note_on_c, 1, 65, 0
3, 40680, Note_on_c, 1, 62, 99
3, 40685, Note_on_c, 1, 64, 0
3, 40690, Control_c, 1, 64, 127
3, 40740, Note_on_c, 1, 60, 103
3, 40741, Note_on_c, 1, 62, 0
3, 40780, Note_on_c, 1, 60, 0
3, 40800, Note_on_c, 1, 60, 86
3, 40800, Note_on_c, 1, 50, 99
3, 40803, Control_c, 1, 64, 0
3, 40856, Note_on_c, 1, 60, 0
3, 40857, Note_on_c, 1, 50, 0
3, 40860, Note_on_c, 1, 53, 86
3, 40860, Note_on_c, 1, 59, 103
3, 40886, Control_c, 1, 64, 127
3, 40906, Note_on_c, 1, 59, 0
3, 40916, Note_on_c, 1, 53, 0
3, 40920, Note_on_c, 1, 55, 72
3, 40920, Control_c, 1, 64, 0
3, 40920, Note_on_c, 1, 59, 103
3, 40953, Control_c, 1, 64, 127
3, 40980, Note_on_c, 1, 53, 78
3, 40984, Note_on_c, 1, 55, 0
3, 41040, Note_on_c, 1, 50, 90
3, 41043, Note_on_c, 1, 53, 0
3, 41050, Control_c, 1, 64, 0
3, 41077, Control_c, 1, 64, 127
3, 41100, Note_on_c, 1, 53, 82
3, 41102, Note_on_c, 1, 50, 0
3, 41160, Control_c, 1, 64, 0
3, 41160, Note_on_c, 1, 55, 86
3, 41162, Note_on_c, 1, 53, 0
3, 41185, Control_c, 1, 64, 127
3, 41214, Note_on_c, 1, 59, 0
3, 41217, Note_on_c, 1, 55, 0
3, 41220, Note_on_c, 1, 53, 86
3, 41263, Note_on_c, 1, 53, 0
3, 41280, Note_on_c, 1, 52, 99
3, 41280, Note_on_c, 1, 60, 103
3, 41287, Control_c, 1, 64, 0
3, 41310, Note_on_c, 1, 55, 90
3, 41312, Note_on_c, 1, 60, 0
3, 41318, Control_c, 1, 64, 127
3, 41338, Control_c, 1, 64, 0
3, 41340, Note_on_c, 1, 57, 103
3, 41342, Note_on_c, 1, 55, 0
3, 41365, Control_c, 1, 64, 127
3, 41370, Note_on_c, 1, 59, 95
3, 41371, Note_on_c, 1, 57, 0
3, 41393, Note_on_c, 1, 59, 0
3, 41395, Note_on_c, 1, 52, 0
3, 41397, Control_c, 1, 64, 0
3, 41400, Note_on_c, 1, 60, 103
3, 41429, Note_on_c, 1, 60, 0
3, 41430, Note_on_c, 1, 62, 82
3, 41455, Note_on_c, 1, 62, 0
3, 41460, Note_on_c, 1, 64, 99
3, 41486, Note_on_c, 1, 64, 0
3, 41490, Note_on_c, 1, 65, 99
3, 41514, Note_on_c, 1, 65, 0
3, 41520, Note_on_c, 1, 67, 103
3, 41520, Note_on_c, 1, 52, 86
3, 41520, Note_on_c, 1, 48, 90
3, 41546, Note_on_c, 1, 67, 0
3, 41550, Note_on_c, 1, 65, 90
3, 41551, Control_c, 1, 64, 127
3, 41575, Control_c, 1, 64, 0
3, 41580, Note_on_c, 1, 64, 90
3, 41581, Note_on_c, 1, 52, 0
3, 41583, Note_on_c, 1, 48, 0
3, 41583, Note_on_c, 1, 65, 0
3, 41610, Note_on_c, 1, 62, 95
3, 41617, Note_on_c, 1, 64, 0
3, 41638, Note_on_c, 1, 62, 0
3, 41640, Note_on_c, 1, 60, 99
3, 41665, Note_on_c, 1, 60, 0
3, 41670, Note_on_c, 1, 59, 90
3, 41700, Note_on_c, 1, 57, 86
3, 41702, Note_on_c, 1, 59, 0
3, 41708, Control_c, 1, 64, 127
3, 41730, Note_on_c, 1, 57, 0
3, 41730, Note_on_c, 1, 55, 90
3, 41730, Note_on_c, 1, 53, 99
3, 41745, Note_on_c, 1, 53, 0
3, 41745, Note_on_c, 1, 55, 0
3, 41748, Control_c, 1, 64, 0
3, 41760, Note_on_c, 1, 48, 108
3, 41760, Note_on_c, 1, 53, 90
3, 41790, Note_on_c, 1, 57, 108
3, 41815, Note_on_c, 1, 57, 0
3, 41820, Note_on_c, 1, 59, 103
3, 41844, Control_c, 1, 64, 127
3, 41848, Note_on_c, 1, 59, 0
3, 41850, Note_on_c, 1, 60, 90
3, 41874, Note_on_c, 1, 60, 0
3, 41880, Note_on_c, 1, 62, 82
3, 41888, Control_c, 1, 64, 0
3, 41895, Note_on_c, 1, 53, 0
3, 41901, Note_on_c, 1, 62, 0
3, 41910, Note_on_c, 1, 64, 99
3, 41913, Note_on_c, 1, 48, 0
3, 41936, Note_on_c, 1, 64, 0
3, 41940, Note_on_c, 1, 65, 99
3, 41963, Note_on_c, 1, 65, 0
3, 41970, Note_on_c, 1, 67, 99
3, 41996, Note_on_c, 1, 67, 0
3, 42000, Note_on_c, 1, 69, 103
3, 42031, Control_c, 1, 64, 127
3, 42092, Note_on_c, 1, 69, 0
3, 42128, Control_c, 1, 64, 0
3, 42240, Note_on_c, 1, 52, 103
3, 42240, Note_on_c, 1, 52, 103
3, 42240, Note_on_c, 1, 55, 99
3, 42253, Control_c, 1, 64, 127
3, 42276, Note_on_c, 1, 55, 0
3, 42292, Note_on_c, 1, 52, 0
3, 42300, Note_on_c, 1, 55, 82
3, 42307, Note_on_c, 1, 52, 0
3, 42349, Note_on_c, 1, 55, 0
3, 42360, Note_on_c, 1, 60, 86
3, 42420, Note_on_c, 1, 55, 95
3, 42423, Note_on_c, 1, 60, 0
3, 42480, Note_on_c, 1, 53, 82
3, 42480, Note_on_c, 1, 43, 86
3, 42482, Note_on_c, 1, 55, 0
3, 42491, Control_c, 1, 64, 0
3, 42531, Control_c, 1, 64, 127
3, 42540, Note_on_c, 1, 55, 90
3, 42542, Note_on_c, 1, 53, 0
3, 42599, Note_on_c, 1, 55, 0
3, 42600, Note_on_c, 1, 59, 82
3, 42601, Control_c, 1, 64, 0
3, 42623, Control_c, 1, 64, 127
3, 42649, Note_on_c, 1, 43, 0
3, 42657, Note_on_c, 1, 59, 0
3, 42660, Note_on_c, 1, 55, 90
3, 42698, Note_on_c, 1, 55, 0
3, 42720, Note_on_c, 1, 52, 95
3, 42720, Note_on_c, 1, 48, 78
3, 42720, Note_on_c, 1, 36, 74
3, 42721, Control_c, 1, 64, 0
3, 42753, Control_c, 1, 64, 127
3, 42778, Note_on_c, 1, 52, 0
3, 42780, Note_on_c, 1, 60, 86
3, 42833, Note_on_c, 1, 60, 0
3, 42840, Note_on_c, 1, 55, 74
3, 42896, Note_on_c, 1, 55, 0
3, 42900, Note_on_c, 1, 60, 82
3, 42960, Note_on_c, 1, 60, 0
3, 42960, Note_on_c, 1, 52, 78
3, 42961, Note_on_c, 1, 48, 0
3, 42962, Note_on_c, 1, 36, 0
3, 42974, Control_c, 1, 64, 0
3, 43014, Control_c, 1, 64, 127
3, 43020, Note_on_c, 1, 60, 86
3, 43023, Note_on_c, 1, 52, 0
3, 43072, Note_on_c, 1, 60, 0
3, 43080, Note_on_c, 1, 55, 82
3, 43093, Control_c, 1, 64, 0
3, 43116, Control_c, 1, 64, 127
3, 43139, Note_on_c, 1, 55, 0
3, 43140, Note_on_c, 1, 60, 86
3, 43197, Note_on_c, 1, 60, 0
3, 43199, Control_c, 1, 64, 0
3, 43200, Note_on_c, 1, 53, 82
3, 43200, Note_on_c, 1, 41, 74
3, 43228, Control_c, 1, 64, 127
3, 43260, Note_on_c, 1, 60, 90
3, 43265, Note_on_c, 1, 53, 0
3, 43314, Note_on_c, 1, 60, 0
3, 43320, Note_on_c, 1, 57, 67
3, 43380, Note_on_c, 1, 60, 82
3, 43381, Note_on_c, 1, 57, 0
3, 43440, Note_on_c, 1, 53, 74
3, 43441, Note_on_c, 1, 60, 0
3, 43446, Control_c, 1, 64, 0
3, 43449, Note_on_c, 1, 41, 0
3, 43476, Control_c, 1, 64, 127
3, 43500, Note_on_c, 1, 60, 72
3, 43501, Note_on_c, 1, 53, 0
3, 43512, Control_c, 1, 64, 0
3, 43548, Control_c, 1, 64, 127
3, 43558, Note_on_c, 1, 60, 0
3, 43560, Note_on_c, 1, 57, 82
3, 43619, Note_on_c, 1, 57, 0
3, 43620, Note_on_c, 1, 60, 82
3, 43680, Note_on_c, 1, 52, 90
3, 43680, Note_on_c, 1, 48, 72
3, 43680, Note_on_c, 1, 36, 72
3, 43681, Control_c, 1, 64, 0
3, 43682, Note_on_c, 1, 60, 0
3, 43713, Control_c, 1, 64, 127
3, 43739, Note_on_c, 1, 52, 0
3, 43740, Note_on_c, 1, 60, 70
3, 43786, Note_on_c, 1, 60, 0
3, 43800, Note_on_c, 1, 55, 78
3, 43803, Note_on_c, 1, 48, 0
3, 43809, Note_on_c, 1, 36, 0
3, 43859, Note_on_c, 1, 55, 0
3, 43860, Note_on_c, 1, 60, 78
3, 43917, Note_on_c, 1, 60, 0
3, 43920, Note_on_c, 1, 53, 86
3, 43920, Note_on_c, 1, 43, 72
3, 43920, Note_on_c, 1, 31, 86
3, 43925, Control_c, 1, 64, 0
3, 43964, Control_c, 1, 64, 127
3, 43977, Note_on_c, 1, 53, 0
3, 43980, Note_on_c, 1, 59, 82
3, 44037, Note_on_c, 1, 59, 0
3, 44040, Note_on_c, 1, 55, 95
3, 44043, Control_c, 1, 64, 0
3, 44065, Control_c, 1, 64, 127
3, 44084, Note_on_c, 1, 31, 0
3, 44099, Note_on_c, 1, 55, 0
3, 44099, Note_on_c, 1, 43, 0
3, 44100, Note_on_c, 1, 59, 78
3, 44160, Note_on_c, 1, 59, 0
3, 44160, Note_on_c, 1, 52, 90
3, 44160, Note_on_c, 1, 48, 69
3, 44160, Note_on_c, 1, 36, 74
3, 44162, Control_c, 1, 64, 0
3, 44191, Control_c, 1, 64, 127
3, 44217, Note_on_c, 1, 52, 0
3, 44220, Note_on_c, 1, 60, 86
3, 44275, Note_on_c, 1, 60, 0
3, 44280, Note_on_c, 1, 55, 86
3, 44339, Note_on_c, 1, 55, 0
3, 44340, Note_on_c, 1, 60, 86
3, 44398, Note_on_c, 1, 36, 0
3, 44398, Note_on_c, 1, 48, 0
3, 44399, Note_on_c, 1, 60, 0
3, 44400, Note_on_c, 1, 52, 90
3, 44409, Control_c, 1, 64, 0
3, 44439, Control_c, 1, 64, 127
3, 44459, Note_on_c, 1, 52, 0
3, 44460, Note_on_c, 1, 60, 86
3, 44514, Note_on_c, 1, 60, 0
3, 44520, Note_on_c, 1, 55, 82
3, 44577, Note_on_c, 1, 55, 0
3, 44580, Note_on_c, 1, 60, 74
3, 44634, Note_on_c, 1, 60, 0
3, 44640, Note_on_c, 1, 52, 72
3, 44640, Note_on_c, 1, 48, 69
3, 44640, Note_on_c, 1, 36, 74
3, 44644, Control_c, 1, 64, 0
3, 44677, Control_c, 1, 64, 127
3, 44700, Note_on_c, 1, 60, 74
3, 44705, Note_on_c, 1, 52, 0
3, 44751, Note_on_c, 1, 60, 0
3, 44760, Note_on_c, 1, 55, 69
3, 44818, Note_on_c, 1, 55, 0
3, 44820, Note_on_c, 1, 60, 74
3, 44880, Note_on_c, 1, 52, 74
3, 44881, Note_on_c, 1, 60, 0
3, 44884, Note_on_c, 1, 36, 0
3, 44886, Note_on_c, 1, 48, 0
3, 44892, Control_c, 1, 64, 0
3, 44918, Control_c, 1, 64, 127
3, 44940, Note_on_c, 1, 52, 0
3, 44940, Note_on_c, 1, 60, 74
3, 44986, Note_on_c, 1, 60, 0
3, 45000, Note_on_c, 1, 55, 70
3, 45057, Note_on_c, 1, 55, 0
3, 45060, Note_on_c, 1, 60, 74
3, 45117, Note_on_c, 1, 60, 0
3, 45120, Note_on_c, 1, 53, 70
3, 45120, Note_on_c, 1, 41, 78
3, 45121, Control_c, 1, 64, 0
3, 45153, Control_c, 1, 64, 127
3, 45179, Note_on_c, 1, 53, 0
3, 45180, Note_on_c, 1, 60, 66
3, 45237, Note_on_c, 1, 60, 0
3, 45240, Note_on_c, 1, 57, 69
3, 45295, Note_on_c, 1, 57, 0
3, 45300, Note_on_c, 1, 60, 62
3, 45360, Note_on_c, 1, 60, 0
3, 45360, Note_on_c, 1, 53, 70
3, 45364, Note_on_c, 1, 41, 0
3, 45369, Control_c, 1, 64, 0
3, 45400, Control_c, 1, 64, 127
3, 45420, Note_on_c, 1, 60, 69
3, 45425, Note_on_c, 1, 53, 0
3, 45471, Note_on_c, 1, 60, 0
3, 45480, Note_on_c, 1, 57, 72
3, 45540, Note_on_c, 1, 60, 82
3, 45541, Note_on_c, 1, 57, 0
3, 45599, Note_on_c, 1, 60, 0
3, 45600, Note_on_c, 1, 52, 78
3, 45600, Note_on_c, 1, 48, 67
3, 45600, Note_on_c, 1, 36, 67
3, 45607, Control_c, 1, 64, 0
3, 45639, Control_c, 1, 64, 127
3, 45654, Note_on_c, 1, 52, 0
3, 45660, Note_on_c, 1, 60, 82
3, 45700, Note_on_c, 1, 48, 0
3, 45702, Note_on_c, 1, 36, 0
3, 45717, Note_on_c, 1, 60, 0
3, 45720, Note_on_c, 1, 55, 74
3, 45775, Note_on_c, 1, 55, 0
3, 45780, Note_on_c, 1, 60, 70
3, 45831, Note_on_c, 1, 60, 0
3, 45840, Note_on_c, 1, 53, 74
3, 45840, Note_on_c, 1, 31, 72
3, 45840, Note_on_c, 1, 43, 66
3, 45842, Control_c, 1, 64, 0
3, 45880, Control_c, 1, 64, 127
3, 45898, Note_on_c, 1, 53, 0
3, 45900, Note_on_c, 1, 59, 82
3, 45960, Note_on_c, 1, 59, 0
3, 45960, Note_on_c, 1, 55, 82
3, 45977, Note_on_c, 1, 31, 0
3, 46000, Note_on_c, 1, 43, 0
3, 46018, Note_on_c, 1, 55, 0
3, 46020, Note_on_c, 1, 59, 69
3, 46078, Note_on_c, 1, 59, 0
3, 46079, Control_c, 1, 64, 0
3, 46080, Note_on_c, 1, 52, 74
3, 46080, Note_on_c, 1, 48, 66
3, 46080, Note_on_c, 1, 36, 70
3, 46112, Control_c, 1, 64, 127
3, 46138, Note_on_c, 1, 52, 0
3, 46140, Note_on_c, 1, 60, 86
3, 46197, Note_on_c, 1, 60, 0
3, 46200, Note_on_c, 1, 55, 82
3, 46253, Note_on_c, 1, 55, 0
3, 46260, Note_on_c, 1, 36, 0
3, 46260, Note_on_c, 1, 60, 63
3, 46265, Note_on_c, 1, 48, 0
3, 46320, Note_on_c, 1, 52, 74
3, 46320, Note_on_c, 1, 36, 70
3, 46322, Note_on_c, 1, 60, 0
3, 46332, Control_c, 1, 64, 0
3, 46362, Control_c, 1, 64, 127
3, 46379, Note_on_c, 1, 52, 0
3, 46380, Note_on_c, 1, 60, 74
3, 46430, Note_on_c, 1, 60, 0
3, 46440, Note_on_c, 1, 55, 70
3, 46471, Note_on_c, 1, 36, 0
3, 46493, Note_on_c, 1, 55, 0
3, 46500, Note_on_c, 1, 60, 72
3, 46550, Note_on_c, 1, 60, 0
3, 46560, Note_on_c, 1, 52, 78
3, 46560, Note_on_c, 1, 36, 78
3, 46560, Note_on_c, 1, 48, 65
3, 46566, Note_on_c, 1, 48, 0
3, 46568, Control_c, 1, 64, 0
3, 46599, Control_c, 1, 64, 127
3, 46620, Note_on_c, 1, 55, 86
3, 46626, Note_on_c, 1, 52, 0
3, 46640, Note_on_c, 1, 36, 0
3, 46678, Note_on_c, 1, 55, 0
3, 46680, Note_on_c, 1, 60, 99
3, 46689, Control_c, 1, 64, 0
3, 46696, Note_on_c, 1, 60, 0
3, 46740, Note_on_c, 1, 60, 86
3, 46756, Note_on_c, 1, 60, 0
3, 46800, Note_on_c, 1, 53, 70
3, 46800, Note_on_c, 1, 31, 70
3, 46800, Note_on_c, 1, 43, 59
3, 46819, Control_c, 1, 64, 127
3, 46860, Note_on_c, 1, 53, 0
3, 46860, Note_on_c, 1, 55, 95
3, 46920, Note_on_c, 1, 59, 103
3, 46921, Note_on_c, 1, 55, 0
3, 46927, Control_c, 1, 64, 0
3, 46931, Note_on_c, 1, 31, 0
3, 46931, Note_on_c, 1, 43, 0
3, 46936, Note_on_c, 1, 59, 0
3, 46980, Note_on_c, 1, 59, 95
3, 46998, Note_on_c, 1, 59, 0
3, 47040, Note_on_c, 1, 60, 82
3, 47040, Note_on_c, 1, 48, 66
3, 47040, Note_on_c, 1, 52, 86
3, 47040, Note_on_c, 1, 36, 63
3, 47062, Control_c, 1, 64, 127
3, 47158, Note_on_c, 1, 52, 0
3, 47160, Note_on_c, 1, 60, 0
3, 47160, Note_on_c, 1, 48, 0
3, 47160, Control_c, 1, 64, 0
3, 47161, Note_on_c, 1, 36, 0
3, 47520, Note_on_c, 1, 36, 99
3, 47520, Note_on_c, 1, 52, 103
3, 47520, Note_on_c, 1, 48, 99
3, 47547, Control_c, 1, 64, 127
3, 47580, Note_on_c, 1, 55, 90
3, 47584, Note_on_c, 1, 52, 0
3, 47640, Note_on_c, 1, 60, 103
3, 47643, Note_on_c, 1, 55, 0
3, 47643, Control_c, 1, 64, 0
3, 47650, Note_on_c, 1, 48, 0
3, 47652, Note_on_c, 1, 36, 0
3, 47654, Note_on_c, 1, 60, 0
3, 47700, Note_on_c, 1, 60, 82
3, 47714, Note_on_c, 1, 60, 0
3, 47760, Note_on_c, 1, 53, 82
3, 47760, Note_on_c, 1, 43, 70
3, 47760, Note_on_c, 1, 31, 78
3, 47784, Control_c, 1, 64, 127
3, 47820, Note_on_c, 1, 55, 82
3, 47822, Note_on_c, 1, 53, 0
3, 47879, Note_on_c, 1, 55, 0
3, 47880, Note_on_c, 1, 59, 103
3, 47886, Note_on_c, 1, 43, 0
3, 47887, Note_on_c, 1, 31, 0
3, 47889, Control_c, 1, 64, 0
3, 47893, Note_on_c, 1, 59, 0
3, 47940, Note_on_c, 1, 59, 95
3, 47955, Note_on_c, 1, 59, 0
3, 48000, Note_on_c, 1, 60, 99
3, 48000, Note_on_c, 1, 52, 95
3, 48000, Note_on_c, 1, 36, 82
3, 48000, Note_on_c, 1, 48, 70
3, 48020, Control_c, 1, 64, 127
3, 48104, Note_on_c, 1, 52, 0
3, 48105, Note_on_c, 1, 48, 0
3, 48107, Note_on_c, 1, 36, 0
3, 48108, Note_on_c, 1, 60, 0
3, 48112, Control_c, 1, 64, 0
3, 48480, Note_on_c, 1, 41, 95
3, 48480, Note_on_c, 1, 60, 99
3, 48480, Note_on_c, 1, 53, 103
3, 48494, Control_c, 1, 64, 127
3, 48582, Note_on_c, 1, 60, 0
3, 48585, Note_on_c, 1, 53, 0
3, 48587, Note_on_c, 1, 41, 0
3, 48597, Control_c, 1, 64, 0
3, 48720, Note_on_c, 1, 60, 103
3, 48720, Note_on_c, 1, 52, 99
3, 48720, Note_on_c, 1, 36, 103
3, 48735, Control_c, 1, 64, 127
3, 48816, Note_on_c, 1, 36, 0
3, 48818, Note_on_c, 1, 52, 0
3, 48822, Note_on_c, 1, 60, 0
3, 48836, Control_c, 1, 64, 0
3, 48960, Note_on_c, 1, 60, 99
3, 48960, Note_on_c, 1, 48, 70
3, 48960, Note_on_c, 1, 60, 90
3, 48960, Note_on_c, 1, 48, 90
3, 48974, Control_c, 1, 64, 127
3, 49014, Note_on_c, 1, 60, 0
3, 49020, Note_on_c, 1, 62, 99
3, 49032, Note_on_c, 1, 60, 0
3, 49076, Note_on_c, 1, 62, 0
3, 49080, Note_on_c, 1, 63, 90
3, 49085, Note_on_c, 1, 48, 0
3, 49095, Control_c, 1, 64, 0
3, 49136, Note_on_c, 1, 63, 0
3, 49140, Note_on_c, 1, 64, 99
3, 49200, Note_on_c, 1, 62, 95
3, 49203, Note_on_c, 1, 64, 0
3, 49232, Control_c, 1, 64, 127
3, 49260, Control_c, 1, 64, 0
3, 49260, Note_on_c, 1, 60, 86
3, 49267, Note_on_c, 1, 62, 0
3, 49320, Note_on_c, 1, 59, 90
3, 49322, Note_on_c, 1, 60, 0
3, 49322, Control_c, 1, 64, 127
3, 49371, Note_on_c, 1, 59, 0
3, 49380, Note_on_c, 1, 60, 90
3, 49392, Note_on_c, 1, 60, 0
3, 49410, Note_on_c, 1, 48, 0
3, 49438, Control_c, 1, 64, 0
3, 49440, Note_on_c, 1, 53, 99
3, 49440, Note_on_c, 1, 55, 86
3, 49464, Control_c, 1, 64, 127
3, 49466, Note_on_c, 1, 55, 0
3, 49469, Note_on_c, 1, 53, 0
3, 49500, Note_on_c, 1, 55, 99
3, 49523, Note_on_c, 1, 55, 0
3, 49560, Note_on_c, 1, 55, 74
3, 49560, Note_on_c, 1, 59, 103
3, 49576, Note_on_c, 1, 55, 0
3, 49580, Note_on_c, 1, 59, 0
3, 49620, Note_on_c, 1, 55, 82
3, 49644, Note_on_c, 1, 55, 0
3, 49677, Control_c, 1, 64, 0
3, 49680, Note_on_c, 1, 53, 90
3, 49680, Note_on_c, 1, 43, 82
3, 49703, Control_c, 1, 64, 127
3, 49716, Note_on_c, 1, 53, 0
3, 49717, Note_on_c, 1, 43, 0
3, 49740, Note_on_c, 1, 55, 86
3, 49740, Note_on_c, 1, 43, 74
3, 49755, Note_on_c, 1, 43, 0
3, 49762, Note_on_c, 1, 55, 0
3, 49800, Note_on_c, 1, 59, 90
3, 49800, Note_on_c, 1, 43, 82
3, 49817, Note_on_c, 1, 43, 0
3, 49822, Note_on_c, 1, 59, 0
3, 49860, Note_on_c, 1, 43, 86
3, 49860, Note_on_c, 1, 55, 95
3, 49877, Note_on_c, 1, 55, 0
3, 49878, Note_on_c, 1, 43, 0
3, 49920, Note_on_c, 1, 52, 82
3, 49920, Note_on_c, 1, 48, 90
3, 49927, Control_c, 1, 64, 0
3, 49961, Control_c, 1, 64, 127
3, 49980, Note_on_c, 1, 55, 86
3, 49984, Note_on_c, 1, 52, 0
3, 50040, Note_on_c, 1, 55, 0
3, 50040, Note_on_c, 1, 60, 82
3, 50098, Note_on_c, 1, 60, 0
3, 50100, Note_on_c, 1, 55, 86
3, 50159, Note_on_c, 1, 55, 0
3, 50159, Note_on_c, 1, 48, 0
3, 50160, Note_on_c, 1, 53, 82
3, 50160, Note_on_c, 1, 43, 74
3, 50173, Control_c, 1, 64, 0
3, 50208, Control_c, 1, 64, 127
3, 50220, Note_on_c, 1, 55, 90
3, 50222, Note_on_c, 1, 53, 0
3, 50280, Note_on_c, 1, 55, 0
3, 50280, Note_on_c, 1, 59, 74
3, 50314, Note_on_c, 1, 43, 0
3, 50340, Note_on_c, 1, 55, 78
3, 50344, Note_on_c, 1, 59, 0
3, 50400, Note_on_c, 1, 55, 0
3, 50400, Note_on_c, 1, 52, 86
3, 50400, Note_on_c, 1, 36, 86
3, 50413, Control_c, 1, 64, 0
3, 50446, Control_c, 1, 64, 127
3, 50460, Note_on_c, 1, 52, 0
3, 50460, Note_on_c, 1, 55, 74
3, 50519, Note_on_c, 1, 55, 0
3, 50520, Note_on_c, 1, 60, 82
3, 50580, Note_on_c, 1, 55, 86
3, 50583, Note_on_c, 1, 60, 0
3, 50636, Note_on_c, 1, 36, 0
3, 50638, Note_on_c, 1, 55, 0
3, 50640, Note_on_c, 1, 53, 86
3, 50640, Note_on_c, 1, 43, 78
3, 50654, Control_c, 1, 64, 0
3, 50689, Control_c, 1, 64, 127
3, 50700, Note_on_c, 1, 55, 90
3, 50702, Note_on_c, 1, 53, 0
3, 50758, Note_on_c, 1, 55, 0
3, 50760, Note_on_c, 1, 59, 90
3, 50807, Note_on_c, 1, 43, 0
3, 50816, Note_on_c, 1, 59, 0
3, 50820, Note_on_c, 1, 55, 90
3, 50872, Control_c, 1, 64, 0
3, 50880, Note_on_c, 1, 55, 0
3, 50880, Note_on_c, 1, 52, 95
3, 50880, Note_on_c, 1, 36, 82
3, 50880, Note_on_c, 1, 48, 82
3, 50898, Control_c, 1, 64, 127
3, 50910, Note_on_c, 1, 48, 0
3, 50914, Note_on_c, 1, 36, 0
3, 50939, Note_on_c, 1, 52, 0
3, 50940, Note_on_c, 1, 60, 103
3, 50979, Note_on_c, 1, 60, 0
3, 51000, Note_on_c, 1, 53, 99
3, 51000, Note_on_c, 1, 31, 82
3, 51000, Note_on_c, 1, 43, 72
3, 51004, Control_c, 1, 64, 0
3, 51031, Control_c, 1, 64, 127
3, 51052, Note_on_c, 1, 53, 0
3, 51059, Note_on_c, 1, 31, 0
3, 51060, Note_on_c, 1, 59, 86
3, 51063, Note_on_c, 1, 43, 0
3, 51118, Note_on_c, 1, 59, 0
3, 51118, Control_c, 1, 64, 0
3, 51120, Note_on_c, 1, 52, 90
3, 51120, Note_on_c, 1, 36, 74
3, 51120, Note_on_c, 1, 48, 65
3, 51146, Control_c, 1, 64, 127
3, 51166, Note_on_c, 1, 48, 0
3, 51172, Note_on_c, 1, 36, 0
3, 51177, Note_on_c, 1, 52, 0
3, 51180, Note_on_c, 1, 60, 95
3, 51228, Note_on_c, 1, 60, 0
3, 51239, Control_c, 1, 64, 0
3, 51240, Note_on_c, 1, 53, 99
3, 51240, Note_on_c, 1, 31, 86
3, 51240, Note_on_c, 1, 43, 70
3, 51262, Control_c, 1, 64, 127
3, 51281, Note_on_c, 1, 31, 0
3, 51291, Note_on_c, 1, 43, 0
3, 51292, Note_on_c, 1, 53, 0
3, 51300, Note_on_c, 1, 59, 82
3, 51352, Control_c, 1, 64, 0
3, 51359, Note_on_c, 1, 59, 0
3, 51360, Note_on_c, 1, 52, 90
3, 51360, Note_on_c, 1, 48, 74
3, 51360, Note_on_c, 1, 36, 86
3, 51379, Control_c, 1, 64, 127
3, 51404, Note_on_c, 1, 48, 0
3, 51408, Note_on_c, 1, 36, 0
3, 51419, Note_on_c, 1, 52, 0
3, 51420, Note_on_c, 1, 60, 103
3, 51471, Note_on_c, 1, 60, 0
3, 51480, Note_on_c, 1, 53, 99
3, 51480, Note_on_c, 1, 31, 90
3, 51480, Note_on_c, 1, 43, 78
3, 51482, Control_c, 1, 64, 0
3, 51509, Control_c, 1, 64, 127
3, 51524, Note_on_c, 1, 31, 0
3, 51530, Note_on_c, 1, 53, 0
3, 51534, Note_on_c, 1, 43, 0
3, 51540, Note_on_c, 1, 59, 90
3, 51597, Control_c, 1, 64, 0
3, 51600, Note_on_c, 1, 52, 82
3, 51600, Note_on_c, 1, 48, 72
3, 51600, Note_on_c, 1, 36, 86
3, 51601, Note_on_c, 1, 59, 0
3, 51623, Control_c, 1, 64, 127
3, 51644, Note_on_c, 1, 48, 0
3, 51646, Note_on_c, 1, 36, 0
3, 51656, Note_on_c, 1, 52, 0
3, 51660, Note_on_c, 1, 60, 95
3, 51703, Note_on_c, 1, 60, 0
3, 51716, Control_c, 1, 64, 0
3, 51720, Note_on_c, 1, 53, 95
3, 51720, Note_on_c, 1, 31, 103
3, 51720, Note_on_c, 1, 43, 86
3, 51740, Control_c, 1, 64, 127
3, 51768, Note_on_c, 1, 31, 0
3, 51776, Note_on_c, 1, 53, 0
3, 51779, Note_on_c, 1, 43, 0
3, 51780, Note_on_c, 1, 59, 99
3, 51813, Note_on_c, 1, 59, 0
3, 51837, Control_c, 1, 64, 0
3, 51840, Note_on_c, 1, 55, 99
3, 51840, Note_on_c, 1, 60, 99
3, 51840, Note_on_c, 1, 52, 99
3, 51840, Note_on_c, 1, 36, 95
3, 51840, Note_on_c, 1, 48, 86
3, 51862, Control_c, 1, 64, 127
3, 51897, Note_on_c, 1, 48, 0
3, 51898, Note_on_c, 1, 52, 0
3, 51899, Note_on_c, 1, 36, 0
3, 51900, Note_on_c, 1, 60, 0
3, 51903, Note_on_c, 1, 55, 0
3, 51955, Control_c, 1, 64, 0
3, 51960, Note_on_c, 1, 36, 99
3, 51960, Note_on_c, 1, 55, 99
3, 51960, Note_on_c, 1, 48, 86
3, 51960, Note_on_c, 1, 52, 103
3, 51960, Note_on_c, 1, 60, 99
3, 51979, Control_c, 1, 64, 127
3, 52016, Note_on_c, 1, 48, 0
3, 52016, Note_on_c, 1, 36, 0
3, 52017, Note_on_c, 1, 60, 0
3, 52017, Note_on_c, 1, 52, 0
3, 52022, Note_on_c, 1, 55, 0
3, 52074, Control_c, 1, 64, 0
3, 52080, Note_on_c, 1, 52, 103
3, 52080, Note_on_c, 1, 55, 103
3, 52080, Note_on_c, 1, 60, 103
3, 52080, Note_on_c, 1, 36, 99
3, 52080, Note_on_c, 1, 48, 90
3, 52096, Control_c, 1, 64, 127
3, 52111, Note_on_c, 1, 48, 0
3, 52114, Note_on_c, 1, 52, 0
3, 52114, Note_on_c, 1, 36, 0
3, 52116, Note_on_c, 1, 60, 0
3, 52117, Note_on_c, 1, 55, 0
3, 52216, Control_c, 1, 64, 0
3, 52320, Control_c, 1, 7, 97
3, 54240, Note_on_c, 1, 55, 90
3, 54240, Note_on_c, 1, 48, 82
3, 54240, Note_on_c, 1, 36, 72
3, 54247, Control_c, 1, 64, 127
3, 54297, Note_on_c, 1, 55, 0
3, 54300, Note_on_c, 1, 64, 86
3, 54351, Note_on_c, 1, 64, 0
3, 54360, Note_on_c, 1, 60, 86
3, 54414, Note_on_c, 1, 60, 0
3, 54420, Note_on_c, 1, 64, 74
3, 54480, Note_on_c, 1, 55, 78
3, 54481, Note_on_c, 1, 64, 0
3, 54532, Note_on_c, 1, 55, 0
3, 54534, Note_on_c, 1, 36, 0
3, 54538, Note_on_c, 1, 48, 0
3, 54540, Note_on_c, 1, 64, 95
3, 54559, Note_on_c, 1, 64, 0
3, 54600, Note_on_c, 1, 55, 95
3, 54600, Note_on_c, 1, 47, 72
3, 54600, Note_on_c, 1, 35, 72
3, 54607, Control_c, 1, 64, 0
3, 54640, Control_c, 1, 64, 127
3, 54655, Note_on_c, 1, 55, 0
3, 54660, Note_on_c, 1, 62, 86
3, 54708, Note_on_c, 1, 62, 0
3, 54720, Note_on_c, 1, 59, 86
3, 54780, Note_on_c, 1, 62, 90
3, 54781, Note_on_c, 1, 59, 0
3, 54830, Note_on_c, 1, 62, 0
3, 54840, Note_on_c, 1, 55, 86
3, 54856, Note_on_c, 1, 35, 0
3, 54887, Note_on_c, 1, 47, 0
3, 54891, Note_on_c, 1, 55, 0
3, 54900, Note_on_c, 1, 62, 86
3, 54944, Note_on_c, 1, 62, 0
3, 54960, Note_on_c, 1, 45, 82
3, 54960, Note_on_c, 1, 54, 82
3, 54968, Control_c, 1, 64, 0
3, 54994, Control_c, 1, 64, 127
3, 55013, Note_on_c, 1, 54, 0
3, 55020, Note_on_c, 1, 60, 95
3, 55072, Note_on_c, 1, 60, 0
3, 55080, Note_on_c, 1, 57, 95
3, 55136, Note_on_c, 1, 57, 0
3, 55140, Note_on_c, 1, 60, 82
3, 55190, Note_on_c, 1, 60, 0
3, 55200, Note_on_c, 1, 54, 74
3, 55248, Note_on_c, 1, 45, 0
3, 55259, Note_on_c, 1, 54, 0
3, 55260, Note_on_c, 1, 60, 95
3, 55277, Note_on_c, 1, 60, 0
3, 55315, Control_c, 1, 64, 0
3, 55320, Note_on_c, 1, 60, 99
3, 55320, Note_on_c, 1, 42, 78
3, 55320, Note_on_c, 1, 50, 82
3, 55320, Note_on_c, 1, 52, 70
3, 55323, Note_on_c, 1, 52, 0
3, 55351, Control_c, 1, 64, 127
3, 55570, Note_on_c, 1, 50, 0
3, 55577, Note_on_c, 1, 42, 0
3, 55577, Note_on_c, 1, 60, 0
3, 55678, Control_c, 1, 64, 0
3, 55680, Note_on_c, 1, 43, 82
3, 55680, Note_on_c, 1, 59, 99
3, 55708, Control_c, 1, 64, 127
3, 55740, Note_on_c, 1, 59, 0
3, 55740, Note_on_c, 1, 67, 99
3, 55760, Note_on_c, 1, 43, 0
3, 55773, Note_on_c, 1, 67, 0
3, 55800, Note_on_c, 1, 60, 95
3, 55800, Note_on_c, 1, 45, 90
3, 55802, Control_c, 1, 64, 0
3, 55825, Control_c, 1, 64, 127
3, 55860, Note_on_c, 1, 67, 99
3, 55861, Note_on_c, 1, 60, 0
3, 55882, Note_on_c, 1, 67, 0
3, 55884, Note_on_c, 1, 45, 0
3, 55920, Note_on_c, 1, 47, 95
3, 55920, Note_on_c, 1, 62, 108
3, 55926, Control_c, 1, 64, 0
3, 55949, Control_c, 1, 64, 127
3, 55980, Note_on_c, 1, 67, 95
3, 55982, Note_on_c, 1, 62, 0
3, 56010, Note_on_c, 1, 67, 0
3, 56011, Note_on_c, 1, 47, 0
3, 56040, Note_on_c, 1, 48, 78
3, 56040, Note_on_c, 1, 64, 99
3, 56056, Control_c, 1, 64, 0
3, 56084, Control_c, 1, 64, 127
3, 56093, Note_on_c, 1, 64, 0
3, 56100, Note_on_c, 1, 60, 90
3, 56131, Note_on_c, 1, 48, 0
3, 56157, Control_c, 1, 64, 0
3, 56159, Note_on_c, 1, 60, 0
3, 56160, Note_on_c, 1, 59, 103
3, 56160, Note_on_c, 1, 50, 90
3, 56179, Control_c, 1, 64, 127
3, 56207, Note_on_c, 1, 59, 0
3, 56215, Note_on_c, 1, 50, 0
3, 56280, Note_on_c, 1, 57, 99
3, 56280, Note_on_c, 1, 60, 86
3, 56280, Note_on_c, 1, 38, 90
3, 56282, Control_c, 1, 64, 0
3, 56305, Control_c, 1, 64, 127
3, 56321, Note_on_c, 1, 38, 0
3, 56324, Note_on_c, 1, 57, 0
3, 56326, Note_on_c, 1, 60, 0
3, 56397, Control_c, 1, 64, 0
3, 56400, Note_on_c, 1, 43, 72
3, 56400, Note_on_c, 1, 55, 86
3, 56400, Note_on_c, 1, 59, 90
3, 56423, Control_c, 1, 64, 127
3, 56520, Note_on_c, 1, 43, 0
3, 56520, Note_on_c, 1, 38, 86
3, 56526, Control_c, 1, 64, 0
3, 56547, Control_c, 1, 64, 127
3, 56636, Control_c, 1, 64, 0
3, 56638, Note_on_c, 1, 38, 0
3, 56640, Note_on_c, 1, 31, 86
3, 56658, Control_c, 1, 64, 127
3, 56677, Note_on_c, 1, 31, 0
3, 56694, Note_on_c, 1, 59, 0
3, 56695, Note_on_c, 1, 55, 0
3, 56748, Control_c, 1, 64, 0
3, 56760, Note_on_c, 1, 43, 99
3, 56775, Control_c, 1, 64, 127
3, 56815, Note_on_c, 1, 43, 0
3, 56820, Note_on_c, 1, 47, 90
3, 56828, Control_c, 1, 64, 0
3, 56850, Note_on_c, 1, 50, 99
3, 56860, Note_on_c, 1, 47, 0
3, 56877, Note_on_c, 1, 50, 0
3, 56880, Note_on_c, 1, 55, 86
3, 56899, Control_c, 1, 64, 127
3, 56928, Note_on_c, 1, 55, 0
3, 56940, Note_on_c, 1, 55, 95
3, 56973, Note_on_c, 1, 55, 0
3, 57000, Note_on_c, 1, 55, 99
3, 57052, Note_on_c, 1, 55, 0
3, 57060, Note_on_c, 1, 53, 95
3, 57092, Note_on_c, 1, 53, 0
3, 57120, Note_on_c, 1, 52, 99
3, 57120, Note_on_c, 1, 55, 103
3, 57121, Control_c, 1, 64, 0
3, 57154, Control_c, 1, 64, 127
3, 57172, Note_on_c, 1, 55, 0
3, 57180, Note_on_c, 1, 60, 86
3, 57202, Note_on_c, 1, 60, 0
3, 57210, Note_on_c, 1, 64, 95
3, 57228, Note_on_c, 1, 64, 0
3, 57240, Note_on_c, 1, 67, 103
3, 57258, Note_on_c, 1, 67, 0
3, 57300, Note_on_c, 1, 67, 103
3, 57318, Note_on_c, 1, 67, 0
3, 57341, Note_on_c, 1, 52, 0
3, 57360, Note_on_c, 1, 47, 95
3, 57360, Note_on_c, 1, 67, 103
3, 57362, Control_c, 1, 64, 0
3, 57385, Control_c, 1, 64, 127
3, 57411, Note_on_c, 1, 67, 0
3, 57420, Note_on_c, 1, 65, 103
3, 57432, Note_on_c, 1, 47, 0
3, 57449, Note_on_c, 1, 65, 0
3, 57471, Control_c, 1, 64, 0
3, 57480, Note_on_c, 1, 60, 86
3, 57480, Note_on_c, 1, 64, 90
3, 57480, Note_on_c, 1, 48, 86
3, 57493, Control_c, 1, 64, 127
3, 57541, Note_on_c, 1, 60, 0
3, 57543, Note_on_c, 1, 64, 0
3, 57544, Note_on_c, 1, 48, 0
3, 57594, Control_c, 1, 64, 0
3, 57840, Note_on_c, 1, 53, 74
3, 57840, Note_on_c, 1, 65, 90
3, 57840, Note_on_c, 1, 69, 95
3, 57854, Control_c, 1, 64, 127
3, 57893, Note_on_c, 1, 69, 0
3, 57893, Note_on_c, 1, 65, 0
3, 57900, Note_on_c, 1, 67, 86
3, 57900, Note_on_c, 1, 64, 90
3, 57947, Control_c, 1, 64, 0
3, 57952, Note_on_c, 1, 64, 0
3, 57957, Note_on_c, 1, 67, 0
3, 57960, Note_on_c, 1, 65, 103
3, 57960, Note_on_c, 1, 62, 95
3, 57966, Control_c, 1, 64, 127
3, 57985, Note_on_c, 1, 65, 0
3, 57992, Note_on_c, 1, 62, 0
3, 58020, Note_on_c, 1, 64, 86
3, 58020, Note_on_c, 1, 60, 86
3, 58037, Note_on_c, 1, 53, 0
3, 58046, Note_on_c, 1, 60, 0
3, 58051, Note_on_c, 1, 64, 0
3, 58077, Control_c, 1, 64, 0
3, 58080, Note_on_c, 1, 54, 82
3, 58080, Note_on_c, 1, 62, 99
3, 58080, Note_on_c, 1, 59, 95
3, 58102, Control_c, 1, 64, 127
3, 58130, Note_on_c, 1, 59, 0
3, 58133, Note_on_c, 1, 62, 0
3, 58140, Note_on_c, 1, 64, 90
3, 58140, Note_on_c, 1, 60, 82
3, 58160, Note_on_c, 1, 60, 0
3, 58163, Note_on_c, 1, 64, 0
3, 58170, Note_on_c, 1, 54, 0
3, 58195, Control_c, 1, 64, 0
3, 58200, Note_on_c, 1, 64, 90
3, 58200, Note_on_c, 1, 60, 95
3, 58200, Note_on_c, 1, 55, 90
3, 58223, Control_c, 1, 64, 127
3, 58255, Note_on_c, 1, 55, 0
3, 58260, Note_on_c, 1, 43, 82
3, 58278, Note_on_c, 1, 60, 0
3, 58283, Note_on_c, 1, 64, 0
3, 58315, Note_on_c, 1, 43, 0
3, 58320, Note_on_c, 1, 59, 95
3, 58320, Note_on_c, 1, 62, 95
3, 58320, Note_on_c, 1, 55, 86
3, 58333, Control_c, 1, 64, 0
3, 58359, Control_c, 1, 64, 127
3, 58380, Note_on_c, 1, 53, 99
3, 58384, Note_on_c, 1, 55, 0
3, 58393, Control_c, 1, 64, 0
3, 58416, Control_c, 1, 64, 127
3, 58440, Note_on_c, 1, 52, 99
3, 58441, Note_on_c, 1, 53, 0
3, 58452, Control_c, 1, 64, 0
3, 58476, Note_on_c, 1, 62, 0
3, 58477, Note_on_c, 1, 59, 0
3, 58498, Note_on_c, 1, 52, 0
3, 58500, Note_on_c, 1, 50, 86
3, 58507, Control_c, 1, 64, 127
3, 58522, Note_on_c, 1, 50, 0
3, 58560, Note_on_c, 1, 55, 86
3, 58560, Note_on_c, 1, 48, 72
3, 58560, Note_on_c, 1, 36, 70
3, 58571, Control_c, 1, 64, 127
3, 58615, Note_on_c, 1, 55, 0
3, 58620, Note_on_c, 1, 60, 86
3, 58672, Note_on_c, 1, 60, 0
3, 58680, Note_on_c, 1, 64, 90
3, 58740, Note_on_c, 1, 60, 82
3, 58744, Note_on_c, 1, 64, 0
3, 58800, Note_on_c, 1, 64, 103
3, 58802, Note_on_c, 1, 60, 0
3, 58860, Note_on_c, 1, 60, 95
3, 58866, Note_on_c, 1, 64, 0
3, 58866, Note_on_c, 1, 36, 0
3, 58867, Note_on_c, 1, 48, 0
3, 58904, Note_on_c, 1, 60, 0
3, 58920, Note_on_c, 1, 55, 90
3, 58920, Note_on_c, 1, 35, 90
3, 58920, Note_on_c, 1, 47, 86
3, 58932, Control_c, 1, 64, 0
3, 58968, Control_c, 1, 64, 127
3, 58980, Note_on_c, 1, 55, 0
3, 58980, Note_on_c, 1, 62, 90
3, 59036, Note_on_c, 1, 62, 0
3, 59040, Note_on_c, 1, 65, 99
3, 59100, Note_on_c, 1, 62, 99
3, 59101, Note_on_c, 1, 65, 0
3, 59157, Note_on_c, 1, 62, 0
3, 59160, Note_on_c, 1, 65, 99
3, 59190, Note_on_c, 1, 35, 0
3, 59202, Note_on_c, 1, 47, 0
3, 59215, Note_on_c, 1, 65, 0
3, 59220, Note_on_c, 1, 62, 86
3, 59236, Note_on_c, 1, 62, 0
3, 59280, Note_on_c, 1, 48, 70
3, 59280, Note_on_c, 1, 55, 95
3, 59280, Note_on_c, 1, 36, 82
3, 59287, Control_c, 1, 64, 0
3, 59319, Control_c, 1, 64, 127
3, 59338, Note_on_c, 1, 55, 0
3, 59340, Note_on_c, 1, 60, 86
3, 59394, Note_on_c, 1, 60, 0
3, 59400, Note_on_c, 1, 64, 90
3, 59460, Note_on_c, 1, 60, 90
3, 59463, Note_on_c, 1, 64, 0
3, 59520, Note_on_c, 1, 64, 99
3, 59521, Note_on_c, 1, 60, 0
3, 59574, Note_on_c, 1, 48, 0
3, 59580, Note_on_c, 1, 36, 0
3, 59580, Note_on_c, 1, 60, 95
3, 59582, Note_on_c, 1, 64, 0
3, 59632, Note_on_c, 1, 60, 0
3, 59640, Note_on_c, 1, 55, 90
3, 59640, Note_on_c, 1, 35, 78
3, 59640, Note_on_c, 1, 47, 67
3, 59648, Control_c, 1, 64, 0
3, 59680, Control_c, 1, 64, 127
3, 59700, Note_on_c, 1, 62, 95
3, 59701, Note_on_c, 1, 55, 0
3, 59757, Note_on_c, 1, 62, 0
3, 59760, Note_on_c, 1, 65, 95
3, 59820, Note_on_c, 1, 65, 0
3, 59820, Note_on_c, 1, 62, 99
3, 59876, Note_on_c, 1, 62, 0
3, 59880, Note_on_c, 1, 65, 103
3, 59915, Note_on_c, 1, 35, 0
3, 59925, Note_on_c, 1, 47, 0
3, 59940, Note_on_c, 1, 65, 0
3, 59940, Note_on_c, 1, 62, 99
3, 59955, Note_on_c, 1, 62, 0
3, 60000, Note_on_c, 1, 55, 90
3, 60000, Note_on_c, 1, 36, 86
3, 60000, Note_on_c, 1, 48, 82
3, 60008, Control_c, 1, 64, 0
3, 60039, Control_c, 1, 64, 127
3, 60060, Note_on_c, 1, 60, 86
3, 60063, Note_on_c, 1, 55, 0
3, 60115, Note_on_c, 1, 60, 0
3, 60120, Note_on_c, 1, 64, 90
3, 60180, Note_on_c, 1, 60, 90
3, 60181, Note_on_c, 1, 64, 0
3, 60240, Note_on_c, 1, 64, 103
3, 60242, Note_on_c, 1, 60, 0
3, 60256, Note_on_c, 1, 36, 0
3, 60273, Note_on_c, 1, 48, 0
3, 60299, Note_on_c, 1, 64, 0
3, 60300, Note_on_c, 1, 60, 95
3, 60357, Note_on_c, 1, 60, 0
3, 60360, Note_on_c, 1, 53, 74
3, 60360, Note_on_c, 1, 57, 99
3, 60360, Note_on_c, 1, 41, 78
3, 60370, Control_c, 1, 64, 0
3, 60400, Control_c, 1, 64, 127
3, 60418, Note_on_c, 1, 57, 0
3, 60420, Note_on_c, 1, 60, 86
3, 60476, Note_on_c, 1, 60, 0
3, 60480, Note_on_c, 1, 65, 90
3, 60510, Note_on_c, 1, 53, 0
3, 60518, Note_on_c, 1, 41, 0
3, 60540, Note_on_c, 1, 60, 99
3, 60543, Note_on_c, 1, 65, 0
3, 60597, Note_on_c, 1, 60, 0
3, 60599, Control_c, 1, 64, 0
3, 60600, Note_on_c, 1, 52, 90
3, 60600, Note_on_c, 1, 40, 86
3, 60600, Note_on_c, 1, 55, 90
3, 60624, Control_c, 1, 64, 127
3, 60648, Note_on_c, 1, 55, 0
3, 60655, Note_on_c, 1, 52, 0
3, 60659, Note_on_c, 1, 40, 0
3, 60660, Note_on_c, 1, 60, 90
3, 60673, Note_on_c, 1, 60, 0
3, 60720, Note_on_c, 1, 50, 99
3, 60720, Note_on_c, 1, 38, 99
3, 60723, Control_c, 1, 64, 0
3, 60747, Control_c, 1, 64, 127
3, 60780, Note_on_c, 1, 59, 99
3, 60780, Note_on_c, 1, 50, 62
3, 60787, Note_on_c, 1, 50, 0
3, 60805, Note_on_c, 1, 50, 0
3, 60834, Note_on_c, 1, 59, 0
3, 60840, Note_on_c, 1, 50, 86
3, 60880, Note_on_c, 1, 38, 0
3, 60891, Note_on_c, 1, 50, 0
3, 60900, Note_on_c, 1, 59, 95
3, 60919, Note_on_c, 1, 59, 0
3, 60955, Control_c, 1, 64, 0
3, 60960, Note_on_c, 1, 52, 90
3, 60960, Note_on_c, 1, 36, 74
3, 60960, Note_on_c, 1, 48, 82
3, 60979, Control_c, 1, 64, 127
3, 60994, Note_on_c, 1, 36, 0
3, 61014, Note_on_c, 1, 52, 0
3, 61020, Note_on_c, 1, 60, 99
3, 61023, Note_on_c, 1, 48, 0
3, 61035, Note_on_c, 1, 60, 0
3, 61080, Note_on_c, 1, 53, 82
3, 61080, Note_on_c, 1, 57, 103
3, 61088, Control_c, 1, 64, 127
3, 61131, Note_on_c, 1, 57, 0
3, 61140, Note_on_c, 1, 62, 99
3, 61160, Note_on_c, 1, 62, 0
3, 61176, Note_on_c, 1, 53, 0
3, 61198, Control_c, 1, 64, 0
3, 61200, Note_on_c, 1, 60, 95
3, 61200, Note_on_c, 1, 55, 90
3, 61226, Control_c, 1, 64, 127
3, 61260, Note_on_c, 1, 60, 0
3, 61260, Note_on_c, 1, 64, 95
3, 61287, Note_on_c, 1, 55, 0
3, 61288, Note_on_c, 1, 64, 0
3, 61320, Note_on_c, 1, 62, 90
3, 61320, Note_on_c, 1, 43, 82
3, 61320, Control_c, 1, 64, 0
3, 61345, Control_c, 1, 64, 127
3, 61373, Note_on_c, 1, 62, 0
3, 61380, Note_on_c, 1, 65, 95
3, 61382, Note_on_c, 1, 43, 0
3, 61403, Note_on_c, 1, 65, 0
3, 61433, Control_c, 1, 64, 0
3, 61440, Note_on_c, 1, 64, 95
3, 61440, Note_on_c, 1, 60, 90
3, 61440, Note_on_c, 1, 48, 82
3, 61460, Control_c, 1, 64, 127
3, 61560, Note_on_c, 1, 43, 86
3, 61565, Control_c, 1, 64, 0
3, 61568, Note_on_c, 1, 48, 0
3, 61591, Control_c, 1, 64, 127
3, 61673, Note_on_c, 1, 43, 0
3, 61677, Control_c, 1, 64, 0
3, 61680, Note_on_c, 1, 36, 86
3, 61696, Control_c, 1, 64, 127
3, 61748, Note_on_c, 1, 36, 0
3, 61752, Note_on_c, 1, 60, 0
3, 61753, Note_on_c, 1, 64, 0
3, 61795, Control_c, 1, 64, 0
3, 63240, Note_on_c, 1, 48, 66
3, 63240, Note_on_c, 1, 55, 78
3, 63240, Note_on_c, 1, 36, 69
3, 63254, Control_c, 1, 64, 127
3, 63299, Note_on_c, 1, 55, 0
3, 63300, Note_on_c, 1, 64, 70
3, 63345, Note_on_c, 1, 64, 0
3, 63360, Note_on_c, 1, 60, 72
3, 63417, Note_on_c, 1, 60, 0
3, 63420, Note_on_c, 1, 64, 72
3, 63468, Note_on_c, 1, 64, 0
3, 63480, Note_on_c, 1, 55, 72
3, 63532, Note_on_c, 1, 55, 0
3, 63540, Note_on_c, 1, 64, 70
3, 63546, Note_on_c, 1, 36, 0
3, 63547, Note_on_c, 1, 48, 0
3, 63570, Note_on_c, 1, 64, 0
3, 63600, Note_on_c, 1, 47, 66
3, 63600, Note_on_c, 1, 55, 74
3, 63600, Note_on_c, 1, 35, 72
3, 63609, Control_c, 1, 64, 0
3, 63639, Control_c, 1, 64, 127
3, 63656, Note_on_c, 1, 55, 0
3, 63660, Note_on_c, 1, 62, 86
3, 63699, Note_on_c, 1, 62, 0
3, 63720, Note_on_c, 1, 59, 82
3, 63780, Note_on_c, 1, 62, 82
3, 63781, Note_on_c, 1, 59, 0
3, 63826, Note_on_c, 1, 62, 0
3, 63840, Note_on_c, 1, 55, 74
3, 63859, Note_on_c, 1, 35, 0
3, 63886, Note_on_c, 1, 55, 0
3, 63887, Note_on_c, 1, 47, 0
3, 63900, Note_on_c, 1, 62, 74
3, 63939, Note_on_c, 1, 62, 0
3, 63960, Note_on_c, 1, 54, 70
3, 63960, Note_on_c, 1, 45, 72
3, 63960, Control_c, 1, 64, 0
3, 63986, Control_c, 1, 64, 127
3, 64019, Note_on_c, 1, 54, 0
3, 64020, Note_on_c, 1, 60, 72
3, 64065, Note_on_c, 1, 60, 0
3, 64080, Note_on_c, 1, 57, 82
3, 64136, Note_on_c, 1, 57, 0
3, 64140, Note_on_c, 1, 60, 70
3, 64188, Note_on_c, 1, 60, 0
3, 64200, Note_on_c, 1, 54, 78
3, 64234, Note_on_c, 1, 45, 0
3, 64240, Note_on_c, 1, 54, 0
3, 64260, Note_on_c, 1, 60, 86
3, 64275, Note_on_c, 1, 60, 0
3, 64311, Control_c, 1, 64, 0
3, 64320, Note_on_c, 1, 60, 95
3, 64320, Note_on_c, 1, 42, 74
3, 64320, Note_on_c, 1, 50, 86
3, 64341, Control_c, 1, 64, 127
3, 64585, Note_on_c, 1, 50, 0
3, 64593, Note_on_c, 1, 60, 0
3, 64595, Note_on_c, 1, 42, 0
3, 64680, Note_on_c, 1, 59, 66
3, 64680, Note_on_c, 1, 43, 74
3, 64684, Control_c, 1, 64, 0
3, 64710, Control_c, 1, 64, 127
3, 64740, Note_on_c, 1, 59, 0
3, 64740, Note_on_c, 1, 67, 95
3, 64770, Note_on_c, 1, 67, 0
3, 64774, Note_on_c, 1, 43, 0
3, 64800, Note_on_c, 1, 60, 86
3, 64800, Note_on_c, 1, 45, 82
3, 64806, Control_c, 1, 64, 0
3, 64830, Control_c, 1, 64, 127
3, 64855, Note_on_c, 1, 60, 0
3, 64860, Note_on_c, 1, 67, 86
3, 64884, Note_on_c, 1, 45, 0
3, 64899, Note_on_c, 1, 67, 0
3, 64920, Note_on_c, 1, 47, 74
3, 64920, Note_on_c, 1, 62, 99
3, 64923, Control_c, 1, 64, 0
3, 64947, Control_c, 1, 64, 127
3, 64979, Note_on_c, 1, 62, 0
3, 64980, Note_on_c, 1, 67, 90
3, 65002, Note_on_c, 1, 67, 0
3, 65005, Note_on_c, 1, 47, 0
3, 65040, Note_on_c, 1, 64, 99
3, 65040, Note_on_c, 1, 48, 72
3, 65046, Control_c, 1, 64, 0
3, 65069, Control_c, 1, 64, 127
3, 65096, Note_on_c, 1, 64, 0
3, 65100, Note_on_c, 1, 60, 82
3, 65147, Note_on_c, 1, 48, 0
3, 65154, Control_c, 1, 64, 0
3, 65160, Note_on_c, 1, 59, 86
3, 65160, Note_on_c, 1, 50, 82
3, 65161, Note_on_c, 1, 60, 0
3, 65178, Control_c, 1, 64, 127
3, 65217, Note_on_c, 1, 59, 0
3, 65229, Note_on_c, 1, 50, 0
3, 65280, Note_on_c, 1, 60, 82
3, 65280, Note_on_c, 1, 57, 86
3, 65280, Control_c, 1, 64, 0
3, 65280, Note_on_c, 1, 38, 72
3, 65304, Control_c, 1, 64, 127
3, 65329, Note_on_c, 1, 57, 0
3, 65330, Note_on_c, 1, 60, 0
3, 65332, Note_on_c, 1, 38, 0
3, 65400, Note_on_c, 1, 55, 82
3, 65400, Note_on_c, 1, 43, 74
3, 65400, Note_on_c, 1, 59, 78
3, 65409, Control_c, 1, 64, 0
3, 65438, Control_c, 1, 64, 127
3, 65516, Note_on_c, 1, 43, 0
3, 65520, Note_on_c, 1, 38, 78
3, 65523, Control_c, 1, 64, 0
3, 65546, Control_c, 1, 64, 127
3, 65635, Note_on_c, 1, 38, 0
3, 65640, Note_on_c, 1, 31, 72
3, 65642, Control_c, 1, 64, 0
3, 65661, Control_c, 1, 64, 127
3, 65681, Note_on_c, 1, 31, 0
3, 65681, Note_on_c, 1, 59, 0
3, 65684, Note_on_c, 1, 55, 0
3, 65741, Control_c, 1, 64, 0
3, 65760, Note_on_c, 1, 43, 86
3, 65774, Control_c, 1, 64, 127
3, 65818, Note_on_c, 1, 43, 0
3, 65820, Note_on_c, 1, 47, 90
3, 65850, Note_on_c, 1, 50, 95
3, 65855, Note_on_c, 1, 47, 0
3, 65859, Control_c, 1, 64, 0
3, 65876, Note_on_c, 1, 50, 0
3, 65880, Note_on_c, 1, 55, 74
3, 65888, Control_c, 1, 64, 127
3, 65932, Note_on_c, 1, 55, 0
3, 65940, Note_on_c, 1, 55, 86
3, 65971, Note_on_c, 1, 55, 0
3, 66000, Note_on_c, 1, 55, 90
3, 66050, Note_on_c, 1, 55, 0
3, 66060, Note_on_c, 1, 53, 74
3, 66095, Note_on_c, 1, 53, 0
3, 66120, Note_on_c, 1, 52, 78
3, 66120, Note_on_c, 1, 55, 90
3, 66122, Control_c, 1, 64, 0
3, 66156, Control_c, 1, 64, 127
3, 66174, Note_on_c, 1, 55, 0
3, 66180, Note_on_c, 1, 60, 74
3, 66207, Note_on_c, 1, 60, 0
3, 66210, Note_on_c, 1, 64, 78
3, 66225, Control_c, 1, 64, 0
3, 66236, Note_on_c, 1, 64, 0
3, 66240, Note_on_c, 1, 67, 86
3, 66245, Control_c, 1, 64, 127
3, 66279, Note_on_c, 1, 67, 0
3, 66300, Note_on_c, 1, 67, 74
3, 66328, Note_on_c, 1, 67, 0
3, 66342, Note_on_c, 1, 52, 0
3, 66360, Note_on_c, 1, 67, 86
3, 66360, Note_on_c, 1, 47, 86
3, 66361, Control_c, 1, 64, 0
3, 66383, Control_c, 1, 64, 127
3, 66414, Note_on_c, 1, 67, 0
3, 66420, Note_on_c, 1, 65, 90
3, 66439, Note_on_c, 1, 47, 0
3, 66448, Note_on_c, 1, 65, 0
3, 66480, Note_on_c, 1, 60, 78
3, 66480, Control_c, 1, 64, 0
3, 66480, Note_on_c, 1, 64, 86
3, 66480, Note_on_c, 1, 48, 86
3, 66501, Control_c, 1, 64, 127
3, 66599, Note_on_c, 1, 60, 0
3, 66600, Note_on_c, 1, 64, 0
3, 66601, Note_on_c, 1, 48, 0
3, 66612, Control_c, 1, 64, 0
3, 66840, Note_on_c, 1, 53, 72
3, 66840, Note_on_c, 1, 65, 86
3, 66840, Note_on_c, 1, 69, 78
3, 66855, Control_c, 1, 64, 127
3, 66891, Note_on_c, 1, 69, 0
3, 66894, Note_on_c, 1, 65, 0
3, 66900, Note_on_c, 1, 64, 74
3, 66900, Note_on_c, 1, 67, 86
3, 66955, Note_on_c, 1, 64, 0
3, 66956, Note_on_c, 1, 67, 0
3, 66957, Control_c, 1, 64, 0
3, 66960, Note_on_c, 1, 65, 90
3, 66960, Note_on_c, 1, 62, 86
3, 66978, Control_c, 1, 64, 127
3, 66980, Note_on_c, 1, 65, 0
3, 66988, Note_on_c, 1, 62, 0
3, 67020, Note_on_c, 1, 64, 90
3, 67020, Note_on_c, 1, 60, 86
3, 67023, Note_on_c, 1, 53, 0
3, 67046, Note_on_c, 1, 60, 0
3, 67047, Note_on_c, 1, 64, 0
3, 67078, Control_c, 1, 64, 0
3, 67080, Note_on_c, 1, 54, 82
3, 67080, Note_on_c, 1, 62, 86
3, 67080, Note_on_c, 1, 59, 90
3, 67104, Control_c, 1, 64, 127
3, 67123, Note_on_c, 1, 59, 0
3, 67128, Note_on_c, 1, 62, 0
3, 67140, Note_on_c, 1, 64, 86
3, 67140, Note_on_c, 1, 60, 86
3, 67152, Note_on_c, 1, 54, 0
3, 67161, Note_on_c, 1, 60, 0
3, 67164, Note_on_c, 1, 64, 0
3, 67189, Control_c, 1, 64, 0
3, 67200, Note_on_c, 1, 64, 86
3, 67200, Note_on_c, 1, 60, 78
3, 67200, Note_on_c, 1, 55, 72
3, 67212, Control_c, 1, 64, 127
3, 67258, Note_on_c, 1, 55, 0
3, 67260, Note_on_c, 1, 43, 66
3, 67277, Note_on_c, 1, 64, 0
3, 67285, Note_on_c, 1, 60, 0
3, 67311, Note_on_c, 1, 43, 0
3, 67320, Note_on_c, 1, 59, 74
3, 67320, Note_on_c, 1, 62, 74
3, 67320, Note_on_c, 1, 55, 72
3, 67329, Control_c, 1, 64, 0
3, 67354, Control_c, 1, 64, 127
3, 67380, Note_on_c, 1, 53, 82
3, 67382, Note_on_c, 1, 55, 0
3, 67440, Note_on_c, 1, 52, 82
3, 67442, Note_on_c, 1, 53, 0
3, 67449, Control_c, 1, 64, 0
3, 67470, Note_on_c, 1, 62, 0
3, 67473, Note_on_c, 1, 59, 0
3, 67491, Control_c, 1, 64, 127
3, 67492, Note_on_c, 1, 52, 0
3, 67500, Note_on_c, 1, 50, 86
3, 67557, Note_on_c, 1, 50, 0
3, 67560, Note_on_c, 1, 55, 78
3, 67560, Note_on_c, 1, 48, 69
3, 67560, Note_on_c, 1, 36, 74
3, 67566, Control_c, 1, 64, 127
3, 67616, Note_on_c, 1, 55, 0
3, 67620, Note_on_c, 1, 60, 82
3, 67677, Note_on_c, 1, 60, 0
3, 67680, Note_on_c, 1, 64, 82
3, 67737, Note_on_c, 1, 64, 0
3, 67740, Note_on_c, 1, 60, 72
3, 67800, Note_on_c, 1, 64, 86
3, 67805, Note_on_c, 1, 60, 0
3, 67844, Note_on_c, 1, 48, 0
3, 67845, Note_on_c, 1, 36, 0
3, 67860, Note_on_c, 1, 60, 82
3, 67861, Note_on_c, 1, 64, 0
3, 67913, Note_on_c, 1, 60, 0
3, 67920, Note_on_c, 1, 55, 86
3, 67920, Note_on_c, 1, 35, 70
3, 67920, Note_on_c, 1, 47, 63
3, 67931, Control_c, 1, 64, 0
3, 67966, Control_c, 1, 64, 127
3, 67980, Note_on_c, 1, 62, 72
3, 67985, Note_on_c, 1, 55, 0
3, 68029, Note_on_c, 1, 62, 0
3, 68040, Note_on_c, 1, 65, 74
3, 68095, Note_on_c, 1, 65, 0
3, 68100, Note_on_c, 1, 62, 78
3, 68155, Note_on_c, 1, 62, 0
3, 68160, Note_on_c, 1, 65, 74
3, 68176, Note_on_c, 1, 35, 0
3, 68193, Note_on_c, 1, 47, 0
3, 68220, Note_on_c, 1, 65, 0
3, 68220, Note_on_c, 1, 62, 86
3, 68240, Note_on_c, 1, 62, 0
3, 68280, Note_on_c, 1, 55, 86
3, 68280, Note_on_c, 1, 48, 65
3, 68280, Note_on_c, 1, 36, 72
3, 68292, Control_c, 1, 64, 0
3, 68326, Control_c, 1, 64, 127
3, 68340, Note_on_c, 1, 60, 78
3, 68344, Note_on_c, 1, 55, 0
3, 68399, Note_on_c, 1, 60, 0
3, 68400, Note_on_c, 1, 64, 82
3, 68459, Note_on_c, 1, 64, 0
3, 68460, Note_on_c, 1, 60, 74
3, 68516, Note_on_c, 1, 60, 0
3, 68520, Note_on_c, 1, 64, 86
3, 68567, Note_on_c, 1, 48, 0
3, 68569, Note_on_c, 1, 36, 0
3, 68577, Note_on_c, 1, 64, 0
3, 68580, Note_on_c, 1, 60, 78
3, 68595, Note_on_c, 1, 60, 0
3, 68640, Note_on_c, 1, 55, 78
3, 68640, Note_on_c, 1, 47, 66
3, 68640, Note_on_c, 1, 35, 70
3, 68647, Control_c, 1, 64, 0
3, 68681, Control_c, 1, 64, 127
3, 68700, Note_on_c, 1, 62, 72
3, 68701, Note_on_c, 1, 55, 0
3, 68754, Note_on_c, 1, 62, 0
3, 68760, Note_on_c, 1, 65, 86
3, 68814, Note_on_c, 1, 65, 0
3, 68820, Note_on_c, 1, 62, 82
3, 68871, Note_on_c, 1, 62, 0
3, 68880, Note_on_c, 1, 65, 78
3, 68899, Note_on_c, 1, 35, 0
3, 68910, Note_on_c, 1, 47, 0
3, 68935, Note_on_c, 1, 65, 0
3, 68940, Note_on_c, 1, 62, 82
3, 68956, Note_on_c, 1, 62, 0
3, 69000, Note_on_c, 1, 55, 78
3, 69000, Note_on_c, 1, 48, 67
3, 69000, Note_on_c, 1, 36, 70
3, 69006, Control_c, 1, 64, 0
3, 69038, Control_c, 1, 64, 127
3, 69057, Note_on_c, 1, 55, 0
3, 69060, Note_on_c, 1, 60, 74
3, 69112, Note_on_c, 1, 60, 0
3, 69120, Note_on_c, 1, 64, 86
3, 69180, Note_on_c, 1, 60, 78
3, 69181, Note_on_c, 1, 64, 0
3, 69239, Note_on_c, 1, 36, 0
3, 69240, Note_on_c, 1, 60, 0
3, 69240, Note_on_c, 1, 64, 86
3, 69262, Note_on_c, 1, 48, 0
3, 69300, Note_on_c, 1, 60, 86
3, 69302, Note_on_c, 1, 64, 0
3, 69355, Note_on_c, 1, 60, 0
3, 69360, Note_on_c, 1, 53, 69
3, 69360, Note_on_c, 1, 57, 82
3, 69360, Note_on_c, 1, 41, 67
3, 69364, Control_c, 1, 64, 0
3, 69394, Control_c, 1, 64, 127
3, 69419, Note_on_c, 1, 57, 0
3, 69420, Note_on_c, 1, 60, 70
3, 69478, Note_on_c, 1, 60, 0
3, 69480, Note_on_c, 1, 65, 90
3, 69498, Note_on_c, 1, 41, 0
3, 69498, Note_on_c, 1, 53, 0
3, 69540, Note_on_c, 1, 65, 0
3, 69540, Note_on_c, 1, 60, 90
3, 69594, Control_c, 1, 64, 0
3, 69597, Note_on_c, 1, 60, 0
3, 69600, Note_on_c, 1, 40, 74
3, 69600, Note_on_c, 1, 52, 70
3, 69600, Note_on_c, 1, 55, 86
3, 69619, Control_c, 1, 64, 127
3, 69648, Note_on_c, 1, 52, 0
3, 69649, Note_on_c, 1, 55, 0
3, 69651, Note_on_c, 1, 40, 0
3, 69660, Note_on_c, 1, 60, 70
3, 69670, Note_on_c, 1, 60, 0
3, 69720, Note_on_c, 1, 38, 90
3, 69720, Note_on_c, 1, 50, 90
3, 69731, Control_c, 1, 64, 0
3, 69764, Control_c, 1, 64, 127
3, 69780, Note_on_c, 1, 59, 78
3, 69799, Note_on_c, 1, 50, 0
3, 69836, Note_on_c, 1, 59, 0
3, 69840, Note_on_c, 1, 50, 74
3, 69888, Note_on_c, 1, 38, 0
3, 69890, Note_on_c, 1, 50, 0
3, 69900, Note_on_c, 1, 59, 86
3, 69935, Note_on_c, 1, 59, 0
3, 69960, Note_on_c, 1, 52, 90
3, 69960, Note_on_c, 1, 36, 74
3, 69960, Note_on_c, 1, 48, 66
3, 69960, Control_c, 1, 64, 0
3, 69983, Control_c, 1, 64, 127
3, 70010, Note_on_c, 1, 36, 0
3, 70015, Note_on_c, 1, 52, 0
3, 70020, Note_on_c, 1, 60, 95
3, 70021, Note_on_c, 1, 48, 0
3, 70033, Note_on_c, 1, 60, 0
3, 70080, Note_on_c, 1, 53, 95
3, 70080, Note_on_c, 1, 57, 74
3, 70093, Control_c, 1, 64, 0
3, 70117, Control_c, 1, 64, 127
3, 70137, Note_on_c, 1, 57, 0
3, 70140, Note_on_c, 1, 62, 95
3, 70190, Note_on_c, 1, 62, 0
3, 70199, Note_on_c, 1, 53, 0
3, 70200, Note_on_c, 1, 55, 72
3, 70200, Note_on_c, 1, 60, 90
3, 70203, Control_c, 1, 64, 0
3, 70227, Control_c, 1, 64, 127
3, 70260, Note_on_c, 1, 64, 90
3, 70263, Note_on_c, 1, 60, 0
3, 70314, Note_on_c, 1, 64, 0
3, 70316, Note_on_c, 1, 55, 0
3, 70320, Note_on_c, 1, 43, 82
3, 70320, Note_on_c, 1, 62, 86
3, 70329, Control_c, 1, 64, 0
3, 70353, Control_c, 1, 64, 127
3, 70370, Note_on_c, 1, 62, 0
3, 70380, Note_on_c, 1, 65, 78
3, 70392, Note_on_c, 1, 43, 0
3, 70412, Note_on_c, 1, 65, 0
3, 70436, Control_c, 1, 64, 0
3, 70440, Note_on_c, 1, 64, 78
3, 70440, Note_on_c, 1, 60, 86
3, 70440, Note_on_c, 1, 48, 74
3, 70458, Control_c, 1, 64, 127
3, 70560, Note_on_c, 1, 43, 82
3, 70567, Control_c, 1, 64, 0
3, 70568, Note_on_c, 1, 48, 0
3, 70588, Control_c, 1, 64, 127
3, 70680, Note_on_c, 1, 36, 78
3, 70681, Note_on_c, 1, 43, 0
3, 70683, Control_c, 1, 64, 0
3, 70700, Control_c, 1, 64, 127
3, 70724, Note_on_c, 1, 36, 0
3, 70734, Note_on_c, 1, 60, 0
3, 70737, Note_on_c, 1, 64, 0
3, 70798, Control_c, 1, 64, 0
3, 70800, Note_on_c, 1, 41, 72
3, 70800, Note_on_c, 1, 53, 70
3, 70800, Note_on_c, 1, 57, 86
3, 70852, Control_c, 1, 64, 127
3, 70860, Note_on_c, 1, 65, 78
3, 70861, Note_on_c, 1, 57, 0
3, 70908, Note_on_c, 1, 65, 0
3, 70920, Note_on_c, 1, 60, 82
3, 70976, Note_on_c, 1, 60, 0
3, 70980, Note_on_c, 1, 65, 78
3, 71036, Note_on_c, 1, 65, 0
3, 71040, Note_on_c, 1, 57, 72
3, 71043, Note_on_c, 1, 53, 0
3, 71054, Note_on_c, 1, 41, 0
3, 71099, Note_on_c, 1, 57, 0
3, 71100, Note_on_c, 1, 65, 90
3, 71144, Note_on_c, 1, 65, 0
3, 71160, Note_on_c, 1, 58, 78
3, 71160, Note_on_c, 1, 48, 63
3, 71160, Note_on_c, 1, 36, 72
3, 71175, Control_c, 1, 64, 0
3, 71219, Control_c, 1, 64, 127
3, 71220, Note_on_c, 1, 64, 86
3, 71223, Note_on_c, 1, 58, 0
3, 71280, Note_on_c, 1, 60, 82
3, 71281, Note_on_c, 1, 64, 0
3, 71340, Note_on_c, 1, 64, 86
3, 71341, Note_on_c, 1, 60, 0
3, 71396, Note_on_c, 1, 64, 0
3, 71400, Note_on_c, 1, 58, 72
3, 71452, Note_on_c, 1, 58, 0
3, 71457, Note_on_c, 1, 36, 0
3, 71460, Note_on_c, 1, 64, 82
3, 71462, Note_on_c, 1, 48, 0
3, 71487, Note_on_c, 1, 64, 0
3, 71520, Note_on_c, 1, 48, 78
3, 71520, Note_on_c, 1, 58, 74
3, 71520, Note_on_c, 1, 36, 70
3, 71526, Control_c, 1, 64, 0
3, 71562, Control_c, 1, 64, 127
3, 71571, Note_on_c, 1, 58, 0
3, 71580, Note_on_c, 1, 64, 78
3, 71628, Note_on_c, 1, 64, 0
3, 71640, Note_on_c, 1, 60, 82
3, 71695, Note_on_c, 1, 60, 0
3, 71700, Note_on_c, 1, 64, 82
3, 71754, Note_on_c, 1, 64, 0
3, 71760, Note_on_c, 1, 58, 86
3, 71771, Note_on_c, 1, 36, 0
3, 71788, Note_on_c, 1, 48, 0
3, 71805, Note_on_c, 1, 58, 0
3, 71820, Note_on_c, 1, 64, 78
3, 71875, Note_on_c, 1, 64, 0
3, 71880, Note_on_c, 1, 57, 86
3, 71880, Note_on_c, 1, 53, 72
3, 71880, Note_on_c, 1, 41, 72
3, 71888, Control_c, 1, 64, 0
3, 71933, Control_c, 1, 64, 127
3, 71940, Note_on_c, 1, 65, 74
3, 71942, Note_on_c, 1, 57, 0
3, 71969, Note_on_c, 1, 65, 0
3, 72000, Note_on_c, 1, 60, 86
3, 72060, Note_on_c, 1, 65, 78
3, 72062, Note_on_c, 1, 60, 0
3, 72110, Note_on_c, 1, 65, 0
3, 72120, Note_on_c, 1, 57, 82
3, 72177, Note_on_c, 1, 41, 0
3, 72178, Note_on_c, 1, 57, 0
3, 72180, Note_on_c, 1, 65, 86
3, 72182, Note_on_c, 1, 53, 0
3, 72202, Note_on_c, 1, 65, 0
3, 72234, Control_c, 1, 64, 0
3, 72240, Note_on_c, 1, 41, 86
3, 72240, Note_on_c, 1, 53, 82
3, 72240, Note_on_c, 1, 65, 103
3, 72240, Note_on_c, 1, 57, 95
3, 72261, Control_c, 1, 64, 127
3, 72307, Note_on_c, 1, 57, 0
3, 72307, Note_on_c, 1, 65, 0
3, 72318, Note_on_c, 1, 53, 0
3, 72319, Note_on_c, 1, 41, 0
3, 72342, Control_c, 1, 64, 0
3, 72480, Note_on_c, 1, 65, 103
3, 72480, Note_on_c, 1, 57, 99
3, 72480, Note_on_c, 1, 41, 78
3, 72480, Note_on_c, 1, 53, 70
3, 72483, Control_c, 1, 64, 127
3, 72514, Note_on_c, 1, 53, 0
3, 72517, Note_on_c, 1, 41, 0
3, 72518, Note_on_c, 1, 65, 0
3, 72525, Note_on_c, 1, 57, 0
3, 72574, Control_c, 1, 64, 0
3, 72600, Note_on_c, 1, 64, 95
3, 72600, Note_on_c, 1, 55, 86
3, 72600, Note_on_c, 1, 36, 78
3, 72600, Note_on_c, 1, 48, 74
3, 72619, Control_c, 1, 64, 127
3, 72662, Note_on_c, 1, 48, 0
3, 72663, Note_on_c, 1, 36, 0
3, 72664, Note_on_c, 1, 64, 0
3, 72665, Note_on_c, 1, 55, 0
3, 72706, Control_c, 1, 64, 0
3, 72840, Note_on_c, 1, 36, 78
3, 72840, Note_on_c, 1, 64, 99
3, 72840, Note_on_c, 1, 55, 99
3, 72840, Note_on_c, 1, 48, 86
3, 72854, Control_c, 1, 64, 127
3, 72863, Note_on_c, 1, 36, 0
3, 72874, Note_on_c, 1, 64, 0
3, 72876, Note_on_c, 1, 48, 0
3, 72877, Note_on_c, 1, 55, 0
3, 72957, Control_c, 1, 64, 0
3, 72960, Note_on_c, 1, 62, 90
3, 72960, Note_on_c, 1, 65, 95
3, 72960, Note_on_c, 1, 53, 90
3, 72994, Control_c, 1, 64, 127
3, 73016, Note_on_c, 1, 65, 0
3, 73024, Note_on_c, 1, 62, 0
3, 73025, Note_on_c, 1, 53, 0
3, 73074, Control_c, 1, 64, 0
3, 73080, Note_on_c, 1, 64, 90
3, 73080, Note_on_c, 1, 60, 86
3, 73080, Note_on_c, 1, 55, 90
3, 73107, Control_c, 1, 64, 127
3, 73129, Note_on_c, 1, 64, 0
3, 73136, Note_on_c, 1, 60, 0
3, 73153, Note_on_c, 1, 55, 0
3, 73200, Note_on_c, 1, 43, 82
3, 73200, Note_on_c, 1, 62, 99
3, 73200, Note_on_c, 1, 59, 99
3, 73201, Control_c, 1, 64, 0
3, 73232, Control_c, 1, 64, 127
3, 73243, Note_on_c, 1, 43, 0
3, 73252, Note_on_c, 1, 59, 0
3, 73252, Note_on_c, 1, 62, 0
3, 73320, Note_on_c, 1, 48, 86
3, 73320, Note_on_c, 1, 59, 108
3, 73320, Note_on_c, 1, 62, 103
3, 73357, Control_c, 1, 64, 127
3, 73372, Note_on_c, 1, 59, 0
3, 73374, Note_on_c, 1, 62, 0
3, 73380, Note_on_c, 1, 60, 78
3, 73380, Note_on_c, 1, 64, 99
3, 73426, Control_c, 1, 64, 0
3, 73432, Note_on_c, 1, 48, 0
3, 73440, Note_on_c, 1, 43, 82
3, 73475, Control_c, 1, 64, 127
3, 73555, Note_on_c, 1, 43, 0
3, 73560, Control_c, 1, 64, 0
3, 73560, Note_on_c, 1, 36, 74
3, 73585, Control_c, 1, 64, 127
3, 73605, Note_on_c, 1, 64, 0
3, 73606, Note_on_c, 1, 60, 0
3, 73610, Note_on_c, 1, 36, 0
3, 73678, Control_c, 1, 64, 0
3, 73680, Note_on_c, 1, 60, 90
3, 73680, Note_on_c, 1, 41, 78
3, 73680, Note_on_c, 1, 53, 72
3, 73734, Control_c, 1, 64, 127
3, 73800, Note_on_c, 1, 60, 0
3, 73800, Note_on_c, 1, 65, 95
3, 73815, Note_on_c, 1, 41, 0
3, 73828, Note_on_c, 1, 53, 0
3, 73876, Note_on_c, 1, 65, 0
3, 73920, Note_on_c, 1, 45, 82
3, 73920, Note_on_c, 1, 64, 99
3, 73920, Note_on_c, 1, 57, 72
3, 73927, Control_c, 1, 64, 0
3, 73961, Control_c, 1, 64, 127
3, 73973, Note_on_c, 1, 45, 0
3, 73989, Note_on_c, 1, 57, 0
3, 74005, Note_on_c, 1, 64, 0
3, 74040, Note_on_c, 1, 64, 99
3, 74040, Note_on_c, 1, 58, 72
3, 74040, Note_on_c, 1, 46, 99
3, 74060, Control_c, 1, 64, 0
3, 74101, Control_c, 1, 64, 127
3, 74160, Note_on_c, 1, 62, 103
3, 74167, Note_on_c, 1, 64, 0
3, 74178, Note_on_c, 1, 46, 0
3, 74182, Note_on_c, 1, 58, 0
3, 74275, Note_on_c, 1, 62, 0
3, 74280, Note_on_c, 1, 60, 99
3, 74280, Note_on_c, 1, 44, 82
3, 74280, Note_on_c, 1, 56, 86
3, 74284, Control_c, 1, 64, 0
3, 74318, Control_c, 1, 64, 127
3, 74331, Note_on_c, 1, 56, 0
3, 74335, Note_on_c, 1, 44, 0
3, 74335, Note_on_c, 1, 60, 0
3, 74400, Note_on_c, 1, 55, 67
3, 74400, Note_on_c, 1, 59, 103
3, 74400, Note_on_c, 1, 43, 69
3, 74408, Control_c, 1, 64, 0
3, 74446, Control_c, 1, 64, 127
3, 74456, Note_on_c, 1, 43, 0
3, 74473, Note_on_c, 1, 55, 0
3, 74477, Note_on_c, 1, 59, 0
3, 74520, Note_on_c, 1, 67, 103
3, 74608, Note_on_c, 1, 67, 0
3, 74640, Note_on_c, 1, 47, 72
3, 74640, Note_on_c, 1, 65, 99
3, 74640, Note_on_c, 1, 59, 78
3, 74642, Control_c, 1, 64, 0
3, 74670, Control_c, 1, 64, 127
3, 74688, Note_on_c, 1, 47, 0
3, 74698, Note_on_c, 1, 59, 0
3, 74698, Note_on_c, 1, 65, 0
3, 74760, Note_on_c, 1, 65, 99
3, 74760, Note_on_c, 1, 48, 86
3, 74760, Note_on_c, 1, 60, 74
3, 74768, Control_c, 1, 64, 0
3, 74799, Control_c, 1, 64, 127
3, 74877, Note_on_c, 1, 60, 0
3, 74878, Note_on_c, 1, 65, 0
3, 74879, Note_on_c, 1, 48, 0
3, 74880, Note_on_c, 1, 64, 103
3, 74929, Note_on_c, 1, 64, 0
3, 75000, Note_on_c, 1, 58, 82
3, 75000, Note_on_c, 1, 46, 99
3, 75000, Note_on_c, 1, 62, 108
3, 75001, Control_c, 1, 64, 0
3, 75035, Control_c, 1, 64, 127
3, 75048, Note_on_c, 1, 62, 0
3, 75057, Note_on_c, 1, 58, 0
3, 75067, Note_on_c, 1, 46, 0
3, 75120, Note_on_c, 1, 61, 108
3, 75120, Note_on_c, 1, 45, 95
3, 75120, Note_on_c, 1, 57, 86
3, 75152, Control_c, 1, 64, 0
3, 75199, Control_c, 1, 64, 127
3, 75237, Note_on_c, 1, 61, 0
3, 75240, Note_on_c, 1, 45, 0
3, 75240, Note_on_c, 1, 69, 112
3, 75249, Note_on_c, 1, 57, 0
3, 75298, Note_on_c, 1, 69, 0
3, 75360, Note_on_c, 1, 61, 82
3, 75360, Note_on_c, 1, 49, 103
3, 75360, Note_on_c, 1, 67, 108
3, 75361, Control_c, 1, 64, 0
3, 75387, Control_c, 1, 64, 127
3, 75401, Note_on_c, 1, 67, 0
3, 75405, Note_on_c, 1, 49, 0
3, 75407, Note_on_c, 1, 61, 0
3, 75480, Note_on_c, 1, 50, 99
3, 75480, Note_on_c, 1, 65, 112
3, 75480, Note_on_c, 1, 62, 86
3, 75483, Control_c, 1, 64, 0
3, 75509, Control_c, 1, 64, 127
3, 75528, Note_on_c, 1, 50, 0
3, 75536, Note_on_c, 1, 65, 0
3, 75540, Note_on_c, 1, 62, 0
3, 75597, Control_c, 1, 64, 0
3, 75600, Note_on_c, 1, 52, 90
3, 75600, Note_on_c, 1, 70, 108
3, 75600, Note_on_c, 1, 64, 95
3, 75622, Control_c, 1, 64, 127
3, 75646, Note_on_c, 1, 52, 0
3, 75652, Note_on_c, 1, 64, 0
3, 75660, Note_on_c, 1, 70, 0
3, 75715, Control_c, 1, 64, 0
3, 75720, Note_on_c, 1, 53, 86
3, 75720, Note_on_c, 1, 69, 108
3, 75720, Note_on_c, 1, 65, 86
3, 75738, Control_c, 1, 64, 127
3, 75749, Note_on_c, 1, 65, 0
3, 75758, Note_on_c, 1, 53, 0
3, 75771, Note_on_c, 1, 69, 0
3, 75840, Note_on_c, 1, 46, 90
3, 75840, Note_on_c, 1, 58, 78
3, 75840, Note_on_c, 1, 69, 103
3, 75851, Control_c, 1, 64, 0
3, 75888, Control_c, 1, 64, 127
3, 75899, Note_on_c, 1, 69, 0
3, 75900, Note_on_c, 1, 67, 99
3, 75960, Note_on_c, 1, 70, 95
3, 75961, Note_on_c, 1, 67, 0
3, 75969, Control_c, 1, 64, 0
3, 75998, Control_c, 1, 64, 127
3, 76014, Note_on_c, 1, 70, 0
3, 76020, Note_on_c, 1, 69, 103
3, 76030, Note_on_c, 1, 46, 0
3, 76032, Note_on_c, 1, 58, 0
3, 76077, Note_on_c, 1, 69, 0
3, 76080, Note_on_c, 1, 67, 103
3, 76080, Note_on_c, 1, 47, 90
3, 76080, Note_on_c, 1, 59, 74
3, 76086, Control_c, 1, 64, 0
3, 76115, Control_c, 1, 64, 127
3, 76140, Note_on_c, 1, 47, 0
3, 76140, Note_on_c, 1, 67, 0
3, 76140, Note_on_c, 1, 65, 103
3, 76146, Note_on_c, 1, 59, 0
3, 76167, Note_on_c, 1, 65, 0
3, 76199, Control_c, 1, 64, 0
3, 76200, Note_on_c, 1, 60, 69
3, 76200, Note_on_c, 1, 65, 99
3, 76223, Control_c, 1, 64, 127
3, 76256, Note_on_c, 1, 65, 0
3, 76260, Note_on_c, 1, 64, 95
3, 76260, Note_on_c, 1, 48, 86
3, 76264, Note_on_c, 1, 60, 0
3, 76274, Control_c, 1, 64, 0
3, 76300, Control_c, 1, 64, 127
3, 76320, Note_on_c, 1, 60, 86
3, 76321, Note_on_c, 1, 48, 0
3, 76332, Control_c, 1, 64, 0
3, 76356, Control_c, 1, 64, 127
3, 76380, Note_on_c, 1, 58, 86
3, 76385, Note_on_c, 1, 60, 0
3, 76389, Control_c, 1, 64, 0
3, 76412, Control_c, 1, 64, 127
3, 76440, Note_on_c, 1, 57, 99
3, 76441, Note_on_c, 1, 58, 0
3, 76448, Note_on_c, 1, 64, 0
3, 76449, Control_c, 1, 64, 0
3, 76499, Note_on_c, 1, 57, 0
3, 76500, Note_on_c, 1, 55, 90
3, 76505, Control_c, 1, 64, 127
3, 76530, Note_on_c, 1, 55, 0
3, 76560, Note_on_c, 1, 57, 86
3, 76560, Note_on_c, 1, 41, 74
3, 76560, Note_on_c, 1, 53, 72
3, 76583, Control_c, 1, 64, 127
3, 76618, Note_on_c, 1, 57, 0
3, 76620, Note_on_c, 1, 65, 82
3, 76670, Note_on_c, 1, 65, 0
3, 76680, Note_on_c, 1, 60, 86
3, 76740, Note_on_c, 1, 60, 0
3, 76740, Note_on_c, 1, 65, 82
3, 76796, Note_on_c, 1, 65, 0
3, 76800, Note_on_c, 1, 57, 82
3, 76811, Note_on_c, 1, 53, 0
3, 76822, Note_on_c, 1, 41, 0
3, 76850, Note_on_c, 1, 57, 0
3, 76860, Note_on_c, 1, 65, 82
3, 76912, Note_on_c, 1, 65, 0
3, 76920, Note_on_c, 1, 58, 82
3, 76920, Note_on_c, 1, 36, 74
3, 76920, Note_on_c, 1, 48, 67
3, 76932, Control_c, 1, 64, 0
3, 76973, Note_on_c, 1, 58, 0
3, 76980, Note_on_c, 1, 64, 90
3, 76985, Control_c, 1, 64, 127
3, 77040, Note_on_c, 1, 64, 0
3, 77040, Note_on_c, 1, 60, 86
3, 77099, Note_on_c, 1, 60, 0
3, 77100, Note_on_c, 1, 64, 90
3, 77156, Note_on_c, 1, 64, 0
3, 77160, Note_on_c, 1, 58, 72
3, 77204, Note_on_c, 1, 48, 0
3, 77207, Note_on_c, 1, 36, 0
3, 77212, Note_on_c, 1, 58, 0
3, 77220, Note_on_c, 1, 64, 78
3, 77269, Note_on_c, 1, 64, 0
3, 77280, Note_on_c, 1, 58, 78
3, 77280, Note_on_c, 1, 36, 72
3, 77280, Note_on_c, 1, 48, 69
3, 77283, Control_c, 1, 64, 0
3, 77315, Control_c, 1, 64, 127
3, 77339, Note_on_c, 1, 58, 0
3, 77340, Note_on_c, 1, 64, 90
3, 77396, Note_on_c, 1, 64, 0
3, 77400, Note_on_c, 1, 60, 90
3, 77456, Note_on_c, 1, 60, 0
3, 77460, Note_on_c, 1, 64, 99
3, 77500, Note_on_c, 1, 36, 0
3, 77516, Note_on_c, 1, 64, 0
3, 77520, Note_on_c, 1, 58, 82
3, 77522, Note_on_c, 1, 48, 0
3, 77570, Note_on_c, 1, 58, 0
3, 77580, Note_on_c, 1, 64, 99
3, 77640, Note_on_c, 1, 41, 78
3, 77640, Note_on_c, 1, 53, 72
3, 77640, Note_on_c, 1, 57, 99
3, 77641, Note_on_c, 1, 64, 0
3, 77642, Control_c, 1, 64, 0
3, 77686, Control_c, 1, 64, 127
3, 77700, Note_on_c, 1, 65, 90
3, 77703, Note_on_c, 1, 57, 0
3, 77741, Note_on_c, 1, 65, 0
3, 77760, Note_on_c, 1, 60, 78
3, 77820, Note_on_c, 1, 60, 0
3, 77820, Note_on_c, 1, 65, 86
3, 77874, Note_on_c, 1, 65, 0
3, 77880, Note_on_c, 1, 57, 78
3, 77917, Note_on_c, 1, 53, 0
3, 77920, Note_on_c, 1, 41, 0
3, 77932, Note_on_c, 1, 57, 0
3, 77940, Note_on_c, 1, 65, 95
3, 77967, Note_on_c, 1, 65, 0
3, 77977, Control_c, 1, 64, 0
3, 78000, Note_on_c, 1, 41, 86
3, 78000, Note_on_c, 1, 58, 90
3, 78000, Note_on_c, 1, 53, 78
3, 78000, Note_on_c, 1, 62, 103
3, 78013, Control_c, 1, 64, 127
3, 78102, Note_on_c, 1, 62, 0
3, 78102, Note_on_c, 1, 58, 0
3, 78103, Control_c, 1, 64, 0
3, 78105, Note_on_c, 1, 53, 0
3, 78108, Note_on_c, 1, 41, 0
3, 78240, Note_on_c, 1, 58, 95
3, 78240, Note_on_c, 1, 62, 103
3, 78240, Note_on_c, 1, 41, 82
3, 78240, Note_on_c, 1, 53, 78
3, 78249, Control_c, 1, 64, 127
3, 78307, Note_on_c, 1, 41, 0
3, 78308, Note_on_c, 1, 58, 0
3, 78308, Note_on_c, 1, 62, 0
3, 78312, Note_on_c, 1, 53, 0
3, 78341, Control_c, 1, 64, 0
3, 78360, Note_on_c, 1, 60, 95
3, 78360, Note_on_c, 1, 57, 103
3, 78360, Note_on_c, 1, 41, 95
3, 78360, Note_on_c, 1, 53, 86
3, 78380, Control_c, 1, 64, 127
3, 78427, Note_on_c, 1, 53, 0
3, 78428, Note_on_c, 1, 41, 0
3, 78429, Note_on_c, 1, 57, 0
3, 78429, Note_on_c, 1, 60, 0
3, 78452, Control_c, 1, 64, 0
3, 78600, Note_on_c, 1, 57, 103
3, 78600, Note_on_c, 1, 60, 99
3, 78600, Note_on_c, 1, 41, 86
3, 78600, Note_on_c, 1, 53, 82
3, 78624, Control_c, 1, 64, 127
3, 78667, Note_on_c, 1, 53, 0
3, 78672, Note_on_c, 1, 41, 0
3, 78677, Note_on_c, 1, 60, 0
3, 78685, Note_on_c, 1, 57, 0
3, 78716, Control_c, 1, 64, 0
3, 78720, Note_on_c, 1, 58, 90
3, 78720, Note_on_c, 1, 55, 99
3, 78720, Note_on_c, 1, 52, 86
3, 78720, Note_on_c, 1, 40, 86
3, 78767, Control_c, 1, 64, 127
3, 78808, Note_on_c, 1, 52, 0
3, 78808, Note_on_c, 1, 58, 0
3, 78808, Note_on_c, 1, 55, 0
3, 78810, Note_on_c, 1, 40, 0
3, 78816, Control_c, 1, 64, 0
3, 78960, Note_on_c, 1, 40, 86
3, 78960, Note_on_c, 1, 58, 95
3, 78960, Note_on_c, 1, 52, 78
3, 78960, Note_on_c, 1, 55, 99
3, 78972, Control_c, 1, 64, 127
3, 79018, Note_on_c, 1, 40, 0
3, 79019, Note_on_c, 1, 52, 0
3, 79021, Note_on_c, 1, 55, 0
3, 79023, Note_on_c, 1, 58, 0
3, 79056, Control_c, 1, 64, 0
3, 79080, Note_on_c, 1, 58, 108
3, 79080, Note_on_c, 1, 55, 103
3, 79080, Note_on_c, 1, 52, 90
3, 79080, Note_on_c, 1, 40, 108
3, 79097, Control_c, 1, 64, 127
3, 79188, Note_on_c, 1, 40, 0
3, 79189, Note_on_c, 1, 52, 0
3, 79189, Note_on_c, 1, 55, 0
3, 79191, Note_on_c, 1, 58, 0
3, 79200, Control_c, 1, 64, 0
3, 79440, Note_on_c, 1, 58, 67
3, 79440, Note_on_c, 1, 48, 69
3, 79440, Note_on_c, 1, 36, 70
3, 79479, Control_c, 1, 64, 127
3, 79500, Note_on_c, 1, 58, 0
3, 79500, Note_on_c, 1, 64, 78
3, 79558, Note_on_c, 1, 64, 0
3, 79560, Note_on_c, 1, 58, 78
3, 79615, Note_on_c, 1, 58, 0
3, 79620, Note_on_c, 1, 64, 82
3, 79673, Note_on_c, 1, 64, 0
3, 79680, Note_on_c, 1, 58, 86
3, 79697, Note_on_c, 1, 36, 0
3, 79717, Note_on_c, 1, 48, 0
3, 79732, Note_on_c, 1, 58, 0
3, 79740, Note_on_c, 1, 64, 95
3, 79793, Note_on_c, 1, 64, 0
3, 79800, Note_on_c, 1, 57, 90
3, 79800, Note_on_c, 1, 53, 72
3, 79800, Note_on_c, 1, 41, 78
3, 79805, Control_c, 1, 64, 0
3, 79852, Control_c, 1, 64, 127
3, 79860, Note_on_c, 1, 65, 78
3, 79864, Note_on_c, 1, 57, 0
3, 79915, Note_on_c, 1, 65, 0
3, 79920, Note_on_c, 1, 57, 86
3, 79979, Note_on_c, 1, 57, 0
3, 79980, Note_on_c, 1, 65, 86
3, 80037, Note_on_c, 1, 65, 0
3, 80040, Note_on_c, 1, 57, 86
3, 80043, Note_on_c, 1, 53, 0
3, 80051, Note_on_c, 1, 41, 0
3, 80099, Note_on_c, 1, 57, 0
3, 80100, Note_on_c, 1, 65, 90
3, 80122, Note_on_c, 1, 65, 0
3, 80160, Note_on_c, 1, 48, 74
3, 80160, Note_on_c, 1, 58, 99
3, 80160, Note_on_c, 1, 36, 82
3, 80167, Control_c, 1, 64, 0
3, 80210, Control_c, 1, 64, 127
3, 80218, Note_on_c, 1, 58, 0
3, 80220, Note_on_c, 1, 64, 78
3, 80280, Note_on_c, 1, 64, 0
3, 80280, Note_on_c, 1, 58, 86
3, 80338, Note_on_c, 1, 58, 0
3, 80340, Note_on_c, 1, 64, 90
3, 80388, Note_on_c, 1, 64, 0
3, 80400, Note_on_c, 1, 58, 72
3, 80415, Note_on_c, 1, 36, 0
3, 80429, Note_on_c, 1, 48, 0
3, 80455, Note_on_c, 1, 58, 0
3, 80460, Note_on_c, 1, 64, 99
3, 80482, Note_on_c, 1, 64, 0
3, 80513, Control_c, 1, 64, 0
3, 80520, Note_on_c, 1, 41, 82
3, 80520, Note_on_c, 1, 65, 103
3, 80520, Note_on_c, 1, 53, 72
3, 80520, Note_on_c, 1, 57, 103
3, 80550, Control_c, 1, 64, 127
3, 80602, Note_on_c, 1, 65, 0
3, 80603, Note_on_c, 1, 57, 0
3, 80603, Note_on_c, 1, 53, 0
3, 80612, Note_on_c, 1, 41, 0
3, 80635, Control_c, 1, 64, 0
3, 80754, Control_c, 1, 64, 127
3, 80760, Note_on_c, 1, 36, 86
3, 80760, Note_on_c, 1, 64, 103
3, 80760, Note_on_c, 1, 48, 72
3, 80760, Note_on_c, 1, 58, 99
3, 80784, Note_on_c, 1, 48, 0
3, 80784, Note_on_c, 1, 36, 0
3, 80788, Note_on_c, 1, 58, 0
3, 80789, Note_on_c, 1, 64, 0
3, 80852, Control_c, 1, 64, 0
3, 80880, Note_on_c, 1, 65, 99
3, 80880, Note_on_c, 1, 57, 99
3, 80880, Note_on_c, 1, 53, 86
3, 80913, Control_c, 1, 64, 127
3, 80990, Note_on_c, 1, 53, 0
3, 81000, Note_on_c, 1, 48, 86
3, 81058, Note_on_c, 1, 48, 0
3, 81116, Note_on_c, 1, 57, 0
3, 81118, Note_on_c, 1, 65, 0
3, 81120, Note_on_c, 1, 41, 95
3, 81141, Note_on_c, 1, 41, 0
3, 81229, Control_c, 1, 64, 0
3, 82680, Note_on_c, 1, 36, 82
3, 82680, Note_on_c, 1, 55, 86
3, 82680, Note_on_c, 1, 48, 72
3, 82707, Control_c, 1, 64, 127
3, 82739, Note_on_c, 1, 55, 0
3, 82740, Note_on_c, 1, 64, 95
3, 82794, Note_on_c, 1, 64, 0
3, 82800, Note_on_c, 1, 60, 90
3, 82854, Note_on_c, 1, 60, 0
3, 82860, Note_on_c, 1, 64, 82
3, 82918, Note_on_c, 1, 64, 0
3, 82920, Note_on_c, 1, 55, 72
3, 82974, Note_on_c, 1, 48, 0
3, 82976, Note_on_c, 1, 55, 0
3, 82979, Note_on_c, 1, 36, 0
3, 82980, Note_on_c, 1, 64, 99
3, 83002, Note_on_c, 1, 64, 0
3, 83040, Note_on_c, 1, 55, 108
3, 83040, Note_on_c, 1, 47, 99
3, 83040, Note_on_c, 1, 35, 99
3, 83060, Control_c, 1, 64, 0
3, 83100, Note_on_c, 1, 62, 99
3, 83104, Note_on_c, 1, 55, 0
3, 83140, Control_c, 1, 64, 127
3, 83159, Note_on_c, 1, 62, 0
3, 83160, Note_on_c, 1, 59, 99
3, 83217, Control_c, 1, 64, 0
3, 83219, Note_on_c, 1, 59, 0
3, 83220, Note_on_c, 1, 62, 90
3, 83239, Control_c, 1, 64, 127
3, 83280, Note_on_c, 1, 55, 90
3, 83281, Note_on_c, 1, 62, 0
3, 83312, Note_on_c, 1, 35, 0
3, 83334, Note_on_c, 1, 55, 0
3, 83340, Note_on_c, 1, 62, 103
3, 83351, Note_on_c, 1, 47, 0
3, 83363, Note_on_c, 1, 62, 0
3, 83400, Note_on_c, 1, 54, 90
3, 83400, Note_on_c, 1, 45, 86
3, 83406, Control_c, 1, 64, 0
3, 83442, Control_c, 1, 64, 127
3, 83460, Note_on_c, 1, 60, 95
3, 83461, Note_on_c, 1, 54, 0
3, 83510, Note_on_c, 1, 60, 0
3, 83520, Note_on_c, 1, 57, 99
3, 83578, Note_on_c, 1, 57, 0
3, 83580, Note_on_c, 1, 60, 99
3, 83637, Note_on_c, 1, 60, 0
3, 83640, Note_on_c, 1, 54, 74
3, 83688, Note_on_c, 1, 45, 0
3, 83691, Note_on_c, 1, 54, 0
3, 83700, Note_on_c, 1, 60, 99
3, 83731, Note_on_c, 1, 60, 0
3, 83753, Control_c, 1, 64, 0
3, 83760, Note_on_c, 1, 60, 103
3, 83760, Note_on_c, 1, 50, 99
3, 83760, Note_on_c, 1, 42, 86
3, 83834, Control_c, 1, 64, 127
3, 83986, Note_on_c, 1, 50, 0
3, 83996, Note_on_c, 1, 60, 0
3, 83998, Note_on_c, 1, 42, 0
3, 84111, Control_c, 1, 64, 0
3, 84120, Note_on_c, 1, 43, 90
3, 84120, Note_on_c, 1, 59, 99
3, 84143, Control_c, 1, 64, 127
3, 84180, Note_on_c, 1, 59, 0
3, 84180, Note_on_c, 1, 67, 99
3, 84203, Note_on_c, 1, 67, 0
3, 84220, Note_on_c, 1, 43, 0
3, 84240, Note_on_c, 1, 60, 108
3, 84240, Note_on_c, 1, 45, 99
3, 84247, Control_c, 1, 64, 0
3, 84270, Control_c, 1, 64, 127
3, 84296, Note_on_c, 1, 60, 0
3, 84300, Note_on_c, 1, 67, 99
3, 84323, Note_on_c, 1, 67, 0
3, 84331, Note_on_c, 1, 45, 0
3, 84360, Note_on_c, 1, 47, 103
3, 84360, Note_on_c, 1, 62, 99
3, 84363, Control_c, 1, 64, 0
3, 84392, Control_c, 1, 64, 127
3, 84416, Note_on_c, 1, 62, 0
3, 84420, Note_on_c, 1, 67, 103
3, 84454, Note_on_c, 1, 67, 0
3, 84479, Note_on_c, 1, 47, 0
3, 84480, Note_on_c, 1, 64, 108
3, 84480, Note_on_c, 1, 48, 95
3, 84486, Control_c, 1, 64, 0
3, 84514, Control_c, 1, 64, 127
3, 84535, Note_on_c, 1, 64, 0
3, 84540, Note_on_c, 1, 60, 95
3, 84582, Note_on_c, 1, 48, 0
3, 84596, Control_c, 1, 64, 0
3, 84600, Note_on_c, 1, 59, 108
3, 84600, Note_on_c, 1, 50, 103
3, 84601, Note_on_c, 1, 60, 0
3, 84621, Control_c, 1, 64, 127
3, 84661, Note_on_c, 1, 59, 0
3, 84712, Note_on_c, 1, 50, 0
3, 84720, Note_on_c, 1, 57, 103
3, 84720, Note_on_c, 1, 60, 99
3, 84720, Note_on_c, 1, 38, 99
3, 84722, Control_c, 1, 64, 0
3, 84747, Control_c, 1, 64, 127
3, 84770, Note_on_c, 1, 60, 0
3, 84771, Note_on_c, 1, 57, 0
3, 84782, Note_on_c, 1, 38, 0
3, 84840, Note_on_c, 1, 55, 99
3, 84840, Note_on_c, 1, 43, 86
3, 84840, Note_on_c, 1, 59, 103
3, 84841, Control_c, 1, 64, 0
3, 84866, Control_c, 1, 64, 127
3, 84960, Note_on_c, 1, 38, 95
3, 84961, Note_on_c, 1, 43, 0
3, 84966, Control_c, 1, 64, 0
3, 84989, Control_c, 1, 64, 127
3, 85071, Note_on_c, 1, 38, 0
3, 85076, Control_c, 1, 64, 0
3, 85080, Note_on_c, 1, 31, 95
3, 85093, Control_c, 1, 64, 127
3, 85120, Note_on_c, 1, 59, 0
3, 85121, Note_on_c, 1, 31, 0
3, 85124, Note_on_c, 1, 55, 0
3, 85182, Control_c, 1, 64, 0
3, 85200, Note_on_c, 1, 43, 103
3, 85214, Control_c, 1, 64, 127
3, 85256, Note_on_c, 1, 43, 0
3, 85260, Note_on_c, 1, 47, 95
3, 85282, Control_c, 1, 64, 0
3, 85290, Note_on_c, 1, 50, 103
3, 85297, Note_on_c, 1, 47, 0
3, 85320, Note_on_c, 1, 55, 99
3, 85321, Note_on_c, 1, 50, 0
3, 85333, Control_c, 1, 64, 127
3, 85368, Note_on_c, 1, 55, 0
3, 85380, Note_on_c, 1, 55, 112
3, 85406, Note_on_c, 1, 55, 0
3, 85440, Note_on_c, 1, 55, 103
3, 85489, Note_on_c, 1, 55, 0
3, 85500, Note_on_c, 1, 53, 95
3, 85552, Note_on_c, 1, 53, 0
3, 85554, Control_c, 1, 64, 0
3, 85560, Note_on_c, 1, 55, 86
3, 85560, Note_on_c, 1, 52, 103
3, 85592, Control_c, 1, 64, 127
3, 85608, Note_on_c, 1, 55, 0
3, 85620, Note_on_c, 1, 60, 95
3, 85642, Note_on_c, 1, 60, 0
3, 85650, Note_on_c, 1, 64, 99
3, 85669, Note_on_c, 1, 64, 0
3, 85680, Note_on_c, 1, 67, 108
3, 85700, Note_on_c, 1, 67, 0
3, 85740, Note_on_c, 1, 67, 108
3, 85763, Note_on_c, 1, 67, 0
3, 85775, Note_on_c, 1, 52, 0
3, 85797, Control_c, 1, 64, 0
3, 85800, Note_on_c, 1, 67, 103
3, 85800, Note_on_c, 1, 47, 103
3, 85822, Control_c, 1, 64, 127
3, 85851, Note_on_c, 1, 67, 0
3, 85860, Note_on_c, 1, 65, 103
3, 85886, Note_on_c, 1, 47, 0
3, 85893, Note_on_c, 1, 65, 0
3, 85911, Control_c, 1, 64, 0
3, 85920, Note_on_c, 1, 60, 95
3, 85920, Note_on_c, 1, 64, 95
3, 85920, Note_on_c, 1, 48, 95
3, 85934, Control_c, 1, 64, 127
3, 86050, Note_on_c, 1, 48, 0
3, 86051, Note_on_c, 1, 64, 0
3, 86051, Note_on_c, 1, 60, 0
3, 86055, Control_c, 1, 64, 0
3, 86280, Note_on_c, 1, 53, 95
3, 86280, Note_on_c, 1, 65, 108
3, 86280, Note_on_c, 1, 69, 99
3, 86299, Control_c, 1, 64, 127
3, 86329, Note_on_c, 1, 69, 0
3, 86332, Note_on_c, 1, 65, 0
3, 86340, Note_on_c, 1, 67, 95
3, 86340, Note_on_c, 1, 64, 95
3, 86391, Note_on_c, 1, 64, 0
3, 86391, Control_c, 1, 64, 0
3, 86394, Note_on_c, 1, 67, 0
3, 86400, Note_on_c, 1, 65, 103
3, 86400, Note_on_c, 1, 62, 99
3, 86416, Control_c, 1, 64, 127
3, 86430, Note_on_c, 1, 65, 0
3, 86436, Note_on_c, 1, 62, 0
3, 86460, Note_on_c, 1, 64, 99
3, 86460, Note_on_c, 1, 60, 99
3, 86472, Note_on_c, 1, 53, 0
3, 86483, Note_on_c, 1, 60, 0
3, 86487, Note_on_c, 1, 64, 0
3, 86519, Control_c, 1, 64, 0
3, 86520, Note_on_c, 1, 54, 86
3, 86520, Note_on_c, 1, 62, 108
3, 86520, Note_on_c, 1, 59, 99
3, 86547, Control_c, 1, 64, 127
3, 86564, Note_on_c, 1, 59, 0
3, 86566, Note_on_c, 1, 62, 0
3, 86580, Note_on_c, 1, 64, 99
3, 86580, Note_on_c, 1, 60, 95
3, 86598, Note_on_c, 1, 60, 0
3, 86600, Note_on_c, 1, 64, 0
3, 86603, Note_on_c, 1, 54, 0
3, 86627, Control_c, 1, 64, 0
3, 86640, Note_on_c, 1, 64, 103
3, 86640, Note_on_c, 1, 60, 103
3, 86640, Note_on_c, 1, 55, 82
3, 86658, Control_c, 1, 64, 127
3, 86697, Note_on_c, 1, 55, 0
3, 86700, Note_on_c, 1, 43, 99
3, 86713, Note_on_c, 1, 60, 0
3, 86713, Note_on_c, 1, 64, 0
3, 86745, Note_on_c, 1, 43, 0
3, 86760, Note_on_c, 1, 62, 99
3, 86760, Note_on_c, 1, 59, 99
3, 86760, Note_on_c, 1, 55, 95
3, 86769, Control_c, 1, 64, 0
3, 86798, Control_c, 1, 64, 127
3, 86820, Note_on_c, 1, 53, 95
3, 86824, Note_on_c, 1, 55, 0
3, 86849, Note_on_c, 1, 62, 0
3, 86850, Note_on_c, 1, 59, 0
3, 86876, Note_on_c, 1, 53, 0
3, 86880, Note_on_c, 1, 52, 95
3, 86882, Control_c, 1, 64, 0
3, 86912, Control_c, 1, 64, 127
3, 86935, Note_on_c, 1, 52, 0
3, 86940, Note_on_c, 1, 50, 95
3, 86957, Note_on_c, 1, 50, 0
3, 87000, Note_on_c, 1, 55, 78
3, 87000, Note_on_c, 1, 36, 86
3, 87000, Note_on_c, 1, 48, 86
3, 87007, Control_c, 1, 64, 0
3, 87051, Control_c, 1, 64, 127
3, 87060, Note_on_c, 1, 60, 86
3, 87063, Note_on_c, 1, 55, 0
3, 87120, Note_on_c, 1, 64, 86
3, 87122, Note_on_c, 1, 60, 0
3, 87180, Note_on_c, 1, 60, 86
3, 87185, Note_on_c, 1, 64, 0
3, 87238, Note_on_c, 1, 60, 0
3, 87240, Note_on_c, 1, 64, 95
3, 87294, Note_on_c, 1, 48, 0
3, 87299, Note_on_c, 1, 36, 0
3, 87300, Note_on_c, 1, 60, 90
3, 87308, Note_on_c, 1, 64, 0
3, 87352, Note_on_c, 1, 60, 0
3, 87360, Note_on_c, 1, 55, 99
3, 87360, Note_on_c, 1, 47, 78
3, 87360, Note_on_c, 1, 35, 82
3, 87373, Control_c, 1, 64, 0
3, 87417, Control_c, 1, 64, 127
3, 87420, Note_on_c, 1, 62, 99
3, 87432, Note_on_c, 1, 55, 0
3, 87478, Note_on_c, 1, 62, 0
3, 87480, Note_on_c, 1, 65, 90
3, 87535, Note_on_c, 1, 65, 0
3, 87540, Note_on_c, 1, 62, 86
3, 87600, Note_on_c, 1, 65, 95
3, 87602, Note_on_c, 1, 62, 0
3, 87638, Note_on_c, 1, 35, 0
3, 87650, Note_on_c, 1, 65, 0
3, 87653, Note_on_c, 1, 47, 0
3, 87660, Note_on_c, 1, 62, 99
3, 87719, Note_on_c, 1, 62, 0
3, 87720, Note_on_c, 1, 55, 86
3, 87720, Note_on_c, 1, 48, 82
3, 87720, Note_on_c, 1, 36, 82
3, 87724, Control_c, 1, 64, 0
3, 87758, Control_c, 1, 64, 127
3, 87780, Note_on_c, 1, 60, 90
3, 87783, Note_on_c, 1, 55, 0
3, 87839, Note_on_c, 1, 60, 0
3, 87840, Note_on_c, 1, 64, 99
3, 87900, Note_on_c, 1, 60, 99
3, 87905, Note_on_c, 1, 64, 0
3, 87960, Note_on_c, 1, 60, 0
3, 87960, Note_on_c, 1, 64, 95
3, 88020, Note_on_c, 1, 60, 95
3, 88028, Note_on_c, 1, 64, 0
3, 88029, Note_on_c, 1, 48, 0
3, 88035, Note_on_c, 1, 36, 0
3, 88074, Note_on_c, 1, 60, 0
3, 88080, Note_on_c, 1, 47, 70
3, 88080, Note_on_c, 1, 55, 86
3, 88080, Note_on_c, 1, 35, 82
3, 88101, Control_c, 1, 64, 0
3, 88140, Control_c, 1, 64, 127
3, 88140, Note_on_c, 1, 62, 95
3, 88156, Note_on_c, 1, 55, 0
3, 88200, Note_on_c, 1, 65, 95
3, 88203, Note_on_c, 1, 62, 0
3, 88253, Note_on_c, 1, 65, 0
3, 88260, Note_on_c, 1, 62, 90
3, 88311, Note_on_c, 1, 62, 0
3, 88320, Note_on_c, 1, 65, 60
3, 88354, Note_on_c, 1, 35, 0
3, 88377, Note_on_c, 1, 47, 0
3, 88378, Note_on_c, 1, 65, 0
3, 88380, Note_on_c, 1, 62, 95
3, 88434, Note_on_c, 1, 62, 0
3, 88440, Note_on_c, 1, 55, 95
3, 88440, Note_on_c, 1, 48, 78
3, 88440, Note_on_c, 1, 36, 86
3, 88453, Control_c, 1, 64, 0
3, 88486, Control_c, 1, 64, 127
3, 88500, Note_on_c, 1, 60, 95
3, 88507, Note_on_c, 1, 55, 0
3, 88560, Note_on_c, 1, 64, 103
3, 88561, Note_on_c, 1, 60, 0
3, 88620, Note_on_c, 1, 60, 95
3, 88626, Note_on_c, 1, 64, 0
3, 88680, Note_on_c, 1, 64, 103
3, 88681, Note_on_c, 1, 60, 0
3, 88699, Note_on_c, 1, 36, 0
3, 88717, Note_on_c, 1, 48, 0
3, 88740, Note_on_c, 1, 60, 99
3, 88743, Note_on_c, 1, 64, 0
3, 88794, Note_on_c, 1, 60, 0
3, 88800, Note_on_c, 1, 57, 99
3, 88800, Note_on_c, 1, 53, 78
3, 88800, Note_on_c, 1, 41, 82
3, 88807, Control_c, 1, 64, 0
3, 88841, Control_c, 1, 64, 127
3, 88860, Note_on_c, 1, 60, 99
3, 88865, Note_on_c, 1, 57, 0
3, 88917, Note_on_c, 1, 60, 0
3, 88920, Note_on_c, 1, 65, 99
3, 88943, Note_on_c, 1, 53, 0
3, 88948, Note_on_c, 1, 41, 0
3, 88979, Note_on_c, 1, 65, 0
3, 88980, Note_on_c, 1, 60, 86
3, 89035, Control_c, 1, 64, 0
3, 89036, Note_on_c, 1, 60, 0
3, 89040, Note_on_c, 1, 55, 99
3, 89040, Note_on_c, 1, 40, 99
3, 89040, Note_on_c, 1, 52, 95
3, 89061, Control_c, 1, 64, 127
3, 89094, Note_on_c, 1, 52, 0
3, 89096, Note_on_c, 1, 55, 0
3, 89097, Note_on_c, 1, 40, 0
3, 89100, Note_on_c, 1, 60, 95
3, 89115, Note_on_c, 1, 60, 0
3, 89160, Note_on_c, 1, 38, 103
3, 89160, Note_on_c, 1, 50, 99
3, 89167, Control_c, 1, 64, 0
3, 89199, Control_c, 1, 64, 127
3, 89220, Note_on_c, 1, 59, 103
3, 89246, Note_on_c, 1, 50, 0
3, 89275, Note_on_c, 1, 59, 0
3, 89280, Note_on_c, 1, 50, 90
3, 89323, Note_on_c, 1, 38, 0
3, 89332, Note_on_c, 1, 50, 0
3, 89340, Note_on_c, 1, 59, 103
3, 89359, Note_on_c, 1, 59, 0
3, 89399, Control_c, 1, 64, 0
3, 89400, Note_on_c, 1, 52, 99
3, 89400, Note_on_c, 1, 36, 86
3, 89400, Note_on_c, 1, 48, 86
3, 89424, Control_c, 1, 64, 127
3, 89435, Note_on_c, 1, 36, 0
3, 89448, Note_on_c, 1, 48, 0
3, 89453, Note_on_c, 1, 52, 0
3, 89460, Note_on_c, 1, 60, 99
3, 89498, Note_on_c, 1, 60, 0
3, 89520, Note_on_c, 1, 57, 103
3, 89520, Note_on_c, 1, 53, 86
3, 89535, Control_c, 1, 64, 0
3, 89562, Control_c, 1, 64, 127
3, 89580, Note_on_c, 1, 62, 99
3, 89581, Note_on_c, 1, 57, 0
3, 89605, Note_on_c, 1, 62, 0
3, 89636, Note_on_c, 1, 53, 0
3, 89640, Control_c, 1, 64, 0
3, 89640, Note_on_c, 1, 60, 95
3, 89640, Note_on_c, 1, 55, 95
3, 89663, Control_c, 1, 64, 127
3, 89696, Note_on_c, 1, 60, 0
3, 89700, Note_on_c, 1, 64, 103
3, 89739, Note_on_c, 1, 64, 0
3, 89754, Control_c, 1, 64, 0
3, 89755, Note_on_c, 1, 55, 0
3, 89760, Note_on_c, 1, 43, 90
3, 89760, Note_on_c, 1, 62, 95
3, 89775, Control_c, 1, 64, 127
3, 89814, Note_on_c, 1, 62, 0
3, 89820, Note_on_c, 1, 65, 86
3, 89846, Note_on_c, 1, 43, 0
3, 89850, Note_on_c, 1, 65, 0
3, 89880, Note_on_c, 1, 60, 95
3, 89880, Note_on_c, 1, 64, 103
3, 89880, Note_on_c, 1, 48, 86
3, 89881, Control_c, 1, 64, 0
3, 89906, Control_c, 1, 64, 127
3, 90000, Note_on_c, 1, 43, 86
3, 90008, Note_on_c, 1, 48, 0
3, 90011, Control_c, 1, 64, 0
3, 90030, Control_c, 1, 64, 127
3, 90120, Note_on_c, 1, 36, 95
3, 90121, Control_c, 1, 64, 0
3, 90123, Note_on_c, 1, 43, 0
3, 90138, Control_c, 1, 64, 127
3, 90171, Note_on_c, 1, 36, 0
3, 90180, Note_on_c, 1, 64, 0
3, 90181, Note_on_c, 1, 60, 0
3, 90240, Control_c, 1, 7, 127
3, 90248, Control_c, 1, 64, 0
3, 90600, Note_on_c, 1, 52, 86
3, 90600, Note_on_c, 1, 48, 82
3, 90613, Control_c, 1, 64, 127
3, 90628, Note_on_c, 1, 52, 0
3, 90630, Note_on_c, 1, 55, 86
3, 90657, Note_on_c, 1, 55, 0
3, 90660, Note_on_c, 1, 60, 86
3, 90687, Note_on_c, 1, 60, 0
3, 90690, Note_on_c, 1, 55, 82
3, 90717, Control_c, 1, 64, 0
3, 90720, Note_on_c, 1, 52, 103
3, 90721, Note_on_c, 1, 55, 0
3, 90739, Control_c, 1, 64, 127
3, 90748, Note_on_c, 1, 52, 0
3, 90750, Note_on_c, 1, 55, 86
3, 90780, Note_on_c, 1, 60, 95
3, 90782, Note_on_c, 1, 55, 0
3, 90810, Note_on_c, 1, 55, 90
3, 90814, Note_on_c, 1, 60, 0
3, 90824, Note_on_c, 1, 48, 0
3, 90829, Note_on_c, 1, 55, 0
3, 90840, Note_on_c, 1, 53, 99
3, 90840, Note_on_c, 1, 43, 86
3, 90845, Control_c, 1, 64, 0
3, 90868, Note_on_c, 1, 53, 0
3, 90870, Note_on_c, 1, 55, 99
3, 90875, Control_c, 1, 64, 127
3, 90894, Note_on_c, 1, 55, 0
3, 90900, Note_on_c, 1, 59, 99
3, 90924, Note_on_c, 1, 59, 0
3, 90930, Note_on_c, 1, 55, 86
3, 90949, Note_on_c, 1, 55, 0
3, 90960, Note_on_c, 1, 53, 103
3, 90982, Note_on_c, 1, 53, 0
3, 90990, Note_on_c, 1, 55, 86
3, 91015, Note_on_c, 1, 55, 0
3, 91020, Note_on_c, 1, 59, 90
3, 91040, Note_on_c, 1, 43, 0
3, 91047, Note_on_c, 1, 59, 0
3, 91050, Note_on_c, 1, 55, 86
3, 91065, Note_on_c, 1, 55, 0
3, 91079, Control_c, 1, 64, 0
3, 91080, Note_on_c, 1, 52, 108
3, 91080, Note_on_c, 1, 36, 95
3, 91106, Note_on_c, 1, 52, 0
3, 91106, Control_c, 1, 64, 127
3, 91110, Note_on_c, 1, 55, 99
3, 91133, Note_on_c, 1, 55, 0
3, 91140, Note_on_c, 1, 60, 99
3, 91166, Note_on_c, 1, 60, 0
3, 91170, Note_on_c, 1, 55, 86
3, 91190, Note_on_c, 1, 55, 0
3, 91200, Note_on_c, 1, 52, 103
3, 91220, Note_on_c, 1, 52, 0
3, 91230, Note_on_c, 1, 55, 95
3, 91251, Note_on_c, 1, 55, 0
3, 91260, Note_on_c, 1, 60, 99
3, 91284, Note_on_c, 1, 60, 0
3, 91284, Note_on_c, 1, 36, 0
3, 91290, Note_on_c, 1, 55, 82
3, 91306, Note_on_c, 1, 55, 0
3, 91320, Note_on_c, 1, 53, 103
3, 91320, Note_on_c, 1, 43, 108
3, 91327, Control_c, 1, 64, 0
3, 91347, Note_on_c, 1, 53, 0
3, 91350, Note_on_c, 1, 55, 90
3, 91360, Control_c, 1, 64, 127
3, 91376, Note_on_c, 1, 55, 0
3, 91380, Note_on_c, 1, 59, 90
3, 91404, Note_on_c, 1, 59, 0
3, 91410, Note_on_c, 1, 55, 86
3, 91434, Note_on_c, 1, 55, 0
3, 91440, Note_on_c, 1, 53, 90
3, 91462, Note_on_c, 1, 53, 0
3, 91470, Note_on_c, 1, 55, 86
3, 91494, Note_on_c, 1, 55, 0
3, 91500, Note_on_c, 1, 59, 82
3, 91503, Note_on_c, 1, 43, 0
3, 91524, Note_on_c, 1, 59, 0
3, 91530, Note_on_c, 1, 55, 86
3, 91543, Note_on_c, 1, 55, 0
3, 91560, Note_on_c, 1, 48, 112
3, 91560, Note_on_c, 1, 52, 103
3, 91572, Control_c, 1, 64, 0
3, 91584, Note_on_c, 1, 52, 0
3, 91590, Note_on_c, 1, 55, 90
3, 91603, Control_c, 1, 64, 127
3, 91612, Note_on_c, 1, 55, 0
3, 91620, Note_on_c, 1, 60, 78
3, 91645, Note_on_c, 1, 60, 0
3, 91650, Note_on_c, 1, 55, 90
3, 91669, Note_on_c, 1, 55, 0
3, 91680, Note_on_c, 1, 52, 86
3, 91700, Note_on_c, 1, 52, 0
3, 91710, Note_on_c, 1, 55, 86
3, 91732, Note_on_c, 1, 55, 0
3, 91740, Note_on_c, 1, 60, 86
3, 91750, Note_on_c, 1, 48, 0
3, 91765, Note_on_c, 1, 60, 0
3, 91770, Note_on_c, 1, 55, 90
3, 91785, Note_on_c, 1, 55, 0
3, 91800, Note_on_c, 1, 53, 103
3, 91800, Note_on_c, 1, 43, 103
3, 91805, Control_c, 1, 64, 0
3, 91825, Note_on_c, 1, 53, 0
3, 91830, Note_on_c, 1, 55, 86
3, 91834, Control_c, 1, 64, 127
3, 91854, Note_on_c, 1, 55, 0
3, 91860, Note_on_c, 1, 59, 95
3, 91885, Note_on_c, 1, 59, 0
3, 91890, Note_on_c, 1, 55, 74
3, 91911, Note_on_c, 1, 55, 0
3, 91920, Note_on_c, 1, 53, 95
3, 91944, Note_on_c, 1, 53, 0
3, 91950, Note_on_c, 1, 55, 95
3, 91970, Note_on_c, 1, 55, 0
3, 91980, Note_on_c, 1, 59, 86
3, 92004, Note_on_c, 1, 59, 0
3, 92010, Note_on_c, 1, 55, 90
3, 92027, Note_on_c, 1, 55, 0
3, 92039, Note_on_c, 1, 43, 0
3, 92040, Note_on_c, 1, 52, 103
3, 92040, Note_on_c, 1, 36, 99
3, 92046, Control_c, 1, 64, 0
3, 92062, Note_on_c, 1, 52, 0
3, 92070, Note_on_c, 1, 55, 99
3, 92074, Control_c, 1, 64, 127
3, 92092, Note_on_c, 1, 55, 0
3, 92100, Note_on_c, 1, 60, 82
3, 92124, Note_on_c, 1, 60, 0
3, 92130, Note_on_c, 1, 55, 86
3, 92151, Note_on_c, 1, 55, 0
3, 92160, Note_on_c, 1, 52, 99
3, 92178, Note_on_c, 1, 52, 0
3, 92190, Note_on_c, 1, 55, 95
3, 92212, Note_on_c, 1, 55, 0
3, 92220, Note_on_c, 1, 60, 95
3, 92250, Note_on_c, 1, 55, 95
3, 92255, Note_on_c, 1, 60, 0
3, 92266, Note_on_c, 1, 55, 0
3, 92269, Note_on_c, 1, 36, 0
3, 92280, Note_on_c, 1, 50, 86
3, 92280, Note_on_c, 1, 43, 99
3, 92289, Control_c, 1, 64, 0
3, 92307, Note_on_c, 1, 50, 0
3, 92310, Note_on_c, 1, 55, 99
3, 92324, Control_c, 1, 64, 127
3, 92333, Note_on_c, 1, 55, 0
3, 92340, Note_on_c, 1, 59, 90
3, 92368, Note_on_c, 1, 59, 0
3, 92370, Note_on_c, 1, 55, 86
3, 92389, Note_on_c, 1, 55, 0
3, 92395, Note_on_c, 1, 43, 0
3, 92400, Note_on_c, 1, 60, 99
3, 92400, Note_on_c, 1, 36, 90
3, 92402, Control_c, 1, 64, 0
3, 92431, Control_c, 1, 64, 127
3, 92457, Note_on_c, 1, 36, 0
3, 92457, Note_on_c, 1, 60, 0
3, 92460, Note_on_c, 1, 48, 99
3, 92486, Note_on_c, 1, 48, 0
3, 92520, Note_on_c, 1, 53, 90
3, 92520, Note_on_c, 1, 43, 95
3, 92528, Control_c, 1, 64, 0
3, 92548, Note_on_c, 1, 53, 0
3, 92550, Note_on_c, 1, 55, 90
3, 92559, Control_c, 1, 64, 127
3, 92578, Note_on_c, 1, 55, 0
3, 92580, Note_on_c, 1, 59, 82
3, 92607, Note_on_c, 1, 59, 0
3, 92610, Note_on_c, 1, 55, 78
3, 92638, Note_on_c, 1, 55, 0
3, 92640, Note_on_c, 1, 53, 70
3, 92665, Note_on_c, 1, 53, 0
3, 92670, Note_on_c, 1, 55, 78
3, 92699, Note_on_c, 1, 55, 0
3, 92700, Note_on_c, 1, 59, 72
3, 92730, Note_on_c, 1, 55, 78
3, 92732, Note_on_c, 1, 59, 0
3, 92748, Note_on_c, 1, 55, 0
3, 92749, Note_on_c, 1, 43, 0
3, 92760, Note_on_c, 1, 52, 86
3, 92760, Note_on_c, 1, 36, 78
3, 92773, Control_c, 1, 64, 0
3, 92790, Note_on_c, 1, 52, 0
3, 92790, Note_on_c, 1, 55, 86
3, 92797, Control_c, 1, 64, 127
3, 92815, Note_on_c, 1, 55, 0
3, 92820, Note_on_c, 1, 60, 82
3, 92848, Note_on_c, 1, 60, 0
3, 92850, Note_on_c, 1, 55, 86
3, 92873, Note_on_c, 1, 55, 0
3, 92880, Note_on_c, 1, 52, 57
3, 92906, Note_on_c, 1, 52, 0
3, 92910, Note_on_c, 1, 55, 90
3, 92929, Note_on_c, 1, 36, 0
3, 92938, Note_on_c, 1, 55, 0
3, 92940, Note_on_c, 1, 60, 86
3, 92970, Note_on_c, 1, 60, 0
3, 92970, Note_on_c, 1, 55, 86
3, 92992, Note_on_c, 1, 55, 0
3, 93000, Note_on_c, 1, 53, 95
3, 93000, Note_on_c, 1, 31, 99
3, 93000, Note_on_c, 1, 43, 82
3, 93002, Control_c, 1, 64, 0
3, 93027, Note_on_c, 1, 53, 0
3, 93029, Control_c, 1, 64, 127
3, 93030, Note_on_c, 1, 55, 95
3, 93057, Note_on_c, 1, 55, 0
3, 93060, Note_on_c, 1, 59, 86
3, 93090, Note_on_c, 1, 55, 86
3, 93095, Note_on_c, 1, 59, 0
3, 93116, Note_on_c, 1, 55, 0
3, 93120, Note_on_c, 1, 53, 86
3, 93148, Note_on_c, 1, 53, 0
3, 93150, Note_on_c, 1, 55, 86
3, 93167, Note_on_c, 1, 31, 0
3, 93179, Note_on_c, 1, 55, 0
3, 93180, Note_on_c, 1, 59, 90
3, 93191, Note_on_c, 1, 43, 0
3, 93210, Note_on_c, 1, 55, 99
3, 93217, Note_on_c, 1, 59, 0
3, 93230, Note_on_c, 1, 55, 0
3, 93240, Note_on_c, 1, 36, 78
3, 93240, Note_on_c, 1, 52, 90
3, 93240, Note_on_c, 1, 48, 70
3, 93250, Control_c, 1, 64, 0
3, 93270, Note_on_c, 1, 55, 99
3, 93273, Note_on_c, 1, 52, 0
3, 93275, Control_c, 1, 64, 127
3, 93295, Note_on_c, 1, 55, 0
3, 93300, Note_on_c, 1, 60, 78
3, 93330, Note_on_c, 1, 60, 0
3, 93330, Note_on_c, 1, 55, 90
3, 93357, Note_on_c, 1, 55, 0
3, 93360, Note_on_c, 1, 52, 74
3, 93386, Note_on_c, 1, 52, 0
3, 93390, Note_on_c, 1, 55, 103
3, 93415, Note_on_c, 1, 55, 0
3, 93420, Note_on_c, 1, 60, 90
3, 93450, Note_on_c, 1, 55, 99
3, 93454, Note_on_c, 1, 60, 0
3, 93466, Note_on_c, 1, 36, 0
3, 93468, Note_on_c, 1, 48, 0
3, 93471, Note_on_c, 1, 55, 0
3, 93480, Note_on_c, 1, 53, 99
3, 93480, Note_on_c, 1, 43, 86
3, 93491, Control_c, 1, 64, 0
3, 93510, Note_on_c, 1, 53, 0
3, 93510, Note_on_c, 1, 55, 90
3, 93518, Control_c, 1, 64, 127
3, 93535, Note_on_c, 1, 55, 0
3, 93540, Note_on_c, 1, 59, 90
3, 93570, Note_on_c, 1, 55, 90
3, 93571, Note_on_c, 1, 59, 0
3, 93594, Note_on_c, 1, 55, 0
3, 93600, Note_on_c, 1, 53, 74
3, 93627, Note_on_c, 1, 53, 0
3, 93630, Note_on_c, 1, 55, 95
3, 93658, Note_on_c, 1, 55, 0
3, 93660, Note_on_c, 1, 59, 86
3, 93690, Note_on_c, 1, 55, 72
3, 93692, Note_on_c, 1, 59, 0
3, 93702, Note_on_c, 1, 43, 0
3, 93713, Note_on_c, 1, 55, 0
3, 93720, Note_on_c, 1, 52, 99
3, 93720, Note_on_c, 1, 48, 78
3, 93720, Note_on_c, 1, 36, 78
3, 93732, Control_c, 1, 64, 0
3, 93750, Note_on_c, 1, 55, 82
3, 93752, Note_on_c, 1, 52, 0
3, 93758, Control_c, 1, 64, 127
3, 93777, Note_on_c, 1, 55, 0
3, 93780, Note_on_c, 1, 60, 82
3, 93808, Note_on_c, 1, 60, 0
3, 93810, Note_on_c, 1, 55, 82
3, 93835, Note_on_c, 1, 55, 0
3, 93840, Note_on_c, 1, 52, 95
3, 93863, Note_on_c, 1, 52, 0
3, 93870, Note_on_c, 1, 55, 99
3, 93876, Note_on_c, 1, 48, 0
3, 93884, Note_on_c, 1, 36, 0
3, 93897, Note_on_c, 1, 55, 0
3, 93900, Note_on_c, 1, 60, 86
3, 93930, Note_on_c, 1, 55, 86
3, 93932, Note_on_c, 1, 60, 0
3, 93952, Note_on_c, 1, 55, 0
3, 93960, Note_on_c, 1, 53, 99
3, 93960, Note_on_c, 1, 31, 86
3, 93960, Note_on_c, 1, 43, 74
3, 93962, Control_c, 1, 64, 0
3, 93989, Control_c, 1, 64, 127
3, 93990, Note_on_c, 1, 53, 0
3, 93990, Note_on_c, 1, 55, 99
3, 94015, Note_on_c, 1, 55, 0
3, 94020, Note_on_c, 1, 59, 90
3, 94050, Note_on_c, 1, 55, 86
3, 94053, Note_on_c, 1, 59, 0
3, 94074, Note_on_c, 1, 55, 0
3, 94080, Note_on_c, 1, 53, 99
3, 94106, Note_on_c, 1, 53, 0
3, 94110, Note_on_c, 1, 55, 90
3, 94116, Note_on_c, 1, 31, 0
3, 94136, Note_on_c, 1, 43, 0
3, 94138, Note_on_c, 1, 55, 0
3, 94140, Note_on_c, 1, 59, 86
3, 94170, Note_on_c, 1, 55, 78
3, 94174, Note_on_c, 1, 59, 0
3, 94190, Note_on_c, 1, 55, 0
3, 94200, Note_on_c, 1, 52, 90
3, 94200, Note_on_c, 1, 36, 78
3, 94200, Note_on_c, 1, 48, 78
3, 94203, Control_c, 1, 64, 0
3, 94227, Note_on_c, 1, 52, 0
3, 94227, Control_c, 1, 64, 127
3, 94230, Note_on_c, 1, 55, 103
3, 94255, Note_on_c, 1, 55, 0
3, 94260, Note_on_c, 1, 60, 82
3, 94290, Note_on_c, 1, 60, 0
3, 94290, Note_on_c, 1, 55, 99
3, 94312, Control_c, 1, 64, 0
3, 94316, Note_on_c, 1, 55, 0
3, 94320, Note_on_c, 1, 60, 99
3, 94326, Control_c, 1, 64, 127
3, 94361, Note_on_c, 1, 60, 0
3, 94367, Note_on_c, 1, 36, 0
3, 94378, Note_on_c, 1, 48, 0
3, 94435, Control_c, 1, 64, 0
3, 94440, Note_on_c, 1, 69, 90
3, 94440, Note_on_c, 1, 41, 78
3, 94470, Note_on_c, 1, 69, 0
3, 94470, Note_on_c, 1, 72, 95
3, 94471, Control_c, 1, 64, 127
3, 94496, Note_on_c, 1, 72, 0
3, 94500, Note_on_c, 1, 74, 78
3, 94525, Note_on_c, 1, 74, 0
3, 94530, Note_on_c, 1, 72, 95
3, 94543, Note_on_c, 1, 72, 0
3, 94558, Note_on_c, 1, 41, 0
3, 94560, Note_on_c, 1, 70, 99
3, 94560, Note_on_c, 1, 45, 95
3, 94568, Control_c, 1, 64, 0
3, 94586, Note_on_c, 1, 70, 0
3, 94590, Note_on_c, 1, 69, 99
3, 94597, Control_c, 1, 64, 127
3, 94610, Note_on_c, 1, 69, 0
3, 94620, Note_on_c, 1, 67, 95
3, 94648, Note_on_c, 1, 67, 0
3, 94650, Note_on_c, 1, 65, 103
3, 94667, Note_on_c, 1, 65, 0
3, 94672, Note_on_c, 1, 45, 0
3, 94680, Note_on_c, 1, 48, 90
3, 94680, Note_on_c, 1, 64, 90
3, 94682, Control_c, 1, 64, 0
3, 94697, Note_on_c, 1, 64, 0
3, 94710, Note_on_c, 1, 65, 99
3, 94715, Control_c, 1, 64, 127
3, 94731, Note_on_c, 1, 65, 0
3, 94740, Note_on_c, 1, 67, 90
3, 94761, Note_on_c, 1, 67, 0
3, 94770, Note_on_c, 1, 65, 103
3, 94788, Note_on_c, 1, 48, 0
3, 94790, Note_on_c, 1, 65, 0
3, 94800, Control_c, 1, 64, 0
3, 94800, Note_on_c, 1, 64, 103
3, 94800, Note_on_c, 1, 40, 90
3, 94823, Control_c, 1, 64, 127
3, 94830, Note_on_c, 1, 64, 0
3, 94830, Note_on_c, 1, 62, 95
3, 94845, Note_on_c, 1, 62, 0
3, 94860, Note_on_c, 1, 60, 99
3, 94879, Note_on_c, 1, 60, 0
3, 94890, Note_on_c, 1, 58, 103
3, 94905, Note_on_c, 1, 58, 0
3, 94905, Note_on_c, 1, 40, 0
3, 94920, Control_c, 1, 64, 0
3, 94920, Note_on_c, 1, 57, 99
3, 94920, Note_on_c, 1, 41, 82
3, 94940, Note_on_c, 1, 57, 0
3, 94945, Control_c, 1, 64, 127
3, 94950, Note_on_c, 1, 60, 95
3, 94972, Note_on_c, 1, 60, 0
3, 94979, Note_on_c, 1, 41, 0
3, 94980, Note_on_c, 1, 65, 95
3, 95003, Note_on_c, 1, 65, 0
3, 95010, Note_on_c, 1, 64, 90
3, 95023, Note_on_c, 1, 64, 0
3, 95036, Control_c, 1, 64, 0
3, 95040, Note_on_c, 1, 34, 90
3, 95040, Note_on_c, 1, 62, 117
3, 95062, Note_on_c, 1, 62, 0
3, 95070, Note_on_c, 1, 67, 99
3, 95077, Control_c, 1, 64, 127
3, 95088, Note_on_c, 1, 67, 0
3, 95100, Note_on_c, 1, 70, 99
3, 95123, Note_on_c, 1, 34, 0
3, 95125, Note_on_c, 1, 70, 0
3, 95130, Note_on_c, 1, 69, 103
3, 95152, Note_on_c, 1, 69, 0
3, 95160, Note_on_c, 1, 67, 103
3, 95160, Note_on_c, 1, 36, 90
3, 95164, Control_c, 1, 64, 0
3, 95178, Note_on_c, 1, 67, 0
3, 95186, Control_c, 1, 64, 127
3, 95190, Note_on_c, 1, 69, 99
3, 95201, Note_on_c, 1, 36, 0
3, 95209, Note_on_c, 1, 69, 0
3, 95220, Note_on_c, 1, 67, 108
3, 95220, Note_on_c, 1, 36, 99
3, 95237, Note_on_c, 1, 67, 0
3, 95250, Note_on_c, 1, 69, 82
3, 95264, Note_on_c, 1, 36, 0
3, 95273, Note_on_c, 1, 69, 0
3, 95280, Control_c, 1, 64, 0
3, 95280, Note_on_c, 1, 64, 103
3, 95280, Note_on_c, 1, 36, 99
3, 95302, Control_c, 1, 64, 127
3, 95329, Note_on_c, 1, 64, 0
3, 95331, Note_on_c, 1, 36, 0
3, 95392, Control_c, 1, 64, 0
3, 95400, Note_on_c, 1, 69, 108
3, 95400, Note_on_c, 1, 41, 103
3, 95420, Note_on_c, 1, 69, 0
3, 95421, Control_c, 1, 64, 127
3, 95430, Note_on_c, 1, 72, 99
3, 95448, Note_on_c, 1, 72, 0
3, 95460, Note_on_c, 1, 74, 108
3, 95483, Note_on_c, 1, 74, 0
3, 95490, Note_on_c, 1, 72, 95
3, 95506, Note_on_c, 1, 41, 0
3, 95509, Note_on_c, 1, 72, 0
3, 95518, Control_c, 1, 64, 0
3, 95520, Note_on_c, 1, 70, 112
3, 95520, Note_on_c, 1, 45, 99
3, 95540, Note_on_c, 1, 70, 0
3, 95544, Control_c, 1, 64, 127
3, 95550, Note_on_c, 1, 69, 103
3, 95576, Note_on_c, 1, 69, 0
3, 95580, Note_on_c, 1, 67, 99
3, 95598, Note_on_c, 1, 67, 0
3, 95610, Note_on_c, 1, 65, 103
3, 95626, Note_on_c, 1, 65, 0
3, 95628, Note_on_c, 1, 45, 0
3, 95635, Control_c, 1, 64, 0
3, 95640, Note_on_c, 1, 64, 99
3, 95640, Note_on_c, 1, 48, 99
3, 95660, Control_c, 1, 64, 127
3, 95662, Note_on_c, 1, 64, 0
3, 95670, Note_on_c, 1, 65, 103
3, 95688, Note_on_c, 1, 65, 0
3, 95700, Note_on_c, 1, 67, 99
3, 95720, Note_on_c, 1, 67, 0
3, 95730, Note_on_c, 1, 65, 103
3, 95740, Note_on_c, 1, 48, 0
3, 95749, Control_c, 1, 64, 0
3, 95757, Note_on_c, 1, 65, 0
3, 95760, Note_on_c, 1, 64, 108
3, 95760, Note_on_c, 1, 40, 103
3, 95771, Control_c, 1, 64, 127
3, 95777, Note_on_c, 1, 64, 0
3, 95790, Note_on_c, 1, 62, 90
3, 95811, Note_on_c, 1, 62, 0
3, 95820, Note_on_c, 1, 60, 66
3, 95838, Note_on_c, 1, 60, 0
3, 95850, Note_on_c, 1, 58, 103
3, 95857, Note_on_c, 1, 40, 0
3, 95868, Note_on_c, 1, 58, 0
3, 95874, Control_c, 1, 64, 0
3, 95880, Note_on_c, 1, 41, 86
3, 95880, Note_on_c, 1, 57, 108
3, 95899, Control_c, 1, 64, 127
3, 95903, Note_on_c, 1, 57, 0
3, 95910, Note_on_c, 1, 60, 72
3, 95934, Note_on_c, 1, 60, 0
3, 95940, Note_on_c, 1, 65, 99
3, 95945, Note_on_c, 1, 41, 0
3, 95964, Note_on_c, 1, 65, 0
3, 95970, Note_on_c, 1, 60, 99
3, 95983, Note_on_c, 1, 60, 0
3, 95992, Control_c, 1, 64, 0
3, 96000, Note_on_c, 1, 58, 117
3, 96000, Note_on_c, 1, 34, 78
3, 96015, Control_c, 1, 64, 127
3, 96022, Note_on_c, 1, 58, 0
3, 96030, Note_on_c, 1, 62, 103
3, 96060, Note_on_c, 1, 62, 0
3, 96060, Note_on_c, 1, 67, 90
3, 96083, Note_on_c, 1, 34, 0
3, 96090, Note_on_c, 1, 67, 0
3, 96090, Note_on_c, 1, 62, 103
3, 96103, Note_on_c, 1, 62, 0
3, 96116, Control_c, 1, 64, 0
3, 96120, Note_on_c, 1, 36, 95
3, 96120, Note_on_c, 1, 55, 103
3, 96141, Note_on_c, 1, 55, 0
3, 96141, Control_c, 1, 64, 127
3, 96150, Note_on_c, 1, 58, 95
3, 96171, Note_on_c, 1, 58, 0
3, 96173, Note_on_c, 1, 36, 0
3, 96180, Note_on_c, 1, 64, 99
3, 96180, Note_on_c, 1, 36, 95
3, 96210, Note_on_c, 1, 64, 0
3, 96210, Note_on_c, 1, 58, 86
3, 96217, Note_on_c, 1, 36, 0
3, 96229, Note_on_c, 1, 58, 0
3, 96229, Control_c, 1, 64, 0
3, 96240, Note_on_c, 1, 65, 103
3, 96240, Note_on_c, 1, 41, 103
3, 96251, Control_c, 1, 64, 127
3, 96273, Note_on_c, 1, 65, 0
3, 96282, Note_on_c, 1, 41, 0
3, 96333, Control_c, 1, 64, 0
3, 96360, Note_on_c, 1, 54, 103
3, 96360, Note_on_c, 1, 57, 117
3, 96360, Note_on_c, 1, 50, 123
3, 96360, Note_on_c, 1, 60, 112
3, 96360, Note_on_c, 1, 42, 112
3, 96376, Control_c, 1, 64, 127
3, 96553, Note_on_c, 1, 50, 0
3, 96554, Note_on_c, 1, 54, 0
3, 96559, Note_on_c, 1, 60, 0
3, 96562, Note_on_c, 1, 57, 0
3, 96567, Note_on_c, 1, 42, 0
3, 96586, Control_c, 1, 64, 0
3, 96600, Note_on_c, 1, 43, 103
3, 96600, Note_on_c, 1, 55, 99
3, 96600, Note_on_c, 1, 50, 95
3, 96600, Note_on_c, 1, 58, 99
3, 96617, Note_on_c, 1, 50, 0
3, 96617, Note_on_c, 1, 55, 0
3, 96622, Note_on_c, 1, 58, 0
3, 96624, Note_on_c, 1, 43, 0
3, 96660, Note_on_c, 1, 57, 103
3, 96660, Note_on_c, 1, 50, 112
3, 96660, Note_on_c, 1, 45, 103
3, 96677, Note_on_c, 1, 50, 0
3, 96678, Note_on_c, 1, 45, 0
3, 96684, Note_on_c, 1, 57, 0
3, 96720, Note_on_c, 1, 50, 112
3, 96720, Note_on_c, 1, 46, 103
3, 96720, Note_on_c, 1, 55, 112
3, 96746, Note_on_c, 1, 50, 0
3, 96749, Note_on_c, 1, 55, 0
3, 96749, Note_on_c, 1, 46, 0
3, 96840, Note_on_c, 1, 55, 108
3, 96840, Note_on_c, 1, 52, 103
3, 96840, Note_on_c, 1, 48, 112
3, 96840, Note_on_c, 1, 58, 103
3, 96840, Note_on_c, 1, 40, 117
3, 96840, Note_on_c, 1, 39, 65
3, 96844, Note_on_c, 1, 39, 0
3, 96949, Control_c, 1, 64, 127
3, 97024, Note_on_c, 1, 58, 0
3, 97025, Note_on_c, 1, 55, 0
3, 97030, Note_on_c, 1, 52, 0
3, 97032, Note_on_c, 1, 48, 0
3, 97039, Note_on_c, 1, 40, 0
3, 97070, Control_c, 1, 64, 0
3, 97080, Note_on_c, 1, 41, 103
3, 97080, Note_on_c, 1, 48, 117
3, 97080, Note_on_c, 1, 57, 103
3, 97095, Note_on_c, 1, 48, 0
3, 97099, Note_on_c, 1, 57, 0
3, 97100, Note_on_c, 1, 41, 0
3, 97140, Note_on_c, 1, 55, 103
3, 97140, Note_on_c, 1, 48, 99
3, 97140, Note_on_c, 1, 43, 103
3, 97158, Note_on_c, 1, 48, 0
3, 97161, Note_on_c, 1, 43, 0
3, 97162, Note_on_c, 1, 55, 0
3, 97192, Control_c, 1, 64, 127
3, 97200, Note_on_c, 1, 48, 103
3, 97200, Note_on_c, 1, 53, 103
3, 97200, Note_on_c, 1, 45, 108
3, 97214, Note_on_c, 1, 48, 0
3, 97217, Note_on_c, 1, 45, 0
3, 97217, Note_on_c, 1, 53, 0
3, 97217, Control_c, 1, 64, 0
3, 97320, Note_on_c, 1, 69, 108
3, 97320, Note_on_c, 1, 41, 86
3, 97332, Control_c, 1, 64, 127
3, 97340, Note_on_c, 1, 69, 0
3, 97350, Note_on_c, 1, 72, 99
3, 97368, Note_on_c, 1, 72, 0
3, 97380, Note_on_c, 1, 74, 103
3, 97399, Note_on_c, 1, 74, 0
3, 97410, Note_on_c, 1, 72, 95
3, 97425, Note_on_c, 1, 41, 0
3, 97428, Note_on_c, 1, 72, 0
3, 97432, Control_c, 1, 64, 0
3, 97440, Note_on_c, 1, 70, 117
3, 97440, Note_on_c, 1, 45, 103
3, 97458, Note_on_c, 1, 70, 0
3, 97463, Control_c, 1, 64, 127
3, 97470, Note_on_c, 1, 69, 108
3, 97490, Note_on_c, 1, 69, 0
3, 97500, Note_on_c, 1, 67, 103
3, 97517, Note_on_c, 1, 67, 0
3, 97530, Note_on_c, 1, 65, 108
3, 97544, Note_on_c, 1, 45, 0
3, 97544, Control_c, 1, 64, 0
3, 97545, Note_on_c, 1, 65, 0
3, 97560, Note_on_c, 1, 64, 112
3, 97560, Note_on_c, 1, 48, 99
3, 97575, Control_c, 1, 64, 127
3, 97580, Note_on_c, 1, 64, 0
3, 97590, Note_on_c, 1, 65, 103
3, 97607, Note_on_c, 1, 65, 0
3, 97620, Note_on_c, 1, 67, 95
3, 97644, Note_on_c, 1, 67, 0
3, 97650, Note_on_c, 1, 65, 99
3, 97662, Note_on_c, 1, 48, 0
3, 97664, Note_on_c, 1, 65, 0
3, 97670, Control_c, 1, 64, 0
3, 97680, Note_on_c, 1, 40, 99
3, 97680, Note_on_c, 1, 64, 99
3, 97699, Note_on_c, 1, 64, 0
3, 97702, Control_c, 1, 64, 127
3, 97710, Note_on_c, 1, 62, 90
3, 97729, Note_on_c, 1, 62, 0
3, 97740, Note_on_c, 1, 60, 103
3, 97766, Note_on_c, 1, 60, 0
3, 97770, Note_on_c, 1, 58, 108
3, 97781, Note_on_c, 1, 40, 0
3, 97782, Control_c, 1, 64, 0
3, 97786, Note_on_c, 1, 58, 0
3, 97800, Note_on_c, 1, 41, 90
3, 97800, Note_on_c, 1, 57, 123
3, 97800, Note_on_c, 1, 60, 90
3, 97817, Control_c, 1, 64, 127
3, 97822, Note_on_c, 1, 60, 0
3, 97822, Note_on_c, 1, 57, 0
3, 97830, Note_on_c, 1, 65, 86
3, 97854, Note_on_c, 1, 65, 0
3, 97859, Note_on_c, 1, 41, 0
3, 97860, Note_on_c, 1, 60, 95
3, 97874, Note_on_c, 1, 60, 0
3, 97890, Note_on_c, 1, 58, 108
3, 97890, Note_on_c, 1, 34, 95
3, 97896, Control_c, 1, 64, 0
3, 97909, Note_on_c, 1, 58, 0
3, 97920, Note_on_c, 1, 62, 103
3, 97922, Control_c, 1, 64, 127
3, 97942, Note_on_c, 1, 62, 0
3, 97950, Note_on_c, 1, 67, 86
3, 97971, Note_on_c, 1, 34, 0
3, 97975, Note_on_c, 1, 67, 0
3, 97980, Note_on_c, 1, 62, 90
3, 97993, Note_on_c, 1, 62, 0
3, 98010, Note_on_c, 1, 55, 103
3, 98023, Control_c, 1, 64, 0
3, 98031, Note_on_c, 1, 55, 0
3, 98040, Note_on_c, 1, 36, 103
3, 98040, Note_on_c, 1, 58, 99
3, 98054, Control_c, 1, 64, 127
3, 98062, Note_on_c, 1, 58, 0
3, 98100, Note_on_c, 1, 64, 82
3, 98126, Note_on_c, 1, 64, 0
3, 98130, Note_on_c, 1, 58, 108
3, 98136, Control_c, 1, 64, 0
3, 98144, Note_on_c, 1, 36, 0
3, 98148, Note_on_c, 1, 58, 0
3, 98160, Note_on_c, 1, 65, 103
3, 98160, Note_on_c, 1, 41, 99
3, 98161, Control_c, 1, 64, 127
3, 98195, Note_on_c, 1, 65, 0
3, 98200, Note_on_c, 1, 41, 0
3, 98240, Control_c, 1, 64, 0
3, 98280, Note_on_c, 1, 52, 78
3, 98280, Note_on_c, 1, 48, 70
3, 98290, Control_c, 1, 64, 127
3, 98309, Note_on_c, 1, 52, 0
3, 98310, Note_on_c, 1, 55, 95
3, 98335, Note_on_c, 1, 55, 0
3, 98340, Note_on_c, 1, 60, 82
3, 98369, Note_on_c, 1, 60, 0
3, 98370, Note_on_c, 1, 55, 82
3, 98389, Note_on_c, 1, 55, 0
3, 98400, Note_on_c, 1, 52, 78
3, 98423, Note_on_c, 1, 52, 0
3, 98430, Note_on_c, 1, 55, 99
3, 98454, Note_on_c, 1, 55, 0
3, 98460, Note_on_c, 1, 60, 95
3, 98485, Note_on_c, 1, 60, 0
3, 98490, Note_on_c, 1, 55, 86
3, 98504, Note_on_c, 1, 48, 0
3, 98507, Note_on_c, 1, 55, 0
3, 98520, Note_on_c, 1, 53, 103
3, 98520, Note_on_c, 1, 43, 99
3, 98522, Control_c, 1, 64, 0
3, 98545, Note_on_c, 1, 53, 0
3, 98548, Control_c, 1, 64, 127
3, 98550, Note_on_c, 1, 55, 82
3, 98574, Note_on_c, 1, 55, 0
3, 98580, Note_on_c, 1, 59, 99
3, 98605, Note_on_c, 1, 59, 0
3, 98610, Note_on_c, 1, 55, 86
3, 98631, Note_on_c, 1, 55, 0
3, 98640, Note_on_c, 1, 53, 99
3, 98665, Note_on_c, 1, 53, 0
3, 98670, Note_on_c, 1, 55, 95
3, 98695, Note_on_c, 1, 55, 0
3, 98700, Note_on_c, 1, 59, 90
3, 98726, Note_on_c, 1, 59, 0
3, 98730, Note_on_c, 1, 55, 78
3, 98735, Note_on_c, 1, 43, 0
3, 98746, Note_on_c, 1, 55, 0
3, 98757, Control_c, 1, 64, 0
3, 98760, Note_on_c, 1, 52, 103
3, 98760, Note_on_c, 1, 36, 95
3, 98782, Control_c, 1, 64, 127
3, 98783, Note_on_c, 1, 52, 0
3, 98790, Note_on_c, 1, 55, 99
3, 98815, Note_on_c, 1, 55, 0
3, 98820, Note_on_c, 1, 60, 95
3, 98848, Note_on_c, 1, 60, 0
3, 98850, Note_on_c, 1, 55, 86
3, 98871, Note_on_c, 1, 55, 0
3, 98880, Note_on_c, 1, 52, 86
3, 98904, Note_on_c, 1, 52, 0
3, 98910, Note_on_c, 1, 55, 103
3, 98932, Note_on_c, 1, 55, 0
3, 98940, Note_on_c, 1, 60, 95
3, 98964, Note_on_c, 1, 60, 0
3, 98970, Note_on_c, 1, 55, 86
3, 98979, Note_on_c, 1, 36, 0
3, 98989, Note_on_c, 1, 55, 0
3, 98998, Control_c, 1, 64, 0
3, 99000, Note_on_c, 1, 53, 108
3, 99000, Note_on_c, 1, 43, 86
3, 99021, Control_c, 1, 64, 127
3, 99025, Note_on_c, 1, 53, 0
3, 99030, Note_on_c, 1, 55, 95
3, 99055, Note_on_c, 1, 55, 0
3, 99060, Note_on_c, 1, 59, 86
3, 99087, Note_on_c, 1, 59, 0
3, 99090, Note_on_c, 1, 55, 86
3, 99110, Note_on_c, 1, 55, 0
3, 99120, Note_on_c, 1, 53, 103
3, 99144, Note_on_c, 1, 53, 0
3, 99150, Note_on_c, 1, 55, 86
3, 99174, Note_on_c, 1, 55, 0
3, 99180, Note_on_c, 1, 59, 86
3, 99201, Note_on_c, 1, 43, 0
3, 99203, Note_on_c, 1, 59, 0
3, 99210, Note_on_c, 1, 55, 95
3, 99226, Note_on_c, 1, 55, 0
3, 99236, Control_c, 1, 64, 0
3, 99240, Note_on_c, 1, 52, 112
3, 99240, Note_on_c, 1, 48, 90
3, 99260, Control_c, 1, 64, 127
3, 99262, Note_on_c, 1, 52, 0
3, 99270, Note_on_c, 1, 55, 99
3, 99294, Note_on_c, 1, 55, 0
3, 99300, Note_on_c, 1, 60, 95
3, 99326, Note_on_c, 1, 60, 0
3, 99330, Note_on_c, 1, 55, 90
3, 99350, Note_on_c, 1, 55, 0
3, 99360, Note_on_c, 1, 52, 90
3, 99382, Note_on_c, 1, 52, 0
3, 99390, Note_on_c, 1, 55, 95
3, 99414, Note_on_c, 1, 55, 0
3, 99420, Note_on_c, 1, 60, 99
3, 99446, Note_on_c, 1, 60, 0
3, 99450, Note_on_c, 1, 55, 82
3, 99467, Note_on_c, 1, 55, 0
3, 99471, Note_on_c, 1, 48, 0
3, 99477, Control_c, 1, 64, 0
3, 99480, Note_on_c, 1, 53, 103
3, 99480, Note_on_c, 1, 43, 82
3, 99500, Control_c, 1, 64, 127
3, 99504, Note_on_c, 1, 53, 0
3, 99510, Note_on_c, 1, 55, 99
3, 99532, Note_on_c, 1, 55, 0
3, 99540, Note_on_c, 1, 59, 90
3, 99567, Note_on_c, 1, 59, 0
3, 99570, Note_on_c, 1, 55, 86
3, 99589, Note_on_c, 1, 55, 0
3, 99600, Note_on_c, 1, 53, 99
3, 99622, Note_on_c, 1, 53, 0
3, 99630, Note_on_c, 1, 55, 95
3, 99653, Note_on_c, 1, 55, 0
3, 99660, Note_on_c, 1, 59, 90
3, 99683, Note_on_c, 1, 59, 0
3, 99690, Note_on_c, 1, 55, 95
3, 99705, Note_on_c, 1, 55, 0
3, 99713, Note_on_c, 1, 43, 0
3, 99719, Control_c, 1, 64, 0
3, 99720, Note_on_c, 1, 52, 103
3, 99720, Note_on_c, 1, 36, 99
3, 99742, Note_on_c, 1, 52, 0
3, 99742, Control_c, 1, 64, 127
3, 99750, Note_on_c, 1, 55, 95
3, 99773, Note_on_c, 1, 55, 0
3, 99780, Note_on_c, 1, 60, 90
3, 99805, Note_on_c, 1, 60, 0
3, 99810, Note_on_c, 1, 55, 86
3, 99828, Note_on_c, 1, 55, 0
3, 99840, Note_on_c, 1, 52, 99
3, 99861, Note_on_c, 1, 52, 0
3, 99870, Note_on_c, 1, 55, 86
3, 99893, Note_on_c, 1, 55, 0
3, 99900, Note_on_c, 1, 60, 99
3, 99930, Note_on_c, 1, 55, 82
3, 99934, Note_on_c, 1, 60, 0
3, 99949, Note_on_c, 1, 55, 0
3, 99953, Note_on_c, 1, 36, 0
3, 99960, Note_on_c, 1, 50, 66
3, 99960, Note_on_c, 1, 43, 95
3, 99964, Control_c, 1, 64, 0
3, 99986, Note_on_c, 1, 50, 0
3, 99987, Control_c, 1, 64, 127
3, 99990, Note_on_c, 1, 55, 99
3, 100013, Note_on_c, 1, 55, 0
3, 100020, Note_on_c, 1, 59, 99
3, 100047, Note_on_c, 1, 59, 0
3, 100050, Note_on_c, 1, 55, 99
3, 100063, Note_on_c, 1, 43, 0
3, 100069, Note_on_c, 1, 55, 0
3, 100069, Control_c, 1, 64, 0
3, 100080, Note_on_c, 1, 60, 103
3, 100080, Note_on_c, 1, 36, 99
3, 100080, Note_on_c, 1, 48, 86
3, 100088, Control_c, 1, 64, 127
3, 100126, Note_on_c, 1, 60, 0
3, 100137, Note_on_c, 1, 36, 0
3, 100141, Note_on_c, 1, 48, 0
3, 100169, Control_c, 1, 64, 0
3, 100200, Note_on_c, 1, 53, 108
3, 100200, Note_on_c, 1, 43, 95
3, 100207, Control_c, 1, 64, 127
3, 100224, Note_on_c, 1, 53, 0
3, 100230, Note_on_c, 1, 55, 99
3, 100251, Note_on_c, 1, 55, 0
3, 100260, Note_on_c, 1, 59, 95
3, 100286, Note_on_c, 1, 59, 0
3, 100290, Note_on_c, 1, 55, 90
3, 100308, Note_on_c, 1, 55, 0
3, 100320, Note_on_c, 1, 53, 99
3, 100324, Control_c, 1, 64, 0
3, 100337, Control_c, 1, 64, 127
3, 100348, Note_on_c, 1, 53, 0
3, 100350, Note_on_c, 1, 55, 90
3, 100373, Note_on_c, 1, 55, 0
3, 100380, Note_on_c, 1, 59, 95
3, 100404, Note_on_c, 1, 59, 0
3, 100410, Note_on_c, 1, 55, 90
3, 100428, Note_on_c, 1, 43, 0
3, 100429, Note_on_c, 1, 55, 0
3, 100440, Note_on_c, 1, 52, 112
3, 100440, Note_on_c, 1, 36, 99
3, 100453, Control_c, 1, 64, 0
3, 100470, Note_on_c, 1, 52, 0
3, 100470, Note_on_c, 1, 55, 99
3, 100477, Control_c, 1, 64, 127
3, 100494, Note_on_c, 1, 55, 0
3, 100500, Note_on_c, 1, 60, 103
3, 100525, Note_on_c, 1, 60, 0
3, 100530, Note_on_c, 1, 55, 74
3, 100554, Note_on_c, 1, 55, 0
3, 100560, Note_on_c, 1, 52, 99
3, 100582, Note_on_c, 1, 52, 0
3, 100590, Note_on_c, 1, 55, 99
3, 100610, Note_on_c, 1, 55, 0
3, 100620, Note_on_c, 1, 60, 99
3, 100625, Note_on_c, 1, 36, 0
3, 100647, Note_on_c, 1, 60, 0
3, 100650, Note_on_c, 1, 55, 90
3, 100667, Note_on_c, 1, 55, 0
3, 100679, Control_c, 1, 64, 0
3, 100680, Note_on_c, 1, 53, 112
3, 100680, Note_on_c, 1, 31, 99
3, 100680, Note_on_c, 1, 43, 99
3, 100704, Control_c, 1, 64, 127
3, 100705, Note_on_c, 1, 53, 0
3, 100710, Note_on_c, 1, 55, 86
3, 100733, Note_on_c, 1, 55, 0
3, 100740, Note_on_c, 1, 59, 103
3, 100764, Note_on_c, 1, 59, 0
3, 100770, Note_on_c, 1, 55, 82
3, 100789, Note_on_c, 1, 55, 0
3, 100800, Note_on_c, 1, 53, 108
3, 100821, Note_on_c, 1, 53, 0
3, 100830, Note_on_c, 1, 55, 95
3, 100847, Note_on_c, 1, 31, 0
3, 100850, Note_on_c, 1, 55, 0
3, 100860, Note_on_c, 1, 59, 99
3, 100862, Note_on_c, 1, 43, 0
3, 100883, Note_on_c, 1, 59, 0
3, 100890, Note_on_c, 1, 55, 95
3, 100906, Note_on_c, 1, 55, 0
3, 100920, Note_on_c, 1, 36, 90
3, 100920, Note_on_c, 1, 52, 103
3, 100920, Note_on_c, 1, 48, 74
3, 100921, Control_c, 1, 64, 0
3, 100943, Note_on_c, 1, 52, 0
3, 100946, Control_c, 1, 64, 127
3, 100950, Note_on_c, 1, 55, 103
3, 100973, Note_on_c, 1, 55, 0
3, 100980, Note_on_c, 1, 60, 86
3, 101006, Note_on_c, 1, 60, 0
3, 101010, Note_on_c, 1, 55, 99
3, 101030, Note_on_c, 1, 55, 0
3, 101040, Note_on_c, 1, 52, 108
3, 101059, Note_on_c, 1, 52, 0
3, 101070, Note_on_c, 1, 55, 103
3, 101090, Note_on_c, 1, 55, 0
3, 101100, Note_on_c, 1, 60, 95
3, 101125, Note_on_c, 1, 60, 0
3, 101130, Note_on_c, 1, 55, 95
3, 101148, Note_on_c, 1, 55, 0
3, 101152, Note_on_c, 1, 48, 0
3, 101155, Note_on_c, 1, 36, 0
3, 101160, Note_on_c, 1, 53, 103
3, 101160, Note_on_c, 1, 43, 82
3, 101160, Control_c, 1, 64, 0
3, 101183, Control_c, 1, 64, 127
3, 101184, Note_on_c, 1, 53, 0
3, 101190, Note_on_c, 1, 55, 99
3, 101213, Note_on_c, 1, 55, 0
3, 101220, Note_on_c, 1, 59, 90
3, 101244, Note_on_c, 1, 59, 0
3, 101250, Note_on_c, 1, 55, 86
3, 101270, Note_on_c, 1, 55, 0
3, 101280, Note_on_c, 1, 53, 103
3, 101302, Note_on_c, 1, 53, 0
3, 101310, Note_on_c, 1, 55, 95
3, 101333, Note_on_c, 1, 55, 0
3, 101340, Note_on_c, 1, 59, 90
3, 101369, Note_on_c, 1, 59, 0
3, 101370, Note_on_c, 1, 55, 78
3, 101389, Note_on_c, 1, 55, 0
3, 101392, Note_on_c, 1, 43, 0
3, 101398, Control_c, 1, 64, 0
3, 101400, Note_on_c, 1, 52, 108
3, 101400, Note_on_c, 1, 36, 95
3, 101420, Control_c, 1, 64, 127
3, 101425, Note_on_c, 1, 52, 0
3, 101430, Note_on_c, 1, 55, 95
3, 101454, Note_on_c, 1, 55, 0
3, 101460, Note_on_c, 1, 60, 95
3, 101488, Note_on_c, 1, 60, 0
3, 101490, Note_on_c, 1, 55, 95
3, 101512, Note_on_c, 1, 55, 0
3, 101520, Note_on_c, 1, 52, 103
3, 101544, Note_on_c, 1, 52, 0
3, 101550, Note_on_c, 1, 55, 99
3, 101572, Note_on_c, 1, 36, 0
3, 101574, Note_on_c, 1, 55, 0
3, 101580, Note_on_c, 1, 60, 99
3, 101608, Note_on_c, 1, 60, 0
3, 101610, Note_on_c, 1, 55, 95
3, 101629, Note_on_c, 1, 55, 0
3, 101631, Control_c, 1, 64, 0
3, 101640, Note_on_c, 1, 53, 108
3, 101640, Note_on_c, 1, 31, 95
3, 101640, Note_on_c, 1, 43, 82
3, 101656, Control_c, 1, 64, 127
3, 101665, Note_on_c, 1, 53, 0
3, 101670, Note_on_c, 1, 55, 99
3, 101692, Note_on_c, 1, 55, 0
3, 101700, Note_on_c, 1, 59, 90
3, 101726, Note_on_c, 1, 59, 0
3, 101730, Note_on_c, 1, 55, 86
3, 101752, Note_on_c, 1, 55, 0
3, 101760, Note_on_c, 1, 53, 108
3, 101784, Note_on_c, 1, 53, 0
3, 101790, Note_on_c, 1, 55, 95
3, 101812, Note_on_c, 1, 55, 0
3, 101814, Note_on_c, 1, 31, 0
3, 101820, Note_on_c, 1, 59, 95
3, 101836, Note_on_c, 1, 43, 0
3, 101849, Note_on_c, 1, 59, 0
3, 101850, Note_on_c, 1, 55, 90
3, 101870, Note_on_c, 1, 55, 0
3, 101874, Control_c, 1, 64, 0
3, 101880, Note_on_c, 1, 36, 86
3, 101880, Note_on_c, 1, 48, 74
3, 101880, Note_on_c, 1, 52, 103
3, 101898, Control_c, 1, 64, 127
3, 101905, Note_on_c, 1, 52, 0
3, 101910, Note_on_c, 1, 55, 95
3, 101935, Note_on_c, 1, 55, 0
3, 101940, Note_on_c, 1, 60, 99
3, 101968, Note_on_c, 1, 60, 0
3, 101970, Note_on_c, 1, 59, 103
3, 101990, Note_on_c, 1, 59, 0
3, 102000, Note_on_c, 1, 60, 103
3, 102022, Control_c, 1, 64, 0
3, 102044, Control_c, 1, 64, 127
3, 102081, Note_on_c, 1, 36, 0
3, 102082, Note_on_c, 1, 60, 0
3, 102082, Note_on_c, 1, 48, 0
3, 102093, Control_c, 1, 64, 0
3, 102120, Note_on_c, 1, 57, 103
3, 102120, Note_on_c, 1, 60, 90
3, 102120, Note_on_c, 1, 41, 82
3, 102124, Control_c, 1, 64, 127
3, 102260, Note_on_c, 1, 57, 0
3, 102261, Note_on_c, 1, 60, 0
3, 102300, Note_on_c, 1, 58, 82
3, 102300, Note_on_c, 1, 55, 103
3, 102320, Note_on_c, 1, 55, 0
3, 102325, Note_on_c, 1, 58, 0
3, 102336, Note_on_c, 1, 41, 0
3, 102360, Note_on_c, 1, 53, 108
3, 102360, Note_on_c, 1, 57, 103
3, 102360, Note_on_c, 1, 41, 86
3, 102371, Control_c, 1, 64, 0
3, 102407, Control_c, 1, 64, 127
3, 102445, Note_on_c, 1, 57, 0
3, 102450, Note_on_c, 1, 53, 0
3, 102480, Note_on_c, 1, 53, 99
3, 102480, Note_on_c, 1, 57, 103
3, 102505, Note_on_c, 1, 57, 0
3, 102506, Note_on_c, 1, 53, 0
3, 102518, Note_on_c, 1, 41, 0
3, 102592, Control_c, 1, 64, 0
3, 102600, Note_on_c, 1, 57, 108
3, 102600, Note_on_c, 1, 41, 86
3, 102600, Note_on_c, 1, 48, 103
3, 102629, Control_c, 1, 64, 127
3, 102669, Note_on_c, 1, 57, 0
3, 102679, Note_on_c, 1, 48, 0
3, 102780, Note_on_c, 1, 55, 99
3, 102780, Note_on_c, 1, 46, 103
3, 102791, Note_on_c, 1, 41, 0
3, 102799, Note_on_c, 1, 46, 0
3, 102804, Note_on_c, 1, 55, 0
3, 102827, Control_c, 1, 64, 0
3, 102840, Note_on_c, 1, 41, 82
3, 102840, Note_on_c, 1, 45, 99
3, 102840, Note_on_c, 1, 53, 99
3, 102883, Control_c, 1, 64, 127
3, 102909, Note_on_c, 1, 53, 0
3, 102915, Note_on_c, 1, 45, 0
3, 102960, Note_on_c, 1, 53, 103
3, 102960, Note_on_c, 1, 45, 103
3, 102979, Note_on_c, 1, 45, 0
3, 102984, Note_on_c, 1, 53, 0
3, 102984, Note_on_c, 1, 41, 0
3, 103067, Control_c, 1, 64, 0
3, 103080, Note_on_c, 1, 48, 90
3, 103080, Note_on_c, 1, 52, 103
3, 103113, Control_c, 1, 64, 127
3, 103139, Note_on_c, 1, 52, 0
3, 103140, Note_on_c, 1, 55, 95
3, 103197, Note_on_c, 1, 55, 0
3, 103198, Control_c, 1, 64, 0
3, 103200, Note_on_c, 1, 60, 108
3, 103214, Note_on_c, 1, 60, 0
3, 103260, Note_on_c, 1, 60, 112
3, 103276, Note_on_c, 1, 60, 0
3, 103319, Note_on_c, 1, 48, 0
3, 103320, Note_on_c, 1, 41, 86
3, 103320, Note_on_c, 1, 53, 99
3, 103360, Control_c, 1, 64, 127
3, 103378, Note_on_c, 1, 53, 0
3, 103380, Note_on_c, 1, 57, 103
3, 103398, Note_on_c, 1, 57, 0
3, 103440, Note_on_c, 1, 60, 117
3, 103452, Control_c, 1, 64, 0
3, 103453, Note_on_c, 1, 60, 0
3, 103500, Note_on_c, 1, 60, 108
3, 103516, Note_on_c, 1, 60, 0
3, 103550, Note_on_c, 1, 41, 0
3, 103560, Note_on_c, 1, 36, 90
3, 103560, Note_on_c, 1, 52, 99
3, 103605, Control_c, 1, 64, 127
3, 103613, Note_on_c, 1, 52, 0
3, 103620, Note_on_c, 1, 55, 95
3, 103641, Note_on_c, 1, 55, 0
3, 103678, Control_c, 1, 64, 0
3, 103680, Note_on_c, 1, 60, 108
3, 103696, Note_on_c, 1, 60, 0
3, 103740, Note_on_c, 1, 60, 99
3, 103742, Note_on_c, 1, 36, 0
3, 103762, Note_on_c, 1, 60, 0
3, 103800, Note_on_c, 1, 57, 103
3, 103800, Note_on_c, 1, 53, 108
3, 103808, Control_c, 1, 64, 127
3, 103830, Note_on_c, 1, 53, 0
3, 103830, Note_on_c, 1, 57, 0
3, 103920, Note_on_c, 1, 53, 103
3, 103922, Control_c, 1, 64, 0
3, 103947, Note_on_c, 1, 53, 0
3, 103950, Note_on_c, 1, 48, 103
3, 103972, Note_on_c, 1, 48, 0
3, 103980, Note_on_c, 1, 45, 90
3, 104009, Note_on_c, 1, 45, 0
3, 104010, Note_on_c, 1, 41, 117
3, 104032, Note_on_c, 1, 41, 0
3, 104040, Note_on_c, 1, 55, 95
3, 104040, Note_on_c, 1, 52, 99
3, 104040, Note_on_c, 1, 36, 90
3, 104065, Control_c, 1, 64, 127
3, 104105, Note_on_c, 1, 52, 0
3, 104106, Note_on_c, 1, 55, 0
3, 104220, Note_on_c, 1, 36, 0
3, 104220, Note_on_c, 1, 53, 82
3, 104220, Note_on_c, 1, 50, 103
3, 104246, Note_on_c, 1, 50, 0
3, 104246, Note_on_c, 1, 53, 0
3, 104262, Control_c, 1, 64, 0
3, 104280, Note_on_c, 1, 48, 95
3, 104280, Note_on_c, 1, 36, 74
3, 104280, Note_on_c, 1, 52, 99
3, 104314, Control_c, 1, 64, 127
3, 104321, Note_on_c, 1, 48, 0
3, 104327, Note_on_c, 1, 52, 0
3, 104340, Note_on_c, 1, 53, 90
3, 104340, Note_on_c, 1, 50, 90
3, 104366, Note_on_c, 1, 50, 0
3, 104375, Note_on_c, 1, 53, 0
3, 104379, Control_c, 1, 64, 0
3, 104400, Note_on_c, 1, 55, 99
3, 104400, Note_on_c, 1, 52, 99
3, 104406, Control_c, 1, 64, 127
3, 104420, Note_on_c, 1, 52, 0
3, 104424, Note_on_c, 1, 55, 0
3, 104460, Note_on_c, 1, 53, 103
3, 104460, Note_on_c, 1, 57, 99
3, 104472, Note_on_c, 1, 36, 0
3, 104475, Note_on_c, 1, 57, 0
3, 104478, Note_on_c, 1, 53, 0
3, 104491, Control_c, 1, 64, 0
3, 104520, Note_on_c, 1, 58, 90
3, 104520, Note_on_c, 1, 36, 90
3, 104520, Note_on_c, 1, 55, 95
3, 104556, Control_c, 1, 64, 127
3, 104594, Note_on_c, 1, 55, 0
3, 104600, Note_on_c, 1, 58, 0
3, 104623, Control_c, 1, 64, 0
3, 104640, Note_on_c, 1, 53, 99
3, 104640, Note_on_c, 1, 57, 103
3, 104648, Control_c, 1, 64, 127
3, 104714, Note_on_c, 1, 57, 0
3, 104718, Note_on_c, 1, 53, 0
3, 104745, Note_on_c, 1, 36, 0
3, 104757, Control_c, 1, 64, 0
3, 104760, Note_on_c, 1, 36, 78
3, 104760, Note_on_c, 1, 55, 103
3, 104760, Note_on_c, 1, 52, 103
3, 104792, Control_c, 1, 64, 127
3, 104827, Note_on_c, 1, 52, 0
3, 104837, Note_on_c, 1, 55, 0
3, 104877, Control_c, 1, 64, 0
3, 104991, Note_on_c, 1, 36, 0
3, 105000, Note_on_c, 1, 41, 99
3, 105000, Note_on_c, 1, 60, 108
3, 105000, Note_on_c, 1, 57, 112
3, 105037, Control_c, 1, 64, 127
3, 105078, Note_on_c, 1, 60, 0
3, 105080, Note_on_c, 1, 57, 0
3, 105180, Note_on_c, 1, 58, 82
3, 105180, Note_on_c, 1, 55, 99
3, 105205, Note_on_c, 1, 55, 0
3, 105210, Note_on_c, 1, 58, 0
3, 105215, Note_on_c, 1, 41, 0
3, 105233, Control_c, 1, 64, 0
3, 105240, Note_on_c, 1, 41, 86
3, 105240, Note_on_c, 1, 57, 108
3, 105240, Note_on_c, 1, 53, 108
3, 105281, Control_c, 1, 64, 127
3, 105282, Note_on_c, 1, 53, 0
3, 105286, Note_on_c, 1, 57, 0
3, 105300, Note_on_c, 1, 58, 82
3, 105300, Note_on_c, 1, 55, 99
3, 105325, Note_on_c, 1, 55, 0
3, 105335, Note_on_c, 1, 58, 0
3, 105347, Control_c, 1, 64, 0
3, 105360, Note_on_c, 1, 57, 103
3, 105360, Note_on_c, 1, 60, 103
3, 105373, Control_c, 1, 64, 127
3, 105386, Note_on_c, 1, 57, 0
3, 105388, Note_on_c, 1, 60, 0
3, 105420, Note_on_c, 1, 62, 108
3, 105420, Note_on_c, 1, 58, 103
3, 105437, Note_on_c, 1, 41, 0
3, 105441, Note_on_c, 1, 58, 0
3, 105441, Note_on_c, 1, 62, 0
3, 105458, Control_c, 1, 64, 0
3, 105480, Note_on_c, 1, 60, 99
3, 105480, Note_on_c, 1, 41, 86
3, 105480, Note_on_c, 1, 63, 99
3, 105480, Note_on_c, 1, 63, 95
3, 105480, Note_on_c, 1, 60, 108
3, 105480, Note_on_c, 1, 41, 86
3, 105494, Control_c, 1, 64, 127
3, 105510, Note_on_c, 1, 63, 0
3, 105534, Note_on_c, 1, 60, 0
3, 105538, Note_on_c, 1, 63, 0
3, 105547, Note_on_c, 1, 60, 0
3, 105600, Note_on_c, 1, 58, 99
3, 105600, Note_on_c, 1, 62, 108
3, 105639, Note_on_c, 1, 58, 0
3, 105642, Note_on_c, 1, 62, 0
3, 105676, Note_on_c, 1, 41, 0
3, 105717, Control_c, 1, 64, 0
3, 105720, Note_on_c, 1, 57, 108
3, 105720, Note_on_c, 1, 60, 108
3, 105720, Note_on_c, 1, 41, 86
3, 105748, Control_c, 1, 64, 127
3, 105820, Note_on_c, 1, 41, 0
3, 105829, Note_on_c, 1, 57, 0
3, 105830, Note_on_c, 1, 60, 0
3, 105844, Control_c, 1, 64, 0
3, 105901, Note_on_c, 1, 41, 0
3, 106680, Note_on_c, 1, 48, 103
3, 106680, Note_on_c, 1, 60, 108
3, 106693, Control_c, 1, 64, 127
3, 106724, Control_c, 1, 64, 0
3, 106734, Note_on_c, 1, 60, 0
3, 106740, Note_on_c, 1, 46, 103
3, 106740, Note_on_c, 1, 58, 99
3, 106741, Note_on_c, 1, 48, 0
3, 106793, Note_on_c, 1, 58, 0
3, 106800, Note_on_c, 1, 46, 0
3, 106800, Note_on_c, 1, 57, 103
3, 106800, Note_on_c, 1, 45, 82
3, 106809, Control_c, 1, 64, 127
3, 106848, Control_c, 1, 64, 0
3, 106858, Note_on_c, 1, 45, 0
3, 106859, Note_on_c, 1, 57, 0
3, 106860, Note_on_c, 1, 43, 78
3, 106860, Note_on_c, 1, 55, 99
3, 106908, Note_on_c, 1, 55, 0
3, 106920, Note_on_c, 1, 43, 0
3, 106920, Note_on_c, 1, 41, 99
3, 106920, Note_on_c, 1, 60, 103
3, 106920, Note_on_c, 1, 57, 108
3, 106962, Control_c, 1, 64, 127
3, 107012, Note_on_c, 1, 57, 0
3, 107012, Note_on_c, 1, 60, 0
3, 107100, Note_on_c, 1, 58, 90
3, 107100, Note_on_c, 1, 55, 99
3, 107123, Note_on_c, 1, 55, 0
3, 107130, Note_on_c, 1, 58, 0
3, 107132, Note_on_c, 1, 41, 0
3, 107160, Note_on_c, 1, 57, 112
3, 107160, Note_on_c, 1, 53, 117
3, 107160, Note_on_c, 1, 41, 103
3, 107164, Control_c, 1, 64, 0
3, 107206, Control_c, 1, 64, 127
3, 107251, Note_on_c, 1, 57, 0
3, 107254, Note_on_c, 1, 53, 0
3, 107280, Note_on_c, 1, 53, 108
3, 107280, Note_on_c, 1, 57, 108
3, 107309, Note_on_c, 1, 53, 0
3, 107310, Note_on_c, 1, 57, 0
3, 107334, Note_on_c, 1, 41, 0
3, 107388, Control_c, 1, 64, 0
3, 107400, Note_on_c, 1, 57, 112
3, 107400, Note_on_c, 1, 53, 108
3, 107400, Note_on_c, 1, 38, 99
3, 107400, Note_on_c, 1, 50, 112
3, 107432, Control_c, 1, 64, 127
3, 107491, Note_on_c, 1, 57, 0
3, 107494, Note_on_c, 1, 53, 0
3, 107497, Note_on_c, 1, 50, 0
3, 107580, Note_on_c, 1, 52, 108
3, 107580, Note_on_c, 1, 55, 103
3, 107602, Note_on_c, 1, 52, 0
3, 107604, Note_on_c, 1, 38, 0
3, 107607, Note_on_c, 1, 55, 0
3, 107638, Control_c, 1, 64, 0
3, 107640, Note_on_c, 1, 50, 108
3, 107640, Note_on_c, 1, 53, 103
3, 107640, Note_on_c, 1, 38, 103
3, 107685, Control_c, 1, 64, 127
3, 107724, Note_on_c, 1, 50, 0
3, 107732, Note_on_c, 1, 53, 0
3, 107760, Note_on_c, 1, 53, 99
3, 107760, Note_on_c, 1, 50, 99
3, 107764, Note_on_c, 1, 38, 0
3, 107784, Note_on_c, 1, 53, 0
3, 107795, Note_on_c, 1, 50, 0
3, 107880, Note_on_c, 1, 53, 112
3, 107880, Note_on_c, 1, 50, 117
3, 107880, Note_on_c, 1, 34, 90
3, 107890, Control_c, 1, 64, 0
3, 107939, Control_c, 1, 64, 127
3, 107975, Note_on_c, 1, 50, 0
3, 107979, Note_on_c, 1, 53, 0
3, 108060, Note_on_c, 1, 48, 90
3, 108060, Note_on_c, 1, 51, 86
3, 108068, Note_on_c, 1, 34, 0
3, 108082, Note_on_c, 1, 48, 0
3, 108089, Note_on_c, 1, 51, 0
3, 108109, Control_c, 1, 64, 0
3, 108120, Note_on_c, 1, 34, 90
3, 108120, Note_on_c, 1, 50, 117
3, 108120, Note_on_c, 1, 46, 108
3, 108146, Control_c, 1, 64, 127
3, 108163, Note_on_c, 1, 46, 0
3, 108163, Note_on_c, 1, 50, 0
3, 108300, Note_on_c, 1, 58, 99
3, 108300, Note_on_c, 1, 50, 103
3, 108309, Note_on_c, 1, 34, 0
3, 108326, Note_on_c, 1, 50, 0
3, 108329, Note_on_c, 1, 58, 0
3, 108346, Control_c, 1, 64, 0
3, 108360, Note_on_c, 1, 57, 103
3, 108360, Note_on_c, 1, 36, 86
3, 108360, Note_on_c, 1, 48, 108
3, 108380, Control_c, 1, 64, 127
3, 108391, Note_on_c, 1, 48, 0
3, 108397, Note_on_c, 1, 57, 0
3, 108420, Note_on_c, 1, 55, 103
3, 108420, Note_on_c, 1, 46, 99
3, 108451, Note_on_c, 1, 46, 0
3, 108457, Note_on_c, 1, 55, 0
3, 108465, Control_c, 1, 64, 0
3, 108480, Note_on_c, 1, 45, 99
3, 108480, Note_on_c, 1, 53, 103
3, 108491, Control_c, 1, 64, 127
3, 108510, Note_on_c, 1, 45, 0
3, 108512, Note_on_c, 1, 53, 0
3, 108540, Note_on_c, 1, 52, 70
3, 108540, Note_on_c, 1, 43, 86
3, 108567, Note_on_c, 1, 36, 0
3, 108571, Note_on_c, 1, 43, 0
3, 108584, Note_on_c, 1, 52, 0
3, 108585, Control_c, 1, 64, 0
3, 108600, Note_on_c, 1, 57, 103
3, 108600, Note_on_c, 1, 53, 117
3, 108630, Note_on_c, 1, 41, 103
3, 108639, Control_c, 1, 64, 127
3, 108660, Note_on_c, 1, 45, 95
3, 108667, Note_on_c, 1, 41, 0
3, 108690, Note_on_c, 1, 48, 95
3, 108701, Note_on_c, 1, 45, 0
3, 108720, Note_on_c, 1, 57, 0
3, 108720, Note_on_c, 1, 53, 0
3, 108720, Note_on_c, 1, 53, 99
3, 108724, Note_on_c, 1, 48, 0
3, 108731, Control_c, 1, 64, 0
3, 108783, Control_c, 1, 64, 127
3, 108789, Note_on_c, 1, 53, 0
3, 108840, Note_on_c, 1, 48, 90
3, 108840, Note_on_c, 1, 52, 99
3, 108858, Control_c, 1, 64, 0
3, 108870, Note_on_c, 1, 55, 103
3, 108871, Note_on_c, 1, 52, 0
3, 108900, Note_on_c, 1, 55, 0
3, 108900, Note_on_c, 1, 60, 103
3, 108915, Control_c, 1, 64, 127
3, 108930, Note_on_c, 1, 55, 86
3, 108932, Note_on_c, 1, 60, 0
3, 108956, Note_on_c, 1, 55, 0
3, 108960, Note_on_c, 1, 52, 86
3, 108989, Note_on_c, 1, 52, 0
3, 108990, Note_on_c, 1, 55, 95
3, 109014, Note_on_c, 1, 55, 0
3, 109020, Note_on_c, 1, 60, 90
3, 109050, Note_on_c, 1, 55, 99
3, 109053, Note_on_c, 1, 60, 0
3, 109067, Note_on_c, 1, 48, 0
3, 109070, Note_on_c, 1, 55, 0
3, 109080, Note_on_c, 1, 53, 99
3, 109080, Note_on_c, 1, 43, 99
3, 109090, Control_c, 1, 64, 0
3, 109109, Note_on_c, 1, 53, 0
3, 109110, Note_on_c, 1, 55, 90
3, 109136, Note_on_c, 1, 55, 0
3, 109140, Note_on_c, 1, 59, 99
3, 109154, Control_c, 1, 64, 127
3, 109168, Note_on_c, 1, 59, 0
3, 109170, Note_on_c, 1, 55, 82
3, 109196, Note_on_c, 1, 55, 0
3, 109198, Control_c, 1, 64, 0
3, 109200, Note_on_c, 1, 53, 82
3, 109225, Control_c, 1, 64, 127
3, 109230, Note_on_c, 1, 55, 86
3, 109232, Note_on_c, 1, 53, 0
3, 109245, Note_on_c, 1, 43, 0
3, 109260, Note_on_c, 1, 55, 0
3, 109260, Note_on_c, 1, 59, 90
3, 109290, Note_on_c, 1, 55, 82
3, 109297, Note_on_c, 1, 59, 0
3, 109311, Note_on_c, 1, 55, 0
3, 109320, Note_on_c, 1, 52, 99
3, 109320, Note_on_c, 1, 36, 99
3, 109321, Control_c, 1, 64, 0
3, 109346, Note_on_c, 1, 52, 0
3, 109350, Note_on_c, 1, 55, 86
3, 109356, Control_c, 1, 64, 127
3, 109375, Note_on_c, 1, 55, 0
3, 109380, Note_on_c, 1, 60, 90
3, 109410, Note_on_c, 1, 55, 90
3, 109414, Note_on_c, 1, 60, 0
3, 109434, Note_on_c, 1, 55, 0
3, 109440, Note_on_c, 1, 52, 72
3, 109465, Note_on_c, 1, 52, 0
3, 109470, Note_on_c, 1, 55, 90
3, 109496, Note_on_c, 1, 55, 0
3, 109500, Note_on_c, 1, 60, 99
3, 109530, Note_on_c, 1, 55, 99
3, 109532, Note_on_c, 1, 60, 0
3, 109551, Note_on_c, 1, 55, 0
3, 109554, Note_on_c, 1, 36, 0
3, 109560, Note_on_c, 1, 53, 103
3, 109560, Note_on_c, 1, 43, 95
3, 109566, Control_c, 1, 64, 0
3, 109584, Note_on_c, 1, 53, 0
3, 109590, Note_on_c, 1, 55, 95
3, 109600, Control_c, 1, 64, 127
3, 109614, Note_on_c, 1, 55, 0
3, 109620, Note_on_c, 1, 59, 95
3, 109646, Note_on_c, 1, 59, 0
3, 109650, Note_on_c, 1, 55, 99
3, 109669, Note_on_c, 1, 55, 0
3, 109680, Note_on_c, 1, 53, 95
3, 109692, Control_c, 1, 64, 0
3, 109705, Note_on_c, 1, 53, 0
3, 109710, Note_on_c, 1, 55, 103
3, 109714, Control_c, 1, 64, 127
3, 109732, Note_on_c, 1, 55, 0
3, 109740, Note_on_c, 1, 59, 99
3, 109766, Note_on_c, 1, 59, 0
3, 109768, Note_on_c, 1, 43, 0
3, 109770, Note_on_c, 1, 55, 86
3, 109791, Note_on_c, 1, 55, 0
3, 109800, Note_on_c, 1, 52, 108
3, 109800, Note_on_c, 1, 48, 95
3, 109803, Control_c, 1, 64, 0
3, 109826, Note_on_c, 1, 52, 0
3, 109830, Note_on_c, 1, 55, 90
3, 109835, Control_c, 1, 64, 127
3, 109854, Note_on_c, 1, 55, 0
3, 109860, Note_on_c, 1, 60, 99
3, 109889, Note_on_c, 1, 60, 0
3, 109890, Note_on_c, 1, 55, 99
3, 109909, Note_on_c, 1, 55, 0
3, 109920, Note_on_c, 1, 52, 86
3, 109932, Control_c, 1, 64, 0
3, 109941, Note_on_c, 1, 52, 0
3, 109950, Note_on_c, 1, 55, 99
3, 109951, Control_c, 1, 64, 127
3, 109971, Note_on_c, 1, 55, 0
3, 109980, Note_on_c, 1, 60, 95
3, 110010, Note_on_c, 1, 55, 99
3, 110012, Note_on_c, 1, 60, 0
3, 110031, Note_on_c, 1, 55, 0
3, 110035, Note_on_c, 1, 48, 0
3, 110040, Note_on_c, 1, 53, 99
3, 110040, Note_on_c, 1, 43, 82
3, 110050, Control_c, 1, 64, 0
3, 110066, Note_on_c, 1, 53, 0
3, 110070, Note_on_c, 1, 55, 99
3, 110078, Control_c, 1, 64, 127
3, 110093, Note_on_c, 1, 55, 0
3, 110100, Note_on_c, 1, 59, 95
3, 110129, Note_on_c, 1, 59, 0
3, 110130, Note_on_c, 1, 55, 90
3, 110153, Note_on_c, 1, 55, 0
3, 110160, Note_on_c, 1, 53, 99
3, 110187, Note_on_c, 1, 53, 0
3, 110190, Note_on_c, 1, 55, 82
3, 110215, Note_on_c, 1, 55, 0
3, 110220, Note_on_c, 1, 59, 99
3, 110250, Note_on_c, 1, 55, 90
3, 110252, Note_on_c, 1, 59, 0
3, 110268, Note_on_c, 1, 43, 0
3, 110270, Note_on_c, 1, 55, 0
3, 110280, Note_on_c, 1, 52, 95
3, 110280, Note_on_c, 1, 36, 95
3, 110285, Control_c, 1, 64, 0
3, 110305, Note_on_c, 1, 52, 0
3, 110310, Note_on_c, 1, 55, 86
3, 110315, Control_c, 1, 64, 127
3, 110336, Note_on_c, 1, 55, 0
3, 110340, Note_on_c, 1, 60, 95
3, 110370, Note_on_c, 1, 55, 95
3, 110372, Note_on_c, 1, 60, 0
3, 110391, Note_on_c, 1, 55, 0
3, 110400, Note_on_c, 1, 52, 86
3, 110425, Note_on_c, 1, 52, 0
3, 110430, Note_on_c, 1, 55, 74
3, 110460, Note_on_c, 1, 55, 0
3, 110460, Note_on_c, 1, 60, 95
3, 110490, Note_on_c, 1, 55, 99
3, 110498, Note_on_c, 1, 60, 0
3, 110509, Note_on_c, 1, 55, 0
3, 110515, Note_on_c, 1, 36, 0
3, 110520, Note_on_c, 1, 50, 95
3, 110520, Note_on_c, 1, 43, 99
3, 110532, Control_c, 1, 64, 0
3, 110548, Note_on_c, 1, 50, 0
3, 110550, Note_on_c, 1, 55, 103
3, 110562, Control_c, 1, 64, 127
3, 110578, Note_on_c, 1, 55, 0
3, 110580, Note_on_c, 1, 59, 95
3, 110610, Note_on_c, 1, 55, 99
3, 110611, Note_on_c, 1, 59, 0
3, 110627, Note_on_c, 1, 43, 0
3, 110633, Note_on_c, 1, 55, 0
3, 110640, Control_c, 1, 64, 0
3, 110640, Note_on_c, 1, 36, 95
3, 110640, Note_on_c, 1, 60, 117
3, 110640, Note_on_c, 1, 48, 95
3, 110668, Control_c, 1, 64, 127
3, 110697, Note_on_c, 1, 60, 0
3, 110710, Note_on_c, 1, 48, 0
3, 110712, Note_on_c, 1, 36, 0
3, 110756, Control_c, 1, 64, 0
3, 110760, Note_on_c, 1, 53, 112
3, 110760, Note_on_c, 1, 43, 95
3, 110786, Note_on_c, 1, 53, 0
3, 110790, Note_on_c, 1, 55, 90
3, 110792, Control_c, 1, 64, 127
3, 110816, Note_on_c, 1, 55, 0
3, 110820, Note_on_c, 1, 59, 95
3, 110849, Note_on_c, 1, 59, 0
3, 110850, Note_on_c, 1, 55, 67
3, 110872, Note_on_c, 1, 55, 0
3, 110880, Note_on_c, 1, 53, 103
3, 110885, Control_c, 1, 64, 0
3, 110908, Note_on_c, 1, 53, 0
3, 110908, Control_c, 1, 64, 127
3, 110910, Note_on_c, 1, 55, 99
3, 110936, Note_on_c, 1, 55, 0
3, 110940, Note_on_c, 1, 59, 90
3, 110968, Note_on_c, 1, 59, 0
3, 110970, Note_on_c, 1, 55, 74
3, 110985, Note_on_c, 1, 43, 0
3, 110990, Note_on_c, 1, 55, 0
3, 111000, Note_on_c, 1, 52, 112
3, 111000, Note_on_c, 1, 36, 103
3, 111009, Control_c, 1, 64, 0
3, 111028, Note_on_c, 1, 52, 0
3, 111030, Note_on_c, 1, 55, 90
3, 111038, Control_c, 1, 64, 127
3, 111057, Note_on_c, 1, 55, 0
3, 111060, Note_on_c, 1, 60, 82
3, 111090, Note_on_c, 1, 55, 99
3, 111091, Note_on_c, 1, 60, 0
3, 111112, Note_on_c, 1, 55, 0
3, 111120, Note_on_c, 1, 52, 99
3, 111144, Note_on_c, 1, 52, 0
3, 111150, Note_on_c, 1, 55, 86
3, 111169, Note_on_c, 1, 36, 0
3, 111176, Note_on_c, 1, 55, 0
3, 111180, Note_on_c, 1, 60, 99
3, 111210, Note_on_c, 1, 55, 103
3, 111211, Note_on_c, 1, 60, 0
3, 111228, Note_on_c, 1, 55, 0
3, 111240, Note_on_c, 1, 53, 103
3, 111240, Note_on_c, 1, 31, 103
3, 111240, Note_on_c, 1, 43, 90
3, 111245, Control_c, 1, 64, 0
3, 111267, Note_on_c, 1, 53, 0
3, 111270, Note_on_c, 1, 55, 90
3, 111279, Control_c, 1, 64, 127
3, 111297, Note_on_c, 1, 55, 0
3, 111300, Note_on_c, 1, 59, 86
3, 111327, Note_on_c, 1, 59, 0
3, 111330, Note_on_c, 1, 55, 69
3, 111354, Note_on_c, 1, 55, 0
3, 111360, Note_on_c, 1, 53, 99
3, 111385, Note_on_c, 1, 53, 0
3, 111390, Note_on_c, 1, 55, 103
3, 111408, Note_on_c, 1, 31, 0
3, 111414, Note_on_c, 1, 55, 0
3, 111420, Note_on_c, 1, 59, 86
3, 111429, Note_on_c, 1, 43, 0
3, 111448, Note_on_c, 1, 59, 0
3, 111450, Note_on_c, 1, 55, 95
3, 111469, Note_on_c, 1, 55, 0
3, 111480, Control_c, 1, 64, 0
3, 111480, Note_on_c, 1, 36, 99
3, 111480, Note_on_c, 1, 52, 112
3, 111480, Note_on_c, 1, 48, 74
3, 111503, Note_on_c, 1, 52, 0
3, 111510, Note_on_c, 1, 55, 95
3, 111511, Control_c, 1, 64, 127
3, 111537, Note_on_c, 1, 55, 0
3, 111540, Note_on_c, 1, 60, 95
3, 111570, Note_on_c, 1, 60, 0
3, 111570, Note_on_c, 1, 55, 95
3, 111592, Note_on_c, 1, 55, 0
3, 111600, Note_on_c, 1, 52, 99
3, 111622, Note_on_c, 1, 52, 0
3, 111630, Note_on_c, 1, 55, 90
3, 111658, Note_on_c, 1, 55, 0
3, 111660, Note_on_c, 1, 60, 95
3, 111687, Note_on_c, 1, 60, 0
3, 111690, Note_on_c, 1, 55, 90
3, 111704, Note_on_c, 1, 55, 0
3, 111704, Note_on_c, 1, 48, 0
3, 111711, Note_on_c, 1, 36, 0
3, 111720, Note_on_c, 1, 53, 90
3, 111720, Note_on_c, 1, 43, 99
3, 111727, Control_c, 1, 64, 0
3, 111747, Note_on_c, 1, 53, 0
3, 111750, Note_on_c, 1, 55, 95
3, 111758, Control_c, 1, 64, 127
3, 111775, Note_on_c, 1, 55, 0
3, 111780, Note_on_c, 1, 59, 90
3, 111808, Note_on_c, 1, 59, 0
3, 111810, Note_on_c, 1, 55, 82
3, 111832, Note_on_c, 1, 55, 0
3, 111840, Note_on_c, 1, 53, 99
3, 111867, Note_on_c, 1, 53, 0
3, 111870, Note_on_c, 1, 55, 86
3, 111896, Note_on_c, 1, 55, 0
3, 111900, Note_on_c, 1, 59, 99
3, 111928, Note_on_c, 1, 59, 0
3, 111930, Note_on_c, 1, 55, 72
3, 111952, Note_on_c, 1, 55, 0
3, 111960, Note_on_c, 1, 43, 0
3, 111960, Note_on_c, 1, 52, 74
3, 111960, Note_on_c, 1, 36, 90
3, 111971, Control_c, 1, 64, 0
3, 111987, Note_on_c, 1, 52, 0
3, 111990, Note_on_c, 1, 55, 99
3, 111998, Control_c, 1, 64, 127
3, 112018, Note_on_c, 1, 55, 0
3, 112020, Note_on_c, 1, 60, 95
3, 112050, Note_on_c, 1, 55, 86
3, 112053, Note_on_c, 1, 60, 0
3, 112074, Note_on_c, 1, 55, 0
3, 112080, Note_on_c, 1, 52, 86
3, 112106, Note_on_c, 1, 52, 0
3, 112110, Note_on_c, 1, 55, 82
3, 112123, Note_on_c, 1, 36, 0
3, 112140, Note_on_c, 1, 55, 0
3, 112140, Note_on_c, 1, 60, 90
3, 112170, Note_on_c, 1, 55, 86
3, 112179, Note_on_c, 1, 60, 0
3, 112192, Note_on_c, 1, 55, 0
3, 112200, Note_on_c, 1, 31, 99
3, 112200, Note_on_c, 1, 53, 103
3, 112200, Note_on_c, 1, 43, 82
3, 112207, Control_c, 1, 64, 0
3, 112227, Note_on_c, 1, 53, 0
3, 112230, Note_on_c, 1, 55, 86
3, 112240, Control_c, 1, 64, 127
3, 112257, Note_on_c, 1, 55, 0
3, 112260, Note_on_c, 1, 59, 99
3, 112290, Note_on_c, 1, 55, 86
3, 112293, Note_on_c, 1, 59, 0
3, 112313, Note_on_c, 1, 55, 0
3, 112320, Note_on_c, 1, 53, 99
3, 112349, Note_on_c, 1, 53, 0
3, 112350, Note_on_c, 1, 55, 99
3, 112366, Note_on_c, 1, 31, 0
3, 112380, Note_on_c, 1, 55, 0
3, 112380, Note_on_c, 1, 59, 90
3, 112410, Note_on_c, 1, 55, 78
3, 112411, Note_on_c, 1, 43, 0
3, 112413, Note_on_c, 1, 59, 0
3, 112434, Note_on_c, 1, 55, 0
3, 112440, Note_on_c, 1, 48, 117
3, 112440, Note_on_c, 1, 36, 99
3, 112440, Note_on_c, 1, 52, 99
3, 112454, Control_c, 1, 64, 0
3, 112466, Note_on_c, 1, 52, 0
3, 112470, Note_on_c, 1, 55, 90
3, 112484, Control_c, 1, 64, 127
3, 112498, Note_on_c, 1, 55, 0
3, 112500, Note_on_c, 1, 60, 95
3, 112530, Note_on_c, 1, 59, 86
3, 112538, Note_on_c, 1, 60, 0
3, 112552, Note_on_c, 1, 59, 0
3, 112560, Note_on_c, 1, 36, 0
3, 112560, Note_on_c, 1, 48, 0
3, 112560, Note_on_c, 1, 60, 99
3, 112569, Control_c, 1, 64, 0
3, 112594, Control_c, 1, 64, 127
3, 112661, Control_c, 1, 64, 0
3, 112680, Note_on_c, 1, 60, 0
3, 112680, Control_c, 1, 64, 127
3, 112680, Note_on_c, 1, 51, 99
3, 112680, Note_on_c, 1, 48, 86
3, 112736, Note_on_c, 1, 51, 0
3, 112740, Note_on_c, 1, 60, 86
3, 112786, Note_on_c, 1, 60, 0
3, 112800, Note_on_c, 1, 55, 90
3, 112853, Note_on_c, 1, 55, 0
3, 112860, Note_on_c, 1, 60, 82
3, 112875, Note_on_c, 1, 48, 0
3, 112911, Note_on_c, 1, 60, 0
3, 112920, Note_on_c, 1, 53, 82
3, 112920, Note_on_c, 1, 43, 99
3, 112929, Control_c, 1, 64, 0
3, 112969, Control_c, 1, 64, 127
3, 112980, Note_on_c, 1, 59, 78
3, 112989, Note_on_c, 1, 53, 0
3, 113025, Note_on_c, 1, 59, 0
3, 113040, Note_on_c, 1, 55, 72
3, 113090, Note_on_c, 1, 55, 0
3, 113100, Note_on_c, 1, 59, 62
3, 113152, Note_on_c, 1, 43, 0
3, 113156, Note_on_c, 1, 59, 0
3, 113160, Note_on_c, 1, 51, 78
3, 113160, Note_on_c, 1, 48, 103
3, 113165, Control_c, 1, 64, 0
3, 113213, Control_c, 1, 64, 127
3, 113220, Note_on_c, 1, 60, 78
3, 113224, Note_on_c, 1, 51, 0
3, 113257, Note_on_c, 1, 60, 0
3, 113280, Note_on_c, 1, 55, 82
3, 113335, Note_on_c, 1, 55, 0
3, 113340, Note_on_c, 1, 60, 72
3, 113397, Note_on_c, 1, 60, 0
3, 113398, Note_on_c, 1, 48, 0
3, 113400, Note_on_c, 1, 53, 82
3, 113400, Note_on_c, 1, 43, 103
3, 113406, Control_c, 1, 64, 0
3, 113445, Control_c, 1, 64, 127
3, 113460, Note_on_c, 1, 59, 69
3, 113465, Note_on_c, 1, 53, 0
3, 113504, Note_on_c, 1, 59, 0
3, 113520, Note_on_c, 1, 55, 69
3, 113576, Note_on_c, 1, 55, 0
3, 113580, Note_on_c, 1, 59, 82
3, 113637, Note_on_c, 1, 59, 0
3, 113640, Note_on_c, 1, 51, 78
3, 113640, Control_c, 1, 64, 0
3, 113640, Note_on_c, 1, 48, 99
3, 113644, Note_on_c, 1, 43, 0
3, 113668, Control_c, 1, 64, 127
3, 113700, Note_on_c, 1, 60, 86
3, 113701, Note_on_c, 1, 51, 0
3, 113734, Note_on_c, 1, 48, 0
3, 113740, Note_on_c, 1, 60, 0
3, 113760, Note_on_c, 1, 54, 95
3, 113760, Note_on_c, 1, 42, 90
3, 113760, Control_c, 1, 64, 0
3, 113784, Control_c, 1, 64, 127
3, 113819, Note_on_c, 1, 54, 0
3, 113820, Note_on_c, 1, 60, 99
3, 113857, Note_on_c, 1, 42, 0
3, 113863, Note_on_c, 1, 60, 0
3, 113880, Control_c, 1, 64, 0
3, 113880, Note_on_c, 1, 59, 108
3, 113880, Note_on_c, 1, 43, 86
3, 113904, Control_c, 1, 64, 127
3, 113937, Note_on_c, 1, 59, 0
3, 113940, Note_on_c, 1, 55, 99
3, 113966, Note_on_c, 1, 43, 0
3, 113998, Note_on_c, 1, 55, 0
3, 114000, Note_on_c, 1, 50, 103
3, 114052, Note_on_c, 1, 50, 0
3, 114060, Note_on_c, 1, 43, 103
3, 114075, Note_on_c, 1, 43, 0
3, 114120, Note_on_c, 1, 55, 95
3, 114120, Note_on_c, 1, 58, 86
3, 114120, Note_on_c, 1, 51, 82
3, 114120, Note_on_c, 1, 39, 90
3, 114124, Control_c, 1, 64, 0
3, 114160, Control_c, 1, 64, 127
3, 114180, Note_on_c, 1, 63, 70
3, 114184, Note_on_c, 1, 55, 0
3, 114185, Note_on_c, 1, 58, 0
3, 114234, Note_on_c, 1, 63, 0
3, 114240, Note_on_c, 1, 58, 86
3, 114299, Note_on_c, 1, 58, 0
3, 114300, Note_on_c, 1, 63, 86
3, 114318, Note_on_c, 1, 51, 0
3, 114322, Note_on_c, 1, 39, 0
3, 114331, Note_on_c, 1, 63, 0
3, 114360, Note_on_c, 1, 56, 82
3, 114360, Note_on_c, 1, 46, 99
3, 114363, Control_c, 1, 64, 0
3, 114393, Control_c, 1, 64, 127
3, 114420, Note_on_c, 1, 62, 90
3, 114424, Note_on_c, 1, 56, 0
3, 114457, Note_on_c, 1, 62, 0
3, 114480, Note_on_c, 1, 58, 82
3, 114530, Note_on_c, 1, 58, 0
3, 114540, Note_on_c, 1, 62, 95
3, 114564, Note_on_c, 1, 62, 0
3, 114597, Note_on_c, 1, 46, 0
3, 114600, Note_on_c, 1, 55, 95
3, 114600, Note_on_c, 1, 39, 78
3, 114603, Control_c, 1, 64, 0
3, 114630, Control_c, 1, 64, 127
3, 114660, Note_on_c, 1, 63, 78
3, 114662, Note_on_c, 1, 55, 0
3, 114715, Note_on_c, 1, 63, 0
3, 114720, Note_on_c, 1, 58, 82
3, 114777, Note_on_c, 1, 58, 0
3, 114780, Note_on_c, 1, 63, 74
3, 114813, Note_on_c, 1, 39, 0
3, 114838, Note_on_c, 1, 63, 0
3, 114840, Note_on_c, 1, 56, 82
3, 114840, Note_on_c, 1, 46, 86
3, 114842, Control_c, 1, 64, 0
3, 114870, Control_c, 1, 64, 127
3, 114900, Note_on_c, 1, 62, 86
3, 114907, Note_on_c, 1, 56, 0
3, 114947, Note_on_c, 1, 62, 0
3, 114960, Note_on_c, 1, 58, 82
3, 115018, Note_on_c, 1, 58, 0
3, 115020, Note_on_c, 1, 62, 86
3, 115045, Note_on_c, 1, 46, 0
3, 115059, Note_on_c, 1, 62, 0
3, 115080, Note_on_c, 1, 55, 90
3, 115080, Note_on_c, 1, 51, 82
3, 115086, Control_c, 1, 64, 0
3, 115116, Control_c, 1, 64, 127
3, 115140, Note_on_c, 1, 63, 82
3, 115150, Note_on_c, 1, 55, 0
3, 115194, Note_on_c, 1, 63, 0
3, 115200, Note_on_c, 1, 58, 86
3, 115258, Note_on_c, 1, 58, 0
3, 115260, Note_on_c, 1, 63, 82
3, 115269, Note_on_c, 1, 51, 0
3, 115303, Note_on_c, 1, 63, 0
3, 115320, Note_on_c, 1, 56, 82
3, 115320, Note_on_c, 1, 46, 86
3, 115323, Control_c, 1, 64, 0
3, 115350, Control_c, 1, 64, 127
3, 115380, Note_on_c, 1, 62, 99
3, 115383, Note_on_c, 1, 56, 0
3, 115430, Note_on_c, 1, 62, 0
3, 115440, Note_on_c, 1, 58, 70
3, 115490, Note_on_c, 1, 58, 0
3, 115500, Note_on_c, 1, 62, 90
3, 115547, Note_on_c, 1, 62, 0
3, 115557, Note_on_c, 1, 46, 0
3, 115560, Note_on_c, 1, 55, 95
3, 115560, Note_on_c, 1, 39, 82
3, 115561, Control_c, 1, 64, 0
3, 115591, Control_c, 1, 64, 127
3, 115620, Note_on_c, 1, 63, 78
3, 115627, Note_on_c, 1, 55, 0
3, 115680, Note_on_c, 1, 63, 0
3, 115680, Note_on_c, 1, 58, 82
3, 115736, Note_on_c, 1, 58, 0
3, 115740, Note_on_c, 1, 63, 78
3, 115800, Note_on_c, 1, 58, 86
3, 115800, Note_on_c, 1, 46, 82
3, 115801, Note_on_c, 1, 39, 0
3, 115803, Note_on_c, 1, 63, 0
3, 115805, Control_c, 1, 64, 0
3, 115835, Control_c, 1, 64, 127
3, 115857, Note_on_c, 1, 58, 0
3, 115860, Note_on_c, 1, 62, 90
3, 115920, Note_on_c, 1, 62, 0
3, 115920, Note_on_c, 1, 58, 82
3, 115976, Note_on_c, 1, 58, 0
3, 115980, Note_on_c, 1, 62, 86
3, 116038, Note_on_c, 1, 62, 0
3, 116040, Note_on_c, 1, 55, 95
3, 116040, Note_on_c, 1, 39, 74
3, 116043, Control_c, 1, 64, 0
3, 116044, Note_on_c, 1, 46, 0
3, 116070, Control_c, 1, 64, 127
3, 116100, Note_on_c, 1, 63, 82
3, 116102, Note_on_c, 1, 55, 0
3, 116155, Note_on_c, 1, 63, 0
3, 116160, Note_on_c, 1, 58, 82
3, 116219, Note_on_c, 1, 58, 0
3, 116220, Note_on_c, 1, 63, 82
3, 116264, Note_on_c, 1, 39, 0
3, 116278, Note_on_c, 1, 63, 0
3, 116280, Note_on_c, 1, 44, 78
3, 116280, Note_on_c, 1, 56, 86
3, 116281, Control_c, 1, 64, 0
3, 116310, Control_c, 1, 64, 127
3, 116338, Note_on_c, 1, 56, 0
3, 116340, Note_on_c, 1, 63, 82
3, 116396, Note_on_c, 1, 63, 0
3, 116400, Note_on_c, 1, 60, 90
3, 116454, Note_on_c, 1, 60, 0
3, 116460, Note_on_c, 1, 63, 74
3, 116464, Note_on_c, 1, 44, 0
3, 116513, Note_on_c, 1, 63, 0
3, 116520, Note_on_c, 1, 58, 95
3, 116520, Note_on_c, 1, 46, 90
3, 116523, Control_c, 1, 64, 0
3, 116550, Control_c, 1, 64, 127
3, 116580, Note_on_c, 1, 58, 0
3, 116580, Note_on_c, 1, 63, 72
3, 116594, Note_on_c, 1, 46, 0
3, 116634, Note_on_c, 1, 63, 0
3, 116640, Note_on_c, 1, 58, 86
3, 116640, Control_c, 1, 64, 0
3, 116640, Note_on_c, 1, 46, 95
3, 116662, Control_c, 1, 64, 127
3, 116696, Note_on_c, 1, 58, 0
3, 116700, Note_on_c, 1, 62, 99
3, 116740, Note_on_c, 1, 46, 0
3, 116746, Note_on_c, 1, 62, 0
3, 116751, Control_c, 1, 64, 0
3, 116760, Note_on_c, 1, 63, 95
3, 116760, Note_on_c, 1, 51, 82
3, 116778, Control_c, 1, 64, 127
3, 116862, Note_on_c, 1, 63, 0
3, 116880, Note_on_c, 1, 39, 99
3, 116884, Note_on_c, 1, 51, 0
3, 116886, Control_c, 1, 64, 0
3, 116906, Control_c, 1, 64, 127
3, 116940, Note_on_c, 1, 39, 0
3, 116998, Control_c, 1, 64, 0
3, 117000, Note_on_c, 1, 48, 99
3, 117000, Note_on_c, 1, 36, 95
3, 117030, Note_on_c, 1, 50, 90
3, 117031, Note_on_c, 1, 48, 0
3, 117031, Control_c, 1, 64, 127
3, 117055, Note_on_c, 1, 50, 0
3, 117060, Note_on_c, 1, 52, 99
3, 117078, Note_on_c, 1, 52, 0
3, 117083, Control_c, 1, 64, 0
3, 117090, Note_on_c, 1, 53, 99
3, 117109, Note_on_c, 1, 53, 0
3, 117120, Note_on_c, 1, 55, 86
3, 117129, Control_c, 1, 64, 127
3, 117140, Note_on_c, 1, 55, 0
3, 117150, Note_on_c, 1, 36, 0
3, 117150, Note_on_c, 1, 56, 90
3, 117175, Note_on_c, 1, 56, 0
3, 117180, Note_on_c, 1, 58, 103
3, 117199, Note_on_c, 1, 58, 0
3, 117210, Note_on_c, 1, 60, 99
3, 117232, Control_c, 1, 64, 0
3, 117240, Note_on_c, 1, 53, 99
3, 117270, Note_on_c, 1, 55, 63
3, 117274, Note_on_c, 1, 53, 0
3, 117300, Note_on_c, 1, 56, 82
3, 117305, Note_on_c, 1, 55, 0
3, 117330, Note_on_c, 1, 55, 82
3, 117331, Note_on_c, 1, 56, 0
3, 117360, Note_on_c, 1, 53, 82
3, 117365, Note_on_c, 1, 55, 0
3, 117390, Note_on_c, 1, 53, 0
3, 117390, Note_on_c, 1, 51, 86
3, 117399, Control_c, 1, 64, 127
3, 117420, Note_on_c, 1, 51, 0
3, 117420, Note_on_c, 1, 50, 99
3, 117433, Note_on_c, 1, 60, 0
3, 117447, Note_on_c, 1, 50, 0
3, 117450, Note_on_c, 1, 48, 99
3, 117469, Control_c, 1, 64, 0
3, 117472, Note_on_c, 1, 48, 0
3, 117480, Note_on_c, 1, 46, 103
3, 117510, Note_on_c, 1, 48, 90
3, 117539, Note_on_c, 1, 48, 0
3, 117540, Note_on_c, 1, 50, 99
3, 117552, Control_c, 1, 64, 127
3, 117567, Note_on_c, 1, 50, 0
3, 117570, Note_on_c, 1, 51, 78
3, 117576, Control_c, 1, 64, 0
3, 117590, Note_on_c, 1, 51, 0
3, 117600, Note_on_c, 1, 53, 95
3, 117624, Note_on_c, 1, 53, 0
3, 117630, Note_on_c, 1, 55, 70
3, 117635, Note_on_c, 1, 46, 0
3, 117655, Control_c, 1, 64, 127
3, 117660, Note_on_c, 1, 56, 86
3, 117667, Note_on_c, 1, 55, 0
3, 117687, Note_on_c, 1, 56, 0
3, 117690, Note_on_c, 1, 58, 103
3, 117709, Note_on_c, 1, 58, 0
3, 117720, Note_on_c, 1, 56, 103
3, 117720, Note_on_c, 1, 51, 72
3, 117720, Control_c, 1, 64, 0
3, 117750, Note_on_c, 1, 53, 95
3, 117754, Note_on_c, 1, 51, 0
3, 117780, Note_on_c, 1, 55, 86
3, 117783, Note_on_c, 1, 53, 0
3, 117810, Note_on_c, 1, 53, 99
3, 117813, Note_on_c, 1, 55, 0
3, 117838, Note_on_c, 1, 53, 0
3, 117840, Note_on_c, 1, 51, 82
3, 117867, Note_on_c, 1, 51, 0
3, 117870, Note_on_c, 1, 50, 95
3, 117895, Control_c, 1, 64, 127
3, 117900, Note_on_c, 1, 48, 82
3, 117904, Note_on_c, 1, 50, 0
3, 117922, Note_on_c, 1, 56, 0
3, 117930, Note_on_c, 1, 47, 103
3, 117934, Note_on_c, 1, 48, 0
3, 117947, Control_c, 1, 64, 0
3, 117960, Note_on_c, 1, 51, 82
3, 117960, Note_on_c, 1, 48, 103
3, 117962, Note_on_c, 1, 47, 0
3, 118000, Control_c, 1, 64, 127
3, 118020, Note_on_c, 1, 60, 99
3, 118025, Note_on_c, 1, 51, 0
3, 118077, Note_on_c, 1, 60, 0
3, 118080, Note_on_c, 1, 55, 86
3, 118140, Note_on_c, 1, 55, 0
3, 118140, Note_on_c, 1, 60, 90
3, 118200, Note_on_c, 1, 53, 86
3, 118200, Note_on_c, 1, 43, 99
3, 118204, Note_on_c, 1, 60, 0
3, 118205, Note_on_c, 1, 48, 0
3, 118210, Control_c, 1, 64, 0
3, 118246, Control_c, 1, 64, 127
3, 118260, Note_on_c, 1, 59, 90
3, 118264, Note_on_c, 1, 53, 0
3, 118320, Note_on_c, 1, 55, 86
3, 118323, Note_on_c, 1, 59, 0
3, 118359, Note_on_c, 1, 43, 0
3, 118378, Note_on_c, 1, 55, 0
3, 118380, Note_on_c, 1, 59, 82
3, 118440, Note_on_c, 1, 59, 0
3, 118440, Note_on_c, 1, 51, 74
3, 118440, Note_on_c, 1, 36, 95
3, 118448, Control_c, 1, 64, 0
3, 118479, Control_c, 1, 64, 127
3, 118500, Note_on_c, 1, 60, 86
3, 118504, Note_on_c, 1, 51, 0
3, 118552, Note_on_c, 1, 60, 0
3, 118560, Note_on_c, 1, 55, 95
3, 118615, Note_on_c, 1, 55, 0
3, 118620, Note_on_c, 1, 60, 95
3, 118668, Note_on_c, 1, 36, 0
3, 118680, Note_on_c, 1, 53, 72
3, 118680, Note_on_c, 1, 43, 74
3, 118680, Control_c, 1, 64, 0
3, 118683, Note_on_c, 1, 60, 0
3, 118713, Control_c, 1, 64, 127
3, 118740, Note_on_c, 1, 59, 86
3, 118742, Note_on_c, 1, 53, 0
3, 118800, Note_on_c, 1, 55, 95
3, 118806, Note_on_c, 1, 59, 0
3, 118859, Note_on_c, 1, 55, 0
3, 118860, Note_on_c, 1, 59, 90
3, 118861, Note_on_c, 1, 43, 0
3, 118920, Note_on_c, 1, 48, 86
3, 118920, Note_on_c, 1, 51, 86
3, 118923, Note_on_c, 1, 59, 0
3, 118923, Control_c, 1, 64, 0
3, 118954, Control_c, 1, 64, 127
3, 118980, Note_on_c, 1, 60, 90
3, 118981, Note_on_c, 1, 51, 0
3, 119033, Note_on_c, 1, 60, 0
3, 119040, Note_on_c, 1, 55, 86
3, 119099, Note_on_c, 1, 55, 0
3, 119100, Note_on_c, 1, 60, 86
3, 119160, Note_on_c, 1, 53, 70
3, 119160, Note_on_c, 1, 43, 82
3, 119165, Note_on_c, 1, 60, 0
3, 119168, Note_on_c, 1, 48, 0
3, 119177, Control_c, 1, 64, 0
3, 119210, Control_c, 1, 64, 127
3, 119220, Note_on_c, 1, 59, 86
3, 119221, Note_on_c, 1, 53, 0
3, 119275, Note_on_c, 1, 59, 0
3, 119280, Note_on_c, 1, 55, 67
3, 119337, Note_on_c, 1, 55, 0
3, 119340, Note_on_c, 1, 59, 78
3, 119394, Note_on_c, 1, 43, 0
3, 119400, Note_on_c, 1, 59, 0
3, 119400, Note_on_c, 1, 51, 72
3, 119400, Note_on_c, 1, 36, 82
3, 119408, Control_c, 1, 64, 0
3, 119439, Control_c, 1, 64, 127
3, 119460, Note_on_c, 1, 60, 86
3, 119462, Note_on_c, 1, 51, 0
3, 119515, Note_on_c, 1, 60, 0
3, 119520, Note_on_c, 1, 55, 78
3, 119574, Note_on_c, 1, 55, 0
3, 119580, Note_on_c, 1, 60, 82
3, 119633, Note_on_c, 1, 36, 0
3, 119640, Note_on_c, 1, 60, 0
3, 119640, Note_on_c, 1, 53, 72
3, 119640, Note_on_c, 1, 43, 82
3, 119645, Control_c, 1, 64, 0
3, 119679, Control_c, 1, 64, 127
3, 119700, Note_on_c, 1, 59, 86
3, 119702, Note_on_c, 1, 53, 0
3, 119760, Note_on_c, 1, 59, 0
3, 119760, Note_on_c, 1, 55, 82
3, 119820, Note_on_c, 1, 55, 0
3, 119820, Note_on_c, 1, 59, 72
3, 119880, Note_on_c, 1, 43, 0
3, 119880, Note_on_c, 1, 51, 72
3, 119880, Note_on_c, 1, 36, 82
3, 119881, Note_on_c, 1, 59, 0
3, 119882, Control_c, 1, 64, 0
3, 119912, Control_c, 1, 64, 127
3, 119940, Note_on_c, 1, 60, 86
3, 119947, Note_on_c, 1, 51, 0
3, 119998, Note_on_c, 1, 60, 0
3, 120000, Note_on_c, 1, 55, 86
3, 120060, Note_on_c, 1, 60, 86
3, 120062, Note_on_c, 1, 55, 0
3, 120114, Note_on_c, 1, 60, 0
3, 120119, Note_on_c, 1, 36, 0
3, 120120, Note_on_c, 1, 53, 86
3, 120120, Note_on_c, 1, 41, 82
3, 120128, Control_c, 1, 64, 0
3, 120160, Control_c, 1, 64, 127
3, 120180, Note_on_c, 1, 60, 82
3, 120184, Note_on_c, 1, 53, 0
3, 120234, Note_on_c, 1, 60, 0
3, 120240, Note_on_c, 1, 56, 86
3, 120298, Note_on_c, 1, 56, 0
3, 120300, Note_on_c, 1, 60, 86
3, 120354, Note_on_c, 1, 60, 0
3, 120356, Note_on_c, 1, 41, 0
3, 120360, Note_on_c, 1, 43, 70
3, 120360, Note_on_c, 1, 55, 86
3, 120363, Control_c, 1, 64, 0
3, 120391, Control_c, 1, 64, 127
3, 120419, Note_on_c, 1, 55, 0
3, 120420, Note_on_c, 1, 60, 86
3, 120480, Note_on_c, 1, 55, 103
3, 120487, Control_c, 1, 64, 0
3, 120491, Note_on_c, 1, 60, 0
3, 120511, Control_c, 1, 64, 127
3, 120540, Note_on_c, 1, 55, 0
3, 120540, Note_on_c, 1, 59, 90
3, 120599, Note_on_c, 1, 59, 0
3, 120600, Note_on_c, 1, 60, 99
3, 120600, Note_on_c, 1, 48, 86
3, 120607, Note_on_c, 1, 43, 0
3, 120608, Control_c, 1, 64, 0
3, 120638, Control_c, 1, 64, 127
3, 120719, Note_on_c, 1, 48, 0
3, 120720, Note_on_c, 1, 36, 103
3, 120762, Note_on_c, 1, 36, 0
3, 120769, Note_on_c, 1, 60, 0
3, 120826, Control_c, 1, 64, 0
3, 120840, Note_on_c, 1, 48, 95
3, 120840, Note_on_c, 1, 52, 95
3, 120842, Control_c, 1, 64, 127
3, 120870, Note_on_c, 1, 55, 86
3, 120871, Note_on_c, 1, 52, 0
3, 120897, Note_on_c, 1, 55, 0
3, 120900, Note_on_c, 1, 60, 86
3, 120930, Note_on_c, 1, 55, 82
3, 120931, Note_on_c, 1, 60, 0
3, 120955, Note_on_c, 1, 55, 0
3, 120960, Note_on_c, 1, 52, 72
3, 120986, Note_on_c, 1, 52, 0
3, 120990, Note_on_c, 1, 55, 86
3, 121018, Note_on_c, 1, 55, 0
3, 121020, Note_on_c, 1, 60, 86
3, 121050, Note_on_c, 1, 55, 78
3, 121052, Note_on_c, 1, 60, 0
3, 121073, Note_on_c, 1, 55, 0
3, 121080, Note_on_c, 1, 53, 103
3, 121080, Note_on_c, 1, 43, 90
3, 121082, Note_on_c, 1, 48, 0
3, 121086, Control_c, 1, 64, 0
3, 121110, Note_on_c, 1, 55, 86
3, 121112, Note_on_c, 1, 53, 0
3, 121114, Control_c, 1, 64, 127
3, 121135, Note_on_c, 1, 55, 0
3, 121140, Note_on_c, 1, 59, 82
3, 121170, Note_on_c, 1, 55, 72
3, 121173, Note_on_c, 1, 59, 0
3, 121198, Note_on_c, 1, 55, 0
3, 121200, Note_on_c, 1, 53, 78
3, 121230, Note_on_c, 1, 55, 82
3, 121231, Note_on_c, 1, 53, 0
3, 121237, Note_on_c, 1, 43, 0
3, 121258, Note_on_c, 1, 55, 0
3, 121260, Note_on_c, 1, 59, 82
3, 121290, Note_on_c, 1, 55, 74
3, 121295, Note_on_c, 1, 59, 0
3, 121311, Note_on_c, 1, 55, 0
3, 121320, Note_on_c, 1, 52, 90
3, 121320, Note_on_c, 1, 36, 95
3, 121326, Control_c, 1, 64, 0
3, 121350, Note_on_c, 1, 55, 90
3, 121351, Control_c, 1, 64, 127
3, 121352, Note_on_c, 1, 52, 0
3, 121378, Note_on_c, 1, 55, 0
3, 121380, Note_on_c, 1, 60, 82
3, 121410, Note_on_c, 1, 55, 86
3, 121412, Note_on_c, 1, 60, 0
3, 121435, Note_on_c, 1, 55, 0
3, 121440, Note_on_c, 1, 52, 74
3, 121448, Control_c, 1, 64, 0
3, 121465, Control_c, 1, 64, 127
3, 121470, Note_on_c, 1, 55, 86
3, 121472, Note_on_c, 1, 52, 0
3, 121498, Note_on_c, 1, 55, 0
3, 121500, Note_on_c, 1, 60, 86
3, 121530, Note_on_c, 1, 55, 82
3, 121533, Note_on_c, 1, 60, 0
3, 121540, Note_on_c, 1, 36, 0
3, 121556, Note_on_c, 1, 55, 0
3, 121560, Note_on_c, 1, 43, 99
3, 121560, Note_on_c, 1, 53, 99
3, 121564, Control_c, 1, 64, 0
3, 121590, Note_on_c, 1, 55, 86
3, 121592, Note_on_c, 1, 53, 0
3, 121592, Control_c, 1, 64, 127
3, 121620, Note_on_c, 1, 55, 0
3, 121620, Note_on_c, 1, 59, 90
3, 121650, Note_on_c, 1, 55, 72
3, 121655, Note_on_c, 1, 59, 0
3, 121676, Note_on_c, 1, 55, 0
3, 121680, Note_on_c, 1, 53, 90
3, 121685, Control_c, 1, 64, 0
3, 121702, Control_c, 1, 64, 127
3, 121710, Note_on_c, 1, 55, 86
3, 121712, Note_on_c, 1, 53, 0
3, 121740, Note_on_c, 1, 55, 0
3, 121740, Note_on_c, 1, 59, 90
3, 121770, Note_on_c, 1, 55, 86
3, 121776, Note_on_c, 1, 59, 0
3, 121786, Note_on_c, 1, 43, 0
3, 121791, Note_on_c, 1, 55, 0
3, 121800, Note_on_c, 1, 52, 90
3, 121800, Note_on_c, 1, 48, 95
3, 121801, Control_c, 1, 64, 0
3, 121828, Control_c, 1, 64, 127
3, 121830, Note_on_c, 1, 55, 90
3, 121832, Note_on_c, 1, 52, 0
3, 121859, Note_on_c, 1, 55, 0
3, 121860, Note_on_c, 1, 60, 86
3, 121890, Note_on_c, 1, 55, 86
3, 121891, Note_on_c, 1, 60, 0
3, 121914, Note_on_c, 1, 55, 0
3, 121920, Note_on_c, 1, 52, 70
3, 121936, Control_c, 1, 64, 0
3, 121950, Note_on_c, 1, 52, 0
3, 121950, Note_on_c, 1, 55, 78
3, 121954, Control_c, 1, 64, 127
3, 121980, Note_on_c, 1, 60, 86
3, 121982, Note_on_c, 1, 55, 0
3, 122010, Note_on_c, 1, 55, 69
3, 122014, Note_on_c, 1, 60, 0
3, 122039, Note_on_c, 1, 55, 0
3, 122040, Note_on_c, 1, 53, 78
3, 122040, Note_on_c, 1, 43, 74
3, 122049, Note_on_c, 1, 48, 0
3, 122064, Control_c, 1, 64, 0
3, 122070, Note_on_c, 1, 55, 86
3, 122072, Note_on_c, 1, 53, 0
3, 122086, Control_c, 1, 64, 127
3, 122100, Note_on_c, 1, 59, 78
3, 122102, Note_on_c, 1, 55, 0
3, 122126, Note_on_c, 1, 59, 0
3, 122130, Note_on_c, 1, 55, 74
3, 122160, Note_on_c, 1, 55, 0
3, 122160, Note_on_c, 1, 53, 70
3, 122190, Note_on_c, 1, 55, 82
3, 122194, Note_on_c, 1, 53, 0
3, 122220, Note_on_c, 1, 59, 95
3, 122222, Note_on_c, 1, 55, 0
3, 122250, Note_on_c, 1, 55, 72
3, 122259, Note_on_c, 1, 59, 0
3, 122272, Note_on_c, 1, 55, 0
3, 122273, Note_on_c, 1, 43, 0
3, 122280, Note_on_c, 1, 52, 78
3, 122280, Note_on_c, 1, 36, 86
3, 122291, Control_c, 1, 64, 0
3, 122309, Note_on_c, 1, 52, 0
3, 122310, Note_on_c, 1, 55, 86
3, 122315, Control_c, 1, 64, 127
3, 122339, Note_on_c, 1, 55, 0
3, 122340, Note_on_c, 1, 60, 82
3, 122370, Note_on_c, 1, 55, 82
3, 122371, Note_on_c, 1, 60, 0
3, 122400, Note_on_c, 1, 55, 0
3, 122400, Note_on_c, 1, 52, 66
3, 122425, Note_on_c, 1, 52, 0
3, 122430, Note_on_c, 1, 55, 82
3, 122460, Note_on_c, 1, 60, 90
3, 122463, Note_on_c, 1, 55, 0
3, 122490, Note_on_c, 1, 55, 86
3, 122500, Note_on_c, 1, 60, 0
3, 122515, Note_on_c, 1, 55, 0
3, 122517, Note_on_c, 1, 36, 0
3, 122520, Note_on_c, 1, 50, 86
3, 122520, Note_on_c, 1, 43, 99
3, 122528, Control_c, 1, 64, 0
3, 122547, Note_on_c, 1, 50, 0
3, 122550, Note_on_c, 1, 55, 86
3, 122554, Control_c, 1, 64, 127
3, 122570, Note_on_c, 1, 43, 0
3, 122577, Note_on_c, 1, 55, 0
3, 122580, Note_on_c, 1, 59, 95
3, 122580, Note_on_c, 1, 43, 95
3, 122583, Control_c, 1, 64, 0
3, 122600, Control_c, 1, 64, 127
3, 122610, Note_on_c, 1, 55, 86
3, 122612, Note_on_c, 1, 59, 0
3, 122625, Note_on_c, 1, 43, 0
3, 122630, Note_on_c, 1, 55, 0
3, 122640, Note_on_c, 1, 48, 99
3, 122640, Note_on_c, 1, 60, 90
3, 122642, Control_c, 1, 64, 0
3, 122662, Control_c, 1, 64, 127
3, 122690, Note_on_c, 1, 60, 0
3, 122698, Note_on_c, 1, 48, 0
3, 122749, Control_c, 1, 64, 0
3, 122760, Note_on_c, 1, 53, 99
3, 122760, Note_on_c, 1, 43, 82
3, 122782, Control_c, 1, 64, 127
3, 122786, Note_on_c, 1, 53, 0
3, 122790, Note_on_c, 1, 55, 86
3, 122817, Note_on_c, 1, 55, 0
3, 122820, Note_on_c, 1, 59, 86
3, 122850, Note_on_c, 1, 55, 86
3, 122853, Note_on_c, 1, 59, 0
3, 122877, Note_on_c, 1, 55, 0
3, 122880, Note_on_c, 1, 53, 72
3, 122884, Control_c, 1, 64, 0
3, 122900, Control_c, 1, 64, 127
3, 122910, Note_on_c, 1, 55, 82
3, 122911, Note_on_c, 1, 53, 0
3, 122940, Note_on_c, 1, 59, 82
3, 122946, Note_on_c, 1, 55, 0
3, 122970, Note_on_c, 1, 55, 82
3, 122976, Note_on_c, 1, 59, 0
3, 122989, Note_on_c, 1, 55, 0
3, 122991, Note_on_c, 1, 43, 0
3, 123000, Note_on_c, 1, 52, 86
3, 123000, Note_on_c, 1, 48, 86
3, 123030, Note_on_c, 1, 52, 0
3, 123030, Note_on_c, 1, 55, 90
3, 123032, Control_c, 1, 64, 0
3, 123051, Control_c, 1, 64, 127
3, 123059, Note_on_c, 1, 55, 0
3, 123060, Note_on_c, 1, 60, 90
3, 123090, Note_on_c, 1, 55, 72
3, 123099, Note_on_c, 1, 60, 0
3, 123117, Note_on_c, 1, 55, 0
3, 123120, Note_on_c, 1, 52, 67
3, 123150, Note_on_c, 1, 52, 0
3, 123150, Note_on_c, 1, 55, 95
3, 123176, Note_on_c, 1, 55, 0
3, 123180, Note_on_c, 1, 60, 90
3, 123210, Note_on_c, 1, 55, 86
3, 123215, Note_on_c, 1, 60, 0
3, 123234, Note_on_c, 1, 55, 0
3, 123237, Note_on_c, 1, 48, 0
3, 123240, Note_on_c, 1, 53, 103
3, 123240, Note_on_c, 1, 43, 95
3, 123244, Control_c, 1, 64, 0
3, 123264, Control_c, 1, 64, 127
3, 123270, Note_on_c, 1, 55, 78
3, 123271, Note_on_c, 1, 53, 0
3, 123300, Note_on_c, 1, 55, 0
3, 123300, Note_on_c, 1, 59, 95
3, 123330, Note_on_c, 1, 55, 90
3, 123338, Note_on_c, 1, 59, 0
3, 123356, Note_on_c, 1, 55, 0
3, 123360, Note_on_c, 1, 53, 78
3, 123390, Note_on_c, 1, 53, 0
3, 123390, Note_on_c, 1, 55, 72
3, 123415, Note_on_c, 1, 55, 0
3, 123420, Note_on_c, 1, 59, 82
3, 123450, Note_on_c, 1, 55, 69
3, 123461, Note_on_c, 1, 59, 0
3, 123474, Note_on_c, 1, 55, 0
3, 123479, Note_on_c, 1, 43, 0
3, 123480, Note_on_c, 1, 52, 99
3, 123480, Note_on_c, 1, 36, 99
3, 123489, Control_c, 1, 64, 0
3, 123510, Note_on_c, 1, 55, 78
3, 123513, Note_on_c, 1, 52, 0
3, 123513, Control_c, 1, 64, 127
3, 123538, Note_on_c, 1, 55, 0
3, 123540, Note_on_c, 1, 60, 90
3, 123570, Note_on_c, 1, 55, 90
3, 123573, Note_on_c, 1, 60, 0
3, 123597, Note_on_c, 1, 55, 0
3, 123600, Note_on_c, 1, 52, 86
3, 123615, Control_c, 1, 64, 0
3, 123630, Note_on_c, 1, 55, 86
3, 123632, Note_on_c, 1, 52, 0
3, 123633, Control_c, 1, 64, 127
3, 123657, Note_on_c, 1, 55, 0
3, 123660, Note_on_c, 1, 60, 82
3, 123690, Note_on_c, 1, 55, 86
3, 123697, Note_on_c, 1, 60, 0
3, 123714, Note_on_c, 1, 36, 0
3, 123720, Note_on_c, 1, 55, 0
3, 123720, Note_on_c, 1, 53, 108
3, 123720, Note_on_c, 1, 43, 86
3, 123729, Control_c, 1, 64, 0
3, 123750, Note_on_c, 1, 55, 74
3, 123751, Note_on_c, 1, 53, 0
3, 123752, Control_c, 1, 64, 127
3, 123776, Note_on_c, 1, 55, 0
3, 123780, Note_on_c, 1, 59, 90
3, 123810, Note_on_c, 1, 55, 86
3, 123816, Note_on_c, 1, 59, 0
3, 123840, Note_on_c, 1, 53, 86
3, 123842, Note_on_c, 1, 55, 0
3, 123847, Control_c, 1, 64, 0
3, 123864, Control_c, 1, 64, 127
3, 123870, Note_on_c, 1, 55, 86
3, 123873, Note_on_c, 1, 53, 0
3, 123900, Note_on_c, 1, 59, 99
3, 123904, Note_on_c, 1, 55, 0
3, 123930, Note_on_c, 1, 55, 82
3, 123935, Note_on_c, 1, 59, 0
3, 123951, Note_on_c, 1, 55, 0
3, 123951, Note_on_c, 1, 43, 0
3, 123974, Control_c, 1, 64, 0
3, 124200, Note_on_c, 1, 55, 103
3, 124200, Note_on_c, 1, 52, 99
3, 124200, Note_on_c, 1, 36, 90
3, 124231, Control_c, 1, 64, 127
3, 124295, Note_on_c, 1, 55, 0
3, 124297, Note_on_c, 1, 36, 0
3, 124299, Note_on_c, 1, 52, 0
3, 124320, Note_on_c, 1, 53, 99
3, 124320, Note_on_c, 1, 50, 103
3, 124320, Note_on_c, 1, 38, 95
3, 124331, Control_c, 1, 64, 0
3, 124359, Control_c, 1, 64, 127
3, 124380, Note_on_c, 1, 50, 0
3, 124385, Note_on_c, 1, 53, 0
3, 124392, Note_on_c, 1, 38, 0
3, 124437, Control_c, 1, 64, 0
3, 124440, Note_on_c, 1, 52, 95
3, 124440, Note_on_c, 1, 40, 95
3, 124440, Note_on_c, 1, 48, 90
3, 124464, Control_c, 1, 64, 127
3, 124506, Note_on_c, 1, 52, 0
3, 124507, Note_on_c, 1, 48, 0
3, 124515, Note_on_c, 1, 40, 0
3, 124559, Control_c, 1, 64, 0
3, 124560, Note_on_c, 1, 41, 90
3, 124560, Note_on_c, 1, 50, 103
3, 124560, Note_on_c, 1, 47, 103
3, 124610, Control_c, 1, 64, 127
3, 124696, Note_on_c, 1, 47, 0
3, 124703, Note_on_c, 1, 50, 0
3, 124705, Note_on_c, 1, 41, 0
3, 124740, Control_c, 1, 64, 0
3, 124740, Note_on_c, 1, 48, 90
3, 124740, Note_on_c, 1, 40, 90
3, 124740, Note_on_c, 1, 52, 99
3, 124762, Control_c, 1, 64, 127
3, 124789, Note_on_c, 1, 48, 0
3, 124790, Note_on_c, 1, 52, 0
3, 124792, Control_c, 1, 64, 0
3, 124796, Note_on_c, 1, 40, 0
3, 124800, Note_on_c, 1, 50, 95
3, 124800, Note_on_c, 1, 53, 86
3, 124800, Note_on_c, 1, 38, 90
3, 124815, Control_c, 1, 64, 127
3, 124843, Note_on_c, 1, 50, 0
3, 124845, Note_on_c, 1, 53, 0
3, 124851, Note_on_c, 1, 38, 0
3, 124852, Control_c, 1, 64, 0
3, 124860, Note_on_c, 1, 36, 86
3, 124860, Note_on_c, 1, 52, 86
3, 124860, Note_on_c, 1, 55, 86
3, 124874, Control_c, 1, 64, 127
3, 124891, Note_on_c, 1, 52, 0
3, 124894, Note_on_c, 1, 55, 0
3, 124898, Note_on_c, 1, 36, 0
3, 124917, Control_c, 1, 64, 0
3, 124920, Note_on_c, 1, 53, 99
3, 124920, Note_on_c, 1, 57, 99
3, 124920, Note_on_c, 1, 35, 95
3, 124956, Control_c, 1, 64, 127
3, 125142, Note_on_c, 1, 57, 0
3, 125142, Note_on_c, 1, 53, 0
3, 125150, Control_c, 1, 64, 0
3, 125160, Note_on_c, 1, 52, 86
3, 125160, Note_on_c, 1, 55, 82
3, 125181, Control_c, 1, 64, 127
3, 125199, Note_on_c, 1, 35, 0
3, 125205, Control_c, 1, 64, 0
3, 125214, Note_on_c, 1, 52, 0
3, 125220, Note_on_c, 1, 53, 72
3, 125220, Note_on_c, 1, 50, 99
3, 125223, Note_on_c, 1, 55, 0
3, 125229, Control_c, 1, 64, 127
3, 125267, Note_on_c, 1, 50, 0
3, 125268, Note_on_c, 1, 53, 0
3, 125280, Note_on_c, 1, 48, 90
3, 125280, Note_on_c, 1, 53, 95
3, 125280, Note_on_c, 1, 36, 86
3, 125283, Control_c, 1, 64, 0
3, 125310, Control_c, 1, 64, 127
3, 125338, Note_on_c, 1, 53, 0
3, 125340, Note_on_c, 1, 52, 86
3, 125347, Control_c, 1, 64, 0
3, 125402, Control_c, 1, 64, 127
3, 125468, Note_on_c, 1, 36, 0
3, 125471, Note_on_c, 1, 48, 0
3, 125473, Note_on_c, 1, 52, 0
3, 125476, Control_c, 1, 64, 0
3, 125639, Control_c, 1, 64, 127
3, 125640, Note_on_c, 1, 48, 99
3, 125691, Note_on_c, 1, 48, 0
3, 125698, Control_c, 1, 64, 0
3, 125700, Note_on_c, 1, 60, 90
3, 125729, Control_c, 1, 64, 127
3, 125740, Note_on_c, 1, 60, 0
3, 125752, Control_c, 1, 64, 0
3, 125760, Note_on_c, 1, 60, 82
3, 125783, Control_c, 1, 64, 127
3, 125812, Note_on_c, 1, 60, 0
3, 125820, Note_on_c, 1, 60, 95
3, 125863, Note_on_c, 1, 60, 0
3, 125880, Note_on_c, 1, 60, 90
3, 125887, Control_c, 1, 64, 0
3, 125911, Control_c, 1, 64, 127
3, 125928, Note_on_c, 1, 60, 0
3, 125940, Note_on_c, 1, 60, 90
3, 125982, Note_on_c, 1, 60, 0
3, 125997, Control_c, 1, 64, 0
3, 126000, Note_on_c, 1, 53, 86
3, 126023, Control_c, 1, 64, 127
3, 126059, Control_c, 1, 64, 0
3, 126060, Note_on_c, 1, 57, 99
3, 126070, Note_on_c, 1, 53, 0
3, 126083, Control_c, 1, 64, 127
3, 126103, Note_on_c, 1, 57, 0
3, 126113, Control_c, 1, 64, 0
3, 126120, Note_on_c, 1, 57, 90
3, 126134, Control_c, 1, 64, 127
3, 126172, Note_on_c, 1, 57, 0
3, 126180, Note_on_c, 1, 57, 99
3, 126226, Note_on_c, 1, 57, 0
3, 126239, Control_c, 1, 64, 0
3, 126240, Note_on_c, 1, 57, 95
3, 126260, Control_c, 1, 64, 127
3, 126279, Note_on_c, 1, 57, 0
3, 126300, Note_on_c, 1, 57, 86
3, 126328, Note_on_c, 1, 57, 0
3, 126356, Control_c, 1, 64, 0
3, 126360, Note_on_c, 1, 55, 99
3, 126360, Note_on_c, 1, 48, 90
3, 126386, Control_c, 1, 64, 127
3, 126422, Note_on_c, 1, 48, 0
3, 126426, Note_on_c, 1, 55, 0
3, 126480, Note_on_c, 1, 55, 99
3, 126480, Note_on_c, 1, 60, 99
3, 126488, Control_c, 1, 64, 0
3, 126513, Control_c, 1, 64, 127
3, 126564, Note_on_c, 1, 60, 0
3, 126568, Note_on_c, 1, 55, 0
3, 126600, Note_on_c, 1, 59, 99
3, 126600, Note_on_c, 1, 53, 90
3, 126600, Note_on_c, 1, 43, 86
3, 126611, Control_c, 1, 64, 0
3, 126640, Control_c, 1, 64, 127
3, 126661, Note_on_c, 1, 43, 0
3, 126662, Note_on_c, 1, 59, 0
3, 126664, Note_on_c, 1, 53, 0
3, 126720, Control_c, 1, 64, 0
3, 126720, Note_on_c, 1, 60, 99
3, 126720, Note_on_c, 1, 48, 90
3, 126744, Control_c, 1, 64, 127
3, 126848, Note_on_c, 1, 48, 0
3, 126853, Note_on_c, 1, 60, 0
3, 126855, Control_c, 1, 64, 0
3, 127080, Note_on_c, 1, 48, 99
3, 127080, Control_c, 1, 64, 127
3, 127140, Note_on_c, 1, 60, 95
3, 127143, Control_c, 1, 64, 0
3, 127145, Note_on_c, 1, 48, 0
3, 127172, Control_c, 1, 64, 127
3, 127192, Note_on_c, 1, 60, 0
3, 127200, Note_on_c, 1, 60, 78
3, 127246, Note_on_c, 1, 60, 0
3, 127260, Note_on_c, 1, 60, 86
3, 127295, Note_on_c, 1, 60, 0
3, 127320, Note_on_c, 1, 60, 82
3, 127350, Note_on_c, 1, 60, 0
3, 127380, Note_on_c, 1, 60, 82
3, 127402, Note_on_c, 1, 60, 0
3, 127440, Note_on_c, 1, 53, 103
3, 127450, Control_c, 1, 64, 0
3, 127486, Control_c, 1, 64, 127
3, 127500, Note_on_c, 1, 57, 82
3, 127512, Note_on_c, 1, 53, 0
3, 127520, Control_c, 1, 64, 0
3, 127544, Control_c, 1, 64, 127
3, 127548, Note_on_c, 1, 57, 0
3, 127560, Note_on_c, 1, 57, 82
3, 127604, Note_on_c, 1, 57, 0
3, 127620, Note_on_c, 1, 57, 99
3, 127656, Note_on_c, 1, 57, 0
3, 127680, Note_on_c, 1, 57, 99
3, 127709, Note_on_c, 1, 57, 0
3, 127740, Note_on_c, 1, 57, 95
3, 127764, Note_on_c, 1, 57, 0
3, 127800, Control_c, 1, 64, 0
3, 127800, Note_on_c, 1, 55, 95
3, 127800, Note_on_c, 1, 48, 90
3, 127824, Control_c, 1, 64, 127
3, 127859, Note_on_c, 1, 48, 0
3, 127863, Note_on_c, 1, 55, 0
3, 127920, Note_on_c, 1, 60, 99
3, 127920, Note_on_c, 1, 55, 86
3, 127926, Control_c, 1, 64, 0
3, 127948, Control_c, 1, 64, 127
3, 127990, Note_on_c, 1, 55, 0
3, 127997, Note_on_c, 1, 60, 0
3, 128040, Note_on_c, 1, 55, 82
3, 128040, Note_on_c, 1, 59, 99
3, 128045, Control_c, 1, 64, 0
3, 128067, Control_c, 1, 64, 127
3, 128108, Note_on_c, 1, 59, 0
3, 128114, Note_on_c, 1, 55, 0
3, 128160, Note_on_c, 1, 60, 99
3, 128160, Note_on_c, 1, 57, 103
3, 128163, Control_c, 1, 64, 0
3, 128184, Control_c, 1, 64, 127
3, 128215, Note_on_c, 1, 57, 0
3, 128219, Note_on_c, 1, 60, 0
3, 128280, Note_on_c, 1, 53, 90
3, 128280, Note_on_c, 1, 57, 103
3, 128292, Control_c, 1, 64, 0
3, 128316, Control_c, 1, 64, 127
3, 128345, Note_on_c, 1, 53, 0
3, 128348, Note_on_c, 1, 57, 0
3, 128400, Note_on_c, 1, 55, 103
3, 128400, Note_on_c, 1, 52, 95
3, 128413, Control_c, 1, 64, 0
3, 128439, Control_c, 1, 64, 127
3, 128457, Note_on_c, 1, 52, 0
3, 128459, Note_on_c, 1, 55, 0
3, 128520, Note_on_c, 1, 53, 99
3, 128520, Note_on_c, 1, 57, 103
3, 128522, Control_c, 1, 64, 0
3, 128547, Control_c, 1, 64, 127
3, 128581, Note_on_c, 1, 57, 0
3, 128582, Note_on_c, 1, 53, 0
3, 128640, Note_on_c, 1, 55, 103
3, 128640, Note_on_c, 1, 52, 95
3, 128642, Control_c, 1, 64, 0
3, 128665, Control_c, 1, 64, 127
3, 128696, Note_on_c, 1, 52, 0
3, 128700, Note_on_c, 1, 55, 0
3, 128748, Control_c, 1, 64, 0
3, 128760, Note_on_c, 1, 59, 103
3, 128760, Note_on_c, 1, 55, 99
3, 128760, Note_on_c, 1, 50, 103
3, 128772, Control_c, 1, 64, 127
3, 128818, Note_on_c, 1, 50, 0
3, 128828, Note_on_c, 1, 55, 0
3, 128830, Note_on_c, 1, 59, 0
3, 128878, Control_c, 1, 64, 0
3, 128880, Note_on_c, 1, 55, 108
3, 128880, Note_on_c, 1, 60, 103
3, 128880, Note_on_c, 1, 48, 95
3, 128906, Control_c, 1, 64, 127
3, 129122, Note_on_c, 1, 55, 0
3, 129123, Control_c, 1, 64, 0
3, 129124, Note_on_c, 1, 60, 0
3, 129127, Note_on_c, 1, 48, 0
3, 129240, Note_on_c, 1, 42, 95
3, 129240, Note_on_c, 1, 50, 108
3, 129240, Note_on_c, 1, 54, 95
3, 129240, Note_on_c, 1, 57, 103
3, 129240, Note_on_c, 1, 60, 103
3, 129355, Control_c, 1, 64, 127
3, 129609, Control_c, 1, 64, 0
3, 129840, Note_on_c, 1, 60, 0
3, 129840, Note_on_c, 1, 54, 0
3, 129840, Note_on_c, 1, 42, 0
3, 129840, Note_on_c, 1, 50, 0
3, 129840, Note_on_c, 1, 57, 0
3, 129960, Note_on_c, 1, 43, 99
3, 129968, Control_c, 1, 64, 127
3, 129971, Control_c, 1, 64, 0
3, 129974, Control_c, 1, 64, 127
3, 130020, Note_on_c, 1, 43, 0
3, 130020, Note_on_c, 1, 59, 82
3, 130020, Note_on_c, 1, 55, 86
3, 130028, Control_c, 1, 64, 0
3, 130051, Control_c, 1, 64, 127
3, 130074, Note_on_c, 1, 55, 0
3, 130076, Note_on_c, 1, 59, 0
3, 130080, Note_on_c, 1, 55, 86
3, 130080, Note_on_c, 1, 59, 86
3, 130085, Control_c, 1, 64, 0
3, 130111, Control_c, 1, 64, 127
3, 130130, Note_on_c, 1, 55, 0
3, 130131, Note_on_c, 1, 59, 0
3, 130140, Note_on_c, 1, 55, 83
3, 130140, Note_on_c, 1, 59, 96
3, 130148, Control_c, 1, 64, 0
3, 130168, Control_c, 1, 64, 127
3, 130190, Note_on_c, 1, 55, 0
3, 130193, Note_on_c, 1, 59, 0
3, 130200, Note_on_c, 1, 59, 97
3, 130200, Note_on_c, 1, 55, 84
3, 130207, Control_c, 1, 64, 0
3, 130225, Control_c, 1, 64, 127
3, 130236, Note_on_c, 1, 59, 0
3, 130237, Note_on_c, 1, 55, 0
3, 130260, Control_c, 1, 64, 0
3, 130260, Note_on_c, 1, 55, 84
3, 130260, Note_on_c, 1, 59, 80
3, 130273, Control_c, 1, 64, 127
3, 130312, Note_on_c, 1, 55, 0
3, 130314, Note_on_c, 1, 59, 0
3, 130320, Note_on_c, 1, 43, 89
3, 130321, Control_c, 1, 64, 0
3, 130345, Control_c, 1, 64, 127
3, 130377, Control_c, 1, 64, 0
3, 130380, Note_on_c, 1, 55, 89
3, 130380, Note_on_c, 1, 59, 89
3, 130391, Note_on_c, 1, 43, 0
3, 130399, Control_c, 1, 64, 127
3, 130426, Note_on_c, 1, 59, 0
3, 130426, Note_on_c, 1, 55, 0
3, 130440, Note_on_c, 1, 55, 86
3, 130440, Note_on_c, 1, 59, 90
3, 130442, Control_c, 1, 64, 0
3, 130462, Control_c, 1, 64, 127
3, 130484, Note_on_c, 1, 59, 0
3, 130484, Note_on_c, 1, 55, 0
3, 130500, Control_c, 1, 64, 0
3, 130500, Note_on_c, 1, 55, 95
3, 130500, Note_on_c, 1, 59, 100
3, 130519, Control_c, 1, 64, 127
3, 130537, Note_on_c, 1, 55, 0
3, 130539, Note_on_c, 1, 59, 0
3, 130560, Control_c, 1, 64, 0
3, 130560, Note_on_c, 1, 55, 96
3, 130560, Note_on_c, 1, 59, 96
3, 130578, Control_c, 1, 64, 127
3, 130598, Note_on_c, 1, 55, 0
3, 130600, Note_on_c, 1, 59, 0
3, 130620, Note_on_c, 1, 55, 97
3, 130620, Note_on_c, 1, 59, 97
3, 130660, Note_on_c, 1, 59, 0
3, 130668, Note_on_c, 1, 55, 0
3, 130670, Control_c, 1, 64, 0
3, 130680, Note_on_c, 1, 43, 112
3, 130699, Control_c, 1, 64, 127
3, 130740, Note_on_c, 1, 59, 98
3, 130740, Note_on_c, 1, 55, 104
3, 130743, Control_c, 1, 64, 0
3, 130747, Note_on_c, 1, 43, 0
3, 130763, Control_c, 1, 64, 127
3, 130779, Note_on_c, 1, 55, 0
3, 130779, Note_on_c, 1, 59, 0
3, 130795, Control_c, 1, 64, 0
3, 130800, Note_on_c, 1, 59, 104
3, 130800, Note_on_c, 1, 55, 89
3, 130814, Control_c, 1, 64, 127
3, 130847, Note_on_c, 1, 55, 0
3, 130849, Note_on_c, 1, 59, 0
3, 130860, Note_on_c, 1, 59, 105
3, 130860, Note_on_c, 1, 55, 99
3, 130869, Control_c, 1, 64, 0
3, 130888, Control_c, 1, 64, 127
3, 130892, Note_on_c, 1, 59, 0
3, 130894, Note_on_c, 1, 55, 0
3, 130918, Control_c, 1, 64, 0
3, 130920, Note_on_c, 1, 55, 95
3, 130920, Note_on_c, 1, 59, 110
3, 130936, Control_c, 1, 64, 127
3, 130949, Note_on_c, 1, 59, 0
3, 130949, Note_on_c, 1, 55, 0
3, 130980, Note_on_c, 1, 55, 92
3, 130980, Note_on_c, 1, 59, 96
3, 131001, Note_on_c, 1, 59, 0
3, 131001, Note_on_c, 1, 55, 0
3, 131033, Control_c, 1, 64, 0
3, 131040, Note_on_c, 1, 55, 112
3, 131040, Note_on_c, 1, 59, 112
3, 131040, Note_on_c, 1, 43, 112
3, 131059, Control_c, 1, 64, 127
3, 131387, Note_on_c, 1, 43, 0
3, 131388, Note_on_c, 1, 59, 0
3, 131388, Note_on_c, 1, 55, 0
3, 131394, Control_c, 1, 64, 0
3, 131760, Note_on_c, 1, 52, 89
3, 131760, Note_on_c, 1, 48, 98
3, 131766, Control_c, 1, 64, 127
3, 131788, Note_on_c, 1, 52, 0
3, 131790, Note_on_c, 1, 55, 89
3, 131820, Note_on_c, 1, 55, 0
3, 131820, Note_on_c, 1, 60, 93
3, 131850, Note_on_c, 1, 55, 89
3, 131851, Note_on_c, 1, 60, 0
3, 131880, Note_on_c, 1, 55, 0
3, 131880, Note_on_c, 1, 52, 107
3, 131880, Control_c, 1, 64, 0
3, 131899, Control_c, 1, 64, 127
3, 131910, Note_on_c, 1, 55, 98
3, 131911, Note_on_c, 1, 52, 0
3, 131939, Note_on_c, 1, 55, 0
3, 131940, Note_on_c, 1, 60, 98
3, 131970, Note_on_c, 1, 55, 98
3, 131972, Note_on_c, 1, 60, 0
3, 131998, Note_on_c, 1, 48, 0
3, 131999, Note_on_c, 1, 55, 0
3, 132000, Note_on_c, 1, 53, 93
3, 132000, Note_on_c, 1, 43, 103
3, 132004, Control_c, 1, 64, 0
3, 132030, Note_on_c, 1, 55, 89
3, 132031, Note_on_c, 1, 53, 0
3, 132032, Control_c, 1, 64, 127
3, 132060, Note_on_c, 1, 55, 0
3, 132060, Note_on_c, 1, 59, 98
3, 132090, Note_on_c, 1, 55, 89
3, 132097, Note_on_c, 1, 59, 0
3, 132119, Note_on_c, 1, 55, 0
3, 132120, Note_on_c, 1, 53, 93
3, 132128, Control_c, 1, 64, 0
3, 132148, Control_c, 1, 64, 127
3, 132150, Note_on_c, 1, 55, 103
3, 132153, Note_on_c, 1, 53, 0
3, 132180, Note_on_c, 1, 59, 98
3, 132184, Note_on_c, 1, 55, 0
3, 132187, Note_on_c, 1, 43, 0
3, 132210, Note_on_c, 1, 55, 93
3, 132219, Note_on_c, 1, 59, 0
3, 132233, Note_on_c, 1, 55, 0
3, 132240, Note_on_c, 1, 52, 93
3, 132240, Note_on_c, 1, 36, 89
3, 132246, Control_c, 1, 64, 0
3, 132270, Note_on_c, 1, 52, 0
3, 132270, Note_on_c, 1, 55, 98
3, 132272, Control_c, 1, 64, 127
3, 132298, Note_on_c, 1, 55, 0
3, 132300, Note_on_c, 1, 60, 93
3, 132329, Note_on_c, 1, 60, 0
3, 132330, Note_on_c, 1, 55, 89
3, 132360, Note_on_c, 1, 55, 0
3, 132360, Note_on_c, 1, 52, 98
3, 132367, Control_c, 1, 64, 0
3, 132384, Control_c, 1, 64, 127
3, 132390, Note_on_c, 1, 55, 103
3, 132391, Note_on_c, 1, 52, 0
3, 132419, Note_on_c, 1, 55, 0
3, 132420, Note_on_c, 1, 60, 107
3, 132450, Note_on_c, 1, 55, 93
3, 132452, Note_on_c, 1, 60, 0
3, 132467, Note_on_c, 1, 36, 0
3, 132476, Note_on_c, 1, 55, 0
3, 132480, Note_on_c, 1, 53, 112
3, 132480, Note_on_c, 1, 43, 98
3, 132487, Control_c, 1, 64, 0
3, 132510, Note_on_c, 1, 55, 93
3, 132511, Note_on_c, 1, 53, 0
3, 132512, Control_c, 1, 64, 127
3, 132538, Note_on_c, 1, 55, 0
3, 132540, Note_on_c, 1, 59, 103
3, 132570, Note_on_c, 1, 55, 98
3, 132572, Note_on_c, 1, 59, 0
3, 132595, Note_on_c, 1, 55, 0
3, 132600, Note_on_c, 1, 53, 93
3, 132629, Note_on_c, 1, 53, 0
3, 132630, Note_on_c, 1, 55, 98
3, 132659, Note_on_c, 1, 55, 0
3, 132660, Note_on_c, 1, 59, 93
3, 132690, Note_on_c, 1, 55, 103
3, 132694, Note_on_c, 1, 59, 0
3, 132712, Note_on_c, 1, 55, 0
3, 132712, Note_on_c, 1, 43, 0
3, 132720, Note_on_c, 1, 52, 107
3, 132720, Note_on_c, 1, 48, 98
3, 132727, Control_c, 1, 64, 0
3, 132750, Note_on_c, 1, 52, 0
3, 132750, Note_on_c, 1, 55, 93
3, 132754, Control_c, 1, 64, 127
3, 132775, Note_on_c, 1, 55, 0
3, 132780, Note_on_c, 1, 60, 98
3, 132810, Note_on_c, 1, 60, 0
3, 132810, Note_on_c, 1, 55, 93
3, 132840, Note_on_c, 1, 55, 0
3, 132840, Note_on_c, 1, 52, 84
3, 132858, Control_c, 1, 64, 0
3, 132869, Note_on_c, 1, 52, 0
3, 132870, Note_on_c, 1, 55, 103
3, 132878, Control_c, 1, 64, 127
3, 132900, Note_on_c, 1, 55, 0
3, 132900, Note_on_c, 1, 60, 107
3, 132929, Note_on_c, 1, 60, 0
3, 132930, Note_on_c, 1, 55, 84
3, 132952, Note_on_c, 1, 55, 0
3, 132953, Note_on_c, 1, 48, 0
3, 132960, Note_on_c, 1, 53, 112
3, 132960, Note_on_c, 1, 43, 89
3, 132966, Control_c, 1, 64, 0
3, 132987, Note_on_c, 1, 53, 0
3, 132990, Note_on_c, 1, 55, 93
3, 132990, Control_c, 1, 64, 127
3, 133020, Note_on_c, 1, 55, 0
3, 133020, Note_on_c, 1, 59, 98
3, 133050, Note_on_c, 1, 55, 89
3, 133051, Note_on_c, 1, 59, 0
3, 133077, Note_on_c, 1, 55, 0
3, 133080, Note_on_c, 1, 53, 112
3, 133090, Control_c, 1, 64, 0
3, 133110, Note_on_c, 1, 55, 103
3, 133110, Control_c, 1, 64, 127
3, 133111, Note_on_c, 1, 53, 0
3, 133140, Note_on_c, 1, 59, 107
3, 133143, Note_on_c, 1, 55, 0
3, 133170, Note_on_c, 1, 55, 103
3, 133176, Note_on_c, 1, 59, 0
3, 133193, Note_on_c, 1, 55, 0
3, 133198, Note_on_c, 1, 43, 0
3, 133200, Note_on_c, 1, 52, 89
3, 133200, Note_on_c, 1, 36, 107
3, 133208, Control_c, 1, 64, 0
3, 133228, Note_on_c, 1, 52, 0
3, 133230, Note_on_c, 1, 55, 103
3, 133232, Control_c, 1, 64, 127
3, 133257, Note_on_c, 1, 55, 0
3, 133260, Note_on_c, 1, 60, 107
3, 133289, Note_on_c, 1, 60, 0
3, 133290, Note_on_c, 1, 55, 93
3, 133316, Note_on_c, 1, 55, 0
3, 133319, Control_c, 1, 64, 0
3, 133320, Note_on_c, 1, 52, 112
3, 133336, Control_c, 1, 64, 127
3, 133345, Note_on_c, 1, 52, 0
3, 133350, Note_on_c, 1, 55, 103
3, 133378, Note_on_c, 1, 55, 0
3, 133380, Note_on_c, 1, 60, 103
3, 133410, Note_on_c, 1, 55, 98
3, 133417, Note_on_c, 1, 60, 0
3, 133435, Note_on_c, 1, 36, 0
3, 133437, Note_on_c, 1, 55, 0
3, 133440, Note_on_c, 1, 53, 112
3, 133440, Note_on_c, 1, 43, 93
3, 133445, Control_c, 1, 64, 0
3, 133470, Note_on_c, 1, 55, 98
3, 133470, Control_c, 1, 64, 127
3, 133471, Note_on_c, 1, 53, 0
3, 133494, Note_on_c, 1, 55, 0
3, 133500, Note_on_c, 1, 59, 107
3, 133530, Note_on_c, 1, 55, 107
3, 133532, Note_on_c, 1, 59, 0
3, 133549, Note_on_c, 1, 55, 0
3, 133555, Control_c, 1, 64, 0
3, 133558, Note_on_c, 1, 43, 0
3, 133560, Note_on_c, 1, 60, 107
3, 133560, Note_on_c, 1, 48, 93
3, 133578, Control_c, 1, 64, 127
3, 133611, Note_on_c, 1, 60, 0
3, 133641, Note_on_c, 1, 48, 0
3, 133676, Control_c, 1, 64, 0
3, 133680, Note_on_c, 1, 53, 103
3, 133680, Note_on_c, 1, 43, 89
3, 133703, Control_c, 1, 64, 127
3, 133709, Note_on_c, 1, 53, 0
3, 133710, Note_on_c, 1, 55, 93
3, 133739, Note_on_c, 1, 55, 0
3, 133740, Note_on_c, 1, 59, 103
3, 133769, Note_on_c, 1, 59, 0
3, 133770, Note_on_c, 1, 55, 93
3, 133800, Note_on_c, 1, 53, 107
3, 133803, Note_on_c, 1, 55, 0
3, 133808, Control_c, 1, 64, 0
3, 133829, Control_c, 1, 64, 127
3, 133830, Note_on_c, 1, 55, 93
3, 133831, Note_on_c, 1, 53, 0
3, 133860, Note_on_c, 1, 59, 103
3, 133862, Note_on_c, 1, 55, 0
3, 133890, Note_on_c, 1, 55, 89
3, 133898, Note_on_c, 1, 59, 0
3, 133912, Note_on_c, 1, 55, 0
3, 133920, Note_on_c, 1, 52, 112
3, 133920, Note_on_c, 1, 36, 103
3, 133923, Note_on_c, 1, 43, 0
3, 133932, Control_c, 1, 64, 0
3, 133949, Note_on_c, 1, 52, 0
3, 133950, Note_on_c, 1, 55, 98
3, 133955, Control_c, 1, 64, 127
3, 133976, Note_on_c, 1, 55, 0
3, 133980, Note_on_c, 1, 60, 103
3, 134010, Note_on_c, 1, 60, 0
3, 134010, Note_on_c, 1, 55, 89
3, 134035, Note_on_c, 1, 55, 0
3, 134040, Note_on_c, 1, 52, 112
3, 134047, Control_c, 1, 64, 0
3, 134065, Note_on_c, 1, 52, 0
3, 134066, Control_c, 1, 64, 127
3, 134070, Note_on_c, 1, 55, 93
3, 134095, Note_on_c, 1, 55, 0
3, 134100, Note_on_c, 1, 60, 107
3, 134130, Note_on_c, 1, 55, 84
3, 134133, Note_on_c, 1, 60, 0
3, 134151, Note_on_c, 1, 36, 0
3, 134154, Note_on_c, 1, 55, 0
3, 134160, Note_on_c, 1, 53, 117
3, 134160, Note_on_c, 1, 43, 98
3, 134164, Control_c, 1, 64, 0
3, 134190, Control_c, 1, 64, 127
3, 134190, Note_on_c, 1, 55, 98
3, 134192, Note_on_c, 1, 53, 0
3, 134218, Note_on_c, 1, 55, 0
3, 134220, Note_on_c, 1, 59, 107
3, 134250, Note_on_c, 1, 55, 98
3, 134252, Note_on_c, 1, 59, 0
3, 134280, Note_on_c, 1, 55, 0
3, 134280, Note_on_c, 1, 53, 117
3, 134286, Control_c, 1, 64, 0
3, 134301, Control_c, 1, 64, 127
3, 134310, Note_on_c, 1, 55, 93
3, 134313, Note_on_c, 1, 53, 0
3, 134339, Note_on_c, 1, 55, 0
3, 134340, Note_on_c, 1, 59, 107
3, 134370, Note_on_c, 1, 55, 107
3, 134376, Note_on_c, 1, 59, 0
3, 134392, Note_on_c, 1, 55, 0
3, 134399, Note_on_c, 1, 43, 0
3, 134400, Note_on_c, 1, 52, 112
3, 134400, Note_on_c, 1, 48, 93
3, 134407, Control_c, 1, 64, 0
3, 134429, Note_on_c, 1, 52, 0
3, 134430, Note_on_c, 1, 55, 93
3, 134431, Control_c, 1, 64, 127
3, 134459, Note_on_c, 1, 55, 0
3, 134460, Note_on_c, 1, 60, 107
3, 134488, Note_on_c, 1, 60, 0
3, 134490, Note_on_c, 1, 55, 98
3, 134516, Note_on_c, 1, 55, 0
3, 134520, Note_on_c, 1, 52, 107
3, 134542, Note_on_c, 1, 52, 0
3, 134550, Note_on_c, 1, 55, 107
3, 134578, Note_on_c, 1, 55, 0
3, 134580, Note_on_c, 1, 60, 103
3, 134608, Note_on_c, 1, 60, 0
3, 134610, Note_on_c, 1, 55, 89
3, 134633, Note_on_c, 1, 48, 0
3, 134638, Note_on_c, 1, 55, 0
3, 134640, Note_on_c, 1, 43, 89
3, 134640, Note_on_c, 1, 53, 122
3, 134641, Control_c, 1, 64, 0
3, 134670, Note_on_c, 1, 53, 0
3, 134670, Control_c, 1, 64, 127
3, 134670, Note_on_c, 1, 55, 93
3, 134696, Note_on_c, 1, 55, 0
3, 134700, Note_on_c, 1, 59, 103
3, 134730, Note_on_c, 1, 55, 93
3, 134732, Note_on_c, 1, 59, 0
3, 134754, Note_on_c, 1, 55, 0
3, 134760, Note_on_c, 1, 53, 98
3, 134766, Control_c, 1, 64, 0
3, 134785, Control_c, 1, 64, 127
3, 134790, Note_on_c, 1, 53, 0
3, 134790, Note_on_c, 1, 55, 93
3, 134820, Note_on_c, 1, 55, 0
3, 134820, Note_on_c, 1, 59, 93
3, 134850, Note_on_c, 1, 55, 93
3, 134855, Note_on_c, 1, 59, 0
3, 134871, Note_on_c, 1, 55, 0
3, 134880, Note_on_c, 1, 43, 0
3, 134880, Note_on_c, 1, 52, 84
3, 134880, Note_on_c, 1, 36, 89
3, 134888, Control_c, 1, 64, 0
3, 134909, Note_on_c, 1, 52, 0
3, 134910, Note_on_c, 1, 55, 93
3, 134912, Control_c, 1, 64, 127
3, 134940, Note_on_c, 1, 55, 0
3, 134940, Note_on_c, 1, 60, 103
3, 134970, Note_on_c, 1, 60, 0
3, 134970, Note_on_c, 1, 55, 89
3, 135000, Note_on_c, 1, 55, 0
3, 135000, Note_on_c, 1, 52, 76
3, 135010, Control_c, 1, 64, 0
3, 135028, Note_on_c, 1, 52, 0
3, 135029, Control_c, 1, 64, 127
3, 135030, Note_on_c, 1, 55, 98
3, 135060, Note_on_c, 1, 60, 107
3, 135062, Note_on_c, 1, 55, 0
3, 135090, Note_on_c, 1, 55, 89
3, 135093, Note_on_c, 1, 60, 0
3, 135119, Note_on_c, 1, 36, 0
3, 135120, Note_on_c, 1, 53, 112
3, 135120, Note_on_c, 1, 43, 84
3, 135121, Note_on_c, 1, 55, 0
3, 135128, Control_c, 1, 64, 0
3, 135150, Note_on_c, 1, 55, 98
3, 135152, Note_on_c, 1, 53, 0
3, 135152, Control_c, 1, 64, 127
3, 135179, Note_on_c, 1, 55, 0
3, 135180, Note_on_c, 1, 59, 98
3, 135210, Note_on_c, 1, 55, 93
3, 135211, Note_on_c, 1, 59, 0
3, 135239, Note_on_c, 1, 55, 0
3, 135240, Note_on_c, 1, 53, 93
3, 135256, Control_c, 1, 64, 0
3, 135270, Note_on_c, 1, 55, 98
3, 135274, Note_on_c, 1, 53, 0
3, 135276, Control_c, 1, 64, 127
3, 135300, Note_on_c, 1, 55, 0
3, 135300, Note_on_c, 1, 59, 103
3, 135330, Note_on_c, 1, 55, 89
3, 135340, Note_on_c, 1, 59, 0
3, 135352, Note_on_c, 1, 55, 0
3, 135360, Note_on_c, 1, 52, 93
3, 135360, Note_on_c, 1, 36, 103
3, 135363, Note_on_c, 1, 43, 0
3, 135371, Control_c, 1, 64, 0
3, 135389, Note_on_c, 1, 52, 0
3, 135390, Note_on_c, 1, 55, 103
3, 135394, Control_c, 1, 64, 127
3, 135418, Note_on_c, 1, 55, 0
3, 135420, Note_on_c, 1, 60, 98
3, 135450, Note_on_c, 1, 59, 98
3, 135454, Note_on_c, 1, 60, 0
3, 135467, Control_c, 1, 64, 0
3, 135477, Note_on_c, 1, 59, 0
3, 135480, Note_on_c, 1, 60, 117
3, 135485, Control_c, 1, 64, 127
3, 135537, Note_on_c, 1, 60, 0
3, 135553, Note_on_c, 1, 36, 0
3, 135595, Control_c, 1, 64, 0
3, 135600, Note_on_c, 1, 59, 127
3, 135600, Note_on_c, 1, 55, 117
3, 135600, Note_on_c, 1, 62, 127
3, 135600, Note_on_c, 1, 43, 107
3, 135620, Control_c, 1, 64, 127
3, 135654, Note_on_c, 1, 59, 0
3, 135656, Note_on_c, 1, 55, 0
3, 135657, Note_on_c, 1, 62, 0
3, 135663, Note_on_c, 1, 43, 0
3, 135720, Note_on_c, 1, 48, 107
3, 135720, Note_on_c, 1, 60, 122
3, 135720, Note_on_c, 1, 55, 117
3, 135720, Note_on_c, 1, 64, 127
3, 135721, Control_c, 1, 64, 0
3, 135744, Control_c, 1, 64, 127
3, 135771, Note_on_c, 1, 60, 0
3, 135772, Note_on_c, 1, 64, 0
3, 135778, Note_on_c, 1, 55, 0
3, 135779, Note_on_c, 1, 48, 0
3, 135838, Control_c, 1, 64, 0
3, 135840, Note_on_c, 1, 55, 117
3, 135840, Note_on_c, 1, 59, 127
3, 135840, Note_on_c, 1, 62, 127
3, 135840, Note_on_c, 1, 43, 107
3, 135861, Control_c, 1, 64, 127
3, 135888, Note_on_c, 1, 59, 0
3, 135892, Note_on_c, 1, 55, 0
3, 135893, Note_on_c, 1, 62, 0
3, 135896, Note_on_c, 1, 43, 0
3, 135956, Control_c, 1, 64, 0
3, 135960, Note_on_c, 1, 60, 112
3, 135960, Note_on_c, 1, 55, 117
3, 135960, Note_on_c, 1, 36, 98
3, 135979, Control_c, 1, 64, 127
3, 136020, Note_on_c, 1, 55, 0
3, 136020, Note_on_c, 1, 60, 0
3, 136034, Note_on_c, 1, 36, 0
3, 136080, Control_c, 1, 64, 0
3, 136080, Note_on_c, 1, 55, 107
3, 136080, Note_on_c, 1, 59, 122
3, 136080, Note_on_c, 1, 62, 127
3, 136080, Note_on_c, 1, 43, 103
3, 136103, Control_c, 1, 64, 127
3, 136128, Note_on_c, 1, 59, 0
3, 136130, Note_on_c, 1, 55, 0
3, 136130, Note_on_c, 1, 62, 0
3, 136138, Note_on_c, 1, 43, 0
3, 136199, Control_c, 1, 64, 0
3, 136200, Note_on_c, 1, 55, 117
3, 136200, Note_on_c, 1, 60, 127
3, 136200, Note_on_c, 1, 64, 127
3, 136200, Note_on_c, 1, 48, 98
3, 136224, Control_c, 1, 64, 127
3, 136248, Note_on_c, 1, 60, 0
3, 136251, Note_on_c, 1, 64, 0
3, 136253, Note_on_c, 1, 55, 0
3, 136257, Note_on_c, 1, 48, 0
3, 136317, Control_c, 1, 64, 0
3, 136320, Note_on_c, 1, 55, 107
3, 136320, Note_on_c, 1, 59, 127
3, 136320, Note_on_c, 1, 62, 117
3, 136320, Note_on_c, 1, 43, 103
3, 136341, Control_c, 1, 64, 127
3, 136372, Note_on_c, 1, 59, 0
3, 136375, Note_on_c, 1, 55, 0
3, 136377, Note_on_c, 1, 62, 0
3, 136383, Note_on_c, 1, 43, 0
3, 136437, Control_c, 1, 64, 0
3, 136440, Note_on_c, 1, 60, 117
3, 136440, Note_on_c, 1, 36, 103
3, 136440, Note_on_c, 1, 55, 122
3, 136440, Note_on_c, 1, 48, 98
3, 136461, Control_c, 1, 64, 127
3, 136500, Note_on_c, 1, 60, 0
3, 136508, Note_on_c, 1, 55, 0
3, 136517, Note_on_c, 1, 36, 0
3, 136518, Note_on_c, 1, 48, 0
3, 136560, Note_on_c, 1, 36, 103
3, 136560, Note_on_c, 1, 55, 107
3, 136560, Note_on_c, 1, 48, 93
3, 136560, Note_on_c, 1, 60, 117
3, 136560, Note_on_c, 1, 52, 117
3, 136560, Note_on_c, 1, 43, 112
3, 136562, Control_c, 1, 64, 0
3, 136594, Control_c, 1, 64, 127
3, 136630, Note_on_c, 1, 52, 0
3, 136632, Note_on_c, 1, 60, 0
3, 136637, Note_on_c, 1, 43, 0
3, 136638, Note_on_c, 1, 36, 0
3, 136639, Note_on_c, 1, 55, 0
3, 136640, Note_on_c, 1, 48, 0
3, 136680, Note_on_c, 1, 48, 98
3, 136680, Note_on_c, 1, 52, 127
3, 136680, Note_on_c, 1, 36, 103
3, 136680, Note_on_c, 1, 43, 93
3, 136680, Note_on_c, 1, 60, 112
3, 136680, Note_on_c, 1, 55, 122
3, 136687, Control_c, 1, 64, 0
3, 136712, Control_c, 1, 64, 127
3, 136751, Note_on_c, 1, 60, 0
3, 136751, Note_on_c, 1, 52, 0
3, 136753, Note_on_c, 1, 48, 0
3, 136754, Note_on_c, 1, 43, 0
3, 136754, Note_on_c, 1, 36, 0
3, 136756, Note_on_c, 1, 55, 0
3, 136800, Note_on_c, 1, 36, 99
3, 136800, Note_on_c, 1, 43, 99
3, 136800, Note_on_c, 1, 48, 108
3, 136800, Note_on_c, 1, 52, 72
3, 136800, Note_on_c, 1, 55, 99
3, 136800, Note_on_c, 1, 60, 117
3, 136878, Control_c, 1, 64, 127
3, 137061, Control_c, 1, 64, 0
3, 137280, Note_on_c, 1, 60, 0
3, 137280, Note_on_c, 1, 43, 0
3, 137280, Note_on_c, 1, 48, 0
3, 137280, Note_on_c, 1, 36, 0
3, 137280, Note_on_c, 1, 55, 0
3, 137280, Note_on_c, 1, 52, 0
3, 137760, Control_c, 1, 121, 0
3, 137760, End_track
4, 0, Start_track
4, 0, MIDI_port, 0
4, 0, End_track
5, 0, Start_track
5, 0, MIDI_port, 0
5, 0, Title_t, "Title: Sonate in Cmaj (K. 19d, 1765)"
5, 0, End_track
6, 0, Start_track
6, 0, MIDI_port, 0
6, 0, Title_t, "Composer: W. A. Mozart"
6, 0, End_track
7, 0, Start_track
7, 0, MIDI_port, 0
7, 0, Title_t, "Sequence: Faren Raborn, Copyright 1996"
7, 0, End_track
8, 0, Start_track
8, 0, MIDI_port, 0
8, 0, Title_t, "Email: raborn@dtx.net"
8, 0, End_track
0, 0, End_of_file
