0, 0, Header, 1, 8, 120
1, 0, Start_track
1, 0, MIDI_port, 0
1, 0, System_exclusive, 5, 126, 127, 9, 1, 247
1, 0, MIDI_port, 0
1, 0, Time_signature, 4, 2, 24, 8
1, 0, Key_signature, -2, "major"
1, 0, Tempo, 500000
1, 480, Marker_t, "1st Mov't. ""Allegro"""
1, 53760, Time_signature, 3, 2, 24, 8
1, 53760, Key_signature, -3, "major"
1, 53760, Tempo, 1200000
1, 53760, Marker_t, "2nd Mov't. ""Adagio"""
1, 78960, Time_signature, 2, 2, 24, 8
1, 78960, Key_signature, -2, "major"
1, 78960, Tempo, 400000
1, 78960, Marker_t, "3rd Mov't. ""Molto presto"""
1, 78960, End_track
2, 0, Start_track
2, 0, MIDI_port, 0
2, 0, Title_t, "Primo"
2, 0, Program_c, 0, 0
2, 0, Control_c, 0, 10, 84
2, 0, Control_c, 0, 121, 0
2, 0, Control_c, 0, 7, 127
2, 0, Control_c, 0, 91, 75
2, 480, Note_on_c, 0, 70, 88
2, 480, Note_on_c, 0, 82, 108
2, 494, Control_c, 0, 64, 127
2, 712, Note_on_c, 0, 82, 0
2, 713, Note_on_c, 0, 70, 0
2, 716, Control_c, 0, 64, 0
2, 720, Note_on_c, 0, 77, 93
2, 720, Note_on_c, 0, 65, 84
2, 752, Control_c, 0, 64, 127
2, 956, Control_c, 0, 64, 0
2, 957, Note_on_c, 0, 65, 0
2, 959, Note_on_c, 0, 77, 0
2, 960, Note_on_c, 0, 62, 84
2, 960, Note_on_c, 0, 74, 88
2, 996, Control_c, 0, 64, 127
2, 1118, Control_c, 0, 64, 0
2, 1130, Note_on_c, 0, 62, 0
2, 1131, Note_on_c, 0, 74, 0
2, 1140, Note_on_c, 0, 58, 80
2, 1140, Note_on_c, 0, 70, 88
2, 1194, Note_on_c, 0, 70, 0
2, 1197, Note_on_c, 0, 58, 0
2, 1200, Note_on_c, 0, 72, 84
2, 1200, Note_on_c, 0, 60, 84
2, 1209, Control_c, 0, 64, 127
2, 1214, Control_c, 0, 64, 0
2, 1258, Note_on_c, 0, 60, 0
2, 1260, Note_on_c, 0, 74, 93
2, 1260, Note_on_c, 0, 62, 88
2, 1264, Note_on_c, 0, 72, 0
2, 1320, Note_on_c, 0, 74, 0
2, 1320, Note_on_c, 0, 75, 84
2, 1320, Note_on_c, 0, 63, 80
2, 1322, Note_on_c, 0, 62, 0
2, 1370, Control_c, 0, 64, 127
2, 1380, Note_on_c, 0, 75, 0
2, 1380, Note_on_c, 0, 65, 88
2, 1380, Note_on_c, 0, 77, 93
2, 1381, Note_on_c, 0, 63, 0
2, 1401, Control_c, 0, 64, 0
2, 1436, Note_on_c, 0, 77, 0
2, 1440, Note_on_c, 0, 79, 88
2, 1440, Note_on_c, 0, 67, 84
2, 1447, Note_on_c, 0, 65, 0
2, 1498, Note_on_c, 0, 67, 0
2, 1499, Note_on_c, 0, 79, 0
2, 1500, Note_on_c, 0, 77, 84
2, 1500, Note_on_c, 0, 65, 84
2, 1560, Note_on_c, 0, 63, 75
2, 1560, Note_on_c, 0, 75, 80
2, 1564, Note_on_c, 0, 65, 0
2, 1565, Note_on_c, 0, 77, 0
2, 1576, Control_c, 0, 64, 127
2, 1596, Control_c, 0, 64, 0
2, 1612, Note_on_c, 0, 63, 0
2, 1616, Note_on_c, 0, 75, 0
2, 1620, Note_on_c, 0, 62, 80
2, 1620, Note_on_c, 0, 74, 88
2, 1678, Note_on_c, 0, 74, 0
2, 1680, Note_on_c, 0, 75, 84
2, 1680, Note_on_c, 0, 63, 67
2, 1683, Note_on_c, 0, 62, 0
2, 1739, Note_on_c, 0, 75, 0
2, 1740, Note_on_c, 0, 77, 88
2, 1740, Note_on_c, 0, 65, 88
2, 1745, Note_on_c, 0, 63, 0
2, 1797, Note_on_c, 0, 77, 0
2, 1799, Note_on_c, 0, 65, 0
2, 1800, Note_on_c, 0, 79, 93
2, 1800, Note_on_c, 0, 67, 84
2, 1860, Note_on_c, 0, 69, 75
2, 1860, Note_on_c, 0, 81, 93
2, 1861, Note_on_c, 0, 79, 0
2, 1863, Note_on_c, 0, 67, 0
2, 1920, Note_on_c, 0, 82, 88
2, 1920, Note_on_c, 0, 70, 84
2, 1921, Note_on_c, 0, 81, 0
2, 1922, Note_on_c, 0, 69, 0
2, 1939, Control_c, 0, 64, 127
2, 2036, Note_on_c, 0, 82, 0
2, 2037, Note_on_c, 0, 70, 0
2, 2051, Control_c, 0, 64, 0
2, 2160, Note_on_c, 0, 63, 84
2, 2165, Control_c, 0, 64, 127
2, 2220, Note_on_c, 0, 67, 71
2, 2233, Note_on_c, 0, 63, 0
2, 2241, Control_c, 0, 64, 0
2, 2280, Note_on_c, 0, 67, 0
2, 2280, Note_on_c, 0, 65, 67
2, 2294, Note_on_c, 0, 65, 0
2, 2340, Note_on_c, 0, 63, 71
2, 2353, Note_on_c, 0, 63, 0
2, 2400, Note_on_c, 0, 62, 84
2, 2413, Control_c, 0, 64, 127
2, 2460, Note_on_c, 0, 62, 0
2, 2460, Note_on_c, 0, 65, 67
2, 2467, Control_c, 0, 64, 0
2, 2520, Note_on_c, 0, 63, 63
2, 2526, Note_on_c, 0, 65, 0
2, 2534, Note_on_c, 0, 63, 0
2, 2580, Note_on_c, 0, 62, 71
2, 2593, Note_on_c, 0, 62, 0
2, 2640, Note_on_c, 0, 60, 84
2, 2659, Control_c, 0, 64, 127
2, 2697, Note_on_c, 0, 60, 0
2, 2700, Note_on_c, 0, 63, 57
2, 2708, Control_c, 0, 64, 0
2, 2760, Note_on_c, 0, 63, 0
2, 2760, Note_on_c, 0, 62, 84
2, 2775, Note_on_c, 0, 62, 0
2, 2820, Note_on_c, 0, 60, 71
2, 2833, Note_on_c, 0, 60, 0
2, 2880, Note_on_c, 0, 77, 108
2, 2880, Note_on_c, 0, 58, 108
2, 2970, Note_on_c, 0, 74, 88
2, 2971, Note_on_c, 0, 77, 0
2, 2987, Note_on_c, 0, 74, 0
2, 3000, Note_on_c, 0, 77, 102
2, 3005, Control_c, 0, 64, 127
2, 3036, Note_on_c, 0, 77, 0
2, 3055, Note_on_c, 0, 58, 0
2, 3100, Control_c, 0, 64, 0
2, 3120, Note_on_c, 0, 63, 57
2, 3180, Note_on_c, 0, 67, 59
2, 3181, Note_on_c, 0, 63, 0
2, 3237, Note_on_c, 0, 67, 0
2, 3240, Note_on_c, 0, 65, 75
2, 3256, Note_on_c, 0, 65, 0
2, 3300, Note_on_c, 0, 63, 63
2, 3311, Note_on_c, 0, 63, 0
2, 3360, Note_on_c, 0, 62, 59
2, 3374, Control_c, 0, 64, 127
2, 3420, Note_on_c, 0, 62, 0
2, 3420, Note_on_c, 0, 65, 71
2, 3448, Control_c, 0, 64, 0
2, 3480, Note_on_c, 0, 63, 67
2, 3485, Note_on_c, 0, 65, 0
2, 3493, Note_on_c, 0, 63, 0
2, 3540, Note_on_c, 0, 62, 67
2, 3553, Note_on_c, 0, 62, 0
2, 3600, Note_on_c, 0, 60, 67
2, 3605, Control_c, 0, 64, 127
2, 3657, Control_c, 0, 64, 0
2, 3659, Note_on_c, 0, 60, 0
2, 3660, Note_on_c, 0, 63, 55
2, 3720, Note_on_c, 0, 63, 0
2, 3720, Note_on_c, 0, 62, 75
2, 3738, Note_on_c, 0, 62, 0
2, 3780, Note_on_c, 0, 60, 71
2, 3794, Note_on_c, 0, 60, 0
2, 3840, Note_on_c, 0, 77, 108
2, 3840, Note_on_c, 0, 58, 97
2, 3878, Control_c, 0, 64, 127
2, 3926, Note_on_c, 0, 77, 0
2, 3929, Control_c, 0, 64, 0
2, 3930, Note_on_c, 0, 74, 71
2, 3944, Note_on_c, 0, 74, 0
2, 3960, Note_on_c, 0, 77, 108
2, 3981, Control_c, 0, 64, 127
2, 4012, Note_on_c, 0, 58, 0
2, 4025, Note_on_c, 0, 77, 0
2, 4061, Control_c, 0, 64, 0
2, 4080, Note_on_c, 0, 75, 114
2, 4080, Note_on_c, 0, 63, 75
2, 4096, Control_c, 0, 64, 127
2, 4140, Note_on_c, 0, 67, 84
2, 4140, Note_on_c, 0, 79, 88
2, 4143, Note_on_c, 0, 63, 0
2, 4145, Control_c, 0, 64, 0
2, 4146, Note_on_c, 0, 75, 0
2, 4192, Note_on_c, 0, 79, 0
2, 4200, Note_on_c, 0, 77, 97
2, 4200, Note_on_c, 0, 65, 97
2, 4202, Note_on_c, 0, 67, 0
2, 4214, Note_on_c, 0, 65, 0
2, 4216, Note_on_c, 0, 77, 0
2, 4260, Note_on_c, 0, 63, 97
2, 4260, Note_on_c, 0, 75, 97
2, 4274, Note_on_c, 0, 75, 0
2, 4276, Note_on_c, 0, 63, 0
2, 4320, Note_on_c, 0, 62, 88
2, 4320, Note_on_c, 0, 74, 97
2, 4343, Control_c, 0, 64, 127
2, 4378, Note_on_c, 0, 74, 0
2, 4380, Note_on_c, 0, 77, 88
2, 4380, Note_on_c, 0, 65, 84
2, 4383, Note_on_c, 0, 62, 0
2, 4386, Control_c, 0, 64, 0
2, 4440, Note_on_c, 0, 75, 97
2, 4440, Note_on_c, 0, 63, 80
2, 4441, Note_on_c, 0, 65, 0
2, 4443, Note_on_c, 0, 77, 0
2, 4458, Note_on_c, 0, 75, 0
2, 4459, Note_on_c, 0, 63, 0
2, 4500, Note_on_c, 0, 74, 102
2, 4500, Note_on_c, 0, 62, 84
2, 4514, Note_on_c, 0, 74, 0
2, 4517, Note_on_c, 0, 62, 0
2, 4560, Note_on_c, 0, 60, 84
2, 4560, Note_on_c, 0, 72, 97
2, 4580, Control_c, 0, 64, 127
2, 4619, Note_on_c, 0, 60, 0
2, 4620, Note_on_c, 0, 63, 71
2, 4620, Note_on_c, 0, 75, 75
2, 4621, Note_on_c, 0, 72, 0
2, 4635, Control_c, 0, 64, 0
2, 4675, Note_on_c, 0, 63, 0
2, 4676, Note_on_c, 0, 75, 0
2, 4680, Note_on_c, 0, 74, 88
2, 4680, Note_on_c, 0, 62, 75
2, 4699, Note_on_c, 0, 74, 0
2, 4702, Note_on_c, 0, 62, 0
2, 4740, Note_on_c, 0, 72, 88
2, 4740, Note_on_c, 0, 60, 84
2, 4758, Note_on_c, 0, 60, 0
2, 4760, Note_on_c, 0, 72, 0
2, 4800, Note_on_c, 0, 58, 80
2, 4800, Note_on_c, 0, 77, 88
2, 4803, Control_c, 0, 64, 127
2, 4830, Note_on_c, 0, 70, 84
2, 4836, Note_on_c, 0, 77, 0
2, 4836, Control_c, 0, 64, 0
2, 4848, Note_on_c, 0, 70, 0
2, 4860, Note_on_c, 0, 72, 93
2, 4885, Note_on_c, 0, 72, 0
2, 4890, Note_on_c, 0, 74, 71
2, 4916, Note_on_c, 0, 74, 0
2, 4920, Note_on_c, 0, 75, 93
2, 4928, Note_on_c, 0, 58, 0
2, 4944, Note_on_c, 0, 75, 0
2, 4950, Note_on_c, 0, 77, 84
2, 4971, Note_on_c, 0, 77, 0
2, 4980, Note_on_c, 0, 79, 75
2, 5004, Note_on_c, 0, 79, 0
2, 5010, Note_on_c, 0, 81, 88
2, 5036, Note_on_c, 0, 81, 0
2, 5040, Note_on_c, 0, 82, 108
2, 5040, Note_on_c, 0, 70, 88
2, 5040, Note_on_c, 0, 62, 97
2, 5040, Note_on_c, 0, 65, 88
2, 5154, Note_on_c, 0, 82, 0
2, 5160, Note_on_c, 0, 82, 88
2, 5164, Note_on_c, 0, 65, 0
2, 5168, Note_on_c, 0, 70, 0
2, 5170, Note_on_c, 0, 62, 0
2, 5190, Note_on_c, 0, 81, 88
2, 5192, Note_on_c, 0, 82, 0
2, 5217, Note_on_c, 0, 81, 0
2, 5220, Note_on_c, 0, 79, 93
2, 5248, Note_on_c, 0, 79, 0
2, 5250, Note_on_c, 0, 78, 84
2, 5271, Note_on_c, 0, 78, 0
2, 5280, Note_on_c, 0, 79, 97
2, 5280, Note_on_c, 0, 70, 75
2, 5280, Note_on_c, 0, 63, 84
2, 5280, Note_on_c, 0, 67, 93
2, 5307, Control_c, 0, 64, 127
2, 5337, Note_on_c, 0, 79, 0
2, 5383, Note_on_c, 0, 67, 0
2, 5385, Note_on_c, 0, 70, 0
2, 5386, Note_on_c, 0, 63, 0
2, 5400, Note_on_c, 0, 79, 93
2, 5407, Control_c, 0, 64, 0
2, 5430, Note_on_c, 0, 79, 0
2, 5430, Note_on_c, 0, 77, 84
2, 5460, Note_on_c, 0, 75, 71
2, 5463, Note_on_c, 0, 77, 0
2, 5487, Note_on_c, 0, 75, 0
2, 5490, Note_on_c, 0, 74, 88
2, 5510, Note_on_c, 0, 74, 0
2, 5520, Note_on_c, 0, 75, 108
2, 5520, Note_on_c, 0, 63, 80
2, 5520, Note_on_c, 0, 67, 88
2, 5541, Control_c, 0, 64, 127
2, 5612, Note_on_c, 0, 67, 0
2, 5614, Note_on_c, 0, 75, 0
2, 5616, Note_on_c, 0, 63, 0
2, 5639, Control_c, 0, 64, 0
2, 5640, Note_on_c, 0, 75, 102
2, 5662, Note_on_c, 0, 75, 0
2, 5670, Note_on_c, 0, 74, 88
2, 5699, Note_on_c, 0, 74, 0
2, 5700, Note_on_c, 0, 72, 71
2, 5730, Note_on_c, 0, 70, 108
2, 5737, Note_on_c, 0, 72, 0
2, 5750, Note_on_c, 0, 70, 0
2, 5761, Note_on_c, 0, 69, 102
2, 5762, Note_on_c, 0, 65, 88
2, 5791, Control_c, 0, 64, 127
2, 5873, Control_c, 0, 64, 0
2, 5874, Note_on_c, 0, 69, 0
2, 5876, Note_on_c, 0, 65, 0
2, 6000, Note_on_c, 0, 70, 63
2, 6000, Note_on_c, 0, 82, 71
2, 6029, Note_on_c, 0, 82, 0
2, 6029, Note_on_c, 0, 70, 0
2, 6030, Note_on_c, 0, 81, 80
2, 6030, Note_on_c, 0, 69, 59
2, 6059, Note_on_c, 0, 69, 0
2, 6059, Note_on_c, 0, 81, 0
2, 6060, Note_on_c, 0, 70, 57
2, 6060, Note_on_c, 0, 82, 67
2, 6089, Note_on_c, 0, 82, 0
2, 6089, Note_on_c, 0, 70, 0
2, 6090, Note_on_c, 0, 69, 71
2, 6090, Note_on_c, 0, 81, 75
2, 6119, Note_on_c, 0, 81, 0
2, 6119, Note_on_c, 0, 69, 0
2, 6120, Note_on_c, 0, 82, 71
2, 6120, Note_on_c, 0, 70, 55
2, 6149, Note_on_c, 0, 70, 0
2, 6149, Note_on_c, 0, 82, 0
2, 6150, Note_on_c, 0, 81, 71
2, 6150, Note_on_c, 0, 69, 71
2, 6179, Note_on_c, 0, 69, 0
2, 6179, Note_on_c, 0, 81, 0
2, 6180, Note_on_c, 0, 67, 75
2, 6180, Note_on_c, 0, 79, 71
2, 6209, Note_on_c, 0, 79, 0
2, 6209, Note_on_c, 0, 67, 0
2, 6210, Note_on_c, 0, 81, 84
2, 6210, Note_on_c, 0, 69, 75
2, 6239, Note_on_c, 0, 69, 0
2, 6239, Note_on_c, 0, 81, 0
2, 6240, Control_c, 0, 64, 127
2, 6240, Note_on_c, 0, 82, 88
2, 6240, Note_on_c, 0, 70, 88
2, 6359, Note_on_c, 0, 70, 0
2, 6359, Note_on_c, 0, 82, 0
2, 6360, Control_c, 0, 64, 0
2, 6360, Note_on_c, 0, 65, 84
2, 6360, Note_on_c, 0, 77, 93
2, 6360, Control_c, 0, 64, 127
2, 6479, Note_on_c, 0, 77, 0
2, 6479, Note_on_c, 0, 65, 0
2, 6480, Control_c, 0, 64, 0
2, 6480, Note_on_c, 0, 86, 97
2, 6480, Note_on_c, 0, 74, 84
2, 6480, Control_c, 0, 64, 127
2, 6599, Note_on_c, 0, 74, 0
2, 6599, Note_on_c, 0, 86, 0
2, 6600, Control_c, 0, 64, 0
2, 6600, Note_on_c, 0, 82, 84
2, 6600, Note_on_c, 0, 70, 75
2, 6600, Control_c, 0, 64, 127
2, 6719, Note_on_c, 0, 70, 0
2, 6719, Note_on_c, 0, 82, 0
2, 6720, Note_on_c, 0, 77, 88
2, 6720, Note_on_c, 0, 89, 93
2, 6720, Control_c, 0, 64, 127
2, 6959, Note_on_c, 0, 89, 0
2, 6959, Note_on_c, 0, 77, 0
2, 6960, Control_c, 0, 64, 0
2, 6960, Note_on_c, 0, 70, 71
2, 6960, Note_on_c, 0, 82, 71
2, 6989, Note_on_c, 0, 82, 0
2, 6989, Note_on_c, 0, 70, 0
2, 6990, Note_on_c, 0, 81, 75
2, 6990, Note_on_c, 0, 69, 75
2, 7019, Note_on_c, 0, 69, 0
2, 7019, Note_on_c, 0, 81, 0
2, 7020, Note_on_c, 0, 82, 71
2, 7020, Note_on_c, 0, 70, 71
2, 7049, Note_on_c, 0, 70, 0
2, 7049, Note_on_c, 0, 82, 0
2, 7050, Note_on_c, 0, 69, 63
2, 7050, Note_on_c, 0, 81, 75
2, 7079, Note_on_c, 0, 81, 0
2, 7079, Note_on_c, 0, 69, 0
2, 7080, Note_on_c, 0, 70, 71
2, 7080, Note_on_c, 0, 82, 80
2, 7109, Note_on_c, 0, 82, 0
2, 7109, Note_on_c, 0, 70, 0
2, 7110, Note_on_c, 0, 81, 71
2, 7110, Note_on_c, 0, 69, 51
2, 7139, Note_on_c, 0, 69, 0
2, 7139, Note_on_c, 0, 81, 0
2, 7140, Note_on_c, 0, 79, 80
2, 7140, Note_on_c, 0, 67, 75
2, 7169, Note_on_c, 0, 67, 0
2, 7169, Note_on_c, 0, 79, 0
2, 7170, Note_on_c, 0, 69, 59
2, 7170, Note_on_c, 0, 81, 71
2, 7199, Note_on_c, 0, 81, 0
2, 7199, Note_on_c, 0, 69, 0
2, 7200, Note_on_c, 0, 70, 71
2, 7200, Note_on_c, 0, 82, 88
2, 7200, Control_c, 0, 64, 127
2, 7319, Note_on_c, 0, 82, 0
2, 7319, Note_on_c, 0, 70, 0
2, 7320, Note_on_c, 0, 77, 93
2, 7320, Note_on_c, 0, 65, 84
2, 7320, Control_c, 0, 64, 0
2, 7320, Control_c, 0, 64, 127
2, 7439, Note_on_c, 0, 65, 0
2, 7439, Note_on_c, 0, 77, 0
2, 7440, Control_c, 0, 64, 0
2, 7440, Note_on_c, 0, 86, 97
2, 7440, Note_on_c, 0, 74, 84
2, 7440, Control_c, 0, 64, 127
2, 7559, Note_on_c, 0, 74, 0
2, 7559, Note_on_c, 0, 86, 0
2, 7560, Note_on_c, 0, 70, 75
2, 7560, Note_on_c, 0, 82, 88
2, 7679, Note_on_c, 0, 82, 0
2, 7679, Note_on_c, 0, 70, 0
2, 7680, Control_c, 0, 64, 0
2, 7680, Note_on_c, 0, 89, 97
2, 7680, Note_on_c, 0, 77, 88
2, 7680, Control_c, 0, 64, 127
2, 7799, Note_on_c, 0, 77, 0
2, 7799, Note_on_c, 0, 89, 0
2, 7800, Control_c, 0, 64, 0
2, 7800, Control_c, 0, 64, 127
2, 7800, Note_on_c, 0, 77, 88
2, 7800, Note_on_c, 0, 72, 84
2, 7800, Note_on_c, 0, 65, 75
2, 7800, Note_on_c, 0, 69, 88
2, 7889, Note_on_c, 0, 69, 0
2, 7889, Note_on_c, 0, 77, 0
2, 7889, Note_on_c, 0, 72, 0
2, 7889, Note_on_c, 0, 65, 0
2, 7890, Control_c, 0, 64, 0
2, 7890, Note_on_c, 0, 72, 84
2, 7890, Note_on_c, 0, 77, 84
2, 7890, Note_on_c, 0, 65, 75
2, 7890, Note_on_c, 0, 69, 88
2, 7919, Note_on_c, 0, 69, 0
2, 7919, Note_on_c, 0, 72, 0
2, 7919, Note_on_c, 0, 77, 0
2, 7919, Note_on_c, 0, 65, 0
2, 7920, Note_on_c, 0, 77, 80
2, 7920, Note_on_c, 0, 72, 88
2, 7920, Note_on_c, 0, 65, 80
2, 7920, Note_on_c, 0, 69, 88
2, 7920, Control_c, 0, 64, 127
2, 8039, Note_on_c, 0, 69, 0
2, 8039, Note_on_c, 0, 77, 0
2, 8039, Note_on_c, 0, 72, 0
2, 8039, Note_on_c, 0, 65, 0
2, 8040, Control_c, 0, 64, 0
2, 8160, Note_on_c, 0, 65, 57
2, 8160, Control_c, 0, 64, 127
2, 8209, Note_on_c, 0, 65, 0
2, 8220, Note_on_c, 0, 60, 51
2, 8278, Note_on_c, 0, 60, 0
2, 8280, Note_on_c, 0, 65, 45
2, 8280, Note_on_c, 0, 81, 71
2, 8338, Note_on_c, 0, 65, 0
2, 8340, Note_on_c, 0, 60, 50
2, 8351, Note_on_c, 0, 81, 0
2, 8397, Note_on_c, 0, 60, 0
2, 8400, Note_on_c, 0, 81, 75
2, 8400, Note_on_c, 0, 65, 59
2, 8452, Note_on_c, 0, 65, 0
2, 8460, Note_on_c, 0, 60, 48
2, 8466, Note_on_c, 0, 81, 0
2, 8514, Note_on_c, 0, 60, 0
2, 8520, Note_on_c, 0, 81, 67
2, 8520, Note_on_c, 0, 65, 46
2, 8575, Note_on_c, 0, 65, 0
2, 8580, Note_on_c, 0, 60, 51
2, 8609, Note_on_c, 0, 81, 0
2, 8636, Control_c, 0, 64, 0
2, 8639, Note_on_c, 0, 60, 0
2, 8640, Note_on_c, 0, 84, 54
2, 8640, Note_on_c, 0, 64, 59
2, 8666, Control_c, 0, 64, 127
2, 8690, Note_on_c, 0, 64, 0
2, 8690, Note_on_c, 0, 84, 0
2, 8700, Note_on_c, 0, 60, 47
2, 8700, Note_on_c, 0, 82, 59
2, 8712, Control_c, 0, 64, 0
2, 8736, Control_c, 0, 64, 127
2, 8760, Note_on_c, 0, 82, 0
2, 8760, Note_on_c, 0, 64, 59
2, 8760, Note_on_c, 0, 79, 75
2, 8764, Note_on_c, 0, 60, 0
2, 8769, Control_c, 0, 64, 0
2, 8775, Note_on_c, 0, 79, 0
2, 8783, Note_on_c, 0, 64, 0
2, 8820, Note_on_c, 0, 60, 57
2, 8820, Note_on_c, 0, 76, 71
2, 8838, Note_on_c, 0, 76, 0
2, 8853, Note_on_c, 0, 60, 0
2, 8880, Note_on_c, 0, 67, 52
2, 8880, Note_on_c, 0, 72, 67
2, 8910, Control_c, 0, 64, 127
2, 8933, Note_on_c, 0, 67, 0
2, 8940, Note_on_c, 0, 64, 48
2, 8969, Note_on_c, 0, 64, 0
2, 9000, Note_on_c, 0, 70, 59
2, 9002, Note_on_c, 0, 72, 0
2, 9013, Control_c, 0, 64, 0
2, 9048, Control_c, 0, 64, 127
2, 9060, Note_on_c, 0, 67, 59
2, 9061, Note_on_c, 0, 70, 0
2, 9106, Note_on_c, 0, 67, 0
2, 9120, Note_on_c, 0, 69, 63
2, 9131, Control_c, 0, 64, 0
2, 9165, Control_c, 0, 64, 127
2, 9179, Note_on_c, 0, 69, 0
2, 9180, Note_on_c, 0, 60, 55
2, 9236, Note_on_c, 0, 60, 0
2, 9240, Note_on_c, 0, 69, 57
2, 9240, Note_on_c, 0, 89, 84
2, 9242, Control_c, 0, 64, 0
2, 9272, Control_c, 0, 64, 127
2, 9295, Note_on_c, 0, 69, 0
2, 9300, Note_on_c, 0, 60, 50
2, 9325, Note_on_c, 0, 89, 0
2, 9342, Note_on_c, 0, 60, 0
2, 9360, Note_on_c, 0, 65, 55
2, 9360, Note_on_c, 0, 81, 80
2, 9367, Control_c, 0, 64, 0
2, 9399, Control_c, 0, 64, 127
2, 9416, Note_on_c, 0, 65, 0
2, 9420, Note_on_c, 0, 60, 55
2, 9462, Note_on_c, 0, 81, 0
2, 9478, Note_on_c, 0, 60, 0
2, 9480, Note_on_c, 0, 65, 52
2, 9480, Note_on_c, 0, 84, 84
2, 9495, Control_c, 0, 64, 0
2, 9527, Control_c, 0, 64, 127
2, 9534, Note_on_c, 0, 65, 0
2, 9540, Note_on_c, 0, 60, 50
2, 9560, Note_on_c, 0, 84, 0
2, 9600, Note_on_c, 0, 60, 0
2, 9600, Note_on_c, 0, 84, 75
2, 9600, Control_c, 0, 64, 0
2, 9600, Note_on_c, 0, 64, 57
2, 9631, Control_c, 0, 64, 127
2, 9655, Note_on_c, 0, 64, 0
2, 9658, Note_on_c, 0, 84, 0
2, 9660, Note_on_c, 0, 60, 55
2, 9660, Note_on_c, 0, 82, 67
2, 9678, Control_c, 0, 64, 0
2, 9704, Control_c, 0, 64, 127
2, 9720, Note_on_c, 0, 82, 0
2, 9720, Note_on_c, 0, 64, 57
2, 9720, Note_on_c, 0, 79, 75
2, 9721, Note_on_c, 0, 60, 0
2, 9726, Control_c, 0, 64, 0
2, 9735, Note_on_c, 0, 79, 0
2, 9743, Note_on_c, 0, 64, 0
2, 9780, Note_on_c, 0, 60, 52
2, 9780, Note_on_c, 0, 76, 67
2, 9800, Note_on_c, 0, 76, 0
2, 9821, Note_on_c, 0, 60, 0
2, 9840, Note_on_c, 0, 67, 47
2, 9840, Note_on_c, 0, 72, 67
2, 9870, Control_c, 0, 64, 127
2, 9900, Note_on_c, 0, 64, 71
2, 9901, Note_on_c, 0, 67, 0
2, 9944, Note_on_c, 0, 64, 0
2, 9960, Note_on_c, 0, 70, 59
2, 9961, Control_c, 0, 64, 0
2, 9986, Control_c, 0, 64, 127
2, 10016, Note_on_c, 0, 70, 0
2, 10016, Note_on_c, 0, 72, 0
2, 10020, Note_on_c, 0, 67, 71
2, 10036, Note_on_c, 0, 67, 0
2, 10080, Note_on_c, 0, 69, 75
2, 10080, Control_c, 0, 64, 0
2, 10110, Control_c, 0, 64, 127
2, 10143, Note_on_c, 0, 69, 0
2, 10200, Note_on_c, 0, 84, 88
2, 10200, Note_on_c, 0, 72, 80
2, 10205, Control_c, 0, 64, 0
2, 10234, Control_c, 0, 64, 127
2, 10274, Note_on_c, 0, 72, 0
2, 10284, Note_on_c, 0, 84, 0
2, 10320, Note_on_c, 0, 84, 80
2, 10320, Note_on_c, 0, 72, 75
2, 10329, Control_c, 0, 64, 0
2, 10354, Control_c, 0, 64, 127
2, 10400, Note_on_c, 0, 72, 0
2, 10406, Note_on_c, 0, 84, 0
2, 10440, Note_on_c, 0, 84, 84
2, 10440, Note_on_c, 0, 72, 71
2, 10448, Control_c, 0, 64, 0
2, 10472, Control_c, 0, 64, 127
2, 10486, Note_on_c, 0, 84, 0
2, 10492, Note_on_c, 0, 72, 0
2, 10560, Note_on_c, 0, 85, 71
2, 10560, Note_on_c, 0, 73, 75
2, 10567, Control_c, 0, 64, 127
2, 10616, Note_on_c, 0, 85, 0
2, 10619, Note_on_c, 0, 73, 0
2, 10620, Note_on_c, 0, 86, 84
2, 10620, Note_on_c, 0, 74, 71
2, 10630, Control_c, 0, 64, 0
2, 10680, Note_on_c, 0, 70, 57
2, 10680, Note_on_c, 0, 82, 84
2, 10681, Note_on_c, 0, 86, 0
2, 10684, Note_on_c, 0, 74, 0
2, 10698, Note_on_c, 0, 82, 0
2, 10701, Note_on_c, 0, 70, 0
2, 10740, Note_on_c, 0, 67, 75
2, 10740, Note_on_c, 0, 79, 71
2, 10759, Note_on_c, 0, 79, 0
2, 10759, Note_on_c, 0, 67, 0
2, 10800, Note_on_c, 0, 71, 71
2, 10800, Note_on_c, 0, 83, 75
2, 10828, Control_c, 0, 64, 127
2, 10857, Note_on_c, 0, 83, 0
2, 10860, Note_on_c, 0, 71, 0
2, 10860, Note_on_c, 0, 84, 80
2, 10860, Note_on_c, 0, 72, 63
2, 10864, Control_c, 0, 64, 0
2, 10917, Note_on_c, 0, 72, 0
2, 10920, Note_on_c, 0, 69, 71
2, 10920, Note_on_c, 0, 81, 80
2, 10924, Note_on_c, 0, 84, 0
2, 10934, Note_on_c, 0, 81, 0
2, 10940, Note_on_c, 0, 69, 0
2, 10980, Note_on_c, 0, 65, 67
2, 10980, Note_on_c, 0, 77, 71
2, 11000, Note_on_c, 0, 77, 0
2, 11002, Note_on_c, 0, 65, 0
2, 11040, Note_on_c, 0, 69, 67
2, 11040, Note_on_c, 0, 81, 63
2, 11069, Note_on_c, 0, 81, 0
2, 11069, Note_on_c, 0, 69, 0
2, 11070, Note_on_c, 0, 79, 71
2, 11070, Note_on_c, 0, 67, 63
2, 11099, Note_on_c, 0, 67, 0
2, 11099, Note_on_c, 0, 79, 0
2, 11100, Note_on_c, 0, 81, 67
2, 11100, Note_on_c, 0, 69, 67
2, 11129, Note_on_c, 0, 69, 0
2, 11129, Note_on_c, 0, 81, 0
2, 11130, Note_on_c, 0, 79, 63
2, 11130, Note_on_c, 0, 67, 47
2, 11159, Note_on_c, 0, 67, 0
2, 11159, Note_on_c, 0, 79, 0
2, 11160, Note_on_c, 0, 69, 67
2, 11160, Note_on_c, 0, 81, 57
2, 11189, Note_on_c, 0, 81, 0
2, 11189, Note_on_c, 0, 69, 0
2, 11190, Note_on_c, 0, 79, 59
2, 11190, Note_on_c, 0, 67, 52
2, 11219, Note_on_c, 0, 67, 0
2, 11219, Note_on_c, 0, 79, 0
2, 11220, Note_on_c, 0, 81, 48
2, 11220, Note_on_c, 0, 69, 59
2, 11249, Note_on_c, 0, 69, 0
2, 11249, Note_on_c, 0, 81, 0
2, 11250, Note_on_c, 0, 79, 71
2, 11250, Note_on_c, 0, 67, 55
2, 11279, Note_on_c, 0, 67, 0
2, 11279, Note_on_c, 0, 79, 0
2, 11280, Note_on_c, 0, 69, 57
2, 11280, Note_on_c, 0, 81, 63
2, 11309, Note_on_c, 0, 81, 0
2, 11309, Note_on_c, 0, 69, 0
2, 11310, Note_on_c, 0, 67, 57
2, 11310, Note_on_c, 0, 79, 63
2, 11339, Note_on_c, 0, 79, 0
2, 11339, Note_on_c, 0, 67, 0
2, 11340, Note_on_c, 0, 69, 67
2, 11340, Note_on_c, 0, 81, 59
2, 11369, Note_on_c, 0, 81, 0
2, 11369, Note_on_c, 0, 69, 0
2, 11370, Note_on_c, 0, 79, 71
2, 11370, Note_on_c, 0, 67, 59
2, 11399, Note_on_c, 0, 67, 0
2, 11399, Note_on_c, 0, 79, 0
2, 11400, Note_on_c, 0, 69, 63
2, 11400, Note_on_c, 0, 81, 67
2, 11429, Note_on_c, 0, 81, 0
2, 11429, Note_on_c, 0, 69, 0
2, 11430, Note_on_c, 0, 67, 59
2, 11430, Note_on_c, 0, 79, 71
2, 11459, Note_on_c, 0, 79, 0
2, 11459, Note_on_c, 0, 67, 0
2, 11460, Note_on_c, 0, 65, 67
2, 11460, Note_on_c, 0, 77, 67
2, 11489, Note_on_c, 0, 77, 0
2, 11489, Note_on_c, 0, 65, 0
2, 11490, Note_on_c, 0, 79, 71
2, 11490, Note_on_c, 0, 67, 63
2, 11519, Note_on_c, 0, 67, 0
2, 11519, Note_on_c, 0, 79, 0
2, 11520, Note_on_c, 0, 65, 71
2, 11520, Note_on_c, 0, 77, 80
2, 11639, Note_on_c, 0, 77, 0
2, 11639, Note_on_c, 0, 65, 0
2, 12120, Note_on_c, 0, 84, 80
2, 12138, Control_c, 0, 64, 127
2, 12196, Note_on_c, 0, 84, 0
2, 12240, Note_on_c, 0, 84, 88
2, 12316, Note_on_c, 0, 84, 0
2, 12360, Note_on_c, 0, 84, 84
2, 12419, Note_on_c, 0, 84, 0
2, 12480, Note_on_c, 0, 84, 84
2, 12483, Control_c, 0, 64, 0
2, 12518, Control_c, 0, 64, 127
2, 12600, Note_on_c, 0, 72, 75
2, 12652, Note_on_c, 0, 84, 0
2, 12660, Note_on_c, 0, 89, 71
2, 12675, Note_on_c, 0, 72, 0
2, 12719, Note_on_c, 0, 89, 0
2, 12720, Note_on_c, 0, 84, 80
2, 12720, Note_on_c, 0, 72, 75
2, 12732, Control_c, 0, 64, 0
2, 12762, Control_c, 0, 64, 127
2, 12786, Note_on_c, 0, 72, 0
2, 12840, Note_on_c, 0, 72, 71
2, 12851, Note_on_c, 0, 84, 0
2, 12877, Note_on_c, 0, 72, 0
2, 12960, Control_c, 0, 64, 0
2, 12960, Note_on_c, 0, 72, 63
2, 12992, Control_c, 0, 64, 127
2, 13039, Note_on_c, 0, 72, 0
2, 13080, Note_on_c, 0, 84, 88
2, 13140, Note_on_c, 0, 79, 84
2, 13150, Note_on_c, 0, 84, 0
2, 13168, Note_on_c, 0, 79, 0
2, 13200, Note_on_c, 0, 84, 84
2, 13200, Note_on_c, 0, 72, 75
2, 13218, Control_c, 0, 64, 0
2, 13255, Control_c, 0, 64, 127
2, 13298, Note_on_c, 0, 84, 0
2, 13305, Note_on_c, 0, 72, 0
2, 13320, Note_on_c, 0, 84, 84
2, 13333, Control_c, 0, 64, 0
2, 13362, Control_c, 0, 64, 127
2, 13417, Note_on_c, 0, 84, 0
2, 13440, Control_c, 0, 64, 0
2, 13440, Note_on_c, 0, 84, 84
2, 13468, Control_c, 0, 64, 127
2, 13559, Control_c, 0, 64, 0
2, 13560, Note_on_c, 0, 72, 57
2, 13586, Control_c, 0, 64, 127
2, 13614, Note_on_c, 0, 84, 0
2, 13620, Note_on_c, 0, 89, 80
2, 13623, Note_on_c, 0, 72, 0
2, 13677, Note_on_c, 0, 89, 0
2, 13680, Note_on_c, 0, 84, 84
2, 13680, Note_on_c, 0, 72, 67
2, 13686, Control_c, 0, 64, 0
2, 13714, Control_c, 0, 64, 127
2, 13736, Note_on_c, 0, 72, 0
2, 13751, Note_on_c, 0, 84, 0
2, 13800, Note_on_c, 0, 72, 67
2, 13821, Note_on_c, 0, 72, 0
2, 13915, Control_c, 0, 64, 0
2, 13920, Note_on_c, 0, 73, 84
2, 13951, Control_c, 0, 64, 127
2, 13971, Note_on_c, 0, 73, 0
2, 13980, Note_on_c, 0, 74, 67
2, 13996, Control_c, 0, 64, 0
2, 14040, Note_on_c, 0, 70, 84
2, 14044, Note_on_c, 0, 74, 0
2, 14053, Note_on_c, 0, 70, 0
2, 14100, Note_on_c, 0, 67, 93
2, 14118, Note_on_c, 0, 67, 0
2, 14160, Note_on_c, 0, 71, 88
2, 14177, Control_c, 0, 64, 127
2, 14217, Note_on_c, 0, 71, 0
2, 14220, Note_on_c, 0, 72, 80
2, 14225, Control_c, 0, 64, 0
2, 14276, Note_on_c, 0, 72, 0
2, 14280, Note_on_c, 0, 69, 88
2, 14303, Note_on_c, 0, 69, 0
2, 14340, Note_on_c, 0, 65, 75
2, 14354, Note_on_c, 0, 65, 0
2, 14400, Note_on_c, 0, 85, 88
2, 14400, Note_on_c, 0, 73, 84
2, 14438, Control_c, 0, 64, 127
2, 14454, Note_on_c, 0, 73, 0
2, 14457, Note_on_c, 0, 85, 0
2, 14460, Note_on_c, 0, 74, 80
2, 14460, Note_on_c, 0, 86, 88
2, 14463, Control_c, 0, 64, 0
2, 14518, Note_on_c, 0, 74, 0
2, 14520, Note_on_c, 0, 86, 0
2, 14520, Note_on_c, 0, 70, 71
2, 14520, Note_on_c, 0, 82, 88
2, 14535, Note_on_c, 0, 82, 0
2, 14540, Note_on_c, 0, 70, 0
2, 14580, Note_on_c, 0, 79, 84
2, 14580, Note_on_c, 0, 67, 80
2, 14595, Note_on_c, 0, 67, 0
2, 14601, Note_on_c, 0, 79, 0
2, 14640, Note_on_c, 0, 71, 71
2, 14640, Note_on_c, 0, 83, 88
2, 14661, Control_c, 0, 64, 127
2, 14687, Control_c, 0, 64, 0
2, 14692, Note_on_c, 0, 83, 0
2, 14692, Note_on_c, 0, 71, 0
2, 14700, Note_on_c, 0, 84, 75
2, 14700, Note_on_c, 0, 72, 63
2, 14756, Note_on_c, 0, 72, 0
2, 14756, Note_on_c, 0, 84, 0
2, 14760, Note_on_c, 0, 69, 75
2, 14760, Note_on_c, 0, 81, 88
2, 14777, Note_on_c, 0, 81, 0
2, 14781, Note_on_c, 0, 69, 0
2, 14820, Note_on_c, 0, 77, 84
2, 14820, Note_on_c, 0, 65, 75
2, 14837, Note_on_c, 0, 77, 0
2, 14839, Note_on_c, 0, 65, 0
2, 14880, Note_on_c, 0, 69, 59
2, 14880, Note_on_c, 0, 81, 59
2, 14909, Note_on_c, 0, 81, 0
2, 14909, Note_on_c, 0, 69, 0
2, 14910, Note_on_c, 0, 79, 71
2, 14910, Note_on_c, 0, 67, 59
2, 14939, Note_on_c, 0, 67, 0
2, 14939, Note_on_c, 0, 79, 0
2, 14940, Note_on_c, 0, 69, 71
2, 14940, Note_on_c, 0, 81, 67
2, 14969, Note_on_c, 0, 81, 0
2, 14969, Note_on_c, 0, 69, 0
2, 14970, Note_on_c, 0, 67, 63
2, 14970, Note_on_c, 0, 79, 71
2, 14999, Note_on_c, 0, 79, 0
2, 14999, Note_on_c, 0, 67, 0
2, 15000, Note_on_c, 0, 69, 57
2, 15000, Note_on_c, 0, 81, 71
2, 15029, Note_on_c, 0, 81, 0
2, 15029, Note_on_c, 0, 69, 0
2, 15030, Note_on_c, 0, 67, 57
2, 15030, Note_on_c, 0, 79, 71
2, 15059, Note_on_c, 0, 79, 0
2, 15059, Note_on_c, 0, 67, 0
2, 15060, Note_on_c, 0, 81, 55
2, 15060, Note_on_c, 0, 69, 59
2, 15089, Note_on_c, 0, 69, 0
2, 15089, Note_on_c, 0, 81, 0
2, 15090, Note_on_c, 0, 67, 57
2, 15090, Note_on_c, 0, 79, 59
2, 15119, Note_on_c, 0, 79, 0
2, 15119, Note_on_c, 0, 67, 0
2, 15120, Note_on_c, 0, 81, 54
2, 15120, Note_on_c, 0, 69, 59
2, 15149, Note_on_c, 0, 69, 0
2, 15149, Note_on_c, 0, 81, 0
2, 15150, Note_on_c, 0, 67, 52
2, 15150, Note_on_c, 0, 79, 59
2, 15179, Note_on_c, 0, 79, 0
2, 15179, Note_on_c, 0, 67, 0
2, 15180, Note_on_c, 0, 69, 59
2, 15180, Note_on_c, 0, 81, 67
2, 15209, Note_on_c, 0, 81, 0
2, 15209, Note_on_c, 0, 69, 0
2, 15210, Note_on_c, 0, 67, 50
2, 15210, Note_on_c, 0, 79, 71
2, 15239, Note_on_c, 0, 79, 0
2, 15239, Note_on_c, 0, 67, 0
2, 15240, Note_on_c, 0, 69, 71
2, 15240, Note_on_c, 0, 81, 63
2, 15269, Note_on_c, 0, 81, 0
2, 15269, Note_on_c, 0, 69, 0
2, 15270, Note_on_c, 0, 79, 75
2, 15270, Note_on_c, 0, 67, 63
2, 15299, Note_on_c, 0, 67, 0
2, 15299, Note_on_c, 0, 79, 0
2, 15300, Note_on_c, 0, 65, 75
2, 15300, Note_on_c, 0, 77, 67
2, 15329, Note_on_c, 0, 77, 0
2, 15329, Note_on_c, 0, 65, 0
2, 15330, Note_on_c, 0, 79, 75
2, 15330, Note_on_c, 0, 67, 67
2, 15359, Note_on_c, 0, 67, 0
2, 15359, Note_on_c, 0, 79, 0
2, 15360, Note_on_c, 0, 77, 67
2, 15360, Note_on_c, 0, 65, 55
2, 15368, Control_c, 0, 64, 127
2, 15414, Note_on_c, 0, 65, 0
2, 15420, Note_on_c, 0, 72, 67
2, 15424, Note_on_c, 0, 77, 0
2, 15461, Note_on_c, 0, 72, 0
2, 15480, Note_on_c, 0, 79, 84
2, 15492, Control_c, 0, 64, 0
2, 15540, Note_on_c, 0, 79, 0
2, 15540, Note_on_c, 0, 76, 71
2, 15598, Note_on_c, 0, 76, 0
2, 15600, Note_on_c, 0, 81, 84
2, 15641, Control_c, 0, 64, 127
2, 15660, Note_on_c, 0, 77, 75
2, 15662, Note_on_c, 0, 81, 0
2, 15699, Note_on_c, 0, 77, 0
2, 15720, Note_on_c, 0, 79, 84
2, 15720, Note_on_c, 0, 82, 84
2, 15732, Control_c, 0, 64, 0
2, 15770, Control_c, 0, 64, 127
2, 15792, Note_on_c, 0, 82, 0
2, 15793, Note_on_c, 0, 79, 0
2, 15828, Control_c, 0, 64, 0
2, 15840, Note_on_c, 0, 65, 57
2, 15840, Note_on_c, 0, 69, 71
2, 15840, Note_on_c, 0, 77, 63
2, 15840, Note_on_c, 0, 81, 63
2, 15866, Control_c, 0, 64, 127
2, 15868, Note_on_c, 0, 69, 0
2, 15877, Note_on_c, 0, 65, 0
2, 15893, Note_on_c, 0, 77, 0
2, 15894, Note_on_c, 0, 81, 0
2, 15900, Note_on_c, 0, 72, 63
2, 15928, Control_c, 0, 64, 0
2, 15954, Note_on_c, 0, 72, 0
2, 15960, Note_on_c, 0, 81, 84
2, 16020, Note_on_c, 0, 81, 0
2, 16020, Note_on_c, 0, 78, 67
2, 16076, Note_on_c, 0, 78, 0
2, 16080, Note_on_c, 0, 82, 75
2, 16140, Note_on_c, 0, 79, 75
2, 16154, Note_on_c, 0, 82, 0
2, 16178, Note_on_c, 0, 79, 0
2, 16200, Note_on_c, 0, 69, 63
2, 16200, Note_on_c, 0, 72, 71
2, 16200, Note_on_c, 0, 81, 71
2, 16200, Note_on_c, 0, 84, 75
2, 16235, Control_c, 0, 64, 127
2, 16252, Note_on_c, 0, 84, 0
2, 16252, Note_on_c, 0, 72, 0
2, 16253, Note_on_c, 0, 81, 0
2, 16256, Note_on_c, 0, 69, 0
2, 16320, Control_c, 0, 64, 0
2, 16320, Note_on_c, 0, 82, 67
2, 16320, Note_on_c, 0, 79, 84
2, 16320, Note_on_c, 0, 70, 67
2, 16320, Note_on_c, 0, 67, 63
2, 16357, Control_c, 0, 64, 127
2, 16362, Note_on_c, 0, 70, 0
2, 16370, Note_on_c, 0, 67, 0
2, 16372, Note_on_c, 0, 79, 0
2, 16378, Note_on_c, 0, 82, 0
2, 16380, Note_on_c, 0, 74, 84
2, 16402, Control_c, 0, 64, 0
2, 16412, Note_on_c, 0, 74, 0
2, 16440, Note_on_c, 0, 79, 71
2, 16489, Note_on_c, 0, 79, 0
2, 16500, Note_on_c, 0, 76, 50
2, 16559, Note_on_c, 0, 76, 0
2, 16560, Note_on_c, 0, 81, 71
2, 16598, Control_c, 0, 64, 127
2, 16620, Note_on_c, 0, 77, 71
2, 16625, Note_on_c, 0, 81, 0
2, 16649, Note_on_c, 0, 77, 0
2, 16675, Control_c, 0, 64, 0
2, 16680, Note_on_c, 0, 67, 71
2, 16680, Note_on_c, 0, 79, 93
2, 16680, Note_on_c, 0, 82, 84
2, 16680, Note_on_c, 0, 70, 75
2, 16724, Control_c, 0, 64, 127
2, 16749, Note_on_c, 0, 67, 0
2, 16756, Note_on_c, 0, 79, 0
2, 16757, Note_on_c, 0, 70, 0
2, 16758, Note_on_c, 0, 82, 0
2, 16796, Control_c, 0, 64, 0
2, 16800, Note_on_c, 0, 77, 84
2, 16800, Note_on_c, 0, 81, 80
2, 16800, Note_on_c, 0, 65, 54
2, 16800, Note_on_c, 0, 69, 67
2, 16834, Note_on_c, 0, 69, 0
2, 16836, Note_on_c, 0, 81, 0
2, 16837, Note_on_c, 0, 77, 0
2, 16838, Control_c, 0, 64, 127
2, 16843, Note_on_c, 0, 65, 0
2, 16914, Control_c, 0, 64, 0
2, 16920, Note_on_c, 0, 84, 102
2, 16920, Note_on_c, 0, 72, 84
2, 16973, Control_c, 0, 64, 127
2, 17000, Note_on_c, 0, 84, 0
2, 17010, Note_on_c, 0, 77, 67
2, 17015, Note_on_c, 0, 72, 0
2, 17026, Note_on_c, 0, 77, 0
2, 17040, Note_on_c, 0, 81, 88
2, 17040, Note_on_c, 0, 74, 80
2, 17042, Control_c, 0, 64, 0
2, 17069, Note_on_c, 0, 81, 0
2, 17070, Note_on_c, 0, 79, 71
2, 17091, Note_on_c, 0, 79, 0
2, 17095, Control_c, 0, 64, 127
2, 17100, Note_on_c, 0, 81, 84
2, 17125, Note_on_c, 0, 81, 0
2, 17130, Note_on_c, 0, 79, 71
2, 17146, Note_on_c, 0, 74, 0
2, 17153, Note_on_c, 0, 79, 0
2, 17160, Note_on_c, 0, 81, 93
2, 17160, Control_c, 0, 64, 0
2, 17160, Note_on_c, 0, 64, 75
2, 17187, Note_on_c, 0, 81, 0
2, 17190, Note_on_c, 0, 79, 57
2, 17212, Note_on_c, 0, 79, 0
2, 17214, Control_c, 0, 64, 127
2, 17220, Note_on_c, 0, 77, 80
2, 17242, Note_on_c, 0, 77, 0
2, 17250, Note_on_c, 0, 79, 88
2, 17264, Control_c, 0, 64, 0
2, 17265, Note_on_c, 0, 64, 0
2, 17270, Note_on_c, 0, 79, 0
2, 17280, Note_on_c, 0, 65, 67
2, 17280, Note_on_c, 0, 77, 88
2, 17310, Control_c, 0, 64, 127
2, 17386, Note_on_c, 0, 77, 0
2, 17391, Note_on_c, 0, 65, 0
2, 17401, Control_c, 0, 64, 0
2, 17640, Note_on_c, 0, 84, 102
2, 17640, Note_on_c, 0, 72, 102
2, 17664, Control_c, 0, 64, 127
2, 17689, Note_on_c, 0, 72, 0
2, 17705, Note_on_c, 0, 84, 0
2, 17730, Note_on_c, 0, 84, 67
2, 17730, Note_on_c, 0, 72, 67
2, 17744, Control_c, 0, 64, 0
2, 17748, Note_on_c, 0, 72, 0
2, 17750, Note_on_c, 0, 84, 0
2, 17760, Note_on_c, 0, 84, 63
2, 17760, Note_on_c, 0, 72, 63
2, 17805, Control_c, 0, 64, 127
2, 17830, Note_on_c, 0, 72, 0
2, 17832, Note_on_c, 0, 84, 0
2, 17867, Control_c, 0, 64, 0
2, 18120, Note_on_c, 0, 86, 108
2, 18120, Note_on_c, 0, 74, 102
2, 18148, Control_c, 0, 64, 127
2, 18152, Note_on_c, 0, 74, 0
2, 18169, Note_on_c, 0, 86, 0
2, 18210, Note_on_c, 0, 74, 67
2, 18210, Note_on_c, 0, 86, 71
2, 18221, Control_c, 0, 64, 0
2, 18225, Note_on_c, 0, 86, 0
2, 18230, Note_on_c, 0, 74, 0
2, 18240, Note_on_c, 0, 74, 71
2, 18240, Note_on_c, 0, 86, 71
2, 18295, Note_on_c, 0, 74, 0
2, 18296, Control_c, 0, 64, 127
2, 18297, Note_on_c, 0, 86, 0
2, 18348, Control_c, 0, 64, 0
2, 18600, Note_on_c, 0, 84, 93
2, 18600, Note_on_c, 0, 72, 80
2, 18633, Control_c, 0, 64, 127
2, 18636, Note_on_c, 0, 72, 0
2, 18660, Note_on_c, 0, 84, 0
2, 18690, Note_on_c, 0, 84, 80
2, 18690, Note_on_c, 0, 72, 80
2, 18692, Control_c, 0, 64, 0
2, 18708, Note_on_c, 0, 84, 0
2, 18709, Note_on_c, 0, 72, 0
2, 18720, Note_on_c, 0, 84, 97
2, 18720, Note_on_c, 0, 72, 84
2, 18752, Note_on_c, 0, 72, 0
2, 18759, Control_c, 0, 64, 127
2, 18772, Note_on_c, 0, 84, 0
2, 18828, Control_c, 0, 64, 0
2, 18840, Note_on_c, 0, 69, 84
2, 18840, Note_on_c, 0, 81, 84
2, 18884, Control_c, 0, 64, 127
2, 18887, Note_on_c, 0, 69, 0
2, 18900, Note_on_c, 0, 81, 0
2, 18900, Note_on_c, 0, 65, 84
2, 18900, Note_on_c, 0, 77, 84
2, 18923, Note_on_c, 0, 65, 0
2, 18928, Note_on_c, 0, 77, 0
2, 18950, Control_c, 0, 64, 0
2, 18960, Note_on_c, 0, 81, 75
2, 18989, Note_on_c, 0, 81, 0
2, 18990, Note_on_c, 0, 79, 84
2, 19019, Note_on_c, 0, 79, 0
2, 19020, Note_on_c, 0, 81, 75
2, 19049, Note_on_c, 0, 81, 0
2, 19050, Note_on_c, 0, 79, 75
2, 19079, Note_on_c, 0, 79, 0
2, 19080, Note_on_c, 0, 81, 63
2, 19109, Note_on_c, 0, 81, 0
2, 19110, Note_on_c, 0, 79, 71
2, 19139, Note_on_c, 0, 79, 0
2, 19140, Note_on_c, 0, 77, 67
2, 19169, Note_on_c, 0, 77, 0
2, 19170, Note_on_c, 0, 79, 71
2, 19199, Note_on_c, 0, 79, 0
2, 19200, Note_on_c, 0, 77, 71
2, 19200, Note_on_c, 0, 65, 57
2, 19253, Control_c, 0, 64, 127
2, 19440, Note_on_c, 0, 65, 0
2, 19440, Note_on_c, 0, 72, 67
2, 19444, Control_c, 0, 64, 0
2, 19450, Note_on_c, 0, 77, 0
2, 19669, Note_on_c, 0, 72, 0
2, 19680, Note_on_c, 0, 69, 59
2, 19805, Control_c, 0, 64, 127
2, 19860, Note_on_c, 0, 65, 71
2, 19890, Note_on_c, 0, 69, 0
2, 19907, Note_on_c, 0, 65, 0
2, 19920, Note_on_c, 0, 63, 63
2, 19920, Note_on_c, 0, 72, 71
2, 19936, Control_c, 0, 64, 0
2, 19979, Note_on_c, 0, 63, 0
2, 19980, Note_on_c, 0, 62, 63
2, 20033, Note_on_c, 0, 62, 0
2, 20040, Note_on_c, 0, 60, 71
2, 20051, Note_on_c, 0, 72, 0
2, 20057, Control_c, 0, 64, 127
2, 20089, Note_on_c, 0, 60, 0
2, 20100, Note_on_c, 0, 58, 52
2, 20148, Control_c, 0, 64, 0
2, 20151, Note_on_c, 0, 58, 0
2, 20160, Note_on_c, 0, 77, 71
2, 20160, Note_on_c, 0, 57, 54
2, 20240, Control_c, 0, 64, 127
2, 20298, Note_on_c, 0, 57, 0
2, 20315, Control_c, 0, 64, 0
2, 20400, Note_on_c, 0, 72, 71
2, 20414, Note_on_c, 0, 77, 0
2, 20461, Control_c, 0, 64, 127
2, 20622, Control_c, 0, 64, 0
2, 20626, Note_on_c, 0, 72, 0
2, 20640, Note_on_c, 0, 69, 59
2, 20761, Control_c, 0, 64, 127
2, 20820, Note_on_c, 0, 65, 71
2, 20868, Note_on_c, 0, 65, 0
2, 20874, Note_on_c, 0, 69, 0
2, 20880, Note_on_c, 0, 63, 57
2, 20880, Note_on_c, 0, 72, 59
2, 20892, Control_c, 0, 64, 0
2, 20934, Note_on_c, 0, 63, 0
2, 20940, Note_on_c, 0, 62, 51
2, 20994, Control_c, 0, 64, 127
2, 20995, Note_on_c, 0, 62, 0
2, 21000, Note_on_c, 0, 60, 57
2, 21008, Note_on_c, 0, 72, 0
2, 21043, Note_on_c, 0, 60, 0
2, 21060, Note_on_c, 0, 58, 57
2, 21114, Note_on_c, 0, 58, 0
2, 21114, Control_c, 0, 64, 0
2, 21120, Note_on_c, 0, 75, 75
2, 21120, Note_on_c, 0, 75, 88
2, 21120, Note_on_c, 0, 57, 88
2, 21131, Control_c, 0, 64, 127
2, 21151, Note_on_c, 0, 75, 0
2, 21156, Note_on_c, 0, 57, 0
2, 21218, Note_on_c, 0, 75, 0
2, 21241, Control_c, 0, 64, 0
2, 21300, Note_on_c, 0, 65, 93
2, 21300, Note_on_c, 0, 53, 84
2, 21355, Note_on_c, 0, 65, 0
2, 21359, Note_on_c, 0, 53, 0
2, 21360, Note_on_c, 0, 57, 84
2, 21360, Note_on_c, 0, 69, 93
2, 21420, Note_on_c, 0, 70, 88
2, 21420, Note_on_c, 0, 58, 88
2, 21423, Note_on_c, 0, 69, 0
2, 21423, Note_on_c, 0, 57, 0
2, 21480, Note_on_c, 0, 72, 93
2, 21480, Note_on_c, 0, 60, 88
2, 21481, Note_on_c, 0, 70, 0
2, 21482, Note_on_c, 0, 58, 0
2, 21537, Note_on_c, 0, 72, 0
2, 21540, Note_on_c, 0, 62, 80
2, 21540, Note_on_c, 0, 74, 88
2, 21543, Note_on_c, 0, 60, 0
2, 21600, Note_on_c, 0, 63, 80
2, 21600, Note_on_c, 0, 75, 88
2, 21607, Note_on_c, 0, 74, 0
2, 21609, Note_on_c, 0, 62, 0
2, 21660, Note_on_c, 0, 63, 0
2, 21660, Note_on_c, 0, 62, 84
2, 21660, Note_on_c, 0, 74, 88
2, 21663, Note_on_c, 0, 75, 0
2, 21720, Note_on_c, 0, 72, 80
2, 21720, Note_on_c, 0, 60, 80
2, 21726, Note_on_c, 0, 74, 0
2, 21726, Note_on_c, 0, 62, 0
2, 21780, Note_on_c, 0, 72, 0
2, 21780, Note_on_c, 0, 74, 88
2, 21780, Note_on_c, 0, 62, 84
2, 21781, Note_on_c, 0, 60, 0
2, 21840, Note_on_c, 0, 75, 84
2, 21840, Note_on_c, 0, 63, 80
2, 21844, Note_on_c, 0, 62, 0
2, 21844, Note_on_c, 0, 74, 0
2, 21898, Note_on_c, 0, 75, 0
2, 21898, Note_on_c, 0, 63, 0
2, 21900, Note_on_c, 0, 77, 88
2, 21900, Note_on_c, 0, 65, 84
2, 21960, Note_on_c, 0, 79, 97
2, 21960, Note_on_c, 0, 67, 63
2, 21961, Note_on_c, 0, 65, 0
2, 21963, Note_on_c, 0, 77, 0
2, 22019, Note_on_c, 0, 67, 0
2, 22020, Note_on_c, 0, 81, 88
2, 22020, Note_on_c, 0, 69, 80
2, 22021, Note_on_c, 0, 79, 0
2, 22080, Note_on_c, 0, 82, 88
2, 22080, Note_on_c, 0, 70, 88
2, 22084, Note_on_c, 0, 69, 0
2, 22085, Note_on_c, 0, 81, 0
2, 22135, Note_on_c, 0, 82, 0
2, 22138, Note_on_c, 0, 70, 0
2, 22140, Note_on_c, 0, 74, 84
2, 22140, Note_on_c, 0, 86, 93
2, 22194, Note_on_c, 0, 86, 0
2, 22200, Note_on_c, 0, 74, 0
2, 22200, Note_on_c, 0, 84, 88
2, 22200, Note_on_c, 0, 72, 84
2, 22258, Note_on_c, 0, 72, 0
2, 22260, Note_on_c, 0, 82, 84
2, 22260, Note_on_c, 0, 70, 71
2, 22261, Note_on_c, 0, 84, 0
2, 22320, Note_on_c, 0, 81, 93
2, 22320, Note_on_c, 0, 69, 88
2, 22323, Note_on_c, 0, 70, 0
2, 22327, Note_on_c, 0, 82, 0
2, 22378, Note_on_c, 0, 69, 0
2, 22380, Note_on_c, 0, 81, 0
2, 22380, Note_on_c, 0, 67, 80
2, 22380, Note_on_c, 0, 79, 80
2, 22438, Note_on_c, 0, 67, 0
2, 22440, Note_on_c, 0, 79, 0
2, 22440, Note_on_c, 0, 66, 67
2, 22440, Note_on_c, 0, 78, 80
2, 22492, Note_on_c, 0, 78, 0
2, 22500, Note_on_c, 0, 66, 0
2, 22500, Note_on_c, 0, 79, 88
2, 22500, Note_on_c, 0, 67, 75
2, 22558, Note_on_c, 0, 67, 0
2, 22559, Note_on_c, 0, 79, 0
2, 22560, Note_on_c, 0, 62, 84
2, 22560, Note_on_c, 0, 74, 88
2, 22680, Note_on_c, 0, 86, 102
2, 22684, Note_on_c, 0, 74, 0
2, 22687, Note_on_c, 0, 62, 0
2, 22800, Note_on_c, 0, 70, 84
2, 22807, Note_on_c, 0, 86, 0
2, 22920, Note_on_c, 0, 74, 97
2, 22935, Note_on_c, 0, 74, 0
2, 23040, Note_on_c, 0, 75, 102
2, 23056, Note_on_c, 0, 75, 0
2, 23160, Note_on_c, 0, 86, 88
2, 23275, Note_on_c, 0, 86, 0
2, 23280, Note_on_c, 0, 84, 88
2, 23280, Note_on_c, 0, 69, 75
2, 23281, Note_on_c, 0, 70, 0
2, 23398, Note_on_c, 0, 84, 0
2, 23400, Note_on_c, 0, 75, 97
2, 23416, Note_on_c, 0, 75, 0
2, 23520, Note_on_c, 0, 74, 88
2, 23536, Note_on_c, 0, 74, 0
2, 23640, Note_on_c, 0, 84, 97
2, 23658, Note_on_c, 0, 84, 0
2, 23756, Note_on_c, 0, 69, 0
2, 23760, Note_on_c, 0, 67, 84
2, 23880, Note_on_c, 0, 74, 93
2, 23895, Note_on_c, 0, 74, 0
2, 24000, Note_on_c, 0, 72, 97
2, 24017, Note_on_c, 0, 72, 0
2, 24120, Note_on_c, 0, 82, 102
2, 24233, Note_on_c, 0, 82, 0
2, 24240, Note_on_c, 0, 80, 88
2, 24240, Note_on_c, 0, 65, 84
2, 24243, Note_on_c, 0, 67, 0
2, 24359, Note_on_c, 0, 80, 0
2, 24360, Note_on_c, 0, 72, 88
2, 24376, Note_on_c, 0, 72, 0
2, 24480, Note_on_c, 0, 70, 93
2, 24495, Note_on_c, 0, 70, 0
2, 24600, Note_on_c, 0, 80, 93
2, 24612, Note_on_c, 0, 80, 0
2, 24720, Note_on_c, 0, 63, 67
2, 24722, Note_on_c, 0, 65, 0
2, 24840, Note_on_c, 0, 70, 102
2, 24858, Note_on_c, 0, 70, 0
2, 24960, Note_on_c, 0, 68, 102
2, 24975, Note_on_c, 0, 68, 0
2, 25080, Note_on_c, 0, 79, 97
2, 25194, Note_on_c, 0, 79, 0
2, 25200, Note_on_c, 0, 63, 0
2, 25200, Note_on_c, 0, 62, 80
2, 25200, Note_on_c, 0, 77, 88
2, 25310, Note_on_c, 0, 77, 0
2, 25320, Note_on_c, 0, 65, 84
2, 25320, Note_on_c, 0, 68, 93
2, 25324, Note_on_c, 0, 62, 0
2, 25336, Note_on_c, 0, 68, 0
2, 25440, Note_on_c, 0, 63, 71
2, 25440, Note_on_c, 0, 67, 102
2, 25444, Note_on_c, 0, 65, 0
2, 25460, Note_on_c, 0, 67, 0
2, 25500, Note_on_c, 0, 68, 97
2, 25522, Note_on_c, 0, 68, 0
2, 25530, Note_on_c, 0, 70, 93
2, 25545, Note_on_c, 0, 70, 0
2, 25553, Note_on_c, 0, 63, 0
2, 25560, Note_on_c, 0, 72, 93
2, 25580, Note_on_c, 0, 72, 0
2, 25590, Note_on_c, 0, 74, 84
2, 25612, Note_on_c, 0, 74, 0
2, 25620, Note_on_c, 0, 75, 84
2, 25645, Note_on_c, 0, 75, 0
2, 25650, Note_on_c, 0, 77, 75
2, 25670, Note_on_c, 0, 77, 0
2, 25680, Note_on_c, 0, 79, 97
2, 25680, Note_on_c, 0, 67, 97
2, 25714, Control_c, 0, 64, 127
2, 25729, Note_on_c, 0, 79, 0
2, 25736, Note_on_c, 0, 67, 0
2, 25783, Control_c, 0, 64, 0
2, 25800, Note_on_c, 0, 70, 75
2, 25800, Note_on_c, 0, 82, 93
2, 25824, Note_on_c, 0, 82, 0
2, 25830, Note_on_c, 0, 68, 75
2, 25830, Note_on_c, 0, 80, 75
2, 25831, Note_on_c, 0, 70, 0
2, 25855, Note_on_c, 0, 80, 0
2, 25860, Note_on_c, 0, 79, 88
2, 25860, Note_on_c, 0, 67, 71
2, 25867, Note_on_c, 0, 68, 0
2, 25888, Note_on_c, 0, 79, 0
2, 25890, Note_on_c, 0, 78, 84
2, 25890, Note_on_c, 0, 66, 71
2, 25892, Note_on_c, 0, 67, 0
2, 25909, Note_on_c, 0, 78, 0
2, 25914, Note_on_c, 0, 66, 0
2, 25920, Note_on_c, 0, 79, 102
2, 25920, Note_on_c, 0, 67, 102
2, 25967, Control_c, 0, 64, 127
2, 25981, Note_on_c, 0, 79, 0
2, 25982, Note_on_c, 0, 67, 0
2, 26022, Control_c, 0, 64, 0
2, 26040, Note_on_c, 0, 79, 97
2, 26040, Note_on_c, 0, 67, 97
2, 26069, Note_on_c, 0, 79, 0
2, 26070, Note_on_c, 0, 67, 0
2, 26070, Note_on_c, 0, 77, 75
2, 26070, Note_on_c, 0, 65, 88
2, 26097, Note_on_c, 0, 77, 0
2, 26100, Note_on_c, 0, 65, 0
2, 26100, Note_on_c, 0, 63, 63
2, 26100, Note_on_c, 0, 75, 80
2, 26125, Note_on_c, 0, 75, 0
2, 26130, Note_on_c, 0, 63, 0
2, 26130, Note_on_c, 0, 74, 93
2, 26130, Note_on_c, 0, 62, 88
2, 26148, Note_on_c, 0, 74, 0
2, 26155, Note_on_c, 0, 62, 0
2, 26160, Note_on_c, 0, 75, 108
2, 26160, Note_on_c, 0, 63, 102
2, 26183, Control_c, 0, 64, 127
2, 26195, Note_on_c, 0, 75, 0
2, 26200, Note_on_c, 0, 63, 0
2, 26264, Control_c, 0, 64, 0
2, 26280, Note_on_c, 0, 63, 93
2, 26280, Note_on_c, 0, 75, 84
2, 26307, Note_on_c, 0, 75, 0
2, 26310, Note_on_c, 0, 74, 88
2, 26310, Note_on_c, 0, 62, 88
2, 26311, Note_on_c, 0, 63, 0
2, 26335, Note_on_c, 0, 74, 0
2, 26340, Note_on_c, 0, 62, 0
2, 26340, Note_on_c, 0, 60, 80
2, 26340, Note_on_c, 0, 72, 84
2, 26363, Note_on_c, 0, 72, 0
2, 26370, Note_on_c, 0, 70, 88
2, 26370, Note_on_c, 0, 58, 71
2, 26373, Note_on_c, 0, 60, 0
2, 26390, Note_on_c, 0, 58, 0
2, 26391, Note_on_c, 0, 70, 0
2, 26400, Note_on_c, 0, 69, 102
2, 26400, Note_on_c, 0, 57, 88
2, 26447, Control_c, 0, 64, 127
2, 26514, Note_on_c, 0, 57, 0
2, 26515, Note_on_c, 0, 69, 0
2, 26526, Control_c, 0, 64, 0
2, 27360, Note_on_c, 0, 82, 97
2, 27360, Note_on_c, 0, 70, 97
2, 27389, Control_c, 0, 64, 127
2, 27600, Note_on_c, 0, 65, 88
2, 27600, Note_on_c, 0, 77, 93
2, 27605, Note_on_c, 0, 70, 0
2, 27607, Note_on_c, 0, 82, 0
2, 27616, Control_c, 0, 64, 0
2, 27663, Control_c, 0, 64, 127
2, 27823, Note_on_c, 0, 77, 0
2, 27824, Note_on_c, 0, 65, 0
2, 27837, Control_c, 0, 64, 0
2, 27840, Note_on_c, 0, 74, 97
2, 27840, Note_on_c, 0, 62, 88
2, 27874, Control_c, 0, 64, 127
2, 27981, Note_on_c, 0, 74, 0
2, 27984, Note_on_c, 0, 62, 0
2, 27992, Control_c, 0, 64, 0
2, 28020, Note_on_c, 0, 58, 84
2, 28020, Note_on_c, 0, 70, 102
2, 28040, Control_c, 0, 64, 127
2, 28073, Control_c, 0, 64, 0
2, 28074, Note_on_c, 0, 70, 0
2, 28080, Note_on_c, 0, 72, 84
2, 28080, Note_on_c, 0, 60, 84
2, 28082, Note_on_c, 0, 58, 0
2, 28135, Control_c, 0, 64, 127
2, 28138, Note_on_c, 0, 60, 0
2, 28138, Note_on_c, 0, 72, 0
2, 28140, Note_on_c, 0, 74, 88
2, 28140, Note_on_c, 0, 62, 84
2, 28170, Control_c, 0, 64, 0
2, 28200, Note_on_c, 0, 63, 80
2, 28200, Note_on_c, 0, 75, 88
2, 28202, Note_on_c, 0, 74, 0
2, 28204, Note_on_c, 0, 62, 0
2, 28211, Control_c, 0, 64, 127
2, 28251, Control_c, 0, 64, 0
2, 28257, Note_on_c, 0, 75, 0
2, 28259, Note_on_c, 0, 63, 0
2, 28260, Note_on_c, 0, 77, 93
2, 28260, Note_on_c, 0, 65, 88
2, 28320, Note_on_c, 0, 79, 88
2, 28320, Note_on_c, 0, 67, 93
2, 28324, Control_c, 0, 64, 127
2, 28325, Note_on_c, 0, 65, 0
2, 28325, Note_on_c, 0, 77, 0
2, 28326, Control_c, 0, 64, 0
2, 28380, Note_on_c, 0, 77, 84
2, 28380, Note_on_c, 0, 65, 80
2, 28381, Note_on_c, 0, 79, 0
2, 28384, Note_on_c, 0, 67, 0
2, 28440, Note_on_c, 0, 75, 88
2, 28440, Note_on_c, 0, 63, 71
2, 28442, Note_on_c, 0, 65, 0
2, 28445, Note_on_c, 0, 77, 0
2, 28449, Control_c, 0, 64, 127
2, 28454, Control_c, 0, 64, 0
2, 28499, Note_on_c, 0, 63, 0
2, 28500, Note_on_c, 0, 75, 0
2, 28500, Note_on_c, 0, 62, 84
2, 28500, Note_on_c, 0, 74, 93
2, 28559, Note_on_c, 0, 62, 0
2, 28560, Note_on_c, 0, 75, 84
2, 28560, Note_on_c, 0, 63, 67
2, 28561, Note_on_c, 0, 74, 0
2, 28620, Note_on_c, 0, 75, 0
2, 28620, Note_on_c, 0, 65, 93
2, 28620, Note_on_c, 0, 77, 88
2, 28624, Note_on_c, 0, 63, 0
2, 28679, Note_on_c, 0, 77, 0
2, 28680, Note_on_c, 0, 79, 97
2, 28680, Note_on_c, 0, 67, 88
2, 28682, Note_on_c, 0, 65, 0
2, 28684, Control_c, 0, 64, 127
2, 28728, Control_c, 0, 64, 0
2, 28739, Note_on_c, 0, 79, 0
2, 28740, Note_on_c, 0, 69, 84
2, 28740, Note_on_c, 0, 81, 88
2, 28742, Note_on_c, 0, 67, 0
2, 28796, Note_on_c, 0, 81, 0
2, 28796, Note_on_c, 0, 69, 0
2, 28800, Note_on_c, 0, 82, 88
2, 28800, Note_on_c, 0, 70, 84
2, 28808, Control_c, 0, 64, 127
2, 28908, Note_on_c, 0, 82, 0
2, 28913, Note_on_c, 0, 70, 0
2, 28924, Control_c, 0, 64, 0
2, 29040, Note_on_c, 0, 63, 63
2, 29050, Control_c, 0, 64, 127
2, 29098, Note_on_c, 0, 63, 0
2, 29100, Note_on_c, 0, 67, 55
2, 29146, Control_c, 0, 64, 0
2, 29160, Note_on_c, 0, 65, 84
2, 29161, Note_on_c, 0, 67, 0
2, 29178, Note_on_c, 0, 65, 0
2, 29220, Note_on_c, 0, 63, 54
2, 29234, Note_on_c, 0, 63, 0
2, 29280, Note_on_c, 0, 62, 59
2, 29296, Control_c, 0, 64, 127
2, 29339, Note_on_c, 0, 62, 0
2, 29340, Note_on_c, 0, 65, 71
2, 29380, Control_c, 0, 64, 0
2, 29400, Note_on_c, 0, 63, 57
2, 29407, Note_on_c, 0, 65, 0
2, 29415, Note_on_c, 0, 63, 0
2, 29460, Note_on_c, 0, 62, 63
2, 29471, Note_on_c, 0, 62, 0
2, 29520, Note_on_c, 0, 60, 71
2, 29534, Control_c, 0, 64, 127
2, 29579, Control_c, 0, 64, 0
2, 29580, Note_on_c, 0, 63, 55
2, 29585, Note_on_c, 0, 60, 0
2, 29638, Note_on_c, 0, 63, 0
2, 29640, Note_on_c, 0, 62, 80
2, 29655, Note_on_c, 0, 62, 0
2, 29700, Note_on_c, 0, 60, 75
2, 29714, Note_on_c, 0, 60, 0
2, 29760, Note_on_c, 0, 77, 102
2, 29760, Note_on_c, 0, 58, 80
2, 29820, Control_c, 0, 64, 127
2, 29839, Control_c, 0, 64, 0
2, 29850, Note_on_c, 0, 74, 75
2, 29851, Note_on_c, 0, 77, 0
2, 29868, Note_on_c, 0, 74, 0
2, 29880, Note_on_c, 0, 77, 84
2, 29880, Control_c, 0, 64, 127
2, 29912, Note_on_c, 0, 77, 0
2, 29925, Note_on_c, 0, 58, 0
2, 29981, Control_c, 0, 64, 0
2, 30000, Note_on_c, 0, 63, 52
2, 30060, Note_on_c, 0, 67, 63
2, 30066, Note_on_c, 0, 63, 0
2, 30120, Note_on_c, 0, 67, 0
2, 30120, Note_on_c, 0, 65, 75
2, 30136, Note_on_c, 0, 65, 0
2, 30180, Note_on_c, 0, 63, 55
2, 30192, Note_on_c, 0, 63, 0
2, 30240, Note_on_c, 0, 62, 57
2, 30300, Note_on_c, 0, 65, 67
2, 30302, Note_on_c, 0, 62, 0
2, 30360, Note_on_c, 0, 63, 57
2, 30362, Note_on_c, 0, 65, 0
2, 30375, Note_on_c, 0, 63, 0
2, 30420, Note_on_c, 0, 62, 59
2, 30434, Note_on_c, 0, 62, 0
2, 30480, Note_on_c, 0, 60, 67
2, 30540, Note_on_c, 0, 63, 59
2, 30543, Note_on_c, 0, 60, 0
2, 30596, Note_on_c, 0, 63, 0
2, 30600, Note_on_c, 0, 62, 80
2, 30613, Note_on_c, 0, 62, 0
2, 30660, Note_on_c, 0, 60, 80
2, 30672, Note_on_c, 0, 60, 0
2, 30720, Note_on_c, 0, 77, 88
2, 30720, Note_on_c, 0, 58, 84
2, 30767, Control_c, 0, 64, 127
2, 30810, Note_on_c, 0, 74, 88
2, 30811, Note_on_c, 0, 77, 0
2, 30822, Note_on_c, 0, 74, 0
2, 30828, Control_c, 0, 64, 0
2, 30840, Note_on_c, 0, 77, 102
2, 30859, Control_c, 0, 64, 127
2, 30887, Note_on_c, 0, 58, 0
2, 30891, Note_on_c, 0, 77, 0
2, 30947, Control_c, 0, 64, 0
2, 30960, Note_on_c, 0, 75, 108
2, 30960, Note_on_c, 0, 63, 71
2, 30983, Control_c, 0, 64, 127
2, 31018, Note_on_c, 0, 63, 0
2, 31020, Note_on_c, 0, 79, 88
2, 31020, Note_on_c, 0, 67, 88
2, 31022, Note_on_c, 0, 75, 0
2, 31025, Control_c, 0, 64, 0
2, 31078, Note_on_c, 0, 79, 0
2, 31080, Note_on_c, 0, 77, 88
2, 31080, Note_on_c, 0, 65, 88
2, 31084, Note_on_c, 0, 67, 0
2, 31096, Note_on_c, 0, 65, 0
2, 31096, Note_on_c, 0, 77, 0
2, 31140, Note_on_c, 0, 75, 97
2, 31140, Note_on_c, 0, 63, 84
2, 31156, Note_on_c, 0, 75, 0
2, 31157, Note_on_c, 0, 63, 0
2, 31200, Note_on_c, 0, 62, 75
2, 31200, Note_on_c, 0, 74, 93
2, 31216, Control_c, 0, 64, 127
2, 31257, Control_c, 0, 64, 0
2, 31259, Note_on_c, 0, 74, 0
2, 31260, Note_on_c, 0, 77, 88
2, 31260, Note_on_c, 0, 65, 84
2, 31265, Note_on_c, 0, 62, 0
2, 31320, Note_on_c, 0, 65, 0
2, 31320, Note_on_c, 0, 63, 84
2, 31320, Note_on_c, 0, 75, 80
2, 31327, Note_on_c, 0, 77, 0
2, 31339, Note_on_c, 0, 75, 0
2, 31342, Note_on_c, 0, 63, 0
2, 31380, Note_on_c, 0, 74, 88
2, 31380, Note_on_c, 0, 62, 80
2, 31393, Note_on_c, 0, 74, 0
2, 31394, Note_on_c, 0, 62, 0
2, 31440, Note_on_c, 0, 72, 102
2, 31440, Note_on_c, 0, 60, 67
2, 31458, Control_c, 0, 64, 127
2, 31496, Control_c, 0, 64, 0
2, 31500, Note_on_c, 0, 60, 0
2, 31500, Note_on_c, 0, 75, 84
2, 31500, Note_on_c, 0, 63, 63
2, 31501, Note_on_c, 0, 72, 0
2, 31558, Note_on_c, 0, 63, 0
2, 31560, Note_on_c, 0, 74, 88
2, 31560, Note_on_c, 0, 62, 84
2, 31561, Note_on_c, 0, 75, 0
2, 31580, Note_on_c, 0, 74, 0
2, 31588, Note_on_c, 0, 62, 0
2, 31620, Note_on_c, 0, 60, 80
2, 31620, Note_on_c, 0, 72, 84
2, 31640, Note_on_c, 0, 72, 0
2, 31643, Note_on_c, 0, 60, 0
2, 31680, Note_on_c, 0, 58, 80
2, 31680, Note_on_c, 0, 77, 84
2, 31696, Control_c, 0, 64, 127
2, 31703, Note_on_c, 0, 77, 0
2, 31710, Note_on_c, 0, 70, 57
2, 31728, Control_c, 0, 64, 0
2, 31730, Note_on_c, 0, 70, 0
2, 31740, Note_on_c, 0, 72, 63
2, 31767, Note_on_c, 0, 72, 0
2, 31770, Note_on_c, 0, 74, 88
2, 31770, Control_c, 0, 64, 127
2, 31792, Control_c, 0, 64, 0
2, 31796, Note_on_c, 0, 74, 0
2, 31800, Note_on_c, 0, 75, 71
2, 31815, Note_on_c, 0, 58, 0
2, 31818, Note_on_c, 0, 75, 0
2, 31830, Note_on_c, 0, 77, 97
2, 31848, Note_on_c, 0, 77, 0
2, 31860, Note_on_c, 0, 79, 75
2, 31881, Note_on_c, 0, 79, 0
2, 31890, Note_on_c, 0, 81, 84
2, 31909, Note_on_c, 0, 81, 0
2, 31920, Note_on_c, 0, 70, 75
2, 31920, Note_on_c, 0, 82, 93
2, 31920, Note_on_c, 0, 62, 93
2, 31920, Note_on_c, 0, 65, 80
2, 31940, Control_c, 0, 64, 127
2, 32019, Note_on_c, 0, 82, 0
2, 32035, Control_c, 0, 64, 0
2, 32037, Note_on_c, 0, 65, 0
2, 32040, Note_on_c, 0, 82, 93
2, 32043, Note_on_c, 0, 62, 0
2, 32044, Note_on_c, 0, 70, 0
2, 32070, Note_on_c, 0, 81, 84
2, 32073, Note_on_c, 0, 82, 0
2, 32097, Note_on_c, 0, 81, 0
2, 32100, Note_on_c, 0, 79, 84
2, 32130, Note_on_c, 0, 78, 71
2, 32134, Note_on_c, 0, 79, 0
2, 32147, Note_on_c, 0, 78, 0
2, 32160, Note_on_c, 0, 63, 84
2, 32160, Note_on_c, 0, 79, 102
2, 32160, Note_on_c, 0, 70, 84
2, 32160, Note_on_c, 0, 67, 84
2, 32183, Control_c, 0, 64, 127
2, 32199, Note_on_c, 0, 79, 0
2, 32256, Note_on_c, 0, 67, 0
2, 32257, Note_on_c, 0, 70, 0
2, 32261, Note_on_c, 0, 63, 0
2, 32279, Control_c, 0, 64, 0
2, 32280, Note_on_c, 0, 79, 102
2, 32308, Note_on_c, 0, 79, 0
2, 32310, Note_on_c, 0, 77, 75
2, 32340, Note_on_c, 0, 75, 67
2, 32347, Note_on_c, 0, 77, 0
2, 32367, Note_on_c, 0, 75, 0
2, 32370, Note_on_c, 0, 74, 84
2, 32390, Note_on_c, 0, 74, 0
2, 32400, Note_on_c, 0, 75, 102
2, 32400, Note_on_c, 0, 63, 75
2, 32400, Note_on_c, 0, 67, 84
2, 32420, Control_c, 0, 64, 127
2, 32450, Note_on_c, 0, 75, 0
2, 32457, Note_on_c, 0, 67, 0
2, 32461, Note_on_c, 0, 63, 0
2, 32514, Control_c, 0, 64, 0
2, 32520, Note_on_c, 0, 75, 97
2, 32548, Note_on_c, 0, 75, 0
2, 32550, Note_on_c, 0, 74, 80
2, 32578, Note_on_c, 0, 74, 0
2, 32580, Note_on_c, 0, 72, 71
2, 32610, Note_on_c, 0, 70, 75
2, 32611, Note_on_c, 0, 72, 0
2, 32629, Note_on_c, 0, 70, 0
2, 32640, Note_on_c, 0, 69, 102
2, 32640, Note_on_c, 0, 65, 84
2, 32702, Control_c, 0, 64, 127
2, 32734, Control_c, 0, 64, 0
2, 32761, Note_on_c, 0, 69, 0
2, 32763, Note_on_c, 0, 65, 0
2, 32880, Note_on_c, 0, 70, 75
2, 32880, Note_on_c, 0, 82, 71
2, 32909, Note_on_c, 0, 82, 0
2, 32909, Note_on_c, 0, 70, 0
2, 32910, Note_on_c, 0, 81, 84
2, 32910, Note_on_c, 0, 69, 57
2, 32939, Note_on_c, 0, 69, 0
2, 32939, Note_on_c, 0, 81, 0
2, 32940, Note_on_c, 0, 70, 84
2, 32940, Note_on_c, 0, 82, 88
2, 32969, Note_on_c, 0, 82, 0
2, 32969, Note_on_c, 0, 70, 0
2, 32970, Note_on_c, 0, 69, 59
2, 32970, Note_on_c, 0, 81, 88
2, 32999, Note_on_c, 0, 81, 0
2, 32999, Note_on_c, 0, 69, 0
2, 33000, Note_on_c, 0, 70, 75
2, 33000, Note_on_c, 0, 82, 71
2, 33029, Note_on_c, 0, 82, 0
2, 33029, Note_on_c, 0, 70, 0
2, 33030, Note_on_c, 0, 81, 84
2, 33030, Note_on_c, 0, 69, 71
2, 33059, Note_on_c, 0, 69, 0
2, 33059, Note_on_c, 0, 81, 0
2, 33060, Note_on_c, 0, 79, 84
2, 33060, Note_on_c, 0, 67, 75
2, 33089, Note_on_c, 0, 67, 0
2, 33089, Note_on_c, 0, 79, 0
2, 33090, Note_on_c, 0, 81, 80
2, 33090, Note_on_c, 0, 69, 84
2, 33119, Note_on_c, 0, 69, 0
2, 33119, Note_on_c, 0, 81, 0
2, 33120, Note_on_c, 0, 70, 84
2, 33120, Note_on_c, 0, 82, 114
2, 33137, Control_c, 0, 64, 127
2, 33238, Note_on_c, 0, 82, 0
2, 33240, Note_on_c, 0, 70, 0
2, 33240, Note_on_c, 0, 77, 97
2, 33240, Note_on_c, 0, 65, 88
2, 33242, Control_c, 0, 64, 0
2, 33275, Control_c, 0, 64, 127
2, 33336, Note_on_c, 0, 77, 0
2, 33344, Note_on_c, 0, 65, 0
2, 33360, Note_on_c, 0, 86, 102
2, 33360, Note_on_c, 0, 74, 88
2, 33363, Control_c, 0, 64, 0
2, 33395, Control_c, 0, 64, 127
2, 33472, Note_on_c, 0, 74, 0
2, 33476, Note_on_c, 0, 86, 0
2, 33476, Control_c, 0, 64, 0
2, 33480, Note_on_c, 0, 70, 80
2, 33480, Note_on_c, 0, 82, 93
2, 33509, Control_c, 0, 64, 127
2, 33523, Note_on_c, 0, 82, 0
2, 33529, Note_on_c, 0, 70, 0
2, 33590, Control_c, 0, 64, 0
2, 33600, Note_on_c, 0, 89, 102
2, 33600, Note_on_c, 0, 77, 97
2, 33617, Control_c, 0, 64, 127
2, 33648, Note_on_c, 0, 89, 0
2, 33649, Note_on_c, 0, 77, 0
2, 33838, Control_c, 0, 64, 0
2, 33840, Note_on_c, 0, 82, 75
2, 33840, Note_on_c, 0, 70, 75
2, 33869, Note_on_c, 0, 70, 0
2, 33869, Note_on_c, 0, 82, 0
2, 33870, Note_on_c, 0, 81, 75
2, 33870, Note_on_c, 0, 69, 54
2, 33899, Note_on_c, 0, 69, 0
2, 33899, Note_on_c, 0, 81, 0
2, 33900, Note_on_c, 0, 70, 71
2, 33900, Note_on_c, 0, 82, 80
2, 33929, Note_on_c, 0, 82, 0
2, 33929, Note_on_c, 0, 70, 0
2, 33930, Note_on_c, 0, 69, 59
2, 33930, Note_on_c, 0, 81, 80
2, 33959, Note_on_c, 0, 81, 0
2, 33959, Note_on_c, 0, 69, 0
2, 33960, Note_on_c, 0, 70, 71
2, 33960, Note_on_c, 0, 82, 93
2, 33989, Note_on_c, 0, 82, 0
2, 33989, Note_on_c, 0, 70, 0
2, 33990, Note_on_c, 0, 81, 71
2, 33990, Note_on_c, 0, 69, 67
2, 34019, Note_on_c, 0, 69, 0
2, 34019, Note_on_c, 0, 81, 0
2, 34020, Note_on_c, 0, 67, 59
2, 34020, Note_on_c, 0, 79, 88
2, 34049, Note_on_c, 0, 79, 0
2, 34049, Note_on_c, 0, 67, 0
2, 34050, Note_on_c, 0, 81, 75
2, 34050, Note_on_c, 0, 69, 67
2, 34079, Note_on_c, 0, 69, 0
2, 34079, Note_on_c, 0, 81, 0
2, 34080, Note_on_c, 0, 70, 80
2, 34080, Note_on_c, 0, 82, 114
2, 34099, Control_c, 0, 64, 127
2, 34200, Note_on_c, 0, 77, 97
2, 34200, Note_on_c, 0, 65, 93
2, 34206, Control_c, 0, 64, 0
2, 34207, Note_on_c, 0, 82, 0
2, 34208, Note_on_c, 0, 70, 0
2, 34234, Control_c, 0, 64, 127
2, 34296, Note_on_c, 0, 65, 0
2, 34300, Note_on_c, 0, 77, 0
2, 34320, Note_on_c, 0, 86, 102
2, 34320, Note_on_c, 0, 74, 84
2, 34321, Control_c, 0, 64, 0
2, 34351, Control_c, 0, 64, 127
2, 34424, Control_c, 0, 64, 0
2, 34432, Note_on_c, 0, 74, 0
2, 34432, Note_on_c, 0, 86, 0
2, 34440, Note_on_c, 0, 82, 108
2, 34440, Note_on_c, 0, 70, 80
2, 34450, Control_c, 0, 64, 127
2, 34462, Note_on_c, 0, 70, 0
2, 34469, Note_on_c, 0, 82, 0
2, 34551, Control_c, 0, 64, 0
2, 34560, Note_on_c, 0, 89, 97
2, 34560, Note_on_c, 0, 77, 93
2, 34580, Note_on_c, 0, 77, 0
2, 34580, Control_c, 0, 64, 127
2, 34584, Note_on_c, 0, 89, 0
2, 34669, Control_c, 0, 64, 0
2, 34680, Note_on_c, 0, 77, 93
2, 34680, Note_on_c, 0, 72, 93
2, 34680, Note_on_c, 0, 65, 88
2, 34680, Note_on_c, 0, 69, 88
2, 34699, Control_c, 0, 64, 127
2, 34727, Note_on_c, 0, 69, 0
2, 34728, Note_on_c, 0, 77, 0
2, 34728, Note_on_c, 0, 72, 0
2, 34729, Note_on_c, 0, 65, 0
2, 34770, Note_on_c, 0, 65, 84
2, 34770, Note_on_c, 0, 72, 102
2, 34770, Note_on_c, 0, 77, 97
2, 34770, Note_on_c, 0, 69, 93
2, 34780, Control_c, 0, 64, 0
2, 34783, Note_on_c, 0, 72, 0
2, 34785, Note_on_c, 0, 65, 0
2, 34785, Note_on_c, 0, 69, 0
2, 34786, Note_on_c, 0, 77, 0
2, 34800, Note_on_c, 0, 77, 88
2, 34800, Note_on_c, 0, 72, 108
2, 34800, Note_on_c, 0, 69, 97
2, 34800, Note_on_c, 0, 65, 97
2, 34820, Control_c, 0, 64, 127
2, 34826, Note_on_c, 0, 65, 0
2, 34827, Note_on_c, 0, 69, 0
2, 34829, Note_on_c, 0, 72, 0
2, 34830, Note_on_c, 0, 77, 0
2, 34909, Control_c, 0, 64, 0
2, 35040, Note_on_c, 0, 58, 67
2, 35070, Control_c, 0, 64, 127
2, 35097, Note_on_c, 0, 58, 0
2, 35100, Note_on_c, 0, 53, 50
2, 35160, Note_on_c, 0, 74, 84
2, 35160, Note_on_c, 0, 58, 52
2, 35164, Note_on_c, 0, 53, 0
2, 35215, Note_on_c, 0, 74, 0
2, 35217, Note_on_c, 0, 58, 0
2, 35220, Note_on_c, 0, 53, 55
2, 35280, Note_on_c, 0, 74, 75
2, 35280, Note_on_c, 0, 58, 51
2, 35283, Note_on_c, 0, 53, 0
2, 35333, Note_on_c, 0, 58, 0
2, 35340, Note_on_c, 0, 53, 50
2, 35343, Note_on_c, 0, 74, 0
2, 35397, Note_on_c, 0, 53, 0
2, 35400, Note_on_c, 0, 74, 75
2, 35400, Note_on_c, 0, 58, 51
2, 35456, Note_on_c, 0, 58, 0
2, 35460, Note_on_c, 0, 53, 57
2, 35489, Note_on_c, 0, 74, 0
2, 35520, Note_on_c, 0, 77, 63
2, 35520, Note_on_c, 0, 57, 59
2, 35526, Note_on_c, 0, 53, 0
2, 35528, Control_c, 0, 64, 0
2, 35564, Control_c, 0, 64, 127
2, 35575, Note_on_c, 0, 57, 0
2, 35580, Note_on_c, 0, 77, 0
2, 35580, Note_on_c, 0, 75, 59
2, 35580, Note_on_c, 0, 53, 51
2, 35593, Control_c, 0, 64, 0
2, 35631, Control_c, 0, 64, 127
2, 35634, Note_on_c, 0, 75, 0
2, 35640, Note_on_c, 0, 72, 67
2, 35640, Note_on_c, 0, 57, 59
2, 35642, Note_on_c, 0, 53, 0
2, 35646, Control_c, 0, 64, 0
2, 35653, Note_on_c, 0, 72, 0
2, 35668, Note_on_c, 0, 57, 0
2, 35700, Note_on_c, 0, 53, 55
2, 35700, Note_on_c, 0, 69, 71
2, 35721, Note_on_c, 0, 69, 0
2, 35744, Note_on_c, 0, 53, 0
2, 35760, Note_on_c, 0, 60, 51
2, 35760, Note_on_c, 0, 65, 71
2, 35797, Control_c, 0, 64, 127
2, 35820, Note_on_c, 0, 65, 0
2, 35820, Note_on_c, 0, 57, 57
2, 35824, Note_on_c, 0, 60, 0
2, 35853, Note_on_c, 0, 57, 0
2, 35880, Note_on_c, 0, 63, 54
2, 35896, Control_c, 0, 64, 0
2, 35932, Control_c, 0, 64, 127
2, 35940, Note_on_c, 0, 63, 0
2, 35940, Note_on_c, 0, 60, 57
2, 35986, Note_on_c, 0, 60, 0
2, 36000, Note_on_c, 0, 62, 71
2, 36005, Control_c, 0, 64, 0
2, 36039, Control_c, 0, 64, 127
2, 36053, Note_on_c, 0, 62, 0
2, 36060, Note_on_c, 0, 53, 51
2, 36118, Note_on_c, 0, 53, 0
2, 36120, Note_on_c, 0, 62, 57
2, 36120, Note_on_c, 0, 82, 80
2, 36123, Control_c, 0, 64, 0
2, 36152, Control_c, 0, 64, 127
2, 36176, Note_on_c, 0, 82, 0
2, 36180, Note_on_c, 0, 53, 48
2, 36183, Note_on_c, 0, 62, 0
2, 36240, Note_on_c, 0, 58, 57
2, 36240, Note_on_c, 0, 74, 80
2, 36243, Note_on_c, 0, 53, 0
2, 36245, Control_c, 0, 64, 0
2, 36276, Control_c, 0, 64, 127
2, 36300, Note_on_c, 0, 53, 50
2, 36301, Note_on_c, 0, 58, 0
2, 36319, Note_on_c, 0, 74, 0
2, 36356, Note_on_c, 0, 53, 0
2, 36360, Note_on_c, 0, 58, 44
2, 36360, Note_on_c, 0, 77, 84
2, 36371, Control_c, 0, 64, 0
2, 36400, Control_c, 0, 64, 127
2, 36420, Note_on_c, 0, 53, 51
2, 36426, Note_on_c, 0, 58, 0
2, 36434, Note_on_c, 0, 77, 0
2, 36472, Note_on_c, 0, 53, 0
2, 36480, Note_on_c, 0, 77, 71
2, 36480, Note_on_c, 0, 57, 59
2, 36482, Control_c, 0, 64, 0
2, 36517, Control_c, 0, 64, 127
2, 36535, Note_on_c, 0, 57, 0
2, 36537, Note_on_c, 0, 77, 0
2, 36540, Note_on_c, 0, 53, 47
2, 36540, Note_on_c, 0, 75, 59
2, 36550, Control_c, 0, 64, 0
2, 36589, Note_on_c, 0, 75, 0
2, 36600, Note_on_c, 0, 72, 71
2, 36600, Note_on_c, 0, 57, 57
2, 36601, Note_on_c, 0, 53, 0
2, 36612, Note_on_c, 0, 72, 0
2, 36639, Note_on_c, 0, 57, 0
2, 36660, Note_on_c, 0, 53, 71
2, 36660, Note_on_c, 0, 69, 75
2, 36677, Note_on_c, 0, 69, 0
2, 36694, Note_on_c, 0, 53, 0
2, 36720, Note_on_c, 0, 60, 55
2, 36720, Note_on_c, 0, 65, 71
2, 36744, Control_c, 0, 64, 127
2, 36779, Note_on_c, 0, 60, 0
2, 36780, Note_on_c, 0, 57, 55
2, 36798, Note_on_c, 0, 65, 0
2, 36838, Note_on_c, 0, 57, 0
2, 36840, Note_on_c, 0, 63, 57
2, 36900, Note_on_c, 0, 60, 67
2, 36901, Note_on_c, 0, 63, 0
2, 36925, Note_on_c, 0, 60, 0
2, 36960, Note_on_c, 0, 62, 84
2, 36961, Control_c, 0, 64, 0
2, 36992, Control_c, 0, 64, 127
2, 37014, Note_on_c, 0, 62, 0
2, 37080, Note_on_c, 0, 77, 88
2, 37080, Note_on_c, 0, 65, 71
2, 37082, Control_c, 0, 64, 0
2, 37112, Control_c, 0, 64, 127
2, 37165, Note_on_c, 0, 65, 0
2, 37166, Note_on_c, 0, 77, 0
2, 37200, Note_on_c, 0, 77, 84
2, 37200, Note_on_c, 0, 65, 75
2, 37209, Control_c, 0, 64, 0
2, 37237, Control_c, 0, 64, 127
2, 37283, Note_on_c, 0, 77, 0
2, 37286, Note_on_c, 0, 65, 0
2, 37320, Note_on_c, 0, 77, 93
2, 37320, Note_on_c, 0, 65, 88
2, 37324, Control_c, 0, 64, 0
2, 37349, Control_c, 0, 64, 127
2, 37383, Note_on_c, 0, 77, 0
2, 37386, Note_on_c, 0, 65, 0
2, 37440, Note_on_c, 0, 66, 80
2, 37440, Note_on_c, 0, 78, 84
2, 37443, Control_c, 0, 64, 0
2, 37471, Control_c, 0, 64, 127
2, 37493, Note_on_c, 0, 78, 0
2, 37496, Note_on_c, 0, 66, 0
2, 37500, Note_on_c, 0, 79, 84
2, 37500, Note_on_c, 0, 67, 71
2, 37503, Control_c, 0, 64, 0
2, 37553, Note_on_c, 0, 67, 0
2, 37560, Note_on_c, 0, 63, 63
2, 37560, Note_on_c, 0, 75, 84
2, 37561, Note_on_c, 0, 79, 0
2, 37574, Note_on_c, 0, 75, 0
2, 37581, Note_on_c, 0, 63, 0
2, 37620, Note_on_c, 0, 72, 84
2, 37620, Note_on_c, 0, 60, 71
2, 37636, Note_on_c, 0, 60, 0
2, 37638, Note_on_c, 0, 72, 0
2, 37680, Note_on_c, 0, 64, 71
2, 37680, Note_on_c, 0, 76, 84
2, 37700, Control_c, 0, 64, 127
2, 37734, Note_on_c, 0, 76, 0
2, 37736, Note_on_c, 0, 64, 0
2, 37740, Note_on_c, 0, 77, 75
2, 37740, Note_on_c, 0, 65, 67
2, 37751, Control_c, 0, 64, 0
2, 37795, Note_on_c, 0, 65, 0
2, 37800, Note_on_c, 0, 62, 67
2, 37800, Note_on_c, 0, 74, 88
2, 37801, Note_on_c, 0, 77, 0
2, 37815, Note_on_c, 0, 74, 0
2, 37823, Note_on_c, 0, 62, 0
2, 37860, Note_on_c, 0, 70, 80
2, 37860, Note_on_c, 0, 58, 71
2, 37876, Note_on_c, 0, 58, 0
2, 37877, Note_on_c, 0, 70, 0
2, 37920, Note_on_c, 0, 62, 63
2, 37920, Note_on_c, 0, 74, 71
2, 37935, Control_c, 0, 64, 127
2, 37949, Note_on_c, 0, 74, 0
2, 37949, Note_on_c, 0, 62, 0
2, 37950, Note_on_c, 0, 72, 67
2, 37950, Note_on_c, 0, 60, 71
2, 37979, Note_on_c, 0, 60, 0
2, 37979, Note_on_c, 0, 72, 0
2, 37980, Note_on_c, 0, 74, 71
2, 37980, Note_on_c, 0, 62, 67
2, 38009, Note_on_c, 0, 62, 0
2, 38009, Note_on_c, 0, 74, 0
2, 38010, Note_on_c, 0, 72, 71
2, 38010, Note_on_c, 0, 60, 71
2, 38039, Note_on_c, 0, 60, 0
2, 38039, Note_on_c, 0, 72, 0
2, 38040, Note_on_c, 0, 74, 80
2, 38040, Note_on_c, 0, 62, 80
2, 38069, Note_on_c, 0, 62, 0
2, 38069, Note_on_c, 0, 74, 0
2, 38070, Note_on_c, 0, 60, 71
2, 38070, Note_on_c, 0, 72, 84
2, 38099, Note_on_c, 0, 72, 0
2, 38099, Note_on_c, 0, 60, 0
2, 38100, Note_on_c, 0, 62, 84
2, 38100, Note_on_c, 0, 74, 71
2, 38129, Note_on_c, 0, 74, 0
2, 38129, Note_on_c, 0, 62, 0
2, 38130, Note_on_c, 0, 60, 67
2, 38130, Note_on_c, 0, 72, 80
2, 38159, Note_on_c, 0, 72, 0
2, 38159, Note_on_c, 0, 60, 0
2, 38160, Note_on_c, 0, 62, 55
2, 38160, Note_on_c, 0, 74, 71
2, 38189, Note_on_c, 0, 74, 0
2, 38189, Note_on_c, 0, 62, 0
2, 38190, Note_on_c, 0, 60, 55
2, 38190, Note_on_c, 0, 72, 75
2, 38219, Note_on_c, 0, 72, 0
2, 38219, Note_on_c, 0, 60, 0
2, 38220, Note_on_c, 0, 74, 67
2, 38220, Note_on_c, 0, 62, 54
2, 38249, Note_on_c, 0, 62, 0
2, 38249, Note_on_c, 0, 74, 0
2, 38250, Note_on_c, 0, 72, 67
2, 38250, Note_on_c, 0, 60, 67
2, 38279, Note_on_c, 0, 60, 0
2, 38279, Note_on_c, 0, 72, 0
2, 38280, Note_on_c, 0, 62, 71
2, 38280, Note_on_c, 0, 74, 67
2, 38309, Note_on_c, 0, 74, 0
2, 38309, Note_on_c, 0, 62, 0
2, 38310, Note_on_c, 0, 72, 75
2, 38310, Note_on_c, 0, 60, 71
2, 38339, Note_on_c, 0, 60, 0
2, 38339, Note_on_c, 0, 72, 0
2, 38340, Note_on_c, 0, 70, 75
2, 38340, Note_on_c, 0, 58, 71
2, 38369, Note_on_c, 0, 58, 0
2, 38369, Note_on_c, 0, 70, 0
2, 38370, Note_on_c, 0, 60, 75
2, 38370, Note_on_c, 0, 72, 71
2, 38398, Control_c, 0, 64, 0
2, 38399, Note_on_c, 0, 72, 0
2, 38399, Note_on_c, 0, 60, 0
2, 38400, Note_on_c, 0, 70, 71
2, 38400, Note_on_c, 0, 58, 54
2, 38431, Control_c, 0, 64, 127
2, 38523, Note_on_c, 0, 70, 0
2, 38524, Note_on_c, 0, 58, 0
2, 38524, Control_c, 0, 64, 0
2, 39000, Note_on_c, 0, 77, 75
2, 39027, Control_c, 0, 64, 127
2, 39104, Note_on_c, 0, 77, 0
2, 39120, Note_on_c, 0, 77, 88
2, 39214, Note_on_c, 0, 77, 0
2, 39240, Note_on_c, 0, 77, 75
2, 39323, Note_on_c, 0, 77, 0
2, 39360, Note_on_c, 0, 77, 93
2, 39370, Control_c, 0, 64, 0
2, 39402, Control_c, 0, 64, 127
2, 39480, Note_on_c, 0, 65, 59
2, 39495, Note_on_c, 0, 77, 0
2, 39540, Note_on_c, 0, 82, 71
2, 39575, Note_on_c, 0, 82, 0
2, 39575, Note_on_c, 0, 65, 0
2, 39600, Note_on_c, 0, 77, 80
2, 39600, Note_on_c, 0, 65, 67
2, 39614, Control_c, 0, 64, 0
2, 39641, Control_c, 0, 64, 127
2, 39665, Note_on_c, 0, 77, 0
2, 39674, Note_on_c, 0, 65, 0
2, 39720, Note_on_c, 0, 65, 75
2, 39728, Control_c, 0, 64, 0
2, 39755, Control_c, 0, 64, 127
2, 39805, Note_on_c, 0, 65, 0
2, 39840, Note_on_c, 0, 65, 71
2, 39845, Control_c, 0, 64, 0
2, 39872, Control_c, 0, 64, 127
2, 39954, Control_c, 0, 64, 0
2, 39957, Note_on_c, 0, 65, 0
2, 39960, Note_on_c, 0, 77, 84
2, 39977, Control_c, 0, 64, 127
2, 40020, Note_on_c, 0, 72, 88
2, 40062, Note_on_c, 0, 77, 0
2, 40065, Note_on_c, 0, 72, 0
2, 40080, Note_on_c, 0, 77, 75
2, 40080, Note_on_c, 0, 65, 52
2, 40088, Control_c, 0, 64, 0
2, 40123, Control_c, 0, 64, 127
2, 40171, Note_on_c, 0, 77, 0
2, 40200, Note_on_c, 0, 77, 75
2, 40211, Note_on_c, 0, 65, 0
2, 40224, Control_c, 0, 64, 0
2, 40257, Control_c, 0, 64, 127
2, 40298, Note_on_c, 0, 77, 0
2, 40320, Note_on_c, 0, 77, 80
2, 40322, Control_c, 0, 64, 0
2, 40349, Control_c, 0, 64, 127
2, 40433, Control_c, 0, 64, 0
2, 40440, Note_on_c, 0, 65, 71
2, 40463, Control_c, 0, 64, 127
2, 40489, Note_on_c, 0, 77, 0
2, 40500, Note_on_c, 0, 82, 75
2, 40518, Note_on_c, 0, 65, 0
2, 40548, Note_on_c, 0, 82, 0
2, 40557, Control_c, 0, 64, 0
2, 40560, Note_on_c, 0, 65, 71
2, 40560, Note_on_c, 0, 77, 88
2, 40585, Control_c, 0, 64, 127
2, 40627, Note_on_c, 0, 65, 0
2, 40670, Note_on_c, 0, 77, 0
2, 40680, Note_on_c, 0, 65, 71
2, 40686, Control_c, 0, 64, 0
2, 40712, Control_c, 0, 64, 127
2, 40765, Note_on_c, 0, 65, 0
2, 40799, Control_c, 0, 64, 0
2, 40800, Note_on_c, 0, 66, 75
2, 40828, Control_c, 0, 64, 127
2, 40855, Control_c, 0, 64, 0
2, 40857, Note_on_c, 0, 66, 0
2, 40860, Note_on_c, 0, 67, 71
2, 40918, Note_on_c, 0, 67, 0
2, 40920, Note_on_c, 0, 63, 59
2, 40942, Note_on_c, 0, 63, 0
2, 40980, Note_on_c, 0, 60, 80
2, 40999, Note_on_c, 0, 60, 0
2, 41040, Note_on_c, 0, 64, 71
2, 41054, Control_c, 0, 64, 127
2, 41091, Note_on_c, 0, 64, 0
2, 41100, Note_on_c, 0, 65, 67
2, 41107, Control_c, 0, 64, 0
2, 41160, Note_on_c, 0, 62, 71
2, 41162, Note_on_c, 0, 65, 0
2, 41186, Note_on_c, 0, 62, 0
2, 41220, Note_on_c, 0, 58, 80
2, 41233, Note_on_c, 0, 58, 0
2, 41280, Note_on_c, 0, 66, 67
2, 41280, Note_on_c, 0, 78, 84
2, 41301, Control_c, 0, 64, 127
2, 41334, Note_on_c, 0, 78, 0
2, 41335, Note_on_c, 0, 66, 0
2, 41340, Note_on_c, 0, 79, 84
2, 41340, Note_on_c, 0, 67, 75
2, 41349, Control_c, 0, 64, 0
2, 41400, Note_on_c, 0, 63, 71
2, 41400, Note_on_c, 0, 75, 80
2, 41401, Note_on_c, 0, 67, 0
2, 41408, Note_on_c, 0, 79, 0
2, 41415, Note_on_c, 0, 75, 0
2, 41421, Note_on_c, 0, 63, 0
2, 41460, Note_on_c, 0, 72, 88
2, 41460, Note_on_c, 0, 60, 71
2, 41475, Note_on_c, 0, 60, 0
2, 41479, Note_on_c, 0, 72, 0
2, 41520, Note_on_c, 0, 64, 80
2, 41520, Note_on_c, 0, 76, 80
2, 41531, Control_c, 0, 64, 127
2, 41572, Control_c, 0, 64, 0
2, 41575, Note_on_c, 0, 76, 0
2, 41578, Note_on_c, 0, 64, 0
2, 41580, Note_on_c, 0, 77, 84
2, 41580, Note_on_c, 0, 65, 71
2, 41636, Note_on_c, 0, 65, 0
2, 41640, Note_on_c, 0, 62, 84
2, 41640, Note_on_c, 0, 74, 84
2, 41644, Note_on_c, 0, 77, 0
2, 41653, Note_on_c, 0, 74, 0
2, 41657, Note_on_c, 0, 62, 0
2, 41700, Note_on_c, 0, 58, 71
2, 41700, Note_on_c, 0, 70, 84
2, 41715, Note_on_c, 0, 70, 0
2, 41718, Note_on_c, 0, 58, 0
2, 42240, Note_on_c, 0, 58, 57
2, 42240, Note_on_c, 0, 70, 88
2, 42255, Control_c, 0, 64, 127
2, 42300, Note_on_c, 0, 65, 67
2, 42304, Note_on_c, 0, 70, 0
2, 42306, Note_on_c, 0, 58, 0
2, 42355, Note_on_c, 0, 65, 0
2, 42357, Control_c, 0, 64, 0
2, 42360, Note_on_c, 0, 74, 75
2, 42390, Control_c, 0, 64, 127
2, 42420, Note_on_c, 0, 70, 71
2, 42421, Note_on_c, 0, 74, 0
2, 42434, Note_on_c, 0, 70, 0
2, 42473, Control_c, 0, 64, 0
2, 42480, Note_on_c, 0, 77, 97
2, 42504, Control_c, 0, 64, 127
2, 42540, Note_on_c, 0, 74, 93
2, 42541, Note_on_c, 0, 77, 0
2, 42553, Note_on_c, 0, 74, 0
2, 42600, Note_on_c, 0, 68, 84
2, 42600, Note_on_c, 0, 80, 88
2, 42600, Note_on_c, 0, 77, 102
2, 42600, Note_on_c, 0, 65, 88
2, 42602, Control_c, 0, 64, 0
2, 42639, Control_c, 0, 64, 127
2, 42679, Note_on_c, 0, 77, 0
2, 42684, Note_on_c, 0, 65, 0
2, 42684, Note_on_c, 0, 80, 0
2, 42686, Note_on_c, 0, 68, 0
2, 42720, Note_on_c, 0, 70, 50
2, 42720, Note_on_c, 0, 79, 63
2, 42720, Note_on_c, 0, 75, 54
2, 42720, Note_on_c, 0, 67, 51
2, 42723, Control_c, 0, 64, 0
2, 42751, Control_c, 0, 64, 127
2, 42754, Note_on_c, 0, 70, 0
2, 42764, Note_on_c, 0, 67, 0
2, 42765, Note_on_c, 0, 79, 0
2, 42771, Note_on_c, 0, 75, 0
2, 42780, Note_on_c, 0, 70, 48
2, 42802, Control_c, 0, 64, 0
2, 42831, Note_on_c, 0, 70, 0
2, 42840, Note_on_c, 0, 75, 59
2, 42900, Note_on_c, 0, 75, 0
2, 42900, Note_on_c, 0, 70, 67
2, 42958, Note_on_c, 0, 70, 0
2, 42960, Note_on_c, 0, 79, 84
2, 42981, Control_c, 0, 64, 127
2, 43019, Note_on_c, 0, 79, 0
2, 43020, Note_on_c, 0, 75, 67
2, 43034, Note_on_c, 0, 75, 0
2, 43080, Note_on_c, 0, 79, 102
2, 43080, Note_on_c, 0, 70, 59
2, 43080, Note_on_c, 0, 82, 88
2, 43080, Note_on_c, 0, 67, 71
2, 43090, Control_c, 0, 64, 0
2, 43126, Control_c, 0, 64, 127
2, 43143, Note_on_c, 0, 67, 0
2, 43144, Note_on_c, 0, 70, 0
2, 43146, Note_on_c, 0, 79, 0
2, 43150, Note_on_c, 0, 82, 0
2, 43200, Note_on_c, 0, 77, 71
2, 43200, Note_on_c, 0, 81, 75
2, 43200, Note_on_c, 0, 65, 59
2, 43200, Note_on_c, 0, 69, 67
2, 43201, Control_c, 0, 64, 0
2, 43229, Control_c, 0, 64, 127
2, 43242, Note_on_c, 0, 69, 0
2, 43243, Note_on_c, 0, 65, 0
2, 43253, Note_on_c, 0, 81, 0
2, 43253, Note_on_c, 0, 77, 0
2, 43260, Note_on_c, 0, 72, 67
2, 43270, Control_c, 0, 64, 0
2, 43313, Note_on_c, 0, 72, 0
2, 43320, Note_on_c, 0, 81, 84
2, 43347, Control_c, 0, 64, 127
2, 43377, Note_on_c, 0, 81, 0
2, 43380, Note_on_c, 0, 77, 88
2, 43431, Control_c, 0, 64, 0
2, 43433, Note_on_c, 0, 77, 0
2, 43440, Note_on_c, 0, 84, 93
2, 43463, Control_c, 0, 64, 127
2, 43500, Note_on_c, 0, 81, 93
2, 43501, Note_on_c, 0, 84, 0
2, 43518, Note_on_c, 0, 81, 0
2, 43553, Control_c, 0, 64, 0
2, 43560, Note_on_c, 0, 84, 102
2, 43560, Note_on_c, 0, 87, 88
2, 43560, Note_on_c, 0, 75, 80
2, 43560, Note_on_c, 0, 72, 84
2, 43586, Control_c, 0, 64, 127
2, 43622, Note_on_c, 0, 72, 0
2, 43628, Note_on_c, 0, 75, 0
2, 43640, Note_on_c, 0, 87, 0
2, 43640, Note_on_c, 0, 84, 0
2, 43672, Control_c, 0, 64, 0
2, 43680, Note_on_c, 0, 82, 88
2, 43680, Note_on_c, 0, 86, 102
2, 43680, Note_on_c, 0, 70, 75
2, 43680, Note_on_c, 0, 74, 88
2, 43704, Control_c, 0, 64, 127
2, 43731, Note_on_c, 0, 86, 0
2, 43732, Note_on_c, 0, 82, 0
2, 43744, Note_on_c, 0, 70, 0
2, 43745, Note_on_c, 0, 74, 0
2, 43799, Control_c, 0, 64, 0
2, 43800, Note_on_c, 0, 89, 102
2, 43800, Note_on_c, 0, 77, 88
2, 43829, Control_c, 0, 64, 127
2, 43873, Note_on_c, 0, 89, 0
2, 43874, Note_on_c, 0, 77, 0
2, 43890, Note_on_c, 0, 86, 97
2, 43894, Control_c, 0, 64, 0
2, 43903, Note_on_c, 0, 86, 0
2, 43920, Note_on_c, 0, 86, 80
2, 43920, Note_on_c, 0, 79, 80
2, 43949, Note_on_c, 0, 86, 0
2, 43950, Note_on_c, 0, 84, 75
2, 43979, Note_on_c, 0, 84, 0
2, 43980, Note_on_c, 0, 86, 67
2, 44009, Note_on_c, 0, 86, 0
2, 44010, Note_on_c, 0, 84, 84
2, 44039, Note_on_c, 0, 84, 0
2, 44039, Note_on_c, 0, 79, 0
2, 44040, Note_on_c, 0, 86, 75
2, 44040, Note_on_c, 0, 69, 75
2, 44069, Note_on_c, 0, 86, 0
2, 44070, Note_on_c, 0, 84, 71
2, 44099, Note_on_c, 0, 84, 0
2, 44100, Note_on_c, 0, 82, 67
2, 44129, Note_on_c, 0, 82, 0
2, 44130, Note_on_c, 0, 84, 63
2, 44159, Note_on_c, 0, 84, 0
2, 44159, Note_on_c, 0, 69, 0
2, 44160, Note_on_c, 0, 82, 84
2, 44160, Note_on_c, 0, 70, 71
2, 44178, Control_c, 0, 64, 127
2, 44268, Control_c, 0, 64, 0
2, 44279, Note_on_c, 0, 70, 0
2, 44279, Note_on_c, 0, 82, 0
2, 44520, Note_on_c, 0, 82, 97
2, 44520, Note_on_c, 0, 70, 84
2, 44537, Control_c, 0, 64, 127
2, 44566, Note_on_c, 0, 70, 0
2, 44570, Note_on_c, 0, 82, 0
2, 44610, Note_on_c, 0, 82, 57
2, 44610, Note_on_c, 0, 70, 54
2, 44622, Note_on_c, 0, 70, 0
2, 44623, Note_on_c, 0, 82, 0
2, 44630, Control_c, 0, 64, 0
2, 44640, Note_on_c, 0, 82, 55
2, 44640, Note_on_c, 0, 70, 52
2, 44664, Control_c, 0, 64, 127
2, 44676, Note_on_c, 0, 70, 0
2, 44680, Note_on_c, 0, 82, 0
2, 44728, Control_c, 0, 64, 0
2, 45000, Note_on_c, 0, 84, 97
2, 45000, Note_on_c, 0, 72, 93
2, 45011, Control_c, 0, 64, 127
2, 45040, Note_on_c, 0, 72, 0
2, 45048, Note_on_c, 0, 84, 0
2, 45090, Note_on_c, 0, 84, 63
2, 45090, Note_on_c, 0, 72, 67
2, 45104, Note_on_c, 0, 72, 0
2, 45106, Note_on_c, 0, 84, 0
2, 45111, Control_c, 0, 64, 0
2, 45120, Note_on_c, 0, 84, 57
2, 45120, Note_on_c, 0, 72, 57
2, 45146, Control_c, 0, 64, 127
2, 45157, Note_on_c, 0, 72, 0
2, 45163, Note_on_c, 0, 84, 0
2, 45223, Control_c, 0, 64, 0
2, 45480, Note_on_c, 0, 89, 102
2, 45480, Note_on_c, 0, 77, 88
2, 45491, Control_c, 0, 64, 127
2, 45519, Note_on_c, 0, 77, 0
2, 45536, Note_on_c, 0, 89, 0
2, 45570, Note_on_c, 0, 89, 80
2, 45580, Control_c, 0, 64, 0
2, 45584, Note_on_c, 0, 89, 0
2, 45600, Note_on_c, 0, 89, 108
2, 45600, Note_on_c, 0, 77, 88
2, 45620, Control_c, 0, 64, 127
2, 45637, Note_on_c, 0, 89, 0
2, 45640, Note_on_c, 0, 77, 0
2, 45711, Control_c, 0, 64, 0
2, 45720, Note_on_c, 0, 86, 102
2, 45720, Note_on_c, 0, 74, 80
2, 45741, Control_c, 0, 64, 127
2, 45761, Note_on_c, 0, 74, 0
2, 45775, Note_on_c, 0, 86, 0
2, 45780, Note_on_c, 0, 82, 88
2, 45780, Note_on_c, 0, 70, 67
2, 45808, Note_on_c, 0, 82, 0
2, 45810, Note_on_c, 0, 70, 0
2, 45826, Control_c, 0, 64, 0
2, 45840, Note_on_c, 0, 74, 67
2, 45840, Note_on_c, 0, 86, 84
2, 45869, Note_on_c, 0, 86, 0
2, 45869, Note_on_c, 0, 74, 0
2, 45870, Note_on_c, 0, 72, 54
2, 45870, Note_on_c, 0, 84, 71
2, 45899, Note_on_c, 0, 84, 0
2, 45899, Note_on_c, 0, 72, 0
2, 45900, Note_on_c, 0, 74, 71
2, 45900, Note_on_c, 0, 86, 67
2, 45929, Note_on_c, 0, 86, 0
2, 45929, Note_on_c, 0, 74, 0
2, 45930, Note_on_c, 0, 84, 84
2, 45930, Note_on_c, 0, 72, 59
2, 45959, Note_on_c, 0, 72, 0
2, 45959, Note_on_c, 0, 84, 0
2, 45960, Note_on_c, 0, 74, 75
2, 45960, Note_on_c, 0, 86, 88
2, 45989, Note_on_c, 0, 86, 0
2, 45989, Note_on_c, 0, 74, 0
2, 45990, Note_on_c, 0, 84, 71
2, 45990, Note_on_c, 0, 72, 63
2, 46019, Note_on_c, 0, 72, 0
2, 46019, Note_on_c, 0, 84, 0
2, 46020, Note_on_c, 0, 82, 67
2, 46020, Note_on_c, 0, 70, 57
2, 46049, Note_on_c, 0, 70, 0
2, 46049, Note_on_c, 0, 82, 0
2, 46050, Note_on_c, 0, 72, 51
2, 46050, Note_on_c, 0, 84, 67
2, 46079, Note_on_c, 0, 84, 0
2, 46079, Note_on_c, 0, 72, 0
2, 46080, Note_on_c, 0, 70, 67
2, 46080, Note_on_c, 0, 82, 88
2, 46110, Control_c, 0, 64, 127
2, 46184, Note_on_c, 0, 70, 0
2, 46199, Control_c, 0, 64, 0
2, 46319, Note_on_c, 0, 82, 0
2, 46320, Note_on_c, 0, 77, 71
2, 46560, Note_on_c, 0, 74, 71
2, 46562, Note_on_c, 0, 77, 0
2, 46713, Control_c, 0, 64, 127
2, 46740, Note_on_c, 0, 70, 71
2, 46788, Note_on_c, 0, 74, 0
2, 46789, Note_on_c, 0, 70, 0
2, 46800, Note_on_c, 0, 68, 57
2, 46800, Note_on_c, 0, 77, 57
2, 46808, Control_c, 0, 64, 0
2, 46854, Note_on_c, 0, 68, 0
2, 46860, Note_on_c, 0, 67, 50
2, 46920, Note_on_c, 0, 65, 71
2, 46921, Note_on_c, 0, 67, 0
2, 46955, Control_c, 0, 64, 127
2, 46975, Note_on_c, 0, 65, 0
2, 46980, Note_on_c, 0, 63, 52
2, 46993, Note_on_c, 0, 77, 0
2, 47031, Note_on_c, 0, 63, 0
2, 47034, Control_c, 0, 64, 0
2, 47040, Note_on_c, 0, 82, 71
2, 47040, Note_on_c, 0, 62, 55
2, 47074, Control_c, 0, 64, 127
2, 47151, Control_c, 0, 64, 0
2, 47164, Note_on_c, 0, 62, 0
2, 47280, Note_on_c, 0, 77, 59
2, 47294, Note_on_c, 0, 82, 0
2, 47520, Note_on_c, 0, 74, 57
2, 47522, Note_on_c, 0, 77, 0
2, 47700, Note_on_c, 0, 70, 59
2, 47707, Control_c, 0, 64, 127
2, 47756, Note_on_c, 0, 70, 0
2, 47756, Note_on_c, 0, 74, 0
2, 47758, Control_c, 0, 64, 0
2, 47760, Note_on_c, 0, 77, 59
2, 47760, Note_on_c, 0, 68, 51
2, 47801, Control_c, 0, 64, 127
2, 47819, Note_on_c, 0, 68, 0
2, 47820, Note_on_c, 0, 67, 51
2, 47827, Control_c, 0, 64, 0
2, 47864, Control_c, 0, 64, 127
2, 47876, Note_on_c, 0, 67, 0
2, 47880, Note_on_c, 0, 65, 57
2, 47886, Control_c, 0, 64, 0
2, 47922, Control_c, 0, 64, 127
2, 47940, Note_on_c, 0, 65, 0
2, 47940, Note_on_c, 0, 63, 59
2, 47942, Note_on_c, 0, 77, 0
2, 47957, Control_c, 0, 64, 0
2, 47990, Control_c, 0, 64, 127
2, 47993, Note_on_c, 0, 63, 0
2, 48000, Note_on_c, 0, 62, 55
2, 48014, Control_c, 0, 64, 0
2, 48046, Control_c, 0, 64, 127
2, 48057, Control_c, 0, 64, 0
2, 48060, Note_on_c, 0, 62, 0
2, 48060, Note_on_c, 0, 80, 71
2, 48060, Note_on_c, 0, 68, 55
2, 48086, Control_c, 0, 64, 127
2, 48095, Note_on_c, 0, 68, 0
2, 48103, Note_on_c, 0, 80, 0
2, 48120, Note_on_c, 0, 68, 54
2, 48120, Note_on_c, 0, 80, 63
2, 48143, Note_on_c, 0, 80, 0
2, 48144, Note_on_c, 0, 68, 0
2, 48180, Note_on_c, 0, 68, 75
2, 48180, Note_on_c, 0, 80, 93
2, 48192, Note_on_c, 0, 68, 0
2, 48194, Note_on_c, 0, 80, 0
2, 48224, Control_c, 0, 64, 0
2, 48240, Note_on_c, 0, 80, 102
2, 48240, Note_on_c, 0, 68, 102
2, 48247, Control_c, 0, 64, 127
2, 48264, Control_c, 0, 64, 0
2, 48297, Note_on_c, 0, 68, 0
2, 48300, Note_on_c, 0, 79, 75
2, 48300, Note_on_c, 0, 67, 67
2, 48303, Note_on_c, 0, 80, 0
2, 48314, Note_on_c, 0, 79, 0
2, 48316, Note_on_c, 0, 67, 0
2, 48360, Note_on_c, 0, 79, 71
2, 48360, Note_on_c, 0, 67, 71
2, 48370, Note_on_c, 0, 67, 0
2, 48373, Note_on_c, 0, 79, 0
2, 48420, Note_on_c, 0, 79, 84
2, 48420, Note_on_c, 0, 67, 75
2, 48431, Note_on_c, 0, 67, 0
2, 48433, Note_on_c, 0, 79, 0
2, 48480, Note_on_c, 0, 79, 102
2, 48480, Note_on_c, 0, 67, 84
2, 48492, Control_c, 0, 64, 127
2, 48530, Control_c, 0, 64, 0
2, 48540, Note_on_c, 0, 65, 55
2, 48540, Note_on_c, 0, 77, 59
2, 48541, Note_on_c, 0, 67, 0
2, 48548, Note_on_c, 0, 79, 0
2, 48558, Note_on_c, 0, 77, 0
2, 48560, Note_on_c, 0, 65, 0
2, 48600, Note_on_c, 0, 77, 57
2, 48600, Note_on_c, 0, 65, 57
2, 48612, Note_on_c, 0, 65, 0
2, 48614, Note_on_c, 0, 77, 0
2, 48660, Note_on_c, 0, 65, 57
2, 48660, Note_on_c, 0, 77, 71
2, 48671, Note_on_c, 0, 77, 0
2, 48671, Note_on_c, 0, 65, 0
2, 48720, Note_on_c, 0, 77, 84
2, 48720, Note_on_c, 0, 65, 71
2, 48727, Control_c, 0, 64, 127
2, 48757, Control_c, 0, 64, 0
2, 48779, Note_on_c, 0, 65, 0
2, 48780, Note_on_c, 0, 63, 50
2, 48780, Note_on_c, 0, 75, 71
2, 48783, Note_on_c, 0, 77, 0
2, 48795, Note_on_c, 0, 63, 0
2, 48800, Note_on_c, 0, 75, 0
2, 48840, Note_on_c, 0, 75, 59
2, 48840, Note_on_c, 0, 63, 59
2, 48853, Note_on_c, 0, 63, 0
2, 48855, Note_on_c, 0, 75, 0
2, 48900, Note_on_c, 0, 63, 67
2, 48900, Note_on_c, 0, 75, 75
2, 48911, Note_on_c, 0, 75, 0
2, 48912, Note_on_c, 0, 63, 0
2, 48960, Note_on_c, 0, 84, 88
2, 48960, Note_on_c, 0, 72, 84
2, 48977, Control_c, 0, 64, 127
2, 49016, Note_on_c, 0, 72, 0
2, 49019, Note_on_c, 0, 84, 0
2, 49019, Control_c, 0, 64, 0
2, 49020, Note_on_c, 0, 75, 71
2, 49020, Note_on_c, 0, 63, 63
2, 49035, Note_on_c, 0, 75, 0
2, 49036, Note_on_c, 0, 63, 0
2, 49080, Note_on_c, 0, 75, 80
2, 49080, Note_on_c, 0, 63, 57
2, 49093, Note_on_c, 0, 75, 0
2, 49094, Note_on_c, 0, 63, 0
2, 49140, Note_on_c, 0, 75, 75
2, 49140, Note_on_c, 0, 63, 54
2, 49151, Note_on_c, 0, 63, 0
2, 49152, Note_on_c, 0, 75, 0
2, 49200, Note_on_c, 0, 74, 88
2, 49200, Note_on_c, 0, 62, 80
2, 49214, Control_c, 0, 64, 127
2, 49240, Note_on_c, 0, 62, 0
2, 49260, Note_on_c, 0, 74, 0
2, 49260, Note_on_c, 0, 82, 84
2, 49260, Note_on_c, 0, 70, 63
2, 49265, Control_c, 0, 64, 0
2, 49279, Note_on_c, 0, 70, 0
2, 49279, Note_on_c, 0, 82, 0
2, 49320, Note_on_c, 0, 70, 67
2, 49320, Note_on_c, 0, 82, 71
2, 49337, Note_on_c, 0, 82, 0
2, 49337, Note_on_c, 0, 70, 0
2, 49380, Note_on_c, 0, 82, 71
2, 49380, Note_on_c, 0, 70, 67
2, 49398, Note_on_c, 0, 82, 0
2, 49401, Note_on_c, 0, 70, 0
2, 49440, Note_on_c, 0, 72, 93
2, 49440, Note_on_c, 0, 60, 84
2, 49453, Control_c, 0, 64, 127
2, 49480, Note_on_c, 0, 60, 0
2, 49500, Note_on_c, 0, 72, 0
2, 49500, Note_on_c, 0, 82, 80
2, 49500, Note_on_c, 0, 70, 63
2, 49506, Control_c, 0, 64, 0
2, 49516, Note_on_c, 0, 70, 0
2, 49517, Note_on_c, 0, 82, 0
2, 49560, Note_on_c, 0, 82, 75
2, 49560, Note_on_c, 0, 70, 71
2, 49576, Note_on_c, 0, 70, 0
2, 49578, Note_on_c, 0, 82, 0
2, 49620, Note_on_c, 0, 82, 80
2, 49620, Note_on_c, 0, 70, 59
2, 49639, Note_on_c, 0, 70, 0
2, 49639, Note_on_c, 0, 82, 0
2, 49680, Note_on_c, 0, 72, 84
2, 49680, Note_on_c, 0, 60, 84
2, 49690, Control_c, 0, 64, 127
2, 49725, Note_on_c, 0, 60, 0
2, 49737, Note_on_c, 0, 72, 0
2, 49740, Note_on_c, 0, 81, 88
2, 49740, Note_on_c, 0, 69, 71
2, 49751, Control_c, 0, 64, 0
2, 49757, Note_on_c, 0, 69, 0
2, 49757, Note_on_c, 0, 81, 0
2, 49800, Note_on_c, 0, 81, 93
2, 49800, Note_on_c, 0, 69, 80
2, 49815, Note_on_c, 0, 69, 0
2, 49817, Note_on_c, 0, 81, 0
2, 49860, Note_on_c, 0, 81, 84
2, 49860, Note_on_c, 0, 69, 75
2, 49879, Note_on_c, 0, 81, 0
2, 49880, Note_on_c, 0, 69, 0
2, 49920, Note_on_c, 0, 82, 84
2, 49920, Note_on_c, 0, 70, 67
2, 49933, Control_c, 0, 64, 127
2, 49980, Note_on_c, 0, 65, 57
2, 49982, Note_on_c, 0, 70, 0
2, 50035, Note_on_c, 0, 65, 0
2, 50040, Note_on_c, 0, 70, 51
2, 50089, Note_on_c, 0, 70, 0
2, 50100, Note_on_c, 0, 65, 71
2, 50131, Note_on_c, 0, 82, 0
2, 50152, Note_on_c, 0, 65, 0
2, 50160, Note_on_c, 0, 77, 88
2, 50160, Note_on_c, 0, 69, 67
2, 50166, Control_c, 0, 64, 0
2, 50198, Control_c, 0, 64, 127
2, 50214, Note_on_c, 0, 69, 0
2, 50220, Note_on_c, 0, 65, 54
2, 50275, Note_on_c, 0, 65, 0
2, 50280, Note_on_c, 0, 69, 51
2, 50336, Note_on_c, 0, 69, 0
2, 50340, Note_on_c, 0, 65, 57
2, 50382, Note_on_c, 0, 65, 0
2, 50400, Note_on_c, 0, 74, 88
2, 50400, Note_on_c, 0, 70, 59
2, 50402, Note_on_c, 0, 77, 0
2, 50410, Control_c, 0, 64, 0
2, 50451, Control_c, 0, 64, 127
2, 50454, Note_on_c, 0, 70, 0
2, 50460, Note_on_c, 0, 65, 59
2, 50497, Note_on_c, 0, 74, 0
2, 50520, Note_on_c, 0, 70, 63
2, 50523, Note_on_c, 0, 65, 0
2, 50556, Note_on_c, 0, 70, 0
2, 50579, Control_c, 0, 64, 0
2, 50580, Note_on_c, 0, 65, 54
2, 50580, Note_on_c, 0, 74, 88
2, 50613, Control_c, 0, 64, 127
2, 50622, Note_on_c, 0, 65, 0
2, 50631, Note_on_c, 0, 74, 0
2, 50640, Note_on_c, 0, 75, 80
2, 50640, Note_on_c, 0, 72, 75
2, 50641, Control_c, 0, 64, 0
2, 50667, Control_c, 0, 64, 127
2, 50692, Note_on_c, 0, 72, 0
2, 50694, Note_on_c, 0, 75, 0
2, 50700, Note_on_c, 0, 65, 67
2, 50700, Note_on_c, 0, 77, 88
2, 50703, Control_c, 0, 64, 0
2, 50730, Control_c, 0, 64, 127
2, 50751, Note_on_c, 0, 77, 0
2, 50751, Note_on_c, 0, 65, 0
2, 50753, Control_c, 0, 64, 0
2, 50760, Note_on_c, 0, 79, 93
2, 50760, Note_on_c, 0, 75, 71
2, 50774, Control_c, 0, 64, 127
2, 50811, Note_on_c, 0, 75, 0
2, 50816, Note_on_c, 0, 79, 0
2, 50816, Control_c, 0, 64, 0
2, 50820, Note_on_c, 0, 65, 84
2, 50820, Note_on_c, 0, 81, 97
2, 50838, Control_c, 0, 64, 127
2, 50864, Note_on_c, 0, 65, 0
2, 50876, Note_on_c, 0, 81, 0
2, 50880, Note_on_c, 0, 82, 97
2, 50880, Control_c, 0, 64, 0
2, 50880, Note_on_c, 0, 74, 71
2, 50911, Control_c, 0, 64, 127
2, 50937, Note_on_c, 0, 74, 0
2, 50940, Note_on_c, 0, 65, 45
2, 50996, Note_on_c, 0, 65, 0
2, 51000, Note_on_c, 0, 70, 59
2, 51003, Control_c, 0, 64, 0
2, 51028, Control_c, 0, 64, 127
2, 51059, Note_on_c, 0, 70, 0
2, 51060, Note_on_c, 0, 65, 50
2, 51077, Note_on_c, 0, 82, 0
2, 51118, Note_on_c, 0, 65, 0
2, 51120, Note_on_c, 0, 77, 88
2, 51120, Note_on_c, 0, 69, 57
2, 51125, Control_c, 0, 64, 0
2, 51154, Control_c, 0, 64, 127
2, 51177, Note_on_c, 0, 69, 0
2, 51180, Note_on_c, 0, 65, 54
2, 51234, Control_c, 0, 64, 0
2, 51238, Note_on_c, 0, 65, 0
2, 51240, Note_on_c, 0, 69, 71
2, 51263, Control_c, 0, 64, 127
2, 51299, Note_on_c, 0, 69, 0
2, 51300, Note_on_c, 0, 65, 71
2, 51353, Note_on_c, 0, 77, 0
2, 51358, Note_on_c, 0, 65, 0
2, 51359, Control_c, 0, 64, 0
2, 51360, Note_on_c, 0, 74, 88
2, 51360, Note_on_c, 0, 70, 71
2, 51391, Control_c, 0, 64, 127
2, 51417, Note_on_c, 0, 70, 0
2, 51420, Note_on_c, 0, 65, 54
2, 51480, Note_on_c, 0, 70, 57
2, 51482, Note_on_c, 0, 65, 0
2, 51504, Note_on_c, 0, 74, 0
2, 51526, Note_on_c, 0, 70, 0
2, 51540, Note_on_c, 0, 65, 45
2, 51540, Note_on_c, 0, 74, 93
2, 51582, Note_on_c, 0, 65, 0
2, 51593, Note_on_c, 0, 74, 0
2, 51594, Control_c, 0, 64, 0
2, 51600, Note_on_c, 0, 75, 88
2, 51600, Note_on_c, 0, 72, 75
2, 51621, Control_c, 0, 64, 127
2, 51656, Note_on_c, 0, 75, 0
2, 51656, Control_c, 0, 64, 0
2, 51659, Note_on_c, 0, 72, 0
2, 51660, Note_on_c, 0, 77, 88
2, 51660, Note_on_c, 0, 65, 84
2, 51679, Control_c, 0, 64, 127
2, 51706, Note_on_c, 0, 65, 0
2, 51709, Control_c, 0, 64, 0
2, 51717, Note_on_c, 0, 77, 0
2, 51720, Note_on_c, 0, 79, 93
2, 51720, Note_on_c, 0, 75, 71
2, 51732, Control_c, 0, 64, 127
2, 51768, Note_on_c, 0, 75, 0
2, 51775, Note_on_c, 0, 79, 0
2, 51780, Note_on_c, 0, 65, 84
2, 51780, Note_on_c, 0, 81, 93
2, 51813, Note_on_c, 0, 65, 0
2, 51832, Control_c, 0, 64, 0
2, 51836, Note_on_c, 0, 81, 0
2, 51840, Note_on_c, 0, 82, 80
2, 51840, Note_on_c, 0, 74, 71
2, 51863, Control_c, 0, 64, 127
2, 51899, Note_on_c, 0, 74, 0
2, 51900, Note_on_c, 0, 65, 67
2, 51916, Note_on_c, 0, 82, 0
2, 51953, Note_on_c, 0, 65, 0
2, 51960, Note_on_c, 0, 70, 67
2, 52010, Control_c, 0, 64, 0
2, 52013, Note_on_c, 0, 70, 0
2, 52020, Note_on_c, 0, 65, 71
2, 52020, Note_on_c, 0, 74, 88
2, 52038, Control_c, 0, 64, 127
2, 52071, Control_c, 0, 64, 0
2, 52073, Note_on_c, 0, 65, 0
2, 52075, Note_on_c, 0, 74, 0
2, 52080, Note_on_c, 0, 69, 67
2, 52080, Note_on_c, 0, 75, 84
2, 52095, Control_c, 0, 64, 127
2, 52133, Control_c, 0, 64, 0
2, 52134, Note_on_c, 0, 69, 0
2, 52137, Note_on_c, 0, 75, 0
2, 52140, Note_on_c, 0, 77, 84
2, 52140, Note_on_c, 0, 65, 71
2, 52156, Control_c, 0, 64, 127
2, 52186, Note_on_c, 0, 65, 0
2, 52186, Control_c, 0, 64, 0
2, 52193, Note_on_c, 0, 77, 0
2, 52200, Note_on_c, 0, 79, 93
2, 52200, Note_on_c, 0, 75, 75
2, 52209, Control_c, 0, 64, 127
2, 52249, Control_c, 0, 64, 0
2, 52253, Note_on_c, 0, 75, 0
2, 52257, Note_on_c, 0, 79, 0
2, 52260, Note_on_c, 0, 65, 80
2, 52260, Note_on_c, 0, 81, 88
2, 52272, Control_c, 0, 64, 127
2, 52307, Control_c, 0, 64, 0
2, 52310, Note_on_c, 0, 65, 0
2, 52319, Note_on_c, 0, 81, 0
2, 52320, Note_on_c, 0, 82, 93
2, 52320, Note_on_c, 0, 74, 84
2, 52329, Control_c, 0, 64, 127
2, 52410, Note_on_c, 0, 74, 0
2, 52422, Note_on_c, 0, 82, 0
2, 52478, Control_c, 0, 64, 0
2, 52500, Note_on_c, 0, 74, 97
2, 52500, Note_on_c, 0, 62, 84
2, 52530, Control_c, 0, 64, 127
2, 52551, Note_on_c, 0, 62, 0
2, 52552, Control_c, 0, 64, 0
2, 52557, Note_on_c, 0, 74, 0
2, 52560, Note_on_c, 0, 63, 71
2, 52560, Note_on_c, 0, 75, 88
2, 52611, Note_on_c, 0, 75, 0
2, 52611, Note_on_c, 0, 63, 0
2, 52620, Note_on_c, 0, 65, 84
2, 52620, Note_on_c, 0, 77, 88
2, 52672, Note_on_c, 0, 77, 0
2, 52677, Note_on_c, 0, 65, 0
2, 52680, Note_on_c, 0, 79, 93
2, 52680, Note_on_c, 0, 67, 88
2, 52735, Note_on_c, 0, 79, 0
2, 52740, Note_on_c, 0, 69, 88
2, 52740, Note_on_c, 0, 81, 97
2, 52742, Note_on_c, 0, 67, 0
2, 52798, Note_on_c, 0, 81, 0
2, 52798, Note_on_c, 0, 69, 0
2, 52800, Note_on_c, 0, 82, 84
2, 52800, Note_on_c, 0, 70, 88
2, 52814, Control_c, 0, 64, 127
2, 53037, Control_c, 0, 64, 0
2, 53047, Note_on_c, 0, 70, 0
2, 53048, Note_on_c, 0, 82, 0
2, 53760, Note_on_c, 0, 82, 80
2, 53760, Note_on_c, 0, 67, 63
2, 53762, Control_c, 0, 64, 127
2, 53818, Note_on_c, 0, 67, 0
2, 53820, Note_on_c, 0, 70, 51
2, 53868, Note_on_c, 0, 70, 0
2, 53876, Note_on_c, 0, 82, 0
2, 53880, Note_on_c, 0, 80, 80
2, 53880, Note_on_c, 0, 63, 47
2, 53881, Control_c, 0, 64, 0
2, 53894, Note_on_c, 0, 80, 0
2, 53895, Note_on_c, 0, 79, 67
2, 53934, Control_c, 0, 64, 127
2, 53937, Note_on_c, 0, 63, 0
2, 53940, Note_on_c, 0, 70, 55
2, 53970, Note_on_c, 0, 79, 0
2, 53979, Note_on_c, 0, 70, 0
2, 54000, Note_on_c, 0, 77, 71
2, 54000, Note_on_c, 0, 67, 63
2, 54000, Control_c, 0, 64, 0
2, 54015, Note_on_c, 0, 77, 0
2, 54015, Note_on_c, 0, 75, 46
2, 54021, Control_c, 0, 64, 127
2, 54060, Note_on_c, 0, 70, 59
2, 54062, Note_on_c, 0, 67, 0
2, 54085, Note_on_c, 0, 70, 0
2, 54117, Control_c, 0, 64, 0
2, 54120, Note_on_c, 0, 68, 63
2, 54120, Note_on_c, 0, 74, 80
2, 54123, Note_on_c, 0, 75, 0
2, 54137, Control_c, 0, 64, 127
2, 54180, Note_on_c, 0, 70, 51
2, 54183, Note_on_c, 0, 68, 0
2, 54235, Note_on_c, 0, 70, 0
2, 54240, Note_on_c, 0, 68, 57
2, 54300, Note_on_c, 0, 70, 63
2, 54303, Note_on_c, 0, 68, 0
2, 54327, Note_on_c, 0, 74, 0
2, 54330, Note_on_c, 0, 75, 59
2, 54339, Note_on_c, 0, 70, 0
2, 54342, Note_on_c, 0, 75, 0
2, 54345, Note_on_c, 0, 77, 84
2, 54356, Control_c, 0, 64, 0
2, 54360, Note_on_c, 0, 77, 0
2, 54360, Note_on_c, 0, 75, 57
2, 54360, Note_on_c, 0, 67, 57
2, 54380, Control_c, 0, 64, 127
2, 54416, Note_on_c, 0, 67, 0
2, 54420, Note_on_c, 0, 70, 48
2, 54437, Note_on_c, 0, 70, 0
2, 54459, Note_on_c, 0, 75, 0
2, 54476, Control_c, 0, 64, 0
2, 54480, Note_on_c, 0, 68, 59
2, 54480, Note_on_c, 0, 74, 75
2, 54492, Note_on_c, 0, 74, 0
2, 54495, Note_on_c, 0, 72, 71
2, 54500, Control_c, 0, 64, 127
2, 54533, Note_on_c, 0, 68, 0
2, 54540, Note_on_c, 0, 63, 57
2, 54580, Note_on_c, 0, 63, 0
2, 54580, Note_on_c, 0, 72, 0
2, 54600, Note_on_c, 0, 68, 51
2, 54600, Note_on_c, 0, 72, 59
2, 54605, Control_c, 0, 64, 0
2, 54622, Control_c, 0, 64, 127
2, 54660, Note_on_c, 0, 68, 0
2, 54660, Note_on_c, 0, 63, 50
2, 54708, Note_on_c, 0, 63, 0
2, 54720, Note_on_c, 0, 68, 59
2, 54739, Note_on_c, 0, 72, 0
2, 54747, Note_on_c, 0, 68, 0
2, 54780, Note_on_c, 0, 75, 75
2, 54780, Note_on_c, 0, 63, 48
2, 54796, Note_on_c, 0, 63, 0
2, 54799, Note_on_c, 0, 75, 0
2, 54836, Control_c, 0, 64, 0
2, 54840, Note_on_c, 0, 68, 57
2, 54840, Note_on_c, 0, 74, 75
2, 54854, Note_on_c, 0, 74, 0
2, 54855, Control_c, 0, 64, 127
2, 54855, Note_on_c, 0, 72, 63
2, 54868, Note_on_c, 0, 72, 0
2, 54870, Note_on_c, 0, 74, 71
2, 54882, Note_on_c, 0, 74, 0
2, 54885, Note_on_c, 0, 72, 57
2, 54889, Note_on_c, 0, 68, 0
2, 54900, Note_on_c, 0, 72, 0
2, 54900, Note_on_c, 0, 63, 51
2, 54900, Note_on_c, 0, 74, 71
2, 54915, Note_on_c, 0, 72, 59
2, 54919, Note_on_c, 0, 74, 0
2, 54929, Note_on_c, 0, 72, 0
2, 54930, Note_on_c, 0, 70, 55
2, 54940, Note_on_c, 0, 63, 0
2, 54942, Note_on_c, 0, 70, 0
2, 54945, Note_on_c, 0, 72, 67
2, 54956, Note_on_c, 0, 72, 0
2, 54960, Control_c, 0, 64, 0
2, 54960, Note_on_c, 0, 70, 80
2, 54960, Note_on_c, 0, 67, 59
2, 54982, Control_c, 0, 64, 127
2, 55011, Note_on_c, 0, 67, 0
2, 55020, Note_on_c, 0, 63, 54
2, 55061, Note_on_c, 0, 63, 0
2, 55076, Note_on_c, 0, 70, 0
2, 55080, Note_on_c, 0, 67, 67
2, 55088, Control_c, 0, 64, 0
2, 55103, Control_c, 0, 64, 127
2, 55137, Note_on_c, 0, 67, 0
2, 55140, Note_on_c, 0, 63, 54
2, 55151, Note_on_c, 0, 63, 0
2, 55200, Note_on_c, 0, 63, 88
2, 55203, Control_c, 0, 64, 0
2, 55230, Note_on_c, 0, 58, 57
2, 55237, Control_c, 0, 64, 127
2, 55259, Note_on_c, 0, 58, 0
2, 55260, Note_on_c, 0, 57, 59
2, 55269, Control_c, 0, 64, 0
2, 55289, Note_on_c, 0, 57, 0
2, 55290, Note_on_c, 0, 58, 55
2, 55320, Note_on_c, 0, 60, 67
2, 55323, Note_on_c, 0, 58, 0
2, 55350, Note_on_c, 0, 58, 57
2, 55354, Note_on_c, 0, 60, 0
2, 55380, Note_on_c, 0, 57, 63
2, 55381, Note_on_c, 0, 58, 0
2, 55392, Control_c, 0, 64, 127
2, 55410, Note_on_c, 0, 58, 59
2, 55412, Note_on_c, 0, 57, 0
2, 55440, Note_on_c, 0, 58, 0
2, 55440, Note_on_c, 0, 62, 84
2, 55440, Note_on_c, 0, 60, 75
2, 55441, Note_on_c, 0, 63, 0
2, 55451, Control_c, 0, 64, 0
2, 55470, Note_on_c, 0, 58, 54
2, 55490, Note_on_c, 0, 60, 0
2, 55500, Note_on_c, 0, 57, 75
2, 55502, Note_on_c, 0, 58, 0
2, 55505, Control_c, 0, 64, 127
2, 55528, Note_on_c, 0, 57, 0
2, 55530, Note_on_c, 0, 58, 67
2, 55544, Note_on_c, 0, 62, 0
2, 55548, Note_on_c, 0, 58, 0
2, 55560, Note_on_c, 0, 68, 88
2, 55566, Control_c, 0, 64, 0
2, 55590, Note_on_c, 0, 58, 63
2, 55602, Control_c, 0, 64, 127
2, 55620, Note_on_c, 0, 58, 0
2, 55620, Note_on_c, 0, 57, 67
2, 55626, Control_c, 0, 64, 0
2, 55650, Note_on_c, 0, 58, 59
2, 55652, Note_on_c, 0, 57, 0
2, 55680, Note_on_c, 0, 60, 67
2, 55681, Note_on_c, 0, 58, 0
2, 55710, Note_on_c, 0, 58, 57
2, 55715, Note_on_c, 0, 60, 0
2, 55720, Control_c, 0, 64, 127
2, 55740, Note_on_c, 0, 58, 0
2, 55740, Note_on_c, 0, 57, 67
2, 55754, Control_c, 0, 64, 0
2, 55769, Control_c, 0, 64, 127
2, 55770, Note_on_c, 0, 58, 59
2, 55771, Note_on_c, 0, 57, 0
2, 55792, Note_on_c, 0, 68, 0
2, 55798, Control_c, 0, 64, 0
2, 55799, Note_on_c, 0, 58, 0
2, 55800, Note_on_c, 0, 67, 88
2, 55800, Note_on_c, 0, 60, 75
2, 55827, Control_c, 0, 64, 127
2, 55830, Note_on_c, 0, 58, 54
2, 55834, Note_on_c, 0, 60, 0
2, 55860, Note_on_c, 0, 58, 0
2, 55860, Control_c, 0, 64, 0
2, 55860, Note_on_c, 0, 57, 75
2, 55877, Control_c, 0, 64, 127
2, 55887, Note_on_c, 0, 57, 0
2, 55890, Note_on_c, 0, 58, 59
2, 55913, Note_on_c, 0, 58, 0
2, 55915, Note_on_c, 0, 67, 0
2, 55920, Note_on_c, 0, 73, 84
2, 55925, Control_c, 0, 64, 0
2, 55950, Note_on_c, 0, 63, 54
2, 55952, Control_c, 0, 64, 127
2, 55980, Note_on_c, 0, 63, 0
2, 55980, Note_on_c, 0, 62, 71
2, 56006, Note_on_c, 0, 62, 0
2, 56010, Note_on_c, 0, 63, 52
2, 56033, Note_on_c, 0, 73, 0
2, 56034, Note_on_c, 0, 63, 0
2, 56040, Note_on_c, 0, 72, 88
2, 56041, Control_c, 0, 64, 0
2, 56068, Control_c, 0, 64, 127
2, 56070, Note_on_c, 0, 63, 52
2, 56100, Note_on_c, 0, 62, 63
2, 56102, Note_on_c, 0, 63, 0
2, 56125, Note_on_c, 0, 62, 0
2, 56125, Control_c, 0, 64, 0
2, 56130, Note_on_c, 0, 63, 55
2, 56140, Control_c, 0, 64, 127
2, 56158, Note_on_c, 0, 72, 0
2, 56160, Note_on_c, 0, 63, 0
2, 56160, Note_on_c, 0, 68, 88
2, 56161, Control_c, 0, 64, 0
2, 56190, Note_on_c, 0, 63, 36
2, 56192, Control_c, 0, 64, 127
2, 56219, Note_on_c, 0, 63, 0
2, 56220, Note_on_c, 0, 62, 71
2, 56247, Note_on_c, 0, 62, 0
2, 56250, Note_on_c, 0, 63, 41
2, 56265, Note_on_c, 0, 63, 0
2, 56272, Note_on_c, 0, 68, 0
2, 56274, Control_c, 0, 64, 0
2, 56280, Note_on_c, 0, 67, 88
2, 56280, Note_on_c, 0, 63, 71
2, 56297, Control_c, 0, 64, 127
2, 56471, Note_on_c, 0, 63, 0
2, 56473, Note_on_c, 0, 67, 0
2, 56490, Note_on_c, 0, 65, 71
2, 56490, Note_on_c, 0, 68, 63
2, 56504, Note_on_c, 0, 68, 0
2, 56504, Note_on_c, 0, 65, 0
2, 56505, Note_on_c, 0, 67, 63
2, 56505, Note_on_c, 0, 70, 67
2, 56517, Note_on_c, 0, 67, 0
2, 56518, Note_on_c, 0, 70, 0
2, 56519, Control_c, 0, 64, 0
2, 56520, Note_on_c, 0, 62, 57
2, 56520, Note_on_c, 0, 65, 84
2, 56543, Control_c, 0, 64, 127
2, 56579, Note_on_c, 0, 62, 0
2, 56581, Note_on_c, 0, 65, 0
2, 56635, Control_c, 0, 64, 0
2, 56640, Note_on_c, 0, 70, 80
2, 56640, Note_on_c, 0, 82, 102
2, 56657, Control_c, 0, 64, 127
2, 56746, Note_on_c, 0, 70, 0
2, 56760, Note_on_c, 0, 68, 80
2, 56760, Note_on_c, 0, 80, 80
2, 56761, Note_on_c, 0, 82, 0
2, 56766, Control_c, 0, 64, 0
2, 56770, Note_on_c, 0, 68, 0
2, 56774, Note_on_c, 0, 80, 0
2, 56775, Note_on_c, 0, 67, 57
2, 56775, Note_on_c, 0, 79, 75
2, 56822, Control_c, 0, 64, 127
2, 56877, Note_on_c, 0, 79, 0
2, 56877, Note_on_c, 0, 67, 0
2, 56878, Control_c, 0, 64, 0
2, 56880, Note_on_c, 0, 65, 88
2, 56880, Note_on_c, 0, 77, 75
2, 56892, Note_on_c, 0, 77, 0
2, 56893, Note_on_c, 0, 65, 0
2, 56895, Note_on_c, 0, 75, 84
2, 56895, Note_on_c, 0, 63, 59
2, 57000, Note_on_c, 0, 74, 84
2, 57000, Note_on_c, 0, 62, 84
2, 57001, Note_on_c, 0, 63, 0
2, 57005, Note_on_c, 0, 75, 0
2, 57007, Control_c, 0, 64, 127
2, 57197, Note_on_c, 0, 62, 0
2, 57204, Note_on_c, 0, 74, 0
2, 57210, Note_on_c, 0, 63, 63
2, 57210, Note_on_c, 0, 75, 63
2, 57222, Note_on_c, 0, 75, 0
2, 57225, Note_on_c, 0, 63, 0
2, 57225, Note_on_c, 0, 65, 59
2, 57225, Note_on_c, 0, 77, 84
2, 57230, Control_c, 0, 64, 0
2, 57237, Note_on_c, 0, 77, 0
2, 57240, Note_on_c, 0, 63, 67
2, 57240, Note_on_c, 0, 75, 84
2, 57241, Note_on_c, 0, 65, 0
2, 57254, Control_c, 0, 64, 127
2, 57319, Note_on_c, 0, 63, 0
2, 57330, Note_on_c, 0, 75, 0
2, 57358, Control_c, 0, 64, 0
2, 57360, Note_on_c, 0, 62, 71
2, 57360, Note_on_c, 0, 74, 71
2, 57370, Note_on_c, 0, 62, 0
2, 57371, Note_on_c, 0, 74, 0
2, 57375, Note_on_c, 0, 72, 75
2, 57415, Control_c, 0, 64, 127
2, 57458, Note_on_c, 0, 72, 0
2, 57480, Control_c, 0, 64, 0
2, 57480, Note_on_c, 0, 72, 88
2, 57480, Note_on_c, 0, 60, 75
2, 57497, Control_c, 0, 64, 127
2, 57615, Note_on_c, 0, 60, 0
2, 57625, Note_on_c, 0, 72, 0
2, 57656, Control_c, 0, 64, 0
2, 57660, Note_on_c, 0, 75, 80
2, 57660, Note_on_c, 0, 63, 80
2, 57669, Control_c, 0, 64, 127
2, 57680, Note_on_c, 0, 63, 0
2, 57685, Note_on_c, 0, 75, 0
2, 57712, Control_c, 0, 64, 0
2, 57720, Note_on_c, 0, 62, 88
2, 57720, Note_on_c, 0, 74, 88
2, 57732, Control_c, 0, 64, 127
2, 57734, Note_on_c, 0, 74, 0
2, 57735, Note_on_c, 0, 60, 71
2, 57735, Note_on_c, 0, 72, 75
2, 57736, Note_on_c, 0, 62, 0
2, 57747, Note_on_c, 0, 72, 0
2, 57749, Note_on_c, 0, 60, 0
2, 57750, Note_on_c, 0, 62, 71
2, 57750, Note_on_c, 0, 74, 75
2, 57761, Note_on_c, 0, 74, 0
2, 57765, Note_on_c, 0, 60, 67
2, 57765, Note_on_c, 0, 72, 67
2, 57767, Note_on_c, 0, 62, 0
2, 57776, Note_on_c, 0, 72, 0
2, 57779, Note_on_c, 0, 60, 0
2, 57780, Note_on_c, 0, 74, 80
2, 57780, Note_on_c, 0, 62, 71
2, 57793, Note_on_c, 0, 74, 0
2, 57795, Note_on_c, 0, 72, 75
2, 57795, Note_on_c, 0, 60, 57
2, 57796, Note_on_c, 0, 62, 0
2, 57809, Note_on_c, 0, 60, 0
2, 57809, Note_on_c, 0, 72, 0
2, 57810, Note_on_c, 0, 70, 55
2, 57810, Note_on_c, 0, 58, 67
2, 57816, Control_c, 0, 64, 0
2, 57820, Note_on_c, 0, 70, 0
2, 57825, Note_on_c, 0, 72, 75
2, 57825, Note_on_c, 0, 60, 71
2, 57827, Note_on_c, 0, 58, 0
2, 57834, Note_on_c, 0, 60, 0
2, 57836, Note_on_c, 0, 72, 0
2, 57840, Note_on_c, 0, 70, 84
2, 57840, Note_on_c, 0, 58, 84
2, 57862, Control_c, 0, 64, 127
2, 57922, Note_on_c, 0, 58, 0
2, 57928, Note_on_c, 0, 70, 0
2, 57966, Control_c, 0, 64, 0
2, 58080, Note_on_c, 0, 63, 80
2, 58080, Note_on_c, 0, 75, 80
2, 58088, Control_c, 0, 64, 127
2, 58270, Note_on_c, 0, 75, 0
2, 58272, Note_on_c, 0, 63, 0
2, 58319, Control_c, 0, 64, 0
2, 58320, Note_on_c, 0, 74, 84
2, 58320, Note_on_c, 0, 62, 84
2, 58337, Control_c, 0, 64, 127
2, 58374, Note_on_c, 0, 62, 0
2, 58381, Note_on_c, 0, 74, 0
2, 58440, Note_on_c, 0, 67, 88
2, 58440, Note_on_c, 0, 79, 97
2, 58444, Control_c, 0, 64, 0
2, 58464, Control_c, 0, 64, 127
2, 58677, Note_on_c, 0, 67, 0
2, 58680, Note_on_c, 0, 79, 0
2, 58680, Note_on_c, 0, 65, 84
2, 58680, Note_on_c, 0, 77, 84
2, 58686, Control_c, 0, 64, 0
2, 58705, Control_c, 0, 64, 127
2, 58764, Note_on_c, 0, 65, 0
2, 58772, Note_on_c, 0, 77, 0
2, 58800, Note_on_c, 0, 77, 75
2, 58800, Note_on_c, 0, 65, 84
2, 58801, Control_c, 0, 64, 0
2, 58810, Note_on_c, 0, 65, 0
2, 58813, Note_on_c, 0, 77, 0
2, 58815, Note_on_c, 0, 63, 71
2, 58815, Note_on_c, 0, 75, 67
2, 58857, Control_c, 0, 64, 127
2, 58920, Control_c, 0, 64, 0
2, 58920, Note_on_c, 0, 62, 71
2, 58920, Note_on_c, 0, 74, 84
2, 58922, Note_on_c, 0, 75, 0
2, 58924, Note_on_c, 0, 63, 0
2, 58938, Control_c, 0, 64, 127
2, 59012, Note_on_c, 0, 62, 0
2, 59019, Note_on_c, 0, 74, 0
2, 59032, Control_c, 0, 64, 0
2, 59040, Note_on_c, 0, 62, 75
2, 59040, Note_on_c, 0, 74, 84
2, 59053, Note_on_c, 0, 74, 0
2, 59055, Note_on_c, 0, 62, 0
2, 59055, Note_on_c, 0, 60, 67
2, 59055, Note_on_c, 0, 72, 71
2, 59068, Note_on_c, 0, 72, 0
2, 59070, Note_on_c, 0, 62, 80
2, 59070, Note_on_c, 0, 74, 84
2, 59071, Note_on_c, 0, 60, 0
2, 59084, Note_on_c, 0, 74, 0
2, 59085, Note_on_c, 0, 60, 71
2, 59085, Note_on_c, 0, 72, 63
2, 59086, Note_on_c, 0, 62, 0
2, 59098, Note_on_c, 0, 72, 0
2, 59099, Note_on_c, 0, 60, 0
2, 59100, Note_on_c, 0, 62, 63
2, 59100, Note_on_c, 0, 74, 75
2, 59115, Note_on_c, 0, 72, 88
2, 59115, Note_on_c, 0, 60, 63
2, 59117, Note_on_c, 0, 74, 0
2, 59120, Note_on_c, 0, 62, 0
2, 59130, Note_on_c, 0, 58, 75
2, 59130, Note_on_c, 0, 70, 71
2, 59132, Note_on_c, 0, 60, 0
2, 59133, Note_on_c, 0, 72, 0
2, 59140, Note_on_c, 0, 70, 0
2, 59145, Note_on_c, 0, 72, 55
2, 59151, Note_on_c, 0, 58, 0
2, 59157, Note_on_c, 0, 72, 0
2, 59160, Note_on_c, 0, 60, 71
2, 59160, Note_on_c, 0, 70, 88
2, 59160, Note_on_c, 0, 58, 84
2, 59166, Note_on_c, 0, 60, 0
2, 59188, Control_c, 0, 64, 127
2, 59276, Note_on_c, 0, 58, 0
2, 59277, Note_on_c, 0, 70, 0
2, 59284, Control_c, 0, 64, 0
2, 59520, Note_on_c, 0, 57, 71
2, 59523, Control_c, 0, 64, 127
2, 59547, Note_on_c, 0, 57, 0
2, 59550, Note_on_c, 0, 65, 51
2, 59575, Note_on_c, 0, 65, 0
2, 59580, Note_on_c, 0, 77, 75
2, 59580, Note_on_c, 0, 57, 57
2, 59605, Note_on_c, 0, 57, 0
2, 59610, Note_on_c, 0, 65, 57
2, 59621, Note_on_c, 0, 77, 0
2, 59634, Note_on_c, 0, 65, 0
2, 59640, Note_on_c, 0, 72, 71
2, 59640, Note_on_c, 0, 57, 42
2, 59663, Note_on_c, 0, 57, 0
2, 59670, Note_on_c, 0, 65, 57
2, 59685, Note_on_c, 0, 72, 0
2, 59693, Note_on_c, 0, 65, 0
2, 59700, Note_on_c, 0, 57, 57
2, 59700, Note_on_c, 0, 75, 71
2, 59725, Note_on_c, 0, 57, 0
2, 59730, Note_on_c, 0, 65, 59
2, 59733, Note_on_c, 0, 75, 0
2, 59749, Note_on_c, 0, 65, 0
2, 59760, Note_on_c, 0, 58, 46
2, 59760, Note_on_c, 0, 74, 67
2, 59761, Control_c, 0, 64, 0
2, 59778, Control_c, 0, 64, 127
2, 59783, Note_on_c, 0, 74, 0
2, 59790, Note_on_c, 0, 65, 59
2, 59790, Note_on_c, 0, 70, 55
2, 59793, Note_on_c, 0, 58, 0
2, 59802, Note_on_c, 0, 70, 0
2, 59812, Note_on_c, 0, 65, 0
2, 59820, Note_on_c, 0, 62, 59
2, 59820, Note_on_c, 0, 77, 67
2, 59829, Note_on_c, 0, 77, 0
2, 59833, Note_on_c, 0, 62, 0
2, 59850, Note_on_c, 0, 58, 57
2, 59850, Note_on_c, 0, 77, 71
2, 59860, Note_on_c, 0, 77, 0
2, 59865, Note_on_c, 0, 58, 0
2, 59879, Control_c, 0, 64, 0
2, 59880, Note_on_c, 0, 57, 63
2, 59899, Control_c, 0, 64, 127
2, 59906, Note_on_c, 0, 57, 0
2, 59910, Note_on_c, 0, 65, 71
2, 59936, Note_on_c, 0, 65, 0
2, 59940, Note_on_c, 0, 77, 84
2, 59940, Note_on_c, 0, 57, 57
2, 59963, Note_on_c, 0, 57, 0
2, 59964, Note_on_c, 0, 77, 0
2, 59970, Note_on_c, 0, 65, 57
2, 59985, Note_on_c, 0, 65, 0
2, 60000, Note_on_c, 0, 72, 80
2, 60000, Note_on_c, 0, 57, 63
2, 60024, Note_on_c, 0, 57, 0
2, 60030, Note_on_c, 0, 65, 59
2, 60042, Note_on_c, 0, 72, 0
2, 60047, Note_on_c, 0, 65, 0
2, 60060, Note_on_c, 0, 75, 75
2, 60060, Note_on_c, 0, 57, 57
2, 60083, Note_on_c, 0, 57, 0
2, 60089, Note_on_c, 0, 75, 0
2, 60090, Note_on_c, 0, 65, 57
2, 60106, Note_on_c, 0, 65, 0
2, 60113, Control_c, 0, 64, 0
2, 60120, Note_on_c, 0, 58, 51
2, 60120, Note_on_c, 0, 74, 71
2, 60131, Control_c, 0, 64, 127
2, 60140, Note_on_c, 0, 74, 0
2, 60149, Note_on_c, 0, 58, 0
2, 60150, Note_on_c, 0, 65, 59
2, 60150, Note_on_c, 0, 70, 48
2, 60162, Note_on_c, 0, 70, 0
2, 60166, Note_on_c, 0, 65, 0
2, 60180, Note_on_c, 0, 62, 57
2, 60180, Note_on_c, 0, 77, 71
2, 60192, Note_on_c, 0, 77, 0
2, 60192, Note_on_c, 0, 62, 0
2, 60210, Note_on_c, 0, 58, 63
2, 60210, Note_on_c, 0, 77, 71
2, 60221, Note_on_c, 0, 77, 0
2, 60223, Note_on_c, 0, 58, 0
2, 60239, Control_c, 0, 64, 0
2, 60300, Note_on_c, 0, 77, 75
2, 60300, Note_on_c, 0, 65, 80
2, 60327, Note_on_c, 0, 65, 0
2, 60330, Note_on_c, 0, 77, 0
2, 60330, Note_on_c, 0, 63, 57
2, 60330, Note_on_c, 0, 75, 75
2, 60349, Note_on_c, 0, 75, 0
2, 60352, Note_on_c, 0, 63, 0
2, 60420, Note_on_c, 0, 75, 84
2, 60420, Note_on_c, 0, 63, 63
2, 60450, Note_on_c, 0, 63, 0
2, 60450, Note_on_c, 0, 74, 84
2, 60450, Note_on_c, 0, 62, 75
2, 60451, Note_on_c, 0, 75, 0
2, 60468, Note_on_c, 0, 74, 0
2, 60470, Note_on_c, 0, 62, 0
2, 60540, Note_on_c, 0, 62, 84
2, 60540, Note_on_c, 0, 74, 84
2, 60568, Note_on_c, 0, 62, 0
2, 60569, Note_on_c, 0, 74, 0
2, 60570, Note_on_c, 0, 72, 80
2, 60570, Note_on_c, 0, 60, 71
2, 60583, Note_on_c, 0, 60, 0
2, 60584, Note_on_c, 0, 72, 0
2, 60630, Note_on_c, 0, 65, 75
2, 60630, Note_on_c, 0, 77, 75
2, 60643, Control_c, 0, 64, 127
2, 60660, Note_on_c, 0, 77, 0
2, 60660, Note_on_c, 0, 79, 88
2, 60660, Note_on_c, 0, 67, 88
2, 60663, Control_c, 0, 64, 0
2, 60664, Note_on_c, 0, 65, 0
2, 60681, Control_c, 0, 64, 127
2, 60689, Note_on_c, 0, 67, 0
2, 60690, Note_on_c, 0, 81, 88
2, 60690, Note_on_c, 0, 69, 84
2, 60693, Note_on_c, 0, 79, 0
2, 60702, Note_on_c, 0, 81, 0
2, 60713, Note_on_c, 0, 69, 0
2, 60718, Control_c, 0, 64, 0
2, 60720, Note_on_c, 0, 82, 84
2, 60720, Note_on_c, 0, 70, 59
2, 60747, Note_on_c, 0, 82, 0
2, 60750, Note_on_c, 0, 70, 0
2, 60750, Note_on_c, 0, 72, 59
2, 60750, Note_on_c, 0, 84, 80
2, 60764, Control_c, 0, 64, 127
2, 60776, Note_on_c, 0, 84, 0
2, 60779, Note_on_c, 0, 72, 0
2, 60780, Note_on_c, 0, 86, 88
2, 60780, Note_on_c, 0, 74, 71
2, 60802, Control_c, 0, 64, 0
2, 60804, Note_on_c, 0, 74, 0
2, 60804, Note_on_c, 0, 86, 0
2, 60810, Note_on_c, 0, 81, 88
2, 60810, Note_on_c, 0, 69, 51
2, 60818, Control_c, 0, 64, 127
2, 60820, Note_on_c, 0, 69, 0
2, 60820, Note_on_c, 0, 81, 0
2, 60839, Control_c, 0, 64, 0
2, 60840, Note_on_c, 0, 82, 88
2, 60840, Note_on_c, 0, 70, 59
2, 60855, Control_c, 0, 64, 127
2, 60866, Note_on_c, 0, 82, 0
2, 60867, Note_on_c, 0, 70, 0
2, 60870, Note_on_c, 0, 65, 71
2, 60870, Note_on_c, 0, 77, 84
2, 60895, Note_on_c, 0, 65, 0
2, 60900, Note_on_c, 0, 77, 0
2, 60900, Note_on_c, 0, 62, 80
2, 60900, Note_on_c, 0, 74, 84
2, 60906, Note_on_c, 0, 62, 0
2, 60911, Note_on_c, 0, 74, 0
2, 60930, Note_on_c, 0, 70, 80
2, 60930, Note_on_c, 0, 58, 51
2, 60941, Note_on_c, 0, 58, 0
2, 60943, Note_on_c, 0, 70, 0
2, 60957, Control_c, 0, 64, 0
2, 60960, Note_on_c, 0, 53, 71
2, 60960, Note_on_c, 0, 65, 84
2, 60975, Control_c, 0, 64, 127
2, 61075, Note_on_c, 0, 65, 0
2, 61081, Note_on_c, 0, 53, 0
2, 61086, Control_c, 0, 64, 0
2, 61680, Note_on_c, 0, 79, 59
2, 61680, Note_on_c, 0, 75, 57
2, 61680, Note_on_c, 0, 63, 55
2, 61680, Note_on_c, 0, 67, 54
2, 61682, Control_c, 0, 64, 127
2, 61732, Note_on_c, 0, 63, 0
2, 61734, Note_on_c, 0, 67, 0
2, 61734, Note_on_c, 0, 75, 0
2, 61735, Note_on_c, 0, 79, 0
2, 61739, Control_c, 0, 64, 0
2, 61800, Note_on_c, 0, 62, 59
2, 61800, Note_on_c, 0, 74, 75
2, 61800, Note_on_c, 0, 77, 59
2, 61800, Note_on_c, 0, 65, 67
2, 61814, Control_c, 0, 64, 127
2, 61848, Note_on_c, 0, 74, 0
2, 61848, Note_on_c, 0, 62, 0
2, 61850, Note_on_c, 0, 77, 0
2, 61851, Note_on_c, 0, 65, 0
2, 61865, Control_c, 0, 64, 0
2, 61920, Note_on_c, 0, 81, 75
2, 61920, Note_on_c, 0, 75, 63
2, 61920, Note_on_c, 0, 72, 71
2, 61920, Note_on_c, 0, 69, 59
2, 61920, Note_on_c, 0, 63, 50
2, 61920, Note_on_c, 0, 60, 52
2, 61934, Control_c, 0, 64, 127
2, 61963, Note_on_c, 0, 63, 0
2, 61966, Note_on_c, 0, 60, 0
2, 61968, Note_on_c, 0, 69, 0
2, 61970, Note_on_c, 0, 81, 0
2, 61971, Note_on_c, 0, 75, 0
2, 61972, Note_on_c, 0, 72, 0
2, 62027, Control_c, 0, 64, 0
2, 62040, Note_on_c, 0, 82, 67
2, 62040, Note_on_c, 0, 77, 75
2, 62040, Note_on_c, 0, 74, 75
2, 62040, Note_on_c, 0, 70, 57
2, 62040, Note_on_c, 0, 62, 67
2, 62040, Note_on_c, 0, 65, 67
2, 62050, Control_c, 0, 64, 127
2, 62063, Note_on_c, 0, 65, 0
2, 62065, Note_on_c, 0, 62, 0
2, 62066, Note_on_c, 0, 70, 0
2, 62071, Note_on_c, 0, 82, 0
2, 62075, Note_on_c, 0, 77, 0
2, 62079, Note_on_c, 0, 74, 0
2, 62096, Control_c, 0, 64, 0
2, 62100, Note_on_c, 0, 77, 84
2, 62116, Control_c, 0, 64, 127
2, 62155, Control_c, 0, 64, 0
2, 62156, Note_on_c, 0, 77, 0
2, 62160, Note_on_c, 0, 76, 71
2, 62171, Control_c, 0, 64, 127
2, 62192, Note_on_c, 0, 76, 0
2, 62216, Control_c, 0, 64, 0
2, 62220, Note_on_c, 0, 75, 84
2, 62229, Control_c, 0, 64, 127
2, 62235, Note_on_c, 0, 75, 0
2, 62275, Control_c, 0, 64, 0
2, 62280, Note_on_c, 0, 87, 84
2, 62280, Note_on_c, 0, 72, 71
2, 62289, Control_c, 0, 64, 127
2, 62299, Note_on_c, 0, 87, 0
2, 62336, Note_on_c, 0, 72, 0
2, 62337, Control_c, 0, 64, 0
2, 62340, Note_on_c, 0, 86, 93
2, 62340, Note_on_c, 0, 75, 71
2, 62353, Control_c, 0, 64, 127
2, 62355, Note_on_c, 0, 84, 75
2, 62358, Note_on_c, 0, 86, 0
2, 62364, Note_on_c, 0, 75, 0
2, 62370, Note_on_c, 0, 82, 57
2, 62372, Note_on_c, 0, 84, 0
2, 62383, Note_on_c, 0, 82, 0
2, 62385, Note_on_c, 0, 81, 71
2, 62396, Note_on_c, 0, 81, 0
2, 62396, Control_c, 0, 64, 0
2, 62400, Note_on_c, 0, 82, 93
2, 62400, Note_on_c, 0, 74, 71
2, 62415, Control_c, 0, 64, 127
2, 62435, Note_on_c, 0, 82, 0
2, 62437, Note_on_c, 0, 74, 0
2, 62460, Note_on_c, 0, 77, 67
2, 62463, Control_c, 0, 64, 0
2, 62484, Control_c, 0, 64, 127
2, 62517, Control_c, 0, 64, 0
2, 62520, Note_on_c, 0, 76, 63
2, 62521, Note_on_c, 0, 77, 0
2, 62533, Control_c, 0, 64, 127
2, 62575, Control_c, 0, 64, 0
2, 62579, Note_on_c, 0, 76, 0
2, 62580, Note_on_c, 0, 75, 57
2, 62589, Control_c, 0, 64, 127
2, 62606, Note_on_c, 0, 75, 0
2, 62635, Control_c, 0, 64, 0
2, 62640, Note_on_c, 0, 72, 71
2, 62640, Note_on_c, 0, 87, 93
2, 62652, Control_c, 0, 64, 127
2, 62666, Note_on_c, 0, 87, 0
2, 62680, Note_on_c, 0, 72, 0
2, 62700, Control_c, 0, 64, 0
2, 62700, Note_on_c, 0, 86, 88
2, 62700, Note_on_c, 0, 75, 63
2, 62715, Note_on_c, 0, 84, 71
2, 62716, Control_c, 0, 64, 127
2, 62719, Note_on_c, 0, 86, 0
2, 62730, Note_on_c, 0, 82, 59
2, 62733, Note_on_c, 0, 84, 0
2, 62734, Note_on_c, 0, 75, 0
2, 62743, Note_on_c, 0, 82, 0
2, 62745, Note_on_c, 0, 81, 75
2, 62755, Note_on_c, 0, 81, 0
2, 62760, Control_c, 0, 64, 0
2, 62760, Note_on_c, 0, 82, 93
2, 62760, Note_on_c, 0, 74, 71
2, 62776, Control_c, 0, 64, 127
2, 62782, Note_on_c, 0, 74, 0
2, 62799, Note_on_c, 0, 82, 0
2, 62818, Control_c, 0, 64, 0
2, 62820, Note_on_c, 0, 75, 50
2, 62820, Note_on_c, 0, 80, 84
2, 62820, Note_on_c, 0, 72, 54
2, 62834, Control_c, 0, 64, 127
2, 62842, Note_on_c, 0, 72, 0
2, 62850, Note_on_c, 0, 75, 0
2, 62853, Note_on_c, 0, 80, 0
2, 62880, Note_on_c, 0, 74, 52
2, 62880, Note_on_c, 0, 79, 75
2, 62880, Note_on_c, 0, 70, 51
2, 62881, Control_c, 0, 64, 0
2, 62897, Control_c, 0, 64, 127
2, 62903, Note_on_c, 0, 79, 0
2, 62905, Note_on_c, 0, 70, 0
2, 62906, Note_on_c, 0, 74, 0
2, 62940, Note_on_c, 0, 68, 55
2, 62940, Note_on_c, 0, 72, 63
2, 62940, Note_on_c, 0, 77, 75
2, 62962, Note_on_c, 0, 68, 0
2, 62964, Note_on_c, 0, 72, 0
2, 62967, Note_on_c, 0, 77, 0
2, 63000, Note_on_c, 0, 67, 57
2, 63000, Note_on_c, 0, 70, 59
2, 63000, Note_on_c, 0, 75, 63
2, 63003, Control_c, 0, 64, 0
2, 63019, Control_c, 0, 64, 127
2, 63021, Note_on_c, 0, 75, 0
2, 63023, Note_on_c, 0, 67, 0
2, 63025, Note_on_c, 0, 70, 0
2, 63060, Note_on_c, 0, 68, 51
2, 63060, Note_on_c, 0, 65, 54
2, 63060, Note_on_c, 0, 74, 84
2, 63061, Control_c, 0, 64, 0
2, 63074, Note_on_c, 0, 65, 0
2, 63074, Note_on_c, 0, 68, 0
2, 63076, Control_c, 0, 64, 127
2, 63082, Note_on_c, 0, 74, 0
2, 63120, Control_c, 0, 64, 0
2, 63120, Note_on_c, 0, 67, 59
2, 63120, Note_on_c, 0, 73, 71
2, 63120, Note_on_c, 0, 64, 43
2, 63136, Control_c, 0, 64, 127
2, 63167, Note_on_c, 0, 73, 0
2, 63180, Note_on_c, 0, 67, 0
2, 63180, Note_on_c, 0, 70, 59
2, 63219, Note_on_c, 0, 70, 0
2, 63238, Control_c, 0, 64, 0
2, 63240, Note_on_c, 0, 67, 63
2, 63240, Note_on_c, 0, 72, 84
2, 63253, Control_c, 0, 64, 127
2, 63278, Note_on_c, 0, 72, 0
2, 63300, Note_on_c, 0, 70, 52
2, 63300, Note_on_c, 0, 84, 84
2, 63301, Note_on_c, 0, 67, 0
2, 63322, Note_on_c, 0, 84, 0
2, 63349, Note_on_c, 0, 64, 0
2, 63357, Note_on_c, 0, 70, 0
2, 63360, Note_on_c, 0, 67, 59
2, 63360, Note_on_c, 0, 84, 88
2, 63395, Note_on_c, 0, 84, 0
2, 63420, Note_on_c, 0, 70, 63
2, 63420, Note_on_c, 0, 84, 80
2, 63423, Note_on_c, 0, 67, 0
2, 63436, Note_on_c, 0, 70, 0
2, 63443, Note_on_c, 0, 84, 0
2, 63479, Control_c, 0, 64, 0
2, 63480, Note_on_c, 0, 84, 84
2, 63480, Note_on_c, 0, 68, 59
2, 63496, Control_c, 0, 64, 127
2, 63540, Note_on_c, 0, 72, 59
2, 63544, Note_on_c, 0, 84, 0
2, 63545, Note_on_c, 0, 68, 0
2, 63570, Note_on_c, 0, 72, 0
2, 63570, Note_on_c, 0, 80, 80
2, 63585, Note_on_c, 0, 80, 0
2, 63600, Note_on_c, 0, 77, 88
2, 63600, Note_on_c, 0, 68, 57
2, 63601, Control_c, 0, 64, 0
2, 63619, Control_c, 0, 64, 127
2, 63641, Note_on_c, 0, 77, 0
2, 63651, Note_on_c, 0, 68, 0
2, 63660, Note_on_c, 0, 72, 54
2, 63660, Note_on_c, 0, 84, 84
2, 63683, Note_on_c, 0, 84, 0
2, 63697, Note_on_c, 0, 72, 0
2, 63720, Note_on_c, 0, 80, 93
2, 63720, Note_on_c, 0, 68, 57
2, 63771, Note_on_c, 0, 68, 0
2, 63780, Note_on_c, 0, 72, 67
2, 63780, Note_on_c, 0, 77, 84
2, 63782, Note_on_c, 0, 80, 0
2, 63792, Note_on_c, 0, 72, 0
2, 63793, Note_on_c, 0, 77, 0
2, 63838, Control_c, 0, 64, 0
2, 63840, Note_on_c, 0, 71, 84
2, 63840, Note_on_c, 0, 65, 59
2, 63845, Control_c, 0, 64, 127
2, 63900, Note_on_c, 0, 68, 59
2, 63902, Note_on_c, 0, 65, 0
2, 63912, Note_on_c, 0, 71, 0
2, 63917, Note_on_c, 0, 68, 0
2, 63956, Control_c, 0, 64, 0
2, 63960, Note_on_c, 0, 70, 84
2, 63960, Note_on_c, 0, 65, 71
2, 63970, Control_c, 0, 64, 127
2, 63980, Note_on_c, 0, 70, 0
2, 64015, Note_on_c, 0, 65, 0
2, 64020, Note_on_c, 0, 82, 84
2, 64020, Note_on_c, 0, 68, 63
2, 64050, Note_on_c, 0, 68, 0
2, 64052, Note_on_c, 0, 82, 0
2, 64080, Note_on_c, 0, 65, 75
2, 64080, Note_on_c, 0, 82, 93
2, 64110, Note_on_c, 0, 82, 0
2, 64124, Note_on_c, 0, 65, 0
2, 64140, Note_on_c, 0, 68, 67
2, 64140, Note_on_c, 0, 82, 97
2, 64153, Note_on_c, 0, 68, 0
2, 64155, Note_on_c, 0, 82, 0
2, 64200, Note_on_c, 0, 82, 88
2, 64200, Note_on_c, 0, 67, 67
2, 64200, Control_c, 0, 64, 0
2, 64218, Control_c, 0, 64, 127
2, 64259, Note_on_c, 0, 82, 0
2, 64260, Note_on_c, 0, 70, 59
2, 64265, Note_on_c, 0, 67, 0
2, 64286, Note_on_c, 0, 70, 0
2, 64290, Note_on_c, 0, 79, 84
2, 64305, Note_on_c, 0, 79, 0
2, 64318, Control_c, 0, 64, 0
2, 64320, Note_on_c, 0, 75, 88
2, 64320, Note_on_c, 0, 67, 67
2, 64333, Control_c, 0, 64, 127
2, 64351, Note_on_c, 0, 75, 0
2, 64371, Note_on_c, 0, 67, 0
2, 64380, Note_on_c, 0, 82, 80
2, 64380, Note_on_c, 0, 70, 59
2, 64404, Note_on_c, 0, 82, 0
2, 64405, Note_on_c, 0, 70, 0
2, 64440, Note_on_c, 0, 79, 84
2, 64440, Note_on_c, 0, 67, 59
2, 64497, Note_on_c, 0, 67, 0
2, 64497, Note_on_c, 0, 79, 0
2, 64500, Note_on_c, 0, 75, 71
2, 64500, Note_on_c, 0, 70, 57
2, 64514, Note_on_c, 0, 75, 0
2, 64515, Note_on_c, 0, 70, 0
2, 64554, Control_c, 0, 64, 0
2, 64560, Note_on_c, 0, 75, 84
2, 64560, Note_on_c, 0, 72, 71
2, 64570, Control_c, 0, 64, 127
2, 64627, Note_on_c, 0, 72, 0
2, 64633, Note_on_c, 0, 75, 0
2, 64650, Note_on_c, 0, 75, 88
2, 64650, Note_on_c, 0, 78, 75
2, 64665, Note_on_c, 0, 75, 0
2, 64667, Note_on_c, 0, 78, 0
2, 64673, Control_c, 0, 64, 0
2, 64680, Note_on_c, 0, 78, 84
2, 64680, Note_on_c, 0, 75, 88
2, 64690, Control_c, 0, 64, 127
2, 64738, Note_on_c, 0, 78, 0
2, 64740, Note_on_c, 0, 75, 0
2, 64856, Control_c, 0, 64, 0
2, 64860, Note_on_c, 0, 66, 93
2, 64860, Note_on_c, 0, 63, 71
2, 64871, Control_c, 0, 64, 127
2, 64889, Note_on_c, 0, 63, 0
2, 64892, Note_on_c, 0, 66, 0
2, 64913, Control_c, 0, 64, 0
2, 64920, Note_on_c, 0, 68, 88
2, 64920, Note_on_c, 0, 65, 71
2, 64929, Control_c, 0, 64, 127
2, 64933, Note_on_c, 0, 65, 0
2, 64934, Note_on_c, 0, 68, 0
2, 64935, Note_on_c, 0, 63, 71
2, 64935, Note_on_c, 0, 66, 84
2, 64943, Note_on_c, 0, 66, 0
2, 64946, Note_on_c, 0, 63, 0
2, 64950, Note_on_c, 0, 65, 63
2, 64950, Note_on_c, 0, 68, 80
2, 64961, Note_on_c, 0, 68, 0
2, 64965, Note_on_c, 0, 66, 71
2, 64965, Note_on_c, 0, 63, 71
2, 64965, Control_c, 0, 64, 0
2, 64966, Note_on_c, 0, 65, 0
2, 64974, Note_on_c, 0, 66, 0
2, 64976, Note_on_c, 0, 63, 0
2, 64980, Note_on_c, 0, 65, 63
2, 64980, Note_on_c, 0, 68, 67
2, 64993, Note_on_c, 0, 68, 0
2, 64995, Note_on_c, 0, 63, 59
2, 64995, Note_on_c, 0, 66, 57
2, 64999, Control_c, 0, 64, 127
2, 65001, Note_on_c, 0, 65, 0
2, 65010, Note_on_c, 0, 66, 0
2, 65010, Note_on_c, 0, 63, 0
2, 65010, Note_on_c, 0, 62, 88
2, 65010, Note_on_c, 0, 65, 63
2, 65020, Note_on_c, 0, 65, 0
2, 65025, Note_on_c, 0, 66, 84
2, 65025, Note_on_c, 0, 63, 84
2, 65026, Note_on_c, 0, 62, 0
2, 65030, Control_c, 0, 64, 0
2, 65034, Note_on_c, 0, 63, 0
2, 65034, Note_on_c, 0, 66, 0
2, 65040, Note_on_c, 0, 62, 93
2, 65040, Note_on_c, 0, 65, 57
2, 65051, Note_on_c, 0, 62, 0
2, 65070, Note_on_c, 0, 62, 43
2, 65071, Control_c, 0, 64, 127
2, 65142, Note_on_c, 0, 65, 0
2, 65151, Note_on_c, 0, 62, 0
2, 65165, Control_c, 0, 64, 0
2, 65280, Note_on_c, 0, 65, 102
2, 65280, Note_on_c, 0, 70, 93
2, 65280, Note_on_c, 0, 62, 93
2, 65284, Control_c, 0, 64, 127
2, 65315, Note_on_c, 0, 70, 0
2, 65315, Note_on_c, 0, 65, 0
2, 65316, Note_on_c, 0, 62, 0
2, 65349, Control_c, 0, 64, 0
2, 65400, Note_on_c, 0, 72, 88
2, 65400, Note_on_c, 0, 65, 102
2, 65400, Note_on_c, 0, 63, 102
2, 65407, Control_c, 0, 64, 127
2, 65437, Note_on_c, 0, 63, 0
2, 65438, Note_on_c, 0, 65, 0
2, 65438, Note_on_c, 0, 72, 0
2, 65455, Control_c, 0, 64, 0
2, 65520, Note_on_c, 0, 74, 97
2, 65520, Note_on_c, 0, 70, 102
2, 65520, Note_on_c, 0, 65, 108
2, 65524, Control_c, 0, 64, 127
2, 65545, Note_on_c, 0, 70, 0
2, 65548, Note_on_c, 0, 65, 0
2, 65550, Note_on_c, 0, 74, 0
2, 65583, Control_c, 0, 64, 0
2, 65640, Note_on_c, 0, 75, 88
2, 65640, Note_on_c, 0, 70, 102
2, 65640, Note_on_c, 0, 67, 102
2, 65647, Control_c, 0, 64, 127
2, 65662, Note_on_c, 0, 70, 0
2, 65664, Note_on_c, 0, 75, 0
2, 65665, Note_on_c, 0, 67, 0
2, 65701, Control_c, 0, 64, 0
2, 65760, Note_on_c, 0, 80, 102
2, 65760, Note_on_c, 0, 74, 102
2, 65760, Note_on_c, 0, 62, 97
2, 65760, Note_on_c, 0, 70, 88
2, 65763, Control_c, 0, 64, 127
2, 65780, Note_on_c, 0, 70, 0
2, 65780, Note_on_c, 0, 74, 0
2, 65781, Note_on_c, 0, 62, 0
2, 65781, Note_on_c, 0, 80, 0
2, 65830, Control_c, 0, 64, 0
2, 66000, Note_on_c, 0, 67, 54
2, 66000, Note_on_c, 0, 82, 71
2, 66009, Control_c, 0, 64, 127
2, 66055, Note_on_c, 0, 67, 0
2, 66060, Note_on_c, 0, 70, 48
2, 66065, Note_on_c, 0, 82, 0
2, 66082, Note_on_c, 0, 70, 0
2, 66115, Control_c, 0, 64, 0
2, 66120, Note_on_c, 0, 80, 71
2, 66120, Note_on_c, 0, 63, 52
2, 66135, Note_on_c, 0, 79, 71
2, 66136, Note_on_c, 0, 80, 0
2, 66138, Control_c, 0, 64, 127
2, 66170, Note_on_c, 0, 63, 0
2, 66180, Note_on_c, 0, 79, 0
2, 66180, Note_on_c, 0, 70, 50
2, 66206, Note_on_c, 0, 70, 0
2, 66238, Control_c, 0, 64, 0
2, 66240, Note_on_c, 0, 77, 67
2, 66240, Note_on_c, 0, 67, 54
2, 66255, Note_on_c, 0, 75, 57
2, 66258, Control_c, 0, 64, 127
2, 66259, Note_on_c, 0, 77, 0
2, 66300, Note_on_c, 0, 70, 51
2, 66302, Note_on_c, 0, 67, 0
2, 66308, Note_on_c, 0, 75, 0
2, 66324, Note_on_c, 0, 70, 0
2, 66359, Control_c, 0, 64, 0
2, 66360, Note_on_c, 0, 74, 71
2, 66360, Note_on_c, 0, 68, 54
2, 66381, Control_c, 0, 64, 127
2, 66420, Note_on_c, 0, 68, 0
2, 66420, Note_on_c, 0, 70, 43
2, 66477, Note_on_c, 0, 70, 0
2, 66480, Note_on_c, 0, 68, 57
2, 66540, Note_on_c, 0, 70, 52
2, 66542, Note_on_c, 0, 68, 0
2, 66554, Note_on_c, 0, 74, 0
2, 66567, Note_on_c, 0, 70, 0
2, 66570, Note_on_c, 0, 75, 57
2, 66583, Note_on_c, 0, 75, 0
2, 66585, Note_on_c, 0, 77, 59
2, 66596, Control_c, 0, 64, 0
2, 66600, Note_on_c, 0, 77, 0
2, 66600, Note_on_c, 0, 67, 71
2, 66600, Note_on_c, 0, 75, 59
2, 66621, Control_c, 0, 64, 127
2, 66660, Note_on_c, 0, 70, 54
2, 66665, Note_on_c, 0, 67, 0
2, 66704, Note_on_c, 0, 70, 0
2, 66720, Note_on_c, 0, 75, 0
2, 66720, Note_on_c, 0, 74, 59
2, 66720, Note_on_c, 0, 68, 57
2, 66735, Note_on_c, 0, 74, 0
2, 66735, Note_on_c, 0, 72, 59
2, 66736, Control_c, 0, 64, 127
2, 66763, Note_on_c, 0, 68, 0
2, 66780, Note_on_c, 0, 63, 47
2, 66811, Note_on_c, 0, 72, 0
2, 66822, Note_on_c, 0, 63, 0
2, 66840, Note_on_c, 0, 72, 88
2, 66840, Note_on_c, 0, 68, 54
2, 66889, Note_on_c, 0, 68, 0
2, 66900, Note_on_c, 0, 63, 52
2, 66943, Note_on_c, 0, 63, 0
2, 66960, Note_on_c, 0, 68, 54
2, 66978, Note_on_c, 0, 72, 0
2, 67000, Note_on_c, 0, 68, 0
2, 67020, Note_on_c, 0, 75, 80
2, 67020, Note_on_c, 0, 63, 47
2, 67040, Note_on_c, 0, 63, 0
2, 67049, Note_on_c, 0, 75, 0
2, 67074, Control_c, 0, 64, 0
2, 67080, Note_on_c, 0, 68, 54
2, 67080, Note_on_c, 0, 74, 71
2, 67091, Control_c, 0, 64, 127
2, 67094, Note_on_c, 0, 74, 0
2, 67095, Note_on_c, 0, 72, 71
2, 67110, Note_on_c, 0, 72, 0
2, 67110, Note_on_c, 0, 74, 71
2, 67122, Note_on_c, 0, 74, 0
2, 67125, Note_on_c, 0, 72, 55
2, 67128, Note_on_c, 0, 68, 0
2, 67139, Note_on_c, 0, 72, 0
2, 67140, Note_on_c, 0, 63, 57
2, 67140, Note_on_c, 0, 74, 67
2, 67155, Note_on_c, 0, 72, 55
2, 67157, Note_on_c, 0, 74, 0
2, 67159, Note_on_c, 0, 63, 0
2, 67169, Note_on_c, 0, 72, 0
2, 67170, Note_on_c, 0, 70, 52
2, 67182, Note_on_c, 0, 70, 0
2, 67185, Note_on_c, 0, 72, 52
2, 67194, Note_on_c, 0, 72, 0
2, 67198, Control_c, 0, 64, 0
2, 67200, Note_on_c, 0, 70, 75
2, 67200, Note_on_c, 0, 67, 57
2, 67213, Control_c, 0, 64, 127
2, 67220, Note_on_c, 0, 70, 0
2, 67237, Note_on_c, 0, 67, 0
2, 67260, Note_on_c, 0, 63, 44
2, 67279, Note_on_c, 0, 63, 0
2, 67320, Note_on_c, 0, 67, 67
2, 67341, Note_on_c, 0, 67, 0
2, 67380, Note_on_c, 0, 63, 63
2, 67391, Note_on_c, 0, 63, 0
2, 67440, Note_on_c, 0, 63, 80
2, 67440, Control_c, 0, 64, 0
2, 67460, Control_c, 0, 64, 127
2, 67470, Note_on_c, 0, 58, 67
2, 67500, Note_on_c, 0, 57, 67
2, 67501, Note_on_c, 0, 58, 0
2, 67505, Control_c, 0, 64, 0
2, 67523, Control_c, 0, 64, 127
2, 67530, Note_on_c, 0, 58, 67
2, 67531, Note_on_c, 0, 57, 0
2, 67535, Control_c, 0, 64, 0
2, 67559, Note_on_c, 0, 58, 0
2, 67560, Note_on_c, 0, 60, 71
2, 67590, Note_on_c, 0, 58, 67
2, 67596, Note_on_c, 0, 60, 0
2, 67619, Note_on_c, 0, 58, 0
2, 67620, Note_on_c, 0, 57, 75
2, 67632, Control_c, 0, 64, 127
2, 67649, Note_on_c, 0, 57, 0
2, 67650, Note_on_c, 0, 58, 75
2, 67674, Note_on_c, 0, 63, 0
2, 67679, Note_on_c, 0, 58, 0
2, 67680, Note_on_c, 0, 62, 88
2, 67680, Control_c, 0, 64, 0
2, 67680, Note_on_c, 0, 60, 75
2, 67705, Control_c, 0, 64, 127
2, 67710, Note_on_c, 0, 58, 63
2, 67714, Note_on_c, 0, 60, 0
2, 67738, Note_on_c, 0, 58, 0
2, 67740, Note_on_c, 0, 57, 67
2, 67769, Note_on_c, 0, 57, 0
2, 67770, Note_on_c, 0, 58, 75
2, 67784, Note_on_c, 0, 58, 0
2, 67788, Note_on_c, 0, 62, 0
2, 67800, Note_on_c, 0, 68, 93
2, 67805, Control_c, 0, 64, 0
2, 67830, Note_on_c, 0, 58, 57
2, 67843, Control_c, 0, 64, 127
2, 67860, Note_on_c, 0, 57, 71
2, 67861, Note_on_c, 0, 58, 0
2, 67890, Note_on_c, 0, 58, 67
2, 67894, Note_on_c, 0, 57, 0
2, 67914, Control_c, 0, 64, 0
2, 67920, Note_on_c, 0, 60, 67
2, 67921, Note_on_c, 0, 58, 0
2, 67935, Control_c, 0, 64, 127
2, 67950, Note_on_c, 0, 58, 52
2, 67956, Note_on_c, 0, 60, 0
2, 67974, Control_c, 0, 64, 0
2, 67979, Note_on_c, 0, 58, 0
2, 67980, Note_on_c, 0, 57, 67
2, 67990, Control_c, 0, 64, 127
2, 68010, Note_on_c, 0, 58, 59
2, 68011, Note_on_c, 0, 57, 0
2, 68035, Note_on_c, 0, 68, 0
2, 68040, Note_on_c, 0, 58, 0
2, 68040, Note_on_c, 0, 67, 88
2, 68040, Note_on_c, 0, 60, 67
2, 68041, Control_c, 0, 64, 0
2, 68062, Control_c, 0, 64, 127
2, 68070, Note_on_c, 0, 58, 51
2, 68074, Note_on_c, 0, 60, 0
2, 68100, Note_on_c, 0, 58, 0
2, 68100, Note_on_c, 0, 57, 71
2, 68120, Note_on_c, 0, 67, 0
2, 68127, Note_on_c, 0, 57, 0
2, 68130, Note_on_c, 0, 58, 67
2, 68141, Note_on_c, 0, 58, 0
2, 68160, Note_on_c, 0, 73, 102
2, 68163, Control_c, 0, 64, 0
2, 68190, Control_c, 0, 64, 127
2, 68190, Note_on_c, 0, 63, 50
2, 68220, Note_on_c, 0, 63, 0
2, 68220, Note_on_c, 0, 62, 71
2, 68245, Note_on_c, 0, 62, 0
2, 68250, Note_on_c, 0, 63, 54
2, 68257, Note_on_c, 0, 73, 0
2, 68276, Note_on_c, 0, 63, 0
2, 68278, Control_c, 0, 64, 0
2, 68280, Note_on_c, 0, 72, 84
2, 68301, Control_c, 0, 64, 127
2, 68310, Note_on_c, 0, 63, 57
2, 68339, Note_on_c, 0, 63, 0
2, 68340, Note_on_c, 0, 62, 67
2, 68365, Note_on_c, 0, 62, 0
2, 68370, Note_on_c, 0, 63, 46
2, 68374, Note_on_c, 0, 72, 0
2, 68391, Note_on_c, 0, 63, 0
2, 68400, Note_on_c, 0, 68, 97
2, 68404, Control_c, 0, 64, 0
2, 68426, Control_c, 0, 64, 127
2, 68430, Note_on_c, 0, 63, 55
2, 68456, Note_on_c, 0, 63, 0
2, 68460, Note_on_c, 0, 62, 80
2, 68488, Note_on_c, 0, 62, 0
2, 68490, Note_on_c, 0, 63, 54
2, 68499, Note_on_c, 0, 68, 0
2, 68503, Note_on_c, 0, 63, 0
2, 68520, Note_on_c, 0, 67, 80
2, 68520, Note_on_c, 0, 63, 71
2, 68523, Control_c, 0, 64, 0
2, 68543, Control_c, 0, 64, 127
2, 68693, Note_on_c, 0, 63, 0
2, 68697, Note_on_c, 0, 67, 0
2, 68730, Note_on_c, 0, 65, 75
2, 68730, Note_on_c, 0, 68, 75
2, 68744, Note_on_c, 0, 68, 0
2, 68745, Note_on_c, 0, 65, 0
2, 68745, Note_on_c, 0, 70, 63
2, 68745, Note_on_c, 0, 67, 44
2, 68757, Note_on_c, 0, 67, 0
2, 68758, Note_on_c, 0, 70, 0
2, 68760, Note_on_c, 0, 65, 93
2, 68760, Note_on_c, 0, 62, 57
2, 68766, Control_c, 0, 64, 0
2, 68789, Control_c, 0, 64, 127
2, 68811, Note_on_c, 0, 62, 0
2, 68811, Note_on_c, 0, 65, 0
2, 68880, Note_on_c, 0, 70, 80
2, 68880, Note_on_c, 0, 82, 114
2, 68881, Control_c, 0, 64, 0
2, 68902, Control_c, 0, 64, 127
2, 68958, Note_on_c, 0, 70, 0
2, 68976, Note_on_c, 0, 82, 0
2, 69000, Note_on_c, 0, 68, 71
2, 69000, Note_on_c, 0, 80, 84
2, 69006, Control_c, 0, 64, 0
2, 69014, Note_on_c, 0, 80, 0
2, 69015, Note_on_c, 0, 67, 63
2, 69015, Note_on_c, 0, 79, 80
2, 69016, Note_on_c, 0, 68, 0
2, 69064, Control_c, 0, 64, 127
2, 69101, Note_on_c, 0, 67, 0
2, 69116, Note_on_c, 0, 79, 0
2, 69120, Note_on_c, 0, 65, 84
2, 69120, Note_on_c, 0, 77, 75
2, 69122, Control_c, 0, 64, 0
2, 69133, Note_on_c, 0, 65, 0
2, 69135, Note_on_c, 0, 63, 57
2, 69135, Note_on_c, 0, 75, 84
2, 69136, Note_on_c, 0, 77, 0
2, 69181, Control_c, 0, 64, 127
2, 69239, Note_on_c, 0, 75, 0
2, 69240, Note_on_c, 0, 74, 84
2, 69240, Note_on_c, 0, 62, 71
2, 69242, Control_c, 0, 64, 0
2, 69243, Note_on_c, 0, 63, 0
2, 69263, Control_c, 0, 64, 127
2, 69429, Note_on_c, 0, 62, 0
2, 69435, Note_on_c, 0, 74, 0
2, 69450, Note_on_c, 0, 63, 67
2, 69450, Note_on_c, 0, 75, 75
2, 69462, Note_on_c, 0, 75, 0
2, 69465, Note_on_c, 0, 65, 80
2, 69465, Note_on_c, 0, 77, 67
2, 69466, Note_on_c, 0, 63, 0
2, 69470, Control_c, 0, 64, 0
2, 69478, Note_on_c, 0, 77, 0
2, 69480, Note_on_c, 0, 65, 0
2, 69480, Note_on_c, 0, 63, 63
2, 69480, Note_on_c, 0, 75, 88
2, 69494, Control_c, 0, 64, 127
2, 69553, Note_on_c, 0, 63, 0
2, 69575, Note_on_c, 0, 75, 0
2, 69600, Note_on_c, 0, 74, 63
2, 69600, Note_on_c, 0, 62, 80
2, 69604, Control_c, 0, 64, 0
2, 69612, Note_on_c, 0, 62, 0
2, 69613, Note_on_c, 0, 74, 0
2, 69615, Note_on_c, 0, 72, 71
2, 69615, Note_on_c, 0, 60, 71
2, 69656, Control_c, 0, 64, 127
2, 69693, Note_on_c, 0, 60, 0
2, 69695, Note_on_c, 0, 72, 0
2, 69720, Note_on_c, 0, 72, 84
2, 69720, Note_on_c, 0, 60, 71
2, 69724, Control_c, 0, 64, 0
2, 69741, Control_c, 0, 64, 127
2, 69855, Note_on_c, 0, 60, 0
2, 69865, Note_on_c, 0, 72, 0
2, 69900, Note_on_c, 0, 63, 80
2, 69900, Note_on_c, 0, 75, 88
2, 69912, Note_on_c, 0, 63, 0
2, 69921, Note_on_c, 0, 75, 0
2, 69953, Control_c, 0, 64, 0
2, 69960, Note_on_c, 0, 62, 80
2, 69960, Note_on_c, 0, 74, 84
2, 69974, Note_on_c, 0, 74, 0
2, 69974, Note_on_c, 0, 62, 0
2, 69975, Note_on_c, 0, 60, 71
2, 69975, Note_on_c, 0, 72, 75
2, 69987, Note_on_c, 0, 72, 0
2, 69988, Note_on_c, 0, 60, 0
2, 69990, Note_on_c, 0, 62, 59
2, 69990, Note_on_c, 0, 74, 84
2, 70002, Note_on_c, 0, 74, 0
2, 70005, Note_on_c, 0, 72, 67
2, 70005, Note_on_c, 0, 60, 67
2, 70007, Note_on_c, 0, 62, 0
2, 70016, Note_on_c, 0, 72, 0
2, 70018, Note_on_c, 0, 60, 0
2, 70020, Note_on_c, 0, 74, 84
2, 70020, Note_on_c, 0, 62, 71
2, 70033, Note_on_c, 0, 74, 0
2, 70035, Note_on_c, 0, 72, 88
2, 70035, Note_on_c, 0, 60, 80
2, 70036, Note_on_c, 0, 62, 0
2, 70047, Note_on_c, 0, 60, 0
2, 70048, Note_on_c, 0, 72, 0
2, 70050, Note_on_c, 0, 70, 59
2, 70050, Note_on_c, 0, 58, 67
2, 70059, Note_on_c, 0, 70, 0
2, 70065, Note_on_c, 0, 72, 71
2, 70065, Note_on_c, 0, 60, 71
2, 70066, Note_on_c, 0, 58, 0
2, 70072, Note_on_c, 0, 60, 0
2, 70076, Note_on_c, 0, 72, 0
2, 70080, Note_on_c, 0, 70, 84
2, 70080, Note_on_c, 0, 58, 57
2, 70094, Control_c, 0, 64, 127
2, 70202, Note_on_c, 0, 58, 0
2, 70207, Control_c, 0, 64, 0
2, 70208, Note_on_c, 0, 70, 0
2, 70320, Note_on_c, 0, 73, 108
2, 70320, Note_on_c, 0, 61, 84
2, 70320, Note_on_c, 0, 73, 97
2, 70320, Note_on_c, 0, 61, 71
2, 70347, Control_c, 0, 64, 127
2, 70448, Note_on_c, 0, 61, 0
2, 70450, Note_on_c, 0, 73, 0
2, 70557, Note_on_c, 0, 61, 0
2, 70558, Note_on_c, 0, 73, 0
2, 70560, Note_on_c, 0, 72, 84
2, 70560, Note_on_c, 0, 60, 71
2, 70561, Control_c, 0, 64, 0
2, 70579, Control_c, 0, 64, 127
2, 70611, Note_on_c, 0, 60, 0
2, 70613, Note_on_c, 0, 72, 0
2, 70680, Note_on_c, 0, 82, 102
2, 70680, Note_on_c, 0, 70, 75
2, 70686, Control_c, 0, 64, 0
2, 70707, Control_c, 0, 64, 127
2, 70896, Note_on_c, 0, 70, 0
2, 70916, Note_on_c, 0, 82, 0
2, 70920, Note_on_c, 0, 80, 84
2, 70920, Note_on_c, 0, 68, 80
2, 70928, Control_c, 0, 64, 0
2, 70946, Control_c, 0, 64, 127
2, 70996, Note_on_c, 0, 68, 0
2, 71001, Note_on_c, 0, 80, 0
2, 71035, Control_c, 0, 64, 0
2, 71040, Note_on_c, 0, 68, 71
2, 71040, Note_on_c, 0, 80, 80
2, 71053, Note_on_c, 0, 80, 0
2, 71054, Note_on_c, 0, 68, 0
2, 71055, Note_on_c, 0, 79, 75
2, 71055, Note_on_c, 0, 67, 75
2, 71090, Control_c, 0, 64, 127
2, 71160, Note_on_c, 0, 67, 0
2, 71160, Note_on_c, 0, 65, 75
2, 71160, Note_on_c, 0, 77, 84
2, 71161, Control_c, 0, 64, 0
2, 71162, Note_on_c, 0, 79, 0
2, 71179, Control_c, 0, 64, 127
2, 71248, Note_on_c, 0, 65, 0
2, 71255, Note_on_c, 0, 77, 0
2, 71270, Control_c, 0, 64, 0
2, 71280, Note_on_c, 0, 65, 71
2, 71280, Note_on_c, 0, 77, 88
2, 71294, Note_on_c, 0, 77, 0
2, 71295, Note_on_c, 0, 65, 0
2, 71295, Note_on_c, 0, 64, 63
2, 71295, Note_on_c, 0, 76, 59
2, 71310, Note_on_c, 0, 76, 0
2, 71310, Note_on_c, 0, 65, 75
2, 71310, Note_on_c, 0, 77, 88
2, 71312, Note_on_c, 0, 64, 0
2, 71324, Note_on_c, 0, 77, 0
2, 71325, Note_on_c, 0, 76, 55
2, 71325, Note_on_c, 0, 64, 57
2, 71326, Note_on_c, 0, 65, 0
2, 71338, Note_on_c, 0, 76, 0
2, 71339, Note_on_c, 0, 64, 0
2, 71340, Note_on_c, 0, 65, 57
2, 71340, Note_on_c, 0, 77, 84
2, 71355, Note_on_c, 0, 64, 71
2, 71355, Note_on_c, 0, 76, 80
2, 71357, Note_on_c, 0, 77, 0
2, 71359, Note_on_c, 0, 65, 0
2, 71368, Note_on_c, 0, 76, 0
2, 71369, Note_on_c, 0, 64, 0
2, 71370, Note_on_c, 0, 74, 59
2, 71370, Note_on_c, 0, 62, 75
2, 71382, Note_on_c, 0, 74, 0
2, 71385, Note_on_c, 0, 76, 57
2, 71385, Note_on_c, 0, 64, 71
2, 71387, Note_on_c, 0, 62, 0
2, 71398, Note_on_c, 0, 64, 0
2, 71400, Note_on_c, 0, 76, 0
2, 71400, Note_on_c, 0, 77, 80
2, 71400, Note_on_c, 0, 65, 88
2, 71432, Control_c, 0, 64, 127
2, 71513, Note_on_c, 0, 65, 0
2, 71517, Note_on_c, 0, 77, 0
2, 71527, Control_c, 0, 64, 0
2, 71760, Note_on_c, 0, 71, 88
2, 71760, Note_on_c, 0, 59, 88
2, 71779, Control_c, 0, 64, 127
2, 71996, Control_c, 0, 64, 0
2, 72000, Note_on_c, 0, 59, 0
2, 72000, Note_on_c, 0, 70, 75
2, 72000, Note_on_c, 0, 58, 71
2, 72002, Note_on_c, 0, 71, 0
2, 72016, Control_c, 0, 64, 127
2, 72046, Note_on_c, 0, 70, 0
2, 72050, Note_on_c, 0, 58, 0
2, 72120, Note_on_c, 0, 68, 80
2, 72120, Note_on_c, 0, 80, 102
2, 72128, Control_c, 0, 64, 0
2, 72150, Control_c, 0, 64, 127
2, 72355, Note_on_c, 0, 80, 0
2, 72357, Control_c, 0, 64, 0
2, 72359, Note_on_c, 0, 68, 0
2, 72360, Note_on_c, 0, 79, 88
2, 72360, Note_on_c, 0, 67, 88
2, 72376, Control_c, 0, 64, 127
2, 72409, Note_on_c, 0, 67, 0
2, 72409, Note_on_c, 0, 79, 0
2, 72480, Note_on_c, 0, 84, 88
2, 72480, Note_on_c, 0, 72, 84
2, 72481, Control_c, 0, 64, 0
2, 72499, Control_c, 0, 64, 127
2, 72538, Note_on_c, 0, 84, 0
2, 72541, Note_on_c, 0, 72, 0
2, 72600, Note_on_c, 0, 72, 88
2, 72600, Note_on_c, 0, 60, 75
2, 72609, Control_c, 0, 64, 0
2, 72629, Control_c, 0, 64, 127
2, 72663, Note_on_c, 0, 60, 0
2, 72684, Note_on_c, 0, 72, 0
2, 72720, Note_on_c, 0, 77, 88
2, 72720, Note_on_c, 0, 65, 84
2, 72724, Control_c, 0, 64, 0
2, 72745, Control_c, 0, 64, 127
2, 72837, Note_on_c, 0, 65, 0
2, 72840, Note_on_c, 0, 77, 0
2, 72840, Note_on_c, 0, 75, 88
2, 72840, Note_on_c, 0, 63, 71
2, 72843, Control_c, 0, 64, 0
2, 72868, Control_c, 0, 64, 127
2, 72958, Note_on_c, 0, 63, 0
2, 72959, Control_c, 0, 64, 0
2, 72960, Note_on_c, 0, 74, 84
2, 72960, Note_on_c, 0, 62, 71
2, 72963, Note_on_c, 0, 75, 0
2, 72980, Control_c, 0, 64, 127
2, 73074, Note_on_c, 0, 74, 0
2, 73077, Note_on_c, 0, 62, 0
2, 73093, Control_c, 0, 64, 0
2, 73199, Control_c, 0, 64, 127
2, 73200, Note_on_c, 0, 62, 71
2, 73215, Control_c, 0, 64, 127
2, 73222, Note_on_c, 0, 62, 0
2, 73230, Note_on_c, 0, 70, 57
2, 73250, Note_on_c, 0, 70, 0
2, 73260, Note_on_c, 0, 62, 57
2, 73260, Note_on_c, 0, 82, 84
2, 73275, Note_on_c, 0, 62, 0
2, 73290, Note_on_c, 0, 70, 59
2, 73293, Note_on_c, 0, 82, 0
2, 73308, Note_on_c, 0, 70, 0
2, 73320, Note_on_c, 0, 77, 88
2, 73320, Note_on_c, 0, 62, 54
2, 73338, Note_on_c, 0, 62, 0
2, 73350, Note_on_c, 0, 70, 50
2, 73367, Note_on_c, 0, 77, 0
2, 73370, Note_on_c, 0, 70, 0
2, 73380, Note_on_c, 0, 80, 75
2, 73380, Note_on_c, 0, 62, 57
2, 73400, Note_on_c, 0, 62, 0
2, 73410, Note_on_c, 0, 70, 52
2, 73429, Note_on_c, 0, 80, 0
2, 73432, Note_on_c, 0, 70, 0
2, 73440, Note_on_c, 0, 63, 57
2, 73440, Note_on_c, 0, 79, 84
2, 73446, Control_c, 0, 64, 0
2, 73463, Control_c, 0, 64, 127
2, 73466, Note_on_c, 0, 63, 0
2, 73469, Note_on_c, 0, 79, 0
2, 73470, Note_on_c, 0, 70, 50
2, 73470, Note_on_c, 0, 75, 59
2, 73485, Note_on_c, 0, 75, 0
2, 73493, Note_on_c, 0, 70, 0
2, 73500, Note_on_c, 0, 67, 67
2, 73500, Note_on_c, 0, 82, 84
2, 73511, Note_on_c, 0, 67, 0
2, 73512, Note_on_c, 0, 82, 0
2, 73530, Note_on_c, 0, 63, 63
2, 73530, Note_on_c, 0, 82, 71
2, 73542, Note_on_c, 0, 82, 0
2, 73542, Note_on_c, 0, 63, 0
2, 73560, Note_on_c, 0, 62, 71
2, 73564, Control_c, 0, 64, 0
2, 73580, Control_c, 0, 64, 127
2, 73584, Note_on_c, 0, 62, 0
2, 73590, Note_on_c, 0, 70, 54
2, 73607, Note_on_c, 0, 70, 0
2, 73620, Note_on_c, 0, 82, 84
2, 73620, Note_on_c, 0, 62, 59
2, 73637, Note_on_c, 0, 62, 0
2, 73645, Note_on_c, 0, 82, 0
2, 73650, Note_on_c, 0, 70, 55
2, 73666, Note_on_c, 0, 70, 0
2, 73680, Note_on_c, 0, 77, 84
2, 73680, Note_on_c, 0, 62, 57
2, 73697, Note_on_c, 0, 62, 0
2, 73710, Note_on_c, 0, 70, 51
2, 73721, Note_on_c, 0, 77, 0
2, 73729, Note_on_c, 0, 70, 0
2, 73740, Note_on_c, 0, 80, 88
2, 73740, Note_on_c, 0, 62, 54
2, 73766, Note_on_c, 0, 62, 0
2, 73770, Note_on_c, 0, 70, 52
2, 73776, Note_on_c, 0, 80, 0
2, 73788, Note_on_c, 0, 70, 0
2, 73796, Control_c, 0, 64, 0
2, 73800, Note_on_c, 0, 79, 71
2, 73800, Note_on_c, 0, 63, 52
2, 73814, Control_c, 0, 64, 127
2, 73828, Note_on_c, 0, 79, 0
2, 73829, Note_on_c, 0, 63, 0
2, 73830, Note_on_c, 0, 70, 52
2, 73830, Note_on_c, 0, 75, 59
2, 73842, Note_on_c, 0, 75, 0
2, 73851, Note_on_c, 0, 70, 0
2, 73860, Note_on_c, 0, 67, 75
2, 73860, Note_on_c, 0, 82, 75
2, 73870, Note_on_c, 0, 82, 0
2, 73872, Note_on_c, 0, 67, 0
2, 73890, Note_on_c, 0, 63, 67
2, 73890, Note_on_c, 0, 82, 71
2, 73900, Note_on_c, 0, 82, 0
2, 73900, Note_on_c, 0, 63, 0
2, 73922, Control_c, 0, 64, 0
2, 73980, Note_on_c, 0, 70, 67
2, 73980, Note_on_c, 0, 82, 75
2, 74009, Note_on_c, 0, 70, 0
2, 74010, Note_on_c, 0, 68, 71
2, 74010, Note_on_c, 0, 80, 84
2, 74011, Note_on_c, 0, 82, 0
2, 74032, Note_on_c, 0, 80, 0
2, 74034, Note_on_c, 0, 68, 0
2, 74100, Note_on_c, 0, 68, 55
2, 74100, Note_on_c, 0, 80, 84
2, 74109, Control_c, 0, 64, 127
2, 74130, Note_on_c, 0, 67, 75
2, 74130, Note_on_c, 0, 79, 84
2, 74131, Note_on_c, 0, 68, 0
2, 74133, Note_on_c, 0, 80, 0
2, 74147, Note_on_c, 0, 67, 0
2, 74147, Note_on_c, 0, 79, 0
2, 74154, Control_c, 0, 64, 0
2, 74220, Note_on_c, 0, 79, 71
2, 74220, Note_on_c, 0, 67, 71
2, 74231, Control_c, 0, 64, 127
2, 74244, Note_on_c, 0, 67, 0
2, 74245, Note_on_c, 0, 79, 0
2, 74250, Note_on_c, 0, 77, 71
2, 74250, Note_on_c, 0, 65, 71
2, 74260, Note_on_c, 0, 65, 0
2, 74261, Note_on_c, 0, 77, 0
2, 74270, Control_c, 0, 64, 0
2, 74310, Note_on_c, 0, 63, 71
2, 74310, Note_on_c, 0, 75, 88
2, 74314, Control_c, 0, 64, 127
2, 74334, Note_on_c, 0, 75, 0
2, 74340, Note_on_c, 0, 65, 88
2, 74340, Note_on_c, 0, 77, 88
2, 74344, Note_on_c, 0, 63, 0
2, 74365, Note_on_c, 0, 77, 0
2, 74366, Control_c, 0, 64, 0
2, 74369, Note_on_c, 0, 65, 0
2, 74370, Note_on_c, 0, 79, 88
2, 74370, Note_on_c, 0, 67, 88
2, 74400, Note_on_c, 0, 80, 88
2, 74400, Note_on_c, 0, 68, 67
2, 74401, Note_on_c, 0, 67, 0
2, 74401, Note_on_c, 0, 79, 0
2, 74409, Control_c, 0, 64, 127
2, 74429, Note_on_c, 0, 80, 0
2, 74429, Note_on_c, 0, 68, 0
2, 74430, Note_on_c, 0, 82, 88
2, 74430, Note_on_c, 0, 70, 75
2, 74453, Note_on_c, 0, 82, 0
2, 74457, Control_c, 0, 64, 0
2, 74460, Note_on_c, 0, 70, 0
2, 74460, Note_on_c, 0, 84, 93
2, 74460, Note_on_c, 0, 72, 84
2, 74474, Control_c, 0, 64, 127
2, 74486, Note_on_c, 0, 84, 0
2, 74488, Note_on_c, 0, 72, 0
2, 74490, Note_on_c, 0, 74, 63
2, 74490, Note_on_c, 0, 86, 93
2, 74505, Control_c, 0, 64, 0
2, 74514, Note_on_c, 0, 74, 0
2, 74515, Note_on_c, 0, 86, 0
2, 74518, Control_c, 0, 64, 127
2, 74520, Note_on_c, 0, 75, 93
2, 74520, Note_on_c, 0, 87, 100
2, 74528, Note_on_c, 0, 75, 0
2, 74531, Note_on_c, 0, 87, 0
2, 74550, Note_on_c, 0, 70, 90
2, 74550, Note_on_c, 0, 82, 88
2, 74566, Note_on_c, 0, 82, 0
2, 74566, Note_on_c, 0, 70, 0
2, 74580, Note_on_c, 0, 79, 93
2, 74580, Note_on_c, 0, 67, 57
2, 74594, Note_on_c, 0, 67, 0
2, 74608, Note_on_c, 0, 79, 0
2, 74610, Note_on_c, 0, 75, 75
2, 74610, Note_on_c, 0, 63, 71
2, 74618, Note_on_c, 0, 63, 0
2, 74621, Note_on_c, 0, 75, 0
2, 74637, Control_c, 0, 64, 0
2, 74640, Note_on_c, 0, 58, 67
2, 74640, Note_on_c, 0, 70, 88
2, 74653, Control_c, 0, 64, 127
2, 74693, Note_on_c, 0, 70, 0
2, 74695, Note_on_c, 0, 58, 0
2, 74765, Control_c, 0, 64, 0
2, 75359, Control_c, 0, 64, 127
2, 75360, Note_on_c, 0, 84, 67
2, 75360, Note_on_c, 0, 80, 59
2, 75360, Note_on_c, 0, 72, 50
2, 75360, Note_on_c, 0, 68, 59
2, 75362, Control_c, 0, 64, 127
2, 75416, Note_on_c, 0, 80, 0
2, 75416, Control_c, 0, 64, 0
2, 75417, Note_on_c, 0, 84, 0
2, 75417, Note_on_c, 0, 68, 0
2, 75418, Note_on_c, 0, 72, 0
2, 75480, Note_on_c, 0, 82, 67
2, 75480, Note_on_c, 0, 70, 57
2, 75480, Note_on_c, 0, 79, 67
2, 75480, Note_on_c, 0, 67, 59
2, 75490, Control_c, 0, 64, 127
2, 75528, Note_on_c, 0, 67, 0
2, 75533, Note_on_c, 0, 82, 0
2, 75533, Note_on_c, 0, 70, 0
2, 75534, Note_on_c, 0, 79, 0
2, 75537, Control_c, 0, 64, 0
2, 75600, Note_on_c, 0, 77, 63
2, 75600, Note_on_c, 0, 86, 71
2, 75600, Note_on_c, 0, 80, 67
2, 75600, Note_on_c, 0, 68, 54
2, 75600, Note_on_c, 0, 65, 44
2, 75600, Note_on_c, 0, 74, 50
2, 75613, Control_c, 0, 64, 127
2, 75641, Note_on_c, 0, 74, 0
2, 75642, Note_on_c, 0, 68, 0
2, 75642, Note_on_c, 0, 65, 0
2, 75645, Note_on_c, 0, 86, 0
2, 75648, Note_on_c, 0, 80, 0
2, 75649, Note_on_c, 0, 77, 0
2, 75681, Control_c, 0, 64, 0
2, 75720, Note_on_c, 0, 75, 48
2, 75720, Note_on_c, 0, 63, 57
2, 75720, Note_on_c, 0, 87, 52
2, 75720, Note_on_c, 0, 70, 50
2, 75720, Note_on_c, 0, 79, 71
2, 75720, Note_on_c, 0, 82, 57
2, 75720, Note_on_c, 0, 67, 57
2, 75726, Control_c, 0, 64, 127
2, 75750, Note_on_c, 0, 82, 0
2, 75751, Note_on_c, 0, 63, 0
2, 75752, Note_on_c, 0, 79, 0
2, 75752, Note_on_c, 0, 75, 0
2, 75752, Note_on_c, 0, 87, 0
2, 75753, Note_on_c, 0, 67, 0
2, 75754, Note_on_c, 0, 70, 0
2, 75779, Control_c, 0, 64, 0
2, 75780, Note_on_c, 0, 70, 71
2, 75839, Note_on_c, 0, 70, 0
2, 75840, Note_on_c, 0, 69, 80
2, 75900, Note_on_c, 0, 68, 71
2, 75903, Note_on_c, 0, 69, 0
2, 75906, Control_c, 0, 64, 127
2, 75939, Note_on_c, 0, 68, 0
2, 75956, Control_c, 0, 64, 0
2, 75960, Note_on_c, 0, 80, 108
2, 75960, Note_on_c, 0, 65, 71
2, 75975, Control_c, 0, 64, 127
2, 75984, Note_on_c, 0, 80, 0
2, 76014, Note_on_c, 0, 65, 0
2, 76019, Control_c, 0, 64, 0
2, 76020, Note_on_c, 0, 68, 71
2, 76020, Note_on_c, 0, 79, 88
2, 76035, Note_on_c, 0, 77, 67
2, 76038, Note_on_c, 0, 79, 0
2, 76038, Control_c, 0, 64, 127
2, 76050, Note_on_c, 0, 75, 59
2, 76054, Note_on_c, 0, 77, 0
2, 76063, Note_on_c, 0, 75, 0
2, 76065, Note_on_c, 0, 74, 75
2, 76069, Note_on_c, 0, 68, 0
2, 76072, Control_c, 0, 64, 0
2, 76077, Note_on_c, 0, 74, 0
2, 76080, Note_on_c, 0, 67, 55
2, 76080, Note_on_c, 0, 75, 97
2, 76092, Control_c, 0, 64, 127
2, 76106, Note_on_c, 0, 75, 0
2, 76112, Note_on_c, 0, 67, 0
2, 76140, Control_c, 0, 64, 0
2, 76140, Note_on_c, 0, 70, 67
2, 76185, Control_c, 0, 64, 127
2, 76199, Note_on_c, 0, 70, 0
2, 76200, Note_on_c, 0, 69, 52
2, 76210, Control_c, 0, 64, 0
2, 76258, Control_c, 0, 64, 127
2, 76260, Note_on_c, 0, 68, 59
2, 76265, Note_on_c, 0, 69, 0
2, 76307, Note_on_c, 0, 68, 0
2, 76313, Control_c, 0, 64, 0
2, 76320, Note_on_c, 0, 80, 97
2, 76320, Note_on_c, 0, 65, 67
2, 76335, Control_c, 0, 64, 127
2, 76342, Note_on_c, 0, 80, 0
2, 76366, Note_on_c, 0, 65, 0
2, 76380, Note_on_c, 0, 68, 67
2, 76380, Note_on_c, 0, 79, 84
2, 76384, Control_c, 0, 64, 0
2, 76395, Note_on_c, 0, 77, 71
2, 76397, Note_on_c, 0, 79, 0
2, 76407, Control_c, 0, 64, 127
2, 76410, Note_on_c, 0, 75, 57
2, 76412, Note_on_c, 0, 77, 0
2, 76421, Note_on_c, 0, 68, 0
2, 76424, Note_on_c, 0, 75, 0
2, 76425, Note_on_c, 0, 74, 50
2, 76434, Note_on_c, 0, 74, 0
2, 76440, Note_on_c, 0, 67, 71
2, 76440, Note_on_c, 0, 75, 88
2, 76442, Control_c, 0, 64, 0
2, 76459, Control_c, 0, 64, 127
2, 76463, Note_on_c, 0, 75, 0
2, 76466, Note_on_c, 0, 67, 0
2, 76500, Note_on_c, 0, 75, 59
2, 76500, Note_on_c, 0, 80, 88
2, 76500, Note_on_c, 0, 72, 67
2, 76508, Control_c, 0, 64, 0
2, 76526, Control_c, 0, 64, 127
2, 76535, Note_on_c, 0, 75, 0
2, 76537, Note_on_c, 0, 72, 0
2, 76539, Note_on_c, 0, 80, 0
2, 76560, Note_on_c, 0, 70, 55
2, 76560, Note_on_c, 0, 74, 52
2, 76560, Note_on_c, 0, 79, 71
2, 76567, Control_c, 0, 64, 0
2, 76584, Control_c, 0, 64, 127
2, 76586, Note_on_c, 0, 70, 0
2, 76589, Note_on_c, 0, 74, 0
2, 76593, Note_on_c, 0, 79, 0
2, 76620, Note_on_c, 0, 68, 55
2, 76620, Note_on_c, 0, 72, 51
2, 76620, Note_on_c, 0, 77, 75
2, 76626, Control_c, 0, 64, 0
2, 76641, Control_c, 0, 64, 127
2, 76644, Note_on_c, 0, 68, 0
2, 76646, Note_on_c, 0, 77, 0
2, 76646, Note_on_c, 0, 72, 0
2, 76680, Control_c, 0, 64, 0
2, 76680, Note_on_c, 0, 75, 71
2, 76680, Note_on_c, 0, 70, 52
2, 76680, Note_on_c, 0, 67, 52
2, 76695, Control_c, 0, 64, 127
2, 76710, Note_on_c, 0, 75, 0
2, 76711, Note_on_c, 0, 67, 0
2, 76713, Note_on_c, 0, 70, 0
2, 76740, Note_on_c, 0, 68, 46
2, 76740, Note_on_c, 0, 74, 75
2, 76740, Note_on_c, 0, 65, 63
2, 76743, Control_c, 0, 64, 0
2, 76759, Note_on_c, 0, 65, 0
2, 76759, Control_c, 0, 64, 127
2, 76761, Note_on_c, 0, 68, 0
2, 76769, Note_on_c, 0, 74, 0
2, 76798, Control_c, 0, 64, 0
2, 76800, Note_on_c, 0, 75, 71
2, 76800, Note_on_c, 0, 63, 57
2, 76800, Note_on_c, 0, 67, 57
2, 76817, Control_c, 0, 64, 127
2, 76909, Note_on_c, 0, 67, 0
2, 76912, Note_on_c, 0, 63, 0
2, 76912, Note_on_c, 0, 75, 0
2, 76920, Control_c, 0, 64, 0
2, 77160, Note_on_c, 0, 87, 88
2, 77160, Note_on_c, 0, 75, 80
2, 77163, Control_c, 0, 64, 127
2, 77179, Note_on_c, 0, 75, 0
2, 77179, Note_on_c, 0, 87, 0
2, 77310, Note_on_c, 0, 70, 80
2, 77310, Note_on_c, 0, 82, 88
2, 77332, Note_on_c, 0, 70, 0
2, 77334, Note_on_c, 0, 82, 0
2, 77340, Note_on_c, 0, 79, 84
2, 77340, Note_on_c, 0, 67, 80
2, 77366, Note_on_c, 0, 79, 0
2, 77368, Note_on_c, 0, 67, 0
2, 77370, Note_on_c, 0, 75, 80
2, 77370, Note_on_c, 0, 63, 67
2, 77382, Note_on_c, 0, 75, 0
2, 77383, Note_on_c, 0, 63, 0
2, 77400, Note_on_c, 0, 62, 71
2, 77400, Note_on_c, 0, 74, 88
2, 77401, Control_c, 0, 64, 0
2, 77426, Note_on_c, 0, 74, 0
2, 77429, Control_c, 0, 64, 127
2, 77430, Note_on_c, 0, 77, 71
2, 77430, Note_on_c, 0, 65, 57
2, 77432, Note_on_c, 0, 62, 0
2, 77456, Note_on_c, 0, 77, 0
2, 77458, Note_on_c, 0, 65, 0
2, 77460, Note_on_c, 0, 80, 84
2, 77460, Note_on_c, 0, 68, 63
2, 77482, Note_on_c, 0, 68, 0
2, 77484, Note_on_c, 0, 80, 0
2, 77490, Note_on_c, 0, 86, 97
2, 77490, Note_on_c, 0, 74, 80
2, 77501, Note_on_c, 0, 86, 0
2, 77503, Note_on_c, 0, 74, 0
2, 77519, Control_c, 0, 64, 0
2, 77520, Note_on_c, 0, 87, 84
2, 77520, Note_on_c, 0, 75, 71
2, 77539, Control_c, 0, 64, 127
2, 77577, Note_on_c, 0, 75, 0
2, 77581, Note_on_c, 0, 87, 0
2, 77670, Note_on_c, 0, 82, 84
2, 77670, Note_on_c, 0, 70, 75
2, 77689, Note_on_c, 0, 70, 0
2, 77693, Note_on_c, 0, 82, 0
2, 77700, Note_on_c, 0, 79, 88
2, 77700, Note_on_c, 0, 67, 75
2, 77729, Note_on_c, 0, 79, 0
2, 77730, Note_on_c, 0, 67, 0
2, 77730, Note_on_c, 0, 75, 75
2, 77730, Note_on_c, 0, 63, 63
2, 77743, Note_on_c, 0, 63, 0
2, 77747, Note_on_c, 0, 75, 0
2, 77760, Note_on_c, 0, 62, 71
2, 77760, Note_on_c, 0, 74, 88
2, 77761, Control_c, 0, 64, 0
2, 77784, Control_c, 0, 64, 127
2, 77786, Note_on_c, 0, 74, 0
2, 77790, Note_on_c, 0, 77, 67
2, 77790, Note_on_c, 0, 65, 71
2, 77792, Note_on_c, 0, 62, 0
2, 77817, Note_on_c, 0, 77, 0
2, 77818, Note_on_c, 0, 65, 0
2, 77820, Note_on_c, 0, 68, 75
2, 77820, Note_on_c, 0, 80, 80
2, 77837, Note_on_c, 0, 68, 0
2, 77843, Note_on_c, 0, 80, 0
2, 77850, Note_on_c, 0, 74, 75
2, 77850, Note_on_c, 0, 86, 97
2, 77863, Note_on_c, 0, 86, 0
2, 77870, Note_on_c, 0, 74, 0
2, 77877, Control_c, 0, 64, 0
2, 77880, Note_on_c, 0, 75, 71
2, 77880, Note_on_c, 0, 87, 84
2, 77895, Control_c, 0, 64, 127
2, 77940, Note_on_c, 0, 75, 0
2, 77942, Note_on_c, 0, 87, 0
2, 78030, Control_c, 0, 64, 0
2, 78030, Note_on_c, 0, 82, 75
2, 78030, Note_on_c, 0, 70, 63
2, 78050, Control_c, 0, 64, 127
2, 78060, Note_on_c, 0, 70, 0
2, 78060, Note_on_c, 0, 82, 0
2, 78060, Note_on_c, 0, 67, 63
2, 78060, Note_on_c, 0, 79, 71
2, 78078, Note_on_c, 0, 79, 0
2, 78088, Note_on_c, 0, 67, 0
2, 78090, Note_on_c, 0, 63, 55
2, 78090, Note_on_c, 0, 75, 57
2, 78103, Note_on_c, 0, 75, 0
2, 78103, Note_on_c, 0, 63, 0
2, 78120, Note_on_c, 0, 80, 71
2, 78120, Note_on_c, 0, 68, 57
2, 78125, Control_c, 0, 64, 0
2, 78141, Control_c, 0, 64, 127
2, 78144, Note_on_c, 0, 68, 0
2, 78146, Note_on_c, 0, 80, 0
2, 78150, Note_on_c, 0, 65, 57
2, 78150, Note_on_c, 0, 77, 55
2, 78172, Note_on_c, 0, 77, 0
2, 78177, Note_on_c, 0, 65, 0
2, 78180, Note_on_c, 0, 74, 67
2, 78180, Note_on_c, 0, 62, 55
2, 78189, Note_on_c, 0, 62, 0
2, 78205, Note_on_c, 0, 74, 0
2, 78210, Note_on_c, 0, 68, 59
2, 78210, Note_on_c, 0, 56, 67
2, 78214, Note_on_c, 0, 56, 0
2, 78221, Note_on_c, 0, 68, 0
2, 78240, Note_on_c, 0, 68, 55
2, 78240, Note_on_c, 0, 62, 59
2, 78240, Note_on_c, 0, 65, 71
2, 78240, Note_on_c, 0, 58, 55
2, 78240, Note_on_c, 0, 56, 67
2, 78247, Control_c, 0, 64, 127
2, 78449, Note_on_c, 0, 62, 0
2, 78456, Note_on_c, 0, 68, 0
2, 78469, Note_on_c, 0, 56, 0
2, 78474, Note_on_c, 0, 65, 0
2, 78480, Note_on_c, 0, 63, 37
2, 78480, Note_on_c, 0, 67, 52
2, 78480, Note_on_c, 0, 55, 39
2, 78485, Control_c, 0, 64, 0
2, 78502, Control_c, 0, 64, 127
2, 78555, Note_on_c, 0, 63, 0
2, 78556, Note_on_c, 0, 58, 0
2, 78557, Note_on_c, 0, 67, 0
2, 78559, Note_on_c, 0, 55, 0
2, 78571, Control_c, 0, 64, 0
2, 78600, Control_c, 0, 11, 127
2, 78960, Note_on_c, 0, 77, 93
2, 78960, Note_on_c, 0, 74, 93
2, 78960, Note_on_c, 0, 62, 75
2, 78960, Note_on_c, 0, 65, 75
2, 78976, Control_c, 0, 64, 127
2, 79080, Note_on_c, 0, 65, 0
2, 79080, Note_on_c, 0, 77, 0
2, 79080, Note_on_c, 0, 74, 0
2, 79080, Note_on_c, 0, 62, 0
2, 79197, Control_c, 0, 64, 0
2, 79200, Note_on_c, 0, 62, 84
2, 79200, Note_on_c, 0, 70, 88
2, 79200, Note_on_c, 0, 74, 93
2, 79200, Note_on_c, 0, 58, 71
2, 79231, Control_c, 0, 64, 127
2, 79259, Note_on_c, 0, 58, 0
2, 79259, Note_on_c, 0, 62, 0
2, 79259, Note_on_c, 0, 70, 0
2, 79259, Note_on_c, 0, 74, 0
2, 79314, Control_c, 0, 64, 0
2, 79320, Note_on_c, 0, 75, 75
2, 79320, Note_on_c, 0, 72, 93
2, 79320, Note_on_c, 0, 63, 75
2, 79320, Note_on_c, 0, 60, 63
2, 79340, Control_c, 0, 64, 127
2, 79379, Note_on_c, 0, 60, 0
2, 79379, Note_on_c, 0, 75, 0
2, 79379, Note_on_c, 0, 72, 0
2, 79379, Note_on_c, 0, 63, 0
2, 79425, Control_c, 0, 64, 0
2, 79440, Note_on_c, 0, 62, 75
2, 79440, Note_on_c, 0, 74, 88
2, 79440, Note_on_c, 0, 77, 88
2, 79440, Note_on_c, 0, 65, 80
2, 79451, Control_c, 0, 64, 127
2, 79499, Note_on_c, 0, 65, 0
2, 79499, Note_on_c, 0, 62, 0
2, 79499, Note_on_c, 0, 74, 0
2, 79499, Note_on_c, 0, 77, 0
2, 79553, Control_c, 0, 64, 0
2, 79560, Note_on_c, 0, 82, 88
2, 79560, Note_on_c, 0, 79, 93
2, 79560, Note_on_c, 0, 70, 71
2, 79560, Note_on_c, 0, 67, 75
2, 79583, Control_c, 0, 64, 127
2, 79619, Note_on_c, 0, 67, 0
2, 79619, Note_on_c, 0, 82, 0
2, 79619, Note_on_c, 0, 79, 0
2, 79619, Note_on_c, 0, 70, 0
2, 79676, Control_c, 0, 64, 0
2, 79680, Note_on_c, 0, 77, 93
2, 79680, Note_on_c, 0, 81, 88
2, 79680, Note_on_c, 0, 65, 71
2, 79680, Note_on_c, 0, 69, 80
2, 79707, Control_c, 0, 64, 127
2, 79739, Note_on_c, 0, 69, 0
2, 79739, Note_on_c, 0, 77, 0
2, 79739, Note_on_c, 0, 81, 0
2, 79739, Note_on_c, 0, 65, 0
2, 79790, Control_c, 0, 64, 0
2, 79800, Note_on_c, 0, 63, 67
2, 79800, Note_on_c, 0, 75, 84
2, 79800, Note_on_c, 0, 79, 88
2, 79800, Note_on_c, 0, 67, 71
2, 79820, Control_c, 0, 64, 127
2, 79859, Note_on_c, 0, 67, 0
2, 79859, Note_on_c, 0, 63, 0
2, 79859, Note_on_c, 0, 75, 0
2, 79859, Note_on_c, 0, 79, 0
2, 79914, Control_c, 0, 64, 0
2, 79920, Note_on_c, 0, 74, 88
2, 79920, Note_on_c, 0, 77, 84
2, 79920, Note_on_c, 0, 62, 75
2, 79920, Note_on_c, 0, 65, 84
2, 79949, Control_c, 0, 64, 127
2, 80040, Note_on_c, 0, 65, 0
2, 80040, Note_on_c, 0, 74, 0
2, 80040, Note_on_c, 0, 77, 0
2, 80040, Note_on_c, 0, 62, 0
2, 80156, Control_c, 0, 64, 0
2, 80160, Note_on_c, 0, 74, 88
2, 80160, Note_on_c, 0, 70, 84
2, 80160, Note_on_c, 0, 58, 71
2, 80160, Note_on_c, 0, 62, 84
2, 80186, Control_c, 0, 64, 127
2, 80219, Note_on_c, 0, 62, 0
2, 80219, Note_on_c, 0, 74, 0
2, 80219, Note_on_c, 0, 70, 0
2, 80219, Note_on_c, 0, 58, 0
2, 80273, Control_c, 0, 64, 0
2, 80280, Note_on_c, 0, 75, 71
2, 80280, Note_on_c, 0, 72, 88
2, 80280, Note_on_c, 0, 63, 67
2, 80280, Note_on_c, 0, 60, 71
2, 80301, Control_c, 0, 64, 127
2, 80339, Note_on_c, 0, 60, 0
2, 80339, Note_on_c, 0, 75, 0
2, 80339, Note_on_c, 0, 72, 0
2, 80339, Note_on_c, 0, 63, 0
2, 80391, Control_c, 0, 64, 0
2, 80400, Note_on_c, 0, 77, 84
2, 80400, Note_on_c, 0, 62, 75
2, 80400, Note_on_c, 0, 74, 88
2, 80400, Note_on_c, 0, 65, 67
2, 80425, Control_c, 0, 64, 127
2, 80520, Note_on_c, 0, 65, 0
2, 80520, Note_on_c, 0, 77, 0
2, 80520, Note_on_c, 0, 62, 0
2, 80520, Note_on_c, 0, 74, 0
2, 80580, Note_on_c, 0, 75, 84
2, 80580, Note_on_c, 0, 67, 67
2, 80580, Note_on_c, 0, 79, 84
2, 80580, Note_on_c, 0, 63, 59
2, 80637, Control_c, 0, 64, 0
2, 80639, Note_on_c, 0, 63, 0
2, 80639, Note_on_c, 0, 75, 0
2, 80639, Note_on_c, 0, 67, 0
2, 80639, Note_on_c, 0, 79, 0
2, 80640, Note_on_c, 0, 62, 80
2, 80640, Note_on_c, 0, 77, 93
2, 80640, Note_on_c, 0, 74, 93
2, 80640, Note_on_c, 0, 65, 59
2, 80671, Control_c, 0, 64, 127
2, 80760, Note_on_c, 0, 65, 0
2, 80760, Note_on_c, 0, 62, 0
2, 80760, Note_on_c, 0, 77, 0
2, 80760, Note_on_c, 0, 74, 0
2, 80782, Control_c, 0, 64, 0
2, 80880, Note_on_c, 0, 75, 84
2, 80880, Note_on_c, 0, 72, 67
2, 80891, Control_c, 0, 64, 127
2, 80939, Note_on_c, 0, 75, 0
2, 80940, Note_on_c, 0, 77, 67
2, 80999, Note_on_c, 0, 77, 0
2, 81000, Note_on_c, 0, 72, 0
2, 81000, Note_on_c, 0, 79, 88
2, 81005, Control_c, 0, 64, 0
2, 81044, Control_c, 0, 64, 127
2, 81059, Note_on_c, 0, 79, 0
2, 81060, Note_on_c, 0, 75, 59
2, 81113, Control_c, 0, 64, 0
2, 81119, Note_on_c, 0, 75, 0
2, 81120, Note_on_c, 0, 72, 75
2, 81120, Note_on_c, 0, 69, 75
2, 81156, Control_c, 0, 64, 127
2, 81179, Note_on_c, 0, 72, 0
2, 81180, Note_on_c, 0, 74, 71
2, 81239, Note_on_c, 0, 74, 0
2, 81240, Note_on_c, 0, 69, 0
2, 81240, Note_on_c, 0, 75, 63
2, 81241, Control_c, 0, 64, 0
2, 81299, Note_on_c, 0, 75, 0
2, 81300, Note_on_c, 0, 72, 71
2, 81359, Note_on_c, 0, 72, 0
2, 81360, Note_on_c, 0, 74, 84
2, 81360, Note_on_c, 0, 70, 71
2, 81379, Control_c, 0, 64, 127
2, 81419, Note_on_c, 0, 74, 0
2, 81420, Note_on_c, 0, 75, 63
2, 81471, Control_c, 0, 64, 0
2, 81479, Note_on_c, 0, 75, 0
2, 81480, Note_on_c, 0, 70, 0
2, 81480, Note_on_c, 0, 77, 80
2, 81539, Note_on_c, 0, 77, 0
2, 81540, Note_on_c, 0, 74, 71
2, 81599, Note_on_c, 0, 74, 0
2, 81600, Note_on_c, 0, 70, 75
2, 81600, Note_on_c, 0, 67, 71
2, 81620, Control_c, 0, 64, 127
2, 81659, Note_on_c, 0, 70, 0
2, 81660, Note_on_c, 0, 72, 75
2, 81719, Note_on_c, 0, 72, 0
2, 81720, Note_on_c, 0, 67, 0
2, 81720, Note_on_c, 0, 74, 80
2, 81734, Control_c, 0, 64, 0
2, 81779, Note_on_c, 0, 74, 0
2, 81780, Note_on_c, 0, 70, 71
2, 81839, Note_on_c, 0, 70, 0
2, 81840, Note_on_c, 0, 63, 63
2, 81840, Note_on_c, 0, 67, 88
2, 81899, Note_on_c, 0, 67, 0
2, 81900, Note_on_c, 0, 75, 84
2, 81950, Control_c, 0, 64, 127
2, 81959, Note_on_c, 0, 75, 0
2, 81960, Note_on_c, 0, 63, 0
2, 81960, Note_on_c, 0, 74, 84
2, 81979, Note_on_c, 0, 74, 0
2, 81980, Note_on_c, 0, 75, 71
2, 81999, Note_on_c, 0, 75, 0
2, 82000, Note_on_c, 0, 74, 84
2, 82014, Control_c, 0, 64, 0
2, 82019, Note_on_c, 0, 74, 0
2, 82020, Note_on_c, 0, 72, 75
2, 82079, Note_on_c, 0, 72, 0
2, 82080, Note_on_c, 0, 65, 75
2, 82080, Note_on_c, 0, 72, 71
2, 82083, Control_c, 0, 64, 127
2, 82099, Note_on_c, 0, 72, 0
2, 82100, Note_on_c, 0, 74, 71
2, 82119, Note_on_c, 0, 74, 0
2, 82120, Note_on_c, 0, 72, 84
2, 82139, Note_on_c, 0, 72, 0
2, 82140, Note_on_c, 0, 70, 80
2, 82199, Note_on_c, 0, 70, 0
2, 82200, Note_on_c, 0, 65, 0
2, 82200, Note_on_c, 0, 70, 71
2, 82212, Control_c, 0, 64, 0
2, 82219, Note_on_c, 0, 70, 0
2, 82220, Note_on_c, 0, 72, 71
2, 82239, Note_on_c, 0, 72, 0
2, 82240, Note_on_c, 0, 70, 75
2, 82259, Note_on_c, 0, 70, 0
2, 82260, Note_on_c, 0, 69, 84
2, 82319, Note_on_c, 0, 69, 0
2, 82320, Note_on_c, 0, 58, 75
2, 82320, Note_on_c, 0, 70, 75
2, 82327, Control_c, 0, 64, 127
2, 82379, Note_on_c, 0, 70, 0
2, 82380, Note_on_c, 0, 72, 71
2, 82439, Note_on_c, 0, 72, 0
2, 82440, Note_on_c, 0, 58, 0
2, 82440, Note_on_c, 0, 74, 84
2, 82463, Control_c, 0, 64, 0
2, 82499, Note_on_c, 0, 74, 0
2, 82500, Note_on_c, 0, 75, 75
2, 82559, Note_on_c, 0, 75, 0
2, 82560, Note_on_c, 0, 77, 80
2, 82571, Control_c, 0, 64, 127
2, 82679, Note_on_c, 0, 77, 0
2, 82681, Control_c, 0, 64, 0
2, 84240, Note_on_c, 0, 70, 97
2, 84243, Control_c, 0, 64, 127
2, 84299, Note_on_c, 0, 70, 0
2, 84300, Note_on_c, 0, 65, 80
2, 84359, Note_on_c, 0, 65, 0
2, 84360, Note_on_c, 0, 74, 84
2, 84361, Control_c, 0, 64, 0
2, 84396, Control_c, 0, 64, 127
2, 84419, Note_on_c, 0, 74, 0
2, 84420, Note_on_c, 0, 70, 84
2, 84478, Control_c, 0, 64, 0
2, 84479, Note_on_c, 0, 70, 0
2, 84480, Note_on_c, 0, 72, 84
2, 84511, Control_c, 0, 64, 127
2, 84539, Note_on_c, 0, 72, 0
2, 84540, Note_on_c, 0, 69, 80
2, 84597, Control_c, 0, 64, 0
2, 84599, Note_on_c, 0, 69, 0
2, 84600, Note_on_c, 0, 75, 75
2, 84631, Control_c, 0, 64, 127
2, 84659, Note_on_c, 0, 75, 0
2, 84660, Note_on_c, 0, 72, 84
2, 84706, Control_c, 0, 64, 0
2, 84719, Note_on_c, 0, 72, 0
2, 84720, Note_on_c, 0, 70, 80
2, 84720, Note_on_c, 0, 74, 88
2, 84737, Control_c, 0, 64, 127
2, 84779, Note_on_c, 0, 74, 0
2, 84779, Note_on_c, 0, 70, 0
2, 84780, Note_on_c, 0, 67, 71
2, 84780, Note_on_c, 0, 70, 75
2, 84826, Control_c, 0, 64, 0
2, 84839, Note_on_c, 0, 70, 0
2, 84839, Note_on_c, 0, 67, 0
2, 84840, Note_on_c, 0, 74, 88
2, 84840, Note_on_c, 0, 77, 93
2, 84858, Control_c, 0, 64, 127
2, 84899, Note_on_c, 0, 77, 0
2, 84899, Note_on_c, 0, 74, 0
2, 84900, Note_on_c, 0, 70, 67
2, 84900, Note_on_c, 0, 74, 88
2, 84948, Control_c, 0, 64, 0
2, 84959, Note_on_c, 0, 74, 0
2, 84959, Note_on_c, 0, 70, 0
2, 84960, Note_on_c, 0, 72, 88
2, 84960, Note_on_c, 0, 75, 80
2, 84977, Control_c, 0, 64, 127
2, 85019, Note_on_c, 0, 75, 0
2, 85019, Note_on_c, 0, 72, 0
2, 85020, Note_on_c, 0, 72, 84
2, 85020, Note_on_c, 0, 69, 75
2, 85065, Control_c, 0, 64, 0
2, 85079, Note_on_c, 0, 69, 0
2, 85079, Note_on_c, 0, 72, 0
2, 85080, Note_on_c, 0, 75, 88
2, 85080, Note_on_c, 0, 79, 88
2, 85094, Control_c, 0, 64, 127
2, 85139, Note_on_c, 0, 79, 0
2, 85139, Note_on_c, 0, 75, 0
2, 85140, Note_on_c, 0, 72, 80
2, 85140, Note_on_c, 0, 75, 75
2, 85199, Note_on_c, 0, 75, 0
2, 85199, Note_on_c, 0, 72, 0
2, 85200, Note_on_c, 0, 74, 88
2, 85200, Note_on_c, 0, 77, 88
2, 85208, Control_c, 0, 64, 0
2, 85241, Control_c, 0, 64, 127
2, 85259, Note_on_c, 0, 77, 0
2, 85259, Note_on_c, 0, 74, 0
2, 85320, Note_on_c, 0, 79, 55
2, 85320, Note_on_c, 0, 75, 97
2, 85320, Note_on_c, 0, 81, 102
2, 85320, Note_on_c, 0, 77, 108
2, 85320, Note_on_c, 0, 72, 114
2, 85320, Note_on_c, 0, 65, 84
2, 85320, Note_on_c, 0, 69, 93
2, 85326, Control_c, 0, 64, 0
2, 85367, Control_c, 0, 64, 127
2, 85379, Note_on_c, 0, 79, 0
2, 85500, Note_on_c, 0, 65, 0
2, 85500, Note_on_c, 0, 81, 0
2, 85500, Note_on_c, 0, 77, 0
2, 85500, Note_on_c, 0, 75, 0
2, 85500, Note_on_c, 0, 69, 0
2, 85500, Note_on_c, 0, 72, 0
2, 85553, Control_c, 0, 64, 0
2, 85560, Note_on_c, 0, 70, 55
2, 85560, Note_on_c, 0, 65, 63
2, 85560, Note_on_c, 0, 82, 67
2, 85560, Note_on_c, 0, 77, 80
2, 85560, Note_on_c, 0, 74, 75
2, 85585, Control_c, 0, 64, 127
2, 85619, Note_on_c, 0, 74, 0
2, 85619, Note_on_c, 0, 82, 0
2, 85619, Note_on_c, 0, 70, 0
2, 85619, Note_on_c, 0, 65, 0
2, 85619, Note_on_c, 0, 77, 0
2, 85676, Control_c, 0, 64, 0
2, 85680, Note_on_c, 0, 77, 67
2, 85680, Note_on_c, 0, 69, 63
2, 85680, Note_on_c, 0, 72, 71
2, 85680, Note_on_c, 0, 65, 67
2, 85680, Note_on_c, 0, 81, 71
2, 85706, Control_c, 0, 64, 127
2, 85739, Note_on_c, 0, 81, 0
2, 85739, Note_on_c, 0, 72, 0
2, 85739, Note_on_c, 0, 77, 0
2, 85739, Note_on_c, 0, 69, 0
2, 85739, Note_on_c, 0, 65, 0
2, 85797, Control_c, 0, 64, 0
2, 85800, Note_on_c, 0, 72, 114
2, 85800, Note_on_c, 0, 75, 114
2, 85800, Note_on_c, 0, 81, 114
2, 85800, Note_on_c, 0, 77, 122
2, 85800, Note_on_c, 0, 69, 97
2, 85800, Note_on_c, 0, 65, 88
2, 85920, Control_c, 0, 64, 127
2, 85980, Note_on_c, 0, 65, 0
2, 85980, Note_on_c, 0, 75, 0
2, 85980, Note_on_c, 0, 81, 0
2, 85980, Note_on_c, 0, 72, 0
2, 85980, Note_on_c, 0, 69, 0
2, 85980, Note_on_c, 0, 77, 0
2, 86018, Control_c, 0, 64, 0
2, 86040, Note_on_c, 0, 82, 84
2, 86040, Note_on_c, 0, 74, 84
2, 86040, Note_on_c, 0, 70, 71
2, 86040, Note_on_c, 0, 77, 88
2, 86040, Note_on_c, 0, 65, 63
2, 86047, Control_c, 0, 64, 127
2, 86099, Note_on_c, 0, 65, 0
2, 86099, Note_on_c, 0, 70, 0
2, 86099, Note_on_c, 0, 82, 0
2, 86099, Note_on_c, 0, 74, 0
2, 86099, Note_on_c, 0, 77, 0
2, 86139, Control_c, 0, 64, 0
2, 86160, Note_on_c, 0, 77, 59
2, 86160, Note_on_c, 0, 72, 67
2, 86160, Note_on_c, 0, 69, 75
2, 86160, Note_on_c, 0, 81, 75
2, 86160, Note_on_c, 0, 65, 59
2, 86172, Control_c, 0, 64, 127
2, 86219, Note_on_c, 0, 65, 0
2, 86219, Note_on_c, 0, 69, 0
2, 86219, Note_on_c, 0, 77, 0
2, 86219, Note_on_c, 0, 72, 0
2, 86219, Note_on_c, 0, 81, 0
2, 86247, Control_c, 0, 64, 0
2, 86280, Note_on_c, 0, 72, 102
2, 86280, Note_on_c, 0, 75, 102
2, 86280, Note_on_c, 0, 77, 102
2, 86280, Note_on_c, 0, 81, 108
2, 86280, Note_on_c, 0, 69, 93
2, 86280, Note_on_c, 0, 65, 84
2, 86304, Control_c, 0, 64, 127
2, 86400, Note_on_c, 0, 65, 0
2, 86400, Note_on_c, 0, 75, 0
2, 86400, Note_on_c, 0, 77, 0
2, 86400, Note_on_c, 0, 72, 0
2, 86400, Note_on_c, 0, 69, 0
2, 86400, Note_on_c, 0, 81, 0
2, 86514, Control_c, 0, 64, 0
2, 86520, Note_on_c, 0, 82, 93
2, 86520, Note_on_c, 0, 74, 93
2, 86520, Note_on_c, 0, 65, 84
2, 86520, Note_on_c, 0, 70, 84
2, 86520, Note_on_c, 0, 77, 97
2, 86541, Control_c, 0, 64, 127
2, 86579, Note_on_c, 0, 77, 0
2, 86579, Note_on_c, 0, 65, 0
2, 86579, Note_on_c, 0, 82, 0
2, 86579, Note_on_c, 0, 74, 0
2, 86579, Note_on_c, 0, 70, 0
2, 86624, Control_c, 0, 64, 0
2, 86640, Note_on_c, 0, 77, 88
2, 86640, Note_on_c, 0, 72, 93
2, 86640, Note_on_c, 0, 81, 97
2, 86640, Note_on_c, 0, 65, 84
2, 86640, Note_on_c, 0, 69, 88
2, 86654, Control_c, 0, 64, 127
2, 86699, Note_on_c, 0, 69, 0
2, 86699, Note_on_c, 0, 81, 0
2, 86699, Note_on_c, 0, 77, 0
2, 86699, Note_on_c, 0, 72, 0
2, 86699, Note_on_c, 0, 65, 0
2, 86758, Control_c, 0, 64, 0
2, 87600, Note_on_c, 0, 84, 75
2, 87600, Note_on_c, 0, 72, 57
2, 87615, Control_c, 0, 64, 127
2, 87840, Note_on_c, 0, 72, 0
2, 87840, Note_on_c, 0, 84, 0
2, 87840, Note_on_c, 0, 67, 59
2, 87840, Note_on_c, 0, 79, 75
2, 87859, Control_c, 0, 64, 0
2, 87891, Control_c, 0, 64, 127
2, 87960, Note_on_c, 0, 79, 0
2, 87960, Note_on_c, 0, 67, 0
2, 87960, Note_on_c, 0, 81, 84
2, 87960, Note_on_c, 0, 69, 75
2, 87968, Control_c, 0, 64, 0
2, 88002, Control_c, 0, 64, 127
2, 88080, Note_on_c, 0, 69, 0
2, 88080, Note_on_c, 0, 81, 0
2, 88080, Note_on_c, 0, 82, 84
2, 88080, Note_on_c, 0, 70, 67
2, 88089, Control_c, 0, 64, 0
2, 88121, Control_c, 0, 64, 127
2, 88200, Note_on_c, 0, 82, 0
2, 88260, Note_on_c, 0, 70, 0
2, 88320, Note_on_c, 0, 74, 84
2, 88320, Note_on_c, 0, 62, 67
2, 88331, Control_c, 0, 64, 0
2, 88365, Control_c, 0, 64, 127
2, 88440, Note_on_c, 0, 62, 0
2, 88440, Note_on_c, 0, 74, 0
2, 88440, Note_on_c, 0, 76, 71
2, 88440, Note_on_c, 0, 64, 63
2, 88440, Control_c, 0, 64, 0
2, 88469, Control_c, 0, 64, 127
2, 88550, Control_c, 0, 64, 0
2, 88560, Note_on_c, 0, 64, 0
2, 88560, Note_on_c, 0, 76, 0
2, 88560, Note_on_c, 0, 77, 84
2, 88560, Note_on_c, 0, 65, 71
2, 88581, Control_c, 0, 64, 127
2, 88669, Control_c, 0, 64, 0
2, 88680, Note_on_c, 0, 65, 0
2, 88680, Note_on_c, 0, 77, 0
2, 88680, Note_on_c, 0, 81, 84
2, 88680, Note_on_c, 0, 69, 71
2, 88696, Control_c, 0, 64, 127
2, 88797, Control_c, 0, 64, 0
2, 88800, Note_on_c, 0, 69, 0
2, 88800, Note_on_c, 0, 81, 0
2, 88800, Note_on_c, 0, 79, 88
2, 88800, Note_on_c, 0, 67, 75
2, 88829, Control_c, 0, 64, 127
2, 88920, Note_on_c, 0, 67, 0
2, 88920, Note_on_c, 0, 79, 0
2, 88920, Note_on_c, 0, 84, 84
2, 88920, Note_on_c, 0, 72, 75
2, 88924, Control_c, 0, 64, 0
2, 88952, Control_c, 0, 64, 127
2, 89039, Control_c, 0, 64, 0
2, 89040, Note_on_c, 0, 72, 0
2, 89040, Note_on_c, 0, 84, 0
2, 89040, Note_on_c, 0, 70, 80
2, 89040, Note_on_c, 0, 82, 97
2, 89067, Control_c, 0, 64, 127
2, 89160, Note_on_c, 0, 82, 0
2, 89160, Note_on_c, 0, 70, 0
2, 89160, Note_on_c, 0, 70, 75
2, 89160, Note_on_c, 0, 82, 75
2, 89165, Control_c, 0, 64, 0
2, 89174, Note_on_c, 0, 82, 0
2, 89174, Note_on_c, 0, 70, 0
2, 89175, Note_on_c, 0, 69, 75
2, 89175, Note_on_c, 0, 81, 80
2, 89189, Note_on_c, 0, 81, 0
2, 89189, Note_on_c, 0, 69, 0
2, 89190, Note_on_c, 0, 70, 67
2, 89190, Note_on_c, 0, 82, 67
2, 89204, Note_on_c, 0, 82, 0
2, 89204, Note_on_c, 0, 70, 0
2, 89205, Note_on_c, 0, 81, 88
2, 89205, Note_on_c, 0, 69, 71
2, 89219, Note_on_c, 0, 69, 0
2, 89219, Note_on_c, 0, 81, 0
2, 89220, Note_on_c, 0, 82, 71
2, 89220, Note_on_c, 0, 70, 71
2, 89234, Note_on_c, 0, 70, 0
2, 89234, Note_on_c, 0, 82, 0
2, 89235, Note_on_c, 0, 69, 75
2, 89235, Note_on_c, 0, 81, 75
2, 89249, Note_on_c, 0, 81, 0
2, 89249, Note_on_c, 0, 69, 0
2, 89250, Note_on_c, 0, 67, 71
2, 89250, Note_on_c, 0, 79, 80
2, 89264, Note_on_c, 0, 79, 0
2, 89264, Note_on_c, 0, 67, 0
2, 89265, Note_on_c, 0, 81, 75
2, 89265, Note_on_c, 0, 69, 80
2, 89279, Note_on_c, 0, 69, 0
2, 89279, Note_on_c, 0, 81, 0
2, 89280, Note_on_c, 0, 67, 84
2, 89280, Note_on_c, 0, 79, 80
2, 89399, Note_on_c, 0, 79, 0
2, 89399, Note_on_c, 0, 67, 0
2, 89520, Note_on_c, 0, 84, 84
2, 89520, Note_on_c, 0, 72, 80
2, 89539, Control_c, 0, 64, 127
2, 89760, Note_on_c, 0, 72, 0
2, 89760, Note_on_c, 0, 84, 0
2, 89760, Note_on_c, 0, 79, 84
2, 89760, Note_on_c, 0, 67, 59
2, 89773, Control_c, 0, 64, 0
2, 89808, Control_c, 0, 64, 127
2, 89878, Control_c, 0, 64, 0
2, 89880, Note_on_c, 0, 67, 0
2, 89880, Note_on_c, 0, 79, 0
2, 89880, Note_on_c, 0, 81, 84
2, 89880, Note_on_c, 0, 69, 80
2, 89911, Control_c, 0, 64, 127
2, 89995, Control_c, 0, 64, 0
2, 90000, Note_on_c, 0, 69, 0
2, 90000, Note_on_c, 0, 81, 0
2, 90000, Note_on_c, 0, 70, 71
2, 90000, Note_on_c, 0, 82, 80
2, 90026, Control_c, 0, 64, 127
2, 90120, Note_on_c, 0, 82, 0
2, 90120, Note_on_c, 0, 70, 0
2, 90240, Note_on_c, 0, 74, 80
2, 90240, Note_on_c, 0, 62, 71
2, 90241, Control_c, 0, 64, 0
2, 90273, Control_c, 0, 64, 127
2, 90356, Control_c, 0, 64, 0
2, 90360, Note_on_c, 0, 62, 0
2, 90360, Note_on_c, 0, 74, 0
2, 90360, Note_on_c, 0, 64, 75
2, 90360, Note_on_c, 0, 76, 93
2, 90384, Control_c, 0, 64, 127
2, 90419, Note_on_c, 0, 76, 0
2, 90419, Note_on_c, 0, 64, 0
2, 90466, Control_c, 0, 64, 0
2, 90480, Note_on_c, 0, 65, 88
2, 90480, Note_on_c, 0, 69, 84
2, 90498, Control_c, 0, 64, 127
2, 90524, Control_c, 0, 64, 0
2, 90539, Note_on_c, 0, 69, 0
2, 90539, Note_on_c, 0, 65, 0
2, 90540, Note_on_c, 0, 77, 108
2, 90540, Note_on_c, 0, 81, 102
2, 90599, Note_on_c, 0, 81, 0
2, 90599, Note_on_c, 0, 77, 0
2, 90600, Note_on_c, 0, 65, 84
2, 90600, Note_on_c, 0, 69, 84
2, 90602, Control_c, 0, 64, 127
2, 90648, Control_c, 0, 64, 0
2, 90659, Note_on_c, 0, 69, 0
2, 90659, Note_on_c, 0, 65, 0
2, 90660, Note_on_c, 0, 77, 108
2, 90660, Note_on_c, 0, 81, 102
2, 90717, Control_c, 0, 64, 127
2, 90719, Note_on_c, 0, 81, 0
2, 90719, Note_on_c, 0, 77, 0
2, 90720, Note_on_c, 0, 65, 71
2, 90720, Note_on_c, 0, 69, 84
2, 90756, Control_c, 0, 64, 0
2, 90779, Note_on_c, 0, 69, 0
2, 90779, Note_on_c, 0, 65, 0
2, 90780, Note_on_c, 0, 77, 108
2, 90780, Note_on_c, 0, 81, 108
2, 90839, Note_on_c, 0, 81, 0
2, 90839, Note_on_c, 0, 77, 0
2, 90840, Note_on_c, 0, 65, 75
2, 90840, Note_on_c, 0, 69, 80
2, 90842, Control_c, 0, 64, 127
2, 90899, Note_on_c, 0, 69, 0
2, 90899, Note_on_c, 0, 65, 0
2, 90900, Note_on_c, 0, 77, 108
2, 90900, Note_on_c, 0, 81, 93
2, 90903, Control_c, 0, 64, 0
2, 90959, Note_on_c, 0, 81, 0
2, 90959, Note_on_c, 0, 77, 0
2, 90960, Note_on_c, 0, 65, 75
2, 90960, Note_on_c, 0, 69, 80
2, 90966, Control_c, 0, 64, 127
2, 91015, Control_c, 0, 64, 0
2, 91019, Note_on_c, 0, 69, 0
2, 91019, Note_on_c, 0, 65, 0
2, 91020, Note_on_c, 0, 77, 102
2, 91020, Note_on_c, 0, 81, 97
2, 91079, Note_on_c, 0, 81, 0
2, 91079, Note_on_c, 0, 77, 0
2, 91080, Note_on_c, 0, 65, 67
2, 91080, Note_on_c, 0, 69, 75
2, 91084, Control_c, 0, 64, 127
2, 91139, Note_on_c, 0, 69, 0
2, 91139, Note_on_c, 0, 65, 0
2, 91140, Note_on_c, 0, 77, 102
2, 91140, Note_on_c, 0, 81, 97
2, 91152, Control_c, 0, 64, 0
2, 91199, Note_on_c, 0, 81, 0
2, 91199, Note_on_c, 0, 77, 0
2, 91200, Note_on_c, 0, 65, 67
2, 91200, Note_on_c, 0, 69, 80
2, 91209, Control_c, 0, 64, 127
2, 91247, Control_c, 0, 64, 0
2, 91259, Note_on_c, 0, 69, 0
2, 91259, Note_on_c, 0, 65, 0
2, 91260, Note_on_c, 0, 77, 108
2, 91260, Note_on_c, 0, 81, 102
2, 91319, Note_on_c, 0, 81, 0
2, 91319, Note_on_c, 0, 77, 0
2, 91320, Note_on_c, 0, 65, 71
2, 91320, Note_on_c, 0, 69, 84
2, 91322, Control_c, 0, 64, 127
2, 91379, Note_on_c, 0, 69, 0
2, 91379, Note_on_c, 0, 65, 0
2, 91380, Note_on_c, 0, 77, 102
2, 91380, Note_on_c, 0, 81, 102
2, 91382, Control_c, 0, 64, 0
2, 91439, Note_on_c, 0, 81, 0
2, 91439, Note_on_c, 0, 77, 0
2, 91440, Note_on_c, 0, 65, 84
2, 91440, Note_on_c, 0, 67, 84
2, 91446, Control_c, 0, 64, 127
2, 91499, Note_on_c, 0, 67, 0
2, 91499, Note_on_c, 0, 65, 0
2, 91500, Note_on_c, 0, 77, 102
2, 91500, Note_on_c, 0, 79, 108
2, 91519, Control_c, 0, 64, 0
2, 91559, Note_on_c, 0, 79, 0
2, 91559, Note_on_c, 0, 77, 0
2, 91560, Note_on_c, 0, 65, 67
2, 91560, Note_on_c, 0, 67, 80
2, 91567, Control_c, 0, 64, 127
2, 91619, Note_on_c, 0, 67, 0
2, 91619, Note_on_c, 0, 65, 0
2, 91620, Note_on_c, 0, 77, 102
2, 91620, Note_on_c, 0, 79, 93
2, 91649, Control_c, 0, 64, 0
2, 91679, Note_on_c, 0, 79, 0
2, 91679, Note_on_c, 0, 77, 0
2, 91680, Note_on_c, 0, 65, 71
2, 91680, Note_on_c, 0, 67, 80
2, 91690, Control_c, 0, 64, 127
2, 91739, Note_on_c, 0, 67, 0
2, 91739, Note_on_c, 0, 65, 0
2, 91740, Note_on_c, 0, 77, 102
2, 91740, Note_on_c, 0, 79, 102
2, 91753, Control_c, 0, 64, 0
2, 91799, Note_on_c, 0, 79, 0
2, 91799, Note_on_c, 0, 77, 0
2, 91800, Note_on_c, 0, 65, 71
2, 91800, Note_on_c, 0, 67, 84
2, 91810, Control_c, 0, 64, 127
2, 91859, Note_on_c, 0, 67, 0
2, 91859, Note_on_c, 0, 65, 0
2, 91860, Note_on_c, 0, 77, 108
2, 91860, Note_on_c, 0, 79, 102
2, 91905, Control_c, 0, 64, 0
2, 91919, Note_on_c, 0, 79, 0
2, 91919, Note_on_c, 0, 77, 0
2, 91920, Note_on_c, 0, 64, 71
2, 91920, Note_on_c, 0, 67, 84
2, 91942, Control_c, 0, 64, 127
2, 91979, Note_on_c, 0, 67, 0
2, 91979, Note_on_c, 0, 64, 0
2, 91980, Note_on_c, 0, 76, 108
2, 91980, Note_on_c, 0, 79, 97
2, 91996, Control_c, 0, 64, 0
2, 92039, Note_on_c, 0, 79, 0
2, 92039, Note_on_c, 0, 76, 0
2, 92040, Note_on_c, 0, 64, 67
2, 92040, Note_on_c, 0, 67, 75
2, 92047, Control_c, 0, 64, 127
2, 92099, Note_on_c, 0, 67, 0
2, 92099, Note_on_c, 0, 64, 0
2, 92100, Note_on_c, 0, 76, 102
2, 92100, Note_on_c, 0, 79, 93
2, 92126, Control_c, 0, 64, 0
2, 92159, Note_on_c, 0, 79, 0
2, 92159, Note_on_c, 0, 76, 0
2, 92160, Note_on_c, 0, 64, 71
2, 92160, Note_on_c, 0, 67, 67
2, 92169, Control_c, 0, 64, 127
2, 92219, Note_on_c, 0, 67, 0
2, 92219, Note_on_c, 0, 64, 0
2, 92220, Note_on_c, 0, 76, 102
2, 92220, Note_on_c, 0, 79, 88
2, 92244, Control_c, 0, 64, 0
2, 92279, Note_on_c, 0, 79, 0
2, 92279, Note_on_c, 0, 76, 0
2, 92280, Note_on_c, 0, 64, 71
2, 92280, Note_on_c, 0, 67, 75
2, 92294, Control_c, 0, 64, 127
2, 92339, Note_on_c, 0, 67, 0
2, 92339, Note_on_c, 0, 64, 0
2, 92340, Note_on_c, 0, 76, 88
2, 92340, Note_on_c, 0, 79, 75
2, 92371, Control_c, 0, 64, 0
2, 92399, Note_on_c, 0, 79, 0
2, 92399, Note_on_c, 0, 76, 0
2, 92400, Note_on_c, 0, 65, 54
2, 92400, Note_on_c, 0, 69, 55
2, 92419, Control_c, 0, 64, 127
2, 92459, Note_on_c, 0, 69, 0
2, 92459, Note_on_c, 0, 65, 0
2, 92460, Note_on_c, 0, 77, 67
2, 92460, Note_on_c, 0, 81, 63
2, 92496, Control_c, 0, 64, 0
2, 92519, Note_on_c, 0, 81, 0
2, 92519, Note_on_c, 0, 77, 0
2, 92520, Note_on_c, 0, 65, 51
2, 92520, Note_on_c, 0, 69, 54
2, 92536, Control_c, 0, 64, 127
2, 92579, Note_on_c, 0, 69, 0
2, 92579, Note_on_c, 0, 65, 0
2, 92580, Note_on_c, 0, 77, 67
2, 92580, Note_on_c, 0, 81, 63
2, 92601, Control_c, 0, 64, 0
2, 92639, Note_on_c, 0, 81, 0
2, 92639, Note_on_c, 0, 77, 0
2, 92640, Note_on_c, 0, 65, 52
2, 92640, Note_on_c, 0, 69, 59
2, 92656, Control_c, 0, 64, 127
2, 92699, Note_on_c, 0, 69, 0
2, 92699, Note_on_c, 0, 65, 0
2, 92700, Note_on_c, 0, 77, 84
2, 92700, Note_on_c, 0, 81, 67
2, 92721, Control_c, 0, 64, 0
2, 92759, Note_on_c, 0, 81, 0
2, 92759, Note_on_c, 0, 77, 0
2, 92760, Note_on_c, 0, 65, 47
2, 92760, Note_on_c, 0, 69, 55
2, 92775, Control_c, 0, 64, 127
2, 92819, Note_on_c, 0, 69, 0
2, 92819, Note_on_c, 0, 65, 0
2, 92820, Note_on_c, 0, 77, 84
2, 92820, Note_on_c, 0, 81, 67
2, 92840, Control_c, 0, 64, 0
2, 92879, Note_on_c, 0, 81, 0
2, 92879, Note_on_c, 0, 77, 0
2, 92880, Note_on_c, 0, 65, 50
2, 92880, Note_on_c, 0, 69, 59
2, 92896, Control_c, 0, 64, 127
2, 92939, Note_on_c, 0, 69, 0
2, 92939, Note_on_c, 0, 65, 0
2, 92940, Note_on_c, 0, 77, 84
2, 92940, Note_on_c, 0, 81, 71
2, 92951, Control_c, 0, 64, 0
2, 92999, Note_on_c, 0, 81, 0
2, 92999, Note_on_c, 0, 77, 0
2, 93000, Note_on_c, 0, 65, 52
2, 93000, Note_on_c, 0, 69, 67
2, 93015, Control_c, 0, 64, 127
2, 93059, Note_on_c, 0, 69, 0
2, 93059, Note_on_c, 0, 65, 0
2, 93060, Note_on_c, 0, 77, 88
2, 93060, Note_on_c, 0, 81, 75
2, 93085, Control_c, 0, 64, 0
2, 93119, Note_on_c, 0, 81, 0
2, 93119, Note_on_c, 0, 77, 0
2, 93120, Note_on_c, 0, 65, 57
2, 93120, Note_on_c, 0, 69, 71
2, 93133, Control_c, 0, 64, 127
2, 93179, Note_on_c, 0, 69, 0
2, 93179, Note_on_c, 0, 65, 0
2, 93180, Note_on_c, 0, 77, 88
2, 93180, Note_on_c, 0, 81, 75
2, 93196, Control_c, 0, 64, 0
2, 93239, Note_on_c, 0, 81, 0
2, 93239, Note_on_c, 0, 77, 0
2, 93240, Note_on_c, 0, 65, 52
2, 93240, Note_on_c, 0, 69, 71
2, 93251, Control_c, 0, 64, 127
2, 93299, Note_on_c, 0, 69, 0
2, 93299, Note_on_c, 0, 65, 0
2, 93300, Note_on_c, 0, 77, 84
2, 93300, Note_on_c, 0, 81, 84
2, 93323, Control_c, 0, 64, 0
2, 93359, Note_on_c, 0, 81, 0
2, 93359, Note_on_c, 0, 77, 0
2, 93360, Note_on_c, 0, 65, 57
2, 93360, Note_on_c, 0, 67, 67
2, 93377, Control_c, 0, 64, 127
2, 93419, Note_on_c, 0, 67, 0
2, 93419, Note_on_c, 0, 65, 0
2, 93420, Note_on_c, 0, 77, 97
2, 93420, Note_on_c, 0, 79, 84
2, 93434, Control_c, 0, 64, 0
2, 93479, Note_on_c, 0, 79, 0
2, 93479, Note_on_c, 0, 77, 0
2, 93480, Note_on_c, 0, 65, 52
2, 93480, Note_on_c, 0, 67, 75
2, 93491, Control_c, 0, 64, 127
2, 93539, Note_on_c, 0, 67, 0
2, 93539, Note_on_c, 0, 65, 0
2, 93540, Note_on_c, 0, 77, 97
2, 93540, Note_on_c, 0, 79, 88
2, 93549, Control_c, 0, 64, 0
2, 93599, Note_on_c, 0, 79, 0
2, 93599, Note_on_c, 0, 77, 0
2, 93600, Note_on_c, 0, 65, 47
2, 93600, Note_on_c, 0, 67, 71
2, 93611, Control_c, 0, 64, 127
2, 93659, Note_on_c, 0, 67, 0
2, 93659, Note_on_c, 0, 65, 0
2, 93660, Note_on_c, 0, 77, 93
2, 93660, Note_on_c, 0, 79, 88
2, 93671, Control_c, 0, 64, 0
2, 93719, Note_on_c, 0, 79, 0
2, 93719, Note_on_c, 0, 77, 0
2, 93720, Note_on_c, 0, 65, 51
2, 93720, Note_on_c, 0, 67, 71
2, 93734, Control_c, 0, 64, 127
2, 93779, Note_on_c, 0, 67, 0
2, 93779, Note_on_c, 0, 65, 0
2, 93780, Note_on_c, 0, 77, 84
2, 93780, Note_on_c, 0, 79, 80
2, 93807, Control_c, 0, 64, 0
2, 93839, Note_on_c, 0, 79, 0
2, 93839, Note_on_c, 0, 77, 0
2, 93840, Note_on_c, 0, 64, 75
2, 93840, Note_on_c, 0, 67, 71
2, 93862, Control_c, 0, 64, 127
2, 93899, Note_on_c, 0, 67, 0
2, 93899, Note_on_c, 0, 64, 0
2, 93900, Note_on_c, 0, 76, 84
2, 93900, Note_on_c, 0, 79, 93
2, 93910, Control_c, 0, 64, 0
2, 93959, Note_on_c, 0, 79, 0
2, 93959, Note_on_c, 0, 76, 0
2, 93960, Note_on_c, 0, 64, 71
2, 93960, Note_on_c, 0, 67, 75
2, 93973, Control_c, 0, 64, 127
2, 94019, Note_on_c, 0, 67, 0
2, 94019, Note_on_c, 0, 64, 0
2, 94020, Note_on_c, 0, 76, 84
2, 94020, Note_on_c, 0, 79, 88
2, 94043, Control_c, 0, 64, 0
2, 94079, Note_on_c, 0, 79, 0
2, 94079, Note_on_c, 0, 76, 0
2, 94080, Note_on_c, 0, 64, 71
2, 94080, Note_on_c, 0, 67, 71
2, 94102, Control_c, 0, 64, 127
2, 94139, Note_on_c, 0, 67, 0
2, 94139, Note_on_c, 0, 64, 0
2, 94140, Note_on_c, 0, 76, 67
2, 94140, Note_on_c, 0, 79, 75
2, 94182, Control_c, 0, 64, 0
2, 94199, Note_on_c, 0, 79, 0
2, 94199, Note_on_c, 0, 76, 0
2, 94200, Note_on_c, 0, 64, 71
2, 94200, Note_on_c, 0, 67, 67
2, 94227, Control_c, 0, 64, 127
2, 94259, Note_on_c, 0, 67, 0
2, 94259, Note_on_c, 0, 64, 0
2, 94260, Note_on_c, 0, 76, 71
2, 94260, Note_on_c, 0, 79, 75
2, 94285, Control_c, 0, 64, 0
2, 94319, Note_on_c, 0, 79, 0
2, 94319, Note_on_c, 0, 76, 0
2, 94320, Note_on_c, 0, 65, 67
2, 94320, Note_on_c, 0, 81, 59
2, 94350, Note_on_c, 0, 81, 0
2, 94350, Note_on_c, 0, 65, 0
2, 94380, Note_on_c, 0, 82, 67
2, 94380, Note_on_c, 0, 67, 71
2, 94410, Note_on_c, 0, 67, 0
2, 94410, Note_on_c, 0, 82, 0
2, 94440, Note_on_c, 0, 69, 75
2, 94440, Note_on_c, 0, 84, 80
2, 94470, Note_on_c, 0, 84, 0
2, 94470, Note_on_c, 0, 69, 0
2, 94500, Note_on_c, 0, 67, 71
2, 94500, Note_on_c, 0, 82, 71
2, 94530, Note_on_c, 0, 82, 0
2, 94530, Note_on_c, 0, 67, 0
2, 94560, Note_on_c, 0, 65, 80
2, 94560, Note_on_c, 0, 81, 80
2, 94575, Control_c, 0, 64, 127
2, 94590, Note_on_c, 0, 81, 0
2, 94590, Note_on_c, 0, 65, 0
2, 94620, Note_on_c, 0, 79, 67
2, 94620, Note_on_c, 0, 64, 67
2, 94650, Note_on_c, 0, 64, 0
2, 94650, Note_on_c, 0, 79, 0
2, 94664, Control_c, 0, 64, 0
2, 94680, Note_on_c, 0, 62, 67
2, 94680, Note_on_c, 0, 77, 67
2, 94699, Control_c, 0, 64, 127
2, 94710, Note_on_c, 0, 77, 0
2, 94710, Note_on_c, 0, 62, 0
2, 94740, Note_on_c, 0, 76, 75
2, 94740, Note_on_c, 0, 60, 75
2, 94770, Note_on_c, 0, 60, 0
2, 94770, Note_on_c, 0, 76, 0
2, 94792, Control_c, 0, 64, 0
2, 94800, Note_on_c, 0, 62, 75
2, 94800, Note_on_c, 0, 77, 80
2, 94827, Control_c, 0, 64, 127
2, 94859, Note_on_c, 0, 77, 0
2, 94859, Note_on_c, 0, 62, 0
2, 94860, Note_on_c, 0, 64, 80
2, 94860, Note_on_c, 0, 79, 88
2, 94889, Control_c, 0, 64, 0
2, 94919, Note_on_c, 0, 79, 0
2, 94919, Note_on_c, 0, 64, 0
2, 94920, Note_on_c, 0, 81, 75
2, 94920, Note_on_c, 0, 65, 67
2, 94931, Control_c, 0, 64, 127
2, 94979, Note_on_c, 0, 65, 0
2, 94979, Note_on_c, 0, 81, 0
2, 94980, Note_on_c, 0, 79, 80
2, 94980, Note_on_c, 0, 64, 67
2, 95021, Control_c, 0, 64, 0
2, 95039, Note_on_c, 0, 64, 0
2, 95039, Note_on_c, 0, 79, 0
2, 95040, Note_on_c, 0, 77, 75
2, 95040, Note_on_c, 0, 62, 71
2, 95058, Control_c, 0, 64, 127
2, 95099, Note_on_c, 0, 62, 0
2, 95099, Note_on_c, 0, 77, 0
2, 95100, Note_on_c, 0, 76, 71
2, 95100, Note_on_c, 0, 60, 48
2, 95145, Control_c, 0, 64, 0
2, 95159, Note_on_c, 0, 60, 0
2, 95159, Note_on_c, 0, 76, 0
2, 95160, Note_on_c, 0, 58, 57
2, 95160, Note_on_c, 0, 74, 75
2, 95178, Control_c, 0, 64, 127
2, 95219, Note_on_c, 0, 74, 0
2, 95219, Note_on_c, 0, 58, 0
2, 95220, Note_on_c, 0, 57, 67
2, 95220, Note_on_c, 0, 73, 63
2, 95264, Control_c, 0, 64, 0
2, 95279, Note_on_c, 0, 73, 0
2, 95279, Note_on_c, 0, 57, 0
2, 95280, Note_on_c, 0, 58, 59
2, 95280, Note_on_c, 0, 74, 84
2, 95299, Control_c, 0, 64, 127
2, 95339, Note_on_c, 0, 74, 0
2, 95339, Note_on_c, 0, 58, 0
2, 95340, Note_on_c, 0, 76, 80
2, 95340, Note_on_c, 0, 60, 67
2, 95349, Control_c, 0, 64, 0
2, 95399, Note_on_c, 0, 60, 0
2, 95399, Note_on_c, 0, 76, 0
2, 95400, Note_on_c, 0, 77, 84
2, 95400, Note_on_c, 0, 62, 84
2, 95401, Control_c, 0, 64, 127
2, 95459, Note_on_c, 0, 62, 0
2, 95459, Note_on_c, 0, 77, 0
2, 95460, Note_on_c, 0, 79, 84
2, 95460, Note_on_c, 0, 64, 75
2, 95510, Control_c, 0, 64, 0
2, 95519, Note_on_c, 0, 64, 0
2, 95519, Note_on_c, 0, 79, 0
2, 95520, Note_on_c, 0, 65, 75
2, 95520, Note_on_c, 0, 81, 75
2, 95550, Control_c, 0, 64, 127
2, 95579, Note_on_c, 0, 81, 0
2, 95579, Note_on_c, 0, 65, 0
2, 95580, Note_on_c, 0, 67, 71
2, 95580, Note_on_c, 0, 82, 80
2, 95617, Control_c, 0, 64, 0
2, 95639, Note_on_c, 0, 82, 0
2, 95639, Note_on_c, 0, 67, 0
2, 95640, Note_on_c, 0, 69, 71
2, 95640, Note_on_c, 0, 84, 84
2, 95651, Control_c, 0, 64, 127
2, 95699, Note_on_c, 0, 84, 0
2, 95699, Note_on_c, 0, 69, 0
2, 95700, Note_on_c, 0, 70, 55
2, 95700, Note_on_c, 0, 86, 88
2, 95744, Control_c, 0, 64, 0
2, 95759, Note_on_c, 0, 86, 0
2, 95759, Note_on_c, 0, 70, 0
2, 95760, Note_on_c, 0, 84, 88
2, 95760, Note_on_c, 0, 69, 84
2, 95778, Control_c, 0, 64, 127
2, 95819, Note_on_c, 0, 69, 0
2, 95819, Note_on_c, 0, 84, 0
2, 95870, Control_c, 0, 64, 0
2, 95880, Note_on_c, 0, 69, 80
2, 95880, Note_on_c, 0, 81, 97
2, 95880, Note_on_c, 0, 77, 93
2, 95880, Note_on_c, 0, 65, 80
2, 95902, Control_c, 0, 64, 127
2, 95939, Note_on_c, 0, 65, 0
2, 95939, Note_on_c, 0, 69, 0
2, 95939, Note_on_c, 0, 81, 0
2, 95939, Note_on_c, 0, 77, 0
2, 95988, Control_c, 0, 64, 0
2, 96000, Note_on_c, 0, 67, 75
2, 96000, Note_on_c, 0, 79, 93
2, 96000, Note_on_c, 0, 82, 88
2, 96000, Note_on_c, 0, 70, 71
2, 96018, Control_c, 0, 64, 127
2, 96059, Note_on_c, 0, 70, 0
2, 96059, Note_on_c, 0, 67, 0
2, 96059, Note_on_c, 0, 79, 0
2, 96059, Note_on_c, 0, 82, 0
2, 96102, Control_c, 0, 64, 0
2, 96120, Note_on_c, 0, 79, 88
2, 96120, Note_on_c, 0, 76, 84
2, 96120, Note_on_c, 0, 67, 75
2, 96120, Note_on_c, 0, 64, 75
2, 96133, Control_c, 0, 64, 127
2, 96179, Note_on_c, 0, 64, 0
2, 96179, Note_on_c, 0, 79, 0
2, 96179, Note_on_c, 0, 76, 0
2, 96179, Note_on_c, 0, 67, 0
2, 96219, Control_c, 0, 64, 0
2, 96240, Note_on_c, 0, 77, 93
2, 96240, Note_on_c, 0, 65, 84
2, 96240, Note_on_c, 0, 81, 97
2, 96240, Note_on_c, 0, 69, 88
2, 96249, Control_c, 0, 64, 127
2, 96299, Note_on_c, 0, 69, 0
2, 96299, Note_on_c, 0, 77, 0
2, 96299, Note_on_c, 0, 65, 0
2, 96299, Note_on_c, 0, 81, 0
2, 96350, Control_c, 0, 64, 0
2, 97800, Note_on_c, 0, 81, 102
2, 97800, Note_on_c, 0, 77, 102
2, 97800, Note_on_c, 0, 65, 84
2, 97800, Note_on_c, 0, 69, 93
2, 97802, Control_c, 0, 64, 127
2, 97859, Note_on_c, 0, 69, 0
2, 97859, Note_on_c, 0, 81, 0
2, 97859, Note_on_c, 0, 77, 0
2, 97859, Note_on_c, 0, 65, 0
2, 97913, Control_c, 0, 64, 0
2, 97920, Note_on_c, 0, 79, 102
2, 97920, Note_on_c, 0, 82, 93
2, 97920, Note_on_c, 0, 67, 84
2, 97920, Note_on_c, 0, 70, 84
2, 97943, Control_c, 0, 64, 127
2, 97979, Note_on_c, 0, 70, 0
2, 97979, Note_on_c, 0, 79, 0
2, 97979, Note_on_c, 0, 82, 0
2, 97979, Note_on_c, 0, 67, 0
2, 98033, Control_c, 0, 64, 0
2, 98040, Note_on_c, 0, 79, 93
2, 98040, Note_on_c, 0, 76, 102
2, 98040, Note_on_c, 0, 67, 84
2, 98040, Note_on_c, 0, 64, 88
2, 98066, Control_c, 0, 64, 127
2, 98099, Note_on_c, 0, 64, 0
2, 98099, Note_on_c, 0, 79, 0
2, 98099, Note_on_c, 0, 76, 0
2, 98099, Note_on_c, 0, 67, 0
2, 98156, Control_c, 0, 64, 0
2, 98160, Note_on_c, 0, 77, 93
2, 98160, Note_on_c, 0, 65, 84
2, 98186, Control_c, 0, 64, 127
2, 98219, Note_on_c, 0, 65, 0
2, 98219, Note_on_c, 0, 77, 0
2, 98276, Control_c, 0, 64, 0
2, 98280, Note_on_c, 0, 84, 114
2, 98280, Note_on_c, 0, 72, 108
2, 98319, Control_c, 0, 64, 127
2, 98460, Note_on_c, 0, 72, 0
2, 98517, Control_c, 0, 64, 0
2, 98520, Note_on_c, 0, 84, 0
2, 98520, Note_on_c, 0, 69, 80
2, 98520, Note_on_c, 0, 81, 80
2, 98553, Control_c, 0, 64, 127
2, 98579, Note_on_c, 0, 81, 0
2, 98579, Note_on_c, 0, 69, 0
2, 98580, Note_on_c, 0, 64, 63
2, 98580, Note_on_c, 0, 76, 67
2, 98623, Control_c, 0, 64, 0
2, 98639, Note_on_c, 0, 76, 0
2, 98639, Note_on_c, 0, 64, 0
2, 98640, Note_on_c, 0, 65, 57
2, 98640, Note_on_c, 0, 77, 80
2, 98651, Control_c, 0, 64, 127
2, 98699, Note_on_c, 0, 77, 0
2, 98699, Note_on_c, 0, 65, 0
2, 98751, Control_c, 0, 64, 0
2, 98760, Note_on_c, 0, 84, 114
2, 98760, Note_on_c, 0, 72, 102
2, 98790, Control_c, 0, 64, 127
2, 98880, Note_on_c, 0, 72, 0
2, 98880, Note_on_c, 0, 84, 0
2, 98983, Control_c, 0, 64, 0
2, 99000, Note_on_c, 0, 81, 84
2, 99000, Note_on_c, 0, 69, 75
2, 99017, Control_c, 0, 64, 127
2, 99059, Note_on_c, 0, 69, 0
2, 99059, Note_on_c, 0, 81, 0
2, 99060, Note_on_c, 0, 64, 84
2, 99060, Note_on_c, 0, 76, 75
2, 99100, Control_c, 0, 64, 0
2, 99119, Note_on_c, 0, 76, 0
2, 99119, Note_on_c, 0, 64, 0
2, 99120, Note_on_c, 0, 65, 71
2, 99120, Note_on_c, 0, 77, 84
2, 99131, Control_c, 0, 64, 127
2, 99179, Note_on_c, 0, 77, 0
2, 99179, Note_on_c, 0, 65, 0
2, 99235, Control_c, 0, 64, 0
2, 99240, Note_on_c, 0, 53, 93
2, 99271, Control_c, 0, 64, 127
2, 99300, Note_on_c, 0, 65, 97
2, 99350, Control_c, 0, 64, 0
2, 99359, Note_on_c, 0, 65, 0
2, 99360, Note_on_c, 0, 53, 0
2, 99360, Note_on_c, 0, 55, 84
2, 99388, Control_c, 0, 64, 127
2, 99420, Note_on_c, 0, 67, 97
2, 99469, Control_c, 0, 64, 0
2, 99479, Note_on_c, 0, 67, 0
2, 99480, Note_on_c, 0, 55, 0
2, 99480, Note_on_c, 0, 57, 88
2, 99502, Control_c, 0, 64, 127
2, 99540, Note_on_c, 0, 69, 93
2, 99585, Control_c, 0, 64, 0
2, 99599, Note_on_c, 0, 69, 0
2, 99600, Note_on_c, 0, 57, 0
2, 99600, Note_on_c, 0, 58, 88
2, 99616, Control_c, 0, 64, 127
2, 99660, Note_on_c, 0, 70, 102
2, 99683, Control_c, 0, 64, 0
2, 99719, Note_on_c, 0, 70, 0
2, 99719, Control_c, 0, 64, 127
2, 99720, Note_on_c, 0, 58, 0
2, 99720, Note_on_c, 0, 60, 88
2, 99780, Note_on_c, 0, 72, 93
2, 99787, Control_c, 0, 64, 0
2, 99817, Control_c, 0, 64, 127
2, 99839, Note_on_c, 0, 72, 0
2, 99840, Note_on_c, 0, 60, 0
2, 99840, Note_on_c, 0, 62, 93
2, 99897, Control_c, 0, 64, 0
2, 99900, Note_on_c, 0, 74, 102
2, 99935, Control_c, 0, 64, 127
2, 99959, Note_on_c, 0, 74, 0
2, 99960, Note_on_c, 0, 62, 0
2, 99960, Note_on_c, 0, 63, 88
2, 99990, Control_c, 0, 64, 0
2, 100019, Note_on_c, 0, 63, 0
2, 100020, Note_on_c, 0, 75, 114
2, 100024, Control_c, 0, 64, 127
2, 100071, Control_c, 0, 64, 0
2, 100079, Note_on_c, 0, 75, 0
2, 100080, Note_on_c, 0, 77, 88
2, 100080, Note_on_c, 0, 74, 93
2, 100080, Note_on_c, 0, 62, 84
2, 100080, Note_on_c, 0, 65, 84
2, 100111, Control_c, 0, 64, 127
2, 100200, Note_on_c, 0, 62, 0
2, 100200, Note_on_c, 0, 77, 0
2, 100200, Note_on_c, 0, 74, 0
2, 100260, Note_on_c, 0, 65, 0
2, 100317, Control_c, 0, 64, 0
2, 100320, Note_on_c, 0, 62, 75
2, 100320, Note_on_c, 0, 71, 93
2, 100320, Note_on_c, 0, 74, 88
2, 100320, Note_on_c, 0, 59, 80
2, 100342, Control_c, 0, 64, 127
2, 100379, Note_on_c, 0, 59, 0
2, 100379, Note_on_c, 0, 62, 0
2, 100379, Note_on_c, 0, 71, 0
2, 100379, Note_on_c, 0, 74, 0
2, 100440, Note_on_c, 0, 60, 63
2, 100440, Note_on_c, 0, 75, 80
2, 100440, Note_on_c, 0, 63, 67
2, 100440, Note_on_c, 0, 72, 84
2, 100440, Control_c, 0, 64, 0
2, 100467, Control_c, 0, 64, 127
2, 100499, Note_on_c, 0, 72, 0
2, 100499, Note_on_c, 0, 60, 0
2, 100499, Note_on_c, 0, 75, 0
2, 100499, Note_on_c, 0, 63, 0
2, 100560, Note_on_c, 0, 77, 84
2, 100560, Note_on_c, 0, 62, 71
2, 100560, Note_on_c, 0, 74, 88
2, 100560, Note_on_c, 0, 65, 67
2, 100561, Control_c, 0, 64, 0
2, 100594, Control_c, 0, 64, 127
2, 100619, Note_on_c, 0, 65, 0
2, 100619, Note_on_c, 0, 77, 0
2, 100619, Note_on_c, 0, 62, 0
2, 100619, Note_on_c, 0, 74, 0
2, 100730, Control_c, 0, 64, 0
2, 100740, Note_on_c, 0, 75, 71
2, 100740, Note_on_c, 0, 79, 88
2, 100740, Note_on_c, 0, 63, 59
2, 100740, Note_on_c, 0, 67, 71
2, 100759, Control_c, 0, 64, 127
2, 100793, Control_c, 0, 64, 0
2, 100799, Note_on_c, 0, 67, 0
2, 100799, Note_on_c, 0, 75, 0
2, 100799, Note_on_c, 0, 79, 0
2, 100799, Note_on_c, 0, 63, 0
2, 100800, Note_on_c, 0, 62, 84
2, 100800, Note_on_c, 0, 74, 88
2, 100800, Note_on_c, 0, 77, 80
2, 100800, Note_on_c, 0, 65, 59
2, 100826, Control_c, 0, 64, 127
2, 100859, Note_on_c, 0, 65, 0
2, 100859, Note_on_c, 0, 62, 0
2, 100859, Note_on_c, 0, 74, 0
2, 100859, Note_on_c, 0, 77, 0
2, 100920, Note_on_c, 0, 62, 80
2, 100920, Note_on_c, 0, 74, 88
2, 100920, Note_on_c, 0, 77, 88
2, 100920, Note_on_c, 0, 65, 75
2, 100979, Note_on_c, 0, 65, 0
2, 100979, Note_on_c, 0, 62, 0
2, 100979, Note_on_c, 0, 74, 0
2, 100979, Note_on_c, 0, 77, 0
2, 101023, Control_c, 0, 64, 0
2, 101040, Note_on_c, 0, 83, 93
2, 101040, Note_on_c, 0, 71, 75
2, 101040, Note_on_c, 0, 86, 88
2, 101040, Note_on_c, 0, 74, 80
2, 101050, Control_c, 0, 64, 127
2, 101099, Note_on_c, 0, 74, 0
2, 101099, Note_on_c, 0, 83, 0
2, 101099, Note_on_c, 0, 71, 0
2, 101099, Note_on_c, 0, 86, 0
2, 101160, Note_on_c, 0, 65, 71
2, 101160, Note_on_c, 0, 74, 88
2, 101160, Note_on_c, 0, 62, 71
2, 101160, Note_on_c, 0, 77, 88
2, 101164, Control_c, 0, 64, 0
2, 101195, Control_c, 0, 64, 127
2, 101219, Note_on_c, 0, 77, 0
2, 101219, Note_on_c, 0, 65, 0
2, 101219, Note_on_c, 0, 74, 0
2, 101219, Note_on_c, 0, 62, 0
2, 101280, Note_on_c, 0, 63, 57
2, 101280, Note_on_c, 0, 75, 75
2, 101280, Control_c, 0, 64, 0
2, 101280, Note_on_c, 0, 67, 71
2, 101280, Note_on_c, 0, 79, 84
2, 101306, Control_c, 0, 64, 127
2, 101339, Note_on_c, 0, 79, 0
2, 101339, Note_on_c, 0, 63, 0
2, 101339, Note_on_c, 0, 75, 0
2, 101339, Note_on_c, 0, 67, 0
2, 101398, Control_c, 0, 64, 0
2, 101400, Note_on_c, 0, 77, 75
2, 101400, Note_on_c, 0, 74, 88
2, 101400, Note_on_c, 0, 62, 71
2, 101400, Note_on_c, 0, 65, 75
2, 101423, Control_c, 0, 64, 127
2, 101459, Note_on_c, 0, 65, 0
2, 101459, Note_on_c, 0, 77, 0
2, 101459, Note_on_c, 0, 74, 0
2, 101459, Note_on_c, 0, 62, 0
2, 101515, Control_c, 0, 64, 0
2, 101520, Note_on_c, 0, 62, 71
2, 101520, Note_on_c, 0, 74, 88
2, 101520, Note_on_c, 0, 77, 84
2, 101520, Note_on_c, 0, 65, 75
2, 101546, Control_c, 0, 64, 127
2, 101579, Note_on_c, 0, 65, 0
2, 101579, Note_on_c, 0, 62, 0
2, 101579, Note_on_c, 0, 74, 0
2, 101579, Note_on_c, 0, 77, 0
2, 101685, Control_c, 0, 64, 0
2, 101700, Note_on_c, 0, 62, 63
2, 101700, Note_on_c, 0, 74, 84
2, 101700, Note_on_c, 0, 71, 84
2, 101700, Note_on_c, 0, 59, 71
2, 101711, Control_c, 0, 64, 127
2, 101757, Control_c, 0, 64, 0
2, 101759, Note_on_c, 0, 59, 0
2, 101759, Note_on_c, 0, 62, 0
2, 101759, Note_on_c, 0, 74, 0
2, 101759, Note_on_c, 0, 71, 0
2, 101760, Note_on_c, 0, 60, 75
2, 101760, Note_on_c, 0, 63, 63
2, 101760, Note_on_c, 0, 75, 75
2, 101760, Note_on_c, 0, 72, 84
2, 101789, Control_c, 0, 64, 127
2, 101880, Note_on_c, 0, 72, 0
2, 101880, Note_on_c, 0, 60, 0
2, 101880, Note_on_c, 0, 63, 0
2, 101880, Note_on_c, 0, 75, 0
2, 101910, Control_c, 0, 64, 0
2, 102000, Note_on_c, 0, 75, 84
2, 102000, Note_on_c, 0, 72, 93
2, 102000, Note_on_c, 0, 63, 57
2, 102000, Note_on_c, 0, 60, 75
2, 102020, Control_c, 0, 64, 127
2, 102059, Note_on_c, 0, 60, 0
2, 102059, Note_on_c, 0, 75, 0
2, 102059, Note_on_c, 0, 72, 0
2, 102059, Note_on_c, 0, 63, 0
2, 102238, Control_c, 0, 64, 0
2, 102240, Note_on_c, 0, 72, 88
2, 102240, Note_on_c, 0, 60, 59
2, 102240, Note_on_c, 0, 69, 88
2, 102240, Note_on_c, 0, 57, 71
2, 102270, Control_c, 0, 64, 127
2, 102299, Note_on_c, 0, 57, 0
2, 102299, Note_on_c, 0, 72, 0
2, 102299, Note_on_c, 0, 60, 0
2, 102299, Note_on_c, 0, 69, 0
2, 102349, Control_c, 0, 64, 0
2, 102360, Note_on_c, 0, 70, 84
2, 102360, Note_on_c, 0, 74, 88
2, 102360, Note_on_c, 0, 58, 55
2, 102360, Note_on_c, 0, 62, 75
2, 102376, Control_c, 0, 64, 127
2, 102419, Note_on_c, 0, 62, 0
2, 102419, Note_on_c, 0, 70, 0
2, 102419, Note_on_c, 0, 74, 0
2, 102419, Note_on_c, 0, 58, 0
2, 102475, Control_c, 0, 64, 0
2, 102480, Note_on_c, 0, 72, 88
2, 102480, Note_on_c, 0, 75, 84
2, 102480, Note_on_c, 0, 63, 67
2, 102480, Note_on_c, 0, 60, 67
2, 102514, Control_c, 0, 64, 127
2, 102539, Note_on_c, 0, 60, 0
2, 102539, Note_on_c, 0, 72, 0
2, 102539, Note_on_c, 0, 75, 0
2, 102539, Note_on_c, 0, 63, 0
2, 102648, Control_c, 0, 64, 0
2, 102660, Note_on_c, 0, 62, 67
2, 102660, Note_on_c, 0, 77, 80
2, 102660, Note_on_c, 0, 74, 84
2, 102660, Note_on_c, 0, 65, 71
2, 102682, Control_c, 0, 64, 127
2, 102708, Control_c, 0, 64, 0
2, 102719, Note_on_c, 0, 65, 0
2, 102719, Note_on_c, 0, 62, 0
2, 102719, Note_on_c, 0, 77, 0
2, 102719, Note_on_c, 0, 74, 0
2, 102720, Note_on_c, 0, 75, 88
2, 102720, Note_on_c, 0, 72, 88
2, 102720, Note_on_c, 0, 63, 71
2, 102720, Note_on_c, 0, 60, 67
2, 102748, Control_c, 0, 64, 127
2, 102779, Note_on_c, 0, 60, 0
2, 102779, Note_on_c, 0, 75, 0
2, 102779, Note_on_c, 0, 72, 0
2, 102779, Note_on_c, 0, 63, 0
2, 102828, Control_c, 0, 64, 0
2, 102840, Note_on_c, 0, 75, 84
2, 102840, Note_on_c, 0, 72, 84
2, 102840, Note_on_c, 0, 60, 84
2, 102840, Note_on_c, 0, 63, 67
2, 102856, Control_c, 0, 64, 127
2, 102899, Note_on_c, 0, 63, 0
2, 102899, Note_on_c, 0, 75, 0
2, 102899, Note_on_c, 0, 72, 0
2, 102899, Note_on_c, 0, 60, 0
2, 102957, Control_c, 0, 64, 0
2, 102960, Note_on_c, 0, 69, 93
2, 102960, Note_on_c, 0, 81, 93
2, 102960, Note_on_c, 0, 84, 93
2, 102960, Note_on_c, 0, 72, 80
2, 102985, Control_c, 0, 64, 127
2, 103019, Note_on_c, 0, 72, 0
2, 103019, Note_on_c, 0, 69, 0
2, 103019, Note_on_c, 0, 81, 0
2, 103019, Note_on_c, 0, 84, 0
2, 103080, Note_on_c, 0, 60, 75
2, 103080, Note_on_c, 0, 75, 75
2, 103080, Note_on_c, 0, 72, 84
2, 103080, Note_on_c, 0, 63, 71
2, 103083, Control_c, 0, 64, 0
2, 103113, Control_c, 0, 64, 127
2, 103139, Note_on_c, 0, 63, 0
2, 103139, Note_on_c, 0, 60, 0
2, 103139, Note_on_c, 0, 75, 0
2, 103139, Note_on_c, 0, 72, 0
2, 103200, Note_on_c, 0, 74, 84
2, 103200, Note_on_c, 0, 65, 80
2, 103200, Note_on_c, 0, 62, 80
2, 103200, Note_on_c, 0, 77, 84
2, 103201, Control_c, 0, 64, 0
2, 103227, Control_c, 0, 64, 127
2, 103259, Note_on_c, 0, 77, 0
2, 103259, Note_on_c, 0, 74, 0
2, 103259, Note_on_c, 0, 65, 0
2, 103259, Note_on_c, 0, 62, 0
2, 103310, Control_c, 0, 64, 0
2, 103320, Note_on_c, 0, 60, 71
2, 103320, Note_on_c, 0, 75, 71
2, 103320, Note_on_c, 0, 72, 88
2, 103320, Note_on_c, 0, 63, 71
2, 103336, Control_c, 0, 64, 127
2, 103379, Note_on_c, 0, 63, 0
2, 103379, Note_on_c, 0, 60, 0
2, 103379, Note_on_c, 0, 75, 0
2, 103379, Note_on_c, 0, 72, 0
2, 103429, Control_c, 0, 64, 0
2, 103440, Note_on_c, 0, 72, 88
2, 103440, Note_on_c, 0, 75, 88
2, 103440, Note_on_c, 0, 60, 75
2, 103440, Note_on_c, 0, 63, 75
2, 103456, Control_c, 0, 64, 127
2, 103499, Note_on_c, 0, 63, 0
2, 103499, Note_on_c, 0, 72, 0
2, 103499, Note_on_c, 0, 75, 0
2, 103499, Note_on_c, 0, 60, 0
2, 103608, Control_c, 0, 64, 0
2, 103620, Note_on_c, 0, 57, 71
2, 103620, Note_on_c, 0, 69, 84
2, 103620, Note_on_c, 0, 72, 88
2, 103620, Note_on_c, 0, 60, 63
2, 103637, Control_c, 0, 64, 127
2, 103671, Control_c, 0, 64, 0
2, 103679, Note_on_c, 0, 60, 0
2, 103679, Note_on_c, 0, 57, 0
2, 103679, Note_on_c, 0, 69, 0
2, 103679, Note_on_c, 0, 72, 0
2, 103680, Note_on_c, 0, 70, 80
2, 103680, Note_on_c, 0, 74, 88
2, 103680, Note_on_c, 0, 58, 84
2, 103680, Note_on_c, 0, 62, 84
2, 103702, Control_c, 0, 64, 127
2, 103739, Note_on_c, 0, 62, 0
2, 103739, Note_on_c, 0, 70, 0
2, 103739, Note_on_c, 0, 74, 0
2, 103739, Note_on_c, 0, 58, 0
2, 103813, Control_c, 0, 64, 0
2, 105840, Note_on_c, 0, 72, 88
2, 105840, Note_on_c, 0, 69, 75
2, 105857, Control_c, 0, 64, 127
2, 105899, Note_on_c, 0, 72, 0
2, 105900, Note_on_c, 0, 74, 75
2, 105959, Note_on_c, 0, 74, 0
2, 105960, Note_on_c, 0, 69, 0
2, 105960, Note_on_c, 0, 75, 67
2, 105967, Control_c, 0, 64, 0
2, 106006, Control_c, 0, 64, 127
2, 106019, Note_on_c, 0, 75, 0
2, 106020, Note_on_c, 0, 72, 84
2, 106079, Note_on_c, 0, 72, 0
2, 106080, Note_on_c, 0, 69, 84
2, 106080, Note_on_c, 0, 66, 71
2, 106084, Control_c, 0, 64, 0
2, 106133, Control_c, 0, 64, 127
2, 106139, Note_on_c, 0, 66, 0
2, 106139, Note_on_c, 0, 69, 0
2, 106140, Note_on_c, 0, 70, 67
2, 106192, Control_c, 0, 64, 0
2, 106199, Note_on_c, 0, 70, 0
2, 106200, Note_on_c, 0, 72, 71
2, 106245, Control_c, 0, 64, 127
2, 106259, Note_on_c, 0, 72, 0
2, 106260, Note_on_c, 0, 69, 75
2, 106312, Control_c, 0, 64, 0
2, 106319, Note_on_c, 0, 69, 0
2, 106320, Note_on_c, 0, 67, 80
2, 106320, Note_on_c, 0, 70, 75
2, 106354, Control_c, 0, 64, 127
2, 106379, Note_on_c, 0, 70, 0
2, 106379, Note_on_c, 0, 67, 0
2, 106380, Note_on_c, 0, 72, 80
2, 106427, Control_c, 0, 64, 0
2, 106439, Note_on_c, 0, 72, 0
2, 106440, Note_on_c, 0, 74, 71
2, 106473, Control_c, 0, 64, 127
2, 106499, Note_on_c, 0, 74, 0
2, 106500, Note_on_c, 0, 70, 71
2, 106551, Control_c, 0, 64, 0
2, 106559, Note_on_c, 0, 70, 0
2, 106560, Note_on_c, 0, 63, 75
2, 106560, Note_on_c, 0, 67, 84
2, 106591, Control_c, 0, 64, 127
2, 106619, Note_on_c, 0, 67, 0
2, 106620, Note_on_c, 0, 69, 84
2, 106661, Control_c, 0, 64, 0
2, 106679, Note_on_c, 0, 69, 0
2, 106680, Note_on_c, 0, 63, 0
2, 106680, Note_on_c, 0, 70, 71
2, 106702, Control_c, 0, 64, 127
2, 106739, Note_on_c, 0, 70, 0
2, 106740, Note_on_c, 0, 67, 80
2, 106796, Control_c, 0, 64, 0
2, 106799, Note_on_c, 0, 67, 0
2, 106800, Note_on_c, 0, 60, 71
2, 106800, Note_on_c, 0, 69, 71
2, 106837, Control_c, 0, 64, 127
2, 106859, Note_on_c, 0, 69, 0
2, 106860, Note_on_c, 0, 72, 71
2, 106912, Control_c, 0, 64, 0
2, 106919, Note_on_c, 0, 72, 0
2, 106920, Note_on_c, 0, 60, 0
2, 106920, Note_on_c, 0, 75, 67
2, 106941, Control_c, 0, 64, 127
2, 106979, Note_on_c, 0, 75, 0
2, 106980, Note_on_c, 0, 74, 88
2, 107036, Control_c, 0, 64, 0
2, 107039, Note_on_c, 0, 74, 0
2, 107040, Note_on_c, 0, 72, 84
2, 107040, Note_on_c, 0, 60, 75
2, 107072, Control_c, 0, 64, 127
2, 107099, Note_on_c, 0, 60, 0
2, 107099, Note_on_c, 0, 72, 0
2, 107100, Note_on_c, 0, 70, 71
2, 107154, Control_c, 0, 64, 0
2, 107159, Note_on_c, 0, 70, 0
2, 107160, Note_on_c, 0, 61, 67
2, 107160, Note_on_c, 0, 69, 84
2, 107186, Control_c, 0, 64, 127
2, 107219, Note_on_c, 0, 69, 0
2, 107219, Note_on_c, 0, 61, 0
2, 107220, Note_on_c, 0, 67, 63
2, 107259, Control_c, 0, 64, 0
2, 107279, Note_on_c, 0, 67, 0
2, 107280, Note_on_c, 0, 66, 80
2, 107280, Note_on_c, 0, 62, 88
2, 107287, Control_c, 0, 64, 127
2, 107339, Note_on_c, 0, 62, 0
2, 107339, Note_on_c, 0, 66, 0
2, 107375, Control_c, 0, 64, 0
2, 107400, Note_on_c, 0, 69, 102
2, 107400, Note_on_c, 0, 74, 102
2, 107400, Note_on_c, 0, 72, 102
2, 107400, Note_on_c, 0, 78, 93
2, 107400, Note_on_c, 0, 66, 88
2, 107400, Note_on_c, 0, 62, 88
2, 107442, Control_c, 0, 64, 127
2, 107580, Note_on_c, 0, 62, 0
2, 107580, Note_on_c, 0, 74, 0
2, 107580, Note_on_c, 0, 72, 0
2, 107580, Note_on_c, 0, 69, 0
2, 107580, Note_on_c, 0, 66, 0
2, 107580, Note_on_c, 0, 78, 0
2, 107640, Note_on_c, 0, 62, 57
2, 107640, Note_on_c, 0, 74, 71
2, 107640, Note_on_c, 0, 79, 75
2, 107640, Note_on_c, 0, 67, 57
2, 107640, Note_on_c, 0, 70, 57
2, 107641, Control_c, 0, 64, 0
2, 107674, Control_c, 0, 64, 127
2, 107699, Note_on_c, 0, 70, 0
2, 107699, Note_on_c, 0, 79, 0
2, 107699, Note_on_c, 0, 62, 0
2, 107699, Note_on_c, 0, 74, 0
2, 107699, Note_on_c, 0, 67, 0
2, 107752, Control_c, 0, 64, 0
2, 107760, Note_on_c, 0, 66, 71
2, 107760, Note_on_c, 0, 78, 63
2, 107760, Note_on_c, 0, 69, 71
2, 107760, Note_on_c, 0, 62, 71
2, 107760, Note_on_c, 0, 74, 80
2, 107782, Control_c, 0, 64, 127
2, 107818, Control_c, 0, 64, 0
2, 107819, Note_on_c, 0, 74, 0
2, 107819, Note_on_c, 0, 69, 0
2, 107819, Note_on_c, 0, 66, 0
2, 107819, Note_on_c, 0, 78, 0
2, 107819, Note_on_c, 0, 62, 0
2, 107880, Note_on_c, 0, 78, 88
2, 107880, Note_on_c, 0, 66, 84
2, 107880, Note_on_c, 0, 69, 108
2, 107880, Note_on_c, 0, 62, 97
2, 107880, Note_on_c, 0, 74, 108
2, 107880, Note_on_c, 0, 72, 108
2, 107887, Control_c, 0, 64, 127
2, 108000, Note_on_c, 0, 72, 0
2, 108000, Note_on_c, 0, 66, 0
2, 108000, Note_on_c, 0, 69, 0
2, 108000, Note_on_c, 0, 78, 0
2, 108000, Note_on_c, 0, 74, 0
2, 108000, Note_on_c, 0, 62, 0
2, 108115, Control_c, 0, 64, 0
2, 108120, Note_on_c, 0, 70, 71
2, 108120, Note_on_c, 0, 74, 84
2, 108120, Note_on_c, 0, 79, 84
2, 108120, Note_on_c, 0, 62, 63
2, 108120, Note_on_c, 0, 67, 67
2, 108144, Control_c, 0, 64, 127
2, 108179, Note_on_c, 0, 67, 0
2, 108179, Note_on_c, 0, 79, 0
2, 108179, Note_on_c, 0, 70, 0
2, 108179, Note_on_c, 0, 74, 0
2, 108179, Note_on_c, 0, 62, 0
2, 108225, Control_c, 0, 64, 0
2, 108240, Note_on_c, 0, 78, 54
2, 108240, Note_on_c, 0, 66, 57
2, 108240, Note_on_c, 0, 62, 57
2, 108240, Note_on_c, 0, 74, 71
2, 108240, Note_on_c, 0, 69, 59
2, 108253, Control_c, 0, 64, 127
2, 108299, Note_on_c, 0, 69, 0
2, 108299, Note_on_c, 0, 62, 0
2, 108299, Note_on_c, 0, 78, 0
2, 108299, Note_on_c, 0, 66, 0
2, 108299, Note_on_c, 0, 74, 0
2, 108331, Control_c, 0, 64, 0
2, 108360, Note_on_c, 0, 69, 102
2, 108360, Note_on_c, 0, 78, 84
2, 108360, Note_on_c, 0, 72, 97
2, 108360, Note_on_c, 0, 74, 102
2, 108360, Note_on_c, 0, 66, 88
2, 108360, Note_on_c, 0, 62, 84
2, 108372, Control_c, 0, 64, 127
2, 108419, Note_on_c, 0, 62, 0
2, 108419, Note_on_c, 0, 78, 0
2, 108419, Note_on_c, 0, 72, 0
2, 108419, Note_on_c, 0, 69, 0
2, 108419, Note_on_c, 0, 66, 0
2, 108419, Note_on_c, 0, 74, 0
2, 108600, Note_on_c, 0, 62, 71
2, 108600, Note_on_c, 0, 65, 67
2, 108600, Note_on_c, 0, 77, 63
2, 108600, Note_on_c, 0, 67, 71
2, 108600, Note_on_c, 0, 74, 71
2, 108600, Note_on_c, 0, 71, 80
2, 108602, Control_c, 0, 64, 0
2, 108639, Control_c, 0, 64, 127
2, 108659, Note_on_c, 0, 71, 0
2, 108659, Note_on_c, 0, 65, 0
2, 108659, Note_on_c, 0, 77, 0
2, 108659, Note_on_c, 0, 62, 0
2, 108659, Note_on_c, 0, 74, 0
2, 108659, Note_on_c, 0, 67, 0
2, 108713, Control_c, 0, 64, 0
2, 108720, Note_on_c, 0, 67, 75
2, 108720, Note_on_c, 0, 72, 75
2, 108720, Note_on_c, 0, 64, 75
2, 108720, Note_on_c, 0, 76, 75
2, 108749, Control_c, 0, 64, 127
2, 108779, Note_on_c, 0, 76, 0
2, 108779, Note_on_c, 0, 67, 0
2, 108779, Note_on_c, 0, 72, 0
2, 108779, Note_on_c, 0, 64, 0
2, 108795, Control_c, 0, 64, 0
2, 108840, Note_on_c, 0, 72, 93
2, 108840, Note_on_c, 0, 76, 102
2, 108840, Note_on_c, 0, 70, 88
2, 108840, Note_on_c, 0, 67, 102
2, 108840, Note_on_c, 0, 64, 84
2, 108840, Note_on_c, 0, 60, 80
2, 108895, Control_c, 0, 64, 127
2, 108960, Note_on_c, 0, 60, 0
2, 108960, Note_on_c, 0, 76, 0
2, 108960, Note_on_c, 0, 72, 0
2, 108960, Note_on_c, 0, 70, 0
2, 108960, Note_on_c, 0, 64, 0
2, 109020, Note_on_c, 0, 67, 0
2, 109069, Control_c, 0, 64, 0
2, 109080, Note_on_c, 0, 75, 59
2, 109080, Note_on_c, 0, 65, 63
2, 109080, Note_on_c, 0, 63, 59
2, 109080, Note_on_c, 0, 69, 84
2, 109080, Note_on_c, 0, 60, 67
2, 109080, Note_on_c, 0, 72, 80
2, 109101, Control_c, 0, 64, 127
2, 109139, Note_on_c, 0, 72, 0
2, 109139, Note_on_c, 0, 65, 0
2, 109139, Note_on_c, 0, 63, 0
2, 109139, Note_on_c, 0, 75, 0
2, 109139, Note_on_c, 0, 60, 0
2, 109139, Note_on_c, 0, 69, 0
2, 109183, Control_c, 0, 64, 0
2, 109200, Note_on_c, 0, 70, 71
2, 109200, Note_on_c, 0, 62, 71
2, 109200, Note_on_c, 0, 65, 84
2, 109200, Note_on_c, 0, 74, 80
2, 109216, Control_c, 0, 64, 127
2, 109259, Note_on_c, 0, 74, 0
2, 109259, Note_on_c, 0, 70, 0
2, 109259, Note_on_c, 0, 62, 0
2, 109259, Note_on_c, 0, 65, 0
2, 109296, Control_c, 0, 64, 0
2, 109320, Note_on_c, 0, 77, 97
2, 109320, Note_on_c, 0, 80, 97
2, 109320, Note_on_c, 0, 70, 93
2, 109320, Note_on_c, 0, 74, 97
2, 109320, Note_on_c, 0, 62, 88
2, 109320, Note_on_c, 0, 65, 88
2, 109355, Control_c, 0, 64, 127
2, 109500, Note_on_c, 0, 65, 0
2, 109500, Note_on_c, 0, 80, 0
2, 109500, Note_on_c, 0, 70, 0
2, 109500, Note_on_c, 0, 77, 0
2, 109500, Note_on_c, 0, 62, 0
2, 109500, Note_on_c, 0, 74, 0
2, 109547, Control_c, 0, 64, 0
2, 109560, Note_on_c, 0, 70, 71
2, 109560, Note_on_c, 0, 77, 71
2, 109560, Note_on_c, 0, 80, 63
2, 109560, Note_on_c, 0, 74, 71
2, 109560, Note_on_c, 0, 62, 67
2, 109560, Note_on_c, 0, 65, 67
2, 109574, Control_c, 0, 64, 127
2, 109619, Note_on_c, 0, 65, 0
2, 109619, Note_on_c, 0, 77, 0
2, 109619, Note_on_c, 0, 80, 0
2, 109619, Note_on_c, 0, 70, 0
2, 109619, Note_on_c, 0, 62, 0
2, 109619, Note_on_c, 0, 74, 0
2, 109674, Control_c, 0, 64, 0
2, 109680, Note_on_c, 0, 79, 71
2, 109680, Note_on_c, 0, 63, 67
2, 109710, Note_on_c, 0, 63, 0
2, 109710, Note_on_c, 0, 79, 0
2, 109740, Note_on_c, 0, 65, 75
2, 109740, Note_on_c, 0, 81, 71
2, 109770, Note_on_c, 0, 81, 0
2, 109770, Note_on_c, 0, 65, 0
2, 109800, Note_on_c, 0, 82, 75
2, 109800, Note_on_c, 0, 67, 71
2, 109830, Note_on_c, 0, 67, 0
2, 109830, Note_on_c, 0, 82, 0
2, 109860, Note_on_c, 0, 65, 55
2, 109860, Note_on_c, 0, 81, 75
2, 109890, Note_on_c, 0, 81, 0
2, 109890, Note_on_c, 0, 65, 0
2, 109920, Note_on_c, 0, 82, 84
2, 109920, Note_on_c, 0, 67, 75
2, 109929, Control_c, 0, 64, 127
2, 109979, Note_on_c, 0, 67, 0
2, 109979, Note_on_c, 0, 82, 0
2, 109980, Note_on_c, 0, 65, 55
2, 109980, Note_on_c, 0, 81, 84
2, 110029, Control_c, 0, 64, 0
2, 110039, Note_on_c, 0, 81, 0
2, 110039, Note_on_c, 0, 65, 0
2, 110040, Note_on_c, 0, 82, 84
2, 110040, Note_on_c, 0, 67, 75
2, 110068, Control_c, 0, 64, 127
2, 110099, Note_on_c, 0, 67, 0
2, 110099, Note_on_c, 0, 82, 0
2, 110100, Note_on_c, 0, 81, 84
2, 110100, Note_on_c, 0, 65, 71
2, 110100, Control_c, 0, 64, 0
2, 110159, Note_on_c, 0, 65, 0
2, 110159, Note_on_c, 0, 81, 0
2, 110160, Note_on_c, 0, 79, 88
2, 110160, Note_on_c, 0, 63, 67
2, 110168, Control_c, 0, 64, 127
2, 110219, Note_on_c, 0, 63, 0
2, 110219, Note_on_c, 0, 79, 0
2, 110220, Note_on_c, 0, 65, 80
2, 110220, Note_on_c, 0, 81, 88
2, 110252, Control_c, 0, 64, 0
2, 110279, Note_on_c, 0, 81, 0
2, 110279, Note_on_c, 0, 65, 0
2, 110280, Note_on_c, 0, 67, 80
2, 110280, Note_on_c, 0, 82, 88
2, 110299, Control_c, 0, 64, 127
2, 110339, Note_on_c, 0, 82, 0
2, 110339, Note_on_c, 0, 67, 0
2, 110340, Note_on_c, 0, 65, 80
2, 110340, Note_on_c, 0, 81, 84
2, 110346, Control_c, 0, 64, 0
2, 110399, Note_on_c, 0, 81, 0
2, 110399, Note_on_c, 0, 65, 0
2, 110400, Note_on_c, 0, 79, 84
2, 110400, Note_on_c, 0, 63, 75
2, 110406, Control_c, 0, 64, 127
2, 110459, Note_on_c, 0, 63, 0
2, 110459, Note_on_c, 0, 79, 0
2, 110460, Note_on_c, 0, 62, 88
2, 110460, Note_on_c, 0, 77, 63
2, 110469, Control_c, 0, 64, 0
2, 110519, Note_on_c, 0, 77, 0
2, 110519, Note_on_c, 0, 62, 0
2, 110520, Note_on_c, 0, 75, 84
2, 110520, Note_on_c, 0, 60, 84
2, 110538, Control_c, 0, 64, 127
2, 110579, Note_on_c, 0, 60, 0
2, 110579, Note_on_c, 0, 75, 0
2, 110580, Note_on_c, 0, 58, 57
2, 110580, Note_on_c, 0, 74, 84
2, 110635, Control_c, 0, 64, 0
2, 110639, Note_on_c, 0, 74, 0
2, 110639, Note_on_c, 0, 58, 0
2, 110640, Note_on_c, 0, 72, 93
2, 110640, Note_on_c, 0, 65, 84
2, 110675, Control_c, 0, 64, 127
2, 110699, Note_on_c, 0, 65, 0
2, 110699, Note_on_c, 0, 72, 0
2, 110774, Control_c, 0, 64, 0
2, 111600, Note_on_c, 0, 74, 93
2, 111600, Note_on_c, 0, 77, 84
2, 111600, Note_on_c, 0, 62, 75
2, 111600, Note_on_c, 0, 65, 80
2, 111626, Control_c, 0, 64, 127
2, 111659, Note_on_c, 0, 65, 0
2, 111720, Note_on_c, 0, 74, 0
2, 111720, Note_on_c, 0, 77, 0
2, 111720, Note_on_c, 0, 62, 0
2, 111835, Control_c, 0, 64, 0
2, 111840, Note_on_c, 0, 58, 67
2, 111840, Note_on_c, 0, 74, 88
2, 111840, Note_on_c, 0, 62, 71
2, 111840, Note_on_c, 0, 70, 80
2, 111866, Control_c, 0, 64, 127
2, 111899, Note_on_c, 0, 70, 0
2, 111899, Note_on_c, 0, 58, 0
2, 111899, Note_on_c, 0, 74, 0
2, 111899, Note_on_c, 0, 62, 0
2, 111958, Control_c, 0, 64, 0
2, 111960, Note_on_c, 0, 75, 67
2, 111960, Note_on_c, 0, 72, 88
2, 111960, Note_on_c, 0, 63, 71
2, 111960, Note_on_c, 0, 60, 63
2, 111982, Control_c, 0, 64, 127
2, 112019, Note_on_c, 0, 60, 0
2, 112019, Note_on_c, 0, 75, 0
2, 112019, Note_on_c, 0, 72, 0
2, 112019, Note_on_c, 0, 63, 0
2, 112069, Control_c, 0, 64, 0
2, 112080, Note_on_c, 0, 62, 67
2, 112080, Note_on_c, 0, 77, 88
2, 112080, Note_on_c, 0, 74, 84
2, 112080, Note_on_c, 0, 65, 75
2, 112095, Control_c, 0, 64, 127
2, 112139, Note_on_c, 0, 65, 0
2, 112139, Note_on_c, 0, 62, 0
2, 112139, Note_on_c, 0, 77, 0
2, 112139, Note_on_c, 0, 74, 0
2, 112195, Control_c, 0, 64, 0
2, 112200, Note_on_c, 0, 79, 88
2, 112200, Note_on_c, 0, 82, 88
2, 112200, Note_on_c, 0, 70, 71
2, 112200, Note_on_c, 0, 67, 75
2, 112220, Control_c, 0, 64, 127
2, 112259, Note_on_c, 0, 67, 0
2, 112259, Note_on_c, 0, 79, 0
2, 112259, Note_on_c, 0, 82, 0
2, 112259, Note_on_c, 0, 70, 0
2, 112317, Control_c, 0, 64, 0
2, 112320, Note_on_c, 0, 81, 75
2, 112320, Note_on_c, 0, 77, 84
2, 112320, Note_on_c, 0, 65, 59
2, 112320, Note_on_c, 0, 69, 75
2, 112342, Control_c, 0, 64, 127
2, 112379, Note_on_c, 0, 69, 0
2, 112379, Note_on_c, 0, 81, 0
2, 112379, Note_on_c, 0, 77, 0
2, 112379, Note_on_c, 0, 65, 0
2, 112430, Control_c, 0, 64, 0
2, 112440, Note_on_c, 0, 75, 75
2, 112440, Note_on_c, 0, 79, 84
2, 112440, Note_on_c, 0, 63, 63
2, 112440, Note_on_c, 0, 67, 67
2, 112457, Control_c, 0, 64, 127
2, 112499, Note_on_c, 0, 67, 0
2, 112499, Note_on_c, 0, 75, 0
2, 112499, Note_on_c, 0, 79, 0
2, 112499, Note_on_c, 0, 63, 0
2, 112556, Control_c, 0, 64, 0
2, 112560, Note_on_c, 0, 74, 88
2, 112560, Note_on_c, 0, 77, 75
2, 112560, Note_on_c, 0, 62, 71
2, 112560, Note_on_c, 0, 65, 71
2, 112589, Control_c, 0, 64, 127
2, 112619, Note_on_c, 0, 65, 0
2, 112680, Note_on_c, 0, 74, 0
2, 112680, Note_on_c, 0, 77, 0
2, 112680, Note_on_c, 0, 62, 0
2, 112800, Note_on_c, 0, 74, 84
2, 112800, Note_on_c, 0, 70, 67
2, 112800, Note_on_c, 0, 58, 57
2, 112800, Note_on_c, 0, 62, 59
2, 112810, Control_c, 0, 64, 0
2, 112840, Control_c, 0, 64, 127
2, 112913, Control_c, 0, 64, 0
2, 112920, Note_on_c, 0, 62, 0
2, 112920, Note_on_c, 0, 74, 0
2, 112920, Note_on_c, 0, 70, 0
2, 112920, Note_on_c, 0, 58, 0
2, 112920, Note_on_c, 0, 75, 75
2, 112920, Note_on_c, 0, 72, 84
2, 112920, Note_on_c, 0, 60, 71
2, 112920, Note_on_c, 0, 63, 71
2, 112934, Control_c, 0, 64, 127
2, 112979, Note_on_c, 0, 63, 0
2, 112979, Note_on_c, 0, 75, 0
2, 112979, Note_on_c, 0, 72, 0
2, 112979, Note_on_c, 0, 60, 0
2, 113039, Control_c, 0, 64, 0
2, 113040, Note_on_c, 0, 77, 88
2, 113040, Note_on_c, 0, 74, 93
2, 113040, Note_on_c, 0, 65, 71
2, 113040, Note_on_c, 0, 62, 71
2, 113072, Control_c, 0, 64, 127
2, 113099, Note_on_c, 0, 62, 0
2, 113099, Note_on_c, 0, 65, 0
2, 113160, Note_on_c, 0, 74, 0
2, 113160, Note_on_c, 0, 77, 0
2, 113215, Control_c, 0, 64, 0
2, 113220, Note_on_c, 0, 75, 71
2, 113220, Note_on_c, 0, 79, 75
2, 113220, Note_on_c, 0, 67, 55
2, 113220, Note_on_c, 0, 63, 55
2, 113237, Control_c, 0, 64, 127
2, 113279, Note_on_c, 0, 63, 0
2, 113279, Note_on_c, 0, 75, 0
2, 113279, Note_on_c, 0, 79, 0
2, 113279, Note_on_c, 0, 67, 0
2, 113280, Note_on_c, 0, 62, 71
2, 113280, Note_on_c, 0, 65, 59
2, 113280, Note_on_c, 0, 77, 71
2, 113280, Note_on_c, 0, 74, 67
2, 113285, Control_c, 0, 64, 0
2, 113312, Control_c, 0, 64, 127
2, 113339, Note_on_c, 0, 77, 0
2, 113400, Note_on_c, 0, 62, 0
2, 113400, Note_on_c, 0, 65, 0
2, 113400, Note_on_c, 0, 74, 0
2, 113423, Control_c, 0, 64, 0
2, 113520, Note_on_c, 0, 72, 71
2, 113520, Note_on_c, 0, 75, 84
2, 113530, Control_c, 0, 64, 127
2, 113579, Note_on_c, 0, 75, 0
2, 113580, Note_on_c, 0, 77, 67
2, 113630, Control_c, 0, 64, 0
2, 113639, Note_on_c, 0, 77, 0
2, 113640, Note_on_c, 0, 72, 0
2, 113640, Note_on_c, 0, 79, 80
2, 113689, Control_c, 0, 64, 127
2, 113699, Note_on_c, 0, 79, 0
2, 113700, Note_on_c, 0, 75, 67
2, 113759, Note_on_c, 0, 75, 0
2, 113760, Note_on_c, 0, 72, 75
2, 113760, Note_on_c, 0, 69, 67
2, 113767, Control_c, 0, 64, 0
2, 113814, Control_c, 0, 64, 127
2, 113819, Note_on_c, 0, 69, 0
2, 113819, Note_on_c, 0, 72, 0
2, 113820, Note_on_c, 0, 74, 80
2, 113849, Control_c, 0, 64, 0
2, 113879, Note_on_c, 0, 74, 0
2, 113880, Note_on_c, 0, 75, 67
2, 113909, Control_c, 0, 64, 127
2, 113939, Note_on_c, 0, 75, 0
2, 113940, Note_on_c, 0, 72, 67
2, 113962, Control_c, 0, 64, 0
2, 113999, Note_on_c, 0, 72, 0
2, 114000, Note_on_c, 0, 70, 71
2, 114000, Note_on_c, 0, 74, 84
2, 114029, Control_c, 0, 64, 127
2, 114059, Note_on_c, 0, 74, 0
2, 114059, Note_on_c, 0, 70, 0
2, 114060, Note_on_c, 0, 75, 71
2, 114093, Control_c, 0, 64, 0
2, 114119, Note_on_c, 0, 75, 0
2, 114120, Note_on_c, 0, 77, 71
2, 114159, Control_c, 0, 64, 127
2, 114179, Note_on_c, 0, 77, 0
2, 114180, Note_on_c, 0, 74, 71
2, 114239, Note_on_c, 0, 74, 0
2, 114239, Control_c, 0, 64, 0
2, 114240, Note_on_c, 0, 67, 67
2, 114240, Note_on_c, 0, 70, 84
2, 114281, Control_c, 0, 64, 127
2, 114299, Note_on_c, 0, 70, 0
2, 114299, Note_on_c, 0, 67, 0
2, 114300, Note_on_c, 0, 72, 75
2, 114359, Note_on_c, 0, 72, 0
2, 114360, Note_on_c, 0, 74, 84
2, 114365, Control_c, 0, 64, 0
2, 114403, Control_c, 0, 64, 127
2, 114419, Note_on_c, 0, 74, 0
2, 114420, Note_on_c, 0, 70, 71
2, 114473, Control_c, 0, 64, 0
2, 114479, Note_on_c, 0, 70, 0
2, 114480, Note_on_c, 0, 63, 67
2, 114480, Note_on_c, 0, 67, 80
2, 114506, Control_c, 0, 64, 127
2, 114539, Note_on_c, 0, 67, 0
2, 114540, Note_on_c, 0, 75, 63
2, 114599, Note_on_c, 0, 75, 0
2, 114600, Note_on_c, 0, 63, 0
2, 114600, Note_on_c, 0, 74, 84
2, 114604, Control_c, 0, 64, 0
2, 114619, Note_on_c, 0, 74, 0
2, 114620, Note_on_c, 0, 75, 63
2, 114639, Note_on_c, 0, 75, 0
2, 114640, Note_on_c, 0, 74, 88
2, 114659, Note_on_c, 0, 74, 0
2, 114660, Note_on_c, 0, 72, 80
2, 114719, Note_on_c, 0, 72, 0
2, 114720, Note_on_c, 0, 65, 75
2, 114720, Note_on_c, 0, 72, 80
2, 114722, Control_c, 0, 64, 127
2, 114739, Note_on_c, 0, 72, 0
2, 114740, Note_on_c, 0, 74, 67
2, 114759, Note_on_c, 0, 74, 0
2, 114760, Note_on_c, 0, 72, 75
2, 114779, Note_on_c, 0, 72, 0
2, 114780, Note_on_c, 0, 70, 80
2, 114839, Note_on_c, 0, 70, 0
2, 114840, Note_on_c, 0, 65, 0
2, 114840, Note_on_c, 0, 70, 84
2, 114841, Control_c, 0, 64, 0
2, 114859, Note_on_c, 0, 70, 0
2, 114860, Note_on_c, 0, 72, 63
2, 114879, Note_on_c, 0, 72, 0
2, 114880, Note_on_c, 0, 70, 88
2, 114899, Note_on_c, 0, 70, 0
2, 114900, Note_on_c, 0, 69, 84
2, 114959, Note_on_c, 0, 69, 0
2, 114960, Note_on_c, 0, 58, 80
2, 114960, Note_on_c, 0, 70, 80
2, 114966, Control_c, 0, 64, 127
2, 115019, Note_on_c, 0, 70, 0
2, 115019, Note_on_c, 0, 58, 0
2, 115020, Note_on_c, 0, 72, 71
2, 115079, Note_on_c, 0, 72, 0
2, 115080, Note_on_c, 0, 74, 84
2, 115089, Control_c, 0, 64, 0
2, 115139, Note_on_c, 0, 74, 0
2, 115140, Note_on_c, 0, 75, 84
2, 115199, Note_on_c, 0, 75, 0
2, 115200, Note_on_c, 0, 77, 84
2, 115319, Note_on_c, 0, 77, 0
2, 116880, Note_on_c, 0, 70, 93
2, 116891, Control_c, 0, 64, 127
2, 116939, Note_on_c, 0, 70, 0
2, 116940, Note_on_c, 0, 65, 71
2, 116999, Note_on_c, 0, 65, 0
2, 116999, Control_c, 0, 64, 0
2, 117000, Note_on_c, 0, 74, 84
2, 117041, Control_c, 0, 64, 127
2, 117059, Note_on_c, 0, 74, 0
2, 117060, Note_on_c, 0, 70, 75
2, 117111, Control_c, 0, 64, 0
2, 117119, Note_on_c, 0, 70, 0
2, 117120, Note_on_c, 0, 72, 84
2, 117147, Control_c, 0, 64, 127
2, 117179, Note_on_c, 0, 72, 0
2, 117180, Note_on_c, 0, 69, 84
2, 117235, Control_c, 0, 64, 0
2, 117239, Note_on_c, 0, 69, 0
2, 117240, Note_on_c, 0, 75, 71
2, 117268, Control_c, 0, 64, 127
2, 117299, Note_on_c, 0, 75, 0
2, 117300, Note_on_c, 0, 72, 88
2, 117350, Control_c, 0, 64, 0
2, 117359, Note_on_c, 0, 72, 0
2, 117360, Note_on_c, 0, 70, 84
2, 117360, Note_on_c, 0, 74, 88
2, 117384, Control_c, 0, 64, 127
2, 117419, Note_on_c, 0, 74, 0
2, 117419, Note_on_c, 0, 70, 0
2, 117420, Note_on_c, 0, 70, 80
2, 117420, Note_on_c, 0, 65, 75
2, 117466, Control_c, 0, 64, 0
2, 117479, Note_on_c, 0, 65, 0
2, 117479, Note_on_c, 0, 70, 0
2, 117480, Note_on_c, 0, 74, 93
2, 117480, Note_on_c, 0, 77, 84
2, 117500, Control_c, 0, 64, 127
2, 117539, Note_on_c, 0, 77, 0
2, 117539, Note_on_c, 0, 74, 0
2, 117540, Note_on_c, 0, 70, 84
2, 117540, Note_on_c, 0, 74, 93
2, 117589, Control_c, 0, 64, 0
2, 117599, Note_on_c, 0, 74, 0
2, 117599, Note_on_c, 0, 70, 0
2, 117600, Note_on_c, 0, 72, 88
2, 117600, Note_on_c, 0, 75, 71
2, 117621, Control_c, 0, 64, 127
2, 117659, Note_on_c, 0, 75, 0
2, 117659, Note_on_c, 0, 72, 0
2, 117660, Note_on_c, 0, 72, 84
2, 117660, Note_on_c, 0, 69, 75
2, 117706, Control_c, 0, 64, 0
2, 117719, Note_on_c, 0, 69, 0
2, 117719, Note_on_c, 0, 72, 0
2, 117720, Note_on_c, 0, 75, 88
2, 117720, Note_on_c, 0, 79, 88
2, 117736, Control_c, 0, 64, 127
2, 117779, Note_on_c, 0, 79, 0
2, 117779, Note_on_c, 0, 75, 0
2, 117780, Note_on_c, 0, 72, 80
2, 117780, Note_on_c, 0, 75, 71
2, 117839, Note_on_c, 0, 75, 0
2, 117839, Note_on_c, 0, 72, 0
2, 117840, Note_on_c, 0, 77, 97
2, 117840, Note_on_c, 0, 74, 97
2, 117846, Control_c, 0, 64, 0
2, 117875, Control_c, 0, 64, 127
2, 117899, Note_on_c, 0, 74, 0
2, 117899, Note_on_c, 0, 77, 0
2, 117960, Note_on_c, 0, 81, 102
2, 117960, Note_on_c, 0, 77, 102
2, 117960, Note_on_c, 0, 75, 102
2, 117960, Note_on_c, 0, 72, 108
2, 117960, Note_on_c, 0, 65, 88
2, 117960, Note_on_c, 0, 69, 88
2, 117971, Control_c, 0, 64, 0
2, 118085, Control_c, 0, 64, 127
2, 118140, Note_on_c, 0, 69, 0
2, 118140, Note_on_c, 0, 77, 0
2, 118140, Note_on_c, 0, 75, 0
2, 118140, Note_on_c, 0, 81, 0
2, 118140, Note_on_c, 0, 65, 0
2, 118140, Note_on_c, 0, 72, 0
2, 118200, Note_on_c, 0, 70, 48
2, 118200, Note_on_c, 0, 74, 75
2, 118200, Note_on_c, 0, 82, 71
2, 118200, Note_on_c, 0, 77, 75
2, 118200, Note_on_c, 0, 65, 55
2, 118206, Control_c, 0, 64, 0
2, 118238, Control_c, 0, 64, 127
2, 118259, Note_on_c, 0, 65, 0
2, 118259, Note_on_c, 0, 82, 0
2, 118259, Note_on_c, 0, 70, 0
2, 118259, Note_on_c, 0, 74, 0
2, 118259, Note_on_c, 0, 77, 0
2, 118315, Control_c, 0, 64, 0
2, 118320, Note_on_c, 0, 77, 80
2, 118320, Note_on_c, 0, 72, 88
2, 118320, Note_on_c, 0, 81, 88
2, 118320, Note_on_c, 0, 69, 80
2, 118320, Note_on_c, 0, 65, 71
2, 118347, Control_c, 0, 64, 127
2, 118379, Note_on_c, 0, 65, 0
2, 118379, Note_on_c, 0, 81, 0
2, 118379, Note_on_c, 0, 77, 0
2, 118379, Note_on_c, 0, 72, 0
2, 118379, Note_on_c, 0, 69, 0
2, 118438, Control_c, 0, 64, 0
2, 118440, Note_on_c, 0, 72, 122
2, 118440, Note_on_c, 0, 77, 122
2, 118440, Note_on_c, 0, 81, 114
2, 118440, Note_on_c, 0, 65, 88
2, 118440, Note_on_c, 0, 75, 114
2, 118440, Note_on_c, 0, 69, 93
2, 118488, Control_c, 0, 64, 127
2, 118560, Note_on_c, 0, 69, 0
2, 118560, Note_on_c, 0, 75, 0
2, 118620, Note_on_c, 0, 81, 0
2, 118620, Note_on_c, 0, 72, 0
2, 118620, Note_on_c, 0, 77, 0
2, 118620, Note_on_c, 0, 65, 0
2, 118676, Control_c, 0, 64, 0
2, 118680, Note_on_c, 0, 82, 67
2, 118680, Note_on_c, 0, 74, 71
2, 118680, Note_on_c, 0, 77, 75
2, 118680, Note_on_c, 0, 70, 54
2, 118680, Note_on_c, 0, 65, 63
2, 118708, Control_c, 0, 64, 127
2, 118739, Note_on_c, 0, 65, 0
2, 118739, Note_on_c, 0, 77, 0
2, 118739, Note_on_c, 0, 82, 0
2, 118739, Note_on_c, 0, 74, 0
2, 118739, Note_on_c, 0, 70, 0
2, 118792, Control_c, 0, 64, 0
2, 118800, Note_on_c, 0, 72, 59
2, 118800, Note_on_c, 0, 77, 71
2, 118800, Note_on_c, 0, 81, 71
2, 118800, Note_on_c, 0, 65, 63
2, 118800, Note_on_c, 0, 69, 63
2, 118827, Control_c, 0, 64, 127
2, 118859, Note_on_c, 0, 69, 0
2, 118859, Note_on_c, 0, 81, 0
2, 118859, Note_on_c, 0, 72, 0
2, 118859, Note_on_c, 0, 77, 0
2, 118859, Note_on_c, 0, 65, 0
2, 118920, Note_on_c, 0, 75, 93
2, 118920, Note_on_c, 0, 65, 84
2, 118920, Note_on_c, 0, 72, 97
2, 118920, Note_on_c, 0, 77, 97
2, 118920, Note_on_c, 0, 81, 102
2, 118920, Note_on_c, 0, 69, 93
2, 118924, Control_c, 0, 64, 0
2, 118984, Control_c, 0, 64, 127
2, 119040, Note_on_c, 0, 69, 0
2, 119040, Note_on_c, 0, 65, 0
2, 119040, Note_on_c, 0, 72, 0
2, 119040, Note_on_c, 0, 75, 0
2, 119040, Note_on_c, 0, 81, 0
2, 119040, Note_on_c, 0, 77, 0
2, 119159, Control_c, 0, 64, 0
2, 119160, Note_on_c, 0, 82, 71
2, 119160, Note_on_c, 0, 74, 71
2, 119160, Note_on_c, 0, 70, 59
2, 119160, Note_on_c, 0, 77, 84
2, 119160, Note_on_c, 0, 65, 75
2, 119188, Control_c, 0, 64, 127
2, 119219, Note_on_c, 0, 65, 0
2, 119219, Note_on_c, 0, 70, 0
2, 119219, Note_on_c, 0, 82, 0
2, 119219, Note_on_c, 0, 74, 0
2, 119219, Note_on_c, 0, 77, 0
2, 119266, Control_c, 0, 64, 0
2, 119280, Note_on_c, 0, 77, 75
2, 119280, Note_on_c, 0, 72, 84
2, 119280, Note_on_c, 0, 81, 88
2, 119280, Note_on_c, 0, 65, 71
2, 119280, Note_on_c, 0, 69, 84
2, 119292, Control_c, 0, 64, 127
2, 119339, Note_on_c, 0, 69, 0
2, 119339, Note_on_c, 0, 81, 0
2, 119339, Note_on_c, 0, 77, 0
2, 119339, Note_on_c, 0, 72, 0
2, 119339, Note_on_c, 0, 65, 0
2, 119392, Control_c, 0, 64, 0
2, 120240, Note_on_c, 0, 77, 88
2, 120240, Note_on_c, 0, 65, 80
2, 120282, Control_c, 0, 64, 127
2, 120420, Note_on_c, 0, 65, 0
2, 120420, Note_on_c, 0, 77, 0
2, 120480, Note_on_c, 0, 60, 75
2, 120480, Note_on_c, 0, 72, 84
2, 120502, Control_c, 0, 64, 0
2, 120537, Control_c, 0, 64, 127
2, 120600, Note_on_c, 0, 72, 0
2, 120600, Note_on_c, 0, 60, 0
2, 120600, Note_on_c, 0, 74, 93
2, 120600, Note_on_c, 0, 62, 84
2, 120607, Control_c, 0, 64, 0
2, 120645, Control_c, 0, 64, 127
2, 120717, Control_c, 0, 64, 0
2, 120720, Note_on_c, 0, 62, 0
2, 120720, Note_on_c, 0, 74, 0
2, 120720, Note_on_c, 0, 75, 88
2, 120720, Note_on_c, 0, 63, 75
2, 120744, Control_c, 0, 64, 127
2, 120779, Note_on_c, 0, 63, 0
2, 120779, Note_on_c, 0, 75, 0
2, 120960, Note_on_c, 0, 55, 71
2, 120960, Note_on_c, 0, 67, 97
2, 120965, Control_c, 0, 64, 0
2, 121000, Control_c, 0, 64, 127
2, 121080, Note_on_c, 0, 67, 0
2, 121080, Note_on_c, 0, 55, 0
2, 121080, Note_on_c, 0, 69, 93
2, 121080, Note_on_c, 0, 57, 88
2, 121082, Control_c, 0, 64, 0
2, 121119, Control_c, 0, 64, 127
2, 121196, Control_c, 0, 64, 0
2, 121200, Note_on_c, 0, 57, 0
2, 121200, Note_on_c, 0, 69, 0
2, 121200, Note_on_c, 0, 70, 84
2, 121200, Note_on_c, 0, 58, 67
2, 121228, Control_c, 0, 64, 127
2, 121259, Note_on_c, 0, 58, 0
2, 121259, Note_on_c, 0, 70, 0
2, 121440, Note_on_c, 0, 72, 88
2, 121440, Note_on_c, 0, 60, 75
2, 121441, Control_c, 0, 64, 0
2, 121473, Control_c, 0, 64, 127
2, 121551, Control_c, 0, 64, 0
2, 121560, Note_on_c, 0, 60, 0
2, 121560, Note_on_c, 0, 72, 0
2, 121560, Note_on_c, 0, 77, 84
2, 121560, Note_on_c, 0, 65, 75
2, 121581, Control_c, 0, 64, 127
2, 121619, Note_on_c, 0, 65, 0
2, 121619, Note_on_c, 0, 77, 0
2, 121661, Control_c, 0, 64, 0
2, 121680, Note_on_c, 0, 63, 67
2, 121680, Note_on_c, 0, 75, 75
2, 121799, Note_on_c, 0, 75, 0
2, 121799, Note_on_c, 0, 63, 0
2, 121800, Note_on_c, 0, 63, 75
2, 121800, Note_on_c, 0, 75, 67
2, 121814, Note_on_c, 0, 75, 0
2, 121814, Note_on_c, 0, 63, 0
2, 121815, Note_on_c, 0, 62, 67
2, 121815, Note_on_c, 0, 74, 75
2, 121829, Note_on_c, 0, 74, 0
2, 121829, Note_on_c, 0, 62, 0
2, 121830, Note_on_c, 0, 75, 71
2, 121830, Note_on_c, 0, 63, 57
2, 121844, Note_on_c, 0, 63, 0
2, 121844, Note_on_c, 0, 75, 0
2, 121845, Note_on_c, 0, 74, 75
2, 121845, Note_on_c, 0, 62, 67
2, 121859, Note_on_c, 0, 62, 0
2, 121859, Note_on_c, 0, 74, 0
2, 121860, Note_on_c, 0, 75, 67
2, 121860, Note_on_c, 0, 63, 71
2, 121874, Note_on_c, 0, 63, 0
2, 121874, Note_on_c, 0, 75, 0
2, 121875, Note_on_c, 0, 74, 84
2, 121875, Note_on_c, 0, 62, 71
2, 121889, Note_on_c, 0, 62, 0
2, 121889, Note_on_c, 0, 74, 0
2, 121890, Note_on_c, 0, 60, 80
2, 121890, Note_on_c, 0, 72, 75
2, 121904, Note_on_c, 0, 72, 0
2, 121904, Note_on_c, 0, 60, 0
2, 121905, Note_on_c, 0, 74, 80
2, 121905, Note_on_c, 0, 62, 71
2, 121919, Note_on_c, 0, 62, 0
2, 121919, Note_on_c, 0, 74, 0
2, 121920, Note_on_c, 0, 60, 67
2, 121920, Note_on_c, 0, 72, 84
2, 121934, Control_c, 0, 64, 127
2, 121979, Note_on_c, 0, 72, 0
2, 121979, Note_on_c, 0, 60, 0
2, 122052, Control_c, 0, 64, 0
2, 122160, Note_on_c, 0, 77, 97
2, 122160, Note_on_c, 0, 65, 84
2, 122167, Control_c, 0, 64, 127
2, 122340, Note_on_c, 0, 65, 0
2, 122340, Note_on_c, 0, 77, 0
2, 122400, Note_on_c, 0, 60, 75
2, 122400, Note_on_c, 0, 72, 93
2, 122406, Control_c, 0, 64, 0
2, 122440, Control_c, 0, 64, 127
2, 122515, Control_c, 0, 64, 0
2, 122520, Note_on_c, 0, 72, 0
2, 122520, Note_on_c, 0, 60, 0
2, 122520, Note_on_c, 0, 74, 88
2, 122520, Note_on_c, 0, 62, 84
2, 122547, Control_c, 0, 64, 127
2, 122634, Control_c, 0, 64, 0
2, 122640, Note_on_c, 0, 62, 0
2, 122640, Note_on_c, 0, 74, 0
2, 122640, Note_on_c, 0, 75, 88
2, 122640, Note_on_c, 0, 63, 75
2, 122665, Control_c, 0, 64, 127
2, 122699, Note_on_c, 0, 63, 0
2, 122699, Note_on_c, 0, 75, 0
2, 122880, Note_on_c, 0, 55, 75
2, 122880, Note_on_c, 0, 67, 88
2, 122884, Control_c, 0, 64, 0
2, 122914, Control_c, 0, 64, 127
2, 123000, Note_on_c, 0, 67, 0
2, 123000, Note_on_c, 0, 55, 0
2, 123000, Control_c, 0, 64, 0
2, 123000, Note_on_c, 0, 69, 84
2, 123000, Note_on_c, 0, 57, 84
2, 123027, Control_c, 0, 64, 127
2, 123059, Note_on_c, 0, 57, 0
2, 123059, Note_on_c, 0, 69, 0
2, 123102, Control_c, 0, 64, 0
2, 123120, Note_on_c, 0, 58, 71
2, 123120, Note_on_c, 0, 62, 88
2, 123136, Control_c, 0, 64, 127
2, 123179, Note_on_c, 0, 62, 0
2, 123179, Note_on_c, 0, 58, 0
2, 123180, Note_on_c, 0, 70, 108
2, 123180, Note_on_c, 0, 74, 88
2, 123197, Control_c, 0, 64, 0
2, 123239, Note_on_c, 0, 74, 0
2, 123239, Note_on_c, 0, 70, 0
2, 123240, Note_on_c, 0, 58, 67
2, 123240, Note_on_c, 0, 62, 71
2, 123245, Control_c, 0, 64, 127
2, 123299, Note_on_c, 0, 62, 0
2, 123299, Note_on_c, 0, 58, 0
2, 123300, Note_on_c, 0, 74, 84
2, 123300, Note_on_c, 0, 70, 88
2, 123325, Control_c, 0, 64, 0
2, 123359, Note_on_c, 0, 70, 0
2, 123359, Note_on_c, 0, 74, 0
2, 123360, Note_on_c, 0, 58, 71
2, 123360, Note_on_c, 0, 62, 75
2, 123376, Control_c, 0, 64, 127
2, 123419, Note_on_c, 0, 62, 0
2, 123419, Note_on_c, 0, 58, 0
2, 123420, Note_on_c, 0, 70, 88
2, 123420, Note_on_c, 0, 74, 84
2, 123463, Control_c, 0, 64, 0
2, 123479, Note_on_c, 0, 74, 0
2, 123479, Note_on_c, 0, 70, 0
2, 123480, Note_on_c, 0, 62, 88
2, 123480, Note_on_c, 0, 58, 97
2, 123501, Control_c, 0, 64, 127
2, 123539, Note_on_c, 0, 58, 0
2, 123539, Note_on_c, 0, 62, 0
2, 123540, Note_on_c, 0, 70, 88
2, 123540, Note_on_c, 0, 74, 75
2, 123582, Control_c, 0, 64, 0
2, 123599, Note_on_c, 0, 74, 0
2, 123599, Note_on_c, 0, 70, 0
2, 123600, Note_on_c, 0, 62, 84
2, 123600, Note_on_c, 0, 58, 84
2, 123622, Control_c, 0, 64, 127
2, 123659, Note_on_c, 0, 58, 0
2, 123659, Note_on_c, 0, 62, 0
2, 123660, Note_on_c, 0, 70, 93
2, 123660, Note_on_c, 0, 74, 84
2, 123677, Control_c, 0, 64, 0
2, 123719, Note_on_c, 0, 74, 0
2, 123719, Note_on_c, 0, 70, 0
2, 123720, Note_on_c, 0, 62, 71
2, 123720, Note_on_c, 0, 58, 71
2, 123730, Control_c, 0, 64, 127
2, 123779, Note_on_c, 0, 58, 0
2, 123779, Note_on_c, 0, 62, 0
2, 123780, Note_on_c, 0, 70, 93
2, 123780, Note_on_c, 0, 74, 88
2, 123795, Control_c, 0, 64, 0
2, 123839, Note_on_c, 0, 74, 0
2, 123839, Note_on_c, 0, 70, 0
2, 123840, Note_on_c, 0, 58, 71
2, 123840, Note_on_c, 0, 62, 71
2, 123843, Control_c, 0, 64, 127
2, 123899, Note_on_c, 0, 62, 0
2, 123899, Note_on_c, 0, 58, 0
2, 123900, Note_on_c, 0, 74, 88
2, 123900, Note_on_c, 0, 70, 97
2, 123922, Control_c, 0, 64, 0
2, 123959, Note_on_c, 0, 70, 0
2, 123959, Note_on_c, 0, 74, 0
2, 123960, Note_on_c, 0, 58, 71
2, 123960, Note_on_c, 0, 62, 75
2, 123972, Control_c, 0, 64, 127
2, 124019, Note_on_c, 0, 62, 0
2, 124019, Note_on_c, 0, 58, 0
2, 124020, Note_on_c, 0, 74, 88
2, 124020, Note_on_c, 0, 70, 93
2, 124044, Control_c, 0, 64, 0
2, 124079, Note_on_c, 0, 70, 0
2, 124079, Note_on_c, 0, 74, 0
2, 124080, Note_on_c, 0, 58, 75
2, 124080, Note_on_c, 0, 60, 75
2, 124092, Control_c, 0, 64, 127
2, 124139, Note_on_c, 0, 60, 0
2, 124139, Note_on_c, 0, 58, 0
2, 124140, Note_on_c, 0, 72, 97
2, 124140, Note_on_c, 0, 70, 97
2, 124158, Control_c, 0, 64, 0
2, 124199, Note_on_c, 0, 70, 0
2, 124199, Note_on_c, 0, 72, 0
2, 124200, Note_on_c, 0, 58, 71
2, 124200, Note_on_c, 0, 60, 75
2, 124209, Control_c, 0, 64, 127
2, 124259, Note_on_c, 0, 60, 0
2, 124259, Note_on_c, 0, 58, 0
2, 124260, Note_on_c, 0, 72, 84
2, 124260, Note_on_c, 0, 70, 93
2, 124284, Control_c, 0, 64, 0
2, 124319, Note_on_c, 0, 70, 0
2, 124319, Note_on_c, 0, 72, 0
2, 124320, Note_on_c, 0, 58, 71
2, 124320, Note_on_c, 0, 60, 80
2, 124333, Control_c, 0, 64, 127
2, 124379, Note_on_c, 0, 60, 0
2, 124379, Note_on_c, 0, 58, 0
2, 124380, Note_on_c, 0, 72, 88
2, 124380, Note_on_c, 0, 70, 97
2, 124389, Control_c, 0, 64, 0
2, 124439, Note_on_c, 0, 70, 0
2, 124439, Note_on_c, 0, 72, 0
2, 124440, Note_on_c, 0, 58, 71
2, 124440, Note_on_c, 0, 60, 75
2, 124443, Control_c, 0, 64, 127
2, 124499, Note_on_c, 0, 60, 0
2, 124499, Note_on_c, 0, 58, 0
2, 124500, Note_on_c, 0, 70, 93
2, 124500, Note_on_c, 0, 72, 84
2, 124521, Control_c, 0, 64, 0
2, 124559, Note_on_c, 0, 72, 0
2, 124559, Note_on_c, 0, 70, 0
2, 124560, Note_on_c, 0, 57, 80
2, 124560, Note_on_c, 0, 60, 71
2, 124569, Control_c, 0, 64, 127
2, 124619, Note_on_c, 0, 60, 0
2, 124619, Note_on_c, 0, 57, 0
2, 124620, Note_on_c, 0, 69, 97
2, 124620, Note_on_c, 0, 72, 88
2, 124637, Control_c, 0, 64, 0
2, 124679, Note_on_c, 0, 72, 0
2, 124679, Note_on_c, 0, 69, 0
2, 124680, Note_on_c, 0, 57, 75
2, 124680, Note_on_c, 0, 60, 71
2, 124691, Control_c, 0, 64, 127
2, 124739, Note_on_c, 0, 60, 0
2, 124739, Note_on_c, 0, 57, 0
2, 124740, Note_on_c, 0, 72, 88
2, 124740, Note_on_c, 0, 69, 102
2, 124755, Control_c, 0, 64, 0
2, 124799, Note_on_c, 0, 69, 0
2, 124799, Note_on_c, 0, 72, 0
2, 124800, Note_on_c, 0, 57, 71
2, 124800, Note_on_c, 0, 60, 75
2, 124816, Control_c, 0, 64, 127
2, 124859, Note_on_c, 0, 60, 0
2, 124859, Note_on_c, 0, 57, 0
2, 124860, Note_on_c, 0, 69, 102
2, 124860, Note_on_c, 0, 72, 80
2, 124893, Control_c, 0, 64, 0
2, 124919, Note_on_c, 0, 72, 0
2, 124919, Note_on_c, 0, 69, 0
2, 124920, Note_on_c, 0, 57, 71
2, 124920, Note_on_c, 0, 60, 84
2, 124943, Control_c, 0, 64, 127
2, 124979, Note_on_c, 0, 60, 0
2, 124979, Note_on_c, 0, 57, 0
2, 124980, Note_on_c, 0, 69, 88
2, 124980, Note_on_c, 0, 72, 88
2, 125011, Control_c, 0, 64, 0
2, 125039, Note_on_c, 0, 72, 0
2, 125039, Note_on_c, 0, 69, 0
2, 125040, Note_on_c, 0, 70, 54
2, 125040, Note_on_c, 0, 74, 42
2, 125058, Control_c, 0, 64, 127
2, 125099, Note_on_c, 0, 74, 0
2, 125099, Note_on_c, 0, 70, 0
2, 125100, Note_on_c, 0, 82, 71
2, 125100, Note_on_c, 0, 86, 80
2, 125109, Control_c, 0, 64, 0
2, 125159, Note_on_c, 0, 86, 0
2, 125159, Note_on_c, 0, 82, 0
2, 125160, Note_on_c, 0, 70, 42
2, 125160, Note_on_c, 0, 74, 50
2, 125173, Control_c, 0, 64, 127
2, 125219, Note_on_c, 0, 74, 0
2, 125219, Note_on_c, 0, 70, 0
2, 125220, Note_on_c, 0, 82, 59
2, 125220, Note_on_c, 0, 86, 63
2, 125222, Control_c, 0, 64, 0
2, 125279, Note_on_c, 0, 86, 0
2, 125279, Note_on_c, 0, 82, 0
2, 125280, Note_on_c, 0, 70, 41
2, 125280, Note_on_c, 0, 74, 51
2, 125292, Control_c, 0, 64, 127
2, 125339, Note_on_c, 0, 74, 0
2, 125339, Note_on_c, 0, 70, 0
2, 125340, Note_on_c, 0, 82, 59
2, 125340, Note_on_c, 0, 86, 75
2, 125355, Control_c, 0, 64, 0
2, 125399, Note_on_c, 0, 86, 0
2, 125399, Note_on_c, 0, 82, 0
2, 125400, Note_on_c, 0, 70, 45
2, 125400, Note_on_c, 0, 74, 46
2, 125415, Control_c, 0, 64, 127
2, 125459, Note_on_c, 0, 74, 0
2, 125459, Note_on_c, 0, 70, 0
2, 125460, Note_on_c, 0, 82, 63
2, 125460, Note_on_c, 0, 86, 71
2, 125475, Control_c, 0, 64, 0
2, 125519, Note_on_c, 0, 86, 0
2, 125519, Note_on_c, 0, 82, 0
2, 125520, Note_on_c, 0, 74, 57
2, 125520, Note_on_c, 0, 70, 63
2, 125532, Control_c, 0, 64, 127
2, 125579, Note_on_c, 0, 70, 0
2, 125579, Note_on_c, 0, 74, 0
2, 125580, Note_on_c, 0, 86, 75
2, 125580, Note_on_c, 0, 82, 57
2, 125592, Control_c, 0, 64, 0
2, 125639, Note_on_c, 0, 82, 0
2, 125639, Note_on_c, 0, 86, 0
2, 125640, Note_on_c, 0, 70, 51
2, 125640, Note_on_c, 0, 74, 55
2, 125652, Control_c, 0, 64, 127
2, 125699, Note_on_c, 0, 74, 0
2, 125699, Note_on_c, 0, 70, 0
2, 125700, Note_on_c, 0, 86, 71
2, 125700, Note_on_c, 0, 82, 57
2, 125728, Control_c, 0, 64, 0
2, 125759, Note_on_c, 0, 82, 0
2, 125759, Note_on_c, 0, 86, 0
2, 125760, Note_on_c, 0, 70, 54
2, 125760, Note_on_c, 0, 74, 57
2, 125782, Control_c, 0, 64, 127
2, 125819, Note_on_c, 0, 74, 0
2, 125819, Note_on_c, 0, 70, 0
2, 125820, Note_on_c, 0, 82, 67
2, 125820, Note_on_c, 0, 86, 71
2, 125841, Control_c, 0, 64, 0
2, 125879, Note_on_c, 0, 86, 0
2, 125879, Note_on_c, 0, 82, 0
2, 125880, Note_on_c, 0, 70, 57
2, 125880, Note_on_c, 0, 74, 59
2, 125893, Control_c, 0, 64, 127
2, 125939, Note_on_c, 0, 74, 0
2, 125939, Note_on_c, 0, 70, 0
2, 125940, Note_on_c, 0, 86, 75
2, 125940, Note_on_c, 0, 82, 63
2, 125975, Control_c, 0, 64, 0
2, 125999, Note_on_c, 0, 82, 0
2, 125999, Note_on_c, 0, 86, 0
2, 126000, Note_on_c, 0, 72, 67
2, 126000, Note_on_c, 0, 70, 63
2, 126023, Control_c, 0, 64, 127
2, 126059, Note_on_c, 0, 70, 0
2, 126059, Note_on_c, 0, 72, 0
2, 126060, Note_on_c, 0, 82, 63
2, 126060, Note_on_c, 0, 84, 75
2, 126073, Control_c, 0, 64, 0
2, 126119, Note_on_c, 0, 84, 0
2, 126119, Note_on_c, 0, 82, 0
2, 126120, Note_on_c, 0, 70, 57
2, 126120, Note_on_c, 0, 72, 63
2, 126131, Control_c, 0, 64, 127
2, 126179, Note_on_c, 0, 72, 0
2, 126179, Note_on_c, 0, 70, 0
2, 126180, Note_on_c, 0, 82, 71
2, 126180, Note_on_c, 0, 84, 67
2, 126195, Control_c, 0, 64, 0
2, 126239, Note_on_c, 0, 84, 0
2, 126239, Note_on_c, 0, 82, 0
2, 126240, Note_on_c, 0, 70, 57
2, 126240, Note_on_c, 0, 72, 55
2, 126253, Control_c, 0, 64, 127
2, 126299, Note_on_c, 0, 72, 0
2, 126299, Note_on_c, 0, 70, 0
2, 126300, Note_on_c, 0, 82, 71
2, 126300, Note_on_c, 0, 84, 71
2, 126322, Control_c, 0, 64, 0
2, 126359, Note_on_c, 0, 84, 0
2, 126359, Note_on_c, 0, 82, 0
2, 126360, Note_on_c, 0, 72, 67
2, 126360, Note_on_c, 0, 70, 67
2, 126372, Control_c, 0, 64, 127
2, 126419, Note_on_c, 0, 70, 0
2, 126419, Note_on_c, 0, 72, 0
2, 126420, Note_on_c, 0, 82, 75
2, 126420, Note_on_c, 0, 84, 71
2, 126434, Control_c, 0, 64, 0
2, 126479, Note_on_c, 0, 84, 0
2, 126479, Note_on_c, 0, 82, 0
2, 126480, Note_on_c, 0, 69, 63
2, 126480, Note_on_c, 0, 72, 59
2, 126495, Control_c, 0, 64, 127
2, 126539, Note_on_c, 0, 72, 0
2, 126539, Note_on_c, 0, 69, 0
2, 126540, Note_on_c, 0, 84, 75
2, 126540, Note_on_c, 0, 81, 80
2, 126553, Control_c, 0, 64, 0
2, 126599, Note_on_c, 0, 81, 0
2, 126599, Note_on_c, 0, 84, 0
2, 126600, Note_on_c, 0, 69, 59
2, 126600, Note_on_c, 0, 72, 63
2, 126613, Control_c, 0, 64, 127
2, 126659, Note_on_c, 0, 72, 0
2, 126659, Note_on_c, 0, 69, 0
2, 126660, Note_on_c, 0, 81, 75
2, 126660, Note_on_c, 0, 84, 75
2, 126676, Control_c, 0, 64, 0
2, 126719, Note_on_c, 0, 84, 0
2, 126719, Note_on_c, 0, 81, 0
2, 126720, Note_on_c, 0, 69, 55
2, 126720, Note_on_c, 0, 72, 71
2, 126734, Control_c, 0, 64, 127
2, 126779, Note_on_c, 0, 72, 0
2, 126779, Note_on_c, 0, 69, 0
2, 126780, Note_on_c, 0, 81, 75
2, 126780, Note_on_c, 0, 84, 71
2, 126807, Control_c, 0, 64, 0
2, 126839, Note_on_c, 0, 84, 0
2, 126839, Note_on_c, 0, 81, 0
2, 126840, Note_on_c, 0, 69, 54
2, 126840, Note_on_c, 0, 72, 75
2, 126856, Control_c, 0, 64, 127
2, 126899, Note_on_c, 0, 72, 0
2, 126899, Note_on_c, 0, 69, 0
2, 126900, Note_on_c, 0, 81, 57
2, 126900, Note_on_c, 0, 84, 75
2, 126933, Control_c, 0, 64, 0
2, 126959, Note_on_c, 0, 84, 0
2, 126959, Note_on_c, 0, 81, 0
2, 126960, Note_on_c, 0, 86, 71
2, 126960, Note_on_c, 0, 70, 59
2, 127019, Note_on_c, 0, 70, 0
2, 127019, Note_on_c, 0, 86, 0
2, 127020, Note_on_c, 0, 72, 71
2, 127020, Note_on_c, 0, 87, 67
2, 127079, Note_on_c, 0, 87, 0
2, 127079, Note_on_c, 0, 72, 0
2, 127080, Note_on_c, 0, 89, 71
2, 127080, Note_on_c, 0, 74, 67
2, 127139, Note_on_c, 0, 74, 0
2, 127139, Note_on_c, 0, 89, 0
2, 127140, Note_on_c, 0, 72, 71
2, 127140, Note_on_c, 0, 87, 57
2, 127199, Note_on_c, 0, 87, 0
2, 127199, Note_on_c, 0, 72, 0
2, 127200, Note_on_c, 0, 70, 57
2, 127200, Note_on_c, 0, 86, 80
2, 127259, Note_on_c, 0, 86, 0
2, 127259, Note_on_c, 0, 70, 0
2, 127260, Note_on_c, 0, 84, 71
2, 127260, Note_on_c, 0, 69, 59
2, 127319, Note_on_c, 0, 69, 0
2, 127319, Note_on_c, 0, 84, 0
2, 127320, Note_on_c, 0, 82, 67
2, 127320, Note_on_c, 0, 67, 52
2, 127379, Note_on_c, 0, 67, 0
2, 127379, Note_on_c, 0, 82, 0
2, 127380, Note_on_c, 0, 81, 75
2, 127380, Note_on_c, 0, 66, 57
2, 127439, Note_on_c, 0, 66, 0
2, 127439, Note_on_c, 0, 81, 0
2, 127440, Note_on_c, 0, 82, 71
2, 127440, Note_on_c, 0, 67, 67
2, 127499, Note_on_c, 0, 67, 0
2, 127499, Note_on_c, 0, 82, 0
2, 127500, Note_on_c, 0, 84, 71
2, 127500, Note_on_c, 0, 69, 71
2, 127559, Note_on_c, 0, 69, 0
2, 127559, Note_on_c, 0, 84, 0
2, 127560, Note_on_c, 0, 70, 71
2, 127560, Note_on_c, 0, 86, 75
2, 127619, Note_on_c, 0, 86, 0
2, 127619, Note_on_c, 0, 70, 0
2, 127620, Note_on_c, 0, 69, 71
2, 127620, Note_on_c, 0, 84, 80
2, 127679, Note_on_c, 0, 84, 0
2, 127679, Note_on_c, 0, 69, 0
2, 127680, Note_on_c, 0, 67, 71
2, 127680, Note_on_c, 0, 82, 71
2, 127739, Note_on_c, 0, 82, 0
2, 127739, Note_on_c, 0, 67, 0
2, 127740, Note_on_c, 0, 65, 52
2, 127740, Note_on_c, 0, 81, 71
2, 127799, Note_on_c, 0, 81, 0
2, 127799, Note_on_c, 0, 65, 0
2, 127800, Note_on_c, 0, 79, 59
2, 127800, Note_on_c, 0, 63, 57
2, 127859, Note_on_c, 0, 63, 0
2, 127859, Note_on_c, 0, 79, 0
2, 127860, Note_on_c, 0, 78, 71
2, 127860, Note_on_c, 0, 62, 51
2, 127919, Note_on_c, 0, 62, 0
2, 127919, Note_on_c, 0, 78, 0
2, 127920, Note_on_c, 0, 63, 63
2, 127920, Note_on_c, 0, 79, 75
2, 127979, Note_on_c, 0, 79, 0
2, 127979, Note_on_c, 0, 63, 0
2, 127980, Note_on_c, 0, 81, 71
2, 127980, Note_on_c, 0, 65, 80
2, 128039, Note_on_c, 0, 65, 0
2, 128039, Note_on_c, 0, 81, 0
2, 128040, Note_on_c, 0, 82, 71
2, 128040, Note_on_c, 0, 67, 75
2, 128099, Note_on_c, 0, 67, 0
2, 128099, Note_on_c, 0, 82, 0
2, 128100, Note_on_c, 0, 65, 71
2, 128100, Note_on_c, 0, 81, 80
2, 128159, Note_on_c, 0, 81, 0
2, 128159, Note_on_c, 0, 65, 0
2, 128160, Note_on_c, 0, 79, 75
2, 128160, Note_on_c, 0, 63, 67
2, 128219, Note_on_c, 0, 63, 0
2, 128219, Note_on_c, 0, 79, 0
2, 128220, Note_on_c, 0, 77, 84
2, 128220, Note_on_c, 0, 62, 67
2, 128279, Note_on_c, 0, 62, 0
2, 128279, Note_on_c, 0, 77, 0
2, 128280, Note_on_c, 0, 60, 71
2, 128280, Note_on_c, 0, 75, 67
2, 128339, Note_on_c, 0, 75, 0
2, 128339, Note_on_c, 0, 60, 0
2, 128340, Note_on_c, 0, 58, 59
2, 128340, Note_on_c, 0, 74, 80
2, 128353, Control_c, 0, 64, 127
2, 128381, Control_c, 0, 64, 0
2, 128399, Note_on_c, 0, 74, 0
2, 128399, Note_on_c, 0, 58, 0
2, 128400, Note_on_c, 0, 75, 88
2, 128400, Note_on_c, 0, 60, 84
2, 128421, Control_c, 0, 64, 127
2, 128459, Note_on_c, 0, 60, 0
2, 128459, Note_on_c, 0, 75, 0
2, 128512, Control_c, 0, 64, 0
2, 128520, Note_on_c, 0, 75, 97
2, 128520, Note_on_c, 0, 79, 108
2, 128520, Note_on_c, 0, 63, 75
2, 128520, Note_on_c, 0, 67, 84
2, 128546, Control_c, 0, 64, 127
2, 128579, Note_on_c, 0, 67, 0
2, 128579, Note_on_c, 0, 75, 0
2, 128579, Note_on_c, 0, 79, 0
2, 128579, Note_on_c, 0, 63, 0
2, 128635, Control_c, 0, 64, 0
2, 128640, Note_on_c, 0, 77, 88
2, 128640, Note_on_c, 0, 74, 102
2, 128640, Note_on_c, 0, 62, 88
2, 128640, Note_on_c, 0, 65, 88
2, 128664, Control_c, 0, 64, 127
2, 128699, Note_on_c, 0, 65, 0
2, 128699, Note_on_c, 0, 77, 0
2, 128699, Note_on_c, 0, 74, 0
2, 128699, Note_on_c, 0, 62, 0
2, 128749, Control_c, 0, 64, 0
2, 128760, Note_on_c, 0, 81, 93
2, 128760, Note_on_c, 0, 75, 84
2, 128760, Note_on_c, 0, 72, 93
2, 128760, Note_on_c, 0, 65, 88
2, 128778, Control_c, 0, 64, 127
2, 128819, Note_on_c, 0, 65, 0
2, 128819, Note_on_c, 0, 81, 0
2, 128819, Note_on_c, 0, 75, 0
2, 128819, Note_on_c, 0, 72, 0
2, 128860, Control_c, 0, 64, 0
2, 128880, Note_on_c, 0, 82, 93
2, 128880, Note_on_c, 0, 70, 97
2, 128880, Note_on_c, 0, 74, 102
2, 128880, Note_on_c, 0, 77, 108
2, 128891, Control_c, 0, 64, 127
2, 128939, Note_on_c, 0, 77, 0
2, 128939, Note_on_c, 0, 82, 0
2, 128939, Note_on_c, 0, 70, 0
2, 128939, Note_on_c, 0, 74, 0
2, 128991, Control_c, 0, 64, 0
2, 130440, Note_on_c, 0, 79, 108
2, 130440, Note_on_c, 0, 75, 108
2, 130440, Note_on_c, 0, 63, 80
2, 130440, Note_on_c, 0, 67, 88
2, 130452, Control_c, 0, 64, 127
2, 130499, Note_on_c, 0, 67, 0
2, 130499, Note_on_c, 0, 79, 0
2, 130499, Note_on_c, 0, 75, 0
2, 130499, Note_on_c, 0, 63, 0
2, 130556, Control_c, 0, 64, 0
2, 130560, Note_on_c, 0, 74, 93
2, 130560, Note_on_c, 0, 77, 93
2, 130560, Note_on_c, 0, 62, 88
2, 130560, Note_on_c, 0, 65, 84
2, 130587, Control_c, 0, 64, 127
2, 130619, Note_on_c, 0, 65, 0
2, 130619, Note_on_c, 0, 74, 0
2, 130619, Note_on_c, 0, 77, 0
2, 130619, Note_on_c, 0, 62, 0
2, 130669, Control_c, 0, 64, 0
2, 130680, Note_on_c, 0, 72, 102
2, 130680, Note_on_c, 0, 81, 102
2, 130680, Note_on_c, 0, 75, 97
2, 130680, Note_on_c, 0, 60, 84
2, 130680, Note_on_c, 0, 63, 75
2, 130680, Note_on_c, 0, 69, 88
2, 130703, Control_c, 0, 64, 127
2, 130739, Note_on_c, 0, 69, 0
2, 130739, Note_on_c, 0, 81, 0
2, 130739, Note_on_c, 0, 75, 0
2, 130739, Note_on_c, 0, 72, 0
2, 130739, Note_on_c, 0, 63, 0
2, 130739, Note_on_c, 0, 60, 0
2, 130781, Control_c, 0, 64, 0
2, 130800, Note_on_c, 0, 82, 84
2, 130800, Note_on_c, 0, 77, 88
2, 130800, Note_on_c, 0, 74, 97
2, 130800, Note_on_c, 0, 70, 75
2, 130800, Note_on_c, 0, 62, 80
2, 130800, Note_on_c, 0, 65, 84
2, 130812, Control_c, 0, 64, 127
2, 130859, Note_on_c, 0, 65, 0
2, 130859, Note_on_c, 0, 77, 0
2, 130859, Note_on_c, 0, 74, 0
2, 130859, Note_on_c, 0, 82, 0
2, 130859, Note_on_c, 0, 62, 0
2, 130859, Note_on_c, 0, 70, 0
2, 130901, Control_c, 0, 64, 0
2, 130920, Note_on_c, 0, 77, 122
2, 130920, Note_on_c, 0, 65, 97
2, 130950, Control_c, 0, 64, 127
2, 131100, Note_on_c, 0, 65, 0
2, 131152, Control_c, 0, 64, 0
2, 131160, Note_on_c, 0, 77, 0
2, 131160, Note_on_c, 0, 74, 71
2, 131160, Note_on_c, 0, 62, 63
2, 131189, Control_c, 0, 64, 127
2, 131219, Note_on_c, 0, 62, 0
2, 131219, Note_on_c, 0, 74, 0
2, 131220, Note_on_c, 0, 57, 80
2, 131220, Note_on_c, 0, 69, 63
2, 131279, Note_on_c, 0, 69, 0
2, 131279, Note_on_c, 0, 57, 0
2, 131280, Note_on_c, 0, 70, 75
2, 131280, Note_on_c, 0, 58, 51
2, 131288, Control_c, 0, 64, 0
2, 131320, Control_c, 0, 64, 127
2, 131339, Note_on_c, 0, 58, 0
2, 131339, Note_on_c, 0, 70, 0
2, 131396, Control_c, 0, 64, 0
2, 131400, Note_on_c, 0, 77, 114
2, 131400, Note_on_c, 0, 65, 88
2, 131518, Control_c, 0, 64, 127
2, 131580, Note_on_c, 0, 65, 0
2, 131580, Note_on_c, 0, 77, 0
2, 131634, Control_c, 0, 64, 0
2, 131640, Note_on_c, 0, 62, 71
2, 131640, Note_on_c, 0, 74, 71
2, 131674, Control_c, 0, 64, 127
2, 131699, Note_on_c, 0, 74, 0
2, 131699, Note_on_c, 0, 62, 0
2, 131700, Note_on_c, 0, 57, 71
2, 131700, Note_on_c, 0, 69, 59
2, 131746, Control_c, 0, 64, 0
2, 131759, Note_on_c, 0, 69, 0
2, 131759, Note_on_c, 0, 57, 0
2, 131760, Note_on_c, 0, 58, 67
2, 131760, Note_on_c, 0, 70, 84
2, 131781, Control_c, 0, 64, 127
2, 131819, Note_on_c, 0, 70, 0
2, 131819, Note_on_c, 0, 58, 0
2, 131872, Control_c, 0, 64, 0
2, 131880, Note_on_c, 0, 53, 88
2, 131910, Control_c, 0, 64, 127
2, 131939, Note_on_c, 0, 53, 0
2, 131940, Note_on_c, 0, 65, 88
2, 131988, Control_c, 0, 64, 0
2, 131999, Note_on_c, 0, 65, 0
2, 132000, Note_on_c, 0, 55, 80
2, 132027, Control_c, 0, 64, 127
2, 132060, Note_on_c, 0, 67, 84
2, 132103, Control_c, 0, 64, 0
2, 132119, Note_on_c, 0, 67, 0
2, 132120, Note_on_c, 0, 55, 0
2, 132120, Note_on_c, 0, 57, 93
2, 132139, Control_c, 0, 64, 127
2, 132180, Note_on_c, 0, 69, 88
2, 132217, Control_c, 0, 64, 0
2, 132239, Note_on_c, 0, 69, 0
2, 132240, Note_on_c, 0, 57, 0
2, 132240, Note_on_c, 0, 58, 88
2, 132255, Control_c, 0, 64, 127
2, 132299, Note_on_c, 0, 58, 0
2, 132300, Note_on_c, 0, 70, 97
2, 132333, Control_c, 0, 64, 0
2, 132359, Note_on_c, 0, 70, 0
2, 132360, Note_on_c, 0, 60, 93
2, 132373, Control_c, 0, 64, 127
2, 132419, Note_on_c, 0, 60, 0
2, 132420, Note_on_c, 0, 72, 88
2, 132460, Control_c, 0, 64, 0
2, 132479, Note_on_c, 0, 72, 0
2, 132480, Note_on_c, 0, 62, 93
2, 132498, Control_c, 0, 64, 127
2, 132539, Note_on_c, 0, 62, 0
2, 132540, Note_on_c, 0, 74, 88
2, 132580, Control_c, 0, 64, 0
2, 132599, Note_on_c, 0, 74, 0
2, 132600, Note_on_c, 0, 63, 80
2, 132617, Control_c, 0, 64, 127
2, 132659, Note_on_c, 0, 63, 0
2, 132660, Note_on_c, 0, 75, 102
2, 132696, Control_c, 0, 64, 0
2, 132719, Note_on_c, 0, 75, 0
2, 132720, Note_on_c, 0, 65, 88
2, 132736, Control_c, 0, 64, 127
2, 132779, Note_on_c, 0, 65, 0
2, 132780, Note_on_c, 0, 77, 114
2, 132813, Control_c, 0, 64, 0
2, 132839, Note_on_c, 0, 77, 0
2, 132840, Note_on_c, 0, 67, 97
2, 132854, Control_c, 0, 64, 127
2, 132899, Note_on_c, 0, 67, 0
2, 132900, Note_on_c, 0, 79, 97
2, 132942, Control_c, 0, 64, 0
2, 132959, Note_on_c, 0, 79, 0
2, 132960, Note_on_c, 0, 69, 93
2, 132984, Control_c, 0, 64, 127
2, 133019, Note_on_c, 0, 69, 0
2, 133020, Note_on_c, 0, 81, 102
2, 133065, Control_c, 0, 64, 0
2, 133079, Note_on_c, 0, 81, 0
2, 133080, Note_on_c, 0, 70, 88
2, 133103, Control_c, 0, 64, 127
2, 133139, Note_on_c, 0, 70, 0
2, 133140, Note_on_c, 0, 82, 102
2, 133194, Control_c, 0, 64, 0
2, 133199, Note_on_c, 0, 82, 0
2, 133320, Note_on_c, 0, 63, 80
2, 133320, Note_on_c, 0, 75, 97
2, 133320, Note_on_c, 0, 79, 97
2, 133320, Note_on_c, 0, 67, 93
2, 133326, Control_c, 0, 64, 127
2, 133379, Note_on_c, 0, 67, 0
2, 133379, Note_on_c, 0, 63, 0
2, 133379, Note_on_c, 0, 75, 0
2, 133379, Note_on_c, 0, 79, 0
2, 133430, Control_c, 0, 64, 0
2, 133440, Note_on_c, 0, 62, 88
2, 133440, Note_on_c, 0, 74, 93
2, 133440, Note_on_c, 0, 65, 93
2, 133440, Note_on_c, 0, 77, 97
2, 133464, Control_c, 0, 64, 127
2, 133499, Note_on_c, 0, 77, 0
2, 133499, Note_on_c, 0, 62, 0
2, 133499, Note_on_c, 0, 74, 0
2, 133499, Note_on_c, 0, 65, 0
2, 133552, Control_c, 0, 64, 0
2, 133560, Note_on_c, 0, 69, 102
2, 133560, Note_on_c, 0, 60, 84
2, 133560, Note_on_c, 0, 63, 88
2, 133560, Note_on_c, 0, 65, 97
2, 133584, Control_c, 0, 64, 127
2, 133619, Note_on_c, 0, 65, 0
2, 133619, Note_on_c, 0, 69, 0
2, 133619, Note_on_c, 0, 60, 0
2, 133619, Note_on_c, 0, 63, 0
2, 133680, Note_on_c, 0, 65, 88
2, 133682, Control_c, 0, 64, 0
2, 133722, Control_c, 0, 64, 127
2, 133740, Note_on_c, 0, 77, 84
2, 133783, Control_c, 0, 64, 0
2, 133799, Note_on_c, 0, 77, 0
2, 133800, Note_on_c, 0, 65, 0
2, 133800, Note_on_c, 0, 67, 93
2, 133823, Control_c, 0, 64, 127
2, 133859, Note_on_c, 0, 67, 0
2, 133860, Note_on_c, 0, 79, 102
2, 133888, Control_c, 0, 64, 0
2, 133919, Note_on_c, 0, 79, 0
2, 133920, Note_on_c, 0, 69, 88
2, 133940, Control_c, 0, 64, 127
2, 133979, Note_on_c, 0, 69, 0
2, 133980, Note_on_c, 0, 81, 97
2, 134010, Control_c, 0, 64, 0
2, 134039, Note_on_c, 0, 81, 0
2, 134040, Note_on_c, 0, 70, 93
2, 134054, Control_c, 0, 64, 127
2, 134099, Note_on_c, 0, 70, 0
2, 134100, Note_on_c, 0, 82, 93
2, 134149, Control_c, 0, 64, 0
2, 134159, Note_on_c, 0, 82, 0
2, 134280, Note_on_c, 0, 67, 93
2, 134280, Note_on_c, 0, 63, 84
2, 134280, Note_on_c, 0, 79, 102
2, 134280, Note_on_c, 0, 75, 102
2, 134282, Control_c, 0, 64, 127
2, 134339, Note_on_c, 0, 75, 0
2, 134339, Note_on_c, 0, 67, 0
2, 134339, Note_on_c, 0, 63, 0
2, 134339, Note_on_c, 0, 79, 0
2, 134391, Control_c, 0, 64, 0
2, 134400, Note_on_c, 0, 62, 88
2, 134400, Note_on_c, 0, 65, 84
2, 134400, Note_on_c, 0, 74, 97
2, 134400, Note_on_c, 0, 77, 93
2, 134424, Control_c, 0, 64, 127
2, 134459, Note_on_c, 0, 77, 0
2, 134459, Note_on_c, 0, 62, 0
2, 134459, Note_on_c, 0, 65, 0
2, 134459, Note_on_c, 0, 74, 0
2, 134508, Control_c, 0, 64, 0
2, 134520, Note_on_c, 0, 72, 88
2, 134520, Note_on_c, 0, 63, 75
2, 134520, Note_on_c, 0, 69, 93
2, 134520, Note_on_c, 0, 65, 84
2, 134540, Control_c, 0, 64, 127
2, 134579, Note_on_c, 0, 65, 0
2, 134579, Note_on_c, 0, 72, 0
2, 134579, Note_on_c, 0, 63, 0
2, 134579, Note_on_c, 0, 69, 0
2, 134628, Control_c, 0, 64, 0
2, 134640, Note_on_c, 0, 62, 84
2, 134640, Note_on_c, 0, 70, 93
2, 134640, Note_on_c, 0, 65, 84
2, 134660, Control_c, 0, 64, 127
2, 134699, Note_on_c, 0, 65, 0
2, 134699, Note_on_c, 0, 70, 0
2, 134699, Note_on_c, 0, 62, 0
2, 134743, Control_c, 0, 64, 0
2, 134760, Note_on_c, 0, 77, 114
2, 134760, Note_on_c, 0, 65, 102
2, 134788, Control_c, 0, 64, 127
2, 135000, Note_on_c, 0, 65, 0
2, 135000, Note_on_c, 0, 77, 0
2, 135000, Note_on_c, 0, 62, 63
2, 135000, Note_on_c, 0, 74, 71
2, 135000, Control_c, 0, 64, 0
2, 135038, Control_c, 0, 64, 127
2, 135059, Note_on_c, 0, 74, 0
2, 135059, Note_on_c, 0, 62, 0
2, 135060, Note_on_c, 0, 69, 59
2, 135060, Note_on_c, 0, 57, 84
2, 135111, Control_c, 0, 64, 0
2, 135119, Note_on_c, 0, 57, 0
2, 135119, Note_on_c, 0, 69, 0
2, 135120, Note_on_c, 0, 58, 75
2, 135120, Note_on_c, 0, 70, 80
2, 135140, Control_c, 0, 64, 127
2, 135179, Note_on_c, 0, 70, 0
2, 135179, Note_on_c, 0, 58, 0
2, 135217, Control_c, 0, 64, 0
2, 135240, Note_on_c, 0, 77, 108
2, 135240, Note_on_c, 0, 65, 102
2, 135270, Control_c, 0, 64, 127
2, 135360, Note_on_c, 0, 65, 0
2, 135360, Note_on_c, 0, 77, 0
2, 135465, Control_c, 0, 64, 0
2, 135480, Note_on_c, 0, 62, 63
2, 135480, Note_on_c, 0, 74, 71
2, 135502, Control_c, 0, 64, 127
2, 135539, Note_on_c, 0, 74, 0
2, 135539, Note_on_c, 0, 62, 0
2, 135540, Note_on_c, 0, 57, 75
2, 135540, Note_on_c, 0, 69, 59
2, 135585, Control_c, 0, 64, 0
2, 135599, Note_on_c, 0, 69, 0
2, 135599, Note_on_c, 0, 57, 0
2, 135600, Note_on_c, 0, 70, 84
2, 135600, Note_on_c, 0, 58, 75
2, 135619, Control_c, 0, 64, 127
2, 135659, Note_on_c, 0, 58, 0
2, 135659, Note_on_c, 0, 70, 0
2, 135713, Control_c, 0, 64, 0
2, 135840, Note_on_c, 0, 65, 84
2, 135855, Note_on_c, 0, 69, 93
2, 135870, Note_on_c, 0, 72, 88
2, 135885, Note_on_c, 0, 75, 63
2, 135900, Note_on_c, 0, 77, 93
2, 135905, Control_c, 0, 64, 127
2, 135930, Note_on_c, 0, 81, 102
2, 135960, Note_on_c, 0, 65, 0
2, 135975, Note_on_c, 0, 69, 0
2, 135990, Note_on_c, 0, 72, 0
2, 136003, Control_c, 0, 64, 0
2, 136005, Note_on_c, 0, 75, 0
2, 136020, Note_on_c, 0, 77, 0
2, 136050, Note_on_c, 0, 81, 0
2, 136080, Note_on_c, 0, 62, 59
2, 136095, Note_on_c, 0, 65, 88
2, 136110, Note_on_c, 0, 70, 97
2, 136124, Control_c, 0, 64, 127
2, 136125, Note_on_c, 0, 74, 84
2, 136140, Note_on_c, 0, 77, 93
2, 136170, Note_on_c, 0, 82, 108
2, 136200, Note_on_c, 0, 62, 0
2, 136215, Note_on_c, 0, 65, 0
2, 136229, Note_on_c, 0, 82, 0
2, 136230, Note_on_c, 0, 70, 0
2, 136245, Note_on_c, 0, 74, 0
2, 136260, Note_on_c, 0, 77, 0
2, 136267, Control_c, 0, 64, 0
2, 136320, Control_c, 0, 121, 0
2, 136320, End_track
3, 0, Start_track
3, 0, MIDI_port, 0
3, 0, Title_t, "Secondo"
3, 0, Program_c, 1, 0
3, 0, Control_c, 1, 10, 44
3, 15, Control_c, 1, 121, 0
3, 15, Control_c, 1, 7, 127
3, 15, Control_c, 1, 91, 75
3, 480, Note_on_c, 1, 58, 89
3, 480, Note_on_c, 1, 46, 89
3, 493, Control_c, 1, 64, 127
3, 716, Note_on_c, 1, 46, 0
3, 716, Note_on_c, 1, 58, 0
3, 718, Control_c, 1, 64, 0
3, 720, Note_on_c, 1, 53, 93
3, 720, Note_on_c, 1, 41, 89
3, 755, Control_c, 1, 64, 127
3, 950, Note_on_c, 1, 53, 0
3, 950, Control_c, 1, 64, 0
3, 954, Note_on_c, 1, 41, 0
3, 960, Note_on_c, 1, 38, 93
3, 960, Note_on_c, 1, 50, 93
3, 981, Control_c, 1, 64, 127
3, 1089, Note_on_c, 1, 38, 0
3, 1102, Note_on_c, 1, 50, 0
3, 1136, Control_c, 1, 64, 0
3, 1140, Note_on_c, 1, 34, 59
3, 1140, Note_on_c, 1, 46, 89
3, 1195, Note_on_c, 1, 46, 0
3, 1196, Note_on_c, 1, 34, 0
3, 1200, Note_on_c, 1, 36, 85
3, 1200, Note_on_c, 1, 48, 93
3, 1256, Note_on_c, 1, 36, 0
3, 1260, Note_on_c, 1, 48, 0
3, 1260, Note_on_c, 1, 50, 93
3, 1260, Note_on_c, 1, 38, 89
3, 1320, Note_on_c, 1, 50, 0
3, 1320, Note_on_c, 1, 39, 93
3, 1320, Note_on_c, 1, 51, 93
3, 1321, Note_on_c, 1, 38, 0
3, 1376, Note_on_c, 1, 51, 0
3, 1380, Note_on_c, 1, 53, 89
3, 1380, Note_on_c, 1, 41, 93
3, 1381, Note_on_c, 1, 39, 0
3, 1440, Note_on_c, 1, 55, 85
3, 1440, Note_on_c, 1, 43, 89
3, 1442, Note_on_c, 1, 41, 0
3, 1442, Note_on_c, 1, 53, 0
3, 1479, Control_c, 1, 64, 127
3, 1500, Note_on_c, 1, 41, 72
3, 1500, Note_on_c, 1, 53, 89
3, 1501, Note_on_c, 1, 43, 0
3, 1503, Note_on_c, 1, 55, 0
3, 1535, Control_c, 1, 64, 0
3, 1560, Note_on_c, 1, 41, 0
3, 1560, Note_on_c, 1, 39, 80
3, 1560, Note_on_c, 1, 51, 93
3, 1562, Note_on_c, 1, 53, 0
3, 1620, Note_on_c, 1, 39, 0
3, 1620, Note_on_c, 1, 50, 98
3, 1620, Note_on_c, 1, 38, 89
3, 1621, Note_on_c, 1, 51, 0
3, 1676, Control_c, 1, 64, 127
3, 1679, Note_on_c, 1, 38, 0
3, 1680, Note_on_c, 1, 51, 93
3, 1680, Note_on_c, 1, 39, 76
3, 1684, Note_on_c, 1, 50, 0
3, 1690, Control_c, 1, 64, 0
3, 1740, Note_on_c, 1, 51, 0
3, 1740, Note_on_c, 1, 41, 85
3, 1740, Note_on_c, 1, 53, 76
3, 1746, Note_on_c, 1, 39, 0
3, 1799, Note_on_c, 1, 41, 0
3, 1800, Note_on_c, 1, 43, 80
3, 1800, Note_on_c, 1, 55, 93
3, 1803, Note_on_c, 1, 53, 0
3, 1803, Control_c, 1, 64, 127
3, 1828, Control_c, 1, 64, 0
3, 1860, Note_on_c, 1, 45, 89
3, 1860, Note_on_c, 1, 57, 93
3, 1864, Note_on_c, 1, 55, 0
3, 1868, Note_on_c, 1, 43, 0
3, 1918, Note_on_c, 1, 57, 0
3, 1920, Note_on_c, 1, 58, 89
3, 1920, Note_on_c, 1, 46, 89
3, 1925, Note_on_c, 1, 45, 0
3, 1965, Control_c, 1, 64, 127
3, 2032, Control_c, 1, 64, 0
3, 2039, Note_on_c, 1, 46, 0
3, 2040, Note_on_c, 1, 58, 0
3, 2160, Note_on_c, 1, 58, 57
3, 2160, Note_on_c, 1, 55, 64
3, 2169, Control_c, 1, 64, 127
3, 2301, Note_on_c, 1, 55, 0
3, 2304, Note_on_c, 1, 58, 0
3, 2400, Note_on_c, 1, 57, 64
3, 2400, Note_on_c, 1, 53, 60
3, 2412, Control_c, 1, 64, 0
3, 2448, Control_c, 1, 64, 127
3, 2525, Note_on_c, 1, 57, 0
3, 2526, Note_on_c, 1, 53, 0
3, 2640, Note_on_c, 1, 51, 60
3, 2640, Note_on_c, 1, 55, 60
3, 2640, Control_c, 1, 64, 0
3, 2668, Control_c, 1, 64, 127
3, 2738, Note_on_c, 1, 51, 0
3, 2744, Note_on_c, 1, 55, 0
3, 2880, Note_on_c, 1, 53, 93
3, 2880, Note_on_c, 1, 34, 93
3, 2880, Note_on_c, 1, 46, 93
3, 2880, Note_on_c, 1, 50, 102
3, 2881, Control_c, 1, 64, 0
3, 2927, Control_c, 1, 64, 127
3, 3085, Note_on_c, 1, 50, 0
3, 3094, Note_on_c, 1, 53, 0
3, 3096, Note_on_c, 1, 46, 0
3, 3098, Note_on_c, 1, 34, 0
3, 3114, Control_c, 1, 64, 0
3, 3120, Note_on_c, 1, 58, 56
3, 3120, Note_on_c, 1, 55, 64
3, 3236, Control_c, 1, 64, 127
3, 3356, Note_on_c, 1, 58, 0
3, 3358, Note_on_c, 1, 55, 0
3, 3360, Note_on_c, 1, 57, 64
3, 3360, Note_on_c, 1, 53, 59
3, 3367, Control_c, 1, 64, 0
3, 3420, Control_c, 1, 64, 127
3, 3512, Note_on_c, 1, 53, 0
3, 3520, Note_on_c, 1, 57, 0
3, 3600, Note_on_c, 1, 55, 60
3, 3600, Note_on_c, 1, 51, 43
3, 3604, Control_c, 1, 64, 0
3, 3637, Control_c, 1, 64, 127
3, 3734, Note_on_c, 1, 55, 0
3, 3739, Note_on_c, 1, 51, 0
3, 3838, Control_c, 1, 64, 0
3, 3840, Note_on_c, 1, 34, 85
3, 3840, Note_on_c, 1, 53, 85
3, 3840, Note_on_c, 1, 50, 98
3, 3840, Note_on_c, 1, 46, 89
3, 3875, Control_c, 1, 64, 127
3, 3990, Note_on_c, 1, 34, 0
3, 4002, Note_on_c, 1, 50, 0
3, 4008, Note_on_c, 1, 53, 0
3, 4009, Note_on_c, 1, 46, 0
3, 4080, Note_on_c, 1, 55, 98
3, 4080, Note_on_c, 1, 58, 93
3, 4080, Note_on_c, 1, 43, 93
3, 4090, Control_c, 1, 64, 0
3, 4126, Control_c, 1, 64, 127
3, 4265, Note_on_c, 1, 55, 0
3, 4266, Note_on_c, 1, 43, 0
3, 4270, Note_on_c, 1, 58, 0
3, 4320, Note_on_c, 1, 41, 89
3, 4320, Note_on_c, 1, 57, 98
3, 4320, Note_on_c, 1, 53, 98
3, 4331, Control_c, 1, 64, 0
3, 4369, Control_c, 1, 64, 127
3, 4482, Note_on_c, 1, 41, 0
3, 4484, Note_on_c, 1, 57, 0
3, 4491, Note_on_c, 1, 53, 0
3, 4560, Note_on_c, 1, 55, 98
3, 4560, Note_on_c, 1, 51, 85
3, 4560, Note_on_c, 1, 39, 93
3, 4566, Control_c, 1, 64, 0
3, 4597, Control_c, 1, 64, 127
3, 4704, Note_on_c, 1, 55, 0
3, 4706, Note_on_c, 1, 51, 0
3, 4709, Note_on_c, 1, 39, 0
3, 4794, Control_c, 1, 64, 0
3, 4800, Note_on_c, 1, 38, 93
3, 4800, Note_on_c, 1, 53, 89
3, 4800, Note_on_c, 1, 50, 93
3, 4822, Control_c, 1, 64, 127
3, 4935, Control_c, 1, 64, 0
3, 4938, Note_on_c, 1, 50, 0
3, 4940, Note_on_c, 1, 38, 0
3, 4942, Note_on_c, 1, 53, 0
3, 5040, Note_on_c, 1, 53, 102
3, 5040, Note_on_c, 1, 58, 93
3, 5040, Note_on_c, 1, 50, 102
3, 5040, Note_on_c, 1, 38, 93
3, 5040, Control_c, 1, 64, 127
3, 5165, Note_on_c, 1, 38, 0
3, 5165, Note_on_c, 1, 53, 0
3, 5168, Note_on_c, 1, 50, 0
3, 5168, Note_on_c, 1, 58, 0
3, 5169, Control_c, 1, 64, 0
3, 5277, Control_c, 1, 64, 127
3, 5280, Note_on_c, 1, 58, 89
3, 5280, Note_on_c, 1, 55, 98
3, 5280, Note_on_c, 1, 39, 93
3, 5280, Note_on_c, 1, 51, 93
3, 5399, Note_on_c, 1, 51, 0
3, 5399, Note_on_c, 1, 55, 0
3, 5401, Note_on_c, 1, 39, 0
3, 5403, Note_on_c, 1, 58, 0
3, 5403, Control_c, 1, 64, 0
3, 5520, Note_on_c, 1, 39, 89
3, 5520, Note_on_c, 1, 58, 89
3, 5520, Note_on_c, 1, 60, 93
3, 5520, Note_on_c, 1, 51, 93
3, 5520, Note_on_c, 1, 55, 93
3, 5533, Control_c, 1, 64, 127
3, 5640, Note_on_c, 1, 39, 0
3, 5642, Note_on_c, 1, 58, 0
3, 5646, Note_on_c, 1, 55, 0
3, 5647, Note_on_c, 1, 60, 0
3, 5648, Note_on_c, 1, 51, 0
3, 5672, Control_c, 1, 64, 0
3, 5760, Note_on_c, 1, 53, 107
3, 5760, Note_on_c, 1, 41, 89
3, 5772, Control_c, 1, 64, 127
3, 5783, Note_on_c, 1, 53, 0
3, 5790, Note_on_c, 1, 60, 93
3, 5811, Note_on_c, 1, 60, 0
3, 5820, Note_on_c, 1, 59, 93
3, 5835, Note_on_c, 1, 59, 0
3, 5850, Note_on_c, 1, 60, 80
3, 5854, Note_on_c, 1, 41, 0
3, 5865, Note_on_c, 1, 60, 0
3, 5866, Control_c, 1, 64, 0
3, 5880, Note_on_c, 1, 62, 98
3, 5880, Note_on_c, 1, 41, 85
3, 5893, Control_c, 1, 64, 127
3, 5900, Note_on_c, 1, 62, 0
3, 5910, Note_on_c, 1, 60, 64
3, 5932, Note_on_c, 1, 60, 0
3, 5940, Note_on_c, 1, 59, 93
3, 5959, Note_on_c, 1, 59, 0
3, 5968, Note_on_c, 1, 41, 0
3, 5970, Note_on_c, 1, 60, 85
3, 5984, Note_on_c, 1, 60, 0
3, 5994, Control_c, 1, 64, 0
3, 6000, Note_on_c, 1, 53, 102
3, 6000, Note_on_c, 1, 41, 89
3, 6029, Control_c, 1, 64, 127
3, 6030, Note_on_c, 1, 53, 0
3, 6030, Note_on_c, 1, 63, 85
3, 6055, Note_on_c, 1, 63, 0
3, 6060, Note_on_c, 1, 62, 98
3, 6076, Note_on_c, 1, 62, 0
3, 6079, Note_on_c, 1, 41, 0
3, 6090, Note_on_c, 1, 63, 62
3, 6105, Note_on_c, 1, 63, 0
3, 6120, Control_c, 1, 64, 0
3, 6120, Note_on_c, 1, 65, 107
3, 6120, Note_on_c, 1, 41, 89
3, 6145, Note_on_c, 1, 65, 0
3, 6150, Note_on_c, 1, 63, 76
3, 6151, Control_c, 1, 64, 127
3, 6170, Note_on_c, 1, 63, 0
3, 6180, Note_on_c, 1, 62, 98
3, 6196, Note_on_c, 1, 62, 0
3, 6208, Note_on_c, 1, 41, 0
3, 6210, Note_on_c, 1, 63, 93
3, 6223, Note_on_c, 1, 63, 0
3, 6240, Note_on_c, 1, 53, 102
3, 6240, Note_on_c, 1, 41, 89
3, 6249, Control_c, 1, 64, 0
3, 6270, Note_on_c, 1, 53, 0
3, 6270, Note_on_c, 1, 62, 93
3, 6279, Control_c, 1, 64, 127
3, 6287, Note_on_c, 1, 62, 0
3, 6300, Note_on_c, 1, 61, 85
3, 6313, Note_on_c, 1, 41, 0
3, 6315, Note_on_c, 1, 61, 0
3, 6330, Note_on_c, 1, 62, 89
3, 6349, Note_on_c, 1, 62, 0
3, 6360, Note_on_c, 1, 63, 64
3, 6360, Note_on_c, 1, 41, 93
3, 6372, Control_c, 1, 64, 0
3, 6385, Note_on_c, 1, 63, 0
3, 6390, Note_on_c, 1, 62, 93
3, 6397, Control_c, 1, 64, 127
3, 6408, Note_on_c, 1, 62, 0
3, 6420, Note_on_c, 1, 61, 85
3, 6438, Note_on_c, 1, 61, 0
3, 6440, Note_on_c, 1, 41, 0
3, 6450, Note_on_c, 1, 62, 93
3, 6463, Note_on_c, 1, 62, 0
3, 6479, Control_c, 1, 64, 0
3, 6480, Note_on_c, 1, 53, 93
3, 6480, Note_on_c, 1, 41, 85
3, 6507, Control_c, 1, 64, 127
3, 6510, Note_on_c, 1, 53, 0
3, 6510, Note_on_c, 1, 58, 80
3, 6529, Note_on_c, 1, 58, 0
3, 6540, Note_on_c, 1, 57, 93
3, 6559, Note_on_c, 1, 57, 0
3, 6570, Note_on_c, 1, 58, 60
3, 6575, Note_on_c, 1, 41, 0
3, 6589, Note_on_c, 1, 58, 0
3, 6600, Note_on_c, 1, 41, 89
3, 6600, Note_on_c, 1, 60, 89
3, 6602, Control_c, 1, 64, 0
3, 6626, Note_on_c, 1, 60, 0
3, 6630, Note_on_c, 1, 58, 76
3, 6634, Control_c, 1, 64, 127
3, 6651, Note_on_c, 1, 58, 0
3, 6660, Note_on_c, 1, 57, 89
3, 6683, Note_on_c, 1, 57, 0
3, 6687, Note_on_c, 1, 41, 0
3, 6690, Note_on_c, 1, 58, 72
3, 6707, Note_on_c, 1, 58, 0
3, 6718, Control_c, 1, 64, 0
3, 6720, Note_on_c, 1, 53, 93
3, 6720, Note_on_c, 1, 41, 80
3, 6745, Note_on_c, 1, 53, 0
3, 6749, Control_c, 1, 64, 127
3, 6750, Note_on_c, 1, 57, 89
3, 6773, Note_on_c, 1, 57, 0
3, 6780, Note_on_c, 1, 56, 85
3, 6797, Note_on_c, 1, 56, 0
3, 6809, Note_on_c, 1, 41, 0
3, 6810, Note_on_c, 1, 57, 76
3, 6822, Note_on_c, 1, 57, 0
3, 6831, Control_c, 1, 64, 0
3, 6840, Note_on_c, 1, 58, 93
3, 6840, Note_on_c, 1, 41, 89
3, 6862, Control_c, 1, 64, 127
3, 6867, Note_on_c, 1, 58, 0
3, 6870, Note_on_c, 1, 57, 85
3, 6893, Note_on_c, 1, 57, 0
3, 6900, Note_on_c, 1, 56, 93
3, 6918, Note_on_c, 1, 56, 0
3, 6928, Note_on_c, 1, 41, 0
3, 6930, Note_on_c, 1, 57, 93
3, 6945, Note_on_c, 1, 57, 0
3, 6945, Control_c, 1, 64, 0
3, 6960, Note_on_c, 1, 53, 102
3, 6960, Note_on_c, 1, 41, 85
3, 6976, Control_c, 1, 64, 127
3, 6984, Note_on_c, 1, 53, 0
3, 6990, Note_on_c, 1, 63, 76
3, 7012, Note_on_c, 1, 63, 0
3, 7020, Note_on_c, 1, 62, 93
3, 7035, Note_on_c, 1, 62, 0
3, 7044, Note_on_c, 1, 41, 0
3, 7050, Note_on_c, 1, 63, 85
3, 7065, Note_on_c, 1, 63, 0
3, 7072, Control_c, 1, 64, 0
3, 7080, Note_on_c, 1, 65, 93
3, 7080, Note_on_c, 1, 41, 80
3, 7103, Note_on_c, 1, 65, 0
3, 7104, Control_c, 1, 64, 127
3, 7110, Note_on_c, 1, 63, 76
3, 7130, Note_on_c, 1, 63, 0
3, 7140, Note_on_c, 1, 62, 89
3, 7164, Note_on_c, 1, 62, 0
3, 7169, Note_on_c, 1, 41, 0
3, 7170, Note_on_c, 1, 63, 107
3, 7184, Note_on_c, 1, 63, 0
3, 7199, Control_c, 1, 64, 0
3, 7200, Note_on_c, 1, 41, 85
3, 7200, Note_on_c, 1, 53, 93
3, 7230, Note_on_c, 1, 53, 0
3, 7230, Control_c, 1, 64, 127
3, 7230, Note_on_c, 1, 62, 93
3, 7249, Note_on_c, 1, 62, 0
3, 7260, Note_on_c, 1, 61, 68
3, 7277, Note_on_c, 1, 61, 0
3, 7290, Note_on_c, 1, 62, 93
3, 7304, Note_on_c, 1, 62, 0
3, 7304, Note_on_c, 1, 41, 0
3, 7320, Note_on_c, 1, 41, 93
3, 7320, Note_on_c, 1, 63, 93
3, 7329, Control_c, 1, 64, 0
3, 7346, Note_on_c, 1, 63, 0
3, 7350, Note_on_c, 1, 62, 89
3, 7353, Control_c, 1, 64, 127
3, 7368, Note_on_c, 1, 62, 0
3, 7380, Note_on_c, 1, 61, 76
3, 7397, Note_on_c, 1, 61, 0
3, 7403, Note_on_c, 1, 41, 0
3, 7410, Note_on_c, 1, 62, 89
3, 7423, Note_on_c, 1, 62, 0
3, 7439, Control_c, 1, 64, 0
3, 7440, Note_on_c, 1, 53, 107
3, 7440, Note_on_c, 1, 41, 80
3, 7467, Note_on_c, 1, 53, 0
3, 7469, Control_c, 1, 64, 127
3, 7470, Note_on_c, 1, 58, 85
3, 7490, Note_on_c, 1, 58, 0
3, 7500, Note_on_c, 1, 57, 85
3, 7516, Note_on_c, 1, 57, 0
3, 7530, Note_on_c, 1, 58, 60
3, 7542, Note_on_c, 1, 41, 0
3, 7546, Note_on_c, 1, 58, 0
3, 7554, Control_c, 1, 64, 0
3, 7560, Note_on_c, 1, 60, 93
3, 7560, Note_on_c, 1, 41, 85
3, 7581, Control_c, 1, 64, 127
3, 7590, Note_on_c, 1, 58, 62
3, 7596, Note_on_c, 1, 60, 0
3, 7615, Note_on_c, 1, 58, 0
3, 7620, Note_on_c, 1, 57, 93
3, 7645, Note_on_c, 1, 57, 0
3, 7650, Note_on_c, 1, 58, 80
3, 7658, Note_on_c, 1, 41, 0
3, 7667, Note_on_c, 1, 58, 0
3, 7678, Control_c, 1, 64, 0
3, 7680, Note_on_c, 1, 57, 113
3, 7680, Note_on_c, 1, 41, 89
3, 7704, Control_c, 1, 64, 127
3, 7730, Note_on_c, 1, 57, 0
3, 7741, Note_on_c, 1, 41, 0
3, 7788, Control_c, 1, 64, 0
3, 7800, Note_on_c, 1, 60, 93
3, 7800, Note_on_c, 1, 53, 98
3, 7800, Note_on_c, 1, 57, 98
3, 7800, Note_on_c, 1, 41, 85
3, 7815, Control_c, 1, 64, 127
3, 7859, Note_on_c, 1, 53, 0
3, 7863, Note_on_c, 1, 60, 0
3, 7863, Note_on_c, 1, 57, 0
3, 7864, Note_on_c, 1, 41, 0
3, 7910, Control_c, 1, 64, 0
3, 7920, Note_on_c, 1, 60, 93
3, 7920, Note_on_c, 1, 53, 102
3, 7920, Note_on_c, 1, 57, 113
3, 7920, Note_on_c, 1, 41, 93
3, 7931, Control_c, 1, 64, 127
3, 7949, Note_on_c, 1, 41, 0
3, 7949, Note_on_c, 1, 60, 0
3, 7949, Note_on_c, 1, 53, 0
3, 7949, Note_on_c, 1, 57, 0
3, 8040, Control_c, 1, 64, 0
3, 8760, Note_on_c, 1, 48, 68
3, 8760, Note_on_c, 1, 36, 62
3, 8776, Control_c, 1, 64, 127
3, 8820, Note_on_c, 1, 48, 0
3, 8825, Note_on_c, 1, 36, 0
3, 8880, Note_on_c, 1, 48, 72
3, 8880, Note_on_c, 1, 36, 72
3, 8886, Control_c, 1, 64, 0
3, 8914, Control_c, 1, 64, 127
3, 8935, Note_on_c, 1, 36, 0
3, 8947, Note_on_c, 1, 48, 0
3, 9000, Note_on_c, 1, 48, 64
3, 9000, Note_on_c, 1, 36, 62
3, 9020, Note_on_c, 1, 36, 0
3, 9028, Note_on_c, 1, 48, 0
3, 9120, Note_on_c, 1, 41, 60
3, 9120, Control_c, 1, 64, 0
3, 9120, Note_on_c, 1, 53, 62
3, 9154, Control_c, 1, 64, 127
3, 9172, Note_on_c, 1, 53, 0
3, 9179, Note_on_c, 1, 41, 0
3, 9180, Note_on_c, 1, 57, 68
3, 9180, Note_on_c, 1, 45, 68
3, 9228, Control_c, 1, 64, 0
3, 9234, Note_on_c, 1, 57, 0
3, 9236, Note_on_c, 1, 45, 0
3, 9240, Note_on_c, 1, 60, 68
3, 9240, Note_on_c, 1, 48, 64
3, 9258, Control_c, 1, 64, 127
3, 9292, Note_on_c, 1, 60, 0
3, 9299, Note_on_c, 1, 48, 0
3, 9300, Note_on_c, 1, 57, 62
3, 9300, Note_on_c, 1, 45, 59
3, 9343, Control_c, 1, 64, 0
3, 9358, Note_on_c, 1, 57, 0
3, 9360, Note_on_c, 1, 53, 51
3, 9360, Note_on_c, 1, 41, 62
3, 9362, Note_on_c, 1, 45, 0
3, 9384, Control_c, 1, 64, 127
3, 9567, Note_on_c, 1, 53, 0
3, 9570, Note_on_c, 1, 41, 0
3, 9610, Control_c, 1, 64, 0
3, 9720, Note_on_c, 1, 48, 64
3, 9720, Note_on_c, 1, 36, 53
3, 9737, Control_c, 1, 64, 127
3, 9781, Note_on_c, 1, 36, 0
3, 9785, Note_on_c, 1, 48, 0
3, 9840, Note_on_c, 1, 36, 68
3, 9840, Note_on_c, 1, 48, 72
3, 9846, Control_c, 1, 64, 0
3, 9874, Control_c, 1, 64, 127
3, 9897, Note_on_c, 1, 36, 0
3, 9900, Note_on_c, 1, 48, 0
3, 9960, Control_c, 1, 64, 0
3, 9960, Note_on_c, 1, 48, 64
3, 9960, Note_on_c, 1, 36, 57
3, 9987, Control_c, 1, 64, 127
3, 10000, Note_on_c, 1, 36, 0
3, 10000, Note_on_c, 1, 48, 0
3, 10074, Control_c, 1, 64, 0
3, 10080, Note_on_c, 1, 41, 62
3, 10080, Note_on_c, 1, 53, 64
3, 10101, Control_c, 1, 64, 127
3, 10131, Note_on_c, 1, 53, 0
3, 10140, Note_on_c, 1, 57, 76
3, 10146, Note_on_c, 1, 41, 0
3, 10182, Control_c, 1, 64, 0
3, 10195, Note_on_c, 1, 57, 0
3, 10200, Note_on_c, 1, 60, 57
3, 10218, Control_c, 1, 64, 127
3, 10260, Note_on_c, 1, 57, 72
3, 10261, Note_on_c, 1, 60, 0
3, 10307, Control_c, 1, 64, 0
3, 10317, Note_on_c, 1, 57, 0
3, 10320, Note_on_c, 1, 53, 62
3, 10320, Note_on_c, 1, 41, 62
3, 10333, Control_c, 1, 64, 127
3, 10377, Note_on_c, 1, 41, 0
3, 10378, Note_on_c, 1, 53, 0
3, 10380, Note_on_c, 1, 57, 53
3, 10425, Control_c, 1, 64, 0
3, 10439, Note_on_c, 1, 57, 0
3, 10440, Note_on_c, 1, 60, 59
3, 10453, Control_c, 1, 64, 127
3, 10496, Note_on_c, 1, 60, 0
3, 10500, Note_on_c, 1, 57, 62
3, 10560, Note_on_c, 1, 53, 64
3, 10560, Note_on_c, 1, 46, 72
3, 10561, Note_on_c, 1, 57, 0
3, 10563, Control_c, 1, 64, 0
3, 10597, Control_c, 1, 64, 127
3, 10620, Note_on_c, 1, 58, 59
3, 10625, Note_on_c, 1, 53, 0
3, 10637, Note_on_c, 1, 46, 0
3, 10678, Control_c, 1, 64, 0
3, 10679, Note_on_c, 1, 58, 0
3, 10680, Note_on_c, 1, 62, 72
3, 10711, Control_c, 1, 64, 127
3, 10739, Note_on_c, 1, 62, 0
3, 10740, Note_on_c, 1, 58, 62
3, 10782, Note_on_c, 1, 58, 0
3, 10784, Control_c, 1, 64, 0
3, 10800, Note_on_c, 1, 45, 68
3, 10800, Note_on_c, 1, 53, 68
3, 10819, Control_c, 1, 64, 127
3, 10860, Note_on_c, 1, 57, 57
3, 10864, Note_on_c, 1, 53, 0
3, 10871, Note_on_c, 1, 45, 0
3, 10920, Note_on_c, 1, 57, 0
3, 10920, Note_on_c, 1, 60, 64
3, 10922, Control_c, 1, 64, 0
3, 10956, Control_c, 1, 64, 127
3, 10976, Note_on_c, 1, 60, 0
3, 10980, Note_on_c, 1, 57, 64
3, 11035, Control_c, 1, 64, 0
3, 11036, Note_on_c, 1, 57, 0
3, 11040, Note_on_c, 1, 46, 62
3, 11040, Note_on_c, 1, 55, 64
3, 11071, Control_c, 1, 64, 127
3, 11100, Note_on_c, 1, 55, 0
3, 11100, Note_on_c, 1, 57, 64
3, 11115, Note_on_c, 1, 46, 0
3, 11150, Control_c, 1, 64, 0
3, 11156, Note_on_c, 1, 57, 0
3, 11160, Note_on_c, 1, 58, 62
3, 11160, Note_on_c, 1, 43, 62
3, 11185, Control_c, 1, 64, 127
3, 11213, Note_on_c, 1, 58, 0
3, 11220, Note_on_c, 1, 57, 76
3, 11221, Note_on_c, 1, 43, 0
3, 11268, Note_on_c, 1, 57, 0
3, 11273, Control_c, 1, 64, 0
3, 11280, Note_on_c, 1, 58, 76
3, 11280, Note_on_c, 1, 48, 56
3, 11311, Control_c, 1, 64, 127
3, 11340, Note_on_c, 1, 55, 62
3, 11345, Note_on_c, 1, 58, 0
3, 11363, Note_on_c, 1, 48, 0
3, 11386, Control_c, 1, 64, 0
3, 11397, Note_on_c, 1, 55, 0
3, 11400, Note_on_c, 1, 53, 64
3, 11400, Note_on_c, 1, 36, 68
3, 11416, Control_c, 1, 64, 127
3, 11453, Note_on_c, 1, 53, 0
3, 11460, Note_on_c, 1, 52, 68
3, 11472, Note_on_c, 1, 36, 0
3, 11506, Control_c, 1, 64, 0
3, 11511, Note_on_c, 1, 52, 0
3, 11520, Note_on_c, 1, 53, 72
3, 11520, Note_on_c, 1, 41, 60
3, 11539, Control_c, 1, 64, 127
3, 11576, Note_on_c, 1, 53, 0
3, 11577, Note_on_c, 1, 41, 0
3, 11580, Note_on_c, 1, 36, 64
3, 11628, Note_on_c, 1, 36, 0
3, 11636, Control_c, 1, 64, 0
3, 11640, Note_on_c, 1, 41, 57
3, 11640, Note_on_c, 1, 57, 80
3, 11668, Control_c, 1, 64, 127
3, 11700, Note_on_c, 1, 36, 57
3, 11701, Note_on_c, 1, 41, 0
3, 11717, Note_on_c, 1, 57, 0
3, 11748, Note_on_c, 1, 36, 0
3, 11760, Note_on_c, 1, 41, 51
3, 11760, Note_on_c, 1, 57, 76
3, 11761, Control_c, 1, 64, 0
3, 11789, Control_c, 1, 64, 127
3, 11820, Note_on_c, 1, 36, 56
3, 11824, Note_on_c, 1, 41, 0
3, 11828, Note_on_c, 1, 57, 0
3, 11872, Note_on_c, 1, 36, 0
3, 11880, Note_on_c, 1, 57, 72
3, 11880, Note_on_c, 1, 41, 50
3, 11882, Control_c, 1, 64, 0
3, 11909, Control_c, 1, 64, 127
3, 11940, Note_on_c, 1, 36, 52
3, 11941, Note_on_c, 1, 41, 0
3, 11947, Note_on_c, 1, 57, 0
3, 11992, Note_on_c, 1, 36, 0
3, 12000, Note_on_c, 1, 60, 76
3, 12000, Note_on_c, 1, 40, 62
3, 12004, Control_c, 1, 64, 127
3, 12047, Note_on_c, 1, 40, 0
3, 12047, Note_on_c, 1, 60, 0
3, 12060, Note_on_c, 1, 58, 62
3, 12060, Note_on_c, 1, 36, 57
3, 12097, Control_c, 1, 64, 0
3, 12114, Note_on_c, 1, 36, 0
3, 12118, Note_on_c, 1, 58, 0
3, 12120, Note_on_c, 1, 40, 62
3, 12120, Note_on_c, 1, 55, 76
3, 12138, Note_on_c, 1, 55, 0
3, 12144, Note_on_c, 1, 40, 0
3, 12180, Note_on_c, 1, 36, 62
3, 12180, Note_on_c, 1, 52, 52
3, 12200, Note_on_c, 1, 52, 0
3, 12208, Note_on_c, 1, 36, 0
3, 12240, Note_on_c, 1, 43, 59
3, 12240, Note_on_c, 1, 48, 60
3, 12251, Control_c, 1, 64, 127
3, 12300, Note_on_c, 1, 36, 60
3, 12302, Note_on_c, 1, 43, 0
3, 12350, Note_on_c, 1, 36, 0
3, 12352, Control_c, 1, 64, 0
3, 12360, Note_on_c, 1, 46, 80
3, 12382, Control_c, 1, 64, 127
3, 12419, Note_on_c, 1, 46, 0
3, 12420, Note_on_c, 1, 36, 62
3, 12431, Note_on_c, 1, 48, 0
3, 12455, Note_on_c, 1, 36, 0
3, 12472, Control_c, 1, 64, 0
3, 12480, Note_on_c, 1, 45, 64
3, 12504, Control_c, 1, 64, 127
3, 12539, Note_on_c, 1, 45, 0
3, 12540, Note_on_c, 1, 36, 62
3, 12595, Note_on_c, 1, 36, 0
3, 12600, Note_on_c, 1, 65, 85
3, 12600, Note_on_c, 1, 45, 72
3, 12600, Control_c, 1, 64, 0
3, 12630, Control_c, 1, 64, 127
3, 12660, Note_on_c, 1, 36, 51
3, 12662, Note_on_c, 1, 45, 0
3, 12716, Note_on_c, 1, 36, 0
3, 12716, Note_on_c, 1, 65, 0
3, 12720, Note_on_c, 1, 41, 60
3, 12720, Note_on_c, 1, 57, 80
3, 12722, Control_c, 1, 64, 0
3, 12757, Control_c, 1, 64, 127
3, 12780, Note_on_c, 1, 36, 51
3, 12783, Note_on_c, 1, 41, 0
3, 12831, Note_on_c, 1, 36, 0
3, 12834, Note_on_c, 1, 57, 0
3, 12840, Note_on_c, 1, 60, 72
3, 12840, Note_on_c, 1, 41, 57
3, 12847, Control_c, 1, 64, 0
3, 12879, Control_c, 1, 64, 127
3, 12895, Note_on_c, 1, 41, 0
3, 12900, Note_on_c, 1, 36, 60
3, 12913, Note_on_c, 1, 60, 0
3, 12955, Note_on_c, 1, 36, 0
3, 12955, Control_c, 1, 64, 0
3, 12960, Note_on_c, 1, 60, 76
3, 12960, Note_on_c, 1, 40, 62
3, 12984, Control_c, 1, 64, 127
3, 13006, Note_on_c, 1, 40, 0
3, 13013, Note_on_c, 1, 60, 0
3, 13020, Note_on_c, 1, 36, 59
3, 13020, Note_on_c, 1, 58, 62
3, 13027, Control_c, 1, 64, 0
3, 13053, Control_c, 1, 64, 127
3, 13075, Note_on_c, 1, 58, 0
3, 13080, Note_on_c, 1, 40, 62
3, 13080, Note_on_c, 1, 55, 72
3, 13082, Control_c, 1, 64, 0
3, 13083, Note_on_c, 1, 36, 0
3, 13100, Note_on_c, 1, 55, 0
3, 13113, Note_on_c, 1, 40, 0
3, 13140, Note_on_c, 1, 36, 62
3, 13140, Note_on_c, 1, 52, 72
3, 13159, Note_on_c, 1, 52, 0
3, 13184, Note_on_c, 1, 36, 0
3, 13200, Note_on_c, 1, 48, 76
3, 13200, Note_on_c, 1, 43, 64
3, 13232, Control_c, 1, 64, 127
3, 13259, Note_on_c, 1, 43, 0
3, 13260, Note_on_c, 1, 36, 60
3, 13307, Control_c, 1, 64, 0
3, 13313, Note_on_c, 1, 36, 0
3, 13320, Note_on_c, 1, 46, 72
3, 13324, Note_on_c, 1, 48, 0
3, 13353, Control_c, 1, 64, 127
3, 13380, Note_on_c, 1, 36, 59
3, 13381, Note_on_c, 1, 46, 0
3, 13425, Note_on_c, 1, 36, 0
3, 13433, Control_c, 1, 64, 0
3, 13440, Note_on_c, 1, 45, 76
3, 13464, Control_c, 1, 64, 127
3, 13486, Note_on_c, 1, 45, 0
3, 13500, Note_on_c, 1, 41, 64
3, 13530, Note_on_c, 1, 41, 0
3, 13559, Control_c, 1, 64, 0
3, 13560, Note_on_c, 1, 60, 85
3, 13560, Note_on_c, 1, 48, 72
3, 13591, Control_c, 1, 64, 127
3, 13619, Note_on_c, 1, 48, 0
3, 13620, Note_on_c, 1, 45, 62
3, 13635, Note_on_c, 1, 60, 0
3, 13674, Note_on_c, 1, 45, 0
3, 13680, Note_on_c, 1, 60, 89
3, 13680, Note_on_c, 1, 53, 68
3, 13681, Control_c, 1, 64, 0
3, 13712, Control_c, 1, 64, 127
3, 13737, Note_on_c, 1, 53, 0
3, 13740, Note_on_c, 1, 48, 76
3, 13768, Note_on_c, 1, 60, 0
3, 13792, Control_c, 1, 64, 0
3, 13793, Note_on_c, 1, 48, 0
3, 13800, Note_on_c, 1, 45, 68
3, 13800, Note_on_c, 1, 60, 93
3, 13822, Control_c, 1, 64, 127
3, 13859, Note_on_c, 1, 45, 0
3, 13860, Note_on_c, 1, 41, 55
3, 13896, Note_on_c, 1, 60, 0
3, 13904, Note_on_c, 1, 41, 0
3, 13912, Control_c, 1, 64, 0
3, 13920, Note_on_c, 1, 61, 85
3, 13920, Note_on_c, 1, 46, 80
3, 13950, Control_c, 1, 64, 127
3, 13974, Note_on_c, 1, 61, 0
3, 13980, Note_on_c, 1, 62, 64
3, 14002, Control_c, 1, 64, 0
3, 14012, Note_on_c, 1, 46, 0
3, 14020, Note_on_c, 1, 62, 0
3, 14040, Note_on_c, 1, 58, 80
3, 14064, Note_on_c, 1, 58, 0
3, 14100, Note_on_c, 1, 55, 76
3, 14120, Note_on_c, 1, 55, 0
3, 14160, Note_on_c, 1, 59, 85
3, 14160, Note_on_c, 1, 45, 80
3, 14165, Control_c, 1, 64, 127
3, 14219, Note_on_c, 1, 59, 0
3, 14220, Note_on_c, 1, 60, 76
3, 14260, Control_c, 1, 64, 0
3, 14279, Note_on_c, 1, 60, 0
3, 14280, Note_on_c, 1, 57, 89
3, 14283, Note_on_c, 1, 45, 0
3, 14293, Note_on_c, 1, 57, 0
3, 14340, Note_on_c, 1, 53, 76
3, 14358, Note_on_c, 1, 53, 0
3, 14397, Control_c, 1, 64, 127
3, 14400, Note_on_c, 1, 46, 72
3, 14400, Note_on_c, 1, 61, 72
3, 14460, Note_on_c, 1, 62, 76
3, 14461, Note_on_c, 1, 61, 0
3, 14505, Control_c, 1, 64, 0
3, 14517, Note_on_c, 1, 62, 0
3, 14520, Note_on_c, 1, 58, 76
3, 14529, Note_on_c, 1, 46, 0
3, 14535, Note_on_c, 1, 58, 0
3, 14580, Note_on_c, 1, 55, 72
3, 14600, Note_on_c, 1, 55, 0
3, 14640, Note_on_c, 1, 59, 80
3, 14640, Note_on_c, 1, 45, 80
3, 14646, Control_c, 1, 64, 127
3, 14699, Note_on_c, 1, 59, 0
3, 14700, Note_on_c, 1, 60, 80
3, 14743, Control_c, 1, 64, 0
3, 14757, Note_on_c, 1, 60, 0
3, 14760, Note_on_c, 1, 57, 85
3, 14764, Note_on_c, 1, 45, 0
3, 14774, Note_on_c, 1, 57, 0
3, 14820, Note_on_c, 1, 53, 76
3, 14838, Note_on_c, 1, 53, 0
3, 14876, Control_c, 1, 64, 127
3, 14880, Note_on_c, 1, 61, 76
3, 14880, Note_on_c, 1, 46, 76
3, 14940, Note_on_c, 1, 62, 89
3, 14941, Note_on_c, 1, 61, 0
3, 14966, Note_on_c, 1, 62, 0
3, 14979, Control_c, 1, 64, 0
3, 15000, Note_on_c, 1, 58, 80
3, 15000, Note_on_c, 1, 43, 72
3, 15003, Note_on_c, 1, 46, 0
3, 15019, Note_on_c, 1, 58, 0
3, 15060, Note_on_c, 1, 55, 76
3, 15074, Note_on_c, 1, 55, 0
3, 15108, Note_on_c, 1, 43, 0
3, 15117, Control_c, 1, 64, 127
3, 15120, Note_on_c, 1, 57, 80
3, 15120, Note_on_c, 1, 48, 72
3, 15180, Note_on_c, 1, 58, 72
3, 15184, Note_on_c, 1, 57, 0
3, 15213, Control_c, 1, 64, 0
3, 15232, Note_on_c, 1, 58, 0
3, 15240, Note_on_c, 1, 55, 89
3, 15240, Note_on_c, 1, 36, 72
3, 15245, Note_on_c, 1, 48, 0
3, 15254, Note_on_c, 1, 55, 0
3, 15300, Note_on_c, 1, 52, 85
3, 15317, Note_on_c, 1, 52, 0
3, 15348, Note_on_c, 1, 36, 0
3, 15360, Note_on_c, 1, 53, 85
3, 15360, Note_on_c, 1, 41, 72
3, 15360, Control_c, 1, 64, 127
3, 15476, Control_c, 1, 64, 0
3, 15490, Note_on_c, 1, 53, 0
3, 15494, Note_on_c, 1, 41, 0
3, 15720, Note_on_c, 1, 60, 89
3, 15720, Note_on_c, 1, 48, 76
3, 15720, Note_on_c, 1, 40, 80
3, 15737, Control_c, 1, 64, 127
3, 15777, Note_on_c, 1, 48, 0
3, 15785, Note_on_c, 1, 60, 0
3, 15807, Note_on_c, 1, 40, 0
3, 15810, Note_on_c, 1, 48, 62
3, 15810, Note_on_c, 1, 60, 72
3, 15823, Note_on_c, 1, 60, 0
3, 15825, Note_on_c, 1, 48, 0
3, 15840, Note_on_c, 1, 41, 62
3, 15840, Note_on_c, 1, 60, 72
3, 15840, Note_on_c, 1, 48, 62
3, 15844, Control_c, 1, 64, 0
3, 15888, Control_c, 1, 64, 127
3, 15937, Note_on_c, 1, 41, 0
3, 15938, Note_on_c, 1, 48, 0
3, 15941, Note_on_c, 1, 60, 0
3, 15968, Control_c, 1, 64, 0
3, 16200, Note_on_c, 1, 62, 93
3, 16200, Note_on_c, 1, 50, 89
3, 16200, Note_on_c, 1, 42, 85
3, 16216, Control_c, 1, 64, 127
3, 16263, Note_on_c, 1, 50, 0
3, 16273, Note_on_c, 1, 62, 0
3, 16290, Note_on_c, 1, 50, 72
3, 16290, Note_on_c, 1, 62, 64
3, 16306, Note_on_c, 1, 62, 0
3, 16308, Note_on_c, 1, 50, 0
3, 16315, Note_on_c, 1, 42, 0
3, 16320, Note_on_c, 1, 50, 60
3, 16320, Note_on_c, 1, 62, 72
3, 16320, Note_on_c, 1, 43, 68
3, 16321, Control_c, 1, 64, 0
3, 16400, Note_on_c, 1, 43, 0
3, 16401, Note_on_c, 1, 50, 0
3, 16405, Note_on_c, 1, 62, 0
3, 16680, Note_on_c, 1, 60, 93
3, 16680, Note_on_c, 1, 48, 85
3, 16680, Note_on_c, 1, 40, 89
3, 16693, Control_c, 1, 64, 127
3, 16735, Note_on_c, 1, 48, 0
3, 16740, Note_on_c, 1, 60, 0
3, 16755, Note_on_c, 1, 40, 0
3, 16770, Note_on_c, 1, 48, 76
3, 16770, Note_on_c, 1, 60, 76
3, 16778, Control_c, 1, 64, 0
3, 16785, Note_on_c, 1, 60, 0
3, 16785, Note_on_c, 1, 48, 0
3, 16800, Note_on_c, 1, 48, 93
3, 16800, Note_on_c, 1, 60, 93
3, 16800, Note_on_c, 1, 41, 89
3, 16821, Control_c, 1, 64, 127
3, 16847, Note_on_c, 1, 48, 0
3, 16851, Note_on_c, 1, 60, 0
3, 16856, Note_on_c, 1, 41, 0
3, 16912, Control_c, 1, 64, 0
3, 16920, Note_on_c, 1, 60, 93
3, 16920, Note_on_c, 1, 45, 89
3, 16945, Control_c, 1, 64, 127
3, 16981, Note_on_c, 1, 45, 0
3, 16983, Note_on_c, 1, 60, 0
3, 17034, Control_c, 1, 64, 0
3, 17040, Note_on_c, 1, 60, 93
3, 17040, Note_on_c, 1, 46, 80
3, 17070, Note_on_c, 1, 58, 60
3, 17073, Note_on_c, 1, 60, 0
3, 17088, Control_c, 1, 64, 127
3, 17092, Note_on_c, 1, 58, 0
3, 17100, Note_on_c, 1, 60, 76
3, 17122, Note_on_c, 1, 60, 0
3, 17130, Note_on_c, 1, 58, 59
3, 17152, Note_on_c, 1, 58, 0
3, 17158, Note_on_c, 1, 46, 0
3, 17160, Note_on_c, 1, 48, 72
3, 17160, Note_on_c, 1, 60, 68
3, 17165, Control_c, 1, 64, 0
3, 17190, Note_on_c, 1, 58, 72
3, 17197, Note_on_c, 1, 60, 0
3, 17206, Control_c, 1, 64, 127
3, 17215, Note_on_c, 1, 58, 0
3, 17220, Note_on_c, 1, 57, 80
3, 17246, Note_on_c, 1, 57, 0
3, 17250, Note_on_c, 1, 58, 38
3, 17267, Note_on_c, 1, 58, 0
3, 17273, Note_on_c, 1, 48, 0
3, 17275, Control_c, 1, 64, 0
3, 17280, Note_on_c, 1, 57, 89
3, 17280, Note_on_c, 1, 41, 80
3, 17317, Control_c, 1, 64, 127
3, 17319, Note_on_c, 1, 57, 0
3, 17340, Note_on_c, 1, 48, 62
3, 17345, Note_on_c, 1, 41, 0
3, 17389, Note_on_c, 1, 48, 0
3, 17400, Note_on_c, 1, 55, 76
3, 17401, Control_c, 1, 64, 0
3, 17444, Control_c, 1, 64, 127
3, 17456, Note_on_c, 1, 55, 0
3, 17460, Note_on_c, 1, 52, 68
3, 17511, Note_on_c, 1, 52, 0
3, 17520, Note_on_c, 1, 57, 62
3, 17522, Control_c, 1, 64, 0
3, 17557, Control_c, 1, 64, 127
3, 17575, Note_on_c, 1, 57, 0
3, 17580, Note_on_c, 1, 53, 76
3, 17601, Note_on_c, 1, 53, 0
3, 17639, Control_c, 1, 64, 0
3, 17640, Note_on_c, 1, 55, 98
3, 17640, Note_on_c, 1, 58, 85
3, 17640, Note_on_c, 1, 40, 93
3, 17672, Control_c, 1, 64, 127
3, 17703, Note_on_c, 1, 55, 0
3, 17710, Note_on_c, 1, 58, 0
3, 17712, Note_on_c, 1, 40, 0
3, 17760, Note_on_c, 1, 41, 76
3, 17760, Note_on_c, 1, 57, 76
3, 17760, Note_on_c, 1, 53, 72
3, 17767, Control_c, 1, 64, 0
3, 17794, Control_c, 1, 64, 127
3, 17807, Note_on_c, 1, 41, 0
3, 17813, Note_on_c, 1, 53, 0
3, 17817, Note_on_c, 1, 57, 0
3, 17820, Note_on_c, 1, 48, 59
3, 17844, Control_c, 1, 64, 0
3, 17871, Note_on_c, 1, 48, 0
3, 17880, Note_on_c, 1, 57, 64
3, 17937, Note_on_c, 1, 57, 0
3, 17940, Note_on_c, 1, 54, 52
3, 17999, Note_on_c, 1, 54, 0
3, 18000, Note_on_c, 1, 58, 64
3, 18042, Control_c, 1, 64, 127
3, 18060, Note_on_c, 1, 55, 62
3, 18061, Note_on_c, 1, 58, 0
3, 18088, Note_on_c, 1, 55, 0
3, 18119, Control_c, 1, 64, 0
3, 18120, Note_on_c, 1, 42, 85
3, 18120, Note_on_c, 1, 60, 93
3, 18120, Note_on_c, 1, 57, 93
3, 18159, Control_c, 1, 64, 127
3, 18193, Note_on_c, 1, 60, 0
3, 18195, Note_on_c, 1, 57, 0
3, 18203, Note_on_c, 1, 42, 0
3, 18237, Control_c, 1, 64, 0
3, 18240, Note_on_c, 1, 58, 62
3, 18240, Note_on_c, 1, 43, 72
3, 18240, Note_on_c, 1, 55, 76
3, 18257, Note_on_c, 1, 58, 0
3, 18260, Note_on_c, 1, 55, 0
3, 18261, Control_c, 1, 64, 127
3, 18265, Note_on_c, 1, 43, 0
3, 18300, Note_on_c, 1, 50, 64
3, 18314, Control_c, 1, 64, 0
3, 18356, Note_on_c, 1, 50, 0
3, 18360, Note_on_c, 1, 55, 62
3, 18420, Note_on_c, 1, 52, 76
3, 18424, Note_on_c, 1, 55, 0
3, 18477, Note_on_c, 1, 52, 0
3, 18480, Note_on_c, 1, 57, 53
3, 18540, Note_on_c, 1, 53, 76
3, 18545, Note_on_c, 1, 57, 0
3, 18595, Note_on_c, 1, 53, 0
3, 18600, Note_on_c, 1, 40, 89
3, 18600, Note_on_c, 1, 55, 98
3, 18600, Note_on_c, 1, 58, 89
3, 18628, Control_c, 1, 64, 127
3, 18689, Note_on_c, 1, 55, 0
3, 18690, Note_on_c, 1, 58, 0
3, 18694, Note_on_c, 1, 40, 0
3, 18718, Control_c, 1, 64, 0
3, 18720, Note_on_c, 1, 41, 89
3, 18720, Note_on_c, 1, 57, 89
3, 18720, Note_on_c, 1, 53, 93
3, 18746, Control_c, 1, 64, 127
3, 18750, Note_on_c, 1, 53, 0
3, 18754, Note_on_c, 1, 57, 0
3, 18768, Note_on_c, 1, 41, 0
3, 18840, Note_on_c, 1, 53, 93
3, 18840, Note_on_c, 1, 60, 98
3, 18840, Note_on_c, 1, 45, 98
3, 18844, Control_c, 1, 64, 0
3, 18888, Control_c, 1, 64, 127
3, 18957, Note_on_c, 1, 45, 0
3, 18960, Note_on_c, 1, 46, 85
3, 18960, Note_on_c, 1, 62, 98
3, 18964, Control_c, 1, 64, 0
3, 18966, Note_on_c, 1, 60, 0
3, 18996, Control_c, 1, 64, 127
3, 19031, Note_on_c, 1, 53, 0
3, 19032, Note_on_c, 1, 62, 0
3, 19042, Note_on_c, 1, 46, 0
3, 19080, Note_on_c, 1, 48, 85
3, 19080, Note_on_c, 1, 60, 89
3, 19080, Note_on_c, 1, 52, 89
3, 19081, Control_c, 1, 64, 0
3, 19112, Control_c, 1, 64, 127
3, 19134, Note_on_c, 1, 60, 0
3, 19140, Note_on_c, 1, 58, 76
3, 19141, Note_on_c, 1, 48, 0
3, 19157, Note_on_c, 1, 52, 0
3, 19158, Note_on_c, 1, 58, 0
3, 19200, Note_on_c, 1, 53, 89
3, 19200, Note_on_c, 1, 57, 89
3, 19200, Note_on_c, 1, 41, 80
3, 19201, Control_c, 1, 64, 0
3, 19231, Control_c, 1, 64, 127
3, 19309, Note_on_c, 1, 53, 0
3, 19312, Note_on_c, 1, 41, 0
3, 19313, Note_on_c, 1, 57, 0
3, 19322, Control_c, 1, 64, 0
3, 19680, Note_on_c, 1, 60, 76
3, 19689, Control_c, 1, 64, 127
3, 19910, Note_on_c, 1, 60, 0
3, 19920, Note_on_c, 1, 57, 68
3, 19931, Control_c, 1, 64, 0
3, 19963, Control_c, 1, 64, 127
3, 20160, Note_on_c, 1, 53, 62
3, 20161, Note_on_c, 1, 57, 0
3, 20165, Control_c, 1, 64, 0
3, 20200, Control_c, 1, 64, 127
3, 20340, Note_on_c, 1, 29, 76
3, 20393, Note_on_c, 1, 29, 0
3, 20398, Note_on_c, 1, 53, 0
3, 20400, Note_on_c, 1, 33, 68
3, 20400, Note_on_c, 1, 57, 80
3, 20410, Control_c, 1, 64, 0
3, 20457, Note_on_c, 1, 33, 0
3, 20460, Note_on_c, 1, 34, 62
3, 20520, Note_on_c, 1, 36, 64
3, 20521, Note_on_c, 1, 34, 0
3, 20580, Note_on_c, 1, 38, 68
3, 20588, Note_on_c, 1, 36, 0
3, 20640, Note_on_c, 1, 60, 72
3, 20640, Note_on_c, 1, 39, 60
3, 20646, Note_on_c, 1, 57, 0
3, 20647, Note_on_c, 1, 38, 0
3, 20688, Control_c, 1, 64, 127
3, 20760, Note_on_c, 1, 39, 0
3, 20774, Control_c, 1, 64, 0
3, 20880, Note_on_c, 1, 57, 76
3, 20883, Note_on_c, 1, 60, 0
3, 21114, Note_on_c, 1, 57, 0
3, 21120, Note_on_c, 1, 53, 72
3, 21149, Control_c, 1, 64, 127
3, 21166, Note_on_c, 1, 53, 0
3, 21271, Control_c, 1, 64, 0
3, 21300, Note_on_c, 1, 41, 107
3, 21300, Note_on_c, 1, 29, 102
3, 21353, Note_on_c, 1, 29, 0
3, 21356, Note_on_c, 1, 41, 0
3, 21360, Note_on_c, 1, 33, 89
3, 21360, Note_on_c, 1, 45, 98
3, 21418, Note_on_c, 1, 45, 0
3, 21420, Note_on_c, 1, 33, 0
3, 21420, Note_on_c, 1, 46, 98
3, 21420, Note_on_c, 1, 34, 80
3, 21480, Note_on_c, 1, 46, 0
3, 21480, Note_on_c, 1, 48, 89
3, 21480, Note_on_c, 1, 36, 89
3, 21481, Note_on_c, 1, 34, 0
3, 21538, Note_on_c, 1, 36, 0
3, 21539, Note_on_c, 1, 48, 0
3, 21540, Note_on_c, 1, 38, 93
3, 21540, Note_on_c, 1, 50, 98
3, 21600, Note_on_c, 1, 51, 93
3, 21600, Note_on_c, 1, 39, 80
3, 21601, Note_on_c, 1, 50, 0
3, 21602, Note_on_c, 1, 38, 0
3, 21660, Note_on_c, 1, 39, 0
3, 21660, Note_on_c, 1, 50, 98
3, 21660, Note_on_c, 1, 38, 93
3, 21664, Note_on_c, 1, 51, 0
3, 21720, Note_on_c, 1, 36, 72
3, 21720, Note_on_c, 1, 48, 89
3, 21721, Note_on_c, 1, 38, 0
3, 21724, Note_on_c, 1, 50, 0
3, 21778, Note_on_c, 1, 36, 0
3, 21780, Note_on_c, 1, 48, 0
3, 21780, Note_on_c, 1, 50, 98
3, 21780, Note_on_c, 1, 38, 93
3, 21840, Note_on_c, 1, 38, 0
3, 21840, Note_on_c, 1, 50, 0
3, 21840, Note_on_c, 1, 51, 93
3, 21840, Note_on_c, 1, 39, 85
3, 21900, Note_on_c, 1, 51, 0
3, 21900, Note_on_c, 1, 53, 89
3, 21900, Note_on_c, 1, 41, 80
3, 21901, Note_on_c, 1, 39, 0
3, 21955, Note_on_c, 1, 41, 0
3, 21959, Note_on_c, 1, 53, 0
3, 21960, Note_on_c, 1, 43, 89
3, 21960, Note_on_c, 1, 55, 93
3, 22020, Note_on_c, 1, 55, 0
3, 22020, Note_on_c, 1, 57, 107
3, 22020, Note_on_c, 1, 45, 93
3, 22022, Note_on_c, 1, 43, 0
3, 22078, Note_on_c, 1, 45, 0
3, 22080, Note_on_c, 1, 46, 89
3, 22080, Note_on_c, 1, 58, 89
3, 22083, Note_on_c, 1, 57, 0
3, 22089, Control_c, 1, 64, 127
3, 22129, Control_c, 1, 64, 0
3, 22140, Note_on_c, 1, 58, 0
3, 22140, Note_on_c, 1, 62, 93
3, 22140, Note_on_c, 1, 50, 89
3, 22142, Note_on_c, 1, 46, 0
3, 22195, Note_on_c, 1, 62, 0
3, 22198, Note_on_c, 1, 50, 0
3, 22200, Note_on_c, 1, 48, 89
3, 22200, Note_on_c, 1, 60, 89
3, 22260, Note_on_c, 1, 46, 76
3, 22260, Note_on_c, 1, 58, 89
3, 22261, Note_on_c, 1, 48, 0
3, 22267, Note_on_c, 1, 60, 0
3, 22320, Note_on_c, 1, 57, 89
3, 22320, Note_on_c, 1, 45, 80
3, 22321, Note_on_c, 1, 46, 0
3, 22323, Note_on_c, 1, 58, 0
3, 22329, Control_c, 1, 64, 127
3, 22351, Control_c, 1, 64, 0
3, 22379, Note_on_c, 1, 45, 0
3, 22380, Note_on_c, 1, 43, 76
3, 22380, Note_on_c, 1, 55, 89
3, 22381, Note_on_c, 1, 57, 0
3, 22438, Note_on_c, 1, 43, 0
3, 22439, Note_on_c, 1, 55, 0
3, 22440, Note_on_c, 1, 42, 76
3, 22440, Note_on_c, 1, 54, 80
3, 22496, Note_on_c, 1, 54, 0
3, 22498, Note_on_c, 1, 42, 0
3, 22500, Note_on_c, 1, 55, 89
3, 22500, Note_on_c, 1, 43, 76
3, 22508, Control_c, 1, 64, 127
3, 22556, Note_on_c, 1, 43, 0
3, 22559, Note_on_c, 1, 55, 0
3, 22560, Note_on_c, 1, 38, 93
3, 22574, Control_c, 1, 64, 127
3, 22620, Note_on_c, 1, 50, 85
3, 22677, Note_on_c, 1, 50, 0
3, 22680, Note_on_c, 1, 62, 93
3, 22692, Note_on_c, 1, 62, 0
3, 22740, Note_on_c, 1, 62, 107
3, 22748, Control_c, 1, 64, 0
3, 22751, Note_on_c, 1, 62, 0
3, 22786, Note_on_c, 1, 38, 0
3, 22800, Note_on_c, 1, 50, 85
3, 22845, Control_c, 1, 64, 127
3, 22860, Note_on_c, 1, 54, 72
3, 22910, Note_on_c, 1, 54, 0
3, 22920, Note_on_c, 1, 62, 93
3, 22940, Note_on_c, 1, 62, 0
3, 22980, Note_on_c, 1, 62, 107
3, 22994, Note_on_c, 1, 62, 0
3, 23008, Control_c, 1, 64, 0
3, 23013, Note_on_c, 1, 50, 0
3, 23040, Note_on_c, 1, 38, 89
3, 23077, Control_c, 1, 64, 127
3, 23100, Note_on_c, 1, 55, 80
3, 23151, Note_on_c, 1, 55, 0
3, 23160, Note_on_c, 1, 62, 98
3, 23178, Note_on_c, 1, 62, 0
3, 23215, Control_c, 1, 64, 0
3, 23220, Note_on_c, 1, 62, 107
3, 23231, Note_on_c, 1, 62, 0
3, 23269, Note_on_c, 1, 38, 0
3, 23280, Note_on_c, 1, 50, 80
3, 23316, Control_c, 1, 64, 127
3, 23340, Note_on_c, 1, 57, 68
3, 23378, Note_on_c, 1, 57, 0
3, 23400, Note_on_c, 1, 60, 72
3, 23415, Note_on_c, 1, 60, 0
3, 23460, Note_on_c, 1, 60, 80
3, 23477, Note_on_c, 1, 60, 0
3, 23492, Note_on_c, 1, 50, 0
3, 23519, Control_c, 1, 64, 0
3, 23520, Note_on_c, 1, 38, 85
3, 23564, Control_c, 1, 64, 127
3, 23580, Note_on_c, 1, 54, 68
3, 23609, Note_on_c, 1, 54, 0
3, 23640, Note_on_c, 1, 60, 72
3, 23660, Note_on_c, 1, 60, 0
3, 23700, Note_on_c, 1, 60, 72
3, 23717, Note_on_c, 1, 60, 0
3, 23746, Note_on_c, 1, 38, 0
3, 23760, Note_on_c, 1, 50, 76
3, 23761, Control_c, 1, 64, 0
3, 23799, Control_c, 1, 64, 127
3, 23820, Note_on_c, 1, 55, 72
3, 23840, Note_on_c, 1, 55, 0
3, 23880, Note_on_c, 1, 58, 72
3, 23901, Note_on_c, 1, 58, 0
3, 23940, Note_on_c, 1, 58, 72
3, 23958, Note_on_c, 1, 58, 0
3, 23973, Note_on_c, 1, 50, 0
3, 24000, Note_on_c, 1, 39, 76
3, 24001, Control_c, 1, 64, 0
3, 24041, Control_c, 1, 64, 127
3, 24060, Note_on_c, 1, 55, 72
3, 24083, Note_on_c, 1, 55, 0
3, 24120, Note_on_c, 1, 60, 76
3, 24139, Note_on_c, 1, 60, 0
3, 24180, Note_on_c, 1, 60, 76
3, 24199, Note_on_c, 1, 60, 0
3, 24234, Note_on_c, 1, 39, 0
3, 24240, Note_on_c, 1, 41, 76
3, 24248, Control_c, 1, 64, 0
3, 24285, Control_c, 1, 64, 127
3, 24300, Note_on_c, 1, 53, 68
3, 24334, Note_on_c, 1, 53, 0
3, 24360, Note_on_c, 1, 60, 76
3, 24380, Note_on_c, 1, 60, 0
3, 24420, Note_on_c, 1, 60, 68
3, 24436, Note_on_c, 1, 60, 0
3, 24466, Note_on_c, 1, 41, 0
3, 24480, Note_on_c, 1, 38, 64
3, 24493, Control_c, 1, 64, 0
3, 24540, Note_on_c, 1, 53, 62
3, 24552, Control_c, 1, 64, 127
3, 24579, Note_on_c, 1, 53, 0
3, 24600, Note_on_c, 1, 58, 72
3, 24621, Note_on_c, 1, 58, 0
3, 24660, Note_on_c, 1, 58, 57
3, 24677, Note_on_c, 1, 58, 0
3, 24718, Note_on_c, 1, 38, 0
3, 24720, Note_on_c, 1, 39, 64
3, 24722, Control_c, 1, 64, 0
3, 24764, Control_c, 1, 64, 127
3, 24780, Note_on_c, 1, 51, 68
3, 24806, Note_on_c, 1, 51, 0
3, 24840, Note_on_c, 1, 58, 80
3, 24845, Control_c, 1, 64, 0
3, 24867, Control_c, 1, 64, 127
3, 24886, Note_on_c, 1, 58, 0
3, 24900, Note_on_c, 1, 55, 89
3, 24915, Note_on_c, 1, 55, 0
3, 24933, Note_on_c, 1, 39, 0
3, 24960, Note_on_c, 1, 36, 80
3, 24966, Control_c, 1, 64, 0
3, 25001, Control_c, 1, 64, 127
3, 25020, Note_on_c, 1, 51, 80
3, 25052, Note_on_c, 1, 51, 0
3, 25078, Control_c, 1, 64, 0
3, 25080, Note_on_c, 1, 56, 93
3, 25102, Control_c, 1, 64, 127
3, 25109, Note_on_c, 1, 56, 0
3, 25140, Note_on_c, 1, 56, 76
3, 25161, Note_on_c, 1, 56, 0
3, 25194, Note_on_c, 1, 36, 0
3, 25200, Note_on_c, 1, 38, 93
3, 25203, Control_c, 1, 64, 0
3, 25235, Control_c, 1, 64, 127
3, 25260, Note_on_c, 1, 53, 76
3, 25307, Note_on_c, 1, 53, 0
3, 25312, Control_c, 1, 64, 0
3, 25320, Note_on_c, 1, 58, 72
3, 25335, Control_c, 1, 64, 127
3, 25349, Note_on_c, 1, 58, 0
3, 25380, Note_on_c, 1, 58, 62
3, 25403, Note_on_c, 1, 58, 0
3, 25404, Note_on_c, 1, 38, 0
3, 25430, Control_c, 1, 64, 0
3, 25440, Note_on_c, 1, 58, 72
3, 25440, Note_on_c, 1, 39, 72
3, 25440, Note_on_c, 1, 55, 93
3, 25440, Note_on_c, 1, 51, 76
3, 25456, Control_c, 1, 64, 127
3, 25545, Note_on_c, 1, 51, 0
3, 25545, Note_on_c, 1, 55, 0
3, 25546, Note_on_c, 1, 58, 0
3, 25547, Note_on_c, 1, 39, 0
3, 25571, Control_c, 1, 64, 0
3, 26400, Note_on_c, 1, 41, 102
3, 26400, Note_on_c, 1, 29, 85
3, 26402, Control_c, 1, 64, 127
3, 26456, Note_on_c, 1, 41, 0
3, 26459, Note_on_c, 1, 29, 0
3, 26460, Note_on_c, 1, 43, 85
3, 26460, Note_on_c, 1, 31, 93
3, 26465, Control_c, 1, 64, 0
3, 26487, Note_on_c, 1, 31, 0
3, 26490, Note_on_c, 1, 33, 80
3, 26490, Note_on_c, 1, 45, 89
3, 26491, Note_on_c, 1, 43, 0
3, 26515, Note_on_c, 1, 45, 0
3, 26520, Note_on_c, 1, 46, 85
3, 26520, Note_on_c, 1, 34, 89
3, 26525, Note_on_c, 1, 33, 0
3, 26543, Note_on_c, 1, 46, 0
3, 26550, Note_on_c, 1, 48, 85
3, 26550, Note_on_c, 1, 36, 72
3, 26551, Note_on_c, 1, 34, 0
3, 26572, Note_on_c, 1, 48, 0
3, 26580, Note_on_c, 1, 50, 64
3, 26580, Note_on_c, 1, 38, 60
3, 26590, Note_on_c, 1, 36, 0
3, 26609, Note_on_c, 1, 50, 0
3, 26610, Note_on_c, 1, 52, 93
3, 26610, Note_on_c, 1, 40, 85
3, 26612, Note_on_c, 1, 38, 0
3, 26636, Note_on_c, 1, 52, 0
3, 26639, Note_on_c, 1, 40, 0
3, 26640, Note_on_c, 1, 53, 102
3, 26640, Note_on_c, 1, 41, 89
3, 26653, Control_c, 1, 64, 127
3, 26676, Note_on_c, 1, 41, 0
3, 26679, Note_on_c, 1, 53, 0
3, 26751, Control_c, 1, 64, 0
3, 26760, Note_on_c, 1, 51, 93
3, 26760, Note_on_c, 1, 63, 89
3, 26785, Note_on_c, 1, 63, 0
3, 26789, Note_on_c, 1, 51, 0
3, 26790, Note_on_c, 1, 50, 89
3, 26790, Note_on_c, 1, 62, 93
3, 26795, Control_c, 1, 64, 127
3, 26817, Note_on_c, 1, 62, 0
3, 26820, Note_on_c, 1, 60, 89
3, 26820, Note_on_c, 1, 48, 76
3, 26823, Note_on_c, 1, 50, 0
3, 26848, Note_on_c, 1, 60, 0
3, 26850, Note_on_c, 1, 48, 0
3, 26850, Note_on_c, 1, 46, 76
3, 26850, Note_on_c, 1, 58, 85
3, 26870, Note_on_c, 1, 58, 0
3, 26871, Note_on_c, 1, 46, 0
3, 26876, Control_c, 1, 64, 0
3, 26880, Note_on_c, 1, 57, 107
3, 26880, Note_on_c, 1, 45, 102
3, 26912, Control_c, 1, 64, 127
3, 26922, Note_on_c, 1, 45, 0
3, 26928, Note_on_c, 1, 57, 0
3, 26986, Control_c, 1, 64, 0
3, 27000, Note_on_c, 1, 60, 93
3, 27000, Note_on_c, 1, 48, 98
3, 27019, Control_c, 1, 64, 127
3, 27025, Note_on_c, 1, 60, 0
3, 27030, Note_on_c, 1, 48, 0
3, 27030, Note_on_c, 1, 58, 89
3, 27030, Note_on_c, 1, 46, 80
3, 27052, Note_on_c, 1, 58, 0
3, 27058, Note_on_c, 1, 46, 0
3, 27060, Note_on_c, 1, 57, 93
3, 27060, Note_on_c, 1, 45, 89
3, 27084, Note_on_c, 1, 57, 0
3, 27090, Note_on_c, 1, 55, 89
3, 27090, Note_on_c, 1, 43, 53
3, 27091, Note_on_c, 1, 45, 0
3, 27092, Control_c, 1, 64, 0
3, 27112, Note_on_c, 1, 43, 0
3, 27113, Note_on_c, 1, 55, 0
3, 27120, Note_on_c, 1, 53, 102
3, 27120, Note_on_c, 1, 41, 93
3, 27157, Control_c, 1, 64, 127
3, 27185, Note_on_c, 1, 41, 0
3, 27193, Note_on_c, 1, 53, 0
3, 27228, Control_c, 1, 64, 0
3, 27240, Note_on_c, 1, 53, 98
3, 27240, Note_on_c, 1, 41, 93
3, 27264, Control_c, 1, 64, 127
3, 27269, Note_on_c, 1, 53, 0
3, 27270, Note_on_c, 1, 51, 80
3, 27270, Note_on_c, 1, 39, 76
3, 27277, Note_on_c, 1, 41, 0
3, 27294, Note_on_c, 1, 39, 0
3, 27297, Note_on_c, 1, 51, 0
3, 27300, Note_on_c, 1, 38, 89
3, 27300, Note_on_c, 1, 50, 85
3, 27323, Note_on_c, 1, 50, 0
3, 27324, Note_on_c, 1, 38, 0
3, 27330, Note_on_c, 1, 36, 59
3, 27330, Note_on_c, 1, 48, 98
3, 27350, Note_on_c, 1, 48, 0
3, 27351, Note_on_c, 1, 36, 0
3, 27360, Note_on_c, 1, 58, 93
3, 27360, Note_on_c, 1, 46, 113
3, 27367, Control_c, 1, 64, 0
3, 27429, Control_c, 1, 64, 127
3, 27485, Control_c, 1, 64, 0
3, 27512, Control_c, 1, 64, 127
3, 27582, Note_on_c, 1, 46, 0
3, 27582, Note_on_c, 1, 58, 0
3, 27595, Control_c, 1, 64, 0
3, 27600, Note_on_c, 1, 53, 102
3, 27600, Note_on_c, 1, 41, 89
3, 27629, Control_c, 1, 64, 127
3, 27832, Control_c, 1, 64, 0
3, 27834, Note_on_c, 1, 41, 0
3, 27837, Note_on_c, 1, 53, 0
3, 27840, Note_on_c, 1, 50, 98
3, 27840, Note_on_c, 1, 38, 89
3, 27870, Control_c, 1, 64, 127
3, 27968, Control_c, 1, 64, 0
3, 27975, Note_on_c, 1, 50, 0
3, 27976, Note_on_c, 1, 38, 0
3, 28020, Note_on_c, 1, 46, 89
3, 28020, Note_on_c, 1, 34, 80
3, 28076, Note_on_c, 1, 46, 0
3, 28080, Note_on_c, 1, 34, 0
3, 28080, Note_on_c, 1, 48, 85
3, 28080, Note_on_c, 1, 36, 89
3, 28138, Note_on_c, 1, 36, 0
3, 28139, Note_on_c, 1, 48, 0
3, 28140, Note_on_c, 1, 50, 93
3, 28140, Note_on_c, 1, 38, 89
3, 28200, Note_on_c, 1, 38, 0
3, 28200, Note_on_c, 1, 39, 89
3, 28200, Note_on_c, 1, 51, 89
3, 28202, Note_on_c, 1, 50, 0
3, 28203, Control_c, 1, 64, 127
3, 28243, Control_c, 1, 64, 0
3, 28255, Note_on_c, 1, 51, 0
3, 28260, Note_on_c, 1, 39, 0
3, 28260, Note_on_c, 1, 53, 89
3, 28260, Note_on_c, 1, 41, 85
3, 28320, Note_on_c, 1, 55, 89
3, 28320, Note_on_c, 1, 43, 89
3, 28321, Note_on_c, 1, 41, 0
3, 28324, Note_on_c, 1, 53, 0
3, 28379, Note_on_c, 1, 55, 0
3, 28380, Note_on_c, 1, 53, 89
3, 28380, Note_on_c, 1, 41, 85
3, 28382, Note_on_c, 1, 43, 0
3, 28439, Note_on_c, 1, 41, 0
3, 28440, Note_on_c, 1, 39, 80
3, 28440, Note_on_c, 1, 51, 93
3, 28442, Note_on_c, 1, 53, 0
3, 28442, Control_c, 1, 64, 127
3, 28460, Control_c, 1, 64, 0
3, 28499, Note_on_c, 1, 39, 0
3, 28500, Note_on_c, 1, 50, 93
3, 28500, Note_on_c, 1, 38, 93
3, 28501, Note_on_c, 1, 51, 0
3, 28559, Note_on_c, 1, 38, 0
3, 28560, Note_on_c, 1, 39, 72
3, 28560, Note_on_c, 1, 51, 89
3, 28564, Note_on_c, 1, 50, 0
3, 28565, Control_c, 1, 64, 127
3, 28617, Note_on_c, 1, 51, 0
3, 28617, Control_c, 1, 64, 0
3, 28620, Note_on_c, 1, 53, 89
3, 28620, Note_on_c, 1, 41, 89
3, 28622, Note_on_c, 1, 39, 0
3, 28680, Note_on_c, 1, 55, 93
3, 28680, Note_on_c, 1, 43, 80
3, 28681, Note_on_c, 1, 41, 0
3, 28681, Note_on_c, 1, 53, 0
3, 28738, Note_on_c, 1, 55, 0
3, 28740, Note_on_c, 1, 45, 85
3, 28740, Note_on_c, 1, 57, 93
3, 28741, Note_on_c, 1, 43, 0
3, 28800, Note_on_c, 1, 58, 89
3, 28800, Note_on_c, 1, 46, 85
3, 28801, Note_on_c, 1, 45, 0
3, 28802, Note_on_c, 1, 57, 0
3, 28808, Control_c, 1, 64, 127
3, 28908, Control_c, 1, 64, 0
3, 28918, Note_on_c, 1, 46, 0
3, 28921, Note_on_c, 1, 58, 0
3, 29040, Note_on_c, 1, 58, 57
3, 29040, Note_on_c, 1, 55, 68
3, 29062, Control_c, 1, 64, 127
3, 29165, Note_on_c, 1, 55, 0
3, 29169, Note_on_c, 1, 58, 0
3, 29280, Note_on_c, 1, 57, 64
3, 29280, Note_on_c, 1, 53, 60
3, 29286, Control_c, 1, 64, 0
3, 29330, Control_c, 1, 64, 127
3, 29399, Note_on_c, 1, 53, 0
3, 29399, Note_on_c, 1, 57, 0
3, 29518, Control_c, 1, 64, 0
3, 29520, Note_on_c, 1, 55, 62
3, 29520, Note_on_c, 1, 51, 68
3, 29551, Control_c, 1, 64, 127
3, 29618, Note_on_c, 1, 51, 0
3, 29618, Note_on_c, 1, 55, 0
3, 29753, Control_c, 1, 64, 0
3, 29760, Note_on_c, 1, 53, 93
3, 29760, Note_on_c, 1, 34, 76
3, 29760, Note_on_c, 1, 46, 80
3, 29760, Note_on_c, 1, 50, 93
3, 29782, Control_c, 1, 64, 127
3, 29824, Note_on_c, 1, 53, 0
3, 29825, Note_on_c, 1, 50, 0
3, 29825, Note_on_c, 1, 46, 0
3, 29831, Note_on_c, 1, 34, 0
3, 29997, Control_c, 1, 64, 0
3, 30000, Note_on_c, 1, 58, 56
3, 30000, Note_on_c, 1, 55, 57
3, 30087, Control_c, 1, 64, 127
3, 30117, Note_on_c, 1, 55, 0
3, 30123, Note_on_c, 1, 58, 0
3, 30240, Note_on_c, 1, 57, 62
3, 30240, Note_on_c, 1, 53, 62
3, 30241, Control_c, 1, 64, 0
3, 30278, Control_c, 1, 64, 127
3, 30343, Note_on_c, 1, 57, 0
3, 30344, Note_on_c, 1, 53, 0
3, 30473, Control_c, 1, 64, 0
3, 30480, Note_on_c, 1, 55, 64
3, 30480, Note_on_c, 1, 51, 60
3, 30504, Control_c, 1, 64, 127
3, 30592, Note_on_c, 1, 51, 0
3, 30592, Note_on_c, 1, 55, 0
3, 30708, Control_c, 1, 64, 0
3, 30720, Note_on_c, 1, 53, 89
3, 30720, Note_on_c, 1, 34, 80
3, 30720, Note_on_c, 1, 50, 98
3, 30720, Note_on_c, 1, 46, 85
3, 30739, Control_c, 1, 64, 127
3, 30813, Note_on_c, 1, 50, 0
3, 30820, Note_on_c, 1, 53, 0
3, 30822, Note_on_c, 1, 34, 0
3, 30823, Note_on_c, 1, 46, 0
3, 30960, Note_on_c, 1, 58, 89
3, 30960, Note_on_c, 1, 55, 102
3, 30960, Note_on_c, 1, 43, 93
3, 30961, Control_c, 1, 64, 0
3, 30996, Control_c, 1, 64, 127
3, 31102, Note_on_c, 1, 55, 0
3, 31110, Note_on_c, 1, 58, 0
3, 31117, Note_on_c, 1, 43, 0
3, 31200, Note_on_c, 1, 57, 93
3, 31200, Note_on_c, 1, 53, 89
3, 31200, Note_on_c, 1, 41, 89
3, 31200, Control_c, 1, 64, 0
3, 31235, Control_c, 1, 64, 127
3, 31344, Note_on_c, 1, 57, 0
3, 31348, Note_on_c, 1, 53, 0
3, 31358, Note_on_c, 1, 41, 0
3, 31439, Control_c, 1, 64, 0
3, 31440, Note_on_c, 1, 55, 89
3, 31440, Note_on_c, 1, 51, 89
3, 31440, Note_on_c, 1, 39, 89
3, 31472, Control_c, 1, 64, 127
3, 31568, Note_on_c, 1, 55, 0
3, 31570, Note_on_c, 1, 51, 0
3, 31573, Note_on_c, 1, 39, 0
3, 31670, Control_c, 1, 64, 0
3, 31680, Note_on_c, 1, 53, 89
3, 31680, Note_on_c, 1, 38, 89
3, 31680, Note_on_c, 1, 50, 93
3, 31696, Control_c, 1, 64, 127
3, 31807, Control_c, 1, 64, 0
3, 31808, Note_on_c, 1, 50, 0
3, 31810, Note_on_c, 1, 38, 0
3, 31810, Note_on_c, 1, 53, 0
3, 31920, Note_on_c, 1, 58, 80
3, 31920, Note_on_c, 1, 53, 98
3, 31920, Note_on_c, 1, 50, 93
3, 31920, Note_on_c, 1, 38, 89
3, 31922, Control_c, 1, 64, 127
3, 32034, Control_c, 1, 64, 0
3, 32040, Note_on_c, 1, 38, 0
3, 32042, Note_on_c, 1, 50, 0
3, 32042, Note_on_c, 1, 58, 0
3, 32044, Note_on_c, 1, 53, 0
3, 32159, Control_c, 1, 64, 127
3, 32160, Note_on_c, 1, 55, 98
3, 32160, Note_on_c, 1, 51, 93
3, 32160, Note_on_c, 1, 39, 93
3, 32160, Note_on_c, 1, 58, 85
3, 32274, Control_c, 1, 64, 0
3, 32276, Note_on_c, 1, 55, 0
3, 32277, Note_on_c, 1, 51, 0
3, 32277, Note_on_c, 1, 39, 0
3, 32280, Note_on_c, 1, 58, 0
3, 32400, Note_on_c, 1, 51, 93
3, 32400, Note_on_c, 1, 39, 85
3, 32400, Note_on_c, 1, 60, 98
3, 32400, Note_on_c, 1, 55, 93
3, 32400, Note_on_c, 1, 58, 85
3, 32405, Control_c, 1, 64, 127
3, 32474, Note_on_c, 1, 58, 0
3, 32482, Note_on_c, 1, 55, 0
3, 32484, Note_on_c, 1, 39, 0
3, 32485, Note_on_c, 1, 51, 0
3, 32487, Note_on_c, 1, 60, 0
3, 32617, Control_c, 1, 64, 0
3, 32640, Note_on_c, 1, 53, 102
3, 32640, Note_on_c, 1, 41, 76
3, 32657, Control_c, 1, 64, 127
3, 32667, Note_on_c, 1, 53, 0
3, 32670, Note_on_c, 1, 60, 85
3, 32692, Note_on_c, 1, 60, 0
3, 32700, Note_on_c, 1, 59, 98
3, 32717, Note_on_c, 1, 59, 0
3, 32730, Note_on_c, 1, 41, 0
3, 32730, Note_on_c, 1, 60, 76
3, 32748, Note_on_c, 1, 60, 0
3, 32757, Control_c, 1, 64, 0
3, 32760, Note_on_c, 1, 62, 93
3, 32760, Note_on_c, 1, 41, 76
3, 32784, Note_on_c, 1, 62, 0
3, 32790, Note_on_c, 1, 60, 80
3, 32792, Control_c, 1, 64, 127
3, 32810, Note_on_c, 1, 60, 0
3, 32820, Note_on_c, 1, 59, 85
3, 32837, Note_on_c, 1, 59, 0
3, 32845, Note_on_c, 1, 41, 0
3, 32850, Note_on_c, 1, 60, 76
3, 32865, Note_on_c, 1, 60, 0
3, 32880, Note_on_c, 1, 41, 76
3, 32880, Note_on_c, 1, 53, 93
3, 32885, Control_c, 1, 64, 0
3, 32902, Note_on_c, 1, 53, 0
3, 32910, Note_on_c, 1, 63, 72
3, 32924, Control_c, 1, 64, 127
3, 32933, Note_on_c, 1, 63, 0
3, 32940, Note_on_c, 1, 62, 93
3, 32957, Note_on_c, 1, 62, 0
3, 32970, Note_on_c, 1, 63, 89
3, 32980, Note_on_c, 1, 41, 0
3, 32986, Note_on_c, 1, 63, 0
3, 33000, Note_on_c, 1, 65, 98
3, 33000, Note_on_c, 1, 41, 76
3, 33006, Control_c, 1, 64, 0
3, 33020, Note_on_c, 1, 65, 0
3, 33030, Note_on_c, 1, 63, 76
3, 33036, Control_c, 1, 64, 127
3, 33047, Note_on_c, 1, 63, 0
3, 33060, Note_on_c, 1, 62, 93
3, 33077, Note_on_c, 1, 62, 0
3, 33085, Note_on_c, 1, 41, 0
3, 33090, Note_on_c, 1, 63, 80
3, 33105, Note_on_c, 1, 63, 0
3, 33120, Note_on_c, 1, 41, 72
3, 33120, Note_on_c, 1, 53, 102
3, 33123, Control_c, 1, 64, 0
3, 33139, Note_on_c, 1, 53, 0
3, 33150, Note_on_c, 1, 62, 93
3, 33160, Control_c, 1, 64, 127
3, 33169, Note_on_c, 1, 62, 0
3, 33180, Note_on_c, 1, 61, 76
3, 33196, Note_on_c, 1, 61, 0
3, 33210, Note_on_c, 1, 62, 85
3, 33219, Note_on_c, 1, 41, 0
3, 33227, Note_on_c, 1, 62, 0
3, 33240, Control_c, 1, 64, 0
3, 33240, Note_on_c, 1, 63, 85
3, 33240, Note_on_c, 1, 41, 80
3, 33261, Note_on_c, 1, 63, 0
3, 33267, Control_c, 1, 64, 127
3, 33270, Note_on_c, 1, 62, 89
3, 33286, Note_on_c, 1, 62, 0
3, 33300, Note_on_c, 1, 61, 72
3, 33319, Note_on_c, 1, 61, 0
3, 33330, Note_on_c, 1, 62, 89
3, 33334, Note_on_c, 1, 41, 0
3, 33345, Note_on_c, 1, 62, 0
3, 33360, Control_c, 1, 64, 0
3, 33360, Note_on_c, 1, 41, 76
3, 33360, Note_on_c, 1, 53, 98
3, 33382, Note_on_c, 1, 53, 0
3, 33390, Note_on_c, 1, 58, 64
3, 33396, Control_c, 1, 64, 127
3, 33410, Note_on_c, 1, 58, 0
3, 33420, Note_on_c, 1, 57, 89
3, 33436, Note_on_c, 1, 57, 0
3, 33450, Note_on_c, 1, 58, 80
3, 33466, Note_on_c, 1, 41, 0
3, 33468, Note_on_c, 1, 58, 0
3, 33480, Note_on_c, 1, 60, 76
3, 33480, Note_on_c, 1, 41, 80
3, 33488, Control_c, 1, 64, 0
3, 33500, Note_on_c, 1, 60, 0
3, 33510, Note_on_c, 1, 58, 72
3, 33518, Control_c, 1, 64, 127
3, 33526, Note_on_c, 1, 58, 0
3, 33540, Note_on_c, 1, 57, 89
3, 33560, Note_on_c, 1, 57, 0
3, 33570, Note_on_c, 1, 58, 85
3, 33574, Note_on_c, 1, 41, 0
3, 33588, Note_on_c, 1, 58, 0
3, 33600, Control_c, 1, 64, 0
3, 33600, Note_on_c, 1, 41, 72
3, 33600, Note_on_c, 1, 53, 93
3, 33620, Note_on_c, 1, 53, 0
3, 33630, Note_on_c, 1, 57, 80
3, 33634, Control_c, 1, 64, 127
3, 33648, Note_on_c, 1, 57, 0
3, 33660, Note_on_c, 1, 56, 93
3, 33678, Note_on_c, 1, 56, 0
3, 33689, Note_on_c, 1, 41, 0
3, 33690, Note_on_c, 1, 57, 76
3, 33707, Note_on_c, 1, 57, 0
3, 33717, Control_c, 1, 64, 0
3, 33720, Note_on_c, 1, 58, 80
3, 33720, Note_on_c, 1, 41, 76
3, 33744, Note_on_c, 1, 58, 0
3, 33750, Note_on_c, 1, 57, 76
3, 33754, Control_c, 1, 64, 127
3, 33765, Note_on_c, 1, 57, 0
3, 33780, Note_on_c, 1, 56, 68
3, 33801, Note_on_c, 1, 56, 0
3, 33810, Note_on_c, 1, 57, 76
3, 33817, Note_on_c, 1, 41, 0
3, 33824, Note_on_c, 1, 57, 0
3, 33837, Control_c, 1, 64, 0
3, 33840, Note_on_c, 1, 53, 93
3, 33840, Note_on_c, 1, 41, 80
3, 33860, Note_on_c, 1, 53, 0
3, 33870, Note_on_c, 1, 63, 76
3, 33871, Control_c, 1, 64, 127
3, 33889, Note_on_c, 1, 63, 0
3, 33900, Note_on_c, 1, 62, 80
3, 33919, Note_on_c, 1, 62, 0
3, 33930, Note_on_c, 1, 63, 85
3, 33944, Note_on_c, 1, 41, 0
3, 33950, Note_on_c, 1, 63, 0
3, 33960, Note_on_c, 1, 65, 93
3, 33960, Note_on_c, 1, 41, 76
3, 33962, Control_c, 1, 64, 0
3, 33981, Note_on_c, 1, 65, 0
3, 33990, Control_c, 1, 64, 127
3, 33990, Note_on_c, 1, 63, 85
3, 34009, Note_on_c, 1, 63, 0
3, 34020, Note_on_c, 1, 62, 89
3, 34038, Note_on_c, 1, 62, 0
3, 34050, Note_on_c, 1, 63, 93
3, 34058, Note_on_c, 1, 41, 0
3, 34066, Note_on_c, 1, 63, 0
3, 34080, Note_on_c, 1, 41, 80
3, 34080, Note_on_c, 1, 53, 93
3, 34083, Control_c, 1, 64, 0
3, 34099, Note_on_c, 1, 53, 0
3, 34110, Note_on_c, 1, 62, 89
3, 34119, Control_c, 1, 64, 127
3, 34130, Note_on_c, 1, 62, 0
3, 34140, Note_on_c, 1, 61, 72
3, 34157, Note_on_c, 1, 61, 0
3, 34170, Note_on_c, 1, 62, 89
3, 34185, Note_on_c, 1, 41, 0
3, 34187, Note_on_c, 1, 62, 0
3, 34198, Control_c, 1, 64, 0
3, 34200, Note_on_c, 1, 63, 76
3, 34200, Note_on_c, 1, 41, 72
3, 34220, Note_on_c, 1, 63, 0
3, 34226, Control_c, 1, 64, 127
3, 34230, Note_on_c, 1, 62, 89
3, 34249, Note_on_c, 1, 62, 0
3, 34260, Note_on_c, 1, 61, 76
3, 34275, Note_on_c, 1, 61, 0
3, 34290, Note_on_c, 1, 62, 89
3, 34295, Note_on_c, 1, 41, 0
3, 34306, Note_on_c, 1, 62, 0
3, 34318, Control_c, 1, 64, 0
3, 34320, Note_on_c, 1, 53, 89
3, 34320, Note_on_c, 1, 41, 85
3, 34342, Note_on_c, 1, 53, 0
3, 34350, Note_on_c, 1, 58, 68
3, 34352, Control_c, 1, 64, 127
3, 34371, Note_on_c, 1, 58, 0
3, 34380, Note_on_c, 1, 57, 107
3, 34396, Note_on_c, 1, 57, 0
3, 34410, Note_on_c, 1, 58, 85
3, 34418, Note_on_c, 1, 41, 0
3, 34426, Note_on_c, 1, 58, 0
3, 34432, Control_c, 1, 64, 0
3, 34440, Note_on_c, 1, 60, 89
3, 34440, Note_on_c, 1, 41, 85
3, 34461, Note_on_c, 1, 60, 0
3, 34463, Control_c, 1, 64, 127
3, 34470, Note_on_c, 1, 58, 62
3, 34488, Note_on_c, 1, 58, 0
3, 34500, Note_on_c, 1, 57, 75
3, 34522, Note_on_c, 1, 57, 0
3, 34530, Note_on_c, 1, 41, 0
3, 34530, Note_on_c, 1, 58, 85
3, 34545, Note_on_c, 1, 58, 0
3, 34553, Control_c, 1, 64, 0
3, 34560, Note_on_c, 1, 57, 107
3, 34560, Note_on_c, 1, 41, 85
3, 34584, Control_c, 1, 64, 127
3, 34611, Note_on_c, 1, 57, 0
3, 34618, Note_on_c, 1, 41, 0
3, 34672, Control_c, 1, 64, 0
3, 34680, Note_on_c, 1, 60, 93
3, 34680, Note_on_c, 1, 53, 102
3, 34680, Note_on_c, 1, 57, 102
3, 34680, Note_on_c, 1, 41, 98
3, 34706, Control_c, 1, 64, 127
3, 34742, Note_on_c, 1, 41, 0
3, 34745, Note_on_c, 1, 53, 0
3, 34747, Note_on_c, 1, 60, 0
3, 34750, Note_on_c, 1, 57, 0
3, 34800, Note_on_c, 1, 41, 98
3, 34800, Note_on_c, 1, 53, 93
3, 34800, Note_on_c, 1, 57, 107
3, 34800, Note_on_c, 1, 60, 89
3, 34803, Control_c, 1, 64, 0
3, 34828, Control_c, 1, 64, 127
3, 34836, Note_on_c, 1, 41, 0
3, 34838, Note_on_c, 1, 53, 0
3, 34838, Note_on_c, 1, 60, 0
3, 34840, Note_on_c, 1, 57, 0
3, 34938, Control_c, 1, 64, 0
3, 35623, Control_c, 1, 64, 127
3, 35640, Note_on_c, 1, 29, 56
3, 35640, Note_on_c, 1, 41, 44
3, 35706, Note_on_c, 1, 41, 0
3, 35710, Note_on_c, 1, 29, 0
3, 35760, Note_on_c, 1, 29, 64
3, 35760, Note_on_c, 1, 41, 50
3, 35794, Note_on_c, 1, 41, 0
3, 35806, Note_on_c, 1, 29, 0
3, 35880, Note_on_c, 1, 29, 72
3, 35880, Note_on_c, 1, 41, 56
3, 35903, Note_on_c, 1, 41, 0
3, 35906, Note_on_c, 1, 29, 0
3, 36000, Note_on_c, 1, 46, 72
3, 36000, Note_on_c, 1, 34, 57
3, 36000, Control_c, 1, 64, 0
3, 36031, Control_c, 1, 64, 127
3, 36060, Note_on_c, 1, 46, 0
3, 36060, Note_on_c, 1, 38, 60
3, 36060, Note_on_c, 1, 50, 62
3, 36063, Note_on_c, 1, 34, 0
3, 36105, Control_c, 1, 64, 0
3, 36114, Note_on_c, 1, 50, 0
3, 36119, Note_on_c, 1, 38, 0
3, 36120, Note_on_c, 1, 53, 64
3, 36120, Note_on_c, 1, 41, 60
3, 36143, Control_c, 1, 64, 127
3, 36174, Note_on_c, 1, 41, 0
3, 36180, Note_on_c, 1, 53, 0
3, 36180, Note_on_c, 1, 38, 62
3, 36180, Note_on_c, 1, 50, 64
3, 36231, Note_on_c, 1, 38, 0
3, 36233, Note_on_c, 1, 50, 0
3, 36233, Control_c, 1, 64, 0
3, 36240, Note_on_c, 1, 46, 64
3, 36240, Note_on_c, 1, 34, 56
3, 36274, Control_c, 1, 64, 127
3, 36457, Note_on_c, 1, 46, 0
3, 36466, Note_on_c, 1, 34, 0
3, 36485, Control_c, 1, 64, 0
3, 36600, Note_on_c, 1, 29, 59
3, 36600, Note_on_c, 1, 41, 56
3, 36612, Control_c, 1, 64, 127
3, 36669, Note_on_c, 1, 29, 0
3, 36670, Note_on_c, 1, 41, 0
3, 36719, Control_c, 1, 64, 0
3, 36720, Note_on_c, 1, 29, 68
3, 36720, Note_on_c, 1, 41, 59
3, 36742, Control_c, 1, 64, 127
3, 36776, Note_on_c, 1, 41, 0
3, 36778, Note_on_c, 1, 29, 0
3, 36840, Note_on_c, 1, 29, 57
3, 36840, Note_on_c, 1, 41, 60
3, 36878, Note_on_c, 1, 41, 0
3, 36879, Note_on_c, 1, 29, 0
3, 36959, Control_c, 1, 64, 0
3, 36960, Note_on_c, 1, 46, 62
3, 36960, Note_on_c, 1, 34, 60
3, 36993, Control_c, 1, 64, 127
3, 37012, Note_on_c, 1, 46, 0
3, 37020, Note_on_c, 1, 50, 72
3, 37076, Note_on_c, 1, 50, 0
3, 37078, Note_on_c, 1, 34, 0
3, 37079, Control_c, 1, 64, 0
3, 37080, Note_on_c, 1, 53, 72
3, 37123, Control_c, 1, 64, 127
3, 37137, Note_on_c, 1, 53, 0
3, 37140, Note_on_c, 1, 50, 64
3, 37185, Note_on_c, 1, 50, 0
3, 37197, Control_c, 1, 64, 0
3, 37200, Note_on_c, 1, 58, 72
3, 37200, Note_on_c, 1, 46, 68
3, 37229, Control_c, 1, 64, 127
3, 37256, Note_on_c, 1, 58, 0
3, 37260, Note_on_c, 1, 53, 62
3, 37278, Note_on_c, 1, 46, 0
3, 37312, Note_on_c, 1, 53, 0
3, 37320, Note_on_c, 1, 50, 76
3, 37325, Control_c, 1, 64, 0
3, 37356, Control_c, 1, 64, 127
3, 37379, Note_on_c, 1, 50, 0
3, 37380, Note_on_c, 1, 46, 64
3, 37400, Note_on_c, 1, 46, 0
3, 37432, Control_c, 1, 64, 0
3, 37440, Note_on_c, 1, 46, 72
3, 37440, Note_on_c, 1, 39, 68
3, 37461, Control_c, 1, 64, 127
3, 37497, Note_on_c, 1, 46, 0
3, 37500, Note_on_c, 1, 51, 59
3, 37555, Note_on_c, 1, 39, 0
3, 37559, Note_on_c, 1, 51, 0
3, 37559, Control_c, 1, 64, 0
3, 37560, Note_on_c, 1, 55, 60
3, 37597, Control_c, 1, 64, 127
3, 37616, Note_on_c, 1, 55, 0
3, 37620, Note_on_c, 1, 51, 68
3, 37668, Note_on_c, 1, 51, 0
3, 37675, Control_c, 1, 64, 0
3, 37680, Note_on_c, 1, 46, 60
3, 37680, Note_on_c, 1, 38, 72
3, 37712, Control_c, 1, 64, 127
3, 37737, Note_on_c, 1, 46, 0
3, 37740, Note_on_c, 1, 50, 72
3, 37797, Note_on_c, 1, 50, 0
3, 37800, Note_on_c, 1, 53, 62
3, 37802, Control_c, 1, 64, 0
3, 37807, Note_on_c, 1, 38, 0
3, 37839, Control_c, 1, 64, 127
3, 37859, Note_on_c, 1, 53, 0
3, 37860, Note_on_c, 1, 50, 80
3, 37873, Note_on_c, 1, 50, 0
3, 37914, Control_c, 1, 64, 0
3, 37920, Note_on_c, 1, 39, 72
3, 37920, Note_on_c, 1, 48, 62
3, 37920, Note_on_c, 1, 50, 64
3, 37924, Note_on_c, 1, 50, 0
3, 37976, Control_c, 1, 64, 127
3, 37979, Note_on_c, 1, 48, 0
3, 37980, Note_on_c, 1, 55, 76
3, 38030, Note_on_c, 1, 55, 0
3, 38034, Control_c, 1, 64, 0
3, 38036, Note_on_c, 1, 39, 0
3, 38040, Note_on_c, 1, 36, 60
3, 38040, Note_on_c, 1, 57, 80
3, 38075, Control_c, 1, 64, 127
3, 38091, Note_on_c, 1, 57, 0
3, 38100, Note_on_c, 1, 58, 64
3, 38121, Note_on_c, 1, 36, 0
3, 38149, Note_on_c, 1, 58, 0
3, 38158, Control_c, 1, 64, 0
3, 38160, Note_on_c, 1, 57, 85
3, 38160, Note_on_c, 1, 41, 62
3, 38200, Control_c, 1, 64, 127
3, 38218, Note_on_c, 1, 57, 0
3, 38220, Note_on_c, 1, 55, 68
3, 38268, Control_c, 1, 64, 0
3, 38277, Note_on_c, 1, 41, 0
3, 38280, Note_on_c, 1, 55, 0
3, 38280, Note_on_c, 1, 29, 55
3, 38280, Note_on_c, 1, 53, 76
3, 38304, Control_c, 1, 64, 127
3, 38333, Note_on_c, 1, 53, 0
3, 38340, Note_on_c, 1, 51, 72
3, 38363, Note_on_c, 1, 29, 0
3, 38379, Control_c, 1, 64, 0
3, 38396, Note_on_c, 1, 51, 0
3, 38400, Note_on_c, 1, 50, 80
3, 38400, Note_on_c, 1, 34, 64
3, 38407, Control_c, 1, 64, 127
3, 38418, Note_on_c, 1, 34, 0
3, 38454, Note_on_c, 1, 50, 0
3, 38460, Note_on_c, 1, 41, 76
3, 38509, Note_on_c, 1, 41, 0
3, 38515, Control_c, 1, 64, 0
3, 38520, Note_on_c, 1, 62, 76
3, 38520, Note_on_c, 1, 46, 68
3, 38545, Control_c, 1, 64, 127
3, 38577, Note_on_c, 1, 46, 0
3, 38580, Note_on_c, 1, 41, 62
3, 38584, Note_on_c, 1, 62, 0
3, 38624, Note_on_c, 1, 41, 0
3, 38640, Note_on_c, 1, 46, 57
3, 38640, Note_on_c, 1, 62, 89
3, 38646, Control_c, 1, 64, 0
3, 38672, Control_c, 1, 64, 127
3, 38699, Note_on_c, 1, 46, 0
3, 38700, Note_on_c, 1, 41, 60
3, 38706, Note_on_c, 1, 62, 0
3, 38747, Note_on_c, 1, 41, 0
3, 38760, Note_on_c, 1, 62, 89
3, 38760, Note_on_c, 1, 46, 51
3, 38767, Control_c, 1, 64, 0
3, 38793, Control_c, 1, 64, 127
3, 38814, Note_on_c, 1, 62, 0
3, 38820, Note_on_c, 1, 46, 0
3, 38820, Note_on_c, 1, 41, 62
3, 38872, Note_on_c, 1, 41, 0
3, 38880, Note_on_c, 1, 65, 76
3, 38880, Note_on_c, 1, 45, 64
3, 38881, Control_c, 1, 64, 0
3, 38907, Control_c, 1, 64, 127
3, 38933, Note_on_c, 1, 65, 0
3, 38937, Note_on_c, 1, 45, 0
3, 38940, Note_on_c, 1, 63, 59
3, 38940, Note_on_c, 1, 41, 60
3, 38977, Control_c, 1, 64, 0
3, 38992, Note_on_c, 1, 63, 0
3, 39000, Note_on_c, 1, 41, 0
3, 39000, Note_on_c, 1, 45, 64
3, 39000, Note_on_c, 1, 60, 76
3, 39020, Note_on_c, 1, 60, 0
3, 39037, Note_on_c, 1, 45, 0
3, 39060, Note_on_c, 1, 41, 64
3, 39060, Note_on_c, 1, 57, 76
3, 39079, Note_on_c, 1, 57, 0
3, 39102, Note_on_c, 1, 41, 0
3, 39120, Note_on_c, 1, 53, 76
3, 39120, Note_on_c, 1, 48, 59
3, 39140, Control_c, 1, 64, 127
3, 39180, Note_on_c, 1, 41, 49
3, 39182, Note_on_c, 1, 48, 0
3, 39234, Note_on_c, 1, 41, 0
3, 39240, Note_on_c, 1, 51, 62
3, 39247, Control_c, 1, 64, 0
3, 39274, Control_c, 1, 64, 127
3, 39295, Note_on_c, 1, 51, 0
3, 39300, Note_on_c, 1, 41, 56
3, 39316, Note_on_c, 1, 53, 0
3, 39330, Note_on_c, 1, 41, 0
3, 39360, Note_on_c, 1, 50, 64
3, 39370, Control_c, 1, 64, 0
3, 39396, Control_c, 1, 64, 127
3, 39410, Note_on_c, 1, 50, 0
3, 39420, Note_on_c, 1, 41, 60
3, 39479, Note_on_c, 1, 41, 0
3, 39480, Note_on_c, 1, 53, 93
3, 39480, Note_on_c, 1, 50, 56
3, 39494, Control_c, 1, 64, 0
3, 39523, Control_c, 1, 64, 127
3, 39536, Note_on_c, 1, 50, 0
3, 39540, Note_on_c, 1, 41, 64
3, 39593, Note_on_c, 1, 53, 0
3, 39600, Note_on_c, 1, 58, 85
3, 39600, Note_on_c, 1, 46, 64
3, 39603, Note_on_c, 1, 41, 0
3, 39609, Control_c, 1, 64, 0
3, 39635, Control_c, 1, 64, 127
3, 39656, Note_on_c, 1, 46, 0
3, 39660, Note_on_c, 1, 41, 62
3, 39672, Note_on_c, 1, 58, 0
3, 39715, Note_on_c, 1, 41, 0
3, 39720, Note_on_c, 1, 46, 62
3, 39720, Note_on_c, 1, 62, 89
3, 39721, Control_c, 1, 64, 0
3, 39746, Control_c, 1, 64, 127
3, 39764, Note_on_c, 1, 62, 0
3, 39775, Note_on_c, 1, 46, 0
3, 39780, Note_on_c, 1, 41, 64
3, 39829, Note_on_c, 1, 41, 0
3, 39835, Control_c, 1, 64, 0
3, 39840, Note_on_c, 1, 65, 80
3, 39840, Note_on_c, 1, 45, 59
3, 39861, Control_c, 1, 64, 127
3, 39889, Note_on_c, 1, 45, 0
3, 39890, Note_on_c, 1, 65, 0
3, 39900, Note_on_c, 1, 41, 60
3, 39900, Note_on_c, 1, 63, 72
3, 39915, Control_c, 1, 64, 0
3, 39952, Note_on_c, 1, 63, 0
3, 39958, Note_on_c, 1, 41, 0
3, 39960, Note_on_c, 1, 45, 64
3, 39960, Note_on_c, 1, 60, 80
3, 39978, Note_on_c, 1, 60, 0
3, 39985, Note_on_c, 1, 45, 0
3, 40020, Note_on_c, 1, 41, 51
3, 40020, Note_on_c, 1, 57, 76
3, 40043, Note_on_c, 1, 57, 0
3, 40059, Note_on_c, 1, 41, 0
3, 40080, Note_on_c, 1, 48, 55
3, 40080, Note_on_c, 1, 53, 72
3, 40095, Control_c, 1, 64, 127
3, 40139, Note_on_c, 1, 48, 0
3, 40140, Note_on_c, 1, 41, 72
3, 40190, Note_on_c, 1, 41, 0
3, 40200, Note_on_c, 1, 51, 62
3, 40202, Control_c, 1, 64, 0
3, 40229, Control_c, 1, 64, 127
3, 40259, Note_on_c, 1, 51, 0
3, 40260, Note_on_c, 1, 41, 68
3, 40297, Note_on_c, 1, 41, 0
3, 40313, Note_on_c, 1, 53, 0
3, 40320, Note_on_c, 1, 50, 72
3, 40326, Control_c, 1, 64, 0
3, 40353, Control_c, 1, 64, 127
3, 40377, Note_on_c, 1, 50, 0
3, 40380, Note_on_c, 1, 41, 64
3, 40429, Note_on_c, 1, 41, 0
3, 40440, Note_on_c, 1, 53, 89
3, 40440, Note_on_c, 1, 43, 62
3, 40440, Control_c, 1, 64, 0
3, 40467, Control_c, 1, 64, 127
3, 40500, Note_on_c, 1, 45, 62
3, 40502, Note_on_c, 1, 43, 0
3, 40524, Note_on_c, 1, 53, 0
3, 40550, Control_c, 1, 64, 0
3, 40556, Note_on_c, 1, 45, 0
3, 40560, Note_on_c, 1, 53, 85
3, 40560, Note_on_c, 1, 46, 72
3, 40581, Control_c, 1, 64, 127
3, 40587, Note_on_c, 1, 46, 0
3, 40620, Note_on_c, 1, 46, 51
3, 40620, Note_on_c, 1, 41, 64
3, 40628, Note_on_c, 1, 46, 0
3, 40664, Control_c, 1, 64, 0
3, 40666, Note_on_c, 1, 41, 0
3, 40667, Note_on_c, 1, 53, 0
3, 40680, Note_on_c, 1, 53, 76
3, 40680, Note_on_c, 1, 38, 89
3, 40698, Control_c, 1, 64, 127
3, 40710, Note_on_c, 1, 38, 0
3, 40740, Note_on_c, 1, 34, 62
3, 40766, Note_on_c, 1, 53, 0
3, 40778, Note_on_c, 1, 34, 0
3, 40798, Control_c, 1, 64, 0
3, 40800, Note_on_c, 1, 54, 72
3, 40800, Note_on_c, 1, 39, 72
3, 40825, Control_c, 1, 64, 127
3, 40853, Note_on_c, 1, 54, 0
3, 40860, Note_on_c, 1, 55, 64
3, 40875, Control_c, 1, 64, 0
3, 40920, Note_on_c, 1, 51, 80
3, 40921, Note_on_c, 1, 55, 0
3, 40929, Note_on_c, 1, 39, 0
3, 40935, Note_on_c, 1, 51, 0
3, 40980, Note_on_c, 1, 48, 76
3, 40996, Note_on_c, 1, 48, 0
3, 41040, Note_on_c, 1, 52, 76
3, 41040, Note_on_c, 1, 38, 72
3, 41049, Control_c, 1, 64, 127
3, 41100, Note_on_c, 1, 53, 64
3, 41103, Note_on_c, 1, 52, 0
3, 41149, Note_on_c, 1, 38, 0
3, 41150, Control_c, 1, 64, 0
3, 41153, Note_on_c, 1, 53, 0
3, 41160, Note_on_c, 1, 50, 85
3, 41175, Note_on_c, 1, 50, 0
3, 41220, Note_on_c, 1, 46, 76
3, 41242, Note_on_c, 1, 46, 0
3, 41280, Note_on_c, 1, 54, 72
3, 41280, Note_on_c, 1, 39, 62
3, 41294, Control_c, 1, 64, 127
3, 41338, Note_on_c, 1, 54, 0
3, 41340, Note_on_c, 1, 55, 72
3, 41388, Control_c, 1, 64, 0
3, 41400, Note_on_c, 1, 55, 0
3, 41400, Note_on_c, 1, 51, 80
3, 41404, Note_on_c, 1, 39, 0
3, 41415, Note_on_c, 1, 51, 0
3, 41460, Note_on_c, 1, 48, 62
3, 41478, Note_on_c, 1, 48, 0
3, 41520, Note_on_c, 1, 52, 76
3, 41520, Note_on_c, 1, 38, 76
3, 41526, Control_c, 1, 64, 127
3, 41578, Note_on_c, 1, 52, 0
3, 41580, Note_on_c, 1, 53, 72
3, 41627, Control_c, 1, 64, 0
3, 41637, Note_on_c, 1, 53, 0
3, 41640, Note_on_c, 1, 50, 93
3, 41644, Note_on_c, 1, 38, 0
3, 41654, Note_on_c, 1, 50, 0
3, 41700, Note_on_c, 1, 46, 68
3, 41715, Note_on_c, 1, 46, 0
3, 41760, Note_on_c, 1, 54, 76
3, 41760, Note_on_c, 1, 39, 89
3, 41767, Control_c, 1, 64, 127
3, 41811, Note_on_c, 1, 54, 0
3, 41820, Note_on_c, 1, 55, 89
3, 41838, Note_on_c, 1, 55, 0
3, 41858, Control_c, 1, 64, 0
3, 41879, Note_on_c, 1, 39, 0
3, 41880, Note_on_c, 1, 36, 76
3, 41880, Note_on_c, 1, 51, 89
3, 41895, Note_on_c, 1, 51, 0
3, 41940, Note_on_c, 1, 48, 89
3, 41956, Note_on_c, 1, 48, 0
3, 41988, Note_on_c, 1, 36, 0
3, 42000, Note_on_c, 1, 50, 93
3, 42000, Note_on_c, 1, 41, 80
3, 42010, Control_c, 1, 64, 127
3, 42051, Note_on_c, 1, 50, 0
3, 42060, Note_on_c, 1, 51, 85
3, 42075, Control_c, 1, 64, 0
3, 42082, Note_on_c, 1, 51, 0
3, 42119, Note_on_c, 1, 41, 0
3, 42120, Note_on_c, 1, 29, 80
3, 42120, Note_on_c, 1, 48, 89
3, 42139, Note_on_c, 1, 48, 0
3, 42180, Note_on_c, 1, 45, 89
3, 42202, Note_on_c, 1, 45, 0
3, 42226, Note_on_c, 1, 29, 0
3, 42240, Note_on_c, 1, 46, 85
3, 42240, Note_on_c, 1, 34, 72
3, 42249, Control_c, 1, 64, 127
3, 42352, Control_c, 1, 64, 0
3, 42361, Note_on_c, 1, 34, 0
3, 42364, Note_on_c, 1, 46, 0
3, 42600, Note_on_c, 1, 46, 89
3, 42600, Note_on_c, 1, 38, 89
3, 42600, Note_on_c, 1, 58, 89
3, 42614, Control_c, 1, 64, 127
3, 42658, Note_on_c, 1, 46, 0
3, 42664, Note_on_c, 1, 58, 0
3, 42686, Note_on_c, 1, 38, 0
3, 42715, Control_c, 1, 64, 0
3, 42720, Note_on_c, 1, 46, 62
3, 42720, Note_on_c, 1, 58, 62
3, 42720, Note_on_c, 1, 58, 72
3, 42720, Note_on_c, 1, 46, 64
3, 42720, Note_on_c, 1, 39, 62
3, 42738, Note_on_c, 1, 58, 0
3, 42738, Note_on_c, 1, 46, 0
3, 42757, Control_c, 1, 64, 127
3, 42826, Note_on_c, 1, 39, 0
3, 42831, Note_on_c, 1, 46, 0
3, 42832, Note_on_c, 1, 58, 0
3, 42835, Control_c, 1, 64, 0
3, 43080, Note_on_c, 1, 40, 89
3, 43080, Note_on_c, 1, 60, 98
3, 43080, Note_on_c, 1, 48, 89
3, 43084, Control_c, 1, 64, 127
3, 43142, Note_on_c, 1, 48, 0
3, 43149, Note_on_c, 1, 60, 0
3, 43190, Control_c, 1, 64, 0
3, 43192, Note_on_c, 1, 40, 0
3, 43200, Note_on_c, 1, 48, 64
3, 43200, Note_on_c, 1, 60, 72
3, 43200, Note_on_c, 1, 48, 62
3, 43200, Note_on_c, 1, 60, 76
3, 43200, Note_on_c, 1, 41, 56
3, 43217, Note_on_c, 1, 60, 0
3, 43218, Note_on_c, 1, 48, 0
3, 43232, Control_c, 1, 64, 127
3, 43297, Note_on_c, 1, 48, 0
3, 43300, Note_on_c, 1, 41, 0
3, 43306, Note_on_c, 1, 60, 0
3, 43317, Control_c, 1, 64, 0
3, 43560, Note_on_c, 1, 65, 93
3, 43560, Note_on_c, 1, 53, 85
3, 43560, Note_on_c, 1, 45, 93
3, 43568, Control_c, 1, 64, 127
3, 43616, Note_on_c, 1, 53, 0
3, 43623, Note_on_c, 1, 65, 0
3, 43639, Note_on_c, 1, 45, 0
3, 43659, Control_c, 1, 64, 0
3, 43680, Note_on_c, 1, 53, 72
3, 43680, Note_on_c, 1, 65, 85
3, 43680, Note_on_c, 1, 65, 98
3, 43680, Note_on_c, 1, 53, 102
3, 43680, Note_on_c, 1, 46, 85
3, 43691, Control_c, 1, 64, 127
3, 43695, Note_on_c, 1, 65, 0
3, 43698, Note_on_c, 1, 53, 0
3, 43726, Note_on_c, 1, 46, 0
3, 43734, Note_on_c, 1, 53, 0
3, 43753, Note_on_c, 1, 65, 0
3, 43790, Control_c, 1, 64, 0
3, 43800, Note_on_c, 1, 65, 98
3, 43800, Note_on_c, 1, 50, 93
3, 43825, Control_c, 1, 64, 127
3, 43889, Note_on_c, 1, 50, 0
3, 43899, Note_on_c, 1, 65, 0
3, 43920, Note_on_c, 1, 51, 93
3, 43920, Note_on_c, 1, 65, 89
3, 43922, Control_c, 1, 64, 0
3, 43950, Note_on_c, 1, 65, 0
3, 43950, Note_on_c, 1, 63, 72
3, 43962, Control_c, 1, 64, 127
3, 43968, Note_on_c, 1, 63, 0
3, 43980, Note_on_c, 1, 65, 72
3, 44003, Note_on_c, 1, 65, 0
3, 44010, Note_on_c, 1, 63, 76
3, 44030, Note_on_c, 1, 63, 0
3, 44031, Note_on_c, 1, 51, 0
3, 44035, Control_c, 1, 64, 0
3, 44040, Note_on_c, 1, 65, 85
3, 44040, Note_on_c, 1, 53, 85
3, 44068, Control_c, 1, 64, 127
3, 44069, Note_on_c, 1, 65, 0
3, 44070, Note_on_c, 1, 63, 72
3, 44100, Note_on_c, 1, 62, 76
3, 44102, Note_on_c, 1, 63, 0
3, 44122, Note_on_c, 1, 62, 0
3, 44130, Note_on_c, 1, 63, 80
3, 44138, Note_on_c, 1, 53, 0
3, 44147, Note_on_c, 1, 63, 0
3, 44149, Control_c, 1, 64, 0
3, 44160, Note_on_c, 1, 46, 64
3, 44160, Note_on_c, 1, 62, 62
3, 44160, Note_on_c, 1, 58, 72
3, 44160, Note_on_c, 1, 34, 60
3, 44174, Control_c, 1, 64, 127
3, 44191, Note_on_c, 1, 62, 0
3, 44213, Note_on_c, 1, 46, 0
3, 44220, Note_on_c, 1, 46, 62
3, 44221, Note_on_c, 1, 58, 0
3, 44225, Note_on_c, 1, 34, 0
3, 44244, Control_c, 1, 64, 0
3, 44280, Note_on_c, 1, 46, 0
3, 44280, Note_on_c, 1, 50, 72
3, 44339, Note_on_c, 1, 50, 0
3, 44340, Note_on_c, 1, 46, 62
3, 44394, Note_on_c, 1, 46, 0
3, 44400, Note_on_c, 1, 53, 64
3, 44421, Control_c, 1, 64, 127
3, 44458, Note_on_c, 1, 53, 0
3, 44460, Note_on_c, 1, 50, 89
3, 44478, Note_on_c, 1, 50, 0
3, 44519, Control_c, 1, 64, 0
3, 44520, Note_on_c, 1, 56, 80
3, 44520, Note_on_c, 1, 53, 89
3, 44520, Note_on_c, 1, 38, 89
3, 44553, Control_c, 1, 64, 127
3, 44576, Note_on_c, 1, 56, 0
3, 44579, Note_on_c, 1, 38, 0
3, 44580, Note_on_c, 1, 53, 0
3, 44640, Note_on_c, 1, 51, 76
3, 44640, Note_on_c, 1, 55, 80
3, 44640, Note_on_c, 1, 39, 68
3, 44643, Control_c, 1, 64, 0
3, 44670, Control_c, 1, 64, 127
3, 44687, Note_on_c, 1, 39, 0
3, 44697, Note_on_c, 1, 55, 0
3, 44698, Note_on_c, 1, 51, 0
3, 44700, Note_on_c, 1, 48, 76
3, 44716, Control_c, 1, 64, 0
3, 44756, Note_on_c, 1, 48, 0
3, 44760, Note_on_c, 1, 52, 80
3, 44820, Note_on_c, 1, 48, 64
3, 44822, Note_on_c, 1, 52, 0
3, 44879, Note_on_c, 1, 48, 0
3, 44880, Note_on_c, 1, 55, 72
3, 44927, Control_c, 1, 64, 127
3, 44940, Note_on_c, 1, 52, 80
3, 44943, Note_on_c, 1, 55, 0
3, 44961, Note_on_c, 1, 52, 0
3, 45000, Note_on_c, 1, 40, 93
3, 45000, Note_on_c, 1, 55, 93
3, 45000, Note_on_c, 1, 58, 85
3, 45005, Control_c, 1, 64, 0
3, 45039, Control_c, 1, 64, 127
3, 45063, Note_on_c, 1, 40, 0
3, 45065, Note_on_c, 1, 58, 0
3, 45066, Note_on_c, 1, 55, 0
3, 45119, Control_c, 1, 64, 0
3, 45120, Note_on_c, 1, 57, 76
3, 45120, Note_on_c, 1, 53, 85
3, 45120, Note_on_c, 1, 41, 76
3, 45141, Control_c, 1, 64, 127
3, 45153, Note_on_c, 1, 53, 0
3, 45157, Note_on_c, 1, 41, 0
3, 45158, Note_on_c, 1, 57, 0
3, 45180, Note_on_c, 1, 53, 76
3, 45202, Control_c, 1, 64, 0
3, 45237, Note_on_c, 1, 53, 0
3, 45240, Note_on_c, 1, 57, 72
3, 45255, Control_c, 1, 64, 127
3, 45297, Note_on_c, 1, 57, 0
3, 45300, Note_on_c, 1, 53, 62
3, 45360, Note_on_c, 1, 60, 76
3, 45361, Note_on_c, 1, 53, 0
3, 45363, Control_c, 1, 64, 0
3, 45389, Control_c, 1, 64, 127
3, 45420, Note_on_c, 1, 57, 89
3, 45421, Note_on_c, 1, 60, 0
3, 45431, Note_on_c, 1, 57, 0
3, 45479, Control_c, 1, 64, 0
3, 45480, Note_on_c, 1, 63, 89
3, 45480, Note_on_c, 1, 45, 98
3, 45480, Note_on_c, 1, 60, 102
3, 45512, Control_c, 1, 64, 127
3, 45546, Note_on_c, 1, 45, 0
3, 45552, Note_on_c, 1, 60, 0
3, 45552, Note_on_c, 1, 63, 0
3, 45600, Note_on_c, 1, 46, 85
3, 45600, Note_on_c, 1, 62, 89
3, 45600, Note_on_c, 1, 58, 85
3, 45604, Control_c, 1, 64, 0
3, 45628, Control_c, 1, 64, 127
3, 45635, Note_on_c, 1, 58, 0
3, 45636, Note_on_c, 1, 62, 0
3, 45638, Note_on_c, 1, 46, 0
3, 45720, Note_on_c, 1, 65, 102
3, 45720, Note_on_c, 1, 58, 93
3, 45720, Note_on_c, 1, 50, 89
3, 45724, Control_c, 1, 64, 0
3, 45752, Control_c, 1, 64, 127
3, 45831, Note_on_c, 1, 50, 0
3, 45840, Note_on_c, 1, 67, 93
3, 45840, Note_on_c, 1, 51, 89
3, 45841, Control_c, 1, 64, 0
3, 45848, Note_on_c, 1, 65, 0
3, 45873, Control_c, 1, 64, 127
3, 45933, Note_on_c, 1, 51, 0
3, 45933, Note_on_c, 1, 67, 0
3, 45938, Note_on_c, 1, 58, 0
3, 45960, Note_on_c, 1, 65, 98
3, 45960, Note_on_c, 1, 58, 85
3, 45960, Note_on_c, 1, 53, 85
3, 45965, Control_c, 1, 64, 0
3, 45997, Control_c, 1, 64, 127
3, 46020, Note_on_c, 1, 65, 0
3, 46020, Note_on_c, 1, 63, 89
3, 46032, Note_on_c, 1, 58, 0
3, 46036, Note_on_c, 1, 53, 0
3, 46044, Note_on_c, 1, 63, 0
3, 46074, Control_c, 1, 64, 0
3, 46080, Note_on_c, 1, 58, 76
3, 46080, Note_on_c, 1, 46, 80
3, 46080, Note_on_c, 1, 62, 98
3, 46098, Control_c, 1, 64, 127
3, 46133, Note_on_c, 1, 46, 0
3, 46134, Note_on_c, 1, 58, 0
3, 46137, Note_on_c, 1, 62, 0
3, 46198, Control_c, 1, 64, 0
3, 46560, Note_on_c, 1, 53, 72
3, 46588, Control_c, 1, 64, 127
3, 46800, Note_on_c, 1, 50, 72
3, 46812, Note_on_c, 1, 53, 0
3, 46819, Control_c, 1, 64, 0
3, 46852, Control_c, 1, 64, 127
3, 47033, Note_on_c, 1, 50, 0
3, 47040, Note_on_c, 1, 46, 62
3, 47050, Control_c, 1, 64, 0
3, 47094, Control_c, 1, 64, 127
3, 47200, Control_c, 1, 64, 0
3, 47220, Note_on_c, 1, 34, 64
3, 47229, Control_c, 1, 64, 127
3, 47253, Note_on_c, 1, 46, 0
3, 47269, Note_on_c, 1, 34, 0
3, 47280, Note_on_c, 1, 38, 72
3, 47280, Note_on_c, 1, 50, 76
3, 47296, Control_c, 1, 64, 0
3, 47327, Control_c, 1, 64, 127
3, 47334, Note_on_c, 1, 38, 0
3, 47340, Note_on_c, 1, 39, 68
3, 47365, Control_c, 1, 64, 0
3, 47398, Note_on_c, 1, 39, 0
3, 47400, Note_on_c, 1, 41, 68
3, 47456, Control_c, 1, 64, 127
3, 47460, Note_on_c, 1, 41, 0
3, 47460, Note_on_c, 1, 43, 64
3, 47516, Note_on_c, 1, 50, 0
3, 47520, Note_on_c, 1, 53, 76
3, 47520, Note_on_c, 1, 44, 68
3, 47521, Note_on_c, 1, 43, 0
3, 47522, Control_c, 1, 64, 0
3, 47577, Control_c, 1, 64, 127
3, 47716, Note_on_c, 1, 44, 0
3, 47731, Control_c, 1, 64, 0
3, 47760, Note_on_c, 1, 50, 76
3, 47769, Note_on_c, 1, 53, 0
3, 47851, Control_c, 1, 64, 127
3, 47993, Note_on_c, 1, 50, 0
3, 48000, Note_on_c, 1, 38, 68
3, 48000, Note_on_c, 1, 46, 72
3, 48011, Control_c, 1, 64, 0
3, 48040, Control_c, 1, 64, 127
3, 48054, Note_on_c, 1, 46, 0
3, 48060, Note_on_c, 1, 56, 76
3, 48060, Note_on_c, 1, 53, 72
3, 48073, Note_on_c, 1, 53, 0
3, 48073, Note_on_c, 1, 56, 0
3, 48073, Control_c, 1, 64, 0
3, 48120, Note_on_c, 1, 53, 76
3, 48120, Note_on_c, 1, 56, 76
3, 48129, Note_on_c, 1, 38, 0
3, 48133, Note_on_c, 1, 56, 0
3, 48133, Note_on_c, 1, 53, 0
3, 48180, Note_on_c, 1, 56, 72
3, 48180, Note_on_c, 1, 53, 76
3, 48191, Note_on_c, 1, 53, 0
3, 48195, Note_on_c, 1, 56, 0
3, 48240, Note_on_c, 1, 39, 76
3, 48240, Note_on_c, 1, 53, 102
3, 48240, Note_on_c, 1, 56, 98
3, 48255, Control_c, 1, 64, 127
3, 48297, Note_on_c, 1, 53, 0
3, 48297, Control_c, 1, 64, 0
3, 48298, Note_on_c, 1, 56, 0
3, 48300, Note_on_c, 1, 51, 59
3, 48300, Note_on_c, 1, 55, 72
3, 48317, Note_on_c, 1, 55, 0
3, 48317, Note_on_c, 1, 51, 0
3, 48317, Note_on_c, 1, 39, 0
3, 48360, Note_on_c, 1, 55, 62
3, 48360, Note_on_c, 1, 51, 72
3, 48374, Note_on_c, 1, 51, 0
3, 48376, Note_on_c, 1, 55, 0
3, 48420, Note_on_c, 1, 55, 80
3, 48420, Note_on_c, 1, 51, 76
3, 48432, Note_on_c, 1, 51, 0
3, 48434, Note_on_c, 1, 55, 0
3, 48480, Note_on_c, 1, 55, 98
3, 48480, Note_on_c, 1, 51, 102
3, 48480, Note_on_c, 1, 35, 68
3, 48495, Control_c, 1, 64, 127
3, 48538, Note_on_c, 1, 51, 0
3, 48540, Note_on_c, 1, 53, 68
3, 48540, Note_on_c, 1, 50, 76
3, 48541, Control_c, 1, 64, 0
3, 48546, Note_on_c, 1, 55, 0
3, 48553, Note_on_c, 1, 50, 0
3, 48556, Note_on_c, 1, 53, 0
3, 48563, Note_on_c, 1, 35, 0
3, 48600, Note_on_c, 1, 50, 72
3, 48600, Note_on_c, 1, 53, 76
3, 48616, Note_on_c, 1, 50, 0
3, 48618, Note_on_c, 1, 53, 0
3, 48660, Note_on_c, 1, 50, 80
3, 48660, Note_on_c, 1, 53, 89
3, 48673, Note_on_c, 1, 53, 0
3, 48675, Note_on_c, 1, 50, 0
3, 48720, Note_on_c, 1, 53, 102
3, 48720, Note_on_c, 1, 36, 93
3, 48720, Note_on_c, 1, 50, 107
3, 48737, Control_c, 1, 64, 127
3, 48780, Note_on_c, 1, 51, 76
3, 48780, Note_on_c, 1, 48, 76
3, 48781, Note_on_c, 1, 50, 0
3, 48783, Note_on_c, 1, 53, 0
3, 48786, Control_c, 1, 64, 0
3, 48795, Note_on_c, 1, 48, 0
3, 48799, Note_on_c, 1, 36, 0
3, 48800, Note_on_c, 1, 51, 0
3, 48840, Note_on_c, 1, 51, 76
3, 48840, Note_on_c, 1, 48, 72
3, 48854, Note_on_c, 1, 48, 0
3, 48860, Note_on_c, 1, 51, 0
3, 48900, Note_on_c, 1, 51, 72
3, 48900, Note_on_c, 1, 48, 72
3, 48913, Note_on_c, 1, 51, 0
3, 48917, Note_on_c, 1, 48, 0
3, 48960, Note_on_c, 1, 53, 93
3, 48960, Note_on_c, 1, 48, 93
3, 48960, Note_on_c, 1, 45, 107
3, 48975, Control_c, 1, 64, 127
3, 49012, Note_on_c, 1, 48, 0
3, 49013, Note_on_c, 1, 45, 0
3, 49020, Note_on_c, 1, 60, 80
3, 49035, Note_on_c, 1, 53, 0
3, 49036, Control_c, 1, 64, 0
3, 49038, Note_on_c, 1, 60, 0
3, 49080, Note_on_c, 1, 53, 62
3, 49080, Note_on_c, 1, 60, 62
3, 49096, Note_on_c, 1, 60, 0
3, 49097, Note_on_c, 1, 53, 0
3, 49140, Note_on_c, 1, 53, 64
3, 49140, Note_on_c, 1, 60, 76
3, 49153, Note_on_c, 1, 60, 0
3, 49156, Note_on_c, 1, 53, 0
3, 49200, Note_on_c, 1, 50, 102
3, 49200, Note_on_c, 1, 53, 107
3, 49200, Note_on_c, 1, 46, 93
3, 49209, Control_c, 1, 64, 127
3, 49249, Note_on_c, 1, 50, 0
3, 49260, Note_on_c, 1, 53, 55
3, 49260, Note_on_c, 1, 62, 89
3, 49261, Note_on_c, 1, 53, 0
3, 49270, Note_on_c, 1, 46, 0
3, 49273, Note_on_c, 1, 62, 0
3, 49273, Control_c, 1, 64, 0
3, 49277, Note_on_c, 1, 53, 0
3, 49320, Note_on_c, 1, 53, 72
3, 49320, Note_on_c, 1, 62, 76
3, 49334, Note_on_c, 1, 62, 0
3, 49337, Note_on_c, 1, 53, 0
3, 49380, Note_on_c, 1, 53, 37
3, 49380, Note_on_c, 1, 62, 64
3, 49392, Note_on_c, 1, 62, 0
3, 49395, Note_on_c, 1, 53, 0
3, 49440, Note_on_c, 1, 39, 89
3, 49440, Note_on_c, 1, 55, 98
3, 49440, Note_on_c, 1, 51, 102
3, 49456, Control_c, 1, 64, 127
3, 49484, Note_on_c, 1, 51, 0
3, 49494, Note_on_c, 1, 55, 0
3, 49500, Note_on_c, 1, 55, 89
3, 49500, Note_on_c, 1, 60, 85
3, 49514, Note_on_c, 1, 39, 0
3, 49515, Note_on_c, 1, 60, 0
3, 49515, Note_on_c, 1, 55, 0
3, 49516, Control_c, 1, 64, 0
3, 49560, Note_on_c, 1, 55, 89
3, 49560, Note_on_c, 1, 60, 93
3, 49560, Note_on_c, 1, 36, 93
3, 49574, Control_c, 1, 64, 127
3, 49578, Note_on_c, 1, 55, 0
3, 49581, Note_on_c, 1, 60, 0
3, 49591, Note_on_c, 1, 36, 0
3, 49591, Control_c, 1, 64, 0
3, 49620, Note_on_c, 1, 55, 76
3, 49620, Note_on_c, 1, 60, 93
3, 49636, Note_on_c, 1, 55, 0
3, 49637, Note_on_c, 1, 60, 0
3, 49680, Note_on_c, 1, 41, 93
3, 49680, Note_on_c, 1, 57, 89
3, 49680, Note_on_c, 1, 53, 89
3, 49695, Control_c, 1, 64, 127
3, 49712, Note_on_c, 1, 53, 0
3, 49727, Note_on_c, 1, 57, 0
3, 49740, Note_on_c, 1, 60, 89
3, 49740, Note_on_c, 1, 63, 85
3, 49741, Note_on_c, 1, 41, 0
3, 49755, Note_on_c, 1, 60, 0
3, 49756, Note_on_c, 1, 63, 0
3, 49760, Control_c, 1, 64, 0
3, 49800, Note_on_c, 1, 60, 98
3, 49800, Note_on_c, 1, 29, 93
3, 49800, Note_on_c, 1, 63, 89
3, 49810, Control_c, 1, 64, 127
3, 49817, Note_on_c, 1, 60, 0
3, 49819, Note_on_c, 1, 63, 0
3, 49825, Note_on_c, 1, 29, 0
3, 49849, Control_c, 1, 64, 0
3, 49860, Note_on_c, 1, 60, 93
3, 49860, Note_on_c, 1, 63, 76
3, 49876, Note_on_c, 1, 60, 0
3, 49879, Note_on_c, 1, 63, 0
3, 49920, Note_on_c, 1, 62, 102
3, 49920, Note_on_c, 1, 58, 98
3, 49920, Note_on_c, 1, 34, 76
3, 49928, Control_c, 1, 64, 127
3, 49967, Note_on_c, 1, 34, 0
3, 50032, Note_on_c, 1, 58, 0
3, 50034, Note_on_c, 1, 62, 0
3, 50040, Note_on_c, 1, 46, 85
3, 50044, Control_c, 1, 64, 0
3, 50090, Control_c, 1, 64, 127
3, 50148, Control_c, 1, 64, 0
3, 50157, Note_on_c, 1, 46, 0
3, 50160, Note_on_c, 1, 53, 85
3, 50177, Control_c, 1, 64, 127
3, 50278, Control_c, 1, 64, 0
3, 50280, Note_on_c, 1, 41, 93
3, 50285, Note_on_c, 1, 53, 0
3, 50304, Control_c, 1, 64, 127
3, 50381, Note_on_c, 1, 41, 0
3, 50398, Control_c, 1, 64, 0
3, 50400, Note_on_c, 1, 58, 93
3, 50435, Control_c, 1, 64, 127
3, 50520, Note_on_c, 1, 34, 76
3, 50520, Control_c, 1, 64, 0
3, 50548, Control_c, 1, 64, 127
3, 50625, Note_on_c, 1, 58, 0
3, 50633, Control_c, 1, 64, 0
3, 50635, Note_on_c, 1, 34, 0
3, 50640, Note_on_c, 1, 53, 93
3, 50640, Note_on_c, 1, 41, 89
3, 50665, Control_c, 1, 64, 127
3, 50735, Note_on_c, 1, 41, 0
3, 50750, Control_c, 1, 64, 0
3, 50760, Note_on_c, 1, 29, 93
3, 50773, Control_c, 1, 64, 127
3, 50782, Note_on_c, 1, 53, 0
3, 50788, Note_on_c, 1, 29, 0
3, 50871, Control_c, 1, 64, 0
3, 50880, Note_on_c, 1, 50, 107
3, 50902, Control_c, 1, 64, 127
3, 50997, Control_c, 1, 64, 0
3, 51000, Note_on_c, 1, 34, 76
3, 51013, Note_on_c, 1, 50, 0
3, 51024, Control_c, 1, 64, 127
3, 51060, Note_on_c, 1, 50, 98
3, 51100, Note_on_c, 1, 34, 0
3, 51105, Control_c, 1, 64, 0
3, 51113, Note_on_c, 1, 50, 0
3, 51120, Note_on_c, 1, 51, 85
3, 51120, Note_on_c, 1, 41, 76
3, 51135, Control_c, 1, 64, 127
3, 51179, Note_on_c, 1, 51, 0
3, 51180, Note_on_c, 1, 53, 93
3, 51227, Control_c, 1, 64, 0
3, 51230, Note_on_c, 1, 53, 0
3, 51232, Note_on_c, 1, 41, 0
3, 51240, Note_on_c, 1, 29, 80
3, 51240, Note_on_c, 1, 55, 93
3, 51258, Control_c, 1, 64, 127
3, 51300, Note_on_c, 1, 57, 93
3, 51301, Note_on_c, 1, 55, 0
3, 51318, Note_on_c, 1, 29, 0
3, 51346, Control_c, 1, 64, 0
3, 51359, Note_on_c, 1, 57, 0
3, 51360, Note_on_c, 1, 58, 98
3, 51377, Control_c, 1, 64, 127
3, 51476, Control_c, 1, 64, 0
3, 51480, Note_on_c, 1, 34, 80
3, 51504, Control_c, 1, 64, 127
3, 51599, Control_c, 1, 64, 0
3, 51600, Note_on_c, 1, 34, 0
3, 51600, Note_on_c, 1, 53, 93
3, 51600, Note_on_c, 1, 41, 80
3, 51601, Note_on_c, 1, 58, 0
3, 51627, Control_c, 1, 64, 127
3, 51716, Note_on_c, 1, 41, 0
3, 51718, Control_c, 1, 64, 0
3, 51720, Note_on_c, 1, 29, 89
3, 51746, Control_c, 1, 64, 127
3, 51816, Note_on_c, 1, 29, 0
3, 51832, Control_c, 1, 64, 0
3, 51835, Note_on_c, 1, 53, 0
3, 51840, Note_on_c, 1, 50, 89
3, 51840, Note_on_c, 1, 34, 76
3, 51859, Control_c, 1, 64, 127
3, 51952, Control_c, 1, 64, 0
3, 51963, Note_on_c, 1, 50, 0
3, 51965, Note_on_c, 1, 34, 0
3, 52500, Note_on_c, 1, 38, 93
3, 52500, Note_on_c, 1, 50, 102
3, 52558, Note_on_c, 1, 50, 0
3, 52559, Note_on_c, 1, 38, 0
3, 52560, Note_on_c, 1, 39, 80
3, 52560, Note_on_c, 1, 51, 93
3, 52563, Control_c, 1, 64, 127
3, 52590, Control_c, 1, 64, 0
3, 52617, Note_on_c, 1, 51, 0
3, 52620, Note_on_c, 1, 53, 93
3, 52620, Note_on_c, 1, 41, 89
3, 52621, Note_on_c, 1, 39, 0
3, 52677, Note_on_c, 1, 41, 0
3, 52680, Note_on_c, 1, 55, 89
3, 52680, Note_on_c, 1, 43, 89
3, 52681, Note_on_c, 1, 53, 0
3, 52740, Note_on_c, 1, 45, 89
3, 52740, Note_on_c, 1, 57, 93
3, 52742, Note_on_c, 1, 55, 0
3, 52745, Note_on_c, 1, 43, 0
3, 52800, Note_on_c, 1, 58, 89
3, 52800, Note_on_c, 1, 46, 93
3, 52802, Note_on_c, 1, 57, 0
3, 52804, Note_on_c, 1, 45, 0
3, 53042, Note_on_c, 1, 46, 0
3, 53045, Note_on_c, 1, 58, 0
3, 53760, Note_on_c, 1, 39, 72
3, 53781, Control_c, 1, 64, 127
3, 53790, Note_on_c, 1, 51, 62
3, 53818, Note_on_c, 1, 51, 0
3, 53820, Note_on_c, 1, 55, 80
3, 53842, Note_on_c, 1, 55, 0
3, 53850, Note_on_c, 1, 58, 62
3, 53873, Note_on_c, 1, 58, 0
3, 53878, Control_c, 1, 64, 0
3, 53880, Note_on_c, 1, 55, 89
3, 53898, Control_c, 1, 64, 127
3, 53910, Note_on_c, 1, 51, 60
3, 53911, Note_on_c, 1, 55, 0
3, 53940, Note_on_c, 1, 55, 68
3, 53942, Note_on_c, 1, 51, 0
3, 53965, Note_on_c, 1, 39, 0
3, 53969, Note_on_c, 1, 55, 0
3, 53970, Note_on_c, 1, 58, 60
3, 53994, Note_on_c, 1, 58, 0
3, 54000, Note_on_c, 1, 39, 72
3, 54000, Note_on_c, 1, 55, 89
3, 54003, Control_c, 1, 64, 0
3, 54026, Control_c, 1, 64, 127
3, 54030, Note_on_c, 1, 51, 60
3, 54033, Note_on_c, 1, 55, 0
3, 54055, Note_on_c, 1, 51, 0
3, 54058, Note_on_c, 1, 39, 0
3, 54060, Note_on_c, 1, 55, 64
3, 54090, Note_on_c, 1, 55, 0
3, 54090, Note_on_c, 1, 58, 64
3, 54107, Note_on_c, 1, 58, 0
3, 54120, Note_on_c, 1, 41, 76
3, 54131, Control_c, 1, 64, 0
3, 54150, Note_on_c, 1, 53, 64
3, 54160, Control_c, 1, 64, 127
3, 54180, Note_on_c, 1, 53, 0
3, 54180, Note_on_c, 1, 56, 68
3, 54209, Note_on_c, 1, 56, 0
3, 54210, Note_on_c, 1, 58, 55
3, 54239, Note_on_c, 1, 58, 0
3, 54240, Note_on_c, 1, 56, 68
3, 54240, Note_on_c, 1, 34, 56
3, 54242, Note_on_c, 1, 41, 0
3, 54252, Control_c, 1, 64, 0
3, 54270, Note_on_c, 1, 53, 60
3, 54272, Note_on_c, 1, 56, 0
3, 54275, Control_c, 1, 64, 127
3, 54300, Note_on_c, 1, 56, 60
3, 54303, Note_on_c, 1, 53, 0
3, 54329, Note_on_c, 1, 56, 0
3, 54330, Note_on_c, 1, 58, 51
3, 54349, Note_on_c, 1, 58, 0
3, 54358, Note_on_c, 1, 34, 0
3, 54360, Note_on_c, 1, 55, 76
3, 54360, Note_on_c, 1, 39, 59
3, 54373, Control_c, 1, 64, 0
3, 54389, Note_on_c, 1, 55, 0
3, 54390, Note_on_c, 1, 51, 64
3, 54394, Control_c, 1, 64, 127
3, 54417, Note_on_c, 1, 51, 0
3, 54417, Note_on_c, 1, 39, 0
3, 54420, Note_on_c, 1, 55, 76
3, 54448, Note_on_c, 1, 55, 0
3, 54450, Note_on_c, 1, 58, 60
3, 54465, Note_on_c, 1, 58, 0
3, 54480, Note_on_c, 1, 32, 72
3, 54493, Control_c, 1, 64, 0
3, 54510, Note_on_c, 1, 51, 62
3, 54515, Control_c, 1, 64, 127
3, 54535, Note_on_c, 1, 51, 0
3, 54540, Note_on_c, 1, 56, 68
3, 54565, Note_on_c, 1, 56, 0
3, 54570, Note_on_c, 1, 60, 64
3, 54580, Note_on_c, 1, 32, 0
3, 54598, Note_on_c, 1, 60, 0
3, 54600, Note_on_c, 1, 56, 72
3, 54600, Note_on_c, 1, 44, 64
3, 54614, Control_c, 1, 64, 0
3, 54630, Note_on_c, 1, 51, 62
3, 54631, Note_on_c, 1, 56, 0
3, 54632, Control_c, 1, 64, 127
3, 54657, Note_on_c, 1, 51, 0
3, 54660, Note_on_c, 1, 56, 62
3, 54686, Note_on_c, 1, 56, 0
3, 54690, Note_on_c, 1, 60, 60
3, 54696, Note_on_c, 1, 44, 0
3, 54713, Note_on_c, 1, 60, 0
3, 54720, Note_on_c, 1, 56, 72
3, 54720, Note_on_c, 1, 32, 62
3, 54730, Control_c, 1, 64, 0
3, 54748, Control_c, 1, 64, 127
3, 54750, Note_on_c, 1, 51, 64
3, 54751, Note_on_c, 1, 56, 0
3, 54777, Note_on_c, 1, 51, 0
3, 54780, Note_on_c, 1, 56, 76
3, 54786, Note_on_c, 1, 32, 0
3, 54806, Note_on_c, 1, 56, 0
3, 54810, Note_on_c, 1, 60, 76
3, 54822, Note_on_c, 1, 60, 0
3, 54840, Note_on_c, 1, 39, 76
3, 54847, Control_c, 1, 64, 0
3, 54866, Control_c, 1, 64, 127
3, 54870, Note_on_c, 1, 51, 62
3, 54891, Note_on_c, 1, 51, 0
3, 54900, Note_on_c, 1, 56, 72
3, 54903, Note_on_c, 1, 39, 0
3, 54920, Note_on_c, 1, 56, 0
3, 54930, Note_on_c, 1, 60, 56
3, 54940, Note_on_c, 1, 60, 0
3, 54960, Note_on_c, 1, 51, 72
3, 54960, Note_on_c, 1, 55, 80
3, 54963, Control_c, 1, 64, 0
3, 54977, Control_c, 1, 64, 127
3, 54979, Note_on_c, 1, 51, 0
3, 54983, Note_on_c, 1, 55, 0
3, 54990, Note_on_c, 1, 51, 56
3, 55013, Note_on_c, 1, 51, 0
3, 55020, Note_on_c, 1, 55, 72
3, 55044, Note_on_c, 1, 55, 0
3, 55050, Note_on_c, 1, 58, 62
3, 55072, Note_on_c, 1, 58, 0
3, 55080, Note_on_c, 1, 55, 76
3, 55080, Note_on_c, 1, 39, 68
3, 55086, Control_c, 1, 64, 0
3, 55104, Control_c, 1, 64, 127
3, 55110, Note_on_c, 1, 51, 68
3, 55112, Note_on_c, 1, 55, 0
3, 55135, Note_on_c, 1, 51, 0
3, 55140, Note_on_c, 1, 55, 72
3, 55142, Note_on_c, 1, 39, 0
3, 55166, Note_on_c, 1, 55, 0
3, 55170, Note_on_c, 1, 58, 68
3, 55179, Note_on_c, 1, 58, 0
3, 55200, Note_on_c, 1, 43, 76
3, 55209, Control_c, 1, 64, 0
3, 55230, Note_on_c, 1, 46, 76
3, 55260, Note_on_c, 1, 46, 0
3, 55260, Note_on_c, 1, 45, 72
3, 55288, Note_on_c, 1, 45, 0
3, 55290, Note_on_c, 1, 46, 76
3, 55317, Note_on_c, 1, 46, 0
3, 55320, Note_on_c, 1, 48, 76
3, 55350, Note_on_c, 1, 46, 64
3, 55351, Note_on_c, 1, 48, 0
3, 55379, Note_on_c, 1, 46, 0
3, 55380, Note_on_c, 1, 45, 72
3, 55386, Control_c, 1, 64, 127
3, 55410, Note_on_c, 1, 46, 72
3, 55412, Note_on_c, 1, 45, 0
3, 55432, Control_c, 1, 64, 0
3, 55436, Note_on_c, 1, 43, 0
3, 55439, Note_on_c, 1, 46, 0
3, 55440, Note_on_c, 1, 41, 76
3, 55440, Note_on_c, 1, 48, 76
3, 55470, Note_on_c, 1, 46, 76
3, 55474, Note_on_c, 1, 48, 0
3, 55476, Control_c, 1, 64, 127
3, 55494, Control_c, 1, 64, 0
3, 55500, Note_on_c, 1, 46, 0
3, 55500, Note_on_c, 1, 45, 68
3, 55514, Control_c, 1, 64, 127
3, 55530, Note_on_c, 1, 45, 0
3, 55530, Note_on_c, 1, 46, 80
3, 55553, Note_on_c, 1, 46, 0
3, 55556, Control_c, 1, 64, 0
3, 55559, Note_on_c, 1, 41, 0
3, 55560, Note_on_c, 1, 38, 76
3, 55590, Note_on_c, 1, 46, 89
3, 55619, Note_on_c, 1, 46, 0
3, 55620, Note_on_c, 1, 45, 76
3, 55647, Note_on_c, 1, 45, 0
3, 55650, Note_on_c, 1, 46, 72
3, 55679, Note_on_c, 1, 46, 0
3, 55680, Note_on_c, 1, 48, 72
3, 55710, Note_on_c, 1, 46, 62
3, 55715, Note_on_c, 1, 48, 0
3, 55722, Control_c, 1, 64, 127
3, 55740, Note_on_c, 1, 45, 68
3, 55741, Note_on_c, 1, 46, 0
3, 55768, Note_on_c, 1, 45, 0
3, 55770, Note_on_c, 1, 46, 89
3, 55791, Note_on_c, 1, 46, 0
3, 55800, Note_on_c, 1, 48, 72
3, 55800, Note_on_c, 1, 39, 85
3, 55804, Note_on_c, 1, 38, 0
3, 55805, Control_c, 1, 64, 0
3, 55830, Note_on_c, 1, 46, 68
3, 55833, Note_on_c, 1, 48, 0
3, 55850, Control_c, 1, 64, 127
3, 55858, Note_on_c, 1, 46, 0
3, 55860, Note_on_c, 1, 45, 76
3, 55886, Note_on_c, 1, 45, 0
3, 55887, Note_on_c, 1, 39, 0
3, 55890, Note_on_c, 1, 46, 64
3, 55902, Note_on_c, 1, 46, 0
3, 55920, Note_on_c, 1, 43, 80
3, 55924, Control_c, 1, 64, 0
3, 55950, Note_on_c, 1, 51, 68
3, 55962, Control_c, 1, 64, 127
3, 55979, Note_on_c, 1, 51, 0
3, 55980, Note_on_c, 1, 50, 76
3, 56007, Note_on_c, 1, 50, 0
3, 56010, Note_on_c, 1, 51, 60
3, 56024, Note_on_c, 1, 51, 0
3, 56039, Note_on_c, 1, 43, 0
3, 56040, Note_on_c, 1, 44, 85
3, 56045, Control_c, 1, 64, 0
3, 56070, Note_on_c, 1, 51, 57
3, 56084, Control_c, 1, 64, 127
3, 56097, Note_on_c, 1, 51, 0
3, 56100, Note_on_c, 1, 50, 72
3, 56121, Note_on_c, 1, 50, 0
3, 56130, Note_on_c, 1, 51, 60
3, 56144, Note_on_c, 1, 51, 0
3, 56157, Note_on_c, 1, 44, 0
3, 56160, Note_on_c, 1, 48, 85
3, 56162, Control_c, 1, 64, 0
3, 56181, Control_c, 1, 64, 127
3, 56190, Note_on_c, 1, 51, 62
3, 56193, Note_on_c, 1, 48, 0
3, 56218, Note_on_c, 1, 51, 0
3, 56220, Note_on_c, 1, 50, 76
3, 56239, Note_on_c, 1, 50, 0
3, 56250, Note_on_c, 1, 51, 56
3, 56262, Note_on_c, 1, 51, 0
3, 56280, Note_on_c, 1, 34, 72
3, 56280, Note_on_c, 1, 46, 72
3, 56282, Control_c, 1, 64, 0
3, 56300, Control_c, 1, 64, 127
3, 56301, Note_on_c, 1, 46, 0
3, 56310, Note_on_c, 1, 46, 76
3, 56334, Note_on_c, 1, 46, 0
3, 56340, Note_on_c, 1, 51, 76
3, 56364, Note_on_c, 1, 51, 0
3, 56370, Note_on_c, 1, 55, 76
3, 56392, Note_on_c, 1, 55, 0
3, 56400, Note_on_c, 1, 58, 60
3, 56424, Note_on_c, 1, 58, 0
3, 56430, Note_on_c, 1, 55, 72
3, 56454, Note_on_c, 1, 55, 0
3, 56460, Note_on_c, 1, 53, 85
3, 56461, Note_on_c, 1, 34, 0
3, 56488, Note_on_c, 1, 53, 0
3, 56490, Note_on_c, 1, 51, 64
3, 56506, Note_on_c, 1, 51, 0
3, 56520, Note_on_c, 1, 50, 89
3, 56520, Note_on_c, 1, 46, 76
3, 56523, Control_c, 1, 64, 0
3, 56540, Control_c, 1, 64, 127
3, 56548, Note_on_c, 1, 50, 0
3, 56550, Note_on_c, 1, 44, 85
3, 56551, Note_on_c, 1, 46, 0
3, 56562, Control_c, 1, 64, 0
3, 56580, Note_on_c, 1, 43, 85
3, 56582, Note_on_c, 1, 44, 0
3, 56587, Control_c, 1, 64, 127
3, 56609, Note_on_c, 1, 43, 0
3, 56610, Note_on_c, 1, 41, 89
3, 56620, Note_on_c, 1, 41, 0
3, 56640, Note_on_c, 1, 39, 72
3, 56642, Control_c, 1, 64, 0
3, 56660, Control_c, 1, 64, 127
3, 56670, Note_on_c, 1, 55, 80
3, 56670, Note_on_c, 1, 58, 64
3, 56678, Note_on_c, 1, 55, 0
3, 56681, Note_on_c, 1, 58, 0
3, 56687, Note_on_c, 1, 39, 0
3, 56700, Note_on_c, 1, 39, 68
3, 56700, Note_on_c, 1, 58, 62
3, 56700, Note_on_c, 1, 55, 64
3, 56713, Note_on_c, 1, 55, 0
3, 56714, Note_on_c, 1, 58, 0
3, 56730, Note_on_c, 1, 39, 0
3, 56730, Note_on_c, 1, 58, 62
3, 56730, Note_on_c, 1, 55, 64
3, 56741, Note_on_c, 1, 55, 0
3, 56742, Note_on_c, 1, 58, 0
3, 56757, Control_c, 1, 64, 0
3, 56760, Note_on_c, 1, 43, 89
3, 56760, Note_on_c, 1, 58, 68
3, 56760, Note_on_c, 1, 55, 85
3, 56771, Control_c, 1, 64, 127
3, 56775, Note_on_c, 1, 55, 0
3, 56777, Note_on_c, 1, 58, 0
3, 56790, Note_on_c, 1, 55, 76
3, 56790, Note_on_c, 1, 58, 68
3, 56802, Note_on_c, 1, 58, 0
3, 56802, Note_on_c, 1, 43, 0
3, 56803, Note_on_c, 1, 55, 0
3, 56820, Note_on_c, 1, 58, 72
3, 56820, Note_on_c, 1, 55, 80
3, 56820, Note_on_c, 1, 46, 85
3, 56833, Note_on_c, 1, 55, 0
3, 56834, Note_on_c, 1, 58, 0
3, 56835, Note_on_c, 1, 46, 0
3, 56850, Note_on_c, 1, 55, 76
3, 56850, Note_on_c, 1, 58, 76
3, 56860, Note_on_c, 1, 55, 0
3, 56861, Note_on_c, 1, 58, 0
3, 56880, Note_on_c, 1, 55, 89
3, 56880, Note_on_c, 1, 58, 76
3, 56880, Note_on_c, 1, 51, 72
3, 56892, Note_on_c, 1, 55, 0
3, 56894, Note_on_c, 1, 58, 0
3, 56909, Note_on_c, 1, 51, 0
3, 56910, Note_on_c, 1, 55, 72
3, 56910, Note_on_c, 1, 58, 72
3, 56921, Note_on_c, 1, 58, 0
3, 56921, Note_on_c, 1, 55, 0
3, 56940, Note_on_c, 1, 39, 89
3, 56940, Note_on_c, 1, 58, 72
3, 56940, Note_on_c, 1, 55, 89
3, 56951, Note_on_c, 1, 55, 0
3, 56952, Note_on_c, 1, 58, 0
3, 56952, Note_on_c, 1, 39, 0
3, 56970, Note_on_c, 1, 58, 62
3, 56970, Note_on_c, 1, 55, 80
3, 56982, Note_on_c, 1, 55, 0
3, 56983, Note_on_c, 1, 58, 0
3, 56997, Control_c, 1, 64, 0
3, 57014, Control_c, 1, 64, 127
3, 57030, Note_on_c, 1, 56, 85
3, 57030, Note_on_c, 1, 58, 76
3, 57039, Note_on_c, 1, 56, 0
3, 57040, Note_on_c, 1, 58, 0
3, 57060, Note_on_c, 1, 58, 76
3, 57060, Note_on_c, 1, 56, 85
3, 57060, Note_on_c, 1, 34, 76
3, 57071, Note_on_c, 1, 56, 0
3, 57074, Note_on_c, 1, 58, 0
3, 57090, Note_on_c, 1, 58, 68
3, 57090, Note_on_c, 1, 56, 72
3, 57099, Note_on_c, 1, 56, 0
3, 57101, Note_on_c, 1, 58, 0
3, 57111, Note_on_c, 1, 34, 0
3, 57120, Note_on_c, 1, 58, 76
3, 57120, Note_on_c, 1, 56, 80
3, 57120, Note_on_c, 1, 46, 80
3, 57130, Note_on_c, 1, 56, 0
3, 57132, Note_on_c, 1, 58, 0
3, 57150, Note_on_c, 1, 56, 72
3, 57150, Note_on_c, 1, 58, 72
3, 57160, Note_on_c, 1, 56, 0
3, 57162, Note_on_c, 1, 58, 0
3, 57169, Note_on_c, 1, 46, 0
3, 57180, Note_on_c, 1, 34, 76
3, 57180, Note_on_c, 1, 56, 89
3, 57180, Note_on_c, 1, 58, 76
3, 57191, Note_on_c, 1, 58, 0
3, 57191, Note_on_c, 1, 56, 0
3, 57196, Note_on_c, 1, 34, 0
3, 57210, Note_on_c, 1, 56, 64
3, 57210, Note_on_c, 1, 58, 64
3, 57220, Note_on_c, 1, 56, 0
3, 57221, Note_on_c, 1, 58, 0
3, 57238, Control_c, 1, 64, 0
3, 57240, Note_on_c, 1, 58, 72
3, 57240, Note_on_c, 1, 55, 89
3, 57240, Note_on_c, 1, 39, 89
3, 57254, Note_on_c, 1, 55, 0
3, 57254, Control_c, 1, 64, 127
3, 57255, Note_on_c, 1, 58, 0
3, 57270, Note_on_c, 1, 55, 68
3, 57270, Note_on_c, 1, 58, 60
3, 57282, Note_on_c, 1, 55, 0
3, 57283, Note_on_c, 1, 58, 0
3, 57292, Note_on_c, 1, 39, 0
3, 57300, Note_on_c, 1, 55, 93
3, 57300, Note_on_c, 1, 58, 76
3, 57300, Note_on_c, 1, 51, 72
3, 57311, Note_on_c, 1, 55, 0
3, 57312, Note_on_c, 1, 58, 0
3, 57315, Note_on_c, 1, 51, 0
3, 57330, Note_on_c, 1, 58, 68
3, 57330, Note_on_c, 1, 55, 68
3, 57339, Note_on_c, 1, 55, 0
3, 57341, Note_on_c, 1, 58, 0
3, 57358, Control_c, 1, 64, 0
3, 57379, Control_c, 1, 64, 127
3, 57390, Note_on_c, 1, 56, 85
3, 57390, Note_on_c, 1, 51, 93
3, 57398, Note_on_c, 1, 51, 0
3, 57400, Note_on_c, 1, 56, 0
3, 57418, Control_c, 1, 64, 0
3, 57420, Note_on_c, 1, 32, 76
3, 57420, Note_on_c, 1, 56, 80
3, 57420, Note_on_c, 1, 51, 89
3, 57430, Control_c, 1, 64, 127
3, 57432, Note_on_c, 1, 51, 0
3, 57435, Note_on_c, 1, 56, 0
3, 57450, Note_on_c, 1, 56, 76
3, 57450, Note_on_c, 1, 51, 68
3, 57459, Note_on_c, 1, 51, 0
3, 57462, Note_on_c, 1, 56, 0
3, 57471, Note_on_c, 1, 32, 0
3, 57479, Control_c, 1, 64, 0
3, 57480, Note_on_c, 1, 36, 85
3, 57480, Note_on_c, 1, 51, 76
3, 57480, Note_on_c, 1, 56, 72
3, 57491, Note_on_c, 1, 51, 0
3, 57491, Control_c, 1, 64, 127
3, 57493, Note_on_c, 1, 56, 0
3, 57510, Note_on_c, 1, 51, 57
3, 57510, Note_on_c, 1, 56, 62
3, 57520, Note_on_c, 1, 51, 0
3, 57521, Note_on_c, 1, 56, 0
3, 57540, Note_on_c, 1, 51, 80
3, 57540, Note_on_c, 1, 56, 76
3, 57540, Note_on_c, 1, 39, 93
3, 57542, Note_on_c, 1, 36, 0
3, 57550, Note_on_c, 1, 51, 0
3, 57552, Note_on_c, 1, 56, 0
3, 57570, Note_on_c, 1, 51, 68
3, 57570, Note_on_c, 1, 56, 76
3, 57579, Note_on_c, 1, 51, 0
3, 57581, Note_on_c, 1, 56, 0
3, 57600, Control_c, 1, 64, 0
3, 57600, Note_on_c, 1, 56, 76
3, 57600, Note_on_c, 1, 51, 76
3, 57600, Note_on_c, 1, 44, 76
3, 57602, Note_on_c, 1, 39, 0
3, 57610, Note_on_c, 1, 51, 0
3, 57613, Note_on_c, 1, 56, 0
3, 57613, Control_c, 1, 64, 127
3, 57630, Note_on_c, 1, 51, 62
3, 57630, Note_on_c, 1, 56, 59
3, 57639, Note_on_c, 1, 56, 0
3, 57639, Note_on_c, 1, 51, 0
3, 57654, Note_on_c, 1, 44, 0
3, 57660, Note_on_c, 1, 60, 60
3, 57660, Note_on_c, 1, 51, 68
3, 57660, Note_on_c, 1, 32, 76
3, 57664, Control_c, 1, 64, 0
3, 57674, Note_on_c, 1, 51, 0
3, 57676, Control_c, 1, 64, 127
3, 57679, Note_on_c, 1, 60, 0
3, 57690, Note_on_c, 1, 51, 68
3, 57690, Note_on_c, 1, 60, 60
3, 57698, Note_on_c, 1, 32, 0
3, 57701, Note_on_c, 1, 60, 0
3, 57703, Note_on_c, 1, 51, 0
3, 57718, Control_c, 1, 64, 0
3, 57736, Control_c, 1, 64, 127
3, 57750, Note_on_c, 1, 56, 76
3, 57750, Note_on_c, 1, 51, 57
3, 57761, Note_on_c, 1, 51, 0
3, 57762, Note_on_c, 1, 56, 0
3, 57780, Note_on_c, 1, 56, 76
3, 57780, Note_on_c, 1, 39, 85
3, 57780, Note_on_c, 1, 51, 68
3, 57789, Note_on_c, 1, 51, 0
3, 57792, Note_on_c, 1, 56, 0
3, 57810, Note_on_c, 1, 56, 72
3, 57810, Note_on_c, 1, 51, 56
3, 57821, Note_on_c, 1, 51, 0
3, 57822, Note_on_c, 1, 56, 0
3, 57825, Note_on_c, 1, 39, 0
3, 57836, Control_c, 1, 64, 0
3, 57840, Note_on_c, 1, 51, 55
3, 57840, Note_on_c, 1, 55, 80
3, 57840, Note_on_c, 1, 43, 89
3, 57851, Control_c, 1, 64, 127
3, 57859, Note_on_c, 1, 55, 0
3, 57860, Note_on_c, 1, 51, 0
3, 57870, Note_on_c, 1, 43, 0
3, 57870, Note_on_c, 1, 51, 52
3, 57870, Note_on_c, 1, 55, 62
3, 57881, Note_on_c, 1, 55, 0
3, 57881, Note_on_c, 1, 51, 0
3, 57900, Note_on_c, 1, 51, 68
3, 57900, Note_on_c, 1, 46, 85
3, 57900, Note_on_c, 1, 55, 76
3, 57911, Note_on_c, 1, 55, 0
3, 57912, Note_on_c, 1, 51, 0
3, 57930, Note_on_c, 1, 51, 62
3, 57930, Note_on_c, 1, 55, 68
3, 57939, Note_on_c, 1, 55, 0
3, 57941, Note_on_c, 1, 51, 0
3, 57942, Note_on_c, 1, 46, 0
3, 57960, Note_on_c, 1, 51, 68
3, 57960, Note_on_c, 1, 55, 76
3, 57960, Note_on_c, 1, 43, 89
3, 57963, Control_c, 1, 64, 0
3, 57973, Note_on_c, 1, 55, 0
3, 57976, Note_on_c, 1, 51, 0
3, 57977, Control_c, 1, 64, 127
3, 57990, Note_on_c, 1, 51, 53
3, 57990, Note_on_c, 1, 55, 76
3, 58000, Note_on_c, 1, 55, 0
3, 58001, Note_on_c, 1, 51, 0
3, 58003, Note_on_c, 1, 43, 0
3, 58020, Note_on_c, 1, 51, 68
3, 58020, Note_on_c, 1, 39, 72
3, 58020, Note_on_c, 1, 55, 76
3, 58029, Note_on_c, 1, 55, 0
3, 58032, Note_on_c, 1, 39, 0
3, 58032, Note_on_c, 1, 51, 0
3, 58050, Note_on_c, 1, 51, 62
3, 58050, Note_on_c, 1, 55, 85
3, 58057, Note_on_c, 1, 55, 0
3, 58060, Note_on_c, 1, 51, 0
3, 58080, Control_c, 1, 64, 0
3, 58080, Note_on_c, 1, 43, 85
3, 58110, Control_c, 1, 64, 127
3, 58110, Note_on_c, 1, 46, 53
3, 58110, Note_on_c, 1, 58, 72
3, 58121, Note_on_c, 1, 46, 0
3, 58122, Note_on_c, 1, 58, 0
3, 58140, Note_on_c, 1, 45, 72
3, 58140, Note_on_c, 1, 57, 89
3, 58149, Note_on_c, 1, 45, 0
3, 58151, Note_on_c, 1, 57, 0
3, 58170, Note_on_c, 1, 46, 89
3, 58170, Note_on_c, 1, 58, 89
3, 58177, Note_on_c, 1, 58, 0
3, 58178, Note_on_c, 1, 46, 0
3, 58189, Control_c, 1, 64, 0
3, 58200, Note_on_c, 1, 48, 85
3, 58200, Note_on_c, 1, 60, 93
3, 58206, Control_c, 1, 64, 127
3, 58209, Note_on_c, 1, 48, 0
3, 58210, Note_on_c, 1, 60, 0
3, 58230, Note_on_c, 1, 46, 85
3, 58230, Note_on_c, 1, 58, 80
3, 58240, Note_on_c, 1, 46, 0
3, 58241, Note_on_c, 1, 58, 0
3, 58260, Note_on_c, 1, 45, 76
3, 58260, Note_on_c, 1, 57, 85
3, 58269, Note_on_c, 1, 57, 0
3, 58269, Note_on_c, 1, 45, 0
3, 58290, Note_on_c, 1, 46, 76
3, 58290, Note_on_c, 1, 58, 89
3, 58299, Note_on_c, 1, 46, 0
3, 58300, Note_on_c, 1, 58, 0
3, 58314, Note_on_c, 1, 43, 0
3, 58315, Control_c, 1, 64, 0
3, 58320, Note_on_c, 1, 41, 80
3, 58320, Note_on_c, 1, 48, 80
3, 58320, Note_on_c, 1, 60, 89
3, 58333, Note_on_c, 1, 48, 0
3, 58333, Control_c, 1, 64, 127
3, 58337, Note_on_c, 1, 60, 0
3, 58350, Note_on_c, 1, 46, 76
3, 58350, Note_on_c, 1, 58, 85
3, 58362, Note_on_c, 1, 46, 0
3, 58363, Note_on_c, 1, 58, 0
3, 58380, Note_on_c, 1, 57, 89
3, 58380, Note_on_c, 1, 45, 68
3, 58389, Note_on_c, 1, 45, 0
3, 58391, Note_on_c, 1, 57, 0
3, 58410, Note_on_c, 1, 46, 80
3, 58410, Note_on_c, 1, 58, 80
3, 58418, Note_on_c, 1, 46, 0
3, 58421, Note_on_c, 1, 58, 0
3, 58439, Note_on_c, 1, 41, 0
3, 58440, Control_c, 1, 64, 0
3, 58440, Note_on_c, 1, 39, 68
3, 58459, Control_c, 1, 64, 127
3, 58470, Note_on_c, 1, 46, 85
3, 58470, Note_on_c, 1, 58, 85
3, 58480, Note_on_c, 1, 46, 0
3, 58481, Note_on_c, 1, 58, 0
3, 58500, Note_on_c, 1, 45, 76
3, 58500, Note_on_c, 1, 57, 89
3, 58509, Note_on_c, 1, 45, 0
3, 58510, Note_on_c, 1, 57, 0
3, 58530, Note_on_c, 1, 46, 72
3, 58530, Note_on_c, 1, 58, 89
3, 58537, Note_on_c, 1, 46, 0
3, 58538, Note_on_c, 1, 58, 0
3, 58554, Control_c, 1, 64, 0
3, 58560, Note_on_c, 1, 48, 85
3, 58560, Note_on_c, 1, 60, 89
3, 58570, Note_on_c, 1, 48, 0
3, 58570, Control_c, 1, 64, 127
3, 58573, Note_on_c, 1, 60, 0
3, 58590, Note_on_c, 1, 46, 85
3, 58590, Note_on_c, 1, 58, 72
3, 58599, Note_on_c, 1, 46, 0
3, 58602, Note_on_c, 1, 58, 0
3, 58620, Note_on_c, 1, 57, 89
3, 58620, Note_on_c, 1, 45, 62
3, 58628, Note_on_c, 1, 45, 0
3, 58631, Note_on_c, 1, 57, 0
3, 58650, Note_on_c, 1, 46, 89
3, 58650, Note_on_c, 1, 58, 89
3, 58657, Note_on_c, 1, 46, 0
3, 58659, Note_on_c, 1, 58, 0
3, 58675, Note_on_c, 1, 39, 0
3, 58678, Control_c, 1, 64, 0
3, 58680, Note_on_c, 1, 38, 76
3, 58680, Note_on_c, 1, 60, 89
3, 58680, Note_on_c, 1, 48, 89
3, 58690, Note_on_c, 1, 48, 0
3, 58692, Note_on_c, 1, 60, 0
3, 58695, Control_c, 1, 64, 127
3, 58710, Note_on_c, 1, 46, 72
3, 58710, Note_on_c, 1, 58, 85
3, 58721, Note_on_c, 1, 46, 0
3, 58722, Note_on_c, 1, 58, 0
3, 58740, Note_on_c, 1, 45, 59
3, 58740, Note_on_c, 1, 57, 72
3, 58750, Note_on_c, 1, 57, 0
3, 58750, Note_on_c, 1, 45, 0
3, 58770, Note_on_c, 1, 46, 85
3, 58770, Note_on_c, 1, 58, 89
3, 58779, Note_on_c, 1, 58, 0
3, 58779, Note_on_c, 1, 46, 0
3, 58800, Note_on_c, 1, 38, 0
3, 58800, Note_on_c, 1, 39, 89
3, 58803, Control_c, 1, 64, 0
3, 58827, Control_c, 1, 64, 127
3, 58830, Note_on_c, 1, 60, 62
3, 58830, Note_on_c, 1, 55, 59
3, 58842, Note_on_c, 1, 55, 0
3, 58845, Note_on_c, 1, 60, 0
3, 58860, Note_on_c, 1, 55, 72
3, 58860, Note_on_c, 1, 60, 85
3, 58875, Note_on_c, 1, 60, 0
3, 58876, Note_on_c, 1, 55, 0
3, 58890, Note_on_c, 1, 55, 72
3, 58890, Note_on_c, 1, 60, 85
3, 58901, Note_on_c, 1, 60, 0
3, 58902, Note_on_c, 1, 55, 0
3, 58920, Note_on_c, 1, 41, 93
3, 58922, Note_on_c, 1, 39, 0
3, 58929, Control_c, 1, 64, 0
3, 58950, Note_on_c, 1, 53, 76
3, 58950, Note_on_c, 1, 58, 72
3, 58953, Control_c, 1, 64, 127
3, 58964, Note_on_c, 1, 53, 0
3, 58965, Note_on_c, 1, 58, 0
3, 58980, Note_on_c, 1, 58, 72
3, 58980, Note_on_c, 1, 53, 72
3, 58993, Note_on_c, 1, 53, 0
3, 58994, Note_on_c, 1, 58, 0
3, 59010, Note_on_c, 1, 58, 76
3, 59010, Note_on_c, 1, 53, 62
3, 59020, Note_on_c, 1, 58, 0
3, 59024, Note_on_c, 1, 53, 0
3, 59025, Note_on_c, 1, 41, 0
3, 59040, Note_on_c, 1, 41, 85
3, 59049, Control_c, 1, 64, 0
3, 59068, Control_c, 1, 64, 127
3, 59070, Note_on_c, 1, 51, 64
3, 59070, Note_on_c, 1, 57, 85
3, 59082, Note_on_c, 1, 51, 0
3, 59084, Note_on_c, 1, 57, 0
3, 59100, Note_on_c, 1, 51, 68
3, 59100, Note_on_c, 1, 57, 89
3, 59110, Note_on_c, 1, 57, 0
3, 59112, Note_on_c, 1, 51, 0
3, 59130, Note_on_c, 1, 51, 60
3, 59130, Note_on_c, 1, 57, 89
3, 59140, Note_on_c, 1, 51, 0
3, 59142, Note_on_c, 1, 57, 0
3, 59151, Note_on_c, 1, 41, 0
3, 59160, Note_on_c, 1, 34, 76
3, 59160, Note_on_c, 1, 53, 89
3, 59160, Note_on_c, 1, 50, 89
3, 59171, Note_on_c, 1, 50, 0
3, 59174, Note_on_c, 1, 53, 0
3, 59174, Note_on_c, 1, 34, 0
3, 59176, Control_c, 1, 64, 127
3, 59190, Note_on_c, 1, 53, 93
3, 59190, Note_on_c, 1, 41, 76
3, 59208, Control_c, 1, 64, 0
3, 59218, Note_on_c, 1, 41, 0
3, 59219, Note_on_c, 1, 53, 0
3, 59220, Note_on_c, 1, 43, 80
3, 59220, Note_on_c, 1, 55, 89
3, 59250, Note_on_c, 1, 55, 0
3, 59250, Note_on_c, 1, 57, 93
3, 59250, Note_on_c, 1, 45, 72
3, 59253, Note_on_c, 1, 43, 0
3, 59275, Note_on_c, 1, 57, 0
3, 59278, Note_on_c, 1, 45, 0
3, 59280, Note_on_c, 1, 58, 85
3, 59280, Note_on_c, 1, 46, 89
3, 59296, Control_c, 1, 64, 127
3, 59306, Note_on_c, 1, 46, 0
3, 59307, Note_on_c, 1, 58, 0
3, 59310, Note_on_c, 1, 60, 85
3, 59310, Note_on_c, 1, 48, 68
3, 59327, Note_on_c, 1, 60, 0
3, 59336, Note_on_c, 1, 48, 0
3, 59340, Note_on_c, 1, 50, 76
3, 59340, Note_on_c, 1, 62, 76
3, 59346, Control_c, 1, 64, 0
3, 59361, Control_c, 1, 64, 127
3, 59369, Note_on_c, 1, 62, 0
3, 59370, Note_on_c, 1, 50, 0
3, 59370, Note_on_c, 1, 57, 93
3, 59370, Note_on_c, 1, 45, 89
3, 59375, Control_c, 1, 64, 0
3, 59387, Note_on_c, 1, 45, 0
3, 59388, Control_c, 1, 64, 127
3, 59392, Note_on_c, 1, 57, 0
3, 59400, Note_on_c, 1, 58, 85
3, 59400, Note_on_c, 1, 46, 62
3, 59407, Control_c, 1, 64, 0
3, 59419, Control_c, 1, 64, 127
3, 59426, Note_on_c, 1, 58, 0
3, 59427, Note_on_c, 1, 46, 0
3, 59430, Note_on_c, 1, 41, 80
3, 59430, Note_on_c, 1, 53, 76
3, 59438, Control_c, 1, 64, 0
3, 59451, Control_c, 1, 64, 127
3, 59460, Note_on_c, 1, 38, 89
3, 59460, Note_on_c, 1, 50, 93
3, 59461, Note_on_c, 1, 53, 0
3, 59464, Note_on_c, 1, 41, 0
3, 59469, Note_on_c, 1, 38, 0
3, 59473, Note_on_c, 1, 50, 0
3, 59490, Note_on_c, 1, 46, 80
3, 59490, Note_on_c, 1, 34, 64
3, 59491, Control_c, 1, 64, 0
3, 59501, Control_c, 1, 64, 127
3, 59502, Note_on_c, 1, 34, 0
3, 59506, Note_on_c, 1, 46, 0
3, 59520, Note_on_c, 1, 29, 85
3, 59520, Note_on_c, 1, 41, 80
3, 59530, Control_c, 1, 64, 0
3, 59547, Control_c, 1, 64, 127
3, 59560, Note_on_c, 1, 41, 0
3, 59561, Note_on_c, 1, 29, 0
3, 59629, Control_c, 1, 64, 0
3, 60240, Note_on_c, 1, 51, 68
3, 60248, Control_c, 1, 64, 127
3, 60300, Note_on_c, 1, 62, 68
3, 60300, Note_on_c, 1, 58, 51
3, 60307, Note_on_c, 1, 51, 0
3, 60312, Control_c, 1, 64, 0
3, 60330, Note_on_c, 1, 62, 0
3, 60330, Note_on_c, 1, 60, 72
3, 60332, Note_on_c, 1, 58, 0
3, 60355, Note_on_c, 1, 60, 0
3, 60360, Note_on_c, 1, 53, 76
3, 60420, Note_on_c, 1, 60, 72
3, 60420, Note_on_c, 1, 57, 72
3, 60427, Note_on_c, 1, 53, 0
3, 60428, Control_c, 1, 64, 127
3, 60446, Note_on_c, 1, 57, 0
3, 60448, Note_on_c, 1, 60, 0
3, 60450, Note_on_c, 1, 58, 68
3, 60461, Note_on_c, 1, 58, 0
3, 60480, Note_on_c, 1, 41, 89
3, 60485, Control_c, 1, 64, 0
3, 60540, Note_on_c, 1, 58, 60
3, 60540, Note_on_c, 1, 51, 62
3, 60549, Note_on_c, 1, 41, 0
3, 60550, Control_c, 1, 64, 127
3, 60569, Note_on_c, 1, 58, 0
3, 60570, Note_on_c, 1, 57, 72
3, 60578, Note_on_c, 1, 51, 0
3, 60581, Note_on_c, 1, 57, 0
3, 60597, Control_c, 1, 64, 0
3, 60600, Note_on_c, 1, 46, 76
3, 60600, Note_on_c, 1, 58, 64
3, 60600, Note_on_c, 1, 50, 80
3, 60619, Control_c, 1, 64, 127
3, 60634, Note_on_c, 1, 50, 0
3, 60634, Note_on_c, 1, 46, 0
3, 60637, Note_on_c, 1, 58, 0
3, 60718, Control_c, 1, 64, 0
3, 60960, Note_on_c, 1, 29, 68
3, 60960, Note_on_c, 1, 33, 72
3, 60967, Control_c, 1, 64, 127
3, 60990, Note_on_c, 1, 33, 0
3, 60990, Note_on_c, 1, 41, 72
3, 60995, Note_on_c, 1, 29, 0
3, 61020, Note_on_c, 1, 41, 0
3, 61020, Note_on_c, 1, 33, 64
3, 61020, Note_on_c, 1, 53, 89
3, 61028, Control_c, 1, 64, 0
3, 61044, Control_c, 1, 64, 127
3, 61050, Note_on_c, 1, 41, 72
3, 61051, Note_on_c, 1, 33, 0
3, 61059, Note_on_c, 1, 53, 0
3, 61073, Note_on_c, 1, 41, 0
3, 61080, Note_on_c, 1, 48, 93
3, 61080, Note_on_c, 1, 33, 68
3, 61086, Control_c, 1, 64, 0
3, 61101, Control_c, 1, 64, 127
3, 61108, Note_on_c, 1, 33, 0
3, 61110, Note_on_c, 1, 41, 72
3, 61120, Note_on_c, 1, 48, 0
3, 61130, Note_on_c, 1, 41, 0
3, 61140, Note_on_c, 1, 33, 72
3, 61140, Note_on_c, 1, 51, 89
3, 61141, Control_c, 1, 64, 0
3, 61156, Control_c, 1, 64, 127
3, 61165, Note_on_c, 1, 33, 0
3, 61170, Note_on_c, 1, 41, 62
3, 61175, Note_on_c, 1, 51, 0
3, 61193, Note_on_c, 1, 41, 0
3, 61198, Control_c, 1, 64, 0
3, 61200, Note_on_c, 1, 34, 52
3, 61200, Note_on_c, 1, 50, 85
3, 61213, Control_c, 1, 64, 127
3, 61222, Note_on_c, 1, 50, 0
3, 61228, Note_on_c, 1, 34, 0
3, 61230, Note_on_c, 1, 41, 56
3, 61230, Note_on_c, 1, 46, 76
3, 61245, Note_on_c, 1, 46, 0
3, 61250, Note_on_c, 1, 41, 0
3, 61260, Note_on_c, 1, 53, 80
3, 61260, Note_on_c, 1, 38, 72
3, 61261, Control_c, 1, 64, 0
3, 61273, Note_on_c, 1, 53, 0
3, 61276, Control_c, 1, 64, 127
3, 61277, Note_on_c, 1, 38, 0
3, 61290, Note_on_c, 1, 34, 64
3, 61290, Note_on_c, 1, 53, 89
3, 61303, Note_on_c, 1, 53, 0
3, 61304, Note_on_c, 1, 34, 0
3, 61318, Control_c, 1, 64, 0
3, 61320, Note_on_c, 1, 33, 85
3, 61337, Control_c, 1, 64, 127
3, 61350, Note_on_c, 1, 41, 76
3, 61351, Note_on_c, 1, 33, 0
3, 61376, Note_on_c, 1, 41, 0
3, 61379, Control_c, 1, 64, 0
3, 61380, Note_on_c, 1, 33, 76
3, 61380, Note_on_c, 1, 53, 85
3, 61394, Control_c, 1, 64, 127
3, 61410, Note_on_c, 1, 41, 72
3, 61412, Note_on_c, 1, 33, 0
3, 61415, Note_on_c, 1, 53, 0
3, 61427, Note_on_c, 1, 41, 0
3, 61434, Control_c, 1, 64, 0
3, 61440, Note_on_c, 1, 48, 89
3, 61440, Note_on_c, 1, 33, 76
3, 61448, Control_c, 1, 64, 127
3, 61469, Note_on_c, 1, 33, 0
3, 61470, Note_on_c, 1, 41, 72
3, 61479, Note_on_c, 1, 48, 0
3, 61493, Control_c, 1, 64, 0
3, 61495, Note_on_c, 1, 41, 0
3, 61500, Note_on_c, 1, 51, 85
3, 61500, Note_on_c, 1, 33, 76
3, 61507, Control_c, 1, 64, 127
3, 61530, Note_on_c, 1, 33, 0
3, 61530, Note_on_c, 1, 41, 68
3, 61533, Note_on_c, 1, 51, 0
3, 61549, Control_c, 1, 64, 0
3, 61555, Note_on_c, 1, 41, 0
3, 61560, Note_on_c, 1, 34, 59
3, 61560, Note_on_c, 1, 50, 89
3, 61564, Control_c, 1, 64, 127
3, 61583, Note_on_c, 1, 50, 0
3, 61590, Note_on_c, 1, 41, 55
3, 61590, Note_on_c, 1, 46, 76
3, 61592, Note_on_c, 1, 34, 0
3, 61604, Note_on_c, 1, 46, 0
3, 61606, Control_c, 1, 64, 0
3, 61610, Note_on_c, 1, 41, 0
3, 61619, Control_c, 1, 64, 127
3, 61620, Note_on_c, 1, 38, 89
3, 61620, Note_on_c, 1, 53, 89
3, 61632, Note_on_c, 1, 53, 0
3, 61635, Note_on_c, 1, 38, 0
3, 61650, Note_on_c, 1, 53, 89
3, 61650, Note_on_c, 1, 34, 85
3, 61662, Note_on_c, 1, 34, 0
3, 61662, Note_on_c, 1, 53, 0
3, 61668, Control_c, 1, 64, 0
3, 61740, Note_on_c, 1, 38, 93
3, 61740, Note_on_c, 1, 50, 89
3, 61767, Note_on_c, 1, 50, 0
3, 61770, Note_on_c, 1, 51, 76
3, 61770, Note_on_c, 1, 39, 72
3, 61771, Note_on_c, 1, 38, 0
3, 61785, Note_on_c, 1, 51, 0
3, 61788, Note_on_c, 1, 39, 0
3, 61860, Note_on_c, 1, 40, 80
3, 61860, Note_on_c, 1, 52, 89
3, 61887, Note_on_c, 1, 52, 0
3, 61890, Note_on_c, 1, 53, 80
3, 61890, Note_on_c, 1, 41, 85
3, 61893, Note_on_c, 1, 40, 0
3, 61901, Note_on_c, 1, 41, 0
3, 61902, Note_on_c, 1, 53, 0
3, 61980, Note_on_c, 1, 30, 53
3, 61980, Note_on_c, 1, 42, 85
3, 62007, Note_on_c, 1, 30, 0
3, 62008, Note_on_c, 1, 42, 0
3, 62010, Note_on_c, 1, 41, 80
3, 62010, Note_on_c, 1, 29, 85
3, 62022, Note_on_c, 1, 29, 0
3, 62024, Note_on_c, 1, 41, 0
3, 62040, Note_on_c, 1, 34, 85
3, 62040, Note_on_c, 1, 46, 76
3, 62048, Control_c, 1, 64, 127
3, 62077, Note_on_c, 1, 34, 0
3, 62079, Note_on_c, 1, 46, 0
3, 62100, Note_on_c, 1, 65, 93
3, 62111, Control_c, 1, 64, 0
3, 62159, Note_on_c, 1, 65, 0
3, 62160, Note_on_c, 1, 64, 76
3, 62218, Note_on_c, 1, 64, 0
3, 62220, Note_on_c, 1, 63, 76
3, 62229, Control_c, 1, 64, 127
3, 62280, Note_on_c, 1, 48, 80
3, 62280, Note_on_c, 1, 45, 80
3, 62280, Note_on_c, 1, 41, 60
3, 62282, Control_c, 1, 64, 0
3, 62283, Note_on_c, 1, 63, 0
3, 62300, Control_c, 1, 64, 127
3, 62340, Note_on_c, 1, 62, 76
3, 62340, Note_on_c, 1, 51, 80
3, 62341, Control_c, 1, 64, 0
3, 62344, Note_on_c, 1, 45, 0
3, 62347, Note_on_c, 1, 48, 0
3, 62355, Note_on_c, 1, 60, 72
3, 62357, Note_on_c, 1, 62, 0
3, 62357, Control_c, 1, 64, 127
3, 62360, Note_on_c, 1, 41, 0
3, 62368, Note_on_c, 1, 51, 0
3, 62370, Note_on_c, 1, 58, 55
3, 62374, Note_on_c, 1, 60, 0
3, 62385, Note_on_c, 1, 57, 72
3, 62387, Note_on_c, 1, 58, 0
3, 62395, Note_on_c, 1, 57, 0
3, 62396, Control_c, 1, 64, 0
3, 62400, Note_on_c, 1, 46, 68
3, 62400, Note_on_c, 1, 50, 57
3, 62400, Note_on_c, 1, 58, 62
3, 62414, Control_c, 1, 64, 127
3, 62433, Note_on_c, 1, 58, 0
3, 62435, Note_on_c, 1, 50, 0
3, 62437, Note_on_c, 1, 46, 0
3, 62460, Note_on_c, 1, 65, 68
3, 62465, Control_c, 1, 64, 0
3, 62487, Control_c, 1, 64, 127
3, 62514, Note_on_c, 1, 65, 0
3, 62520, Note_on_c, 1, 64, 60
3, 62521, Control_c, 1, 64, 0
3, 62540, Control_c, 1, 64, 127
3, 62577, Control_c, 1, 64, 0
3, 62578, Note_on_c, 1, 64, 0
3, 62580, Note_on_c, 1, 63, 64
3, 62591, Control_c, 1, 64, 127
3, 62636, Control_c, 1, 64, 0
3, 62639, Note_on_c, 1, 63, 0
3, 62640, Note_on_c, 1, 45, 89
3, 62640, Note_on_c, 1, 41, 62
3, 62640, Note_on_c, 1, 48, 85
3, 62652, Control_c, 1, 64, 127
3, 62699, Control_c, 1, 64, 0
3, 62700, Note_on_c, 1, 62, 72
3, 62700, Note_on_c, 1, 51, 68
3, 62701, Note_on_c, 1, 45, 0
3, 62702, Note_on_c, 1, 48, 0
3, 62714, Control_c, 1, 64, 127
3, 62715, Note_on_c, 1, 60, 68
3, 62717, Note_on_c, 1, 62, 0
3, 62730, Note_on_c, 1, 58, 60
3, 62733, Note_on_c, 1, 60, 0
3, 62741, Note_on_c, 1, 41, 0
3, 62742, Note_on_c, 1, 51, 0
3, 62745, Note_on_c, 1, 58, 0
3, 62745, Note_on_c, 1, 57, 38
3, 62750, Control_c, 1, 64, 0
3, 62752, Note_on_c, 1, 57, 0
3, 62760, Note_on_c, 1, 50, 72
3, 62760, Note_on_c, 1, 58, 76
3, 62760, Note_on_c, 1, 46, 68
3, 62767, Control_c, 1, 64, 127
3, 62804, Note_on_c, 1, 50, 0
3, 62805, Note_on_c, 1, 46, 0
3, 62805, Note_on_c, 1, 58, 0
3, 62877, Control_c, 1, 64, 0
3, 63120, Note_on_c, 1, 40, 68
3, 63120, Note_on_c, 1, 55, 76
3, 63120, Note_on_c, 1, 52, 64
3, 63130, Control_c, 1, 64, 127
3, 63133, Note_on_c, 1, 52, 0
3, 63137, Note_on_c, 1, 55, 0
3, 63150, Note_on_c, 1, 58, 62
3, 63150, Note_on_c, 1, 55, 62
3, 63160, Note_on_c, 1, 55, 0
3, 63163, Note_on_c, 1, 58, 0
3, 63179, Control_c, 1, 64, 0
3, 63180, Note_on_c, 1, 55, 76
3, 63180, Note_on_c, 1, 58, 62
3, 63193, Note_on_c, 1, 55, 0
3, 63194, Note_on_c, 1, 58, 0
3, 63194, Control_c, 1, 64, 127
3, 63210, Note_on_c, 1, 55, 76
3, 63210, Note_on_c, 1, 58, 62
3, 63215, Note_on_c, 1, 40, 0
3, 63222, Note_on_c, 1, 58, 0
3, 63222, Note_on_c, 1, 55, 0
3, 63240, Note_on_c, 1, 55, 62
3, 63240, Note_on_c, 1, 52, 62
3, 63240, Note_on_c, 1, 40, 72
3, 63246, Control_c, 1, 64, 0
3, 63257, Note_on_c, 1, 52, 0
3, 63259, Note_on_c, 1, 55, 0
3, 63261, Control_c, 1, 64, 127
3, 63270, Note_on_c, 1, 55, 62
3, 63270, Note_on_c, 1, 58, 59
3, 63280, Note_on_c, 1, 55, 0
3, 63284, Note_on_c, 1, 58, 0
3, 63300, Note_on_c, 1, 55, 76
3, 63300, Note_on_c, 1, 58, 53
3, 63311, Note_on_c, 1, 58, 0
3, 63312, Note_on_c, 1, 55, 0
3, 63330, Note_on_c, 1, 55, 68
3, 63330, Note_on_c, 1, 58, 53
3, 63333, Note_on_c, 1, 40, 0
3, 63341, Note_on_c, 1, 58, 0
3, 63342, Note_on_c, 1, 55, 0
3, 63360, Note_on_c, 1, 52, 68
3, 63360, Note_on_c, 1, 55, 68
3, 63360, Note_on_c, 1, 40, 68
3, 63361, Control_c, 1, 64, 0
3, 63372, Note_on_c, 1, 52, 0
3, 63376, Control_c, 1, 64, 127
3, 63377, Note_on_c, 1, 55, 0
3, 63390, Note_on_c, 1, 58, 62
3, 63390, Note_on_c, 1, 55, 68
3, 63402, Note_on_c, 1, 55, 0
3, 63403, Note_on_c, 1, 58, 0
3, 63420, Note_on_c, 1, 55, 64
3, 63420, Note_on_c, 1, 52, 59
3, 63430, Note_on_c, 1, 52, 0
3, 63433, Note_on_c, 1, 55, 0
3, 63450, Note_on_c, 1, 58, 64
3, 63450, Note_on_c, 1, 55, 68
3, 63460, Note_on_c, 1, 40, 0
3, 63461, Note_on_c, 1, 55, 0
3, 63462, Note_on_c, 1, 58, 0
3, 63480, Control_c, 1, 64, 0
3, 63480, Note_on_c, 1, 41, 72
3, 63480, Note_on_c, 1, 56, 64
3, 63480, Note_on_c, 1, 53, 57
3, 63495, Note_on_c, 1, 53, 0
3, 63496, Note_on_c, 1, 56, 0
3, 63496, Control_c, 1, 64, 127
3, 63510, Note_on_c, 1, 56, 62
3, 63510, Note_on_c, 1, 60, 72
3, 63522, Note_on_c, 1, 56, 0
3, 63523, Note_on_c, 1, 60, 0
3, 63540, Note_on_c, 1, 56, 56
3, 63540, Note_on_c, 1, 60, 76
3, 63552, Note_on_c, 1, 60, 0
3, 63552, Note_on_c, 1, 56, 0
3, 63570, Note_on_c, 1, 56, 55
3, 63570, Note_on_c, 1, 60, 60
3, 63572, Note_on_c, 1, 41, 0
3, 63579, Note_on_c, 1, 60, 0
3, 63582, Note_on_c, 1, 56, 0
3, 63600, Note_on_c, 1, 56, 59
3, 63600, Note_on_c, 1, 41, 68
3, 63600, Note_on_c, 1, 53, 72
3, 63601, Control_c, 1, 64, 0
3, 63615, Note_on_c, 1, 56, 0
3, 63615, Control_c, 1, 64, 127
3, 63616, Note_on_c, 1, 53, 0
3, 63630, Note_on_c, 1, 56, 55
3, 63630, Note_on_c, 1, 60, 62
3, 63641, Note_on_c, 1, 60, 0
3, 63643, Note_on_c, 1, 56, 0
3, 63660, Note_on_c, 1, 56, 57
3, 63660, Note_on_c, 1, 60, 72
3, 63671, Note_on_c, 1, 60, 0
3, 63672, Note_on_c, 1, 56, 0
3, 63690, Note_on_c, 1, 56, 59
3, 63690, Note_on_c, 1, 60, 64
3, 63695, Note_on_c, 1, 41, 0
3, 63697, Note_on_c, 1, 60, 0
3, 63703, Note_on_c, 1, 56, 0
3, 63720, Note_on_c, 1, 56, 60
3, 63720, Note_on_c, 1, 41, 76
3, 63720, Note_on_c, 1, 53, 64
3, 63723, Control_c, 1, 64, 0
3, 63737, Note_on_c, 1, 53, 0
3, 63738, Note_on_c, 1, 56, 0
3, 63738, Control_c, 1, 64, 127
3, 63750, Note_on_c, 1, 60, 64
3, 63750, Note_on_c, 1, 56, 55
3, 63760, Note_on_c, 1, 56, 0
3, 63762, Note_on_c, 1, 60, 0
3, 63780, Note_on_c, 1, 56, 72
3, 63780, Note_on_c, 1, 53, 53
3, 63792, Note_on_c, 1, 53, 0
3, 63792, Note_on_c, 1, 56, 0
3, 63810, Note_on_c, 1, 60, 72
3, 63810, Note_on_c, 1, 56, 62
3, 63810, Note_on_c, 1, 53, 47
3, 63815, Note_on_c, 1, 53, 0
3, 63817, Note_on_c, 1, 41, 0
3, 63820, Note_on_c, 1, 60, 0
3, 63821, Note_on_c, 1, 56, 0
3, 63840, Note_on_c, 1, 38, 80
3, 63840, Note_on_c, 1, 53, 56
3, 63840, Note_on_c, 1, 50, 56
3, 63844, Control_c, 1, 64, 0
3, 63858, Note_on_c, 1, 50, 0
3, 63860, Note_on_c, 1, 53, 0
3, 63863, Control_c, 1, 64, 127
3, 63870, Note_on_c, 1, 53, 72
3, 63870, Note_on_c, 1, 56, 56
3, 63882, Note_on_c, 1, 53, 0
3, 63884, Note_on_c, 1, 56, 0
3, 63900, Note_on_c, 1, 56, 60
3, 63900, Note_on_c, 1, 53, 76
3, 63912, Note_on_c, 1, 53, 0
3, 63914, Note_on_c, 1, 56, 0
3, 63930, Note_on_c, 1, 53, 72
3, 63930, Note_on_c, 1, 56, 47
3, 63936, Note_on_c, 1, 38, 0
3, 63942, Note_on_c, 1, 56, 0
3, 63942, Note_on_c, 1, 53, 0
3, 63960, Note_on_c, 1, 38, 76
3, 63960, Note_on_c, 1, 53, 64
3, 63960, Note_on_c, 1, 50, 64
3, 63963, Control_c, 1, 64, 0
3, 63978, Note_on_c, 1, 50, 0
3, 63978, Control_c, 1, 64, 127
3, 63981, Note_on_c, 1, 53, 0
3, 63990, Note_on_c, 1, 56, 60
3, 63990, Note_on_c, 1, 53, 64
3, 64001, Note_on_c, 1, 53, 0
3, 64004, Note_on_c, 1, 56, 0
3, 64020, Note_on_c, 1, 56, 53
3, 64020, Note_on_c, 1, 53, 72
3, 64032, Note_on_c, 1, 53, 0
3, 64033, Note_on_c, 1, 56, 0
3, 64050, Note_on_c, 1, 53, 68
3, 64050, Note_on_c, 1, 56, 51
3, 64057, Note_on_c, 1, 38, 0
3, 64063, Note_on_c, 1, 56, 0
3, 64063, Note_on_c, 1, 53, 0
3, 64080, Note_on_c, 1, 38, 72
3, 64080, Note_on_c, 1, 53, 72
3, 64080, Note_on_c, 1, 50, 60
3, 64081, Control_c, 1, 64, 0
3, 64094, Note_on_c, 1, 50, 0
3, 64096, Control_c, 1, 64, 127
3, 64099, Note_on_c, 1, 53, 0
3, 64110, Note_on_c, 1, 56, 72
3, 64110, Note_on_c, 1, 53, 64
3, 64120, Note_on_c, 1, 53, 0
3, 64124, Note_on_c, 1, 56, 0
3, 64127, Note_on_c, 1, 38, 0
3, 64140, Note_on_c, 1, 53, 72
3, 64140, Note_on_c, 1, 50, 64
3, 64140, Note_on_c, 1, 38, 76
3, 64153, Note_on_c, 1, 50, 0
3, 64155, Note_on_c, 1, 53, 0
3, 64165, Note_on_c, 1, 38, 0
3, 64170, Note_on_c, 1, 56, 62
3, 64170, Note_on_c, 1, 53, 60
3, 64184, Note_on_c, 1, 53, 0
3, 64184, Note_on_c, 1, 56, 0
3, 64198, Control_c, 1, 64, 0
3, 64200, Note_on_c, 1, 39, 64
3, 64200, Note_on_c, 1, 55, 80
3, 64200, Note_on_c, 1, 51, 64
3, 64214, Note_on_c, 1, 51, 0
3, 64215, Control_c, 1, 64, 127
3, 64221, Note_on_c, 1, 55, 0
3, 64230, Note_on_c, 1, 58, 57
3, 64230, Note_on_c, 1, 55, 60
3, 64242, Note_on_c, 1, 55, 0
3, 64245, Note_on_c, 1, 58, 0
3, 64260, Note_on_c, 1, 55, 76
3, 64260, Note_on_c, 1, 58, 62
3, 64271, Note_on_c, 1, 55, 0
3, 64273, Note_on_c, 1, 58, 0
3, 64290, Note_on_c, 1, 55, 76
3, 64290, Note_on_c, 1, 58, 60
3, 64295, Note_on_c, 1, 39, 0
3, 64300, Note_on_c, 1, 58, 0
3, 64300, Note_on_c, 1, 55, 0
3, 64320, Note_on_c, 1, 55, 89
3, 64320, Note_on_c, 1, 51, 60
3, 64320, Note_on_c, 1, 39, 64
3, 64321, Control_c, 1, 64, 0
3, 64337, Note_on_c, 1, 51, 0
3, 64337, Note_on_c, 1, 55, 0
3, 64337, Control_c, 1, 64, 127
3, 64350, Note_on_c, 1, 58, 72
3, 64350, Note_on_c, 1, 55, 76
3, 64360, Note_on_c, 1, 55, 0
3, 64363, Note_on_c, 1, 58, 0
3, 64380, Note_on_c, 1, 55, 72
3, 64380, Note_on_c, 1, 58, 62
3, 64390, Note_on_c, 1, 55, 0
3, 64391, Note_on_c, 1, 58, 0
3, 64410, Note_on_c, 1, 58, 57
3, 64410, Note_on_c, 1, 55, 68
3, 64414, Note_on_c, 1, 39, 0
3, 64419, Note_on_c, 1, 58, 0
3, 64420, Note_on_c, 1, 55, 0
3, 64440, Note_on_c, 1, 39, 62
3, 64440, Note_on_c, 1, 55, 80
3, 64440, Note_on_c, 1, 51, 59
3, 64441, Control_c, 1, 64, 0
3, 64454, Note_on_c, 1, 51, 0
3, 64454, Note_on_c, 1, 55, 0
3, 64456, Control_c, 1, 64, 127
3, 64470, Note_on_c, 1, 58, 60
3, 64470, Note_on_c, 1, 55, 76
3, 64481, Note_on_c, 1, 55, 0
3, 64483, Note_on_c, 1, 58, 0
3, 64493, Note_on_c, 1, 39, 0
3, 64500, Note_on_c, 1, 55, 89
3, 64500, Note_on_c, 1, 51, 60
3, 64500, Note_on_c, 1, 39, 62
3, 64513, Note_on_c, 1, 51, 0
3, 64513, Note_on_c, 1, 55, 0
3, 64528, Note_on_c, 1, 39, 0
3, 64530, Note_on_c, 1, 58, 80
3, 64540, Note_on_c, 1, 58, 0
3, 64560, Note_on_c, 1, 33, 80
3, 64560, Note_on_c, 1, 48, 72
3, 64560, Note_on_c, 1, 45, 76
3, 64574, Note_on_c, 1, 45, 0
3, 64574, Control_c, 1, 64, 127
3, 64575, Note_on_c, 1, 48, 0
3, 64583, Note_on_c, 1, 33, 0
3, 64590, Note_on_c, 1, 51, 76
3, 64590, Note_on_c, 1, 48, 64
3, 64599, Note_on_c, 1, 48, 0
3, 64603, Note_on_c, 1, 51, 0
3, 64620, Note_on_c, 1, 48, 72
3, 64620, Note_on_c, 1, 45, 68
3, 64620, Note_on_c, 1, 33, 76
3, 64631, Note_on_c, 1, 45, 0
3, 64633, Note_on_c, 1, 48, 0
3, 64634, Note_on_c, 1, 33, 0
3, 64650, Note_on_c, 1, 51, 85
3, 64650, Note_on_c, 1, 48, 68
3, 64656, Note_on_c, 1, 48, 0
3, 64661, Note_on_c, 1, 51, 0
3, 64680, Note_on_c, 1, 48, 80
3, 64680, Note_on_c, 1, 33, 72
3, 64680, Note_on_c, 1, 45, 56
3, 64691, Note_on_c, 1, 45, 0
3, 64694, Note_on_c, 1, 48, 0
3, 64700, Note_on_c, 1, 33, 0
3, 64710, Note_on_c, 1, 51, 60
3, 64710, Note_on_c, 1, 48, 68
3, 64720, Note_on_c, 1, 48, 0
3, 64722, Note_on_c, 1, 51, 0
3, 64740, Note_on_c, 1, 48, 76
3, 64740, Note_on_c, 1, 45, 59
3, 64740, Note_on_c, 1, 33, 72
3, 64750, Note_on_c, 1, 45, 0
3, 64754, Note_on_c, 1, 48, 0
3, 64755, Note_on_c, 1, 33, 0
3, 64770, Note_on_c, 1, 51, 72
3, 64770, Note_on_c, 1, 48, 64
3, 64779, Note_on_c, 1, 48, 0
3, 64782, Note_on_c, 1, 51, 0
3, 64792, Control_c, 1, 64, 0
3, 64800, Note_on_c, 1, 48, 72
3, 64800, Note_on_c, 1, 33, 80
3, 64800, Note_on_c, 1, 45, 57
3, 64807, Control_c, 1, 64, 127
3, 64813, Note_on_c, 1, 45, 0
3, 64817, Note_on_c, 1, 48, 0
3, 64823, Note_on_c, 1, 33, 0
3, 64830, Note_on_c, 1, 51, 62
3, 64830, Note_on_c, 1, 48, 62
3, 64841, Note_on_c, 1, 48, 0
3, 64842, Note_on_c, 1, 51, 0
3, 64860, Note_on_c, 1, 48, 76
3, 64860, Note_on_c, 1, 51, 68
3, 64860, Note_on_c, 1, 33, 85
3, 64870, Note_on_c, 1, 48, 0
3, 64872, Note_on_c, 1, 51, 0
3, 64877, Note_on_c, 1, 33, 0
3, 64890, Note_on_c, 1, 51, 72
3, 64890, Note_on_c, 1, 54, 72
3, 64899, Note_on_c, 1, 54, 0
3, 64901, Note_on_c, 1, 51, 0
3, 64920, Note_on_c, 1, 46, 76
3, 64920, Note_on_c, 1, 54, 72
3, 64920, Note_on_c, 1, 51, 76
3, 64920, Note_on_c, 1, 34, 72
3, 64932, Control_c, 1, 64, 127
3, 65005, Note_on_c, 1, 46, 0
3, 65008, Note_on_c, 1, 51, 0
3, 65009, Note_on_c, 1, 34, 0
3, 65010, Note_on_c, 1, 54, 0
3, 65040, Note_on_c, 1, 46, 57
3, 65040, Note_on_c, 1, 34, 62
3, 65040, Note_on_c, 1, 53, 72
3, 65040, Note_on_c, 1, 50, 76
3, 65042, Control_c, 1, 64, 0
3, 65057, Control_c, 1, 64, 127
3, 65104, Note_on_c, 1, 50, 0
3, 65105, Note_on_c, 1, 46, 0
3, 65106, Note_on_c, 1, 53, 0
3, 65110, Note_on_c, 1, 34, 0
3, 65160, Control_c, 1, 64, 0
3, 65278, Control_c, 1, 64, 127
3, 65280, Note_on_c, 1, 58, 89
3, 65280, Note_on_c, 1, 50, 102
3, 65280, Note_on_c, 1, 46, 89
3, 65280, Note_on_c, 1, 34, 89
3, 65280, Note_on_c, 1, 53, 98
3, 65329, Note_on_c, 1, 50, 0
3, 65330, Note_on_c, 1, 53, 0
3, 65331, Note_on_c, 1, 58, 0
3, 65332, Note_on_c, 1, 34, 0
3, 65333, Note_on_c, 1, 46, 0
3, 65335, Control_c, 1, 64, 0
3, 65400, Note_on_c, 1, 60, 93
3, 65400, Control_c, 1, 64, 127
3, 65400, Note_on_c, 1, 33, 85
3, 65400, Note_on_c, 1, 51, 85
3, 65400, Note_on_c, 1, 53, 98
3, 65400, Note_on_c, 1, 45, 85
3, 65416, Note_on_c, 1, 51, 0
3, 65425, Note_on_c, 1, 53, 0
3, 65426, Note_on_c, 1, 45, 0
3, 65426, Note_on_c, 1, 60, 0
3, 65427, Note_on_c, 1, 33, 0
3, 65464, Control_c, 1, 64, 0
3, 65520, Note_on_c, 1, 32, 93
3, 65520, Note_on_c, 1, 44, 89
3, 65520, Note_on_c, 1, 53, 98
3, 65520, Note_on_c, 1, 62, 102
3, 65520, Note_on_c, 1, 58, 85
3, 65529, Control_c, 1, 64, 127
3, 65572, Note_on_c, 1, 58, 0
3, 65573, Note_on_c, 1, 53, 0
3, 65574, Note_on_c, 1, 62, 0
3, 65577, Note_on_c, 1, 44, 0
3, 65578, Note_on_c, 1, 32, 0
3, 65587, Control_c, 1, 64, 0
3, 65640, Note_on_c, 1, 55, 107
3, 65640, Note_on_c, 1, 63, 89
3, 65640, Note_on_c, 1, 58, 93
3, 65640, Note_on_c, 1, 31, 93
3, 65640, Note_on_c, 1, 43, 80
3, 65640, Control_c, 1, 64, 127
3, 65689, Note_on_c, 1, 58, 0
3, 65689, Note_on_c, 1, 63, 0
3, 65691, Note_on_c, 1, 43, 0
3, 65692, Note_on_c, 1, 31, 0
3, 65692, Note_on_c, 1, 55, 0
3, 65703, Control_c, 1, 64, 0
3, 65760, Note_on_c, 1, 29, 93
3, 65760, Note_on_c, 1, 41, 76
3, 65760, Note_on_c, 1, 53, 76
3, 65760, Note_on_c, 1, 56, 93
3, 65760, Note_on_c, 1, 58, 85
3, 65760, Note_on_c, 1, 50, 93
3, 65761, Control_c, 1, 64, 127
3, 65787, Note_on_c, 1, 50, 0
3, 65788, Note_on_c, 1, 41, 0
3, 65789, Note_on_c, 1, 29, 0
3, 65789, Note_on_c, 1, 58, 0
3, 65790, Note_on_c, 1, 53, 0
3, 65790, Note_on_c, 1, 56, 0
3, 65835, Control_c, 1, 64, 0
3, 66000, Note_on_c, 1, 39, 60
3, 66015, Control_c, 1, 64, 127
3, 66030, Note_on_c, 1, 51, 51
3, 66049, Note_on_c, 1, 51, 0
3, 66060, Note_on_c, 1, 55, 59
3, 66083, Note_on_c, 1, 55, 0
3, 66090, Note_on_c, 1, 58, 55
3, 66113, Note_on_c, 1, 58, 0
3, 66117, Note_on_c, 1, 39, 0
3, 66120, Note_on_c, 1, 55, 62
3, 66126, Control_c, 1, 64, 0
3, 66142, Control_c, 1, 64, 127
3, 66150, Note_on_c, 1, 55, 0
3, 66150, Note_on_c, 1, 51, 56
3, 66180, Note_on_c, 1, 55, 62
3, 66181, Note_on_c, 1, 51, 0
3, 66204, Note_on_c, 1, 55, 0
3, 66210, Note_on_c, 1, 58, 52
3, 66233, Note_on_c, 1, 58, 0
3, 66240, Note_on_c, 1, 39, 72
3, 66240, Note_on_c, 1, 55, 76
3, 66242, Control_c, 1, 64, 0
3, 66258, Control_c, 1, 64, 127
3, 66269, Note_on_c, 1, 55, 0
3, 66270, Note_on_c, 1, 51, 59
3, 66295, Note_on_c, 1, 51, 0
3, 66300, Note_on_c, 1, 55, 80
3, 66325, Note_on_c, 1, 55, 0
3, 66330, Note_on_c, 1, 58, 59
3, 66336, Note_on_c, 1, 39, 0
3, 66343, Note_on_c, 1, 58, 0
3, 66360, Note_on_c, 1, 41, 72
3, 66362, Control_c, 1, 64, 0
3, 66382, Control_c, 1, 64, 127
3, 66390, Note_on_c, 1, 53, 62
3, 66416, Note_on_c, 1, 53, 0
3, 66420, Note_on_c, 1, 56, 64
3, 66447, Note_on_c, 1, 41, 0
3, 66450, Note_on_c, 1, 56, 0
3, 66450, Note_on_c, 1, 58, 62
3, 66479, Note_on_c, 1, 58, 0
3, 66480, Note_on_c, 1, 56, 72
3, 66480, Note_on_c, 1, 34, 59
3, 66484, Control_c, 1, 64, 0
3, 66503, Control_c, 1, 64, 127
3, 66510, Note_on_c, 1, 53, 57
3, 66511, Note_on_c, 1, 56, 0
3, 66538, Note_on_c, 1, 53, 0
3, 66540, Note_on_c, 1, 56, 59
3, 66570, Note_on_c, 1, 58, 62
3, 66572, Note_on_c, 1, 56, 0
3, 66584, Note_on_c, 1, 58, 0
3, 66586, Note_on_c, 1, 34, 0
3, 66600, Note_on_c, 1, 39, 62
3, 66600, Note_on_c, 1, 55, 80
3, 66604, Control_c, 1, 64, 0
3, 66622, Control_c, 1, 64, 127
3, 66630, Note_on_c, 1, 55, 0
3, 66630, Note_on_c, 1, 51, 62
3, 66657, Note_on_c, 1, 51, 0
3, 66660, Note_on_c, 1, 55, 62
3, 66676, Note_on_c, 1, 39, 0
3, 66688, Note_on_c, 1, 55, 0
3, 66690, Note_on_c, 1, 58, 59
3, 66704, Note_on_c, 1, 58, 0
3, 66720, Note_on_c, 1, 32, 72
3, 66726, Control_c, 1, 64, 0
3, 66744, Control_c, 1, 64, 127
3, 66750, Note_on_c, 1, 51, 64
3, 66769, Note_on_c, 1, 51, 0
3, 66780, Note_on_c, 1, 56, 72
3, 66802, Note_on_c, 1, 56, 0
3, 66810, Note_on_c, 1, 32, 0
3, 66810, Note_on_c, 1, 60, 72
3, 66832, Note_on_c, 1, 60, 0
3, 66840, Note_on_c, 1, 56, 72
3, 66840, Note_on_c, 1, 44, 62
3, 66844, Control_c, 1, 64, 0
3, 66861, Control_c, 1, 64, 127
3, 66870, Note_on_c, 1, 56, 0
3, 66870, Note_on_c, 1, 51, 62
3, 66891, Note_on_c, 1, 51, 0
3, 66900, Note_on_c, 1, 56, 62
3, 66924, Note_on_c, 1, 56, 0
3, 66930, Note_on_c, 1, 60, 68
3, 66952, Note_on_c, 1, 60, 0
3, 66956, Note_on_c, 1, 44, 0
3, 66960, Note_on_c, 1, 56, 72
3, 66960, Note_on_c, 1, 32, 62
3, 66962, Control_c, 1, 64, 0
3, 66977, Control_c, 1, 64, 127
3, 66990, Note_on_c, 1, 51, 57
3, 66992, Note_on_c, 1, 56, 0
3, 67010, Note_on_c, 1, 51, 0
3, 67020, Note_on_c, 1, 56, 60
3, 67043, Note_on_c, 1, 56, 0
3, 67050, Note_on_c, 1, 60, 72
3, 67052, Note_on_c, 1, 32, 0
3, 67068, Note_on_c, 1, 60, 0
3, 67078, Control_c, 1, 64, 0
3, 67080, Note_on_c, 1, 39, 72
3, 67093, Control_c, 1, 64, 127
3, 67110, Note_on_c, 1, 51, 60
3, 67127, Note_on_c, 1, 51, 0
3, 67133, Note_on_c, 1, 39, 0
3, 67140, Note_on_c, 1, 56, 64
3, 67164, Note_on_c, 1, 56, 0
3, 67170, Note_on_c, 1, 60, 68
3, 67183, Note_on_c, 1, 60, 0
3, 67198, Control_c, 1, 64, 0
3, 67200, Note_on_c, 1, 51, 68
3, 67200, Note_on_c, 1, 55, 76
3, 67212, Control_c, 1, 64, 127
3, 67224, Note_on_c, 1, 51, 0
3, 67227, Note_on_c, 1, 55, 0
3, 67230, Note_on_c, 1, 51, 56
3, 67253, Note_on_c, 1, 51, 0
3, 67260, Note_on_c, 1, 55, 76
3, 67285, Note_on_c, 1, 55, 0
3, 67290, Note_on_c, 1, 58, 62
3, 67312, Note_on_c, 1, 58, 0
3, 67319, Control_c, 1, 64, 0
3, 67320, Note_on_c, 1, 55, 85
3, 67320, Note_on_c, 1, 39, 64
3, 67334, Control_c, 1, 64, 127
3, 67348, Note_on_c, 1, 55, 0
3, 67350, Note_on_c, 1, 51, 60
3, 67374, Note_on_c, 1, 51, 0
3, 67380, Note_on_c, 1, 55, 76
3, 67384, Note_on_c, 1, 39, 0
3, 67405, Note_on_c, 1, 55, 0
3, 67410, Note_on_c, 1, 58, 57
3, 67422, Note_on_c, 1, 58, 0
3, 67440, Note_on_c, 1, 43, 80
3, 67454, Control_c, 1, 64, 127
3, 67470, Note_on_c, 1, 46, 72
3, 67475, Control_c, 1, 64, 0
3, 67500, Note_on_c, 1, 45, 72
3, 67501, Note_on_c, 1, 46, 0
3, 67530, Note_on_c, 1, 46, 76
3, 67531, Note_on_c, 1, 45, 0
3, 67558, Note_on_c, 1, 46, 0
3, 67560, Note_on_c, 1, 48, 68
3, 67567, Control_c, 1, 64, 127
3, 67572, Control_c, 1, 64, 0
3, 67590, Note_on_c, 1, 46, 76
3, 67593, Note_on_c, 1, 48, 0
3, 67614, Control_c, 1, 64, 127
3, 67620, Note_on_c, 1, 45, 76
3, 67621, Note_on_c, 1, 46, 0
3, 67646, Note_on_c, 1, 45, 0
3, 67650, Note_on_c, 1, 46, 68
3, 67676, Note_on_c, 1, 43, 0
3, 67676, Control_c, 1, 64, 0
3, 67679, Note_on_c, 1, 46, 0
3, 67680, Note_on_c, 1, 41, 89
3, 67680, Note_on_c, 1, 48, 76
3, 67705, Control_c, 1, 64, 127
3, 67710, Note_on_c, 1, 46, 72
3, 67717, Note_on_c, 1, 48, 0
3, 67737, Control_c, 1, 64, 0
3, 67740, Note_on_c, 1, 45, 62
3, 67741, Note_on_c, 1, 46, 0
3, 67757, Control_c, 1, 64, 127
3, 67769, Note_on_c, 1, 45, 0
3, 67770, Note_on_c, 1, 46, 80
3, 67798, Note_on_c, 1, 46, 0
3, 67800, Note_on_c, 1, 38, 85
3, 67803, Note_on_c, 1, 41, 0
3, 67805, Control_c, 1, 64, 0
3, 67830, Note_on_c, 1, 46, 80
3, 67860, Note_on_c, 1, 45, 76
3, 67861, Note_on_c, 1, 46, 0
3, 67869, Control_c, 1, 64, 127
3, 67888, Note_on_c, 1, 45, 0
3, 67890, Note_on_c, 1, 46, 62
3, 67919, Note_on_c, 1, 46, 0
3, 67920, Control_c, 1, 64, 0
3, 67920, Note_on_c, 1, 48, 76
3, 67947, Control_c, 1, 64, 127
3, 67950, Note_on_c, 1, 46, 62
3, 67953, Note_on_c, 1, 48, 0
3, 67978, Control_c, 1, 64, 0
3, 67980, Note_on_c, 1, 46, 0
3, 67980, Note_on_c, 1, 45, 72
3, 67996, Control_c, 1, 64, 127
3, 68008, Note_on_c, 1, 45, 0
3, 68010, Note_on_c, 1, 46, 62
3, 68038, Note_on_c, 1, 46, 0
3, 68038, Note_on_c, 1, 38, 0
3, 68040, Note_on_c, 1, 39, 80
3, 68040, Note_on_c, 1, 48, 64
3, 68043, Control_c, 1, 64, 0
3, 68065, Control_c, 1, 64, 127
3, 68070, Note_on_c, 1, 46, 72
3, 68076, Note_on_c, 1, 48, 0
3, 68099, Control_c, 1, 64, 0
3, 68100, Note_on_c, 1, 45, 64
3, 68102, Note_on_c, 1, 46, 0
3, 68118, Control_c, 1, 64, 127
3, 68127, Note_on_c, 1, 45, 0
3, 68130, Note_on_c, 1, 46, 72
3, 68139, Note_on_c, 1, 46, 0
3, 68160, Note_on_c, 1, 43, 85
3, 68161, Note_on_c, 1, 39, 0
3, 68170, Control_c, 1, 64, 0
3, 68190, Note_on_c, 1, 51, 76
3, 68209, Control_c, 1, 64, 127
3, 68217, Note_on_c, 1, 51, 0
3, 68220, Note_on_c, 1, 50, 80
3, 68250, Note_on_c, 1, 50, 0
3, 68250, Note_on_c, 1, 51, 72
3, 68266, Note_on_c, 1, 51, 0
3, 68274, Note_on_c, 1, 43, 0
3, 68280, Note_on_c, 1, 44, 80
3, 68282, Control_c, 1, 64, 0
3, 68310, Note_on_c, 1, 51, 68
3, 68327, Control_c, 1, 64, 127
3, 68340, Note_on_c, 1, 51, 0
3, 68340, Note_on_c, 1, 50, 89
3, 68353, Note_on_c, 1, 44, 0
3, 68366, Note_on_c, 1, 50, 0
3, 68370, Note_on_c, 1, 51, 76
3, 68383, Note_on_c, 1, 51, 0
3, 68400, Note_on_c, 1, 48, 85
3, 68402, Control_c, 1, 64, 0
3, 68430, Note_on_c, 1, 51, 64
3, 68438, Control_c, 1, 64, 127
3, 68441, Note_on_c, 1, 48, 0
3, 68460, Note_on_c, 1, 51, 0
3, 68460, Note_on_c, 1, 50, 80
3, 68485, Note_on_c, 1, 50, 0
3, 68490, Note_on_c, 1, 51, 72
3, 68502, Note_on_c, 1, 51, 0
3, 68520, Note_on_c, 1, 46, 64
3, 68520, Note_on_c, 1, 34, 72
3, 68523, Control_c, 1, 64, 0
3, 68541, Control_c, 1, 64, 127
3, 68542, Note_on_c, 1, 46, 0
3, 68550, Note_on_c, 1, 46, 68
3, 68574, Note_on_c, 1, 46, 0
3, 68580, Note_on_c, 1, 51, 72
3, 68600, Note_on_c, 1, 51, 0
3, 68610, Note_on_c, 1, 55, 76
3, 68634, Note_on_c, 1, 55, 0
3, 68640, Note_on_c, 1, 58, 72
3, 68667, Note_on_c, 1, 58, 0
3, 68670, Note_on_c, 1, 55, 80
3, 68697, Note_on_c, 1, 55, 0
3, 68700, Note_on_c, 1, 53, 64
3, 68729, Note_on_c, 1, 53, 0
3, 68730, Note_on_c, 1, 51, 62
3, 68752, Note_on_c, 1, 51, 0
3, 68759, Control_c, 1, 64, 0
3, 68760, Note_on_c, 1, 56, 76
3, 68774, Control_c, 1, 64, 127
3, 68787, Note_on_c, 1, 56, 0
3, 68788, Note_on_c, 1, 34, 0
3, 68790, Note_on_c, 1, 53, 76
3, 68790, Note_on_c, 1, 44, 59
3, 68796, Control_c, 1, 64, 0
3, 68808, Control_c, 1, 64, 127
3, 68819, Note_on_c, 1, 44, 0
3, 68820, Note_on_c, 1, 51, 72
3, 68820, Note_on_c, 1, 43, 76
3, 68822, Note_on_c, 1, 53, 0
3, 68839, Note_on_c, 1, 51, 0
3, 68845, Note_on_c, 1, 43, 0
3, 68850, Note_on_c, 1, 41, 68
3, 68850, Note_on_c, 1, 50, 60
3, 68866, Note_on_c, 1, 50, 0
3, 68878, Note_on_c, 1, 41, 0
3, 68880, Note_on_c, 1, 39, 72
3, 68886, Control_c, 1, 64, 0
3, 68907, Control_c, 1, 64, 127
3, 68910, Note_on_c, 1, 58, 45
3, 68910, Note_on_c, 1, 55, 62
3, 68925, Note_on_c, 1, 55, 0
3, 68926, Note_on_c, 1, 58, 0
3, 68928, Note_on_c, 1, 39, 0
3, 68940, Note_on_c, 1, 39, 60
3, 68940, Note_on_c, 1, 58, 64
3, 68940, Note_on_c, 1, 55, 76
3, 68944, Control_c, 1, 64, 0
3, 68953, Control_c, 1, 64, 127
3, 68956, Note_on_c, 1, 55, 0
3, 68960, Note_on_c, 1, 58, 0
3, 68970, Note_on_c, 1, 55, 68
3, 68970, Note_on_c, 1, 58, 68
3, 68973, Note_on_c, 1, 39, 0
3, 68982, Note_on_c, 1, 55, 0
3, 68983, Note_on_c, 1, 58, 0
3, 68998, Control_c, 1, 64, 0
3, 69000, Note_on_c, 1, 55, 76
3, 69000, Note_on_c, 1, 58, 59
3, 69000, Note_on_c, 1, 43, 85
3, 69009, Control_c, 1, 64, 127
3, 69016, Note_on_c, 1, 58, 0
3, 69016, Note_on_c, 1, 55, 0
3, 69030, Note_on_c, 1, 55, 62
3, 69030, Note_on_c, 1, 58, 56
3, 69040, Note_on_c, 1, 58, 0
3, 69041, Note_on_c, 1, 43, 0
3, 69042, Note_on_c, 1, 55, 0
3, 69060, Note_on_c, 1, 46, 85
3, 69060, Note_on_c, 1, 55, 76
3, 69060, Note_on_c, 1, 58, 59
3, 69073, Note_on_c, 1, 58, 0
3, 69073, Note_on_c, 1, 55, 0
3, 69075, Note_on_c, 1, 46, 0
3, 69090, Note_on_c, 1, 55, 68
3, 69090, Note_on_c, 1, 58, 60
3, 69100, Note_on_c, 1, 55, 0
3, 69101, Note_on_c, 1, 58, 0
3, 69120, Note_on_c, 1, 55, 72
3, 69120, Note_on_c, 1, 58, 72
3, 69120, Note_on_c, 1, 51, 80
3, 69134, Note_on_c, 1, 55, 0
3, 69135, Note_on_c, 1, 58, 0
3, 69150, Note_on_c, 1, 55, 64
3, 69150, Note_on_c, 1, 58, 60
3, 69156, Note_on_c, 1, 51, 0
3, 69162, Note_on_c, 1, 58, 0
3, 69162, Note_on_c, 1, 55, 0
3, 69180, Note_on_c, 1, 55, 76
3, 69180, Note_on_c, 1, 58, 72
3, 69180, Note_on_c, 1, 39, 80
3, 69185, Control_c, 1, 64, 0
3, 69198, Note_on_c, 1, 58, 0
3, 69198, Note_on_c, 1, 55, 0
3, 69198, Control_c, 1, 64, 127
3, 69210, Note_on_c, 1, 55, 76
3, 69210, Note_on_c, 1, 58, 62
3, 69212, Note_on_c, 1, 39, 0
3, 69222, Note_on_c, 1, 58, 0
3, 69223, Note_on_c, 1, 55, 0
3, 69240, Control_c, 1, 64, 0
3, 69257, Control_c, 1, 64, 127
3, 69270, Note_on_c, 1, 58, 68
3, 69270, Note_on_c, 1, 56, 62
3, 69281, Note_on_c, 1, 56, 0
3, 69283, Note_on_c, 1, 58, 0
3, 69300, Note_on_c, 1, 56, 72
3, 69300, Note_on_c, 1, 58, 76
3, 69300, Note_on_c, 1, 34, 68
3, 69312, Note_on_c, 1, 56, 0
3, 69314, Note_on_c, 1, 58, 0
3, 69330, Note_on_c, 1, 56, 72
3, 69330, Note_on_c, 1, 58, 64
3, 69341, Note_on_c, 1, 58, 0
3, 69342, Note_on_c, 1, 56, 0
3, 69342, Note_on_c, 1, 34, 0
3, 69360, Note_on_c, 1, 58, 72
3, 69360, Note_on_c, 1, 56, 76
3, 69360, Note_on_c, 1, 46, 72
3, 69371, Note_on_c, 1, 56, 0
3, 69373, Note_on_c, 1, 58, 0
3, 69390, Note_on_c, 1, 58, 62
3, 69390, Note_on_c, 1, 56, 59
3, 69395, Note_on_c, 1, 46, 0
3, 69401, Note_on_c, 1, 56, 0
3, 69402, Note_on_c, 1, 58, 0
3, 69420, Note_on_c, 1, 34, 68
3, 69420, Note_on_c, 1, 56, 76
3, 69420, Note_on_c, 1, 58, 72
3, 69431, Note_on_c, 1, 58, 0
3, 69431, Note_on_c, 1, 56, 0
3, 69445, Note_on_c, 1, 34, 0
3, 69450, Note_on_c, 1, 56, 56
3, 69450, Note_on_c, 1, 58, 64
3, 69460, Note_on_c, 1, 58, 0
3, 69461, Note_on_c, 1, 56, 0
3, 69478, Control_c, 1, 64, 0
3, 69480, Note_on_c, 1, 58, 76
3, 69480, Note_on_c, 1, 55, 76
3, 69480, Note_on_c, 1, 39, 76
3, 69493, Control_c, 1, 64, 127
3, 69496, Note_on_c, 1, 55, 0
3, 69497, Note_on_c, 1, 58, 0
3, 69510, Note_on_c, 1, 55, 76
3, 69510, Note_on_c, 1, 58, 64
3, 69521, Note_on_c, 1, 55, 0
3, 69522, Note_on_c, 1, 58, 0
3, 69523, Note_on_c, 1, 39, 0
3, 69540, Note_on_c, 1, 58, 68
3, 69540, Note_on_c, 1, 55, 72
3, 69540, Note_on_c, 1, 51, 72
3, 69551, Note_on_c, 1, 55, 0
3, 69553, Note_on_c, 1, 51, 0
3, 69553, Note_on_c, 1, 58, 0
3, 69570, Note_on_c, 1, 58, 72
3, 69570, Note_on_c, 1, 55, 68
3, 69580, Note_on_c, 1, 55, 0
3, 69583, Note_on_c, 1, 58, 0
3, 69593, Control_c, 1, 64, 0
3, 69610, Control_c, 1, 64, 127
3, 69630, Note_on_c, 1, 56, 80
3, 69630, Note_on_c, 1, 51, 60
3, 69640, Note_on_c, 1, 51, 0
3, 69642, Note_on_c, 1, 56, 0
3, 69660, Note_on_c, 1, 32, 80
3, 69660, Note_on_c, 1, 51, 62
3, 69660, Note_on_c, 1, 56, 76
3, 69672, Note_on_c, 1, 51, 0
3, 69674, Note_on_c, 1, 56, 0
3, 69686, Note_on_c, 1, 32, 0
3, 69690, Note_on_c, 1, 56, 76
3, 69690, Note_on_c, 1, 51, 50
3, 69702, Note_on_c, 1, 51, 0
3, 69702, Note_on_c, 1, 56, 0
3, 69716, Control_c, 1, 64, 0
3, 69720, Note_on_c, 1, 56, 76
3, 69720, Note_on_c, 1, 36, 85
3, 69720, Note_on_c, 1, 51, 56
3, 69729, Control_c, 1, 64, 127
3, 69734, Note_on_c, 1, 51, 0
3, 69734, Note_on_c, 1, 56, 0
3, 69750, Note_on_c, 1, 56, 68
3, 69750, Note_on_c, 1, 51, 62
3, 69758, Note_on_c, 1, 36, 0
3, 69761, Note_on_c, 1, 51, 0
3, 69763, Note_on_c, 1, 56, 0
3, 69780, Note_on_c, 1, 56, 76
3, 69780, Note_on_c, 1, 51, 62
3, 69780, Note_on_c, 1, 39, 76
3, 69791, Note_on_c, 1, 51, 0
3, 69794, Note_on_c, 1, 56, 0
3, 69810, Note_on_c, 1, 56, 76
3, 69810, Note_on_c, 1, 51, 60
3, 69818, Note_on_c, 1, 39, 0
3, 69820, Note_on_c, 1, 51, 0
3, 69821, Note_on_c, 1, 56, 0
3, 69835, Control_c, 1, 64, 0
3, 69840, Note_on_c, 1, 56, 80
3, 69840, Note_on_c, 1, 51, 56
3, 69840, Note_on_c, 1, 44, 72
3, 69849, Control_c, 1, 64, 127
3, 69851, Note_on_c, 1, 51, 0
3, 69852, Note_on_c, 1, 56, 0
3, 69870, Note_on_c, 1, 56, 68
3, 69870, Note_on_c, 1, 51, 56
3, 69879, Note_on_c, 1, 51, 0
3, 69881, Note_on_c, 1, 44, 0
3, 69884, Note_on_c, 1, 56, 0
3, 69896, Control_c, 1, 64, 0
3, 69900, Note_on_c, 1, 51, 72
3, 69900, Note_on_c, 1, 60, 80
3, 69900, Note_on_c, 1, 32, 68
3, 69909, Control_c, 1, 64, 127
3, 69918, Note_on_c, 1, 51, 0
3, 69920, Note_on_c, 1, 60, 0
3, 69930, Note_on_c, 1, 51, 60
3, 69930, Note_on_c, 1, 60, 76
3, 69933, Note_on_c, 1, 32, 0
3, 69941, Note_on_c, 1, 60, 0
3, 69943, Note_on_c, 1, 51, 0
3, 69952, Control_c, 1, 64, 0
3, 69968, Control_c, 1, 64, 127
3, 69990, Note_on_c, 1, 51, 59
3, 69990, Note_on_c, 1, 56, 76
3, 70001, Note_on_c, 1, 51, 0
3, 70003, Note_on_c, 1, 56, 0
3, 70020, Note_on_c, 1, 39, 72
3, 70020, Note_on_c, 1, 51, 62
3, 70020, Note_on_c, 1, 56, 76
3, 70032, Note_on_c, 1, 51, 0
3, 70034, Note_on_c, 1, 56, 0
3, 70050, Note_on_c, 1, 56, 72
3, 70050, Note_on_c, 1, 51, 55
3, 70053, Note_on_c, 1, 39, 0
3, 70061, Note_on_c, 1, 51, 0
3, 70061, Note_on_c, 1, 56, 0
3, 70079, Control_c, 1, 64, 0
3, 70080, Note_on_c, 1, 43, 72
3, 70080, Note_on_c, 1, 55, 93
3, 70080, Note_on_c, 1, 51, 56
3, 70094, Control_c, 1, 64, 127
3, 70096, Note_on_c, 1, 55, 0
3, 70097, Note_on_c, 1, 51, 0
3, 70110, Note_on_c, 1, 55, 76
3, 70110, Note_on_c, 1, 51, 60
3, 70122, Note_on_c, 1, 51, 0
3, 70123, Note_on_c, 1, 55, 0
3, 70126, Note_on_c, 1, 43, 0
3, 70132, Control_c, 1, 64, 0
3, 70140, Note_on_c, 1, 51, 60
3, 70140, Note_on_c, 1, 46, 76
3, 70140, Note_on_c, 1, 55, 89
3, 70144, Control_c, 1, 64, 127
3, 70154, Note_on_c, 1, 51, 0
3, 70155, Note_on_c, 1, 55, 0
3, 70170, Note_on_c, 1, 51, 60
3, 70170, Note_on_c, 1, 55, 72
3, 70181, Note_on_c, 1, 51, 0
3, 70182, Note_on_c, 1, 55, 0
3, 70182, Note_on_c, 1, 46, 0
3, 70197, Control_c, 1, 64, 0
3, 70200, Note_on_c, 1, 51, 60
3, 70200, Note_on_c, 1, 55, 76
3, 70200, Note_on_c, 1, 43, 76
3, 70210, Control_c, 1, 64, 127
3, 70214, Note_on_c, 1, 51, 0
3, 70216, Note_on_c, 1, 55, 0
3, 70230, Note_on_c, 1, 51, 55
3, 70230, Note_on_c, 1, 55, 64
3, 70242, Note_on_c, 1, 55, 0
3, 70243, Note_on_c, 1, 51, 0
3, 70244, Note_on_c, 1, 43, 0
3, 70258, Control_c, 1, 64, 0
3, 70260, Note_on_c, 1, 51, 60
3, 70260, Note_on_c, 1, 55, 80
3, 70260, Note_on_c, 1, 39, 76
3, 70269, Control_c, 1, 64, 127
3, 70272, Note_on_c, 1, 51, 0
3, 70274, Note_on_c, 1, 55, 0
3, 70290, Note_on_c, 1, 51, 68
3, 70290, Note_on_c, 1, 55, 76
3, 70291, Note_on_c, 1, 39, 0
3, 70301, Note_on_c, 1, 55, 0
3, 70302, Note_on_c, 1, 51, 0
3, 70320, Note_on_c, 1, 43, 76
3, 70350, Note_on_c, 1, 52, 76
3, 70369, Note_on_c, 1, 52, 0
3, 70380, Note_on_c, 1, 53, 62
3, 70382, Control_c, 1, 64, 127
3, 70410, Note_on_c, 1, 52, 76
3, 70413, Note_on_c, 1, 53, 0
3, 70432, Control_c, 1, 64, 0
3, 70439, Note_on_c, 1, 52, 0
3, 70440, Note_on_c, 1, 58, 72
3, 70449, Control_c, 1, 64, 127
3, 70470, Note_on_c, 1, 55, 72
3, 70472, Note_on_c, 1, 58, 0
3, 70500, Note_on_c, 1, 53, 62
3, 70502, Note_on_c, 1, 55, 0
3, 70530, Note_on_c, 1, 52, 72
3, 70532, Note_on_c, 1, 53, 0
3, 70543, Note_on_c, 1, 52, 0
3, 70555, Note_on_c, 1, 43, 0
3, 70560, Note_on_c, 1, 44, 80
3, 70563, Control_c, 1, 64, 0
3, 70590, Note_on_c, 1, 53, 64
3, 70593, Control_c, 1, 64, 127
3, 70620, Note_on_c, 1, 52, 72
3, 70621, Note_on_c, 1, 53, 0
3, 70644, Note_on_c, 1, 52, 0
3, 70650, Note_on_c, 1, 53, 80
3, 70654, Note_on_c, 1, 44, 0
3, 70659, Note_on_c, 1, 53, 0
3, 70680, Note_on_c, 1, 40, 89
3, 70681, Control_c, 1, 64, 0
3, 70707, Control_c, 1, 64, 127
3, 70710, Note_on_c, 1, 61, 80
3, 70739, Note_on_c, 1, 61, 0
3, 70740, Note_on_c, 1, 60, 68
3, 70765, Note_on_c, 1, 60, 0
3, 70770, Note_on_c, 1, 61, 72
3, 70780, Note_on_c, 1, 61, 0
3, 70800, Note_on_c, 1, 60, 76
3, 70804, Control_c, 1, 64, 0
3, 70821, Control_c, 1, 64, 127
3, 70830, Note_on_c, 1, 58, 72
3, 70831, Note_on_c, 1, 60, 0
3, 70859, Note_on_c, 1, 58, 0
3, 70860, Note_on_c, 1, 56, 80
3, 70890, Note_on_c, 1, 56, 0
3, 70890, Note_on_c, 1, 55, 72
3, 70908, Note_on_c, 1, 55, 0
3, 70915, Note_on_c, 1, 40, 0
3, 70920, Note_on_c, 1, 41, 80
3, 70921, Control_c, 1, 64, 0
3, 70940, Control_c, 1, 64, 127
3, 70950, Note_on_c, 1, 53, 64
3, 70974, Note_on_c, 1, 53, 0
3, 70980, Note_on_c, 1, 56, 76
3, 71004, Note_on_c, 1, 56, 0
3, 71006, Note_on_c, 1, 41, 0
3, 71010, Note_on_c, 1, 60, 72
3, 71025, Note_on_c, 1, 60, 0
3, 71039, Control_c, 1, 64, 0
3, 71040, Note_on_c, 1, 46, 80
3, 71057, Control_c, 1, 64, 127
3, 71070, Note_on_c, 1, 61, 62
3, 71070, Note_on_c, 1, 58, 57
3, 71082, Note_on_c, 1, 58, 0
3, 71083, Note_on_c, 1, 61, 0
3, 71100, Note_on_c, 1, 58, 68
3, 71100, Note_on_c, 1, 61, 60
3, 71111, Note_on_c, 1, 61, 0
3, 71111, Note_on_c, 1, 58, 0
3, 71130, Note_on_c, 1, 58, 72
3, 71130, Note_on_c, 1, 61, 68
3, 71136, Note_on_c, 1, 46, 0
3, 71140, Note_on_c, 1, 58, 0
3, 71143, Note_on_c, 1, 61, 0
3, 71160, Note_on_c, 1, 48, 89
3, 71162, Control_c, 1, 64, 0
3, 71178, Control_c, 1, 64, 127
3, 71190, Note_on_c, 1, 56, 64
3, 71190, Note_on_c, 1, 60, 76
3, 71202, Note_on_c, 1, 60, 0
3, 71202, Note_on_c, 1, 56, 0
3, 71220, Note_on_c, 1, 56, 68
3, 71220, Note_on_c, 1, 60, 62
3, 71231, Note_on_c, 1, 60, 0
3, 71231, Note_on_c, 1, 56, 0
3, 71250, Note_on_c, 1, 56, 76
3, 71250, Note_on_c, 1, 60, 64
3, 71262, Note_on_c, 1, 56, 0
3, 71263, Note_on_c, 1, 60, 0
3, 71267, Note_on_c, 1, 48, 0
3, 71279, Control_c, 1, 64, 0
3, 71280, Note_on_c, 1, 36, 80
3, 71297, Control_c, 1, 64, 127
3, 71310, Note_on_c, 1, 58, 76
3, 71310, Note_on_c, 1, 55, 72
3, 71321, Note_on_c, 1, 55, 0
3, 71324, Note_on_c, 1, 58, 0
3, 71340, Note_on_c, 1, 36, 0
3, 71340, Note_on_c, 1, 58, 64
3, 71340, Note_on_c, 1, 55, 68
3, 71349, Note_on_c, 1, 55, 0
3, 71351, Note_on_c, 1, 58, 0
3, 71370, Note_on_c, 1, 58, 59
3, 71370, Note_on_c, 1, 55, 76
3, 71380, Note_on_c, 1, 58, 0
3, 71381, Note_on_c, 1, 55, 0
3, 71400, Note_on_c, 1, 56, 89
3, 71400, Note_on_c, 1, 41, 89
3, 71412, Control_c, 1, 64, 127
3, 71416, Note_on_c, 1, 41, 0
3, 71416, Note_on_c, 1, 56, 0
3, 71429, Control_c, 1, 64, 0
3, 71430, Note_on_c, 1, 53, 89
3, 71430, Note_on_c, 1, 41, 68
3, 71446, Note_on_c, 1, 53, 0
3, 71456, Note_on_c, 1, 41, 0
3, 71460, Note_on_c, 1, 44, 76
3, 71460, Note_on_c, 1, 56, 85
3, 71475, Control_c, 1, 64, 127
3, 71486, Note_on_c, 1, 56, 0
3, 71489, Note_on_c, 1, 44, 0
3, 71490, Note_on_c, 1, 46, 80
3, 71490, Note_on_c, 1, 58, 76
3, 71510, Control_c, 1, 64, 0
3, 71512, Note_on_c, 1, 58, 0
3, 71517, Note_on_c, 1, 46, 0
3, 71520, Note_on_c, 1, 60, 76
3, 71520, Note_on_c, 1, 48, 93
3, 71532, Control_c, 1, 64, 127
3, 71550, Note_on_c, 1, 58, 72
3, 71550, Note_on_c, 1, 46, 72
3, 71551, Note_on_c, 1, 60, 0
3, 71552, Note_on_c, 1, 48, 0
3, 71557, Control_c, 1, 64, 0
3, 71578, Note_on_c, 1, 46, 0
3, 71580, Note_on_c, 1, 56, 76
3, 71580, Note_on_c, 1, 44, 76
3, 71582, Note_on_c, 1, 58, 0
3, 71590, Control_c, 1, 64, 127
3, 71607, Note_on_c, 1, 44, 0
3, 71608, Note_on_c, 1, 56, 0
3, 71610, Note_on_c, 1, 58, 76
3, 71610, Note_on_c, 1, 46, 80
3, 71631, Control_c, 1, 64, 0
3, 71636, Note_on_c, 1, 46, 0
3, 71638, Note_on_c, 1, 58, 0
3, 71640, Note_on_c, 1, 44, 80
3, 71640, Note_on_c, 1, 56, 80
3, 71649, Control_c, 1, 64, 127
3, 71667, Note_on_c, 1, 44, 0
3, 71668, Note_on_c, 1, 56, 0
3, 71670, Note_on_c, 1, 55, 80
3, 71670, Note_on_c, 1, 43, 72
3, 71692, Note_on_c, 1, 55, 0
3, 71693, Control_c, 1, 64, 0
3, 71699, Note_on_c, 1, 43, 0
3, 71700, Note_on_c, 1, 53, 76
3, 71700, Note_on_c, 1, 41, 93
3, 71710, Control_c, 1, 64, 127
3, 71729, Note_on_c, 1, 41, 0
3, 71730, Note_on_c, 1, 39, 72
3, 71730, Note_on_c, 1, 51, 80
3, 71733, Note_on_c, 1, 53, 0
3, 71745, Note_on_c, 1, 51, 0
3, 71755, Control_c, 1, 64, 0
3, 71756, Note_on_c, 1, 39, 0
3, 71760, Note_on_c, 1, 38, 85
3, 71790, Note_on_c, 1, 53, 76
3, 71820, Note_on_c, 1, 52, 80
3, 71820, Control_c, 1, 64, 127
3, 71821, Note_on_c, 1, 53, 0
3, 71850, Note_on_c, 1, 52, 0
3, 71850, Note_on_c, 1, 53, 76
3, 71872, Control_c, 1, 64, 0
3, 71880, Note_on_c, 1, 56, 72
3, 71882, Note_on_c, 1, 53, 0
3, 71897, Control_c, 1, 64, 127
3, 71910, Note_on_c, 1, 56, 0
3, 71910, Note_on_c, 1, 53, 60
3, 71926, Control_c, 1, 64, 0
3, 71939, Note_on_c, 1, 53, 0
3, 71940, Note_on_c, 1, 52, 62
3, 71940, Control_c, 1, 64, 127
3, 71966, Note_on_c, 1, 52, 0
3, 71970, Note_on_c, 1, 53, 72
3, 71984, Note_on_c, 1, 53, 0
3, 71996, Note_on_c, 1, 38, 0
3, 71996, Control_c, 1, 64, 0
3, 72000, Note_on_c, 1, 39, 80
3, 72030, Note_on_c, 1, 55, 80
3, 72045, Control_c, 1, 64, 127
3, 72059, Note_on_c, 1, 55, 0
3, 72060, Note_on_c, 1, 54, 64
3, 72084, Note_on_c, 1, 54, 0
3, 72088, Note_on_c, 1, 39, 0
3, 72090, Note_on_c, 1, 55, 72
3, 72100, Note_on_c, 1, 55, 0
3, 72120, Note_on_c, 1, 34, 76
3, 72121, Control_c, 1, 64, 0
3, 72150, Note_on_c, 1, 50, 89
3, 72163, Control_c, 1, 64, 127
3, 72179, Note_on_c, 1, 50, 0
3, 72180, Note_on_c, 1, 49, 72
3, 72205, Note_on_c, 1, 49, 0
3, 72210, Note_on_c, 1, 50, 80
3, 72234, Note_on_c, 1, 34, 0
3, 72237, Note_on_c, 1, 50, 0
3, 72240, Note_on_c, 1, 35, 85
3, 72240, Note_on_c, 1, 53, 72
3, 72245, Control_c, 1, 64, 0
3, 72270, Note_on_c, 1, 50, 93
3, 72273, Note_on_c, 1, 53, 0
3, 72277, Control_c, 1, 64, 127
3, 72295, Control_c, 1, 64, 0
3, 72300, Note_on_c, 1, 50, 0
3, 72300, Note_on_c, 1, 49, 62
3, 72310, Control_c, 1, 64, 127
3, 72322, Note_on_c, 1, 49, 0
3, 72330, Note_on_c, 1, 50, 85
3, 72347, Note_on_c, 1, 50, 0
3, 72353, Control_c, 1, 64, 0
3, 72356, Note_on_c, 1, 35, 0
3, 72360, Note_on_c, 1, 36, 89
3, 72374, Control_c, 1, 64, 127
3, 72390, Note_on_c, 1, 51, 72
3, 72404, Control_c, 1, 64, 0
3, 72419, Note_on_c, 1, 51, 0
3, 72420, Note_on_c, 1, 50, 72
3, 72420, Control_c, 1, 64, 127
3, 72447, Note_on_c, 1, 50, 0
3, 72450, Note_on_c, 1, 51, 68
3, 72463, Note_on_c, 1, 51, 0
3, 72475, Control_c, 1, 64, 0
3, 72478, Note_on_c, 1, 36, 0
3, 72480, Note_on_c, 1, 32, 72
3, 72494, Control_c, 1, 64, 127
3, 72510, Note_on_c, 1, 51, 64
3, 72510, Note_on_c, 1, 56, 68
3, 72522, Note_on_c, 1, 51, 0
3, 72524, Note_on_c, 1, 56, 0
3, 72540, Note_on_c, 1, 51, 64
3, 72540, Note_on_c, 1, 56, 64
3, 72551, Note_on_c, 1, 56, 0
3, 72551, Note_on_c, 1, 51, 0
3, 72570, Note_on_c, 1, 51, 53
3, 72570, Note_on_c, 1, 56, 62
3, 72583, Note_on_c, 1, 51, 0
3, 72584, Note_on_c, 1, 56, 0
3, 72589, Note_on_c, 1, 32, 0
3, 72595, Control_c, 1, 64, 0
3, 72600, Note_on_c, 1, 44, 76
3, 72615, Control_c, 1, 64, 127
3, 72630, Note_on_c, 1, 53, 76
3, 72630, Note_on_c, 1, 56, 62
3, 72644, Note_on_c, 1, 56, 0
3, 72645, Note_on_c, 1, 53, 0
3, 72660, Note_on_c, 1, 53, 68
3, 72660, Note_on_c, 1, 56, 59
3, 72672, Note_on_c, 1, 53, 0
3, 72674, Note_on_c, 1, 56, 0
3, 72690, Note_on_c, 1, 53, 64
3, 72690, Note_on_c, 1, 56, 62
3, 72701, Note_on_c, 1, 56, 0
3, 72701, Note_on_c, 1, 53, 0
3, 72713, Note_on_c, 1, 44, 0
3, 72718, Control_c, 1, 64, 0
3, 72720, Note_on_c, 1, 41, 76
3, 72741, Control_c, 1, 64, 127
3, 72750, Note_on_c, 1, 56, 62
3, 72750, Note_on_c, 1, 60, 50
3, 72762, Note_on_c, 1, 60, 0
3, 72763, Note_on_c, 1, 56, 0
3, 72780, Note_on_c, 1, 56, 68
3, 72780, Note_on_c, 1, 60, 80
3, 72793, Note_on_c, 1, 60, 0
3, 72793, Note_on_c, 1, 56, 0
3, 72794, Note_on_c, 1, 41, 0
3, 72810, Note_on_c, 1, 56, 57
3, 72810, Note_on_c, 1, 60, 57
3, 72821, Note_on_c, 1, 60, 0
3, 72822, Note_on_c, 1, 56, 0
3, 72833, Control_c, 1, 64, 0
3, 72840, Note_on_c, 1, 46, 76
3, 72840, Note_on_c, 1, 58, 64
3, 72840, Note_on_c, 1, 55, 80
3, 72848, Control_c, 1, 64, 127
3, 72851, Note_on_c, 1, 55, 0
3, 72854, Note_on_c, 1, 58, 0
3, 72854, Note_on_c, 1, 46, 0
3, 72859, Control_c, 1, 64, 0
3, 72870, Note_on_c, 1, 46, 72
3, 72870, Note_on_c, 1, 58, 76
3, 72898, Note_on_c, 1, 58, 0
3, 72899, Note_on_c, 1, 46, 0
3, 72900, Note_on_c, 1, 45, 76
3, 72900, Note_on_c, 1, 57, 93
3, 72906, Control_c, 1, 64, 127
3, 72928, Note_on_c, 1, 57, 0
3, 72930, Note_on_c, 1, 45, 0
3, 72930, Note_on_c, 1, 46, 76
3, 72930, Note_on_c, 1, 58, 62
3, 72948, Note_on_c, 1, 58, 0
3, 72953, Control_c, 1, 64, 0
3, 72955, Note_on_c, 1, 46, 0
3, 72960, Note_on_c, 1, 48, 89
3, 72960, Note_on_c, 1, 60, 80
3, 72960, Note_on_c, 1, 53, 76
3, 72988, Note_on_c, 1, 60, 0
3, 72990, Note_on_c, 1, 58, 76
3, 72990, Note_on_c, 1, 46, 72
3, 72992, Note_on_c, 1, 53, 0
3, 72992, Note_on_c, 1, 48, 0
3, 73019, Note_on_c, 1, 46, 0
3, 73020, Note_on_c, 1, 58, 0
3, 73020, Note_on_c, 1, 45, 80
3, 73020, Note_on_c, 1, 57, 80
3, 73032, Control_c, 1, 64, 127
3, 73048, Note_on_c, 1, 57, 0
3, 73048, Note_on_c, 1, 45, 0
3, 73050, Note_on_c, 1, 46, 62
3, 73050, Note_on_c, 1, 58, 72
3, 73072, Control_c, 1, 64, 0
3, 73078, Note_on_c, 1, 58, 0
3, 73080, Note_on_c, 1, 53, 89
3, 73080, Note_on_c, 1, 41, 72
3, 73082, Note_on_c, 1, 46, 0
3, 73091, Control_c, 1, 64, 127
3, 73104, Note_on_c, 1, 53, 0
3, 73107, Note_on_c, 1, 41, 0
3, 73110, Note_on_c, 1, 58, 72
3, 73110, Note_on_c, 1, 46, 68
3, 73133, Control_c, 1, 64, 0
3, 73136, Note_on_c, 1, 46, 0
3, 73138, Note_on_c, 1, 58, 0
3, 73140, Note_on_c, 1, 38, 80
3, 73140, Note_on_c, 1, 50, 80
3, 73149, Control_c, 1, 64, 127
3, 73164, Note_on_c, 1, 50, 0
3, 73167, Note_on_c, 1, 38, 0
3, 73170, Note_on_c, 1, 53, 72
3, 73170, Note_on_c, 1, 41, 72
3, 73183, Note_on_c, 1, 53, 0
3, 73191, Control_c, 1, 64, 0
3, 73195, Note_on_c, 1, 41, 0
3, 73200, Note_on_c, 1, 34, 76
3, 73200, Note_on_c, 1, 46, 89
3, 73206, Control_c, 1, 64, 127
3, 73235, Note_on_c, 1, 46, 0
3, 73236, Note_on_c, 1, 34, 0
3, 73312, Control_c, 1, 64, 0
3, 73920, Note_on_c, 1, 56, 72
3, 73920, Note_on_c, 1, 56, 68
3, 73927, Control_c, 1, 64, 127
3, 73980, Note_on_c, 1, 64, 80
3, 73980, Note_on_c, 1, 67, 72
3, 73988, Note_on_c, 1, 56, 0
3, 73995, Control_c, 1, 64, 0
3, 74010, Note_on_c, 1, 65, 72
3, 74011, Note_on_c, 1, 67, 0
3, 74012, Note_on_c, 1, 56, 0
3, 74013, Note_on_c, 1, 64, 0
3, 74034, Note_on_c, 1, 65, 0
3, 74040, Note_on_c, 1, 58, 76
3, 74097, Note_on_c, 1, 58, 0
3, 74100, Note_on_c, 1, 62, 68
3, 74100, Note_on_c, 1, 65, 64
3, 74110, Control_c, 1, 64, 127
3, 74130, Note_on_c, 1, 63, 57
3, 74135, Note_on_c, 1, 65, 0
3, 74135, Note_on_c, 1, 62, 0
3, 74139, Note_on_c, 1, 63, 0
3, 74152, Control_c, 1, 64, 0
3, 74160, Note_on_c, 1, 46, 64
3, 74179, Control_c, 1, 64, 127
3, 74220, Note_on_c, 1, 63, 68
3, 74220, Note_on_c, 1, 56, 62
3, 74222, Control_c, 1, 64, 0
3, 74239, Control_c, 1, 64, 127
3, 74240, Note_on_c, 1, 46, 0
3, 74247, Note_on_c, 1, 63, 0
3, 74250, Note_on_c, 1, 62, 76
3, 74260, Note_on_c, 1, 62, 0
3, 74261, Note_on_c, 1, 56, 0
3, 74277, Control_c, 1, 64, 0
3, 74280, Note_on_c, 1, 55, 64
3, 74280, Note_on_c, 1, 58, 72
3, 74280, Note_on_c, 1, 51, 62
3, 74297, Control_c, 1, 64, 127
3, 74315, Note_on_c, 1, 55, 0
3, 74316, Note_on_c, 1, 51, 0
3, 74316, Note_on_c, 1, 58, 0
3, 74403, Control_c, 1, 64, 0
3, 74640, Note_on_c, 1, 38, 62
3, 74648, Control_c, 1, 64, 127
3, 74669, Note_on_c, 1, 38, 0
3, 74670, Note_on_c, 1, 46, 62
3, 74684, Note_on_c, 1, 46, 0
3, 74700, Note_on_c, 1, 38, 80
3, 74700, Note_on_c, 1, 58, 68
3, 74705, Control_c, 1, 64, 0
3, 74718, Control_c, 1, 64, 127
3, 74723, Note_on_c, 1, 38, 0
3, 74730, Note_on_c, 1, 46, 62
3, 74734, Note_on_c, 1, 58, 0
3, 74754, Note_on_c, 1, 46, 0
3, 74760, Note_on_c, 1, 53, 76
3, 74760, Note_on_c, 1, 38, 72
3, 74767, Control_c, 1, 64, 0
3, 74781, Control_c, 1, 64, 127
3, 74784, Note_on_c, 1, 38, 0
3, 74790, Note_on_c, 1, 46, 47
3, 74809, Note_on_c, 1, 53, 0
3, 74811, Note_on_c, 1, 46, 0
3, 74820, Note_on_c, 1, 38, 72
3, 74820, Note_on_c, 1, 56, 80
3, 74826, Control_c, 1, 64, 0
3, 74839, Control_c, 1, 64, 127
3, 74848, Note_on_c, 1, 38, 0
3, 74850, Note_on_c, 1, 46, 52
3, 74863, Note_on_c, 1, 56, 0
3, 74875, Note_on_c, 1, 46, 0
3, 74880, Note_on_c, 1, 39, 60
3, 74880, Note_on_c, 1, 55, 76
3, 74884, Control_c, 1, 64, 0
3, 74899, Control_c, 1, 64, 127
3, 74907, Note_on_c, 1, 55, 0
3, 74907, Note_on_c, 1, 39, 0
3, 74910, Note_on_c, 1, 46, 56
3, 74910, Note_on_c, 1, 51, 62
3, 74926, Note_on_c, 1, 51, 0
3, 74938, Note_on_c, 1, 46, 0
3, 74940, Note_on_c, 1, 43, 55
3, 74940, Note_on_c, 1, 58, 76
3, 74947, Control_c, 1, 64, 0
3, 74953, Note_on_c, 1, 58, 0
3, 74955, Note_on_c, 1, 43, 0
3, 74970, Note_on_c, 1, 39, 72
3, 74970, Note_on_c, 1, 58, 68
3, 74982, Note_on_c, 1, 58, 0
3, 74982, Note_on_c, 1, 39, 0
3, 75000, Note_on_c, 1, 38, 72
3, 75014, Control_c, 1, 64, 127
3, 75030, Note_on_c, 1, 46, 64
3, 75031, Note_on_c, 1, 38, 0
3, 75054, Note_on_c, 1, 46, 0
3, 75060, Note_on_c, 1, 38, 68
3, 75060, Note_on_c, 1, 58, 76
3, 75066, Control_c, 1, 64, 0
3, 75080, Control_c, 1, 64, 127
3, 75090, Note_on_c, 1, 38, 0
3, 75090, Note_on_c, 1, 46, 62
3, 75094, Note_on_c, 1, 58, 0
3, 75114, Note_on_c, 1, 46, 0
3, 75120, Note_on_c, 1, 53, 76
3, 75120, Note_on_c, 1, 38, 72
3, 75126, Control_c, 1, 64, 0
3, 75140, Control_c, 1, 64, 127
3, 75148, Note_on_c, 1, 38, 0
3, 75150, Note_on_c, 1, 46, 60
3, 75161, Note_on_c, 1, 53, 0
3, 75174, Note_on_c, 1, 46, 0
3, 75180, Note_on_c, 1, 38, 76
3, 75180, Note_on_c, 1, 56, 72
3, 75184, Control_c, 1, 64, 0
3, 75197, Control_c, 1, 64, 127
3, 75207, Note_on_c, 1, 38, 0
3, 75210, Note_on_c, 1, 46, 59
3, 75212, Note_on_c, 1, 56, 0
3, 75234, Note_on_c, 1, 46, 0
3, 75238, Control_c, 1, 64, 0
3, 75240, Note_on_c, 1, 39, 60
3, 75240, Note_on_c, 1, 55, 76
3, 75254, Control_c, 1, 64, 127
3, 75268, Note_on_c, 1, 39, 0
3, 75269, Note_on_c, 1, 55, 0
3, 75270, Note_on_c, 1, 46, 55
3, 75270, Note_on_c, 1, 51, 72
3, 75285, Note_on_c, 1, 51, 0
3, 75293, Note_on_c, 1, 46, 0
3, 75300, Note_on_c, 1, 43, 60
3, 75300, Note_on_c, 1, 58, 75
3, 75304, Note_on_c, 1, 58, 0
3, 75313, Control_c, 1, 64, 0
3, 75330, Note_on_c, 1, 43, 0
3, 75330, Note_on_c, 1, 39, 60
3, 75330, Note_on_c, 1, 58, 75
3, 75334, Note_on_c, 1, 58, 0
3, 75360, Note_on_c, 1, 39, 0
3, 75420, Note_on_c, 1, 43, 64
3, 75420, Note_on_c, 1, 55, 89
3, 75450, Note_on_c, 1, 55, 0
3, 75450, Note_on_c, 1, 43, 0
3, 75450, Note_on_c, 1, 56, 85
3, 75450, Note_on_c, 1, 44, 72
3, 75465, Note_on_c, 1, 56, 0
3, 75466, Note_on_c, 1, 44, 0
3, 75540, Note_on_c, 1, 45, 89
3, 75540, Note_on_c, 1, 57, 89
3, 75570, Note_on_c, 1, 46, 76
3, 75570, Note_on_c, 1, 58, 85
3, 75571, Note_on_c, 1, 57, 0
3, 75571, Note_on_c, 1, 45, 0
3, 75582, Note_on_c, 1, 46, 0
3, 75582, Note_on_c, 1, 58, 0
3, 75660, Note_on_c, 1, 35, 85
3, 75660, Note_on_c, 1, 47, 89
3, 75689, Note_on_c, 1, 47, 0
3, 75690, Note_on_c, 1, 46, 80
3, 75690, Note_on_c, 1, 34, 72
3, 75691, Note_on_c, 1, 35, 0
3, 75701, Note_on_c, 1, 46, 0
3, 75702, Note_on_c, 1, 34, 0
3, 75720, Note_on_c, 1, 51, 89
3, 75720, Note_on_c, 1, 39, 72
3, 75742, Control_c, 1, 64, 127
3, 75772, Note_on_c, 1, 51, 0
3, 75780, Note_on_c, 1, 58, 85
3, 75785, Note_on_c, 1, 39, 0
3, 75835, Note_on_c, 1, 58, 0
3, 75836, Control_c, 1, 64, 0
3, 75840, Note_on_c, 1, 57, 89
3, 75900, Note_on_c, 1, 56, 80
3, 75901, Note_on_c, 1, 57, 0
3, 75960, Note_on_c, 1, 34, 64
3, 75960, Note_on_c, 1, 41, 76
3, 75964, Control_c, 1, 64, 127
3, 75970, Note_on_c, 1, 56, 0
3, 76018, Control_c, 1, 64, 0
3, 76019, Note_on_c, 1, 41, 0
3, 76020, Note_on_c, 1, 44, 76
3, 76020, Note_on_c, 1, 55, 76
3, 76035, Note_on_c, 1, 53, 76
3, 76037, Note_on_c, 1, 55, 0
3, 76042, Control_c, 1, 64, 127
3, 76050, Note_on_c, 1, 51, 64
3, 76055, Note_on_c, 1, 53, 0
3, 76065, Note_on_c, 1, 50, 85
3, 76067, Note_on_c, 1, 51, 0
3, 76075, Note_on_c, 1, 44, 0
3, 76077, Note_on_c, 1, 50, 0
3, 76079, Note_on_c, 1, 34, 0
3, 76080, Control_c, 1, 64, 0
3, 76080, Note_on_c, 1, 51, 89
3, 76080, Note_on_c, 1, 43, 56
3, 76080, Note_on_c, 1, 39, 57
3, 76107, Control_c, 1, 64, 127
3, 76136, Note_on_c, 1, 51, 0
3, 76140, Note_on_c, 1, 58, 76
3, 76144, Control_c, 1, 64, 0
3, 76150, Note_on_c, 1, 39, 0
3, 76167, Note_on_c, 1, 43, 0
3, 76170, Note_on_c, 1, 39, 47
3, 76180, Note_on_c, 1, 39, 0
3, 76200, Note_on_c, 1, 58, 0
3, 76200, Note_on_c, 1, 57, 89
3, 76260, Note_on_c, 1, 57, 0
3, 76260, Note_on_c, 1, 56, 93
3, 76320, Note_on_c, 1, 34, 68
3, 76320, Note_on_c, 1, 41, 80
3, 76322, Control_c, 1, 64, 127
3, 76330, Note_on_c, 1, 56, 0
3, 76379, Control_c, 1, 64, 0
3, 76380, Note_on_c, 1, 55, 72
3, 76380, Note_on_c, 1, 44, 76
3, 76381, Note_on_c, 1, 41, 0
3, 76395, Note_on_c, 1, 53, 72
3, 76397, Control_c, 1, 64, 127
3, 76399, Note_on_c, 1, 55, 0
3, 76410, Note_on_c, 1, 51, 72
3, 76411, Note_on_c, 1, 53, 0
3, 76425, Note_on_c, 1, 50, 76
3, 76427, Note_on_c, 1, 44, 0
3, 76428, Note_on_c, 1, 51, 0
3, 76433, Note_on_c, 1, 34, 0
3, 76436, Note_on_c, 1, 50, 0
3, 76436, Control_c, 1, 64, 0
3, 76440, Note_on_c, 1, 39, 68
3, 76440, Note_on_c, 1, 43, 76
3, 76440, Note_on_c, 1, 51, 93
3, 76456, Control_c, 1, 64, 127
3, 76507, Note_on_c, 1, 51, 0
3, 76508, Note_on_c, 1, 43, 0
3, 76512, Note_on_c, 1, 39, 0
3, 76555, Control_c, 1, 64, 0
3, 76854, Control_c, 1, 64, 127
3, 76860, Note_on_c, 1, 63, 72
3, 76860, Note_on_c, 1, 68, 76
3, 76860, Note_on_c, 1, 60, 76
3, 76877, Note_on_c, 1, 63, 0
3, 76887, Note_on_c, 1, 60, 0
3, 76887, Note_on_c, 1, 68, 0
3, 76912, Control_c, 1, 64, 0
3, 76920, Note_on_c, 1, 58, 68
3, 76920, Note_on_c, 1, 67, 80
3, 76920, Note_on_c, 1, 62, 68
3, 76928, Control_c, 1, 64, 127
3, 76940, Note_on_c, 1, 67, 0
3, 76947, Note_on_c, 1, 62, 0
3, 76956, Note_on_c, 1, 58, 0
3, 76973, Control_c, 1, 64, 0
3, 76980, Note_on_c, 1, 65, 64
3, 76980, Note_on_c, 1, 60, 76
3, 76980, Note_on_c, 1, 56, 68
3, 76987, Control_c, 1, 64, 127
3, 77002, Note_on_c, 1, 65, 0
3, 77003, Note_on_c, 1, 60, 0
3, 77010, Note_on_c, 1, 56, 0
3, 77025, Control_c, 1, 64, 0
3, 77039, Control_c, 1, 64, 127
3, 77040, Note_on_c, 1, 63, 72
3, 77040, Note_on_c, 1, 55, 72
3, 77040, Note_on_c, 1, 58, 60
3, 77063, Note_on_c, 1, 58, 0
3, 77063, Note_on_c, 1, 63, 0
3, 77071, Note_on_c, 1, 55, 0
3, 77090, Control_c, 1, 64, 0
3, 77100, Note_on_c, 1, 56, 64
3, 77100, Note_on_c, 1, 62, 80
3, 77100, Note_on_c, 1, 53, 64
3, 77104, Control_c, 1, 64, 127
3, 77115, Note_on_c, 1, 62, 0
3, 77122, Note_on_c, 1, 53, 0
3, 77125, Note_on_c, 1, 56, 0
3, 77151, Control_c, 1, 64, 0
3, 77160, Note_on_c, 1, 63, 72
3, 77160, Note_on_c, 1, 51, 60
3, 77160, Note_on_c, 1, 55, 72
3, 77165, Control_c, 1, 64, 127
3, 77179, Note_on_c, 1, 55, 0
3, 77179, Note_on_c, 1, 51, 0
3, 77180, Note_on_c, 1, 63, 0
3, 77190, Note_on_c, 1, 58, 72
3, 77190, Note_on_c, 1, 55, 56
3, 77201, Note_on_c, 1, 55, 0
3, 77203, Note_on_c, 1, 58, 0
3, 77211, Control_c, 1, 64, 0
3, 77220, Note_on_c, 1, 39, 85
3, 77220, Note_on_c, 1, 55, 72
3, 77220, Note_on_c, 1, 58, 76
3, 77225, Control_c, 1, 64, 127
3, 77236, Note_on_c, 1, 58, 0
3, 77238, Note_on_c, 1, 55, 0
3, 77250, Note_on_c, 1, 55, 56
3, 77250, Note_on_c, 1, 58, 62
3, 77263, Note_on_c, 1, 58, 0
3, 77263, Note_on_c, 1, 55, 0
3, 77270, Control_c, 1, 64, 0
3, 77277, Note_on_c, 1, 39, 0
3, 77280, Note_on_c, 1, 43, 76
3, 77280, Note_on_c, 1, 58, 72
3, 77280, Note_on_c, 1, 55, 72
3, 77284, Control_c, 1, 64, 127
3, 77296, Note_on_c, 1, 55, 0
3, 77296, Note_on_c, 1, 58, 0
3, 77310, Note_on_c, 1, 58, 72
3, 77310, Note_on_c, 1, 55, 62
3, 77322, Note_on_c, 1, 55, 0
3, 77323, Note_on_c, 1, 58, 0
3, 77329, Control_c, 1, 64, 0
3, 77338, Note_on_c, 1, 43, 0
3, 77340, Note_on_c, 1, 55, 64
3, 77340, Note_on_c, 1, 39, 76
3, 77340, Note_on_c, 1, 58, 76
3, 77343, Control_c, 1, 64, 127
3, 77355, Note_on_c, 1, 58, 0
3, 77355, Note_on_c, 1, 55, 0
3, 77370, Note_on_c, 1, 55, 80
3, 77370, Note_on_c, 1, 58, 72
3, 77371, Note_on_c, 1, 39, 0
3, 77382, Note_on_c, 1, 55, 0
3, 77383, Note_on_c, 1, 58, 0
3, 77387, Control_c, 1, 64, 0
3, 77400, Note_on_c, 1, 58, 68
3, 77400, Note_on_c, 1, 46, 89
3, 77400, Note_on_c, 1, 56, 62
3, 77401, Control_c, 1, 64, 127
3, 77419, Note_on_c, 1, 56, 0
3, 77420, Note_on_c, 1, 58, 0
3, 77430, Note_on_c, 1, 56, 60
3, 77430, Note_on_c, 1, 58, 56
3, 77442, Note_on_c, 1, 58, 0
3, 77444, Note_on_c, 1, 56, 0
3, 77446, Note_on_c, 1, 46, 0
3, 77451, Control_c, 1, 64, 0
3, 77460, Note_on_c, 1, 34, 72
3, 77460, Note_on_c, 1, 56, 62
3, 77460, Note_on_c, 1, 58, 62
3, 77465, Control_c, 1, 64, 127
3, 77476, Note_on_c, 1, 58, 0
3, 77477, Note_on_c, 1, 56, 0
3, 77490, Note_on_c, 1, 56, 62
3, 77490, Note_on_c, 1, 58, 62
3, 77500, Note_on_c, 1, 34, 0
3, 77502, Note_on_c, 1, 58, 0
3, 77504, Note_on_c, 1, 56, 0
3, 77508, Control_c, 1, 64, 0
3, 77520, Note_on_c, 1, 58, 62
3, 77520, Note_on_c, 1, 55, 76
3, 77522, Control_c, 1, 64, 127
3, 77536, Note_on_c, 1, 55, 0
3, 77539, Note_on_c, 1, 58, 0
3, 77550, Note_on_c, 1, 58, 59
3, 77550, Note_on_c, 1, 55, 60
3, 77561, Note_on_c, 1, 55, 0
3, 77563, Note_on_c, 1, 58, 0
3, 77573, Control_c, 1, 64, 0
3, 77580, Note_on_c, 1, 58, 64
3, 77580, Note_on_c, 1, 55, 64
3, 77580, Note_on_c, 1, 39, 89
3, 77587, Control_c, 1, 64, 127
3, 77598, Note_on_c, 1, 55, 0
3, 77601, Note_on_c, 1, 58, 0
3, 77610, Note_on_c, 1, 58, 57
3, 77610, Note_on_c, 1, 55, 62
3, 77620, Note_on_c, 1, 55, 0
3, 77622, Note_on_c, 1, 58, 0
3, 77628, Note_on_c, 1, 39, 0
3, 77633, Control_c, 1, 64, 0
3, 77640, Note_on_c, 1, 58, 62
3, 77640, Note_on_c, 1, 43, 76
3, 77640, Note_on_c, 1, 55, 76
3, 77646, Control_c, 1, 64, 127
3, 77654, Note_on_c, 1, 55, 0
3, 77657, Note_on_c, 1, 58, 0
3, 77670, Note_on_c, 1, 58, 60
3, 77670, Note_on_c, 1, 55, 72
3, 77681, Note_on_c, 1, 55, 0
3, 77682, Note_on_c, 1, 58, 0
3, 77694, Control_c, 1, 64, 0
3, 77698, Note_on_c, 1, 43, 0
3, 77700, Note_on_c, 1, 39, 85
3, 77700, Note_on_c, 1, 58, 60
3, 77700, Note_on_c, 1, 55, 64
3, 77708, Control_c, 1, 64, 127
3, 77714, Note_on_c, 1, 55, 0
3, 77715, Note_on_c, 1, 58, 0
3, 77730, Note_on_c, 1, 55, 72
3, 77730, Note_on_c, 1, 58, 60
3, 77737, Note_on_c, 1, 39, 0
3, 77741, Note_on_c, 1, 58, 0
3, 77742, Note_on_c, 1, 55, 0
3, 77750, Control_c, 1, 64, 0
3, 77760, Note_on_c, 1, 58, 68
3, 77760, Note_on_c, 1, 56, 62
3, 77760, Note_on_c, 1, 46, 72
3, 77763, Control_c, 1, 64, 127
3, 77774, Note_on_c, 1, 56, 0
3, 77775, Note_on_c, 1, 58, 0
3, 77790, Note_on_c, 1, 56, 64
3, 77790, Note_on_c, 1, 58, 62
3, 77800, Note_on_c, 1, 46, 0
3, 77801, Note_on_c, 1, 58, 0
3, 77802, Note_on_c, 1, 56, 0
3, 77807, Control_c, 1, 64, 0
3, 77820, Note_on_c, 1, 34, 72
3, 77820, Note_on_c, 1, 56, 72
3, 77820, Note_on_c, 1, 58, 62
3, 77820, Control_c, 1, 64, 127
3, 77833, Note_on_c, 1, 58, 0
3, 77833, Note_on_c, 1, 56, 0
3, 77849, Note_on_c, 1, 34, 0
3, 77850, Note_on_c, 1, 56, 68
3, 77850, Note_on_c, 1, 58, 64
3, 77862, Note_on_c, 1, 58, 0
3, 77862, Note_on_c, 1, 56, 0
3, 77865, Control_c, 1, 64, 0
3, 77880, Note_on_c, 1, 58, 43
3, 77880, Note_on_c, 1, 58, 60
3, 77880, Note_on_c, 1, 55, 76
3, 77884, Note_on_c, 1, 58, 0
3, 77886, Control_c, 1, 64, 127
3, 77896, Note_on_c, 1, 55, 0
3, 77897, Note_on_c, 1, 58, 0
3, 77910, Note_on_c, 1, 55, 60
3, 77910, Note_on_c, 1, 58, 53
3, 77921, Note_on_c, 1, 58, 0
3, 77921, Note_on_c, 1, 55, 0
3, 77940, Note_on_c, 1, 58, 72
3, 77940, Note_on_c, 1, 39, 76
3, 77940, Note_on_c, 1, 55, 72
3, 77952, Note_on_c, 1, 55, 0
3, 77955, Note_on_c, 1, 58, 0
3, 77970, Note_on_c, 1, 55, 62
3, 77970, Note_on_c, 1, 58, 60
3, 77980, Note_on_c, 1, 55, 0
3, 77981, Note_on_c, 1, 58, 0
3, 77984, Note_on_c, 1, 39, 0
3, 78000, Note_on_c, 1, 43, 80
3, 78000, Note_on_c, 1, 55, 72
3, 78000, Note_on_c, 1, 58, 68
3, 78006, Control_c, 1, 64, 0
3, 78013, Note_on_c, 1, 55, 0
3, 78015, Note_on_c, 1, 58, 0
3, 78020, Control_c, 1, 64, 127
3, 78030, Note_on_c, 1, 55, 68
3, 78030, Note_on_c, 1, 58, 62
3, 78042, Note_on_c, 1, 58, 0
3, 78042, Note_on_c, 1, 55, 0
3, 78042, Note_on_c, 1, 43, 0
3, 78060, Note_on_c, 1, 39, 60
3, 78060, Note_on_c, 1, 58, 62
3, 78060, Note_on_c, 1, 55, 68
3, 78066, Control_c, 1, 64, 0
3, 78074, Note_on_c, 1, 55, 0
3, 78075, Note_on_c, 1, 58, 0
3, 78079, Control_c, 1, 64, 127
3, 78090, Note_on_c, 1, 58, 62
3, 78090, Note_on_c, 1, 55, 68
3, 78093, Note_on_c, 1, 39, 0
3, 78102, Note_on_c, 1, 55, 0
3, 78106, Note_on_c, 1, 58, 0
3, 78120, Note_on_c, 1, 56, 64
3, 78120, Note_on_c, 1, 46, 76
3, 78120, Note_on_c, 1, 53, 72
3, 78121, Control_c, 1, 64, 0
3, 78135, Note_on_c, 1, 56, 0
3, 78135, Control_c, 1, 64, 127
3, 78136, Note_on_c, 1, 53, 0
3, 78150, Note_on_c, 1, 53, 49
3, 78150, Note_on_c, 1, 56, 64
3, 78162, Note_on_c, 1, 56, 0
3, 78163, Note_on_c, 1, 53, 0
3, 78169, Note_on_c, 1, 46, 0
3, 78180, Note_on_c, 1, 53, 60
3, 78180, Note_on_c, 1, 56, 60
3, 78180, Note_on_c, 1, 34, 72
3, 78182, Control_c, 1, 64, 0
3, 78192, Note_on_c, 1, 53, 0
3, 78194, Control_c, 1, 64, 127
3, 78200, Note_on_c, 1, 56, 0
3, 78210, Note_on_c, 1, 50, 62
3, 78210, Note_on_c, 1, 53, 72
3, 78215, Note_on_c, 1, 34, 0
3, 78221, Note_on_c, 1, 53, 0
3, 78222, Note_on_c, 1, 50, 0
3, 78240, Note_on_c, 1, 39, 68
3, 78240, Note_on_c, 1, 46, 68
3, 78240, Note_on_c, 1, 50, 76
3, 78240, Note_on_c, 1, 53, 85
3, 78241, Control_c, 1, 64, 0
3, 78258, Control_c, 1, 64, 127
3, 78479, Control_c, 1, 64, 0
3, 78480, Note_on_c, 1, 39, 0
3, 78480, Note_on_c, 1, 51, 57
3, 78497, Control_c, 1, 64, 127
3, 78540, Note_on_c, 1, 46, 0
3, 78540, Note_on_c, 1, 53, 0
3, 78540, Note_on_c, 1, 50, 0
3, 78548, Note_on_c, 1, 51, 0
3, 78557, Control_c, 1, 64, 0
3, 78600, Control_c, 1, 11, 127
3, 78960, Note_on_c, 1, 34, 76
3, 78969, Control_c, 1, 64, 127
3, 79019, Note_on_c, 1, 34, 0
3, 79020, Note_on_c, 1, 46, 89
3, 79071, Control_c, 1, 64, 0
3, 79079, Note_on_c, 1, 46, 0
3, 79080, Note_on_c, 1, 46, 89
3, 79107, Control_c, 1, 64, 127
3, 79139, Note_on_c, 1, 46, 0
3, 79140, Note_on_c, 1, 46, 89
3, 79197, Control_c, 1, 64, 0
3, 79199, Note_on_c, 1, 46, 0
3, 79200, Note_on_c, 1, 34, 76
3, 79256, Control_c, 1, 64, 127
3, 79260, Note_on_c, 1, 46, 89
3, 79319, Note_on_c, 1, 46, 0
3, 79320, Note_on_c, 1, 34, 0
3, 79320, Note_on_c, 1, 46, 89
3, 79332, Control_c, 1, 64, 0
3, 79367, Control_c, 1, 64, 127
3, 79379, Note_on_c, 1, 46, 0
3, 79380, Note_on_c, 1, 46, 89
3, 79439, Note_on_c, 1, 46, 0
3, 79440, Control_c, 1, 64, 0
3, 79440, Note_on_c, 1, 34, 76
3, 79491, Control_c, 1, 64, 127
3, 79499, Note_on_c, 1, 34, 0
3, 79500, Note_on_c, 1, 46, 93
3, 79558, Control_c, 1, 64, 0
3, 79559, Note_on_c, 1, 46, 0
3, 79560, Note_on_c, 1, 46, 89
3, 79591, Control_c, 1, 64, 127
3, 79619, Note_on_c, 1, 46, 0
3, 79620, Note_on_c, 1, 46, 93
3, 79672, Control_c, 1, 64, 0
3, 79679, Note_on_c, 1, 46, 0
3, 79680, Note_on_c, 1, 46, 85
3, 79705, Control_c, 1, 64, 127
3, 79739, Note_on_c, 1, 46, 0
3, 79740, Note_on_c, 1, 46, 76
3, 79799, Note_on_c, 1, 46, 0
3, 79800, Note_on_c, 1, 46, 98
3, 79859, Note_on_c, 1, 46, 0
3, 79860, Note_on_c, 1, 46, 107
3, 79919, Note_on_c, 1, 46, 0
3, 79920, Note_on_c, 1, 34, 89
3, 79926, Control_c, 1, 64, 0
3, 79970, Control_c, 1, 64, 127
3, 79979, Note_on_c, 1, 34, 0
3, 79980, Note_on_c, 1, 46, 93
3, 80039, Note_on_c, 1, 46, 0
3, 80039, Control_c, 1, 64, 0
3, 80040, Note_on_c, 1, 46, 98
3, 80071, Control_c, 1, 64, 127
3, 80099, Note_on_c, 1, 46, 0
3, 80100, Note_on_c, 1, 46, 98
3, 80159, Note_on_c, 1, 46, 0
3, 80160, Note_on_c, 1, 34, 93
3, 80161, Control_c, 1, 64, 0
3, 80200, Control_c, 1, 64, 127
3, 80219, Note_on_c, 1, 34, 0
3, 80220, Note_on_c, 1, 46, 107
3, 80277, Control_c, 1, 64, 0
3, 80279, Note_on_c, 1, 46, 0
3, 80280, Note_on_c, 1, 46, 89
3, 80311, Control_c, 1, 64, 127
3, 80339, Note_on_c, 1, 46, 0
3, 80340, Note_on_c, 1, 46, 102
3, 80394, Control_c, 1, 64, 0
3, 80399, Note_on_c, 1, 46, 0
3, 80400, Note_on_c, 1, 46, 107
3, 80400, Note_on_c, 1, 34, 85
3, 80430, Control_c, 1, 64, 127
3, 80459, Note_on_c, 1, 34, 0
3, 80459, Note_on_c, 1, 46, 0
3, 80460, Note_on_c, 1, 46, 89
3, 80519, Note_on_c, 1, 46, 0
3, 80519, Control_c, 1, 64, 0
3, 80520, Note_on_c, 1, 46, 102
3, 80550, Control_c, 1, 64, 127
3, 80579, Note_on_c, 1, 46, 0
3, 80580, Note_on_c, 1, 46, 102
3, 80621, Control_c, 1, 64, 0
3, 80639, Note_on_c, 1, 46, 0
3, 80640, Note_on_c, 1, 46, 107
3, 80640, Note_on_c, 1, 34, 93
3, 80651, Control_c, 1, 64, 127
3, 80699, Note_on_c, 1, 34, 0
3, 80699, Note_on_c, 1, 46, 0
3, 80757, Control_c, 1, 64, 0
3, 82620, Note_on_c, 1, 46, 89
3, 82644, Control_c, 1, 64, 127
3, 82679, Note_on_c, 1, 46, 0
3, 82680, Note_on_c, 1, 50, 93
3, 82739, Note_on_c, 1, 50, 0
3, 82740, Note_on_c, 1, 62, 102
3, 82740, Note_on_c, 1, 46, 80
3, 82798, Control_c, 1, 64, 0
3, 82799, Note_on_c, 1, 46, 0
3, 82799, Note_on_c, 1, 62, 0
3, 82800, Note_on_c, 1, 63, 107
3, 82800, Note_on_c, 1, 48, 89
3, 82834, Control_c, 1, 64, 127
3, 82859, Note_on_c, 1, 48, 0
3, 82859, Note_on_c, 1, 63, 0
3, 82860, Note_on_c, 1, 65, 93
3, 82919, Note_on_c, 1, 65, 0
3, 82920, Control_c, 1, 64, 0
3, 82920, Note_on_c, 1, 67, 93
3, 82966, Control_c, 1, 64, 127
3, 82979, Note_on_c, 1, 67, 0
3, 82980, Note_on_c, 1, 63, 76
3, 83039, Note_on_c, 1, 63, 0
3, 83040, Note_on_c, 1, 60, 76
3, 83040, Note_on_c, 1, 45, 107
3, 83047, Control_c, 1, 64, 0
3, 83099, Note_on_c, 1, 60, 0
3, 83100, Note_on_c, 1, 62, 93
3, 83105, Control_c, 1, 64, 127
3, 83158, Control_c, 1, 64, 0
3, 83159, Note_on_c, 1, 62, 0
3, 83160, Note_on_c, 1, 45, 0
3, 83160, Note_on_c, 1, 63, 85
3, 83219, Note_on_c, 1, 63, 0
3, 83220, Note_on_c, 1, 60, 89
3, 83279, Note_on_c, 1, 60, 0
3, 83280, Note_on_c, 1, 62, 93
3, 83280, Note_on_c, 1, 46, 89
3, 83300, Control_c, 1, 64, 127
3, 83339, Note_on_c, 1, 46, 0
3, 83339, Note_on_c, 1, 62, 0
3, 83340, Note_on_c, 1, 63, 76
3, 83370, Control_c, 1, 64, 0
3, 83399, Note_on_c, 1, 63, 0
3, 83400, Note_on_c, 1, 65, 76
3, 83459, Note_on_c, 1, 65, 0
3, 83460, Note_on_c, 1, 62, 93
3, 83519, Note_on_c, 1, 62, 0
3, 83520, Note_on_c, 1, 58, 98
3, 83520, Note_on_c, 1, 50, 93
3, 83527, Control_c, 1, 64, 127
3, 83579, Note_on_c, 1, 50, 0
3, 83579, Note_on_c, 1, 58, 0
3, 83580, Note_on_c, 1, 60, 93
3, 83591, Control_c, 1, 64, 0
3, 83639, Note_on_c, 1, 60, 0
3, 83640, Note_on_c, 1, 62, 93
3, 83699, Note_on_c, 1, 62, 0
3, 83700, Note_on_c, 1, 58, 85
3, 83759, Note_on_c, 1, 58, 0
3, 83760, Note_on_c, 1, 51, 89
3, 83760, Note_on_c, 1, 55, 89
3, 83806, Control_c, 1, 64, 127
3, 83819, Note_on_c, 1, 55, 0
3, 83819, Note_on_c, 1, 51, 0
3, 83820, Note_on_c, 1, 63, 89
3, 83840, Control_c, 1, 64, 0
3, 83879, Note_on_c, 1, 63, 0
3, 83880, Note_on_c, 1, 62, 93
3, 83939, Note_on_c, 1, 62, 0
3, 83940, Note_on_c, 1, 60, 89
3, 83999, Note_on_c, 1, 60, 0
3, 84000, Note_on_c, 1, 62, 98
3, 84000, Note_on_c, 1, 53, 89
3, 84029, Note_on_c, 1, 62, 0
3, 84030, Note_on_c, 1, 60, 85
3, 84040, Control_c, 1, 64, 127
3, 84059, Note_on_c, 1, 60, 0
3, 84060, Note_on_c, 1, 58, 89
3, 84107, Control_c, 1, 64, 0
3, 84120, Note_on_c, 1, 58, 0
3, 84120, Note_on_c, 1, 53, 0
3, 84120, Note_on_c, 1, 60, 93
3, 84120, Note_on_c, 1, 41, 89
3, 84149, Note_on_c, 1, 60, 0
3, 84150, Note_on_c, 1, 58, 93
3, 84179, Note_on_c, 1, 58, 0
3, 84180, Note_on_c, 1, 57, 89
3, 84240, Note_on_c, 1, 57, 0
3, 84240, Note_on_c, 1, 41, 0
3, 84240, Note_on_c, 1, 58, 107
3, 84240, Note_on_c, 1, 46, 89
3, 84264, Control_c, 1, 64, 127
3, 84360, Note_on_c, 1, 46, 0
3, 84360, Note_on_c, 1, 58, 0
3, 84361, Control_c, 1, 64, 0
3, 84480, Note_on_c, 1, 60, 98
3, 84480, Note_on_c, 1, 57, 107
3, 84483, Control_c, 1, 64, 127
3, 84600, Note_on_c, 1, 57, 0
3, 84600, Note_on_c, 1, 60, 0
3, 84600, Control_c, 1, 64, 0
3, 84712, Control_c, 1, 64, 127
3, 84720, Note_on_c, 1, 62, 107
3, 84720, Note_on_c, 1, 58, 107
3, 84840, Note_on_c, 1, 58, 0
3, 84840, Note_on_c, 1, 62, 0
3, 84847, Control_c, 1, 64, 0
3, 84952, Control_c, 1, 64, 127
3, 84960, Note_on_c, 1, 63, 93
3, 84960, Note_on_c, 1, 60, 102
3, 85080, Note_on_c, 1, 60, 0
3, 85080, Note_on_c, 1, 63, 0
3, 85081, Control_c, 1, 64, 0
3, 85199, Control_c, 1, 64, 127
3, 85200, Note_on_c, 1, 62, 107
3, 85200, Note_on_c, 1, 65, 107
3, 85259, Note_on_c, 1, 65, 0
3, 85259, Note_on_c, 1, 62, 0
3, 85303, Control_c, 1, 64, 0
3, 85320, Note_on_c, 1, 63, 113
3, 85320, Note_on_c, 1, 45, 76
3, 85320, Note_on_c, 1, 41, 80
3, 85320, Note_on_c, 1, 48, 80
3, 85351, Control_c, 1, 64, 127
3, 85379, Note_on_c, 1, 63, 0
3, 85380, Note_on_c, 1, 60, 93
3, 85436, Control_c, 1, 64, 0
3, 85439, Note_on_c, 1, 60, 0
3, 85440, Note_on_c, 1, 63, 107
3, 85467, Control_c, 1, 64, 127
3, 85499, Note_on_c, 1, 63, 0
3, 85500, Note_on_c, 1, 60, 85
3, 85556, Control_c, 1, 64, 0
3, 85559, Note_on_c, 1, 60, 0
3, 85560, Note_on_c, 1, 48, 0
3, 85560, Note_on_c, 1, 41, 0
3, 85560, Note_on_c, 1, 45, 0
3, 85560, Note_on_c, 1, 62, 76
3, 85560, Note_on_c, 1, 46, 64
3, 85606, Control_c, 1, 64, 127
3, 85619, Note_on_c, 1, 46, 0
3, 85619, Note_on_c, 1, 62, 0
3, 85620, Note_on_c, 1, 58, 68
3, 85679, Note_on_c, 1, 58, 0
3, 85680, Note_on_c, 1, 60, 72
3, 85680, Note_on_c, 1, 53, 51
3, 85684, Control_c, 1, 64, 0
3, 85716, Control_c, 1, 64, 127
3, 85739, Note_on_c, 1, 53, 0
3, 85739, Note_on_c, 1, 60, 0
3, 85740, Note_on_c, 1, 57, 89
3, 85799, Note_on_c, 1, 57, 0
3, 85800, Note_on_c, 1, 48, 76
3, 85800, Note_on_c, 1, 63, 102
3, 85800, Note_on_c, 1, 45, 85
3, 85800, Note_on_c, 1, 41, 80
3, 85802, Control_c, 1, 64, 0
3, 85845, Control_c, 1, 64, 127
3, 85859, Note_on_c, 1, 63, 0
3, 85860, Note_on_c, 1, 60, 76
3, 85919, Note_on_c, 1, 60, 0
3, 85920, Note_on_c, 1, 63, 68
3, 85925, Control_c, 1, 64, 0
3, 85956, Control_c, 1, 64, 127
3, 85979, Note_on_c, 1, 63, 0
3, 85980, Note_on_c, 1, 48, 0
3, 85980, Note_on_c, 1, 45, 0
3, 85980, Note_on_c, 1, 41, 0
3, 85980, Note_on_c, 1, 60, 76
3, 86038, Control_c, 1, 64, 0
3, 86039, Note_on_c, 1, 60, 0
3, 86040, Note_on_c, 1, 62, 80
3, 86040, Note_on_c, 1, 46, 60
3, 86077, Control_c, 1, 64, 127
3, 86099, Note_on_c, 1, 46, 0
3, 86099, Note_on_c, 1, 62, 0
3, 86100, Note_on_c, 1, 58, 64
3, 86154, Control_c, 1, 64, 0
3, 86159, Note_on_c, 1, 58, 0
3, 86160, Note_on_c, 1, 60, 72
3, 86160, Note_on_c, 1, 53, 60
3, 86183, Control_c, 1, 64, 127
3, 86219, Note_on_c, 1, 53, 0
3, 86219, Note_on_c, 1, 60, 0
3, 86220, Note_on_c, 1, 57, 85
3, 86279, Note_on_c, 1, 57, 0
3, 86280, Note_on_c, 1, 48, 89
3, 86280, Note_on_c, 1, 63, 107
3, 86280, Note_on_c, 1, 41, 89
3, 86280, Note_on_c, 1, 45, 85
3, 86281, Control_c, 1, 64, 0
3, 86324, Control_c, 1, 64, 127
3, 86339, Note_on_c, 1, 63, 0
3, 86340, Note_on_c, 1, 60, 89
3, 86399, Note_on_c, 1, 60, 0
3, 86400, Control_c, 1, 64, 0
3, 86400, Note_on_c, 1, 63, 89
3, 86430, Control_c, 1, 64, 127
3, 86459, Note_on_c, 1, 63, 0
3, 86460, Note_on_c, 1, 60, 93
3, 86513, Control_c, 1, 64, 0
3, 86519, Note_on_c, 1, 60, 0
3, 86520, Note_on_c, 1, 45, 0
3, 86520, Note_on_c, 1, 41, 0
3, 86520, Note_on_c, 1, 48, 0
3, 86520, Note_on_c, 1, 62, 102
3, 86520, Note_on_c, 1, 46, 89
3, 86544, Control_c, 1, 64, 127
3, 86579, Note_on_c, 1, 46, 0
3, 86579, Note_on_c, 1, 62, 0
3, 86580, Note_on_c, 1, 58, 85
3, 86628, Control_c, 1, 64, 0
3, 86639, Note_on_c, 1, 58, 0
3, 86640, Note_on_c, 1, 60, 89
3, 86640, Note_on_c, 1, 57, 102
3, 86640, Note_on_c, 1, 41, 89
3, 86659, Control_c, 1, 64, 127
3, 86760, Note_on_c, 1, 41, 0
3, 86760, Note_on_c, 1, 57, 0
3, 86760, Note_on_c, 1, 60, 0
3, 86760, Control_c, 1, 64, 0
3, 87120, Note_on_c, 1, 60, 68
3, 87125, Control_c, 1, 64, 127
3, 87179, Note_on_c, 1, 60, 0
3, 87180, Note_on_c, 1, 60, 72
3, 87239, Note_on_c, 1, 60, 0
3, 87240, Note_on_c, 1, 60, 76
3, 87299, Note_on_c, 1, 60, 0
3, 87300, Note_on_c, 1, 60, 76
3, 87359, Note_on_c, 1, 60, 0
3, 87360, Note_on_c, 1, 60, 80
3, 87419, Note_on_c, 1, 60, 0
3, 87420, Note_on_c, 1, 60, 89
3, 87479, Note_on_c, 1, 60, 0
3, 87480, Note_on_c, 1, 60, 89
3, 87539, Note_on_c, 1, 60, 0
3, 87540, Note_on_c, 1, 60, 89
3, 87598, Control_c, 1, 64, 0
3, 87599, Note_on_c, 1, 60, 0
3, 87600, Note_on_c, 1, 52, 85
3, 87600, Note_on_c, 1, 48, 72
3, 87634, Control_c, 1, 64, 127
3, 87659, Note_on_c, 1, 52, 0
3, 87660, Note_on_c, 1, 60, 80
3, 87719, Note_on_c, 1, 60, 0
3, 87720, Note_on_c, 1, 48, 0
3, 87720, Note_on_c, 1, 52, 72
3, 87720, Control_c, 1, 64, 0
3, 87751, Control_c, 1, 64, 127
3, 87779, Note_on_c, 1, 52, 0
3, 87780, Note_on_c, 1, 60, 76
3, 87832, Control_c, 1, 64, 0
3, 87839, Note_on_c, 1, 60, 0
3, 87840, Note_on_c, 1, 52, 76
3, 87861, Control_c, 1, 64, 127
3, 87899, Note_on_c, 1, 52, 0
3, 87900, Note_on_c, 1, 60, 80
3, 87954, Control_c, 1, 64, 0
3, 87959, Note_on_c, 1, 60, 0
3, 87960, Note_on_c, 1, 53, 72
3, 87983, Control_c, 1, 64, 127
3, 88019, Note_on_c, 1, 53, 0
3, 88020, Note_on_c, 1, 60, 85
3, 88079, Note_on_c, 1, 60, 0
3, 88080, Note_on_c, 1, 48, 80
3, 88080, Note_on_c, 1, 55, 89
3, 88088, Control_c, 1, 64, 0
3, 88122, Control_c, 1, 64, 127
3, 88139, Note_on_c, 1, 55, 0
3, 88140, Note_on_c, 1, 60, 80
3, 88199, Note_on_c, 1, 60, 0
3, 88200, Note_on_c, 1, 48, 0
3, 88200, Note_on_c, 1, 55, 85
3, 88210, Control_c, 1, 64, 0
3, 88249, Control_c, 1, 64, 127
3, 88259, Note_on_c, 1, 55, 0
3, 88260, Note_on_c, 1, 60, 68
3, 88319, Note_on_c, 1, 60, 0
3, 88320, Note_on_c, 1, 55, 85
3, 88324, Control_c, 1, 64, 0
3, 88353, Control_c, 1, 64, 127
3, 88379, Note_on_c, 1, 55, 0
3, 88380, Note_on_c, 1, 60, 68
3, 88430, Control_c, 1, 64, 0
3, 88439, Note_on_c, 1, 60, 0
3, 88440, Note_on_c, 1, 58, 80
3, 88458, Control_c, 1, 64, 127
3, 88499, Note_on_c, 1, 58, 0
3, 88500, Note_on_c, 1, 60, 85
3, 88557, Control_c, 1, 64, 0
3, 88559, Note_on_c, 1, 60, 0
3, 88560, Note_on_c, 1, 41, 76
3, 88560, Note_on_c, 1, 57, 85
3, 88592, Control_c, 1, 64, 127
3, 88619, Note_on_c, 1, 57, 0
3, 88620, Note_on_c, 1, 60, 76
3, 88677, Control_c, 1, 64, 0
3, 88679, Note_on_c, 1, 60, 0
3, 88680, Note_on_c, 1, 41, 0
3, 88680, Note_on_c, 1, 53, 80
3, 88709, Control_c, 1, 64, 127
3, 88739, Note_on_c, 1, 53, 0
3, 88740, Note_on_c, 1, 60, 85
3, 88792, Control_c, 1, 64, 0
3, 88799, Note_on_c, 1, 60, 0
3, 88800, Note_on_c, 1, 36, 98
3, 88800, Note_on_c, 1, 52, 76
3, 88825, Control_c, 1, 64, 127
3, 88859, Note_on_c, 1, 52, 0
3, 88860, Note_on_c, 1, 60, 68
3, 88910, Control_c, 1, 64, 0
3, 88919, Note_on_c, 1, 60, 0
3, 88920, Note_on_c, 1, 36, 0
3, 88920, Note_on_c, 1, 48, 68
3, 88920, Note_on_c, 1, 40, 93
3, 88957, Control_c, 1, 64, 127
3, 88979, Note_on_c, 1, 48, 0
3, 88980, Note_on_c, 1, 60, 80
3, 89028, Control_c, 1, 64, 0
3, 89039, Note_on_c, 1, 60, 0
3, 89040, Note_on_c, 1, 40, 0
3, 89040, Note_on_c, 1, 41, 85
3, 89040, Note_on_c, 1, 48, 72
3, 89065, Control_c, 1, 64, 127
3, 89099, Note_on_c, 1, 48, 0
3, 89100, Note_on_c, 1, 60, 85
3, 89148, Control_c, 1, 64, 0
3, 89159, Note_on_c, 1, 60, 0
3, 89160, Note_on_c, 1, 41, 0
3, 89160, Note_on_c, 1, 53, 72
3, 89160, Note_on_c, 1, 45, 80
3, 89182, Control_c, 1, 64, 127
3, 89219, Note_on_c, 1, 45, 0
3, 89219, Note_on_c, 1, 53, 0
3, 89220, Note_on_c, 1, 60, 68
3, 89263, Control_c, 1, 64, 0
3, 89279, Note_on_c, 1, 60, 0
3, 89280, Note_on_c, 1, 52, 85
3, 89280, Note_on_c, 1, 48, 76
3, 89295, Control_c, 1, 64, 127
3, 89339, Note_on_c, 1, 52, 0
3, 89340, Note_on_c, 1, 60, 76
3, 89392, Control_c, 1, 64, 0
3, 89399, Note_on_c, 1, 60, 0
3, 89400, Note_on_c, 1, 48, 0
3, 89400, Note_on_c, 1, 55, 85
3, 89429, Control_c, 1, 64, 127
3, 89459, Note_on_c, 1, 55, 0
3, 89460, Note_on_c, 1, 60, 89
3, 89505, Control_c, 1, 64, 0
3, 89519, Note_on_c, 1, 60, 0
3, 89520, Note_on_c, 1, 48, 72
3, 89520, Note_on_c, 1, 52, 80
3, 89536, Control_c, 1, 64, 127
3, 89579, Note_on_c, 1, 52, 0
3, 89579, Note_on_c, 1, 48, 0
3, 89580, Note_on_c, 1, 60, 76
3, 89637, Control_c, 1, 64, 0
3, 89639, Note_on_c, 1, 60, 0
3, 89640, Note_on_c, 1, 52, 68
3, 89670, Control_c, 1, 64, 127
3, 89699, Note_on_c, 1, 52, 0
3, 89700, Note_on_c, 1, 60, 72
3, 89752, Control_c, 1, 64, 0
3, 89759, Note_on_c, 1, 60, 0
3, 89760, Note_on_c, 1, 52, 64
3, 89779, Control_c, 1, 64, 127
3, 89819, Note_on_c, 1, 52, 0
3, 89820, Note_on_c, 1, 60, 85
3, 89874, Control_c, 1, 64, 0
3, 89879, Note_on_c, 1, 60, 0
3, 89880, Note_on_c, 1, 53, 89
3, 89903, Control_c, 1, 64, 127
3, 89939, Note_on_c, 1, 53, 0
3, 89940, Note_on_c, 1, 60, 89
3, 89999, Note_on_c, 1, 60, 0
3, 89999, Control_c, 1, 64, 0
3, 90000, Note_on_c, 1, 48, 98
3, 90000, Note_on_c, 1, 55, 93
3, 90029, Control_c, 1, 64, 127
3, 90059, Note_on_c, 1, 55, 0
3, 90059, Note_on_c, 1, 48, 0
3, 90060, Note_on_c, 1, 60, 85
3, 90119, Note_on_c, 1, 60, 0
3, 90120, Note_on_c, 1, 55, 80
3, 90123, Control_c, 1, 64, 0
3, 90160, Control_c, 1, 64, 127
3, 90179, Note_on_c, 1, 55, 0
3, 90180, Note_on_c, 1, 60, 76
3, 90238, Control_c, 1, 64, 0
3, 90239, Note_on_c, 1, 60, 0
3, 90240, Note_on_c, 1, 55, 76
3, 90268, Control_c, 1, 64, 127
3, 90299, Note_on_c, 1, 55, 0
3, 90300, Note_on_c, 1, 60, 76
3, 90344, Control_c, 1, 64, 0
3, 90359, Note_on_c, 1, 60, 0
3, 90360, Note_on_c, 1, 58, 76
3, 90373, Control_c, 1, 64, 127
3, 90419, Note_on_c, 1, 58, 0
3, 90420, Note_on_c, 1, 60, 93
3, 90467, Control_c, 1, 64, 0
3, 90479, Note_on_c, 1, 60, 0
3, 90480, Note_on_c, 1, 41, 102
3, 90498, Control_c, 1, 64, 127
3, 90539, Note_on_c, 1, 41, 0
3, 90540, Note_on_c, 1, 53, 113
3, 90575, Control_c, 1, 64, 0
3, 90599, Note_on_c, 1, 53, 0
3, 90600, Note_on_c, 1, 40, 93
3, 90614, Control_c, 1, 64, 127
3, 90659, Note_on_c, 1, 40, 0
3, 90660, Note_on_c, 1, 52, 113
3, 90706, Control_c, 1, 64, 0
3, 90719, Note_on_c, 1, 52, 0
3, 90720, Note_on_c, 1, 41, 98
3, 90743, Control_c, 1, 64, 127
3, 90779, Note_on_c, 1, 41, 0
3, 90780, Note_on_c, 1, 53, 98
3, 90824, Control_c, 1, 64, 0
3, 90839, Note_on_c, 1, 53, 0
3, 90840, Note_on_c, 1, 37, 93
3, 90869, Control_c, 1, 64, 127
3, 90899, Note_on_c, 1, 37, 0
3, 90900, Note_on_c, 1, 49, 119
3, 90940, Control_c, 1, 64, 0
3, 90959, Note_on_c, 1, 49, 0
3, 90960, Note_on_c, 1, 38, 102
3, 91002, Control_c, 1, 64, 127
3, 91019, Note_on_c, 1, 38, 0
3, 91020, Note_on_c, 1, 50, 113
3, 91051, Control_c, 1, 64, 0
3, 91079, Note_on_c, 1, 50, 0
3, 91080, Note_on_c, 1, 37, 102
3, 91117, Control_c, 1, 64, 127
3, 91139, Note_on_c, 1, 37, 0
3, 91140, Note_on_c, 1, 49, 119
3, 91197, Control_c, 1, 64, 0
3, 91199, Note_on_c, 1, 49, 0
3, 91200, Note_on_c, 1, 38, 93
3, 91253, Control_c, 1, 64, 127
3, 91259, Note_on_c, 1, 38, 0
3, 91260, Note_on_c, 1, 50, 107
3, 91319, Note_on_c, 1, 50, 0
3, 91320, Note_on_c, 1, 33, 98
3, 91320, Control_c, 1, 64, 0
3, 91369, Control_c, 1, 64, 127
3, 91379, Note_on_c, 1, 33, 0
3, 91380, Note_on_c, 1, 45, 102
3, 91425, Control_c, 1, 64, 0
3, 91439, Note_on_c, 1, 45, 0
3, 91440, Note_on_c, 1, 34, 89
3, 91472, Control_c, 1, 64, 127
3, 91499, Note_on_c, 1, 34, 0
3, 91500, Note_on_c, 1, 46, 119
3, 91537, Control_c, 1, 64, 0
3, 91559, Note_on_c, 1, 46, 0
3, 91560, Note_on_c, 1, 33, 93
3, 91586, Control_c, 1, 64, 127
3, 91619, Note_on_c, 1, 33, 0
3, 91620, Note_on_c, 1, 45, 127
3, 91661, Control_c, 1, 64, 0
3, 91679, Note_on_c, 1, 45, 0
3, 91680, Note_on_c, 1, 34, 89
3, 91708, Control_c, 1, 64, 127
3, 91739, Note_on_c, 1, 34, 0
3, 91740, Note_on_c, 1, 46, 113
3, 91787, Control_c, 1, 64, 0
3, 91799, Note_on_c, 1, 46, 0
3, 91800, Note_on_c, 1, 31, 102
3, 91825, Control_c, 1, 64, 127
3, 91859, Note_on_c, 1, 31, 0
3, 91860, Note_on_c, 1, 43, 107
3, 91919, Note_on_c, 1, 43, 0
3, 91920, Note_on_c, 1, 36, 98
3, 91922, Control_c, 1, 64, 0
3, 91974, Control_c, 1, 64, 127
3, 91979, Note_on_c, 1, 36, 0
3, 91980, Note_on_c, 1, 48, 113
3, 92032, Control_c, 1, 64, 0
3, 92039, Note_on_c, 1, 48, 0
3, 92040, Note_on_c, 1, 35, 89
3, 92084, Control_c, 1, 64, 127
3, 92100, Note_on_c, 1, 47, 113
3, 92151, Control_c, 1, 64, 0
3, 92159, Note_on_c, 1, 47, 0
3, 92160, Note_on_c, 1, 35, 0
3, 92160, Note_on_c, 1, 36, 102
3, 92196, Control_c, 1, 64, 127
3, 92219, Note_on_c, 1, 36, 0
3, 92220, Note_on_c, 1, 48, 107
3, 92268, Control_c, 1, 64, 0
3, 92279, Note_on_c, 1, 48, 0
3, 92280, Note_on_c, 1, 36, 89
3, 92306, Control_c, 1, 64, 127
3, 92339, Note_on_c, 1, 36, 0
3, 92340, Note_on_c, 1, 48, 89
3, 92389, Control_c, 1, 64, 0
3, 92399, Note_on_c, 1, 48, 0
3, 92400, Note_on_c, 1, 41, 72
3, 92430, Control_c, 1, 64, 127
3, 92459, Note_on_c, 1, 41, 0
3, 92460, Note_on_c, 1, 53, 76
3, 92497, Control_c, 1, 64, 0
3, 92519, Note_on_c, 1, 53, 0
3, 92520, Note_on_c, 1, 40, 76
3, 92544, Control_c, 1, 64, 127
3, 92579, Note_on_c, 1, 40, 0
3, 92580, Note_on_c, 1, 52, 76
3, 92622, Control_c, 1, 64, 0
3, 92639, Note_on_c, 1, 52, 0
3, 92640, Note_on_c, 1, 41, 85
3, 92659, Control_c, 1, 64, 127
3, 92699, Note_on_c, 1, 41, 0
3, 92700, Note_on_c, 1, 53, 85
3, 92730, Control_c, 1, 64, 0
3, 92759, Note_on_c, 1, 53, 0
3, 92760, Note_on_c, 1, 37, 64
3, 92775, Control_c, 1, 64, 127
3, 92819, Note_on_c, 1, 37, 0
3, 92820, Note_on_c, 1, 49, 89
3, 92862, Control_c, 1, 64, 0
3, 92879, Note_on_c, 1, 49, 0
3, 92880, Note_on_c, 1, 38, 85
3, 92902, Control_c, 1, 64, 127
3, 92939, Note_on_c, 1, 38, 0
3, 92940, Note_on_c, 1, 50, 89
3, 92979, Control_c, 1, 64, 0
3, 92999, Note_on_c, 1, 50, 0
3, 93000, Note_on_c, 1, 37, 76
3, 93025, Control_c, 1, 64, 127
3, 93059, Note_on_c, 1, 37, 0
3, 93060, Note_on_c, 1, 49, 93
3, 93106, Control_c, 1, 64, 0
3, 93119, Note_on_c, 1, 49, 0
3, 93120, Note_on_c, 1, 38, 85
3, 93147, Control_c, 1, 64, 127
3, 93179, Note_on_c, 1, 38, 0
3, 93180, Note_on_c, 1, 50, 89
3, 93218, Control_c, 1, 64, 0
3, 93239, Note_on_c, 1, 50, 0
3, 93240, Note_on_c, 1, 33, 72
3, 93263, Control_c, 1, 64, 127
3, 93299, Note_on_c, 1, 33, 0
3, 93300, Note_on_c, 1, 45, 98
3, 93337, Control_c, 1, 64, 0
3, 93359, Note_on_c, 1, 45, 0
3, 93360, Note_on_c, 1, 34, 72
3, 93382, Control_c, 1, 64, 127
3, 93419, Note_on_c, 1, 34, 0
3, 93420, Note_on_c, 1, 46, 93
3, 93449, Control_c, 1, 64, 0
3, 93479, Note_on_c, 1, 46, 0
3, 93480, Note_on_c, 1, 33, 68
3, 93495, Control_c, 1, 64, 127
3, 93539, Note_on_c, 1, 33, 0
3, 93540, Note_on_c, 1, 45, 102
3, 93579, Control_c, 1, 64, 0
3, 93599, Note_on_c, 1, 45, 0
3, 93600, Note_on_c, 1, 34, 68
3, 93618, Control_c, 1, 64, 127
3, 93659, Note_on_c, 1, 34, 0
3, 93660, Note_on_c, 1, 46, 102
3, 93700, Control_c, 1, 64, 0
3, 93719, Note_on_c, 1, 46, 0
3, 93720, Note_on_c, 1, 31, 89
3, 93739, Control_c, 1, 64, 127
3, 93779, Note_on_c, 1, 31, 0
3, 93780, Note_on_c, 1, 43, 89
3, 93823, Control_c, 1, 64, 0
3, 93839, Note_on_c, 1, 43, 0
3, 93840, Note_on_c, 1, 36, 85
3, 93862, Control_c, 1, 64, 127
3, 93899, Note_on_c, 1, 36, 0
3, 93900, Note_on_c, 1, 48, 89
3, 93942, Control_c, 1, 64, 0
3, 93959, Note_on_c, 1, 48, 0
3, 93960, Note_on_c, 1, 35, 89
3, 93982, Control_c, 1, 64, 127
3, 94019, Note_on_c, 1, 35, 0
3, 94020, Note_on_c, 1, 47, 85
3, 94065, Control_c, 1, 64, 0
3, 94079, Note_on_c, 1, 47, 0
3, 94080, Note_on_c, 1, 36, 89
3, 94102, Control_c, 1, 64, 127
3, 94139, Note_on_c, 1, 36, 0
3, 94140, Note_on_c, 1, 48, 93
3, 94187, Control_c, 1, 64, 0
3, 94199, Note_on_c, 1, 48, 0
3, 94200, Note_on_c, 1, 36, 80
3, 94221, Control_c, 1, 64, 127
3, 94259, Note_on_c, 1, 36, 0
3, 94260, Note_on_c, 1, 48, 89
3, 94299, Control_c, 1, 64, 0
3, 94319, Note_on_c, 1, 48, 0
3, 94320, Note_on_c, 1, 41, 89
3, 94320, Note_on_c, 1, 53, 89
3, 94327, Control_c, 1, 64, 127
3, 94379, Note_on_c, 1, 53, 0
3, 94379, Note_on_c, 1, 41, 0
3, 94433, Control_c, 1, 64, 0
3, 95880, Note_on_c, 1, 53, 107
3, 95880, Note_on_c, 1, 57, 107
3, 95880, Note_on_c, 1, 50, 93
3, 95901, Control_c, 1, 64, 127
3, 95939, Note_on_c, 1, 50, 0
3, 95939, Note_on_c, 1, 57, 0
3, 95939, Note_on_c, 1, 53, 0
3, 95990, Control_c, 1, 64, 0
3, 96000, Note_on_c, 1, 46, 98
3, 96000, Note_on_c, 1, 58, 89
3, 96000, Note_on_c, 1, 55, 102
3, 96023, Control_c, 1, 64, 127
3, 96059, Note_on_c, 1, 55, 0
3, 96059, Note_on_c, 1, 58, 0
3, 96059, Note_on_c, 1, 46, 0
3, 96111, Control_c, 1, 64, 0
3, 96120, Note_on_c, 1, 55, 98
3, 96120, Note_on_c, 1, 48, 89
3, 96120, Note_on_c, 1, 52, 98
3, 96139, Control_c, 1, 64, 127
3, 96179, Note_on_c, 1, 52, 0
3, 96179, Note_on_c, 1, 48, 0
3, 96179, Note_on_c, 1, 55, 0
3, 96239, Control_c, 1, 64, 0
3, 96240, Note_on_c, 1, 57, 89
3, 96240, Note_on_c, 1, 41, 80
3, 96270, Note_on_c, 1, 41, 0
3, 96270, Note_on_c, 1, 57, 0
3, 96300, Note_on_c, 1, 58, 72
3, 96300, Note_on_c, 1, 43, 72
3, 96330, Note_on_c, 1, 43, 0
3, 96330, Note_on_c, 1, 58, 0
3, 96360, Note_on_c, 1, 45, 76
3, 96360, Note_on_c, 1, 60, 76
3, 96390, Note_on_c, 1, 60, 0
3, 96390, Note_on_c, 1, 45, 0
3, 96420, Note_on_c, 1, 43, 72
3, 96420, Note_on_c, 1, 58, 76
3, 96450, Note_on_c, 1, 58, 0
3, 96450, Note_on_c, 1, 43, 0
3, 96480, Note_on_c, 1, 41, 64
3, 96480, Note_on_c, 1, 57, 76
3, 96496, Control_c, 1, 64, 127
3, 96539, Note_on_c, 1, 57, 0
3, 96539, Note_on_c, 1, 41, 0
3, 96540, Note_on_c, 1, 55, 62
3, 96540, Note_on_c, 1, 40, 56
3, 96552, Control_c, 1, 64, 0
3, 96599, Note_on_c, 1, 40, 0
3, 96599, Note_on_c, 1, 55, 0
3, 96600, Note_on_c, 1, 53, 72
3, 96600, Note_on_c, 1, 38, 80
3, 96632, Control_c, 1, 64, 127
3, 96659, Note_on_c, 1, 38, 0
3, 96659, Note_on_c, 1, 53, 0
3, 96660, Note_on_c, 1, 37, 48
3, 96660, Note_on_c, 1, 52, 76
3, 96719, Note_on_c, 1, 52, 0
3, 96719, Note_on_c, 1, 37, 0
3, 96720, Note_on_c, 1, 38, 80
3, 96720, Note_on_c, 1, 53, 72
3, 96728, Control_c, 1, 64, 0
3, 96779, Note_on_c, 1, 53, 0
3, 96779, Note_on_c, 1, 38, 0
3, 96780, Note_on_c, 1, 55, 76
3, 96780, Note_on_c, 1, 40, 76
3, 96839, Note_on_c, 1, 40, 0
3, 96839, Note_on_c, 1, 55, 0
3, 96840, Note_on_c, 1, 41, 68
3, 96840, Note_on_c, 1, 57, 85
3, 96899, Note_on_c, 1, 57, 0
3, 96899, Note_on_c, 1, 41, 0
3, 96900, Note_on_c, 1, 40, 72
3, 96900, Note_on_c, 1, 55, 76
3, 96936, Control_c, 1, 64, 127
3, 96951, Control_c, 1, 64, 0
3, 96959, Note_on_c, 1, 55, 0
3, 96959, Note_on_c, 1, 40, 0
3, 96960, Note_on_c, 1, 53, 76
3, 96960, Note_on_c, 1, 38, 68
3, 97019, Note_on_c, 1, 38, 0
3, 97019, Note_on_c, 1, 53, 0
3, 97020, Note_on_c, 1, 52, 72
3, 97020, Note_on_c, 1, 36, 76
3, 97079, Note_on_c, 1, 36, 0
3, 97079, Note_on_c, 1, 52, 0
3, 97080, Note_on_c, 1, 50, 80
3, 97080, Note_on_c, 1, 34, 76
3, 97122, Control_c, 1, 64, 127
3, 97129, Control_c, 1, 64, 0
3, 97139, Note_on_c, 1, 34, 0
3, 97139, Note_on_c, 1, 50, 0
3, 97140, Note_on_c, 1, 33, 72
3, 97140, Note_on_c, 1, 49, 72
3, 97177, Control_c, 1, 64, 127
3, 97199, Note_on_c, 1, 49, 0
3, 97199, Note_on_c, 1, 33, 0
3, 97200, Note_on_c, 1, 50, 89
3, 97200, Note_on_c, 1, 34, 89
3, 97206, Control_c, 1, 64, 0
3, 97259, Note_on_c, 1, 34, 0
3, 97259, Note_on_c, 1, 50, 0
3, 97260, Note_on_c, 1, 52, 85
3, 97260, Note_on_c, 1, 36, 76
3, 97319, Note_on_c, 1, 36, 0
3, 97319, Note_on_c, 1, 52, 0
3, 97320, Note_on_c, 1, 53, 76
3, 97320, Note_on_c, 1, 38, 93
3, 97379, Note_on_c, 1, 38, 0
3, 97379, Note_on_c, 1, 53, 0
3, 97380, Note_on_c, 1, 40, 85
3, 97380, Note_on_c, 1, 55, 89
3, 97415, Control_c, 1, 64, 127
3, 97432, Control_c, 1, 64, 0
3, 97439, Note_on_c, 1, 55, 0
3, 97439, Note_on_c, 1, 40, 0
3, 97440, Note_on_c, 1, 57, 93
3, 97440, Note_on_c, 1, 41, 89
3, 97480, Control_c, 1, 64, 127
3, 97488, Control_c, 1, 64, 0
3, 97499, Note_on_c, 1, 41, 0
3, 97499, Note_on_c, 1, 57, 0
3, 97500, Note_on_c, 1, 58, 85
3, 97500, Note_on_c, 1, 43, 76
3, 97525, Control_c, 1, 64, 127
3, 97550, Control_c, 1, 64, 0
3, 97559, Note_on_c, 1, 43, 0
3, 97559, Note_on_c, 1, 58, 0
3, 97560, Note_on_c, 1, 45, 80
3, 97560, Note_on_c, 1, 60, 93
3, 97578, Control_c, 1, 64, 127
3, 97619, Note_on_c, 1, 60, 0
3, 97619, Note_on_c, 1, 45, 0
3, 97620, Note_on_c, 1, 46, 76
3, 97620, Note_on_c, 1, 62, 89
3, 97674, Control_c, 1, 64, 0
3, 97679, Note_on_c, 1, 62, 0
3, 97679, Note_on_c, 1, 46, 0
3, 97680, Note_on_c, 1, 60, 89
3, 97680, Note_on_c, 1, 45, 85
3, 97708, Control_c, 1, 64, 127
3, 97800, Note_on_c, 1, 45, 0
3, 97800, Note_on_c, 1, 60, 0
3, 97800, Note_on_c, 1, 53, 89
3, 97800, Note_on_c, 1, 57, 98
3, 97800, Note_on_c, 1, 38, 102
3, 97802, Control_c, 1, 64, 0
3, 97833, Control_c, 1, 64, 127
3, 97859, Note_on_c, 1, 38, 0
3, 97859, Note_on_c, 1, 57, 0
3, 97859, Note_on_c, 1, 53, 0
3, 97920, Note_on_c, 1, 58, 93
3, 97920, Note_on_c, 1, 34, 60
3, 97920, Note_on_c, 1, 55, 98
3, 97922, Control_c, 1, 64, 0
3, 97955, Control_c, 1, 64, 127
3, 97979, Note_on_c, 1, 55, 0
3, 97979, Note_on_c, 1, 34, 0
3, 97979, Note_on_c, 1, 58, 0
3, 98027, Control_c, 1, 64, 0
3, 98040, Note_on_c, 1, 36, 93
3, 98040, Note_on_c, 1, 55, 93
3, 98040, Note_on_c, 1, 52, 93
3, 98058, Control_c, 1, 64, 127
3, 98099, Note_on_c, 1, 52, 0
3, 98099, Note_on_c, 1, 55, 0
3, 98099, Note_on_c, 1, 36, 0
3, 98150, Control_c, 1, 64, 0
3, 98160, Note_on_c, 1, 53, 102
3, 98160, Note_on_c, 1, 41, 89
3, 98181, Control_c, 1, 64, 127
3, 98219, Note_on_c, 1, 41, 0
3, 98219, Note_on_c, 1, 53, 0
3, 98277, Control_c, 1, 64, 0
3, 98280, Note_on_c, 1, 60, 107
3, 98280, Note_on_c, 1, 48, 93
3, 98310, Control_c, 1, 64, 127
3, 98400, Note_on_c, 1, 60, 0
3, 98460, Note_on_c, 1, 48, 0
3, 98509, Control_c, 1, 64, 0
3, 98520, Note_on_c, 1, 45, 68
3, 98520, Note_on_c, 1, 57, 80
3, 98545, Control_c, 1, 64, 127
3, 98579, Note_on_c, 1, 57, 0
3, 98579, Note_on_c, 1, 45, 0
3, 98580, Note_on_c, 1, 52, 68
3, 98580, Note_on_c, 1, 40, 56
3, 98624, Control_c, 1, 64, 0
3, 98639, Note_on_c, 1, 40, 0
3, 98639, Note_on_c, 1, 52, 0
3, 98640, Note_on_c, 1, 41, 64
3, 98640, Note_on_c, 1, 53, 80
3, 98653, Control_c, 1, 64, 127
3, 98699, Note_on_c, 1, 53, 0
3, 98699, Note_on_c, 1, 41, 0
3, 98753, Control_c, 1, 64, 0
3, 98760, Note_on_c, 1, 60, 113
3, 98760, Note_on_c, 1, 48, 98
3, 98788, Control_c, 1, 64, 127
3, 98940, Note_on_c, 1, 48, 0
3, 98940, Note_on_c, 1, 60, 0
3, 98995, Control_c, 1, 64, 0
3, 99000, Note_on_c, 1, 57, 72
3, 99000, Note_on_c, 1, 45, 72
3, 99025, Control_c, 1, 64, 127
3, 99059, Note_on_c, 1, 45, 0
3, 99059, Note_on_c, 1, 57, 0
3, 99060, Note_on_c, 1, 52, 76
3, 99060, Note_on_c, 1, 40, 60
3, 99108, Control_c, 1, 64, 0
3, 99119, Note_on_c, 1, 40, 0
3, 99119, Note_on_c, 1, 52, 0
3, 99120, Note_on_c, 1, 41, 64
3, 99120, Note_on_c, 1, 53, 76
3, 99139, Control_c, 1, 64, 127
3, 99179, Note_on_c, 1, 53, 0
3, 99179, Note_on_c, 1, 41, 0
3, 99233, Control_c, 1, 64, 0
3, 100080, Note_on_c, 1, 43, 76
3, 100090, Control_c, 1, 64, 127
3, 100139, Note_on_c, 1, 43, 0
3, 100140, Note_on_c, 1, 55, 72
3, 100199, Note_on_c, 1, 55, 0
3, 100200, Note_on_c, 1, 55, 80
3, 100209, Control_c, 1, 64, 0
3, 100239, Control_c, 1, 64, 127
3, 100259, Note_on_c, 1, 55, 0
3, 100260, Note_on_c, 1, 55, 85
3, 100319, Note_on_c, 1, 55, 0
3, 100320, Note_on_c, 1, 43, 93
3, 100323, Control_c, 1, 64, 0
3, 100355, Control_c, 1, 64, 127
3, 100380, Note_on_c, 1, 55, 98
3, 100439, Note_on_c, 1, 55, 0
3, 100440, Note_on_c, 1, 43, 0
3, 100440, Note_on_c, 1, 55, 85
3, 100443, Control_c, 1, 64, 0
3, 100474, Control_c, 1, 64, 127
3, 100499, Note_on_c, 1, 55, 0
3, 100500, Note_on_c, 1, 55, 85
3, 100558, Control_c, 1, 64, 0
3, 100559, Note_on_c, 1, 55, 0
3, 100560, Note_on_c, 1, 43, 89
3, 100590, Control_c, 1, 64, 127
3, 100619, Note_on_c, 1, 43, 0
3, 100620, Note_on_c, 1, 55, 98
3, 100679, Note_on_c, 1, 55, 0
3, 100680, Note_on_c, 1, 55, 89
3, 100689, Control_c, 1, 64, 0
3, 100720, Control_c, 1, 64, 127
3, 100739, Note_on_c, 1, 55, 0
3, 100740, Note_on_c, 1, 55, 85
3, 100799, Note_on_c, 1, 55, 0
3, 100800, Note_on_c, 1, 55, 93
3, 100805, Control_c, 1, 64, 0
3, 100831, Control_c, 1, 64, 127
3, 100859, Note_on_c, 1, 55, 0
3, 100860, Note_on_c, 1, 55, 72
3, 100919, Note_on_c, 1, 55, 0
3, 100920, Note_on_c, 1, 55, 98
3, 100979, Note_on_c, 1, 55, 0
3, 100980, Note_on_c, 1, 55, 80
3, 101039, Note_on_c, 1, 55, 0
3, 101040, Note_on_c, 1, 43, 89
3, 101045, Control_c, 1, 64, 0
3, 101081, Control_c, 1, 64, 127
3, 101099, Note_on_c, 1, 43, 0
3, 101100, Note_on_c, 1, 55, 98
3, 101159, Note_on_c, 1, 55, 0
3, 101160, Note_on_c, 1, 55, 89
3, 101172, Control_c, 1, 64, 0
3, 101201, Control_c, 1, 64, 127
3, 101219, Note_on_c, 1, 55, 0
3, 101220, Note_on_c, 1, 55, 93
3, 101278, Control_c, 1, 64, 0
3, 101279, Note_on_c, 1, 55, 0
3, 101280, Note_on_c, 1, 43, 85
3, 101310, Control_c, 1, 64, 127
3, 101339, Note_on_c, 1, 43, 0
3, 101340, Note_on_c, 1, 55, 93
3, 101395, Control_c, 1, 64, 0
3, 101399, Note_on_c, 1, 55, 0
3, 101400, Note_on_c, 1, 55, 93
3, 101424, Control_c, 1, 64, 127
3, 101459, Note_on_c, 1, 55, 0
3, 101460, Note_on_c, 1, 55, 76
3, 101519, Note_on_c, 1, 55, 0
3, 101520, Note_on_c, 1, 48, 89
3, 101521, Control_c, 1, 64, 0
3, 101556, Control_c, 1, 64, 127
3, 101579, Note_on_c, 1, 48, 0
3, 101580, Note_on_c, 1, 55, 93
3, 101639, Note_on_c, 1, 55, 0
3, 101640, Note_on_c, 1, 55, 93
3, 101643, Control_c, 1, 64, 0
3, 101676, Control_c, 1, 64, 127
3, 101699, Note_on_c, 1, 55, 0
3, 101700, Note_on_c, 1, 55, 85
3, 101753, Control_c, 1, 64, 0
3, 101759, Note_on_c, 1, 55, 0
3, 101760, Note_on_c, 1, 55, 102
3, 101760, Note_on_c, 1, 36, 93
3, 101788, Control_c, 1, 64, 127
3, 101819, Note_on_c, 1, 55, 0
3, 101820, Note_on_c, 1, 55, 89
3, 101879, Note_on_c, 1, 55, 0
3, 101880, Note_on_c, 1, 36, 0
3, 101880, Note_on_c, 1, 55, 85
3, 101899, Control_c, 1, 64, 0
3, 101936, Control_c, 1, 64, 127
3, 101939, Note_on_c, 1, 55, 0
3, 101940, Note_on_c, 1, 55, 85
3, 101999, Note_on_c, 1, 55, 0
3, 102000, Note_on_c, 1, 41, 85
3, 102011, Control_c, 1, 64, 0
3, 102060, Note_on_c, 1, 53, 93
3, 102078, Control_c, 1, 64, 127
3, 102119, Note_on_c, 1, 53, 0
3, 102120, Note_on_c, 1, 41, 0
3, 102120, Note_on_c, 1, 53, 80
3, 102142, Control_c, 1, 64, 0
3, 102175, Control_c, 1, 64, 127
3, 102179, Note_on_c, 1, 53, 0
3, 102180, Note_on_c, 1, 53, 89
3, 102239, Note_on_c, 1, 53, 0
3, 102240, Note_on_c, 1, 41, 89
3, 102242, Control_c, 1, 64, 0
3, 102275, Control_c, 1, 64, 127
3, 102299, Note_on_c, 1, 41, 0
3, 102300, Note_on_c, 1, 53, 102
3, 102316, Control_c, 1, 64, 0
3, 102343, Control_c, 1, 64, 127
3, 102359, Note_on_c, 1, 53, 0
3, 102360, Note_on_c, 1, 53, 80
3, 102419, Note_on_c, 1, 53, 0
3, 102420, Note_on_c, 1, 53, 85
3, 102443, Control_c, 1, 64, 0
3, 102479, Note_on_c, 1, 53, 0
3, 102480, Note_on_c, 1, 41, 89
3, 102496, Control_c, 1, 64, 127
3, 102539, Note_on_c, 1, 41, 0
3, 102540, Note_on_c, 1, 53, 93
3, 102595, Control_c, 1, 64, 0
3, 102599, Note_on_c, 1, 53, 0
3, 102600, Note_on_c, 1, 53, 93
3, 102623, Control_c, 1, 64, 127
3, 102659, Note_on_c, 1, 53, 0
3, 102660, Note_on_c, 1, 53, 80
3, 102706, Control_c, 1, 64, 0
3, 102719, Note_on_c, 1, 53, 0
3, 102720, Note_on_c, 1, 53, 98
3, 102738, Control_c, 1, 64, 127
3, 102779, Note_on_c, 1, 53, 0
3, 102780, Note_on_c, 1, 53, 89
3, 102839, Note_on_c, 1, 53, 0
3, 102840, Note_on_c, 1, 53, 98
3, 102899, Note_on_c, 1, 53, 0
3, 102900, Note_on_c, 1, 53, 98
3, 102959, Note_on_c, 1, 53, 0
3, 102960, Note_on_c, 1, 41, 89
3, 102969, Control_c, 1, 64, 0
3, 103007, Control_c, 1, 64, 127
3, 103019, Note_on_c, 1, 41, 0
3, 103020, Note_on_c, 1, 53, 102
3, 103079, Note_on_c, 1, 53, 0
3, 103080, Note_on_c, 1, 53, 93
3, 103097, Control_c, 1, 64, 0
3, 103129, Control_c, 1, 64, 127
3, 103139, Note_on_c, 1, 53, 0
3, 103140, Note_on_c, 1, 53, 89
3, 103197, Control_c, 1, 64, 0
3, 103199, Note_on_c, 1, 53, 0
3, 103200, Note_on_c, 1, 41, 85
3, 103231, Control_c, 1, 64, 127
3, 103259, Note_on_c, 1, 41, 0
3, 103260, Note_on_c, 1, 53, 107
3, 103289, Control_c, 1, 64, 0
3, 103319, Note_on_c, 1, 53, 0
3, 103320, Note_on_c, 1, 53, 89
3, 103321, Control_c, 1, 64, 127
3, 103379, Note_on_c, 1, 53, 0
3, 103380, Note_on_c, 1, 53, 80
3, 103436, Control_c, 1, 64, 0
3, 103439, Note_on_c, 1, 53, 0
3, 103440, Note_on_c, 1, 46, 89
3, 103454, Control_c, 1, 64, 127
3, 103499, Note_on_c, 1, 46, 0
3, 103500, Note_on_c, 1, 53, 89
3, 103556, Control_c, 1, 64, 0
3, 103559, Note_on_c, 1, 53, 0
3, 103560, Note_on_c, 1, 53, 98
3, 103591, Control_c, 1, 64, 127
3, 103619, Note_on_c, 1, 53, 0
3, 103620, Note_on_c, 1, 53, 85
3, 103670, Control_c, 1, 64, 0
3, 103679, Note_on_c, 1, 53, 0
3, 103680, Note_on_c, 1, 34, 76
3, 103680, Note_on_c, 1, 53, 107
3, 103707, Control_c, 1, 64, 127
3, 103739, Note_on_c, 1, 53, 0
3, 103739, Note_on_c, 1, 34, 0
3, 103740, Note_on_c, 1, 53, 72
3, 103799, Note_on_c, 1, 53, 0
3, 103800, Note_on_c, 1, 53, 107
3, 103804, Control_c, 1, 64, 0
3, 103859, Note_on_c, 1, 53, 0
3, 103860, Note_on_c, 1, 46, 85
3, 103860, Note_on_c, 1, 62, 93
3, 103862, Control_c, 1, 64, 127
3, 103915, Control_c, 1, 64, 0
3, 103919, Note_on_c, 1, 62, 0
3, 103919, Note_on_c, 1, 46, 0
3, 103920, Note_on_c, 1, 63, 93
3, 103920, Note_on_c, 1, 48, 89
3, 103963, Control_c, 1, 64, 127
3, 103979, Note_on_c, 1, 63, 0
3, 103980, Note_on_c, 1, 65, 85
3, 103990, Control_c, 1, 64, 0
3, 104024, Control_c, 1, 64, 127
3, 104039, Note_on_c, 1, 65, 0
3, 104040, Note_on_c, 1, 67, 93
3, 104099, Note_on_c, 1, 67, 0
3, 104100, Note_on_c, 1, 63, 89
3, 104141, Control_c, 1, 64, 0
3, 104159, Note_on_c, 1, 63, 0
3, 104160, Note_on_c, 1, 48, 0
3, 104160, Note_on_c, 1, 60, 89
3, 104160, Note_on_c, 1, 45, 89
3, 104194, Control_c, 1, 64, 127
3, 104219, Note_on_c, 1, 60, 0
3, 104220, Note_on_c, 1, 62, 93
3, 104260, Control_c, 1, 64, 0
3, 104279, Note_on_c, 1, 62, 0
3, 104280, Note_on_c, 1, 63, 76
3, 104300, Control_c, 1, 64, 127
3, 104335, Control_c, 1, 64, 0
3, 104339, Note_on_c, 1, 63, 0
3, 104340, Note_on_c, 1, 45, 0
3, 104340, Note_on_c, 1, 60, 93
3, 104399, Note_on_c, 1, 60, 0
3, 104400, Note_on_c, 1, 62, 102
3, 104400, Note_on_c, 1, 46, 80
3, 104411, Control_c, 1, 64, 127
3, 104459, Note_on_c, 1, 46, 0
3, 104459, Note_on_c, 1, 62, 0
3, 104460, Note_on_c, 1, 63, 80
3, 104510, Control_c, 1, 64, 0
3, 104519, Note_on_c, 1, 63, 0
3, 104520, Note_on_c, 1, 65, 93
3, 104550, Control_c, 1, 64, 127
3, 104579, Note_on_c, 1, 65, 0
3, 104580, Note_on_c, 1, 62, 89
3, 104630, Control_c, 1, 64, 0
3, 104639, Note_on_c, 1, 62, 0
3, 104640, Note_on_c, 1, 58, 89
3, 104640, Note_on_c, 1, 43, 85
3, 104676, Control_c, 1, 64, 127
3, 104699, Note_on_c, 1, 58, 0
3, 104700, Note_on_c, 1, 60, 76
3, 104732, Control_c, 1, 64, 0
3, 104759, Note_on_c, 1, 60, 0
3, 104760, Note_on_c, 1, 43, 0
3, 104760, Note_on_c, 1, 62, 93
3, 104780, Control_c, 1, 64, 127
3, 104819, Note_on_c, 1, 62, 0
3, 104820, Note_on_c, 1, 58, 76
3, 104874, Control_c, 1, 64, 0
3, 104879, Note_on_c, 1, 58, 0
3, 104880, Note_on_c, 1, 55, 93
3, 104880, Note_on_c, 1, 39, 76
3, 104927, Control_c, 1, 64, 127
3, 104939, Note_on_c, 1, 39, 0
3, 104939, Note_on_c, 1, 55, 0
3, 104940, Note_on_c, 1, 63, 85
3, 104973, Control_c, 1, 64, 0
3, 104999, Note_on_c, 1, 63, 0
3, 105000, Note_on_c, 1, 62, 85
3, 105014, Control_c, 1, 64, 127
3, 105059, Note_on_c, 1, 62, 0
3, 105060, Note_on_c, 1, 60, 89
3, 105118, Control_c, 1, 64, 0
3, 105119, Note_on_c, 1, 60, 0
3, 105120, Note_on_c, 1, 62, 98
3, 105120, Note_on_c, 1, 41, 85
3, 105149, Note_on_c, 1, 62, 0
3, 105150, Note_on_c, 1, 60, 90
3, 105179, Note_on_c, 1, 60, 0
3, 105180, Note_on_c, 1, 58, 62
3, 105240, Note_on_c, 1, 58, 0
3, 105240, Note_on_c, 1, 60, 89
3, 105255, Note_on_c, 1, 41, 0
3, 105270, Note_on_c, 1, 60, 0
3, 105270, Note_on_c, 1, 58, 64
3, 105300, Note_on_c, 1, 58, 0
3, 105300, Note_on_c, 1, 57, 80
3, 105360, Note_on_c, 1, 57, 0
3, 105360, Note_on_c, 1, 58, 85
3, 105360, Note_on_c, 1, 34, 76
3, 105378, Control_c, 1, 64, 127
3, 105419, Note_on_c, 1, 34, 0
3, 105419, Note_on_c, 1, 58, 0
3, 105420, Note_on_c, 1, 57, 89
3, 105441, Control_c, 1, 64, 0
3, 105479, Note_on_c, 1, 57, 0
3, 105480, Note_on_c, 1, 58, 89
3, 105539, Note_on_c, 1, 58, 0
3, 105540, Note_on_c, 1, 60, 89
3, 105599, Note_on_c, 1, 60, 0
3, 105600, Control_c, 1, 64, 127
3, 105600, Note_on_c, 1, 62, 93
3, 105659, Note_on_c, 1, 62, 0
3, 105660, Note_on_c, 1, 46, 80
3, 105719, Note_on_c, 1, 46, 0
3, 105720, Note_on_c, 1, 50, 89
3, 105729, Control_c, 1, 64, 0
3, 105779, Note_on_c, 1, 50, 0
3, 105780, Note_on_c, 1, 46, 85
3, 105839, Note_on_c, 1, 46, 0
3, 105840, Note_on_c, 1, 45, 89
3, 105857, Control_c, 1, 64, 127
3, 105960, Note_on_c, 1, 45, 0
3, 105964, Control_c, 1, 64, 0
3, 107326, Control_c, 1, 64, 127
3, 107340, Note_on_c, 1, 57, 89
3, 107399, Note_on_c, 1, 57, 0
3, 107400, Note_on_c, 1, 60, 93
3, 107400, Note_on_c, 1, 38, 93
3, 107400, Note_on_c, 1, 50, 80
3, 107407, Control_c, 1, 64, 0
3, 107459, Note_on_c, 1, 60, 0
3, 107460, Note_on_c, 1, 57, 85
3, 107463, Control_c, 1, 64, 127
3, 107519, Note_on_c, 1, 57, 0
3, 107520, Note_on_c, 1, 60, 76
3, 107530, Control_c, 1, 64, 0
3, 107565, Control_c, 1, 64, 127
3, 107579, Note_on_c, 1, 60, 0
3, 107580, Note_on_c, 1, 57, 72
3, 107639, Note_on_c, 1, 57, 0
3, 107640, Note_on_c, 1, 50, 0
3, 107640, Note_on_c, 1, 38, 0
3, 107640, Note_on_c, 1, 58, 72
3, 107640, Note_on_c, 1, 50, 89
3, 107651, Control_c, 1, 64, 0
3, 107697, Control_c, 1, 64, 127
3, 107699, Note_on_c, 1, 58, 0
3, 107700, Note_on_c, 1, 55, 64
3, 107759, Note_on_c, 1, 55, 0
3, 107760, Note_on_c, 1, 50, 0
3, 107760, Note_on_c, 1, 57, 89
3, 107760, Note_on_c, 1, 50, 72
3, 107764, Control_c, 1, 64, 0
3, 107794, Control_c, 1, 64, 127
3, 107819, Note_on_c, 1, 50, 0
3, 107819, Note_on_c, 1, 57, 0
3, 107820, Note_on_c, 1, 54, 55
3, 107871, Control_c, 1, 64, 0
3, 107879, Note_on_c, 1, 54, 0
3, 107880, Note_on_c, 1, 60, 93
3, 107880, Note_on_c, 1, 50, 93
3, 107880, Note_on_c, 1, 38, 113
3, 107919, Control_c, 1, 64, 127
3, 107939, Note_on_c, 1, 60, 0
3, 107940, Note_on_c, 1, 57, 76
3, 107999, Note_on_c, 1, 57, 0
3, 108000, Note_on_c, 1, 60, 80
3, 108005, Control_c, 1, 64, 0
3, 108037, Control_c, 1, 64, 127
3, 108059, Note_on_c, 1, 60, 0
3, 108060, Note_on_c, 1, 38, 0
3, 108060, Note_on_c, 1, 50, 0
3, 108060, Note_on_c, 1, 57, 64
3, 108119, Note_on_c, 1, 57, 0
3, 108120, Note_on_c, 1, 58, 62
3, 108120, Note_on_c, 1, 50, 76
3, 108122, Control_c, 1, 64, 0
3, 108156, Control_c, 1, 64, 127
3, 108179, Note_on_c, 1, 58, 0
3, 108180, Note_on_c, 1, 55, 68
3, 108234, Control_c, 1, 64, 0
3, 108239, Note_on_c, 1, 55, 0
3, 108240, Note_on_c, 1, 50, 0
3, 108240, Note_on_c, 1, 57, 85
3, 108240, Note_on_c, 1, 50, 62
3, 108265, Control_c, 1, 64, 127
3, 108299, Note_on_c, 1, 50, 0
3, 108299, Note_on_c, 1, 57, 0
3, 108300, Note_on_c, 1, 54, 68
3, 108359, Note_on_c, 1, 54, 0
3, 108360, Note_on_c, 1, 60, 89
3, 108360, Control_c, 1, 64, 0
3, 108360, Note_on_c, 1, 50, 98
3, 108360, Note_on_c, 1, 38, 107
3, 108409, Control_c, 1, 64, 127
3, 108419, Note_on_c, 1, 60, 0
3, 108420, Note_on_c, 1, 57, 76
3, 108475, Control_c, 1, 64, 0
3, 108479, Note_on_c, 1, 57, 0
3, 108480, Note_on_c, 1, 60, 72
3, 108507, Control_c, 1, 64, 127
3, 108539, Note_on_c, 1, 60, 0
3, 108540, Note_on_c, 1, 57, 80
3, 108599, Note_on_c, 1, 57, 0
3, 108600, Note_on_c, 1, 38, 0
3, 108600, Note_on_c, 1, 50, 0
3, 108600, Note_on_c, 1, 43, 72
3, 108600, Note_on_c, 1, 59, 76
3, 108606, Control_c, 1, 64, 0
3, 108645, Control_c, 1, 64, 127
3, 108659, Note_on_c, 1, 59, 0
3, 108660, Note_on_c, 1, 55, 72
3, 108718, Control_c, 1, 64, 0
3, 108719, Note_on_c, 1, 55, 0
3, 108720, Note_on_c, 1, 43, 0
3, 108720, Note_on_c, 1, 60, 89
3, 108720, Note_on_c, 1, 48, 89
3, 108753, Control_c, 1, 64, 127
3, 108779, Note_on_c, 1, 48, 0
3, 108779, Note_on_c, 1, 60, 0
3, 108780, Note_on_c, 1, 55, 76
3, 108839, Note_on_c, 1, 55, 0
3, 108840, Note_on_c, 1, 48, 85
3, 108840, Note_on_c, 1, 58, 107
3, 108840, Note_on_c, 1, 36, 102
3, 108842, Control_c, 1, 64, 0
3, 108881, Control_c, 1, 64, 127
3, 108899, Note_on_c, 1, 58, 0
3, 108900, Note_on_c, 1, 55, 64
3, 108959, Note_on_c, 1, 55, 0
3, 108960, Note_on_c, 1, 58, 76
3, 108969, Control_c, 1, 64, 0
3, 109004, Control_c, 1, 64, 127
3, 109019, Note_on_c, 1, 58, 0
3, 109020, Note_on_c, 1, 36, 0
3, 109020, Note_on_c, 1, 48, 0
3, 109020, Note_on_c, 1, 55, 68
3, 109079, Note_on_c, 1, 55, 0
3, 109080, Note_on_c, 1, 57, 76
3, 109080, Note_on_c, 1, 41, 68
3, 109085, Control_c, 1, 64, 0
3, 109123, Control_c, 1, 64, 127
3, 109139, Note_on_c, 1, 41, 0
3, 109139, Note_on_c, 1, 57, 0
3, 109140, Note_on_c, 1, 53, 62
3, 109199, Note_on_c, 1, 53, 0
3, 109200, Note_on_c, 1, 58, 76
3, 109200, Note_on_c, 1, 46, 56
3, 109208, Control_c, 1, 64, 0
3, 109252, Control_c, 1, 64, 127
3, 109259, Note_on_c, 1, 46, 0
3, 109259, Note_on_c, 1, 58, 0
3, 109260, Note_on_c, 1, 53, 76
3, 109313, Control_c, 1, 64, 0
3, 109319, Note_on_c, 1, 53, 0
3, 109320, Note_on_c, 1, 50, 93
3, 109320, Note_on_c, 1, 34, 85
3, 109320, Note_on_c, 1, 46, 98
3, 109347, Control_c, 1, 64, 127
3, 109379, Note_on_c, 1, 50, 0
3, 109380, Note_on_c, 1, 53, 64
3, 109438, Control_c, 1, 64, 0
3, 109439, Note_on_c, 1, 53, 0
3, 109440, Note_on_c, 1, 58, 72
3, 109467, Control_c, 1, 64, 127
3, 109499, Note_on_c, 1, 58, 0
3, 109500, Note_on_c, 1, 46, 0
3, 109500, Note_on_c, 1, 34, 0
3, 109500, Note_on_c, 1, 53, 72
3, 109559, Note_on_c, 1, 53, 0
3, 109560, Note_on_c, 1, 50, 72
3, 109560, Note_on_c, 1, 34, 72
3, 109560, Control_c, 1, 64, 0
3, 109589, Control_c, 1, 64, 127
3, 109619, Note_on_c, 1, 34, 0
3, 109619, Note_on_c, 1, 50, 0
3, 109620, Note_on_c, 1, 53, 68
3, 109673, Control_c, 1, 64, 0
3, 109679, Note_on_c, 1, 53, 0
3, 109680, Note_on_c, 1, 55, 80
3, 109680, Note_on_c, 1, 51, 72
3, 109680, Note_on_c, 1, 39, 64
3, 109706, Control_c, 1, 64, 127
3, 109739, Note_on_c, 1, 39, 0
3, 109739, Note_on_c, 1, 51, 0
3, 109739, Note_on_c, 1, 55, 0
3, 109802, Control_c, 1, 64, 0
3, 110640, Note_on_c, 1, 41, 76
3, 110640, Note_on_c, 1, 57, 93
3, 110670, Note_on_c, 1, 57, 0
3, 110670, Note_on_c, 1, 41, 0
3, 110700, Note_on_c, 1, 58, 93
3, 110700, Note_on_c, 1, 43, 72
3, 110730, Note_on_c, 1, 43, 0
3, 110730, Note_on_c, 1, 58, 0
3, 110760, Note_on_c, 1, 60, 89
3, 110760, Note_on_c, 1, 45, 89
3, 110790, Note_on_c, 1, 45, 0
3, 110790, Note_on_c, 1, 60, 0
3, 110820, Note_on_c, 1, 58, 85
3, 110820, Note_on_c, 1, 43, 72
3, 110850, Note_on_c, 1, 43, 0
3, 110850, Note_on_c, 1, 58, 0
3, 110880, Note_on_c, 1, 60, 93
3, 110880, Note_on_c, 1, 45, 89
3, 110897, Control_c, 1, 64, 127
3, 110939, Note_on_c, 1, 45, 0
3, 110939, Note_on_c, 1, 60, 0
3, 110940, Note_on_c, 1, 43, 64
3, 110940, Note_on_c, 1, 58, 72
3, 110955, Control_c, 1, 64, 0
3, 110999, Note_on_c, 1, 58, 0
3, 110999, Note_on_c, 1, 43, 0
3, 111000, Note_on_c, 1, 60, 85
3, 111000, Note_on_c, 1, 45, 76
3, 111026, Control_c, 1, 64, 127
3, 111059, Note_on_c, 1, 45, 0
3, 111059, Note_on_c, 1, 60, 0
3, 111060, Note_on_c, 1, 58, 68
3, 111060, Note_on_c, 1, 43, 76
3, 111073, Control_c, 1, 64, 0
3, 111119, Note_on_c, 1, 43, 0
3, 111119, Note_on_c, 1, 58, 0
3, 111120, Note_on_c, 1, 41, 64
3, 111120, Note_on_c, 1, 57, 89
3, 111179, Note_on_c, 1, 57, 0
3, 111179, Note_on_c, 1, 41, 0
3, 111180, Note_on_c, 1, 43, 80
3, 111180, Note_on_c, 1, 58, 76
3, 111239, Note_on_c, 1, 58, 0
3, 111239, Note_on_c, 1, 43, 0
3, 111240, Note_on_c, 1, 60, 76
3, 111240, Note_on_c, 1, 45, 76
3, 111289, Control_c, 1, 64, 127
3, 111299, Note_on_c, 1, 45, 0
3, 111299, Note_on_c, 1, 60, 0
3, 111300, Note_on_c, 1, 58, 76
3, 111300, Note_on_c, 1, 43, 68
3, 111348, Control_c, 1, 64, 0
3, 111359, Note_on_c, 1, 43, 0
3, 111359, Note_on_c, 1, 58, 0
3, 111360, Note_on_c, 1, 57, 89
3, 111360, Note_on_c, 1, 41, 68
3, 111401, Control_c, 1, 64, 127
3, 111419, Note_on_c, 1, 41, 0
3, 111419, Note_on_c, 1, 57, 0
3, 111420, Note_on_c, 1, 55, 89
3, 111420, Note_on_c, 1, 39, 62
3, 111461, Control_c, 1, 64, 0
3, 111479, Note_on_c, 1, 39, 0
3, 111479, Note_on_c, 1, 55, 0
3, 111480, Note_on_c, 1, 38, 89
3, 111480, Note_on_c, 1, 53, 48
3, 111539, Note_on_c, 1, 53, 0
3, 111539, Note_on_c, 1, 38, 0
3, 111540, Note_on_c, 1, 51, 85
3, 111540, Note_on_c, 1, 36, 80
3, 111599, Note_on_c, 1, 36, 0
3, 111599, Note_on_c, 1, 51, 0
3, 111600, Note_on_c, 1, 50, 80
3, 111600, Note_on_c, 1, 34, 72
3, 111623, Control_c, 1, 64, 127
3, 111659, Note_on_c, 1, 50, 0
3, 111660, Note_on_c, 1, 46, 80
3, 111709, Control_c, 1, 64, 0
3, 111719, Note_on_c, 1, 46, 0
3, 111720, Note_on_c, 1, 34, 0
3, 111720, Note_on_c, 1, 46, 89
3, 111743, Control_c, 1, 64, 127
3, 111779, Note_on_c, 1, 46, 0
3, 111780, Note_on_c, 1, 46, 72
3, 111839, Note_on_c, 1, 46, 0
3, 111840, Note_on_c, 1, 34, 113
3, 111841, Control_c, 1, 64, 0
3, 111878, Control_c, 1, 64, 127
3, 111899, Note_on_c, 1, 34, 0
3, 111900, Note_on_c, 1, 46, 89
3, 111938, Control_c, 1, 64, 0
3, 111959, Note_on_c, 1, 46, 0
3, 111960, Note_on_c, 1, 46, 76
3, 111973, Control_c, 1, 64, 127
3, 112019, Note_on_c, 1, 46, 0
3, 112020, Note_on_c, 1, 46, 80
3, 112079, Note_on_c, 1, 46, 0
3, 112080, Control_c, 1, 64, 0
3, 112080, Note_on_c, 1, 34, 60
3, 112115, Control_c, 1, 64, 127
3, 112139, Note_on_c, 1, 34, 0
3, 112140, Note_on_c, 1, 46, 76
3, 112199, Note_on_c, 1, 46, 0
3, 112200, Note_on_c, 1, 46, 93
3, 112202, Control_c, 1, 64, 0
3, 112234, Control_c, 1, 64, 127
3, 112259, Note_on_c, 1, 46, 0
3, 112260, Note_on_c, 1, 46, 80
3, 112319, Note_on_c, 1, 46, 0
3, 112319, Control_c, 1, 64, 0
3, 112320, Note_on_c, 1, 46, 80
3, 112349, Control_c, 1, 64, 127
3, 112379, Note_on_c, 1, 46, 0
3, 112380, Note_on_c, 1, 46, 68
3, 112439, Note_on_c, 1, 46, 0
3, 112440, Note_on_c, 1, 46, 89
3, 112499, Note_on_c, 1, 46, 0
3, 112500, Note_on_c, 1, 46, 89
3, 112559, Note_on_c, 1, 46, 0
3, 112560, Note_on_c, 1, 34, 76
3, 112571, Control_c, 1, 64, 0
3, 112606, Control_c, 1, 64, 127
3, 112619, Note_on_c, 1, 34, 0
3, 112620, Note_on_c, 1, 46, 93
3, 112673, Control_c, 1, 64, 0
3, 112679, Note_on_c, 1, 46, 0
3, 112680, Note_on_c, 1, 46, 89
3, 112703, Control_c, 1, 64, 127
3, 112739, Note_on_c, 1, 46, 0
3, 112740, Note_on_c, 1, 46, 85
3, 112799, Note_on_c, 1, 46, 0
3, 112800, Control_c, 1, 64, 0
3, 112800, Note_on_c, 1, 34, 72
3, 112832, Control_c, 1, 64, 127
3, 112859, Note_on_c, 1, 34, 0
3, 112860, Note_on_c, 1, 46, 93
3, 112903, Control_c, 1, 64, 0
3, 112919, Note_on_c, 1, 46, 0
3, 112920, Note_on_c, 1, 46, 89
3, 112936, Control_c, 1, 64, 127
3, 112979, Note_on_c, 1, 46, 0
3, 112980, Note_on_c, 1, 46, 76
3, 113029, Control_c, 1, 64, 0
3, 113039, Note_on_c, 1, 46, 0
3, 113040, Note_on_c, 1, 34, 72
3, 113063, Control_c, 1, 64, 127
3, 113100, Note_on_c, 1, 46, 89
3, 113157, Control_c, 1, 64, 0
3, 113159, Note_on_c, 1, 46, 0
3, 113160, Note_on_c, 1, 34, 0
3, 113160, Note_on_c, 1, 46, 89
3, 113189, Control_c, 1, 64, 127
3, 113219, Note_on_c, 1, 46, 0
3, 113220, Note_on_c, 1, 46, 85
3, 113263, Control_c, 1, 64, 0
3, 113279, Note_on_c, 1, 46, 0
3, 113280, Note_on_c, 1, 46, 98
3, 113280, Note_on_c, 1, 34, 98
3, 113292, Control_c, 1, 64, 127
3, 113339, Note_on_c, 1, 34, 0
3, 113339, Note_on_c, 1, 46, 0
3, 113391, Control_c, 1, 64, 0
3, 115260, Note_on_c, 1, 46, 93
3, 115278, Control_c, 1, 64, 127
3, 115319, Note_on_c, 1, 46, 0
3, 115320, Note_on_c, 1, 50, 93
3, 115379, Note_on_c, 1, 50, 0
3, 115380, Note_on_c, 1, 62, 89
3, 115380, Note_on_c, 1, 46, 80
3, 115435, Control_c, 1, 64, 0
3, 115439, Note_on_c, 1, 46, 0
3, 115439, Note_on_c, 1, 62, 0
3, 115440, Note_on_c, 1, 48, 89
3, 115440, Note_on_c, 1, 63, 93
3, 115469, Control_c, 1, 64, 127
3, 115499, Note_on_c, 1, 63, 0
3, 115499, Note_on_c, 1, 48, 0
3, 115500, Note_on_c, 1, 65, 89
3, 115520, Control_c, 1, 64, 0
3, 115559, Note_on_c, 1, 65, 0
3, 115560, Note_on_c, 1, 67, 80
3, 115619, Note_on_c, 1, 67, 0
3, 115620, Note_on_c, 1, 63, 76
3, 115679, Note_on_c, 1, 63, 0
3, 115680, Note_on_c, 1, 60, 89
3, 115680, Note_on_c, 1, 45, 89
3, 115699, Control_c, 1, 64, 127
3, 115739, Note_on_c, 1, 60, 0
3, 115740, Note_on_c, 1, 62, 102
3, 115770, Control_c, 1, 64, 0
3, 115799, Note_on_c, 1, 62, 0
3, 115800, Note_on_c, 1, 45, 0
3, 115800, Note_on_c, 1, 63, 80
3, 115859, Note_on_c, 1, 63, 0
3, 115860, Note_on_c, 1, 60, 72
3, 115919, Note_on_c, 1, 60, 0
3, 115920, Note_on_c, 1, 62, 93
3, 115920, Note_on_c, 1, 46, 85
3, 115943, Control_c, 1, 64, 127
3, 115979, Note_on_c, 1, 62, 0
3, 115980, Note_on_c, 1, 63, 89
3, 116005, Control_c, 1, 64, 0
3, 116039, Note_on_c, 1, 63, 0
3, 116040, Note_on_c, 1, 46, 0
3, 116040, Note_on_c, 1, 65, 89
3, 116099, Note_on_c, 1, 65, 0
3, 116100, Note_on_c, 1, 62, 89
3, 116159, Note_on_c, 1, 62, 0
3, 116160, Note_on_c, 1, 58, 89
3, 116160, Note_on_c, 1, 50, 89
3, 116167, Control_c, 1, 64, 127
3, 116219, Note_on_c, 1, 50, 0
3, 116219, Note_on_c, 1, 58, 0
3, 116220, Note_on_c, 1, 60, 89
3, 116241, Control_c, 1, 64, 0
3, 116279, Note_on_c, 1, 60, 0
3, 116280, Note_on_c, 1, 62, 93
3, 116319, Control_c, 1, 64, 127
3, 116339, Note_on_c, 1, 62, 0
3, 116340, Note_on_c, 1, 58, 68
3, 116397, Control_c, 1, 64, 0
3, 116399, Note_on_c, 1, 58, 0
3, 116400, Note_on_c, 1, 51, 89
3, 116400, Note_on_c, 1, 55, 93
3, 116448, Control_c, 1, 64, 127
3, 116459, Note_on_c, 1, 55, 0
3, 116459, Note_on_c, 1, 51, 0
3, 116460, Note_on_c, 1, 63, 80
3, 116511, Control_c, 1, 64, 0
3, 116519, Note_on_c, 1, 63, 0
3, 116520, Note_on_c, 1, 62, 93
3, 116553, Control_c, 1, 64, 127
3, 116579, Note_on_c, 1, 62, 0
3, 116580, Note_on_c, 1, 60, 85
3, 116637, Control_c, 1, 64, 0
3, 116639, Note_on_c, 1, 60, 0
3, 116640, Note_on_c, 1, 62, 89
3, 116640, Note_on_c, 1, 53, 76
3, 116640, Note_on_c, 1, 60, 76
3, 116679, Control_c, 1, 64, 127
3, 116699, Note_on_c, 1, 60, 0
3, 116699, Note_on_c, 1, 62, 0
3, 116700, Note_on_c, 1, 58, 72
3, 116751, Control_c, 1, 64, 0
3, 116759, Note_on_c, 1, 58, 0
3, 116760, Note_on_c, 1, 53, 0
3, 116760, Note_on_c, 1, 60, 85
3, 116760, Note_on_c, 1, 41, 89
3, 116760, Note_on_c, 1, 58, 89
3, 116791, Control_c, 1, 64, 127
3, 116819, Note_on_c, 1, 58, 0
3, 116819, Note_on_c, 1, 60, 0
3, 116820, Note_on_c, 1, 57, 93
3, 116867, Control_c, 1, 64, 0
3, 116879, Note_on_c, 1, 57, 0
3, 116880, Note_on_c, 1, 41, 0
3, 116880, Note_on_c, 1, 58, 89
3, 116880, Note_on_c, 1, 46, 89
3, 116914, Control_c, 1, 64, 127
3, 116939, Note_on_c, 1, 46, 0
3, 117000, Note_on_c, 1, 58, 0
3, 117006, Control_c, 1, 64, 0
3, 117120, Note_on_c, 1, 57, 98
3, 117120, Note_on_c, 1, 60, 85
3, 117168, Control_c, 1, 64, 127
3, 117240, Note_on_c, 1, 60, 0
3, 117240, Note_on_c, 1, 57, 0
3, 117250, Control_c, 1, 64, 0
3, 117360, Note_on_c, 1, 58, 85
3, 117360, Note_on_c, 1, 62, 93
3, 117363, Control_c, 1, 64, 127
3, 117419, Note_on_c, 1, 62, 0
3, 117419, Note_on_c, 1, 58, 0
3, 117485, Control_c, 1, 64, 0
3, 117600, Note_on_c, 1, 60, 89
3, 117600, Note_on_c, 1, 63, 89
3, 117604, Control_c, 1, 64, 127
3, 117720, Note_on_c, 1, 63, 0
3, 117720, Note_on_c, 1, 60, 0
3, 117733, Control_c, 1, 64, 0
3, 117840, Note_on_c, 1, 62, 89
3, 117840, Note_on_c, 1, 65, 98
3, 117849, Control_c, 1, 64, 127
3, 117899, Note_on_c, 1, 65, 0
3, 117899, Note_on_c, 1, 62, 0
3, 117935, Control_c, 1, 64, 0
3, 117960, Note_on_c, 1, 41, 93
3, 117960, Note_on_c, 1, 45, 93
3, 117960, Note_on_c, 1, 48, 93
3, 117960, Note_on_c, 1, 63, 107
3, 117985, Control_c, 1, 64, 127
3, 118019, Note_on_c, 1, 63, 0
3, 118020, Note_on_c, 1, 60, 80
3, 118066, Control_c, 1, 64, 0
3, 118079, Note_on_c, 1, 60, 0
3, 118080, Note_on_c, 1, 63, 68
3, 118115, Control_c, 1, 64, 127
3, 118139, Note_on_c, 1, 63, 0
3, 118140, Note_on_c, 1, 41, 0
3, 118140, Note_on_c, 1, 45, 0
3, 118140, Note_on_c, 1, 48, 0
3, 118140, Note_on_c, 1, 60, 64
3, 118199, Note_on_c, 1, 60, 0
3, 118200, Note_on_c, 1, 62, 76
3, 118200, Note_on_c, 1, 46, 64
3, 118207, Control_c, 1, 64, 0
3, 118243, Control_c, 1, 64, 127
3, 118259, Note_on_c, 1, 46, 0
3, 118259, Note_on_c, 1, 62, 0
3, 118260, Note_on_c, 1, 58, 68
3, 118317, Control_c, 1, 64, 0
3, 118319, Note_on_c, 1, 58, 0
3, 118320, Note_on_c, 1, 60, 72
3, 118320, Note_on_c, 1, 53, 57
3, 118349, Control_c, 1, 64, 127
3, 118379, Note_on_c, 1, 53, 0
3, 118379, Note_on_c, 1, 60, 0
3, 118380, Note_on_c, 1, 57, 85
3, 118439, Note_on_c, 1, 57, 0
3, 118440, Note_on_c, 1, 63, 98
3, 118440, Note_on_c, 1, 41, 80
3, 118440, Note_on_c, 1, 48, 76
3, 118440, Note_on_c, 1, 45, 89
3, 118441, Control_c, 1, 64, 0
3, 118486, Control_c, 1, 64, 127
3, 118499, Note_on_c, 1, 63, 0
3, 118500, Note_on_c, 1, 60, 62
3, 118559, Note_on_c, 1, 60, 0
3, 118560, Note_on_c, 1, 63, 72
3, 118563, Control_c, 1, 64, 0
3, 118593, Control_c, 1, 64, 127
3, 118619, Note_on_c, 1, 63, 0
3, 118620, Note_on_c, 1, 41, 0
3, 118620, Note_on_c, 1, 48, 0
3, 118620, Note_on_c, 1, 45, 0
3, 118620, Note_on_c, 1, 60, 72
3, 118679, Note_on_c, 1, 60, 0
3, 118680, Note_on_c, 1, 46, 72
3, 118680, Note_on_c, 1, 62, 76
3, 118686, Control_c, 1, 64, 0
3, 118721, Control_c, 1, 64, 127
3, 118739, Note_on_c, 1, 62, 0
3, 118739, Note_on_c, 1, 46, 0
3, 118740, Note_on_c, 1, 58, 60
3, 118797, Control_c, 1, 64, 0
3, 118799, Note_on_c, 1, 58, 0
3, 118800, Note_on_c, 1, 60, 76
3, 118800, Note_on_c, 1, 53, 64
3, 118827, Control_c, 1, 64, 127
3, 118859, Note_on_c, 1, 53, 0
3, 118859, Note_on_c, 1, 60, 0
3, 118860, Note_on_c, 1, 57, 76
3, 118918, Control_c, 1, 64, 0
3, 118919, Note_on_c, 1, 57, 0
3, 118920, Note_on_c, 1, 63, 102
3, 118920, Note_on_c, 1, 41, 89
3, 118920, Note_on_c, 1, 48, 85
3, 118920, Note_on_c, 1, 45, 80
3, 118957, Control_c, 1, 64, 127
3, 118979, Note_on_c, 1, 63, 0
3, 118980, Note_on_c, 1, 60, 76
3, 119039, Note_on_c, 1, 60, 0
3, 119040, Note_on_c, 1, 63, 72
3, 119041, Control_c, 1, 64, 0
3, 119070, Control_c, 1, 64, 127
3, 119099, Note_on_c, 1, 63, 0
3, 119100, Note_on_c, 1, 60, 72
3, 119159, Note_on_c, 1, 60, 0
3, 119160, Note_on_c, 1, 45, 0
3, 119160, Note_on_c, 1, 48, 0
3, 119160, Note_on_c, 1, 41, 0
3, 119160, Note_on_c, 1, 62, 93
3, 119160, Control_c, 1, 64, 0
3, 119160, Note_on_c, 1, 46, 85
3, 119191, Control_c, 1, 64, 127
3, 119219, Note_on_c, 1, 62, 0
3, 119220, Note_on_c, 1, 58, 76
3, 119267, Control_c, 1, 64, 0
3, 119279, Note_on_c, 1, 58, 0
3, 119280, Note_on_c, 1, 46, 0
3, 119280, Note_on_c, 1, 60, 85
3, 119280, Note_on_c, 1, 57, 89
3, 119280, Note_on_c, 1, 41, 89
3, 119298, Control_c, 1, 64, 127
3, 119400, Note_on_c, 1, 41, 0
3, 119400, Note_on_c, 1, 57, 0
3, 119400, Note_on_c, 1, 60, 0
3, 119403, Control_c, 1, 64, 0
3, 119760, Note_on_c, 1, 53, 76
3, 119762, Control_c, 1, 64, 127
3, 119819, Note_on_c, 1, 53, 0
3, 119820, Note_on_c, 1, 53, 72
3, 119879, Note_on_c, 1, 53, 0
3, 119880, Note_on_c, 1, 53, 76
3, 119939, Note_on_c, 1, 53, 0
3, 119940, Note_on_c, 1, 53, 89
3, 119999, Note_on_c, 1, 53, 0
3, 120000, Note_on_c, 1, 53, 93
3, 120059, Note_on_c, 1, 53, 0
3, 120060, Note_on_c, 1, 53, 89
3, 120119, Note_on_c, 1, 53, 0
3, 120120, Note_on_c, 1, 53, 85
3, 120179, Note_on_c, 1, 53, 0
3, 120180, Note_on_c, 1, 53, 76
3, 120239, Note_on_c, 1, 53, 0
3, 120239, Control_c, 1, 64, 0
3, 120240, Note_on_c, 1, 41, 76
3, 120240, Note_on_c, 1, 57, 85
3, 120275, Control_c, 1, 64, 127
3, 120299, Note_on_c, 1, 57, 0
3, 120300, Note_on_c, 1, 53, 76
3, 120359, Note_on_c, 1, 53, 0
3, 120360, Note_on_c, 1, 41, 0
3, 120360, Note_on_c, 1, 57, 76
3, 120371, Control_c, 1, 64, 0
3, 120399, Control_c, 1, 64, 127
3, 120419, Note_on_c, 1, 57, 0
3, 120420, Note_on_c, 1, 53, 76
3, 120479, Note_on_c, 1, 53, 0
3, 120480, Note_on_c, 1, 57, 89
3, 120491, Control_c, 1, 64, 0
3, 120516, Control_c, 1, 64, 127
3, 120539, Note_on_c, 1, 57, 0
3, 120540, Note_on_c, 1, 53, 76
3, 120599, Note_on_c, 1, 53, 0
3, 120600, Note_on_c, 1, 58, 80
3, 120600, Control_c, 1, 64, 0
3, 120625, Control_c, 1, 64, 127
3, 120659, Note_on_c, 1, 58, 0
3, 120660, Note_on_c, 1, 53, 72
3, 120719, Note_on_c, 1, 53, 0
3, 120719, Control_c, 1, 64, 0
3, 120720, Note_on_c, 1, 60, 93
3, 120720, Note_on_c, 1, 41, 76
3, 120749, Control_c, 1, 64, 127
3, 120779, Note_on_c, 1, 41, 0
3, 120779, Note_on_c, 1, 60, 0
3, 120780, Note_on_c, 1, 53, 72
3, 120839, Note_on_c, 1, 53, 0
3, 120840, Note_on_c, 1, 48, 76
3, 120849, Control_c, 1, 64, 0
3, 120876, Control_c, 1, 64, 127
3, 120899, Note_on_c, 1, 48, 0
3, 120900, Note_on_c, 1, 53, 76
3, 120959, Note_on_c, 1, 53, 0
3, 120960, Note_on_c, 1, 48, 72
3, 120967, Control_c, 1, 64, 0
3, 121002, Control_c, 1, 64, 127
3, 121019, Note_on_c, 1, 48, 0
3, 121020, Note_on_c, 1, 53, 76
3, 121079, Note_on_c, 1, 53, 0
3, 121079, Control_c, 1, 64, 0
3, 121080, Note_on_c, 1, 51, 72
3, 121113, Control_c, 1, 64, 127
3, 121139, Note_on_c, 1, 51, 0
3, 121140, Note_on_c, 1, 53, 89
3, 121188, Control_c, 1, 64, 0
3, 121199, Note_on_c, 1, 53, 0
3, 121200, Note_on_c, 1, 50, 93
3, 121200, Note_on_c, 1, 46, 72
3, 121222, Control_c, 1, 64, 127
3, 121259, Note_on_c, 1, 50, 0
3, 121260, Note_on_c, 1, 53, 72
3, 121313, Control_c, 1, 64, 0
3, 121319, Note_on_c, 1, 53, 0
3, 121320, Note_on_c, 1, 46, 0
3, 121320, Note_on_c, 1, 58, 72
3, 121346, Control_c, 1, 64, 127
3, 121379, Note_on_c, 1, 58, 0
3, 121380, Note_on_c, 1, 53, 80
3, 121433, Control_c, 1, 64, 0
3, 121439, Note_on_c, 1, 53, 0
3, 121440, Note_on_c, 1, 41, 76
3, 121440, Note_on_c, 1, 57, 93
3, 121466, Control_c, 1, 64, 127
3, 121499, Note_on_c, 1, 57, 0
3, 121499, Note_on_c, 1, 41, 0
3, 121500, Note_on_c, 1, 53, 76
3, 121559, Note_on_c, 1, 53, 0
3, 121560, Note_on_c, 1, 60, 89
3, 121560, Control_c, 1, 64, 0
3, 121560, Note_on_c, 1, 45, 76
3, 121592, Control_c, 1, 64, 127
3, 121619, Note_on_c, 1, 45, 0
3, 121619, Note_on_c, 1, 60, 0
3, 121620, Note_on_c, 1, 53, 72
3, 121673, Control_c, 1, 64, 0
3, 121679, Note_on_c, 1, 53, 0
3, 121680, Note_on_c, 1, 60, 89
3, 121680, Note_on_c, 1, 46, 85
3, 121704, Control_c, 1, 64, 127
3, 121739, Note_on_c, 1, 46, 0
3, 121739, Note_on_c, 1, 60, 0
3, 121740, Note_on_c, 1, 53, 68
3, 121795, Control_c, 1, 64, 0
3, 121799, Note_on_c, 1, 53, 0
3, 121800, Note_on_c, 1, 50, 72
3, 121800, Note_on_c, 1, 58, 80
3, 121823, Control_c, 1, 64, 127
3, 121859, Note_on_c, 1, 58, 0
3, 121859, Note_on_c, 1, 50, 0
3, 121860, Note_on_c, 1, 53, 76
3, 121909, Control_c, 1, 64, 0
3, 121919, Note_on_c, 1, 53, 0
3, 121920, Note_on_c, 1, 57, 89
3, 121920, Note_on_c, 1, 53, 89
3, 121938, Control_c, 1, 64, 127
3, 121979, Note_on_c, 1, 53, 0
3, 121979, Note_on_c, 1, 57, 0
3, 121980, Note_on_c, 1, 53, 64
3, 122034, Control_c, 1, 64, 0
3, 122039, Note_on_c, 1, 53, 0
3, 122040, Note_on_c, 1, 52, 89
3, 122061, Control_c, 1, 64, 127
3, 122099, Note_on_c, 1, 52, 0
3, 122100, Note_on_c, 1, 53, 85
3, 122159, Note_on_c, 1, 53, 0
3, 122160, Note_on_c, 1, 45, 89
3, 122160, Note_on_c, 1, 41, 89
3, 122162, Control_c, 1, 64, 0
3, 122205, Control_c, 1, 64, 127
3, 122219, Note_on_c, 1, 45, 0
3, 122220, Note_on_c, 1, 53, 72
3, 122279, Note_on_c, 1, 53, 0
3, 122279, Control_c, 1, 64, 0
3, 122280, Note_on_c, 1, 41, 0
3, 122280, Note_on_c, 1, 45, 89
3, 122306, Control_c, 1, 64, 127
3, 122339, Note_on_c, 1, 45, 0
3, 122340, Note_on_c, 1, 53, 80
3, 122399, Note_on_c, 1, 53, 0
3, 122400, Note_on_c, 1, 45, 89
3, 122400, Control_c, 1, 64, 0
3, 122429, Control_c, 1, 64, 127
3, 122459, Note_on_c, 1, 45, 0
3, 122460, Note_on_c, 1, 53, 85
3, 122511, Control_c, 1, 64, 0
3, 122519, Note_on_c, 1, 53, 0
3, 122520, Note_on_c, 1, 46, 80
3, 122538, Control_c, 1, 64, 127
3, 122579, Note_on_c, 1, 46, 0
3, 122580, Note_on_c, 1, 53, 80
3, 122639, Note_on_c, 1, 53, 0
3, 122640, Note_on_c, 1, 29, 85
3, 122640, Note_on_c, 1, 48, 89
3, 122651, Control_c, 1, 64, 127
3, 122699, Note_on_c, 1, 48, 0
3, 122699, Note_on_c, 1, 29, 0
3, 122700, Note_on_c, 1, 53, 68
3, 122759, Note_on_c, 1, 53, 0
3, 122760, Note_on_c, 1, 48, 76
3, 122767, Control_c, 1, 64, 0
3, 122805, Control_c, 1, 64, 127
3, 122819, Note_on_c, 1, 48, 0
3, 122820, Note_on_c, 1, 53, 72
3, 122879, Note_on_c, 1, 53, 0
3, 122880, Note_on_c, 1, 48, 72
3, 122892, Control_c, 1, 64, 0
3, 122926, Control_c, 1, 64, 127
3, 122939, Note_on_c, 1, 48, 0
3, 122940, Note_on_c, 1, 53, 76
3, 122999, Note_on_c, 1, 53, 0
3, 123000, Note_on_c, 1, 51, 72
3, 123059, Note_on_c, 1, 51, 0
3, 123060, Note_on_c, 1, 53, 89
3, 123119, Note_on_c, 1, 53, 0
3, 123120, Note_on_c, 1, 34, 107
3, 123122, Control_c, 1, 64, 127
3, 123179, Note_on_c, 1, 34, 0
3, 123180, Note_on_c, 1, 46, 113
3, 123218, Control_c, 1, 64, 0
3, 123239, Note_on_c, 1, 46, 0
3, 123240, Note_on_c, 1, 33, 93
3, 123269, Control_c, 1, 64, 127
3, 123299, Note_on_c, 1, 33, 0
3, 123300, Note_on_c, 1, 45, 107
3, 123337, Control_c, 1, 64, 0
3, 123359, Note_on_c, 1, 45, 0
3, 123360, Note_on_c, 1, 34, 89
3, 123378, Control_c, 1, 64, 127
3, 123419, Note_on_c, 1, 34, 0
3, 123420, Note_on_c, 1, 46, 107
3, 123468, Control_c, 1, 64, 0
3, 123479, Note_on_c, 1, 46, 0
3, 123480, Note_on_c, 1, 42, 107
3, 123509, Control_c, 1, 64, 127
3, 123539, Note_on_c, 1, 42, 0
3, 123540, Note_on_c, 1, 54, 113
3, 123586, Control_c, 1, 64, 0
3, 123599, Note_on_c, 1, 54, 0
3, 123600, Note_on_c, 1, 43, 93
3, 123644, Control_c, 1, 64, 127
3, 123659, Note_on_c, 1, 43, 0
3, 123660, Note_on_c, 1, 55, 102
3, 123704, Control_c, 1, 64, 0
3, 123719, Note_on_c, 1, 55, 0
3, 123720, Note_on_c, 1, 42, 102
3, 123744, Control_c, 1, 64, 127
3, 123779, Note_on_c, 1, 42, 0
3, 123780, Note_on_c, 1, 54, 107
3, 123815, Control_c, 1, 64, 0
3, 123839, Note_on_c, 1, 54, 0
3, 123840, Note_on_c, 1, 43, 98
3, 123860, Control_c, 1, 64, 127
3, 123899, Note_on_c, 1, 43, 0
3, 123900, Note_on_c, 1, 55, 107
3, 123941, Control_c, 1, 64, 0
3, 123959, Note_on_c, 1, 55, 0
3, 123960, Note_on_c, 1, 38, 93
3, 123983, Control_c, 1, 64, 127
3, 124019, Note_on_c, 1, 38, 0
3, 124020, Note_on_c, 1, 50, 107
3, 124056, Control_c, 1, 64, 0
3, 124079, Note_on_c, 1, 50, 0
3, 124080, Note_on_c, 1, 39, 93
3, 124098, Control_c, 1, 64, 127
3, 124139, Note_on_c, 1, 39, 0
3, 124140, Note_on_c, 1, 51, 113
3, 124169, Control_c, 1, 64, 0
3, 124199, Note_on_c, 1, 51, 0
3, 124200, Note_on_c, 1, 38, 93
3, 124213, Control_c, 1, 64, 127
3, 124259, Note_on_c, 1, 38, 0
3, 124260, Note_on_c, 1, 50, 113
3, 124287, Control_c, 1, 64, 0
3, 124319, Note_on_c, 1, 50, 0
3, 124320, Note_on_c, 1, 39, 102
3, 124330, Control_c, 1, 64, 127
3, 124379, Note_on_c, 1, 39, 0
3, 124380, Note_on_c, 1, 51, 113
3, 124415, Control_c, 1, 64, 0
3, 124439, Note_on_c, 1, 51, 0
3, 124440, Note_on_c, 1, 40, 93
3, 124456, Control_c, 1, 64, 127
3, 124499, Note_on_c, 1, 40, 0
3, 124500, Note_on_c, 1, 52, 107
3, 124528, Control_c, 1, 64, 0
3, 124559, Note_on_c, 1, 52, 0
3, 124560, Note_on_c, 1, 41, 93
3, 124565, Control_c, 1, 64, 127
3, 124619, Note_on_c, 1, 41, 0
3, 124620, Note_on_c, 1, 53, 107
3, 124645, Control_c, 1, 64, 0
3, 124679, Note_on_c, 1, 53, 0
3, 124680, Note_on_c, 1, 40, 93
3, 124689, Control_c, 1, 64, 127
3, 124739, Note_on_c, 1, 40, 0
3, 124740, Note_on_c, 1, 52, 107
3, 124765, Control_c, 1, 64, 0
3, 124799, Note_on_c, 1, 52, 0
3, 124800, Note_on_c, 1, 41, 89
3, 124803, Control_c, 1, 64, 127
3, 124859, Note_on_c, 1, 41, 0
3, 124860, Note_on_c, 1, 53, 98
3, 124919, Note_on_c, 1, 53, 0
3, 124920, Note_on_c, 1, 29, 98
3, 124921, Control_c, 1, 64, 0
3, 124964, Control_c, 1, 64, 127
3, 124979, Note_on_c, 1, 29, 0
3, 124980, Note_on_c, 1, 41, 93
3, 125027, Control_c, 1, 64, 0
3, 125039, Note_on_c, 1, 41, 0
3, 125040, Note_on_c, 1, 46, 85
3, 125082, Control_c, 1, 64, 127
3, 125099, Note_on_c, 1, 46, 0
3, 125100, Note_on_c, 1, 58, 85
3, 125154, Control_c, 1, 64, 0
3, 125159, Note_on_c, 1, 58, 0
3, 125160, Note_on_c, 1, 45, 89
3, 125201, Control_c, 1, 64, 127
3, 125219, Note_on_c, 1, 45, 0
3, 125220, Note_on_c, 1, 57, 76
3, 125274, Control_c, 1, 64, 0
3, 125279, Note_on_c, 1, 57, 0
3, 125280, Note_on_c, 1, 46, 89
3, 125314, Control_c, 1, 64, 127
3, 125339, Note_on_c, 1, 46, 0
3, 125340, Note_on_c, 1, 58, 76
3, 125385, Control_c, 1, 64, 0
3, 125399, Note_on_c, 1, 58, 0
3, 125400, Note_on_c, 1, 54, 72
3, 125423, Control_c, 1, 64, 127
3, 125459, Note_on_c, 1, 54, 0
3, 125460, Note_on_c, 1, 66, 93
3, 125503, Control_c, 1, 64, 0
3, 125519, Note_on_c, 1, 66, 0
3, 125520, Note_on_c, 1, 55, 89
3, 125543, Control_c, 1, 64, 127
3, 125579, Note_on_c, 1, 55, 0
3, 125580, Note_on_c, 1, 67, 89
3, 125628, Control_c, 1, 64, 0
3, 125639, Note_on_c, 1, 67, 0
3, 125640, Note_on_c, 1, 54, 76
3, 125666, Control_c, 1, 64, 127
3, 125700, Note_on_c, 1, 66, 85
3, 125743, Control_c, 1, 64, 0
3, 125759, Note_on_c, 1, 66, 0
3, 125760, Note_on_c, 1, 54, 0
3, 125760, Note_on_c, 1, 55, 85
3, 125786, Control_c, 1, 64, 127
3, 125819, Note_on_c, 1, 55, 0
3, 125820, Note_on_c, 1, 67, 80
3, 125863, Control_c, 1, 64, 0
3, 125879, Note_on_c, 1, 67, 0
3, 125880, Note_on_c, 1, 50, 93
3, 125908, Control_c, 1, 64, 127
3, 125939, Note_on_c, 1, 50, 0
3, 125940, Note_on_c, 1, 62, 76
3, 125976, Control_c, 1, 64, 0
3, 125999, Note_on_c, 1, 62, 0
3, 126000, Note_on_c, 1, 51, 85
3, 126022, Control_c, 1, 64, 127
3, 126059, Note_on_c, 1, 51, 0
3, 126060, Note_on_c, 1, 63, 93
3, 126089, Control_c, 1, 64, 0
3, 126119, Note_on_c, 1, 63, 0
3, 126120, Note_on_c, 1, 50, 93
3, 126132, Control_c, 1, 64, 127
3, 126179, Note_on_c, 1, 50, 0
3, 126180, Note_on_c, 1, 62, 89
3, 126214, Control_c, 1, 64, 0
3, 126239, Note_on_c, 1, 62, 0
3, 126240, Note_on_c, 1, 51, 72
3, 126255, Control_c, 1, 64, 127
3, 126299, Note_on_c, 1, 51, 0
3, 126300, Note_on_c, 1, 63, 102
3, 126333, Control_c, 1, 64, 0
3, 126359, Note_on_c, 1, 63, 0
3, 126360, Note_on_c, 1, 52, 85
3, 126372, Control_c, 1, 64, 127
3, 126419, Note_on_c, 1, 52, 0
3, 126420, Note_on_c, 1, 64, 85
3, 126456, Control_c, 1, 64, 0
3, 126479, Note_on_c, 1, 64, 0
3, 126480, Note_on_c, 1, 53, 80
3, 126500, Control_c, 1, 64, 127
3, 126539, Note_on_c, 1, 53, 0
3, 126540, Note_on_c, 1, 65, 89
3, 126582, Control_c, 1, 64, 0
3, 126599, Note_on_c, 1, 65, 0
3, 126600, Note_on_c, 1, 52, 89
3, 126622, Control_c, 1, 64, 127
3, 126659, Note_on_c, 1, 52, 0
3, 126660, Note_on_c, 1, 64, 85
3, 126695, Control_c, 1, 64, 0
3, 126719, Note_on_c, 1, 64, 0
3, 126720, Note_on_c, 1, 53, 80
3, 126737, Control_c, 1, 64, 127
3, 126779, Note_on_c, 1, 53, 0
3, 126780, Note_on_c, 1, 65, 93
3, 126826, Control_c, 1, 64, 0
3, 126839, Note_on_c, 1, 65, 0
3, 126840, Note_on_c, 1, 41, 89
3, 126861, Control_c, 1, 64, 127
3, 126899, Note_on_c, 1, 41, 0
3, 126900, Note_on_c, 1, 53, 89
3, 126939, Control_c, 1, 64, 0
3, 126959, Note_on_c, 1, 53, 0
3, 126960, Note_on_c, 1, 58, 85
3, 126960, Note_on_c, 1, 62, 93
3, 126960, Note_on_c, 1, 46, 89
3, 126970, Control_c, 1, 64, 127
3, 127019, Note_on_c, 1, 46, 0
3, 127019, Note_on_c, 1, 62, 0
3, 127019, Note_on_c, 1, 58, 0
3, 127077, Control_c, 1, 64, 0
3, 128520, Note_on_c, 1, 39, 93
3, 128520, Note_on_c, 1, 55, 98
3, 128520, Note_on_c, 1, 51, 93
3, 128521, Control_c, 1, 64, 127
3, 128579, Note_on_c, 1, 51, 0
3, 128579, Note_on_c, 1, 55, 0
3, 128579, Note_on_c, 1, 39, 0
3, 128617, Control_c, 1, 64, 0
3, 128640, Note_on_c, 1, 53, 98
3, 128640, Note_on_c, 1, 41, 89
3, 128640, Note_on_c, 1, 50, 102
3, 128652, Control_c, 1, 64, 127
3, 128699, Note_on_c, 1, 50, 0
3, 128699, Note_on_c, 1, 41, 0
3, 128699, Note_on_c, 1, 53, 0
3, 128739, Control_c, 1, 64, 0
3, 128760, Note_on_c, 1, 53, 89
3, 128760, Note_on_c, 1, 29, 98
3, 128760, Note_on_c, 1, 48, 98
3, 128760, Note_on_c, 1, 51, 93
3, 128760, Note_on_c, 1, 57, 107
3, 128769, Control_c, 1, 64, 127
3, 128819, Note_on_c, 1, 57, 0
3, 128819, Note_on_c, 1, 48, 0
3, 128819, Note_on_c, 1, 53, 0
3, 128819, Note_on_c, 1, 29, 0
3, 128819, Note_on_c, 1, 51, 0
3, 128873, Control_c, 1, 64, 0
3, 128880, Note_on_c, 1, 46, 76
3, 128880, Note_on_c, 1, 62, 89
3, 128919, Control_c, 1, 64, 127
3, 128939, Note_on_c, 1, 62, 0
3, 128939, Note_on_c, 1, 46, 0
3, 128940, Note_on_c, 1, 48, 89
3, 128940, Note_on_c, 1, 63, 80
3, 128957, Control_c, 1, 64, 0
3, 128999, Note_on_c, 1, 63, 0
3, 128999, Note_on_c, 1, 48, 0
3, 129000, Note_on_c, 1, 65, 85
3, 129000, Note_on_c, 1, 50, 85
3, 129059, Note_on_c, 1, 50, 0
3, 129059, Note_on_c, 1, 65, 0
3, 129060, Note_on_c, 1, 63, 72
3, 129060, Note_on_c, 1, 48, 80
3, 129119, Note_on_c, 1, 48, 0
3, 129119, Note_on_c, 1, 63, 0
3, 129120, Note_on_c, 1, 62, 85
3, 129120, Note_on_c, 1, 46, 76
3, 129179, Note_on_c, 1, 46, 0
3, 129179, Note_on_c, 1, 62, 0
3, 129180, Note_on_c, 1, 60, 85
3, 129180, Note_on_c, 1, 45, 76
3, 129239, Note_on_c, 1, 45, 0
3, 129239, Note_on_c, 1, 60, 0
3, 129240, Note_on_c, 1, 43, 64
3, 129240, Note_on_c, 1, 58, 72
3, 129299, Note_on_c, 1, 58, 0
3, 129299, Note_on_c, 1, 43, 0
3, 129300, Note_on_c, 1, 57, 93
3, 129300, Note_on_c, 1, 41, 64
3, 129359, Note_on_c, 1, 41, 0
3, 129359, Note_on_c, 1, 57, 0
3, 129360, Note_on_c, 1, 43, 72
3, 129360, Note_on_c, 1, 58, 76
3, 129419, Note_on_c, 1, 58, 0
3, 129419, Note_on_c, 1, 43, 0
3, 129420, Note_on_c, 1, 60, 80
3, 129420, Note_on_c, 1, 45, 68
3, 129479, Note_on_c, 1, 45, 0
3, 129479, Note_on_c, 1, 60, 0
3, 129480, Note_on_c, 1, 62, 80
3, 129480, Note_on_c, 1, 46, 68
3, 129532, Control_c, 1, 64, 127
3, 129539, Note_on_c, 1, 46, 0
3, 129539, Note_on_c, 1, 62, 0
3, 129540, Note_on_c, 1, 60, 72
3, 129540, Note_on_c, 1, 45, 64
3, 129560, Control_c, 1, 64, 0
3, 129599, Note_on_c, 1, 45, 0
3, 129599, Note_on_c, 1, 60, 0
3, 129600, Note_on_c, 1, 58, 68
3, 129600, Note_on_c, 1, 43, 76
3, 129659, Note_on_c, 1, 43, 0
3, 129659, Note_on_c, 1, 58, 0
3, 129660, Note_on_c, 1, 57, 80
3, 129660, Note_on_c, 1, 41, 76
3, 129705, Control_c, 1, 64, 127
3, 129719, Note_on_c, 1, 41, 0
3, 129719, Note_on_c, 1, 57, 0
3, 129720, Note_on_c, 1, 39, 59
3, 129720, Note_on_c, 1, 55, 80
3, 129724, Control_c, 1, 64, 0
3, 129776, Control_c, 1, 64, 127
3, 129779, Note_on_c, 1, 55, 0
3, 129779, Note_on_c, 1, 39, 0
3, 129780, Note_on_c, 1, 54, 76
3, 129780, Note_on_c, 1, 38, 93
3, 129783, Control_c, 1, 64, 0
3, 129839, Note_on_c, 1, 38, 0
3, 129839, Note_on_c, 1, 54, 0
3, 129840, Note_on_c, 1, 54, 60
3, 129840, Note_on_c, 1, 39, 76
3, 129840, Note_on_c, 1, 55, 76
3, 129899, Note_on_c, 1, 55, 0
3, 129899, Note_on_c, 1, 39, 0
3, 129899, Note_on_c, 1, 54, 0
3, 129900, Note_on_c, 1, 41, 89
3, 129900, Note_on_c, 1, 57, 80
3, 129959, Note_on_c, 1, 57, 0
3, 129959, Note_on_c, 1, 41, 0
3, 129960, Note_on_c, 1, 58, 57
3, 129960, Note_on_c, 1, 43, 72
3, 129989, Control_c, 1, 64, 127
3, 130019, Note_on_c, 1, 43, 0
3, 130019, Note_on_c, 1, 58, 0
3, 130020, Note_on_c, 1, 57, 85
3, 130020, Note_on_c, 1, 41, 72
3, 130024, Control_c, 1, 64, 0
3, 130079, Note_on_c, 1, 41, 0
3, 130079, Note_on_c, 1, 57, 0
3, 130080, Note_on_c, 1, 55, 72
3, 130080, Note_on_c, 1, 39, 62
3, 130124, Control_c, 1, 64, 127
3, 130139, Note_on_c, 1, 39, 0
3, 130139, Note_on_c, 1, 55, 0
3, 130140, Note_on_c, 1, 53, 80
3, 130140, Note_on_c, 1, 38, 89
3, 130143, Control_c, 1, 64, 0
3, 130199, Note_on_c, 1, 38, 0
3, 130199, Note_on_c, 1, 53, 0
3, 130200, Note_on_c, 1, 36, 64
3, 130200, Note_on_c, 1, 51, 72
3, 130235, Control_c, 1, 64, 127
3, 130259, Note_on_c, 1, 51, 0
3, 130259, Note_on_c, 1, 36, 0
3, 130260, Note_on_c, 1, 34, 72
3, 130260, Note_on_c, 1, 50, 89
3, 130319, Note_on_c, 1, 50, 0
3, 130319, Note_on_c, 1, 34, 0
3, 130320, Note_on_c, 1, 39, 52
3, 130320, Note_on_c, 1, 48, 107
3, 130324, Control_c, 1, 64, 0
3, 130365, Control_c, 1, 64, 127
3, 130379, Note_on_c, 1, 48, 0
3, 130379, Note_on_c, 1, 39, 0
3, 130422, Control_c, 1, 64, 0
3, 130440, Note_on_c, 1, 39, 85
3, 130440, Note_on_c, 1, 51, 98
3, 130440, Note_on_c, 1, 55, 93
3, 130465, Control_c, 1, 64, 127
3, 130499, Note_on_c, 1, 55, 0
3, 130499, Note_on_c, 1, 51, 0
3, 130499, Note_on_c, 1, 39, 0
3, 130542, Control_c, 1, 64, 0
3, 130560, Note_on_c, 1, 53, 93
3, 130560, Note_on_c, 1, 50, 102
3, 130560, Note_on_c, 1, 41, 89
3, 130581, Control_c, 1, 64, 127
3, 130619, Note_on_c, 1, 41, 0
3, 130619, Note_on_c, 1, 50, 0
3, 130619, Note_on_c, 1, 53, 0
3, 130662, Control_c, 1, 64, 0
3, 130680, Note_on_c, 1, 29, 93
3, 130680, Note_on_c, 1, 53, 93
3, 130680, Note_on_c, 1, 51, 93
3, 130680, Note_on_c, 1, 57, 102
3, 130680, Note_on_c, 1, 48, 98
3, 130700, Control_c, 1, 64, 127
3, 130739, Note_on_c, 1, 48, 0
3, 130739, Note_on_c, 1, 51, 0
3, 130739, Note_on_c, 1, 29, 0
3, 130739, Note_on_c, 1, 53, 0
3, 130739, Note_on_c, 1, 57, 0
3, 130783, Control_c, 1, 64, 0
3, 130800, Note_on_c, 1, 34, 76
3, 130800, Note_on_c, 1, 50, 102
3, 130800, Note_on_c, 1, 46, 93
3, 130800, Note_on_c, 1, 53, 98
3, 130800, Note_on_c, 1, 58, 89
3, 130817, Control_c, 1, 64, 127
3, 130859, Note_on_c, 1, 58, 0
3, 130859, Note_on_c, 1, 46, 0
3, 130859, Note_on_c, 1, 34, 0
3, 130859, Note_on_c, 1, 50, 0
3, 130859, Note_on_c, 1, 53, 0
3, 130910, Control_c, 1, 64, 0
3, 130920, Note_on_c, 1, 53, 102
3, 130920, Note_on_c, 1, 41, 85
3, 130920, Note_on_c, 1, 40, 62
3, 130979, Note_on_c, 1, 40, 0
3, 131049, Control_c, 1, 64, 127
3, 131156, Control_c, 1, 64, 0
3, 131160, Note_on_c, 1, 41, 0
3, 131160, Note_on_c, 1, 53, 0
3, 131160, Note_on_c, 1, 38, 76
3, 131160, Note_on_c, 1, 50, 85
3, 131196, Control_c, 1, 64, 127
3, 131219, Note_on_c, 1, 50, 0
3, 131219, Note_on_c, 1, 38, 0
3, 131220, Note_on_c, 1, 33, 80
3, 131220, Note_on_c, 1, 45, 64
3, 131250, Control_c, 1, 64, 0
3, 131279, Note_on_c, 1, 45, 0
3, 131279, Note_on_c, 1, 33, 0
3, 131280, Note_on_c, 1, 46, 80
3, 131280, Note_on_c, 1, 34, 76
3, 131291, Control_c, 1, 64, 127
3, 131339, Note_on_c, 1, 34, 0
3, 131339, Note_on_c, 1, 46, 0
3, 131383, Control_c, 1, 64, 0
3, 131400, Note_on_c, 1, 53, 113
3, 131400, Note_on_c, 1, 41, 102
3, 131428, Control_c, 1, 64, 127
3, 131640, Note_on_c, 1, 41, 0
3, 131640, Note_on_c, 1, 53, 0
3, 131640, Note_on_c, 1, 38, 85
3, 131640, Note_on_c, 1, 50, 98
3, 131642, Control_c, 1, 64, 0
3, 131678, Control_c, 1, 64, 127
3, 131699, Note_on_c, 1, 50, 0
3, 131699, Note_on_c, 1, 38, 0
3, 131700, Note_on_c, 1, 33, 89
3, 131700, Note_on_c, 1, 45, 85
3, 131744, Control_c, 1, 64, 0
3, 131759, Note_on_c, 1, 45, 0
3, 131759, Note_on_c, 1, 33, 0
3, 131760, Note_on_c, 1, 46, 98
3, 131760, Note_on_c, 1, 34, 85
3, 131784, Control_c, 1, 64, 127
3, 131819, Note_on_c, 1, 34, 0
3, 131819, Note_on_c, 1, 46, 0
3, 131877, Control_c, 1, 64, 0
3, 132720, Note_on_c, 1, 38, 102
3, 132722, Control_c, 1, 64, 127
3, 132779, Note_on_c, 1, 38, 0
3, 132780, Note_on_c, 1, 50, 119
3, 132789, Control_c, 1, 64, 0
3, 132839, Note_on_c, 1, 50, 0
3, 132840, Note_on_c, 1, 39, 93
3, 132845, Control_c, 1, 64, 127
3, 132899, Note_on_c, 1, 39, 0
3, 132900, Note_on_c, 1, 51, 113
3, 132917, Control_c, 1, 64, 0
3, 132959, Note_on_c, 1, 51, 0
3, 132960, Note_on_c, 1, 41, 89
3, 132970, Control_c, 1, 64, 127
3, 133019, Note_on_c, 1, 41, 0
3, 133020, Note_on_c, 1, 53, 107
3, 133048, Control_c, 1, 64, 0
3, 133079, Note_on_c, 1, 53, 0
3, 133080, Note_on_c, 1, 43, 93
3, 133096, Control_c, 1, 64, 127
3, 133139, Note_on_c, 1, 43, 0
3, 133140, Note_on_c, 1, 55, 113
3, 133164, Control_c, 1, 64, 0
3, 133199, Note_on_c, 1, 55, 0
3, 133200, Note_on_c, 1, 39, 119
3, 133200, Control_c, 1, 64, 127
3, 133259, Note_on_c, 1, 39, 0
3, 133303, Control_c, 1, 64, 0
3, 133320, Note_on_c, 1, 55, 102
3, 133320, Note_on_c, 1, 51, 107
3, 133320, Note_on_c, 1, 39, 89
3, 133337, Control_c, 1, 64, 127
3, 133379, Note_on_c, 1, 39, 0
3, 133379, Note_on_c, 1, 51, 0
3, 133379, Note_on_c, 1, 55, 0
3, 133417, Control_c, 1, 64, 0
3, 133440, Note_on_c, 1, 53, 102
3, 133440, Note_on_c, 1, 50, 107
3, 133440, Note_on_c, 1, 41, 93
3, 133451, Control_c, 1, 64, 127
3, 133499, Note_on_c, 1, 41, 0
3, 133499, Note_on_c, 1, 50, 0
3, 133499, Note_on_c, 1, 53, 0
3, 133541, Control_c, 1, 64, 0
3, 133560, Note_on_c, 1, 53, 93
3, 133560, Note_on_c, 1, 29, 93
3, 133560, Note_on_c, 1, 57, 107
3, 133560, Note_on_c, 1, 48, 102
3, 133560, Note_on_c, 1, 51, 93
3, 133574, Control_c, 1, 64, 127
3, 133619, Note_on_c, 1, 51, 0
3, 133619, Note_on_c, 1, 57, 0
3, 133619, Note_on_c, 1, 53, 0
3, 133619, Note_on_c, 1, 29, 0
3, 133619, Note_on_c, 1, 48, 0
3, 133656, Control_c, 1, 64, 0
3, 133680, Note_on_c, 1, 38, 93
3, 133694, Control_c, 1, 64, 127
3, 133739, Note_on_c, 1, 38, 0
3, 133740, Note_on_c, 1, 50, 113
3, 133749, Control_c, 1, 64, 0
3, 133799, Note_on_c, 1, 50, 0
3, 133800, Note_on_c, 1, 39, 93
3, 133804, Control_c, 1, 64, 127
3, 133859, Note_on_c, 1, 39, 0
3, 133860, Note_on_c, 1, 51, 113
3, 133880, Control_c, 1, 64, 0
3, 133919, Note_on_c, 1, 51, 0
3, 133920, Note_on_c, 1, 41, 107
3, 133925, Control_c, 1, 64, 127
3, 133979, Note_on_c, 1, 41, 0
3, 133980, Note_on_c, 1, 53, 113
3, 133997, Control_c, 1, 64, 0
3, 134039, Note_on_c, 1, 53, 0
3, 134040, Note_on_c, 1, 43, 113
3, 134041, Control_c, 1, 64, 127
3, 134099, Note_on_c, 1, 43, 0
3, 134100, Note_on_c, 1, 55, 107
3, 134121, Control_c, 1, 64, 0
3, 134159, Note_on_c, 1, 55, 0
3, 134159, Control_c, 1, 64, 127
3, 134160, Note_on_c, 1, 39, 119
3, 134219, Note_on_c, 1, 39, 0
3, 134258, Control_c, 1, 64, 0
3, 134280, Note_on_c, 1, 55, 102
3, 134280, Note_on_c, 1, 51, 102
3, 134280, Note_on_c, 1, 39, 93
3, 134292, Control_c, 1, 64, 127
3, 134339, Note_on_c, 1, 39, 0
3, 134339, Note_on_c, 1, 51, 0
3, 134339, Note_on_c, 1, 55, 0
3, 134378, Control_c, 1, 64, 0
3, 134400, Note_on_c, 1, 53, 102
3, 134400, Note_on_c, 1, 50, 102
3, 134400, Note_on_c, 1, 41, 89
3, 134410, Control_c, 1, 64, 127
3, 134459, Note_on_c, 1, 41, 0
3, 134459, Note_on_c, 1, 50, 0
3, 134459, Note_on_c, 1, 53, 0
3, 134499, Control_c, 1, 64, 0
3, 134520, Note_on_c, 1, 29, 98
3, 134520, Note_on_c, 1, 53, 93
3, 134520, Note_on_c, 1, 57, 102
3, 134520, Note_on_c, 1, 51, 98
3, 134520, Note_on_c, 1, 48, 107
3, 134530, Control_c, 1, 64, 127
3, 134579, Note_on_c, 1, 48, 0
3, 134579, Note_on_c, 1, 57, 0
3, 134579, Note_on_c, 1, 29, 0
3, 134579, Note_on_c, 1, 53, 0
3, 134579, Note_on_c, 1, 51, 0
3, 134605, Control_c, 1, 64, 0
3, 134637, Control_c, 1, 64, 127
3, 134640, Note_on_c, 1, 50, 102
3, 134640, Note_on_c, 1, 46, 98
3, 134640, Note_on_c, 1, 58, 93
3, 134640, Note_on_c, 1, 34, 85
3, 134640, Note_on_c, 1, 53, 98
3, 134699, Note_on_c, 1, 53, 0
3, 134699, Note_on_c, 1, 58, 0
3, 134699, Note_on_c, 1, 50, 0
3, 134699, Note_on_c, 1, 46, 0
3, 134699, Note_on_c, 1, 34, 0
3, 134735, Control_c, 1, 64, 0
3, 134760, Note_on_c, 1, 53, 113
3, 134760, Note_on_c, 1, 41, 113
3, 134784, Control_c, 1, 64, 127
3, 134880, Note_on_c, 1, 41, 0
3, 134880, Note_on_c, 1, 53, 0
3, 134987, Control_c, 1, 64, 0
3, 135000, Note_on_c, 1, 38, 72
3, 135000, Note_on_c, 1, 50, 89
3, 135030, Control_c, 1, 64, 127
3, 135059, Note_on_c, 1, 50, 0
3, 135059, Note_on_c, 1, 38, 0
3, 135060, Note_on_c, 1, 45, 64
3, 135060, Note_on_c, 1, 33, 76
3, 135104, Control_c, 1, 64, 0
3, 135119, Note_on_c, 1, 33, 0
3, 135119, Note_on_c, 1, 45, 0
3, 135120, Note_on_c, 1, 34, 62
3, 135120, Note_on_c, 1, 46, 85
3, 135137, Control_c, 1, 64, 127
3, 135179, Note_on_c, 1, 46, 0
3, 135179, Note_on_c, 1, 34, 0
3, 135227, Control_c, 1, 64, 0
3, 135240, Note_on_c, 1, 53, 119
3, 135240, Note_on_c, 1, 41, 119
3, 135285, Control_c, 1, 64, 127
3, 135360, Note_on_c, 1, 41, 0
3, 135360, Note_on_c, 1, 53, 0
3, 135458, Control_c, 1, 64, 0
3, 135480, Note_on_c, 1, 50, 93
3, 135480, Note_on_c, 1, 38, 76
3, 135498, Control_c, 1, 64, 127
3, 135539, Note_on_c, 1, 38, 0
3, 135539, Note_on_c, 1, 50, 0
3, 135540, Note_on_c, 1, 45, 64
3, 135540, Note_on_c, 1, 33, 72
3, 135589, Control_c, 1, 64, 0
3, 135599, Note_on_c, 1, 33, 0
3, 135599, Note_on_c, 1, 45, 0
3, 135600, Note_on_c, 1, 34, 89
3, 135600, Note_on_c, 1, 46, 107
3, 135600, Control_c, 1, 64, 127
3, 135659, Note_on_c, 1, 46, 0
3, 135659, Note_on_c, 1, 34, 0
3, 135713, Control_c, 1, 64, 0
3, 135840, Note_on_c, 1, 53, 62
3, 135840, Note_on_c, 1, 41, 93
3, 135855, Note_on_c, 1, 57, 93
3, 135870, Note_on_c, 1, 60, 102
3, 135879, Control_c, 1, 64, 127
3, 135885, Note_on_c, 1, 63, 107
3, 135960, Note_on_c, 1, 41, 0
3, 135960, Note_on_c, 1, 53, 0
3, 135975, Note_on_c, 1, 57, 0
3, 135990, Note_on_c, 1, 60, 0
3, 136005, Note_on_c, 1, 63, 0
3, 136015, Control_c, 1, 64, 0
3, 136080, Note_on_c, 1, 50, 80
3, 136080, Note_on_c, 1, 34, 85
3, 136080, Note_on_c, 1, 46, 93
3, 136095, Note_on_c, 1, 53, 107
3, 136110, Note_on_c, 1, 58, 102
3, 136179, Control_c, 1, 64, 127
3, 136200, Note_on_c, 1, 46, 0
3, 136200, Note_on_c, 1, 50, 0
3, 136200, Note_on_c, 1, 34, 0
3, 136207, Control_c, 1, 64, 0
3, 136215, Note_on_c, 1, 53, 0
3, 136230, Note_on_c, 1, 58, 0
3, 136320, Control_c, 1, 121, 0
3, 136320, End_track
4, 0, Start_track
4, 0, MIDI_port, 0
4, 0, End_track
5, 0, Start_track
5, 0, MIDI_port, 0
5, 0, Title_t, "Title: Sonate in Bbmaj (K. 358, 1774)"
5, 0, End_track
6, 0, Start_track
6, 0, MIDI_port, 0
6, 0, Title_t, "Composer: W. A. Mozart"
6, 0, End_track
7, 0, Start_track
7, 0, MIDI_port, 0
7, 0, Title_t, "Sequence: Faren Raborn, Copyright 1996"
7, 0, End_track
8, 0, Start_track
8, 0, MIDI_port, 0
8, 0, Title_t, "Email: raborn@dtx.net"
8, 0, End_track
0, 0, End_of_file
