0, 0, Header, 0, 1, 240
1, 0, Start_track
1, 0, Time_signature, 1, 2, 24, 8
1, 0, Tempo, 500000
1, 0, Program_c, 0, 0
1, 0, Control_c, 0, 7, 127
1, 0, Control_c, 0, 10, 76
1, 0, Program_c, 1, 0
1, 0, Control_c, 1, 7, 127
1, 0, Control_c, 1, 10, 75
1, 0, Program_c, 2, 0
1, 0, Control_c, 2, 7, 127
1, 0, Control_c, 2, 10, 74
1, 0, Program_c, 3, 0
1, 0, Control_c, 3, 7, 127
1, 0, Control_c, 3, 10, 66
1, 0, Program_c, 4, 0
1, 0, Control_c, 4, 7, 127
1, 0, Control_c, 4, 10, 58
1, 108, Marker_t, "Mozart PS No.13 in BfM, K.333 (315c) Interpreted/Copyright 1998-99 S D Rodrian"
1, 120, Control_c, 0, 32, 0
1, 120, Control_c, 0, 10, 77
1, 120, Control_c, 0, 7, 127
1, 120, Control_c, 0, 91, 91
1, 120, Control_c, 0, 64, 0
1, 120, Control_c, 0, 93, 28
1, 120, Control_c, 0, 0, 0
1, 360, Control_c, 1, 32, 0
1, 360, Control_c, 1, 10, 76
1, 360, Control_c, 1, 7, 127
1, 360, Control_c, 1, 91, 91
1, 360, Control_c, 1, 64, 0
1, 360, Control_c, 1, 93, 28
1, 360, Control_c, 1, 0, 0
1, 636, Control_c, 2, 32, 0
1, 636, Control_c, 2, 10, 75
1, 636, Control_c, 2, 93, 28
1, 636, Control_c, 2, 64, 0
1, 636, Control_c, 2, 91, 91
1, 636, Control_c, 2, 7, 127
1, 636, Control_c, 2, 0, 0
1, 888, Control_c, 3, 32, 0
1, 888, Control_c, 3, 10, 67
1, 888, Control_c, 3, 93, 28
1, 888, Control_c, 3, 64, 0
1, 888, Control_c, 3, 91, 91
1, 888, Control_c, 3, 7, 127
1, 888, Control_c, 3, 0, 0
1, 1116, Control_c, 4, 32, 0
1, 1116, Control_c, 4, 10, 58
1, 1116, Control_c, 4, 93, 28
1, 1116, Control_c, 4, 91, 91
1, 1116, Control_c, 4, 64, 0
1, 1116, Control_c, 4, 7, 127
1, 1116, Control_c, 4, 0, 0
1, 2230, Note_on_c, 1, 79, 105
1, 2281, Note_on_c, 2, 77, 108
1, 2285, Note_off_c, 1, 79, 100
1, 2329, Note_on_c, 2, 75, 111
1, 2335, Note_off_c, 2, 77, 100
1, 2377, Note_on_c, 2, 74, 113
1, 2383, Note_off_c, 2, 75, 100
1, 2431, Note_on_c, 2, 72, 113
1, 2436, Note_off_c, 2, 74, 100
1, 2529, Note_off_c, 2, 72, 100
1, 2531, Note_on_c, 2, 70, 126
1, 2532, Note_on_c, 4, 60, 121
1, 2628, Note_off_c, 2, 70, 100
1, 2632, Note_on_c, 2, 70, 126
1, 2632, Note_on_c, 4, 62, 121
1, 2642, Note_off_c, 4, 60, 100
1, 2725, Note_on_c, 4, 65, 122
1, 2735, Note_off_c, 4, 62, 100
1, 2819, Note_on_c, 4, 62, 121
1, 2882, Note_off_c, 4, 65, 100
1, 2905, Note_off_c, 2, 70, 100
1, 2913, Note_on_c, 2, 74, 113
1, 2914, Note_on_c, 4, 58, 124
1, 2977, Note_off_c, 4, 62, 100
1, 3008, Note_off_c, 2, 74, 100
1, 3009, Note_on_c, 4, 62, 124
1, 3009, Note_on_c, 1, 79, 105
1, 3105, Note_off_c, 1, 79, 100
1, 3106, Note_on_c, 2, 67, 127
1, 3106, Note_on_c, 2, 74, 113
1, 3168, Note_off_c, 4, 62, 100
1, 3205, Note_off_c, 2, 74, 100
1, 3205, Note_on_c, 2, 77, 108
1, 3237, Note_off_c, 4, 58, 100
1, 3296, Note_off_c, 2, 67, 100
1, 3302, Note_on_c, 4, 60, 124
1, 3394, Note_off_c, 2, 77, 100
1, 3398, Note_on_c, 2, 75, 111
1, 3398, Note_on_c, 4, 63, 124
1, 3409, Note_off_c, 4, 60, 100
1, 3492, Note_on_c, 4, 65, 125
1, 3502, Note_off_c, 4, 63, 100
1, 3585, Note_on_c, 4, 63, 124
1, 3644, Note_off_c, 4, 65, 100
1, 3665, Note_off_c, 2, 75, 100
1, 3672, Note_on_c, 2, 77, 104
1, 3673, Note_on_c, 4, 58, 124
1, 3718, Note_on_c, 1, 79, 101
1, 3721, Note_off_c, 2, 77, 100
1, 3733, Note_off_c, 4, 63, 100
1, 3762, Note_on_c, 4, 63, 127
1, 3762, Note_on_c, 2, 77, 104
1, 3767, Note_off_c, 1, 79, 100
1, 3805, Note_on_c, 2, 75, 107
1, 3811, Note_off_c, 2, 77, 100
1, 3849, Note_on_c, 2, 74, 109
1, 3852, Note_on_c, 3, 67, 127
1, 3854, Note_off_c, 2, 75, 100
1, 3897, Note_on_c, 2, 72, 109
1, 3900, Note_off_c, 2, 74, 100
1, 3912, Note_off_c, 4, 63, 100
1, 3945, Note_on_c, 3, 70, 126
1, 3949, Note_off_c, 2, 72, 100
1, 3978, Note_off_c, 4, 58, 100
1, 4045, Note_off_c, 3, 67, 100
1, 4045, Note_on_c, 4, 53, 127
1, 4136, Note_off_c, 3, 70, 100
1, 4140, Note_on_c, 3, 69, 126
1, 4140, Note_on_c, 4, 60, 127
1, 4235, Note_on_c, 4, 63, 127
1, 4245, Note_off_c, 4, 60, 100
1, 4328, Note_on_c, 4, 60, 127
1, 4356, Note_off_c, 4, 53, 100
1, 4387, Note_off_c, 4, 63, 100
1, 4408, Note_off_c, 3, 69, 100
1, 4416, Note_on_c, 4, 53, 127
1, 4416, Note_on_c, 3, 69, 126
1, 4426, Note_off_c, 4, 60, 100
1, 4505, Note_off_c, 3, 69, 100
1, 4507, Note_on_c, 3, 70, 126
1, 4508, Note_on_c, 4, 60, 127
1, 4598, Note_off_c, 3, 70, 100
1, 4600, Note_on_c, 2, 72, 115
1, 4601, Note_on_c, 4, 63, 127
1, 4611, Note_off_c, 4, 60, 100
1, 4692, Note_off_c, 2, 72, 100
1, 4697, Note_on_c, 2, 72, 115
1, 4699, Note_on_c, 2, 69, 126
1, 4730, Note_off_c, 4, 53, 100
1, 4763, Note_off_c, 4, 63, 100
1, 4794, Note_on_c, 4, 58, 127
1, 4894, Note_off_c, 2, 72, 100
1, 4895, Note_off_c, 2, 69, 100
1, 4898, Note_on_c, 2, 74, 115
1, 4898, Note_on_c, 4, 62, 127
1, 4899, Note_on_c, 2, 70, 126
1, 4908, Marker_t, "Copyright 1998-99 (P) S.D.Rodrian -  NOT to be reproduced or sold sans permission !"
1, 4997, Note_on_c, 4, 65, 127
1, 5008, Note_off_c, 4, 62, 100
1, 5093, Note_on_c, 4, 62, 127
1, 5124, Note_off_c, 4, 58, 100
1, 5154, Note_off_c, 4, 65, 100
1, 5181, Note_off_c, 2, 74, 100
1, 5183, Note_off_c, 2, 70, 100
1, 5185, Note_on_c, 4, 58, 127
1, 5185, Note_on_c, 2, 77, 110
1, 5196, Note_off_c, 4, 62, 100
1, 5232, Note_on_c, 2, 76, 110
1, 5236, Note_off_c, 2, 77, 100
1, 5272, Note_on_c, 1, 79, 107
1, 5273, Note_on_c, 4, 62, 127
1, 5277, Note_off_c, 2, 76, 100
1, 5319, Note_on_c, 2, 77, 110
1, 5325, Note_off_c, 1, 79, 100
1, 5364, Note_on_c, 2, 75, 113
1, 5364, Note_on_c, 4, 65, 127
1, 5368, Note_off_c, 2, 77, 100
1, 5374, Note_off_c, 4, 62, 100
1, 5411, Note_on_c, 2, 74, 115
1, 5414, Note_off_c, 2, 75, 100
1, 5451, Note_off_c, 2, 74, 100
1, 5455, Note_on_c, 4, 63, 127
1, 5455, Note_on_c, 2, 74, 115
1, 5465, Note_off_c, 4, 65, 100
1, 5486, Note_off_c, 4, 58, 100
1, 5548, Note_off_c, 2, 74, 100
1, 5548, Note_on_c, 2, 72, 115
1, 5549, Note_on_c, 2, 67, 127
1, 5558, Note_off_c, 4, 63, 100
1, 5639, Note_on_c, 4, 62, 127
1, 5699, Note_off_c, 2, 67, 100
1, 5729, Note_on_c, 2, 70, 126
1, 5730, Note_on_c, 4, 65, 127
1, 5740, Note_off_c, 4, 62, 100
1, 5820, Note_off_c, 2, 72, 100
1, 5821, Note_on_c, 2, 74, 115
1, 5821, Note_on_c, 4, 63, 127
1, 5879, Note_off_c, 4, 65, 100
1, 5880, Note_off_c, 2, 70, 100
1, 5911, Note_off_c, 2, 74, 100
1, 5911, Note_on_c, 2, 72, 115
1, 5912, Note_on_c, 2, 67, 127
1, 5973, Note_off_c, 4, 63, 100
1, 6004, Note_on_c, 4, 60, 127
1, 6065, Note_off_c, 2, 67, 100
1, 6096, Note_on_c, 2, 69, 126
1, 6096, Note_on_c, 4, 63, 127
1, 6107, Note_off_c, 4, 60, 100
1, 6189, Note_off_c, 4, 63, 100
1, 6190, Note_off_c, 2, 69, 100
1, 6190, Note_off_c, 2, 72, 100
1, 6191, Note_on_c, 4, 65, 127
1, 6191, Note_on_c, 2, 70, 126
1, 6192, Note_on_c, 4, 62, 127
1, 6232, Note_on_c, 2, 72, 115
1, 6238, Note_off_c, 2, 70, 100
1, 6279, Note_on_c, 2, 70, 126
1, 6284, Note_off_c, 2, 72, 100
1, 6324, Note_on_c, 2, 69, 126
1, 6328, Note_off_c, 2, 70, 100
1, 6367, Note_on_c, 2, 70, 126
1, 6371, Note_off_c, 2, 69, 100
1, 6411, Note_on_c, 2, 72, 115
1, 6415, Note_off_c, 2, 70, 100
1, 6453, Note_on_c, 2, 74, 115
1, 6457, Note_off_c, 2, 72, 100
1, 6496, Note_on_c, 2, 75, 113
1, 6501, Note_off_c, 2, 74, 100
1, 6540, Note_on_c, 2, 76, 110
1, 6543, Note_off_c, 2, 75, 100
1, 6582, Note_on_c, 2, 77, 110
1, 6587, Note_off_c, 2, 76, 100
1, 6627, Note_on_c, 2, 76, 110
1, 6631, Note_off_c, 2, 77, 100
1, 6670, Note_on_c, 2, 77, 110
1, 6673, Note_off_c, 2, 76, 100
1, 6714, Note_on_c, 1, 79, 107
1, 6718, Note_off_c, 2, 77, 100
1, 6757, Note_on_c, 2, 77, 110
1, 6760, Note_off_c, 1, 79, 100
1, 6801, Note_on_c, 2, 75, 113
1, 6806, Note_off_c, 2, 77, 100
1, 6847, Note_on_c, 2, 74, 116
1, 6851, Note_off_c, 2, 75, 100
1, 6891, Note_off_c, 2, 74, 100
1, 6895, Note_off_c, 4, 62, 100
1, 6896, Note_off_c, 4, 65, 100
1, 6896, Note_on_c, 2, 74, 116
1, 6897, Note_on_c, 4, 63, 127
1, 6989, Note_off_c, 2, 74, 100
1, 6990, Note_on_c, 2, 72, 116
1, 6990, Note_on_c, 2, 67, 127
1, 6997, Note_off_c, 4, 63, 100
1, 7075, Note_off_c, 2, 72, 100
1, 7081, Note_on_c, 2, 72, 116
1, 7082, Note_on_c, 4, 62, 127
1, 7090, Note_off_c, 2, 67, 100
1, 7175, Note_on_c, 4, 65, 127
1, 7175, Note_on_c, 2, 70, 126
1, 7181, Note_off_c, 4, 62, 100
1, 7264, Note_off_c, 2, 72, 100
1, 7264, Note_on_c, 2, 74, 116
1, 7265, Note_on_c, 4, 63, 127
1, 7271, Note_off_c, 2, 70, 100
1, 7271, Note_off_c, 4, 65, 100
1, 7356, Note_off_c, 2, 74, 100
1, 7356, Note_on_c, 2, 72, 116
1, 7357, Note_on_c, 2, 67, 127
1, 7363, Note_off_c, 4, 63, 100
1, 7443, Note_off_c, 2, 72, 100
1, 7450, Note_on_c, 4, 60, 127
1, 7451, Note_on_c, 2, 72, 116
1, 7457, Note_off_c, 2, 67, 100
1, 7543, Note_on_c, 2, 69, 126
1, 7544, Note_on_c, 4, 63, 127
1, 7552, Note_off_c, 4, 60, 100
1, 7629, Note_off_c, 4, 63, 100
1, 7629, Note_off_c, 2, 69, 100
1, 7637, Note_on_c, 4, 62, 127
1, 7637, Note_on_c, 2, 70, 126
1, 7638, Note_off_c, 2, 72, 100
1, 7638, Note_on_c, 4, 65, 127
1, 7728, Note_on_c, 2, 72, 116
1, 7735, Note_off_c, 2, 70, 100
1, 7774, Note_on_c, 2, 74, 116
1, 7777, Note_off_c, 2, 72, 100
1, 7818, Note_on_c, 2, 75, 114
1, 7824, Note_off_c, 2, 74, 100
1, 7862, Note_on_c, 2, 77, 111
1, 7868, Note_off_c, 2, 75, 100
1, 7908, Note_on_c, 1, 79, 108
1, 7912, Note_off_c, 2, 77, 100
1, 7952, Note_on_c, 1, 81, 106
1, 7956, Note_off_c, 1, 79, 100
1, 7996, Note_on_c, 1, 82, 106
1, 8000, Note_off_c, 1, 81, 100
1, 8040, Note_on_c, 1, 84, 113
1, 8044, Note_off_c, 1, 82, 100
1, 8083, Note_on_c, 1, 86, 115
1, 8087, Note_off_c, 1, 84, 100
1, 8125, Note_on_c, 1, 87, 112
1, 8131, Note_off_c, 1, 86, 100
1, 8169, Note_on_c, 1, 89, 112
1, 8173, Note_off_c, 1, 87, 100
1, 8257, Note_off_c, 1, 89, 100
1, 8261, Note_on_c, 1, 89, 112
1, 8344, Note_off_c, 4, 62, 100
1, 8344, Note_off_c, 4, 65, 100
1, 8347, Note_off_c, 1, 89, 100
1, 8349, Note_on_c, 1, 89, 112
1, 8350, Note_on_c, 2, 77, 111
1, 8350, Note_on_c, 4, 57, 127
1, 8441, Note_off_c, 1, 89, 100
1, 8445, Note_on_c, 1, 87, 112
1, 8539, Note_off_c, 4, 57, 100
1, 8539, Note_on_c, 4, 58, 127
1, 8626, Note_off_c, 1, 87, 100
1, 8630, Note_on_c, 1, 86, 115
1, 8714, Note_off_c, 2, 77, 100
1, 8716, Note_off_c, 1, 86, 100
1, 8722, Note_off_c, 4, 58, 100
1, 8723, Note_on_c, 1, 86, 115
1, 8723, Note_on_c, 2, 77, 111
1, 8724, Note_on_c, 4, 51, 127
1, 8814, Note_off_c, 2, 77, 100
1, 8815, Note_off_c, 1, 86, 100
1, 8815, Note_on_c, 1, 84, 113
1, 8816, Note_on_c, 2, 75, 114
1, 8905, Note_off_c, 1, 84, 100
1, 8905, Note_off_c, 2, 75, 100
1, 8905, Note_off_c, 4, 51, 100
1, 8906, Note_on_c, 1, 82, 106
1, 8906, Note_on_c, 2, 74, 116
1, 8907, Note_on_c, 4, 53, 127
1, 8996, Note_off_c, 2, 74, 100
1, 8996, Note_off_c, 1, 82, 100
1, 8997, Note_on_c, 1, 81, 106
1, 8997, Note_on_c, 2, 72, 116
1, 9088, Note_off_c, 2, 72, 100
1, 9089, Note_off_c, 1, 81, 100
1, 9089, Note_on_c, 1, 82, 106
1, 9090, Note_on_c, 1, 82, 106
1, 9090, Note_on_c, 2, 74, 116
1, 9179, Note_off_c, 4, 53, 100
1, 9186, Note_on_c, 4, 46, 127
1, 9282, Note_off_c, 2, 74, 100
1, 9284, Note_on_c, 2, 70, 127
1, 9284, Note_on_c, 4, 50, 127
1, 9290, Note_off_c, 4, 46, 100
1, 9376, Note_on_c, 4, 53, 127
1, 9384, Note_off_c, 4, 50, 100
1, 9467, Note_on_c, 4, 58, 127
1, 9474, Note_off_c, 4, 53, 100
1, 9532, Note_off_c, 1, 82, 100
1, 9532, Note_off_c, 1, 82, 100
1, 9643, Note_off_c, 2, 70, 100
1, 9651, Note_on_c, 2, 67, 127
1, 9701, Note_on_c, 3, 65, 127
1, 9705, Note_off_c, 2, 67, 100
1, 9749, Note_on_c, 3, 63, 127
1, 9753, Note_off_c, 3, 65, 100
1, 9795, Note_on_c, 3, 62, 127
1, 9801, Note_off_c, 3, 63, 100
1, 9843, Note_off_c, 4, 58, 100
1, 9843, Note_on_c, 4, 60, 127
1, 9848, Note_off_c, 3, 62, 100
1, 9934, Note_off_c, 4, 60, 100
1, 9935, Note_on_c, 4, 58, 127
1, 9935, Note_on_c, 4, 46, 127
1, 10029, Note_off_c, 4, 58, 100
1, 10035, Note_on_c, 4, 58, 127
1, 10035, Note_on_c, 4, 50, 127
1, 10042, Note_off_c, 4, 46, 100
1, 10130, Note_on_c, 4, 53, 127
1, 10138, Note_off_c, 4, 50, 100
1, 10224, Note_on_c, 4, 50, 127
1, 10232, Note_off_c, 4, 53, 100
1, 10315, Note_on_c, 2, 70, 127
1, 10316, Note_on_c, 4, 46, 127
1, 10322, Note_off_c, 4, 50, 100
1, 10339, Note_off_c, 4, 58, 100
1, 10408, Note_on_c, 2, 69, 127
1, 10409, Note_on_c, 4, 50, 127
1, 10417, Note_off_c, 2, 70, 100
1, 10417, Note_off_c, 4, 46, 100
1, 10503, Note_on_c, 2, 67, 127
1, 10503, Note_on_c, 4, 55, 127
1, 10511, Note_off_c, 4, 50, 100
1, 10512, Note_off_c, 2, 69, 100
1, 10598, Note_on_c, 3, 65, 127
1, 10606, Note_off_c, 2, 67, 100
1, 10680, Marker_t, "This file may be freely distributed on the WWW, as long as it's not modified. SDR"
1, 10692, Note_off_c, 4, 55, 100
1, 10693, Note_on_c, 4, 48, 127
1, 10780, Note_off_c, 3, 65, 100
1, 10789, Note_on_c, 4, 63, 127
1, 10790, Note_on_c, 4, 55, 127
1, 10796, Note_off_c, 4, 48, 100
1, 10881, Note_on_c, 4, 58, 127
1, 10887, Note_off_c, 4, 55, 100
1, 10966, Note_off_c, 4, 63, 100
1, 10976, Note_on_c, 4, 55, 127
1, 10976, Note_on_c, 4, 63, 127
1, 10983, Note_off_c, 4, 58, 100
1, 11023, Note_on_c, 2, 67, 127
1, 11028, Note_off_c, 4, 63, 100
1, 11071, Note_on_c, 3, 65, 127
1, 11071, Note_on_c, 4, 51, 127
1, 11074, Note_off_c, 2, 67, 100
1, 11077, Note_off_c, 4, 55, 100
1, 11114, Note_on_c, 2, 69, 127
1, 11118, Note_off_c, 3, 65, 100
1, 11160, Note_on_c, 2, 67, 127
1, 11161, Note_on_c, 4, 55, 126
1, 11165, Note_off_c, 2, 69, 100
1, 11169, Note_off_c, 4, 51, 100
1, 11206, Note_on_c, 2, 70, 127
1, 11211, Note_off_c, 2, 67, 100
1, 11254, Note_on_c, 2, 69, 127
1, 11254, Note_on_c, 4, 58, 126
1, 11258, Note_off_c, 2, 70, 100
1, 11262, Note_off_c, 4, 55, 100
1, 11299, Note_on_c, 2, 72, 127
1, 11304, Note_off_c, 2, 69, 100
1, 11347, Note_on_c, 2, 70, 127
1, 11350, Note_off_c, 2, 72, 100
1, 11393, Note_on_c, 2, 67, 127
1, 11396, Note_off_c, 2, 70, 100
1, 11435, Note_off_c, 4, 58, 100
1, 11436, Note_on_c, 4, 52, 126
1, 11436, Note_on_c, 2, 76, 122
1, 11440, Note_off_c, 2, 67, 100
1, 11481, Note_on_c, 2, 72, 127
1, 11486, Note_off_c, 2, 76, 100
1, 11525, Note_on_c, 1, 79, 119
1, 11526, Note_on_c, 4, 55, 126
1, 11528, Note_off_c, 2, 72, 100
1, 11532, Note_off_c, 4, 52, 100
1, 11570, Note_on_c, 2, 76, 122
1, 11574, Note_off_c, 1, 79, 100
1, 11613, Note_on_c, 1, 82, 118
1, 11613, Note_on_c, 4, 60, 126
1, 11617, Note_off_c, 2, 76, 100
1, 11619, Note_off_c, 4, 55, 100
1, 11661, Note_on_c, 1, 81, 119
1, 11664, Note_off_c, 1, 82, 100
1, 11703, Note_on_c, 4, 55, 126
1, 11703, Note_on_c, 1, 82, 118
1, 11707, Note_off_c, 1, 81, 100
1, 11712, Note_off_c, 4, 60, 100
1, 11752, Note_on_c, 1, 81, 119
1, 11756, Note_off_c, 1, 82, 100
1, 11794, Note_on_c, 1, 79, 119
1, 11795, Note_on_c, 4, 52, 126
1, 11798, Note_off_c, 1, 81, 100
1, 11801, Note_off_c, 4, 55, 100
1, 11837, Note_on_c, 2, 77, 122
1, 11841, Note_off_c, 1, 79, 100
1, 11880, Note_on_c, 2, 76, 122
1, 11880, Note_on_c, 4, 55, 126
1, 11884, Note_off_c, 2, 77, 100
1, 11888, Note_off_c, 4, 52, 100
1, 11925, Note_on_c, 2, 74, 127
1, 11928, Note_off_c, 2, 76, 100
1, 11969, Note_on_c, 2, 72, 127
1, 11969, Note_on_c, 4, 60, 126
1, 11974, Note_off_c, 2, 74, 100
1, 11977, Note_off_c, 4, 55, 100
1, 12014, Note_on_c, 2, 70, 127
1, 12020, Note_off_c, 2, 72, 100
1, 12056, Note_off_c, 2, 70, 100
1, 12062, Note_on_c, 2, 70, 127
1, 12106, Note_on_c, 2, 69, 127
1, 12112, Note_off_c, 2, 70, 100
1, 12154, Note_off_c, 4, 60, 100
1, 12155, Note_on_c, 4, 53, 123
1, 12155, Note_on_c, 2, 74, 127
1, 12159, Note_off_c, 2, 69, 100
1, 12201, Note_on_c, 2, 72, 127
1, 12207, Note_off_c, 2, 74, 100
1, 12249, Note_on_c, 2, 72, 127
1, 12250, Note_on_c, 4, 57, 123
1, 12256, Note_off_c, 4, 53, 100
1, 12338, Note_on_c, 4, 60, 120
1, 12346, Note_off_c, 4, 57, 100
1, 12434, Note_on_c, 4, 57, 117
1, 12442, Note_off_c, 4, 60, 100
1, 12525, Note_on_c, 4, 53, 120
1, 12532, Note_off_c, 4, 57, 100
1, 12615, Note_on_c, 1, 86, 125
1, 12615, Note_on_c, 4, 57, 120
1, 12624, Note_off_c, 4, 53, 100
1, 12666, Note_on_c, 1, 84, 123
1, 12670, Note_off_c, 1, 86, 100
1, 12712, Note_on_c, 1, 82, 114
1, 12712, Note_on_c, 4, 60, 120
1, 12717, Note_off_c, 1, 84, 100
1, 12719, Note_off_c, 4, 57, 100
1, 12759, Note_on_c, 1, 81, 115
1, 12763, Note_off_c, 1, 82, 100
1, 12803, Note_on_c, 1, 79, 115
1, 12804, Note_on_c, 4, 58, 120
1, 12808, Note_off_c, 1, 81, 100
1, 12812, Note_off_c, 4, 60, 100
1, 12898, Note_on_c, 4, 60, 120
1, 12906, Note_off_c, 4, 58, 100
1, 12991, Note_on_c, 4, 58, 120
1, 13000, Note_off_c, 4, 60, 100
1, 13080, Note_off_c, 1, 79, 100
1, 13088, Note_on_c, 2, 76, 118
1, 13089, Note_on_c, 4, 60, 120
1, 13095, Note_off_c, 4, 58, 100
1, 13179, Note_off_c, 2, 76, 100
1, 13180, Note_on_c, 2, 77, 118
1, 13180, Note_on_c, 4, 57, 120
1, 13188, Note_off_c, 4, 60, 100
1, 13227, Note_on_c, 1, 84, 119
1, 13230, Note_off_c, 2, 77, 100
1, 13274, Note_on_c, 1, 83, 114
1, 13275, Note_on_c, 4, 60, 120
1, 13279, Note_off_c, 1, 84, 100
1, 13282, Note_off_c, 4, 57, 100
1, 13320, Note_on_c, 1, 84, 119
1, 13324, Note_off_c, 1, 83, 100
1, 13368, Note_on_c, 1, 86, 121
1, 13369, Note_on_c, 4, 57, 120
1, 13373, Note_off_c, 1, 84, 100
1, 13375, Note_off_c, 4, 60, 100
1, 13416, Note_on_c, 1, 84, 119
1, 13421, Note_off_c, 1, 86, 100
1, 13463, Note_on_c, 1, 82, 114
1, 13463, Note_on_c, 4, 60, 120
1, 13466, Note_off_c, 1, 84, 100
1, 13470, Note_off_c, 4, 57, 100
1, 13510, Note_on_c, 1, 81, 115
1, 13513, Note_off_c, 1, 82, 100
1, 13558, Note_on_c, 1, 79, 120
1, 13558, Note_on_c, 4, 58, 120
1, 13562, Note_off_c, 1, 81, 100
1, 13564, Note_off_c, 4, 60, 100
1, 13647, Note_off_c, 1, 79, 100
1, 13649, Note_on_c, 1, 79, 115
1, 13650, Note_on_c, 4, 60, 123
1, 13657, Note_off_c, 4, 58, 100
1, 13744, Note_on_c, 4, 58, 123
1, 13752, Note_off_c, 4, 60, 100
1, 13829, Note_off_c, 1, 79, 100
1, 13836, Note_on_c, 2, 76, 118
1, 13837, Note_on_c, 4, 60, 123
1, 13845, Note_off_c, 4, 58, 100
1, 13884, Note_off_c, 2, 72, 100
1, 13884, Note_off_c, 2, 72, 100
1, 13930, Note_off_c, 2, 76, 100
1, 13930, Note_on_c, 2, 77, 114
1, 13931, Note_on_c, 4, 57, 123
1, 13938, Note_off_c, 4, 60, 100
1, 13977, Note_on_c, 1, 84, 115
1, 13982, Note_off_c, 2, 77, 100
1, 14025, Note_on_c, 1, 83, 110
1, 14025, Note_on_c, 4, 60, 123
1, 14029, Note_off_c, 1, 84, 100
1, 14033, Note_off_c, 4, 57, 100
1, 14072, Note_on_c, 1, 84, 115
1, 14075, Note_off_c, 1, 83, 100
1, 14118, Note_on_c, 1, 86, 117
1, 14118, Note_on_c, 4, 57, 123
1, 14122, Note_off_c, 1, 84, 100
1, 14124, Note_off_c, 4, 60, 100
1, 14165, Note_on_c, 1, 84, 115
1, 14168, Note_off_c, 1, 86, 100
1, 14209, Note_on_c, 1, 82, 110
1, 14209, Note_on_c, 4, 60, 123
1, 14213, Note_off_c, 1, 84, 100
1, 14216, Note_off_c, 4, 57, 100
1, 14254, Note_on_c, 1, 81, 111
1, 14258, Note_off_c, 1, 82, 100
1, 14294, Note_off_c, 1, 81, 100
1, 14298, Note_on_c, 1, 81, 111
1, 14299, Note_on_c, 4, 58, 123
1, 14307, Note_off_c, 4, 60, 100
1, 14391, Note_on_c, 1, 79, 111
1, 14392, Note_on_c, 4, 62, 123
1, 14400, Note_off_c, 4, 58, 100
1, 14400, Note_off_c, 1, 81, 100
1, 14489, Note_on_c, 4, 58, 123
1, 14497, Note_off_c, 4, 62, 100
1, 14574, Note_off_c, 1, 79, 100
1, 14580, Note_on_c, 1, 79, 111
1, 14580, Note_on_c, 4, 60, 123
1, 14588, Note_off_c, 4, 58, 100
1, 14669, Note_off_c, 1, 79, 100
1, 14675, Note_on_c, 1, 79, 111
1, 14675, Note_on_c, 4, 59, 123
1, 14681, Note_off_c, 4, 60, 100
1, 14770, Note_off_c, 1, 79, 100
1, 14770, Note_on_c, 2, 77, 114
1, 14771, Note_on_c, 4, 60, 123
1, 14778, Note_off_c, 4, 59, 100
1, 14861, Note_on_c, 4, 59, 123
1, 14870, Note_off_c, 4, 60, 100
1, 14951, Note_off_c, 2, 77, 100
1, 14957, Note_on_c, 2, 77, 118
1, 14957, Note_on_c, 4, 62, 123
1, 14965, Note_off_c, 4, 59, 100
1, 15054, Note_off_c, 4, 62, 100
1, 15054, Note_off_c, 2, 77, 100
1, 15055, Note_on_c, 4, 60, 123
1, 15055, Note_on_c, 2, 76, 120
1, 15100, Note_on_c, 2, 77, 118
1, 15106, Note_off_c, 2, 76, 100
1, 15148, Note_on_c, 2, 76, 116
1, 15154, Note_off_c, 2, 77, 100
1, 15194, Note_on_c, 2, 72, 127
1, 15200, Note_off_c, 2, 76, 100
1, 15240, Note_on_c, 4, 62, 126
1, 15240, Note_on_c, 2, 77, 116
1, 15243, Note_off_c, 4, 60, 100
1, 15286, Note_on_c, 1, 79, 113
1, 15288, Note_off_c, 2, 77, 100
1, 15294, Note_off_c, 2, 72, 100
1, 15332, Note_on_c, 2, 77, 116
1, 15338, Note_off_c, 1, 79, 100
1, 15378, Note_on_c, 2, 72, 127
1, 15382, Note_off_c, 2, 77, 100
1, 15422, Note_on_c, 1, 79, 113
1, 15423, Note_on_c, 4, 64, 127
1, 15425, Note_off_c, 4, 62, 100
1, 15466, Note_on_c, 1, 81, 113
1, 15470, Note_off_c, 1, 79, 100
1, 15473, Note_off_c, 2, 72, 100
1, 15504, Marker_t, "SDRodrian@aol.com  626 Lalor Trenton NJ 08611 http://members.aol.com/sdrodrian"
1, 15510, Note_on_c, 1, 79, 113
1, 15514, Note_off_c, 1, 81, 100
1, 15554, Note_on_c, 2, 72, 127
1, 15558, Note_off_c, 1, 79, 100
1, 15596, Note_on_c, 1, 81, 113
1, 15597, Note_on_c, 4, 65, 127
1, 15599, Note_off_c, 4, 64, 100
1, 15641, Note_on_c, 1, 82, 112
1, 15645, Note_off_c, 1, 81, 100
1, 15651, Note_off_c, 2, 72, 100
1, 15687, Note_on_c, 1, 81, 113
1, 15693, Note_off_c, 1, 82, 100
1, 15734, Note_on_c, 2, 72, 127
1, 15738, Note_off_c, 1, 81, 100
1, 15770, Note_on_c, 1, 82, 112
1, 15783, Note_off_c, 4, 65, 100
1, 15783, Note_on_c, 2, 67, 127
1, 15837, Note_off_c, 2, 72, 100
1, 15859, Note_off_c, 1, 82, 100
1, 15875, Note_on_c, 1, 82, 112
1, 15875, Note_on_c, 2, 72, 127
1, 15965, Note_on_c, 4, 64, 127
1, 15969, Note_off_c, 2, 67, 100
1, 16051, Note_off_c, 2, 72, 100
1, 16053, Note_off_c, 1, 82, 100
1, 16056, Note_on_c, 1, 79, 113
1, 16056, Note_on_c, 2, 72, 127
1, 16146, Note_on_c, 4, 65, 127
1, 16146, Note_on_c, 1, 82, 112
1, 16148, Note_off_c, 4, 64, 100
1, 16152, Note_off_c, 1, 79, 100
1, 16235, Note_off_c, 2, 72, 100
1, 16241, Note_on_c, 1, 81, 113
1, 16241, Note_on_c, 2, 72, 127
1, 16248, Note_off_c, 1, 82, 100
1, 16328, Note_on_c, 1, 79, 109
1, 16329, Note_on_c, 4, 62, 127
1, 16331, Note_off_c, 4, 65, 100
1, 16335, Note_off_c, 1, 81, 100
1, 16411, Note_off_c, 2, 72, 100
1, 16416, Note_on_c, 2, 77, 112
1, 16416, Note_on_c, 2, 72, 127
1, 16424, Note_off_c, 1, 79, 100
1, 16505, Note_on_c, 2, 76, 112
1, 16505, Note_on_c, 4, 60, 127
1, 16507, Note_off_c, 4, 62, 100
1, 16513, Note_off_c, 2, 77, 100
1, 16542, Note_off_c, 2, 72, 100
1, 16550, Note_on_c, 2, 72, 127
1, 16596, Note_on_c, 1, 83, 108
1, 16602, Note_off_c, 2, 76, 100
1, 16640, Note_on_c, 1, 84, 113
1, 16645, Note_off_c, 1, 83, 100
1, 16688, Note_on_c, 2, 77, 112
1, 16689, Note_on_c, 4, 62, 127
1, 16691, Note_off_c, 1, 84, 100
1, 16691, Note_off_c, 4, 60, 100
1, 16728, Note_off_c, 2, 72, 100
1, 16733, Note_on_c, 2, 72, 127
1, 16779, Note_on_c, 1, 83, 108
1, 16787, Note_off_c, 2, 77, 100
1, 16825, Note_on_c, 1, 84, 113
1, 16829, Note_off_c, 1, 83, 100
1, 16873, Note_on_c, 1, 79, 109
1, 16874, Note_on_c, 4, 64, 127
1, 16876, Note_off_c, 4, 62, 100
1, 16878, Note_off_c, 1, 84, 100
1, 16915, Note_off_c, 2, 72, 100
1, 16919, Note_on_c, 2, 71, 127
1, 16967, Note_on_c, 1, 83, 108
1, 16974, Note_off_c, 1, 79, 100
1, 17013, Note_on_c, 1, 84, 113
1, 17016, Note_off_c, 1, 83, 100
1, 17059, Note_on_c, 1, 81, 109
1, 17059, Note_on_c, 4, 65, 127
1, 17062, Note_off_c, 4, 64, 100
1, 17064, Note_off_c, 1, 84, 100
1, 17100, Note_off_c, 2, 71, 100
1, 17106, Note_on_c, 2, 71, 127
1, 17142, Note_on_c, 1, 83, 108
1, 17158, Note_off_c, 1, 81, 100
1, 17187, Note_off_c, 1, 83, 100
1, 17188, Note_on_c, 1, 84, 113
1, 17226, Note_off_c, 1, 84, 100
1, 17237, Note_on_c, 1, 82, 108
1, 17247, Note_on_c, 2, 67, 127
1, 17252, Note_off_c, 4, 65, 100
1, 17296, Note_off_c, 2, 71, 100
1, 17306, Note_on_c, 2, 72, 127
1, 17329, Note_off_c, 1, 82, 100
1, 17350, Note_off_c, 2, 72, 100
1, 17354, Note_on_c, 1, 82, 122
1, 17354, Note_on_c, 2, 71, 127
1, 17360, Note_off_c, 2, 67, 100
1, 17404, Note_off_c, 2, 71, 100
1, 17404, Note_on_c, 2, 72, 127
1, 17454, Note_on_c, 4, 64, 127
1, 17496, Note_off_c, 2, 72, 100
1, 17504, Note_on_c, 2, 72, 127
1, 17543, Note_off_c, 1, 82, 100
1, 17545, Note_on_c, 1, 79, 109
1, 17551, Note_on_c, 2, 71, 127
1, 17554, Note_off_c, 2, 72, 100
1, 17556, Note_off_c, 4, 64, 100
1, 17592, Note_on_c, 2, 72, 127
1, 17596, Note_off_c, 2, 71, 100
1, 17637, Note_on_c, 1, 82, 108
1, 17639, Note_on_c, 4, 65, 127
1, 17640, Note_off_c, 1, 79, 100
1, 17682, Note_off_c, 2, 72, 100
1, 17689, Note_on_c, 2, 72, 127
1, 17736, Note_on_c, 1, 81, 109
1, 17736, Note_on_c, 2, 71, 127
1, 17740, Note_off_c, 2, 72, 100
1, 17741, Note_off_c, 1, 82, 100
1, 17742, Note_off_c, 4, 65, 100
1, 17780, Note_on_c, 2, 72, 127
1, 17784, Note_off_c, 2, 71, 100
1, 17824, Note_on_c, 1, 79, 109
1, 17824, Note_on_c, 4, 62, 127
1, 17831, Note_off_c, 1, 81, 100
1, 17863, Note_off_c, 2, 72, 100
1, 17869, Note_on_c, 2, 72, 127
1, 17913, Note_on_c, 2, 77, 112
1, 17914, Note_on_c, 2, 69, 127
1, 17918, Note_off_c, 2, 72, 100
1, 17922, Note_off_c, 4, 62, 100
1, 17922, Note_off_c, 1, 79, 100
1, 17961, Note_on_c, 2, 71, 127
1, 17967, Note_off_c, 2, 69, 100
1, 18011, Note_on_c, 2, 76, 112
1, 18012, Note_on_c, 4, 60, 127
1, 18012, Note_on_c, 2, 72, 127
1, 18016, Note_off_c, 2, 71, 100
1, 18018, Note_off_c, 2, 77, 100
1, 18058, Note_on_c, 1, 84, 117
1, 18062, Note_off_c, 2, 76, 100
1, 18105, Note_on_c, 1, 79, 113
1, 18108, Note_off_c, 1, 84, 100
1, 18150, Note_on_c, 2, 76, 116
1, 18154, Note_off_c, 1, 79, 100
1, 18189, Note_off_c, 2, 72, 100
1, 18198, Note_on_c, 2, 72, 127
1, 18202, Note_off_c, 2, 76, 100
1, 18242, Note_on_c, 3, 67, 127
1, 18248, Note_off_c, 2, 72, 100
1, 18292, Note_on_c, 3, 64, 127
1, 18297, Note_off_c, 3, 67, 100
1, 18317, Note_off_c, 4, 60, 100
1, 18356, Note_on_c, 3, 60, 127
1, 18363, Note_off_c, 3, 64, 100
1, 18420, Note_on_c, 4, 48, 127
1, 18420, Note_on_c, 4, 36, 127
1, 18484, Note_off_c, 3, 60, 100
1, 18791, Note_off_c, 4, 36, 100
1, 18792, Note_off_c, 4, 48, 100
1, 18792, Note_on_c, 2, 72, 127
1, 18792, Note_on_c, 2, 69, 127
1, 18793, Note_on_c, 3, 65, 127
1, 18793, Note_on_c, 3, 60, 127
1, 18794, Note_on_c, 4, 53, 127
1, 18794, Note_on_c, 4, 41, 127
1, 19066, Note_off_c, 2, 72, 100
1, 19066, Note_off_c, 3, 60, 100
1, 19067, Note_off_c, 2, 69, 100
1, 19067, Note_off_c, 3, 65, 100
1, 19073, Note_on_c, 2, 74, 125
1, 19119, Note_on_c, 2, 72, 127
1, 19125, Note_off_c, 2, 74, 100
1, 19165, Note_on_c, 2, 70, 127
1, 19171, Note_off_c, 2, 72, 100
1, 19260, Note_on_c, 2, 69, 127
1, 19267, Note_off_c, 2, 70, 100
1, 19354, Note_on_c, 2, 67, 127
1, 19361, Note_off_c, 2, 69, 100
1, 19448, Note_on_c, 3, 65, 127
1, 19455, Note_off_c, 2, 67, 100
1, 19542, Note_off_c, 3, 65, 100
1, 19546, Note_on_c, 3, 65, 127
1, 19642, Note_on_c, 2, 74, 125
1, 19651, Note_off_c, 3, 65, 100
1, 19736, Note_off_c, 2, 74, 100
1, 19741, Note_on_c, 2, 74, 125
1, 19742, Note_on_c, 4, 46, 127
1, 19742, Note_on_c, 3, 65, 127
1, 19743, Note_off_c, 4, 41, 100
1, 19743, Note_off_c, 4, 53, 100
1, 19744, Note_on_c, 4, 58, 127
1, 20017, Note_off_c, 2, 74, 100
1, 20025, Note_on_c, 2, 72, 127
1, 20113, Note_off_c, 3, 65, 100
1, 20115, Note_off_c, 4, 58, 100
1, 20121, Note_on_c, 2, 76, 120
1, 20121, Note_on_c, 4, 57, 127
1, 20129, Note_off_c, 2, 72, 100
1, 20214, Note_on_c, 2, 77, 120
1, 20221, Note_off_c, 2, 76, 100
1, 20297, Note_off_c, 4, 57, 100
1, 20301, Note_off_c, 2, 77, 100
1, 20305, Note_on_c, 2, 77, 120
1, 20305, Note_on_c, 4, 62, 124
1, 20306, Note_on_c, 4, 58, 124
1, 20398, Note_on_c, 2, 67, 127
1, 20490, Note_off_c, 4, 58, 100
1, 20491, Note_off_c, 4, 62, 100
1, 20491, Note_on_c, 4, 60, 124
1, 20584, Note_off_c, 2, 67, 100
1, 20584, Note_on_c, 2, 69, 127
1, 20671, Note_off_c, 2, 77, 100
1, 20673, Note_off_c, 4, 60, 100
1, 20673, Note_on_c, 2, 77, 120
1, 20674, Note_on_c, 4, 62, 124
1, 20674, Note_on_c, 4, 58, 124
1, 20765, Note_off_c, 2, 69, 100
1, 20765, Note_on_c, 2, 67, 127
1, 20772, Marker_t, "1121 Deutz Ave Trenton NJ 08611 http://www.geocities.com/Paris/LeftBank/3214"
1, 20856, Note_off_c, 4, 58, 100
1, 20857, Note_off_c, 4, 62, 100
1, 20857, Note_on_c, 4, 60, 124
1, 20952, Note_off_c, 2, 67, 100
1, 20952, Note_on_c, 2, 69, 127
1, 21038, Note_off_c, 2, 77, 100
1, 21041, Note_off_c, 4, 60, 100
1, 21041, Note_on_c, 2, 72, 127
1, 21042, Note_on_c, 4, 62, 124
1, 21047, Note_off_c, 2, 69, 100
1, 21216, Note_off_c, 2, 72, 100
1, 21216, Note_off_c, 4, 62, 100
1, 21219, Note_on_c, 2, 70, 127
1, 21220, Note_on_c, 4, 64, 127
1, 21308, Note_on_c, 2, 69, 127
1, 21317, Note_off_c, 2, 70, 100
1, 21356, Note_on_c, 2, 70, 127
1, 21359, Note_off_c, 2, 69, 100
1, 21396, Note_off_c, 4, 64, 100
1, 21400, Note_on_c, 4, 65, 127
1, 21400, Note_on_c, 2, 69, 127
1, 21404, Note_off_c, 2, 70, 100
1, 21431, Note_off_c, 4, 46, 100
1, 21483, Note_off_c, 2, 69, 100
1, 21489, Note_on_c, 2, 69, 127
1, 21579, Note_on_c, 2, 70, 127
1, 21587, Note_off_c, 2, 69, 100
1, 21672, Note_on_c, 2, 72, 127
1, 21679, Note_off_c, 2, 70, 100
1, 21762, Note_on_c, 2, 73, 127
1, 21769, Note_off_c, 2, 72, 100
1, 21852, Note_on_c, 2, 74, 125
1, 21853, Note_on_c, 4, 46, 124
1, 21861, Note_off_c, 2, 73, 100
1, 21939, Note_on_c, 4, 50, 124
1, 21947, Note_off_c, 4, 46, 100
1, 21999, Note_off_c, 4, 65, 100
1, 22022, Note_off_c, 2, 74, 100
1, 22030, Note_on_c, 2, 72, 127
1, 22030, Note_on_c, 4, 55, 124
1, 22038, Note_off_c, 4, 50, 100
1, 22077, Note_on_c, 2, 70, 127
1, 22080, Note_off_c, 2, 72, 100
1, 22123, Note_on_c, 4, 58, 124
1, 22123, Note_on_c, 2, 69, 127
1, 22128, Note_off_c, 2, 70, 100
1, 22129, Note_off_c, 4, 55, 100
1, 22214, Note_on_c, 2, 67, 127
1, 22222, Note_off_c, 2, 69, 100
1, 22303, Note_on_c, 2, 69, 127
1, 22311, Note_off_c, 2, 67, 100
1, 22395, Note_on_c, 2, 70, 127
1, 22404, Note_off_c, 2, 69, 100
1, 22489, Note_on_c, 2, 74, 125
1, 22497, Note_off_c, 2, 70, 100
1, 22581, Note_on_c, 2, 72, 127
1, 22581, Note_on_c, 4, 45, 124
1, 22591, Note_off_c, 2, 74, 100
1, 22669, Note_on_c, 4, 48, 124
1, 22677, Note_off_c, 4, 45, 100
1, 22727, Note_off_c, 4, 58, 100
1, 22753, Note_off_c, 2, 72, 100
1, 22757, Note_on_c, 2, 70, 127
1, 22758, Note_on_c, 4, 53, 124
1, 22764, Note_off_c, 4, 48, 100
1, 22802, Note_on_c, 2, 69, 127
1, 22806, Note_off_c, 2, 70, 100
1, 22848, Note_on_c, 2, 67, 127
1, 22849, Note_on_c, 4, 57, 124
1, 22853, Note_off_c, 2, 69, 100
1, 22855, Note_off_c, 4, 53, 100
1, 22940, Note_on_c, 4, 65, 127
1, 22948, Note_off_c, 2, 67, 100
1, 23030, Note_on_c, 2, 67, 127
1, 23036, Note_off_c, 4, 65, 100
1, 23119, Note_on_c, 2, 69, 127
1, 23127, Note_off_c, 2, 67, 100
1, 23214, Note_off_c, 4, 57, 100
1, 23214, Note_on_c, 2, 72, 127
1, 23214, Note_on_c, 4, 55, 127
1, 23222, Note_off_c, 2, 69, 100
1, 23311, Note_on_c, 2, 70, 127
1, 23318, Note_off_c, 2, 72, 100
1, 23399, Note_off_c, 4, 55, 100
1, 23400, Note_on_c, 4, 52, 127
1, 23486, Note_off_c, 2, 70, 100
1, 23490, Note_on_c, 2, 67, 127
1, 23580, Note_off_c, 4, 52, 100
1, 23581, Note_on_c, 4, 53, 127
1, 23581, Note_on_c, 2, 70, 127
1, 23589, Note_off_c, 2, 67, 100
1, 23672, Note_on_c, 2, 69, 127
1, 23679, Note_off_c, 2, 70, 100
1, 23762, Note_off_c, 4, 53, 100
1, 23762, Note_on_c, 4, 50, 127
1, 23853, Note_off_c, 2, 69, 100
1, 23854, Note_on_c, 4, 65, 127
1, 23950, Note_off_c, 4, 50, 100
1, 23951, Note_on_c, 4, 48, 127
1, 23951, Note_on_c, 4, 64, 127
1, 23959, Note_off_c, 4, 65, 100
1, 23999, Note_on_c, 4, 65, 127
1, 24003, Note_off_c, 4, 64, 100
1, 24045, Note_on_c, 2, 67, 127
1, 24051, Note_off_c, 4, 65, 100
1, 24089, Note_on_c, 2, 69, 127
1, 24093, Note_off_c, 2, 67, 100
1, 24133, Note_on_c, 2, 71, 127
1, 24137, Note_off_c, 2, 69, 100
1, 24178, Note_on_c, 2, 72, 127
1, 24181, Note_off_c, 2, 71, 100
1, 24224, Note_on_c, 2, 71, 127
1, 24228, Note_off_c, 2, 72, 100
1, 24266, Note_on_c, 2, 72, 127
1, 24270, Note_off_c, 2, 71, 100
1, 24302, Note_off_c, 4, 48, 100
1, 24310, Note_on_c, 4, 60, 127
1, 24311, Note_on_c, 4, 48, 127
1, 24334, Note_off_c, 2, 72, 100
1, 24357, Note_on_c, 4, 50, 127
1, 24363, Note_off_c, 4, 48, 100
1, 24401, Note_on_c, 4, 46, 127
1, 24405, Note_off_c, 4, 50, 100
1, 24444, Note_on_c, 4, 48, 127
1, 24447, Note_off_c, 4, 46, 100
1, 24486, Note_on_c, 4, 45, 127
1, 24490, Note_off_c, 4, 48, 100
1, 24530, Note_on_c, 4, 46, 127
1, 24534, Note_off_c, 4, 45, 100
1, 24572, Note_on_c, 4, 43, 127
1, 24576, Note_off_c, 4, 46, 100
1, 24616, Note_on_c, 4, 45, 127
1, 24620, Note_off_c, 4, 43, 100
1, 24657, Note_off_c, 4, 60, 100
1, 24660, Note_on_c, 2, 72, 127
1, 24661, Note_on_c, 2, 69, 127
1, 24661, Note_on_c, 4, 65, 127
1, 24662, Note_on_c, 4, 41, 127
1, 24662, Note_on_c, 4, 60, 127
1, 24664, Note_off_c, 4, 45, 100
1, 24820, Note_on_c, 4, 51, 127
1, 24920, Note_off_c, 4, 60, 100
1, 24921, Note_off_c, 2, 72, 100
1, 24921, Note_off_c, 4, 65, 100
1, 24921, Note_off_c, 2, 69, 100
1, 24925, Note_on_c, 2, 74, 125
1, 24972, Note_on_c, 2, 72, 127
1, 24975, Note_off_c, 2, 74, 100
1, 25016, Note_on_c, 2, 70, 127
1, 25021, Note_off_c, 2, 72, 100
1, 25106, Note_on_c, 2, 69, 127
1, 25114, Note_off_c, 2, 70, 100
1, 25196, Note_on_c, 3, 67, 127
1, 25202, Note_off_c, 2, 69, 100
1, 25284, Note_on_c, 3, 65, 127
1, 25291, Note_off_c, 3, 67, 100
1, 25341, Note_off_c, 4, 51, 100
1, 25373, Note_on_c, 3, 63, 127
1, 25381, Note_off_c, 3, 65, 100
1, 25467, Note_on_c, 2, 74, 125
1, 25561, Note_off_c, 2, 74, 100
1, 25565, Note_off_c, 4, 41, 100
1, 25566, Note_off_c, 3, 63, 100
1, 25566, Note_on_c, 2, 74, 125
1, 25567, Note_on_c, 4, 46, 127
1, 25567, Note_on_c, 3, 65, 127
1, 25567, Note_on_c, 4, 58, 127
1, 25847, Note_off_c, 2, 74, 100
1, 25847, Note_on_c, 2, 72, 127
1, 25931, Note_off_c, 3, 65, 100
1, 25936, Note_off_c, 4, 58, 100
1, 25937, Note_on_c, 2, 76, 120
1, 25937, Note_on_c, 4, 57, 127
1, 25944, Note_off_c, 2, 72, 100
1, 26030, Note_on_c, 2, 77, 120
1, 26038, Note_off_c, 2, 76, 100
1, 26112, Note_off_c, 2, 77, 100
1, 26116, Note_off_c, 4, 57, 100
1, 26117, Note_on_c, 2, 77, 120
1, 26117, Note_on_c, 4, 62, 127
1, 26118, Note_on_c, 4, 59, 127
1, 26208, Note_on_c, 2, 67, 127
1, 26304, Note_off_c, 4, 59, 100
1, 26305, Note_off_c, 4, 62, 100
1, 26305, Note_on_c, 2, 69, 127
1, 26306, Note_on_c, 4, 60, 127
1, 26312, Note_off_c, 2, 67, 100
1, 26385, Note_off_c, 2, 77, 100
1, 26393, Note_on_c, 2, 77, 120
1, 26472, Note_off_c, 2, 77, 100
1, 26479, Note_off_c, 4, 60, 100
1, 26480, Note_on_c, 2, 77, 120
1, 26480, Note_on_c, 4, 62, 127
1, 26481, Note_on_c, 4, 59, 127
1, 26562, Note_off_c, 2, 69, 100
1, 26569, Note_on_c, 2, 67, 127
1, 26666, Note_off_c, 4, 59, 100
1, 26667, Note_off_c, 4, 62, 100
1, 26667, Note_on_c, 2, 69, 127
1, 26668, Note_on_c, 4, 60, 127
1, 26674, Note_off_c, 2, 67, 100
1, 26751, Note_off_c, 2, 77, 100
1, 26760, Note_on_c, 2, 77, 120
1, 26851, Note_off_c, 4, 60, 100
1, 26851, Note_off_c, 2, 69, 100
1, 26852, Note_on_c, 2, 72, 127
1, 26852, Note_on_c, 4, 65, 127
1, 26853, Note_on_c, 4, 62, 127
1, 26858, Note_off_c, 2, 77, 100
1, 27031, Note_off_c, 4, 62, 100
1, 27032, Note_off_c, 4, 65, 100
1, 27032, Note_off_c, 2, 72, 100
1, 27033, Note_on_c, 2, 67, 127
1, 27033, Note_on_c, 2, 70, 127
1, 27034, Note_on_c, 4, 64, 127
1, 27115, Note_off_c, 2, 70, 100
1, 27119, Note_on_c, 2, 70, 127
1, 27209, Note_off_c, 2, 67, 100
1, 27209, Note_off_c, 4, 64, 100
1, 27210, Note_on_c, 4, 65, 127
1, 27210, Note_on_c, 2, 69, 127
1, 27216, Note_off_c, 2, 70, 100
1, 27291, Note_off_c, 2, 69, 100
1, 27297, Note_on_c, 2, 69, 127
1, 27391, Note_on_c, 2, 70, 127
1, 27397, Note_off_c, 2, 69, 100
1, 27480, Note_on_c, 2, 72, 127
1, 27488, Note_off_c, 2, 70, 100
1, 27572, Note_on_c, 2, 73, 127
1, 27579, Note_off_c, 2, 72, 100
1, 27618, Note_off_c, 4, 46, 100
1, 27664, Note_on_c, 2, 74, 125
1, 27665, Note_on_c, 4, 50, 127
1, 27671, Note_off_c, 2, 73, 100
1, 27756, Note_off_c, 4, 65, 100
1, 27756, Note_on_c, 4, 62, 127
1, 27762, Note_off_c, 4, 50, 100
1, 27844, Note_off_c, 2, 74, 100
1, 27849, Note_on_c, 2, 76, 120
1, 27849, Note_on_c, 4, 60, 127
1, 27855, Note_off_c, 4, 62, 100
1, 27892, Note_on_c, 1, 78, 117
1, 27896, Note_off_c, 2, 76, 100
1, 27937, Note_on_c, 1, 79, 117
1, 27937, Note_on_c, 4, 58, 127
1, 27939, Note_off_c, 1, 78, 100
1, 27944, Note_off_c, 4, 60, 100
1, 27980, Note_on_c, 1, 81, 117
1, 27984, Note_off_c, 1, 79, 100
1, 28022, Note_on_c, 1, 82, 116
1, 28023, Note_on_c, 4, 50, 127
1, 28027, Note_off_c, 1, 81, 100
1, 28029, Note_off_c, 4, 58, 100
1, 28068, Note_on_c, 1, 81, 117
1, 28071, Note_off_c, 1, 82, 100
1, 28108, Note_on_c, 1, 79, 117
1, 28108, Note_on_c, 4, 58, 127
1, 28112, Note_off_c, 1, 81, 100
1, 28115, Note_off_c, 4, 50, 100
1, 28153, Note_on_c, 1, 81, 117
1, 28156, Note_off_c, 1, 79, 100
1, 28197, Note_on_c, 2, 77, 120
1, 28198, Note_on_c, 4, 57, 127
1, 28201, Note_off_c, 1, 81, 100
1, 28204, Note_off_c, 4, 58, 100
1, 28242, Note_on_c, 1, 79, 117
1, 28246, Note_off_c, 2, 77, 100
1, 28286, Note_on_c, 2, 76, 120
1, 28287, Note_on_c, 4, 55, 127
1, 28291, Note_off_c, 1, 79, 100
1, 28293, Note_off_c, 4, 57, 100
1, 28332, Note_on_c, 2, 77, 120
1, 28335, Note_off_c, 2, 76, 100
1, 28374, Note_on_c, 2, 74, 125
1, 28374, Note_on_c, 4, 53, 127
1, 28378, Note_off_c, 2, 77, 100
1, 28380, Note_off_c, 4, 55, 100
1, 28419, Note_on_c, 2, 76, 120
1, 28423, Note_off_c, 2, 74, 100
1, 28463, Note_on_c, 2, 72, 127
1, 28464, Note_on_c, 4, 52, 127
1, 28466, Note_off_c, 2, 76, 100
1, 28470, Note_off_c, 4, 53, 100
1, 28508, Note_on_c, 2, 74, 125
1, 28512, Note_off_c, 2, 72, 100
1, 28550, Note_on_c, 2, 70, 127
1, 28551, Note_on_c, 4, 48, 127
1, 28555, Note_off_c, 2, 74, 100
1, 28557, Note_off_c, 4, 52, 100
1, 28596, Note_on_c, 2, 72, 127
1, 28601, Note_off_c, 2, 70, 100
1, 28640, Note_off_c, 4, 48, 100
1, 28640, Note_on_c, 2, 69, 127
1, 28641, Note_on_c, 4, 53, 127
1, 28644, Note_off_c, 2, 72, 100
1, 28688, Note_on_c, 2, 70, 127
1, 28692, Note_off_c, 2, 69, 100
1, 28732, Note_on_c, 2, 72, 127
1, 28736, Note_off_c, 2, 70, 100
1, 28776, Note_on_c, 2, 74, 125
1, 28780, Note_off_c, 2, 72, 100
1, 28818, Note_off_c, 4, 53, 100
1, 28819, Note_on_c, 2, 76, 120
1, 28819, Note_on_c, 4, 45, 127
1, 28823, Note_off_c, 2, 74, 100
1, 28861, Note_on_c, 2, 77, 120
1, 28865, Note_off_c, 2, 76, 100
1, 28904, Note_on_c, 2, 75, 123
1, 28908, Note_off_c, 2, 77, 100
1, 28946, Note_on_c, 2, 77, 120
1, 28950, Note_off_c, 2, 75, 100
1, 28986, Note_off_c, 4, 45, 100
1, 28987, Note_on_c, 4, 46, 127
1, 28987, Note_on_c, 1, 79, 117
1, 28992, Note_off_c, 2, 77, 100
1, 29034, Note_on_c, 2, 77, 120
1, 29038, Note_off_c, 1, 79, 100
1, 29076, Note_on_c, 2, 76, 120
1, 29080, Note_off_c, 2, 77, 100
1, 29123, Note_on_c, 2, 74, 125
1, 29126, Note_off_c, 2, 76, 100
1, 29167, Note_off_c, 4, 46, 100
1, 29167, Note_on_c, 2, 76, 120
1, 29168, Note_on_c, 4, 58, 127
1, 29172, Note_off_c, 2, 74, 100
1, 29214, Note_on_c, 2, 74, 125
1, 29218, Note_off_c, 2, 76, 100
1, 29256, Note_on_c, 2, 72, 127
1, 29260, Note_off_c, 2, 74, 100
1, 29298, Note_on_c, 2, 70, 127
1, 29302, Note_off_c, 2, 72, 100
1, 29340, Note_off_c, 4, 58, 100
1, 29341, Note_on_c, 2, 69, 127
1, 29341, Note_on_c, 4, 60, 127
1, 29345, Note_off_c, 2, 70, 100
1, 29516, Note_off_c, 4, 60, 100
1, 29517, Note_off_c, 2, 69, 100
1, 29517, Note_on_c, 3, 67, 127
1, 29518, Note_on_c, 3, 64, 127
1, 29518, Note_on_c, 4, 48, 127
1, 29599, Note_off_c, 3, 67, 100
1, 29599, Note_off_c, 3, 64, 100
1, 29605, Note_on_c, 3, 65, 127
1, 29653, Note_on_c, 3, 67, 127
1, 29660, Note_off_c, 3, 65, 100
1, 29701, Note_off_c, 4, 48, 100
1, 29702, Note_on_c, 4, 51, 122
1, 29702, Note_on_c, 3, 65, 127
1, 29710, Note_off_c, 3, 67, 100
1, 29750, Note_on_c, 4, 60, 122
1, 29758, Note_off_c, 3, 65, 100
1, 29789, Note_off_c, 4, 51, 100
1, 29796, Note_on_c, 4, 59, 122
1, 29804, Note_off_c, 4, 60, 100
1, 29845, Note_on_c, 4, 60, 122
1, 29885, Note_off_c, 4, 59, 100
1, 29892, Note_on_c, 3, 62, 124
1, 29900, Note_off_c, 4, 60, 100
1, 29944, Note_on_c, 4, 60, 122
1, 29952, Note_off_c, 3, 62, 100
1, 29991, Note_on_c, 4, 59, 122
1, 29998, Note_off_c, 4, 60, 100
1, 30039, Note_on_c, 4, 60, 122
1, 30077, Note_off_c, 4, 59, 100
1, 30085, Note_on_c, 4, 58, 122
1, 30093, Note_off_c, 4, 60, 100
1, 30131, Note_on_c, 4, 60, 122
1, 30171, Note_off_c, 4, 58, 100
1, 30177, Note_on_c, 4, 57, 122
1, 30187, Note_off_c, 4, 60, 100
1, 30224, Note_on_c, 4, 60, 122
1, 30264, Note_off_c, 4, 57, 100
1, 30270, Note_on_c, 4, 55, 122
1, 30278, Note_off_c, 4, 60, 100
1, 30316, Note_on_c, 4, 60, 122
1, 30355, Note_off_c, 4, 55, 100
1, 30362, Note_on_c, 4, 53, 122
1, 30370, Note_off_c, 4, 60, 100
1, 30408, Note_on_c, 4, 60, 122
1, 30445, Note_off_c, 4, 53, 100
1, 30451, Note_on_c, 1, 82, 127
1, 30451, Note_on_c, 4, 52, 122
1, 30460, Note_off_c, 4, 60, 100
1, 30503, Note_on_c, 4, 60, 122
1, 30544, Note_off_c, 4, 52, 100
1, 30552, Note_on_c, 1, 79, 127
1, 30552, Note_on_c, 4, 55, 122
1, 30560, Note_off_c, 4, 60, 100
1, 30561, Note_off_c, 1, 82, 100
1, 30600, Note_on_c, 4, 60, 122
1, 30638, Note_off_c, 4, 55, 100
1, 30646, Note_on_c, 2, 76, 127
1, 30646, Note_on_c, 4, 58, 122
1, 30652, Note_off_c, 4, 60, 100
1, 30653, Note_off_c, 1, 79, 100
1, 30692, Note_on_c, 4, 60, 122
1, 30732, Note_off_c, 4, 58, 100
1, 30732, Note_off_c, 2, 76, 100
1, 30739, Note_on_c, 2, 76, 127
1, 30739, Note_on_c, 4, 58, 122
1, 30747, Note_off_c, 4, 60, 100
1, 30786, Note_on_c, 4, 60, 122
1, 30824, Note_off_c, 4, 58, 100
1, 30832, Note_on_c, 1, 82, 127
1, 30832, Note_on_c, 4, 52, 122
1, 30840, Note_off_c, 4, 60, 100
1, 30841, Note_off_c, 2, 76, 100
1, 30880, Note_on_c, 4, 60, 122
1, 30920, Note_off_c, 4, 52, 100
1, 30926, Note_on_c, 1, 79, 127
1, 30926, Note_on_c, 4, 55, 122
1, 30935, Note_off_c, 4, 60, 100
1, 30935, Note_off_c, 1, 82, 100
1, 30970, Note_on_c, 4, 60, 122
1, 31007, Note_off_c, 4, 55, 100
1, 31014, Note_on_c, 2, 76, 127
1, 31015, Note_on_c, 4, 58, 122
1, 31021, Note_off_c, 4, 60, 100
1, 31021, Note_off_c, 1, 79, 100
1, 31058, Note_on_c, 4, 60, 122
1, 31099, Note_off_c, 4, 58, 100
1, 31099, Note_off_c, 2, 76, 100
1, 31105, Note_on_c, 2, 76, 127
1, 31106, Note_on_c, 4, 58, 122
1, 31112, Note_off_c, 4, 60, 100
1, 31151, Note_on_c, 4, 60, 122
1, 31187, Note_off_c, 4, 58, 100
1, 31195, Note_on_c, 2, 77, 127
1, 31195, Note_on_c, 4, 57, 122
1, 31201, Note_off_c, 4, 60, 100
1, 31202, Note_off_c, 2, 76, 100
1, 31241, Note_on_c, 4, 60, 122
1, 31279, Note_off_c, 4, 57, 100
1, 31287, Note_on_c, 1, 79, 127
1, 31287, Note_on_c, 4, 52, 122
1, 31294, Note_off_c, 4, 60, 100
1, 31295, Note_off_c, 2, 77, 100
1, 31334, Note_on_c, 4, 60, 122
1, 31372, Note_off_c, 4, 52, 100
1, 31378, Note_on_c, 1, 81, 127
1, 31379, Note_on_c, 4, 53, 122
1, 31387, Note_off_c, 4, 60, 100
1, 31387, Note_off_c, 1, 79, 100
1, 31424, Note_on_c, 4, 60, 122
1, 31461, Note_off_c, 4, 53, 100
1, 31468, Note_on_c, 1, 82, 127
1, 31469, Note_on_c, 4, 55, 122
1, 31475, Note_off_c, 4, 60, 100
1, 31476, Note_off_c, 1, 81, 100
1, 31514, Note_on_c, 4, 60, 122
1, 31553, Note_off_c, 4, 55, 100
1, 31560, Note_on_c, 1, 83, 127
1, 31561, Note_on_c, 4, 56, 122
1, 31567, Note_off_c, 4, 60, 100
1, 31568, Note_off_c, 1, 82, 100
1, 31605, Note_on_c, 4, 60, 122
1, 31643, Note_off_c, 4, 56, 100
1, 31651, Note_on_c, 1, 84, 127
1, 31651, Note_on_c, 4, 57, 122
1, 31657, Note_off_c, 4, 60, 100
1, 31658, Note_off_c, 1, 83, 100
1, 31695, Note_on_c, 4, 60, 122
1, 31735, Note_off_c, 4, 57, 100
1, 31741, Note_on_c, 1, 83, 127
1, 31741, Note_on_c, 4, 55, 122
1, 31750, Note_off_c, 4, 60, 100
1, 31750, Note_off_c, 1, 84, 100
1, 31787, Note_on_c, 4, 60, 122
1, 31825, Note_off_c, 4, 55, 100
1, 31831, Note_on_c, 1, 84, 127
1, 31832, Note_on_c, 4, 57, 122
1, 31840, Note_off_c, 4, 60, 100
1, 31840, Note_off_c, 1, 83, 100
1, 31875, Note_on_c, 4, 60, 122
1, 31914, Note_off_c, 4, 57, 100
1, 31920, Note_on_c, 1, 82, 127
1, 31920, Note_on_c, 4, 52, 122
1, 31928, Note_off_c, 4, 60, 100
1, 31928, Note_off_c, 1, 84, 100
1, 31967, Note_on_c, 4, 60, 122
1, 32003, Note_off_c, 4, 52, 100
1, 32011, Note_on_c, 1, 79, 127
1, 32011, Note_on_c, 4, 55, 122
1, 32017, Note_off_c, 4, 60, 100
1, 32018, Note_off_c, 1, 82, 100
1, 32055, Note_on_c, 4, 60, 122
1, 32095, Note_off_c, 4, 55, 100
1, 32103, Note_on_c, 2, 76, 127
1, 32103, Note_on_c, 4, 58, 122
1, 32110, Note_off_c, 4, 60, 100
1, 32110, Note_off_c, 1, 79, 100
1, 32149, Note_on_c, 4, 60, 122
1, 32187, Note_off_c, 4, 58, 100
1, 32188, Note_off_c, 2, 76, 100
1, 32196, Note_on_c, 2, 76, 127
1, 32196, Note_on_c, 4, 58, 122
1, 32203, Note_off_c, 4, 60, 100
1, 32241, Note_on_c, 4, 60, 122
1, 32280, Note_off_c, 4, 58, 100
1, 32287, Note_on_c, 1, 82, 127
1, 32288, Note_on_c, 4, 52, 122
1, 32294, Note_off_c, 4, 60, 100
1, 32294, Note_off_c, 2, 76, 100
1, 32332, Note_on_c, 4, 60, 122
1, 32372, Note_off_c, 4, 52, 100
1, 32379, Note_on_c, 1, 79, 127
1, 32380, Note_on_c, 4, 55, 122
1, 32387, Note_off_c, 4, 60, 100
1, 32387, Note_off_c, 1, 82, 100
1, 32426, Note_on_c, 4, 60, 122
1, 32464, Note_off_c, 4, 55, 100
1, 32470, Note_on_c, 2, 76, 127
1, 32471, Note_on_c, 4, 58, 122
1, 32479, Note_off_c, 4, 60, 100
1, 32479, Note_off_c, 1, 79, 100
1, 32516, Note_on_c, 4, 60, 122
1, 32555, Note_off_c, 4, 58, 100
1, 32555, Note_off_c, 2, 76, 100
1, 32561, Note_on_c, 2, 76, 127
1, 32562, Note_on_c, 4, 58, 122
1, 32570, Note_off_c, 4, 60, 100
1, 32608, Note_on_c, 4, 60, 122
1, 32646, Note_off_c, 4, 58, 100
1, 32652, Note_on_c, 2, 77, 127
1, 32653, Note_on_c, 4, 57, 122
1, 32659, Note_off_c, 4, 60, 100
1, 32660, Note_off_c, 2, 76, 100
1, 32699, Note_on_c, 4, 60, 122
1, 32735, Note_off_c, 4, 57, 100
1, 32743, Note_on_c, 1, 79, 127
1, 32743, Note_on_c, 4, 52, 122
1, 32749, Note_off_c, 4, 60, 100
1, 32750, Note_off_c, 2, 77, 100
1, 32787, Note_on_c, 4, 60, 122
1, 32823, Note_off_c, 4, 52, 100
1, 32831, Note_on_c, 1, 81, 127
1, 32832, Note_on_c, 4, 53, 122
1, 32838, Note_off_c, 4, 60, 100
1, 32838, Note_off_c, 1, 79, 100
1, 32875, Note_on_c, 4, 60, 122
1, 32913, Note_off_c, 4, 53, 100
1, 32919, Note_on_c, 1, 82, 127
1, 32920, Note_on_c, 4, 55, 122
1, 32926, Note_off_c, 4, 60, 100
1, 32927, Note_off_c, 1, 81, 100
1, 32964, Note_on_c, 4, 60, 122
1, 33000, Note_off_c, 4, 55, 100
1, 33006, Note_on_c, 1, 83, 127
1, 33006, Note_on_c, 4, 56, 122
1, 33012, Note_off_c, 4, 60, 100
1, 33013, Note_off_c, 1, 82, 100
1, 33050, Note_on_c, 4, 60, 122
1, 33086, Note_off_c, 4, 56, 100
1, 33092, Note_on_c, 1, 84, 127
1, 33093, Note_on_c, 4, 57, 122
1, 33101, Note_off_c, 4, 60, 100
1, 33101, Note_off_c, 1, 83, 100
1, 33138, Note_on_c, 4, 60, 122
1, 33178, Note_off_c, 4, 57, 100
1, 33182, Note_off_c, 1, 84, 100
1, 33184, Note_on_c, 1, 83, 127
1, 33185, Note_on_c, 4, 56, 122
1, 33193, Note_off_c, 4, 60, 100
1, 33230, Note_on_c, 4, 60, 122
1, 33269, Note_off_c, 4, 56, 100
1, 33272, Note_off_c, 1, 83, 100
1, 33275, Note_on_c, 1, 84, 127
1, 33275, Note_on_c, 4, 57, 124
1, 33281, Note_off_c, 4, 60, 100
1, 33319, Note_on_c, 4, 60, 124
1, 33356, Note_off_c, 1, 84, 100
1, 33359, Note_off_c, 4, 57, 100
1, 33369, Note_on_c, 1, 86, 127
1, 33369, Note_on_c, 2, 74, 127
1, 33460, Note_off_c, 4, 60, 100
1, 33460, Note_on_c, 4, 58, 124
1, 33551, Note_on_c, 4, 57, 124
1, 33559, Note_off_c, 4, 58, 100
1, 33647, Note_on_c, 4, 58, 124
1, 33655, Note_off_c, 4, 57, 100
1, 33741, Note_off_c, 2, 74, 100
1, 33742, Note_off_c, 1, 86, 100
1, 33742, Note_on_c, 1, 76, 125
1, 33743, Note_on_c, 4, 64, 126
1, 33835, Note_off_c, 4, 58, 100
1, 33836, Note_on_c, 4, 60, 124
1, 33928, Note_on_c, 4, 59, 124
1, 33936, Note_off_c, 4, 60, 100
1, 34020, Note_on_c, 4, 60, 124
1, 34028, Note_off_c, 4, 59, 100
1, 34106, Note_off_c, 1, 76, 100
1, 34111, Note_off_c, 4, 64, 100
1, 34112, Note_on_c, 1, 82, 122
1, 34112, Note_on_c, 2, 70, 127
1, 34203, Note_off_c, 4, 60, 100
1, 34203, Note_on_c, 4, 61, 124
1, 34294, Note_on_c, 4, 59, 124
1, 34302, Note_off_c, 4, 61, 100
1, 34386, Note_on_c, 4, 61, 124
1, 34394, Note_off_c, 4, 59, 100
1, 34479, Note_off_c, 1, 82, 100
1, 34479, Note_on_c, 1, 81, 123
1, 34480, Note_off_c, 2, 70, 100
1, 34480, Note_on_c, 2, 69, 127
1, 34570, Note_off_c, 4, 61, 100
1, 34570, Note_on_c, 4, 62, 126
1, 34661, Note_on_c, 4, 61, 124
1, 34668, Note_off_c, 4, 62, 100
1, 34752, Note_on_c, 4, 62, 126
1, 34759, Note_off_c, 4, 61, 100
1, 34844, Note_off_c, 1, 81, 100
1, 34844, Note_on_c, 1, 81, 121
1, 34846, Note_off_c, 2, 69, 100
1, 34894, Note_on_c, 1, 79, 121
1, 34900, Note_off_c, 1, 81, 100
1, 34946, Note_on_c, 1, 82, 120
1, 34950, Note_off_c, 1, 79, 100
1, 34992, Note_on_c, 1, 81, 121
1, 34998, Note_off_c, 1, 82, 100
1, 35039, Note_off_c, 4, 62, 100
1, 35039, Note_on_c, 1, 84, 125
1, 35040, Note_on_c, 4, 59, 125
1, 35040, Note_on_c, 2, 67, 127
1, 35042, Note_off_c, 1, 81, 100
1, 35085, Note_on_c, 1, 82, 120
1, 35088, Note_off_c, 1, 84, 100
1, 35127, Note_on_c, 1, 81, 121
1, 35130, Note_off_c, 1, 82, 100
1, 35171, Note_on_c, 1, 79, 121
1, 35174, Note_off_c, 1, 81, 100
1, 35214, Note_off_c, 2, 67, 100
1, 35215, Note_on_c, 2, 77, 123
1, 35215, Note_on_c, 2, 69, 127
1, 35219, Note_off_c, 1, 79, 100
1, 35388, Note_off_c, 2, 69, 100
1, 35388, Note_off_c, 2, 77, 100
1, 35389, Note_on_c, 2, 76, 123
1, 35389, Note_on_c, 2, 70, 127
1, 35557, Note_off_c, 4, 59, 100
1, 35557, Note_off_c, 2, 70, 100
1, 35558, Note_on_c, 2, 69, 127
1, 35558, Note_on_c, 4, 65, 127
1, 35641, Note_off_c, 2, 76, 100
1, 35647, Note_on_c, 2, 77, 123
1, 35737, Note_on_c, 2, 76, 123
1, 35745, Note_off_c, 2, 77, 100
1, 35830, Note_on_c, 2, 77, 123
1, 35837, Note_off_c, 2, 76, 100
1, 35908, Note_off_c, 4, 65, 100
1, 35909, Note_off_c, 2, 69, 100
1, 35923, Note_on_c, 2, 69, 127
1, 35923, Note_on_c, 4, 65, 127
1, 36016, Note_off_c, 2, 77, 100
1, 36016, Note_on_c, 2, 75, 127
1, 36109, Note_on_c, 2, 74, 127
1, 36115, Note_off_c, 2, 75, 100
1, 36192, Note_on_c, 2, 75, 127
1, 36197, Note_off_c, 2, 74, 100
1, 36274, Note_off_c, 4, 65, 100
1, 36275, Note_off_c, 2, 69, 100
1, 36275, Note_on_c, 4, 60, 127
1, 36276, Note_on_c, 4, 57, 127
1, 36276, Note_on_c, 4, 54, 127
1, 36363, Note_off_c, 2, 75, 100
1, 36364, Note_on_c, 2, 74, 127
1, 36455, Note_on_c, 1, 86, 127
1, 36462, Note_off_c, 2, 74, 100
1, 36537, Note_off_c, 1, 86, 100
1, 36543, Note_on_c, 1, 86, 127
1, 36631, Note_off_c, 4, 54, 100
1, 36632, Note_off_c, 4, 60, 100
1, 36632, Note_off_c, 4, 57, 100
1, 36633, Note_on_c, 4, 58, 127
1, 36633, Note_on_c, 4, 55, 127
1, 36712, Note_off_c, 1, 86, 100
1, 36720, Note_on_c, 1, 86, 127
1, 36814, Note_on_c, 2, 74, 127
1, 36819, Note_off_c, 1, 86, 100
1, 36898, Note_off_c, 2, 74, 100
1, 36904, Note_on_c, 2, 74, 127
1, 36984, Note_off_c, 4, 55, 100
1, 36984, Note_off_c, 4, 58, 100
1, 36991, Note_on_c, 4, 58, 127
1, 36991, Note_on_c, 4, 55, 127
1, 36992, Note_on_c, 4, 52, 127
1, 37079, Note_off_c, 2, 74, 100
1, 37080, Note_on_c, 2, 72, 127
1, 37166, Note_on_c, 1, 84, 127
1, 37174, Note_off_c, 2, 72, 100
1, 37245, Note_off_c, 1, 84, 100
1, 37252, Note_on_c, 1, 84, 127
1, 37347, Note_off_c, 4, 55, 100
1, 37347, Note_off_c, 4, 58, 100
1, 37347, Note_off_c, 4, 52, 100
1, 37348, Note_on_c, 4, 57, 127
1, 37348, Note_on_c, 4, 53, 127
1, 37429, Note_off_c, 1, 84, 100
1, 37437, Note_on_c, 1, 84, 127
1, 37527, Note_on_c, 2, 72, 127
1, 37535, Note_off_c, 1, 84, 100
1, 37606, Note_off_c, 2, 72, 100
1, 37612, Note_on_c, 2, 72, 127
1, 37702, Note_on_c, 2, 73, 127
1, 37710, Note_off_c, 2, 72, 100
1, 37792, Note_on_c, 2, 74, 127
1, 37800, Note_off_c, 2, 73, 100
1, 37881, Note_off_c, 4, 53, 100
1, 37881, Note_off_c, 4, 57, 100
1, 37882, Note_on_c, 2, 76, 125
1, 37882, Note_on_c, 4, 55, 127
1, 37883, Note_on_c, 4, 47, 127
1, 37888, Note_off_c, 2, 74, 100
1, 37959, Note_on_c, 2, 77, 125
1, 37967, Note_off_c, 2, 76, 100
1, 38047, Note_off_c, 4, 55, 100
1, 38047, Note_off_c, 4, 47, 100
1, 38048, Note_on_c, 4, 65, 127
1, 38048, Note_on_c, 4, 57, 127
1, 38049, Note_on_c, 4, 48, 127
1, 38054, Note_off_c, 2, 77, 100
1, 38219, Note_on_c, 2, 69, 127
1, 38223, Note_off_c, 4, 57, 100
1, 38224, Note_off_c, 4, 65, 100
1, 38225, Note_on_c, 4, 58, 127
1, 38310, Note_on_c, 2, 67, 127
1, 38313, Note_off_c, 2, 69, 100
1, 38393, Note_off_c, 4, 58, 100
1, 38403, Note_off_c, 4, 48, 100
1, 38403, Note_on_c, 4, 65, 127
1, 38404, Note_on_c, 4, 57, 125
1, 38404, Note_on_c, 4, 53, 125
1, 38411, Note_off_c, 2, 67, 100
1, 38485, Note_off_c, 4, 65, 100
1, 38493, Note_on_c, 4, 65, 127
1, 38539, Note_on_c, 2, 69, 127
1, 38543, Note_off_c, 4, 65, 100
1, 38581, Note_on_c, 2, 67, 127
1, 38582, Note_on_c, 4, 64, 127
1, 38584, Note_off_c, 2, 69, 100
1, 38625, Note_on_c, 2, 70, 127
1, 38628, Note_off_c, 2, 67, 100
1, 38667, Note_on_c, 2, 69, 127
1, 38667, Note_on_c, 4, 63, 127
1, 38672, Note_off_c, 2, 70, 100
1, 38674, Note_off_c, 4, 64, 100
1, 38708, Note_on_c, 2, 72, 127
1, 38712, Note_off_c, 2, 69, 100
1, 38745, Note_off_c, 4, 53, 100
1, 38750, Note_off_c, 4, 57, 100
1, 38751, Note_on_c, 2, 70, 127
1, 38751, Note_on_c, 4, 62, 127
1, 38752, Note_on_c, 4, 53, 125
1, 38756, Note_off_c, 2, 72, 100
1, 38759, Note_off_c, 4, 63, 100
1, 38832, Note_on_c, 4, 65, 127
1, 38840, Note_off_c, 4, 62, 100
1, 38840, Note_off_c, 2, 70, 100
1, 38873, Note_on_c, 2, 69, 127
1, 38877, Note_off_c, 4, 65, 100
1, 38916, Note_on_c, 2, 67, 127
1, 38916, Note_on_c, 4, 64, 127
1, 38918, Note_off_c, 2, 69, 100
1, 38959, Note_on_c, 2, 70, 127
1, 38963, Note_off_c, 2, 67, 100
1, 39001, Note_on_c, 2, 69, 127
1, 39001, Note_on_c, 4, 63, 127
1, 39006, Note_off_c, 2, 70, 100
1, 39008, Note_off_c, 4, 64, 100
1, 39044, Note_on_c, 2, 72, 127
1, 39048, Note_off_c, 2, 69, 100
1, 39079, Note_off_c, 4, 53, 100
1, 39084, Note_on_c, 2, 70, 127
1, 39085, Note_on_c, 4, 53, 125
1, 39085, Note_on_c, 4, 62, 127
1, 39089, Note_off_c, 2, 72, 100
1, 39093, Note_off_c, 4, 63, 100
1, 39172, Note_on_c, 4, 65, 127
1, 39180, Note_off_c, 2, 70, 100
1, 39180, Note_off_c, 4, 62, 100
1, 39217, Note_on_c, 2, 69, 127
1, 39221, Note_off_c, 4, 65, 100
1, 39259, Note_on_c, 2, 67, 127
1, 39260, Note_on_c, 4, 64, 127
1, 39262, Note_off_c, 2, 69, 100
1, 39303, Note_on_c, 2, 70, 127
1, 39308, Note_off_c, 2, 67, 100
1, 39347, Note_on_c, 2, 69, 127
1, 39347, Note_on_c, 4, 63, 127
1, 39349, Note_off_c, 2, 70, 100
1, 39353, Note_off_c, 4, 64, 100
1, 39392, Note_on_c, 2, 72, 127
1, 39396, Note_off_c, 2, 69, 100
1, 39434, Note_off_c, 4, 53, 100
1, 39434, Note_on_c, 2, 70, 127
1, 39435, Note_on_c, 4, 62, 127
1, 39439, Note_off_c, 2, 72, 100
1, 39441, Note_off_c, 4, 63, 100
1, 39479, Note_on_c, 2, 74, 126
1, 39483, Note_off_c, 2, 70, 100
1, 39520, Note_on_c, 4, 57, 125
1, 39520, Note_on_c, 2, 72, 127
1, 39524, Note_off_c, 2, 74, 100
1, 39527, Note_off_c, 4, 62, 100
1, 39563, Note_on_c, 2, 75, 124
1, 39566, Note_off_c, 2, 72, 100
1, 39603, Note_on_c, 2, 74, 126
1, 39604, Note_on_c, 4, 58, 125
1, 39608, Note_off_c, 2, 75, 100
1, 39610, Note_off_c, 4, 57, 100
1, 39647, Note_on_c, 2, 77, 122
1, 39652, Note_off_c, 2, 74, 100
1, 39689, Note_on_c, 2, 76, 122
1, 39689, Note_on_c, 4, 55, 125
1, 39693, Note_off_c, 2, 77, 100
1, 39696, Note_off_c, 4, 58, 100
1, 39734, Note_on_c, 1, 79, 119
1, 39738, Note_off_c, 2, 76, 100
1, 39775, Note_on_c, 2, 77, 122
1, 39776, Note_on_c, 4, 57, 125
1, 39780, Note_off_c, 1, 79, 100
1, 39784, Note_off_c, 4, 55, 100
1, 39822, Note_on_c, 1, 79, 119
1, 39826, Note_off_c, 2, 77, 100
1, 39866, Note_on_c, 1, 81, 119
1, 39870, Note_off_c, 1, 79, 100
1, 39911, Note_on_c, 1, 79, 119
1, 39916, Note_off_c, 1, 81, 100
1, 39954, Note_on_c, 2, 77, 122
1, 39957, Note_off_c, 1, 79, 100
1, 39998, Note_on_c, 2, 75, 124
1, 40002, Note_off_c, 2, 77, 100
1, 40041, Note_on_c, 2, 74, 126
1, 40044, Note_off_c, 2, 75, 100
1, 40083, Note_on_c, 2, 73, 127
1, 40089, Note_off_c, 2, 74, 100
1, 40128, Note_off_c, 4, 57, 100
1, 40128, Note_on_c, 4, 58, 125
1, 40128, Note_on_c, 2, 74, 126
1, 40131, Note_off_c, 2, 73, 100
1, 40174, Note_on_c, 2, 72, 127
1, 40177, Note_off_c, 2, 74, 100
1, 40216, Note_on_c, 2, 70, 127
1, 40220, Note_off_c, 2, 72, 100
1, 40258, Note_on_c, 2, 69, 127
1, 40262, Note_off_c, 2, 70, 100
1, 40298, Note_on_c, 2, 67, 127
1, 40302, Note_off_c, 2, 69, 100
1, 40343, Note_on_c, 3, 65, 127
1, 40346, Note_off_c, 2, 67, 100
1, 40386, Note_on_c, 3, 64, 127
1, 40390, Note_off_c, 3, 65, 100
1, 40432, Note_on_c, 4, 62, 127
1, 40436, Note_off_c, 3, 64, 100
1, 40478, Note_off_c, 4, 58, 100
1, 40478, Note_on_c, 4, 60, 125
1, 40479, Note_on_c, 4, 48, 125
1, 40483, Note_off_c, 4, 62, 100
1, 40525, Note_on_c, 3, 65, 127
1, 40528, Note_off_c, 4, 60, 100
1, 40568, Note_on_c, 2, 69, 127
1, 40569, Note_on_c, 4, 53, 125
1, 40573, Note_off_c, 3, 65, 100
1, 40577, Note_off_c, 4, 48, 100
1, 40613, Note_on_c, 2, 72, 127
1, 40617, Note_off_c, 2, 69, 100
1, 40656, Note_on_c, 2, 77, 122
1, 40656, Note_on_c, 4, 57, 125
1, 40660, Note_off_c, 2, 72, 100
1, 40662, Note_off_c, 4, 53, 100
1, 40745, Note_on_c, 2, 69, 127
1, 40745, Note_on_c, 4, 65, 127
1, 40746, Note_on_c, 4, 53, 125
1, 40753, Note_off_c, 4, 57, 100
1, 40754, Note_off_c, 2, 77, 100
1, 40833, Note_off_c, 2, 69, 100
1, 40841, Note_on_c, 2, 72, 124
1, 40842, Note_on_c, 2, 69, 127
1, 40842, Note_on_c, 4, 48, 125
1, 40850, Note_off_c, 4, 53, 100
1, 40936, Note_off_c, 4, 65, 100
1, 40936, Note_on_c, 2, 70, 127
1, 40937, Note_on_c, 2, 67, 127
1, 40937, Note_on_c, 4, 55, 125
1, 40944, Note_off_c, 4, 48, 100
1, 40944, Note_off_c, 2, 69, 100
1, 40944, Note_off_c, 2, 72, 100
1, 41023, Note_on_c, 2, 69, 127
1, 41024, Note_on_c, 4, 65, 127
1, 41024, Note_on_c, 4, 58, 125
1, 41030, Note_off_c, 4, 55, 100
1, 41030, Note_off_c, 2, 67, 100
1, 41031, Note_off_c, 2, 70, 100
1, 41112, Note_on_c, 2, 67, 127
1, 41113, Note_on_c, 4, 64, 127
1, 41113, Note_on_c, 4, 55, 125
1, 41119, Note_off_c, 4, 58, 100
1, 41120, Note_off_c, 2, 69, 100
1, 41120, Note_off_c, 4, 65, 100
1, 41209, Note_on_c, 4, 65, 127
1, 41210, Note_on_c, 4, 57, 125
1, 41210, Note_on_c, 4, 53, 125
1, 41216, Note_off_c, 4, 55, 100
1, 41217, Note_off_c, 4, 64, 100
1, 41217, Note_off_c, 2, 67, 100
1, 41292, Note_off_c, 4, 65, 100
1, 41298, Note_on_c, 2, 77, 119
1, 41298, Note_on_c, 4, 65, 127
1, 41345, Note_on_c, 1, 81, 116
1, 41351, Note_off_c, 2, 77, 100
1, 41389, Note_on_c, 1, 79, 116
1, 41389, Note_on_c, 4, 64, 127
1, 41392, Note_off_c, 1, 81, 100
1, 41396, Note_off_c, 4, 65, 100
1, 41432, Note_on_c, 1, 82, 115
1, 41436, Note_off_c, 1, 79, 100
1, 41475, Note_on_c, 1, 81, 116
1, 41475, Note_on_c, 4, 63, 127
1, 41480, Note_off_c, 1, 82, 100
1, 41482, Note_off_c, 4, 64, 100
1, 41520, Note_on_c, 1, 84, 120
1, 41526, Note_off_c, 1, 81, 100
1, 41563, Note_off_c, 4, 53, 100
1, 41563, Note_off_c, 4, 57, 100
1, 41564, Note_on_c, 1, 82, 115
1, 41564, Note_on_c, 4, 62, 127
1, 41565, Note_on_c, 4, 50, 125
1, 41568, Note_off_c, 1, 84, 100
1, 41569, Note_off_c, 4, 63, 100
1, 41652, Note_on_c, 2, 77, 119
1, 41652, Note_on_c, 4, 65, 127
1, 41659, Note_off_c, 4, 62, 100
1, 41660, Note_off_c, 1, 82, 100
1, 41696, Note_on_c, 1, 81, 116
1, 41700, Note_off_c, 2, 77, 100
1, 41738, Note_on_c, 1, 79, 116
1, 41739, Note_on_c, 4, 64, 127
1, 41743, Note_off_c, 1, 81, 100
1, 41745, Note_off_c, 4, 65, 100
1, 41784, Note_on_c, 1, 82, 115
1, 41787, Note_off_c, 1, 79, 100
1, 41828, Note_on_c, 1, 81, 116
1, 41829, Note_on_c, 4, 63, 127
1, 41832, Note_off_c, 1, 82, 100
1, 41836, Note_off_c, 4, 64, 100
1, 41875, Note_on_c, 1, 84, 120
1, 41880, Note_off_c, 1, 81, 100
1, 41919, Note_off_c, 4, 50, 100
1, 41919, Note_on_c, 1, 82, 115
1, 41920, Note_on_c, 4, 53, 125
1, 41920, Note_on_c, 4, 62, 127
1, 41923, Note_off_c, 1, 84, 100
1, 41927, Note_off_c, 4, 63, 100
1, 42010, Note_on_c, 2, 77, 119
1, 42010, Note_on_c, 4, 65, 127
1, 42018, Note_off_c, 1, 82, 100
1, 42018, Note_off_c, 4, 62, 100
1, 42056, Note_on_c, 1, 81, 116
1, 42061, Note_off_c, 2, 77, 100
1, 42100, Note_on_c, 1, 79, 116
1, 42100, Note_on_c, 4, 64, 127
1, 42102, Note_off_c, 1, 81, 100
1, 42107, Note_off_c, 4, 65, 100
1, 42145, Note_on_c, 1, 82, 115
1, 42148, Note_off_c, 1, 79, 100
1, 42187, Note_on_c, 1, 81, 116
1, 42188, Note_on_c, 4, 63, 127
1, 42190, Note_off_c, 1, 82, 100
1, 42194, Note_off_c, 4, 64, 100
1, 42232, Note_on_c, 1, 84, 120
1, 42238, Note_off_c, 1, 81, 100
1, 42276, Note_on_c, 1, 82, 115
1, 42277, Note_on_c, 4, 62, 127
1, 42281, Note_off_c, 1, 84, 100
1, 42283, Note_off_c, 4, 63, 100
1, 42322, Note_on_c, 2, 77, 117
1, 42325, Note_off_c, 1, 82, 100
1, 42368, Note_off_c, 4, 53, 100
1, 42368, Note_on_c, 1, 84, 118
1, 42369, Note_on_c, 4, 57, 125
1, 42372, Note_off_c, 2, 77, 100
1, 42376, Note_off_c, 4, 62, 100
1, 42411, Note_on_c, 2, 77, 117
1, 42414, Note_off_c, 1, 84, 100
1, 42455, Note_on_c, 1, 86, 120
1, 42456, Note_on_c, 4, 58, 125
1, 42459, Note_off_c, 2, 77, 100
1, 42464, Note_off_c, 4, 57, 100
1, 42498, Note_on_c, 2, 77, 117
1, 42502, Note_off_c, 1, 86, 100
1, 42542, Note_on_c, 1, 88, 117
1, 42543, Note_on_c, 4, 55, 125
1, 42549, Note_off_c, 2, 77, 100
1, 42551, Note_off_c, 4, 58, 100
1, 42588, Note_on_c, 2, 77, 117
1, 42591, Note_off_c, 1, 88, 100
1, 42632, Note_on_c, 4, 57, 125
1, 42632, Note_on_c, 1, 89, 117
1, 42633, Note_on_c, 4, 45, 125
1, 42638, Note_off_c, 4, 55, 100
1, 42677, Note_on_c, 1, 88, 117
1, 42681, Note_off_c, 1, 89, 100
1, 42684, Note_off_c, 2, 77, 100
1, 42719, Note_on_c, 1, 86, 121
1, 42722, Note_off_c, 1, 88, 100
1, 42759, Note_on_c, 1, 84, 119
1, 42763, Note_off_c, 1, 86, 100
1, 42802, Note_on_c, 1, 82, 114
1, 42805, Note_off_c, 1, 84, 100
1, 42846, Note_on_c, 1, 81, 115
1, 42851, Note_off_c, 1, 82, 100
1, 42889, Note_on_c, 1, 79, 115
1, 42895, Note_off_c, 1, 81, 100
1, 42933, Note_on_c, 2, 77, 118
1, 42937, Note_off_c, 1, 79, 100
1, 42977, Note_off_c, 4, 45, 100
1, 42978, Note_off_c, 4, 57, 100
1, 42978, Note_on_c, 1, 86, 121
1, 42979, Note_on_c, 4, 58, 125
1, 42979, Note_on_c, 4, 46, 125
1, 42982, Note_off_c, 2, 77, 100
1, 43024, Note_on_c, 1, 84, 119
1, 43028, Note_off_c, 1, 86, 100
1, 43065, Note_on_c, 1, 82, 116
1, 43068, Note_off_c, 1, 84, 100
1, 43107, Note_on_c, 1, 81, 117
1, 43110, Note_off_c, 1, 82, 100
1, 43151, Note_on_c, 1, 79, 117
1, 43155, Note_off_c, 1, 81, 100
1, 43191, Note_on_c, 2, 77, 120
1, 43197, Note_off_c, 1, 79, 100
1, 43237, Note_on_c, 2, 76, 120
1, 43241, Note_off_c, 2, 77, 100
1, 43280, Note_on_c, 2, 74, 124
1, 43284, Note_off_c, 2, 76, 100
1, 43322, Note_off_c, 4, 46, 100
1, 43322, Note_off_c, 4, 58, 100
1, 43323, Note_on_c, 2, 72, 125
1, 43323, Note_on_c, 4, 48, 125
1, 43328, Note_off_c, 2, 74, 100
1, 43368, Note_on_c, 4, 57, 125
1, 43405, Note_off_c, 2, 72, 100
1, 43406, Note_off_c, 4, 48, 100
1, 43413, Note_on_c, 1, 84, 124
1, 43414, Note_on_c, 4, 53, 125
1, 43449, Note_off_c, 4, 57, 100
1, 43454, Note_on_c, 4, 57, 125
1, 43491, Note_off_c, 1, 84, 100
1, 43491, Note_off_c, 4, 53, 100
1, 43499, Note_on_c, 1, 84, 124
1, 43499, Note_on_c, 4, 48, 125
1, 43538, Note_off_c, 4, 57, 100
1, 43546, Note_on_c, 4, 57, 125
1, 43582, Note_off_c, 1, 84, 100
1, 43583, Note_off_c, 4, 48, 100
1, 43589, Note_on_c, 1, 84, 124
1, 43589, Note_on_c, 4, 53, 125
1, 43626, Note_off_c, 4, 57, 100
1, 43632, Note_on_c, 4, 57, 125
1, 43668, Note_off_c, 1, 84, 100
1, 43669, Note_off_c, 4, 53, 100
1, 43675, Note_on_c, 1, 84, 124
1, 43676, Note_on_c, 4, 48, 125
1, 43715, Note_off_c, 4, 57, 100
1, 43721, Note_on_c, 1, 81, 120
1, 43721, Note_on_c, 4, 57, 125
1, 43725, Note_off_c, 1, 84, 100
1, 43758, Note_off_c, 4, 48, 100
1, 43764, Note_on_c, 2, 77, 123
1, 43764, Note_on_c, 4, 53, 125
1, 43766, Note_off_c, 1, 81, 100
1, 43799, Note_off_c, 4, 57, 100
1, 43805, Note_on_c, 2, 72, 125
1, 43805, Note_on_c, 4, 57, 125
1, 43810, Note_off_c, 2, 77, 100
1, 43844, Note_off_c, 4, 53, 100
1, 43852, Note_on_c, 4, 48, 125
1, 43852, Note_on_c, 2, 77, 123
1, 43857, Note_off_c, 2, 72, 100
1, 43891, Note_off_c, 4, 57, 100
1, 43897, Note_on_c, 2, 72, 125
1, 43897, Note_on_c, 4, 57, 125
1, 43902, Note_off_c, 2, 77, 100
1, 43936, Note_off_c, 4, 48, 100
1, 43942, Note_on_c, 2, 69, 127
1, 43943, Note_on_c, 4, 55, 125
1, 43947, Note_off_c, 2, 72, 100
1, 43981, Note_off_c, 4, 57, 100
1, 43989, Note_on_c, 4, 65, 127
1, 43990, Note_on_c, 4, 57, 125
1, 43994, Note_off_c, 2, 69, 100
1, 44033, Note_off_c, 4, 55, 100
1, 44042, Note_on_c, 2, 69, 127
1, 44042, Note_on_c, 4, 48, 125
1, 44047, Note_off_c, 4, 65, 100
1, 44083, Note_off_c, 2, 69, 100
1, 44086, Note_on_c, 2, 67, 127
1, 44089, Note_off_c, 4, 57, 100
1, 44097, Note_on_c, 4, 58, 125
1, 44118, Note_on_c, 2, 69, 127
1, 44125, Note_off_c, 2, 67, 100
1, 44141, Note_off_c, 4, 48, 100
1, 44150, Note_on_c, 4, 52, 125
1, 44152, Note_on_c, 2, 67, 127
1, 44158, Note_off_c, 2, 69, 100
1, 44185, Note_on_c, 2, 69, 127
1, 44193, Note_off_c, 2, 67, 100
1, 44195, Note_off_c, 4, 58, 100
1, 44202, Note_on_c, 4, 58, 125
1, 44223, Note_on_c, 2, 67, 127
1, 44224, Note_off_c, 2, 69, 100
1, 44247, Note_off_c, 4, 52, 100
1, 44251, Note_on_c, 2, 69, 127
1, 44255, Note_on_c, 4, 48, 125
1, 44263, Note_off_c, 2, 67, 100
1, 44280, Note_on_c, 2, 67, 127
1, 44292, Note_off_c, 2, 69, 100
1, 44301, Note_off_c, 4, 58, 100
1, 44309, Note_on_c, 4, 58, 125
1, 44311, Note_on_c, 2, 69, 127
1, 44318, Note_off_c, 2, 67, 100
1, 44344, Note_on_c, 2, 67, 127
1, 44350, Note_off_c, 2, 69, 100
1, 44353, Note_off_c, 4, 48, 100
1, 44361, Note_on_c, 4, 52, 125
1, 44378, Note_on_c, 2, 69, 127
1, 44382, Note_off_c, 2, 67, 100
1, 44403, Note_off_c, 4, 58, 100
1, 44411, Note_on_c, 2, 67, 127
1, 44412, Note_on_c, 4, 58, 125
1, 44415, Note_off_c, 2, 69, 100
1, 44447, Note_on_c, 2, 69, 127
1, 44450, Note_off_c, 2, 67, 100
1, 44456, Note_off_c, 4, 52, 100
1, 44464, Note_on_c, 4, 48, 125
1, 44484, Note_off_c, 2, 69, 100
1, 44486, Note_on_c, 2, 67, 127
1, 44506, Note_off_c, 4, 58, 100
1, 44514, Note_on_c, 4, 58, 125
1, 44521, Note_on_c, 2, 69, 127
1, 44525, Note_off_c, 2, 67, 100
1, 44556, Note_off_c, 2, 69, 100
1, 44556, Note_off_c, 4, 48, 100
1, 44560, Note_on_c, 2, 67, 127
1, 44562, Note_on_c, 4, 52, 125
1, 44596, Note_off_c, 2, 67, 100
1, 44598, Note_on_c, 2, 69, 127
1, 44604, Note_off_c, 4, 58, 100
1, 44610, Note_on_c, 4, 58, 125
1, 44630, Note_on_c, 2, 67, 127
1, 44633, Note_off_c, 2, 69, 100
1, 44650, Note_off_c, 4, 52, 100
1, 44656, Note_on_c, 4, 48, 125
1, 44659, Note_on_c, 2, 69, 127
1, 44665, Note_off_c, 2, 67, 100
1, 44692, Note_off_c, 2, 69, 100
1, 44694, Note_off_c, 4, 58, 100
1, 44702, Note_on_c, 2, 67, 127
1, 44702, Note_on_c, 4, 58, 125
1, 44734, Note_off_c, 2, 67, 100
1, 44737, Note_off_c, 4, 48, 100
1, 44745, Note_on_c, 4, 65, 127
1, 44746, Note_on_c, 4, 52, 125
1, 44783, Note_off_c, 4, 58, 100
1, 44790, Note_on_c, 2, 67, 127
1, 44791, Note_on_c, 4, 58, 125
1, 44799, Note_off_c, 4, 65, 64
1, 44830, Note_off_c, 4, 52, 100
1, 44835, Note_on_c, 4, 65, 127
1, 44836, Note_on_c, 4, 53, 125
1, 44844, Note_off_c, 2, 67, 64
1, 44875, Note_off_c, 4, 58, 100
1, 44921, Note_off_c, 4, 65, 100
1, 44928, Note_on_c, 2, 77, 119
1, 44929, Note_on_c, 4, 65, 127
1, 45020, Note_on_c, 4, 64, 127
1, 45027, Note_off_c, 4, 65, 100
1, 45104, Note_off_c, 2, 77, 100
1, 45110, Note_on_c, 2, 77, 119
1, 45110, Note_on_c, 4, 65, 127
1, 45117, Note_off_c, 4, 64, 100
1, 45201, Note_on_c, 2, 76, 119
1, 45202, Note_on_c, 2, 67, 127
1, 45208, Note_off_c, 4, 65, 100
1, 45208, Note_off_c, 2, 77, 100
1, 45299, Note_on_c, 2, 77, 119
1, 45300, Note_on_c, 4, 65, 127
1, 45306, Note_off_c, 2, 67, 100
1, 45306, Note_off_c, 2, 76, 100
1, 45387, Note_on_c, 1, 79, 116
1, 45388, Note_on_c, 4, 64, 127
1, 45394, Note_off_c, 4, 65, 100
1, 45395, Note_off_c, 2, 77, 100
1, 45481, Note_on_c, 1, 81, 118
1, 45482, Note_on_c, 4, 63, 127
1, 45490, Note_off_c, 4, 64, 100
1, 45491, Note_off_c, 1, 79, 100
1, 45579, Note_on_c, 1, 82, 117
1, 45580, Note_on_c, 4, 62, 127
1, 45588, Note_off_c, 4, 63, 100
1, 45588, Note_off_c, 1, 81, 100
1, 45625, Note_on_c, 1, 84, 122
1, 45631, Note_off_c, 1, 82, 100
1, 45648, Note_off_c, 4, 53, 100
1, 45672, Note_on_c, 4, 53, 125
1, 45672, Note_on_c, 1, 86, 124
1, 45676, Note_off_c, 1, 84, 100
1, 45721, Note_on_c, 1, 84, 122
1, 45725, Note_off_c, 1, 86, 100
1, 45769, Note_off_c, 4, 62, 100
1, 45770, Note_on_c, 4, 61, 125
1, 45770, Note_on_c, 1, 81, 118
1, 45772, Note_off_c, 1, 84, 100
1, 45809, Note_off_c, 1, 81, 100
1, 45816, Note_on_c, 1, 81, 118
1, 45857, Note_off_c, 4, 53, 100
1, 45861, Note_on_c, 1, 79, 118
1, 45861, Note_on_c, 4, 53, 125
1, 45865, Note_off_c, 1, 81, 100
1, 45904, Note_on_c, 2, 77, 121
1, 45910, Note_off_c, 1, 79, 100
1, 45950, Note_off_c, 4, 61, 100
1, 45950, Note_on_c, 2, 76, 121
1, 45951, Note_on_c, 4, 60, 125
1, 45955, Note_off_c, 2, 77, 100
1, 45997, Note_on_c, 2, 77, 121
1, 46003, Note_off_c, 2, 76, 100
1, 46037, Note_off_c, 4, 53, 100
1, 46043, Note_on_c, 1, 79, 118
1, 46044, Note_on_c, 4, 53, 125
1, 46046, Note_off_c, 2, 77, 100
1, 46088, Note_on_c, 2, 77, 121
1, 46094, Note_off_c, 1, 79, 100
1, 46134, Note_off_c, 4, 60, 100
1, 46135, Note_on_c, 2, 76, 121
1, 46135, Note_on_c, 4, 64, 127
1, 46139, Note_off_c, 2, 77, 100
1, 46177, Note_on_c, 2, 74, 125
1, 46183, Note_off_c, 2, 76, 100
1, 46218, Note_off_c, 4, 53, 100
1, 46224, Note_on_c, 4, 53, 125
1, 46224, Note_on_c, 2, 72, 126
1, 46228, Note_off_c, 2, 74, 100
1, 46269, Note_on_c, 2, 70, 127
1, 46272, Note_off_c, 2, 72, 100
1, 46315, Note_off_c, 4, 64, 100
1, 46315, Note_on_c, 2, 69, 127
1, 46316, Note_on_c, 4, 65, 127
1, 46320, Note_off_c, 2, 70, 100
1, 46401, Note_off_c, 2, 69, 100
1, 46402, Note_off_c, 4, 53, 100
1, 46408, Note_on_c, 2, 69, 127
1, 46408, Note_on_c, 4, 53, 125
1, 46499, Note_on_c, 4, 52, 125
1, 46505, Note_off_c, 4, 53, 100
1, 46584, Note_off_c, 4, 65, 100
1, 46590, Note_off_c, 2, 69, 100
1, 46590, Note_on_c, 4, 65, 127
1, 46591, Note_on_c, 4, 53, 125
1, 46597, Note_off_c, 4, 52, 100
1, 46688, Note_on_c, 4, 63, 127
1, 46688, Note_on_c, 4, 55, 125
1, 46694, Note_off_c, 4, 53, 100
1, 46695, Note_off_c, 4, 65, 100
1, 46786, Note_on_c, 4, 65, 127
1, 46786, Note_on_c, 4, 53, 125
1, 46794, Note_off_c, 4, 55, 100
1, 46795, Note_off_c, 4, 63, 100
1, 46882, Note_on_c, 2, 67, 127
1, 46882, Note_on_c, 4, 52, 125
1, 46888, Note_off_c, 4, 53, 100
1, 46889, Note_off_c, 4, 65, 100
1, 46972, Note_on_c, 2, 69, 127
1, 46972, Note_on_c, 4, 51, 125
1, 46980, Note_off_c, 4, 52, 100
1, 46981, Note_off_c, 2, 67, 100
1, 47066, Note_on_c, 2, 70, 127
1, 47066, Note_on_c, 4, 50, 125
1, 47073, Note_off_c, 4, 51, 100
1, 47073, Note_off_c, 2, 69, 100
1, 47150, Note_off_c, 2, 70, 100
1, 47158, Note_on_c, 2, 70, 127
1, 47193, Note_off_c, 2, 70, 100
1, 47196, Note_on_c, 2, 68, 127
1, 47227, Note_off_c, 2, 68, 100
1, 47233, Note_on_c, 2, 70, 127
1, 47256, Note_off_c, 4, 50, 100
1, 47256, Note_on_c, 2, 72, 127
1, 47257, Note_on_c, 4, 46, 125
1, 47264, Note_off_c, 2, 70, 100
1, 47340, Note_off_c, 2, 72, 100
1, 47348, Note_on_c, 2, 74, 127
1, 47431, Note_off_c, 2, 74, 100
1, 47438, Note_off_c, 4, 46, 100
1, 47439, Note_on_c, 2, 74, 127
1, 47439, Note_on_c, 2, 70, 127
1, 47440, Note_on_c, 4, 48, 125
1, 47527, Note_off_c, 2, 70, 100
1, 47527, Note_off_c, 2, 74, 100
1, 47533, Note_on_c, 2, 72, 127
1, 47534, Note_on_c, 2, 69, 127
1, 47627, Note_off_c, 4, 48, 100
1, 47630, Note_on_c, 4, 48, 125
1, 47728, Note_on_c, 3, 64, 127
1, 47729, Note_on_c, 4, 58, 125
1, 47737, Note_off_c, 2, 69, 100
1, 47737, Note_off_c, 2, 72, 100
1, 47815, Note_off_c, 4, 58, 100
1, 47822, Note_off_c, 3, 64, 100
1, 47823, Note_off_c, 4, 48, 100
1, 47823, Note_on_c, 2, 67, 127
1, 47824, Note_on_c, 4, 58, 125
1, 47824, Note_on_c, 4, 53, 125
1, 48008, Note_off_c, 4, 53, 100
1, 48008, Note_on_c, 4, 48, 125
1, 48189, Note_off_c, 4, 58, 100
1, 48190, Note_off_c, 2, 67, 100
1, 48196, Note_off_c, 4, 48, 100
1, 48196, Note_on_c, 3, 65, 127
1, 48197, Note_on_c, 4, 41, 125
1, 48197, Note_on_c, 4, 57, 125
1, 48384, Note_on_c, 1, 79, 117
1, 48400, Note_off_c, 3, 65, 100
1, 48431, Note_on_c, 2, 77, 120
1, 48437, Note_off_c, 1, 79, 100
1, 48479, Note_off_c, 4, 57, 100
1, 48480, Note_on_c, 2, 75, 122
1, 48482, Note_off_c, 2, 77, 100
1, 48524, Note_on_c, 2, 74, 124
1, 48528, Note_off_c, 2, 75, 100
1, 48569, Note_on_c, 2, 72, 123
1, 48570, Note_off_c, 2, 74, 100
1, 48664, Note_off_c, 2, 72, 100
1, 48668, Note_on_c, 2, 70, 127
1, 48669, Note_on_c, 4, 60, 125
1, 48765, Note_off_c, 2, 70, 100
1, 48769, Note_on_c, 2, 70, 127
1, 48769, Note_on_c, 4, 62, 127
1, 48778, Note_off_c, 4, 60, 100
1, 48862, Note_on_c, 4, 65, 127
1, 48872, Note_off_c, 4, 62, 100
1, 48957, Note_on_c, 4, 62, 127
1, 49018, Note_off_c, 4, 65, 100
1, 49043, Note_off_c, 2, 70, 100
1, 49051, Note_on_c, 4, 58, 125
1, 49051, Note_on_c, 2, 74, 120
1, 49115, Note_off_c, 4, 62, 100
1, 49146, Note_off_c, 2, 74, 100
1, 49146, Note_on_c, 1, 79, 113
1, 49147, Note_on_c, 4, 62, 127
1, 49243, Note_off_c, 1, 79, 100
1, 49243, Note_on_c, 2, 74, 120
1, 49244, Note_on_c, 2, 67, 127
1, 49305, Note_off_c, 4, 62, 100
1, 49342, Note_off_c, 2, 74, 100
1, 49342, Note_on_c, 2, 77, 116
1, 49373, Note_off_c, 4, 58, 100
1, 49434, Note_off_c, 2, 67, 100
1, 49439, Note_on_c, 4, 60, 125
1, 49530, Note_off_c, 2, 77, 100
1, 49535, Note_on_c, 2, 75, 118
1, 49536, Note_on_c, 4, 63, 127
1, 49546, Note_off_c, 4, 60, 100
1, 49629, Note_on_c, 4, 65, 127
1, 49640, Note_off_c, 4, 63, 100
1, 49721, Note_on_c, 4, 63, 127
1, 49780, Note_off_c, 4, 65, 100
1, 49803, Note_off_c, 2, 75, 100
1, 49809, Note_on_c, 2, 77, 112
1, 49810, Note_on_c, 4, 58, 125
1, 49854, Note_on_c, 1, 79, 109
1, 49860, Note_off_c, 2, 77, 100
1, 49870, Note_off_c, 4, 63, 100
1, 49900, Note_on_c, 2, 77, 112
1, 49901, Note_on_c, 4, 63, 127
1, 49903, Note_off_c, 1, 79, 100
1, 49944, Note_on_c, 2, 75, 114
1, 49947, Note_off_c, 2, 77, 100
1, 49990, Note_on_c, 2, 67, 127
1, 49990, Note_on_c, 2, 74, 116
1, 49992, Note_off_c, 2, 75, 100
1, 50033, Note_on_c, 2, 72, 119
1, 50039, Note_off_c, 2, 74, 100
1, 50050, Note_off_c, 4, 63, 100
1, 50083, Note_on_c, 2, 70, 127
1, 50087, Note_off_c, 2, 72, 100
1, 50115, Note_off_c, 4, 58, 100
1, 50183, Note_off_c, 2, 67, 100
1, 50183, Note_on_c, 4, 53, 125
1, 50274, Note_off_c, 2, 70, 100
1, 50278, Note_on_c, 2, 69, 127
1, 50278, Note_on_c, 4, 60, 125
1, 50371, Note_on_c, 4, 63, 127
1, 50382, Note_off_c, 4, 60, 100
1, 50463, Note_on_c, 4, 60, 125
1, 50494, Note_off_c, 4, 53, 100
1, 50523, Note_off_c, 4, 63, 100
1, 50547, Note_off_c, 2, 69, 100
1, 50553, Note_on_c, 2, 69, 127
1, 50554, Note_on_c, 4, 53, 125
1, 50564, Note_off_c, 4, 60, 100
1, 50640, Note_off_c, 2, 69, 100
1, 50644, Note_on_c, 2, 70, 127
1, 50645, Note_on_c, 4, 60, 125
1, 50705, Note_off_c, 4, 41, 100
1, 50736, Note_off_c, 2, 70, 100
1, 50737, Note_on_c, 2, 72, 123
1, 50738, Note_on_c, 4, 63, 127
1, 50748, Note_off_c, 4, 60, 100
1, 50829, Note_off_c, 2, 72, 100
1, 50834, Note_on_c, 2, 72, 123
1, 50835, Note_on_c, 2, 69, 127
1, 50865, Note_off_c, 4, 53, 100
1, 50900, Note_off_c, 4, 63, 100
1, 50932, Note_on_c, 4, 58, 125
1, 51032, Note_off_c, 2, 72, 100
1, 51033, Note_off_c, 2, 69, 100
1, 51034, Note_on_c, 2, 74, 120
1, 51036, Note_on_c, 2, 70, 127
1, 51036, Note_on_c, 4, 62, 127
1, 51135, Note_on_c, 4, 65, 127
1, 51146, Note_off_c, 4, 62, 100
1, 51231, Note_on_c, 4, 62, 127
1, 51262, Note_off_c, 4, 58, 100
1, 51293, Note_off_c, 4, 65, 100
1, 51319, Note_off_c, 2, 74, 100
1, 51321, Note_off_c, 2, 70, 100
1, 51323, Note_on_c, 2, 77, 116
1, 51324, Note_on_c, 4, 58, 125
1, 51334, Note_off_c, 4, 62, 100
1, 51370, Note_on_c, 2, 76, 116
1, 51374, Note_off_c, 2, 77, 100
1, 51411, Note_on_c, 1, 79, 113
1, 51411, Note_on_c, 4, 62, 127
1, 51415, Note_off_c, 2, 76, 100
1, 51458, Note_on_c, 2, 77, 116
1, 51463, Note_off_c, 1, 79, 100
1, 51502, Note_on_c, 2, 75, 118
1, 51503, Note_on_c, 4, 65, 127
1, 51506, Note_off_c, 2, 77, 100
1, 51513, Note_off_c, 4, 62, 100
1, 51549, Note_on_c, 2, 74, 120
1, 51553, Note_off_c, 2, 75, 100
1, 51590, Note_off_c, 2, 74, 100
1, 51594, Note_on_c, 2, 74, 120
1, 51595, Note_on_c, 4, 63, 127
1, 51604, Note_off_c, 4, 65, 100
1, 51626, Note_off_c, 4, 58, 100
1, 51685, Note_off_c, 2, 74, 100
1, 51686, Note_on_c, 2, 72, 123
1, 51686, Note_on_c, 2, 67, 127
1, 51696, Note_off_c, 4, 63, 100
1, 51777, Note_on_c, 4, 62, 127
1, 51836, Note_off_c, 2, 67, 100
1, 51869, Note_on_c, 2, 70, 127
1, 51869, Note_on_c, 4, 65, 127
1, 51877, Note_off_c, 4, 62, 100
1, 51958, Note_off_c, 2, 72, 100
1, 51959, Note_on_c, 4, 63, 127
1, 51959, Note_on_c, 2, 74, 120
1, 52018, Note_off_c, 4, 65, 100
1, 52018, Note_off_c, 2, 70, 100
1, 52049, Note_off_c, 2, 74, 100
1, 52050, Note_on_c, 2, 72, 123
1, 52050, Note_on_c, 2, 67, 127
1, 52113, Note_off_c, 4, 63, 100
1, 52143, Note_on_c, 4, 60, 125
1, 52203, Note_off_c, 2, 67, 100
1, 52234, Note_on_c, 2, 69, 127
1, 52234, Note_on_c, 4, 63, 127
1, 52244, Note_off_c, 4, 60, 100
1, 52327, Note_off_c, 4, 63, 100
1, 52327, Note_off_c, 2, 69, 100
1, 52328, Note_off_c, 2, 72, 100
1, 52328, Note_on_c, 2, 70, 127
1, 52329, Note_on_c, 4, 65, 127
1, 52329, Note_on_c, 4, 62, 127
1, 52372, Note_on_c, 2, 72, 123
1, 52376, Note_off_c, 2, 70, 100
1, 52418, Note_on_c, 2, 70, 127
1, 52422, Note_off_c, 2, 72, 100
1, 52462, Note_on_c, 2, 69, 127
1, 52466, Note_off_c, 2, 70, 100
1, 52504, Note_on_c, 2, 70, 127
1, 52510, Note_off_c, 2, 69, 100
1, 52548, Note_on_c, 2, 72, 123
1, 52552, Note_off_c, 2, 70, 100
1, 52591, Note_on_c, 2, 74, 120
1, 52596, Note_off_c, 2, 72, 100
1, 52635, Note_on_c, 2, 75, 118
1, 52639, Note_off_c, 2, 74, 100
1, 52677, Note_on_c, 2, 76, 116
1, 52683, Note_off_c, 2, 75, 100
1, 52721, Note_on_c, 2, 77, 116
1, 52725, Note_off_c, 2, 76, 100
1, 52765, Note_on_c, 2, 76, 116
1, 52769, Note_off_c, 2, 77, 100
1, 52808, Note_on_c, 2, 77, 116
1, 52812, Note_off_c, 2, 76, 100
1, 52852, Note_on_c, 1, 79, 113
1, 52856, Note_off_c, 2, 77, 100
1, 52895, Note_on_c, 2, 77, 116
1, 52899, Note_off_c, 1, 79, 100
1, 52939, Note_on_c, 2, 75, 118
1, 52945, Note_off_c, 2, 77, 100
1, 52985, Note_on_c, 2, 74, 120
1, 52989, Note_off_c, 2, 75, 100
1, 53029, Note_off_c, 2, 74, 100
1, 53033, Note_off_c, 4, 62, 100
1, 53034, Note_off_c, 4, 65, 100
1, 53034, Note_on_c, 2, 74, 120
1, 53035, Note_on_c, 4, 63, 127
1, 53127, Note_off_c, 2, 74, 100
1, 53128, Note_on_c, 2, 72, 123
1, 53128, Note_on_c, 2, 67, 127
1, 53134, Note_off_c, 4, 63, 100
1, 53215, Note_off_c, 2, 72, 100
1, 53220, Note_on_c, 2, 72, 123
1, 53221, Note_on_c, 4, 62, 127
1, 53227, Note_off_c, 2, 67, 100
1, 53312, Note_on_c, 2, 70, 127
1, 53312, Note_on_c, 4, 65, 127
1, 53318, Note_off_c, 4, 62, 100
1, 53401, Note_off_c, 2, 72, 100
1, 53402, Note_on_c, 2, 74, 120
1, 53402, Note_on_c, 4, 63, 127
1, 53410, Note_off_c, 4, 65, 100
1, 53410, Note_off_c, 2, 70, 100
1, 53493, Note_off_c, 2, 74, 100
1, 53494, Note_on_c, 2, 72, 123
1, 53494, Note_on_c, 2, 67, 127
1, 53502, Note_off_c, 4, 63, 100
1, 53584, Note_off_c, 2, 72, 100
1, 53589, Note_on_c, 2, 72, 123
1, 53590, Note_on_c, 4, 60, 125
1, 53596, Note_off_c, 2, 67, 100
1, 53681, Note_on_c, 2, 69, 127
1, 53682, Note_on_c, 4, 63, 127
1, 53690, Note_off_c, 4, 60, 100
1, 53769, Note_off_c, 2, 69, 100
1, 53769, Note_off_c, 4, 63, 100
1, 53776, Note_off_c, 2, 72, 100
1, 53776, Note_on_c, 2, 70, 127
1, 53777, Note_on_c, 4, 65, 127
1, 53777, Note_on_c, 4, 62, 127
1, 53868, Note_on_c, 2, 72, 123
1, 53876, Note_off_c, 2, 70, 100
1, 53912, Note_on_c, 2, 74, 120
1, 53916, Note_off_c, 2, 72, 100
1, 53958, Note_on_c, 2, 75, 118
1, 53962, Note_off_c, 2, 74, 100
1, 54002, Note_on_c, 2, 77, 116
1, 54006, Note_off_c, 2, 75, 100
1, 54047, Note_on_c, 1, 79, 111
1, 54052, Note_off_c, 2, 77, 100
1, 54091, Note_on_c, 1, 81, 111
1, 54096, Note_off_c, 1, 79, 100
1, 54135, Note_on_c, 1, 82, 110
1, 54140, Note_off_c, 1, 81, 100
1, 54179, Note_on_c, 1, 84, 112
1, 54183, Note_off_c, 1, 82, 100
1, 54221, Note_on_c, 1, 86, 114
1, 54227, Note_off_c, 1, 84, 100
1, 54265, Note_on_c, 1, 87, 108
1, 54268, Note_off_c, 1, 86, 100
1, 54309, Note_on_c, 1, 89, 108
1, 54312, Note_off_c, 1, 87, 100
1, 54397, Note_off_c, 1, 89, 100
1, 54401, Note_on_c, 1, 89, 108
1, 54483, Note_off_c, 4, 62, 100
1, 54484, Note_off_c, 4, 65, 100
1, 54486, Note_off_c, 1, 89, 100
1, 54488, Note_on_c, 1, 89, 108
1, 54489, Note_on_c, 2, 77, 116
1, 54489, Note_on_c, 4, 57, 125
1, 54580, Note_off_c, 1, 89, 100
1, 54584, Note_on_c, 1, 87, 108
1, 54678, Note_off_c, 4, 57, 100
1, 54679, Note_on_c, 4, 58, 125
1, 54766, Note_off_c, 1, 87, 100
1, 54769, Note_on_c, 1, 86, 114
1, 54852, Note_off_c, 2, 77, 100
1, 54856, Note_off_c, 1, 86, 100
1, 54860, Note_off_c, 4, 58, 100
1, 54860, Note_on_c, 1, 86, 114
1, 54861, Note_on_c, 4, 51, 125
1, 54861, Note_on_c, 2, 77, 116
1, 54954, Note_off_c, 2, 77, 100
1, 54954, Note_off_c, 1, 86, 100
1, 54955, Note_on_c, 1, 84, 112
1, 54955, Note_on_c, 2, 75, 118
1, 55044, Note_off_c, 2, 75, 100
1, 55044, Note_off_c, 1, 84, 100
1, 55045, Note_off_c, 4, 51, 100
1, 55045, Note_on_c, 1, 82, 110
1, 55046, Note_on_c, 4, 53, 125
1, 55046, Note_on_c, 2, 74, 120
1, 55133, Note_off_c, 2, 74, 100
1, 55134, Note_off_c, 1, 82, 100
1, 55134, Note_on_c, 1, 81, 111
1, 55135, Note_on_c, 2, 72, 123
1, 55225, Note_off_c, 2, 72, 100
1, 55226, Note_off_c, 1, 81, 100
1, 55226, Note_on_c, 1, 82, 110
1, 55227, Note_on_c, 1, 82, 110
1, 55227, Note_on_c, 2, 74, 120
1, 55318, Note_off_c, 4, 53, 100
1, 55325, Note_on_c, 4, 46, 125
1, 55421, Note_off_c, 2, 74, 100
1, 55422, Note_off_c, 1, 82, 100
1, 55422, Note_off_c, 1, 82, 100
1, 55423, Note_on_c, 2, 70, 127
1, 55423, Note_on_c, 4, 50, 125
1, 55429, Note_off_c, 4, 46, 100
1, 55513, Note_on_c, 4, 53, 125
1, 55522, Note_off_c, 4, 50, 100
1, 55606, Note_on_c, 4, 58, 125
1, 55613, Note_off_c, 4, 53, 100
1, 55782, Note_off_c, 2, 70, 100
1, 55790, Note_on_c, 2, 67, 127
1, 55840, Note_on_c, 3, 65, 127
1, 55844, Note_off_c, 2, 67, 100
1, 55888, Note_on_c, 3, 63, 127
1, 55892, Note_off_c, 3, 65, 100
1, 55934, Note_on_c, 3, 62, 127
1, 55940, Note_off_c, 3, 63, 100
1, 55982, Note_off_c, 4, 58, 100
1, 55982, Note_on_c, 4, 60, 125
1, 55985, Note_off_c, 3, 62, 100
1, 56074, Note_off_c, 4, 60, 100
1, 56074, Note_on_c, 4, 58, 123
1, 56074, Note_on_c, 4, 46, 123
1, 56168, Note_off_c, 4, 58, 100
1, 56172, Note_on_c, 4, 58, 123
1, 56173, Note_on_c, 4, 50, 123
1, 56181, Note_off_c, 4, 46, 100
1, 56269, Note_on_c, 4, 53, 123
1, 56277, Note_off_c, 4, 50, 100
1, 56362, Note_on_c, 4, 50, 123
1, 56371, Note_off_c, 4, 53, 100
1, 56454, Note_on_c, 2, 70, 127
1, 56454, Note_on_c, 4, 46, 123
1, 56462, Note_off_c, 4, 50, 100
1, 56478, Note_off_c, 4, 58, 100
1, 56547, Note_on_c, 2, 69, 127
1, 56547, Note_on_c, 4, 50, 123
1, 56556, Note_off_c, 4, 46, 100
1, 56556, Note_off_c, 2, 70, 100
1, 56641, Note_on_c, 2, 67, 127
1, 56641, Note_on_c, 4, 55, 123
1, 56650, Note_off_c, 4, 50, 100
1, 56650, Note_off_c, 2, 69, 100
1, 56737, Note_on_c, 4, 65, 127
1, 56745, Note_off_c, 2, 67, 100
1, 56832, Note_off_c, 4, 55, 100
1, 56832, Note_on_c, 4, 48, 123
1, 56919, Note_off_c, 4, 65, 100
1, 56927, Note_on_c, 4, 63, 127
1, 56928, Note_on_c, 4, 55, 123
1, 56936, Note_off_c, 4, 48, 100
1, 57018, Note_on_c, 4, 58, 123
1, 57028, Note_off_c, 4, 55, 100
1, 57107, Note_off_c, 4, 63, 100
1, 57115, Note_on_c, 4, 63, 127
1, 57115, Note_on_c, 4, 55, 123
1, 57123, Note_off_c, 4, 58, 100
1, 57163, Note_on_c, 2, 67, 127
1, 57167, Note_off_c, 4, 63, 100
1, 57209, Note_on_c, 4, 65, 127
1, 57210, Note_on_c, 4, 51, 123
1, 57214, Note_off_c, 2, 67, 100
1, 57216, Note_off_c, 4, 55, 100
1, 57254, Note_on_c, 2, 69, 127
1, 57258, Note_off_c, 4, 65, 100
1, 57300, Note_on_c, 2, 67, 127
1, 57301, Note_on_c, 4, 55, 123
1, 57305, Note_off_c, 2, 69, 100
1, 57307, Note_off_c, 4, 51, 100
1, 57346, Note_on_c, 2, 70, 127
1, 57349, Note_off_c, 2, 67, 100
1, 57394, Note_on_c, 2, 69, 127
1, 57394, Note_on_c, 4, 58, 123
1, 57398, Note_off_c, 2, 70, 100
1, 57400, Note_off_c, 4, 55, 100
1, 57439, Note_on_c, 2, 72, 127
1, 57443, Note_off_c, 2, 69, 100
1, 57485, Note_on_c, 2, 70, 127
1, 57491, Note_off_c, 2, 72, 100
1, 57531, Note_on_c, 2, 67, 127
1, 57535, Note_off_c, 2, 70, 100
1, 57575, Note_off_c, 4, 58, 100
1, 57576, Note_on_c, 2, 76, 122
1, 57576, Note_on_c, 4, 52, 122
1, 57580, Note_off_c, 2, 67, 100
1, 57620, Note_on_c, 2, 72, 127
1, 57624, Note_off_c, 2, 76, 100
1, 57663, Note_on_c, 1, 79, 119
1, 57663, Note_on_c, 4, 55, 122
1, 57667, Note_off_c, 2, 72, 100
1, 57671, Note_off_c, 4, 52, 100
1, 57709, Note_on_c, 2, 76, 122
1, 57713, Note_off_c, 1, 79, 100
1, 57752, Note_on_c, 4, 60, 122
1, 57752, Note_on_c, 1, 82, 118
1, 57756, Note_off_c, 2, 76, 100
1, 57758, Note_off_c, 4, 55, 100
1, 57799, Note_on_c, 1, 81, 119
1, 57803, Note_off_c, 1, 82, 100
1, 57841, Note_on_c, 1, 82, 118
1, 57841, Note_on_c, 4, 55, 122
1, 57848, Note_off_c, 1, 81, 100
1, 57852, Note_off_c, 4, 60, 100
1, 57892, Note_on_c, 1, 81, 119
1, 57896, Note_off_c, 1, 82, 100
1, 57932, Note_on_c, 1, 79, 119
1, 57933, Note_on_c, 4, 52, 122
1, 57937, Note_off_c, 1, 81, 100
1, 57941, Note_off_c, 4, 55, 100
1, 57975, Note_on_c, 2, 77, 122
1, 57979, Note_off_c, 1, 79, 100
1, 58020, Note_on_c, 4, 55, 122
1, 58020, Note_on_c, 2, 76, 122
1, 58022, Note_off_c, 2, 77, 100
1, 58026, Note_off_c, 4, 52, 100
1, 58063, Note_on_c, 2, 74, 126
1, 58068, Note_off_c, 2, 76, 100
1, 58108, Note_on_c, 2, 72, 127
1, 58108, Note_on_c, 4, 60, 122
1, 58113, Note_off_c, 2, 74, 100
1, 58116, Note_off_c, 4, 55, 100
1, 58153, Note_on_c, 2, 70, 127
1, 58159, Note_off_c, 2, 72, 100
1, 58196, Note_off_c, 2, 70, 100
1, 58200, Note_on_c, 2, 70, 127
1, 58245, Note_on_c, 2, 69, 127
1, 58249, Note_off_c, 2, 70, 100
1, 58292, Note_off_c, 4, 60, 100
1, 58292, Note_on_c, 2, 74, 126
1, 58292, Note_on_c, 4, 53, 122
1, 58296, Note_off_c, 2, 69, 100
1, 58340, Note_on_c, 2, 72, 127
1, 58346, Note_off_c, 2, 74, 100
1, 58388, Note_on_c, 2, 72, 127
1, 58389, Note_on_c, 4, 57, 122
1, 58395, Note_off_c, 4, 53, 100
1, 58478, Note_on_c, 4, 60, 122
1, 58486, Note_off_c, 4, 57, 100
1, 58575, Note_on_c, 4, 57, 122
1, 58583, Note_off_c, 4, 60, 100
1, 58663, Note_on_c, 4, 53, 122
1, 58671, Note_off_c, 4, 57, 100
1, 58754, Note_on_c, 1, 86, 125
1, 58755, Note_on_c, 4, 57, 122
1, 58763, Note_off_c, 4, 53, 100
1, 58805, Note_on_c, 1, 84, 123
1, 58809, Note_off_c, 1, 86, 100
1, 58849, Note_on_c, 1, 82, 114
1, 58850, Note_on_c, 4, 60, 122
1, 58854, Note_off_c, 1, 84, 100
1, 58858, Note_off_c, 4, 57, 100
1, 58896, Note_on_c, 1, 81, 115
1, 58902, Note_off_c, 1, 82, 100
1, 58943, Note_on_c, 1, 79, 115
1, 58943, Note_on_c, 4, 58, 122
1, 58947, Note_off_c, 1, 81, 100
1, 58951, Note_off_c, 4, 60, 100
1, 59036, Note_on_c, 4, 60, 122
1, 59043, Note_off_c, 4, 58, 100
1, 59130, Note_on_c, 4, 58, 122
1, 59139, Note_off_c, 4, 60, 100
1, 59220, Note_off_c, 1, 79, 100
1, 59228, Note_on_c, 2, 76, 118
1, 59228, Note_on_c, 4, 60, 122
1, 59234, Note_off_c, 4, 58, 100
1, 59319, Note_off_c, 2, 76, 100
1, 59319, Note_on_c, 2, 77, 118
1, 59320, Note_on_c, 4, 57, 122
1, 59328, Note_off_c, 4, 60, 100
1, 59366, Note_on_c, 1, 84, 119
1, 59370, Note_off_c, 2, 77, 100
1, 59414, Note_on_c, 1, 83, 114
1, 59414, Note_on_c, 4, 60, 122
1, 59419, Note_off_c, 1, 84, 100
1, 59421, Note_off_c, 4, 57, 100
1, 59459, Note_on_c, 1, 84, 119
1, 59465, Note_off_c, 1, 83, 100
1, 59507, Note_on_c, 1, 86, 121
1, 59508, Note_on_c, 4, 57, 122
1, 59512, Note_off_c, 1, 84, 100
1, 59515, Note_off_c, 4, 60, 100
1, 59556, Note_on_c, 1, 84, 119
1, 59560, Note_off_c, 1, 86, 100
1, 59601, Note_on_c, 1, 82, 114
1, 59602, Note_on_c, 4, 60, 122
1, 59606, Note_off_c, 1, 84, 100
1, 59608, Note_off_c, 4, 57, 100
1, 59648, Note_on_c, 1, 81, 115
1, 59652, Note_off_c, 1, 82, 100
1, 59696, Note_on_c, 1, 79, 120
1, 59697, Note_on_c, 4, 58, 122
1, 59701, Note_off_c, 1, 81, 100
1, 59703, Note_off_c, 4, 60, 100
1, 59726, Note_off_c, 2, 72, 100
1, 59726, Note_off_c, 2, 72, 100
1, 59785, Note_off_c, 1, 79, 100
1, 59789, Note_on_c, 1, 79, 115
1, 59790, Note_on_c, 4, 60, 122
1, 59796, Note_off_c, 4, 58, 100
1, 59882, Note_on_c, 4, 58, 122
1, 59890, Note_off_c, 4, 60, 100
1, 59967, Note_off_c, 1, 79, 100
1, 59975, Note_on_c, 2, 76, 118
1, 59975, Note_on_c, 4, 60, 122
1, 59983, Note_off_c, 4, 58, 100
1, 60068, Note_off_c, 2, 76, 100
1, 60069, Note_on_c, 2, 77, 114
1, 60069, Note_on_c, 4, 57, 122
1, 60077, Note_off_c, 4, 60, 100
1, 60116, Note_on_c, 1, 84, 115
1, 60120, Note_off_c, 2, 77, 100
1, 60164, Note_on_c, 4, 60, 122
1, 60164, Note_on_c, 1, 83, 110
1, 60168, Note_off_c, 1, 84, 100
1, 60172, Note_off_c, 4, 57, 100
1, 60211, Note_on_c, 1, 84, 115
1, 60215, Note_off_c, 1, 83, 100
1, 60257, Note_on_c, 1, 86, 117
1, 60257, Note_on_c, 4, 57, 122
1, 60262, Note_off_c, 1, 84, 100
1, 60264, Note_off_c, 4, 60, 100
1, 60304, Note_on_c, 1, 84, 115
1, 60308, Note_off_c, 1, 86, 100
1, 60348, Note_on_c, 1, 82, 110
1, 60348, Note_on_c, 4, 60, 122
1, 60353, Note_off_c, 1, 84, 100
1, 60355, Note_off_c, 4, 57, 100
1, 60393, Note_on_c, 1, 81, 111
1, 60397, Note_off_c, 1, 82, 100
1, 60433, Note_off_c, 1, 81, 100
1, 60438, Note_on_c, 1, 81, 111
1, 60438, Note_on_c, 4, 58, 122
1, 60446, Note_off_c, 4, 60, 100
1, 60531, Note_on_c, 1, 79, 111
1, 60531, Note_on_c, 4, 62, 124
1, 60539, Note_off_c, 4, 58, 100
1, 60540, Note_off_c, 1, 81, 100
1, 60627, Note_on_c, 4, 58, 122
1, 60635, Note_off_c, 4, 62, 100
1, 60713, Note_off_c, 1, 79, 100
1, 60719, Note_on_c, 1, 79, 111
1, 60720, Note_on_c, 4, 60, 122
1, 60727, Note_off_c, 4, 58, 100
1, 60808, Note_off_c, 1, 79, 100
1, 60814, Note_on_c, 1, 79, 111
1, 60814, Note_on_c, 4, 59, 122
1, 60821, Note_off_c, 4, 60, 100
1, 60909, Note_off_c, 1, 79, 100
1, 60910, Note_on_c, 2, 77, 114
1, 60910, Note_on_c, 4, 60, 122
1, 60917, Note_off_c, 4, 59, 100
1, 61001, Note_on_c, 4, 59, 122
1, 61009, Note_off_c, 4, 60, 100
1, 61091, Note_off_c, 2, 77, 100
1, 61097, Note_on_c, 2, 77, 118
1, 61098, Note_on_c, 4, 62, 124
1, 61104, Note_off_c, 4, 59, 100
1, 61192, Note_off_c, 4, 62, 100
1, 61194, Note_off_c, 2, 77, 100
1, 61195, Note_on_c, 2, 76, 120
1, 61195, Note_on_c, 4, 60, 122
1, 61239, Note_on_c, 2, 77, 118
1, 61243, Note_off_c, 2, 76, 100
1, 61287, Note_on_c, 2, 76, 118
1, 61291, Note_off_c, 2, 77, 100
1, 61333, Note_on_c, 2, 72, 127
1, 61338, Note_off_c, 2, 76, 100
1, 61379, Note_on_c, 4, 62, 124
1, 61379, Note_on_c, 2, 77, 116
1, 61381, Note_off_c, 4, 60, 100
1, 61424, Note_on_c, 1, 79, 113
1, 61428, Note_off_c, 2, 77, 100
1, 61433, Note_off_c, 2, 72, 100
1, 61472, Note_on_c, 2, 77, 116
1, 61477, Note_off_c, 1, 79, 100
1, 61518, Note_on_c, 2, 72, 127
1, 61522, Note_off_c, 2, 77, 100
1, 61562, Note_on_c, 4, 64, 127
1, 61562, Note_on_c, 1, 79, 113
1, 61564, Note_off_c, 4, 62, 100
1, 61603, Note_on_c, 1, 81, 113
1, 61609, Note_off_c, 1, 79, 100
1, 61613, Note_off_c, 2, 72, 100
1, 61649, Note_on_c, 1, 79, 113
1, 61653, Note_off_c, 1, 81, 100
1, 61693, Note_on_c, 2, 72, 127
1, 61697, Note_off_c, 1, 79, 100
1, 61736, Note_on_c, 4, 65, 127
1, 61736, Note_on_c, 1, 81, 113
1, 61739, Note_off_c, 4, 64, 100
1, 61781, Note_on_c, 1, 82, 112
1, 61785, Note_off_c, 1, 81, 100
1, 61790, Note_off_c, 2, 72, 100
1, 61827, Note_on_c, 1, 81, 113
1, 61831, Note_off_c, 1, 82, 100
1, 61873, Note_on_c, 2, 72, 127
1, 61877, Note_off_c, 1, 81, 100
1, 61911, Note_on_c, 1, 82, 112
1, 61920, Note_on_c, 2, 67, 127
1, 61922, Note_off_c, 4, 65, 100
1, 61978, Note_off_c, 2, 72, 100
1, 62000, Note_off_c, 1, 82, 100
1, 62017, Note_on_c, 2, 72, 127
1, 62019, Note_on_c, 1, 82, 112
1, 62103, Note_on_c, 4, 64, 127
1, 62107, Note_off_c, 2, 67, 100
1, 62192, Note_off_c, 2, 72, 100
1, 62195, Note_off_c, 1, 82, 100
1, 62195, Note_on_c, 1, 79, 113
1, 62195, Note_on_c, 2, 72, 127
1, 62284, Note_on_c, 4, 65, 127
1, 62284, Note_on_c, 1, 82, 112
1, 62287, Note_off_c, 4, 64, 100
1, 62292, Note_off_c, 1, 79, 100
1, 62375, Note_off_c, 2, 72, 100
1, 62379, Note_on_c, 1, 81, 113
1, 62379, Note_on_c, 2, 72, 127
1, 62386, Note_off_c, 1, 82, 100
1, 62466, Note_on_c, 1, 79, 109
1, 62467, Note_on_c, 4, 62, 127
1, 62469, Note_off_c, 4, 65, 100
1, 62475, Note_off_c, 1, 81, 100
1, 62550, Note_off_c, 2, 72, 100
1, 62556, Note_on_c, 2, 77, 112
1, 62556, Note_on_c, 2, 72, 127
1, 62562, Note_off_c, 1, 79, 100
1, 62645, Note_on_c, 2, 76, 114
1, 62645, Note_on_c, 4, 60, 125
1, 62648, Note_off_c, 4, 62, 100
1, 62652, Note_off_c, 2, 77, 100
1, 62680, Note_off_c, 2, 72, 100
1, 62688, Note_on_c, 2, 72, 127
1, 62734, Note_on_c, 1, 83, 108
1, 62742, Note_off_c, 2, 76, 100
1, 62778, Note_on_c, 1, 84, 113
1, 62784, Note_off_c, 1, 83, 100
1, 62826, Note_on_c, 2, 77, 112
1, 62827, Note_on_c, 4, 62, 127
1, 62829, Note_off_c, 4, 60, 100
1, 62831, Note_off_c, 1, 84, 100
1, 62868, Note_off_c, 2, 72, 100
1, 62873, Note_on_c, 2, 72, 127
1, 62918, Note_on_c, 1, 83, 108
1, 62927, Note_off_c, 2, 77, 100
1, 62964, Note_on_c, 1, 84, 113
1, 62969, Note_off_c, 1, 83, 100
1, 63012, Note_on_c, 4, 64, 127
1, 63012, Note_on_c, 1, 79, 107
1, 63014, Note_off_c, 4, 62, 100
1, 63016, Note_off_c, 1, 84, 100
1, 63053, Note_off_c, 2, 72, 100
1, 63059, Note_on_c, 2, 71, 126
1, 63105, Note_on_c, 1, 83, 106
1, 63113, Note_off_c, 1, 79, 100
1, 63151, Note_on_c, 1, 84, 111
1, 63156, Note_off_c, 1, 83, 100
1, 63199, Note_on_c, 4, 65, 127
1, 63199, Note_on_c, 1, 81, 107
1, 63202, Note_off_c, 1, 84, 100
1, 63202, Note_off_c, 4, 64, 100
1, 63238, Note_off_c, 2, 71, 100
1, 63244, Note_on_c, 2, 71, 126
1, 63284, Note_on_c, 1, 83, 106
1, 63298, Note_off_c, 1, 81, 100
1, 63325, Note_on_c, 1, 84, 111
1, 63330, Note_off_c, 1, 83, 100
1, 63363, Note_off_c, 1, 84, 100
1, 63377, Note_on_c, 1, 82, 106
1, 63387, Note_on_c, 2, 67, 127
1, 63389, Note_off_c, 4, 65, 100
1, 63429, Note_off_c, 2, 71, 100
1, 63437, Note_on_c, 2, 72, 125
1, 63467, Note_off_c, 1, 82, 100
1, 63485, Note_off_c, 2, 72, 100
1, 63490, Note_on_c, 2, 71, 126
1, 63498, Note_off_c, 2, 67, 100
1, 63498, Note_on_c, 1, 82, 120
1, 63538, Note_off_c, 2, 71, 100
1, 63540, Note_on_c, 2, 72, 125
1, 63590, Note_on_c, 4, 64, 127
1, 63632, Note_off_c, 2, 72, 100
1, 63640, Note_on_c, 2, 72, 125
1, 63686, Note_on_c, 1, 79, 107
1, 63686, Note_on_c, 2, 71, 126
1, 63687, Note_off_c, 1, 82, 100
1, 63690, Note_off_c, 2, 72, 100
1, 63693, Note_off_c, 4, 64, 100
1, 63729, Note_on_c, 2, 72, 125
1, 63732, Note_off_c, 2, 71, 100
1, 63775, Note_on_c, 1, 82, 106
1, 63776, Note_on_c, 4, 65, 127
1, 63782, Note_off_c, 1, 79, 100
1, 63818, Note_off_c, 2, 72, 100
1, 63826, Note_on_c, 2, 72, 125
1, 63872, Note_on_c, 1, 81, 107
1, 63873, Note_on_c, 2, 71, 126
1, 63876, Note_off_c, 2, 72, 100
1, 63879, Note_off_c, 1, 82, 100
1, 63879, Note_off_c, 4, 65, 100
1, 63914, Note_on_c, 2, 72, 125
1, 63920, Note_off_c, 2, 71, 100
1, 63960, Note_on_c, 1, 79, 107
1, 63961, Note_on_c, 4, 62, 127
1, 63967, Note_off_c, 1, 81, 100
1, 64000, Note_off_c, 2, 72, 100
1, 64006, Note_on_c, 2, 72, 125
1, 64050, Note_on_c, 2, 77, 110
1, 64050, Note_on_c, 2, 69, 126
1, 64055, Note_off_c, 2, 72, 100
1, 64058, Note_off_c, 4, 62, 100
1, 64059, Note_off_c, 1, 79, 100
1, 64098, Note_on_c, 2, 71, 126
1, 64104, Note_off_c, 2, 69, 100
1, 64148, Note_on_c, 2, 72, 125
1, 64148, Note_on_c, 2, 76, 112
1, 64149, Note_on_c, 4, 60, 125
1, 64152, Note_off_c, 2, 71, 100
1, 64154, Note_off_c, 2, 77, 100
1, 64193, Note_on_c, 1, 84, 115
1, 64199, Note_off_c, 2, 76, 100
1, 64241, Note_on_c, 1, 79, 111
1, 64245, Note_off_c, 1, 84, 100
1, 64287, Note_on_c, 2, 76, 116
1, 64291, Note_off_c, 1, 79, 100
1, 64325, Note_off_c, 2, 72, 100
1, 64333, Note_on_c, 2, 72, 125
1, 64339, Note_off_c, 2, 76, 100
1, 64379, Note_on_c, 3, 67, 127
1, 64385, Note_off_c, 2, 72, 100
1, 64429, Note_on_c, 3, 64, 127
1, 64433, Note_off_c, 3, 67, 100
1, 64454, Note_off_c, 4, 60, 100
1, 64492, Note_on_c, 3, 60, 125
1, 64498, Note_off_c, 3, 64, 100
1, 64556, Note_on_c, 4, 48, 125
1, 64556, Note_on_c, 4, 36, 125
1, 64620, Note_off_c, 3, 60, 100
1, 64927, Note_off_c, 4, 36, 100
1, 64928, Note_off_c, 4, 48, 100
1, 64928, Note_on_c, 2, 72, 127
1, 64929, Note_on_c, 2, 69, 127
1, 64929, Note_on_c, 4, 60, 125
1, 64930, Note_on_c, 4, 53, 125
1, 64930, Note_on_c, 4, 65, 127
1, 64931, Note_on_c, 4, 41, 125
1, 65202, Note_off_c, 2, 72, 100
1, 65202, Note_off_c, 4, 60, 100
1, 65203, Note_off_c, 2, 69, 100
1, 65203, Note_off_c, 4, 65, 100
1, 65210, Note_on_c, 2, 74, 126
1, 65256, Note_on_c, 2, 72, 127
1, 65261, Note_off_c, 2, 74, 100
1, 65302, Note_on_c, 2, 70, 127
1, 65305, Note_off_c, 2, 72, 100
1, 65396, Note_on_c, 3, 69, 127
1, 65404, Note_off_c, 2, 70, 100
1, 65490, Note_on_c, 3, 67, 127
1, 65498, Note_off_c, 3, 69, 100
1, 65584, Note_on_c, 3, 65, 127
1, 65592, Note_off_c, 3, 67, 100
1, 65678, Note_off_c, 3, 65, 100
1, 65682, Note_on_c, 3, 65, 127
1, 65778, Note_on_c, 2, 74, 126
1, 65788, Note_off_c, 3, 65, 100
1, 65872, Note_off_c, 2, 74, 100
1, 65878, Note_on_c, 2, 74, 126
1, 65879, Note_on_c, 4, 46, 125
1, 65879, Note_on_c, 3, 65, 127
1, 65880, Note_off_c, 4, 53, 100
1, 65880, Note_off_c, 4, 41, 100
1, 65880, Note_on_c, 4, 58, 125
1, 66154, Note_off_c, 2, 74, 100
1, 66161, Note_on_c, 2, 72, 127
1, 66250, Note_off_c, 3, 65, 100
1, 66251, Note_off_c, 4, 58, 100
1, 66257, Note_on_c, 2, 76, 122
1, 66258, Note_on_c, 4, 57, 125
1, 66266, Note_off_c, 2, 72, 100
1, 66349, Note_on_c, 2, 77, 122
1, 66357, Note_off_c, 2, 76, 100
1, 66434, Note_off_c, 4, 57, 100
1, 66438, Note_off_c, 2, 77, 100
1, 66442, Note_on_c, 2, 77, 122
1, 66442, Note_on_c, 4, 62, 127
1, 66443, Note_on_c, 4, 58, 125
1, 66535, Note_on_c, 3, 67, 127
1, 66626, Note_off_c, 4, 62, 100
1, 66626, Note_off_c, 4, 58, 100
1, 66627, Note_on_c, 4, 60, 125
1, 66719, Note_off_c, 3, 67, 100
1, 66720, Note_on_c, 3, 69, 127
1, 66808, Note_off_c, 2, 77, 100
1, 66809, Note_off_c, 4, 60, 100
1, 66809, Note_on_c, 2, 77, 122
1, 66810, Note_on_c, 4, 62, 127
1, 66810, Note_on_c, 4, 58, 125
1, 66900, Note_off_c, 3, 69, 100
1, 66901, Note_on_c, 3, 67, 127
1, 66992, Note_off_c, 4, 58, 100
1, 66992, Note_off_c, 4, 62, 100
1, 66993, Note_on_c, 4, 60, 125
1, 67087, Note_off_c, 3, 67, 100
1, 67087, Note_on_c, 3, 69, 127
1, 67174, Note_off_c, 2, 77, 100
1, 67176, Note_off_c, 4, 60, 100
1, 67176, Note_on_c, 2, 72, 127
1, 67177, Note_on_c, 4, 62, 127
1, 67185, Note_off_c, 3, 69, 100
1, 67352, Note_off_c, 2, 72, 100
1, 67352, Note_off_c, 4, 62, 100
1, 67356, Note_on_c, 2, 70, 127
1, 67357, Note_on_c, 4, 64, 127
1, 67444, Note_on_c, 2, 69, 127
1, 67452, Note_off_c, 2, 70, 100
1, 67490, Note_on_c, 2, 70, 127
1, 67496, Note_off_c, 2, 69, 100
1, 67532, Note_off_c, 4, 64, 100
1, 67536, Note_on_c, 4, 65, 127
1, 67536, Note_on_c, 2, 69, 127
1, 67541, Note_off_c, 2, 70, 100
1, 67568, Note_off_c, 4, 46, 100
1, 67621, Note_off_c, 2, 69, 100
1, 67626, Note_on_c, 2, 69, 127
1, 67716, Note_on_c, 2, 70, 127
1, 67722, Note_off_c, 2, 69, 100
1, 67807, Note_on_c, 2, 72, 127
1, 67815, Note_off_c, 2, 70, 100
1, 67899, Note_on_c, 2, 73, 127
1, 67907, Note_off_c, 2, 72, 100
1, 67990, Note_on_c, 2, 74, 126
1, 67990, Note_on_c, 4, 46, 125
1, 67996, Note_off_c, 2, 73, 100
1, 68077, Note_on_c, 4, 50, 125
1, 68083, Note_off_c, 4, 46, 100
1, 68136, Note_off_c, 4, 65, 100
1, 68160, Note_off_c, 2, 74, 100
1, 68167, Note_on_c, 2, 72, 127
1, 68168, Note_on_c, 4, 55, 125
1, 68174, Note_off_c, 4, 50, 100
1, 68212, Note_on_c, 2, 70, 127
1, 68218, Note_off_c, 2, 72, 100
1, 68258, Note_on_c, 2, 69, 127
1, 68259, Note_on_c, 4, 58, 125
1, 68263, Note_off_c, 2, 70, 100
1, 68267, Note_off_c, 4, 55, 100
1, 68350, Note_on_c, 2, 67, 127
1, 68357, Note_off_c, 2, 69, 100
1, 68440, Note_on_c, 2, 69, 127
1, 68448, Note_off_c, 2, 67, 100
1, 68530, Note_on_c, 2, 70, 127
1, 68538, Note_off_c, 2, 69, 100
1, 68626, Note_on_c, 2, 74, 126
1, 68634, Note_off_c, 2, 70, 100
1, 68718, Note_on_c, 2, 72, 127
1, 68719, Note_on_c, 4, 45, 125
1, 68725, Note_off_c, 2, 74, 100
1, 68806, Note_on_c, 4, 48, 125
1, 68813, Note_off_c, 4, 45, 100
1, 68863, Note_off_c, 4, 58, 100
1, 68890, Note_off_c, 2, 72, 100
1, 68894, Note_on_c, 2, 70, 127
1, 68894, Note_on_c, 4, 53, 125
1, 68901, Note_off_c, 4, 48, 100
1, 68939, Note_on_c, 2, 69, 127
1, 68943, Note_off_c, 2, 70, 100
1, 68985, Note_on_c, 2, 67, 127
1, 68986, Note_on_c, 4, 57, 125
1, 68990, Note_off_c, 2, 69, 100
1, 68992, Note_off_c, 4, 53, 100
1, 69074, Note_on_c, 3, 65, 127
1, 69082, Note_off_c, 2, 67, 100
1, 69165, Note_on_c, 2, 67, 127
1, 69172, Note_off_c, 3, 65, 100
1, 69255, Note_on_c, 2, 69, 127
1, 69263, Note_off_c, 2, 67, 100
1, 69349, Note_off_c, 4, 57, 100
1, 69349, Note_on_c, 2, 72, 127
1, 69350, Note_on_c, 4, 55, 125
1, 69359, Note_off_c, 2, 69, 100
1, 69447, Note_on_c, 2, 70, 127
1, 69455, Note_off_c, 2, 72, 100
1, 69536, Note_off_c, 4, 55, 100
1, 69536, Note_on_c, 4, 52, 125
1, 69624, Note_off_c, 2, 70, 100
1, 69627, Note_on_c, 2, 67, 127
1, 69718, Note_off_c, 4, 52, 100
1, 69718, Note_on_c, 2, 70, 127
1, 69719, Note_on_c, 4, 53, 125
1, 69725, Note_off_c, 2, 67, 100
1, 69810, Note_on_c, 2, 69, 127
1, 69816, Note_off_c, 2, 70, 100
1, 69898, Note_off_c, 4, 53, 100
1, 69899, Note_on_c, 4, 50, 125
1, 69991, Note_off_c, 2, 69, 100
1, 69992, Note_on_c, 3, 65, 127
1, 70087, Note_off_c, 4, 50, 100
1, 70087, Note_on_c, 3, 64, 127
1, 70088, Note_on_c, 4, 48, 125
1, 70095, Note_off_c, 3, 65, 100
1, 70135, Note_on_c, 3, 65, 127
1, 70139, Note_off_c, 3, 64, 100
1, 70183, Note_on_c, 2, 67, 127
1, 70186, Note_off_c, 3, 65, 100
1, 70226, Note_on_c, 2, 69, 127
1, 70229, Note_off_c, 2, 67, 100
1, 70270, Note_on_c, 2, 71, 127
1, 70273, Note_off_c, 2, 69, 100
1, 70314, Note_on_c, 2, 72, 127
1, 70320, Note_off_c, 2, 71, 100
1, 70360, Note_on_c, 2, 71, 127
1, 70364, Note_off_c, 2, 72, 100
1, 70403, Note_on_c, 2, 72, 127
1, 70406, Note_off_c, 2, 71, 100
1, 70439, Note_off_c, 4, 48, 100
1, 70447, Note_on_c, 3, 60, 125
1, 70447, Note_on_c, 4, 48, 125
1, 70471, Note_off_c, 2, 72, 100
1, 70494, Note_on_c, 4, 50, 125
1, 70499, Note_off_c, 4, 48, 100
1, 70538, Note_on_c, 4, 46, 125
1, 70541, Note_off_c, 4, 50, 100
1, 70580, Note_on_c, 4, 48, 125
1, 70584, Note_off_c, 4, 46, 100
1, 70622, Note_on_c, 4, 45, 125
1, 70626, Note_off_c, 4, 48, 100
1, 70667, Note_on_c, 4, 46, 125
1, 70670, Note_off_c, 4, 45, 100
1, 70709, Note_on_c, 4, 43, 125
1, 70712, Note_off_c, 4, 46, 100
1, 70753, Note_on_c, 4, 45, 125
1, 70757, Note_off_c, 4, 43, 100
1, 70795, Note_off_c, 3, 60, 100
1, 70797, Note_on_c, 2, 72, 127
1, 70798, Note_on_c, 2, 69, 127
1, 70798, Note_on_c, 4, 65, 127
1, 70799, Note_on_c, 4, 41, 125
1, 70799, Note_on_c, 4, 60, 125
1, 70800, Note_off_c, 4, 45, 100
1, 70958, Note_on_c, 4, 51, 125
1, 71056, Note_off_c, 4, 60, 100
1, 71057, Note_off_c, 4, 65, 100
1, 71057, Note_off_c, 2, 69, 100
1, 71058, Note_off_c, 2, 72, 100
1, 71062, Note_on_c, 2, 74, 126
1, 71108, Note_on_c, 2, 72, 127
1, 71114, Note_off_c, 2, 74, 100
1, 71154, Note_on_c, 2, 70, 127
1, 71158, Note_off_c, 2, 72, 100
1, 71244, Note_on_c, 2, 69, 127
1, 71250, Note_off_c, 2, 70, 100
1, 71332, Note_on_c, 3, 67, 127
1, 71340, Note_off_c, 2, 69, 100
1, 71420, Note_on_c, 3, 65, 127
1, 71428, Note_off_c, 3, 67, 100
1, 71478, Note_off_c, 4, 51, 100
1, 71510, Note_on_c, 3, 63, 127
1, 71518, Note_off_c, 3, 65, 100
1, 71604, Note_on_c, 2, 74, 126
1, 71697, Note_off_c, 2, 74, 100
1, 71702, Note_off_c, 4, 41, 100
1, 71703, Note_off_c, 3, 63, 100
1, 71703, Note_on_c, 2, 74, 126
1, 71704, Note_on_c, 3, 65, 127
1, 71704, Note_on_c, 4, 58, 125
1, 71705, Note_on_c, 4, 46, 125
1, 71984, Note_off_c, 2, 74, 100
1, 71984, Note_on_c, 2, 72, 127
1, 72069, Note_off_c, 3, 65, 100
1, 72073, Note_off_c, 4, 58, 100
1, 72074, Note_on_c, 4, 57, 125
1, 72074, Note_on_c, 2, 76, 122
1, 72081, Note_off_c, 2, 72, 100
1, 72165, Note_on_c, 2, 77, 122
1, 72173, Note_off_c, 2, 76, 100
1, 72249, Note_off_c, 2, 77, 100
1, 72253, Note_off_c, 4, 57, 100
1, 72253, Note_on_c, 2, 77, 122
1, 72254, Note_on_c, 4, 62, 127
1, 72254, Note_on_c, 4, 59, 125
1, 72347, Note_on_c, 2, 67, 127
1, 72441, Note_off_c, 4, 59, 100
1, 72442, Note_off_c, 4, 62, 100
1, 72442, Note_on_c, 2, 69, 127
1, 72442, Note_on_c, 4, 60, 125
1, 72448, Note_off_c, 2, 67, 100
1, 72522, Note_off_c, 2, 77, 100
1, 72529, Note_on_c, 2, 77, 122
1, 72608, Note_off_c, 2, 77, 100
1, 72615, Note_off_c, 4, 60, 100
1, 72616, Note_on_c, 2, 77, 122
1, 72616, Note_on_c, 4, 62, 127
1, 72617, Note_on_c, 4, 59, 125
1, 72698, Note_off_c, 2, 69, 100
1, 72706, Note_on_c, 2, 67, 127
1, 72804, Note_off_c, 4, 62, 100
1, 72804, Note_off_c, 4, 59, 100
1, 72805, Note_on_c, 2, 69, 127
1, 72805, Note_on_c, 4, 60, 125
1, 72812, Note_off_c, 2, 67, 100
1, 72888, Note_off_c, 2, 77, 100
1, 72896, Note_on_c, 2, 77, 122
1, 72988, Note_off_c, 4, 60, 100
1, 72989, Note_off_c, 2, 69, 100
1, 72989, Note_on_c, 2, 72, 127
1, 72990, Note_on_c, 4, 65, 127
1, 72990, Note_on_c, 4, 62, 127
1, 72995, Note_off_c, 2, 77, 100
1, 73168, Note_off_c, 4, 62, 100
1, 73168, Note_off_c, 4, 65, 100
1, 73169, Note_off_c, 2, 72, 100
1, 73169, Note_on_c, 2, 70, 127
1, 73170, Note_on_c, 2, 67, 127
1, 73170, Note_on_c, 4, 64, 127
1, 73251, Note_off_c, 2, 70, 100
1, 73255, Note_on_c, 2, 70, 127
1, 73345, Note_off_c, 4, 64, 100
1, 73346, Note_off_c, 2, 67, 100
1, 73346, Note_on_c, 2, 69, 127
1, 73347, Note_on_c, 4, 65, 127
1, 73353, Note_off_c, 2, 70, 100
1, 73428, Note_off_c, 2, 69, 100
1, 73434, Note_on_c, 2, 69, 127
1, 73528, Note_on_c, 2, 70, 127
1, 73536, Note_off_c, 2, 69, 100
1, 73618, Note_on_c, 2, 72, 127
1, 73624, Note_off_c, 2, 70, 100
1, 73708, Note_on_c, 2, 73, 127
1, 73716, Note_off_c, 2, 72, 100
1, 73754, Note_off_c, 4, 46, 100
1, 73800, Note_on_c, 2, 74, 126
1, 73801, Note_on_c, 4, 50, 125
1, 73809, Note_off_c, 2, 73, 100
1, 73892, Note_off_c, 4, 65, 100
1, 73892, Note_on_c, 4, 62, 127
1, 73900, Note_off_c, 4, 50, 100
1, 73983, Note_off_c, 2, 74, 100
1, 73985, Note_on_c, 2, 76, 122
1, 73985, Note_on_c, 4, 60, 125
1, 73992, Note_off_c, 4, 62, 100
1, 74030, Note_on_c, 1, 78, 119
1, 74034, Note_off_c, 2, 76, 100
1, 74073, Note_on_c, 4, 58, 125
1, 74073, Note_on_c, 1, 79, 119
1, 74077, Note_off_c, 1, 78, 100
1, 74079, Note_off_c, 4, 60, 100
1, 74115, Note_on_c, 1, 81, 119
1, 74119, Note_off_c, 1, 79, 100
1, 74160, Note_on_c, 1, 82, 118
1, 74160, Note_on_c, 4, 50, 125
1, 74162, Note_off_c, 1, 81, 100
1, 74166, Note_off_c, 4, 58, 100
1, 74203, Note_on_c, 1, 81, 119
1, 74208, Note_off_c, 1, 82, 100
1, 74245, Note_on_c, 1, 79, 119
1, 74245, Note_on_c, 4, 58, 125
1, 74250, Note_off_c, 1, 81, 100
1, 74252, Note_off_c, 4, 50, 100
1, 74288, Note_on_c, 1, 81, 119
1, 74294, Note_off_c, 1, 79, 100
1, 74334, Note_on_c, 2, 77, 122
1, 74335, Note_on_c, 4, 57, 125
1, 74337, Note_off_c, 1, 81, 100
1, 74341, Note_off_c, 4, 58, 100
1, 74379, Note_on_c, 1, 79, 119
1, 74383, Note_off_c, 2, 77, 100
1, 74424, Note_on_c, 2, 76, 122
1, 74424, Note_on_c, 4, 55, 125
1, 74428, Note_off_c, 1, 79, 100
1, 74430, Note_off_c, 4, 57, 100
1, 74467, Note_on_c, 2, 77, 122
1, 74471, Note_off_c, 2, 76, 100
1, 74509, Note_on_c, 2, 74, 126
1, 74510, Note_on_c, 4, 53, 125
1, 74514, Note_off_c, 2, 77, 100
1, 74518, Note_off_c, 4, 55, 100
1, 74556, Note_on_c, 2, 76, 122
1, 74560, Note_off_c, 2, 74, 100
1, 74598, Note_on_c, 2, 72, 127
1, 74599, Note_on_c, 4, 52, 125
1, 74603, Note_off_c, 2, 76, 100
1, 74605, Note_off_c, 4, 53, 100
1, 74643, Note_on_c, 2, 74, 126
1, 74649, Note_off_c, 2, 72, 100
1, 74688, Note_on_c, 2, 70, 127
1, 74688, Note_on_c, 4, 48, 125
1, 74692, Note_off_c, 2, 74, 100
1, 74694, Note_off_c, 4, 52, 100
1, 74733, Note_on_c, 2, 72, 127
1, 74736, Note_off_c, 2, 70, 100
1, 74777, Note_off_c, 4, 48, 100
1, 74777, Note_on_c, 2, 69, 127
1, 74778, Note_on_c, 4, 53, 125
1, 74780, Note_off_c, 2, 72, 100
1, 74824, Note_on_c, 2, 70, 127
1, 74828, Note_off_c, 2, 69, 100
1, 74870, Note_on_c, 2, 72, 127
1, 74874, Note_off_c, 2, 70, 100
1, 74913, Note_on_c, 2, 74, 126
1, 74916, Note_off_c, 2, 72, 100
1, 74955, Note_off_c, 4, 53, 100
1, 74955, Note_on_c, 2, 76, 122
1, 74956, Note_on_c, 4, 45, 125
1, 74959, Note_off_c, 2, 74, 100
1, 74998, Note_on_c, 2, 77, 122
1, 75001, Note_off_c, 2, 76, 100
1, 75040, Note_on_c, 2, 75, 124
1, 75046, Note_off_c, 2, 77, 100
1, 75083, Note_on_c, 2, 77, 122
1, 75088, Note_off_c, 2, 75, 100
1, 75125, Note_off_c, 4, 45, 100
1, 75125, Note_on_c, 1, 79, 119
1, 75125, Note_on_c, 4, 46, 125
1, 75129, Note_off_c, 2, 77, 100
1, 75170, Note_on_c, 2, 77, 122
1, 75175, Note_off_c, 1, 79, 100
1, 75214, Note_on_c, 2, 76, 122
1, 75217, Note_off_c, 2, 77, 100
1, 75258, Note_on_c, 2, 74, 126
1, 75264, Note_off_c, 2, 76, 100
1, 75302, Note_off_c, 4, 46, 100
1, 75303, Note_on_c, 4, 58, 125
1, 75303, Note_on_c, 2, 76, 122
1, 75307, Note_off_c, 2, 74, 100
1, 75349, Note_on_c, 2, 74, 126
1, 75353, Note_off_c, 2, 76, 100
1, 75392, Note_on_c, 2, 72, 127
1, 75397, Note_off_c, 2, 74, 100
1, 75436, Note_on_c, 2, 70, 127
1, 75439, Note_off_c, 2, 72, 100
1, 75478, Note_off_c, 4, 58, 100
1, 75479, Note_on_c, 2, 69, 127
1, 75479, Note_on_c, 4, 60, 125
1, 75482, Note_off_c, 2, 70, 100
1, 75654, Note_off_c, 4, 60, 100
1, 75654, Note_off_c, 2, 69, 100
1, 75655, Note_on_c, 2, 67, 127
1, 75655, Note_on_c, 3, 64, 127
1, 75656, Note_on_c, 4, 48, 125
1, 75737, Note_off_c, 3, 64, 100
1, 75737, Note_off_c, 2, 67, 100
1, 75744, Note_on_c, 3, 65, 127
1, 75790, Note_on_c, 2, 67, 127
1, 75798, Note_off_c, 3, 65, 100
1, 75838, Note_off_c, 4, 48, 100
1, 75839, Note_on_c, 4, 65, 127
1, 75839, Note_on_c, 4, 51, 120
1, 75846, Note_off_c, 2, 67, 100
1, 75886, Note_on_c, 4, 60, 120
1, 75894, Note_off_c, 4, 65, 100
1, 75926, Note_off_c, 4, 51, 100
1, 75934, Note_on_c, 4, 59, 120
1, 75942, Note_off_c, 4, 60, 100
1, 75980, Note_on_c, 4, 60, 120
1, 76022, Note_off_c, 4, 59, 100
1, 76028, Note_on_c, 4, 62, 122
1, 76038, Note_off_c, 4, 60, 100
1, 76080, Note_on_c, 4, 60, 120
1, 76088, Note_off_c, 4, 62, 100
1, 76128, Note_on_c, 4, 59, 120
1, 76136, Note_off_c, 4, 60, 100
1, 76174, Note_on_c, 4, 60, 120
1, 76214, Note_off_c, 4, 59, 100
1, 76222, Note_on_c, 4, 58, 120
1, 76230, Note_off_c, 4, 60, 100
1, 76268, Note_on_c, 4, 60, 120
1, 76308, Note_off_c, 4, 58, 100
1, 76314, Note_on_c, 4, 57, 120
1, 76322, Note_off_c, 4, 60, 100
1, 76362, Note_on_c, 4, 60, 120
1, 76401, Note_off_c, 4, 57, 100
1, 76408, Note_on_c, 4, 55, 118
1, 76414, Note_off_c, 4, 60, 100
1, 76452, Note_on_c, 4, 60, 118
1, 76491, Note_off_c, 4, 55, 100
1, 76499, Note_on_c, 4, 53, 118
1, 76506, Note_off_c, 4, 60, 100
1, 76545, Note_on_c, 4, 60, 118
1, 76581, Note_off_c, 4, 53, 100
1, 76589, Note_on_c, 1, 82, 127
1, 76589, Note_on_c, 4, 52, 118
1, 76596, Note_off_c, 4, 60, 100
1, 76638, Note_on_c, 4, 60, 118
1, 76680, Note_off_c, 4, 52, 100
1, 76688, Note_on_c, 1, 79, 127
1, 76688, Note_on_c, 4, 55, 118
1, 76696, Note_off_c, 4, 60, 100
1, 76697, Note_off_c, 1, 82, 100
1, 76736, Note_on_c, 4, 60, 118
1, 76775, Note_off_c, 4, 55, 100
1, 76781, Note_on_c, 2, 76, 127
1, 76781, Note_on_c, 4, 58, 118
1, 76789, Note_off_c, 4, 60, 100
1, 76790, Note_off_c, 1, 79, 100
1, 76829, Note_on_c, 4, 60, 118
1, 76868, Note_off_c, 4, 58, 100
1, 76868, Note_off_c, 2, 76, 100
1, 76876, Note_on_c, 2, 76, 127
1, 76876, Note_on_c, 4, 58, 118
1, 76883, Note_off_c, 4, 60, 100
1, 76923, Note_on_c, 4, 60, 118
1, 76963, Note_off_c, 4, 58, 100
1, 76971, Note_on_c, 1, 82, 127
1, 76971, Note_on_c, 4, 52, 118
1, 76978, Note_off_c, 4, 60, 100
1, 76978, Note_off_c, 2, 76, 100
1, 77019, Note_on_c, 4, 60, 118
1, 77059, Note_off_c, 4, 52, 100
1, 77067, Note_on_c, 1, 79, 127
1, 77067, Note_on_c, 4, 55, 118
1, 77074, Note_off_c, 4, 60, 100
1, 77074, Note_off_c, 1, 82, 100
1, 77109, Note_on_c, 4, 60, 118
1, 77148, Note_off_c, 4, 55, 100
1, 77153, Note_on_c, 2, 76, 127
1, 77154, Note_on_c, 4, 58, 118
1, 77160, Note_off_c, 4, 60, 100
1, 77160, Note_off_c, 1, 79, 100
1, 77198, Note_on_c, 4, 60, 118
1, 77238, Note_off_c, 4, 58, 100
1, 77238, Note_off_c, 2, 76, 100
1, 77245, Note_on_c, 2, 76, 127
1, 77245, Note_on_c, 4, 58, 118
1, 77254, Note_off_c, 4, 60, 100
1, 77290, Note_on_c, 4, 60, 118
1, 77328, Note_off_c, 4, 58, 100
1, 77335, Note_on_c, 2, 77, 127
1, 77336, Note_on_c, 4, 57, 118
1, 77342, Note_off_c, 4, 60, 100
1, 77342, Note_off_c, 2, 76, 100
1, 77381, Note_on_c, 4, 60, 118
1, 77420, Note_off_c, 4, 57, 100
1, 77427, Note_on_c, 1, 79, 127
1, 77427, Note_on_c, 4, 52, 118
1, 77434, Note_off_c, 4, 60, 100
1, 77435, Note_off_c, 2, 77, 100
1, 77473, Note_on_c, 4, 60, 118
1, 77512, Note_off_c, 4, 52, 100
1, 77518, Note_on_c, 1, 81, 127
1, 77518, Note_on_c, 4, 53, 118
1, 77526, Note_off_c, 4, 60, 100
1, 77527, Note_off_c, 1, 79, 100
1, 77564, Note_on_c, 4, 60, 118
1, 77602, Note_off_c, 4, 53, 100
1, 77608, Note_on_c, 1, 82, 127
1, 77608, Note_on_c, 4, 55, 118
1, 77616, Note_off_c, 4, 60, 100
1, 77617, Note_off_c, 1, 81, 100
1, 77654, Note_on_c, 4, 60, 118
1, 77694, Note_off_c, 4, 55, 100
1, 77700, Note_on_c, 1, 83, 127
1, 77700, Note_on_c, 4, 56, 118
1, 77709, Note_off_c, 4, 60, 100
1, 77709, Note_off_c, 1, 82, 100
1, 77744, Note_on_c, 4, 60, 118
1, 77783, Note_off_c, 4, 56, 100
1, 77790, Note_on_c, 1, 84, 127
1, 77791, Note_on_c, 4, 57, 118
1, 77797, Note_off_c, 4, 60, 100
1, 77797, Note_off_c, 1, 83, 100
1, 77834, Note_on_c, 4, 60, 118
1, 77875, Note_off_c, 4, 57, 100
1, 77880, Note_on_c, 1, 83, 127
1, 77881, Note_on_c, 4, 55, 118
1, 77889, Note_off_c, 4, 60, 100
1, 77890, Note_off_c, 1, 84, 100
1, 77928, Note_on_c, 4, 60, 118
1, 77965, Note_off_c, 4, 55, 100
1, 77973, Note_on_c, 1, 84, 127
1, 77973, Note_on_c, 4, 57, 118
1, 77979, Note_off_c, 4, 60, 100
1, 77980, Note_off_c, 1, 83, 100
1, 78015, Note_on_c, 4, 60, 118
1, 78053, Note_off_c, 4, 57, 100
1, 78061, Note_on_c, 1, 82, 127
1, 78061, Note_on_c, 4, 52, 118
1, 78068, Note_off_c, 4, 60, 100
1, 78068, Note_off_c, 1, 84, 100
1, 78105, Note_on_c, 4, 60, 118
1, 78144, Note_off_c, 4, 52, 100
1, 78151, Note_on_c, 1, 79, 127
1, 78152, Note_on_c, 4, 55, 118
1, 78158, Note_off_c, 4, 60, 100
1, 78158, Note_off_c, 1, 82, 100
1, 78195, Note_on_c, 4, 60, 118
1, 78236, Note_off_c, 4, 55, 100
1, 78243, Note_on_c, 2, 76, 127
1, 78244, Note_on_c, 4, 58, 118
1, 78250, Note_off_c, 4, 60, 100
1, 78251, Note_off_c, 1, 79, 100
1, 78289, Note_on_c, 4, 60, 118
1, 78328, Note_off_c, 4, 58, 100
1, 78328, Note_off_c, 2, 76, 100
1, 78335, Note_on_c, 2, 76, 127
1, 78335, Note_on_c, 4, 58, 118
1, 78343, Note_off_c, 4, 60, 100
1, 78382, Note_on_c, 4, 60, 118
1, 78420, Note_off_c, 4, 58, 100
1, 78428, Note_on_c, 1, 82, 127
1, 78428, Note_on_c, 4, 52, 118
1, 78434, Note_off_c, 4, 60, 100
1, 78435, Note_off_c, 2, 76, 100
1, 78472, Note_on_c, 4, 60, 118
1, 78512, Note_off_c, 4, 52, 100
1, 78520, Note_on_c, 1, 79, 127
1, 78520, Note_on_c, 4, 55, 118
1, 78527, Note_off_c, 4, 60, 100
1, 78527, Note_off_c, 1, 82, 100
1, 78566, Note_on_c, 4, 60, 118
1, 78604, Note_off_c, 4, 55, 100
1, 78610, Note_on_c, 2, 76, 127
1, 78611, Note_on_c, 4, 58, 118
1, 78619, Note_off_c, 4, 60, 100
1, 78619, Note_off_c, 1, 79, 100
1, 78656, Note_on_c, 4, 60, 118
1, 78695, Note_off_c, 4, 58, 100
1, 78695, Note_off_c, 2, 76, 100
1, 78701, Note_on_c, 2, 76, 127
1, 78702, Note_on_c, 4, 58, 118
1, 78710, Note_off_c, 4, 60, 100
1, 78748, Note_on_c, 4, 60, 118
1, 78785, Note_off_c, 4, 58, 100
1, 78793, Note_on_c, 2, 77, 127
1, 78793, Note_on_c, 4, 57, 118
1, 78799, Note_off_c, 4, 60, 100
1, 78800, Note_off_c, 2, 76, 100
1, 78839, Note_on_c, 4, 60, 118
1, 78877, Note_off_c, 4, 57, 100
1, 78885, Note_on_c, 1, 79, 127
1, 78885, Note_on_c, 4, 52, 118
1, 78891, Note_off_c, 4, 60, 100
1, 78892, Note_off_c, 2, 77, 100
1, 78927, Note_on_c, 4, 60, 118
1, 78965, Note_off_c, 4, 52, 100
1, 78971, Note_on_c, 1, 81, 127
1, 78972, Note_on_c, 4, 53, 118
1, 78978, Note_off_c, 4, 60, 100
1, 78979, Note_off_c, 1, 79, 100
1, 79016, Note_on_c, 4, 60, 118
1, 79055, Note_off_c, 4, 53, 100
1, 79060, Note_on_c, 1, 82, 127
1, 79061, Note_on_c, 4, 55, 118
1, 79067, Note_off_c, 4, 60, 100
1, 79068, Note_off_c, 1, 81, 100
1, 79104, Note_on_c, 4, 60, 118
1, 79141, Note_off_c, 4, 55, 100
1, 79147, Note_on_c, 1, 83, 127
1, 79147, Note_on_c, 4, 56, 118
1, 79153, Note_off_c, 4, 60, 100
1, 79154, Note_off_c, 1, 82, 100
1, 79191, Note_on_c, 4, 60, 118
1, 79227, Note_off_c, 4, 56, 100
1, 79233, Note_on_c, 1, 84, 127
1, 79234, Note_on_c, 4, 57, 118
1, 79242, Note_off_c, 4, 60, 100
1, 79242, Note_off_c, 1, 83, 100
1, 79277, Note_on_c, 4, 60, 118
1, 79320, Note_off_c, 4, 57, 100
1, 79325, Note_on_c, 1, 83, 127
1, 79326, Note_on_c, 4, 56, 118
1, 79334, Note_off_c, 4, 60, 100
1, 79334, Note_off_c, 1, 84, 100
1, 79371, Note_on_c, 4, 60, 118
1, 79408, Note_off_c, 4, 56, 100
1, 79413, Note_off_c, 1, 83, 100
1, 79416, Note_on_c, 1, 84, 127
1, 79416, Note_on_c, 4, 57, 118
1, 79423, Note_off_c, 4, 60, 100
1, 79458, Note_on_c, 4, 60, 120
1, 79497, Note_off_c, 1, 84, 100
1, 79500, Note_off_c, 4, 57, 100
1, 79508, Note_on_c, 1, 86, 127
1, 79509, Note_on_c, 2, 74, 127
1, 79599, Note_off_c, 4, 60, 100
1, 79599, Note_on_c, 4, 58, 123
1, 79692, Note_on_c, 4, 57, 123
1, 79700, Note_off_c, 4, 58, 100
1, 79787, Note_on_c, 4, 58, 123
1, 79794, Note_off_c, 4, 57, 100
1, 79883, Note_off_c, 1, 86, 100
1, 79883, Note_off_c, 2, 74, 100
1, 79883, Note_on_c, 2, 76, 125
1, 79884, Note_on_c, 4, 64, 125
1, 79975, Note_off_c, 4, 58, 100
1, 79975, Note_on_c, 4, 60, 123
1, 80068, Note_on_c, 4, 59, 123
1, 80079, Note_off_c, 4, 60, 100
1, 80160, Note_on_c, 4, 60, 123
1, 80168, Note_off_c, 4, 59, 100
1, 80250, Note_off_c, 4, 64, 100
1, 80251, Note_off_c, 2, 76, 100
1, 80251, Note_on_c, 1, 82, 122
1, 80252, Note_on_c, 2, 70, 127
1, 80344, Note_off_c, 4, 60, 100
1, 80345, Note_on_c, 4, 61, 123
1, 80434, Note_on_c, 4, 59, 123
1, 80441, Note_off_c, 4, 61, 100
1, 80526, Note_on_c, 4, 61, 123
1, 80533, Note_off_c, 4, 59, 100
1, 80619, Note_off_c, 1, 82, 100
1, 80619, Note_on_c, 1, 81, 123
1, 80620, Note_off_c, 2, 70, 100
1, 80620, Note_on_c, 2, 69, 127
1, 80709, Note_off_c, 4, 61, 100
1, 80710, Note_on_c, 4, 62, 125
1, 80800, Note_on_c, 4, 61, 123
1, 80808, Note_off_c, 4, 62, 100
1, 80892, Note_on_c, 4, 62, 125
1, 80900, Note_off_c, 4, 61, 100
1, 80985, Note_off_c, 1, 81, 100
1, 80985, Note_on_c, 1, 81, 123
1, 80986, Note_off_c, 2, 69, 100
1, 81034, Note_on_c, 1, 79, 123
1, 81039, Note_off_c, 1, 81, 100
1, 81085, Note_on_c, 1, 82, 122
1, 81091, Note_off_c, 1, 79, 100
1, 81133, Note_on_c, 1, 81, 123
1, 81137, Note_off_c, 1, 82, 100
1, 81180, Note_off_c, 4, 62, 100
1, 81180, Note_on_c, 1, 84, 127
1, 81180, Note_on_c, 2, 67, 127
1, 81181, Note_on_c, 4, 59, 123
1, 81183, Note_off_c, 1, 81, 100
1, 81224, Note_on_c, 1, 82, 122
1, 81228, Note_off_c, 1, 84, 100
1, 81266, Note_on_c, 1, 81, 123
1, 81270, Note_off_c, 1, 82, 100
1, 81310, Note_on_c, 1, 79, 123
1, 81314, Note_off_c, 1, 81, 100
1, 81354, Note_off_c, 2, 67, 100
1, 81355, Note_on_c, 2, 77, 125
1, 81355, Note_on_c, 2, 69, 127
1, 81359, Note_off_c, 1, 79, 100
1, 81528, Note_off_c, 2, 69, 100
1, 81528, Note_off_c, 2, 77, 100
1, 81529, Note_on_c, 2, 76, 125
1, 81529, Note_on_c, 2, 70, 127
1, 81697, Note_off_c, 2, 70, 100
1, 81698, Note_off_c, 4, 59, 100
1, 81698, Note_on_c, 2, 69, 127
1, 81698, Note_on_c, 4, 65, 127
1, 81781, Note_off_c, 2, 76, 100
1, 81788, Note_on_c, 2, 77, 125
1, 81877, Note_on_c, 2, 76, 125
1, 81885, Note_off_c, 2, 77, 100
1, 81970, Note_on_c, 2, 77, 125
1, 81978, Note_off_c, 2, 76, 100
1, 82048, Note_off_c, 4, 65, 100
1, 82049, Note_off_c, 2, 69, 100
1, 82063, Note_on_c, 2, 69, 127
1, 82064, Note_on_c, 4, 65, 127
1, 82155, Note_off_c, 2, 77, 100
1, 82156, Note_on_c, 2, 75, 127
1, 82248, Note_on_c, 2, 74, 127
1, 82256, Note_off_c, 2, 75, 100
1, 82331, Note_on_c, 2, 75, 127
1, 82339, Note_off_c, 2, 74, 100
1, 82416, Note_off_c, 2, 69, 100
1, 82416, Note_off_c, 4, 65, 100
1, 82416, Note_on_c, 4, 60, 125
1, 82417, Note_on_c, 4, 57, 125
1, 82417, Note_on_c, 4, 54, 125
1, 82504, Note_off_c, 2, 75, 100
1, 82504, Note_on_c, 2, 74, 127
1, 82595, Note_on_c, 1, 86, 127
1, 82603, Note_off_c, 2, 74, 100
1, 82678, Note_off_c, 1, 86, 100
1, 82683, Note_on_c, 1, 86, 127
1, 82772, Note_off_c, 4, 54, 100
1, 82772, Note_off_c, 4, 57, 100
1, 82773, Note_off_c, 4, 60, 100
1, 82773, Note_on_c, 4, 58, 125
1, 82774, Note_on_c, 4, 55, 125
1, 82851, Note_off_c, 1, 86, 100
1, 82859, Note_on_c, 1, 86, 127
1, 82953, Note_on_c, 2, 74, 127
1, 82961, Note_off_c, 1, 86, 100
1, 83038, Note_off_c, 2, 74, 100
1, 83045, Note_on_c, 2, 74, 127
1, 83124, Note_off_c, 4, 58, 100
1, 83124, Note_off_c, 4, 55, 100
1, 83133, Note_on_c, 4, 58, 125
1, 83133, Note_on_c, 4, 55, 125
1, 83134, Note_on_c, 4, 52, 125
1, 83218, Note_off_c, 2, 74, 100
1, 83219, Note_on_c, 2, 72, 127
1, 83307, Note_on_c, 1, 84, 127
1, 83315, Note_off_c, 2, 72, 100
1, 83386, Note_off_c, 1, 84, 100
1, 83392, Note_on_c, 1, 84, 127
1, 83486, Note_off_c, 4, 55, 100
1, 83486, Note_off_c, 4, 52, 100
1, 83487, Note_off_c, 4, 58, 100
1, 83487, Note_on_c, 4, 57, 125
1, 83488, Note_on_c, 4, 53, 125
1, 83569, Note_off_c, 1, 84, 100
1, 83577, Note_on_c, 1, 84, 127
1, 83667, Note_on_c, 2, 72, 127
1, 83675, Note_off_c, 1, 84, 100
1, 83746, Note_off_c, 2, 72, 100
1, 83752, Note_on_c, 2, 72, 127
1, 83842, Note_on_c, 2, 73, 127
1, 83850, Note_off_c, 2, 72, 100
1, 83932, Note_on_c, 2, 74, 127
1, 83939, Note_off_c, 2, 73, 100
1, 84020, Note_off_c, 4, 57, 100
1, 84020, Note_off_c, 4, 53, 100
1, 84021, Note_on_c, 2, 76, 125
1, 84021, Note_on_c, 4, 55, 125
1, 84022, Note_on_c, 4, 47, 125
1, 84027, Note_off_c, 2, 74, 100
1, 84100, Note_on_c, 2, 77, 125
1, 84106, Note_off_c, 2, 76, 100
1, 84187, Note_off_c, 4, 47, 100
1, 84187, Note_off_c, 4, 55, 100
1, 84188, Note_on_c, 3, 65, 127
1, 84188, Note_on_c, 4, 57, 125
1, 84189, Note_on_c, 4, 48, 125
1, 84194, Note_off_c, 2, 77, 100
1, 84364, Note_off_c, 4, 57, 100
1, 84364, Note_off_c, 3, 65, 100
1, 84365, Note_on_c, 4, 58, 125
1, 84365, Note_on_c, 2, 69, 127
1, 84450, Note_on_c, 3, 67, 127
1, 84458, Note_off_c, 2, 69, 100
1, 84534, Note_off_c, 4, 58, 100
1, 84543, Note_off_c, 4, 48, 100
1, 84544, Note_on_c, 4, 57, 125
1, 84544, Note_on_c, 3, 65, 127
1, 84545, Note_on_c, 4, 53, 125
1, 84551, Note_off_c, 3, 67, 100
1, 84626, Note_off_c, 3, 65, 100
1, 84634, Note_on_c, 3, 65, 127
1, 84680, Note_on_c, 2, 69, 127
1, 84683, Note_off_c, 3, 65, 100
1, 84722, Note_on_c, 3, 67, 127
1, 84722, Note_on_c, 3, 64, 127
1, 84724, Note_off_c, 2, 69, 100
1, 84765, Note_on_c, 2, 70, 127
1, 84768, Note_off_c, 3, 67, 100
1, 84807, Note_on_c, 2, 69, 127
1, 84808, Note_on_c, 3, 63, 127
1, 84812, Note_off_c, 2, 70, 100
1, 84814, Note_off_c, 3, 64, 100
1, 84849, Note_on_c, 2, 72, 127
1, 84852, Note_off_c, 2, 69, 100
1, 84885, Note_off_c, 4, 53, 100
1, 84892, Note_off_c, 4, 57, 100
1, 84892, Note_on_c, 2, 70, 127
1, 84893, Note_on_c, 4, 53, 125
1, 84893, Note_on_c, 3, 62, 127
1, 84895, Note_off_c, 2, 72, 100
1, 84900, Note_off_c, 3, 63, 100
1, 84972, Note_on_c, 3, 65, 127
1, 84980, Note_off_c, 3, 62, 100
1, 84981, Note_off_c, 2, 70, 100
1, 85014, Note_on_c, 2, 69, 127
1, 85018, Note_off_c, 3, 65, 100
1, 85056, Note_on_c, 3, 67, 127
1, 85056, Note_on_c, 3, 64, 127
1, 85058, Note_off_c, 2, 69, 100
1, 85099, Note_on_c, 2, 70, 127
1, 85103, Note_off_c, 3, 67, 100
1, 85141, Note_on_c, 2, 69, 127
1, 85142, Note_on_c, 3, 63, 127
1, 85146, Note_off_c, 2, 70, 100
1, 85148, Note_off_c, 3, 64, 100
1, 85185, Note_on_c, 2, 72, 127
1, 85188, Note_off_c, 2, 69, 100
1, 85219, Note_off_c, 4, 53, 100
1, 85225, Note_on_c, 2, 70, 127
1, 85225, Note_on_c, 3, 62, 127
1, 85226, Note_on_c, 4, 53, 125
1, 85230, Note_off_c, 2, 72, 100
1, 85234, Note_off_c, 3, 63, 100
1, 85312, Note_on_c, 3, 65, 127
1, 85320, Note_off_c, 3, 62, 100
1, 85320, Note_off_c, 2, 70, 100
1, 85355, Note_off_c, 3, 65, 100
1, 85357, Note_on_c, 2, 69, 127
1, 85400, Note_on_c, 3, 67, 127
1, 85400, Note_on_c, 3, 64, 127
1, 85403, Note_off_c, 2, 69, 100
1, 85443, Note_on_c, 2, 70, 127
1, 85449, Note_off_c, 3, 67, 100
1, 85487, Note_on_c, 2, 69, 127
1, 85488, Note_on_c, 3, 63, 127
1, 85489, Note_off_c, 2, 70, 100
1, 85494, Note_off_c, 3, 64, 100
1, 85532, Note_on_c, 2, 72, 127
1, 85536, Note_off_c, 2, 69, 100
1, 85574, Note_off_c, 4, 53, 100
1, 85575, Note_on_c, 2, 70, 127
1, 85575, Note_on_c, 3, 62, 127
1, 85579, Note_off_c, 2, 72, 100
1, 85581, Note_off_c, 3, 63, 100
1, 85620, Note_on_c, 2, 74, 126
1, 85623, Note_off_c, 2, 70, 100
1, 85660, Note_on_c, 2, 72, 127
1, 85660, Note_on_c, 4, 57, 125
1, 85665, Note_off_c, 2, 74, 100
1, 85667, Note_off_c, 3, 62, 100
1, 85704, Note_on_c, 2, 75, 124
1, 85706, Note_off_c, 2, 72, 100
1, 85744, Note_on_c, 2, 74, 126
1, 85745, Note_on_c, 4, 58, 125
1, 85747, Note_off_c, 2, 75, 100
1, 85751, Note_off_c, 4, 57, 100
1, 85788, Note_on_c, 2, 77, 122
1, 85791, Note_off_c, 2, 74, 100
1, 85830, Note_on_c, 4, 55, 125
1, 85830, Note_on_c, 2, 76, 122
1, 85833, Note_off_c, 2, 77, 100
1, 85836, Note_off_c, 4, 58, 100
1, 85875, Note_on_c, 1, 79, 119
1, 85879, Note_off_c, 2, 76, 100
1, 85915, Note_on_c, 2, 77, 122
1, 85916, Note_on_c, 4, 57, 125
1, 85920, Note_off_c, 1, 79, 100
1, 85924, Note_off_c, 4, 55, 100
1, 85962, Note_on_c, 1, 79, 119
1, 85966, Note_off_c, 2, 77, 100
1, 86006, Note_on_c, 1, 81, 119
1, 86010, Note_off_c, 1, 79, 100
1, 86051, Note_on_c, 1, 79, 119
1, 86056, Note_off_c, 1, 81, 100
1, 86095, Note_on_c, 2, 77, 122
1, 86099, Note_off_c, 1, 79, 100
1, 86137, Note_on_c, 2, 75, 124
1, 86143, Note_off_c, 2, 77, 100
1, 86182, Note_on_c, 2, 74, 126
1, 86185, Note_off_c, 2, 75, 100
1, 86223, Note_on_c, 2, 73, 127
1, 86229, Note_off_c, 2, 74, 100
1, 86268, Note_off_c, 4, 57, 100
1, 86268, Note_on_c, 4, 58, 125
1, 86268, Note_on_c, 2, 74, 126
1, 86272, Note_off_c, 2, 73, 100
1, 86315, Note_on_c, 2, 72, 127
1, 86318, Note_off_c, 2, 74, 100
1, 86355, Note_on_c, 2, 70, 127
1, 86359, Note_off_c, 2, 72, 100
1, 86397, Note_on_c, 2, 69, 127
1, 86401, Note_off_c, 2, 70, 100
1, 86438, Note_on_c, 3, 67, 127
1, 86442, Note_off_c, 2, 69, 100
1, 86484, Note_on_c, 3, 65, 127
1, 86487, Note_off_c, 3, 67, 100
1, 86528, Note_on_c, 3, 64, 127
1, 86532, Note_off_c, 3, 65, 100
1, 86574, Note_on_c, 3, 62, 127
1, 86580, Note_off_c, 3, 64, 100
1, 86620, Note_off_c, 4, 58, 100
1, 86621, Note_on_c, 3, 60, 125
1, 86621, Note_on_c, 4, 48, 125
1, 86625, Note_off_c, 3, 62, 100
1, 86667, Note_on_c, 3, 65, 127
1, 86671, Note_off_c, 3, 60, 100
1, 86712, Note_on_c, 2, 69, 127
1, 86712, Note_on_c, 4, 53, 125
1, 86716, Note_off_c, 3, 65, 100
1, 86718, Note_off_c, 4, 48, 100
1, 86755, Note_on_c, 2, 72, 127
1, 86760, Note_off_c, 2, 69, 100
1, 86799, Note_on_c, 2, 77, 122
1, 86799, Note_on_c, 4, 57, 125
1, 86803, Note_off_c, 2, 72, 100
1, 86806, Note_off_c, 4, 53, 100
1, 86888, Note_on_c, 2, 69, 127
1, 86889, Note_on_c, 4, 65, 127
1, 86889, Note_on_c, 4, 53, 125
1, 86897, Note_off_c, 4, 57, 100
1, 86897, Note_off_c, 2, 77, 100
1, 86976, Note_off_c, 2, 69, 100
1, 86984, Note_on_c, 2, 72, 127
1, 86985, Note_on_c, 2, 69, 127
1, 86985, Note_on_c, 4, 48, 125
1, 86993, Note_off_c, 4, 53, 100
1, 87077, Note_off_c, 4, 65, 100
1, 87078, Note_on_c, 2, 70, 127
1, 87078, Note_on_c, 2, 67, 127
1, 87079, Note_on_c, 4, 55, 125
1, 87085, Note_off_c, 4, 48, 100
1, 87085, Note_off_c, 2, 69, 100
1, 87086, Note_off_c, 2, 72, 100
1, 87165, Note_on_c, 2, 69, 127
1, 87165, Note_on_c, 3, 65, 127
1, 87166, Note_on_c, 4, 58, 125
1, 87173, Note_off_c, 4, 55, 100
1, 87174, Note_off_c, 2, 67, 100
1, 87174, Note_off_c, 2, 70, 100
1, 87255, Note_on_c, 2, 67, 127
1, 87255, Note_on_c, 3, 64, 127
1, 87256, Note_on_c, 4, 55, 125
1, 87264, Note_off_c, 4, 58, 100
1, 87264, Note_off_c, 3, 65, 100
1, 87264, Note_off_c, 2, 69, 100
1, 87351, Note_on_c, 4, 57, 125
1, 87351, Note_on_c, 3, 65, 127
1, 87352, Note_on_c, 4, 53, 125
1, 87359, Note_off_c, 4, 55, 100
1, 87359, Note_off_c, 3, 64, 100
1, 87360, Note_off_c, 2, 67, 100
1, 87434, Note_off_c, 3, 65, 100
1, 87442, Note_on_c, 2, 77, 120
1, 87443, Note_on_c, 3, 65, 127
1, 87489, Note_on_c, 1, 81, 117
1, 87492, Note_off_c, 2, 77, 100
1, 87531, Note_on_c, 1, 79, 117
1, 87532, Note_on_c, 3, 64, 127
1, 87536, Note_off_c, 1, 81, 100
1, 87538, Note_off_c, 3, 65, 100
1, 87575, Note_on_c, 1, 82, 116
1, 87578, Note_off_c, 1, 79, 100
1, 87619, Note_on_c, 1, 81, 117
1, 87619, Note_on_c, 3, 63, 127
1, 87622, Note_off_c, 1, 82, 100
1, 87625, Note_off_c, 3, 64, 100
1, 87664, Note_on_c, 1, 84, 121
1, 87668, Note_off_c, 1, 81, 100
1, 87706, Note_off_c, 4, 53, 100
1, 87707, Note_off_c, 4, 57, 100
1, 87707, Note_on_c, 1, 82, 116
1, 87708, Note_on_c, 4, 50, 125
1, 87708, Note_on_c, 3, 62, 127
1, 87711, Note_off_c, 1, 84, 100
1, 87713, Note_off_c, 3, 63, 100
1, 87793, Note_on_c, 2, 77, 120
1, 87794, Note_on_c, 3, 65, 127
1, 87800, Note_off_c, 3, 62, 100
1, 87801, Note_off_c, 1, 82, 100
1, 87840, Note_on_c, 1, 81, 117
1, 87843, Note_off_c, 2, 77, 100
1, 87880, Note_on_c, 1, 79, 117
1, 87880, Note_on_c, 3, 64, 127
1, 87885, Note_off_c, 1, 81, 100
1, 87888, Note_off_c, 3, 65, 100
1, 87927, Note_on_c, 1, 82, 116
1, 87931, Note_off_c, 1, 79, 100
1, 87972, Note_on_c, 1, 81, 117
1, 87972, Note_on_c, 3, 63, 127
1, 87976, Note_off_c, 1, 82, 100
1, 87978, Note_off_c, 3, 64, 100
1, 88018, Note_on_c, 1, 84, 121
1, 88024, Note_off_c, 1, 81, 100
1, 88060, Note_off_c, 4, 50, 100
1, 88061, Note_on_c, 1, 82, 116
1, 88061, Note_on_c, 3, 62, 127
1, 88062, Note_on_c, 4, 53, 125
1, 88066, Note_off_c, 1, 84, 100
1, 88068, Note_off_c, 3, 63, 100
1, 88152, Note_on_c, 2, 77, 120
1, 88153, Note_on_c, 3, 65, 127
1, 88159, Note_off_c, 3, 62, 100
1, 88160, Note_off_c, 1, 82, 100
1, 88199, Note_on_c, 1, 81, 117
1, 88202, Note_off_c, 2, 77, 100
1, 88241, Note_on_c, 3, 64, 127
1, 88241, Note_on_c, 1, 79, 117
1, 88246, Note_off_c, 1, 81, 100
1, 88248, Note_off_c, 3, 65, 100
1, 88286, Note_on_c, 1, 82, 116
1, 88292, Note_off_c, 1, 79, 100
1, 88328, Note_on_c, 1, 81, 117
1, 88329, Note_on_c, 3, 63, 127
1, 88333, Note_off_c, 1, 82, 100
1, 88337, Note_off_c, 3, 64, 100
1, 88375, Note_on_c, 1, 84, 121
1, 88379, Note_off_c, 1, 81, 100
1, 88420, Note_on_c, 1, 82, 116
1, 88420, Note_on_c, 3, 62, 127
1, 88422, Note_off_c, 1, 84, 100
1, 88426, Note_off_c, 3, 63, 100
1, 88463, Note_on_c, 2, 77, 120
1, 88468, Note_off_c, 1, 82, 100
1, 88511, Note_off_c, 4, 53, 100
1, 88511, Note_on_c, 1, 84, 121
1, 88512, Note_on_c, 4, 57, 125
1, 88515, Note_off_c, 2, 77, 100
1, 88519, Note_off_c, 3, 62, 100
1, 88554, Note_on_c, 2, 77, 120
1, 88558, Note_off_c, 1, 84, 100
1, 88598, Note_on_c, 1, 86, 123
1, 88598, Note_on_c, 4, 58, 125
1, 88603, Note_off_c, 2, 77, 100
1, 88605, Note_off_c, 4, 57, 100
1, 88641, Note_on_c, 2, 77, 120
1, 88645, Note_off_c, 1, 86, 100
1, 88686, Note_on_c, 1, 88, 120
1, 88686, Note_on_c, 4, 55, 125
1, 88690, Note_off_c, 2, 77, 100
1, 88694, Note_off_c, 4, 58, 100
1, 88730, Note_on_c, 2, 77, 120
1, 88734, Note_off_c, 1, 88, 100
1, 88773, Note_on_c, 4, 57, 125
1, 88773, Note_on_c, 1, 89, 122
1, 88774, Note_on_c, 4, 45, 125
1, 88781, Note_off_c, 4, 55, 100
1, 88820, Note_on_c, 1, 88, 120
1, 88824, Note_off_c, 1, 89, 100
1, 88826, Note_off_c, 2, 77, 100
1, 88860, Note_on_c, 1, 86, 125
1, 88864, Note_off_c, 1, 88, 100
1, 88903, Note_on_c, 1, 84, 123
1, 88906, Note_off_c, 1, 86, 100
1, 88945, Note_on_c, 1, 82, 118
1, 88948, Note_off_c, 1, 84, 100
1, 88989, Note_on_c, 1, 81, 119
1, 88992, Note_off_c, 1, 82, 100
1, 89031, Note_on_c, 1, 79, 119
1, 89037, Note_off_c, 1, 81, 100
1, 89076, Note_on_c, 2, 77, 122
1, 89079, Note_off_c, 1, 79, 100
1, 89120, Note_off_c, 4, 57, 100
1, 89120, Note_off_c, 4, 45, 100
1, 89121, Note_on_c, 4, 58, 125
1, 89121, Note_on_c, 4, 46, 125
1, 89121, Note_on_c, 1, 86, 125
1, 89123, Note_off_c, 2, 77, 100
1, 89168, Note_on_c, 1, 84, 123
1, 89171, Note_off_c, 1, 86, 100
1, 89208, Note_on_c, 1, 82, 118
1, 89211, Note_off_c, 1, 84, 100
1, 89250, Note_on_c, 1, 81, 119
1, 89254, Note_off_c, 1, 82, 100
1, 89292, Note_on_c, 1, 79, 119
1, 89298, Note_off_c, 1, 81, 100
1, 89335, Note_on_c, 2, 77, 122
1, 89338, Note_off_c, 1, 79, 100
1, 89379, Note_on_c, 2, 76, 122
1, 89384, Note_off_c, 2, 77, 100
1, 89421, Note_on_c, 2, 74, 126
1, 89426, Note_off_c, 2, 76, 100
1, 89465, Note_off_c, 4, 46, 100
1, 89466, Note_off_c, 4, 58, 100
1, 89466, Note_on_c, 2, 72, 127
1, 89467, Note_on_c, 4, 48, 125
1, 89469, Note_off_c, 2, 74, 100
1, 89511, Note_on_c, 4, 57, 125
1, 89548, Note_off_c, 2, 72, 100
1, 89549, Note_off_c, 4, 48, 100
1, 89556, Note_on_c, 1, 84, 123
1, 89556, Note_on_c, 4, 53, 125
1, 89592, Note_off_c, 4, 57, 100
1, 89598, Note_on_c, 4, 57, 125
1, 89634, Note_off_c, 1, 84, 100
1, 89635, Note_off_c, 4, 53, 100
1, 89641, Note_on_c, 1, 84, 123
1, 89641, Note_on_c, 4, 48, 125
1, 89680, Note_off_c, 4, 57, 100
1, 89688, Note_on_c, 4, 57, 125
1, 89724, Note_off_c, 1, 84, 100
1, 89725, Note_off_c, 4, 48, 100
1, 89732, Note_on_c, 1, 84, 123
1, 89733, Note_on_c, 4, 53, 125
1, 89770, Note_off_c, 4, 57, 100
1, 89775, Note_on_c, 4, 57, 125
1, 89812, Note_off_c, 1, 84, 100
1, 89812, Note_off_c, 4, 53, 100
1, 89817, Note_on_c, 1, 84, 123
1, 89818, Note_on_c, 4, 48, 125
1, 89857, Note_off_c, 4, 57, 100
1, 89865, Note_on_c, 1, 81, 119
1, 89865, Note_on_c, 4, 57, 125
1, 89868, Note_off_c, 1, 84, 100
1, 89900, Note_off_c, 4, 48, 100
1, 89906, Note_on_c, 2, 77, 122
1, 89906, Note_on_c, 4, 53, 125
1, 89911, Note_off_c, 1, 81, 100
1, 89941, Note_off_c, 4, 57, 100
1, 89950, Note_on_c, 4, 57, 125
1, 89950, Note_on_c, 2, 72, 127
1, 89952, Note_off_c, 2, 77, 100
1, 89988, Note_off_c, 4, 53, 100
1, 89994, Note_on_c, 2, 77, 122
1, 89995, Note_on_c, 4, 48, 125
1, 89999, Note_off_c, 2, 72, 100
1, 90034, Note_off_c, 4, 57, 100
1, 90041, Note_on_c, 2, 72, 127
1, 90042, Note_on_c, 4, 57, 125
1, 90044, Note_off_c, 2, 77, 100
1, 90079, Note_off_c, 4, 48, 100
1, 90086, Note_on_c, 2, 69, 127
1, 90087, Note_on_c, 4, 55, 125
1, 90091, Note_off_c, 2, 72, 100
1, 90124, Note_off_c, 4, 57, 100
1, 90132, Note_on_c, 4, 65, 127
1, 90132, Note_on_c, 4, 57, 125
1, 90136, Note_off_c, 2, 69, 100
1, 90175, Note_off_c, 4, 55, 100
1, 90184, Note_on_c, 2, 69, 127
1, 90185, Note_on_c, 4, 48, 125
1, 90189, Note_off_c, 4, 65, 100
1, 90226, Note_off_c, 2, 69, 100
1, 90228, Note_on_c, 2, 67, 127
1, 90231, Note_off_c, 4, 57, 100
1, 90240, Note_on_c, 4, 58, 125
1, 90260, Note_on_c, 2, 69, 127
1, 90268, Note_off_c, 2, 67, 100
1, 90283, Note_off_c, 4, 48, 100
1, 90293, Note_on_c, 4, 52, 125
1, 90297, Note_on_c, 2, 67, 127
1, 90300, Note_off_c, 2, 69, 100
1, 90327, Note_on_c, 2, 69, 127
1, 90335, Note_off_c, 2, 67, 100
1, 90337, Note_off_c, 4, 58, 100
1, 90345, Note_on_c, 4, 58, 125
1, 90367, Note_off_c, 2, 69, 100
1, 90367, Note_on_c, 2, 67, 127
1, 90389, Note_off_c, 4, 52, 100
1, 90395, Note_on_c, 2, 69, 127
1, 90398, Note_on_c, 4, 48, 125
1, 90406, Note_off_c, 2, 67, 100
1, 90421, Note_on_c, 2, 67, 127
1, 90435, Note_off_c, 2, 69, 100
1, 90443, Note_off_c, 4, 58, 100
1, 90451, Note_on_c, 4, 58, 125
1, 90455, Note_on_c, 2, 69, 127
1, 90463, Note_off_c, 2, 67, 100
1, 90486, Note_on_c, 2, 67, 127
1, 90493, Note_off_c, 2, 69, 100
1, 90495, Note_off_c, 4, 48, 100
1, 90504, Note_on_c, 4, 52, 125
1, 90519, Note_on_c, 2, 69, 127
1, 90525, Note_off_c, 2, 67, 100
1, 90546, Note_off_c, 4, 58, 100
1, 90554, Note_on_c, 2, 67, 127
1, 90554, Note_on_c, 4, 58, 125
1, 90559, Note_off_c, 2, 69, 100
1, 90589, Note_on_c, 2, 69, 127
1, 90593, Note_off_c, 2, 67, 100
1, 90599, Note_off_c, 4, 52, 100
1, 90607, Note_on_c, 4, 48, 125
1, 90628, Note_off_c, 2, 69, 100
1, 90630, Note_on_c, 2, 67, 127
1, 90649, Note_off_c, 4, 58, 100
1, 90657, Note_on_c, 4, 58, 125
1, 90664, Note_on_c, 2, 69, 127
1, 90668, Note_off_c, 2, 67, 100
1, 90697, Note_off_c, 4, 48, 100
1, 90699, Note_off_c, 2, 69, 100
1, 90703, Note_on_c, 2, 67, 127
1, 90705, Note_on_c, 4, 52, 125
1, 90739, Note_off_c, 2, 67, 100
1, 90740, Note_on_c, 2, 69, 127
1, 90745, Note_off_c, 4, 58, 100
1, 90753, Note_on_c, 4, 58, 125
1, 90772, Note_on_c, 2, 67, 127
1, 90776, Note_off_c, 2, 69, 100
1, 90791, Note_off_c, 4, 52, 100
1, 90799, Note_on_c, 4, 48, 125
1, 90801, Note_on_c, 2, 69, 127
1, 90806, Note_off_c, 2, 67, 100
1, 90835, Note_off_c, 2, 69, 100
1, 90837, Note_off_c, 4, 58, 100
1, 90845, Note_on_c, 2, 67, 127
1, 90845, Note_on_c, 4, 58, 125
1, 90876, Note_off_c, 2, 67, 100
1, 90881, Note_off_c, 4, 48, 100
1, 90886, Note_on_c, 4, 65, 127
1, 90887, Note_on_c, 4, 52, 125
1, 90925, Note_off_c, 4, 58, 100
1, 90934, Note_on_c, 2, 67, 127
1, 90934, Note_on_c, 4, 58, 125
1, 90940, Note_off_c, 4, 65, 64
1, 90971, Note_off_c, 4, 52, 100
1, 90978, Note_on_c, 4, 65, 127
1, 90979, Note_on_c, 4, 53, 125
1, 90985, Note_off_c, 2, 67, 64
1, 91018, Note_off_c, 4, 58, 100
1, 91064, Note_off_c, 4, 65, 100
1, 91071, Note_on_c, 2, 77, 122
1, 91072, Note_on_c, 3, 65, 127
1, 91163, Note_on_c, 3, 64, 127
1, 91170, Note_off_c, 3, 65, 100
1, 91247, Note_off_c, 2, 77, 100
1, 91251, Note_on_c, 2, 77, 122
1, 91251, Note_on_c, 3, 65, 127
1, 91260, Note_off_c, 3, 64, 100
1, 91344, Note_on_c, 2, 76, 122
1, 91345, Note_on_c, 3, 67, 127
1, 91351, Note_off_c, 3, 65, 100
1, 91351, Note_off_c, 2, 77, 100
1, 91440, Note_on_c, 2, 77, 122
1, 91441, Note_on_c, 3, 65, 127
1, 91449, Note_off_c, 2, 76, 100
1, 91449, Note_off_c, 3, 67, 100
1, 91529, Note_on_c, 1, 79, 119
1, 91529, Note_on_c, 3, 64, 127
1, 91537, Note_off_c, 3, 65, 100
1, 91538, Note_off_c, 2, 77, 100
1, 91625, Note_on_c, 1, 81, 119
1, 91625, Note_on_c, 3, 63, 127
1, 91632, Note_off_c, 3, 64, 100
1, 91632, Note_off_c, 1, 79, 100
1, 91723, Note_on_c, 1, 82, 118
1, 91723, Note_on_c, 3, 62, 127
1, 91729, Note_off_c, 3, 63, 100
1, 91730, Note_off_c, 1, 81, 100
1, 91769, Note_on_c, 1, 84, 123
1, 91773, Note_off_c, 1, 82, 100
1, 91791, Note_off_c, 4, 53, 100
1, 91814, Note_on_c, 4, 53, 125
1, 91814, Note_on_c, 1, 86, 125
1, 91818, Note_off_c, 1, 84, 100
1, 91865, Note_on_c, 1, 84, 123
1, 91868, Note_off_c, 1, 86, 100
1, 91911, Note_off_c, 3, 62, 100
1, 91911, Note_on_c, 1, 81, 119
1, 91912, Note_on_c, 3, 61, 125
1, 91915, Note_off_c, 1, 84, 100
1, 91950, Note_off_c, 1, 81, 100
1, 91960, Note_on_c, 1, 81, 119
1, 91998, Note_off_c, 4, 53, 100
1, 92004, Note_on_c, 4, 53, 125
1, 92004, Note_on_c, 1, 79, 119
1, 92008, Note_off_c, 1, 81, 100
1, 92047, Note_on_c, 2, 77, 122
1, 92051, Note_off_c, 1, 79, 100
1, 92093, Note_off_c, 3, 61, 100
1, 92094, Note_on_c, 3, 60, 125
1, 92094, Note_on_c, 2, 76, 122
1, 92098, Note_off_c, 2, 77, 100
1, 92140, Note_on_c, 2, 77, 122
1, 92144, Note_off_c, 2, 76, 100
1, 92179, Note_off_c, 4, 53, 100
1, 92184, Note_on_c, 1, 79, 119
1, 92185, Note_on_c, 4, 53, 125
1, 92189, Note_off_c, 2, 77, 100
1, 92232, Note_on_c, 2, 77, 122
1, 92235, Note_off_c, 1, 79, 100
1, 92278, Note_off_c, 3, 60, 100
1, 92278, Note_on_c, 2, 76, 122
1, 92279, Note_on_c, 3, 64, 127
1, 92282, Note_off_c, 2, 77, 100
1, 92321, Note_on_c, 2, 74, 126
1, 92325, Note_off_c, 2, 76, 100
1, 92361, Note_off_c, 4, 53, 100
1, 92367, Note_on_c, 2, 72, 127
1, 92367, Note_on_c, 4, 53, 125
1, 92370, Note_off_c, 2, 74, 100
1, 92410, Note_on_c, 2, 70, 127
1, 92416, Note_off_c, 2, 72, 100
1, 92458, Note_off_c, 3, 64, 100
1, 92459, Note_on_c, 3, 65, 127
1, 92459, Note_on_c, 2, 69, 127
1, 92463, Note_off_c, 2, 70, 100
1, 92544, Note_off_c, 2, 69, 100
1, 92545, Note_off_c, 4, 53, 100
1, 92551, Note_on_c, 2, 69, 127
1, 92552, Note_on_c, 4, 53, 125
1, 92640, Note_on_c, 4, 52, 125
1, 92648, Note_off_c, 4, 53, 100
1, 92725, Note_off_c, 3, 65, 100
1, 92733, Note_off_c, 2, 69, 100
1, 92733, Note_on_c, 3, 65, 127
1, 92734, Note_on_c, 4, 53, 125
1, 92739, Note_off_c, 4, 52, 100
1, 92830, Note_on_c, 3, 63, 127
1, 92830, Note_on_c, 4, 55, 125
1, 92838, Note_off_c, 4, 53, 100
1, 92839, Note_off_c, 3, 65, 100
1, 92928, Note_on_c, 3, 65, 127
1, 92928, Note_on_c, 4, 53, 125
1, 92936, Note_off_c, 4, 55, 100
1, 92937, Note_off_c, 3, 63, 100
1, 93024, Note_on_c, 3, 67, 127
1, 93024, Note_on_c, 4, 52, 125
1, 93030, Note_off_c, 4, 53, 100
1, 93031, Note_off_c, 3, 65, 100
1, 93114, Note_on_c, 2, 69, 127
1, 93115, Note_on_c, 4, 51, 125
1, 93123, Note_off_c, 4, 52, 100
1, 93124, Note_off_c, 3, 67, 100
1, 93209, Note_on_c, 4, 50, 125
1, 93209, Note_on_c, 2, 70, 127
1, 93216, Note_off_c, 2, 69, 100
1, 93216, Note_off_c, 4, 51, 100
1, 93293, Note_off_c, 2, 70, 100
1, 93301, Note_on_c, 2, 70, 127
1, 93334, Note_off_c, 2, 70, 100
1, 93339, Note_on_c, 2, 68, 126
1, 93370, Note_off_c, 2, 68, 100
1, 93374, Note_on_c, 2, 70, 127
1, 93399, Note_off_c, 4, 50, 100
1, 93399, Note_on_c, 2, 72, 127
1, 93400, Note_on_c, 4, 46, 125
1, 93406, Note_off_c, 2, 70, 100
1, 93483, Note_off_c, 2, 72, 100
1, 93492, Note_on_c, 2, 74, 127
1, 93574, Note_off_c, 2, 74, 100
1, 93581, Note_off_c, 4, 46, 100
1, 93582, Note_on_c, 2, 74, 127
1, 93582, Note_on_c, 2, 70, 127
1, 93583, Note_on_c, 4, 48, 125
1, 93668, Note_off_c, 2, 70, 100
1, 93669, Note_off_c, 2, 74, 100
1, 93676, Note_on_c, 2, 72, 127
1, 93677, Note_on_c, 2, 69, 127
1, 93768, Note_off_c, 4, 48, 100
1, 93774, Note_on_c, 4, 48, 125
1, 93871, Note_on_c, 3, 64, 127
1, 93871, Note_on_c, 3, 58, 125
1, 93879, Note_off_c, 2, 72, 100
1, 93879, Note_off_c, 2, 69, 100
1, 93957, Note_off_c, 3, 58, 100
1, 93965, Note_off_c, 3, 64, 100
1, 93965, Note_off_c, 4, 48, 100
1, 93966, Note_on_c, 3, 67, 127
1, 93966, Note_on_c, 3, 58, 125
1, 93967, Note_on_c, 4, 53, 125
1, 94149, Note_off_c, 4, 53, 100
1, 94150, Note_on_c, 4, 48, 125
1, 94327, Note_off_c, 3, 58, 100
1, 94328, Note_off_c, 3, 67, 100
1, 94333, Note_off_c, 4, 48, 100
1, 94334, Note_on_c, 3, 57, 125
1, 94334, Note_on_c, 3, 65, 127
1, 94335, Note_on_c, 4, 41, 125
1, 94512, Note_off_c, 3, 65, 100
1, 94519, Note_on_c, 2, 74, 127
1, 94565, Note_on_c, 2, 72, 127
1, 94571, Note_off_c, 2, 74, 64
1, 94601, Note_off_c, 3, 57, 100
1, 94609, Note_on_c, 2, 70, 127
1, 94615, Note_off_c, 2, 72, 64
1, 94655, Note_on_c, 2, 69, 127
1, 94659, Note_off_c, 2, 70, 64
1, 94699, Note_on_c, 3, 67, 127
1, 94705, Note_off_c, 2, 69, 64
1, 94772, Note_off_c, 4, 41, 100
1, 94791, Note_off_c, 3, 67, 64
1, 94793, Note_on_c, 3, 65, 127
1, 94794, Note_on_c, 4, 41, 125
1, 94894, Note_on_c, 3, 65, 127
1, 94895, Note_on_c, 4, 45, 125
1, 94901, Note_off_c, 4, 41, 64
1, 94993, Note_on_c, 4, 48, 125
1, 95001, Note_off_c, 4, 45, 64
1, 95089, Note_on_c, 4, 45, 125
1, 95097, Note_off_c, 4, 48, 64
1, 95179, Note_on_c, 2, 77, 125
1, 95180, Note_on_c, 4, 41, 125
1, 95186, Note_off_c, 4, 45, 64
1, 95270, Note_on_c, 1, 79, 123
1, 95271, Note_on_c, 4, 45, 125
1, 95279, Note_off_c, 4, 41, 64
1, 95280, Note_off_c, 2, 77, 64
1, 95368, Note_on_c, 1, 81, 123
1, 95369, Note_on_c, 4, 48, 125
1, 95377, Note_off_c, 1, 79, 64
1, 95377, Note_off_c, 4, 45, 64
1, 95461, Note_on_c, 1, 82, 122
1, 95462, Note_on_c, 2, 76, 125
1, 95468, Note_off_c, 1, 81, 64
1, 95556, Note_off_c, 4, 48, 64
1, 95557, Note_on_c, 4, 55, 125
1, 95598, Note_off_c, 1, 82, 64
1, 95600, Note_on_c, 1, 79, 123
1, 95636, Note_off_c, 2, 76, 64
1, 95642, Note_off_c, 3, 65, 64
1, 95642, Note_off_c, 3, 65, 64
1, 95644, Note_on_c, 2, 76, 125
1, 95644, Note_on_c, 3, 58, 125
1, 95649, Note_off_c, 1, 79, 64
1, 95651, Note_off_c, 4, 55, 64
1, 95735, Note_on_c, 3, 64, 127
1, 95745, Note_off_c, 3, 58, 64
1, 95827, Note_on_c, 3, 58, 125
1, 95835, Note_off_c, 3, 64, 64
1, 95916, Note_on_c, 4, 55, 125
1, 95924, Note_off_c, 3, 58, 64
1, 95997, Note_off_c, 2, 76, 64
1, 96002, Note_on_c, 2, 72, 127
1, 96002, Note_on_c, 3, 58, 125
1, 96009, Note_off_c, 4, 55, 64
1, 96049, Note_on_c, 2, 70, 127
1, 96053, Note_off_c, 2, 72, 64
1, 96090, Note_on_c, 2, 69, 127
1, 96090, Note_on_c, 3, 64, 127
1, 96095, Note_off_c, 2, 70, 64
1, 96096, Note_off_c, 3, 58, 64
1, 96131, Note_on_c, 3, 67, 127
1, 96134, Note_off_c, 2, 69, 64
1, 96171, Note_off_c, 3, 64, 64
1, 96173, Note_on_c, 3, 65, 127
1, 96178, Note_off_c, 3, 67, 64
1, 96264, Note_on_c, 3, 64, 127
1, 96265, Note_on_c, 4, 43, 125
1, 96273, Note_off_c, 3, 65, 100
1, 96354, Note_off_c, 3, 64, 100
1, 96361, Note_on_c, 3, 64, 127
1, 96362, Note_on_c, 4, 46, 125
1, 96370, Note_off_c, 4, 43, 100
1, 96462, Note_on_c, 4, 52, 125
1, 96470, Note_off_c, 4, 46, 100
1, 96560, Note_on_c, 4, 46, 125
1, 96568, Note_off_c, 4, 52, 100
1, 96652, Note_on_c, 1, 79, 123
1, 96653, Note_on_c, 4, 43, 125
1, 96659, Note_off_c, 4, 46, 100
1, 96742, Note_off_c, 3, 64, 100
1, 96742, Note_on_c, 1, 81, 123
1, 96743, Note_on_c, 4, 46, 125
1, 96749, Note_off_c, 4, 43, 100
1, 96750, Note_off_c, 1, 79, 100
1, 96833, Note_on_c, 4, 52, 125
1, 96833, Note_on_c, 1, 82, 122
1, 96840, Note_off_c, 4, 46, 100
1, 96840, Note_off_c, 1, 81, 100
1, 96925, Note_on_c, 1, 84, 127
1, 96933, Note_off_c, 1, 82, 100
1, 97023, Note_off_c, 4, 52, 100
1, 97023, Note_on_c, 3, 57, 125
1, 97068, Note_off_c, 1, 84, 100
1, 97068, Note_on_c, 1, 81, 123
1, 97111, Note_on_c, 1, 78, 125
1, 97112, Note_on_c, 3, 60, 125
1, 97116, Note_off_c, 1, 81, 100
1, 97120, Note_off_c, 3, 57, 100
1, 97202, Note_on_c, 3, 63, 127
1, 97212, Note_off_c, 3, 60, 100
1, 97291, Note_on_c, 3, 60, 125
1, 97298, Note_off_c, 3, 63, 100
1, 97385, Note_off_c, 1, 78, 100
1, 97385, Note_on_c, 1, 79, 125
1, 97386, Note_on_c, 3, 57, 125
1, 97392, Note_off_c, 3, 60, 100
1, 97484, Note_on_c, 1, 82, 122
1, 97484, Note_on_c, 3, 60, 125
1, 97490, Note_off_c, 3, 57, 100
1, 97491, Note_off_c, 1, 79, 100
1, 97574, Note_on_c, 3, 63, 127
1, 97574, Note_on_c, 1, 84, 127
1, 97581, Note_off_c, 3, 60, 100
1, 97581, Note_off_c, 1, 82, 100
1, 97667, Note_on_c, 1, 86, 127
1, 97673, Note_off_c, 1, 84, 100
1, 97759, Note_off_c, 3, 63, 100
1, 97760, Note_on_c, 4, 46, 125
1, 97802, Note_off_c, 1, 86, 100
1, 97803, Note_on_c, 1, 82, 122
1, 97846, Note_on_c, 1, 79, 125
1, 97846, Note_on_c, 4, 50, 125
1, 97850, Note_off_c, 1, 82, 100
1, 97852, Note_off_c, 4, 46, 100
1, 97933, Note_on_c, 4, 55, 125
1, 97941, Note_off_c, 4, 50, 100
1, 98023, Note_off_c, 1, 79, 100
1, 98024, Note_on_c, 1, 82, 122
1, 98024, Note_on_c, 4, 53, 125
1, 98032, Note_off_c, 4, 55, 100
1, 98112, Note_off_c, 4, 53, 64
1, 98113, Note_on_c, 4, 51, 125
1, 98158, Note_off_c, 1, 82, 100
1, 98158, Note_on_c, 1, 79, 123
1, 98201, Note_on_c, 2, 76, 125
1, 98201, Note_on_c, 4, 55, 125
1, 98206, Note_off_c, 1, 79, 100
1, 98209, Note_off_c, 4, 51, 100
1, 98294, Note_on_c, 3, 58, 125
1, 98302, Note_off_c, 4, 55, 100
1, 98388, Note_off_c, 2, 76, 100
1, 98389, Note_on_c, 2, 77, 125
1, 98478, Note_off_c, 3, 58, 100
1, 98478, Note_on_c, 4, 50, 125
1, 98522, Note_off_c, 2, 77, 100
1, 98523, Note_on_c, 2, 74, 127
1, 98564, Note_on_c, 2, 71, 127
1, 98564, Note_on_c, 4, 53, 125
1, 98567, Note_off_c, 2, 74, 100
1, 98571, Note_off_c, 4, 50, 100
1, 98653, Note_on_c, 4, 56, 125
1, 98663, Note_off_c, 4, 53, 100
1, 98742, Note_on_c, 4, 53, 125
1, 98748, Note_off_c, 4, 56, 100
1, 98819, Note_off_c, 2, 71, 100
1, 98826, Note_on_c, 2, 71, 127
1, 98827, Note_on_c, 4, 50, 125
1, 98835, Note_off_c, 4, 53, 100
1, 98919, Note_off_c, 2, 71, 100
1, 98921, Note_on_c, 2, 71, 127
1, 98922, Note_on_c, 4, 53, 125
1, 98930, Note_off_c, 4, 50, 100
1, 99010, Note_off_c, 2, 71, 100
1, 99012, Note_on_c, 2, 71, 127
1, 99013, Note_on_c, 4, 56, 125
1, 99021, Note_off_c, 4, 53, 100
1, 99099, Note_off_c, 2, 71, 100
1, 99105, Note_on_c, 3, 57, 125
1, 99105, Note_on_c, 2, 72, 127
1, 99106, Note_on_c, 4, 48, 125
1, 99114, Note_off_c, 4, 56, 100
1, 99156, Note_on_c, 1, 81, 119
1, 99160, Note_off_c, 2, 72, 100
1, 99206, Note_on_c, 2, 77, 122
1, 99210, Note_off_c, 1, 81, 100
1, 99252, Note_on_c, 2, 72, 127
1, 99255, Note_off_c, 2, 77, 100
1, 99296, Note_on_c, 2, 69, 127
1, 99300, Note_off_c, 2, 72, 100
1, 99340, Note_on_c, 2, 77, 122
1, 99346, Note_off_c, 2, 69, 100
1, 99386, Note_on_c, 2, 72, 127
1, 99390, Note_off_c, 2, 77, 100
1, 99428, Note_on_c, 2, 69, 127
1, 99434, Note_off_c, 2, 72, 100
1, 99467, Note_off_c, 2, 69, 100
1, 99474, Note_off_c, 3, 57, 100
1, 99475, Note_on_c, 2, 72, 127
1, 99475, Note_on_c, 2, 69, 127
1, 99476, Note_on_c, 3, 60, 125
1, 99566, Note_on_c, 2, 70, 127
1, 99567, Note_on_c, 3, 67, 127
1, 99573, Note_off_c, 2, 69, 100
1, 99574, Note_off_c, 2, 72, 100
1, 99651, Note_off_c, 4, 48, 100
1, 99657, Note_on_c, 2, 69, 127
1, 99657, Note_on_c, 3, 65, 127
1, 99658, Note_on_c, 4, 48, 125
1, 99665, Note_off_c, 3, 67, 100
1, 99666, Note_off_c, 2, 70, 100
1, 99749, Note_on_c, 3, 67, 127
1, 99749, Note_on_c, 3, 64, 127
1, 99757, Note_off_c, 3, 65, 100
1, 99758, Note_off_c, 2, 69, 100
1, 99847, Note_off_c, 4, 48, 100
1, 99847, Note_off_c, 3, 60, 100
1, 99848, Note_on_c, 3, 65, 127
1, 99848, Note_on_c, 4, 53, 125
1, 99854, Note_off_c, 3, 64, 100
1, 99855, Note_off_c, 3, 67, 100
1, 99898, Note_on_c, 3, 60, 125
1, 99948, Note_on_c, 4, 56, 125
1, 99951, Note_off_c, 3, 60, 100
1, 99955, Note_off_c, 4, 53, 100
1, 99994, Note_on_c, 3, 60, 125
1, 100038, Note_on_c, 4, 53, 125
1, 100044, Note_off_c, 3, 60, 100
1, 100045, Note_off_c, 4, 56, 100
1, 100086, Note_on_c, 3, 60, 125
1, 100134, Note_on_c, 4, 56, 125
1, 100140, Note_off_c, 3, 60, 100
1, 100141, Note_off_c, 4, 53, 100
1, 100180, Note_on_c, 3, 60, 125
1, 100226, Note_on_c, 4, 53, 125
1, 100230, Note_off_c, 3, 60, 100
1, 100234, Note_off_c, 4, 56, 100
1, 100264, Note_off_c, 3, 65, 100
1, 100272, Note_on_c, 3, 65, 127
1, 100272, Note_on_c, 3, 60, 125
1, 100317, Note_on_c, 3, 67, 127
1, 100318, Note_on_c, 4, 56, 125
1, 100322, Note_off_c, 3, 60, 100
1, 100322, Note_off_c, 3, 65, 100
1, 100325, Note_off_c, 4, 53, 100
1, 100361, Note_on_c, 2, 68, 127
1, 100362, Note_on_c, 3, 60, 125
1, 100367, Note_off_c, 3, 67, 100
1, 100406, Note_on_c, 2, 70, 127
1, 100407, Note_on_c, 4, 53, 125
1, 100409, Note_off_c, 3, 60, 100
1, 100410, Note_off_c, 2, 68, 100
1, 100412, Note_off_c, 4, 56, 100
1, 100449, Note_on_c, 2, 72, 127
1, 100449, Note_on_c, 3, 60, 125
1, 100453, Note_off_c, 2, 70, 100
1, 100494, Note_on_c, 4, 56, 125
1, 100494, Note_on_c, 2, 74, 127
1, 100497, Note_off_c, 3, 60, 100
1, 100497, Note_off_c, 2, 72, 100
1, 100500, Note_off_c, 4, 53, 100
1, 100534, Note_on_c, 2, 76, 125
1, 100535, Note_on_c, 3, 60, 125
1, 100539, Note_off_c, 2, 74, 100
1, 100578, Note_on_c, 2, 77, 125
1, 100578, Note_on_c, 4, 53, 125
1, 100582, Note_off_c, 3, 60, 100
1, 100583, Note_off_c, 2, 76, 100
1, 100585, Note_off_c, 4, 56, 100
1, 100622, Note_on_c, 2, 72, 127
1, 100622, Note_on_c, 3, 60, 125
1, 100626, Note_off_c, 2, 77, 100
1, 100665, Note_on_c, 1, 80, 125
1, 100665, Note_on_c, 4, 56, 125
1, 100668, Note_off_c, 3, 60, 100
1, 100668, Note_off_c, 2, 72, 100
1, 100670, Note_off_c, 4, 53, 100
1, 100707, Note_on_c, 1, 79, 125
1, 100708, Note_on_c, 3, 60, 125
1, 100712, Note_off_c, 1, 80, 100
1, 100750, Note_on_c, 2, 77, 125
1, 100751, Note_on_c, 4, 53, 125
1, 100755, Note_off_c, 3, 60, 100
1, 100755, Note_off_c, 1, 79, 100
1, 100758, Note_off_c, 4, 56, 100
1, 100795, Note_on_c, 2, 72, 127
1, 100795, Note_on_c, 3, 60, 125
1, 100799, Note_off_c, 2, 77, 100
1, 100842, Note_on_c, 1, 80, 125
1, 100842, Note_on_c, 4, 56, 125
1, 100844, Note_off_c, 3, 60, 100
1, 100845, Note_off_c, 2, 72, 100
1, 100848, Note_off_c, 4, 53, 100
1, 100886, Note_on_c, 1, 79, 125
1, 100886, Note_on_c, 3, 60, 125
1, 100890, Note_off_c, 1, 80, 100
1, 100929, Note_on_c, 2, 77, 125
1, 100930, Note_on_c, 4, 53, 125
1, 100933, Note_off_c, 3, 60, 100
1, 100934, Note_off_c, 1, 79, 100
1, 100937, Note_off_c, 4, 56, 100
1, 100973, Note_on_c, 1, 79, 125
1, 100974, Note_on_c, 3, 60, 125
1, 100978, Note_off_c, 2, 77, 100
1, 101016, Note_on_c, 2, 75, 127
1, 101017, Note_on_c, 4, 56, 125
1, 101021, Note_off_c, 3, 60, 100
1, 101021, Note_off_c, 1, 79, 100
1, 101024, Note_off_c, 4, 53, 100
1, 101063, Note_on_c, 2, 77, 125
1, 101063, Note_on_c, 3, 60, 125
1, 101065, Note_off_c, 2, 75, 100
1, 101106, Note_on_c, 2, 74, 127
1, 101106, Note_on_c, 4, 53, 125
1, 101109, Note_off_c, 3, 60, 100
1, 101109, Note_off_c, 2, 77, 100
1, 101112, Note_off_c, 4, 56, 100
1, 101148, Note_on_c, 2, 75, 127
1, 101148, Note_on_c, 3, 60, 125
1, 101152, Note_off_c, 2, 74, 100
1, 101193, Note_on_c, 2, 72, 127
1, 101194, Note_on_c, 4, 56, 125
1, 101197, Note_off_c, 3, 60, 100
1, 101198, Note_off_c, 2, 75, 100
1, 101201, Note_off_c, 4, 53, 100
1, 101235, Note_on_c, 2, 74, 127
1, 101236, Note_on_c, 3, 60, 125
1, 101240, Note_off_c, 2, 72, 100
1, 101280, Note_on_c, 2, 71, 127
1, 101281, Note_on_c, 4, 55, 125
1, 101285, Note_off_c, 2, 74, 100
1, 101287, Note_off_c, 4, 56, 100
1, 101331, Note_on_c, 3, 65, 127
1, 101339, Note_off_c, 3, 60, 100
1, 101345, Note_off_c, 2, 71, 100
1, 101376, Note_on_c, 1, 89, 126
1, 101376, Note_on_c, 3, 62, 127
1, 101380, Note_off_c, 3, 65, 100
1, 101382, Note_off_c, 4, 55, 100
1, 101423, Note_on_c, 3, 65, 127
1, 101471, Note_on_c, 4, 55, 125
1, 101474, Note_off_c, 3, 65, 100
1, 101478, Note_off_c, 3, 62, 100
1, 101519, Note_on_c, 3, 65, 127
1, 101557, Note_off_c, 1, 89, 100
1, 101565, Note_on_c, 1, 89, 126
1, 101565, Note_on_c, 3, 62, 127
1, 101569, Note_off_c, 3, 65, 100
1, 101571, Note_off_c, 4, 55, 100
1, 101612, Note_on_c, 3, 65, 127
1, 101660, Note_on_c, 4, 55, 125
1, 101665, Note_off_c, 3, 65, 100
1, 101667, Note_off_c, 3, 62, 100
1, 101706, Note_on_c, 3, 65, 127
1, 101743, Note_off_c, 1, 89, 100
1, 101751, Note_on_c, 1, 86, 127
1, 101751, Note_on_c, 3, 62, 127
1, 101756, Note_off_c, 3, 65, 100
1, 101760, Note_off_c, 4, 55, 100
1, 101794, Note_on_c, 3, 65, 127
1, 101840, Note_on_c, 4, 55, 125
1, 101846, Note_off_c, 3, 65, 100
1, 101848, Note_off_c, 3, 62, 100
1, 101884, Note_on_c, 3, 65, 127
1, 101927, Note_off_c, 1, 86, 100
1, 101927, Note_on_c, 1, 84, 127
1, 101928, Note_on_c, 3, 62, 127
1, 101929, Note_off_c, 3, 65, 100
1, 101933, Note_off_c, 4, 55, 100
1, 101972, Note_on_c, 3, 65, 127
1, 102008, Note_off_c, 1, 84, 100
1, 102016, Note_on_c, 1, 84, 127
1, 102016, Note_on_c, 4, 55, 125
1, 102021, Note_off_c, 3, 65, 100
1, 102023, Note_off_c, 3, 62, 100
1, 102063, Note_on_c, 3, 65, 127
1, 102111, Note_on_c, 1, 83, 122
1, 102111, Note_on_c, 3, 62, 127
1, 102116, Note_off_c, 3, 65, 100
1, 102120, Note_off_c, 4, 55, 100
1, 102120, Note_off_c, 1, 84, 100
1, 102155, Note_on_c, 3, 65, 127
1, 102203, Note_on_c, 4, 55, 125
1, 102207, Note_off_c, 3, 65, 100
1, 102211, Note_off_c, 3, 62, 100
1, 102247, Note_on_c, 3, 65, 127
1, 102292, Note_off_c, 1, 83, 100
1, 102292, Note_on_c, 1, 80, 123
1, 102293, Note_on_c, 3, 62, 127
1, 102297, Note_off_c, 3, 65, 100
1, 102301, Note_off_c, 4, 55, 100
1, 102337, Note_on_c, 3, 65, 127
1, 102341, Note_off_c, 3, 62, 100
1, 102382, Note_on_c, 4, 55, 125
1, 102426, Note_on_c, 3, 62, 127
1, 102432, Note_off_c, 3, 65, 100
1, 102470, Note_off_c, 1, 80, 100
1, 102470, Note_on_c, 1, 79, 123
1, 102471, Note_on_c, 3, 59, 125
1, 102475, Note_off_c, 3, 62, 100
1, 102477, Note_off_c, 4, 55, 100
1, 102514, Note_on_c, 3, 62, 127
1, 102518, Note_off_c, 3, 59, 100
1, 102556, Note_on_c, 4, 55, 125
1, 102560, Note_off_c, 3, 62, 100
1, 102599, Note_on_c, 3, 62, 127
1, 102641, Note_off_c, 1, 79, 100
1, 102641, Note_on_c, 2, 77, 125
1, 102642, Note_on_c, 3, 59, 125
1, 102644, Note_off_c, 3, 62, 100
1, 102648, Note_off_c, 4, 55, 100
1, 102682, Note_on_c, 3, 62, 127
1, 102686, Note_off_c, 3, 59, 100
1, 102719, Note_off_c, 2, 77, 100
1, 102726, Note_on_c, 2, 77, 125
1, 102727, Note_on_c, 4, 55, 125
1, 102731, Note_off_c, 3, 62, 100
1, 102769, Note_on_c, 3, 64, 127
1, 102812, Note_on_c, 2, 76, 125
1, 102812, Note_on_c, 3, 60, 125
1, 102816, Note_off_c, 3, 64, 100
1, 102820, Note_off_c, 4, 55, 100
1, 102821, Note_off_c, 2, 77, 100
1, 102854, Note_on_c, 3, 64, 127
1, 102858, Note_off_c, 3, 60, 100
1, 102896, Note_on_c, 2, 75, 127
1, 102897, Note_on_c, 4, 55, 125
1, 102901, Note_off_c, 3, 64, 100
1, 102903, Note_off_c, 2, 76, 100
1, 102937, Note_on_c, 3, 63, 127
1, 102980, Note_on_c, 3, 60, 125
1, 102985, Note_off_c, 3, 63, 100
1, 102988, Note_off_c, 4, 55, 100
1, 103024, Note_on_c, 3, 63, 127
1, 103028, Note_off_c, 3, 60, 100
1, 103070, Note_on_c, 4, 55, 125
1, 103074, Note_off_c, 3, 63, 100
1, 103099, Note_off_c, 2, 75, 100
1, 103113, Note_on_c, 2, 75, 127
1, 103113, Note_on_c, 3, 63, 127
1, 103158, Note_on_c, 2, 74, 127
1, 103158, Note_on_c, 3, 60, 125
1, 103163, Note_off_c, 3, 63, 100
1, 103163, Note_off_c, 2, 75, 100
1, 103165, Note_off_c, 4, 55, 100
1, 103200, Note_on_c, 2, 75, 127
1, 103200, Note_on_c, 3, 63, 127
1, 103204, Note_off_c, 3, 60, 100
1, 103205, Note_off_c, 2, 74, 100
1, 103242, Note_on_c, 2, 77, 125
1, 103243, Note_on_c, 4, 55, 125
1, 103247, Note_off_c, 3, 63, 100
1, 103247, Note_off_c, 2, 75, 100
1, 103288, Note_on_c, 2, 75, 127
1, 103289, Note_on_c, 3, 63, 127
1, 103293, Note_off_c, 2, 77, 100
1, 103332, Note_on_c, 2, 74, 127
1, 103332, Note_on_c, 3, 60, 125
1, 103334, Note_off_c, 3, 63, 100
1, 103334, Note_off_c, 2, 75, 100
1, 103337, Note_off_c, 4, 55, 100
1, 103376, Note_on_c, 2, 75, 127
1, 103376, Note_on_c, 3, 63, 127
1, 103378, Note_off_c, 3, 60, 100
1, 103379, Note_off_c, 2, 74, 100
1, 103416, Note_on_c, 1, 78, 123
1, 103416, Note_on_c, 4, 54, 125
1, 103420, Note_off_c, 3, 63, 100
1, 103421, Note_off_c, 2, 75, 100
1, 103464, Note_on_c, 3, 63, 127
1, 103510, Note_on_c, 3, 58, 125
1, 103513, Note_off_c, 3, 63, 100
1, 103518, Note_off_c, 4, 54, 100
1, 103554, Note_off_c, 1, 78, 100
1, 103555, Note_on_c, 2, 75, 127
1, 103555, Note_on_c, 3, 63, 127
1, 103558, Note_off_c, 3, 58, 100
1, 103592, Note_off_c, 2, 75, 100
1, 103597, Note_on_c, 2, 75, 127
1, 103598, Note_on_c, 4, 54, 125
1, 103602, Note_off_c, 3, 63, 100
1, 103643, Note_on_c, 3, 63, 127
1, 103686, Note_on_c, 3, 58, 125
1, 103690, Note_off_c, 3, 63, 100
1, 103693, Note_off_c, 4, 54, 100
1, 103722, Note_off_c, 2, 75, 100
1, 103730, Note_on_c, 2, 74, 127
1, 103730, Note_on_c, 3, 63, 127
1, 103734, Note_off_c, 3, 58, 100
1, 103752, Note_on_c, 2, 75, 127
1, 103754, Note_off_c, 2, 74, 100
1, 103775, Note_on_c, 1, 82, 122
1, 103776, Note_on_c, 4, 54, 125
1, 103779, Note_off_c, 3, 63, 100
1, 103791, Note_off_c, 2, 75, 100
1, 103822, Note_on_c, 3, 63, 127
1, 103868, Note_on_c, 3, 58, 125
1, 103872, Note_off_c, 3, 63, 100
1, 103876, Note_off_c, 4, 54, 100
1, 103914, Note_off_c, 1, 82, 100
1, 103915, Note_on_c, 2, 75, 127
1, 103915, Note_on_c, 3, 63, 127
1, 103919, Note_off_c, 3, 58, 100
1, 103954, Note_off_c, 2, 75, 100
1, 103960, Note_on_c, 2, 75, 127
1, 103961, Note_on_c, 4, 54, 125
1, 103965, Note_off_c, 3, 63, 100
1, 104007, Note_on_c, 3, 63, 127
1, 104053, Note_on_c, 3, 58, 125
1, 104057, Note_off_c, 3, 63, 100
1, 104061, Note_off_c, 4, 54, 100
1, 104084, Note_off_c, 2, 75, 100
1, 104100, Note_on_c, 2, 74, 127
1, 104100, Note_on_c, 3, 63, 127
1, 104106, Note_off_c, 3, 58, 100
1, 104125, Note_on_c, 2, 75, 127
1, 104129, Note_off_c, 2, 74, 100
1, 104150, Note_on_c, 1, 81, 123
1, 104151, Note_on_c, 4, 53, 125
1, 104153, Note_off_c, 2, 75, 100
1, 104155, Note_off_c, 3, 63, 100
1, 104197, Note_on_c, 3, 63, 127
1, 104242, Note_on_c, 1, 84, 127
1, 104242, Note_on_c, 3, 60, 125
1, 104246, Note_off_c, 3, 63, 100
1, 104248, Note_off_c, 4, 53, 100
1, 104249, Note_off_c, 1, 81, 100
1, 104284, Note_on_c, 3, 63, 127
1, 104290, Note_off_c, 3, 60, 100
1, 104330, Note_on_c, 1, 87, 126
1, 104330, Note_on_c, 4, 53, 125
1, 104335, Note_off_c, 3, 63, 100
1, 104339, Note_off_c, 1, 84, 100
1, 104377, Note_on_c, 3, 63, 127
1, 104419, Note_on_c, 3, 60, 125
1, 104423, Note_off_c, 3, 63, 100
1, 104425, Note_off_c, 4, 53, 100
1, 104463, Note_on_c, 3, 63, 127
1, 104469, Note_off_c, 3, 60, 100
1, 104504, Note_off_c, 1, 87, 100
1, 104509, Note_on_c, 1, 87, 126
1, 104510, Note_on_c, 4, 53, 125
1, 104514, Note_off_c, 3, 63, 100
1, 104556, Note_on_c, 1, 89, 126
1, 104557, Note_on_c, 3, 63, 127
1, 104561, Note_off_c, 1, 87, 100
1, 104600, Note_on_c, 1, 86, 127
1, 104600, Note_on_c, 3, 60, 125
1, 104604, Note_off_c, 3, 63, 100
1, 104605, Note_off_c, 1, 89, 100
1, 104607, Note_off_c, 4, 53, 100
1, 104646, Note_on_c, 1, 87, 126
1, 104646, Note_on_c, 3, 63, 127
1, 104651, Note_off_c, 3, 60, 100
1, 104651, Note_off_c, 1, 86, 100
1, 104690, Note_on_c, 1, 84, 127
1, 104690, Note_on_c, 4, 53, 125
1, 104695, Note_off_c, 3, 63, 100
1, 104695, Note_off_c, 1, 87, 100
1, 104736, Note_on_c, 1, 86, 127
1, 104736, Note_on_c, 3, 63, 127
1, 104741, Note_off_c, 1, 84, 100
1, 104779, Note_on_c, 1, 82, 122
1, 104780, Note_on_c, 3, 60, 125
1, 104784, Note_off_c, 3, 63, 100
1, 104784, Note_off_c, 1, 86, 100
1, 104787, Note_off_c, 4, 53, 100
1, 104825, Note_on_c, 1, 84, 127
1, 104826, Note_on_c, 3, 63, 127
1, 104830, Note_off_c, 3, 60, 100
1, 104831, Note_off_c, 1, 82, 100
1, 104868, Note_on_c, 1, 81, 123
1, 104868, Note_on_c, 4, 53, 125
1, 104872, Note_off_c, 3, 63, 100
1, 104873, Note_off_c, 1, 84, 100
1, 104914, Note_on_c, 1, 82, 122
1, 104914, Note_on_c, 3, 63, 127
1, 104918, Note_off_c, 1, 81, 100
1, 104959, Note_on_c, 1, 84, 127
1, 104959, Note_on_c, 3, 60, 125
1, 104962, Note_off_c, 3, 63, 100
1, 104962, Note_off_c, 1, 82, 100
1, 104964, Note_off_c, 4, 53, 100
1, 105005, Note_on_c, 1, 82, 122
1, 105005, Note_on_c, 3, 63, 127
1, 105008, Note_off_c, 3, 60, 100
1, 105009, Note_off_c, 1, 84, 100
1, 105048, Note_on_c, 4, 53, 125
1, 105048, Note_on_c, 1, 81, 123
1, 105053, Note_off_c, 3, 63, 100
1, 105053, Note_off_c, 1, 82, 100
1, 105094, Note_on_c, 1, 82, 122
1, 105095, Note_on_c, 3, 63, 127
1, 105097, Note_off_c, 1, 81, 100
1, 105135, Note_on_c, 1, 84, 127
1, 105136, Note_on_c, 3, 60, 125
1, 105141, Note_off_c, 1, 82, 100
1, 105141, Note_off_c, 3, 63, 100
1, 105143, Note_off_c, 4, 53, 100
1, 105178, Note_on_c, 1, 86, 127
1, 105178, Note_on_c, 3, 63, 127
1, 105182, Note_off_c, 3, 60, 100
1, 105183, Note_off_c, 1, 84, 100
1, 105218, Note_on_c, 1, 87, 126
1, 105219, Note_on_c, 4, 53, 125
1, 105223, Note_off_c, 3, 63, 100
1, 105223, Note_off_c, 1, 86, 100
1, 105264, Note_on_c, 1, 86, 127
1, 105265, Note_on_c, 3, 60, 125
1, 105269, Note_off_c, 1, 87, 100
1, 105305, Note_on_c, 1, 84, 127
1, 105306, Note_on_c, 3, 57, 125
1, 105310, Note_off_c, 3, 60, 100
1, 105311, Note_off_c, 1, 86, 100
1, 105311, Note_off_c, 4, 53, 100
1, 105346, Note_on_c, 1, 82, 122
1, 105346, Note_on_c, 3, 60, 125
1, 105351, Note_off_c, 3, 57, 100
1, 105351, Note_off_c, 1, 84, 100
1, 105388, Note_on_c, 1, 81, 123
1, 105388, Note_on_c, 4, 53, 125
1, 105393, Note_off_c, 3, 60, 100
1, 105393, Note_off_c, 1, 82, 100
1, 105428, Note_on_c, 1, 79, 123
1, 105429, Note_on_c, 3, 60, 125
1, 105433, Note_off_c, 1, 81, 100
1, 105471, Note_on_c, 2, 77, 125
1, 105472, Note_on_c, 3, 58, 125
1, 105474, Note_off_c, 3, 60, 100
1, 105475, Note_off_c, 1, 79, 100
1, 105479, Note_off_c, 4, 53, 100
1, 105516, Note_on_c, 2, 75, 127
1, 105516, Note_on_c, 3, 60, 125
1, 105520, Note_off_c, 3, 58, 100
1, 105521, Note_off_c, 2, 77, 100
1, 105555, Note_off_c, 2, 75, 100
1, 105563, Note_on_c, 2, 75, 127
1, 105564, Note_on_c, 4, 54, 125
1, 105567, Note_off_c, 3, 60, 100
1, 105612, Note_on_c, 3, 60, 125
1, 105656, Note_on_c, 2, 74, 127
1, 105656, Note_on_c, 3, 57, 125
1, 105659, Note_off_c, 3, 60, 100
1, 105663, Note_off_c, 2, 75, 100
1, 105663, Note_off_c, 4, 54, 100
1, 105698, Note_on_c, 3, 60, 125
1, 105704, Note_off_c, 3, 57, 100
1, 105737, Note_off_c, 2, 74, 100
1, 105744, Note_on_c, 2, 74, 127
1, 105745, Note_on_c, 4, 54, 125
1, 105749, Note_off_c, 3, 60, 100
1, 105792, Note_on_c, 3, 60, 125
1, 105836, Note_on_c, 3, 57, 125
1, 105839, Note_off_c, 3, 60, 100
1, 105843, Note_off_c, 4, 54, 100
1, 105882, Note_on_c, 3, 60, 125
1, 105887, Note_off_c, 3, 57, 100
1, 105927, Note_on_c, 4, 54, 125
1, 105930, Note_off_c, 3, 60, 100
1, 105969, Note_on_c, 3, 60, 125
1, 106009, Note_off_c, 2, 74, 100
1, 106017, Note_on_c, 2, 74, 127
1, 106018, Note_on_c, 3, 57, 125
1, 106021, Note_off_c, 3, 60, 100
1, 106024, Note_off_c, 4, 54, 100
1, 106064, Note_on_c, 3, 60, 125
1, 106068, Note_off_c, 3, 57, 100
1, 106112, Note_on_c, 1, 86, 127
1, 106113, Note_on_c, 4, 54, 125
1, 106117, Note_off_c, 3, 60, 100
1, 106119, Note_off_c, 2, 74, 100
1, 106159, Note_on_c, 3, 60, 125
1, 106203, Note_on_c, 1, 84, 127
1, 106204, Note_on_c, 3, 57, 125
1, 106208, Note_off_c, 3, 60, 100
1, 106210, Note_off_c, 4, 54, 100
1, 106211, Note_off_c, 1, 86, 100
1, 106248, Note_on_c, 3, 60, 125
1, 106252, Note_off_c, 3, 57, 100
1, 106287, Note_off_c, 1, 84, 100
1, 106295, Note_on_c, 1, 84, 127
1, 106295, Note_on_c, 4, 55, 125
1, 106299, Note_off_c, 3, 60, 100
1, 106345, Note_on_c, 3, 62, 127
1, 106392, Note_on_c, 1, 82, 122
1, 106392, Note_on_c, 3, 58, 125
1, 106396, Note_off_c, 3, 62, 100
1, 106398, Note_off_c, 4, 55, 100
1, 106399, Note_off_c, 1, 84, 100
1, 106434, Note_on_c, 3, 62, 127
1, 106438, Note_off_c, 3, 58, 100
1, 106476, Note_on_c, 4, 53, 125
1, 106482, Note_off_c, 3, 62, 100
1, 106522, Note_on_c, 3, 62, 127
1, 106565, Note_off_c, 1, 82, 100
1, 106565, Note_on_c, 1, 81, 123
1, 106566, Note_on_c, 3, 58, 125
1, 106570, Note_off_c, 3, 62, 100
1, 106572, Note_off_c, 4, 53, 100
1, 106610, Note_on_c, 3, 62, 127
1, 106616, Note_off_c, 3, 58, 100
1, 106649, Note_off_c, 1, 81, 100
1, 106656, Note_on_c, 1, 81, 123
1, 106657, Note_on_c, 4, 52, 125
1, 106661, Note_off_c, 3, 62, 100
1, 106704, Note_on_c, 1, 79, 123
1, 106704, Note_on_c, 3, 62, 127
1, 106708, Note_off_c, 1, 81, 100
1, 106747, Note_on_c, 1, 82, 122
1, 106747, Note_on_c, 3, 58, 125
1, 106750, Note_off_c, 3, 62, 100
1, 106750, Note_off_c, 1, 79, 100
1, 106752, Note_off_c, 4, 52, 100
1, 106787, Note_on_c, 1, 81, 123
1, 106788, Note_on_c, 3, 62, 127
1, 106792, Note_off_c, 3, 58, 100
1, 106792, Note_off_c, 1, 82, 100
1, 106833, Note_on_c, 1, 84, 127
1, 106834, Note_on_c, 4, 51, 125
1, 106836, Note_off_c, 1, 81, 100
1, 106836, Note_off_c, 3, 62, 100
1, 106875, Note_on_c, 1, 82, 122
1, 106876, Note_on_c, 3, 63, 127
1, 106880, Note_off_c, 1, 84, 100
1, 106919, Note_on_c, 1, 81, 123
1, 106919, Note_on_c, 3, 58, 125
1, 106923, Note_off_c, 3, 63, 100
1, 106924, Note_off_c, 1, 82, 100
1, 106926, Note_off_c, 4, 51, 100
1, 106965, Note_on_c, 1, 79, 123
1, 106965, Note_on_c, 3, 63, 127
1, 106968, Note_off_c, 3, 58, 100
1, 106968, Note_off_c, 1, 81, 100
1, 107007, Note_off_c, 3, 63, 100
1, 107007, Note_off_c, 1, 79, 100
1, 107010, Note_on_c, 3, 62, 127
1, 107010, Note_on_c, 1, 78, 123
1, 107011, Note_on_c, 4, 50, 125
1, 107055, Note_on_c, 2, 74, 126
1, 107059, Note_off_c, 1, 78, 100
1, 107101, Note_on_c, 1, 86, 125
1, 107105, Note_off_c, 2, 74, 100
1, 107149, Note_on_c, 1, 85, 123
1, 107153, Note_off_c, 1, 86, 100
1, 107191, Note_on_c, 1, 86, 125
1, 107197, Note_off_c, 1, 85, 100
1, 107237, Note_on_c, 1, 85, 123
1, 107241, Note_off_c, 1, 86, 100
1, 107280, Note_on_c, 1, 86, 125
1, 107285, Note_off_c, 1, 85, 100
1, 107326, Note_on_c, 1, 85, 123
1, 107329, Note_off_c, 1, 86, 100
1, 107370, Note_on_c, 1, 86, 125
1, 107374, Note_off_c, 1, 85, 100
1, 107416, Note_on_c, 1, 87, 122
1, 107420, Note_off_c, 1, 86, 100
1, 107460, Note_on_c, 1, 85, 123
1, 107466, Note_off_c, 1, 87, 100
1, 107504, Note_on_c, 1, 86, 125
1, 107508, Note_off_c, 1, 85, 100
1, 107535, Note_off_c, 3, 62, 100
1, 107550, Note_on_c, 1, 82, 118
1, 107551, Note_on_c, 3, 66, 127
1, 107551, Note_on_c, 3, 62, 127
1, 107553, Note_off_c, 1, 86, 100
1, 107596, Note_on_c, 1, 85, 123
1, 107599, Note_off_c, 1, 82, 100
1, 107638, Note_on_c, 1, 81, 119
1, 107643, Note_off_c, 1, 85, 100
1, 107684, Note_on_c, 1, 82, 118
1, 107688, Note_off_c, 1, 81, 100
1, 107728, Note_off_c, 3, 62, 100
1, 107728, Note_off_c, 3, 66, 100
1, 107729, Note_on_c, 3, 67, 127
1, 107729, Note_on_c, 1, 79, 119
1, 107730, Note_on_c, 3, 64, 127
1, 107732, Note_off_c, 1, 82, 100
1, 107771, Note_on_c, 1, 81, 119
1, 107776, Note_off_c, 1, 79, 100
1, 107815, Note_on_c, 2, 77, 122
1, 107818, Note_off_c, 1, 81, 100
1, 107857, Note_on_c, 1, 79, 119
1, 107862, Note_off_c, 2, 77, 100
1, 107903, Note_on_c, 2, 75, 124
1, 107906, Note_off_c, 1, 79, 100
1, 107947, Note_on_c, 2, 77, 122
1, 107952, Note_off_c, 2, 75, 100
1, 107991, Note_on_c, 2, 74, 126
1, 107996, Note_off_c, 2, 77, 100
1, 108036, Note_on_c, 2, 75, 124
1, 108042, Note_off_c, 2, 74, 100
1, 108081, Note_on_c, 2, 72, 127
1, 108084, Note_off_c, 2, 75, 100
1, 108169, Note_on_c, 1, 82, 118
1, 108177, Note_off_c, 2, 72, 100
1, 108259, Note_off_c, 3, 64, 100
1, 108260, Note_off_c, 3, 67, 100
1, 108260, Note_on_c, 1, 81, 119
1, 108261, Note_on_c, 3, 61, 125
1, 108261, Note_on_c, 4, 51, 125
1, 108267, Note_off_c, 1, 82, 100
1, 108275, Note_off_c, 4, 50, 100
1, 108348, Note_on_c, 1, 79, 119
1, 108354, Note_off_c, 1, 81, 100
1, 108439, Note_off_c, 4, 51, 100
1, 108439, Note_off_c, 3, 61, 100
1, 108440, Note_on_c, 3, 62, 127
1, 108440, Note_on_c, 1, 78, 119
1, 108441, Note_on_c, 4, 50, 125
1, 108446, Note_off_c, 1, 79, 100
1, 108487, Note_on_c, 2, 73, 127
1, 108490, Note_off_c, 1, 78, 100
1, 108531, Note_on_c, 2, 74, 126
1, 108536, Note_off_c, 2, 73, 100
1, 108581, Note_on_c, 2, 73, 127
1, 108585, Note_off_c, 2, 74, 100
1, 108627, Note_on_c, 2, 74, 126
1, 108631, Note_off_c, 2, 73, 100
1, 108669, Note_on_c, 2, 73, 127
1, 108673, Note_off_c, 2, 74, 100
1, 108713, Note_on_c, 2, 75, 124
1, 108719, Note_off_c, 2, 73, 100
1, 108761, Note_on_c, 2, 73, 127
1, 108765, Note_off_c, 2, 75, 100
1, 108805, Note_on_c, 2, 74, 126
1, 108809, Note_off_c, 2, 73, 100
1, 108852, Note_on_c, 2, 75, 124
1, 108855, Note_off_c, 2, 74, 100
1, 108894, Note_on_c, 2, 72, 127
1, 108900, Note_off_c, 2, 75, 100
1, 108940, Note_on_c, 2, 74, 126
1, 108946, Note_off_c, 2, 72, 100
1, 108976, Note_off_c, 4, 50, 100
1, 108984, Note_off_c, 3, 62, 100
1, 108984, Note_on_c, 2, 70, 127
1, 108985, Note_on_c, 3, 60, 125
1, 108985, Note_on_c, 4, 50, 125
1, 108988, Note_off_c, 2, 74, 100
1, 109030, Note_on_c, 2, 72, 127
1, 109034, Note_off_c, 2, 70, 100
1, 109072, Note_on_c, 2, 69, 127
1, 109076, Note_off_c, 2, 72, 100
1, 109118, Note_on_c, 2, 72, 127
1, 109122, Note_off_c, 2, 69, 100
1, 109159, Note_off_c, 4, 50, 100
1, 109159, Note_off_c, 3, 60, 100
1, 109160, Note_on_c, 3, 58, 125
1, 109160, Note_on_c, 3, 67, 127
1, 109161, Note_on_c, 4, 51, 125
1, 109163, Note_off_c, 2, 72, 100
1, 109205, Note_on_c, 2, 69, 127
1, 109209, Note_off_c, 3, 67, 100
1, 109245, Note_on_c, 3, 65, 127
1, 109249, Note_off_c, 2, 69, 100
1, 109289, Note_on_c, 3, 67, 127
1, 109293, Note_off_c, 3, 65, 100
1, 109332, Note_on_c, 3, 63, 127
1, 109335, Note_off_c, 3, 67, 100
1, 109376, Note_on_c, 3, 65, 127
1, 109380, Note_off_c, 3, 63, 100
1, 109418, Note_on_c, 3, 62, 127
1, 109422, Note_off_c, 3, 65, 100
1, 109462, Note_on_c, 3, 63, 127
1, 109468, Note_off_c, 3, 62, 100
1, 109506, Note_on_c, 3, 61, 125
1, 109512, Note_off_c, 3, 63, 100
1, 109598, Note_on_c, 3, 67, 127
1, 109606, Note_off_c, 3, 61, 100
1, 109675, Note_off_c, 4, 51, 100
1, 109683, Note_off_c, 3, 58, 100
1, 109683, Note_on_c, 2, 70, 127
1, 109684, Note_on_c, 4, 55, 125
1, 109684, Note_on_c, 4, 51, 125
1, 109691, Note_off_c, 3, 67, 100
1, 109773, Note_on_c, 3, 61, 125
1, 109783, Note_off_c, 2, 70, 100
1, 109869, Note_off_c, 4, 51, 100
1, 109870, Note_off_c, 4, 55, 100
1, 109870, Note_on_c, 3, 62, 127
1, 109871, Note_on_c, 4, 54, 125
1, 109871, Note_on_c, 4, 50, 125
1, 109875, Note_off_c, 3, 61, 100
1, 109960, Note_on_c, 2, 74, 127
1, 109968, Note_off_c, 3, 62, 100
1, 110047, Note_off_c, 4, 50, 100
1, 110054, Note_off_c, 4, 54, 100
1, 110055, Note_on_c, 3, 58, 125
1, 110055, Note_on_c, 4, 55, 125
1, 110056, Note_on_c, 4, 50, 125
1, 110139, Note_off_c, 2, 74, 100
1, 110143, Note_on_c, 2, 74, 127
1, 110226, Note_off_c, 4, 50, 100
1, 110233, Note_off_c, 4, 55, 100
1, 110234, Note_off_c, 3, 58, 100
1, 110234, Note_on_c, 3, 57, 125
1, 110234, Note_on_c, 4, 54, 125
1, 110235, Note_on_c, 4, 50, 125
1, 110322, Note_off_c, 2, 74, 100
1, 110327, Note_on_c, 2, 74, 127
1, 110413, Note_off_c, 4, 50, 100
1, 110421, Note_off_c, 4, 54, 100
1, 110421, Note_off_c, 3, 57, 100
1, 110422, Note_on_c, 3, 58, 125
1, 110422, Note_on_c, 4, 55, 125
1, 110423, Note_on_c, 4, 50, 125
1, 110504, Note_off_c, 2, 74, 100
1, 110508, Note_on_c, 2, 74, 127
1, 110587, Note_off_c, 4, 50, 100
1, 110596, Note_off_c, 4, 55, 100
1, 110597, Note_off_c, 3, 58, 100
1, 110597, Note_on_c, 3, 57, 125
1, 110597, Note_on_c, 4, 54, 125
1, 110598, Note_on_c, 4, 50, 125
1, 110680, Note_off_c, 2, 74, 100
1, 110685, Note_on_c, 2, 74, 126
1, 110775, Note_on_c, 2, 73, 127
1, 110783, Note_off_c, 2, 74, 100
1, 110867, Note_on_c, 2, 74, 126
1, 110875, Note_off_c, 2, 73, 100
1, 110955, Note_on_c, 2, 73, 127
1, 110963, Note_off_c, 2, 74, 100
1, 111042, Note_on_c, 2, 74, 126
1, 111049, Note_off_c, 2, 73, 100
1, 111128, Note_on_c, 2, 73, 127
1, 111136, Note_off_c, 2, 74, 100
1, 111216, Note_on_c, 2, 74, 126
1, 111222, Note_off_c, 2, 73, 100
1, 111303, Note_on_c, 2, 77, 122
1, 111311, Note_off_c, 2, 74, 100
1, 111399, Note_off_c, 4, 54, 100
1, 111399, Note_off_c, 4, 50, 100
1, 111400, Note_off_c, 3, 57, 100
1, 111400, Note_on_c, 2, 69, 127
1, 111401, Note_on_c, 3, 65, 127
1, 111401, Note_on_c, 3, 60, 125
1, 111456, Note_off_c, 2, 77, 100
1, 111480, Note_off_c, 3, 60, 100
1, 111481, Note_off_c, 3, 65, 100
1, 111481, Note_off_c, 2, 69, 100
1, 111485, Note_on_c, 2, 75, 124
1, 111486, Note_on_c, 2, 69, 127
1, 111487, Note_on_c, 3, 60, 125
1, 111572, Note_off_c, 3, 60, 100
1, 111573, Note_off_c, 2, 69, 100
1, 111575, Note_on_c, 2, 69, 127
1, 111576, Note_on_c, 3, 60, 125
1, 111662, Note_off_c, 3, 60, 100
1, 111663, Note_off_c, 2, 69, 100
1, 111665, Note_on_c, 2, 69, 127
1, 111665, Note_on_c, 3, 65, 127
1, 111666, Note_on_c, 3, 60, 125
1, 111696, Note_off_c, 2, 75, 100
1, 111711, Note_on_c, 2, 75, 124
1, 111757, Note_on_c, 2, 74, 126
1, 111761, Note_off_c, 2, 75, 100
1, 111799, Note_on_c, 2, 75, 124
1, 111805, Note_off_c, 2, 74, 100
1, 111845, Note_on_c, 2, 77, 122
1, 111849, Note_off_c, 2, 75, 100
1, 111892, Note_on_c, 2, 75, 124
1, 111897, Note_off_c, 2, 77, 100
1, 111937, Note_on_c, 2, 74, 126
1, 111941, Note_off_c, 2, 75, 100
1, 111984, Note_on_c, 2, 75, 124
1, 111989, Note_off_c, 2, 74, 100
1, 112030, Note_on_c, 1, 82, 118
1, 112035, Note_off_c, 2, 75, 100
1, 112114, Note_off_c, 3, 60, 100
1, 112115, Note_off_c, 3, 65, 100
1, 112115, Note_off_c, 2, 69, 100
1, 112121, Note_on_c, 2, 75, 124
1, 112121, Note_on_c, 2, 72, 127
1, 112122, Note_on_c, 3, 65, 127
1, 112182, Note_off_c, 1, 82, 100
1, 112209, Note_off_c, 3, 65, 100
1, 112209, Note_off_c, 2, 72, 100
1, 112209, Note_off_c, 2, 75, 100
1, 112213, Note_on_c, 1, 81, 119
1, 112213, Note_on_c, 2, 75, 124
1, 112214, Note_on_c, 2, 72, 127
1, 112214, Note_on_c, 3, 65, 127
1, 112299, Note_off_c, 3, 65, 100
1, 112300, Note_off_c, 2, 72, 100
1, 112300, Note_off_c, 2, 75, 100
1, 112304, Note_on_c, 2, 75, 124
1, 112305, Note_on_c, 2, 72, 127
1, 112305, Note_on_c, 3, 65, 127
1, 112392, Note_off_c, 2, 75, 100
1, 112392, Note_off_c, 3, 65, 100
1, 112392, Note_off_c, 2, 72, 100
1, 112396, Note_on_c, 2, 75, 124
1, 112397, Note_on_c, 2, 72, 127
1, 112397, Note_on_c, 3, 65, 127
1, 112426, Note_off_c, 1, 81, 100
1, 112441, Note_on_c, 1, 81, 119
1, 112488, Note_on_c, 1, 79, 119
1, 112494, Note_off_c, 1, 81, 100
1, 112536, Note_on_c, 1, 81, 119
1, 112540, Note_off_c, 1, 79, 100
1, 112579, Note_on_c, 1, 82, 118
1, 112583, Note_off_c, 1, 81, 100
1, 112623, Note_on_c, 1, 81, 119
1, 112629, Note_off_c, 1, 82, 100
1, 112668, Note_on_c, 1, 79, 119
1, 112671, Note_off_c, 1, 81, 100
1, 112714, Note_on_c, 1, 81, 119
1, 112717, Note_off_c, 1, 79, 100
1, 112760, Note_on_c, 1, 89, 122
1, 112763, Note_off_c, 1, 81, 100
1, 112840, Note_off_c, 3, 65, 100
1, 112841, Note_off_c, 2, 75, 100
1, 112841, Note_off_c, 2, 72, 100
1, 112859, Note_on_c, 3, 65, 127
1, 112922, Note_off_c, 1, 89, 100
1, 112948, Note_on_c, 1, 87, 122
1, 112951, Note_on_c, 2, 72, 127
1, 113040, Note_on_c, 2, 75, 124
1, 113048, Note_off_c, 3, 65, 100
1, 113048, Note_off_c, 2, 72, 100
1, 113134, Note_on_c, 3, 66, 127
1, 113142, Note_off_c, 2, 75, 100
1, 113162, Note_off_c, 1, 87, 100
1, 113177, Note_on_c, 1, 87, 120
1, 113226, Note_on_c, 1, 86, 121
1, 113229, Note_off_c, 1, 87, 100
1, 113270, Note_on_c, 1, 87, 118
1, 113274, Note_off_c, 1, 86, 100
1, 113313, Note_on_c, 1, 89, 118
1, 113316, Note_off_c, 1, 87, 100
1, 113359, Note_on_c, 1, 87, 118
1, 113364, Note_off_c, 1, 89, 100
1, 113403, Note_on_c, 1, 85, 119
1, 113407, Note_off_c, 1, 87, 100
1, 113449, Note_on_c, 1, 84, 121
1, 113455, Note_off_c, 1, 85, 100
1, 113499, Note_on_c, 1, 82, 116
1, 113503, Note_off_c, 1, 84, 100
1, 113585, Note_off_c, 3, 66, 100
1, 113599, Note_on_c, 3, 65, 127
1, 113657, Note_off_c, 1, 82, 100
1, 113688, Note_on_c, 1, 81, 117
1, 113688, Note_on_c, 2, 72, 127
1, 113775, Note_on_c, 2, 75, 124
1, 113783, Note_off_c, 2, 72, 100
1, 113784, Note_off_c, 3, 65, 100
1, 113863, Note_on_c, 3, 66, 127
1, 113870, Note_off_c, 2, 75, 100
1, 113892, Note_off_c, 1, 81, 100
1, 113907, Note_on_c, 1, 87, 114
1, 113951, Note_on_c, 1, 86, 117
1, 113957, Note_off_c, 1, 87, 100
1, 113993, Note_on_c, 1, 87, 114
1, 113999, Note_off_c, 1, 86, 100
1, 114036, Note_on_c, 1, 89, 114
1, 114041, Note_off_c, 1, 87, 100
1, 114080, Note_on_c, 1, 87, 114
1, 114085, Note_off_c, 1, 89, 100
1, 114124, Note_on_c, 1, 85, 115
1, 114128, Note_off_c, 1, 87, 100
1, 114166, Note_on_c, 1, 84, 117
1, 114170, Note_off_c, 1, 85, 100
1, 114208, Note_off_c, 3, 66, 100
1, 114209, Note_on_c, 1, 82, 112
1, 114209, Note_on_c, 3, 65, 127
1, 114211, Note_off_c, 1, 84, 100
1, 114253, Note_on_c, 1, 81, 113
1, 114257, Note_off_c, 1, 82, 100
1, 114298, Note_on_c, 1, 87, 114
1, 114303, Note_off_c, 1, 81, 100
1, 114344, Note_on_c, 1, 85, 115
1, 114348, Note_off_c, 1, 87, 100
1, 114384, Note_off_c, 3, 65, 100
1, 114384, Note_on_c, 1, 89, 114
1, 114385, Note_on_c, 2, 75, 122
1, 114385, Note_on_c, 2, 72, 125
1, 114386, Note_on_c, 3, 67, 127
1, 114390, Note_off_c, 1, 85, 100
1, 114430, Note_on_c, 1, 87, 114
1, 114436, Note_off_c, 1, 89, 100
1, 114473, Note_on_c, 1, 85, 115
1, 114477, Note_off_c, 1, 87, 100
1, 114516, Note_on_c, 1, 84, 117
1, 114521, Note_off_c, 1, 85, 100
1, 114562, Note_off_c, 3, 67, 100
1, 114562, Note_on_c, 1, 82, 112
1, 114563, Note_on_c, 3, 65, 127
1, 114564, Note_off_c, 1, 84, 100
1, 114605, Note_on_c, 1, 81, 113
1, 114611, Note_off_c, 1, 82, 100
1, 114653, Note_on_c, 1, 87, 114
1, 114657, Note_off_c, 1, 81, 100
1, 114699, Note_on_c, 1, 86, 117
1, 114705, Note_off_c, 1, 87, 100
1, 114735, Note_off_c, 2, 72, 100
1, 114736, Note_off_c, 2, 75, 100
1, 114741, Note_off_c, 3, 65, 100
1, 114741, Note_on_c, 1, 89, 114
1, 114742, Note_on_c, 2, 75, 122
1, 114742, Note_on_c, 2, 72, 125
1, 114743, Note_on_c, 3, 66, 127
1, 114745, Note_off_c, 1, 86, 100
1, 114785, Note_on_c, 1, 87, 114
1, 114791, Note_off_c, 1, 89, 100
1, 114828, Note_on_c, 1, 85, 115
1, 114831, Note_off_c, 1, 87, 100
1, 114874, Note_on_c, 1, 84, 117
1, 114877, Note_off_c, 1, 85, 100
1, 114912, Note_off_c, 2, 72, 100
1, 114912, Note_off_c, 2, 75, 100
1, 114917, Note_off_c, 3, 66, 100
1, 114918, Note_on_c, 2, 75, 122
1, 114918, Note_on_c, 2, 72, 125
1, 114918, Note_on_c, 1, 82, 112
1, 114919, Note_on_c, 3, 65, 127
1, 114921, Note_off_c, 1, 84, 100
1, 114960, Note_on_c, 1, 81, 113
1, 114965, Note_off_c, 1, 82, 100
1, 115002, Note_on_c, 1, 84, 117
1, 115005, Note_off_c, 1, 81, 100
1, 115046, Note_on_c, 1, 83, 112
1, 115051, Note_off_c, 1, 84, 100
1, 115090, Note_on_c, 1, 86, 113
1, 115095, Note_off_c, 1, 83, 100
1, 115134, Note_on_c, 1, 84, 113
1, 115138, Note_off_c, 1, 86, 100
1, 115176, Note_on_c, 1, 82, 108
1, 115182, Note_off_c, 1, 84, 100
1, 115223, Note_on_c, 1, 81, 109
1, 115226, Note_off_c, 1, 82, 100
1, 115267, Note_on_c, 1, 79, 107
1, 115270, Note_off_c, 1, 81, 100
1, 115311, Note_on_c, 2, 77, 112
1, 115314, Note_off_c, 1, 79, 100
1, 115353, Note_on_c, 1, 79, 107
1, 115356, Note_off_c, 2, 77, 100
1, 115395, Note_on_c, 1, 78, 107
1, 115401, Note_off_c, 1, 79, 100
1, 115438, Note_on_c, 1, 81, 109
1, 115442, Note_off_c, 1, 78, 100
1, 115479, Note_on_c, 1, 79, 107
1, 115483, Note_off_c, 1, 81, 100
1, 115518, Note_on_c, 2, 77, 112
1, 115522, Note_off_c, 1, 79, 100
1, 115545, Note_off_c, 2, 75, 100
1, 115560, Note_off_c, 2, 72, 100
1, 115561, Note_on_c, 2, 75, 118
1, 115563, Note_off_c, 2, 77, 100
1, 115602, Note_on_c, 2, 74, 120
1, 115605, Note_off_c, 2, 75, 100
1, 115646, Note_on_c, 2, 72, 121
1, 115651, Note_off_c, 2, 74, 100
1, 115690, Note_on_c, 2, 74, 120
1, 115695, Note_off_c, 2, 72, 100
1, 115733, Note_on_c, 2, 75, 118
1, 115737, Note_off_c, 2, 74, 100
1, 115777, Note_on_c, 2, 76, 116
1, 115781, Note_off_c, 2, 75, 100
1, 115864, Note_on_c, 2, 77, 116
1, 115872, Note_off_c, 2, 76, 100
1, 115946, Note_on_c, 1, 79, 111
1, 115954, Note_off_c, 2, 77, 100
1, 116039, Note_on_c, 2, 77, 116
1, 116046, Note_off_c, 1, 79, 100
1, 116122, Note_on_c, 2, 75, 122
1, 116133, Note_off_c, 2, 77, 100
1, 116209, Note_on_c, 2, 74, 124
1, 116215, Note_off_c, 2, 75, 100
1, 116301, Note_on_c, 2, 72, 125
1, 116308, Note_off_c, 2, 74, 100
1, 116364, Note_off_c, 3, 65, 100
1, 116399, Note_on_c, 2, 70, 127
1, 116399, Note_on_c, 3, 58, 125
1, 116407, Note_off_c, 2, 72, 100
1, 116497, Note_off_c, 2, 70, 100
1, 116505, Note_on_c, 2, 70, 127
1, 116506, Note_on_c, 3, 62, 127
1, 116556, Note_off_c, 3, 58, 100
1, 116606, Note_on_c, 3, 65, 127
1, 116658, Note_off_c, 3, 62, 100
1, 116710, Note_on_c, 3, 62, 127
1, 116756, Note_off_c, 3, 65, 100
1, 116804, Note_off_c, 2, 70, 100
1, 116804, Note_on_c, 2, 74, 126
1, 116805, Note_on_c, 3, 58, 125
1, 116858, Note_off_c, 3, 62, 100
1, 116901, Note_on_c, 1, 79, 119
1, 116901, Note_on_c, 3, 62, 127
1, 116907, Note_off_c, 2, 74, 100
1, 116946, Note_off_c, 3, 58, 100
1, 116995, Note_on_c, 3, 67, 127
1, 116995, Note_on_c, 2, 74, 126
1, 117001, Note_off_c, 1, 79, 100
1, 117040, Note_off_c, 3, 62, 100
1, 117090, Note_on_c, 2, 77, 122
1, 117097, Note_off_c, 2, 74, 100
1, 117136, Note_off_c, 3, 67, 100
1, 117182, Note_on_c, 3, 60, 125
1, 117275, Note_off_c, 2, 77, 100
1, 117275, Note_on_c, 2, 75, 124
1, 117276, Note_on_c, 3, 63, 127
1, 117322, Note_off_c, 3, 60, 100
1, 117368, Note_on_c, 3, 67, 127
1, 117412, Note_off_c, 3, 63, 100
1, 117458, Note_on_c, 3, 63, 127
1, 117508, Note_off_c, 3, 67, 100
1, 117546, Note_off_c, 2, 75, 100
1, 117554, Note_on_c, 2, 77, 122
1, 117554, Note_on_c, 3, 60, 125
1, 117597, Note_off_c, 3, 63, 100
1, 117598, Note_on_c, 1, 79, 119
1, 117601, Note_off_c, 2, 77, 100
1, 117642, Note_on_c, 2, 77, 122
1, 117643, Note_on_c, 3, 63, 127
1, 117645, Note_off_c, 1, 79, 100
1, 117684, Note_off_c, 3, 60, 100
1, 117684, Note_on_c, 2, 75, 124
1, 117688, Note_off_c, 2, 77, 100
1, 117729, Note_on_c, 3, 67, 127
1, 117729, Note_on_c, 2, 74, 126
1, 117731, Note_off_c, 2, 75, 100
1, 117772, Note_off_c, 3, 63, 100
1, 117772, Note_on_c, 2, 72, 127
1, 117774, Note_off_c, 2, 74, 100
1, 117813, Note_on_c, 2, 70, 127
1, 117818, Note_off_c, 2, 72, 100
1, 117861, Note_off_c, 3, 67, 100
1, 117907, Note_on_c, 4, 53, 125
1, 117999, Note_off_c, 2, 70, 100
1, 118000, Note_on_c, 2, 69, 127
1, 118000, Note_on_c, 3, 60, 125
1, 118046, Note_off_c, 4, 53, 100
1, 118092, Note_on_c, 3, 63, 127
1, 118137, Note_off_c, 3, 60, 100
1, 118183, Note_on_c, 3, 60, 125
1, 118225, Note_off_c, 3, 63, 100
1, 118261, Note_off_c, 2, 69, 100
1, 118269, Note_on_c, 2, 69, 127
1, 118270, Note_on_c, 4, 53, 125
1, 118318, Note_off_c, 3, 60, 100
1, 118366, Note_on_c, 2, 70, 127
1, 118367, Note_on_c, 3, 60, 125
1, 118375, Note_off_c, 2, 69, 100
1, 118412, Note_off_c, 4, 53, 100
1, 118459, Note_on_c, 2, 72, 127
1, 118460, Note_on_c, 3, 63, 127
1, 118466, Note_off_c, 2, 70, 100
1, 118504, Note_off_c, 3, 60, 100
1, 118545, Note_off_c, 2, 72, 100
1, 118554, Note_on_c, 2, 72, 127
1, 118555, Note_on_c, 2, 69, 127
1, 118599, Note_off_c, 3, 63, 100
1, 118644, Note_on_c, 3, 58, 125
1, 118742, Note_off_c, 2, 69, 100
1, 118743, Note_off_c, 2, 72, 100
1, 118743, Note_on_c, 2, 74, 126
1, 118744, Note_on_c, 2, 70, 127
1, 118744, Note_on_c, 3, 62, 127
1, 118785, Note_off_c, 3, 58, 100
1, 118835, Note_on_c, 3, 65, 127
1, 118882, Note_off_c, 3, 62, 100
1, 118926, Note_on_c, 3, 62, 127
1, 118972, Note_off_c, 3, 65, 100
1, 119013, Note_off_c, 2, 74, 100
1, 119013, Note_off_c, 2, 70, 100
1, 119021, Note_on_c, 2, 77, 122
1, 119021, Note_on_c, 3, 58, 125
1, 119068, Note_off_c, 3, 62, 100
1, 119068, Note_on_c, 2, 76, 122
1, 119073, Note_off_c, 2, 77, 100
1, 119109, Note_on_c, 1, 79, 119
1, 119110, Note_on_c, 3, 62, 127
1, 119114, Note_off_c, 2, 76, 100
1, 119152, Note_off_c, 3, 58, 100
1, 119153, Note_on_c, 2, 77, 122
1, 119157, Note_off_c, 1, 79, 100
1, 119196, Note_on_c, 3, 65, 127
1, 119196, Note_on_c, 2, 75, 124
1, 119200, Note_off_c, 2, 77, 100
1, 119237, Note_off_c, 3, 62, 100
1, 119237, Note_on_c, 2, 74, 126
1, 119242, Note_off_c, 2, 75, 100
1, 119272, Note_off_c, 2, 74, 100
1, 119280, Note_on_c, 2, 74, 126
1, 119280, Note_on_c, 3, 64, 127
1, 119287, Note_off_c, 3, 65, 100
1, 119375, Note_on_c, 2, 72, 127
1, 119376, Note_on_c, 3, 67, 127
1, 119382, Note_off_c, 2, 74, 100
1, 119410, Note_off_c, 3, 64, 100
1, 119464, Note_on_c, 3, 62, 127
1, 119556, Note_off_c, 2, 72, 100
1, 119556, Note_off_c, 3, 67, 100
1, 119556, Note_on_c, 2, 70, 127
1, 119557, Note_on_c, 3, 65, 127
1, 119594, Note_off_c, 3, 62, 100
1, 119646, Note_on_c, 2, 74, 126
1, 119647, Note_on_c, 3, 64, 127
1, 119654, Note_off_c, 2, 70, 100
1, 119685, Note_off_c, 3, 65, 100
1, 119741, Note_on_c, 2, 72, 127
1, 119742, Note_on_c, 3, 67, 127
1, 119748, Note_off_c, 2, 74, 100
1, 119781, Note_off_c, 3, 64, 100
1, 119831, Note_on_c, 3, 60, 125
1, 119920, Note_off_c, 2, 72, 100
1, 119920, Note_off_c, 3, 67, 100
1, 119921, Note_on_c, 2, 69, 127
1, 119921, Note_on_c, 3, 64, 127
1, 119954, Note_off_c, 3, 60, 100
1, 120008, Note_off_c, 3, 64, 100
1, 120008, Note_off_c, 2, 69, 100
1, 120009, Note_on_c, 2, 70, 127
1, 120010, Note_on_c, 3, 65, 127
1, 120010, Note_on_c, 3, 62, 127
1, 120050, Note_on_c, 2, 72, 127
1, 120054, Note_off_c, 2, 70, 100
1, 120091, Note_on_c, 2, 70, 127
1, 120094, Note_off_c, 2, 72, 100
1, 120133, Note_on_c, 2, 69, 127
1, 120136, Note_off_c, 2, 70, 100
1, 120175, Note_on_c, 2, 70, 127
1, 120179, Note_off_c, 2, 69, 100
1, 120217, Note_on_c, 2, 72, 127
1, 120221, Note_off_c, 2, 70, 100
1, 120260, Note_on_c, 2, 74, 124
1, 120263, Note_off_c, 2, 72, 100
1, 120300, Note_on_c, 2, 75, 122
1, 120304, Note_off_c, 2, 74, 100
1, 120340, Note_on_c, 2, 76, 120
1, 120344, Note_off_c, 2, 75, 100
1, 120379, Note_on_c, 3, 77, 120
1, 120383, Note_off_c, 2, 76, 100
1, 120423, Note_on_c, 2, 76, 120
1, 120427, Note_off_c, 3, 77, 100
1, 120464, Note_on_c, 3, 77, 120
1, 120468, Note_off_c, 2, 76, 100
1, 120507, Note_on_c, 1, 79, 117
1, 120511, Note_off_c, 3, 77, 100
1, 120548, Note_on_c, 3, 77, 120
1, 120553, Note_off_c, 1, 79, 100
1, 120592, Note_on_c, 2, 75, 122
1, 120596, Note_off_c, 3, 77, 100
1, 120634, Note_on_c, 2, 74, 124
1, 120638, Note_off_c, 2, 75, 100
1, 120671, Note_off_c, 2, 74, 100
1, 120671, Note_off_c, 3, 62, 100
1, 120672, Note_off_c, 3, 65, 100
1, 120677, Note_on_c, 2, 74, 124
1, 120678, Note_on_c, 3, 64, 127
1, 120767, Note_on_c, 2, 72, 127
1, 120767, Note_on_c, 3, 67, 127
1, 120773, Note_off_c, 2, 74, 100
1, 120804, Note_off_c, 3, 64, 100
1, 120852, Note_off_c, 2, 72, 100
1, 120860, Note_on_c, 2, 72, 127
1, 120860, Note_on_c, 3, 62, 127
1, 120897, Note_off_c, 3, 67, 100
1, 120951, Note_on_c, 2, 70, 127
1, 120951, Note_on_c, 3, 65, 127
1, 120960, Note_off_c, 2, 72, 100
1, 120990, Note_off_c, 3, 62, 100
1, 121041, Note_on_c, 2, 74, 124
1, 121042, Note_on_c, 3, 64, 127
1, 121080, Note_off_c, 3, 65, 100
1, 121081, Note_off_c, 2, 70, 100
1, 121122, Note_off_c, 2, 74, 100
1, 121133, Note_on_c, 2, 72, 127
1, 121134, Note_on_c, 3, 67, 127
1, 121169, Note_off_c, 3, 64, 100
1, 121215, Note_off_c, 2, 72, 100
1, 121223, Note_on_c, 2, 72, 127
1, 121223, Note_on_c, 3, 60, 125
1, 121260, Note_off_c, 3, 67, 100
1, 121314, Note_on_c, 2, 69, 127
1, 121314, Note_on_c, 3, 64, 127
1, 121322, Note_off_c, 2, 72, 100
1, 121353, Note_off_c, 3, 60, 100
1, 121407, Note_on_c, 3, 65, 127
1, 121407, Note_on_c, 2, 70, 127
1, 121408, Note_on_c, 3, 62, 127
1, 121414, Note_off_c, 3, 64, 100
1, 121414, Note_off_c, 2, 69, 100
1, 121499, Note_on_c, 2, 72, 127
1, 121507, Note_off_c, 2, 70, 100
1, 121543, Note_on_c, 2, 74, 124
1, 121547, Note_off_c, 2, 72, 100
1, 121587, Note_on_c, 2, 75, 122
1, 121591, Note_off_c, 2, 74, 100
1, 121632, Note_on_c, 2, 77, 120
1, 121635, Note_off_c, 2, 75, 100
1, 121676, Note_on_c, 1, 79, 117
1, 121680, Note_off_c, 2, 77, 100
1, 121719, Note_on_c, 1, 81, 117
1, 121725, Note_off_c, 1, 79, 100
1, 121764, Note_on_c, 1, 82, 116
1, 121767, Note_off_c, 1, 81, 100
1, 121805, Note_on_c, 1, 84, 121
1, 121809, Note_off_c, 1, 82, 100
1, 121846, Note_on_c, 1, 86, 123
1, 121849, Note_off_c, 1, 84, 100
1, 121888, Note_on_c, 1, 87, 120
1, 121894, Note_off_c, 1, 86, 100
1, 121932, Note_on_c, 1, 89, 120
1, 121938, Note_off_c, 1, 87, 100
1, 122013, Note_off_c, 1, 89, 100
1, 122020, Note_on_c, 1, 89, 120
1, 122104, Note_off_c, 1, 89, 100
1, 122113, Note_off_c, 3, 62, 100
1, 122114, Note_off_c, 3, 65, 100
1, 122114, Note_on_c, 1, 89, 120
1, 122115, Note_on_c, 2, 77, 120
1, 122115, Note_on_c, 3, 57, 125
1, 122204, Note_on_c, 1, 87, 120
1, 122212, Note_off_c, 1, 89, 100
1, 122294, Note_off_c, 3, 57, 100
1, 122295, Note_on_c, 3, 58, 125
1, 122384, Note_off_c, 1, 87, 100
1, 122384, Note_on_c, 1, 86, 123
1, 122467, Note_off_c, 1, 86, 100
1, 122468, Note_off_c, 2, 77, 100
1, 122476, Note_off_c, 3, 58, 100
1, 122476, Note_on_c, 1, 86, 123
1, 122477, Note_on_c, 4, 51, 125
1, 122477, Note_on_c, 2, 77, 120
1, 122562, Note_on_c, 1, 84, 121
1, 122563, Note_on_c, 2, 75, 122
1, 122571, Note_off_c, 2, 77, 100
1, 122571, Note_off_c, 1, 86, 100
1, 122652, Note_off_c, 4, 51, 100
1, 122653, Note_on_c, 1, 82, 116
1, 122653, Note_on_c, 2, 74, 124
1, 122654, Note_on_c, 4, 53, 125
1, 122660, Note_off_c, 2, 75, 100
1, 122661, Note_off_c, 1, 84, 100
1, 122744, Note_on_c, 1, 81, 117
1, 122744, Note_on_c, 2, 72, 127
1, 122750, Note_off_c, 2, 74, 100
1, 122751, Note_off_c, 1, 82, 100
1, 122838, Note_on_c, 1, 82, 116
1, 122838, Note_on_c, 2, 74, 124
1, 122846, Note_off_c, 2, 72, 100
1, 122847, Note_off_c, 1, 81, 100
1, 122922, Note_off_c, 4, 53, 100
1, 122930, Note_on_c, 4, 46, 125
1, 123022, Note_off_c, 2, 74, 100
1, 123023, Note_off_c, 1, 82, 100
1, 123023, Note_on_c, 2, 70, 127
1, 123024, Note_on_c, 4, 50, 125
1, 123030, Note_off_c, 4, 46, 100
1, 123114, Note_on_c, 4, 53, 125
1, 123122, Note_off_c, 4, 50, 100
1, 123207, Note_on_c, 3, 58, 125
1, 123215, Note_off_c, 4, 53, 100
1, 123376, Note_off_c, 2, 70, 100
1, 123384, Note_off_c, 3, 58, 100
1, 123384, Note_on_c, 3, 67, 127
1, 123433, Note_on_c, 3, 65, 127
1, 123437, Note_off_c, 3, 67, 100
1, 123479, Note_on_c, 3, 63, 127
1, 123485, Note_off_c, 3, 65, 100
1, 123527, Note_on_c, 3, 62, 127
1, 123531, Note_off_c, 3, 63, 100
1, 123576, Note_on_c, 3, 60, 125
1, 123578, Note_off_c, 3, 62, 100
1, 123666, Note_on_c, 3, 58, 125
1, 123667, Note_on_c, 4, 46, 125
1, 123675, Note_off_c, 3, 60, 100
1, 123761, Note_off_c, 3, 58, 100
1, 123769, Note_on_c, 3, 58, 125
1, 123769, Note_on_c, 4, 50, 125
1, 123776, Note_off_c, 4, 46, 100
1, 123866, Note_on_c, 4, 53, 125
1, 123874, Note_off_c, 4, 50, 100
1, 123960, Note_on_c, 4, 50, 125
1, 123970, Note_off_c, 4, 53, 100
1, 124058, Note_on_c, 2, 70, 127
1, 124058, Note_on_c, 4, 46, 125
1, 124067, Note_off_c, 4, 50, 100
1, 124067, Note_off_c, 3, 58, 100
1, 124146, Note_off_c, 2, 70, 100
1, 124152, Note_on_c, 2, 70, 127
1, 124152, Note_on_c, 4, 50, 125
1, 124161, Note_off_c, 4, 46, 100
1, 124243, Note_on_c, 2, 72, 127
1, 124244, Note_on_c, 4, 53, 125
1, 124248, Note_off_c, 4, 50, 100
1, 124248, Note_off_c, 2, 70, 100
1, 124337, Note_on_c, 2, 70, 127
1, 124345, Note_off_c, 2, 72, 100
1, 124432, Note_off_c, 4, 53, 100
1, 124432, Note_on_c, 2, 69, 127
1, 124433, Note_on_c, 4, 46, 125
1, 124440, Note_off_c, 2, 70, 100
1, 124525, Note_on_c, 2, 68, 127
1, 124525, Note_on_c, 4, 50, 125
1, 124534, Note_off_c, 4, 46, 100
1, 124534, Note_off_c, 2, 69, 100
1, 124619, Note_on_c, 4, 53, 125
1, 124627, Note_off_c, 4, 50, 100
1, 124711, Note_on_c, 4, 50, 125
1, 124719, Note_off_c, 4, 53, 100
1, 124794, Note_off_c, 2, 68, 100
1, 124801, Note_on_c, 2, 68, 127
1, 124802, Note_on_c, 4, 46, 125
1, 124810, Note_off_c, 4, 50, 100
1, 124881, Note_off_c, 2, 68, 100
1, 124889, Note_on_c, 2, 68, 127
1, 124889, Note_on_c, 4, 50, 125
1, 124897, Note_off_c, 4, 46, 100
1, 124976, Note_off_c, 2, 68, 100
1, 124984, Note_on_c, 2, 68, 127
1, 124984, Note_on_c, 4, 53, 125
1, 124991, Note_off_c, 4, 50, 100
1, 125079, Note_on_c, 1, 80, 119
1, 125086, Note_off_c, 2, 68, 100
1, 125126, Note_on_c, 1, 82, 118
1, 125129, Note_off_c, 1, 80, 100
1, 125166, Note_off_c, 4, 53, 100
1, 125167, Note_on_c, 1, 79, 119
1, 125167, Note_on_c, 4, 46, 125
1, 125171, Note_off_c, 1, 82, 100
1, 125213, Note_on_c, 1, 80, 119
1, 125217, Note_off_c, 1, 79, 100
1, 125256, Note_on_c, 2, 77, 122
1, 125256, Note_on_c, 4, 50, 125
1, 125260, Note_off_c, 1, 80, 100
1, 125262, Note_off_c, 4, 46, 100
1, 125301, Note_on_c, 1, 79, 119
1, 125304, Note_off_c, 2, 77, 100
1, 125345, Note_on_c, 2, 75, 124
1, 125345, Note_on_c, 4, 53, 125
1, 125348, Note_off_c, 1, 79, 100
1, 125352, Note_off_c, 4, 50, 100
1, 125390, Note_on_c, 2, 77, 122
1, 125394, Note_off_c, 2, 75, 100
1, 125432, Note_on_c, 2, 74, 126
1, 125433, Note_on_c, 4, 56, 125
1, 125437, Note_off_c, 2, 77, 100
1, 125439, Note_off_c, 4, 53, 100
1, 125479, Note_on_c, 2, 75, 124
1, 125485, Note_off_c, 2, 74, 100
1, 125523, Note_on_c, 2, 72, 127
1, 125524, Note_on_c, 4, 53, 125
1, 125526, Note_off_c, 2, 75, 100
1, 125530, Note_off_c, 4, 56, 100
1, 125567, Note_on_c, 2, 74, 126
1, 125572, Note_off_c, 2, 72, 100
1, 125611, Note_on_c, 2, 70, 127
1, 125611, Note_on_c, 4, 50, 125
1, 125616, Note_off_c, 2, 74, 100
1, 125617, Note_off_c, 4, 53, 100
1, 125654, Note_on_c, 2, 72, 127
1, 125660, Note_off_c, 2, 70, 100
1, 125694, Note_on_c, 2, 68, 127
1, 125695, Note_on_c, 4, 46, 125
1, 125699, Note_off_c, 2, 72, 100
1, 125701, Note_off_c, 4, 50, 100
1, 125739, Note_on_c, 2, 70, 127
1, 125743, Note_off_c, 2, 68, 100
1, 125784, Note_on_c, 2, 68, 127
1, 125787, Note_off_c, 2, 70, 100
1, 125876, Note_off_c, 2, 68, 100
1, 125876, Note_off_c, 4, 46, 100
1, 125877, Note_on_c, 3, 67, 127
1, 125877, Note_on_c, 4, 47, 125
1, 125974, Note_off_c, 3, 67, 64
1, 125976, Note_on_c, 3, 67, 127
1, 125976, Note_on_c, 4, 50, 125
1, 125984, Note_off_c, 4, 47, 100
1, 126065, Note_on_c, 4, 53, 125
1, 126072, Note_off_c, 4, 50, 100
1, 126159, Note_on_c, 4, 55, 125
1, 126165, Note_off_c, 4, 53, 100
1, 126251, Note_off_c, 3, 67, 64
1, 126253, Note_on_c, 2, 77, 122
1, 126253, Note_on_c, 4, 53, 125
1, 126262, Note_off_c, 4, 55, 100
1, 126350, Note_on_c, 1, 79, 119
1, 126350, Note_on_c, 4, 50, 125
1, 126357, Note_off_c, 4, 53, 100
1, 126357, Note_off_c, 2, 77, 100
1, 126440, Note_on_c, 2, 77, 122
1, 126441, Note_on_c, 4, 47, 125
1, 126449, Note_off_c, 4, 50, 100
1, 126449, Note_off_c, 1, 79, 100
1, 126525, Note_off_c, 2, 77, 100
1, 126532, Note_on_c, 2, 77, 122
1, 126627, Note_off_c, 4, 47, 100
1, 126627, Note_on_c, 3, 58, 125
1, 126627, Note_on_c, 2, 76, 122
1, 126635, Note_off_c, 2, 77, 100
1, 126718, Note_off_c, 2, 76, 100
1, 126726, Note_on_c, 2, 76, 122
1, 126726, Note_on_c, 3, 61, 125
1, 126732, Note_off_c, 3, 58, 100
1, 126815, Note_on_c, 3, 64, 127
1, 126821, Note_off_c, 3, 61, 100
1, 126909, Note_on_c, 2, 69, 127
1, 126917, Note_off_c, 3, 64, 100
1, 127003, Note_off_c, 2, 76, 100
1, 127004, Note_on_c, 1, 85, 123
1, 127089, Note_off_c, 1, 85, 100
1, 127096, Note_on_c, 1, 85, 123
1, 127188, Note_on_c, 2, 76, 122
1, 127195, Note_off_c, 1, 85, 100
1, 127280, Note_on_c, 1, 79, 119
1, 127287, Note_off_c, 2, 76, 100
1, 127356, Note_off_c, 2, 69, 100
1, 127372, Note_on_c, 2, 77, 122
1, 127372, Note_on_c, 3, 57, 125
1, 127380, Note_off_c, 1, 79, 100
1, 127463, Note_off_c, 2, 77, 100
1, 127473, Note_on_c, 2, 77, 122
1, 127473, Note_on_c, 3, 60, 125
1, 127479, Note_off_c, 3, 57, 100
1, 127568, Note_on_c, 3, 65, 127
1, 127575, Note_off_c, 3, 60, 100
1, 127658, Note_on_c, 2, 69, 127
1, 127666, Note_off_c, 3, 65, 100
1, 127743, Note_off_c, 2, 77, 100
1, 127750, Note_on_c, 2, 77, 122
1, 127845, Note_on_c, 1, 79, 119
1, 127851, Note_off_c, 2, 77, 100
1, 127935, Note_on_c, 2, 75, 124
1, 127943, Note_off_c, 1, 79, 100
1, 128029, Note_on_c, 2, 73, 127
1, 128037, Note_off_c, 2, 75, 100
1, 128106, Note_off_c, 2, 69, 100
1, 128120, Note_on_c, 2, 74, 126
1, 128120, Note_on_c, 3, 59, 125
1, 128128, Note_off_c, 2, 73, 100
1, 128207, Note_off_c, 2, 74, 100
1, 128215, Note_on_c, 2, 74, 126
1, 128215, Note_on_c, 3, 62, 127
1, 128223, Note_off_c, 3, 59, 100
1, 128308, Note_on_c, 3, 65, 127
1, 128314, Note_off_c, 3, 62, 100
1, 128396, Note_on_c, 2, 70, 127
1, 128406, Note_off_c, 3, 65, 100
1, 128487, Note_off_c, 2, 74, 100
1, 128488, Note_on_c, 2, 77, 122
1, 128579, Note_on_c, 1, 79, 119
1, 128587, Note_off_c, 2, 77, 100
1, 128624, Note_on_c, 2, 77, 122
1, 128628, Note_off_c, 1, 79, 100
1, 128670, Note_on_c, 2, 75, 124
1, 128674, Note_off_c, 2, 77, 100
1, 128714, Note_on_c, 2, 74, 126
1, 128718, Note_off_c, 2, 75, 100
1, 128764, Note_off_c, 2, 70, 100
1, 128764, Note_on_c, 2, 72, 127
1, 128765, Note_on_c, 3, 64, 127
1, 128769, Note_off_c, 2, 74, 100
1, 128855, Note_on_c, 3, 65, 127
1, 128865, Note_off_c, 3, 64, 100
1, 128948, Note_on_c, 3, 64, 127
1, 128955, Note_off_c, 3, 65, 100
1, 129027, Note_off_c, 2, 72, 100
1, 129037, Note_on_c, 2, 69, 127
1, 129037, Note_on_c, 3, 65, 127
1, 129044, Note_off_c, 3, 64, 100
1, 129126, Note_on_c, 2, 70, 127
1, 129126, Note_on_c, 3, 62, 127
1, 129133, Note_off_c, 3, 65, 100
1, 129133, Note_off_c, 2, 69, 100
1, 129170, Note_on_c, 2, 77, 117
1, 129174, Note_off_c, 2, 70, 100
1, 129216, Note_on_c, 2, 76, 117
1, 129216, Note_on_c, 3, 65, 127
1, 129219, Note_off_c, 2, 77, 100
1, 129223, Note_off_c, 3, 62, 100
1, 129260, Note_on_c, 2, 77, 117
1, 129263, Note_off_c, 2, 76, 100
1, 129304, Note_on_c, 1, 79, 114
1, 129304, Note_on_c, 3, 62, 127
1, 129310, Note_off_c, 2, 77, 100
1, 129312, Note_off_c, 3, 65, 100
1, 129355, Note_on_c, 2, 77, 117
1, 129360, Note_off_c, 1, 79, 100
1, 129401, Note_on_c, 2, 75, 119
1, 129401, Note_on_c, 3, 65, 127
1, 129405, Note_off_c, 2, 77, 100
1, 129408, Note_off_c, 3, 62, 100
1, 129444, Note_on_c, 2, 74, 126
1, 129450, Note_off_c, 2, 75, 100
1, 129490, Note_on_c, 2, 72, 127
1, 129491, Note_on_c, 3, 64, 127
1, 129494, Note_off_c, 2, 74, 100
1, 129497, Note_off_c, 3, 65, 100
1, 129574, Note_off_c, 2, 72, 100
1, 129581, Note_on_c, 2, 72, 127
1, 129582, Note_on_c, 3, 65, 127
1, 129588, Note_off_c, 3, 64, 100
1, 129668, Note_on_c, 3, 64, 127
1, 129677, Note_off_c, 3, 65, 100
1, 129764, Note_off_c, 2, 72, 100
1, 129764, Note_on_c, 2, 69, 127
1, 129765, Note_on_c, 3, 65, 127
1, 129770, Note_off_c, 3, 64, 100
1, 129859, Note_on_c, 2, 70, 127
1, 129859, Note_on_c, 3, 62, 127
1, 129865, Note_off_c, 3, 65, 100
1, 129866, Note_off_c, 2, 69, 100
1, 129901, Note_on_c, 2, 77, 112
1, 129906, Note_off_c, 2, 70, 100
1, 129947, Note_on_c, 2, 76, 112
1, 129948, Note_on_c, 3, 65, 127
1, 129952, Note_off_c, 2, 77, 100
1, 129954, Note_off_c, 3, 62, 100
1, 129990, Note_on_c, 2, 77, 112
1, 129996, Note_off_c, 2, 76, 100
1, 130032, Note_on_c, 1, 79, 109
1, 130033, Note_on_c, 3, 62, 127
1, 130035, Note_off_c, 2, 77, 100
1, 130039, Note_off_c, 3, 65, 100
1, 130078, Note_on_c, 2, 77, 112
1, 130081, Note_off_c, 1, 79, 100
1, 130122, Note_on_c, 2, 75, 114
1, 130122, Note_on_c, 3, 65, 127
1, 130127, Note_off_c, 2, 77, 100
1, 130128, Note_off_c, 3, 62, 100
1, 130163, Note_on_c, 2, 74, 121
1, 130167, Note_off_c, 2, 75, 100
1, 130200, Note_off_c, 2, 74, 100
1, 130209, Note_on_c, 2, 74, 121
1, 130210, Note_on_c, 3, 64, 127
1, 130216, Note_off_c, 3, 65, 100
1, 130296, Note_on_c, 2, 72, 127
1, 130297, Note_on_c, 3, 67, 127
1, 130305, Note_off_c, 3, 64, 100
1, 130306, Note_off_c, 2, 74, 100
1, 130387, Note_on_c, 3, 64, 127
1, 130468, Note_off_c, 3, 67, 100
1, 130469, Note_off_c, 2, 72, 100
1, 130475, Note_on_c, 2, 72, 127
1, 130476, Note_on_c, 3, 67, 127
1, 130484, Note_off_c, 3, 64, 100
1, 130560, Note_off_c, 2, 72, 100
1, 130568, Note_on_c, 2, 72, 127
1, 130569, Note_on_c, 3, 64, 127
1, 130652, Note_off_c, 3, 67, 100
1, 130659, Note_on_c, 2, 70, 127
1, 130660, Note_on_c, 3, 67, 127
1, 130666, Note_off_c, 3, 64, 100
1, 130667, Note_off_c, 2, 72, 100
1, 130746, Note_on_c, 3, 64, 127
1, 130824, Note_off_c, 3, 67, 100
1, 130825, Note_off_c, 2, 70, 100
1, 130831, Note_on_c, 2, 70, 127
1, 130832, Note_on_c, 3, 67, 127
1, 130840, Note_off_c, 3, 64, 100
1, 130924, Note_on_c, 2, 69, 127
1, 130925, Note_on_c, 4, 53, 125
1, 130933, Note_off_c, 3, 67, 100
1, 130934, Note_off_c, 2, 70, 100
1, 130968, Note_on_c, 2, 70, 127
1, 130972, Note_off_c, 2, 69, 100
1, 131013, Note_on_c, 2, 69, 127
1, 131018, Note_off_c, 2, 70, 100
1, 131057, Note_on_c, 3, 65, 127
1, 131061, Note_off_c, 2, 69, 100
1, 131101, Note_off_c, 4, 53, 100
1, 131101, Note_on_c, 2, 70, 127
1, 131102, Note_on_c, 4, 55, 125
1, 131104, Note_off_c, 3, 65, 100
1, 131145, Note_on_c, 2, 72, 127
1, 131147, Note_off_c, 2, 70, 100
1, 131185, Note_on_c, 2, 70, 127
1, 131191, Note_off_c, 2, 72, 100
1, 131230, Note_on_c, 3, 65, 127
1, 131235, Note_off_c, 2, 70, 100
1, 131272, Note_off_c, 4, 55, 100
1, 131272, Note_on_c, 2, 72, 127
1, 131273, Note_on_c, 3, 57, 125
1, 131277, Note_off_c, 3, 65, 100
1, 131316, Note_on_c, 2, 74, 126
1, 131319, Note_off_c, 2, 72, 100
1, 131359, Note_on_c, 2, 72, 127
1, 131363, Note_off_c, 2, 74, 100
1, 131400, Note_on_c, 3, 65, 127
1, 131403, Note_off_c, 2, 72, 100
1, 131440, Note_off_c, 3, 57, 100
1, 131441, Note_on_c, 3, 58, 125
1, 131441, Note_on_c, 2, 74, 126
1, 131445, Note_off_c, 3, 65, 100
1, 131482, Note_on_c, 2, 75, 124
1, 131485, Note_off_c, 2, 74, 100
1, 131524, Note_on_c, 2, 74, 126
1, 131529, Note_off_c, 2, 75, 100
1, 131566, Note_on_c, 3, 65, 127
1, 131569, Note_off_c, 2, 74, 100
1, 131608, Note_off_c, 3, 58, 100
1, 131609, Note_on_c, 3, 60, 125
1, 131609, Note_on_c, 2, 75, 124
1, 131613, Note_off_c, 3, 65, 100
1, 131694, Note_off_c, 2, 75, 100
1, 131702, Note_on_c, 3, 65, 127
1, 131704, Note_on_c, 2, 75, 124
1, 131791, Note_off_c, 3, 60, 100
1, 131791, Note_on_c, 3, 57, 125
1, 131797, Note_off_c, 3, 65, 100
1, 131877, Note_on_c, 2, 72, 127
1, 131877, Note_on_c, 3, 65, 127
1, 131879, Note_off_c, 2, 75, 100
1, 131964, Note_off_c, 3, 57, 100
1, 131964, Note_on_c, 2, 75, 124
1, 131964, Note_on_c, 3, 58, 125
1, 131972, Note_off_c, 3, 65, 100
1, 131973, Note_off_c, 2, 72, 100
1, 132056, Note_on_c, 2, 74, 126
1, 132056, Note_on_c, 3, 65, 127
1, 132062, Note_off_c, 2, 75, 100
1, 132147, Note_off_c, 3, 58, 100
1, 132147, Note_on_c, 2, 72, 127
1, 132148, Note_on_c, 4, 55, 125
1, 132153, Note_off_c, 3, 65, 100
1, 132153, Note_off_c, 2, 74, 100
1, 132230, Note_on_c, 2, 70, 127
1, 132231, Note_on_c, 3, 65, 127
1, 132239, Note_off_c, 2, 72, 100
1, 132322, Note_off_c, 4, 55, 100
1, 132322, Note_on_c, 2, 69, 127
1, 132323, Note_on_c, 4, 53, 125
1, 132328, Note_off_c, 3, 65, 100
1, 132329, Note_off_c, 2, 70, 100
1, 132368, Note_on_c, 3, 65, 127
1, 132414, Note_on_c, 2, 76, 122
1, 132421, Note_off_c, 2, 69, 100
1, 132460, Note_on_c, 2, 77, 122
1, 132464, Note_off_c, 2, 76, 100
1, 132468, Note_off_c, 3, 65, 100
1, 132503, Note_off_c, 4, 53, 100
1, 132504, Note_on_c, 2, 70, 127
1, 132504, Note_on_c, 4, 55, 125
1, 132508, Note_off_c, 2, 77, 100
1, 132546, Note_on_c, 3, 65, 127
1, 132592, Note_on_c, 2, 76, 122
1, 132598, Note_off_c, 2, 70, 100
1, 132636, Note_on_c, 2, 77, 122
1, 132640, Note_off_c, 2, 76, 100
1, 132644, Note_off_c, 3, 65, 100
1, 132679, Note_off_c, 4, 55, 100
1, 132679, Note_on_c, 2, 72, 127
1, 132680, Note_on_c, 3, 57, 125
1, 132683, Note_off_c, 2, 77, 100
1, 132719, Note_on_c, 3, 65, 127
1, 132761, Note_on_c, 2, 76, 122
1, 132767, Note_off_c, 2, 72, 100
1, 132804, Note_on_c, 2, 77, 122
1, 132809, Note_off_c, 2, 76, 100
1, 132811, Note_off_c, 3, 65, 100
1, 132846, Note_off_c, 3, 57, 100
1, 132846, Note_on_c, 2, 74, 126
1, 132847, Note_on_c, 3, 58, 125
1, 132851, Note_off_c, 2, 77, 100
1, 132886, Note_on_c, 3, 65, 127
1, 132923, Note_on_c, 2, 76, 122
1, 132936, Note_off_c, 2, 74, 100
1, 132962, Note_off_c, 2, 76, 100
1, 132969, Note_on_c, 2, 77, 122
1, 132982, Note_off_c, 3, 65, 100
1, 133007, Note_off_c, 2, 77, 100
1, 133014, Note_on_c, 2, 75, 124
1, 133019, Note_off_c, 3, 58, 100
1, 133020, Note_on_c, 3, 60, 125
1, 133071, Note_on_c, 3, 65, 127
1, 133105, Note_off_c, 2, 75, 100
1, 133120, Note_on_c, 3, 63, 127
1, 133123, Note_off_c, 3, 65, 100
1, 133130, Note_on_c, 2, 75, 124
1, 133168, Note_on_c, 3, 65, 127
1, 133172, Note_off_c, 3, 63, 100
1, 133212, Note_off_c, 3, 60, 100
1, 133213, Note_on_c, 3, 57, 125
1, 133217, Note_off_c, 3, 65, 100
1, 133261, Note_on_c, 3, 65, 127
1, 133310, Note_on_c, 2, 72, 127
1, 133310, Note_on_c, 3, 63, 127
1, 133314, Note_off_c, 3, 65, 100
1, 133320, Note_off_c, 2, 75, 100
1, 133351, Note_on_c, 3, 65, 127
1, 133355, Note_off_c, 3, 63, 100
1, 133397, Note_off_c, 3, 57, 100
1, 133397, Note_on_c, 2, 75, 124
1, 133398, Note_on_c, 3, 58, 125
1, 133402, Note_off_c, 3, 65, 100
1, 133404, Note_off_c, 2, 72, 100
1, 133442, Note_on_c, 3, 65, 127
1, 133488, Note_on_c, 2, 74, 126
1, 133488, Note_on_c, 3, 63, 127
1, 133493, Note_off_c, 3, 65, 100
1, 133497, Note_off_c, 2, 75, 100
1, 133531, Note_on_c, 3, 65, 127
1, 133535, Note_off_c, 3, 63, 100
1, 133578, Note_off_c, 3, 58, 100
1, 133578, Note_on_c, 4, 55, 125
1, 133578, Note_on_c, 2, 72, 127
1, 133582, Note_off_c, 3, 65, 100
1, 133586, Note_off_c, 2, 74, 100
1, 133624, Note_on_c, 3, 65, 127
1, 133671, Note_on_c, 2, 70, 127
1, 133671, Note_on_c, 3, 63, 127
1, 133675, Note_off_c, 3, 65, 100
1, 133677, Note_off_c, 2, 72, 100
1, 133716, Note_on_c, 3, 65, 127
1, 133720, Note_off_c, 3, 63, 100
1, 133763, Note_off_c, 4, 55, 100
1, 133764, Note_on_c, 2, 69, 127
1, 133764, Note_on_c, 3, 65, 127
1, 133764, Note_on_c, 4, 53, 125
1, 133766, Note_off_c, 3, 65, 100
1, 133770, Note_off_c, 2, 70, 100
1, 133807, Note_on_c, 2, 77, 122
1, 133811, Note_off_c, 2, 69, 100
1, 133851, Note_on_c, 2, 72, 127
1, 133857, Note_off_c, 2, 77, 100
1, 133884, Note_off_c, 4, 53, 100
1, 133884, Note_off_c, 3, 65, 100
1, 133898, Note_on_c, 2, 69, 127
1, 133902, Note_off_c, 2, 72, 100
1, 133941, Note_on_c, 3, 65, 127
1, 133946, Note_off_c, 2, 69, 100
1, 133987, Note_on_c, 3, 60, 125
1, 133990, Note_off_c, 3, 65, 100
1, 134031, Note_on_c, 3, 57, 125
1, 134034, Note_off_c, 3, 60, 100
1, 134083, Note_on_c, 4, 53, 125
1, 134088, Note_off_c, 3, 57, 100
1, 134148, Note_on_c, 4, 41, 125
1, 134148, Note_on_c, 4, 29, 125
1, 134174, Note_off_c, 4, 53, 100
1, 134270, Note_off_c, 4, 29, 100
1, 134483, Note_off_c, 4, 41, 100
1, 134484, Note_on_c, 4, 46, 125
1, 134484, Note_on_c, 4, 34, 125
1, 134484, Note_on_c, 4, 53, 125
1, 134502, Note_on_c, 3, 58, 125
1, 134511, Note_on_c, 3, 62, 127
1, 134539, Note_on_c, 3, 65, 127
1, 134746, Note_off_c, 3, 65, 100
1, 134761, Note_off_c, 4, 53, 100
1, 134762, Note_on_c, 3, 67, 127
1, 134774, Note_off_c, 3, 58, 100
1, 134780, Note_off_c, 3, 62, 100
1, 134807, Note_on_c, 3, 65, 127
1, 134810, Note_off_c, 3, 67, 100
1, 134855, Note_on_c, 3, 63, 127
1, 134860, Note_off_c, 3, 65, 100
1, 134949, Note_on_c, 3, 62, 127
1, 134956, Note_off_c, 3, 63, 100
1, 135041, Note_on_c, 3, 60, 125
1, 135048, Note_off_c, 3, 62, 100
1, 135129, Note_on_c, 3, 58, 125
1, 135137, Note_off_c, 3, 60, 100
1, 135212, Note_off_c, 3, 58, 100
1, 135219, Note_on_c, 3, 58, 125
1, 135313, Note_on_c, 3, 67, 127
1, 135323, Note_off_c, 3, 58, 100
1, 135400, Note_off_c, 3, 67, 100
1, 135408, Note_off_c, 4, 34, 100
1, 135408, Note_off_c, 4, 46, 100
1, 135408, Note_on_c, 3, 67, 127
1, 135409, Note_on_c, 3, 58, 125
1, 135409, Note_on_c, 4, 51, 125
1, 135410, Note_on_c, 4, 39, 125
1, 135670, Note_off_c, 3, 67, 100
1, 135670, Note_off_c, 3, 58, 100
1, 135671, Note_on_c, 3, 65, 127
1, 135767, Note_off_c, 4, 51, 100
1, 135767, Note_off_c, 4, 39, 100
1, 135768, Note_on_c, 2, 69, 127
1, 135768, Note_on_c, 4, 50, 125
1, 135772, Note_off_c, 3, 65, 100
1, 135857, Note_on_c, 2, 70, 127
1, 135863, Note_off_c, 2, 69, 100
1, 135936, Note_off_c, 2, 70, 100
1, 135944, Note_off_c, 4, 50, 100
1, 135944, Note_on_c, 2, 70, 127
1, 135945, Note_on_c, 4, 55, 125
1, 135945, Note_on_c, 4, 52, 125
1, 136035, Note_on_c, 3, 60, 125
1, 136131, Note_off_c, 2, 70, 100
1, 136131, Note_off_c, 4, 52, 100
1, 136131, Note_off_c, 4, 55, 100
1, 136132, Note_on_c, 4, 53, 125
1, 136223, Note_off_c, 3, 60, 100
1, 136223, Note_on_c, 3, 62, 127
1, 136314, Note_off_c, 4, 53, 100
1, 136315, Note_on_c, 2, 70, 127
1, 136315, Note_on_c, 4, 55, 125
1, 136316, Note_on_c, 4, 52, 125
1, 136403, Note_off_c, 3, 62, 100
1, 136403, Note_on_c, 3, 60, 125
1, 136496, Note_off_c, 4, 55, 100
1, 136496, Note_off_c, 4, 52, 100
1, 136497, Note_off_c, 2, 70, 100
1, 136497, Note_on_c, 4, 53, 125
1, 136588, Note_off_c, 3, 60, 100
1, 136588, Note_on_c, 3, 62, 127
1, 136681, Note_off_c, 4, 53, 100
1, 136681, Note_on_c, 3, 65, 127
1, 136682, Note_on_c, 4, 55, 125
1, 136689, Note_off_c, 3, 62, 100
1, 136861, Note_off_c, 4, 55, 100
1, 136862, Note_off_c, 3, 65, 100
1, 136862, Note_on_c, 3, 63, 127
1, 136863, Note_on_c, 3, 57, 125
1, 136946, Note_off_c, 3, 63, 100
1, 136946, Note_on_c, 3, 62, 127
1, 136991, Note_on_c, 3, 63, 127
1, 136995, Note_off_c, 3, 62, 100
1, 137035, Note_off_c, 3, 57, 100
1, 137036, Note_on_c, 3, 58, 125
1, 137036, Note_on_c, 3, 62, 127
1, 137040, Note_off_c, 3, 63, 100
1, 137117, Note_off_c, 3, 62, 100
1, 137124, Note_on_c, 3, 62, 127
1, 137211, Note_on_c, 3, 63, 127
1, 137219, Note_off_c, 3, 62, 100
1, 137303, Note_on_c, 3, 65, 127
1, 137311, Note_off_c, 3, 63, 100
1, 137396, Note_on_c, 3, 66, 127
1, 137404, Note_off_c, 3, 65, 100
1, 137471, Note_off_c, 3, 58, 100
1, 137485, Note_on_c, 3, 67, 127
1, 137485, Note_on_c, 4, 39, 125
1, 137493, Note_off_c, 3, 66, 100
1, 137574, Note_on_c, 4, 43, 125
1, 137581, Note_off_c, 4, 39, 100
1, 137662, Note_off_c, 3, 67, 100
1, 137663, Note_on_c, 3, 65, 127
1, 137663, Note_on_c, 4, 48, 125
1, 137669, Note_off_c, 4, 43, 100
1, 137710, Note_on_c, 3, 63, 127
1, 137713, Note_off_c, 3, 65, 100
1, 137749, Note_on_c, 3, 62, 127
1, 137750, Note_on_c, 4, 51, 125
1, 137754, Note_off_c, 3, 63, 100
1, 137756, Note_off_c, 4, 48, 100
1, 137841, Note_on_c, 3, 60, 125
1, 137848, Note_off_c, 3, 62, 100
1, 137927, Note_on_c, 3, 62, 127
1, 137933, Note_off_c, 3, 60, 100
1, 138012, Note_on_c, 3, 63, 127
1, 138021, Note_off_c, 3, 62, 100
1, 138106, Note_on_c, 3, 67, 127
1, 138112, Note_off_c, 3, 63, 100
1, 138181, Note_off_c, 4, 51, 100
1, 138197, Note_on_c, 3, 65, 127
1, 138197, Note_on_c, 4, 38, 125
1, 138205, Note_off_c, 3, 67, 100
1, 138286, Note_on_c, 4, 41, 125
1, 138292, Note_off_c, 4, 38, 100
1, 138373, Note_off_c, 3, 65, 100
1, 138374, Note_on_c, 3, 63, 127
1, 138374, Note_on_c, 4, 46, 125
1, 138380, Note_off_c, 4, 41, 100
1, 138419, Note_on_c, 3, 62, 127
1, 138424, Note_off_c, 3, 63, 100
1, 138465, Note_on_c, 4, 50, 125
1, 138465, Note_on_c, 3, 60, 125
1, 138469, Note_off_c, 3, 62, 100
1, 138472, Note_off_c, 4, 46, 100
1, 138554, Note_on_c, 3, 58, 125
1, 138562, Note_off_c, 3, 60, 100
1, 138646, Note_on_c, 3, 60, 125
1, 138653, Note_off_c, 3, 58, 100
1, 138738, Note_on_c, 3, 62, 127
1, 138745, Note_off_c, 3, 60, 100
1, 138832, Note_off_c, 4, 50, 100
1, 138832, Note_on_c, 3, 65, 127
1, 138833, Note_on_c, 4, 48, 125
1, 138840, Note_off_c, 3, 62, 100
1, 138928, Note_on_c, 3, 63, 127
1, 138936, Note_off_c, 3, 65, 100
1, 139021, Note_off_c, 4, 48, 100
1, 139021, Note_on_c, 4, 45, 125
1, 139101, Note_off_c, 3, 63, 100
1, 139101, Note_on_c, 3, 60, 125
1, 139190, Note_off_c, 4, 45, 100
1, 139190, Note_on_c, 3, 63, 127
1, 139191, Note_on_c, 4, 46, 125
1, 139197, Note_off_c, 3, 60, 100
1, 139277, Note_on_c, 3, 62, 127
1, 139285, Note_off_c, 3, 63, 100
1, 139361, Note_off_c, 4, 46, 100
1, 139361, Note_on_c, 4, 43, 125
1, 139450, Note_off_c, 3, 62, 100
1, 139451, Note_on_c, 3, 58, 125
1, 139537, Note_off_c, 4, 43, 100
1, 139538, Note_on_c, 4, 41, 125
1, 139538, Note_on_c, 3, 57, 125
1, 139544, Note_off_c, 3, 58, 100
1, 139584, Note_on_c, 3, 58, 125
1, 139589, Note_off_c, 3, 57, 100
1, 139630, Note_on_c, 3, 59, 125
1, 139633, Note_off_c, 3, 58, 100
1, 139674, Note_on_c, 3, 60, 125
1, 139678, Note_off_c, 3, 59, 100
1, 139716, Note_on_c, 3, 61, 125
1, 139721, Note_off_c, 3, 60, 100
1, 139759, Note_on_c, 3, 62, 127
1, 139763, Note_off_c, 3, 61, 100
1, 139801, Note_on_c, 3, 63, 127
1, 139805, Note_off_c, 3, 62, 100
1, 139844, Note_on_c, 3, 64, 127
1, 139848, Note_off_c, 3, 63, 100
1, 139888, Note_on_c, 3, 65, 127
1, 139888, Note_on_c, 4, 53, 125
1, 139893, Note_off_c, 3, 64, 100
1, 139937, Note_on_c, 4, 55, 125
1, 139943, Note_off_c, 4, 53, 100
1, 139979, Note_on_c, 4, 51, 125
1, 139983, Note_off_c, 4, 55, 100
1, 140023, Note_on_c, 4, 53, 125
1, 140027, Note_off_c, 4, 51, 100
1, 140066, Note_on_c, 4, 50, 125
1, 140070, Note_off_c, 4, 53, 100
1, 140114, Note_on_c, 4, 51, 125
1, 140118, Note_off_c, 4, 50, 100
1, 140157, Note_on_c, 4, 48, 125
1, 140160, Note_off_c, 4, 51, 100
1, 140203, Note_on_c, 4, 50, 125
1, 140207, Note_off_c, 4, 48, 100
1, 140239, Note_off_c, 3, 65, 100
1, 140247, Note_off_c, 4, 41, 100
1, 140247, Note_on_c, 2, 70, 127
1, 140248, Note_on_c, 4, 46, 125
1, 140248, Note_on_c, 3, 65, 127
1, 140249, Note_on_c, 2, 74, 126
1, 140251, Note_off_c, 4, 50, 100
1, 140253, Note_on_c, 2, 77, 122
1, 140433, Note_on_c, 3, 58, 125
1, 140531, Note_on_c, 1, 79, 119
1, 140537, Note_off_c, 2, 77, 100
1, 140564, Note_off_c, 2, 74, 100
1, 140576, Note_on_c, 2, 77, 122
1, 140579, Note_off_c, 1, 79, 100
1, 140619, Note_on_c, 2, 75, 124
1, 140623, Note_off_c, 2, 77, 100
1, 140713, Note_off_c, 2, 70, 100
1, 140714, Note_on_c, 2, 74, 126
1, 140720, Note_off_c, 2, 75, 100
1, 140801, Note_on_c, 2, 72, 127
1, 140809, Note_off_c, 2, 74, 100
1, 140865, Note_off_c, 3, 65, 100
1, 140893, Note_on_c, 2, 70, 127
1, 140901, Note_off_c, 2, 72, 100
1, 140978, Note_off_c, 2, 70, 100
1, 140986, Note_on_c, 2, 70, 127
1, 141074, Note_on_c, 1, 79, 119
1, 141082, Note_off_c, 2, 70, 100
1, 141158, Note_off_c, 1, 79, 100
1, 141168, Note_off_c, 4, 46, 100
1, 141168, Note_on_c, 1, 79, 119
1, 141168, Note_on_c, 2, 70, 127
1, 141330, Note_off_c, 3, 58, 100
1, 141346, Note_on_c, 4, 51, 125
1, 141346, Note_on_c, 3, 63, 127
1, 141441, Note_off_c, 2, 70, 100
1, 141441, Note_off_c, 1, 79, 100
1, 141442, Note_on_c, 2, 77, 122
1, 141526, Note_off_c, 3, 63, 100
1, 141527, Note_on_c, 1, 81, 119
1, 141527, Note_on_c, 3, 62, 127
1, 141534, Note_off_c, 2, 77, 100
1, 141620, Note_on_c, 1, 82, 118
1, 141628, Note_off_c, 1, 81, 100
1, 141701, Note_off_c, 1, 82, 100
1, 141710, Note_off_c, 3, 62, 100
1, 141711, Note_on_c, 3, 67, 127
1, 141711, Note_on_c, 1, 82, 118
1, 141712, Note_on_c, 3, 64, 127
1, 141797, Note_on_c, 2, 72, 127
1, 141804, Note_off_c, 1, 82, 100
1, 141889, Note_off_c, 3, 67, 100
1, 141889, Note_off_c, 3, 64, 100
1, 141890, Note_on_c, 2, 74, 126
1, 141890, Note_on_c, 3, 65, 127
1, 141897, Note_off_c, 2, 72, 100
1, 141979, Note_on_c, 1, 82, 118
1, 141987, Note_off_c, 2, 74, 100
1, 142059, Note_off_c, 1, 82, 100
1, 142067, Note_off_c, 3, 65, 100
1, 142067, Note_on_c, 1, 82, 118
1, 142068, Note_on_c, 3, 67, 127
1, 142068, Note_on_c, 3, 64, 127
1, 142159, Note_on_c, 2, 72, 127
1, 142166, Note_off_c, 1, 82, 100
1, 142251, Note_off_c, 3, 64, 100
1, 142251, Note_off_c, 3, 67, 100
1, 142252, Note_on_c, 2, 74, 126
1, 142252, Note_on_c, 3, 65, 127
1, 142257, Note_off_c, 2, 72, 100
1, 142343, Note_on_c, 1, 82, 118
1, 142351, Note_off_c, 2, 74, 100
1, 142433, Note_off_c, 3, 65, 100
1, 142434, Note_on_c, 2, 77, 122
1, 142434, Note_on_c, 2, 70, 127
1, 142435, Note_on_c, 3, 67, 127
1, 142441, Note_off_c, 1, 82, 100
1, 142612, Note_off_c, 2, 70, 100
1, 142612, Note_off_c, 3, 67, 100
1, 142613, Note_off_c, 2, 77, 100
1, 142613, Note_on_c, 2, 75, 124
1, 142614, Note_on_c, 2, 72, 127
1, 142614, Note_on_c, 2, 69, 127
1, 142699, Note_off_c, 2, 75, 100
1, 142707, Note_on_c, 2, 75, 124
1, 142796, Note_off_c, 2, 69, 100
1, 142796, Note_off_c, 2, 72, 100
1, 142796, Note_on_c, 2, 74, 126
1, 142797, Note_on_c, 2, 70, 127
1, 142801, Note_off_c, 2, 75, 100
1, 142874, Note_off_c, 2, 74, 100
1, 142882, Note_on_c, 2, 74, 126
1, 142972, Note_on_c, 2, 75, 124
1, 142980, Note_off_c, 2, 74, 100
1, 143066, Note_on_c, 2, 77, 122
1, 143074, Note_off_c, 2, 75, 100
1, 143080, Note_off_c, 4, 51, 100
1, 143153, Note_on_c, 1, 78, 119
1, 143160, Note_off_c, 2, 77, 100
1, 143233, Note_off_c, 2, 70, 100
1, 143249, Note_on_c, 1, 79, 119
1, 143249, Note_on_c, 4, 55, 125
1, 143256, Note_off_c, 1, 78, 100
1, 143340, Note_on_c, 3, 67, 127
1, 143432, Note_off_c, 4, 55, 100
1, 143433, Note_off_c, 1, 79, 100
1, 143433, Note_on_c, 3, 65, 127
1, 143433, Note_on_c, 1, 81, 119
1, 143442, Note_off_c, 3, 67, 100
1, 143480, Note_on_c, 1, 83, 118
1, 143485, Note_off_c, 1, 81, 100
1, 143526, Note_on_c, 1, 84, 123
1, 143527, Note_on_c, 3, 63, 127
1, 143531, Note_off_c, 1, 83, 100
1, 143535, Note_off_c, 3, 65, 100
1, 143571, Note_on_c, 1, 86, 125
1, 143577, Note_off_c, 1, 84, 100
1, 143617, Note_on_c, 1, 87, 122
1, 143618, Note_on_c, 4, 51, 125
1, 143622, Note_off_c, 1, 86, 100
1, 143624, Note_off_c, 3, 63, 100
1, 143663, Note_on_c, 1, 86, 125
1, 143666, Note_off_c, 1, 87, 100
1, 143707, Note_on_c, 1, 84, 123
1, 143707, Note_on_c, 3, 63, 127
1, 143711, Note_off_c, 1, 86, 100
1, 143756, Note_on_c, 1, 86, 125
1, 143760, Note_off_c, 1, 84, 100
1, 143800, Note_off_c, 4, 51, 100
1, 143800, Note_on_c, 1, 82, 118
1, 143801, Note_on_c, 3, 62, 127
1, 143804, Note_off_c, 1, 86, 100
1, 143807, Note_off_c, 3, 63, 100
1, 143845, Note_on_c, 1, 84, 123
1, 143849, Note_off_c, 1, 82, 100
1, 143891, Note_on_c, 1, 81, 119
1, 143892, Note_on_c, 3, 60, 125
1, 143895, Note_off_c, 1, 84, 100
1, 143900, Note_off_c, 3, 62, 100
1, 143938, Note_on_c, 1, 82, 118
1, 143942, Note_off_c, 1, 81, 100
1, 143980, Note_on_c, 1, 79, 119
1, 143981, Note_on_c, 3, 58, 125
1, 143985, Note_off_c, 1, 82, 100
1, 143989, Note_off_c, 3, 60, 100
1, 144025, Note_on_c, 1, 81, 119
1, 144029, Note_off_c, 1, 79, 100
1, 144068, Note_on_c, 2, 77, 122
1, 144068, Note_on_c, 3, 57, 125
1, 144072, Note_off_c, 1, 81, 100
1, 144076, Note_off_c, 3, 58, 100
1, 144115, Note_on_c, 1, 79, 119
1, 144119, Note_off_c, 2, 77, 100
1, 144159, Note_on_c, 4, 53, 125
1, 144159, Note_on_c, 2, 75, 124
1, 144164, Note_off_c, 1, 79, 100
1, 144166, Note_off_c, 3, 57, 100
1, 144202, Note_on_c, 2, 77, 122
1, 144208, Note_off_c, 2, 75, 100
1, 144246, Note_on_c, 2, 74, 126
1, 144247, Note_on_c, 3, 58, 125
1, 144251, Note_off_c, 2, 77, 100
1, 144253, Note_off_c, 4, 53, 100
1, 144289, Note_on_c, 2, 75, 124
1, 144293, Note_off_c, 2, 74, 100
1, 144332, Note_on_c, 2, 77, 122
1, 144336, Note_off_c, 2, 75, 100
1, 144375, Note_on_c, 1, 79, 119
1, 144379, Note_off_c, 2, 77, 100
1, 144419, Note_off_c, 3, 58, 100
1, 144420, Note_on_c, 4, 50, 125
1, 144420, Note_on_c, 1, 81, 119
1, 144422, Note_off_c, 1, 79, 100
1, 144458, Note_on_c, 1, 82, 118
1, 144462, Note_off_c, 1, 81, 100
1, 144503, Note_on_c, 1, 81, 119
1, 144506, Note_off_c, 1, 82, 100
1, 144545, Note_on_c, 1, 82, 118
1, 144551, Note_off_c, 1, 81, 100
1, 144589, Note_off_c, 4, 50, 100
1, 144589, Note_on_c, 1, 84, 123
1, 144590, Note_on_c, 4, 51, 125
1, 144593, Note_off_c, 1, 82, 100
1, 144637, Note_on_c, 1, 82, 118
1, 144641, Note_off_c, 1, 84, 100
1, 144681, Note_on_c, 1, 81, 119
1, 144687, Note_off_c, 1, 82, 100
1, 144728, Note_on_c, 1, 79, 119
1, 144732, Note_off_c, 1, 81, 100
1, 144772, Note_off_c, 4, 51, 100
1, 144773, Note_on_c, 1, 81, 119
1, 144773, Note_on_c, 3, 63, 127
1, 144776, Note_off_c, 1, 79, 100
1, 144818, Note_on_c, 1, 79, 119
1, 144822, Note_off_c, 1, 81, 100
1, 144863, Note_on_c, 2, 77, 122
1, 144866, Note_off_c, 1, 79, 100
1, 144907, Note_on_c, 2, 75, 124
1, 144911, Note_off_c, 2, 77, 100
1, 144953, Note_off_c, 3, 63, 100
1, 144953, Note_on_c, 2, 74, 126
1, 144954, Note_on_c, 3, 65, 127
1, 144958, Note_off_c, 2, 75, 100
1, 145128, Note_off_c, 3, 65, 100
1, 145129, Note_off_c, 2, 74, 100
1, 145129, Note_on_c, 2, 72, 127
1, 145130, Note_on_c, 2, 69, 127
1, 145130, Note_on_c, 4, 53, 125
1, 145213, Note_off_c, 2, 72, 100
1, 145213, Note_off_c, 2, 69, 100
1, 145214, Note_on_c, 2, 70, 127
1, 145258, Note_on_c, 2, 72, 127
1, 145262, Note_off_c, 2, 70, 100
1, 145306, Note_off_c, 4, 53, 100
1, 145307, Note_on_c, 2, 70, 127
1, 145307, Note_on_c, 3, 58, 125
1, 145311, Note_off_c, 2, 72, 100
1, 145355, Note_on_c, 3, 65, 127
1, 145395, Note_off_c, 3, 58, 100
1, 145401, Note_on_c, 3, 64, 127
1, 145409, Note_off_c, 3, 65, 100
1, 145450, Note_on_c, 3, 65, 127
1, 145457, Note_off_c, 3, 64, 100
1, 145498, Note_on_c, 3, 67, 127
1, 145505, Note_off_c, 3, 65, 100
1, 145546, Note_on_c, 3, 65, 127
1, 145553, Note_off_c, 3, 67, 100
1, 145594, Note_on_c, 3, 64, 127
1, 145599, Note_off_c, 3, 65, 100
1, 145636, Note_on_c, 3, 65, 127
1, 145644, Note_off_c, 3, 64, 100
1, 145682, Note_on_c, 3, 64, 127
1, 145690, Note_off_c, 3, 65, 100
1, 145728, Note_on_c, 3, 65, 127
1, 145734, Note_off_c, 3, 64, 100
1, 145772, Note_on_c, 3, 62, 127
1, 145778, Note_off_c, 3, 65, 100
1, 145816, Note_on_c, 3, 65, 127
1, 145854, Note_off_c, 3, 62, 100
1, 145860, Note_on_c, 3, 60, 125
1, 145867, Note_off_c, 3, 65, 100
1, 145906, Note_on_c, 3, 65, 127
1, 145942, Note_off_c, 3, 60, 100
1, 145950, Note_on_c, 3, 60, 125
1, 145956, Note_off_c, 3, 65, 100
1, 145996, Note_on_c, 3, 65, 127
1, 146032, Note_off_c, 3, 60, 100
1, 146038, Note_off_c, 2, 70, 100
1, 146039, Note_on_c, 2, 75, 124
1, 146039, Note_on_c, 3, 57, 125
1, 146047, Note_off_c, 3, 65, 100
1, 146085, Note_on_c, 3, 65, 127
1, 146123, Note_off_c, 3, 57, 100
1, 146129, Note_on_c, 2, 72, 127
1, 146130, Note_on_c, 3, 60, 125
1, 146136, Note_off_c, 3, 65, 100
1, 146136, Note_off_c, 2, 75, 100
1, 146173, Note_on_c, 3, 65, 127
1, 146212, Note_off_c, 3, 60, 100
1, 146220, Note_on_c, 2, 69, 127
1, 146220, Note_on_c, 3, 64, 127
1, 146226, Note_off_c, 3, 65, 100
1, 146227, Note_off_c, 2, 72, 100
1, 146264, Note_on_c, 3, 65, 127
1, 146271, Note_off_c, 3, 64, 100
1, 146302, Note_off_c, 2, 69, 100
1, 146310, Note_on_c, 2, 69, 127
1, 146310, Note_on_c, 3, 64, 127
1, 146318, Note_off_c, 3, 65, 100
1, 146355, Note_on_c, 3, 65, 127
1, 146363, Note_off_c, 3, 64, 100
1, 146400, Note_on_c, 2, 75, 124
1, 146400, Note_on_c, 3, 57, 125
1, 146407, Note_off_c, 3, 65, 100
1, 146407, Note_off_c, 2, 69, 100
1, 146446, Note_on_c, 3, 65, 127
1, 146483, Note_off_c, 3, 57, 100
1, 146490, Note_on_c, 2, 72, 127
1, 146491, Note_on_c, 3, 60, 125
1, 146497, Note_off_c, 3, 65, 100
1, 146497, Note_off_c, 2, 75, 100
1, 146536, Note_on_c, 3, 65, 127
1, 146573, Note_off_c, 3, 60, 100
1, 146580, Note_on_c, 2, 69, 127
1, 146580, Note_on_c, 3, 64, 127
1, 146588, Note_off_c, 3, 65, 100
1, 146589, Note_off_c, 2, 72, 100
1, 146624, Note_on_c, 3, 65, 127
1, 146631, Note_off_c, 3, 64, 100
1, 146660, Note_off_c, 2, 69, 100
1, 146668, Note_on_c, 2, 69, 127
1, 146668, Note_on_c, 3, 64, 127
1, 146675, Note_off_c, 3, 65, 100
1, 146711, Note_on_c, 3, 65, 127
1, 146717, Note_off_c, 3, 64, 100
1, 146757, Note_on_c, 2, 70, 127
1, 146758, Note_on_c, 3, 62, 127
1, 146764, Note_off_c, 3, 65, 100
1, 146764, Note_off_c, 2, 69, 100
1, 146803, Note_on_c, 3, 65, 127
1, 146840, Note_off_c, 3, 62, 100
1, 146847, Note_on_c, 2, 72, 127
1, 146848, Note_on_c, 3, 57, 125
1, 146854, Note_off_c, 3, 65, 100
1, 146855, Note_off_c, 2, 70, 100
1, 146890, Note_on_c, 3, 65, 127
1, 146929, Note_off_c, 3, 57, 100
1, 146937, Note_on_c, 2, 74, 126
1, 146937, Note_on_c, 3, 59, 125
1, 146945, Note_off_c, 3, 65, 100
1, 146946, Note_off_c, 2, 72, 100
1, 146981, Note_on_c, 3, 65, 127
1, 147017, Note_off_c, 3, 59, 100
1, 147023, Note_on_c, 2, 75, 124
1, 147024, Note_on_c, 3, 60, 125
1, 147032, Note_off_c, 3, 65, 100
1, 147032, Note_off_c, 2, 74, 100
1, 147069, Note_on_c, 3, 65, 127
1, 147109, Note_off_c, 3, 60, 100
1, 147115, Note_on_c, 2, 76, 122
1, 147116, Note_on_c, 3, 61, 125
1, 147122, Note_off_c, 3, 65, 100
1, 147122, Note_off_c, 2, 75, 100
1, 147157, Note_on_c, 3, 65, 127
1, 147196, Note_off_c, 3, 61, 100
1, 147202, Note_on_c, 2, 77, 122
1, 147202, Note_on_c, 3, 62, 127
1, 147208, Note_off_c, 3, 65, 100
1, 147209, Note_off_c, 2, 76, 100
1, 147244, Note_on_c, 3, 65, 127
1, 147284, Note_off_c, 3, 62, 100
1, 147292, Note_on_c, 2, 76, 122
1, 147292, Note_on_c, 3, 61, 125
1, 147299, Note_off_c, 3, 65, 100
1, 147299, Note_off_c, 2, 77, 100
1, 147334, Note_on_c, 3, 65, 127
1, 147367, Note_off_c, 3, 61, 100
1, 147372, Note_on_c, 2, 77, 122
1, 147373, Note_on_c, 3, 62, 127
1, 147381, Note_off_c, 3, 65, 100
1, 147382, Note_off_c, 2, 76, 100
1, 147415, Note_on_c, 3, 65, 127
1, 147455, Note_off_c, 3, 62, 100
1, 147463, Note_on_c, 1, 87, 116
1, 147463, Note_on_c, 3, 57, 125
1, 147464, Note_on_c, 2, 75, 125
1, 147470, Note_off_c, 3, 65, 100
1, 147470, Note_off_c, 2, 77, 100
1, 147509, Note_on_c, 3, 65, 127
1, 147549, Note_off_c, 3, 57, 100
1, 147555, Note_on_c, 1, 84, 117
1, 147555, Note_on_c, 3, 60, 125
1, 147556, Note_on_c, 2, 72, 127
1, 147564, Note_off_c, 3, 65, 100
1, 147564, Note_off_c, 2, 75, 100
1, 147564, Note_off_c, 1, 87, 100
1, 147603, Note_on_c, 3, 65, 127
1, 147641, Note_off_c, 3, 60, 100
1, 147647, Note_on_c, 1, 81, 113
1, 147648, Note_on_c, 2, 69, 127
1, 147648, Note_on_c, 3, 64, 127
1, 147654, Note_off_c, 3, 65, 100
1, 147655, Note_off_c, 1, 84, 100
1, 147655, Note_off_c, 2, 72, 100
1, 147692, Note_on_c, 3, 65, 127
1, 147700, Note_off_c, 3, 64, 100
1, 147729, Note_off_c, 2, 69, 100
1, 147729, Note_off_c, 1, 81, 100
1, 147735, Note_on_c, 1, 81, 113
1, 147736, Note_on_c, 2, 69, 127
1, 147736, Note_on_c, 3, 64, 127
1, 147744, Note_off_c, 3, 65, 100
1, 147780, Note_on_c, 3, 65, 127
1, 147787, Note_off_c, 3, 64, 100
1, 147824, Note_on_c, 1, 87, 116
1, 147824, Note_on_c, 3, 57, 125
1, 147825, Note_on_c, 2, 75, 125
1, 147830, Note_off_c, 3, 65, 100
1, 147831, Note_off_c, 2, 69, 100
1, 147831, Note_off_c, 1, 81, 100
1, 147868, Note_on_c, 3, 65, 127
1, 147906, Note_off_c, 3, 57, 100
1, 147914, Note_on_c, 1, 84, 117
1, 147914, Note_on_c, 3, 60, 125
1, 147915, Note_on_c, 2, 72, 127
1, 147923, Note_off_c, 3, 65, 100
1, 147923, Note_off_c, 1, 87, 100
1, 147924, Note_off_c, 2, 75, 100
1, 147960, Note_on_c, 3, 65, 127
1, 147997, Note_off_c, 3, 60, 100
1, 148004, Note_on_c, 1, 81, 113
1, 148005, Note_on_c, 2, 69, 127
1, 148005, Note_on_c, 3, 64, 127
1, 148011, Note_off_c, 3, 65, 100
1, 148012, Note_off_c, 2, 72, 100
1, 148012, Note_off_c, 1, 84, 100
1, 148049, Note_on_c, 3, 65, 127
1, 148056, Note_off_c, 3, 64, 100
1, 148085, Note_off_c, 1, 81, 100
1, 148086, Note_off_c, 2, 69, 100
1, 148092, Note_on_c, 1, 81, 115
1, 148092, Note_on_c, 2, 69, 127
1, 148092, Note_on_c, 3, 64, 127
1, 148099, Note_off_c, 3, 65, 100
1, 148137, Note_on_c, 3, 65, 127
1, 148145, Note_off_c, 3, 64, 100
1, 148177, Note_on_c, 1, 82, 114
1, 148178, Note_on_c, 2, 70, 127
1, 148178, Note_on_c, 3, 62, 127
1, 148184, Note_off_c, 3, 65, 100
1, 148185, Note_off_c, 2, 69, 100
1, 148185, Note_off_c, 1, 81, 100
1, 148224, Note_on_c, 3, 65, 127
1, 148262, Note_off_c, 3, 62, 100
1, 148270, Note_on_c, 1, 84, 119
1, 148270, Note_on_c, 3, 57, 125
1, 148271, Note_on_c, 2, 72, 127
1, 148276, Note_off_c, 3, 65, 100
1, 148277, Note_off_c, 2, 70, 100
1, 148277, Note_off_c, 1, 82, 100
1, 148314, Note_on_c, 3, 65, 127
1, 148351, Note_off_c, 3, 57, 100
1, 148359, Note_on_c, 1, 86, 121
1, 148359, Note_on_c, 3, 59, 125
1, 148360, Note_on_c, 2, 74, 127
1, 148366, Note_off_c, 3, 65, 100
1, 148366, Note_off_c, 1, 84, 100
1, 148367, Note_off_c, 2, 72, 100
1, 148404, Note_on_c, 3, 65, 127
1, 148440, Note_off_c, 3, 59, 100
1, 148448, Note_on_c, 1, 87, 118
1, 148449, Note_on_c, 2, 75, 127
1, 148449, Note_on_c, 3, 60, 125
1, 148455, Note_off_c, 3, 65, 100
1, 148455, Note_off_c, 1, 86, 100
1, 148456, Note_off_c, 2, 74, 100
1, 148489, Note_on_c, 3, 65, 127
1, 148524, Note_off_c, 3, 60, 100
1, 148532, Note_on_c, 1, 88, 118
1, 148532, Note_on_c, 3, 61, 125
1, 148533, Note_on_c, 2, 76, 125
1, 148538, Note_off_c, 3, 65, 100
1, 148539, Note_off_c, 2, 75, 100
1, 148539, Note_off_c, 1, 87, 100
1, 148574, Note_on_c, 3, 65, 127
1, 148608, Note_off_c, 3, 61, 100
1, 148614, Note_on_c, 1, 89, 118
1, 148615, Note_on_c, 2, 77, 122
1, 148615, Note_on_c, 3, 62, 127
1, 148621, Note_off_c, 3, 65, 100
1, 148621, Note_off_c, 1, 88, 100
1, 148622, Note_off_c, 2, 76, 100
1, 148658, Note_on_c, 3, 65, 127
1, 148701, Note_off_c, 3, 62, 100
1, 148708, Note_on_c, 1, 88, 118
1, 148709, Note_on_c, 3, 61, 125
1, 148710, Note_on_c, 2, 76, 125
1, 148716, Note_off_c, 3, 65, 100
1, 148716, Note_off_c, 1, 89, 100
1, 148717, Note_off_c, 2, 77, 100
1, 148752, Note_on_c, 3, 65, 127
1, 148786, Note_off_c, 3, 61, 100
1, 148794, Note_on_c, 1, 89, 118
1, 148794, Note_on_c, 3, 62, 127
1, 148795, Note_on_c, 2, 77, 122
1, 148800, Note_off_c, 3, 65, 100
1, 148801, Note_off_c, 1, 88, 100
1, 148801, Note_off_c, 2, 76, 100
1, 148834, Note_on_c, 3, 65, 127
1, 148872, Note_off_c, 3, 62, 100
1, 148880, Note_on_c, 1, 79, 119
1, 148881, Note_on_c, 3, 67, 127
1, 148886, Note_off_c, 3, 65, 100
1, 148888, Note_off_c, 1, 89, 100
1, 148888, Note_off_c, 2, 77, 100
1, 148974, Note_on_c, 4, 51, 125
1, 149068, Note_on_c, 4, 50, 125
1, 149078, Note_off_c, 4, 51, 100
1, 149161, Note_on_c, 4, 51, 125
1, 149169, Note_off_c, 4, 50, 100
1, 149252, Note_off_c, 1, 79, 100
1, 149252, Note_on_c, 2, 69, 127
1, 149253, Note_off_c, 3, 67, 100
1, 149253, Note_on_c, 3, 57, 125
1, 149346, Note_off_c, 4, 51, 100
1, 149346, Note_on_c, 4, 53, 125
1, 149435, Note_on_c, 4, 52, 125
1, 149443, Note_off_c, 4, 53, 100
1, 149523, Note_on_c, 4, 53, 125
1, 149531, Note_off_c, 4, 52, 100
1, 149616, Note_off_c, 2, 69, 100
1, 149616, Note_off_c, 3, 57, 100
1, 149616, Note_on_c, 1, 87, 127
1, 149617, Note_on_c, 2, 75, 127
1, 149709, Note_off_c, 4, 53, 100
1, 149709, Note_on_c, 4, 54, 125
1, 149799, Note_on_c, 4, 52, 125
1, 149808, Note_off_c, 4, 54, 100
1, 149893, Note_on_c, 4, 54, 125
1, 149899, Note_off_c, 4, 52, 100
1, 149985, Note_off_c, 1, 87, 100
1, 149986, Note_off_c, 2, 75, 100
1, 149986, Note_on_c, 1, 86, 125
1, 149987, Note_on_c, 2, 74, 127
1, 150076, Note_off_c, 4, 54, 100
1, 150076, Note_on_c, 4, 55, 125
1, 150163, Note_on_c, 4, 54, 125
1, 150169, Note_off_c, 4, 55, 100
1, 150250, Note_on_c, 4, 55, 125
1, 150257, Note_off_c, 4, 54, 100
1, 150340, Note_off_c, 1, 86, 100
1, 150340, Note_off_c, 2, 74, 100
1, 150340, Note_on_c, 1, 86, 125
1, 150390, Note_on_c, 1, 84, 123
1, 150394, Note_off_c, 1, 86, 100
1, 150435, Note_on_c, 1, 87, 122
1, 150440, Note_off_c, 1, 84, 100
1, 150483, Note_on_c, 1, 86, 125
1, 150486, Note_off_c, 1, 87, 100
1, 150519, Note_off_c, 4, 55, 100
1, 150527, Note_on_c, 1, 89, 122
1, 150528, Note_on_c, 2, 72, 127
1, 150528, Note_on_c, 3, 64, 127
1, 150531, Note_off_c, 1, 86, 100
1, 150574, Note_on_c, 1, 87, 120
1, 150577, Note_off_c, 1, 89, 100
1, 150618, Note_on_c, 1, 86, 123
1, 150622, Note_off_c, 1, 87, 100
1, 150660, Note_on_c, 1, 84, 121
1, 150664, Note_off_c, 1, 86, 100
1, 150705, Note_off_c, 3, 64, 100
1, 150705, Note_off_c, 2, 72, 100
1, 150706, Note_on_c, 3, 65, 127
1, 150706, Note_on_c, 1, 82, 116
1, 150706, Note_on_c, 2, 74, 126
1, 150708, Note_off_c, 1, 84, 100
1, 150876, Note_off_c, 2, 74, 100
1, 150876, Note_off_c, 1, 82, 100
1, 150876, Note_on_c, 1, 81, 117
1, 150877, Note_on_c, 2, 75, 124
1, 151052, Note_off_c, 2, 75, 100
1, 151053, Note_off_c, 1, 81, 100
1, 151053, Note_off_c, 3, 65, 100
1, 151054, Note_on_c, 2, 74, 126
1, 151054, Note_on_c, 2, 71, 127
1, 151144, Note_on_c, 1, 82, 114
1, 151233, Note_on_c, 1, 81, 115
1, 151240, Note_off_c, 1, 82, 100
1, 151316, Note_on_c, 1, 82, 114
1, 151324, Note_off_c, 1, 81, 100
1, 151401, Note_off_c, 2, 71, 100
1, 151401, Note_off_c, 2, 74, 100
1, 151404, Note_on_c, 2, 74, 126
1, 151404, Note_on_c, 2, 71, 127
1, 151495, Note_off_c, 1, 82, 100
1, 151495, Note_on_c, 1, 80, 115
1, 151584, Note_on_c, 1, 79, 115
1, 151591, Note_off_c, 1, 80, 100
1, 151674, Note_on_c, 1, 80, 115
1, 151682, Note_off_c, 1, 79, 100
1, 151759, Note_off_c, 2, 71, 100
1, 151759, Note_off_c, 2, 74, 100
1, 151762, Note_on_c, 2, 74, 126
1, 151762, Note_on_c, 2, 77, 118
1, 151763, Note_on_c, 2, 71, 127
1, 151769, Note_off_c, 1, 80, 100
1, 151854, Note_on_c, 1, 79, 115
1, 151863, Note_off_c, 2, 77, 100
1, 151942, Note_on_c, 1, 78, 115
1, 151950, Note_off_c, 1, 79, 100
1, 152030, Note_on_c, 1, 79, 115
1, 152038, Note_off_c, 1, 78, 100
1, 152119, Note_off_c, 2, 74, 100
1, 152119, Note_off_c, 2, 71, 100
1, 152122, Note_on_c, 2, 76, 122
1, 152122, Note_on_c, 2, 72, 127
1, 152205, Note_off_c, 1, 79, 100
1, 152209, Note_on_c, 1, 79, 115
1, 152300, Note_on_c, 1, 87, 118
1, 152307, Note_off_c, 1, 79, 100
1, 152384, Note_off_c, 1, 87, 100
1, 152391, Note_on_c, 1, 87, 118
1, 152474, Note_off_c, 2, 72, 100
1, 152474, Note_off_c, 2, 76, 100
1, 152481, Note_on_c, 2, 76, 122
1, 152482, Note_on_c, 2, 72, 127
1, 152482, Note_on_c, 2, 69, 127
1, 152565, Note_off_c, 1, 87, 100
1, 152569, Note_on_c, 1, 87, 118
1, 152659, Note_on_c, 2, 77, 118
1, 152667, Note_off_c, 1, 87, 100
1, 152742, Note_off_c, 2, 77, 100
1, 152750, Note_on_c, 2, 77, 118
1, 152829, Note_off_c, 2, 69, 100
1, 152829, Note_off_c, 2, 72, 100
1, 152830, Note_off_c, 2, 76, 100
1, 152835, Note_on_c, 2, 74, 126
1, 152836, Note_on_c, 2, 70, 127
1, 152911, Note_off_c, 2, 77, 100
1, 152917, Note_on_c, 2, 77, 118
1, 153005, Note_on_c, 1, 86, 121
1, 153013, Note_off_c, 2, 77, 100
1, 153088, Note_off_c, 1, 86, 100
1, 153096, Note_on_c, 1, 86, 121
1, 153179, Note_off_c, 2, 70, 100
1, 153180, Note_off_c, 2, 74, 100
1, 153188, Note_on_c, 2, 74, 126
1, 153188, Note_on_c, 2, 71, 127
1, 153189, Note_on_c, 3, 67, 127
1, 153265, Note_off_c, 1, 86, 100
1, 153273, Note_on_c, 1, 86, 121
1, 153363, Note_on_c, 2, 75, 124
1, 153371, Note_off_c, 1, 86, 100
1, 153444, Note_off_c, 2, 75, 100
1, 153450, Note_on_c, 2, 75, 124
1, 153532, Note_off_c, 3, 67, 100
1, 153533, Note_off_c, 2, 71, 100
1, 153533, Note_off_c, 2, 74, 100
1, 153539, Note_on_c, 2, 72, 127
1, 153540, Note_on_c, 2, 69, 127
1, 153619, Note_off_c, 2, 75, 100
1, 153626, Note_on_c, 2, 75, 124
1, 153713, Note_on_c, 1, 84, 119
1, 153721, Note_off_c, 2, 75, 100
1, 153796, Note_off_c, 1, 84, 100
1, 153804, Note_on_c, 1, 84, 119
1, 153883, Note_off_c, 2, 72, 100
1, 153883, Note_off_c, 2, 69, 100
1, 153889, Note_on_c, 2, 72, 127
1, 153890, Note_on_c, 2, 69, 127
1, 153890, Note_on_c, 3, 66, 127
1, 153973, Note_off_c, 1, 84, 100
1, 153981, Note_on_c, 1, 84, 119
1, 154069, Note_on_c, 2, 74, 126
1, 154077, Note_off_c, 1, 84, 100
1, 154152, Note_off_c, 2, 74, 100
1, 154158, Note_on_c, 2, 74, 126
1, 154237, Note_off_c, 3, 66, 100
1, 154237, Note_off_c, 2, 69, 100
1, 154238, Note_off_c, 2, 72, 100
1, 154246, Note_on_c, 2, 71, 127
1, 154246, Note_on_c, 3, 67, 127
1, 154328, Note_off_c, 2, 74, 100
1, 154335, Note_on_c, 2, 74, 126
1, 154423, Note_on_c, 1, 82, 114
1, 154431, Note_off_c, 2, 74, 100
1, 154502, Note_off_c, 1, 82, 100
1, 154512, Note_on_c, 1, 82, 114
1, 154591, Note_off_c, 1, 82, 100
1, 154599, Note_on_c, 1, 82, 114
1, 154685, Note_off_c, 3, 67, 100
1, 154686, Note_off_c, 2, 71, 100
1, 154692, Note_on_c, 2, 72, 127
1, 154692, Note_on_c, 2, 70, 127
1, 154693, Note_on_c, 3, 64, 127
1, 154775, Note_off_c, 3, 64, 100
1, 154776, Note_off_c, 2, 70, 100
1, 154784, Note_on_c, 2, 70, 127
1, 154784, Note_on_c, 3, 64, 127
1, 154863, Note_off_c, 3, 64, 100
1, 154863, Note_off_c, 2, 70, 100
1, 154872, Note_on_c, 2, 70, 127
1, 154872, Note_on_c, 3, 64, 127
1, 154956, Note_off_c, 1, 82, 100
1, 154963, Note_on_c, 1, 82, 120
1, 155021, Note_off_c, 1, 82, 100
1, 155045, Note_off_c, 3, 64, 100
1, 155046, Note_off_c, 2, 70, 100
1, 155052, Note_off_c, 2, 72, 100
1, 155052, Note_on_c, 2, 74, 127
1, 155053, Note_on_c, 2, 70, 127
1, 155053, Note_on_c, 3, 65, 127
1, 155135, Note_off_c, 3, 65, 100
1, 155135, Note_off_c, 2, 70, 100
1, 155142, Note_on_c, 2, 70, 127
1, 155142, Note_on_c, 3, 65, 127
1, 155225, Note_off_c, 3, 65, 100
1, 155226, Note_off_c, 2, 70, 100
1, 155232, Note_on_c, 2, 70, 127
1, 155232, Note_on_c, 3, 65, 127
1, 155323, Note_off_c, 2, 74, 100
1, 155324, Note_on_c, 1, 82, 122
1, 155409, Note_off_c, 3, 65, 100
1, 155409, Note_off_c, 2, 70, 100
1, 155415, Note_on_c, 2, 75, 127
1, 155416, Note_on_c, 2, 70, 127
1, 155416, Note_on_c, 3, 67, 127
1, 155421, Note_off_c, 1, 82, 100
1, 155495, Note_off_c, 3, 67, 100
1, 155496, Note_off_c, 2, 70, 100
1, 155504, Note_on_c, 2, 70, 127
1, 155504, Note_on_c, 3, 67, 127
1, 155581, Note_off_c, 3, 67, 100
1, 155582, Note_off_c, 2, 70, 100
1, 155590, Note_on_c, 2, 70, 127
1, 155591, Note_on_c, 3, 67, 127
1, 155681, Note_on_c, 1, 82, 122
1, 155695, Note_off_c, 2, 75, 100
1, 155762, Note_off_c, 2, 70, 100
1, 155762, Note_off_c, 3, 67, 100
1, 155767, Note_on_c, 2, 76, 125
1, 155767, Note_on_c, 2, 70, 127
1, 155768, Note_on_c, 3, 66, 127
1, 155773, Note_off_c, 1, 82, 100
1, 155851, Note_off_c, 3, 66, 100
1, 155852, Note_off_c, 2, 70, 100
1, 155858, Note_on_c, 2, 70, 127
1, 155858, Note_on_c, 3, 66, 127
1, 155941, Note_off_c, 3, 66, 100
1, 155942, Note_off_c, 2, 70, 100
1, 155948, Note_on_c, 2, 70, 127
1, 155949, Note_on_c, 3, 66, 127
1, 156028, Note_off_c, 2, 70, 100
1, 156028, Note_off_c, 3, 66, 100
1, 156036, Note_on_c, 1, 82, 122
1, 156037, Note_on_c, 2, 70, 127
1, 156037, Note_on_c, 3, 66, 127
1, 156051, Note_off_c, 2, 76, 100
1, 156126, Note_on_c, 2, 77, 125
1, 156132, Note_off_c, 1, 82, 100
1, 156209, Note_off_c, 3, 66, 100
1, 156210, Note_off_c, 2, 70, 100
1, 156214, Note_on_c, 1, 82, 122
1, 156215, Note_on_c, 2, 70, 127
1, 156215, Note_on_c, 3, 62, 127
1, 156222, Note_off_c, 2, 77, 100
1, 156302, Note_on_c, 1, 78, 123
1, 156308, Note_off_c, 1, 82, 100
1, 156383, Note_off_c, 3, 62, 100
1, 156384, Note_off_c, 2, 70, 100
1, 156388, Note_on_c, 1, 82, 122
1, 156388, Note_on_c, 2, 70, 127
1, 156389, Note_on_c, 3, 63, 127
1, 156395, Note_off_c, 1, 78, 100
1, 156477, Note_on_c, 1, 79, 123
1, 156483, Note_off_c, 1, 82, 100
1, 156558, Note_off_c, 2, 70, 100
1, 156558, Note_off_c, 3, 63, 100
1, 156564, Note_on_c, 1, 87, 126
1, 156565, Note_on_c, 3, 65, 127
1, 156565, Note_on_c, 3, 60, 125
1, 156571, Note_off_c, 1, 79, 100
1, 156652, Note_on_c, 1, 81, 123
1, 156659, Note_off_c, 1, 87, 100
1, 156733, Note_off_c, 3, 60, 100
1, 156734, Note_off_c, 3, 65, 100
1, 156738, Note_on_c, 1, 86, 125
1, 156739, Note_on_c, 3, 65, 127
1, 156739, Note_on_c, 3, 58, 125
1, 156747, Note_off_c, 1, 81, 100
1, 156824, Note_on_c, 1, 89, 122
1, 156831, Note_off_c, 1, 86, 100
1, 156908, Note_off_c, 3, 58, 100
1, 156909, Note_off_c, 3, 65, 100
1, 156913, Note_on_c, 1, 82, 118
1, 156913, Note_on_c, 3, 58, 125
1, 156914, Note_on_c, 4, 51, 125
1, 156920, Note_off_c, 1, 89, 100
1, 156995, Note_on_c, 1, 86, 125
1, 157000, Note_off_c, 1, 82, 100
1, 157079, Note_off_c, 4, 51, 100
1, 157080, Note_off_c, 3, 58, 100
1, 157084, Note_on_c, 3, 58, 125
1, 157084, Note_on_c, 1, 79, 119
1, 157085, Note_on_c, 4, 51, 125
1, 157091, Note_off_c, 1, 86, 100
1, 157171, Note_on_c, 1, 82, 118
1, 157177, Note_off_c, 1, 79, 100
1, 157254, Note_off_c, 4, 51, 100
1, 157255, Note_off_c, 3, 58, 100
1, 157259, Note_on_c, 2, 72, 127
1, 157259, Note_on_c, 4, 55, 125
1, 157260, Note_on_c, 4, 51, 125
1, 157267, Note_off_c, 1, 82, 100
1, 157347, Note_on_c, 2, 75, 124
1, 157355, Note_off_c, 2, 72, 100
1, 157435, Note_off_c, 4, 51, 100
1, 157436, Note_off_c, 4, 55, 100
1, 157442, Note_on_c, 3, 65, 127
1, 157450, Note_off_c, 2, 75, 100
1, 157487, Note_on_c, 2, 77, 122
1, 157531, Note_on_c, 1, 79, 119
1, 157534, Note_off_c, 2, 77, 100
1, 157578, Note_on_c, 2, 77, 122
1, 157581, Note_off_c, 1, 79, 100
1, 157620, Note_off_c, 3, 65, 100
1, 157620, Note_on_c, 2, 75, 124
1, 157621, Note_on_c, 3, 58, 125
1, 157621, Note_on_c, 4, 50, 125
1, 157624, Note_off_c, 2, 77, 100
1, 157662, Note_on_c, 2, 74, 126
1, 157666, Note_off_c, 2, 75, 100
1, 157703, Note_on_c, 2, 72, 127
1, 157707, Note_off_c, 2, 74, 100
1, 157746, Note_on_c, 2, 70, 127
1, 157749, Note_off_c, 2, 72, 100
1, 157790, Note_off_c, 4, 50, 100
1, 157790, Note_on_c, 2, 74, 126
1, 157791, Note_on_c, 4, 51, 125
1, 157794, Note_off_c, 2, 70, 100
1, 157885, Note_off_c, 2, 74, 100
1, 157885, Note_on_c, 2, 72, 127
1, 157911, Note_off_c, 2, 72, 100
1, 157911, Note_on_c, 2, 74, 126
1, 157939, Note_off_c, 2, 74, 100
1, 157939, Note_on_c, 2, 72, 127
1, 157963, Note_off_c, 2, 72, 100
1, 157963, Note_on_c, 2, 74, 126
1, 157979, Note_off_c, 3, 58, 100
1, 157987, Note_off_c, 2, 74, 100
1, 157987, Note_off_c, 4, 51, 100
1, 157988, Note_on_c, 3, 57, 125
1, 157988, Note_on_c, 2, 72, 127
1, 157989, Note_on_c, 4, 53, 125
1, 158013, Note_off_c, 2, 72, 100
1, 158013, Note_on_c, 2, 74, 126
1, 158037, Note_off_c, 2, 74, 100
1, 158037, Note_on_c, 2, 72, 127
1, 158059, Note_off_c, 2, 72, 100
1, 158059, Note_on_c, 2, 74, 126
1, 158081, Note_on_c, 2, 70, 127
1, 158087, Note_off_c, 2, 74, 100
1, 158123, Note_on_c, 2, 72, 127
1, 158125, Note_off_c, 2, 70, 64
1, 158163, Note_off_c, 4, 53, 100
1, 158164, Note_off_c, 3, 57, 100
1, 158164, Note_on_c, 2, 70, 127
1, 158165, Note_on_c, 4, 46, 125
1, 158165, Note_on_c, 3, 58, 125
1, 158167, Note_off_c, 2, 72, 64
1, 158246, Note_off_c, 3, 58, 100
1, 158254, Note_on_c, 3, 58, 125
1, 158298, Note_on_c, 3, 62, 127
1, 158340, Note_on_c, 3, 57, 125
1, 158340, Note_on_c, 3, 60, 125
1, 158345, Note_off_c, 3, 62, 100
1, 158347, Note_off_c, 3, 58, 100
1, 158385, Note_on_c, 3, 63, 127
1, 158389, Note_off_c, 3, 60, 100
1, 158425, Note_on_c, 3, 62, 127
1, 158426, Note_on_c, 4, 56, 125
1, 158430, Note_off_c, 3, 63, 100
1, 158434, Note_off_c, 3, 57, 100
1, 158471, Note_on_c, 3, 65, 127
1, 158474, Note_off_c, 3, 62, 100
1, 158507, Note_off_c, 4, 46, 100
1, 158513, Note_off_c, 2, 70, 100
1, 158513, Note_on_c, 3, 63, 127
1, 158514, Note_on_c, 4, 46, 125
1, 158514, Note_on_c, 4, 55, 125
1, 158519, Note_off_c, 3, 65, 100
1, 158520, Note_off_c, 4, 56, 100
1, 158598, Note_on_c, 3, 58, 125
1, 158606, Note_off_c, 4, 55, 100
1, 158606, Note_off_c, 3, 63, 100
1, 158641, Note_on_c, 3, 62, 127
1, 158682, Note_on_c, 3, 60, 125
1, 158682, Note_on_c, 3, 57, 125
1, 158687, Note_off_c, 3, 62, 100
1, 158688, Note_off_c, 3, 58, 100
1, 158727, Note_on_c, 3, 63, 127
1, 158731, Note_off_c, 3, 60, 100
1, 158767, Note_on_c, 3, 62, 127
1, 158768, Note_on_c, 4, 56, 125
1, 158772, Note_off_c, 3, 63, 100
1, 158776, Note_off_c, 3, 57, 100
1, 158811, Note_on_c, 3, 63, 127
1, 158816, Note_off_c, 3, 62, 100
1, 158847, Note_off_c, 4, 46, 100
1, 158855, Note_off_c, 3, 63, 100
1, 158855, Note_on_c, 3, 63, 127
1, 158856, Note_on_c, 4, 46, 125
1, 158856, Note_on_c, 4, 55, 125
1, 158862, Note_off_c, 4, 56, 100
1, 158944, Note_on_c, 3, 58, 125
1, 158950, Note_off_c, 3, 63, 100
1, 158950, Note_off_c, 4, 55, 100
1, 158989, Note_on_c, 3, 62, 127
1, 159033, Note_on_c, 3, 60, 125
1, 159034, Note_on_c, 3, 57, 125
1, 159038, Note_off_c, 3, 62, 100
1, 159040, Note_off_c, 3, 58, 100
1, 159076, Note_on_c, 3, 63, 127
1, 159082, Note_off_c, 3, 60, 100
1, 159119, Note_on_c, 3, 62, 127
1, 159119, Note_on_c, 4, 56, 125
1, 159123, Note_off_c, 3, 63, 100
1, 159127, Note_off_c, 3, 57, 100
1, 159164, Note_on_c, 3, 65, 127
1, 159168, Note_off_c, 3, 62, 100
1, 159206, Note_on_c, 3, 63, 127
1, 159207, Note_on_c, 4, 55, 125
1, 159211, Note_off_c, 3, 65, 100
1, 159215, Note_off_c, 4, 56, 100
1, 159249, Note_on_c, 3, 67, 127
1, 159255, Note_off_c, 3, 63, 100
1, 159295, Note_on_c, 3, 65, 127
1, 159296, Note_on_c, 4, 50, 125
1, 159298, Note_off_c, 3, 67, 100
1, 159300, Note_off_c, 4, 55, 100
1, 159336, Note_on_c, 2, 69, 127
1, 159338, Note_off_c, 3, 65, 100
1, 159378, Note_on_c, 3, 67, 127
1, 159378, Note_on_c, 4, 51, 125
1, 159381, Note_off_c, 2, 69, 100
1, 159384, Note_off_c, 4, 50, 100
1, 159421, Note_on_c, 2, 70, 127
1, 159425, Note_off_c, 3, 67, 100
1, 159461, Note_on_c, 2, 69, 127
1, 159462, Note_on_c, 4, 48, 125
1, 159466, Note_off_c, 2, 70, 100
1, 159468, Note_off_c, 4, 51, 100
1, 159503, Note_on_c, 2, 72, 127
1, 159508, Note_off_c, 2, 69, 100
1, 159547, Note_off_c, 4, 46, 100
1, 159547, Note_on_c, 2, 70, 127
1, 159548, Note_on_c, 4, 50, 125
1, 159550, Note_off_c, 2, 72, 100
1, 159553, Note_off_c, 4, 48, 100
1, 159590, Note_on_c, 2, 72, 127
1, 159594, Note_off_c, 2, 70, 100
1, 159631, Note_on_c, 2, 74, 126
1, 159634, Note_off_c, 2, 72, 100
1, 159673, Note_on_c, 2, 72, 127
1, 159678, Note_off_c, 2, 74, 100
1, 159717, Note_on_c, 2, 70, 127
1, 159720, Note_off_c, 2, 72, 100
1, 159759, Note_on_c, 2, 69, 127
1, 159763, Note_off_c, 2, 70, 100
1, 159800, Note_on_c, 3, 67, 127
1, 159805, Note_off_c, 2, 69, 100
1, 159842, Note_on_c, 3, 66, 127
1, 159845, Note_off_c, 3, 67, 100
1, 159884, Note_off_c, 4, 50, 100
1, 159885, Note_on_c, 4, 51, 125
1, 159885, Note_on_c, 3, 67, 127
1, 159888, Note_off_c, 3, 66, 100
1, 159925, Note_on_c, 2, 72, 127
1, 159929, Note_off_c, 3, 67, 100
1, 159964, Note_on_c, 2, 75, 124
1, 159967, Note_off_c, 2, 72, 100
1, 160006, Note_on_c, 2, 74, 126
1, 160010, Note_off_c, 2, 75, 100
1, 160046, Note_on_c, 2, 72, 127
1, 160050, Note_off_c, 2, 74, 100
1, 160089, Note_on_c, 2, 70, 127
1, 160092, Note_off_c, 2, 72, 100
1, 160129, Note_on_c, 2, 69, 127
1, 160134, Note_off_c, 2, 70, 100
1, 160171, Note_on_c, 3, 67, 127
1, 160175, Note_off_c, 2, 69, 100
1, 160213, Note_off_c, 4, 51, 100
1, 160214, Note_on_c, 3, 65, 127
1, 160214, Note_on_c, 4, 53, 125
1, 160218, Note_off_c, 3, 67, 100
1, 160255, Note_on_c, 2, 70, 127
1, 160258, Note_off_c, 3, 65, 100
1, 160295, Note_on_c, 2, 74, 126
1, 160296, Note_on_c, 3, 58, 125
1, 160299, Note_off_c, 2, 70, 100
1, 160302, Note_off_c, 4, 53, 100
1, 160336, Note_on_c, 2, 77, 122
1, 160340, Note_off_c, 2, 74, 100
1, 160379, Note_on_c, 1, 82, 118
1, 160379, Note_on_c, 3, 62, 127
1, 160381, Note_off_c, 2, 77, 100
1, 160385, Note_off_c, 3, 58, 100
1, 160466, Note_on_c, 2, 70, 127
1, 160466, Note_on_c, 2, 74, 126
1, 160467, Note_on_c, 3, 58, 125
1, 160473, Note_off_c, 3, 62, 100
1, 160473, Note_off_c, 1, 82, 100
1, 160550, Note_off_c, 2, 74, 100
1, 160558, Note_on_c, 2, 77, 122
1, 160559, Note_on_c, 2, 74, 126
1, 160559, Note_on_c, 4, 53, 125
1, 160565, Note_off_c, 2, 70, 100
1, 160565, Note_off_c, 3, 58, 100
1, 160652, Note_on_c, 2, 75, 124
1, 160653, Note_on_c, 2, 72, 127
1, 160653, Note_on_c, 3, 60, 125
1, 160661, Note_off_c, 4, 53, 100
1, 160661, Note_off_c, 2, 74, 100
1, 160662, Note_off_c, 2, 77, 100
1, 160744, Note_on_c, 2, 74, 126
1, 160745, Note_on_c, 2, 70, 127
1, 160745, Note_on_c, 3, 63, 127
1, 160751, Note_off_c, 3, 60, 100
1, 160752, Note_off_c, 2, 72, 100
1, 160752, Note_off_c, 2, 75, 100
1, 160834, Note_on_c, 2, 72, 127
1, 160834, Note_on_c, 2, 69, 127
1, 160835, Note_on_c, 3, 60, 125
1, 160842, Note_off_c, 3, 63, 100
1, 160843, Note_off_c, 2, 74, 100
1, 160843, Note_off_c, 2, 70, 100
1, 160920, Note_on_c, 2, 70, 127
1, 160921, Note_on_c, 3, 62, 127
1, 160921, Note_on_c, 3, 58, 125
1, 160930, Note_off_c, 3, 60, 100
1, 160930, Note_off_c, 2, 69, 100
1, 160931, Note_off_c, 2, 72, 100
1, 161005, Note_off_c, 2, 70, 100
1, 161013, Note_on_c, 2, 70, 127
1, 161057, Note_on_c, 2, 74, 126
1, 161098, Note_on_c, 2, 72, 127
1, 161098, Note_on_c, 2, 69, 127
1, 161100, Note_off_c, 2, 74, 100
1, 161105, Note_off_c, 2, 70, 100
1, 161140, Note_on_c, 2, 75, 124
1, 161146, Note_off_c, 2, 72, 100
1, 161184, Note_on_c, 2, 74, 126
1, 161185, Note_on_c, 2, 68, 127
1, 161189, Note_off_c, 2, 75, 100
1, 161191, Note_off_c, 2, 69, 100
1, 161231, Note_on_c, 2, 77, 120
1, 161235, Note_off_c, 2, 74, 100
1, 161268, Note_off_c, 3, 58, 100
1, 161275, Note_off_c, 3, 62, 100
1, 161276, Note_on_c, 2, 75, 124
1, 161276, Note_on_c, 3, 67, 127
1, 161277, Note_on_c, 3, 58, 125
1, 161279, Note_off_c, 2, 77, 100
1, 161281, Note_off_c, 2, 68, 100
1, 161362, Note_on_c, 1, 82, 116
1, 161371, Note_off_c, 2, 75, 100
1, 161406, Note_on_c, 1, 86, 123
1, 161410, Note_off_c, 1, 82, 100
1, 161448, Note_off_c, 3, 67, 100
1, 161449, Note_on_c, 2, 69, 127
1, 161449, Note_on_c, 1, 84, 121
1, 161454, Note_off_c, 1, 86, 100
1, 161492, Note_on_c, 1, 87, 120
1, 161496, Note_off_c, 1, 84, 100
1, 161532, Note_on_c, 1, 84, 121
1, 161533, Note_on_c, 2, 68, 127
1, 161537, Note_off_c, 1, 87, 100
1, 161539, Note_off_c, 2, 69, 100
1, 161574, Note_on_c, 1, 89, 120
1, 161580, Note_off_c, 1, 84, 100
1, 161614, Note_off_c, 3, 58, 100
1, 161622, Note_on_c, 1, 87, 120
1, 161622, Note_on_c, 3, 67, 127
1, 161623, Note_on_c, 3, 58, 125
1, 161627, Note_off_c, 1, 89, 100
1, 161628, Note_off_c, 2, 68, 100
1, 161712, Note_on_c, 2, 70, 127
1, 161718, Note_off_c, 3, 67, 100
1, 161718, Note_off_c, 1, 87, 100
1, 161753, Note_on_c, 2, 74, 126
1, 161794, Note_on_c, 2, 72, 127
1, 161794, Note_on_c, 2, 69, 127
1, 161798, Note_off_c, 2, 74, 100
1, 161800, Note_off_c, 2, 70, 100
1, 161843, Note_on_c, 2, 75, 124
1, 161846, Note_off_c, 2, 72, 100
1, 161883, Note_on_c, 2, 74, 126
1, 161883, Note_on_c, 2, 68, 127
1, 161888, Note_off_c, 2, 75, 100
1, 161892, Note_off_c, 2, 69, 100
1, 161930, Note_on_c, 2, 77, 120
1, 161934, Note_off_c, 2, 74, 100
1, 161975, Note_on_c, 2, 75, 124
1, 161975, Note_on_c, 3, 67, 127
1, 161979, Note_off_c, 2, 77, 100
1, 161981, Note_off_c, 2, 68, 100
1, 162020, Note_on_c, 2, 70, 127
1, 162025, Note_off_c, 2, 75, 100
1, 162063, Note_on_c, 2, 77, 120
1, 162064, Note_on_c, 3, 62, 127
1, 162068, Note_off_c, 2, 70, 100
1, 162072, Note_off_c, 3, 67, 100
1, 162108, Note_on_c, 2, 70, 127
1, 162112, Note_off_c, 2, 77, 100
1, 162155, Note_on_c, 1, 79, 117
1, 162156, Note_on_c, 3, 64, 127
1, 162160, Note_off_c, 2, 70, 100
1, 162162, Note_off_c, 3, 62, 100
1, 162198, Note_on_c, 2, 70, 127
1, 162202, Note_off_c, 1, 79, 100
1, 162242, Note_on_c, 1, 81, 117
1, 162243, Note_on_c, 3, 60, 125
1, 162247, Note_off_c, 2, 70, 100
1, 162251, Note_off_c, 3, 64, 100
1, 162288, Note_on_c, 2, 70, 127
1, 162291, Note_off_c, 1, 81, 100
1, 162332, Note_off_c, 3, 58, 100
1, 162332, Note_on_c, 1, 82, 116
1, 162333, Note_on_c, 3, 62, 127
1, 162333, Note_on_c, 4, 50, 125
1, 162337, Note_off_c, 2, 70, 100
1, 162339, Note_off_c, 3, 60, 100
1, 162376, Note_on_c, 1, 84, 121
1, 162379, Note_off_c, 1, 82, 100
1, 162420, Note_on_c, 1, 86, 123
1, 162424, Note_off_c, 1, 84, 100
1, 162466, Note_on_c, 1, 84, 121
1, 162469, Note_off_c, 1, 86, 100
1, 162510, Note_on_c, 1, 82, 116
1, 162514, Note_off_c, 1, 84, 100
1, 162551, Note_on_c, 1, 81, 117
1, 162554, Note_off_c, 1, 82, 100
1, 162593, Note_on_c, 1, 79, 117
1, 162596, Note_off_c, 1, 81, 100
1, 162635, Note_on_c, 1, 78, 117
1, 162637, Note_off_c, 1, 79, 100
1, 162676, Note_off_c, 4, 50, 100
1, 162677, Note_off_c, 3, 62, 100
1, 162677, Note_on_c, 1, 79, 117
1, 162678, Note_on_c, 3, 63, 127
1, 162678, Note_on_c, 4, 51, 125
1, 162679, Note_off_c, 1, 78, 100
1, 162718, Note_on_c, 2, 77, 120
1, 162721, Note_off_c, 1, 79, 100
1, 162756, Note_on_c, 2, 75, 124
1, 162759, Note_off_c, 2, 77, 100
1, 162794, Note_on_c, 2, 74, 126
1, 162798, Note_off_c, 2, 75, 100
1, 162835, Note_on_c, 2, 72, 127
1, 162839, Note_off_c, 2, 74, 100
1, 162875, Note_on_c, 2, 70, 127
1, 162879, Note_off_c, 2, 72, 100
1, 162917, Note_on_c, 2, 69, 127
1, 162921, Note_off_c, 2, 70, 100
1, 162960, Note_on_c, 3, 67, 127
1, 162963, Note_off_c, 2, 69, 100
1, 163000, Note_off_c, 3, 67, 100
1, 163002, Note_off_c, 4, 51, 100
1, 163002, Note_off_c, 3, 63, 100
1, 163003, Note_on_c, 3, 65, 127
1, 163003, Note_on_c, 4, 53, 125
1, 163046, Note_on_c, 3, 62, 127
1, 163050, Note_off_c, 4, 53, 100
1, 163088, Note_on_c, 1, 86, 123
1, 163089, Note_on_c, 3, 58, 125
1, 163091, Note_off_c, 3, 62, 100
1, 163095, Note_off_c, 3, 65, 100
1, 163129, Note_on_c, 3, 62, 127
1, 163133, Note_off_c, 3, 58, 100
1, 163165, Note_off_c, 1, 86, 100
1, 163171, Note_on_c, 1, 86, 123
1, 163171, Note_on_c, 4, 53, 125
1, 163176, Note_off_c, 3, 62, 100
1, 163214, Note_on_c, 3, 62, 127
1, 163218, Note_off_c, 4, 53, 100
1, 163250, Note_off_c, 1, 86, 100
1, 163258, Note_on_c, 1, 86, 123
1, 163259, Note_on_c, 3, 58, 125
1, 163261, Note_off_c, 3, 62, 100
1, 163297, Note_on_c, 3, 62, 127
1, 163301, Note_off_c, 3, 58, 100
1, 163332, Note_off_c, 1, 86, 100
1, 163340, Note_on_c, 1, 86, 125
1, 163340, Note_on_c, 4, 53, 125
1, 163343, Note_off_c, 3, 62, 100
1, 163385, Note_on_c, 1, 82, 118
1, 163385, Note_on_c, 3, 62, 127
1, 163390, Note_off_c, 4, 53, 100
1, 163390, Note_off_c, 1, 86, 100
1, 163427, Note_on_c, 1, 79, 119
1, 163428, Note_on_c, 3, 58, 125
1, 163432, Note_off_c, 3, 62, 100
1, 163432, Note_off_c, 1, 82, 100
1, 163471, Note_on_c, 2, 74, 126
1, 163472, Note_on_c, 3, 62, 127
1, 163476, Note_off_c, 1, 79, 100
1, 163476, Note_off_c, 3, 58, 100
1, 163513, Note_on_c, 1, 82, 118
1, 163514, Note_on_c, 4, 53, 125
1, 163516, Note_off_c, 3, 62, 100
1, 163517, Note_off_c, 2, 74, 100
1, 163558, Note_on_c, 2, 77, 122
1, 163559, Note_on_c, 3, 62, 127
1, 163562, Note_off_c, 4, 53, 100
1, 163563, Note_off_c, 1, 82, 100
1, 163602, Note_on_c, 2, 74, 126
1, 163602, Note_on_c, 3, 58, 125
1, 163607, Note_off_c, 3, 62, 100
1, 163607, Note_off_c, 2, 77, 100
1, 163648, Note_on_c, 2, 70, 127
1, 163648, Note_on_c, 3, 62, 127
1, 163651, Note_off_c, 3, 58, 100
1, 163651, Note_off_c, 2, 74, 100
1, 163692, Note_on_c, 2, 74, 122
1, 163692, Note_on_c, 4, 53, 125
1, 163697, Note_off_c, 3, 62, 100
1, 163697, Note_off_c, 2, 70, 100
1, 163736, Note_on_c, 3, 63, 127
1, 163740, Note_off_c, 4, 53, 100
1, 163773, Note_off_c, 2, 74, 100
1, 163780, Note_on_c, 2, 72, 123
1, 163781, Note_on_c, 3, 58, 125
1, 163787, Note_off_c, 3, 63, 100
1, 163814, Note_on_c, 2, 74, 122
1, 163833, Note_off_c, 2, 72, 100
1, 163845, Note_on_c, 3, 63, 127
1, 163850, Note_off_c, 3, 58, 100
1, 163860, Note_on_c, 2, 72, 123
1, 163864, Note_off_c, 2, 74, 100
1, 163883, Note_on_c, 2, 74, 122
1, 163901, Note_on_c, 4, 53, 125
1, 163908, Note_off_c, 2, 72, 100
1, 163908, Note_off_c, 3, 63, 100
1, 163928, Note_on_c, 2, 72, 123
1, 163930, Note_off_c, 2, 74, 100
1, 163949, Note_on_c, 2, 74, 122
1, 163957, Note_on_c, 3, 63, 127
1, 163963, Note_off_c, 4, 53, 100
1, 163974, Note_off_c, 2, 72, 100
1, 163984, Note_on_c, 2, 72, 123
1, 163993, Note_off_c, 2, 74, 100
1, 164013, Note_on_c, 3, 58, 125
1, 164018, Note_off_c, 3, 63, 100
1, 164024, Note_on_c, 2, 74, 122
1, 164030, Note_off_c, 2, 72, 100
1, 164051, Note_on_c, 2, 72, 123
1, 164068, Note_on_c, 3, 63, 127
1, 164070, Note_off_c, 2, 74, 100
1, 164074, Note_off_c, 3, 58, 100
1, 164088, Note_on_c, 2, 74, 122
1, 164097, Note_off_c, 2, 72, 100
1, 164124, Note_on_c, 2, 72, 123
1, 164124, Note_on_c, 4, 53, 125
1, 164131, Note_off_c, 3, 63, 100
1, 164133, Note_off_c, 2, 74, 100
1, 164154, Note_on_c, 2, 74, 122
1, 164169, Note_off_c, 2, 72, 100
1, 164179, Note_on_c, 3, 63, 127
1, 164184, Note_off_c, 4, 53, 100
1, 164196, Note_on_c, 2, 72, 123
1, 164198, Note_off_c, 2, 74, 100
1, 164229, Note_on_c, 2, 74, 122
1, 164231, Note_on_c, 3, 58, 125
1, 164236, Note_off_c, 3, 63, 100
1, 164240, Note_off_c, 2, 72, 100
1, 164265, Note_on_c, 2, 72, 123
1, 164273, Note_off_c, 2, 74, 100
1, 164284, Note_on_c, 3, 63, 127
1, 164290, Note_off_c, 3, 58, 100
1, 164291, Note_on_c, 2, 74, 122
1, 164308, Note_off_c, 2, 72, 100
1, 164326, Note_on_c, 2, 72, 123
1, 164335, Note_off_c, 2, 74, 100
1, 164336, Note_on_c, 4, 53, 125
1, 164342, Note_off_c, 3, 63, 100
1, 164357, Note_on_c, 2, 74, 122
1, 164369, Note_off_c, 2, 72, 100
1, 164386, Note_on_c, 2, 72, 123
1, 164387, Note_on_c, 3, 63, 127
1, 164391, Note_off_c, 4, 53, 100
1, 164399, Note_off_c, 2, 74, 100
1, 164433, Note_on_c, 2, 70, 127
1, 164434, Note_on_c, 3, 60, 125
1, 164438, Note_off_c, 2, 72, 100
1, 164438, Note_off_c, 3, 63, 100
1, 164474, Note_on_c, 2, 72, 127
1, 164474, Note_on_c, 3, 63, 127
1, 164478, Note_off_c, 3, 60, 100
1, 164479, Note_off_c, 2, 70, 100
1, 164516, Note_on_c, 3, 58, 125
1, 164516, Note_on_c, 2, 70, 127
1, 164520, Note_off_c, 3, 63, 100
1, 164521, Note_off_c, 2, 72, 100
1, 164601, Note_off_c, 2, 70, 100
1, 164610, Note_on_c, 1, 82, 118
1, 164610, Note_on_c, 2, 70, 127
1, 164696, Note_on_c, 2, 69, 127
1, 164703, Note_off_c, 2, 70, 100
1, 164776, Note_off_c, 1, 82, 100
1, 164784, Note_on_c, 1, 82, 118
1, 164784, Note_on_c, 2, 70, 127
1, 164791, Note_off_c, 2, 69, 100
1, 164877, Note_on_c, 1, 81, 119
1, 164878, Note_on_c, 2, 72, 127
1, 164884, Note_off_c, 2, 70, 100
1, 164884, Note_off_c, 1, 82, 100
1, 164971, Note_on_c, 1, 82, 118
1, 164972, Note_on_c, 2, 70, 127
1, 164980, Note_off_c, 1, 81, 100
1, 164980, Note_off_c, 2, 72, 100
1, 165063, Note_on_c, 1, 84, 123
1, 165064, Note_on_c, 2, 69, 127
1, 165072, Note_off_c, 2, 70, 100
1, 165072, Note_off_c, 1, 82, 100
1, 165159, Note_on_c, 1, 86, 125
1, 165160, Note_on_c, 2, 68, 127
1, 165166, Note_off_c, 2, 69, 100
1, 165167, Note_off_c, 1, 84, 100
1, 165204, Note_off_c, 3, 58, 100
1, 165252, Note_on_c, 1, 87, 116
1, 165252, Note_on_c, 3, 67, 127
1, 165258, Note_off_c, 2, 68, 100
1, 165259, Note_off_c, 1, 86, 100
1, 165300, Note_on_c, 1, 86, 119
1, 165305, Note_off_c, 1, 87, 100
1, 165346, Note_on_c, 1, 87, 116
1, 165346, Note_on_c, 3, 58, 125
1, 165350, Note_off_c, 1, 86, 100
1, 165352, Note_off_c, 3, 67, 100
1, 165395, Note_on_c, 1, 86, 119
1, 165400, Note_off_c, 1, 87, 100
1, 165441, Note_on_c, 1, 87, 116
1, 165441, Note_on_c, 3, 66, 127
1, 165445, Note_off_c, 1, 86, 100
1, 165449, Note_off_c, 3, 58, 100
1, 165488, Note_on_c, 1, 85, 117
1, 165493, Note_off_c, 1, 87, 100
1, 165534, Note_on_c, 3, 58, 125
1, 165534, Note_on_c, 1, 84, 117
1, 165539, Note_off_c, 1, 85, 100
1, 165540, Note_off_c, 3, 66, 100
1, 165579, Note_on_c, 1, 82, 112
1, 165583, Note_off_c, 1, 84, 100
1, 165623, Note_on_c, 1, 81, 113
1, 165624, Note_on_c, 3, 65, 127
1, 165626, Note_off_c, 1, 82, 100
1, 165630, Note_off_c, 3, 58, 100
1, 165666, Note_on_c, 1, 82, 112
1, 165672, Note_off_c, 1, 81, 100
1, 165714, Note_on_c, 1, 84, 117
1, 165715, Note_on_c, 3, 58, 125
1, 165719, Note_off_c, 1, 82, 100
1, 165723, Note_off_c, 3, 65, 100
1, 165765, Note_on_c, 1, 82, 112
1, 165769, Note_off_c, 1, 84, 100
1, 165809, Note_on_c, 1, 81, 113
1, 165810, Note_on_c, 2, 69, 127
1, 165814, Note_off_c, 1, 82, 100
1, 165818, Note_off_c, 3, 58, 100
1, 165854, Note_on_c, 1, 79, 113
1, 165858, Note_off_c, 1, 81, 100
1, 165900, Note_on_c, 2, 77, 122
1, 165901, Note_on_c, 3, 58, 125
1, 165905, Note_off_c, 1, 79, 100
1, 165907, Note_off_c, 2, 69, 100
1, 165946, Note_on_c, 2, 75, 124
1, 165949, Note_off_c, 2, 77, 100
1, 165992, Note_on_c, 2, 70, 127
1, 165992, Note_on_c, 2, 74, 126
1, 165996, Note_off_c, 2, 75, 100
1, 165998, Note_off_c, 3, 58, 100
1, 166073, Note_off_c, 2, 74, 100
1, 166081, Note_on_c, 2, 74, 126
1, 166081, Note_on_c, 3, 58, 125
1, 166090, Note_off_c, 2, 70, 100
1, 166171, Note_on_c, 3, 57, 125
1, 166177, Note_off_c, 3, 58, 100
1, 166263, Note_off_c, 2, 74, 100
1, 166264, Note_on_c, 2, 70, 127
1, 166265, Note_on_c, 3, 58, 125
1, 166270, Note_off_c, 3, 57, 100
1, 166353, Note_on_c, 2, 69, 127
1, 166354, Note_on_c, 3, 60, 125
1, 166361, Note_off_c, 3, 58, 100
1, 166362, Note_off_c, 2, 70, 100
1, 166447, Note_on_c, 2, 70, 127
1, 166447, Note_on_c, 3, 58, 125
1, 166455, Note_off_c, 3, 60, 100
1, 166456, Note_off_c, 2, 69, 100
1, 166539, Note_on_c, 2, 72, 127
1, 166539, Note_on_c, 3, 57, 125
1, 166546, Note_off_c, 3, 58, 100
1, 166547, Note_off_c, 2, 70, 100
1, 166631, Note_on_c, 2, 74, 126
1, 166632, Note_on_c, 4, 56, 125
1, 166638, Note_off_c, 3, 57, 100
1, 166638, Note_off_c, 2, 72, 100
1, 166724, Note_on_c, 2, 75, 124
1, 166724, Note_on_c, 4, 55, 125
1, 166732, Note_off_c, 4, 56, 100
1, 166732, Note_off_c, 2, 74, 100
1, 166818, Note_on_c, 2, 77, 122
1, 166827, Note_off_c, 2, 75, 100
1, 166847, Note_off_c, 2, 77, 64
1, 166847, Note_on_c, 2, 75, 124
1, 166872, Note_off_c, 2, 75, 64
1, 166873, Note_on_c, 2, 74, 126
1, 166898, Note_off_c, 2, 74, 64
1, 166899, Note_on_c, 2, 75, 124
1, 166924, Note_off_c, 2, 75, 64
1, 166925, Note_off_c, 4, 55, 100
1, 166925, Note_on_c, 2, 77, 122
1, 166926, Note_on_c, 4, 51, 125
1, 167018, Note_on_c, 1, 79, 119
1, 167026, Note_off_c, 2, 77, 100
1, 167105, Note_off_c, 1, 79, 100
1, 167113, Note_off_c, 4, 51, 100
1, 167113, Note_on_c, 1, 79, 119
1, 167113, Note_on_c, 2, 75, 124
1, 167114, Note_on_c, 4, 53, 125
1, 167208, Note_on_c, 2, 77, 122
1, 167209, Note_on_c, 2, 74, 126
1, 167215, Note_off_c, 2, 75, 100
1, 167216, Note_off_c, 1, 79, 100
1, 167299, Note_off_c, 4, 53, 100
1, 167304, Note_on_c, 4, 53, 125
1, 167400, Note_off_c, 2, 74, 100
1, 167401, Note_off_c, 2, 77, 100
1, 167401, Note_on_c, 2, 69, 127
1, 167402, Note_on_c, 3, 63, 127
1, 167491, Note_off_c, 3, 63, 100
1, 167491, Note_off_c, 2, 69, 100
1, 167497, Note_off_c, 4, 53, 100
1, 167498, Note_on_c, 2, 72, 127
1, 167498, Note_on_c, 3, 63, 127
1, 167499, Note_on_c, 3, 58, 125
1, 167674, Note_off_c, 3, 58, 100
1, 167675, Note_on_c, 4, 53, 125
1, 167854, Note_off_c, 3, 63, 100
1, 167854, Note_off_c, 4, 53, 100
1, 167855, Note_off_c, 2, 72, 100
1, 167855, Note_on_c, 2, 70, 127
1, 167856, Note_on_c, 4, 46, 125
1, 167856, Note_on_c, 3, 62, 127
1, 168037, Note_off_c, 2, 70, 100
1, 168037, Note_off_c, 3, 62, 100
1, 168038, Note_on_c, 2, 74, 126
1, 168085, Note_on_c, 2, 72, 127
1, 168091, Note_off_c, 2, 74, 64
1, 168133, Note_on_c, 2, 70, 127
1, 168137, Note_off_c, 2, 72, 64
1, 168179, Note_on_c, 2, 69, 127
1, 168185, Note_off_c, 2, 70, 64
1, 168227, Note_on_c, 3, 67, 127
1, 168231, Note_off_c, 2, 69, 64
1, 168319, Note_off_c, 3, 67, 64
1, 168321, Note_off_c, 4, 46, 100
1, 168322, Note_on_c, 3, 65, 127
1, 168322, Note_on_c, 4, 41, 125
1, 168420, Note_on_c, 3, 65, 127
1, 168420, Note_on_c, 4, 45, 125
1, 168429, Note_off_c, 4, 41, 64
1, 168521, Note_on_c, 4, 48, 125
1, 168528, Note_off_c, 4, 45, 64
1, 168615, Note_on_c, 4, 45, 125
1, 168623, Note_off_c, 4, 48, 64
1, 168705, Note_on_c, 2, 77, 125
1, 168706, Note_on_c, 4, 41, 125
1, 168714, Note_off_c, 4, 45, 64
1, 168798, Note_on_c, 1, 79, 123
1, 168799, Note_on_c, 4, 45, 125
1, 168805, Note_off_c, 2, 77, 64
1, 168805, Note_off_c, 4, 41, 64
1, 168896, Note_on_c, 1, 81, 123
1, 168897, Note_on_c, 4, 48, 125
1, 168903, Note_off_c, 4, 45, 64
1, 168903, Note_off_c, 1, 79, 64
1, 168988, Note_on_c, 1, 82, 122
1, 168989, Note_on_c, 2, 76, 125
1, 168995, Note_off_c, 1, 81, 64
1, 169016, Note_off_c, 3, 65, 64
1, 169016, Note_off_c, 3, 65, 64
1, 169083, Note_off_c, 4, 48, 64
1, 169084, Note_on_c, 4, 55, 125
1, 169125, Note_off_c, 1, 82, 64
1, 169127, Note_on_c, 1, 79, 123
1, 169164, Note_off_c, 2, 76, 64
1, 169171, Note_on_c, 2, 76, 125
1, 169171, Note_on_c, 3, 58, 125
1, 169176, Note_off_c, 1, 79, 64
1, 169178, Note_off_c, 4, 55, 64
1, 169262, Note_on_c, 3, 64, 127
1, 169272, Note_off_c, 3, 58, 64
1, 169355, Note_on_c, 3, 58, 125
1, 169360, Note_off_c, 3, 64, 64
1, 169444, Note_on_c, 4, 55, 125
1, 169450, Note_off_c, 3, 58, 64
1, 169523, Note_off_c, 2, 76, 64
1, 169530, Note_on_c, 2, 72, 127
1, 169531, Note_on_c, 3, 58, 125
1, 169537, Note_off_c, 4, 55, 64
1, 169575, Note_on_c, 2, 70, 127
1, 169581, Note_off_c, 2, 72, 64
1, 169618, Note_on_c, 3, 64, 127
1, 169618, Note_on_c, 2, 69, 127
1, 169620, Note_off_c, 2, 70, 64
1, 169624, Note_off_c, 3, 58, 64
1, 169659, Note_on_c, 3, 67, 127
1, 169663, Note_off_c, 2, 69, 64
1, 169699, Note_off_c, 3, 64, 64
1, 169700, Note_on_c, 3, 65, 127
1, 169704, Note_off_c, 3, 67, 64
1, 169791, Note_on_c, 3, 64, 127
1, 169792, Note_on_c, 4, 43, 125
1, 169800, Note_off_c, 3, 65, 100
1, 169881, Note_off_c, 3, 64, 100
1, 169888, Note_on_c, 3, 64, 127
1, 169889, Note_on_c, 4, 46, 125
1, 169897, Note_off_c, 4, 43, 100
1, 169989, Note_on_c, 4, 52, 125
1, 169997, Note_off_c, 4, 46, 100
1, 170087, Note_on_c, 4, 46, 125
1, 170095, Note_off_c, 4, 52, 100
1, 170178, Note_on_c, 1, 79, 123
1, 170178, Note_on_c, 4, 43, 125
1, 170185, Note_off_c, 4, 46, 100
1, 170269, Note_off_c, 3, 64, 100
1, 170270, Note_on_c, 1, 81, 123
1, 170270, Note_on_c, 4, 46, 125
1, 170276, Note_off_c, 4, 43, 100
1, 170277, Note_off_c, 1, 79, 100
1, 170360, Note_on_c, 1, 82, 122
1, 170360, Note_on_c, 4, 52, 125
1, 170366, Note_off_c, 4, 46, 100
1, 170367, Note_off_c, 1, 81, 100
1, 170452, Note_on_c, 1, 84, 127
1, 170460, Note_off_c, 1, 82, 100
1, 170550, Note_off_c, 4, 52, 100
1, 170550, Note_on_c, 3, 57, 125
1, 170595, Note_off_c, 1, 84, 100
1, 170595, Note_on_c, 1, 81, 123
1, 170638, Note_on_c, 1, 78, 125
1, 170639, Note_on_c, 3, 60, 125
1, 170643, Note_off_c, 1, 81, 100
1, 170647, Note_off_c, 3, 57, 100
1, 170732, Note_on_c, 3, 63, 127
1, 170738, Note_off_c, 3, 60, 100
1, 170819, Note_on_c, 3, 60, 125
1, 170826, Note_off_c, 3, 63, 100
1, 170911, Note_off_c, 1, 78, 100
1, 170911, Note_on_c, 1, 79, 125
1, 170912, Note_on_c, 3, 57, 125
1, 170919, Note_off_c, 3, 60, 100
1, 171010, Note_on_c, 1, 82, 122
1, 171010, Note_on_c, 3, 60, 125
1, 171018, Note_off_c, 3, 57, 100
1, 171019, Note_off_c, 1, 79, 100
1, 171100, Note_on_c, 1, 84, 127
1, 171101, Note_on_c, 3, 63, 127
1, 171108, Note_off_c, 3, 60, 100
1, 171108, Note_off_c, 1, 82, 100
1, 171193, Note_on_c, 1, 86, 127
1, 171201, Note_off_c, 1, 84, 100
1, 171286, Note_off_c, 3, 63, 100
1, 171286, Note_on_c, 4, 46, 125
1, 171328, Note_off_c, 1, 86, 100
1, 171329, Note_on_c, 1, 82, 122
1, 171373, Note_on_c, 1, 79, 125
1, 171374, Note_on_c, 4, 50, 125
1, 171376, Note_off_c, 1, 82, 100
1, 171380, Note_off_c, 4, 46, 100
1, 171461, Note_on_c, 4, 55, 125
1, 171467, Note_off_c, 4, 50, 100
1, 171552, Note_off_c, 1, 79, 100
1, 171552, Note_on_c, 1, 82, 122
1, 171552, Note_on_c, 4, 53, 125
1, 171558, Note_off_c, 4, 55, 100
1, 171639, Note_off_c, 4, 53, 64
1, 171639, Note_on_c, 4, 51, 125
1, 171686, Note_off_c, 1, 82, 100
1, 171686, Note_on_c, 1, 79, 123
1, 171729, Note_on_c, 2, 76, 125
1, 171730, Note_on_c, 4, 55, 125
1, 171734, Note_off_c, 1, 79, 100
1, 171737, Note_off_c, 4, 51, 100
1, 171821, Note_on_c, 3, 58, 125
1, 171829, Note_off_c, 4, 55, 100
1, 171916, Note_off_c, 2, 76, 100
1, 171917, Note_on_c, 2, 77, 125
1, 172006, Note_off_c, 3, 58, 100
1, 172006, Note_on_c, 4, 50, 125
1, 172049, Note_off_c, 2, 77, 100
1, 172049, Note_on_c, 2, 74, 127
1, 172090, Note_on_c, 2, 71, 127
1, 172091, Note_on_c, 4, 53, 125
1, 172095, Note_off_c, 2, 74, 100
1, 172097, Note_off_c, 4, 50, 100
1, 172181, Note_on_c, 4, 56, 125
1, 172189, Note_off_c, 4, 53, 100
1, 172268, Note_on_c, 4, 53, 125
1, 172275, Note_off_c, 4, 56, 100
1, 172346, Note_off_c, 2, 71, 100
1, 172354, Note_on_c, 2, 71, 127
1, 172355, Note_on_c, 4, 50, 125
1, 172361, Note_off_c, 4, 53, 100
1, 172445, Note_off_c, 2, 71, 100
1, 172449, Note_on_c, 2, 71, 127
1, 172450, Note_on_c, 4, 53, 125
1, 172456, Note_off_c, 4, 50, 100
1, 172536, Note_off_c, 2, 71, 100
1, 172540, Note_on_c, 2, 71, 127
1, 172541, Note_on_c, 4, 56, 125
1, 172547, Note_off_c, 4, 53, 100
1, 172626, Note_off_c, 2, 71, 100
1, 172632, Note_on_c, 4, 48, 125
1, 172632, Note_on_c, 3, 57, 125
1, 172632, Note_on_c, 2, 72, 127
1, 172641, Note_off_c, 4, 56, 100
1, 172683, Note_on_c, 1, 81, 119
1, 172687, Note_off_c, 2, 72, 100
1, 172733, Note_on_c, 2, 77, 122
1, 172737, Note_off_c, 1, 81, 100
1, 172779, Note_on_c, 2, 72, 127
1, 172783, Note_off_c, 2, 77, 100
1, 172824, Note_on_c, 2, 69, 127
1, 172827, Note_off_c, 2, 72, 100
1, 172868, Note_on_c, 2, 77, 122
1, 172872, Note_off_c, 2, 69, 100
1, 172913, Note_on_c, 2, 72, 127
1, 172917, Note_off_c, 2, 77, 100
1, 172955, Note_on_c, 2, 69, 127
1, 172961, Note_off_c, 2, 72, 100
1, 172993, Note_off_c, 2, 69, 100
1, 173001, Note_off_c, 3, 57, 100
1, 173002, Note_on_c, 2, 72, 127
1, 173002, Note_on_c, 2, 69, 127
1, 173003, Note_on_c, 3, 60, 125
1, 173093, Note_on_c, 2, 70, 127
1, 173094, Note_on_c, 3, 67, 127
1, 173100, Note_off_c, 2, 69, 100
1, 173100, Note_off_c, 2, 72, 100
1, 173178, Note_off_c, 4, 48, 100
1, 173184, Note_on_c, 2, 69, 127
1, 173184, Note_on_c, 3, 65, 127
1, 173185, Note_on_c, 4, 48, 125
1, 173193, Note_off_c, 3, 67, 100
1, 173194, Note_off_c, 2, 70, 100
1, 173277, Note_on_c, 3, 67, 127
1, 173277, Note_on_c, 3, 64, 127
1, 173285, Note_off_c, 3, 65, 100
1, 173286, Note_off_c, 2, 69, 100
1, 173375, Note_off_c, 3, 60, 100
1, 173375, Note_off_c, 4, 48, 100
1, 173376, Note_on_c, 3, 65, 127
1, 173376, Note_on_c, 4, 53, 125
1, 173382, Note_off_c, 3, 64, 100
1, 173383, Note_off_c, 3, 67, 100
1, 173424, Note_on_c, 3, 60, 125
1, 173474, Note_on_c, 4, 56, 125
1, 173478, Note_off_c, 3, 60, 100
1, 173482, Note_off_c, 4, 53, 100
1, 173520, Note_on_c, 3, 60, 125
1, 173565, Note_on_c, 4, 53, 125
1, 173570, Note_off_c, 3, 60, 100
1, 173572, Note_off_c, 4, 56, 100
1, 173613, Note_on_c, 3, 60, 125
1, 173661, Note_on_c, 4, 56, 125
1, 173666, Note_off_c, 3, 60, 100
1, 173668, Note_off_c, 4, 53, 100
1, 173707, Note_on_c, 3, 60, 125
1, 173753, Note_on_c, 4, 53, 125
1, 173757, Note_off_c, 3, 60, 100
1, 173760, Note_off_c, 4, 56, 100
1, 173791, Note_off_c, 3, 65, 100
1, 173799, Note_on_c, 3, 65, 127
1, 173799, Note_on_c, 3, 60, 125
1, 173844, Note_on_c, 3, 67, 127
1, 173844, Note_on_c, 4, 56, 125
1, 173849, Note_off_c, 3, 60, 100
1, 173849, Note_off_c, 3, 65, 100
1, 173852, Note_off_c, 4, 53, 100
1, 173890, Note_on_c, 2, 68, 127
1, 173890, Note_on_c, 3, 60, 125
1, 173894, Note_off_c, 3, 67, 100
1, 173933, Note_on_c, 4, 53, 125
1, 173933, Note_on_c, 2, 70, 127
1, 173937, Note_off_c, 3, 60, 100
1, 173938, Note_off_c, 2, 68, 100
1, 173940, Note_off_c, 4, 56, 100
1, 173977, Note_on_c, 2, 72, 127
1, 173977, Note_on_c, 3, 60, 125
1, 173981, Note_off_c, 2, 70, 100
1, 174020, Note_on_c, 2, 74, 127
1, 174021, Note_on_c, 4, 56, 125
1, 174024, Note_off_c, 3, 60, 100
1, 174025, Note_off_c, 2, 72, 100
1, 174028, Note_off_c, 4, 53, 100
1, 174061, Note_on_c, 2, 76, 123
1, 174062, Note_on_c, 3, 60, 125
1, 174066, Note_off_c, 2, 74, 100
1, 174105, Note_on_c, 2, 77, 123
1, 174105, Note_on_c, 4, 53, 125
1, 174109, Note_off_c, 3, 60, 100
1, 174109, Note_off_c, 2, 76, 100
1, 174112, Note_off_c, 4, 56, 100
1, 174149, Note_on_c, 2, 72, 127
1, 174149, Note_on_c, 3, 60, 125
1, 174153, Note_off_c, 2, 77, 100
1, 174192, Note_on_c, 4, 56, 125
1, 174192, Note_on_c, 1, 80, 123
1, 174194, Note_off_c, 3, 60, 100
1, 174195, Note_off_c, 2, 72, 100
1, 174198, Note_off_c, 4, 53, 100
1, 174234, Note_on_c, 1, 79, 123
1, 174235, Note_on_c, 3, 60, 125
1, 174239, Note_off_c, 1, 80, 100
1, 174277, Note_on_c, 2, 77, 123
1, 174278, Note_on_c, 4, 53, 125
1, 174282, Note_off_c, 1, 79, 100
1, 174282, Note_off_c, 3, 60, 100
1, 174285, Note_off_c, 4, 56, 100
1, 174322, Note_on_c, 2, 72, 127
1, 174322, Note_on_c, 3, 60, 125
1, 174326, Note_off_c, 2, 77, 100
1, 174369, Note_on_c, 1, 80, 123
1, 174369, Note_on_c, 4, 56, 125
1, 174371, Note_off_c, 3, 60, 100
1, 174372, Note_off_c, 2, 72, 100
1, 174374, Note_off_c, 4, 53, 100
1, 174413, Note_on_c, 1, 79, 123
1, 174413, Note_on_c, 3, 60, 125
1, 174417, Note_off_c, 1, 80, 100
1, 174456, Note_on_c, 2, 77, 123
1, 174456, Note_on_c, 4, 53, 125
1, 174460, Note_off_c, 3, 60, 100
1, 174461, Note_off_c, 1, 79, 100
1, 174464, Note_off_c, 4, 56, 100
1, 174500, Note_on_c, 1, 79, 123
1, 174501, Note_on_c, 3, 60, 125
1, 174504, Note_off_c, 2, 77, 100
1, 174545, Note_on_c, 2, 75, 125
1, 174546, Note_on_c, 4, 56, 125
1, 174548, Note_off_c, 3, 60, 100
1, 174549, Note_off_c, 1, 79, 100
1, 174551, Note_off_c, 4, 53, 100
1, 174589, Note_on_c, 2, 77, 123
1, 174590, Note_on_c, 3, 60, 125
1, 174592, Note_off_c, 2, 75, 100
1, 174633, Note_on_c, 4, 53, 125
1, 174633, Note_on_c, 2, 74, 127
1, 174636, Note_off_c, 3, 60, 100
1, 174636, Note_off_c, 2, 77, 100
1, 174638, Note_off_c, 4, 56, 100
1, 174675, Note_on_c, 2, 75, 125
1, 174675, Note_on_c, 3, 60, 125
1, 174680, Note_off_c, 2, 74, 100
1, 174720, Note_on_c, 2, 72, 127
1, 174720, Note_on_c, 4, 56, 125
1, 174725, Note_off_c, 3, 60, 100
1, 174725, Note_off_c, 2, 75, 100
1, 174728, Note_off_c, 4, 53, 100
1, 174764, Note_on_c, 2, 74, 127
1, 174765, Note_on_c, 3, 60, 125
1, 174767, Note_off_c, 2, 72, 100
1, 174806, Note_on_c, 2, 71, 127
1, 174807, Note_on_c, 4, 55, 125
1, 174811, Note_off_c, 2, 74, 100
1, 174815, Note_off_c, 4, 56, 100
1, 174857, Note_on_c, 3, 65, 127
1, 174865, Note_off_c, 3, 60, 100
1, 174873, Note_off_c, 2, 71, 100
1, 174901, Note_on_c, 1, 89, 124
1, 174902, Note_on_c, 3, 62, 127
1, 174906, Note_off_c, 3, 65, 100
1, 174910, Note_off_c, 4, 55, 100
1, 174948, Note_on_c, 3, 65, 127
1, 174998, Note_on_c, 4, 55, 125
1, 175002, Note_off_c, 3, 65, 100
1, 175006, Note_off_c, 3, 62, 100
1, 175044, Note_on_c, 3, 65, 127
1, 175085, Note_off_c, 1, 89, 100
1, 175092, Note_on_c, 1, 89, 124
1, 175093, Note_on_c, 3, 62, 127
1, 175097, Note_off_c, 3, 65, 100
1, 175099, Note_off_c, 4, 55, 100
1, 175140, Note_on_c, 3, 65, 127
1, 175188, Note_on_c, 4, 55, 125
1, 175191, Note_off_c, 3, 65, 100
1, 175195, Note_off_c, 3, 62, 100
1, 175234, Note_on_c, 3, 65, 127
1, 175270, Note_off_c, 1, 89, 100
1, 175278, Note_on_c, 1, 86, 127
1, 175278, Note_on_c, 3, 62, 127
1, 175283, Note_off_c, 3, 65, 100
1, 175286, Note_off_c, 4, 55, 100
1, 175321, Note_on_c, 3, 65, 127
1, 175369, Note_on_c, 4, 55, 125
1, 175373, Note_off_c, 3, 65, 100
1, 175375, Note_off_c, 3, 62, 100
1, 175411, Note_on_c, 3, 65, 127
1, 175453, Note_off_c, 1, 86, 100
1, 175454, Note_on_c, 1, 84, 125
1, 175454, Note_on_c, 3, 62, 127
1, 175456, Note_off_c, 3, 65, 100
1, 175460, Note_off_c, 4, 55, 100
1, 175499, Note_on_c, 3, 65, 127
1, 175535, Note_off_c, 1, 84, 100
1, 175543, Note_on_c, 1, 84, 125
1, 175543, Note_on_c, 4, 55, 125
1, 175548, Note_off_c, 3, 65, 100
1, 175549, Note_off_c, 3, 62, 100
1, 175590, Note_on_c, 3, 65, 127
1, 175638, Note_on_c, 1, 83, 120
1, 175638, Note_on_c, 3, 62, 127
1, 175643, Note_off_c, 3, 65, 100
1, 175646, Note_off_c, 4, 55, 100
1, 175647, Note_off_c, 1, 84, 100
1, 175682, Note_on_c, 3, 65, 127
1, 175730, Note_on_c, 4, 55, 125
1, 175734, Note_off_c, 3, 65, 100
1, 175738, Note_off_c, 3, 62, 100
1, 175774, Note_on_c, 3, 65, 127
1, 175818, Note_off_c, 1, 83, 100
1, 175819, Note_on_c, 1, 80, 121
1, 175819, Note_on_c, 3, 62, 127
1, 175823, Note_off_c, 3, 65, 100
1, 175827, Note_off_c, 4, 55, 100
1, 175863, Note_on_c, 3, 65, 127
1, 175867, Note_off_c, 3, 62, 100
1, 175909, Note_on_c, 4, 55, 125
1, 175952, Note_on_c, 3, 62, 127
1, 175959, Note_off_c, 3, 65, 100
1, 175997, Note_off_c, 1, 80, 100
1, 175998, Note_on_c, 1, 79, 121
1, 175998, Note_on_c, 3, 59, 125
1, 176002, Note_off_c, 3, 62, 100
1, 176004, Note_off_c, 4, 55, 100
1, 176040, Note_on_c, 3, 62, 127
1, 176044, Note_off_c, 3, 59, 100
1, 176082, Note_on_c, 4, 55, 125
1, 176088, Note_off_c, 3, 62, 100
1, 176127, Note_on_c, 3, 62, 127
1, 176167, Note_off_c, 1, 79, 100
1, 176168, Note_on_c, 2, 77, 123
1, 176168, Note_on_c, 3, 59, 125
1, 176172, Note_off_c, 3, 62, 100
1, 176173, Note_off_c, 4, 55, 100
1, 176210, Note_on_c, 3, 62, 127
1, 176214, Note_off_c, 3, 59, 100
1, 176246, Note_off_c, 2, 77, 100
1, 176253, Note_on_c, 2, 77, 123
1, 176253, Note_on_c, 4, 55, 125
1, 176257, Note_off_c, 3, 62, 100
1, 176296, Note_on_c, 3, 64, 127
1, 176339, Note_on_c, 2, 76, 123
1, 176340, Note_on_c, 3, 60, 125
1, 176343, Note_off_c, 3, 64, 100
1, 176347, Note_off_c, 4, 55, 100
1, 176348, Note_off_c, 2, 77, 100
1, 176381, Note_on_c, 3, 64, 127
1, 176385, Note_off_c, 3, 60, 100
1, 176424, Note_on_c, 2, 75, 125
1, 176424, Note_on_c, 4, 55, 125
1, 176428, Note_off_c, 3, 64, 100
1, 176430, Note_off_c, 2, 76, 100
1, 176465, Note_on_c, 3, 63, 127
1, 176507, Note_on_c, 3, 60, 125
1, 176511, Note_off_c, 3, 63, 100
1, 176516, Note_off_c, 4, 55, 100
1, 176550, Note_on_c, 3, 63, 127
1, 176556, Note_off_c, 3, 60, 100
1, 176598, Note_on_c, 4, 55, 125
1, 176602, Note_off_c, 3, 63, 100
1, 176625, Note_off_c, 2, 75, 100
1, 176640, Note_on_c, 2, 75, 125
1, 176641, Note_on_c, 3, 63, 127
1, 176685, Note_on_c, 2, 74, 127
1, 176685, Note_on_c, 3, 60, 125
1, 176689, Note_off_c, 3, 63, 100
1, 176689, Note_off_c, 2, 75, 100
1, 176692, Note_off_c, 4, 55, 100
1, 176727, Note_on_c, 2, 75, 125
1, 176727, Note_on_c, 3, 63, 127
1, 176731, Note_off_c, 3, 60, 100
1, 176732, Note_off_c, 2, 74, 100
1, 176769, Note_on_c, 2, 77, 123
1, 176770, Note_on_c, 4, 55, 125
1, 176773, Note_off_c, 3, 63, 100
1, 176774, Note_off_c, 2, 75, 100
1, 176815, Note_on_c, 2, 75, 125
1, 176816, Note_on_c, 3, 63, 127
1, 176820, Note_off_c, 2, 77, 100
1, 176858, Note_on_c, 2, 74, 127
1, 176859, Note_on_c, 3, 60, 125
1, 176861, Note_off_c, 3, 63, 100
1, 176861, Note_off_c, 2, 75, 100
1, 176864, Note_off_c, 4, 55, 100
1, 176903, Note_on_c, 2, 75, 125
1, 176903, Note_on_c, 3, 63, 127
1, 176905, Note_off_c, 2, 74, 100
1, 176905, Note_off_c, 3, 60, 100
1, 176945, Note_on_c, 1, 78, 121
1, 176945, Note_on_c, 4, 54, 125
1, 176948, Note_off_c, 3, 63, 100
1, 176948, Note_off_c, 2, 75, 100
1, 176991, Note_on_c, 3, 63, 127
1, 177037, Note_on_c, 3, 58, 125
1, 177041, Note_off_c, 3, 63, 100
1, 177045, Note_off_c, 4, 54, 100
1, 177081, Note_off_c, 1, 78, 100
1, 177082, Note_on_c, 3, 63, 127
1, 177082, Note_on_c, 2, 75, 125
1, 177086, Note_off_c, 3, 58, 100
1, 177119, Note_off_c, 2, 75, 100
1, 177124, Note_on_c, 2, 75, 125
1, 177125, Note_on_c, 4, 54, 125
1, 177129, Note_off_c, 3, 63, 100
1, 177169, Note_on_c, 3, 63, 127
1, 177214, Note_on_c, 3, 58, 125
1, 177217, Note_off_c, 3, 63, 100
1, 177220, Note_off_c, 4, 54, 100
1, 177249, Note_off_c, 2, 75, 100
1, 177257, Note_on_c, 2, 74, 127
1, 177257, Note_on_c, 3, 63, 127
1, 177262, Note_off_c, 3, 58, 100
1, 177279, Note_on_c, 2, 75, 125
1, 177281, Note_off_c, 2, 74, 100
1, 177302, Note_on_c, 1, 82, 120
1, 177302, Note_on_c, 4, 54, 125
1, 177307, Note_off_c, 3, 63, 100
1, 177318, Note_off_c, 2, 75, 100
1, 177349, Note_on_c, 3, 63, 127
1, 177395, Note_on_c, 3, 58, 125
1, 177401, Note_off_c, 3, 63, 100
1, 177403, Note_off_c, 4, 54, 100
1, 177441, Note_off_c, 1, 82, 100
1, 177442, Note_on_c, 2, 75, 125
1, 177442, Note_on_c, 3, 63, 127
1, 177446, Note_off_c, 3, 58, 100
1, 177480, Note_off_c, 2, 75, 100
1, 177488, Note_on_c, 2, 75, 125
1, 177489, Note_on_c, 4, 54, 125
1, 177493, Note_off_c, 3, 63, 100
1, 177533, Note_on_c, 3, 63, 127
1, 177579, Note_on_c, 3, 58, 125
1, 177585, Note_off_c, 3, 63, 100
1, 177587, Note_off_c, 4, 54, 100
1, 177610, Note_off_c, 2, 75, 100
1, 177627, Note_on_c, 2, 74, 127
1, 177628, Note_on_c, 3, 63, 127
1, 177632, Note_off_c, 3, 58, 100
1, 177653, Note_on_c, 2, 75, 125
1, 177655, Note_off_c, 2, 74, 100
1, 177678, Note_on_c, 1, 81, 121
1, 177679, Note_on_c, 4, 53, 125
1, 177681, Note_off_c, 2, 75, 100
1, 177682, Note_off_c, 3, 63, 100
1, 177723, Note_on_c, 3, 63, 127
1, 177769, Note_on_c, 1, 84, 125
1, 177770, Note_on_c, 3, 60, 125
1, 177772, Note_off_c, 3, 63, 100
1, 177776, Note_off_c, 4, 53, 100
1, 177777, Note_off_c, 1, 81, 100
1, 177812, Note_on_c, 3, 63, 127
1, 177816, Note_off_c, 3, 60, 100
1, 177858, Note_on_c, 1, 87, 124
1, 177858, Note_on_c, 4, 53, 125
1, 177863, Note_off_c, 3, 63, 100
1, 177864, Note_off_c, 1, 84, 100
1, 177905, Note_on_c, 3, 63, 127
1, 177946, Note_on_c, 3, 60, 125
1, 177950, Note_off_c, 3, 63, 100
1, 177952, Note_off_c, 4, 53, 100
1, 177990, Note_on_c, 3, 63, 127
1, 177996, Note_off_c, 3, 60, 100
1, 178031, Note_off_c, 1, 87, 100
1, 178037, Note_on_c, 1, 87, 124
1, 178037, Note_on_c, 4, 53, 125
1, 178041, Note_off_c, 3, 63, 100
1, 178084, Note_on_c, 1, 89, 124
1, 178084, Note_on_c, 3, 63, 127
1, 178088, Note_off_c, 1, 87, 100
1, 178127, Note_on_c, 1, 86, 127
1, 178127, Note_on_c, 3, 60, 125
1, 178131, Note_off_c, 3, 63, 100
1, 178132, Note_off_c, 1, 89, 100
1, 178134, Note_off_c, 4, 53, 100
1, 178173, Note_on_c, 1, 87, 124
1, 178173, Note_on_c, 3, 63, 127
1, 178177, Note_off_c, 3, 60, 100
1, 178178, Note_off_c, 1, 86, 100
1, 178217, Note_on_c, 1, 84, 125
1, 178217, Note_on_c, 4, 53, 125
1, 178222, Note_off_c, 3, 63, 100
1, 178222, Note_off_c, 1, 87, 100
1, 178263, Note_on_c, 1, 86, 127
1, 178263, Note_on_c, 3, 63, 127
1, 178268, Note_off_c, 1, 84, 100
1, 178306, Note_on_c, 1, 82, 120
1, 178307, Note_on_c, 3, 60, 125
1, 178311, Note_off_c, 3, 63, 100
1, 178311, Note_off_c, 1, 86, 100
1, 178314, Note_off_c, 4, 53, 100
1, 178354, Note_on_c, 1, 84, 125
1, 178355, Note_on_c, 3, 63, 127
1, 178357, Note_off_c, 1, 82, 100
1, 178357, Note_off_c, 3, 60, 100
1, 178395, Note_on_c, 1, 81, 121
1, 178395, Note_on_c, 4, 53, 125
1, 178399, Note_off_c, 3, 63, 100
1, 178400, Note_off_c, 1, 84, 100
1, 178441, Note_on_c, 1, 82, 120
1, 178441, Note_on_c, 3, 63, 127
1, 178445, Note_off_c, 1, 81, 100
1, 178486, Note_on_c, 1, 84, 125
1, 178486, Note_on_c, 3, 60, 125
1, 178488, Note_off_c, 3, 63, 100
1, 178489, Note_off_c, 1, 82, 100
1, 178491, Note_off_c, 4, 53, 100
1, 178532, Note_on_c, 1, 82, 120
1, 178532, Note_on_c, 3, 63, 127
1, 178536, Note_off_c, 3, 60, 100
1, 178537, Note_off_c, 1, 84, 100
1, 178576, Note_on_c, 1, 81, 121
1, 178577, Note_on_c, 4, 53, 125
1, 178581, Note_off_c, 3, 63, 100
1, 178581, Note_off_c, 1, 82, 100
1, 178620, Note_on_c, 1, 82, 120
1, 178621, Note_on_c, 3, 63, 127
1, 178625, Note_off_c, 1, 81, 100
1, 178663, Note_on_c, 1, 84, 125
1, 178664, Note_on_c, 3, 60, 125
1, 178666, Note_off_c, 3, 63, 100
1, 178667, Note_off_c, 1, 82, 100
1, 178669, Note_off_c, 4, 53, 100
1, 178705, Note_on_c, 1, 86, 127
1, 178705, Note_on_c, 3, 63, 127
1, 178709, Note_off_c, 3, 60, 100
1, 178710, Note_off_c, 1, 84, 100
1, 178745, Note_on_c, 1, 87, 124
1, 178746, Note_on_c, 4, 53, 125
1, 178750, Note_off_c, 3, 63, 100
1, 178750, Note_off_c, 1, 86, 100
1, 178791, Note_on_c, 1, 86, 127
1, 178792, Note_on_c, 3, 60, 125
1, 178796, Note_off_c, 1, 87, 100
1, 178833, Note_on_c, 1, 84, 125
1, 178833, Note_on_c, 3, 57, 125
1, 178837, Note_off_c, 1, 86, 100
1, 178837, Note_off_c, 3, 60, 100
1, 178838, Note_off_c, 4, 53, 100
1, 178873, Note_on_c, 1, 82, 120
1, 178873, Note_on_c, 3, 60, 125
1, 178877, Note_off_c, 3, 57, 100
1, 178878, Note_off_c, 1, 84, 100
1, 178915, Note_on_c, 1, 81, 121
1, 178916, Note_on_c, 4, 53, 125
1, 178920, Note_off_c, 3, 60, 100
1, 178920, Note_off_c, 1, 82, 100
1, 178956, Note_on_c, 1, 79, 121
1, 178956, Note_on_c, 3, 60, 125
1, 178960, Note_off_c, 1, 81, 100
1, 178999, Note_on_c, 2, 77, 123
1, 178999, Note_on_c, 3, 58, 125
1, 179001, Note_off_c, 3, 60, 100
1, 179002, Note_off_c, 1, 79, 100
1, 179006, Note_off_c, 4, 53, 100
1, 179045, Note_on_c, 2, 75, 125
1, 179045, Note_on_c, 3, 60, 125
1, 179047, Note_off_c, 3, 58, 100
1, 179048, Note_off_c, 2, 77, 100
1, 179081, Note_off_c, 2, 75, 100
1, 179091, Note_on_c, 2, 75, 125
1, 179091, Note_on_c, 4, 54, 125
1, 179095, Note_off_c, 3, 60, 100
1, 179138, Note_on_c, 3, 60, 125
1, 179182, Note_on_c, 2, 74, 127
1, 179183, Note_on_c, 3, 57, 125
1, 179186, Note_off_c, 3, 60, 100
1, 179189, Note_off_c, 4, 54, 100
1, 179189, Note_off_c, 2, 75, 100
1, 179226, Note_on_c, 3, 60, 125
1, 179230, Note_off_c, 3, 57, 100
1, 179263, Note_off_c, 2, 74, 100
1, 179270, Note_on_c, 2, 74, 127
1, 179271, Note_on_c, 4, 54, 125
1, 179275, Note_off_c, 3, 60, 100
1, 179319, Note_on_c, 3, 60, 125
1, 179362, Note_on_c, 3, 57, 125
1, 179367, Note_off_c, 3, 60, 100
1, 179369, Note_off_c, 4, 54, 100
1, 179410, Note_on_c, 3, 60, 125
1, 179413, Note_off_c, 3, 57, 100
1, 179454, Note_on_c, 4, 54, 125
1, 179458, Note_off_c, 3, 60, 100
1, 179496, Note_on_c, 3, 60, 125
1, 179536, Note_off_c, 2, 74, 100
1, 179544, Note_on_c, 2, 74, 127
1, 179544, Note_on_c, 3, 57, 125
1, 179549, Note_off_c, 3, 60, 100
1, 179551, Note_off_c, 4, 54, 100
1, 179591, Note_on_c, 3, 60, 125
1, 179595, Note_off_c, 3, 57, 100
1, 179639, Note_on_c, 1, 86, 127
1, 179640, Note_on_c, 4, 54, 125
1, 179644, Note_off_c, 3, 60, 100
1, 179646, Note_off_c, 2, 74, 100
1, 179685, Note_on_c, 3, 60, 125
1, 179729, Note_on_c, 1, 84, 127
1, 179730, Note_on_c, 3, 57, 125
1, 179734, Note_off_c, 3, 60, 100
1, 179738, Note_off_c, 4, 54, 100
1, 179738, Note_off_c, 1, 86, 100
1, 179775, Note_on_c, 3, 60, 125
1, 179779, Note_off_c, 3, 57, 100
1, 179814, Note_off_c, 1, 84, 100
1, 179821, Note_on_c, 1, 84, 127
1, 179822, Note_on_c, 4, 55, 125
1, 179826, Note_off_c, 3, 60, 100
1, 179872, Note_on_c, 3, 62, 127
1, 179918, Note_on_c, 1, 82, 122
1, 179919, Note_on_c, 3, 58, 125
1, 179923, Note_off_c, 3, 62, 100
1, 179925, Note_off_c, 4, 55, 100
1, 179926, Note_off_c, 1, 84, 100
1, 179961, Note_on_c, 3, 62, 127
1, 179964, Note_off_c, 3, 58, 100
1, 180003, Note_on_c, 4, 53, 125
1, 180009, Note_off_c, 3, 62, 100
1, 180049, Note_on_c, 3, 62, 127
1, 180093, Note_off_c, 1, 82, 100
1, 180094, Note_on_c, 1, 81, 123
1, 180094, Note_on_c, 3, 58, 125
1, 180096, Note_off_c, 3, 62, 100
1, 180100, Note_off_c, 4, 53, 100
1, 180138, Note_on_c, 3, 62, 127
1, 180142, Note_off_c, 3, 58, 100
1, 180177, Note_off_c, 1, 81, 100
1, 180184, Note_on_c, 1, 81, 123
1, 180185, Note_on_c, 4, 52, 125
1, 180187, Note_off_c, 3, 62, 100
1, 180229, Note_on_c, 1, 79, 123
1, 180230, Note_on_c, 3, 62, 127
1, 180234, Note_off_c, 1, 81, 100
1, 180273, Note_on_c, 1, 82, 122
1, 180273, Note_on_c, 3, 58, 125
1, 180277, Note_off_c, 3, 62, 100
1, 180278, Note_off_c, 1, 79, 100
1, 180279, Note_off_c, 4, 52, 100
1, 180315, Note_on_c, 1, 81, 123
1, 180315, Note_on_c, 3, 62, 127
1, 180318, Note_off_c, 3, 58, 100
1, 180318, Note_off_c, 1, 82, 100
1, 180359, Note_on_c, 1, 84, 127
1, 180360, Note_on_c, 4, 51, 125
1, 180364, Note_off_c, 3, 62, 100
1, 180364, Note_off_c, 1, 81, 100
1, 180401, Note_on_c, 1, 82, 122
1, 180402, Note_on_c, 3, 63, 127
1, 180406, Note_off_c, 1, 84, 100
1, 180444, Note_on_c, 1, 81, 123
1, 180445, Note_on_c, 3, 58, 125
1, 180449, Note_off_c, 3, 63, 100
1, 180450, Note_off_c, 1, 82, 100
1, 180452, Note_off_c, 4, 51, 100
1, 180491, Note_on_c, 1, 79, 123
1, 180491, Note_on_c, 3, 63, 127
1, 180495, Note_off_c, 3, 58, 100
1, 180496, Note_off_c, 1, 81, 100
1, 180535, Note_off_c, 3, 63, 100
1, 180535, Note_off_c, 1, 79, 100
1, 180536, Note_on_c, 3, 62, 127
1, 180536, Note_on_c, 1, 78, 123
1, 180537, Note_on_c, 4, 50, 125
1, 180583, Note_on_c, 2, 74, 126
1, 180587, Note_off_c, 1, 78, 100
1, 180627, Note_on_c, 1, 86, 125
1, 180633, Note_off_c, 2, 74, 100
1, 180675, Note_on_c, 1, 85, 123
1, 180679, Note_off_c, 1, 86, 100
1, 180719, Note_on_c, 1, 86, 125
1, 180723, Note_off_c, 1, 85, 100
1, 180763, Note_on_c, 1, 85, 123
1, 180769, Note_off_c, 1, 86, 100
1, 180807, Note_on_c, 1, 86, 125
1, 180811, Note_off_c, 1, 85, 100
1, 180852, Note_on_c, 1, 85, 123
1, 180857, Note_off_c, 1, 86, 100
1, 180896, Note_on_c, 1, 86, 125
1, 180901, Note_off_c, 1, 85, 100
1, 180942, Note_on_c, 1, 87, 122
1, 180948, Note_off_c, 1, 86, 100
1, 180988, Note_on_c, 1, 85, 123
1, 180992, Note_off_c, 1, 87, 100
1, 181032, Note_on_c, 1, 86, 125
1, 181036, Note_off_c, 1, 85, 100
1, 181061, Note_off_c, 3, 62, 100
1, 181077, Note_on_c, 3, 66, 127
1, 181077, Note_on_c, 1, 82, 118
1, 181078, Note_on_c, 3, 62, 127
1, 181080, Note_off_c, 1, 86, 100
1, 181123, Note_on_c, 1, 85, 123
1, 181127, Note_off_c, 1, 82, 100
1, 181166, Note_on_c, 1, 81, 119
1, 181169, Note_off_c, 1, 85, 100
1, 181210, Note_on_c, 1, 82, 118
1, 181215, Note_off_c, 1, 81, 100
1, 181254, Note_off_c, 3, 62, 100
1, 181255, Note_off_c, 3, 66, 100
1, 181255, Note_on_c, 1, 79, 119
1, 181256, Note_on_c, 3, 67, 127
1, 181256, Note_on_c, 3, 64, 127
1, 181259, Note_off_c, 1, 82, 100
1, 181297, Note_on_c, 1, 81, 119
1, 181303, Note_off_c, 1, 79, 100
1, 181342, Note_on_c, 2, 77, 122
1, 181345, Note_off_c, 1, 81, 100
1, 181386, Note_on_c, 1, 79, 119
1, 181389, Note_off_c, 2, 77, 100
1, 181430, Note_on_c, 2, 75, 124
1, 181433, Note_off_c, 1, 79, 100
1, 181474, Note_on_c, 2, 77, 122
1, 181479, Note_off_c, 2, 75, 100
1, 181518, Note_on_c, 2, 74, 126
1, 181523, Note_off_c, 2, 77, 100
1, 181563, Note_on_c, 2, 75, 124
1, 181569, Note_off_c, 2, 74, 100
1, 181608, Note_on_c, 2, 72, 127
1, 181611, Note_off_c, 2, 75, 100
1, 181696, Note_on_c, 1, 82, 118
1, 181704, Note_off_c, 2, 72, 100
1, 181786, Note_off_c, 3, 64, 100
1, 181787, Note_off_c, 3, 67, 100
1, 181787, Note_on_c, 1, 81, 119
1, 181788, Note_on_c, 3, 61, 125
1, 181788, Note_on_c, 4, 51, 125
1, 181795, Note_off_c, 1, 82, 100
1, 181800, Note_off_c, 4, 50, 100
1, 181874, Note_on_c, 1, 79, 119
1, 181881, Note_off_c, 1, 81, 100
1, 181966, Note_off_c, 4, 51, 100
1, 181966, Note_off_c, 3, 61, 100
1, 181967, Note_on_c, 3, 62, 127
1, 181967, Note_on_c, 1, 78, 119
1, 181968, Note_on_c, 4, 50, 125
1, 181974, Note_off_c, 1, 79, 100
1, 182013, Note_on_c, 2, 73, 127
1, 182018, Note_off_c, 1, 78, 100
1, 182059, Note_on_c, 2, 74, 126
1, 182064, Note_off_c, 2, 73, 100
1, 182107, Note_on_c, 2, 73, 127
1, 182112, Note_off_c, 2, 74, 100
1, 182153, Note_on_c, 2, 74, 126
1, 182159, Note_off_c, 2, 73, 100
1, 182195, Note_on_c, 2, 73, 127
1, 182201, Note_off_c, 2, 74, 100
1, 182241, Note_on_c, 2, 75, 124
1, 182245, Note_off_c, 2, 73, 100
1, 182287, Note_on_c, 2, 73, 127
1, 182291, Note_off_c, 2, 75, 100
1, 182331, Note_on_c, 2, 74, 126
1, 182335, Note_off_c, 2, 73, 100
1, 182377, Note_on_c, 2, 75, 124
1, 182381, Note_off_c, 2, 74, 100
1, 182422, Note_on_c, 2, 72, 127
1, 182425, Note_off_c, 2, 75, 100
1, 182468, Note_on_c, 2, 74, 126
1, 182472, Note_off_c, 2, 72, 100
1, 182503, Note_off_c, 4, 50, 100
1, 182511, Note_off_c, 3, 62, 100
1, 182511, Note_on_c, 2, 70, 127
1, 182512, Note_on_c, 3, 60, 125
1, 182512, Note_on_c, 4, 50, 125
1, 182515, Note_off_c, 2, 74, 100
1, 182557, Note_on_c, 2, 72, 127
1, 182561, Note_off_c, 2, 70, 100
1, 182600, Note_on_c, 2, 69, 127
1, 182604, Note_off_c, 2, 72, 100
1, 182644, Note_on_c, 2, 72, 127
1, 182648, Note_off_c, 2, 69, 100
1, 182685, Note_off_c, 4, 50, 100
1, 182685, Note_off_c, 3, 60, 100
1, 182686, Note_on_c, 3, 58, 125
1, 182686, Note_on_c, 3, 67, 127
1, 182687, Note_on_c, 4, 51, 125
1, 182690, Note_off_c, 2, 72, 100
1, 182731, Note_on_c, 2, 69, 127
1, 182736, Note_off_c, 3, 67, 100
1, 182772, Note_on_c, 3, 65, 127
1, 182776, Note_off_c, 2, 69, 100
1, 182816, Note_on_c, 3, 67, 127
1, 182820, Note_off_c, 3, 65, 100
1, 182858, Note_on_c, 3, 63, 127
1, 182862, Note_off_c, 3, 67, 100
1, 182903, Note_on_c, 3, 65, 127
1, 182906, Note_off_c, 3, 63, 100
1, 182945, Note_on_c, 3, 62, 127
1, 182949, Note_off_c, 3, 65, 100
1, 182989, Note_on_c, 3, 63, 127
1, 182995, Note_off_c, 3, 62, 100
1, 183033, Note_on_c, 3, 61, 125
1, 183039, Note_off_c, 3, 63, 100
1, 183126, Note_on_c, 3, 67, 127
1, 183133, Note_off_c, 3, 61, 100
1, 183202, Note_off_c, 4, 51, 100
1, 183210, Note_off_c, 3, 58, 100
1, 183210, Note_on_c, 2, 70, 127
1, 183211, Note_on_c, 4, 55, 125
1, 183211, Note_on_c, 4, 51, 125
1, 183217, Note_off_c, 3, 67, 100
1, 183300, Note_on_c, 3, 61, 125
1, 183310, Note_off_c, 2, 70, 100
1, 183396, Note_off_c, 4, 51, 100
1, 183397, Note_off_c, 4, 55, 100
1, 183397, Note_on_c, 3, 62, 127
1, 183397, Note_on_c, 4, 54, 125
1, 183398, Note_on_c, 4, 50, 125
1, 183402, Note_off_c, 3, 61, 100
1, 183487, Note_on_c, 2, 74, 127
1, 183494, Note_off_c, 3, 62, 100
1, 183575, Note_off_c, 4, 50, 100
1, 183582, Note_off_c, 4, 54, 100
1, 183582, Note_on_c, 3, 58, 125
1, 183583, Note_on_c, 4, 55, 125
1, 183583, Note_on_c, 4, 50, 125
1, 183666, Note_off_c, 2, 74, 100
1, 183670, Note_on_c, 2, 74, 127
1, 183753, Note_off_c, 4, 50, 100
1, 183760, Note_off_c, 4, 55, 100
1, 183761, Note_off_c, 3, 58, 100
1, 183761, Note_on_c, 3, 57, 125
1, 183762, Note_on_c, 4, 54, 125
1, 183762, Note_on_c, 4, 50, 125
1, 183849, Note_off_c, 2, 74, 100
1, 183853, Note_on_c, 2, 74, 127
1, 183940, Note_off_c, 4, 50, 100
1, 183948, Note_off_c, 3, 57, 100
1, 183948, Note_off_c, 4, 54, 100
1, 183948, Note_on_c, 3, 58, 125
1, 183949, Note_on_c, 4, 55, 125
1, 183949, Note_on_c, 4, 50, 125
1, 184032, Note_off_c, 2, 74, 100
1, 184036, Note_on_c, 2, 74, 127
1, 184115, Note_off_c, 4, 50, 100
1, 184122, Note_off_c, 4, 55, 100
1, 184123, Note_off_c, 3, 58, 100
1, 184123, Note_on_c, 3, 57, 125
1, 184124, Note_on_c, 4, 54, 125
1, 184124, Note_on_c, 4, 50, 125
1, 184209, Note_off_c, 2, 74, 100
1, 184212, Note_on_c, 2, 74, 126
1, 184303, Note_on_c, 2, 73, 127
1, 184310, Note_off_c, 2, 74, 100
1, 184395, Note_on_c, 2, 74, 126
1, 184402, Note_off_c, 2, 73, 100
1, 184482, Note_on_c, 2, 73, 127
1, 184490, Note_off_c, 2, 74, 100
1, 184569, Note_on_c, 2, 74, 126
1, 184576, Note_off_c, 2, 73, 100
1, 184655, Note_on_c, 2, 73, 127
1, 184663, Note_off_c, 2, 74, 100
1, 184743, Note_on_c, 2, 74, 126
1, 184749, Note_off_c, 2, 73, 100
1, 184830, Note_on_c, 2, 77, 122
1, 184837, Note_off_c, 2, 74, 100
1, 184925, Note_off_c, 4, 50, 100
1, 184925, Note_off_c, 4, 54, 100
1, 184926, Note_off_c, 3, 57, 100
1, 184926, Note_on_c, 2, 69, 127
1, 184927, Note_on_c, 3, 65, 127
1, 184927, Note_on_c, 3, 60, 125
1, 184981, Note_off_c, 2, 77, 100
1, 185008, Note_off_c, 3, 60, 100
1, 185009, Note_off_c, 3, 65, 100
1, 185009, Note_off_c, 2, 69, 100
1, 185011, Note_on_c, 2, 75, 124
1, 185012, Note_on_c, 2, 69, 127
1, 185012, Note_on_c, 3, 65, 127
1, 185013, Note_on_c, 3, 60, 125
1, 185098, Note_off_c, 3, 65, 100
1, 185098, Note_off_c, 3, 60, 100
1, 185099, Note_off_c, 2, 69, 100
1, 185102, Note_on_c, 2, 69, 127
1, 185103, Note_on_c, 3, 65, 127
1, 185103, Note_on_c, 3, 60, 125
1, 185189, Note_off_c, 3, 60, 100
1, 185189, Note_off_c, 3, 65, 100
1, 185190, Note_off_c, 2, 69, 100
1, 185192, Note_on_c, 2, 69, 127
1, 185192, Note_on_c, 3, 65, 127
1, 185193, Note_on_c, 3, 60, 125
1, 185223, Note_off_c, 2, 75, 100
1, 185237, Note_on_c, 2, 75, 124
1, 185285, Note_on_c, 2, 74, 126
1, 185289, Note_off_c, 2, 75, 100
1, 185327, Note_on_c, 2, 75, 124
1, 185331, Note_off_c, 2, 74, 100
1, 185371, Note_on_c, 2, 77, 122
1, 185377, Note_off_c, 2, 75, 100
1, 185419, Note_on_c, 2, 75, 124
1, 185425, Note_off_c, 2, 77, 100
1, 185466, Note_on_c, 2, 74, 126
1, 185469, Note_off_c, 2, 75, 100
1, 185511, Note_on_c, 2, 75, 124
1, 185515, Note_off_c, 2, 74, 100
1, 185558, Note_on_c, 1, 82, 118
1, 185561, Note_off_c, 2, 75, 100
1, 185640, Note_off_c, 3, 65, 100
1, 185640, Note_off_c, 3, 60, 100
1, 185641, Note_off_c, 2, 69, 100
1, 185649, Note_on_c, 2, 75, 124
1, 185649, Note_on_c, 2, 72, 127
1, 185650, Note_on_c, 3, 65, 127
1, 185710, Note_off_c, 1, 82, 100
1, 185736, Note_off_c, 3, 65, 100
1, 185736, Note_off_c, 2, 72, 100
1, 185737, Note_off_c, 2, 75, 100
1, 185741, Note_on_c, 1, 81, 119
1, 185741, Note_on_c, 2, 75, 124
1, 185742, Note_on_c, 2, 72, 127
1, 185742, Note_on_c, 3, 65, 127
1, 185827, Note_off_c, 3, 65, 100
1, 185828, Note_off_c, 2, 75, 100
1, 185828, Note_off_c, 2, 72, 100
1, 185832, Note_on_c, 2, 75, 124
1, 185833, Note_on_c, 2, 72, 127
1, 185833, Note_on_c, 3, 65, 127
1, 185919, Note_off_c, 3, 65, 100
1, 185920, Note_off_c, 2, 72, 100
1, 185920, Note_off_c, 2, 75, 100
1, 185923, Note_on_c, 2, 75, 124
1, 185923, Note_on_c, 2, 72, 127
1, 185924, Note_on_c, 3, 65, 127
1, 185953, Note_off_c, 1, 81, 100
1, 185969, Note_on_c, 1, 81, 119
1, 186017, Note_on_c, 1, 79, 119
1, 186020, Note_off_c, 1, 81, 100
1, 186063, Note_on_c, 1, 81, 119
1, 186066, Note_off_c, 1, 79, 100
1, 186107, Note_on_c, 1, 82, 118
1, 186109, Note_off_c, 1, 81, 100
1, 186150, Note_on_c, 1, 81, 119
1, 186156, Note_off_c, 1, 82, 100
1, 186194, Note_on_c, 1, 79, 119
1, 186198, Note_off_c, 1, 81, 100
1, 186240, Note_on_c, 1, 81, 119
1, 186244, Note_off_c, 1, 79, 100
1, 186287, Note_on_c, 1, 89, 118
1, 186290, Note_off_c, 1, 81, 100
1, 186367, Note_off_c, 3, 65, 100
1, 186368, Note_off_c, 2, 72, 100
1, 186368, Note_off_c, 2, 75, 100
1, 186385, Note_on_c, 3, 65, 127
1, 186449, Note_off_c, 1, 89, 100
1, 186478, Note_on_c, 1, 87, 120
1, 186478, Note_on_c, 2, 72, 127
1, 186567, Note_on_c, 2, 75, 124
1, 186575, Note_off_c, 3, 65, 100
1, 186575, Note_off_c, 2, 72, 100
1, 186662, Note_on_c, 3, 66, 127
1, 186670, Note_off_c, 2, 75, 100
1, 186693, Note_off_c, 1, 87, 100
1, 186708, Note_on_c, 1, 87, 118
1, 186753, Note_on_c, 1, 86, 121
1, 186759, Note_off_c, 1, 87, 100
1, 186797, Note_on_c, 1, 87, 118
1, 186801, Note_off_c, 1, 86, 100
1, 186840, Note_on_c, 1, 89, 116
1, 186843, Note_off_c, 1, 87, 100
1, 186886, Note_on_c, 1, 87, 118
1, 186891, Note_off_c, 1, 89, 100
1, 186930, Note_on_c, 1, 85, 119
1, 186934, Note_off_c, 1, 87, 100
1, 186976, Note_on_c, 1, 84, 119
1, 186980, Note_off_c, 1, 85, 100
1, 187022, Note_on_c, 1, 82, 116
1, 187028, Note_off_c, 1, 84, 100
1, 187108, Note_off_c, 3, 66, 100
1, 187122, Note_on_c, 3, 65, 127
1, 187181, Note_off_c, 1, 82, 100
1, 187210, Note_on_c, 1, 81, 117
1, 187211, Note_on_c, 2, 72, 127
1, 187299, Note_on_c, 2, 75, 124
1, 187307, Note_off_c, 2, 72, 100
1, 187308, Note_off_c, 3, 65, 100
1, 187387, Note_on_c, 3, 66, 127
1, 187394, Note_off_c, 2, 75, 100
1, 187416, Note_off_c, 1, 81, 100
1, 187426, Note_on_c, 1, 87, 114
1, 187472, Note_on_c, 1, 86, 117
1, 187476, Note_off_c, 1, 87, 100
1, 187517, Note_on_c, 1, 87, 114
1, 187518, Note_off_c, 1, 86, 100
1, 187560, Note_on_c, 1, 89, 114
1, 187563, Note_off_c, 1, 87, 100
1, 187604, Note_on_c, 1, 87, 114
1, 187608, Note_off_c, 1, 89, 100
1, 187646, Note_on_c, 1, 85, 115
1, 187652, Note_off_c, 1, 87, 100
1, 187688, Note_on_c, 1, 84, 115
1, 187692, Note_off_c, 1, 85, 100
1, 187731, Note_off_c, 3, 66, 100
1, 187731, Note_on_c, 1, 82, 112
1, 187731, Note_on_c, 3, 65, 127
1, 187735, Note_off_c, 1, 84, 100
1, 187777, Note_on_c, 1, 81, 113
1, 187781, Note_off_c, 1, 82, 100
1, 187822, Note_on_c, 1, 87, 114
1, 187825, Note_off_c, 1, 81, 100
1, 187868, Note_on_c, 1, 85, 115
1, 187872, Note_off_c, 1, 87, 100
1, 187908, Note_off_c, 3, 65, 100
1, 187908, Note_on_c, 1, 89, 114
1, 187909, Note_on_c, 2, 75, 122
1, 187909, Note_on_c, 2, 72, 125
1, 187910, Note_on_c, 3, 67, 127
1, 187912, Note_off_c, 1, 85, 100
1, 187954, Note_on_c, 1, 87, 114
1, 187958, Note_off_c, 1, 89, 100
1, 187997, Note_on_c, 1, 85, 115
1, 188000, Note_off_c, 1, 87, 100
1, 188040, Note_on_c, 1, 84, 115
1, 188044, Note_off_c, 1, 85, 100
1, 188085, Note_off_c, 3, 67, 100
1, 188086, Note_on_c, 3, 65, 127
1, 188086, Note_on_c, 1, 82, 112
1, 188088, Note_off_c, 1, 84, 100
1, 188129, Note_on_c, 1, 81, 113
1, 188133, Note_off_c, 1, 82, 100
1, 188175, Note_on_c, 1, 87, 114
1, 188181, Note_off_c, 1, 81, 100
1, 188223, Note_on_c, 1, 86, 117
1, 188227, Note_off_c, 1, 87, 100
1, 188258, Note_off_c, 2, 72, 100
1, 188258, Note_off_c, 2, 75, 100
1, 188265, Note_off_c, 3, 65, 100
1, 188265, Note_on_c, 1, 89, 114
1, 188266, Note_on_c, 2, 75, 122
1, 188266, Note_on_c, 2, 72, 125
1, 188267, Note_on_c, 3, 66, 127
1, 188270, Note_off_c, 1, 86, 100
1, 188311, Note_on_c, 1, 87, 114
1, 188314, Note_off_c, 1, 89, 100
1, 188351, Note_on_c, 1, 85, 115
1, 188356, Note_off_c, 1, 87, 100
1, 188397, Note_on_c, 1, 84, 115
1, 188402, Note_off_c, 1, 85, 100
1, 188437, Note_off_c, 2, 72, 100
1, 188437, Note_off_c, 2, 75, 100
1, 188440, Note_off_c, 3, 66, 100
1, 188441, Note_on_c, 2, 75, 122
1, 188441, Note_on_c, 1, 82, 108
1, 188442, Note_on_c, 3, 65, 127
1, 188442, Note_on_c, 2, 72, 125
1, 188444, Note_off_c, 1, 84, 100
1, 188484, Note_on_c, 1, 81, 109
1, 188488, Note_off_c, 1, 82, 100
1, 188527, Note_on_c, 1, 84, 111
1, 188530, Note_off_c, 1, 81, 100
1, 188571, Note_on_c, 1, 83, 106
1, 188574, Note_off_c, 1, 84, 100
1, 188615, Note_on_c, 1, 86, 109
1, 188619, Note_off_c, 1, 83, 100
1, 188659, Note_on_c, 1, 84, 107
1, 188663, Note_off_c, 1, 86, 100
1, 188701, Note_on_c, 1, 82, 104
1, 188705, Note_off_c, 1, 84, 100
1, 188746, Note_on_c, 1, 81, 105
1, 188749, Note_off_c, 1, 82, 100
1, 188790, Note_on_c, 1, 79, 103
1, 188794, Note_off_c, 1, 81, 100
1, 188834, Note_on_c, 2, 77, 110
1, 188838, Note_off_c, 1, 79, 100
1, 188876, Note_on_c, 1, 79, 103
1, 188881, Note_off_c, 2, 77, 100
1, 188919, Note_on_c, 1, 78, 103
1, 188925, Note_off_c, 1, 79, 100
1, 188962, Note_on_c, 1, 81, 105
1, 188965, Note_off_c, 1, 78, 100
1, 189002, Note_on_c, 1, 79, 103
1, 189006, Note_off_c, 1, 81, 100
1, 189042, Note_on_c, 2, 77, 110
1, 189046, Note_off_c, 1, 79, 100
1, 189069, Note_off_c, 2, 75, 100
1, 189083, Note_off_c, 2, 72, 100
1, 189083, Note_on_c, 2, 75, 118
1, 189087, Note_off_c, 2, 77, 100
1, 189124, Note_on_c, 2, 74, 118
1, 189129, Note_off_c, 2, 75, 100
1, 189171, Note_on_c, 2, 72, 119
1, 189175, Note_off_c, 2, 74, 100
1, 189215, Note_on_c, 2, 74, 118
1, 189219, Note_off_c, 2, 72, 100
1, 189257, Note_on_c, 2, 75, 116
1, 189261, Note_off_c, 2, 74, 100
1, 189301, Note_on_c, 2, 76, 114
1, 189305, Note_off_c, 2, 75, 100
1, 189388, Note_on_c, 2, 77, 112
1, 189394, Note_off_c, 2, 76, 100
1, 189470, Note_on_c, 1, 79, 109
1, 189478, Note_off_c, 2, 77, 100
1, 189563, Note_on_c, 2, 77, 112
1, 189568, Note_off_c, 1, 79, 100
1, 189646, Note_on_c, 2, 75, 120
1, 189655, Note_off_c, 2, 77, 100
1, 189733, Note_on_c, 2, 74, 122
1, 189736, Note_off_c, 2, 75, 100
1, 189824, Note_on_c, 2, 72, 125
1, 189831, Note_off_c, 2, 74, 100
1, 189887, Note_off_c, 3, 65, 100
1, 189922, Note_on_c, 2, 70, 127
1, 189922, Note_on_c, 3, 58, 125
1, 189930, Note_off_c, 2, 72, 100
1, 190020, Note_off_c, 2, 70, 100
1, 190030, Note_on_c, 2, 70, 127
1, 190031, Note_on_c, 3, 62, 127
1, 190079, Note_off_c, 3, 58, 100
1, 190129, Note_on_c, 3, 65, 127
1, 190180, Note_off_c, 3, 62, 100
1, 190233, Note_on_c, 3, 62, 127
1, 190281, Note_off_c, 3, 65, 100
1, 190327, Note_off_c, 2, 70, 100
1, 190328, Note_on_c, 2, 74, 126
1, 190328, Note_on_c, 3, 58, 125
1, 190383, Note_off_c, 3, 62, 100
1, 190425, Note_on_c, 3, 62, 127
1, 190425, Note_on_c, 1, 79, 119
1, 190432, Note_off_c, 2, 74, 100
1, 190470, Note_off_c, 3, 58, 100
1, 190518, Note_on_c, 2, 74, 126
1, 190519, Note_on_c, 3, 67, 127
1, 190525, Note_off_c, 1, 79, 100
1, 190563, Note_off_c, 3, 62, 100
1, 190613, Note_on_c, 2, 77, 122
1, 190621, Note_off_c, 2, 74, 100
1, 190659, Note_off_c, 3, 67, 100
1, 190705, Note_on_c, 3, 60, 125
1, 190798, Note_off_c, 2, 77, 100
1, 190798, Note_on_c, 2, 75, 124
1, 190799, Note_on_c, 3, 63, 127
1, 190846, Note_off_c, 3, 60, 100
1, 190892, Note_on_c, 3, 67, 127
1, 190936, Note_off_c, 3, 63, 100
1, 190980, Note_on_c, 3, 63, 127
1, 191030, Note_off_c, 3, 67, 100
1, 191068, Note_off_c, 2, 75, 100
1, 191076, Note_on_c, 2, 77, 122
1, 191076, Note_on_c, 3, 60, 125
1, 191121, Note_off_c, 3, 63, 100
1, 191122, Note_on_c, 1, 79, 119
1, 191125, Note_off_c, 2, 77, 100
1, 191166, Note_on_c, 2, 77, 122
1, 191167, Note_on_c, 3, 63, 127
1, 191169, Note_off_c, 1, 79, 100
1, 191208, Note_off_c, 3, 60, 100
1, 191208, Note_on_c, 2, 75, 124
1, 191212, Note_off_c, 2, 77, 100
1, 191251, Note_on_c, 2, 74, 126
1, 191251, Note_on_c, 3, 67, 127
1, 191256, Note_off_c, 2, 75, 100
1, 191294, Note_off_c, 3, 63, 100
1, 191294, Note_on_c, 2, 72, 127
1, 191299, Note_off_c, 2, 74, 100
1, 191337, Note_on_c, 2, 70, 127
1, 191343, Note_off_c, 2, 72, 100
1, 191383, Note_off_c, 3, 67, 100
1, 191431, Note_on_c, 4, 53, 125
1, 191523, Note_off_c, 2, 70, 100
1, 191524, Note_on_c, 2, 69, 127
1, 191524, Note_on_c, 3, 60, 125
1, 191570, Note_off_c, 4, 53, 100
1, 191616, Note_on_c, 3, 63, 127
1, 191659, Note_off_c, 3, 60, 100
1, 191707, Note_on_c, 3, 60, 125
1, 191749, Note_off_c, 3, 63, 100
1, 191784, Note_off_c, 2, 69, 100
1, 191793, Note_on_c, 2, 69, 127
1, 191794, Note_on_c, 4, 53, 125
1, 191840, Note_off_c, 3, 60, 100
1, 191890, Note_on_c, 2, 70, 127
1, 191891, Note_on_c, 3, 60, 125
1, 191899, Note_off_c, 2, 69, 100
1, 191936, Note_off_c, 4, 53, 100
1, 191981, Note_on_c, 2, 72, 127
1, 191982, Note_on_c, 3, 63, 127
1, 191990, Note_off_c, 2, 70, 100
1, 192028, Note_off_c, 3, 60, 100
1, 192069, Note_off_c, 2, 72, 100
1, 192078, Note_on_c, 2, 72, 127
1, 192079, Note_on_c, 2, 69, 127
1, 192122, Note_off_c, 3, 63, 100
1, 192167, Note_on_c, 3, 58, 125
1, 192266, Note_off_c, 2, 69, 100
1, 192267, Note_off_c, 2, 72, 100
1, 192267, Note_on_c, 2, 74, 126
1, 192268, Note_on_c, 2, 70, 127
1, 192268, Note_on_c, 3, 62, 127
1, 192310, Note_off_c, 3, 58, 100
1, 192358, Note_on_c, 3, 65, 127
1, 192405, Note_off_c, 3, 62, 100
1, 192451, Note_on_c, 3, 62, 127
1, 192497, Note_off_c, 3, 65, 100
1, 192536, Note_off_c, 2, 74, 100
1, 192536, Note_off_c, 2, 70, 100
1, 192544, Note_on_c, 2, 77, 122
1, 192544, Note_on_c, 3, 58, 125
1, 192591, Note_off_c, 3, 62, 100
1, 192591, Note_on_c, 2, 76, 122
1, 192596, Note_off_c, 2, 77, 100
1, 192633, Note_on_c, 3, 62, 127
1, 192633, Note_on_c, 1, 79, 119
1, 192637, Note_off_c, 2, 76, 100
1, 192676, Note_off_c, 3, 58, 100
1, 192676, Note_on_c, 2, 77, 122
1, 192680, Note_off_c, 1, 79, 100
1, 192719, Note_on_c, 2, 75, 124
1, 192720, Note_on_c, 3, 65, 127
1, 192723, Note_off_c, 2, 77, 100
1, 192762, Note_off_c, 3, 62, 100
1, 192762, Note_on_c, 2, 74, 126
1, 192765, Note_off_c, 2, 75, 100
1, 192798, Note_off_c, 2, 74, 100
1, 192804, Note_on_c, 2, 74, 126
1, 192804, Note_on_c, 3, 64, 127
1, 192812, Note_off_c, 3, 65, 100
1, 192899, Note_on_c, 2, 72, 127
1, 192899, Note_on_c, 3, 67, 127
1, 192905, Note_off_c, 2, 74, 100
1, 192932, Note_off_c, 3, 64, 100
1, 192988, Note_on_c, 3, 62, 127
1, 193079, Note_off_c, 3, 67, 100
1, 193080, Note_off_c, 2, 72, 100
1, 193080, Note_on_c, 3, 65, 127
1, 193080, Note_on_c, 2, 70, 127
1, 193116, Note_off_c, 3, 62, 100
1, 193169, Note_on_c, 2, 74, 126
1, 193170, Note_on_c, 3, 64, 127
1, 193178, Note_off_c, 2, 70, 100
1, 193209, Note_off_c, 3, 65, 100
1, 193264, Note_on_c, 2, 72, 127
1, 193265, Note_on_c, 3, 67, 127
1, 193271, Note_off_c, 2, 74, 100
1, 193302, Note_off_c, 3, 64, 100
1, 193354, Note_on_c, 3, 60, 125
1, 193444, Note_off_c, 2, 72, 100
1, 193444, Note_off_c, 3, 67, 100
1, 193445, Note_on_c, 2, 69, 127
1, 193445, Note_on_c, 3, 64, 127
1, 193478, Note_off_c, 3, 60, 100
1, 193530, Note_off_c, 3, 64, 100
1, 193530, Note_off_c, 2, 69, 100
1, 193531, Note_on_c, 2, 70, 127
1, 193532, Note_on_c, 3, 65, 127
1, 193532, Note_on_c, 3, 62, 127
1, 193572, Note_on_c, 2, 72, 127
1, 193576, Note_off_c, 2, 70, 100
1, 193613, Note_on_c, 2, 70, 127
1, 193617, Note_off_c, 2, 72, 100
1, 193655, Note_on_c, 2, 69, 127
1, 193659, Note_off_c, 2, 70, 100
1, 193697, Note_on_c, 2, 70, 127
1, 193701, Note_off_c, 2, 69, 100
1, 193740, Note_on_c, 2, 72, 127
1, 193743, Note_off_c, 2, 70, 100
1, 193781, Note_on_c, 2, 74, 126
1, 193785, Note_off_c, 2, 72, 100
1, 193822, Note_on_c, 2, 75, 124
1, 193826, Note_off_c, 2, 74, 100
1, 193862, Note_on_c, 2, 76, 122
1, 193866, Note_off_c, 2, 75, 100
1, 193903, Note_on_c, 2, 77, 122
1, 193907, Note_off_c, 2, 76, 100
1, 193943, Note_on_c, 2, 76, 122
1, 193949, Note_off_c, 2, 77, 100
1, 193985, Note_on_c, 2, 77, 122
1, 193989, Note_off_c, 2, 76, 100
1, 194028, Note_on_c, 1, 79, 119
1, 194031, Note_off_c, 2, 77, 100
1, 194070, Note_on_c, 2, 77, 122
1, 194074, Note_off_c, 1, 79, 100
1, 194112, Note_on_c, 2, 75, 124
1, 194116, Note_off_c, 2, 77, 100
1, 194154, Note_on_c, 2, 74, 126
1, 194160, Note_off_c, 2, 75, 100
1, 194191, Note_off_c, 3, 62, 100
1, 194191, Note_off_c, 2, 74, 100
1, 194192, Note_off_c, 3, 65, 100
1, 194197, Note_on_c, 2, 74, 126
1, 194198, Note_on_c, 3, 64, 127
1, 194287, Note_on_c, 3, 67, 127
1, 194287, Note_on_c, 2, 72, 127
1, 194295, Note_off_c, 2, 74, 100
1, 194324, Note_off_c, 3, 64, 100
1, 194372, Note_off_c, 2, 72, 100
1, 194380, Note_on_c, 2, 72, 127
1, 194380, Note_on_c, 3, 62, 127
1, 194417, Note_off_c, 3, 67, 100
1, 194471, Note_on_c, 2, 70, 127
1, 194472, Note_on_c, 3, 65, 127
1, 194480, Note_off_c, 2, 72, 100
1, 194510, Note_off_c, 3, 62, 100
1, 194562, Note_on_c, 2, 74, 126
1, 194563, Note_on_c, 3, 64, 127
1, 194602, Note_off_c, 3, 65, 100
1, 194602, Note_off_c, 2, 70, 100
1, 194643, Note_off_c, 2, 74, 100
1, 194654, Note_on_c, 2, 72, 127
1, 194655, Note_on_c, 3, 67, 127
1, 194690, Note_off_c, 3, 64, 100
1, 194736, Note_off_c, 2, 72, 100
1, 194744, Note_on_c, 2, 72, 127
1, 194744, Note_on_c, 3, 60, 125
1, 194781, Note_off_c, 3, 67, 100
1, 194835, Note_on_c, 2, 69, 127
1, 194835, Note_on_c, 3, 64, 127
1, 194844, Note_off_c, 2, 72, 100
1, 194874, Note_off_c, 3, 60, 100
1, 194928, Note_on_c, 3, 65, 127
1, 194928, Note_on_c, 2, 70, 127
1, 194929, Note_on_c, 3, 62, 127
1, 194935, Note_off_c, 3, 64, 100
1, 194935, Note_off_c, 2, 69, 100
1, 195021, Note_on_c, 2, 72, 127
1, 195028, Note_off_c, 2, 70, 100
1, 195062, Note_on_c, 2, 74, 126
1, 195066, Note_off_c, 2, 72, 100
1, 195107, Note_on_c, 2, 75, 124
1, 195112, Note_off_c, 2, 74, 100
1, 195151, Note_on_c, 2, 77, 122
1, 195156, Note_off_c, 2, 75, 100
1, 195197, Note_on_c, 1, 79, 119
1, 195201, Note_off_c, 2, 77, 100
1, 195240, Note_on_c, 1, 81, 119
1, 195245, Note_off_c, 1, 79, 100
1, 195284, Note_on_c, 1, 82, 118
1, 195288, Note_off_c, 1, 81, 100
1, 195326, Note_on_c, 1, 84, 123
1, 195329, Note_off_c, 1, 82, 100
1, 195366, Note_on_c, 1, 86, 125
1, 195371, Note_off_c, 1, 84, 100
1, 195409, Note_on_c, 1, 87, 122
1, 195413, Note_off_c, 1, 86, 100
1, 195454, Note_on_c, 1, 89, 122
1, 195457, Note_off_c, 1, 87, 100
1, 195534, Note_off_c, 1, 89, 100
1, 195540, Note_on_c, 1, 89, 122
1, 195626, Note_off_c, 1, 89, 100
1, 195634, Note_off_c, 3, 62, 100
1, 195635, Note_off_c, 3, 65, 100
1, 195635, Note_on_c, 1, 89, 122
1, 195636, Note_on_c, 2, 77, 122
1, 195636, Note_on_c, 3, 57, 125
1, 195725, Note_on_c, 1, 87, 122
1, 195733, Note_off_c, 1, 89, 100
1, 195816, Note_off_c, 3, 57, 100
1, 195816, Note_on_c, 3, 58, 125
1, 195905, Note_off_c, 1, 87, 100
1, 195905, Note_on_c, 1, 86, 125
1, 195988, Note_off_c, 1, 86, 100
1, 195989, Note_off_c, 2, 77, 100
1, 195995, Note_off_c, 3, 58, 100
1, 195996, Note_on_c, 1, 86, 125
1, 195996, Note_on_c, 2, 77, 122
1, 195996, Note_on_c, 4, 51, 125
1, 196083, Note_on_c, 1, 84, 123
1, 196084, Note_on_c, 2, 75, 124
1, 196090, Note_off_c, 2, 77, 100
1, 196091, Note_off_c, 1, 86, 100
1, 196174, Note_off_c, 4, 51, 100
1, 196174, Note_on_c, 1, 82, 118
1, 196175, Note_on_c, 4, 53, 125
1, 196175, Note_on_c, 2, 74, 126
1, 196181, Note_off_c, 2, 75, 100
1, 196182, Note_off_c, 1, 84, 100
1, 196265, Note_on_c, 1, 81, 119
1, 196265, Note_on_c, 2, 72, 127
1, 196272, Note_off_c, 2, 74, 100
1, 196272, Note_off_c, 1, 82, 100
1, 196359, Note_on_c, 1, 82, 118
1, 196359, Note_on_c, 2, 74, 126
1, 196366, Note_off_c, 2, 72, 100
1, 196366, Note_off_c, 1, 81, 100
1, 196443, Note_off_c, 4, 53, 100
1, 196451, Note_on_c, 4, 46, 125
1, 196543, Note_off_c, 2, 74, 100
1, 196544, Note_off_c, 1, 82, 100
1, 196544, Note_on_c, 2, 70, 127
1, 196545, Note_on_c, 4, 50, 125
1, 196551, Note_off_c, 4, 46, 100
1, 196634, Note_on_c, 4, 53, 125
1, 196642, Note_off_c, 4, 50, 100
1, 196727, Note_on_c, 3, 58, 125
1, 196734, Note_off_c, 4, 53, 100
1, 196897, Note_off_c, 2, 70, 100
1, 196905, Note_off_c, 3, 58, 100
1, 196906, Note_on_c, 3, 67, 127
1, 196952, Note_on_c, 3, 65, 127
1, 196958, Note_off_c, 3, 67, 100
1, 197000, Note_on_c, 3, 63, 127
1, 197004, Note_off_c, 3, 65, 100
1, 197048, Note_on_c, 3, 62, 127
1, 197052, Note_off_c, 3, 63, 100
1, 197094, Note_on_c, 3, 60, 125
1, 197100, Note_off_c, 3, 62, 100
1, 197186, Note_on_c, 3, 58, 125
1, 197187, Note_on_c, 4, 46, 125
1, 197195, Note_off_c, 3, 60, 100
1, 197282, Note_off_c, 3, 58, 100
1, 197290, Note_on_c, 3, 58, 125
1, 197290, Note_on_c, 4, 50, 125
1, 197296, Note_off_c, 4, 46, 100
1, 197386, Note_on_c, 4, 53, 125
1, 197394, Note_off_c, 4, 50, 100
1, 197483, Note_on_c, 4, 50, 125
1, 197490, Note_off_c, 4, 53, 100
1, 197579, Note_on_c, 2, 70, 127
1, 197579, Note_on_c, 4, 46, 125
1, 197587, Note_off_c, 3, 58, 100
1, 197587, Note_off_c, 4, 50, 100
1, 197667, Note_off_c, 2, 70, 100
1, 197675, Note_on_c, 2, 70, 127
1, 197675, Note_on_c, 4, 50, 125
1, 197681, Note_off_c, 4, 46, 100
1, 197764, Note_on_c, 2, 72, 127
1, 197764, Note_on_c, 4, 53, 125
1, 197771, Note_off_c, 4, 50, 100
1, 197771, Note_off_c, 2, 70, 100
1, 197854, Note_on_c, 2, 70, 127
1, 197862, Note_off_c, 2, 72, 100
1, 197950, Note_off_c, 4, 53, 100
1, 197951, Note_on_c, 2, 69, 127
1, 197951, Note_on_c, 4, 46, 125
1, 197957, Note_off_c, 2, 70, 100
1, 198043, Note_on_c, 2, 68, 127
1, 198044, Note_on_c, 4, 50, 125
1, 198050, Note_off_c, 4, 46, 100
1, 198050, Note_off_c, 2, 69, 100
1, 198135, Note_on_c, 4, 53, 125
1, 198143, Note_off_c, 4, 50, 100
1, 198228, Note_on_c, 4, 50, 125
1, 198235, Note_off_c, 4, 53, 100
1, 198312, Note_off_c, 2, 68, 100
1, 198320, Note_on_c, 2, 68, 127
1, 198320, Note_on_c, 4, 46, 125
1, 198326, Note_off_c, 4, 50, 100
1, 198398, Note_off_c, 2, 68, 100
1, 198407, Note_on_c, 2, 68, 127
1, 198408, Note_on_c, 4, 50, 125
1, 198414, Note_off_c, 4, 46, 100
1, 198492, Note_off_c, 2, 68, 100
1, 198502, Note_on_c, 2, 68, 127
1, 198503, Note_on_c, 4, 53, 125
1, 198509, Note_off_c, 4, 50, 100
1, 198595, Note_on_c, 1, 80, 119
1, 198603, Note_off_c, 2, 68, 100
1, 198643, Note_on_c, 1, 82, 118
1, 198647, Note_off_c, 1, 80, 100
1, 198684, Note_off_c, 4, 53, 100
1, 198684, Note_on_c, 1, 79, 119
1, 198684, Note_on_c, 4, 46, 125
1, 198688, Note_off_c, 1, 82, 100
1, 198731, Note_on_c, 1, 80, 119
1, 198734, Note_off_c, 1, 79, 100
1, 198773, Note_on_c, 2, 77, 122
1, 198773, Note_on_c, 4, 50, 125
1, 198778, Note_off_c, 1, 80, 100
1, 198780, Note_off_c, 4, 46, 100
1, 198818, Note_on_c, 1, 79, 119
1, 198822, Note_off_c, 2, 77, 100
1, 198862, Note_on_c, 2, 75, 124
1, 198863, Note_on_c, 4, 53, 125
1, 198865, Note_off_c, 1, 79, 100
1, 198869, Note_off_c, 4, 50, 100
1, 198905, Note_on_c, 2, 77, 122
1, 198911, Note_off_c, 2, 75, 100
1, 198949, Note_on_c, 2, 74, 126
1, 198950, Note_on_c, 4, 56, 125
1, 198954, Note_off_c, 2, 77, 100
1, 198956, Note_off_c, 4, 53, 100
1, 198996, Note_on_c, 2, 75, 124
1, 199002, Note_off_c, 2, 74, 100
1, 199039, Note_on_c, 2, 72, 127
1, 199039, Note_on_c, 4, 53, 125
1, 199044, Note_off_c, 2, 75, 100
1, 199047, Note_off_c, 4, 56, 100
1, 199084, Note_on_c, 2, 74, 126
1, 199090, Note_off_c, 2, 72, 100
1, 199128, Note_on_c, 4, 50, 125
1, 199128, Note_on_c, 2, 70, 127
1, 199133, Note_off_c, 2, 74, 100
1, 199135, Note_off_c, 4, 53, 100
1, 199171, Note_on_c, 2, 72, 127
1, 199177, Note_off_c, 2, 70, 100
1, 199212, Note_on_c, 2, 68, 127
1, 199212, Note_on_c, 4, 46, 125
1, 199215, Note_off_c, 2, 72, 100
1, 199218, Note_off_c, 4, 50, 100
1, 199257, Note_on_c, 2, 70, 127
1, 199260, Note_off_c, 2, 68, 100
1, 199301, Note_on_c, 2, 68, 127
1, 199305, Note_off_c, 2, 70, 100
1, 199393, Note_off_c, 2, 68, 100
1, 199393, Note_off_c, 4, 46, 100
1, 199394, Note_on_c, 3, 67, 127
1, 199394, Note_on_c, 4, 47, 125
1, 199490, Note_off_c, 3, 67, 64
1, 199492, Note_on_c, 3, 67, 127
1, 199492, Note_on_c, 4, 50, 125
1, 199500, Note_off_c, 4, 47, 100
1, 199583, Note_on_c, 4, 53, 125
1, 199591, Note_off_c, 4, 50, 100
1, 199676, Note_on_c, 4, 55, 125
1, 199683, Note_off_c, 4, 53, 100
1, 199767, Note_off_c, 3, 67, 64
1, 199770, Note_on_c, 2, 77, 122
1, 199770, Note_on_c, 4, 53, 125
1, 199778, Note_off_c, 4, 55, 100
1, 199868, Note_on_c, 1, 79, 119
1, 199868, Note_on_c, 4, 50, 125
1, 199874, Note_off_c, 4, 53, 100
1, 199875, Note_off_c, 2, 77, 100
1, 199958, Note_on_c, 2, 77, 122
1, 199958, Note_on_c, 4, 47, 125
1, 199967, Note_off_c, 4, 50, 100
1, 199967, Note_off_c, 1, 79, 100
1, 200040, Note_off_c, 2, 77, 100
1, 200050, Note_on_c, 2, 77, 122
1, 200144, Note_off_c, 4, 47, 100
1, 200145, Note_on_c, 2, 76, 122
1, 200145, Note_on_c, 3, 58, 125
1, 200153, Note_off_c, 2, 77, 100
1, 200235, Note_off_c, 2, 76, 100
1, 200243, Note_on_c, 2, 76, 122
1, 200244, Note_on_c, 3, 61, 125
1, 200250, Note_off_c, 3, 58, 100
1, 200330, Note_on_c, 3, 64, 127
1, 200338, Note_off_c, 3, 61, 100
1, 200426, Note_on_c, 2, 69, 127
1, 200434, Note_off_c, 3, 64, 100
1, 200520, Note_off_c, 2, 76, 100
1, 200521, Note_on_c, 1, 85, 123
1, 200606, Note_off_c, 1, 85, 100
1, 200614, Note_on_c, 1, 85, 123
1, 200706, Note_on_c, 2, 76, 122
1, 200712, Note_off_c, 1, 85, 100
1, 200796, Note_on_c, 1, 79, 119
1, 200804, Note_off_c, 2, 76, 100
1, 200875, Note_off_c, 2, 69, 100
1, 200890, Note_on_c, 2, 77, 122
1, 200891, Note_on_c, 3, 57, 125
1, 200897, Note_off_c, 1, 79, 100
1, 200981, Note_off_c, 2, 77, 100
1, 200990, Note_on_c, 2, 77, 122
1, 200990, Note_on_c, 3, 60, 125
1, 200997, Note_off_c, 3, 57, 100
1, 201085, Note_on_c, 3, 65, 127
1, 201093, Note_off_c, 3, 60, 100
1, 201175, Note_on_c, 2, 69, 127
1, 201183, Note_off_c, 3, 65, 100
1, 201260, Note_off_c, 2, 77, 100
1, 201267, Note_on_c, 2, 77, 122
1, 201361, Note_on_c, 1, 79, 119
1, 201367, Note_off_c, 2, 77, 100
1, 201454, Note_on_c, 2, 75, 124
1, 201459, Note_off_c, 1, 79, 100
1, 201547, Note_on_c, 2, 73, 127
1, 201554, Note_off_c, 2, 75, 100
1, 201624, Note_off_c, 2, 69, 100
1, 201637, Note_on_c, 2, 74, 126
1, 201637, Note_on_c, 3, 59, 125
1, 201646, Note_off_c, 2, 73, 100
1, 201724, Note_off_c, 2, 74, 100
1, 201732, Note_on_c, 2, 74, 126
1, 201732, Note_on_c, 3, 62, 127
1, 201741, Note_off_c, 3, 59, 100
1, 201823, Note_on_c, 3, 65, 127
1, 201831, Note_off_c, 3, 62, 100
1, 201913, Note_on_c, 2, 70, 127
1, 201923, Note_off_c, 3, 65, 100
1, 202006, Note_off_c, 2, 74, 100
1, 202006, Note_on_c, 2, 77, 122
1, 202097, Note_on_c, 1, 79, 119
1, 202104, Note_off_c, 2, 77, 100
1, 202141, Note_on_c, 2, 77, 122
1, 202145, Note_off_c, 1, 79, 100
1, 202186, Note_on_c, 2, 75, 124
1, 202191, Note_off_c, 2, 77, 100
1, 202232, Note_on_c, 2, 74, 126
1, 202235, Note_off_c, 2, 75, 100
1, 202282, Note_off_c, 2, 70, 100
1, 202282, Note_on_c, 2, 72, 127
1, 202282, Note_on_c, 3, 64, 127
1, 202284, Note_off_c, 2, 74, 100
1, 202373, Note_on_c, 3, 65, 127
1, 202382, Note_off_c, 3, 64, 100
1, 202465, Note_on_c, 3, 64, 127
1, 202473, Note_off_c, 3, 65, 100
1, 202543, Note_off_c, 2, 72, 100
1, 202553, Note_on_c, 2, 69, 127
1, 202554, Note_on_c, 3, 65, 127
1, 202562, Note_off_c, 3, 64, 100
1, 202643, Note_on_c, 2, 70, 127
1, 202643, Note_on_c, 3, 62, 127
1, 202651, Note_off_c, 3, 65, 100
1, 202652, Note_off_c, 2, 69, 100
1, 202687, Note_on_c, 2, 77, 117
1, 202692, Note_off_c, 2, 70, 100
1, 202733, Note_on_c, 3, 65, 127
1, 202733, Note_on_c, 2, 76, 117
1, 202737, Note_off_c, 2, 77, 100
1, 202740, Note_off_c, 3, 62, 100
1, 202776, Note_on_c, 2, 77, 117
1, 202781, Note_off_c, 2, 76, 100
1, 202822, Note_on_c, 1, 79, 114
1, 202823, Note_on_c, 3, 62, 127
1, 202826, Note_off_c, 2, 77, 100
1, 202831, Note_off_c, 3, 65, 100
1, 202873, Note_on_c, 2, 77, 117
1, 202876, Note_off_c, 1, 79, 100
1, 202917, Note_on_c, 2, 75, 119
1, 202918, Note_on_c, 3, 65, 127
1, 202922, Note_off_c, 2, 77, 100
1, 202926, Note_off_c, 3, 62, 100
1, 202962, Note_on_c, 2, 74, 126
1, 202966, Note_off_c, 2, 75, 100
1, 203006, Note_on_c, 2, 72, 127
1, 203007, Note_on_c, 3, 64, 127
1, 203011, Note_off_c, 2, 74, 100
1, 203015, Note_off_c, 3, 65, 100
1, 203090, Note_off_c, 2, 72, 100
1, 203100, Note_on_c, 2, 72, 127
1, 203100, Note_on_c, 3, 65, 127
1, 203106, Note_off_c, 3, 64, 100
1, 203185, Note_on_c, 3, 64, 127
1, 203195, Note_off_c, 3, 65, 100
1, 203281, Note_off_c, 2, 72, 100
1, 203281, Note_on_c, 2, 69, 127
1, 203282, Note_on_c, 3, 65, 127
1, 203288, Note_off_c, 3, 64, 100
1, 203376, Note_on_c, 2, 70, 127
1, 203376, Note_on_c, 3, 62, 127
1, 203383, Note_off_c, 3, 65, 100
1, 203383, Note_off_c, 2, 69, 100
1, 203418, Note_on_c, 2, 77, 112
1, 203424, Note_off_c, 2, 70, 100
1, 203464, Note_on_c, 2, 76, 112
1, 203465, Note_on_c, 3, 65, 127
1, 203469, Note_off_c, 2, 77, 100
1, 203471, Note_off_c, 3, 62, 100
1, 203508, Note_on_c, 2, 77, 112
1, 203511, Note_off_c, 2, 76, 100
1, 203550, Note_on_c, 1, 79, 109
1, 203550, Note_on_c, 3, 62, 127
1, 203553, Note_off_c, 2, 77, 100
1, 203556, Note_off_c, 3, 65, 100
1, 203595, Note_on_c, 2, 77, 112
1, 203599, Note_off_c, 1, 79, 100
1, 203639, Note_on_c, 2, 75, 114
1, 203640, Note_on_c, 3, 65, 127
1, 203642, Note_off_c, 2, 77, 100
1, 203646, Note_off_c, 3, 62, 100
1, 203680, Note_on_c, 2, 74, 121
1, 203684, Note_off_c, 2, 75, 100
1, 203717, Note_off_c, 2, 74, 100
1, 203725, Note_on_c, 2, 74, 121
1, 203725, Note_on_c, 3, 64, 127
1, 203731, Note_off_c, 3, 65, 100
1, 203814, Note_on_c, 2, 72, 127
1, 203814, Note_on_c, 3, 67, 127
1, 203822, Note_off_c, 3, 64, 100
1, 203823, Note_off_c, 2, 74, 100
1, 203904, Note_on_c, 3, 64, 127
1, 203985, Note_off_c, 3, 67, 100
1, 203985, Note_off_c, 2, 72, 100
1, 203991, Note_on_c, 2, 72, 127
1, 203992, Note_on_c, 3, 67, 127
1, 204000, Note_off_c, 3, 64, 100
1, 204079, Note_off_c, 2, 72, 100
1, 204086, Note_on_c, 2, 72, 127
1, 204087, Note_on_c, 3, 64, 127
1, 204168, Note_off_c, 3, 67, 100
1, 204176, Note_on_c, 2, 70, 127
1, 204176, Note_on_c, 3, 67, 127
1, 204184, Note_off_c, 3, 64, 100
1, 204185, Note_off_c, 2, 72, 100
1, 204262, Note_on_c, 3, 64, 127
1, 204341, Note_off_c, 3, 67, 100
1, 204341, Note_off_c, 2, 70, 100
1, 204348, Note_on_c, 2, 70, 127
1, 204348, Note_on_c, 3, 67, 127
1, 204356, Note_off_c, 3, 64, 100
1, 204441, Note_on_c, 2, 69, 127
1, 204442, Note_on_c, 4, 53, 125
1, 204449, Note_off_c, 3, 67, 100
1, 204450, Note_off_c, 2, 70, 100
1, 204487, Note_on_c, 2, 70, 127
1, 204491, Note_off_c, 2, 69, 100
1, 204531, Note_on_c, 2, 69, 127
1, 204535, Note_off_c, 2, 70, 100
1, 204574, Note_on_c, 3, 65, 127
1, 204577, Note_off_c, 2, 69, 100
1, 204618, Note_off_c, 4, 53, 100
1, 204618, Note_on_c, 2, 70, 127
1, 204619, Note_on_c, 4, 55, 125
1, 204622, Note_off_c, 3, 65, 100
1, 204661, Note_on_c, 2, 72, 127
1, 204664, Note_off_c, 2, 70, 100
1, 204703, Note_on_c, 2, 70, 127
1, 204708, Note_off_c, 2, 72, 100
1, 204747, Note_on_c, 3, 65, 127
1, 204753, Note_off_c, 2, 70, 100
1, 204790, Note_off_c, 4, 55, 100
1, 204790, Note_on_c, 2, 72, 127
1, 204791, Note_on_c, 3, 57, 125
1, 204794, Note_off_c, 3, 65, 100
1, 204832, Note_on_c, 2, 74, 126
1, 204836, Note_off_c, 2, 72, 100
1, 204877, Note_on_c, 2, 72, 127
1, 204880, Note_off_c, 2, 74, 100
1, 204917, Note_on_c, 3, 65, 127
1, 204921, Note_off_c, 2, 72, 100
1, 204958, Note_off_c, 3, 57, 100
1, 204958, Note_on_c, 2, 74, 126
1, 204959, Note_on_c, 3, 58, 125
1, 204962, Note_off_c, 3, 65, 100
1, 204999, Note_on_c, 2, 75, 124
1, 205003, Note_off_c, 2, 74, 100
1, 205041, Note_on_c, 2, 74, 126
1, 205046, Note_off_c, 2, 75, 100
1, 205083, Note_on_c, 3, 65, 127
1, 205087, Note_off_c, 2, 74, 100
1, 205123, Note_on_c, 2, 75, 124
1, 205126, Note_off_c, 3, 58, 100
1, 205127, Note_on_c, 3, 60, 125
1, 205130, Note_off_c, 3, 65, 100
1, 205208, Note_off_c, 2, 75, 100
1, 205219, Note_on_c, 3, 65, 127
1, 205222, Note_on_c, 2, 75, 124
1, 205308, Note_off_c, 3, 60, 100
1, 205308, Note_on_c, 3, 57, 125
1, 205315, Note_off_c, 3, 65, 100
1, 205394, Note_on_c, 2, 72, 127
1, 205394, Note_on_c, 3, 65, 127
1, 205396, Note_off_c, 2, 75, 100
1, 205481, Note_off_c, 3, 57, 100
1, 205481, Note_on_c, 2, 75, 124
1, 205482, Note_on_c, 3, 58, 125
1, 205489, Note_off_c, 3, 65, 100
1, 205490, Note_off_c, 2, 72, 100
1, 205572, Note_on_c, 2, 74, 126
1, 205572, Note_on_c, 3, 65, 127
1, 205581, Note_off_c, 2, 75, 100
1, 205664, Note_off_c, 3, 58, 100
1, 205665, Note_on_c, 2, 72, 127
1, 205665, Note_on_c, 4, 55, 125
1, 205671, Note_off_c, 3, 65, 100
1, 205671, Note_off_c, 2, 74, 100
1, 205749, Note_on_c, 2, 70, 127
1, 205749, Note_on_c, 3, 65, 127
1, 205756, Note_off_c, 2, 72, 100
1, 205839, Note_off_c, 4, 55, 100
1, 205839, Note_on_c, 2, 69, 127
1, 205840, Note_on_c, 4, 53, 125
1, 205846, Note_off_c, 3, 65, 100
1, 205846, Note_off_c, 2, 70, 100
1, 205885, Note_on_c, 3, 65, 127
1, 205931, Note_on_c, 2, 76, 122
1, 205939, Note_off_c, 2, 69, 100
1, 205977, Note_on_c, 2, 77, 122
1, 205981, Note_off_c, 2, 76, 100
1, 205985, Note_off_c, 3, 65, 100
1, 206020, Note_off_c, 4, 53, 100
1, 206020, Note_on_c, 2, 70, 127
1, 206021, Note_on_c, 4, 55, 125
1, 206025, Note_off_c, 2, 77, 100
1, 206064, Note_on_c, 3, 65, 127
1, 206110, Note_on_c, 2, 76, 122
1, 206115, Note_off_c, 2, 70, 100
1, 206154, Note_on_c, 2, 77, 122
1, 206158, Note_off_c, 2, 76, 100
1, 206161, Note_off_c, 3, 65, 100
1, 206196, Note_off_c, 4, 55, 100
1, 206196, Note_on_c, 2, 72, 127
1, 206197, Note_on_c, 3, 57, 125
1, 206199, Note_off_c, 2, 77, 100
1, 206235, Note_on_c, 3, 65, 127
1, 206278, Note_on_c, 2, 76, 122
1, 206285, Note_off_c, 2, 72, 100
1, 206322, Note_on_c, 2, 77, 122
1, 206326, Note_off_c, 2, 76, 100
1, 206328, Note_off_c, 3, 65, 100
1, 206363, Note_off_c, 3, 57, 100
1, 206363, Note_on_c, 2, 74, 126
1, 206364, Note_on_c, 3, 58, 125
1, 206366, Note_off_c, 2, 77, 100
1, 206402, Note_on_c, 3, 65, 127
1, 206434, Note_on_c, 2, 76, 122
1, 206452, Note_off_c, 2, 74, 100
1, 206475, Note_off_c, 2, 76, 100
1, 206482, Note_on_c, 2, 77, 122
1, 206500, Note_off_c, 3, 65, 100
1, 206519, Note_off_c, 2, 77, 100
1, 206528, Note_on_c, 2, 75, 124
1, 206537, Note_off_c, 3, 58, 100
1, 206538, Note_on_c, 3, 60, 125
1, 206592, Note_on_c, 3, 65, 127
1, 206619, Note_off_c, 2, 75, 100
1, 206636, Note_on_c, 3, 63, 127
1, 206640, Note_off_c, 3, 65, 100
1, 206648, Note_on_c, 2, 75, 124
1, 206685, Note_on_c, 3, 65, 127
1, 206688, Note_off_c, 3, 63, 100
1, 206729, Note_off_c, 3, 60, 100
1, 206729, Note_on_c, 3, 57, 125
1, 206736, Note_off_c, 3, 65, 100
1, 206780, Note_on_c, 3, 65, 127
1, 206827, Note_on_c, 2, 72, 127
1, 206827, Note_on_c, 3, 63, 127
1, 206831, Note_off_c, 3, 65, 100
1, 206838, Note_off_c, 2, 75, 100
1, 206868, Note_on_c, 3, 65, 127
1, 206871, Note_off_c, 3, 63, 100
1, 206914, Note_off_c, 3, 57, 100
1, 206914, Note_on_c, 2, 75, 124
1, 206915, Note_on_c, 3, 58, 125
1, 206917, Note_off_c, 3, 65, 100
1, 206921, Note_off_c, 2, 72, 100
1, 206958, Note_on_c, 3, 65, 127
1, 207006, Note_on_c, 2, 74, 126
1, 207006, Note_on_c, 3, 63, 127
1, 207010, Note_off_c, 3, 65, 100
1, 207014, Note_off_c, 2, 75, 100
1, 207049, Note_on_c, 3, 65, 127
1, 207052, Note_off_c, 3, 63, 100
1, 207095, Note_off_c, 3, 58, 100
1, 207096, Note_on_c, 2, 72, 127
1, 207096, Note_on_c, 4, 55, 125
1, 207099, Note_off_c, 3, 65, 100
1, 207104, Note_off_c, 2, 74, 100
1, 207142, Note_on_c, 3, 65, 127
1, 207188, Note_on_c, 2, 70, 127
1, 207189, Note_on_c, 3, 63, 127
1, 207191, Note_off_c, 3, 65, 100
1, 207195, Note_off_c, 2, 72, 100
1, 207233, Note_on_c, 3, 65, 127
1, 207239, Note_off_c, 3, 63, 100
1, 207279, Note_off_c, 4, 55, 100
1, 207280, Note_on_c, 3, 65, 127
1, 207280, Note_on_c, 2, 69, 127
1, 207281, Note_on_c, 4, 53, 125
1, 207285, Note_off_c, 3, 65, 100
1, 207287, Note_off_c, 2, 70, 100
1, 207324, Note_on_c, 2, 77, 122
1, 207329, Note_off_c, 2, 69, 100
1, 207370, Note_on_c, 2, 72, 127
1, 207373, Note_off_c, 2, 77, 100
1, 207400, Note_off_c, 4, 53, 100
1, 207401, Note_off_c, 3, 65, 100
1, 207415, Note_on_c, 2, 69, 127
1, 207420, Note_off_c, 2, 72, 100
1, 207459, Note_on_c, 3, 65, 127
1, 207462, Note_off_c, 2, 69, 100
1, 207503, Note_on_c, 3, 60, 125
1, 207507, Note_off_c, 3, 65, 100
1, 207547, Note_on_c, 3, 57, 125
1, 207552, Note_off_c, 3, 60, 100
1, 207599, Note_on_c, 4, 53, 125
1, 207604, Note_off_c, 3, 57, 100
1, 207665, Note_on_c, 4, 41, 125
1, 207666, Note_on_c, 4, 29, 125
1, 207691, Note_off_c, 4, 53, 100
1, 207787, Note_off_c, 4, 29, 100
1, 208000, Note_off_c, 4, 41, 100
1, 208001, Note_on_c, 4, 46, 125
1, 208001, Note_on_c, 4, 53, 125
1, 208002, Note_on_c, 4, 34, 125
1, 208020, Note_on_c, 3, 58, 125
1, 208029, Note_on_c, 3, 62, 127
1, 208054, Note_on_c, 3, 65, 127
1, 208261, Note_off_c, 3, 65, 100
1, 208279, Note_off_c, 4, 53, 100
1, 208279, Note_on_c, 3, 67, 127
1, 208291, Note_off_c, 3, 58, 100
1, 208297, Note_off_c, 3, 62, 100
1, 208324, Note_on_c, 3, 65, 127
1, 208328, Note_off_c, 3, 67, 100
1, 208372, Note_on_c, 3, 63, 127
1, 208378, Note_off_c, 3, 65, 100
1, 208466, Note_on_c, 3, 62, 127
1, 208474, Note_off_c, 3, 63, 100
1, 208558, Note_on_c, 3, 60, 125
1, 208564, Note_off_c, 3, 62, 100
1, 208646, Note_on_c, 3, 58, 125
1, 208654, Note_off_c, 3, 60, 100
1, 208729, Note_off_c, 3, 58, 100
1, 208737, Note_on_c, 3, 58, 125
1, 208831, Note_on_c, 3, 67, 127
1, 208838, Note_off_c, 3, 58, 100
1, 208915, Note_off_c, 3, 67, 100
1, 208923, Note_off_c, 4, 46, 100
1, 208923, Note_off_c, 4, 34, 100
1, 208924, Note_on_c, 3, 67, 127
1, 208924, Note_on_c, 3, 58, 125
1, 208925, Note_on_c, 4, 51, 125
1, 208925, Note_on_c, 4, 39, 125
1, 209187, Note_off_c, 3, 58, 100
1, 209187, Note_off_c, 3, 67, 100
1, 209188, Note_on_c, 3, 65, 127
1, 209284, Note_off_c, 4, 39, 100
1, 209284, Note_off_c, 4, 51, 100
1, 209285, Note_on_c, 2, 69, 127
1, 209285, Note_on_c, 4, 50, 125
1, 209290, Note_off_c, 3, 65, 100
1, 209374, Note_on_c, 2, 70, 127
1, 209381, Note_off_c, 2, 69, 100
1, 209452, Note_off_c, 2, 70, 100
1, 209460, Note_off_c, 4, 50, 100
1, 209460, Note_on_c, 2, 70, 127
1, 209461, Note_on_c, 4, 55, 125
1, 209461, Note_on_c, 4, 52, 125
1, 209552, Note_on_c, 3, 60, 125
1, 209648, Note_off_c, 4, 52, 100
1, 209649, Note_off_c, 2, 70, 100
1, 209649, Note_off_c, 4, 55, 100
1, 209650, Note_on_c, 4, 53, 125
1, 209740, Note_off_c, 3, 60, 100
1, 209741, Note_on_c, 3, 62, 127
1, 209832, Note_off_c, 4, 53, 100
1, 209832, Note_on_c, 2, 70, 127
1, 209832, Note_on_c, 4, 55, 125
1, 209833, Note_on_c, 4, 52, 125
1, 209920, Note_off_c, 3, 62, 100
1, 209920, Note_on_c, 3, 60, 125
1, 210013, Note_off_c, 4, 55, 100
1, 210013, Note_off_c, 4, 52, 100
1, 210014, Note_off_c, 2, 70, 100
1, 210014, Note_on_c, 4, 53, 125
1, 210105, Note_off_c, 3, 60, 100
1, 210106, Note_on_c, 3, 62, 127
1, 210198, Note_off_c, 4, 53, 100
1, 210199, Note_on_c, 3, 65, 127
1, 210199, Note_on_c, 4, 55, 125
1, 210207, Note_off_c, 3, 62, 100
1, 210378, Note_off_c, 4, 55, 100
1, 210378, Note_off_c, 3, 65, 100
1, 210379, Note_on_c, 3, 57, 125
1, 210379, Note_on_c, 3, 63, 127
1, 210462, Note_off_c, 3, 63, 100
1, 210463, Note_on_c, 3, 62, 127
1, 210507, Note_on_c, 3, 63, 127
1, 210511, Note_off_c, 3, 62, 100
1, 210552, Note_off_c, 3, 57, 100
1, 210552, Note_on_c, 3, 58, 125
1, 210552, Note_on_c, 3, 62, 127
1, 210556, Note_off_c, 3, 63, 100
1, 210633, Note_off_c, 3, 62, 100
1, 210641, Note_on_c, 3, 62, 127
1, 210729, Note_on_c, 3, 63, 127
1, 210737, Note_off_c, 3, 62, 100
1, 210820, Note_on_c, 3, 65, 127
1, 210828, Note_off_c, 3, 63, 100
1, 210912, Note_on_c, 3, 66, 127
1, 210920, Note_off_c, 3, 65, 100
1, 210987, Note_off_c, 3, 58, 100
1, 211003, Note_on_c, 3, 67, 127
1, 211003, Note_on_c, 4, 39, 125
1, 211009, Note_off_c, 3, 66, 100
1, 211092, Note_on_c, 4, 43, 125
1, 211100, Note_off_c, 4, 39, 100
1, 211178, Note_off_c, 3, 67, 100
1, 211179, Note_on_c, 3, 65, 127
1, 211179, Note_on_c, 4, 48, 125
1, 211187, Note_off_c, 4, 43, 100
1, 211224, Note_on_c, 3, 63, 127
1, 211229, Note_off_c, 3, 65, 100
1, 211268, Note_on_c, 3, 62, 127
1, 211269, Note_on_c, 4, 51, 125
1, 211271, Note_off_c, 3, 63, 100
1, 211274, Note_off_c, 4, 48, 100
1, 211357, Note_on_c, 3, 60, 125
1, 211365, Note_off_c, 3, 62, 100
1, 211444, Note_on_c, 3, 62, 127
1, 211451, Note_off_c, 3, 60, 100
1, 211531, Note_on_c, 3, 63, 127
1, 211539, Note_off_c, 3, 62, 100
1, 211622, Note_on_c, 3, 67, 127
1, 211630, Note_off_c, 3, 63, 100
1, 211699, Note_off_c, 4, 51, 100
1, 211715, Note_on_c, 3, 65, 127
1, 211715, Note_on_c, 4, 38, 125
1, 211721, Note_off_c, 3, 67, 100
1, 211804, Note_on_c, 4, 41, 125
1, 211810, Note_off_c, 4, 38, 100
1, 211890, Note_off_c, 3, 65, 100
1, 211891, Note_on_c, 3, 63, 127
1, 211891, Note_on_c, 4, 46, 125
1, 211899, Note_off_c, 4, 41, 100
1, 211937, Note_on_c, 3, 62, 127
1, 211941, Note_off_c, 3, 63, 100
1, 211981, Note_on_c, 3, 60, 125
1, 211982, Note_on_c, 4, 50, 125
1, 211986, Note_off_c, 3, 62, 100
1, 211990, Note_off_c, 4, 46, 100
1, 212071, Note_on_c, 3, 58, 125
1, 212078, Note_off_c, 3, 60, 100
1, 212161, Note_on_c, 3, 60, 125
1, 212171, Note_off_c, 3, 58, 100
1, 212255, Note_on_c, 3, 62, 127
1, 212263, Note_off_c, 3, 60, 100
1, 212347, Note_off_c, 4, 50, 100
1, 212348, Note_on_c, 3, 65, 127
1, 212348, Note_on_c, 4, 48, 125
1, 212357, Note_off_c, 3, 62, 100
1, 212445, Note_on_c, 3, 63, 127
1, 212453, Note_off_c, 3, 65, 100
1, 212537, Note_off_c, 4, 48, 100
1, 212538, Note_on_c, 4, 45, 125
1, 212617, Note_off_c, 3, 63, 100
1, 212617, Note_on_c, 3, 60, 125
1, 212706, Note_off_c, 4, 45, 100
1, 212707, Note_on_c, 3, 63, 127
1, 212707, Note_on_c, 4, 46, 125
1, 212715, Note_off_c, 3, 60, 100
1, 212796, Note_on_c, 3, 62, 127
1, 212801, Note_off_c, 3, 63, 100
1, 212878, Note_off_c, 4, 46, 100
1, 212879, Note_on_c, 4, 43, 125
1, 212967, Note_off_c, 3, 62, 100
1, 212968, Note_on_c, 3, 58, 125
1, 213055, Note_off_c, 4, 43, 100
1, 213055, Note_on_c, 3, 57, 125
1, 213056, Note_on_c, 4, 41, 125
1, 213061, Note_off_c, 3, 58, 100
1, 213102, Note_on_c, 3, 58, 125
1, 213106, Note_off_c, 3, 57, 100
1, 213146, Note_on_c, 3, 59, 125
1, 213152, Note_off_c, 3, 58, 100
1, 213190, Note_on_c, 3, 60, 125
1, 213194, Note_off_c, 3, 59, 100
1, 213232, Note_on_c, 3, 61, 125
1, 213238, Note_off_c, 3, 60, 100
1, 213276, Note_on_c, 3, 62, 127
1, 213280, Note_off_c, 3, 61, 100
1, 213320, Note_on_c, 3, 63, 127
1, 213324, Note_off_c, 3, 62, 100
1, 213362, Note_on_c, 3, 64, 127
1, 213366, Note_off_c, 3, 63, 100
1, 213404, Note_on_c, 3, 65, 127
1, 213405, Note_on_c, 4, 53, 125
1, 213409, Note_off_c, 3, 64, 100
1, 213455, Note_on_c, 4, 55, 125
1, 213459, Note_off_c, 4, 53, 100
1, 213497, Note_on_c, 4, 51, 125
1, 213501, Note_off_c, 4, 55, 100
1, 213540, Note_on_c, 4, 53, 125
1, 213545, Note_off_c, 4, 51, 100
1, 213584, Note_on_c, 4, 50, 125
1, 213588, Note_off_c, 4, 53, 100
1, 213630, Note_on_c, 4, 51, 125
1, 213636, Note_off_c, 4, 50, 100
1, 213672, Note_on_c, 4, 48, 125
1, 213678, Note_off_c, 4, 51, 100
1, 213720, Note_on_c, 4, 50, 125
1, 213725, Note_off_c, 4, 48, 100
1, 213756, Note_off_c, 3, 65, 100
1, 213764, Note_off_c, 4, 41, 100
1, 213764, Note_on_c, 2, 70, 127
1, 213765, Note_on_c, 4, 46, 125
1, 213765, Note_on_c, 3, 65, 127
1, 213766, Note_on_c, 2, 74, 126
1, 213767, Note_off_c, 4, 50, 100
1, 213769, Note_on_c, 2, 77, 122
1, 213950, Note_on_c, 3, 58, 125
1, 214048, Note_on_c, 1, 79, 119
1, 214053, Note_off_c, 2, 77, 100
1, 214080, Note_off_c, 2, 74, 100
1, 214092, Note_on_c, 2, 77, 122
1, 214097, Note_off_c, 1, 79, 100
1, 214136, Note_on_c, 2, 75, 124
1, 214142, Note_off_c, 2, 77, 100
1, 214232, Note_off_c, 2, 70, 100
1, 214233, Note_on_c, 2, 74, 126
1, 214239, Note_off_c, 2, 75, 100
1, 214320, Note_on_c, 2, 72, 127
1, 214327, Note_off_c, 2, 74, 100
1, 214382, Note_off_c, 3, 65, 100
1, 214411, Note_on_c, 2, 70, 127
1, 214418, Note_off_c, 2, 72, 100
1, 214495, Note_off_c, 2, 70, 100
1, 214503, Note_on_c, 2, 70, 127
1, 214591, Note_on_c, 1, 79, 119
1, 214599, Note_off_c, 2, 70, 100
1, 214676, Note_off_c, 1, 79, 100
1, 214685, Note_off_c, 4, 46, 100
1, 214686, Note_on_c, 1, 79, 119
1, 214686, Note_on_c, 2, 70, 127
1, 214848, Note_off_c, 3, 58, 100
1, 214861, Note_on_c, 4, 51, 125
1, 214861, Note_on_c, 3, 63, 127
1, 214958, Note_off_c, 2, 70, 100
1, 214958, Note_off_c, 1, 79, 100
1, 214959, Note_on_c, 2, 77, 122
1, 215042, Note_off_c, 3, 63, 100
1, 215043, Note_on_c, 1, 81, 119
1, 215043, Note_on_c, 3, 62, 127
1, 215051, Note_off_c, 2, 77, 100
1, 215137, Note_on_c, 1, 82, 118
1, 215145, Note_off_c, 1, 81, 100
1, 215218, Note_off_c, 1, 82, 100
1, 215226, Note_off_c, 3, 62, 100
1, 215226, Note_on_c, 1, 82, 118
1, 215227, Note_on_c, 3, 67, 127
1, 215227, Note_on_c, 3, 64, 127
1, 215314, Note_on_c, 2, 72, 127
1, 215320, Note_off_c, 1, 82, 100
1, 215404, Note_off_c, 3, 64, 100
1, 215405, Note_off_c, 3, 67, 100
1, 215405, Note_on_c, 2, 74, 126
1, 215406, Note_on_c, 3, 65, 127
1, 215412, Note_off_c, 2, 72, 100
1, 215496, Note_on_c, 1, 82, 118
1, 215502, Note_off_c, 2, 74, 100
1, 215575, Note_off_c, 1, 82, 100
1, 215585, Note_off_c, 3, 65, 100
1, 215585, Note_on_c, 1, 82, 118
1, 215586, Note_on_c, 3, 67, 127
1, 215586, Note_on_c, 3, 64, 127
1, 215675, Note_on_c, 2, 72, 127
1, 215683, Note_off_c, 1, 82, 100
1, 215767, Note_off_c, 3, 64, 100
1, 215768, Note_off_c, 3, 67, 100
1, 215768, Note_on_c, 2, 74, 126
1, 215769, Note_on_c, 3, 65, 127
1, 215775, Note_off_c, 2, 72, 100
1, 215859, Note_on_c, 1, 82, 118
1, 215867, Note_off_c, 2, 74, 100
1, 215950, Note_off_c, 3, 65, 100
1, 215950, Note_on_c, 2, 77, 122
1, 215951, Note_on_c, 2, 70, 127
1, 215951, Note_on_c, 3, 67, 127
1, 215957, Note_off_c, 1, 82, 100
1, 216129, Note_off_c, 3, 67, 100
1, 216130, Note_off_c, 2, 77, 100
1, 216130, Note_off_c, 2, 70, 100
1, 216131, Note_on_c, 2, 72, 127
1, 216131, Note_on_c, 2, 75, 124
1, 216132, Note_on_c, 2, 69, 127
1, 216217, Note_off_c, 2, 75, 100
1, 216224, Note_on_c, 2, 75, 124
1, 216312, Note_off_c, 2, 69, 100
1, 216313, Note_off_c, 2, 72, 100
1, 216313, Note_on_c, 2, 74, 126
1, 216314, Note_on_c, 2, 70, 127
1, 216319, Note_off_c, 2, 75, 100
1, 216392, Note_off_c, 2, 74, 100
1, 216399, Note_on_c, 2, 74, 126
1, 216490, Note_on_c, 2, 75, 124
1, 216496, Note_off_c, 2, 74, 100
1, 216583, Note_on_c, 2, 77, 122
1, 216590, Note_off_c, 2, 75, 100
1, 216598, Note_off_c, 4, 51, 100
1, 216669, Note_on_c, 1, 78, 119
1, 216677, Note_off_c, 2, 77, 100
1, 216750, Note_off_c, 2, 70, 100
1, 216765, Note_on_c, 1, 79, 119
1, 216766, Note_on_c, 4, 55, 125
1, 216772, Note_off_c, 1, 78, 100
1, 216856, Note_on_c, 3, 67, 127
1, 216950, Note_off_c, 4, 55, 100
1, 216951, Note_off_c, 1, 79, 100
1, 216951, Note_on_c, 1, 81, 119
1, 216952, Note_on_c, 3, 65, 127
1, 216958, Note_off_c, 3, 67, 100
1, 216996, Note_on_c, 1, 83, 118
1, 217002, Note_off_c, 1, 81, 100
1, 217044, Note_on_c, 1, 84, 123
1, 217045, Note_on_c, 3, 63, 127
1, 217047, Note_off_c, 1, 83, 100
1, 217051, Note_off_c, 3, 65, 100
1, 217090, Note_on_c, 1, 86, 125
1, 217093, Note_off_c, 1, 84, 100
1, 217136, Note_on_c, 4, 51, 125
1, 217136, Note_on_c, 1, 87, 122
1, 217139, Note_off_c, 1, 86, 100
1, 217142, Note_off_c, 3, 63, 100
1, 217180, Note_on_c, 1, 86, 125
1, 217184, Note_off_c, 1, 87, 100
1, 217224, Note_on_c, 1, 84, 123
1, 217224, Note_on_c, 3, 63, 127
1, 217228, Note_off_c, 1, 86, 100
1, 217273, Note_on_c, 1, 86, 125
1, 217277, Note_off_c, 1, 84, 100
1, 217317, Note_off_c, 4, 51, 100
1, 217318, Note_on_c, 1, 82, 118
1, 217318, Note_on_c, 3, 62, 127
1, 217320, Note_off_c, 1, 86, 100
1, 217324, Note_off_c, 3, 63, 100
1, 217362, Note_on_c, 1, 84, 123
1, 217366, Note_off_c, 1, 82, 100
1, 217408, Note_on_c, 1, 81, 119
1, 217409, Note_on_c, 3, 60, 125
1, 217413, Note_off_c, 1, 84, 100
1, 217417, Note_off_c, 3, 62, 100
1, 217455, Note_on_c, 1, 82, 118
1, 217459, Note_off_c, 1, 81, 100
1, 217498, Note_on_c, 1, 79, 119
1, 217498, Note_on_c, 3, 58, 125
1, 217502, Note_off_c, 1, 82, 100
1, 217504, Note_off_c, 3, 60, 100
1, 217543, Note_on_c, 1, 81, 119
1, 217547, Note_off_c, 1, 79, 100
1, 217585, Note_on_c, 3, 57, 125
1, 217585, Note_on_c, 2, 77, 122
1, 217590, Note_off_c, 1, 81, 100
1, 217594, Note_off_c, 3, 58, 100
1, 217632, Note_on_c, 1, 79, 119
1, 217636, Note_off_c, 2, 77, 100
1, 217677, Note_on_c, 2, 75, 124
1, 217677, Note_on_c, 4, 53, 125
1, 217681, Note_off_c, 1, 79, 100
1, 217683, Note_off_c, 3, 57, 100
1, 217719, Note_on_c, 2, 77, 122
1, 217725, Note_off_c, 2, 75, 100
1, 217762, Note_on_c, 3, 58, 125
1, 217762, Note_on_c, 2, 74, 126
1, 217766, Note_off_c, 2, 77, 100
1, 217770, Note_off_c, 4, 53, 100
1, 217807, Note_on_c, 2, 75, 124
1, 217811, Note_off_c, 2, 74, 100
1, 217849, Note_on_c, 2, 77, 122
1, 217855, Note_off_c, 2, 75, 100
1, 217891, Note_on_c, 1, 79, 119
1, 217897, Note_off_c, 2, 77, 100
1, 217935, Note_off_c, 3, 58, 100
1, 217936, Note_on_c, 1, 81, 119
1, 217936, Note_on_c, 4, 50, 125
1, 217940, Note_off_c, 1, 79, 100
1, 217975, Note_on_c, 1, 82, 118
1, 217980, Note_off_c, 1, 81, 100
1, 218019, Note_on_c, 1, 81, 119
1, 218024, Note_off_c, 1, 82, 100
1, 218062, Note_on_c, 1, 82, 118
1, 218066, Note_off_c, 1, 81, 100
1, 218106, Note_off_c, 4, 50, 100
1, 218107, Note_on_c, 4, 51, 125
1, 218107, Note_on_c, 1, 84, 123
1, 218111, Note_off_c, 1, 82, 100
1, 218153, Note_on_c, 1, 82, 118
1, 218159, Note_off_c, 1, 84, 100
1, 218199, Note_on_c, 1, 81, 119
1, 218203, Note_off_c, 1, 82, 100
1, 218244, Note_on_c, 1, 79, 119
1, 218249, Note_off_c, 1, 81, 100
1, 218290, Note_off_c, 4, 51, 100
1, 218290, Note_on_c, 1, 81, 119
1, 218291, Note_on_c, 3, 63, 127
1, 218294, Note_off_c, 1, 79, 100
1, 218335, Note_on_c, 1, 79, 119
1, 218340, Note_off_c, 1, 81, 100
1, 218379, Note_on_c, 2, 77, 122
1, 218383, Note_off_c, 1, 79, 100
1, 218423, Note_on_c, 2, 75, 124
1, 218427, Note_off_c, 2, 77, 100
1, 218469, Note_off_c, 3, 63, 100
1, 218470, Note_on_c, 2, 74, 126
1, 218470, Note_on_c, 3, 65, 127
1, 218474, Note_off_c, 2, 75, 100
1, 218645, Note_off_c, 3, 65, 100
1, 218646, Note_off_c, 2, 74, 100
1, 218646, Note_on_c, 2, 72, 127
1, 218646, Note_on_c, 2, 69, 127
1, 218647, Note_on_c, 4, 53, 125
1, 218730, Note_off_c, 2, 69, 100
1, 218730, Note_off_c, 2, 72, 100
1, 218731, Note_on_c, 2, 70, 127
1, 218775, Note_on_c, 2, 72, 127
1, 218778, Note_off_c, 2, 70, 100
1, 218823, Note_off_c, 4, 53, 100
1, 218823, Note_on_c, 2, 70, 127
1, 218824, Note_on_c, 3, 58, 125
1, 218827, Note_off_c, 2, 72, 100
1, 218872, Note_on_c, 3, 65, 127
1, 218912, Note_off_c, 3, 58, 100
1, 218920, Note_on_c, 3, 64, 127
1, 218928, Note_off_c, 3, 65, 100
1, 218968, Note_on_c, 3, 65, 127
1, 218974, Note_off_c, 3, 64, 100
1, 219016, Note_on_c, 3, 67, 127
1, 219022, Note_off_c, 3, 65, 100
1, 219062, Note_on_c, 3, 65, 127
1, 219070, Note_off_c, 3, 67, 100
1, 219111, Note_on_c, 3, 64, 127
1, 219117, Note_off_c, 3, 65, 100
1, 219153, Note_on_c, 3, 65, 127
1, 219162, Note_off_c, 3, 64, 100
1, 219200, Note_on_c, 3, 64, 127
1, 219206, Note_off_c, 3, 65, 100
1, 219244, Note_on_c, 3, 65, 127
1, 219252, Note_off_c, 3, 64, 100
1, 219288, Note_on_c, 3, 62, 127
1, 219296, Note_off_c, 3, 65, 100
1, 219335, Note_on_c, 3, 65, 127
1, 219371, Note_off_c, 3, 62, 100
1, 219377, Note_on_c, 3, 60, 125
1, 219384, Note_off_c, 3, 65, 100
1, 219423, Note_on_c, 3, 65, 127
1, 219459, Note_off_c, 3, 60, 100
1, 219467, Note_on_c, 3, 60, 125
1, 219473, Note_off_c, 3, 65, 100
1, 219513, Note_on_c, 3, 65, 127
1, 219550, Note_off_c, 3, 60, 100
1, 219555, Note_off_c, 2, 70, 100
1, 219556, Note_on_c, 2, 75, 124
1, 219556, Note_on_c, 3, 57, 125
1, 219564, Note_off_c, 3, 65, 100
1, 219602, Note_on_c, 3, 65, 127
1, 219639, Note_off_c, 3, 57, 100
1, 219647, Note_on_c, 2, 72, 127
1, 219647, Note_on_c, 3, 60, 125
1, 219653, Note_off_c, 3, 65, 100
1, 219654, Note_off_c, 2, 75, 100
1, 219691, Note_on_c, 3, 65, 127
1, 219729, Note_off_c, 3, 60, 100
1, 219737, Note_on_c, 2, 69, 127
1, 219737, Note_on_c, 3, 64, 127
1, 219744, Note_off_c, 3, 65, 100
1, 219744, Note_off_c, 2, 72, 100
1, 219781, Note_on_c, 3, 65, 127
1, 219789, Note_off_c, 3, 64, 100
1, 219819, Note_off_c, 2, 69, 100
1, 219827, Note_on_c, 2, 69, 127
1, 219828, Note_on_c, 3, 64, 127
1, 219836, Note_off_c, 3, 65, 100
1, 219872, Note_on_c, 3, 65, 127
1, 219880, Note_off_c, 3, 64, 100
1, 219916, Note_on_c, 2, 75, 124
1, 219917, Note_on_c, 3, 57, 125
1, 219925, Note_off_c, 3, 65, 100
1, 219925, Note_off_c, 2, 69, 100
1, 219962, Note_on_c, 3, 65, 127
1, 220001, Note_off_c, 3, 57, 100
1, 220007, Note_on_c, 2, 72, 127
1, 220007, Note_on_c, 3, 60, 125
1, 220015, Note_off_c, 3, 65, 100
1, 220016, Note_off_c, 2, 75, 100
1, 220055, Note_on_c, 3, 65, 127
1, 220091, Note_off_c, 3, 60, 100
1, 220097, Note_on_c, 2, 69, 127
1, 220097, Note_on_c, 3, 64, 127
1, 220104, Note_off_c, 3, 65, 100
1, 220104, Note_off_c, 2, 72, 100
1, 220141, Note_on_c, 3, 65, 127
1, 220149, Note_off_c, 3, 64, 100
1, 220177, Note_off_c, 2, 69, 100
1, 220185, Note_on_c, 2, 69, 127
1, 220186, Note_on_c, 3, 64, 127
1, 220192, Note_off_c, 3, 65, 100
1, 220226, Note_on_c, 3, 65, 127
1, 220235, Note_off_c, 3, 64, 100
1, 220273, Note_on_c, 2, 70, 127
1, 220274, Note_on_c, 3, 62, 127
1, 220280, Note_off_c, 3, 65, 100
1, 220281, Note_off_c, 2, 69, 100
1, 220320, Note_on_c, 3, 65, 127
1, 220358, Note_off_c, 3, 62, 100
1, 220364, Note_on_c, 2, 72, 127
1, 220364, Note_on_c, 3, 57, 125
1, 220370, Note_off_c, 3, 65, 100
1, 220371, Note_off_c, 2, 70, 100
1, 220408, Note_on_c, 3, 65, 127
1, 220446, Note_off_c, 3, 57, 100
1, 220454, Note_on_c, 2, 74, 126
1, 220454, Note_on_c, 3, 59, 125
1, 220463, Note_off_c, 3, 65, 100
1, 220463, Note_off_c, 2, 72, 100
1, 220499, Note_on_c, 3, 65, 127
1, 220534, Note_off_c, 3, 59, 100
1, 220541, Note_on_c, 2, 75, 124
1, 220542, Note_on_c, 3, 60, 125
1, 220548, Note_off_c, 3, 65, 100
1, 220548, Note_off_c, 2, 74, 100
1, 220587, Note_on_c, 3, 65, 127
1, 220626, Note_off_c, 3, 60, 100
1, 220632, Note_on_c, 2, 76, 120
1, 220632, Note_on_c, 3, 61, 125
1, 220640, Note_off_c, 3, 65, 100
1, 220641, Note_off_c, 2, 75, 100
1, 220676, Note_on_c, 3, 65, 127
1, 220712, Note_off_c, 3, 61, 100
1, 220718, Note_on_c, 2, 77, 120
1, 220719, Note_on_c, 3, 62, 127
1, 220725, Note_off_c, 3, 65, 100
1, 220725, Note_off_c, 2, 76, 100
1, 220761, Note_on_c, 3, 65, 127
1, 220801, Note_off_c, 3, 62, 100
1, 220809, Note_on_c, 2, 76, 120
1, 220810, Note_on_c, 3, 61, 125
1, 220816, Note_off_c, 3, 65, 100
1, 220816, Note_off_c, 2, 77, 100
1, 220850, Note_on_c, 3, 65, 127
1, 220884, Note_off_c, 3, 61, 100
1, 220890, Note_on_c, 2, 77, 120
1, 220890, Note_on_c, 3, 62, 127
1, 220896, Note_off_c, 3, 65, 100
1, 220897, Note_off_c, 2, 76, 100
1, 220932, Note_on_c, 3, 65, 127
1, 220973, Note_off_c, 3, 62, 100
1, 220979, Note_on_c, 1, 87, 114
1, 220979, Note_on_c, 3, 57, 125
1, 220980, Note_on_c, 2, 75, 127
1, 220987, Note_off_c, 3, 65, 100
1, 220987, Note_off_c, 2, 77, 100
1, 221026, Note_on_c, 3, 65, 127
1, 221066, Note_off_c, 3, 57, 100
1, 221073, Note_on_c, 1, 84, 115
1, 221073, Note_on_c, 3, 60, 125
1, 221074, Note_on_c, 2, 72, 127
1, 221081, Note_off_c, 3, 65, 100
1, 221082, Note_off_c, 1, 87, 100
1, 221082, Note_off_c, 2, 75, 100
1, 221120, Note_on_c, 3, 65, 127
1, 221159, Note_off_c, 3, 60, 100
1, 221165, Note_on_c, 1, 81, 111
1, 221165, Note_on_c, 3, 64, 127
1, 221166, Note_on_c, 2, 69, 127
1, 221172, Note_off_c, 3, 65, 100
1, 221173, Note_off_c, 2, 72, 100
1, 221173, Note_off_c, 1, 84, 100
1, 221210, Note_on_c, 3, 65, 127
1, 221218, Note_off_c, 3, 64, 100
1, 221246, Note_off_c, 1, 81, 100
1, 221247, Note_off_c, 2, 69, 100
1, 221253, Note_on_c, 1, 81, 111
1, 221254, Note_on_c, 2, 69, 127
1, 221254, Note_on_c, 3, 64, 127
1, 221262, Note_off_c, 3, 65, 100
1, 221298, Note_on_c, 3, 65, 127
1, 221304, Note_off_c, 3, 64, 100
1, 221340, Note_on_c, 1, 87, 114
1, 221341, Note_on_c, 2, 75, 127
1, 221341, Note_on_c, 3, 57, 125
1, 221349, Note_off_c, 3, 65, 100
1, 221350, Note_off_c, 1, 81, 100
1, 221350, Note_off_c, 2, 69, 100
1, 221387, Note_on_c, 3, 65, 127
1, 221423, Note_off_c, 3, 57, 100
1, 221431, Note_on_c, 1, 84, 115
1, 221431, Note_on_c, 3, 60, 125
1, 221432, Note_on_c, 2, 72, 127
1, 221439, Note_off_c, 3, 65, 100
1, 221440, Note_off_c, 2, 75, 100
1, 221440, Note_off_c, 1, 87, 100
1, 221477, Note_on_c, 3, 65, 127
1, 221513, Note_off_c, 3, 60, 100
1, 221521, Note_on_c, 1, 81, 111
1, 221521, Note_on_c, 3, 64, 127
1, 221522, Note_on_c, 2, 69, 127
1, 221530, Note_off_c, 3, 65, 100
1, 221530, Note_off_c, 1, 84, 100
1, 221531, Note_off_c, 2, 72, 100
1, 221565, Note_on_c, 3, 65, 127
1, 221573, Note_off_c, 3, 64, 100
1, 221603, Note_off_c, 2, 69, 100
1, 221603, Note_off_c, 1, 81, 100
1, 221609, Note_on_c, 1, 81, 111
1, 221610, Note_on_c, 2, 69, 127
1, 221610, Note_on_c, 3, 64, 127
1, 221616, Note_off_c, 3, 65, 100
1, 221654, Note_on_c, 3, 65, 127
1, 221660, Note_off_c, 3, 64, 100
1, 221695, Note_on_c, 1, 82, 110
1, 221695, Note_on_c, 3, 62, 127
1, 221696, Note_on_c, 2, 70, 127
1, 221701, Note_off_c, 3, 65, 100
1, 221702, Note_off_c, 2, 69, 100
1, 221702, Note_off_c, 1, 81, 100
1, 221741, Note_on_c, 3, 65, 127
1, 221779, Note_off_c, 3, 62, 100
1, 221785, Note_on_c, 1, 84, 115
1, 221785, Note_on_c, 3, 57, 125
1, 221786, Note_on_c, 2, 72, 127
1, 221794, Note_off_c, 3, 65, 100
1, 221794, Note_off_c, 1, 82, 100
1, 221795, Note_off_c, 2, 70, 100
1, 221829, Note_on_c, 3, 65, 127
1, 221868, Note_off_c, 3, 57, 100
1, 221875, Note_on_c, 1, 86, 117
1, 221876, Note_on_c, 2, 74, 127
1, 221876, Note_on_c, 3, 59, 125
1, 221884, Note_off_c, 3, 65, 100
1, 221884, Note_off_c, 1, 84, 100
1, 221885, Note_off_c, 2, 72, 100
1, 221921, Note_on_c, 3, 65, 127
1, 221958, Note_off_c, 3, 59, 100
1, 221965, Note_on_c, 1, 87, 114
1, 221966, Note_on_c, 2, 75, 127
1, 221966, Note_on_c, 3, 60, 125
1, 221972, Note_off_c, 3, 65, 100
1, 221973, Note_off_c, 2, 74, 100
1, 221973, Note_off_c, 1, 86, 100
1, 222006, Note_on_c, 3, 65, 127
1, 222042, Note_off_c, 3, 60, 100
1, 222048, Note_on_c, 1, 88, 114
1, 222048, Note_on_c, 3, 61, 125
1, 222049, Note_on_c, 2, 76, 123
1, 222055, Note_off_c, 3, 65, 100
1, 222055, Note_off_c, 1, 87, 100
1, 222056, Note_off_c, 2, 75, 100
1, 222090, Note_on_c, 3, 65, 127
1, 222125, Note_off_c, 3, 61, 100
1, 222132, Note_on_c, 1, 89, 114
1, 222133, Note_on_c, 2, 77, 120
1, 222133, Note_on_c, 3, 62, 127
1, 222139, Note_off_c, 3, 65, 100
1, 222140, Note_off_c, 2, 76, 100
1, 222140, Note_off_c, 1, 88, 100
1, 222175, Note_on_c, 3, 65, 127
1, 222219, Note_off_c, 3, 62, 100
1, 222227, Note_on_c, 1, 88, 114
1, 222227, Note_on_c, 3, 61, 125
1, 222228, Note_on_c, 2, 76, 123
1, 222231, Note_off_c, 3, 65, 100
1, 222232, Note_off_c, 2, 77, 100
1, 222232, Note_off_c, 1, 89, 100
1, 222267, Note_on_c, 3, 65, 127
1, 222303, Note_off_c, 3, 61, 100
1, 222309, Note_on_c, 1, 89, 114
1, 222310, Note_on_c, 2, 77, 120
1, 222310, Note_on_c, 3, 62, 127
1, 222316, Note_off_c, 3, 65, 100
1, 222316, Note_off_c, 1, 88, 100
1, 222317, Note_off_c, 2, 76, 100
1, 222351, Note_on_c, 3, 65, 127
1, 222390, Note_off_c, 3, 62, 100
1, 222398, Note_on_c, 1, 79, 115
1, 222398, Note_on_c, 3, 67, 127
1, 222402, Note_off_c, 3, 65, 100
1, 222406, Note_off_c, 1, 89, 100
1, 222407, Note_off_c, 2, 77, 100
1, 222492, Note_on_c, 4, 51, 125
1, 222586, Note_on_c, 4, 50, 125
1, 222595, Note_off_c, 4, 51, 100
1, 222678, Note_on_c, 4, 51, 125
1, 222685, Note_off_c, 4, 50, 100
1, 222769, Note_off_c, 1, 79, 100
1, 222769, Note_on_c, 2, 69, 127
1, 222770, Note_off_c, 3, 67, 100
1, 222770, Note_on_c, 3, 57, 125
1, 222863, Note_off_c, 4, 51, 100
1, 222864, Note_on_c, 4, 53, 125
1, 222952, Note_on_c, 4, 52, 125
1, 222960, Note_off_c, 4, 53, 100
1, 223040, Note_on_c, 4, 53, 125
1, 223047, Note_off_c, 4, 52, 100
1, 223134, Note_off_c, 2, 69, 100
1, 223134, Note_off_c, 3, 57, 100
1, 223135, Note_on_c, 1, 87, 126
1, 223135, Note_on_c, 2, 75, 127
1, 223226, Note_off_c, 4, 53, 100
1, 223227, Note_on_c, 4, 54, 125
1, 223317, Note_on_c, 4, 52, 125
1, 223325, Note_off_c, 4, 54, 100
1, 223410, Note_on_c, 4, 54, 125
1, 223417, Note_off_c, 4, 52, 100
1, 223502, Note_off_c, 1, 87, 100
1, 223502, Note_on_c, 1, 86, 123
1, 223503, Note_off_c, 2, 75, 100
1, 223503, Note_on_c, 2, 74, 127
1, 223593, Note_off_c, 4, 54, 100
1, 223594, Note_on_c, 4, 55, 125
1, 223680, Note_on_c, 4, 54, 125
1, 223686, Note_off_c, 4, 55, 100
1, 223767, Note_on_c, 4, 55, 125
1, 223775, Note_off_c, 4, 54, 100
1, 223855, Note_off_c, 1, 86, 100
1, 223856, Note_on_c, 1, 86, 121
1, 223858, Note_off_c, 2, 74, 100
1, 223906, Note_on_c, 1, 84, 119
1, 223912, Note_off_c, 1, 86, 100
1, 223952, Note_on_c, 1, 87, 118
1, 223957, Note_off_c, 1, 84, 100
1, 223998, Note_on_c, 1, 86, 121
1, 224004, Note_off_c, 1, 87, 100
1, 224037, Note_off_c, 4, 55, 100
1, 224044, Note_on_c, 1, 89, 118
1, 224045, Note_on_c, 2, 72, 127
1, 224045, Note_on_c, 3, 64, 127
1, 224049, Note_off_c, 1, 86, 100
1, 224091, Note_on_c, 1, 87, 118
1, 224095, Note_off_c, 1, 89, 100
1, 224134, Note_on_c, 1, 86, 121
1, 224137, Note_off_c, 1, 87, 100
1, 224176, Note_on_c, 1, 84, 119
1, 224181, Note_off_c, 1, 86, 100
1, 224222, Note_off_c, 3, 64, 100
1, 224222, Note_off_c, 2, 72, 100
1, 224223, Note_on_c, 1, 82, 114
1, 224223, Note_on_c, 2, 74, 126
1, 224224, Note_on_c, 3, 65, 127
1, 224225, Note_off_c, 1, 84, 100
1, 224393, Note_off_c, 2, 74, 100
1, 224393, Note_off_c, 1, 82, 100
1, 224394, Note_on_c, 1, 81, 115
1, 224394, Note_on_c, 2, 75, 124
1, 224569, Note_off_c, 2, 75, 100
1, 224570, Note_off_c, 1, 81, 100
1, 224570, Note_off_c, 3, 65, 100
1, 224571, Note_on_c, 2, 74, 126
1, 224571, Note_on_c, 2, 71, 127
1, 224662, Note_on_c, 1, 82, 114
1, 224750, Note_on_c, 1, 81, 115
1, 224758, Note_off_c, 1, 82, 100
1, 224834, Note_on_c, 1, 82, 114
1, 224842, Note_off_c, 1, 81, 100
1, 224918, Note_off_c, 2, 71, 100
1, 224918, Note_off_c, 2, 74, 100
1, 224921, Note_on_c, 2, 74, 126
1, 224921, Note_on_c, 2, 71, 127
1, 225012, Note_off_c, 1, 82, 100
1, 225012, Note_on_c, 1, 80, 115
1, 225101, Note_on_c, 1, 79, 115
1, 225107, Note_off_c, 1, 80, 100
1, 225192, Note_on_c, 1, 80, 115
1, 225199, Note_off_c, 1, 79, 100
1, 225274, Note_off_c, 2, 71, 100
1, 225275, Note_off_c, 2, 74, 100
1, 225279, Note_on_c, 2, 74, 126
1, 225279, Note_on_c, 3, 77, 122
1, 225280, Note_on_c, 2, 71, 127
1, 225286, Note_off_c, 1, 80, 100
1, 225370, Note_on_c, 1, 79, 115
1, 225380, Note_off_c, 3, 77, 100
1, 225460, Note_on_c, 1, 78, 115
1, 225466, Note_off_c, 1, 79, 100
1, 225549, Note_on_c, 1, 79, 115
1, 225556, Note_off_c, 1, 78, 100
1, 225637, Note_off_c, 2, 74, 100
1, 225637, Note_off_c, 2, 71, 100
1, 225638, Note_on_c, 2, 76, 122
1, 225638, Note_on_c, 2, 72, 127
1, 225722, Note_off_c, 1, 79, 100
1, 225727, Note_on_c, 1, 79, 115
1, 225817, Note_on_c, 1, 87, 118
1, 225825, Note_off_c, 1, 79, 100
1, 225901, Note_off_c, 1, 87, 100
1, 225909, Note_on_c, 1, 87, 118
1, 225992, Note_off_c, 2, 72, 100
1, 225992, Note_off_c, 2, 76, 100
1, 225998, Note_on_c, 2, 76, 122
1, 225999, Note_on_c, 2, 72, 127
1, 225999, Note_on_c, 2, 69, 127
1, 226081, Note_off_c, 1, 87, 100
1, 226086, Note_on_c, 1, 87, 118
1, 226177, Note_on_c, 3, 77, 122
1, 226185, Note_off_c, 1, 87, 100
1, 226258, Note_off_c, 3, 77, 100
1, 226265, Note_on_c, 3, 77, 122
1, 226344, Note_off_c, 2, 69, 100
1, 226344, Note_off_c, 2, 72, 100
1, 226345, Note_off_c, 2, 76, 100
1, 226351, Note_on_c, 2, 74, 126
1, 226351, Note_on_c, 2, 70, 127
1, 226427, Note_off_c, 3, 77, 100
1, 226434, Note_on_c, 3, 77, 122
1, 226523, Note_on_c, 1, 86, 121
1, 226530, Note_off_c, 3, 77, 100
1, 226605, Note_off_c, 1, 86, 100
1, 226613, Note_on_c, 1, 86, 121
1, 226695, Note_off_c, 2, 70, 100
1, 226696, Note_off_c, 2, 74, 100
1, 226704, Note_on_c, 2, 74, 126
1, 226704, Note_on_c, 2, 71, 127
1, 226705, Note_on_c, 3, 67, 127
1, 226784, Note_off_c, 1, 86, 100
1, 226789, Note_on_c, 1, 86, 121
1, 226880, Note_on_c, 2, 75, 124
1, 226887, Note_off_c, 1, 86, 100
1, 226960, Note_off_c, 2, 75, 100
1, 226968, Note_on_c, 2, 75, 124
1, 227049, Note_off_c, 2, 71, 100
1, 227049, Note_off_c, 3, 67, 100
1, 227050, Note_off_c, 2, 74, 100
1, 227055, Note_on_c, 2, 72, 127
1, 227056, Note_on_c, 2, 69, 127
1, 227137, Note_off_c, 2, 75, 100
1, 227143, Note_on_c, 2, 75, 124
1, 227229, Note_on_c, 1, 84, 119
1, 227237, Note_off_c, 2, 75, 100
1, 227312, Note_off_c, 1, 84, 100
1, 227319, Note_on_c, 1, 84, 119
1, 227398, Note_off_c, 2, 69, 100
1, 227399, Note_off_c, 2, 72, 100
1, 227407, Note_on_c, 2, 72, 127
1, 227407, Note_on_c, 2, 69, 127
1, 227408, Note_on_c, 3, 66, 127
1, 227490, Note_off_c, 1, 84, 100
1, 227498, Note_on_c, 1, 84, 119
1, 227586, Note_on_c, 2, 74, 126
1, 227595, Note_off_c, 1, 84, 100
1, 227668, Note_off_c, 2, 74, 100
1, 227676, Note_on_c, 2, 74, 126
1, 227754, Note_off_c, 3, 66, 100
1, 227755, Note_off_c, 2, 69, 100
1, 227755, Note_off_c, 2, 72, 100
1, 227761, Note_on_c, 2, 71, 127
1, 227761, Note_on_c, 3, 67, 127
1, 227844, Note_off_c, 2, 74, 100
1, 227853, Note_on_c, 2, 74, 126
1, 227940, Note_on_c, 1, 82, 116
1, 227946, Note_off_c, 2, 74, 100
1, 228020, Note_off_c, 1, 82, 100
1, 228027, Note_on_c, 1, 82, 116
1, 228108, Note_off_c, 1, 82, 100
1, 228116, Note_on_c, 1, 82, 116
1, 228202, Note_off_c, 3, 67, 100
1, 228203, Note_off_c, 2, 71, 100
1, 228209, Note_on_c, 2, 72, 127
1, 228209, Note_on_c, 2, 70, 127
1, 228209, Note_on_c, 3, 64, 127
1, 228292, Note_off_c, 3, 64, 100
1, 228293, Note_off_c, 2, 70, 100
1, 228299, Note_on_c, 2, 70, 127
1, 228300, Note_on_c, 3, 64, 127
1, 228381, Note_off_c, 3, 64, 100
1, 228381, Note_off_c, 2, 70, 100
1, 228389, Note_on_c, 2, 70, 127
1, 228390, Note_on_c, 3, 64, 127
1, 228473, Note_off_c, 1, 82, 100
1, 228480, Note_on_c, 1, 82, 120
1, 228538, Note_off_c, 1, 82, 100
1, 228563, Note_off_c, 3, 64, 100
1, 228564, Note_off_c, 2, 70, 100
1, 228570, Note_off_c, 2, 72, 100
1, 228570, Note_on_c, 2, 74, 127
1, 228571, Note_on_c, 2, 70, 127
1, 228571, Note_on_c, 3, 65, 127
1, 228650, Note_off_c, 3, 65, 100
1, 228651, Note_off_c, 2, 70, 100
1, 228659, Note_on_c, 2, 70, 127
1, 228660, Note_on_c, 3, 65, 127
1, 228744, Note_off_c, 2, 70, 100
1, 228744, Note_off_c, 3, 65, 100
1, 228750, Note_on_c, 2, 70, 127
1, 228751, Note_on_c, 3, 65, 127
1, 228840, Note_off_c, 2, 74, 100
1, 228840, Note_on_c, 1, 82, 122
1, 228927, Note_off_c, 3, 65, 100
1, 228927, Note_off_c, 2, 70, 100
1, 228932, Note_on_c, 2, 75, 127
1, 228932, Note_on_c, 2, 70, 127
1, 228933, Note_on_c, 3, 67, 127
1, 228938, Note_off_c, 1, 82, 100
1, 229013, Note_off_c, 3, 67, 100
1, 229014, Note_off_c, 2, 70, 100
1, 229020, Note_on_c, 2, 70, 127
1, 229020, Note_on_c, 3, 67, 127
1, 229100, Note_off_c, 3, 67, 100
1, 229100, Note_off_c, 2, 70, 100
1, 229106, Note_on_c, 2, 70, 127
1, 229107, Note_on_c, 3, 67, 127
1, 229198, Note_on_c, 1, 82, 122
1, 229213, Note_off_c, 2, 75, 100
1, 229280, Note_off_c, 3, 67, 100
1, 229281, Note_off_c, 2, 70, 100
1, 229285, Note_on_c, 2, 76, 125
1, 229285, Note_on_c, 2, 70, 127
1, 229286, Note_on_c, 3, 66, 127
1, 229292, Note_off_c, 1, 82, 100
1, 229367, Note_off_c, 3, 66, 100
1, 229367, Note_off_c, 2, 70, 100
1, 229375, Note_on_c, 2, 70, 127
1, 229376, Note_on_c, 3, 66, 127
1, 229459, Note_off_c, 2, 70, 100
1, 229459, Note_off_c, 3, 66, 100
1, 229466, Note_on_c, 2, 70, 127
1, 229466, Note_on_c, 3, 66, 127
1, 229545, Note_off_c, 3, 66, 100
1, 229545, Note_off_c, 2, 70, 100
1, 229552, Note_on_c, 2, 70, 127
1, 229552, Note_on_c, 1, 82, 122
1, 229553, Note_on_c, 3, 66, 127
1, 229568, Note_off_c, 2, 76, 100
1, 229641, Note_on_c, 2, 77, 125
1, 229649, Note_off_c, 1, 82, 100
1, 229728, Note_off_c, 2, 70, 100
1, 229728, Note_off_c, 3, 66, 100
1, 229732, Note_on_c, 1, 82, 122
1, 229733, Note_on_c, 2, 70, 127
1, 229733, Note_on_c, 3, 62, 127
1, 229739, Note_off_c, 2, 77, 100
1, 229820, Note_on_c, 1, 78, 123
1, 229826, Note_off_c, 1, 82, 100
1, 229900, Note_off_c, 3, 62, 100
1, 229901, Note_off_c, 2, 70, 100
1, 229905, Note_on_c, 1, 82, 122
1, 229906, Note_on_c, 2, 70, 127
1, 229906, Note_on_c, 3, 63, 127
1, 229912, Note_off_c, 1, 78, 100
1, 229993, Note_on_c, 1, 79, 123
1, 230000, Note_off_c, 1, 82, 100
1, 230075, Note_off_c, 3, 63, 100
1, 230076, Note_off_c, 2, 70, 100
1, 230082, Note_on_c, 1, 87, 126
1, 230082, Note_on_c, 3, 65, 127
1, 230083, Note_on_c, 3, 60, 125
1, 230088, Note_off_c, 1, 79, 100
1, 230170, Note_on_c, 1, 81, 123
1, 230177, Note_off_c, 1, 87, 100
1, 230251, Note_off_c, 3, 65, 100
1, 230251, Note_off_c, 3, 60, 100
1, 230256, Note_on_c, 3, 65, 127
1, 230256, Note_on_c, 1, 86, 125
1, 230257, Note_on_c, 3, 58, 125
1, 230263, Note_off_c, 1, 81, 100
1, 230342, Note_on_c, 1, 89, 122
1, 230348, Note_off_c, 1, 86, 100
1, 230424, Note_off_c, 3, 58, 100
1, 230425, Note_off_c, 3, 65, 100
1, 230430, Note_on_c, 1, 82, 118
1, 230430, Note_on_c, 3, 58, 125
1, 230430, Note_on_c, 4, 51, 125
1, 230436, Note_off_c, 1, 89, 100
1, 230511, Note_on_c, 1, 86, 125
1, 230519, Note_off_c, 1, 82, 100
1, 230595, Note_off_c, 4, 51, 100
1, 230596, Note_off_c, 3, 58, 100
1, 230603, Note_on_c, 1, 79, 119
1, 230603, Note_on_c, 3, 58, 125
1, 230603, Note_on_c, 4, 51, 125
1, 230609, Note_off_c, 1, 86, 100
1, 230688, Note_on_c, 1, 82, 118
1, 230694, Note_off_c, 1, 79, 100
1, 230770, Note_off_c, 4, 51, 100
1, 230771, Note_off_c, 3, 58, 100
1, 230777, Note_on_c, 2, 72, 127
1, 230778, Note_on_c, 4, 55, 125
1, 230778, Note_on_c, 4, 51, 125
1, 230784, Note_off_c, 1, 82, 100
1, 230864, Note_on_c, 2, 75, 124
1, 230871, Note_off_c, 2, 72, 100
1, 230953, Note_off_c, 4, 51, 100
1, 230954, Note_off_c, 4, 55, 100
1, 230961, Note_on_c, 3, 65, 127
1, 230968, Note_off_c, 2, 75, 100
1, 231004, Note_on_c, 2, 77, 122
1, 231048, Note_on_c, 1, 79, 119
1, 231052, Note_off_c, 2, 77, 100
1, 231093, Note_on_c, 2, 77, 122
1, 231098, Note_off_c, 1, 79, 100
1, 231137, Note_off_c, 3, 65, 100
1, 231138, Note_on_c, 3, 58, 125
1, 231138, Note_on_c, 2, 75, 124
1, 231139, Note_on_c, 4, 50, 125
1, 231141, Note_off_c, 2, 77, 100
1, 231180, Note_on_c, 2, 74, 126
1, 231182, Note_off_c, 2, 75, 100
1, 231221, Note_on_c, 2, 72, 127
1, 231225, Note_off_c, 2, 74, 100
1, 231262, Note_on_c, 2, 70, 127
1, 231268, Note_off_c, 2, 72, 100
1, 231308, Note_off_c, 4, 50, 100
1, 231309, Note_on_c, 2, 74, 126
1, 231309, Note_on_c, 4, 51, 125
1, 231311, Note_off_c, 2, 70, 100
1, 231401, Note_off_c, 2, 74, 100
1, 231402, Note_on_c, 2, 72, 127
1, 231429, Note_off_c, 2, 72, 100
1, 231430, Note_on_c, 2, 74, 126
1, 231455, Note_off_c, 2, 74, 100
1, 231456, Note_on_c, 2, 72, 127
1, 231479, Note_off_c, 2, 72, 100
1, 231480, Note_on_c, 2, 74, 126
1, 231495, Note_off_c, 3, 58, 100
1, 231505, Note_off_c, 2, 74, 100
1, 231505, Note_off_c, 4, 51, 100
1, 231506, Note_on_c, 3, 57, 125
1, 231506, Note_on_c, 2, 72, 127
1, 231507, Note_on_c, 4, 53, 125
1, 231530, Note_off_c, 2, 72, 100
1, 231530, Note_on_c, 2, 74, 126
1, 231554, Note_off_c, 2, 74, 100
1, 231554, Note_on_c, 2, 72, 127
1, 231576, Note_off_c, 2, 72, 100
1, 231576, Note_on_c, 2, 74, 126
1, 231598, Note_on_c, 2, 70, 127
1, 231604, Note_off_c, 2, 74, 100
1, 231640, Note_on_c, 2, 72, 127
1, 231642, Note_off_c, 2, 70, 64
1, 231681, Note_off_c, 3, 57, 100
1, 231681, Note_off_c, 4, 53, 100
1, 231682, Note_on_c, 2, 70, 127
1, 231682, Note_on_c, 3, 58, 125
1, 231683, Note_on_c, 4, 46, 125
1, 231685, Note_off_c, 2, 72, 64
1, 231764, Note_off_c, 3, 58, 100
1, 231770, Note_on_c, 3, 58, 125
1, 231814, Note_on_c, 3, 62, 127
1, 231858, Note_on_c, 3, 60, 125
1, 231859, Note_on_c, 3, 57, 125
1, 231861, Note_off_c, 3, 62, 100
1, 231865, Note_off_c, 3, 58, 100
1, 231902, Note_on_c, 3, 63, 127
1, 231906, Note_off_c, 3, 60, 100
1, 231943, Note_on_c, 3, 62, 127
1, 231943, Note_on_c, 4, 56, 125
1, 231948, Note_off_c, 3, 63, 100
1, 231951, Note_off_c, 3, 57, 100
1, 231988, Note_on_c, 3, 65, 127
1, 231992, Note_off_c, 3, 62, 100
1, 232024, Note_off_c, 4, 46, 100
1, 232030, Note_off_c, 2, 70, 100
1, 232031, Note_on_c, 3, 63, 127
1, 232031, Note_on_c, 4, 55, 125
1, 232032, Note_on_c, 4, 46, 125
1, 232034, Note_off_c, 3, 65, 100
1, 232038, Note_off_c, 4, 56, 100
1, 232116, Note_on_c, 3, 58, 125
1, 232122, Note_off_c, 4, 55, 100
1, 232123, Note_off_c, 3, 63, 100
1, 232158, Note_on_c, 3, 62, 127
1, 232198, Note_on_c, 3, 60, 125
1, 232199, Note_on_c, 3, 57, 125
1, 232203, Note_off_c, 3, 62, 100
1, 232205, Note_off_c, 3, 58, 100
1, 232243, Note_on_c, 3, 63, 127
1, 232247, Note_off_c, 3, 60, 100
1, 232285, Note_on_c, 3, 62, 127
1, 232286, Note_on_c, 4, 56, 125
1, 232288, Note_off_c, 3, 63, 100
1, 232292, Note_off_c, 3, 57, 100
1, 232329, Note_on_c, 3, 63, 127
1, 232332, Note_off_c, 3, 62, 100
1, 232365, Note_off_c, 4, 46, 100
1, 232371, Note_off_c, 3, 63, 100
1, 232371, Note_on_c, 3, 63, 127
1, 232372, Note_on_c, 4, 46, 125
1, 232372, Note_on_c, 4, 55, 125
1, 232379, Note_off_c, 4, 56, 100
1, 232459, Note_on_c, 3, 58, 125
1, 232467, Note_off_c, 4, 55, 100
1, 232467, Note_off_c, 3, 63, 100
1, 232506, Note_on_c, 3, 62, 127
1, 232551, Note_on_c, 3, 60, 125
1, 232551, Note_on_c, 3, 57, 125
1, 232555, Note_off_c, 3, 62, 100
1, 232557, Note_off_c, 3, 58, 100
1, 232594, Note_on_c, 3, 63, 127
1, 232599, Note_off_c, 3, 60, 100
1, 232636, Note_on_c, 3, 62, 127
1, 232636, Note_on_c, 4, 56, 125
1, 232641, Note_off_c, 3, 63, 100
1, 232643, Note_off_c, 3, 57, 100
1, 232679, Note_on_c, 3, 65, 127
1, 232683, Note_off_c, 3, 62, 100
1, 232724, Note_on_c, 4, 55, 125
1, 232724, Note_on_c, 3, 63, 127
1, 232728, Note_off_c, 3, 65, 100
1, 232730, Note_off_c, 4, 56, 100
1, 232767, Note_on_c, 3, 67, 127
1, 232770, Note_off_c, 3, 63, 100
1, 232811, Note_on_c, 3, 65, 127
1, 232812, Note_on_c, 4, 50, 125
1, 232815, Note_off_c, 3, 67, 100
1, 232818, Note_off_c, 4, 55, 100
1, 232852, Note_on_c, 2, 69, 127
1, 232856, Note_off_c, 3, 65, 100
1, 232895, Note_on_c, 3, 67, 127
1, 232895, Note_on_c, 4, 51, 125
1, 232899, Note_off_c, 2, 69, 100
1, 232901, Note_off_c, 4, 50, 100
1, 232938, Note_on_c, 2, 70, 127
1, 232943, Note_off_c, 3, 67, 100
1, 232980, Note_on_c, 4, 48, 125
1, 232980, Note_on_c, 2, 69, 127
1, 232982, Note_off_c, 2, 70, 100
1, 232985, Note_off_c, 4, 51, 100
1, 233021, Note_on_c, 2, 72, 127
1, 233025, Note_off_c, 2, 69, 100
1, 233064, Note_off_c, 4, 46, 100
1, 233064, Note_on_c, 4, 50, 125
1, 233064, Note_on_c, 2, 70, 127
1, 233068, Note_off_c, 2, 72, 100
1, 233070, Note_off_c, 4, 48, 100
1, 233107, Note_on_c, 2, 72, 127
1, 233110, Note_off_c, 2, 70, 100
1, 233147, Note_on_c, 2, 74, 126
1, 233150, Note_off_c, 2, 72, 100
1, 233191, Note_on_c, 2, 72, 127
1, 233195, Note_off_c, 2, 74, 100
1, 233233, Note_on_c, 2, 70, 127
1, 233237, Note_off_c, 2, 72, 100
1, 233276, Note_on_c, 2, 69, 127
1, 233280, Note_off_c, 2, 70, 100
1, 233316, Note_on_c, 3, 67, 127
1, 233321, Note_off_c, 2, 69, 100
1, 233358, Note_on_c, 3, 66, 127
1, 233362, Note_off_c, 3, 67, 100
1, 233400, Note_off_c, 4, 50, 100
1, 233401, Note_on_c, 4, 51, 125
1, 233401, Note_on_c, 3, 67, 127
1, 233405, Note_off_c, 3, 66, 100
1, 233442, Note_on_c, 2, 72, 127
1, 233445, Note_off_c, 3, 67, 100
1, 233480, Note_on_c, 2, 75, 122
1, 233484, Note_off_c, 2, 72, 100
1, 233522, Note_on_c, 2, 74, 126
1, 233526, Note_off_c, 2, 75, 100
1, 233563, Note_on_c, 2, 72, 127
1, 233567, Note_off_c, 2, 74, 100
1, 233605, Note_on_c, 2, 70, 127
1, 233609, Note_off_c, 2, 72, 100
1, 233647, Note_on_c, 2, 69, 127
1, 233651, Note_off_c, 2, 70, 100
1, 233688, Note_on_c, 3, 67, 127
1, 233691, Note_off_c, 2, 69, 100
1, 233730, Note_off_c, 4, 51, 100
1, 233730, Note_on_c, 3, 65, 127
1, 233731, Note_on_c, 4, 53, 125
1, 233735, Note_off_c, 3, 67, 100
1, 233773, Note_on_c, 2, 70, 127
1, 233775, Note_off_c, 3, 65, 100
1, 233813, Note_on_c, 2, 74, 126
1, 233814, Note_on_c, 3, 58, 125
1, 233816, Note_off_c, 2, 70, 100
1, 233820, Note_off_c, 4, 53, 100
1, 233853, Note_on_c, 3, 77, 120
1, 233856, Note_off_c, 2, 74, 100
1, 233895, Note_on_c, 1, 82, 116
1, 233895, Note_on_c, 3, 62, 127
1, 233900, Note_off_c, 3, 77, 100
1, 233902, Note_off_c, 3, 58, 100
1, 233982, Note_on_c, 2, 74, 126
1, 233983, Note_on_c, 2, 70, 127
1, 233983, Note_on_c, 3, 58, 125
1, 233989, Note_off_c, 3, 62, 100
1, 233989, Note_off_c, 1, 82, 100
1, 234067, Note_off_c, 2, 74, 100
1, 234074, Note_on_c, 2, 77, 120
1, 234075, Note_on_c, 2, 74, 126
1, 234075, Note_on_c, 4, 53, 125
1, 234083, Note_off_c, 3, 58, 100
1, 234084, Note_off_c, 2, 70, 100
1, 234168, Note_on_c, 2, 75, 122
1, 234169, Note_on_c, 2, 72, 127
1, 234169, Note_on_c, 3, 60, 125
1, 234177, Note_off_c, 4, 53, 100
1, 234178, Note_off_c, 2, 74, 100
1, 234178, Note_off_c, 2, 77, 100
1, 234261, Note_on_c, 2, 74, 126
1, 234261, Note_on_c, 2, 70, 127
1, 234262, Note_on_c, 3, 63, 127
1, 234268, Note_off_c, 3, 60, 100
1, 234269, Note_off_c, 2, 75, 100
1, 234269, Note_off_c, 2, 72, 100
1, 234352, Note_on_c, 2, 72, 127
1, 234352, Note_on_c, 2, 69, 127
1, 234353, Note_on_c, 3, 60, 125
1, 234359, Note_off_c, 3, 63, 100
1, 234359, Note_off_c, 2, 70, 100
1, 234360, Note_off_c, 2, 74, 100
1, 234435, Note_on_c, 2, 70, 127
1, 234436, Note_on_c, 3, 62, 127
1, 234436, Note_on_c, 3, 58, 125
1, 234444, Note_off_c, 3, 60, 100
1, 234444, Note_off_c, 2, 69, 100
1, 234445, Note_off_c, 2, 72, 100
1, 234521, Note_off_c, 2, 70, 100
1, 234529, Note_on_c, 2, 70, 127
1, 234572, Note_on_c, 2, 74, 126
1, 234612, Note_on_c, 2, 72, 127
1, 234612, Note_on_c, 2, 69, 127
1, 234615, Note_off_c, 2, 74, 100
1, 234619, Note_off_c, 2, 70, 100
1, 234655, Note_on_c, 2, 75, 122
1, 234661, Note_off_c, 2, 72, 100
1, 234699, Note_on_c, 2, 74, 126
1, 234700, Note_on_c, 2, 68, 127
1, 234702, Note_off_c, 2, 75, 100
1, 234706, Note_off_c, 2, 69, 100
1, 234744, Note_on_c, 2, 77, 120
1, 234750, Note_off_c, 2, 74, 100
1, 234781, Note_off_c, 3, 58, 100
1, 234789, Note_off_c, 3, 62, 100
1, 234789, Note_on_c, 2, 75, 122
1, 234790, Note_on_c, 3, 67, 127
1, 234790, Note_on_c, 3, 58, 125
1, 234793, Note_off_c, 2, 77, 100
1, 234796, Note_off_c, 2, 68, 100
1, 234877, Note_on_c, 1, 82, 116
1, 234885, Note_off_c, 2, 75, 100
1, 234919, Note_on_c, 1, 86, 125
1, 234925, Note_off_c, 1, 82, 100
1, 234964, Note_off_c, 3, 67, 100
1, 234964, Note_on_c, 1, 84, 121
1, 234964, Note_on_c, 2, 69, 127
1, 234968, Note_off_c, 1, 86, 100
1, 235007, Note_on_c, 1, 87, 122
1, 235010, Note_off_c, 1, 84, 100
1, 235047, Note_on_c, 1, 84, 121
1, 235048, Note_on_c, 2, 68, 127
1, 235052, Note_off_c, 1, 87, 100
1, 235054, Note_off_c, 2, 69, 100
1, 235091, Note_on_c, 1, 89, 122
1, 235094, Note_off_c, 1, 84, 100
1, 235128, Note_off_c, 3, 58, 100
1, 235137, Note_on_c, 3, 58, 125
1, 235137, Note_on_c, 1, 87, 122
1, 235137, Note_on_c, 3, 67, 127
1, 235141, Note_off_c, 1, 89, 100
1, 235145, Note_off_c, 2, 68, 100
1, 235226, Note_on_c, 2, 70, 127
1, 235232, Note_off_c, 3, 67, 100
1, 235232, Note_off_c, 1, 87, 100
1, 235267, Note_on_c, 2, 74, 126
1, 235309, Note_on_c, 2, 72, 127
1, 235310, Note_on_c, 2, 69, 127
1, 235314, Note_off_c, 2, 74, 100
1, 235316, Note_off_c, 2, 70, 100
1, 235356, Note_on_c, 2, 75, 122
1, 235360, Note_off_c, 2, 72, 100
1, 235399, Note_on_c, 2, 74, 126
1, 235399, Note_on_c, 2, 68, 127
1, 235403, Note_off_c, 2, 75, 100
1, 235405, Note_off_c, 2, 69, 100
1, 235446, Note_on_c, 2, 77, 120
1, 235449, Note_off_c, 2, 74, 100
1, 235490, Note_on_c, 2, 75, 122
1, 235490, Note_on_c, 3, 67, 127
1, 235492, Note_off_c, 2, 77, 100
1, 235497, Note_off_c, 2, 68, 100
1, 235535, Note_on_c, 2, 70, 127
1, 235538, Note_off_c, 2, 75, 100
1, 235579, Note_on_c, 2, 77, 120
1, 235580, Note_on_c, 3, 62, 127
1, 235584, Note_off_c, 2, 70, 100
1, 235586, Note_off_c, 3, 67, 100
1, 235622, Note_on_c, 2, 70, 127
1, 235628, Note_off_c, 2, 77, 100
1, 235670, Note_on_c, 1, 79, 117
1, 235671, Note_on_c, 3, 64, 127
1, 235673, Note_off_c, 2, 70, 100
1, 235677, Note_off_c, 3, 62, 100
1, 235712, Note_on_c, 2, 70, 127
1, 235716, Note_off_c, 1, 79, 100
1, 235758, Note_on_c, 1, 81, 117
1, 235758, Note_on_c, 3, 60, 125
1, 235762, Note_off_c, 2, 70, 100
1, 235764, Note_off_c, 3, 64, 100
1, 235801, Note_on_c, 2, 70, 127
1, 235804, Note_off_c, 1, 81, 100
1, 235847, Note_off_c, 3, 58, 100
1, 235848, Note_on_c, 3, 62, 127
1, 235848, Note_on_c, 4, 50, 125
1, 235848, Note_on_c, 1, 82, 116
1, 235850, Note_off_c, 2, 70, 100
1, 235855, Note_off_c, 3, 60, 100
1, 235889, Note_on_c, 1, 84, 121
1, 235895, Note_off_c, 1, 82, 100
1, 235935, Note_on_c, 1, 86, 125
1, 235939, Note_off_c, 1, 84, 100
1, 235980, Note_on_c, 1, 84, 121
1, 235984, Note_off_c, 1, 86, 100
1, 236025, Note_on_c, 1, 82, 116
1, 236028, Note_off_c, 1, 84, 100
1, 236065, Note_on_c, 1, 81, 117
1, 236071, Note_off_c, 1, 82, 100
1, 236107, Note_on_c, 1, 79, 117
1, 236111, Note_off_c, 1, 81, 100
1, 236149, Note_on_c, 1, 78, 117
1, 236153, Note_off_c, 1, 79, 100
1, 236190, Note_off_c, 4, 50, 100
1, 236190, Note_off_c, 3, 62, 100
1, 236191, Note_on_c, 3, 63, 127
1, 236191, Note_on_c, 1, 79, 117
1, 236192, Note_on_c, 4, 51, 125
1, 236195, Note_off_c, 1, 78, 100
1, 236233, Note_on_c, 3, 77, 120
1, 236237, Note_off_c, 1, 79, 100
1, 236270, Note_on_c, 2, 75, 122
1, 236275, Note_off_c, 3, 77, 100
1, 236310, Note_on_c, 2, 74, 126
1, 236314, Note_off_c, 2, 75, 100
1, 236350, Note_on_c, 2, 72, 127
1, 236354, Note_off_c, 2, 74, 100
1, 236390, Note_on_c, 2, 70, 127
1, 236394, Note_off_c, 2, 72, 100
1, 236431, Note_on_c, 2, 69, 127
1, 236435, Note_off_c, 2, 70, 100
1, 236474, Note_on_c, 3, 67, 127
1, 236478, Note_off_c, 2, 69, 100
1, 236516, Note_off_c, 3, 67, 100
1, 236517, Note_off_c, 3, 63, 100
1, 236517, Note_off_c, 4, 51, 100
1, 236518, Note_on_c, 3, 65, 127
1, 236518, Note_on_c, 4, 53, 125
1, 236560, Note_on_c, 3, 62, 127
1, 236566, Note_off_c, 4, 53, 100
1, 236603, Note_on_c, 1, 86, 125
1, 236603, Note_on_c, 3, 58, 125
1, 236607, Note_off_c, 3, 62, 100
1, 236609, Note_off_c, 3, 65, 100
1, 236646, Note_on_c, 3, 62, 127
1, 236650, Note_off_c, 3, 58, 100
1, 236680, Note_off_c, 1, 86, 100
1, 236686, Note_on_c, 1, 86, 125
1, 236687, Note_on_c, 4, 53, 125
1, 236691, Note_off_c, 3, 62, 100
1, 236729, Note_on_c, 3, 62, 127
1, 236733, Note_off_c, 4, 53, 100
1, 236766, Note_off_c, 1, 86, 100
1, 236773, Note_on_c, 1, 86, 125
1, 236774, Note_on_c, 3, 58, 125
1, 236776, Note_off_c, 3, 62, 100
1, 236813, Note_on_c, 3, 62, 127
1, 236817, Note_off_c, 3, 58, 100
1, 236847, Note_off_c, 1, 86, 100
1, 236855, Note_on_c, 1, 86, 125
1, 236856, Note_on_c, 4, 53, 125
1, 236858, Note_off_c, 3, 62, 100
1, 236900, Note_on_c, 1, 82, 116
1, 236901, Note_on_c, 3, 62, 127
1, 236905, Note_off_c, 1, 86, 100
1, 236905, Note_off_c, 4, 53, 100
1, 236942, Note_on_c, 1, 79, 117
1, 236943, Note_on_c, 3, 58, 125
1, 236947, Note_off_c, 3, 62, 100
1, 236948, Note_off_c, 1, 82, 100
1, 236987, Note_on_c, 2, 74, 126
1, 236987, Note_on_c, 3, 62, 127
1, 236991, Note_off_c, 3, 58, 100
1, 236992, Note_off_c, 1, 79, 100
1, 237027, Note_on_c, 1, 82, 116
1, 237027, Note_on_c, 4, 53, 125
1, 237032, Note_off_c, 3, 62, 100
1, 237032, Note_off_c, 2, 74, 100
1, 237073, Note_on_c, 2, 77, 120
1, 237073, Note_on_c, 3, 62, 127
1, 237078, Note_off_c, 4, 53, 100
1, 237078, Note_off_c, 1, 82, 100
1, 237117, Note_on_c, 2, 74, 126
1, 237118, Note_on_c, 3, 58, 125
1, 237122, Note_off_c, 3, 62, 100
1, 237122, Note_off_c, 2, 77, 100
1, 237163, Note_on_c, 2, 70, 127
1, 237164, Note_on_c, 3, 62, 127
1, 237167, Note_off_c, 2, 74, 100
1, 237167, Note_off_c, 3, 58, 100
1, 237208, Note_on_c, 2, 74, 122
1, 237208, Note_on_c, 4, 53, 125
1, 237212, Note_off_c, 3, 62, 100
1, 237213, Note_off_c, 2, 70, 100
1, 237252, Note_on_c, 3, 63, 127
1, 237255, Note_off_c, 4, 53, 100
1, 237288, Note_off_c, 2, 74, 100
1, 237296, Note_on_c, 2, 72, 123
1, 237297, Note_on_c, 3, 58, 125
1, 237302, Note_off_c, 3, 63, 100
1, 237327, Note_on_c, 2, 74, 122
1, 237348, Note_off_c, 2, 72, 100
1, 237360, Note_on_c, 3, 63, 127
1, 237366, Note_off_c, 3, 58, 100
1, 237375, Note_on_c, 2, 72, 123
1, 237379, Note_off_c, 2, 74, 100
1, 237398, Note_on_c, 2, 74, 122
1, 237418, Note_on_c, 4, 53, 125
1, 237423, Note_off_c, 2, 72, 100
1, 237424, Note_off_c, 3, 63, 100
1, 237442, Note_on_c, 2, 72, 123
1, 237445, Note_off_c, 2, 74, 100
1, 237465, Note_on_c, 2, 74, 122
1, 237472, Note_on_c, 3, 63, 127
1, 237478, Note_off_c, 4, 53, 100
1, 237488, Note_off_c, 2, 72, 100
1, 237499, Note_on_c, 2, 72, 123
1, 237509, Note_off_c, 2, 74, 100
1, 237529, Note_on_c, 3, 58, 125
1, 237535, Note_off_c, 3, 63, 100
1, 237540, Note_on_c, 2, 74, 122
1, 237546, Note_off_c, 2, 72, 100
1, 237566, Note_on_c, 2, 72, 123
1, 237585, Note_on_c, 3, 63, 127
1, 237587, Note_off_c, 2, 74, 100
1, 237590, Note_off_c, 3, 58, 100
1, 237602, Note_on_c, 2, 74, 122
1, 237612, Note_off_c, 2, 72, 100
1, 237641, Note_on_c, 2, 72, 123
1, 237641, Note_on_c, 4, 53, 125
1, 237645, Note_off_c, 3, 63, 100
1, 237649, Note_off_c, 2, 74, 100
1, 237669, Note_on_c, 2, 74, 122
1, 237686, Note_off_c, 2, 72, 100
1, 237694, Note_on_c, 3, 63, 127
1, 237700, Note_off_c, 4, 53, 100
1, 237712, Note_on_c, 2, 72, 123
1, 237713, Note_off_c, 2, 74, 100
1, 237742, Note_on_c, 2, 74, 122
1, 237746, Note_on_c, 3, 58, 125
1, 237753, Note_off_c, 3, 63, 100
1, 237757, Note_off_c, 2, 72, 100
1, 237780, Note_on_c, 2, 72, 123
1, 237785, Note_off_c, 2, 74, 100
1, 237799, Note_on_c, 3, 63, 127
1, 237805, Note_off_c, 3, 58, 100
1, 237806, Note_on_c, 2, 74, 122
1, 237824, Note_off_c, 2, 72, 100
1, 237841, Note_on_c, 2, 72, 123
1, 237851, Note_off_c, 2, 74, 100
1, 237852, Note_on_c, 4, 53, 125
1, 237857, Note_off_c, 3, 63, 100
1, 237873, Note_on_c, 2, 74, 122
1, 237884, Note_off_c, 2, 72, 100
1, 237902, Note_on_c, 2, 72, 123
1, 237902, Note_on_c, 3, 63, 127
1, 237906, Note_off_c, 4, 53, 100
1, 237914, Note_off_c, 2, 74, 100
1, 237949, Note_on_c, 2, 70, 127
1, 237949, Note_on_c, 3, 60, 125
1, 237953, Note_off_c, 3, 63, 100
1, 237954, Note_off_c, 2, 72, 100
1, 237989, Note_on_c, 2, 72, 127
1, 237990, Note_on_c, 3, 63, 127
1, 237994, Note_off_c, 3, 60, 100
1, 237994, Note_off_c, 2, 70, 100
1, 238032, Note_on_c, 3, 58, 125
1, 238032, Note_on_c, 2, 70, 127
1, 238036, Note_off_c, 3, 63, 100
1, 238037, Note_off_c, 2, 72, 100
1, 238116, Note_off_c, 2, 70, 100
1, 238125, Note_on_c, 1, 82, 112
1, 238125, Note_on_c, 2, 70, 127
1, 238212, Note_on_c, 2, 69, 127
1, 238220, Note_off_c, 2, 70, 100
1, 238293, Note_off_c, 1, 82, 100
1, 238298, Note_on_c, 1, 82, 112
1, 238299, Note_on_c, 2, 70, 127
1, 238307, Note_off_c, 2, 69, 100
1, 238392, Note_on_c, 1, 81, 113
1, 238392, Note_on_c, 2, 72, 127
1, 238400, Note_off_c, 2, 70, 100
1, 238401, Note_off_c, 1, 82, 100
1, 238488, Note_on_c, 1, 82, 112
1, 238488, Note_on_c, 2, 70, 127
1, 238494, Note_off_c, 2, 72, 100
1, 238495, Note_off_c, 1, 81, 100
1, 238580, Note_on_c, 1, 84, 117
1, 238580, Note_on_c, 2, 69, 127
1, 238588, Note_off_c, 2, 70, 100
1, 238589, Note_off_c, 1, 82, 100
1, 238676, Note_on_c, 1, 86, 117
1, 238676, Note_on_c, 2, 68, 127
1, 238682, Note_off_c, 2, 69, 100
1, 238683, Note_off_c, 1, 84, 100
1, 238720, Note_off_c, 3, 58, 100
1, 238766, Note_on_c, 1, 87, 110
1, 238766, Note_on_c, 3, 67, 127
1, 238775, Note_off_c, 2, 68, 100
1, 238775, Note_off_c, 1, 86, 100
1, 238816, Note_on_c, 1, 86, 113
1, 238820, Note_off_c, 1, 87, 100
1, 238860, Note_on_c, 1, 87, 110
1, 238860, Note_on_c, 3, 58, 125
1, 238865, Note_off_c, 1, 86, 100
1, 238869, Note_off_c, 3, 67, 100
1, 238909, Note_on_c, 1, 86, 113
1, 238915, Note_off_c, 1, 87, 100
1, 238957, Note_on_c, 3, 66, 127
1, 238957, Note_on_c, 1, 87, 110
1, 238962, Note_off_c, 1, 86, 100
1, 238964, Note_off_c, 3, 58, 100
1, 239004, Note_on_c, 1, 85, 111
1, 239010, Note_off_c, 1, 87, 100
1, 239048, Note_on_c, 1, 84, 111
1, 239049, Note_on_c, 3, 58, 125
1, 239053, Note_off_c, 1, 85, 100
1, 239057, Note_off_c, 3, 66, 100
1, 239093, Note_on_c, 1, 82, 106
1, 239097, Note_off_c, 1, 84, 100
1, 239137, Note_on_c, 1, 81, 107
1, 239138, Note_on_c, 3, 65, 127
1, 239142, Note_off_c, 1, 82, 100
1, 239145, Note_off_c, 3, 58, 100
1, 239182, Note_on_c, 1, 82, 106
1, 239187, Note_off_c, 1, 81, 100
1, 239230, Note_on_c, 1, 84, 111
1, 239230, Note_on_c, 3, 58, 125
1, 239234, Note_off_c, 1, 82, 100
1, 239236, Note_off_c, 3, 65, 100
1, 239279, Note_on_c, 1, 82, 106
1, 239284, Note_off_c, 1, 84, 100
1, 239325, Note_on_c, 1, 81, 107
1, 239325, Note_on_c, 2, 69, 127
1, 239329, Note_off_c, 1, 82, 100
1, 239333, Note_off_c, 3, 58, 100
1, 239370, Note_on_c, 1, 79, 107
1, 239374, Note_off_c, 1, 81, 100
1, 239416, Note_on_c, 2, 77, 116
1, 239416, Note_on_c, 3, 58, 125
1, 239421, Note_off_c, 1, 79, 100
1, 239423, Note_off_c, 2, 69, 100
1, 239461, Note_on_c, 2, 75, 124
1, 239466, Note_off_c, 2, 77, 100
1, 239504, Note_on_c, 2, 74, 126
1, 239505, Note_on_c, 2, 70, 127
1, 239509, Note_off_c, 2, 75, 100
1, 239513, Note_off_c, 3, 58, 100
1, 239586, Note_off_c, 2, 74, 100
1, 239596, Note_on_c, 2, 74, 126
1, 239596, Note_on_c, 3, 58, 125
1, 239602, Note_off_c, 2, 70, 100
1, 239685, Note_on_c, 3, 57, 125
1, 239690, Note_off_c, 3, 58, 100
1, 239777, Note_off_c, 2, 74, 100
1, 239778, Note_on_c, 2, 70, 127
1, 239778, Note_on_c, 3, 58, 125
1, 239785, Note_off_c, 3, 57, 100
1, 239868, Note_on_c, 2, 69, 127
1, 239868, Note_on_c, 3, 60, 125
1, 239874, Note_off_c, 3, 58, 100
1, 239874, Note_off_c, 2, 70, 100
1, 239962, Note_on_c, 2, 70, 127
1, 239962, Note_on_c, 3, 58, 125
1, 239970, Note_off_c, 3, 60, 100
1, 239970, Note_off_c, 2, 69, 100
1, 240052, Note_on_c, 2, 72, 127
1, 240052, Note_on_c, 3, 57, 125
1, 240060, Note_off_c, 3, 58, 100
1, 240061, Note_off_c, 2, 70, 100
1, 240144, Note_on_c, 2, 74, 126
1, 240144, Note_on_c, 4, 56, 125
1, 240153, Note_off_c, 3, 57, 100
1, 240153, Note_off_c, 2, 72, 100
1, 240238, Note_on_c, 2, 75, 124
1, 240239, Note_on_c, 4, 55, 125
1, 240247, Note_off_c, 4, 56, 100
1, 240247, Note_off_c, 2, 74, 100
1, 240332, Note_on_c, 2, 77, 120
1, 240340, Note_off_c, 2, 75, 100
1, 240359, Note_off_c, 2, 77, 64
1, 240360, Note_on_c, 2, 75, 124
1, 240387, Note_off_c, 2, 75, 64
1, 240387, Note_on_c, 2, 74, 126
1, 240413, Note_off_c, 2, 74, 64
1, 240413, Note_on_c, 2, 75, 124
1, 240437, Note_off_c, 2, 75, 64
1, 240437, Note_off_c, 4, 55, 100
1, 240438, Note_on_c, 2, 77, 120
1, 240438, Note_on_c, 4, 51, 125
1, 240533, Note_on_c, 1, 79, 117
1, 240540, Note_off_c, 2, 77, 100
1, 240619, Note_off_c, 1, 79, 100
1, 240627, Note_off_c, 4, 51, 100
1, 240627, Note_on_c, 1, 79, 117
1, 240628, Note_on_c, 2, 75, 124
1, 240628, Note_on_c, 4, 53, 125
1, 240721, Note_on_c, 2, 77, 120
1, 240721, Note_on_c, 2, 74, 126
1, 240727, Note_off_c, 1, 79, 100
1, 240727, Note_off_c, 2, 75, 100
1, 240809, Note_off_c, 4, 53, 100
1, 240817, Note_on_c, 4, 53, 125
1, 240911, Note_off_c, 2, 74, 100
1, 240911, Note_off_c, 2, 77, 100
1, 240916, Note_on_c, 2, 69, 127
1, 240916, Note_on_c, 3, 63, 127
1, 240997, Note_off_c, 3, 63, 100
1, 241002, Note_off_c, 2, 69, 100
1, 241006, Note_off_c, 4, 53, 100
1, 241010, Note_on_c, 0, 72, 127
1, 241011, Note_on_c, 3, 63, 127
1, 241011, Note_on_c, 3, 58, 125
1, 241186, Note_off_c, 3, 58, 100
1, 241191, Note_on_c, 4, 53, 125
1, 241356, Note_off_c, 0, 72, 100
1, 241364, Note_off_c, 3, 63, 100
1, 241368, Note_off_c, 4, 53, 100
1, 241381, Note_on_c, 3, 70, 127
1, 241382, Note_on_c, 2, 46, 127
1, 241383, Note_on_c, 4, 62, 127
1, 242657, Note_off_c, 3, 70, 100
1, 243041, Note_off_c, 4, 62, 100
1, 244216, Note_off_c, 2, 46, 100
1, 244807, Note_on_c, 2, 70, 112
1, 244808, Note_on_c, 4, 51, 107
1, 244810, Note_on_c, 2, 67, 105
1, 245187, Note_off_c, 2, 70, 100
1, 245187, Note_on_c, 2, 68, 125
1, 245188, Note_on_c, 2, 65, 125
1, 245191, Note_off_c, 2, 67, 100
1, 245399, Note_on_c, 2, 67, 125
1, 245400, Note_on_c, 2, 63, 127
1, 245413, Note_off_c, 2, 65, 100
1, 245414, Note_off_c, 2, 68, 100
1, 245587, Note_on_c, 2, 72, 123
1, 245588, Note_on_c, 2, 68, 125
1, 245604, Note_off_c, 2, 67, 100
1, 245604, Note_off_c, 2, 63, 100
1, 245775, Note_on_c, 2, 70, 125
1, 245777, Note_on_c, 2, 67, 125
1, 245793, Note_off_c, 2, 72, 100
1, 245793, Note_off_c, 2, 68, 100
1, 245940, Note_off_c, 4, 51, 100
1, 245947, Note_off_c, 2, 70, 100
1, 245949, Note_off_c, 2, 67, 100
1, 245955, Note_on_c, 2, 70, 125
1, 245957, Note_on_c, 4, 51, 123
1, 245959, Note_on_c, 2, 67, 125
1, 246287, Note_off_c, 2, 70, 100
1, 246288, Note_off_c, 4, 51, 100
1, 246288, Note_on_c, 2, 68, 125
1, 246288, Note_on_c, 4, 53, 123
1, 246291, Note_off_c, 2, 67, 100
1, 246291, Note_on_c, 2, 65, 125
1, 246620, Note_off_c, 2, 68, 100
1, 246621, Note_off_c, 4, 53, 100
1, 246621, Note_on_c, 2, 67, 125
1, 246622, Note_on_c, 4, 55, 123
1, 246624, Note_off_c, 2, 65, 100
1, 246624, Note_on_c, 2, 63, 127
1, 246959, Note_off_c, 2, 67, 100
1, 246960, Note_off_c, 4, 55, 100
1, 246960, Note_on_c, 2, 64, 125
1, 246960, Note_on_c, 4, 58, 127
1, 246963, Note_off_c, 2, 63, 100
1, 246963, Note_on_c, 4, 61, 127
1, 247304, Note_off_c, 2, 64, 100
1, 247305, Note_off_c, 4, 58, 100
1, 247305, Note_on_c, 4, 56, 127
1, 247305, Note_on_c, 2, 65, 125
1, 247308, Note_off_c, 4, 61, 100
1, 247308, Note_on_c, 4, 60, 127
1, 247476, Note_on_c, 2, 72, 123
1, 247491, Note_off_c, 2, 65, 100
1, 247632, Note_off_c, 2, 72, 100
1, 247643, Note_on_c, 2, 70, 125
1, 247718, Note_on_c, 2, 68, 125
1, 247727, Note_off_c, 2, 70, 100
1, 247797, Note_on_c, 2, 67, 125
1, 247804, Note_off_c, 2, 68, 100
1, 247875, Note_on_c, 2, 65, 127
1, 247883, Note_off_c, 2, 67, 100
1, 247966, Note_on_c, 2, 63, 127
1, 247968, Note_off_c, 4, 56, 100
1, 247968, Note_on_c, 4, 45, 127
1, 247970, Note_off_c, 4, 60, 100
1, 247971, Note_on_c, 4, 55, 127
1, 247979, Note_off_c, 2, 65, 100
1, 248061, Note_on_c, 4, 46, 127
1, 248070, Note_off_c, 4, 45, 100
1, 248134, Note_on_c, 4, 48, 127
1, 248139, Note_off_c, 4, 46, 100
1, 248222, Note_on_c, 4, 46, 127
1, 248232, Note_off_c, 4, 48, 100
1, 248300, Note_off_c, 4, 55, 100
1, 248304, Note_off_c, 4, 46, 100
1, 248311, Note_off_c, 2, 63, 100
1, 248312, Note_on_c, 4, 46, 127
1, 248312, Note_on_c, 4, 62, 127
1, 248314, Note_on_c, 4, 55, 127
1, 248439, Note_off_c, 4, 62, 100
1, 248456, Note_on_c, 4, 58, 127
1, 248516, Note_on_c, 4, 62, 127
1, 248521, Note_off_c, 4, 58, 100
1, 248566, Note_on_c, 4, 60, 127
1, 248571, Note_off_c, 4, 62, 100
1, 248621, Note_on_c, 3, 63, 127
1, 248627, Note_off_c, 4, 60, 100
1, 248669, Note_on_c, 4, 62, 127
1, 248677, Note_off_c, 3, 63, 100
1, 248725, Note_on_c, 3, 65, 127
1, 248731, Note_off_c, 4, 62, 100
1, 248775, Note_on_c, 3, 63, 127
1, 248781, Note_off_c, 3, 65, 100
1, 248831, Note_on_c, 3, 67, 127
1, 248836, Note_off_c, 3, 63, 100
1, 248880, Note_on_c, 3, 65, 127
1, 248884, Note_off_c, 3, 67, 100
1, 248929, Note_on_c, 3, 68, 127
1, 248935, Note_off_c, 3, 65, 100
1, 248974, Note_on_c, 3, 67, 127
1, 248982, Note_off_c, 3, 68, 100
1, 249029, Note_on_c, 2, 70, 127
1, 249035, Note_off_c, 3, 67, 100
1, 249070, Note_on_c, 3, 68, 127
1, 249075, Note_off_c, 2, 70, 100
1, 249118, Note_on_c, 2, 72, 125
1, 249119, Note_off_c, 4, 46, 100
1, 249119, Note_on_c, 4, 39, 127
1, 249121, Note_off_c, 3, 68, 100
1, 249121, Note_off_c, 4, 55, 100
1, 249122, Note_on_c, 4, 51, 127
1, 249209, Note_on_c, 2, 70, 127
1, 249240, Note_off_c, 2, 72, 100
1, 249399, Note_off_c, 2, 70, 100
1, 249399, Note_on_c, 2, 72, 125
1, 249441, Note_on_c, 2, 70, 127
1, 249446, Note_off_c, 2, 72, 100
1, 249485, Note_on_c, 2, 68, 127
1, 249492, Note_off_c, 2, 70, 100
1, 249579, Note_on_c, 2, 67, 127
1, 249588, Note_off_c, 2, 68, 100
1, 249673, Note_on_c, 2, 65, 127
1, 249683, Note_off_c, 2, 67, 100
1, 249769, Note_on_c, 2, 63, 127
1, 249778, Note_off_c, 2, 65, 100
1, 249853, Note_off_c, 4, 51, 100
1, 249867, Note_on_c, 4, 60, 127
1, 249867, Note_on_c, 1, 79, 114
1, 249868, Note_on_c, 4, 51, 127
1, 249875, Note_off_c, 2, 63, 100
1, 249965, Note_on_c, 2, 74, 123
1, 249972, Note_off_c, 1, 79, 100
1, 250057, Note_on_c, 2, 75, 121
1, 250067, Note_off_c, 2, 74, 100
1, 250151, Note_on_c, 2, 72, 125
1, 250161, Note_off_c, 2, 75, 100
1, 250228, Note_off_c, 4, 60, 100
1, 250228, Note_off_c, 4, 51, 100
1, 250242, Note_on_c, 2, 70, 127
1, 250243, Note_on_c, 4, 51, 127
1, 250243, Note_on_c, 4, 60, 127
1, 250244, Note_off_c, 4, 39, 100
1, 250250, Note_off_c, 2, 72, 100
1, 250615, Note_off_c, 2, 70, 100
1, 250615, Note_off_c, 4, 60, 100
1, 250616, Note_on_c, 4, 62, 127
1, 250616, Note_on_c, 2, 68, 127
1, 250617, Note_on_c, 4, 58, 127
1, 250651, Note_on_c, 2, 70, 127
1, 250661, Note_off_c, 2, 68, 64
1, 250682, Note_on_c, 2, 68, 127
1, 250693, Note_off_c, 2, 70, 64
1, 250716, Note_on_c, 2, 70, 127
1, 250728, Note_off_c, 2, 68, 64
1, 250747, Note_on_c, 2, 68, 127
1, 250759, Note_off_c, 2, 70, 64
1, 250778, Note_on_c, 2, 70, 127
1, 250789, Note_off_c, 2, 68, 64
1, 250812, Note_on_c, 2, 68, 127
1, 250824, Note_off_c, 2, 70, 64
1, 250843, Note_on_c, 2, 70, 127
1, 250853, Note_off_c, 2, 68, 64
1, 250870, Note_on_c, 2, 68, 127
1, 250880, Note_off_c, 2, 70, 64
1, 250899, Note_on_c, 2, 70, 127
1, 250907, Note_off_c, 2, 68, 64
1, 250923, Note_on_c, 2, 68, 127
1, 250931, Note_off_c, 2, 70, 64
1, 250971, Note_on_c, 2, 67, 127
1, 250977, Note_off_c, 2, 68, 64
1, 251017, Note_on_c, 2, 68, 127
1, 251023, Note_off_c, 2, 67, 100
1, 251063, Note_off_c, 4, 58, 100
1, 251064, Note_off_c, 4, 62, 100
1, 251064, Note_on_c, 2, 63, 127
1, 251064, Note_on_c, 2, 67, 127
1, 251065, Note_on_c, 4, 60, 127
1, 251069, Note_off_c, 2, 68, 100
1, 251146, Note_on_c, 2, 75, 121
1, 251153, Note_off_c, 2, 67, 100
1, 251244, Note_on_c, 2, 74, 123
1, 251253, Note_off_c, 2, 75, 100
1, 251336, Note_on_c, 2, 73, 127
1, 251345, Note_off_c, 2, 74, 100
1, 251428, Note_off_c, 2, 63, 100
1, 251428, Note_off_c, 4, 60, 100
1, 251429, Note_off_c, 4, 51, 100
1, 251429, Note_on_c, 2, 71, 127
1, 251430, Note_on_c, 4, 56, 127
1, 251430, Note_on_c, 4, 44, 127
1, 251438, Note_off_c, 2, 73, 100
1, 251496, Note_on_c, 2, 74, 123
1, 251514, Note_off_c, 2, 71, 100
1, 251532, Note_on_c, 2, 72, 125
1, 251556, Note_off_c, 2, 74, 100
1, 251607, Note_on_c, 2, 70, 127
1, 251627, Note_off_c, 2, 72, 100
1, 251642, Note_on_c, 2, 68, 127
1, 251665, Note_off_c, 2, 70, 100
1, 251711, Note_on_c, 2, 67, 127
1, 251729, Note_off_c, 2, 68, 100
1, 251748, Note_on_c, 2, 65, 127
1, 251769, Note_off_c, 2, 67, 100
1, 251838, Note_off_c, 4, 44, 100
1, 251839, Note_off_c, 4, 56, 100
1, 251839, Note_on_c, 2, 63, 127
1, 251839, Note_on_c, 4, 55, 127
1, 251840, Note_on_c, 4, 46, 127
1, 251848, Note_off_c, 2, 65, 100
1, 252195, Note_off_c, 4, 55, 100
1, 252196, Note_on_c, 4, 56, 127
1, 252371, Note_off_c, 2, 63, 64
1, 252375, Note_on_c, 2, 67, 127
1, 252488, Note_on_c, 2, 65, 127
1, 252498, Note_off_c, 2, 67, 100
1, 252588, Note_off_c, 4, 56, 100
1, 252588, Note_off_c, 4, 46, 100
1, 252589, Note_on_c, 2, 63, 127
1, 252589, Note_on_c, 4, 51, 127
1, 252598, Note_off_c, 2, 65, 100
1, 252692, Note_on_c, 4, 55, 127
1, 252703, Note_off_c, 4, 51, 100
1, 252795, Note_on_c, 4, 58, 127
1, 252803, Note_off_c, 4, 55, 100
1, 252888, Note_on_c, 4, 55, 127
1, 252899, Note_off_c, 4, 58, 100
1, 252993, Note_on_c, 4, 51, 127
1, 253001, Note_off_c, 4, 55, 100
1, 253091, Note_on_c, 4, 55, 127
1, 253101, Note_off_c, 4, 51, 100
1, 253185, Note_off_c, 2, 63, 100
1, 253186, Note_on_c, 2, 70, 127
1, 253186, Note_on_c, 4, 58, 127
1, 253188, Note_on_c, 2, 67, 127
1, 253196, Note_off_c, 4, 55, 100
1, 253281, Note_on_c, 4, 55, 127
1, 253289, Note_off_c, 4, 58, 100
1, 253371, Note_off_c, 2, 70, 100
1, 253373, Note_off_c, 2, 67, 100
1, 253377, Note_on_c, 2, 70, 127
1, 253378, Note_on_c, 4, 51, 127
1, 253380, Note_on_c, 2, 67, 127
1, 253388, Note_off_c, 4, 55, 100
1, 253474, Note_on_c, 4, 55, 127
1, 253484, Note_off_c, 4, 51, 100
1, 253564, Note_off_c, 2, 70, 100
1, 253565, Note_off_c, 2, 67, 100
1, 253569, Note_on_c, 2, 70, 127
1, 253570, Note_on_c, 4, 58, 127
1, 253571, Note_on_c, 2, 67, 127
1, 253581, Note_off_c, 4, 55, 100
1, 253669, Note_on_c, 4, 55, 127
1, 253680, Note_off_c, 4, 58, 100
1, 253761, Note_off_c, 2, 70, 100
1, 253763, Note_off_c, 2, 67, 100
1, 253769, Note_on_c, 0, 75, 121
1, 253769, Note_on_c, 4, 51, 127
1, 253772, Note_on_c, 2, 68, 127
1, 253779, Note_off_c, 4, 55, 100
1, 253871, Note_on_c, 4, 53, 127
1, 253880, Note_off_c, 4, 51, 100
1, 253972, Note_off_c, 0, 75, 100
1, 253973, Note_on_c, 0, 74, 123
1, 253973, Note_on_c, 4, 56, 127
1, 253983, Note_off_c, 4, 53, 100
1, 254067, Note_on_c, 4, 53, 127
1, 254079, Note_off_c, 4, 56, 100
1, 254175, Note_on_c, 4, 51, 127
1, 254184, Note_off_c, 4, 53, 100
1, 254271, Note_on_c, 4, 53, 127
1, 254280, Note_off_c, 4, 51, 100
1, 254364, Note_off_c, 0, 74, 100
1, 254368, Note_on_c, 1, 82, 114
1, 254368, Note_on_c, 4, 56, 127
1, 254376, Note_off_c, 4, 53, 100
1, 254458, Note_on_c, 1, 80, 114
1, 254458, Note_on_c, 4, 53, 127
1, 254468, Note_off_c, 4, 56, 100
1, 254468, Note_off_c, 1, 82, 100
1, 254552, Note_on_c, 1, 79, 114
1, 254552, Note_on_c, 4, 51, 127
1, 254560, Note_off_c, 4, 53, 100
1, 254560, Note_off_c, 1, 80, 100
1, 254648, Note_on_c, 2, 77, 118
1, 254648, Note_on_c, 4, 53, 127
1, 254656, Note_off_c, 4, 51, 100
1, 254656, Note_off_c, 1, 79, 100
1, 254740, Note_on_c, 2, 75, 121
1, 254740, Note_on_c, 4, 56, 127
1, 254748, Note_off_c, 4, 53, 100
1, 254748, Note_off_c, 2, 77, 100
1, 254830, Note_on_c, 2, 74, 123
1, 254831, Note_on_c, 4, 53, 127
1, 254839, Note_off_c, 4, 56, 100
1, 254839, Note_off_c, 2, 75, 100
1, 254922, Note_on_c, 2, 77, 114
1, 254923, Note_on_c, 4, 51, 127
1, 254933, Note_off_c, 2, 74, 100
1, 254933, Note_off_c, 4, 53, 100
1, 255001, Note_off_c, 2, 77, 100
1, 255011, Note_on_c, 2, 75, 109
1, 255036, Note_off_c, 2, 75, 64
1, 255036, Note_on_c, 4, 55, 127
1, 255036, Note_on_c, 2, 77, 102
1, 255048, Note_off_c, 4, 51, 100
1, 255063, Note_off_c, 2, 77, 64
1, 255064, Note_on_c, 2, 75, 109
1, 255091, Note_off_c, 2, 75, 64
1, 255092, Note_on_c, 2, 77, 102
1, 255115, Note_off_c, 2, 77, 64
1, 255116, Note_on_c, 2, 75, 109
1, 255139, Note_off_c, 2, 75, 64
1, 255140, Note_on_c, 2, 77, 102
1, 255140, Note_on_c, 4, 58, 127
1, 255150, Note_off_c, 4, 55, 100
1, 255167, Note_off_c, 2, 77, 64
1, 255168, Note_on_c, 2, 75, 109
1, 255193, Note_off_c, 2, 75, 64
1, 255193, Note_on_c, 2, 77, 102
1, 255217, Note_off_c, 2, 77, 64
1, 255217, Note_on_c, 2, 75, 109
1, 255241, Note_off_c, 2, 75, 64
1, 255241, Note_on_c, 2, 74, 123
1, 255242, Note_on_c, 4, 55, 127
1, 255250, Note_off_c, 4, 58, 100
1, 255273, Note_off_c, 2, 68, 100
1, 255280, Note_off_c, 2, 74, 64
1, 255286, Note_on_c, 2, 72, 125
1, 255330, Note_off_c, 2, 72, 100
1, 255336, Note_on_c, 2, 70, 127
1, 255336, Note_on_c, 4, 51, 127
1, 255347, Note_off_c, 4, 55, 100
1, 255439, Note_on_c, 4, 55, 127
1, 255448, Note_off_c, 4, 51, 100
1, 255520, Note_off_c, 2, 70, 100
1, 255534, Note_on_c, 2, 70, 127
1, 255534, Note_on_c, 4, 58, 127
1, 255535, Note_on_c, 2, 67, 127
1, 255542, Note_off_c, 4, 55, 100
1, 255635, Note_on_c, 4, 55, 127
1, 255642, Note_off_c, 4, 58, 100
1, 255713, Note_off_c, 2, 70, 100
1, 255715, Note_off_c, 2, 67, 100
1, 255728, Note_on_c, 2, 70, 127
1, 255728, Note_on_c, 4, 51, 127
1, 255731, Note_on_c, 2, 67, 127
1, 255738, Note_off_c, 4, 55, 100
1, 255823, Note_on_c, 4, 55, 127
1, 255834, Note_off_c, 4, 51, 100
1, 255905, Note_off_c, 2, 70, 100
1, 255907, Note_off_c, 2, 67, 100
1, 255921, Note_on_c, 2, 70, 127
1, 255921, Note_on_c, 4, 58, 127
1, 255922, Note_on_c, 2, 67, 127
1, 255929, Note_off_c, 4, 55, 100
1, 256024, Note_on_c, 4, 55, 127
1, 256036, Note_off_c, 4, 58, 100
1, 256113, Note_off_c, 2, 70, 100
1, 256113, Note_off_c, 2, 67, 100
1, 256127, Note_on_c, 0, 75, 121
1, 256127, Note_on_c, 4, 51, 127
1, 256129, Note_on_c, 2, 68, 127
1, 256137, Note_off_c, 4, 55, 100
1, 256224, Note_on_c, 4, 53, 127
1, 256231, Note_off_c, 4, 51, 100
1, 256320, Note_off_c, 0, 75, 100
1, 256320, Note_on_c, 0, 74, 123
1, 256320, Note_on_c, 4, 56, 127
1, 256328, Note_off_c, 4, 53, 100
1, 256418, Note_on_c, 4, 53, 127
1, 256428, Note_off_c, 4, 56, 100
1, 256514, Note_on_c, 4, 51, 127
1, 256525, Note_off_c, 4, 53, 100
1, 256614, Note_on_c, 4, 53, 127
1, 256623, Note_off_c, 4, 51, 100
1, 256701, Note_off_c, 0, 74, 100
1, 256705, Note_on_c, 1, 82, 114
1, 256705, Note_on_c, 4, 56, 127
1, 256713, Note_off_c, 4, 53, 100
1, 256801, Note_on_c, 1, 80, 114
1, 256802, Note_on_c, 4, 53, 127
1, 256810, Note_off_c, 4, 56, 100
1, 256810, Note_off_c, 1, 82, 100
1, 256890, Note_on_c, 1, 79, 114
1, 256890, Note_on_c, 4, 51, 127
1, 256900, Note_off_c, 4, 53, 100
1, 256900, Note_off_c, 1, 80, 100
1, 256986, Note_on_c, 2, 77, 118
1, 256986, Note_on_c, 4, 53, 127
1, 256994, Note_off_c, 4, 51, 100
1, 256994, Note_off_c, 1, 79, 100
1, 257080, Note_on_c, 2, 75, 121
1, 257080, Note_on_c, 4, 56, 127
1, 257088, Note_off_c, 4, 53, 100
1, 257088, Note_off_c, 2, 77, 100
1, 257174, Note_on_c, 2, 74, 123
1, 257174, Note_on_c, 4, 53, 127
1, 257183, Note_off_c, 4, 56, 100
1, 257183, Note_off_c, 2, 75, 100
1, 257262, Note_on_c, 2, 75, 117
1, 257264, Note_off_c, 2, 68, 100
1, 257265, Note_on_c, 4, 51, 127
1, 257267, Note_on_c, 4, 55, 127
1, 257273, Note_off_c, 4, 53, 100
1, 257273, Note_off_c, 2, 74, 100
1, 257316, Note_on_c, 2, 77, 110
1, 257350, Note_off_c, 2, 75, 100
1, 257367, Note_on_c, 2, 75, 113
1, 257375, Note_off_c, 2, 77, 100
1, 257415, Note_on_c, 2, 74, 115
1, 257421, Note_off_c, 2, 75, 100
1, 257461, Note_on_c, 2, 75, 113
1, 257469, Note_off_c, 2, 74, 100
1, 257511, Note_on_c, 2, 77, 110
1, 257517, Note_off_c, 2, 75, 100
1, 257557, Note_on_c, 1, 79, 106
1, 257565, Note_off_c, 2, 77, 100
1, 257601, Note_on_c, 2, 75, 113
1, 257607, Note_off_c, 1, 79, 100
1, 257641, Note_on_c, 2, 70, 127
1, 257648, Note_off_c, 2, 75, 100
1, 257824, Note_off_c, 4, 55, 100
1, 257833, Note_off_c, 2, 70, 100
1, 257841, Note_on_c, 2, 70, 127
1, 257843, Note_off_c, 4, 51, 100
1, 257844, Note_on_c, 2, 67, 127
1, 257844, Note_on_c, 4, 58, 127
1, 257844, Note_on_c, 4, 55, 127
1, 258035, Note_off_c, 2, 70, 100
1, 258037, Note_off_c, 4, 58, 100
1, 258039, Note_off_c, 4, 55, 100
1, 258039, Note_off_c, 2, 67, 100
1, 258042, Note_on_c, 2, 68, 127
1, 258044, Note_on_c, 4, 60, 127
1, 258046, Note_on_c, 2, 65, 127
1, 258046, Note_on_c, 4, 56, 127
1, 258235, Note_off_c, 2, 68, 100
1, 258237, Note_off_c, 4, 60, 100
1, 258239, Note_off_c, 4, 56, 100
1, 258240, Note_off_c, 2, 65, 100
1, 258241, Note_on_c, 2, 67, 127
1, 258243, Note_on_c, 4, 60, 127
1, 258245, Note_on_c, 2, 63, 127
1, 258246, Note_on_c, 4, 57, 127
1, 258431, Note_off_c, 2, 67, 100
1, 258432, Note_off_c, 4, 60, 100
1, 258434, Note_off_c, 4, 57, 100
1, 258435, Note_off_c, 2, 63, 100
1, 258437, Note_on_c, 2, 70, 127
1, 258439, Note_on_c, 4, 58, 127
1, 258440, Note_on_c, 2, 63, 127
1, 258720, Note_off_c, 2, 70, 100
1, 258720, Note_on_c, 2, 67, 127
1, 258817, Note_off_c, 4, 58, 100
1, 258817, Note_on_c, 2, 65, 127
1, 258817, Note_on_c, 4, 62, 127
1, 258819, Note_off_c, 2, 63, 100
1, 258825, Note_off_c, 2, 67, 100
1, 259018, Note_on_c, 4, 58, 127
1, 259211, Note_on_c, 4, 53, 127
1, 259226, Note_off_c, 4, 58, 100
1, 259403, Note_on_c, 4, 50, 127
1, 259418, Note_off_c, 4, 53, 100
1, 259577, Note_off_c, 2, 65, 100
1, 259595, Note_off_c, 4, 62, 100
1, 259595, Note_on_c, 2, 65, 127
1, 259596, Note_on_c, 4, 46, 127
1, 259609, Note_off_c, 4, 50, 100
1, 259688, Note_on_c, 2, 77, 118
1, 259718, Note_off_c, 2, 65, 100
1, 259778, Note_on_c, 4, 50, 127
1, 259793, Note_off_c, 4, 46, 100
1, 259955, Note_on_c, 4, 53, 127
1, 259968, Note_off_c, 4, 50, 100
1, 260127, Note_off_c, 2, 77, 100
1, 260128, Note_on_c, 2, 75, 121
1, 260128, Note_on_c, 4, 58, 127
1, 260142, Note_off_c, 4, 53, 100
1, 260174, Note_on_c, 2, 74, 123
1, 260180, Note_off_c, 2, 75, 100
1, 260217, Note_on_c, 2, 72, 125
1, 260224, Note_off_c, 2, 74, 100
1, 260263, Note_on_c, 2, 70, 127
1, 260268, Note_off_c, 2, 72, 100
1, 260307, Note_on_c, 2, 69, 127
1, 260307, Note_on_c, 2, 63, 127
1, 260314, Note_off_c, 2, 70, 100
1, 260321, Note_off_c, 4, 58, 100
1, 260482, Note_off_c, 2, 63, 100
1, 260482, Note_off_c, 2, 69, 100
1, 260486, Note_on_c, 2, 70, 127
1, 260487, Note_on_c, 4, 62, 127
1, 260672, Note_off_c, 2, 70, 100
1, 260672, Note_off_c, 4, 62, 100
1, 260676, Note_on_c, 2, 72, 125
1, 260678, Note_on_c, 2, 63, 127
1, 260679, Note_on_c, 2, 69, 127
1, 260679, Note_on_c, 4, 60, 127
1, 260872, Note_on_c, 2, 75, 121
1, 260873, Note_on_c, 2, 70, 127
1, 260873, Note_on_c, 4, 58, 127
1, 260875, Note_on_c, 4, 62, 127
1, 260889, Note_off_c, 2, 72, 100
1, 260889, Note_off_c, 2, 63, 100
1, 260892, Note_off_c, 4, 60, 100
1, 260892, Note_off_c, 2, 69, 100
1, 260903, Note_off_c, 2, 75, 100
1, 260917, Note_on_c, 2, 74, 123
1, 260947, Note_off_c, 2, 74, 100
1, 260960, Note_on_c, 2, 72, 125
1, 260989, Note_off_c, 2, 72, 100
1, 261002, Note_on_c, 2, 74, 123
1, 261031, Note_off_c, 2, 74, 100
1, 261048, Note_on_c, 2, 75, 121
1, 261048, Note_on_c, 4, 60, 127
1, 261050, Note_on_c, 2, 72, 125
1, 261050, Note_on_c, 4, 57, 127
1, 261064, Note_off_c, 2, 70, 100
1, 261065, Note_off_c, 4, 58, 100
1, 261066, Note_off_c, 4, 62, 100
1, 261226, Note_on_c, 3, 65, 127
1, 261240, Note_off_c, 2, 75, 100
1, 261241, Note_off_c, 4, 60, 100
1, 261243, Note_off_c, 4, 57, 100
1, 261243, Note_off_c, 2, 72, 100
1, 261413, Note_off_c, 3, 65, 100
1, 261419, Note_on_c, 3, 65, 127
1, 261604, Note_off_c, 3, 65, 100
1, 261612, Note_on_c, 3, 65, 127
1, 261796, Note_off_c, 3, 65, 100
1, 261800, Note_on_c, 2, 75, 121
1, 261983, Note_on_c, 4, 53, 127
1, 262180, Note_on_c, 4, 57, 127
1, 262198, Note_off_c, 4, 53, 100
1, 262357, Note_off_c, 2, 75, 100
1, 262357, Note_on_c, 2, 77, 118
1, 262358, Note_on_c, 4, 60, 127
1, 262370, Note_off_c, 4, 57, 100
1, 262399, Note_on_c, 2, 75, 121
1, 262404, Note_off_c, 2, 77, 100
1, 262444, Note_on_c, 2, 74, 123
1, 262450, Note_off_c, 2, 75, 100
1, 262492, Note_on_c, 2, 72, 125
1, 262498, Note_off_c, 2, 74, 100
1, 262538, Note_on_c, 2, 70, 127
1, 262539, Note_on_c, 4, 62, 127
1, 262544, Note_off_c, 2, 72, 100
1, 262554, Note_off_c, 4, 60, 100
1, 262721, Note_on_c, 2, 72, 125
1, 262721, Note_on_c, 2, 63, 127
1, 262722, Note_on_c, 2, 69, 127
1, 262734, Note_off_c, 2, 70, 100
1, 262735, Note_off_c, 4, 62, 100
1, 262898, Note_on_c, 2, 74, 123
1, 262900, Note_on_c, 2, 65, 127
1, 262901, Note_on_c, 2, 70, 127
1, 262901, Note_on_c, 4, 62, 127
1, 262914, Note_off_c, 2, 72, 100
1, 262916, Note_off_c, 2, 63, 100
1, 262918, Note_off_c, 2, 69, 100
1, 263087, Note_on_c, 2, 72, 125
1, 263087, Note_on_c, 2, 77, 118
1, 263088, Note_on_c, 4, 60, 127
1, 263089, Note_on_c, 2, 63, 127
1, 263101, Note_off_c, 2, 74, 100
1, 263101, Note_off_c, 2, 65, 100
1, 263103, Note_off_c, 4, 62, 100
1, 263103, Note_off_c, 2, 70, 100
1, 263129, Note_on_c, 2, 75, 121
1, 263135, Note_off_c, 2, 77, 100
1, 263175, Note_on_c, 2, 74, 123
1, 263181, Note_off_c, 2, 75, 100
1, 263221, Note_on_c, 2, 75, 121
1, 263229, Note_off_c, 2, 74, 100
1, 263271, Note_on_c, 1, 79, 114
1, 263271, Note_on_c, 4, 62, 127
1, 263273, Note_on_c, 2, 74, 123
1, 263273, Note_on_c, 4, 58, 127
1, 263276, Note_off_c, 2, 75, 100
1, 263287, Note_off_c, 2, 72, 100
1, 263288, Note_off_c, 4, 60, 100
1, 263290, Note_off_c, 2, 63, 100
1, 263459, Note_on_c, 4, 46, 127
1, 263638, Note_off_c, 4, 46, 100
1, 263646, Note_on_c, 4, 46, 127
1, 263817, Note_off_c, 4, 46, 100
1, 263825, Note_on_c, 4, 46, 127
1, 264002, Note_off_c, 1, 79, 100
1, 264002, Note_on_c, 1, 80, 114
1, 264003, Note_off_c, 4, 62, 100
1, 264004, Note_off_c, 4, 58, 100
1, 264005, Note_off_c, 2, 74, 100
1, 264177, Note_off_c, 4, 46, 100
1, 264177, Note_on_c, 4, 50, 124
1, 264355, Note_on_c, 4, 53, 124
1, 264371, Note_off_c, 4, 50, 100
1, 264534, Note_off_c, 1, 80, 100
1, 264534, Note_on_c, 1, 79, 114
1, 264535, Note_on_c, 4, 56, 124
1, 264550, Note_off_c, 4, 53, 100
1, 264581, Note_on_c, 2, 77, 118
1, 264587, Note_off_c, 1, 79, 100
1, 264623, Note_on_c, 2, 75, 121
1, 264629, Note_off_c, 2, 77, 100
1, 264667, Note_on_c, 2, 74, 123
1, 264673, Note_off_c, 2, 75, 100
1, 264709, Note_on_c, 2, 75, 121
1, 264710, Note_on_c, 4, 55, 124
1, 264724, Note_off_c, 4, 56, 100
1, 264724, Note_off_c, 2, 74, 100
1, 264884, Note_on_c, 2, 77, 118
1, 264885, Note_on_c, 4, 50, 124
1, 264899, Note_off_c, 2, 75, 100
1, 264899, Note_off_c, 4, 55, 100
1, 265059, Note_on_c, 1, 78, 115
1, 265074, Note_off_c, 2, 77, 100
1, 265239, Note_off_c, 4, 50, 100
1, 265240, Note_on_c, 4, 58, 124
1, 265240, Note_on_c, 4, 51, 124
1, 265408, Note_off_c, 4, 51, 100
1, 265409, Note_off_c, 4, 58, 100
1, 265415, Note_on_c, 4, 58, 124
1, 265416, Note_on_c, 4, 51, 124
1, 265577, Note_off_c, 4, 51, 100
1, 265578, Note_off_c, 4, 58, 100
1, 265586, Note_off_c, 1, 78, 100
1, 265586, Note_on_c, 1, 80, 110
1, 265587, Note_on_c, 4, 59, 124
1, 265587, Note_on_c, 4, 51, 124
1, 265672, Note_on_c, 1, 79, 110
1, 265682, Note_off_c, 1, 80, 100
1, 265753, Note_off_c, 4, 51, 100
1, 265753, Note_off_c, 4, 59, 100
1, 265760, Note_on_c, 4, 60, 124
1, 265760, Note_on_c, 2, 77, 114
1, 265761, Note_on_c, 4, 51, 124
1, 265768, Note_off_c, 1, 79, 100
1, 265844, Note_on_c, 2, 75, 117
1, 265853, Note_off_c, 2, 77, 100
1, 265923, Note_off_c, 4, 60, 100
1, 265923, Note_off_c, 4, 51, 100
1, 265930, Note_on_c, 2, 74, 119
1, 265931, Note_on_c, 4, 57, 124
1, 265931, Note_on_c, 4, 51, 124
1, 265938, Note_off_c, 2, 75, 100
1, 266008, Note_on_c, 2, 72, 121
1, 266017, Note_off_c, 2, 74, 100
1, 266084, Note_off_c, 4, 51, 100
1, 266085, Note_off_c, 4, 57, 100
1, 266089, Note_on_c, 2, 77, 114
1, 266091, Note_on_c, 4, 50, 124
1, 266093, Note_on_c, 4, 58, 124
1, 266099, Note_off_c, 2, 72, 100
1, 266143, Note_off_c, 2, 77, 100
1, 266153, Note_on_c, 2, 76, 114
1, 266202, Note_off_c, 2, 76, 100
1, 266212, Note_on_c, 2, 77, 114
1, 266213, Note_off_c, 4, 50, 100
1, 266213, Note_on_c, 4, 51, 124
1, 266260, Note_off_c, 2, 77, 100
1, 266264, Note_off_c, 4, 58, 100
1, 266264, Note_on_c, 1, 79, 110
1, 266272, Note_on_c, 4, 58, 124
1, 266327, Note_on_c, 2, 67, 127
1, 266338, Note_off_c, 1, 79, 100
1, 266386, Note_on_c, 2, 75, 117
1, 266391, Note_off_c, 2, 67, 100
1, 266432, Note_off_c, 4, 51, 100
1, 266440, Note_off_c, 4, 58, 100
1, 266446, Note_on_c, 2, 70, 127
1, 266448, Note_on_c, 4, 62, 124
1, 266448, Note_on_c, 4, 53, 124
1, 266451, Note_off_c, 2, 75, 100
1, 266615, Note_off_c, 4, 53, 64
1, 266616, Note_off_c, 4, 62, 100
1, 266622, Note_on_c, 4, 62, 124
1, 266623, Note_on_c, 4, 53, 124
1, 266784, Note_off_c, 4, 53, 100
1, 266785, Note_off_c, 4, 62, 100
1, 266795, Note_off_c, 2, 70, 100
1, 266796, Note_on_c, 2, 72, 121
1, 266796, Note_on_c, 4, 53, 127
1, 266796, Note_on_c, 2, 74, 119
1, 266797, Note_on_c, 2, 63, 127
1, 266868, Note_off_c, 2, 74, 100
1, 266880, Note_off_c, 2, 72, 100
1, 266885, Note_on_c, 2, 72, 121
1, 266972, Note_off_c, 4, 53, 100
1, 266974, Note_off_c, 2, 63, 100
1, 266979, Note_on_c, 2, 70, 127
1, 266981, Note_on_c, 4, 53, 127
1, 266983, Note_on_c, 2, 63, 127
1, 266989, Note_off_c, 2, 72, 100
1, 267074, Note_on_c, 2, 72, 121
1, 267082, Note_off_c, 2, 70, 100
1, 267157, Note_off_c, 4, 53, 100
1, 267157, Note_off_c, 2, 63, 100
1, 267164, Note_on_c, 2, 70, 127
1, 267166, Note_on_c, 4, 58, 127
1, 267168, Note_on_c, 4, 62, 127
1, 267173, Note_off_c, 2, 72, 100
1, 267244, Note_off_c, 4, 58, 100
1, 267252, Note_on_c, 4, 58, 127
1, 267350, Note_off_c, 4, 62, 100
1, 267354, Note_on_c, 4, 62, 127
1, 267363, Note_off_c, 4, 58, 100
1, 267456, Note_on_c, 2, 65, 127
1, 267467, Note_off_c, 4, 62, 100
1, 267552, Note_on_c, 2, 63, 127
1, 267561, Note_off_c, 2, 65, 100
1, 267642, Note_on_c, 2, 65, 127
1, 267649, Note_off_c, 2, 63, 100
1, 267728, Note_off_c, 2, 70, 100
1, 267736, Note_on_c, 2, 77, 108
1, 267736, Note_on_c, 4, 60, 127
1, 267737, Note_on_c, 2, 70, 125
1, 267744, Note_off_c, 2, 65, 100
1, 267831, Note_on_c, 2, 65, 127
1, 267839, Note_off_c, 4, 60, 100
1, 267913, Note_off_c, 2, 77, 100
1, 267915, Note_off_c, 2, 70, 100
1, 267921, Note_on_c, 2, 77, 108
1, 267922, Note_on_c, 2, 72, 117
1, 267922, Note_on_c, 4, 60, 127
1, 267928, Note_off_c, 2, 65, 100
1, 268008, Note_on_c, 2, 65, 127
1, 268016, Note_off_c, 4, 60, 100
1, 268091, Note_off_c, 2, 77, 100
1, 268093, Note_off_c, 2, 72, 100
1, 268097, Note_on_c, 2, 77, 108
1, 268097, Note_on_c, 4, 58, 127
1, 268100, Note_on_c, 2, 74, 113
1, 268105, Note_off_c, 2, 65, 100
1, 268188, Note_on_c, 2, 65, 127
1, 268200, Note_off_c, 4, 58, 100
1, 268280, Note_off_c, 2, 77, 100
1, 268281, Note_off_c, 2, 74, 100
1, 268285, Note_on_c, 2, 77, 108
1, 268286, Note_on_c, 4, 57, 127
1, 268288, Note_on_c, 2, 75, 111
1, 268296, Note_off_c, 2, 65, 100
1, 268379, Note_on_c, 4, 60, 127
1, 268388, Note_off_c, 4, 57, 64
1, 268464, Note_off_c, 2, 77, 100
1, 268465, Note_off_c, 2, 75, 100
1, 268471, Note_on_c, 2, 63, 127
1, 268471, Note_on_c, 2, 77, 108
1, 268479, Note_off_c, 4, 60, 100
1, 268518, Note_on_c, 1, 79, 104
1, 268523, Note_off_c, 2, 77, 100
1, 268564, Note_on_c, 2, 77, 108
1, 268564, Note_on_c, 4, 62, 127
1, 268570, Note_off_c, 1, 79, 100
1, 268572, Note_off_c, 2, 63, 100
1, 268609, Note_on_c, 2, 76, 108
1, 268616, Note_off_c, 2, 77, 100
1, 268657, Note_on_c, 2, 77, 108
1, 268657, Note_on_c, 4, 60, 127
1, 268663, Note_off_c, 2, 76, 100
1, 268665, Note_off_c, 4, 62, 100
1, 268752, Note_on_c, 4, 58, 127
1, 268762, Note_off_c, 4, 60, 100
1, 268840, Note_off_c, 2, 77, 100
1, 268846, Note_on_c, 2, 77, 108
1, 268847, Note_on_c, 3, 69, 125
1, 268847, Note_on_c, 4, 57, 127
1, 268856, Note_off_c, 4, 58, 100
1, 268941, Note_on_c, 4, 55, 127
1, 268951, Note_off_c, 4, 57, 100
1, 269037, Note_on_c, 1, 79, 104
1, 269038, Note_on_c, 3, 70, 125
1, 269038, Note_on_c, 4, 53, 127
1, 269048, Note_off_c, 4, 55, 100
1, 269053, Note_off_c, 2, 77, 100
1, 269055, Note_off_c, 3, 69, 100
1, 269132, Note_on_c, 4, 55, 127
1, 269142, Note_off_c, 4, 53, 100
1, 269220, Note_on_c, 1, 81, 108
1, 269221, Note_on_c, 3, 72, 117
1, 269221, Note_on_c, 4, 51, 127
1, 269229, Note_off_c, 4, 55, 100
1, 269235, Note_off_c, 1, 79, 100
1, 269237, Note_off_c, 3, 70, 100
1, 269310, Note_on_c, 4, 53, 127
1, 269319, Note_off_c, 4, 51, 100
1, 269398, Note_on_c, 1, 82, 108
1, 269399, Note_on_c, 4, 50, 127
1, 269401, Note_on_c, 3, 70, 127
1, 269409, Note_off_c, 4, 53, 100
1, 269414, Note_off_c, 1, 81, 100
1, 269416, Note_off_c, 3, 72, 100
1, 269493, Note_on_c, 4, 53, 127
1, 269503, Note_off_c, 4, 50, 100
1, 269583, Note_off_c, 1, 82, 100
1, 269587, Note_on_c, 1, 82, 108
1, 269588, Note_on_c, 4, 58, 127
1, 269598, Note_off_c, 4, 53, 100
1, 269636, Note_on_c, 1, 84, 113
1, 269642, Note_off_c, 1, 82, 100
1, 269682, Note_on_c, 1, 86, 117
1, 269683, Note_on_c, 4, 53, 127
1, 269689, Note_off_c, 1, 84, 100
1, 269693, Note_off_c, 4, 58, 100
1, 269729, Note_on_c, 1, 82, 108
1, 269752, Note_off_c, 1, 86, 100
1, 269777, Note_on_c, 2, 77, 112
1, 269779, Note_on_c, 4, 62, 127
1, 269787, Note_off_c, 4, 53, 100
1, 269800, Note_off_c, 1, 82, 100
1, 269962, Note_off_c, 4, 62, 100
1, 269962, Note_off_c, 2, 77, 100
1, 269966, Note_on_c, 2, 77, 112
1, 269968, Note_on_c, 4, 62, 127
1, 269970, Note_on_c, 4, 58, 127
1, 269972, Note_on_c, 2, 74, 117
1, 270151, Note_off_c, 2, 77, 64
1, 270151, Note_off_c, 4, 62, 100
1, 270153, Note_off_c, 4, 58, 100
1, 270155, Note_off_c, 2, 74, 64
1, 270156, Note_off_c, 3, 70, 100
1, 270156, Note_on_c, 2, 75, 115
1, 270159, Note_on_c, 2, 63, 127
1, 270159, Note_on_c, 4, 60, 127
1, 270161, Note_on_c, 2, 72, 121
1, 270340, Note_off_c, 2, 75, 64
1, 270340, Note_off_c, 2, 63, 100
1, 270344, Note_off_c, 4, 60, 100
1, 270345, Note_off_c, 2, 72, 64
1, 270347, Note_on_c, 2, 74, 117
1, 270347, Note_on_c, 2, 65, 127
1, 270348, Note_on_c, 4, 62, 127
1, 270350, Note_on_c, 2, 70, 127
1, 270529, Note_off_c, 2, 74, 64
1, 270531, Note_off_c, 2, 65, 100
1, 270531, Note_off_c, 4, 62, 100
1, 270535, Note_off_c, 2, 70, 64
1, 270536, Note_on_c, 2, 72, 117
1, 270540, Note_on_c, 2, 67, 127
1, 270540, Note_on_c, 2, 63, 127
1, 270723, Note_off_c, 2, 72, 100
1, 270727, Note_on_c, 2, 72, 117
1, 270775, Note_on_c, 2, 74, 113
1, 270782, Note_off_c, 2, 72, 100
1, 270823, Note_on_c, 2, 75, 111
1, 270828, Note_off_c, 2, 74, 100
1, 270865, Note_on_c, 2, 72, 117
1, 270871, Note_off_c, 2, 75, 100
1, 270910, Note_on_c, 1, 79, 108
1, 270915, Note_off_c, 2, 72, 100
1, 271093, Note_off_c, 2, 67, 100
1, 271098, Note_off_c, 1, 79, 100
1, 271098, Note_on_c, 2, 72, 117
1, 271100, Note_off_c, 2, 63, 100
1, 271101, Note_on_c, 4, 60, 127
1, 271104, Note_on_c, 2, 67, 127
1, 271104, Note_on_c, 4, 51, 127
1, 271294, Note_on_c, 2, 70, 125
1, 271296, Note_on_c, 4, 62, 127
1, 271297, Note_on_c, 2, 65, 127
1, 271297, Note_on_c, 4, 53, 127
1, 271310, Note_off_c, 2, 72, 100
1, 271312, Note_off_c, 4, 60, 100
1, 271313, Note_off_c, 4, 51, 100
1, 271314, Note_off_c, 2, 67, 100
1, 271488, Note_on_c, 2, 72, 117
1, 271491, Note_on_c, 2, 69, 125
1, 271492, Note_on_c, 2, 63, 127
1, 271504, Note_off_c, 2, 70, 100
1, 271508, Note_off_c, 4, 62, 100
1, 271508, Note_off_c, 2, 65, 100
1, 271662, Note_off_c, 2, 72, 100
1, 271664, Note_off_c, 2, 63, 100
1, 271665, Note_off_c, 2, 69, 100
1, 271669, Note_on_c, 2, 72, 117
1, 271671, Note_on_c, 2, 69, 125
1, 271671, Note_on_c, 2, 63, 127
1, 271674, Note_off_c, 4, 53, 100
1, 271674, Note_on_c, 4, 58, 127
1, 271947, Note_off_c, 2, 72, 100
1, 271948, Note_on_c, 2, 73, 118
1, 272035, Note_off_c, 4, 58, 100
1, 272040, Note_on_c, 2, 74, 121
1, 272041, Note_on_c, 4, 62, 127
1, 272041, Note_on_c, 4, 58, 127
1, 272044, Note_off_c, 2, 63, 100
1, 272045, Note_off_c, 2, 69, 100
1, 272045, Note_on_c, 2, 70, 127
1, 272049, Note_off_c, 2, 73, 100
1, 272132, Note_off_c, 4, 58, 100
1, 272139, Note_on_c, 4, 58, 127
1, 272226, Note_off_c, 2, 74, 100
1, 272226, Note_off_c, 4, 62, 100
1, 272228, Note_off_c, 2, 70, 100
1, 272232, Note_on_c, 2, 77, 112
1, 272233, Note_on_c, 4, 62, 127
1, 272237, Note_on_c, 2, 70, 127
1, 272244, Note_off_c, 4, 58, 100
1, 272323, Note_on_c, 2, 65, 127
1, 272332, Note_off_c, 4, 62, 100
1, 272403, Note_off_c, 2, 77, 100
1, 272415, Note_on_c, 2, 77, 112
1, 272415, Note_on_c, 2, 63, 127
1, 272418, Note_on_c, 2, 72, 121
1, 272425, Note_off_c, 2, 65, 100
1, 272435, Note_off_c, 2, 70, 100
1, 272506, Note_on_c, 4, 62, 127
1, 272516, Note_off_c, 2, 63, 100
1, 272585, Note_off_c, 2, 77, 100
1, 272594, Note_on_c, 2, 77, 112
1, 272595, Note_on_c, 2, 74, 117
1, 272595, Note_on_c, 4, 60, 127
1, 272603, Note_off_c, 4, 62, 100
1, 272611, Note_off_c, 2, 72, 100
1, 272686, Note_on_c, 4, 58, 127
1, 272697, Note_off_c, 4, 60, 100
1, 272772, Note_off_c, 2, 77, 100
1, 272780, Note_off_c, 2, 74, 100
1, 272784, Note_on_c, 2, 77, 112
1, 272784, Note_on_c, 2, 75, 115
1, 272784, Note_on_c, 4, 57, 127
1, 272794, Note_off_c, 4, 58, 100
1, 272881, Note_on_c, 4, 60, 127
1, 272890, Note_off_c, 4, 57, 100
1, 272969, Note_off_c, 2, 77, 100
1, 272971, Note_off_c, 2, 75, 100
1, 272977, Note_on_c, 2, 77, 112
1, 272977, Note_on_c, 2, 63, 127
1, 272985, Note_off_c, 4, 60, 100
1, 273024, Note_on_c, 1, 79, 108
1, 273029, Note_off_c, 2, 77, 100
1, 273073, Note_on_c, 2, 77, 112
1, 273073, Note_on_c, 4, 62, 127
1, 273078, Note_off_c, 1, 79, 100
1, 273081, Note_off_c, 2, 63, 100
1, 273118, Note_on_c, 2, 76, 112
1, 273123, Note_off_c, 2, 77, 100
1, 273164, Note_on_c, 2, 77, 112
1, 273165, Note_on_c, 4, 60, 127
1, 273170, Note_off_c, 2, 76, 100
1, 273174, Note_off_c, 4, 62, 100
1, 273259, Note_on_c, 4, 58, 127
1, 273268, Note_off_c, 4, 60, 100
1, 273345, Note_off_c, 2, 77, 100
1, 273355, Note_on_c, 2, 77, 112
1, 273356, Note_on_c, 2, 69, 127
1, 273356, Note_on_c, 4, 57, 127
1, 273363, Note_off_c, 4, 58, 100
1, 273448, Note_on_c, 4, 55, 127
1, 273456, Note_off_c, 4, 57, 100
1, 273540, Note_on_c, 1, 79, 108
1, 273541, Note_on_c, 2, 70, 127
1, 273541, Note_on_c, 4, 53, 127
1, 273549, Note_off_c, 4, 55, 100
1, 273557, Note_off_c, 2, 77, 100
1, 273557, Note_off_c, 2, 69, 100
1, 273633, Note_on_c, 4, 55, 127
1, 273642, Note_off_c, 4, 53, 100
1, 273725, Note_on_c, 1, 81, 108
1, 273725, Note_on_c, 4, 51, 127
1, 273726, Note_on_c, 2, 72, 121
1, 273733, Note_off_c, 4, 55, 100
1, 273741, Note_off_c, 1, 79, 100
1, 273742, Note_off_c, 2, 70, 100
1, 273817, Note_on_c, 4, 53, 127
1, 273827, Note_off_c, 4, 51, 100
1, 273903, Note_off_c, 1, 81, 100
1, 273909, Note_on_c, 1, 82, 108
1, 273910, Note_on_c, 4, 50, 127
1, 273912, Note_on_c, 2, 70, 127
1, 273920, Note_off_c, 4, 53, 100
1, 273927, Note_off_c, 2, 72, 100
1, 274006, Note_on_c, 4, 53, 127
1, 274016, Note_off_c, 4, 50, 100
1, 274096, Note_off_c, 1, 82, 100
1, 274102, Note_on_c, 1, 82, 108
1, 274103, Note_on_c, 4, 58, 127
1, 274111, Note_off_c, 4, 53, 100
1, 274149, Note_on_c, 1, 84, 113
1, 274166, Note_off_c, 1, 82, 100
1, 274197, Note_on_c, 1, 86, 117
1, 274198, Note_on_c, 4, 53, 127
1, 274208, Note_off_c, 4, 58, 100
1, 274213, Note_off_c, 1, 84, 100
1, 274246, Note_on_c, 1, 82, 108
1, 274261, Note_off_c, 1, 86, 100
1, 274290, Note_on_c, 2, 77, 112
1, 274291, Note_on_c, 4, 62, 127
1, 274299, Note_off_c, 4, 53, 100
1, 274307, Note_off_c, 1, 82, 100
1, 274474, Note_off_c, 2, 77, 100
1, 274474, Note_off_c, 4, 62, 100
1, 274478, Note_on_c, 2, 77, 112
1, 274480, Note_on_c, 4, 62, 127
1, 274482, Note_on_c, 4, 58, 127
1, 274483, Note_on_c, 2, 74, 117
1, 274659, Note_off_c, 2, 77, 100
1, 274659, Note_off_c, 4, 62, 100
1, 274661, Note_off_c, 4, 58, 100
1, 274663, Note_off_c, 2, 74, 100
1, 274663, Note_on_c, 2, 75, 115
1, 274664, Note_off_c, 2, 70, 100
1, 274664, Note_on_c, 2, 63, 127
1, 274667, Note_on_c, 2, 72, 121
1, 274667, Note_on_c, 4, 60, 127
1, 274849, Note_off_c, 2, 75, 100
1, 274851, Note_off_c, 2, 63, 100
1, 274853, Note_off_c, 4, 60, 100
1, 274855, Note_off_c, 2, 72, 100
1, 274855, Note_on_c, 2, 74, 113
1, 274858, Note_on_c, 2, 65, 127
1, 274858, Note_on_c, 4, 62, 127
1, 274860, Note_on_c, 2, 70, 127
1, 275054, Note_off_c, 2, 74, 100
1, 275058, Note_off_c, 4, 62, 100
1, 275059, Note_off_c, 2, 65, 100
1, 275059, Note_off_c, 2, 70, 100
1, 275060, Note_on_c, 2, 63, 127
1, 275060, Note_on_c, 2, 71, 126
1, 275062, Note_on_c, 2, 67, 127
1, 275116, Note_on_c, 2, 72, 121
1, 275124, Note_off_c, 2, 71, 100
1, 275168, Note_on_c, 2, 74, 113
1, 275175, Note_off_c, 2, 72, 100
1, 275220, Note_on_c, 2, 72, 121
1, 275225, Note_off_c, 2, 74, 100
1, 275268, Note_on_c, 2, 75, 111
1, 275274, Note_off_c, 2, 72, 100
1, 275317, Note_on_c, 2, 74, 113
1, 275323, Note_off_c, 2, 75, 100
1, 275366, Note_on_c, 2, 77, 108
1, 275371, Note_off_c, 2, 74, 100
1, 275412, Note_on_c, 2, 75, 111
1, 275419, Note_off_c, 2, 77, 100
1, 275460, Note_on_c, 1, 79, 108
1, 275465, Note_off_c, 2, 75, 100
1, 275767, Note_off_c, 2, 63, 100
1, 275769, Note_off_c, 2, 67, 100
1, 275783, Note_off_c, 1, 79, 100
1, 275783, Note_on_c, 2, 75, 119
1, 275784, Note_on_c, 2, 63, 127
1, 275784, Note_on_c, 4, 57, 127
1, 275784, Note_on_c, 4, 53, 127
1, 275963, Note_on_c, 4, 60, 127
1, 275980, Note_off_c, 4, 57, 100
1, 275982, Note_off_c, 4, 53, 100
1, 275983, Note_off_c, 2, 63, 100
1, 276077, Note_off_c, 2, 75, 100
1, 276110, Note_on_c, 2, 69, 127
1, 276158, Note_off_c, 4, 60, 100
1, 276162, Note_on_c, 2, 70, 127
1, 276162, Note_on_c, 4, 58, 127
1, 276168, Note_off_c, 2, 69, 100
1, 276264, Note_on_c, 4, 62, 127
1, 276276, Note_off_c, 4, 58, 100
1, 276372, Note_on_c, 2, 65, 127
1, 276382, Note_off_c, 4, 62, 100
1, 276476, Note_on_c, 4, 62, 127
1, 276487, Note_off_c, 2, 65, 100
1, 276572, Note_on_c, 4, 58, 127
1, 276583, Note_off_c, 4, 62, 100
1, 276679, Note_on_c, 4, 62, 127
1, 276689, Note_off_c, 4, 58, 100
1, 276777, Note_off_c, 2, 70, 100
1, 276778, Note_on_c, 1, 80, 114
1, 276778, Note_on_c, 2, 65, 127
1, 276786, Note_off_c, 4, 62, 100
1, 276868, Note_on_c, 4, 62, 127
1, 276878, Note_off_c, 2, 65, 100
1, 276961, Note_on_c, 1, 79, 114
1, 276963, Note_on_c, 2, 63, 127
1, 276971, Note_off_c, 4, 62, 100
1, 276979, Note_off_c, 1, 80, 100
1, 277057, Note_on_c, 4, 60, 127
1, 277069, Note_off_c, 2, 63, 100
1, 277148, Note_on_c, 1, 81, 114
1, 277150, Note_on_c, 2, 65, 127
1, 277157, Note_off_c, 4, 60, 100
1, 277163, Note_off_c, 1, 79, 100
1, 277238, Note_on_c, 2, 63, 127
1, 277251, Note_off_c, 2, 65, 100
1, 277342, Note_on_c, 1, 84, 119
1, 277342, Note_on_c, 4, 62, 127
1, 277350, Note_off_c, 2, 63, 100
1, 277358, Note_off_c, 1, 81, 100
1, 277442, Note_on_c, 2, 65, 127
1, 277452, Note_off_c, 4, 62, 100
1, 277533, Note_on_c, 1, 82, 114
1, 277535, Note_on_c, 4, 62, 127
1, 277542, Note_off_c, 2, 65, 100
1, 277547, Note_off_c, 1, 84, 100
1, 277623, Note_on_c, 4, 60, 127
1, 277637, Note_off_c, 4, 62, 100
1, 277734, Note_on_c, 4, 58, 127
1, 277743, Note_off_c, 4, 60, 100
1, 277832, Note_on_c, 4, 56, 127
1, 277840, Note_off_c, 4, 58, 100
1, 277923, Note_off_c, 1, 82, 100
1, 277923, Note_on_c, 2, 68, 127
1, 277924, Note_on_c, 4, 53, 127
1, 277933, Note_off_c, 4, 56, 100
1, 278020, Note_on_c, 4, 50, 127
1, 278027, Note_off_c, 4, 53, 100
1, 278112, Note_on_c, 2, 67, 127
1, 278112, Note_on_c, 4, 51, 127
1, 278120, Note_off_c, 4, 50, 100
1, 278128, Note_off_c, 2, 68, 100
1, 278211, Note_on_c, 4, 48, 127
1, 278222, Note_off_c, 4, 51, 100
1, 278318, Note_on_c, 2, 69, 127
1, 278319, Note_on_c, 2, 63, 127
1, 278319, Note_on_c, 4, 53, 127
1, 278327, Note_off_c, 4, 48, 100
1, 278335, Note_off_c, 2, 67, 100
1, 278419, Note_on_c, 4, 41, 127
1, 278429, Note_off_c, 4, 53, 100
1, 278513, Note_off_c, 2, 63, 100
1, 278517, Note_on_c, 2, 72, 125
1, 278518, Note_on_c, 4, 46, 127
1, 278518, Note_on_c, 2, 63, 127
1, 278529, Note_off_c, 4, 41, 100
1, 278536, Note_off_c, 2, 69, 100
1, 278916, Note_off_c, 2, 63, 100
1, 278917, Note_off_c, 2, 72, 100
1, 278917, Note_on_c, 2, 70, 127
1, 278918, Note_on_c, 4, 62, 127
1, 279112, Note_off_c, 4, 62, 100
1, 279118, Note_on_c, 2, 65, 127
1, 279119, Note_on_c, 4, 62, 127
1, 279119, Note_on_c, 4, 56, 127
1, 279132, Note_off_c, 2, 70, 100
1, 279328, Note_on_c, 2, 67, 127
1, 279329, Note_on_c, 2, 63, 127
1, 279329, Note_on_c, 4, 55, 127
1, 279345, Note_off_c, 4, 56, 100
1, 279345, Note_off_c, 4, 62, 100
1, 279346, Note_off_c, 2, 65, 100
1, 279530, Note_on_c, 2, 68, 127
1, 279530, Note_on_c, 2, 65, 127
1, 279531, Note_on_c, 4, 53, 127
1, 279549, Note_off_c, 4, 55, 100
1, 279549, Note_off_c, 2, 63, 100
1, 279550, Note_off_c, 2, 67, 100
1, 279744, Note_off_c, 2, 65, 100
1, 279744, Note_off_c, 4, 53, 100
1, 279745, Note_off_c, 2, 68, 100
1, 279745, Note_off_c, 4, 46, 100
1, 279746, Note_on_c, 4, 51, 127
1, 279746, Note_on_c, 2, 70, 127
1, 279749, Note_on_c, 2, 67, 127
1, 280137, Note_off_c, 2, 70, 100
1, 280138, Note_on_c, 2, 68, 127
1, 280138, Note_on_c, 2, 65, 127
1, 280139, Note_off_c, 2, 67, 100
1, 280331, Note_on_c, 2, 67, 127
1, 280332, Note_on_c, 2, 63, 127
1, 280349, Note_off_c, 2, 65, 100
1, 280350, Note_off_c, 2, 68, 100
1, 280538, Note_on_c, 2, 72, 127
1, 280539, Note_on_c, 2, 68, 127
1, 280557, Note_off_c, 2, 63, 100
1, 280557, Note_off_c, 2, 67, 100
1, 280727, Note_on_c, 2, 70, 127
1, 280727, Note_on_c, 2, 67, 127
1, 280742, Note_off_c, 2, 72, 100
1, 280742, Note_off_c, 2, 68, 100
1, 280900, Note_off_c, 4, 51, 100
1, 280908, Note_off_c, 2, 70, 100
1, 280910, Note_off_c, 2, 67, 100
1, 280914, Note_on_c, 2, 70, 127
1, 280914, Note_on_c, 4, 51, 127
1, 280918, Note_on_c, 2, 67, 127
1, 281258, Note_off_c, 2, 70, 100
1, 281259, Note_off_c, 4, 51, 100
1, 281259, Note_on_c, 2, 68, 127
1, 281260, Note_off_c, 2, 67, 100
1, 281260, Note_on_c, 4, 53, 127
1, 281261, Note_on_c, 2, 65, 127
1, 281616, Note_off_c, 2, 68, 100
1, 281617, Note_off_c, 4, 53, 100
1, 281617, Note_on_c, 2, 67, 127
1, 281618, Note_off_c, 2, 65, 100
1, 281618, Note_on_c, 4, 55, 127
1, 281619, Note_on_c, 2, 63, 127
1, 281982, Note_off_c, 2, 67, 100
1, 281983, Note_off_c, 4, 55, 100
1, 281983, Note_on_c, 3, 64, 127
1, 281984, Note_off_c, 2, 63, 100
1, 281984, Note_on_c, 4, 58, 127
1, 281985, Note_on_c, 3, 61, 127
1, 282325, Note_off_c, 3, 64, 100
1, 282325, Note_on_c, 3, 65, 127
1, 282326, Note_off_c, 4, 58, 100
1, 282326, Note_on_c, 4, 56, 127
1, 282329, Note_off_c, 3, 61, 100
1, 282484, Note_on_c, 2, 72, 127
1, 282499, Note_off_c, 3, 65, 100
1, 282643, Note_off_c, 2, 72, 100
1, 282657, Note_on_c, 2, 70, 127
1, 282732, Note_on_c, 2, 68, 127
1, 282740, Note_off_c, 2, 70, 100
1, 282811, Note_on_c, 2, 67, 127
1, 282819, Note_off_c, 2, 68, 100
1, 282896, Note_on_c, 2, 65, 127
1, 282903, Note_off_c, 2, 67, 100
1, 282976, Note_on_c, 2, 63, 127
1, 282978, Note_off_c, 4, 56, 100
1, 282978, Note_on_c, 4, 45, 127
1, 282981, Note_on_c, 4, 55, 127
1, 282987, Note_off_c, 2, 65, 100
1, 283070, Note_on_c, 4, 46, 127
1, 283080, Note_off_c, 4, 45, 100
1, 283143, Note_on_c, 4, 48, 127
1, 283151, Note_off_c, 4, 46, 100
1, 283234, Note_on_c, 4, 46, 127
1, 283243, Note_off_c, 4, 48, 100
1, 283310, Note_off_c, 4, 55, 100
1, 283316, Note_off_c, 4, 46, 100
1, 283324, Note_off_c, 2, 63, 100
1, 283324, Note_on_c, 4, 62, 127
1, 283325, Note_on_c, 4, 55, 127
1, 283325, Note_on_c, 4, 46, 127
1, 283449, Note_off_c, 4, 62, 100
1, 283468, Note_on_c, 4, 58, 127
1, 283527, Note_on_c, 4, 62, 127
1, 283531, Note_off_c, 4, 58, 100
1, 283568, Note_on_c, 4, 60, 127
1, 283573, Note_off_c, 4, 62, 100
1, 283623, Note_on_c, 2, 63, 127
1, 283631, Note_off_c, 4, 60, 100
1, 283668, Note_on_c, 4, 62, 127
1, 283673, Note_off_c, 2, 63, 100
1, 283721, Note_on_c, 2, 65, 127
1, 283725, Note_off_c, 4, 62, 100
1, 283762, Note_on_c, 2, 63, 127
1, 283769, Note_off_c, 2, 65, 100
1, 283817, Note_on_c, 2, 67, 127
1, 283823, Note_off_c, 2, 63, 100
1, 283863, Note_on_c, 2, 65, 127
1, 283869, Note_off_c, 2, 67, 100
1, 283913, Note_on_c, 2, 68, 127
1, 283919, Note_off_c, 2, 65, 100
1, 283956, Note_on_c, 2, 67, 127
1, 283963, Note_off_c, 2, 68, 100
1, 284013, Note_on_c, 2, 70, 127
1, 284021, Note_off_c, 2, 67, 100
1, 284057, Note_on_c, 2, 68, 127
1, 284065, Note_off_c, 2, 70, 100
1, 284110, Note_on_c, 2, 72, 125
1, 284111, Note_off_c, 4, 46, 100
1, 284111, Note_on_c, 4, 39, 127
1, 284114, Note_off_c, 4, 55, 100
1, 284114, Note_on_c, 4, 51, 127
1, 284117, Note_off_c, 2, 68, 100
1, 284201, Note_on_c, 2, 70, 127
1, 284232, Note_off_c, 2, 72, 100
1, 284391, Note_off_c, 2, 70, 100
1, 284392, Note_on_c, 2, 72, 125
1, 284433, Note_on_c, 2, 70, 127
1, 284438, Note_off_c, 2, 72, 100
1, 284477, Note_on_c, 2, 68, 127
1, 284483, Note_off_c, 2, 70, 100
1, 284566, Note_on_c, 2, 67, 127
1, 284575, Note_off_c, 2, 68, 100
1, 284659, Note_on_c, 2, 65, 127
1, 284668, Note_off_c, 2, 67, 100
1, 284752, Note_on_c, 2, 63, 127
1, 284762, Note_off_c, 2, 65, 100
1, 284833, Note_off_c, 4, 51, 100
1, 284847, Note_on_c, 4, 60, 127
1, 284847, Note_on_c, 4, 51, 127
1, 284847, Note_on_c, 1, 79, 114
1, 284855, Note_off_c, 2, 63, 100
1, 284950, Note_on_c, 2, 74, 123
1, 284957, Note_off_c, 1, 79, 100
1, 285034, Note_on_c, 2, 75, 121
1, 285045, Note_off_c, 2, 74, 100
1, 285120, Note_on_c, 2, 72, 125
1, 285130, Note_off_c, 2, 75, 100
1, 285199, Note_off_c, 4, 51, 100
1, 285199, Note_off_c, 4, 60, 100
1, 285212, Note_on_c, 2, 70, 127
1, 285212, Note_on_c, 4, 60, 127
1, 285213, Note_off_c, 4, 39, 100
1, 285213, Note_on_c, 4, 51, 127
1, 285219, Note_off_c, 2, 72, 100
1, 285584, Note_off_c, 4, 60, 100
1, 285585, Note_off_c, 2, 70, 100
1, 285585, Note_on_c, 2, 68, 127
1, 285586, Note_on_c, 4, 62, 127
1, 285586, Note_on_c, 4, 58, 127
1, 285621, Note_on_c, 2, 70, 127
1, 285630, Note_off_c, 2, 68, 64
1, 285651, Note_on_c, 2, 68, 127
1, 285661, Note_off_c, 2, 70, 64
1, 285682, Note_on_c, 2, 70, 127
1, 285692, Note_off_c, 2, 68, 64
1, 285713, Note_on_c, 2, 68, 127
1, 285722, Note_off_c, 2, 70, 64
1, 285742, Note_on_c, 2, 70, 127
1, 285753, Note_off_c, 2, 68, 64
1, 285772, Note_on_c, 2, 68, 127
1, 285783, Note_off_c, 2, 70, 64
1, 285802, Note_on_c, 2, 70, 127
1, 285810, Note_off_c, 2, 68, 64
1, 285829, Note_on_c, 2, 68, 127
1, 285839, Note_off_c, 2, 70, 64
1, 285858, Note_on_c, 2, 70, 127
1, 285865, Note_off_c, 2, 68, 64
1, 285881, Note_on_c, 2, 68, 127
1, 285890, Note_off_c, 2, 70, 64
1, 285929, Note_on_c, 2, 67, 127
1, 285935, Note_off_c, 2, 68, 64
1, 285975, Note_on_c, 2, 68, 127
1, 285981, Note_off_c, 2, 67, 100
1, 286021, Note_off_c, 4, 58, 100
1, 286021, Note_off_c, 4, 62, 100
1, 286022, Note_on_c, 2, 63, 127
1, 286022, Note_on_c, 2, 67, 127
1, 286023, Note_on_c, 4, 60, 127
1, 286027, Note_off_c, 2, 68, 100
1, 286104, Note_on_c, 2, 75, 121
1, 286111, Note_off_c, 2, 67, 100
1, 286201, Note_on_c, 2, 74, 123
1, 286213, Note_off_c, 2, 75, 100
1, 286294, Note_on_c, 2, 73, 127
1, 286305, Note_off_c, 2, 74, 100
1, 286386, Note_off_c, 2, 63, 100
1, 286386, Note_off_c, 4, 60, 100
1, 286387, Note_off_c, 4, 51, 100
1, 286387, Note_on_c, 2, 71, 127
1, 286388, Note_on_c, 4, 56, 127
1, 286388, Note_on_c, 4, 44, 127
1, 286396, Note_off_c, 2, 73, 100
1, 286454, Note_on_c, 2, 74, 123
1, 286473, Note_off_c, 2, 71, 100
1, 286490, Note_on_c, 2, 72, 125
1, 286512, Note_off_c, 2, 74, 100
1, 286558, Note_on_c, 2, 70, 127
1, 286577, Note_off_c, 2, 72, 100
1, 286592, Note_on_c, 2, 68, 127
1, 286615, Note_off_c, 2, 70, 100
1, 286659, Note_on_c, 2, 67, 127
1, 286677, Note_off_c, 2, 68, 100
1, 286694, Note_on_c, 2, 65, 127
1, 286715, Note_off_c, 2, 67, 100
1, 286786, Note_off_c, 4, 44, 100
1, 286787, Note_off_c, 4, 56, 100
1, 286787, Note_on_c, 2, 63, 127
1, 286788, Note_on_c, 4, 46, 127
1, 286788, Note_on_c, 4, 55, 127
1, 286794, Note_off_c, 2, 65, 100
1, 287143, Note_off_c, 4, 55, 100
1, 287143, Note_on_c, 4, 56, 127
1, 287322, Note_off_c, 2, 63, 64
1, 287328, Note_on_c, 2, 67, 127
1, 287443, Note_on_c, 2, 65, 127
1, 287452, Note_off_c, 2, 67, 100
1, 287543, Note_off_c, 4, 56, 100
1, 287544, Note_off_c, 4, 46, 100
1, 287544, Note_on_c, 2, 63, 127
1, 287544, Note_on_c, 4, 51, 127
1, 287554, Note_off_c, 2, 65, 100
1, 287647, Note_on_c, 4, 55, 127
1, 287658, Note_off_c, 4, 51, 100
1, 287750, Note_on_c, 4, 58, 127
1, 287760, Note_off_c, 4, 55, 100
1, 287843, Note_on_c, 4, 55, 127
1, 287854, Note_off_c, 4, 58, 100
1, 287948, Note_on_c, 4, 51, 127
1, 287956, Note_off_c, 4, 55, 100
1, 288046, Note_on_c, 4, 55, 127
1, 288056, Note_off_c, 4, 51, 100
1, 288140, Note_off_c, 2, 63, 100
1, 288141, Note_on_c, 2, 70, 127
1, 288141, Note_on_c, 2, 67, 127
1, 288142, Note_on_c, 4, 58, 127
1, 288150, Note_off_c, 4, 55, 100
1, 288234, Note_on_c, 4, 55, 127
1, 288244, Note_off_c, 4, 58, 100
1, 288326, Note_off_c, 2, 67, 100
1, 288327, Note_off_c, 2, 70, 100
1, 288333, Note_on_c, 2, 70, 127
1, 288334, Note_on_c, 2, 67, 127
1, 288334, Note_on_c, 4, 51, 127
1, 288344, Note_off_c, 4, 55, 100
1, 288429, Note_on_c, 4, 55, 127
1, 288439, Note_off_c, 4, 51, 100
1, 288519, Note_off_c, 2, 67, 100
1, 288520, Note_off_c, 2, 70, 100
1, 288524, Note_on_c, 2, 70, 127
1, 288525, Note_on_c, 2, 67, 127
1, 288525, Note_on_c, 4, 58, 127
1, 288535, Note_off_c, 4, 55, 100
1, 288625, Note_on_c, 4, 55, 127
1, 288635, Note_off_c, 4, 58, 100
1, 288717, Note_off_c, 2, 67, 100
1, 288718, Note_off_c, 2, 70, 100
1, 288724, Note_on_c, 2, 68, 127
1, 288724, Note_on_c, 2, 75, 121
1, 288725, Note_on_c, 4, 51, 127
1, 288734, Note_off_c, 4, 55, 100
1, 288819, Note_on_c, 4, 53, 127
1, 288827, Note_off_c, 4, 51, 100
1, 288915, Note_off_c, 2, 75, 100
1, 288915, Note_on_c, 2, 74, 123
1, 288916, Note_on_c, 4, 56, 127
1, 288924, Note_off_c, 4, 53, 100
1, 289010, Note_on_c, 4, 53, 127
1, 289021, Note_off_c, 4, 56, 100
1, 289117, Note_on_c, 4, 51, 127
1, 289127, Note_off_c, 4, 53, 100
1, 289213, Note_on_c, 4, 53, 127
1, 289223, Note_off_c, 4, 51, 100
1, 289308, Note_off_c, 2, 74, 100
1, 289309, Note_on_c, 1, 82, 114
1, 289309, Note_on_c, 4, 56, 127
1, 289319, Note_off_c, 4, 53, 100
1, 289404, Note_on_c, 1, 80, 114
1, 289404, Note_on_c, 4, 53, 127
1, 289413, Note_off_c, 4, 56, 100
1, 289413, Note_off_c, 1, 82, 100
1, 289497, Note_on_c, 1, 79, 114
1, 289498, Note_on_c, 4, 51, 127
1, 289505, Note_off_c, 4, 53, 100
1, 289506, Note_off_c, 1, 80, 100
1, 289589, Note_on_c, 2, 77, 118
1, 289590, Note_on_c, 4, 53, 127
1, 289599, Note_off_c, 4, 51, 100
1, 289600, Note_off_c, 1, 79, 100
1, 289681, Note_on_c, 2, 75, 121
1, 289682, Note_on_c, 4, 56, 127
1, 289690, Note_off_c, 2, 77, 100
1, 289690, Note_off_c, 4, 53, 100
1, 289772, Note_on_c, 2, 74, 123
1, 289772, Note_on_c, 4, 53, 127
1, 289782, Note_off_c, 4, 56, 100
1, 289782, Note_off_c, 2, 75, 100
1, 289864, Note_on_c, 2, 77, 106
1, 289864, Note_on_c, 4, 51, 127
1, 289876, Note_off_c, 4, 53, 100
1, 289876, Note_off_c, 2, 74, 100
1, 289944, Note_off_c, 2, 77, 100
1, 289952, Note_on_c, 2, 75, 113
1, 289979, Note_off_c, 2, 75, 64
1, 289980, Note_on_c, 2, 77, 106
1, 289980, Note_on_c, 4, 55, 127
1, 289989, Note_off_c, 4, 51, 100
1, 290004, Note_off_c, 2, 77, 64
1, 290005, Note_on_c, 2, 75, 113
1, 290033, Note_off_c, 2, 75, 64
1, 290033, Note_on_c, 2, 77, 106
1, 290057, Note_off_c, 2, 77, 64
1, 290057, Note_on_c, 2, 75, 113
1, 290083, Note_off_c, 2, 75, 64
1, 290083, Note_on_c, 2, 77, 106
1, 290084, Note_on_c, 4, 58, 127
1, 290093, Note_off_c, 4, 55, 100
1, 290108, Note_off_c, 2, 77, 64
1, 290109, Note_on_c, 2, 75, 113
1, 290135, Note_off_c, 2, 75, 64
1, 290135, Note_on_c, 2, 77, 106
1, 290160, Note_off_c, 2, 77, 64
1, 290160, Note_on_c, 2, 75, 113
1, 290183, Note_off_c, 2, 75, 64
1, 290183, Note_on_c, 2, 74, 115
1, 290184, Note_on_c, 4, 55, 127
1, 290191, Note_off_c, 4, 58, 100
1, 290212, Note_off_c, 2, 68, 100
1, 290224, Note_off_c, 2, 74, 64
1, 290228, Note_on_c, 2, 72, 125
1, 290272, Note_off_c, 2, 72, 100
1, 290278, Note_on_c, 2, 70, 127
1, 290278, Note_on_c, 4, 51, 127
1, 290288, Note_off_c, 4, 55, 100
1, 290380, Note_on_c, 4, 55, 127
1, 290392, Note_off_c, 4, 51, 100
1, 290462, Note_off_c, 2, 70, 100
1, 290475, Note_on_c, 2, 70, 127
1, 290476, Note_on_c, 2, 67, 127
1, 290476, Note_on_c, 4, 58, 127
1, 290486, Note_off_c, 4, 55, 100
1, 290576, Note_on_c, 4, 55, 127
1, 290586, Note_off_c, 4, 58, 100
1, 290655, Note_off_c, 2, 70, 100
1, 290655, Note_off_c, 2, 67, 100
1, 290671, Note_on_c, 2, 70, 127
1, 290672, Note_on_c, 2, 67, 127
1, 290672, Note_on_c, 4, 51, 127
1, 290680, Note_off_c, 4, 55, 100
1, 290764, Note_on_c, 4, 55, 127
1, 290776, Note_off_c, 4, 51, 100
1, 290849, Note_off_c, 2, 67, 100
1, 290849, Note_off_c, 2, 70, 100
1, 290864, Note_on_c, 2, 70, 127
1, 290864, Note_on_c, 2, 67, 127
1, 290865, Note_on_c, 4, 58, 127
1, 290871, Note_off_c, 4, 55, 100
1, 290967, Note_on_c, 4, 55, 127
1, 290976, Note_off_c, 4, 58, 100
1, 291053, Note_off_c, 2, 67, 100
1, 291054, Note_off_c, 2, 70, 100
1, 291068, Note_on_c, 2, 68, 127
1, 291068, Note_on_c, 2, 75, 121
1, 291069, Note_on_c, 4, 51, 127
1, 291078, Note_off_c, 4, 55, 100
1, 291165, Note_on_c, 4, 53, 127
1, 291174, Note_off_c, 4, 51, 100
1, 291263, Note_off_c, 2, 75, 100
1, 291263, Note_on_c, 2, 74, 123
1, 291264, Note_on_c, 4, 56, 127
1, 291269, Note_off_c, 4, 53, 100
1, 291360, Note_on_c, 4, 53, 127
1, 291371, Note_off_c, 4, 56, 100
1, 291457, Note_on_c, 4, 51, 127
1, 291467, Note_off_c, 4, 53, 100
1, 291556, Note_on_c, 4, 53, 127
1, 291565, Note_off_c, 4, 51, 100
1, 291646, Note_off_c, 2, 74, 100
1, 291646, Note_on_c, 1, 82, 114
1, 291647, Note_on_c, 4, 56, 127
1, 291655, Note_off_c, 4, 53, 100
1, 291743, Note_on_c, 1, 80, 114
1, 291743, Note_on_c, 4, 53, 127
1, 291753, Note_off_c, 4, 56, 100
1, 291754, Note_off_c, 1, 82, 100
1, 291833, Note_on_c, 1, 79, 114
1, 291834, Note_on_c, 4, 51, 127
1, 291841, Note_off_c, 4, 53, 100
1, 291842, Note_off_c, 1, 80, 100
1, 291927, Note_on_c, 2, 77, 118
1, 291928, Note_on_c, 4, 53, 127
1, 291936, Note_off_c, 1, 79, 100
1, 291936, Note_off_c, 4, 51, 100
1, 292021, Note_on_c, 2, 75, 121
1, 292022, Note_on_c, 4, 56, 127
1, 292032, Note_off_c, 4, 53, 100
1, 292032, Note_off_c, 2, 77, 100
1, 292116, Note_on_c, 2, 74, 123
1, 292116, Note_on_c, 4, 53, 127
1, 292124, Note_off_c, 2, 75, 100
1, 292124, Note_off_c, 4, 56, 100
1, 292206, Note_off_c, 2, 68, 100
1, 292206, Note_on_c, 2, 75, 117
1, 292207, Note_on_c, 4, 51, 127
1, 292208, Note_on_c, 4, 55, 127
1, 292216, Note_off_c, 4, 53, 100
1, 292216, Note_off_c, 2, 74, 100
1, 292258, Note_on_c, 2, 77, 114
1, 292292, Note_off_c, 2, 75, 100
1, 292309, Note_on_c, 2, 75, 113
1, 292317, Note_off_c, 2, 77, 100
1, 292357, Note_on_c, 2, 74, 115
1, 292363, Note_off_c, 2, 75, 100
1, 292404, Note_on_c, 2, 75, 113
1, 292411, Note_off_c, 2, 74, 100
1, 292452, Note_on_c, 2, 77, 110
1, 292459, Note_off_c, 2, 75, 100
1, 292500, Note_on_c, 1, 79, 106
1, 292505, Note_off_c, 2, 77, 100
1, 292544, Note_on_c, 2, 75, 113
1, 292549, Note_off_c, 1, 79, 100
1, 292584, Note_on_c, 2, 70, 127
1, 292590, Note_off_c, 2, 75, 100
1, 292753, Note_off_c, 4, 55, 100
1, 292761, Note_off_c, 2, 70, 100
1, 292768, Note_on_c, 2, 70, 127
1, 292770, Note_off_c, 4, 51, 100
1, 292771, Note_on_c, 2, 67, 127
1, 292771, Note_on_c, 4, 58, 127
1, 292772, Note_on_c, 4, 55, 127
1, 292964, Note_off_c, 2, 70, 100
1, 292965, Note_off_c, 4, 58, 100
1, 292966, Note_off_c, 4, 55, 100
1, 292967, Note_off_c, 2, 67, 100
1, 292971, Note_on_c, 2, 68, 127
1, 292971, Note_on_c, 4, 60, 127
1, 292973, Note_on_c, 2, 65, 127
1, 292973, Note_on_c, 4, 56, 127
1, 293164, Note_off_c, 4, 60, 100
1, 293164, Note_off_c, 2, 68, 100
1, 293166, Note_off_c, 4, 56, 100
1, 293166, Note_off_c, 2, 65, 100
1, 293171, Note_on_c, 2, 67, 127
1, 293171, Note_on_c, 4, 60, 127
1, 293173, Note_on_c, 2, 63, 127
1, 293174, Note_on_c, 4, 57, 127
1, 293359, Note_off_c, 2, 67, 100
1, 293361, Note_off_c, 4, 60, 100
1, 293361, Note_off_c, 4, 57, 100
1, 293362, Note_off_c, 2, 63, 100
1, 293364, Note_on_c, 2, 70, 127
1, 293366, Note_on_c, 4, 58, 127
1, 293368, Note_on_c, 2, 63, 127
1, 293649, Note_off_c, 2, 70, 100
1, 293649, Note_on_c, 2, 67, 127
1, 293744, Note_on_c, 2, 65, 127
1, 293744, Note_on_c, 4, 62, 127
1, 293745, Note_off_c, 4, 58, 100
1, 293747, Note_off_c, 2, 63, 100
1, 293754, Note_off_c, 2, 67, 100
1, 293946, Note_on_c, 4, 58, 127
1, 294138, Note_on_c, 4, 53, 127
1, 294154, Note_off_c, 4, 58, 100
1, 294330, Note_on_c, 4, 50, 127
1, 294345, Note_off_c, 4, 53, 100
1, 294506, Note_off_c, 2, 65, 100
1, 294522, Note_off_c, 4, 62, 100
1, 294522, Note_on_c, 2, 65, 127
1, 294523, Note_on_c, 4, 46, 127
1, 294538, Note_off_c, 4, 50, 100
1, 294615, Note_on_c, 2, 77, 118
1, 294646, Note_off_c, 2, 65, 100
1, 294707, Note_on_c, 4, 50, 127
1, 294720, Note_off_c, 4, 46, 100
1, 294882, Note_on_c, 4, 53, 127
1, 294897, Note_off_c, 4, 50, 100
1, 295055, Note_off_c, 2, 77, 100
1, 295055, Note_on_c, 2, 75, 121
1, 295056, Note_on_c, 4, 58, 127
1, 295071, Note_off_c, 4, 53, 100
1, 295102, Note_on_c, 2, 74, 123
1, 295107, Note_off_c, 2, 75, 100
1, 295144, Note_on_c, 2, 72, 125
1, 295150, Note_off_c, 2, 74, 100
1, 295188, Note_on_c, 2, 70, 127
1, 295193, Note_off_c, 2, 72, 100
1, 295231, Note_on_c, 2, 69, 127
1, 295232, Note_on_c, 2, 63, 127
1, 295236, Note_off_c, 2, 70, 100
1, 295244, Note_off_c, 4, 58, 100
1, 295409, Note_off_c, 2, 63, 100
1, 295409, Note_off_c, 2, 69, 100
1, 295414, Note_on_c, 2, 70, 127
1, 295414, Note_on_c, 4, 62, 127
1, 295595, Note_off_c, 4, 62, 100
1, 295596, Note_off_c, 2, 70, 100
1, 295600, Note_on_c, 2, 72, 125
1, 295602, Note_on_c, 2, 63, 127
1, 295604, Note_on_c, 2, 69, 127
1, 295604, Note_on_c, 4, 60, 127
1, 295785, Note_on_c, 2, 75, 121
1, 295786, Note_on_c, 2, 70, 127
1, 295787, Note_on_c, 4, 58, 127
1, 295788, Note_on_c, 4, 62, 127
1, 295801, Note_off_c, 2, 72, 100
1, 295802, Note_off_c, 2, 63, 100
1, 295804, Note_off_c, 4, 60, 100
1, 295805, Note_off_c, 2, 69, 100
1, 295815, Note_off_c, 2, 75, 100
1, 295828, Note_on_c, 2, 74, 123
1, 295859, Note_off_c, 2, 74, 100
1, 295874, Note_on_c, 2, 72, 125
1, 295909, Note_off_c, 2, 72, 100
1, 295924, Note_on_c, 2, 74, 123
1, 295954, Note_off_c, 2, 74, 100
1, 295969, Note_on_c, 2, 75, 121
1, 295971, Note_on_c, 4, 60, 127
1, 295973, Note_on_c, 2, 72, 125
1, 295974, Note_on_c, 4, 57, 127
1, 295986, Note_off_c, 2, 70, 100
1, 295988, Note_off_c, 4, 58, 100
1, 295990, Note_off_c, 4, 62, 100
1, 296148, Note_on_c, 2, 65, 127
1, 296162, Note_off_c, 2, 75, 100
1, 296163, Note_off_c, 4, 60, 100
1, 296166, Note_off_c, 4, 57, 100
1, 296167, Note_off_c, 2, 72, 100
1, 296336, Note_off_c, 2, 65, 100
1, 296342, Note_on_c, 2, 65, 127
1, 296526, Note_off_c, 2, 65, 100
1, 296534, Note_on_c, 2, 65, 127
1, 296718, Note_off_c, 2, 65, 100
1, 296723, Note_on_c, 2, 75, 121
1, 296903, Note_on_c, 4, 53, 127
1, 297103, Note_on_c, 4, 57, 127
1, 297120, Note_off_c, 4, 53, 100
1, 297279, Note_off_c, 2, 75, 100
1, 297280, Note_on_c, 4, 60, 127
1, 297280, Note_on_c, 2, 77, 118
1, 297292, Note_off_c, 4, 57, 100
1, 297321, Note_on_c, 2, 75, 121
1, 297326, Note_off_c, 2, 77, 100
1, 297367, Note_on_c, 2, 74, 123
1, 297374, Note_off_c, 2, 75, 100
1, 297415, Note_on_c, 2, 72, 125
1, 297420, Note_off_c, 2, 74, 100
1, 297460, Note_on_c, 2, 70, 127
1, 297462, Note_on_c, 4, 62, 127
1, 297468, Note_off_c, 2, 72, 100
1, 297477, Note_off_c, 4, 60, 100
1, 297642, Note_on_c, 2, 72, 125
1, 297644, Note_on_c, 2, 63, 127
1, 297646, Note_on_c, 2, 69, 127
1, 297658, Note_off_c, 2, 70, 100
1, 297658, Note_off_c, 4, 62, 100
1, 297820, Note_on_c, 2, 74, 123
1, 297820, Note_on_c, 2, 65, 127
1, 297823, Note_on_c, 2, 70, 127
1, 297823, Note_on_c, 4, 62, 127
1, 297835, Note_off_c, 2, 72, 100
1, 297836, Note_off_c, 2, 63, 100
1, 297839, Note_off_c, 2, 69, 100
1, 298002, Note_on_c, 2, 77, 118
1, 298003, Note_on_c, 2, 72, 125
1, 298005, Note_on_c, 4, 60, 127
1, 298006, Note_on_c, 2, 63, 127
1, 298018, Note_off_c, 2, 65, 100
1, 298018, Note_off_c, 2, 74, 100
1, 298020, Note_off_c, 4, 62, 100
1, 298020, Note_off_c, 2, 70, 100
1, 298047, Note_on_c, 2, 75, 121
1, 298053, Note_off_c, 2, 77, 100
1, 298095, Note_on_c, 2, 74, 123
1, 298103, Note_off_c, 2, 75, 100
1, 298144, Note_on_c, 2, 75, 121
1, 298152, Note_off_c, 2, 74, 100
1, 298192, Note_on_c, 1, 79, 114
1, 298194, Note_on_c, 4, 62, 127
1, 298196, Note_on_c, 2, 74, 123
1, 298197, Note_on_c, 4, 58, 127
1, 298199, Note_off_c, 2, 75, 100
1, 298209, Note_off_c, 2, 72, 100
1, 298211, Note_off_c, 4, 60, 100
1, 298212, Note_off_c, 2, 63, 100
1, 298381, Note_on_c, 4, 46, 127
1, 298560, Note_off_c, 4, 46, 100
1, 298568, Note_on_c, 4, 46, 127
1, 298740, Note_off_c, 4, 46, 100
1, 298749, Note_on_c, 4, 46, 127
1, 298924, Note_off_c, 1, 79, 100
1, 298924, Note_on_c, 1, 80, 114
1, 298927, Note_off_c, 4, 62, 100
1, 298927, Note_off_c, 4, 58, 100
1, 298928, Note_off_c, 2, 74, 100
1, 299100, Note_off_c, 4, 46, 100
1, 299100, Note_on_c, 4, 50, 127
1, 299278, Note_on_c, 4, 53, 127
1, 299293, Note_off_c, 4, 50, 100
1, 299458, Note_off_c, 1, 80, 100
1, 299459, Note_on_c, 4, 56, 127
1, 299459, Note_on_c, 1, 79, 114
1, 299472, Note_off_c, 4, 53, 100
1, 299503, Note_on_c, 2, 77, 118
1, 299509, Note_off_c, 1, 79, 100
1, 299547, Note_on_c, 2, 75, 121
1, 299553, Note_off_c, 2, 77, 100
1, 299590, Note_on_c, 2, 74, 123
1, 299595, Note_off_c, 2, 75, 100
1, 299632, Note_on_c, 2, 75, 121
1, 299632, Note_on_c, 4, 55, 127
1, 299644, Note_off_c, 2, 74, 100
1, 299645, Note_off_c, 4, 56, 100
1, 299805, Note_on_c, 4, 50, 127
1, 299805, Note_on_c, 2, 77, 118
1, 299821, Note_off_c, 4, 55, 100
1, 299821, Note_off_c, 2, 75, 100
1, 299979, Note_on_c, 1, 78, 115
1, 299995, Note_off_c, 2, 77, 100
1, 300161, Note_off_c, 4, 50, 100
1, 300161, Note_on_c, 4, 58, 127
1, 300162, Note_on_c, 4, 51, 127
1, 300329, Note_off_c, 4, 58, 100
1, 300329, Note_off_c, 4, 51, 100
1, 300337, Note_on_c, 4, 58, 127
1, 300338, Note_on_c, 4, 51, 127
1, 300500, Note_off_c, 4, 58, 100
1, 300500, Note_off_c, 4, 51, 100
1, 300506, Note_off_c, 1, 78, 100
1, 300507, Note_on_c, 1, 80, 114
1, 300507, Note_on_c, 4, 59, 127
1, 300508, Note_on_c, 4, 51, 127
1, 300593, Note_on_c, 1, 79, 114
1, 300600, Note_off_c, 1, 80, 100
1, 300672, Note_off_c, 4, 51, 100
1, 300672, Note_off_c, 4, 59, 100
1, 300678, Note_on_c, 2, 77, 118
1, 300679, Note_on_c, 4, 60, 127
1, 300679, Note_on_c, 4, 51, 127
1, 300687, Note_off_c, 1, 79, 100
1, 300763, Note_on_c, 2, 75, 121
1, 300772, Note_off_c, 2, 77, 100
1, 300841, Note_off_c, 4, 51, 100
1, 300842, Note_off_c, 4, 60, 100
1, 300848, Note_on_c, 2, 74, 123
1, 300849, Note_on_c, 4, 57, 127
1, 300849, Note_on_c, 4, 51, 127
1, 300857, Note_off_c, 2, 75, 100
1, 300927, Note_on_c, 2, 72, 125
1, 300935, Note_off_c, 2, 74, 100
1, 300998, Note_off_c, 4, 51, 100
1, 300998, Note_off_c, 4, 57, 100
1, 301005, Note_on_c, 2, 77, 118
1, 301005, Note_on_c, 4, 50, 127
1, 301008, Note_on_c, 4, 58, 127
1, 301013, Note_off_c, 2, 72, 100
1, 301057, Note_off_c, 2, 77, 100
1, 301068, Note_on_c, 2, 76, 118
1, 301117, Note_off_c, 2, 76, 100
1, 301127, Note_off_c, 4, 50, 100
1, 301127, Note_on_c, 2, 77, 118
1, 301128, Note_on_c, 4, 51, 127
1, 301174, Note_off_c, 2, 77, 100
1, 301179, Note_off_c, 4, 58, 100
1, 301180, Note_on_c, 1, 79, 114
1, 301186, Note_on_c, 4, 58, 127
1, 301242, Note_on_c, 2, 67, 127
1, 301251, Note_off_c, 1, 79, 100
1, 301300, Note_on_c, 2, 75, 121
1, 301305, Note_off_c, 2, 67, 100
1, 301346, Note_off_c, 4, 51, 100
1, 301353, Note_off_c, 4, 58, 100
1, 301359, Note_on_c, 2, 70, 127
1, 301362, Note_on_c, 4, 62, 127
1, 301362, Note_on_c, 4, 53, 127
1, 301365, Note_off_c, 2, 75, 100
1, 301524, Note_off_c, 4, 53, 64
1, 301526, Note_off_c, 4, 62, 100
1, 301532, Note_on_c, 4, 62, 127
1, 301533, Note_on_c, 4, 53, 127
1, 301694, Note_off_c, 4, 62, 100
1, 301694, Note_off_c, 4, 53, 100
1, 301705, Note_off_c, 2, 70, 100
1, 301705, Note_on_c, 2, 74, 123
1, 301706, Note_on_c, 2, 72, 125
1, 301706, Note_on_c, 4, 53, 127
1, 301707, Note_on_c, 2, 63, 127
1, 301778, Note_off_c, 2, 74, 100
1, 301789, Note_off_c, 2, 72, 100
1, 301795, Note_on_c, 2, 72, 125
1, 301879, Note_off_c, 4, 53, 100
1, 301880, Note_off_c, 2, 63, 100
1, 301886, Note_on_c, 2, 70, 127
1, 301888, Note_on_c, 2, 63, 127
1, 301888, Note_on_c, 4, 53, 127
1, 301894, Note_off_c, 2, 72, 100
1, 301978, Note_on_c, 2, 72, 125
1, 301985, Note_off_c, 2, 70, 100
1, 302052, Note_off_c, 4, 53, 100
1, 302054, Note_off_c, 2, 63, 100
1, 302060, Note_on_c, 2, 70, 127
1, 302061, Note_on_c, 4, 62, 127
1, 302061, Note_on_c, 4, 58, 127
1, 302070, Note_off_c, 2, 72, 100
1, 302141, Note_off_c, 4, 58, 100
1, 302147, Note_on_c, 4, 58, 127
1, 302241, Note_off_c, 4, 62, 100
1, 302244, Note_on_c, 4, 62, 127
1, 302254, Note_off_c, 4, 58, 100
1, 302344, Note_on_c, 2, 65, 127
1, 302354, Note_off_c, 4, 62, 100
1, 302440, Note_on_c, 2, 63, 127
1, 302449, Note_off_c, 2, 65, 100
1, 302530, Note_on_c, 2, 65, 127
1, 302539, Note_off_c, 2, 63, 100
1, 302618, Note_off_c, 2, 70, 100
1, 302626, Note_on_c, 2, 77, 108
1, 302627, Note_on_c, 2, 70, 127
1, 302627, Note_on_c, 4, 60, 127
1, 302635, Note_off_c, 2, 65, 100
1, 302716, Note_on_c, 2, 65, 127
1, 302725, Note_off_c, 4, 60, 100
1, 302797, Note_off_c, 2, 70, 100
1, 302798, Note_off_c, 2, 77, 100
1, 302804, Note_on_c, 2, 77, 108
1, 302805, Note_on_c, 2, 72, 117
1, 302805, Note_on_c, 4, 60, 127
1, 302815, Note_off_c, 2, 65, 100
1, 302895, Note_on_c, 2, 65, 127
1, 302903, Note_off_c, 4, 60, 100
1, 302980, Note_off_c, 2, 77, 100
1, 302980, Note_off_c, 2, 72, 100
1, 302987, Note_on_c, 2, 77, 108
1, 302987, Note_on_c, 2, 74, 113
1, 302988, Note_on_c, 4, 58, 127
1, 302995, Note_off_c, 2, 65, 100
1, 303076, Note_on_c, 2, 65, 127
1, 303085, Note_off_c, 4, 58, 100
1, 303166, Note_off_c, 2, 74, 100
1, 303167, Note_off_c, 2, 77, 100
1, 303173, Note_on_c, 2, 77, 108
1, 303173, Note_on_c, 2, 75, 111
1, 303174, Note_on_c, 4, 57, 127
1, 303181, Note_off_c, 2, 65, 100
1, 303266, Note_on_c, 4, 60, 127
1, 303274, Note_off_c, 4, 57, 64
1, 303350, Note_off_c, 2, 75, 100
1, 303351, Note_off_c, 2, 77, 100
1, 303357, Note_on_c, 2, 77, 108
1, 303358, Note_on_c, 2, 63, 127
1, 303366, Note_off_c, 4, 60, 100
1, 303403, Note_on_c, 1, 79, 104
1, 303409, Note_off_c, 2, 77, 100
1, 303449, Note_on_c, 2, 77, 108
1, 303450, Note_on_c, 4, 62, 127
1, 303456, Note_off_c, 1, 79, 100
1, 303458, Note_off_c, 2, 63, 100
1, 303497, Note_on_c, 2, 76, 108
1, 303502, Note_off_c, 2, 77, 100
1, 303543, Note_on_c, 2, 77, 108
1, 303543, Note_on_c, 4, 60, 127
1, 303547, Note_off_c, 2, 76, 100
1, 303551, Note_off_c, 4, 62, 100
1, 303634, Note_on_c, 4, 58, 127
1, 303643, Note_off_c, 4, 60, 100
1, 303720, Note_off_c, 2, 77, 100
1, 303726, Note_on_c, 2, 77, 108
1, 303727, Note_on_c, 2, 69, 127
1, 303727, Note_on_c, 4, 57, 127
1, 303736, Note_off_c, 4, 58, 100
1, 303819, Note_on_c, 4, 55, 127
1, 303828, Note_off_c, 4, 57, 100
1, 303916, Note_on_c, 1, 79, 104
1, 303917, Note_on_c, 2, 70, 127
1, 303917, Note_on_c, 4, 53, 127
1, 303924, Note_off_c, 4, 55, 100
1, 303933, Note_off_c, 2, 77, 100
1, 303933, Note_off_c, 2, 69, 100
1, 304010, Note_on_c, 4, 55, 127
1, 304020, Note_off_c, 4, 53, 100
1, 304099, Note_on_c, 1, 81, 104
1, 304099, Note_on_c, 2, 72, 117
1, 304100, Note_on_c, 4, 51, 127
1, 304109, Note_off_c, 4, 55, 100
1, 304115, Note_off_c, 2, 70, 100
1, 304116, Note_off_c, 1, 79, 100
1, 304189, Note_on_c, 4, 53, 127
1, 304196, Note_off_c, 4, 51, 100
1, 304277, Note_on_c, 1, 82, 104
1, 304278, Note_on_c, 2, 70, 127
1, 304278, Note_on_c, 4, 50, 127
1, 304286, Note_off_c, 4, 53, 100
1, 304294, Note_off_c, 2, 72, 100
1, 304294, Note_off_c, 1, 81, 100
1, 304371, Note_on_c, 4, 53, 127
1, 304380, Note_off_c, 4, 50, 100
1, 304462, Note_off_c, 1, 82, 100
1, 304467, Note_on_c, 1, 82, 104
1, 304468, Note_on_c, 4, 58, 127
1, 304476, Note_off_c, 4, 53, 100
1, 304514, Note_on_c, 1, 84, 113
1, 304520, Note_off_c, 1, 82, 100
1, 304562, Note_on_c, 1, 86, 115
1, 304563, Note_on_c, 4, 53, 127
1, 304567, Note_off_c, 1, 84, 100
1, 304571, Note_off_c, 4, 58, 100
1, 304609, Note_on_c, 1, 82, 104
1, 304631, Note_off_c, 1, 86, 100
1, 304656, Note_on_c, 2, 77, 108
1, 304657, Note_on_c, 4, 62, 127
1, 304665, Note_off_c, 4, 53, 100
1, 304679, Note_off_c, 1, 82, 100
1, 304840, Note_off_c, 2, 77, 100
1, 304840, Note_off_c, 4, 62, 100
1, 304846, Note_on_c, 2, 77, 108
1, 304848, Note_on_c, 2, 74, 113
1, 304848, Note_on_c, 4, 62, 127
1, 304848, Note_on_c, 4, 58, 127
1, 305028, Note_off_c, 2, 77, 64
1, 305030, Note_off_c, 4, 62, 100
1, 305032, Note_off_c, 4, 58, 100
1, 305032, Note_off_c, 2, 74, 64
1, 305035, Note_off_c, 2, 70, 100
1, 305035, Note_on_c, 2, 75, 115
1, 305038, Note_on_c, 2, 72, 121
1, 305038, Note_on_c, 2, 63, 127
1, 305039, Note_on_c, 4, 60, 127
1, 305219, Note_off_c, 2, 75, 64
1, 305220, Note_off_c, 2, 63, 100
1, 305222, Note_off_c, 2, 72, 64
1, 305222, Note_off_c, 4, 60, 100
1, 305225, Note_on_c, 2, 74, 117
1, 305225, Note_on_c, 2, 65, 127
1, 305229, Note_on_c, 2, 70, 127
1, 305229, Note_on_c, 4, 62, 127
1, 305408, Note_off_c, 2, 74, 64
1, 305409, Note_off_c, 2, 65, 100
1, 305410, Note_off_c, 4, 62, 100
1, 305411, Note_off_c, 2, 70, 64
1, 305415, Note_on_c, 2, 63, 127
1, 305415, Note_on_c, 2, 72, 121
1, 305418, Note_on_c, 2, 67, 127
1, 305601, Note_off_c, 2, 72, 100
1, 305607, Note_on_c, 2, 72, 117
1, 305655, Note_on_c, 2, 74, 113
1, 305661, Note_off_c, 2, 72, 100
1, 305701, Note_on_c, 2, 75, 111
1, 305707, Note_off_c, 2, 74, 100
1, 305745, Note_on_c, 2, 72, 117
1, 305751, Note_off_c, 2, 75, 100
1, 305787, Note_on_c, 1, 79, 108
1, 305795, Note_off_c, 2, 72, 100
1, 305971, Note_off_c, 2, 67, 100
1, 305977, Note_off_c, 1, 79, 100
1, 305977, Note_off_c, 2, 63, 100
1, 305977, Note_on_c, 2, 72, 121
1, 305978, Note_on_c, 4, 60, 127
1, 305980, Note_on_c, 2, 67, 127
1, 305981, Note_on_c, 4, 51, 127
1, 306172, Note_on_c, 2, 70, 127
1, 306173, Note_on_c, 4, 62, 127
1, 306174, Note_on_c, 4, 53, 127
1, 306174, Note_on_c, 2, 65, 127
1, 306188, Note_off_c, 2, 72, 100
1, 306189, Note_off_c, 4, 60, 100
1, 306190, Note_off_c, 2, 67, 100
1, 306190, Note_off_c, 4, 51, 100
1, 306366, Note_on_c, 2, 72, 121
1, 306367, Note_on_c, 2, 63, 127
1, 306369, Note_on_c, 2, 69, 127
1, 306383, Note_off_c, 2, 70, 100
1, 306384, Note_off_c, 4, 62, 100
1, 306385, Note_off_c, 2, 65, 100
1, 306539, Note_off_c, 2, 72, 100
1, 306541, Note_off_c, 2, 63, 100
1, 306541, Note_off_c, 2, 69, 100
1, 306547, Note_on_c, 2, 72, 121
1, 306548, Note_on_c, 2, 63, 127
1, 306551, Note_off_c, 4, 53, 100
1, 306551, Note_on_c, 2, 69, 127
1, 306552, Note_on_c, 4, 58, 127
1, 306827, Note_off_c, 2, 72, 100
1, 306827, Note_on_c, 2, 73, 122
1, 306912, Note_off_c, 4, 58, 100
1, 306920, Note_off_c, 2, 63, 100
1, 306920, Note_on_c, 2, 74, 117
1, 306921, Note_on_c, 4, 62, 127
1, 306921, Note_on_c, 4, 58, 127
1, 306922, Note_off_c, 2, 69, 100
1, 306922, Note_on_c, 2, 70, 127
1, 306928, Note_off_c, 2, 73, 100
1, 307011, Note_off_c, 4, 58, 100
1, 307019, Note_on_c, 4, 58, 127
1, 307103, Note_off_c, 2, 74, 100
1, 307105, Note_off_c, 4, 62, 100
1, 307107, Note_off_c, 2, 70, 100
1, 307111, Note_on_c, 2, 77, 112
1, 307111, Note_on_c, 4, 62, 127
1, 307115, Note_on_c, 2, 70, 127
1, 307122, Note_off_c, 4, 58, 100
1, 307201, Note_on_c, 2, 65, 127
1, 307211, Note_off_c, 4, 62, 100
1, 307282, Note_off_c, 2, 77, 100
1, 307291, Note_on_c, 2, 77, 112
1, 307292, Note_on_c, 2, 72, 121
1, 307292, Note_on_c, 2, 63, 127
1, 307302, Note_off_c, 2, 65, 100
1, 307311, Note_off_c, 2, 70, 100
1, 307382, Note_on_c, 4, 62, 127
1, 307392, Note_off_c, 2, 63, 100
1, 307457, Note_off_c, 2, 77, 100
1, 307469, Note_on_c, 2, 77, 112
1, 307469, Note_on_c, 2, 74, 117
1, 307470, Note_on_c, 4, 60, 127
1, 307477, Note_off_c, 4, 62, 100
1, 307483, Note_off_c, 2, 72, 100
1, 307558, Note_on_c, 4, 58, 127
1, 307568, Note_off_c, 4, 60, 100
1, 307643, Note_off_c, 2, 77, 100
1, 307648, Note_off_c, 2, 74, 100
1, 307652, Note_on_c, 2, 77, 112
1, 307653, Note_on_c, 2, 75, 115
1, 307653, Note_on_c, 4, 57, 127
1, 307663, Note_off_c, 4, 58, 100
1, 307749, Note_on_c, 4, 60, 127
1, 307758, Note_off_c, 4, 57, 100
1, 307838, Note_off_c, 2, 75, 100
1, 307839, Note_off_c, 2, 77, 100
1, 307845, Note_on_c, 2, 77, 112
1, 307846, Note_on_c, 2, 63, 127
1, 307854, Note_off_c, 4, 60, 100
1, 307892, Note_on_c, 1, 79, 108
1, 307900, Note_off_c, 2, 77, 100
1, 307940, Note_on_c, 2, 77, 112
1, 307941, Note_on_c, 4, 62, 127
1, 307947, Note_off_c, 1, 79, 100
1, 307951, Note_off_c, 2, 63, 100
1, 307989, Note_on_c, 2, 76, 112
1, 307995, Note_off_c, 2, 77, 100
1, 308037, Note_on_c, 2, 77, 112
1, 308038, Note_on_c, 4, 60, 127
1, 308044, Note_off_c, 2, 76, 100
1, 308046, Note_off_c, 4, 62, 100
1, 308133, Note_on_c, 4, 58, 127
1, 308142, Note_off_c, 4, 60, 100
1, 308219, Note_off_c, 2, 77, 100
1, 308229, Note_on_c, 2, 77, 112
1, 308229, Note_on_c, 2, 69, 127
1, 308230, Note_on_c, 4, 57, 127
1, 308239, Note_off_c, 4, 58, 100
1, 308322, Note_on_c, 4, 55, 127
1, 308331, Note_off_c, 4, 57, 100
1, 308414, Note_on_c, 1, 79, 108
1, 308414, Note_on_c, 2, 70, 127
1, 308415, Note_on_c, 4, 53, 127
1, 308424, Note_off_c, 4, 55, 100
1, 308430, Note_off_c, 2, 69, 100
1, 308430, Note_off_c, 2, 77, 100
1, 308508, Note_on_c, 4, 55, 127
1, 308515, Note_off_c, 4, 53, 100
1, 308600, Note_on_c, 1, 81, 108
1, 308601, Note_on_c, 2, 72, 121
1, 308601, Note_on_c, 4, 51, 127
1, 308608, Note_off_c, 4, 55, 100
1, 308615, Note_off_c, 2, 70, 100
1, 308615, Note_off_c, 1, 79, 100
1, 308692, Note_on_c, 4, 53, 127
1, 308701, Note_off_c, 4, 51, 100
1, 308778, Note_off_c, 1, 81, 100
1, 308784, Note_on_c, 1, 82, 108
1, 308785, Note_on_c, 2, 70, 127
1, 308785, Note_on_c, 4, 50, 127
1, 308793, Note_off_c, 4, 53, 100
1, 308801, Note_off_c, 2, 72, 100
1, 308880, Note_on_c, 4, 53, 127
1, 308889, Note_off_c, 4, 50, 100
1, 308971, Note_off_c, 1, 82, 100
1, 308976, Note_on_c, 1, 82, 108
1, 308976, Note_on_c, 4, 58, 127
1, 308986, Note_off_c, 4, 53, 100
1, 309024, Note_on_c, 1, 84, 113
1, 309040, Note_off_c, 1, 82, 100
1, 309072, Note_on_c, 1, 86, 115
1, 309073, Note_on_c, 4, 53, 127
1, 309081, Note_off_c, 4, 58, 100
1, 309087, Note_off_c, 1, 84, 100
1, 309120, Note_on_c, 1, 82, 108
1, 309135, Note_off_c, 1, 86, 100
1, 309166, Note_on_c, 2, 77, 112
1, 309166, Note_on_c, 4, 62, 127
1, 309174, Note_off_c, 4, 53, 100
1, 309180, Note_off_c, 1, 82, 100
1, 309349, Note_off_c, 4, 62, 100
1, 309349, Note_off_c, 2, 77, 100
1, 309354, Note_on_c, 2, 77, 112
1, 309354, Note_on_c, 4, 62, 127
1, 309357, Note_on_c, 2, 74, 117
1, 309357, Note_on_c, 4, 58, 127
1, 309532, Note_off_c, 2, 77, 100
1, 309534, Note_off_c, 4, 62, 100
1, 309536, Note_off_c, 4, 58, 100
1, 309537, Note_off_c, 2, 70, 100
1, 309537, Note_off_c, 2, 74, 100
1, 309538, Note_on_c, 2, 75, 115
1, 309538, Note_on_c, 2, 63, 127
1, 309540, Note_on_c, 2, 72, 121
1, 309540, Note_on_c, 4, 60, 127
1, 309722, Note_off_c, 2, 75, 100
1, 309724, Note_off_c, 2, 63, 100
1, 309726, Note_off_c, 4, 60, 100
1, 309727, Note_off_c, 2, 72, 100
1, 309729, Note_on_c, 2, 74, 117
1, 309730, Note_on_c, 2, 65, 127
1, 309733, Note_on_c, 2, 70, 127
1, 309733, Note_on_c, 4, 62, 127
1, 309922, Note_off_c, 2, 74, 100
1, 309924, Note_off_c, 2, 65, 100
1, 309924, Note_off_c, 4, 62, 100
1, 309925, Note_off_c, 2, 70, 100
1, 309926, Note_on_c, 2, 71, 126
1, 309928, Note_on_c, 2, 63, 127
1, 309930, Note_on_c, 2, 67, 127
1, 309978, Note_on_c, 2, 72, 121
1, 309984, Note_off_c, 2, 71, 100
1, 310030, Note_on_c, 2, 74, 113
1, 310037, Note_off_c, 2, 72, 100
1, 310080, Note_on_c, 2, 72, 121
1, 310087, Note_off_c, 2, 74, 100
1, 310129, Note_on_c, 2, 75, 111
1, 310135, Note_off_c, 2, 72, 100
1, 310179, Note_on_c, 2, 74, 113
1, 310185, Note_off_c, 2, 75, 100
1, 310227, Note_on_c, 2, 77, 108
1, 310233, Note_off_c, 2, 74, 100
1, 310274, Note_on_c, 2, 75, 111
1, 310280, Note_off_c, 2, 77, 100
1, 310320, Note_on_c, 1, 79, 108
1, 310327, Note_off_c, 2, 75, 100
1, 310622, Note_off_c, 2, 63, 100
1, 310624, Note_off_c, 2, 67, 100
1, 310637, Note_off_c, 1, 79, 100
1, 310638, Note_on_c, 2, 75, 115
1, 310638, Note_on_c, 4, 57, 127
1, 310640, Note_on_c, 2, 63, 127
1, 310641, Note_on_c, 4, 53, 127
1, 310818, Note_on_c, 4, 60, 127
1, 310837, Note_off_c, 4, 57, 100
1, 310837, Note_off_c, 2, 63, 100
1, 310837, Note_off_c, 4, 53, 100
1, 310932, Note_off_c, 2, 75, 100
1, 310965, Note_on_c, 2, 69, 127
1, 311015, Note_off_c, 4, 60, 100
1, 311017, Note_on_c, 2, 70, 127
1, 311017, Note_on_c, 4, 58, 127
1, 311023, Note_off_c, 2, 69, 100
1, 311122, Note_on_c, 4, 62, 127
1, 311131, Note_off_c, 4, 58, 100
1, 311227, Note_on_c, 2, 65, 127
1, 311236, Note_off_c, 4, 62, 100
1, 311333, Note_on_c, 4, 62, 127
1, 311342, Note_off_c, 2, 65, 100
1, 311427, Note_on_c, 4, 58, 127
1, 311438, Note_off_c, 4, 62, 100
1, 311534, Note_on_c, 4, 62, 127
1, 311544, Note_off_c, 4, 58, 100
1, 311633, Note_off_c, 2, 70, 100
1, 311634, Note_on_c, 1, 80, 110
1, 311634, Note_on_c, 2, 65, 127
1, 311642, Note_off_c, 4, 62, 100
1, 311723, Note_on_c, 4, 62, 127
1, 311732, Note_off_c, 2, 65, 100
1, 311819, Note_on_c, 1, 79, 110
1, 311819, Note_on_c, 2, 63, 127
1, 311827, Note_off_c, 4, 62, 100
1, 311835, Note_off_c, 1, 80, 100
1, 311914, Note_on_c, 4, 60, 127
1, 311923, Note_off_c, 2, 63, 100
1, 312004, Note_on_c, 1, 81, 110
1, 312004, Note_on_c, 2, 65, 127
1, 312012, Note_off_c, 4, 60, 100
1, 312018, Note_off_c, 1, 79, 100
1, 312094, Note_on_c, 2, 63, 127
1, 312106, Note_off_c, 2, 65, 100
1, 312196, Note_on_c, 1, 84, 115
1, 312196, Note_on_c, 4, 62, 127
1, 312206, Note_off_c, 2, 63, 100
1, 312214, Note_off_c, 1, 81, 100
1, 312297, Note_on_c, 2, 65, 127
1, 312306, Note_off_c, 4, 62, 100
1, 312389, Note_on_c, 1, 82, 110
1, 312389, Note_on_c, 4, 62, 127
1, 312397, Note_off_c, 2, 65, 100
1, 312403, Note_off_c, 1, 84, 100
1, 312480, Note_on_c, 4, 60, 127
1, 312492, Note_off_c, 4, 62, 100
1, 312589, Note_on_c, 4, 58, 127
1, 312599, Note_off_c, 4, 60, 100
1, 312687, Note_on_c, 4, 56, 127
1, 312697, Note_off_c, 4, 58, 100
1, 312780, Note_off_c, 1, 82, 100
1, 312780, Note_on_c, 2, 68, 127
1, 312781, Note_on_c, 4, 53, 127
1, 312789, Note_off_c, 4, 56, 100
1, 312876, Note_on_c, 4, 50, 127
1, 312883, Note_off_c, 4, 53, 100
1, 312968, Note_on_c, 2, 67, 127
1, 312968, Note_on_c, 4, 51, 127
1, 312976, Note_off_c, 4, 50, 100
1, 312984, Note_off_c, 2, 68, 100
1, 313065, Note_on_c, 4, 48, 127
1, 313074, Note_off_c, 4, 51, 100
1, 313167, Note_on_c, 2, 69, 127
1, 313167, Note_on_c, 2, 63, 127
1, 313167, Note_on_c, 4, 53, 127
1, 313179, Note_off_c, 4, 48, 100
1, 313189, Note_off_c, 2, 67, 100
1, 313287, Note_on_c, 4, 41, 127
1, 313296, Note_off_c, 4, 53, 100
1, 313373, Note_off_c, 2, 63, 100
1, 313379, Note_on_c, 2, 72, 125
1, 313380, Note_on_c, 4, 46, 127
1, 313380, Note_on_c, 2, 63, 127
1, 313389, Note_off_c, 4, 41, 100
1, 313397, Note_off_c, 2, 69, 100
1, 313777, Note_off_c, 2, 63, 100
1, 313778, Note_off_c, 2, 72, 100
1, 313778, Note_on_c, 2, 70, 127
1, 313779, Note_on_c, 4, 62, 127
1, 313973, Note_off_c, 4, 62, 100
1, 313979, Note_on_c, 2, 65, 127
1, 313980, Note_on_c, 4, 62, 127
1, 313980, Note_on_c, 4, 56, 127
1, 313993, Note_off_c, 2, 70, 100
1, 314180, Note_on_c, 2, 67, 127
1, 314180, Note_on_c, 2, 63, 127
1, 314181, Note_on_c, 4, 55, 127
1, 314194, Note_off_c, 4, 56, 100
1, 314195, Note_off_c, 2, 65, 100
1, 314195, Note_off_c, 4, 62, 100
1, 314366, Note_on_c, 2, 68, 127
1, 314366, Note_on_c, 2, 65, 127
1, 314367, Note_on_c, 4, 53, 127
1, 314382, Note_off_c, 4, 55, 100
1, 314383, Note_off_c, 2, 63, 100
1, 314383, Note_off_c, 2, 67, 100
1, 314573, Note_off_c, 2, 65, 100
1, 314573, Note_off_c, 4, 53, 100
1, 314574, Note_off_c, 4, 46, 100
1, 314574, Note_off_c, 2, 68, 100
1, 314575, Note_on_c, 2, 69, 127
1, 314575, Note_on_c, 2, 66, 127
1, 314576, Note_on_c, 4, 52, 127
1, 314931, Note_off_c, 2, 66, 100
1, 314932, Note_off_c, 2, 69, 100
1, 314932, Note_on_c, 2, 70, 127
1, 314933, Note_on_c, 2, 67, 127
1, 315114, Note_off_c, 2, 70, 100
1, 315122, Note_on_c, 2, 73, 127
1, 315122, Note_on_c, 2, 70, 127
1, 315138, Note_off_c, 2, 67, 100
1, 315303, Note_off_c, 4, 52, 100
1, 315303, Note_on_c, 2, 67, 127
1, 315304, Note_on_c, 4, 48, 127
1, 315304, Note_on_c, 2, 64, 127
1, 315317, Note_off_c, 2, 70, 100
1, 315317, Note_off_c, 2, 73, 100
1, 315476, Note_on_c, 2, 72, 125
1, 315477, Note_on_c, 2, 68, 127
1, 315491, Note_off_c, 2, 67, 100
1, 315491, Note_off_c, 2, 64, 100
1, 315657, Note_off_c, 4, 48, 100
1, 315657, Note_on_c, 2, 70, 127
1, 315658, Note_on_c, 4, 49, 127
1, 315658, Note_on_c, 2, 67, 127
1, 315674, Note_off_c, 2, 72, 100
1, 315674, Note_off_c, 2, 68, 100
1, 316005, Note_off_c, 2, 67, 100
1, 316006, Note_off_c, 2, 70, 100
1, 316006, Note_on_c, 2, 68, 127
1, 316007, Note_on_c, 2, 65, 127
1, 316180, Note_on_c, 2, 77, 118
1, 316341, Note_off_c, 2, 77, 100
1, 316345, Note_off_c, 2, 68, 100
1, 316345, Note_off_c, 2, 65, 100
1, 316346, Note_on_c, 4, 60, 127
1, 316346, Note_on_c, 2, 77, 118
1, 316347, Note_on_c, 4, 56, 127
1, 316514, Note_off_c, 2, 77, 100
1, 316518, Note_on_c, 2, 77, 118
1, 316677, Note_off_c, 2, 77, 100
1, 316681, Note_off_c, 4, 60, 100
1, 316681, Note_off_c, 4, 56, 100
1, 316682, Note_off_c, 4, 49, 100
1, 316682, Note_on_c, 1, 78, 115
1, 316683, Note_on_c, 4, 61, 127
1, 316683, Note_on_c, 4, 58, 127
1, 317016, Note_off_c, 1, 78, 100
1, 317016, Note_on_c, 1, 79, 114
1, 317184, Note_off_c, 1, 79, 100
1, 317185, Note_on_c, 1, 82, 114
1, 317356, Note_off_c, 4, 58, 100
1, 317356, Note_off_c, 4, 61, 100
1, 317357, Note_on_c, 2, 70, 127
1, 317357, Note_on_c, 4, 60, 127
1, 317511, Note_off_c, 1, 82, 100
1, 317511, Note_on_c, 2, 76, 118
1, 317669, Note_off_c, 2, 70, 100
1, 317679, Note_off_c, 4, 60, 100
1, 317679, Note_on_c, 1, 79, 114
1, 317680, Note_on_c, 2, 70, 127
1, 317680, Note_on_c, 2, 65, 127
1, 317696, Note_off_c, 2, 76, 100
1, 318011, Note_off_c, 2, 65, 100
1, 318012, Note_off_c, 1, 79, 100
1, 318012, Note_off_c, 2, 70, 100
1, 318012, Note_on_c, 2, 77, 118
1, 318013, Note_on_c, 2, 68, 127
1, 318176, Note_on_c, 4, 41, 127
1, 318341, Note_off_c, 4, 41, 100
1, 318345, Note_on_c, 4, 41, 127
1, 318495, Note_off_c, 4, 41, 100
1, 318501, Note_on_c, 4, 41, 127
1, 318654, Note_off_c, 4, 41, 100
1, 318655, Note_off_c, 2, 68, 100
1, 318658, Note_off_c, 2, 77, 100
1, 318659, Note_on_c, 2, 68, 127
1, 318659, Note_on_c, 2, 77, 118
1, 318660, Note_on_c, 4, 41, 127
1, 318854, Note_off_c, 2, 77, 100
1, 318854, Note_on_c, 1, 80, 114
1, 319018, Note_off_c, 1, 80, 100
1, 319019, Note_on_c, 1, 79, 114
1, 319100, Note_on_c, 2, 77, 118
1, 319105, Note_off_c, 1, 79, 100
1, 319159, Note_on_c, 2, 75, 121
1, 319165, Note_off_c, 2, 77, 100
1, 319223, Note_on_c, 2, 73, 127
1, 319228, Note_off_c, 2, 75, 100
1, 319286, Note_on_c, 2, 72, 125
1, 319292, Note_off_c, 2, 73, 100
1, 319345, Note_on_c, 2, 73, 127
1, 319351, Note_off_c, 2, 72, 100
1, 319407, Note_on_c, 2, 77, 118
1, 319413, Note_off_c, 2, 73, 100
1, 319466, Note_on_c, 2, 73, 127
1, 319472, Note_off_c, 2, 77, 100
1, 319518, Note_off_c, 4, 41, 100
1, 319519, Note_off_c, 2, 68, 100
1, 319531, Note_on_c, 2, 72, 125
1, 319533, Note_on_c, 4, 62, 127
1, 319535, Note_on_c, 4, 41, 127
1, 319535, Note_on_c, 2, 68, 127
1, 319539, Note_off_c, 2, 73, 100
1, 319839, Note_off_c, 2, 72, 100
1, 319839, Note_on_c, 2, 71, 127
1, 319840, Note_off_c, 2, 68, 100
1, 319982, Note_off_c, 4, 41, 100
1, 319992, Note_on_c, 4, 41, 127
1, 320148, Note_off_c, 4, 41, 100
1, 320152, Note_on_c, 4, 41, 127
1, 320296, Note_off_c, 4, 41, 100
1, 320300, Note_on_c, 4, 41, 127
1, 320444, Note_off_c, 4, 41, 100
1, 320448, Note_on_c, 4, 42, 127
1, 320605, Note_off_c, 2, 71, 100
1, 320606, Note_on_c, 2, 63, 127
1, 320606, Note_on_c, 2, 72, 125
1, 320651, Note_off_c, 4, 62, 100
1, 320758, Note_off_c, 2, 72, 100
1, 320759, Note_on_c, 2, 71, 127
1, 320824, Note_on_c, 2, 72, 125
1, 320832, Note_off_c, 2, 71, 100
1, 320882, Note_off_c, 2, 63, 100
1, 320890, Note_on_c, 2, 63, 127
1, 320890, Note_on_c, 2, 74, 123
1, 320896, Note_off_c, 2, 72, 100
1, 320952, Note_on_c, 2, 72, 125
1, 320960, Note_off_c, 2, 74, 100
1, 321015, Note_on_c, 2, 71, 127
1, 321021, Note_off_c, 2, 72, 100
1, 321077, Note_on_c, 2, 72, 125
1, 321084, Note_off_c, 2, 71, 100
1, 321131, Note_off_c, 2, 63, 100
1, 321138, Note_on_c, 2, 75, 121
1, 321139, Note_on_c, 2, 63, 127
1, 321143, Note_off_c, 2, 72, 100
1, 321203, Note_on_c, 2, 74, 123
1, 321210, Note_off_c, 2, 75, 100
1, 321260, Note_off_c, 2, 63, 100
1, 321264, Note_off_c, 4, 42, 100
1, 321264, Note_on_c, 2, 71, 127
1, 321265, Note_on_c, 4, 43, 127
1, 321265, Note_on_c, 2, 63, 127
1, 321271, Note_off_c, 2, 74, 100
1, 321549, Note_off_c, 2, 63, 100
1, 321557, Note_off_c, 2, 71, 100
1, 321557, Note_on_c, 2, 72, 125
1, 321558, Note_on_c, 2, 63, 127
1, 321711, Note_off_c, 4, 43, 100
1, 321715, Note_on_c, 4, 43, 127
1, 321863, Note_off_c, 4, 43, 100
1, 321869, Note_on_c, 4, 43, 127
1, 322011, Note_off_c, 4, 43, 100
1, 322015, Note_on_c, 4, 43, 127
1, 322145, Note_off_c, 4, 43, 100
1, 322150, Note_on_c, 4, 44, 127
1, 322280, Note_off_c, 2, 72, 100
1, 322280, Note_off_c, 2, 63, 100
1, 322290, Note_on_c, 2, 72, 125
1, 322291, Note_on_c, 2, 63, 127
1, 322435, Note_off_c, 2, 63, 100
1, 322436, Note_off_c, 2, 72, 100
1, 322439, Note_on_c, 2, 72, 125
1, 322439, Note_on_c, 2, 63, 127
1, 322583, Note_off_c, 2, 63, 100
1, 322584, Note_off_c, 2, 72, 100
1, 322588, Note_on_c, 2, 72, 125
1, 322589, Note_on_c, 2, 63, 127
1, 322721, Note_off_c, 2, 63, 100
1, 322722, Note_off_c, 2, 72, 100
1, 322727, Note_off_c, 4, 44, 100
1, 322727, Note_on_c, 2, 72, 125
1, 322728, Note_on_c, 2, 63, 127
1, 322728, Note_on_c, 4, 45, 127
1, 322872, Note_off_c, 2, 72, 100
1, 322872, Note_off_c, 2, 63, 100
1, 322875, Note_on_c, 2, 72, 125
1, 322876, Note_on_c, 2, 63, 127
1, 323026, Note_off_c, 2, 63, 100
1, 323027, Note_off_c, 2, 72, 100
1, 323029, Note_off_c, 4, 45, 100
1, 323029, Note_on_c, 2, 73, 127
1, 323030, Note_on_c, 4, 46, 127
1, 323030, Note_on_c, 2, 63, 127
1, 323212, Note_off_c, 2, 73, 100
1, 323228, Note_on_c, 2, 73, 127
1, 323264, Note_on_c, 2, 72, 125
1, 323270, Note_off_c, 2, 73, 100
1, 323276, Note_off_c, 2, 63, 100
1, 323301, Note_on_c, 2, 70, 127
1, 323306, Note_off_c, 2, 72, 100
1, 323341, Note_on_c, 2, 68, 127
1, 323345, Note_off_c, 2, 70, 100
1, 323379, Note_off_c, 4, 46, 100
1, 323380, Note_on_c, 2, 67, 127
1, 323380, Note_on_c, 4, 49, 127
1, 323381, Note_on_c, 2, 63, 127
1, 323383, Note_off_c, 2, 68, 100
1, 323537, Note_on_c, 1, 79, 114
1, 323550, Note_off_c, 2, 67, 100
1, 323552, Note_off_c, 2, 63, 100
1, 323690, Note_on_c, 1, 80, 114
1, 323691, Note_off_c, 4, 49, 100
1, 323691, Note_on_c, 4, 48, 127
1, 323701, Note_off_c, 1, 79, 100
1, 323830, Note_on_c, 2, 72, 125
1, 323840, Note_off_c, 1, 80, 100
1, 323978, Note_off_c, 2, 72, 100
1, 323984, Note_off_c, 4, 48, 100
1, 323985, Note_on_c, 4, 49, 127
1, 323985, Note_on_c, 2, 72, 125
1, 324062, Note_on_c, 2, 70, 127
1, 324070, Note_off_c, 2, 72, 100
1, 324141, Note_on_c, 2, 73, 127
1, 324146, Note_off_c, 2, 70, 100
1, 324206, Note_on_c, 2, 77, 118
1, 324214, Note_off_c, 2, 73, 100
1, 324290, Note_off_c, 4, 49, 100
1, 324291, Note_on_c, 2, 68, 127
1, 324291, Note_on_c, 4, 51, 127
1, 324293, Note_on_c, 4, 60, 127
1, 324299, Note_off_c, 2, 77, 100
1, 324602, Note_off_c, 4, 51, 100
1, 324612, Note_on_c, 4, 61, 127
1, 324612, Note_on_c, 4, 51, 127
1, 324613, Note_off_c, 4, 60, 100
1, 324755, Note_on_c, 2, 72, 127
1, 324755, Note_on_c, 2, 67, 127
1, 324763, Note_off_c, 2, 68, 100
1, 324857, Note_on_c, 2, 70, 127
1, 324868, Note_off_c, 2, 72, 100
1, 324947, Note_off_c, 4, 51, 100
1, 324947, Note_off_c, 4, 61, 100
1, 324948, Note_on_c, 2, 68, 127
1, 324948, Note_on_c, 4, 56, 127
1, 324953, Note_off_c, 2, 70, 100
1, 324958, Note_off_c, 2, 67, 100
1, 325054, Note_on_c, 4, 60, 127
1, 325063, Note_off_c, 4, 56, 100
1, 325145, Note_on_c, 2, 63, 127
1, 325158, Note_off_c, 4, 60, 100
1, 325245, Note_on_c, 4, 60, 127
1, 325255, Note_off_c, 2, 63, 100
1, 325335, Note_on_c, 4, 56, 127
1, 325344, Note_off_c, 4, 60, 100
1, 325434, Note_on_c, 4, 60, 127
1, 325443, Note_off_c, 4, 56, 100
1, 325519, Note_off_c, 2, 68, 100
1, 325526, Note_on_c, 2, 72, 127
1, 325527, Note_on_c, 2, 68, 127
1, 325527, Note_on_c, 2, 63, 127
1, 325535, Note_off_c, 4, 60, 100
1, 325629, Note_on_c, 4, 60, 127
1, 325637, Note_off_c, 2, 63, 100
1, 325708, Note_off_c, 2, 72, 100
1, 325708, Note_off_c, 2, 68, 100
1, 325714, Note_on_c, 2, 72, 127
1, 325714, Note_on_c, 4, 56, 127
1, 325715, Note_on_c, 2, 68, 127
1, 325720, Note_off_c, 4, 60, 100
1, 325797, Note_on_c, 4, 60, 127
1, 325807, Note_off_c, 4, 56, 100
1, 325884, Note_off_c, 2, 72, 100
1, 325885, Note_off_c, 2, 68, 100
1, 325891, Note_on_c, 2, 72, 127
1, 325892, Note_on_c, 2, 68, 127
1, 325892, Note_on_c, 2, 63, 127
1, 325900, Note_off_c, 4, 60, 100
1, 325984, Note_on_c, 4, 60, 127
1, 325994, Note_off_c, 2, 63, 100
1, 326075, Note_off_c, 2, 72, 100
1, 326075, Note_off_c, 2, 68, 100
1, 326080, Note_on_c, 2, 77, 120
1, 326081, Note_on_c, 2, 72, 127
1, 326081, Note_on_c, 4, 55, 127
1, 326082, Note_on_c, 2, 70, 127
1, 326090, Note_off_c, 4, 60, 100
1, 326171, Note_on_c, 4, 58, 127
1, 326182, Note_off_c, 4, 55, 100
1, 326262, Note_off_c, 2, 77, 100
1, 326271, Note_on_c, 2, 75, 123
1, 326271, Note_on_c, 4, 60, 127
1, 326283, Note_off_c, 4, 58, 100
1, 326371, Note_on_c, 4, 58, 127
1, 326379, Note_off_c, 4, 60, 100
1, 326461, Note_on_c, 4, 55, 127
1, 326469, Note_off_c, 4, 58, 100
1, 326554, Note_on_c, 4, 58, 127
1, 326563, Note_off_c, 4, 55, 100
1, 326646, Note_off_c, 2, 72, 100
1, 326646, Note_off_c, 2, 70, 100
1, 326652, Note_on_c, 2, 70, 127
1, 326653, Note_on_c, 2, 72, 127
1, 326653, Note_on_c, 4, 60, 127
1, 326661, Note_off_c, 4, 58, 100
1, 326748, Note_on_c, 4, 58, 127
1, 326755, Note_off_c, 4, 60, 100
1, 326828, Note_off_c, 2, 70, 100
1, 326830, Note_off_c, 2, 72, 100
1, 326834, Note_on_c, 2, 70, 127
1, 326834, Note_on_c, 4, 55, 127
1, 326837, Note_on_c, 2, 72, 127
1, 326844, Note_off_c, 4, 58, 100
1, 326931, Note_on_c, 4, 58, 127
1, 326939, Note_off_c, 4, 55, 100
1, 327010, Note_off_c, 2, 70, 100
1, 327012, Note_off_c, 2, 72, 100
1, 327015, Note_on_c, 2, 70, 127
1, 327016, Note_on_c, 2, 72, 127
1, 327016, Note_on_c, 4, 60, 127
1, 327024, Note_off_c, 4, 58, 100
1, 327108, Note_on_c, 4, 58, 127
1, 327115, Note_off_c, 4, 60, 100
1, 327196, Note_off_c, 2, 70, 100
1, 327198, Note_off_c, 2, 72, 100
1, 327204, Note_off_c, 2, 75, 100
1, 327204, Note_on_c, 2, 68, 127
1, 327204, Note_on_c, 1, 79, 122
1, 327205, Note_on_c, 4, 53, 127
1, 327206, Note_on_c, 2, 72, 127
1, 327212, Note_off_c, 4, 58, 100
1, 327289, Note_on_c, 4, 56, 127
1, 327299, Note_off_c, 4, 53, 100
1, 327387, Note_on_c, 2, 77, 120
1, 327388, Note_on_c, 4, 60, 127
1, 327397, Note_off_c, 4, 56, 100
1, 327406, Note_off_c, 1, 79, 100
1, 327490, Note_on_c, 4, 56, 127
1, 327497, Note_off_c, 4, 60, 100
1, 327578, Note_on_c, 4, 53, 127
1, 327588, Note_off_c, 4, 56, 100
1, 327672, Note_on_c, 4, 56, 127
1, 327680, Note_off_c, 4, 53, 100
1, 327758, Note_off_c, 2, 68, 100
1, 327759, Note_off_c, 2, 72, 100
1, 327766, Note_on_c, 2, 68, 127
1, 327766, Note_on_c, 4, 60, 127
1, 327767, Note_on_c, 2, 72, 127
1, 327774, Note_off_c, 4, 56, 100
1, 327855, Note_on_c, 4, 56, 127
1, 327866, Note_off_c, 4, 60, 100
1, 327947, Note_off_c, 2, 68, 100
1, 327948, Note_off_c, 2, 72, 100
1, 327953, Note_on_c, 2, 68, 127
1, 327953, Note_on_c, 4, 53, 127
1, 327954, Note_on_c, 2, 72, 127
1, 327961, Note_off_c, 4, 56, 100
1, 328046, Note_on_c, 4, 56, 127
1, 328056, Note_off_c, 4, 53, 100
1, 328127, Note_off_c, 2, 68, 100
1, 328128, Note_off_c, 2, 72, 100
1, 328134, Note_on_c, 2, 68, 127
1, 328135, Note_on_c, 2, 72, 127
1, 328135, Note_on_c, 4, 60, 127
1, 328143, Note_off_c, 4, 56, 100
1, 328229, Note_on_c, 4, 56, 127
1, 328237, Note_off_c, 4, 60, 100
1, 328312, Note_off_c, 2, 72, 100
1, 328312, Note_off_c, 2, 68, 100
1, 328318, Note_off_c, 2, 77, 100
1, 328318, Note_on_c, 1, 80, 122
1, 328319, Note_on_c, 2, 68, 127
1, 328319, Note_on_c, 4, 51, 127
1, 328320, Note_on_c, 2, 72, 127
1, 328329, Note_off_c, 4, 56, 100
1, 328427, Note_on_c, 4, 54, 127
1, 328437, Note_off_c, 4, 51, 100
1, 328521, Note_on_c, 1, 78, 117
1, 328522, Note_on_c, 4, 56, 127
1, 328532, Note_off_c, 4, 54, 100
1, 328537, Note_off_c, 1, 80, 100
1, 328626, Note_on_c, 4, 54, 127
1, 328635, Note_off_c, 4, 56, 100
1, 328716, Note_on_c, 4, 51, 127
1, 328726, Note_off_c, 4, 54, 100
1, 328797, Note_on_c, 4, 54, 127
1, 328804, Note_off_c, 4, 51, 100
1, 328877, Note_off_c, 2, 68, 100
1, 328879, Note_off_c, 2, 72, 100
1, 328885, Note_on_c, 2, 68, 127
1, 328885, Note_on_c, 4, 56, 127
1, 328888, Note_on_c, 2, 72, 127
1, 328894, Note_off_c, 4, 54, 100
1, 328989, Note_on_c, 4, 54, 127
1, 328996, Note_off_c, 4, 56, 100
1, 329069, Note_off_c, 2, 68, 100
1, 329070, Note_off_c, 2, 72, 100
1, 329075, Note_on_c, 2, 68, 127
1, 329076, Note_on_c, 2, 72, 127
1, 329076, Note_on_c, 4, 51, 127
1, 329084, Note_off_c, 4, 54, 100
1, 329166, Note_on_c, 4, 54, 127
1, 329174, Note_off_c, 4, 51, 100
1, 329243, Note_off_c, 2, 68, 100
1, 329245, Note_off_c, 2, 72, 100
1, 329249, Note_on_c, 2, 68, 127
1, 329250, Note_on_c, 4, 56, 127
1, 329252, Note_on_c, 2, 72, 127
1, 329259, Note_off_c, 4, 54, 100
1, 329342, Note_on_c, 4, 54, 127
1, 329351, Note_off_c, 4, 56, 100
1, 329425, Note_off_c, 2, 68, 100
1, 329426, Note_off_c, 2, 72, 100
1, 329431, Note_off_c, 1, 78, 100
1, 329432, Note_on_c, 2, 68, 127
1, 329432, Note_on_c, 1, 78, 121
1, 329433, Note_on_c, 2, 73, 127
1, 329433, Note_on_c, 4, 49, 127
1, 329443, Note_off_c, 4, 54, 100
1, 329533, Note_on_c, 4, 52, 127
1, 329543, Note_off_c, 4, 49, 100
1, 329626, Note_off_c, 1, 78, 100
1, 329626, Note_on_c, 2, 76, 123
1, 329626, Note_on_c, 4, 56, 127
1, 329634, Note_off_c, 4, 52, 100
1, 329721, Note_on_c, 4, 52, 127
1, 329728, Note_off_c, 4, 56, 100
1, 329811, Note_on_c, 4, 49, 127
1, 329817, Note_off_c, 4, 52, 100
1, 329899, Note_on_c, 4, 52, 127
1, 329908, Note_off_c, 4, 49, 100
1, 329983, Note_off_c, 2, 76, 100
1, 329987, Note_off_c, 2, 68, 100
1, 329995, Note_on_c, 2, 76, 120
1, 329996, Note_on_c, 2, 68, 127
1, 329996, Note_on_c, 4, 56, 127
1, 330003, Note_off_c, 4, 52, 100
1, 330094, Note_on_c, 4, 52, 127
1, 330103, Note_off_c, 4, 56, 100
1, 330180, Note_off_c, 2, 76, 100
1, 330180, Note_off_c, 2, 68, 100
1, 330187, Note_on_c, 2, 76, 120
1, 330188, Note_on_c, 2, 68, 127
1, 330188, Note_on_c, 4, 47, 127
1, 330198, Note_off_c, 4, 52, 100
1, 330280, Note_on_c, 4, 51, 127
1, 330290, Note_off_c, 4, 47, 100
1, 330363, Note_off_c, 2, 76, 100
1, 330363, Note_off_c, 2, 68, 100
1, 330368, Note_on_c, 2, 76, 120
1, 330368, Note_on_c, 2, 68, 127
1, 330369, Note_on_c, 4, 56, 127
1, 330376, Note_off_c, 4, 51, 100
1, 330455, Note_on_c, 4, 51, 127
1, 330465, Note_off_c, 4, 56, 100
1, 330547, Note_off_c, 2, 68, 100
1, 330548, Note_off_c, 2, 76, 100
1, 330554, Note_on_c, 2, 68, 127
1, 330554, Note_on_c, 2, 75, 123
1, 330555, Note_on_c, 4, 53, 127
1, 330555, Note_on_c, 4, 46, 127
1, 330556, Note_off_c, 2, 73, 100
1, 330565, Note_off_c, 4, 51, 100
1, 330794, Note_off_c, 2, 75, 100
1, 330825, Note_on_c, 2, 77, 120
1, 330878, Note_on_c, 2, 75, 123
1, 330884, Note_off_c, 2, 77, 100
1, 330930, Note_on_c, 2, 74, 125
1, 330938, Note_off_c, 2, 75, 100
1, 331124, Note_off_c, 4, 46, 100
1, 331125, Note_off_c, 2, 68, 100
1, 331125, Note_off_c, 4, 53, 100
1, 331131, Note_on_c, 2, 68, 127
1, 331131, Note_on_c, 4, 62, 127
1, 331132, Note_on_c, 4, 48, 127
1, 331132, Note_on_c, 4, 41, 127
1, 331304, Note_off_c, 4, 41, 100
1, 331304, Note_off_c, 4, 48, 100
1, 331305, Note_off_c, 4, 62, 100
1, 331305, Note_off_c, 2, 68, 100
1, 331313, Note_on_c, 2, 68, 127
1, 331314, Note_on_c, 4, 62, 127
1, 331314, Note_on_c, 4, 48, 127
1, 331315, Note_on_c, 4, 41, 127
1, 331496, Note_off_c, 4, 48, 100
1, 331496, Note_off_c, 4, 41, 100
1, 331497, Note_off_c, 2, 68, 100
1, 331497, Note_off_c, 4, 62, 100
1, 331505, Note_on_c, 2, 68, 127
1, 331506, Note_on_c, 4, 62, 127
1, 331506, Note_on_c, 4, 48, 127
1, 331507, Note_on_c, 4, 41, 127
1, 331688, Note_off_c, 4, 48, 100
1, 331688, Note_off_c, 4, 41, 100
1, 331689, Note_off_c, 2, 68, 100
1, 331689, Note_off_c, 4, 62, 100
1, 331698, Note_on_c, 2, 68, 127
1, 331698, Note_on_c, 4, 62, 127
1, 331699, Note_on_c, 4, 48, 127
1, 331699, Note_on_c, 4, 41, 127
1, 332159, Note_off_c, 2, 74, 100
1, 332197, Note_off_c, 4, 41, 100
1, 332197, Note_off_c, 4, 48, 100
1, 332198, Note_off_c, 4, 62, 100
1, 332198, Note_off_c, 2, 68, 100
1, 332199, Note_on_c, 1, 80, 114
1, 332199, Note_on_c, 2, 74, 123
1, 332199, Note_on_c, 2, 65, 127
1, 332200, Note_on_c, 4, 58, 127
1, 332390, Note_off_c, 4, 58, 100
1, 332391, Note_off_c, 2, 65, 100
1, 332391, Note_off_c, 2, 74, 100
1, 332392, Note_off_c, 1, 80, 100
1, 332399, Note_on_c, 1, 80, 114
1, 332399, Note_on_c, 2, 74, 123
1, 332400, Note_on_c, 2, 65, 127
1, 332400, Note_on_c, 4, 58, 127
1, 332584, Note_off_c, 4, 58, 100
1, 332585, Note_off_c, 2, 65, 100
1, 332586, Note_off_c, 2, 74, 100
1, 332586, Note_off_c, 1, 80, 100
1, 332592, Note_on_c, 1, 80, 114
1, 332593, Note_on_c, 2, 74, 123
1, 332593, Note_on_c, 2, 65, 127
1, 332594, Note_on_c, 4, 58, 127
1, 332796, Note_off_c, 2, 65, 100
1, 332796, Note_off_c, 4, 58, 100
1, 332797, Note_off_c, 1, 80, 100
1, 332797, Note_off_c, 2, 74, 100
1, 332806, Note_on_c, 2, 74, 123
1, 332806, Note_on_c, 1, 80, 114
1, 332807, Note_on_c, 4, 58, 127
1, 332807, Note_on_c, 2, 65, 127
1, 332898, Note_off_c, 1, 80, 100
1, 332944, Note_on_c, 1, 82, 114
1, 332994, Note_on_c, 1, 80, 114
1, 333001, Note_off_c, 1, 82, 100
1, 333044, Note_on_c, 1, 79, 114
1, 333049, Note_off_c, 1, 80, 100
1, 333096, Note_on_c, 1, 80, 114
1, 333101, Note_off_c, 1, 79, 100
1, 333147, Note_on_c, 1, 82, 114
1, 333154, Note_off_c, 1, 80, 100
1, 333196, Note_on_c, 1, 84, 119
1, 333202, Note_off_c, 1, 82, 100
1, 333260, Note_on_c, 1, 82, 114
1, 333267, Note_off_c, 1, 84, 100
1, 333356, Note_on_c, 1, 80, 114
1, 333365, Note_off_c, 1, 82, 100
1, 333448, Note_off_c, 2, 74, 100
1, 333448, Note_on_c, 1, 79, 114
1, 333456, Note_off_c, 1, 80, 100
1, 333541, Note_on_c, 2, 77, 118
1, 333551, Note_off_c, 1, 79, 100
1, 333631, Note_off_c, 2, 65, 100
1, 333632, Note_on_c, 2, 75, 121
1, 333642, Note_off_c, 2, 77, 100
1, 333726, Note_on_c, 2, 74, 123
1, 333736, Note_off_c, 2, 75, 100
1, 333822, Note_on_c, 2, 72, 125
1, 333832, Note_off_c, 2, 74, 100
1, 333922, Note_on_c, 2, 70, 127
1, 333932, Note_off_c, 2, 72, 100
1, 334016, Note_off_c, 2, 70, 100
1, 334024, Note_off_c, 4, 58, 100
1, 334024, Note_on_c, 2, 70, 127
1, 334025, Note_on_c, 4, 51, 127
1, 334027, Note_on_c, 2, 67, 127
1, 334308, Note_off_c, 2, 70, 100
1, 334330, Note_off_c, 2, 67, 100
1, 334344, Note_on_c, 2, 72, 125
1, 334394, Note_on_c, 2, 68, 127
1, 334399, Note_off_c, 2, 72, 100
1, 334430, Note_off_c, 2, 68, 100
1, 334440, Note_on_c, 2, 68, 127
1, 334440, Note_on_c, 2, 65, 127
1, 334639, Note_on_c, 2, 67, 127
1, 334639, Note_on_c, 2, 63, 127
1, 334655, Note_off_c, 2, 65, 100
1, 334656, Note_off_c, 2, 68, 100
1, 334833, Note_on_c, 2, 72, 125
1, 334833, Note_on_c, 2, 68, 127
1, 334845, Note_off_c, 2, 63, 100
1, 334846, Note_off_c, 2, 67, 100
1, 335017, Note_on_c, 2, 70, 127
1, 335017, Note_on_c, 2, 67, 127
1, 335031, Note_off_c, 2, 68, 100
1, 335032, Note_off_c, 2, 72, 100
1, 335184, Note_off_c, 4, 51, 100
1, 335194, Note_off_c, 2, 67, 100
1, 335194, Note_off_c, 2, 70, 100
1, 335198, Note_on_c, 2, 70, 127
1, 335199, Note_on_c, 2, 67, 127
1, 335199, Note_on_c, 4, 51, 127
1, 335303, Note_on_c, 4, 55, 127
1, 335313, Note_off_c, 4, 51, 100
1, 335399, Note_on_c, 4, 58, 127
1, 335409, Note_off_c, 4, 55, 100
1, 335468, Note_off_c, 2, 67, 100
1, 335469, Note_off_c, 2, 70, 100
1, 335508, Note_on_c, 2, 72, 125
1, 335508, Note_on_c, 4, 51, 127
1, 335518, Note_off_c, 4, 58, 100
1, 335555, Note_on_c, 2, 70, 127
1, 335570, Note_off_c, 2, 72, 100
1, 335606, Note_off_c, 2, 70, 100
1, 335610, Note_on_c, 2, 68, 127
1, 335611, Note_on_c, 4, 53, 127
1, 335621, Note_off_c, 4, 51, 100
1, 335705, Note_on_c, 4, 56, 127
1, 335713, Note_off_c, 4, 53, 100
1, 335799, Note_on_c, 4, 62, 127
1, 335809, Note_off_c, 4, 56, 100
1, 335890, Note_on_c, 4, 53, 127
1, 335899, Note_off_c, 4, 62, 100
1, 335982, Note_off_c, 2, 68, 100
1, 335982, Note_on_c, 2, 67, 127
1, 335983, Note_on_c, 4, 55, 127
1, 335991, Note_off_c, 4, 53, 100
1, 336078, Note_on_c, 4, 58, 127
1, 336087, Note_off_c, 4, 55, 100
1, 336168, Note_on_c, 2, 63, 127
1, 336178, Note_off_c, 4, 58, 100
1, 336266, Note_on_c, 4, 55, 127
1, 336277, Note_off_c, 2, 63, 100
1, 336354, Note_off_c, 2, 67, 100
1, 336366, Note_on_c, 4, 60, 127
1, 336366, Note_on_c, 2, 67, 127
1, 336367, Note_on_c, 4, 56, 127
1, 336376, Note_off_c, 4, 55, 100
1, 336467, Note_on_c, 2, 64, 127
1, 336476, Note_off_c, 2, 67, 100
1, 336561, Note_on_c, 2, 65, 127
1, 336569, Note_off_c, 2, 64, 100
1, 336649, Note_on_c, 2, 67, 127
1, 336657, Note_off_c, 2, 65, 100
1, 336738, Note_on_c, 2, 68, 127
1, 336745, Note_off_c, 2, 67, 100
1, 336822, Note_on_c, 2, 69, 127
1, 336832, Note_off_c, 2, 68, 100
1, 336909, Note_on_c, 2, 70, 127
1, 336918, Note_off_c, 2, 69, 100
1, 336999, Note_on_c, 2, 71, 127
1, 337010, Note_off_c, 2, 70, 100
1, 337103, Note_on_c, 2, 74, 123
1, 337110, Note_off_c, 2, 71, 100
1, 337151, Note_on_c, 2, 72, 125
1, 337158, Note_off_c, 2, 74, 100
1, 337202, Note_on_c, 2, 71, 127
1, 337210, Note_off_c, 2, 72, 100
1, 337256, Note_on_c, 2, 72, 125
1, 337262, Note_off_c, 2, 71, 100
1, 337298, Note_on_c, 2, 70, 127
1, 337304, Note_off_c, 2, 72, 100
1, 337344, Note_on_c, 2, 68, 127
1, 337350, Note_off_c, 2, 70, 100
1, 337392, Note_on_c, 2, 67, 127
1, 337400, Note_off_c, 2, 68, 100
1, 337442, Note_on_c, 2, 65, 127
1, 337448, Note_off_c, 2, 67, 100
1, 337500, Note_off_c, 4, 60, 100
1, 337500, Note_on_c, 2, 63, 127
1, 337501, Note_off_c, 4, 56, 100
1, 337501, Note_on_c, 4, 44, 127
1, 337504, Note_on_c, 4, 55, 127
1, 337508, Note_off_c, 2, 65, 100
1, 337596, Note_on_c, 4, 46, 127
1, 337608, Note_off_c, 4, 44, 100
1, 337682, Note_on_c, 4, 48, 127
1, 337692, Note_off_c, 4, 46, 100
1, 337767, Note_on_c, 4, 46, 127
1, 337775, Note_off_c, 4, 48, 100
1, 337855, Note_off_c, 4, 46, 100
1, 337861, Note_off_c, 2, 63, 100
1, 337861, Note_on_c, 4, 62, 127
1, 337862, Note_off_c, 4, 55, 100
1, 337862, Note_on_c, 4, 46, 127
1, 337863, Note_on_c, 4, 53, 127
1, 337905, Note_on_c, 4, 58, 127
1, 337911, Note_off_c, 4, 62, 100
1, 337953, Note_on_c, 4, 57, 127
1, 337961, Note_off_c, 4, 58, 100
1, 338001, Note_on_c, 4, 58, 127
1, 338009, Note_off_c, 4, 57, 100
1, 338051, Note_on_c, 4, 59, 127
1, 338059, Note_off_c, 4, 58, 100
1, 338103, Note_on_c, 4, 60, 127
1, 338109, Note_off_c, 4, 59, 100
1, 338149, Note_on_c, 4, 61, 127
1, 338155, Note_off_c, 4, 60, 100
1, 338197, Note_on_c, 4, 62, 127
1, 338205, Note_off_c, 4, 61, 100
1, 338243, Note_on_c, 2, 63, 127
1, 338249, Note_off_c, 4, 62, 100
1, 338287, Note_on_c, 2, 64, 127
1, 338293, Note_off_c, 2, 63, 100
1, 338336, Note_on_c, 2, 65, 127
1, 338340, Note_off_c, 2, 64, 100
1, 338382, Note_on_c, 2, 66, 127
1, 338388, Note_off_c, 2, 65, 100
1, 338428, Note_on_c, 2, 67, 127
1, 338434, Note_off_c, 2, 66, 100
1, 338472, Note_on_c, 2, 68, 127
1, 338480, Note_off_c, 2, 67, 100
1, 338522, Note_on_c, 2, 69, 127
1, 338528, Note_off_c, 2, 68, 100
1, 338568, Note_on_c, 2, 70, 127
1, 338573, Note_off_c, 2, 69, 100
1, 338608, Note_off_c, 2, 70, 100
1, 338612, Note_on_c, 2, 70, 127
1, 338612, Note_on_c, 2, 67, 127
1, 338613, Note_on_c, 4, 39, 127
1, 338613, Note_on_c, 4, 51, 127
1, 338614, Note_off_c, 4, 46, 100
1, 338614, Note_off_c, 4, 53, 100
1, 338897, Note_off_c, 2, 67, 100
1, 338897, Note_off_c, 2, 70, 100
1, 338898, Note_on_c, 2, 72, 125
1, 338940, Note_on_c, 2, 70, 127
1, 338948, Note_off_c, 2, 72, 100
1, 338987, Note_on_c, 2, 68, 127
1, 338992, Note_off_c, 2, 70, 100
1, 339035, Note_on_c, 2, 67, 127
1, 339042, Note_off_c, 2, 68, 100
1, 339084, Note_on_c, 2, 72, 125
1, 339092, Note_off_c, 2, 67, 100
1, 339132, Note_on_c, 2, 70, 127
1, 339137, Note_off_c, 2, 72, 100
1, 339178, Note_on_c, 2, 75, 121
1, 339183, Note_off_c, 2, 70, 100
1, 339222, Note_on_c, 2, 74, 123
1, 339229, Note_off_c, 2, 75, 100
1, 339272, Note_on_c, 2, 77, 118
1, 339279, Note_off_c, 2, 74, 100
1, 339322, Note_on_c, 2, 75, 121
1, 339329, Note_off_c, 2, 77, 100
1, 339352, Note_off_c, 4, 51, 100
1, 339368, Note_on_c, 4, 60, 127
1, 339368, Note_on_c, 1, 80, 114
1, 339369, Note_on_c, 4, 51, 127
1, 339374, Note_off_c, 2, 75, 100
1, 339413, Note_on_c, 1, 79, 114
1, 339417, Note_off_c, 1, 80, 100
1, 339453, Note_on_c, 1, 78, 115
1, 339459, Note_off_c, 1, 79, 100
1, 339497, Note_on_c, 1, 79, 114
1, 339503, Note_off_c, 1, 78, 100
1, 339543, Note_on_c, 2, 77, 118
1, 339549, Note_off_c, 1, 79, 100
1, 339589, Note_on_c, 2, 75, 121
1, 339597, Note_off_c, 2, 77, 100
1, 339636, Note_on_c, 2, 74, 123
1, 339641, Note_off_c, 2, 75, 100
1, 339682, Note_on_c, 2, 72, 125
1, 339689, Note_off_c, 2, 74, 100
1, 339722, Note_off_c, 4, 60, 100
1, 339732, Note_off_c, 4, 51, 100
1, 339732, Note_on_c, 4, 60, 127
1, 339732, Note_on_c, 2, 70, 127
1, 339733, Note_on_c, 4, 53, 127
1, 339739, Note_off_c, 2, 72, 100
1, 339918, Note_on_c, 2, 69, 127
1, 339932, Note_off_c, 2, 70, 100
1, 340093, Note_off_c, 4, 53, 100
1, 340094, Note_off_c, 4, 60, 100
1, 340094, Note_on_c, 4, 62, 127
1, 340095, Note_on_c, 4, 58, 127
1, 340262, Note_off_c, 4, 58, 100
1, 340268, Note_off_c, 2, 69, 100
1, 340269, Note_on_c, 2, 68, 127
1, 340269, Note_on_c, 4, 58, 127
1, 340442, Note_off_c, 4, 58, 100
1, 340442, Note_off_c, 2, 68, 100
1, 340449, Note_off_c, 4, 62, 100
1, 340449, Note_on_c, 2, 68, 127
1, 340450, Note_on_c, 2, 63, 127
1, 340450, Note_on_c, 4, 60, 127
1, 340548, Note_on_c, 2, 67, 127
1, 340557, Note_off_c, 2, 68, 100
1, 340640, Note_on_c, 4, 55, 127
1, 340640, Note_on_c, 2, 75, 121
1, 340650, Note_off_c, 2, 67, 100
1, 340656, Note_off_c, 4, 60, 100
1, 340657, Note_off_c, 2, 63, 100
1, 340720, Note_on_c, 2, 73, 127
1, 340730, Note_off_c, 2, 75, 100
1, 340816, Note_on_c, 2, 71, 127
1, 340817, Note_on_c, 2, 63, 127
1, 340817, Note_on_c, 4, 56, 127
1, 340825, Note_off_c, 2, 73, 100
1, 340831, Note_off_c, 4, 55, 100
1, 340906, Note_on_c, 2, 72, 125
1, 340913, Note_off_c, 2, 71, 100
1, 341005, Note_on_c, 2, 74, 123
1, 341015, Note_off_c, 2, 72, 100
1, 341094, Note_on_c, 2, 75, 121
1, 341105, Note_off_c, 2, 74, 100
1, 341155, Note_off_c, 4, 39, 100
1, 341178, Note_off_c, 2, 75, 100
1, 341186, Note_off_c, 4, 56, 100
1, 341186, Note_off_c, 2, 63, 100
1, 341187, Note_on_c, 4, 55, 127
1, 341187, Note_on_c, 2, 75, 121
1, 341188, Note_on_c, 4, 46, 127
1, 341370, Note_on_c, 2, 70, 127
1, 341386, Note_off_c, 2, 75, 100
1, 341558, Note_off_c, 2, 70, 100
1, 341565, Note_off_c, 4, 55, 100
1, 341565, Note_on_c, 4, 56, 127
1, 341565, Note_on_c, 2, 70, 127
1, 341646, Note_on_c, 2, 72, 125
1, 341654, Note_off_c, 2, 70, 100
1, 341702, Note_on_c, 2, 70, 127
1, 341707, Note_off_c, 2, 72, 100
1, 341744, Note_off_c, 2, 70, 100
1, 341745, Note_on_c, 2, 70, 127
1, 341789, Note_on_c, 2, 68, 127
1, 341795, Note_off_c, 2, 70, 100
1, 341839, Note_on_c, 2, 67, 127
1, 341844, Note_off_c, 2, 68, 100
1, 341887, Note_on_c, 2, 65, 127
1, 341894, Note_off_c, 2, 67, 100
1, 341937, Note_off_c, 4, 56, 100
1, 341938, Note_off_c, 4, 46, 100
1, 341938, Note_on_c, 2, 63, 127
1, 341939, Note_on_c, 4, 51, 127
1, 341943, Note_off_c, 2, 65, 100
1, 342041, Note_on_c, 4, 55, 127
1, 342050, Note_off_c, 4, 51, 100
1, 342135, Note_on_c, 4, 58, 127
1, 342146, Note_off_c, 4, 55, 100
1, 342239, Note_on_c, 4, 55, 127
1, 342249, Note_off_c, 4, 58, 100
1, 342330, Note_on_c, 4, 51, 127
1, 342339, Note_off_c, 4, 55, 100
1, 342424, Note_on_c, 4, 55, 127
1, 342435, Note_off_c, 4, 51, 100
1, 342522, Note_off_c, 2, 63, 100
1, 342522, Note_on_c, 2, 70, 127
1, 342523, Note_on_c, 2, 67, 127
1, 342523, Note_on_c, 4, 58, 127
1, 342529, Note_off_c, 4, 55, 100
1, 342620, Note_on_c, 4, 55, 127
1, 342629, Note_off_c, 4, 58, 100
1, 342706, Note_off_c, 2, 70, 100
1, 342708, Note_off_c, 2, 67, 100
1, 342712, Note_on_c, 2, 70, 127
1, 342712, Note_on_c, 4, 51, 127
1, 342715, Note_on_c, 2, 67, 127
1, 342722, Note_off_c, 4, 55, 100
1, 342811, Note_on_c, 4, 55, 127
1, 342818, Note_off_c, 4, 51, 100
1, 342897, Note_off_c, 2, 70, 100
1, 342899, Note_off_c, 2, 67, 100
1, 342905, Note_on_c, 2, 70, 127
1, 342905, Note_on_c, 4, 58, 127
1, 342906, Note_on_c, 2, 67, 127
1, 342913, Note_off_c, 4, 55, 100
1, 343000, Note_on_c, 4, 55, 127
1, 343011, Note_off_c, 4, 58, 100
1, 343090, Note_off_c, 2, 70, 100
1, 343091, Note_off_c, 2, 67, 100
1, 343096, Note_on_c, 2, 75, 124
1, 343096, Note_on_c, 4, 51, 127
1, 343097, Note_on_c, 2, 68, 127
1, 343106, Note_off_c, 4, 55, 100
1, 343197, Note_on_c, 4, 53, 127
1, 343206, Note_off_c, 4, 51, 100
1, 343302, Note_on_c, 2, 74, 126
1, 343303, Note_on_c, 4, 56, 127
1, 343315, Note_off_c, 4, 53, 100
1, 343322, Note_off_c, 2, 75, 100
1, 343400, Note_on_c, 4, 53, 127
1, 343408, Note_off_c, 4, 56, 100
1, 343490, Note_on_c, 4, 51, 127
1, 343500, Note_off_c, 4, 53, 100
1, 343577, Note_on_c, 4, 53, 127
1, 343584, Note_off_c, 4, 51, 100
1, 343664, Note_off_c, 2, 74, 100
1, 343664, Note_on_c, 1, 82, 114
1, 343664, Note_on_c, 4, 56, 127
1, 343672, Note_off_c, 4, 53, 100
1, 343763, Note_on_c, 1, 80, 114
1, 343763, Note_on_c, 4, 53, 127
1, 343771, Note_off_c, 4, 56, 100
1, 343771, Note_off_c, 1, 82, 100
1, 343859, Note_on_c, 1, 79, 114
1, 343859, Note_on_c, 4, 51, 127
1, 343867, Note_off_c, 4, 53, 100
1, 343867, Note_off_c, 1, 80, 100
1, 343945, Note_on_c, 2, 77, 118
1, 343945, Note_on_c, 4, 53, 127
1, 343953, Note_off_c, 4, 51, 100
1, 343954, Note_off_c, 1, 79, 100
1, 344039, Note_on_c, 2, 75, 121
1, 344040, Note_on_c, 4, 56, 127
1, 344049, Note_off_c, 4, 53, 100
1, 344050, Note_off_c, 2, 77, 100
1, 344140, Note_on_c, 2, 74, 116
1, 344140, Note_on_c, 4, 53, 127
1, 344150, Note_off_c, 4, 56, 100
1, 344150, Note_off_c, 2, 75, 100
1, 344230, Note_on_c, 2, 77, 107
1, 344231, Note_on_c, 4, 51, 127
1, 344240, Note_off_c, 4, 53, 100
1, 344241, Note_off_c, 2, 74, 100
1, 344309, Note_off_c, 2, 77, 100
1, 344325, Note_on_c, 2, 75, 110
1, 344326, Note_on_c, 4, 55, 127
1, 344335, Note_off_c, 4, 51, 100
1, 344351, Note_on_c, 2, 77, 107
1, 344362, Note_off_c, 2, 75, 64
1, 344376, Note_on_c, 2, 75, 110
1, 344388, Note_off_c, 2, 77, 64
1, 344406, Note_on_c, 2, 77, 107
1, 344417, Note_off_c, 2, 75, 64
1, 344433, Note_on_c, 2, 75, 110
1, 344433, Note_on_c, 4, 58, 127
1, 344443, Note_off_c, 4, 55, 100
1, 344445, Note_off_c, 2, 77, 64
1, 344460, Note_on_c, 2, 77, 107
1, 344476, Note_off_c, 2, 75, 64
1, 344491, Note_on_c, 2, 74, 112
1, 344505, Note_off_c, 2, 77, 64
1, 344520, Note_off_c, 2, 74, 64
1, 344520, Note_on_c, 2, 75, 110
1, 344546, Note_off_c, 2, 75, 64
1, 344546, Note_on_c, 2, 74, 112
1, 344547, Note_on_c, 4, 55, 127
1, 344549, Note_off_c, 2, 68, 100
1, 344558, Note_off_c, 4, 58, 100
1, 344599, Note_off_c, 2, 74, 100
1, 344606, Note_on_c, 2, 72, 114
1, 344658, Note_off_c, 2, 72, 100
1, 344662, Note_on_c, 2, 70, 127
1, 344663, Note_on_c, 4, 51, 127
1, 344673, Note_off_c, 4, 55, 100
1, 344759, Note_on_c, 4, 55, 127
1, 344771, Note_off_c, 4, 51, 100
1, 344855, Note_off_c, 2, 70, 100
1, 344861, Note_on_c, 2, 70, 127
1, 344861, Note_on_c, 4, 58, 127
1, 344862, Note_on_c, 2, 67, 127
1, 344869, Note_off_c, 4, 55, 100
1, 344956, Note_on_c, 4, 55, 127
1, 344965, Note_off_c, 4, 58, 100
1, 345044, Note_off_c, 2, 70, 100
1, 345045, Note_off_c, 2, 67, 100
1, 345050, Note_on_c, 2, 70, 127
1, 345050, Note_on_c, 4, 51, 127
1, 345053, Note_on_c, 2, 67, 127
1, 345060, Note_off_c, 4, 55, 100
1, 345149, Note_on_c, 4, 55, 127
1, 345158, Note_off_c, 4, 51, 100
1, 345237, Note_off_c, 2, 70, 100
1, 345238, Note_off_c, 2, 67, 100
1, 345243, Note_on_c, 2, 70, 127
1, 345243, Note_on_c, 4, 58, 127
1, 345244, Note_on_c, 2, 67, 127
1, 345252, Note_off_c, 4, 55, 100
1, 345336, Note_on_c, 4, 55, 127
1, 345344, Note_off_c, 4, 58, 100
1, 345420, Note_off_c, 2, 70, 100
1, 345422, Note_off_c, 2, 67, 100
1, 345426, Note_on_c, 2, 75, 124
1, 345427, Note_on_c, 4, 51, 127
1, 345429, Note_on_c, 2, 68, 127
1, 345441, Note_off_c, 4, 55, 100
1, 345544, Note_on_c, 2, 74, 126
1, 345545, Note_on_c, 4, 55, 127
1, 345555, Note_off_c, 4, 51, 100
1, 345555, Note_off_c, 2, 75, 100
1, 345663, Note_on_c, 1, 84, 122
1, 345664, Note_on_c, 4, 58, 127
1, 345670, Note_off_c, 4, 55, 100
1, 345671, Note_off_c, 2, 74, 100
1, 345754, Note_on_c, 4, 55, 127
1, 345763, Note_off_c, 4, 58, 100
1, 345853, Note_on_c, 4, 51, 127
1, 345865, Note_off_c, 4, 55, 100
1, 345956, Note_on_c, 4, 53, 127
1, 345965, Note_off_c, 4, 51, 100
1, 346048, Note_off_c, 1, 84, 100
1, 346048, Note_on_c, 1, 82, 107
1, 346049, Note_on_c, 4, 58, 127
1, 346056, Note_off_c, 4, 53, 100
1, 346101, Note_on_c, 1, 80, 107
1, 346106, Note_off_c, 1, 82, 100
1, 346143, Note_on_c, 1, 84, 112
1, 346143, Note_on_c, 4, 53, 127
1, 346149, Note_off_c, 1, 80, 100
1, 346151, Note_off_c, 4, 58, 100
1, 346192, Note_on_c, 1, 80, 107
1, 346199, Note_off_c, 1, 84, 100
1, 346240, Note_on_c, 4, 51, 127
1, 346240, Note_on_c, 1, 79, 107
1, 346246, Note_off_c, 1, 80, 100
1, 346250, Note_off_c, 4, 53, 100
1, 346287, Note_on_c, 2, 77, 111
1, 346292, Note_off_c, 1, 79, 100
1, 346332, Note_on_c, 1, 80, 107
1, 346332, Note_on_c, 4, 53, 127
1, 346338, Note_off_c, 2, 77, 100
1, 346342, Note_off_c, 4, 51, 100
1, 346381, Note_on_c, 2, 77, 111
1, 346386, Note_off_c, 1, 80, 100
1, 346423, Note_on_c, 2, 75, 114
1, 346424, Note_on_c, 4, 56, 127
1, 346428, Note_off_c, 2, 77, 100
1, 346432, Note_off_c, 4, 53, 100
1, 346467, Note_on_c, 2, 74, 116
1, 346473, Note_off_c, 2, 75, 100
1, 346512, Note_on_c, 2, 77, 111
1, 346512, Note_on_c, 4, 53, 127
1, 346516, Note_off_c, 2, 74, 100
1, 346520, Note_off_c, 4, 56, 100
1, 346559, Note_on_c, 2, 74, 116
1, 346564, Note_off_c, 2, 77, 100
1, 346603, Note_on_c, 4, 55, 127
1, 346603, Note_on_c, 2, 75, 114
1, 346604, Note_on_c, 4, 51, 127
1, 346607, Note_off_c, 2, 74, 100
1, 346609, Note_off_c, 4, 53, 100
1, 346644, Note_on_c, 2, 77, 111
1, 346649, Note_off_c, 2, 75, 100
1, 346692, Note_on_c, 2, 75, 114
1, 346697, Note_off_c, 2, 77, 100
1, 346734, Note_on_c, 2, 74, 116
1, 346740, Note_off_c, 2, 75, 100
1, 346775, Note_on_c, 2, 75, 114
1, 346781, Note_off_c, 2, 74, 100
1, 346816, Note_on_c, 2, 77, 111
1, 346822, Note_off_c, 2, 75, 100
1, 346856, Note_on_c, 1, 78, 108
1, 346858, Note_off_c, 2, 68, 100
1, 346862, Note_off_c, 2, 77, 100
1, 346900, Note_on_c, 1, 79, 107
1, 346904, Note_off_c, 1, 78, 100
1, 346937, Note_on_c, 2, 70, 127
1, 346941, Note_off_c, 1, 79, 100
1, 347119, Note_off_c, 4, 55, 100
1, 347123, Note_off_c, 2, 70, 100
1, 347127, Note_off_c, 4, 51, 100
1, 347127, Note_on_c, 2, 70, 127
1, 347128, Note_on_c, 2, 67, 127
1, 347128, Note_on_c, 4, 55, 127
1, 347317, Note_off_c, 2, 70, 100
1, 347317, Note_off_c, 4, 55, 100
1, 347320, Note_off_c, 2, 67, 100
1, 347324, Note_on_c, 2, 68, 127
1, 347324, Note_on_c, 4, 56, 127
1, 347325, Note_on_c, 2, 65, 127
1, 347509, Note_off_c, 4, 56, 100
1, 347509, Note_off_c, 2, 68, 100
1, 347512, Note_off_c, 2, 65, 100
1, 347514, Note_on_c, 2, 67, 127
1, 347514, Note_on_c, 4, 57, 127
1, 347515, Note_on_c, 2, 63, 127
1, 347720, Note_off_c, 4, 57, 100
1, 347721, Note_off_c, 2, 67, 100
1, 347721, Note_off_c, 2, 63, 100
1, 347725, Note_on_c, 2, 70, 127
1, 347727, Note_on_c, 4, 58, 127
1, 347729, Note_on_c, 2, 63, 127
1, 347838, Note_on_c, 2, 69, 127
1, 347852, Note_off_c, 2, 70, 100
1, 347928, Note_on_c, 2, 70, 127
1, 347946, Note_off_c, 2, 69, 100
1, 348026, Note_on_c, 2, 67, 127
1, 348044, Note_off_c, 2, 70, 100
1, 348107, Note_off_c, 4, 58, 100
1, 348117, Note_on_c, 2, 65, 127
1, 348119, Note_on_c, 4, 58, 127
1, 348120, Note_off_c, 2, 63, 100
1, 348122, Note_on_c, 4, 62, 127
1, 348136, Note_off_c, 2, 67, 100
1, 348218, Note_on_c, 4, 59, 127
1, 348229, Note_off_c, 4, 58, 100
1, 348320, Note_on_c, 4, 60, 127
1, 348330, Note_off_c, 4, 59, 100
1, 348426, Note_on_c, 4, 58, 127
1, 348435, Note_off_c, 4, 60, 100
1, 348506, Note_off_c, 4, 58, 100
1, 348511, Note_on_c, 4, 58, 127
1, 348605, Note_on_c, 4, 56, 127
1, 348614, Note_off_c, 4, 58, 100
1, 348701, Note_on_c, 4, 55, 127
1, 348710, Note_off_c, 4, 56, 100
1, 348804, Note_on_c, 4, 53, 127
1, 348814, Note_off_c, 4, 55, 100
1, 348909, Note_off_c, 2, 65, 100
1, 348910, Note_on_c, 2, 70, 127
1, 348910, Note_on_c, 4, 51, 127
1, 348915, Note_off_c, 4, 62, 100
1, 348920, Note_off_c, 4, 53, 100
1, 349015, Note_on_c, 1, 82, 114
1, 349116, Note_on_c, 4, 55, 127
1, 349132, Note_off_c, 4, 51, 100
1, 349132, Note_off_c, 2, 70, 100
1, 349304, Note_on_c, 4, 58, 127
1, 349319, Note_off_c, 4, 55, 100
1, 349492, Note_off_c, 1, 82, 100
1, 349492, Note_on_c, 1, 80, 114
1, 349493, Note_on_c, 2, 63, 127
1, 349506, Note_off_c, 4, 58, 100
1, 349533, Note_on_c, 1, 79, 114
1, 349539, Note_off_c, 1, 80, 100
1, 349575, Note_on_c, 2, 77, 118
1, 349581, Note_off_c, 1, 79, 100
1, 349621, Note_on_c, 2, 75, 121
1, 349627, Note_off_c, 2, 77, 100
1, 349668, Note_on_c, 2, 74, 123
1, 349669, Note_on_c, 2, 68, 127
1, 349673, Note_off_c, 2, 75, 100
1, 349683, Note_off_c, 2, 63, 100
1, 349858, Note_on_c, 2, 75, 121
1, 349860, Note_on_c, 2, 67, 127
1, 349875, Note_off_c, 2, 74, 100
1, 349875, Note_off_c, 2, 68, 100
1, 350038, Note_on_c, 2, 77, 118
1, 350039, Note_on_c, 2, 74, 123
1, 350041, Note_on_c, 2, 68, 127
1, 350041, Note_on_c, 2, 65, 127
1, 350055, Note_off_c, 2, 75, 100
1, 350057, Note_off_c, 2, 67, 100
1, 350219, Note_off_c, 2, 77, 100
1, 350219, Note_off_c, 2, 74, 100
1, 350220, Note_off_c, 2, 65, 100
1, 350220, Note_off_c, 2, 68, 100
1, 350224, Note_on_c, 1, 80, 114
1, 350225, Note_on_c, 2, 75, 121
1, 350225, Note_on_c, 2, 67, 127
1, 350226, Note_on_c, 2, 63, 127
1, 350268, Note_on_c, 1, 79, 114
1, 350274, Note_off_c, 1, 80, 100
1, 350318, Note_on_c, 2, 77, 118
1, 350324, Note_off_c, 1, 79, 100
1, 350361, Note_on_c, 1, 79, 114
1, 350366, Note_off_c, 2, 77, 100
1, 350407, Note_on_c, 1, 80, 114
1, 350407, Note_on_c, 2, 77, 118
1, 350408, Note_on_c, 2, 65, 127
1, 350408, Note_on_c, 4, 62, 127
1, 350412, Note_off_c, 1, 79, 100
1, 350424, Note_off_c, 2, 75, 100
1, 350424, Note_off_c, 2, 63, 100
1, 350425, Note_off_c, 2, 67, 100
1, 350601, Note_on_c, 2, 70, 127
1, 350618, Note_off_c, 2, 77, 100
1, 350618, Note_off_c, 1, 80, 100
1, 350619, Note_off_c, 4, 62, 100
1, 350619, Note_off_c, 2, 65, 100
1, 350784, Note_off_c, 2, 70, 100
1, 350791, Note_on_c, 2, 70, 127
1, 350958, Note_off_c, 2, 70, 100
1, 350968, Note_on_c, 2, 70, 127
1, 351171, Note_on_c, 1, 80, 114
1, 351189, Note_off_c, 2, 70, 100
1, 351373, Note_on_c, 4, 60, 127
1, 351553, Note_on_c, 4, 62, 127
1, 351569, Note_off_c, 4, 60, 100
1, 351738, Note_off_c, 1, 80, 100
1, 351738, Note_on_c, 1, 82, 114
1, 351739, Note_on_c, 2, 65, 127
1, 351753, Note_off_c, 4, 62, 100
1, 351784, Note_on_c, 1, 80, 114
1, 351790, Note_off_c, 1, 82, 100
1, 351832, Note_on_c, 1, 79, 114
1, 351838, Note_off_c, 1, 80, 100
1, 351872, Note_on_c, 2, 77, 118
1, 351878, Note_off_c, 1, 79, 100
1, 351916, Note_on_c, 2, 75, 121
1, 351917, Note_on_c, 2, 67, 127
1, 351921, Note_off_c, 2, 77, 100
1, 351931, Note_off_c, 2, 65, 100
1, 352100, Note_on_c, 2, 77, 118
1, 352100, Note_on_c, 2, 68, 127
1, 352103, Note_on_c, 2, 74, 123
1, 352118, Note_off_c, 2, 75, 100
1, 352118, Note_off_c, 2, 67, 100
1, 352278, Note_on_c, 1, 79, 114
1, 352279, Note_on_c, 2, 70, 127
1, 352279, Note_on_c, 2, 67, 127
1, 352280, Note_on_c, 2, 75, 121
1, 352296, Note_off_c, 2, 68, 100
1, 352296, Note_off_c, 2, 77, 100
1, 352298, Note_off_c, 2, 74, 100
1, 352458, Note_off_c, 2, 67, 100
1, 352458, Note_off_c, 2, 70, 100
1, 352459, Note_off_c, 1, 79, 100
1, 352459, Note_off_c, 2, 75, 100
1, 352462, Note_on_c, 2, 77, 118
1, 352462, Note_on_c, 1, 82, 114
1, 352463, Note_on_c, 2, 68, 127
1, 352463, Note_on_c, 2, 65, 127
1, 352492, Note_off_c, 1, 82, 100
1, 352506, Note_on_c, 1, 80, 114
1, 352535, Note_off_c, 1, 80, 100
1, 352550, Note_on_c, 1, 79, 114
1, 352577, Note_off_c, 1, 79, 100
1, 352591, Note_on_c, 1, 80, 114
1, 352620, Note_off_c, 1, 80, 100
1, 352635, Note_on_c, 1, 82, 114
1, 352636, Note_on_c, 1, 79, 114
1, 352636, Note_on_c, 2, 67, 127
1, 352637, Note_on_c, 2, 63, 127
1, 352649, Note_off_c, 2, 65, 100
1, 352649, Note_off_c, 2, 68, 100
1, 352650, Note_off_c, 2, 77, 100
1, 352823, Note_on_c, 4, 51, 127
1, 352823, Note_on_c, 4, 39, 127
1, 353006, Note_off_c, 4, 39, 100
1, 353006, Note_off_c, 4, 51, 100
1, 353011, Note_on_c, 4, 51, 127
1, 353011, Note_on_c, 4, 39, 127
1, 353192, Note_off_c, 4, 39, 100
1, 353193, Note_off_c, 4, 51, 100
1, 353197, Note_on_c, 4, 51, 127
1, 353198, Note_on_c, 4, 39, 127
1, 353388, Note_off_c, 2, 63, 100
1, 353389, Note_off_c, 1, 82, 100
1, 353389, Note_off_c, 2, 67, 100
1, 353389, Note_off_c, 1, 79, 100
1, 353390, Note_on_c, 2, 73, 127
1, 353591, Note_off_c, 4, 39, 100
1, 353592, Note_off_c, 4, 51, 100
1, 353592, Note_on_c, 2, 63, 127
1, 353592, Note_on_c, 4, 55, 127
1, 353756, Note_off_c, 4, 55, 100
1, 353757, Note_off_c, 2, 63, 100
1, 353763, Note_off_c, 2, 73, 100
1, 353763, Note_on_c, 2, 75, 121
1, 353764, Note_on_c, 2, 63, 127
1, 353764, Note_on_c, 4, 55, 127
1, 353807, Note_on_c, 2, 73, 127
1, 353811, Note_off_c, 2, 75, 100
1, 353845, Note_on_c, 2, 72, 125
1, 353851, Note_off_c, 2, 73, 100
1, 353893, Note_on_c, 2, 73, 127
1, 353899, Note_off_c, 2, 72, 100
1, 353930, Note_off_c, 4, 55, 100
1, 353930, Note_off_c, 2, 63, 100
1, 353935, Note_on_c, 2, 75, 121
1, 353935, Note_on_c, 2, 63, 127
1, 353936, Note_on_c, 4, 55, 127
1, 353940, Note_off_c, 2, 73, 100
1, 354031, Note_on_c, 2, 77, 118
1, 354040, Note_off_c, 2, 75, 100
1, 354111, Note_off_c, 4, 55, 100
1, 354112, Note_off_c, 2, 63, 100
1, 354116, Note_on_c, 2, 75, 121
1, 354117, Note_on_c, 2, 63, 127
1, 354117, Note_on_c, 4, 55, 127
1, 354127, Note_off_c, 2, 77, 100
1, 354202, Note_on_c, 2, 73, 127
1, 354211, Note_off_c, 2, 75, 100
1, 354282, Note_off_c, 4, 55, 100
1, 354283, Note_off_c, 2, 63, 100
1, 354289, Note_on_c, 2, 63, 127
1, 354289, Note_on_c, 2, 72, 125
1, 354290, Note_on_c, 4, 55, 127
1, 354298, Note_off_c, 2, 73, 100
1, 354374, Note_on_c, 2, 71, 127
1, 354384, Note_off_c, 2, 72, 100
1, 354463, Note_off_c, 2, 71, 100
1, 354470, Note_on_c, 2, 71, 127
1, 354647, Note_off_c, 4, 55, 100
1, 354648, Note_off_c, 2, 63, 100
1, 354660, Note_on_c, 2, 63, 127
1, 354660, Note_on_c, 4, 55, 127
1, 354839, Note_off_c, 2, 71, 100
1, 354845, Note_off_c, 4, 55, 100
1, 354851, Note_on_c, 4, 56, 127
1, 354851, Note_on_c, 2, 71, 127
1, 354936, Note_on_c, 2, 72, 125
1, 354944, Note_off_c, 2, 71, 100
1, 355009, Note_off_c, 2, 63, 100
1, 355013, Note_off_c, 4, 56, 100
1, 355019, Note_on_c, 2, 75, 121
1, 355019, Note_on_c, 2, 63, 127
1, 355020, Note_on_c, 4, 56, 127
1, 355027, Note_off_c, 2, 72, 100
1, 355110, Note_on_c, 2, 74, 123
1, 355119, Note_off_c, 2, 75, 100
1, 355187, Note_off_c, 4, 56, 100
1, 355187, Note_off_c, 2, 63, 100
1, 355191, Note_on_c, 2, 77, 118
1, 355192, Note_on_c, 2, 63, 127
1, 355192, Note_on_c, 4, 56, 127
1, 355198, Note_off_c, 2, 74, 100
1, 355277, Note_on_c, 2, 75, 121
1, 355283, Note_off_c, 2, 77, 100
1, 355357, Note_off_c, 4, 56, 100
1, 355358, Note_off_c, 2, 63, 100
1, 355365, Note_on_c, 2, 74, 123
1, 355365, Note_on_c, 2, 63, 127
1, 355366, Note_on_c, 4, 56, 127
1, 355371, Note_off_c, 2, 75, 100
1, 355450, Note_on_c, 2, 72, 125
1, 355457, Note_off_c, 2, 74, 100
1, 355521, Note_off_c, 2, 63, 100
1, 355527, Note_on_c, 2, 63, 127
1, 355527, Note_on_c, 4, 55, 127
1, 355527, Note_on_c, 2, 70, 127
1, 355535, Note_off_c, 2, 72, 100
1, 355541, Note_off_c, 4, 56, 100
1, 355624, Note_on_c, 2, 71, 127
1, 355631, Note_off_c, 2, 70, 100
1, 355703, Note_off_c, 2, 63, 100
1, 355709, Note_on_c, 2, 72, 125
1, 355710, Note_on_c, 2, 63, 127
1, 355710, Note_on_c, 4, 56, 127
1, 355717, Note_off_c, 2, 71, 100
1, 355724, Note_off_c, 4, 55, 100
1, 355797, Note_on_c, 2, 73, 127
1, 355804, Note_off_c, 2, 72, 100
1, 355877, Note_off_c, 2, 63, 100
1, 355883, Note_on_c, 2, 74, 123
1, 355884, Note_on_c, 4, 55, 127
1, 355884, Note_on_c, 4, 46, 127
1, 355892, Note_off_c, 2, 73, 100
1, 355897, Note_off_c, 4, 56, 100
1, 355970, Note_on_c, 2, 75, 121
1, 355980, Note_off_c, 2, 74, 100
1, 356062, Note_off_c, 4, 46, 100
1, 356063, Note_off_c, 4, 55, 100
1, 356069, Note_on_c, 2, 63, 127
1, 356070, Note_on_c, 4, 55, 127
1, 356070, Note_on_c, 4, 46, 127
1, 356082, Note_off_c, 2, 75, 100
1, 356249, Note_off_c, 4, 46, 100
1, 356249, Note_off_c, 4, 55, 100
1, 356254, Note_on_c, 4, 62, 127
1, 356254, Note_on_c, 2, 67, 127
1, 356255, Note_on_c, 4, 56, 127
1, 356255, Note_on_c, 4, 46, 127
1, 356267, Note_off_c, 2, 63, 100
1, 356348, Note_on_c, 2, 65, 127
1, 356355, Note_off_c, 2, 67, 100
1, 356432, Note_off_c, 4, 46, 100
1, 356433, Note_off_c, 4, 56, 100
1, 356439, Note_on_c, 2, 63, 127
1, 356439, Note_on_c, 4, 56, 127
1, 356440, Note_on_c, 4, 46, 127
1, 356445, Note_off_c, 2, 65, 100
1, 356506, Note_on_c, 2, 65, 127
1, 356514, Note_off_c, 2, 63, 100
1, 356606, Note_off_c, 4, 46, 100
1, 356606, Note_off_c, 4, 56, 100
1, 356609, Note_off_c, 4, 62, 100
1, 356609, Note_on_c, 2, 63, 127
1, 356610, Note_on_c, 4, 55, 127
1, 356610, Note_on_c, 4, 51, 127
1, 356616, Note_off_c, 2, 65, 100
1, 356688, Note_off_c, 4, 51, 100
1, 356695, Note_on_c, 4, 51, 127
1, 356785, Note_off_c, 4, 55, 100
1, 356789, Note_on_c, 4, 55, 127
1, 356797, Note_off_c, 4, 51, 100
1, 356880, Note_on_c, 4, 58, 127
1, 356889, Note_off_c, 4, 55, 100
1, 356966, Note_on_c, 4, 56, 127
1, 356976, Note_off_c, 4, 58, 100
1, 357056, Note_on_c, 4, 58, 127
1, 357066, Note_off_c, 4, 56, 100
1, 357139, Note_off_c, 2, 63, 100
1, 357146, Note_on_c, 2, 70, 127
1, 357147, Note_on_c, 2, 63, 127
1, 357147, Note_on_c, 4, 55, 127
1, 357155, Note_off_c, 4, 58, 100
1, 357246, Note_on_c, 4, 58, 127
1, 357258, Note_off_c, 4, 55, 100
1, 357333, Note_off_c, 2, 70, 100
1, 357335, Note_off_c, 2, 63, 100
1, 357338, Note_on_c, 2, 70, 127
1, 357339, Note_on_c, 4, 53, 127
1, 357341, Note_on_c, 2, 65, 127
1, 357347, Note_off_c, 4, 58, 100
1, 357432, Note_on_c, 4, 58, 127
1, 357443, Note_off_c, 4, 53, 100
1, 357522, Note_off_c, 2, 70, 100
1, 357524, Note_off_c, 2, 65, 100
1, 357529, Note_on_c, 2, 70, 127
1, 357530, Note_on_c, 2, 67, 127
1, 357530, Note_on_c, 4, 51, 127
1, 357538, Note_off_c, 4, 58, 100
1, 357617, Note_on_c, 4, 58, 127
1, 357626, Note_off_c, 4, 51, 100
1, 357699, Note_off_c, 2, 70, 100
1, 357701, Note_off_c, 2, 67, 100
1, 357706, Note_on_c, 2, 70, 127
1, 357706, Note_on_c, 4, 50, 127
1, 357708, Note_on_c, 2, 68, 127
1, 357716, Note_off_c, 4, 58, 100
1, 357808, Note_on_c, 4, 53, 127
1, 357816, Note_off_c, 4, 50, 100
1, 357893, Note_off_c, 2, 70, 100
1, 357894, Note_off_c, 2, 68, 100
1, 357899, Note_on_c, 2, 70, 127
1, 357899, Note_on_c, 4, 56, 127
1, 357907, Note_off_c, 4, 53, 100
1, 357944, Note_on_c, 2, 72, 125
1, 357949, Note_off_c, 2, 70, 100
1, 357990, Note_on_c, 4, 55, 127
1, 357990, Note_on_c, 2, 70, 127
1, 357994, Note_off_c, 2, 72, 100
1, 357996, Note_off_c, 4, 56, 100
1, 358032, Note_on_c, 2, 68, 127
1, 358037, Note_off_c, 2, 70, 100
1, 358075, Note_on_c, 2, 70, 127
1, 358076, Note_on_c, 4, 53, 127
1, 358083, Note_off_c, 2, 68, 100
1, 358084, Note_off_c, 4, 55, 100
1, 358169, Note_on_c, 4, 51, 127
1, 358176, Note_off_c, 4, 53, 100
1, 358259, Note_off_c, 2, 70, 100
1, 358265, Note_on_c, 2, 70, 127
1, 358266, Note_on_c, 4, 50, 127
1, 358268, Note_on_c, 4, 62, 127
1, 358275, Note_off_c, 4, 51, 100
1, 358360, Note_on_c, 4, 48, 127
1, 358369, Note_off_c, 4, 50, 100
1, 358460, Note_on_c, 2, 72, 125
1, 358461, Note_on_c, 4, 46, 127
1, 358463, Note_on_c, 2, 63, 127
1, 358468, Note_off_c, 4, 48, 100
1, 358475, Note_off_c, 2, 70, 100
1, 358476, Note_off_c, 4, 62, 100
1, 358549, Note_on_c, 4, 48, 127
1, 358559, Note_off_c, 4, 46, 100
1, 358642, Note_on_c, 2, 74, 123
1, 358642, Note_on_c, 4, 44, 127
1, 358644, Note_on_c, 2, 65, 127
1, 358652, Note_off_c, 4, 48, 100
1, 358658, Note_off_c, 2, 72, 100
1, 358658, Note_off_c, 2, 63, 100
1, 358729, Note_on_c, 4, 46, 127
1, 358737, Note_off_c, 4, 44, 100
1, 358823, Note_on_c, 2, 75, 121
1, 358824, Note_on_c, 4, 43, 127
1, 358833, Note_off_c, 4, 46, 100
1, 358841, Note_off_c, 2, 74, 100
1, 358914, Note_on_c, 4, 46, 127
1, 358924, Note_off_c, 4, 43, 100
1, 358999, Note_off_c, 2, 75, 100
1, 359003, Note_on_c, 2, 75, 121
1, 359003, Note_on_c, 4, 51, 127
1, 359011, Note_off_c, 4, 46, 100
1, 359048, Note_on_c, 2, 77, 118
1, 359053, Note_off_c, 2, 75, 100
1, 359094, Note_on_c, 1, 79, 114
1, 359094, Note_on_c, 4, 46, 127
1, 359099, Note_off_c, 2, 77, 100
1, 359102, Note_off_c, 4, 51, 100
1, 359139, Note_on_c, 2, 75, 121
1, 359145, Note_off_c, 1, 79, 100
1, 359183, Note_on_c, 2, 70, 127
1, 359184, Note_off_c, 2, 65, 100
1, 359184, Note_on_c, 4, 55, 127
1, 359188, Note_off_c, 2, 75, 100
1, 359192, Note_off_c, 4, 46, 100
1, 359363, Note_off_c, 2, 70, 100
1, 359363, Note_off_c, 4, 55, 100
1, 359367, Note_on_c, 2, 70, 127
1, 359368, Note_on_c, 4, 55, 127
1, 359368, Note_on_c, 4, 51, 127
1, 359369, Note_on_c, 2, 67, 127
1, 359561, Note_off_c, 4, 51, 100
1, 359562, Note_off_c, 2, 70, 100
1, 359562, Note_off_c, 4, 55, 100
1, 359563, Note_off_c, 2, 67, 100
1, 359565, Note_on_c, 2, 68, 127
1, 359566, Note_on_c, 4, 56, 127
1, 359566, Note_on_c, 4, 53, 127
1, 359567, Note_on_c, 2, 65, 127
1, 359749, Note_off_c, 4, 53, 100
1, 359750, Note_off_c, 4, 56, 100
1, 359750, Note_off_c, 2, 68, 100
1, 359751, Note_off_c, 2, 65, 100
1, 359755, Note_on_c, 2, 67, 127
1, 359756, Note_on_c, 2, 63, 127
1, 359756, Note_on_c, 4, 58, 127
1, 359757, Note_on_c, 4, 55, 127
1, 359939, Note_off_c, 2, 67, 100
1, 359940, Note_off_c, 4, 55, 100
1, 359941, Note_off_c, 4, 58, 100
1, 359941, Note_off_c, 2, 63, 100
1, 359943, Note_on_c, 2, 65, 127
1, 359945, Note_on_c, 4, 60, 127
1, 359946, Note_on_c, 4, 56, 127
1, 360129, Note_off_c, 2, 65, 100
1, 360137, Note_on_c, 2, 65, 127
1, 360182, Note_on_c, 2, 67, 127
1, 360188, Note_off_c, 2, 65, 100
1, 360229, Note_on_c, 2, 68, 127
1, 360236, Note_off_c, 2, 67, 100
1, 360277, Note_on_c, 2, 65, 127
1, 360284, Note_off_c, 2, 68, 100
1, 360329, Note_on_c, 2, 72, 125
1, 360336, Note_off_c, 2, 65, 100
1, 360516, Note_off_c, 4, 56, 100
1, 360517, Note_off_c, 4, 60, 100
1, 360531, Note_on_c, 2, 65, 127
1, 360532, Note_on_c, 4, 60, 127
1, 360532, Note_on_c, 4, 44, 127
1, 360533, Note_on_c, 4, 53, 127
1, 360547, Note_off_c, 2, 72, 100
1, 360721, Note_off_c, 2, 65, 100
1, 360721, Note_off_c, 4, 44, 100
1, 360722, Note_off_c, 4, 60, 100
1, 360722, Note_off_c, 4, 53, 100
1, 360727, Note_on_c, 2, 63, 127
1, 360728, Note_on_c, 4, 58, 127
1, 360728, Note_on_c, 4, 55, 127
1, 360729, Note_on_c, 4, 46, 127
1, 360915, Note_off_c, 4, 55, 100
1, 360916, Note_off_c, 4, 58, 100
1, 360916, Note_off_c, 2, 63, 100
1, 360918, Note_on_c, 2, 65, 127
1, 360919, Note_on_c, 4, 56, 127
1, 360921, Note_on_c, 4, 62, 127
1, 361096, Note_off_c, 2, 65, 100
1, 361096, Note_off_c, 4, 56, 100
1, 361099, Note_off_c, 4, 62, 100
1, 361101, Note_off_c, 4, 46, 100
1, 361101, Note_on_c, 2, 65, 127
1, 361102, Note_on_c, 4, 56, 127
1, 361102, Note_on_c, 4, 51, 127
1, 361103, Note_on_c, 4, 62, 127
1, 361369, Note_off_c, 2, 65, 100
1, 361370, Note_on_c, 2, 66, 127
1, 361449, Note_off_c, 4, 51, 100
1, 361450, Note_off_c, 4, 56, 100
1, 361450, Note_off_c, 4, 62, 100
1, 361460, Note_on_c, 4, 55, 127
1, 361460, Note_on_c, 2, 67, 127
1, 361461, Note_on_c, 4, 51, 127
1, 361461, Note_on_c, 2, 63, 127
1, 361467, Note_off_c, 2, 66, 100
1, 361548, Note_on_c, 2, 63, 127
1, 361608, Note_off_c, 2, 63, 100
1, 361632, Note_off_c, 2, 67, 100
1, 361636, Note_on_c, 1, 82, 114
1, 361637, Note_on_c, 2, 75, 121
1, 361637, Note_on_c, 2, 67, 127
1, 361731, Note_on_c, 2, 70, 127
1, 361741, Note_off_c, 2, 67, 100
1, 361812, Note_off_c, 1, 82, 100
1, 361814, Note_off_c, 2, 75, 100
1, 361820, Note_on_c, 1, 82, 114
1, 361820, Note_on_c, 2, 68, 127
1, 361821, Note_on_c, 2, 77, 118
1, 361828, Note_off_c, 2, 70, 100
1, 361913, Note_on_c, 2, 67, 127
1, 361922, Note_off_c, 2, 68, 100
1, 361997, Note_off_c, 1, 82, 100
1, 361999, Note_off_c, 2, 77, 100
1, 362003, Note_on_c, 1, 82, 114
1, 362004, Note_on_c, 2, 65, 127
1, 362006, Note_off_c, 2, 63, 100
1, 362006, Note_on_c, 1, 79, 114
1, 362013, Note_off_c, 2, 67, 100
1, 362095, Note_on_c, 2, 63, 127
1, 362105, Note_off_c, 2, 65, 100
1, 362187, Note_off_c, 1, 82, 100
1, 362188, Note_off_c, 1, 79, 100
1, 362193, Note_on_c, 1, 82, 114
1, 362194, Note_on_c, 1, 80, 114
1, 362194, Note_on_c, 4, 62, 127
1, 362204, Note_off_c, 2, 63, 100
1, 362288, Note_on_c, 2, 65, 127
1, 362298, Note_off_c, 4, 62, 100
1, 362382, Note_off_c, 1, 82, 100
1, 362384, Note_off_c, 1, 80, 100
1, 362390, Note_on_c, 1, 82, 110
1, 362390, Note_on_c, 2, 68, 127
1, 362400, Note_off_c, 2, 65, 100
1, 362437, Note_on_c, 1, 84, 115
1, 362443, Note_off_c, 1, 82, 100
1, 362482, Note_on_c, 1, 82, 110
1, 362482, Note_on_c, 2, 67, 127
1, 362488, Note_off_c, 1, 84, 100
1, 362490, Note_off_c, 2, 68, 100
1, 362530, Note_on_c, 1, 81, 110
1, 362538, Note_off_c, 1, 82, 100
1, 362577, Note_off_c, 4, 55, 100
1, 362577, Note_on_c, 1, 82, 110
1, 362577, Note_on_c, 2, 65, 127
1, 362583, Note_off_c, 1, 81, 100
1, 362587, Note_off_c, 2, 67, 100
1, 362672, Note_on_c, 2, 63, 127
1, 362679, Note_off_c, 2, 65, 100
1, 362756, Note_off_c, 1, 82, 100
1, 362762, Note_on_c, 1, 82, 110
1, 362762, Note_on_c, 2, 74, 123
1, 362762, Note_on_c, 4, 62, 127
1, 362770, Note_off_c, 2, 63, 100
1, 362855, Note_on_c, 4, 60, 127
1, 362864, Note_off_c, 4, 62, 100
1, 362949, Note_on_c, 1, 84, 115
1, 362950, Note_on_c, 2, 75, 121
1, 362950, Note_on_c, 4, 58, 127
1, 362960, Note_off_c, 4, 60, 100
1, 362965, Note_off_c, 1, 82, 100
1, 362966, Note_off_c, 2, 74, 100
1, 363042, Note_on_c, 4, 60, 127
1, 363054, Note_off_c, 4, 58, 100
1, 363136, Note_on_c, 1, 86, 117
1, 363137, Note_on_c, 4, 56, 127
1, 363139, Note_on_c, 2, 77, 114
1, 363147, Note_off_c, 4, 60, 100
1, 363153, Note_off_c, 1, 84, 100
1, 363156, Note_off_c, 2, 75, 100
1, 363226, Note_on_c, 4, 58, 127
1, 363237, Note_off_c, 4, 56, 100
1, 363320, Note_on_c, 1, 87, 114
1, 363320, Note_on_c, 4, 55, 127
1, 363323, Note_on_c, 2, 75, 121
1, 363330, Note_off_c, 4, 58, 100
1, 363338, Note_off_c, 2, 77, 100
1, 363338, Note_off_c, 1, 86, 100
1, 363416, Note_on_c, 4, 58, 127
1, 363425, Note_off_c, 4, 55, 100
1, 363479, Note_off_c, 1, 87, 100
1, 363498, Note_on_c, 1, 87, 114
1, 363512, Note_on_c, 4, 60, 127
1, 363519, Note_off_c, 4, 58, 100
1, 363558, Note_off_c, 1, 87, 100
1, 363558, Note_on_c, 1, 86, 117
1, 363605, Note_on_c, 1, 87, 114
1, 363605, Note_on_c, 4, 62, 127
1, 363613, Note_off_c, 4, 60, 100
1, 363621, Note_off_c, 1, 86, 100
1, 363636, Note_off_c, 4, 51, 100
1, 363654, Note_on_c, 1, 82, 110
1, 363670, Note_off_c, 1, 87, 100
1, 363701, Note_on_c, 1, 79, 110
1, 363701, Note_on_c, 2, 63, 127
1, 363709, Note_off_c, 4, 62, 100
1, 363715, Note_off_c, 1, 82, 100
1, 363888, Note_off_c, 2, 63, 100
1, 363888, Note_off_c, 1, 79, 100
1, 363893, Note_on_c, 1, 82, 110
1, 363893, Note_on_c, 2, 67, 127
1, 363894, Note_on_c, 2, 63, 127
1, 363896, Note_off_c, 2, 75, 100
1, 363896, Note_on_c, 1, 79, 110
1, 364094, Note_on_c, 1, 80, 110
1, 364095, Note_on_c, 2, 68, 127
1, 364095, Note_on_c, 2, 65, 127
1, 364096, Note_on_c, 2, 77, 114
1, 364108, Note_off_c, 2, 67, 100
1, 364108, Note_off_c, 2, 63, 100
1, 364109, Note_off_c, 1, 82, 100
1, 364109, Note_off_c, 1, 79, 100
1, 364281, Note_on_c, 1, 79, 110
1, 364281, Note_on_c, 2, 70, 127
1, 364282, Note_on_c, 2, 75, 121
1, 364282, Note_on_c, 2, 67, 127
1, 364298, Note_off_c, 2, 65, 100
1, 364298, Note_off_c, 2, 68, 100
1, 364299, Note_off_c, 1, 80, 100
1, 364301, Note_off_c, 2, 77, 100
1, 364499, Note_on_c, 2, 72, 125
1, 364499, Note_on_c, 2, 76, 114
1, 364500, Note_on_c, 2, 68, 127
1, 364513, Note_off_c, 2, 70, 100
1, 364513, Note_off_c, 2, 67, 100
1, 364514, Note_off_c, 1, 79, 100
1, 364516, Note_off_c, 2, 75, 100
1, 364547, Note_on_c, 2, 77, 114
1, 364552, Note_off_c, 2, 76, 100
1, 364599, Note_on_c, 1, 79, 110
1, 364604, Note_off_c, 2, 77, 100
1, 364641, Note_on_c, 2, 77, 114
1, 364646, Note_off_c, 1, 79, 100
1, 364692, Note_on_c, 1, 80, 110
1, 364698, Note_off_c, 2, 77, 100
1, 364742, Note_on_c, 1, 79, 110
1, 364748, Note_off_c, 1, 80, 100
1, 364790, Note_on_c, 1, 82, 110
1, 364798, Note_off_c, 1, 79, 100
1, 364837, Note_on_c, 1, 80, 110
1, 364841, Note_off_c, 1, 82, 100
1, 364881, Note_on_c, 1, 84, 115
1, 364888, Note_off_c, 1, 80, 100
1, 365181, Note_off_c, 2, 68, 100
1, 365198, Note_off_c, 2, 72, 100
1, 365198, Note_off_c, 1, 84, 100
1, 365199, Note_on_c, 1, 82, 114
1, 365199, Note_on_c, 2, 68, 127
1, 365199, Note_on_c, 4, 62, 127
1, 365200, Note_on_c, 4, 58, 127
1, 365374, Note_on_c, 2, 65, 127
1, 365395, Note_off_c, 4, 62, 100
1, 365395, Note_off_c, 4, 58, 100
1, 365396, Note_off_c, 2, 68, 100
1, 365495, Note_off_c, 1, 82, 100
1, 365512, Note_on_c, 2, 74, 123
1, 365575, Note_on_c, 2, 75, 121
1, 365577, Note_on_c, 2, 63, 127
1, 365582, Note_off_c, 2, 74, 100
1, 365592, Note_off_c, 2, 65, 100
1, 365675, Note_on_c, 2, 67, 127
1, 365688, Note_off_c, 2, 63, 100
1, 365776, Note_on_c, 2, 70, 127
1, 365785, Note_off_c, 2, 67, 100
1, 365870, Note_on_c, 2, 67, 127
1, 365881, Note_off_c, 2, 70, 100
1, 365962, Note_on_c, 2, 63, 127
1, 365972, Note_off_c, 2, 67, 100
1, 366070, Note_on_c, 2, 67, 127
1, 366079, Note_off_c, 2, 63, 100
1, 366162, Note_off_c, 2, 75, 100
1, 366162, Note_on_c, 1, 85, 119
1, 366165, Note_on_c, 2, 70, 127
1, 366172, Note_off_c, 2, 67, 100
1, 366251, Note_on_c, 2, 67, 127
1, 366264, Note_off_c, 2, 70, 100
1, 366359, Note_on_c, 1, 84, 119
1, 366359, Note_on_c, 2, 68, 127
1, 366365, Note_off_c, 2, 67, 100
1, 366371, Note_off_c, 1, 85, 100
1, 366450, Note_on_c, 2, 65, 127
1, 366462, Note_off_c, 2, 68, 100
1, 366547, Note_on_c, 1, 86, 121
1, 366549, Note_on_c, 2, 72, 125
1, 366554, Note_off_c, 2, 65, 100
1, 366560, Note_off_c, 1, 84, 100
1, 366637, Note_on_c, 2, 68, 127
1, 366647, Note_off_c, 2, 72, 100
1, 366725, Note_off_c, 2, 68, 100
1, 366731, Note_on_c, 1, 89, 118
1, 366733, Note_on_c, 2, 68, 127
1, 366748, Note_off_c, 1, 86, 100
1, 366829, Note_on_c, 2, 70, 127
1, 366839, Note_off_c, 2, 68, 100
1, 366921, Note_on_c, 1, 87, 118
1, 366923, Note_on_c, 2, 67, 127
1, 366933, Note_off_c, 2, 70, 100
1, 366938, Note_off_c, 1, 89, 100
1, 367018, Note_on_c, 2, 65, 127
1, 367029, Note_off_c, 2, 67, 100
1, 367115, Note_on_c, 2, 63, 127
1, 367125, Note_off_c, 2, 65, 100
1, 367213, Note_on_c, 4, 61, 127
1, 367221, Note_off_c, 2, 63, 100
1, 367298, Note_off_c, 1, 87, 100
1, 367298, Note_on_c, 2, 73, 127
1, 367299, Note_on_c, 4, 58, 127
1, 367306, Note_off_c, 4, 61, 100
1, 367392, Note_on_c, 4, 55, 127
1, 367404, Note_off_c, 4, 58, 100
1, 367495, Note_on_c, 2, 72, 127
1, 367496, Note_on_c, 4, 56, 127
1, 367506, Note_off_c, 4, 55, 100
1, 367512, Note_off_c, 2, 73, 100
1, 367591, Note_on_c, 4, 53, 127
1, 367602, Note_off_c, 4, 56, 100
1, 367702, Note_on_c, 2, 74, 127
1, 367706, Note_on_c, 4, 58, 127
1, 367709, Note_on_c, 2, 68, 127
1, 367713, Note_off_c, 4, 53, 100
1, 367721, Note_off_c, 2, 72, 100
1, 367813, Note_on_c, 4, 46, 127
1, 367828, Note_off_c, 4, 58, 100
1, 367919, Note_off_c, 4, 46, 100
1, 367920, Note_off_c, 2, 68, 100
1, 367920, Note_off_c, 2, 74, 100
1, 367920, Note_on_c, 2, 77, 122
1, 367921, Note_on_c, 2, 74, 127
1, 367921, Note_on_c, 4, 46, 127
1, 367922, Note_on_c, 4, 51, 127
1, 367922, Note_on_c, 2, 68, 127
1, 367928, Note_off_c, 4, 46, 100
1, 367936, Note_off_c, 2, 74, 100
1, 368330, Note_off_c, 2, 77, 64
1, 368332, Note_off_c, 2, 68, 64
1, 368334, Note_on_c, 2, 75, 125
1, 368336, Note_on_c, 2, 67, 127
1, 368539, Note_off_c, 4, 51, 64
1, 368543, Note_on_c, 2, 65, 127
1, 368544, Note_on_c, 4, 62, 127
1, 368544, Note_on_c, 4, 56, 127
1, 368557, Note_off_c, 2, 75, 64
1, 368559, Note_off_c, 2, 67, 64
1, 368740, Note_on_c, 2, 67, 127
1, 368740, Note_on_c, 4, 55, 127
1, 368743, Note_on_c, 2, 63, 127
1, 368756, Note_off_c, 4, 56, 100
1, 368757, Note_off_c, 2, 65, 100
1, 368759, Note_off_c, 4, 62, 100
1, 368937, Note_on_c, 2, 68, 127
1, 368937, Note_on_c, 4, 53, 127
1, 368938, Note_on_c, 2, 65, 127
1, 368953, Note_off_c, 4, 55, 100
1, 368953, Note_off_c, 2, 67, 100
1, 368956, Note_off_c, 2, 63, 100
1, 369144, Note_off_c, 4, 53, 100
1, 369144, Note_off_c, 2, 68, 100
1, 369145, Note_on_c, 4, 52, 127
1, 369145, Note_on_c, 2, 69, 127
1, 369146, Note_off_c, 2, 65, 100
1, 369146, Note_on_c, 2, 66, 127
1, 369497, Note_off_c, 2, 69, 100
1, 369497, Note_on_c, 2, 70, 127
1, 369497, Note_on_c, 2, 67, 127
1, 369498, Note_off_c, 2, 66, 100
1, 369675, Note_off_c, 2, 70, 100
1, 369681, Note_on_c, 2, 73, 127
1, 369682, Note_on_c, 2, 70, 127
1, 369697, Note_off_c, 2, 67, 100
1, 369864, Note_off_c, 4, 52, 100
1, 369865, Note_on_c, 2, 67, 127
1, 369865, Note_on_c, 2, 64, 127
1, 369866, Note_on_c, 4, 48, 127
1, 369882, Note_off_c, 2, 73, 100
1, 369882, Note_off_c, 2, 70, 100
1, 370040, Note_on_c, 2, 72, 125
1, 370041, Note_on_c, 2, 68, 127
1, 370055, Note_off_c, 2, 64, 100
1, 370055, Note_off_c, 2, 67, 100
1, 370221, Note_off_c, 4, 48, 100
1, 370221, Note_on_c, 2, 70, 127
1, 370222, Note_on_c, 4, 49, 127
1, 370222, Note_on_c, 2, 67, 127
1, 370238, Note_off_c, 2, 72, 100
1, 370238, Note_off_c, 2, 68, 100
1, 370569, Note_off_c, 2, 67, 100
1, 370570, Note_off_c, 2, 70, 100
1, 370570, Note_on_c, 2, 68, 127
1, 370571, Note_on_c, 2, 65, 127
1, 370744, Note_on_c, 2, 77, 118
1, 370907, Note_off_c, 2, 77, 100
1, 370913, Note_off_c, 2, 68, 100
1, 370913, Note_off_c, 2, 65, 100
1, 370914, Note_on_c, 2, 77, 118
1, 370914, Note_on_c, 4, 60, 127
1, 370915, Note_on_c, 4, 56, 127
1, 371089, Note_off_c, 2, 77, 100
1, 371093, Note_on_c, 2, 77, 118
1, 371255, Note_off_c, 2, 77, 100
1, 371258, Note_off_c, 4, 56, 100
1, 371259, Note_off_c, 4, 60, 100
1, 371259, Note_off_c, 4, 49, 100
1, 371260, Note_on_c, 4, 61, 127
1, 371260, Note_on_c, 1, 78, 115
1, 371261, Note_on_c, 4, 58, 127
1, 371593, Note_off_c, 1, 78, 100
1, 371593, Note_on_c, 1, 79, 114
1, 371760, Note_off_c, 1, 79, 100
1, 371761, Note_on_c, 1, 82, 114
1, 371935, Note_off_c, 4, 61, 100
1, 371935, Note_off_c, 4, 58, 100
1, 371936, Note_on_c, 2, 70, 127
1, 371936, Note_on_c, 4, 60, 127
1, 372098, Note_off_c, 1, 82, 100
1, 372098, Note_on_c, 2, 76, 118
1, 372256, Note_off_c, 2, 70, 100
1, 372266, Note_off_c, 4, 60, 100
1, 372266, Note_on_c, 1, 79, 114
1, 372267, Note_on_c, 2, 70, 127
1, 372267, Note_on_c, 2, 65, 127
1, 372283, Note_off_c, 2, 76, 100
1, 372597, Note_off_c, 2, 65, 100
1, 372598, Note_off_c, 1, 79, 100
1, 372598, Note_off_c, 2, 70, 100
1, 372599, Note_on_c, 2, 77, 118
1, 372599, Note_on_c, 2, 68, 127
1, 372763, Note_on_c, 4, 41, 127
1, 372928, Note_off_c, 4, 41, 100
1, 372932, Note_on_c, 4, 41, 127
1, 373080, Note_off_c, 4, 41, 100
1, 373088, Note_on_c, 4, 41, 127
1, 373241, Note_off_c, 4, 41, 100
1, 373242, Note_off_c, 2, 68, 100
1, 373246, Note_off_c, 2, 77, 100
1, 373247, Note_on_c, 2, 68, 127
1, 373247, Note_on_c, 2, 77, 118
1, 373248, Note_on_c, 4, 41, 127
1, 373441, Note_off_c, 2, 77, 100
1, 373441, Note_on_c, 1, 80, 114
1, 373605, Note_off_c, 1, 80, 100
1, 373606, Note_on_c, 1, 79, 114
1, 373685, Note_on_c, 2, 77, 118
1, 373691, Note_off_c, 1, 79, 100
1, 373744, Note_on_c, 2, 75, 121
1, 373750, Note_off_c, 2, 77, 100
1, 373810, Note_on_c, 2, 73, 127
1, 373815, Note_off_c, 2, 75, 100
1, 373873, Note_on_c, 2, 72, 125
1, 373879, Note_off_c, 2, 73, 100
1, 373932, Note_on_c, 2, 73, 127
1, 373938, Note_off_c, 2, 72, 100
1, 373994, Note_on_c, 2, 77, 118
1, 374000, Note_off_c, 2, 73, 100
1, 374054, Note_on_c, 2, 73, 127
1, 374059, Note_off_c, 2, 77, 100
1, 374106, Note_off_c, 2, 68, 100
1, 374106, Note_off_c, 4, 41, 100
1, 374120, Note_on_c, 4, 62, 127
1, 374120, Note_on_c, 2, 72, 125
1, 374121, Note_on_c, 2, 68, 127
1, 374121, Note_on_c, 4, 41, 127
1, 374125, Note_off_c, 2, 73, 100
1, 374425, Note_off_c, 2, 72, 100
1, 374425, Note_on_c, 2, 71, 127
1, 374428, Note_off_c, 2, 68, 100
1, 374568, Note_off_c, 4, 41, 100
1, 374578, Note_on_c, 4, 41, 127
1, 374735, Note_off_c, 4, 41, 100
1, 374739, Note_on_c, 4, 41, 127
1, 374881, Note_off_c, 4, 41, 100
1, 374887, Note_on_c, 4, 41, 127
1, 375031, Note_off_c, 4, 41, 100
1, 375035, Note_on_c, 4, 42, 127
1, 375192, Note_off_c, 2, 71, 100
1, 375193, Note_on_c, 2, 63, 127
1, 375193, Note_on_c, 2, 72, 125
1, 375239, Note_off_c, 4, 62, 100
1, 375346, Note_off_c, 2, 72, 100
1, 375347, Note_on_c, 2, 71, 127
1, 375412, Note_on_c, 2, 72, 125
1, 375418, Note_off_c, 2, 71, 100
1, 375468, Note_off_c, 2, 63, 100
1, 375476, Note_on_c, 2, 63, 127
1, 375476, Note_on_c, 2, 74, 123
1, 375482, Note_off_c, 2, 72, 100
1, 375540, Note_on_c, 2, 72, 125
1, 375546, Note_off_c, 2, 74, 100
1, 375602, Note_on_c, 2, 71, 127
1, 375608, Note_off_c, 2, 72, 100
1, 375664, Note_on_c, 2, 72, 125
1, 375670, Note_off_c, 2, 71, 100
1, 375718, Note_off_c, 2, 63, 100
1, 375723, Note_on_c, 2, 75, 121
1, 375724, Note_on_c, 2, 63, 127
1, 375730, Note_off_c, 2, 72, 100
1, 375790, Note_on_c, 2, 74, 123
1, 375795, Note_off_c, 2, 75, 100
1, 375847, Note_off_c, 2, 63, 100
1, 375851, Note_off_c, 4, 42, 100
1, 375852, Note_on_c, 2, 71, 127
1, 375852, Note_on_c, 2, 63, 127
1, 375852, Note_on_c, 4, 43, 127
1, 375859, Note_off_c, 2, 74, 100
1, 376137, Note_off_c, 2, 63, 100
1, 376143, Note_off_c, 2, 71, 100
1, 376143, Note_on_c, 2, 72, 125
1, 376144, Note_on_c, 2, 63, 127
1, 376297, Note_off_c, 4, 43, 100
1, 376303, Note_on_c, 4, 43, 127
1, 376449, Note_off_c, 4, 43, 100
1, 376455, Note_on_c, 4, 43, 127
1, 376597, Note_off_c, 4, 43, 100
1, 376603, Note_on_c, 4, 43, 127
1, 376732, Note_off_c, 4, 43, 100
1, 376737, Note_on_c, 4, 44, 127
1, 376867, Note_off_c, 2, 63, 100
1, 376868, Note_off_c, 2, 72, 100
1, 376878, Note_on_c, 2, 72, 125
1, 376878, Note_on_c, 2, 63, 127
1, 377022, Note_off_c, 2, 63, 100
1, 377023, Note_off_c, 2, 72, 100
1, 377026, Note_on_c, 2, 72, 125
1, 377026, Note_on_c, 2, 63, 127
1, 377170, Note_off_c, 2, 63, 100
1, 377171, Note_off_c, 2, 72, 100
1, 377175, Note_on_c, 2, 72, 125
1, 377176, Note_on_c, 2, 63, 127
1, 377308, Note_off_c, 2, 63, 100
1, 377309, Note_off_c, 2, 72, 100
1, 377314, Note_off_c, 4, 44, 100
1, 377314, Note_on_c, 2, 72, 125
1, 377315, Note_on_c, 4, 45, 127
1, 377315, Note_on_c, 2, 63, 127
1, 377460, Note_off_c, 2, 63, 100
1, 377460, Note_off_c, 2, 72, 100
1, 377462, Note_on_c, 2, 72, 125
1, 377463, Note_on_c, 2, 63, 127
1, 377613, Note_off_c, 2, 63, 100
1, 377614, Note_off_c, 2, 72, 100
1, 377616, Note_off_c, 4, 45, 100
1, 377616, Note_on_c, 2, 73, 127
1, 377617, Note_on_c, 2, 63, 127
1, 377617, Note_on_c, 4, 46, 127
1, 377799, Note_off_c, 2, 73, 100
1, 377815, Note_on_c, 2, 73, 127
1, 377851, Note_on_c, 2, 72, 125
1, 377857, Note_off_c, 2, 73, 100
1, 377865, Note_off_c, 2, 63, 100
1, 377888, Note_on_c, 2, 70, 127
1, 377893, Note_off_c, 2, 72, 100
1, 377926, Note_on_c, 2, 68, 127
1, 377932, Note_off_c, 2, 70, 100
1, 377964, Note_off_c, 4, 46, 100
1, 377965, Note_on_c, 2, 67, 127
1, 377967, Note_on_c, 4, 49, 127
1, 377968, Note_on_c, 2, 63, 127
1, 377970, Note_off_c, 2, 68, 100
1, 378124, Note_on_c, 1, 79, 114
1, 378137, Note_off_c, 2, 67, 100
1, 378139, Note_off_c, 2, 63, 100
1, 378277, Note_on_c, 1, 80, 114
1, 378278, Note_off_c, 4, 49, 100
1, 378278, Note_on_c, 4, 48, 127
1, 378288, Note_off_c, 1, 79, 100
1, 378415, Note_on_c, 2, 72, 125
1, 378428, Note_off_c, 1, 80, 100
1, 378564, Note_off_c, 2, 72, 100
1, 378570, Note_off_c, 4, 48, 100
1, 378571, Note_on_c, 4, 49, 127
1, 378571, Note_on_c, 2, 72, 125
1, 378648, Note_on_c, 2, 70, 127
1, 378656, Note_off_c, 2, 72, 100
1, 378727, Note_on_c, 2, 73, 127
1, 378734, Note_off_c, 2, 70, 100
1, 378792, Note_on_c, 2, 77, 118
1, 378801, Note_off_c, 2, 73, 100
1, 378877, Note_off_c, 4, 49, 100
1, 378878, Note_on_c, 2, 68, 127
1, 378878, Note_on_c, 4, 51, 127
1, 378879, Note_on_c, 4, 60, 127
1, 378885, Note_off_c, 2, 77, 100
1, 379190, Note_off_c, 4, 51, 100
1, 379199, Note_on_c, 4, 61, 127
1, 379199, Note_on_c, 4, 51, 127
1, 379201, Note_off_c, 4, 60, 100
1, 379343, Note_on_c, 2, 72, 127
1, 379343, Note_on_c, 2, 67, 127
1, 379351, Note_off_c, 2, 68, 100
1, 379440, Note_on_c, 2, 70, 127
1, 379454, Note_off_c, 2, 72, 100
1, 379533, Note_off_c, 4, 51, 100
1, 379533, Note_off_c, 4, 61, 100
1, 379534, Note_on_c, 2, 68, 127
1, 379534, Note_on_c, 4, 56, 127
1, 379536, Note_off_c, 2, 70, 100
1, 379544, Note_off_c, 2, 67, 100
1, 379640, Note_on_c, 4, 60, 127
1, 379650, Note_off_c, 4, 56, 100
1, 379730, Note_on_c, 2, 63, 127
1, 379744, Note_off_c, 4, 60, 100
1, 379832, Note_on_c, 4, 60, 127
1, 379842, Note_off_c, 2, 63, 100
1, 379922, Note_on_c, 4, 56, 127
1, 379930, Note_off_c, 4, 60, 100
1, 380020, Note_on_c, 4, 60, 127
1, 380030, Note_off_c, 4, 56, 100
1, 380105, Note_off_c, 2, 68, 100
1, 380112, Note_on_c, 2, 72, 127
1, 380113, Note_on_c, 2, 68, 127
1, 380113, Note_on_c, 2, 63, 127
1, 380121, Note_off_c, 4, 60, 100
1, 380215, Note_on_c, 4, 60, 127
1, 380223, Note_off_c, 2, 63, 100
1, 380294, Note_off_c, 2, 72, 100
1, 380294, Note_off_c, 2, 68, 100
1, 380299, Note_on_c, 2, 72, 127
1, 380299, Note_on_c, 4, 56, 127
1, 380300, Note_on_c, 2, 68, 127
1, 380305, Note_off_c, 4, 60, 100
1, 380380, Note_on_c, 4, 60, 127
1, 380388, Note_off_c, 4, 56, 100
1, 380463, Note_off_c, 2, 72, 100
1, 380465, Note_off_c, 2, 68, 100
1, 380471, Note_on_c, 2, 72, 127
1, 380471, Note_on_c, 2, 63, 127
1, 380472, Note_on_c, 2, 68, 127
1, 380479, Note_off_c, 4, 60, 100
1, 380564, Note_on_c, 4, 60, 127
1, 380573, Note_off_c, 2, 63, 100
1, 380654, Note_off_c, 2, 72, 100
1, 380654, Note_off_c, 2, 68, 100
1, 380660, Note_on_c, 2, 77, 120
1, 380660, Note_on_c, 4, 55, 127
1, 380661, Note_on_c, 2, 72, 127
1, 380661, Note_on_c, 2, 70, 127
1, 380669, Note_off_c, 4, 60, 100
1, 380750, Note_on_c, 4, 58, 127
1, 380760, Note_off_c, 4, 55, 100
1, 380852, Note_off_c, 2, 77, 100
1, 380852, Note_on_c, 2, 75, 123
1, 380853, Note_on_c, 4, 60, 127
1, 380862, Note_off_c, 4, 58, 100
1, 380952, Note_on_c, 4, 58, 127
1, 380960, Note_off_c, 4, 60, 100
1, 381042, Note_on_c, 4, 55, 127
1, 381051, Note_off_c, 4, 58, 100
1, 381134, Note_on_c, 4, 58, 127
1, 381144, Note_off_c, 4, 55, 100
1, 381226, Note_off_c, 2, 70, 100
1, 381227, Note_off_c, 2, 72, 100
1, 381233, Note_on_c, 2, 70, 127
1, 381233, Note_on_c, 4, 60, 127
1, 381234, Note_on_c, 2, 72, 127
1, 381243, Note_off_c, 4, 58, 100
1, 381328, Note_on_c, 4, 58, 127
1, 381337, Note_off_c, 4, 60, 100
1, 381408, Note_off_c, 2, 70, 100
1, 381410, Note_off_c, 2, 72, 100
1, 381417, Note_on_c, 2, 70, 127
1, 381417, Note_on_c, 4, 55, 127
1, 381418, Note_on_c, 2, 72, 127
1, 381425, Note_off_c, 4, 58, 100
1, 381512, Note_on_c, 4, 58, 127
1, 381519, Note_off_c, 4, 55, 100
1, 381590, Note_off_c, 2, 70, 100
1, 381592, Note_off_c, 2, 72, 100
1, 381596, Note_on_c, 2, 70, 127
1, 381597, Note_on_c, 2, 72, 127
1, 381597, Note_on_c, 4, 60, 127
1, 381604, Note_off_c, 4, 58, 100
1, 381687, Note_on_c, 4, 58, 127
1, 381696, Note_off_c, 4, 60, 100
1, 381776, Note_off_c, 2, 70, 100
1, 381778, Note_off_c, 2, 72, 100
1, 381784, Note_off_c, 2, 75, 100
1, 381785, Note_on_c, 2, 68, 127
1, 381785, Note_on_c, 1, 79, 122
1, 381786, Note_on_c, 2, 72, 127
1, 381786, Note_on_c, 4, 53, 127
1, 381794, Note_off_c, 4, 58, 100
1, 381871, Note_on_c, 4, 56, 127
1, 381880, Note_off_c, 4, 53, 100
1, 381969, Note_on_c, 2, 77, 120
1, 381969, Note_on_c, 4, 60, 127
1, 381979, Note_off_c, 4, 56, 100
1, 381987, Note_off_c, 1, 79, 100
1, 382069, Note_on_c, 4, 56, 127
1, 382079, Note_off_c, 4, 60, 100
1, 382160, Note_on_c, 4, 53, 127
1, 382167, Note_off_c, 4, 56, 100
1, 382254, Note_on_c, 4, 56, 127
1, 382261, Note_off_c, 4, 53, 100
1, 382340, Note_off_c, 2, 68, 100
1, 382341, Note_off_c, 2, 72, 100
1, 382347, Note_on_c, 2, 68, 127
1, 382347, Note_on_c, 4, 60, 127
1, 382348, Note_on_c, 2, 72, 127
1, 382354, Note_off_c, 4, 56, 100
1, 382436, Note_on_c, 4, 56, 127
1, 382446, Note_off_c, 4, 60, 100
1, 382528, Note_off_c, 2, 68, 100
1, 382529, Note_off_c, 2, 72, 100
1, 382533, Note_on_c, 2, 68, 127
1, 382534, Note_on_c, 4, 53, 127
1, 382536, Note_on_c, 2, 72, 127
1, 382544, Note_off_c, 4, 56, 100
1, 382626, Note_on_c, 4, 56, 127
1, 382636, Note_off_c, 4, 53, 100
1, 382707, Note_off_c, 2, 68, 100
1, 382709, Note_off_c, 2, 72, 100
1, 382715, Note_on_c, 2, 68, 127
1, 382715, Note_on_c, 4, 60, 127
1, 382716, Note_on_c, 2, 72, 127
1, 382725, Note_off_c, 4, 56, 100
1, 382810, Note_on_c, 4, 56, 127
1, 382819, Note_off_c, 4, 60, 100
1, 382892, Note_off_c, 2, 68, 100
1, 382894, Note_off_c, 2, 72, 100
1, 382898, Note_off_c, 2, 77, 100
1, 382898, Note_on_c, 1, 80, 122
1, 382899, Note_on_c, 2, 68, 127
1, 382899, Note_on_c, 4, 51, 127
1, 382900, Note_on_c, 2, 72, 127
1, 382909, Note_off_c, 4, 56, 100
1, 383016, Note_on_c, 4, 54, 127
1, 383024, Note_off_c, 4, 51, 100
1, 383112, Note_on_c, 1, 78, 117
1, 383112, Note_on_c, 4, 56, 127
1, 383123, Note_off_c, 4, 54, 100
1, 383128, Note_off_c, 1, 80, 100
1, 383217, Note_on_c, 4, 54, 127
1, 383226, Note_off_c, 4, 56, 100
1, 383307, Note_on_c, 4, 51, 127
1, 383316, Note_off_c, 4, 54, 100
1, 383388, Note_on_c, 4, 54, 127
1, 383395, Note_off_c, 4, 51, 100
1, 383468, Note_off_c, 2, 68, 100
1, 383470, Note_off_c, 2, 72, 100
1, 383476, Note_on_c, 2, 68, 127
1, 383476, Note_on_c, 4, 56, 127
1, 383479, Note_on_c, 2, 72, 127
1, 383484, Note_off_c, 4, 54, 100
1, 383580, Note_on_c, 4, 54, 127
1, 383588, Note_off_c, 4, 56, 100
1, 383659, Note_off_c, 2, 68, 100
1, 383661, Note_off_c, 2, 72, 100
1, 383665, Note_on_c, 2, 68, 127
1, 383666, Note_on_c, 4, 51, 127
1, 383668, Note_on_c, 2, 72, 127
1, 383676, Note_off_c, 4, 54, 100
1, 383756, Note_on_c, 4, 54, 127
1, 383764, Note_off_c, 4, 51, 100
1, 383835, Note_off_c, 2, 68, 100
1, 383835, Note_off_c, 2, 72, 100
1, 383841, Note_on_c, 2, 68, 127
1, 383841, Note_on_c, 4, 56, 127
1, 383842, Note_on_c, 2, 72, 127
1, 383849, Note_off_c, 4, 54, 100
1, 383934, Note_on_c, 4, 54, 127
1, 383941, Note_off_c, 4, 56, 100
1, 384015, Note_off_c, 2, 68, 100
1, 384018, Note_off_c, 2, 72, 100
1, 384023, Note_off_c, 1, 78, 100
1, 384023, Note_on_c, 1, 78, 121
1, 384024, Note_on_c, 2, 73, 127
1, 384024, Note_on_c, 2, 68, 127
1, 384024, Note_on_c, 4, 49, 127
1, 384034, Note_off_c, 4, 54, 100
1, 384124, Note_on_c, 4, 52, 127
1, 384133, Note_off_c, 4, 49, 100
1, 384220, Note_off_c, 1, 78, 100
1, 384221, Note_on_c, 2, 76, 123
1, 384221, Note_on_c, 4, 56, 127
1, 384227, Note_off_c, 4, 52, 100
1, 384313, Note_on_c, 4, 52, 127
1, 384321, Note_off_c, 4, 56, 100
1, 384404, Note_on_c, 4, 49, 127
1, 384411, Note_off_c, 4, 52, 100
1, 384492, Note_on_c, 4, 52, 127
1, 384502, Note_off_c, 4, 49, 100
1, 384576, Note_off_c, 2, 76, 100
1, 384580, Note_off_c, 2, 68, 100
1, 384588, Note_on_c, 2, 76, 120
1, 384588, Note_on_c, 2, 68, 127
1, 384589, Note_on_c, 4, 56, 127
1, 384599, Note_off_c, 4, 52, 100
1, 384689, Note_on_c, 4, 52, 127
1, 384696, Note_off_c, 4, 56, 100
1, 384775, Note_off_c, 2, 68, 100
1, 384776, Note_off_c, 2, 76, 100
1, 384780, Note_on_c, 2, 76, 120
1, 384780, Note_on_c, 2, 68, 127
1, 384781, Note_on_c, 4, 47, 127
1, 384791, Note_off_c, 4, 52, 100
1, 384873, Note_on_c, 4, 51, 127
1, 384884, Note_off_c, 4, 47, 100
1, 384955, Note_off_c, 2, 68, 100
1, 384955, Note_off_c, 2, 76, 100
1, 384961, Note_on_c, 2, 76, 120
1, 384962, Note_on_c, 2, 68, 127
1, 384962, Note_on_c, 4, 56, 127
1, 384968, Note_off_c, 4, 51, 100
1, 385049, Note_on_c, 4, 51, 127
1, 385058, Note_off_c, 4, 56, 100
1, 385141, Note_off_c, 2, 68, 100
1, 385141, Note_off_c, 2, 76, 100
1, 385148, Note_on_c, 2, 68, 127
1, 385148, Note_on_c, 2, 75, 123
1, 385149, Note_on_c, 4, 53, 127
1, 385149, Note_on_c, 4, 46, 127
1, 385150, Note_off_c, 2, 73, 100
1, 385159, Note_off_c, 4, 51, 100
1, 385388, Note_off_c, 2, 75, 100
1, 385418, Note_on_c, 2, 77, 120
1, 385472, Note_on_c, 2, 75, 123
1, 385478, Note_off_c, 2, 77, 100
1, 385524, Note_on_c, 2, 74, 125
1, 385532, Note_off_c, 2, 75, 100
1, 385716, Note_off_c, 4, 46, 100
1, 385716, Note_off_c, 4, 53, 100
1, 385717, Note_off_c, 2, 68, 100
1, 385725, Note_on_c, 2, 68, 127
1, 385725, Note_on_c, 4, 62, 127
1, 385726, Note_on_c, 4, 48, 127
1, 385726, Note_on_c, 4, 41, 127
1, 385897, Note_off_c, 4, 41, 100
1, 385898, Note_off_c, 4, 48, 100
1, 385898, Note_off_c, 4, 62, 100
1, 385899, Note_off_c, 2, 68, 100
1, 385907, Note_on_c, 2, 68, 127
1, 385908, Note_on_c, 4, 62, 127
1, 385908, Note_on_c, 4, 48, 127
1, 385908, Note_on_c, 4, 41, 127
1, 386089, Note_off_c, 4, 41, 100
1, 386090, Note_off_c, 4, 48, 100
1, 386090, Note_off_c, 4, 62, 100
1, 386091, Note_off_c, 2, 68, 100
1, 386100, Note_on_c, 2, 68, 127
1, 386100, Note_on_c, 4, 62, 127
1, 386100, Note_on_c, 4, 48, 127
1, 386100, Note_on_c, 4, 41, 127
1, 386281, Note_off_c, 4, 41, 100
1, 386282, Note_off_c, 4, 48, 100
1, 386282, Note_off_c, 4, 62, 100
1, 386283, Note_off_c, 2, 68, 100
1, 386292, Note_on_c, 2, 68, 127
1, 386292, Note_on_c, 4, 62, 127
1, 386292, Note_on_c, 4, 48, 127
1, 386293, Note_on_c, 4, 41, 127
1, 386752, Note_off_c, 2, 74, 100
1, 386789, Note_off_c, 4, 48, 100
1, 386789, Note_off_c, 4, 41, 100
1, 386790, Note_off_c, 4, 62, 100
1, 386790, Note_off_c, 2, 68, 100
1, 386791, Note_on_c, 1, 80, 114
1, 386791, Note_on_c, 2, 74, 123
1, 386792, Note_on_c, 2, 65, 127
1, 386792, Note_on_c, 4, 58, 127
1, 386984, Note_off_c, 4, 58, 100
1, 386984, Note_off_c, 2, 65, 100
1, 386985, Note_off_c, 2, 74, 100
1, 386985, Note_off_c, 1, 80, 100
1, 386991, Note_on_c, 1, 80, 114
1, 386992, Note_on_c, 2, 74, 123
1, 386992, Note_on_c, 2, 65, 127
1, 386993, Note_on_c, 4, 58, 127
1, 387178, Note_off_c, 2, 65, 100
1, 387178, Note_off_c, 4, 58, 100
1, 387179, Note_off_c, 1, 80, 100
1, 387179, Note_off_c, 2, 74, 100
1, 387187, Note_on_c, 1, 80, 114
1, 387188, Note_on_c, 2, 74, 123
1, 387188, Note_on_c, 2, 65, 127
1, 387189, Note_on_c, 4, 58, 127
1, 387389, Note_off_c, 2, 65, 100
1, 387389, Note_off_c, 4, 58, 100
1, 387390, Note_off_c, 1, 80, 100
1, 387390, Note_off_c, 2, 74, 100
1, 387400, Note_on_c, 1, 80, 114
1, 387401, Note_on_c, 2, 65, 127
1, 387401, Note_on_c, 2, 74, 123
1, 387402, Note_on_c, 4, 58, 127
1, 387491, Note_off_c, 1, 80, 100
1, 387537, Note_on_c, 1, 82, 114
1, 387588, Note_on_c, 1, 80, 114
1, 387594, Note_off_c, 1, 82, 100
1, 387636, Note_on_c, 1, 79, 114
1, 387644, Note_off_c, 1, 80, 100
1, 387688, Note_on_c, 1, 80, 114
1, 387696, Note_off_c, 1, 79, 100
1, 387740, Note_on_c, 1, 82, 114
1, 387748, Note_off_c, 1, 80, 100
1, 387790, Note_on_c, 1, 84, 119
1, 387796, Note_off_c, 1, 82, 100
1, 387853, Note_on_c, 1, 82, 114
1, 387861, Note_off_c, 1, 84, 100
1, 387949, Note_on_c, 1, 80, 114
1, 387959, Note_off_c, 1, 82, 100
1, 388042, Note_off_c, 2, 74, 100
1, 388042, Note_on_c, 1, 79, 114
1, 388050, Note_off_c, 1, 80, 100
1, 388135, Note_on_c, 2, 77, 118
1, 388144, Note_off_c, 1, 79, 100
1, 388225, Note_off_c, 2, 65, 100
1, 388225, Note_on_c, 2, 75, 121
1, 388236, Note_off_c, 2, 77, 100
1, 388320, Note_on_c, 2, 74, 123
1, 388330, Note_off_c, 2, 75, 100
1, 388415, Note_on_c, 2, 72, 125
1, 388424, Note_off_c, 2, 74, 100
1, 388516, Note_on_c, 2, 70, 127
1, 388525, Note_off_c, 2, 72, 100
1, 388608, Note_off_c, 2, 70, 100
1, 388618, Note_off_c, 4, 58, 100
1, 388619, Note_on_c, 4, 51, 127
1, 388619, Note_on_c, 2, 70, 127
1, 388620, Note_on_c, 2, 67, 127
1, 388902, Note_off_c, 2, 70, 100
1, 388923, Note_off_c, 2, 67, 100
1, 388939, Note_on_c, 2, 72, 125
1, 388987, Note_on_c, 2, 68, 127
1, 388992, Note_off_c, 2, 72, 100
1, 389025, Note_off_c, 2, 68, 100
1, 389035, Note_on_c, 2, 68, 127
1, 389035, Note_on_c, 2, 65, 127
1, 389233, Note_on_c, 2, 67, 127
1, 389234, Note_on_c, 2, 63, 127
1, 389248, Note_off_c, 2, 65, 100
1, 389248, Note_off_c, 2, 68, 100
1, 389424, Note_on_c, 2, 72, 125
1, 389425, Note_on_c, 2, 68, 127
1, 389439, Note_off_c, 2, 67, 100
1, 389439, Note_off_c, 2, 63, 100
1, 389611, Note_on_c, 2, 70, 127
1, 389611, Note_on_c, 2, 67, 127
1, 389625, Note_off_c, 2, 68, 100
1, 389626, Note_off_c, 2, 72, 100
1, 389778, Note_off_c, 4, 51, 100
1, 389787, Note_off_c, 2, 67, 100
1, 389788, Note_off_c, 2, 70, 100
1, 389791, Note_on_c, 2, 70, 127
1, 389791, Note_on_c, 2, 67, 127
1, 389792, Note_on_c, 4, 51, 127
1, 389896, Note_on_c, 4, 55, 127
1, 389904, Note_off_c, 4, 51, 100
1, 389993, Note_on_c, 4, 58, 127
1, 390000, Note_off_c, 4, 55, 100
1, 390062, Note_off_c, 2, 67, 100
1, 390062, Note_off_c, 2, 70, 100
1, 390099, Note_on_c, 2, 72, 125
1, 390100, Note_on_c, 4, 51, 127
1, 390112, Note_off_c, 4, 58, 100
1, 390148, Note_on_c, 2, 70, 127
1, 390164, Note_off_c, 2, 72, 100
1, 390200, Note_off_c, 2, 70, 100
1, 390204, Note_on_c, 2, 68, 127
1, 390204, Note_on_c, 4, 53, 127
1, 390215, Note_off_c, 4, 51, 100
1, 390299, Note_on_c, 4, 56, 127
1, 390307, Note_off_c, 4, 53, 100
1, 390393, Note_on_c, 4, 62, 127
1, 390403, Note_off_c, 4, 56, 100
1, 390483, Note_on_c, 4, 53, 127
1, 390493, Note_off_c, 4, 62, 100
1, 390576, Note_off_c, 2, 68, 100
1, 390576, Note_on_c, 2, 67, 127
1, 390576, Note_on_c, 4, 55, 127
1, 390584, Note_off_c, 4, 53, 100
1, 390672, Note_on_c, 4, 58, 127
1, 390680, Note_off_c, 4, 55, 100
1, 390761, Note_on_c, 2, 63, 127
1, 390770, Note_off_c, 4, 58, 100
1, 390861, Note_on_c, 4, 55, 127
1, 390870, Note_off_c, 2, 63, 100
1, 390947, Note_off_c, 2, 67, 100
1, 390959, Note_on_c, 2, 67, 127
1, 390960, Note_on_c, 4, 60, 127
1, 390961, Note_on_c, 4, 56, 127
1, 390969, Note_off_c, 4, 55, 100
1, 391062, Note_on_c, 2, 64, 127
1, 391071, Note_off_c, 2, 67, 100
1, 391156, Note_on_c, 2, 65, 127
1, 391163, Note_off_c, 2, 64, 100
1, 391242, Note_on_c, 2, 67, 127
1, 391251, Note_off_c, 2, 65, 100
1, 391331, Note_on_c, 2, 68, 127
1, 391340, Note_off_c, 2, 67, 100
1, 391416, Note_on_c, 2, 69, 127
1, 391426, Note_off_c, 2, 68, 100
1, 391502, Note_on_c, 2, 70, 127
1, 391512, Note_off_c, 2, 69, 100
1, 391593, Note_on_c, 2, 71, 127
1, 391604, Note_off_c, 2, 70, 100
1, 391694, Note_on_c, 2, 74, 123
1, 391704, Note_off_c, 2, 71, 100
1, 391744, Note_on_c, 2, 72, 125
1, 391750, Note_off_c, 2, 74, 100
1, 391795, Note_on_c, 2, 71, 127
1, 391804, Note_off_c, 2, 72, 100
1, 391850, Note_on_c, 2, 72, 125
1, 391856, Note_off_c, 2, 71, 100
1, 391892, Note_on_c, 2, 70, 127
1, 391898, Note_off_c, 2, 72, 100
1, 391938, Note_on_c, 2, 68, 127
1, 391944, Note_off_c, 2, 70, 100
1, 391986, Note_on_c, 2, 67, 127
1, 391992, Note_off_c, 2, 68, 100
1, 392034, Note_on_c, 2, 65, 127
1, 392040, Note_off_c, 2, 67, 100
1, 392092, Note_off_c, 4, 60, 100
1, 392092, Note_on_c, 2, 63, 127
1, 392093, Note_off_c, 4, 56, 100
1, 392093, Note_on_c, 4, 44, 127
1, 392096, Note_on_c, 4, 55, 127
1, 392100, Note_off_c, 2, 65, 100
1, 392190, Note_on_c, 4, 46, 127
1, 392200, Note_off_c, 4, 44, 100
1, 392275, Note_on_c, 4, 48, 127
1, 392283, Note_off_c, 4, 46, 100
1, 392358, Note_on_c, 4, 46, 127
1, 392367, Note_off_c, 4, 48, 100
1, 392446, Note_off_c, 4, 46, 100
1, 392452, Note_off_c, 2, 63, 100
1, 392452, Note_on_c, 4, 62, 127
1, 392455, Note_off_c, 4, 55, 100
1, 392455, Note_on_c, 4, 46, 127
1, 392456, Note_on_c, 4, 53, 127
1, 392496, Note_on_c, 4, 58, 127
1, 392502, Note_off_c, 4, 62, 100
1, 392546, Note_on_c, 4, 57, 127
1, 392552, Note_off_c, 4, 58, 100
1, 392593, Note_on_c, 4, 58, 127
1, 392601, Note_off_c, 4, 57, 100
1, 392645, Note_on_c, 4, 59, 127
1, 392651, Note_off_c, 4, 58, 100
1, 392695, Note_on_c, 4, 60, 127
1, 392700, Note_off_c, 4, 59, 100
1, 392741, Note_on_c, 4, 61, 127
1, 392747, Note_off_c, 4, 60, 100
1, 392789, Note_on_c, 4, 62, 127
1, 392797, Note_off_c, 4, 61, 100
1, 392835, Note_on_c, 2, 63, 127
1, 392841, Note_off_c, 4, 62, 100
1, 392880, Note_on_c, 2, 64, 127
1, 392887, Note_off_c, 2, 63, 100
1, 392927, Note_on_c, 2, 65, 127
1, 392933, Note_off_c, 2, 64, 100
1, 392973, Note_on_c, 2, 66, 127
1, 392981, Note_off_c, 2, 65, 100
1, 393020, Note_on_c, 2, 67, 127
1, 393025, Note_off_c, 2, 66, 100
1, 393066, Note_on_c, 2, 68, 127
1, 393071, Note_off_c, 2, 67, 100
1, 393114, Note_on_c, 2, 69, 127
1, 393120, Note_off_c, 2, 68, 100
1, 393160, Note_on_c, 2, 70, 127
1, 393167, Note_off_c, 2, 69, 100
1, 393201, Note_off_c, 2, 70, 100
1, 393205, Note_on_c, 4, 51, 127
1, 393205, Note_on_c, 2, 70, 127
1, 393205, Note_on_c, 2, 67, 127
1, 393206, Note_off_c, 4, 46, 100
1, 393206, Note_on_c, 4, 39, 127
1, 393207, Note_off_c, 4, 53, 100
1, 393490, Note_off_c, 2, 67, 100
1, 393491, Note_off_c, 2, 70, 100
1, 393491, Note_on_c, 2, 72, 125
1, 393533, Note_on_c, 2, 70, 127
1, 393539, Note_off_c, 2, 72, 100
1, 393579, Note_on_c, 2, 68, 127
1, 393585, Note_off_c, 2, 70, 100
1, 393627, Note_on_c, 2, 67, 127
1, 393633, Note_off_c, 2, 68, 100
1, 393677, Note_on_c, 2, 72, 125
1, 393683, Note_off_c, 2, 67, 100
1, 393723, Note_on_c, 2, 70, 127
1, 393729, Note_off_c, 2, 72, 100
1, 393769, Note_on_c, 2, 75, 121
1, 393775, Note_off_c, 2, 70, 100
1, 393816, Note_on_c, 2, 74, 123
1, 393821, Note_off_c, 2, 75, 100
1, 393864, Note_on_c, 2, 77, 118
1, 393871, Note_off_c, 2, 74, 100
1, 393915, Note_on_c, 2, 75, 121
1, 393921, Note_off_c, 2, 77, 100
1, 393944, Note_off_c, 4, 51, 100
1, 393960, Note_on_c, 4, 51, 127
1, 393960, Note_on_c, 4, 60, 127
1, 393960, Note_on_c, 1, 80, 114
1, 393966, Note_off_c, 2, 75, 100
1, 394005, Note_on_c, 1, 79, 114
1, 394010, Note_off_c, 1, 80, 100
1, 394045, Note_on_c, 1, 78, 115
1, 394051, Note_off_c, 1, 79, 100
1, 394089, Note_on_c, 1, 79, 114
1, 394096, Note_off_c, 1, 78, 100
1, 394134, Note_on_c, 2, 77, 118
1, 394142, Note_off_c, 1, 79, 100
1, 394182, Note_on_c, 2, 75, 121
1, 394188, Note_off_c, 2, 77, 100
1, 394228, Note_on_c, 2, 74, 123
1, 394234, Note_off_c, 2, 75, 100
1, 394274, Note_on_c, 2, 72, 125
1, 394282, Note_off_c, 2, 74, 100
1, 394313, Note_off_c, 4, 60, 100
1, 394324, Note_off_c, 4, 51, 100
1, 394325, Note_on_c, 4, 60, 127
1, 394325, Note_on_c, 2, 70, 127
1, 394326, Note_on_c, 4, 53, 127
1, 394330, Note_off_c, 2, 72, 100
1, 394510, Note_on_c, 2, 69, 127
1, 394525, Note_off_c, 2, 70, 100
1, 394686, Note_off_c, 4, 53, 100
1, 394687, Note_off_c, 4, 60, 100
1, 394687, Note_on_c, 4, 62, 127
1, 394688, Note_on_c, 4, 58, 127
1, 394855, Note_off_c, 4, 58, 100
1, 394861, Note_off_c, 2, 69, 100
1, 394861, Note_on_c, 2, 68, 127
1, 394862, Note_on_c, 4, 58, 127
1, 395035, Note_off_c, 4, 58, 100
1, 395035, Note_off_c, 2, 68, 100
1, 395040, Note_off_c, 4, 62, 100
1, 395040, Note_on_c, 2, 68, 127
1, 395040, Note_on_c, 2, 63, 127
1, 395041, Note_on_c, 4, 60, 127
1, 395139, Note_on_c, 2, 67, 127
1, 395149, Note_off_c, 2, 68, 100
1, 395241, Note_on_c, 2, 75, 121
1, 395242, Note_on_c, 4, 55, 127
1, 395250, Note_off_c, 2, 67, 100
1, 395257, Note_off_c, 4, 60, 100
1, 395258, Note_off_c, 2, 63, 100
1, 395322, Note_on_c, 2, 73, 127
1, 395329, Note_off_c, 2, 75, 100
1, 395418, Note_on_c, 2, 71, 127
1, 395419, Note_on_c, 2, 63, 127
1, 395419, Note_on_c, 4, 56, 127
1, 395426, Note_off_c, 2, 73, 100
1, 395432, Note_off_c, 4, 55, 100
1, 395507, Note_on_c, 2, 72, 125
1, 395515, Note_off_c, 2, 71, 100
1, 395605, Note_on_c, 2, 74, 123
1, 395616, Note_off_c, 2, 72, 100
1, 395696, Note_on_c, 2, 75, 121
1, 395707, Note_off_c, 2, 74, 100
1, 395755, Note_off_c, 4, 39, 100
1, 395780, Note_off_c, 2, 75, 100
1, 395788, Note_off_c, 4, 56, 100
1, 395788, Note_off_c, 2, 63, 100
1, 395789, Note_on_c, 4, 55, 127
1, 395789, Note_on_c, 2, 75, 121
1, 395790, Note_on_c, 4, 46, 127
1, 395973, Note_on_c, 2, 70, 127
1, 395988, Note_off_c, 2, 75, 100
1, 396160, Note_off_c, 2, 70, 100
1, 396164, Note_off_c, 4, 55, 100
1, 396165, Note_on_c, 4, 56, 127
1, 396165, Note_on_c, 2, 70, 127
1, 396248, Note_on_c, 2, 72, 125
1, 396255, Note_off_c, 2, 70, 100
1, 396303, Note_on_c, 2, 70, 127
1, 396309, Note_off_c, 2, 72, 100
1, 396346, Note_off_c, 2, 70, 100
1, 396346, Note_on_c, 2, 70, 127
1, 396389, Note_on_c, 2, 68, 127
1, 396396, Note_off_c, 2, 70, 100
1, 396439, Note_on_c, 2, 67, 127
1, 396445, Note_off_c, 2, 68, 100
1, 396488, Note_on_c, 2, 65, 127
1, 396495, Note_off_c, 2, 67, 100
1, 396538, Note_off_c, 4, 56, 100
1, 396538, Note_off_c, 4, 46, 100
1, 396539, Note_on_c, 2, 63, 127
1, 396539, Note_on_c, 4, 51, 127
1, 396545, Note_off_c, 2, 65, 100
1, 396641, Note_on_c, 4, 55, 127
1, 396651, Note_off_c, 4, 51, 100
1, 396735, Note_on_c, 4, 58, 127
1, 396747, Note_off_c, 4, 55, 100
1, 396839, Note_on_c, 4, 55, 127
1, 396849, Note_off_c, 4, 58, 100
1, 396931, Note_on_c, 4, 51, 127
1, 396941, Note_off_c, 4, 55, 100
1, 397024, Note_on_c, 4, 55, 127
1, 397036, Note_off_c, 4, 51, 100
1, 397123, Note_off_c, 2, 63, 100
1, 397123, Note_on_c, 2, 70, 127
1, 397124, Note_on_c, 2, 67, 127
1, 397124, Note_on_c, 4, 58, 127
1, 397130, Note_off_c, 4, 55, 100
1, 397222, Note_on_c, 4, 55, 127
1, 397232, Note_off_c, 4, 58, 100
1, 397307, Note_off_c, 2, 70, 100
1, 397308, Note_off_c, 2, 67, 100
1, 397312, Note_on_c, 2, 70, 127
1, 397313, Note_on_c, 4, 51, 127
1, 397315, Note_on_c, 2, 67, 127
1, 397323, Note_off_c, 4, 55, 100
1, 397411, Note_on_c, 4, 55, 127
1, 397419, Note_off_c, 4, 51, 100
1, 397498, Note_off_c, 2, 70, 100
1, 397500, Note_off_c, 2, 67, 100
1, 397505, Note_on_c, 2, 70, 127
1, 397506, Note_on_c, 2, 67, 127
1, 397506, Note_on_c, 4, 58, 127
1, 397514, Note_off_c, 4, 55, 100
1, 397601, Note_on_c, 4, 55, 127
1, 397612, Note_off_c, 4, 58, 100
1, 397691, Note_off_c, 2, 70, 100
1, 397691, Note_off_c, 2, 67, 100
1, 397696, Note_on_c, 2, 75, 124
1, 397697, Note_on_c, 2, 68, 127
1, 397697, Note_on_c, 4, 51, 127
1, 397707, Note_off_c, 4, 55, 100
1, 397799, Note_on_c, 4, 53, 127
1, 397807, Note_off_c, 4, 51, 100
1, 397903, Note_on_c, 2, 74, 126
1, 397903, Note_on_c, 4, 56, 127
1, 397914, Note_off_c, 4, 53, 100
1, 397923, Note_off_c, 2, 75, 100
1, 398000, Note_on_c, 4, 53, 127
1, 398009, Note_off_c, 4, 56, 100
1, 398092, Note_on_c, 4, 51, 127
1, 398101, Note_off_c, 4, 53, 100
1, 398177, Note_on_c, 4, 53, 127
1, 398185, Note_off_c, 4, 51, 100
1, 398264, Note_off_c, 2, 74, 100
1, 398265, Note_on_c, 1, 82, 114
1, 398265, Note_on_c, 4, 56, 127
1, 398273, Note_off_c, 4, 53, 100
1, 398362, Note_on_c, 1, 80, 114
1, 398363, Note_on_c, 4, 53, 127
1, 398373, Note_off_c, 4, 56, 100
1, 398374, Note_off_c, 1, 82, 100
1, 398459, Note_on_c, 1, 79, 114
1, 398460, Note_on_c, 4, 51, 127
1, 398468, Note_off_c, 1, 80, 100
1, 398468, Note_off_c, 4, 53, 100
1, 398545, Note_on_c, 2, 77, 118
1, 398546, Note_on_c, 4, 53, 127
1, 398554, Note_off_c, 4, 51, 100
1, 398554, Note_off_c, 1, 79, 100
1, 398640, Note_on_c, 2, 75, 121
1, 398640, Note_on_c, 4, 56, 127
1, 398652, Note_off_c, 2, 77, 100
1, 398652, Note_off_c, 4, 53, 100
1, 398741, Note_on_c, 2, 74, 116
1, 398742, Note_on_c, 4, 53, 127
1, 398750, Note_off_c, 4, 56, 100
1, 398750, Note_off_c, 2, 75, 100
1, 398832, Note_on_c, 2, 77, 107
1, 398832, Note_on_c, 4, 51, 127
1, 398842, Note_off_c, 4, 53, 100
1, 398843, Note_off_c, 2, 74, 100
1, 398908, Note_off_c, 2, 77, 100
1, 398926, Note_on_c, 2, 75, 110
1, 398926, Note_on_c, 4, 55, 127
1, 398936, Note_off_c, 4, 51, 100
1, 398952, Note_on_c, 2, 77, 107
1, 398963, Note_off_c, 2, 75, 64
1, 398976, Note_on_c, 2, 75, 110
1, 398990, Note_off_c, 2, 77, 64
1, 399005, Note_on_c, 2, 77, 107
1, 399017, Note_off_c, 2, 75, 64
1, 399032, Note_on_c, 2, 75, 110
1, 399033, Note_on_c, 4, 58, 127
1, 399045, Note_off_c, 2, 77, 64
1, 399045, Note_off_c, 4, 55, 100
1, 399062, Note_on_c, 2, 77, 107
1, 399075, Note_off_c, 2, 75, 64
1, 399093, Note_on_c, 2, 74, 112
1, 399106, Note_off_c, 2, 77, 64
1, 399120, Note_off_c, 2, 74, 64
1, 399120, Note_on_c, 2, 75, 110
1, 399147, Note_off_c, 2, 75, 64
1, 399148, Note_on_c, 2, 74, 112
1, 399148, Note_on_c, 4, 55, 127
1, 399149, Note_off_c, 2, 68, 100
1, 399159, Note_off_c, 4, 58, 100
1, 399201, Note_off_c, 2, 74, 100
1, 399207, Note_on_c, 2, 72, 114
1, 399259, Note_off_c, 2, 72, 100
1, 399263, Note_on_c, 2, 70, 127
1, 399263, Note_on_c, 4, 51, 127
1, 399273, Note_off_c, 4, 55, 100
1, 399360, Note_on_c, 4, 55, 127
1, 399371, Note_off_c, 4, 51, 100
1, 399456, Note_off_c, 2, 70, 100
1, 399461, Note_on_c, 2, 70, 127
1, 399462, Note_on_c, 2, 67, 127
1, 399462, Note_on_c, 4, 58, 127
1, 399470, Note_off_c, 4, 55, 100
1, 399556, Note_on_c, 4, 55, 127
1, 399568, Note_off_c, 4, 58, 100
1, 399645, Note_off_c, 2, 70, 100
1, 399647, Note_off_c, 2, 67, 100
1, 399650, Note_on_c, 2, 70, 127
1, 399651, Note_on_c, 4, 51, 127
1, 399653, Note_on_c, 2, 67, 127
1, 399661, Note_off_c, 4, 55, 100
1, 399751, Note_on_c, 4, 55, 127
1, 399759, Note_off_c, 4, 51, 100
1, 399840, Note_off_c, 2, 70, 100
1, 399841, Note_off_c, 2, 67, 100
1, 399845, Note_on_c, 2, 70, 127
1, 399846, Note_on_c, 4, 58, 127
1, 399848, Note_on_c, 2, 67, 127
1, 399854, Note_off_c, 4, 55, 100
1, 399938, Note_on_c, 4, 55, 127
1, 399946, Note_off_c, 4, 58, 100
1, 400023, Note_off_c, 2, 70, 100
1, 400025, Note_off_c, 2, 67, 100
1, 400031, Note_on_c, 2, 75, 124
1, 400031, Note_on_c, 4, 51, 127
1, 400032, Note_on_c, 2, 68, 127
1, 400039, Note_off_c, 4, 55, 100
1, 400139, Note_on_c, 2, 74, 126
1, 400140, Note_on_c, 4, 55, 127
1, 400150, Note_off_c, 4, 51, 100
1, 400150, Note_off_c, 2, 75, 100
1, 400260, Note_on_c, 1, 84, 122
1, 400261, Note_on_c, 4, 58, 127
1, 400265, Note_off_c, 4, 55, 100
1, 400265, Note_off_c, 2, 74, 100
1, 400349, Note_on_c, 4, 55, 127
1, 400358, Note_off_c, 4, 58, 100
1, 400451, Note_on_c, 4, 51, 127
1, 400460, Note_off_c, 4, 55, 100
1, 400550, Note_on_c, 4, 53, 127
1, 400560, Note_off_c, 4, 51, 100
1, 400644, Note_off_c, 1, 84, 100
1, 400645, Note_on_c, 1, 82, 107
1, 400645, Note_on_c, 4, 58, 127
1, 400651, Note_off_c, 4, 53, 100
1, 400695, Note_on_c, 1, 80, 107
1, 400701, Note_off_c, 1, 82, 100
1, 400738, Note_on_c, 4, 53, 127
1, 400738, Note_on_c, 1, 84, 112
1, 400744, Note_off_c, 1, 80, 100
1, 400746, Note_off_c, 4, 58, 100
1, 400788, Note_on_c, 1, 80, 107
1, 400793, Note_off_c, 1, 84, 100
1, 400836, Note_on_c, 1, 79, 107
1, 400836, Note_on_c, 4, 51, 127
1, 400842, Note_off_c, 1, 80, 100
1, 400844, Note_off_c, 4, 53, 100
1, 400881, Note_on_c, 2, 77, 111
1, 400888, Note_off_c, 1, 79, 100
1, 400927, Note_on_c, 1, 80, 107
1, 400927, Note_on_c, 4, 53, 127
1, 400933, Note_off_c, 2, 77, 100
1, 400937, Note_off_c, 4, 51, 100
1, 400976, Note_on_c, 2, 77, 111
1, 400981, Note_off_c, 1, 80, 100
1, 401018, Note_on_c, 2, 75, 114
1, 401018, Note_on_c, 4, 56, 127
1, 401025, Note_off_c, 2, 77, 100
1, 401027, Note_off_c, 4, 53, 100
1, 401063, Note_on_c, 2, 74, 116
1, 401069, Note_off_c, 2, 75, 100
1, 401105, Note_on_c, 2, 77, 111
1, 401106, Note_on_c, 4, 53, 127
1, 401112, Note_off_c, 2, 74, 100
1, 401114, Note_off_c, 4, 56, 100
1, 401152, Note_on_c, 2, 74, 116
1, 401158, Note_off_c, 2, 77, 100
1, 401196, Note_on_c, 2, 75, 114
1, 401197, Note_on_c, 4, 55, 127
1, 401197, Note_on_c, 4, 51, 127
1, 401202, Note_off_c, 2, 74, 100
1, 401206, Note_off_c, 4, 53, 100
1, 401239, Note_on_c, 2, 77, 111
1, 401244, Note_off_c, 2, 75, 100
1, 401287, Note_on_c, 2, 75, 114
1, 401292, Note_off_c, 2, 77, 100
1, 401329, Note_on_c, 2, 74, 116
1, 401337, Note_off_c, 2, 75, 100
1, 401373, Note_on_c, 2, 75, 114
1, 401379, Note_off_c, 2, 74, 100
1, 401413, Note_on_c, 2, 77, 111
1, 401421, Note_off_c, 2, 75, 100
1, 401460, Note_on_c, 1, 78, 108
1, 401461, Note_off_c, 2, 68, 100
1, 401465, Note_off_c, 2, 77, 100
1, 401508, Note_on_c, 1, 79, 107
1, 401513, Note_off_c, 1, 78, 100
1, 401548, Note_on_c, 2, 70, 127
1, 401554, Note_off_c, 1, 79, 100
1, 401730, Note_off_c, 4, 55, 100
1, 401734, Note_off_c, 2, 70, 100
1, 401738, Note_off_c, 4, 51, 100
1, 401738, Note_on_c, 2, 70, 127
1, 401739, Note_on_c, 2, 67, 127
1, 401739, Note_on_c, 4, 55, 127
1, 401930, Note_off_c, 2, 70, 100
1, 401930, Note_off_c, 4, 55, 100
1, 401931, Note_off_c, 2, 67, 100
1, 401935, Note_on_c, 2, 68, 127
1, 401935, Note_on_c, 4, 56, 127
1, 401936, Note_on_c, 2, 65, 127
1, 402122, Note_off_c, 4, 56, 100
1, 402122, Note_off_c, 2, 68, 100
1, 402123, Note_off_c, 2, 65, 100
1, 402127, Note_on_c, 2, 67, 127
1, 402127, Note_on_c, 4, 57, 127
1, 402128, Note_on_c, 2, 63, 127
1, 402331, Note_off_c, 4, 57, 100
1, 402332, Note_off_c, 2, 67, 100
1, 402334, Note_off_c, 2, 63, 100
1, 402336, Note_on_c, 2, 70, 127
1, 402338, Note_on_c, 4, 58, 127
1, 402340, Note_on_c, 2, 63, 127
1, 402450, Note_on_c, 2, 69, 127
1, 402464, Note_off_c, 2, 70, 100
1, 402540, Note_on_c, 2, 70, 127
1, 402558, Note_off_c, 2, 69, 100
1, 402639, Note_on_c, 2, 67, 127
1, 402656, Note_off_c, 2, 70, 100
1, 402719, Note_off_c, 4, 58, 100
1, 402729, Note_on_c, 2, 65, 127
1, 402731, Note_on_c, 4, 58, 127
1, 402732, Note_off_c, 2, 63, 100
1, 402734, Note_on_c, 4, 62, 127
1, 402748, Note_off_c, 2, 67, 100
1, 402831, Note_on_c, 4, 59, 127
1, 402842, Note_off_c, 4, 58, 100
1, 402933, Note_on_c, 4, 60, 127
1, 402942, Note_off_c, 4, 59, 100
1, 403038, Note_on_c, 4, 58, 127
1, 403047, Note_off_c, 4, 60, 100
1, 403116, Note_off_c, 4, 58, 100
1, 403123, Note_on_c, 4, 58, 127
1, 403217, Note_on_c, 4, 56, 127
1, 403226, Note_off_c, 4, 58, 100
1, 403313, Note_on_c, 4, 55, 127
1, 403320, Note_off_c, 4, 56, 100
1, 403416, Note_on_c, 4, 53, 127
1, 403426, Note_off_c, 4, 55, 100
1, 403522, Note_off_c, 2, 65, 100
1, 403523, Note_on_c, 2, 70, 127
1, 403523, Note_on_c, 4, 51, 127
1, 403527, Note_off_c, 4, 62, 100
1, 403533, Note_off_c, 4, 53, 100
1, 403627, Note_on_c, 1, 82, 114
1, 403728, Note_on_c, 4, 55, 127
1, 403742, Note_off_c, 4, 51, 100
1, 403743, Note_off_c, 2, 70, 100
1, 403914, Note_on_c, 4, 58, 127
1, 403931, Note_off_c, 4, 55, 100
1, 404104, Note_off_c, 1, 82, 100
1, 404104, Note_on_c, 1, 80, 114
1, 404105, Note_on_c, 2, 63, 127
1, 404118, Note_off_c, 4, 58, 100
1, 404144, Note_on_c, 1, 79, 114
1, 404150, Note_off_c, 1, 80, 100
1, 404188, Note_on_c, 2, 77, 118
1, 404194, Note_off_c, 1, 79, 100
1, 404232, Note_on_c, 2, 75, 121
1, 404240, Note_off_c, 2, 77, 100
1, 404280, Note_on_c, 2, 74, 123
1, 404281, Note_on_c, 2, 68, 127
1, 404285, Note_off_c, 2, 75, 100
1, 404295, Note_off_c, 2, 63, 100
1, 404470, Note_on_c, 2, 75, 121
1, 404470, Note_on_c, 2, 67, 127
1, 404487, Note_off_c, 2, 74, 100
1, 404487, Note_off_c, 2, 68, 100
1, 404655, Note_on_c, 2, 77, 116
1, 404655, Note_on_c, 2, 74, 123
1, 404656, Note_on_c, 2, 68, 127
1, 404657, Note_on_c, 2, 65, 127
1, 404673, Note_off_c, 2, 75, 100
1, 404674, Note_off_c, 2, 67, 100
1, 404834, Note_off_c, 2, 74, 100
1, 404835, Note_off_c, 2, 77, 100
1, 404837, Note_off_c, 2, 65, 100
1, 404838, Note_off_c, 2, 68, 100
1, 404842, Note_on_c, 1, 80, 112
1, 404843, Note_on_c, 2, 75, 121
1, 404843, Note_on_c, 2, 67, 127
1, 404844, Note_on_c, 2, 63, 127
1, 404885, Note_on_c, 1, 79, 112
1, 404892, Note_off_c, 1, 80, 100
1, 404936, Note_on_c, 2, 77, 116
1, 404942, Note_off_c, 1, 79, 100
1, 404979, Note_on_c, 1, 79, 112
1, 404984, Note_off_c, 2, 77, 100
1, 405023, Note_on_c, 1, 80, 112
1, 405024, Note_on_c, 2, 77, 116
1, 405025, Note_on_c, 2, 65, 127
1, 405026, Note_on_c, 4, 62, 127
1, 405030, Note_off_c, 1, 79, 100
1, 405040, Note_off_c, 2, 75, 100
1, 405042, Note_off_c, 2, 67, 100
1, 405042, Note_off_c, 2, 63, 100
1, 405218, Note_on_c, 2, 70, 127
1, 405235, Note_off_c, 2, 77, 100
1, 405236, Note_off_c, 1, 80, 100
1, 405236, Note_off_c, 4, 62, 100
1, 405237, Note_off_c, 2, 65, 100
1, 405400, Note_off_c, 2, 70, 100
1, 405410, Note_on_c, 2, 70, 127
1, 405577, Note_off_c, 2, 70, 100
1, 405587, Note_on_c, 2, 70, 127
1, 405788, Note_on_c, 1, 80, 112
1, 405807, Note_off_c, 2, 70, 100
1, 405990, Note_on_c, 4, 60, 127
1, 406170, Note_on_c, 4, 62, 127
1, 406186, Note_off_c, 4, 60, 100
1, 406355, Note_off_c, 1, 80, 100
1, 406355, Note_on_c, 1, 82, 110
1, 406356, Note_on_c, 2, 65, 127
1, 406371, Note_off_c, 4, 62, 100
1, 406400, Note_on_c, 1, 80, 110
1, 406405, Note_off_c, 1, 82, 100
1, 406448, Note_on_c, 1, 79, 110
1, 406453, Note_off_c, 1, 80, 100
1, 406488, Note_on_c, 2, 77, 114
1, 406496, Note_off_c, 1, 79, 100
1, 406532, Note_on_c, 2, 75, 119
1, 406533, Note_on_c, 2, 67, 127
1, 406539, Note_off_c, 2, 77, 100
1, 406547, Note_off_c, 2, 65, 100
1, 406717, Note_on_c, 2, 77, 116
1, 406718, Note_on_c, 2, 74, 121
1, 406718, Note_on_c, 2, 68, 127
1, 406734, Note_off_c, 2, 75, 100
1, 406734, Note_off_c, 2, 67, 100
1, 406896, Note_on_c, 1, 79, 112
1, 406896, Note_on_c, 2, 70, 127
1, 406897, Note_on_c, 2, 75, 119
1, 406897, Note_on_c, 2, 67, 127
1, 406913, Note_off_c, 2, 68, 100
1, 406914, Note_off_c, 2, 77, 100
1, 406914, Note_off_c, 2, 74, 100
1, 407074, Note_off_c, 2, 70, 100
1, 407074, Note_off_c, 2, 67, 100
1, 407075, Note_off_c, 1, 79, 100
1, 407075, Note_off_c, 2, 75, 100
1, 407077, Note_on_c, 1, 82, 110
1, 407078, Note_on_c, 2, 77, 116
1, 407078, Note_on_c, 2, 68, 127
1, 407079, Note_on_c, 2, 65, 127
1, 407108, Note_off_c, 1, 82, 100
1, 407122, Note_on_c, 1, 80, 110
1, 407150, Note_off_c, 1, 80, 100
1, 407168, Note_on_c, 1, 79, 110
1, 407195, Note_off_c, 1, 79, 100
1, 407208, Note_on_c, 1, 80, 110
1, 407237, Note_off_c, 1, 80, 100
1, 407252, Note_on_c, 1, 82, 110
1, 407253, Note_on_c, 1, 79, 110
1, 407253, Note_on_c, 2, 67, 127
1, 407254, Note_on_c, 2, 63, 127
1, 407266, Note_off_c, 2, 65, 100
1, 407267, Note_off_c, 2, 68, 100
1, 407267, Note_off_c, 2, 77, 100
1, 407440, Note_on_c, 4, 51, 127
1, 407440, Note_on_c, 4, 39, 127
1, 407623, Note_off_c, 4, 39, 100
1, 407623, Note_off_c, 4, 51, 100
1, 407628, Note_on_c, 4, 51, 127
1, 407628, Note_on_c, 4, 39, 127
1, 407809, Note_off_c, 4, 39, 100
1, 407809, Note_off_c, 4, 51, 100
1, 407814, Note_on_c, 4, 51, 127
1, 407815, Note_on_c, 4, 39, 127
1, 408005, Note_off_c, 2, 63, 100
1, 408006, Note_off_c, 2, 67, 100
1, 408006, Note_off_c, 1, 79, 100
1, 408007, Note_off_c, 1, 82, 100
1, 408007, Note_on_c, 2, 73, 127
1, 408207, Note_off_c, 4, 51, 100
1, 408207, Note_off_c, 4, 39, 100
1, 408208, Note_on_c, 2, 63, 127
1, 408208, Note_on_c, 4, 55, 127
1, 408374, Note_off_c, 4, 55, 100
1, 408374, Note_off_c, 2, 63, 100
1, 408381, Note_off_c, 2, 73, 100
1, 408381, Note_on_c, 2, 75, 121
1, 408382, Note_on_c, 2, 63, 127
1, 408382, Note_on_c, 4, 55, 127
1, 408423, Note_on_c, 2, 73, 127
1, 408429, Note_off_c, 2, 75, 100
1, 408463, Note_on_c, 2, 72, 125
1, 408469, Note_off_c, 2, 73, 100
1, 408509, Note_on_c, 2, 73, 127
1, 408515, Note_off_c, 2, 72, 100
1, 408546, Note_off_c, 4, 55, 100
1, 408546, Note_off_c, 2, 63, 100
1, 408551, Note_on_c, 2, 63, 127
1, 408551, Note_on_c, 2, 75, 121
1, 408552, Note_on_c, 4, 55, 127
1, 408557, Note_off_c, 2, 73, 100
1, 408648, Note_on_c, 2, 77, 118
1, 408656, Note_off_c, 2, 75, 100
1, 408727, Note_off_c, 4, 55, 100
1, 408728, Note_off_c, 2, 63, 100
1, 408734, Note_on_c, 2, 75, 121
1, 408734, Note_on_c, 2, 63, 127
1, 408735, Note_on_c, 4, 55, 127
1, 408744, Note_off_c, 2, 77, 100
1, 408819, Note_on_c, 2, 73, 127
1, 408827, Note_off_c, 2, 75, 100
1, 408899, Note_off_c, 4, 55, 100
1, 408900, Note_off_c, 2, 63, 100
1, 408906, Note_on_c, 2, 63, 127
1, 408906, Note_on_c, 2, 72, 125
1, 408907, Note_on_c, 4, 55, 127
1, 408913, Note_off_c, 2, 73, 100
1, 408991, Note_on_c, 2, 71, 127
1, 409001, Note_off_c, 2, 72, 100
1, 409078, Note_off_c, 2, 71, 100
1, 409087, Note_on_c, 2, 71, 127
1, 409264, Note_off_c, 2, 63, 100
1, 409264, Note_off_c, 4, 55, 100
1, 409277, Note_on_c, 2, 63, 127
1, 409277, Note_on_c, 4, 55, 127
1, 409456, Note_off_c, 2, 71, 100
1, 409462, Note_off_c, 4, 55, 100
1, 409467, Note_on_c, 2, 71, 127
1, 409468, Note_on_c, 4, 56, 127
1, 409553, Note_on_c, 2, 72, 125
1, 409560, Note_off_c, 2, 71, 100
1, 409626, Note_off_c, 2, 63, 100
1, 409630, Note_off_c, 4, 56, 100
1, 409635, Note_on_c, 2, 75, 121
1, 409636, Note_on_c, 2, 63, 127
1, 409636, Note_on_c, 4, 56, 127
1, 409644, Note_off_c, 2, 72, 100
1, 409727, Note_on_c, 2, 74, 123
1, 409736, Note_off_c, 2, 75, 100
1, 409801, Note_off_c, 4, 56, 100
1, 409802, Note_off_c, 2, 63, 100
1, 409809, Note_on_c, 2, 63, 127
1, 409809, Note_on_c, 4, 56, 127
1, 409809, Note_on_c, 2, 77, 118
1, 409815, Note_off_c, 2, 74, 100
1, 409893, Note_on_c, 2, 75, 121
1, 409900, Note_off_c, 2, 77, 100
1, 409972, Note_off_c, 4, 56, 100
1, 409973, Note_off_c, 2, 63, 100
1, 409981, Note_on_c, 2, 74, 123
1, 409982, Note_on_c, 2, 63, 127
1, 409982, Note_on_c, 4, 56, 127
1, 409988, Note_off_c, 2, 75, 100
1, 410067, Note_on_c, 2, 72, 125
1, 410074, Note_off_c, 2, 74, 100
1, 410137, Note_off_c, 2, 63, 100
1, 410144, Note_on_c, 2, 70, 127
1, 410144, Note_on_c, 2, 63, 127
1, 410145, Note_on_c, 4, 55, 127
1, 410150, Note_off_c, 2, 72, 100
1, 410158, Note_off_c, 4, 56, 100
1, 410241, Note_on_c, 2, 71, 127
1, 410248, Note_off_c, 2, 70, 100
1, 410321, Note_off_c, 2, 63, 100
1, 410327, Note_on_c, 2, 72, 125
1, 410328, Note_on_c, 2, 63, 127
1, 410328, Note_on_c, 4, 56, 127
1, 410336, Note_off_c, 2, 71, 100
1, 410341, Note_off_c, 4, 55, 100
1, 410412, Note_on_c, 2, 73, 127
1, 410420, Note_off_c, 2, 72, 100
1, 410493, Note_off_c, 2, 63, 100
1, 410501, Note_on_c, 4, 55, 127
1, 410501, Note_on_c, 2, 74, 123
1, 410502, Note_on_c, 4, 46, 127
1, 410509, Note_off_c, 2, 73, 100
1, 410515, Note_off_c, 4, 56, 100
1, 410588, Note_on_c, 2, 75, 121
1, 410598, Note_off_c, 2, 74, 100
1, 410678, Note_off_c, 4, 46, 100
1, 410679, Note_off_c, 4, 55, 100
1, 410686, Note_on_c, 2, 63, 127
1, 410687, Note_on_c, 4, 55, 127
1, 410687, Note_on_c, 4, 46, 127
1, 410699, Note_off_c, 2, 75, 100
1, 410866, Note_off_c, 4, 46, 100
1, 410866, Note_off_c, 4, 55, 100
1, 410870, Note_on_c, 2, 67, 127
1, 410871, Note_on_c, 4, 62, 127
1, 410871, Note_on_c, 4, 56, 127
1, 410872, Note_on_c, 4, 46, 127
1, 410884, Note_off_c, 2, 63, 100
1, 410964, Note_on_c, 2, 65, 127
1, 410972, Note_off_c, 2, 67, 100
1, 411049, Note_off_c, 4, 56, 100
1, 411049, Note_off_c, 4, 46, 100
1, 411056, Note_on_c, 2, 63, 127
1, 411056, Note_on_c, 4, 56, 127
1, 411057, Note_on_c, 4, 46, 127
1, 411062, Note_off_c, 2, 65, 100
1, 411124, Note_on_c, 2, 65, 127
1, 411130, Note_off_c, 2, 63, 100
1, 411222, Note_off_c, 4, 56, 100
1, 411222, Note_off_c, 4, 46, 100
1, 411227, Note_off_c, 4, 62, 100
1, 411227, Note_on_c, 2, 63, 127
1, 411228, Note_on_c, 4, 55, 127
1, 411228, Note_on_c, 4, 51, 127
1, 411234, Note_off_c, 2, 65, 100
1, 411303, Note_off_c, 4, 51, 100
1, 411312, Note_on_c, 4, 51, 127
1, 411402, Note_off_c, 4, 55, 100
1, 411406, Note_on_c, 4, 55, 127
1, 411414, Note_off_c, 4, 51, 100
1, 411496, Note_on_c, 4, 58, 127
1, 411506, Note_off_c, 4, 55, 100
1, 411583, Note_on_c, 4, 56, 127
1, 411592, Note_off_c, 4, 58, 100
1, 411673, Note_on_c, 4, 58, 127
1, 411683, Note_off_c, 4, 56, 100
1, 411756, Note_off_c, 2, 63, 100
1, 411763, Note_on_c, 2, 70, 127
1, 411764, Note_on_c, 2, 63, 127
1, 411764, Note_on_c, 4, 55, 127
1, 411772, Note_off_c, 4, 58, 100
1, 411863, Note_on_c, 4, 58, 127
1, 411875, Note_off_c, 4, 55, 100
1, 411949, Note_off_c, 2, 70, 100
1, 411951, Note_off_c, 2, 63, 100
1, 411955, Note_on_c, 2, 70, 127
1, 411956, Note_on_c, 4, 53, 127
1, 411958, Note_on_c, 2, 65, 127
1, 411964, Note_off_c, 4, 58, 100
1, 412048, Note_on_c, 4, 58, 127
1, 412060, Note_off_c, 4, 53, 100
1, 412139, Note_off_c, 2, 70, 100
1, 412140, Note_off_c, 2, 65, 100
1, 412147, Note_on_c, 2, 70, 127
1, 412147, Note_on_c, 4, 51, 127
1, 412148, Note_on_c, 2, 67, 127
1, 412155, Note_off_c, 4, 58, 100
1, 412235, Note_on_c, 4, 58, 127
1, 412242, Note_off_c, 4, 51, 100
1, 412317, Note_off_c, 2, 70, 100
1, 412318, Note_off_c, 2, 67, 100
1, 412323, Note_on_c, 2, 70, 127
1, 412324, Note_on_c, 2, 68, 127
1, 412324, Note_on_c, 4, 50, 127
1, 412333, Note_off_c, 4, 58, 100
1, 412424, Note_on_c, 4, 53, 127
1, 412433, Note_off_c, 4, 50, 100
1, 412510, Note_off_c, 2, 70, 100
1, 412511, Note_off_c, 2, 68, 100
1, 412515, Note_on_c, 2, 70, 127
1, 412516, Note_on_c, 4, 56, 127
1, 412524, Note_off_c, 4, 53, 100
1, 412560, Note_on_c, 2, 72, 125
1, 412566, Note_off_c, 2, 70, 100
1, 412607, Note_on_c, 2, 70, 127
1, 412607, Note_on_c, 4, 55, 127
1, 412611, Note_off_c, 2, 72, 100
1, 412613, Note_off_c, 4, 56, 100
1, 412650, Note_on_c, 2, 68, 127
1, 412653, Note_off_c, 2, 70, 100
1, 412692, Note_on_c, 2, 70, 127
1, 412692, Note_on_c, 4, 53, 127
1, 412701, Note_off_c, 2, 68, 100
1, 412701, Note_off_c, 4, 55, 100
1, 412786, Note_on_c, 4, 51, 127
1, 412794, Note_off_c, 4, 53, 100
1, 412876, Note_off_c, 2, 70, 100
1, 412882, Note_on_c, 2, 70, 127
1, 412883, Note_on_c, 4, 50, 127
1, 412885, Note_on_c, 4, 62, 127
1, 412893, Note_off_c, 4, 51, 100
1, 412977, Note_on_c, 4, 48, 127
1, 412987, Note_off_c, 4, 50, 100
1, 413077, Note_on_c, 2, 72, 125
1, 413077, Note_on_c, 4, 46, 127
1, 413078, Note_on_c, 2, 63, 127
1, 413087, Note_off_c, 4, 48, 100
1, 413092, Note_off_c, 2, 70, 100
1, 413093, Note_off_c, 4, 62, 100
1, 413167, Note_on_c, 4, 48, 127
1, 413175, Note_off_c, 4, 46, 100
1, 413259, Note_on_c, 2, 74, 123
1, 413260, Note_on_c, 2, 65, 127
1, 413260, Note_on_c, 4, 44, 127
1, 413268, Note_off_c, 4, 48, 100
1, 413274, Note_off_c, 2, 72, 100
1, 413276, Note_off_c, 2, 63, 100
1, 413345, Note_on_c, 4, 46, 127
1, 413354, Note_off_c, 4, 44, 100
1, 413441, Note_on_c, 2, 75, 121
1, 413441, Note_on_c, 4, 43, 127
1, 413451, Note_off_c, 4, 46, 100
1, 413457, Note_off_c, 2, 74, 100
1, 413532, Note_on_c, 4, 46, 127
1, 413540, Note_off_c, 4, 43, 100
1, 413615, Note_off_c, 2, 75, 100
1, 413618, Note_on_c, 2, 75, 121
1, 413619, Note_on_c, 4, 51, 127
1, 413627, Note_off_c, 4, 46, 100
1, 413665, Note_on_c, 2, 77, 118
1, 413671, Note_off_c, 2, 75, 100
1, 413710, Note_on_c, 1, 79, 114
1, 413710, Note_on_c, 4, 46, 127
1, 413716, Note_off_c, 2, 77, 100
1, 413718, Note_off_c, 4, 51, 100
1, 413755, Note_on_c, 2, 75, 121
1, 413760, Note_off_c, 1, 79, 100
1, 413799, Note_on_c, 2, 70, 127
1, 413799, Note_on_c, 4, 55, 127
1, 413800, Note_off_c, 2, 65, 100
1, 413806, Note_off_c, 2, 75, 100
1, 413808, Note_off_c, 4, 46, 100
1, 413978, Note_off_c, 4, 55, 100
1, 413979, Note_off_c, 2, 70, 100
1, 413985, Note_on_c, 2, 70, 127
1, 413986, Note_on_c, 4, 55, 127
1, 413986, Note_on_c, 4, 51, 127
1, 413987, Note_on_c, 2, 67, 127
1, 414179, Note_off_c, 4, 51, 100
1, 414180, Note_off_c, 2, 70, 100
1, 414180, Note_off_c, 4, 55, 100
1, 414180, Note_off_c, 2, 67, 100
1, 414183, Note_on_c, 2, 68, 127
1, 414183, Note_on_c, 4, 56, 127
1, 414184, Note_on_c, 2, 65, 127
1, 414184, Note_on_c, 4, 53, 127
1, 414365, Note_off_c, 4, 53, 100
1, 414366, Note_off_c, 4, 56, 100
1, 414366, Note_off_c, 2, 68, 100
1, 414368, Note_off_c, 2, 65, 100
1, 414371, Note_on_c, 2, 67, 127
1, 414374, Note_on_c, 2, 63, 127
1, 414374, Note_on_c, 4, 58, 127
1, 414375, Note_on_c, 4, 55, 127
1, 414555, Note_off_c, 2, 67, 100
1, 414557, Note_off_c, 4, 55, 100
1, 414558, Note_off_c, 4, 58, 100
1, 414558, Note_off_c, 2, 63, 100
1, 414561, Note_on_c, 2, 65, 127
1, 414562, Note_on_c, 4, 60, 127
1, 414563, Note_on_c, 4, 56, 127
1, 414745, Note_off_c, 2, 65, 100
1, 414754, Note_on_c, 2, 65, 127
1, 414800, Note_on_c, 2, 67, 127
1, 414805, Note_off_c, 2, 65, 100
1, 414846, Note_on_c, 2, 68, 127
1, 414853, Note_off_c, 2, 67, 100
1, 414894, Note_on_c, 2, 65, 127
1, 414901, Note_off_c, 2, 68, 100
1, 414946, Note_on_c, 2, 72, 125
1, 414953, Note_off_c, 2, 65, 100
1, 415133, Note_off_c, 4, 56, 100
1, 415134, Note_off_c, 4, 60, 100
1, 415148, Note_on_c, 2, 65, 127
1, 415149, Note_on_c, 4, 60, 127
1, 415149, Note_on_c, 4, 44, 127
1, 415150, Note_on_c, 4, 53, 127
1, 415164, Note_off_c, 2, 72, 100
1, 415338, Note_off_c, 4, 44, 100
1, 415339, Note_off_c, 2, 65, 100
1, 415339, Note_off_c, 4, 53, 100
1, 415340, Note_off_c, 4, 60, 100
1, 415344, Note_on_c, 2, 63, 127
1, 415344, Note_on_c, 4, 58, 127
1, 415345, Note_on_c, 4, 46, 127
1, 415345, Note_on_c, 4, 55, 127
1, 415531, Note_off_c, 4, 55, 100
1, 415532, Note_off_c, 4, 58, 100
1, 415532, Note_off_c, 2, 63, 100
1, 415535, Note_on_c, 2, 65, 127
1, 415536, Note_on_c, 4, 56, 127
1, 415538, Note_on_c, 4, 62, 127
1, 415714, Note_off_c, 2, 65, 100
1, 415714, Note_off_c, 4, 56, 100
1, 415715, Note_off_c, 4, 62, 100
1, 415718, Note_off_c, 4, 46, 100
1, 415719, Note_on_c, 2, 65, 127
1, 415719, Note_on_c, 4, 56, 127
1, 415720, Note_on_c, 4, 62, 127
1, 415720, Note_on_c, 4, 51, 127
1, 415985, Note_off_c, 2, 65, 100
1, 415986, Note_on_c, 2, 66, 127
1, 416067, Note_off_c, 4, 56, 100
1, 416067, Note_off_c, 4, 51, 100
1, 416068, Note_off_c, 4, 62, 100
1, 416076, Note_on_c, 4, 51, 127
1, 416076, Note_on_c, 4, 55, 127
1, 416076, Note_on_c, 2, 67, 127
1, 416077, Note_on_c, 2, 63, 127
1, 416083, Note_off_c, 2, 66, 100
1, 416164, Note_on_c, 2, 63, 127
1, 416224, Note_off_c, 2, 63, 100
1, 416249, Note_off_c, 2, 67, 100
1, 416253, Note_on_c, 1, 82, 114
1, 416254, Note_on_c, 2, 75, 121
1, 416254, Note_on_c, 2, 67, 127
1, 416349, Note_on_c, 2, 70, 127
1, 416357, Note_off_c, 2, 67, 100
1, 416430, Note_off_c, 1, 82, 100
1, 416430, Note_off_c, 2, 75, 100
1, 416436, Note_on_c, 1, 82, 114
1, 416436, Note_on_c, 2, 77, 118
1, 416436, Note_on_c, 2, 68, 127
1, 416446, Note_off_c, 2, 70, 100
1, 416531, Note_on_c, 2, 67, 127
1, 416540, Note_off_c, 2, 68, 100
1, 416615, Note_off_c, 1, 82, 100
1, 416616, Note_off_c, 2, 77, 100
1, 416621, Note_on_c, 1, 82, 114
1, 416622, Note_off_c, 2, 63, 100
1, 416622, Note_on_c, 1, 79, 114
1, 416622, Note_on_c, 2, 65, 127
1, 416628, Note_off_c, 2, 67, 100
1, 416713, Note_on_c, 2, 63, 127
1, 416723, Note_off_c, 2, 65, 100
1, 416803, Note_off_c, 1, 82, 100
1, 416805, Note_off_c, 1, 79, 100
1, 416809, Note_on_c, 1, 82, 110
1, 416810, Note_on_c, 4, 62, 127
1, 416812, Note_on_c, 1, 80, 110
1, 416820, Note_off_c, 2, 63, 100
1, 416904, Note_on_c, 2, 65, 127
1, 416914, Note_off_c, 4, 62, 100
1, 417000, Note_off_c, 1, 82, 100
1, 417002, Note_off_c, 1, 80, 100
1, 417008, Note_on_c, 1, 82, 110
1, 417009, Note_on_c, 2, 68, 127
1, 417016, Note_off_c, 2, 65, 100
1, 417055, Note_on_c, 1, 84, 115
1, 417061, Note_off_c, 1, 82, 100
1, 417097, Note_on_c, 1, 82, 110
1, 417098, Note_on_c, 2, 67, 127
1, 417104, Note_off_c, 1, 84, 100
1, 417108, Note_off_c, 2, 68, 100
1, 417146, Note_on_c, 1, 81, 110
1, 417154, Note_off_c, 1, 82, 100
1, 417192, Note_off_c, 4, 55, 100
1, 417193, Note_on_c, 1, 82, 110
1, 417193, Note_on_c, 2, 65, 127
1, 417200, Note_off_c, 1, 81, 100
1, 417204, Note_off_c, 2, 67, 100
1, 417288, Note_on_c, 2, 63, 127
1, 417296, Note_off_c, 2, 65, 100
1, 417372, Note_off_c, 1, 82, 100
1, 417379, Note_on_c, 1, 82, 110
1, 417379, Note_on_c, 4, 62, 127
1, 417380, Note_on_c, 2, 74, 123
1, 417387, Note_off_c, 2, 63, 100
1, 417472, Note_on_c, 4, 60, 127
1, 417481, Note_off_c, 4, 62, 100
1, 417566, Note_on_c, 1, 84, 115
1, 417566, Note_on_c, 4, 58, 127
1, 417567, Note_on_c, 2, 75, 121
1, 417576, Note_off_c, 4, 60, 100
1, 417582, Note_off_c, 1, 82, 100
1, 417583, Note_off_c, 2, 74, 100
1, 417660, Note_on_c, 4, 60, 127
1, 417670, Note_off_c, 4, 58, 100
1, 417754, Note_on_c, 1, 86, 117
1, 417755, Note_on_c, 2, 77, 114
1, 417755, Note_on_c, 4, 56, 127
1, 417765, Note_off_c, 4, 60, 100
1, 417770, Note_off_c, 1, 84, 100
1, 417772, Note_off_c, 2, 75, 100
1, 417843, Note_on_c, 4, 58, 127
1, 417853, Note_off_c, 4, 56, 100
1, 417937, Note_on_c, 1, 87, 114
1, 417938, Note_on_c, 2, 75, 121
1, 417938, Note_on_c, 4, 55, 127
1, 417948, Note_off_c, 4, 58, 100
1, 417954, Note_off_c, 1, 86, 100
1, 417956, Note_off_c, 2, 77, 100
1, 418031, Note_on_c, 4, 58, 127
1, 418042, Note_off_c, 4, 55, 100
1, 418096, Note_off_c, 1, 87, 100
1, 418116, Note_on_c, 1, 87, 114
1, 418128, Note_on_c, 4, 60, 127
1, 418137, Note_off_c, 4, 58, 100
1, 418174, Note_off_c, 1, 87, 100
1, 418174, Note_on_c, 1, 86, 117
1, 418221, Note_on_c, 1, 87, 114
1, 418222, Note_on_c, 4, 62, 127
1, 418231, Note_off_c, 4, 60, 100
1, 418237, Note_off_c, 1, 86, 100
1, 418254, Note_off_c, 4, 51, 100
1, 418270, Note_on_c, 1, 82, 110
1, 418287, Note_off_c, 1, 87, 100
1, 418318, Note_on_c, 1, 79, 110
1, 418318, Note_on_c, 2, 63, 127
1, 418326, Note_off_c, 4, 62, 100
1, 418332, Note_off_c, 1, 82, 100
1, 418505, Note_off_c, 2, 63, 100
1, 418505, Note_off_c, 1, 79, 100
1, 418510, Note_on_c, 1, 82, 110
1, 418510, Note_on_c, 2, 67, 127
1, 418511, Note_off_c, 2, 75, 100
1, 418511, Note_on_c, 2, 63, 127
1, 418512, Note_on_c, 1, 79, 110
1, 418711, Note_on_c, 1, 80, 110
1, 418712, Note_on_c, 2, 68, 127
1, 418712, Note_on_c, 2, 65, 127
1, 418713, Note_on_c, 2, 77, 114
1, 418725, Note_off_c, 2, 67, 100
1, 418725, Note_off_c, 2, 63, 100
1, 418726, Note_off_c, 1, 82, 100
1, 418726, Note_off_c, 1, 79, 100
1, 418897, Note_on_c, 1, 79, 110
1, 418898, Note_on_c, 2, 70, 127
1, 418898, Note_on_c, 2, 67, 127
1, 418899, Note_on_c, 2, 75, 121
1, 418915, Note_off_c, 2, 65, 100
1, 418915, Note_off_c, 2, 68, 100
1, 418916, Note_off_c, 1, 80, 100
1, 418918, Note_off_c, 2, 77, 100
1, 419115, Note_on_c, 2, 76, 118
1, 419116, Note_on_c, 2, 72, 125
1, 419116, Note_on_c, 2, 68, 127
1, 419131, Note_off_c, 2, 67, 100
1, 419131, Note_off_c, 2, 70, 100
1, 419132, Note_off_c, 1, 79, 100
1, 419132, Note_off_c, 2, 75, 100
1, 419164, Note_on_c, 2, 77, 114
1, 419169, Note_off_c, 2, 76, 100
1, 419216, Note_on_c, 1, 79, 110
1, 419221, Note_off_c, 2, 77, 100
1, 419258, Note_on_c, 2, 77, 114
1, 419263, Note_off_c, 1, 79, 100
1, 419310, Note_on_c, 1, 80, 110
1, 419315, Note_off_c, 2, 77, 100
1, 419360, Note_on_c, 1, 79, 110
1, 419365, Note_off_c, 1, 80, 100
1, 419408, Note_on_c, 1, 82, 110
1, 419414, Note_off_c, 1, 79, 100
1, 419453, Note_on_c, 1, 80, 114
1, 419458, Note_off_c, 1, 82, 100
1, 419499, Note_on_c, 1, 84, 119
1, 419504, Note_off_c, 1, 80, 100
1, 419797, Note_off_c, 2, 68, 100
1, 419815, Note_off_c, 1, 84, 100
1, 419815, Note_off_c, 2, 72, 100
1, 419816, Note_on_c, 1, 82, 114
1, 419816, Note_on_c, 2, 68, 127
1, 419817, Note_on_c, 4, 62, 127
1, 419817, Note_on_c, 4, 58, 127
1, 419990, Note_on_c, 2, 65, 127
1, 420012, Note_off_c, 2, 68, 100
1, 420012, Note_off_c, 4, 58, 100
1, 420012, Note_off_c, 4, 62, 100
1, 420112, Note_off_c, 1, 82, 100
1, 420130, Note_on_c, 2, 74, 123
1, 420193, Note_on_c, 2, 75, 121
1, 420193, Note_on_c, 2, 63, 127
1, 420199, Note_off_c, 2, 74, 100
1, 420210, Note_off_c, 2, 65, 100
1, 420293, Note_on_c, 2, 67, 127
1, 420304, Note_off_c, 2, 63, 100
1, 420393, Note_on_c, 2, 70, 127
1, 420402, Note_off_c, 2, 67, 100
1, 420487, Note_on_c, 2, 67, 127
1, 420498, Note_off_c, 2, 70, 100
1, 420579, Note_on_c, 2, 63, 127
1, 420588, Note_off_c, 2, 67, 100
1, 420687, Note_on_c, 2, 67, 127
1, 420697, Note_off_c, 2, 63, 100
1, 420780, Note_off_c, 2, 75, 100
1, 420780, Note_on_c, 1, 85, 119
1, 420780, Note_on_c, 2, 70, 127
1, 420788, Note_off_c, 2, 67, 100
1, 420869, Note_on_c, 2, 67, 127
1, 420880, Note_off_c, 2, 70, 100
1, 420974, Note_on_c, 1, 84, 119
1, 420975, Note_on_c, 2, 68, 127
1, 420982, Note_off_c, 2, 67, 100
1, 420988, Note_off_c, 1, 85, 100
1, 421067, Note_on_c, 2, 65, 127
1, 421078, Note_off_c, 2, 68, 100
1, 421164, Note_on_c, 1, 86, 121
1, 421165, Note_on_c, 2, 72, 125
1, 421171, Note_off_c, 2, 65, 100
1, 421177, Note_off_c, 1, 84, 100
1, 421254, Note_on_c, 2, 68, 127
1, 421264, Note_off_c, 2, 72, 100
1, 421343, Note_off_c, 2, 68, 100
1, 421349, Note_on_c, 1, 89, 118
1, 421349, Note_on_c, 2, 68, 127
1, 421367, Note_off_c, 1, 86, 100
1, 421445, Note_on_c, 2, 70, 127
1, 421454, Note_off_c, 2, 68, 100
1, 421538, Note_on_c, 1, 87, 118
1, 421540, Note_on_c, 2, 67, 127
1, 421549, Note_off_c, 2, 70, 100
1, 421556, Note_off_c, 1, 89, 100
1, 421634, Note_on_c, 2, 65, 127
1, 421645, Note_off_c, 2, 67, 100
1, 421732, Note_on_c, 2, 63, 127
1, 421741, Note_off_c, 2, 65, 100
1, 421830, Note_on_c, 4, 61, 127
1, 421837, Note_off_c, 2, 63, 100
1, 421915, Note_off_c, 1, 87, 100
1, 421915, Note_on_c, 2, 73, 127
1, 421916, Note_on_c, 4, 58, 127
1, 421923, Note_off_c, 4, 61, 100
1, 422010, Note_on_c, 4, 55, 127
1, 422021, Note_off_c, 4, 58, 100
1, 422112, Note_on_c, 2, 72, 127
1, 422113, Note_on_c, 4, 56, 127
1, 422123, Note_off_c, 4, 55, 100
1, 422129, Note_off_c, 2, 73, 100
1, 422208, Note_on_c, 4, 53, 127
1, 422219, Note_off_c, 4, 56, 100
1, 422319, Note_on_c, 2, 74, 127
1, 422323, Note_on_c, 4, 58, 127
1, 422327, Note_on_c, 2, 68, 127
1, 422330, Note_off_c, 4, 53, 100
1, 422336, Note_off_c, 2, 72, 100
1, 422430, Note_on_c, 4, 46, 127
1, 422446, Note_off_c, 4, 58, 100
1, 422536, Note_off_c, 4, 46, 100
1, 422536, Note_off_c, 2, 68, 100
1, 422537, Note_off_c, 2, 74, 100
1, 422537, Note_on_c, 2, 77, 122
1, 422538, Note_on_c, 4, 51, 127
1, 422538, Note_on_c, 2, 68, 127
1, 422952, Note_off_c, 2, 77, 64
1, 422952, Note_on_c, 2, 75, 125
1, 422952, Note_on_c, 2, 67, 127
1, 422956, Note_off_c, 2, 68, 64
1, 423162, Note_on_c, 2, 65, 127
1, 423162, Note_on_c, 4, 62, 127
1, 423178, Note_off_c, 2, 67, 64
1, 423362, Note_on_c, 2, 67, 127
1, 423363, Note_on_c, 2, 63, 127
1, 423377, Note_off_c, 4, 62, 100
1, 423377, Note_off_c, 2, 65, 100
1, 423556, Note_on_c, 2, 68, 127
1, 423558, Note_off_c, 4, 51, 64
1, 423559, Note_on_c, 4, 46, 127
1, 423559, Note_on_c, 2, 65, 127
1, 423571, Note_off_c, 2, 63, 100
1, 423571, Note_off_c, 2, 67, 100
1, 423792, Note_off_c, 2, 68, 100
1, 423794, Note_off_c, 2, 65, 100
1, 423798, Note_off_c, 2, 75, 64
1, 423799, Note_on_c, 2, 68, 127
1, 423800, Note_on_c, 2, 65, 127
1, 423800, Note_on_c, 4, 39, 127
1, 423800, Note_on_c, 4, 62, 127
1, 423801, Note_on_c, 4, 51, 127
1, 423813, Note_off_c, 4, 46, 64
1, 424488, Note_off_c, 4, 39, 64
1, 424490, Note_off_c, 4, 51, 64
1, 424495, Note_on_c, 2, 67, 127
1, 424497, Note_on_c, 4, 51, 127
1, 424498, Note_on_c, 2, 63, 127
1, 424499, Note_on_c, 4, 39, 127
1, 424542, Note_off_c, 2, 68, 64
1, 424544, Note_off_c, 4, 62, 64
1, 427792, Note_off_c, 2, 65, 64
1, 427817, Note_off_c, 2, 67, 64
1, 427817, Note_off_c, 4, 51, 64
1, 427818, Note_off_c, 2, 63, 64
1, 427818, Note_off_c, 4, 39, 64
1, 428105, Note_on_c, 1, 77, 110
1, 428251, Note_on_c, 4, 58, 127
1, 428325, Note_off_c, 1, 77, 100
1, 428325, Note_on_c, 1, 74, 112
1, 428399, Note_off_c, 4, 58, 100
1, 428399, Note_on_c, 3, 70, 121
1, 428400, Note_on_c, 4, 62, 127
1, 428403, Note_off_c, 1, 74, 100
1, 428540, Note_off_c, 3, 70, 100
1, 428545, Note_off_c, 4, 62, 100
1, 428546, Note_on_c, 3, 67, 127
1, 428546, Note_on_c, 3, 70, 121
1, 428693, Note_off_c, 3, 70, 100
1, 428693, Note_off_c, 3, 67, 100
1, 428693, Note_on_c, 1, 75, 110
1, 428694, Note_on_c, 4, 60, 127
1, 428839, Note_off_c, 4, 60, 100
1, 428839, Note_off_c, 1, 75, 100
1, 428840, Note_on_c, 4, 63, 127
1, 428840, Note_on_c, 1, 79, 106
1, 428985, Note_off_c, 1, 79, 100
1, 428985, Note_off_c, 4, 63, 100
1, 428986, Note_on_c, 4, 65, 127
1, 428986, Note_on_c, 3, 69, 126
1, 429129, Note_off_c, 3, 69, 100
1, 429129, Note_on_c, 4, 63, 127
1, 429130, Note_off_c, 4, 65, 100
1, 429202, Note_on_c, 3, 69, 126
1, 429271, Note_off_c, 4, 63, 100
1, 429271, Note_on_c, 1, 72, 117
1, 429272, Note_on_c, 4, 62, 127
1, 429276, Note_off_c, 3, 69, 100
1, 429340, Note_on_c, 3, 70, 121
1, 429346, Note_off_c, 1, 72, 100
1, 429409, Note_off_c, 4, 62, 100
1, 429409, Note_on_c, 1, 74, 115
1, 429410, Note_on_c, 4, 57, 127
1, 429414, Note_off_c, 3, 70, 100
1, 429479, Note_on_c, 1, 72, 117
1, 429483, Note_off_c, 1, 74, 100
1, 429548, Note_off_c, 4, 57, 100
1, 429549, Note_on_c, 4, 58, 127
1, 429549, Note_on_c, 1, 75, 113
1, 429555, Note_off_c, 1, 72, 100
1, 429618, Note_on_c, 1, 74, 115
1, 429624, Note_off_c, 1, 75, 100
1, 429689, Note_off_c, 4, 58, 100
1, 429690, Note_on_c, 1, 77, 113
1, 429690, Note_on_c, 4, 60, 127
1, 429691, Note_on_c, 4, 51, 127
1, 429695, Note_off_c, 1, 74, 100
1, 429762, Note_on_c, 1, 75, 113
1, 429768, Note_off_c, 1, 77, 100
1, 429829, Note_off_c, 4, 51, 100
1, 429830, Note_off_c, 4, 60, 100
1, 429830, Note_on_c, 1, 74, 115
1, 429831, Note_on_c, 4, 53, 127
1, 429831, Note_on_c, 4, 58, 127
1, 429836, Note_off_c, 1, 75, 100
1, 430038, Note_off_c, 1, 74, 100
1, 430044, Note_on_c, 1, 75, 113
1, 430080, Note_on_c, 1, 74, 115
1, 430084, Note_off_c, 1, 75, 100
1, 430111, Note_off_c, 4, 53, 100
1, 430116, Note_off_c, 4, 58, 100
1, 430117, Note_on_c, 4, 57, 127
1, 430117, Note_on_c, 1, 72, 117
1, 430118, Note_on_c, 4, 53, 127
1, 430120, Note_off_c, 1, 74, 100
1, 430188, Note_on_c, 1, 74, 115
1, 430193, Note_off_c, 1, 72, 100
1, 430262, Note_on_c, 1, 75, 113
1, 430268, Note_off_c, 1, 74, 100
1, 430333, Note_on_c, 1, 76, 110
1, 430339, Note_off_c, 1, 75, 100
1, 430404, Note_on_c, 1, 77, 113
1, 430410, Note_off_c, 1, 76, 100
1, 430547, Note_off_c, 4, 57, 100
1, 430547, Note_off_c, 4, 53, 100
1, 430548, Note_on_c, 4, 58, 127
1, 430571, Note_off_c, 1, 77, 100
1, 430584, Note_on_c, 1, 75, 113
1, 430622, Note_on_c, 1, 74, 115
1, 430626, Note_off_c, 1, 75, 100
1, 430661, Note_on_c, 1, 72, 117
1, 430665, Note_off_c, 1, 74, 100
1, 430698, Note_off_c, 4, 58, 100
1, 430698, Note_on_c, 4, 62, 127
1, 430698, Note_on_c, 3, 70, 121
1, 430702, Note_off_c, 1, 72, 100
1, 430840, Note_off_c, 3, 70, 100
1, 430847, Note_off_c, 4, 62, 100
1, 430847, Note_on_c, 3, 70, 121
1, 430848, Note_on_c, 3, 67, 127
1, 430990, Note_off_c, 3, 67, 100
1, 430990, Note_off_c, 3, 70, 100
1, 430990, Note_on_c, 1, 75, 113
1, 430991, Note_on_c, 4, 60, 127
1, 431134, Note_off_c, 1, 75, 100
1, 431134, Note_off_c, 4, 60, 100
1, 431135, Note_on_c, 4, 63, 127
1, 431135, Note_on_c, 1, 79, 109
1, 431281, Note_off_c, 4, 63, 100
1, 431282, Note_off_c, 1, 79, 100
1, 431282, Note_on_c, 3, 69, 126
1, 431283, Note_on_c, 4, 65, 127
1, 431424, Note_off_c, 4, 65, 100
1, 431424, Note_off_c, 3, 69, 100
1, 431424, Note_on_c, 4, 63, 127
1, 431496, Note_on_c, 3, 69, 126
1, 431567, Note_off_c, 4, 63, 100
1, 431567, Note_on_c, 3, 70, 121
1, 431568, Note_on_c, 4, 62, 127
1, 431571, Note_off_c, 3, 69, 100
1, 431639, Note_on_c, 1, 74, 117
1, 431644, Note_off_c, 3, 70, 100
1, 431710, Note_off_c, 4, 62, 100
1, 431710, Note_on_c, 3, 67, 127
1, 431711, Note_on_c, 4, 51, 127
1, 431711, Note_on_c, 4, 63, 127
1, 431715, Note_off_c, 1, 74, 100
1, 431783, Note_on_c, 1, 72, 119
1, 431790, Note_off_c, 3, 67, 100
1, 431856, Note_off_c, 4, 63, 100
1, 431856, Note_off_c, 4, 51, 100
1, 431856, Note_on_c, 3, 70, 121
1, 431857, Note_on_c, 4, 62, 127
1, 431857, Note_on_c, 4, 53, 127
1, 431862, Note_off_c, 1, 72, 100
1, 431997, Note_off_c, 4, 53, 100
1, 431997, Note_off_c, 4, 62, 100
1, 431998, Note_off_c, 3, 70, 100
1, 431998, Note_on_c, 3, 69, 126
1, 431999, Note_on_c, 4, 60, 127
1, 432139, Note_off_c, 3, 69, 100
1, 432139, Note_off_c, 4, 60, 100
1, 432140, Note_on_c, 4, 58, 127
1, 432140, Note_on_c, 3, 70, 121
1, 432212, Note_on_c, 4, 65, 127
1, 432219, Note_off_c, 3, 70, 100
1, 432285, Note_on_c, 3, 67, 127
1, 432290, Note_off_c, 4, 65, 100
1, 432356, Note_on_c, 3, 69, 126
1, 432361, Note_off_c, 3, 67, 100
1, 432425, Note_on_c, 3, 70, 121
1, 432431, Note_off_c, 3, 69, 100
1, 432498, Note_on_c, 1, 72, 119
1, 432504, Note_off_c, 3, 70, 100
1, 432567, Note_on_c, 1, 74, 117
1, 432573, Note_off_c, 1, 72, 100
1, 432638, Note_on_c, 1, 75, 115
1, 432644, Note_off_c, 1, 74, 100
1, 432701, Note_off_c, 4, 58, 100
1, 432708, Note_on_c, 4, 58, 127
1, 432708, Note_on_c, 1, 77, 115
1, 432712, Note_off_c, 1, 75, 100
1, 432778, Note_on_c, 4, 65, 127
1, 432848, Note_on_c, 4, 62, 127
1, 432854, Note_off_c, 4, 65, 100
1, 432920, Note_off_c, 1, 77, 100
1, 432920, Note_on_c, 4, 65, 127
1, 432920, Note_on_c, 1, 74, 117
1, 432926, Note_off_c, 4, 62, 100
1, 432991, Note_off_c, 4, 58, 100
1, 432992, Note_on_c, 4, 55, 127
1, 432992, Note_on_c, 3, 70, 121
1, 432998, Note_off_c, 1, 74, 100
1, 432998, Note_off_c, 4, 65, 100
1, 433062, Note_on_c, 4, 62, 127
1, 433130, Note_off_c, 3, 70, 100
1, 433135, Note_on_c, 4, 58, 127
1, 433135, Note_on_c, 3, 70, 121
1, 433141, Note_off_c, 4, 62, 100
1, 433207, Note_on_c, 4, 62, 127
1, 433212, Note_off_c, 4, 58, 100
1, 433278, Note_off_c, 4, 55, 100
1, 433278, Note_off_c, 3, 70, 100
1, 433279, Note_on_c, 4, 51, 127
1, 433279, Note_on_c, 1, 75, 115
1, 433284, Note_off_c, 4, 62, 100
1, 433322, Note_off_c, 1, 75, 100
1, 433329, Note_on_c, 1, 77, 115
1, 433348, Note_off_c, 1, 77, 100
1, 433358, Note_on_c, 1, 75, 115
1, 433359, Note_on_c, 4, 60, 127
1, 433368, Note_off_c, 1, 75, 100
1, 433386, Note_on_c, 1, 74, 117
1, 433396, Note_off_c, 1, 74, 100
1, 433408, Note_on_c, 1, 75, 115
1, 433443, Note_on_c, 1, 79, 111
1, 433443, Note_on_c, 4, 55, 127
1, 433446, Note_off_c, 4, 60, 100
1, 433451, Note_off_c, 1, 75, 100
1, 433511, Note_on_c, 4, 60, 127
1, 433517, Note_off_c, 4, 55, 100
1, 433583, Note_off_c, 1, 79, 100
1, 433584, Note_off_c, 4, 51, 100
1, 433584, Note_on_c, 4, 53, 127
1, 433584, Note_on_c, 3, 69, 126
1, 433589, Note_off_c, 4, 60, 100
1, 433654, Note_on_c, 4, 63, 127
1, 433725, Note_on_c, 4, 60, 127
1, 433731, Note_off_c, 4, 63, 100
1, 433790, Note_off_c, 3, 69, 100
1, 433796, Note_on_c, 3, 69, 126
1, 433797, Note_on_c, 4, 63, 127
1, 433801, Note_off_c, 4, 60, 100
1, 433866, Note_off_c, 4, 53, 100
1, 433867, Note_on_c, 4, 62, 127
1, 433867, Note_on_c, 1, 72, 119
1, 433873, Note_off_c, 4, 63, 100
1, 433873, Note_off_c, 3, 69, 100
1, 433937, Note_on_c, 3, 70, 121
1, 433943, Note_off_c, 1, 72, 100
1, 434004, Note_off_c, 4, 62, 100
1, 434005, Note_on_c, 4, 65, 127
1, 434005, Note_on_c, 1, 74, 117
1, 434006, Note_on_c, 4, 57, 127
1, 434010, Note_off_c, 3, 70, 100
1, 434076, Note_on_c, 1, 72, 119
1, 434081, Note_off_c, 1, 74, 100
1, 434148, Note_off_c, 4, 57, 100
1, 434148, Note_on_c, 4, 58, 127
1, 434148, Note_on_c, 1, 75, 115
1, 434154, Note_off_c, 1, 72, 100
1, 434220, Note_on_c, 1, 74, 117
1, 434225, Note_off_c, 1, 75, 100
1, 434287, Note_off_c, 4, 58, 100
1, 434287, Note_on_c, 1, 77, 115
1, 434288, Note_on_c, 4, 51, 127
1, 434288, Note_on_c, 4, 60, 127
1, 434294, Note_off_c, 1, 74, 100
1, 434358, Note_on_c, 1, 75, 115
1, 434364, Note_off_c, 1, 77, 100
1, 434429, Note_off_c, 4, 60, 100
1, 434429, Note_off_c, 4, 51, 100
1, 434430, Note_off_c, 4, 65, 100
1, 434430, Note_on_c, 1, 74, 117
1, 434431, Note_on_c, 4, 53, 127
1, 434431, Note_on_c, 4, 58, 127
1, 434436, Note_off_c, 1, 75, 100
1, 434641, Note_off_c, 1, 74, 100
1, 434647, Note_on_c, 1, 75, 115
1, 434683, Note_on_c, 1, 74, 117
1, 434687, Note_off_c, 1, 75, 100
1, 434712, Note_off_c, 4, 53, 100
1, 434720, Note_off_c, 4, 58, 100
1, 434720, Note_on_c, 1, 72, 119
1, 434721, Note_on_c, 4, 53, 127
1, 434721, Note_on_c, 4, 57, 127
1, 434722, Note_off_c, 1, 74, 100
1, 434791, Note_on_c, 1, 74, 117
1, 434796, Note_off_c, 1, 72, 100
1, 434864, Note_on_c, 1, 75, 115
1, 434869, Note_off_c, 1, 74, 100
1, 434932, Note_off_c, 1, 75, 100
1, 434935, Note_on_c, 1, 76, 112
1, 435004, Note_off_c, 4, 57, 100
1, 435004, Note_off_c, 4, 53, 100
1, 435005, Note_on_c, 4, 58, 127
1, 435005, Note_on_c, 1, 77, 115
1, 435009, Note_off_c, 1, 76, 100
1, 435077, Note_on_c, 4, 65, 127
1, 435150, Note_on_c, 4, 62, 127
1, 435156, Note_off_c, 4, 65, 100
1, 435175, Note_off_c, 1, 77, 100
1, 435186, Note_on_c, 1, 75, 115
1, 435223, Note_on_c, 1, 74, 117
1, 435223, Note_on_c, 4, 65, 127
1, 435228, Note_off_c, 1, 75, 100
1, 435229, Note_off_c, 4, 62, 100
1, 435261, Note_on_c, 1, 72, 119
1, 435263, Note_off_c, 1, 74, 100
1, 435297, Note_off_c, 4, 58, 100
1, 435297, Note_on_c, 3, 70, 121
1, 435298, Note_on_c, 4, 55, 127
1, 435300, Note_off_c, 1, 72, 100
1, 435301, Note_off_c, 4, 65, 100
1, 435363, Note_off_c, 3, 70, 100
1, 435371, Note_on_c, 3, 70, 121
1, 435371, Note_on_c, 4, 62, 127
1, 435437, Note_off_c, 3, 70, 100
1, 435443, Note_on_c, 3, 70, 121
1, 435444, Note_on_c, 4, 58, 127
1, 435450, Note_off_c, 4, 62, 100
1, 435512, Note_off_c, 3, 70, 100
1, 435518, Note_on_c, 3, 70, 121
1, 435518, Note_on_c, 4, 62, 127
1, 435525, Note_off_c, 4, 58, 100
1, 435590, Note_off_c, 4, 55, 100
1, 435590, Note_on_c, 1, 75, 110
1, 435591, Note_on_c, 4, 51, 127
1, 435596, Note_off_c, 4, 62, 100
1, 435597, Note_off_c, 3, 70, 100
1, 435646, Note_off_c, 1, 75, 100
1, 435665, Note_on_c, 1, 77, 110
1, 435665, Note_on_c, 4, 60, 127
1, 435673, Note_off_c, 1, 77, 100
1, 435687, Note_on_c, 1, 75, 110
1, 435695, Note_off_c, 1, 75, 100
1, 435706, Note_on_c, 1, 74, 112
1, 435713, Note_off_c, 1, 74, 100
1, 435718, Note_on_c, 1, 75, 110
1, 435739, Note_on_c, 1, 79, 106
1, 435739, Note_on_c, 4, 55, 127
1, 435745, Note_off_c, 4, 60, 100
1, 435755, Note_off_c, 1, 75, 100
1, 435811, Note_on_c, 4, 60, 127
1, 435816, Note_off_c, 4, 55, 100
1, 435882, Note_off_c, 4, 51, 100
1, 435882, Note_off_c, 1, 79, 100
1, 435883, Note_on_c, 4, 53, 127
1, 435883, Note_on_c, 3, 69, 126
1, 435888, Note_off_c, 4, 60, 100
1, 435953, Note_on_c, 4, 63, 127
1, 436026, Note_on_c, 4, 60, 127
1, 436032, Note_off_c, 4, 63, 100
1, 436097, Note_on_c, 1, 81, 106
1, 436097, Note_on_c, 4, 63, 127
1, 436104, Note_off_c, 4, 60, 100
1, 436169, Note_off_c, 3, 69, 100
1, 436169, Note_off_c, 4, 53, 100
1, 436170, Note_on_c, 4, 58, 127
1, 436170, Note_on_c, 1, 82, 106
1, 436171, Note_on_c, 4, 50, 127
1, 436175, Note_off_c, 4, 63, 100
1, 436175, Note_off_c, 1, 81, 100
1, 436206, Note_on_c, 1, 77, 110
1, 436248, Note_off_c, 1, 82, 100
1, 436279, Note_on_c, 1, 74, 112
1, 436285, Note_off_c, 1, 77, 100
1, 436310, Note_off_c, 4, 50, 100
1, 436314, Note_on_c, 4, 51, 127
1, 436314, Note_on_c, 1, 79, 106
1, 436349, Note_on_c, 1, 75, 110
1, 436353, Note_off_c, 1, 79, 100
1, 436355, Note_off_c, 1, 74, 100
1, 436420, Note_on_c, 1, 72, 119
1, 436426, Note_off_c, 1, 75, 100
1, 436451, Note_off_c, 4, 51, 100
1, 436455, Note_off_c, 4, 58, 100
1, 436455, Note_on_c, 1, 77, 110
1, 436456, Note_on_c, 4, 53, 127
1, 436456, Note_on_c, 4, 62, 127
1, 436491, Note_on_c, 1, 74, 112
1, 436495, Note_off_c, 1, 77, 100
1, 436497, Note_off_c, 1, 72, 100
1, 436562, Note_on_c, 3, 70, 121
1, 436570, Note_off_c, 1, 74, 100
1, 436595, Note_off_c, 4, 62, 100
1, 436599, Note_on_c, 1, 75, 115
1, 436599, Note_on_c, 4, 63, 127
1, 436632, Note_on_c, 1, 72, 119
1, 436636, Note_off_c, 1, 75, 100
1, 436638, Note_off_c, 3, 70, 100
1, 436705, Note_on_c, 3, 69, 126
1, 436711, Note_off_c, 1, 72, 100
1, 436738, Note_off_c, 4, 53, 100
1, 436739, Note_off_c, 4, 63, 100
1, 436743, Note_on_c, 4, 53, 127
1, 436743, Note_on_c, 4, 62, 127
1, 436744, Note_on_c, 4, 58, 127
1, 436750, Note_off_c, 3, 69, 100
1, 436890, Note_on_c, 4, 46, 127
1, 436960, Note_off_c, 4, 62, 100
1, 436960, Note_off_c, 4, 53, 64
1, 436961, Note_off_c, 4, 58, 100
1, 436961, Note_on_c, 4, 65, 127
1, 437033, Note_on_c, 3, 70, 121
1, 437039, Note_off_c, 4, 65, 100
1, 437106, Note_on_c, 3, 69, 126
1, 437113, Note_off_c, 3, 70, 100
1, 437177, Note_on_c, 3, 70, 121
1, 437183, Note_off_c, 3, 69, 100
1, 437250, Note_on_c, 1, 72, 119
1, 437256, Note_off_c, 3, 70, 100
1, 437321, Note_on_c, 1, 74, 117
1, 437327, Note_off_c, 1, 72, 100
1, 437461, Note_off_c, 4, 46, 100
1, 437463, Note_off_c, 1, 74, 100
1, 437467, Note_on_c, 3, 70, 121
1, 437467, Note_on_c, 1, 74, 117
1, 437468, Note_on_c, 4, 58, 127
1, 437610, Note_off_c, 3, 70, 100
1, 437610, Note_off_c, 4, 58, 100
1, 437611, Note_off_c, 1, 74, 100
1, 437613, Note_on_c, 1, 74, 117
1, 437613, Note_on_c, 3, 70, 121
1, 437614, Note_on_c, 4, 55, 127
1, 437754, Note_off_c, 4, 55, 100
1, 437754, Note_off_c, 3, 70, 100
1, 437755, Note_off_c, 1, 74, 100
1, 437759, Note_on_c, 1, 72, 119
1, 437759, Note_on_c, 1, 75, 115
1, 437760, Note_on_c, 4, 51, 127
1, 437900, Note_off_c, 4, 51, 100
1, 437900, Note_off_c, 1, 72, 100
1, 437901, Note_off_c, 1, 75, 100
1, 437903, Note_on_c, 1, 72, 119
1, 437904, Note_on_c, 4, 53, 127
1, 437904, Note_on_c, 3, 69, 126
1, 438051, Note_on_c, 4, 41, 127
1, 438116, Note_off_c, 4, 53, 100
1, 438117, Note_off_c, 1, 72, 100
1, 438117, Note_off_c, 3, 69, 100
1, 438123, Note_on_c, 4, 65, 127
1, 438196, Note_on_c, 1, 72, 119
1, 438202, Note_off_c, 4, 65, 100
1, 438267, Note_on_c, 3, 70, 121
1, 438273, Note_off_c, 1, 72, 100
1, 438338, Note_on_c, 1, 72, 119
1, 438344, Note_off_c, 3, 70, 100
1, 438406, Note_on_c, 1, 74, 117
1, 438412, Note_off_c, 1, 72, 100
1, 438475, Note_on_c, 1, 75, 115
1, 438481, Note_off_c, 1, 74, 100
1, 438617, Note_off_c, 4, 41, 100
1, 438618, Note_off_c, 1, 75, 100
1, 438623, Note_on_c, 1, 75, 115
1, 438624, Note_on_c, 4, 60, 127
1, 438624, Note_on_c, 3, 67, 127
1, 438762, Note_off_c, 4, 60, 100
1, 438763, Note_off_c, 1, 75, 100
1, 438763, Note_off_c, 3, 67, 100
1, 438767, Note_on_c, 1, 75, 115
1, 438768, Note_on_c, 1, 72, 119
1, 438768, Note_on_c, 4, 57, 127
1, 438905, Note_off_c, 4, 57, 100
1, 438906, Note_off_c, 1, 72, 100
1, 438906, Note_off_c, 1, 75, 100
1, 438910, Note_on_c, 1, 77, 115
1, 438911, Note_on_c, 4, 53, 127
1, 438911, Note_on_c, 3, 69, 126
1, 439049, Note_off_c, 4, 53, 100
1, 439050, Note_off_c, 1, 77, 100
1, 439050, Note_off_c, 3, 69, 100
1, 439052, Note_on_c, 1, 74, 117
1, 439053, Note_on_c, 4, 58, 127
1, 439053, Note_on_c, 3, 70, 121
1, 439190, Note_on_c, 4, 46, 127
1, 439252, Note_off_c, 3, 70, 100
1, 439252, Note_off_c, 4, 58, 100
1, 439253, Note_off_c, 1, 74, 100
1, 439259, Note_on_c, 3, 70, 121
1, 439324, Note_on_c, 1, 74, 117
1, 439330, Note_off_c, 3, 70, 100
1, 439395, Note_on_c, 1, 72, 119
1, 439403, Note_off_c, 1, 74, 100
1, 439466, Note_on_c, 1, 74, 117
1, 439472, Note_off_c, 1, 72, 100
1, 439535, Note_on_c, 1, 76, 112
1, 439543, Note_off_c, 1, 74, 100
1, 439606, Note_on_c, 1, 77, 115
1, 439609, Note_off_c, 1, 76, 100
1, 439675, Note_on_c, 4, 57, 127
1, 439681, Note_off_c, 4, 46, 100
1, 439746, Note_on_c, 4, 60, 127
1, 439754, Note_off_c, 4, 57, 100
1, 439771, Note_off_c, 1, 77, 100
1, 439783, Note_on_c, 1, 77, 111
1, 439819, Note_on_c, 4, 57, 127
1, 439825, Note_off_c, 4, 60, 100
1, 439856, Note_off_c, 1, 77, 100
1, 439856, Note_on_c, 1, 79, 107
1, 439893, Note_on_c, 1, 81, 107
1, 439894, Note_on_c, 4, 65, 127
1, 439896, Note_off_c, 1, 79, 100
1, 439900, Note_off_c, 4, 57, 100
1, 439932, Note_on_c, 1, 79, 107
1, 439933, Note_off_c, 1, 81, 100
1, 440001, Note_off_c, 1, 79, 100
1, 440001, Note_on_c, 1, 77, 111
1, 440034, Note_on_c, 1, 76, 108
1, 440038, Note_off_c, 1, 77, 100
1, 440069, Note_on_c, 1, 74, 113
1, 440073, Note_off_c, 1, 76, 100
1, 440140, Note_off_c, 1, 74, 100
1, 440140, Note_on_c, 1, 72, 115
1, 440176, Note_on_c, 3, 70, 121
1, 440179, Note_off_c, 1, 72, 100
1, 440220, Note_off_c, 4, 65, 100
1, 440248, Note_on_c, 4, 57, 127
1, 440316, Note_on_c, 4, 60, 127
1, 440322, Note_off_c, 4, 57, 100
1, 440352, Note_off_c, 3, 70, 100
1, 440352, Note_on_c, 1, 76, 108
1, 440389, Note_on_c, 4, 57, 127
1, 440397, Note_off_c, 4, 60, 100
1, 440427, Note_on_c, 1, 77, 111
1, 440432, Note_off_c, 1, 76, 100
1, 440465, Note_on_c, 4, 64, 127
1, 440465, Note_on_c, 1, 79, 107
1, 440467, Note_off_c, 1, 77, 100
1, 440470, Note_off_c, 4, 57, 100
1, 440500, Note_on_c, 1, 77, 111
1, 440504, Note_off_c, 1, 79, 100
1, 440571, Note_on_c, 1, 75, 111
1, 440577, Note_off_c, 1, 77, 100
1, 440608, Note_on_c, 1, 74, 113
1, 440609, Note_off_c, 1, 75, 100
1, 440642, Note_on_c, 1, 72, 115
1, 440644, Note_off_c, 1, 74, 100
1, 440713, Note_on_c, 3, 70, 121
1, 440719, Note_off_c, 1, 72, 100
1, 440748, Note_off_c, 4, 64, 100
1, 440748, Note_on_c, 3, 69, 126
1, 440749, Note_on_c, 4, 65, 127
1, 440752, Note_off_c, 3, 70, 100
1, 440789, Note_on_c, 1, 72, 122
1, 440793, Note_off_c, 3, 69, 100
1, 440830, Note_on_c, 3, 70, 121
1, 440833, Note_off_c, 1, 72, 100
1, 440866, Note_on_c, 3, 69, 126
1, 440869, Note_off_c, 3, 70, 100
1, 440906, Note_on_c, 3, 70, 121
1, 440910, Note_off_c, 3, 69, 100
1, 440947, Note_on_c, 1, 72, 122
1, 440951, Note_off_c, 3, 70, 100
1, 440985, Note_on_c, 1, 74, 120
1, 440989, Note_off_c, 1, 72, 100
1, 441024, Note_on_c, 1, 76, 115
1, 441027, Note_off_c, 1, 74, 100
1, 441060, Note_on_c, 1, 77, 115
1, 441064, Note_off_c, 1, 76, 100
1, 441098, Note_on_c, 1, 79, 111
1, 441100, Note_off_c, 1, 77, 100
1, 441135, Note_on_c, 1, 81, 111
1, 441139, Note_off_c, 1, 79, 100
1, 441171, Note_on_c, 1, 82, 111
1, 441175, Note_off_c, 1, 81, 100
1, 441208, Note_off_c, 4, 65, 100
1, 441208, Note_on_c, 1, 84, 116
1, 441209, Note_on_c, 4, 53, 127
1, 441213, Note_off_c, 1, 82, 100
1, 441286, Note_on_c, 4, 65, 127
1, 441286, Note_on_c, 3, 69, 126
1, 441294, Note_off_c, 1, 84, 100
1, 441369, Note_off_c, 4, 65, 100
1, 441370, Note_off_c, 3, 69, 100
1, 441372, Note_off_c, 4, 53, 100
1, 441372, Note_on_c, 3, 69, 126
1, 441373, Note_on_c, 4, 65, 127
1, 441373, Note_on_c, 4, 48, 127
1, 441449, Note_on_c, 4, 60, 127
1, 441476, Note_off_c, 4, 48, 100
1, 441522, Note_off_c, 4, 65, 100
1, 441522, Note_off_c, 3, 69, 100
1, 441528, Note_on_c, 3, 67, 127
1, 441529, Note_on_c, 4, 59, 127
1, 441529, Note_on_c, 4, 64, 127
1, 441555, Note_off_c, 4, 60, 100
1, 441603, Note_on_c, 4, 60, 127
1, 441626, Note_off_c, 4, 59, 100
1, 441669, Note_off_c, 3, 67, 100
1, 441669, Note_off_c, 4, 64, 100
1, 441675, Note_on_c, 0, 79, 103
1, 441676, Note_on_c, 4, 58, 127
1, 441697, Note_off_c, 4, 60, 100
1, 441747, Note_on_c, 4, 60, 127
1, 441773, Note_off_c, 4, 58, 100
1, 441823, Note_on_c, 4, 58, 127
1, 441850, Note_off_c, 4, 60, 100
1, 441888, Note_off_c, 0, 79, 100
1, 441900, Note_on_c, 0, 76, 107
1, 441900, Note_on_c, 4, 60, 127
1, 441926, Note_off_c, 4, 58, 100
1, 441939, Note_on_c, 0, 72, 114
1, 441943, Note_off_c, 0, 76, 100
1, 441980, Note_on_c, 0, 77, 110
1, 441980, Note_on_c, 4, 57, 127
1, 441983, Note_off_c, 0, 72, 100
1, 442002, Note_off_c, 4, 60, 100
1, 442054, Note_on_c, 4, 60, 127
1, 442079, Note_off_c, 4, 57, 100
1, 442127, Note_off_c, 0, 77, 100
1, 442127, Note_on_c, 0, 78, 104
1, 442128, Note_on_c, 4, 57, 127
1, 442152, Note_off_c, 4, 60, 100
1, 442200, Note_on_c, 4, 60, 127
1, 442225, Note_off_c, 4, 57, 100
1, 442274, Note_off_c, 0, 78, 100
1, 442274, Note_on_c, 0, 79, 99
1, 442275, Note_on_c, 4, 58, 127
1, 442296, Note_off_c, 4, 60, 100
1, 442344, Note_on_c, 4, 60, 127
1, 442368, Note_off_c, 4, 58, 100
1, 442416, Note_on_c, 4, 58, 127
1, 442439, Note_off_c, 4, 60, 100
1, 442473, Note_off_c, 0, 79, 100
1, 442485, Note_on_c, 0, 76, 107
1, 442486, Note_on_c, 4, 60, 127
1, 442509, Note_off_c, 4, 58, 100
1, 442522, Note_on_c, 0, 72, 114
1, 442526, Note_off_c, 0, 76, 100
1, 442559, Note_on_c, 0, 77, 107
1, 442560, Note_on_c, 4, 57, 127
1, 442561, Note_off_c, 0, 72, 100
1, 442581, Note_off_c, 4, 60, 100
1, 442627, Note_on_c, 4, 60, 127
1, 442652, Note_off_c, 4, 57, 100
1, 442700, Note_on_c, 4, 57, 127
1, 442725, Note_off_c, 4, 60, 100
1, 442775, Note_on_c, 4, 60, 127
1, 442799, Note_off_c, 4, 57, 100
1, 442847, Note_off_c, 0, 77, 100
1, 442848, Note_on_c, 0, 79, 99
1, 442848, Note_on_c, 4, 58, 127
1, 442871, Note_off_c, 4, 60, 100
1, 442917, Note_off_c, 0, 79, 100
1, 442919, Note_on_c, 0, 79, 99
1, 442920, Note_on_c, 4, 60, 127
1, 442943, Note_off_c, 4, 58, 100
1, 442991, Note_on_c, 4, 58, 127
1, 443016, Note_off_c, 4, 60, 100
1, 443064, Note_off_c, 0, 79, 100
1, 443064, Note_on_c, 0, 76, 107
1, 443065, Note_on_c, 4, 60, 127
1, 443089, Note_off_c, 4, 58, 100
1, 443100, Note_on_c, 0, 72, 114
1, 443104, Note_off_c, 0, 76, 100
1, 443137, Note_on_c, 0, 77, 107
1, 443137, Note_on_c, 4, 57, 127
1, 443139, Note_off_c, 0, 72, 100
1, 443161, Note_off_c, 4, 60, 100
1, 443207, Note_off_c, 0, 77, 100
1, 443211, Note_on_c, 0, 77, 107
1, 443211, Note_on_c, 4, 60, 127
1, 443235, Note_off_c, 4, 57, 100
1, 443280, Note_off_c, 0, 77, 100
1, 443285, Note_on_c, 0, 77, 107
1, 443285, Note_on_c, 4, 57, 127
1, 443309, Note_off_c, 4, 60, 100
1, 443355, Note_off_c, 0, 77, 100
1, 443357, Note_on_c, 0, 77, 107
1, 443357, Note_on_c, 4, 60, 127
1, 443383, Note_off_c, 4, 57, 100
1, 443427, Note_off_c, 0, 77, 100
1, 443431, Note_on_c, 4, 58, 127
1, 443431, Note_on_c, 0, 79, 99
1, 443455, Note_off_c, 4, 60, 100
1, 443499, Note_off_c, 0, 79, 100
1, 443503, Note_on_c, 4, 60, 127
1, 443503, Note_on_c, 0, 79, 99
1, 443527, Note_off_c, 4, 58, 100
1, 443575, Note_on_c, 4, 58, 127
1, 443598, Note_off_c, 4, 60, 100
1, 443646, Note_off_c, 0, 79, 100
1, 443646, Note_on_c, 0, 76, 107
1, 443647, Note_on_c, 4, 60, 127
1, 443670, Note_off_c, 4, 58, 100
1, 443681, Note_on_c, 0, 72, 114
1, 443685, Note_off_c, 0, 76, 100
1, 443720, Note_on_c, 0, 77, 107
1, 443720, Note_on_c, 4, 57, 127
1, 443723, Note_off_c, 0, 72, 100
1, 443744, Note_off_c, 4, 60, 100
1, 443794, Note_on_c, 4, 60, 127
1, 443817, Note_off_c, 4, 57, 100
1, 443867, Note_on_c, 4, 57, 127
1, 443892, Note_off_c, 4, 60, 100
1, 443940, Note_on_c, 4, 60, 127
1, 443964, Note_off_c, 4, 57, 100
1, 444001, Note_off_c, 0, 77, 100
1, 444013, Note_on_c, 1, 78, 101
1, 444013, Note_on_c, 4, 58, 127
1, 444036, Note_off_c, 4, 60, 100
1, 444048, Note_on_c, 1, 79, 99
1, 444052, Note_off_c, 1, 78, 100
1, 444086, Note_on_c, 1, 81, 99
1, 444087, Note_on_c, 4, 60, 127
1, 444089, Note_off_c, 1, 79, 100
1, 444110, Note_off_c, 4, 58, 100
1, 444124, Note_on_c, 1, 79, 99
1, 444128, Note_off_c, 1, 81, 100
1, 444162, Note_on_c, 1, 77, 107
1, 444163, Note_on_c, 4, 58, 127
1, 444165, Note_off_c, 1, 79, 100
1, 444186, Note_off_c, 4, 60, 100
1, 444200, Note_on_c, 1, 76, 107
1, 444204, Note_off_c, 1, 77, 100
1, 444236, Note_on_c, 1, 74, 112
1, 444237, Note_on_c, 4, 60, 127
1, 444239, Note_off_c, 1, 76, 100
1, 444260, Note_off_c, 4, 58, 100
1, 444274, Note_on_c, 1, 72, 114
1, 444277, Note_off_c, 1, 74, 100
1, 444312, Note_on_c, 4, 57, 127
1, 444312, Note_on_c, 1, 77, 107
1, 444315, Note_off_c, 1, 72, 100
1, 444317, Note_off_c, 4, 60, 100
1, 444348, Note_on_c, 1, 72, 114
1, 444351, Note_off_c, 1, 77, 100
1, 444384, Note_on_c, 1, 81, 99
1, 444388, Note_off_c, 1, 72, 100
1, 444422, Note_on_c, 1, 77, 107
1, 444426, Note_off_c, 1, 81, 100
1, 444459, Note_on_c, 1, 84, 105
1, 444463, Note_off_c, 1, 77, 100
1, 444497, Note_on_c, 1, 81, 99
1, 444501, Note_off_c, 1, 84, 100
1, 444534, Note_on_c, 1, 84, 105
1, 444538, Note_off_c, 1, 81, 100
1, 444572, Note_on_c, 1, 81, 99
1, 444576, Note_off_c, 1, 84, 100
1, 444609, Note_on_c, 1, 84, 105
1, 444612, Note_off_c, 1, 81, 100
1, 444645, Note_on_c, 1, 82, 99
1, 444649, Note_off_c, 1, 84, 100
1, 444682, Note_on_c, 1, 81, 99
1, 444685, Note_off_c, 1, 82, 100
1, 444720, Note_on_c, 1, 79, 99
1, 444724, Note_off_c, 1, 81, 100
1, 444751, Note_off_c, 4, 57, 100
1, 444756, Note_on_c, 1, 77, 107
1, 444757, Note_on_c, 4, 65, 127
1, 444757, Note_on_c, 4, 57, 127
1, 444761, Note_off_c, 1, 79, 100
1, 444794, Note_on_c, 1, 75, 110
1, 444798, Note_off_c, 1, 77, 100
1, 444829, Note_on_c, 1, 74, 112
1, 444832, Note_off_c, 1, 75, 100
1, 444867, Note_on_c, 1, 72, 119
1, 444871, Note_off_c, 1, 74, 100
1, 444900, Note_off_c, 4, 57, 100
1, 444900, Note_off_c, 4, 65, 100
1, 444904, Note_on_c, 1, 74, 117
1, 444905, Note_on_c, 4, 58, 127
1, 444905, Note_on_c, 4, 65, 127
1, 444907, Note_off_c, 1, 72, 100
1, 444940, Note_on_c, 3, 70, 121
1, 444944, Note_off_c, 1, 74, 100
1, 444979, Note_on_c, 1, 77, 112
1, 444980, Note_off_c, 3, 70, 100
1, 445015, Note_on_c, 1, 74, 117
1, 445017, Note_off_c, 1, 77, 100
1, 445051, Note_on_c, 1, 82, 105
1, 445055, Note_off_c, 1, 74, 100
1, 445088, Note_on_c, 1, 77, 112
1, 445092, Note_off_c, 1, 82, 100
1, 445127, Note_on_c, 1, 86, 112
1, 445130, Note_off_c, 1, 77, 100
1, 445165, Note_on_c, 1, 82, 105
1, 445168, Note_off_c, 1, 86, 100
1, 445201, Note_on_c, 1, 86, 112
1, 445206, Note_off_c, 1, 82, 100
1, 445239, Note_on_c, 1, 84, 110
1, 445242, Note_off_c, 1, 86, 100
1, 445273, Note_on_c, 1, 82, 105
1, 445277, Note_off_c, 1, 84, 100
1, 445312, Note_on_c, 1, 81, 105
1, 445315, Note_off_c, 1, 82, 100
1, 445343, Note_off_c, 4, 65, 100
1, 445343, Note_off_c, 4, 58, 100
1, 445349, Note_on_c, 1, 79, 105
1, 445350, Note_on_c, 4, 65, 127
1, 445350, Note_on_c, 3, 67, 127
1, 445351, Note_on_c, 4, 58, 127
1, 445353, Note_off_c, 1, 81, 100
1, 445386, Note_on_c, 1, 77, 112
1, 445390, Note_off_c, 1, 79, 100
1, 445423, Note_on_c, 1, 76, 112
1, 445427, Note_off_c, 1, 77, 100
1, 445462, Note_on_c, 1, 74, 117
1, 445465, Note_off_c, 1, 76, 100
1, 445500, Note_off_c, 3, 67, 100
1, 445500, Note_off_c, 4, 65, 100
1, 445501, Note_on_c, 1, 72, 122
1, 445501, Note_on_c, 3, 67, 127
1, 445502, Note_on_c, 4, 58, 127
1, 445505, Note_off_c, 1, 74, 100
1, 445549, Note_off_c, 4, 58, 100
1, 445568, Note_off_c, 3, 67, 64
1, 445574, Note_on_c, 3, 69, 126
1, 445643, Note_on_c, 4, 65, 127
1, 445714, Note_off_c, 3, 69, 100
1, 445718, Note_on_c, 3, 69, 126
1, 445795, Note_off_c, 4, 65, 100
1, 445799, Note_off_c, 1, 72, 100
1, 445799, Note_on_c, 1, 79, 92
1, 445800, Note_on_c, 4, 60, 127
1, 445821, Note_on_c, 1, 81, 92
1, 445824, Note_off_c, 1, 79, 100
1, 445842, Note_on_c, 1, 79, 92
1, 445844, Note_off_c, 1, 81, 100
1, 445863, Note_on_c, 1, 81, 92
1, 445867, Note_off_c, 1, 79, 100
1, 445880, Note_off_c, 3, 69, 100
1, 445884, Note_on_c, 3, 70, 121
1, 445884, Note_on_c, 1, 79, 92
1, 445887, Note_off_c, 1, 81, 100
1, 445906, Note_on_c, 1, 81, 92
1, 445908, Note_off_c, 1, 79, 100
1, 445927, Note_on_c, 1, 79, 92
1, 445931, Note_off_c, 1, 81, 100
1, 445948, Note_on_c, 1, 81, 92
1, 445952, Note_off_c, 1, 79, 100
1, 445966, Note_off_c, 4, 60, 100
1, 445969, Note_on_c, 1, 79, 92
1, 445970, Note_on_c, 4, 64, 127
1, 445972, Note_off_c, 1, 81, 100
1, 445992, Note_on_c, 1, 81, 94
1, 445993, Note_off_c, 1, 79, 100
1, 446045, Note_off_c, 3, 70, 100
1, 446049, Note_off_c, 1, 81, 100
1, 446050, Note_on_c, 1, 77, 105
1, 446050, Note_on_c, 3, 70, 121
1, 446088, Note_on_c, 1, 79, 101
1, 446094, Note_off_c, 1, 77, 100
1, 446127, Note_off_c, 4, 64, 100
1, 446131, Note_off_c, 4, 58, 100
1, 446131, Note_on_c, 1, 81, 101
1, 446132, Note_on_c, 4, 65, 127
1, 446134, Note_off_c, 1, 79, 100
1, 446136, Note_off_c, 3, 70, 100
1, 446168, Note_on_c, 1, 82, 101
1, 446172, Note_off_c, 1, 81, 100
1, 446207, Note_on_c, 1, 84, 106
1, 446212, Note_off_c, 1, 82, 100
1, 446247, Note_on_c, 1, 82, 101
1, 446249, Note_off_c, 1, 84, 100
1, 446283, Note_on_c, 1, 81, 101
1, 446287, Note_off_c, 1, 82, 100
1, 446324, Note_on_c, 1, 79, 101
1, 446328, Note_off_c, 1, 81, 100
1, 446356, Note_off_c, 4, 65, 100
1, 446362, Note_on_c, 1, 77, 105
1, 446363, Note_on_c, 3, 67, 127
1, 446367, Note_off_c, 1, 79, 100
1, 446401, Note_on_c, 1, 76, 107
1, 446405, Note_off_c, 1, 77, 100
1, 446436, Note_on_c, 3, 69, 126
1, 446436, Note_on_c, 1, 77, 105
1, 446441, Note_off_c, 1, 76, 100
1, 446443, Note_off_c, 3, 67, 100
1, 446472, Note_on_c, 1, 79, 101
1, 446475, Note_off_c, 1, 77, 100
1, 446508, Note_on_c, 1, 81, 101
1, 446512, Note_off_c, 1, 79, 100
1, 446545, Note_on_c, 1, 79, 101
1, 446549, Note_off_c, 1, 81, 100
1, 446582, Note_on_c, 1, 77, 105
1, 446586, Note_off_c, 1, 79, 100
1, 446618, Note_on_c, 1, 75, 110
1, 446622, Note_off_c, 1, 77, 100
1, 446657, Note_off_c, 3, 69, 100
1, 446657, Note_on_c, 1, 74, 112
1, 446658, Note_on_c, 4, 57, 127
1, 446660, Note_off_c, 1, 75, 100
1, 446694, Note_on_c, 1, 73, 117
1, 446698, Note_off_c, 1, 74, 100
1, 446731, Note_on_c, 1, 74, 115
1, 446732, Note_on_c, 4, 58, 127
1, 446736, Note_off_c, 1, 73, 100
1, 446738, Note_off_c, 4, 57, 100
1, 446769, Note_on_c, 3, 76, 110
1, 446773, Note_off_c, 1, 74, 100
1, 446806, Note_on_c, 1, 77, 108
1, 446809, Note_off_c, 3, 76, 100
1, 446844, Note_on_c, 3, 76, 110
1, 446848, Note_off_c, 1, 77, 100
1, 446880, Note_off_c, 3, 76, 100
1, 446880, Note_on_c, 1, 74, 115
1, 446919, Note_on_c, 1, 72, 119
1, 446921, Note_off_c, 1, 74, 100
1, 446955, Note_on_c, 3, 70, 121
1, 446959, Note_off_c, 1, 72, 100
1, 446992, Note_on_c, 3, 69, 126
1, 446996, Note_off_c, 3, 70, 100
1, 447026, Note_off_c, 4, 58, 100
1, 447027, Note_on_c, 4, 46, 127
1, 447027, Note_on_c, 3, 67, 127
1, 447028, Note_on_c, 4, 34, 127
1, 447030, Note_off_c, 3, 69, 100
1, 447061, Note_on_c, 3, 69, 126
1, 447065, Note_off_c, 3, 67, 100
1, 447097, Note_on_c, 3, 70, 121
1, 447101, Note_off_c, 3, 69, 100
1, 447134, Note_on_c, 3, 69, 126
1, 447138, Note_off_c, 3, 70, 100
1, 447171, Note_on_c, 3, 67, 127
1, 447174, Note_off_c, 3, 69, 100
1, 447207, Note_on_c, 4, 65, 127
1, 447211, Note_off_c, 3, 67, 100
1, 447243, Note_on_c, 4, 64, 127
1, 447247, Note_off_c, 4, 65, 100
1, 447282, Note_on_c, 4, 62, 127
1, 447286, Note_off_c, 4, 64, 100
1, 447319, Note_off_c, 4, 46, 100
1, 447319, Note_off_c, 4, 34, 100
1, 447320, Note_on_c, 4, 48, 127
1, 447320, Note_on_c, 4, 60, 127
1, 447322, Note_off_c, 4, 62, 100
1, 447397, Note_off_c, 4, 60, 100
1, 447397, Note_on_c, 4, 62, 127
1, 447398, Note_on_c, 4, 57, 127
1, 447437, Note_on_c, 4, 64, 127
1, 447440, Note_off_c, 4, 62, 100
1, 447471, Note_off_c, 4, 48, 100
1, 447475, Note_on_c, 4, 65, 127
1, 447476, Note_on_c, 4, 53, 127
1, 447480, Note_off_c, 4, 64, 100
1, 447515, Note_on_c, 3, 67, 127
1, 447518, Note_off_c, 4, 65, 100
1, 447549, Note_off_c, 4, 57, 100
1, 447553, Note_on_c, 4, 57, 127
1, 447553, Note_on_c, 3, 69, 126
1, 447555, Note_off_c, 3, 67, 100
1, 447590, Note_on_c, 3, 70, 121
1, 447594, Note_off_c, 3, 69, 100
1, 447624, Note_off_c, 4, 53, 100
1, 447629, Note_on_c, 1, 72, 119
1, 447629, Note_on_c, 4, 48, 127
1, 447631, Note_off_c, 3, 70, 100
1, 447666, Note_on_c, 1, 74, 117
1, 447670, Note_off_c, 1, 72, 100
1, 447698, Note_off_c, 4, 57, 100
1, 447703, Note_on_c, 4, 57, 127
1, 447703, Note_on_c, 1, 76, 112
1, 447705, Note_off_c, 1, 74, 100
1, 447738, Note_on_c, 1, 77, 115
1, 447742, Note_off_c, 1, 76, 100
1, 447770, Note_off_c, 4, 48, 100
1, 447775, Note_on_c, 4, 53, 127
1, 447775, Note_on_c, 1, 79, 111
1, 447779, Note_off_c, 1, 77, 100
1, 447812, Note_on_c, 1, 81, 111
1, 447815, Note_off_c, 1, 79, 100
1, 447843, Note_off_c, 4, 57, 100
1, 447848, Note_on_c, 1, 82, 111
1, 447848, Note_on_c, 4, 57, 127
1, 447850, Note_off_c, 1, 81, 100
1, 447883, Note_on_c, 1, 84, 116
1, 447887, Note_off_c, 1, 82, 100
1, 447916, Note_off_c, 4, 53, 100
1, 447920, Note_on_c, 4, 48, 127
1, 447920, Note_on_c, 1, 77, 110
1, 447924, Note_off_c, 1, 84, 100
1, 447947, Note_off_c, 1, 77, 100
1, 447959, Note_on_c, 1, 79, 106
1, 447986, Note_off_c, 1, 79, 100
1, 447992, Note_on_c, 1, 81, 106
1, 448012, Note_off_c, 4, 57, 100
1, 448017, Note_on_c, 4, 58, 127
1, 448017, Note_on_c, 1, 79, 106
1, 448020, Note_off_c, 1, 81, 100
1, 448044, Note_off_c, 1, 79, 100
1, 448048, Note_on_c, 1, 81, 106
1, 448075, Note_off_c, 1, 81, 100
1, 448079, Note_on_c, 1, 79, 106
1, 448106, Note_off_c, 4, 48, 100
1, 448106, Note_off_c, 1, 79, 100
1, 448111, Note_on_c, 1, 81, 106
1, 448111, Note_on_c, 4, 52, 127
1, 448137, Note_off_c, 1, 81, 100
1, 448137, Note_on_c, 1, 79, 106
1, 448162, Note_off_c, 1, 79, 100
1, 448166, Note_on_c, 1, 81, 101
1, 448193, Note_off_c, 1, 81, 100
1, 448197, Note_on_c, 1, 79, 101
1, 448198, Note_off_c, 4, 58, 100
1, 448203, Note_on_c, 4, 58, 127
1, 448222, Note_off_c, 1, 79, 100
1, 448228, Note_on_c, 1, 81, 101
1, 448251, Note_on_c, 1, 79, 101
1, 448253, Note_off_c, 1, 81, 100
1, 448276, Note_off_c, 1, 79, 100
1, 448287, Note_on_c, 1, 81, 101
1, 448288, Note_off_c, 4, 52, 100
1, 448292, Note_on_c, 4, 48, 127
1, 448309, Note_on_c, 1, 79, 101
1, 448311, Note_off_c, 1, 81, 100
1, 448334, Note_off_c, 1, 79, 100
1, 448338, Note_on_c, 1, 81, 101
1, 448361, Note_on_c, 1, 79, 101
1, 448363, Note_off_c, 1, 81, 100
1, 448375, Note_off_c, 4, 58, 100
1, 448379, Note_on_c, 4, 58, 127
1, 448386, Note_off_c, 1, 79, 100
1, 448390, Note_on_c, 1, 81, 101
1, 448411, Note_on_c, 1, 79, 101
1, 448413, Note_off_c, 1, 81, 100
1, 448432, Note_off_c, 1, 79, 100
1, 448438, Note_on_c, 1, 81, 101
1, 448455, Note_off_c, 4, 48, 100
1, 448459, Note_on_c, 1, 79, 101
1, 448460, Note_off_c, 1, 81, 100
1, 448460, Note_on_c, 4, 52, 127
1, 448478, Note_on_c, 1, 81, 101
1, 448482, Note_off_c, 1, 79, 64
1, 448498, Note_on_c, 1, 79, 101
1, 448500, Note_off_c, 1, 81, 64
1, 448518, Note_on_c, 1, 81, 101
1, 448522, Note_off_c, 1, 79, 64
1, 448535, Note_off_c, 4, 58, 100
1, 448539, Note_on_c, 4, 58, 127
1, 448539, Note_on_c, 1, 77, 110
1, 448542, Note_off_c, 1, 81, 64
1, 448578, Note_on_c, 1, 79, 106
1, 448582, Note_off_c, 1, 77, 100
1, 448615, Note_off_c, 4, 52, 100
1, 448620, Note_on_c, 1, 77, 110
1, 448621, Note_on_c, 4, 57, 127
1, 448621, Note_on_c, 4, 53, 127
1, 448624, Note_off_c, 1, 79, 100
1, 448626, Note_off_c, 4, 58, 100
1, 448699, Note_off_c, 1, 77, 100
1, 448701, Note_on_c, 1, 77, 115
1, 448778, Note_off_c, 4, 53, 100
1, 448778, Note_off_c, 4, 57, 100
1, 448783, Note_on_c, 4, 53, 127
1, 448783, Note_on_c, 4, 57, 127
1, 448860, Note_off_c, 1, 77, 100
1, 448866, Note_on_c, 1, 77, 115
1, 448941, Note_off_c, 1, 77, 100
1, 448943, Note_on_c, 1, 77, 115
1, 449020, Note_off_c, 1, 77, 100
1, 449022, Note_on_c, 1, 77, 115
1, 449098, Note_off_c, 4, 57, 100
1, 449098, Note_off_c, 4, 53, 100
1, 449100, Note_on_c, 4, 57, 127
1, 449101, Note_on_c, 4, 53, 127
1, 449180, Note_off_c, 1, 77, 100
1, 449184, Note_on_c, 1, 77, 115
1, 449261, Note_off_c, 4, 53, 100
1, 449261, Note_off_c, 4, 57, 100
1, 449262, Note_off_c, 1, 77, 100
1, 449264, Note_on_c, 4, 58, 127
1, 449264, Note_on_c, 1, 77, 115
1, 449265, Note_on_c, 4, 53, 127
1, 449265, Note_on_c, 4, 55, 127
1, 449340, Note_off_c, 1, 77, 100
1, 449344, Note_on_c, 1, 77, 115
1, 449415, Note_off_c, 4, 53, 100
1, 449416, Note_off_c, 4, 58, 100
1, 449416, Note_off_c, 4, 55, 100
1, 449420, Note_on_c, 4, 58, 127
1, 449421, Note_on_c, 4, 53, 127
1, 449421, Note_on_c, 4, 55, 127
1, 449495, Note_off_c, 1, 77, 100
1, 449499, Note_on_c, 1, 77, 115
1, 449572, Note_off_c, 1, 77, 100
1, 449574, Note_on_c, 1, 77, 115
1, 449649, Note_off_c, 1, 77, 100
1, 449651, Note_on_c, 1, 77, 115
1, 449724, Note_off_c, 4, 58, 100
1, 449724, Note_off_c, 4, 55, 100
1, 449724, Note_off_c, 4, 53, 100
1, 449728, Note_on_c, 4, 59, 127
1, 449729, Note_on_c, 4, 53, 127
1, 449729, Note_on_c, 4, 56, 127
1, 449801, Note_off_c, 1, 77, 100
1, 449805, Note_on_c, 1, 77, 115
1, 449876, Note_off_c, 4, 53, 100
1, 449877, Note_off_c, 4, 59, 100
1, 449877, Note_off_c, 4, 56, 100
1, 449878, Note_off_c, 1, 77, 100
1, 449880, Note_on_c, 1, 77, 115
1, 449881, Note_on_c, 4, 57, 127
1, 449881, Note_on_c, 4, 60, 127
1, 449882, Note_on_c, 4, 53, 127
1, 449953, Note_off_c, 1, 77, 100
1, 449957, Note_on_c, 1, 77, 115
1, 450030, Note_off_c, 4, 60, 100
1, 450030, Note_off_c, 4, 57, 100
1, 450033, Note_on_c, 4, 61, 127
1, 450034, Note_on_c, 4, 57, 127
1, 450105, Note_off_c, 1, 77, 100
1, 450109, Note_on_c, 1, 77, 115
1, 450183, Note_off_c, 4, 57, 100
1, 450184, Note_off_c, 4, 61, 100
1, 450184, Note_off_c, 4, 53, 100
1, 450185, Note_off_c, 1, 77, 100
1, 450186, Note_on_c, 4, 62, 127
1, 450186, Note_on_c, 1, 77, 115
1, 450187, Note_on_c, 4, 53, 127
1, 450187, Note_on_c, 4, 58, 127
1, 450260, Note_off_c, 1, 77, 100
1, 450263, Note_on_c, 1, 77, 115
1, 450337, Note_off_c, 4, 62, 100
1, 450337, Note_off_c, 4, 58, 100
1, 450340, Note_on_c, 4, 62, 127
1, 450341, Note_on_c, 4, 59, 127
1, 450413, Note_off_c, 1, 77, 100
1, 450417, Note_on_c, 1, 77, 115
1, 450492, Note_off_c, 4, 53, 100
1, 450492, Note_off_c, 4, 62, 100
1, 450492, Note_off_c, 4, 59, 100
1, 450493, Note_off_c, 1, 77, 100
1, 450496, Note_on_c, 4, 63, 127
1, 450496, Note_on_c, 1, 77, 115
1, 450497, Note_on_c, 4, 53, 127
1, 450497, Note_on_c, 4, 60, 127
1, 450567, Note_off_c, 1, 77, 100
1, 450569, Note_on_c, 1, 81, 111
1, 450640, Note_off_c, 1, 81, 100
1, 450644, Note_on_c, 1, 81, 111
1, 450717, Note_off_c, 1, 81, 100
1, 450719, Note_on_c, 1, 84, 116
1, 450792, Note_off_c, 1, 84, 100
1, 450793, Note_on_c, 1, 84, 116
1, 450863, Note_off_c, 1, 84, 100
1, 450864, Note_on_c, 1, 87, 115
1, 450936, Note_off_c, 1, 87, 100
1, 450937, Note_on_c, 1, 87, 115
1, 451008, Note_off_c, 1, 87, 100
1, 451010, Note_on_c, 1, 84, 116
1, 451080, Note_off_c, 1, 84, 100
1, 451081, Note_on_c, 1, 84, 116
1, 451152, Note_off_c, 1, 84, 100
1, 451156, Note_on_c, 1, 81, 111
1, 451228, Note_off_c, 1, 81, 100
1, 451230, Note_on_c, 1, 81, 111
1, 451303, Note_off_c, 1, 81, 100
1, 451305, Note_on_c, 1, 77, 115
1, 451376, Note_off_c, 1, 77, 100
1, 451378, Note_on_c, 1, 77, 115
1, 451449, Note_off_c, 1, 77, 100
1, 451452, Note_on_c, 1, 75, 115
1, 451521, Note_off_c, 1, 75, 100
1, 451523, Note_on_c, 1, 75, 115
1, 451594, Note_off_c, 1, 75, 100
1, 451596, Note_on_c, 1, 77, 115
1, 451667, Note_off_c, 1, 77, 100
1, 451669, Note_on_c, 1, 77, 115
1, 451780, Note_off_c, 4, 53, 100
1, 451781, Note_off_c, 4, 63, 100
1, 451781, Note_off_c, 4, 60, 100
1, 451816, Note_on_c, 4, 58, 127
1, 451891, Note_off_c, 1, 77, 100
1, 451891, Note_on_c, 1, 74, 117
1, 451963, Note_off_c, 4, 58, 100
1, 451964, Note_on_c, 3, 70, 121
1, 451964, Note_on_c, 4, 62, 127
1, 451969, Note_off_c, 1, 74, 100
1, 452106, Note_off_c, 3, 70, 100
1, 452110, Note_off_c, 4, 62, 100
1, 452110, Note_on_c, 3, 70, 121
1, 452111, Note_on_c, 3, 67, 127
1, 452257, Note_off_c, 3, 70, 100
1, 452257, Note_off_c, 3, 67, 100
1, 452258, Note_on_c, 4, 60, 127
1, 452258, Note_on_c, 1, 75, 115
1, 452404, Note_off_c, 1, 75, 100
1, 452404, Note_off_c, 4, 60, 100
1, 452405, Note_on_c, 1, 79, 111
1, 452405, Note_on_c, 4, 63, 127
1, 452552, Note_off_c, 4, 63, 100
1, 452552, Note_off_c, 1, 79, 100
1, 452553, Note_on_c, 4, 65, 127
1, 452553, Note_on_c, 3, 69, 126
1, 452696, Note_off_c, 3, 69, 100
1, 452696, Note_off_c, 4, 65, 100
1, 452697, Note_on_c, 4, 63, 127
1, 452768, Note_on_c, 3, 69, 126
1, 452837, Note_off_c, 4, 63, 100
1, 452837, Note_on_c, 1, 72, 119
1, 452838, Note_on_c, 4, 62, 127
1, 452844, Note_off_c, 3, 69, 100
1, 452907, Note_on_c, 3, 70, 121
1, 452911, Note_off_c, 1, 72, 100
1, 452974, Note_off_c, 4, 62, 100
1, 452975, Note_on_c, 1, 74, 117
1, 452975, Note_on_c, 4, 57, 127
1, 452981, Note_off_c, 3, 70, 100
1, 453044, Note_on_c, 1, 72, 119
1, 453050, Note_off_c, 1, 74, 100
1, 453113, Note_off_c, 4, 57, 100
1, 453114, Note_on_c, 4, 58, 127
1, 453114, Note_on_c, 1, 75, 115
1, 453121, Note_off_c, 1, 72, 100
1, 453184, Note_on_c, 1, 74, 117
1, 453190, Note_off_c, 1, 75, 100
1, 453255, Note_off_c, 4, 58, 100
1, 453256, Note_on_c, 4, 60, 127
1, 453256, Note_on_c, 1, 77, 115
1, 453257, Note_on_c, 4, 51, 127
1, 453263, Note_off_c, 1, 74, 100
1, 453332, Note_on_c, 1, 75, 115
1, 453338, Note_off_c, 1, 77, 100
1, 453399, Note_off_c, 4, 51, 100
1, 453400, Note_off_c, 4, 60, 100
1, 453400, Note_on_c, 1, 74, 117
1, 453401, Note_on_c, 4, 53, 127
1, 453401, Note_on_c, 4, 58, 127
1, 453406, Note_off_c, 1, 75, 100
1, 453608, Note_off_c, 1, 74, 100
1, 453613, Note_on_c, 1, 75, 115
1, 453650, Note_on_c, 1, 74, 117
1, 453654, Note_off_c, 1, 75, 100
1, 453681, Note_off_c, 4, 53, 100
1, 453686, Note_off_c, 4, 58, 100
1, 453687, Note_on_c, 4, 57, 127
1, 453687, Note_on_c, 1, 72, 119
1, 453688, Note_on_c, 4, 53, 127
1, 453690, Note_off_c, 1, 74, 100
1, 453757, Note_on_c, 1, 74, 117
1, 453763, Note_off_c, 1, 72, 100
1, 453832, Note_on_c, 1, 75, 115
1, 453838, Note_off_c, 1, 74, 100
1, 453903, Note_on_c, 1, 76, 112
1, 453909, Note_off_c, 1, 75, 100
1, 453975, Note_on_c, 1, 77, 115
1, 453980, Note_off_c, 1, 76, 100
1, 454117, Note_off_c, 4, 57, 100
1, 454117, Note_off_c, 4, 53, 100
1, 454118, Note_on_c, 4, 58, 127
1, 454142, Note_off_c, 1, 77, 100
1, 454154, Note_on_c, 1, 75, 115
1, 454192, Note_on_c, 1, 74, 117
1, 454196, Note_off_c, 1, 75, 100
1, 454231, Note_on_c, 1, 72, 119
1, 454235, Note_off_c, 1, 74, 100
1, 454269, Note_off_c, 4, 58, 100
1, 454270, Note_on_c, 4, 62, 127
1, 454270, Note_on_c, 3, 70, 121
1, 454272, Note_off_c, 1, 72, 100
1, 454410, Note_off_c, 3, 70, 100
1, 454416, Note_off_c, 4, 62, 100
1, 454416, Note_on_c, 3, 70, 121
1, 454416, Note_on_c, 3, 67, 127
1, 454559, Note_off_c, 3, 67, 100
1, 454559, Note_off_c, 3, 70, 100
1, 454560, Note_on_c, 1, 75, 115
1, 454560, Note_on_c, 4, 60, 127
1, 454704, Note_off_c, 4, 60, 100
1, 454705, Note_off_c, 1, 75, 100
1, 454705, Note_on_c, 1, 79, 111
1, 454706, Note_on_c, 4, 63, 127
1, 454852, Note_off_c, 4, 63, 100
1, 454853, Note_off_c, 1, 79, 100
1, 454853, Note_on_c, 3, 69, 126
1, 454854, Note_on_c, 4, 65, 127
1, 454994, Note_off_c, 4, 65, 100
1, 454995, Note_off_c, 3, 69, 100
1, 454995, Note_on_c, 4, 63, 127
1, 455064, Note_on_c, 3, 69, 126
1, 455136, Note_off_c, 4, 63, 100
1, 455137, Note_on_c, 4, 62, 127
1, 455137, Note_on_c, 3, 70, 121
1, 455141, Note_off_c, 3, 69, 100
1, 455208, Note_on_c, 1, 74, 117
1, 455216, Note_off_c, 3, 70, 100
1, 455280, Note_off_c, 4, 62, 100
1, 455280, Note_on_c, 3, 67, 127
1, 455280, Note_on_c, 4, 63, 127
1, 455281, Note_on_c, 4, 51, 127
1, 455285, Note_off_c, 1, 74, 100
1, 455352, Note_on_c, 1, 72, 119
1, 455360, Note_off_c, 3, 67, 100
1, 455425, Note_off_c, 4, 51, 100
1, 455426, Note_off_c, 4, 63, 100
1, 455426, Note_on_c, 3, 70, 121
1, 455427, Note_on_c, 4, 53, 127
1, 455427, Note_on_c, 4, 62, 127
1, 455431, Note_off_c, 1, 72, 100
1, 455567, Note_off_c, 4, 62, 100
1, 455567, Note_off_c, 4, 53, 100
1, 455568, Note_off_c, 3, 70, 100
1, 455568, Note_on_c, 3, 69, 126
1, 455568, Note_on_c, 4, 60, 127
1, 455707, Note_off_c, 4, 60, 100
1, 455707, Note_off_c, 3, 69, 100
1, 455708, Note_on_c, 4, 58, 127
1, 455708, Note_on_c, 3, 70, 121
1, 455782, Note_on_c, 4, 65, 127
1, 455787, Note_off_c, 3, 70, 100
1, 455855, Note_on_c, 3, 67, 127
1, 455860, Note_off_c, 4, 65, 100
1, 455924, Note_on_c, 3, 69, 126
1, 455929, Note_off_c, 3, 67, 100
1, 455995, Note_on_c, 3, 70, 121
1, 456000, Note_off_c, 3, 69, 100
1, 456066, Note_on_c, 1, 72, 119
1, 456072, Note_off_c, 3, 70, 100
1, 456137, Note_on_c, 1, 74, 117
1, 456143, Note_off_c, 1, 72, 100
1, 456206, Note_on_c, 1, 75, 115
1, 456212, Note_off_c, 1, 74, 100
1, 456269, Note_off_c, 4, 58, 100
1, 456275, Note_on_c, 1, 77, 115
1, 456276, Note_on_c, 4, 58, 127
1, 456282, Note_off_c, 1, 75, 100
1, 456345, Note_on_c, 4, 65, 127
1, 456416, Note_on_c, 4, 62, 127
1, 456422, Note_off_c, 4, 65, 100
1, 456487, Note_off_c, 1, 77, 100
1, 456488, Note_on_c, 1, 74, 117
1, 456488, Note_on_c, 4, 65, 127
1, 456495, Note_off_c, 4, 62, 100
1, 456561, Note_off_c, 4, 58, 100
1, 456562, Note_on_c, 4, 55, 127
1, 456562, Note_on_c, 3, 70, 121
1, 456566, Note_off_c, 4, 65, 100
1, 456567, Note_off_c, 1, 74, 100
1, 456630, Note_on_c, 4, 62, 127
1, 456698, Note_off_c, 3, 70, 100
1, 456703, Note_on_c, 4, 58, 127
1, 456703, Note_on_c, 3, 70, 121
1, 456709, Note_off_c, 4, 62, 100
1, 456775, Note_on_c, 4, 62, 127
1, 456780, Note_off_c, 4, 58, 100
1, 456844, Note_on_c, 1, 75, 115
1, 456846, Note_off_c, 3, 70, 100
1, 456846, Note_off_c, 4, 55, 100
1, 456847, Note_on_c, 4, 51, 127
1, 456852, Note_off_c, 4, 62, 100
1, 456883, Note_off_c, 1, 75, 100
1, 456890, Note_on_c, 1, 77, 115
1, 456904, Note_off_c, 1, 77, 100
1, 456910, Note_on_c, 1, 75, 110
1, 456913, Note_on_c, 4, 60, 127
1, 456925, Note_off_c, 1, 75, 100
1, 456941, Note_on_c, 1, 74, 112
1, 456955, Note_off_c, 1, 74, 100
1, 456970, Note_on_c, 1, 75, 110
1, 456994, Note_off_c, 4, 60, 100
1, 456997, Note_on_c, 1, 79, 111
1, 456998, Note_on_c, 4, 55, 127
1, 457012, Note_off_c, 1, 75, 100
1, 457068, Note_on_c, 4, 60, 127
1, 457073, Note_off_c, 4, 55, 100
1, 457139, Note_off_c, 1, 79, 100
1, 457139, Note_off_c, 4, 51, 100
1, 457140, Note_on_c, 4, 53, 127
1, 457140, Note_on_c, 3, 69, 126
1, 457144, Note_off_c, 4, 60, 100
1, 457210, Note_on_c, 4, 63, 127
1, 457281, Note_on_c, 4, 60, 127
1, 457285, Note_off_c, 4, 63, 100
1, 457345, Note_off_c, 3, 69, 100
1, 457351, Note_on_c, 3, 69, 126
1, 457351, Note_on_c, 4, 63, 127
1, 457356, Note_off_c, 4, 60, 100
1, 457419, Note_off_c, 4, 53, 100
1, 457419, Note_on_c, 1, 72, 119
1, 457420, Note_on_c, 4, 62, 127
1, 457426, Note_off_c, 4, 63, 100
1, 457426, Note_off_c, 3, 69, 100
1, 457490, Note_on_c, 3, 70, 121
1, 457496, Note_off_c, 1, 72, 100
1, 457557, Note_off_c, 4, 62, 100
1, 457558, Note_on_c, 4, 65, 127
1, 457558, Note_on_c, 1, 74, 117
1, 457559, Note_on_c, 4, 57, 127
1, 457563, Note_off_c, 3, 70, 100
1, 457626, Note_on_c, 1, 72, 119
1, 457632, Note_off_c, 1, 74, 100
1, 457695, Note_off_c, 4, 57, 100
1, 457696, Note_on_c, 1, 75, 115
1, 457696, Note_on_c, 4, 58, 127
1, 457702, Note_off_c, 1, 72, 100
1, 457768, Note_on_c, 1, 74, 117
1, 457774, Note_off_c, 1, 75, 100
1, 457837, Note_off_c, 4, 58, 100
1, 457838, Note_on_c, 4, 60, 127
1, 457838, Note_on_c, 1, 77, 115
1, 457839, Note_on_c, 4, 51, 127
1, 457845, Note_off_c, 1, 74, 100
1, 457908, Note_on_c, 1, 75, 115
1, 457914, Note_off_c, 1, 77, 100
1, 457980, Note_off_c, 4, 65, 100
1, 457980, Note_off_c, 4, 60, 100
1, 457980, Note_off_c, 4, 51, 100
1, 457981, Note_on_c, 4, 58, 127
1, 457981, Note_on_c, 1, 74, 117
1, 457982, Note_on_c, 4, 53, 127
1, 457984, Note_off_c, 1, 75, 100
1, 458191, Note_off_c, 1, 74, 100
1, 458196, Note_on_c, 1, 75, 115
1, 458233, Note_on_c, 1, 74, 117
1, 458235, Note_off_c, 1, 75, 100
1, 458262, Note_off_c, 4, 53, 100
1, 458268, Note_off_c, 4, 58, 100
1, 458268, Note_on_c, 4, 57, 127
1, 458268, Note_on_c, 1, 72, 119
1, 458269, Note_on_c, 4, 53, 127
1, 458271, Note_off_c, 1, 74, 100
1, 458340, Note_on_c, 1, 74, 117
1, 458346, Note_off_c, 1, 72, 100
1, 458413, Note_on_c, 1, 75, 115
1, 458419, Note_off_c, 1, 74, 100
1, 458483, Note_on_c, 1, 76, 112
1, 458488, Note_off_c, 1, 75, 100
1, 458554, Note_off_c, 4, 57, 100
1, 458554, Note_off_c, 4, 53, 100
1, 458555, Note_on_c, 4, 58, 127
1, 458555, Note_on_c, 1, 77, 115
1, 458559, Note_off_c, 1, 76, 100
1, 458627, Note_on_c, 4, 65, 127
1, 458700, Note_on_c, 4, 62, 127
1, 458705, Note_off_c, 4, 65, 100
1, 458724, Note_off_c, 1, 77, 100
1, 458737, Note_on_c, 1, 75, 115
1, 458773, Note_on_c, 1, 74, 117
1, 458774, Note_on_c, 4, 65, 127
1, 458776, Note_off_c, 1, 75, 100
1, 458778, Note_off_c, 4, 62, 100
1, 458809, Note_on_c, 1, 72, 119
1, 458813, Note_off_c, 1, 74, 100
1, 458845, Note_off_c, 4, 58, 100
1, 458846, Note_on_c, 4, 55, 127
1, 458846, Note_on_c, 3, 70, 121
1, 458848, Note_off_c, 1, 72, 100
1, 458852, Note_off_c, 4, 65, 100
1, 458914, Note_off_c, 3, 70, 100
1, 458920, Note_on_c, 3, 70, 121
1, 458920, Note_on_c, 4, 62, 127
1, 458988, Note_off_c, 3, 70, 100
1, 458993, Note_on_c, 3, 70, 121
1, 458994, Note_on_c, 4, 58, 127
1, 459000, Note_off_c, 4, 62, 100
1, 459062, Note_off_c, 3, 70, 100
1, 459067, Note_on_c, 3, 70, 121
1, 459068, Note_on_c, 4, 62, 127
1, 459072, Note_off_c, 4, 58, 100
1, 459140, Note_off_c, 4, 55, 100
1, 459140, Note_on_c, 1, 75, 110
1, 459141, Note_on_c, 4, 51, 127
1, 459144, Note_off_c, 4, 62, 100
1, 459145, Note_off_c, 3, 70, 100
1, 459193, Note_off_c, 1, 75, 100
1, 459213, Note_on_c, 1, 77, 110
1, 459213, Note_on_c, 4, 60, 127
1, 459223, Note_off_c, 1, 77, 100
1, 459237, Note_on_c, 1, 75, 110
1, 459244, Note_off_c, 1, 75, 100
1, 459256, Note_on_c, 1, 74, 112
1, 459262, Note_off_c, 1, 74, 100
1, 459267, Note_on_c, 1, 75, 110
1, 459288, Note_on_c, 1, 79, 106
1, 459289, Note_on_c, 4, 55, 127
1, 459295, Note_off_c, 4, 60, 100
1, 459304, Note_off_c, 1, 75, 100
1, 459359, Note_on_c, 4, 60, 127
1, 459364, Note_off_c, 4, 55, 100
1, 459431, Note_off_c, 4, 51, 100
1, 459431, Note_off_c, 1, 79, 100
1, 459432, Note_on_c, 4, 53, 127
1, 459432, Note_on_c, 3, 69, 126
1, 459436, Note_off_c, 4, 60, 100
1, 459504, Note_on_c, 4, 63, 127
1, 459575, Note_on_c, 4, 60, 127
1, 459581, Note_off_c, 4, 63, 100
1, 459647, Note_on_c, 1, 81, 106
1, 459647, Note_on_c, 4, 63, 127
1, 459653, Note_off_c, 4, 60, 100
1, 459719, Note_off_c, 3, 69, 100
1, 459719, Note_off_c, 4, 53, 100
1, 459720, Note_on_c, 4, 50, 127
1, 459720, Note_on_c, 4, 58, 127
1, 459720, Note_on_c, 1, 82, 106
1, 459725, Note_off_c, 4, 63, 100
1, 459726, Note_off_c, 1, 81, 100
1, 459756, Note_on_c, 1, 77, 110
1, 459798, Note_off_c, 1, 82, 100
1, 459829, Note_on_c, 1, 74, 112
1, 459835, Note_off_c, 1, 77, 100
1, 459860, Note_off_c, 4, 50, 100
1, 459864, Note_on_c, 1, 79, 106
1, 459864, Note_on_c, 4, 51, 127
1, 459899, Note_on_c, 1, 75, 110
1, 459903, Note_off_c, 1, 79, 100
1, 459905, Note_off_c, 1, 74, 100
1, 459970, Note_on_c, 1, 72, 119
1, 459977, Note_off_c, 1, 75, 100
1, 460002, Note_off_c, 4, 51, 100
1, 460006, Note_off_c, 4, 58, 100
1, 460006, Note_on_c, 1, 77, 110
1, 460007, Note_on_c, 4, 53, 127
1, 460007, Note_on_c, 4, 62, 127
1, 460040, Note_on_c, 1, 74, 112
1, 460044, Note_off_c, 1, 77, 100
1, 460046, Note_off_c, 1, 72, 100
1, 460112, Note_on_c, 3, 70, 121
1, 460118, Note_off_c, 1, 74, 100
1, 460145, Note_off_c, 4, 62, 100
1, 460149, Note_on_c, 1, 75, 115
1, 460149, Note_on_c, 4, 63, 127
1, 460182, Note_on_c, 1, 72, 119
1, 460186, Note_off_c, 1, 75, 100
1, 460188, Note_off_c, 3, 70, 100
1, 460253, Note_on_c, 3, 69, 126
1, 460261, Note_off_c, 1, 72, 100
1, 460288, Note_off_c, 4, 63, 100
1, 460288, Note_off_c, 4, 53, 100
1, 460293, Note_on_c, 4, 53, 127
1, 460293, Note_on_c, 4, 62, 127
1, 460294, Note_on_c, 4, 58, 127
1, 460299, Note_off_c, 3, 69, 100
1, 460440, Note_on_c, 4, 46, 127
1, 460511, Note_off_c, 4, 62, 100
1, 460511, Note_off_c, 4, 53, 64
1, 460512, Note_off_c, 4, 58, 100
1, 460512, Note_on_c, 4, 65, 127
1, 460582, Note_on_c, 3, 70, 121
1, 460587, Note_off_c, 4, 65, 100
1, 460656, Note_on_c, 3, 69, 126
1, 460662, Note_off_c, 3, 70, 100
1, 460728, Note_on_c, 3, 70, 121
1, 460733, Note_off_c, 3, 69, 100
1, 460799, Note_on_c, 1, 72, 119
1, 460804, Note_off_c, 3, 70, 100
1, 460870, Note_on_c, 1, 74, 117
1, 460875, Note_off_c, 1, 72, 100
1, 461010, Note_off_c, 4, 46, 100
1, 461012, Note_off_c, 1, 74, 100
1, 461017, Note_on_c, 1, 74, 117
1, 461018, Note_on_c, 4, 58, 127
1, 461018, Note_on_c, 3, 70, 121
1, 461159, Note_off_c, 3, 70, 100
1, 461159, Note_off_c, 4, 58, 100
1, 461160, Note_off_c, 1, 74, 100
1, 461163, Note_on_c, 1, 74, 117
1, 461164, Note_on_c, 4, 55, 127
1, 461164, Note_on_c, 3, 70, 121
1, 461303, Note_off_c, 3, 70, 100
1, 461303, Note_off_c, 4, 55, 100
1, 461304, Note_off_c, 1, 74, 100
1, 461307, Note_on_c, 1, 75, 115
1, 461308, Note_on_c, 1, 72, 119
1, 461308, Note_on_c, 4, 51, 127
1, 461448, Note_off_c, 4, 51, 100
1, 461448, Note_off_c, 1, 72, 100
1, 461448, Note_off_c, 1, 75, 100
1, 461453, Note_on_c, 3, 69, 126
1, 461453, Note_on_c, 1, 72, 119
1, 461454, Note_on_c, 4, 53, 127
1, 461600, Note_on_c, 4, 41, 127
1, 461666, Note_off_c, 3, 69, 100
1, 461666, Note_off_c, 4, 53, 100
1, 461667, Note_off_c, 1, 72, 100
1, 461673, Note_on_c, 4, 65, 127
1, 461746, Note_on_c, 1, 72, 119
1, 461751, Note_off_c, 4, 65, 100
1, 461817, Note_on_c, 3, 70, 121
1, 461823, Note_off_c, 1, 72, 100
1, 461887, Note_on_c, 1, 72, 119
1, 461892, Note_off_c, 3, 70, 100
1, 461956, Note_on_c, 1, 74, 117
1, 461962, Note_off_c, 1, 72, 100
1, 462025, Note_on_c, 1, 75, 115
1, 462031, Note_off_c, 1, 74, 100
1, 462165, Note_off_c, 4, 41, 100
1, 462167, Note_off_c, 1, 75, 100
1, 462173, Note_on_c, 3, 67, 127
1, 462173, Note_on_c, 1, 75, 115
1, 462174, Note_on_c, 4, 60, 127
1, 462312, Note_off_c, 3, 67, 100
1, 462312, Note_off_c, 4, 60, 100
1, 462313, Note_off_c, 1, 75, 100
1, 462317, Note_on_c, 1, 75, 115
1, 462317, Note_on_c, 1, 72, 119
1, 462318, Note_on_c, 4, 57, 127
1, 462454, Note_off_c, 4, 57, 100
1, 462455, Note_off_c, 1, 72, 100
1, 462455, Note_off_c, 1, 75, 100
1, 462459, Note_on_c, 3, 69, 126
1, 462459, Note_on_c, 1, 77, 115
1, 462460, Note_on_c, 4, 53, 127
1, 462598, Note_off_c, 4, 53, 100
1, 462599, Note_off_c, 1, 77, 100
1, 462599, Note_off_c, 3, 69, 100
1, 462603, Note_on_c, 3, 70, 121
1, 462603, Note_on_c, 1, 74, 117
1, 462604, Note_on_c, 4, 58, 127
1, 462742, Note_on_c, 4, 46, 127
1, 462805, Note_off_c, 3, 70, 100
1, 462811, Note_off_c, 4, 58, 100
1, 462812, Note_off_c, 1, 74, 100
1, 462812, Note_on_c, 3, 70, 121
1, 462881, Note_on_c, 1, 74, 117
1, 462887, Note_off_c, 3, 70, 100
1, 462952, Note_on_c, 1, 72, 119
1, 462958, Note_off_c, 1, 74, 100
1, 463020, Note_on_c, 1, 74, 117
1, 463025, Note_off_c, 1, 72, 100
1, 463087, Note_on_c, 1, 75, 115
1, 463092, Note_off_c, 1, 74, 100
1, 463154, Note_on_c, 1, 77, 115
1, 463160, Note_off_c, 1, 75, 100
1, 463296, Note_off_c, 1, 77, 100
1, 463300, Note_off_c, 4, 46, 100
1, 463300, Note_on_c, 1, 77, 115
1, 463301, Note_on_c, 4, 62, 127
1, 463301, Note_on_c, 4, 58, 127
1, 463436, Note_off_c, 4, 58, 100
1, 463437, Note_off_c, 4, 62, 100
1, 463437, Note_off_c, 1, 77, 100
1, 463439, Note_on_c, 1, 77, 115
1, 463440, Note_on_c, 4, 62, 127
1, 463440, Note_on_c, 4, 58, 127
1, 463579, Note_off_c, 4, 58, 100
1, 463580, Note_off_c, 4, 62, 100
1, 463580, Note_off_c, 1, 77, 100
1, 463582, Note_on_c, 1, 77, 115
1, 463583, Note_on_c, 4, 58, 127
1, 463583, Note_on_c, 4, 62, 127
1, 463724, Note_off_c, 4, 58, 100
1, 463725, Note_off_c, 1, 77, 100
1, 463725, Note_off_c, 4, 62, 100
1, 463728, Note_on_c, 1, 78, 112
1, 463728, Note_on_c, 4, 57, 127
1, 463728, Note_on_c, 4, 60, 127
1, 463799, Note_on_c, 1, 72, 119
1, 463869, Note_on_c, 1, 74, 117
1, 463874, Note_off_c, 1, 72, 100
1, 463936, Note_on_c, 1, 75, 115
1, 463942, Note_off_c, 1, 74, 100
1, 463999, Note_off_c, 4, 57, 100
1, 464001, Note_off_c, 1, 75, 100
1, 464005, Note_off_c, 4, 60, 100
1, 464005, Note_on_c, 1, 75, 115
1, 464006, Note_on_c, 4, 50, 127
1, 464006, Note_on_c, 4, 57, 127
1, 464068, Note_off_c, 1, 75, 100
1, 464072, Note_on_c, 1, 74, 117
1, 464137, Note_off_c, 1, 74, 100
1, 464139, Note_on_c, 1, 74, 117
1, 464208, Note_off_c, 1, 74, 100
1, 464210, Note_on_c, 1, 72, 119
1, 464282, Note_off_c, 4, 50, 100
1, 464283, Note_off_c, 1, 78, 100
1, 464283, Note_off_c, 4, 57, 100
1, 464284, Note_on_c, 3, 70, 121
1, 464284, Note_on_c, 1, 79, 111
1, 464285, Note_on_c, 4, 51, 127
1, 464289, Note_off_c, 1, 72, 100
1, 464354, Note_on_c, 4, 55, 127
1, 464422, Note_on_c, 4, 57, 127
1, 464427, Note_off_c, 4, 55, 100
1, 464493, Note_on_c, 4, 58, 127
1, 464498, Note_off_c, 4, 57, 100
1, 464557, Note_off_c, 4, 58, 100
1, 464560, Note_off_c, 1, 79, 100
1, 464560, Note_off_c, 3, 70, 100
1, 464561, Note_on_c, 1, 73, 122
1, 464561, Note_on_c, 4, 58, 127
1, 464625, Note_off_c, 4, 58, 100
1, 464629, Note_on_c, 4, 57, 127
1, 464696, Note_off_c, 4, 57, 100
1, 464700, Note_on_c, 4, 57, 127
1, 464764, Note_off_c, 4, 57, 100
1, 464768, Note_on_c, 4, 55, 127
1, 464832, Note_off_c, 4, 51, 100
1, 464837, Note_off_c, 1, 73, 100
1, 464838, Note_on_c, 4, 54, 127
1, 464838, Note_on_c, 1, 74, 117
1, 464839, Note_on_c, 4, 50, 127
1, 464843, Note_off_c, 4, 55, 100
1, 465085, Note_on_c, 4, 62, 127
1, 465096, Note_off_c, 1, 74, 100
1, 465120, Note_on_c, 0, 74, 117
1, 465171, Note_off_c, 4, 62, 100
1, 465256, Note_on_c, 0, 74, 113
1, 465389, Note_off_c, 4, 54, 100
1, 465389, Note_off_c, 4, 50, 100
1, 465390, Note_on_c, 0, 82, 107
1, 465390, Note_on_c, 4, 55, 127
1, 465406, Note_off_c, 0, 74, 100
1, 465406, Note_off_c, 0, 74, 100
1, 465459, Note_on_c, 4, 58, 127
1, 465477, Note_off_c, 4, 55, 100
1, 465528, Note_on_c, 4, 62, 127
1, 465544, Note_off_c, 4, 58, 100
1, 465562, Note_off_c, 0, 82, 100
1, 465562, Note_on_c, 0, 81, 107
1, 465595, Note_on_c, 4, 58, 127
1, 465595, Note_on_c, 0, 79, 107
1, 465598, Note_off_c, 0, 81, 100
1, 465611, Note_off_c, 4, 62, 100
1, 465630, Note_on_c, 0, 78, 108
1, 465634, Note_off_c, 0, 79, 100
1, 465663, Note_on_c, 0, 79, 107
1, 465663, Note_on_c, 4, 55, 127
1, 465668, Note_off_c, 0, 78, 100
1, 465679, Note_off_c, 4, 58, 100
1, 465729, Note_on_c, 4, 58, 127
1, 465747, Note_off_c, 4, 55, 100
1, 465793, Note_off_c, 0, 79, 100
1, 465794, Note_on_c, 4, 62, 127
1, 465794, Note_on_c, 0, 74, 113
1, 465810, Note_off_c, 4, 58, 100
1, 465858, Note_on_c, 4, 58, 127
1, 465875, Note_off_c, 4, 62, 100
1, 465925, Note_off_c, 0, 74, 100
1, 465925, Note_on_c, 0, 75, 111
1, 465926, Note_on_c, 4, 55, 127
1, 465944, Note_off_c, 4, 58, 100
1, 465996, Note_on_c, 4, 60, 127
1, 466014, Note_off_c, 4, 55, 100
1, 466064, Note_on_c, 4, 63, 127
1, 466082, Note_off_c, 4, 60, 100
1, 466139, Note_on_c, 4, 60, 127
1, 466155, Note_off_c, 4, 63, 100
1, 466175, Note_off_c, 0, 75, 100
1, 466176, Note_on_c, 3, 67, 127
1, 466211, Note_on_c, 0, 79, 107
1, 466211, Note_on_c, 4, 55, 127
1, 466229, Note_off_c, 4, 60, 100
1, 466263, Note_off_c, 3, 67, 100
1, 466279, Note_on_c, 4, 60, 127
1, 466296, Note_off_c, 4, 55, 100
1, 466344, Note_off_c, 0, 79, 100
1, 466348, Note_on_c, 0, 79, 107
1, 466348, Note_on_c, 4, 63, 127
1, 466364, Note_off_c, 4, 60, 100
1, 466418, Note_on_c, 4, 60, 127
1, 466433, Note_off_c, 4, 63, 100
1, 466483, Note_off_c, 0, 79, 100
1, 466484, Note_on_c, 4, 55, 127
1, 466484, Note_on_c, 0, 87, 111
1, 466502, Note_off_c, 4, 60, 100
1, 466556, Note_on_c, 4, 60, 127
1, 466573, Note_off_c, 4, 55, 100
1, 466625, Note_on_c, 4, 63, 127
1, 466643, Note_off_c, 4, 60, 100
1, 466659, Note_off_c, 0, 87, 100
1, 466659, Note_on_c, 0, 86, 114
1, 466692, Note_on_c, 0, 84, 112
1, 466693, Note_on_c, 4, 60, 127
1, 466695, Note_off_c, 0, 86, 100
1, 466709, Note_off_c, 4, 63, 100
1, 466726, Note_on_c, 0, 82, 111
1, 466730, Note_off_c, 0, 84, 100
1, 466763, Note_on_c, 4, 55, 127
1, 466763, Note_on_c, 0, 84, 116
1, 466765, Note_off_c, 0, 82, 100
1, 466781, Note_off_c, 4, 60, 100
1, 466835, Note_on_c, 4, 60, 127
1, 466852, Note_off_c, 4, 55, 100
1, 466904, Note_off_c, 0, 84, 100
1, 466904, Note_on_c, 0, 75, 111
1, 466905, Note_on_c, 4, 63, 127
1, 466920, Note_off_c, 4, 60, 100
1, 466972, Note_on_c, 4, 60, 127
1, 466989, Note_off_c, 4, 63, 100
1, 467039, Note_off_c, 0, 75, 100
1, 467040, Note_on_c, 0, 74, 113
1, 467040, Note_on_c, 4, 55, 127
1, 467057, Note_off_c, 4, 60, 100
1, 467113, Note_on_c, 4, 58, 127
1, 467132, Note_off_c, 4, 55, 100
1, 467182, Note_on_c, 4, 62, 127
1, 467201, Note_off_c, 4, 58, 100
1, 467254, Note_off_c, 0, 74, 100
1, 467255, Note_on_c, 0, 73, 118
1, 467324, Note_on_c, 0, 74, 113
1, 467330, Note_off_c, 0, 73, 100
1, 467393, Note_on_c, 0, 82, 107
1, 467399, Note_off_c, 0, 74, 100
1, 467461, Note_on_c, 0, 81, 107
1, 467467, Note_off_c, 0, 82, 100
1, 467531, Note_on_c, 0, 79, 107
1, 467536, Note_off_c, 0, 81, 100
1, 467598, Note_off_c, 4, 62, 100
1, 467598, Note_on_c, 0, 78, 108
1, 467599, Note_on_c, 4, 63, 127
1, 467599, Note_on_c, 4, 60, 127
1, 467600, Note_on_c, 4, 57, 127
1, 467604, Note_off_c, 0, 79, 100
1, 467691, Note_off_c, 0, 78, 100
1, 467702, Note_on_c, 0, 79, 107
1, 467722, Note_on_c, 0, 81, 107
1, 467724, Note_off_c, 0, 79, 100
1, 467737, Note_off_c, 4, 57, 100
1, 467737, Note_off_c, 4, 60, 100
1, 467738, Note_off_c, 4, 63, 100
1, 467740, Note_on_c, 4, 62, 127
1, 467740, Note_on_c, 0, 79, 107
1, 467741, Note_on_c, 4, 58, 127
1, 467743, Note_off_c, 0, 81, 100
1, 467807, Note_off_c, 0, 79, 100
1, 467813, Note_on_c, 0, 79, 107
1, 467882, Note_on_c, 0, 85, 112
1, 467889, Note_off_c, 0, 79, 100
1, 467954, Note_on_c, 0, 86, 114
1, 467960, Note_off_c, 0, 85, 100
1, 468025, Note_on_c, 0, 82, 107
1, 468031, Note_off_c, 0, 86, 100
1, 468092, Note_on_c, 0, 79, 107
1, 468098, Note_off_c, 0, 82, 100
1, 468163, Note_off_c, 4, 58, 100
1, 468164, Note_off_c, 4, 62, 100
1, 468164, Note_on_c, 0, 78, 108
1, 468165, Note_on_c, 4, 60, 127
1, 468165, Note_on_c, 4, 63, 127
1, 468166, Note_on_c, 4, 57, 127
1, 468170, Note_off_c, 0, 79, 100
1, 468260, Note_off_c, 0, 78, 100
1, 468272, Note_on_c, 1, 79, 107
1, 468289, Note_on_c, 0, 81, 107
1, 468293, Note_off_c, 1, 79, 100
1, 468305, Note_off_c, 4, 63, 100
1, 468305, Note_off_c, 4, 60, 100
1, 468305, Note_off_c, 4, 57, 100
1, 468307, Note_on_c, 1, 79, 107
1, 468308, Note_on_c, 4, 58, 127
1, 468308, Note_on_c, 4, 62, 127
1, 468309, Note_off_c, 0, 81, 100
1, 468377, Note_on_c, 0, 74, 113
1, 468382, Note_off_c, 1, 79, 100
1, 468448, Note_on_c, 1, 79, 107
1, 468453, Note_off_c, 0, 74, 100
1, 468516, Note_off_c, 1, 79, 100
1, 468519, Note_on_c, 1, 79, 107
1, 468586, Note_off_c, 1, 79, 100
1, 468590, Note_on_c, 1, 79, 107
1, 468660, Note_off_c, 1, 79, 100
1, 468664, Note_on_c, 1, 79, 107
1, 468730, Note_off_c, 4, 58, 100
1, 468732, Note_off_c, 1, 79, 100
1, 468736, Note_off_c, 4, 62, 100
1, 468736, Note_on_c, 4, 58, 127
1, 468736, Note_on_c, 1, 79, 107
1, 468737, Note_on_c, 4, 51, 127
1, 468832, Note_off_c, 1, 79, 100
1, 468845, Note_on_c, 1, 81, 107
1, 468864, Note_on_c, 1, 82, 107
1, 468866, Note_off_c, 1, 81, 100
1, 468882, Note_on_c, 1, 81, 107
1, 468885, Note_off_c, 1, 82, 100
1, 468959, Note_on_c, 1, 79, 107
1, 468964, Note_off_c, 1, 81, 100
1, 469031, Note_off_c, 4, 58, 100
1, 469031, Note_on_c, 1, 77, 111
1, 469032, Note_on_c, 4, 55, 127
1, 469036, Note_off_c, 1, 79, 100
1, 469104, Note_on_c, 1, 75, 115
1, 469109, Note_off_c, 1, 77, 100
1, 469173, Note_on_c, 1, 74, 125
1, 469180, Note_off_c, 1, 75, 100
1, 469244, Note_on_c, 1, 73, 127
1, 469249, Note_off_c, 1, 74, 100
1, 469309, Note_off_c, 1, 73, 100
1, 469313, Note_off_c, 4, 55, 100
1, 469313, Note_off_c, 4, 51, 100
1, 469314, Note_on_c, 4, 54, 127
1, 469314, Note_on_c, 1, 73, 127
1, 469315, Note_on_c, 4, 50, 127
1, 469435, Note_off_c, 1, 73, 100
1, 469458, Note_off_c, 4, 54, 100
1, 469458, Note_off_c, 4, 50, 100
1, 469461, Note_on_c, 0, 74, 127
1, 469461, Note_on_c, 4, 57, 127
1, 469462, Note_on_c, 4, 54, 127
1, 469462, Note_on_c, 4, 50, 127
1, 469601, Note_off_c, 4, 50, 100
1, 469601, Note_off_c, 4, 54, 100
1, 469602, Note_off_c, 4, 57, 100
1, 469602, Note_off_c, 0, 74, 100
1, 469605, Note_on_c, 4, 57, 127
1, 469605, Note_on_c, 0, 74, 127
1, 469606, Note_on_c, 4, 50, 127
1, 469606, Note_on_c, 4, 54, 127
1, 469748, Note_off_c, 4, 54, 100
1, 469748, Note_off_c, 4, 50, 100
1, 469749, Note_off_c, 0, 74, 100
1, 469749, Note_off_c, 4, 57, 100
1, 469752, Note_on_c, 4, 54, 127
1, 469752, Note_on_c, 4, 57, 127
1, 469752, Note_on_c, 0, 74, 127
1, 469753, Note_on_c, 4, 50, 127
1, 469894, Note_off_c, 0, 74, 100
1, 469897, Note_on_c, 0, 73, 127
1, 469920, Note_on_c, 0, 74, 127
1, 469922, Note_off_c, 0, 73, 100
1, 469942, Note_on_c, 0, 75, 126
1, 469945, Note_off_c, 0, 74, 100
1, 469965, Note_on_c, 0, 74, 127
1, 469968, Note_off_c, 0, 75, 100
1, 470049, Note_off_c, 4, 50, 100
1, 470050, Note_off_c, 4, 57, 100
1, 470050, Note_off_c, 4, 54, 100
1, 470054, Note_on_c, 4, 53, 127
1, 470054, Note_on_c, 4, 57, 127
1, 470055, Note_on_c, 4, 50, 127
1, 470189, Note_off_c, 4, 50, 100
1, 470190, Note_off_c, 4, 57, 100
1, 470190, Note_off_c, 4, 53, 100
1, 470192, Note_on_c, 4, 57, 127
1, 470193, Note_on_c, 4, 53, 127
1, 470193, Note_on_c, 4, 50, 127
1, 470330, Note_off_c, 4, 50, 100
1, 470331, Note_off_c, 4, 53, 100
1, 470331, Note_off_c, 4, 57, 100
1, 470333, Note_on_c, 4, 57, 127
1, 470334, Note_on_c, 4, 50, 127
1, 470334, Note_on_c, 4, 53, 127
1, 470470, Note_on_c, 0, 77, 123
1, 470477, Note_off_c, 0, 74, 100
1, 470608, Note_off_c, 4, 53, 100
1, 470608, Note_off_c, 4, 50, 100
1, 470609, Note_off_c, 4, 57, 100
1, 470615, Note_on_c, 4, 53, 127
1, 470615, Note_on_c, 4, 58, 127
1, 470616, Note_on_c, 4, 50, 127
1, 470749, Note_off_c, 4, 53, 100
1, 470749, Note_off_c, 4, 50, 100
1, 470750, Note_off_c, 4, 58, 100
1, 470752, Note_on_c, 4, 53, 127
1, 470752, Note_on_c, 4, 58, 127
1, 470753, Note_on_c, 4, 50, 127
1, 470891, Note_off_c, 4, 50, 100
1, 470892, Note_off_c, 4, 58, 100
1, 470892, Note_off_c, 4, 53, 100
1, 470894, Note_on_c, 4, 58, 127
1, 470895, Note_on_c, 4, 53, 127
1, 470895, Note_on_c, 4, 50, 127
1, 471024, Note_off_c, 0, 77, 100
1, 471037, Note_off_c, 4, 50, 100
1, 471037, Note_off_c, 4, 53, 100
1, 471038, Note_off_c, 4, 58, 100
1, 471041, Note_on_c, 4, 56, 127
1, 471041, Note_on_c, 4, 62, 127
1, 471183, Note_on_c, 4, 53, 127
1, 471184, Note_on_c, 4, 46, 127
1, 471320, Note_off_c, 4, 46, 100
1, 471321, Note_off_c, 4, 53, 100
1, 471325, Note_on_c, 4, 53, 127
1, 471326, Note_on_c, 4, 46, 127
1, 471456, Note_off_c, 4, 46, 100
1, 471457, Note_off_c, 4, 53, 100
1, 471460, Note_on_c, 4, 53, 127
1, 471460, Note_on_c, 4, 46, 127
1, 471598, Note_off_c, 4, 46, 100
1, 471598, Note_off_c, 4, 53, 100
1, 471600, Note_off_c, 4, 62, 100
1, 471603, Note_off_c, 4, 56, 100
1, 471604, Note_on_c, 4, 55, 127
1, 471604, Note_on_c, 1, 63, 127
1, 471605, Note_on_c, 4, 39, 127
1, 471605, Note_on_c, 4, 51, 127
1, 471746, Note_off_c, 4, 51, 100
1, 471750, Note_on_c, 4, 51, 127
1, 471888, Note_off_c, 1, 63, 100
1, 471888, Note_off_c, 4, 55, 100
1, 471895, Note_off_c, 4, 51, 100
1, 471895, Note_on_c, 1, 63, 127
1, 471896, Note_on_c, 4, 55, 127
1, 471999, Note_on_c, 4, 58, 127
1, 472013, Note_off_c, 1, 63, 100
1, 472036, Note_off_c, 4, 55, 100
1, 472036, Note_on_c, 1, 62, 127
1, 472037, Note_on_c, 4, 56, 127
1, 472135, Note_off_c, 4, 58, 100
1, 472140, Note_on_c, 4, 58, 127
1, 472175, Note_off_c, 4, 56, 100
1, 472176, Note_off_c, 1, 62, 100
1, 472176, Note_on_c, 1, 63, 127
1, 472176, Note_on_c, 4, 55, 127
1, 472277, Note_off_c, 4, 58, 100
1, 472281, Note_on_c, 4, 58, 127
1, 472315, Note_off_c, 4, 39, 100
1, 472316, Note_off_c, 4, 55, 100
1, 472316, Note_off_c, 1, 63, 100
1, 472317, Note_on_c, 4, 50, 127
1, 472317, Note_on_c, 1, 65, 127
1, 472415, Note_off_c, 4, 58, 100
1, 472419, Note_on_c, 4, 58, 127
1, 472455, Note_off_c, 4, 50, 100
1, 472456, Note_off_c, 1, 65, 100
1, 472456, Note_on_c, 1, 67, 127
1, 472457, Note_on_c, 4, 51, 127
1, 472553, Note_off_c, 4, 58, 100
1, 472559, Note_on_c, 4, 58, 127
1, 472594, Note_off_c, 1, 67, 100
1, 472594, Note_off_c, 4, 51, 100
1, 472595, Note_on_c, 4, 53, 127
1, 472595, Note_on_c, 1, 68, 127
1, 472688, Note_off_c, 4, 58, 100
1, 472693, Note_on_c, 4, 58, 127
1, 472727, Note_off_c, 1, 68, 100
1, 472727, Note_on_c, 1, 65, 127
1, 472873, Note_off_c, 4, 53, 100
1, 472874, Note_on_c, 4, 46, 127
1, 473006, Note_off_c, 1, 65, 100
1, 473012, Note_off_c, 4, 46, 100
1, 473013, Note_on_c, 4, 50, 127
1, 473013, Note_on_c, 1, 65, 127
1, 473109, Note_off_c, 4, 58, 100
1, 473115, Note_on_c, 4, 58, 127
1, 473148, Note_off_c, 1, 65, 100
1, 473148, Note_off_c, 4, 50, 100
1, 473148, Note_on_c, 1, 64, 127
1, 473149, Note_on_c, 4, 49, 127
1, 473245, Note_off_c, 4, 58, 100
1, 473252, Note_on_c, 4, 58, 127
1, 473286, Note_off_c, 4, 49, 100
1, 473287, Note_off_c, 1, 64, 100
1, 473287, Note_on_c, 1, 65, 127
1, 473288, Note_on_c, 4, 50, 127
1, 473388, Note_off_c, 4, 58, 100
1, 473394, Note_on_c, 4, 58, 127
1, 473428, Note_off_c, 4, 50, 100
1, 473429, Note_off_c, 1, 65, 100
1, 473429, Note_on_c, 4, 52, 127
1, 473429, Note_on_c, 1, 67, 127
1, 473528, Note_off_c, 4, 58, 100
1, 473534, Note_on_c, 4, 58, 127
1, 473570, Note_off_c, 4, 52, 100
1, 473571, Note_off_c, 1, 67, 100
1, 473571, Note_on_c, 1, 68, 127
1, 473571, Note_on_c, 4, 53, 127
1, 473666, Note_off_c, 4, 58, 100
1, 473672, Note_on_c, 4, 58, 127
1, 473705, Note_off_c, 4, 53, 100
1, 473705, Note_off_c, 1, 68, 100
1, 473706, Note_on_c, 4, 50, 127
1, 473706, Note_on_c, 1, 70, 125
1, 473805, Note_off_c, 4, 58, 100
1, 473808, Note_on_c, 4, 58, 127
1, 473843, Note_off_c, 4, 50, 100
1, 473844, Note_off_c, 1, 70, 100
1, 473844, Note_on_c, 4, 51, 127
1, 473844, Note_on_c, 3, 67, 127
1, 473985, Note_on_c, 4, 39, 127
1, 474058, Note_off_c, 3, 67, 100
1, 474059, Note_on_c, 3, 70, 121
1, 474128, Note_on_c, 1, 75, 115
1, 474134, Note_off_c, 3, 70, 100
1, 474222, Note_off_c, 1, 75, 100
1, 474234, Note_on_c, 1, 77, 115
1, 474270, Note_on_c, 1, 79, 111
1, 474272, Note_off_c, 1, 77, 100
1, 474372, Note_on_c, 3, 70, 121
1, 474384, Note_off_c, 1, 79, 100
1, 474407, Note_on_c, 1, 72, 119
1, 474409, Note_off_c, 3, 70, 100
1, 474514, Note_off_c, 4, 58, 100
1, 474515, Note_off_c, 1, 72, 100
1, 474515, Note_on_c, 1, 74, 117
1, 474552, Note_off_c, 4, 51, 100
1, 474552, Note_on_c, 4, 63, 127
1, 474552, Note_on_c, 1, 75, 115
1, 474553, Note_off_c, 1, 74, 100
1, 474553, Note_on_c, 4, 56, 127
1, 474659, Note_off_c, 1, 75, 100
1, 474660, Note_on_c, 3, 67, 127
1, 474695, Note_on_c, 3, 68, 126
1, 474696, Note_off_c, 3, 67, 100
1, 474800, Note_off_c, 3, 68, 100
1, 474801, Note_on_c, 3, 70, 121
1, 474830, Note_off_c, 4, 56, 100
1, 474830, Note_off_c, 4, 63, 100
1, 474835, Note_on_c, 4, 63, 127
1, 474835, Note_on_c, 1, 72, 119
1, 474836, Note_on_c, 4, 60, 127
1, 474840, Note_off_c, 3, 70, 100
1, 474938, Note_off_c, 1, 72, 100
1, 474939, Note_on_c, 3, 68, 126
1, 474968, Note_off_c, 4, 60, 100
1, 474969, Note_off_c, 4, 63, 100
1, 474973, Note_on_c, 4, 63, 127
1, 474973, Note_on_c, 3, 67, 127
1, 474974, Note_on_c, 4, 58, 127
1, 474977, Note_off_c, 3, 68, 100
1, 475117, Note_on_c, 4, 46, 127
1, 475186, Note_off_c, 3, 67, 100
1, 475187, Note_on_c, 3, 70, 121
1, 475254, Note_on_c, 1, 75, 115
1, 475260, Note_off_c, 3, 70, 100
1, 475362, Note_off_c, 1, 75, 100
1, 475362, Note_on_c, 1, 77, 115
1, 475392, Note_off_c, 4, 63, 100
1, 475392, Note_off_c, 4, 58, 100
1, 475397, Note_off_c, 4, 46, 100
1, 475397, Note_on_c, 4, 63, 127
1, 475397, Note_on_c, 1, 79, 111
1, 475398, Note_on_c, 4, 55, 127
1, 475400, Note_off_c, 1, 77, 100
1, 475500, Note_on_c, 3, 71, 122
1, 475512, Note_off_c, 1, 79, 100
1, 475535, Note_on_c, 1, 72, 119
1, 475538, Note_off_c, 3, 71, 100
1, 475641, Note_off_c, 1, 72, 100
1, 475641, Note_on_c, 1, 74, 117
1, 475668, Note_off_c, 4, 63, 100
1, 475672, Note_off_c, 4, 55, 100
1, 475673, Note_on_c, 4, 63, 127
1, 475673, Note_on_c, 1, 75, 115
1, 475674, Note_on_c, 4, 56, 127
1, 475676, Note_off_c, 1, 74, 100
1, 475776, Note_on_c, 3, 67, 127
1, 475788, Note_off_c, 1, 75, 100
1, 475812, Note_on_c, 3, 68, 126
1, 475814, Note_off_c, 3, 67, 100
1, 475914, Note_off_c, 3, 68, 100
1, 475915, Note_on_c, 3, 70, 121
1, 475942, Note_off_c, 4, 63, 100
1, 475948, Note_off_c, 4, 56, 100
1, 475948, Note_on_c, 1, 72, 119
1, 475949, Note_on_c, 4, 63, 127
1, 475949, Note_on_c, 4, 60, 127
1, 475950, Note_off_c, 3, 70, 100
1, 476050, Note_off_c, 1, 72, 100
1, 476050, Note_on_c, 3, 68, 126
1, 476079, Note_off_c, 4, 60, 100
1, 476079, Note_off_c, 4, 63, 100
1, 476082, Note_on_c, 3, 67, 127
1, 476083, Note_on_c, 4, 58, 127
1, 476083, Note_on_c, 4, 63, 127
1, 476086, Note_off_c, 3, 68, 100
1, 476224, Note_on_c, 4, 46, 127
1, 476290, Note_off_c, 3, 67, 100
1, 476295, Note_on_c, 3, 67, 127
1, 476365, Note_on_c, 3, 70, 121
1, 476371, Note_off_c, 3, 67, 100
1, 476435, Note_on_c, 3, 69, 126
1, 476440, Note_off_c, 3, 70, 100
1, 476500, Note_off_c, 4, 63, 100
1, 476500, Note_off_c, 4, 58, 100
1, 476507, Note_on_c, 4, 60, 127
1, 476507, Note_on_c, 4, 63, 127
1, 476556, Note_off_c, 4, 39, 100
1, 476577, Note_off_c, 3, 69, 100
1, 476580, Note_on_c, 3, 69, 126
1, 476650, Note_on_c, 1, 72, 119
1, 476655, Note_off_c, 3, 69, 100
1, 476719, Note_on_c, 3, 70, 121
1, 476724, Note_off_c, 1, 72, 100
1, 476784, Note_off_c, 4, 63, 100
1, 476790, Note_off_c, 4, 60, 100
1, 476790, Note_on_c, 4, 63, 127
1, 476791, Note_on_c, 4, 55, 127
1, 476862, Note_off_c, 3, 70, 100
1, 476866, Note_on_c, 3, 71, 122
1, 476929, Note_off_c, 4, 63, 100
1, 476929, Note_off_c, 4, 55, 100
1, 476933, Note_off_c, 4, 46, 100
1, 476933, Note_on_c, 1, 74, 117
1, 476934, Note_on_c, 4, 63, 127
1, 476934, Note_on_c, 4, 56, 127
1, 476939, Note_off_c, 3, 71, 100
1, 477002, Note_on_c, 1, 72, 119
1, 477008, Note_off_c, 1, 74, 100
1, 477070, Note_off_c, 4, 56, 100
1, 477071, Note_off_c, 4, 63, 100
1, 477073, Note_on_c, 4, 56, 127
1, 477073, Note_on_c, 1, 75, 115
1, 477074, Note_on_c, 4, 53, 127
1, 477080, Note_off_c, 1, 72, 100
1, 477143, Note_on_c, 1, 74, 117
1, 477149, Note_off_c, 1, 75, 100
1, 477210, Note_off_c, 4, 53, 100
1, 477211, Note_off_c, 4, 56, 100
1, 477213, Note_on_c, 1, 77, 115
1, 477214, Note_on_c, 4, 58, 127
1, 477214, Note_on_c, 4, 55, 127
1, 477218, Note_off_c, 1, 74, 100
1, 477285, Note_on_c, 1, 75, 115
1, 477291, Note_off_c, 1, 77, 100
1, 477352, Note_off_c, 4, 55, 100
1, 477353, Note_off_c, 4, 58, 100
1, 477357, Note_on_c, 1, 77, 115
1, 477358, Note_on_c, 4, 55, 127
1, 477358, Note_on_c, 4, 58, 127
1, 477362, Note_off_c, 1, 75, 100
1, 477428, Note_on_c, 1, 76, 112
1, 477434, Note_off_c, 1, 77, 100
1, 477497, Note_off_c, 4, 55, 100
1, 477498, Note_off_c, 4, 58, 100
1, 477500, Note_on_c, 1, 79, 111
1, 477501, Note_on_c, 4, 56, 127
1, 477501, Note_on_c, 4, 58, 127
1, 477502, Note_on_c, 4, 53, 127
1, 477506, Note_off_c, 1, 76, 100
1, 477571, Note_on_c, 1, 77, 115
1, 477577, Note_off_c, 1, 79, 100
1, 477638, Note_off_c, 4, 53, 100
1, 477639, Note_off_c, 4, 58, 100
1, 477639, Note_off_c, 4, 56, 100
1, 477641, Note_on_c, 1, 80, 111
1, 477642, Note_on_c, 4, 58, 127
1, 477642, Note_on_c, 4, 55, 127
1, 477643, Note_on_c, 4, 51, 127
1, 477647, Note_off_c, 1, 77, 100
1, 477710, Note_on_c, 1, 79, 111
1, 477716, Note_off_c, 1, 80, 100
1, 477778, Note_off_c, 4, 51, 100
1, 477778, Note_off_c, 4, 55, 100
1, 477779, Note_off_c, 4, 58, 100
1, 477781, Note_on_c, 4, 58, 127
1, 477781, Note_on_c, 1, 82, 111
1, 477782, Note_on_c, 4, 50, 127
1, 477782, Note_on_c, 4, 53, 127
1, 477788, Note_off_c, 1, 79, 100
1, 477855, Note_on_c, 1, 80, 111
1, 477862, Note_off_c, 1, 82, 100
1, 478174, Note_off_c, 1, 80, 100
1, 478174, Note_on_c, 1, 77, 115
1, 478246, Note_off_c, 4, 53, 100
1, 478246, Note_off_c, 4, 50, 100
1, 478247, Note_off_c, 4, 58, 100
1, 478247, Note_on_c, 1, 79, 111
1, 478248, Note_on_c, 4, 63, 127
1, 478248, Note_on_c, 3, 70, 121
1, 478250, Note_off_c, 1, 77, 100
1, 478352, Note_off_c, 1, 79, 100
1, 478353, Note_on_c, 1, 75, 115
1, 478381, Note_off_c, 4, 63, 100
1, 478382, Note_off_c, 3, 70, 100
1, 478385, Note_on_c, 1, 72, 119
1, 478385, Note_on_c, 3, 68, 126
1, 478386, Note_on_c, 4, 56, 127
1, 478387, Note_off_c, 1, 75, 100
1, 478493, Note_on_c, 1, 77, 115
1, 478524, Note_off_c, 4, 56, 100
1, 478524, Note_off_c, 3, 68, 100
1, 478524, Note_off_c, 1, 72, 100
1, 478529, Note_on_c, 3, 67, 127
1, 478529, Note_on_c, 1, 75, 115
1, 478530, Note_on_c, 4, 58, 127
1, 478531, Note_off_c, 1, 77, 100
1, 478666, Note_off_c, 1, 75, 100
1, 478666, Note_off_c, 3, 67, 100
1, 478669, Note_on_c, 4, 65, 127
1, 478669, Note_on_c, 1, 74, 117
1, 478804, Note_off_c, 4, 58, 100
1, 478810, Note_off_c, 4, 65, 100
1, 478811, Note_off_c, 1, 74, 100
1, 478811, Note_on_c, 1, 82, 111
1, 478812, Note_on_c, 4, 50, 127
1, 478812, Note_on_c, 4, 53, 127
1, 478812, Note_on_c, 4, 58, 127
1, 478884, Note_on_c, 1, 80, 111
1, 478888, Note_off_c, 1, 82, 100
1, 479245, Note_off_c, 1, 80, 100
1, 479250, Note_on_c, 1, 77, 115
1, 479321, Note_off_c, 4, 53, 100
1, 479321, Note_off_c, 4, 50, 100
1, 479322, Note_off_c, 4, 58, 100
1, 479322, Note_on_c, 1, 79, 111
1, 479323, Note_on_c, 3, 70, 121
1, 479323, Note_on_c, 4, 63, 127
1, 479328, Note_off_c, 1, 77, 100
1, 479431, Note_off_c, 1, 79, 100
1, 479432, Note_on_c, 1, 75, 115
1, 479469, Note_off_c, 4, 63, 100
1, 479469, Note_off_c, 3, 70, 100
1, 479470, Note_on_c, 3, 68, 126
1, 479470, Note_on_c, 1, 72, 119
1, 479471, Note_on_c, 4, 56, 127
1, 479472, Note_off_c, 1, 75, 100
1, 479573, Note_on_c, 1, 77, 115
1, 479608, Note_off_c, 3, 68, 100
1, 479608, Note_off_c, 4, 56, 100
1, 479609, Note_off_c, 1, 72, 100
1, 479609, Note_on_c, 1, 75, 115
1, 479610, Note_on_c, 4, 58, 127
1, 479610, Note_on_c, 3, 67, 127
1, 479613, Note_off_c, 1, 77, 100
1, 479751, Note_off_c, 3, 67, 100
1, 479751, Note_off_c, 1, 75, 100
1, 479752, Note_on_c, 4, 65, 127
1, 479752, Note_on_c, 1, 74, 117
1, 479887, Note_off_c, 4, 65, 100
1, 479888, Note_off_c, 1, 74, 100
1, 479888, Note_on_c, 3, 67, 127
1, 479955, Note_on_c, 1, 79, 111
1, 479978, Note_off_c, 3, 67, 100
1, 480101, Note_off_c, 1, 79, 100
1, 480102, Note_on_c, 1, 75, 115
1, 480171, Note_off_c, 4, 58, 100
1, 480172, Note_on_c, 1, 72, 119
1, 480173, Note_on_c, 4, 63, 127
1, 480173, Note_on_c, 3, 67, 127
1, 480178, Note_off_c, 1, 75, 100
1, 480310, Note_off_c, 1, 72, 100
1, 480313, Note_on_c, 1, 72, 119
1, 480446, Note_off_c, 4, 63, 100
1, 480447, Note_off_c, 3, 67, 100
1, 480451, Note_off_c, 1, 72, 100
1, 480452, Note_on_c, 3, 71, 122
1, 480452, Note_on_c, 1, 77, 115
1, 480453, Note_on_c, 4, 62, 127
1, 480597, Note_off_c, 1, 77, 100
1, 480598, Note_on_c, 1, 81, 111
1, 480736, Note_off_c, 4, 62, 100
1, 480737, Note_off_c, 3, 71, 100
1, 480743, Note_off_c, 1, 81, 100
1, 480744, Note_on_c, 4, 65, 127
1, 480744, Note_on_c, 3, 68, 126
1, 480744, Note_on_c, 3, 71, 122
1, 480943, Note_off_c, 3, 71, 100
1, 480948, Note_on_c, 3, 71, 122
1, 481010, Note_off_c, 3, 68, 100
1, 481010, Note_off_c, 4, 65, 100
1, 481011, Note_on_c, 3, 67, 127
1, 481011, Note_on_c, 1, 74, 117
1, 481012, Note_on_c, 4, 63, 127
1, 481017, Note_off_c, 3, 71, 100
1, 481083, Note_on_c, 1, 72, 119
1, 481089, Note_off_c, 1, 74, 100
1, 481149, Note_off_c, 4, 63, 100
1, 481149, Note_on_c, 4, 59, 127
1, 481149, Note_on_c, 1, 75, 115
1, 481154, Note_off_c, 1, 72, 100
1, 481215, Note_on_c, 1, 74, 117
1, 481221, Note_off_c, 1, 75, 100
1, 481289, Note_off_c, 4, 59, 100
1, 481290, Note_on_c, 1, 77, 115
1, 481290, Note_on_c, 4, 60, 127
1, 481295, Note_off_c, 1, 74, 100
1, 481355, Note_on_c, 1, 75, 115
1, 481358, Note_off_c, 1, 77, 100
1, 481422, Note_off_c, 4, 60, 100
1, 481422, Note_on_c, 4, 62, 127
1, 481494, Note_off_c, 1, 75, 100
1, 481494, Note_on_c, 3, 71, 122
1, 481552, Note_off_c, 3, 67, 100
1, 481558, Note_off_c, 4, 62, 100
1, 481559, Note_on_c, 3, 67, 127
1, 481559, Note_on_c, 1, 74, 117
1, 481560, Note_on_c, 4, 63, 127
1, 481564, Note_off_c, 3, 71, 100
1, 481624, Note_on_c, 1, 72, 119
1, 481628, Note_off_c, 1, 74, 100
1, 481692, Note_off_c, 4, 63, 100
1, 481692, Note_on_c, 1, 75, 115
1, 481692, Note_on_c, 4, 59, 127
1, 481696, Note_off_c, 1, 72, 100
1, 481760, Note_on_c, 1, 74, 117
1, 481765, Note_off_c, 1, 75, 100
1, 481825, Note_off_c, 3, 67, 100
1, 481831, Note_off_c, 4, 59, 100
1, 481831, Note_on_c, 1, 77, 115
1, 481832, Note_on_c, 4, 60, 127
1, 481832, Note_on_c, 3, 67, 127
1, 481836, Note_off_c, 1, 74, 100
1, 481900, Note_on_c, 1, 75, 115
1, 481906, Note_off_c, 1, 77, 100
1, 481971, Note_on_c, 1, 77, 115
1, 481977, Note_off_c, 1, 75, 100
1, 482042, Note_on_c, 1, 76, 112
1, 482048, Note_off_c, 1, 77, 100
1, 482115, Note_on_c, 1, 77, 115
1, 482121, Note_off_c, 1, 76, 100
1, 482320, Note_on_c, 1, 74, 117
1, 482326, Note_off_c, 1, 77, 100
1, 482388, Note_off_c, 3, 67, 100
1, 482388, Note_off_c, 4, 60, 100
1, 482389, Note_on_c, 4, 65, 127
1, 482389, Note_on_c, 3, 70, 121
1, 482390, Note_on_c, 4, 62, 127
1, 482392, Note_off_c, 1, 74, 100
1, 482517, Note_off_c, 3, 70, 100
1, 482521, Note_on_c, 3, 70, 121
1, 482653, Note_off_c, 3, 70, 100
1, 482657, Note_off_c, 4, 62, 100
1, 482658, Note_off_c, 4, 65, 100
1, 482658, Note_on_c, 1, 75, 115
1, 482659, Note_on_c, 4, 60, 127
1, 482659, Note_on_c, 3, 69, 126
1, 482794, Note_off_c, 1, 75, 100
1, 482795, Note_on_c, 1, 79, 111
1, 482929, Note_off_c, 3, 69, 100
1, 482937, Note_off_c, 1, 79, 100
1, 482938, Note_off_c, 4, 60, 100
1, 482938, Note_on_c, 3, 66, 127
1, 482938, Note_on_c, 3, 69, 126
1, 482939, Note_on_c, 4, 63, 127
1, 483137, Note_off_c, 3, 69, 100
1, 483143, Note_on_c, 3, 69, 126
1, 483201, Note_off_c, 4, 63, 100
1, 483202, Note_off_c, 3, 66, 100
1, 483206, Note_on_c, 4, 65, 127
1, 483206, Note_on_c, 1, 72, 119
1, 483207, Note_on_c, 4, 61, 127
1, 483212, Note_off_c, 3, 69, 100
1, 483275, Note_on_c, 3, 70, 121
1, 483281, Note_off_c, 1, 72, 100
1, 483342, Note_off_c, 4, 61, 100
1, 483343, Note_on_c, 4, 57, 127
1, 483343, Note_on_c, 1, 73, 122
1, 483348, Note_off_c, 3, 70, 100
1, 483408, Note_on_c, 1, 72, 119
1, 483413, Note_off_c, 1, 73, 100
1, 483477, Note_off_c, 4, 57, 100
1, 483477, Note_on_c, 1, 75, 115
1, 483478, Note_on_c, 4, 58, 127
1, 483481, Note_off_c, 1, 72, 100
1, 483543, Note_on_c, 1, 73, 122
1, 483547, Note_off_c, 1, 75, 100
1, 483610, Note_off_c, 4, 58, 100
1, 483611, Note_on_c, 4, 60, 127
1, 483680, Note_off_c, 1, 73, 100
1, 483681, Note_on_c, 3, 69, 126
1, 483739, Note_off_c, 4, 65, 100
1, 483744, Note_off_c, 4, 60, 100
1, 483745, Note_on_c, 4, 65, 127
1, 483745, Note_on_c, 1, 72, 119
1, 483746, Note_on_c, 4, 61, 127
1, 483750, Note_off_c, 3, 69, 100
1, 483812, Note_on_c, 3, 70, 121
1, 483818, Note_off_c, 1, 72, 100
1, 483880, Note_off_c, 4, 61, 100
1, 483880, Note_on_c, 1, 73, 122
1, 483881, Note_on_c, 4, 57, 127
1, 483885, Note_off_c, 3, 70, 100
1, 483945, Note_on_c, 1, 72, 119
1, 483951, Note_off_c, 1, 73, 100
1, 484007, Note_off_c, 4, 65, 100
1, 484012, Note_off_c, 4, 57, 100
1, 484013, Note_on_c, 1, 75, 115
1, 484013, Note_on_c, 4, 65, 127
1, 484014, Note_on_c, 4, 58, 127
1, 484018, Note_off_c, 1, 72, 100
1, 484076, Note_on_c, 1, 73, 122
1, 484080, Note_off_c, 1, 75, 100
1, 484138, Note_off_c, 4, 58, 100
1, 484139, Note_off_c, 4, 65, 100
1, 484143, Note_on_c, 4, 65, 127
1, 484143, Note_on_c, 4, 58, 127
1, 484207, Note_off_c, 1, 73, 100
1, 484211, Note_on_c, 1, 73, 122
1, 484274, Note_off_c, 4, 65, 100
1, 484278, Note_off_c, 4, 58, 100
1, 484279, Note_on_c, 4, 65, 127
1, 484279, Note_on_c, 1, 73, 122
1, 484280, Note_on_c, 4, 56, 127
1, 484284, Note_off_c, 1, 73, 100
1, 484345, Note_on_c, 3, 71, 122
1, 484351, Note_off_c, 1, 73, 100
1, 484476, Note_off_c, 3, 71, 100
1, 484480, Note_on_c, 3, 71, 122
1, 484549, Note_off_c, 4, 65, 100
1, 484549, Note_off_c, 4, 56, 100
1, 484550, Note_on_c, 4, 61, 127
1, 484550, Note_on_c, 3, 71, 122
1, 484551, Note_on_c, 4, 54, 127
1, 484554, Note_off_c, 3, 71, 100
1, 484615, Note_on_c, 3, 70, 121
1, 484623, Note_off_c, 3, 71, 100
1, 484748, Note_off_c, 3, 70, 100
1, 484752, Note_on_c, 3, 70, 121
1, 484811, Note_off_c, 3, 70, 100
1, 484815, Note_on_c, 3, 70, 121
1, 484880, Note_on_c, 1, 80, 111
1, 484886, Note_off_c, 3, 70, 100
1, 484947, Note_off_c, 4, 54, 100
1, 484948, Note_off_c, 4, 61, 100
1, 484948, Note_on_c, 4, 62, 127
1, 484949, Note_on_c, 4, 53, 127
1, 485011, Note_off_c, 1, 80, 100
1, 485015, Note_on_c, 1, 80, 111
1, 485082, Note_off_c, 1, 80, 100
1, 485086, Note_on_c, 1, 80, 111
1, 485156, Note_on_c, 1, 78, 112
1, 485162, Note_off_c, 1, 80, 100
1, 485221, Note_off_c, 4, 53, 100
1, 485222, Note_off_c, 4, 62, 100
1, 485222, Note_on_c, 4, 63, 127
1, 485223, Note_on_c, 4, 51, 127
1, 485286, Note_off_c, 1, 78, 100
1, 485290, Note_on_c, 1, 78, 112
1, 485353, Note_off_c, 1, 78, 100
1, 485358, Note_on_c, 1, 78, 112
1, 485431, Note_on_c, 1, 77, 115
1, 485436, Note_off_c, 1, 78, 100
1, 485498, Note_off_c, 4, 63, 100
1, 485498, Note_off_c, 4, 51, 100
1, 485499, Note_on_c, 4, 53, 127
1, 485499, Note_on_c, 4, 61, 127
1, 485561, Note_off_c, 1, 77, 100
1, 485565, Note_on_c, 1, 77, 115
1, 485631, Note_off_c, 1, 77, 100
1, 485633, Note_on_c, 1, 77, 115
1, 485699, Note_on_c, 1, 76, 112
1, 485702, Note_off_c, 1, 77, 100
1, 485756, Note_off_c, 4, 61, 100
1, 485762, Note_off_c, 4, 53, 100
1, 485762, Note_on_c, 4, 61, 127
1, 485763, Note_on_c, 4, 54, 127
1, 485825, Note_off_c, 1, 76, 100
1, 485829, Note_on_c, 1, 76, 112
1, 485889, Note_off_c, 4, 54, 100
1, 485889, Note_off_c, 4, 61, 100
1, 485893, Note_on_c, 1, 82, 111
1, 485894, Note_on_c, 4, 54, 127
1, 485894, Note_on_c, 4, 64, 127
1, 485899, Note_off_c, 1, 76, 100
1, 486036, Note_off_c, 1, 82, 100
1, 486036, Note_on_c, 1, 84, 116
1, 486058, Note_on_c, 1, 82, 111
1, 486060, Note_off_c, 1, 84, 100
1, 486079, Note_on_c, 1, 81, 111
1, 486081, Note_off_c, 1, 82, 100
1, 486098, Note_on_c, 1, 82, 111
1, 486100, Note_off_c, 1, 81, 100
1, 486115, Note_on_c, 1, 84, 116
1, 486117, Note_off_c, 1, 82, 100
1, 486179, Note_off_c, 4, 64, 100
1, 486184, Note_off_c, 1, 84, 100
1, 486185, Note_on_c, 4, 58, 127
1, 486185, Note_on_c, 1, 85, 116
1, 486327, Note_off_c, 1, 85, 100
1, 486328, Note_on_c, 1, 76, 112
1, 486463, Note_off_c, 4, 58, 100
1, 486463, Note_off_c, 4, 54, 100
1, 486469, Note_off_c, 1, 76, 100
1, 486470, Note_on_c, 4, 57, 127
1, 486470, Note_on_c, 1, 77, 115
1, 486471, Note_on_c, 4, 53, 127
1, 486542, Note_on_c, 1, 76, 112
1, 486548, Note_off_c, 1, 77, 100
1, 486608, Note_on_c, 1, 77, 115
1, 486612, Note_off_c, 1, 76, 100
1, 486674, Note_on_c, 1, 72, 119
1, 486680, Note_off_c, 1, 77, 100
1, 486740, Note_off_c, 4, 57, 100
1, 486740, Note_on_c, 1, 75, 115
1, 486741, Note_on_c, 4, 58, 127
1, 486743, Note_off_c, 1, 72, 100
1, 486801, Note_on_c, 1, 73, 122
1, 486806, Note_off_c, 1, 75, 100
1, 486866, Note_on_c, 1, 72, 119
1, 486872, Note_off_c, 1, 73, 100
1, 486930, Note_on_c, 3, 70, 121
1, 486934, Note_off_c, 1, 72, 100
1, 486986, Note_off_c, 4, 53, 100
1, 486992, Note_off_c, 4, 58, 100
1, 486992, Note_on_c, 1, 78, 112
1, 486993, Note_on_c, 4, 53, 127
1, 486993, Note_on_c, 4, 57, 127
1, 486998, Note_off_c, 3, 70, 100
1, 487059, Note_on_c, 1, 77, 115
1, 487065, Note_off_c, 1, 78, 100
1, 487124, Note_on_c, 1, 76, 112
1, 487130, Note_off_c, 1, 77, 100
1, 487190, Note_on_c, 1, 77, 115
1, 487196, Note_off_c, 1, 76, 100
1, 487257, Note_off_c, 4, 57, 100
1, 487258, Note_on_c, 4, 58, 127
1, 487258, Note_on_c, 1, 75, 115
1, 487261, Note_off_c, 1, 77, 100
1, 487321, Note_on_c, 1, 73, 122
1, 487327, Note_off_c, 1, 75, 100
1, 487389, Note_on_c, 1, 72, 119
1, 487392, Note_off_c, 1, 73, 100
1, 487452, Note_on_c, 3, 70, 121
1, 487456, Note_off_c, 1, 72, 100
1, 487518, Note_off_c, 4, 58, 100
1, 487519, Note_on_c, 0, 72, 119
1, 487519, Note_on_c, 3, 69, 126
1, 487520, Note_on_c, 4, 65, 127
1, 487525, Note_off_c, 3, 70, 100
1, 487587, Note_off_c, 4, 65, 100
1, 487589, Note_on_c, 4, 65, 127
1, 487656, Note_off_c, 3, 69, 100
1, 487657, Note_off_c, 0, 72, 100
1, 487657, Note_on_c, 3, 70, 121
1, 487657, Note_on_c, 0, 73, 122
1, 487719, Note_off_c, 4, 65, 100
1, 487724, Note_on_c, 4, 65, 127
1, 487787, Note_off_c, 4, 65, 100
1, 487789, Note_off_c, 0, 73, 100
1, 487789, Note_off_c, 3, 70, 100
1, 487790, Note_on_c, 0, 72, 119
1, 487790, Note_on_c, 3, 69, 126
1, 487791, Note_on_c, 4, 65, 127
1, 487850, Note_off_c, 4, 65, 100
1, 487852, Note_on_c, 4, 65, 127
1, 487918, Note_off_c, 3, 69, 100
1, 487918, Note_off_c, 0, 72, 100
1, 487919, Note_on_c, 3, 70, 121
1, 487919, Note_on_c, 0, 76, 112
1, 487979, Note_off_c, 4, 65, 100
1, 487983, Note_on_c, 4, 65, 127
1, 488046, Note_off_c, 4, 65, 100
1, 488050, Note_off_c, 3, 70, 100
1, 488051, Note_off_c, 0, 76, 100
1, 488051, Note_on_c, 0, 77, 119
1, 488052, Note_on_c, 3, 69, 126
1, 488052, Note_on_c, 4, 65, 127
1, 488115, Note_off_c, 4, 65, 100
1, 488117, Note_on_c, 4, 65, 127
1, 488186, Note_off_c, 3, 69, 100
1, 488187, Note_off_c, 0, 77, 100
1, 488187, Note_on_c, 0, 73, 126
1, 488188, Note_on_c, 3, 70, 121
1, 488250, Note_off_c, 4, 65, 100
1, 488254, Note_on_c, 4, 65, 127
1, 488317, Note_off_c, 4, 65, 100
1, 488319, Note_off_c, 3, 70, 100
1, 488319, Note_off_c, 0, 73, 100
1, 488320, Note_on_c, 3, 69, 126
1, 488320, Note_on_c, 0, 72, 123
1, 488321, Note_on_c, 4, 65, 127
1, 488381, Note_off_c, 4, 65, 100
1, 488383, Note_on_c, 4, 65, 127
1, 488448, Note_off_c, 3, 69, 100
1, 488449, Note_off_c, 0, 72, 100
1, 488449, Note_on_c, 0, 76, 116
1, 488450, Note_on_c, 3, 70, 121
1, 488514, Note_off_c, 4, 65, 100
1, 488516, Note_on_c, 4, 65, 127
1, 488560, Note_off_c, 4, 53, 100
1, 488579, Note_off_c, 4, 65, 100
1, 488581, Note_off_c, 3, 70, 100
1, 488581, Note_off_c, 0, 76, 100
1, 488582, Note_on_c, 3, 69, 126
1, 488582, Note_on_c, 0, 77, 119
1, 488583, Note_on_c, 4, 65, 127
1, 488583, Note_on_c, 4, 53, 127
1, 488649, Note_off_c, 0, 77, 100
1, 488651, Note_on_c, 0, 77, 119
1, 488717, Note_off_c, 4, 53, 100
1, 488719, Note_on_c, 4, 57, 127
1, 488720, Note_on_c, 4, 53, 127
1, 488785, Note_off_c, 0, 77, 100
1, 488789, Note_on_c, 0, 77, 119
1, 488856, Note_off_c, 0, 77, 100
1, 488858, Note_on_c, 0, 77, 119
1, 488922, Note_off_c, 0, 77, 100
1, 488926, Note_on_c, 0, 77, 119
1, 488988, Note_off_c, 4, 57, 100
1, 488988, Note_off_c, 4, 53, 100
1, 488995, Note_on_c, 4, 53, 127
1, 488995, Note_on_c, 4, 57, 127
1, 489057, Note_off_c, 0, 77, 100
1, 489059, Note_on_c, 0, 77, 119
1, 489122, Note_off_c, 4, 53, 100
1, 489123, Note_off_c, 0, 77, 100
1, 489123, Note_off_c, 4, 57, 100
1, 489125, Note_off_c, 4, 65, 100
1, 489126, Note_off_c, 3, 69, 100
1, 489126, Note_on_c, 0, 77, 119
1, 489127, Note_on_c, 4, 58, 127
1, 489127, Note_on_c, 4, 55, 127
1, 489128, Note_on_c, 4, 53, 127
1, 489195, Note_off_c, 0, 77, 100
1, 489197, Note_on_c, 0, 77, 119
1, 489263, Note_off_c, 4, 53, 100
1, 489263, Note_off_c, 4, 55, 100
1, 489264, Note_off_c, 4, 58, 100
1, 489265, Note_on_c, 4, 58, 127
1, 489266, Note_on_c, 4, 53, 127
1, 489266, Note_on_c, 4, 55, 127
1, 489332, Note_off_c, 0, 77, 100
1, 489336, Note_on_c, 0, 77, 119
1, 489399, Note_off_c, 0, 77, 100
1, 489403, Note_on_c, 0, 77, 119
1, 489469, Note_off_c, 0, 77, 100
1, 489473, Note_on_c, 0, 77, 119
1, 489534, Note_off_c, 4, 53, 100
1, 489535, Note_off_c, 4, 58, 100
1, 489535, Note_off_c, 4, 55, 100
1, 489541, Note_on_c, 4, 56, 127
1, 489541, Note_on_c, 4, 59, 127
1, 489542, Note_on_c, 4, 53, 127
1, 489605, Note_off_c, 0, 77, 100
1, 489609, Note_on_c, 0, 77, 119
1, 489671, Note_off_c, 4, 56, 100
1, 489671, Note_off_c, 4, 53, 100
1, 489672, Note_off_c, 0, 77, 100
1, 489672, Note_off_c, 4, 59, 100
1, 489674, Note_on_c, 0, 77, 119
1, 489675, Note_on_c, 4, 60, 127
1, 489675, Note_on_c, 4, 57, 127
1, 489676, Note_on_c, 4, 53, 127
1, 489744, Note_off_c, 0, 77, 100
1, 489747, Note_on_c, 0, 77, 119
1, 489813, Note_off_c, 4, 57, 100
1, 489813, Note_off_c, 4, 60, 100
1, 489816, Note_on_c, 4, 57, 127
1, 489816, Note_on_c, 4, 61, 127
1, 489884, Note_off_c, 0, 77, 100
1, 489888, Note_on_c, 0, 77, 119
1, 489951, Note_off_c, 4, 53, 100
1, 489953, Note_off_c, 4, 61, 100
1, 489953, Note_off_c, 4, 57, 100
1, 489954, Note_off_c, 0, 77, 100
1, 489956, Note_on_c, 0, 77, 119
1, 489957, Note_on_c, 4, 58, 127
1, 489957, Note_on_c, 4, 62, 127
1, 489958, Note_on_c, 4, 53, 127
1, 490021, Note_off_c, 0, 77, 100
1, 490025, Note_on_c, 0, 77, 119
1, 490086, Note_off_c, 4, 58, 100
1, 490087, Note_off_c, 4, 62, 100
1, 490090, Note_on_c, 4, 62, 127
1, 490090, Note_on_c, 4, 58, 127
1, 490155, Note_off_c, 0, 77, 100
1, 490160, Note_on_c, 0, 77, 119
1, 490221, Note_off_c, 0, 77, 100
1, 490221, Note_off_c, 4, 53, 100
1, 490224, Note_off_c, 4, 58, 100
1, 490224, Note_off_c, 4, 62, 100
1, 490227, Note_on_c, 4, 63, 127
1, 490227, Note_on_c, 0, 77, 119
1, 490228, Note_on_c, 4, 53, 127
1, 490228, Note_on_c, 4, 60, 127
1, 490301, Note_on_c, 4, 65, 127
1, 490370, Note_on_c, 4, 64, 127
1, 490376, Note_off_c, 4, 65, 100
1, 490439, Note_on_c, 4, 65, 127
1, 490445, Note_off_c, 4, 64, 100
1, 490510, Note_on_c, 3, 66, 127
1, 490516, Note_off_c, 4, 65, 100
1, 490579, Note_on_c, 3, 67, 127
1, 490585, Note_off_c, 3, 66, 100
1, 490646, Note_on_c, 3, 68, 126
1, 490652, Note_off_c, 3, 67, 100
1, 490714, Note_on_c, 3, 69, 126
1, 490719, Note_off_c, 3, 68, 100
1, 490781, Note_off_c, 0, 77, 100
1, 490781, Note_on_c, 3, 70, 121
1, 490786, Note_off_c, 3, 69, 100
1, 490851, Note_on_c, 3, 71, 122
1, 490857, Note_off_c, 3, 70, 100
1, 490918, Note_on_c, 1, 72, 119
1, 490926, Note_off_c, 3, 71, 100
1, 490989, Note_on_c, 1, 73, 122
1, 490993, Note_off_c, 1, 72, 100
1, 491058, Note_on_c, 1, 74, 117
1, 491064, Note_off_c, 1, 73, 100
1, 491125, Note_on_c, 1, 75, 115
1, 491131, Note_off_c, 1, 74, 100
1, 491193, Note_on_c, 1, 76, 112
1, 491198, Note_off_c, 1, 75, 100
1, 491260, Note_on_c, 1, 77, 115
1, 491266, Note_off_c, 1, 76, 100
1, 491321, Note_off_c, 1, 77, 100
1, 491326, Note_on_c, 1, 77, 115
1, 491436, Note_off_c, 4, 63, 100
1, 491436, Note_off_c, 4, 60, 100
1, 491436, Note_off_c, 4, 53, 100
1, 491473, Note_on_c, 4, 58, 127
1, 491546, Note_off_c, 1, 77, 100
1, 491546, Note_on_c, 1, 74, 117
1, 491620, Note_off_c, 4, 58, 100
1, 491620, Note_on_c, 3, 70, 121
1, 491621, Note_on_c, 4, 62, 127
1, 491625, Note_off_c, 1, 74, 100
1, 491761, Note_off_c, 3, 70, 100
1, 491767, Note_off_c, 4, 62, 100
1, 491768, Note_on_c, 3, 70, 121
1, 491768, Note_on_c, 3, 67, 127
1, 491911, Note_off_c, 3, 67, 100
1, 491911, Note_off_c, 3, 70, 100
1, 491912, Note_on_c, 4, 60, 127
1, 491912, Note_on_c, 1, 75, 115
1, 492055, Note_off_c, 1, 75, 100
1, 492055, Note_off_c, 4, 60, 100
1, 492056, Note_on_c, 1, 79, 111
1, 492056, Note_on_c, 4, 63, 127
1, 492199, Note_off_c, 4, 63, 100
1, 492200, Note_off_c, 1, 79, 100
1, 492200, Note_on_c, 3, 69, 126
1, 492201, Note_on_c, 4, 65, 127
1, 492343, Note_off_c, 4, 65, 100
1, 492344, Note_off_c, 3, 69, 100
1, 492344, Note_on_c, 4, 63, 127
1, 492413, Note_on_c, 3, 69, 126
1, 492480, Note_off_c, 4, 63, 100
1, 492481, Note_on_c, 1, 72, 119
1, 492481, Note_on_c, 4, 62, 127
1, 492486, Note_off_c, 3, 69, 100
1, 492552, Note_on_c, 3, 70, 121
1, 492556, Note_off_c, 1, 72, 100
1, 492621, Note_off_c, 4, 62, 100
1, 492621, Note_on_c, 1, 74, 117
1, 492622, Note_on_c, 4, 57, 127
1, 492626, Note_off_c, 3, 70, 100
1, 492687, Note_on_c, 1, 72, 119
1, 492694, Note_off_c, 1, 74, 100
1, 492757, Note_off_c, 4, 57, 100
1, 492757, Note_on_c, 1, 75, 115
1, 492758, Note_on_c, 4, 58, 127
1, 492762, Note_off_c, 1, 72, 100
1, 492826, Note_on_c, 1, 74, 117
1, 492832, Note_off_c, 1, 75, 100
1, 492898, Note_off_c, 4, 58, 100
1, 492899, Note_on_c, 4, 60, 127
1, 492899, Note_on_c, 1, 77, 115
1, 492900, Note_on_c, 4, 51, 127
1, 492904, Note_off_c, 1, 74, 100
1, 492969, Note_on_c, 1, 75, 115
1, 492975, Note_off_c, 1, 77, 100
1, 493038, Note_off_c, 4, 51, 100
1, 493039, Note_off_c, 4, 60, 100
1, 493039, Note_on_c, 1, 74, 117
1, 493040, Note_on_c, 4, 53, 127
1, 493040, Note_on_c, 4, 58, 127
1, 493044, Note_off_c, 1, 75, 100
1, 493247, Note_off_c, 1, 74, 100
1, 493252, Note_on_c, 1, 75, 115
1, 493289, Note_on_c, 1, 74, 117
1, 493293, Note_off_c, 1, 75, 100
1, 493318, Note_off_c, 4, 53, 100
1, 493325, Note_off_c, 4, 58, 100
1, 493326, Note_on_c, 4, 57, 127
1, 493326, Note_on_c, 1, 72, 119
1, 493327, Note_off_c, 1, 74, 100
1, 493327, Note_on_c, 4, 53, 127
1, 493396, Note_on_c, 1, 74, 117
1, 493402, Note_off_c, 1, 72, 100
1, 493471, Note_on_c, 1, 75, 115
1, 493477, Note_off_c, 1, 74, 100
1, 493542, Note_on_c, 1, 76, 112
1, 493548, Note_off_c, 1, 75, 100
1, 493613, Note_on_c, 1, 77, 115
1, 493619, Note_off_c, 1, 76, 100
1, 493755, Note_off_c, 4, 53, 100
1, 493756, Note_off_c, 4, 57, 100
1, 493756, Note_on_c, 4, 58, 127
1, 493779, Note_off_c, 1, 77, 100
1, 493793, Note_on_c, 1, 75, 115
1, 493829, Note_on_c, 1, 74, 117
1, 493833, Note_off_c, 1, 75, 100
1, 493867, Note_on_c, 1, 72, 119
1, 493871, Note_off_c, 1, 74, 100
1, 493905, Note_off_c, 4, 58, 100
1, 493906, Note_on_c, 4, 62, 127
1, 493906, Note_on_c, 3, 70, 121
1, 493908, Note_off_c, 1, 72, 100
1, 494046, Note_off_c, 3, 70, 100
1, 494052, Note_off_c, 4, 62, 100
1, 494052, Note_on_c, 3, 70, 121
1, 494053, Note_on_c, 3, 67, 127
1, 494195, Note_off_c, 3, 67, 100
1, 494196, Note_off_c, 3, 70, 100
1, 494196, Note_on_c, 1, 75, 115
1, 494196, Note_on_c, 4, 60, 127
1, 494341, Note_off_c, 4, 60, 100
1, 494341, Note_off_c, 1, 75, 100
1, 494342, Note_on_c, 4, 63, 127
1, 494342, Note_on_c, 1, 79, 111
1, 494487, Note_off_c, 4, 63, 100
1, 494488, Note_off_c, 1, 79, 100
1, 494488, Note_on_c, 3, 69, 126
1, 494488, Note_on_c, 4, 65, 127
1, 494631, Note_off_c, 4, 65, 100
1, 494631, Note_off_c, 3, 69, 100
1, 494632, Note_on_c, 4, 63, 127
1, 494701, Note_on_c, 3, 69, 126
1, 494771, Note_off_c, 4, 63, 100
1, 494772, Note_on_c, 4, 62, 127
1, 494772, Note_on_c, 3, 70, 121
1, 494778, Note_off_c, 3, 69, 100
1, 494845, Note_on_c, 1, 74, 117
1, 494851, Note_off_c, 3, 70, 100
1, 494916, Note_off_c, 4, 62, 100
1, 494917, Note_on_c, 3, 67, 127
1, 494917, Note_on_c, 4, 63, 127
1, 494918, Note_on_c, 4, 51, 127
1, 494922, Note_off_c, 1, 74, 100
1, 494989, Note_on_c, 1, 72, 119
1, 494995, Note_off_c, 3, 67, 100
1, 495059, Note_off_c, 4, 51, 100
1, 495059, Note_off_c, 4, 63, 100
1, 495060, Note_on_c, 4, 53, 127
1, 495060, Note_on_c, 4, 62, 127
1, 495060, Note_on_c, 3, 70, 121
1, 495063, Note_off_c, 1, 72, 100
1, 495199, Note_off_c, 4, 62, 100
1, 495199, Note_off_c, 4, 53, 100
1, 495200, Note_off_c, 3, 70, 100
1, 495200, Note_on_c, 3, 69, 126
1, 495201, Note_on_c, 4, 60, 127
1, 495338, Note_off_c, 4, 60, 100
1, 495338, Note_off_c, 3, 69, 100
1, 495339, Note_on_c, 4, 58, 127
1, 495339, Note_on_c, 3, 70, 121
1, 495411, Note_on_c, 4, 65, 127
1, 495417, Note_off_c, 3, 70, 100
1, 495484, Note_on_c, 3, 67, 127
1, 495490, Note_off_c, 4, 65, 100
1, 495555, Note_on_c, 3, 69, 126
1, 495561, Note_off_c, 3, 67, 100
1, 495624, Note_on_c, 3, 70, 121
1, 495630, Note_off_c, 3, 69, 100
1, 495697, Note_on_c, 1, 72, 119
1, 495703, Note_off_c, 3, 70, 100
1, 495766, Note_on_c, 1, 74, 117
1, 495772, Note_off_c, 1, 72, 100
1, 495837, Note_on_c, 1, 75, 115
1, 495843, Note_off_c, 1, 74, 100
1, 495900, Note_off_c, 4, 58, 100
1, 495906, Note_on_c, 1, 77, 115
1, 495907, Note_on_c, 4, 58, 127
1, 495911, Note_off_c, 1, 75, 100
1, 495976, Note_on_c, 4, 65, 127
1, 496047, Note_on_c, 4, 62, 127
1, 496053, Note_off_c, 4, 65, 100
1, 496118, Note_off_c, 1, 77, 100
1, 496119, Note_on_c, 1, 74, 117
1, 496119, Note_on_c, 4, 65, 127
1, 496125, Note_off_c, 4, 62, 100
1, 496190, Note_off_c, 4, 58, 100
1, 496191, Note_on_c, 4, 55, 127
1, 496191, Note_on_c, 3, 70, 121
1, 496197, Note_off_c, 4, 65, 100
1, 496198, Note_off_c, 1, 74, 100
1, 496261, Note_on_c, 4, 62, 127
1, 496329, Note_off_c, 3, 70, 100
1, 496332, Note_on_c, 3, 70, 121
1, 496333, Note_on_c, 4, 58, 127
1, 496340, Note_off_c, 4, 62, 100
1, 496405, Note_on_c, 4, 62, 127
1, 496411, Note_off_c, 4, 58, 100
1, 496477, Note_off_c, 3, 70, 100
1, 496477, Note_off_c, 4, 55, 100
1, 496477, Note_on_c, 1, 75, 115
1, 496478, Note_on_c, 4, 51, 127
1, 496482, Note_off_c, 4, 62, 100
1, 496516, Note_off_c, 1, 75, 100
1, 496530, Note_on_c, 1, 77, 115
1, 496544, Note_off_c, 1, 77, 100
1, 496553, Note_on_c, 1, 75, 110
1, 496558, Note_on_c, 4, 60, 127
1, 496562, Note_off_c, 1, 75, 100
1, 496571, Note_on_c, 1, 74, 112
1, 496580, Note_off_c, 1, 74, 100
1, 496597, Note_on_c, 1, 75, 110
1, 496624, Note_on_c, 1, 79, 111
1, 496624, Note_on_c, 4, 55, 127
1, 496630, Note_off_c, 4, 60, 100
1, 496640, Note_off_c, 1, 75, 100
1, 496697, Note_on_c, 4, 60, 127
1, 496703, Note_off_c, 4, 55, 100
1, 496768, Note_off_c, 1, 79, 100
1, 496769, Note_off_c, 4, 51, 100
1, 496769, Note_on_c, 3, 69, 126
1, 496770, Note_on_c, 4, 53, 127
1, 496774, Note_off_c, 4, 60, 100
1, 496841, Note_on_c, 4, 63, 127
1, 496913, Note_on_c, 4, 60, 127
1, 496920, Note_off_c, 4, 63, 100
1, 496980, Note_off_c, 3, 69, 100
1, 496986, Note_on_c, 4, 63, 127
1, 496986, Note_on_c, 3, 69, 126
1, 496992, Note_off_c, 4, 60, 100
1, 497054, Note_off_c, 4, 53, 100
1, 497054, Note_on_c, 1, 72, 119
1, 497055, Note_on_c, 4, 62, 127
1, 497061, Note_off_c, 3, 69, 100
1, 497061, Note_off_c, 4, 63, 100
1, 497125, Note_on_c, 3, 70, 121
1, 497131, Note_off_c, 1, 72, 100
1, 497191, Note_off_c, 4, 62, 100
1, 497192, Note_on_c, 4, 65, 127
1, 497192, Note_on_c, 1, 74, 117
1, 497193, Note_on_c, 4, 57, 127
1, 497197, Note_off_c, 3, 70, 100
1, 497262, Note_on_c, 1, 72, 119
1, 497267, Note_off_c, 1, 74, 100
1, 497330, Note_off_c, 4, 57, 100
1, 497331, Note_on_c, 1, 75, 115
1, 497331, Note_on_c, 4, 58, 127
1, 497337, Note_off_c, 1, 72, 100
1, 497402, Note_on_c, 1, 74, 117
1, 497408, Note_off_c, 1, 75, 100
1, 497472, Note_off_c, 4, 58, 100
1, 497472, Note_on_c, 4, 60, 127
1, 497472, Note_on_c, 1, 77, 115
1, 497473, Note_on_c, 4, 51, 127
1, 497477, Note_off_c, 1, 74, 100
1, 497544, Note_on_c, 1, 75, 115
1, 497550, Note_off_c, 1, 77, 100
1, 497616, Note_off_c, 4, 65, 100
1, 497616, Note_off_c, 4, 60, 100
1, 497616, Note_off_c, 4, 51, 100
1, 497617, Note_on_c, 4, 58, 127
1, 497617, Note_on_c, 1, 74, 117
1, 497618, Note_on_c, 4, 53, 127
1, 497620, Note_off_c, 1, 75, 100
1, 497826, Note_off_c, 1, 74, 100
1, 497832, Note_on_c, 1, 75, 115
1, 497868, Note_on_c, 1, 74, 117
1, 497872, Note_off_c, 1, 75, 100
1, 497899, Note_off_c, 4, 53, 100
1, 497904, Note_off_c, 4, 58, 100
1, 497905, Note_on_c, 4, 57, 127
1, 497905, Note_on_c, 1, 72, 119
1, 497906, Note_on_c, 4, 53, 127
1, 497908, Note_off_c, 1, 74, 100
1, 497977, Note_on_c, 1, 74, 117
1, 497983, Note_off_c, 1, 72, 100
1, 498048, Note_on_c, 1, 75, 115
1, 498054, Note_off_c, 1, 74, 100
1, 498120, Note_on_c, 1, 76, 112
1, 498125, Note_off_c, 1, 75, 100
1, 498189, Note_off_c, 4, 57, 100
1, 498189, Note_off_c, 4, 53, 100
1, 498190, Note_on_c, 4, 58, 127
1, 498190, Note_on_c, 1, 77, 115
1, 498194, Note_off_c, 1, 76, 100
1, 498262, Note_on_c, 4, 65, 127
1, 498336, Note_on_c, 4, 62, 127
1, 498342, Note_off_c, 4, 65, 100
1, 498360, Note_off_c, 1, 77, 100
1, 498373, Note_on_c, 1, 75, 115
1, 498409, Note_on_c, 1, 74, 117
1, 498410, Note_on_c, 4, 65, 127
1, 498412, Note_off_c, 1, 75, 100
1, 498414, Note_off_c, 4, 62, 100
1, 498445, Note_on_c, 1, 72, 119
1, 498449, Note_off_c, 1, 74, 100
1, 498481, Note_off_c, 4, 58, 100
1, 498482, Note_on_c, 4, 55, 127
1, 498482, Note_on_c, 3, 70, 121
1, 498484, Note_off_c, 1, 72, 100
1, 498488, Note_off_c, 4, 65, 100
1, 498550, Note_off_c, 3, 70, 100
1, 498555, Note_on_c, 3, 70, 121
1, 498556, Note_on_c, 4, 62, 127
1, 498624, Note_off_c, 3, 70, 100
1, 498629, Note_on_c, 3, 70, 121
1, 498630, Note_on_c, 4, 58, 127
1, 498636, Note_off_c, 4, 62, 100
1, 498697, Note_off_c, 3, 70, 100
1, 498703, Note_on_c, 3, 70, 121
1, 498704, Note_on_c, 4, 62, 127
1, 498708, Note_off_c, 4, 58, 100
1, 498775, Note_off_c, 4, 55, 100
1, 498776, Note_on_c, 4, 51, 127
1, 498776, Note_on_c, 1, 75, 110
1, 498780, Note_off_c, 4, 62, 100
1, 498781, Note_off_c, 3, 70, 100
1, 498829, Note_off_c, 1, 75, 100
1, 498849, Note_on_c, 1, 77, 110
1, 498849, Note_on_c, 4, 60, 127
1, 498859, Note_off_c, 1, 77, 100
1, 498872, Note_on_c, 1, 75, 110
1, 498880, Note_off_c, 1, 75, 100
1, 498891, Note_on_c, 1, 74, 112
1, 498898, Note_off_c, 1, 74, 100
1, 498902, Note_on_c, 1, 75, 110
1, 498925, Note_on_c, 4, 55, 127
1, 498925, Note_on_c, 1, 79, 106
1, 498930, Note_off_c, 4, 60, 100
1, 498939, Note_off_c, 1, 75, 100
1, 498995, Note_on_c, 4, 60, 127
1, 499001, Note_off_c, 4, 55, 100
1, 499067, Note_off_c, 4, 51, 100
1, 499067, Note_off_c, 1, 79, 100
1, 499067, Note_on_c, 3, 69, 126
1, 499068, Note_on_c, 4, 53, 127
1, 499072, Note_off_c, 4, 60, 100
1, 499139, Note_on_c, 4, 63, 127
1, 499211, Note_on_c, 4, 60, 127
1, 499216, Note_off_c, 4, 63, 100
1, 499283, Note_on_c, 1, 81, 106
1, 499284, Note_on_c, 4, 63, 127
1, 499288, Note_off_c, 4, 60, 100
1, 499356, Note_off_c, 3, 69, 100
1, 499356, Note_off_c, 4, 53, 100
1, 499356, Note_on_c, 4, 58, 127
1, 499356, Note_on_c, 1, 82, 106
1, 499357, Note_on_c, 4, 50, 127
1, 499361, Note_off_c, 4, 63, 100
1, 499361, Note_off_c, 1, 81, 100
1, 499391, Note_on_c, 1, 77, 110
1, 499433, Note_off_c, 1, 82, 100
1, 499464, Note_on_c, 1, 74, 112
1, 499470, Note_off_c, 1, 77, 100
1, 499494, Note_off_c, 4, 50, 100
1, 499499, Note_on_c, 1, 79, 106
1, 499499, Note_on_c, 4, 51, 127
1, 499536, Note_on_c, 1, 75, 110
1, 499537, Note_off_c, 1, 79, 100
1, 499542, Note_off_c, 1, 74, 100
1, 499607, Note_on_c, 1, 72, 119
1, 499613, Note_off_c, 1, 75, 100
1, 499636, Note_off_c, 4, 51, 100
1, 499642, Note_off_c, 4, 58, 100
1, 499642, Note_on_c, 1, 77, 110
1, 499643, Note_on_c, 4, 53, 127
1, 499643, Note_on_c, 4, 62, 127
1, 499676, Note_on_c, 1, 74, 112
1, 499680, Note_off_c, 1, 77, 100
1, 499682, Note_off_c, 1, 72, 100
1, 499749, Note_on_c, 3, 70, 121
1, 499755, Note_off_c, 1, 74, 100
1, 499779, Note_off_c, 4, 62, 100
1, 499784, Note_on_c, 4, 63, 127
1, 499784, Note_on_c, 1, 75, 115
1, 499819, Note_on_c, 3, 72, 119
1, 499821, Note_off_c, 1, 75, 100
1, 499825, Note_off_c, 3, 70, 100
1, 499890, Note_on_c, 3, 69, 126
1, 499896, Note_off_c, 3, 72, 100
1, 499923, Note_off_c, 4, 53, 100
1, 499923, Note_off_c, 4, 63, 100
1, 499929, Note_on_c, 4, 62, 127
1, 499929, Note_on_c, 4, 53, 127
1, 499930, Note_on_c, 4, 58, 127
1, 499935, Note_off_c, 3, 69, 100
1, 500076, Note_on_c, 4, 46, 127
1, 500147, Note_off_c, 4, 53, 64
1, 500147, Note_off_c, 4, 62, 100
1, 500148, Note_off_c, 4, 58, 100
1, 500148, Note_on_c, 4, 65, 127
1, 500218, Note_on_c, 3, 70, 121
1, 500223, Note_off_c, 4, 65, 100
1, 500292, Note_on_c, 3, 69, 126
1, 500298, Note_off_c, 3, 70, 100
1, 500364, Note_on_c, 3, 70, 121
1, 500369, Note_off_c, 3, 69, 100
1, 500432, Note_on_c, 1, 72, 119
1, 500437, Note_off_c, 3, 70, 100
1, 500503, Note_on_c, 1, 74, 117
1, 500508, Note_off_c, 1, 72, 100
1, 500643, Note_off_c, 4, 46, 100
1, 500645, Note_off_c, 1, 74, 100
1, 500651, Note_on_c, 1, 74, 117
1, 500651, Note_on_c, 3, 70, 121
1, 500652, Note_on_c, 4, 58, 127
1, 500792, Note_off_c, 4, 58, 100
1, 500792, Note_off_c, 3, 70, 100
1, 500793, Note_off_c, 1, 74, 100
1, 500797, Note_on_c, 3, 70, 121
1, 500797, Note_on_c, 1, 74, 117
1, 500798, Note_on_c, 4, 55, 127
1, 500937, Note_off_c, 3, 70, 100
1, 500937, Note_off_c, 4, 55, 100
1, 500938, Note_off_c, 1, 74, 100
1, 500940, Note_on_c, 1, 75, 115
1, 500940, Note_on_c, 1, 72, 119
1, 500940, Note_on_c, 4, 51, 127
1, 501081, Note_off_c, 4, 51, 100
1, 501081, Note_off_c, 1, 72, 100
1, 501082, Note_off_c, 1, 75, 100
1, 501085, Note_on_c, 1, 72, 119
1, 501086, Note_on_c, 4, 53, 127
1, 501086, Note_on_c, 3, 69, 126
1, 501233, Note_on_c, 4, 41, 127
1, 501299, Note_off_c, 3, 69, 100
1, 501299, Note_off_c, 4, 53, 100
1, 501300, Note_off_c, 1, 72, 100
1, 501305, Note_on_c, 4, 65, 127
1, 501377, Note_on_c, 1, 72, 119
1, 501384, Note_off_c, 4, 65, 100
1, 501449, Note_on_c, 3, 70, 121
1, 501455, Note_off_c, 1, 72, 100
1, 501519, Note_on_c, 1, 72, 119
1, 501524, Note_off_c, 3, 70, 100
1, 501588, Note_on_c, 1, 74, 117
1, 501595, Note_off_c, 1, 72, 100
1, 501659, Note_on_c, 1, 75, 115
1, 501665, Note_off_c, 1, 74, 100
1, 501799, Note_off_c, 4, 41, 100
1, 501800, Note_off_c, 1, 75, 100
1, 501806, Note_on_c, 4, 60, 127
1, 501806, Note_on_c, 3, 67, 127
1, 501806, Note_on_c, 1, 75, 115
1, 501946, Note_off_c, 3, 67, 100
1, 501946, Note_off_c, 4, 60, 100
1, 501947, Note_off_c, 1, 75, 100
1, 501949, Note_on_c, 1, 72, 119
1, 501949, Note_on_c, 1, 75, 115
1, 501950, Note_on_c, 4, 57, 127
1, 502087, Note_off_c, 1, 72, 100
1, 502087, Note_off_c, 4, 57, 100
1, 502088, Note_off_c, 1, 75, 100
1, 502092, Note_on_c, 1, 77, 115
1, 502092, Note_on_c, 3, 69, 126
1, 502093, Note_on_c, 4, 53, 127
1, 502231, Note_off_c, 4, 53, 100
1, 502231, Note_off_c, 3, 69, 100
1, 502232, Note_off_c, 1, 77, 100
1, 502236, Note_on_c, 3, 70, 121
1, 502236, Note_on_c, 1, 74, 117
1, 502237, Note_on_c, 4, 58, 127
1, 502369, Note_on_c, 4, 46, 127
1, 502433, Note_off_c, 3, 70, 100
1, 502439, Note_off_c, 1, 74, 100
1, 502439, Note_on_c, 3, 70, 121
1, 502510, Note_on_c, 1, 74, 117
1, 502515, Note_off_c, 3, 70, 100
1, 502581, Note_on_c, 1, 75, 115
1, 502586, Note_off_c, 1, 74, 100
1, 502648, Note_on_c, 1, 77, 115
1, 502652, Note_off_c, 1, 75, 100
1, 502715, Note_on_c, 1, 79, 111
1, 502721, Note_off_c, 1, 77, 100
1, 502784, Note_on_c, 1, 80, 111
1, 502790, Note_off_c, 1, 79, 100
1, 502924, Note_off_c, 4, 46, 100
1, 502930, Note_off_c, 4, 58, 100
1, 502931, Note_off_c, 1, 80, 100
1, 502931, Note_on_c, 2, 68, 126
1, 502932, Note_on_c, 4, 50, 127
1, 502932, Note_on_c, 4, 59, 127
1, 502932, Note_on_c, 2, 65, 127
1, 502933, Note_on_c, 4, 38, 127
1, 503072, Note_off_c, 4, 38, 100
1, 503073, Note_off_c, 4, 59, 100
1, 503073, Note_off_c, 4, 50, 100
1, 503074, Note_off_c, 2, 68, 100
1, 503074, Note_off_c, 2, 65, 100
1, 503076, Note_on_c, 2, 68, 126
1, 503076, Note_on_c, 2, 65, 127
1, 503077, Note_on_c, 4, 59, 127
1, 503077, Note_on_c, 4, 50, 127
1, 503078, Note_on_c, 4, 38, 127
1, 503221, Note_off_c, 4, 38, 100
1, 503221, Note_off_c, 4, 50, 100
1, 503222, Note_off_c, 4, 59, 100
1, 503222, Note_off_c, 2, 65, 100
1, 503223, Note_off_c, 2, 68, 100
1, 503225, Note_on_c, 2, 65, 127
1, 503225, Note_on_c, 2, 68, 126
1, 503226, Note_on_c, 4, 48, 127
1, 503226, Note_on_c, 4, 60, 127
1, 503227, Note_on_c, 4, 36, 127
1, 503368, Note_off_c, 4, 48, 100
1, 503368, Note_off_c, 4, 36, 100
1, 503369, Note_off_c, 2, 65, 100
1, 503369, Note_off_c, 4, 60, 100
1, 503370, Note_off_c, 2, 68, 100
1, 503370, Note_on_c, 2, 67, 127
1, 503371, Note_on_c, 2, 65, 127
1, 503371, Note_on_c, 4, 62, 127
1, 503372, Note_on_c, 4, 35, 127
1, 503372, Note_on_c, 4, 47, 127
1, 503513, Note_off_c, 4, 62, 100
1, 503519, Note_on_c, 4, 59, 127
1, 503588, Note_on_c, 1, 74, 117
1, 503659, Note_on_c, 1, 79, 111
1, 503664, Note_off_c, 1, 74, 100
1, 503730, Note_on_c, 1, 78, 112
1, 503736, Note_off_c, 1, 79, 100
1, 503792, Note_off_c, 2, 67, 100
1, 503792, Note_off_c, 2, 65, 100
1, 503792, Note_off_c, 4, 59, 100
1, 503796, Note_on_c, 1, 79, 111
1, 503796, Note_on_c, 2, 67, 127
1, 503797, Note_on_c, 4, 59, 127
1, 503803, Note_off_c, 1, 78, 100
1, 503866, Note_on_c, 1, 74, 117
1, 503869, Note_off_c, 1, 79, 100
1, 503927, Note_off_c, 4, 59, 100
1, 503927, Note_off_c, 2, 67, 100
1, 503930, Note_on_c, 2, 67, 127
1, 503930, Note_on_c, 1, 77, 115
1, 503931, Note_on_c, 4, 60, 127
1, 503937, Note_off_c, 1, 74, 100
1, 503997, Note_on_c, 1, 75, 115
1, 504002, Note_off_c, 1, 77, 100
1, 504066, Note_off_c, 4, 47, 100
1, 504066, Note_off_c, 4, 35, 100
1, 504067, Note_on_c, 4, 48, 127
1, 504072, Note_off_c, 1, 75, 100
1, 504133, Note_off_c, 2, 67, 100
1, 504139, Note_on_c, 2, 67, 127
1, 504212, Note_on_c, 1, 72, 119
1, 504218, Note_off_c, 2, 67, 100
1, 504251, Note_on_c, 3, 71, 122
1, 504254, Note_off_c, 1, 72, 100
1, 504285, Note_on_c, 1, 74, 117
1, 504288, Note_off_c, 3, 71, 100
1, 504316, Note_on_c, 1, 72, 119
1, 504325, Note_off_c, 1, 74, 100
1, 504356, Note_off_c, 1, 72, 100
1, 504358, Note_on_c, 1, 75, 115
1, 504396, Note_off_c, 1, 75, 100
1, 504398, Note_on_c, 1, 74, 117
1, 504429, Note_on_c, 1, 77, 115
1, 504436, Note_off_c, 1, 74, 100
1, 504464, Note_on_c, 1, 75, 115
1, 504467, Note_off_c, 1, 77, 100
1, 504500, Note_on_c, 1, 79, 111
1, 504504, Note_off_c, 1, 75, 100
1, 504631, Note_off_c, 4, 60, 100
1, 504636, Note_off_c, 4, 48, 100
1, 504642, Note_off_c, 1, 79, 100
1, 504643, Note_on_c, 2, 63, 127
1, 504643, Note_on_c, 2, 67, 127
1, 504644, Note_on_c, 4, 48, 127
1, 504644, Note_on_c, 4, 60, 127
1, 504645, Note_on_c, 4, 36, 127
1, 504781, Note_off_c, 4, 36, 100
1, 504782, Note_off_c, 4, 60, 100
1, 504782, Note_off_c, 4, 48, 100
1, 504783, Note_off_c, 2, 67, 100
1, 504783, Note_off_c, 2, 63, 100
1, 504785, Note_on_c, 2, 67, 127
1, 504786, Note_on_c, 2, 63, 127
1, 504786, Note_on_c, 4, 60, 127
1, 504787, Note_on_c, 4, 48, 127
1, 504787, Note_on_c, 4, 36, 127
1, 504925, Note_off_c, 4, 36, 100
1, 504926, Note_off_c, 4, 48, 100
1, 504926, Note_off_c, 4, 60, 100
1, 504927, Note_off_c, 2, 63, 100
1, 504927, Note_off_c, 2, 67, 100
1, 504929, Note_on_c, 2, 66, 127
1, 504930, Note_on_c, 4, 60, 127
1, 504930, Note_on_c, 2, 63, 127
1, 504931, Note_on_c, 4, 34, 127
1, 504931, Note_on_c, 4, 46, 127
1, 505074, Note_off_c, 4, 34, 100
1, 505075, Note_off_c, 4, 60, 100
1, 505075, Note_off_c, 4, 46, 100
1, 505076, Note_off_c, 2, 66, 100
1, 505076, Note_off_c, 2, 63, 100
1, 505078, Note_on_c, 2, 65, 127
1, 505079, Note_on_c, 4, 60, 127
1, 505079, Note_on_c, 2, 63, 127
1, 505080, Note_on_c, 4, 33, 127
1, 505080, Note_on_c, 4, 45, 127
1, 505220, Note_off_c, 4, 60, 100
1, 505222, Note_on_c, 4, 57, 127
1, 505291, Note_off_c, 2, 63, 100
1, 505292, Note_off_c, 2, 65, 100
1, 505292, Note_on_c, 1, 72, 119
1, 505360, Note_on_c, 1, 77, 115
1, 505365, Note_off_c, 1, 72, 100
1, 505428, Note_on_c, 1, 76, 112
1, 505432, Note_off_c, 1, 77, 100
1, 505490, Note_off_c, 4, 57, 100
1, 505496, Note_on_c, 1, 77, 115
1, 505496, Note_on_c, 2, 65, 127
1, 505497, Note_on_c, 4, 57, 127
1, 505502, Note_off_c, 1, 76, 100
1, 505564, Note_on_c, 1, 72, 119
1, 505570, Note_off_c, 1, 77, 100
1, 505627, Note_off_c, 4, 57, 100
1, 505628, Note_off_c, 2, 65, 100
1, 505630, Note_on_c, 1, 75, 115
1, 505631, Note_on_c, 4, 58, 127
1, 505631, Note_on_c, 2, 65, 127
1, 505636, Note_off_c, 1, 72, 100
1, 505703, Note_on_c, 1, 74, 117
1, 505709, Note_off_c, 1, 75, 100
1, 505776, Note_off_c, 4, 45, 100
1, 505776, Note_off_c, 4, 33, 100
1, 505777, Note_on_c, 4, 46, 127
1, 505808, Note_off_c, 1, 74, 100
1, 505809, Note_on_c, 1, 82, 111
1, 505881, Note_on_c, 1, 81, 111
1, 505887, Note_off_c, 1, 82, 100
1, 505918, Note_on_c, 1, 82, 111
1, 505922, Note_off_c, 1, 81, 100
1, 505956, Note_on_c, 1, 81, 111
1, 505960, Note_off_c, 1, 82, 100
1, 506029, Note_on_c, 1, 79, 111
1, 506035, Note_off_c, 1, 81, 100
1, 506066, Note_on_c, 1, 77, 115
1, 506070, Note_off_c, 1, 79, 100
1, 506103, Note_on_c, 1, 75, 115
1, 506104, Note_off_c, 1, 77, 100
1, 506172, Note_on_c, 1, 74, 117
1, 506178, Note_off_c, 1, 75, 100
1, 506204, Note_on_c, 1, 72, 119
1, 506208, Note_off_c, 1, 74, 100
1, 506266, Note_off_c, 4, 46, 100
1, 506279, Note_on_c, 4, 51, 127
1, 506291, Note_off_c, 4, 58, 100
1, 506292, Note_off_c, 2, 65, 100
1, 506350, Note_on_c, 4, 58, 127
1, 506355, Note_off_c, 4, 51, 100
1, 506373, Note_off_c, 1, 72, 100
1, 506384, Note_on_c, 1, 72, 119
1, 506423, Note_on_c, 4, 55, 127
1, 506428, Note_off_c, 4, 58, 100
1, 506457, Note_on_c, 1, 74, 117
1, 506463, Note_off_c, 1, 72, 100
1, 506494, Note_on_c, 4, 60, 127
1, 506494, Note_on_c, 1, 75, 115
1, 506496, Note_off_c, 1, 74, 100
1, 506500, Note_off_c, 4, 55, 100
1, 506531, Note_on_c, 1, 74, 117
1, 506532, Note_off_c, 1, 75, 100
1, 506602, Note_on_c, 1, 72, 119
1, 506608, Note_off_c, 1, 74, 100
1, 506637, Note_on_c, 1, 79, 111
1, 506640, Note_off_c, 1, 72, 100
1, 506671, Note_on_c, 1, 77, 115
1, 506675, Note_off_c, 1, 79, 100
1, 506744, Note_on_c, 1, 75, 115
1, 506750, Note_off_c, 1, 77, 100
1, 506781, Note_on_c, 1, 74, 117
1, 506784, Note_off_c, 1, 75, 100
1, 506854, Note_off_c, 4, 60, 100
1, 506854, Note_on_c, 4, 53, 127
1, 506924, Note_on_c, 4, 58, 127
1, 506929, Note_off_c, 4, 53, 100
1, 506960, Note_off_c, 1, 74, 100
1, 506961, Note_on_c, 1, 82, 111
1, 506996, Note_on_c, 4, 56, 127
1, 507003, Note_off_c, 4, 58, 100
1, 507032, Note_on_c, 1, 81, 111
1, 507038, Note_off_c, 1, 82, 100
1, 507071, Note_on_c, 4, 62, 127
1, 507071, Note_on_c, 1, 82, 111
1, 507073, Note_off_c, 1, 81, 100
1, 507075, Note_off_c, 4, 56, 100
1, 507104, Note_on_c, 1, 80, 111
1, 507108, Note_off_c, 1, 82, 100
1, 507177, Note_on_c, 1, 79, 111
1, 507183, Note_off_c, 1, 80, 100
1, 507210, Note_off_c, 1, 79, 100
1, 507214, Note_on_c, 1, 79, 111
1, 507250, Note_on_c, 1, 77, 115
1, 507254, Note_off_c, 1, 79, 100
1, 507319, Note_on_c, 1, 74, 117
1, 507327, Note_off_c, 1, 77, 100
1, 507358, Note_on_c, 1, 75, 115
1, 507361, Note_off_c, 1, 74, 100
1, 507431, Note_off_c, 4, 62, 100
1, 507431, Note_on_c, 4, 55, 127
1, 507503, Note_on_c, 4, 63, 127
1, 507508, Note_off_c, 4, 55, 100
1, 507526, Note_off_c, 1, 75, 100
1, 507537, Note_on_c, 1, 75, 115
1, 507572, Note_on_c, 4, 58, 127
1, 507579, Note_off_c, 4, 63, 100
1, 507610, Note_on_c, 1, 77, 115
1, 507616, Note_off_c, 1, 75, 100
1, 507645, Note_off_c, 1, 77, 100
1, 507645, Note_on_c, 1, 79, 111
1, 507646, Note_on_c, 3, 67, 127
1, 507651, Note_off_c, 4, 58, 100
1, 507681, Note_off_c, 1, 79, 100
1, 507681, Note_on_c, 1, 77, 115
1, 507751, Note_on_c, 1, 75, 115
1, 507757, Note_off_c, 1, 77, 100
1, 507786, Note_off_c, 1, 75, 100
1, 507787, Note_on_c, 1, 82, 111
1, 507822, Note_off_c, 1, 82, 100
1, 507822, Note_on_c, 1, 80, 111
1, 507893, Note_on_c, 1, 79, 111
1, 507899, Note_off_c, 1, 80, 100
1, 507930, Note_off_c, 1, 79, 100
1, 507930, Note_on_c, 1, 77, 115
1, 508002, Note_off_c, 3, 67, 100
1, 508002, Note_on_c, 4, 55, 127
1, 508074, Note_on_c, 4, 63, 127
1, 508080, Note_off_c, 4, 55, 100
1, 508108, Note_on_c, 1, 82, 111
1, 508122, Note_off_c, 1, 77, 100
1, 508147, Note_on_c, 4, 58, 127
1, 508152, Note_off_c, 4, 63, 100
1, 508183, Note_on_c, 1, 81, 111
1, 508189, Note_off_c, 1, 82, 100
1, 508220, Note_off_c, 1, 81, 100
1, 508221, Note_on_c, 3, 67, 127
1, 508221, Note_on_c, 1, 82, 111
1, 508226, Note_off_c, 4, 58, 100
1, 508257, Note_off_c, 1, 82, 100
1, 508258, Note_on_c, 1, 80, 111
1, 508327, Note_on_c, 1, 79, 111
1, 508333, Note_off_c, 1, 80, 100
1, 508366, Note_off_c, 1, 79, 100
1, 508367, Note_on_c, 1, 77, 115
1, 508400, Note_off_c, 1, 77, 100
1, 508400, Note_on_c, 1, 79, 111
1, 508473, Note_on_c, 1, 80, 111
1, 508479, Note_off_c, 1, 79, 100
1, 508510, Note_off_c, 1, 80, 100
1, 508511, Note_off_c, 3, 67, 100
1, 508511, Note_on_c, 4, 51, 127
1, 508511, Note_on_c, 1, 79, 111
1, 508547, Note_off_c, 1, 79, 100
1, 508547, Note_on_c, 1, 82, 111
1, 508619, Note_on_c, 1, 81, 111
1, 508624, Note_off_c, 1, 82, 100
1, 508655, Note_off_c, 1, 81, 100
1, 508655, Note_on_c, 1, 79, 111
1, 508690, Note_off_c, 1, 79, 100
1, 508691, Note_on_c, 1, 81, 111
1, 508761, Note_on_c, 1, 82, 111
1, 508768, Note_off_c, 1, 81, 100
1, 508799, Note_off_c, 4, 51, 100
1, 508800, Note_on_c, 4, 55, 127
1, 508800, Note_on_c, 1, 75, 115
1, 508804, Note_off_c, 1, 82, 100
1, 508836, Note_off_c, 1, 75, 100
1, 508837, Note_on_c, 1, 79, 111
1, 508905, Note_on_c, 1, 77, 115
1, 508910, Note_off_c, 1, 79, 100
1, 508939, Note_off_c, 1, 77, 100
1, 508940, Note_on_c, 1, 75, 115
1, 508975, Note_off_c, 1, 75, 100
1, 508975, Note_on_c, 1, 77, 115
1, 509047, Note_on_c, 1, 79, 111
1, 509052, Note_off_c, 1, 77, 100
1, 509076, Note_off_c, 4, 55, 100
1, 509081, Note_on_c, 1, 72, 119
1, 509082, Note_on_c, 4, 51, 127
1, 509082, Note_on_c, 4, 60, 127
1, 509094, Note_off_c, 1, 79, 100
1, 509119, Note_off_c, 1, 72, 100
1, 509119, Note_on_c, 1, 75, 115
1, 509189, Note_on_c, 1, 74, 117
1, 509195, Note_off_c, 1, 75, 100
1, 509226, Note_off_c, 1, 74, 100
1, 509227, Note_on_c, 1, 72, 119
1, 509260, Note_off_c, 1, 72, 100
1, 509260, Note_on_c, 1, 74, 117
1, 509332, Note_on_c, 1, 75, 115
1, 509338, Note_off_c, 1, 74, 100
1, 509363, Note_off_c, 4, 60, 100
1, 509363, Note_off_c, 4, 51, 100
1, 509367, Note_on_c, 3, 67, 127
1, 509368, Note_on_c, 4, 52, 127
1, 509368, Note_on_c, 4, 60, 127
1, 509379, Note_off_c, 1, 75, 100
1, 509402, Note_off_c, 3, 67, 100
1, 509402, Note_on_c, 3, 70, 121
1, 509472, Note_on_c, 3, 69, 126
1, 509478, Note_off_c, 3, 70, 100
1, 509510, Note_off_c, 3, 69, 100
1, 509511, Note_on_c, 3, 67, 127
1, 509546, Note_off_c, 3, 67, 100
1, 509546, Note_on_c, 3, 69, 126
1, 509618, Note_on_c, 3, 70, 121
1, 509624, Note_off_c, 3, 69, 100
1, 509647, Note_off_c, 4, 60, 100
1, 509647, Note_off_c, 4, 52, 100
1, 509653, Note_off_c, 3, 70, 100
1, 509654, Note_on_c, 4, 53, 127
1, 509654, Note_on_c, 3, 69, 126
1, 509691, Note_on_c, 4, 65, 127
1, 509695, Note_off_c, 3, 69, 100
1, 509729, Note_on_c, 3, 67, 127
1, 509730, Note_on_c, 4, 60, 127
1, 509734, Note_off_c, 4, 65, 100
1, 509769, Note_on_c, 3, 69, 126
1, 509772, Note_off_c, 3, 67, 100
1, 509780, Note_off_c, 4, 53, 100
1, 509807, Note_on_c, 3, 70, 121
1, 509808, Note_on_c, 4, 57, 127
1, 509810, Note_off_c, 3, 69, 100
1, 509843, Note_on_c, 1, 72, 119
1, 509848, Note_off_c, 3, 70, 100
1, 509856, Note_off_c, 4, 60, 100
1, 509881, Note_on_c, 4, 60, 127
1, 509881, Note_on_c, 1, 74, 117
1, 509886, Note_off_c, 1, 72, 100
1, 509918, Note_on_c, 1, 76, 112
1, 509922, Note_off_c, 1, 74, 100
1, 509932, Note_off_c, 4, 57, 100
1, 509955, Note_on_c, 4, 53, 127
1, 509955, Note_on_c, 1, 77, 112
1, 509960, Note_off_c, 1, 76, 100
1, 509992, Note_on_c, 1, 79, 108
1, 509996, Note_off_c, 1, 77, 100
1, 510004, Note_off_c, 4, 60, 100
1, 510029, Note_on_c, 1, 81, 108
1, 510029, Note_on_c, 4, 60, 127
1, 510032, Note_off_c, 1, 79, 100
1, 510066, Note_on_c, 1, 82, 108
1, 510070, Note_off_c, 1, 81, 100
1, 510078, Note_off_c, 4, 53, 100
1, 510101, Note_on_c, 1, 84, 113
1, 510101, Note_on_c, 4, 57, 127
1, 510106, Note_off_c, 1, 82, 100
1, 510149, Note_off_c, 4, 60, 100
1, 510173, Note_on_c, 4, 60, 127
1, 510173, Note_on_c, 1, 75, 115
1, 510191, Note_off_c, 1, 84, 100
1, 510222, Note_off_c, 4, 57, 100
1, 510247, Note_on_c, 1, 74, 117
1, 510247, Note_on_c, 4, 53, 127
1, 510252, Note_off_c, 1, 75, 100
1, 510282, Note_on_c, 3, 70, 121
1, 510286, Note_off_c, 1, 74, 100
1, 510296, Note_off_c, 4, 60, 100
1, 510323, Note_on_c, 1, 72, 119
1, 510323, Note_on_c, 4, 62, 127
1, 510327, Note_off_c, 3, 70, 100
1, 510362, Note_on_c, 1, 74, 117
1, 510366, Note_off_c, 1, 72, 100
1, 510373, Note_off_c, 4, 53, 100
1, 510398, Note_on_c, 1, 75, 115
1, 510399, Note_on_c, 4, 58, 127
1, 510403, Note_off_c, 1, 74, 100
1, 510438, Note_on_c, 1, 77, 112
1, 510442, Note_off_c, 1, 75, 100
1, 510450, Note_off_c, 4, 62, 100
1, 510476, Note_on_c, 4, 62, 127
1, 510476, Note_on_c, 1, 79, 108
1, 510478, Note_off_c, 1, 77, 100
1, 510513, Note_on_c, 1, 81, 108
1, 510516, Note_off_c, 1, 79, 100
1, 510524, Note_off_c, 4, 58, 100
1, 510549, Note_on_c, 1, 82, 108
1, 510550, Note_on_c, 4, 53, 127
1, 510554, Note_off_c, 1, 81, 100
1, 510587, Note_on_c, 1, 84, 113
1, 510590, Note_off_c, 1, 82, 100
1, 510598, Note_off_c, 4, 62, 100
1, 510623, Note_on_c, 1, 86, 115
1, 510624, Note_on_c, 4, 62, 127
1, 510626, Note_off_c, 1, 84, 100
1, 510661, Note_on_c, 1, 87, 112
1, 510663, Note_off_c, 1, 86, 100
1, 510671, Note_off_c, 4, 53, 100
1, 510696, Note_on_c, 1, 89, 112
1, 510697, Note_on_c, 4, 58, 127
1, 510699, Note_off_c, 1, 87, 100
1, 510741, Note_off_c, 4, 62, 100
1, 510767, Note_on_c, 1, 82, 108
1, 510767, Note_on_c, 4, 62, 127
1, 510791, Note_off_c, 1, 89, 100
1, 510814, Note_off_c, 4, 58, 100
1, 510839, Note_off_c, 1, 82, 100
1, 510839, Note_on_c, 4, 53, 127
1, 510839, Note_on_c, 1, 81, 108
1, 510879, Note_on_c, 1, 82, 108
1, 510882, Note_off_c, 1, 81, 100
1, 510890, Note_off_c, 4, 62, 100
1, 510915, Note_on_c, 4, 63, 127
1, 510915, Note_on_c, 1, 84, 113
1, 510920, Note_off_c, 1, 82, 100
1, 510954, Note_on_c, 1, 82, 108
1, 510958, Note_off_c, 1, 84, 100
1, 510968, Note_off_c, 4, 53, 100
1, 510993, Note_on_c, 1, 81, 108
1, 510993, Note_on_c, 4, 60, 127
1, 510997, Note_off_c, 1, 82, 100
1, 511032, Note_on_c, 1, 82, 108
1, 511036, Note_off_c, 1, 81, 100
1, 511046, Note_off_c, 4, 63, 100
1, 511071, Note_on_c, 4, 63, 127
1, 511071, Note_on_c, 1, 84, 113
1, 511075, Note_off_c, 1, 82, 100
1, 511110, Note_on_c, 1, 86, 115
1, 511114, Note_off_c, 1, 84, 100
1, 511122, Note_off_c, 4, 60, 100
1, 511149, Note_on_c, 4, 53, 127
1, 511149, Note_on_c, 1, 87, 112
1, 511151, Note_off_c, 1, 86, 100
1, 511188, Note_on_c, 1, 86, 115
1, 511190, Note_off_c, 1, 87, 100
1, 511200, Note_off_c, 4, 63, 100
1, 511225, Note_on_c, 1, 84, 113
1, 511226, Note_on_c, 4, 60, 127
1, 511228, Note_off_c, 1, 86, 100
1, 511261, Note_on_c, 1, 82, 108
1, 511264, Note_off_c, 1, 84, 100
1, 511274, Note_off_c, 4, 53, 100
1, 511299, Note_on_c, 1, 81, 108
1, 511300, Note_on_c, 4, 57, 127
1, 511302, Note_off_c, 1, 82, 100
1, 511335, Note_on_c, 1, 79, 108
1, 511338, Note_off_c, 1, 81, 100
1, 511346, Note_off_c, 4, 60, 100
1, 511373, Note_on_c, 1, 77, 112
1, 511374, Note_on_c, 4, 60, 127
1, 511376, Note_off_c, 1, 79, 100
1, 511411, Note_on_c, 1, 75, 115
1, 511414, Note_off_c, 1, 77, 100
1, 511422, Note_off_c, 4, 57, 100
1, 511449, Note_on_c, 1, 74, 117
1, 511450, Note_on_c, 4, 53, 127
1, 511452, Note_off_c, 1, 75, 100
1, 511485, Note_on_c, 1, 77, 112
1, 511488, Note_off_c, 1, 74, 100
1, 511498, Note_off_c, 4, 60, 100
1, 511525, Note_on_c, 1, 75, 115
1, 511525, Note_on_c, 4, 62, 127
1, 511527, Note_off_c, 1, 77, 100
1, 511564, Note_on_c, 1, 74, 117
1, 511568, Note_off_c, 1, 75, 100
1, 511576, Note_off_c, 4, 53, 100
1, 511603, Note_on_c, 4, 58, 127
1, 511603, Note_on_c, 1, 75, 115
1, 511607, Note_off_c, 1, 74, 100
1, 511642, Note_on_c, 1, 77, 112
1, 511646, Note_off_c, 1, 75, 100
1, 511656, Note_off_c, 4, 62, 100
1, 511680, Note_on_c, 1, 79, 108
1, 511681, Note_on_c, 4, 62, 127
1, 511683, Note_off_c, 1, 77, 100
1, 511716, Note_on_c, 1, 81, 108
1, 511720, Note_off_c, 1, 79, 100
1, 511729, Note_off_c, 4, 58, 100
1, 511752, Note_on_c, 1, 82, 108
1, 511753, Note_on_c, 4, 53, 127
1, 511755, Note_off_c, 1, 81, 100
1, 511790, Note_on_c, 1, 81, 108
1, 511792, Note_off_c, 1, 82, 100
1, 511801, Note_off_c, 4, 62, 100
1, 511824, Note_on_c, 1, 79, 108
1, 511825, Note_on_c, 4, 62, 127
1, 511827, Note_off_c, 1, 81, 100
1, 511860, Note_on_c, 1, 77, 112
1, 511864, Note_off_c, 1, 79, 100
1, 511872, Note_off_c, 4, 53, 100
1, 511896, Note_on_c, 1, 75, 115
1, 511897, Note_on_c, 4, 58, 127
1, 511901, Note_off_c, 1, 77, 100
1, 511934, Note_on_c, 1, 74, 117
1, 511938, Note_off_c, 1, 75, 100
1, 511945, Note_off_c, 4, 62, 100
1, 511970, Note_on_c, 1, 72, 119
1, 511971, Note_on_c, 4, 62, 127
1, 511975, Note_off_c, 1, 74, 100
1, 512010, Note_on_c, 3, 70, 121
1, 512012, Note_off_c, 1, 72, 100
1, 512021, Note_off_c, 4, 58, 100
1, 512044, Note_off_c, 3, 70, 100
1, 512046, Note_on_c, 1, 77, 112
1, 512047, Note_on_c, 3, 69, 126
1, 512047, Note_on_c, 1, 72, 119
1, 512048, Note_on_c, 4, 57, 127
1, 512048, Note_on_c, 4, 60, 127
1, 512049, Note_on_c, 4, 53, 127
1, 512053, Note_off_c, 4, 62, 100
1, 512205, Note_on_c, 3, 65, 127
1, 512238, Note_off_c, 1, 72, 100
1, 512240, Note_off_c, 3, 69, 100
1, 512242, Note_off_c, 1, 77, 100
1, 512280, Note_off_c, 4, 53, 100
1, 512281, Note_off_c, 4, 60, 100
1, 512281, Note_off_c, 4, 57, 100
1, 512356, Note_off_c, 3, 65, 100
1, 512357, Note_on_c, 4, 51, 127
1, 512357, Note_on_c, 2, 72, 119
1, 512428, Note_on_c, 4, 53, 127
1, 512476, Note_off_c, 4, 51, 100
1, 512501, Note_on_c, 4, 51, 127
1, 512549, Note_off_c, 4, 53, 100
1, 512569, Note_off_c, 2, 72, 100
1, 512574, Note_on_c, 2, 69, 126
1, 512575, Note_on_c, 4, 53, 127
1, 512612, Note_on_c, 2, 65, 127
1, 512615, Note_off_c, 2, 69, 100
1, 512624, Note_off_c, 4, 51, 100
1, 512651, Note_on_c, 2, 70, 121
1, 512652, Note_on_c, 4, 50, 127
1, 512654, Note_off_c, 2, 65, 100
1, 512700, Note_off_c, 4, 53, 100
1, 512723, Note_on_c, 4, 53, 127
1, 512771, Note_off_c, 4, 50, 100
1, 512794, Note_off_c, 2, 70, 100
1, 512795, Note_on_c, 4, 50, 127
1, 512795, Note_on_c, 2, 71, 122
1, 512842, Note_off_c, 4, 53, 100
1, 512867, Note_on_c, 4, 53, 127
1, 512917, Note_off_c, 4, 50, 100
1, 512942, Note_off_c, 2, 71, 100
1, 512942, Note_on_c, 2, 72, 119
1, 512943, Note_on_c, 4, 51, 127
1, 512989, Note_off_c, 4, 53, 100
1, 513014, Note_on_c, 4, 53, 127
1, 513060, Note_off_c, 4, 51, 100
1, 513085, Note_on_c, 4, 51, 127
1, 513135, Note_off_c, 4, 53, 100
1, 513160, Note_off_c, 2, 72, 100
1, 513161, Note_on_c, 2, 69, 126
1, 513161, Note_on_c, 4, 53, 127
1, 513197, Note_on_c, 2, 65, 127
1, 513201, Note_off_c, 2, 69, 100
1, 513209, Note_off_c, 4, 51, 100
1, 513234, Note_on_c, 2, 70, 121
1, 513235, Note_on_c, 4, 50, 127
1, 513237, Note_off_c, 2, 65, 100
1, 513283, Note_off_c, 4, 53, 100
1, 513308, Note_on_c, 4, 53, 127
1, 513356, Note_off_c, 4, 50, 100
1, 513381, Note_on_c, 4, 50, 127
1, 513429, Note_off_c, 4, 53, 100
1, 513454, Note_on_c, 4, 53, 127
1, 513504, Note_off_c, 4, 50, 100
1, 513521, Note_off_c, 2, 70, 100
1, 513527, Note_on_c, 2, 72, 119
1, 513528, Note_on_c, 4, 51, 127
1, 513574, Note_off_c, 4, 53, 100
1, 513595, Note_off_c, 2, 72, 100
1, 513599, Note_on_c, 2, 72, 119
1, 513600, Note_on_c, 4, 53, 127
1, 513646, Note_off_c, 4, 51, 100
1, 513669, Note_on_c, 4, 51, 127
1, 513717, Note_off_c, 4, 53, 100
1, 513742, Note_off_c, 2, 72, 100
1, 513743, Note_on_c, 4, 53, 127
1, 513743, Note_on_c, 2, 69, 126
1, 513780, Note_on_c, 2, 65, 127
1, 513783, Note_off_c, 2, 69, 100
1, 513793, Note_off_c, 4, 51, 100
1, 513818, Note_on_c, 4, 50, 127
1, 513818, Note_on_c, 2, 70, 121
1, 513820, Note_off_c, 2, 65, 100
1, 513867, Note_off_c, 4, 53, 100
1, 513888, Note_off_c, 2, 70, 100
1, 513892, Note_on_c, 2, 70, 121
1, 513892, Note_on_c, 4, 53, 127
1, 513941, Note_off_c, 4, 50, 100
1, 513963, Note_off_c, 2, 70, 100
1, 513966, Note_on_c, 4, 50, 127
1, 513966, Note_on_c, 2, 71, 122
1, 514017, Note_off_c, 4, 53, 100
1, 514037, Note_off_c, 2, 71, 100
1, 514042, Note_on_c, 4, 53, 127
1, 514042, Note_on_c, 2, 71, 122
1, 514092, Note_off_c, 4, 50, 100
1, 514112, Note_off_c, 2, 71, 100
1, 514116, Note_on_c, 2, 72, 119
1, 514116, Note_on_c, 4, 51, 127
1, 514164, Note_off_c, 4, 53, 100
1, 514184, Note_off_c, 2, 72, 100
1, 514188, Note_on_c, 2, 72, 119
1, 514188, Note_on_c, 4, 53, 127
1, 514236, Note_off_c, 4, 51, 100
1, 514260, Note_on_c, 4, 51, 127
1, 514308, Note_off_c, 4, 53, 100
1, 514332, Note_on_c, 2, 69, 126
1, 514333, Note_off_c, 2, 72, 100
1, 514333, Note_on_c, 4, 53, 127
1, 514370, Note_on_c, 2, 65, 127
1, 514374, Note_off_c, 2, 69, 100
1, 514381, Note_off_c, 4, 51, 100
1, 514406, Note_on_c, 2, 70, 121
1, 514407, Note_on_c, 4, 50, 127
1, 514413, Note_off_c, 4, 53, 100
1, 514450, Note_off_c, 2, 65, 100
1, 514480, Note_on_c, 2, 65, 127
1, 514551, Note_on_c, 2, 62, 127
1, 514557, Note_off_c, 2, 65, 100
1, 514622, Note_on_c, 2, 65, 127
1, 514630, Note_off_c, 2, 62, 100
1, 514696, Note_on_c, 1, 82, 111
1, 514696, Note_on_c, 2, 63, 127
1, 514702, Note_off_c, 2, 65, 100
1, 514735, Note_on_c, 1, 84, 116
1, 514739, Note_off_c, 1, 82, 100
1, 514773, Note_on_c, 1, 86, 118
1, 514774, Note_on_c, 2, 65, 127
1, 514776, Note_off_c, 1, 84, 100
1, 514780, Note_off_c, 2, 63, 100
1, 514812, Note_on_c, 1, 84, 116
1, 514816, Note_off_c, 1, 86, 100
1, 514849, Note_on_c, 1, 82, 111
1, 514849, Note_on_c, 2, 63, 127
1, 514852, Note_off_c, 1, 84, 100
1, 514854, Note_off_c, 2, 65, 100
1, 514885, Note_on_c, 1, 81, 111
1, 514887, Note_off_c, 1, 82, 100
1, 514923, Note_on_c, 1, 79, 111
1, 514923, Note_on_c, 2, 65, 127
1, 514926, Note_off_c, 1, 81, 100
1, 514928, Note_off_c, 2, 63, 100
1, 514960, Note_on_c, 1, 77, 115
1, 514964, Note_off_c, 1, 79, 100
1, 514999, Note_off_c, 2, 70, 100
1, 514999, Note_on_c, 1, 82, 111
1, 515000, Note_on_c, 2, 62, 127
1, 515004, Note_off_c, 1, 77, 100
1, 515005, Note_off_c, 2, 65, 100
1, 515039, Note_on_c, 1, 77, 115
1, 515041, Note_off_c, 1, 82, 100
1, 515074, Note_on_c, 1, 86, 118
1, 515077, Note_off_c, 1, 77, 100
1, 515114, Note_on_c, 1, 82, 111
1, 515116, Note_off_c, 1, 86, 100
1, 515150, Note_on_c, 1, 89, 109
1, 515154, Note_off_c, 1, 82, 100
1, 515189, Note_on_c, 1, 86, 115
1, 515195, Note_off_c, 1, 89, 100
1, 515227, Note_on_c, 1, 89, 109
1, 515231, Note_off_c, 1, 86, 100
1, 515268, Note_on_c, 1, 86, 115
1, 515271, Note_off_c, 1, 89, 100
1, 515304, Note_on_c, 1, 89, 109
1, 515308, Note_off_c, 1, 86, 100
1, 515342, Note_on_c, 1, 87, 109
1, 515346, Note_off_c, 1, 89, 100
1, 515381, Note_on_c, 1, 86, 115
1, 515384, Note_off_c, 1, 87, 100
1, 515418, Note_on_c, 1, 84, 116
1, 515422, Note_off_c, 1, 86, 100
1, 515449, Note_off_c, 4, 50, 100
1, 515457, Note_off_c, 2, 62, 100
1, 515457, Note_on_c, 1, 82, 111
1, 515458, Note_on_c, 4, 50, 127
1, 515458, Note_on_c, 4, 58, 127
1, 515459, Note_off_c, 1, 84, 100
1, 515493, Note_on_c, 1, 81, 111
1, 515497, Note_off_c, 1, 82, 100
1, 515530, Note_on_c, 1, 79, 111
1, 515533, Note_off_c, 1, 81, 100
1, 515567, Note_on_c, 1, 77, 115
1, 515570, Note_off_c, 1, 79, 100
1, 515599, Note_off_c, 4, 58, 100
1, 515599, Note_off_c, 4, 50, 100
1, 515604, Note_on_c, 4, 51, 127
1, 515604, Note_on_c, 4, 58, 127
1, 515604, Note_on_c, 1, 79, 111
1, 515606, Note_off_c, 1, 77, 100
1, 515639, Note_on_c, 1, 75, 115
1, 515643, Note_off_c, 1, 79, 100
1, 515677, Note_on_c, 1, 82, 105
1, 515679, Note_off_c, 1, 75, 100
1, 515716, Note_on_c, 1, 81, 108
1, 515720, Note_off_c, 1, 82, 100
1, 515754, Note_on_c, 1, 82, 105
1, 515758, Note_off_c, 1, 81, 100
1, 515793, Note_on_c, 1, 81, 108
1, 515796, Note_off_c, 1, 82, 100
1, 515830, Note_on_c, 1, 82, 105
1, 515832, Note_off_c, 1, 81, 100
1, 515867, Note_on_c, 1, 81, 108
1, 515870, Note_off_c, 1, 82, 100
1, 515902, Note_on_c, 1, 82, 105
1, 515906, Note_off_c, 1, 81, 100
1, 515941, Note_on_c, 1, 81, 111
1, 515944, Note_off_c, 1, 82, 100
1, 515979, Note_on_c, 1, 79, 111
1, 515983, Note_off_c, 1, 81, 100
1, 516018, Note_on_c, 1, 77, 115
1, 516021, Note_off_c, 1, 79, 100
1, 516048, Note_off_c, 4, 51, 100
1, 516049, Note_off_c, 4, 58, 100
1, 516053, Note_on_c, 1, 75, 115
1, 516054, Note_on_c, 4, 60, 127
1, 516054, Note_on_c, 4, 58, 127
1, 516055, Note_on_c, 4, 51, 127
1, 516057, Note_off_c, 1, 77, 100
1, 516090, Note_on_c, 1, 74, 117
1, 516094, Note_off_c, 1, 75, 100
1, 516126, Note_on_c, 1, 72, 119
1, 516130, Note_off_c, 1, 74, 100
1, 516165, Note_on_c, 3, 70, 121
1, 516168, Note_off_c, 1, 72, 100
1, 516197, Note_off_c, 4, 51, 100
1, 516197, Note_off_c, 4, 58, 100
1, 516198, Note_off_c, 4, 60, 100
1, 516202, Note_on_c, 4, 65, 127
1, 516203, Note_on_c, 4, 53, 127
1, 516204, Note_off_c, 3, 70, 100
1, 516238, Note_on_c, 1, 77, 115
1, 516245, Note_off_c, 4, 65, 100
1, 516276, Note_on_c, 1, 79, 111
1, 516276, Note_on_c, 4, 62, 127
1, 516278, Note_off_c, 1, 77, 100
1, 516313, Note_on_c, 1, 77, 115
1, 516317, Note_off_c, 1, 79, 100
1, 516346, Note_off_c, 4, 53, 100
1, 516352, Note_on_c, 4, 58, 127
1, 516352, Note_on_c, 1, 75, 115
1, 516356, Note_off_c, 1, 77, 100
1, 516387, Note_on_c, 1, 74, 117
1, 516391, Note_off_c, 1, 75, 100
1, 516418, Note_off_c, 4, 62, 100
1, 516424, Note_on_c, 4, 62, 127
1, 516424, Note_on_c, 1, 72, 119
1, 516428, Note_off_c, 1, 74, 100
1, 516461, Note_on_c, 3, 70, 119
1, 516463, Note_off_c, 1, 72, 100
1, 516492, Note_off_c, 4, 58, 100
1, 516498, Note_on_c, 1, 72, 117
1, 516498, Note_on_c, 4, 53, 127
1, 516503, Note_off_c, 3, 70, 100
1, 516522, Note_on_c, 1, 74, 115
1, 516524, Note_off_c, 1, 72, 64
1, 516545, Note_on_c, 1, 72, 117
1, 516549, Note_off_c, 1, 74, 64
1, 516568, Note_on_c, 1, 74, 115
1, 516571, Note_off_c, 1, 72, 64
1, 516584, Note_off_c, 4, 62, 100
1, 516592, Note_on_c, 4, 63, 127
1, 516592, Note_on_c, 1, 72, 117
1, 516595, Note_off_c, 1, 74, 64
1, 516614, Note_on_c, 1, 74, 115
1, 516618, Note_off_c, 1, 72, 64
1, 516637, Note_on_c, 1, 72, 117
1, 516641, Note_off_c, 1, 74, 64
1, 516660, Note_on_c, 1, 74, 115
1, 516664, Note_off_c, 1, 72, 64
1, 516675, Note_off_c, 4, 53, 100
1, 516685, Note_on_c, 4, 57, 127
1, 516685, Note_on_c, 1, 72, 117
1, 516688, Note_off_c, 1, 74, 64
1, 516707, Note_on_c, 1, 74, 115
1, 516709, Note_off_c, 1, 72, 64
1, 516730, Note_on_c, 3, 70, 119
1, 516732, Note_off_c, 1, 74, 64
1, 516753, Note_on_c, 1, 72, 117
1, 516756, Note_off_c, 3, 70, 64
1, 516768, Note_off_c, 4, 63, 100
1, 516775, Note_on_c, 3, 70, 119
1, 516776, Note_on_c, 4, 63, 127
1, 516778, Note_off_c, 1, 72, 64
1, 516820, Note_on_c, 1, 72, 117
1, 516824, Note_off_c, 3, 70, 100
1, 516855, Note_off_c, 4, 57, 100
1, 516863, Note_on_c, 4, 58, 127
1, 516863, Note_on_c, 1, 74, 115
1, 516867, Note_off_c, 1, 72, 100
1, 516904, Note_on_c, 1, 75, 113
1, 516908, Note_off_c, 1, 74, 100
1, 516936, Note_off_c, 4, 63, 100
1, 516942, Note_on_c, 1, 77, 115
1, 516946, Note_off_c, 1, 75, 100
1, 516984, Note_on_c, 1, 75, 113
1, 516988, Note_off_c, 1, 77, 100
1, 517021, Note_on_c, 1, 74, 115
1, 517025, Note_off_c, 1, 75, 100
1, 517059, Note_on_c, 1, 72, 117
1, 517063, Note_off_c, 1, 74, 100
1, 517096, Note_off_c, 4, 58, 100
1, 517097, Note_on_c, 3, 70, 119
1, 517097, Note_on_c, 4, 60, 127
1, 517100, Note_off_c, 1, 72, 100
1, 517134, Note_on_c, 3, 69, 126
1, 517138, Note_off_c, 3, 70, 100
1, 517171, Note_on_c, 4, 62, 127
1, 517171, Note_on_c, 3, 70, 119
1, 517174, Note_off_c, 3, 69, 100
1, 517177, Note_off_c, 4, 60, 100
1, 517208, Note_on_c, 1, 72, 119
1, 517212, Note_off_c, 3, 70, 100
1, 517245, Note_on_c, 1, 74, 117
1, 517248, Note_off_c, 1, 72, 100
1, 517285, Note_on_c, 1, 72, 119
1, 517287, Note_off_c, 1, 74, 100
1, 517320, Note_on_c, 3, 70, 121
1, 517323, Note_off_c, 1, 72, 100
1, 517358, Note_on_c, 3, 68, 126
1, 517362, Note_off_c, 3, 70, 100
1, 517394, Note_off_c, 4, 62, 100
1, 517395, Note_on_c, 4, 50, 127
1, 517395, Note_on_c, 3, 67, 127
1, 517396, Note_on_c, 4, 38, 127
1, 517398, Note_off_c, 3, 68, 100
1, 517431, Note_on_c, 3, 66, 127
1, 517433, Note_off_c, 3, 67, 100
1, 517465, Note_on_c, 3, 67, 127
1, 517466, Note_on_c, 4, 39, 127
1, 517466, Note_on_c, 4, 51, 127
1, 517468, Note_off_c, 3, 66, 100
1, 517470, Note_off_c, 4, 38, 100
1, 517471, Note_off_c, 4, 50, 100
1, 517500, Note_on_c, 3, 69, 126
1, 517504, Note_off_c, 3, 67, 100
1, 517536, Note_on_c, 3, 70, 121
1, 517538, Note_off_c, 3, 69, 100
1, 517575, Note_on_c, 3, 69, 126
1, 517579, Note_off_c, 3, 70, 100
1, 517609, Note_on_c, 3, 67, 127
1, 517613, Note_off_c, 3, 69, 100
1, 517644, Note_on_c, 4, 65, 127
1, 517648, Note_off_c, 3, 67, 100
1, 517679, Note_on_c, 4, 63, 127
1, 517682, Note_off_c, 4, 65, 100
1, 517717, Note_on_c, 4, 62, 127
1, 517721, Note_off_c, 4, 63, 100
1, 517753, Note_on_c, 4, 60, 127
1, 517757, Note_off_c, 4, 62, 100
1, 517793, Note_on_c, 4, 62, 127
1, 517795, Note_off_c, 4, 60, 100
1, 517828, Note_on_c, 4, 63, 127
1, 517831, Note_off_c, 4, 62, 100
1, 517864, Note_on_c, 4, 62, 127
1, 517870, Note_off_c, 4, 63, 100
1, 517905, Note_on_c, 4, 60, 127
1, 517908, Note_off_c, 4, 62, 100
1, 517941, Note_on_c, 4, 58, 127
1, 517944, Note_off_c, 4, 60, 100
1, 517979, Note_on_c, 4, 57, 127
1, 517983, Note_off_c, 4, 58, 100
1, 518018, Note_on_c, 4, 55, 127
1, 518021, Note_off_c, 4, 57, 100
1, 518058, Note_off_c, 4, 51, 100
1, 518058, Note_off_c, 4, 39, 100
1, 518059, Note_on_c, 4, 41, 127
1, 518059, Note_on_c, 4, 53, 127
1, 518060, Note_on_c, 4, 31, 127
1, 518062, Note_off_c, 4, 55, 100
1, 518135, Note_off_c, 4, 53, 100
1, 518136, Note_on_c, 4, 55, 127
1, 518172, Note_on_c, 4, 57, 127
1, 518176, Note_off_c, 4, 55, 100
1, 518211, Note_on_c, 4, 58, 127
1, 518212, Note_off_c, 4, 57, 100
1, 518247, Note_on_c, 4, 60, 127
1, 518251, Note_off_c, 4, 58, 100
1, 518284, Note_on_c, 4, 62, 127
1, 518287, Note_off_c, 4, 60, 100
1, 518320, Note_on_c, 4, 63, 127
1, 518324, Note_off_c, 4, 62, 100
1, 518359, Note_on_c, 3, 67, 127
1, 518362, Note_off_c, 4, 63, 100
1, 518395, Note_on_c, 4, 65, 127
1, 518399, Note_off_c, 3, 67, 100
1, 518432, Note_on_c, 4, 63, 127
1, 518433, Note_off_c, 4, 65, 100
1, 518468, Note_on_c, 4, 62, 127
1, 518472, Note_off_c, 4, 63, 100
1, 518505, Note_on_c, 4, 63, 127
1, 518508, Note_off_c, 4, 62, 100
1, 518541, Note_on_c, 4, 65, 127
1, 518544, Note_off_c, 4, 63, 100
1, 518578, Note_on_c, 3, 67, 127
1, 518581, Note_off_c, 4, 65, 100
1, 518614, Note_on_c, 3, 69, 126
1, 518617, Note_off_c, 3, 67, 100
1, 518647, Note_off_c, 4, 41, 100
1, 518647, Note_off_c, 4, 31, 100
1, 518652, Note_on_c, 4, 46, 127
1, 518652, Note_on_c, 4, 50, 127
1, 518652, Note_on_c, 3, 70, 121
1, 518653, Note_on_c, 4, 41, 127
1, 518657, Note_off_c, 3, 69, 100
1, 518692, Note_on_c, 3, 69, 126
1, 518695, Note_off_c, 3, 70, 100
1, 518728, Note_on_c, 3, 67, 127
1, 518732, Note_off_c, 3, 69, 100
1, 518765, Note_on_c, 4, 65, 127
1, 518769, Note_off_c, 3, 67, 100
1, 518801, Note_on_c, 3, 67, 127
1, 518805, Note_off_c, 4, 65, 100
1, 518840, Note_on_c, 3, 69, 126
1, 518844, Note_off_c, 3, 67, 100
1, 518878, Note_on_c, 3, 70, 121
1, 518881, Note_off_c, 3, 69, 100
1, 518913, Note_on_c, 1, 72, 119
1, 518916, Note_off_c, 3, 70, 100
1, 518942, Note_off_c, 4, 50, 100
1, 518942, Note_off_c, 4, 46, 100
1, 518942, Note_off_c, 4, 41, 100
1, 518949, Note_on_c, 1, 74, 117
1, 518950, Note_on_c, 4, 46, 127
1, 518950, Note_on_c, 4, 50, 127
1, 518951, Note_on_c, 4, 41, 127
1, 518953, Note_off_c, 1, 72, 100
1, 518988, Note_on_c, 1, 72, 119
1, 518991, Note_off_c, 1, 74, 100
1, 519022, Note_on_c, 3, 70, 121
1, 519026, Note_off_c, 1, 72, 100
1, 519060, Note_on_c, 3, 69, 126
1, 519062, Note_off_c, 3, 70, 100
1, 519097, Note_on_c, 3, 70, 121
1, 519101, Note_off_c, 3, 69, 100
1, 519135, Note_on_c, 1, 72, 119
1, 519139, Note_off_c, 3, 70, 100
1, 519174, Note_on_c, 1, 74, 117
1, 519176, Note_off_c, 1, 72, 100
1, 519208, Note_on_c, 1, 75, 115
1, 519212, Note_off_c, 1, 74, 100
1, 519237, Note_off_c, 4, 41, 100
1, 519238, Note_off_c, 4, 50, 100
1, 519238, Note_off_c, 4, 46, 100
1, 519244, Note_on_c, 4, 62, 127
1, 519244, Note_on_c, 1, 77, 115
1, 519245, Note_on_c, 4, 53, 127
1, 519245, Note_on_c, 4, 58, 127
1, 519248, Note_off_c, 1, 75, 100
1, 519280, Note_on_c, 1, 74, 117
1, 519284, Note_off_c, 1, 77, 100
1, 519319, Note_on_c, 1, 77, 115
1, 519321, Note_off_c, 1, 74, 100
1, 519357, Note_on_c, 1, 74, 117
1, 519361, Note_off_c, 1, 77, 100
1, 519394, Note_on_c, 1, 82, 111
1, 519397, Note_off_c, 1, 74, 100
1, 519432, Note_on_c, 1, 77, 115
1, 519434, Note_off_c, 1, 82, 100
1, 519468, Note_on_c, 1, 82, 111
1, 519470, Note_off_c, 1, 77, 100
1, 519503, Note_on_c, 1, 77, 115
1, 519507, Note_off_c, 1, 82, 100
1, 519540, Note_on_c, 1, 86, 118
1, 519543, Note_off_c, 1, 77, 100
1, 519576, Note_on_c, 1, 82, 111
1, 519580, Note_off_c, 1, 86, 100
1, 519611, Note_on_c, 1, 86, 118
1, 519614, Note_off_c, 1, 82, 100
1, 519647, Note_on_c, 1, 82, 111
1, 519651, Note_off_c, 1, 86, 100
1, 519682, Note_on_c, 1, 89, 115
1, 519685, Note_off_c, 1, 82, 100
1, 519718, Note_on_c, 1, 86, 118
1, 519722, Note_off_c, 1, 89, 100
1, 519753, Note_on_c, 1, 89, 115
1, 519755, Note_off_c, 1, 86, 100
1, 519788, Note_on_c, 1, 86, 118
1, 519790, Note_off_c, 1, 89, 100
1, 519821, Note_on_c, 1, 82, 111
1, 519825, Note_off_c, 1, 86, 100
1, 519859, Note_on_c, 1, 86, 118
1, 519861, Note_off_c, 1, 82, 100
1, 519896, Note_on_c, 1, 82, 111
1, 519900, Note_off_c, 1, 86, 100
1, 519932, Note_on_c, 1, 86, 118
1, 519936, Note_off_c, 1, 82, 100
1, 519971, Note_on_c, 1, 77, 115
1, 519974, Note_off_c, 1, 86, 100
1, 520005, Note_on_c, 1, 82, 111
1, 520009, Note_off_c, 1, 77, 100
1, 520044, Note_on_c, 1, 77, 115
1, 520047, Note_off_c, 1, 82, 100
1, 520079, Note_on_c, 1, 82, 111
1, 520082, Note_off_c, 1, 77, 100
1, 520116, Note_on_c, 1, 74, 117
1, 520120, Note_off_c, 1, 82, 100
1, 520153, Note_on_c, 1, 77, 115
1, 520155, Note_off_c, 1, 74, 100
1, 520189, Note_on_c, 1, 74, 117
1, 520191, Note_off_c, 1, 77, 100
1, 520224, Note_on_c, 1, 77, 115
1, 520228, Note_off_c, 1, 74, 100
1, 520261, Note_on_c, 3, 70, 121
1, 520264, Note_off_c, 1, 77, 100
1, 520297, Note_on_c, 1, 74, 117
1, 520301, Note_off_c, 3, 70, 100
1, 520332, Note_on_c, 3, 70, 121
1, 520335, Note_off_c, 1, 74, 100
1, 520368, Note_on_c, 1, 74, 117
1, 520372, Note_off_c, 3, 70, 100
1, 520393, Note_off_c, 4, 53, 100
1, 520394, Note_off_c, 4, 62, 100
1, 520394, Note_off_c, 4, 58, 100
1, 520406, Note_on_c, 4, 65, 127
1, 520406, Note_on_c, 4, 53, 127
1, 520408, Note_off_c, 1, 74, 100
1, 520480, Note_on_c, 4, 62, 127
1, 520547, Note_off_c, 4, 53, 100
1, 520553, Note_on_c, 4, 58, 127
1, 520553, Note_on_c, 1, 77, 115
1, 520590, Note_off_c, 4, 65, 100
1, 520621, Note_off_c, 4, 62, 100
1, 520627, Note_on_c, 4, 62, 127
1, 520694, Note_off_c, 4, 58, 100
1, 520700, Note_on_c, 4, 53, 127
1, 520765, Note_off_c, 4, 62, 100
1, 520765, Note_off_c, 1, 77, 100
1, 520772, Note_on_c, 4, 62, 127
1, 520772, Note_on_c, 1, 79, 111
1, 520809, Note_on_c, 1, 77, 115
1, 520813, Note_off_c, 1, 79, 100
1, 520838, Note_off_c, 4, 53, 100
1, 520844, Note_on_c, 1, 75, 115
1, 520844, Note_on_c, 4, 58, 127
1, 520848, Note_off_c, 1, 77, 100
1, 520879, Note_on_c, 1, 74, 117
1, 520883, Note_off_c, 1, 75, 100
1, 520910, Note_off_c, 4, 62, 100
1, 520916, Note_on_c, 4, 62, 127
1, 520916, Note_on_c, 1, 72, 119
1, 520920, Note_off_c, 1, 74, 100
1, 520953, Note_on_c, 3, 70, 121
1, 520956, Note_off_c, 1, 72, 100
1, 520984, Note_off_c, 3, 70, 100
1, 520984, Note_off_c, 4, 58, 100
1, 520991, Note_on_c, 4, 53, 127
1, 520991, Note_on_c, 3, 70, 121
1, 521015, Note_off_c, 3, 70, 100
1, 521024, Note_on_c, 1, 72, 114
1, 521051, Note_off_c, 1, 72, 100
1, 521061, Note_on_c, 1, 74, 112
1, 521072, Note_off_c, 4, 62, 100
1, 521080, Note_on_c, 4, 63, 127
1, 521088, Note_off_c, 1, 74, 100
1, 521091, Note_on_c, 1, 72, 114
1, 521111, Note_on_c, 1, 74, 112
1, 521118, Note_off_c, 1, 72, 100
1, 521135, Note_off_c, 1, 74, 100
1, 521139, Note_on_c, 1, 72, 114
1, 521159, Note_on_c, 1, 74, 112
1, 521164, Note_off_c, 4, 53, 100
1, 521166, Note_off_c, 1, 72, 100
1, 521172, Note_on_c, 4, 57, 127
1, 521184, Note_off_c, 1, 74, 100
1, 521195, Note_on_c, 1, 72, 114
1, 521214, Note_on_c, 1, 74, 112
1, 521222, Note_off_c, 1, 72, 100
1, 521239, Note_off_c, 1, 74, 100
1, 521243, Note_on_c, 1, 72, 114
1, 521253, Note_off_c, 4, 63, 100
1, 521260, Note_on_c, 4, 63, 127
1, 521266, Note_on_c, 1, 74, 112
1, 521268, Note_off_c, 1, 72, 100
1, 521289, Note_off_c, 1, 74, 100
1, 521295, Note_on_c, 1, 72, 114
1, 521318, Note_on_c, 0, 74, 112
1, 521320, Note_off_c, 1, 72, 100
1, 521341, Note_off_c, 4, 57, 100
1, 521343, Note_off_c, 0, 74, 100
1, 521349, Note_on_c, 1, 72, 114
1, 521349, Note_on_c, 4, 53, 127
1, 521371, Note_off_c, 1, 72, 100
1, 521371, Note_on_c, 0, 74, 112
1, 521395, Note_off_c, 0, 74, 100
1, 521399, Note_on_c, 1, 72, 114
1, 521420, Note_on_c, 0, 74, 112
1, 521422, Note_off_c, 1, 72, 100
1, 521425, Note_off_c, 4, 63, 100
1, 521431, Note_on_c, 4, 63, 127
1, 521443, Note_on_c, 1, 72, 114
1, 521445, Note_off_c, 0, 74, 100
1, 521468, Note_off_c, 1, 72, 100
1, 521477, Note_on_c, 0, 74, 112
1, 521500, Note_off_c, 0, 74, 100
1, 521503, Note_on_c, 1, 72, 114
1, 521507, Note_off_c, 4, 53, 100
1, 521515, Note_on_c, 4, 57, 127
1, 521526, Note_on_c, 0, 74, 112
1, 521527, Note_off_c, 1, 72, 100
1, 521548, Note_off_c, 0, 74, 100
1, 521562, Note_on_c, 1, 72, 114
1, 521585, Note_off_c, 1, 72, 100
1, 521589, Note_off_c, 4, 63, 100
1, 521594, Note_on_c, 2, 70, 121
1, 521595, Note_on_c, 4, 63, 127
1, 521634, Note_on_c, 2, 72, 114
1, 521638, Note_off_c, 2, 70, 100
1, 521665, Note_off_c, 4, 57, 100
1, 521671, Note_on_c, 2, 70, 121
1, 521672, Note_on_c, 4, 58, 127
1, 521672, Note_on_c, 4, 62, 127
1, 521674, Note_off_c, 2, 72, 100
1, 521676, Note_off_c, 4, 63, 100
1, 521741, Note_off_c, 2, 70, 100
1, 521747, Note_on_c, 2, 70, 121
1, 521820, Note_off_c, 4, 62, 100
1, 521820, Note_off_c, 4, 58, 100
1, 521825, Note_on_c, 4, 58, 127
1, 521825, Note_on_c, 4, 62, 127
1, 521897, Note_off_c, 2, 70, 100
1, 521901, Note_on_c, 2, 70, 121
1, 521970, Note_off_c, 2, 70, 100
1, 521974, Note_on_c, 2, 70, 121
1, 522045, Note_off_c, 2, 70, 100
1, 522050, Note_on_c, 2, 70, 121
1, 522120, Note_off_c, 4, 62, 100
1, 522120, Note_off_c, 4, 58, 100
1, 522126, Note_on_c, 4, 62, 127
1, 522127, Note_on_c, 4, 58, 127
1, 522198, Note_off_c, 2, 70, 100
1, 522202, Note_on_c, 2, 70, 121
1, 522273, Note_off_c, 2, 70, 100
1, 522274, Note_off_c, 4, 62, 100
1, 522274, Note_off_c, 4, 58, 100
1, 522278, Note_on_c, 2, 72, 119
1, 522278, Note_on_c, 2, 69, 126
1, 522279, Note_on_c, 4, 58, 127
1, 522349, Note_off_c, 2, 72, 100
1, 522353, Note_on_c, 2, 72, 119
1, 522428, Note_off_c, 4, 58, 100
1, 522428, Note_off_c, 2, 69, 100
1, 522431, Note_on_c, 4, 58, 127
1, 522431, Note_on_c, 2, 69, 126
1, 522503, Note_off_c, 2, 72, 100
1, 522506, Note_on_c, 2, 72, 119
1, 522579, Note_off_c, 2, 72, 100
1, 522582, Note_on_c, 2, 72, 119
1, 522651, Note_off_c, 2, 72, 100
1, 522656, Note_on_c, 2, 72, 119
1, 522727, Note_off_c, 2, 69, 100
1, 522727, Note_off_c, 4, 58, 100
1, 522731, Note_on_c, 2, 69, 126
1, 522732, Note_on_c, 4, 58, 127
1, 522803, Note_off_c, 2, 72, 100
1, 522807, Note_on_c, 2, 72, 119
1, 522876, Note_off_c, 4, 58, 100
1, 522876, Note_off_c, 2, 69, 100
1, 522877, Note_off_c, 2, 72, 100
1, 522879, Note_on_c, 2, 74, 117
1, 522880, Note_on_c, 4, 58, 127
1, 522880, Note_on_c, 2, 69, 126
1, 522951, Note_off_c, 2, 74, 100
1, 522955, Note_on_c, 2, 74, 117
1, 523024, Note_off_c, 2, 69, 100
1, 523024, Note_off_c, 4, 58, 100
1, 523029, Note_on_c, 2, 69, 126
1, 523030, Note_on_c, 4, 58, 127
1, 523101, Note_off_c, 2, 74, 100
1, 523105, Note_on_c, 2, 74, 117
1, 523176, Note_off_c, 2, 74, 100
1, 523176, Note_off_c, 4, 58, 100
1, 523176, Note_off_c, 2, 69, 100
1, 523179, Note_on_c, 2, 67, 127
1, 523179, Note_on_c, 2, 75, 115
1, 523180, Note_on_c, 4, 58, 127
1, 523248, Note_off_c, 2, 75, 100
1, 523251, Note_on_c, 2, 75, 115
1, 523323, Note_off_c, 4, 58, 100
1, 523324, Note_off_c, 2, 67, 100
1, 523327, Note_on_c, 4, 58, 127
1, 523397, Note_off_c, 2, 75, 100
1, 523401, Note_on_c, 1, 76, 112
1, 523467, Note_off_c, 4, 58, 100
1, 523468, Note_off_c, 1, 76, 100
1, 523471, Note_on_c, 1, 77, 115
1, 523471, Note_on_c, 4, 62, 127
1, 523472, Note_on_c, 4, 58, 127
1, 523541, Note_off_c, 1, 77, 100
1, 523545, Note_on_c, 1, 77, 115
1, 523610, Note_off_c, 4, 58, 100
1, 523610, Note_off_c, 4, 62, 100
1, 523616, Note_on_c, 4, 58, 127
1, 523616, Note_on_c, 4, 62, 127
1, 523684, Note_off_c, 1, 77, 100
1, 523688, Note_on_c, 1, 78, 112
1, 523755, Note_off_c, 4, 62, 100
1, 523755, Note_off_c, 4, 58, 100
1, 523756, Note_off_c, 1, 78, 100
1, 523758, Note_on_c, 1, 79, 111
1, 523758, Note_on_c, 4, 63, 127
1, 523759, Note_on_c, 4, 58, 127
1, 523826, Note_off_c, 1, 79, 100
1, 523830, Note_on_c, 1, 79, 111
1, 523899, Note_off_c, 4, 58, 100
1, 523899, Note_off_c, 4, 63, 100
1, 523900, Note_off_c, 1, 79, 100
1, 523904, Note_on_c, 4, 60, 127
1, 523904, Note_on_c, 1, 81, 111
1, 523905, Note_on_c, 4, 58, 127
1, 523976, Note_off_c, 1, 81, 100
1, 523980, Note_on_c, 1, 81, 115
1, 524046, Note_off_c, 1, 81, 100
1, 524048, Note_off_c, 4, 60, 100
1, 524048, Note_off_c, 4, 58, 100
1, 524051, Note_on_c, 1, 74, 120
1, 524051, Note_on_c, 4, 58, 127
1, 524052, Note_on_c, 4, 46, 127
1, 524087, Note_on_c, 1, 82, 115
1, 524122, Note_off_c, 4, 46, 100
1, 524122, Note_off_c, 4, 58, 100
1, 524124, Note_on_c, 1, 86, 118
1, 524125, Note_on_c, 4, 46, 127
1, 524125, Note_on_c, 4, 58, 127
1, 524156, Note_off_c, 1, 82, 100
1, 524162, Note_on_c, 1, 82, 115
1, 524193, Note_off_c, 1, 86, 100
1, 524198, Note_on_c, 1, 86, 118
1, 524231, Note_off_c, 1, 82, 100
1, 524235, Note_on_c, 1, 82, 115
1, 524266, Note_off_c, 1, 86, 100
1, 524268, Note_off_c, 4, 58, 100
1, 524268, Note_off_c, 4, 46, 100
1, 524272, Note_on_c, 1, 86, 118
1, 524273, Note_on_c, 4, 58, 127
1, 524273, Note_on_c, 4, 46, 127
1, 524304, Note_off_c, 1, 82, 100
1, 524310, Note_on_c, 1, 82, 115
1, 524340, Note_off_c, 1, 74, 100
1, 524341, Note_off_c, 1, 86, 100
1, 524347, Note_on_c, 1, 74, 120
1, 524348, Note_on_c, 4, 50, 127
1, 524348, Note_on_c, 4, 62, 127
1, 524353, Note_off_c, 4, 46, 100
1, 524353, Note_off_c, 4, 58, 100
1, 524377, Note_off_c, 1, 82, 100
1, 524383, Note_on_c, 1, 82, 115
1, 524415, Note_off_c, 4, 50, 100
1, 524416, Note_off_c, 4, 62, 100
1, 524418, Note_on_c, 1, 86, 118
1, 524419, Note_on_c, 4, 62, 127
1, 524419, Note_on_c, 4, 50, 127
1, 524450, Note_off_c, 1, 82, 100
1, 524456, Note_on_c, 1, 82, 115
1, 524486, Note_off_c, 1, 86, 100
1, 524492, Note_on_c, 1, 86, 118
1, 524521, Note_off_c, 1, 82, 100
1, 524527, Note_on_c, 1, 82, 115
1, 524557, Note_off_c, 1, 86, 100
1, 524561, Note_off_c, 4, 50, 100
1, 524562, Note_off_c, 4, 62, 100
1, 524562, Note_on_c, 1, 86, 118
1, 524563, Note_on_c, 4, 58, 127
1, 524563, Note_on_c, 4, 46, 127
1, 524592, Note_off_c, 1, 82, 100
1, 524598, Note_on_c, 1, 82, 115
1, 524628, Note_off_c, 1, 74, 100
1, 524629, Note_off_c, 1, 86, 100
1, 524633, Note_on_c, 1, 74, 120
1, 524634, Note_on_c, 4, 43, 127
1, 524634, Note_on_c, 4, 55, 127
1, 524640, Note_off_c, 4, 46, 100
1, 524640, Note_off_c, 4, 58, 100
1, 524666, Note_off_c, 1, 82, 100
1, 524672, Note_on_c, 1, 82, 115
1, 524704, Note_off_c, 4, 43, 100
1, 524705, Note_off_c, 4, 55, 100
1, 524707, Note_on_c, 1, 86, 118
1, 524708, Note_on_c, 4, 55, 127
1, 524708, Note_on_c, 4, 43, 127
1, 524739, Note_off_c, 1, 82, 100
1, 524745, Note_on_c, 1, 82, 115
1, 524775, Note_off_c, 1, 86, 100
1, 524781, Note_on_c, 1, 86, 118
1, 524812, Note_off_c, 1, 82, 100
1, 524818, Note_on_c, 1, 82, 115
1, 524849, Note_off_c, 1, 86, 100
1, 524850, Note_off_c, 4, 43, 100
1, 524851, Note_off_c, 4, 55, 100
1, 524855, Note_on_c, 1, 86, 118
1, 524856, Note_on_c, 4, 43, 127
1, 524856, Note_on_c, 4, 55, 127
1, 524885, Note_off_c, 1, 82, 100
1, 524891, Note_on_c, 1, 82, 115
1, 524919, Note_off_c, 1, 74, 100
1, 524921, Note_off_c, 1, 86, 100
1, 524927, Note_on_c, 1, 74, 120
1, 524928, Note_on_c, 4, 58, 127
1, 524928, Note_on_c, 4, 46, 127
1, 524933, Note_off_c, 4, 55, 100
1, 524933, Note_off_c, 4, 43, 100
1, 524957, Note_off_c, 1, 82, 100
1, 524963, Note_on_c, 1, 82, 115
1, 524997, Note_off_c, 4, 46, 100
1, 524998, Note_off_c, 4, 58, 100
1, 525000, Note_on_c, 4, 58, 127
1, 525000, Note_on_c, 1, 86, 118
1, 525001, Note_on_c, 4, 46, 127
1, 525032, Note_off_c, 1, 82, 100
1, 525038, Note_on_c, 1, 82, 115
1, 525068, Note_off_c, 1, 86, 100
1, 525074, Note_on_c, 1, 86, 118
1, 525103, Note_off_c, 1, 82, 100
1, 525109, Note_on_c, 1, 82, 115
1, 525140, Note_off_c, 1, 86, 100
1, 525144, Note_off_c, 4, 46, 100
1, 525145, Note_off_c, 4, 58, 100
1, 525145, Note_on_c, 1, 86, 118
1, 525145, Note_on_c, 4, 55, 127
1, 525146, Note_on_c, 4, 43, 127
1, 525177, Note_off_c, 1, 82, 100
1, 525183, Note_on_c, 1, 82, 115
1, 525213, Note_off_c, 1, 74, 100
1, 525214, Note_off_c, 1, 86, 100
1, 525218, Note_on_c, 1, 74, 120
1, 525219, Note_on_c, 4, 50, 127
1, 525219, Note_on_c, 4, 38, 127
1, 525224, Note_off_c, 4, 43, 100
1, 525225, Note_off_c, 4, 55, 100
1, 525250, Note_off_c, 1, 82, 100
1, 525256, Note_on_c, 1, 82, 115
1, 525290, Note_off_c, 4, 38, 100
1, 525290, Note_off_c, 4, 50, 100
1, 525291, Note_on_c, 4, 50, 127
1, 525291, Note_on_c, 1, 86, 118
1, 525292, Note_on_c, 4, 38, 127
1, 525321, Note_off_c, 1, 82, 100
1, 525327, Note_on_c, 1, 82, 115
1, 525356, Note_off_c, 1, 86, 100
1, 525361, Note_on_c, 1, 86, 118
1, 525392, Note_off_c, 1, 82, 100
1, 525398, Note_on_c, 1, 82, 115
1, 525428, Note_off_c, 1, 86, 100
1, 525429, Note_off_c, 4, 50, 100
1, 525429, Note_off_c, 4, 38, 100
1, 525434, Note_on_c, 1, 86, 118
1, 525435, Note_on_c, 4, 50, 127
1, 525435, Note_on_c, 4, 38, 127
1, 525464, Note_off_c, 1, 82, 100
1, 525470, Note_on_c, 1, 82, 115
1, 525501, Note_off_c, 1, 86, 100
1, 525501, Note_off_c, 1, 74, 100
1, 525506, Note_on_c, 1, 74, 120
1, 525507, Note_on_c, 4, 51, 127
1, 525507, Note_on_c, 4, 39, 127
1, 525512, Note_off_c, 4, 38, 100
1, 525513, Note_off_c, 4, 50, 100
1, 525536, Note_off_c, 1, 82, 100
1, 525542, Note_on_c, 1, 82, 115
1, 525572, Note_off_c, 4, 39, 100
1, 525573, Note_off_c, 4, 51, 100
1, 525576, Note_on_c, 4, 39, 127
1, 525576, Note_on_c, 4, 51, 127
1, 525576, Note_on_c, 1, 86, 118
1, 525606, Note_off_c, 1, 82, 100
1, 525610, Note_on_c, 1, 82, 115
1, 525641, Note_off_c, 1, 86, 100
1, 525648, Note_on_c, 1, 86, 118
1, 525648, Note_on_c, 4, 52, 127
1, 525648, Note_on_c, 4, 40, 127
1, 525652, Note_off_c, 4, 39, 100
1, 525653, Note_off_c, 4, 51, 100
1, 525678, Note_off_c, 1, 82, 100
1, 525684, Note_on_c, 1, 82, 115
1, 525717, Note_off_c, 1, 86, 100
1, 525719, Note_off_c, 4, 40, 100
1, 525719, Note_off_c, 4, 52, 100
1, 525721, Note_on_c, 1, 86, 118
1, 525722, Note_on_c, 4, 52, 127
1, 525722, Note_on_c, 4, 40, 127
1, 525751, Note_off_c, 1, 82, 100
1, 525757, Note_on_c, 1, 82, 115
1, 525786, Note_off_c, 1, 86, 100
1, 525786, Note_off_c, 1, 74, 100
1, 525789, Note_off_c, 1, 82, 100
1, 525792, Note_on_c, 1, 77, 118
1, 525792, Note_on_c, 1, 82, 115
1, 525792, Note_on_c, 1, 86, 118
1, 525793, Note_on_c, 4, 53, 127
1, 525794, Note_on_c, 4, 41, 127
1, 525798, Note_off_c, 4, 40, 100
1, 525799, Note_off_c, 4, 52, 100
1, 526081, Note_off_c, 1, 82, 100
1, 526082, Note_off_c, 1, 86, 100
1, 526119, Note_off_c, 1, 77, 100
1, 526156, Note_on_c, 2, 65, 125
1, 526195, Note_on_c, 2, 69, 114
1, 526200, Note_off_c, 2, 65, 100
1, 526232, Note_on_c, 2, 67, 119
1, 526236, Note_off_c, 2, 69, 100
1, 526269, Note_on_c, 2, 70, 111
1, 526272, Note_off_c, 2, 67, 100
1, 526307, Note_on_c, 2, 69, 119
1, 526311, Note_off_c, 2, 70, 100
1, 526345, Note_on_c, 2, 72, 113
1, 526349, Note_off_c, 2, 69, 100
1, 526384, Note_on_c, 2, 70, 115
1, 526386, Note_off_c, 2, 72, 100
1, 526457, Note_on_c, 2, 69, 123
1, 526463, Note_off_c, 2, 70, 100
1, 526495, Note_on_c, 2, 72, 116
1, 526499, Note_off_c, 2, 69, 100
1, 526532, Note_on_c, 2, 70, 118
1, 526536, Note_off_c, 2, 72, 100
1, 526570, Note_on_c, 1, 74, 117
1, 526574, Note_off_c, 2, 70, 100
1, 526607, Note_on_c, 2, 72, 116
1, 526610, Note_off_c, 1, 74, 100
1, 526644, Note_on_c, 1, 75, 115
1, 526646, Note_off_c, 2, 72, 100
1, 526680, Note_on_c, 1, 74, 117
1, 526684, Note_off_c, 1, 75, 100
1, 526750, Note_on_c, 2, 72, 119
1, 526757, Note_off_c, 1, 74, 100
1, 526788, Note_on_c, 1, 75, 115
1, 526792, Note_off_c, 2, 72, 100
1, 526824, Note_on_c, 1, 74, 117
1, 526828, Note_off_c, 1, 75, 100
1, 526861, Note_on_c, 1, 77, 115
1, 526865, Note_off_c, 1, 74, 100
1, 526896, Note_on_c, 1, 75, 118
1, 526899, Note_off_c, 1, 77, 100
1, 526932, Note_on_c, 1, 79, 114
1, 526936, Note_off_c, 1, 75, 100
1, 526959, Note_off_c, 4, 41, 100
1, 526960, Note_off_c, 4, 53, 100
1, 526971, Note_on_c, 1, 77, 118
1, 526972, Note_on_c, 4, 53, 127
1, 526974, Note_off_c, 1, 79, 100
1, 527045, Note_on_c, 4, 62, 127
1, 527114, Note_off_c, 4, 53, 100
1, 527120, Note_on_c, 4, 58, 127
1, 527187, Note_off_c, 4, 62, 100
1, 527193, Note_off_c, 1, 77, 100
1, 527194, Note_on_c, 4, 62, 127
1, 527194, Note_on_c, 1, 74, 120
1, 527257, Note_off_c, 4, 58, 100
1, 527265, Note_on_c, 3, 70, 124
1, 527266, Note_on_c, 4, 53, 127
1, 527270, Note_off_c, 1, 74, 100
1, 527331, Note_off_c, 4, 62, 100
1, 527339, Note_on_c, 4, 62, 127
1, 527403, Note_off_c, 4, 53, 100
1, 527404, Note_off_c, 3, 70, 100
1, 527408, Note_on_c, 3, 70, 124
1, 527409, Note_on_c, 4, 58, 127
1, 527473, Note_off_c, 4, 62, 100
1, 527479, Note_on_c, 4, 62, 127
1, 527543, Note_off_c, 4, 58, 100
1, 527549, Note_off_c, 3, 70, 100
1, 527549, Note_on_c, 1, 75, 118
1, 527550, Note_on_c, 4, 53, 127
1, 527605, Note_off_c, 1, 75, 100
1, 527611, Note_off_c, 4, 62, 100
1, 527617, Note_on_c, 4, 63, 127
1, 527617, Note_on_c, 1, 77, 118
1, 527631, Note_off_c, 1, 77, 100
1, 527639, Note_on_c, 1, 75, 118
1, 527652, Note_off_c, 1, 75, 100
1, 527658, Note_on_c, 1, 74, 120
1, 527672, Note_off_c, 1, 74, 100
1, 527678, Note_on_c, 1, 75, 118
1, 527692, Note_off_c, 4, 53, 100
1, 527698, Note_on_c, 1, 79, 114
1, 527698, Note_on_c, 4, 60, 127
1, 527699, Note_off_c, 1, 75, 100
1, 527762, Note_off_c, 4, 63, 100
1, 527768, Note_on_c, 4, 63, 127
1, 527835, Note_off_c, 4, 60, 100
1, 527841, Note_off_c, 1, 79, 100
1, 527841, Note_on_c, 3, 69, 127
1, 527842, Note_on_c, 4, 53, 127
1, 527905, Note_off_c, 4, 63, 100
1, 527911, Note_on_c, 4, 63, 127
1, 527976, Note_off_c, 4, 53, 100
1, 527982, Note_on_c, 4, 60, 127
1, 528045, Note_off_c, 4, 63, 100
1, 528051, Note_on_c, 4, 63, 127
1, 528116, Note_off_c, 4, 60, 100
1, 528124, Note_off_c, 3, 69, 100
1, 528124, Note_on_c, 1, 77, 118
1, 528125, Note_on_c, 4, 53, 127
1, 528190, Note_off_c, 4, 63, 100
1, 528196, Note_on_c, 4, 62, 127
1, 528261, Note_off_c, 4, 53, 100
1, 528267, Note_on_c, 4, 58, 127
1, 528334, Note_off_c, 4, 62, 100
1, 528335, Note_off_c, 1, 77, 100
1, 528339, Note_on_c, 1, 73, 125
1, 528339, Note_on_c, 4, 62, 127
1, 528403, Note_off_c, 4, 58, 100
1, 528411, Note_on_c, 3, 70, 124
1, 528411, Note_on_c, 4, 53, 127
1, 528416, Note_off_c, 1, 73, 100
1, 528477, Note_off_c, 4, 62, 100
1, 528481, Note_off_c, 3, 70, 100
1, 528483, Note_on_c, 3, 70, 124
1, 528483, Note_on_c, 4, 62, 127
1, 528551, Note_off_c, 4, 53, 100
1, 528553, Note_off_c, 3, 70, 100
1, 528557, Note_on_c, 3, 70, 124
1, 528557, Note_on_c, 4, 58, 127
1, 528623, Note_off_c, 4, 62, 100
1, 528627, Note_off_c, 3, 70, 100
1, 528629, Note_on_c, 4, 62, 127
1, 528629, Note_on_c, 3, 70, 124
1, 528697, Note_off_c, 4, 58, 100
1, 528703, Note_on_c, 1, 75, 118
1, 528703, Note_on_c, 4, 53, 127
1, 528708, Note_off_c, 3, 70, 100
1, 528759, Note_off_c, 1, 75, 100
1, 528765, Note_off_c, 4, 62, 100
1, 528771, Note_on_c, 1, 77, 118
1, 528771, Note_on_c, 4, 63, 127
1, 528785, Note_off_c, 1, 77, 100
1, 528791, Note_on_c, 1, 75, 118
1, 528804, Note_off_c, 1, 75, 100
1, 528812, Note_on_c, 1, 74, 120
1, 528826, Note_off_c, 1, 74, 100
1, 528832, Note_on_c, 1, 75, 118
1, 528844, Note_off_c, 4, 53, 100
1, 528850, Note_on_c, 1, 78, 115
1, 528850, Note_on_c, 4, 60, 127
1, 528852, Note_off_c, 1, 75, 100
1, 528914, Note_off_c, 4, 63, 100
1, 528922, Note_on_c, 4, 63, 127
1, 528985, Note_off_c, 4, 60, 100
1, 528991, Note_off_c, 1, 78, 100
1, 528991, Note_on_c, 3, 69, 127
1, 528992, Note_on_c, 4, 53, 127
1, 529057, Note_off_c, 4, 63, 100
1, 529063, Note_on_c, 4, 63, 127
1, 529128, Note_off_c, 4, 53, 100
1, 529134, Note_on_c, 4, 60, 127
1, 529197, Note_off_c, 4, 63, 100
1, 529203, Note_on_c, 4, 63, 127
1, 529209, Note_off_c, 4, 60, 100
1, 529270, Note_off_c, 3, 69, 100
1, 529276, Note_on_c, 4, 61, 127
1, 529276, Note_on_c, 3, 70, 124
1, 529277, Note_on_c, 4, 54, 127
1, 529283, Note_off_c, 4, 63, 100
1, 529350, Note_on_c, 1, 82, 111
1, 529356, Note_off_c, 3, 70, 100
1, 529419, Note_on_c, 1, 84, 116
1, 529425, Note_off_c, 1, 82, 100
1, 529490, Note_on_c, 1, 85, 116
1, 529496, Note_off_c, 1, 84, 100
1, 529567, Note_on_c, 1, 84, 116
1, 529572, Note_off_c, 1, 85, 100
1, 529638, Note_on_c, 1, 82, 111
1, 529644, Note_off_c, 1, 84, 100
1, 529709, Note_on_c, 1, 80, 111
1, 529715, Note_off_c, 1, 82, 100
1, 529776, Note_on_c, 1, 78, 112
1, 529782, Note_off_c, 1, 80, 100
1, 529839, Note_off_c, 4, 54, 100
1, 529846, Note_off_c, 4, 61, 100
1, 529846, Note_on_c, 1, 77, 115
1, 529847, Note_on_c, 4, 54, 127
1, 529852, Note_off_c, 1, 78, 100
1, 529920, Note_on_c, 4, 58, 127
1, 529994, Note_on_c, 4, 60, 127
1, 530000, Note_off_c, 4, 58, 100
1, 530069, Note_on_c, 4, 61, 127
1, 530075, Note_off_c, 4, 60, 100
1, 530136, Note_off_c, 4, 61, 100
1, 530140, Note_off_c, 1, 77, 100
1, 530141, Note_on_c, 1, 76, 112
1, 530141, Note_on_c, 4, 61, 127
1, 530208, Note_on_c, 4, 60, 127
1, 530214, Note_off_c, 4, 61, 100
1, 530274, Note_off_c, 4, 60, 100
1, 530280, Note_on_c, 4, 60, 127
1, 530351, Note_on_c, 4, 58, 127
1, 530354, Note_off_c, 4, 60, 100
1, 530416, Note_off_c, 1, 76, 100
1, 530416, Note_off_c, 4, 54, 100
1, 530417, Note_on_c, 0, 77, 115
1, 530417, Note_on_c, 4, 57, 127
1, 530418, Note_on_c, 4, 53, 127
1, 530424, Note_off_c, 4, 58, 100
1, 530486, Note_off_c, 0, 77, 100
1, 530491, Note_on_c, 0, 77, 115
1, 530561, Note_off_c, 4, 53, 100
1, 530562, Note_off_c, 4, 57, 100
1, 530567, Note_on_c, 4, 57, 127
1, 530567, Note_on_c, 4, 53, 127
1, 530637, Note_off_c, 0, 77, 100
1, 530639, Note_on_c, 0, 77, 115
1, 530712, Note_off_c, 0, 77, 100
1, 530713, Note_on_c, 0, 77, 115
1, 530782, Note_off_c, 0, 77, 100
1, 530784, Note_on_c, 0, 77, 115
1, 530853, Note_off_c, 4, 53, 100
1, 530853, Note_off_c, 4, 57, 100
1, 530857, Note_on_c, 4, 57, 127
1, 530858, Note_on_c, 4, 53, 127
1, 530926, Note_off_c, 0, 77, 100
1, 530928, Note_on_c, 0, 77, 115
1, 530999, Note_off_c, 4, 57, 100
1, 530999, Note_off_c, 4, 53, 100
1, 531000, Note_off_c, 0, 77, 100
1, 531001, Note_on_c, 0, 77, 115
1, 531002, Note_on_c, 4, 55, 127
1, 531002, Note_on_c, 4, 58, 127
1, 531003, Note_on_c, 4, 53, 127
1, 531072, Note_off_c, 0, 77, 100
1, 531076, Note_on_c, 0, 77, 115
1, 531144, Note_off_c, 4, 58, 100
1, 531144, Note_off_c, 4, 55, 100
1, 531144, Note_off_c, 4, 53, 100
1, 531146, Note_on_c, 4, 58, 127
1, 531147, Note_on_c, 4, 53, 127
1, 531147, Note_on_c, 4, 55, 127
1, 531216, Note_off_c, 0, 77, 100
1, 531220, Note_on_c, 3, 77, 115
1, 531289, Note_off_c, 3, 77, 100
1, 531291, Note_on_c, 3, 77, 115
1, 531360, Note_off_c, 3, 77, 100
1, 531364, Note_on_c, 0, 77, 115
1, 531428, Note_off_c, 4, 55, 100
1, 531428, Note_off_c, 4, 53, 100
1, 531429, Note_off_c, 4, 58, 100
1, 531434, Note_on_c, 4, 59, 127
1, 531435, Note_on_c, 4, 56, 127
1, 531435, Note_on_c, 4, 53, 127
1, 531504, Note_off_c, 0, 77, 100
1, 531507, Note_on_c, 0, 77, 115
1, 531573, Note_off_c, 4, 53, 100
1, 531573, Note_off_c, 4, 56, 100
1, 531574, Note_off_c, 0, 77, 100
1, 531574, Note_off_c, 4, 59, 100
1, 531576, Note_on_c, 0, 77, 115
1, 531577, Note_on_c, 4, 57, 127
1, 531577, Note_on_c, 4, 60, 127
1, 531578, Note_on_c, 4, 53, 127
1, 531648, Note_off_c, 0, 77, 100
1, 531649, Note_on_c, 0, 77, 115
1, 531719, Note_off_c, 4, 60, 100
1, 531719, Note_off_c, 4, 57, 100
1, 531723, Note_on_c, 4, 61, 127
1, 531724, Note_on_c, 4, 57, 127
1, 531792, Note_off_c, 0, 77, 100
1, 531795, Note_on_c, 0, 77, 115
1, 531861, Note_off_c, 4, 53, 100
1, 531863, Note_off_c, 4, 61, 100
1, 531863, Note_off_c, 4, 57, 100
1, 531864, Note_off_c, 0, 77, 100
1, 531865, Note_on_c, 0, 77, 115
1, 531866, Note_on_c, 4, 62, 127
1, 531866, Note_on_c, 4, 58, 127
1, 531867, Note_on_c, 4, 53, 127
1, 531935, Note_off_c, 0, 77, 100
1, 531936, Note_on_c, 0, 77, 115
1, 532004, Note_off_c, 4, 58, 100
1, 532004, Note_off_c, 4, 62, 100
1, 532007, Note_on_c, 4, 59, 127
1, 532007, Note_on_c, 4, 62, 127
1, 532077, Note_off_c, 0, 77, 100
1, 532080, Note_on_c, 0, 77, 115
1, 532146, Note_off_c, 4, 53, 100
1, 532148, Note_off_c, 4, 62, 100
1, 532148, Note_off_c, 4, 59, 100
1, 532149, Note_off_c, 0, 77, 100
1, 532151, Note_on_c, 0, 77, 115
1, 532152, Note_on_c, 4, 53, 127
1, 532152, Note_on_c, 4, 60, 127
1, 532152, Note_on_c, 4, 63, 127
1, 532222, Note_off_c, 0, 77, 100
1, 532225, Note_on_c, 1, 81, 111
1, 532295, Note_off_c, 1, 81, 100
1, 532297, Note_on_c, 1, 81, 111
1, 532366, Note_off_c, 1, 81, 100
1, 532370, Note_on_c, 1, 84, 116
1, 532435, Note_off_c, 1, 84, 100
1, 532439, Note_on_c, 1, 84, 116
1, 532506, Note_off_c, 1, 84, 100
1, 532508, Note_on_c, 1, 87, 115
1, 532577, Note_off_c, 1, 87, 100
1, 532581, Note_on_c, 1, 87, 115
1, 532648, Note_off_c, 1, 87, 100
1, 532650, Note_on_c, 1, 84, 116
1, 532717, Note_off_c, 1, 84, 100
1, 532721, Note_on_c, 1, 84, 116
1, 532790, Note_off_c, 1, 84, 100
1, 532792, Note_on_c, 1, 81, 111
1, 532858, Note_off_c, 1, 81, 100
1, 532860, Note_on_c, 1, 81, 111
1, 532930, Note_off_c, 1, 81, 100
1, 532932, Note_on_c, 1, 77, 115
1, 533002, Note_off_c, 1, 77, 100
1, 533005, Note_on_c, 1, 77, 115
1, 533073, Note_off_c, 1, 77, 100
1, 533075, Note_on_c, 1, 76, 112
1, 533142, Note_off_c, 1, 76, 100
1, 533144, Note_on_c, 1, 76, 112
1, 533211, Note_off_c, 1, 76, 100
1, 533215, Note_on_c, 1, 77, 115
1, 533261, Note_off_c, 4, 60, 100
1, 533261, Note_off_c, 4, 53, 100
1, 533262, Note_off_c, 4, 63, 100
1, 533280, Note_off_c, 1, 77, 100
1, 533283, Note_on_c, 1, 77, 115
1, 533283, Note_on_c, 4, 53, 127
1, 533351, Note_off_c, 1, 77, 100
1, 533353, Note_on_c, 1, 76, 112
1, 533353, Note_on_c, 4, 57, 127
1, 533360, Note_off_c, 4, 53, 100
1, 533421, Note_off_c, 4, 57, 100
1, 533422, Note_off_c, 1, 76, 100
1, 533422, Note_on_c, 1, 75, 115
1, 533423, Note_on_c, 4, 57, 127
1, 533489, Note_off_c, 4, 57, 100
1, 533491, Note_on_c, 4, 60, 127
1, 533560, Note_off_c, 4, 60, 100
1, 533562, Note_on_c, 4, 60, 127
1, 533626, Note_off_c, 4, 60, 100
1, 533626, Note_on_c, 4, 63, 127
1, 533689, Note_off_c, 1, 75, 100
1, 533693, Note_off_c, 4, 63, 100
1, 533695, Note_on_c, 4, 63, 127
1, 533695, Note_on_c, 1, 75, 115
1, 533767, Note_off_c, 4, 63, 100
1, 533769, Note_on_c, 4, 60, 127
1, 533836, Note_off_c, 1, 75, 100
1, 533838, Note_off_c, 4, 60, 100
1, 533840, Note_on_c, 1, 75, 115
1, 533840, Note_on_c, 4, 60, 127
1, 533908, Note_off_c, 4, 60, 100
1, 533912, Note_on_c, 4, 57, 127
1, 533977, Note_off_c, 4, 57, 100
1, 533977, Note_off_c, 1, 75, 100
1, 533980, Note_on_c, 4, 57, 127
1, 533980, Note_on_c, 1, 75, 115
1, 534050, Note_on_c, 4, 53, 127
1, 534056, Note_off_c, 4, 57, 100
1, 534121, Note_off_c, 1, 75, 100
1, 534125, Note_on_c, 1, 75, 115
1, 534125, Note_on_c, 4, 54, 127
1, 534130, Note_off_c, 4, 53, 100
1, 534195, Note_on_c, 4, 55, 127
1, 534201, Note_off_c, 4, 54, 100
1, 534262, Note_off_c, 1, 75, 100
1, 534266, Note_on_c, 1, 75, 115
1, 534266, Note_on_c, 4, 56, 127
1, 534273, Note_off_c, 4, 55, 100
1, 534334, Note_on_c, 4, 57, 127
1, 534340, Note_off_c, 4, 56, 100
1, 534396, Note_off_c, 4, 57, 100
1, 534397, Note_off_c, 1, 75, 100
1, 534401, Note_on_c, 1, 74, 117
1, 534402, Note_on_c, 4, 58, 127
1, 534471, Note_off_c, 4, 58, 100
1, 534473, Note_on_c, 4, 58, 127
1, 534540, Note_off_c, 1, 74, 100
1, 534545, Note_on_c, 1, 77, 115
1, 534545, Note_on_c, 3, 68, 126
1, 534611, Note_off_c, 4, 58, 100
1, 534615, Note_on_c, 4, 58, 127
1, 534682, Note_off_c, 4, 58, 100
1, 534684, Note_off_c, 3, 68, 100
1, 534684, Note_off_c, 1, 77, 100
1, 534685, Note_on_c, 3, 67, 127
1, 534685, Note_on_c, 1, 75, 115
1, 534686, Note_on_c, 4, 58, 127
1, 534752, Note_off_c, 4, 58, 100
1, 534754, Note_on_c, 4, 58, 127
1, 534823, Note_off_c, 3, 67, 100
1, 534824, Note_off_c, 1, 75, 100
1, 534824, Note_on_c, 1, 74, 117
1, 534825, Note_on_c, 3, 66, 127
1, 534886, Note_off_c, 4, 58, 100
1, 534890, Note_on_c, 4, 58, 127
1, 534957, Note_off_c, 4, 58, 100
1, 534960, Note_off_c, 3, 66, 100
1, 534960, Note_off_c, 1, 74, 100
1, 534960, Note_on_c, 1, 75, 115
1, 534961, Note_on_c, 3, 67, 127
1, 534961, Note_on_c, 4, 58, 127
1, 535030, Note_off_c, 4, 58, 100
1, 535032, Note_on_c, 4, 58, 127
1, 535102, Note_off_c, 3, 67, 100
1, 535102, Note_off_c, 1, 75, 100
1, 535103, Note_on_c, 3, 70, 121
1, 535103, Note_on_c, 1, 79, 111
1, 535170, Note_off_c, 4, 58, 100
1, 535173, Note_on_c, 4, 58, 127
1, 535238, Note_off_c, 4, 58, 100
1, 535241, Note_off_c, 1, 79, 100
1, 535241, Note_off_c, 3, 70, 100
1, 535242, Note_on_c, 1, 77, 115
1, 535242, Note_on_c, 3, 68, 126
1, 535243, Note_on_c, 4, 58, 127
1, 535309, Note_off_c, 4, 58, 100
1, 535313, Note_on_c, 4, 58, 127
1, 535378, Note_off_c, 3, 68, 100
1, 535379, Note_off_c, 1, 77, 100
1, 535379, Note_on_c, 1, 76, 112
1, 535380, Note_on_c, 3, 67, 127
1, 535443, Note_off_c, 4, 58, 100
1, 535445, Note_on_c, 4, 58, 127
1, 535511, Note_off_c, 4, 58, 100
1, 535514, Note_off_c, 3, 67, 100
1, 535515, Note_off_c, 1, 76, 100
1, 535515, Note_on_c, 1, 77, 115
1, 535516, Note_on_c, 3, 68, 126
1, 535516, Note_on_c, 4, 58, 127
1, 535584, Note_off_c, 4, 58, 100
1, 535585, Note_on_c, 4, 58, 127
1, 535653, Note_off_c, 1, 77, 100
1, 535656, Note_on_c, 1, 80, 111
1, 535657, Note_on_c, 1, 77, 115
1, 535723, Note_off_c, 4, 58, 100
1, 535725, Note_on_c, 4, 58, 127
1, 535794, Note_off_c, 4, 58, 100
1, 535798, Note_off_c, 1, 80, 100
1, 535798, Note_off_c, 1, 77, 100
1, 535799, Note_on_c, 1, 75, 115
1, 535799, Note_on_c, 1, 79, 111
1, 535800, Note_on_c, 4, 58, 127
1, 535863, Note_off_c, 4, 58, 100
1, 535865, Note_on_c, 4, 58, 127
1, 535934, Note_off_c, 1, 79, 100
1, 535934, Note_off_c, 1, 75, 100
1, 535935, Note_on_c, 1, 78, 112
1, 535935, Note_on_c, 1, 74, 117
1, 535999, Note_off_c, 4, 58, 100
1, 536003, Note_on_c, 4, 58, 127
1, 536072, Note_off_c, 1, 74, 100
1, 536074, Note_off_c, 1, 78, 100
1, 536075, Note_off_c, 3, 68, 100
1, 536075, Note_on_c, 1, 79, 111
1, 536076, Note_on_c, 4, 59, 127
1, 536076, Note_on_c, 1, 77, 115
1, 536081, Note_off_c, 4, 58, 100
1, 536143, Note_off_c, 1, 77, 100
1, 536143, Note_off_c, 1, 79, 100
1, 536145, Note_on_c, 1, 79, 111
1, 536146, Note_on_c, 1, 74, 117
1, 536146, Note_on_c, 1, 77, 115
1, 536211, Note_off_c, 4, 59, 100
1, 536215, Note_on_c, 4, 59, 127
1, 536216, Note_on_c, 4, 47, 127
1, 536283, Note_off_c, 1, 74, 100
1, 536284, Note_off_c, 1, 79, 100
1, 536284, Note_off_c, 1, 77, 100
1, 536288, Note_on_c, 1, 79, 111
1, 536289, Note_on_c, 1, 77, 115
1, 536289, Note_on_c, 1, 74, 117
1, 536355, Note_off_c, 4, 47, 100
1, 536356, Note_off_c, 1, 74, 100
1, 536356, Note_off_c, 4, 59, 100
1, 536357, Note_off_c, 1, 77, 100
1, 536357, Note_off_c, 1, 79, 100
1, 536358, Note_on_c, 1, 79, 111
1, 536358, Note_on_c, 1, 87, 115
1, 536359, Note_on_c, 4, 60, 127
1, 536359, Note_on_c, 1, 75, 115
1, 536360, Note_on_c, 4, 48, 127
1, 536428, Note_off_c, 1, 87, 100
1, 536428, Note_off_c, 1, 79, 100
1, 536428, Note_off_c, 1, 75, 100
1, 536430, Note_on_c, 1, 87, 115
1, 536431, Note_on_c, 1, 79, 111
1, 536431, Note_on_c, 1, 75, 115
1, 536502, Note_off_c, 4, 48, 100
1, 536503, Note_off_c, 4, 60, 100
1, 536505, Note_on_c, 4, 58, 127
1, 536506, Note_on_c, 4, 46, 127
1, 536571, Note_off_c, 1, 75, 100
1, 536572, Note_off_c, 1, 79, 100
1, 536572, Note_off_c, 1, 87, 100
1, 536574, Note_on_c, 1, 79, 111
1, 536575, Note_on_c, 1, 72, 119
1, 536575, Note_on_c, 1, 75, 115
1, 536640, Note_off_c, 4, 46, 100
1, 536641, Note_off_c, 4, 58, 100
1, 536643, Note_off_c, 1, 72, 100
1, 536644, Note_off_c, 1, 79, 100
1, 536644, Note_off_c, 1, 75, 100
1, 536645, Note_on_c, 1, 77, 115
1, 536645, Note_on_c, 1, 75, 115
1, 536646, Note_on_c, 1, 72, 119
1, 536646, Note_on_c, 4, 57, 127
1, 536647, Note_on_c, 4, 45, 127
1, 536714, Note_off_c, 1, 72, 100
1, 536715, Note_off_c, 1, 75, 100
1, 536715, Note_off_c, 1, 77, 100
1, 536716, Note_on_c, 1, 77, 115
1, 536716, Note_on_c, 1, 75, 115
1, 536717, Note_on_c, 1, 72, 119
1, 536783, Note_off_c, 4, 45, 100
1, 536783, Note_off_c, 4, 57, 100
1, 536788, Note_on_c, 4, 45, 127
1, 536788, Note_on_c, 4, 57, 127
1, 536856, Note_off_c, 1, 72, 100
1, 536856, Note_off_c, 1, 75, 100
1, 536856, Note_off_c, 1, 77, 100
1, 536860, Note_on_c, 1, 77, 115
1, 536861, Note_on_c, 1, 72, 119
1, 536861, Note_on_c, 1, 75, 115
1, 536927, Note_off_c, 4, 57, 100
1, 536927, Note_off_c, 4, 45, 100
1, 536928, Note_off_c, 1, 77, 100
1, 536928, Note_off_c, 1, 75, 100
1, 536928, Note_off_c, 1, 72, 100
1, 536930, Note_on_c, 1, 86, 118
1, 536931, Note_on_c, 1, 77, 115
1, 536931, Note_on_c, 1, 74, 117
1, 536932, Note_on_c, 4, 58, 127
1, 536932, Note_on_c, 4, 46, 127
1, 537000, Note_off_c, 1, 74, 100
1, 537000, Note_off_c, 1, 77, 100
1, 537000, Note_off_c, 1, 86, 100
1, 537001, Note_on_c, 1, 77, 115
1, 537001, Note_on_c, 1, 86, 118
1, 537002, Note_on_c, 1, 74, 117
1, 537068, Note_off_c, 4, 46, 100
1, 537068, Note_off_c, 4, 58, 100
1, 537071, Note_on_c, 4, 57, 127
1, 537072, Note_on_c, 4, 45, 127
1, 537137, Note_off_c, 1, 77, 100
1, 537137, Note_off_c, 1, 74, 100
1, 537138, Note_off_c, 1, 86, 100
1, 537140, Note_on_c, 1, 77, 115
1, 537141, Note_on_c, 1, 74, 117
1, 537141, Note_on_c, 3, 70, 121
1, 537204, Note_off_c, 4, 57, 100
1, 537204, Note_off_c, 4, 45, 100
1, 537205, Note_off_c, 3, 70, 100
1, 537205, Note_off_c, 1, 74, 100
1, 537206, Note_off_c, 1, 77, 100
1, 537208, Note_on_c, 1, 75, 115
1, 537209, Note_on_c, 1, 74, 117
1, 537209, Note_on_c, 3, 70, 121
1, 537209, Note_on_c, 4, 55, 127
1, 537210, Note_on_c, 4, 43, 127
1, 537278, Note_off_c, 3, 70, 100
1, 537278, Note_off_c, 1, 74, 100
1, 537279, Note_off_c, 1, 75, 100
1, 537281, Note_on_c, 1, 75, 115
1, 537282, Note_on_c, 3, 70, 121
1, 537282, Note_on_c, 1, 74, 117
1, 537348, Note_off_c, 4, 43, 100
1, 537348, Note_off_c, 4, 55, 100
1, 537350, Note_on_c, 4, 55, 127
1, 537351, Note_on_c, 4, 43, 127
1, 537420, Note_off_c, 1, 74, 100
1, 537420, Note_off_c, 3, 70, 100
1, 537421, Note_off_c, 1, 75, 100
1, 537425, Note_on_c, 1, 75, 115
1, 537426, Note_on_c, 1, 74, 117
1, 537426, Note_on_c, 3, 70, 121
1, 537493, Note_off_c, 4, 55, 100
1, 537493, Note_off_c, 4, 43, 100
1, 537494, Note_off_c, 3, 70, 100
1, 537494, Note_off_c, 1, 74, 100
1, 537495, Note_off_c, 1, 75, 100
1, 537495, Note_on_c, 1, 84, 116
1, 537496, Note_on_c, 1, 75, 115
1, 537496, Note_on_c, 1, 72, 119
1, 537497, Note_on_c, 4, 45, 127
1, 537497, Note_on_c, 4, 57, 127
1, 537569, Note_off_c, 1, 72, 100
1, 537569, Note_off_c, 1, 75, 100
1, 537570, Note_off_c, 1, 84, 100
1, 537571, Note_on_c, 1, 75, 115
1, 537571, Note_on_c, 1, 84, 116
1, 537572, Note_on_c, 1, 72, 119
1, 537639, Note_off_c, 4, 57, 100
1, 537639, Note_off_c, 4, 45, 100
1, 537642, Note_on_c, 4, 55, 127
1, 537643, Note_on_c, 4, 43, 127
1, 537710, Note_off_c, 1, 75, 100
1, 537710, Note_off_c, 1, 72, 100
1, 537711, Note_off_c, 1, 84, 100
1, 537713, Note_on_c, 1, 75, 115
1, 537714, Note_on_c, 1, 72, 119
1, 537714, Note_on_c, 3, 69, 126
1, 537780, Note_off_c, 3, 69, 100
1, 537780, Note_off_c, 1, 72, 100
1, 537780, Note_off_c, 4, 43, 100
1, 537780, Note_off_c, 4, 55, 100
1, 537781, Note_off_c, 1, 75, 100
1, 537783, Note_on_c, 1, 74, 117
1, 537784, Note_on_c, 3, 69, 126
1, 537784, Note_on_c, 1, 72, 119
1, 537785, Note_on_c, 4, 42, 127
1, 537785, Note_on_c, 4, 54, 127
1, 537855, Note_off_c, 3, 69, 100
1, 537856, Note_off_c, 1, 74, 100
1, 537856, Note_off_c, 1, 72, 100
1, 537857, Note_on_c, 1, 74, 117
1, 537857, Note_on_c, 1, 72, 119
1, 537858, Note_on_c, 3, 69, 126
1, 537924, Note_off_c, 4, 54, 100
1, 537924, Note_off_c, 4, 42, 100
1, 537926, Note_on_c, 4, 54, 127
1, 537927, Note_on_c, 4, 42, 127
1, 537996, Note_off_c, 3, 69, 100
1, 537997, Note_off_c, 1, 72, 100
1, 537997, Note_off_c, 1, 74, 100
1, 537999, Note_on_c, 1, 74, 117
1, 538000, Note_on_c, 1, 72, 119
1, 538000, Note_on_c, 3, 69, 126
1, 538068, Note_off_c, 3, 69, 100
1, 538068, Note_off_c, 4, 42, 100
1, 538068, Note_off_c, 4, 54, 100
1, 538069, Note_off_c, 1, 72, 100
1, 538069, Note_off_c, 1, 74, 100
1, 538071, Note_on_c, 1, 82, 111
1, 538072, Note_on_c, 3, 70, 121
1, 538072, Note_on_c, 1, 74, 117
1, 538073, Note_on_c, 4, 43, 127
1, 538073, Note_on_c, 4, 55, 127
1, 538139, Note_off_c, 1, 74, 100
1, 538139, Note_off_c, 3, 70, 100
1, 538140, Note_off_c, 1, 82, 100
1, 538141, Note_on_c, 1, 82, 111
1, 538142, Note_on_c, 1, 74, 117
1, 538142, Note_on_c, 3, 70, 121
1, 538207, Note_off_c, 4, 55, 100
1, 538207, Note_off_c, 4, 43, 100
1, 538212, Note_on_c, 4, 41, 127
1, 538212, Note_on_c, 4, 53, 127
1, 538278, Note_off_c, 3, 70, 100
1, 538278, Note_off_c, 1, 74, 100
1, 538279, Note_off_c, 1, 82, 100
1, 538281, Note_on_c, 3, 70, 121
1, 538281, Note_on_c, 1, 74, 117
1, 538282, Note_on_c, 3, 67, 127
1, 538347, Note_off_c, 4, 53, 100
1, 538347, Note_off_c, 4, 41, 100
1, 538348, Note_off_c, 3, 70, 100
1, 538348, Note_off_c, 3, 67, 100
1, 538349, Note_off_c, 1, 74, 100
1, 538349, Note_on_c, 1, 72, 119
1, 538350, Note_on_c, 3, 70, 121
1, 538350, Note_on_c, 3, 67, 127
1, 538351, Note_on_c, 4, 39, 127
1, 538351, Note_on_c, 4, 51, 127
1, 538421, Note_off_c, 3, 67, 100
1, 538421, Note_off_c, 3, 70, 100
1, 538422, Note_off_c, 1, 72, 100
1, 538424, Note_on_c, 3, 70, 121
1, 538424, Note_on_c, 1, 72, 119
1, 538425, Note_on_c, 3, 67, 127
1, 538425, Note_on_c, 4, 55, 127
1, 538429, Note_off_c, 4, 51, 100
1, 538495, Note_on_c, 4, 58, 127
1, 538500, Note_off_c, 4, 55, 100
1, 538560, Note_off_c, 3, 67, 100
1, 538560, Note_off_c, 3, 70, 100
1, 538561, Note_off_c, 1, 72, 100
1, 538565, Note_on_c, 1, 72, 119
1, 538565, Note_on_c, 4, 55, 127
1, 538572, Note_off_c, 4, 58, 100
1, 538635, Note_off_c, 1, 72, 100
1, 538635, Note_on_c, 1, 82, 111
1, 538636, Note_on_c, 4, 51, 127
1, 538643, Note_off_c, 4, 55, 100
1, 538703, Note_off_c, 1, 82, 100
1, 538705, Note_on_c, 1, 82, 111
1, 538705, Note_on_c, 4, 55, 127
1, 538712, Note_off_c, 4, 51, 100
1, 538773, Note_off_c, 1, 82, 100
1, 538775, Note_on_c, 1, 82, 111
1, 538776, Note_on_c, 4, 58, 127
1, 538782, Note_off_c, 4, 55, 100
1, 538843, Note_off_c, 1, 82, 100
1, 538845, Note_on_c, 1, 72, 119
1, 538846, Note_on_c, 4, 55, 127
1, 538852, Note_off_c, 4, 58, 100
1, 538913, Note_off_c, 1, 72, 100
1, 538915, Note_on_c, 1, 74, 117
1, 538916, Note_on_c, 4, 53, 127
1, 538922, Note_off_c, 4, 55, 100
1, 538986, Note_off_c, 1, 74, 100
1, 538989, Note_on_c, 1, 74, 117
1, 538990, Note_on_c, 4, 56, 127
1, 538994, Note_off_c, 4, 53, 100
1, 539062, Note_on_c, 4, 58, 127
1, 539065, Note_off_c, 4, 56, 100
1, 539127, Note_off_c, 1, 74, 100
1, 539131, Note_on_c, 1, 74, 117
1, 539132, Note_on_c, 4, 56, 127
1, 539136, Note_off_c, 4, 58, 100
1, 539199, Note_off_c, 1, 74, 100
1, 539203, Note_on_c, 1, 82, 111
1, 539204, Note_on_c, 4, 53, 127
1, 539208, Note_off_c, 4, 56, 100
1, 539271, Note_off_c, 1, 82, 100
1, 539274, Note_on_c, 4, 56, 127
1, 539274, Note_on_c, 1, 82, 111
1, 539280, Note_off_c, 4, 53, 100
1, 539340, Note_off_c, 1, 82, 100
1, 539342, Note_on_c, 1, 82, 111
1, 539342, Note_on_c, 4, 58, 127
1, 539349, Note_off_c, 4, 56, 100
1, 539410, Note_off_c, 1, 82, 100
1, 539412, Note_on_c, 1, 74, 117
1, 539412, Note_on_c, 4, 56, 127
1, 539419, Note_off_c, 4, 58, 100
1, 539480, Note_off_c, 1, 74, 100
1, 539481, Note_on_c, 4, 55, 127
1, 539481, Note_on_c, 1, 75, 115
1, 539488, Note_off_c, 4, 56, 100
1, 539549, Note_off_c, 1, 75, 100
1, 539551, Note_on_c, 1, 75, 115
1, 539552, Note_on_c, 4, 58, 127
1, 539558, Note_off_c, 4, 55, 100
1, 539623, Note_on_c, 4, 63, 127
1, 539629, Note_off_c, 4, 58, 100
1, 539690, Note_off_c, 4, 63, 100
1, 539690, Note_off_c, 1, 75, 100
1, 539693, Note_on_c, 1, 76, 112
1, 539694, Note_on_c, 4, 58, 127
1, 539763, Note_off_c, 1, 76, 100
1, 539767, Note_on_c, 1, 77, 115
1, 539768, Note_on_c, 4, 50, 127
1, 539772, Note_off_c, 4, 58, 100
1, 539831, Note_off_c, 1, 77, 100
1, 539833, Note_on_c, 1, 77, 115
1, 539834, Note_on_c, 4, 56, 127
1, 539840, Note_off_c, 4, 50, 100
1, 539904, Note_on_c, 4, 58, 127
1, 539909, Note_off_c, 4, 56, 100
1, 539969, Note_off_c, 1, 77, 100
1, 539973, Note_on_c, 4, 56, 127
1, 539973, Note_on_c, 1, 78, 112
1, 539977, Note_off_c, 4, 58, 100
1, 540037, Note_off_c, 1, 78, 100
1, 540041, Note_on_c, 0, 79, 111
1, 540041, Note_on_c, 4, 51, 127
1, 540046, Note_off_c, 4, 56, 100
1, 540109, Note_off_c, 0, 79, 100
1, 540111, Note_on_c, 4, 63, 127
1, 540111, Note_on_c, 0, 79, 111
1, 540179, Note_off_c, 0, 79, 100
1, 540183, Note_off_c, 4, 51, 100
1, 540183, Note_on_c, 0, 81, 111
1, 540184, Note_on_c, 4, 48, 127
1, 540251, Note_off_c, 0, 81, 100
1, 540253, Note_off_c, 4, 63, 100
1, 540253, Note_on_c, 0, 81, 111
1, 540254, Note_on_c, 4, 60, 127
1, 540321, Note_off_c, 0, 81, 100
1, 540322, Note_off_c, 4, 48, 100
1, 540322, Note_on_c, 0, 82, 111
1, 540323, Note_on_c, 4, 50, 127
1, 540390, Note_off_c, 0, 82, 100
1, 540394, Note_off_c, 4, 60, 100
1, 540395, Note_on_c, 4, 62, 127
1, 540395, Note_on_c, 0, 82, 111
1, 540460, Note_off_c, 0, 82, 100
1, 540462, Note_off_c, 4, 50, 100
1, 540463, Note_on_c, 4, 45, 127
1, 540463, Note_on_c, 0, 84, 116
1, 540529, Note_off_c, 0, 84, 100
1, 540533, Note_off_c, 4, 62, 100
1, 540534, Note_on_c, 0, 84, 116
1, 540534, Note_on_c, 4, 57, 127
1, 540578, Note_off_c, 4, 39, 100
1, 540600, Note_off_c, 0, 84, 100
1, 540601, Note_off_c, 4, 45, 100
1, 540602, Note_on_c, 4, 58, 127
1, 540602, Note_on_c, 0, 86, 118
1, 540603, Note_on_c, 4, 46, 127
1, 540607, Note_off_c, 4, 57, 100
1, 540812, Note_off_c, 0, 86, 100
1, 540812, Note_on_c, 0, 82, 111
1, 540822, Note_on_c, 0, 84, 116
1, 540826, Note_off_c, 0, 82, 64
1, 540834, Note_on_c, 0, 82, 111
1, 540838, Note_off_c, 0, 84, 64
1, 540845, Note_on_c, 0, 84, 116
1, 540849, Note_off_c, 0, 82, 64
1, 540857, Note_on_c, 0, 81, 111
1, 540861, Note_off_c, 0, 84, 64
1, 540880, Note_on_c, 0, 82, 111
1, 540884, Note_off_c, 0, 81, 100
1, 540897, Note_off_c, 4, 46, 100
1, 540898, Note_off_c, 4, 58, 100
1, 540898, Note_on_c, 0, 86, 118
1, 540899, Note_on_c, 4, 42, 127
1, 540899, Note_on_c, 4, 54, 127
1, 540900, Note_off_c, 0, 82, 100
1, 541101, Note_off_c, 0, 86, 100
1, 541106, Note_on_c, 0, 82, 111
1, 541116, Note_on_c, 0, 84, 116
1, 541120, Note_off_c, 0, 82, 64
1, 541128, Note_on_c, 0, 82, 111
1, 541131, Note_off_c, 0, 84, 64
1, 541139, Note_on_c, 0, 84, 116
1, 541141, Note_off_c, 0, 82, 64
1, 541149, Note_on_c, 0, 81, 111
1, 541152, Note_off_c, 0, 84, 64
1, 541170, Note_on_c, 0, 82, 111
1, 541174, Note_off_c, 0, 81, 100
1, 541191, Note_off_c, 4, 54, 100
1, 541191, Note_off_c, 4, 42, 100
1, 541192, Note_on_c, 4, 52, 127
1, 541192, Note_on_c, 0, 85, 116
1, 541193, Note_off_c, 0, 82, 100
1, 541193, Note_on_c, 4, 40, 127
1, 541449, Note_off_c, 0, 85, 64
1, 541451, Note_on_c, 0, 85, 116
1, 541492, Note_on_c, 0, 82, 111
1, 541495, Note_off_c, 0, 85, 64
1, 541532, Note_on_c, 0, 79, 111
1, 541536, Note_off_c, 0, 82, 64
1, 541571, Note_on_c, 1, 76, 112
1, 541573, Note_off_c, 0, 79, 64
1, 541606, Note_on_c, 1, 73, 122
1, 541610, Note_off_c, 1, 76, 64
1, 541647, Note_on_c, 3, 70, 121
1, 541648, Note_off_c, 1, 73, 64
1, 541683, Note_on_c, 3, 67, 127
1, 541686, Note_off_c, 3, 70, 64
1, 541719, Note_on_c, 3, 64, 127
1, 541723, Note_off_c, 3, 67, 64
1, 541758, Note_on_c, 3, 61, 127
1, 541761, Note_off_c, 3, 64, 64
1, 541783, Note_off_c, 4, 52, 64
1, 541796, Note_on_c, 3, 58, 127
1, 541800, Note_off_c, 3, 61, 64
1, 541835, Note_on_c, 3, 55, 127
1, 541837, Note_off_c, 3, 58, 64
1, 541870, Note_on_c, 3, 51, 127
1, 541873, Note_off_c, 3, 55, 64
1, 541907, Note_on_c, 3, 49, 127
1, 541910, Note_off_c, 3, 51, 64
1, 541945, Note_on_c, 4, 46, 127
1, 541948, Note_off_c, 3, 49, 64
1, 541968, Note_off_c, 4, 40, 64
1, 541981, Note_on_c, 4, 43, 127
1, 541985, Note_off_c, 4, 46, 64
1, 542018, Note_on_c, 4, 39, 127
1, 542021, Note_off_c, 4, 43, 64
1, 542056, Note_on_c, 4, 53, 127
1, 542057, Note_on_c, 4, 41, 127
1, 542057, Note_on_c, 4, 29, 127
1, 542059, Note_off_c, 4, 39, 64
1, 542337, Note_off_c, 4, 29, 64
1, 542338, Note_off_c, 4, 53, 64
1, 542339, Note_on_c, 4, 53, 127
1, 542381, Note_on_c, 4, 57, 127
1, 542387, Note_off_c, 4, 53, 64
1, 542417, Note_on_c, 4, 55, 127
1, 542423, Note_off_c, 4, 57, 100
1, 542456, Note_on_c, 4, 53, 127
1, 542460, Note_off_c, 4, 55, 100
1, 542492, Note_on_c, 4, 55, 127
1, 542496, Note_off_c, 4, 53, 100
1, 542527, Note_on_c, 4, 57, 127
1, 542531, Note_off_c, 4, 55, 100
1, 542559, Note_on_c, 4, 58, 127
1, 542563, Note_off_c, 4, 57, 100
1, 542590, Note_on_c, 4, 60, 127
1, 542594, Note_off_c, 4, 58, 100
1, 542621, Note_on_c, 4, 62, 127
1, 542625, Note_off_c, 4, 60, 100
1, 542650, Note_on_c, 4, 63, 127
1, 542653, Note_off_c, 4, 62, 100
1, 542678, Note_on_c, 4, 65, 127
1, 542682, Note_off_c, 4, 63, 100
1, 542707, Note_on_c, 3, 67, 127
1, 542711, Note_off_c, 4, 65, 100
1, 542734, Note_on_c, 3, 69, 126
1, 542738, Note_off_c, 3, 67, 100
1, 542761, Note_on_c, 3, 70, 121
1, 542765, Note_off_c, 3, 69, 100
1, 542790, Note_on_c, 1, 72, 119
1, 542794, Note_off_c, 3, 70, 100
1, 542819, Note_on_c, 1, 74, 117
1, 542822, Note_off_c, 1, 72, 100
1, 542845, Note_on_c, 1, 75, 115
1, 542849, Note_off_c, 1, 74, 100
1, 542872, Note_on_c, 1, 77, 115
1, 542876, Note_off_c, 1, 75, 100
1, 542901, Note_on_c, 1, 79, 111
1, 542905, Note_off_c, 1, 77, 100
1, 542929, Note_on_c, 1, 81, 111
1, 542933, Note_off_c, 1, 79, 100
1, 542956, Note_on_c, 1, 82, 111
1, 542960, Note_off_c, 1, 81, 100
1, 542987, Note_on_c, 1, 84, 116
1, 542990, Note_off_c, 1, 82, 100
1, 543015, Note_on_c, 1, 86, 118
1, 543019, Note_off_c, 1, 84, 100
1, 543044, Note_on_c, 1, 87, 115
1, 543048, Note_off_c, 1, 86, 100
1, 543077, Note_on_c, 1, 89, 121
1, 543081, Note_off_c, 1, 87, 100
1, 543217, Note_on_c, 3, 70, 121
1, 543232, Note_off_c, 1, 89, 100
1, 543386, Note_off_c, 3, 70, 100
1, 543392, Note_on_c, 3, 70, 121
1, 543422, Note_on_c, 1, 72, 119
1, 543426, Note_off_c, 3, 70, 100
1, 543457, Note_on_c, 1, 74, 117
1, 543463, Note_off_c, 1, 72, 100
1, 543490, Note_on_c, 1, 72, 119
1, 543493, Note_off_c, 1, 74, 100
1, 543701, Note_off_c, 1, 72, 100
1, 543709, Note_on_c, 3, 70, 121
1, 543743, Note_on_c, 1, 72, 119
1, 543749, Note_off_c, 3, 70, 100
1, 543778, Note_on_c, 1, 74, 117
1, 543783, Note_off_c, 1, 72, 100
1, 543813, Note_on_c, 1, 75, 115
1, 543817, Note_off_c, 1, 74, 100
1, 543844, Note_on_c, 1, 77, 115
1, 543848, Note_off_c, 1, 75, 100
1, 543875, Note_on_c, 1, 79, 111
1, 543878, Note_off_c, 1, 77, 100
1, 543904, Note_on_c, 1, 81, 111
1, 543907, Note_off_c, 1, 79, 100
1, 543932, Note_on_c, 1, 82, 111
1, 543936, Note_off_c, 1, 81, 100
1, 543960, Note_on_c, 1, 84, 116
1, 543963, Note_off_c, 1, 82, 100
1, 543986, Note_on_c, 1, 86, 118
1, 543990, Note_off_c, 1, 84, 100
1, 544013, Note_on_c, 1, 87, 115
1, 544017, Note_off_c, 1, 86, 100
1, 544038, Note_on_c, 1, 86, 118
1, 544042, Note_off_c, 1, 87, 100
1, 544063, Note_on_c, 1, 89, 115
1, 544065, Note_off_c, 1, 86, 100
1, 544110, Note_on_c, 1, 87, 115
1, 544116, Note_off_c, 1, 89, 100
1, 544154, Note_on_c, 1, 86, 118
1, 544158, Note_off_c, 1, 87, 100
1, 544200, Note_on_c, 1, 84, 116
1, 544204, Note_off_c, 1, 86, 100
1, 544245, Note_on_c, 1, 87, 115
1, 544248, Note_off_c, 1, 84, 100
1, 544289, Note_on_c, 1, 86, 118
1, 544292, Note_off_c, 1, 87, 100
1, 544329, Note_on_c, 1, 84, 116
1, 544334, Note_off_c, 1, 86, 100
1, 544373, Note_on_c, 1, 82, 111
1, 544377, Note_off_c, 1, 84, 100
1, 544416, Note_on_c, 1, 86, 118
1, 544419, Note_off_c, 1, 82, 100
1, 544460, Note_on_c, 1, 84, 116
1, 544463, Note_off_c, 1, 86, 100
1, 544500, Note_on_c, 1, 82, 111
1, 544504, Note_off_c, 1, 84, 100
1, 544542, Note_on_c, 1, 81, 111
1, 544546, Note_off_c, 1, 82, 100
1, 544584, Note_on_c, 1, 84, 116
1, 544588, Note_off_c, 1, 81, 100
1, 544625, Note_on_c, 1, 82, 111
1, 544628, Note_off_c, 1, 84, 100
1, 544665, Note_on_c, 1, 81, 111
1, 544668, Note_off_c, 1, 82, 100
1, 544705, Note_on_c, 1, 79, 111
1, 544709, Note_off_c, 1, 81, 100
1, 544744, Note_on_c, 1, 82, 111
1, 544748, Note_off_c, 1, 79, 100
1, 544817, Note_on_c, 1, 81, 111
1, 544821, Note_off_c, 1, 82, 100
1, 544881, Note_on_c, 1, 79, 111
1, 544887, Note_off_c, 1, 81, 100
1, 544948, Note_on_c, 1, 77, 115
1, 544956, Note_off_c, 1, 79, 100
1, 545021, Note_on_c, 1, 81, 111
1, 545027, Note_off_c, 1, 77, 100
1, 545100, Note_on_c, 1, 79, 111
1, 545108, Note_off_c, 1, 81, 100
1, 545169, Note_on_c, 1, 77, 115
1, 545175, Note_off_c, 1, 79, 100
1, 545237, Note_on_c, 1, 75, 115
1, 545241, Note_off_c, 1, 77, 100
1, 545306, Note_on_c, 1, 79, 111
1, 545312, Note_off_c, 1, 75, 100
1, 545393, Note_on_c, 1, 77, 115
1, 545399, Note_off_c, 1, 79, 100
1, 545466, Note_on_c, 1, 75, 115
1, 545472, Note_off_c, 1, 77, 100
1, 545533, Note_on_c, 1, 74, 117
1, 545539, Note_off_c, 1, 75, 100
1, 545598, Note_on_c, 1, 77, 115
1, 545604, Note_off_c, 1, 74, 100
1, 545733, Note_off_c, 1, 77, 100
1, 545733, Note_on_c, 1, 75, 115
1, 545876, Note_off_c, 1, 75, 100
1, 545876, Note_on_c, 1, 74, 117
1, 546013, Note_off_c, 1, 74, 100
1, 546013, Note_on_c, 1, 72, 119
1, 546160, Note_off_c, 1, 72, 100
1, 546160, Note_on_c, 3, 71, 122
1, 546234, Note_on_c, 1, 72, 119
1, 546240, Note_off_c, 3, 71, 100
1, 546311, Note_on_c, 1, 73, 122
1, 546317, Note_off_c, 1, 72, 100
1, 546388, Note_on_c, 1, 74, 117
1, 546394, Note_off_c, 1, 73, 100
1, 546463, Note_on_c, 1, 75, 115
1, 546468, Note_off_c, 1, 74, 100
1, 546536, Note_on_c, 1, 76, 112
1, 546541, Note_off_c, 1, 75, 100
1, 546611, Note_on_c, 1, 77, 115
1, 546618, Note_off_c, 1, 76, 100
1, 546691, Note_off_c, 4, 41, 64
1, 546753, Note_on_c, 4, 58, 127
1, 546822, Note_off_c, 1, 77, 100
1, 546822, Note_on_c, 1, 74, 117
1, 546892, Note_off_c, 4, 58, 100
1, 546892, Note_on_c, 3, 70, 121
1, 546893, Note_on_c, 4, 62, 127
1, 546897, Note_off_c, 1, 74, 100
1, 547033, Note_off_c, 3, 70, 100
1, 547033, Note_off_c, 4, 62, 100
1, 547034, Note_on_c, 3, 70, 121
1, 547034, Note_on_c, 3, 67, 127
1, 547171, Note_off_c, 3, 67, 100
1, 547172, Note_off_c, 3, 70, 100
1, 547172, Note_on_c, 1, 75, 115
1, 547173, Note_on_c, 4, 60, 127
1, 547233, Note_off_c, 1, 75, 100
1, 547248, Note_on_c, 1, 77, 115
1, 547271, Note_on_c, 1, 75, 115
1, 547281, Note_off_c, 1, 77, 100
1, 547296, Note_on_c, 1, 77, 115
1, 547304, Note_off_c, 1, 75, 100
1, 547315, Note_on_c, 1, 75, 115
1, 547321, Note_off_c, 1, 77, 100
1, 547332, Note_off_c, 4, 60, 100
1, 547333, Note_on_c, 4, 63, 127
1, 547333, Note_on_c, 1, 79, 111
1, 547335, Note_off_c, 1, 75, 100
1, 547476, Note_off_c, 1, 79, 100
1, 547476, Note_off_c, 4, 63, 100
1, 547476, Note_on_c, 3, 69, 126
1, 547477, Note_on_c, 4, 65, 127
1, 547614, Note_off_c, 4, 65, 100
1, 547614, Note_on_c, 4, 63, 127
1, 547674, Note_off_c, 3, 69, 100
1, 547680, Note_on_c, 3, 69, 126
1, 547749, Note_off_c, 4, 63, 100
1, 547750, Note_on_c, 1, 72, 119
1, 547750, Note_on_c, 4, 62, 127
1, 547754, Note_off_c, 3, 69, 100
1, 547815, Note_on_c, 3, 70, 121
1, 547822, Note_off_c, 1, 72, 100
1, 547885, Note_off_c, 4, 62, 100
1, 547886, Note_on_c, 4, 65, 127
1, 547886, Note_on_c, 1, 74, 117
1, 547887, Note_on_c, 4, 57, 127
1, 547889, Note_off_c, 3, 70, 100
1, 547958, Note_on_c, 1, 72, 119
1, 547964, Note_off_c, 1, 74, 100
1, 548028, Note_off_c, 4, 57, 100
1, 548028, Note_on_c, 4, 58, 127
1, 548028, Note_on_c, 1, 75, 115
1, 548032, Note_off_c, 1, 72, 100
1, 548096, Note_on_c, 1, 74, 117
1, 548101, Note_off_c, 1, 75, 100
1, 548163, Note_off_c, 4, 58, 100
1, 548163, Note_on_c, 1, 77, 115
1, 548164, Note_on_c, 4, 60, 127
1, 548164, Note_on_c, 4, 51, 127
1, 548169, Note_off_c, 1, 74, 100
1, 548234, Note_on_c, 1, 75, 115
1, 548240, Note_off_c, 1, 77, 100
1, 548302, Note_off_c, 4, 51, 100
1, 548302, Note_off_c, 4, 60, 100
1, 548303, Note_off_c, 4, 65, 100
1, 548303, Note_on_c, 4, 58, 127
1, 548303, Note_on_c, 1, 74, 117
1, 548304, Note_on_c, 4, 53, 127
1, 548308, Note_off_c, 1, 75, 100
1, 548511, Note_off_c, 1, 74, 100
1, 548512, Note_on_c, 1, 75, 115
1, 548545, Note_on_c, 1, 74, 117
1, 548549, Note_off_c, 1, 75, 100
1, 548580, Note_off_c, 4, 58, 100
1, 548580, Note_off_c, 4, 53, 100
1, 548580, Note_on_c, 1, 72, 119
1, 548581, Note_on_c, 4, 53, 127
1, 548581, Note_on_c, 4, 57, 127
1, 548583, Note_off_c, 1, 74, 100
1, 548653, Note_on_c, 1, 74, 117
1, 548658, Note_off_c, 1, 72, 100
1, 548727, Note_on_c, 1, 75, 115
1, 548734, Note_off_c, 1, 74, 100
1, 548799, Note_on_c, 1, 76, 112
1, 548805, Note_off_c, 1, 75, 100
1, 548872, Note_off_c, 4, 57, 100
1, 548872, Note_off_c, 4, 53, 100
1, 548872, Note_on_c, 1, 77, 115
1, 548873, Note_on_c, 4, 46, 127
1, 548878, Note_off_c, 1, 76, 100
1, 548943, Note_on_c, 4, 58, 127
1, 549014, Note_on_c, 4, 62, 127
1, 549020, Note_off_c, 4, 58, 100
1, 549039, Note_off_c, 1, 77, 100
1, 549050, Note_on_c, 1, 75, 115
1, 549087, Note_off_c, 4, 46, 100
1, 549087, Note_on_c, 1, 74, 117
1, 549088, Note_on_c, 4, 58, 127
1, 549090, Note_off_c, 1, 75, 100
1, 549093, Note_off_c, 4, 62, 100
1, 549123, Note_on_c, 1, 72, 119
1, 549127, Note_off_c, 1, 74, 100
1, 549158, Note_on_c, 4, 43, 127
1, 549158, Note_on_c, 3, 70, 121
1, 549162, Note_off_c, 1, 72, 100
1, 549165, Note_off_c, 4, 58, 100
1, 549226, Note_off_c, 3, 70, 100
1, 549230, Note_on_c, 3, 70, 121
1, 549230, Note_on_c, 4, 55, 127
1, 549298, Note_off_c, 3, 70, 100
1, 549302, Note_on_c, 4, 58, 127
1, 549302, Note_on_c, 3, 70, 121
1, 549307, Note_off_c, 4, 55, 100
1, 549370, Note_off_c, 3, 70, 100
1, 549374, Note_off_c, 4, 43, 100
1, 549374, Note_on_c, 3, 70, 121
1, 549375, Note_on_c, 4, 55, 127
1, 549379, Note_off_c, 4, 58, 100
1, 549444, Note_on_c, 4, 36, 127
1, 549444, Note_on_c, 1, 75, 115
1, 549449, Note_off_c, 4, 55, 100
1, 549449, Note_off_c, 3, 70, 100
1, 549500, Note_off_c, 1, 75, 100
1, 549511, Note_on_c, 1, 77, 115
1, 549512, Note_on_c, 4, 48, 127
1, 549524, Note_off_c, 1, 77, 100
1, 549531, Note_on_c, 1, 75, 115
1, 549545, Note_off_c, 1, 75, 100
1, 549552, Note_on_c, 1, 74, 117
1, 549564, Note_off_c, 1, 74, 100
1, 549570, Note_on_c, 1, 75, 115
1, 549587, Note_on_c, 1, 79, 111
1, 549588, Note_off_c, 1, 75, 100
1, 549588, Note_on_c, 4, 51, 127
1, 549593, Note_off_c, 4, 48, 100
1, 549656, Note_off_c, 4, 36, 100
1, 549657, Note_on_c, 4, 48, 127
1, 549661, Note_off_c, 4, 51, 100
1, 549726, Note_off_c, 1, 79, 100
1, 549727, Note_on_c, 4, 41, 127
1, 549727, Note_on_c, 3, 69, 126
1, 549733, Note_off_c, 4, 48, 100
1, 549798, Note_on_c, 4, 53, 127
1, 549865, Note_on_c, 4, 57, 127
1, 549871, Note_off_c, 4, 53, 100
1, 549935, Note_off_c, 3, 69, 100
1, 549935, Note_off_c, 4, 41, 100
1, 549936, Note_on_c, 1, 75, 115
1, 549936, Note_on_c, 4, 53, 127
1, 549940, Note_off_c, 4, 57, 100
1, 550004, Note_on_c, 4, 58, 127
1, 550004, Note_on_c, 1, 74, 117
1, 550010, Note_off_c, 4, 53, 100
1, 550011, Note_off_c, 1, 75, 100
1, 550040, Note_on_c, 1, 77, 115
1, 550044, Note_off_c, 1, 74, 100
1, 550113, Note_on_c, 1, 82, 111
1, 550119, Note_off_c, 1, 77, 100
1, 550150, Note_off_c, 4, 58, 100
1, 550150, Note_on_c, 1, 79, 111
1, 550151, Note_on_c, 4, 51, 127
1, 550152, Note_off_c, 1, 82, 100
1, 550185, Note_on_c, 1, 75, 115
1, 550189, Note_off_c, 1, 79, 100
1, 550256, Note_on_c, 1, 72, 119
1, 550262, Note_off_c, 1, 75, 100
1, 550293, Note_off_c, 4, 51, 100
1, 550293, Note_on_c, 1, 77, 115
1, 550294, Note_on_c, 4, 53, 127
1, 550297, Note_off_c, 1, 72, 100
1, 550328, Note_on_c, 1, 74, 117
1, 550332, Note_off_c, 1, 77, 100
1, 550401, Note_on_c, 3, 70, 121
1, 550405, Note_off_c, 1, 74, 100
1, 550435, Note_off_c, 4, 53, 100
1, 550435, Note_on_c, 1, 75, 115
1, 550436, Note_on_c, 4, 41, 127
1, 550438, Note_off_c, 3, 70, 100
1, 550470, Note_on_c, 1, 72, 119
1, 550474, Note_off_c, 1, 75, 100
1, 550540, Note_on_c, 3, 69, 126
1, 550546, Note_off_c, 1, 72, 100
1, 550579, Note_off_c, 4, 41, 100
1, 550579, Note_on_c, 3, 70, 121
1, 550580, Note_on_c, 4, 50, 127
1, 550580, Note_on_c, 4, 58, 127
1, 550583, Note_off_c, 3, 69, 100
1, 550617, Note_on_c, 1, 82, 111
1, 550654, Note_off_c, 3, 70, 100
1, 550688, Note_off_c, 1, 82, 100
1, 550694, Note_on_c, 1, 82, 111
1, 550728, Note_off_c, 1, 82, 100
1, 550732, Note_on_c, 1, 82, 111
1, 550767, Note_off_c, 1, 82, 100
1, 550771, Note_on_c, 1, 82, 111
1, 550844, Note_off_c, 1, 82, 100
1, 550846, Note_on_c, 1, 82, 111
1, 550881, Note_off_c, 1, 82, 100
1, 550884, Note_on_c, 1, 82, 111
1, 550919, Note_off_c, 1, 82, 100
1, 550920, Note_on_c, 1, 81, 111
1, 550992, Note_off_c, 1, 81, 100
1, 550993, Note_on_c, 1, 79, 111
1, 551024, Note_off_c, 4, 50, 100
1, 551025, Note_off_c, 4, 58, 100
1, 551031, Note_on_c, 4, 58, 127
1, 551031, Note_on_c, 1, 77, 115
1, 551032, Note_on_c, 4, 50, 127
1, 551034, Note_off_c, 1, 79, 100
1, 551066, Note_on_c, 1, 75, 115
1, 551070, Note_off_c, 1, 77, 100
1, 551139, Note_off_c, 1, 75, 100
1, 551141, Note_on_c, 1, 74, 117
1, 551176, Note_off_c, 4, 58, 100
1, 551176, Note_off_c, 4, 50, 100
1, 551179, Note_off_c, 1, 74, 100
1, 551180, Note_on_c, 4, 58, 127
1, 551180, Note_on_c, 1, 72, 119
1, 551181, Note_on_c, 4, 51, 127
1, 551216, Note_on_c, 1, 79, 111
1, 551250, Note_off_c, 1, 72, 100
1, 551290, Note_off_c, 1, 79, 100
1, 551292, Note_on_c, 1, 79, 111
1, 551329, Note_off_c, 1, 79, 100
1, 551331, Note_on_c, 1, 79, 111
1, 551367, Note_off_c, 1, 79, 100
1, 551369, Note_on_c, 1, 79, 111
1, 551444, Note_off_c, 1, 79, 100
1, 551448, Note_on_c, 1, 79, 111
1, 551484, Note_off_c, 1, 79, 100
1, 551486, Note_on_c, 1, 79, 111
1, 551524, Note_on_c, 1, 77, 115
1, 551525, Note_off_c, 1, 79, 100
1, 551595, Note_on_c, 1, 75, 115
1, 551601, Note_off_c, 1, 77, 100
1, 551626, Note_off_c, 4, 58, 100
1, 551626, Note_off_c, 4, 51, 100
1, 551632, Note_off_c, 1, 75, 100
1, 551633, Note_on_c, 4, 57, 127
1, 551633, Note_on_c, 1, 74, 117
1, 551634, Note_on_c, 4, 51, 127
1, 551667, Note_off_c, 1, 74, 100
1, 551667, Note_on_c, 1, 75, 115
1, 551737, Note_on_c, 1, 72, 119
1, 551743, Note_off_c, 1, 75, 100
1, 551769, Note_off_c, 4, 51, 100
1, 551770, Note_off_c, 4, 57, 100
1, 551772, Note_on_c, 1, 75, 115
1, 551773, Note_on_c, 4, 58, 127
1, 551773, Note_on_c, 4, 50, 127
1, 551776, Note_off_c, 1, 72, 100
1, 551811, Note_on_c, 1, 77, 115
1, 551815, Note_off_c, 1, 75, 100
1, 551847, Note_on_c, 1, 79, 111
1, 551851, Note_off_c, 1, 77, 100
1, 551888, Note_on_c, 1, 77, 115
1, 551891, Note_off_c, 1, 79, 100
1, 551922, Note_off_c, 4, 50, 100
1, 551923, Note_off_c, 4, 58, 100
1, 551923, Note_on_c, 1, 75, 115
1, 551924, Note_on_c, 4, 55, 127
1, 551926, Note_off_c, 1, 77, 100
1, 551959, Note_on_c, 1, 74, 117
1, 551963, Note_off_c, 1, 75, 100
1, 551995, Note_on_c, 1, 72, 119
1, 551999, Note_off_c, 1, 74, 100
1, 552032, Note_on_c, 3, 70, 121
1, 552036, Note_off_c, 1, 72, 100
1, 552070, Note_off_c, 4, 55, 100
1, 552071, Note_on_c, 4, 51, 127
1, 552075, Note_off_c, 3, 70, 100
1, 552079, Note_on_c, 1, 72, 119
1, 552104, Note_off_c, 1, 72, 100
1, 552108, Note_on_c, 1, 74, 117
1, 552129, Note_on_c, 1, 72, 119
1, 552134, Note_off_c, 1, 74, 100
1, 552156, Note_off_c, 1, 72, 100
1, 552156, Note_on_c, 1, 74, 117
1, 552182, Note_off_c, 1, 74, 100
1, 552184, Note_on_c, 1, 72, 119
1, 552209, Note_off_c, 1, 72, 100
1, 552210, Note_on_c, 1, 74, 117
1, 552236, Note_off_c, 1, 74, 100
1, 552238, Note_on_c, 1, 72, 119
1, 552250, Note_off_c, 4, 51, 100
1, 552250, Note_on_c, 4, 57, 127
1, 552251, Note_on_c, 4, 53, 127
1, 552262, Note_off_c, 1, 72, 100
1, 552264, Note_on_c, 1, 74, 117
1, 552289, Note_off_c, 1, 74, 100
1, 552293, Note_on_c, 1, 72, 119
1, 552331, Note_on_c, 3, 70, 121
1, 552335, Note_off_c, 1, 72, 100
1, 552370, Note_on_c, 1, 72, 119
1, 552373, Note_off_c, 3, 70, 100
1, 552408, Note_off_c, 4, 53, 100
1, 552408, Note_off_c, 4, 57, 100
1, 552409, Note_on_c, 4, 58, 127
1, 552409, Note_on_c, 3, 70, 121
1, 552410, Note_on_c, 4, 50, 127
1, 552413, Note_off_c, 1, 72, 100
1, 552484, Note_on_c, 1, 82, 111
1, 552492, Note_off_c, 3, 70, 100
1, 552526, Note_on_c, 1, 79, 111
1, 552530, Note_off_c, 1, 82, 100
1, 552565, Note_on_c, 1, 82, 111
1, 552569, Note_off_c, 1, 79, 100
1, 552604, Note_on_c, 1, 81, 111
1, 552606, Note_off_c, 1, 82, 100
1, 552640, Note_on_c, 1, 82, 111
1, 552644, Note_off_c, 1, 81, 100
1, 552681, Note_on_c, 1, 81, 111
1, 552684, Note_off_c, 1, 82, 100
1, 552719, Note_on_c, 1, 82, 111
1, 552723, Note_off_c, 1, 81, 100
1, 552757, Note_on_c, 1, 81, 111
1, 552761, Note_off_c, 1, 82, 100
1, 552794, Note_on_c, 1, 79, 111
1, 552798, Note_off_c, 1, 81, 100
1, 552830, Note_on_c, 1, 77, 115
1, 552836, Note_off_c, 1, 79, 100
1, 552863, Note_off_c, 4, 50, 100
1, 552864, Note_off_c, 4, 58, 100
1, 552870, Note_on_c, 4, 58, 127
1, 552870, Note_on_c, 1, 75, 115
1, 552871, Note_on_c, 4, 50, 127
1, 552873, Note_off_c, 1, 77, 100
1, 552909, Note_on_c, 1, 74, 117
1, 552912, Note_off_c, 1, 75, 100
1, 552946, Note_on_c, 1, 72, 119
1, 552948, Note_off_c, 1, 74, 100
1, 552985, Note_on_c, 3, 70, 121
1, 552989, Note_off_c, 1, 72, 100
1, 553020, Note_off_c, 4, 58, 100
1, 553020, Note_off_c, 4, 50, 100
1, 553022, Note_on_c, 3, 67, 127
1, 553023, Note_on_c, 4, 51, 127
1, 553023, Note_on_c, 4, 58, 127
1, 553027, Note_off_c, 3, 70, 100
1, 553096, Note_on_c, 1, 79, 111
1, 553102, Note_off_c, 3, 67, 100
1, 553135, Note_on_c, 1, 78, 112
1, 553139, Note_off_c, 1, 79, 100
1, 553173, Note_on_c, 1, 79, 111
1, 553177, Note_off_c, 1, 78, 100
1, 553212, Note_on_c, 1, 78, 112
1, 553215, Note_off_c, 1, 79, 100
1, 553248, Note_on_c, 1, 79, 111
1, 553252, Note_off_c, 1, 78, 100
1, 553287, Note_on_c, 1, 78, 112
1, 553290, Note_off_c, 1, 79, 100
1, 553323, Note_on_c, 1, 79, 111
1, 553327, Note_off_c, 1, 78, 100
1, 553360, Note_on_c, 1, 77, 115
1, 553365, Note_off_c, 1, 79, 100
1, 553399, Note_on_c, 1, 75, 115
1, 553403, Note_off_c, 1, 77, 100
1, 553436, Note_on_c, 1, 74, 117
1, 553439, Note_off_c, 1, 75, 100
1, 553466, Note_off_c, 4, 51, 100
1, 553467, Note_off_c, 4, 58, 100
1, 553473, Note_on_c, 1, 72, 119
1, 553474, Note_on_c, 4, 60, 127
1, 553474, Note_on_c, 4, 51, 127
1, 553477, Note_off_c, 1, 74, 100
1, 553511, Note_on_c, 3, 70, 121
1, 553514, Note_off_c, 1, 72, 100
1, 553547, Note_on_c, 3, 69, 126
1, 553550, Note_off_c, 3, 70, 100
1, 553585, Note_on_c, 3, 67, 127
1, 553589, Note_off_c, 3, 69, 100
1, 553624, Note_off_c, 4, 51, 100
1, 553624, Note_on_c, 4, 65, 127
1, 553625, Note_on_c, 4, 53, 127
1, 553628, Note_off_c, 3, 67, 100
1, 553704, Note_off_c, 4, 60, 100
1, 553704, Note_on_c, 3, 67, 127
1, 553704, Note_on_c, 4, 62, 127
1, 553705, Note_off_c, 4, 65, 100
1, 553744, Note_on_c, 3, 69, 126
1, 553747, Note_off_c, 3, 67, 100
1, 553776, Note_off_c, 4, 53, 100
1, 553782, Note_on_c, 3, 70, 121
1, 553783, Note_on_c, 4, 58, 127
1, 553787, Note_off_c, 3, 69, 100
1, 553822, Note_on_c, 1, 72, 119
1, 553825, Note_off_c, 3, 70, 100
1, 553852, Note_off_c, 4, 62, 100
1, 553860, Note_on_c, 4, 62, 127
1, 553860, Note_on_c, 1, 74, 117
1, 553862, Note_off_c, 1, 72, 100
1, 553897, Note_on_c, 1, 75, 115
1, 553901, Note_off_c, 1, 74, 100
1, 553928, Note_off_c, 4, 58, 100
1, 553934, Note_on_c, 1, 77, 115
1, 553934, Note_on_c, 4, 53, 127
1, 553939, Note_off_c, 1, 75, 100
1, 553973, Note_on_c, 1, 79, 111
1, 553975, Note_off_c, 1, 77, 100
1, 554004, Note_off_c, 4, 62, 100
1, 554010, Note_on_c, 1, 81, 111
1, 554010, Note_on_c, 4, 62, 127
1, 554014, Note_off_c, 1, 79, 100
1, 554047, Note_on_c, 1, 82, 111
1, 554051, Note_off_c, 1, 81, 100
1, 554078, Note_off_c, 4, 53, 100
1, 554084, Note_on_c, 4, 58, 127
1, 554084, Note_on_c, 1, 84, 116
1, 554089, Note_off_c, 1, 82, 100
1, 554122, Note_on_c, 1, 86, 118
1, 554125, Note_off_c, 1, 84, 100
1, 554153, Note_off_c, 4, 62, 100
1, 554160, Note_on_c, 1, 87, 115
1, 554161, Note_on_c, 4, 62, 127
1, 554163, Note_off_c, 1, 86, 100
1, 554196, Note_on_c, 1, 89, 115
1, 554200, Note_off_c, 1, 87, 100
1, 554227, Note_off_c, 4, 58, 100
1, 554232, Note_on_c, 1, 82, 106
1, 554233, Note_on_c, 4, 53, 127
1, 554237, Note_off_c, 1, 89, 100
1, 554262, Note_off_c, 1, 82, 100
1, 554270, Note_on_c, 1, 84, 109
1, 554297, Note_off_c, 1, 84, 100
1, 554304, Note_on_c, 1, 86, 108
1, 554322, Note_off_c, 4, 62, 100
1, 554329, Note_on_c, 1, 84, 109
1, 554330, Note_off_c, 1, 86, 100
1, 554330, Note_on_c, 4, 63, 127
1, 554355, Note_off_c, 1, 84, 100
1, 554361, Note_on_c, 1, 86, 108
1, 554388, Note_off_c, 1, 86, 100
1, 554390, Note_on_c, 1, 84, 109
1, 554411, Note_off_c, 4, 53, 100
1, 554413, Note_on_c, 1, 86, 108
1, 554415, Note_off_c, 1, 84, 100
1, 554419, Note_on_c, 4, 57, 127
1, 554440, Note_off_c, 1, 86, 100
1, 554440, Note_on_c, 1, 84, 109
1, 554468, Note_off_c, 1, 84, 100
1, 554468, Note_on_c, 0, 86, 108
1, 554494, Note_off_c, 0, 86, 100
1, 554494, Note_on_c, 1, 84, 109
1, 554501, Note_off_c, 4, 63, 100
1, 554509, Note_on_c, 4, 63, 127
1, 554519, Note_on_c, 0, 86, 108
1, 554520, Note_off_c, 1, 84, 100
1, 554544, Note_off_c, 0, 86, 100
1, 554547, Note_on_c, 1, 84, 109
1, 554570, Note_off_c, 1, 84, 100
1, 554571, Note_on_c, 0, 86, 108
1, 554588, Note_off_c, 4, 57, 100
1, 554595, Note_on_c, 4, 53, 127
1, 554596, Note_off_c, 0, 86, 100
1, 554600, Note_on_c, 1, 84, 111
1, 554621, Note_on_c, 0, 86, 110
1, 554625, Note_off_c, 1, 84, 100
1, 554646, Note_off_c, 0, 86, 100
1, 554654, Note_on_c, 1, 84, 111
1, 554675, Note_off_c, 4, 63, 100
1, 554677, Note_off_c, 1, 84, 100
1, 554677, Note_on_c, 0, 86, 110
1, 554683, Note_on_c, 4, 63, 127
1, 554702, Note_off_c, 0, 86, 100
1, 554706, Note_on_c, 1, 84, 111
1, 554729, Note_on_c, 0, 86, 110
1, 554731, Note_off_c, 1, 84, 100
1, 554752, Note_off_c, 0, 86, 100
1, 554760, Note_off_c, 4, 53, 100
1, 554760, Note_on_c, 1, 84, 111
1, 554767, Note_on_c, 4, 57, 127
1, 554781, Note_on_c, 0, 86, 110
1, 554783, Note_off_c, 1, 84, 100
1, 554806, Note_off_c, 0, 86, 64
1, 554806, Note_on_c, 1, 84, 111
1, 554831, Note_off_c, 1, 84, 64
1, 554832, Note_on_c, 0, 86, 110
1, 554846, Note_off_c, 4, 63, 100
1, 554852, Note_on_c, 4, 63, 127
1, 554852, Note_on_c, 1, 82, 106
1, 554860, Note_off_c, 0, 86, 100
1, 554891, Note_on_c, 1, 84, 111
1, 554895, Note_off_c, 1, 82, 100
1, 554928, Note_off_c, 4, 57, 100
1, 554931, Note_on_c, 1, 82, 106
1, 554932, Note_on_c, 4, 62, 127
1, 554934, Note_off_c, 1, 84, 100
1, 554938, Note_off_c, 4, 63, 100
1, 555013, Note_on_c, 4, 58, 127
1, 555090, Note_off_c, 4, 62, 100
1, 555097, Note_on_c, 4, 62, 127
1, 555172, Note_off_c, 4, 58, 100
1, 555178, Note_on_c, 4, 58, 127
1, 555251, Note_off_c, 4, 62, 100
1, 555259, Note_on_c, 4, 62, 127
1, 555332, Note_off_c, 4, 58, 100
1, 555338, Note_on_c, 4, 58, 127
1, 555408, Note_off_c, 4, 62, 100
1, 555414, Note_on_c, 4, 62, 127
1, 555487, Note_off_c, 4, 58, 100
1, 555495, Note_on_c, 2, 70, 125
1, 555496, Note_on_c, 4, 58, 127
1, 555565, Note_off_c, 4, 62, 100
1, 555565, Note_off_c, 1, 82, 100
1, 555570, Note_on_c, 1, 80, 115
1, 555571, Note_on_c, 4, 65, 127
1, 555640, Note_off_c, 2, 70, 100
1, 555640, Note_off_c, 4, 58, 100
1, 555647, Note_on_c, 4, 58, 127
1, 555720, Note_off_c, 4, 65, 100
1, 555726, Note_on_c, 4, 65, 127
1, 555796, Note_off_c, 4, 58, 100
1, 555803, Note_off_c, 1, 80, 100
1, 555803, Note_on_c, 1, 77, 119
1, 555804, Note_on_c, 4, 58, 127
1, 555876, Note_off_c, 4, 65, 100
1, 555882, Note_on_c, 1, 74, 121
1, 555883, Note_on_c, 3, 68, 127
1, 555889, Note_off_c, 1, 77, 100
1, 555950, Note_off_c, 4, 58, 100
1, 555958, Note_on_c, 4, 58, 127
1, 556027, Note_off_c, 3, 68, 100
1, 556031, Note_off_c, 1, 74, 100
1, 556035, Note_on_c, 3, 68, 127
1, 556035, Note_on_c, 1, 74, 121
1, 556105, Note_off_c, 4, 58, 100
1, 556113, Note_on_c, 4, 58, 127
1, 556186, Note_off_c, 3, 68, 100
1, 556189, Note_off_c, 1, 74, 100
1, 556193, Note_on_c, 1, 75, 119
1, 556194, Note_on_c, 3, 70, 125
1, 556267, Note_off_c, 4, 58, 100
1, 556273, Note_on_c, 4, 58, 127
1, 556354, Note_off_c, 1, 75, 100
1, 556354, Note_on_c, 1, 77, 119
1, 556355, Note_on_c, 4, 62, 127
1, 556425, Note_off_c, 4, 58, 100
1, 556430, Note_on_c, 4, 58, 127
1, 556498, Note_off_c, 4, 62, 100
1, 556504, Note_off_c, 1, 77, 100
1, 556505, Note_on_c, 4, 63, 127
1, 556505, Note_on_c, 1, 79, 115
1, 556572, Note_off_c, 4, 58, 100
1, 556578, Note_on_c, 4, 58, 127
1, 556647, Note_off_c, 4, 63, 100
1, 556653, Note_on_c, 4, 63, 127
1, 556718, Note_off_c, 4, 58, 100
1, 556719, Note_off_c, 1, 79, 100
1, 556723, Note_on_c, 1, 79, 115
1, 556724, Note_on_c, 4, 58, 127
1, 556793, Note_off_c, 4, 63, 100
1, 556799, Note_off_c, 3, 70, 100
1, 556800, Note_on_c, 1, 77, 119
1, 556800, Note_on_c, 4, 60, 127
1, 556807, Note_off_c, 1, 79, 100
1, 556870, Note_off_c, 4, 58, 100
1, 556876, Note_on_c, 1, 75, 119
1, 556876, Note_on_c, 4, 58, 127
1, 556883, Note_off_c, 1, 77, 100
1, 556942, Note_off_c, 4, 60, 100
1, 556950, Note_on_c, 4, 60, 127
1, 556950, Note_on_c, 1, 74, 121
1, 556955, Note_off_c, 1, 75, 100
1, 557016, Note_off_c, 4, 58, 100
1, 557022, Note_on_c, 4, 58, 127
1, 557022, Note_on_c, 1, 72, 123
1, 557028, Note_off_c, 1, 74, 100
1, 557090, Note_off_c, 4, 60, 100
1, 557096, Note_on_c, 3, 70, 125
1, 557096, Note_on_c, 4, 60, 127
1, 557102, Note_off_c, 1, 72, 100
1, 557166, Note_off_c, 4, 58, 100
1, 557172, Note_on_c, 4, 58, 127
1, 557172, Note_on_c, 3, 69, 127
1, 557176, Note_off_c, 3, 70, 100
1, 557238, Note_off_c, 4, 60, 100
1, 557245, Note_on_c, 1, 75, 119
1, 557246, Note_on_c, 4, 60, 127
1, 557250, Note_off_c, 3, 69, 100
1, 557316, Note_off_c, 4, 58, 100
1, 557322, Note_on_c, 3, 69, 127
1, 557323, Note_on_c, 4, 58, 127
1, 557329, Note_off_c, 1, 75, 100
1, 557392, Note_off_c, 4, 60, 100
1, 557396, Note_off_c, 4, 58, 100
1, 557400, Note_on_c, 4, 62, 127
1, 557400, Note_on_c, 3, 70, 125
1, 557401, Note_on_c, 4, 58, 127
1, 557405, Note_off_c, 3, 69, 100
1, 557474, Note_on_c, 1, 72, 123
1, 557482, Note_off_c, 3, 70, 100
1, 557547, Note_on_c, 1, 74, 121
1, 557553, Note_off_c, 1, 72, 100
1, 557622, Note_on_c, 1, 75, 119
1, 557628, Note_off_c, 1, 74, 100
1, 557697, Note_on_c, 1, 76, 116
1, 557702, Note_off_c, 1, 75, 100
1, 557770, Note_on_c, 1, 77, 119
1, 557776, Note_off_c, 1, 76, 100
1, 557841, Note_on_c, 1, 78, 116
1, 557846, Note_off_c, 1, 77, 100
1, 557912, Note_on_c, 1, 79, 115
1, 557917, Note_off_c, 1, 78, 100
1, 557983, Note_off_c, 4, 62, 100
1, 557984, Note_on_c, 4, 65, 127
1, 557984, Note_on_c, 1, 80, 115
1, 557988, Note_off_c, 1, 79, 100
1, 558038, Note_off_c, 4, 58, 100
1, 558056, Note_on_c, 4, 58, 127
1, 558123, Note_off_c, 4, 65, 100
1, 558129, Note_on_c, 4, 65, 127
1, 558168, Note_off_c, 1, 80, 100
1, 558168, Note_on_c, 1, 79, 115
1, 558201, Note_off_c, 4, 58, 100
1, 558207, Note_on_c, 4, 58, 127
1, 558207, Note_on_c, 1, 77, 119
1, 558212, Note_off_c, 1, 79, 100
1, 558244, Note_on_c, 1, 75, 119
1, 558248, Note_off_c, 1, 77, 100
1, 558275, Note_off_c, 4, 65, 100
1, 558283, Note_on_c, 1, 74, 121
1, 558283, Note_on_c, 3, 68, 127
1, 558285, Note_off_c, 1, 75, 100
1, 558350, Note_off_c, 4, 58, 100
1, 558353, Note_off_c, 1, 74, 100
1, 558356, Note_on_c, 4, 58, 127
1, 558356, Note_on_c, 1, 74, 121
1, 558428, Note_off_c, 3, 68, 100
1, 558431, Note_off_c, 1, 74, 100
1, 558435, Note_on_c, 1, 74, 121
1, 558436, Note_on_c, 3, 68, 127
1, 558507, Note_off_c, 4, 58, 100
1, 558511, Note_off_c, 1, 74, 100
1, 558513, Note_on_c, 1, 74, 121
1, 558518, Note_on_c, 4, 58, 127
1, 558584, Note_off_c, 3, 68, 100
1, 558590, Note_on_c, 3, 67, 127
1, 558590, Note_on_c, 1, 75, 119
1, 558597, Note_off_c, 1, 74, 100
1, 558664, Note_off_c, 4, 58, 100
1, 558666, Note_on_c, 4, 58, 127
1, 558735, Note_off_c, 3, 67, 100
1, 558741, Note_off_c, 1, 75, 100
1, 558741, Note_on_c, 1, 77, 119
1, 558742, Note_on_c, 4, 62, 127
1, 558807, Note_off_c, 1, 77, 100
1, 558815, Note_off_c, 4, 58, 100
1, 558820, Note_on_c, 1, 75, 119
1, 558821, Note_on_c, 4, 58, 127
1, 558862, Note_on_c, 1, 77, 119
1, 558865, Note_off_c, 1, 75, 100
1, 558894, Note_off_c, 4, 62, 100
1, 558900, Note_on_c, 4, 63, 127
1, 558900, Note_on_c, 1, 79, 115
1, 558903, Note_off_c, 1, 77, 100
1, 558968, Note_off_c, 4, 58, 100
1, 558974, Note_on_c, 4, 58, 127
1, 559043, Note_off_c, 4, 63, 100
1, 559051, Note_on_c, 4, 63, 127
1, 559120, Note_off_c, 4, 58, 100
1, 559120, Note_off_c, 1, 79, 100
1, 559127, Note_on_c, 4, 58, 127
1, 559127, Note_on_c, 1, 79, 115
1, 559195, Note_off_c, 4, 63, 100
1, 559202, Note_on_c, 1, 77, 119
1, 559203, Note_on_c, 4, 60, 127
1, 559209, Note_off_c, 1, 79, 100
1, 559271, Note_off_c, 4, 58, 100
1, 559276, Note_on_c, 1, 75, 119
1, 559277, Note_on_c, 4, 58, 127
1, 559281, Note_off_c, 1, 77, 100
1, 559341, Note_off_c, 4, 60, 100
1, 559347, Note_on_c, 4, 60, 127
1, 559347, Note_on_c, 1, 74, 121
1, 559353, Note_off_c, 1, 75, 100
1, 559413, Note_off_c, 4, 58, 100
1, 559418, Note_on_c, 1, 72, 123
1, 559419, Note_on_c, 4, 58, 127
1, 559425, Note_off_c, 1, 74, 100
1, 559489, Note_off_c, 4, 60, 100
1, 559493, Note_on_c, 3, 70, 125
1, 559494, Note_on_c, 4, 60, 127
1, 559500, Note_off_c, 1, 72, 100
1, 559563, Note_off_c, 4, 58, 100
1, 559567, Note_on_c, 3, 69, 127
1, 559568, Note_on_c, 4, 58, 127
1, 559574, Note_off_c, 3, 70, 100
1, 559641, Note_off_c, 4, 60, 100
1, 559643, Note_on_c, 1, 75, 119
1, 559644, Note_on_c, 4, 60, 127
1, 559650, Note_off_c, 3, 69, 100
1, 559719, Note_off_c, 4, 58, 100
1, 559723, Note_on_c, 3, 69, 127
1, 559723, Note_on_c, 4, 58, 127
1, 559728, Note_off_c, 1, 75, 100
1, 559793, Note_off_c, 4, 58, 100
1, 559793, Note_off_c, 4, 60, 100
1, 559798, Note_on_c, 4, 62, 127
1, 559798, Note_on_c, 3, 70, 125
1, 559799, Note_on_c, 4, 58, 127
1, 559803, Note_off_c, 3, 69, 100
1, 560005, Note_off_c, 3, 70, 100
1, 560006, Note_on_c, 1, 74, 121
1, 560079, Note_off_c, 4, 62, 100
1, 560079, Note_off_c, 4, 58, 100
1, 560080, Note_on_c, 1, 77, 119
1, 560080, Note_on_c, 4, 60, 127
1, 560081, Note_on_c, 4, 53, 127
1, 560085, Note_off_c, 1, 74, 100
1, 560155, Note_on_c, 1, 75, 119
1, 560160, Note_off_c, 1, 77, 100
1, 560226, Note_off_c, 4, 60, 100
1, 560226, Note_on_c, 1, 72, 123
1, 560227, Note_on_c, 4, 63, 127
1, 560231, Note_off_c, 1, 75, 100
1, 560303, Note_on_c, 3, 69, 127
1, 560308, Note_off_c, 1, 72, 100
1, 560376, Note_off_c, 4, 63, 100
1, 560376, Note_off_c, 4, 53, 100
1, 560376, Note_on_c, 3, 70, 125
1, 560377, Note_on_c, 4, 58, 127
1, 560377, Note_on_c, 4, 62, 127
1, 560382, Note_off_c, 3, 69, 100
1, 560593, Note_off_c, 3, 70, 100
1, 560593, Note_on_c, 1, 74, 121
1, 560628, Note_on_c, 3, 70, 125
1, 560632, Note_off_c, 1, 74, 100
1, 560665, Note_off_c, 4, 62, 100
1, 560665, Note_off_c, 4, 58, 100
1, 560666, Note_on_c, 1, 77, 119
1, 560666, Note_on_c, 4, 60, 127
1, 560667, Note_on_c, 4, 53, 127
1, 560669, Note_off_c, 3, 70, 100
1, 560743, Note_on_c, 1, 75, 119
1, 560750, Note_off_c, 1, 77, 100
1, 560820, Note_off_c, 4, 60, 100
1, 560820, Note_on_c, 4, 63, 127
1, 560820, Note_on_c, 1, 72, 123
1, 560826, Note_off_c, 1, 75, 100
1, 560893, Note_on_c, 3, 69, 127
1, 560899, Note_off_c, 1, 72, 100
1, 560966, Note_off_c, 4, 63, 100
1, 560967, Note_off_c, 4, 53, 100
1, 560967, Note_on_c, 3, 70, 125
1, 560968, Note_on_c, 4, 58, 127
1, 560968, Note_on_c, 4, 62, 127
1, 560972, Note_off_c, 3, 69, 100
1, 561188, Note_off_c, 3, 70, 100
1, 561189, Note_on_c, 1, 77, 119
1, 561262, Note_off_c, 1, 77, 100
1, 561266, Note_off_c, 4, 62, 100
1, 561266, Note_off_c, 4, 58, 100
1, 561267, Note_on_c, 1, 77, 121
1, 561267, Note_on_c, 1, 81, 117
1, 561268, Note_on_c, 1, 72, 123
1, 561268, Note_on_c, 1, 75, 121
1, 561269, Note_on_c, 4, 41, 127
1, 561269, Note_on_c, 4, 53, 127
1, 561420, Note_off_c, 1, 75, 100
1, 561420, Note_off_c, 1, 72, 100
1, 561420, Note_off_c, 4, 53, 100
1, 561420, Note_off_c, 4, 41, 100
1, 561421, Note_off_c, 1, 77, 100
1, 561422, Note_off_c, 1, 81, 100
1, 561424, Note_on_c, 1, 81, 117
1, 561425, Note_on_c, 1, 75, 121
1, 561425, Note_on_c, 1, 77, 121
1, 561426, Note_on_c, 4, 53, 127
1, 561427, Note_on_c, 4, 41, 127
1, 561601, Note_off_c, 1, 75, 100
1, 561602, Note_off_c, 1, 81, 100
1, 561602, Note_off_c, 1, 77, 100
1, 561605, Note_off_c, 4, 53, 100
1, 561605, Note_off_c, 4, 41, 100
1, 561606, Note_on_c, 1, 77, 124
1, 561606, Note_on_c, 1, 82, 117
1, 561607, Note_on_c, 3, 70, 125
1, 561607, Note_on_c, 1, 74, 124
1, 561608, Note_on_c, 4, 34, 127
1, 561608, Note_on_c, 4, 46, 127
1, 564732, Note_off_c, 1, 82, 100
1, 564797, Note_off_c, 3, 70, 100
1, 564798, Note_off_c, 1, 77, 100
1, 564798, Note_off_c, 1, 74, 100
1, 564867, Note_off_c, 4, 46, 100
1, 565153, Note_off_c, 4, 34, 100
1, 565153, End_track
0, 0, End_of_file
