0, 0, Header, 0, 1, 240
1, 0, Start_track
1, 0, Time_signature, 1, 2, 24, 8
1, 0, Tempo, 500000
1, 0, Program_c, 0, 0
1, 0, Control_c, 0, 7, 127
1, 0, Control_c, 0, 10, 76
1, 0, Program_c, 1, 0
1, 0, Control_c, 1, 7, 127
1, 0, Control_c, 1, 10, 75
1, 0, Program_c, 2, 0
1, 0, Control_c, 2, 7, 127
1, 0, Control_c, 2, 10, 74
1, 0, Program_c, 3, 0
1, 0, Control_c, 3, 7, 127
1, 0, Control_c, 3, 10, 66
1, 0, Program_c, 4, 0
1, 0, Control_c, 4, 7, 127
1, 0, Control_c, 4, 10, 58
1, 108, Marker_t, "Mozart PS No.19 in DM, K.576 (576) Interpreted/Copyright 1998-99 S D Rodrian"
1, 120, Control_c, 0, 32, 0
1, 120, Control_c, 0, 10, 77
1, 120, Control_c, 0, 7, 127
1, 120, Control_c, 0, 91, 91
1, 120, Control_c, 0, 64, 0
1, 120, Control_c, 0, 93, 28
1, 120, Control_c, 0, 0, 0
1, 360, Control_c, 1, 32, 0
1, 360, Control_c, 1, 10, 76
1, 360, Control_c, 1, 7, 127
1, 360, Control_c, 1, 91, 91
1, 360, Control_c, 1, 64, 0
1, 360, Control_c, 1, 93, 28
1, 360, Control_c, 1, 0, 0
1, 636, Control_c, 2, 32, 0
1, 636, Control_c, 2, 10, 75
1, 636, Control_c, 2, 93, 28
1, 636, Control_c, 2, 64, 0
1, 636, Control_c, 2, 91, 91
1, 636, Control_c, 2, 7, 127
1, 636, Control_c, 2, 0, 0
1, 888, Control_c, 3, 32, 0
1, 888, Control_c, 3, 10, 67
1, 888, Control_c, 3, 93, 28
1, 888, Control_c, 3, 64, 0
1, 888, Control_c, 3, 91, 91
1, 888, Control_c, 3, 7, 127
1, 888, Control_c, 3, 0, 0
1, 1116, Control_c, 4, 32, 0
1, 1116, Control_c, 4, 10, 58
1, 1116, Control_c, 4, 93, 28
1, 1116, Control_c, 4, 91, 91
1, 1116, Control_c, 4, 64, 0
1, 1116, Control_c, 4, 7, 127
1, 1116, Control_c, 4, 0, 0
1, 2904, Note_on_c, 4, 57, 127
1, 2905, Note_on_c, 4, 45, 127
1, 2994, Note_on_c, 3, 62, 127
1, 2994, Note_on_c, 4, 50, 127
1, 3010, Note_off_c, 4, 45, 64
1, 3011, Note_off_c, 4, 57, 64
1, 3086, Note_on_c, 4, 57, 127
1, 3086, Note_on_c, 4, 45, 127
1, 3102, Note_off_c, 4, 50, 64
1, 3103, Note_off_c, 3, 62, 64
1, 3176, Note_on_c, 3, 62, 127
1, 3177, Note_on_c, 4, 50, 127
1, 3191, Note_off_c, 4, 45, 64
1, 3191, Note_off_c, 4, 57, 64
1, 3266, Note_on_c, 2, 66, 127
1, 3267, Note_on_c, 4, 54, 127
1, 3273, Note_off_c, 4, 50, 64
1, 3274, Note_off_c, 3, 62, 64
1, 3353, Note_on_c, 4, 50, 127
1, 3353, Note_on_c, 3, 62, 127
1, 3360, Note_off_c, 4, 54, 64
1, 3360, Note_off_c, 2, 66, 64
1, 3441, Note_on_c, 2, 66, 127
1, 3442, Note_on_c, 4, 54, 127
1, 3448, Note_off_c, 3, 62, 64
1, 3448, Note_off_c, 4, 50, 64
1, 3528, Note_off_c, 4, 54, 64
1, 3528, Note_on_c, 4, 57, 127
1, 3528, Note_on_c, 2, 69, 122
1, 3536, Note_off_c, 2, 66, 64
1, 3703, Note_off_c, 4, 57, 64
1, 3704, Note_off_c, 2, 69, 64
1, 3708, Note_on_c, 2, 69, 122
1, 3708, Note_on_c, 4, 57, 127
1, 3792, Note_off_c, 4, 57, 64
1, 3792, Note_off_c, 2, 69, 64
1, 3798, Note_on_c, 2, 69, 122
1, 3799, Note_on_c, 4, 57, 127
1, 3974, Note_off_c, 2, 69, 64
1, 3980, Note_on_c, 2, 69, 122
1, 3980, Note_on_c, 3, 74, 105
1, 3981, Note_on_c, 2, 67, 127
1, 4009, Note_on_c, 3, 73, 105
1, 4019, Note_off_c, 3, 74, 64
1, 4036, Note_on_c, 3, 71, 114
1, 4044, Note_off_c, 3, 73, 64
1, 4059, Note_on_c, 3, 73, 105
1, 4067, Note_off_c, 3, 71, 64
1, 4077, Note_off_c, 2, 67, 64
1, 4077, Note_off_c, 2, 69, 64
1, 4083, Note_on_c, 3, 74, 105
1, 4084, Note_on_c, 2, 69, 122
1, 4084, Note_on_c, 2, 66, 127
1, 4092, Note_off_c, 3, 73, 64
1, 4259, Note_off_c, 2, 66, 64
1, 4260, Note_off_c, 2, 69, 64
1, 4260, Note_off_c, 3, 74, 64
1, 4264, Note_off_c, 4, 57, 64
1, 4264, Note_on_c, 0, 78, 103
1, 4265, Note_on_c, 4, 61, 127
1, 4265, Note_on_c, 2, 69, 122
1, 4291, Note_on_c, 3, 76, 106
1, 4300, Note_off_c, 0, 78, 64
1, 4316, Note_on_c, 3, 74, 105
1, 4325, Note_off_c, 3, 76, 64
1, 4341, Note_on_c, 3, 76, 106
1, 4350, Note_off_c, 3, 74, 64
1, 4358, Note_off_c, 4, 61, 64
1, 4359, Note_off_c, 2, 69, 64
1, 4365, Note_on_c, 0, 78, 103
1, 4366, Note_on_c, 2, 69, 122
1, 4366, Note_on_c, 3, 62, 127
1, 4373, Note_off_c, 3, 76, 64
1, 4550, Note_off_c, 0, 78, 64
1, 4554, Note_off_c, 3, 62, 64
1, 4555, Note_off_c, 2, 69, 64
1, 4555, Note_on_c, 0, 81, 110
1, 4556, Note_on_c, 4, 55, 127
1, 4556, Note_on_c, 3, 64, 127
1, 4607, Note_on_c, 0, 79, 110
1, 4614, Note_off_c, 0, 81, 64
1, 4655, Note_on_c, 0, 78, 107
1, 4656, Note_on_c, 4, 57, 127
1, 4656, Note_on_c, 3, 62, 127
1, 4663, Note_off_c, 3, 64, 64
1, 4663, Note_off_c, 4, 55, 64
1, 4664, Note_off_c, 0, 79, 64
1, 4908, Marker_t, "Copyright 1998-99 (P) S.D.Rodrian -  NOT to be reproduced or sold sans permission !"
1, 4919, Note_off_c, 3, 62, 64
1, 4920, Note_off_c, 0, 78, 64
1, 4920, Note_on_c, 4, 61, 127
1, 4920, Note_on_c, 3, 76, 110
1, 5103, Note_off_c, 4, 61, 64
1, 5104, Note_off_c, 3, 76, 64
1, 5104, Note_off_c, 4, 57, 64
1, 5105, Note_on_c, 4, 59, 127
1, 5105, Note_on_c, 4, 47, 127
1, 5197, Note_on_c, 3, 64, 127
1, 5198, Note_on_c, 4, 52, 127
1, 5212, Note_off_c, 4, 47, 64
1, 5212, Note_off_c, 4, 59, 64
1, 5290, Note_on_c, 4, 59, 127
1, 5290, Note_on_c, 4, 47, 127
1, 5306, Note_off_c, 3, 64, 64
1, 5306, Note_off_c, 4, 52, 64
1, 5376, Note_on_c, 3, 64, 127
1, 5376, Note_on_c, 4, 52, 127
1, 5390, Note_off_c, 4, 47, 64
1, 5391, Note_off_c, 4, 59, 64
1, 5466, Note_on_c, 2, 67, 127
1, 5467, Note_on_c, 4, 55, 127
1, 5473, Note_off_c, 4, 52, 64
1, 5473, Note_off_c, 3, 64, 64
1, 5553, Note_on_c, 3, 64, 127
1, 5553, Note_on_c, 4, 52, 127
1, 5559, Note_off_c, 4, 55, 64
1, 5560, Note_off_c, 2, 67, 64
1, 5639, Note_on_c, 2, 67, 127
1, 5640, Note_on_c, 4, 55, 127
1, 5646, Note_off_c, 4, 52, 64
1, 5646, Note_off_c, 3, 64, 64
1, 5724, Note_on_c, 4, 59, 127
1, 5724, Note_on_c, 2, 71, 118
1, 5730, Note_off_c, 4, 55, 64
1, 5731, Note_off_c, 2, 67, 64
1, 5898, Note_off_c, 4, 59, 64
1, 5899, Note_off_c, 2, 71, 64
1, 5903, Note_on_c, 2, 71, 118
1, 5904, Note_on_c, 4, 59, 127
1, 5987, Note_off_c, 4, 59, 64
1, 5987, Note_off_c, 2, 71, 64
1, 5994, Note_on_c, 4, 59, 127
1, 5994, Note_on_c, 2, 71, 118
1, 6173, Note_off_c, 2, 71, 64
1, 6173, Note_off_c, 4, 59, 64
1, 6174, Note_on_c, 3, 75, 106
1, 6174, Note_on_c, 2, 69, 122
1, 6175, Note_on_c, 2, 66, 127
1, 6259, Note_on_c, 3, 78, 104
1, 6260, Note_on_c, 2, 71, 118
1, 6260, Note_on_c, 2, 67, 127
1, 6268, Note_off_c, 2, 69, 64
1, 6268, Note_off_c, 2, 66, 64
1, 6269, Note_off_c, 3, 75, 64
1, 6305, Note_on_c, 3, 76, 107
1, 6313, Note_off_c, 3, 78, 64
1, 6351, Note_on_c, 3, 79, 110
1, 6357, Note_off_c, 3, 76, 64
1, 6396, Note_on_c, 3, 78, 107
1, 6403, Note_off_c, 3, 79, 64
1, 6440, Note_on_c, 0, 81, 110
1, 6445, Note_off_c, 3, 78, 64
1, 6484, Note_on_c, 3, 79, 110
1, 6492, Note_off_c, 0, 81, 64
1, 6530, Note_on_c, 0, 83, 110
1, 6538, Note_off_c, 3, 79, 64
1, 6710, Note_off_c, 0, 83, 64
1, 6711, Note_off_c, 2, 67, 64
1, 6711, Note_off_c, 2, 71, 64
1, 6712, Note_on_c, 3, 73, 112
1, 6712, Note_on_c, 3, 64, 127
1, 6713, Note_on_c, 4, 57, 127
1, 6806, Note_on_c, 3, 62, 127
1, 6806, Note_on_c, 3, 76, 110
1, 6806, Note_on_c, 2, 67, 127
1, 6812, Note_off_c, 4, 57, 64
1, 6813, Note_off_c, 3, 64, 64
1, 6813, Note_off_c, 3, 73, 64
1, 7060, Note_off_c, 2, 67, 64
1, 7061, Note_off_c, 3, 76, 64
1, 7061, Note_on_c, 3, 74, 112
1, 7062, Note_on_c, 2, 66, 127
1, 7237, Note_off_c, 3, 62, 64
1, 7237, Note_on_c, 4, 45, 127
1, 7326, Note_off_c, 2, 66, 64
1, 7327, Note_off_c, 3, 74, 64
1, 7327, Note_on_c, 4, 50, 127
1, 7352, Note_off_c, 4, 45, 64
1, 7417, Note_on_c, 3, 74, 109
1, 7418, Note_on_c, 4, 45, 127
1, 7443, Note_off_c, 4, 50, 64
1, 7507, Note_on_c, 3, 78, 104
1, 7507, Note_on_c, 4, 50, 127
1, 7515, Note_off_c, 3, 74, 64
1, 7533, Note_off_c, 4, 45, 64
1, 7598, Note_on_c, 4, 54, 127
1, 7598, Note_on_c, 0, 81, 107
1, 7605, Note_off_c, 4, 50, 64
1, 7605, Note_off_c, 3, 78, 64
1, 7684, Note_on_c, 3, 78, 104
1, 7685, Note_on_c, 4, 50, 127
1, 7691, Note_off_c, 4, 54, 64
1, 7692, Note_off_c, 0, 81, 64
1, 7773, Note_on_c, 0, 86, 107
1, 7773, Note_on_c, 4, 54, 127
1, 7779, Note_off_c, 4, 50, 64
1, 7793, Note_off_c, 3, 78, 64
1, 7860, Note_off_c, 4, 54, 64
1, 7860, Note_on_c, 4, 57, 127
1, 7896, Note_off_c, 0, 86, 64
1, 7903, Note_on_c, 0, 85, 103
1, 7947, Note_on_c, 0, 88, 103
1, 7955, Note_off_c, 0, 85, 64
1, 7993, Note_on_c, 0, 86, 103
1, 8001, Note_off_c, 0, 88, 64
1, 8035, Note_off_c, 4, 57, 64
1, 8040, Note_on_c, 0, 85, 103
1, 8040, Note_on_c, 4, 57, 127
1, 8047, Note_off_c, 0, 86, 64
1, 8085, Note_on_c, 0, 83, 103
1, 8092, Note_off_c, 0, 85, 64
1, 8123, Note_off_c, 4, 57, 64
1, 8131, Note_on_c, 0, 81, 103
1, 8132, Note_on_c, 4, 57, 127
1, 8137, Note_off_c, 0, 83, 64
1, 8174, Note_on_c, 0, 83, 103
1, 8182, Note_off_c, 0, 81, 64
1, 8220, Note_on_c, 0, 81, 103
1, 8228, Note_off_c, 0, 83, 64
1, 8266, Note_on_c, 3, 79, 103
1, 8274, Note_off_c, 0, 81, 64
1, 8312, Note_off_c, 4, 57, 64
1, 8313, Note_on_c, 4, 61, 127
1, 8313, Note_on_c, 3, 78, 99
1, 8319, Note_off_c, 3, 79, 64
1, 8353, Note_on_c, 3, 76, 103
1, 8361, Note_off_c, 3, 78, 64
1, 8401, Note_on_c, 3, 78, 99
1, 8401, Note_on_c, 3, 62, 127
1, 8404, Note_off_c, 4, 61, 64
1, 8405, Note_off_c, 3, 76, 64
1, 8442, Note_on_c, 0, 81, 103
1, 8449, Note_off_c, 3, 78, 64
1, 8484, Note_on_c, 3, 78, 99
1, 8492, Note_off_c, 0, 81, 64
1, 8526, Note_on_c, 3, 74, 105
1, 8534, Note_off_c, 3, 78, 64
1, 8568, Note_off_c, 3, 62, 64
1, 8569, Note_on_c, 3, 64, 127
1, 8569, Note_on_c, 3, 73, 105
1, 8576, Note_off_c, 3, 74, 64
1, 8613, Note_on_c, 2, 69, 118
1, 8618, Note_off_c, 3, 73, 64
1, 8657, Note_on_c, 3, 74, 105
1, 8658, Note_on_c, 2, 66, 127
1, 8664, Note_off_c, 3, 64, 64
1, 8664, Note_off_c, 2, 69, 64
1, 8699, Note_on_c, 3, 73, 105
1, 8707, Note_off_c, 3, 74, 64
1, 8743, Note_on_c, 3, 74, 105
1, 8751, Note_off_c, 3, 73, 64
1, 8790, Note_on_c, 3, 78, 99
1, 8796, Note_off_c, 3, 74, 64
1, 8829, Note_off_c, 2, 66, 64
1, 8832, Note_on_c, 3, 76, 103
1, 8833, Note_on_c, 2, 67, 127
1, 8839, Note_off_c, 3, 78, 64
1, 8876, Note_on_c, 3, 79, 103
1, 8883, Note_off_c, 3, 76, 64
1, 8912, Note_off_c, 2, 67, 64
1, 8920, Note_on_c, 3, 74, 105
1, 8921, Note_on_c, 4, 57, 127
1, 8922, Note_on_c, 2, 66, 127
1, 8928, Note_off_c, 3, 79, 64
1, 9174, Note_off_c, 3, 74, 64
1, 9175, Note_off_c, 2, 66, 64
1, 9181, Note_on_c, 3, 73, 109
1, 9181, Note_on_c, 3, 64, 127
1, 9349, Note_off_c, 4, 57, 64
1, 9349, Note_on_c, 4, 47, 127
1, 9431, Note_off_c, 3, 64, 64
1, 9431, Note_off_c, 3, 73, 64
1, 9438, Note_on_c, 4, 52, 127
1, 9453, Note_off_c, 4, 47, 64
1, 9530, Note_on_c, 4, 47, 127
1, 9530, Note_on_c, 3, 76, 103
1, 9544, Note_off_c, 4, 52, 64
1, 9619, Note_on_c, 3, 79, 103
1, 9620, Note_on_c, 4, 52, 127
1, 9636, Note_off_c, 3, 76, 64
1, 9636, Note_off_c, 4, 47, 64
1, 9708, Note_on_c, 0, 83, 103
1, 9708, Note_on_c, 4, 55, 127
1, 9714, Note_off_c, 4, 52, 64
1, 9715, Note_off_c, 3, 79, 64
1, 9796, Note_on_c, 4, 52, 127
1, 9796, Note_on_c, 3, 79, 103
1, 9803, Note_off_c, 4, 55, 64
1, 9803, Note_off_c, 0, 83, 64
1, 9886, Note_on_c, 0, 88, 103
1, 9887, Note_on_c, 4, 55, 127
1, 9893, Note_off_c, 4, 52, 64
1, 9906, Note_off_c, 3, 79, 64
1, 9972, Note_on_c, 4, 59, 127
1, 9977, Note_off_c, 4, 55, 64
1, 10006, Note_off_c, 0, 88, 64
1, 10014, Note_on_c, 0, 87, 103
1, 10058, Note_on_c, 0, 84, 103
1, 10064, Note_off_c, 0, 87, 64
1, 10100, Note_on_c, 0, 83, 103
1, 10108, Note_off_c, 0, 84, 64
1, 10140, Note_off_c, 4, 59, 64
1, 10143, Note_on_c, 0, 81, 103
1, 10144, Note_on_c, 4, 59, 127
1, 10152, Note_off_c, 0, 83, 64
1, 10187, Note_on_c, 3, 79, 103
1, 10194, Note_off_c, 0, 81, 64
1, 10223, Note_off_c, 4, 59, 64
1, 10231, Note_on_c, 4, 59, 127
1, 10231, Note_on_c, 3, 78, 99
1, 10237, Note_off_c, 3, 79, 64
1, 10276, Note_on_c, 3, 76, 103
1, 10284, Note_off_c, 3, 78, 64
1, 10320, Note_on_c, 3, 75, 102
1, 10328, Note_off_c, 3, 76, 64
1, 10364, Note_on_c, 3, 72, 113
1, 10372, Note_off_c, 3, 75, 64
1, 10407, Note_off_c, 4, 59, 64
1, 10408, Note_on_c, 2, 71, 114
1, 10408, Note_on_c, 3, 63, 127
1, 10416, Note_off_c, 3, 72, 64
1, 10451, Note_on_c, 2, 69, 118
1, 10458, Note_off_c, 2, 71, 64
1, 10497, Note_on_c, 3, 64, 127
1, 10497, Note_on_c, 2, 67, 125
1, 10504, Note_off_c, 2, 69, 64
1, 10504, Note_off_c, 3, 63, 64
1, 10542, Note_on_c, 2, 71, 114
1, 10549, Note_off_c, 2, 67, 64
1, 10590, Note_on_c, 3, 76, 103
1, 10603, Note_off_c, 2, 71, 64
1, 10635, Note_on_c, 2, 71, 114
1, 10672, Note_off_c, 3, 76, 64
1, 10680, Marker_t, "This file may be freely distributed on the WWW, as long as it's not modified. SDR"
1, 10680, Note_on_c, 3, 79, 103
1, 10728, Note_on_c, 3, 76, 103
1, 10745, Note_off_c, 2, 71, 64
1, 10770, Note_off_c, 3, 79, 64
1, 10776, Note_on_c, 0, 83, 107
1, 10862, Note_off_c, 3, 76, 64
1, 10870, Note_on_c, 2, 71, 118
1, 10957, Note_off_c, 0, 83, 64
1, 10967, Note_off_c, 3, 64, 64
1, 10968, Note_on_c, 4, 57, 127
1, 10968, Note_on_c, 3, 73, 109
1, 10968, Note_on_c, 2, 67, 127
1, 10975, Note_off_c, 2, 71, 64
1, 11059, Note_on_c, 3, 74, 109
1, 11060, Note_on_c, 3, 62, 127
1, 11066, Note_off_c, 2, 67, 64
1, 11066, Note_off_c, 4, 57, 64
1, 11067, Note_off_c, 3, 73, 64
1, 11149, Note_on_c, 2, 66, 127
1, 11209, Note_off_c, 3, 62, 64
1, 11240, Note_on_c, 2, 69, 122
1, 11299, Note_off_c, 2, 66, 64
1, 11329, Note_on_c, 3, 62, 127
1, 11388, Note_off_c, 2, 69, 64
1, 11419, Note_off_c, 3, 74, 64
1, 11420, Note_on_c, 2, 66, 127
1, 11420, Note_on_c, 0, 86, 104
1, 11466, Note_on_c, 0, 85, 104
1, 11474, Note_off_c, 0, 86, 64
1, 11482, Note_off_c, 3, 62, 64
1, 11510, Note_on_c, 0, 83, 104
1, 11511, Note_on_c, 2, 69, 122
1, 11519, Note_off_c, 0, 85, 64
1, 11557, Note_on_c, 0, 81, 104
1, 11565, Note_off_c, 0, 83, 64
1, 11573, Note_off_c, 2, 66, 64
1, 11602, Note_on_c, 0, 80, 104
1, 11603, Note_on_c, 4, 61, 127
1, 11610, Note_off_c, 0, 81, 64
1, 11649, Note_on_c, 0, 81, 104
1, 11656, Note_off_c, 0, 80, 64
1, 11664, Note_off_c, 2, 69, 64
1, 11694, Note_on_c, 0, 80, 104
1, 11695, Note_on_c, 3, 64, 127
1, 11702, Note_off_c, 0, 81, 64
1, 11741, Note_on_c, 0, 81, 104
1, 11749, Note_off_c, 0, 80, 64
1, 11755, Note_off_c, 4, 61, 64
1, 11785, Note_on_c, 0, 83, 104
1, 11785, Note_on_c, 2, 69, 122
1, 11792, Note_off_c, 0, 81, 64
1, 11832, Note_on_c, 0, 81, 104
1, 11838, Note_off_c, 0, 83, 64
1, 11846, Note_off_c, 3, 64, 64
1, 11877, Note_on_c, 3, 64, 127
1, 11938, Note_off_c, 2, 69, 64
1, 11961, Note_off_c, 0, 81, 64
1, 11969, Note_on_c, 2, 67, 127
1, 11969, Note_on_c, 0, 81, 104
1, 12016, Note_on_c, 3, 79, 104
1, 12024, Note_off_c, 0, 81, 64
1, 12031, Note_off_c, 3, 64, 64
1, 12060, Note_on_c, 2, 69, 122
1, 12060, Note_on_c, 3, 78, 102
1, 12067, Note_off_c, 3, 79, 64
1, 12103, Note_on_c, 3, 76, 105
1, 12111, Note_off_c, 3, 78, 64
1, 12119, Note_off_c, 2, 67, 64
1, 12147, Note_on_c, 3, 73, 107
1, 12148, Note_on_c, 3, 62, 127
1, 12154, Note_off_c, 3, 76, 64
1, 12192, Note_on_c, 3, 74, 107
1, 12200, Note_off_c, 3, 73, 64
1, 12208, Note_off_c, 2, 69, 64
1, 12239, Note_on_c, 3, 73, 107
1, 12239, Note_on_c, 2, 66, 127
1, 12245, Note_off_c, 3, 74, 64
1, 12282, Note_on_c, 3, 74, 107
1, 12291, Note_off_c, 3, 73, 64
1, 12297, Note_off_c, 3, 62, 64
1, 12328, Note_on_c, 2, 69, 124
1, 12328, Note_on_c, 3, 76, 105
1, 12336, Note_off_c, 3, 74, 64
1, 12375, Note_on_c, 3, 74, 107
1, 12383, Note_off_c, 3, 76, 64
1, 12390, Note_off_c, 2, 66, 64
1, 12419, Note_on_c, 3, 62, 127
1, 12480, Note_off_c, 2, 69, 64
1, 12507, Note_off_c, 3, 74, 64
1, 12511, Note_on_c, 0, 86, 104
1, 12512, Note_on_c, 2, 66, 127
1, 12554, Note_on_c, 0, 85, 104
1, 12562, Note_off_c, 0, 86, 64
1, 12570, Note_off_c, 3, 62, 64
1, 12600, Note_on_c, 0, 83, 104
1, 12601, Note_on_c, 2, 69, 124
1, 12607, Note_off_c, 0, 85, 64
1, 12646, Note_on_c, 0, 81, 104
1, 12653, Note_off_c, 0, 83, 64
1, 12661, Note_off_c, 2, 66, 64
1, 12690, Note_on_c, 4, 61, 127
1, 12690, Note_on_c, 0, 80, 104
1, 12696, Note_off_c, 0, 81, 64
1, 12735, Note_on_c, 0, 81, 104
1, 12743, Note_off_c, 0, 80, 64
1, 12748, Note_off_c, 2, 69, 64
1, 12779, Note_on_c, 0, 80, 104
1, 12780, Note_on_c, 3, 64, 127
1, 12788, Note_off_c, 0, 81, 64
1, 12825, Note_on_c, 0, 81, 104
1, 12833, Note_off_c, 0, 80, 64
1, 12840, Note_off_c, 4, 61, 64
1, 12869, Note_on_c, 0, 83, 104
1, 12870, Note_on_c, 2, 69, 124
1, 12878, Note_off_c, 0, 81, 64
1, 12916, Note_on_c, 0, 81, 104
1, 12924, Note_off_c, 0, 83, 64
1, 12932, Note_off_c, 3, 64, 64
1, 12962, Note_on_c, 3, 64, 127
1, 13022, Note_off_c, 2, 69, 64
1, 13049, Note_off_c, 0, 81, 64
1, 13051, Note_on_c, 0, 81, 104
1, 13051, Note_on_c, 2, 67, 127
1, 13098, Note_on_c, 3, 79, 104
1, 13105, Note_off_c, 0, 81, 64
1, 13111, Note_off_c, 3, 64, 64
1, 13142, Note_on_c, 2, 69, 124
1, 13142, Note_on_c, 3, 78, 102
1, 13151, Note_off_c, 3, 79, 64
1, 13151, Note_off_c, 2, 67, 64
1, 13188, Note_on_c, 3, 76, 105
1, 13194, Note_off_c, 3, 78, 64
1, 13226, Note_off_c, 2, 69, 64
1, 13232, Note_on_c, 3, 73, 107
1, 13233, Note_on_c, 2, 69, 124
1, 13233, Note_on_c, 2, 66, 127
1, 13239, Note_off_c, 3, 76, 64
1, 13277, Note_on_c, 3, 74, 107
1, 13285, Note_off_c, 3, 73, 64
1, 13323, Note_on_c, 3, 73, 107
1, 13331, Note_off_c, 3, 74, 64
1, 13369, Note_on_c, 3, 74, 107
1, 13377, Note_off_c, 3, 73, 64
1, 13414, Note_on_c, 3, 79, 104
1, 13421, Note_off_c, 3, 74, 64
1, 13460, Note_on_c, 3, 78, 102
1, 13467, Note_off_c, 3, 79, 64
1, 13498, Note_off_c, 2, 66, 64
1, 13499, Note_off_c, 2, 69, 64
1, 13505, Note_on_c, 2, 69, 124
1, 13505, Note_on_c, 3, 75, 104
1, 13506, Note_on_c, 4, 61, 127
1, 13513, Note_off_c, 3, 78, 64
1, 13550, Note_on_c, 3, 76, 105
1, 13558, Note_off_c, 3, 75, 64
1, 13594, Note_on_c, 3, 75, 104
1, 13602, Note_off_c, 3, 76, 64
1, 13640, Note_on_c, 3, 76, 105
1, 13648, Note_off_c, 3, 75, 64
1, 13685, Note_on_c, 0, 81, 99
1, 13692, Note_off_c, 3, 76, 64
1, 13728, Note_on_c, 3, 79, 99
1, 13734, Note_off_c, 0, 81, 64
1, 13765, Note_off_c, 2, 69, 64
1, 13765, Note_off_c, 4, 61, 64
1, 13774, Note_on_c, 3, 77, 99
1, 13775, Note_on_c, 3, 62, 127
1, 13775, Note_on_c, 2, 69, 124
1, 13781, Note_off_c, 3, 79, 64
1, 13818, Note_on_c, 3, 78, 98
1, 13824, Note_off_c, 3, 77, 64
1, 13862, Note_on_c, 3, 77, 99
1, 13868, Note_off_c, 3, 78, 64
1, 13904, Note_on_c, 3, 78, 98
1, 13912, Note_off_c, 3, 77, 64
1, 13949, Note_on_c, 0, 83, 99
1, 13956, Note_off_c, 3, 78, 64
1, 13995, Note_on_c, 0, 81, 99
1, 14002, Note_off_c, 0, 83, 64
1, 14031, Note_off_c, 3, 62, 64
1, 14032, Note_off_c, 2, 69, 64
1, 14034, Note_off_c, 0, 81, 64
1, 14038, Note_on_c, 0, 81, 99
1, 14039, Note_on_c, 2, 69, 124
1, 14039, Note_on_c, 3, 64, 127
1, 14084, Note_on_c, 3, 79, 99
1, 14091, Note_off_c, 0, 81, 64
1, 14130, Note_on_c, 3, 78, 98
1, 14130, Note_on_c, 2, 66, 127
1, 14137, Note_off_c, 3, 79, 64
1, 14137, Note_off_c, 3, 64, 64
1, 14172, Note_on_c, 3, 76, 99
1, 14182, Note_off_c, 3, 78, 64
1, 14219, Note_on_c, 2, 67, 127
1, 14219, Note_on_c, 3, 74, 103
1, 14225, Note_off_c, 3, 76, 64
1, 14226, Note_off_c, 2, 66, 64
1, 14263, Note_on_c, 3, 73, 103
1, 14270, Note_off_c, 3, 74, 64
1, 14299, Note_off_c, 2, 69, 64
1, 14303, Note_off_c, 3, 73, 64
1, 14307, Note_on_c, 2, 69, 124
1, 14307, Note_on_c, 3, 73, 103
1, 14308, Note_on_c, 2, 66, 127
1, 14314, Note_off_c, 2, 67, 64
1, 14353, Note_on_c, 3, 74, 103
1, 14361, Note_off_c, 3, 73, 64
1, 14397, Note_on_c, 3, 73, 103
1, 14405, Note_off_c, 3, 74, 64
1, 14445, Note_on_c, 3, 74, 103
1, 14453, Note_off_c, 3, 73, 64
1, 14491, Note_on_c, 3, 79, 99
1, 14499, Note_off_c, 3, 74, 64
1, 14537, Note_on_c, 3, 78, 98
1, 14545, Note_off_c, 3, 79, 64
1, 14576, Note_off_c, 2, 69, 64
1, 14576, Note_off_c, 2, 66, 64
1, 14582, Note_on_c, 3, 75, 99
1, 14583, Note_on_c, 4, 61, 127
1, 14583, Note_on_c, 2, 69, 124
1, 14590, Note_off_c, 3, 78, 64
1, 14628, Note_on_c, 3, 76, 99
1, 14634, Note_off_c, 3, 75, 64
1, 14669, Note_on_c, 3, 75, 99
1, 14676, Note_off_c, 3, 76, 64
1, 14713, Note_on_c, 3, 76, 99
1, 14721, Note_off_c, 3, 75, 64
1, 14757, Note_on_c, 0, 81, 99
1, 14765, Note_off_c, 3, 76, 64
1, 14801, Note_on_c, 3, 79, 99
1, 14809, Note_off_c, 0, 81, 64
1, 14838, Note_off_c, 2, 69, 64
1, 14838, Note_off_c, 4, 61, 64
1, 14844, Note_on_c, 3, 77, 99
1, 14845, Note_on_c, 3, 62, 127
1, 14845, Note_on_c, 2, 69, 124
1, 14852, Note_off_c, 3, 79, 64
1, 14889, Note_on_c, 3, 78, 98
1, 14896, Note_off_c, 3, 77, 64
1, 14933, Note_on_c, 3, 77, 99
1, 14940, Note_off_c, 3, 78, 64
1, 14977, Note_on_c, 3, 78, 98
1, 14985, Note_off_c, 3, 77, 64
1, 15021, Note_on_c, 0, 83, 99
1, 15027, Note_off_c, 3, 78, 64
1, 15065, Note_on_c, 0, 81, 99
1, 15071, Note_off_c, 0, 83, 64
1, 15100, Note_off_c, 2, 69, 64
1, 15100, Note_off_c, 3, 62, 64
1, 15103, Note_off_c, 0, 81, 64
1, 15107, Note_on_c, 2, 69, 124
1, 15107, Note_on_c, 0, 81, 99
1, 15108, Note_on_c, 3, 64, 127
1, 15149, Note_on_c, 3, 79, 99
1, 15156, Note_off_c, 0, 81, 64
1, 15193, Note_on_c, 2, 66, 127
1, 15193, Note_on_c, 3, 78, 98
1, 15202, Note_off_c, 3, 79, 64
1, 15202, Note_off_c, 3, 64, 64
1, 15239, Note_on_c, 3, 76, 99
1, 15247, Note_off_c, 3, 78, 64
1, 15283, Note_on_c, 3, 74, 103
1, 15284, Note_on_c, 2, 67, 127
1, 15290, Note_off_c, 3, 76, 64
1, 15290, Note_off_c, 2, 66, 64
1, 15327, Note_on_c, 3, 73, 107
1, 15335, Note_off_c, 3, 74, 64
1, 15366, Note_off_c, 2, 69, 64
1, 15373, Note_on_c, 2, 69, 124
1, 15374, Note_on_c, 2, 66, 127
1, 15383, Note_off_c, 2, 67, 64
1, 15414, Note_off_c, 3, 73, 64
1, 15421, Note_on_c, 3, 74, 107
1, 15471, Note_on_c, 3, 78, 102
1, 15504, Marker_t, "SDRodrian@aol.com  626 Lalor Trenton NJ 08611 http://members.aol.com/sdrodrian"
1, 15510, Note_off_c, 3, 74, 64
1, 15517, Note_on_c, 0, 81, 104
1, 15525, Note_off_c, 3, 78, 64
1, 15565, Note_off_c, 2, 66, 64
1, 15566, Note_off_c, 2, 69, 64
1, 15566, Note_on_c, 0, 86, 104
1, 15567, Note_on_c, 3, 64, 127
1, 15567, Note_on_c, 2, 67, 127
1, 15572, Note_off_c, 0, 81, 64
1, 15611, Note_on_c, 0, 85, 104
1, 15618, Note_off_c, 0, 86, 64
1, 15657, Note_on_c, 2, 66, 127
1, 15657, Note_on_c, 3, 62, 127
1, 15663, Note_off_c, 3, 64, 64
1, 15664, Note_off_c, 2, 67, 64
1, 15701, Note_on_c, 2, 71, 120
1, 15747, Note_on_c, 3, 74, 107
1, 15762, Note_off_c, 0, 85, 64
1, 15785, Note_off_c, 2, 71, 64
1, 15793, Note_on_c, 3, 78, 102
1, 15801, Note_off_c, 3, 74, 64
1, 15837, Note_off_c, 3, 62, 64
1, 15838, Note_off_c, 2, 66, 64
1, 15838, Note_on_c, 0, 83, 104
1, 15839, Note_on_c, 4, 61, 127
1, 15839, Note_on_c, 3, 64, 127
1, 15845, Note_off_c, 3, 78, 64
1, 15883, Note_on_c, 0, 81, 104
1, 15890, Note_off_c, 0, 83, 64
1, 15926, Note_on_c, 3, 62, 127
1, 15927, Note_on_c, 4, 59, 127
1, 15933, Note_off_c, 4, 61, 64
1, 15934, Note_off_c, 3, 64, 64
1, 15971, Note_on_c, 2, 67, 127
1, 16017, Note_on_c, 2, 71, 118
1, 16032, Note_off_c, 0, 81, 64
1, 16047, Note_off_c, 2, 67, 64
1, 16061, Note_on_c, 3, 74, 107
1, 16069, Note_off_c, 2, 71, 64
1, 16106, Note_off_c, 3, 62, 64
1, 16106, Note_off_c, 4, 59, 64
1, 16107, Note_on_c, 3, 79, 104
1, 16107, Note_on_c, 4, 61, 127
1, 16108, Note_on_c, 4, 57, 127
1, 16114, Note_off_c, 3, 74, 64
1, 16150, Note_on_c, 3, 78, 102
1, 16158, Note_off_c, 3, 79, 64
1, 16197, Note_on_c, 4, 59, 127
1, 16197, Note_on_c, 4, 55, 127
1, 16203, Note_off_c, 4, 57, 64
1, 16203, Note_off_c, 4, 61, 64
1, 16240, Note_on_c, 3, 64, 127
1, 16284, Note_on_c, 2, 67, 127
1, 16298, Note_off_c, 3, 78, 64
1, 16312, Note_off_c, 3, 64, 64
1, 16327, Note_on_c, 2, 71, 124
1, 16335, Note_off_c, 2, 67, 64
1, 16367, Note_off_c, 4, 55, 64
1, 16368, Note_off_c, 4, 59, 64
1, 16372, Note_on_c, 3, 76, 112
1, 16373, Note_on_c, 4, 59, 127
1, 16373, Note_on_c, 4, 56, 127
1, 16378, Note_off_c, 2, 71, 64
1, 16418, Note_on_c, 3, 74, 114
1, 16426, Note_off_c, 3, 76, 64
1, 16460, Note_off_c, 4, 56, 64
1, 16461, Note_off_c, 4, 59, 64
1, 16462, Note_on_c, 4, 57, 127
1, 16462, Note_on_c, 3, 73, 114
1, 16468, Note_off_c, 3, 74, 64
1, 16507, Note_on_c, 3, 64, 127
1, 16549, Note_on_c, 4, 61, 127
1, 16549, Note_on_c, 0, 81, 115
1, 16563, Note_off_c, 3, 64, 64
1, 16594, Note_on_c, 3, 64, 127
1, 16609, Note_off_c, 4, 61, 64
1, 16610, Note_off_c, 3, 73, 64
1, 16632, Note_off_c, 0, 81, 64
1, 16639, Note_off_c, 4, 57, 64
1, 16640, Note_on_c, 3, 78, 113
1, 16640, Note_on_c, 3, 74, 118
1, 16641, Note_on_c, 3, 62, 127
1, 16655, Note_off_c, 3, 64, 64
1, 16685, Note_on_c, 2, 66, 127
1, 16699, Note_off_c, 3, 62, 64
1, 16722, Note_off_c, 3, 74, 64
1, 16722, Note_off_c, 3, 78, 64
1, 16728, Note_on_c, 3, 76, 116
1, 16729, Note_on_c, 4, 57, 127
1, 16729, Note_on_c, 3, 73, 118
1, 16745, Note_off_c, 2, 66, 64
1, 16774, Note_on_c, 3, 64, 127
1, 16820, Note_on_c, 0, 81, 115
1, 16820, Note_on_c, 4, 61, 127
1, 16826, Note_off_c, 3, 73, 64
1, 16827, Note_off_c, 3, 76, 64
1, 16835, Note_off_c, 3, 64, 64
1, 16864, Note_on_c, 3, 64, 127
1, 16879, Note_off_c, 4, 61, 64
1, 16904, Note_off_c, 0, 81, 64
1, 16910, Note_off_c, 4, 57, 64
1, 16910, Note_on_c, 3, 78, 113
1, 16911, Note_on_c, 3, 74, 118
1, 16911, Note_on_c, 3, 62, 127
1, 16925, Note_off_c, 3, 64, 64
1, 16954, Note_on_c, 2, 66, 127
1, 16969, Note_off_c, 3, 62, 64
1, 16992, Note_off_c, 3, 74, 64
1, 16993, Note_off_c, 3, 78, 64
1, 16999, Note_on_c, 3, 76, 116
1, 17000, Note_on_c, 3, 73, 118
1, 17000, Note_on_c, 3, 64, 127
1, 17001, Note_on_c, 4, 57, 127
1, 17007, Note_off_c, 2, 66, 64
1, 17091, Note_on_c, 0, 81, 115
1, 17099, Note_off_c, 3, 73, 64
1, 17100, Note_off_c, 3, 76, 64
1, 17184, Note_off_c, 4, 57, 64
1, 17188, Note_off_c, 3, 64, 64
1, 17189, Note_on_c, 2, 69, 122
1, 17189, Note_on_c, 4, 57, 127
1, 17190, Note_on_c, 4, 45, 127
1, 17198, Note_off_c, 0, 81, 64
1, 17277, Note_off_c, 4, 45, 64
1, 17277, Note_off_c, 4, 57, 64
1, 17278, Note_off_c, 2, 69, 64
1, 17283, Note_on_c, 2, 69, 122
1, 17284, Note_on_c, 4, 57, 127
1, 17284, Note_on_c, 4, 45, 127
1, 17478, Note_off_c, 2, 69, 64
1, 17479, Note_on_c, 3, 76, 105
1, 17575, Note_on_c, 0, 81, 104
1, 17576, Note_on_c, 3, 64, 127
1, 17590, Note_off_c, 4, 45, 64
1, 17590, Note_off_c, 4, 57, 64
1, 17598, Note_off_c, 3, 76, 64
1, 17666, Note_on_c, 3, 76, 105
1, 17667, Note_on_c, 2, 69, 122
1, 17675, Note_off_c, 0, 81, 64
1, 17690, Note_off_c, 3, 64, 64
1, 17758, Note_on_c, 3, 64, 127
1, 17758, Note_on_c, 0, 81, 104
1, 17780, Note_off_c, 3, 76, 64
1, 17780, Note_off_c, 2, 69, 64
1, 17846, Note_on_c, 0, 85, 104
1, 17846, Note_on_c, 2, 69, 122
1, 17853, Note_off_c, 0, 81, 64
1, 17868, Note_off_c, 3, 64, 64
1, 17935, Note_on_c, 0, 81, 104
1, 17936, Note_on_c, 3, 73, 107
1, 17942, Note_off_c, 2, 69, 64
1, 17942, Note_off_c, 0, 85, 64
1, 18024, Note_on_c, 0, 85, 104
1, 18024, Note_on_c, 2, 69, 122
1, 18030, Note_off_c, 3, 73, 64
1, 18031, Note_off_c, 0, 81, 64
1, 18108, Note_on_c, 0, 88, 104
1, 18108, Note_on_c, 3, 73, 107
1, 18117, Note_off_c, 2, 69, 64
1, 18117, Note_off_c, 0, 85, 64
1, 18154, Note_on_c, 0, 86, 104
1, 18162, Note_off_c, 0, 88, 64
1, 18198, Note_on_c, 0, 85, 104
1, 18199, Note_on_c, 3, 76, 105
1, 18205, Note_off_c, 0, 86, 64
1, 18206, Note_off_c, 3, 73, 64
1, 18242, Note_on_c, 0, 83, 104
1, 18243, Note_on_c, 3, 74, 107
1, 18249, Note_off_c, 3, 76, 64
1, 18250, Note_off_c, 0, 85, 64
1, 18287, Note_on_c, 0, 81, 104
1, 18287, Note_on_c, 3, 73, 107
1, 18293, Note_off_c, 3, 74, 64
1, 18294, Note_off_c, 0, 83, 64
1, 18331, Note_on_c, 0, 80, 104
1, 18331, Note_on_c, 2, 71, 118
1, 18338, Note_off_c, 3, 73, 64
1, 18338, Note_off_c, 0, 81, 64
1, 18375, Note_on_c, 2, 70, 120
1, 18375, Note_on_c, 3, 78, 102
1, 18384, Note_off_c, 2, 71, 64
1, 18384, Note_off_c, 0, 80, 64
1, 18421, Note_on_c, 2, 68, 124
1, 18421, Note_on_c, 3, 76, 105
1, 18430, Note_off_c, 3, 78, 64
1, 18430, Note_off_c, 2, 70, 64
1, 18468, Note_on_c, 3, 74, 107
1, 18468, Note_on_c, 2, 66, 127
1, 18476, Note_off_c, 3, 76, 64
1, 18476, Note_off_c, 2, 68, 64
1, 18511, Note_on_c, 3, 73, 107
1, 18512, Note_on_c, 3, 64, 127
1, 18520, Note_off_c, 2, 66, 64
1, 18521, Note_off_c, 3, 74, 64
1, 18559, Note_on_c, 2, 71, 118
1, 18560, Note_on_c, 3, 62, 127
1, 18566, Note_off_c, 3, 64, 64
1, 18566, Note_off_c, 3, 73, 64
1, 18605, Note_on_c, 2, 70, 120
1, 18606, Note_on_c, 4, 61, 127
1, 18612, Note_off_c, 3, 62, 64
1, 18612, Note_off_c, 2, 71, 64
1, 18651, Note_off_c, 4, 61, 64
1, 18652, Note_off_c, 2, 70, 64
1, 18653, Note_on_c, 2, 71, 118
1, 18653, Note_on_c, 4, 59, 127
1, 18697, Note_on_c, 4, 58, 127
1, 18706, Note_off_c, 4, 59, 64
1, 18744, Note_on_c, 2, 66, 127
1, 18744, Note_on_c, 4, 59, 127
1, 18752, Note_off_c, 4, 58, 64
1, 18753, Note_off_c, 2, 71, 64
1, 18832, Note_on_c, 2, 71, 118
1, 18833, Note_on_c, 4, 54, 127
1, 18840, Note_off_c, 4, 59, 64
1, 18841, Note_off_c, 2, 66, 64
1, 18924, Note_on_c, 4, 59, 127
1, 18924, Note_on_c, 3, 74, 107
1, 18931, Note_off_c, 4, 54, 64
1, 18931, Note_off_c, 2, 71, 64
1, 19015, Note_on_c, 2, 71, 118
1, 19015, Note_on_c, 3, 62, 127
1, 19021, Note_off_c, 4, 59, 64
1, 19022, Note_off_c, 3, 74, 64
1, 19101, Note_on_c, 3, 74, 107
1, 19102, Note_on_c, 4, 59, 127
1, 19108, Note_off_c, 3, 62, 64
1, 19108, Note_off_c, 2, 71, 64
1, 19189, Note_on_c, 3, 78, 102
1, 19190, Note_on_c, 3, 62, 127
1, 19198, Note_off_c, 4, 59, 64
1, 19199, Note_off_c, 3, 74, 64
1, 19236, Note_on_c, 3, 76, 105
1, 19243, Note_off_c, 3, 78, 64
1, 19278, Note_on_c, 2, 66, 127
1, 19278, Note_on_c, 3, 74, 107
1, 19284, Note_off_c, 3, 76, 64
1, 19285, Note_off_c, 3, 62, 64
1, 19318, Note_on_c, 3, 73, 107
1, 19319, Note_on_c, 3, 64, 127
1, 19327, Note_off_c, 3, 74, 64
1, 19327, Note_off_c, 2, 66, 64
1, 19362, Note_on_c, 2, 71, 118
1, 19363, Note_on_c, 3, 62, 127
1, 19371, Note_off_c, 3, 64, 64
1, 19371, Note_off_c, 3, 73, 64
1, 19406, Note_on_c, 2, 70, 120
1, 19407, Note_on_c, 4, 61, 127
1, 19413, Note_off_c, 3, 62, 64
1, 19414, Note_off_c, 2, 71, 64
1, 19449, Note_on_c, 3, 74, 107
1, 19449, Note_on_c, 4, 59, 127
1, 19455, Note_off_c, 4, 61, 64
1, 19456, Note_off_c, 2, 70, 64
1, 19493, Note_on_c, 3, 73, 107
1, 19493, Note_on_c, 4, 58, 127
1, 19500, Note_off_c, 4, 59, 64
1, 19500, Note_off_c, 3, 74, 64
1, 19535, Note_on_c, 2, 71, 118
1, 19536, Note_on_c, 3, 62, 127
1, 19544, Note_off_c, 4, 58, 64
1, 19544, Note_off_c, 3, 73, 64
1, 19579, Note_on_c, 2, 69, 122
1, 19580, Note_on_c, 4, 61, 127
1, 19586, Note_off_c, 3, 62, 64
1, 19586, Note_off_c, 2, 71, 64
1, 19621, Note_on_c, 2, 68, 124
1, 19622, Note_on_c, 4, 59, 127
1, 19628, Note_off_c, 4, 61, 64
1, 19629, Note_off_c, 2, 69, 64
1, 19666, Note_on_c, 4, 57, 127
1, 19666, Note_on_c, 2, 66, 127
1, 19672, Note_off_c, 4, 59, 64
1, 19673, Note_off_c, 2, 68, 64
1, 19708, Note_on_c, 3, 64, 127
1, 19709, Note_on_c, 4, 56, 127
1, 19717, Note_off_c, 4, 57, 64
1, 19718, Note_off_c, 2, 66, 64
1, 19755, Note_on_c, 4, 54, 127
1, 19763, Note_off_c, 4, 56, 64
1, 19799, Note_on_c, 4, 59, 127
1, 19800, Note_on_c, 4, 52, 127
1, 19808, Note_off_c, 4, 54, 64
1, 19808, Note_off_c, 3, 64, 64
1, 19893, Note_on_c, 3, 64, 127
1, 19894, Note_on_c, 4, 47, 127
1, 19902, Note_off_c, 4, 59, 64
1, 19915, Note_off_c, 4, 52, 64
1, 19984, Note_on_c, 2, 68, 124
1, 19985, Note_on_c, 4, 52, 127
1, 19991, Note_off_c, 3, 64, 64
1, 20006, Note_off_c, 4, 47, 64
1, 20074, Note_on_c, 4, 56, 127
1, 20074, Note_on_c, 3, 64, 127
1, 20080, Note_off_c, 2, 68, 64
1, 20096, Note_off_c, 4, 52, 64
1, 20165, Note_on_c, 2, 68, 124
1, 20165, Note_on_c, 4, 52, 127
1, 20173, Note_off_c, 4, 56, 64
1, 20174, Note_off_c, 3, 64, 64
1, 20255, Note_on_c, 2, 71, 118
1, 20256, Note_on_c, 4, 56, 127
1, 20264, Note_off_c, 4, 52, 64
1, 20264, Note_off_c, 2, 68, 64
1, 20299, Note_on_c, 3, 73, 109
1, 20307, Note_off_c, 2, 71, 64
1, 20341, Note_on_c, 3, 74, 109
1, 20342, Note_on_c, 4, 59, 127
1, 20348, Note_off_c, 3, 73, 64
1, 20349, Note_off_c, 4, 56, 64
1, 20384, Note_on_c, 4, 61, 127
1, 20384, Note_on_c, 3, 73, 109
1, 20390, Note_off_c, 4, 59, 64
1, 20391, Note_off_c, 3, 74, 64
1, 20424, Note_on_c, 2, 71, 118
1, 20424, Note_on_c, 3, 62, 127
1, 20431, Note_off_c, 3, 73, 64
1, 20431, Note_off_c, 4, 61, 64
1, 20464, Note_on_c, 2, 69, 122
1, 20465, Note_on_c, 4, 61, 127
1, 20471, Note_off_c, 3, 62, 64
1, 20472, Note_off_c, 2, 71, 64
1, 20507, Note_on_c, 2, 68, 124
1, 20507, Note_on_c, 4, 59, 127
1, 20513, Note_off_c, 4, 61, 64
1, 20514, Note_off_c, 2, 69, 64
1, 20551, Note_on_c, 2, 66, 127
1, 20551, Note_on_c, 4, 57, 127
1, 20557, Note_off_c, 4, 59, 64
1, 20558, Note_off_c, 2, 68, 64
1, 20591, Note_on_c, 3, 64, 127
1, 20591, Note_on_c, 4, 56, 127
1, 20596, Note_off_c, 4, 57, 64
1, 20599, Note_off_c, 2, 66, 64
1, 20637, Note_on_c, 2, 66, 127
1, 20638, Note_off_c, 4, 56, 64
1, 20638, Note_on_c, 4, 54, 127
1, 20654, Note_off_c, 3, 64, 64
1, 20684, Note_on_c, 3, 62, 127
1, 20684, Note_on_c, 4, 56, 127
1, 20687, Note_off_c, 4, 54, 64
1, 20698, Note_off_c, 2, 66, 64
1, 20727, Note_on_c, 3, 64, 127
1, 20728, Note_on_c, 4, 52, 127
1, 20735, Note_off_c, 3, 62, 64
1, 20742, Note_off_c, 4, 56, 64
1, 20772, Marker_t, "1121 Deutz Ave Trenton NJ 08611 http://www.geocities.com/Paris/LeftBank/3214"
1, 20772, Note_on_c, 4, 61, 127
1, 20772, Note_on_c, 4, 57, 127
1, 20778, Note_off_c, 4, 52, 64
1, 20779, Note_off_c, 3, 64, 64
1, 20814, Note_on_c, 3, 64, 127
1, 20861, Note_on_c, 3, 63, 127
1, 20867, Note_off_c, 3, 64, 64
1, 20906, Note_on_c, 3, 64, 127
1, 20914, Note_off_c, 3, 63, 64
1, 20950, Note_on_c, 2, 66, 127
1, 20958, Note_off_c, 3, 64, 64
1, 20994, Note_on_c, 3, 64, 127
1, 21000, Note_off_c, 2, 66, 64
1, 21030, Note_off_c, 4, 57, 64
1, 21030, Note_off_c, 4, 61, 64
1, 21036, Note_on_c, 2, 69, 122
1, 21037, Note_on_c, 4, 61, 127
1, 21037, Note_on_c, 4, 57, 127
1, 21043, Note_off_c, 3, 64, 64
1, 21082, Note_on_c, 3, 64, 127
1, 21089, Note_off_c, 2, 69, 64
1, 21126, Note_on_c, 3, 63, 127
1, 21134, Note_off_c, 3, 64, 64
1, 21170, Note_on_c, 3, 64, 127
1, 21178, Note_off_c, 3, 63, 64
1, 21213, Note_on_c, 2, 66, 127
1, 21220, Note_off_c, 3, 64, 64
1, 21257, Note_on_c, 3, 64, 127
1, 21264, Note_off_c, 2, 66, 64
1, 21294, Note_off_c, 4, 57, 64
1, 21294, Note_off_c, 4, 61, 64
1, 21301, Note_on_c, 4, 59, 127
1, 21301, Note_on_c, 4, 56, 127
1, 21308, Note_off_c, 3, 64, 64
1, 21345, Note_on_c, 3, 64, 127
1, 21389, Note_on_c, 3, 63, 127
1, 21397, Note_off_c, 3, 64, 64
1, 21433, Note_on_c, 3, 64, 127
1, 21441, Note_off_c, 3, 63, 64
1, 21476, Note_off_c, 4, 56, 64
1, 21476, Note_off_c, 4, 59, 64
1, 21479, Note_on_c, 4, 61, 127
1, 21479, Note_on_c, 4, 57, 127
1, 21487, Note_off_c, 3, 64, 64
1, 21524, Note_on_c, 3, 64, 127
1, 21531, Note_off_c, 4, 61, 64
1, 21568, Note_on_c, 4, 59, 127
1, 21568, Note_on_c, 3, 62, 127
1, 21575, Note_off_c, 3, 64, 64
1, 21575, Note_off_c, 4, 57, 64
1, 21614, Note_on_c, 3, 64, 127
1, 21620, Note_off_c, 3, 62, 64
1, 21658, Note_on_c, 4, 61, 127
1, 21659, Note_on_c, 4, 57, 127
1, 21667, Note_off_c, 3, 64, 64
1, 21667, Note_off_c, 4, 59, 64
1, 21704, Note_on_c, 3, 64, 127
1, 21712, Note_off_c, 4, 61, 64
1, 21748, Note_on_c, 4, 59, 127
1, 21749, Note_on_c, 4, 56, 127
1, 21757, Note_off_c, 3, 64, 64
1, 21757, Note_off_c, 4, 57, 64
1, 21792, Note_on_c, 3, 64, 127
1, 21837, Note_on_c, 4, 61, 127
1, 21837, Note_on_c, 4, 57, 127
1, 21845, Note_off_c, 4, 56, 64
1, 21846, Note_off_c, 3, 64, 64
1, 21846, Note_off_c, 4, 59, 64
1, 21881, Note_on_c, 3, 64, 127
1, 21923, Note_on_c, 3, 63, 127
1, 21932, Note_off_c, 3, 64, 64
1, 21966, Note_on_c, 3, 64, 127
1, 21972, Note_off_c, 3, 63, 64
1, 22008, Note_on_c, 2, 66, 127
1, 22016, Note_off_c, 3, 64, 64
1, 22053, Note_on_c, 3, 64, 127
1, 22058, Note_off_c, 2, 66, 64
1, 22089, Note_off_c, 4, 57, 64
1, 22090, Note_off_c, 4, 61, 64
1, 22096, Note_on_c, 4, 61, 127
1, 22096, Note_on_c, 2, 69, 122
1, 22097, Note_on_c, 4, 57, 127
1, 22103, Note_off_c, 3, 64, 64
1, 22139, Note_on_c, 3, 64, 127
1, 22147, Note_off_c, 2, 69, 64
1, 22183, Note_on_c, 3, 63, 127
1, 22192, Note_off_c, 3, 64, 64
1, 22228, Note_on_c, 3, 64, 127
1, 22236, Note_off_c, 3, 63, 64
1, 22272, Note_on_c, 2, 66, 127
1, 22280, Note_off_c, 3, 64, 64
1, 22317, Note_on_c, 3, 64, 127
1, 22324, Note_off_c, 2, 66, 64
1, 22353, Note_off_c, 4, 57, 64
1, 22354, Note_off_c, 4, 61, 64
1, 22362, Note_on_c, 4, 59, 127
1, 22362, Note_on_c, 4, 56, 127
1, 22368, Note_off_c, 3, 64, 64
1, 22407, Note_on_c, 3, 64, 127
1, 22452, Note_on_c, 3, 63, 127
1, 22458, Note_off_c, 3, 64, 64
1, 22494, Note_on_c, 3, 64, 127
1, 22502, Note_off_c, 3, 63, 64
1, 22538, Note_off_c, 4, 56, 64
1, 22539, Note_off_c, 4, 59, 64
1, 22539, Note_on_c, 4, 61, 127
1, 22540, Note_on_c, 4, 57, 127
1, 22546, Note_off_c, 3, 64, 64
1, 22583, Note_on_c, 3, 64, 127
1, 22592, Note_off_c, 4, 61, 64
1, 22629, Note_on_c, 3, 62, 127
1, 22629, Note_on_c, 4, 59, 127
1, 22636, Note_off_c, 3, 64, 64
1, 22636, Note_off_c, 4, 57, 64
1, 22674, Note_on_c, 3, 64, 127
1, 22681, Note_off_c, 3, 62, 64
1, 22718, Note_on_c, 4, 57, 127
1, 22718, Note_on_c, 4, 61, 127
1, 22725, Note_off_c, 3, 64, 64
1, 22725, Note_off_c, 4, 59, 64
1, 22762, Note_on_c, 3, 64, 127
1, 22768, Note_off_c, 4, 61, 64
1, 22806, Note_on_c, 4, 59, 127
1, 22807, Note_on_c, 4, 56, 127
1, 22813, Note_off_c, 3, 64, 64
1, 22813, Note_off_c, 4, 57, 64
1, 22848, Note_on_c, 3, 64, 127
1, 22891, Note_off_c, 4, 56, 64
1, 22891, Note_off_c, 4, 59, 64
1, 22900, Note_on_c, 4, 57, 127
1, 22943, Note_on_c, 4, 61, 127
1, 22948, Note_off_c, 3, 64, 64
1, 22985, Note_on_c, 3, 64, 127
1, 22992, Note_off_c, 4, 61, 64
1, 23027, Note_on_c, 2, 69, 123
1, 23033, Note_off_c, 3, 64, 64
1, 23067, Note_on_c, 3, 73, 113
1, 23076, Note_off_c, 2, 69, 64
1, 23110, Note_on_c, 3, 76, 111
1, 23118, Note_off_c, 3, 73, 64
1, 23145, Note_off_c, 4, 57, 64
1, 23153, Note_on_c, 0, 81, 106
1, 23153, Note_on_c, 4, 61, 127
1, 23154, Note_on_c, 4, 57, 127
1, 23160, Note_off_c, 3, 76, 64
1, 23195, Note_on_c, 0, 80, 106
1, 23202, Note_off_c, 0, 81, 64
1, 23238, Note_on_c, 3, 78, 105
1, 23239, Note_on_c, 4, 59, 127
1, 23239, Note_on_c, 3, 62, 127
1, 23245, Note_off_c, 0, 80, 64
1, 23245, Note_off_c, 4, 57, 64
1, 23246, Note_off_c, 4, 61, 64
1, 23281, Note_on_c, 3, 76, 111
1, 23289, Note_off_c, 3, 78, 64
1, 23326, Note_on_c, 3, 74, 113
1, 23327, Note_on_c, 3, 64, 127
1, 23327, Note_on_c, 4, 61, 127
1, 23333, Note_off_c, 3, 76, 64
1, 23334, Note_off_c, 3, 62, 64
1, 23334, Note_off_c, 4, 59, 64
1, 23373, Note_on_c, 3, 73, 113
1, 23380, Note_off_c, 3, 74, 64
1, 23419, Note_on_c, 3, 62, 127
1, 23419, Note_on_c, 2, 66, 127
1, 23426, Note_off_c, 4, 61, 64
1, 23426, Note_off_c, 3, 64, 64
1, 23463, Note_on_c, 2, 70, 123
1, 23471, Note_off_c, 3, 73, 64
1, 23506, Note_on_c, 2, 71, 121
1, 23512, Note_off_c, 2, 70, 64
1, 23548, Note_on_c, 3, 73, 113
1, 23555, Note_off_c, 2, 71, 64
1, 23589, Note_on_c, 3, 74, 113
1, 23597, Note_off_c, 3, 73, 64
1, 23629, Note_on_c, 3, 76, 111
1, 23637, Note_off_c, 3, 74, 64
1, 23664, Note_off_c, 2, 66, 64
1, 23664, Note_off_c, 3, 62, 64
1, 23671, Note_on_c, 3, 62, 127
1, 23671, Note_on_c, 3, 78, 105
1, 23672, Note_on_c, 4, 59, 127
1, 23677, Note_off_c, 3, 76, 64
1, 23714, Note_on_c, 3, 76, 111
1, 23720, Note_off_c, 3, 78, 64
1, 23754, Note_on_c, 3, 74, 113
1, 23755, Note_on_c, 4, 61, 127
1, 23755, Note_on_c, 3, 64, 127
1, 23763, Note_off_c, 3, 76, 64
1, 23763, Note_off_c, 3, 62, 64
1, 23763, Note_off_c, 4, 59, 64
1, 23796, Note_on_c, 3, 73, 113
1, 23804, Note_off_c, 3, 74, 64
1, 23841, Note_on_c, 2, 71, 121
1, 23841, Note_on_c, 2, 66, 127
1, 23842, Note_on_c, 3, 62, 127
1, 23847, Note_off_c, 3, 73, 64
1, 23848, Note_off_c, 3, 64, 64
1, 23848, Note_off_c, 4, 61, 64
1, 23886, Note_on_c, 2, 69, 123
1, 23893, Note_off_c, 2, 71, 64
1, 23932, Note_on_c, 4, 52, 127
1, 23932, Note_on_c, 3, 64, 127
1, 23940, Note_off_c, 3, 62, 64
1, 23941, Note_off_c, 2, 66, 64
1, 23978, Note_on_c, 3, 73, 113
1, 23986, Note_off_c, 2, 69, 64
1, 24024, Note_on_c, 2, 69, 123
1, 24024, Note_on_c, 4, 61, 127
1, 24025, Note_on_c, 4, 57, 127
1, 24031, Note_off_c, 3, 64, 64
1, 24031, Note_off_c, 3, 73, 64
1, 24070, Note_on_c, 3, 76, 111
1, 24110, Note_off_c, 4, 57, 64
1, 24111, Note_off_c, 4, 61, 64
1, 24117, Note_on_c, 3, 73, 113
1, 24118, Note_on_c, 4, 61, 127
1, 24118, Note_on_c, 4, 57, 127
1, 24125, Note_off_c, 3, 76, 64
1, 24125, Note_off_c, 2, 69, 64
1, 24164, Note_on_c, 0, 81, 106
1, 24174, Note_off_c, 3, 73, 64
1, 24208, Note_off_c, 4, 52, 64
1, 24216, Note_on_c, 4, 52, 127
1, 24216, Note_on_c, 3, 73, 110
1, 24227, Note_off_c, 0, 81, 64
1, 24245, Note_on_c, 2, 71, 119
1, 24254, Note_off_c, 3, 73, 64
1, 24274, Note_on_c, 3, 73, 110
1, 24283, Note_off_c, 2, 71, 64
1, 24300, Note_on_c, 2, 71, 119
1, 24310, Note_off_c, 3, 73, 64
1, 24329, Note_off_c, 4, 57, 64
1, 24330, Note_off_c, 4, 61, 64
1, 24330, Note_on_c, 3, 73, 110
1, 24331, Note_on_c, 3, 62, 127
1, 24331, Note_on_c, 4, 56, 127
1, 24339, Note_off_c, 2, 71, 64
1, 24356, Note_on_c, 2, 71, 119
1, 24364, Note_off_c, 3, 73, 64
1, 24383, Note_on_c, 3, 73, 110
1, 24391, Note_off_c, 2, 71, 64
1, 24410, Note_on_c, 2, 71, 119
1, 24418, Note_off_c, 3, 73, 64
1, 24425, Note_off_c, 4, 56, 64
1, 24426, Note_off_c, 3, 62, 64
1, 24432, Note_on_c, 3, 62, 127
1, 24432, Note_on_c, 2, 69, 123
1, 24433, Note_on_c, 4, 56, 127
1, 24443, Note_off_c, 2, 71, 64
1, 24481, Note_on_c, 2, 71, 119
1, 24489, Note_off_c, 2, 69, 64
1, 24519, Note_off_c, 4, 52, 64
1, 24527, Note_on_c, 2, 69, 123
1, 24528, Note_on_c, 4, 61, 127
1, 24528, Note_on_c, 4, 57, 127
1, 24536, Note_off_c, 3, 62, 64
1, 24536, Note_off_c, 4, 56, 64
1, 24537, Note_off_c, 2, 71, 64
1, 24615, Note_off_c, 4, 57, 64
1, 24621, Note_on_c, 4, 57, 127
1, 24622, Note_on_c, 4, 45, 127
1, 24712, Note_off_c, 4, 45, 64
1, 24713, Note_off_c, 4, 57, 64
1, 24720, Note_on_c, 4, 57, 127
1, 24720, Note_on_c, 4, 45, 127
1, 24812, Note_off_c, 4, 45, 64
1, 24813, Note_off_c, 4, 57, 64
1, 24821, Note_on_c, 4, 57, 127
1, 24821, Note_on_c, 4, 45, 127
1, 24828, Note_off_c, 2, 69, 64
1, 24829, Note_off_c, 4, 61, 64
1, 25023, Note_on_c, 3, 73, 112
1, 25122, Note_on_c, 3, 74, 112
1, 25129, Note_off_c, 3, 73, 64
1, 25308, Note_off_c, 3, 74, 64
1, 25308, Note_on_c, 3, 76, 110
1, 25401, Note_on_c, 3, 78, 107
1, 25408, Note_off_c, 3, 76, 64
1, 25491, Note_on_c, 3, 76, 110
1, 25499, Note_off_c, 3, 78, 64
1, 25535, Note_on_c, 3, 74, 112
1, 25543, Note_off_c, 3, 76, 64
1, 25579, Note_on_c, 3, 73, 112
1, 25587, Note_off_c, 3, 74, 64
1, 25625, Note_on_c, 2, 71, 121
1, 25633, Note_off_c, 3, 73, 64
1, 25673, Note_on_c, 2, 69, 125
1, 25674, Note_on_c, 3, 62, 123
1, 25674, Note_on_c, 3, 59, 123
1, 25675, Note_on_c, 4, 52, 123
1, 25680, Note_off_c, 2, 71, 64
1, 25688, Note_off_c, 4, 45, 64
1, 25688, Note_off_c, 4, 57, 64
1, 25932, Note_off_c, 2, 69, 64
1, 25939, Note_on_c, 2, 68, 126
1, 26115, Note_off_c, 2, 68, 64
1, 26116, Note_off_c, 3, 59, 64
1, 26116, Note_on_c, 2, 66, 127
1, 26117, Note_off_c, 4, 52, 64
1, 26117, Note_on_c, 4, 50, 127
1, 26118, Note_off_c, 3, 62, 64
1, 26118, Note_on_c, 3, 56, 127
1, 26204, Note_off_c, 2, 66, 64
1, 26211, Note_on_c, 2, 66, 127
1, 26212, Note_on_c, 4, 49, 127
1, 26212, Note_on_c, 3, 57, 127
1, 26220, Note_off_c, 4, 50, 64
1, 26220, Note_off_c, 3, 56, 64
1, 26300, Note_on_c, 3, 64, 127
1, 26307, Note_off_c, 2, 66, 64
1, 26389, Note_off_c, 3, 64, 64
1, 26396, Note_on_c, 3, 64, 127
1, 26484, Note_off_c, 3, 64, 64
1, 26492, Note_on_c, 3, 64, 127
1, 26572, Note_off_c, 4, 49, 64
1, 26573, Note_off_c, 3, 57, 64
1, 26588, Note_on_c, 4, 49, 127
1, 26588, Note_on_c, 2, 69, 125
1, 26596, Note_off_c, 3, 64, 64
1, 26673, Note_off_c, 2, 69, 64
1, 26679, Note_on_c, 2, 69, 125
1, 26679, Note_on_c, 3, 73, 112
1, 26680, Note_on_c, 4, 45, 127
1, 26688, Note_off_c, 4, 49, 64
1, 26766, Note_off_c, 2, 69, 64
1, 26767, Note_off_c, 3, 73, 64
1, 26773, Note_on_c, 3, 73, 112
1, 26773, Note_on_c, 2, 69, 125
1, 26774, Note_on_c, 4, 52, 127
1, 26780, Note_off_c, 4, 45, 64
1, 26964, Note_off_c, 3, 73, 64
1, 26964, Note_on_c, 3, 74, 112
1, 27049, Note_off_c, 2, 69, 64
1, 27057, Note_on_c, 2, 71, 121
1, 27058, Note_on_c, 2, 68, 126
1, 27064, Note_off_c, 3, 74, 64
1, 27240, Note_off_c, 2, 68, 64
1, 27241, Note_off_c, 2, 71, 64
1, 27241, Note_on_c, 3, 73, 112
1, 27326, Note_off_c, 3, 73, 64
1, 27334, Note_on_c, 3, 74, 112
1, 27416, Note_off_c, 3, 74, 64
1, 27424, Note_on_c, 3, 74, 112
1, 27467, Note_on_c, 3, 73, 112
1, 27475, Note_off_c, 3, 74, 64
1, 27511, Note_on_c, 3, 76, 110
1, 27517, Note_off_c, 3, 73, 64
1, 27553, Note_on_c, 3, 74, 112
1, 27561, Note_off_c, 3, 76, 64
1, 27598, Note_on_c, 3, 78, 107
1, 27604, Note_off_c, 3, 74, 64
1, 27642, Note_on_c, 3, 76, 110
1, 27649, Note_off_c, 3, 78, 64
1, 27682, Note_on_c, 3, 74, 112
1, 27690, Note_off_c, 3, 76, 64
1, 27725, Note_on_c, 3, 73, 112
1, 27732, Note_off_c, 3, 74, 64
1, 27767, Note_on_c, 3, 74, 112
1, 27774, Note_off_c, 3, 73, 64
1, 27813, Note_on_c, 2, 71, 121
1, 27820, Note_off_c, 3, 74, 64
1, 27841, Note_off_c, 4, 52, 64
1, 27857, Note_on_c, 2, 69, 125
1, 27858, Note_on_c, 3, 62, 123
1, 27858, Note_on_c, 3, 59, 123
1, 27859, Note_on_c, 4, 52, 127
1, 27863, Note_off_c, 2, 71, 64
1, 27901, Note_on_c, 2, 68, 126
1, 27909, Note_off_c, 2, 69, 64
1, 27947, Note_on_c, 2, 71, 121
1, 27955, Note_off_c, 2, 68, 64
1, 27990, Note_on_c, 2, 69, 125
1, 27996, Note_off_c, 2, 71, 64
1, 28032, Note_on_c, 3, 73, 112
1, 28041, Note_off_c, 2, 69, 64
1, 28077, Note_on_c, 2, 71, 121
1, 28082, Note_off_c, 3, 73, 64
1, 28119, Note_on_c, 3, 74, 112
1, 28125, Note_off_c, 2, 71, 64
1, 28162, Note_on_c, 3, 73, 112
1, 28167, Note_off_c, 3, 74, 64
1, 28204, Note_on_c, 3, 76, 110
1, 28210, Note_off_c, 3, 73, 64
1, 28246, Note_on_c, 3, 74, 112
1, 28252, Note_off_c, 3, 76, 64
1, 28282, Note_off_c, 3, 62, 64
1, 28288, Note_on_c, 3, 78, 107
1, 28288, Note_on_c, 2, 68, 126
1, 28289, Note_off_c, 3, 59, 64
1, 28289, Note_on_c, 3, 62, 123
1, 28294, Note_off_c, 3, 74, 64
1, 28332, Note_on_c, 3, 76, 110
1, 28339, Note_off_c, 3, 78, 64
1, 28373, Note_off_c, 3, 76, 64
1, 28375, Note_off_c, 3, 62, 64
1, 28376, Note_off_c, 2, 68, 64
1, 28376, Note_on_c, 3, 76, 110
1, 28377, Note_on_c, 2, 69, 125
1, 28377, Note_on_c, 4, 61, 123
1, 28420, Note_on_c, 0, 81, 108
1, 28428, Note_off_c, 3, 76, 64
1, 28464, Note_on_c, 0, 80, 108
1, 28471, Note_off_c, 0, 81, 64
1, 28507, Note_on_c, 3, 79, 109
1, 28515, Note_off_c, 0, 80, 64
1, 28547, Note_off_c, 4, 61, 64
1, 28548, Note_off_c, 2, 69, 64
1, 28552, Note_on_c, 3, 78, 107
1, 28553, Note_on_c, 3, 62, 123
1, 28553, Note_on_c, 2, 69, 125
1, 28559, Note_off_c, 3, 79, 64
1, 28597, Note_on_c, 3, 77, 110
1, 28605, Note_off_c, 3, 78, 64
1, 28638, Note_off_c, 2, 69, 64
1, 28638, Note_off_c, 3, 62, 64
1, 28644, Note_on_c, 3, 76, 110
1, 28645, Note_on_c, 4, 61, 123
1, 28645, Note_on_c, 2, 69, 125
1, 28653, Note_off_c, 3, 77, 64
1, 28692, Note_on_c, 0, 81, 108
1, 28699, Note_off_c, 3, 76, 64
1, 28738, Note_on_c, 0, 80, 108
1, 28745, Note_off_c, 0, 81, 64
1, 28782, Note_on_c, 3, 79, 109
1, 28789, Note_off_c, 0, 80, 64
1, 28824, Note_off_c, 2, 69, 64
1, 28824, Note_off_c, 4, 61, 64
1, 28829, Note_on_c, 2, 69, 125
1, 28829, Note_on_c, 3, 78, 107
1, 28830, Note_on_c, 3, 62, 123
1, 28836, Note_off_c, 3, 79, 64
1, 28872, Note_off_c, 3, 78, 64
1, 28876, Note_on_c, 3, 77, 110
1, 28912, Note_off_c, 3, 62, 64
1, 28913, Note_off_c, 2, 69, 64
1, 28914, Note_off_c, 4, 52, 64
1, 28918, Note_off_c, 3, 77, 64
1, 28920, Note_on_c, 3, 76, 110
1, 28920, Note_on_c, 2, 69, 125
1, 28921, Note_on_c, 4, 61, 123
1, 29182, Note_off_c, 2, 69, 64
1, 29186, Note_off_c, 3, 76, 64
1, 29188, Note_on_c, 3, 77, 110
1, 29188, Note_on_c, 2, 68, 126
1, 29189, Note_on_c, 2, 71, 121
1, 29465, Note_off_c, 3, 77, 64
1, 29466, Note_off_c, 4, 61, 64
1, 29466, Note_on_c, 3, 78, 107
1, 29467, Note_off_c, 2, 68, 64
1, 29467, Note_on_c, 2, 66, 127
1, 29468, Note_off_c, 2, 71, 64
1, 29468, Note_on_c, 2, 69, 125
1, 29469, Note_on_c, 3, 62, 127
1, 29644, Note_off_c, 3, 78, 64
1, 29648, Note_on_c, 3, 78, 107
1, 29694, Note_on_c, 0, 80, 108
1, 29704, Note_off_c, 3, 78, 64
1, 29741, Note_on_c, 0, 81, 108
1, 29747, Note_off_c, 0, 80, 64
1, 29787, Note_on_c, 3, 77, 110
1, 29793, Note_off_c, 0, 81, 64
1, 29829, Note_on_c, 3, 78, 107
1, 29837, Note_off_c, 3, 77, 64
1, 29873, Note_on_c, 3, 73, 112
1, 29881, Note_off_c, 3, 78, 64
1, 29921, Note_on_c, 3, 74, 112
1, 29929, Note_off_c, 3, 73, 64
1, 29952, Note_off_c, 2, 69, 64
1, 29968, Note_on_c, 2, 71, 121
1, 29974, Note_off_c, 3, 74, 64
1, 30014, Note_on_c, 2, 69, 125
1, 30015, Note_off_c, 2, 66, 64
1, 30015, Note_off_c, 3, 62, 64
1, 30021, Note_off_c, 2, 71, 64
1, 30196, Note_on_c, 4, 61, 127
1, 30196, Note_on_c, 4, 52, 127
1, 30285, Note_on_c, 3, 62, 127
1, 30286, Note_on_c, 4, 53, 127
1, 30292, Note_off_c, 4, 52, 64
1, 30292, Note_off_c, 4, 61, 64
1, 30462, Note_off_c, 4, 53, 64
1, 30463, Note_off_c, 3, 62, 64
1, 30463, Note_on_c, 4, 54, 127
1, 30463, Note_on_c, 3, 63, 127
1, 30547, Note_off_c, 2, 69, 64
1, 30554, Note_on_c, 3, 73, 110
1, 30555, Note_on_c, 3, 64, 127
1, 30555, Note_on_c, 2, 69, 123
1, 30556, Note_on_c, 4, 52, 127
1, 30562, Note_off_c, 4, 54, 64
1, 30563, Note_off_c, 3, 63, 64
1, 30809, Note_off_c, 2, 69, 64
1, 30809, Note_off_c, 3, 64, 64
1, 30810, Note_off_c, 3, 73, 64
1, 30816, Note_on_c, 3, 62, 127
1, 30816, Note_on_c, 2, 68, 124
1, 30816, Note_on_c, 3, 73, 110
1, 30858, Note_on_c, 2, 71, 119
1, 30865, Note_off_c, 3, 73, 64
1, 30902, Note_on_c, 2, 69, 123
1, 30910, Note_off_c, 2, 71, 64
1, 30998, Note_on_c, 2, 71, 119
1, 31008, Note_off_c, 2, 69, 64
1, 31096, Note_off_c, 2, 68, 64
1, 31096, Note_off_c, 3, 62, 64
1, 31097, Note_off_c, 4, 52, 64
1, 31097, Note_on_c, 2, 69, 123
1, 31098, Note_on_c, 4, 57, 127
1, 31104, Note_off_c, 2, 71, 64
1, 31190, Note_on_c, 4, 61, 127
1, 31251, Note_off_c, 4, 57, 64
1, 31282, Note_off_c, 2, 69, 64
1, 31283, Note_on_c, 3, 75, 107
1, 31283, Note_on_c, 3, 64, 127
1, 31289, Note_off_c, 4, 61, 64
1, 31327, Note_on_c, 3, 76, 108
1, 31335, Note_off_c, 3, 75, 64
1, 31369, Note_on_c, 3, 78, 105
1, 31370, Note_on_c, 4, 57, 127
1, 31376, Note_off_c, 3, 76, 64
1, 31377, Note_off_c, 3, 64, 64
1, 31412, Note_on_c, 3, 76, 108
1, 31419, Note_off_c, 3, 78, 64
1, 31452, Note_on_c, 3, 74, 110
1, 31452, Note_on_c, 4, 61, 127
1, 31459, Note_off_c, 3, 76, 64
1, 31493, Note_on_c, 3, 73, 110
1, 31501, Note_off_c, 3, 74, 64
1, 31507, Note_off_c, 4, 57, 64
1, 31536, Note_on_c, 2, 71, 119
1, 31536, Note_on_c, 3, 64, 127
1, 31542, Note_off_c, 3, 73, 64
1, 31543, Note_off_c, 4, 61, 64
1, 31578, Note_on_c, 2, 69, 123
1, 31585, Note_off_c, 2, 71, 64
1, 31622, Note_on_c, 4, 52, 127
1, 31622, Note_on_c, 2, 68, 124
1, 31629, Note_off_c, 2, 69, 64
1, 31629, Note_off_c, 3, 64, 64
1, 31666, Note_on_c, 2, 69, 123
1, 31674, Note_off_c, 2, 68, 64
1, 31710, Note_on_c, 2, 71, 119
1, 31711, Note_on_c, 4, 56, 127
1, 31717, Note_off_c, 2, 69, 64
1, 31752, Note_on_c, 3, 73, 110
1, 31759, Note_off_c, 2, 71, 64
1, 31767, Note_off_c, 4, 52, 64
1, 31798, Note_on_c, 3, 74, 110
1, 31798, Note_on_c, 4, 59, 127
1, 31804, Note_off_c, 3, 73, 64
1, 31805, Note_off_c, 4, 56, 64
1, 31840, Note_on_c, 3, 76, 108
1, 31847, Note_off_c, 3, 74, 64
1, 31883, Note_on_c, 3, 78, 105
1, 31884, Note_on_c, 4, 52, 127
1, 31890, Note_off_c, 3, 76, 64
1, 31890, Note_off_c, 4, 59, 64
1, 31927, Note_on_c, 0, 80, 106
1, 31933, Note_off_c, 3, 78, 64
1, 31969, Note_on_c, 0, 81, 106
1, 31970, Note_on_c, 4, 56, 127
1, 31978, Note_off_c, 0, 80, 64
1, 32013, Note_on_c, 0, 83, 106
1, 32020, Note_off_c, 0, 81, 64
1, 32028, Note_off_c, 4, 52, 64
1, 32057, Note_on_c, 0, 85, 106
1, 32057, Note_on_c, 4, 59, 127
1, 32065, Note_off_c, 0, 83, 64
1, 32066, Note_off_c, 4, 56, 64
1, 32101, Note_on_c, 0, 86, 106
1, 32109, Note_off_c, 0, 85, 64
1, 32147, Note_on_c, 0, 85, 106
1, 32148, Note_on_c, 4, 57, 127
1, 32156, Note_off_c, 4, 59, 64
1, 32157, Note_off_c, 0, 86, 64
1, 32237, Note_on_c, 4, 61, 127
1, 32297, Note_off_c, 4, 57, 64
1, 32326, Note_off_c, 0, 85, 64
1, 32326, Note_on_c, 3, 75, 107
1, 32327, Note_on_c, 3, 64, 127
1, 32332, Note_off_c, 4, 61, 64
1, 32367, Note_on_c, 3, 76, 108
1, 32374, Note_off_c, 3, 75, 64
1, 32404, Note_on_c, 3, 78, 105
1, 32407, Note_on_c, 4, 57, 127
1, 32413, Note_off_c, 3, 76, 64
1, 32413, Note_off_c, 3, 64, 64
1, 32450, Note_on_c, 3, 76, 108
1, 32454, Note_off_c, 3, 78, 64
1, 32491, Note_on_c, 3, 74, 110
1, 32491, Note_on_c, 4, 61, 127
1, 32497, Note_off_c, 3, 76, 64
1, 32530, Note_on_c, 3, 73, 110
1, 32538, Note_off_c, 3, 74, 64
1, 32544, Note_off_c, 4, 57, 64
1, 32572, Note_on_c, 2, 71, 119
1, 32573, Note_on_c, 3, 64, 127
1, 32579, Note_off_c, 3, 73, 64
1, 32580, Note_off_c, 4, 61, 64
1, 32615, Note_on_c, 2, 69, 123
1, 32622, Note_off_c, 2, 71, 64
1, 32655, Note_on_c, 2, 68, 124
1, 32658, Note_on_c, 4, 52, 127
1, 32665, Note_off_c, 3, 64, 64
1, 32666, Note_off_c, 2, 69, 64
1, 32703, Note_on_c, 2, 66, 127
1, 32709, Note_off_c, 2, 68, 64
1, 32749, Note_on_c, 4, 59, 127
1, 32749, Note_on_c, 3, 64, 127
1, 32756, Note_off_c, 2, 66, 64
1, 32795, Note_on_c, 2, 66, 127
1, 32802, Note_off_c, 3, 64, 64
1, 32808, Note_off_c, 4, 52, 64
1, 32836, Note_on_c, 2, 68, 124
1, 32837, Note_on_c, 3, 62, 127
1, 32845, Note_off_c, 2, 66, 64
1, 32881, Note_on_c, 2, 69, 123
1, 32889, Note_off_c, 2, 68, 64
1, 32897, Note_off_c, 4, 59, 64
1, 32926, Note_on_c, 2, 71, 119
1, 32927, Note_on_c, 4, 52, 127
1, 32933, Note_off_c, 2, 69, 64
1, 32933, Note_off_c, 3, 62, 64
1, 32968, Note_on_c, 3, 73, 110
1, 32976, Note_off_c, 2, 71, 64
1, 33012, Note_on_c, 3, 74, 110
1, 33012, Note_on_c, 4, 59, 127
1, 33019, Note_off_c, 3, 73, 64
1, 33054, Note_on_c, 3, 76, 108
1, 33061, Note_off_c, 3, 74, 64
1, 33069, Note_off_c, 4, 52, 64
1, 33098, Note_on_c, 3, 78, 105
1, 33098, Note_on_c, 3, 62, 127
1, 33105, Note_off_c, 3, 76, 64
1, 33105, Note_off_c, 4, 59, 64
1, 33140, Note_on_c, 0, 80, 106
1, 33148, Note_off_c, 3, 78, 64
1, 33180, Note_off_c, 0, 80, 64
1, 33184, Note_on_c, 0, 81, 115
1, 33185, Note_on_c, 4, 61, 127
1, 33185, Note_on_c, 4, 57, 127
1, 33191, Note_off_c, 3, 62, 64
1, 33276, Note_on_c, 3, 76, 119
1, 33335, Note_off_c, 0, 81, 64
1, 33366, Note_off_c, 4, 57, 64
1, 33366, Note_off_c, 4, 61, 64
1, 33367, Note_on_c, 0, 85, 119
1, 33367, Note_on_c, 3, 64, 127
1, 33429, Note_off_c, 3, 76, 64
1, 33460, Note_on_c, 4, 61, 127
1, 33460, Note_on_c, 0, 81, 119
1, 33461, Note_on_c, 4, 57, 127
1, 33467, Note_off_c, 3, 64, 64
1, 33467, Note_off_c, 0, 85, 64
1, 33550, Note_on_c, 3, 76, 119
1, 33558, Note_off_c, 0, 81, 64
1, 33644, Note_off_c, 4, 57, 64
1, 33645, Note_off_c, 4, 61, 64
1, 33645, Note_on_c, 0, 85, 119
1, 33646, Note_on_c, 3, 64, 127
1, 33708, Note_off_c, 3, 76, 64
1, 33739, Note_off_c, 3, 64, 64
1, 33739, Note_off_c, 0, 85, 64
1, 33740, Note_on_c, 4, 61, 127
1, 33740, Note_on_c, 4, 57, 127
1, 33740, Note_on_c, 0, 81, 115
1, 34147, Note_off_c, 4, 57, 64
1, 34155, Note_off_c, 0, 81, 64
1, 34155, Note_off_c, 4, 61, 64
1, 34156, Note_on_c, 4, 57, 127
1, 34156, Note_on_c, 4, 45, 127
1, 34245, Note_off_c, 4, 45, 64
1, 34246, Note_off_c, 4, 57, 64
1, 34246, Note_on_c, 3, 62, 127
1, 34247, Note_on_c, 4, 50, 127
1, 34247, Note_on_c, 4, 57, 127
1, 34248, Note_on_c, 4, 45, 127
1, 34261, Note_off_c, 4, 45, 64
1, 34262, Note_off_c, 4, 57, 64
1, 34335, Note_on_c, 4, 57, 127
1, 34336, Note_on_c, 4, 45, 127
1, 34352, Note_off_c, 3, 62, 64
1, 34352, Note_off_c, 4, 50, 64
1, 34424, Note_on_c, 3, 62, 127
1, 34424, Note_on_c, 4, 50, 127
1, 34440, Note_off_c, 4, 45, 64
1, 34440, Note_off_c, 4, 57, 64
1, 34512, Note_on_c, 4, 54, 127
1, 34512, Note_on_c, 2, 66, 127
1, 34519, Note_off_c, 4, 50, 64
1, 34519, Note_off_c, 3, 62, 64
1, 34598, Note_on_c, 3, 62, 127
1, 34599, Note_on_c, 4, 50, 127
1, 34607, Note_off_c, 4, 54, 64
1, 34608, Note_off_c, 2, 66, 64
1, 34687, Note_on_c, 2, 66, 127
1, 34687, Note_on_c, 4, 54, 127
1, 34695, Note_off_c, 4, 50, 64
1, 34696, Note_off_c, 3, 62, 64
1, 34773, Note_off_c, 4, 54, 64
1, 34774, Note_on_c, 4, 57, 127
1, 34774, Note_on_c, 2, 69, 122
1, 34781, Note_off_c, 2, 66, 64
1, 34950, Note_off_c, 2, 69, 64
1, 34950, Note_off_c, 4, 57, 64
1, 34955, Note_on_c, 2, 69, 122
1, 34955, Note_on_c, 4, 57, 127
1, 35038, Note_off_c, 4, 57, 64
1, 35039, Note_off_c, 2, 69, 64
1, 35045, Note_on_c, 4, 57, 127
1, 35045, Note_on_c, 2, 69, 122
1, 35220, Note_off_c, 2, 69, 64
1, 35226, Note_on_c, 3, 74, 105
1, 35227, Note_on_c, 2, 69, 122
1, 35227, Note_on_c, 2, 67, 127
1, 35254, Note_on_c, 3, 73, 105
1, 35264, Note_off_c, 3, 74, 64
1, 35281, Note_on_c, 2, 71, 114
1, 35289, Note_off_c, 3, 73, 64
1, 35306, Note_on_c, 3, 73, 105
1, 35314, Note_off_c, 2, 71, 64
1, 35323, Note_off_c, 2, 67, 64
1, 35324, Note_off_c, 2, 69, 64
1, 35330, Note_on_c, 2, 69, 122
1, 35330, Note_on_c, 3, 74, 105
1, 35331, Note_on_c, 2, 66, 127
1, 35337, Note_off_c, 3, 73, 64
1, 35506, Note_off_c, 2, 66, 64
1, 35507, Note_off_c, 3, 74, 64
1, 35507, Note_off_c, 2, 69, 64
1, 35510, Note_off_c, 4, 57, 64
1, 35510, Note_on_c, 3, 78, 106
1, 35511, Note_on_c, 4, 61, 127
1, 35511, Note_on_c, 2, 69, 122
1, 35537, Note_on_c, 3, 76, 109
1, 35546, Note_off_c, 3, 78, 64
1, 35562, Note_on_c, 3, 74, 108
1, 35571, Note_off_c, 3, 76, 64
1, 35587, Note_on_c, 3, 76, 109
1, 35596, Note_off_c, 3, 74, 64
1, 35604, Note_off_c, 2, 69, 64
1, 35604, Note_off_c, 4, 61, 64
1, 35611, Note_on_c, 3, 78, 106
1, 35611, Note_on_c, 2, 69, 122
1, 35612, Note_on_c, 3, 62, 127
1, 35620, Note_off_c, 3, 76, 64
1, 35795, Note_off_c, 3, 78, 64
1, 35800, Note_off_c, 3, 62, 64
1, 35801, Note_off_c, 2, 69, 64
1, 35802, Note_on_c, 0, 81, 112
1, 35802, Note_on_c, 3, 64, 127
1, 35803, Note_on_c, 4, 55, 127
1, 35853, Note_on_c, 3, 79, 112
1, 35860, Note_off_c, 0, 81, 64
1, 35903, Note_on_c, 3, 78, 110
1, 35903, Note_on_c, 3, 62, 127
1, 35904, Note_on_c, 4, 57, 127
1, 35909, Note_off_c, 4, 55, 64
1, 35910, Note_off_c, 3, 79, 64
1, 35910, Note_off_c, 3, 64, 64
1, 36166, Note_off_c, 3, 62, 64
1, 36166, Note_off_c, 3, 78, 64
1, 36167, Note_on_c, 4, 61, 127
1, 36167, Note_on_c, 3, 76, 113
1, 36348, Note_off_c, 3, 76, 64
1, 36348, Note_off_c, 4, 61, 64
1, 36349, Note_off_c, 4, 57, 64
1, 36349, Note_on_c, 4, 59, 127
1, 36350, Note_on_c, 4, 47, 127
1, 36443, Note_on_c, 3, 64, 127
1, 36444, Note_on_c, 4, 52, 127
1, 36457, Note_off_c, 4, 47, 64
1, 36458, Note_off_c, 4, 59, 64
1, 36535, Note_on_c, 4, 59, 127
1, 36536, Note_on_c, 4, 47, 127
1, 36552, Note_off_c, 3, 64, 64
1, 36552, Note_off_c, 4, 52, 64
1, 36622, Note_on_c, 3, 64, 127
1, 36622, Note_on_c, 4, 52, 127
1, 36636, Note_off_c, 4, 47, 64
1, 36636, Note_off_c, 4, 59, 64
1, 36712, Note_on_c, 4, 55, 127
1, 36712, Note_on_c, 2, 67, 127
1, 36719, Note_off_c, 4, 52, 64
1, 36720, Note_off_c, 3, 64, 64
1, 36799, Note_on_c, 3, 64, 127
1, 36799, Note_on_c, 4, 52, 127
1, 36805, Note_off_c, 2, 67, 64
1, 36805, Note_off_c, 4, 55, 64
1, 36885, Note_on_c, 4, 55, 127
1, 36885, Note_on_c, 2, 67, 127
1, 36891, Note_off_c, 4, 52, 64
1, 36892, Note_off_c, 3, 64, 64
1, 36969, Note_on_c, 2, 71, 118
1, 36969, Note_on_c, 4, 59, 127
1, 36978, Note_off_c, 2, 67, 64
1, 36978, Note_off_c, 4, 55, 64
1, 37146, Note_off_c, 4, 59, 64
1, 37146, Note_off_c, 2, 71, 64
1, 37149, Note_on_c, 4, 59, 127
1, 37149, Note_on_c, 2, 71, 118
1, 37232, Note_off_c, 4, 59, 64
1, 37233, Note_off_c, 2, 71, 64
1, 37239, Note_on_c, 2, 71, 118
1, 37239, Note_on_c, 4, 59, 127
1, 37418, Note_off_c, 4, 59, 64
1, 37419, Note_off_c, 2, 71, 64
1, 37419, Note_on_c, 3, 75, 106
1, 37420, Note_on_c, 2, 66, 127
1, 37420, Note_on_c, 2, 69, 122
1, 37505, Note_on_c, 2, 71, 118
1, 37505, Note_on_c, 3, 78, 104
1, 37506, Note_on_c, 2, 67, 127
1, 37514, Note_off_c, 2, 69, 64
1, 37514, Note_off_c, 2, 66, 64
1, 37515, Note_off_c, 3, 75, 64
1, 37551, Note_on_c, 3, 76, 107
1, 37559, Note_off_c, 3, 78, 64
1, 37597, Note_on_c, 3, 79, 109
1, 37603, Note_off_c, 3, 76, 64
1, 37641, Note_on_c, 3, 78, 107
1, 37649, Note_off_c, 3, 79, 64
1, 37686, Note_on_c, 0, 81, 109
1, 37693, Note_off_c, 3, 78, 64
1, 37730, Note_on_c, 3, 79, 109
1, 37737, Note_off_c, 0, 81, 64
1, 37774, Note_on_c, 0, 83, 109
1, 37783, Note_off_c, 3, 79, 64
1, 37956, Note_off_c, 0, 83, 64
1, 37957, Note_off_c, 2, 71, 64
1, 37957, Note_off_c, 2, 67, 64
1, 37958, Note_on_c, 3, 73, 112
1, 37958, Note_on_c, 3, 64, 127
1, 37959, Note_on_c, 4, 57, 127
1, 38050, Note_on_c, 3, 76, 110
1, 38050, Note_on_c, 2, 67, 127
1, 38051, Note_on_c, 3, 62, 127
1, 38056, Note_off_c, 4, 57, 64
1, 38057, Note_off_c, 3, 64, 64
1, 38057, Note_off_c, 3, 73, 64
1, 38307, Note_off_c, 2, 67, 64
1, 38307, Note_off_c, 3, 76, 64
1, 38308, Note_on_c, 3, 74, 112
1, 38308, Note_on_c, 2, 66, 127
1, 38484, Note_off_c, 3, 62, 64
1, 38484, Note_on_c, 4, 45, 127
1, 38573, Note_off_c, 2, 66, 64
1, 38573, Note_off_c, 3, 74, 64
1, 38574, Note_on_c, 4, 50, 127
1, 38599, Note_off_c, 4, 45, 64
1, 38664, Note_on_c, 3, 74, 109
1, 38664, Note_on_c, 4, 45, 127
1, 38690, Note_off_c, 4, 50, 64
1, 38755, Note_on_c, 3, 78, 104
1, 38756, Note_on_c, 4, 50, 127
1, 38762, Note_off_c, 3, 74, 64
1, 38779, Note_off_c, 4, 45, 64
1, 38844, Note_on_c, 0, 81, 106
1, 38845, Note_on_c, 4, 54, 127
1, 38851, Note_off_c, 4, 50, 64
1, 38852, Note_off_c, 3, 78, 64
1, 38931, Note_on_c, 3, 78, 104
1, 38931, Note_on_c, 4, 50, 127
1, 38938, Note_off_c, 0, 81, 64
1, 38938, Note_off_c, 4, 54, 64
1, 39019, Note_on_c, 0, 86, 106
1, 39020, Note_on_c, 4, 54, 127
1, 39026, Note_off_c, 4, 50, 64
1, 39040, Note_off_c, 3, 78, 64
1, 39106, Note_off_c, 4, 54, 64
1, 39106, Note_on_c, 4, 57, 127
1, 39143, Note_off_c, 0, 86, 64
1, 39151, Note_on_c, 0, 85, 102
1, 39195, Note_on_c, 0, 88, 102
1, 39203, Note_off_c, 0, 85, 64
1, 39241, Note_on_c, 0, 86, 102
1, 39249, Note_off_c, 0, 88, 64
1, 39281, Note_off_c, 4, 57, 64
1, 39285, Note_on_c, 0, 85, 102
1, 39286, Note_on_c, 4, 57, 127
1, 39294, Note_off_c, 0, 86, 64
1, 39330, Note_on_c, 0, 83, 102
1, 39338, Note_off_c, 0, 85, 64
1, 39371, Note_off_c, 4, 57, 64
1, 39376, Note_on_c, 0, 81, 102
1, 39377, Note_on_c, 4, 57, 127
1, 39385, Note_off_c, 0, 83, 64
1, 39421, Note_on_c, 0, 83, 102
1, 39427, Note_off_c, 0, 81, 64
1, 39468, Note_on_c, 0, 81, 102
1, 39475, Note_off_c, 0, 83, 64
1, 39514, Note_on_c, 3, 79, 102
1, 39521, Note_off_c, 0, 81, 64
1, 39558, Note_off_c, 4, 57, 64
1, 39558, Note_on_c, 3, 78, 99
1, 39559, Note_on_c, 4, 61, 127
1, 39566, Note_off_c, 3, 79, 64
1, 39601, Note_on_c, 3, 76, 103
1, 39609, Note_off_c, 3, 78, 64
1, 39645, Note_on_c, 3, 78, 99
1, 39646, Note_on_c, 3, 62, 127
1, 39652, Note_off_c, 3, 76, 64
1, 39652, Note_off_c, 4, 61, 64
1, 39687, Note_on_c, 0, 81, 102
1, 39695, Note_off_c, 3, 78, 64
1, 39730, Note_on_c, 3, 78, 99
1, 39737, Note_off_c, 0, 81, 64
1, 39772, Note_on_c, 3, 74, 105
1, 39780, Note_off_c, 3, 78, 64
1, 39815, Note_off_c, 3, 62, 64
1, 39815, Note_on_c, 3, 73, 105
1, 39816, Note_on_c, 3, 64, 127
1, 39823, Note_off_c, 3, 74, 64
1, 39858, Note_on_c, 2, 69, 118
1, 39864, Note_off_c, 3, 73, 64
1, 39902, Note_on_c, 3, 74, 105
1, 39903, Note_on_c, 2, 66, 127
1, 39910, Note_off_c, 2, 69, 64
1, 39910, Note_off_c, 3, 64, 64
1, 39947, Note_on_c, 3, 73, 105
1, 39953, Note_off_c, 3, 74, 64
1, 39989, Note_on_c, 3, 74, 105
1, 39998, Note_off_c, 3, 73, 64
1, 40034, Note_on_c, 3, 78, 99
1, 40042, Note_off_c, 3, 74, 64
1, 40073, Note_off_c, 2, 66, 64
1, 40078, Note_on_c, 3, 76, 103
1, 40078, Note_on_c, 2, 67, 127
1, 40086, Note_off_c, 3, 78, 64
1, 40121, Note_on_c, 3, 79, 102
1, 40128, Note_off_c, 3, 76, 64
1, 40159, Note_off_c, 2, 67, 64
1, 40167, Note_on_c, 4, 57, 127
1, 40167, Note_on_c, 3, 74, 105
1, 40168, Note_on_c, 2, 66, 127
1, 40174, Note_off_c, 3, 79, 64
1, 40420, Note_off_c, 3, 74, 64
1, 40421, Note_off_c, 2, 66, 64
1, 40426, Note_on_c, 3, 73, 109
1, 40427, Note_on_c, 3, 64, 127
1, 40594, Note_on_c, 4, 47, 127
1, 40595, Note_off_c, 4, 57, 64
1, 40675, Note_off_c, 3, 64, 64
1, 40676, Note_off_c, 3, 73, 64
1, 40684, Note_on_c, 4, 52, 127
1, 40700, Note_off_c, 4, 47, 64
1, 40776, Note_on_c, 3, 76, 103
1, 40777, Note_on_c, 4, 47, 127
1, 40791, Note_off_c, 4, 52, 64
1, 40866, Note_on_c, 3, 79, 102
1, 40866, Note_on_c, 4, 52, 127
1, 40880, Note_off_c, 4, 47, 64
1, 40881, Note_off_c, 3, 76, 64
1, 40954, Note_on_c, 0, 83, 102
1, 40955, Note_on_c, 4, 55, 127
1, 40961, Note_off_c, 4, 52, 64
1, 40961, Note_off_c, 3, 79, 64
1, 41040, Note_on_c, 3, 79, 102
1, 41041, Note_on_c, 4, 52, 127
1, 41049, Note_off_c, 4, 55, 64
1, 41050, Note_off_c, 0, 83, 64
1, 41131, Note_on_c, 0, 88, 102
1, 41131, Note_on_c, 4, 55, 127
1, 41137, Note_off_c, 4, 52, 64
1, 41153, Note_off_c, 3, 79, 64
1, 41216, Note_on_c, 4, 59, 127
1, 41224, Note_off_c, 4, 55, 64
1, 41253, Note_off_c, 0, 88, 64
1, 41258, Note_on_c, 0, 87, 102
1, 41303, Note_on_c, 0, 84, 102
1, 41310, Note_off_c, 0, 87, 64
1, 41345, Note_on_c, 0, 83, 102
1, 41352, Note_off_c, 0, 84, 64
1, 41385, Note_off_c, 4, 59, 64
1, 41389, Note_on_c, 0, 81, 102
1, 41389, Note_on_c, 4, 59, 127
1, 41398, Note_off_c, 0, 83, 64
1, 41432, Note_on_c, 3, 79, 102
1, 41440, Note_off_c, 0, 81, 64
1, 41470, Note_off_c, 4, 59, 64
1, 41475, Note_on_c, 3, 78, 99
1, 41476, Note_on_c, 4, 59, 127
1, 41482, Note_off_c, 3, 79, 64
1, 41520, Note_on_c, 3, 76, 103
1, 41528, Note_off_c, 3, 78, 64
1, 41565, Note_on_c, 3, 75, 102
1, 41572, Note_off_c, 3, 76, 64
1, 41611, Note_on_c, 3, 72, 113
1, 41616, Note_off_c, 3, 75, 64
1, 41654, Note_off_c, 4, 59, 64
1, 41654, Note_on_c, 2, 71, 114
1, 41655, Note_on_c, 3, 63, 127
1, 41661, Note_off_c, 3, 72, 64
1, 41697, Note_on_c, 2, 69, 118
1, 41705, Note_off_c, 2, 71, 64
1, 41743, Note_on_c, 2, 67, 125
1, 41744, Note_on_c, 3, 64, 127
1, 41750, Note_off_c, 2, 69, 64
1, 41750, Note_off_c, 3, 63, 64
1, 41787, Note_on_c, 2, 71, 114
1, 41795, Note_off_c, 2, 67, 64
1, 41836, Note_on_c, 3, 76, 103
1, 41850, Note_off_c, 2, 71, 64
1, 41880, Note_on_c, 2, 71, 114
1, 41919, Note_off_c, 3, 76, 64
1, 41925, Note_on_c, 3, 79, 102
1, 41975, Note_on_c, 3, 76, 103
1, 41990, Note_off_c, 2, 71, 64
1, 42015, Note_off_c, 3, 79, 64
1, 42023, Note_on_c, 0, 83, 106
1, 42109, Note_off_c, 3, 76, 64
1, 42117, Note_on_c, 2, 71, 118
1, 42204, Note_off_c, 0, 83, 64
1, 42213, Note_off_c, 3, 64, 64
1, 42213, Note_on_c, 3, 73, 109
1, 42214, Note_on_c, 4, 57, 127
1, 42214, Note_on_c, 2, 67, 127
1, 42220, Note_off_c, 2, 71, 64
1, 42305, Note_on_c, 3, 74, 109
1, 42305, Note_on_c, 3, 62, 127
1, 42312, Note_off_c, 3, 73, 64
1, 42312, Note_off_c, 2, 67, 64
1, 42312, Note_off_c, 4, 57, 64
1, 42396, Note_on_c, 2, 66, 127
1, 42455, Note_off_c, 3, 62, 64
1, 42486, Note_on_c, 2, 69, 122
1, 42545, Note_off_c, 2, 66, 64
1, 42574, Note_on_c, 3, 62, 127
1, 42636, Note_off_c, 2, 69, 64
1, 42664, Note_off_c, 3, 74, 64
1, 42665, Note_on_c, 2, 66, 127
1, 42665, Note_on_c, 0, 86, 99
1, 42711, Note_on_c, 0, 85, 99
1, 42719, Note_off_c, 0, 86, 64
1, 42727, Note_off_c, 3, 62, 64
1, 42757, Note_on_c, 0, 83, 99
1, 42758, Note_on_c, 2, 69, 122
1, 42764, Note_off_c, 0, 85, 64
1, 42803, Note_on_c, 0, 81, 99
1, 42810, Note_off_c, 0, 83, 64
1, 42818, Note_off_c, 2, 66, 64
1, 42849, Note_on_c, 4, 61, 127
1, 42849, Note_on_c, 0, 80, 99
1, 42855, Note_off_c, 0, 81, 64
1, 42894, Note_on_c, 0, 81, 99
1, 42901, Note_off_c, 0, 80, 64
1, 42909, Note_off_c, 2, 69, 64
1, 42940, Note_on_c, 3, 64, 127
1, 42940, Note_on_c, 0, 80, 99
1, 42948, Note_off_c, 0, 81, 64
1, 42987, Note_on_c, 0, 81, 99
1, 42995, Note_off_c, 0, 80, 64
1, 43000, Note_off_c, 4, 61, 64
1, 43031, Note_on_c, 0, 83, 99
1, 43032, Note_on_c, 2, 69, 122
1, 43038, Note_off_c, 0, 81, 64
1, 43078, Note_on_c, 0, 81, 99
1, 43084, Note_off_c, 0, 83, 64
1, 43092, Note_off_c, 3, 64, 64
1, 43122, Note_on_c, 3, 64, 127
1, 43184, Note_off_c, 2, 69, 64
1, 43207, Note_off_c, 0, 81, 64
1, 43215, Note_on_c, 0, 81, 99
1, 43216, Note_on_c, 2, 67, 127
1, 43260, Note_on_c, 3, 79, 99
1, 43268, Note_off_c, 0, 81, 64
1, 43276, Note_off_c, 3, 64, 64
1, 43305, Note_on_c, 2, 69, 122
1, 43305, Note_on_c, 3, 78, 98
1, 43313, Note_off_c, 3, 79, 64
1, 43350, Note_on_c, 3, 76, 101
1, 43357, Note_off_c, 3, 78, 64
1, 43363, Note_off_c, 2, 67, 64
1, 43392, Note_on_c, 3, 73, 103
1, 43392, Note_on_c, 3, 62, 127
1, 43401, Note_off_c, 3, 76, 64
1, 43439, Note_on_c, 3, 74, 103
1, 43447, Note_off_c, 3, 73, 64
1, 43452, Note_off_c, 2, 69, 64
1, 43483, Note_on_c, 3, 73, 103
1, 43484, Note_on_c, 2, 66, 127
1, 43492, Note_off_c, 3, 74, 64
1, 43528, Note_on_c, 3, 74, 103
1, 43536, Note_off_c, 3, 73, 64
1, 43544, Note_off_c, 3, 62, 64
1, 43574, Note_on_c, 3, 76, 101
1, 43575, Note_on_c, 2, 69, 122
1, 43581, Note_off_c, 3, 74, 64
1, 43620, Note_on_c, 3, 74, 103
1, 43627, Note_off_c, 3, 76, 64
1, 43635, Note_off_c, 2, 66, 64
1, 43666, Note_on_c, 3, 62, 127
1, 43725, Note_off_c, 2, 69, 64
1, 43754, Note_off_c, 3, 74, 64
1, 43756, Note_on_c, 0, 86, 99
1, 43756, Note_on_c, 2, 66, 127
1, 43801, Note_on_c, 0, 85, 99
1, 43809, Note_off_c, 0, 86, 64
1, 43816, Note_off_c, 3, 62, 64
1, 43845, Note_on_c, 0, 83, 99
1, 43846, Note_on_c, 2, 69, 122
1, 43854, Note_off_c, 0, 85, 64
1, 43890, Note_on_c, 0, 81, 99
1, 43898, Note_off_c, 0, 83, 64
1, 43906, Note_off_c, 2, 66, 64
1, 43934, Note_on_c, 0, 80, 99
1, 43935, Note_on_c, 4, 61, 127
1, 43943, Note_off_c, 0, 81, 64
1, 43980, Note_on_c, 0, 81, 99
1, 43987, Note_off_c, 0, 80, 64
1, 43995, Note_off_c, 2, 69, 64
1, 44026, Note_on_c, 3, 64, 127
1, 44026, Note_on_c, 0, 80, 99
1, 44032, Note_off_c, 0, 81, 64
1, 44071, Note_on_c, 0, 81, 99
1, 44078, Note_off_c, 0, 80, 64
1, 44086, Note_off_c, 4, 61, 64
1, 44115, Note_on_c, 2, 69, 122
1, 44115, Note_on_c, 0, 83, 99
1, 44124, Note_off_c, 0, 81, 64
1, 44162, Note_on_c, 0, 81, 99
1, 44170, Note_off_c, 0, 83, 64
1, 44177, Note_off_c, 3, 64, 64
1, 44208, Note_on_c, 3, 64, 127
1, 44268, Note_off_c, 2, 69, 64
1, 44294, Note_off_c, 0, 81, 64
1, 44296, Note_on_c, 0, 81, 99
1, 44297, Note_on_c, 2, 67, 127
1, 44343, Note_on_c, 3, 79, 99
1, 44351, Note_off_c, 0, 81, 64
1, 44357, Note_off_c, 3, 64, 64
1, 44388, Note_on_c, 3, 78, 98
1, 44388, Note_on_c, 2, 69, 124
1, 44396, Note_off_c, 3, 79, 64
1, 44397, Note_off_c, 2, 67, 64
1, 44434, Note_on_c, 3, 76, 101
1, 44441, Note_off_c, 3, 78, 64
1, 44472, Note_off_c, 2, 69, 64
1, 44478, Note_on_c, 2, 69, 124
1, 44478, Note_on_c, 3, 73, 103
1, 44479, Note_on_c, 2, 66, 127
1, 44484, Note_off_c, 3, 76, 64
1, 44523, Note_on_c, 3, 74, 103
1, 44531, Note_off_c, 3, 73, 64
1, 44569, Note_on_c, 3, 73, 103
1, 44577, Note_off_c, 3, 74, 64
1, 44616, Note_on_c, 3, 74, 103
1, 44623, Note_off_c, 3, 73, 64
1, 44660, Note_on_c, 3, 79, 99
1, 44667, Note_off_c, 3, 74, 64
1, 44706, Note_on_c, 3, 78, 98
1, 44713, Note_off_c, 3, 79, 64
1, 44744, Note_off_c, 2, 66, 64
1, 44745, Note_off_c, 2, 69, 64
1, 44751, Note_on_c, 4, 61, 127
1, 44751, Note_on_c, 2, 69, 124
1, 44751, Note_on_c, 3, 75, 99
1, 44759, Note_off_c, 3, 78, 64
1, 44796, Note_on_c, 3, 76, 101
1, 44803, Note_off_c, 3, 75, 64
1, 44840, Note_on_c, 3, 75, 99
1, 44848, Note_off_c, 3, 76, 64
1, 44886, Note_on_c, 3, 76, 101
1, 44894, Note_off_c, 3, 75, 64
1, 44930, Note_on_c, 0, 81, 96
1, 44938, Note_off_c, 3, 76, 64
1, 44974, Note_on_c, 3, 79, 96
1, 44980, Note_off_c, 0, 81, 64
1, 45011, Note_off_c, 2, 69, 64
1, 45011, Note_off_c, 4, 61, 64
1, 45020, Note_on_c, 3, 62, 127
1, 45020, Note_on_c, 2, 69, 124
1, 45020, Note_on_c, 3, 77, 97
1, 45026, Note_off_c, 3, 79, 64
1, 45064, Note_on_c, 3, 78, 95
1, 45070, Note_off_c, 3, 77, 64
1, 45106, Note_on_c, 3, 77, 97
1, 45114, Note_off_c, 3, 78, 64
1, 45150, Note_on_c, 3, 78, 95
1, 45158, Note_off_c, 3, 77, 64
1, 45194, Note_on_c, 0, 83, 96
1, 45202, Note_off_c, 3, 78, 64
1, 45240, Note_on_c, 0, 81, 96
1, 45248, Note_off_c, 0, 83, 64
1, 45277, Note_off_c, 2, 69, 64
1, 45277, Note_off_c, 3, 62, 64
1, 45279, Note_off_c, 0, 81, 64
1, 45284, Note_on_c, 2, 69, 124
1, 45284, Note_on_c, 0, 81, 96
1, 45285, Note_on_c, 3, 64, 127
1, 45329, Note_on_c, 3, 79, 96
1, 45336, Note_off_c, 0, 81, 64
1, 45375, Note_on_c, 2, 66, 127
1, 45375, Note_on_c, 3, 78, 95
1, 45382, Note_off_c, 3, 64, 64
1, 45382, Note_off_c, 3, 79, 64
1, 45419, Note_on_c, 3, 76, 97
1, 45427, Note_off_c, 3, 78, 64
1, 45465, Note_on_c, 3, 74, 98
1, 45466, Note_on_c, 2, 67, 127
1, 45472, Note_off_c, 3, 76, 64
1, 45472, Note_off_c, 2, 66, 64
1, 45509, Note_on_c, 3, 73, 98
1, 45515, Note_off_c, 3, 74, 64
1, 45546, Note_off_c, 2, 69, 64
1, 45550, Note_off_c, 3, 73, 64
1, 45553, Note_on_c, 3, 73, 98
1, 45554, Note_on_c, 2, 69, 124
1, 45554, Note_on_c, 2, 66, 127
1, 45561, Note_off_c, 2, 67, 64
1, 45598, Note_on_c, 3, 74, 98
1, 45605, Note_off_c, 3, 73, 64
1, 45644, Note_on_c, 3, 73, 98
1, 45649, Note_off_c, 3, 74, 64
1, 45690, Note_on_c, 3, 74, 98
1, 45697, Note_off_c, 3, 73, 64
1, 45736, Note_on_c, 3, 79, 96
1, 45744, Note_off_c, 3, 74, 64
1, 45782, Note_on_c, 3, 78, 95
1, 45790, Note_off_c, 3, 79, 64
1, 45820, Note_off_c, 2, 66, 64
1, 45821, Note_off_c, 2, 69, 64
1, 45829, Note_on_c, 2, 69, 124
1, 45829, Note_on_c, 3, 75, 96
1, 45830, Note_on_c, 4, 61, 127
1, 45836, Note_off_c, 3, 78, 64
1, 45874, Note_on_c, 3, 76, 97
1, 45880, Note_off_c, 3, 75, 64
1, 45914, Note_on_c, 3, 75, 96
1, 45922, Note_off_c, 3, 76, 64
1, 45960, Note_on_c, 3, 76, 97
1, 45967, Note_off_c, 3, 75, 64
1, 46002, Note_on_c, 0, 81, 96
1, 46009, Note_off_c, 3, 76, 64
1, 46046, Note_on_c, 3, 79, 96
1, 46054, Note_off_c, 0, 81, 64
1, 46082, Note_off_c, 4, 61, 64
1, 46083, Note_off_c, 2, 69, 64
1, 46089, Note_on_c, 3, 77, 97
1, 46090, Note_on_c, 3, 62, 127
1, 46090, Note_on_c, 2, 69, 124
1, 46097, Note_off_c, 3, 79, 64
1, 46135, Note_on_c, 3, 78, 95
1, 46143, Note_off_c, 3, 77, 64
1, 46179, Note_on_c, 3, 77, 97
1, 46188, Note_off_c, 3, 78, 64
1, 46223, Note_on_c, 3, 78, 95
1, 46230, Note_off_c, 3, 77, 64
1, 46267, Note_on_c, 0, 83, 96
1, 46272, Note_off_c, 3, 78, 64
1, 46311, Note_on_c, 0, 81, 96
1, 46317, Note_off_c, 0, 83, 64
1, 46346, Note_off_c, 2, 69, 64
1, 46346, Note_off_c, 3, 62, 64
1, 46348, Note_off_c, 0, 81, 64
1, 46352, Note_on_c, 0, 81, 96
1, 46353, Note_on_c, 2, 69, 124
1, 46353, Note_on_c, 3, 64, 127
1, 46393, Note_on_c, 3, 79, 96
1, 46401, Note_off_c, 0, 81, 64
1, 46440, Note_on_c, 2, 66, 127
1, 46440, Note_on_c, 3, 78, 95
1, 46446, Note_off_c, 3, 79, 64
1, 46447, Note_off_c, 3, 64, 64
1, 46484, Note_on_c, 3, 76, 97
1, 46491, Note_off_c, 3, 78, 64
1, 46528, Note_on_c, 3, 74, 105
1, 46528, Note_on_c, 2, 67, 127
1, 46536, Note_off_c, 3, 76, 64
1, 46537, Note_off_c, 2, 66, 64
1, 46574, Note_on_c, 3, 73, 109
1, 46582, Note_off_c, 3, 74, 64
1, 46612, Note_off_c, 2, 69, 64
1, 46620, Note_on_c, 2, 69, 124
1, 46620, Note_on_c, 2, 66, 127
1, 46627, Note_off_c, 2, 67, 64
1, 46659, Note_off_c, 3, 73, 64
1, 46667, Note_on_c, 3, 74, 109
1, 46717, Note_on_c, 3, 78, 104
1, 46755, Note_off_c, 3, 74, 64
1, 46764, Note_on_c, 0, 81, 106
1, 46771, Note_off_c, 3, 78, 64
1, 46812, Note_off_c, 2, 66, 64
1, 46812, Note_off_c, 2, 69, 64
1, 46812, Note_on_c, 0, 86, 106
1, 46812, Note_on_c, 2, 67, 127
1, 46813, Note_on_c, 3, 64, 127
1, 46817, Note_off_c, 0, 81, 64
1, 46855, Note_on_c, 0, 85, 106
1, 46865, Note_off_c, 0, 86, 64
1, 46902, Note_on_c, 3, 62, 127
1, 46902, Note_on_c, 2, 66, 127
1, 46908, Note_off_c, 3, 64, 64
1, 46908, Note_off_c, 2, 67, 64
1, 46945, Note_on_c, 2, 71, 120
1, 46994, Note_on_c, 3, 74, 109
1, 47009, Note_off_c, 0, 85, 64
1, 47032, Note_off_c, 2, 71, 64
1, 47038, Note_on_c, 3, 78, 104
1, 47045, Note_off_c, 3, 74, 64
1, 47084, Note_off_c, 3, 62, 64
1, 47085, Note_off_c, 2, 66, 64
1, 47085, Note_on_c, 0, 83, 106
1, 47086, Note_on_c, 3, 64, 127
1, 47086, Note_on_c, 4, 61, 127
1, 47091, Note_off_c, 3, 78, 64
1, 47129, Note_on_c, 0, 81, 106
1, 47135, Note_off_c, 0, 83, 64
1, 47172, Note_on_c, 4, 59, 127
1, 47172, Note_on_c, 3, 62, 127
1, 47180, Note_off_c, 4, 61, 64
1, 47180, Note_off_c, 3, 64, 64
1, 47218, Note_on_c, 2, 67, 127
1, 47264, Note_on_c, 2, 71, 120
1, 47279, Note_off_c, 0, 81, 64
1, 47292, Note_off_c, 2, 67, 64
1, 47308, Note_on_c, 3, 74, 109
1, 47316, Note_off_c, 2, 71, 64
1, 47352, Note_off_c, 3, 62, 64
1, 47352, Note_off_c, 4, 59, 64
1, 47353, Note_on_c, 3, 79, 106
1, 47353, Note_on_c, 4, 61, 127
1, 47354, Note_on_c, 4, 57, 127
1, 47360, Note_off_c, 3, 74, 64
1, 47396, Note_on_c, 3, 78, 104
1, 47404, Note_off_c, 3, 79, 64
1, 47442, Note_on_c, 4, 59, 127
1, 47443, Note_on_c, 4, 55, 127
1, 47449, Note_off_c, 4, 57, 64
1, 47449, Note_off_c, 4, 61, 64
1, 47486, Note_on_c, 3, 64, 127
1, 47531, Note_on_c, 2, 67, 127
1, 47544, Note_off_c, 3, 78, 64
1, 47557, Note_off_c, 3, 64, 64
1, 47573, Note_on_c, 2, 71, 120
1, 47580, Note_off_c, 2, 67, 64
1, 47613, Note_off_c, 4, 59, 64
1, 47613, Note_off_c, 4, 55, 64
1, 47618, Note_on_c, 3, 76, 110
1, 47618, Note_on_c, 4, 59, 127
1, 47619, Note_on_c, 4, 56, 127
1, 47624, Note_off_c, 2, 71, 64
1, 47664, Note_on_c, 3, 74, 112
1, 47671, Note_off_c, 3, 76, 64
1, 47705, Note_off_c, 4, 56, 64
1, 47705, Note_off_c, 4, 59, 64
1, 47706, Note_on_c, 3, 73, 112
1, 47707, Note_on_c, 4, 57, 127
1, 47715, Note_off_c, 3, 74, 64
1, 47751, Note_on_c, 3, 64, 127
1, 47796, Note_on_c, 0, 81, 113
1, 47796, Note_on_c, 4, 61, 127
1, 47810, Note_off_c, 3, 64, 64
1, 47839, Note_on_c, 3, 64, 127
1, 47854, Note_off_c, 4, 61, 64
1, 47855, Note_off_c, 3, 73, 64
1, 47878, Note_off_c, 0, 81, 64
1, 47886, Note_off_c, 4, 57, 64
1, 47886, Note_on_c, 3, 78, 111
1, 47887, Note_on_c, 3, 74, 116
1, 47887, Note_on_c, 3, 62, 127
1, 47899, Note_off_c, 3, 64, 64
1, 47930, Note_on_c, 2, 66, 127
1, 47945, Note_off_c, 3, 62, 64
1, 47968, Note_off_c, 3, 74, 64
1, 47969, Note_off_c, 3, 78, 64
1, 47975, Note_on_c, 3, 76, 114
1, 47976, Note_on_c, 4, 57, 127
1, 47976, Note_on_c, 3, 73, 116
1, 47990, Note_off_c, 2, 66, 64
1, 48019, Note_on_c, 3, 64, 127
1, 48065, Note_on_c, 0, 81, 113
1, 48066, Note_on_c, 4, 61, 127
1, 48072, Note_off_c, 3, 76, 64
1, 48072, Note_off_c, 3, 73, 64
1, 48081, Note_off_c, 3, 64, 64
1, 48109, Note_on_c, 3, 64, 127
1, 48125, Note_off_c, 4, 61, 64
1, 48150, Note_off_c, 0, 81, 64
1, 48156, Note_off_c, 4, 57, 64
1, 48156, Note_on_c, 3, 78, 111
1, 48156, Note_on_c, 3, 74, 116
1, 48157, Note_on_c, 3, 62, 127
1, 48171, Note_off_c, 3, 64, 64
1, 48200, Note_on_c, 2, 66, 127
1, 48215, Note_off_c, 3, 62, 64
1, 48238, Note_off_c, 3, 74, 64
1, 48239, Note_off_c, 3, 78, 64
1, 48245, Note_on_c, 3, 76, 114
1, 48245, Note_on_c, 3, 73, 116
1, 48246, Note_on_c, 3, 64, 127
1, 48246, Note_on_c, 4, 57, 127
1, 48252, Note_off_c, 2, 66, 64
1, 48337, Note_on_c, 0, 81, 113
1, 48345, Note_off_c, 3, 73, 64
1, 48345, Note_off_c, 3, 76, 64
1, 48430, Note_off_c, 4, 57, 64
1, 48434, Note_off_c, 3, 64, 64
1, 48434, Note_on_c, 2, 69, 122
1, 48435, Note_on_c, 4, 57, 127
1, 48435, Note_on_c, 4, 45, 127
1, 48444, Note_off_c, 0, 81, 64
1, 48522, Note_off_c, 4, 45, 64
1, 48523, Note_off_c, 2, 69, 64
1, 48523, Note_off_c, 4, 57, 64
1, 48529, Note_on_c, 4, 57, 127
1, 48529, Note_on_c, 2, 69, 122
1, 48530, Note_on_c, 4, 45, 127
1, 48724, Note_off_c, 2, 69, 64
1, 48724, Note_on_c, 3, 76, 107
1, 48821, Note_on_c, 0, 81, 106
1, 48821, Note_on_c, 3, 64, 127
1, 48835, Note_off_c, 4, 45, 64
1, 48836, Note_off_c, 4, 57, 64
1, 48844, Note_off_c, 3, 76, 64
1, 48913, Note_on_c, 3, 76, 107
1, 48913, Note_on_c, 2, 69, 122
1, 48920, Note_off_c, 0, 81, 64
1, 48935, Note_off_c, 3, 64, 64
1, 49004, Note_on_c, 0, 81, 106
1, 49005, Note_on_c, 3, 64, 127
1, 49026, Note_off_c, 2, 69, 64
1, 49027, Note_off_c, 3, 76, 64
1, 49091, Note_on_c, 0, 85, 106
1, 49091, Note_on_c, 2, 69, 122
1, 49099, Note_off_c, 0, 81, 64
1, 49113, Note_off_c, 3, 64, 64
1, 49180, Note_on_c, 0, 81, 106
1, 49181, Note_on_c, 3, 73, 109
1, 49187, Note_off_c, 2, 69, 64
1, 49187, Note_off_c, 0, 85, 64
1, 49268, Note_on_c, 0, 85, 106
1, 49269, Note_on_c, 2, 69, 122
1, 49277, Note_off_c, 0, 81, 64
1, 49277, Note_off_c, 3, 73, 64
1, 49355, Note_on_c, 3, 73, 109
1, 49355, Note_on_c, 0, 88, 106
1, 49363, Note_off_c, 2, 69, 64
1, 49364, Note_off_c, 0, 85, 64
1, 49401, Note_on_c, 0, 86, 106
1, 49407, Note_off_c, 0, 88, 64
1, 49443, Note_on_c, 0, 85, 106
1, 49443, Note_on_c, 3, 76, 107
1, 49452, Note_off_c, 0, 86, 64
1, 49452, Note_off_c, 3, 73, 64
1, 49488, Note_on_c, 0, 83, 106
1, 49488, Note_on_c, 3, 74, 109
1, 49496, Note_off_c, 3, 76, 64
1, 49496, Note_off_c, 0, 85, 64
1, 49532, Note_on_c, 0, 81, 106
1, 49532, Note_on_c, 3, 73, 109
1, 49540, Note_off_c, 3, 74, 64
1, 49540, Note_off_c, 0, 83, 64
1, 49578, Note_on_c, 0, 80, 106
1, 49578, Note_on_c, 2, 71, 118
1, 49584, Note_off_c, 3, 73, 64
1, 49585, Note_off_c, 0, 81, 64
1, 49622, Note_on_c, 2, 70, 120
1, 49622, Note_on_c, 3, 78, 104
1, 49629, Note_off_c, 2, 71, 64
1, 49629, Note_off_c, 0, 80, 64
1, 49668, Note_on_c, 3, 76, 107
1, 49668, Note_on_c, 2, 68, 124
1, 49675, Note_off_c, 3, 78, 64
1, 49675, Note_off_c, 2, 70, 64
1, 49714, Note_on_c, 3, 74, 109
1, 49715, Note_on_c, 2, 66, 127
1, 49721, Note_off_c, 2, 68, 64
1, 49721, Note_off_c, 3, 76, 64
1, 49758, Note_on_c, 3, 73, 109
1, 49759, Note_on_c, 3, 64, 127
1, 49765, Note_off_c, 2, 66, 64
1, 49765, Note_off_c, 3, 74, 64
1, 49804, Note_on_c, 2, 71, 118
1, 49805, Note_on_c, 3, 62, 127
1, 49813, Note_off_c, 3, 64, 64
1, 49813, Note_off_c, 3, 73, 64
1, 49850, Note_on_c, 2, 70, 120
1, 49851, Note_on_c, 4, 61, 127
1, 49859, Note_off_c, 3, 62, 64
1, 49860, Note_off_c, 2, 71, 64
1, 49896, Note_off_c, 4, 61, 64
1, 49897, Note_off_c, 2, 70, 64
1, 49897, Note_on_c, 2, 71, 118
1, 49898, Note_on_c, 4, 59, 127
1, 49944, Note_on_c, 4, 58, 127
1, 49952, Note_off_c, 4, 59, 64
1, 49991, Note_on_c, 2, 66, 127
1, 49991, Note_on_c, 4, 59, 127
1, 49997, Note_off_c, 4, 58, 64
1, 49998, Note_off_c, 2, 71, 64
1, 50079, Note_on_c, 4, 54, 127
1, 50079, Note_on_c, 2, 71, 118
1, 50086, Note_off_c, 4, 59, 64
1, 50086, Note_off_c, 2, 66, 64
1, 50169, Note_on_c, 3, 74, 109
1, 50170, Note_on_c, 4, 59, 127
1, 50178, Note_off_c, 2, 71, 64
1, 50178, Note_off_c, 4, 54, 64
1, 50261, Note_on_c, 2, 71, 118
1, 50262, Note_on_c, 3, 62, 127
1, 50268, Note_off_c, 4, 59, 64
1, 50268, Note_off_c, 3, 74, 64
1, 50346, Note_on_c, 4, 59, 127
1, 50346, Note_on_c, 3, 74, 109
1, 50354, Note_off_c, 3, 62, 64
1, 50355, Note_off_c, 2, 71, 64
1, 50436, Note_on_c, 3, 78, 104
1, 50436, Note_on_c, 3, 62, 127
1, 50445, Note_off_c, 3, 74, 64
1, 50445, Note_off_c, 4, 59, 64
1, 50482, Note_on_c, 3, 76, 107
1, 50488, Note_off_c, 3, 78, 64
1, 50522, Note_on_c, 3, 74, 109
1, 50523, Note_on_c, 2, 66, 127
1, 50529, Note_off_c, 3, 76, 64
1, 50530, Note_off_c, 3, 62, 64
1, 50565, Note_on_c, 3, 73, 109
1, 50565, Note_on_c, 3, 64, 127
1, 50571, Note_off_c, 2, 66, 64
1, 50572, Note_off_c, 3, 74, 64
1, 50609, Note_on_c, 3, 62, 127
1, 50609, Note_on_c, 2, 71, 118
1, 50616, Note_off_c, 3, 64, 64
1, 50616, Note_off_c, 3, 73, 64
1, 50651, Note_on_c, 2, 70, 120
1, 50652, Note_on_c, 4, 61, 127
1, 50658, Note_off_c, 2, 71, 64
1, 50658, Note_off_c, 3, 62, 64
1, 50695, Note_on_c, 3, 74, 109
1, 50696, Note_on_c, 4, 59, 127
1, 50702, Note_off_c, 4, 61, 64
1, 50702, Note_off_c, 2, 70, 64
1, 50739, Note_on_c, 3, 73, 109
1, 50740, Note_on_c, 4, 58, 127
1, 50746, Note_off_c, 4, 59, 64
1, 50747, Note_off_c, 3, 74, 64
1, 50782, Note_on_c, 2, 71, 118
1, 50782, Note_on_c, 3, 62, 127
1, 50788, Note_off_c, 4, 58, 64
1, 50789, Note_off_c, 3, 73, 64
1, 50824, Note_on_c, 2, 69, 122
1, 50824, Note_on_c, 4, 61, 127
1, 50832, Note_off_c, 3, 62, 64
1, 50833, Note_off_c, 2, 71, 64
1, 50868, Note_on_c, 4, 59, 127
1, 50868, Note_on_c, 2, 68, 124
1, 50875, Note_off_c, 4, 61, 64
1, 50875, Note_off_c, 2, 69, 64
1, 50910, Note_on_c, 2, 66, 127
1, 50911, Note_on_c, 4, 57, 127
1, 50919, Note_off_c, 2, 68, 64
1, 50919, Note_off_c, 4, 59, 64
1, 50954, Note_on_c, 3, 64, 127
1, 50955, Note_on_c, 4, 56, 127
1, 50963, Note_off_c, 4, 57, 64
1, 50964, Note_off_c, 2, 66, 64
1, 51000, Note_on_c, 4, 54, 127
1, 51008, Note_off_c, 4, 56, 64
1, 51045, Note_on_c, 4, 59, 127
1, 51045, Note_on_c, 4, 52, 127
1, 51053, Note_off_c, 4, 54, 64
1, 51054, Note_off_c, 3, 64, 64
1, 51139, Note_on_c, 3, 64, 127
1, 51140, Note_on_c, 4, 47, 127
1, 51146, Note_off_c, 4, 59, 64
1, 51161, Note_off_c, 4, 52, 64
1, 51230, Note_on_c, 2, 68, 124
1, 51230, Note_on_c, 4, 52, 127
1, 51237, Note_off_c, 3, 64, 64
1, 51252, Note_off_c, 4, 47, 64
1, 51319, Note_on_c, 3, 64, 127
1, 51320, Note_on_c, 4, 56, 127
1, 51326, Note_off_c, 2, 68, 64
1, 51341, Note_off_c, 4, 52, 64
1, 51410, Note_on_c, 2, 68, 124
1, 51411, Note_on_c, 4, 52, 127
1, 51419, Note_off_c, 4, 56, 64
1, 51420, Note_off_c, 3, 64, 64
1, 51501, Note_on_c, 2, 71, 120
1, 51502, Note_on_c, 4, 56, 127
1, 51509, Note_off_c, 4, 52, 64
1, 51510, Note_off_c, 2, 68, 64
1, 51545, Note_on_c, 3, 73, 111
1, 51552, Note_off_c, 2, 71, 64
1, 51588, Note_on_c, 4, 59, 127
1, 51588, Note_on_c, 3, 74, 111
1, 51594, Note_off_c, 3, 73, 64
1, 51595, Note_off_c, 4, 56, 64
1, 51629, Note_on_c, 3, 73, 111
1, 51630, Note_on_c, 4, 61, 127
1, 51636, Note_off_c, 3, 74, 64
1, 51636, Note_off_c, 4, 59, 64
1, 51670, Note_on_c, 2, 71, 120
1, 51671, Note_on_c, 3, 62, 127
1, 51676, Note_off_c, 4, 61, 64
1, 51677, Note_off_c, 3, 73, 64
1, 51710, Note_on_c, 2, 69, 124
1, 51710, Note_on_c, 4, 61, 127
1, 51717, Note_off_c, 3, 62, 64
1, 51718, Note_off_c, 2, 71, 64
1, 51753, Note_on_c, 2, 68, 124
1, 51753, Note_on_c, 4, 59, 127
1, 51759, Note_off_c, 4, 61, 64
1, 51759, Note_off_c, 2, 69, 64
1, 51796, Note_on_c, 2, 66, 127
1, 51797, Note_on_c, 4, 57, 127
1, 51804, Note_off_c, 4, 59, 64
1, 51804, Note_off_c, 2, 68, 64
1, 51839, Note_on_c, 3, 64, 127
1, 51840, Note_on_c, 4, 56, 127
1, 51847, Note_off_c, 4, 57, 64
1, 51848, Note_off_c, 2, 66, 64
1, 51883, Note_on_c, 2, 66, 127
1, 51884, Note_on_c, 4, 54, 127
1, 51892, Note_off_c, 4, 56, 64
1, 51892, Note_off_c, 3, 64, 64
1, 51929, Note_on_c, 3, 62, 127
1, 51929, Note_on_c, 4, 56, 127
1, 51936, Note_off_c, 4, 54, 64
1, 51936, Note_off_c, 2, 66, 64
1, 51973, Note_on_c, 3, 64, 127
1, 51973, Note_on_c, 4, 52, 127
1, 51980, Note_off_c, 4, 56, 64
1, 51981, Note_off_c, 3, 62, 64
1, 52016, Note_on_c, 4, 61, 127
1, 52017, Note_on_c, 4, 57, 127
1, 52025, Note_off_c, 4, 52, 64
1, 52025, Note_off_c, 3, 64, 64
1, 52063, Note_on_c, 3, 64, 127
1, 52107, Note_on_c, 3, 63, 127
1, 52115, Note_off_c, 3, 64, 64
1, 52153, Note_on_c, 3, 64, 127
1, 52159, Note_off_c, 3, 63, 64
1, 52197, Note_on_c, 2, 66, 127
1, 52203, Note_off_c, 3, 64, 64
1, 52239, Note_on_c, 3, 64, 127
1, 52247, Note_off_c, 2, 66, 64
1, 52276, Note_off_c, 4, 61, 64
1, 52276, Note_off_c, 4, 57, 64
1, 52283, Note_on_c, 4, 61, 127
1, 52283, Note_on_c, 2, 69, 124
1, 52284, Note_on_c, 4, 57, 127
1, 52289, Note_off_c, 3, 64, 64
1, 52328, Note_on_c, 3, 64, 127
1, 52335, Note_off_c, 2, 69, 64
1, 52372, Note_on_c, 3, 63, 127
1, 52380, Note_off_c, 3, 64, 64
1, 52416, Note_on_c, 3, 64, 127
1, 52424, Note_off_c, 3, 63, 64
1, 52458, Note_on_c, 2, 66, 127
1, 52466, Note_off_c, 3, 64, 64
1, 52502, Note_on_c, 3, 64, 127
1, 52510, Note_off_c, 2, 66, 64
1, 52539, Note_off_c, 4, 61, 64
1, 52539, Note_off_c, 4, 57, 64
1, 52546, Note_on_c, 4, 59, 127
1, 52546, Note_on_c, 4, 56, 127
1, 52554, Note_off_c, 3, 64, 64
1, 52591, Note_on_c, 3, 64, 127
1, 52635, Note_on_c, 3, 63, 127
1, 52643, Note_off_c, 3, 64, 64
1, 52679, Note_on_c, 3, 64, 127
1, 52687, Note_off_c, 3, 63, 64
1, 52721, Note_off_c, 4, 56, 64
1, 52722, Note_off_c, 4, 59, 64
1, 52724, Note_on_c, 4, 61, 127
1, 52725, Note_on_c, 4, 57, 127
1, 52733, Note_off_c, 3, 64, 64
1, 52769, Note_on_c, 3, 64, 127
1, 52777, Note_off_c, 4, 61, 64
1, 52813, Note_on_c, 3, 62, 127
1, 52814, Note_on_c, 4, 59, 127
1, 52820, Note_off_c, 3, 64, 64
1, 52821, Note_off_c, 4, 57, 64
1, 52860, Note_on_c, 3, 64, 127
1, 52866, Note_off_c, 3, 62, 64
1, 52905, Note_on_c, 4, 61, 127
1, 52905, Note_on_c, 4, 57, 127
1, 52911, Note_off_c, 3, 64, 64
1, 52912, Note_off_c, 4, 59, 64
1, 52951, Note_on_c, 3, 64, 127
1, 52956, Note_off_c, 4, 61, 64
1, 52995, Note_on_c, 4, 59, 127
1, 52995, Note_on_c, 4, 56, 127
1, 53002, Note_off_c, 3, 64, 64
1, 53002, Note_off_c, 4, 57, 64
1, 53038, Note_on_c, 3, 64, 127
1, 53082, Note_on_c, 4, 61, 127
1, 53083, Note_on_c, 4, 57, 127
1, 53091, Note_off_c, 4, 56, 64
1, 53091, Note_off_c, 4, 59, 64
1, 53092, Note_off_c, 3, 64, 64
1, 53126, Note_on_c, 3, 64, 127
1, 53169, Note_on_c, 3, 63, 127
1, 53177, Note_off_c, 3, 64, 64
1, 53212, Note_on_c, 3, 64, 127
1, 53218, Note_off_c, 3, 63, 64
1, 53254, Note_on_c, 2, 66, 127
1, 53262, Note_off_c, 3, 64, 64
1, 53298, Note_on_c, 3, 64, 127
1, 53306, Note_off_c, 2, 66, 64
1, 53335, Note_off_c, 4, 61, 64
1, 53335, Note_off_c, 4, 57, 64
1, 53341, Note_on_c, 2, 69, 124
1, 53342, Note_on_c, 4, 61, 127
1, 53342, Note_on_c, 4, 57, 127
1, 53348, Note_off_c, 3, 64, 64
1, 53385, Note_on_c, 3, 64, 127
1, 53392, Note_off_c, 2, 69, 64
1, 53429, Note_on_c, 3, 63, 127
1, 53436, Note_off_c, 3, 64, 64
1, 53475, Note_on_c, 3, 64, 127
1, 53483, Note_off_c, 3, 63, 64
1, 53520, Note_on_c, 2, 66, 127
1, 53526, Note_off_c, 3, 64, 64
1, 53562, Note_on_c, 3, 64, 127
1, 53570, Note_off_c, 2, 66, 64
1, 53599, Note_off_c, 4, 57, 64
1, 53599, Note_off_c, 4, 61, 64
1, 53607, Note_on_c, 4, 59, 127
1, 53608, Note_on_c, 4, 56, 127
1, 53614, Note_off_c, 3, 64, 64
1, 53651, Note_on_c, 3, 64, 127
1, 53697, Note_on_c, 3, 63, 127
1, 53704, Note_off_c, 3, 64, 64
1, 53741, Note_on_c, 3, 64, 127
1, 53748, Note_off_c, 3, 63, 64
1, 53785, Note_off_c, 4, 59, 64
1, 53785, Note_off_c, 4, 56, 64
1, 53786, Note_on_c, 4, 61, 127
1, 53786, Note_on_c, 4, 57, 127
1, 53793, Note_off_c, 3, 64, 64
1, 53829, Note_on_c, 3, 64, 127
1, 53837, Note_off_c, 4, 61, 64
1, 53875, Note_on_c, 3, 62, 127
1, 53876, Note_on_c, 4, 59, 127
1, 53882, Note_off_c, 3, 64, 64
1, 53882, Note_off_c, 4, 57, 64
1, 53919, Note_on_c, 3, 64, 127
1, 53927, Note_off_c, 3, 62, 64
1, 53964, Note_on_c, 4, 61, 127
1, 53964, Note_on_c, 4, 57, 127
1, 53970, Note_off_c, 3, 64, 64
1, 53971, Note_off_c, 4, 59, 64
1, 54008, Note_on_c, 3, 64, 127
1, 54014, Note_off_c, 4, 61, 64
1, 54052, Note_on_c, 4, 59, 127
1, 54052, Note_on_c, 4, 56, 127
1, 54059, Note_off_c, 3, 64, 64
1, 54059, Note_off_c, 4, 57, 64
1, 54095, Note_on_c, 3, 64, 127
1, 54136, Note_off_c, 4, 56, 64
1, 54137, Note_off_c, 4, 59, 64
1, 54145, Note_on_c, 4, 57, 127
1, 54188, Note_on_c, 4, 61, 127
1, 54195, Note_off_c, 3, 64, 64
1, 54231, Note_on_c, 3, 64, 127
1, 54238, Note_off_c, 4, 61, 64
1, 54272, Note_on_c, 2, 69, 125
1, 54280, Note_off_c, 3, 64, 64
1, 54314, Note_on_c, 3, 73, 115
1, 54322, Note_off_c, 2, 69, 64
1, 54357, Note_on_c, 3, 76, 113
1, 54364, Note_off_c, 3, 73, 64
1, 54391, Note_off_c, 4, 57, 64
1, 54399, Note_on_c, 4, 61, 127
1, 54399, Note_on_c, 4, 57, 127
1, 54399, Note_on_c, 0, 81, 109
1, 54406, Note_off_c, 3, 76, 64
1, 54440, Note_on_c, 0, 80, 109
1, 54448, Note_off_c, 0, 81, 64
1, 54484, Note_on_c, 3, 78, 107
1, 54485, Note_on_c, 3, 62, 127
1, 54485, Note_on_c, 4, 59, 127
1, 54492, Note_off_c, 0, 80, 64
1, 54492, Note_off_c, 4, 57, 64
1, 54493, Note_off_c, 4, 61, 64
1, 54528, Note_on_c, 3, 76, 113
1, 54535, Note_off_c, 3, 78, 64
1, 54572, Note_on_c, 3, 74, 115
1, 54572, Note_on_c, 3, 64, 127
1, 54573, Note_on_c, 4, 61, 127
1, 54580, Note_off_c, 3, 76, 64
1, 54581, Note_off_c, 4, 59, 64
1, 54581, Note_off_c, 3, 62, 64
1, 54620, Note_on_c, 3, 73, 115
1, 54627, Note_off_c, 3, 74, 64
1, 54664, Note_on_c, 3, 62, 127
1, 54664, Note_on_c, 2, 66, 127
1, 54672, Note_off_c, 4, 61, 64
1, 54673, Note_off_c, 3, 64, 64
1, 54710, Note_on_c, 3, 70, 123
1, 54716, Note_off_c, 3, 73, 64
1, 54752, Note_on_c, 3, 71, 121
1, 54758, Note_off_c, 3, 70, 64
1, 54794, Note_on_c, 3, 73, 115
1, 54800, Note_off_c, 3, 71, 64
1, 54835, Note_on_c, 3, 74, 115
1, 54842, Note_off_c, 3, 73, 64
1, 54875, Note_on_c, 3, 76, 113
1, 54883, Note_off_c, 3, 74, 64
1, 54910, Note_off_c, 2, 66, 64
1, 54910, Note_off_c, 3, 62, 64
1, 54916, Note_on_c, 3, 78, 107
1, 54917, Note_on_c, 4, 59, 127
1, 54917, Note_on_c, 3, 62, 127
1, 54924, Note_off_c, 3, 76, 64
1, 54959, Note_on_c, 3, 76, 113
1, 54966, Note_off_c, 3, 78, 64
1, 55001, Note_on_c, 3, 74, 115
1, 55001, Note_on_c, 3, 64, 127
1, 55002, Note_on_c, 4, 61, 127
1, 55008, Note_off_c, 3, 76, 64
1, 55008, Note_off_c, 3, 62, 64
1, 55008, Note_off_c, 4, 59, 64
1, 55043, Note_on_c, 3, 73, 115
1, 55049, Note_off_c, 3, 74, 64
1, 55086, Note_on_c, 3, 71, 121
1, 55087, Note_on_c, 2, 66, 127
1, 55087, Note_on_c, 3, 62, 127
1, 55093, Note_off_c, 3, 73, 64
1, 55093, Note_off_c, 4, 61, 64
1, 55094, Note_off_c, 3, 64, 64
1, 55131, Note_on_c, 3, 69, 125
1, 55139, Note_off_c, 3, 71, 64
1, 55177, Note_on_c, 3, 64, 127
1, 55178, Note_on_c, 4, 52, 127
1, 55186, Note_off_c, 3, 62, 64
1, 55187, Note_off_c, 2, 66, 64
1, 55224, Note_on_c, 3, 73, 115
1, 55231, Note_off_c, 3, 69, 64
1, 55270, Note_on_c, 3, 69, 125
1, 55270, Note_on_c, 4, 61, 127
1, 55271, Note_on_c, 4, 57, 127
1, 55276, Note_off_c, 3, 73, 64
1, 55277, Note_off_c, 3, 64, 64
1, 55316, Note_on_c, 3, 76, 113
1, 55356, Note_off_c, 4, 57, 64
1, 55356, Note_off_c, 4, 61, 64
1, 55363, Note_on_c, 4, 61, 127
1, 55363, Note_on_c, 3, 73, 115
1, 55364, Note_on_c, 4, 57, 127
1, 55369, Note_off_c, 3, 76, 64
1, 55370, Note_off_c, 3, 69, 64
1, 55409, Note_on_c, 0, 81, 109
1, 55418, Note_off_c, 3, 73, 64
1, 55455, Note_off_c, 4, 52, 64
1, 55461, Note_on_c, 4, 52, 127
1, 55461, Note_on_c, 3, 73, 112
1, 55471, Note_off_c, 0, 81, 64
1, 55490, Note_on_c, 2, 71, 121
1, 55500, Note_off_c, 3, 73, 64
1, 55519, Note_on_c, 3, 73, 112
1, 55529, Note_off_c, 2, 71, 64
1, 55546, Note_on_c, 2, 71, 121
1, 55556, Note_off_c, 3, 73, 64
1, 55575, Note_off_c, 4, 61, 64
1, 55575, Note_off_c, 4, 57, 64
1, 55576, Note_on_c, 3, 73, 112
1, 55576, Note_on_c, 3, 62, 127
1, 55577, Note_on_c, 4, 56, 127
1, 55584, Note_off_c, 2, 71, 64
1, 55601, Note_on_c, 2, 71, 121
1, 55610, Note_off_c, 3, 73, 64
1, 55628, Note_on_c, 3, 73, 112
1, 55635, Note_off_c, 2, 71, 64
1, 55653, Note_on_c, 2, 71, 121
1, 55662, Note_off_c, 3, 73, 64
1, 55672, Note_off_c, 4, 56, 64
1, 55672, Note_off_c, 3, 62, 64
1, 55679, Note_on_c, 3, 62, 127
1, 55679, Note_on_c, 2, 69, 125
1, 55680, Note_on_c, 4, 56, 127
1, 55687, Note_off_c, 2, 71, 64
1, 55728, Note_on_c, 2, 71, 121
1, 55735, Note_off_c, 2, 69, 64
1, 55766, Note_off_c, 4, 52, 64
1, 55774, Note_on_c, 2, 69, 125
1, 55774, Note_on_c, 4, 57, 127
1, 55775, Note_on_c, 4, 61, 127
1, 55780, Note_off_c, 4, 56, 64
1, 55781, Note_off_c, 2, 71, 64
1, 55781, Note_off_c, 3, 62, 64
1, 55862, Note_off_c, 4, 57, 64
1, 55868, Note_on_c, 4, 57, 127
1, 55868, Note_on_c, 4, 45, 127
1, 55957, Note_off_c, 4, 45, 64
1, 55957, Note_off_c, 4, 57, 64
1, 55966, Note_on_c, 4, 57, 127
1, 55966, Note_on_c, 4, 45, 127
1, 56057, Note_off_c, 4, 45, 64
1, 56057, Note_off_c, 4, 57, 64
1, 56066, Note_on_c, 4, 57, 127
1, 56067, Note_on_c, 4, 45, 127
1, 56073, Note_off_c, 2, 69, 64
1, 56075, Note_off_c, 4, 61, 64
1, 56270, Note_on_c, 3, 73, 114
1, 56368, Note_on_c, 3, 74, 114
1, 56376, Note_off_c, 3, 73, 64
1, 56555, Note_off_c, 3, 74, 64
1, 56555, Note_on_c, 3, 76, 112
1, 56646, Note_on_c, 3, 78, 109
1, 56653, Note_off_c, 3, 76, 64
1, 56738, Note_on_c, 3, 76, 112
1, 56746, Note_off_c, 3, 78, 64
1, 56782, Note_on_c, 3, 74, 114
1, 56788, Note_off_c, 3, 76, 64
1, 56826, Note_on_c, 3, 73, 114
1, 56834, Note_off_c, 3, 74, 64
1, 56872, Note_on_c, 2, 71, 123
1, 56880, Note_off_c, 3, 73, 64
1, 56918, Note_on_c, 2, 69, 127
1, 56919, Note_on_c, 4, 59, 114
1, 56919, Note_on_c, 3, 62, 114
1, 56920, Note_on_c, 4, 52, 114
1, 56926, Note_off_c, 2, 71, 64
1, 56934, Note_off_c, 4, 57, 64
1, 56934, Note_off_c, 4, 45, 64
1, 57179, Note_off_c, 2, 69, 64
1, 57184, Note_on_c, 2, 68, 126
1, 57361, Note_off_c, 2, 68, 64
1, 57361, Note_off_c, 4, 52, 64
1, 57362, Note_off_c, 3, 62, 64
1, 57362, Note_off_c, 4, 59, 64
1, 57363, Note_on_c, 2, 66, 127
1, 57363, Note_on_c, 4, 56, 127
1, 57364, Note_on_c, 4, 50, 127
1, 57448, Note_off_c, 2, 66, 64
1, 57458, Note_on_c, 4, 57, 127
1, 57458, Note_on_c, 2, 66, 127
1, 57459, Note_on_c, 4, 49, 127
1, 57465, Note_off_c, 4, 50, 64
1, 57465, Note_off_c, 4, 56, 64
1, 57546, Note_on_c, 3, 64, 127
1, 57554, Note_off_c, 2, 66, 64
1, 57634, Note_off_c, 3, 64, 64
1, 57641, Note_on_c, 3, 64, 127
1, 57730, Note_off_c, 3, 64, 64
1, 57737, Note_on_c, 3, 64, 127
1, 57818, Note_off_c, 4, 57, 64
1, 57818, Note_off_c, 4, 49, 64
1, 57834, Note_on_c, 2, 69, 125
1, 57835, Note_on_c, 4, 49, 127
1, 57841, Note_off_c, 3, 64, 64
1, 57920, Note_off_c, 2, 69, 64
1, 57925, Note_on_c, 3, 73, 110
1, 57926, Note_on_c, 2, 69, 123
1, 57926, Note_on_c, 4, 45, 127
1, 57932, Note_off_c, 4, 49, 64
1, 58011, Note_off_c, 2, 69, 64
1, 58011, Note_off_c, 3, 73, 64
1, 58018, Note_on_c, 3, 73, 110
1, 58018, Note_on_c, 2, 69, 123
1, 58019, Note_on_c, 4, 52, 127
1, 58026, Note_off_c, 4, 45, 64
1, 58210, Note_off_c, 3, 73, 64
1, 58210, Note_on_c, 3, 74, 110
1, 58295, Note_off_c, 2, 69, 64
1, 58303, Note_on_c, 2, 71, 119
1, 58303, Note_on_c, 2, 68, 124
1, 58309, Note_off_c, 3, 74, 64
1, 58486, Note_off_c, 2, 68, 64
1, 58487, Note_off_c, 2, 71, 64
1, 58487, Note_on_c, 3, 73, 110
1, 58572, Note_off_c, 3, 73, 64
1, 58579, Note_on_c, 3, 74, 110
1, 58662, Note_off_c, 3, 74, 64
1, 58668, Note_on_c, 3, 74, 110
1, 58713, Note_on_c, 3, 73, 110
1, 58720, Note_off_c, 3, 74, 64
1, 58757, Note_on_c, 3, 76, 108
1, 58763, Note_off_c, 3, 73, 64
1, 58800, Note_on_c, 3, 74, 110
1, 58807, Note_off_c, 3, 76, 64
1, 58843, Note_on_c, 3, 78, 105
1, 58849, Note_off_c, 3, 74, 64
1, 58887, Note_on_c, 3, 76, 108
1, 58896, Note_off_c, 3, 78, 64
1, 58928, Note_on_c, 3, 74, 110
1, 58935, Note_off_c, 3, 76, 64
1, 58970, Note_on_c, 3, 73, 110
1, 58978, Note_off_c, 3, 74, 64
1, 59013, Note_on_c, 3, 74, 110
1, 59019, Note_off_c, 3, 73, 64
1, 59058, Note_on_c, 2, 71, 119
1, 59066, Note_off_c, 3, 74, 64
1, 59088, Note_off_c, 4, 52, 64
1, 59103, Note_on_c, 4, 59, 127
1, 59103, Note_on_c, 3, 62, 127
1, 59103, Note_on_c, 2, 69, 123
1, 59104, Note_on_c, 4, 52, 127
1, 59111, Note_off_c, 2, 71, 64
1, 59148, Note_on_c, 2, 68, 124
1, 59156, Note_off_c, 2, 69, 64
1, 59192, Note_on_c, 2, 71, 119
1, 59200, Note_off_c, 2, 68, 64
1, 59236, Note_on_c, 2, 69, 123
1, 59242, Note_off_c, 2, 71, 64
1, 59279, Note_on_c, 3, 73, 110
1, 59286, Note_off_c, 2, 69, 64
1, 59321, Note_on_c, 2, 71, 119
1, 59328, Note_off_c, 3, 73, 64
1, 59365, Note_on_c, 3, 74, 110
1, 59371, Note_off_c, 2, 71, 64
1, 59407, Note_on_c, 3, 73, 110
1, 59413, Note_off_c, 3, 74, 64
1, 59449, Note_on_c, 3, 76, 108
1, 59455, Note_off_c, 3, 73, 64
1, 59492, Note_on_c, 3, 74, 110
1, 59497, Note_off_c, 3, 76, 64
1, 59526, Note_off_c, 3, 62, 64
1, 59534, Note_off_c, 4, 59, 64
1, 59534, Note_on_c, 3, 78, 105
1, 59535, Note_on_c, 2, 68, 124
1, 59535, Note_on_c, 3, 62, 127
1, 59540, Note_off_c, 3, 74, 64
1, 59578, Note_on_c, 3, 76, 108
1, 59586, Note_off_c, 3, 78, 64
1, 59618, Note_off_c, 3, 76, 64
1, 59620, Note_off_c, 3, 62, 64
1, 59620, Note_off_c, 2, 68, 64
1, 59623, Note_on_c, 3, 76, 108
1, 59624, Note_on_c, 4, 61, 127
1, 59624, Note_on_c, 2, 69, 123
1, 59665, Note_on_c, 0, 81, 107
1, 59673, Note_off_c, 3, 76, 64
1, 59710, Note_on_c, 0, 80, 107
1, 59717, Note_off_c, 0, 81, 64
1, 59752, Note_on_c, 3, 79, 107
1, 59760, Note_off_c, 0, 80, 64
1, 59794, Note_off_c, 4, 61, 64
1, 59795, Note_off_c, 2, 69, 64
1, 59799, Note_on_c, 2, 69, 123
1, 59799, Note_on_c, 3, 78, 105
1, 59800, Note_on_c, 3, 62, 127
1, 59806, Note_off_c, 3, 79, 64
1, 59844, Note_on_c, 3, 77, 108
1, 59852, Note_off_c, 3, 78, 64
1, 59882, Note_off_c, 3, 62, 64
1, 59883, Note_off_c, 2, 69, 64
1, 59891, Note_on_c, 3, 76, 108
1, 59892, Note_on_c, 4, 61, 127
1, 59892, Note_on_c, 2, 69, 123
1, 59898, Note_off_c, 3, 77, 64
1, 59936, Note_on_c, 0, 81, 107
1, 59944, Note_off_c, 3, 76, 64
1, 59982, Note_on_c, 0, 80, 107
1, 59990, Note_off_c, 0, 81, 64
1, 60028, Note_on_c, 3, 79, 107
1, 60036, Note_off_c, 0, 80, 64
1, 60069, Note_off_c, 2, 69, 64
1, 60069, Note_off_c, 4, 61, 64
1, 60073, Note_on_c, 3, 78, 105
1, 60074, Note_on_c, 2, 69, 123
1, 60074, Note_on_c, 3, 62, 127
1, 60082, Note_off_c, 3, 79, 64
1, 60117, Note_off_c, 3, 78, 64
1, 60120, Note_on_c, 3, 77, 108
1, 60159, Note_off_c, 3, 62, 64
1, 60159, Note_off_c, 4, 52, 64
1, 60160, Note_off_c, 2, 69, 64
1, 60164, Note_off_c, 3, 77, 64
1, 60166, Note_on_c, 3, 76, 108
1, 60166, Note_on_c, 2, 69, 123
1, 60167, Note_on_c, 4, 61, 127
1, 60429, Note_off_c, 2, 69, 64
1, 60432, Note_off_c, 3, 76, 64
1, 60433, Note_on_c, 3, 77, 108
1, 60433, Note_on_c, 2, 71, 119
1, 60434, Note_on_c, 2, 68, 124
1, 60711, Note_off_c, 2, 71, 64
1, 60711, Note_off_c, 2, 68, 64
1, 60712, Note_off_c, 3, 77, 64
1, 60712, Note_off_c, 4, 61, 64
1, 60713, Note_on_c, 2, 69, 123
1, 60713, Note_on_c, 3, 78, 105
1, 60714, Note_on_c, 3, 62, 127
1, 60714, Note_on_c, 2, 66, 127
1, 60889, Note_off_c, 3, 78, 64
1, 60893, Note_on_c, 3, 78, 105
1, 60941, Note_on_c, 0, 80, 107
1, 60949, Note_off_c, 3, 78, 64
1, 60986, Note_on_c, 0, 81, 107
1, 60992, Note_off_c, 0, 80, 64
1, 61033, Note_on_c, 3, 77, 108
1, 61039, Note_off_c, 0, 81, 64
1, 61075, Note_on_c, 3, 78, 105
1, 61082, Note_off_c, 3, 77, 64
1, 61119, Note_on_c, 3, 73, 110
1, 61127, Note_off_c, 3, 78, 64
1, 61167, Note_on_c, 3, 74, 110
1, 61176, Note_off_c, 3, 73, 64
1, 61197, Note_off_c, 2, 69, 64
1, 61214, Note_on_c, 2, 71, 119
1, 61220, Note_off_c, 3, 74, 64
1, 61260, Note_off_c, 2, 66, 64
1, 61260, Note_off_c, 3, 62, 64
1, 61260, Note_on_c, 2, 69, 123
1, 61268, Note_off_c, 2, 71, 64
1, 61441, Note_on_c, 4, 61, 127
1, 61441, Note_on_c, 4, 52, 127
1, 61530, Note_on_c, 3, 62, 127
1, 61531, Note_on_c, 4, 53, 127
1, 61537, Note_off_c, 4, 52, 64
1, 61537, Note_off_c, 4, 61, 64
1, 61708, Note_off_c, 3, 62, 64
1, 61708, Note_off_c, 4, 53, 64
1, 61709, Note_on_c, 3, 63, 127
1, 61709, Note_on_c, 4, 54, 127
1, 61793, Note_off_c, 2, 69, 64
1, 61801, Note_on_c, 3, 73, 110
1, 61801, Note_on_c, 2, 69, 123
1, 61802, Note_on_c, 4, 52, 127
1, 61802, Note_on_c, 3, 64, 127
1, 61809, Note_off_c, 4, 54, 64
1, 61809, Note_off_c, 3, 63, 64
1, 62054, Note_off_c, 3, 64, 64
1, 62055, Note_off_c, 2, 69, 64
1, 62055, Note_off_c, 3, 73, 64
1, 62061, Note_on_c, 3, 73, 110
1, 62062, Note_on_c, 3, 62, 127
1, 62062, Note_on_c, 2, 68, 124
1, 62103, Note_on_c, 2, 71, 119
1, 62111, Note_off_c, 3, 73, 64
1, 62148, Note_on_c, 2, 69, 123
1, 62155, Note_off_c, 2, 71, 64
1, 62244, Note_on_c, 2, 71, 119
1, 62253, Note_off_c, 2, 69, 64
1, 62341, Note_off_c, 3, 62, 64
1, 62342, Note_off_c, 2, 68, 64
1, 62342, Note_off_c, 4, 52, 64
1, 62343, Note_on_c, 4, 57, 127
1, 62343, Note_on_c, 2, 69, 123
1, 62349, Note_off_c, 2, 71, 64
1, 62436, Note_on_c, 4, 61, 127
1, 62497, Note_off_c, 4, 57, 64
1, 62528, Note_off_c, 2, 69, 64
1, 62528, Note_on_c, 3, 75, 107
1, 62529, Note_on_c, 3, 64, 127
1, 62534, Note_off_c, 4, 61, 64
1, 62573, Note_on_c, 3, 76, 108
1, 62580, Note_off_c, 3, 75, 64
1, 62615, Note_on_c, 3, 78, 105
1, 62616, Note_on_c, 4, 57, 127
1, 62622, Note_off_c, 3, 76, 64
1, 62622, Note_off_c, 3, 64, 64
1, 62655, Note_on_c, 3, 76, 108
1, 62665, Note_off_c, 3, 78, 64
1, 62696, Note_on_c, 3, 74, 110
1, 62698, Note_on_c, 4, 61, 127
1, 62702, Note_off_c, 3, 76, 64
1, 62737, Note_on_c, 3, 73, 110
1, 62745, Note_off_c, 3, 74, 64
1, 62752, Note_off_c, 4, 57, 64
1, 62779, Note_on_c, 2, 71, 119
1, 62782, Note_on_c, 3, 64, 127
1, 62786, Note_off_c, 3, 73, 64
1, 62788, Note_off_c, 4, 61, 64
1, 62823, Note_on_c, 2, 69, 123
1, 62829, Note_off_c, 2, 71, 64
1, 62868, Note_on_c, 4, 52, 127
1, 62868, Note_on_c, 2, 68, 124
1, 62874, Note_off_c, 3, 64, 64
1, 62875, Note_off_c, 2, 69, 64
1, 62912, Note_on_c, 2, 69, 123
1, 62919, Note_off_c, 2, 68, 64
1, 62956, Note_on_c, 2, 71, 119
1, 62956, Note_on_c, 4, 56, 127
1, 62963, Note_off_c, 2, 69, 64
1, 62997, Note_on_c, 3, 73, 110
1, 63005, Note_off_c, 2, 71, 64
1, 63012, Note_off_c, 4, 52, 64
1, 63043, Note_on_c, 3, 74, 110
1, 63044, Note_on_c, 4, 59, 127
1, 63050, Note_off_c, 3, 73, 64
1, 63050, Note_off_c, 4, 56, 64
1, 63085, Note_on_c, 3, 76, 108
1, 63093, Note_off_c, 3, 74, 64
1, 63130, Note_on_c, 3, 78, 105
1, 63130, Note_on_c, 4, 52, 127
1, 63136, Note_off_c, 3, 76, 64
1, 63137, Note_off_c, 4, 59, 64
1, 63172, Note_on_c, 0, 80, 107
1, 63180, Note_off_c, 3, 78, 64
1, 63216, Note_on_c, 0, 81, 107
1, 63216, Note_on_c, 4, 56, 127
1, 63223, Note_off_c, 0, 80, 64
1, 63259, Note_on_c, 0, 83, 106
1, 63265, Note_off_c, 0, 81, 64
1, 63273, Note_off_c, 4, 52, 64
1, 63304, Note_on_c, 4, 59, 127
1, 63304, Note_on_c, 0, 85, 106
1, 63310, Note_off_c, 0, 83, 64
1, 63311, Note_off_c, 4, 56, 64
1, 63348, Note_on_c, 0, 86, 106
1, 63355, Note_off_c, 0, 85, 64
1, 63394, Note_on_c, 0, 85, 106
1, 63395, Note_on_c, 4, 57, 127
1, 63400, Note_off_c, 4, 59, 64
1, 63401, Note_off_c, 0, 86, 64
1, 63484, Note_on_c, 4, 61, 127
1, 63542, Note_off_c, 4, 57, 64
1, 63572, Note_off_c, 0, 85, 64
1, 63573, Note_on_c, 3, 75, 107
1, 63573, Note_on_c, 3, 64, 127
1, 63579, Note_off_c, 4, 61, 64
1, 63613, Note_on_c, 3, 76, 108
1, 63620, Note_off_c, 3, 75, 64
1, 63651, Note_on_c, 3, 78, 105
1, 63652, Note_on_c, 4, 57, 127
1, 63660, Note_off_c, 3, 76, 64
1, 63660, Note_off_c, 3, 64, 64
1, 63696, Note_on_c, 3, 76, 108
1, 63703, Note_off_c, 3, 78, 64
1, 63736, Note_on_c, 3, 74, 110
1, 63736, Note_on_c, 4, 61, 127
1, 63743, Note_off_c, 3, 76, 64
1, 63777, Note_on_c, 3, 73, 110
1, 63783, Note_off_c, 3, 74, 64
1, 63791, Note_off_c, 4, 57, 64
1, 63817, Note_on_c, 2, 71, 119
1, 63818, Note_on_c, 3, 64, 127
1, 63826, Note_off_c, 3, 73, 64
1, 63826, Note_off_c, 4, 61, 64
1, 63862, Note_on_c, 2, 69, 123
1, 63867, Note_off_c, 2, 71, 64
1, 63904, Note_on_c, 2, 68, 124
1, 63904, Note_on_c, 4, 52, 127
1, 63911, Note_off_c, 2, 69, 64
1, 63911, Note_off_c, 3, 64, 64
1, 63950, Note_on_c, 2, 66, 127
1, 63958, Note_off_c, 2, 68, 64
1, 63994, Note_on_c, 3, 64, 127
1, 63995, Note_on_c, 4, 59, 127
1, 64003, Note_off_c, 2, 66, 64
1, 64039, Note_on_c, 2, 66, 127
1, 64047, Note_off_c, 3, 64, 64
1, 64055, Note_off_c, 4, 52, 64
1, 64083, Note_on_c, 2, 68, 124
1, 64084, Note_on_c, 3, 62, 127
1, 64090, Note_off_c, 2, 66, 64
1, 64127, Note_on_c, 2, 69, 123
1, 64134, Note_off_c, 2, 68, 64
1, 64142, Note_off_c, 4, 59, 64
1, 64171, Note_on_c, 2, 71, 119
1, 64171, Note_on_c, 4, 52, 127
1, 64179, Note_off_c, 2, 69, 64
1, 64180, Note_off_c, 3, 62, 64
1, 64215, Note_on_c, 3, 73, 110
1, 64221, Note_off_c, 2, 71, 64
1, 64257, Note_on_c, 3, 74, 110
1, 64258, Note_on_c, 4, 59, 127
1, 64264, Note_off_c, 3, 73, 64
1, 64300, Note_on_c, 3, 76, 108
1, 64306, Note_off_c, 3, 74, 64
1, 64315, Note_off_c, 4, 52, 64
1, 64344, Note_on_c, 3, 78, 105
1, 64344, Note_on_c, 3, 62, 127
1, 64350, Note_off_c, 3, 76, 64
1, 64351, Note_off_c, 4, 59, 64
1, 64386, Note_on_c, 0, 80, 107
1, 64393, Note_off_c, 3, 78, 64
1, 64426, Note_off_c, 0, 80, 64
1, 64430, Note_on_c, 4, 61, 127
1, 64430, Note_on_c, 0, 81, 116
1, 64431, Note_on_c, 4, 57, 127
1, 64437, Note_off_c, 3, 62, 64
1, 64521, Note_on_c, 3, 76, 119
1, 64581, Note_off_c, 0, 81, 64
1, 64611, Note_off_c, 4, 57, 64
1, 64612, Note_off_c, 4, 61, 64
1, 64612, Note_on_c, 0, 85, 119
1, 64613, Note_on_c, 3, 64, 127
1, 64675, Note_off_c, 3, 76, 64
1, 64704, Note_on_c, 0, 81, 120
1, 64705, Note_on_c, 4, 61, 127
1, 64705, Note_on_c, 4, 57, 127
1, 64713, Note_off_c, 3, 64, 64
1, 64714, Note_off_c, 0, 85, 64
1, 64795, Note_on_c, 3, 76, 118
1, 64804, Note_off_c, 0, 81, 64
1, 64891, Note_off_c, 4, 57, 64
1, 64891, Note_off_c, 4, 61, 64
1, 64892, Note_on_c, 0, 85, 119
1, 64892, Note_on_c, 3, 64, 127
1, 64952, Note_off_c, 3, 76, 64
1, 64985, Note_off_c, 3, 64, 64
1, 64985, Note_off_c, 0, 85, 64
1, 64986, Note_on_c, 4, 61, 127
1, 64986, Note_on_c, 0, 81, 115
1, 64987, Note_on_c, 4, 57, 127
1, 65401, Note_off_c, 0, 81, 64
1, 65491, Note_off_c, 4, 61, 64
1, 65491, Note_off_c, 4, 57, 64
1, 65492, Note_on_c, 4, 60, 127
1, 65492, Note_on_c, 0, 81, 119
1, 65493, Note_on_c, 4, 57, 127
1, 65586, Note_on_c, 3, 76, 118
1, 65680, Note_off_c, 4, 57, 64
1, 65681, Note_off_c, 0, 81, 64
1, 65681, Note_off_c, 4, 60, 64
1, 65681, Note_on_c, 3, 64, 127
1, 65681, Note_on_c, 0, 84, 120
1, 65771, Note_off_c, 3, 76, 64
1, 65772, Note_on_c, 0, 81, 120
1, 65772, Note_on_c, 4, 60, 127
1, 65772, Note_on_c, 4, 57, 127
1, 65779, Note_off_c, 0, 84, 64
1, 65779, Note_off_c, 3, 64, 64
1, 65865, Note_on_c, 3, 76, 118
1, 65954, Note_off_c, 4, 57, 64
1, 65955, Note_off_c, 4, 60, 64
1, 65955, Note_off_c, 0, 81, 64
1, 65956, Note_on_c, 3, 64, 127
1, 65956, Note_on_c, 0, 84, 120
1, 66051, Note_off_c, 3, 76, 64
1, 66051, Note_on_c, 4, 60, 127
1, 66051, Note_on_c, 0, 81, 120
1, 66052, Note_on_c, 4, 57, 127
1, 66057, Note_off_c, 0, 84, 64
1, 66057, Note_off_c, 3, 64, 64
1, 66399, Note_off_c, 0, 81, 64
1, 66564, Note_off_c, 4, 60, 64
1, 66564, Note_off_c, 4, 57, 64
1, 66570, Note_on_c, 0, 81, 120
1, 66571, Note_on_c, 4, 60, 127
1, 66571, Note_on_c, 3, 63, 127
1, 66572, Note_on_c, 4, 53, 127
1, 66664, Note_on_c, 3, 75, 117
1, 66756, Note_off_c, 4, 53, 64
1, 66757, Note_off_c, 0, 81, 64
1, 66757, Note_on_c, 0, 84, 120
1, 66758, Note_on_c, 4, 54, 127
1, 66841, Note_off_c, 3, 63, 64
1, 66841, Note_off_c, 4, 60, 64
1, 66848, Note_off_c, 3, 75, 64
1, 66848, Note_on_c, 0, 81, 120
1, 66849, Note_on_c, 4, 60, 127
1, 66849, Note_on_c, 3, 63, 127
1, 66850, Note_on_c, 4, 53, 127
1, 66857, Note_off_c, 4, 54, 64
1, 66858, Note_off_c, 0, 84, 64
1, 66941, Note_on_c, 3, 75, 117
1, 67035, Note_off_c, 0, 81, 64
1, 67035, Note_off_c, 4, 53, 64
1, 67036, Note_on_c, 0, 84, 120
1, 67036, Note_on_c, 4, 54, 127
1, 67116, Note_off_c, 3, 63, 64
1, 67116, Note_off_c, 4, 60, 64
1, 67124, Note_off_c, 3, 75, 64
1, 67125, Note_on_c, 3, 63, 127
1, 67125, Note_on_c, 0, 81, 120
1, 67126, Note_on_c, 4, 53, 127
1, 67126, Note_on_c, 4, 60, 127
1, 67132, Note_off_c, 4, 54, 64
1, 67132, Note_off_c, 0, 84, 64
1, 67484, Note_off_c, 0, 81, 64
1, 67536, Note_off_c, 3, 63, 64
1, 67536, Note_off_c, 4, 60, 64
1, 67573, Note_on_c, 4, 65, 127
1, 67668, Note_on_c, 2, 70, 120
1, 67675, Note_off_c, 4, 65, 64
1, 67754, Note_on_c, 4, 65, 127
1, 67762, Note_off_c, 2, 70, 64
1, 67842, Note_on_c, 2, 70, 120
1, 67850, Note_off_c, 4, 65, 64
1, 67931, Note_on_c, 3, 74, 112
1, 67938, Note_off_c, 2, 70, 64
1, 68017, Note_on_c, 2, 70, 120
1, 68025, Note_off_c, 3, 74, 64
1, 68067, Note_off_c, 4, 53, 64
1, 68104, Note_on_c, 4, 53, 127
1, 68104, Note_on_c, 3, 74, 112
1, 68110, Note_off_c, 2, 70, 64
1, 68191, Note_on_c, 3, 77, 117
1, 68191, Note_on_c, 4, 58, 127
1, 68197, Note_off_c, 4, 53, 64
1, 68198, Note_off_c, 3, 74, 64
1, 68280, Note_on_c, 4, 53, 127
1, 68287, Note_off_c, 4, 58, 64
1, 68362, Note_off_c, 3, 77, 64
1, 68368, Note_on_c, 4, 58, 127
1, 68368, Note_on_c, 3, 77, 117
1, 68375, Note_off_c, 4, 53, 64
1, 68448, Note_off_c, 3, 77, 64
1, 68455, Note_on_c, 3, 77, 117
1, 68455, Note_on_c, 3, 62, 127
1, 68462, Note_off_c, 4, 58, 64
1, 68541, Note_on_c, 4, 58, 127
1, 68548, Note_off_c, 3, 62, 64
1, 68621, Note_off_c, 3, 77, 64
1, 68625, Note_on_c, 0, 82, 109
1, 68626, Note_on_c, 3, 62, 127
1, 68632, Note_off_c, 4, 58, 64
1, 68711, Note_on_c, 0, 81, 106
1, 68711, Note_on_c, 4, 65, 127
1, 68717, Note_off_c, 3, 62, 64
1, 68718, Note_off_c, 0, 82, 64
1, 68751, Note_on_c, 3, 79, 106
1, 68759, Note_off_c, 0, 81, 64
1, 68795, Note_on_c, 3, 77, 111
1, 68803, Note_off_c, 3, 79, 64
1, 68839, Note_on_c, 3, 79, 106
1, 68847, Note_off_c, 3, 77, 64
1, 68879, Note_off_c, 4, 65, 64
1, 68883, Note_on_c, 0, 81, 106
1, 68884, Note_on_c, 4, 65, 127
1, 68890, Note_off_c, 3, 79, 64
1, 68927, Note_on_c, 0, 82, 106
1, 68934, Note_off_c, 0, 81, 64
1, 68963, Note_off_c, 4, 65, 64
1, 68971, Note_on_c, 4, 65, 127
1, 68971, Note_on_c, 0, 84, 106
1, 68977, Note_off_c, 0, 82, 64
1, 69014, Note_on_c, 0, 82, 106
1, 69020, Note_off_c, 0, 84, 64
1, 69054, Note_on_c, 0, 81, 102
1, 69062, Note_off_c, 0, 82, 64
1, 69098, Note_on_c, 0, 82, 102
1, 69106, Note_off_c, 0, 81, 64
1, 69138, Note_off_c, 4, 65, 64
1, 69144, Note_on_c, 0, 84, 102
1, 69144, Note_on_c, 2, 70, 116
1, 69150, Note_off_c, 0, 82, 64
1, 69185, Note_on_c, 0, 86, 105
1, 69192, Note_off_c, 0, 84, 64
1, 69224, Note_off_c, 0, 86, 64
1, 69228, Note_on_c, 0, 87, 98
1, 69228, Note_on_c, 2, 69, 118
1, 69235, Note_off_c, 2, 70, 64
1, 69271, Note_on_c, 2, 67, 127
1, 69277, Note_off_c, 2, 69, 64
1, 69315, Note_on_c, 3, 77, 104
1, 69316, Note_on_c, 4, 65, 127
1, 69322, Note_off_c, 2, 67, 64
1, 69360, Note_on_c, 2, 67, 127
1, 69366, Note_off_c, 4, 65, 64
1, 69399, Note_off_c, 0, 87, 64
1, 69403, Note_on_c, 0, 87, 98
1, 69403, Note_on_c, 2, 69, 118
1, 69411, Note_off_c, 2, 67, 64
1, 69448, Note_on_c, 2, 70, 116
1, 69454, Note_off_c, 2, 69, 64
1, 69490, Note_on_c, 3, 72, 107
1, 69496, Note_off_c, 2, 70, 64
1, 69532, Note_on_c, 2, 70, 116
1, 69540, Note_off_c, 3, 72, 64
1, 69569, Note_off_c, 3, 77, 64
1, 69576, Note_on_c, 3, 77, 104
1, 69577, Note_on_c, 2, 69, 118
1, 69583, Note_off_c, 2, 70, 64
1, 69622, Note_on_c, 2, 70, 116
1, 69629, Note_off_c, 2, 69, 64
1, 69660, Note_off_c, 0, 87, 64
1, 69668, Note_on_c, 0, 87, 98
1, 69668, Note_on_c, 3, 72, 107
1, 69674, Note_off_c, 2, 70, 64
1, 69713, Note_on_c, 3, 74, 98
1, 69719, Note_off_c, 3, 72, 64
1, 69753, Note_off_c, 3, 77, 64
1, 69759, Note_on_c, 3, 75, 96
1, 69765, Note_off_c, 3, 74, 64
1, 69795, Note_off_c, 0, 87, 64
1, 69803, Note_on_c, 0, 89, 98
1, 69847, Note_on_c, 0, 87, 98
1, 69853, Note_off_c, 0, 89, 64
1, 69888, Note_off_c, 3, 75, 64
1, 69888, Note_on_c, 0, 86, 102
1, 69888, Note_on_c, 3, 77, 104
1, 69895, Note_off_c, 0, 87, 64
1, 69932, Note_on_c, 0, 84, 98
1, 69932, Note_on_c, 3, 75, 96
1, 69940, Note_off_c, 3, 77, 64
1, 69941, Note_off_c, 0, 86, 64
1, 69978, Note_on_c, 0, 82, 94
1, 69978, Note_on_c, 3, 74, 98
1, 69984, Note_off_c, 3, 75, 64
1, 69985, Note_off_c, 0, 84, 64
1, 70022, Note_on_c, 0, 81, 94
1, 70022, Note_on_c, 3, 72, 107
1, 70029, Note_off_c, 3, 74, 64
1, 70030, Note_off_c, 0, 82, 64
1, 70067, Note_on_c, 0, 82, 94
1, 70068, Note_on_c, 3, 74, 98
1, 70074, Note_off_c, 3, 72, 64
1, 70074, Note_off_c, 0, 81, 64
1, 70111, Note_on_c, 0, 81, 94
1, 70112, Note_on_c, 3, 72, 111
1, 70120, Note_off_c, 0, 82, 64
1, 70120, Note_off_c, 3, 74, 64
1, 70159, Note_on_c, 3, 79, 94
1, 70160, Note_on_c, 2, 70, 120
1, 70166, Note_off_c, 3, 72, 64
1, 70166, Note_off_c, 0, 81, 64
1, 70205, Note_on_c, 3, 77, 98
1, 70206, Note_on_c, 2, 69, 122
1, 70212, Note_off_c, 2, 70, 64
1, 70212, Note_off_c, 3, 79, 64
1, 70253, Note_on_c, 3, 75, 99
1, 70254, Note_on_c, 2, 67, 127
1, 70262, Note_off_c, 2, 69, 64
1, 70262, Note_off_c, 3, 77, 64
1, 70302, Note_on_c, 3, 74, 106
1, 70302, Note_on_c, 2, 66, 127
1, 70310, Note_off_c, 2, 67, 64
1, 70310, Note_off_c, 3, 75, 64
1, 70347, Note_on_c, 3, 75, 103
1, 70353, Note_off_c, 3, 74, 64
1, 70392, Note_on_c, 3, 74, 106
1, 70399, Note_off_c, 3, 75, 64
1, 70436, Note_on_c, 0, 84, 103
1, 70474, Note_off_c, 3, 74, 64
1, 70480, Note_off_c, 2, 66, 64
1, 70481, Note_on_c, 3, 76, 104
1, 70481, Note_on_c, 2, 67, 127
1, 70517, Note_off_c, 0, 84, 64
1, 70523, Note_on_c, 0, 84, 103
1, 70561, Note_off_c, 3, 76, 64
1, 70567, Note_on_c, 3, 74, 106
1, 70568, Note_on_c, 2, 66, 127
1, 70576, Note_off_c, 2, 67, 64
1, 70607, Note_off_c, 0, 84, 64
1, 70612, Note_on_c, 3, 75, 103
1, 70620, Note_off_c, 3, 74, 64
1, 70658, Note_on_c, 3, 74, 106
1, 70665, Note_off_c, 3, 75, 64
1, 70703, Note_on_c, 0, 84, 103
1, 70739, Note_off_c, 3, 74, 64
1, 70747, Note_off_c, 2, 66, 64
1, 70747, Note_on_c, 3, 75, 103
1, 70748, Note_on_c, 2, 67, 127
1, 70783, Note_off_c, 0, 84, 64
1, 70790, Note_on_c, 0, 84, 103
1, 70827, Note_off_c, 3, 75, 64
1, 70835, Note_on_c, 2, 66, 127
1, 70835, Note_on_c, 3, 74, 106
1, 70841, Note_off_c, 2, 67, 64
1, 70870, Note_off_c, 0, 84, 64
1, 70878, Note_on_c, 0, 84, 103
1, 70912, Note_off_c, 3, 74, 64
1, 70918, Note_on_c, 0, 81, 103
1, 70926, Note_off_c, 0, 84, 64
1, 70961, Note_on_c, 3, 79, 106
1, 70970, Note_off_c, 0, 81, 64
1, 71004, Note_on_c, 3, 78, 104
1, 71011, Note_off_c, 3, 79, 64
1, 71050, Note_on_c, 3, 75, 103
1, 71057, Note_off_c, 3, 78, 64
1, 71093, Note_on_c, 3, 74, 106
1, 71100, Note_off_c, 3, 75, 64
1, 71137, Note_on_c, 3, 75, 103
1, 71144, Note_off_c, 3, 74, 64
1, 71180, Note_on_c, 3, 74, 106
1, 71188, Note_off_c, 3, 75, 64
1, 71222, Note_on_c, 3, 72, 114
1, 71228, Note_off_c, 3, 74, 64
1, 71265, Note_on_c, 4, 50, 127
1, 71265, Note_on_c, 3, 70, 122
1, 71271, Note_off_c, 3, 72, 64
1, 71308, Note_on_c, 3, 69, 124
1, 71316, Note_off_c, 3, 70, 64
1, 71346, Note_off_c, 2, 66, 64
1, 71354, Note_on_c, 2, 67, 127
1, 71354, Note_on_c, 4, 55, 127
1, 71363, Note_off_c, 3, 69, 64
1, 71363, Note_off_c, 4, 50, 64
1, 71445, Note_on_c, 4, 50, 127
1, 71453, Note_off_c, 4, 55, 64
1, 71532, Note_off_c, 2, 67, 64
1, 71533, Note_on_c, 3, 62, 127
1, 71533, Note_on_c, 4, 55, 127
1, 71540, Note_off_c, 4, 50, 64
1, 71625, Note_on_c, 2, 67, 127
1, 71625, Note_on_c, 4, 58, 127
1, 71633, Note_off_c, 4, 55, 64
1, 71634, Note_off_c, 3, 62, 64
1, 71717, Note_on_c, 4, 55, 127
1, 71717, Note_on_c, 3, 62, 127
1, 71724, Note_off_c, 4, 58, 64
1, 71724, Note_off_c, 2, 67, 64
1, 71805, Note_on_c, 2, 67, 127
1, 71806, Note_on_c, 4, 58, 127
1, 71814, Note_off_c, 3, 62, 64
1, 71814, Note_off_c, 4, 55, 64
1, 71897, Note_on_c, 2, 70, 122
1, 71898, Note_on_c, 3, 62, 127
1, 71906, Note_off_c, 4, 58, 64
1, 71906, Note_off_c, 2, 67, 64
1, 71989, Note_on_c, 2, 67, 127
1, 71997, Note_off_c, 2, 70, 64
1, 72072, Note_off_c, 3, 62, 64
1, 72076, Note_on_c, 2, 70, 122
1, 72076, Note_on_c, 3, 62, 127
1, 72084, Note_off_c, 2, 67, 64
1, 72159, Note_off_c, 3, 62, 64
1, 72166, Note_on_c, 3, 74, 115
1, 72166, Note_on_c, 3, 62, 127
1, 72174, Note_off_c, 2, 70, 64
1, 72335, Note_off_c, 3, 62, 64
1, 72336, Note_off_c, 3, 74, 64
1, 72340, Note_on_c, 2, 67, 127
1, 72340, Note_on_c, 3, 74, 109
1, 72423, Note_off_c, 3, 74, 64
1, 72429, Note_on_c, 3, 74, 109
1, 72430, Note_on_c, 2, 66, 127
1, 72434, Note_off_c, 2, 67, 64
1, 72474, Note_on_c, 3, 64, 127
1, 72482, Note_off_c, 2, 66, 64
1, 72520, Note_on_c, 2, 66, 127
1, 72526, Note_off_c, 3, 64, 64
1, 72563, Note_on_c, 3, 62, 127
1, 72570, Note_off_c, 2, 66, 64
1, 72601, Note_off_c, 3, 74, 64
1, 72607, Note_on_c, 2, 70, 120
1, 72607, Note_on_c, 3, 79, 106
1, 72658, Note_off_c, 3, 62, 64
1, 72693, Note_off_c, 3, 79, 64
1, 72693, Note_on_c, 3, 78, 104
1, 72694, Note_on_c, 2, 69, 122
1, 72698, Note_off_c, 2, 70, 64
1, 72734, Note_on_c, 3, 76, 107
1, 72742, Note_off_c, 3, 78, 64
1, 72779, Note_on_c, 3, 78, 104
1, 72787, Note_off_c, 3, 76, 64
1, 72825, Note_on_c, 3, 74, 109
1, 72832, Note_off_c, 3, 78, 64
1, 72869, Note_off_c, 2, 69, 64
1, 72869, Note_on_c, 0, 82, 106
1, 72870, Note_on_c, 2, 67, 127
1, 72876, Note_off_c, 3, 74, 64
1, 72960, Note_on_c, 0, 81, 106
1, 72961, Note_on_c, 2, 66, 127
1, 72969, Note_off_c, 0, 82, 64
1, 72969, Note_off_c, 2, 67, 64
1, 73007, Note_on_c, 3, 64, 127
1, 73012, Note_off_c, 2, 66, 64
1, 73049, Note_on_c, 2, 66, 127
1, 73054, Note_off_c, 3, 64, 64
1, 73092, Note_on_c, 3, 62, 127
1, 73112, Note_off_c, 2, 66, 64
1, 73131, Note_off_c, 0, 81, 64
1, 73135, Note_on_c, 0, 81, 106
1, 73136, Note_on_c, 3, 72, 117
1, 73188, Note_off_c, 3, 62, 64
1, 73226, Note_on_c, 2, 70, 122
1, 73226, Note_on_c, 3, 79, 106
1, 73233, Note_off_c, 3, 72, 64
1, 73234, Note_off_c, 0, 81, 64
1, 73269, Note_on_c, 3, 78, 104
1, 73276, Note_off_c, 3, 79, 64
1, 73311, Note_on_c, 3, 79, 106
1, 73319, Note_off_c, 3, 78, 64
1, 73355, Note_on_c, 3, 74, 109
1, 73363, Note_off_c, 3, 79, 64
1, 73395, Note_off_c, 2, 70, 64
1, 73401, Note_on_c, 0, 84, 106
1, 73402, Note_on_c, 2, 69, 124
1, 73446, Note_off_c, 3, 74, 64
1, 73490, Note_on_c, 0, 82, 106
1, 73491, Note_on_c, 2, 67, 127
1, 73497, Note_off_c, 2, 69, 64
1, 73498, Note_off_c, 0, 84, 64
1, 73535, Note_on_c, 3, 74, 109
1, 73581, Note_on_c, 3, 75, 106
1, 73588, Note_off_c, 3, 74, 64
1, 73625, Note_on_c, 3, 74, 109
1, 73632, Note_off_c, 3, 75, 64
1, 73671, Note_off_c, 0, 82, 64
1, 73671, Note_on_c, 3, 75, 106
1, 73678, Note_off_c, 3, 74, 64
1, 73714, Note_on_c, 3, 74, 109
1, 73722, Note_off_c, 3, 75, 64
1, 73760, Note_off_c, 2, 67, 64
1, 73761, Note_on_c, 4, 65, 127
1, 73761, Note_on_c, 0, 81, 106
1, 73768, Note_off_c, 3, 74, 64
1, 73804, Note_on_c, 3, 75, 106
1, 73848, Note_on_c, 3, 76, 107
1, 73856, Note_off_c, 3, 75, 64
1, 73893, Note_on_c, 3, 75, 106
1, 73900, Note_off_c, 3, 76, 64
1, 73937, Note_off_c, 0, 81, 64
1, 73937, Note_on_c, 3, 76, 107
1, 73944, Note_off_c, 3, 75, 64
1, 73980, Note_on_c, 3, 75, 106
1, 73988, Note_off_c, 3, 76, 64
1, 74024, Note_off_c, 4, 65, 64
1, 74025, Note_on_c, 3, 64, 127
1, 74025, Note_on_c, 0, 80, 106
1, 74032, Note_off_c, 3, 75, 64
1, 74072, Note_on_c, 0, 81, 106
1, 74080, Note_off_c, 0, 80, 64
1, 74114, Note_on_c, 0, 83, 106
1, 74122, Note_off_c, 0, 81, 64
1, 74159, Note_on_c, 0, 84, 106
1, 74164, Note_off_c, 0, 83, 64
1, 74201, Note_on_c, 0, 86, 102
1, 74208, Note_off_c, 0, 84, 64
1, 74243, Note_on_c, 0, 84, 102
1, 74251, Note_off_c, 0, 86, 64
1, 74285, Note_on_c, 0, 83, 102
1, 74291, Note_off_c, 0, 84, 64
1, 74326, Note_on_c, 0, 81, 102
1, 74331, Note_off_c, 0, 83, 64
1, 74366, Note_on_c, 3, 79, 102
1, 74374, Note_off_c, 0, 81, 64
1, 74408, Note_on_c, 3, 77, 103
1, 74416, Note_off_c, 3, 79, 64
1, 74450, Note_on_c, 3, 76, 103
1, 74458, Note_off_c, 3, 77, 64
1, 74495, Note_on_c, 3, 74, 105
1, 74502, Note_off_c, 3, 76, 64
1, 74539, Note_off_c, 3, 64, 64
1, 74540, Note_on_c, 4, 57, 127
1, 74540, Note_on_c, 3, 72, 113
1, 74546, Note_off_c, 3, 74, 64
1, 74583, Note_on_c, 3, 64, 127
1, 74629, Note_on_c, 4, 65, 127
1, 74637, Note_off_c, 3, 64, 64
1, 74671, Note_on_c, 3, 64, 127
1, 74679, Note_off_c, 4, 65, 64
1, 74715, Note_on_c, 4, 65, 127
1, 74724, Note_off_c, 3, 64, 64
1, 74760, Note_on_c, 3, 64, 127
1, 74768, Note_off_c, 4, 65, 64
1, 74801, Note_off_c, 3, 72, 64
1, 74805, Note_on_c, 4, 55, 127
1, 74805, Note_on_c, 2, 71, 118
1, 74811, Note_off_c, 3, 64, 64
1, 74812, Note_off_c, 4, 57, 64
1, 74849, Note_on_c, 4, 65, 127
1, 74893, Note_on_c, 2, 66, 127
1, 74901, Note_off_c, 4, 65, 64
1, 74937, Note_on_c, 4, 65, 127
1, 74945, Note_off_c, 2, 66, 64
1, 74983, Note_on_c, 2, 66, 127
1, 74989, Note_off_c, 4, 65, 64
1, 75028, Note_on_c, 4, 65, 127
1, 75035, Note_off_c, 2, 66, 64
1, 75073, Note_on_c, 2, 66, 127
1, 75074, Note_on_c, 4, 54, 127
1, 75081, Note_off_c, 4, 65, 64
1, 75081, Note_off_c, 4, 55, 64
1, 75095, Note_off_c, 2, 71, 64
1, 75118, Note_on_c, 2, 70, 120
1, 75162, Note_on_c, 3, 73, 109
1, 75169, Note_off_c, 2, 70, 64
1, 75206, Note_on_c, 3, 78, 104
1, 75214, Note_off_c, 3, 73, 64
1, 75248, Note_on_c, 0, 82, 106
1, 75254, Note_off_c, 3, 78, 64
1, 75289, Note_on_c, 0, 85, 106
1, 75294, Note_off_c, 0, 82, 64
1, 75329, Note_on_c, 0, 88, 106
1, 75337, Note_off_c, 0, 85, 64
1, 75371, Note_on_c, 0, 85, 106
1, 75377, Note_off_c, 0, 88, 64
1, 75410, Note_on_c, 0, 82, 106
1, 75417, Note_off_c, 0, 85, 64
1, 75451, Note_on_c, 3, 79, 106
1, 75459, Note_off_c, 0, 82, 64
1, 75495, Note_on_c, 3, 78, 104
1, 75503, Note_off_c, 3, 79, 64
1, 75540, Note_on_c, 3, 76, 107
1, 75547, Note_off_c, 3, 78, 64
1, 75588, Note_off_c, 2, 66, 64
1, 75588, Note_off_c, 4, 54, 64
1, 75588, Note_on_c, 3, 74, 109
1, 75594, Note_off_c, 3, 76, 64
1, 75631, Note_on_c, 4, 59, 127
1, 75673, Note_on_c, 3, 62, 127
1, 75714, Note_on_c, 2, 66, 127
1, 75722, Note_off_c, 3, 62, 64
1, 75722, Note_off_c, 4, 59, 64
1, 75752, Note_off_c, 3, 74, 64
1, 75757, Note_on_c, 2, 71, 120
1, 75763, Note_off_c, 2, 66, 64
1, 75800, Note_on_c, 3, 74, 112
1, 75838, Note_off_c, 2, 71, 64
1, 75844, Note_on_c, 2, 71, 120
1, 75844, Note_on_c, 3, 77, 110
1, 75851, Note_off_c, 3, 74, 64
1, 75887, Note_on_c, 4, 55, 127
1, 75931, Note_on_c, 4, 59, 127
1, 75975, Note_on_c, 3, 62, 127
1, 75983, Note_off_c, 4, 59, 64
1, 75984, Note_off_c, 4, 55, 64
1, 76020, Note_on_c, 2, 67, 127
1, 76028, Note_off_c, 3, 62, 64
1, 76063, Note_off_c, 3, 77, 64
1, 76063, Note_off_c, 2, 71, 64
1, 76069, Note_on_c, 3, 77, 110
1, 76070, Note_on_c, 2, 71, 120
1, 76078, Note_off_c, 2, 67, 64
1, 76122, Note_on_c, 3, 78, 107
1, 76123, Note_on_c, 4, 54, 127
1, 76129, Note_off_c, 3, 77, 64
1, 76167, Note_on_c, 3, 73, 112
1, 76175, Note_off_c, 2, 71, 64
1, 76176, Note_off_c, 3, 78, 64
1, 76212, Note_on_c, 3, 78, 107
1, 76213, Note_on_c, 4, 61, 127
1, 76213, Note_on_c, 4, 58, 127
1, 76219, Note_off_c, 3, 73, 64
1, 76256, Note_on_c, 0, 82, 109
1, 76284, Note_off_c, 3, 78, 64
1, 76292, Note_off_c, 4, 58, 64
1, 76293, Note_off_c, 4, 61, 64
1, 76299, Note_on_c, 4, 61, 127
1, 76299, Note_on_c, 0, 85, 106
1, 76300, Note_on_c, 4, 58, 127
1, 76329, Note_off_c, 0, 82, 64
1, 76342, Note_on_c, 0, 82, 109
1, 76371, Note_off_c, 0, 85, 64
1, 76382, Note_off_c, 4, 54, 64
1, 76386, Note_on_c, 0, 86, 106
1, 76387, Note_on_c, 4, 54, 127
1, 76416, Note_off_c, 0, 82, 64
1, 76431, Note_on_c, 0, 83, 109
1, 76460, Note_off_c, 0, 86, 64
1, 76476, Note_off_c, 4, 61, 64
1, 76476, Note_off_c, 4, 58, 64
1, 76476, Note_on_c, 0, 86, 106
1, 76477, Note_on_c, 3, 62, 127
1, 76477, Note_on_c, 4, 59, 127
1, 76506, Note_off_c, 0, 83, 64
1, 76520, Note_on_c, 0, 83, 109
1, 76527, Note_off_c, 0, 86, 64
1, 76560, Note_off_c, 4, 59, 64
1, 76560, Note_off_c, 3, 62, 64
1, 76567, Note_on_c, 0, 80, 109
1, 76567, Note_on_c, 3, 62, 127
1, 76568, Note_on_c, 4, 59, 127
1, 76573, Note_off_c, 0, 83, 64
1, 76610, Note_on_c, 3, 77, 110
1, 76618, Note_off_c, 0, 80, 64
1, 76653, Note_off_c, 4, 54, 64
1, 76657, Note_on_c, 4, 54, 127
1, 76657, Note_on_c, 3, 78, 107
1, 76664, Note_off_c, 3, 77, 64
1, 76702, Note_on_c, 3, 73, 112
1, 76710, Note_off_c, 3, 78, 64
1, 76748, Note_off_c, 4, 59, 64
1, 76749, Note_off_c, 3, 62, 64
1, 76749, Note_on_c, 3, 78, 107
1, 76750, Note_on_c, 4, 61, 127
1, 76750, Note_on_c, 4, 58, 127
1, 76754, Note_off_c, 3, 73, 64
1, 76792, Note_on_c, 0, 82, 109
1, 76823, Note_off_c, 3, 78, 64
1, 76831, Note_off_c, 4, 58, 64
1, 76831, Note_off_c, 4, 61, 64
1, 76837, Note_on_c, 0, 85, 106
1, 76838, Note_on_c, 4, 61, 127
1, 76838, Note_on_c, 4, 58, 127
1, 76867, Note_off_c, 0, 82, 64
1, 76881, Note_on_c, 0, 82, 109
1, 76908, Note_off_c, 0, 85, 64
1, 76919, Note_off_c, 4, 54, 64
1, 76923, Note_on_c, 4, 54, 127
1, 76923, Note_on_c, 0, 86, 106
1, 76951, Note_off_c, 0, 82, 64
1, 76966, Note_on_c, 0, 83, 109
1, 76995, Note_off_c, 0, 86, 64
1, 77008, Note_off_c, 4, 58, 64
1, 77009, Note_off_c, 4, 61, 64
1, 77009, Note_on_c, 0, 86, 106
1, 77010, Note_on_c, 4, 59, 127
1, 77010, Note_on_c, 3, 62, 127
1, 77037, Note_off_c, 0, 83, 64
1, 77052, Note_on_c, 0, 83, 109
1, 77060, Note_off_c, 0, 86, 64
1, 77091, Note_off_c, 3, 62, 64
1, 77091, Note_off_c, 4, 59, 64
1, 77098, Note_on_c, 0, 80, 109
1, 77098, Note_on_c, 3, 62, 127
1, 77099, Note_on_c, 4, 59, 127
1, 77104, Note_off_c, 0, 83, 64
1, 77141, Note_on_c, 3, 77, 110
1, 77148, Note_off_c, 0, 80, 64
1, 77179, Note_off_c, 4, 59, 64
1, 77180, Note_off_c, 3, 62, 64
1, 77184, Note_off_c, 4, 54, 64
1, 77188, Note_on_c, 4, 61, 127
1, 77188, Note_on_c, 3, 78, 107
1, 77189, Note_on_c, 4, 58, 127
1, 77189, Note_on_c, 4, 54, 127
1, 77194, Note_off_c, 3, 77, 64
1, 77276, Note_on_c, 3, 73, 116
1, 77364, Note_off_c, 3, 78, 64
1, 77365, Note_on_c, 0, 82, 113
1, 77452, Note_off_c, 3, 73, 64
1, 77452, Note_on_c, 3, 78, 111
1, 77460, Note_off_c, 0, 82, 64
1, 77538, Note_on_c, 3, 73, 116
1, 77629, Note_off_c, 3, 78, 64
1, 77630, Note_on_c, 0, 82, 113
1, 77725, Note_off_c, 3, 73, 64
1, 77725, Note_off_c, 4, 54, 64
1, 77726, Note_off_c, 4, 61, 64
1, 77726, Note_off_c, 4, 58, 64
1, 77726, Note_on_c, 3, 78, 111
1, 77727, Note_on_c, 2, 66, 126
1, 77732, Note_off_c, 0, 82, 64
1, 77816, Note_on_c, 4, 61, 126
1, 77904, Note_off_c, 2, 66, 64
1, 77905, Note_on_c, 2, 70, 112
1, 77992, Note_off_c, 4, 61, 64
1, 77992, Note_on_c, 2, 66, 126
1, 78000, Note_off_c, 2, 70, 64
1, 78079, Note_on_c, 4, 61, 126
1, 78166, Note_off_c, 2, 66, 64
1, 78166, Note_on_c, 2, 70, 112
1, 78245, Note_off_c, 3, 78, 64
1, 78251, Note_off_c, 4, 61, 64
1, 78252, Note_on_c, 2, 66, 126
1, 78252, Note_on_c, 3, 78, 108
1, 78258, Note_off_c, 2, 70, 64
1, 78344, Note_on_c, 3, 73, 113
1, 78434, Note_off_c, 3, 78, 64
1, 78435, Note_on_c, 0, 81, 110
1, 78522, Note_off_c, 3, 73, 64
1, 78522, Note_on_c, 3, 78, 108
1, 78528, Note_off_c, 0, 81, 64
1, 78607, Note_on_c, 3, 73, 113
1, 78692, Note_off_c, 3, 78, 64
1, 78692, Note_on_c, 0, 81, 110
1, 78771, Note_off_c, 2, 66, 64
1, 78779, Note_off_c, 3, 73, 64
1, 78780, Note_on_c, 2, 71, 118
1, 78780, Note_on_c, 0, 80, 110
1, 78780, Note_on_c, 2, 66, 127
1, 78787, Note_off_c, 0, 81, 64
1, 78869, Note_on_c, 3, 73, 113
1, 78960, Note_off_c, 0, 80, 64
1, 78960, Note_on_c, 0, 83, 110
1, 79047, Note_off_c, 3, 73, 64
1, 79047, Note_on_c, 0, 80, 110
1, 79048, Note_off_c, 2, 66, 64
1, 79048, Note_on_c, 4, 65, 127
1, 79055, Note_off_c, 0, 83, 64
1, 79133, Note_on_c, 3, 73, 113
1, 79222, Note_off_c, 0, 80, 64
1, 79222, Note_on_c, 0, 83, 114
1, 79311, Note_off_c, 3, 73, 64
1, 79311, Note_off_c, 4, 65, 64
1, 79312, Note_on_c, 2, 67, 127
1, 79312, Note_on_c, 0, 82, 114
1, 79313, Note_off_c, 2, 71, 64
1, 79313, Note_on_c, 3, 64, 127
1, 79318, Note_off_c, 0, 83, 64
1, 79400, Note_on_c, 3, 73, 116
1, 79487, Note_off_c, 0, 82, 64
1, 79487, Note_on_c, 0, 85, 117
1, 79574, Note_off_c, 3, 73, 64
1, 79574, Note_off_c, 2, 67, 64
1, 79575, Note_on_c, 2, 66, 127
1, 79575, Note_on_c, 0, 82, 117
1, 79580, Note_off_c, 0, 85, 64
1, 79656, Note_on_c, 3, 73, 116
1, 79740, Note_off_c, 0, 82, 64
1, 79740, Note_on_c, 0, 85, 117
1, 79824, Note_off_c, 3, 73, 64
1, 79824, Note_off_c, 2, 66, 64
1, 79824, Note_off_c, 3, 64, 64
1, 79825, Note_on_c, 0, 83, 123
1, 79825, Note_on_c, 4, 59, 127
1, 79832, Note_off_c, 0, 85, 64
1, 79913, Note_on_c, 4, 54, 127
1, 80001, Note_off_c, 4, 59, 64
1, 80002, Note_on_c, 3, 62, 127
1, 80085, Note_off_c, 4, 54, 64
1, 80085, Note_on_c, 4, 59, 127
1, 80093, Note_off_c, 3, 62, 64
1, 80174, Note_on_c, 4, 54, 127
1, 80263, Note_off_c, 4, 59, 64
1, 80263, Note_on_c, 3, 62, 127
1, 80348, Note_off_c, 0, 83, 64
1, 80356, Note_off_c, 4, 54, 64
1, 80356, Note_on_c, 0, 83, 123
1, 80357, Note_on_c, 3, 76, 121
1, 80357, Note_on_c, 4, 61, 127
1, 80364, Note_off_c, 3, 62, 64
1, 80444, Note_on_c, 4, 54, 127
1, 80531, Note_off_c, 4, 61, 64
1, 80531, Note_on_c, 3, 64, 127
1, 80616, Note_off_c, 4, 54, 64
1, 80616, Note_off_c, 0, 83, 64
1, 80617, Note_on_c, 4, 61, 127
1, 80617, Note_on_c, 0, 82, 123
1, 80624, Note_off_c, 3, 64, 64
1, 80700, Note_on_c, 4, 54, 127
1, 80783, Note_off_c, 4, 61, 64
1, 80784, Note_on_c, 3, 64, 127
1, 80863, Note_off_c, 3, 76, 64
1, 80869, Note_off_c, 4, 54, 64
1, 80869, Note_off_c, 0, 82, 64
1, 80869, Note_on_c, 0, 81, 123
1, 80870, Note_on_c, 3, 72, 120
1, 80870, Note_on_c, 3, 63, 127
1, 80877, Note_off_c, 3, 64, 64
1, 80954, Note_on_c, 4, 54, 127
1, 81036, Note_off_c, 3, 63, 64
1, 81037, Note_on_c, 2, 66, 127
1, 81124, Note_off_c, 4, 54, 64
1, 81124, Note_off_c, 3, 72, 64
1, 81125, Note_on_c, 2, 71, 120
1, 81125, Note_on_c, 3, 63, 127
1, 81132, Note_off_c, 2, 66, 64
1, 81205, Note_on_c, 4, 54, 127
1, 81294, Note_off_c, 3, 63, 64
1, 81294, Note_on_c, 2, 66, 127
1, 81375, Note_off_c, 0, 81, 64
1, 81376, Note_off_c, 2, 66, 64
1, 81382, Note_off_c, 4, 54, 64
1, 81383, Note_off_c, 2, 71, 64
1, 81383, Note_on_c, 3, 76, 110
1, 81384, Note_on_c, 3, 64, 127
1, 81470, Note_on_c, 2, 71, 120
1, 81557, Note_off_c, 3, 76, 64
1, 81557, Note_on_c, 3, 79, 109
1, 81636, Note_off_c, 2, 71, 64
1, 81637, Note_on_c, 3, 76, 110
1, 81643, Note_off_c, 3, 79, 64
1, 81720, Note_on_c, 2, 71, 120
1, 81808, Note_off_c, 3, 76, 64
1, 81809, Note_on_c, 3, 79, 109
1, 81883, Note_off_c, 3, 64, 64
1, 81891, Note_off_c, 2, 71, 64
1, 81891, Note_on_c, 3, 78, 104
1, 81892, Note_on_c, 4, 59, 127
1, 81892, Note_on_c, 3, 64, 127
1, 81897, Note_off_c, 3, 79, 64
1, 81976, Note_on_c, 2, 71, 118
1, 82061, Note_off_c, 3, 78, 64
1, 82061, Note_on_c, 0, 81, 106
1, 82148, Note_off_c, 2, 71, 64
1, 82149, Note_off_c, 3, 64, 64
1, 82149, Note_on_c, 3, 78, 104
1, 82150, Note_on_c, 3, 63, 127
1, 82154, Note_off_c, 0, 81, 64
1, 82231, Note_on_c, 2, 71, 118
1, 82317, Note_off_c, 3, 78, 64
1, 82318, Note_on_c, 0, 81, 106
1, 82397, Note_off_c, 4, 59, 64
1, 82405, Note_off_c, 3, 63, 64
1, 82405, Note_off_c, 2, 71, 64
1, 82405, Note_on_c, 0, 80, 106
1, 82406, Note_on_c, 3, 62, 127
1, 82406, Note_on_c, 4, 53, 127
1, 82410, Note_off_c, 0, 81, 64
1, 82491, Note_on_c, 2, 71, 118
1, 82574, Note_off_c, 0, 80, 64
1, 82574, Note_on_c, 0, 83, 106
1, 82657, Note_off_c, 2, 71, 64
1, 82658, Note_off_c, 4, 53, 64
1, 82658, Note_on_c, 0, 80, 106
1, 82659, Note_on_c, 4, 52, 127
1, 82665, Note_off_c, 0, 83, 64
1, 82744, Note_on_c, 2, 71, 118
1, 82826, Note_off_c, 0, 80, 64
1, 82827, Note_on_c, 0, 83, 106
1, 82900, Note_off_c, 3, 62, 64
1, 82908, Note_off_c, 2, 71, 64
1, 82908, Note_off_c, 4, 52, 64
1, 82909, Note_on_c, 0, 81, 120
1, 82909, Note_on_c, 4, 61, 127
1, 82916, Note_off_c, 0, 83, 64
1, 82994, Note_on_c, 4, 57, 127
1, 83081, Note_off_c, 4, 61, 64
1, 83081, Note_on_c, 3, 64, 127
1, 83164, Note_on_c, 4, 61, 127
1, 83170, Note_off_c, 3, 64, 64
1, 83245, Note_off_c, 4, 57, 64
1, 83251, Note_on_c, 4, 57, 127
1, 83335, Note_off_c, 4, 61, 64
1, 83336, Note_on_c, 3, 64, 127
1, 83413, Note_off_c, 0, 81, 64
1, 83421, Note_on_c, 0, 81, 111
1, 83421, Note_on_c, 2, 70, 120
1, 83422, Note_on_c, 3, 62, 127
1, 83427, Note_off_c, 3, 64, 64
1, 83500, Note_off_c, 4, 57, 64
1, 83508, Note_on_c, 4, 57, 127
1, 83592, Note_off_c, 3, 62, 64
1, 83593, Note_on_c, 4, 65, 127
1, 83676, Note_off_c, 2, 70, 64
1, 83676, Note_on_c, 2, 71, 118
1, 83677, Note_on_c, 3, 63, 127
1, 83717, Note_off_c, 4, 65, 64
1, 83752, Note_off_c, 4, 57, 64
1, 83760, Note_on_c, 4, 57, 127
1, 83842, Note_off_c, 3, 63, 64
1, 83843, Note_on_c, 2, 66, 127
1, 83918, Note_off_c, 0, 81, 64
1, 83926, Note_off_c, 2, 71, 64
1, 83926, Note_on_c, 0, 81, 111
1, 83927, Note_on_c, 3, 72, 117
1, 83927, Note_on_c, 3, 64, 127
1, 83970, Note_off_c, 2, 66, 64
1, 84007, Note_off_c, 4, 57, 64
1, 84013, Note_on_c, 4, 57, 127
1, 84096, Note_off_c, 3, 64, 64
1, 84096, Note_on_c, 2, 67, 127
1, 84181, Note_off_c, 3, 72, 64
1, 84181, Note_on_c, 3, 73, 109
1, 84182, Note_on_c, 3, 64, 127
1, 84222, Note_off_c, 2, 67, 64
1, 84259, Note_off_c, 4, 57, 64
1, 84266, Note_on_c, 4, 57, 127
1, 84349, Note_off_c, 3, 64, 64
1, 84350, Note_on_c, 2, 67, 127
1, 84425, Note_off_c, 0, 81, 64
1, 84431, Note_off_c, 3, 73, 64
1, 84431, Note_on_c, 0, 81, 111
1, 84432, Note_on_c, 3, 74, 109
1, 84432, Note_on_c, 2, 66, 127
1, 84438, Note_off_c, 2, 67, 64
1, 84509, Note_off_c, 4, 57, 64
1, 84517, Note_on_c, 4, 57, 127
1, 84600, Note_off_c, 2, 66, 64
1, 84600, Note_on_c, 2, 69, 122
1, 84684, Note_off_c, 3, 74, 64
1, 84684, Note_on_c, 4, 65, 127
1, 84684, Note_on_c, 3, 75, 106
1, 84720, Note_off_c, 2, 69, 64
1, 84762, Note_off_c, 4, 57, 64
1, 84769, Note_on_c, 4, 57, 127
1, 84851, Note_off_c, 4, 65, 64
1, 84851, Note_on_c, 2, 69, 122
1, 84924, Note_off_c, 0, 81, 64
1, 84930, Note_off_c, 3, 75, 64
1, 84931, Note_on_c, 0, 81, 111
1, 84931, Note_on_c, 3, 76, 107
1, 84932, Note_on_c, 3, 64, 127
1, 85007, Note_off_c, 4, 57, 64
1, 85015, Note_off_c, 2, 69, 64
1, 85015, Note_on_c, 4, 57, 127
1, 85101, Note_off_c, 3, 64, 64
1, 85101, Note_on_c, 2, 69, 122
1, 85181, Note_off_c, 3, 76, 64
1, 85181, Note_on_c, 3, 78, 112
1, 85182, Note_on_c, 3, 62, 127
1, 85260, Note_off_c, 4, 57, 64
1, 85268, Note_off_c, 2, 69, 64
1, 85269, Note_on_c, 4, 57, 127
1, 85352, Note_off_c, 3, 62, 64
1, 85352, Note_on_c, 2, 69, 122
1, 85431, Note_off_c, 0, 81, 64
1, 85434, Note_off_c, 4, 57, 64
1, 85438, Note_off_c, 3, 78, 64
1, 85439, Note_on_c, 4, 61, 127
1, 85439, Note_on_c, 3, 79, 106
1, 85440, Note_on_c, 4, 57, 127
1, 85480, Note_on_c, 0, 81, 106
1, 85488, Note_off_c, 3, 79, 64
1, 85496, Note_off_c, 2, 69, 64
1, 85523, Note_on_c, 0, 83, 106
1, 85528, Note_off_c, 0, 81, 64
1, 85565, Note_on_c, 0, 81, 106
1, 85572, Note_off_c, 0, 83, 64
1, 85605, Note_on_c, 3, 79, 106
1, 85613, Note_off_c, 0, 81, 64
1, 85647, Note_on_c, 3, 78, 104
1, 85655, Note_off_c, 3, 79, 64
1, 85690, Note_on_c, 3, 76, 107
1, 85695, Note_off_c, 3, 78, 64
1, 85730, Note_on_c, 3, 78, 104
1, 85736, Note_off_c, 3, 76, 64
1, 85768, Note_on_c, 3, 79, 106
1, 85776, Note_off_c, 3, 78, 64
1, 85809, Note_on_c, 3, 78, 104
1, 85816, Note_off_c, 3, 79, 64
1, 85849, Note_on_c, 3, 76, 107
1, 85855, Note_off_c, 3, 78, 64
1, 85889, Note_on_c, 3, 74, 109
1, 85897, Note_off_c, 3, 76, 64
1, 85932, Note_on_c, 3, 73, 109
1, 85938, Note_off_c, 3, 74, 64
1, 85975, Note_on_c, 3, 74, 109
1, 85980, Note_off_c, 3, 73, 64
1, 86015, Note_on_c, 3, 76, 107
1, 86023, Note_off_c, 3, 74, 64
1, 86058, Note_on_c, 3, 74, 109
1, 86064, Note_off_c, 3, 76, 64
1, 86098, Note_on_c, 3, 73, 109
1, 86105, Note_off_c, 3, 74, 64
1, 86139, Note_on_c, 3, 71, 118
1, 86147, Note_off_c, 3, 73, 64
1, 86181, Note_on_c, 3, 69, 122
1, 86189, Note_off_c, 3, 71, 64
1, 86223, Note_on_c, 3, 71, 118
1, 86230, Note_off_c, 3, 69, 64
1, 86267, Note_on_c, 3, 69, 122
1, 86275, Note_off_c, 3, 71, 64
1, 86306, Note_on_c, 3, 67, 127
1, 86314, Note_off_c, 3, 69, 64
1, 86346, Note_on_c, 3, 66, 127
1, 86347, Note_on_c, 4, 45, 127
1, 86355, Note_off_c, 3, 67, 64
1, 86389, Note_on_c, 3, 64, 127
1, 86397, Note_off_c, 3, 66, 64
1, 86436, Note_off_c, 4, 57, 64
1, 86436, Note_off_c, 4, 61, 64
1, 86436, Note_on_c, 3, 62, 127
1, 86437, Note_on_c, 4, 50, 127
1, 86443, Note_off_c, 4, 45, 64
1, 86444, Note_off_c, 3, 64, 64
1, 86527, Note_on_c, 4, 57, 127
1, 86527, Note_on_c, 4, 45, 127
1, 86535, Note_off_c, 4, 50, 64
1, 86536, Note_off_c, 3, 62, 64
1, 86617, Note_on_c, 4, 50, 127
1, 86617, Note_on_c, 3, 62, 127
1, 86624, Note_off_c, 4, 45, 64
1, 86624, Note_off_c, 4, 57, 64
1, 86707, Note_on_c, 2, 66, 127
1, 86708, Note_on_c, 4, 54, 127
1, 86714, Note_off_c, 3, 62, 64
1, 86714, Note_off_c, 4, 50, 64
1, 86790, Note_on_c, 4, 50, 127
1, 86790, Note_on_c, 3, 62, 127
1, 86798, Note_off_c, 4, 54, 64
1, 86799, Note_off_c, 2, 66, 64
1, 86876, Note_on_c, 2, 66, 127
1, 86877, Note_on_c, 4, 54, 127
1, 86883, Note_off_c, 3, 62, 64
1, 86883, Note_off_c, 4, 50, 64
1, 86961, Note_off_c, 2, 66, 64
1, 86963, Note_on_c, 2, 69, 122
1, 86964, Note_on_c, 4, 57, 127
1, 86971, Note_off_c, 4, 54, 64
1, 87138, Note_off_c, 4, 57, 64
1, 87139, Note_off_c, 2, 69, 64
1, 87143, Note_on_c, 2, 69, 122
1, 87144, Note_on_c, 4, 57, 127
1, 87227, Note_off_c, 4, 57, 64
1, 87228, Note_off_c, 2, 69, 64
1, 87233, Note_on_c, 2, 69, 122
1, 87234, Note_on_c, 4, 57, 127
1, 87409, Note_off_c, 2, 69, 64
1, 87415, Note_on_c, 3, 74, 109
1, 87416, Note_on_c, 2, 69, 122
1, 87416, Note_on_c, 2, 67, 127
1, 87441, Note_on_c, 3, 73, 109
1, 87451, Note_off_c, 3, 74, 64
1, 87468, Note_on_c, 2, 71, 118
1, 87476, Note_off_c, 3, 73, 64
1, 87491, Note_on_c, 3, 73, 109
1, 87500, Note_off_c, 2, 71, 64
1, 87507, Note_off_c, 2, 67, 64
1, 87507, Note_off_c, 2, 69, 64
1, 87514, Note_on_c, 3, 74, 109
1, 87515, Note_on_c, 2, 69, 122
1, 87515, Note_on_c, 2, 66, 127
1, 87522, Note_off_c, 3, 73, 64
1, 87686, Note_off_c, 2, 69, 64
1, 87691, Note_off_c, 2, 66, 64
1, 87691, Note_off_c, 4, 57, 64
1, 87692, Note_off_c, 3, 74, 64
1, 87692, Note_on_c, 2, 69, 122
1, 87692, Note_on_c, 3, 78, 111
1, 87693, Note_on_c, 4, 61, 127
1, 87716, Note_on_c, 3, 76, 110
1, 87724, Note_off_c, 3, 78, 64
1, 87742, Note_on_c, 3, 74, 109
1, 87749, Note_off_c, 3, 76, 64
1, 87767, Note_on_c, 3, 76, 110
1, 87774, Note_off_c, 3, 74, 64
1, 87782, Note_off_c, 4, 61, 64
1, 87782, Note_off_c, 2, 69, 64
1, 87788, Note_on_c, 3, 78, 111
1, 87789, Note_on_c, 2, 69, 122
1, 87790, Note_on_c, 3, 62, 127
1, 87795, Note_off_c, 3, 76, 64
1, 87963, Note_off_c, 3, 62, 64
1, 87964, Note_off_c, 2, 69, 64
1, 87968, Note_off_c, 3, 78, 64
1, 87969, Note_on_c, 0, 81, 113
1, 87969, Note_on_c, 3, 64, 127
1, 87970, Note_on_c, 4, 55, 127
1, 88014, Note_on_c, 3, 79, 113
1, 88024, Note_off_c, 0, 81, 64
1, 88066, Note_on_c, 3, 78, 111
1, 88067, Note_on_c, 4, 57, 127
1, 88067, Note_on_c, 3, 62, 127
1, 88074, Note_off_c, 4, 55, 64
1, 88074, Note_off_c, 3, 64, 64
1, 88075, Note_off_c, 3, 79, 64
1, 88322, Note_off_c, 3, 62, 64
1, 88323, Note_off_c, 3, 78, 64
1, 88323, Note_on_c, 3, 76, 113
1, 88324, Note_on_c, 4, 61, 127
1, 88503, Note_off_c, 4, 61, 64
1, 88503, Note_off_c, 4, 57, 64
1, 88504, Note_on_c, 4, 59, 127
1, 88504, Note_on_c, 4, 47, 124
1, 88591, Note_on_c, 3, 64, 127
1, 88592, Note_on_c, 4, 52, 126
1, 88598, Note_off_c, 4, 47, 64
1, 88598, Note_off_c, 4, 59, 64
1, 88680, Note_off_c, 3, 76, 64
1, 88680, Note_on_c, 4, 59, 127
1, 88680, Note_on_c, 4, 47, 124
1, 88686, Note_off_c, 4, 52, 64
1, 88687, Note_off_c, 3, 64, 64
1, 88764, Note_on_c, 4, 52, 126
1, 88764, Note_on_c, 3, 64, 127
1, 88771, Note_off_c, 4, 47, 64
1, 88771, Note_off_c, 4, 59, 64
1, 88850, Note_on_c, 2, 67, 127
1, 88851, Note_on_c, 4, 55, 127
1, 88860, Note_off_c, 3, 64, 64
1, 88860, Note_off_c, 4, 52, 64
1, 88937, Note_on_c, 3, 64, 127
1, 88937, Note_on_c, 4, 52, 126
1, 88944, Note_off_c, 4, 55, 64
1, 88944, Note_off_c, 2, 67, 64
1, 89023, Note_on_c, 2, 67, 127
1, 89024, Note_on_c, 4, 55, 127
1, 89030, Note_off_c, 4, 52, 64
1, 89031, Note_off_c, 3, 64, 64
1, 89112, Note_off_c, 2, 67, 64
1, 89112, Note_on_c, 4, 59, 127
1, 89112, Note_on_c, 2, 71, 120
1, 89120, Note_off_c, 4, 55, 64
1, 89282, Note_off_c, 2, 71, 64
1, 89282, Note_off_c, 4, 59, 64
1, 89287, Note_on_c, 2, 71, 120
1, 89287, Note_on_c, 4, 59, 127
1, 89368, Note_off_c, 4, 59, 64
1, 89368, Note_off_c, 2, 71, 64
1, 89375, Note_on_c, 4, 59, 127
1, 89375, Note_on_c, 2, 71, 120
1, 89548, Note_off_c, 2, 71, 64
1, 89552, Note_on_c, 3, 75, 109
1, 89553, Note_on_c, 2, 69, 124
1, 89553, Note_on_c, 2, 66, 127
1, 89598, Note_off_c, 4, 59, 64
1, 89643, Note_on_c, 2, 71, 120
1, 89643, Note_on_c, 2, 67, 127
1, 89643, Note_on_c, 3, 78, 107
1, 89652, Note_off_c, 2, 66, 64
1, 89652, Note_off_c, 2, 69, 64
1, 89652, Note_off_c, 3, 75, 64
1, 89688, Note_on_c, 3, 76, 110
1, 89696, Note_off_c, 3, 78, 64
1, 89735, Note_on_c, 3, 79, 109
1, 89743, Note_off_c, 3, 76, 64
1, 89779, Note_on_c, 3, 78, 107
1, 89787, Note_off_c, 3, 79, 64
1, 89825, Note_on_c, 0, 81, 109
1, 89833, Note_off_c, 3, 78, 64
1, 89871, Note_on_c, 3, 79, 106
1, 89879, Note_off_c, 0, 81, 64
1, 89916, Note_on_c, 0, 83, 106
1, 89923, Note_off_c, 3, 79, 64
1, 90092, Note_off_c, 0, 83, 64
1, 90098, Note_off_c, 2, 67, 64
1, 90098, Note_off_c, 2, 71, 64
1, 90099, Note_on_c, 3, 73, 109
1, 90099, Note_on_c, 3, 64, 127
1, 90100, Note_on_c, 4, 57, 127
1, 90195, Note_on_c, 3, 76, 107
1, 90195, Note_on_c, 2, 67, 127
1, 90196, Note_on_c, 3, 62, 127
1, 90202, Note_off_c, 4, 57, 64
1, 90202, Note_off_c, 3, 64, 64
1, 90203, Note_off_c, 3, 73, 64
1, 90443, Note_off_c, 2, 67, 64
1, 90443, Note_off_c, 3, 76, 64
1, 90451, Note_on_c, 3, 74, 109
1, 90452, Note_on_c, 2, 66, 127
1, 90633, Note_off_c, 3, 62, 64
1, 90633, Note_on_c, 4, 45, 127
1, 90716, Note_off_c, 2, 66, 64
1, 90717, Note_off_c, 3, 74, 64
1, 90725, Note_on_c, 4, 50, 127
1, 90732, Note_off_c, 4, 45, 64
1, 90813, Note_on_c, 3, 74, 115
1, 90814, Note_on_c, 4, 45, 127
1, 90822, Note_off_c, 4, 50, 64
1, 90902, Note_on_c, 3, 78, 110
1, 90903, Note_on_c, 4, 50, 127
1, 90909, Note_off_c, 4, 45, 64
1, 90910, Note_off_c, 3, 74, 64
1, 90991, Note_on_c, 0, 81, 112
1, 90991, Note_on_c, 4, 54, 126
1, 90997, Note_off_c, 4, 50, 64
1, 90998, Note_off_c, 3, 78, 64
1, 91075, Note_on_c, 3, 78, 110
1, 91076, Note_on_c, 4, 50, 127
1, 91082, Note_off_c, 4, 54, 64
1, 91082, Note_off_c, 0, 81, 64
1, 91160, Note_on_c, 4, 54, 122
1, 91160, Note_on_c, 0, 86, 112
1, 91166, Note_off_c, 4, 50, 64
1, 91167, Note_off_c, 3, 78, 64
1, 91238, Note_off_c, 4, 54, 64
1, 91242, Note_on_c, 4, 57, 126
1, 91250, Note_off_c, 0, 86, 64
1, 91288, Note_on_c, 0, 85, 112
1, 91329, Note_on_c, 0, 88, 109
1, 91336, Note_off_c, 0, 85, 64
1, 91373, Note_on_c, 0, 86, 112
1, 91379, Note_off_c, 0, 88, 64
1, 91409, Note_off_c, 4, 57, 64
1, 91413, Note_on_c, 0, 85, 112
1, 91414, Note_on_c, 4, 57, 127
1, 91420, Note_off_c, 0, 86, 64
1, 91456, Note_on_c, 0, 83, 112
1, 91464, Note_off_c, 0, 85, 64
1, 91493, Note_off_c, 4, 57, 64
1, 91500, Note_on_c, 0, 81, 115
1, 91501, Note_on_c, 4, 57, 127
1, 91507, Note_off_c, 0, 83, 64
1, 91544, Note_on_c, 0, 83, 112
1, 91550, Note_off_c, 0, 81, 64
1, 91587, Note_on_c, 0, 81, 115
1, 91595, Note_off_c, 0, 83, 64
1, 91629, Note_on_c, 3, 79, 115
1, 91637, Note_off_c, 0, 81, 64
1, 91673, Note_on_c, 3, 78, 113
1, 91674, Note_on_c, 2, 67, 127
1, 91680, Note_off_c, 3, 79, 64
1, 91720, Note_on_c, 3, 76, 116
1, 91726, Note_off_c, 3, 78, 64
1, 91765, Note_on_c, 3, 74, 118
1, 91772, Note_off_c, 3, 76, 64
1, 91801, Note_off_c, 2, 67, 64
1, 91809, Note_on_c, 2, 66, 127
1, 91851, Note_on_c, 2, 69, 124
1, 91857, Note_off_c, 2, 66, 64
1, 91894, Note_on_c, 2, 67, 127
1, 91901, Note_off_c, 2, 69, 64
1, 91932, Note_off_c, 3, 74, 64
1, 91936, Note_on_c, 2, 66, 127
1, 91936, Note_on_c, 3, 74, 118
1, 91943, Note_off_c, 2, 67, 64
1, 91979, Note_on_c, 3, 64, 127
1, 91987, Note_off_c, 2, 66, 64
1, 92017, Note_off_c, 3, 74, 64
1, 92023, Note_on_c, 3, 74, 118
1, 92024, Note_on_c, 3, 62, 127
1, 92030, Note_off_c, 3, 64, 64
1, 92064, Note_on_c, 3, 64, 127
1, 92072, Note_off_c, 3, 62, 64
1, 92109, Note_on_c, 3, 62, 127
1, 92116, Note_off_c, 3, 64, 64
1, 92153, Note_off_c, 4, 57, 64
1, 92153, Note_on_c, 4, 60, 127
1, 92161, Note_off_c, 3, 62, 64
1, 92192, Note_off_c, 3, 74, 64
1, 92196, Note_on_c, 3, 62, 127
1, 92196, Note_on_c, 4, 59, 127
1, 92205, Note_off_c, 4, 60, 64
1, 92241, Note_on_c, 4, 57, 127
1, 92246, Note_off_c, 4, 59, 64
1, 92287, Note_on_c, 2, 67, 127
1, 92288, Note_on_c, 4, 55, 127
1, 92294, Note_off_c, 4, 57, 64
1, 92294, Note_off_c, 3, 62, 64
1, 92377, Note_on_c, 3, 62, 127
1, 92378, Note_on_c, 4, 43, 127
1, 92384, Note_off_c, 2, 67, 64
1, 92436, Note_off_c, 4, 55, 64
1, 92467, Note_on_c, 2, 67, 127
1, 92467, Note_on_c, 4, 47, 127
1, 92473, Note_off_c, 4, 43, 64
1, 92474, Note_off_c, 3, 62, 64
1, 92553, Note_on_c, 2, 71, 120
1, 92554, Note_on_c, 4, 50, 127
1, 92560, Note_off_c, 4, 47, 64
1, 92560, Note_off_c, 2, 67, 64
1, 92640, Note_on_c, 2, 67, 127
1, 92640, Note_on_c, 4, 47, 127
1, 92648, Note_off_c, 4, 50, 64
1, 92649, Note_off_c, 2, 71, 64
1, 92732, Note_on_c, 2, 71, 120
1, 92732, Note_on_c, 4, 55, 127
1, 92738, Note_off_c, 4, 47, 64
1, 92739, Note_off_c, 2, 67, 64
1, 92818, Note_on_c, 3, 74, 120
1, 92826, Note_off_c, 2, 71, 64
1, 92856, Note_off_c, 4, 55, 64
1, 92862, Note_on_c, 4, 54, 127
1, 92904, Note_on_c, 4, 57, 127
1, 92910, Note_off_c, 4, 54, 64
1, 92947, Note_on_c, 4, 55, 127
1, 92954, Note_off_c, 4, 57, 64
1, 92983, Note_off_c, 3, 74, 64
1, 92987, Note_on_c, 3, 74, 120
1, 92988, Note_on_c, 4, 54, 127
1, 92994, Note_off_c, 4, 55, 64
1, 93028, Note_on_c, 4, 52, 127
1, 93036, Note_off_c, 4, 54, 64
1, 93065, Note_off_c, 3, 74, 64
1, 93072, Note_on_c, 3, 74, 120
1, 93073, Note_on_c, 4, 50, 127
1, 93079, Note_off_c, 4, 52, 64
1, 93113, Note_on_c, 4, 52, 127
1, 93120, Note_off_c, 4, 50, 64
1, 93155, Note_on_c, 4, 50, 127
1, 93163, Note_off_c, 4, 52, 64
1, 93195, Note_on_c, 4, 48, 127
1, 93201, Note_off_c, 4, 50, 64
1, 93232, Note_off_c, 3, 74, 64
1, 93236, Note_on_c, 3, 72, 120
1, 93236, Note_on_c, 4, 47, 127
1, 93242, Note_off_c, 4, 48, 64
1, 93279, Note_on_c, 4, 45, 127
1, 93287, Note_off_c, 4, 47, 64
1, 93323, Note_on_c, 4, 43, 127
1, 93331, Note_off_c, 4, 45, 64
1, 93365, Note_off_c, 3, 72, 64
1, 93367, Note_on_c, 2, 71, 120
1, 93409, Note_on_c, 3, 74, 120
1, 93417, Note_off_c, 2, 71, 64
1, 93454, Note_on_c, 3, 72, 120
1, 93459, Note_off_c, 3, 74, 64
1, 93496, Note_on_c, 4, 60, 127
1, 93496, Note_on_c, 2, 71, 120
1, 93504, Note_off_c, 3, 72, 64
1, 93539, Note_on_c, 2, 69, 124
1, 93545, Note_off_c, 2, 71, 64
1, 93583, Note_on_c, 2, 67, 127
1, 93589, Note_off_c, 2, 69, 64
1, 93618, Note_off_c, 4, 60, 64
1, 93625, Note_on_c, 4, 59, 127
1, 93634, Note_off_c, 2, 67, 64
1, 93667, Note_on_c, 3, 62, 127
1, 93674, Note_off_c, 4, 59, 64
1, 93713, Note_on_c, 4, 60, 127
1, 93720, Note_off_c, 3, 62, 64
1, 93755, Note_on_c, 0, 84, 120
1, 93756, Note_on_c, 4, 59, 127
1, 93762, Note_off_c, 4, 60, 64
1, 93800, Note_on_c, 4, 57, 127
1, 93808, Note_off_c, 4, 59, 64
1, 93844, Note_on_c, 4, 55, 127
1, 93852, Note_off_c, 4, 57, 64
1, 93881, Note_off_c, 0, 84, 64
1, 93888, Note_on_c, 0, 83, 120
1, 93931, Note_on_c, 0, 86, 120
1, 93938, Note_off_c, 0, 83, 64
1, 93975, Note_on_c, 0, 84, 120
1, 93983, Note_off_c, 0, 86, 64
1, 94017, Note_on_c, 0, 83, 120
1, 94018, Note_on_c, 3, 72, 120
1, 94024, Note_off_c, 0, 84, 64
1, 94062, Note_on_c, 0, 81, 120
1, 94070, Note_off_c, 0, 83, 64
1, 94107, Note_on_c, 0, 80, 120
1, 94114, Note_off_c, 0, 81, 64
1, 94143, Note_off_c, 3, 72, 64
1, 94151, Note_on_c, 2, 71, 120
1, 94195, Note_on_c, 3, 76, 118
1, 94202, Note_off_c, 0, 80, 64
1, 94239, Note_on_c, 3, 74, 120
1, 94248, Note_off_c, 3, 76, 64
1, 94249, Note_off_c, 2, 71, 64
1, 94280, Note_off_c, 3, 74, 64
1, 94284, Note_on_c, 3, 74, 120
1, 94285, Note_on_c, 3, 72, 120
1, 94330, Note_on_c, 2, 71, 120
1, 94337, Note_off_c, 3, 72, 64
1, 94345, Note_off_c, 4, 43, 64
1, 94377, Note_on_c, 2, 69, 124
1, 94384, Note_off_c, 2, 71, 64
1, 94385, Note_off_c, 3, 74, 64
1, 94421, Note_on_c, 3, 72, 120
1, 94429, Note_off_c, 2, 69, 64
1, 94466, Note_on_c, 3, 76, 118
1, 94472, Note_off_c, 3, 72, 64
1, 94510, Note_on_c, 3, 74, 120
1, 94517, Note_off_c, 3, 76, 64
1, 94554, Note_on_c, 3, 72, 120
1, 94555, Note_on_c, 3, 62, 127
1, 94563, Note_off_c, 3, 74, 64
1, 94599, Note_on_c, 2, 71, 120
1, 94609, Note_off_c, 3, 72, 64
1, 94644, Note_on_c, 2, 69, 124
1, 94651, Note_off_c, 2, 71, 64
1, 94680, Note_off_c, 3, 62, 64
1, 94686, Note_on_c, 4, 60, 127
1, 94730, Note_on_c, 3, 64, 127
1, 94759, Note_off_c, 2, 69, 64
1, 94772, Note_on_c, 3, 62, 127
1, 94780, Note_off_c, 3, 64, 64
1, 94780, Note_off_c, 4, 60, 64
1, 94800, Note_off_c, 4, 55, 64
1, 94813, Note_on_c, 0, 86, 117
1, 94814, Note_on_c, 4, 60, 127
1, 94820, Note_off_c, 3, 62, 64
1, 94859, Note_on_c, 4, 59, 127
1, 94864, Note_off_c, 4, 60, 64
1, 94901, Note_on_c, 4, 57, 127
1, 94908, Note_off_c, 4, 59, 64
1, 94939, Note_off_c, 0, 86, 64
1, 94945, Note_on_c, 0, 84, 117
1, 94987, Note_on_c, 0, 88, 117
1, 94998, Note_off_c, 0, 84, 64
1, 95031, Note_on_c, 0, 86, 117
1, 95038, Note_off_c, 0, 88, 64
1, 95075, Note_on_c, 0, 84, 117
1, 95075, Note_on_c, 3, 74, 119
1, 95081, Note_off_c, 0, 86, 64
1, 95118, Note_on_c, 0, 83, 117
1, 95124, Note_off_c, 0, 84, 64
1, 95162, Note_on_c, 0, 82, 117
1, 95170, Note_off_c, 0, 83, 64
1, 95198, Note_off_c, 3, 74, 64
1, 95206, Note_on_c, 3, 73, 119
1, 95250, Note_on_c, 3, 78, 115
1, 95258, Note_off_c, 0, 82, 64
1, 95298, Note_on_c, 3, 76, 114
1, 95306, Note_off_c, 3, 73, 64
1, 95306, Note_off_c, 3, 78, 64
1, 95340, Note_off_c, 3, 76, 64
1, 95343, Note_on_c, 3, 76, 114
1, 95344, Note_on_c, 3, 74, 116
1, 95390, Note_on_c, 3, 73, 116
1, 95398, Note_off_c, 3, 74, 64
1, 95436, Note_on_c, 2, 71, 120
1, 95444, Note_off_c, 3, 73, 64
1, 95467, Note_off_c, 3, 76, 64
1, 95484, Note_on_c, 3, 74, 116
1, 95492, Note_off_c, 2, 71, 64
1, 95527, Note_on_c, 3, 78, 115
1, 95534, Note_off_c, 3, 74, 64
1, 95571, Note_on_c, 3, 76, 114
1, 95579, Note_off_c, 3, 78, 64
1, 95613, Note_on_c, 3, 74, 116
1, 95614, Note_on_c, 3, 64, 127
1, 95620, Note_off_c, 3, 76, 64
1, 95658, Note_on_c, 3, 73, 116
1, 95666, Note_off_c, 3, 74, 64
1, 95702, Note_on_c, 2, 71, 120
1, 95710, Note_off_c, 3, 73, 64
1, 95739, Note_off_c, 3, 64, 64
1, 95747, Note_on_c, 3, 62, 127
1, 95789, Note_on_c, 2, 67, 127
1, 95796, Note_off_c, 2, 71, 64
1, 95833, Note_on_c, 2, 66, 127
1, 95841, Note_off_c, 2, 67, 64
1, 95841, Note_off_c, 3, 62, 64
1, 95876, Note_on_c, 3, 78, 111
1, 95877, Note_on_c, 3, 64, 127
1, 95883, Note_off_c, 2, 66, 64
1, 95919, Note_on_c, 3, 62, 127
1, 95928, Note_off_c, 3, 64, 64
1, 95934, Note_off_c, 4, 57, 64
1, 95964, Note_on_c, 4, 61, 127
1, 95968, Note_off_c, 3, 62, 64
1, 96032, Note_off_c, 3, 78, 64
1, 96036, Note_on_c, 3, 79, 113
1, 96082, Note_on_c, 3, 78, 111
1, 96089, Note_off_c, 3, 79, 64
1, 96126, Note_off_c, 4, 61, 64
1, 96126, Note_on_c, 3, 76, 114
1, 96127, Note_on_c, 2, 66, 127
1, 96132, Note_off_c, 3, 78, 64
1, 96171, Note_on_c, 3, 74, 116
1, 96179, Note_off_c, 3, 76, 64
1, 96217, Note_on_c, 3, 73, 116
1, 96225, Note_off_c, 3, 74, 64
1, 96253, Note_off_c, 2, 66, 64
1, 96261, Note_on_c, 3, 64, 127
1, 96305, Note_on_c, 2, 69, 124
1, 96313, Note_off_c, 3, 73, 64
1, 96351, Note_on_c, 2, 67, 127
1, 96359, Note_off_c, 2, 69, 64
1, 96360, Note_off_c, 3, 64, 64
1, 96395, Note_on_c, 3, 79, 110
1, 96395, Note_on_c, 2, 66, 127
1, 96401, Note_off_c, 2, 67, 64
1, 96440, Note_on_c, 3, 64, 127
1, 96447, Note_off_c, 2, 66, 64
1, 96486, Note_on_c, 3, 78, 102
1, 96487, Note_on_c, 3, 62, 127
1, 96494, Note_off_c, 3, 64, 64
1, 96495, Note_off_c, 3, 79, 64
1, 96534, Note_on_c, 3, 74, 111
1, 96544, Note_off_c, 3, 78, 64
1, 96584, Note_on_c, 3, 78, 106
1, 96613, Note_off_c, 3, 74, 64
1, 96628, Note_on_c, 0, 81, 108
1, 96636, Note_off_c, 3, 78, 64
1, 96662, Note_on_c, 2, 71, 119
1, 96672, Note_off_c, 3, 62, 64
1, 96672, Note_on_c, 0, 86, 108
1, 96673, Note_on_c, 3, 64, 127
1, 96673, Note_on_c, 2, 67, 127
1, 96680, Note_off_c, 0, 81, 64
1, 96719, Note_on_c, 0, 85, 108
1, 96727, Note_off_c, 0, 86, 64
1, 96740, Note_off_c, 2, 71, 64
1, 96766, Note_on_c, 2, 66, 127
1, 96766, Note_on_c, 3, 62, 127
1, 96774, Note_off_c, 2, 67, 64
1, 96774, Note_off_c, 3, 64, 64
1, 96812, Note_on_c, 2, 71, 120
1, 96856, Note_on_c, 3, 74, 111
1, 96871, Note_off_c, 0, 85, 64
1, 96887, Note_off_c, 2, 71, 64
1, 96900, Note_on_c, 3, 78, 106
1, 96908, Note_off_c, 3, 74, 64
1, 96944, Note_off_c, 3, 62, 64
1, 96945, Note_off_c, 2, 66, 64
1, 96945, Note_on_c, 0, 83, 108
1, 96946, Note_on_c, 4, 61, 127
1, 96946, Note_on_c, 3, 64, 127
1, 96953, Note_off_c, 3, 78, 64
1, 96991, Note_on_c, 0, 81, 108
1, 96999, Note_off_c, 0, 83, 64
1, 97037, Note_on_c, 3, 62, 127
1, 97038, Note_on_c, 4, 59, 127
1, 97044, Note_off_c, 3, 64, 64
1, 97044, Note_off_c, 4, 61, 64
1, 97081, Note_on_c, 2, 67, 127
1, 97126, Note_on_c, 2, 71, 120
1, 97141, Note_off_c, 0, 81, 64
1, 97164, Note_off_c, 2, 67, 64
1, 97171, Note_on_c, 3, 74, 111
1, 97178, Note_off_c, 2, 71, 64
1, 97215, Note_off_c, 3, 62, 64
1, 97215, Note_off_c, 4, 59, 64
1, 97216, Note_on_c, 3, 79, 108
1, 97216, Note_on_c, 4, 61, 127
1, 97217, Note_on_c, 4, 57, 127
1, 97223, Note_off_c, 3, 74, 64
1, 97261, Note_on_c, 3, 78, 106
1, 97267, Note_off_c, 3, 79, 64
1, 97305, Note_on_c, 4, 59, 127
1, 97306, Note_on_c, 4, 55, 127
1, 97312, Note_off_c, 4, 57, 64
1, 97312, Note_off_c, 4, 61, 64
1, 97349, Note_on_c, 3, 64, 127
1, 97393, Note_on_c, 2, 67, 127
1, 97409, Note_off_c, 3, 78, 64
1, 97434, Note_off_c, 3, 64, 64
1, 97440, Note_on_c, 2, 71, 120
1, 97447, Note_off_c, 2, 67, 64
1, 97482, Note_off_c, 4, 59, 64
1, 97482, Note_off_c, 4, 55, 64
1, 97485, Note_on_c, 3, 76, 112
1, 97485, Note_on_c, 4, 59, 127
1, 97486, Note_on_c, 4, 56, 127
1, 97493, Note_off_c, 2, 71, 64
1, 97532, Note_on_c, 3, 74, 110
1, 97539, Note_off_c, 3, 76, 64
1, 97578, Note_on_c, 4, 57, 127
1, 97578, Note_on_c, 3, 73, 114
1, 97584, Note_off_c, 4, 56, 64
1, 97585, Note_off_c, 3, 74, 64
1, 97585, Note_off_c, 4, 59, 64
1, 97622, Note_on_c, 3, 64, 127
1, 97653, Note_off_c, 3, 73, 64
1, 97666, Note_on_c, 0, 81, 108
1, 97667, Note_on_c, 4, 61, 127
1, 97675, Note_off_c, 3, 64, 64
1, 97709, Note_on_c, 3, 64, 127
1, 97717, Note_off_c, 4, 61, 64
1, 97753, Note_off_c, 4, 57, 64
1, 97754, Note_on_c, 3, 78, 106
1, 97754, Note_on_c, 3, 74, 111
1, 97755, Note_on_c, 3, 62, 127
1, 97759, Note_off_c, 3, 64, 64
1, 97760, Note_off_c, 0, 81, 64
1, 97797, Note_on_c, 3, 64, 127
1, 97804, Note_off_c, 3, 62, 64
1, 97843, Note_on_c, 3, 76, 109
1, 97843, Note_on_c, 3, 73, 111
1, 97844, Note_on_c, 4, 57, 127
1, 97849, Note_off_c, 3, 64, 64
1, 97850, Note_off_c, 3, 74, 64
1, 97850, Note_off_c, 3, 78, 64
1, 97887, Note_on_c, 3, 64, 127
1, 97933, Note_on_c, 0, 81, 108
1, 97933, Note_on_c, 4, 61, 127
1, 97940, Note_off_c, 3, 64, 64
1, 97940, Note_off_c, 3, 73, 64
1, 97941, Note_off_c, 3, 76, 64
1, 97975, Note_on_c, 3, 64, 127
1, 97983, Note_off_c, 4, 61, 64
1, 98022, Note_off_c, 4, 57, 64
1, 98023, Note_on_c, 3, 78, 106
1, 98023, Note_on_c, 3, 74, 111
1, 98024, Note_on_c, 3, 62, 127
1, 98030, Note_off_c, 3, 64, 64
1, 98030, Note_off_c, 0, 81, 64
1, 98067, Note_on_c, 3, 64, 127
1, 98075, Note_off_c, 3, 62, 64
1, 98108, Note_off_c, 3, 64, 64
1, 98115, Note_on_c, 3, 76, 109
1, 98116, Note_on_c, 3, 73, 111
1, 98116, Note_on_c, 3, 64, 127
1, 98117, Note_on_c, 4, 61, 127
1, 98117, Note_on_c, 4, 57, 127
1, 98123, Note_off_c, 3, 74, 64
1, 98124, Note_off_c, 3, 78, 64
1, 98208, Note_on_c, 0, 81, 108
1, 98216, Note_off_c, 3, 73, 64
1, 98217, Note_off_c, 3, 76, 64
1, 98302, Note_off_c, 4, 57, 64
1, 98305, Note_off_c, 4, 61, 64
1, 98306, Note_off_c, 3, 64, 64
1, 98306, Note_on_c, 2, 69, 124
1, 98307, Note_on_c, 4, 57, 127
1, 98307, Note_on_c, 4, 45, 127
1, 98315, Note_off_c, 0, 81, 64
1, 98396, Note_off_c, 4, 45, 64
1, 98396, Note_off_c, 4, 57, 64
1, 98397, Note_off_c, 2, 69, 64
1, 98402, Note_on_c, 2, 69, 124
1, 98403, Note_on_c, 4, 57, 127
1, 98403, Note_on_c, 4, 45, 127
1, 98595, Note_off_c, 2, 69, 64
1, 98596, Note_on_c, 2, 66, 127
1, 98690, Note_on_c, 2, 67, 127
1, 98698, Note_off_c, 2, 66, 64
1, 98875, Note_off_c, 2, 67, 64
1, 98876, Note_on_c, 2, 69, 124
1, 98966, Note_on_c, 2, 71, 120
1, 98974, Note_off_c, 2, 69, 64
1, 99057, Note_on_c, 2, 69, 124
1, 99062, Note_off_c, 2, 71, 64
1, 99099, Note_on_c, 2, 67, 127
1, 99107, Note_off_c, 2, 69, 64
1, 99143, Note_on_c, 2, 66, 127
1, 99150, Note_off_c, 2, 67, 64
1, 99187, Note_on_c, 3, 64, 127
1, 99193, Note_off_c, 2, 66, 64
1, 99222, Note_off_c, 4, 45, 64
1, 99222, Note_off_c, 4, 57, 64
1, 99228, Note_on_c, 3, 62, 127
1, 99229, Note_on_c, 4, 55, 127
1, 99229, Note_on_c, 4, 52, 127
1, 99230, Note_on_c, 4, 45, 127
1, 99236, Note_off_c, 3, 64, 64
1, 99492, Note_off_c, 3, 62, 64
1, 99499, Note_on_c, 4, 61, 127
1, 99680, Note_off_c, 4, 61, 64
1, 99680, Note_off_c, 4, 45, 64
1, 99681, Note_off_c, 4, 52, 64
1, 99681, Note_off_c, 4, 55, 64
1, 99682, Note_on_c, 4, 59, 127
1, 99682, Note_on_c, 4, 49, 127
1, 99682, Note_on_c, 4, 43, 127
1, 99763, Note_off_c, 4, 59, 64
1, 99769, Note_on_c, 4, 50, 127
1, 99769, Note_on_c, 4, 59, 127
1, 99770, Note_on_c, 4, 42, 127
1, 99778, Note_off_c, 4, 43, 64
1, 99778, Note_off_c, 4, 49, 64
1, 99859, Note_on_c, 4, 57, 127
1, 99867, Note_off_c, 4, 59, 64
1, 99948, Note_off_c, 4, 57, 64
1, 99953, Note_on_c, 4, 57, 127
1, 100042, Note_off_c, 4, 57, 64
1, 100047, Note_on_c, 4, 57, 127
1, 100134, Note_off_c, 4, 42, 64
1, 100141, Note_off_c, 4, 50, 64
1, 100142, Note_on_c, 3, 62, 127
1, 100142, Note_on_c, 4, 42, 127
1, 100150, Note_off_c, 4, 57, 64
1, 100229, Note_off_c, 3, 62, 64
1, 100236, Note_on_c, 2, 66, 127
1, 100237, Note_on_c, 4, 38, 127
1, 100237, Note_on_c, 3, 62, 127
1, 100243, Note_off_c, 4, 42, 64
1, 100324, Note_off_c, 2, 66, 64
1, 100324, Note_off_c, 3, 62, 64
1, 100331, Note_on_c, 2, 66, 127
1, 100331, Note_on_c, 3, 62, 127
1, 100332, Note_on_c, 4, 45, 127
1, 100337, Note_off_c, 4, 38, 64
1, 100518, Note_off_c, 3, 62, 64
1, 100518, Note_off_c, 2, 66, 64
1, 100519, Note_on_c, 3, 64, 127
1, 100519, Note_on_c, 2, 67, 127
1, 100604, Note_off_c, 3, 64, 64
1, 100612, Note_on_c, 3, 64, 127
1, 100612, Note_on_c, 4, 61, 127
1, 100619, Note_off_c, 2, 67, 64
1, 100799, Note_off_c, 4, 61, 64
1, 100800, Note_off_c, 3, 64, 64
1, 100800, Note_on_c, 3, 66, 127
1, 100891, Note_on_c, 3, 67, 127
1, 100899, Note_off_c, 3, 66, 64
1, 101076, Note_off_c, 3, 67, 64
1, 101077, Note_on_c, 3, 69, 122
1, 101170, Note_on_c, 3, 71, 118
1, 101178, Note_off_c, 3, 69, 64
1, 101255, Note_on_c, 3, 69, 122
1, 101263, Note_off_c, 3, 71, 64
1, 101296, Note_on_c, 3, 67, 127
1, 101304, Note_off_c, 3, 69, 64
1, 101338, Note_on_c, 3, 66, 127
1, 101345, Note_off_c, 3, 67, 64
1, 101380, Note_on_c, 3, 64, 127
1, 101388, Note_off_c, 3, 66, 64
1, 101415, Note_off_c, 4, 45, 64
1, 101423, Note_on_c, 3, 62, 127
1, 101424, Note_on_c, 4, 55, 127
1, 101424, Note_on_c, 4, 52, 127
1, 101424, Note_on_c, 4, 45, 127
1, 101431, Note_off_c, 3, 64, 64
1, 101692, Note_off_c, 3, 62, 64
1, 101693, Note_on_c, 4, 61, 127
1, 101785, Note_on_c, 3, 71, 118
1, 101793, Note_off_c, 4, 61, 64
1, 101878, Note_off_c, 4, 45, 64
1, 101878, Note_off_c, 4, 52, 64
1, 101879, Note_off_c, 4, 55, 64
1, 101879, Note_on_c, 3, 69, 122
1, 101880, Note_on_c, 4, 49, 127
1, 101880, Note_on_c, 4, 43, 127
1, 101886, Note_off_c, 3, 71, 64
1, 101963, Note_off_c, 3, 69, 64
1, 101969, Note_on_c, 4, 50, 127
1, 101969, Note_on_c, 3, 69, 122
1, 101970, Note_on_c, 4, 42, 127
1, 101976, Note_off_c, 4, 43, 64
1, 101977, Note_off_c, 4, 49, 64
1, 102062, Note_on_c, 3, 74, 109
1, 102070, Note_off_c, 3, 69, 64
1, 102152, Note_off_c, 4, 42, 64
1, 102153, Note_off_c, 4, 50, 64
1, 102153, Note_on_c, 3, 62, 127
1, 102154, Note_on_c, 4, 55, 127
1, 102154, Note_on_c, 4, 47, 127
1, 102161, Note_off_c, 3, 74, 64
1, 102239, Note_off_c, 3, 62, 64
1, 102245, Note_on_c, 3, 66, 127
1, 102246, Note_on_c, 3, 62, 127
1, 102246, Note_on_c, 4, 57, 127
1, 102247, Note_on_c, 4, 45, 127
1, 102253, Note_off_c, 4, 47, 64
1, 102253, Note_off_c, 4, 55, 64
1, 102425, Note_off_c, 4, 45, 64
1, 102431, Note_off_c, 4, 57, 64
1, 102431, Note_off_c, 3, 62, 64
1, 102432, Note_off_c, 3, 66, 64
1, 102432, Note_on_c, 4, 61, 127
1, 102432, Note_on_c, 3, 64, 127
1, 102433, Note_on_c, 4, 55, 127
1, 102433, Note_on_c, 4, 45, 127
1, 102520, Note_off_c, 4, 61, 64
1, 102520, Note_off_c, 4, 55, 64
1, 102521, Note_off_c, 3, 64, 64
1, 102527, Note_on_c, 4, 61, 127
1, 102527, Note_on_c, 3, 64, 127
1, 102528, Note_on_c, 4, 50, 127
1, 102528, Note_on_c, 4, 55, 127
1, 102534, Note_off_c, 4, 45, 64
1, 102782, Note_off_c, 4, 61, 64
1, 102782, Note_off_c, 4, 55, 64
1, 102783, Note_off_c, 3, 64, 64
1, 102789, Note_on_c, 4, 54, 127
1, 102789, Note_on_c, 3, 62, 127
1, 102968, Note_on_c, 3, 78, 104
1, 103062, Note_on_c, 3, 79, 106
1, 103068, Note_off_c, 3, 78, 64
1, 103147, Note_off_c, 3, 79, 64
1, 103154, Note_on_c, 3, 79, 102
1, 103199, Note_on_c, 3, 78, 99
1, 103206, Note_off_c, 3, 79, 64
1, 103245, Note_on_c, 0, 81, 102
1, 103252, Note_off_c, 3, 78, 64
1, 103287, Note_on_c, 3, 79, 102
1, 103295, Note_off_c, 0, 81, 64
1, 103333, Note_on_c, 0, 83, 102
1, 103341, Note_off_c, 3, 79, 64
1, 103380, Note_on_c, 0, 81, 102
1, 103388, Note_off_c, 0, 83, 64
1, 103424, Note_on_c, 3, 79, 102
1, 103432, Note_off_c, 0, 81, 64
1, 103468, Note_on_c, 3, 78, 99
1, 103474, Note_off_c, 3, 79, 64
1, 103511, Note_on_c, 3, 79, 102
1, 103518, Note_off_c, 3, 78, 64
1, 103553, Note_on_c, 3, 76, 103
1, 103560, Note_off_c, 3, 79, 64
1, 103569, Note_off_c, 4, 50, 64
1, 103597, Note_on_c, 2, 67, 127
1, 103597, Note_on_c, 3, 74, 109
1, 103598, Note_on_c, 4, 57, 127
1, 103598, Note_on_c, 3, 64, 127
1, 103605, Note_off_c, 3, 76, 64
1, 103613, Note_off_c, 3, 62, 64
1, 103613, Note_off_c, 4, 54, 64
1, 103782, Note_off_c, 3, 74, 64
1, 103783, Note_on_c, 3, 76, 107
1, 103825, Note_off_c, 3, 76, 64
1, 103831, Note_on_c, 3, 74, 109
1, 103873, Note_off_c, 3, 74, 64
1, 103878, Note_on_c, 3, 73, 109
1, 104058, Note_off_c, 3, 73, 64
1, 104059, Note_off_c, 3, 64, 64
1, 104059, Note_off_c, 4, 57, 64
1, 104060, Note_off_c, 2, 67, 64
1, 104060, Note_on_c, 2, 71, 118
1, 104061, Note_on_c, 2, 68, 124
1, 104061, Note_on_c, 3, 62, 127
1, 104061, Note_on_c, 4, 59, 127
1, 104144, Note_off_c, 2, 71, 64
1, 104150, Note_on_c, 2, 71, 118
1, 104151, Note_on_c, 3, 64, 127
1, 104151, Note_on_c, 2, 67, 127
1, 104152, Note_on_c, 4, 61, 127
1, 104158, Note_off_c, 4, 59, 64
1, 104159, Note_off_c, 3, 62, 64
1, 104159, Note_off_c, 2, 68, 64
1, 104241, Note_on_c, 2, 69, 122
1, 104248, Note_off_c, 2, 71, 64
1, 104327, Note_off_c, 2, 69, 64
1, 104335, Note_on_c, 2, 69, 122
1, 104421, Note_off_c, 2, 69, 64
1, 104429, Note_off_c, 3, 64, 64
1, 104429, Note_off_c, 4, 61, 64
1, 104430, Note_off_c, 2, 67, 64
1, 104430, Note_on_c, 2, 69, 122
1, 104431, Note_on_c, 3, 62, 127
1, 104431, Note_on_c, 2, 66, 127
1, 104522, Note_on_c, 3, 74, 109
1, 104530, Note_off_c, 2, 69, 64
1, 104606, Note_off_c, 3, 74, 64
1, 104612, Note_on_c, 3, 78, 104
1, 104613, Note_on_c, 3, 74, 109
1, 104700, Note_off_c, 3, 78, 64
1, 104700, Note_off_c, 3, 74, 64
1, 104706, Note_off_c, 3, 62, 64
1, 104707, Note_off_c, 2, 66, 64
1, 104707, Note_on_c, 3, 78, 104
1, 104708, Note_on_c, 2, 69, 122
1, 104708, Note_on_c, 3, 74, 109
1, 104709, Note_on_c, 4, 57, 127
1, 104888, Note_off_c, 3, 78, 64
1, 104888, Note_off_c, 3, 74, 64
1, 104889, Note_on_c, 3, 79, 106
1, 104889, Note_on_c, 3, 76, 107
1, 104974, Note_off_c, 3, 76, 64
1, 104975, Note_off_c, 3, 79, 64
1, 104981, Note_on_c, 3, 76, 107
1, 104981, Note_on_c, 3, 73, 109
1, 105161, Note_off_c, 3, 73, 64
1, 105161, Note_off_c, 3, 76, 64
1, 105162, Note_on_c, 3, 78, 104
1, 105254, Note_on_c, 3, 79, 102
1, 105262, Note_off_c, 3, 78, 64
1, 105339, Note_off_c, 3, 79, 64
1, 105345, Note_on_c, 3, 79, 98
1, 105390, Note_on_c, 3, 78, 97
1, 105398, Note_off_c, 3, 79, 64
1, 105435, Note_on_c, 0, 81, 98
1, 105443, Note_off_c, 3, 78, 64
1, 105479, Note_on_c, 3, 79, 98
1, 105487, Note_off_c, 0, 81, 64
1, 105523, Note_on_c, 0, 83, 98
1, 105531, Note_off_c, 3, 79, 64
1, 105567, Note_on_c, 0, 81, 98
1, 105573, Note_off_c, 0, 83, 64
1, 105610, Note_on_c, 3, 79, 98
1, 105615, Note_off_c, 0, 81, 64
1, 105652, Note_on_c, 3, 78, 97
1, 105660, Note_off_c, 3, 79, 64
1, 105698, Note_on_c, 3, 79, 98
1, 105706, Note_off_c, 3, 78, 64
1, 105741, Note_on_c, 3, 76, 98
1, 105749, Note_off_c, 3, 79, 64
1, 105780, Note_off_c, 2, 69, 64
1, 105780, Note_off_c, 4, 57, 64
1, 105786, Note_on_c, 3, 74, 105
1, 105787, Note_on_c, 2, 69, 122
1, 105787, Note_on_c, 2, 67, 127
1, 105793, Note_off_c, 3, 76, 64
1, 105833, Note_on_c, 3, 73, 105
1, 105841, Note_off_c, 3, 74, 64
1, 105879, Note_on_c, 3, 76, 103
1, 105887, Note_off_c, 3, 73, 64
1, 105925, Note_on_c, 3, 74, 105
1, 105933, Note_off_c, 3, 76, 64
1, 105972, Note_on_c, 3, 78, 99
1, 105979, Note_off_c, 3, 74, 64
1, 106017, Note_on_c, 3, 76, 103
1, 106025, Note_off_c, 3, 78, 64
1, 106063, Note_on_c, 3, 79, 102
1, 106073, Note_off_c, 3, 76, 64
1, 106109, Note_on_c, 3, 78, 99
1, 106116, Note_off_c, 3, 79, 64
1, 106153, Note_on_c, 0, 81, 102
1, 106161, Note_off_c, 3, 78, 64
1, 106198, Note_on_c, 3, 79, 102
1, 106205, Note_off_c, 0, 81, 64
1, 106244, Note_on_c, 0, 83, 102
1, 106251, Note_off_c, 3, 79, 64
1, 106290, Note_on_c, 0, 81, 102
1, 106297, Note_off_c, 0, 83, 64
1, 106328, Note_off_c, 0, 81, 64
1, 106336, Note_on_c, 0, 81, 106
1, 106374, Note_off_c, 2, 67, 64
1, 106375, Note_off_c, 2, 69, 64
1, 106425, Note_on_c, 3, 75, 116
1, 106426, Note_on_c, 4, 65, 127
1, 106509, Note_off_c, 4, 65, 64
1, 106509, Note_off_c, 3, 75, 64
1, 106515, Note_on_c, 3, 75, 116
1, 106516, Note_on_c, 4, 65, 127
1, 106608, Note_off_c, 0, 81, 64
1, 106609, Note_on_c, 0, 80, 116
1, 106693, Note_off_c, 4, 65, 64
1, 106694, Note_off_c, 3, 75, 64
1, 106699, Note_on_c, 3, 74, 119
1, 106699, Note_on_c, 3, 64, 127
1, 106782, Note_off_c, 3, 64, 64
1, 106782, Note_off_c, 3, 74, 64
1, 106789, Note_on_c, 3, 74, 119
1, 106789, Note_on_c, 3, 64, 127
1, 106880, Note_off_c, 0, 80, 64
1, 106881, Note_on_c, 3, 79, 116
1, 106965, Note_off_c, 3, 64, 64
1, 106966, Note_off_c, 3, 74, 64
1, 106970, Note_on_c, 3, 74, 119
1, 106971, Note_on_c, 2, 71, 120
1, 107052, Note_off_c, 3, 74, 64
1, 107052, Note_off_c, 2, 71, 64
1, 107059, Note_on_c, 2, 71, 120
1, 107059, Note_on_c, 3, 74, 119
1, 107144, Note_off_c, 2, 71, 64
1, 107145, Note_off_c, 3, 74, 64
1, 107151, Note_off_c, 3, 79, 64
1, 107151, Note_on_c, 3, 78, 114
1, 107152, Note_on_c, 3, 73, 119
1, 107152, Note_on_c, 2, 70, 122
1, 107333, Note_off_c, 2, 70, 64
1, 107334, Note_on_c, 3, 66, 127
1, 107415, Note_off_c, 3, 73, 64
1, 107423, Note_off_c, 3, 78, 64
1, 107423, Note_on_c, 3, 71, 120
1, 107424, Note_on_c, 4, 54, 127
1, 107431, Note_off_c, 3, 66, 64
1, 107512, Note_on_c, 4, 59, 127
1, 107512, Note_on_c, 3, 66, 127
1, 107519, Note_off_c, 4, 54, 64
1, 107519, Note_off_c, 3, 71, 64
1, 107602, Note_on_c, 3, 71, 120
1, 107603, Note_on_c, 4, 54, 127
1, 107611, Note_off_c, 3, 66, 64
1, 107611, Note_off_c, 4, 59, 64
1, 107690, Note_on_c, 3, 74, 120
1, 107691, Note_on_c, 4, 59, 127
1, 107697, Note_off_c, 4, 54, 64
1, 107698, Note_off_c, 3, 71, 64
1, 107777, Note_on_c, 3, 71, 120
1, 107777, Note_on_c, 3, 62, 127
1, 107784, Note_off_c, 3, 74, 64
1, 107784, Note_off_c, 4, 59, 64
1, 107861, Note_on_c, 3, 74, 120
1, 107862, Note_on_c, 4, 59, 127
1, 107870, Note_off_c, 3, 62, 64
1, 107870, Note_off_c, 3, 71, 64
1, 107948, Note_on_c, 3, 62, 127
1, 107948, Note_on_c, 3, 78, 106
1, 107956, Note_off_c, 4, 59, 64
1, 107957, Note_off_c, 3, 74, 64
1, 107990, Note_on_c, 3, 76, 112
1, 107998, Note_off_c, 3, 78, 64
1, 108033, Note_on_c, 3, 74, 118
1, 108033, Note_on_c, 3, 66, 127
1, 108041, Note_off_c, 3, 62, 64
1, 108041, Note_off_c, 3, 76, 64
1, 108078, Note_on_c, 3, 73, 118
1, 108079, Note_on_c, 3, 64, 127
1, 108085, Note_off_c, 3, 66, 64
1, 108085, Note_off_c, 3, 74, 64
1, 108120, Note_on_c, 3, 71, 120
1, 108121, Note_on_c, 3, 62, 127
1, 108127, Note_off_c, 3, 64, 64
1, 108128, Note_off_c, 3, 73, 64
1, 108163, Note_on_c, 3, 70, 122
1, 108163, Note_on_c, 4, 61, 127
1, 108169, Note_off_c, 3, 62, 64
1, 108170, Note_off_c, 3, 71, 64
1, 108205, Note_on_c, 4, 59, 127
1, 108205, Note_on_c, 3, 74, 114
1, 108214, Note_off_c, 4, 61, 64
1, 108214, Note_off_c, 3, 70, 64
1, 108248, Note_on_c, 3, 73, 114
1, 108248, Note_on_c, 4, 58, 127
1, 108256, Note_off_c, 3, 74, 64
1, 108256, Note_off_c, 4, 59, 64
1, 108291, Note_on_c, 3, 71, 120
1, 108292, Note_on_c, 3, 62, 127
1, 108299, Note_off_c, 4, 58, 64
1, 108299, Note_off_c, 3, 73, 64
1, 108336, Note_on_c, 3, 69, 124
1, 108336, Note_on_c, 4, 61, 127
1, 108342, Note_off_c, 3, 62, 64
1, 108343, Note_off_c, 3, 71, 64
1, 108378, Note_on_c, 3, 67, 127
1, 108379, Note_on_c, 4, 59, 127
1, 108387, Note_off_c, 4, 61, 64
1, 108388, Note_off_c, 3, 69, 64
1, 108423, Note_on_c, 3, 66, 127
1, 108424, Note_on_c, 4, 57, 127
1, 108430, Note_off_c, 4, 59, 64
1, 108431, Note_off_c, 3, 67, 64
1, 108468, Note_on_c, 4, 55, 127
1, 108468, Note_on_c, 3, 64, 127
1, 108476, Note_off_c, 4, 57, 64
1, 108476, Note_off_c, 3, 66, 64
1, 108514, Note_on_c, 4, 54, 127
1, 108519, Note_off_c, 4, 55, 64
1, 108556, Note_on_c, 4, 59, 127
1, 108556, Note_on_c, 4, 52, 127
1, 108563, Note_off_c, 4, 54, 64
1, 108563, Note_off_c, 3, 64, 64
1, 108645, Note_on_c, 4, 47, 127
1, 108645, Note_on_c, 3, 64, 127
1, 108652, Note_off_c, 4, 52, 64
1, 108652, Note_off_c, 4, 59, 64
1, 108732, Note_on_c, 3, 67, 127
1, 108732, Note_on_c, 4, 52, 127
1, 108740, Note_off_c, 3, 64, 64
1, 108740, Note_off_c, 4, 47, 64
1, 108818, Note_on_c, 3, 64, 127
1, 108818, Note_on_c, 4, 55, 127
1, 108825, Note_off_c, 4, 52, 64
1, 108825, Note_off_c, 3, 67, 64
1, 108906, Note_on_c, 3, 67, 127
1, 108907, Note_on_c, 4, 52, 127
1, 108915, Note_off_c, 4, 55, 64
1, 108915, Note_off_c, 3, 64, 64
1, 108995, Note_on_c, 3, 71, 120
1, 108995, Note_on_c, 4, 55, 127
1, 109001, Note_off_c, 4, 52, 64
1, 109002, Note_off_c, 3, 67, 64
1, 109035, Note_on_c, 3, 69, 124
1, 109044, Note_off_c, 3, 71, 64
1, 109081, Note_on_c, 3, 67, 127
1, 109081, Note_on_c, 4, 59, 127
1, 109090, Note_off_c, 3, 69, 64
1, 109090, Note_off_c, 4, 55, 64
1, 109125, Note_on_c, 3, 66, 127
1, 109126, Note_on_c, 4, 57, 127
1, 109132, Note_off_c, 4, 59, 64
1, 109132, Note_off_c, 3, 67, 64
1, 109167, Note_on_c, 3, 64, 127
1, 109168, Note_on_c, 4, 55, 127
1, 109174, Note_off_c, 4, 57, 64
1, 109175, Note_off_c, 3, 66, 64
1, 109212, Note_on_c, 3, 63, 127
1, 109212, Note_on_c, 4, 54, 127
1, 109218, Note_off_c, 4, 55, 64
1, 109219, Note_off_c, 3, 64, 64
1, 109254, Note_on_c, 3, 79, 113
1, 109254, Note_on_c, 4, 52, 127
1, 109262, Note_off_c, 4, 54, 64
1, 109263, Note_off_c, 3, 63, 64
1, 109296, Note_on_c, 3, 78, 111
1, 109296, Note_on_c, 4, 51, 127
1, 109305, Note_off_c, 4, 52, 64
1, 109305, Note_off_c, 3, 79, 64
1, 109342, Note_on_c, 3, 76, 117
1, 109343, Note_on_c, 3, 67, 127
1, 109349, Note_off_c, 4, 51, 64
1, 109349, Note_off_c, 3, 78, 64
1, 109384, Note_on_c, 3, 74, 115
1, 109385, Note_on_c, 3, 66, 127
1, 109393, Note_off_c, 3, 67, 64
1, 109393, Note_off_c, 3, 76, 64
1, 109428, Note_on_c, 3, 73, 118
1, 109429, Note_on_c, 3, 64, 127
1, 109435, Note_off_c, 3, 66, 64
1, 109436, Note_off_c, 3, 74, 64
1, 109473, Note_on_c, 3, 71, 120
1, 109473, Note_on_c, 3, 62, 127
1, 109479, Note_off_c, 3, 64, 64
1, 109480, Note_off_c, 3, 73, 64
1, 109515, Note_on_c, 3, 69, 124
1, 109515, Note_on_c, 4, 61, 127
1, 109522, Note_off_c, 3, 62, 64
1, 109522, Note_off_c, 3, 71, 64
1, 109559, Note_on_c, 4, 59, 127
1, 109567, Note_off_c, 4, 61, 64
1, 109603, Note_on_c, 3, 64, 127
1, 109604, Note_on_c, 4, 57, 127
1, 109612, Note_off_c, 4, 59, 64
1, 109612, Note_off_c, 3, 69, 64
1, 109692, Note_on_c, 3, 69, 124
1, 109692, Note_on_c, 4, 52, 127
1, 109698, Note_off_c, 4, 57, 64
1, 109699, Note_off_c, 3, 64, 64
1, 109780, Note_on_c, 3, 73, 118
1, 109780, Note_on_c, 4, 57, 127
1, 109787, Note_off_c, 4, 52, 64
1, 109787, Note_off_c, 3, 69, 64
1, 109866, Note_on_c, 3, 69, 124
1, 109867, Note_on_c, 4, 61, 127
1, 109875, Note_off_c, 4, 57, 64
1, 109875, Note_off_c, 3, 73, 64
1, 109955, Note_on_c, 3, 73, 118
1, 109955, Note_on_c, 4, 57, 127
1, 109963, Note_off_c, 4, 61, 64
1, 109964, Note_off_c, 3, 69, 64
1, 110045, Note_on_c, 3, 76, 110
1, 110045, Note_on_c, 4, 61, 127
1, 110053, Note_off_c, 4, 57, 64
1, 110054, Note_off_c, 3, 73, 64
1, 110091, Note_on_c, 3, 78, 104
1, 110097, Note_off_c, 3, 76, 64
1, 110133, Note_on_c, 3, 79, 106
1, 110134, Note_on_c, 3, 64, 127
1, 110140, Note_off_c, 3, 78, 64
1, 110140, Note_off_c, 4, 61, 64
1, 110175, Note_on_c, 3, 78, 104
1, 110176, Note_on_c, 3, 66, 127
1, 110182, Note_off_c, 3, 64, 64
1, 110183, Note_off_c, 3, 79, 64
1, 110218, Note_on_c, 3, 76, 107
1, 110218, Note_on_c, 3, 67, 127
1, 110224, Note_off_c, 3, 66, 64
1, 110225, Note_off_c, 3, 78, 64
1, 110260, Note_on_c, 3, 74, 109
1, 110260, Note_on_c, 3, 66, 127
1, 110268, Note_off_c, 3, 67, 64
1, 110269, Note_off_c, 3, 76, 64
1, 110302, Note_on_c, 3, 73, 112
1, 110303, Note_on_c, 3, 64, 127
1, 110309, Note_off_c, 3, 66, 64
1, 110309, Note_off_c, 3, 74, 64
1, 110346, Note_on_c, 3, 71, 120
1, 110347, Note_on_c, 3, 62, 127
1, 110353, Note_off_c, 3, 64, 64
1, 110353, Note_off_c, 3, 73, 64
1, 110390, Note_on_c, 3, 69, 124
1, 110391, Note_on_c, 4, 61, 126
1, 110397, Note_off_c, 3, 62, 64
1, 110398, Note_off_c, 3, 71, 64
1, 110433, Note_on_c, 3, 71, 120
1, 110433, Note_on_c, 4, 59, 127
1, 110441, Note_off_c, 4, 61, 64
1, 110442, Note_off_c, 3, 69, 64
1, 110479, Note_on_c, 3, 67, 127
1, 110479, Note_on_c, 4, 61, 126
1, 110485, Note_off_c, 4, 59, 64
1, 110486, Note_off_c, 3, 71, 64
1, 110521, Note_on_c, 3, 69, 124
1, 110521, Note_on_c, 4, 57, 126
1, 110528, Note_off_c, 4, 61, 64
1, 110528, Note_off_c, 3, 67, 64
1, 110566, Note_on_c, 3, 66, 127
1, 110566, Note_on_c, 3, 62, 127
1, 110572, Note_off_c, 4, 57, 64
1, 110603, Note_off_c, 3, 69, 64
1, 110610, Note_on_c, 2, 69, 124
1, 110654, Note_on_c, 3, 68, 124
1, 110662, Note_off_c, 2, 69, 64
1, 110698, Note_on_c, 3, 69, 124
1, 110706, Note_off_c, 3, 68, 64
1, 110740, Note_on_c, 2, 71, 120
1, 110748, Note_off_c, 3, 69, 64
1, 110786, Note_on_c, 3, 69, 124
1, 110794, Note_off_c, 2, 71, 64
1, 110823, Note_off_c, 3, 62, 64
1, 110823, Note_off_c, 3, 66, 64
1, 110831, Note_on_c, 3, 74, 113
1, 110832, Note_on_c, 3, 62, 127
1, 110832, Note_on_c, 2, 66, 127
1, 110851, Note_off_c, 3, 69, 64
1, 110873, Note_on_c, 3, 69, 124
1, 110893, Note_off_c, 3, 74, 64
1, 110917, Note_on_c, 3, 68, 124
1, 110925, Note_off_c, 3, 69, 64
1, 110963, Note_on_c, 3, 69, 124
1, 110970, Note_off_c, 3, 68, 64
1, 111006, Note_on_c, 2, 71, 120
1, 111012, Note_off_c, 3, 69, 64
1, 111050, Note_on_c, 3, 69, 124
1, 111058, Note_off_c, 2, 71, 64
1, 111087, Note_off_c, 2, 66, 64
1, 111087, Note_off_c, 3, 62, 64
1, 111094, Note_on_c, 4, 61, 127
1, 111094, Note_on_c, 3, 64, 127
1, 111132, Note_off_c, 3, 69, 64
1, 111139, Note_on_c, 3, 69, 124
1, 111185, Note_on_c, 3, 68, 124
1, 111191, Note_off_c, 3, 69, 64
1, 111229, Note_on_c, 3, 69, 124
1, 111237, Note_off_c, 3, 68, 64
1, 111273, Note_off_c, 4, 61, 64
1, 111274, Note_on_c, 3, 62, 127
1, 111274, Note_on_c, 2, 66, 127
1, 111293, Note_off_c, 3, 69, 64
1, 111316, Note_on_c, 3, 69, 124
1, 111337, Note_off_c, 2, 66, 64
1, 111355, Note_off_c, 3, 64, 64
1, 111360, Note_on_c, 2, 67, 127
1, 111361, Note_on_c, 3, 64, 127
1, 111369, Note_off_c, 3, 62, 64
1, 111382, Note_off_c, 3, 69, 64
1, 111408, Note_on_c, 3, 69, 124
1, 111428, Note_off_c, 2, 67, 64
1, 111452, Note_on_c, 2, 66, 127
1, 111452, Note_on_c, 3, 62, 127
1, 111460, Note_off_c, 3, 64, 64
1, 111471, Note_off_c, 3, 69, 64
1, 111497, Note_on_c, 3, 69, 124
1, 111516, Note_off_c, 2, 66, 64
1, 111541, Note_on_c, 4, 61, 127
1, 111541, Note_on_c, 3, 64, 127
1, 111548, Note_off_c, 3, 62, 64
1, 111561, Note_off_c, 3, 69, 64
1, 111584, Note_on_c, 3, 69, 124
1, 111628, Note_on_c, 2, 66, 127
1, 111629, Note_on_c, 3, 62, 127
1, 111635, Note_off_c, 4, 61, 64
1, 111636, Note_off_c, 3, 64, 64
1, 111636, Note_off_c, 3, 69, 64
1, 111672, Note_on_c, 0, 81, 92
1, 111719, Note_off_c, 0, 81, 64
1, 111719, Note_on_c, 0, 80, 92
1, 111760, Note_off_c, 0, 80, 64
1, 111764, Note_on_c, 0, 81, 92
1, 111804, Note_off_c, 0, 81, 64
1, 111806, Note_on_c, 0, 83, 92
1, 111852, Note_on_c, 0, 81, 92
1, 111858, Note_off_c, 0, 83, 64
1, 111894, Note_on_c, 0, 86, 91
1, 111895, Note_on_c, 3, 78, 98
1, 111895, Note_on_c, 3, 74, 118
1, 111918, Note_off_c, 0, 81, 64
1, 111939, Note_on_c, 0, 81, 92
1, 111959, Note_off_c, 0, 86, 64
1, 111984, Note_on_c, 0, 80, 92
1, 111992, Note_off_c, 0, 81, 64
1, 111993, Note_off_c, 2, 66, 64
1, 112020, Note_off_c, 0, 80, 64
1, 112028, Note_on_c, 0, 81, 92
1, 112070, Note_off_c, 0, 81, 64
1, 112072, Note_on_c, 0, 83, 92
1, 112113, Note_off_c, 0, 83, 64
1, 112115, Note_on_c, 0, 81, 92
1, 112161, Note_on_c, 3, 76, 102
1, 112162, Note_on_c, 3, 73, 118
1, 112183, Note_off_c, 3, 74, 64
1, 112184, Note_off_c, 3, 78, 64
1, 112200, Note_off_c, 0, 81, 64
1, 112205, Note_on_c, 0, 81, 92
1, 112249, Note_on_c, 0, 80, 92
1, 112253, Note_off_c, 0, 81, 64
1, 112296, Note_off_c, 0, 80, 64
1, 112296, Note_on_c, 0, 81, 92
1, 112339, Note_off_c, 3, 73, 64
1, 112339, Note_on_c, 3, 78, 96
1, 112340, Note_on_c, 3, 74, 115
1, 112360, Note_off_c, 0, 81, 64
1, 112384, Note_on_c, 0, 81, 92
1, 112405, Note_off_c, 3, 78, 64
1, 112420, Note_off_c, 3, 76, 64
1, 112428, Note_on_c, 3, 79, 92
1, 112428, Note_on_c, 3, 76, 98
1, 112437, Note_off_c, 3, 74, 64
1, 112452, Note_off_c, 0, 81, 64
1, 112473, Note_on_c, 0, 81, 92
1, 112496, Note_off_c, 3, 79, 64
1, 112517, Note_on_c, 3, 78, 96
1, 112518, Note_on_c, 3, 74, 115
1, 112526, Note_off_c, 3, 76, 64
1, 112539, Note_off_c, 0, 81, 64
1, 112562, Note_on_c, 0, 81, 92
1, 112584, Note_off_c, 3, 78, 64
1, 112607, Note_on_c, 3, 76, 98
1, 112607, Note_on_c, 3, 73, 115
1, 112613, Note_off_c, 3, 74, 64
1, 112629, Note_off_c, 0, 81, 64
1, 112652, Note_on_c, 0, 81, 92
1, 112698, Note_on_c, 3, 74, 115
1, 112704, Note_off_c, 3, 73, 64
1, 112704, Note_off_c, 3, 76, 64
1, 112743, Note_on_c, 3, 78, 96
1, 112749, Note_off_c, 0, 81, 64
1, 112785, Note_on_c, 3, 79, 92
1, 112793, Note_off_c, 3, 78, 64
1, 112829, Note_on_c, 0, 81, 92
1, 112836, Note_off_c, 3, 79, 64
1, 112871, Note_on_c, 0, 83, 92
1, 112878, Note_off_c, 0, 81, 64
1, 112913, Note_on_c, 0, 85, 91
1, 112920, Note_off_c, 0, 83, 64
1, 112948, Note_off_c, 3, 74, 64
1, 112952, Note_off_c, 3, 62, 64
1, 112955, Note_on_c, 0, 86, 91
1, 112956, Note_on_c, 3, 62, 127
1, 112956, Note_on_c, 2, 66, 127
1, 112962, Note_off_c, 0, 85, 64
1, 112998, Note_on_c, 0, 85, 91
1, 113004, Note_off_c, 0, 86, 64
1, 113039, Note_on_c, 2, 67, 127
1, 113039, Note_on_c, 0, 83, 92
1, 113040, Note_on_c, 3, 64, 127
1, 113046, Note_off_c, 0, 85, 64
1, 113046, Note_off_c, 3, 62, 64
1, 113047, Note_off_c, 2, 66, 64
1, 113082, Note_on_c, 0, 81, 92
1, 113088, Note_off_c, 0, 83, 64
1, 113124, Note_on_c, 3, 79, 92
1, 113125, Note_on_c, 2, 69, 118
1, 113125, Note_on_c, 2, 66, 127
1, 113132, Note_off_c, 0, 81, 64
1, 113133, Note_off_c, 3, 64, 64
1, 113133, Note_off_c, 2, 67, 64
1, 113169, Note_on_c, 3, 78, 96
1, 113177, Note_off_c, 3, 79, 64
1, 113214, Note_on_c, 2, 71, 118
1, 113214, Note_on_c, 2, 67, 127
1, 113222, Note_off_c, 2, 66, 64
1, 113222, Note_off_c, 2, 69, 64
1, 113259, Note_on_c, 3, 75, 107
1, 113267, Note_off_c, 3, 78, 64
1, 113302, Note_on_c, 3, 76, 98
1, 113310, Note_off_c, 3, 75, 64
1, 113347, Note_on_c, 3, 78, 96
1, 113353, Note_off_c, 3, 76, 64
1, 113388, Note_on_c, 3, 79, 92
1, 113395, Note_off_c, 3, 78, 64
1, 113432, Note_on_c, 0, 81, 92
1, 113439, Note_off_c, 3, 79, 64
1, 113466, Note_off_c, 2, 67, 64
1, 113467, Note_off_c, 2, 71, 64
1, 113473, Note_on_c, 2, 67, 127
1, 113473, Note_on_c, 0, 83, 92
1, 113474, Note_on_c, 3, 64, 127
1, 113482, Note_off_c, 0, 81, 64
1, 113518, Note_on_c, 0, 81, 92
1, 113525, Note_off_c, 0, 83, 64
1, 113559, Note_on_c, 3, 79, 92
1, 113560, Note_on_c, 2, 69, 121
1, 113560, Note_on_c, 2, 66, 127
1, 113566, Note_off_c, 0, 81, 64
1, 113567, Note_off_c, 2, 67, 64
1, 113567, Note_off_c, 3, 64, 64
1, 113602, Note_on_c, 3, 78, 96
1, 113609, Note_off_c, 3, 79, 64
1, 113644, Note_on_c, 2, 71, 120
1, 113644, Note_on_c, 3, 76, 98
1, 113645, Note_on_c, 2, 67, 127
1, 113652, Note_off_c, 3, 78, 64
1, 113653, Note_off_c, 2, 66, 64
1, 113653, Note_off_c, 2, 69, 64
1, 113689, Note_on_c, 3, 74, 116
1, 113697, Note_off_c, 3, 76, 64
1, 113735, Note_on_c, 4, 57, 127
1, 113741, Note_off_c, 2, 67, 64
1, 113741, Note_off_c, 2, 71, 64
1, 113778, Note_on_c, 2, 68, 124
1, 113786, Note_off_c, 3, 74, 64
1, 113824, Note_on_c, 2, 71, 117
1, 113825, Note_on_c, 2, 66, 127
1, 113825, Note_on_c, 3, 62, 127
1, 113831, Note_off_c, 2, 68, 64
1, 113869, Note_on_c, 2, 69, 121
1, 113875, Note_off_c, 2, 71, 64
1, 113905, Note_off_c, 3, 62, 64
1, 113905, Note_off_c, 2, 66, 64
1, 113914, Note_on_c, 2, 66, 127
1, 113914, Note_on_c, 3, 73, 108
1, 113915, Note_on_c, 3, 62, 127
1, 113920, Note_off_c, 2, 69, 64
1, 113957, Note_on_c, 2, 71, 117
1, 113964, Note_off_c, 3, 73, 64
1, 113993, Note_off_c, 4, 57, 64
1, 114001, Note_on_c, 4, 57, 127
1, 114001, Note_on_c, 3, 74, 108
1, 114008, Note_off_c, 2, 71, 64
1, 114044, Note_on_c, 3, 73, 108
1, 114052, Note_off_c, 3, 74, 64
1, 114084, Note_off_c, 3, 62, 64
1, 114085, Note_off_c, 2, 66, 64
1, 114089, Note_on_c, 3, 76, 104
1, 114090, Note_on_c, 2, 66, 127
1, 114090, Note_on_c, 3, 62, 127
1, 114097, Note_off_c, 3, 73, 64
1, 114135, Note_on_c, 3, 74, 108
1, 114143, Note_off_c, 3, 76, 64
1, 114174, Note_off_c, 3, 62, 64
1, 114174, Note_off_c, 2, 66, 64
1, 114180, Note_on_c, 3, 78, 99
1, 114181, Note_on_c, 3, 62, 127
1, 114181, Note_on_c, 2, 66, 127
1, 114187, Note_off_c, 3, 74, 64
1, 114226, Note_on_c, 3, 76, 104
1, 114233, Note_off_c, 3, 78, 64
1, 114262, Note_off_c, 4, 57, 64
1, 114270, Note_on_c, 4, 57, 127
1, 114270, Note_on_c, 3, 79, 103
1, 114276, Note_off_c, 3, 76, 64
1, 114315, Note_on_c, 3, 78, 99
1, 114323, Note_off_c, 3, 79, 64
1, 114355, Note_off_c, 3, 62, 64
1, 114356, Note_off_c, 2, 66, 64
1, 114360, Note_on_c, 0, 81, 103
1, 114360, Note_on_c, 2, 66, 127
1, 114361, Note_on_c, 3, 62, 127
1, 114369, Note_off_c, 3, 78, 64
1, 114405, Note_on_c, 3, 79, 107
1, 114413, Note_off_c, 0, 81, 64
1, 114444, Note_off_c, 3, 62, 64
1, 114444, Note_off_c, 2, 66, 64
1, 114451, Note_on_c, 0, 83, 107
1, 114452, Note_on_c, 3, 62, 127
1, 114452, Note_on_c, 2, 66, 127
1, 114459, Note_off_c, 3, 79, 64
1, 114495, Note_on_c, 0, 81, 107
1, 114503, Note_off_c, 0, 83, 64
1, 114534, Note_off_c, 4, 57, 64
1, 114540, Note_on_c, 4, 57, 127
1, 114540, Note_on_c, 0, 85, 104
1, 114548, Note_off_c, 0, 81, 64
1, 114585, Note_on_c, 0, 83, 107
1, 114592, Note_off_c, 0, 85, 64
1, 114625, Note_off_c, 2, 66, 64
1, 114625, Note_off_c, 3, 62, 64
1, 114628, Note_on_c, 0, 86, 104
1, 114629, Note_on_c, 2, 66, 127
1, 114629, Note_on_c, 3, 62, 127
1, 114637, Note_off_c, 0, 83, 64
1, 114674, Note_on_c, 0, 85, 104
1, 114682, Note_off_c, 0, 86, 64
1, 114710, Note_off_c, 3, 62, 64
1, 114711, Note_off_c, 2, 66, 64
1, 114717, Note_on_c, 0, 88, 104
1, 114718, Note_on_c, 3, 62, 127
1, 114718, Note_on_c, 2, 66, 127
1, 114725, Note_off_c, 0, 85, 64
1, 114763, Note_on_c, 0, 86, 104
1, 114771, Note_off_c, 0, 88, 64
1, 114802, Note_off_c, 4, 57, 64
1, 114804, Note_off_c, 2, 66, 64
1, 114804, Note_off_c, 3, 62, 64
1, 114810, Note_on_c, 0, 89, 112
1, 114811, Note_on_c, 4, 65, 127
1, 114811, Note_on_c, 3, 62, 127
1, 114812, Note_on_c, 4, 59, 127
1, 114812, Note_on_c, 4, 56, 127
1, 114819, Note_off_c, 0, 86, 64
1, 114992, Note_off_c, 0, 89, 64
1, 114992, Note_on_c, 0, 83, 107
1, 115037, Note_on_c, 0, 85, 104
1, 115044, Note_off_c, 0, 83, 64
1, 115087, Note_on_c, 0, 86, 104
1, 115094, Note_off_c, 0, 85, 64
1, 115133, Note_on_c, 0, 80, 110
1, 115154, Note_off_c, 0, 86, 64
1, 115179, Note_on_c, 0, 83, 107
1, 115198, Note_off_c, 0, 80, 64
1, 115224, Note_on_c, 3, 74, 115
1, 115246, Note_off_c, 0, 83, 64
1, 115269, Note_on_c, 3, 78, 108
1, 115292, Note_off_c, 3, 74, 64
1, 115317, Note_on_c, 2, 71, 120
1, 115338, Note_off_c, 3, 78, 64
1, 115362, Note_off_c, 4, 56, 64
1, 115362, Note_off_c, 4, 59, 64
1, 115363, Note_off_c, 3, 62, 64
1, 115363, Note_off_c, 4, 65, 64
1, 115363, Note_on_c, 3, 74, 115
1, 115369, Note_off_c, 2, 71, 64
1, 115546, Note_on_c, 2, 66, 127
1, 115546, Note_on_c, 4, 57, 127
1, 115635, Note_on_c, 4, 58, 127
1, 115635, Note_on_c, 2, 67, 127
1, 115644, Note_off_c, 4, 57, 64
1, 115644, Note_off_c, 2, 66, 64
1, 115817, Note_off_c, 2, 67, 64
1, 115817, Note_off_c, 4, 58, 64
1, 115817, Note_on_c, 2, 68, 124
1, 115818, Note_on_c, 4, 59, 127
1, 115903, Note_off_c, 3, 74, 64
1, 115911, Note_on_c, 3, 78, 98
1, 115911, Note_on_c, 3, 74, 106
1, 115912, Note_on_c, 4, 57, 127
1, 115912, Note_on_c, 2, 69, 122
1, 115919, Note_off_c, 4, 59, 64
1, 115919, Note_off_c, 2, 68, 64
1, 116169, Note_off_c, 2, 69, 64
1, 116170, Note_off_c, 3, 74, 64
1, 116170, Note_off_c, 3, 78, 64
1, 116177, Note_on_c, 3, 73, 109
1, 116177, Note_on_c, 3, 78, 106
1, 116178, Note_on_c, 2, 67, 127
1, 116222, Note_on_c, 3, 76, 107
1, 116230, Note_off_c, 3, 78, 64
1, 116266, Note_on_c, 3, 74, 111
1, 116274, Note_off_c, 3, 76, 64
1, 116358, Note_on_c, 3, 76, 107
1, 116368, Note_off_c, 3, 74, 64
1, 116454, Note_off_c, 2, 67, 64
1, 116455, Note_off_c, 3, 73, 64
1, 116455, Note_off_c, 4, 57, 64
1, 116456, Note_on_c, 3, 74, 111
1, 116456, Note_on_c, 3, 62, 127
1, 116462, Note_off_c, 3, 76, 64
1, 116544, Note_on_c, 2, 66, 127
1, 116604, Note_off_c, 3, 62, 64
1, 116633, Note_off_c, 3, 74, 64
1, 116633, Note_on_c, 0, 80, 95
1, 116634, Note_on_c, 2, 69, 122
1, 116639, Note_off_c, 2, 66, 64
1, 116677, Note_on_c, 0, 81, 93
1, 116685, Note_off_c, 0, 80, 64
1, 116721, Note_on_c, 0, 83, 93
1, 116722, Note_on_c, 3, 62, 127
1, 116728, Note_off_c, 0, 81, 64
1, 116728, Note_off_c, 2, 69, 64
1, 116763, Note_on_c, 0, 81, 93
1, 116769, Note_off_c, 0, 83, 64
1, 116804, Note_on_c, 2, 66, 127
1, 116804, Note_on_c, 3, 79, 98
1, 116810, Note_off_c, 0, 81, 64
1, 116845, Note_on_c, 3, 78, 96
1, 116853, Note_off_c, 3, 79, 64
1, 116860, Note_off_c, 3, 62, 64
1, 116887, Note_on_c, 3, 76, 98
1, 116888, Note_on_c, 2, 69, 122
1, 116894, Note_off_c, 3, 78, 64
1, 116894, Note_off_c, 2, 66, 64
1, 116928, Note_on_c, 3, 74, 103
1, 116935, Note_off_c, 3, 76, 64
1, 116972, Note_on_c, 3, 73, 103
1, 116972, Note_on_c, 4, 57, 127
1, 116978, Note_off_c, 2, 69, 64
1, 116979, Note_off_c, 3, 74, 64
1, 117016, Note_on_c, 3, 74, 103
1, 117024, Note_off_c, 3, 73, 64
1, 117060, Note_on_c, 4, 61, 127
1, 117060, Note_on_c, 3, 75, 102
1, 117069, Note_off_c, 3, 74, 64
1, 117105, Note_on_c, 3, 76, 103
1, 117111, Note_off_c, 3, 75, 64
1, 117119, Note_off_c, 4, 57, 64
1, 117147, Note_on_c, 3, 77, 103
1, 117148, Note_on_c, 3, 64, 127
1, 117154, Note_off_c, 3, 76, 64
1, 117155, Note_off_c, 4, 61, 64
1, 117192, Note_on_c, 3, 78, 99
1, 117197, Note_off_c, 3, 77, 64
1, 117234, Note_on_c, 4, 57, 127
1, 117234, Note_on_c, 3, 79, 98
1, 117240, Note_off_c, 3, 78, 64
1, 117241, Note_off_c, 3, 64, 64
1, 117276, Note_on_c, 0, 80, 98
1, 117284, Note_off_c, 3, 79, 64
1, 117319, Note_on_c, 4, 61, 127
1, 117319, Note_on_c, 0, 81, 96
1, 117325, Note_off_c, 0, 80, 64
1, 117363, Note_on_c, 0, 82, 96
1, 117369, Note_off_c, 0, 81, 64
1, 117377, Note_off_c, 4, 57, 64
1, 117406, Note_on_c, 0, 83, 96
1, 117406, Note_on_c, 3, 64, 127
1, 117412, Note_off_c, 0, 82, 64
1, 117413, Note_off_c, 4, 61, 64
1, 117452, Note_on_c, 3, 79, 95
1, 117461, Note_off_c, 0, 83, 64
1, 117498, Note_on_c, 3, 78, 93
1, 117498, Note_on_c, 3, 62, 127
1, 117504, Note_off_c, 3, 64, 64
1, 117505, Note_off_c, 3, 79, 64
1, 117588, Note_on_c, 2, 66, 127
1, 117648, Note_off_c, 3, 62, 64
1, 117677, Note_off_c, 3, 78, 64
1, 117677, Note_on_c, 0, 80, 95
1, 117677, Note_on_c, 2, 69, 122
1, 117685, Note_off_c, 2, 66, 64
1, 117721, Note_on_c, 0, 81, 93
1, 117729, Note_off_c, 0, 80, 64
1, 117763, Note_on_c, 3, 62, 127
1, 117763, Note_on_c, 0, 83, 93
1, 117769, Note_off_c, 0, 81, 64
1, 117770, Note_off_c, 2, 69, 64
1, 117805, Note_on_c, 0, 81, 93
1, 117811, Note_off_c, 0, 83, 64
1, 117846, Note_on_c, 2, 66, 127
1, 117846, Note_on_c, 3, 79, 95
1, 117852, Note_off_c, 0, 81, 64
1, 117887, Note_on_c, 3, 78, 93
1, 117893, Note_off_c, 3, 79, 64
1, 117900, Note_off_c, 3, 62, 64
1, 117929, Note_on_c, 2, 69, 122
1, 117929, Note_on_c, 3, 76, 96
1, 117936, Note_off_c, 3, 78, 64
1, 117936, Note_off_c, 2, 66, 64
1, 117972, Note_on_c, 3, 74, 98
1, 117979, Note_off_c, 3, 76, 64
1, 118015, Note_on_c, 3, 73, 98
1, 118016, Note_on_c, 4, 57, 127
1, 118022, Note_off_c, 3, 74, 64
1, 118022, Note_off_c, 2, 69, 64
1, 118060, Note_on_c, 3, 74, 103
1, 118068, Note_off_c, 3, 73, 64
1, 118106, Note_on_c, 3, 75, 98
1, 118106, Note_on_c, 3, 64, 127
1, 118113, Note_off_c, 3, 74, 64
1, 118149, Note_on_c, 3, 76, 98
1, 118157, Note_off_c, 3, 75, 64
1, 118163, Note_off_c, 4, 57, 64
1, 118193, Note_on_c, 3, 77, 98
1, 118194, Note_on_c, 2, 67, 127
1, 118200, Note_off_c, 3, 76, 64
1, 118200, Note_off_c, 3, 64, 64
1, 118237, Note_on_c, 3, 78, 96
1, 118243, Note_off_c, 3, 77, 64
1, 118280, Note_on_c, 4, 57, 127
1, 118280, Note_on_c, 3, 79, 98
1, 118288, Note_off_c, 3, 78, 64
1, 118289, Note_off_c, 2, 67, 64
1, 118324, Note_on_c, 0, 81, 96
1, 118330, Note_off_c, 3, 79, 64
1, 118366, Note_on_c, 0, 83, 93
1, 118367, Note_on_c, 3, 64, 127
1, 118373, Note_off_c, 0, 81, 64
1, 118409, Note_on_c, 3, 79, 95
1, 118417, Note_off_c, 0, 83, 64
1, 118423, Note_off_c, 4, 57, 64
1, 118453, Note_on_c, 3, 76, 104
1, 118454, Note_on_c, 2, 67, 127
1, 118460, Note_off_c, 3, 79, 64
1, 118461, Note_off_c, 3, 64, 64
1, 118498, Note_on_c, 3, 73, 108
1, 118505, Note_off_c, 3, 76, 64
1, 118543, Note_off_c, 3, 73, 64
1, 118543, Note_off_c, 2, 67, 64
1, 118546, Note_on_c, 3, 74, 116
1, 118546, Note_on_c, 2, 66, 127
1, 118547, Note_on_c, 3, 62, 127
1, 118637, Note_on_c, 2, 69, 122
1, 118722, Note_off_c, 2, 69, 64
1, 118724, Note_off_c, 3, 62, 64
1, 118725, Note_off_c, 2, 66, 64
1, 118729, Note_off_c, 3, 74, 64
1, 118729, Note_on_c, 3, 78, 109
1, 118730, Note_on_c, 2, 69, 122
1, 118821, Note_on_c, 3, 74, 116
1, 118822, Note_on_c, 2, 66, 127
1, 118822, Note_on_c, 3, 62, 127
1, 118827, Note_off_c, 2, 69, 64
1, 118879, Note_off_c, 3, 78, 64
1, 118911, Note_on_c, 2, 69, 122
1, 118996, Note_off_c, 2, 69, 64
1, 119000, Note_off_c, 3, 62, 64
1, 119000, Note_off_c, 2, 66, 64
1, 119004, Note_off_c, 3, 74, 64
1, 119005, Note_on_c, 3, 78, 109
1, 119005, Note_on_c, 2, 69, 122
1, 119102, Note_on_c, 3, 74, 116
1, 119103, Note_on_c, 3, 62, 127
1, 119103, Note_on_c, 2, 66, 127
1, 119109, Note_off_c, 2, 69, 64
1, 119110, Note_off_c, 3, 78, 64
1, 119529, Note_off_c, 3, 74, 64
1, 119607, Note_off_c, 3, 62, 64
1, 119608, Note_off_c, 2, 66, 64
1, 119612, Note_on_c, 0, 81, 113
1, 119613, Note_on_c, 4, 60, 126
1, 119613, Note_on_c, 4, 57, 126
1, 119706, Note_on_c, 3, 76, 114
1, 119800, Note_off_c, 4, 57, 64
1, 119801, Note_off_c, 0, 81, 64
1, 119801, Note_off_c, 4, 60, 64
1, 119802, Note_on_c, 0, 84, 116
1, 119802, Note_on_c, 3, 64, 125
1, 119892, Note_off_c, 3, 76, 64
1, 119893, Note_on_c, 4, 60, 126
1, 119893, Note_on_c, 0, 81, 116
1, 119894, Note_on_c, 4, 57, 126
1, 119900, Note_off_c, 3, 64, 64
1, 119901, Note_off_c, 0, 84, 64
1, 119986, Note_on_c, 3, 76, 117
1, 120076, Note_off_c, 4, 60, 64
1, 120076, Note_off_c, 4, 57, 64
1, 120077, Note_off_c, 0, 81, 64
1, 120077, Note_on_c, 0, 84, 116
1, 120078, Note_on_c, 3, 64, 125
1, 120172, Note_off_c, 3, 76, 64
1, 120172, Note_on_c, 0, 81, 116
1, 120173, Note_on_c, 4, 60, 126
1, 120173, Note_on_c, 4, 57, 126
1, 120178, Note_off_c, 3, 64, 64
1, 120178, Note_off_c, 0, 84, 64
1, 120521, Note_off_c, 0, 81, 64
1, 120686, Note_off_c, 4, 57, 64
1, 120686, Note_off_c, 4, 60, 64
1, 120693, Note_on_c, 3, 63, 125
1, 120693, Note_on_c, 0, 81, 116
1, 120694, Note_on_c, 4, 60, 126
1, 120694, Note_on_c, 4, 53, 126
1, 120785, Note_on_c, 3, 75, 116
1, 120877, Note_off_c, 0, 81, 64
1, 120877, Note_off_c, 4, 53, 64
1, 120878, Note_on_c, 4, 54, 126
1, 120878, Note_on_c, 0, 84, 116
1, 120961, Note_off_c, 4, 60, 64
1, 120962, Note_off_c, 3, 63, 64
1, 120970, Note_off_c, 3, 75, 64
1, 120971, Note_on_c, 3, 63, 125
1, 120971, Note_on_c, 0, 81, 116
1, 120972, Note_on_c, 4, 60, 126
1, 120972, Note_on_c, 4, 53, 126
1, 120978, Note_off_c, 0, 84, 64
1, 120978, Note_off_c, 4, 54, 64
1, 121063, Note_on_c, 3, 75, 116
1, 121154, Note_off_c, 4, 53, 64
1, 121155, Note_off_c, 0, 81, 64
1, 121155, Note_on_c, 0, 84, 116
1, 121156, Note_on_c, 4, 54, 126
1, 121237, Note_off_c, 3, 63, 64
1, 121237, Note_off_c, 4, 60, 64
1, 121246, Note_off_c, 3, 75, 64
1, 121246, Note_on_c, 0, 81, 116
1, 121247, Note_on_c, 4, 60, 126
1, 121247, Note_on_c, 3, 63, 125
1, 121248, Note_on_c, 4, 53, 126
1, 121252, Note_off_c, 4, 54, 64
1, 121253, Note_off_c, 0, 84, 64
1, 121606, Note_off_c, 0, 81, 64
1, 121657, Note_off_c, 4, 60, 64
1, 121658, Note_off_c, 3, 63, 64
1, 121695, Note_on_c, 4, 65, 127
1, 121789, Note_on_c, 2, 70, 120
1, 121797, Note_off_c, 4, 65, 64
1, 121875, Note_on_c, 4, 65, 127
1, 121882, Note_off_c, 2, 70, 64
1, 121964, Note_on_c, 2, 70, 120
1, 121971, Note_off_c, 4, 65, 64
1, 122052, Note_on_c, 3, 74, 109
1, 122060, Note_off_c, 2, 70, 64
1, 122139, Note_on_c, 2, 70, 120
1, 122146, Note_off_c, 3, 74, 64
1, 122188, Note_off_c, 4, 53, 64
1, 122225, Note_on_c, 3, 74, 109
1, 122225, Note_on_c, 4, 53, 127
1, 122232, Note_off_c, 2, 70, 64
1, 122312, Note_on_c, 3, 77, 114
1, 122313, Note_on_c, 4, 58, 127
1, 122319, Note_off_c, 4, 53, 64
1, 122319, Note_off_c, 3, 74, 64
1, 122401, Note_on_c, 4, 53, 127
1, 122409, Note_off_c, 4, 58, 64
1, 122484, Note_off_c, 3, 77, 64
1, 122488, Note_on_c, 3, 77, 114
1, 122489, Note_on_c, 4, 58, 127
1, 122496, Note_off_c, 4, 53, 64
1, 122569, Note_off_c, 3, 77, 64
1, 122575, Note_on_c, 3, 77, 111
1, 122576, Note_on_c, 3, 62, 127
1, 122582, Note_off_c, 4, 58, 64
1, 122661, Note_on_c, 4, 58, 127
1, 122669, Note_off_c, 3, 62, 64
1, 122741, Note_off_c, 3, 77, 64
1, 122746, Note_on_c, 0, 82, 109
1, 122746, Note_on_c, 3, 62, 127
1, 122754, Note_off_c, 4, 58, 64
1, 122831, Note_on_c, 0, 81, 112
1, 122832, Note_on_c, 4, 65, 127
1, 122838, Note_off_c, 3, 62, 64
1, 122838, Note_off_c, 0, 82, 64
1, 122873, Note_on_c, 3, 79, 112
1, 122881, Note_off_c, 0, 81, 64
1, 122916, Note_on_c, 3, 77, 114
1, 122923, Note_off_c, 3, 79, 64
1, 122962, Note_on_c, 3, 79, 112
1, 122967, Note_off_c, 3, 77, 64
1, 123000, Note_off_c, 4, 65, 64
1, 123004, Note_on_c, 0, 81, 112
1, 123004, Note_on_c, 4, 65, 127
1, 123012, Note_off_c, 3, 79, 64
1, 123049, Note_on_c, 0, 82, 112
1, 123057, Note_off_c, 0, 81, 64
1, 123085, Note_off_c, 4, 65, 64
1, 123091, Note_on_c, 0, 84, 112
1, 123092, Note_on_c, 4, 65, 127
1, 123098, Note_off_c, 0, 82, 64
1, 123134, Note_on_c, 0, 82, 112
1, 123142, Note_off_c, 0, 84, 64
1, 123177, Note_on_c, 0, 81, 108
1, 123184, Note_off_c, 0, 82, 64
1, 123221, Note_on_c, 0, 82, 108
1, 123227, Note_off_c, 0, 81, 64
1, 123260, Note_off_c, 4, 65, 64
1, 123264, Note_on_c, 0, 84, 108
1, 123264, Note_on_c, 2, 70, 116
1, 123271, Note_off_c, 0, 82, 64
1, 123305, Note_on_c, 0, 86, 108
1, 123314, Note_off_c, 0, 84, 64
1, 123346, Note_off_c, 0, 86, 64
1, 123348, Note_on_c, 0, 87, 102
1, 123349, Note_on_c, 2, 69, 118
1, 123356, Note_off_c, 2, 70, 64
1, 123392, Note_on_c, 2, 67, 127
1, 123399, Note_off_c, 2, 69, 64
1, 123436, Note_on_c, 3, 77, 107
1, 123436, Note_on_c, 4, 65, 127
1, 123444, Note_off_c, 2, 67, 64
1, 123480, Note_on_c, 2, 67, 127
1, 123489, Note_off_c, 4, 65, 64
1, 123521, Note_off_c, 0, 87, 64
1, 123525, Note_on_c, 0, 87, 102
1, 123526, Note_on_c, 2, 69, 118
1, 123532, Note_off_c, 2, 67, 64
1, 123568, Note_on_c, 2, 70, 116
1, 123576, Note_off_c, 2, 69, 64
1, 123611, Note_on_c, 3, 72, 113
1, 123618, Note_off_c, 2, 70, 64
1, 123655, Note_on_c, 2, 70, 116
1, 123662, Note_off_c, 3, 72, 64
1, 123691, Note_off_c, 3, 77, 64
1, 123697, Note_on_c, 3, 77, 107
1, 123697, Note_on_c, 2, 69, 118
1, 123706, Note_off_c, 2, 70, 64
1, 123742, Note_on_c, 2, 70, 116
1, 123750, Note_off_c, 2, 69, 64
1, 123780, Note_off_c, 0, 87, 64
1, 123788, Note_on_c, 0, 87, 102
1, 123789, Note_on_c, 3, 72, 113
1, 123795, Note_off_c, 2, 70, 64
1, 123833, Note_on_c, 3, 74, 105
1, 123841, Note_off_c, 3, 72, 64
1, 123876, Note_off_c, 3, 77, 64
1, 123879, Note_on_c, 3, 75, 102
1, 123887, Note_off_c, 3, 74, 64
1, 123916, Note_off_c, 0, 87, 64
1, 123925, Note_on_c, 0, 89, 102
1, 123968, Note_on_c, 0, 87, 102
1, 123975, Note_off_c, 0, 89, 64
1, 124008, Note_off_c, 3, 75, 64
1, 124010, Note_on_c, 0, 86, 105
1, 124010, Note_on_c, 3, 77, 107
1, 124017, Note_off_c, 0, 87, 64
1, 124053, Note_on_c, 0, 84, 105
1, 124054, Note_on_c, 3, 75, 102
1, 124062, Note_off_c, 3, 77, 64
1, 124062, Note_off_c, 0, 86, 64
1, 124099, Note_on_c, 0, 82, 105
1, 124100, Note_on_c, 3, 74, 105
1, 124106, Note_off_c, 0, 84, 64
1, 124106, Note_off_c, 3, 75, 64
1, 124143, Note_on_c, 0, 81, 105
1, 124144, Note_on_c, 3, 72, 113
1, 124152, Note_off_c, 3, 74, 64
1, 124152, Note_off_c, 0, 82, 64
1, 124189, Note_on_c, 0, 82, 105
1, 124190, Note_on_c, 3, 74, 105
1, 124196, Note_off_c, 3, 72, 64
1, 124197, Note_off_c, 0, 81, 64
1, 124234, Note_on_c, 0, 81, 105
1, 124234, Note_on_c, 3, 72, 117
1, 124240, Note_off_c, 3, 74, 64
1, 124241, Note_off_c, 0, 82, 64
1, 124280, Note_on_c, 3, 79, 105
1, 124280, Note_on_c, 2, 70, 120
1, 124288, Note_off_c, 3, 72, 64
1, 124289, Note_off_c, 0, 81, 64
1, 124326, Note_on_c, 2, 69, 122
1, 124326, Note_on_c, 3, 77, 107
1, 124334, Note_off_c, 2, 70, 64
1, 124335, Note_off_c, 3, 79, 64
1, 124376, Note_on_c, 2, 67, 127
1, 124376, Note_on_c, 3, 75, 106
1, 124382, Note_off_c, 2, 69, 64
1, 124383, Note_off_c, 3, 77, 64
1, 124424, Note_on_c, 2, 66, 127
1, 124424, Note_on_c, 3, 74, 112
1, 124430, Note_off_c, 2, 67, 64
1, 124431, Note_off_c, 3, 75, 64
1, 124468, Note_on_c, 3, 75, 109
1, 124476, Note_off_c, 3, 74, 64
1, 124512, Note_on_c, 3, 74, 112
1, 124520, Note_off_c, 3, 75, 64
1, 124558, Note_on_c, 0, 84, 109
1, 124595, Note_off_c, 3, 74, 64
1, 124602, Note_off_c, 2, 66, 64
1, 124603, Note_on_c, 2, 67, 127
1, 124603, Note_on_c, 3, 76, 107
1, 124638, Note_off_c, 0, 84, 64
1, 124645, Note_on_c, 0, 84, 109
1, 124682, Note_off_c, 3, 76, 64
1, 124690, Note_on_c, 2, 66, 127
1, 124690, Note_on_c, 3, 74, 112
1, 124696, Note_off_c, 2, 67, 64
1, 124727, Note_off_c, 0, 84, 64
1, 124735, Note_on_c, 3, 75, 109
1, 124742, Note_off_c, 3, 74, 64
1, 124779, Note_on_c, 3, 74, 112
1, 124787, Note_off_c, 3, 75, 64
1, 124823, Note_on_c, 0, 84, 109
1, 124862, Note_off_c, 3, 74, 64
1, 124867, Note_off_c, 2, 66, 64
1, 124868, Note_on_c, 2, 67, 127
1, 124868, Note_on_c, 3, 75, 109
1, 124905, Note_off_c, 0, 84, 64
1, 124911, Note_on_c, 0, 84, 109
1, 124949, Note_off_c, 3, 75, 64
1, 124955, Note_on_c, 3, 74, 112
1, 124956, Note_on_c, 2, 66, 127
1, 124963, Note_off_c, 2, 67, 64
1, 124992, Note_off_c, 0, 84, 64
1, 124998, Note_on_c, 0, 84, 109
1, 125034, Note_off_c, 3, 74, 64
1, 125040, Note_on_c, 0, 81, 109
1, 125046, Note_off_c, 0, 84, 64
1, 125083, Note_on_c, 3, 79, 112
1, 125090, Note_off_c, 0, 81, 64
1, 125125, Note_on_c, 3, 78, 110
1, 125133, Note_off_c, 3, 79, 64
1, 125171, Note_on_c, 3, 75, 109
1, 125179, Note_off_c, 3, 78, 64
1, 125215, Note_on_c, 3, 74, 112
1, 125223, Note_off_c, 3, 75, 64
1, 125257, Note_on_c, 3, 75, 109
1, 125264, Note_off_c, 3, 74, 64
1, 125301, Note_on_c, 3, 74, 112
1, 125308, Note_off_c, 3, 75, 64
1, 125343, Note_on_c, 3, 72, 120
1, 125351, Note_off_c, 3, 74, 64
1, 125385, Note_on_c, 2, 70, 122
1, 125386, Note_on_c, 4, 50, 127
1, 125394, Note_off_c, 3, 72, 64
1, 125430, Note_on_c, 2, 69, 124
1, 125438, Note_off_c, 2, 70, 64
1, 125468, Note_off_c, 2, 66, 64
1, 125476, Note_on_c, 2, 67, 127
1, 125477, Note_on_c, 4, 55, 127
1, 125483, Note_off_c, 4, 50, 64
1, 125484, Note_off_c, 2, 69, 64
1, 125567, Note_on_c, 4, 50, 127
1, 125574, Note_off_c, 4, 55, 64
1, 125653, Note_off_c, 2, 67, 64
1, 125654, Note_on_c, 3, 62, 127
1, 125654, Note_on_c, 4, 55, 127
1, 125663, Note_off_c, 4, 50, 64
1, 125747, Note_on_c, 2, 67, 127
1, 125748, Note_on_c, 4, 58, 127
1, 125754, Note_off_c, 4, 55, 64
1, 125754, Note_off_c, 3, 62, 64
1, 125837, Note_on_c, 3, 62, 127
1, 125838, Note_on_c, 4, 55, 127
1, 125844, Note_off_c, 2, 67, 64
1, 125844, Note_off_c, 4, 58, 64
1, 125928, Note_on_c, 4, 58, 127
1, 125928, Note_on_c, 2, 67, 127
1, 125934, Note_off_c, 4, 55, 64
1, 125935, Note_off_c, 3, 62, 64
1, 126020, Note_on_c, 2, 70, 122
1, 126020, Note_on_c, 3, 62, 127
1, 126026, Note_off_c, 4, 58, 64
1, 126027, Note_off_c, 2, 67, 64
1, 126112, Note_on_c, 2, 67, 127
1, 126118, Note_off_c, 2, 70, 64
1, 126192, Note_off_c, 3, 62, 64
1, 126198, Note_on_c, 2, 70, 122
1, 126199, Note_on_c, 3, 62, 127
1, 126205, Note_off_c, 2, 67, 64
1, 126280, Note_off_c, 3, 62, 64
1, 126288, Note_on_c, 3, 74, 115
1, 126288, Note_on_c, 3, 62, 127
1, 126294, Note_off_c, 2, 70, 64
1, 126456, Note_off_c, 3, 62, 64
1, 126456, Note_off_c, 3, 74, 64
1, 126460, Note_on_c, 3, 74, 109
1, 126461, Note_on_c, 2, 67, 127
1, 126544, Note_off_c, 3, 74, 64
1, 126552, Note_on_c, 3, 74, 109
1, 126552, Note_on_c, 2, 66, 127
1, 126556, Note_off_c, 2, 67, 64
1, 126597, Note_on_c, 3, 64, 127
1, 126604, Note_off_c, 2, 66, 64
1, 126641, Note_on_c, 2, 66, 127
1, 126648, Note_off_c, 3, 64, 64
1, 126685, Note_on_c, 3, 62, 127
1, 126691, Note_off_c, 2, 66, 64
1, 126723, Note_off_c, 3, 74, 64
1, 126727, Note_on_c, 3, 79, 106
1, 126728, Note_on_c, 2, 70, 120
1, 126779, Note_off_c, 3, 62, 64
1, 126813, Note_off_c, 3, 79, 64
1, 126814, Note_on_c, 2, 69, 122
1, 126814, Note_on_c, 3, 78, 104
1, 126820, Note_off_c, 2, 70, 64
1, 126855, Note_on_c, 3, 76, 107
1, 126863, Note_off_c, 3, 78, 64
1, 126901, Note_on_c, 3, 78, 104
1, 126909, Note_off_c, 3, 76, 64
1, 126945, Note_on_c, 3, 74, 109
1, 126953, Note_off_c, 3, 78, 64
1, 126989, Note_off_c, 2, 69, 64
1, 126990, Note_on_c, 0, 82, 106
1, 126990, Note_on_c, 2, 67, 127
1, 126998, Note_off_c, 3, 74, 64
1, 127082, Note_on_c, 0, 81, 106
1, 127083, Note_on_c, 2, 66, 127
1, 127089, Note_off_c, 2, 67, 64
1, 127090, Note_off_c, 0, 82, 64
1, 127127, Note_on_c, 3, 64, 127
1, 127132, Note_off_c, 2, 66, 64
1, 127171, Note_on_c, 2, 66, 127
1, 127175, Note_off_c, 3, 64, 64
1, 127213, Note_on_c, 3, 62, 127
1, 127234, Note_off_c, 2, 66, 64
1, 127253, Note_off_c, 0, 81, 64
1, 127258, Note_on_c, 0, 81, 106
1, 127258, Note_on_c, 3, 72, 117
1, 127310, Note_off_c, 3, 62, 64
1, 127346, Note_on_c, 3, 79, 106
1, 127347, Note_on_c, 2, 70, 122
1, 127354, Note_off_c, 3, 72, 64
1, 127354, Note_off_c, 0, 81, 64
1, 127389, Note_on_c, 3, 78, 104
1, 127397, Note_off_c, 3, 79, 64
1, 127433, Note_on_c, 3, 79, 106
1, 127439, Note_off_c, 3, 78, 64
1, 127476, Note_on_c, 3, 74, 109
1, 127484, Note_off_c, 3, 79, 64
1, 127516, Note_off_c, 2, 70, 64
1, 127523, Note_on_c, 0, 84, 106
1, 127523, Note_on_c, 2, 69, 124
1, 127566, Note_off_c, 3, 74, 64
1, 127612, Note_on_c, 2, 67, 127
1, 127612, Note_on_c, 0, 82, 106
1, 127619, Note_off_c, 2, 69, 64
1, 127619, Note_off_c, 0, 84, 64
1, 127656, Note_on_c, 3, 74, 109
1, 127702, Note_on_c, 3, 75, 106
1, 127710, Note_off_c, 3, 74, 64
1, 127747, Note_on_c, 3, 74, 109
1, 127753, Note_off_c, 3, 75, 64
1, 127791, Note_off_c, 0, 82, 64
1, 127792, Note_on_c, 3, 75, 106
1, 127798, Note_off_c, 3, 74, 64
1, 127836, Note_on_c, 3, 74, 109
1, 127844, Note_off_c, 3, 75, 64
1, 127881, Note_off_c, 2, 67, 64
1, 127881, Note_on_c, 0, 81, 106
1, 127882, Note_on_c, 4, 65, 127
1, 127889, Note_off_c, 3, 74, 64
1, 127926, Note_on_c, 3, 75, 106
1, 127970, Note_on_c, 3, 76, 107
1, 127978, Note_off_c, 3, 75, 64
1, 128014, Note_on_c, 3, 75, 106
1, 128022, Note_off_c, 3, 76, 64
1, 128058, Note_off_c, 0, 81, 64
1, 128059, Note_on_c, 3, 76, 107
1, 128065, Note_off_c, 3, 75, 64
1, 128101, Note_on_c, 3, 75, 106
1, 128109, Note_off_c, 3, 76, 64
1, 128146, Note_off_c, 4, 65, 64
1, 128146, Note_on_c, 0, 80, 106
1, 128147, Note_on_c, 3, 64, 127
1, 128154, Note_off_c, 3, 75, 64
1, 128193, Note_on_c, 0, 81, 106
1, 128200, Note_off_c, 0, 80, 64
1, 128237, Note_on_c, 0, 83, 106
1, 128244, Note_off_c, 0, 81, 64
1, 128280, Note_on_c, 0, 84, 106
1, 128286, Note_off_c, 0, 83, 64
1, 128322, Note_on_c, 0, 86, 102
1, 128330, Note_off_c, 0, 84, 64
1, 128364, Note_on_c, 0, 84, 102
1, 128372, Note_off_c, 0, 86, 64
1, 128407, Note_on_c, 0, 83, 102
1, 128412, Note_off_c, 0, 84, 64
1, 128447, Note_on_c, 0, 81, 102
1, 128453, Note_off_c, 0, 83, 64
1, 128487, Note_on_c, 3, 79, 102
1, 128495, Note_off_c, 0, 81, 64
1, 128530, Note_on_c, 3, 77, 103
1, 128537, Note_off_c, 3, 79, 64
1, 128572, Note_on_c, 3, 76, 103
1, 128580, Note_off_c, 3, 77, 64
1, 128615, Note_on_c, 3, 74, 105
1, 128623, Note_off_c, 3, 76, 64
1, 128660, Note_off_c, 3, 64, 64
1, 128660, Note_on_c, 3, 72, 113
1, 128661, Note_on_c, 4, 57, 127
1, 128669, Note_off_c, 3, 74, 64
1, 128705, Note_on_c, 3, 64, 127
1, 128749, Note_on_c, 4, 65, 127
1, 128757, Note_off_c, 3, 64, 64
1, 128794, Note_on_c, 3, 64, 127
1, 128801, Note_off_c, 4, 65, 64
1, 128838, Note_on_c, 4, 65, 127
1, 128845, Note_off_c, 3, 64, 64
1, 128882, Note_on_c, 3, 64, 127
1, 128890, Note_off_c, 4, 65, 64
1, 128922, Note_off_c, 3, 72, 64
1, 128925, Note_on_c, 3, 71, 118
1, 128926, Note_on_c, 4, 55, 127
1, 128934, Note_off_c, 3, 64, 64
1, 128934, Note_off_c, 4, 57, 64
1, 128969, Note_on_c, 4, 65, 127
1, 129015, Note_on_c, 2, 66, 127
1, 129021, Note_off_c, 4, 65, 64
1, 129058, Note_on_c, 4, 65, 127
1, 129065, Note_off_c, 2, 66, 64
1, 129104, Note_on_c, 2, 66, 127
1, 129111, Note_off_c, 4, 65, 64
1, 129148, Note_on_c, 4, 65, 127
1, 129156, Note_off_c, 2, 66, 64
1, 129194, Note_on_c, 4, 54, 127
1, 129194, Note_on_c, 2, 66, 127
1, 129203, Note_off_c, 4, 65, 64
1, 129203, Note_off_c, 4, 55, 64
1, 129217, Note_off_c, 3, 71, 64
1, 129240, Note_on_c, 3, 70, 120
1, 129284, Note_on_c, 3, 73, 109
1, 129292, Note_off_c, 3, 70, 64
1, 129327, Note_on_c, 3, 78, 104
1, 129335, Note_off_c, 3, 73, 64
1, 129370, Note_on_c, 0, 82, 106
1, 129375, Note_off_c, 3, 78, 64
1, 129410, Note_on_c, 0, 85, 106
1, 129416, Note_off_c, 0, 82, 64
1, 129451, Note_on_c, 0, 88, 106
1, 129457, Note_off_c, 0, 85, 64
1, 129492, Note_on_c, 0, 85, 106
1, 129497, Note_off_c, 0, 88, 64
1, 129532, Note_on_c, 0, 82, 106
1, 129538, Note_off_c, 0, 85, 64
1, 129572, Note_on_c, 3, 79, 106
1, 129580, Note_off_c, 0, 82, 64
1, 129617, Note_on_c, 3, 78, 104
1, 129624, Note_off_c, 3, 79, 64
1, 129661, Note_on_c, 3, 76, 107
1, 129668, Note_off_c, 3, 78, 64
1, 129709, Note_off_c, 2, 66, 64
1, 129709, Note_off_c, 4, 54, 64
1, 129709, Note_on_c, 3, 74, 109
1, 129716, Note_off_c, 3, 76, 64
1, 129752, Note_on_c, 4, 59, 127
1, 129794, Note_on_c, 3, 62, 127
1, 129837, Note_on_c, 2, 66, 127
1, 129842, Note_off_c, 3, 62, 64
1, 129843, Note_off_c, 4, 59, 64
1, 129874, Note_off_c, 3, 74, 64
1, 129878, Note_on_c, 2, 71, 120
1, 129886, Note_off_c, 2, 66, 64
1, 129922, Note_on_c, 3, 74, 112
1, 129959, Note_off_c, 2, 71, 64
1, 129964, Note_on_c, 3, 77, 110
1, 129965, Note_on_c, 2, 71, 120
1, 129973, Note_off_c, 3, 74, 64
1, 130009, Note_on_c, 4, 55, 127
1, 130052, Note_on_c, 4, 59, 127
1, 130098, Note_on_c, 3, 62, 127
1, 130105, Note_off_c, 4, 59, 64
1, 130106, Note_off_c, 4, 55, 64
1, 130143, Note_on_c, 2, 67, 127
1, 130151, Note_off_c, 3, 62, 64
1, 130183, Note_off_c, 2, 71, 64
1, 130184, Note_off_c, 3, 77, 64
1, 130192, Note_on_c, 2, 71, 120
1, 130192, Note_on_c, 3, 77, 110
1, 130200, Note_off_c, 2, 67, 64
1, 130243, Note_on_c, 4, 54, 127
1, 130243, Note_on_c, 3, 78, 107
1, 130251, Note_off_c, 3, 77, 64
1, 130288, Note_on_c, 3, 73, 112
1, 130296, Note_off_c, 3, 78, 64
1, 130296, Note_off_c, 2, 71, 64
1, 130333, Note_on_c, 3, 78, 107
1, 130333, Note_on_c, 4, 61, 127
1, 130334, Note_on_c, 4, 58, 127
1, 130340, Note_off_c, 3, 73, 64
1, 130376, Note_on_c, 0, 82, 109
1, 130405, Note_off_c, 3, 78, 64
1, 130414, Note_off_c, 4, 58, 64
1, 130415, Note_off_c, 4, 61, 64
1, 130421, Note_on_c, 0, 85, 106
1, 130422, Note_on_c, 4, 61, 127
1, 130422, Note_on_c, 4, 58, 127
1, 130449, Note_off_c, 0, 82, 64
1, 130463, Note_on_c, 0, 82, 109
1, 130493, Note_off_c, 0, 85, 64
1, 130505, Note_off_c, 4, 54, 64
1, 130507, Note_on_c, 4, 54, 127
1, 130507, Note_on_c, 0, 86, 106
1, 130538, Note_off_c, 0, 82, 64
1, 130554, Note_on_c, 0, 83, 109
1, 130583, Note_off_c, 0, 86, 64
1, 130596, Note_off_c, 4, 58, 64
1, 130596, Note_off_c, 4, 61, 64
1, 130597, Note_on_c, 0, 86, 106
1, 130597, Note_on_c, 3, 62, 127
1, 130598, Note_on_c, 4, 59, 127
1, 130628, Note_off_c, 0, 83, 64
1, 130641, Note_on_c, 0, 83, 109
1, 130649, Note_off_c, 0, 86, 64
1, 130681, Note_off_c, 4, 59, 64
1, 130682, Note_off_c, 3, 62, 64
1, 130686, Note_on_c, 0, 80, 109
1, 130687, Note_on_c, 4, 59, 127
1, 130687, Note_on_c, 3, 62, 127
1, 130695, Note_off_c, 0, 83, 64
1, 130731, Note_on_c, 3, 77, 110
1, 130739, Note_off_c, 0, 80, 64
1, 130774, Note_off_c, 4, 54, 64
1, 130777, Note_on_c, 3, 78, 107
1, 130778, Note_on_c, 4, 54, 127
1, 130786, Note_off_c, 3, 77, 64
1, 130823, Note_on_c, 3, 73, 112
1, 130830, Note_off_c, 3, 78, 64
1, 130869, Note_off_c, 3, 62, 64
1, 130869, Note_off_c, 4, 59, 64
1, 130870, Note_on_c, 3, 78, 107
1, 130870, Note_on_c, 4, 61, 127
1, 130871, Note_on_c, 4, 58, 127
1, 130876, Note_off_c, 3, 73, 64
1, 130915, Note_on_c, 0, 82, 109
1, 130944, Note_off_c, 3, 78, 64
1, 130951, Note_off_c, 4, 58, 64
1, 130952, Note_off_c, 4, 61, 64
1, 130958, Note_on_c, 4, 61, 127
1, 130958, Note_on_c, 0, 85, 106
1, 130959, Note_on_c, 4, 58, 127
1, 130989, Note_off_c, 0, 82, 64
1, 131002, Note_on_c, 0, 82, 109
1, 131029, Note_off_c, 0, 85, 64
1, 131040, Note_off_c, 4, 54, 64
1, 131044, Note_on_c, 0, 86, 106
1, 131045, Note_on_c, 4, 54, 127
1, 131072, Note_off_c, 0, 82, 64
1, 131086, Note_on_c, 0, 83, 109
1, 131115, Note_off_c, 0, 86, 64
1, 131131, Note_off_c, 4, 61, 64
1, 131131, Note_off_c, 4, 58, 64
1, 131132, Note_on_c, 0, 86, 106
1, 131132, Note_on_c, 3, 62, 127
1, 131133, Note_on_c, 4, 59, 127
1, 131159, Note_off_c, 0, 83, 64
1, 131174, Note_on_c, 0, 83, 109
1, 131182, Note_off_c, 0, 86, 64
1, 131212, Note_off_c, 4, 59, 64
1, 131213, Note_off_c, 3, 62, 64
1, 131218, Note_on_c, 3, 62, 127
1, 131218, Note_on_c, 0, 80, 109
1, 131219, Note_on_c, 4, 59, 127
1, 131226, Note_off_c, 0, 83, 64
1, 131262, Note_on_c, 3, 77, 110
1, 131270, Note_off_c, 0, 80, 64
1, 131302, Note_off_c, 3, 62, 64
1, 131302, Note_off_c, 4, 59, 64
1, 131304, Note_off_c, 4, 54, 64
1, 131308, Note_on_c, 3, 78, 107
1, 131309, Note_on_c, 4, 61, 127
1, 131309, Note_on_c, 4, 58, 127
1, 131310, Note_on_c, 4, 54, 127
1, 131316, Note_off_c, 3, 77, 64
1, 131399, Note_on_c, 3, 73, 116
1, 131485, Note_off_c, 3, 78, 64
1, 131485, Note_on_c, 0, 82, 113
1, 131574, Note_off_c, 3, 73, 64
1, 131575, Note_on_c, 3, 78, 111
1, 131581, Note_off_c, 0, 82, 64
1, 131660, Note_on_c, 3, 73, 116
1, 131752, Note_off_c, 3, 78, 64
1, 131752, Note_on_c, 0, 82, 113
1, 131845, Note_off_c, 3, 73, 64
1, 131845, Note_off_c, 4, 54, 64
1, 131846, Note_off_c, 4, 58, 64
1, 131846, Note_off_c, 4, 61, 64
1, 131847, Note_on_c, 3, 78, 111
1, 131847, Note_on_c, 2, 66, 126
1, 131854, Note_off_c, 0, 82, 64
1, 131938, Note_on_c, 4, 61, 126
1, 132025, Note_off_c, 2, 66, 64
1, 132025, Note_on_c, 2, 70, 112
1, 132114, Note_off_c, 4, 61, 64
1, 132115, Note_on_c, 2, 66, 126
1, 132121, Note_off_c, 2, 70, 64
1, 132200, Note_on_c, 4, 61, 126
1, 132286, Note_off_c, 2, 66, 64
1, 132287, Note_on_c, 2, 70, 112
1, 132366, Note_off_c, 3, 78, 64
1, 132373, Note_off_c, 4, 61, 64
1, 132374, Note_on_c, 2, 66, 126
1, 132374, Note_on_c, 3, 78, 108
1, 132380, Note_off_c, 2, 70, 64
1, 132465, Note_on_c, 3, 73, 113
1, 132556, Note_off_c, 3, 78, 64
1, 132557, Note_on_c, 0, 81, 110
1, 132644, Note_off_c, 3, 73, 64
1, 132645, Note_on_c, 3, 78, 108
1, 132651, Note_off_c, 0, 81, 64
1, 132730, Note_on_c, 3, 73, 113
1, 132814, Note_off_c, 3, 78, 64
1, 132815, Note_on_c, 0, 81, 110
1, 132894, Note_off_c, 2, 66, 64
1, 132900, Note_off_c, 3, 73, 64
1, 132900, Note_on_c, 3, 66, 127
1, 132900, Note_on_c, 0, 80, 110
1, 132901, Note_on_c, 3, 71, 118
1, 132908, Note_off_c, 0, 81, 64
1, 132991, Note_on_c, 3, 73, 113
1, 133081, Note_off_c, 0, 80, 64
1, 133081, Note_on_c, 0, 83, 110
1, 133169, Note_off_c, 3, 73, 64
1, 133170, Note_on_c, 4, 65, 127
1, 133170, Note_on_c, 0, 80, 110
1, 133171, Note_off_c, 3, 66, 64
1, 133175, Note_off_c, 0, 83, 64
1, 133256, Note_on_c, 3, 73, 113
1, 133342, Note_off_c, 0, 80, 64
1, 133343, Note_on_c, 0, 83, 114
1, 133431, Note_off_c, 3, 73, 64
1, 133432, Note_off_c, 4, 65, 64
1, 133432, Note_on_c, 0, 82, 114
1, 133433, Note_on_c, 3, 64, 127
1, 133433, Note_on_c, 3, 67, 127
1, 133434, Note_off_c, 3, 71, 64
1, 133440, Note_off_c, 0, 83, 64
1, 133523, Note_on_c, 3, 73, 116
1, 133609, Note_off_c, 0, 82, 64
1, 133609, Note_on_c, 0, 85, 117
1, 133694, Note_off_c, 3, 73, 64
1, 133695, Note_off_c, 3, 67, 64
1, 133695, Note_on_c, 0, 82, 117
1, 133696, Note_on_c, 3, 66, 127
1, 133702, Note_off_c, 0, 85, 64
1, 133779, Note_on_c, 3, 73, 116
1, 133862, Note_off_c, 0, 82, 64
1, 133863, Note_on_c, 0, 85, 117
1, 133946, Note_off_c, 3, 66, 64
1, 133946, Note_off_c, 3, 73, 64
1, 133947, Note_off_c, 3, 64, 64
1, 133947, Note_on_c, 0, 83, 123
1, 133948, Note_on_c, 4, 59, 127
1, 133952, Note_off_c, 0, 85, 64
1, 134034, Note_on_c, 4, 54, 127
1, 134123, Note_off_c, 4, 59, 64
1, 134123, Note_on_c, 3, 62, 127
1, 134207, Note_off_c, 4, 54, 64
1, 134207, Note_on_c, 4, 59, 127
1, 134213, Note_off_c, 3, 62, 64
1, 134295, Note_on_c, 4, 54, 127
1, 134384, Note_off_c, 4, 59, 64
1, 134385, Note_on_c, 3, 62, 127
1, 134470, Note_off_c, 0, 83, 64
1, 134477, Note_off_c, 4, 54, 64
1, 134478, Note_on_c, 3, 76, 121
1, 134478, Note_on_c, 4, 61, 127
1, 134478, Note_on_c, 0, 83, 123
1, 134485, Note_off_c, 3, 62, 64
1, 134566, Note_on_c, 4, 54, 127
1, 134652, Note_off_c, 4, 61, 64
1, 134652, Note_on_c, 3, 64, 127
1, 134737, Note_off_c, 4, 54, 64
1, 134738, Note_off_c, 0, 83, 64
1, 134738, Note_on_c, 4, 61, 127
1, 134738, Note_on_c, 0, 82, 123
1, 134743, Note_off_c, 3, 64, 64
1, 134822, Note_on_c, 4, 54, 127
1, 134904, Note_off_c, 4, 61, 64
1, 134905, Note_on_c, 3, 64, 127
1, 134984, Note_off_c, 3, 76, 64
1, 134992, Note_off_c, 4, 54, 64
1, 134992, Note_off_c, 0, 82, 64
1, 134993, Note_on_c, 0, 81, 123
1, 134993, Note_on_c, 3, 72, 120
1, 134994, Note_on_c, 3, 63, 127
1, 134998, Note_off_c, 3, 64, 64
1, 135076, Note_on_c, 4, 54, 127
1, 135158, Note_off_c, 3, 63, 64
1, 135158, Note_on_c, 2, 66, 127
1, 135245, Note_off_c, 4, 54, 64
1, 135246, Note_off_c, 3, 72, 64
1, 135246, Note_on_c, 2, 71, 120
1, 135247, Note_on_c, 3, 63, 127
1, 135253, Note_off_c, 2, 66, 64
1, 135327, Note_on_c, 4, 54, 127
1, 135415, Note_off_c, 3, 63, 64
1, 135416, Note_on_c, 2, 66, 127
1, 135497, Note_off_c, 2, 66, 64
1, 135497, Note_off_c, 0, 81, 64
1, 135504, Note_off_c, 4, 54, 64
1, 135504, Note_off_c, 2, 71, 64
1, 135504, Note_on_c, 3, 76, 121
1, 135505, Note_on_c, 3, 64, 127
1, 135592, Note_on_c, 3, 71, 120
1, 135678, Note_off_c, 3, 76, 64
1, 135679, Note_on_c, 3, 79, 109
1, 135758, Note_off_c, 3, 71, 64
1, 135758, Note_on_c, 3, 76, 110
1, 135765, Note_off_c, 3, 79, 64
1, 135841, Note_on_c, 3, 71, 120
1, 135930, Note_off_c, 3, 76, 64
1, 135930, Note_on_c, 3, 79, 109
1, 136002, Note_off_c, 3, 64, 64
1, 136009, Note_off_c, 3, 71, 64
1, 136010, Note_on_c, 3, 78, 104
1, 136010, Note_on_c, 3, 64, 127
1, 136011, Note_on_c, 4, 59, 127
1, 136018, Note_off_c, 3, 79, 64
1, 136095, Note_on_c, 3, 71, 118
1, 136177, Note_off_c, 3, 78, 64
1, 136178, Note_on_c, 0, 81, 106
1, 136265, Note_off_c, 3, 71, 64
1, 136265, Note_off_c, 3, 64, 64
1, 136266, Note_on_c, 3, 78, 104
1, 136266, Note_on_c, 3, 63, 127
1, 136271, Note_off_c, 0, 81, 64
1, 136347, Note_on_c, 3, 71, 118
1, 136434, Note_off_c, 3, 78, 64
1, 136434, Note_on_c, 0, 81, 106
1, 136514, Note_off_c, 4, 59, 64
1, 136521, Note_off_c, 3, 71, 64
1, 136522, Note_off_c, 3, 63, 64
1, 136522, Note_on_c, 0, 80, 106
1, 136523, Note_on_c, 3, 62, 127
1, 136523, Note_on_c, 4, 53, 127
1, 136527, Note_off_c, 0, 81, 64
1, 136608, Note_on_c, 3, 71, 118
1, 136690, Note_off_c, 0, 80, 64
1, 136691, Note_on_c, 0, 83, 106
1, 136774, Note_off_c, 3, 71, 64
1, 136775, Note_off_c, 4, 53, 64
1, 136775, Note_on_c, 4, 52, 127
1, 136775, Note_on_c, 0, 80, 106
1, 136781, Note_off_c, 0, 83, 64
1, 136860, Note_on_c, 3, 71, 118
1, 136943, Note_off_c, 0, 80, 64
1, 136943, Note_on_c, 0, 83, 106
1, 137017, Note_off_c, 3, 62, 64
1, 137024, Note_off_c, 3, 71, 64
1, 137025, Note_off_c, 4, 52, 64
1, 137025, Note_on_c, 0, 81, 120
1, 137026, Note_on_c, 4, 61, 127
1, 137031, Note_off_c, 0, 83, 64
1, 137110, Note_on_c, 4, 57, 127
1, 137196, Note_off_c, 4, 61, 64
1, 137197, Note_on_c, 3, 64, 127
1, 137280, Note_on_c, 4, 61, 127
1, 137288, Note_off_c, 3, 64, 64
1, 137361, Note_off_c, 4, 57, 64
1, 137368, Note_on_c, 4, 57, 127
1, 137453, Note_off_c, 4, 61, 64
1, 137453, Note_on_c, 3, 64, 127
1, 137531, Note_off_c, 0, 81, 64
1, 137536, Note_on_c, 0, 81, 120
1, 137537, Note_on_c, 2, 70, 120
1, 137537, Note_on_c, 3, 62, 127
1, 137543, Note_off_c, 3, 64, 64
1, 137618, Note_off_c, 4, 57, 64
1, 137626, Note_on_c, 4, 57, 127
1, 137710, Note_off_c, 3, 62, 64
1, 137711, Note_on_c, 4, 65, 127
1, 137794, Note_off_c, 2, 70, 64
1, 137794, Note_on_c, 2, 71, 118
1, 137795, Note_on_c, 3, 63, 127
1, 137834, Note_off_c, 4, 65, 64
1, 137868, Note_off_c, 4, 57, 64
1, 137876, Note_on_c, 4, 57, 127
1, 137959, Note_off_c, 3, 63, 64
1, 137959, Note_on_c, 2, 66, 127
1, 138035, Note_off_c, 0, 81, 64
1, 138042, Note_off_c, 2, 71, 64
1, 138043, Note_on_c, 0, 81, 120
1, 138043, Note_on_c, 3, 72, 117
1, 138044, Note_on_c, 3, 64, 127
1, 138086, Note_off_c, 2, 66, 64
1, 138123, Note_off_c, 4, 57, 64
1, 138129, Note_on_c, 4, 57, 127
1, 138213, Note_off_c, 3, 64, 64
1, 138214, Note_on_c, 2, 67, 127
1, 138297, Note_off_c, 3, 72, 64
1, 138297, Note_on_c, 3, 73, 109
1, 138298, Note_on_c, 3, 64, 127
1, 138339, Note_off_c, 2, 67, 64
1, 138375, Note_off_c, 4, 57, 64
1, 138383, Note_on_c, 4, 57, 127
1, 138466, Note_off_c, 3, 64, 64
1, 138466, Note_on_c, 2, 67, 127
1, 138541, Note_off_c, 0, 81, 64
1, 138547, Note_off_c, 3, 73, 64
1, 138548, Note_on_c, 0, 81, 120
1, 138548, Note_on_c, 3, 74, 109
1, 138549, Note_on_c, 2, 66, 127
1, 138555, Note_off_c, 2, 67, 64
1, 138626, Note_off_c, 4, 57, 64
1, 138634, Note_on_c, 4, 57, 127
1, 138718, Note_off_c, 2, 66, 64
1, 138719, Note_on_c, 2, 69, 122
1, 138800, Note_off_c, 3, 74, 64
1, 138800, Note_on_c, 3, 75, 106
1, 138801, Note_on_c, 4, 65, 127
1, 138836, Note_off_c, 2, 69, 64
1, 138879, Note_off_c, 4, 57, 64
1, 138886, Note_on_c, 4, 57, 127
1, 138966, Note_off_c, 4, 65, 64
1, 138966, Note_on_c, 2, 69, 122
1, 139042, Note_off_c, 0, 81, 64
1, 139048, Note_off_c, 3, 75, 64
1, 139048, Note_on_c, 0, 81, 120
1, 139049, Note_on_c, 3, 76, 107
1, 139049, Note_on_c, 3, 64, 127
1, 139123, Note_off_c, 4, 57, 64
1, 139130, Note_off_c, 2, 69, 64
1, 139130, Note_on_c, 4, 57, 127
1, 139217, Note_off_c, 3, 64, 64
1, 139218, Note_on_c, 2, 69, 122
1, 139299, Note_off_c, 3, 76, 64
1, 139299, Note_on_c, 3, 78, 112
1, 139300, Note_on_c, 3, 62, 127
1, 139378, Note_off_c, 4, 57, 64
1, 139384, Note_off_c, 2, 69, 64
1, 139384, Note_on_c, 4, 57, 127
1, 139469, Note_off_c, 3, 62, 64
1, 139470, Note_on_c, 2, 69, 122
1, 139548, Note_off_c, 0, 81, 64
1, 139549, Note_off_c, 4, 57, 64
1, 139556, Note_off_c, 3, 78, 64
1, 139556, Note_on_c, 3, 79, 106
1, 139557, Note_on_c, 4, 61, 127
1, 139557, Note_on_c, 4, 57, 127
1, 139598, Note_on_c, 0, 81, 106
1, 139606, Note_off_c, 3, 79, 64
1, 139611, Note_off_c, 2, 69, 64
1, 139638, Note_on_c, 0, 83, 106
1, 139646, Note_off_c, 0, 81, 64
1, 139682, Note_on_c, 0, 81, 106
1, 139688, Note_off_c, 0, 83, 64
1, 139723, Note_on_c, 3, 79, 106
1, 139730, Note_off_c, 0, 81, 64
1, 139765, Note_on_c, 3, 78, 104
1, 139773, Note_off_c, 3, 79, 64
1, 139806, Note_on_c, 3, 76, 107
1, 139812, Note_off_c, 3, 78, 64
1, 139847, Note_on_c, 3, 78, 104
1, 139852, Note_off_c, 3, 76, 64
1, 139885, Note_on_c, 3, 79, 106
1, 139893, Note_off_c, 3, 78, 64
1, 139927, Note_on_c, 3, 78, 104
1, 139933, Note_off_c, 3, 79, 64
1, 139966, Note_on_c, 3, 76, 107
1, 139971, Note_off_c, 3, 78, 64
1, 140006, Note_on_c, 3, 74, 109
1, 140014, Note_off_c, 3, 76, 64
1, 140048, Note_on_c, 3, 73, 109
1, 140056, Note_off_c, 3, 74, 64
1, 140090, Note_on_c, 3, 74, 109
1, 140098, Note_off_c, 3, 73, 64
1, 140133, Note_on_c, 3, 76, 107
1, 140138, Note_off_c, 3, 74, 64
1, 140174, Note_on_c, 3, 74, 109
1, 140182, Note_off_c, 3, 76, 64
1, 140214, Note_on_c, 3, 73, 109
1, 140222, Note_off_c, 3, 74, 64
1, 140256, Note_on_c, 3, 71, 118
1, 140262, Note_off_c, 3, 73, 64
1, 140297, Note_on_c, 3, 69, 122
1, 140304, Note_off_c, 3, 71, 64
1, 140341, Note_on_c, 3, 71, 118
1, 140347, Note_off_c, 3, 69, 64
1, 140383, Note_on_c, 3, 69, 122
1, 140391, Note_off_c, 3, 71, 64
1, 140424, Note_on_c, 3, 67, 127
1, 140431, Note_off_c, 3, 69, 64
1, 140464, Note_on_c, 3, 66, 127
1, 140464, Note_on_c, 4, 45, 127
1, 140471, Note_off_c, 3, 67, 64
1, 140507, Note_on_c, 3, 64, 127
1, 140513, Note_off_c, 3, 66, 64
1, 140551, Note_off_c, 4, 57, 64
1, 140552, Note_off_c, 4, 61, 64
1, 140552, Note_on_c, 3, 62, 127
1, 140553, Note_on_c, 4, 50, 127
1, 140559, Note_off_c, 3, 64, 64
1, 140559, Note_off_c, 4, 45, 64
1, 140644, Note_on_c, 4, 57, 127
1, 140645, Note_on_c, 4, 45, 127
1, 140651, Note_off_c, 4, 50, 64
1, 140652, Note_off_c, 3, 62, 64
1, 140733, Note_on_c, 3, 62, 127
1, 140733, Note_on_c, 4, 50, 127
1, 140741, Note_off_c, 4, 45, 64
1, 140742, Note_off_c, 4, 57, 64
1, 140823, Note_on_c, 4, 54, 127
1, 140823, Note_on_c, 2, 66, 127
1, 140832, Note_off_c, 4, 50, 64
1, 140832, Note_off_c, 3, 62, 64
1, 140907, Note_on_c, 3, 62, 127
1, 140908, Note_on_c, 4, 50, 127
1, 140914, Note_off_c, 4, 54, 64
1, 140915, Note_off_c, 2, 66, 64
1, 140992, Note_on_c, 2, 66, 127
1, 140992, Note_on_c, 4, 54, 127
1, 140999, Note_off_c, 4, 50, 64
1, 140999, Note_off_c, 3, 62, 64
1, 141078, Note_off_c, 2, 66, 64
1, 141080, Note_on_c, 2, 69, 122
1, 141081, Note_on_c, 4, 57, 127
1, 141087, Note_off_c, 4, 54, 64
1, 141256, Note_off_c, 2, 69, 64
1, 141256, Note_off_c, 4, 57, 64
1, 141261, Note_on_c, 2, 69, 122
1, 141261, Note_on_c, 4, 57, 127
1, 141345, Note_off_c, 4, 57, 64
1, 141345, Note_off_c, 2, 69, 64
1, 141351, Note_on_c, 4, 57, 127
1, 141351, Note_on_c, 2, 69, 122
1, 141527, Note_off_c, 2, 69, 64
1, 141532, Note_on_c, 3, 74, 109
1, 141533, Note_on_c, 2, 69, 122
1, 141533, Note_on_c, 2, 67, 127
1, 141558, Note_on_c, 3, 73, 109
1, 141566, Note_off_c, 3, 74, 64
1, 141584, Note_on_c, 2, 71, 118
1, 141593, Note_off_c, 3, 73, 64
1, 141609, Note_on_c, 3, 73, 109
1, 141615, Note_off_c, 2, 71, 64
1, 141623, Note_off_c, 2, 67, 64
1, 141624, Note_off_c, 2, 69, 64
1, 141630, Note_on_c, 2, 69, 122
1, 141630, Note_on_c, 3, 74, 109
1, 141631, Note_on_c, 2, 66, 127
1, 141638, Note_off_c, 3, 73, 64
1, 141803, Note_off_c, 2, 69, 64
1, 141807, Note_off_c, 4, 57, 64
1, 141808, Note_off_c, 2, 66, 64
1, 141808, Note_off_c, 3, 74, 64
1, 141809, Note_on_c, 3, 78, 111
1, 141809, Note_on_c, 2, 69, 122
1, 141810, Note_on_c, 4, 61, 127
1, 141833, Note_on_c, 3, 76, 110
1, 141841, Note_off_c, 3, 78, 64
1, 141858, Note_on_c, 3, 74, 109
1, 141868, Note_off_c, 3, 76, 64
1, 141883, Note_on_c, 3, 76, 110
1, 141891, Note_off_c, 3, 74, 64
1, 141899, Note_off_c, 2, 69, 64
1, 141899, Note_off_c, 4, 61, 64
1, 141905, Note_on_c, 3, 78, 111
1, 141906, Note_on_c, 2, 69, 122
1, 141906, Note_on_c, 3, 62, 127
1, 141912, Note_off_c, 3, 76, 64
1, 142080, Note_off_c, 3, 62, 64
1, 142080, Note_off_c, 2, 69, 64
1, 142085, Note_off_c, 3, 78, 64
1, 142085, Note_on_c, 0, 81, 113
1, 142086, Note_on_c, 3, 64, 127
1, 142086, Note_on_c, 4, 55, 127
1, 142133, Note_on_c, 3, 79, 113
1, 142140, Note_off_c, 0, 81, 64
1, 142183, Note_on_c, 3, 78, 111
1, 142183, Note_on_c, 3, 62, 127
1, 142184, Note_on_c, 4, 57, 127
1, 142191, Note_off_c, 4, 55, 64
1, 142192, Note_off_c, 3, 79, 64
1, 142192, Note_off_c, 3, 64, 64
1, 142440, Note_off_c, 3, 62, 64
1, 142440, Note_off_c, 3, 78, 64
1, 142441, Note_on_c, 4, 61, 127
1, 142441, Note_on_c, 3, 76, 113
1, 142620, Note_off_c, 4, 61, 64
1, 142620, Note_off_c, 4, 57, 64
1, 142620, Note_on_c, 4, 59, 127
1, 142621, Note_on_c, 4, 47, 124
1, 142708, Note_on_c, 4, 52, 126
1, 142708, Note_on_c, 3, 64, 127
1, 142715, Note_off_c, 4, 47, 64
1, 142715, Note_off_c, 4, 59, 64
1, 142797, Note_off_c, 3, 76, 64
1, 142798, Note_on_c, 4, 59, 127
1, 142798, Note_on_c, 4, 47, 124
1, 142804, Note_off_c, 3, 64, 64
1, 142804, Note_off_c, 4, 52, 64
1, 142881, Note_on_c, 3, 64, 127
1, 142881, Note_on_c, 4, 52, 126
1, 142887, Note_off_c, 4, 47, 64
1, 142888, Note_off_c, 4, 59, 64
1, 142969, Note_on_c, 4, 55, 127
1, 142969, Note_on_c, 2, 67, 127
1, 142976, Note_off_c, 4, 52, 64
1, 142976, Note_off_c, 3, 64, 64
1, 143053, Note_on_c, 3, 64, 127
1, 143054, Note_on_c, 4, 52, 126
1, 143060, Note_off_c, 4, 55, 64
1, 143061, Note_off_c, 2, 67, 64
1, 143140, Note_on_c, 2, 67, 127
1, 143140, Note_on_c, 4, 55, 127
1, 143147, Note_off_c, 4, 52, 64
1, 143147, Note_off_c, 3, 64, 64
1, 143228, Note_off_c, 2, 67, 64
1, 143229, Note_on_c, 4, 59, 127
1, 143229, Note_on_c, 2, 71, 120
1, 143237, Note_off_c, 4, 55, 64
1, 143398, Note_off_c, 4, 59, 64
1, 143399, Note_off_c, 2, 71, 64
1, 143403, Note_on_c, 2, 71, 120
1, 143403, Note_on_c, 4, 59, 127
1, 143484, Note_off_c, 4, 59, 64
1, 143485, Note_off_c, 2, 71, 64
1, 143492, Note_on_c, 4, 59, 127
1, 143492, Note_on_c, 2, 71, 120
1, 143665, Note_off_c, 2, 71, 64
1, 143669, Note_on_c, 3, 75, 109
1, 143669, Note_on_c, 2, 69, 124
1, 143670, Note_on_c, 2, 66, 127
1, 143714, Note_off_c, 4, 59, 64
1, 143760, Note_on_c, 2, 71, 120
1, 143760, Note_on_c, 3, 78, 107
1, 143761, Note_on_c, 2, 67, 127
1, 143767, Note_off_c, 2, 66, 64
1, 143768, Note_off_c, 2, 69, 64
1, 143768, Note_off_c, 3, 75, 64
1, 143804, Note_on_c, 3, 76, 110
1, 143812, Note_off_c, 3, 78, 64
1, 143851, Note_on_c, 3, 79, 109
1, 143859, Note_off_c, 3, 76, 64
1, 143896, Note_on_c, 3, 78, 107
1, 143904, Note_off_c, 3, 79, 64
1, 143943, Note_on_c, 0, 81, 109
1, 143951, Note_off_c, 3, 78, 64
1, 143989, Note_on_c, 3, 79, 106
1, 143997, Note_off_c, 0, 81, 64
1, 144033, Note_on_c, 0, 83, 106
1, 144041, Note_off_c, 3, 79, 64
1, 144209, Note_off_c, 0, 83, 64
1, 144214, Note_off_c, 2, 71, 64
1, 144214, Note_off_c, 2, 67, 64
1, 144215, Note_on_c, 4, 57, 127
1, 144215, Note_on_c, 3, 73, 109
1, 144215, Note_on_c, 3, 64, 127
1, 144312, Note_on_c, 3, 62, 127
1, 144312, Note_on_c, 3, 76, 107
1, 144312, Note_on_c, 2, 67, 127
1, 144318, Note_off_c, 4, 57, 64
1, 144319, Note_off_c, 3, 64, 64
1, 144319, Note_off_c, 3, 73, 64
1, 144560, Note_off_c, 2, 67, 64
1, 144561, Note_off_c, 3, 76, 64
1, 144567, Note_on_c, 3, 74, 109
1, 144567, Note_on_c, 2, 66, 127
1, 144749, Note_off_c, 3, 62, 64
1, 144750, Note_on_c, 4, 45, 127
1, 144833, Note_off_c, 2, 66, 64
1, 144833, Note_off_c, 3, 74, 64
1, 144841, Note_on_c, 4, 50, 127
1, 144849, Note_off_c, 4, 45, 64
1, 144932, Note_on_c, 4, 45, 127
1, 144932, Note_on_c, 3, 74, 115
1, 144938, Note_off_c, 4, 50, 64
1, 145019, Note_on_c, 3, 78, 110
1, 145020, Note_on_c, 4, 50, 127
1, 145026, Note_off_c, 3, 74, 64
1, 145026, Note_off_c, 4, 45, 64
1, 145107, Note_on_c, 0, 81, 112
1, 145108, Note_on_c, 4, 54, 127
1, 145114, Note_off_c, 4, 50, 64
1, 145115, Note_off_c, 3, 78, 64
1, 145191, Note_on_c, 4, 50, 127
1, 145191, Note_on_c, 3, 78, 110
1, 145198, Note_off_c, 4, 54, 64
1, 145198, Note_off_c, 0, 81, 64
1, 145275, Note_on_c, 0, 86, 112
1, 145276, Note_on_c, 4, 54, 124
1, 145282, Note_off_c, 4, 50, 64
1, 145283, Note_off_c, 3, 78, 64
1, 145356, Note_off_c, 4, 54, 64
1, 145360, Note_on_c, 4, 57, 127
1, 145368, Note_off_c, 0, 86, 64
1, 145404, Note_on_c, 0, 85, 112
1, 145446, Note_on_c, 0, 88, 109
1, 145454, Note_off_c, 0, 85, 64
1, 145488, Note_on_c, 0, 86, 112
1, 145496, Note_off_c, 0, 88, 64
1, 145525, Note_off_c, 4, 57, 64
1, 145531, Note_on_c, 0, 85, 112
1, 145531, Note_on_c, 4, 57, 127
1, 145537, Note_off_c, 0, 86, 64
1, 145574, Note_on_c, 0, 83, 112
1, 145580, Note_off_c, 0, 85, 64
1, 145610, Note_off_c, 4, 57, 64
1, 145616, Note_on_c, 0, 81, 115
1, 145617, Note_on_c, 4, 57, 127
1, 145625, Note_off_c, 0, 83, 64
1, 145659, Note_on_c, 0, 83, 112
1, 145667, Note_off_c, 0, 81, 64
1, 145704, Note_on_c, 0, 81, 115
1, 145711, Note_off_c, 0, 83, 64
1, 145746, Note_on_c, 3, 79, 115
1, 145753, Note_off_c, 0, 81, 64
1, 145790, Note_on_c, 2, 67, 127
1, 145790, Note_on_c, 3, 78, 113
1, 145799, Note_off_c, 3, 79, 64
1, 145837, Note_on_c, 3, 76, 116
1, 145843, Note_off_c, 3, 78, 64
1, 145882, Note_on_c, 3, 74, 118
1, 145890, Note_off_c, 3, 76, 64
1, 145919, Note_off_c, 2, 67, 64
1, 145925, Note_on_c, 2, 66, 127
1, 145967, Note_on_c, 2, 69, 124
1, 145974, Note_off_c, 2, 66, 64
1, 146011, Note_on_c, 2, 67, 127
1, 146017, Note_off_c, 2, 69, 64
1, 146049, Note_off_c, 3, 74, 64
1, 146053, Note_on_c, 2, 66, 127
1, 146053, Note_on_c, 3, 74, 118
1, 146060, Note_off_c, 2, 67, 64
1, 146095, Note_on_c, 3, 64, 127
1, 146102, Note_off_c, 2, 66, 64
1, 146135, Note_off_c, 3, 74, 64
1, 146140, Note_on_c, 3, 74, 118
1, 146141, Note_on_c, 3, 62, 127
1, 146147, Note_off_c, 3, 64, 64
1, 146182, Note_on_c, 3, 64, 127
1, 146189, Note_off_c, 3, 62, 64
1, 146226, Note_on_c, 3, 62, 127
1, 146234, Note_off_c, 3, 64, 64
1, 146270, Note_off_c, 4, 57, 64
1, 146270, Note_on_c, 4, 60, 127
1, 146277, Note_off_c, 3, 62, 64
1, 146308, Note_off_c, 3, 74, 64
1, 146313, Note_on_c, 3, 62, 127
1, 146313, Note_on_c, 4, 59, 127
1, 146321, Note_off_c, 4, 60, 64
1, 146356, Note_on_c, 4, 57, 127
1, 146365, Note_off_c, 4, 59, 64
1, 146404, Note_on_c, 2, 67, 127
1, 146404, Note_on_c, 4, 55, 127
1, 146411, Note_off_c, 4, 57, 64
1, 146411, Note_off_c, 3, 62, 64
1, 146494, Note_on_c, 3, 62, 127
1, 146495, Note_on_c, 4, 43, 127
1, 146501, Note_off_c, 2, 67, 64
1, 146553, Note_off_c, 4, 55, 64
1, 146583, Note_on_c, 2, 67, 127
1, 146584, Note_on_c, 4, 47, 127
1, 146590, Note_off_c, 4, 43, 64
1, 146591, Note_off_c, 3, 62, 64
1, 146671, Note_on_c, 2, 71, 120
1, 146671, Note_on_c, 4, 50, 127
1, 146677, Note_off_c, 4, 47, 64
1, 146678, Note_off_c, 2, 67, 64
1, 146757, Note_on_c, 2, 67, 127
1, 146758, Note_on_c, 4, 47, 127
1, 146764, Note_off_c, 4, 50, 64
1, 146764, Note_off_c, 2, 71, 64
1, 146849, Note_on_c, 2, 71, 120
1, 146850, Note_on_c, 4, 55, 127
1, 146856, Note_off_c, 4, 47, 64
1, 146856, Note_off_c, 2, 67, 64
1, 146936, Note_on_c, 3, 74, 120
1, 146942, Note_off_c, 2, 71, 64
1, 146973, Note_off_c, 4, 55, 64
1, 146981, Note_on_c, 4, 54, 127
1, 147021, Note_on_c, 4, 57, 127
1, 147027, Note_off_c, 4, 54, 64
1, 147063, Note_on_c, 4, 55, 127
1, 147071, Note_off_c, 4, 57, 64
1, 147100, Note_off_c, 3, 74, 64
1, 147104, Note_on_c, 4, 54, 127
1, 147104, Note_on_c, 3, 74, 120
1, 147110, Note_off_c, 4, 55, 64
1, 147145, Note_on_c, 4, 52, 127
1, 147153, Note_off_c, 4, 54, 64
1, 147183, Note_off_c, 3, 74, 64
1, 147189, Note_on_c, 3, 74, 120
1, 147190, Note_on_c, 4, 50, 127
1, 147196, Note_off_c, 4, 52, 64
1, 147230, Note_on_c, 4, 52, 127
1, 147236, Note_off_c, 4, 50, 64
1, 147273, Note_on_c, 4, 50, 127
1, 147278, Note_off_c, 4, 52, 64
1, 147312, Note_on_c, 4, 48, 127
1, 147318, Note_off_c, 4, 50, 64
1, 147348, Note_off_c, 3, 74, 64
1, 147352, Note_on_c, 3, 72, 120
1, 147353, Note_on_c, 4, 47, 127
1, 147361, Note_off_c, 4, 48, 64
1, 147396, Note_on_c, 4, 45, 127
1, 147403, Note_off_c, 4, 47, 64
1, 147440, Note_on_c, 4, 43, 127
1, 147447, Note_off_c, 4, 45, 64
1, 147482, Note_off_c, 3, 72, 64
1, 147484, Note_on_c, 2, 71, 120
1, 147526, Note_on_c, 3, 74, 120
1, 147534, Note_off_c, 2, 71, 64
1, 147570, Note_on_c, 3, 72, 120
1, 147578, Note_off_c, 3, 74, 64
1, 147612, Note_on_c, 2, 71, 120
1, 147613, Note_on_c, 4, 60, 127
1, 147622, Note_off_c, 3, 72, 64
1, 147655, Note_on_c, 2, 69, 124
1, 147662, Note_off_c, 2, 71, 64
1, 147699, Note_on_c, 2, 67, 127
1, 147707, Note_off_c, 2, 69, 64
1, 147735, Note_off_c, 4, 60, 64
1, 147743, Note_on_c, 4, 59, 127
1, 147749, Note_off_c, 2, 67, 64
1, 147785, Note_on_c, 3, 62, 127
1, 147791, Note_off_c, 4, 59, 64
1, 147829, Note_on_c, 4, 60, 127
1, 147837, Note_off_c, 3, 62, 64
1, 147872, Note_on_c, 0, 84, 120
1, 147872, Note_on_c, 4, 59, 127
1, 147880, Note_off_c, 4, 60, 64
1, 147917, Note_on_c, 4, 57, 127
1, 147924, Note_off_c, 4, 59, 64
1, 147961, Note_on_c, 4, 55, 127
1, 147968, Note_off_c, 4, 57, 64
1, 147998, Note_off_c, 0, 84, 64
1, 148004, Note_on_c, 0, 83, 120
1, 148048, Note_on_c, 0, 86, 120
1, 148056, Note_off_c, 0, 83, 64
1, 148091, Note_on_c, 0, 84, 120
1, 148098, Note_off_c, 0, 86, 64
1, 148133, Note_on_c, 0, 83, 120
1, 148133, Note_on_c, 3, 72, 120
1, 148141, Note_off_c, 0, 84, 64
1, 148178, Note_on_c, 0, 81, 120
1, 148186, Note_off_c, 0, 83, 64
1, 148224, Note_on_c, 0, 80, 120
1, 148230, Note_off_c, 0, 81, 64
1, 148260, Note_off_c, 3, 72, 64
1, 148268, Note_on_c, 2, 71, 120
1, 148312, Note_on_c, 3, 76, 118
1, 148320, Note_off_c, 0, 80, 64
1, 148356, Note_on_c, 3, 74, 120
1, 148364, Note_off_c, 3, 76, 64
1, 148365, Note_off_c, 2, 71, 64
1, 148398, Note_off_c, 3, 74, 64
1, 148402, Note_on_c, 3, 74, 120
1, 148403, Note_on_c, 3, 72, 120
1, 148447, Note_on_c, 2, 71, 120
1, 148454, Note_off_c, 3, 72, 64
1, 148462, Note_off_c, 4, 43, 64
1, 148493, Note_on_c, 2, 69, 124
1, 148500, Note_off_c, 2, 71, 64
1, 148501, Note_off_c, 3, 74, 64
1, 148538, Note_on_c, 3, 72, 120
1, 148546, Note_off_c, 2, 69, 64
1, 148582, Note_on_c, 3, 76, 118
1, 148588, Note_off_c, 3, 72, 64
1, 148628, Note_on_c, 3, 74, 120
1, 148635, Note_off_c, 3, 76, 64
1, 148671, Note_on_c, 3, 72, 120
1, 148672, Note_on_c, 3, 62, 127
1, 148679, Note_off_c, 3, 74, 64
1, 148715, Note_on_c, 2, 71, 120
1, 148723, Note_off_c, 3, 72, 64
1, 148761, Note_on_c, 2, 69, 124
1, 148767, Note_off_c, 2, 71, 64
1, 148796, Note_off_c, 3, 62, 64
1, 148803, Note_on_c, 4, 60, 127
1, 148846, Note_on_c, 3, 64, 127
1, 148874, Note_off_c, 2, 69, 64
1, 148890, Note_on_c, 3, 62, 127
1, 148897, Note_off_c, 3, 64, 64
1, 148898, Note_off_c, 4, 60, 64
1, 148918, Note_off_c, 4, 55, 64
1, 148931, Note_on_c, 0, 86, 117
1, 148932, Note_on_c, 4, 60, 127
1, 148938, Note_off_c, 3, 62, 64
1, 148974, Note_on_c, 4, 59, 127
1, 148982, Note_off_c, 4, 60, 64
1, 149018, Note_on_c, 4, 57, 127
1, 149024, Note_off_c, 4, 59, 64
1, 149055, Note_off_c, 0, 86, 64
1, 149063, Note_on_c, 0, 84, 117
1, 149105, Note_on_c, 0, 88, 117
1, 149112, Note_off_c, 0, 84, 64
1, 149149, Note_on_c, 0, 86, 117
1, 149155, Note_off_c, 0, 88, 64
1, 149191, Note_on_c, 0, 84, 117
1, 149192, Note_on_c, 3, 74, 119
1, 149198, Note_off_c, 0, 86, 64
1, 149234, Note_on_c, 0, 83, 117
1, 149242, Note_off_c, 0, 84, 64
1, 149279, Note_on_c, 0, 82, 117
1, 149286, Note_off_c, 0, 83, 64
1, 149315, Note_off_c, 3, 74, 64
1, 149323, Note_on_c, 3, 73, 119
1, 149367, Note_on_c, 3, 78, 115
1, 149375, Note_off_c, 0, 82, 64
1, 149415, Note_on_c, 3, 76, 114
1, 149424, Note_off_c, 3, 78, 64
1, 149424, Note_off_c, 3, 73, 64
1, 149457, Note_off_c, 3, 76, 64
1, 149459, Note_on_c, 3, 76, 114
1, 149460, Note_on_c, 3, 74, 116
1, 149508, Note_on_c, 3, 73, 116
1, 149516, Note_off_c, 3, 74, 64
1, 149554, Note_on_c, 2, 71, 120
1, 149562, Note_off_c, 3, 73, 64
1, 149585, Note_off_c, 3, 76, 64
1, 149600, Note_on_c, 3, 74, 116
1, 149608, Note_off_c, 2, 71, 64
1, 149644, Note_on_c, 3, 78, 115
1, 149650, Note_off_c, 3, 74, 64
1, 149688, Note_on_c, 3, 76, 114
1, 149694, Note_off_c, 3, 78, 64
1, 149731, Note_on_c, 3, 74, 116
1, 149731, Note_on_c, 3, 64, 127
1, 149737, Note_off_c, 3, 76, 64
1, 149776, Note_on_c, 3, 73, 116
1, 149782, Note_off_c, 3, 74, 64
1, 149820, Note_on_c, 2, 71, 120
1, 149828, Note_off_c, 3, 73, 64
1, 149856, Note_off_c, 3, 64, 64
1, 149864, Note_on_c, 3, 62, 127
1, 149906, Note_on_c, 2, 67, 127
1, 149912, Note_off_c, 2, 71, 64
1, 149951, Note_on_c, 2, 66, 127
1, 149958, Note_off_c, 2, 67, 64
1, 149959, Note_off_c, 3, 62, 64
1, 149992, Note_on_c, 3, 78, 111
1, 149992, Note_on_c, 3, 64, 127
1, 150000, Note_off_c, 2, 66, 64
1, 150035, Note_on_c, 3, 62, 127
1, 150043, Note_off_c, 3, 64, 64
1, 150050, Note_off_c, 4, 57, 64
1, 150081, Note_on_c, 4, 61, 127
1, 150087, Note_off_c, 3, 62, 64
1, 150148, Note_off_c, 3, 78, 64
1, 150152, Note_on_c, 3, 79, 113
1, 150198, Note_on_c, 3, 78, 111
1, 150206, Note_off_c, 3, 79, 64
1, 150243, Note_off_c, 4, 61, 64
1, 150244, Note_on_c, 2, 66, 127
1, 150244, Note_on_c, 3, 76, 114
1, 150250, Note_off_c, 3, 78, 64
1, 150288, Note_on_c, 3, 74, 116
1, 150296, Note_off_c, 3, 76, 64
1, 150333, Note_on_c, 3, 73, 116
1, 150340, Note_off_c, 3, 74, 64
1, 150371, Note_off_c, 2, 66, 64
1, 150379, Note_on_c, 3, 64, 127
1, 150423, Note_on_c, 2, 69, 124
1, 150431, Note_off_c, 3, 73, 64
1, 150467, Note_on_c, 2, 67, 127
1, 150475, Note_off_c, 2, 69, 64
1, 150475, Note_off_c, 3, 64, 64
1, 150512, Note_on_c, 3, 79, 110
1, 150513, Note_on_c, 2, 66, 127
1, 150519, Note_off_c, 2, 67, 64
1, 150556, Note_on_c, 3, 64, 127
1, 150565, Note_off_c, 2, 66, 64
1, 150603, Note_on_c, 3, 78, 108
1, 150604, Note_on_c, 3, 62, 127
1, 150612, Note_off_c, 3, 64, 64
1, 150612, Note_off_c, 3, 79, 64
1, 150651, Note_on_c, 3, 74, 117
1, 150659, Note_off_c, 3, 78, 64
1, 150699, Note_on_c, 3, 78, 112
1, 150730, Note_off_c, 3, 74, 64
1, 150744, Note_on_c, 0, 81, 108
1, 150751, Note_off_c, 3, 78, 64
1, 150780, Note_on_c, 2, 71, 113
1, 150790, Note_off_c, 3, 62, 64
1, 150790, Note_on_c, 0, 86, 108
1, 150791, Note_on_c, 2, 67, 127
1, 150791, Note_on_c, 3, 64, 127
1, 150798, Note_off_c, 0, 81, 64
1, 150836, Note_on_c, 0, 85, 108
1, 150844, Note_off_c, 0, 86, 64
1, 150857, Note_off_c, 2, 71, 64
1, 150882, Note_on_c, 2, 66, 127
1, 150883, Note_on_c, 3, 62, 127
1, 150891, Note_off_c, 3, 64, 64
1, 150891, Note_off_c, 2, 67, 64
1, 150928, Note_on_c, 2, 71, 114
1, 150972, Note_on_c, 3, 74, 111
1, 150988, Note_off_c, 0, 85, 64
1, 151003, Note_off_c, 2, 71, 64
1, 151017, Note_on_c, 3, 78, 106
1, 151024, Note_off_c, 3, 74, 64
1, 151061, Note_off_c, 3, 62, 64
1, 151062, Note_off_c, 2, 66, 64
1, 151062, Note_on_c, 0, 83, 108
1, 151063, Note_on_c, 3, 64, 127
1, 151063, Note_on_c, 4, 61, 127
1, 151069, Note_off_c, 3, 78, 64
1, 151108, Note_on_c, 0, 81, 108
1, 151116, Note_off_c, 0, 83, 64
1, 151154, Note_on_c, 4, 59, 127
1, 151154, Note_on_c, 3, 62, 127
1, 151161, Note_off_c, 4, 61, 64
1, 151161, Note_off_c, 3, 64, 64
1, 151198, Note_on_c, 2, 67, 127
1, 151242, Note_on_c, 2, 71, 114
1, 151258, Note_off_c, 0, 81, 64
1, 151281, Note_off_c, 2, 67, 64
1, 151288, Note_on_c, 3, 74, 111
1, 151296, Note_off_c, 2, 71, 64
1, 151332, Note_off_c, 4, 59, 64
1, 151333, Note_off_c, 3, 62, 64
1, 151333, Note_on_c, 3, 79, 108
1, 151333, Note_on_c, 4, 61, 127
1, 151334, Note_on_c, 4, 57, 127
1, 151340, Note_off_c, 3, 74, 64
1, 151378, Note_on_c, 3, 78, 106
1, 151385, Note_off_c, 3, 79, 64
1, 151422, Note_on_c, 4, 59, 127
1, 151422, Note_on_c, 4, 55, 127
1, 151428, Note_off_c, 4, 57, 64
1, 151429, Note_off_c, 4, 61, 64
1, 151466, Note_on_c, 3, 64, 127
1, 151510, Note_on_c, 2, 67, 127
1, 151526, Note_off_c, 3, 78, 64
1, 151550, Note_off_c, 3, 64, 64
1, 151556, Note_on_c, 2, 71, 114
1, 151564, Note_off_c, 2, 67, 64
1, 151598, Note_off_c, 4, 55, 64
1, 151598, Note_off_c, 4, 59, 64
1, 151603, Note_on_c, 3, 76, 112
1, 151604, Note_on_c, 4, 59, 127
1, 151604, Note_on_c, 4, 56, 127
1, 151610, Note_off_c, 2, 71, 64
1, 151648, Note_on_c, 3, 74, 110
1, 151656, Note_off_c, 3, 76, 64
1, 151694, Note_on_c, 3, 73, 114
1, 151695, Note_on_c, 4, 57, 127
1, 151701, Note_off_c, 4, 56, 64
1, 151702, Note_off_c, 3, 74, 64
1, 151702, Note_off_c, 4, 59, 64
1, 151739, Note_on_c, 3, 64, 127
1, 151769, Note_off_c, 3, 73, 64
1, 151785, Note_on_c, 0, 81, 108
1, 151785, Note_on_c, 4, 61, 127
1, 151791, Note_off_c, 3, 64, 64
1, 151826, Note_on_c, 3, 64, 127
1, 151834, Note_off_c, 4, 61, 64
1, 151869, Note_off_c, 4, 57, 64
1, 151869, Note_on_c, 3, 78, 106
1, 151870, Note_on_c, 3, 74, 111
1, 151870, Note_on_c, 3, 62, 127
1, 151878, Note_off_c, 3, 64, 64
1, 151878, Note_off_c, 0, 81, 64
1, 151913, Note_on_c, 3, 64, 127
1, 151921, Note_off_c, 3, 62, 64
1, 151958, Note_on_c, 3, 76, 109
1, 151959, Note_on_c, 3, 73, 111
1, 151959, Note_on_c, 4, 57, 127
1, 151967, Note_off_c, 3, 64, 64
1, 151968, Note_off_c, 3, 78, 64
1, 151968, Note_off_c, 3, 74, 64
1, 152004, Note_on_c, 3, 64, 127
1, 152049, Note_on_c, 0, 81, 108
1, 152049, Note_on_c, 4, 61, 127
1, 152055, Note_off_c, 3, 64, 64
1, 152056, Note_off_c, 3, 73, 64
1, 152056, Note_off_c, 3, 76, 64
1, 152091, Note_on_c, 3, 64, 127
1, 152099, Note_off_c, 4, 61, 64
1, 152139, Note_off_c, 4, 57, 64
1, 152139, Note_on_c, 3, 78, 106
1, 152140, Note_on_c, 3, 74, 111
1, 152140, Note_on_c, 3, 62, 127
1, 152147, Note_off_c, 3, 64, 64
1, 152147, Note_off_c, 0, 81, 64
1, 152184, Note_on_c, 3, 64, 127
1, 152193, Note_off_c, 3, 62, 64
1, 152223, Note_off_c, 3, 64, 64
1, 152231, Note_on_c, 3, 76, 109
1, 152232, Note_on_c, 4, 61, 127
1, 152232, Note_on_c, 3, 64, 127
1, 152232, Note_on_c, 3, 73, 111
1, 152233, Note_on_c, 4, 57, 127
1, 152239, Note_off_c, 3, 78, 64
1, 152239, Note_off_c, 3, 74, 64
1, 152326, Note_on_c, 0, 81, 108
1, 152333, Note_off_c, 3, 73, 64
1, 152334, Note_off_c, 3, 76, 64
1, 152417, Note_off_c, 4, 57, 64
1, 152423, Note_off_c, 4, 61, 64
1, 152424, Note_off_c, 3, 64, 64
1, 152424, Note_on_c, 2, 69, 124
1, 152424, Note_on_c, 4, 57, 127
1, 152425, Note_on_c, 4, 45, 127
1, 152431, Note_off_c, 0, 81, 64
1, 152513, Note_off_c, 4, 45, 64
1, 152514, Note_off_c, 4, 57, 64
1, 152514, Note_off_c, 2, 69, 64
1, 152520, Note_on_c, 4, 57, 127
1, 152520, Note_on_c, 2, 69, 124
1, 152521, Note_on_c, 4, 45, 127
1, 152713, Note_off_c, 2, 69, 64
1, 152713, Note_on_c, 2, 66, 127
1, 152807, Note_on_c, 2, 67, 127
1, 152815, Note_off_c, 2, 66, 64
1, 152991, Note_off_c, 2, 67, 64
1, 152992, Note_on_c, 2, 69, 124
1, 153083, Note_on_c, 2, 71, 120
1, 153091, Note_off_c, 2, 69, 64
1, 153173, Note_on_c, 2, 69, 124
1, 153179, Note_off_c, 2, 71, 64
1, 153216, Note_on_c, 2, 67, 127
1, 153223, Note_off_c, 2, 69, 64
1, 153259, Note_on_c, 2, 66, 127
1, 153267, Note_off_c, 2, 67, 64
1, 153304, Note_on_c, 3, 64, 127
1, 153310, Note_off_c, 2, 66, 64
1, 153338, Note_off_c, 4, 45, 64
1, 153339, Note_off_c, 4, 57, 64
1, 153345, Note_on_c, 3, 62, 127
1, 153346, Note_on_c, 4, 55, 127
1, 153346, Note_on_c, 4, 52, 127
1, 153347, Note_on_c, 4, 45, 127
1, 153353, Note_off_c, 3, 64, 64
1, 153608, Note_off_c, 3, 62, 64
1, 153617, Note_on_c, 4, 61, 127
1, 153795, Note_off_c, 4, 61, 64
1, 153796, Note_off_c, 4, 52, 64
1, 153796, Note_off_c, 4, 45, 64
1, 153797, Note_off_c, 4, 55, 64
1, 153797, Note_on_c, 4, 59, 127
1, 153797, Note_on_c, 4, 49, 127
1, 153798, Note_on_c, 4, 43, 127
1, 153879, Note_off_c, 4, 59, 64
1, 153887, Note_on_c, 4, 50, 127
1, 153887, Note_on_c, 4, 59, 127
1, 153888, Note_on_c, 4, 42, 127
1, 153893, Note_off_c, 4, 43, 64
1, 153894, Note_off_c, 4, 49, 64
1, 153977, Note_on_c, 4, 57, 127
1, 153983, Note_off_c, 4, 59, 64
1, 154063, Note_off_c, 4, 57, 64
1, 154071, Note_on_c, 4, 57, 127
1, 154157, Note_off_c, 4, 57, 64
1, 154165, Note_on_c, 4, 57, 127
1, 154251, Note_off_c, 4, 42, 64
1, 154259, Note_off_c, 4, 50, 64
1, 154260, Note_on_c, 4, 42, 127
1, 154260, Note_on_c, 3, 62, 127
1, 154266, Note_off_c, 4, 57, 64
1, 154344, Note_off_c, 3, 62, 64
1, 154350, Note_on_c, 2, 66, 127
1, 154351, Note_on_c, 3, 62, 127
1, 154351, Note_on_c, 4, 38, 127
1, 154359, Note_off_c, 4, 42, 64
1, 154438, Note_off_c, 3, 62, 64
1, 154438, Note_off_c, 2, 66, 64
1, 154446, Note_on_c, 2, 66, 127
1, 154447, Note_on_c, 4, 45, 127
1, 154447, Note_on_c, 3, 62, 127
1, 154453, Note_off_c, 4, 38, 64
1, 154633, Note_off_c, 3, 62, 64
1, 154634, Note_off_c, 2, 66, 64
1, 154634, Note_on_c, 2, 67, 127
1, 154635, Note_on_c, 3, 64, 127
1, 154720, Note_off_c, 3, 64, 64
1, 154726, Note_on_c, 4, 61, 127
1, 154726, Note_on_c, 3, 64, 127
1, 154734, Note_off_c, 2, 67, 64
1, 154913, Note_off_c, 3, 64, 64
1, 154913, Note_off_c, 4, 61, 64
1, 154914, Note_on_c, 2, 66, 127
1, 155007, Note_on_c, 2, 67, 127
1, 155015, Note_off_c, 2, 66, 64
1, 155191, Note_off_c, 2, 67, 64
1, 155192, Note_on_c, 2, 69, 122
1, 155284, Note_on_c, 2, 71, 118
1, 155292, Note_off_c, 2, 69, 64
1, 155371, Note_on_c, 2, 69, 122
1, 155376, Note_off_c, 2, 71, 64
1, 155411, Note_on_c, 2, 67, 127
1, 155417, Note_off_c, 2, 69, 64
1, 155453, Note_on_c, 2, 66, 127
1, 155459, Note_off_c, 2, 67, 64
1, 155496, Note_on_c, 3, 64, 127
1, 155501, Note_off_c, 2, 66, 64
1, 155530, Note_off_c, 4, 45, 64
1, 155538, Note_on_c, 4, 55, 127
1, 155538, Note_on_c, 3, 62, 127
1, 155539, Note_on_c, 4, 52, 127
1, 155539, Note_on_c, 4, 45, 127
1, 155545, Note_off_c, 3, 64, 64
1, 155807, Note_off_c, 3, 62, 64
1, 155808, Note_on_c, 4, 61, 127
1, 155900, Note_on_c, 2, 71, 118
1, 155908, Note_off_c, 4, 61, 64
1, 155992, Note_off_c, 4, 45, 64
1, 155993, Note_off_c, 4, 55, 64
1, 155993, Note_off_c, 4, 52, 64
1, 155994, Note_on_c, 4, 49, 127
1, 155994, Note_on_c, 4, 43, 127
1, 155994, Note_on_c, 2, 69, 122
1, 156001, Note_off_c, 2, 71, 64
1, 156078, Note_off_c, 2, 69, 64
1, 156085, Note_on_c, 2, 69, 122
1, 156086, Note_on_c, 4, 50, 127
1, 156086, Note_on_c, 4, 42, 127
1, 156092, Note_off_c, 4, 43, 64
1, 156093, Note_off_c, 4, 49, 64
1, 156176, Note_on_c, 3, 74, 109
1, 156183, Note_off_c, 2, 69, 64
1, 156268, Note_off_c, 4, 42, 64
1, 156268, Note_off_c, 4, 50, 64
1, 156269, Note_on_c, 3, 62, 127
1, 156269, Note_on_c, 4, 55, 127
1, 156270, Note_on_c, 4, 47, 127
1, 156276, Note_off_c, 3, 74, 64
1, 156354, Note_off_c, 3, 62, 64
1, 156360, Note_on_c, 3, 62, 127
1, 156360, Note_on_c, 2, 66, 127
1, 156361, Note_on_c, 4, 57, 127
1, 156361, Note_on_c, 4, 45, 127
1, 156368, Note_off_c, 4, 47, 64
1, 156368, Note_off_c, 4, 55, 64
1, 156540, Note_off_c, 4, 45, 64
1, 156545, Note_off_c, 4, 57, 64
1, 156546, Note_off_c, 2, 66, 64
1, 156546, Note_off_c, 3, 62, 64
1, 156547, Note_on_c, 3, 64, 127
1, 156547, Note_on_c, 4, 61, 127
1, 156548, Note_on_c, 4, 55, 127
1, 156548, Note_on_c, 4, 45, 127
1, 156635, Note_off_c, 4, 55, 64
1, 156635, Note_off_c, 4, 61, 64
1, 156636, Note_off_c, 3, 64, 64
1, 156642, Note_on_c, 4, 61, 127
1, 156642, Note_on_c, 4, 55, 127
1, 156642, Note_on_c, 3, 64, 127
1, 156643, Note_on_c, 4, 50, 127
1, 156649, Note_off_c, 4, 45, 64
1, 156897, Note_off_c, 4, 55, 64
1, 156897, Note_off_c, 4, 61, 64
1, 156898, Note_off_c, 3, 64, 64
1, 156905, Note_on_c, 3, 62, 127
1, 156906, Note_on_c, 4, 54, 127
1, 157083, Note_on_c, 3, 78, 104
1, 157177, Note_on_c, 3, 79, 106
1, 157185, Note_off_c, 3, 78, 64
1, 157261, Note_off_c, 3, 79, 64
1, 157269, Note_on_c, 3, 79, 102
1, 157313, Note_on_c, 3, 78, 99
1, 157321, Note_off_c, 3, 79, 64
1, 157359, Note_on_c, 0, 81, 102
1, 157367, Note_off_c, 3, 78, 64
1, 157402, Note_on_c, 3, 79, 102
1, 157409, Note_off_c, 0, 81, 64
1, 157448, Note_on_c, 0, 83, 102
1, 157455, Note_off_c, 3, 79, 64
1, 157494, Note_on_c, 0, 81, 102
1, 157501, Note_off_c, 0, 83, 64
1, 157538, Note_on_c, 3, 79, 102
1, 157546, Note_off_c, 0, 81, 64
1, 157582, Note_on_c, 3, 78, 99
1, 157590, Note_off_c, 3, 79, 64
1, 157626, Note_on_c, 3, 79, 102
1, 157632, Note_off_c, 3, 78, 64
1, 157668, Note_on_c, 3, 76, 103
1, 157674, Note_off_c, 3, 79, 64
1, 157682, Note_off_c, 4, 50, 64
1, 157711, Note_on_c, 3, 74, 109
1, 157712, Note_on_c, 4, 57, 127
1, 157712, Note_on_c, 3, 64, 127
1, 157712, Note_on_c, 2, 67, 127
1, 157718, Note_off_c, 3, 76, 64
1, 157726, Note_off_c, 4, 54, 64
1, 157727, Note_off_c, 3, 62, 64
1, 157897, Note_off_c, 3, 74, 64
1, 157897, Note_on_c, 3, 76, 107
1, 157940, Note_off_c, 3, 76, 64
1, 157946, Note_on_c, 3, 74, 109
1, 157988, Note_off_c, 3, 74, 64
1, 157992, Note_on_c, 3, 73, 109
1, 158175, Note_off_c, 3, 73, 64
1, 158175, Note_off_c, 3, 64, 64
1, 158175, Note_off_c, 4, 57, 64
1, 158176, Note_off_c, 2, 67, 64
1, 158176, Note_on_c, 2, 71, 118
1, 158177, Note_on_c, 2, 68, 124
1, 158177, Note_on_c, 3, 62, 127
1, 158178, Note_on_c, 4, 59, 127
1, 158258, Note_off_c, 2, 71, 64
1, 158266, Note_on_c, 2, 71, 118
1, 158267, Note_on_c, 3, 64, 127
1, 158267, Note_on_c, 2, 67, 127
1, 158268, Note_on_c, 4, 61, 127
1, 158274, Note_off_c, 4, 59, 64
1, 158274, Note_off_c, 3, 62, 64
1, 158275, Note_off_c, 2, 68, 64
1, 158357, Note_on_c, 2, 69, 122
1, 158365, Note_off_c, 2, 71, 64
1, 158443, Note_off_c, 2, 69, 64
1, 158449, Note_on_c, 2, 69, 122
1, 158536, Note_off_c, 2, 69, 64
1, 158544, Note_off_c, 2, 67, 64
1, 158544, Note_off_c, 3, 64, 64
1, 158544, Note_off_c, 4, 61, 64
1, 158545, Note_on_c, 3, 62, 127
1, 158545, Note_on_c, 2, 69, 122
1, 158545, Note_on_c, 2, 66, 127
1, 158637, Note_on_c, 3, 74, 109
1, 158644, Note_off_c, 2, 69, 64
1, 158721, Note_off_c, 3, 74, 64
1, 158727, Note_on_c, 3, 78, 104
1, 158727, Note_on_c, 3, 74, 109
1, 158814, Note_off_c, 3, 74, 64
1, 158815, Note_off_c, 3, 78, 64
1, 158821, Note_off_c, 2, 66, 64
1, 158821, Note_off_c, 3, 62, 64
1, 158822, Note_on_c, 3, 78, 104
1, 158822, Note_on_c, 3, 74, 109
1, 158823, Note_on_c, 4, 57, 127
1, 158823, Note_on_c, 2, 69, 122
1, 159002, Note_off_c, 3, 74, 64
1, 159003, Note_off_c, 3, 78, 64
1, 159003, Note_on_c, 3, 79, 106
1, 159004, Note_on_c, 3, 76, 107
1, 159089, Note_off_c, 3, 76, 64
1, 159089, Note_off_c, 3, 79, 64
1, 159096, Note_on_c, 3, 76, 107
1, 159096, Note_on_c, 3, 73, 109
1, 159277, Note_off_c, 3, 73, 64
1, 159277, Note_off_c, 3, 76, 64
1, 159278, Note_on_c, 3, 78, 104
1, 159370, Note_on_c, 3, 79, 102
1, 159378, Note_off_c, 3, 78, 64
1, 159453, Note_off_c, 3, 79, 64
1, 159460, Note_on_c, 3, 79, 98
1, 159504, Note_on_c, 3, 78, 97
1, 159512, Note_off_c, 3, 79, 64
1, 159551, Note_on_c, 0, 81, 98
1, 159558, Note_off_c, 3, 78, 64
1, 159595, Note_on_c, 3, 79, 98
1, 159601, Note_off_c, 0, 81, 64
1, 159640, Note_on_c, 0, 83, 98
1, 159646, Note_off_c, 3, 79, 64
1, 159682, Note_on_c, 0, 81, 98
1, 159688, Note_off_c, 0, 83, 64
1, 159724, Note_on_c, 3, 79, 98
1, 159732, Note_off_c, 0, 81, 64
1, 159767, Note_on_c, 3, 78, 97
1, 159774, Note_off_c, 3, 79, 64
1, 159813, Note_on_c, 3, 79, 98
1, 159820, Note_off_c, 3, 78, 64
1, 159855, Note_on_c, 3, 76, 98
1, 159863, Note_off_c, 3, 79, 64
1, 159893, Note_off_c, 4, 57, 64
1, 159894, Note_off_c, 2, 69, 64
1, 159902, Note_on_c, 2, 69, 122
1, 159902, Note_on_c, 3, 74, 105
1, 159903, Note_on_c, 2, 67, 127
1, 159909, Note_off_c, 3, 76, 64
1, 159947, Note_on_c, 3, 73, 105
1, 159957, Note_off_c, 3, 74, 64
1, 159995, Note_on_c, 3, 76, 103
1, 160003, Note_off_c, 3, 73, 64
1, 160041, Note_on_c, 3, 74, 105
1, 160049, Note_off_c, 3, 76, 64
1, 160088, Note_on_c, 3, 78, 99
1, 160095, Note_off_c, 3, 74, 64
1, 160133, Note_on_c, 3, 76, 103
1, 160139, Note_off_c, 3, 78, 64
1, 160179, Note_on_c, 3, 79, 102
1, 160187, Note_off_c, 3, 76, 64
1, 160224, Note_on_c, 3, 78, 99
1, 160231, Note_off_c, 3, 79, 64
1, 160268, Note_on_c, 0, 81, 102
1, 160275, Note_off_c, 3, 78, 64
1, 160312, Note_on_c, 3, 79, 102
1, 160320, Note_off_c, 0, 81, 64
1, 160358, Note_on_c, 0, 83, 102
1, 160366, Note_off_c, 3, 79, 64
1, 160404, Note_on_c, 0, 81, 102
1, 160412, Note_off_c, 0, 83, 64
1, 160443, Note_off_c, 0, 81, 64
1, 160451, Note_on_c, 0, 81, 106
1, 160489, Note_off_c, 2, 69, 64
1, 160489, Note_off_c, 2, 67, 64
1, 160540, Note_on_c, 4, 65, 127
1, 160540, Note_on_c, 3, 75, 116
1, 160623, Note_off_c, 4, 65, 64
1, 160624, Note_off_c, 3, 75, 64
1, 160630, Note_on_c, 3, 75, 116
1, 160631, Note_on_c, 4, 65, 127
1, 160723, Note_off_c, 0, 81, 64
1, 160724, Note_on_c, 0, 80, 116
1, 160809, Note_off_c, 3, 75, 64
1, 160809, Note_off_c, 4, 65, 64
1, 160813, Note_on_c, 3, 74, 119
1, 160814, Note_on_c, 3, 64, 127
1, 160896, Note_off_c, 3, 64, 64
1, 160897, Note_off_c, 3, 74, 64
1, 160904, Note_on_c, 3, 74, 119
1, 160904, Note_on_c, 3, 64, 127
1, 160995, Note_off_c, 0, 80, 64
1, 160995, Note_on_c, 3, 79, 116
1, 161079, Note_off_c, 3, 64, 64
1, 161079, Note_off_c, 3, 74, 64
1, 161084, Note_on_c, 3, 74, 119
1, 161085, Note_on_c, 2, 71, 120
1, 161168, Note_off_c, 2, 71, 64
1, 161168, Note_off_c, 3, 74, 64
1, 161174, Note_on_c, 3, 74, 119
1, 161175, Note_on_c, 2, 71, 120
1, 161258, Note_off_c, 2, 71, 64
1, 161258, Note_off_c, 3, 74, 64
1, 161265, Note_off_c, 3, 79, 64
1, 161265, Note_on_c, 3, 78, 114
1, 161266, Note_on_c, 3, 73, 119
1, 161266, Note_on_c, 2, 70, 122
1, 161447, Note_off_c, 2, 70, 64
1, 161448, Note_on_c, 3, 66, 127
1, 161531, Note_off_c, 3, 73, 64
1, 161538, Note_off_c, 3, 78, 64
1, 161539, Note_on_c, 3, 71, 120
1, 161539, Note_on_c, 4, 54, 127
1, 161545, Note_off_c, 3, 66, 64
1, 161626, Note_on_c, 3, 66, 127
1, 161627, Note_on_c, 4, 59, 127
1, 161634, Note_off_c, 4, 54, 64
1, 161635, Note_off_c, 3, 71, 64
1, 161718, Note_on_c, 4, 54, 127
1, 161718, Note_on_c, 3, 71, 120
1, 161724, Note_off_c, 4, 59, 64
1, 161725, Note_off_c, 3, 66, 64
1, 161806, Note_on_c, 3, 74, 120
1, 161807, Note_on_c, 4, 59, 127
1, 161813, Note_off_c, 3, 71, 64
1, 161813, Note_off_c, 4, 54, 64
1, 161892, Note_on_c, 3, 71, 120
1, 161893, Note_on_c, 3, 62, 127
1, 161899, Note_off_c, 4, 59, 64
1, 161900, Note_off_c, 3, 74, 64
1, 161977, Note_on_c, 4, 59, 127
1, 161977, Note_on_c, 3, 74, 120
1, 161984, Note_off_c, 3, 62, 64
1, 161984, Note_off_c, 3, 71, 64
1, 162063, Note_on_c, 3, 78, 106
1, 162064, Note_on_c, 3, 62, 127
1, 162070, Note_off_c, 4, 59, 64
1, 162071, Note_off_c, 3, 74, 64
1, 162106, Note_on_c, 3, 76, 112
1, 162113, Note_off_c, 3, 78, 64
1, 162148, Note_on_c, 3, 74, 118
1, 162148, Note_on_c, 3, 66, 127
1, 162155, Note_off_c, 3, 76, 64
1, 162155, Note_off_c, 3, 62, 64
1, 162192, Note_on_c, 3, 73, 118
1, 162192, Note_on_c, 3, 64, 127
1, 162199, Note_off_c, 3, 66, 64
1, 162199, Note_off_c, 3, 74, 64
1, 162234, Note_on_c, 3, 71, 120
1, 162235, Note_on_c, 3, 62, 127
1, 162243, Note_off_c, 3, 64, 64
1, 162243, Note_off_c, 3, 73, 64
1, 162278, Note_on_c, 3, 70, 122
1, 162279, Note_on_c, 4, 61, 127
1, 162286, Note_off_c, 3, 71, 64
1, 162286, Note_off_c, 3, 62, 64
1, 162321, Note_on_c, 3, 74, 114
1, 162321, Note_on_c, 4, 59, 127
1, 162327, Note_off_c, 4, 61, 64
1, 162328, Note_off_c, 3, 70, 64
1, 162363, Note_on_c, 3, 73, 114
1, 162363, Note_on_c, 4, 58, 127
1, 162370, Note_off_c, 4, 59, 64
1, 162370, Note_off_c, 3, 74, 64
1, 162406, Note_on_c, 3, 71, 120
1, 162406, Note_on_c, 3, 62, 127
1, 162412, Note_off_c, 4, 58, 64
1, 162412, Note_off_c, 3, 73, 64
1, 162449, Note_on_c, 3, 69, 124
1, 162450, Note_on_c, 4, 61, 127
1, 162456, Note_off_c, 3, 62, 64
1, 162456, Note_off_c, 3, 71, 64
1, 162493, Note_on_c, 3, 67, 127
1, 162494, Note_on_c, 4, 59, 127
1, 162502, Note_off_c, 4, 61, 64
1, 162503, Note_off_c, 3, 69, 64
1, 162538, Note_on_c, 3, 66, 127
1, 162538, Note_on_c, 4, 57, 127
1, 162544, Note_off_c, 4, 59, 64
1, 162545, Note_off_c, 3, 67, 64
1, 162584, Note_on_c, 3, 64, 127
1, 162584, Note_on_c, 4, 55, 127
1, 162591, Note_off_c, 4, 57, 64
1, 162591, Note_off_c, 3, 66, 64
1, 162628, Note_on_c, 4, 54, 127
1, 162635, Note_off_c, 4, 55, 64
1, 162670, Note_on_c, 4, 59, 127
1, 162670, Note_on_c, 4, 52, 127
1, 162676, Note_off_c, 4, 54, 64
1, 162676, Note_off_c, 3, 64, 64
1, 162760, Note_on_c, 3, 64, 127
1, 162760, Note_on_c, 4, 47, 127
1, 162766, Note_off_c, 4, 52, 64
1, 162767, Note_off_c, 4, 59, 64
1, 162846, Note_on_c, 3, 67, 127
1, 162846, Note_on_c, 4, 52, 127
1, 162855, Note_off_c, 4, 47, 64
1, 162855, Note_off_c, 3, 64, 64
1, 162933, Note_on_c, 4, 55, 127
1, 162933, Note_on_c, 3, 64, 127
1, 162939, Note_off_c, 4, 52, 64
1, 162940, Note_off_c, 3, 67, 64
1, 163021, Note_on_c, 3, 67, 127
1, 163021, Note_on_c, 4, 52, 127
1, 163030, Note_off_c, 3, 64, 64
1, 163030, Note_off_c, 4, 55, 64
1, 163109, Note_on_c, 3, 71, 120
1, 163110, Note_on_c, 4, 55, 127
1, 163116, Note_off_c, 4, 52, 64
1, 163116, Note_off_c, 3, 67, 64
1, 163152, Note_on_c, 3, 69, 124
1, 163159, Note_off_c, 3, 71, 64
1, 163196, Note_on_c, 4, 59, 127
1, 163196, Note_on_c, 3, 67, 127
1, 163204, Note_off_c, 3, 69, 64
1, 163205, Note_off_c, 4, 55, 64
1, 163240, Note_on_c, 3, 66, 127
1, 163240, Note_on_c, 4, 57, 127
1, 163248, Note_off_c, 4, 59, 64
1, 163249, Note_off_c, 3, 67, 64
1, 163282, Note_on_c, 3, 64, 127
1, 163283, Note_on_c, 4, 55, 127
1, 163289, Note_off_c, 4, 57, 64
1, 163289, Note_off_c, 3, 66, 64
1, 163326, Note_on_c, 3, 63, 127
1, 163327, Note_on_c, 4, 54, 127
1, 163333, Note_off_c, 4, 55, 64
1, 163333, Note_off_c, 3, 64, 64
1, 163370, Note_on_c, 3, 79, 113
1, 163371, Note_on_c, 4, 52, 127
1, 163377, Note_off_c, 4, 54, 64
1, 163378, Note_off_c, 3, 63, 64
1, 163411, Note_on_c, 4, 51, 127
1, 163411, Note_on_c, 3, 78, 111
1, 163419, Note_off_c, 4, 52, 64
1, 163420, Note_off_c, 3, 79, 64
1, 163457, Note_on_c, 3, 76, 117
1, 163457, Note_on_c, 3, 67, 127
1, 163464, Note_off_c, 3, 78, 64
1, 163464, Note_off_c, 4, 51, 64
1, 163499, Note_on_c, 3, 74, 115
1, 163500, Note_on_c, 3, 66, 127
1, 163508, Note_off_c, 3, 67, 64
1, 163508, Note_off_c, 3, 76, 64
1, 163543, Note_on_c, 3, 73, 118
1, 163544, Note_on_c, 3, 64, 127
1, 163550, Note_off_c, 3, 66, 64
1, 163550, Note_off_c, 3, 74, 64
1, 163586, Note_on_c, 3, 71, 120
1, 163587, Note_on_c, 3, 62, 127
1, 163595, Note_off_c, 3, 64, 64
1, 163596, Note_off_c, 3, 73, 64
1, 163629, Note_on_c, 4, 61, 127
1, 163629, Note_on_c, 3, 69, 124
1, 163637, Note_off_c, 3, 62, 64
1, 163638, Note_off_c, 3, 71, 64
1, 163675, Note_on_c, 4, 59, 127
1, 163680, Note_off_c, 4, 61, 64
1, 163719, Note_on_c, 3, 64, 127
1, 163719, Note_on_c, 4, 57, 127
1, 163726, Note_off_c, 3, 69, 64
1, 163726, Note_off_c, 4, 59, 64
1, 163805, Note_on_c, 3, 69, 124
1, 163806, Note_on_c, 4, 52, 127
1, 163812, Note_off_c, 4, 57, 64
1, 163812, Note_off_c, 3, 64, 64
1, 163896, Note_on_c, 4, 57, 127
1, 163896, Note_on_c, 3, 73, 118
1, 163902, Note_off_c, 4, 52, 64
1, 163903, Note_off_c, 3, 69, 64
1, 163982, Note_on_c, 3, 69, 124
1, 163982, Note_on_c, 4, 61, 127
1, 163989, Note_off_c, 3, 73, 64
1, 163989, Note_off_c, 4, 57, 64
1, 164070, Note_on_c, 3, 73, 118
1, 164071, Note_on_c, 4, 57, 127
1, 164077, Note_off_c, 4, 61, 64
1, 164077, Note_off_c, 3, 69, 64
1, 164160, Note_on_c, 3, 76, 110
1, 164161, Note_on_c, 4, 61, 127
1, 164167, Note_off_c, 4, 57, 64
1, 164168, Note_off_c, 3, 73, 64
1, 164205, Note_on_c, 3, 78, 104
1, 164212, Note_off_c, 3, 76, 64
1, 164247, Note_on_c, 3, 79, 106
1, 164247, Note_on_c, 3, 64, 127
1, 164254, Note_off_c, 3, 78, 64
1, 164254, Note_off_c, 4, 61, 64
1, 164291, Note_on_c, 3, 78, 104
1, 164292, Note_on_c, 3, 66, 127
1, 164298, Note_off_c, 3, 64, 64
1, 164298, Note_off_c, 3, 79, 64
1, 164333, Note_on_c, 3, 76, 107
1, 164334, Note_on_c, 3, 67, 127
1, 164340, Note_off_c, 3, 66, 64
1, 164340, Note_off_c, 3, 78, 64
1, 164376, Note_on_c, 3, 74, 109
1, 164376, Note_on_c, 3, 66, 127
1, 164382, Note_off_c, 3, 67, 64
1, 164383, Note_off_c, 3, 76, 64
1, 164418, Note_on_c, 3, 73, 112
1, 164418, Note_on_c, 3, 64, 127
1, 164424, Note_off_c, 3, 66, 64
1, 164425, Note_off_c, 3, 74, 64
1, 164462, Note_on_c, 3, 71, 120
1, 164462, Note_on_c, 3, 62, 127
1, 164469, Note_off_c, 3, 64, 64
1, 164469, Note_off_c, 3, 73, 64
1, 164504, Note_on_c, 3, 69, 124
1, 164505, Note_on_c, 4, 61, 126
1, 164513, Note_off_c, 3, 62, 64
1, 164513, Note_off_c, 3, 71, 64
1, 164548, Note_on_c, 3, 71, 120
1, 164549, Note_on_c, 4, 59, 127
1, 164555, Note_off_c, 4, 61, 64
1, 164556, Note_off_c, 3, 69, 64
1, 164592, Note_on_c, 3, 67, 127
1, 164593, Note_on_c, 4, 61, 126
1, 164599, Note_off_c, 4, 59, 64
1, 164600, Note_off_c, 3, 71, 64
1, 164635, Note_on_c, 4, 57, 126
1, 164635, Note_on_c, 3, 69, 124
1, 164641, Note_off_c, 4, 61, 64
1, 164642, Note_off_c, 3, 67, 64
1, 164679, Note_on_c, 4, 62, 127
1, 164679, Note_on_c, 2, 66, 127
1, 164686, Note_off_c, 4, 57, 64
1, 164718, Note_off_c, 3, 69, 64
1, 164724, Note_on_c, 3, 69, 124
1, 164768, Note_on_c, 3, 68, 124
1, 164776, Note_off_c, 3, 69, 64
1, 164812, Note_on_c, 3, 69, 124
1, 164818, Note_off_c, 3, 68, 64
1, 164856, Note_on_c, 2, 71, 120
1, 164861, Note_off_c, 3, 69, 64
1, 164900, Note_on_c, 3, 69, 124
1, 164908, Note_off_c, 2, 71, 64
1, 164936, Note_off_c, 4, 62, 64
1, 164937, Note_off_c, 2, 66, 64
1, 164945, Note_on_c, 2, 66, 127
1, 164945, Note_on_c, 3, 74, 113
1, 164946, Note_on_c, 4, 62, 127
1, 164965, Note_off_c, 3, 69, 64
1, 164988, Note_on_c, 3, 69, 124
1, 165007, Note_off_c, 3, 74, 64
1, 165032, Note_on_c, 3, 68, 124
1, 165038, Note_off_c, 3, 69, 64
1, 165077, Note_on_c, 3, 69, 124
1, 165084, Note_off_c, 3, 68, 64
1, 165119, Note_on_c, 2, 71, 120
1, 165127, Note_off_c, 3, 69, 64
1, 165163, Note_on_c, 3, 69, 124
1, 165172, Note_off_c, 2, 71, 64
1, 165201, Note_off_c, 4, 62, 64
1, 165202, Note_off_c, 2, 66, 64
1, 165208, Note_on_c, 4, 64, 127
1, 165209, Note_on_c, 4, 61, 127
1, 165246, Note_off_c, 3, 69, 64
1, 165253, Note_on_c, 3, 69, 124
1, 165298, Note_on_c, 3, 68, 124
1, 165305, Note_off_c, 3, 69, 64
1, 165344, Note_on_c, 3, 69, 124
1, 165351, Note_off_c, 3, 68, 64
1, 165388, Note_off_c, 4, 61, 64
1, 165388, Note_on_c, 2, 66, 127
1, 165389, Note_on_c, 4, 62, 127
1, 165407, Note_off_c, 3, 69, 64
1, 165431, Note_on_c, 3, 69, 124
1, 165450, Note_off_c, 2, 66, 64
1, 165468, Note_off_c, 4, 64, 64
1, 165475, Note_on_c, 2, 67, 127
1, 165476, Note_on_c, 4, 64, 127
1, 165484, Note_off_c, 4, 62, 64
1, 165497, Note_off_c, 3, 69, 64
1, 165520, Note_on_c, 3, 69, 124
1, 165543, Note_off_c, 2, 67, 64
1, 165566, Note_on_c, 2, 66, 127
1, 165567, Note_on_c, 4, 62, 127
1, 165575, Note_off_c, 4, 64, 64
1, 165588, Note_off_c, 3, 69, 64
1, 165612, Note_on_c, 3, 69, 124
1, 165632, Note_off_c, 2, 66, 64
1, 165656, Note_on_c, 4, 64, 127
1, 165656, Note_on_c, 4, 61, 127
1, 165664, Note_off_c, 4, 62, 64
1, 165677, Note_off_c, 3, 69, 64
1, 165701, Note_on_c, 3, 69, 124
1, 165745, Note_on_c, 4, 62, 127
1, 165745, Note_on_c, 2, 66, 127
1, 165752, Note_off_c, 4, 61, 64
1, 165752, Note_off_c, 4, 64, 64
1, 165753, Note_off_c, 3, 69, 64
1, 165789, Note_on_c, 0, 81, 99
1, 165835, Note_on_c, 0, 80, 99
1, 165836, Note_off_c, 0, 81, 64
1, 165876, Note_off_c, 0, 80, 64
1, 165880, Note_on_c, 0, 81, 99
1, 165921, Note_off_c, 0, 81, 64
1, 165923, Note_on_c, 0, 83, 99
1, 165967, Note_on_c, 0, 81, 99
1, 165972, Note_off_c, 0, 83, 64
1, 166011, Note_on_c, 3, 78, 110
1, 166011, Note_on_c, 0, 86, 98
1, 166012, Note_on_c, 3, 74, 118
1, 166034, Note_off_c, 0, 81, 64
1, 166055, Note_on_c, 0, 81, 99
1, 166076, Note_off_c, 0, 86, 64
1, 166099, Note_on_c, 0, 80, 99
1, 166107, Note_off_c, 0, 81, 64
1, 166107, Note_off_c, 4, 62, 64
1, 166108, Note_off_c, 2, 66, 64
1, 166137, Note_off_c, 0, 80, 64
1, 166144, Note_on_c, 0, 81, 99
1, 166187, Note_off_c, 0, 81, 64
1, 166187, Note_on_c, 0, 83, 99
1, 166231, Note_off_c, 0, 83, 64
1, 166231, Note_on_c, 0, 81, 99
1, 166277, Note_on_c, 3, 76, 113
1, 166277, Note_on_c, 3, 73, 118
1, 166299, Note_off_c, 3, 78, 64
1, 166299, Note_off_c, 3, 74, 64
1, 166315, Note_off_c, 0, 81, 64
1, 166321, Note_on_c, 0, 81, 99
1, 166366, Note_on_c, 0, 80, 99
1, 166370, Note_off_c, 0, 81, 64
1, 166410, Note_off_c, 0, 80, 64
1, 166411, Note_on_c, 0, 81, 99
1, 166455, Note_off_c, 3, 73, 64
1, 166456, Note_on_c, 3, 78, 107
1, 166456, Note_on_c, 3, 74, 115
1, 166477, Note_off_c, 0, 81, 64
1, 166499, Note_on_c, 0, 81, 99
1, 166522, Note_off_c, 3, 78, 64
1, 166537, Note_off_c, 3, 76, 64
1, 166545, Note_on_c, 3, 79, 99
1, 166545, Note_on_c, 3, 76, 110
1, 166551, Note_off_c, 3, 74, 64
1, 166567, Note_off_c, 0, 81, 64
1, 166590, Note_on_c, 0, 81, 99
1, 166613, Note_off_c, 3, 79, 64
1, 166634, Note_on_c, 3, 78, 107
1, 166634, Note_on_c, 3, 74, 115
1, 166643, Note_off_c, 3, 76, 64
1, 166656, Note_off_c, 0, 81, 64
1, 166678, Note_on_c, 0, 81, 99
1, 166699, Note_off_c, 3, 78, 64
1, 166722, Note_on_c, 3, 76, 110
1, 166723, Note_on_c, 3, 73, 115
1, 166731, Note_off_c, 3, 74, 64
1, 166744, Note_off_c, 0, 81, 64
1, 166767, Note_on_c, 0, 81, 99
1, 166813, Note_on_c, 3, 74, 115
1, 166822, Note_off_c, 3, 76, 64
1, 166822, Note_off_c, 3, 73, 64
1, 166859, Note_on_c, 3, 78, 107
1, 166866, Note_off_c, 0, 81, 64
1, 166901, Note_on_c, 3, 79, 99
1, 166908, Note_off_c, 3, 78, 64
1, 166945, Note_on_c, 0, 81, 99
1, 166953, Note_off_c, 3, 79, 64
1, 166987, Note_on_c, 0, 83, 99
1, 166993, Note_off_c, 0, 81, 64
1, 167029, Note_on_c, 0, 85, 98
1, 167035, Note_off_c, 0, 83, 64
1, 167064, Note_off_c, 3, 74, 64
1, 167070, Note_on_c, 0, 86, 98
1, 167070, Note_on_c, 2, 66, 127
1, 167071, Note_on_c, 3, 62, 127
1, 167079, Note_off_c, 0, 85, 64
1, 167113, Note_on_c, 0, 85, 98
1, 167121, Note_off_c, 0, 86, 64
1, 167155, Note_on_c, 0, 83, 99
1, 167156, Note_on_c, 2, 67, 127
1, 167156, Note_on_c, 3, 64, 127
1, 167162, Note_off_c, 0, 85, 64
1, 167162, Note_off_c, 3, 62, 64
1, 167163, Note_off_c, 2, 66, 64
1, 167197, Note_on_c, 0, 81, 99
1, 167205, Note_off_c, 0, 83, 64
1, 167242, Note_on_c, 3, 79, 99
1, 167242, Note_on_c, 2, 69, 118
1, 167243, Note_on_c, 2, 66, 127
1, 167248, Note_off_c, 0, 81, 64
1, 167249, Note_off_c, 3, 64, 64
1, 167249, Note_off_c, 2, 67, 64
1, 167286, Note_on_c, 3, 78, 107
1, 167292, Note_off_c, 3, 79, 64
1, 167330, Note_on_c, 2, 71, 118
1, 167331, Note_on_c, 2, 67, 127
1, 167339, Note_off_c, 2, 69, 64
1, 167339, Note_off_c, 2, 66, 64
1, 167376, Note_on_c, 3, 75, 109
1, 167382, Note_off_c, 3, 78, 64
1, 167419, Note_on_c, 3, 76, 110
1, 167426, Note_off_c, 3, 75, 64
1, 167462, Note_on_c, 3, 78, 107
1, 167469, Note_off_c, 3, 76, 64
1, 167505, Note_on_c, 3, 79, 99
1, 167512, Note_off_c, 3, 78, 64
1, 167547, Note_on_c, 0, 81, 99
1, 167555, Note_off_c, 3, 79, 64
1, 167583, Note_off_c, 2, 67, 64
1, 167584, Note_off_c, 2, 71, 64
1, 167590, Note_on_c, 0, 83, 99
1, 167591, Note_on_c, 2, 67, 127
1, 167591, Note_on_c, 3, 64, 127
1, 167597, Note_off_c, 0, 81, 64
1, 167634, Note_on_c, 0, 81, 99
1, 167641, Note_off_c, 0, 83, 64
1, 167676, Note_on_c, 2, 69, 121
1, 167676, Note_on_c, 2, 66, 127
1, 167676, Note_on_c, 3, 79, 99
1, 167683, Note_off_c, 0, 81, 64
1, 167683, Note_off_c, 3, 64, 64
1, 167684, Note_off_c, 2, 67, 64
1, 167718, Note_on_c, 3, 78, 107
1, 167725, Note_off_c, 3, 79, 64
1, 167761, Note_on_c, 3, 76, 110
1, 167762, Note_on_c, 2, 71, 120
1, 167762, Note_on_c, 2, 67, 127
1, 167768, Note_off_c, 3, 78, 64
1, 167769, Note_off_c, 2, 66, 64
1, 167769, Note_off_c, 2, 69, 64
1, 167806, Note_on_c, 3, 74, 116
1, 167813, Note_off_c, 3, 76, 64
1, 167850, Note_on_c, 4, 57, 127
1, 167857, Note_off_c, 2, 67, 64
1, 167857, Note_off_c, 2, 71, 64
1, 167896, Note_on_c, 2, 68, 124
1, 167904, Note_off_c, 3, 74, 64
1, 167941, Note_on_c, 2, 66, 127
1, 167941, Note_on_c, 2, 71, 117
1, 167942, Note_on_c, 3, 62, 127
1, 167948, Note_off_c, 2, 68, 64
1, 167984, Note_on_c, 2, 69, 121
1, 167992, Note_off_c, 2, 71, 64
1, 168021, Note_off_c, 3, 62, 64
1, 168022, Note_off_c, 2, 66, 64
1, 168029, Note_on_c, 3, 73, 108
1, 168030, Note_on_c, 2, 66, 127
1, 168030, Note_on_c, 3, 62, 127
1, 168035, Note_off_c, 2, 69, 64
1, 168073, Note_on_c, 2, 71, 117
1, 168081, Note_off_c, 3, 73, 64
1, 168110, Note_off_c, 4, 57, 64
1, 168118, Note_on_c, 4, 57, 127
1, 168118, Note_on_c, 3, 74, 108
1, 168124, Note_off_c, 2, 71, 64
1, 168161, Note_on_c, 3, 73, 108
1, 168168, Note_off_c, 3, 74, 64
1, 168201, Note_off_c, 3, 62, 64
1, 168202, Note_off_c, 2, 66, 64
1, 168206, Note_on_c, 3, 76, 106
1, 168206, Note_on_c, 2, 66, 127
1, 168207, Note_on_c, 3, 62, 127
1, 168213, Note_off_c, 3, 73, 64
1, 168250, Note_on_c, 3, 74, 108
1, 168260, Note_off_c, 3, 76, 64
1, 168290, Note_off_c, 2, 66, 64
1, 168290, Note_off_c, 3, 62, 64
1, 168297, Note_on_c, 3, 78, 103
1, 168298, Note_on_c, 2, 66, 127
1, 168298, Note_on_c, 3, 62, 127
1, 168304, Note_off_c, 3, 74, 64
1, 168341, Note_on_c, 3, 76, 106
1, 168349, Note_off_c, 3, 78, 64
1, 168378, Note_off_c, 4, 57, 64
1, 168386, Note_on_c, 3, 79, 105
1, 168387, Note_on_c, 4, 57, 127
1, 168393, Note_off_c, 3, 76, 64
1, 168432, Note_on_c, 3, 78, 103
1, 168439, Note_off_c, 3, 79, 64
1, 168472, Note_off_c, 3, 62, 64
1, 168472, Note_off_c, 2, 66, 64
1, 168477, Note_on_c, 2, 66, 127
1, 168477, Note_on_c, 0, 81, 105
1, 168478, Note_on_c, 3, 62, 127
1, 168484, Note_off_c, 3, 78, 64
1, 168523, Note_on_c, 3, 79, 109
1, 168530, Note_off_c, 0, 81, 64
1, 168561, Note_off_c, 3, 62, 64
1, 168562, Note_off_c, 2, 66, 64
1, 168568, Note_on_c, 2, 66, 127
1, 168568, Note_on_c, 0, 83, 109
1, 168569, Note_on_c, 3, 62, 127
1, 168575, Note_off_c, 3, 79, 64
1, 168613, Note_on_c, 0, 81, 109
1, 168621, Note_off_c, 0, 83, 64
1, 168649, Note_off_c, 4, 57, 64
1, 168657, Note_on_c, 0, 85, 106
1, 168658, Note_on_c, 4, 57, 127
1, 168664, Note_off_c, 0, 81, 64
1, 168702, Note_on_c, 0, 83, 109
1, 168710, Note_off_c, 0, 85, 64
1, 168741, Note_off_c, 2, 66, 64
1, 168741, Note_off_c, 3, 62, 64
1, 168745, Note_on_c, 0, 86, 106
1, 168746, Note_on_c, 2, 66, 127
1, 168746, Note_on_c, 3, 62, 127
1, 168753, Note_off_c, 0, 83, 64
1, 168790, Note_on_c, 0, 85, 106
1, 168797, Note_off_c, 0, 86, 64
1, 168827, Note_off_c, 3, 62, 64
1, 168827, Note_off_c, 2, 66, 64
1, 168834, Note_on_c, 0, 88, 106
1, 168834, Note_on_c, 2, 66, 127
1, 168835, Note_on_c, 3, 62, 127
1, 168842, Note_off_c, 0, 85, 64
1, 168879, Note_on_c, 0, 86, 106
1, 168888, Note_off_c, 0, 88, 64
1, 168918, Note_off_c, 4, 57, 64
1, 168928, Note_on_c, 4, 65, 127
1, 168928, Note_on_c, 0, 89, 114
1, 168929, Note_on_c, 4, 59, 127
1, 168929, Note_on_c, 3, 62, 127
1, 168930, Note_on_c, 4, 56, 127
1, 168935, Note_off_c, 3, 62, 64
1, 168935, Note_off_c, 2, 66, 64
1, 168936, Note_off_c, 0, 86, 64
1, 169106, Note_off_c, 0, 89, 64
1, 169107, Note_on_c, 0, 83, 109
1, 169153, Note_on_c, 0, 85, 106
1, 169161, Note_off_c, 0, 83, 64
1, 169203, Note_on_c, 0, 86, 106
1, 169211, Note_off_c, 0, 85, 64
1, 169248, Note_on_c, 0, 80, 112
1, 169271, Note_off_c, 0, 86, 64
1, 169294, Note_on_c, 0, 83, 109
1, 169315, Note_off_c, 0, 80, 64
1, 169340, Note_on_c, 3, 74, 115
1, 169361, Note_off_c, 0, 83, 64
1, 169386, Note_on_c, 3, 78, 110
1, 169409, Note_off_c, 3, 74, 64
1, 169434, Note_on_c, 2, 71, 120
1, 169455, Note_off_c, 3, 78, 64
1, 169480, Note_on_c, 3, 74, 115
1, 169485, Note_off_c, 2, 71, 64
1, 169594, Note_off_c, 4, 59, 64
1, 169594, Note_off_c, 4, 56, 64
1, 169595, Note_off_c, 4, 65, 64
1, 169595, Note_off_c, 3, 62, 64
1, 169662, Note_on_c, 4, 57, 127
1, 169662, Note_on_c, 2, 66, 127
1, 169751, Note_on_c, 4, 58, 127
1, 169751, Note_on_c, 2, 67, 127
1, 169759, Note_off_c, 4, 57, 64
1, 169760, Note_off_c, 2, 66, 64
1, 169933, Note_off_c, 4, 58, 64
1, 169934, Note_off_c, 2, 67, 64
1, 169934, Note_on_c, 2, 68, 124
1, 169935, Note_on_c, 4, 59, 127
1, 170019, Note_off_c, 3, 74, 64
1, 170027, Note_on_c, 3, 78, 110
1, 170027, Note_on_c, 3, 74, 115
1, 170028, Note_on_c, 4, 57, 127
1, 170028, Note_on_c, 2, 69, 122
1, 170034, Note_off_c, 4, 59, 64
1, 170035, Note_off_c, 2, 68, 64
1, 170287, Note_off_c, 3, 74, 64
1, 170287, Note_off_c, 2, 69, 64
1, 170288, Note_off_c, 3, 78, 64
1, 170293, Note_on_c, 3, 78, 117
1, 170294, Note_on_c, 3, 73, 118
1, 170294, Note_on_c, 2, 67, 127
1, 170339, Note_on_c, 3, 76, 118
1, 170346, Note_off_c, 3, 78, 64
1, 170382, Note_on_c, 3, 74, 120
1, 170390, Note_off_c, 3, 76, 64
1, 170475, Note_on_c, 3, 76, 118
1, 170483, Note_off_c, 3, 74, 64
1, 170571, Note_off_c, 2, 67, 64
1, 170571, Note_off_c, 3, 73, 64
1, 170572, Note_off_c, 4, 57, 64
1, 170572, Note_on_c, 3, 74, 120
1, 170573, Note_on_c, 3, 62, 127
1, 170579, Note_off_c, 3, 76, 64
1, 170661, Note_on_c, 2, 66, 127
1, 170719, Note_off_c, 3, 62, 64
1, 170748, Note_off_c, 3, 74, 64
1, 170748, Note_on_c, 0, 80, 102
1, 170748, Note_on_c, 2, 69, 122
1, 170755, Note_off_c, 2, 66, 64
1, 170794, Note_on_c, 0, 81, 98
1, 170801, Note_off_c, 0, 80, 64
1, 170836, Note_on_c, 3, 62, 127
1, 170836, Note_on_c, 0, 83, 98
1, 170844, Note_off_c, 0, 81, 64
1, 170845, Note_off_c, 2, 69, 64
1, 170880, Note_on_c, 0, 81, 98
1, 170886, Note_off_c, 0, 83, 64
1, 170920, Note_on_c, 3, 79, 106
1, 170921, Note_on_c, 2, 66, 127
1, 170927, Note_off_c, 0, 81, 64
1, 170962, Note_on_c, 3, 78, 104
1, 170969, Note_off_c, 3, 79, 64
1, 170975, Note_off_c, 3, 62, 64
1, 171004, Note_on_c, 2, 69, 122
1, 171004, Note_on_c, 3, 76, 107
1, 171011, Note_off_c, 3, 78, 64
1, 171011, Note_off_c, 2, 66, 64
1, 171044, Note_on_c, 3, 74, 109
1, 171052, Note_off_c, 3, 76, 64
1, 171086, Note_on_c, 3, 73, 109
1, 171087, Note_on_c, 4, 57, 127
1, 171095, Note_off_c, 2, 69, 64
1, 171096, Note_off_c, 3, 74, 64
1, 171132, Note_on_c, 3, 74, 109
1, 171140, Note_off_c, 3, 73, 64
1, 171177, Note_on_c, 3, 75, 110
1, 171177, Note_on_c, 4, 61, 127
1, 171183, Note_off_c, 3, 74, 64
1, 171220, Note_on_c, 3, 76, 111
1, 171228, Note_off_c, 3, 75, 64
1, 171235, Note_off_c, 4, 57, 64
1, 171264, Note_on_c, 3, 77, 111
1, 171264, Note_on_c, 3, 64, 127
1, 171271, Note_off_c, 3, 76, 64
1, 171271, Note_off_c, 4, 61, 64
1, 171306, Note_on_c, 3, 78, 108
1, 171314, Note_off_c, 3, 77, 64
1, 171350, Note_on_c, 3, 79, 106
1, 171351, Note_on_c, 4, 57, 127
1, 171357, Note_off_c, 3, 78, 64
1, 171358, Note_off_c, 3, 64, 64
1, 171393, Note_on_c, 0, 80, 106
1, 171400, Note_off_c, 3, 79, 64
1, 171435, Note_on_c, 0, 81, 103
1, 171435, Note_on_c, 4, 61, 127
1, 171442, Note_off_c, 0, 80, 64
1, 171478, Note_on_c, 0, 82, 103
1, 171486, Note_off_c, 0, 81, 64
1, 171493, Note_off_c, 4, 57, 64
1, 171522, Note_on_c, 0, 83, 103
1, 171523, Note_on_c, 3, 64, 127
1, 171529, Note_off_c, 0, 82, 64
1, 171529, Note_off_c, 4, 61, 64
1, 171569, Note_on_c, 3, 79, 102
1, 171577, Note_off_c, 0, 83, 64
1, 171613, Note_on_c, 3, 78, 99
1, 171614, Note_on_c, 3, 62, 127
1, 171621, Note_off_c, 3, 79, 64
1, 171621, Note_off_c, 3, 64, 64
1, 171704, Note_on_c, 2, 66, 127
1, 171763, Note_off_c, 3, 62, 64
1, 171794, Note_off_c, 3, 78, 64
1, 171794, Note_on_c, 0, 80, 102
1, 171795, Note_on_c, 2, 69, 122
1, 171801, Note_off_c, 2, 66, 64
1, 171837, Note_on_c, 0, 81, 98
1, 171845, Note_off_c, 0, 80, 64
1, 171879, Note_on_c, 0, 83, 98
1, 171880, Note_on_c, 3, 62, 127
1, 171886, Note_off_c, 0, 81, 64
1, 171887, Note_off_c, 2, 69, 64
1, 171922, Note_on_c, 0, 81, 98
1, 171927, Note_off_c, 0, 83, 64
1, 171962, Note_on_c, 2, 66, 127
1, 171962, Note_on_c, 3, 79, 102
1, 171969, Note_off_c, 0, 81, 64
1, 172003, Note_on_c, 3, 78, 99
1, 172009, Note_off_c, 3, 79, 64
1, 172017, Note_off_c, 3, 62, 64
1, 172044, Note_on_c, 3, 76, 103
1, 172045, Note_on_c, 2, 69, 122
1, 172051, Note_off_c, 3, 78, 64
1, 172052, Note_off_c, 2, 66, 64
1, 172087, Note_on_c, 3, 74, 105
1, 172095, Note_off_c, 3, 76, 64
1, 172131, Note_on_c, 3, 73, 105
1, 172132, Note_on_c, 4, 57, 127
1, 172140, Note_off_c, 3, 74, 64
1, 172140, Note_off_c, 2, 69, 64
1, 172177, Note_on_c, 3, 74, 109
1, 172185, Note_off_c, 3, 73, 64
1, 172222, Note_on_c, 3, 75, 106
1, 172222, Note_on_c, 3, 64, 127
1, 172228, Note_off_c, 3, 74, 64
1, 172267, Note_on_c, 3, 76, 107
1, 172272, Note_off_c, 3, 75, 64
1, 172280, Note_off_c, 4, 57, 64
1, 172309, Note_on_c, 3, 77, 107
1, 172309, Note_on_c, 2, 67, 127
1, 172317, Note_off_c, 3, 76, 64
1, 172318, Note_off_c, 3, 64, 64
1, 172353, Note_on_c, 3, 78, 104
1, 172361, Note_off_c, 3, 77, 64
1, 172397, Note_on_c, 3, 79, 106
1, 172397, Note_on_c, 4, 57, 127
1, 172404, Note_off_c, 3, 78, 64
1, 172404, Note_off_c, 2, 67, 64
1, 172440, Note_on_c, 0, 81, 103
1, 172446, Note_off_c, 3, 79, 64
1, 172483, Note_on_c, 3, 64, 127
1, 172483, Note_on_c, 0, 83, 98
1, 172489, Note_off_c, 0, 81, 64
1, 172526, Note_on_c, 3, 79, 102
1, 172534, Note_off_c, 0, 83, 64
1, 172541, Note_off_c, 4, 57, 64
1, 172570, Note_on_c, 3, 76, 103
1, 172571, Note_on_c, 2, 67, 127
1, 172577, Note_off_c, 3, 79, 64
1, 172577, Note_off_c, 3, 64, 64
1, 172614, Note_on_c, 3, 73, 108
1, 172622, Note_off_c, 3, 76, 64
1, 172659, Note_off_c, 3, 73, 64
1, 172660, Note_off_c, 2, 67, 64
1, 172662, Note_on_c, 3, 74, 113
1, 172663, Note_on_c, 3, 62, 127
1, 172663, Note_on_c, 2, 66, 127
1, 172755, Note_on_c, 2, 69, 122
1, 172839, Note_off_c, 2, 69, 64
1, 172842, Note_off_c, 3, 62, 64
1, 172843, Note_off_c, 2, 66, 64
1, 172846, Note_off_c, 3, 74, 64
1, 172846, Note_on_c, 3, 78, 108
1, 172847, Note_on_c, 2, 69, 122
1, 172937, Note_on_c, 3, 74, 113
1, 172937, Note_on_c, 2, 66, 127
1, 172938, Note_on_c, 3, 62, 127
1, 172944, Note_off_c, 2, 69, 64
1, 172997, Note_off_c, 3, 78, 64
1, 173028, Note_on_c, 2, 69, 122
1, 173112, Note_off_c, 2, 69, 64
1, 173114, Note_off_c, 2, 66, 64
1, 173114, Note_off_c, 3, 62, 64
1, 173119, Note_off_c, 3, 74, 64
1, 173120, Note_on_c, 2, 69, 122
1, 173120, Note_on_c, 3, 78, 108
1, 173222, Note_on_c, 3, 74, 113
1, 173222, Note_on_c, 2, 66, 127
1, 173223, Note_on_c, 3, 62, 127
1, 173225, Note_off_c, 2, 69, 64
1, 173229, Note_off_c, 3, 78, 64
1, 175572, Note_off_c, 2, 66, 64
1, 175572, Note_off_c, 3, 74, 64
1, 175572, Note_off_c, 3, 62, 64
1, 176127, Note_on_c, 2, 73, 101
1, 176131, Note_on_c, 4, 57, 103
1, 176135, Note_on_c, 4, 64, 103
1, 176423, Note_off_c, 2, 73, 64
1, 176460, Note_on_c, 2, 74, 110
1, 176504, Note_on_c, 2, 73, 113
1, 176529, Note_off_c, 2, 74, 64
1, 176548, Note_on_c, 2, 71, 122
1, 176577, Note_off_c, 2, 73, 64
1, 176590, Note_on_c, 2, 73, 113
1, 176613, Note_off_c, 2, 71, 64
1, 176627, Note_on_c, 2, 76, 107
1, 176628, Note_on_c, 4, 59, 127
1, 176630, Note_off_c, 4, 57, 64
1, 176644, Note_off_c, 2, 73, 64
1, 176832, Note_on_c, 2, 74, 110
1, 176851, Note_off_c, 2, 76, 64
1, 177034, Note_on_c, 2, 71, 122
1, 177035, Note_off_c, 4, 59, 64
1, 177035, Note_on_c, 4, 62, 126
1, 177050, Note_off_c, 2, 74, 64
1, 177235, Note_on_c, 2, 68, 126
1, 177250, Note_off_c, 2, 71, 64
1, 177426, Note_off_c, 4, 64, 64
1, 177438, Note_on_c, 2, 69, 126
1, 177439, Note_off_c, 4, 62, 64
1, 177439, Note_on_c, 4, 61, 127
1, 177453, Note_off_c, 2, 68, 64
1, 177737, Note_off_c, 2, 69, 64
1, 177737, Note_on_c, 2, 73, 113
1, 177778, Note_on_c, 2, 69, 126
1, 177832, Note_on_c, 2, 76, 107
1, 177851, Note_off_c, 2, 73, 64
1, 177906, Note_off_c, 2, 69, 64
1, 178031, Note_on_c, 2, 74, 110
1, 178032, Note_on_c, 3, 68, 120
1, 178048, Note_off_c, 2, 76, 64
1, 178205, Note_off_c, 3, 68, 64
1, 178206, Note_off_c, 2, 74, 64
1, 178218, Note_on_c, 3, 68, 120
1, 178218, Note_on_c, 2, 74, 110
1, 178404, Note_off_c, 2, 74, 64
1, 178404, Note_off_c, 3, 68, 64
1, 178419, Note_on_c, 2, 74, 110
1, 178420, Note_on_c, 3, 68, 120
1, 178603, Note_off_c, 2, 74, 64
1, 178603, Note_off_c, 3, 68, 64
1, 178619, Note_on_c, 2, 73, 113
1, 178621, Note_off_c, 4, 61, 64
1, 178621, Note_on_c, 3, 69, 120
1, 178716, Note_on_c, 1, 81, 104
1, 178807, Note_on_c, 1, 80, 104
1, 178823, Note_off_c, 1, 81, 64
1, 178907, Note_on_c, 1, 79, 104
1, 178924, Note_off_c, 1, 80, 64
1, 178999, Note_off_c, 2, 73, 64
1, 179000, Note_on_c, 2, 77, 107
1, 179000, Note_on_c, 2, 74, 110
1, 179001, Note_on_c, 4, 62, 127
1, 179015, Note_off_c, 1, 79, 64
1, 179088, Note_on_c, 1, 78, 104
1, 179105, Note_off_c, 2, 77, 64
1, 179180, Note_on_c, 2, 76, 107
1, 179193, Note_off_c, 1, 78, 64
1, 179194, Note_off_c, 2, 74, 64
1, 179268, Note_on_c, 2, 74, 110
1, 179282, Note_off_c, 2, 76, 64
1, 179363, Note_on_c, 2, 73, 113
1, 179378, Note_off_c, 2, 74, 64
1, 179457, Note_on_c, 2, 71, 122
1, 179472, Note_off_c, 2, 73, 64
1, 179549, Note_on_c, 2, 74, 110
1, 179564, Note_off_c, 2, 71, 64
1, 179647, Note_on_c, 1, 78, 104
1, 179666, Note_off_c, 2, 74, 64
1, 179734, Note_off_c, 3, 69, 64
1, 179748, Note_on_c, 3, 69, 126
1, 179749, Note_off_c, 4, 62, 64
1, 179751, Note_on_c, 4, 52, 118
1, 179753, Note_on_c, 4, 61, 118
1, 179765, Note_off_c, 1, 78, 64
1, 180012, Note_off_c, 3, 69, 64
1, 180030, Note_on_c, 3, 71, 122
1, 180076, Note_on_c, 3, 69, 126
1, 180108, Note_off_c, 3, 71, 64
1, 180124, Note_on_c, 4, 59, 127
1, 180124, Note_on_c, 3, 68, 126
1, 180129, Note_off_c, 4, 61, 64
1, 180157, Note_off_c, 3, 69, 64
1, 180213, Note_on_c, 4, 64, 127
1, 180228, Note_off_c, 3, 68, 64
1, 180311, Note_on_c, 2, 66, 127
1, 180324, Note_off_c, 4, 64, 64
1, 180400, Note_on_c, 2, 68, 126
1, 180414, Note_off_c, 2, 66, 64
1, 180487, Note_on_c, 2, 69, 126
1, 180504, Note_off_c, 2, 68, 64
1, 180584, Note_on_c, 2, 70, 126
1, 180599, Note_off_c, 2, 69, 64
1, 180687, Note_on_c, 2, 71, 122
1, 180705, Note_off_c, 2, 70, 64
1, 180789, Note_on_c, 2, 72, 121
1, 180804, Note_off_c, 2, 71, 64
1, 180883, Note_off_c, 2, 72, 64
1, 180891, Note_off_c, 4, 59, 64
1, 180891, Note_on_c, 2, 73, 127
1, 180894, Note_off_c, 4, 52, 64
1, 180894, Note_on_c, 4, 57, 127
1, 180896, Note_on_c, 2, 69, 126
1, 181187, Note_off_c, 2, 73, 64
1, 181190, Note_on_c, 2, 74, 127
1, 181238, Note_on_c, 2, 73, 127
1, 181260, Note_off_c, 2, 74, 64
1, 181270, Note_on_c, 2, 71, 127
1, 181292, Note_off_c, 2, 73, 64
1, 181308, Note_on_c, 2, 73, 127
1, 181329, Note_off_c, 2, 71, 64
1, 181343, Note_on_c, 2, 76, 127
1, 181344, Note_on_c, 4, 59, 127
1, 181344, Note_on_c, 2, 68, 126
1, 181346, Note_off_c, 4, 57, 64
1, 181347, Note_off_c, 2, 69, 64
1, 181355, Note_off_c, 2, 73, 64
1, 181532, Note_on_c, 2, 74, 127
1, 181547, Note_off_c, 2, 76, 64
1, 181718, Note_off_c, 2, 74, 64
1, 181718, Note_off_c, 2, 68, 64
1, 181718, Note_off_c, 4, 59, 64
1, 181719, Note_on_c, 4, 62, 127
1, 181719, Note_on_c, 2, 71, 127
1, 181721, Note_on_c, 4, 64, 127
1, 181910, Note_on_c, 2, 68, 127
1, 181927, Note_off_c, 2, 71, 64
1, 182100, Note_off_c, 4, 62, 64
1, 182101, Note_off_c, 4, 64, 64
1, 182108, Note_on_c, 2, 69, 127
1, 182109, Note_on_c, 4, 61, 127
1, 182111, Note_on_c, 4, 64, 127
1, 182123, Note_off_c, 2, 68, 64
1, 182396, Note_off_c, 2, 69, 64
1, 182396, Note_on_c, 2, 73, 113
1, 182447, Note_on_c, 2, 69, 126
1, 182493, Note_on_c, 1, 79, 104
1, 182514, Note_off_c, 2, 73, 64
1, 182570, Note_off_c, 2, 69, 64
1, 182705, Note_on_c, 4, 62, 127
1, 182705, Note_on_c, 2, 71, 122
1, 182708, Note_off_c, 4, 61, 64
1, 182708, Note_off_c, 4, 64, 64
1, 182896, Note_off_c, 1, 79, 64
1, 182896, Note_on_c, 2, 72, 121
1, 182897, Note_on_c, 4, 63, 127
1, 182912, Note_off_c, 4, 62, 64
1, 182913, Note_off_c, 2, 71, 64
1, 183003, Note_on_c, 1, 78, 104
1, 183092, Note_off_c, 4, 63, 64
1, 183092, Note_off_c, 2, 72, 64
1, 183104, Note_on_c, 1, 80, 104
1, 183105, Note_on_c, 4, 63, 127
1, 183105, Note_on_c, 2, 72, 121
1, 183121, Note_off_c, 1, 78, 64
1, 183205, Note_on_c, 1, 81, 104
1, 183220, Note_off_c, 1, 80, 64
1, 183300, Note_off_c, 1, 81, 64
1, 183310, Note_on_c, 2, 73, 113
1, 183310, Note_on_c, 1, 81, 104
1, 183311, Note_on_c, 4, 64, 127
1, 183326, Note_off_c, 2, 72, 64
1, 183326, Note_off_c, 4, 63, 64
1, 183515, Note_off_c, 1, 81, 64
1, 183548, Note_on_c, 1, 83, 104
1, 183601, Note_on_c, 1, 85, 104
1, 183639, Note_off_c, 1, 83, 64
1, 183656, Note_on_c, 1, 81, 104
1, 183687, Note_off_c, 1, 85, 64
1, 183696, Note_off_c, 2, 73, 64
1, 183702, Note_on_c, 2, 76, 107
1, 183773, Note_off_c, 1, 81, 64
1, 183806, Note_on_c, 1, 81, 104
1, 183905, Note_on_c, 2, 73, 113
1, 183920, Note_off_c, 2, 76, 64
1, 184001, Note_on_c, 1, 78, 104
1, 184015, Note_off_c, 2, 73, 64
1, 184015, Note_off_c, 1, 81, 64
1, 184092, Note_on_c, 2, 76, 107
1, 184109, Note_off_c, 1, 78, 64
1, 184187, Note_on_c, 2, 75, 127
1, 184206, Note_off_c, 2, 76, 64
1, 184294, Note_off_c, 4, 64, 64
1, 184295, Note_on_c, 4, 62, 127
1, 184295, Note_on_c, 2, 74, 127
1, 184296, Note_on_c, 4, 52, 127
1, 184311, Note_off_c, 2, 75, 64
1, 184394, Note_on_c, 2, 71, 127
1, 184413, Note_off_c, 2, 74, 64
1, 184487, Note_off_c, 4, 62, 64
1, 184494, Note_off_c, 2, 71, 64
1, 184504, Note_on_c, 2, 71, 127
1, 184506, Note_on_c, 4, 62, 127
1, 184507, Note_on_c, 4, 57, 127
1, 184522, Note_off_c, 4, 52, 64
1, 184899, Note_off_c, 4, 62, 64
1, 184899, Note_on_c, 2, 69, 127
1, 184901, Note_on_c, 4, 61, 127
1, 184903, Note_off_c, 2, 71, 64
1, 185074, Note_off_c, 4, 57, 64
1, 185091, Note_on_c, 4, 52, 127
1, 185288, Note_on_c, 4, 49, 127
1, 185305, Note_off_c, 4, 52, 64
1, 185481, Note_on_c, 4, 45, 127
1, 185498, Note_off_c, 4, 49, 64
1, 185695, Note_off_c, 2, 69, 64
1, 185695, Note_on_c, 2, 74, 127
1, 185696, Note_off_c, 4, 61, 64
1, 185696, Note_on_c, 4, 52, 127
1, 185712, Note_off_c, 4, 45, 64
1, 185887, Note_on_c, 4, 59, 127
1, 185887, Note_on_c, 4, 56, 127
1, 185932, Note_on_c, 1, 78, 127
1, 185940, Note_off_c, 2, 74, 64
1, 185980, Note_on_c, 2, 76, 127
1, 186016, Note_off_c, 1, 78, 64
1, 186036, Note_on_c, 1, 78, 127
1, 186060, Note_off_c, 2, 76, 64
1, 186064, Note_off_c, 4, 56, 64
1, 186065, Note_off_c, 4, 59, 64
1, 186075, Note_on_c, 2, 74, 127
1, 186077, Note_on_c, 4, 59, 127
1, 186077, Note_on_c, 4, 56, 127
1, 186107, Note_off_c, 1, 78, 64
1, 186128, Note_on_c, 2, 76, 127
1, 186158, Note_off_c, 2, 74, 64
1, 186172, Note_on_c, 2, 73, 127
1, 186199, Note_off_c, 2, 76, 64
1, 186220, Note_on_c, 2, 74, 127
1, 186251, Note_off_c, 2, 73, 64
1, 186266, Note_on_c, 2, 71, 127
1, 186266, Note_on_c, 4, 61, 127
1, 186267, Note_on_c, 4, 57, 127
1, 186283, Note_off_c, 4, 56, 64
1, 186284, Note_off_c, 4, 59, 64
1, 186300, Note_off_c, 2, 74, 64
1, 186317, Note_on_c, 2, 73, 127
1, 186348, Note_off_c, 2, 71, 64
1, 186363, Note_on_c, 2, 69, 127
1, 186394, Note_off_c, 2, 73, 64
1, 186409, Note_on_c, 2, 71, 127
1, 186442, Note_off_c, 2, 69, 64
1, 186457, Note_on_c, 2, 68, 127
1, 186457, Note_on_c, 4, 62, 127
1, 186458, Note_on_c, 4, 59, 127
1, 186474, Note_off_c, 4, 57, 64
1, 186475, Note_off_c, 4, 61, 64
1, 186489, Note_off_c, 2, 71, 64
1, 186633, Note_off_c, 4, 62, 64
1, 186633, Note_off_c, 4, 59, 64
1, 186647, Note_on_c, 4, 62, 127
1, 186648, Note_on_c, 4, 59, 127
1, 186835, Note_off_c, 4, 52, 64
1, 186835, Note_off_c, 2, 68, 64
1, 186836, Note_on_c, 4, 57, 127
1, 186836, Note_on_c, 2, 76, 127
1, 186852, Note_off_c, 4, 62, 64
1, 186852, Note_off_c, 4, 59, 64
1, 187032, Note_on_c, 4, 64, 127
1, 187032, Note_on_c, 4, 61, 127
1, 187048, Note_off_c, 2, 76, 64
1, 187080, Note_on_c, 2, 75, 108
1, 187128, Note_on_c, 1, 78, 105
1, 187160, Note_off_c, 2, 75, 64
1, 187177, Note_on_c, 2, 76, 108
1, 187206, Note_off_c, 1, 78, 64
1, 187210, Note_off_c, 4, 61, 64
1, 187210, Note_off_c, 4, 64, 64
1, 187223, Note_on_c, 1, 81, 105
1, 187223, Note_on_c, 4, 64, 127
1, 187224, Note_on_c, 4, 61, 127
1, 187248, Note_off_c, 2, 76, 64
1, 187266, Note_on_c, 1, 80, 105
1, 187295, Note_off_c, 1, 81, 64
1, 187308, Note_on_c, 1, 83, 105
1, 187337, Note_off_c, 1, 80, 64
1, 187356, Note_on_c, 1, 81, 105
1, 187383, Note_off_c, 1, 83, 64
1, 187400, Note_on_c, 1, 85, 105
1, 187401, Note_on_c, 4, 62, 127
1, 187401, Note_on_c, 4, 59, 127
1, 187415, Note_off_c, 4, 61, 64
1, 187415, Note_off_c, 4, 64, 64
1, 187425, Note_off_c, 1, 81, 64
1, 187444, Note_on_c, 1, 83, 105
1, 187473, Note_off_c, 1, 85, 64
1, 187488, Note_on_c, 1, 86, 105
1, 187515, Note_off_c, 1, 83, 64
1, 187535, Note_on_c, 1, 85, 105
1, 187563, Note_off_c, 1, 86, 64
1, 187579, Note_on_c, 1, 88, 105
1, 187581, Note_on_c, 4, 61, 127
1, 187596, Note_off_c, 4, 59, 64
1, 187596, Note_off_c, 4, 62, 64
1, 187608, Note_off_c, 1, 85, 64
1, 187770, Note_off_c, 4, 57, 64
1, 187770, Note_on_c, 4, 59, 127
1, 187771, Note_on_c, 4, 56, 127
1, 187786, Note_off_c, 4, 61, 64
1, 187957, Note_off_c, 1, 88, 64
1, 187957, Note_on_c, 1, 81, 119
1, 187960, Note_on_c, 4, 54, 127
1, 187975, Note_off_c, 4, 56, 64
1, 187976, Note_off_c, 4, 59, 64
1, 188149, Note_on_c, 4, 61, 127
1, 188149, Note_on_c, 4, 57, 127
1, 188161, Note_off_c, 1, 81, 64
1, 188190, Note_on_c, 1, 85, 121
1, 188242, Note_on_c, 1, 83, 121
1, 188264, Note_off_c, 1, 85, 64
1, 188292, Note_on_c, 1, 85, 121
1, 188313, Note_off_c, 1, 83, 64
1, 188327, Note_off_c, 4, 57, 64
1, 188327, Note_off_c, 4, 61, 64
1, 188337, Note_on_c, 1, 81, 121
1, 188339, Note_on_c, 4, 61, 127
1, 188340, Note_on_c, 4, 57, 127
1, 188361, Note_off_c, 1, 85, 64
1, 188386, Note_on_c, 1, 83, 121
1, 188407, Note_off_c, 1, 81, 64
1, 188434, Note_on_c, 1, 80, 121
1, 188453, Note_off_c, 1, 83, 64
1, 188482, Note_on_c, 1, 81, 121
1, 188505, Note_off_c, 1, 80, 64
1, 188517, Note_off_c, 4, 61, 64
1, 188530, Note_on_c, 1, 78, 127
1, 188531, Note_on_c, 4, 61, 127
1, 188552, Note_off_c, 1, 81, 64
1, 188577, Note_on_c, 1, 80, 121
1, 188598, Note_off_c, 1, 78, 64
1, 188624, Note_on_c, 2, 76, 127
1, 188646, Note_off_c, 1, 80, 64
1, 188671, Note_on_c, 1, 78, 127
1, 188690, Note_off_c, 2, 76, 64
1, 188702, Note_off_c, 4, 61, 64
1, 188706, Note_off_c, 4, 57, 64
1, 188712, Note_on_c, 2, 75, 127
1, 188714, Note_on_c, 4, 59, 127
1, 188715, Note_on_c, 4, 57, 127
1, 188733, Note_off_c, 1, 78, 64
1, 188762, Note_on_c, 2, 76, 127
1, 188784, Note_off_c, 2, 75, 64
1, 188811, Note_on_c, 1, 78, 127
1, 188832, Note_off_c, 2, 76, 64
1, 188859, Note_on_c, 1, 80, 121
1, 188880, Note_off_c, 1, 78, 64
1, 188892, Note_off_c, 4, 59, 64
1, 188892, Note_off_c, 4, 57, 64
1, 188905, Note_on_c, 1, 83, 121
1, 188905, Note_on_c, 4, 59, 127
1, 188905, Note_on_c, 4, 57, 127
1, 188927, Note_off_c, 1, 80, 64
1, 188955, Note_on_c, 1, 80, 100
1, 188971, Note_off_c, 1, 83, 64
1, 188995, Note_on_c, 1, 78, 127
1, 189018, Note_off_c, 1, 80, 64
1, 189043, Note_on_c, 2, 75, 127
1, 189067, Note_off_c, 1, 78, 64
1, 189081, Note_off_c, 4, 57, 64
1, 189081, Note_off_c, 4, 59, 64
1, 189093, Note_on_c, 1, 78, 127
1, 189094, Note_off_c, 4, 54, 64
1, 189094, Note_on_c, 4, 59, 127
1, 189094, Note_on_c, 4, 57, 127
1, 189095, Note_on_c, 4, 52, 127
1, 189115, Note_off_c, 2, 75, 64
1, 189462, Note_on_c, 4, 56, 127
1, 189476, Note_off_c, 4, 57, 64
1, 189552, Note_off_c, 1, 78, 64
1, 189552, Note_on_c, 2, 75, 127
1, 189653, Note_on_c, 2, 76, 127
1, 189674, Note_off_c, 2, 75, 64
1, 189758, Note_on_c, 2, 77, 127
1, 189774, Note_off_c, 2, 76, 64
1, 189852, Note_on_c, 1, 80, 105
1, 189869, Note_off_c, 2, 77, 64
1, 189961, Note_on_c, 1, 78, 114
1, 189978, Note_off_c, 1, 80, 64
1, 190063, Note_on_c, 2, 76, 121
1, 190084, Note_off_c, 1, 78, 64
1, 190172, Note_on_c, 2, 74, 121
1, 190195, Note_off_c, 2, 76, 64
1, 190293, Note_on_c, 2, 73, 127
1, 190295, Note_off_c, 4, 52, 64
1, 190296, Note_off_c, 4, 56, 64
1, 190296, Note_off_c, 4, 59, 64
1, 190296, Note_on_c, 2, 67, 119
1, 190297, Note_on_c, 4, 58, 118
1, 190310, Note_off_c, 2, 74, 64
1, 190563, Note_off_c, 2, 73, 64
1, 190584, Note_on_c, 2, 74, 127
1, 190625, Note_on_c, 2, 73, 127
1, 190646, Note_off_c, 2, 74, 64
1, 190662, Note_on_c, 2, 71, 127
1, 190683, Note_off_c, 2, 73, 64
1, 190696, Note_on_c, 2, 73, 127
1, 190717, Note_off_c, 2, 71, 64
1, 190731, Note_on_c, 2, 76, 127
1, 190735, Note_off_c, 2, 67, 64
1, 190735, Note_off_c, 4, 58, 64
1, 190736, Note_on_c, 4, 59, 127
1, 190736, Note_on_c, 2, 66, 127
1, 190743, Note_off_c, 2, 73, 64
1, 190919, Note_on_c, 2, 74, 127
1, 190934, Note_off_c, 2, 76, 64
1, 191110, Note_on_c, 2, 71, 127
1, 191112, Note_on_c, 4, 62, 109
1, 191113, Note_off_c, 2, 66, 64
1, 191113, Note_off_c, 4, 59, 64
1, 191114, Note_on_c, 4, 65, 109
1, 191126, Note_off_c, 2, 74, 64
1, 191310, Note_on_c, 2, 68, 127
1, 191326, Note_off_c, 2, 71, 64
1, 191498, Note_on_c, 2, 69, 127
1, 191499, Note_off_c, 4, 62, 64
1, 191499, Note_on_c, 4, 61, 109
1, 191500, Note_off_c, 4, 65, 64
1, 191500, Note_on_c, 4, 64, 109
1, 191513, Note_off_c, 2, 68, 64
1, 191766, Note_off_c, 2, 69, 64
1, 191782, Note_on_c, 2, 73, 127
1, 191837, Note_on_c, 2, 69, 127
1, 191883, Note_on_c, 1, 79, 119
1, 191899, Note_off_c, 2, 73, 64
1, 191952, Note_off_c, 2, 69, 64
1, 192077, Note_off_c, 4, 61, 64
1, 192078, Note_off_c, 4, 64, 64
1, 192091, Note_on_c, 2, 70, 127
1, 192093, Note_on_c, 4, 61, 127
1, 192287, Note_on_c, 2, 71, 123
1, 192288, Note_on_c, 4, 62, 127
1, 192290, Note_off_c, 2, 70, 64
1, 192292, Note_off_c, 4, 61, 64
1, 192488, Note_on_c, 2, 73, 114
1, 192489, Note_on_c, 4, 64, 127
1, 192491, Note_off_c, 2, 71, 64
1, 192492, Note_off_c, 4, 62, 64
1, 192668, Note_off_c, 1, 79, 64
1, 192670, Note_off_c, 2, 73, 64
1, 192672, Note_off_c, 4, 64, 64
1, 192679, Note_on_c, 2, 77, 108
1, 192683, Note_on_c, 2, 74, 111
1, 192684, Note_on_c, 4, 62, 127
1, 192744, Note_on_c, 1, 78, 105
1, 192756, Note_off_c, 2, 77, 64
1, 192789, Note_on_c, 1, 80, 105
1, 192797, Note_off_c, 2, 74, 64
1, 192807, Note_off_c, 1, 78, 64
1, 192844, Note_on_c, 1, 78, 105
1, 192856, Note_off_c, 1, 80, 64
1, 192888, Note_on_c, 2, 76, 108
1, 192906, Note_off_c, 1, 78, 64
1, 192936, Note_on_c, 2, 74, 111
1, 192952, Note_off_c, 2, 76, 64
1, 192985, Note_on_c, 2, 73, 114
1, 193002, Note_off_c, 2, 74, 64
1, 193034, Note_on_c, 2, 71, 123
1, 193052, Note_off_c, 2, 73, 64
1, 193088, Note_on_c, 2, 69, 127
1, 193090, Note_on_c, 4, 61, 127
1, 193091, Note_on_c, 4, 52, 127
1, 193093, Note_off_c, 4, 62, 64
1, 193107, Note_off_c, 2, 71, 64
1, 193194, Note_off_c, 2, 69, 64
1, 193201, Note_on_c, 2, 73, 114
1, 193320, Note_on_c, 2, 76, 119
1, 193335, Note_off_c, 2, 73, 64
1, 193498, Note_off_c, 4, 52, 64
1, 193499, Note_off_c, 4, 61, 64
1, 193507, Note_on_c, 4, 62, 127
1, 193507, Note_on_c, 4, 52, 127
1, 193604, Note_off_c, 2, 76, 64
1, 193604, Note_on_c, 4, 64, 127
1, 193709, Note_on_c, 2, 66, 127
1, 193730, Note_off_c, 4, 64, 64
1, 193824, Note_on_c, 2, 68, 127
1, 193843, Note_off_c, 2, 66, 64
1, 193927, Note_off_c, 4, 52, 64
1, 193928, Note_off_c, 4, 62, 64
1, 193938, Note_on_c, 2, 71, 125
1, 193940, Note_on_c, 4, 57, 127
1, 193942, Note_on_c, 4, 62, 127
1, 193954, Note_off_c, 2, 68, 64
1, 194332, Note_off_c, 2, 71, 64
1, 194332, Note_on_c, 2, 69, 127
1, 194335, Note_off_c, 4, 62, 64
1, 194335, Note_on_c, 4, 61, 127
1, 194554, Note_on_c, 2, 70, 127
1, 194569, Note_off_c, 2, 69, 64
1, 194771, Note_on_c, 2, 71, 123
1, 194788, Note_off_c, 2, 70, 64
1, 194986, Note_on_c, 2, 72, 122
1, 195003, Note_off_c, 2, 71, 64
1, 195181, Note_on_c, 2, 73, 125
1, 195183, Note_off_c, 4, 57, 64
1, 195184, Note_off_c, 4, 61, 64
1, 195184, Note_on_c, 4, 54, 127
1, 195200, Note_off_c, 2, 72, 64
1, 195289, Note_on_c, 3, 66, 104
1, 195289, Note_on_c, 3, 69, 104
1, 195374, Note_off_c, 3, 69, 64
1, 195376, Note_off_c, 3, 66, 64
1, 195396, Note_on_c, 3, 69, 112
1, 195397, Note_on_c, 3, 66, 112
1, 195488, Note_off_c, 3, 69, 64
1, 195490, Note_off_c, 3, 66, 64
1, 195499, Note_on_c, 3, 69, 112
1, 195501, Note_on_c, 3, 66, 112
1, 195593, Note_off_c, 3, 69, 64
1, 195594, Note_off_c, 3, 66, 64
1, 195602, Note_on_c, 3, 69, 112
1, 195604, Note_on_c, 3, 66, 112
1, 195644, Note_off_c, 2, 73, 64
1, 195694, Note_off_c, 3, 69, 64
1, 195695, Note_off_c, 3, 66, 64
1, 195703, Note_on_c, 1, 78, 105
1, 195703, Note_on_c, 3, 69, 112
1, 195706, Note_on_c, 3, 66, 112
1, 195782, Note_off_c, 3, 69, 64
1, 195784, Note_off_c, 3, 66, 64
1, 195794, Note_on_c, 3, 69, 121
1, 195794, Note_on_c, 1, 81, 105
1, 195795, Note_on_c, 3, 66, 121
1, 195812, Note_off_c, 1, 78, 64
1, 195886, Note_off_c, 3, 69, 64
1, 195889, Note_off_c, 3, 66, 64
1, 195897, Note_on_c, 2, 77, 108
1, 195897, Note_on_c, 3, 69, 121
1, 195898, Note_on_c, 3, 66, 121
1, 195912, Note_off_c, 1, 81, 64
1, 195979, Note_off_c, 3, 69, 64
1, 195980, Note_off_c, 3, 66, 64
1, 195989, Note_on_c, 3, 69, 121
1, 195989, Note_on_c, 1, 78, 105
1, 195990, Note_on_c, 3, 66, 121
1, 196006, Note_off_c, 2, 77, 64
1, 196084, Note_off_c, 3, 69, 64
1, 196086, Note_off_c, 3, 66, 64
1, 196094, Note_on_c, 2, 72, 122
1, 196094, Note_on_c, 3, 69, 121
1, 196094, Note_on_c, 3, 66, 121
1, 196108, Note_off_c, 1, 78, 64
1, 196181, Note_off_c, 3, 66, 64
1, 196181, Note_off_c, 3, 69, 64
1, 196191, Note_on_c, 3, 69, 121
1, 196191, Note_on_c, 2, 74, 111
1, 196192, Note_on_c, 3, 66, 121
1, 196207, Note_off_c, 2, 72, 64
1, 196290, Note_on_c, 3, 69, 121
1, 196290, Note_on_c, 2, 73, 114
1, 196292, Note_on_c, 3, 66, 121
1, 196308, Note_off_c, 2, 74, 64
1, 196385, Note_off_c, 2, 73, 64
1, 196392, Note_on_c, 2, 73, 125
1, 196394, Note_off_c, 4, 54, 64
1, 196394, Note_on_c, 4, 53, 127
1, 196484, Note_on_c, 3, 68, 121
1, 196485, Note_on_c, 3, 65, 121
1, 196577, Note_off_c, 3, 68, 64
1, 196578, Note_off_c, 3, 65, 64
1, 196587, Note_on_c, 3, 68, 121
1, 196589, Note_on_c, 3, 65, 121
1, 196676, Note_off_c, 3, 68, 64
1, 196678, Note_off_c, 3, 65, 64
1, 196685, Note_on_c, 3, 68, 121
1, 196687, Note_on_c, 3, 65, 121
1, 196740, Note_off_c, 3, 69, 64
1, 196740, Note_off_c, 3, 69, 64
1, 196746, Note_off_c, 3, 66, 64
1, 196746, Note_off_c, 3, 66, 64
1, 196775, Note_off_c, 3, 68, 64
1, 196776, Note_off_c, 3, 65, 64
1, 196785, Note_off_c, 2, 73, 64
1, 196786, Note_on_c, 3, 68, 121
1, 196786, Note_on_c, 3, 65, 121
1, 196869, Note_off_c, 3, 68, 64
1, 196871, Note_off_c, 3, 65, 64
1, 196878, Note_on_c, 1, 80, 105
1, 196879, Note_on_c, 3, 68, 121
1, 196879, Note_on_c, 3, 65, 121
1, 196962, Note_off_c, 3, 68, 64
1, 196964, Note_off_c, 3, 65, 64
1, 196973, Note_on_c, 1, 85, 105
1, 196974, Note_on_c, 3, 68, 121
1, 196976, Note_on_c, 3, 65, 121
1, 196992, Note_off_c, 1, 80, 64
1, 197063, Note_off_c, 3, 68, 64
1, 197063, Note_off_c, 3, 65, 64
1, 197071, Note_on_c, 2, 77, 108
1, 197072, Note_on_c, 3, 68, 121
1, 197072, Note_on_c, 3, 65, 121
1, 197085, Note_off_c, 1, 85, 64
1, 197152, Note_off_c, 3, 68, 64
1, 197154, Note_off_c, 3, 65, 64
1, 197161, Note_on_c, 1, 80, 105
1, 197162, Note_on_c, 3, 68, 121
1, 197162, Note_on_c, 3, 65, 121
1, 197178, Note_off_c, 2, 77, 64
1, 197250, Note_off_c, 3, 65, 64
1, 197250, Note_off_c, 3, 68, 64
1, 197259, Note_on_c, 2, 72, 122
1, 197260, Note_on_c, 3, 68, 121
1, 197260, Note_on_c, 3, 65, 121
1, 197274, Note_off_c, 1, 80, 64
1, 197341, Note_off_c, 3, 65, 64
1, 197341, Note_off_c, 3, 68, 64
1, 197348, Note_on_c, 2, 74, 111
1, 197348, Note_on_c, 3, 68, 121
1, 197351, Note_on_c, 3, 65, 121
1, 197363, Note_off_c, 2, 72, 64
1, 197442, Note_off_c, 3, 68, 64
1, 197444, Note_off_c, 3, 65, 64
1, 197453, Note_on_c, 2, 73, 114
1, 197454, Note_on_c, 4, 65, 121
1, 197454, Note_on_c, 2, 68, 121
1, 197472, Note_off_c, 2, 74, 64
1, 197546, Note_off_c, 2, 68, 64
1, 197548, Note_off_c, 4, 65, 64
1, 197549, Note_off_c, 2, 73, 64
1, 197559, Note_off_c, 4, 53, 64
1, 197559, Note_on_c, 2, 73, 125
1, 197560, Note_on_c, 2, 66, 127
1, 197668, Note_on_c, 1, 81, 105
1, 197758, Note_on_c, 4, 64, 127
1, 197776, Note_off_c, 2, 66, 64
1, 197860, Note_on_c, 1, 80, 105
1, 197874, Note_off_c, 1, 81, 64
1, 197945, Note_on_c, 4, 62, 127
1, 197961, Note_off_c, 4, 64, 64
1, 198041, Note_on_c, 2, 77, 108
1, 198054, Note_off_c, 1, 80, 64
1, 198132, Note_on_c, 1, 78, 105
1, 198146, Note_off_c, 2, 77, 64
1, 198222, Note_on_c, 1, 80, 105
1, 198235, Note_off_c, 1, 78, 64
1, 198300, Note_off_c, 2, 73, 64
1, 198310, Note_on_c, 1, 83, 105
1, 198311, Note_on_c, 2, 72, 122
1, 198324, Note_off_c, 1, 80, 64
1, 198413, Note_on_c, 1, 81, 105
1, 198430, Note_off_c, 1, 83, 64
1, 198509, Note_on_c, 1, 80, 105
1, 198524, Note_off_c, 1, 81, 64
1, 198605, Note_on_c, 1, 78, 105
1, 198624, Note_off_c, 1, 80, 64
1, 198707, Note_off_c, 2, 72, 64
1, 198707, Note_off_c, 4, 62, 64
1, 198708, Note_on_c, 4, 61, 127
1, 198708, Note_on_c, 2, 73, 114
1, 198803, Note_off_c, 1, 78, 64
1, 198803, Note_on_c, 2, 77, 108
1, 198900, Note_on_c, 1, 80, 105
1, 198907, Note_off_c, 2, 73, 64
1, 198917, Note_off_c, 2, 77, 64
1, 198996, Note_on_c, 2, 72, 122
1, 199009, Note_off_c, 1, 80, 64
1, 199084, Note_on_c, 2, 73, 114
1, 199099, Note_off_c, 2, 72, 64
1, 199186, Note_off_c, 4, 61, 64
1, 199186, Note_on_c, 4, 65, 127
1, 199202, Note_off_c, 2, 73, 64
1, 199277, Note_on_c, 2, 68, 127
1, 199292, Note_off_c, 4, 65, 64
1, 199371, Note_on_c, 4, 61, 127
1, 199386, Note_off_c, 2, 68, 64
1, 199461, Note_on_c, 4, 62, 127
1, 199476, Note_off_c, 4, 61, 64
1, 199557, Note_on_c, 4, 56, 127
1, 199572, Note_off_c, 4, 62, 64
1, 199654, Note_on_c, 4, 59, 127
1, 199668, Note_off_c, 4, 56, 64
1, 199756, Note_on_c, 4, 53, 127
1, 199771, Note_off_c, 4, 59, 64
1, 199860, Note_off_c, 4, 53, 64
1, 199869, Note_on_c, 2, 73, 127
1, 199871, Note_on_c, 4, 54, 127
1, 199965, Note_on_c, 3, 69, 127
1, 199967, Note_on_c, 3, 66, 127
1, 200050, Note_off_c, 3, 66, 64
1, 200050, Note_off_c, 3, 69, 64
1, 200059, Note_on_c, 3, 69, 127
1, 200060, Note_on_c, 3, 66, 127
1, 200144, Note_off_c, 3, 69, 64
1, 200146, Note_off_c, 3, 66, 64
1, 200153, Note_on_c, 3, 69, 127
1, 200155, Note_on_c, 3, 66, 127
1, 200242, Note_off_c, 3, 69, 64
1, 200242, Note_off_c, 3, 66, 64
1, 200251, Note_on_c, 3, 69, 127
1, 200253, Note_on_c, 3, 66, 127
1, 200343, Note_off_c, 3, 69, 64
1, 200345, Note_off_c, 3, 66, 64
1, 200353, Note_off_c, 2, 73, 64
1, 200353, Note_on_c, 1, 78, 105
1, 200354, Note_on_c, 3, 69, 127
1, 200354, Note_on_c, 3, 66, 127
1, 200441, Note_off_c, 3, 69, 64
1, 200442, Note_off_c, 3, 66, 64
1, 200450, Note_on_c, 1, 81, 105
1, 200450, Note_on_c, 3, 69, 127
1, 200453, Note_on_c, 3, 66, 127
1, 200468, Note_off_c, 1, 78, 64
1, 200541, Note_off_c, 3, 69, 64
1, 200543, Note_off_c, 3, 66, 64
1, 200551, Note_on_c, 2, 77, 108
1, 200551, Note_on_c, 3, 69, 127
1, 200554, Note_on_c, 3, 66, 127
1, 200567, Note_off_c, 1, 81, 64
1, 200634, Note_off_c, 3, 69, 64
1, 200636, Note_off_c, 3, 66, 64
1, 200644, Note_on_c, 1, 78, 105
1, 200644, Note_on_c, 3, 69, 127
1, 200645, Note_on_c, 3, 66, 127
1, 200660, Note_off_c, 2, 77, 64
1, 200729, Note_off_c, 3, 69, 64
1, 200731, Note_off_c, 3, 66, 64
1, 200738, Note_on_c, 2, 72, 122
1, 200739, Note_on_c, 3, 69, 127
1, 200740, Note_on_c, 3, 66, 127
1, 200754, Note_off_c, 1, 78, 64
1, 200832, Note_on_c, 2, 74, 111
1, 200833, Note_on_c, 3, 69, 127
1, 200833, Note_on_c, 3, 66, 127
1, 200847, Note_off_c, 2, 72, 64
1, 200926, Note_on_c, 2, 73, 114
1, 200926, Note_on_c, 3, 69, 127
1, 200927, Note_on_c, 3, 66, 127
1, 200942, Note_off_c, 2, 74, 64
1, 201007, Note_off_c, 3, 69, 64
1, 201013, Note_off_c, 2, 73, 64
1, 201021, Note_on_c, 2, 73, 125
1, 201022, Note_off_c, 4, 54, 64
1, 201023, Note_on_c, 4, 52, 127
1, 201121, Note_on_c, 3, 67, 127
1, 201122, Note_on_c, 3, 64, 127
1, 201162, Note_off_c, 3, 66, 64
1, 201162, Note_off_c, 3, 66, 64
1, 201162, Note_off_c, 3, 66, 64
1, 201204, Note_off_c, 3, 67, 64
1, 201205, Note_off_c, 3, 64, 64
1, 201214, Note_on_c, 3, 67, 127
1, 201214, Note_on_c, 3, 64, 127
1, 201300, Note_off_c, 3, 67, 64
1, 201302, Note_off_c, 3, 64, 64
1, 201310, Note_on_c, 3, 67, 127
1, 201312, Note_on_c, 3, 64, 127
1, 201352, Note_off_c, 3, 69, 64
1, 201352, Note_off_c, 3, 69, 64
1, 201392, Note_off_c, 3, 67, 64
1, 201392, Note_off_c, 3, 64, 64
1, 201400, Note_on_c, 3, 67, 127
1, 201402, Note_on_c, 3, 64, 127
1, 201485, Note_off_c, 3, 67, 64
1, 201486, Note_off_c, 3, 64, 64
1, 201493, Note_off_c, 2, 73, 64
1, 201493, Note_on_c, 1, 79, 105
1, 201494, Note_on_c, 3, 67, 127
1, 201494, Note_on_c, 3, 64, 127
1, 201579, Note_off_c, 3, 67, 64
1, 201580, Note_off_c, 3, 64, 64
1, 201587, Note_on_c, 1, 83, 105
1, 201588, Note_on_c, 3, 67, 127
1, 201590, Note_on_c, 3, 64, 127
1, 201605, Note_off_c, 1, 79, 64
1, 201676, Note_off_c, 3, 67, 64
1, 201677, Note_off_c, 3, 64, 64
1, 201685, Note_on_c, 2, 76, 108
1, 201685, Note_on_c, 3, 67, 127
1, 201686, Note_on_c, 3, 64, 127
1, 201699, Note_off_c, 1, 83, 64
1, 201768, Note_off_c, 3, 67, 64
1, 201770, Note_off_c, 3, 64, 64
1, 201776, Note_on_c, 1, 79, 105
1, 201777, Note_on_c, 3, 67, 127
1, 201779, Note_on_c, 3, 64, 127
1, 201791, Note_off_c, 2, 76, 64
1, 201862, Note_off_c, 3, 67, 64
1, 201862, Note_off_c, 3, 64, 64
1, 201871, Note_on_c, 2, 71, 123
1, 201872, Note_on_c, 3, 67, 127
1, 201872, Note_on_c, 3, 64, 127
1, 201886, Note_off_c, 1, 79, 64
1, 201955, Note_off_c, 3, 64, 64
1, 201955, Note_off_c, 3, 67, 64
1, 201963, Note_on_c, 2, 74, 111
1, 201964, Note_on_c, 3, 67, 127
1, 201964, Note_on_c, 3, 64, 127
1, 201980, Note_off_c, 2, 71, 64
1, 202055, Note_off_c, 3, 67, 64
1, 202056, Note_off_c, 3, 64, 64
1, 202064, Note_on_c, 2, 73, 114
1, 202065, Note_on_c, 3, 67, 127
1, 202065, Note_on_c, 3, 64, 127
1, 202079, Note_off_c, 2, 74, 64
1, 202142, Note_off_c, 3, 67, 64
1, 202144, Note_off_c, 3, 64, 64
1, 202152, Note_off_c, 4, 52, 64
1, 202152, Note_on_c, 3, 69, 127
1, 202152, Note_on_c, 3, 66, 127
1, 202251, Note_off_c, 2, 73, 64
1, 202252, Note_on_c, 2, 74, 111
1, 202347, Note_on_c, 2, 72, 122
1, 202363, Note_off_c, 2, 74, 64
1, 202447, Note_on_c, 2, 75, 108
1, 202461, Note_off_c, 2, 72, 64
1, 202530, Note_off_c, 3, 69, 64
1, 202532, Note_off_c, 3, 66, 64
1, 202539, Note_on_c, 2, 71, 123
1, 202540, Note_on_c, 3, 67, 127
1, 202624, Note_off_c, 2, 75, 64
1, 202639, Note_on_c, 2, 76, 108
1, 202733, Note_on_c, 2, 74, 111
1, 202734, Note_on_c, 3, 68, 127
1, 202748, Note_off_c, 2, 76, 64
1, 202748, Note_off_c, 3, 67, 64
1, 202825, Note_on_c, 2, 77, 108
1, 202843, Note_off_c, 2, 74, 64
1, 202922, Note_on_c, 3, 69, 127
1, 202939, Note_off_c, 3, 68, 64
1, 203004, Note_off_c, 2, 77, 64
1, 203019, Note_on_c, 1, 78, 105
1, 203118, Note_on_c, 4, 57, 127
1, 203118, Note_on_c, 3, 67, 127
1, 203118, Note_on_c, 1, 81, 105
1, 203134, Note_off_c, 1, 78, 64
1, 203134, Note_off_c, 3, 69, 64
1, 203223, Note_on_c, 2, 73, 114
1, 203260, Note_off_c, 2, 71, 64
1, 203308, Note_off_c, 1, 81, 64
1, 203323, Note_on_c, 2, 74, 111
1, 203324, Note_on_c, 4, 62, 127
1, 203324, Note_on_c, 3, 66, 127
1, 203339, Note_off_c, 3, 67, 64
1, 203339, Note_off_c, 2, 73, 64
1, 203372, Note_on_c, 2, 76, 104
1, 203391, Note_off_c, 2, 74, 64
1, 203424, Note_on_c, 2, 74, 111
1, 203424, Note_on_c, 3, 69, 127
1, 203438, Note_off_c, 2, 76, 64
1, 203439, Note_off_c, 3, 66, 64
1, 203468, Note_on_c, 2, 73, 114
1, 203484, Note_off_c, 2, 74, 64
1, 203506, Note_off_c, 3, 69, 64
1, 203516, Note_off_c, 4, 57, 64
1, 203517, Note_on_c, 3, 69, 127
1, 203517, Note_on_c, 2, 74, 111
1, 203531, Note_off_c, 2, 73, 64
1, 203563, Note_on_c, 2, 76, 104
1, 203579, Note_off_c, 2, 74, 64
1, 203599, Note_off_c, 3, 69, 64
1, 203609, Note_on_c, 1, 78, 98
1, 203610, Note_on_c, 3, 69, 127
1, 203624, Note_off_c, 2, 76, 64
1, 203652, Note_on_c, 1, 79, 98
1, 203668, Note_off_c, 1, 78, 64
1, 203689, Note_off_c, 3, 69, 64
1, 203697, Note_on_c, 3, 66, 127
1, 203697, Note_on_c, 1, 81, 98
1, 203713, Note_off_c, 1, 79, 64
1, 203740, Note_on_c, 1, 83, 98
1, 203753, Note_off_c, 1, 81, 64
1, 203788, Note_on_c, 1, 81, 98
1, 203788, Note_on_c, 3, 69, 127
1, 203802, Note_off_c, 1, 83, 64
1, 203803, Note_off_c, 3, 66, 64
1, 203832, Note_on_c, 1, 80, 98
1, 203847, Note_off_c, 1, 81, 64
1, 203870, Note_off_c, 3, 69, 64
1, 203880, Note_on_c, 1, 81, 98
1, 203880, Note_on_c, 3, 69, 127
1, 203896, Note_off_c, 1, 80, 64
1, 203929, Note_on_c, 1, 83, 98
1, 203943, Note_off_c, 1, 81, 64
1, 203964, Note_off_c, 3, 69, 64
1, 203974, Note_on_c, 1, 85, 98
1, 203975, Note_on_c, 3, 69, 127
1, 203990, Note_off_c, 1, 83, 64
1, 203998, Note_off_c, 4, 62, 64
1, 204023, Note_on_c, 1, 86, 98
1, 204038, Note_off_c, 1, 85, 64
1, 204061, Note_off_c, 3, 69, 64
1, 204071, Note_on_c, 1, 85, 98
1, 204072, Note_on_c, 4, 57, 127
1, 204072, Note_on_c, 3, 67, 127
1, 204090, Note_off_c, 1, 86, 64
1, 204119, Note_on_c, 1, 88, 98
1, 204134, Note_off_c, 1, 85, 64
1, 204171, Note_on_c, 3, 69, 127
1, 204171, Note_on_c, 1, 85, 98
1, 204189, Note_off_c, 1, 88, 64
1, 204190, Note_off_c, 3, 67, 64
1, 204217, Note_on_c, 1, 81, 98
1, 204232, Note_off_c, 1, 85, 64
1, 204253, Note_off_c, 3, 69, 64
1, 204263, Note_on_c, 1, 79, 98
1, 204264, Note_on_c, 3, 69, 127
1, 204279, Note_off_c, 1, 81, 64
1, 204308, Note_on_c, 1, 81, 98
1, 204322, Note_off_c, 1, 79, 64
1, 204347, Note_off_c, 3, 69, 64
1, 204356, Note_on_c, 1, 79, 98
1, 204357, Note_on_c, 3, 69, 127
1, 204371, Note_off_c, 1, 81, 64
1, 204399, Note_on_c, 2, 76, 104
1, 204415, Note_off_c, 1, 79, 64
1, 204436, Note_off_c, 3, 69, 64
1, 204445, Note_off_c, 4, 57, 64
1, 204446, Note_on_c, 3, 66, 127
1, 204446, Note_on_c, 2, 74, 111
1, 204447, Note_on_c, 4, 62, 127
1, 204463, Note_off_c, 2, 76, 64
1, 204492, Note_on_c, 2, 76, 104
1, 204506, Note_off_c, 2, 74, 64
1, 204542, Note_on_c, 2, 74, 111
1, 204543, Note_on_c, 3, 69, 127
1, 204557, Note_off_c, 2, 76, 64
1, 204557, Note_off_c, 3, 66, 64
1, 204585, Note_on_c, 2, 73, 114
1, 204598, Note_off_c, 2, 74, 64
1, 204619, Note_off_c, 3, 69, 64
1, 204629, Note_on_c, 2, 74, 111
1, 204629, Note_on_c, 3, 69, 127
1, 204643, Note_off_c, 2, 73, 64
1, 204672, Note_on_c, 2, 76, 104
1, 204687, Note_off_c, 2, 74, 64
1, 204710, Note_off_c, 3, 69, 64
1, 204720, Note_on_c, 1, 78, 98
1, 204721, Note_on_c, 3, 69, 127
1, 204734, Note_off_c, 2, 76, 64
1, 204765, Note_on_c, 1, 79, 98
1, 204779, Note_off_c, 1, 78, 64
1, 204798, Note_off_c, 3, 69, 64
1, 204807, Note_on_c, 1, 81, 98
1, 204808, Note_on_c, 3, 66, 127
1, 204824, Note_off_c, 1, 79, 64
1, 204853, Note_on_c, 1, 83, 98
1, 204865, Note_off_c, 1, 81, 64
1, 204898, Note_on_c, 3, 69, 127
1, 204898, Note_on_c, 1, 81, 98
1, 204910, Note_off_c, 1, 83, 64
1, 204911, Note_off_c, 3, 66, 64
1, 204940, Note_on_c, 1, 80, 98
1, 204953, Note_off_c, 1, 81, 64
1, 204974, Note_off_c, 3, 69, 64
1, 204984, Note_on_c, 1, 81, 98
1, 204985, Note_on_c, 3, 69, 127
1, 205000, Note_off_c, 1, 80, 64
1, 205033, Note_on_c, 1, 83, 98
1, 205046, Note_off_c, 1, 81, 64
1, 205068, Note_off_c, 3, 69, 64
1, 205075, Note_on_c, 1, 85, 98
1, 205076, Note_on_c, 3, 69, 127
1, 205090, Note_off_c, 1, 83, 64
1, 205104, Note_off_c, 4, 62, 64
1, 205119, Note_on_c, 1, 86, 98
1, 205135, Note_off_c, 1, 85, 64
1, 205160, Note_off_c, 3, 69, 64
1, 205169, Note_on_c, 1, 85, 98
1, 205170, Note_on_c, 4, 57, 127
1, 205170, Note_on_c, 3, 67, 127
1, 205184, Note_off_c, 1, 86, 64
1, 205211, Note_on_c, 1, 88, 98
1, 205226, Note_off_c, 1, 85, 64
1, 205259, Note_on_c, 1, 85, 98
1, 205259, Note_on_c, 3, 69, 127
1, 205273, Note_off_c, 1, 88, 64
1, 205273, Note_off_c, 3, 67, 64
1, 205301, Note_on_c, 1, 81, 98
1, 205316, Note_off_c, 1, 85, 64
1, 205338, Note_off_c, 3, 69, 64
1, 205348, Note_on_c, 1, 79, 105
1, 205348, Note_on_c, 3, 69, 127
1, 205360, Note_off_c, 1, 81, 64
1, 205390, Note_on_c, 1, 81, 105
1, 205404, Note_off_c, 1, 79, 64
1, 205426, Note_off_c, 3, 69, 64
1, 205438, Note_on_c, 3, 69, 127
1, 205438, Note_on_c, 1, 79, 105
1, 205452, Note_off_c, 1, 81, 64
1, 205481, Note_on_c, 2, 76, 108
1, 205496, Note_off_c, 1, 79, 64
1, 205501, Note_off_c, 3, 69, 64
1, 205529, Note_off_c, 4, 57, 64
1, 205529, Note_on_c, 2, 74, 111
1, 205545, Note_off_c, 2, 76, 64
1, 205576, Note_on_c, 4, 50, 127
1, 205628, Note_on_c, 4, 52, 127
1, 205648, Note_off_c, 4, 50, 64
1, 205674, Note_on_c, 4, 54, 127
1, 205694, Note_off_c, 4, 52, 64
1, 205718, Note_on_c, 4, 55, 127
1, 205733, Note_off_c, 2, 74, 64
1, 205739, Note_off_c, 4, 54, 64
1, 205762, Note_on_c, 4, 57, 127
1, 205783, Note_off_c, 4, 55, 64
1, 205804, Note_on_c, 4, 59, 127
1, 205825, Note_off_c, 4, 57, 64
1, 205848, Note_on_c, 4, 61, 127
1, 205867, Note_off_c, 4, 59, 64
1, 205891, Note_on_c, 4, 62, 127
1, 205908, Note_off_c, 4, 61, 64
1, 205933, Note_on_c, 4, 61, 127
1, 205954, Note_off_c, 4, 62, 64
1, 205977, Note_on_c, 4, 64, 127
1, 205996, Note_off_c, 4, 61, 64
1, 206021, Note_on_c, 4, 62, 127
1, 206040, Note_off_c, 4, 64, 64
1, 206064, Note_on_c, 3, 66, 127
1, 206083, Note_off_c, 4, 62, 64
1, 206108, Note_on_c, 3, 64, 127
1, 206125, Note_off_c, 3, 66, 64
1, 206156, Note_on_c, 3, 67, 127
1, 206172, Note_off_c, 3, 64, 64
1, 206202, Note_on_c, 3, 66, 127
1, 206218, Note_off_c, 3, 67, 64
1, 206242, Note_on_c, 3, 69, 127
1, 206255, Note_off_c, 3, 66, 64
1, 206284, Note_on_c, 3, 68, 127
1, 206301, Note_off_c, 3, 69, 64
1, 206327, Note_on_c, 3, 72, 122
1, 206340, Note_off_c, 3, 68, 64
1, 206375, Note_on_c, 3, 71, 123
1, 206389, Note_off_c, 3, 72, 64
1, 206415, Note_on_c, 3, 69, 127
1, 206431, Note_off_c, 3, 71, 64
1, 206456, Note_on_c, 3, 67, 127
1, 206473, Note_off_c, 3, 69, 64
1, 206502, Note_on_c, 3, 66, 127
1, 206520, Note_off_c, 3, 67, 64
1, 206552, Note_on_c, 4, 64, 127
1, 206570, Note_off_c, 3, 66, 64
1, 206604, Note_on_c, 4, 63, 127
1, 206627, Note_off_c, 4, 64, 64
1, 206656, Note_on_c, 2, 71, 123
1, 206708, Note_on_c, 2, 73, 114
1, 206729, Note_off_c, 2, 71, 64
1, 206754, Note_on_c, 2, 75, 108
1, 206777, Note_off_c, 2, 73, 64
1, 206800, Note_on_c, 2, 76, 108
1, 206821, Note_off_c, 2, 75, 64
1, 206844, Note_on_c, 1, 78, 105
1, 206865, Note_off_c, 2, 76, 64
1, 206888, Note_on_c, 1, 80, 105
1, 206909, Note_off_c, 1, 78, 64
1, 206932, Note_on_c, 1, 82, 105
1, 206952, Note_off_c, 1, 80, 64
1, 206973, Note_on_c, 1, 83, 105
1, 206994, Note_off_c, 1, 82, 64
1, 207019, Note_on_c, 1, 81, 105
1, 207038, Note_off_c, 1, 83, 64
1, 207055, Note_on_c, 1, 84, 105
1, 207074, Note_off_c, 1, 81, 64
1, 207105, Note_on_c, 1, 83, 105
1, 207122, Note_off_c, 1, 84, 64
1, 207145, Note_on_c, 1, 81, 105
1, 207167, Note_off_c, 1, 83, 64
1, 207192, Note_on_c, 1, 79, 105
1, 207211, Note_off_c, 1, 81, 64
1, 207236, Note_on_c, 1, 78, 105
1, 207259, Note_off_c, 1, 79, 64
1, 207284, Note_on_c, 2, 76, 108
1, 207307, Note_off_c, 1, 78, 64
1, 207332, Note_on_c, 2, 75, 108
1, 207352, Note_off_c, 2, 76, 64
1, 207377, Note_on_c, 2, 76, 108
1, 207396, Note_off_c, 2, 75, 64
1, 207419, Note_on_c, 1, 78, 105
1, 207440, Note_off_c, 2, 76, 64
1, 207462, Note_on_c, 2, 76, 108
1, 207480, Note_off_c, 1, 78, 64
1, 207502, Note_on_c, 2, 75, 108
1, 207525, Note_off_c, 2, 76, 64
1, 207548, Note_on_c, 2, 72, 122
1, 207567, Note_off_c, 2, 75, 64
1, 207592, Note_on_c, 2, 71, 123
1, 207615, Note_off_c, 2, 72, 64
1, 207640, Note_on_c, 2, 69, 127
1, 207661, Note_off_c, 2, 71, 64
1, 207690, Note_off_c, 4, 63, 64
1, 207691, Note_on_c, 2, 68, 127
1, 207712, Note_off_c, 2, 69, 64
1, 207739, Note_on_c, 4, 52, 127
1, 207785, Note_on_c, 4, 54, 127
1, 207804, Note_off_c, 4, 52, 64
1, 207829, Note_on_c, 4, 56, 127
1, 207850, Note_off_c, 4, 54, 64
1, 207874, Note_on_c, 4, 57, 127
1, 207889, Note_off_c, 2, 68, 64
1, 207894, Note_off_c, 4, 56, 64
1, 207920, Note_on_c, 4, 59, 127
1, 207939, Note_off_c, 4, 57, 64
1, 207964, Note_on_c, 4, 61, 127
1, 207983, Note_off_c, 4, 59, 64
1, 208006, Note_on_c, 4, 63, 127
1, 208025, Note_off_c, 4, 61, 64
1, 208050, Note_on_c, 3, 64, 127
1, 208071, Note_off_c, 4, 63, 64
1, 208096, Note_on_c, 4, 63, 127
1, 208112, Note_off_c, 3, 64, 64
1, 208138, Note_on_c, 3, 66, 127
1, 208160, Note_off_c, 4, 63, 64
1, 208186, Note_on_c, 3, 64, 127
1, 208200, Note_off_c, 3, 66, 64
1, 208226, Note_on_c, 3, 67, 127
1, 208241, Note_off_c, 3, 64, 64
1, 208272, Note_on_c, 3, 66, 127
1, 208288, Note_off_c, 3, 67, 64
1, 208314, Note_on_c, 3, 69, 127
1, 208332, Note_off_c, 3, 66, 64
1, 208361, Note_on_c, 3, 67, 127
1, 208374, Note_off_c, 3, 69, 64
1, 208400, Note_on_c, 3, 71, 123
1, 208415, Note_off_c, 3, 67, 64
1, 208444, Note_on_c, 3, 70, 127
1, 208457, Note_off_c, 3, 71, 64
1, 208482, Note_on_c, 3, 74, 111
1, 208499, Note_off_c, 3, 70, 64
1, 208528, Note_on_c, 3, 73, 114
1, 208542, Note_off_c, 3, 74, 64
1, 208569, Note_on_c, 3, 71, 123
1, 208582, Note_off_c, 3, 73, 64
1, 208611, Note_on_c, 3, 69, 127
1, 208626, Note_off_c, 3, 71, 64
1, 208657, Note_on_c, 3, 67, 127
1, 208675, Note_off_c, 3, 69, 64
1, 208705, Note_on_c, 3, 66, 127
1, 208727, Note_off_c, 3, 67, 64
1, 208759, Note_on_c, 4, 65, 127
1, 208779, Note_off_c, 3, 66, 64
1, 208811, Note_on_c, 2, 73, 114
1, 208859, Note_on_c, 2, 75, 108
1, 208880, Note_off_c, 2, 73, 64
1, 208907, Note_on_c, 2, 77, 108
1, 208928, Note_off_c, 2, 75, 64
1, 208951, Note_on_c, 1, 78, 105
1, 208972, Note_off_c, 2, 77, 64
1, 208997, Note_on_c, 1, 80, 105
1, 209018, Note_off_c, 1, 78, 64
1, 209041, Note_on_c, 1, 82, 105
1, 209062, Note_off_c, 1, 80, 64
1, 209087, Note_on_c, 1, 84, 105
1, 209106, Note_off_c, 1, 82, 64
1, 209133, Note_on_c, 1, 85, 105
1, 209152, Note_off_c, 1, 84, 64
1, 209179, Note_on_c, 1, 83, 105
1, 209198, Note_off_c, 1, 85, 64
1, 209220, Note_on_c, 1, 86, 105
1, 209243, Note_off_c, 1, 83, 64
1, 209268, Note_on_c, 1, 85, 105
1, 209287, Note_off_c, 1, 86, 64
1, 209310, Note_on_c, 1, 83, 105
1, 209330, Note_off_c, 1, 85, 64
1, 209355, Note_on_c, 1, 81, 105
1, 209376, Note_off_c, 1, 83, 64
1, 209399, Note_on_c, 1, 80, 105
1, 209420, Note_off_c, 1, 81, 64
1, 209443, Note_on_c, 1, 78, 105
1, 209462, Note_off_c, 1, 80, 64
1, 209485, Note_on_c, 2, 77, 108
1, 209507, Note_off_c, 1, 78, 64
1, 209530, Note_on_c, 1, 78, 105
1, 209549, Note_off_c, 2, 77, 64
1, 209572, Note_on_c, 1, 80, 105
1, 209591, Note_off_c, 1, 78, 64
1, 209620, Note_on_c, 1, 78, 105
1, 209637, Note_off_c, 1, 80, 64
1, 209660, Note_on_c, 2, 77, 108
1, 209679, Note_off_c, 1, 78, 64
1, 209702, Note_on_c, 2, 74, 111
1, 209724, Note_off_c, 2, 77, 64
1, 209748, Note_on_c, 2, 73, 114
1, 209770, Note_off_c, 2, 74, 64
1, 209795, Note_on_c, 2, 71, 123
1, 209818, Note_off_c, 2, 73, 64
1, 209843, Note_off_c, 4, 65, 64
1, 209843, Note_on_c, 2, 69, 127
1, 209844, Note_on_c, 4, 54, 127
1, 209866, Note_off_c, 2, 71, 64
1, 209889, Note_on_c, 2, 66, 127
1, 209910, Note_off_c, 2, 69, 64
1, 209935, Note_on_c, 2, 68, 127
1, 209955, Note_off_c, 2, 66, 64
1, 209977, Note_on_c, 2, 69, 127
1, 209998, Note_off_c, 2, 68, 64
1, 210022, Note_on_c, 2, 71, 123
1, 210043, Note_off_c, 2, 69, 64
1, 210067, Note_on_c, 2, 73, 114
1, 210085, Note_off_c, 2, 71, 64
1, 210108, Note_on_c, 2, 75, 108
1, 210128, Note_off_c, 2, 73, 64
1, 210151, Note_on_c, 2, 77, 108
1, 210170, Note_off_c, 2, 75, 64
1, 210192, Note_off_c, 4, 54, 64
1, 210192, Note_on_c, 4, 59, 127
1, 210192, Note_on_c, 1, 78, 105
1, 210193, Note_on_c, 4, 51, 127
1, 210212, Note_off_c, 2, 77, 64
1, 210235, Note_on_c, 1, 80, 105
1, 210254, Note_off_c, 1, 78, 64
1, 210282, Note_on_c, 1, 78, 105
1, 210302, Note_off_c, 1, 80, 64
1, 210328, Note_on_c, 2, 77, 108
1, 210351, Note_off_c, 1, 78, 64
1, 210376, Note_on_c, 1, 78, 105
1, 210398, Note_off_c, 2, 77, 64
1, 210422, Note_on_c, 1, 80, 105
1, 210446, Note_off_c, 1, 78, 64
1, 210472, Note_on_c, 1, 78, 105
1, 210491, Note_off_c, 1, 80, 64
1, 210512, Note_on_c, 2, 77, 108
1, 210535, Note_off_c, 1, 78, 64
1, 210560, Note_off_c, 4, 51, 64
1, 210561, Note_off_c, 4, 59, 64
1, 210561, Note_on_c, 1, 78, 105
1, 210562, Note_on_c, 4, 60, 127
1, 210562, Note_on_c, 4, 50, 127
1, 210581, Note_off_c, 2, 77, 64
1, 210607, Note_on_c, 1, 80, 105
1, 210626, Note_off_c, 1, 78, 64
1, 210651, Note_on_c, 1, 81, 105
1, 210671, Note_off_c, 1, 80, 64
1, 210699, Note_on_c, 1, 80, 105
1, 210720, Note_off_c, 1, 81, 64
1, 210742, Note_on_c, 1, 83, 105
1, 210763, Note_off_c, 1, 80, 64
1, 210790, Note_on_c, 1, 81, 105
1, 210809, Note_off_c, 1, 83, 64
1, 210834, Note_on_c, 1, 80, 105
1, 210855, Note_off_c, 1, 81, 64
1, 210878, Note_on_c, 1, 78, 105
1, 210901, Note_off_c, 1, 80, 64
1, 210924, Note_off_c, 4, 50, 64
1, 210924, Note_off_c, 4, 60, 64
1, 210925, Note_on_c, 4, 61, 127
1, 210925, Note_on_c, 2, 77, 108
1, 210926, Note_on_c, 4, 49, 127
1, 210949, Note_off_c, 1, 78, 64
1, 210974, Note_on_c, 1, 78, 105
1, 210995, Note_off_c, 2, 77, 64
1, 211016, Note_on_c, 1, 80, 105
1, 211037, Note_off_c, 1, 78, 64
1, 211062, Note_on_c, 1, 78, 105
1, 211083, Note_off_c, 1, 80, 64
1, 211104, Note_on_c, 2, 77, 108
1, 211126, Note_off_c, 1, 78, 64
1, 211149, Note_on_c, 2, 75, 108
1, 211172, Note_off_c, 2, 77, 64
1, 211193, Note_on_c, 2, 73, 114
1, 211214, Note_off_c, 2, 75, 64
1, 211236, Note_on_c, 2, 72, 122
1, 211256, Note_off_c, 2, 73, 64
1, 211279, Note_on_c, 2, 73, 114
1, 211300, Note_off_c, 2, 72, 64
1, 211327, Note_on_c, 2, 71, 123
1, 211346, Note_off_c, 2, 73, 64
1, 211368, Note_on_c, 2, 74, 111
1, 211390, Note_off_c, 2, 71, 64
1, 211416, Note_on_c, 2, 73, 114
1, 211434, Note_off_c, 2, 74, 64
1, 211457, Note_on_c, 2, 71, 123
1, 211478, Note_off_c, 2, 73, 64
1, 211499, Note_on_c, 2, 69, 127
1, 211520, Note_off_c, 2, 71, 64
1, 211543, Note_on_c, 2, 68, 127
1, 211564, Note_off_c, 2, 69, 64
1, 211589, Note_on_c, 3, 66, 127
1, 211610, Note_off_c, 2, 68, 64
1, 211635, Note_off_c, 4, 61, 64
1, 211636, Note_on_c, 3, 65, 127
1, 211656, Note_off_c, 3, 66, 64
1, 211680, Note_on_c, 3, 62, 127
1, 211702, Note_off_c, 3, 65, 64
1, 211725, Note_on_c, 3, 61, 127
1, 211746, Note_off_c, 3, 62, 64
1, 211771, Note_on_c, 3, 60, 127
1, 211790, Note_off_c, 3, 61, 64
1, 211815, Note_on_c, 3, 61, 127
1, 211833, Note_off_c, 3, 60, 64
1, 211866, Note_on_c, 3, 59, 127
1, 211889, Note_off_c, 3, 61, 64
1, 211914, Note_on_c, 3, 57, 127
1, 211937, Note_off_c, 3, 59, 64
1, 211958, Note_off_c, 3, 57, 64
1, 211962, Note_on_c, 3, 56, 127
1, 212014, Note_off_c, 3, 56, 64
1, 212017, Note_off_c, 4, 49, 64
1, 212018, Note_on_c, 2, 73, 125
1, 212022, Note_on_c, 4, 54, 127
1, 212122, Note_on_c, 3, 69, 127
1, 212123, Note_on_c, 3, 66, 127
1, 212211, Note_off_c, 3, 66, 64
1, 212212, Note_off_c, 3, 69, 64
1, 212222, Note_on_c, 3, 69, 127
1, 212222, Note_on_c, 3, 66, 127
1, 212311, Note_off_c, 3, 66, 64
1, 212312, Note_off_c, 3, 69, 64
1, 212322, Note_on_c, 3, 69, 127
1, 212322, Note_on_c, 3, 66, 127
1, 212409, Note_off_c, 3, 66, 64
1, 212410, Note_off_c, 3, 69, 64
1, 212420, Note_on_c, 3, 69, 127
1, 212420, Note_on_c, 3, 66, 127
1, 212497, Note_off_c, 3, 66, 64
1, 212498, Note_off_c, 3, 69, 64
1, 212505, Note_off_c, 2, 73, 64
1, 212505, Note_on_c, 1, 78, 105
1, 212507, Note_on_c, 3, 69, 127
1, 212508, Note_on_c, 3, 66, 127
1, 212592, Note_off_c, 3, 66, 64
1, 212593, Note_off_c, 3, 69, 64
1, 212602, Note_on_c, 1, 81, 105
1, 212603, Note_on_c, 3, 69, 127
1, 212604, Note_on_c, 3, 66, 127
1, 212618, Note_off_c, 1, 78, 64
1, 212687, Note_off_c, 3, 69, 64
1, 212687, Note_off_c, 3, 66, 64
1, 212696, Note_on_c, 2, 77, 108
1, 212696, Note_on_c, 3, 69, 127
1, 212697, Note_on_c, 3, 66, 127
1, 212709, Note_off_c, 1, 81, 64
1, 212782, Note_off_c, 3, 66, 64
1, 212782, Note_off_c, 3, 69, 64
1, 212791, Note_on_c, 1, 78, 105
1, 212791, Note_on_c, 3, 69, 127
1, 212792, Note_on_c, 3, 66, 127
1, 212806, Note_off_c, 2, 77, 64
1, 212879, Note_off_c, 3, 66, 64
1, 212879, Note_off_c, 3, 69, 64
1, 212888, Note_on_c, 2, 72, 122
1, 212888, Note_on_c, 3, 69, 127
1, 212889, Note_on_c, 3, 66, 127
1, 212902, Note_off_c, 1, 78, 64
1, 212973, Note_off_c, 3, 66, 64
1, 212973, Note_off_c, 3, 69, 64
1, 212980, Note_on_c, 2, 74, 111
1, 212981, Note_on_c, 3, 69, 127
1, 212982, Note_on_c, 3, 66, 127
1, 212994, Note_off_c, 2, 72, 64
1, 213071, Note_off_c, 3, 66, 64
1, 213071, Note_off_c, 3, 69, 64
1, 213080, Note_on_c, 2, 73, 114
1, 213082, Note_on_c, 3, 69, 127
1, 213082, Note_on_c, 3, 66, 127
1, 213100, Note_off_c, 2, 74, 64
1, 213177, Note_off_c, 2, 73, 64
1, 213177, Note_off_c, 3, 66, 64
1, 213177, Note_off_c, 3, 69, 64
1, 213181, Note_on_c, 2, 73, 125
1, 213185, Note_off_c, 4, 54, 64
1, 213185, Note_on_c, 4, 53, 127
1, 213282, Note_on_c, 3, 68, 127
1, 213283, Note_on_c, 3, 65, 127
1, 213368, Note_off_c, 3, 68, 64
1, 213368, Note_off_c, 3, 65, 64
1, 213378, Note_on_c, 3, 68, 127
1, 213379, Note_on_c, 3, 65, 127
1, 213462, Note_off_c, 3, 65, 64
1, 213462, Note_off_c, 3, 68, 64
1, 213472, Note_on_c, 3, 68, 127
1, 213473, Note_on_c, 3, 65, 127
1, 213558, Note_off_c, 3, 65, 64
1, 213558, Note_off_c, 3, 68, 64
1, 213566, Note_on_c, 3, 68, 127
1, 213567, Note_on_c, 3, 65, 127
1, 213652, Note_off_c, 3, 68, 64
1, 213652, Note_off_c, 3, 65, 64
1, 213660, Note_off_c, 2, 73, 64
1, 213661, Note_on_c, 1, 80, 109
1, 213662, Note_on_c, 3, 68, 127
1, 213662, Note_on_c, 3, 65, 127
1, 213743, Note_off_c, 3, 65, 64
1, 213744, Note_off_c, 3, 68, 64
1, 213752, Note_on_c, 3, 68, 127
1, 213752, Note_on_c, 1, 83, 109
1, 213753, Note_on_c, 3, 65, 127
1, 213769, Note_off_c, 1, 80, 64
1, 213846, Note_off_c, 3, 68, 64
1, 213846, Note_off_c, 3, 65, 64
1, 213854, Note_on_c, 2, 77, 112
1, 213855, Note_on_c, 3, 68, 127
1, 213855, Note_on_c, 3, 65, 127
1, 213872, Note_off_c, 1, 83, 64
1, 213938, Note_off_c, 3, 65, 64
1, 213938, Note_off_c, 3, 68, 64
1, 213947, Note_on_c, 1, 80, 109
1, 213947, Note_on_c, 3, 68, 127
1, 213948, Note_on_c, 3, 65, 127
1, 213960, Note_off_c, 2, 77, 64
1, 214031, Note_off_c, 3, 65, 64
1, 214032, Note_off_c, 3, 68, 64
1, 214038, Note_on_c, 2, 72, 125
1, 214040, Note_on_c, 3, 68, 127
1, 214040, Note_on_c, 3, 65, 127
1, 214054, Note_off_c, 1, 80, 64
1, 214127, Note_off_c, 3, 65, 64
1, 214128, Note_off_c, 3, 68, 64
1, 214136, Note_on_c, 2, 74, 115
1, 214139, Note_on_c, 3, 68, 127
1, 214139, Note_on_c, 3, 65, 127
1, 214153, Note_off_c, 2, 72, 64
1, 214224, Note_off_c, 3, 65, 64
1, 214224, Note_off_c, 3, 68, 64
1, 214233, Note_on_c, 2, 73, 118
1, 214235, Note_on_c, 3, 68, 127
1, 214235, Note_on_c, 3, 65, 127
1, 214249, Note_off_c, 2, 74, 64
1, 214324, Note_off_c, 3, 65, 64
1, 214324, Note_off_c, 3, 68, 64
1, 214325, Note_off_c, 2, 73, 64
1, 214332, Note_on_c, 2, 73, 125
1, 214333, Note_on_c, 3, 66, 127
1, 214335, Note_off_c, 4, 53, 64
1, 214426, Note_on_c, 1, 81, 98
1, 214522, Note_on_c, 3, 64, 127
1, 214537, Note_off_c, 3, 66, 64
1, 214610, Note_on_c, 1, 80, 98
1, 214625, Note_off_c, 1, 81, 64
1, 214699, Note_on_c, 4, 62, 127
1, 214714, Note_off_c, 3, 64, 64
1, 214787, Note_on_c, 2, 77, 98
1, 214802, Note_off_c, 1, 80, 64
1, 214879, Note_on_c, 1, 78, 96
1, 214895, Note_off_c, 2, 77, 64
1, 214973, Note_on_c, 1, 80, 96
1, 214989, Note_off_c, 1, 78, 64
1, 215060, Note_off_c, 2, 73, 64
1, 215060, Note_on_c, 1, 83, 96
1, 215061, Note_on_c, 2, 72, 122
1, 215074, Note_off_c, 1, 80, 64
1, 215153, Note_on_c, 1, 81, 96
1, 215166, Note_off_c, 1, 83, 64
1, 215241, Note_on_c, 1, 80, 96
1, 215255, Note_off_c, 1, 81, 64
1, 215333, Note_on_c, 1, 78, 96
1, 215349, Note_off_c, 1, 80, 64
1, 215430, Note_off_c, 2, 72, 64
1, 215431, Note_off_c, 4, 62, 64
1, 215431, Note_on_c, 2, 73, 114
1, 215432, Note_on_c, 4, 61, 127
1, 215523, Note_off_c, 1, 78, 64
1, 215524, Note_on_c, 2, 77, 98
1, 215605, Note_off_c, 2, 77, 64
1, 215611, Note_on_c, 1, 80, 96
1, 215626, Note_off_c, 2, 73, 64
1, 215711, Note_on_c, 2, 72, 122
1, 215726, Note_off_c, 1, 80, 64
1, 215797, Note_on_c, 2, 73, 114
1, 215811, Note_off_c, 2, 72, 64
1, 215902, Note_on_c, 4, 65, 127
1, 215915, Note_off_c, 2, 73, 64
1, 215988, Note_off_c, 4, 61, 64
1, 215988, Note_on_c, 2, 66, 127
1, 216000, Note_off_c, 4, 65, 64
1, 216085, Note_on_c, 4, 61, 127
1, 216098, Note_off_c, 2, 66, 64
1, 216169, Note_on_c, 4, 62, 127
1, 216183, Note_off_c, 4, 61, 64
1, 216269, Note_on_c, 4, 56, 127
1, 216288, Note_off_c, 4, 62, 64
1, 216360, Note_on_c, 4, 59, 127
1, 216378, Note_off_c, 4, 56, 64
1, 216467, Note_on_c, 4, 53, 127
1, 216482, Note_off_c, 4, 59, 64
1, 216573, Note_on_c, 2, 73, 125
1, 216575, Note_on_c, 4, 54, 127
1, 216592, Note_off_c, 4, 53, 64
1, 216680, Note_on_c, 3, 69, 127
1, 216681, Note_on_c, 3, 66, 127
1, 216762, Note_off_c, 3, 69, 64
1, 216764, Note_off_c, 3, 66, 64
1, 216771, Note_on_c, 3, 69, 127
1, 216774, Note_on_c, 3, 66, 127
1, 216859, Note_off_c, 3, 66, 64
1, 216859, Note_off_c, 3, 69, 64
1, 216867, Note_on_c, 3, 69, 127
1, 216869, Note_on_c, 3, 66, 127
1, 216952, Note_off_c, 3, 69, 64
1, 216954, Note_off_c, 3, 66, 64
1, 216961, Note_on_c, 3, 69, 127
1, 216963, Note_on_c, 3, 66, 127
1, 217044, Note_off_c, 3, 66, 64
1, 217044, Note_off_c, 3, 69, 64
1, 217053, Note_off_c, 2, 73, 64
1, 217053, Note_on_c, 1, 78, 105
1, 217054, Note_on_c, 3, 69, 127
1, 217054, Note_on_c, 3, 66, 127
1, 217135, Note_off_c, 3, 69, 64
1, 217136, Note_off_c, 3, 66, 64
1, 217145, Note_on_c, 3, 69, 127
1, 217145, Note_on_c, 1, 81, 105
1, 217146, Note_on_c, 3, 66, 127
1, 217162, Note_off_c, 1, 78, 64
1, 217230, Note_off_c, 3, 69, 64
1, 217231, Note_off_c, 3, 66, 64
1, 217237, Note_on_c, 2, 77, 108
1, 217238, Note_on_c, 3, 69, 127
1, 217240, Note_on_c, 3, 66, 127
1, 217254, Note_off_c, 1, 81, 64
1, 217317, Note_off_c, 3, 69, 64
1, 217319, Note_off_c, 3, 66, 64
1, 217327, Note_on_c, 1, 78, 98
1, 217327, Note_on_c, 3, 69, 127
1, 217328, Note_on_c, 3, 66, 127
1, 217343, Note_off_c, 2, 77, 64
1, 217416, Note_off_c, 3, 69, 64
1, 217417, Note_off_c, 3, 66, 64
1, 217424, Note_on_c, 3, 69, 127
1, 217424, Note_on_c, 2, 72, 116
1, 217425, Note_on_c, 3, 66, 127
1, 217436, Note_off_c, 1, 78, 64
1, 217505, Note_off_c, 3, 69, 64
1, 217507, Note_off_c, 3, 66, 64
1, 217513, Note_on_c, 2, 74, 105
1, 217513, Note_on_c, 3, 69, 127
1, 217514, Note_on_c, 3, 66, 127
1, 217527, Note_off_c, 2, 72, 64
1, 217598, Note_off_c, 3, 66, 64
1, 217598, Note_off_c, 3, 69, 64
1, 217607, Note_off_c, 2, 74, 64
1, 217608, Note_on_c, 3, 69, 127
1, 217608, Note_on_c, 3, 66, 127
1, 217608, Note_on_c, 2, 73, 108
1, 217697, Note_off_c, 3, 69, 64
1, 217699, Note_off_c, 2, 73, 64
1, 217699, Note_off_c, 3, 66, 64
1, 217706, Note_off_c, 4, 54, 64
1, 217706, Note_on_c, 2, 73, 119
1, 217707, Note_on_c, 4, 52, 127
1, 217807, Note_on_c, 3, 67, 127
1, 217808, Note_on_c, 3, 64, 127
1, 217887, Note_off_c, 3, 67, 64
1, 217889, Note_off_c, 3, 64, 64
1, 217897, Note_on_c, 3, 67, 127
1, 217899, Note_on_c, 3, 64, 127
1, 217980, Note_off_c, 3, 67, 64
1, 217981, Note_off_c, 3, 64, 64
1, 217990, Note_on_c, 3, 67, 127
1, 217991, Note_on_c, 3, 64, 127
1, 218075, Note_off_c, 3, 64, 64
1, 218075, Note_off_c, 3, 67, 64
1, 218083, Note_on_c, 3, 67, 127
1, 218084, Note_on_c, 3, 64, 127
1, 218166, Note_off_c, 3, 67, 64
1, 218166, Note_off_c, 3, 64, 64
1, 218174, Note_off_c, 2, 73, 64
1, 218175, Note_on_c, 1, 79, 98
1, 218175, Note_on_c, 3, 67, 127
1, 218176, Note_on_c, 3, 64, 127
1, 218265, Note_off_c, 3, 64, 64
1, 218265, Note_off_c, 3, 67, 64
1, 218274, Note_on_c, 1, 82, 98
1, 218275, Note_on_c, 3, 67, 127
1, 218275, Note_on_c, 3, 64, 127
1, 218291, Note_off_c, 1, 79, 64
1, 218356, Note_off_c, 3, 67, 64
1, 218358, Note_off_c, 3, 64, 64
1, 218365, Note_on_c, 2, 76, 102
1, 218366, Note_on_c, 3, 67, 127
1, 218368, Note_on_c, 3, 64, 127
1, 218382, Note_off_c, 1, 82, 64
1, 218455, Note_off_c, 3, 67, 64
1, 218457, Note_off_c, 3, 64, 64
1, 218464, Note_on_c, 1, 79, 98
1, 218465, Note_on_c, 3, 67, 127
1, 218467, Note_on_c, 3, 64, 127
1, 218483, Note_off_c, 2, 76, 64
1, 218554, Note_off_c, 3, 67, 64
1, 218556, Note_off_c, 3, 64, 64
1, 218563, Note_on_c, 2, 73, 108
1, 218564, Note_on_c, 3, 67, 127
1, 218564, Note_on_c, 3, 64, 127
1, 218578, Note_off_c, 1, 79, 64
1, 218647, Note_off_c, 3, 64, 64
1, 218647, Note_off_c, 3, 67, 64
1, 218653, Note_on_c, 2, 76, 102
1, 218654, Note_on_c, 3, 67, 127
1, 218656, Note_on_c, 3, 64, 127
1, 218666, Note_off_c, 2, 73, 64
1, 218737, Note_off_c, 3, 67, 64
1, 218741, Note_off_c, 3, 64, 64
1, 218747, Note_on_c, 2, 70, 127
1, 218747, Note_on_c, 3, 67, 127
1, 218749, Note_on_c, 3, 64, 127
1, 218761, Note_off_c, 2, 76, 64
1, 218828, Note_off_c, 3, 67, 64
1, 218836, Note_off_c, 4, 52, 64
1, 218836, Note_on_c, 3, 66, 127
1, 218837, Note_off_c, 3, 64, 64
1, 218837, Note_on_c, 3, 63, 127
1, 218930, Note_on_c, 2, 71, 123
1, 218945, Note_off_c, 2, 70, 64
1, 219026, Note_on_c, 3, 62, 127
1, 219041, Note_off_c, 3, 63, 64
1, 219116, Note_on_c, 2, 72, 116
1, 219132, Note_off_c, 2, 71, 64
1, 219210, Note_on_c, 4, 61, 127
1, 219226, Note_off_c, 3, 62, 64
1, 219302, Note_on_c, 2, 73, 108
1, 219318, Note_off_c, 2, 72, 64
1, 219377, Note_off_c, 3, 66, 64
1, 219401, Note_on_c, 1, 78, 98
1, 219416, Note_off_c, 2, 73, 64
1, 219491, Note_on_c, 2, 69, 127
1, 219504, Note_off_c, 1, 78, 64
1, 219577, Note_on_c, 2, 73, 108
1, 219578, Note_off_c, 4, 61, 64
1, 219578, Note_on_c, 4, 49, 127
1, 219578, Note_on_c, 4, 57, 127
1, 219593, Note_off_c, 2, 69, 64
1, 219675, Note_on_c, 2, 66, 127
1, 219691, Note_off_c, 2, 73, 64
1, 219773, Note_on_c, 2, 71, 123
1, 219774, Note_on_c, 4, 56, 127
1, 219788, Note_off_c, 2, 66, 64
1, 219788, Note_off_c, 4, 57, 64
1, 219873, Note_on_c, 4, 61, 127
1, 219892, Note_off_c, 2, 71, 64
1, 219978, Note_off_c, 4, 49, 64
1, 219978, Note_on_c, 2, 66, 127
1, 219979, Note_on_c, 4, 54, 127
1, 219979, Note_on_c, 4, 57, 127
1, 219993, Note_off_c, 4, 56, 64
1, 219994, Note_off_c, 4, 61, 64
1, 220068, Note_off_c, 2, 66, 64
1, 220073, Note_on_c, 4, 61, 127
1, 220073, Note_on_c, 2, 68, 127
1, 220089, Note_off_c, 4, 57, 64
1, 220120, Note_on_c, 2, 69, 127
1, 220143, Note_off_c, 2, 68, 64
1, 220158, Note_off_c, 4, 61, 64
1, 220166, Note_on_c, 2, 71, 123
1, 220166, Note_on_c, 4, 61, 127
1, 220190, Note_off_c, 2, 69, 64
1, 220213, Note_on_c, 2, 73, 114
1, 220234, Note_off_c, 2, 71, 64
1, 220249, Note_off_c, 4, 61, 64
1, 220257, Note_on_c, 2, 75, 108
1, 220258, Note_on_c, 4, 61, 127
1, 220281, Note_off_c, 2, 73, 64
1, 220304, Note_on_c, 2, 77, 108
1, 220325, Note_off_c, 2, 75, 64
1, 220339, Note_off_c, 4, 61, 64
1, 220348, Note_on_c, 1, 78, 105
1, 220349, Note_on_c, 4, 57, 127
1, 220372, Note_off_c, 2, 77, 64
1, 220393, Note_on_c, 1, 80, 105
1, 220415, Note_off_c, 1, 78, 64
1, 220438, Note_on_c, 1, 81, 105
1, 220438, Note_on_c, 4, 61, 127
1, 220452, Note_off_c, 4, 57, 64
1, 220458, Note_off_c, 1, 80, 64
1, 220481, Note_on_c, 1, 83, 105
1, 220500, Note_off_c, 1, 81, 64
1, 220512, Note_off_c, 4, 61, 64
1, 220519, Note_on_c, 1, 85, 105
1, 220520, Note_on_c, 4, 61, 127
1, 220541, Note_off_c, 1, 83, 64
1, 220566, Note_on_c, 1, 81, 105
1, 220587, Note_off_c, 1, 85, 64
1, 220599, Note_off_c, 4, 61, 64
1, 220608, Note_on_c, 1, 80, 105
1, 220609, Note_on_c, 4, 61, 127
1, 220631, Note_off_c, 1, 81, 64
1, 220654, Note_on_c, 1, 78, 105
1, 220675, Note_off_c, 1, 80, 64
1, 220688, Note_off_c, 4, 61, 64
1, 220698, Note_off_c, 4, 54, 64
1, 220699, Note_on_c, 4, 49, 127
1, 220699, Note_on_c, 4, 59, 127
1, 220700, Note_on_c, 2, 77, 108
1, 220719, Note_off_c, 1, 78, 64
1, 220740, Note_on_c, 1, 80, 105
1, 220763, Note_off_c, 2, 77, 64
1, 220790, Note_on_c, 4, 61, 127
1, 220790, Note_on_c, 2, 77, 108
1, 220802, Note_off_c, 4, 59, 64
1, 220810, Note_off_c, 1, 80, 64
1, 220829, Note_on_c, 2, 73, 114
1, 220850, Note_off_c, 2, 77, 64
1, 220866, Note_off_c, 4, 61, 64
1, 220875, Note_on_c, 2, 71, 123
1, 220876, Note_on_c, 4, 61, 127
1, 220896, Note_off_c, 2, 73, 64
1, 220917, Note_on_c, 2, 73, 114
1, 220936, Note_off_c, 2, 71, 64
1, 220953, Note_off_c, 4, 61, 64
1, 220965, Note_on_c, 4, 61, 127
1, 220965, Note_on_c, 2, 71, 123
1, 220989, Note_off_c, 2, 73, 64
1, 221008, Note_on_c, 2, 68, 127
1, 221029, Note_off_c, 2, 71, 64
1, 221040, Note_off_c, 4, 61, 64
1, 221050, Note_off_c, 4, 49, 64
1, 221051, Note_on_c, 2, 66, 127
1, 221051, Note_on_c, 4, 57, 127
1, 221052, Note_on_c, 4, 54, 127
1, 221075, Note_off_c, 2, 68, 64
1, 221146, Note_off_c, 2, 66, 64
1, 221150, Note_on_c, 2, 68, 127
1, 221150, Note_on_c, 4, 61, 127
1, 221166, Note_off_c, 4, 57, 64
1, 221195, Note_on_c, 2, 69, 127
1, 221216, Note_off_c, 2, 68, 64
1, 221230, Note_off_c, 4, 61, 64
1, 221239, Note_on_c, 2, 71, 123
1, 221240, Note_on_c, 4, 61, 127
1, 221261, Note_off_c, 2, 69, 64
1, 221282, Note_on_c, 2, 73, 114
1, 221305, Note_off_c, 2, 71, 64
1, 221319, Note_off_c, 4, 61, 64
1, 221328, Note_on_c, 2, 75, 108
1, 221329, Note_on_c, 4, 61, 127
1, 221349, Note_off_c, 2, 73, 64
1, 221374, Note_on_c, 2, 77, 108
1, 221395, Note_off_c, 2, 75, 64
1, 221408, Note_off_c, 4, 61, 64
1, 221418, Note_on_c, 4, 57, 127
1, 221418, Note_on_c, 1, 78, 105
1, 221438, Note_off_c, 2, 77, 64
1, 221463, Note_on_c, 1, 80, 105
1, 221482, Note_off_c, 1, 78, 64
1, 221505, Note_on_c, 1, 81, 105
1, 221506, Note_on_c, 4, 61, 127
1, 221520, Note_off_c, 4, 57, 64
1, 221525, Note_off_c, 1, 80, 64
1, 221547, Note_on_c, 1, 83, 105
1, 221567, Note_off_c, 1, 81, 64
1, 221580, Note_off_c, 4, 61, 64
1, 221588, Note_on_c, 1, 85, 105
1, 221588, Note_on_c, 4, 61, 127
1, 221606, Note_off_c, 1, 83, 64
1, 221635, Note_on_c, 1, 81, 105
1, 221652, Note_off_c, 1, 85, 64
1, 221667, Note_off_c, 4, 61, 64
1, 221677, Note_on_c, 1, 80, 105
1, 221677, Note_on_c, 4, 61, 127
1, 221697, Note_off_c, 1, 81, 64
1, 221718, Note_on_c, 1, 78, 105
1, 221737, Note_off_c, 1, 80, 64
1, 221751, Note_off_c, 4, 61, 64
1, 221760, Note_off_c, 4, 54, 64
1, 221761, Note_on_c, 2, 77, 108
1, 221761, Note_on_c, 4, 59, 127
1, 221762, Note_on_c, 4, 49, 127
1, 221780, Note_off_c, 1, 78, 64
1, 221801, Note_on_c, 1, 80, 105
1, 221820, Note_off_c, 2, 77, 64
1, 221848, Note_on_c, 2, 77, 108
1, 221848, Note_on_c, 4, 61, 127
1, 221861, Note_off_c, 4, 59, 64
1, 221866, Note_off_c, 1, 80, 64
1, 221890, Note_on_c, 2, 73, 114
1, 221909, Note_off_c, 2, 77, 64
1, 221923, Note_off_c, 4, 61, 64
1, 221933, Note_on_c, 4, 61, 127
1, 221933, Note_on_c, 2, 71, 123
1, 221952, Note_off_c, 2, 73, 64
1, 221976, Note_on_c, 2, 73, 114
1, 221995, Note_off_c, 2, 71, 64
1, 222010, Note_off_c, 4, 61, 64
1, 222022, Note_on_c, 2, 71, 123
1, 222023, Note_on_c, 4, 61, 127
1, 222042, Note_off_c, 2, 73, 64
1, 222065, Note_on_c, 2, 68, 127
1, 222086, Note_off_c, 2, 71, 64
1, 222101, Note_off_c, 4, 61, 64
1, 222111, Note_off_c, 4, 49, 64
1, 222112, Note_on_c, 2, 66, 127
1, 222133, Note_off_c, 2, 68, 64
1, 222158, Note_on_c, 4, 42, 127
1, 222204, Note_on_c, 4, 43, 127
1, 222225, Note_off_c, 4, 42, 64
1, 222249, Note_on_c, 4, 45, 127
1, 222270, Note_off_c, 4, 43, 64
1, 222293, Note_on_c, 4, 47, 127
1, 222310, Note_off_c, 4, 45, 64
1, 222335, Note_on_c, 4, 49, 127
1, 222356, Note_off_c, 4, 47, 64
1, 222379, Note_on_c, 4, 51, 127
1, 222402, Note_off_c, 4, 49, 64
1, 222427, Note_on_c, 4, 52, 127
1, 222446, Note_off_c, 4, 51, 64
1, 222467, Note_off_c, 2, 66, 64
1, 222471, Note_on_c, 4, 54, 127
1, 222492, Note_off_c, 4, 52, 64
1, 222516, Note_on_c, 2, 66, 127
1, 222562, Note_on_c, 2, 68, 127
1, 222584, Note_off_c, 2, 66, 64
1, 222608, Note_on_c, 2, 69, 127
1, 222626, Note_off_c, 2, 68, 64
1, 222650, Note_on_c, 2, 71, 123
1, 222669, Note_off_c, 2, 69, 64
1, 222692, Note_on_c, 2, 73, 114
1, 222711, Note_off_c, 2, 71, 64
1, 222732, Note_on_c, 2, 75, 108
1, 222752, Note_off_c, 2, 73, 64
1, 222775, Note_on_c, 2, 77, 108
1, 222794, Note_off_c, 2, 75, 64
1, 222815, Note_on_c, 1, 78, 105
1, 222834, Note_off_c, 2, 77, 64
1, 222857, Note_on_c, 1, 80, 105
1, 222876, Note_off_c, 1, 78, 64
1, 222900, Note_on_c, 1, 81, 105
1, 222919, Note_off_c, 1, 80, 64
1, 222940, Note_on_c, 1, 83, 105
1, 222959, Note_off_c, 1, 81, 64
1, 222982, Note_on_c, 1, 85, 105
1, 223001, Note_off_c, 1, 83, 64
1, 223026, Note_on_c, 1, 81, 105
1, 223045, Note_off_c, 1, 85, 64
1, 223068, Note_on_c, 1, 78, 105
1, 223090, Note_off_c, 1, 81, 64
1, 223113, Note_on_c, 2, 73, 114
1, 223136, Note_off_c, 1, 78, 64
1, 223159, Note_on_c, 2, 74, 111
1, 223180, Note_off_c, 2, 73, 64
1, 223189, Note_off_c, 4, 54, 64
1, 223207, Note_on_c, 4, 53, 127
1, 223253, Note_on_c, 4, 55, 127
1, 223274, Note_off_c, 4, 53, 64
1, 223299, Note_on_c, 4, 57, 127
1, 223320, Note_off_c, 4, 55, 64
1, 223345, Note_on_c, 4, 59, 127
1, 223366, Note_off_c, 4, 57, 64
1, 223389, Note_on_c, 4, 61, 127
1, 223410, Note_off_c, 4, 59, 64
1, 223435, Note_on_c, 4, 62, 127
1, 223456, Note_off_c, 4, 61, 64
1, 223481, Note_on_c, 4, 64, 127
1, 223502, Note_off_c, 4, 62, 64
1, 223527, Note_on_c, 4, 65, 127
1, 223529, Note_off_c, 2, 74, 64
1, 223548, Note_off_c, 4, 64, 64
1, 223572, Note_on_c, 3, 69, 127
1, 223593, Note_off_c, 4, 65, 64
1, 223618, Note_on_c, 3, 71, 123
1, 223637, Note_off_c, 3, 69, 64
1, 223660, Note_on_c, 3, 73, 114
1, 223681, Note_off_c, 3, 71, 64
1, 223704, Note_on_c, 3, 74, 111
1, 223723, Note_off_c, 3, 73, 64
1, 223746, Note_on_c, 3, 76, 108
1, 223765, Note_off_c, 3, 74, 64
1, 223787, Note_on_c, 3, 77, 108
1, 223808, Note_off_c, 3, 76, 64
1, 223831, Note_on_c, 3, 79, 105
1, 223848, Note_off_c, 3, 77, 64
1, 223871, Note_on_c, 1, 81, 105
1, 223892, Note_off_c, 3, 79, 64
1, 223917, Note_on_c, 2, 74, 111
1, 223961, Note_on_c, 2, 77, 108
1, 223995, Note_off_c, 1, 81, 64
1, 224013, Note_on_c, 1, 81, 105
1, 224026, Note_off_c, 2, 77, 64
1, 224057, Note_on_c, 1, 86, 105
1, 224069, Note_off_c, 1, 81, 64
1, 224103, Note_on_c, 1, 84, 105
1, 224117, Note_off_c, 1, 86, 64
1, 224148, Note_on_c, 1, 83, 105
1, 224154, Note_off_c, 1, 84, 64
1, 224196, Note_on_c, 1, 81, 105
1, 224197, Note_off_c, 1, 83, 64
1, 224230, Note_off_c, 1, 81, 64
1, 224244, Note_on_c, 4, 62, 127
1, 224244, Note_on_c, 4, 59, 127
1, 224244, Note_on_c, 1, 81, 105
1, 224245, Note_on_c, 4, 52, 127
1, 224288, Note_on_c, 1, 80, 105
1, 224304, Note_off_c, 1, 81, 64
1, 224336, Note_on_c, 1, 83, 105
1, 224337, Note_off_c, 1, 80, 64
1, 224384, Note_on_c, 1, 82, 105
1, 224386, Note_off_c, 1, 83, 64
1, 224430, Note_on_c, 1, 85, 105
1, 224446, Note_off_c, 1, 82, 64
1, 224474, Note_off_c, 2, 74, 64
1, 224475, Note_on_c, 1, 83, 105
1, 224479, Note_off_c, 1, 85, 64
1, 224514, Note_on_c, 1, 81, 105
1, 224522, Note_off_c, 1, 83, 64
1, 224560, Note_on_c, 1, 80, 105
1, 224566, Note_off_c, 1, 81, 64
1, 224604, Note_on_c, 1, 78, 105
1, 224614, Note_off_c, 1, 80, 64
1, 224650, Note_on_c, 2, 76, 108
1, 224674, Note_off_c, 1, 78, 64
1, 224692, Note_on_c, 1, 78, 105
1, 224700, Note_off_c, 2, 76, 64
1, 224738, Note_on_c, 2, 77, 108
1, 224743, Note_off_c, 1, 78, 64
1, 224778, Note_on_c, 1, 80, 105
1, 224783, Note_off_c, 2, 77, 64
1, 224822, Note_on_c, 1, 78, 105
1, 224826, Note_off_c, 1, 80, 64
1, 224858, Note_on_c, 2, 76, 108
1, 224863, Note_off_c, 1, 78, 64
1, 224903, Note_on_c, 2, 74, 111
1, 224920, Note_off_c, 2, 76, 64
1, 224949, Note_on_c, 4, 56, 127
1, 224949, Note_on_c, 2, 73, 114
1, 224950, Note_off_c, 2, 74, 64
1, 224957, Note_off_c, 4, 59, 64
1, 224996, Note_on_c, 2, 71, 123
1, 224999, Note_off_c, 2, 73, 64
1, 225044, Note_on_c, 2, 74, 111
1, 225061, Note_off_c, 2, 71, 64
1, 225097, Note_on_c, 2, 73, 114
1, 225101, Note_off_c, 2, 74, 64
1, 225142, Note_on_c, 2, 76, 108
1, 225173, Note_off_c, 2, 73, 64
1, 225193, Note_on_c, 2, 74, 112
1, 225208, Note_off_c, 2, 76, 64
1, 225243, Note_on_c, 2, 73, 115
1, 225258, Note_off_c, 2, 74, 64
1, 225295, Note_on_c, 2, 72, 123
1, 225312, Note_off_c, 2, 73, 64
1, 225347, Note_off_c, 2, 72, 64
1, 225353, Note_off_c, 4, 56, 64
1, 225354, Note_off_c, 4, 62, 64
1, 225354, Note_off_c, 4, 52, 64
1, 225355, Note_on_c, 4, 57, 127
1, 225355, Note_on_c, 2, 73, 115
1, 225356, Note_on_c, 4, 64, 127
1, 225640, Note_off_c, 2, 73, 64
1, 225674, Note_on_c, 2, 74, 112
1, 225714, Note_on_c, 2, 73, 115
1, 225739, Note_off_c, 2, 74, 64
1, 225758, Note_on_c, 2, 71, 124
1, 225787, Note_off_c, 2, 73, 64
1, 225800, Note_on_c, 2, 73, 115
1, 225821, Note_off_c, 2, 71, 64
1, 225837, Note_on_c, 4, 59, 127
1, 225837, Note_on_c, 2, 76, 109
1, 225838, Note_off_c, 4, 57, 64
1, 225853, Note_off_c, 2, 73, 64
1, 226037, Note_on_c, 2, 74, 112
1, 226053, Note_off_c, 2, 76, 64
1, 226229, Note_off_c, 4, 59, 64
1, 226230, Note_on_c, 4, 62, 127
1, 226230, Note_on_c, 2, 71, 124
1, 226246, Note_off_c, 2, 74, 64
1, 226425, Note_on_c, 2, 68, 127
1, 226440, Note_off_c, 2, 71, 64
1, 226599, Note_off_c, 4, 64, 64
1, 226613, Note_off_c, 4, 62, 64
1, 226613, Note_on_c, 2, 69, 127
1, 226614, Note_on_c, 4, 61, 127
1, 226629, Note_off_c, 2, 68, 64
1, 226913, Note_off_c, 2, 69, 64
1, 226914, Note_on_c, 2, 73, 115
1, 226953, Note_on_c, 2, 69, 127
1, 227007, Note_on_c, 2, 76, 109
1, 227026, Note_off_c, 2, 73, 64
1, 227081, Note_off_c, 2, 69, 64
1, 227208, Note_on_c, 2, 74, 112
1, 227208, Note_on_c, 2, 68, 127
1, 227222, Note_off_c, 2, 76, 64
1, 227376, Note_off_c, 2, 68, 64
1, 227376, Note_off_c, 2, 74, 64
1, 227388, Note_on_c, 2, 74, 112
1, 227389, Note_on_c, 2, 68, 127
1, 227564, Note_off_c, 2, 68, 64
1, 227565, Note_off_c, 2, 74, 64
1, 227579, Note_on_c, 2, 74, 112
1, 227579, Note_on_c, 2, 68, 127
1, 227757, Note_off_c, 2, 68, 64
1, 227758, Note_off_c, 2, 74, 64
1, 227772, Note_off_c, 4, 61, 64
1, 227772, Note_on_c, 2, 69, 127
1, 227772, Note_on_c, 2, 73, 115
1, 227868, Note_on_c, 1, 81, 106
1, 227961, Note_on_c, 1, 80, 106
1, 227976, Note_off_c, 1, 81, 64
1, 228061, Note_on_c, 1, 79, 106
1, 228077, Note_off_c, 1, 80, 64
1, 228152, Note_off_c, 2, 73, 64
1, 228152, Note_on_c, 2, 77, 109
1, 228153, Note_on_c, 4, 62, 127
1, 228153, Note_on_c, 2, 74, 112
1, 228167, Note_off_c, 1, 79, 64
1, 228242, Note_on_c, 1, 78, 106
1, 228257, Note_off_c, 2, 77, 64
1, 228333, Note_on_c, 2, 76, 109
1, 228347, Note_off_c, 1, 78, 64
1, 228347, Note_off_c, 2, 74, 64
1, 228420, Note_on_c, 2, 74, 112
1, 228434, Note_off_c, 2, 76, 64
1, 228515, Note_on_c, 2, 73, 115
1, 228530, Note_off_c, 2, 74, 64
1, 228609, Note_on_c, 2, 71, 124
1, 228626, Note_off_c, 2, 73, 64
1, 228701, Note_on_c, 2, 74, 112
1, 228716, Note_off_c, 2, 71, 64
1, 228799, Note_on_c, 1, 78, 106
1, 228818, Note_off_c, 2, 74, 64
1, 228887, Note_off_c, 2, 69, 64
1, 228900, Note_off_c, 4, 62, 64
1, 228901, Note_on_c, 4, 52, 127
1, 228901, Note_on_c, 2, 69, 127
1, 228903, Note_on_c, 4, 61, 127
1, 228917, Note_off_c, 1, 78, 64
1, 229166, Note_off_c, 2, 69, 64
1, 229181, Note_on_c, 2, 71, 124
1, 229227, Note_on_c, 2, 69, 127
1, 229260, Note_off_c, 2, 71, 64
1, 229277, Note_on_c, 2, 68, 127
1, 229278, Note_on_c, 4, 59, 127
1, 229280, Note_off_c, 4, 61, 64
1, 229309, Note_off_c, 2, 69, 64
1, 229367, Note_on_c, 4, 64, 127
1, 229380, Note_off_c, 2, 68, 64
1, 229464, Note_on_c, 2, 66, 127
1, 229477, Note_off_c, 4, 64, 64
1, 229553, Note_on_c, 2, 68, 127
1, 229566, Note_off_c, 2, 66, 64
1, 229639, Note_on_c, 2, 69, 127
1, 229656, Note_off_c, 2, 68, 64
1, 229737, Note_on_c, 2, 70, 127
1, 229752, Note_off_c, 2, 69, 64
1, 229839, Note_on_c, 2, 71, 124
1, 229856, Note_off_c, 2, 70, 64
1, 229941, Note_on_c, 2, 72, 123
1, 229958, Note_off_c, 2, 71, 64
1, 230037, Note_off_c, 2, 72, 64
1, 230042, Note_off_c, 4, 59, 64
1, 230043, Note_on_c, 2, 73, 115
1, 230045, Note_off_c, 4, 52, 64
1, 230046, Note_on_c, 4, 57, 127
1, 230046, Note_on_c, 2, 69, 127
1, 230338, Note_off_c, 2, 73, 64
1, 230342, Note_on_c, 2, 74, 112
1, 230390, Note_on_c, 2, 73, 115
1, 230413, Note_off_c, 2, 74, 64
1, 230424, Note_on_c, 2, 71, 124
1, 230446, Note_off_c, 2, 73, 64
1, 230459, Note_on_c, 2, 73, 115
1, 230482, Note_off_c, 2, 71, 64
1, 230496, Note_on_c, 4, 59, 127
1, 230496, Note_on_c, 2, 76, 109
1, 230496, Note_on_c, 2, 68, 127
1, 230497, Note_off_c, 2, 69, 64
1, 230497, Note_off_c, 4, 57, 64
1, 230507, Note_off_c, 2, 73, 64
1, 230684, Note_on_c, 2, 74, 112
1, 230699, Note_off_c, 2, 76, 64
1, 230870, Note_off_c, 2, 74, 64
1, 230870, Note_off_c, 4, 59, 64
1, 230871, Note_off_c, 2, 68, 64
1, 230871, Note_on_c, 2, 71, 124
1, 230872, Note_on_c, 4, 62, 127
1, 230874, Note_on_c, 4, 64, 127
1, 231064, Note_on_c, 2, 68, 127
1, 231079, Note_off_c, 2, 71, 64
1, 231252, Note_off_c, 4, 62, 64
1, 231254, Note_off_c, 4, 64, 64
1, 231260, Note_on_c, 2, 69, 127
1, 231262, Note_on_c, 4, 61, 127
1, 231264, Note_on_c, 4, 64, 127
1, 231277, Note_off_c, 2, 68, 64
1, 231549, Note_off_c, 2, 69, 64
1, 231550, Note_on_c, 2, 73, 115
1, 231600, Note_on_c, 2, 69, 127
1, 231644, Note_on_c, 1, 79, 106
1, 231665, Note_off_c, 2, 73, 64
1, 231723, Note_off_c, 2, 69, 64
1, 231859, Note_on_c, 2, 71, 124
1, 231860, Note_off_c, 4, 61, 64
1, 231860, Note_on_c, 4, 62, 127
1, 231861, Note_off_c, 4, 64, 64
1, 232049, Note_off_c, 1, 79, 64
1, 232050, Note_on_c, 4, 63, 127
1, 232050, Note_on_c, 2, 72, 123
1, 232066, Note_off_c, 4, 62, 64
1, 232066, Note_off_c, 2, 71, 64
1, 232155, Note_on_c, 1, 78, 106
1, 232245, Note_off_c, 4, 63, 64
1, 232246, Note_off_c, 2, 72, 64
1, 232258, Note_on_c, 2, 72, 123
1, 232258, Note_on_c, 1, 80, 106
1, 232259, Note_on_c, 4, 63, 127
1, 232274, Note_off_c, 1, 78, 64
1, 232358, Note_on_c, 1, 81, 106
1, 232372, Note_off_c, 1, 80, 64
1, 232452, Note_off_c, 1, 81, 64
1, 232464, Note_on_c, 2, 73, 115
1, 232464, Note_on_c, 1, 81, 106
1, 232465, Note_on_c, 4, 64, 127
1, 232478, Note_off_c, 4, 63, 64
1, 232479, Note_off_c, 2, 72, 64
1, 232668, Note_off_c, 1, 81, 64
1, 232700, Note_on_c, 1, 83, 106
1, 232754, Note_on_c, 1, 85, 106
1, 232790, Note_off_c, 1, 83, 64
1, 232808, Note_on_c, 1, 81, 106
1, 232838, Note_off_c, 1, 85, 64
1, 232850, Note_off_c, 2, 73, 64
1, 232856, Note_on_c, 2, 76, 109
1, 232927, Note_off_c, 1, 81, 64
1, 232957, Note_on_c, 1, 81, 106
1, 233057, Note_on_c, 2, 73, 115
1, 233073, Note_off_c, 2, 76, 64
1, 233152, Note_on_c, 1, 78, 106
1, 233167, Note_off_c, 2, 73, 64
1, 233167, Note_off_c, 1, 81, 64
1, 233246, Note_on_c, 2, 76, 109
1, 233262, Note_off_c, 1, 78, 64
1, 233339, Note_on_c, 2, 75, 109
1, 233358, Note_off_c, 2, 76, 64
1, 233446, Note_off_c, 4, 64, 64
1, 233446, Note_on_c, 2, 74, 112
1, 233448, Note_on_c, 4, 62, 127
1, 233448, Note_on_c, 4, 52, 127
1, 233464, Note_off_c, 2, 75, 64
1, 233547, Note_on_c, 2, 71, 124
1, 233565, Note_off_c, 2, 74, 64
1, 233640, Note_off_c, 4, 62, 64
1, 233646, Note_off_c, 2, 71, 64
1, 233658, Note_on_c, 4, 62, 127
1, 233658, Note_on_c, 4, 57, 127
1, 233658, Note_on_c, 2, 71, 124
1, 233674, Note_off_c, 4, 52, 64
1, 234050, Note_off_c, 4, 62, 64
1, 234052, Note_on_c, 2, 69, 127
1, 234054, Note_on_c, 4, 61, 127
1, 234056, Note_off_c, 2, 71, 64
1, 234227, Note_off_c, 4, 57, 64
1, 234244, Note_on_c, 4, 52, 127
1, 234440, Note_on_c, 4, 49, 127
1, 234457, Note_off_c, 4, 52, 64
1, 234634, Note_on_c, 4, 45, 127
1, 234649, Note_off_c, 4, 49, 64
1, 234847, Note_off_c, 2, 69, 64
1, 234848, Note_on_c, 4, 52, 127
1, 234848, Note_on_c, 2, 74, 125
1, 234849, Note_off_c, 4, 61, 64
1, 234864, Note_off_c, 4, 45, 64
1, 235039, Note_on_c, 4, 59, 127
1, 235040, Note_on_c, 4, 56, 127
1, 235084, Note_on_c, 1, 78, 111
1, 235092, Note_off_c, 2, 74, 64
1, 235132, Note_on_c, 2, 76, 115
1, 235160, Note_off_c, 1, 78, 64
1, 235188, Note_on_c, 1, 78, 111
1, 235204, Note_off_c, 2, 76, 64
1, 235217, Note_off_c, 4, 59, 64
1, 235217, Note_off_c, 4, 56, 64
1, 235227, Note_on_c, 2, 74, 116
1, 235229, Note_on_c, 4, 59, 127
1, 235230, Note_on_c, 4, 56, 127
1, 235251, Note_off_c, 1, 78, 64
1, 235280, Note_on_c, 2, 76, 115
1, 235302, Note_off_c, 2, 74, 64
1, 235324, Note_on_c, 2, 73, 121
1, 235343, Note_off_c, 2, 76, 64
1, 235372, Note_on_c, 2, 74, 116
1, 235396, Note_off_c, 2, 73, 64
1, 235418, Note_on_c, 2, 71, 127
1, 235420, Note_on_c, 4, 61, 127
1, 235421, Note_on_c, 4, 57, 127
1, 235437, Note_off_c, 4, 56, 64
1, 235437, Note_off_c, 4, 59, 64
1, 235443, Note_off_c, 2, 74, 64
1, 235470, Note_on_c, 2, 73, 121
1, 235490, Note_off_c, 2, 71, 64
1, 235516, Note_on_c, 2, 69, 127
1, 235537, Note_off_c, 2, 73, 64
1, 235562, Note_on_c, 2, 71, 127
1, 235587, Note_off_c, 2, 69, 64
1, 235608, Note_on_c, 2, 68, 127
1, 235610, Note_on_c, 4, 62, 127
1, 235611, Note_on_c, 4, 59, 127
1, 235627, Note_off_c, 4, 61, 64
1, 235627, Note_off_c, 4, 57, 64
1, 235633, Note_off_c, 2, 71, 64
1, 235785, Note_off_c, 4, 59, 64
1, 235786, Note_off_c, 4, 62, 64
1, 235800, Note_on_c, 4, 62, 127
1, 235800, Note_on_c, 4, 59, 127
1, 235987, Note_off_c, 2, 68, 64
1, 235988, Note_off_c, 4, 52, 64
1, 235988, Note_on_c, 2, 76, 122
1, 235989, Note_on_c, 4, 57, 127
1, 236004, Note_off_c, 4, 59, 64
1, 236004, Note_off_c, 4, 62, 64
1, 236184, Note_on_c, 4, 64, 127
1, 236184, Note_on_c, 4, 61, 127
1, 236200, Note_off_c, 2, 76, 64
1, 236233, Note_on_c, 2, 75, 115
1, 236283, Note_on_c, 1, 78, 111
1, 236314, Note_off_c, 2, 75, 64
1, 236331, Note_on_c, 2, 76, 115
1, 236351, Note_off_c, 1, 78, 64
1, 236363, Note_off_c, 4, 61, 64
1, 236364, Note_off_c, 4, 64, 64
1, 236374, Note_on_c, 1, 81, 111
1, 236376, Note_on_c, 4, 64, 127
1, 236376, Note_on_c, 4, 61, 127
1, 236400, Note_off_c, 2, 76, 64
1, 236417, Note_on_c, 1, 80, 111
1, 236438, Note_off_c, 1, 81, 64
1, 236461, Note_on_c, 1, 83, 110
1, 236482, Note_off_c, 1, 80, 64
1, 236508, Note_on_c, 1, 81, 111
1, 236528, Note_off_c, 1, 83, 64
1, 236552, Note_on_c, 1, 85, 106
1, 236554, Note_on_c, 4, 62, 127
1, 236554, Note_on_c, 4, 59, 127
1, 236568, Note_off_c, 4, 61, 64
1, 236568, Note_off_c, 4, 64, 64
1, 236571, Note_off_c, 1, 81, 64
1, 236596, Note_on_c, 1, 83, 110
1, 236616, Note_off_c, 1, 85, 64
1, 236640, Note_on_c, 1, 86, 106
1, 236659, Note_off_c, 1, 83, 64
1, 236688, Note_on_c, 1, 85, 106
1, 236707, Note_off_c, 1, 86, 64
1, 236732, Note_on_c, 1, 88, 106
1, 236733, Note_on_c, 4, 61, 127
1, 236749, Note_off_c, 4, 59, 64
1, 236749, Note_off_c, 4, 62, 64
1, 236754, Note_off_c, 1, 85, 64
1, 236921, Note_off_c, 4, 57, 64
1, 236922, Note_on_c, 4, 59, 127
1, 236922, Note_on_c, 4, 56, 127
1, 236938, Note_off_c, 4, 61, 64
1, 237109, Note_off_c, 1, 88, 64
1, 237110, Note_on_c, 1, 81, 121
1, 237112, Note_on_c, 4, 54, 127
1, 237128, Note_off_c, 4, 56, 64
1, 237128, Note_off_c, 4, 59, 64
1, 237300, Note_on_c, 4, 61, 127
1, 237301, Note_on_c, 4, 57, 127
1, 237313, Note_off_c, 1, 81, 64
1, 237342, Note_on_c, 1, 85, 106
1, 237396, Note_on_c, 1, 83, 110
1, 237426, Note_off_c, 1, 85, 64
1, 237445, Note_on_c, 1, 85, 106
1, 237474, Note_off_c, 1, 83, 64
1, 237478, Note_off_c, 4, 57, 64
1, 237479, Note_off_c, 4, 61, 64
1, 237491, Note_on_c, 1, 81, 111
1, 237492, Note_on_c, 4, 61, 127
1, 237493, Note_on_c, 4, 57, 127
1, 237522, Note_off_c, 1, 85, 64
1, 237540, Note_on_c, 1, 83, 110
1, 237568, Note_off_c, 1, 81, 64
1, 237586, Note_on_c, 1, 80, 111
1, 237606, Note_off_c, 1, 83, 64
1, 237636, Note_on_c, 1, 81, 111
1, 237656, Note_off_c, 1, 80, 64
1, 237670, Note_off_c, 4, 61, 64
1, 237682, Note_on_c, 1, 78, 111
1, 237684, Note_on_c, 4, 61, 127
1, 237704, Note_off_c, 1, 81, 64
1, 237730, Note_on_c, 1, 80, 111
1, 237750, Note_off_c, 1, 78, 64
1, 237776, Note_on_c, 2, 76, 115
1, 237798, Note_off_c, 1, 80, 64
1, 237824, Note_on_c, 1, 78, 111
1, 237843, Note_off_c, 2, 76, 64
1, 237854, Note_off_c, 4, 61, 64
1, 237858, Note_off_c, 4, 57, 64
1, 237864, Note_on_c, 2, 75, 115
1, 237866, Note_on_c, 4, 59, 127
1, 237866, Note_on_c, 4, 57, 127
1, 237887, Note_off_c, 1, 78, 64
1, 237915, Note_on_c, 2, 76, 115
1, 237937, Note_off_c, 2, 75, 64
1, 237963, Note_on_c, 1, 78, 111
1, 237986, Note_off_c, 2, 76, 64
1, 238011, Note_on_c, 1, 80, 111
1, 238034, Note_off_c, 1, 78, 64
1, 238045, Note_off_c, 4, 57, 64
1, 238046, Note_off_c, 4, 59, 64
1, 238056, Note_on_c, 1, 83, 110
1, 238057, Note_on_c, 4, 59, 127
1, 238057, Note_on_c, 4, 57, 127
1, 238079, Note_off_c, 1, 80, 64
1, 238106, Note_on_c, 1, 80, 111
1, 238125, Note_off_c, 1, 83, 64
1, 238146, Note_on_c, 1, 78, 111
1, 238168, Note_off_c, 1, 80, 64
1, 238192, Note_on_c, 2, 75, 115
1, 238218, Note_off_c, 1, 78, 64
1, 238231, Note_off_c, 4, 57, 64
1, 238231, Note_off_c, 4, 59, 64
1, 238243, Note_on_c, 1, 78, 121
1, 238245, Note_off_c, 4, 54, 64
1, 238246, Note_on_c, 4, 59, 127
1, 238246, Note_on_c, 4, 57, 127
1, 238247, Note_on_c, 4, 52, 127
1, 238274, Note_off_c, 2, 75, 64
1, 238614, Note_on_c, 4, 56, 127
1, 238625, Note_off_c, 4, 57, 64
1, 238703, Note_off_c, 1, 78, 64
1, 238703, Note_on_c, 2, 75, 111
1, 238805, Note_on_c, 2, 76, 111
1, 238824, Note_off_c, 2, 75, 64
1, 238909, Note_on_c, 2, 77, 111
1, 238924, Note_off_c, 2, 76, 64
1, 239003, Note_on_c, 1, 80, 107
1, 239020, Note_off_c, 2, 77, 64
1, 239112, Note_on_c, 1, 78, 107
1, 239128, Note_off_c, 1, 80, 64
1, 239212, Note_on_c, 2, 76, 111
1, 239237, Note_off_c, 1, 78, 64
1, 239324, Note_on_c, 2, 74, 114
1, 239347, Note_off_c, 2, 76, 64
1, 239446, Note_off_c, 4, 52, 64
1, 239446, Note_on_c, 2, 73, 127
1, 239447, Note_off_c, 4, 56, 64
1, 239447, Note_off_c, 4, 59, 64
1, 239448, Note_on_c, 4, 58, 127
1, 239448, Note_on_c, 2, 67, 127
1, 239460, Note_off_c, 2, 74, 64
1, 239713, Note_off_c, 2, 73, 64
1, 239735, Note_on_c, 2, 74, 114
1, 239775, Note_on_c, 2, 73, 117
1, 239796, Note_off_c, 2, 74, 64
1, 239811, Note_on_c, 2, 71, 126
1, 239834, Note_off_c, 2, 73, 64
1, 239848, Note_on_c, 2, 73, 117
1, 239869, Note_off_c, 2, 71, 64
1, 239882, Note_on_c, 2, 76, 111
1, 239884, Note_off_c, 4, 58, 64
1, 239885, Note_off_c, 2, 67, 64
1, 239885, Note_on_c, 2, 66, 127
1, 239886, Note_on_c, 4, 59, 127
1, 239894, Note_off_c, 2, 73, 64
1, 240071, Note_on_c, 2, 74, 114
1, 240086, Note_off_c, 2, 76, 64
1, 240261, Note_on_c, 2, 71, 126
1, 240263, Note_off_c, 4, 59, 64
1, 240263, Note_on_c, 4, 62, 127
1, 240264, Note_off_c, 2, 66, 64
1, 240264, Note_on_c, 4, 65, 127
1, 240278, Note_off_c, 2, 74, 64
1, 240460, Note_on_c, 2, 68, 127
1, 240478, Note_off_c, 2, 71, 64
1, 240648, Note_on_c, 2, 69, 127
1, 240649, Note_off_c, 4, 62, 64
1, 240649, Note_on_c, 4, 61, 127
1, 240652, Note_off_c, 4, 65, 64
1, 240653, Note_on_c, 4, 64, 127
1, 240665, Note_off_c, 2, 68, 64
1, 240917, Note_off_c, 2, 69, 64
1, 240932, Note_on_c, 2, 73, 117
1, 240988, Note_on_c, 2, 69, 127
1, 241032, Note_on_c, 1, 79, 121
1, 241047, Note_off_c, 2, 73, 64
1, 241101, Note_off_c, 2, 69, 64
1, 241225, Note_off_c, 4, 61, 64
1, 241228, Note_off_c, 4, 64, 64
1, 241239, Note_on_c, 2, 70, 127
1, 241241, Note_on_c, 4, 61, 127
1, 241436, Note_on_c, 2, 71, 126
1, 241438, Note_on_c, 4, 62, 127
1, 241440, Note_off_c, 2, 70, 64
1, 241441, Note_off_c, 4, 61, 64
1, 241636, Note_on_c, 2, 73, 117
1, 241638, Note_on_c, 4, 64, 127
1, 241640, Note_off_c, 2, 71, 64
1, 241642, Note_off_c, 4, 62, 64
1, 241816, Note_off_c, 1, 79, 64
1, 241820, Note_off_c, 2, 73, 64
1, 241828, Note_on_c, 2, 77, 111
1, 241832, Note_on_c, 2, 74, 114
1, 241834, Note_on_c, 4, 62, 127
1, 241836, Note_off_c, 4, 64, 64
1, 241893, Note_on_c, 1, 78, 107
1, 241905, Note_off_c, 2, 77, 64
1, 241939, Note_on_c, 1, 80, 107
1, 241946, Note_off_c, 2, 74, 64
1, 241956, Note_off_c, 1, 78, 64
1, 241993, Note_on_c, 1, 78, 107
1, 242007, Note_off_c, 1, 80, 64
1, 242037, Note_on_c, 2, 76, 111
1, 242055, Note_off_c, 1, 78, 64
1, 242087, Note_on_c, 2, 74, 114
1, 242101, Note_off_c, 2, 76, 64
1, 242134, Note_on_c, 2, 73, 117
1, 242151, Note_off_c, 2, 74, 64
1, 242182, Note_on_c, 2, 71, 126
1, 242202, Note_off_c, 2, 73, 64
1, 242238, Note_on_c, 2, 69, 127
1, 242240, Note_on_c, 4, 61, 127
1, 242240, Note_on_c, 4, 52, 127
1, 242241, Note_off_c, 4, 62, 64
1, 242256, Note_off_c, 2, 71, 64
1, 242350, Note_on_c, 2, 73, 117
1, 242369, Note_off_c, 2, 69, 64
1, 242467, Note_on_c, 2, 76, 122
1, 242484, Note_off_c, 2, 73, 64
1, 242648, Note_off_c, 4, 52, 64
1, 242648, Note_off_c, 4, 61, 64
1, 242654, Note_on_c, 4, 62, 127
1, 242655, Note_on_c, 4, 52, 127
1, 242752, Note_off_c, 2, 76, 64
1, 242752, Note_on_c, 4, 64, 127
1, 242858, Note_on_c, 2, 66, 127
1, 242879, Note_off_c, 4, 64, 64
1, 242973, Note_on_c, 2, 68, 127
1, 242992, Note_off_c, 2, 66, 64
1, 243077, Note_off_c, 4, 62, 64
1, 243077, Note_off_c, 4, 52, 64
1, 243084, Note_off_c, 2, 68, 64
1, 243084, Note_on_c, 4, 45, 127
1, 243084, Note_on_c, 2, 69, 127
1, 243180, Note_on_c, 4, 61, 127
1, 243181, Note_on_c, 4, 57, 127
1, 243272, Note_off_c, 4, 57, 64
1, 243272, Note_off_c, 4, 61, 64
1, 243280, Note_on_c, 4, 61, 127
1, 243281, Note_on_c, 4, 57, 127
1, 243372, Note_off_c, 4, 61, 64
1, 243372, Note_off_c, 4, 57, 64
1, 243382, Note_on_c, 4, 61, 127
1, 243383, Note_on_c, 4, 57, 127
1, 243471, Note_off_c, 4, 57, 64
1, 243472, Note_off_c, 4, 61, 64
1, 243482, Note_on_c, 4, 61, 127
1, 243482, Note_on_c, 4, 57, 127
1, 243562, Note_off_c, 4, 57, 64
1, 243562, Note_off_c, 4, 61, 64
1, 243571, Note_off_c, 2, 69, 64
1, 243571, Note_on_c, 1, 81, 121
1, 243573, Note_on_c, 4, 61, 127
1, 243574, Note_on_c, 4, 57, 127
1, 243664, Note_off_c, 4, 57, 64
1, 243665, Note_off_c, 4, 61, 64
1, 243673, Note_on_c, 1, 85, 120
1, 243675, Note_on_c, 4, 61, 127
1, 243675, Note_on_c, 4, 57, 127
1, 243690, Note_off_c, 1, 81, 64
1, 243755, Note_off_c, 4, 57, 64
1, 243755, Note_off_c, 4, 61, 64
1, 243762, Note_on_c, 2, 76, 124
1, 243764, Note_on_c, 4, 61, 127
1, 243764, Note_on_c, 4, 57, 127
1, 243778, Note_off_c, 1, 85, 64
1, 243851, Note_off_c, 4, 57, 64
1, 243851, Note_off_c, 4, 61, 64
1, 243860, Note_on_c, 2, 77, 124
1, 243860, Note_on_c, 4, 62, 127
1, 243861, Note_on_c, 4, 57, 127
1, 243875, Note_off_c, 2, 76, 64
1, 243946, Note_off_c, 4, 57, 64
1, 243946, Note_off_c, 4, 62, 64
1, 243953, Note_on_c, 1, 78, 121
1, 243955, Note_on_c, 4, 62, 127
1, 243955, Note_on_c, 4, 57, 127
1, 243967, Note_off_c, 2, 77, 64
1, 244040, Note_off_c, 4, 57, 64
1, 244041, Note_off_c, 4, 62, 64
1, 244049, Note_on_c, 4, 62, 127
1, 244049, Note_on_c, 1, 81, 121
1, 244050, Note_on_c, 4, 57, 127
1, 244063, Note_off_c, 1, 78, 64
1, 244138, Note_off_c, 4, 57, 64
1, 244139, Note_off_c, 4, 62, 64
1, 244147, Note_on_c, 4, 62, 127
1, 244147, Note_on_c, 1, 78, 121
1, 244148, Note_on_c, 4, 57, 127
1, 244164, Note_off_c, 1, 81, 64
1, 244239, Note_off_c, 4, 45, 64
1, 244258, Note_on_c, 2, 75, 127
1, 244260, Note_on_c, 4, 45, 127
1, 244275, Note_off_c, 1, 78, 64
1, 244350, Note_off_c, 4, 57, 64
1, 244351, Note_off_c, 4, 62, 64
1, 244363, Note_on_c, 4, 61, 127
1, 244363, Note_on_c, 4, 57, 127
1, 244448, Note_off_c, 4, 57, 64
1, 244449, Note_off_c, 4, 61, 64
1, 244457, Note_on_c, 2, 76, 127
1, 244459, Note_on_c, 4, 61, 127
1, 244459, Note_on_c, 4, 57, 127
1, 244473, Note_off_c, 2, 75, 64
1, 244544, Note_off_c, 4, 57, 64
1, 244545, Note_off_c, 4, 61, 64
1, 244553, Note_on_c, 4, 61, 127
1, 244553, Note_on_c, 4, 57, 127
1, 244638, Note_off_c, 4, 57, 64
1, 244639, Note_off_c, 4, 61, 64
1, 244647, Note_on_c, 4, 61, 127
1, 244647, Note_on_c, 4, 57, 127
1, 244661, Note_off_c, 2, 76, 64
1, 244727, Note_off_c, 4, 57, 64
1, 244727, Note_off_c, 4, 61, 64
1, 244735, Note_on_c, 1, 81, 121
1, 244737, Note_on_c, 4, 61, 127
1, 244738, Note_on_c, 4, 57, 127
1, 244828, Note_off_c, 4, 57, 64
1, 244829, Note_off_c, 4, 61, 64
1, 244837, Note_on_c, 1, 85, 120
1, 244837, Note_on_c, 4, 61, 127
1, 244838, Note_on_c, 4, 57, 127
1, 244853, Note_off_c, 1, 81, 64
1, 244920, Note_off_c, 4, 57, 64
1, 244921, Note_off_c, 4, 61, 64
1, 244927, Note_on_c, 2, 76, 124
1, 244929, Note_on_c, 4, 61, 127
1, 244930, Note_on_c, 4, 57, 127
1, 244944, Note_off_c, 1, 85, 64
1, 245014, Note_off_c, 4, 57, 64
1, 245014, Note_off_c, 4, 61, 64
1, 245022, Note_on_c, 2, 77, 124
1, 245024, Note_on_c, 4, 62, 127
1, 245025, Note_on_c, 4, 57, 127
1, 245040, Note_off_c, 2, 76, 64
1, 245113, Note_off_c, 4, 57, 64
1, 245114, Note_off_c, 4, 62, 64
1, 245122, Note_on_c, 1, 78, 121
1, 245124, Note_on_c, 4, 62, 127
1, 245124, Note_on_c, 4, 57, 127
1, 245138, Note_off_c, 2, 77, 64
1, 245204, Note_off_c, 4, 57, 64
1, 245204, Note_off_c, 4, 62, 64
1, 245210, Note_on_c, 1, 81, 121
1, 245212, Note_on_c, 4, 62, 127
1, 245213, Note_on_c, 4, 57, 127
1, 245227, Note_off_c, 1, 78, 64
1, 245304, Note_off_c, 4, 62, 64
1, 245304, Note_off_c, 4, 57, 64
1, 245312, Note_on_c, 1, 78, 121
1, 245313, Note_on_c, 4, 62, 127
1, 245313, Note_on_c, 4, 57, 127
1, 245317, Note_off_c, 1, 81, 64
1, 245402, Note_off_c, 4, 57, 64
1, 245403, Note_off_c, 4, 62, 64
1, 245411, Note_on_c, 2, 75, 124
1, 245412, Note_off_c, 4, 45, 64
1, 245412, Note_on_c, 4, 61, 127
1, 245412, Note_on_c, 4, 57, 127
1, 245415, Note_off_c, 1, 78, 64
1, 245458, Note_on_c, 2, 76, 124
1, 245469, Note_off_c, 2, 75, 64
1, 245500, Note_on_c, 1, 78, 121
1, 245517, Note_off_c, 2, 76, 64
1, 245548, Note_on_c, 2, 76, 124
1, 245563, Note_off_c, 1, 78, 64
1, 245594, Note_on_c, 2, 74, 127
1, 245608, Note_off_c, 2, 76, 64
1, 245640, Note_on_c, 2, 73, 127
1, 245654, Note_off_c, 2, 74, 64
1, 245688, Note_on_c, 2, 71, 127
1, 245702, Note_off_c, 2, 73, 64
1, 245736, Note_on_c, 2, 69, 127
1, 245751, Note_off_c, 2, 71, 64
1, 245786, Note_on_c, 4, 64, 127
1, 245786, Note_on_c, 2, 73, 127
1, 245787, Note_off_c, 4, 57, 64
1, 245787, Note_off_c, 4, 61, 64
1, 245787, Note_on_c, 4, 52, 127
1, 245800, Note_off_c, 2, 69, 64
1, 246113, Note_off_c, 2, 73, 64
1, 246157, Note_off_c, 4, 52, 64
1, 246171, Note_off_c, 4, 64, 64
1, 246171, Note_on_c, 2, 73, 127
1, 246172, Note_on_c, 4, 62, 127
1, 246172, Note_on_c, 4, 52, 127
1, 246205, Note_on_c, 2, 71, 127
1, 246217, Note_off_c, 2, 73, 64
1, 246242, Note_on_c, 2, 73, 127
1, 246253, Note_off_c, 2, 71, 64
1, 246276, Note_on_c, 2, 71, 127
1, 246288, Note_off_c, 2, 73, 64
1, 246309, Note_on_c, 2, 69, 127
1, 246317, Note_off_c, 2, 71, 64
1, 246403, Note_on_c, 2, 71, 127
1, 246419, Note_off_c, 2, 69, 64
1, 246545, Note_on_c, 2, 73, 127
1, 246578, Note_off_c, 2, 71, 64
1, 246593, Note_off_c, 4, 52, 64
1, 246594, Note_on_c, 4, 45, 127
1, 246594, Note_on_c, 2, 69, 127
1, 246632, Note_off_c, 2, 73, 64
1, 246688, Note_off_c, 4, 62, 64
1, 246690, Note_on_c, 4, 61, 127
1, 246691, Note_on_c, 4, 57, 127
1, 246778, Note_off_c, 4, 61, 64
1, 246778, Note_off_c, 4, 57, 64
1, 246787, Note_on_c, 4, 61, 127
1, 246787, Note_on_c, 4, 57, 127
1, 246875, Note_off_c, 4, 57, 64
1, 246875, Note_off_c, 4, 61, 64
1, 246884, Note_on_c, 4, 61, 127
1, 246885, Note_on_c, 4, 57, 127
1, 246972, Note_off_c, 4, 57, 64
1, 246973, Note_off_c, 4, 61, 64
1, 246981, Note_on_c, 4, 61, 127
1, 246982, Note_on_c, 4, 57, 127
1, 247065, Note_off_c, 4, 57, 64
1, 247065, Note_off_c, 4, 61, 64
1, 247073, Note_on_c, 1, 81, 121
1, 247075, Note_on_c, 4, 61, 127
1, 247076, Note_on_c, 4, 57, 127
1, 247159, Note_off_c, 4, 57, 64
1, 247159, Note_off_c, 4, 61, 64
1, 247167, Note_on_c, 1, 85, 120
1, 247169, Note_on_c, 4, 61, 127
1, 247170, Note_on_c, 4, 57, 127
1, 247184, Note_off_c, 1, 81, 64
1, 247234, Note_off_c, 2, 69, 64
1, 247257, Note_off_c, 4, 61, 64
1, 247257, Note_off_c, 4, 57, 64
1, 247263, Note_on_c, 2, 76, 124
1, 247265, Note_on_c, 4, 61, 127
1, 247266, Note_on_c, 4, 57, 127
1, 247280, Note_off_c, 1, 85, 64
1, 247347, Note_off_c, 4, 57, 64
1, 247347, Note_off_c, 4, 61, 64
1, 247354, Note_on_c, 2, 77, 124
1, 247356, Note_on_c, 4, 62, 127
1, 247356, Note_on_c, 4, 57, 127
1, 247370, Note_off_c, 2, 76, 64
1, 247439, Note_off_c, 4, 57, 64
1, 247440, Note_off_c, 4, 62, 64
1, 247446, Note_on_c, 1, 78, 121
1, 247450, Note_on_c, 4, 62, 127
1, 247450, Note_on_c, 4, 57, 127
1, 247464, Note_off_c, 2, 77, 64
1, 247539, Note_off_c, 4, 57, 64
1, 247539, Note_off_c, 4, 62, 64
1, 247546, Note_on_c, 1, 81, 121
1, 247548, Note_on_c, 4, 62, 127
1, 247548, Note_on_c, 4, 57, 127
1, 247562, Note_off_c, 1, 78, 64
1, 247635, Note_off_c, 4, 57, 64
1, 247635, Note_off_c, 4, 62, 64
1, 247642, Note_on_c, 1, 78, 121
1, 247644, Note_on_c, 4, 62, 127
1, 247644, Note_on_c, 4, 57, 127
1, 247658, Note_off_c, 1, 81, 64
1, 247727, Note_off_c, 4, 45, 64
1, 247744, Note_on_c, 2, 75, 127
1, 247746, Note_on_c, 4, 45, 127
1, 247760, Note_off_c, 1, 78, 64
1, 247827, Note_off_c, 4, 57, 64
1, 247827, Note_off_c, 4, 62, 64
1, 247842, Note_on_c, 4, 61, 127
1, 247842, Note_on_c, 4, 57, 127
1, 247927, Note_off_c, 4, 57, 64
1, 247927, Note_off_c, 4, 61, 64
1, 247934, Note_on_c, 2, 76, 127
1, 247935, Note_on_c, 4, 61, 127
1, 247936, Note_on_c, 4, 57, 127
1, 247950, Note_off_c, 2, 75, 64
1, 248021, Note_off_c, 4, 57, 64
1, 248021, Note_off_c, 4, 61, 64
1, 248030, Note_on_c, 4, 61, 127
1, 248030, Note_on_c, 4, 57, 127
1, 248115, Note_off_c, 4, 57, 64
1, 248115, Note_off_c, 4, 61, 64
1, 248125, Note_on_c, 4, 61, 127
1, 248126, Note_on_c, 4, 57, 127
1, 248140, Note_off_c, 2, 76, 64
1, 248211, Note_off_c, 4, 61, 64
1, 248211, Note_off_c, 4, 57, 64
1, 248218, Note_on_c, 1, 81, 121
1, 248220, Note_on_c, 4, 61, 127
1, 248220, Note_on_c, 4, 57, 127
1, 248303, Note_off_c, 4, 57, 64
1, 248304, Note_off_c, 4, 61, 64
1, 248312, Note_on_c, 1, 85, 120
1, 248314, Note_on_c, 4, 61, 127
1, 248314, Note_on_c, 4, 57, 127
1, 248328, Note_off_c, 1, 81, 64
1, 248401, Note_off_c, 4, 57, 64
1, 248401, Note_off_c, 4, 61, 64
1, 248410, Note_on_c, 2, 76, 124
1, 248411, Note_on_c, 4, 61, 127
1, 248411, Note_on_c, 4, 57, 127
1, 248424, Note_off_c, 1, 85, 64
1, 248497, Note_off_c, 4, 57, 64
1, 248497, Note_off_c, 4, 61, 64
1, 248506, Note_on_c, 2, 77, 124
1, 248508, Note_on_c, 4, 62, 127
1, 248508, Note_on_c, 4, 57, 127
1, 248522, Note_off_c, 2, 76, 64
1, 248593, Note_off_c, 4, 57, 64
1, 248593, Note_off_c, 4, 62, 64
1, 248602, Note_on_c, 1, 78, 121
1, 248604, Note_on_c, 4, 62, 127
1, 248604, Note_on_c, 4, 57, 127
1, 248618, Note_off_c, 2, 77, 64
1, 248686, Note_off_c, 4, 57, 64
1, 248686, Note_off_c, 4, 62, 64
1, 248692, Note_on_c, 1, 81, 121
1, 248694, Note_on_c, 4, 62, 127
1, 248695, Note_on_c, 4, 57, 127
1, 248707, Note_off_c, 1, 78, 64
1, 248778, Note_off_c, 4, 57, 64
1, 248778, Note_off_c, 4, 62, 64
1, 248784, Note_on_c, 1, 78, 121
1, 248786, Note_on_c, 4, 62, 127
1, 248787, Note_on_c, 4, 57, 127
1, 248801, Note_off_c, 1, 81, 64
1, 248876, Note_off_c, 4, 57, 64
1, 248876, Note_off_c, 4, 62, 64
1, 248884, Note_on_c, 2, 75, 124
1, 248886, Note_off_c, 4, 45, 64
1, 248887, Note_on_c, 4, 61, 127
1, 248887, Note_on_c, 4, 57, 127
1, 248901, Note_off_c, 1, 78, 64
1, 248933, Note_on_c, 2, 76, 124
1, 248956, Note_off_c, 2, 75, 64
1, 248977, Note_on_c, 1, 78, 121
1, 248999, Note_off_c, 2, 76, 64
1, 249031, Note_on_c, 2, 76, 124
1, 249052, Note_off_c, 1, 78, 64
1, 249075, Note_on_c, 2, 74, 127
1, 249098, Note_off_c, 2, 76, 64
1, 249123, Note_on_c, 2, 73, 127
1, 249148, Note_off_c, 2, 74, 64
1, 249175, Note_on_c, 2, 71, 127
1, 249198, Note_off_c, 2, 73, 64
1, 249223, Note_on_c, 2, 69, 127
1, 249246, Note_off_c, 2, 71, 64
1, 249271, Note_on_c, 2, 73, 127
1, 249272, Note_on_c, 4, 64, 127
1, 249272, Note_on_c, 4, 52, 127
1, 249273, Note_off_c, 4, 57, 64
1, 249273, Note_off_c, 4, 61, 64
1, 249292, Note_off_c, 2, 69, 64
1, 249584, Note_off_c, 2, 73, 64
1, 249634, Note_off_c, 4, 52, 64
1, 249644, Note_off_c, 4, 64, 64
1, 249644, Note_on_c, 2, 73, 120
1, 249645, Note_on_c, 4, 62, 127
1, 249645, Note_on_c, 4, 52, 127
1, 249678, Note_on_c, 2, 71, 127
1, 249690, Note_off_c, 2, 73, 64
1, 249715, Note_on_c, 2, 73, 120
1, 249726, Note_off_c, 2, 71, 64
1, 249749, Note_on_c, 2, 71, 127
1, 249761, Note_off_c, 2, 73, 64
1, 249782, Note_on_c, 2, 69, 127
1, 249790, Note_off_c, 2, 71, 64
1, 249878, Note_on_c, 2, 71, 127
1, 249891, Note_off_c, 2, 69, 64
1, 249987, Note_off_c, 2, 71, 64
1, 250016, Note_on_c, 2, 73, 120
1, 250060, Note_off_c, 4, 52, 64
1, 250061, Note_off_c, 4, 62, 64
1, 250061, Note_on_c, 2, 69, 127
1, 250062, Note_on_c, 4, 61, 127
1, 250062, Note_on_c, 4, 57, 127
1, 250091, Note_off_c, 2, 73, 64
1, 250124, Note_on_c, 4, 64, 127
1, 250141, Note_off_c, 2, 69, 64
1, 250176, Note_on_c, 2, 66, 127
1, 250199, Note_off_c, 4, 64, 64
1, 250226, Note_on_c, 2, 68, 127
1, 250243, Note_off_c, 2, 66, 64
1, 250276, Note_on_c, 2, 69, 127
1, 250293, Note_off_c, 2, 68, 64
1, 250324, Note_on_c, 2, 71, 127
1, 250339, Note_off_c, 2, 69, 64
1, 250370, Note_on_c, 2, 73, 120
1, 250386, Note_off_c, 2, 71, 64
1, 250414, Note_on_c, 2, 74, 117
1, 250431, Note_off_c, 2, 73, 64
1, 250458, Note_off_c, 4, 57, 64
1, 250459, Note_on_c, 2, 76, 114
1, 250470, Note_off_c, 4, 61, 64
1, 250476, Note_off_c, 2, 74, 64
1, 250505, Note_on_c, 1, 78, 111
1, 250521, Note_off_c, 2, 76, 64
1, 250550, Note_on_c, 1, 80, 111
1, 250567, Note_off_c, 1, 78, 64
1, 250596, Note_on_c, 1, 81, 111
1, 250614, Note_off_c, 1, 80, 64
1, 250646, Note_on_c, 1, 82, 110
1, 250662, Note_off_c, 1, 81, 64
1, 250692, Note_on_c, 1, 83, 110
1, 250710, Note_off_c, 1, 82, 64
1, 250744, Note_on_c, 1, 84, 110
1, 250766, Note_off_c, 1, 83, 64
1, 250806, Note_on_c, 1, 85, 110
1, 250832, Note_off_c, 1, 84, 64
1, 250877, Note_on_c, 1, 86, 110
1, 250893, Note_off_c, 1, 85, 64
1, 251078, Note_on_c, 1, 80, 111
1, 251079, Note_on_c, 4, 64, 114
1, 251079, Note_on_c, 2, 74, 105
1, 251095, Note_off_c, 1, 86, 64
1, 251273, Note_on_c, 1, 81, 111
1, 251274, Note_on_c, 2, 69, 127
1, 251274, Note_on_c, 2, 73, 120
1, 251292, Note_off_c, 1, 80, 64
1, 251292, Note_off_c, 2, 74, 64
1, 251292, Note_off_c, 4, 64, 64
1, 251317, Note_on_c, 1, 85, 110
1, 251337, Note_off_c, 1, 81, 64
1, 251371, Note_on_c, 1, 81, 111
1, 251392, Note_off_c, 1, 85, 64
1, 251413, Note_on_c, 1, 80, 111
1, 251433, Note_off_c, 1, 81, 64
1, 251456, Note_on_c, 1, 78, 111
1, 251471, Note_off_c, 2, 73, 64
1, 251477, Note_off_c, 1, 80, 64
1, 251502, Note_on_c, 2, 76, 114
1, 251518, Note_off_c, 1, 78, 64
1, 251531, Note_off_c, 2, 69, 64
1, 251548, Note_on_c, 2, 74, 117
1, 251564, Note_off_c, 2, 76, 64
1, 251596, Note_on_c, 2, 73, 120
1, 251612, Note_off_c, 2, 74, 64
1, 251642, Note_on_c, 2, 71, 127
1, 251658, Note_off_c, 2, 73, 64
1, 251690, Note_on_c, 2, 69, 127
1, 251706, Note_off_c, 2, 71, 64
1, 251736, Note_on_c, 3, 68, 127
1, 251752, Note_off_c, 2, 69, 64
1, 251784, Note_on_c, 3, 67, 127
1, 251800, Note_off_c, 3, 68, 64
1, 251834, Note_on_c, 3, 66, 127
1, 251850, Note_off_c, 3, 67, 64
1, 251880, Note_on_c, 3, 65, 127
1, 251899, Note_off_c, 3, 66, 64
1, 251934, Note_on_c, 3, 64, 127
1, 251944, Note_off_c, 3, 65, 64
1, 251988, Note_on_c, 3, 63, 127
1, 251995, Note_off_c, 3, 64, 64
1, 252060, Note_off_c, 3, 63, 64
1, 252064, Note_on_c, 4, 62, 127
1, 252356, Note_on_c, 4, 56, 127
1, 252357, Note_on_c, 4, 50, 127
1, 252357, Note_on_c, 4, 40, 127
1, 252378, Note_off_c, 4, 62, 64
1, 252645, Note_off_c, 4, 50, 64
1, 252672, Note_on_c, 4, 59, 127
1, 252672, Note_on_c, 4, 50, 127
1, 252673, Note_on_c, 4, 45, 127
1, 252696, Note_off_c, 4, 56, 64
1, 252696, Note_off_c, 4, 40, 64
1, 253323, Note_off_c, 4, 50, 64
1, 253324, Note_off_c, 4, 59, 64
1, 253324, Note_on_c, 4, 57, 127
1, 253325, Note_on_c, 4, 49, 127
1, 255593, Note_off_c, 4, 57, 64
1, 255593, Note_off_c, 4, 49, 64
1, 255718, Note_off_c, 4, 45, 64
1, 255859, Note_on_c, 3, 74, 111
1, 256004, Note_on_c, 3, 69, 124
1, 256005, Note_on_c, 3, 66, 125
1, 256076, Note_off_c, 3, 74, 64
1, 256077, Note_on_c, 2, 76, 108
1, 256112, Note_on_c, 3, 74, 111
1, 256125, Note_off_c, 2, 76, 64
1, 256137, Note_off_c, 3, 69, 64
1, 256137, Note_off_c, 3, 66, 64
1, 256147, Note_on_c, 3, 73, 114
1, 256149, Note_on_c, 3, 69, 124
1, 256150, Note_on_c, 3, 66, 125
1, 256160, Note_off_c, 3, 74, 64
1, 256281, Note_off_c, 3, 66, 64
1, 256281, Note_off_c, 3, 69, 64
1, 256289, Note_off_c, 3, 73, 64
1, 256290, Note_on_c, 3, 74, 115
1, 256292, Note_on_c, 3, 69, 124
1, 256293, Note_on_c, 3, 66, 125
1, 256431, Note_off_c, 3, 74, 64
1, 256432, Note_on_c, 3, 75, 112
1, 256492, Note_off_c, 3, 66, 64
1, 256493, Note_off_c, 3, 69, 64
1, 256576, Note_off_c, 3, 75, 64
1, 256577, Note_on_c, 2, 76, 112
1, 256577, Note_on_c, 3, 71, 123
1, 256578, Note_on_c, 3, 67, 125
1, 256711, Note_off_c, 3, 67, 64
1, 256711, Note_off_c, 3, 71, 64
1, 256712, Note_off_c, 2, 76, 64
1, 256721, Note_on_c, 2, 76, 112
1, 256722, Note_on_c, 3, 71, 123
1, 256722, Note_on_c, 3, 67, 125
1, 256851, Note_off_c, 3, 67, 64
1, 256851, Note_off_c, 3, 71, 64
1, 256861, Note_on_c, 3, 71, 123
1, 256862, Note_on_c, 3, 67, 125
1, 256995, Note_off_c, 2, 76, 64
1, 257003, Note_on_c, 2, 76, 112
1, 257062, Note_off_c, 3, 67, 64
1, 257063, Note_off_c, 3, 71, 64
1, 257149, Note_on_c, 3, 69, 124
1, 257150, Note_on_c, 4, 61, 126
1, 257218, Note_off_c, 2, 76, 64
1, 257218, Note_on_c, 1, 78, 109
1, 257254, Note_on_c, 2, 76, 112
1, 257265, Note_off_c, 1, 78, 64
1, 257278, Note_off_c, 4, 61, 64
1, 257279, Note_off_c, 3, 69, 64
1, 257289, Note_on_c, 3, 74, 111
1, 257289, Note_on_c, 3, 69, 124
1, 257290, Note_off_c, 2, 76, 64
1, 257290, Note_on_c, 4, 61, 126
1, 257421, Note_off_c, 4, 61, 64
1, 257422, Note_off_c, 3, 69, 64
1, 257432, Note_off_c, 3, 74, 64
1, 257433, Note_on_c, 4, 61, 126
1, 257433, Note_on_c, 3, 69, 124
1, 257433, Note_on_c, 2, 76, 112
1, 257572, Note_off_c, 2, 76, 64
1, 257573, Note_on_c, 2, 77, 112
1, 257711, Note_off_c, 4, 61, 64
1, 257712, Note_off_c, 3, 69, 64
1, 257716, Note_off_c, 2, 77, 64
1, 257717, Note_on_c, 3, 69, 124
1, 257717, Note_on_c, 1, 78, 109
1, 257718, Note_on_c, 4, 62, 125
1, 257846, Note_off_c, 1, 78, 64
1, 257847, Note_off_c, 3, 69, 64
1, 257847, Note_off_c, 4, 62, 64
1, 257857, Note_on_c, 1, 78, 105
1, 257858, Note_on_c, 3, 69, 124
1, 257858, Note_on_c, 4, 62, 125
1, 257987, Note_off_c, 4, 62, 64
1, 257987, Note_off_c, 3, 69, 64
1, 257998, Note_on_c, 4, 62, 125
1, 257998, Note_on_c, 3, 69, 124
1, 258128, Note_off_c, 3, 69, 64
1, 258128, Note_off_c, 4, 62, 64
1, 258131, Note_off_c, 1, 78, 64
1, 258139, Note_on_c, 3, 69, 124
1, 258139, Note_on_c, 1, 81, 105
1, 258140, Note_on_c, 3, 66, 125
1, 258247, Note_on_c, 1, 83, 105
1, 258259, Note_off_c, 1, 81, 64
1, 258283, Note_on_c, 1, 79, 105
1, 258283, Note_on_c, 4, 64, 125
1, 258295, Note_off_c, 1, 83, 64
1, 258296, Note_off_c, 3, 66, 64
1, 258392, Note_on_c, 1, 81, 105
1, 258406, Note_off_c, 1, 79, 64
1, 258430, Note_on_c, 4, 62, 125
1, 258430, Note_on_c, 1, 78, 105
1, 258440, Note_off_c, 1, 81, 64
1, 258441, Note_off_c, 4, 64, 64
1, 258572, Note_on_c, 3, 74, 127
1, 258583, Note_off_c, 1, 78, 64
1, 258705, Note_off_c, 3, 69, 64
1, 258714, Note_off_c, 4, 62, 64
1, 258714, Note_on_c, 1, 79, 105
1, 258717, Note_on_c, 3, 69, 124
1, 258717, Note_on_c, 4, 64, 125
1, 258727, Note_off_c, 3, 74, 64
1, 258823, Note_on_c, 1, 81, 105
1, 258850, Note_off_c, 1, 79, 64
1, 258860, Note_on_c, 3, 66, 125
1, 258860, Note_on_c, 1, 78, 105
1, 258872, Note_off_c, 1, 81, 64
1, 258875, Note_off_c, 4, 64, 64
1, 258970, Note_on_c, 1, 79, 98
1, 258994, Note_off_c, 1, 78, 64
1, 259006, Note_on_c, 3, 67, 125
1, 259006, Note_on_c, 2, 76, 104
1, 259018, Note_off_c, 1, 79, 64
1, 259019, Note_off_c, 3, 66, 64
1, 259150, Note_off_c, 2, 76, 64
1, 259150, Note_on_c, 3, 73, 110
1, 259280, Note_off_c, 3, 69, 64
1, 259290, Note_off_c, 3, 73, 64
1, 259291, Note_off_c, 3, 67, 64
1, 259291, Note_on_c, 3, 69, 124
1, 259291, Note_on_c, 3, 74, 107
1, 259292, Note_on_c, 3, 66, 125
1, 259424, Note_off_c, 3, 74, 64
1, 259436, Note_on_c, 3, 74, 107
1, 259581, Note_off_c, 3, 74, 64
1, 259582, Note_off_c, 3, 69, 64
1, 259582, Note_off_c, 3, 66, 64
1, 259583, Note_on_c, 4, 64, 125
1, 259583, Note_on_c, 3, 73, 110
1, 259583, Note_on_c, 3, 69, 124
1, 259712, Note_off_c, 3, 73, 64
1, 259722, Note_on_c, 3, 73, 110
1, 259853, Note_off_c, 3, 73, 64
1, 259864, Note_off_c, 4, 64, 64
1, 259865, Note_off_c, 3, 69, 64
1, 259865, Note_on_c, 4, 62, 125
1, 259865, Note_on_c, 3, 73, 110
1, 259866, Note_on_c, 4, 52, 126
1, 259883, Note_on_c, 3, 71, 120
1, 259916, Note_off_c, 3, 73, 64
1, 259992, Note_on_c, 3, 69, 124
1, 259998, Note_off_c, 3, 71, 64
1, 260019, Note_on_c, 3, 71, 120
1, 260052, Note_off_c, 3, 69, 64
1, 260132, Note_on_c, 3, 73, 113
1, 260145, Note_off_c, 3, 71, 64
1, 260172, Note_off_c, 4, 62, 64
1, 260172, Note_off_c, 4, 52, 64
1, 260172, Note_on_c, 3, 69, 124
1, 260173, Note_on_c, 4, 61, 126
1, 260173, Note_on_c, 4, 57, 126
1, 260185, Note_off_c, 3, 73, 64
1, 260459, Note_off_c, 4, 57, 64
1, 260459, Note_off_c, 4, 61, 64
1, 260460, Note_off_c, 3, 69, 64
1, 260460, Note_on_c, 3, 74, 120
1, 260460, Note_on_c, 4, 62, 125
1, 260514, Note_on_c, 4, 64, 125
1, 260520, Note_off_c, 4, 62, 64
1, 260547, Note_on_c, 3, 66, 125
1, 260568, Note_off_c, 4, 64, 64
1, 260599, Note_on_c, 4, 64, 125
1, 260604, Note_off_c, 3, 66, 64
1, 260651, Note_on_c, 4, 62, 125
1, 260658, Note_off_c, 4, 64, 64
1, 260670, Note_off_c, 3, 74, 64
1, 260670, Note_on_c, 2, 76, 117
1, 260690, Note_on_c, 4, 61, 126
1, 260709, Note_on_c, 3, 74, 120
1, 260717, Note_off_c, 4, 62, 64
1, 260723, Note_off_c, 2, 76, 64
1, 260748, Note_on_c, 3, 73, 123
1, 260749, Note_on_c, 4, 59, 126
1, 260755, Note_off_c, 4, 61, 64
1, 260761, Note_off_c, 3, 74, 64
1, 260803, Note_on_c, 4, 61, 126
1, 260809, Note_off_c, 4, 59, 64
1, 260838, Note_on_c, 4, 62, 125
1, 260863, Note_off_c, 4, 61, 64
1, 260893, Note_off_c, 3, 73, 64
1, 260894, Note_on_c, 3, 74, 120
1, 260894, Note_on_c, 4, 61, 126
1, 260900, Note_off_c, 4, 62, 64
1, 260948, Note_on_c, 4, 59, 126
1, 260954, Note_off_c, 4, 61, 64
1, 260985, Note_on_c, 4, 57, 126
1, 261008, Note_off_c, 4, 59, 64
1, 261036, Note_on_c, 3, 75, 117
1, 261037, Note_on_c, 4, 55, 126
1, 261043, Note_off_c, 4, 57, 64
1, 261049, Note_off_c, 3, 74, 64
1, 261091, Note_on_c, 4, 57, 126
1, 261097, Note_off_c, 4, 55, 64
1, 261128, Note_on_c, 4, 59, 126
1, 261151, Note_off_c, 4, 57, 64
1, 261180, Note_on_c, 2, 76, 120
1, 261180, Note_on_c, 4, 57, 126
1, 261185, Note_off_c, 4, 59, 64
1, 261191, Note_off_c, 3, 75, 64
1, 261231, Note_on_c, 4, 55, 126
1, 261237, Note_off_c, 4, 57, 64
1, 261268, Note_on_c, 4, 54, 126
1, 261293, Note_off_c, 4, 55, 64
1, 261310, Note_off_c, 2, 76, 64
1, 261322, Note_on_c, 2, 76, 120
1, 261322, Note_on_c, 4, 52, 126
1, 261328, Note_off_c, 4, 54, 64
1, 261376, Note_on_c, 4, 54, 126
1, 261382, Note_off_c, 4, 52, 64
1, 261411, Note_on_c, 4, 55, 126
1, 261434, Note_off_c, 4, 54, 64
1, 261467, Note_on_c, 4, 54, 126
1, 261474, Note_off_c, 4, 55, 64
1, 261520, Note_on_c, 4, 52, 126
1, 261526, Note_off_c, 4, 54, 64
1, 261557, Note_on_c, 4, 50, 126
1, 261582, Note_off_c, 4, 52, 64
1, 261605, Note_off_c, 2, 76, 64
1, 261612, Note_on_c, 2, 76, 120
1, 261613, Note_on_c, 4, 49, 126
1, 261620, Note_off_c, 4, 50, 64
1, 261668, Note_on_c, 4, 50, 126
1, 261674, Note_off_c, 4, 49, 64
1, 261703, Note_on_c, 4, 52, 126
1, 261726, Note_off_c, 4, 50, 64
1, 261758, Note_on_c, 4, 50, 126
1, 261764, Note_off_c, 4, 52, 64
1, 261810, Note_on_c, 4, 49, 126
1, 261814, Note_off_c, 4, 50, 64
1, 261826, Note_off_c, 2, 76, 64
1, 261826, Note_on_c, 1, 78, 117
1, 261844, Note_on_c, 4, 47, 126
1, 261859, Note_on_c, 2, 76, 120
1, 261867, Note_off_c, 4, 49, 64
1, 261871, Note_off_c, 1, 78, 64
1, 261896, Note_on_c, 3, 74, 123
1, 261896, Note_on_c, 4, 45, 126
1, 261903, Note_off_c, 4, 47, 64
1, 261907, Note_off_c, 2, 76, 64
1, 261951, Note_on_c, 4, 47, 126
1, 261957, Note_off_c, 4, 45, 64
1, 261990, Note_on_c, 4, 45, 126
1, 262013, Note_off_c, 4, 47, 64
1, 262040, Note_on_c, 2, 76, 120
1, 262042, Note_on_c, 4, 43, 126
1, 262047, Note_off_c, 4, 45, 64
1, 262054, Note_off_c, 3, 74, 64
1, 262097, Note_on_c, 4, 42, 126
1, 262103, Note_off_c, 4, 43, 64
1, 262134, Note_on_c, 4, 40, 126
1, 262159, Note_off_c, 4, 42, 64
1, 262190, Note_on_c, 2, 77, 120
1, 262190, Note_on_c, 4, 38, 127
1, 262196, Note_off_c, 4, 40, 64
1, 262200, Note_off_c, 2, 76, 64
1, 262246, Note_on_c, 4, 42, 126
1, 262252, Note_off_c, 4, 38, 64
1, 262281, Note_on_c, 4, 43, 126
1, 262305, Note_off_c, 4, 42, 64
1, 262334, Note_on_c, 1, 78, 117
1, 262334, Note_on_c, 4, 45, 126
1, 262341, Note_off_c, 4, 43, 64
1, 262347, Note_off_c, 2, 77, 64
1, 262391, Note_on_c, 4, 47, 126
1, 262397, Note_off_c, 4, 45, 64
1, 262426, Note_on_c, 4, 49, 126
1, 262449, Note_off_c, 4, 47, 64
1, 262466, Note_off_c, 1, 78, 64
1, 262478, Note_on_c, 1, 78, 117
1, 262478, Note_on_c, 4, 50, 126
1, 262484, Note_off_c, 4, 49, 64
1, 262533, Note_on_c, 4, 52, 126
1, 262540, Note_off_c, 4, 50, 64
1, 262571, Note_on_c, 4, 54, 126
1, 262594, Note_off_c, 4, 52, 64
1, 262625, Note_on_c, 4, 55, 126
1, 262630, Note_off_c, 4, 54, 64
1, 262679, Note_on_c, 4, 57, 126
1, 262684, Note_off_c, 4, 55, 64
1, 262713, Note_on_c, 4, 59, 126
1, 262736, Note_off_c, 4, 57, 64
1, 262765, Note_on_c, 4, 60, 126
1, 262765, Note_on_c, 4, 62, 125
1, 262772, Note_off_c, 4, 59, 64
1, 262777, Note_off_c, 1, 78, 64
1, 262820, Note_on_c, 3, 66, 125
1, 262825, Note_off_c, 4, 62, 64
1, 262858, Note_on_c, 3, 69, 124
1, 262883, Note_off_c, 3, 66, 64
1, 262914, Note_on_c, 3, 74, 111
1, 262920, Note_off_c, 3, 69, 64
1, 262967, Note_on_c, 2, 76, 108
1, 262972, Note_off_c, 3, 74, 64
1, 263003, Note_on_c, 1, 78, 105
1, 263026, Note_off_c, 2, 76, 64
1, 263055, Note_off_c, 4, 60, 64
1, 263055, Note_on_c, 1, 79, 105
1, 263056, Note_on_c, 4, 59, 126
1, 263061, Note_off_c, 1, 78, 64
1, 263109, Note_on_c, 1, 78, 105
1, 263114, Note_off_c, 1, 79, 64
1, 263141, Note_on_c, 1, 79, 105
1, 263166, Note_off_c, 1, 78, 64
1, 263195, Note_on_c, 1, 83, 105
1, 263201, Note_off_c, 1, 79, 64
1, 263251, Note_on_c, 1, 79, 105
1, 263256, Note_off_c, 1, 83, 64
1, 263285, Note_on_c, 3, 74, 111
1, 263310, Note_off_c, 1, 79, 64
1, 263342, Note_off_c, 4, 59, 64
1, 263342, Note_on_c, 3, 69, 124
1, 263343, Note_on_c, 4, 55, 126
1, 263347, Note_off_c, 3, 74, 64
1, 263397, Note_on_c, 3, 73, 114
1, 263402, Note_off_c, 3, 69, 64
1, 263433, Note_on_c, 2, 76, 108
1, 263458, Note_off_c, 3, 73, 64
1, 263491, Note_on_c, 1, 81, 105
1, 263496, Note_off_c, 2, 76, 64
1, 263544, Note_on_c, 1, 83, 105
1, 263550, Note_off_c, 1, 81, 64
1, 263583, Note_on_c, 1, 85, 105
1, 263608, Note_off_c, 1, 83, 64
1, 263637, Note_off_c, 4, 55, 64
1, 263637, Note_on_c, 1, 86, 105
1, 263638, Note_on_c, 4, 54, 126
1, 263641, Note_off_c, 1, 85, 64
1, 263691, Note_on_c, 1, 85, 105
1, 263697, Note_off_c, 1, 86, 64
1, 263724, Note_on_c, 1, 83, 105
1, 263747, Note_off_c, 1, 85, 64
1, 263778, Note_on_c, 1, 81, 105
1, 263784, Note_off_c, 1, 83, 64
1, 263830, Note_on_c, 1, 79, 105
1, 263835, Note_off_c, 1, 81, 64
1, 263866, Note_on_c, 1, 78, 105
1, 263878, Note_off_c, 1, 79, 64
1, 263916, Note_off_c, 1, 78, 64
1, 263922, Note_on_c, 3, 75, 108
1, 263970, Note_off_c, 3, 75, 64
1, 263976, Note_on_c, 2, 76, 108
1, 264012, Note_on_c, 1, 79, 105
1, 264064, Note_off_c, 2, 76, 64
1, 264064, Note_on_c, 1, 83, 105
1, 264065, Note_on_c, 3, 67, 125
1, 264066, Note_off_c, 4, 54, 64
1, 264066, Note_on_c, 4, 55, 126
1, 264101, Note_off_c, 1, 79, 64
1, 264119, Note_on_c, 1, 79, 105
1, 264151, Note_off_c, 1, 83, 64
1, 264153, Note_on_c, 2, 76, 108
1, 264193, Note_off_c, 3, 67, 64
1, 264195, Note_off_c, 4, 55, 64
1, 264203, Note_off_c, 1, 79, 64
1, 264205, Note_on_c, 1, 81, 105
1, 264206, Note_on_c, 4, 57, 126
1, 264206, Note_on_c, 3, 66, 125
1, 264240, Note_off_c, 2, 76, 64
1, 264259, Note_on_c, 1, 78, 105
1, 264289, Note_off_c, 1, 81, 64
1, 264291, Note_on_c, 3, 74, 111
1, 264334, Note_off_c, 3, 66, 64
1, 264334, Note_off_c, 4, 57, 64
1, 264343, Note_off_c, 1, 78, 64
1, 264344, Note_on_c, 1, 79, 105
1, 264345, Note_on_c, 4, 59, 126
1, 264345, Note_on_c, 4, 64, 125
1, 264380, Note_off_c, 3, 74, 64
1, 264397, Note_on_c, 2, 76, 108
1, 264432, Note_off_c, 1, 79, 64
1, 264433, Note_on_c, 3, 73, 117
1, 264458, Note_off_c, 2, 76, 64
1, 264480, Note_off_c, 4, 64, 64
1, 264480, Note_off_c, 4, 59, 64
1, 264492, Note_off_c, 3, 73, 64
1, 264492, Note_on_c, 3, 74, 118
1, 264492, Note_on_c, 4, 50, 124
1, 264548, Note_on_c, 4, 54, 124
1, 264582, Note_on_c, 4, 57, 124
1, 264626, Note_off_c, 4, 50, 64
1, 264636, Note_on_c, 4, 62, 123
1, 264640, Note_off_c, 4, 54, 64
1, 264674, Note_off_c, 4, 57, 64
1, 264692, Note_on_c, 4, 57, 124
1, 264724, Note_on_c, 4, 54, 124
1, 264726, Note_off_c, 4, 62, 64
1, 264779, Note_on_c, 4, 50, 124
1, 264782, Note_off_c, 4, 57, 64
1, 264818, Note_off_c, 4, 54, 64
1, 264836, Note_on_c, 4, 54, 124
1, 264872, Note_on_c, 4, 57, 124
1, 264912, Note_off_c, 4, 50, 64
1, 264923, Note_off_c, 3, 74, 64
1, 264923, Note_on_c, 1, 86, 119
1, 264924, Note_on_c, 4, 62, 123
1, 264925, Note_off_c, 4, 54, 64
1, 264961, Note_off_c, 4, 57, 64
1, 264975, Note_on_c, 4, 57, 124
1, 265010, Note_on_c, 4, 54, 124
1, 265011, Note_off_c, 4, 62, 64
1, 265064, Note_on_c, 1, 85, 119
1, 265064, Note_on_c, 4, 50, 124
1, 265066, Note_off_c, 4, 57, 64
1, 265082, Note_off_c, 1, 86, 64
1, 265103, Note_off_c, 4, 54, 64
1, 265118, Note_on_c, 4, 52, 124
1, 265136, Note_on_c, 1, 81, 119
1, 265150, Note_off_c, 1, 85, 64
1, 265153, Note_on_c, 4, 55, 124
1, 265193, Note_off_c, 4, 50, 64
1, 265201, Note_on_c, 1, 79, 119
1, 265204, Note_off_c, 4, 52, 64
1, 265204, Note_on_c, 4, 61, 124
1, 265216, Note_off_c, 1, 81, 64
1, 265240, Note_off_c, 4, 55, 64
1, 265260, Note_on_c, 4, 55, 124
1, 265292, Note_on_c, 4, 52, 124
1, 265294, Note_off_c, 4, 61, 64
1, 265342, Note_on_c, 4, 50, 124
1, 265344, Note_off_c, 4, 55, 64
1, 265379, Note_off_c, 4, 52, 64
1, 265392, Note_on_c, 4, 52, 124
1, 265427, Note_on_c, 4, 55, 124
1, 265465, Note_off_c, 4, 50, 64
1, 265475, Note_on_c, 2, 76, 119
1, 265476, Note_on_c, 4, 61, 124
1, 265477, Note_off_c, 4, 52, 64
1, 265485, Note_off_c, 1, 79, 64
1, 265514, Note_off_c, 4, 55, 64
1, 265531, Note_on_c, 4, 55, 124
1, 265545, Note_on_c, 3, 73, 125
1, 265559, Note_off_c, 2, 76, 64
1, 265562, Note_on_c, 4, 52, 124
1, 265564, Note_off_c, 4, 61, 64
1, 265614, Note_on_c, 3, 74, 122
1, 265614, Note_on_c, 4, 50, 124
1, 265617, Note_off_c, 4, 55, 64
1, 265629, Note_off_c, 3, 73, 64
1, 265653, Note_off_c, 4, 52, 64
1, 265668, Note_on_c, 4, 54, 124
1, 265705, Note_on_c, 4, 57, 124
1, 265745, Note_off_c, 4, 50, 64
1, 265757, Note_on_c, 4, 62, 123
1, 265759, Note_off_c, 4, 54, 64
1, 265793, Note_off_c, 4, 57, 64
1, 265811, Note_on_c, 4, 57, 124
1, 265845, Note_on_c, 4, 54, 124
1, 265847, Note_off_c, 4, 62, 64
1, 265893, Note_on_c, 4, 50, 124
1, 265895, Note_off_c, 4, 57, 64
1, 265930, Note_off_c, 4, 54, 64
1, 265943, Note_on_c, 4, 54, 124
1, 265978, Note_on_c, 4, 57, 124
1, 266018, Note_off_c, 4, 50, 64
1, 266028, Note_on_c, 1, 86, 119
1, 266028, Note_on_c, 4, 62, 123
1, 266032, Note_off_c, 4, 54, 64
1, 266044, Note_off_c, 3, 74, 64
1, 266067, Note_off_c, 4, 57, 64
1, 266084, Note_on_c, 4, 57, 124
1, 266119, Note_on_c, 4, 54, 124
1, 266121, Note_off_c, 4, 62, 64
1, 266167, Note_on_c, 1, 85, 119
1, 266169, Note_on_c, 4, 50, 124
1, 266171, Note_off_c, 4, 57, 64
1, 266186, Note_off_c, 1, 86, 64
1, 266207, Note_off_c, 4, 54, 64
1, 266224, Note_on_c, 4, 52, 124
1, 266240, Note_on_c, 1, 81, 119
1, 266254, Note_off_c, 1, 85, 64
1, 266259, Note_on_c, 4, 55, 124
1, 266299, Note_off_c, 4, 50, 64
1, 266309, Note_on_c, 4, 61, 124
1, 266309, Note_on_c, 1, 79, 119
1, 266312, Note_off_c, 4, 52, 64
1, 266322, Note_off_c, 1, 81, 64
1, 266348, Note_off_c, 4, 55, 64
1, 266365, Note_on_c, 4, 55, 124
1, 266400, Note_on_c, 4, 52, 124
1, 266402, Note_off_c, 4, 61, 64
1, 266454, Note_on_c, 4, 50, 124
1, 266456, Note_off_c, 4, 55, 64
1, 266492, Note_off_c, 4, 52, 64
1, 266508, Note_on_c, 4, 52, 124
1, 266542, Note_on_c, 4, 55, 124
1, 266582, Note_off_c, 4, 50, 64
1, 266592, Note_on_c, 2, 76, 119
1, 266593, Note_on_c, 4, 61, 124
1, 266596, Note_off_c, 4, 52, 64
1, 266603, Note_off_c, 1, 79, 64
1, 266632, Note_off_c, 4, 55, 64
1, 266646, Note_on_c, 4, 55, 124
1, 266662, Note_on_c, 3, 73, 125
1, 266673, Note_off_c, 2, 76, 64
1, 266678, Note_on_c, 4, 52, 124
1, 266680, Note_off_c, 4, 61, 64
1, 266729, Note_on_c, 3, 74, 122
1, 266730, Note_on_c, 4, 50, 124
1, 266732, Note_off_c, 4, 55, 64
1, 266742, Note_off_c, 3, 73, 64
1, 266769, Note_off_c, 4, 52, 64
1, 266784, Note_on_c, 3, 69, 124
1, 266822, Note_on_c, 1, 78, 105
1, 266824, Note_off_c, 3, 74, 64
1, 266880, Note_on_c, 2, 76, 108
1, 266886, Note_off_c, 1, 78, 64
1, 266922, Note_off_c, 3, 69, 64
1, 266932, Note_on_c, 3, 73, 114
1, 266968, Note_on_c, 1, 79, 105
1, 266972, Note_off_c, 2, 76, 64
1, 267023, Note_on_c, 1, 78, 105
1, 267030, Note_off_c, 1, 79, 64
1, 267064, Note_off_c, 3, 73, 64
1, 267076, Note_on_c, 3, 74, 111
1, 267108, Note_on_c, 1, 81, 105
1, 267110, Note_off_c, 1, 78, 64
1, 267161, Note_on_c, 1, 79, 105
1, 267161, Note_on_c, 3, 67, 125
1, 267162, Note_on_c, 4, 64, 125
1, 267162, Note_on_c, 4, 57, 126
1, 267163, Note_off_c, 4, 50, 64
1, 267166, Note_off_c, 1, 81, 64
1, 267199, Note_off_c, 3, 74, 64
1, 267209, Note_on_c, 2, 76, 108
1, 267215, Note_off_c, 1, 79, 64
1, 267245, Note_on_c, 3, 73, 114
1, 267270, Note_off_c, 2, 76, 64
1, 267289, Note_off_c, 4, 57, 64
1, 267289, Note_off_c, 4, 64, 64
1, 267290, Note_off_c, 3, 67, 64
1, 267300, Note_on_c, 3, 66, 125
1, 267300, Note_on_c, 3, 74, 111
1, 267301, Note_on_c, 4, 62, 125
1, 267305, Note_off_c, 3, 73, 64
1, 267355, Note_on_c, 3, 69, 124
1, 267389, Note_on_c, 1, 78, 105
1, 267391, Note_off_c, 3, 74, 64
1, 267443, Note_on_c, 2, 76, 108
1, 267447, Note_off_c, 1, 78, 64
1, 267481, Note_off_c, 3, 69, 64
1, 267493, Note_on_c, 3, 73, 114
1, 267526, Note_on_c, 1, 79, 105
1, 267527, Note_off_c, 2, 76, 64
1, 267576, Note_on_c, 1, 78, 105
1, 267582, Note_off_c, 1, 79, 64
1, 267617, Note_off_c, 3, 73, 64
1, 267626, Note_on_c, 3, 74, 111
1, 267659, Note_on_c, 1, 81, 105
1, 267661, Note_off_c, 1, 78, 64
1, 267709, Note_off_c, 3, 66, 64
1, 267709, Note_off_c, 4, 62, 64
1, 267710, Note_on_c, 1, 79, 105
1, 267710, Note_on_c, 3, 67, 125
1, 267711, Note_on_c, 4, 64, 125
1, 267711, Note_on_c, 4, 57, 126
1, 267716, Note_off_c, 1, 81, 64
1, 267748, Note_off_c, 3, 74, 64
1, 267760, Note_on_c, 2, 76, 108
1, 267766, Note_off_c, 1, 79, 64
1, 267790, Note_on_c, 3, 73, 114
1, 267814, Note_off_c, 2, 76, 64
1, 267833, Note_off_c, 4, 57, 64
1, 267834, Note_off_c, 4, 64, 64
1, 267834, Note_off_c, 3, 67, 64
1, 267844, Note_on_c, 3, 74, 111
1, 267845, Note_on_c, 4, 62, 125
1, 267845, Note_on_c, 4, 50, 126
1, 267851, Note_off_c, 3, 73, 64
1, 267903, Note_on_c, 1, 78, 105
1, 267908, Note_off_c, 3, 74, 64
1, 267941, Note_on_c, 3, 74, 111
1, 267962, Note_off_c, 1, 78, 64
1, 267993, Note_off_c, 4, 50, 64
1, 267994, Note_off_c, 4, 62, 64
1, 267994, Note_on_c, 3, 69, 124
1, 267995, Note_on_c, 4, 57, 126
1, 267995, Note_on_c, 4, 45, 126
1, 267999, Note_off_c, 3, 74, 64
1, 268051, Note_on_c, 3, 74, 111
1, 268055, Note_off_c, 3, 69, 64
1, 268086, Note_on_c, 3, 69, 124
1, 268111, Note_off_c, 3, 74, 64
1, 268146, Note_off_c, 4, 45, 64
1, 268146, Note_off_c, 4, 57, 64
1, 268147, Note_on_c, 3, 66, 125
1, 268147, Note_on_c, 4, 54, 126
1, 268148, Note_on_c, 4, 42, 126
1, 268152, Note_off_c, 3, 69, 64
1, 268200, Note_on_c, 3, 69, 124
1, 268205, Note_off_c, 3, 66, 64
1, 268238, Note_on_c, 3, 66, 125
1, 268263, Note_off_c, 3, 69, 64
1, 268292, Note_off_c, 4, 42, 64
1, 268292, Note_off_c, 4, 54, 64
1, 268293, Note_on_c, 4, 62, 125
1, 268293, Note_on_c, 4, 50, 126
1, 268294, Note_on_c, 4, 38, 127
1, 268299, Note_off_c, 3, 66, 64
1, 268345, Note_on_c, 3, 66, 125
1, 268351, Note_off_c, 4, 62, 64
1, 268384, Note_on_c, 4, 62, 125
1, 268409, Note_off_c, 3, 66, 64
1, 268441, Note_off_c, 4, 38, 64
1, 268442, Note_off_c, 4, 50, 64
1, 268442, Note_on_c, 4, 57, 126
1, 268443, Note_on_c, 4, 33, 127
1, 268447, Note_off_c, 4, 62, 64
1, 268495, Note_on_c, 4, 37, 127
1, 268532, Note_on_c, 4, 40, 126
1, 268545, Note_off_c, 4, 57, 64
1, 268555, Note_off_c, 4, 37, 64
1, 268584, Note_off_c, 4, 33, 64
1, 268584, Note_on_c, 4, 45, 126
1, 268588, Note_off_c, 4, 40, 64
1, 268636, Note_on_c, 4, 49, 126
1, 268642, Note_off_c, 4, 45, 64
1, 268671, Note_on_c, 4, 52, 126
1, 268694, Note_off_c, 4, 49, 64
1, 268725, Note_on_c, 3, 74, 111
1, 268725, Note_on_c, 1, 78, 105
1, 268726, Note_on_c, 4, 38, 127
1, 268726, Note_on_c, 3, 69, 124
1, 268782, Note_on_c, 4, 42, 126
1, 268824, Note_on_c, 4, 45, 126
1, 268838, Note_off_c, 4, 52, 64
1, 268848, Note_off_c, 4, 42, 64
1, 268876, Note_off_c, 4, 38, 64
1, 268877, Note_on_c, 4, 50, 126
1, 268883, Note_off_c, 4, 45, 64
1, 268941, Note_on_c, 4, 54, 126
1, 268948, Note_off_c, 4, 50, 64
1, 268979, Note_on_c, 4, 57, 126
1, 269004, Note_off_c, 4, 54, 64
1, 269035, Note_off_c, 4, 57, 64
1, 269035, Note_off_c, 3, 69, 64
1, 269036, Note_on_c, 4, 49, 126
1, 269036, Note_on_c, 4, 57, 126
1, 269037, Note_on_c, 4, 45, 126
1, 269084, Note_off_c, 3, 74, 64
1, 269091, Note_on_c, 4, 61, 126
1, 269097, Note_off_c, 4, 57, 64
1, 269126, Note_on_c, 4, 64, 125
1, 269146, Note_off_c, 1, 78, 64
1, 269151, Note_off_c, 4, 61, 64
1, 269178, Note_on_c, 3, 69, 124
1, 269184, Note_off_c, 4, 64, 64
1, 269226, Note_on_c, 3, 73, 114
1, 269232, Note_off_c, 3, 69, 64
1, 269258, Note_on_c, 2, 76, 108
1, 269281, Note_off_c, 3, 73, 64
1, 269303, Note_off_c, 4, 45, 64
1, 269311, Note_off_c, 4, 49, 64
1, 269311, Note_on_c, 4, 50, 126
1, 269311, Note_on_c, 1, 78, 105
1, 269312, Note_on_c, 4, 45, 126
1, 269316, Note_off_c, 2, 76, 64
1, 269358, Note_on_c, 1, 81, 105
1, 269364, Note_off_c, 1, 78, 64
1, 269389, Note_on_c, 1, 86, 105
1, 269410, Note_off_c, 1, 81, 64
1, 269441, Note_on_c, 1, 81, 105
1, 269446, Note_off_c, 1, 86, 64
1, 269490, Note_on_c, 1, 78, 105
1, 269496, Note_off_c, 1, 81, 64
1, 269524, Note_on_c, 3, 74, 122
1, 269549, Note_off_c, 1, 78, 64
1, 269576, Note_off_c, 4, 45, 64
1, 269584, Note_off_c, 3, 74, 64
1, 269585, Note_off_c, 4, 50, 64
1, 269585, Note_on_c, 1, 81, 119
1, 269586, Note_on_c, 4, 49, 126
1, 269586, Note_on_c, 4, 45, 126
1, 269724, Note_off_c, 1, 81, 64
1, 269733, Note_on_c, 3, 69, 124
1, 270154, Note_off_c, 4, 45, 64
1, 270154, Note_off_c, 4, 49, 64
1, 270156, Note_off_c, 3, 69, 64
1, 270157, Note_on_c, 4, 57, 118
1, 270374, Note_off_c, 4, 57, 64
1, 270375, Note_on_c, 4, 59, 118
1, 270412, Note_on_c, 4, 57, 118
1, 270423, Note_off_c, 4, 59, 64
1, 270448, Note_on_c, 4, 56, 118
1, 270460, Note_off_c, 4, 57, 64
1, 270590, Note_on_c, 4, 57, 118
1, 270602, Note_off_c, 4, 56, 64
1, 270732, Note_on_c, 4, 58, 118
1, 270743, Note_off_c, 4, 57, 64
1, 270877, Note_on_c, 1, 86, 113
1, 270878, Note_on_c, 4, 59, 118
1, 270888, Note_off_c, 4, 58, 64
1, 270949, Note_on_c, 1, 78, 113
1, 270961, Note_off_c, 1, 86, 64
1, 271011, Note_off_c, 4, 59, 64
1, 271022, Note_on_c, 1, 81, 113
1, 271023, Note_on_c, 4, 59, 118
1, 271035, Note_off_c, 1, 78, 64
1, 271162, Note_on_c, 1, 80, 113
1, 271165, Note_off_c, 1, 81, 64
1, 271296, Note_off_c, 4, 59, 64
1, 271302, Note_on_c, 4, 59, 118
1, 271523, Note_off_c, 4, 59, 64
1, 271524, Note_on_c, 4, 61, 118
1, 271560, Note_on_c, 4, 59, 118
1, 271574, Note_off_c, 4, 61, 64
1, 271597, Note_on_c, 4, 57, 118
1, 271610, Note_off_c, 4, 59, 64
1, 271741, Note_off_c, 1, 80, 64
1, 271741, Note_on_c, 4, 59, 118
1, 271753, Note_off_c, 4, 57, 64
1, 271884, Note_on_c, 4, 60, 118
1, 271896, Note_off_c, 4, 59, 64
1, 272029, Note_on_c, 4, 61, 118
1, 272029, Note_on_c, 1, 88, 113
1, 272041, Note_off_c, 4, 60, 64
1, 272103, Note_on_c, 1, 80, 113
1, 272114, Note_off_c, 1, 88, 64
1, 272164, Note_off_c, 4, 61, 64
1, 272174, Note_on_c, 4, 61, 118
1, 272174, Note_on_c, 1, 83, 113
1, 272186, Note_off_c, 1, 80, 64
1, 272315, Note_on_c, 1, 82, 113
1, 272327, Note_off_c, 1, 83, 64
1, 272453, Note_on_c, 1, 83, 113
1, 272465, Note_off_c, 1, 82, 64
1, 272599, Note_on_c, 1, 78, 105
1, 272600, Note_on_c, 3, 74, 111
1, 272610, Note_off_c, 4, 61, 64
1, 272673, Note_off_c, 1, 83, 64
1, 272674, Note_on_c, 1, 82, 105
1, 272711, Note_on_c, 1, 83, 105
1, 272722, Note_off_c, 1, 82, 64
1, 272736, Note_off_c, 1, 78, 64
1, 272736, Note_off_c, 3, 74, 64
1, 272748, Note_on_c, 1, 85, 105
1, 272748, Note_on_c, 2, 76, 108
1, 272749, Note_on_c, 3, 73, 114
1, 272759, Note_off_c, 1, 83, 64
1, 272878, Note_off_c, 3, 73, 64
1, 272878, Note_off_c, 2, 76, 64
1, 272888, Note_on_c, 1, 86, 105
1, 272889, Note_on_c, 3, 74, 111
1, 272889, Note_on_c, 3, 71, 123
1, 272901, Note_off_c, 1, 85, 64
1, 273022, Note_off_c, 3, 71, 64
1, 273022, Note_off_c, 3, 74, 64
1, 273032, Note_on_c, 1, 79, 105
1, 273033, Note_on_c, 3, 70, 124
1, 273033, Note_on_c, 2, 76, 108
1, 273045, Note_off_c, 1, 86, 64
1, 273177, Note_on_c, 1, 78, 105
1, 273189, Note_off_c, 1, 79, 64
1, 273319, Note_on_c, 3, 74, 111
1, 273320, Note_off_c, 3, 70, 64
1, 273320, Note_on_c, 3, 71, 123
1, 273321, Note_off_c, 2, 76, 64
1, 273459, Note_off_c, 1, 78, 64
1, 273460, Note_on_c, 1, 86, 105
1, 273595, Note_on_c, 2, 77, 108
1, 273596, Note_on_c, 3, 68, 124
1, 273606, Note_off_c, 1, 86, 64
1, 273741, Note_on_c, 2, 76, 108
1, 273753, Note_off_c, 2, 77, 64
1, 273885, Note_off_c, 3, 74, 64
1, 273885, Note_off_c, 3, 71, 64
1, 273886, Note_on_c, 3, 73, 114
1, 273886, Note_on_c, 3, 69, 124
1, 273887, Note_off_c, 3, 68, 64
1, 274018, Note_off_c, 2, 76, 64
1, 274024, Note_on_c, 2, 76, 108
1, 274095, Note_on_c, 1, 85, 105
1, 274107, Note_off_c, 2, 76, 64
1, 274163, Note_on_c, 3, 66, 125
1, 274163, Note_on_c, 1, 83, 105
1, 274175, Note_off_c, 1, 85, 64
1, 274306, Note_off_c, 3, 69, 64
1, 274306, Note_off_c, 3, 73, 64
1, 274307, Note_on_c, 1, 81, 105
1, 274307, Note_on_c, 3, 72, 122
1, 274317, Note_off_c, 1, 83, 64
1, 274450, Note_on_c, 4, 65, 125
1, 274450, Note_on_c, 3, 71, 123
1, 274451, Note_off_c, 3, 66, 64
1, 274460, Note_off_c, 3, 72, 64
1, 274591, Note_off_c, 1, 81, 64
1, 274591, Note_on_c, 3, 75, 114
1, 274592, Note_on_c, 3, 69, 124
1, 274601, Note_off_c, 3, 71, 64
1, 274720, Note_off_c, 3, 69, 64
1, 274721, Note_off_c, 3, 75, 64
1, 274731, Note_off_c, 4, 65, 64
1, 274731, Note_on_c, 2, 76, 114
1, 274732, Note_on_c, 4, 64, 125
1, 274732, Note_on_c, 3, 68, 124
1, 274950, Note_off_c, 2, 76, 64
1, 274950, Note_on_c, 1, 78, 111
1, 274987, Note_on_c, 2, 76, 114
1, 275001, Note_off_c, 1, 78, 64
1, 275024, Note_on_c, 3, 75, 114
1, 275037, Note_off_c, 2, 76, 64
1, 275166, Note_on_c, 2, 76, 114
1, 275177, Note_off_c, 3, 75, 64
1, 275300, Note_off_c, 4, 64, 64
1, 275301, Note_off_c, 3, 68, 64
1, 275305, Note_on_c, 2, 77, 114
1, 275307, Note_on_c, 3, 69, 124
1, 275307, Note_on_c, 4, 64, 125
1, 275308, Note_on_c, 4, 52, 126
1, 275317, Note_off_c, 2, 76, 64
1, 275450, Note_on_c, 1, 78, 111
1, 275463, Note_off_c, 2, 77, 64
1, 275523, Note_on_c, 4, 63, 125
1, 275525, Note_off_c, 4, 64, 64
1, 275560, Note_on_c, 4, 64, 125
1, 275572, Note_off_c, 4, 63, 64
1, 275585, Note_off_c, 1, 78, 64
1, 275595, Note_on_c, 1, 78, 111
1, 275595, Note_on_c, 3, 66, 125
1, 275607, Note_off_c, 4, 64, 64
1, 275736, Note_on_c, 4, 64, 125
1, 275748, Note_off_c, 3, 66, 64
1, 275868, Note_off_c, 4, 64, 64
1, 275875, Note_off_c, 4, 52, 64
1, 275877, Note_off_c, 1, 78, 64
1, 275878, Note_off_c, 3, 69, 64
1, 275878, Note_on_c, 1, 80, 111
1, 275879, Note_on_c, 3, 71, 123
1, 275879, Note_on_c, 4, 64, 125
1, 275880, Note_on_c, 4, 52, 126
1, 276024, Note_on_c, 4, 62, 125
1, 276032, Note_off_c, 4, 64, 64
1, 276096, Note_off_c, 1, 80, 64
1, 276096, Note_on_c, 1, 81, 111
1, 276133, Note_on_c, 1, 80, 111
1, 276144, Note_off_c, 1, 81, 64
1, 276156, Note_off_c, 4, 62, 64
1, 276167, Note_on_c, 4, 62, 125
1, 276167, Note_on_c, 1, 78, 111
1, 276180, Note_off_c, 1, 80, 64
1, 276307, Note_on_c, 1, 80, 111
1, 276318, Note_off_c, 1, 78, 64
1, 276437, Note_off_c, 1, 80, 64
1, 276444, Note_off_c, 4, 52, 64
1, 276447, Note_off_c, 4, 62, 64
1, 276447, Note_on_c, 1, 80, 105
1, 276448, Note_off_c, 3, 71, 64
1, 276448, Note_on_c, 2, 76, 108
1, 276448, Note_on_c, 4, 61, 126
1, 276449, Note_on_c, 4, 52, 126
1, 276592, Note_on_c, 1, 81, 105
1, 276605, Note_off_c, 1, 80, 64
1, 276665, Note_on_c, 4, 59, 126
1, 276666, Note_off_c, 4, 61, 64
1, 276701, Note_on_c, 4, 61, 126
1, 276715, Note_off_c, 4, 59, 64
1, 276726, Note_off_c, 1, 81, 64
1, 276738, Note_on_c, 1, 81, 105
1, 276738, Note_on_c, 4, 62, 125
1, 276750, Note_off_c, 4, 61, 64
1, 276879, Note_on_c, 4, 61, 126
1, 276891, Note_off_c, 4, 62, 64
1, 277007, Note_off_c, 4, 61, 64
1, 277016, Note_off_c, 4, 52, 64
1, 277018, Note_off_c, 1, 81, 64
1, 277019, Note_on_c, 1, 80, 105
1, 277019, Note_on_c, 1, 83, 105
1, 277020, Note_off_c, 2, 76, 64
1, 277020, Note_on_c, 4, 52, 126
1, 277020, Note_on_c, 4, 61, 126
1, 277163, Note_on_c, 4, 59, 126
1, 277175, Note_off_c, 4, 61, 64
1, 277236, Note_off_c, 1, 83, 64
1, 277236, Note_on_c, 1, 85, 105
1, 277272, Note_on_c, 1, 83, 105
1, 277285, Note_off_c, 1, 85, 64
1, 277298, Note_off_c, 4, 59, 64
1, 277308, Note_on_c, 4, 59, 126
1, 277308, Note_on_c, 1, 81, 105
1, 277319, Note_off_c, 1, 83, 64
1, 277445, Note_on_c, 1, 83, 105
1, 277457, Note_off_c, 1, 81, 64
1, 277580, Note_off_c, 4, 52, 64
1, 277582, Note_off_c, 1, 80, 64
1, 277582, Note_off_c, 4, 59, 64
1, 277583, Note_on_c, 2, 76, 108
1, 277583, Note_on_c, 1, 85, 105
1, 277584, Note_on_c, 4, 64, 125
1, 277584, Note_on_c, 3, 69, 124
1, 277594, Note_off_c, 1, 83, 64
1, 277800, Note_off_c, 1, 85, 64
1, 277800, Note_on_c, 1, 86, 105
1, 277800, Note_on_c, 3, 71, 123
1, 277804, Note_off_c, 3, 69, 64
1, 277837, Note_on_c, 1, 85, 105
1, 277837, Note_on_c, 3, 69, 124
1, 277849, Note_off_c, 3, 71, 64
1, 277850, Note_off_c, 1, 86, 64
1, 277873, Note_on_c, 1, 83, 105
1, 277874, Note_on_c, 3, 68, 124
1, 277886, Note_off_c, 3, 69, 64
1, 277886, Note_off_c, 1, 85, 64
1, 278012, Note_on_c, 3, 70, 124
1, 278012, Note_on_c, 1, 85, 105
1, 278022, Note_off_c, 3, 68, 64
1, 278023, Note_off_c, 1, 83, 64
1, 278060, Note_off_c, 2, 76, 64
1, 278148, Note_on_c, 3, 71, 123
1, 278148, Note_on_c, 1, 86, 105
1, 278161, Note_off_c, 3, 70, 64
1, 278162, Note_off_c, 1, 85, 64
1, 278203, Note_on_c, 1, 83, 105
1, 278208, Note_off_c, 1, 86, 64
1, 278237, Note_on_c, 1, 80, 105
1, 278260, Note_off_c, 1, 83, 64
1, 278287, Note_on_c, 2, 76, 108
1, 278293, Note_off_c, 1, 80, 64
1, 278341, Note_on_c, 3, 74, 111
1, 278349, Note_off_c, 2, 76, 64
1, 278362, Note_off_c, 3, 71, 64
1, 278379, Note_on_c, 3, 71, 123
1, 278404, Note_off_c, 3, 74, 64
1, 278437, Note_on_c, 3, 68, 124
1, 278443, Note_off_c, 3, 71, 64
1, 278494, Note_on_c, 3, 71, 123
1, 278500, Note_off_c, 3, 68, 64
1, 278530, Note_on_c, 3, 74, 111
1, 278557, Note_off_c, 3, 71, 64
1, 278584, Note_on_c, 2, 76, 108
1, 278590, Note_off_c, 3, 74, 64
1, 278636, Note_on_c, 1, 80, 105
1, 278642, Note_off_c, 2, 76, 64
1, 278670, Note_on_c, 1, 83, 105
1, 278691, Note_off_c, 1, 80, 64
1, 278721, Note_on_c, 1, 86, 105
1, 278726, Note_off_c, 1, 83, 64
1, 278774, Note_on_c, 1, 83, 105
1, 278780, Note_off_c, 1, 86, 64
1, 278808, Note_on_c, 1, 80, 105
1, 278832, Note_off_c, 1, 83, 64
1, 278861, Note_on_c, 2, 76, 108
1, 278866, Note_off_c, 1, 80, 64
1, 278912, Note_on_c, 3, 74, 111
1, 278918, Note_off_c, 2, 76, 64
1, 278949, Note_on_c, 3, 71, 123
1, 278975, Note_off_c, 3, 74, 64
1, 279008, Note_on_c, 3, 68, 124
1, 279013, Note_off_c, 3, 71, 64
1, 279064, Note_on_c, 3, 71, 123
1, 279070, Note_off_c, 3, 68, 64
1, 279101, Note_on_c, 3, 74, 111
1, 279124, Note_off_c, 3, 71, 64
1, 279153, Note_on_c, 2, 76, 108
1, 279158, Note_off_c, 3, 74, 64
1, 279204, Note_on_c, 1, 80, 105
1, 279210, Note_off_c, 2, 76, 64
1, 279239, Note_on_c, 1, 83, 105
1, 279262, Note_off_c, 1, 80, 64
1, 279289, Note_on_c, 3, 71, 123
1, 279289, Note_on_c, 1, 86, 105
1, 279295, Note_off_c, 1, 83, 64
1, 279305, Note_off_c, 4, 64, 64
1, 279351, Note_on_c, 1, 83, 105
1, 279357, Note_off_c, 1, 86, 64
1, 279386, Note_on_c, 1, 86, 105
1, 279440, Note_on_c, 1, 85, 105
1, 279440, Note_on_c, 3, 69, 124
1, 279444, Note_off_c, 1, 86, 64
1, 279454, Note_off_c, 1, 83, 64
1, 279454, Note_off_c, 3, 71, 64
1, 279490, Note_on_c, 1, 81, 105
1, 279495, Note_off_c, 1, 85, 64
1, 279526, Note_on_c, 1, 85, 105
1, 279580, Note_on_c, 3, 68, 124
1, 279580, Note_on_c, 1, 83, 105
1, 279585, Note_off_c, 1, 85, 64
1, 279594, Note_off_c, 1, 81, 64
1, 279595, Note_off_c, 3, 69, 64
1, 279630, Note_on_c, 1, 80, 105
1, 279636, Note_off_c, 1, 83, 64
1, 279666, Note_on_c, 1, 83, 105
1, 279722, Note_on_c, 3, 66, 125
1, 279722, Note_on_c, 1, 81, 105
1, 279727, Note_off_c, 1, 83, 64
1, 279738, Note_off_c, 1, 80, 64
1, 279739, Note_off_c, 3, 68, 64
1, 279776, Note_on_c, 1, 78, 105
1, 279781, Note_off_c, 1, 81, 64
1, 279810, Note_on_c, 1, 81, 105
1, 279868, Note_on_c, 1, 80, 105
1, 279868, Note_on_c, 4, 64, 125
1, 279873, Note_off_c, 1, 81, 64
1, 279884, Note_off_c, 3, 66, 64
1, 279885, Note_off_c, 1, 78, 64
1, 279920, Note_on_c, 2, 76, 108
1, 279925, Note_off_c, 1, 80, 64
1, 279954, Note_on_c, 1, 80, 105
1, 280008, Note_on_c, 4, 62, 125
1, 280008, Note_on_c, 1, 78, 105
1, 280015, Note_off_c, 1, 80, 64
1, 280022, Note_off_c, 2, 76, 64
1, 280023, Note_off_c, 4, 64, 64
1, 280060, Note_on_c, 3, 74, 111
1, 280066, Note_off_c, 1, 78, 64
1, 280096, Note_on_c, 1, 78, 105
1, 280154, Note_on_c, 2, 76, 108
1, 280154, Note_on_c, 4, 61, 126
1, 280161, Note_off_c, 1, 78, 64
1, 280168, Note_off_c, 3, 74, 64
1, 280169, Note_off_c, 4, 62, 64
1, 280206, Note_on_c, 3, 73, 114
1, 280212, Note_off_c, 2, 76, 64
1, 280242, Note_on_c, 2, 76, 108
1, 280298, Note_on_c, 4, 59, 126
1, 280298, Note_on_c, 3, 74, 111
1, 280305, Note_off_c, 2, 76, 64
1, 280312, Note_off_c, 3, 73, 64
1, 280313, Note_off_c, 4, 61, 64
1, 280350, Note_on_c, 3, 71, 123
1, 280358, Note_off_c, 3, 74, 64
1, 280387, Note_on_c, 3, 74, 114
1, 280444, Note_on_c, 4, 57, 126
1, 280444, Note_on_c, 3, 73, 121
1, 280449, Note_off_c, 3, 74, 64
1, 280458, Note_off_c, 4, 59, 64
1, 280459, Note_off_c, 3, 71, 64
1, 280588, Note_on_c, 1, 88, 103
1, 280640, Note_on_c, 1, 85, 103
1, 280647, Note_off_c, 1, 88, 64
1, 280677, Note_on_c, 1, 81, 103
1, 280701, Note_off_c, 1, 85, 64
1, 280724, Note_off_c, 3, 73, 64
1, 280730, Note_on_c, 1, 80, 103
1, 280731, Note_on_c, 3, 74, 116
1, 280731, Note_on_c, 2, 76, 113
1, 280737, Note_off_c, 1, 81, 64
1, 280787, Note_on_c, 1, 83, 97
1, 280792, Note_off_c, 1, 80, 64
1, 280818, Note_off_c, 2, 76, 64
1, 280825, Note_on_c, 2, 76, 113
1, 280877, Note_off_c, 1, 83, 64
1, 280877, Note_on_c, 1, 88, 97
1, 280932, Note_on_c, 1, 86, 97
1, 280939, Note_off_c, 1, 88, 64
1, 280967, Note_on_c, 1, 83, 97
1, 280990, Note_off_c, 1, 86, 64
1, 281015, Note_off_c, 2, 76, 64
1, 281019, Note_off_c, 3, 74, 64
1, 281020, Note_on_c, 2, 76, 113
1, 281020, Note_on_c, 1, 81, 97
1, 281021, Note_on_c, 3, 73, 119
1, 281027, Note_off_c, 1, 83, 64
1, 281075, Note_on_c, 1, 85, 97
1, 281106, Note_off_c, 2, 76, 64
1, 281111, Note_on_c, 2, 76, 113
1, 281113, Note_off_c, 1, 81, 64
1, 281163, Note_on_c, 1, 88, 97
1, 281165, Note_off_c, 1, 85, 64
1, 281220, Note_on_c, 1, 85, 97
1, 281227, Note_off_c, 1, 88, 64
1, 281256, Note_on_c, 1, 81, 97
1, 281280, Note_off_c, 1, 85, 64
1, 281305, Note_off_c, 2, 76, 64
1, 281311, Note_off_c, 3, 73, 64
1, 281312, Note_on_c, 1, 80, 97
1, 281312, Note_on_c, 2, 76, 113
1, 281313, Note_on_c, 3, 74, 116
1, 281316, Note_off_c, 1, 81, 64
1, 281366, Note_on_c, 1, 83, 97
1, 281375, Note_off_c, 1, 80, 64
1, 281400, Note_off_c, 2, 76, 64
1, 281405, Note_on_c, 2, 76, 113
1, 281457, Note_on_c, 1, 88, 97
1, 281459, Note_off_c, 1, 83, 64
1, 281513, Note_on_c, 1, 86, 97
1, 281519, Note_off_c, 1, 88, 64
1, 281547, Note_on_c, 1, 83, 97
1, 281572, Note_off_c, 1, 86, 64
1, 281597, Note_off_c, 2, 76, 64
1, 281603, Note_off_c, 3, 74, 64
1, 281604, Note_on_c, 1, 81, 97
1, 281604, Note_on_c, 2, 76, 113
1, 281604, Note_on_c, 3, 73, 122
1, 281609, Note_off_c, 1, 83, 64
1, 281657, Note_on_c, 1, 85, 97
1, 281664, Note_off_c, 2, 76, 64
1, 281693, Note_on_c, 2, 76, 109
1, 281695, Note_off_c, 1, 81, 64
1, 281736, Note_off_c, 3, 73, 64
1, 281747, Note_on_c, 1, 88, 101
1, 281748, Note_off_c, 1, 85, 64
1, 281748, Note_on_c, 3, 73, 118
1, 281748, Note_on_c, 1, 79, 97
1, 281753, Note_off_c, 2, 76, 64
1, 281801, Note_on_c, 2, 76, 109
1, 281807, Note_off_c, 3, 73, 64
1, 281841, Note_on_c, 3, 73, 118
1, 281866, Note_off_c, 2, 76, 64
1, 281893, Note_on_c, 1, 78, 105
1, 281893, Note_on_c, 3, 70, 124
1, 281898, Note_off_c, 3, 73, 64
1, 281904, Note_off_c, 1, 79, 64
1, 281944, Note_on_c, 3, 73, 118
1, 281950, Note_off_c, 3, 70, 64
1, 281982, Note_on_c, 3, 70, 124
1, 282005, Note_off_c, 3, 73, 64
1, 282034, Note_off_c, 1, 88, 64
1, 282035, Note_on_c, 1, 86, 109
1, 282035, Note_on_c, 3, 71, 121
1, 282041, Note_off_c, 3, 70, 64
1, 282085, Note_on_c, 3, 74, 112
1, 282091, Note_off_c, 3, 71, 64
1, 282123, Note_on_c, 3, 71, 121
1, 282146, Note_off_c, 3, 74, 64
1, 282173, Note_off_c, 1, 78, 64
1, 282174, Note_on_c, 2, 76, 114
1, 282174, Note_on_c, 3, 68, 124
1, 282180, Note_off_c, 3, 71, 64
1, 282226, Note_on_c, 3, 71, 121
1, 282232, Note_off_c, 3, 68, 64
1, 282265, Note_on_c, 3, 68, 124
1, 282288, Note_off_c, 3, 71, 64
1, 282317, Note_off_c, 1, 86, 64
1, 282318, Note_on_c, 1, 85, 111
1, 282318, Note_on_c, 3, 69, 124
1, 282324, Note_off_c, 3, 68, 64
1, 282366, Note_on_c, 3, 73, 115
1, 282372, Note_off_c, 3, 69, 64
1, 282403, Note_on_c, 3, 69, 124
1, 282424, Note_off_c, 3, 73, 64
1, 282455, Note_off_c, 2, 76, 64
1, 282455, Note_on_c, 3, 74, 117
1, 282456, Note_on_c, 3, 66, 125
1, 282459, Note_off_c, 3, 69, 64
1, 282504, Note_on_c, 3, 69, 124
1, 282509, Note_off_c, 3, 66, 64
1, 282542, Note_on_c, 3, 66, 125
1, 282564, Note_off_c, 3, 69, 64
1, 282591, Note_off_c, 1, 85, 64
1, 282591, Note_on_c, 1, 83, 111
1, 282592, Note_on_c, 3, 68, 124
1, 282598, Note_off_c, 3, 66, 64
1, 282642, Note_on_c, 3, 71, 121
1, 282646, Note_off_c, 3, 68, 64
1, 282680, Note_on_c, 3, 68, 124
1, 282701, Note_off_c, 3, 71, 64
1, 282728, Note_off_c, 3, 74, 64
1, 282729, Note_on_c, 3, 73, 123
1, 282729, Note_on_c, 4, 65, 125
1, 282733, Note_off_c, 3, 68, 64
1, 282783, Note_on_c, 3, 68, 124
1, 282789, Note_off_c, 4, 65, 64
1, 282821, Note_on_c, 4, 65, 125
1, 282844, Note_off_c, 3, 68, 64
1, 282873, Note_off_c, 1, 83, 64
1, 282874, Note_on_c, 1, 81, 111
1, 282874, Note_on_c, 3, 66, 125
1, 282880, Note_off_c, 4, 65, 64
1, 282930, Note_on_c, 3, 69, 124
1, 282936, Note_off_c, 3, 66, 64
1, 282968, Note_on_c, 3, 66, 125
1, 282993, Note_off_c, 3, 69, 64
1, 283022, Note_off_c, 3, 73, 64
1, 283022, Note_on_c, 3, 71, 121
1, 283023, Note_on_c, 4, 63, 125
1, 283027, Note_off_c, 3, 66, 64
1, 283067, Note_off_c, 4, 57, 64
1, 283073, Note_on_c, 3, 66, 125
1, 283080, Note_off_c, 4, 63, 64
1, 283113, Note_on_c, 4, 63, 125
1, 283136, Note_off_c, 3, 66, 64
1, 283165, Note_off_c, 1, 81, 64
1, 283166, Note_on_c, 4, 62, 125
1, 283166, Note_on_c, 1, 80, 111
1, 283172, Note_off_c, 4, 63, 64
1, 283222, Note_on_c, 4, 64, 125
1, 283228, Note_off_c, 4, 62, 64
1, 283264, Note_on_c, 4, 62, 125
1, 283287, Note_off_c, 4, 64, 64
1, 283306, Note_off_c, 1, 80, 64
1, 283316, Note_off_c, 3, 71, 64
1, 283317, Note_on_c, 4, 61, 126
1, 283317, Note_on_c, 1, 81, 111
1, 283322, Note_off_c, 4, 62, 64
1, 283365, Note_on_c, 1, 85, 103
1, 283371, Note_off_c, 1, 81, 64
1, 283401, Note_on_c, 2, 76, 106
1, 283450, Note_on_c, 1, 78, 103
1, 283450, Note_on_c, 4, 62, 125
1, 283462, Note_off_c, 4, 61, 64
1, 283464, Note_off_c, 1, 85, 64
1, 283485, Note_off_c, 2, 76, 64
1, 283501, Note_on_c, 1, 81, 103
1, 283507, Note_off_c, 1, 78, 64
1, 283540, Note_on_c, 3, 74, 109
1, 283591, Note_on_c, 4, 64, 125
1, 283591, Note_on_c, 3, 73, 112
1, 283595, Note_off_c, 3, 74, 64
1, 283601, Note_off_c, 4, 62, 64
1, 283605, Note_off_c, 1, 81, 64
1, 283641, Note_on_c, 2, 76, 106
1, 283647, Note_off_c, 3, 73, 64
1, 283681, Note_on_c, 3, 69, 124
1, 283734, Note_on_c, 3, 71, 121
1, 283734, Note_on_c, 4, 52, 126
1, 283736, Note_off_c, 2, 76, 64
1, 283739, Note_off_c, 3, 69, 64
1, 283744, Note_off_c, 4, 64, 64
1, 283787, Note_on_c, 3, 74, 109
1, 283792, Note_off_c, 3, 71, 64
1, 283826, Note_on_c, 3, 68, 124
1, 283881, Note_on_c, 4, 57, 126
1, 283881, Note_on_c, 3, 69, 124
1, 283883, Note_off_c, 3, 74, 64
1, 283885, Note_off_c, 3, 68, 64
1, 283893, Note_off_c, 4, 52, 64
1, 284162, Note_off_c, 3, 69, 64
1, 284170, Note_on_c, 1, 85, 103
1, 284170, Note_on_c, 2, 76, 106
1, 284171, Note_on_c, 3, 69, 124
1, 284330, Note_on_c, 2, 77, 110
1, 284330, Note_on_c, 1, 83, 107
1, 284331, Note_on_c, 3, 68, 124
1, 284342, Note_off_c, 2, 76, 64
1, 284343, Note_off_c, 3, 69, 64
1, 284343, Note_off_c, 1, 85, 64
1, 284483, Note_on_c, 1, 81, 107
1, 284483, Note_on_c, 1, 78, 107
1, 284484, Note_on_c, 3, 66, 125
1, 284495, Note_off_c, 2, 77, 64
1, 284496, Note_off_c, 1, 83, 64
1, 284496, Note_off_c, 3, 68, 64
1, 284638, Note_on_c, 1, 80, 107
1, 284639, Note_on_c, 3, 73, 116
1, 284641, Note_on_c, 4, 64, 125
1, 284651, Note_off_c, 1, 78, 64
1, 284651, Note_off_c, 1, 81, 64
1, 284652, Note_off_c, 3, 66, 64
1, 284788, Note_off_c, 4, 57, 64
1, 284788, Note_on_c, 1, 78, 107
1, 284789, Note_on_c, 4, 62, 125
1, 284789, Note_on_c, 3, 74, 113
1, 284799, Note_off_c, 3, 73, 64
1, 284800, Note_off_c, 1, 80, 64
1, 284802, Note_off_c, 4, 64, 64
1, 284939, Note_on_c, 2, 76, 110
1, 284940, Note_on_c, 3, 69, 124
1, 284941, Note_on_c, 4, 61, 126
1, 284951, Note_off_c, 3, 74, 64
1, 284952, Note_off_c, 1, 78, 64
1, 284952, Note_off_c, 4, 62, 64
1, 285081, Note_off_c, 2, 76, 64
1, 285094, Note_on_c, 2, 76, 110
1, 285095, Note_on_c, 4, 59, 126
1, 285095, Note_on_c, 3, 68, 124
1, 285108, Note_off_c, 4, 61, 64
1, 285108, Note_off_c, 3, 69, 64
1, 285168, Note_on_c, 3, 74, 113
1, 285181, Note_off_c, 2, 76, 64
1, 285251, Note_on_c, 3, 69, 124
1, 285251, Note_on_c, 3, 73, 116
1, 285252, Note_on_c, 4, 57, 126
1, 285263, Note_off_c, 3, 74, 64
1, 285264, Note_off_c, 3, 68, 64
1, 285264, Note_off_c, 4, 59, 64
1, 285400, Note_on_c, 2, 76, 110
1, 285412, Note_off_c, 3, 73, 64
1, 285556, Note_off_c, 4, 57, 64
1, 285556, Note_on_c, 4, 64, 125
1, 285557, Note_on_c, 4, 61, 126
1, 285695, Note_off_c, 3, 69, 64
1, 285707, Note_on_c, 3, 69, 124
1, 285708, Note_on_c, 3, 66, 125
1, 285719, Note_off_c, 4, 61, 64
1, 285720, Note_off_c, 4, 64, 64
1, 285780, Note_off_c, 2, 76, 64
1, 285780, Note_on_c, 3, 74, 113
1, 285855, Note_on_c, 3, 68, 124
1, 285856, Note_on_c, 4, 64, 125
1, 285866, Note_off_c, 3, 66, 64
1, 285867, Note_off_c, 3, 69, 64
1, 285927, Note_on_c, 3, 73, 116
1, 285940, Note_off_c, 3, 74, 64
1, 286002, Note_on_c, 4, 62, 125
1, 286002, Note_on_c, 3, 66, 125
1, 286014, Note_off_c, 4, 64, 64
1, 286014, Note_off_c, 3, 68, 64
1, 286075, Note_on_c, 3, 71, 121
1, 286088, Note_off_c, 3, 73, 64
1, 286138, Note_off_c, 3, 66, 64
1, 286150, Note_on_c, 3, 66, 125
1, 286150, Note_on_c, 4, 63, 125
1, 286162, Note_off_c, 4, 62, 64
1, 286223, Note_on_c, 3, 69, 124
1, 286234, Note_off_c, 3, 66, 64
1, 286235, Note_off_c, 3, 71, 64
1, 286288, Note_off_c, 3, 69, 64
1, 286295, Note_on_c, 3, 73, 119
1, 286295, Note_on_c, 3, 69, 124
1, 286296, Note_on_c, 4, 64, 125
1, 286307, Note_off_c, 4, 63, 64
1, 286447, Note_on_c, 3, 71, 121
1, 286448, Note_on_c, 3, 68, 124
1, 286460, Note_off_c, 3, 69, 64
1, 286460, Note_off_c, 4, 64, 64
1, 286605, Note_off_c, 3, 73, 64
1, 286605, Note_on_c, 1, 85, 95
1, 286606, Note_on_c, 2, 76, 113
1, 286606, Note_on_c, 3, 69, 124
1, 286616, Note_off_c, 3, 68, 64
1, 286617, Note_off_c, 3, 71, 64
1, 286657, Note_on_c, 1, 86, 95
1, 286663, Note_off_c, 1, 85, 64
1, 286697, Note_on_c, 1, 85, 95
1, 286720, Note_off_c, 1, 86, 64
1, 286749, Note_on_c, 1, 83, 98
1, 286751, Note_on_c, 3, 68, 124
1, 286756, Note_off_c, 1, 85, 64
1, 286762, Note_off_c, 3, 69, 64
1, 286801, Note_on_c, 1, 87, 95
1, 286807, Note_off_c, 1, 83, 64
1, 286836, Note_on_c, 1, 88, 95
1, 286861, Note_off_c, 1, 87, 64
1, 286894, Note_off_c, 2, 76, 64
1, 286894, Note_on_c, 1, 81, 98
1, 286895, Note_on_c, 3, 73, 119
1, 286895, Note_on_c, 3, 66, 125
1, 286901, Note_off_c, 1, 88, 64
1, 286907, Note_off_c, 3, 68, 64
1, 286949, Note_on_c, 1, 83, 98
1, 286957, Note_off_c, 1, 81, 64
1, 286990, Note_on_c, 1, 81, 98
1, 287013, Note_off_c, 1, 83, 64
1, 287045, Note_on_c, 1, 80, 98
1, 287046, Note_on_c, 4, 64, 125
1, 287050, Note_off_c, 1, 81, 64
1, 287060, Note_off_c, 3, 66, 64
1, 287104, Note_on_c, 1, 84, 95
1, 287110, Note_off_c, 1, 80, 64
1, 287142, Note_on_c, 1, 85, 95
1, 287163, Note_off_c, 1, 84, 64
1, 287196, Note_off_c, 3, 73, 64
1, 287196, Note_on_c, 1, 78, 98
1, 287197, Note_on_c, 4, 62, 125
1, 287197, Note_on_c, 3, 69, 124
1, 287202, Note_off_c, 1, 85, 64
1, 287208, Note_off_c, 4, 64, 64
1, 287244, Note_on_c, 1, 79, 98
1, 287250, Note_off_c, 1, 78, 64
1, 287282, Note_on_c, 1, 78, 98
1, 287305, Note_off_c, 1, 79, 64
1, 287336, Note_on_c, 2, 76, 110
1, 287337, Note_on_c, 4, 61, 126
1, 287341, Note_off_c, 1, 78, 64
1, 287349, Note_off_c, 4, 62, 64
1, 287385, Note_on_c, 1, 80, 98
1, 287391, Note_off_c, 2, 76, 64
1, 287420, Note_on_c, 1, 83, 98
1, 287443, Note_off_c, 1, 80, 64
1, 287473, Note_off_c, 3, 69, 64
1, 287474, Note_on_c, 3, 68, 124
1, 287474, Note_on_c, 2, 76, 110
1, 287475, Note_on_c, 4, 59, 126
1, 287481, Note_off_c, 1, 83, 64
1, 287487, Note_off_c, 4, 61, 64
1, 287546, Note_on_c, 3, 74, 113
1, 287560, Note_off_c, 2, 76, 64
1, 287621, Note_on_c, 3, 69, 124
1, 287621, Note_on_c, 3, 73, 116
1, 287623, Note_on_c, 4, 57, 126
1, 287633, Note_off_c, 3, 74, 64
1, 287633, Note_off_c, 3, 68, 64
1, 287636, Note_off_c, 4, 59, 64
1, 287765, Note_on_c, 2, 76, 110
1, 287778, Note_off_c, 3, 73, 64
1, 287914, Note_off_c, 4, 57, 64
1, 287922, Note_on_c, 4, 57, 126
1, 287923, Note_on_c, 4, 49, 126
1, 288073, Note_on_c, 4, 50, 126
1, 288084, Note_off_c, 4, 49, 64
1, 288146, Note_off_c, 2, 76, 64
1, 288146, Note_on_c, 1, 78, 107
1, 288216, Note_off_c, 3, 69, 64
1, 288216, Note_on_c, 3, 74, 113
1, 288217, Note_on_c, 4, 62, 125
1, 288227, Note_off_c, 4, 57, 64
1, 288228, Note_off_c, 1, 78, 64
1, 288290, Note_on_c, 3, 71, 121
1, 288301, Note_off_c, 3, 74, 64
1, 288363, Note_off_c, 4, 50, 64
1, 288363, Note_on_c, 3, 69, 124
1, 288364, Note_on_c, 4, 61, 126
1, 288364, Note_on_c, 4, 52, 126
1, 288374, Note_off_c, 3, 71, 64
1, 288375, Note_off_c, 4, 62, 64
1, 288516, Note_on_c, 3, 73, 116
1, 288516, Note_on_c, 4, 56, 126
1, 288526, Note_off_c, 4, 61, 64
1, 288527, Note_off_c, 3, 69, 64
1, 288592, Note_on_c, 3, 71, 123
1, 288604, Note_off_c, 3, 73, 64
1, 288660, Note_off_c, 4, 52, 64
1, 288660, Note_on_c, 4, 45, 126
1, 288660, Note_on_c, 3, 69, 124
1, 288672, Note_off_c, 3, 71, 64
1, 288672, Note_off_c, 4, 56, 64
1, 288715, Note_on_c, 4, 49, 126
1, 288752, Note_on_c, 4, 52, 126
1, 288804, Note_off_c, 4, 49, 64
1, 288809, Note_off_c, 4, 45, 64
1, 288810, Note_on_c, 4, 57, 126
1, 288816, Note_off_c, 4, 52, 64
1, 288866, Note_on_c, 4, 61, 126
1, 288872, Note_off_c, 4, 57, 64
1, 288900, Note_on_c, 4, 64, 125
1, 288925, Note_off_c, 4, 61, 64
1, 288947, Note_off_c, 3, 69, 64
1, 288954, Note_on_c, 1, 81, 105
1, 288955, Note_on_c, 3, 69, 124
1, 288959, Note_off_c, 4, 64, 64
1, 289005, Note_on_c, 2, 76, 108
1, 289011, Note_off_c, 3, 69, 64
1, 289038, Note_on_c, 3, 73, 114
1, 289051, Note_off_c, 1, 81, 64
1, 289059, Note_off_c, 2, 76, 64
1, 289088, Note_on_c, 3, 69, 124
1, 289093, Note_off_c, 3, 73, 64
1, 289141, Note_on_c, 4, 64, 125
1, 289147, Note_off_c, 3, 69, 64
1, 289178, Note_on_c, 4, 61, 126
1, 289203, Note_off_c, 4, 64, 64
1, 289236, Note_on_c, 4, 59, 126
1, 289236, Note_on_c, 4, 45, 126
1, 289242, Note_off_c, 4, 61, 64
1, 289290, Note_on_c, 4, 50, 126
1, 289327, Note_on_c, 4, 56, 126
1, 289369, Note_off_c, 4, 59, 64
1, 289373, Note_off_c, 4, 50, 64
1, 289379, Note_off_c, 4, 45, 64
1, 289379, Note_on_c, 4, 59, 126
1, 289385, Note_off_c, 4, 56, 64
1, 289432, Note_on_c, 4, 62, 125
1, 289438, Note_off_c, 4, 59, 64
1, 289468, Note_on_c, 4, 64, 125
1, 289491, Note_off_c, 4, 62, 64
1, 289522, Note_on_c, 1, 83, 105
1, 289522, Note_on_c, 3, 68, 124
1, 289526, Note_off_c, 4, 64, 64
1, 289572, Note_on_c, 1, 80, 105
1, 289605, Note_on_c, 3, 74, 111
1, 289620, Note_off_c, 3, 68, 64
1, 289621, Note_off_c, 1, 83, 64
1, 289627, Note_off_c, 1, 80, 64
1, 289656, Note_on_c, 3, 71, 123
1, 289662, Note_off_c, 3, 74, 64
1, 289708, Note_on_c, 3, 68, 124
1, 289714, Note_off_c, 3, 71, 64
1, 289744, Note_on_c, 4, 62, 125
1, 289769, Note_off_c, 3, 68, 64
1, 289800, Note_on_c, 4, 61, 126
1, 289800, Note_on_c, 4, 45, 126
1, 289807, Note_off_c, 4, 62, 64
1, 289855, Note_on_c, 4, 49, 126
1, 289891, Note_on_c, 4, 52, 126
1, 289939, Note_off_c, 4, 49, 64
1, 289947, Note_off_c, 4, 45, 64
1, 289947, Note_on_c, 4, 57, 126
1, 289952, Note_off_c, 4, 52, 64
1, 289957, Note_off_c, 4, 61, 64
1, 289998, Note_on_c, 4, 61, 126
1, 290004, Note_off_c, 4, 57, 64
1, 290032, Note_on_c, 4, 64, 125
1, 290053, Note_off_c, 4, 61, 64
1, 290080, Note_on_c, 1, 85, 105
1, 290081, Note_on_c, 3, 67, 125
1, 290085, Note_off_c, 4, 64, 64
1, 290133, Note_on_c, 1, 81, 105
1, 290166, Note_on_c, 2, 76, 108
1, 290179, Note_off_c, 3, 67, 64
1, 290180, Note_off_c, 1, 85, 64
1, 290186, Note_off_c, 1, 81, 64
1, 290213, Note_on_c, 3, 73, 114
1, 290219, Note_off_c, 2, 76, 64
1, 290265, Note_on_c, 3, 69, 124
1, 290271, Note_off_c, 3, 73, 64
1, 290299, Note_on_c, 4, 64, 125
1, 290324, Note_off_c, 3, 69, 64
1, 290355, Note_on_c, 4, 62, 125
1, 290356, Note_on_c, 4, 45, 126
1, 290362, Note_off_c, 4, 64, 64
1, 290410, Note_on_c, 4, 50, 126
1, 290446, Note_on_c, 4, 54, 126
1, 290494, Note_off_c, 4, 50, 64
1, 290500, Note_off_c, 4, 45, 64
1, 290501, Note_on_c, 4, 57, 126
1, 290507, Note_off_c, 4, 54, 64
1, 290513, Note_off_c, 4, 62, 64
1, 290555, Note_on_c, 4, 62, 125
1, 290561, Note_off_c, 4, 57, 64
1, 290589, Note_on_c, 3, 66, 125
1, 290612, Note_off_c, 4, 62, 64
1, 290640, Note_on_c, 1, 86, 105
1, 290640, Note_on_c, 3, 69, 124
1, 290644, Note_off_c, 3, 66, 64
1, 290692, Note_on_c, 1, 81, 105
1, 290725, Note_on_c, 1, 78, 105
1, 290738, Note_off_c, 3, 69, 64
1, 290738, Note_off_c, 1, 86, 64
1, 290747, Note_off_c, 1, 81, 64
1, 290774, Note_on_c, 3, 74, 111
1, 290779, Note_off_c, 1, 78, 64
1, 290825, Note_on_c, 3, 69, 124
1, 290832, Note_off_c, 3, 74, 64
1, 290862, Note_on_c, 3, 66, 125
1, 290887, Note_off_c, 3, 69, 64
1, 290918, Note_on_c, 4, 64, 125
1, 290918, Note_on_c, 4, 45, 126
1, 290924, Note_off_c, 3, 66, 64
1, 290976, Note_on_c, 4, 49, 126
1, 291015, Note_on_c, 4, 52, 126
1, 291067, Note_off_c, 4, 49, 64
1, 291072, Note_off_c, 4, 45, 64
1, 291073, Note_on_c, 4, 57, 126
1, 291079, Note_off_c, 4, 52, 64
1, 291085, Note_off_c, 4, 64, 64
1, 291129, Note_on_c, 4, 61, 126
1, 291137, Note_off_c, 4, 57, 64
1, 291168, Note_on_c, 4, 64, 125
1, 291192, Note_off_c, 4, 61, 64
1, 291225, Note_on_c, 3, 67, 125
1, 291231, Note_off_c, 4, 64, 64
1, 291279, Note_on_c, 3, 69, 124
1, 291287, Note_off_c, 3, 67, 64
1, 291315, Note_on_c, 3, 73, 114
1, 291340, Note_off_c, 3, 69, 64
1, 291371, Note_on_c, 2, 76, 108
1, 291377, Note_off_c, 3, 73, 64
1, 291423, Note_on_c, 1, 80, 105
1, 291429, Note_off_c, 2, 76, 64
1, 291456, Note_on_c, 1, 85, 105
1, 291479, Note_off_c, 1, 80, 64
1, 291507, Note_on_c, 1, 88, 105
1, 291515, Note_off_c, 1, 85, 64
1, 291563, Note_on_c, 1, 80, 105
1, 291569, Note_off_c, 1, 88, 64
1, 291597, Note_on_c, 1, 88, 105
1, 291647, Note_on_c, 1, 86, 105
1, 291652, Note_off_c, 1, 88, 64
1, 291689, Note_off_c, 1, 80, 64
1, 291698, Note_on_c, 1, 78, 105
1, 291704, Note_off_c, 1, 86, 64
1, 291735, Note_on_c, 1, 86, 105
1, 291789, Note_on_c, 1, 85, 105
1, 291794, Note_off_c, 1, 86, 64
1, 291831, Note_off_c, 1, 78, 64
1, 291842, Note_on_c, 2, 76, 108
1, 291848, Note_off_c, 1, 85, 64
1, 291879, Note_on_c, 1, 85, 105
1, 291933, Note_on_c, 1, 83, 105
1, 291938, Note_off_c, 1, 85, 64
1, 291992, Note_on_c, 1, 80, 105
1, 291998, Note_off_c, 1, 83, 64
1, 292029, Note_on_c, 1, 83, 105
1, 292054, Note_off_c, 1, 80, 64
1, 292082, Note_on_c, 1, 81, 105
1, 292088, Note_off_c, 1, 83, 64
1, 292136, Note_off_c, 2, 76, 64
1, 292137, Note_on_c, 1, 78, 105
1, 292143, Note_off_c, 1, 81, 64
1, 292172, Note_on_c, 1, 81, 105
1, 292225, Note_on_c, 1, 80, 105
1, 292231, Note_off_c, 1, 81, 64
1, 292270, Note_off_c, 1, 78, 64
1, 292281, Note_on_c, 2, 76, 108
1, 292287, Note_off_c, 1, 80, 64
1, 292318, Note_on_c, 1, 80, 105
1, 292368, Note_on_c, 1, 78, 105
1, 292375, Note_off_c, 1, 80, 64
1, 292414, Note_off_c, 2, 76, 64
1, 292423, Note_on_c, 3, 74, 111
1, 292429, Note_off_c, 1, 78, 64
1, 292460, Note_on_c, 1, 78, 105
1, 292512, Note_off_c, 3, 74, 64
1, 292514, Note_on_c, 2, 76, 108
1, 292520, Note_off_c, 1, 78, 64
1, 292570, Note_on_c, 3, 73, 114
1, 292578, Note_off_c, 2, 76, 64
1, 292608, Note_on_c, 2, 76, 108
1, 292666, Note_off_c, 3, 73, 64
1, 292667, Note_off_c, 2, 76, 64
1, 292667, Note_on_c, 3, 74, 111
1, 292812, Note_on_c, 3, 69, 124
1, 292812, Note_on_c, 3, 66, 125
1, 292885, Note_off_c, 3, 74, 64
1, 292886, Note_on_c, 2, 76, 108
1, 292921, Note_on_c, 3, 74, 111
1, 292932, Note_off_c, 2, 76, 64
1, 292945, Note_off_c, 3, 66, 64
1, 292946, Note_off_c, 3, 69, 64
1, 292956, Note_on_c, 3, 73, 114
1, 292957, Note_on_c, 3, 69, 124
1, 292957, Note_on_c, 3, 66, 125
1, 292967, Note_off_c, 3, 74, 64
1, 293088, Note_off_c, 3, 66, 64
1, 293088, Note_off_c, 3, 69, 64
1, 293099, Note_off_c, 3, 73, 64
1, 293099, Note_on_c, 3, 74, 115
1, 293100, Note_on_c, 3, 69, 124
1, 293100, Note_on_c, 3, 66, 125
1, 293240, Note_off_c, 3, 74, 64
1, 293240, Note_on_c, 3, 75, 112
1, 293300, Note_off_c, 3, 66, 64
1, 293301, Note_off_c, 3, 69, 64
1, 293384, Note_off_c, 3, 75, 64
1, 293384, Note_on_c, 2, 76, 112
1, 293385, Note_on_c, 3, 71, 123
1, 293385, Note_on_c, 3, 67, 125
1, 293518, Note_off_c, 3, 67, 64
1, 293519, Note_off_c, 3, 71, 64
1, 293519, Note_off_c, 2, 76, 64
1, 293529, Note_on_c, 2, 76, 112
1, 293529, Note_on_c, 3, 71, 123
1, 293530, Note_on_c, 3, 67, 125
1, 293660, Note_off_c, 3, 67, 64
1, 293661, Note_off_c, 3, 71, 64
1, 293671, Note_on_c, 3, 71, 123
1, 293671, Note_on_c, 3, 67, 125
1, 293804, Note_off_c, 2, 76, 64
1, 293810, Note_on_c, 2, 76, 112
1, 293871, Note_off_c, 3, 67, 64
1, 293872, Note_off_c, 3, 71, 64
1, 293957, Note_on_c, 4, 61, 126
1, 293957, Note_on_c, 3, 69, 124
1, 294027, Note_off_c, 2, 76, 64
1, 294027, Note_on_c, 1, 78, 109
1, 294062, Note_on_c, 2, 76, 112
1, 294074, Note_off_c, 1, 78, 64
1, 294088, Note_off_c, 4, 61, 64
1, 294089, Note_off_c, 3, 69, 64
1, 294097, Note_on_c, 3, 74, 111
1, 294099, Note_on_c, 3, 69, 124
1, 294099, Note_on_c, 4, 61, 126
1, 294100, Note_off_c, 2, 76, 64
1, 294230, Note_off_c, 4, 61, 64
1, 294231, Note_off_c, 3, 69, 64
1, 294241, Note_off_c, 3, 74, 64
1, 294241, Note_on_c, 2, 76, 112
1, 294242, Note_on_c, 4, 61, 126
1, 294242, Note_on_c, 3, 69, 124
1, 294381, Note_off_c, 2, 76, 64
1, 294382, Note_on_c, 2, 77, 112
1, 294520, Note_off_c, 4, 61, 64
1, 294521, Note_off_c, 3, 69, 64
1, 294525, Note_off_c, 2, 77, 64
1, 294526, Note_on_c, 1, 78, 109
1, 294526, Note_on_c, 3, 69, 124
1, 294527, Note_on_c, 4, 62, 125
1, 294654, Note_off_c, 1, 78, 64
1, 294656, Note_off_c, 4, 62, 64
1, 294656, Note_off_c, 3, 69, 64
1, 294664, Note_on_c, 1, 78, 105
1, 294666, Note_on_c, 3, 69, 124
1, 294667, Note_on_c, 4, 62, 125
1, 294794, Note_off_c, 3, 69, 64
1, 294794, Note_off_c, 4, 62, 64
1, 294804, Note_on_c, 3, 69, 124
1, 294805, Note_on_c, 4, 62, 125
1, 294936, Note_off_c, 4, 62, 64
1, 294936, Note_off_c, 3, 69, 64
1, 294939, Note_off_c, 1, 78, 64
1, 294945, Note_on_c, 1, 81, 105
1, 294946, Note_on_c, 3, 69, 124
1, 294946, Note_on_c, 3, 66, 125
1, 295054, Note_on_c, 1, 83, 105
1, 295066, Note_off_c, 1, 81, 64
1, 295091, Note_on_c, 4, 64, 125
1, 295091, Note_on_c, 1, 79, 105
1, 295103, Note_off_c, 1, 83, 64
1, 295103, Note_off_c, 3, 66, 64
1, 295200, Note_on_c, 1, 81, 105
1, 295213, Note_off_c, 1, 79, 64
1, 295236, Note_on_c, 4, 62, 125
1, 295236, Note_on_c, 1, 78, 105
1, 295248, Note_off_c, 1, 81, 64
1, 295249, Note_off_c, 4, 64, 64
1, 295380, Note_on_c, 3, 74, 111
1, 295392, Note_off_c, 1, 78, 64
1, 295511, Note_off_c, 3, 69, 64
1, 295522, Note_off_c, 4, 62, 64
1, 295523, Note_on_c, 3, 69, 124
1, 295523, Note_on_c, 1, 79, 105
1, 295524, Note_on_c, 4, 64, 125
1, 295534, Note_off_c, 3, 74, 64
1, 295632, Note_on_c, 1, 81, 105
1, 295656, Note_off_c, 1, 79, 64
1, 295667, Note_on_c, 1, 78, 105
1, 295668, Note_on_c, 3, 66, 125
1, 295680, Note_off_c, 1, 81, 64
1, 295680, Note_off_c, 4, 64, 64
1, 295776, Note_on_c, 1, 79, 98
1, 295801, Note_off_c, 1, 78, 64
1, 295813, Note_on_c, 3, 67, 125
1, 295813, Note_on_c, 2, 76, 104
1, 295825, Note_off_c, 1, 79, 64
1, 295826, Note_off_c, 3, 66, 64
1, 295957, Note_off_c, 2, 76, 64
1, 295957, Note_on_c, 3, 73, 110
1, 296087, Note_off_c, 3, 69, 64
1, 296098, Note_off_c, 3, 73, 64
1, 296099, Note_off_c, 3, 67, 64
1, 296099, Note_on_c, 3, 74, 107
1, 296100, Note_on_c, 3, 69, 124
1, 296100, Note_on_c, 3, 66, 125
1, 296232, Note_off_c, 3, 74, 64
1, 296244, Note_on_c, 3, 74, 107
1, 296388, Note_off_c, 3, 74, 64
1, 296388, Note_off_c, 3, 66, 64
1, 296389, Note_off_c, 3, 69, 64
1, 296389, Note_on_c, 3, 73, 110
1, 296390, Note_on_c, 4, 64, 125
1, 296390, Note_on_c, 3, 69, 124
1, 296520, Note_off_c, 3, 73, 64
1, 296529, Note_on_c, 3, 73, 113
1, 296660, Note_off_c, 3, 73, 64
1, 296671, Note_off_c, 4, 64, 64
1, 296672, Note_off_c, 3, 69, 64
1, 296672, Note_on_c, 3, 73, 113
1, 296673, Note_on_c, 4, 62, 125
1, 296673, Note_on_c, 4, 52, 126
1, 296691, Note_on_c, 3, 71, 123
1, 296723, Note_off_c, 3, 73, 64
1, 296800, Note_on_c, 3, 69, 126
1, 296808, Note_off_c, 3, 71, 64
1, 296827, Note_on_c, 3, 71, 123
1, 296859, Note_off_c, 3, 69, 64
1, 296940, Note_on_c, 3, 73, 118
1, 296952, Note_off_c, 3, 71, 64
1, 296978, Note_off_c, 4, 52, 64
1, 296979, Note_off_c, 4, 62, 64
1, 296979, Note_on_c, 3, 69, 126
1, 296980, Note_on_c, 4, 61, 126
1, 296980, Note_on_c, 4, 57, 126
1, 296992, Note_off_c, 3, 73, 64
1, 297266, Note_off_c, 4, 57, 64
1, 297266, Note_off_c, 4, 61, 64
1, 297267, Note_off_c, 3, 69, 64
1, 297267, Note_on_c, 3, 74, 127
1, 297268, Note_on_c, 4, 62, 125
1, 297320, Note_on_c, 4, 64, 125
1, 297326, Note_off_c, 4, 62, 64
1, 297355, Note_on_c, 3, 66, 125
1, 297376, Note_off_c, 4, 64, 64
1, 297405, Note_on_c, 4, 64, 125
1, 297410, Note_off_c, 3, 66, 64
1, 297458, Note_on_c, 4, 62, 125
1, 297465, Note_off_c, 4, 64, 64
1, 297476, Note_off_c, 3, 74, 64
1, 297477, Note_on_c, 2, 76, 127
1, 297498, Note_on_c, 4, 61, 126
1, 297517, Note_on_c, 3, 74, 127
1, 297525, Note_off_c, 4, 62, 64
1, 297531, Note_off_c, 2, 76, 64
1, 297556, Note_on_c, 4, 59, 126
1, 297556, Note_on_c, 3, 73, 127
1, 297562, Note_off_c, 4, 61, 64
1, 297568, Note_off_c, 3, 74, 64
1, 297610, Note_on_c, 4, 61, 126
1, 297616, Note_off_c, 4, 59, 64
1, 297645, Note_on_c, 4, 62, 125
1, 297670, Note_off_c, 4, 61, 64
1, 297701, Note_off_c, 3, 73, 64
1, 297701, Note_on_c, 3, 74, 127
1, 297702, Note_on_c, 4, 61, 126
1, 297707, Note_off_c, 4, 62, 64
1, 297755, Note_on_c, 4, 59, 126
1, 297761, Note_off_c, 4, 61, 64
1, 297790, Note_on_c, 4, 57, 126
1, 297813, Note_off_c, 4, 59, 64
1, 297840, Note_on_c, 3, 75, 127
1, 297841, Note_on_c, 4, 55, 126
1, 297847, Note_off_c, 4, 57, 64
1, 297853, Note_off_c, 3, 74, 64
1, 297895, Note_on_c, 4, 57, 126
1, 297901, Note_off_c, 4, 55, 64
1, 297932, Note_on_c, 4, 59, 126
1, 297955, Note_off_c, 4, 57, 64
1, 297984, Note_on_c, 2, 76, 127
1, 297984, Note_on_c, 4, 57, 126
1, 297991, Note_off_c, 4, 59, 64
1, 297996, Note_off_c, 3, 75, 64
1, 298035, Note_on_c, 4, 55, 126
1, 298041, Note_off_c, 4, 57, 64
1, 298072, Note_on_c, 4, 54, 126
1, 298095, Note_off_c, 4, 55, 64
1, 298115, Note_off_c, 2, 76, 64
1, 298126, Note_on_c, 2, 76, 127
1, 298127, Note_on_c, 4, 52, 126
1, 298132, Note_off_c, 4, 54, 64
1, 298181, Note_on_c, 4, 54, 126
1, 298186, Note_off_c, 4, 52, 64
1, 298215, Note_on_c, 4, 55, 126
1, 298236, Note_off_c, 4, 54, 64
1, 298271, Note_on_c, 4, 54, 126
1, 298277, Note_off_c, 4, 55, 64
1, 298323, Note_on_c, 4, 52, 126
1, 298329, Note_off_c, 4, 54, 64
1, 298360, Note_on_c, 4, 50, 126
1, 298385, Note_off_c, 4, 52, 64
1, 298408, Note_off_c, 2, 76, 64
1, 298416, Note_on_c, 2, 76, 127
1, 298416, Note_on_c, 4, 49, 126
1, 298424, Note_off_c, 4, 50, 64
1, 298472, Note_on_c, 4, 50, 126
1, 298477, Note_off_c, 4, 49, 64
1, 298506, Note_on_c, 4, 52, 126
1, 298529, Note_off_c, 4, 50, 64
1, 298564, Note_on_c, 4, 50, 126
1, 298568, Note_off_c, 4, 52, 64
1, 298614, Note_on_c, 4, 49, 126
1, 298620, Note_off_c, 4, 50, 64
1, 298629, Note_off_c, 2, 76, 64
1, 298630, Note_on_c, 1, 78, 127
1, 298647, Note_on_c, 4, 47, 126
1, 298663, Note_on_c, 2, 76, 127
1, 298671, Note_off_c, 4, 49, 64
1, 298675, Note_off_c, 1, 78, 64
1, 298700, Note_on_c, 3, 74, 127
1, 298701, Note_on_c, 4, 45, 126
1, 298707, Note_off_c, 4, 47, 64
1, 298711, Note_off_c, 2, 76, 64
1, 298755, Note_on_c, 4, 47, 126
1, 298761, Note_off_c, 4, 45, 64
1, 298793, Note_on_c, 4, 45, 126
1, 298816, Note_off_c, 4, 47, 64
1, 298843, Note_on_c, 2, 76, 127
1, 298845, Note_on_c, 4, 43, 126
1, 298851, Note_off_c, 4, 45, 64
1, 298857, Note_off_c, 3, 74, 64
1, 298901, Note_on_c, 4, 42, 126
1, 298907, Note_off_c, 4, 43, 64
1, 298937, Note_on_c, 4, 40, 126
1, 298959, Note_off_c, 4, 42, 64
1, 298988, Note_on_c, 2, 77, 127
1, 298990, Note_on_c, 4, 38, 127
1, 298996, Note_off_c, 4, 40, 64
1, 299000, Note_off_c, 2, 76, 64
1, 299046, Note_on_c, 4, 42, 126
1, 299052, Note_off_c, 4, 38, 64
1, 299080, Note_on_c, 4, 43, 126
1, 299105, Note_off_c, 4, 42, 64
1, 299134, Note_on_c, 1, 78, 127
1, 299135, Note_on_c, 4, 45, 126
1, 299141, Note_off_c, 4, 43, 64
1, 299147, Note_off_c, 2, 77, 64
1, 299191, Note_on_c, 4, 47, 126
1, 299196, Note_off_c, 4, 45, 64
1, 299225, Note_on_c, 4, 49, 126
1, 299248, Note_off_c, 4, 47, 64
1, 299266, Note_off_c, 1, 78, 64
1, 299277, Note_on_c, 1, 78, 124
1, 299278, Note_on_c, 4, 50, 126
1, 299284, Note_off_c, 4, 49, 64
1, 299332, Note_on_c, 4, 52, 126
1, 299340, Note_off_c, 4, 50, 64
1, 299370, Note_on_c, 4, 54, 126
1, 299393, Note_off_c, 4, 52, 64
1, 299424, Note_on_c, 4, 55, 126
1, 299430, Note_off_c, 4, 54, 64
1, 299478, Note_on_c, 4, 57, 126
1, 299484, Note_off_c, 4, 55, 64
1, 299512, Note_on_c, 4, 59, 126
1, 299535, Note_off_c, 4, 57, 64
1, 299564, Note_on_c, 4, 62, 125
1, 299565, Note_on_c, 4, 60, 126
1, 299571, Note_off_c, 4, 59, 64
1, 299577, Note_off_c, 1, 78, 64
1, 299619, Note_on_c, 3, 66, 125
1, 299625, Note_off_c, 4, 62, 64
1, 299657, Note_on_c, 3, 69, 124
1, 299682, Note_off_c, 3, 66, 64
1, 299713, Note_on_c, 3, 74, 111
1, 299719, Note_off_c, 3, 69, 64
1, 299767, Note_on_c, 2, 76, 108
1, 299772, Note_off_c, 3, 74, 64
1, 299801, Note_on_c, 1, 78, 105
1, 299826, Note_off_c, 2, 76, 64
1, 299854, Note_on_c, 1, 79, 105
1, 299855, Note_off_c, 4, 60, 64
1, 299856, Note_on_c, 4, 59, 126
1, 299860, Note_off_c, 1, 78, 64
1, 299908, Note_on_c, 1, 78, 105
1, 299914, Note_off_c, 1, 79, 64
1, 299940, Note_on_c, 1, 79, 105
1, 299965, Note_off_c, 1, 78, 64
1, 299995, Note_on_c, 1, 83, 105
1, 300000, Note_off_c, 1, 79, 64
1, 300050, Note_on_c, 1, 79, 105
1, 300056, Note_off_c, 1, 83, 64
1, 300084, Note_on_c, 3, 74, 111
1, 300109, Note_off_c, 1, 79, 64
1, 300141, Note_on_c, 3, 69, 124
1, 300143, Note_off_c, 4, 59, 64
1, 300144, Note_on_c, 4, 55, 126
1, 300148, Note_off_c, 3, 74, 64
1, 300196, Note_on_c, 3, 73, 114
1, 300202, Note_off_c, 3, 69, 64
1, 300232, Note_on_c, 2, 76, 108
1, 300257, Note_off_c, 3, 73, 64
1, 300290, Note_on_c, 1, 81, 105
1, 300296, Note_off_c, 2, 76, 64
1, 300344, Note_on_c, 1, 83, 105
1, 300350, Note_off_c, 1, 81, 64
1, 300383, Note_on_c, 1, 85, 105
1, 300408, Note_off_c, 1, 83, 64
1, 300436, Note_on_c, 1, 86, 105
1, 300437, Note_off_c, 4, 55, 64
1, 300437, Note_on_c, 4, 54, 126
1, 300441, Note_off_c, 1, 85, 64
1, 300491, Note_on_c, 1, 85, 105
1, 300497, Note_off_c, 1, 86, 64
1, 300524, Note_on_c, 1, 83, 105
1, 300547, Note_off_c, 1, 85, 64
1, 300577, Note_on_c, 1, 81, 105
1, 300583, Note_off_c, 1, 83, 64
1, 300629, Note_on_c, 1, 79, 105
1, 300635, Note_off_c, 1, 81, 64
1, 300666, Note_on_c, 1, 78, 105
1, 300677, Note_off_c, 1, 79, 64
1, 300716, Note_off_c, 1, 78, 64
1, 300721, Note_on_c, 3, 75, 108
1, 300769, Note_off_c, 3, 75, 64
1, 300777, Note_on_c, 2, 76, 108
1, 300812, Note_on_c, 1, 79, 105
1, 300864, Note_off_c, 2, 76, 64
1, 300865, Note_on_c, 1, 83, 105
1, 300866, Note_off_c, 4, 54, 64
1, 300866, Note_on_c, 3, 67, 125
1, 300867, Note_on_c, 4, 55, 126
1, 300901, Note_off_c, 1, 79, 64
1, 300918, Note_on_c, 1, 79, 105
1, 300951, Note_off_c, 1, 83, 64
1, 300953, Note_on_c, 2, 76, 108
1, 300993, Note_off_c, 3, 67, 64
1, 300995, Note_off_c, 4, 55, 64
1, 301003, Note_off_c, 1, 79, 64
1, 301005, Note_on_c, 1, 81, 105
1, 301005, Note_on_c, 3, 66, 125
1, 301006, Note_on_c, 4, 57, 126
1, 301038, Note_off_c, 2, 76, 64
1, 301057, Note_on_c, 1, 78, 105
1, 301090, Note_off_c, 1, 81, 64
1, 301091, Note_on_c, 3, 74, 111
1, 301132, Note_off_c, 3, 66, 64
1, 301134, Note_off_c, 4, 57, 64
1, 301142, Note_off_c, 1, 78, 64
1, 301144, Note_on_c, 4, 64, 125
1, 301144, Note_on_c, 1, 79, 105
1, 301145, Note_on_c, 4, 59, 126
1, 301179, Note_off_c, 3, 74, 64
1, 301199, Note_on_c, 2, 76, 108
1, 301231, Note_off_c, 1, 79, 64
1, 301233, Note_on_c, 3, 73, 117
1, 301258, Note_off_c, 2, 76, 64
1, 301279, Note_off_c, 4, 64, 64
1, 301281, Note_off_c, 4, 59, 64
1, 301291, Note_off_c, 3, 73, 64
1, 301291, Note_on_c, 3, 74, 118
1, 301292, Note_on_c, 4, 50, 124
1, 301347, Note_on_c, 4, 54, 124
1, 301384, Note_on_c, 4, 57, 124
1, 301426, Note_off_c, 4, 50, 64
1, 301438, Note_off_c, 4, 54, 64
1, 301438, Note_on_c, 4, 62, 123
1, 301474, Note_off_c, 4, 57, 64
1, 301491, Note_on_c, 4, 57, 124
1, 301524, Note_on_c, 4, 54, 124
1, 301526, Note_off_c, 4, 62, 64
1, 301580, Note_on_c, 4, 50, 124
1, 301582, Note_off_c, 4, 57, 64
1, 301618, Note_off_c, 4, 54, 64
1, 301635, Note_on_c, 4, 54, 124
1, 301670, Note_on_c, 4, 57, 124
1, 301712, Note_off_c, 4, 50, 64
1, 301722, Note_off_c, 3, 74, 64
1, 301722, Note_on_c, 1, 86, 127
1, 301723, Note_on_c, 4, 62, 123
1, 301725, Note_off_c, 4, 54, 64
1, 301761, Note_off_c, 4, 57, 64
1, 301775, Note_on_c, 4, 57, 124
1, 301809, Note_on_c, 4, 54, 124
1, 301811, Note_off_c, 4, 62, 64
1, 301863, Note_on_c, 4, 50, 124
1, 301863, Note_on_c, 1, 85, 127
1, 301867, Note_off_c, 4, 57, 64
1, 301875, Note_off_c, 1, 86, 64
1, 301903, Note_off_c, 4, 54, 64
1, 301919, Note_on_c, 4, 52, 124
1, 301934, Note_on_c, 1, 81, 127
1, 301945, Note_off_c, 1, 85, 64
1, 301953, Note_on_c, 4, 55, 124
1, 301993, Note_off_c, 4, 50, 64
1, 302002, Note_on_c, 1, 79, 127
1, 302002, Note_on_c, 4, 61, 124
1, 302005, Note_off_c, 4, 52, 64
1, 302013, Note_off_c, 1, 81, 64
1, 302040, Note_off_c, 4, 55, 64
1, 302058, Note_on_c, 4, 55, 124
1, 302092, Note_on_c, 4, 52, 124
1, 302094, Note_off_c, 4, 61, 64
1, 302141, Note_on_c, 4, 50, 124
1, 302145, Note_off_c, 4, 55, 64
1, 302177, Note_off_c, 4, 52, 64
1, 302192, Note_on_c, 4, 52, 124
1, 302227, Note_on_c, 4, 55, 124
1, 302265, Note_off_c, 4, 50, 64
1, 302273, Note_off_c, 1, 79, 64
1, 302274, Note_on_c, 2, 76, 127
1, 302276, Note_on_c, 4, 61, 124
1, 302278, Note_off_c, 4, 52, 64
1, 302314, Note_off_c, 4, 55, 64
1, 302329, Note_on_c, 4, 55, 124
1, 302345, Note_on_c, 3, 73, 127
1, 302357, Note_off_c, 2, 76, 64
1, 302362, Note_on_c, 4, 52, 124
1, 302363, Note_off_c, 4, 61, 64
1, 302412, Note_off_c, 4, 52, 64
1, 302413, Note_off_c, 4, 55, 64
1, 302413, Note_off_c, 3, 73, 64
1, 302414, Note_on_c, 3, 74, 119
1, 302414, Note_on_c, 4, 50, 124
1, 302468, Note_on_c, 4, 53, 124
1, 302504, Note_on_c, 4, 57, 124
1, 302543, Note_off_c, 4, 50, 64
1, 302554, Note_on_c, 4, 62, 123
1, 302556, Note_off_c, 4, 53, 64
1, 302593, Note_off_c, 4, 57, 64
1, 302606, Note_on_c, 4, 57, 124
1, 302641, Note_on_c, 4, 53, 124
1, 302644, Note_off_c, 4, 62, 64
1, 302697, Note_on_c, 4, 50, 124
1, 302699, Note_off_c, 4, 57, 64
1, 302735, Note_off_c, 4, 53, 64
1, 302750, Note_on_c, 4, 53, 124
1, 302785, Note_on_c, 4, 57, 124
1, 302825, Note_off_c, 4, 50, 64
1, 302835, Note_off_c, 3, 74, 64
1, 302835, Note_on_c, 1, 86, 117
1, 302836, Note_on_c, 4, 62, 123
1, 302837, Note_off_c, 4, 53, 64
1, 302876, Note_off_c, 4, 57, 64
1, 302895, Note_on_c, 4, 57, 124
1, 302930, Note_on_c, 4, 53, 124
1, 302932, Note_off_c, 4, 62, 64
1, 302988, Note_on_c, 1, 85, 117
1, 302989, Note_on_c, 4, 50, 124
1, 302991, Note_off_c, 4, 57, 64
1, 303001, Note_off_c, 1, 86, 64
1, 303028, Note_off_c, 4, 53, 64
1, 303041, Note_on_c, 4, 52, 124
1, 303059, Note_on_c, 1, 81, 117
1, 303070, Note_off_c, 1, 85, 64
1, 303076, Note_on_c, 4, 55, 124
1, 303114, Note_off_c, 4, 50, 64
1, 303124, Note_on_c, 1, 79, 117
1, 303124, Note_on_c, 4, 61, 124
1, 303127, Note_off_c, 4, 52, 64
1, 303134, Note_off_c, 1, 81, 64
1, 303163, Note_off_c, 4, 55, 64
1, 303177, Note_on_c, 4, 55, 124
1, 303209, Note_on_c, 4, 52, 124
1, 303211, Note_off_c, 4, 61, 64
1, 303261, Note_on_c, 4, 50, 124
1, 303265, Note_off_c, 4, 55, 64
1, 303300, Note_off_c, 4, 52, 64
1, 303315, Note_on_c, 4, 52, 124
1, 303351, Note_on_c, 4, 55, 124
1, 303392, Note_off_c, 4, 50, 64
1, 303399, Note_off_c, 1, 79, 64
1, 303400, Note_on_c, 2, 76, 120
1, 303400, Note_on_c, 4, 61, 124
1, 303404, Note_off_c, 4, 52, 64
1, 303443, Note_off_c, 4, 55, 64
1, 303456, Note_on_c, 4, 55, 124
1, 303471, Note_on_c, 3, 73, 127
1, 303483, Note_off_c, 2, 76, 64
1, 303491, Note_on_c, 4, 52, 124
1, 303492, Note_off_c, 4, 61, 64
1, 303543, Note_on_c, 4, 50, 124
1, 303543, Note_on_c, 3, 74, 127
1, 303547, Note_off_c, 4, 55, 64
1, 303557, Note_off_c, 3, 73, 64
1, 303586, Note_off_c, 4, 52, 64
1, 303603, Note_on_c, 3, 69, 124
1, 303637, Note_on_c, 2, 77, 108
1, 303639, Note_off_c, 3, 74, 64
1, 303689, Note_on_c, 2, 76, 108
1, 303693, Note_off_c, 2, 77, 64
1, 303732, Note_off_c, 3, 69, 64
1, 303739, Note_on_c, 3, 73, 118
1, 303772, Note_on_c, 1, 79, 105
1, 303776, Note_off_c, 2, 76, 64
1, 303824, Note_on_c, 2, 77, 108
1, 303829, Note_off_c, 1, 79, 64
1, 303866, Note_off_c, 3, 73, 64
1, 303877, Note_on_c, 3, 74, 115
1, 303912, Note_on_c, 1, 81, 105
1, 303914, Note_off_c, 2, 77, 64
1, 303964, Note_on_c, 1, 79, 105
1, 303965, Note_off_c, 4, 50, 64
1, 303965, Note_on_c, 3, 67, 125
1, 303966, Note_on_c, 4, 64, 125
1, 303966, Note_on_c, 4, 57, 126
1, 303969, Note_off_c, 1, 81, 64
1, 304003, Note_off_c, 3, 74, 64
1, 304013, Note_on_c, 2, 76, 108
1, 304019, Note_off_c, 1, 79, 64
1, 304049, Note_on_c, 3, 73, 118
1, 304076, Note_off_c, 2, 76, 64
1, 304107, Note_on_c, 3, 74, 115
1, 304109, Note_on_c, 4, 65, 125
1, 304109, Note_on_c, 4, 62, 125
1, 304114, Note_off_c, 3, 73, 64
1, 304123, Note_off_c, 4, 57, 64
1, 304124, Note_off_c, 3, 67, 64
1, 304124, Note_off_c, 4, 64, 64
1, 304168, Note_on_c, 3, 69, 124
1, 304199, Note_on_c, 2, 77, 108
1, 304201, Note_off_c, 3, 74, 64
1, 304255, Note_on_c, 2, 76, 108
1, 304260, Note_off_c, 2, 77, 64
1, 304297, Note_off_c, 3, 69, 64
1, 304307, Note_on_c, 3, 73, 118
1, 304343, Note_on_c, 1, 79, 105
1, 304345, Note_off_c, 2, 76, 64
1, 304398, Note_on_c, 2, 77, 108
1, 304402, Note_off_c, 1, 79, 64
1, 304436, Note_off_c, 3, 73, 64
1, 304446, Note_on_c, 3, 74, 115
1, 304482, Note_on_c, 1, 81, 105
1, 304484, Note_off_c, 2, 77, 64
1, 304532, Note_on_c, 1, 82, 105
1, 304533, Note_off_c, 4, 62, 64
1, 304533, Note_off_c, 4, 65, 64
1, 304534, Note_on_c, 3, 70, 124
1, 304534, Note_on_c, 3, 67, 125
1, 304535, Note_on_c, 4, 60, 126
1, 304537, Note_off_c, 1, 81, 64
1, 304573, Note_off_c, 3, 74, 64
1, 304585, Note_on_c, 1, 79, 105
1, 304589, Note_off_c, 1, 82, 64
1, 304618, Note_on_c, 2, 76, 108
1, 304641, Note_off_c, 1, 79, 64
1, 304668, Note_on_c, 2, 77, 108
1, 304669, Note_on_c, 3, 69, 124
1, 304670, Note_on_c, 4, 65, 125
1, 304674, Note_off_c, 2, 76, 64
1, 304682, Note_off_c, 3, 67, 64
1, 304682, Note_off_c, 4, 60, 64
1, 304683, Note_off_c, 3, 70, 64
1, 304726, Note_on_c, 3, 72, 125
1, 304761, Note_on_c, 1, 81, 105
1, 304763, Note_off_c, 2, 77, 64
1, 304815, Note_on_c, 1, 79, 105
1, 304820, Note_off_c, 1, 81, 64
1, 304857, Note_off_c, 3, 72, 64
1, 304868, Note_on_c, 2, 76, 108
1, 304903, Note_on_c, 1, 82, 105
1, 304905, Note_off_c, 1, 79, 64
1, 304955, Note_on_c, 1, 81, 105
1, 304960, Note_off_c, 1, 82, 64
1, 304993, Note_off_c, 2, 76, 64
1, 305003, Note_on_c, 2, 77, 108
1, 305033, Note_on_c, 1, 84, 105
1, 305035, Note_off_c, 1, 81, 64
1, 305084, Note_on_c, 1, 82, 105
1, 305085, Note_off_c, 4, 65, 64
1, 305086, Note_off_c, 3, 69, 64
1, 305086, Note_on_c, 3, 70, 124
1, 305087, Note_on_c, 3, 67, 125
1, 305087, Note_on_c, 4, 60, 126
1, 305089, Note_off_c, 1, 84, 64
1, 305124, Note_off_c, 2, 77, 64
1, 305133, Note_on_c, 1, 79, 105
1, 305141, Note_off_c, 1, 82, 64
1, 305170, Note_on_c, 2, 76, 108
1, 305196, Note_off_c, 1, 79, 64
1, 305226, Note_on_c, 3, 69, 124
1, 305226, Note_on_c, 2, 77, 108
1, 305227, Note_on_c, 4, 65, 125
1, 305232, Note_off_c, 2, 76, 64
1, 305242, Note_off_c, 4, 60, 64
1, 305243, Note_off_c, 3, 67, 64
1, 305243, Note_off_c, 3, 70, 64
1, 305283, Note_on_c, 3, 72, 125
1, 305320, Note_on_c, 1, 81, 105
1, 305321, Note_off_c, 2, 77, 64
1, 305376, Note_on_c, 1, 79, 105
1, 305383, Note_off_c, 1, 81, 64
1, 305418, Note_off_c, 3, 72, 64
1, 305427, Note_on_c, 2, 76, 108
1, 305462, Note_on_c, 1, 82, 105
1, 305464, Note_off_c, 1, 79, 64
1, 305514, Note_on_c, 1, 81, 105
1, 305520, Note_off_c, 1, 82, 64
1, 305554, Note_off_c, 2, 76, 64
1, 305564, Note_on_c, 2, 77, 108
1, 305600, Note_on_c, 1, 84, 105
1, 305602, Note_off_c, 1, 81, 64
1, 305650, Note_on_c, 1, 86, 105
1, 305651, Note_on_c, 3, 74, 115
1, 305651, Note_on_c, 3, 71, 123
1, 305652, Note_off_c, 3, 69, 64
1, 305652, Note_off_c, 4, 65, 64
1, 305652, Note_on_c, 4, 64, 125
1, 305657, Note_off_c, 1, 84, 64
1, 305695, Note_off_c, 2, 77, 64
1, 305705, Note_on_c, 1, 83, 105
1, 305709, Note_off_c, 1, 86, 64
1, 305736, Note_on_c, 1, 80, 105
1, 305759, Note_off_c, 1, 83, 64
1, 305787, Note_on_c, 1, 81, 105
1, 305789, Note_on_c, 3, 69, 124
1, 305793, Note_off_c, 1, 80, 64
1, 305801, Note_off_c, 3, 71, 64
1, 305801, Note_off_c, 3, 74, 64
1, 305802, Note_off_c, 4, 64, 64
1, 305840, Note_on_c, 4, 64, 125
1, 305871, Note_on_c, 3, 72, 125
1, 305875, Note_off_c, 3, 69, 64
1, 305925, Note_on_c, 3, 71, 123
1, 305930, Note_off_c, 3, 72, 64
1, 305965, Note_off_c, 4, 64, 64
1, 305973, Note_on_c, 3, 68, 124
1, 306003, Note_on_c, 3, 74, 115
1, 306005, Note_off_c, 3, 71, 64
1, 306055, Note_on_c, 3, 72, 122
1, 306061, Note_off_c, 3, 74, 64
1, 306092, Note_off_c, 3, 68, 64
1, 306103, Note_on_c, 3, 69, 124
1, 306136, Note_off_c, 3, 72, 64
1, 306136, Note_on_c, 2, 76, 108
1, 306186, Note_off_c, 1, 81, 64
1, 306186, Note_on_c, 1, 86, 113
1, 306187, Note_on_c, 3, 74, 111
1, 306187, Note_on_c, 2, 77, 116
1, 306190, Note_off_c, 2, 76, 64
1, 306226, Note_off_c, 3, 69, 64
1, 306236, Note_on_c, 3, 71, 123
1, 306243, Note_off_c, 3, 74, 64
1, 306272, Note_on_c, 3, 68, 124
1, 306297, Note_off_c, 3, 71, 64
1, 306328, Note_on_c, 2, 76, 116
1, 306328, Note_on_c, 1, 85, 113
1, 306329, Note_on_c, 3, 69, 124
1, 306335, Note_off_c, 3, 68, 64
1, 306342, Note_off_c, 2, 77, 64
1, 306343, Note_off_c, 1, 86, 64
1, 306387, Note_on_c, 3, 73, 114
1, 306394, Note_off_c, 3, 69, 64
1, 306426, Note_on_c, 3, 69, 124
1, 306451, Note_off_c, 3, 73, 64
1, 306470, Note_off_c, 1, 85, 64
1, 306480, Note_on_c, 1, 85, 113
1, 306480, Note_on_c, 3, 75, 116
1, 306480, Note_on_c, 3, 66, 125
1, 306486, Note_off_c, 3, 69, 64
1, 306492, Note_off_c, 2, 76, 64
1, 306532, Note_on_c, 3, 69, 124
1, 306538, Note_off_c, 3, 66, 64
1, 306569, Note_on_c, 3, 66, 125
1, 306592, Note_off_c, 3, 69, 64
1, 306624, Note_on_c, 1, 83, 113
1, 306625, Note_on_c, 3, 74, 119
1, 306625, Note_on_c, 3, 67, 125
1, 306631, Note_off_c, 3, 66, 64
1, 306637, Note_off_c, 3, 75, 64
1, 306637, Note_off_c, 1, 85, 64
1, 306678, Note_on_c, 3, 71, 123
1, 306686, Note_off_c, 3, 67, 64
1, 306717, Note_on_c, 3, 67, 125
1, 306742, Note_off_c, 3, 71, 64
1, 306772, Note_on_c, 1, 82, 113
1, 306773, Note_on_c, 3, 73, 122
1, 306773, Note_on_c, 4, 64, 125
1, 306779, Note_off_c, 3, 67, 64
1, 306785, Note_off_c, 1, 83, 64
1, 306785, Note_off_c, 3, 74, 64
1, 306826, Note_on_c, 3, 67, 125
1, 306832, Note_off_c, 4, 64, 64
1, 306863, Note_on_c, 4, 64, 125
1, 306888, Note_off_c, 3, 67, 64
1, 306920, Note_on_c, 1, 81, 117
1, 306921, Note_on_c, 4, 65, 125
1, 306921, Note_on_c, 3, 72, 125
1, 306926, Note_off_c, 4, 64, 64
1, 306932, Note_off_c, 3, 73, 64
1, 306933, Note_off_c, 1, 82, 64
1, 306977, Note_on_c, 3, 69, 124
1, 306983, Note_off_c, 4, 65, 64
1, 307017, Note_on_c, 4, 65, 125
1, 307042, Note_off_c, 3, 69, 64
1, 307075, Note_on_c, 1, 79, 109
1, 307076, Note_on_c, 3, 70, 124
1, 307076, Note_on_c, 4, 61, 126
1, 307080, Note_off_c, 4, 65, 64
1, 307086, Note_off_c, 1, 81, 64
1, 307086, Note_off_c, 3, 72, 64
1, 307129, Note_on_c, 4, 64, 125
1, 307135, Note_off_c, 4, 61, 64
1, 307169, Note_on_c, 4, 61, 126
1, 307192, Note_off_c, 4, 64, 64
1, 307225, Note_on_c, 2, 77, 112
1, 307225, Note_on_c, 3, 69, 124
1, 307226, Note_on_c, 4, 62, 125
1, 307231, Note_off_c, 4, 61, 64
1, 307237, Note_off_c, 3, 70, 64
1, 307238, Note_off_c, 1, 79, 64
1, 307281, Note_on_c, 4, 65, 125
1, 307286, Note_off_c, 4, 62, 64
1, 307320, Note_on_c, 4, 62, 125
1, 307344, Note_off_c, 4, 65, 64
1, 307375, Note_on_c, 3, 75, 112
1, 307375, Note_on_c, 3, 66, 125
1, 307376, Note_on_c, 4, 57, 126
1, 307381, Note_off_c, 4, 62, 64
1, 307387, Note_off_c, 3, 69, 64
1, 307388, Note_off_c, 2, 77, 64
1, 307430, Note_on_c, 4, 60, 126
1, 307436, Note_off_c, 4, 57, 64
1, 307443, Note_off_c, 3, 66, 64
1, 307470, Note_on_c, 4, 57, 126
1, 307493, Note_off_c, 4, 60, 64
1, 307526, Note_on_c, 3, 74, 111
1, 307527, Note_on_c, 4, 58, 126
1, 307533, Note_off_c, 4, 57, 64
1, 307539, Note_off_c, 3, 75, 64
1, 307581, Note_on_c, 3, 67, 125
1, 307616, Note_on_c, 3, 70, 124
1, 307629, Note_off_c, 3, 74, 64
1, 307637, Note_off_c, 3, 67, 64
1, 307668, Note_on_c, 3, 74, 111
1, 307673, Note_off_c, 3, 70, 64
1, 307721, Note_on_c, 1, 79, 105
1, 307727, Note_off_c, 3, 74, 64
1, 307754, Note_on_c, 1, 82, 105
1, 307778, Note_off_c, 1, 79, 64
1, 307806, Note_on_c, 1, 86, 105
1, 307812, Note_off_c, 1, 82, 64
1, 307858, Note_on_c, 1, 84, 105
1, 307863, Note_off_c, 1, 86, 64
1, 307892, Note_on_c, 1, 83, 105
1, 307913, Note_off_c, 1, 84, 64
1, 307942, Note_on_c, 1, 81, 105
1, 307950, Note_off_c, 1, 83, 64
1, 308000, Note_on_c, 1, 79, 105
1, 308005, Note_off_c, 1, 81, 64
1, 308034, Note_on_c, 2, 77, 108
1, 308061, Note_off_c, 1, 79, 64
1, 308094, Note_on_c, 4, 36, 127
1, 308094, Note_on_c, 2, 76, 108
1, 308100, Note_off_c, 2, 77, 64
1, 308150, Note_on_c, 4, 40, 126
1, 308189, Note_on_c, 4, 43, 126
1, 308229, Note_off_c, 4, 40, 64
1, 308248, Note_off_c, 4, 36, 64
1, 308249, Note_off_c, 4, 58, 64
1, 308249, Note_on_c, 4, 48, 126
1, 308255, Note_off_c, 4, 43, 64
1, 308301, Note_on_c, 4, 52, 126
1, 308307, Note_off_c, 4, 48, 64
1, 308337, Note_on_c, 4, 55, 126
1, 308360, Note_off_c, 4, 52, 64
1, 308388, Note_off_c, 2, 76, 64
1, 308389, Note_on_c, 2, 77, 108
1, 308389, Note_on_c, 1, 81, 105
1, 308390, Note_on_c, 3, 72, 122
1, 308390, Note_on_c, 4, 41, 126
1, 308444, Note_off_c, 4, 55, 64
1, 308445, Note_on_c, 4, 45, 126
1, 308482, Note_on_c, 4, 48, 126
1, 308533, Note_off_c, 4, 45, 64
1, 308539, Note_off_c, 4, 41, 64
1, 308540, Note_on_c, 4, 53, 126
1, 308546, Note_off_c, 4, 48, 64
1, 308591, Note_on_c, 4, 57, 126
1, 308597, Note_off_c, 4, 53, 64
1, 308628, Note_on_c, 4, 60, 126
1, 308654, Note_off_c, 4, 57, 64
1, 308687, Note_off_c, 4, 60, 64
1, 308689, Note_off_c, 2, 77, 64
1, 308689, Note_off_c, 3, 72, 64
1, 308690, Note_off_c, 1, 81, 64
1, 308690, Note_on_c, 4, 60, 126
1, 308691, Note_on_c, 4, 52, 126
1, 308691, Note_on_c, 4, 48, 126
1, 308744, Note_on_c, 4, 64, 125
1, 308748, Note_off_c, 4, 60, 64
1, 308782, Note_on_c, 3, 67, 125
1, 308803, Note_off_c, 4, 64, 64
1, 308832, Note_on_c, 3, 72, 122
1, 308836, Note_off_c, 3, 67, 64
1, 308882, Note_on_c, 2, 76, 108
1, 308888, Note_off_c, 3, 72, 64
1, 308916, Note_on_c, 1, 79, 105
1, 308938, Note_off_c, 2, 76, 64
1, 308961, Note_off_c, 4, 48, 64
1, 308967, Note_off_c, 4, 52, 64
1, 308967, Note_on_c, 4, 53, 126
1, 308967, Note_on_c, 1, 81, 105
1, 308968, Note_on_c, 4, 48, 126
1, 308972, Note_off_c, 1, 79, 64
1, 309022, Note_on_c, 1, 84, 105
1, 309028, Note_off_c, 1, 81, 64
1, 309054, Note_on_c, 1, 89, 105
1, 309079, Note_off_c, 1, 84, 64
1, 309109, Note_on_c, 1, 84, 105
1, 309115, Note_off_c, 1, 89, 64
1, 309161, Note_on_c, 1, 81, 105
1, 309169, Note_off_c, 1, 84, 64
1, 309202, Note_on_c, 2, 77, 108
1, 309227, Note_off_c, 1, 81, 64
1, 309252, Note_off_c, 4, 48, 64
1, 309260, Note_off_c, 4, 53, 64
1, 309260, Note_on_c, 4, 52, 126
1, 309260, Note_on_c, 1, 84, 105
1, 309261, Note_on_c, 4, 48, 126
1, 309265, Note_off_c, 2, 77, 64
1, 309406, Note_on_c, 3, 72, 122
1, 309417, Note_off_c, 1, 84, 64
1, 309690, Note_off_c, 3, 72, 64
1, 309836, Note_on_c, 2, 77, 104
1, 310055, Note_off_c, 2, 77, 64
1, 310055, Note_on_c, 1, 79, 98
1, 310094, Note_on_c, 2, 77, 104
1, 310105, Note_off_c, 1, 79, 64
1, 310130, Note_on_c, 2, 76, 104
1, 310142, Note_off_c, 2, 77, 64
1, 310271, Note_on_c, 2, 77, 104
1, 310282, Note_off_c, 2, 76, 64
1, 310411, Note_on_c, 1, 78, 98
1, 310424, Note_off_c, 2, 77, 64
1, 310557, Note_on_c, 3, 70, 124
1, 310557, Note_on_c, 1, 79, 98
1, 310569, Note_off_c, 1, 78, 64
1, 310581, Note_off_c, 4, 52, 64
1, 310581, Note_off_c, 4, 48, 64
1, 310630, Note_on_c, 4, 62, 125
1, 310641, Note_off_c, 3, 70, 64
1, 310690, Note_off_c, 1, 79, 64
1, 310700, Note_on_c, 4, 65, 125
1, 310700, Note_on_c, 1, 79, 98
1, 310712, Note_off_c, 4, 62, 64
1, 310839, Note_on_c, 4, 64, 125
1, 310850, Note_off_c, 4, 65, 64
1, 310975, Note_off_c, 1, 79, 64
1, 310985, Note_on_c, 1, 79, 98
1, 311204, Note_off_c, 1, 79, 64
1, 311205, Note_on_c, 1, 81, 98
1, 311241, Note_on_c, 1, 79, 98
1, 311255, Note_off_c, 1, 81, 64
1, 311278, Note_on_c, 1, 78, 98
1, 311289, Note_off_c, 1, 79, 64
1, 311416, Note_on_c, 1, 79, 98
1, 311428, Note_off_c, 1, 78, 64
1, 311553, Note_on_c, 1, 80, 98
1, 311565, Note_off_c, 1, 79, 64
1, 311698, Note_off_c, 4, 64, 64
1, 311698, Note_on_c, 3, 72, 122
1, 311698, Note_on_c, 1, 81, 98
1, 311710, Note_off_c, 1, 80, 64
1, 311772, Note_on_c, 4, 64, 125
1, 311783, Note_off_c, 3, 72, 64
1, 311831, Note_off_c, 1, 81, 64
1, 311843, Note_on_c, 1, 81, 98
1, 311843, Note_on_c, 3, 67, 125
1, 311855, Note_off_c, 4, 64, 64
1, 311980, Note_on_c, 3, 66, 125
1, 311991, Note_off_c, 3, 67, 64
1, 312109, Note_off_c, 1, 81, 64
1, 312117, Note_on_c, 1, 82, 109
1, 312118, Note_on_c, 4, 55, 126
1, 312129, Note_off_c, 3, 66, 64
1, 312169, Note_on_c, 1, 84, 109
1, 312176, Note_off_c, 1, 82, 64
1, 312204, Note_on_c, 1, 86, 109
1, 312227, Note_off_c, 1, 84, 64
1, 312258, Note_on_c, 1, 84, 109
1, 312262, Note_off_c, 1, 86, 64
1, 312306, Note_on_c, 1, 82, 109
1, 312312, Note_off_c, 1, 84, 64
1, 312325, Note_off_c, 4, 55, 64
1, 312326, Note_on_c, 4, 57, 126
1, 312345, Note_on_c, 1, 81, 109
1, 312366, Note_on_c, 4, 55, 126
1, 312370, Note_off_c, 1, 82, 64
1, 312377, Note_off_c, 4, 57, 64
1, 312400, Note_on_c, 1, 79, 109
1, 312401, Note_on_c, 4, 54, 126
1, 312405, Note_off_c, 1, 81, 64
1, 312411, Note_off_c, 4, 55, 64
1, 312451, Note_on_c, 1, 81, 109
1, 312457, Note_off_c, 1, 79, 64
1, 312487, Note_on_c, 1, 79, 109
1, 312510, Note_off_c, 1, 81, 64
1, 312539, Note_on_c, 2, 77, 112
1, 312539, Note_on_c, 4, 55, 126
1, 312544, Note_off_c, 1, 79, 64
1, 312552, Note_off_c, 4, 54, 64
1, 312590, Note_on_c, 3, 75, 108
1, 312596, Note_off_c, 2, 77, 64
1, 312625, Note_on_c, 3, 74, 111
1, 312646, Note_off_c, 3, 75, 64
1, 312673, Note_on_c, 4, 56, 126
1, 312673, Note_on_c, 3, 72, 125
1, 312678, Note_off_c, 3, 74, 64
1, 312685, Note_off_c, 4, 55, 64
1, 312726, Note_on_c, 3, 74, 111
1, 312732, Note_off_c, 3, 72, 64
1, 312760, Note_on_c, 3, 75, 108
1, 312783, Note_off_c, 3, 74, 64
1, 312814, Note_on_c, 3, 74, 111
1, 312815, Note_on_c, 4, 57, 126
1, 312820, Note_off_c, 3, 75, 64
1, 312826, Note_off_c, 4, 56, 64
1, 312865, Note_on_c, 3, 72, 125
1, 312871, Note_off_c, 3, 74, 64
1, 312900, Note_on_c, 3, 70, 124
1, 312921, Note_off_c, 3, 72, 64
1, 312940, Note_off_c, 4, 57, 64
1, 312949, Note_on_c, 3, 69, 124
1, 312950, Note_on_c, 4, 57, 126
1, 312954, Note_off_c, 3, 70, 64
1, 313000, Note_on_c, 3, 70, 124
1, 313006, Note_off_c, 3, 69, 64
1, 313033, Note_on_c, 3, 72, 125
1, 313056, Note_off_c, 3, 70, 64
1, 313087, Note_on_c, 3, 70, 124
1, 313092, Note_off_c, 3, 72, 64
1, 313135, Note_on_c, 3, 69, 124
1, 313140, Note_off_c, 3, 70, 64
1, 313169, Note_on_c, 3, 67, 125
1, 313190, Note_off_c, 3, 69, 64
1, 313213, Note_off_c, 4, 57, 64
1, 313219, Note_on_c, 3, 66, 125
1, 313222, Note_on_c, 4, 57, 126
1, 313225, Note_off_c, 3, 67, 64
1, 313275, Note_on_c, 3, 72, 125
1, 313281, Note_off_c, 3, 66, 64
1, 313309, Note_on_c, 3, 74, 115
1, 313332, Note_off_c, 3, 72, 64
1, 313361, Note_on_c, 3, 75, 112
1, 313367, Note_off_c, 3, 74, 64
1, 313413, Note_on_c, 3, 74, 115
1, 313421, Note_off_c, 3, 75, 64
1, 313433, Note_off_c, 4, 57, 64
1, 313433, Note_on_c, 4, 58, 126
1, 313451, Note_on_c, 3, 72, 125
1, 313470, Note_on_c, 4, 57, 126
1, 313476, Note_off_c, 3, 74, 64
1, 313483, Note_off_c, 4, 58, 64
1, 313502, Note_on_c, 1, 81, 109
1, 313503, Note_on_c, 4, 55, 126
1, 313508, Note_off_c, 3, 72, 64
1, 313514, Note_off_c, 4, 57, 64
1, 313556, Note_on_c, 1, 79, 109
1, 313562, Note_off_c, 1, 81, 64
1, 313587, Note_on_c, 1, 78, 109
1, 313608, Note_off_c, 1, 79, 64
1, 313639, Note_on_c, 4, 57, 126
1, 313639, Note_on_c, 1, 84, 109
1, 313644, Note_off_c, 1, 78, 64
1, 313649, Note_off_c, 4, 55, 64
1, 313696, Note_on_c, 1, 82, 109
1, 313701, Note_off_c, 1, 84, 64
1, 313732, Note_on_c, 1, 81, 109
1, 313757, Note_off_c, 1, 82, 64
1, 313789, Note_on_c, 1, 89, 109
1, 313790, Note_on_c, 4, 58, 126
1, 313796, Note_off_c, 1, 81, 64
1, 313804, Note_off_c, 4, 57, 64
1, 313844, Note_on_c, 1, 88, 109
1, 313852, Note_off_c, 1, 89, 64
1, 313883, Note_on_c, 1, 86, 109
1, 313908, Note_off_c, 1, 88, 64
1, 313938, Note_on_c, 1, 84, 109
1, 313940, Note_on_c, 4, 59, 126
1, 313944, Note_off_c, 1, 86, 64
1, 313952, Note_off_c, 4, 58, 64
1, 313994, Note_on_c, 1, 83, 109
1, 314000, Note_off_c, 1, 84, 64
1, 314030, Note_on_c, 1, 81, 109
1, 314055, Note_off_c, 1, 83, 64
1, 314076, Note_off_c, 4, 59, 64
1, 314087, Note_on_c, 4, 59, 126
1, 314087, Note_on_c, 1, 80, 109
1, 314091, Note_off_c, 1, 81, 64
1, 314139, Note_on_c, 2, 77, 108
1, 314145, Note_off_c, 1, 80, 64
1, 314173, Note_on_c, 2, 76, 108
1, 314198, Note_off_c, 2, 77, 64
1, 314230, Note_on_c, 3, 74, 111
1, 314237, Note_off_c, 2, 76, 64
1, 314289, Note_on_c, 3, 72, 122
1, 314295, Note_off_c, 3, 74, 64
1, 314325, Note_on_c, 3, 71, 123
1, 314351, Note_off_c, 3, 72, 64
1, 314384, Note_on_c, 3, 69, 124
1, 314391, Note_off_c, 3, 71, 64
1, 314604, Note_off_c, 3, 69, 64
1, 314604, Note_on_c, 3, 71, 123
1, 314643, Note_on_c, 3, 69, 124
1, 314661, Note_off_c, 3, 71, 64
1, 314680, Note_on_c, 3, 68, 124
1, 314697, Note_off_c, 3, 69, 64
1, 314820, Note_on_c, 3, 69, 124
1, 314832, Note_off_c, 3, 68, 64
1, 314972, Note_off_c, 4, 59, 64
1, 314972, Note_on_c, 3, 70, 124
1, 314973, Note_on_c, 4, 62, 125
1, 314983, Note_off_c, 3, 69, 64
1, 315118, Note_on_c, 3, 71, 123
1, 315129, Note_off_c, 3, 70, 64
1, 315192, Note_on_c, 4, 64, 125
1, 315194, Note_off_c, 4, 62, 64
1, 315231, Note_on_c, 4, 62, 125
1, 315242, Note_off_c, 4, 64, 64
1, 315254, Note_off_c, 3, 71, 64
1, 315265, Note_on_c, 3, 71, 123
1, 315267, Note_on_c, 3, 69, 124
1, 315268, Note_on_c, 4, 61, 126
1, 315280, Note_off_c, 4, 62, 64
1, 315407, Note_on_c, 4, 62, 125
1, 315420, Note_off_c, 4, 61, 64
1, 315554, Note_on_c, 4, 63, 125
1, 315566, Note_off_c, 4, 62, 64
1, 315698, Note_on_c, 3, 68, 124
1, 315699, Note_on_c, 4, 64, 125
1, 315701, Note_off_c, 3, 69, 64
1, 315711, Note_off_c, 4, 63, 64
1, 315774, Note_off_c, 3, 71, 64
1, 315775, Note_on_c, 3, 72, 118
1, 315810, Note_on_c, 3, 71, 120
1, 315833, Note_off_c, 3, 72, 64
1, 315835, Note_off_c, 4, 64, 64
1, 315847, Note_on_c, 4, 64, 125
1, 315847, Note_on_c, 3, 69, 124
1, 315870, Note_off_c, 3, 71, 64
1, 315987, Note_on_c, 3, 71, 120
1, 316001, Note_off_c, 3, 69, 64
1, 316132, Note_on_c, 4, 65, 125
1, 316132, Note_on_c, 3, 72, 118
1, 316134, Note_off_c, 4, 64, 64
1, 316144, Note_off_c, 3, 71, 64
1, 316274, Note_on_c, 3, 73, 110
1, 316286, Note_off_c, 3, 72, 64
1, 316344, Note_off_c, 4, 65, 64
1, 316344, Note_on_c, 3, 66, 125
1, 316356, Note_off_c, 3, 68, 64
1, 316381, Note_on_c, 4, 65, 125
1, 316400, Note_off_c, 3, 66, 64
1, 316408, Note_off_c, 3, 73, 64
1, 316420, Note_on_c, 3, 73, 110
1, 316420, Note_on_c, 4, 64, 125
1, 316421, Note_on_c, 3, 71, 120
1, 316435, Note_off_c, 4, 65, 64
1, 316562, Note_on_c, 4, 65, 125
1, 316573, Note_off_c, 4, 64, 64
1, 316696, Note_off_c, 4, 65, 64
1, 316708, Note_on_c, 4, 65, 125
1, 316835, Note_off_c, 3, 71, 64
1, 316850, Note_on_c, 3, 70, 124
1, 316850, Note_on_c, 3, 66, 125
1, 316860, Note_off_c, 4, 65, 64
1, 316912, Note_off_c, 3, 73, 64
1, 316922, Note_on_c, 3, 74, 103
1, 316958, Note_on_c, 3, 73, 106
1, 316968, Note_off_c, 3, 74, 64
1, 316981, Note_off_c, 3, 66, 64
1, 316991, Note_on_c, 3, 71, 116
1, 316992, Note_on_c, 3, 66, 125
1, 317002, Note_off_c, 3, 73, 64
1, 317127, Note_on_c, 3, 73, 106
1, 317139, Note_off_c, 3, 71, 64
1, 317271, Note_off_c, 3, 66, 64
1, 317272, Note_off_c, 3, 70, 64
1, 317272, Note_on_c, 3, 74, 107
1, 317273, Note_on_c, 4, 59, 126
1, 317287, Note_off_c, 3, 73, 64
1, 317337, Note_on_c, 3, 66, 125
1, 317344, Note_off_c, 3, 74, 64
1, 317373, Note_on_c, 3, 71, 120
1, 317398, Note_off_c, 3, 66, 64
1, 317429, Note_on_c, 3, 74, 107
1, 317435, Note_off_c, 3, 71, 64
1, 317483, Note_on_c, 1, 78, 98
1, 317488, Note_off_c, 3, 74, 64
1, 317500, Note_off_c, 4, 59, 64
1, 317500, Note_on_c, 4, 61, 126
1, 317516, Note_on_c, 1, 83, 105
1, 317533, Note_on_c, 4, 59, 126
1, 317539, Note_off_c, 1, 78, 64
1, 317543, Note_off_c, 4, 61, 64
1, 317566, Note_on_c, 1, 86, 105
1, 317567, Note_on_c, 4, 58, 126
1, 317571, Note_off_c, 1, 83, 64
1, 317577, Note_off_c, 4, 59, 64
1, 317617, Note_on_c, 1, 83, 105
1, 317623, Note_off_c, 1, 86, 64
1, 317650, Note_on_c, 1, 78, 105
1, 317673, Note_off_c, 1, 83, 64
1, 317700, Note_on_c, 4, 59, 126
1, 317700, Note_on_c, 1, 83, 105
1, 317704, Note_off_c, 1, 78, 64
1, 317710, Note_off_c, 4, 58, 64
1, 317752, Note_on_c, 1, 78, 105
1, 317758, Note_off_c, 1, 83, 64
1, 317787, Note_on_c, 3, 74, 111
1, 317808, Note_off_c, 1, 78, 64
1, 317837, Note_on_c, 1, 79, 105
1, 317838, Note_on_c, 4, 52, 126
1, 317844, Note_off_c, 3, 74, 64
1, 317849, Note_off_c, 4, 59, 64
1, 317895, Note_on_c, 4, 40, 126
1, 317903, Note_off_c, 4, 52, 64
1, 317934, Note_on_c, 4, 43, 126
1, 317959, Note_off_c, 4, 40, 64
1, 317991, Note_on_c, 4, 47, 126
1, 317997, Note_off_c, 4, 43, 64
1, 318047, Note_on_c, 4, 52, 126
1, 318053, Note_off_c, 4, 47, 64
1, 318066, Note_off_c, 1, 79, 64
1, 318067, Note_on_c, 1, 81, 105
1, 318084, Note_on_c, 4, 55, 126
1, 318104, Note_on_c, 1, 79, 105
1, 318109, Note_off_c, 4, 52, 64
1, 318121, Note_off_c, 1, 81, 64
1, 318140, Note_on_c, 1, 78, 105
1, 318141, Note_on_c, 4, 59, 126
1, 318145, Note_off_c, 4, 55, 64
1, 318156, Note_off_c, 1, 79, 64
1, 318193, Note_on_c, 4, 55, 126
1, 318198, Note_off_c, 4, 59, 64
1, 318228, Note_on_c, 4, 52, 126
1, 318249, Note_off_c, 4, 55, 64
1, 318277, Note_on_c, 1, 79, 105
1, 318278, Note_on_c, 4, 55, 126
1, 318284, Note_off_c, 4, 52, 64
1, 318290, Note_off_c, 1, 78, 64
1, 318330, Note_on_c, 4, 52, 126
1, 318336, Note_off_c, 4, 55, 64
1, 318365, Note_on_c, 4, 47, 126
1, 318390, Note_off_c, 4, 52, 64
1, 318419, Note_on_c, 3, 73, 114
1, 318419, Note_on_c, 4, 57, 126
1, 318425, Note_off_c, 4, 47, 64
1, 318431, Note_off_c, 1, 79, 64
1, 318473, Note_on_c, 4, 64, 125
1, 318480, Note_off_c, 3, 73, 64
1, 318510, Note_on_c, 3, 69, 124
1, 318535, Note_off_c, 4, 64, 64
1, 318564, Note_on_c, 3, 73, 114
1, 318569, Note_off_c, 3, 69, 64
1, 318617, Note_on_c, 2, 76, 108
1, 318623, Note_off_c, 3, 73, 64
1, 318636, Note_off_c, 4, 57, 64
1, 318637, Note_on_c, 4, 59, 126
1, 318653, Note_on_c, 1, 81, 105
1, 318670, Note_on_c, 4, 57, 126
1, 318676, Note_off_c, 2, 76, 64
1, 318682, Note_off_c, 4, 59, 64
1, 318703, Note_on_c, 1, 85, 105
1, 318704, Note_on_c, 4, 56, 126
1, 318709, Note_off_c, 1, 81, 64
1, 318715, Note_off_c, 4, 57, 64
1, 318757, Note_on_c, 1, 81, 105
1, 318762, Note_off_c, 1, 85, 64
1, 318790, Note_on_c, 2, 76, 108
1, 318813, Note_off_c, 1, 81, 64
1, 318840, Note_on_c, 1, 81, 105
1, 318841, Note_on_c, 4, 57, 126
1, 318845, Note_off_c, 2, 76, 64
1, 318851, Note_off_c, 4, 56, 64
1, 318891, Note_on_c, 2, 76, 108
1, 318896, Note_off_c, 1, 81, 64
1, 318921, Note_on_c, 3, 73, 114
1, 318944, Note_off_c, 2, 76, 64
1, 318971, Note_on_c, 1, 78, 105
1, 318972, Note_on_c, 4, 50, 126
1, 318978, Note_off_c, 3, 73, 64
1, 318986, Note_off_c, 4, 57, 64
1, 319030, Note_on_c, 4, 38, 127
1, 319036, Note_off_c, 4, 50, 64
1, 319067, Note_on_c, 4, 42, 126
1, 319092, Note_off_c, 4, 38, 64
1, 319123, Note_on_c, 4, 45, 126
1, 319128, Note_off_c, 4, 42, 64
1, 319176, Note_on_c, 4, 50, 126
1, 319182, Note_off_c, 4, 45, 64
1, 319195, Note_off_c, 1, 78, 64
1, 319195, Note_on_c, 1, 79, 105
1, 319212, Note_on_c, 4, 54, 126
1, 319230, Note_on_c, 1, 78, 105
1, 319238, Note_off_c, 4, 50, 64
1, 319244, Note_off_c, 1, 79, 64
1, 319267, Note_on_c, 2, 76, 108
1, 319267, Note_on_c, 4, 57, 126
1, 319271, Note_off_c, 4, 54, 64
1, 319277, Note_off_c, 1, 78, 64
1, 319321, Note_on_c, 4, 54, 126
1, 319327, Note_off_c, 4, 57, 64
1, 319354, Note_on_c, 4, 50, 126
1, 319377, Note_off_c, 4, 54, 64
1, 319406, Note_on_c, 4, 54, 126
1, 319406, Note_on_c, 1, 78, 105
1, 319412, Note_off_c, 4, 50, 64
1, 319418, Note_off_c, 2, 76, 64
1, 319461, Note_on_c, 4, 50, 126
1, 319466, Note_off_c, 4, 54, 64
1, 319495, Note_on_c, 4, 45, 126
1, 319516, Note_off_c, 4, 50, 64
1, 319545, Note_on_c, 3, 71, 123
1, 319546, Note_on_c, 4, 55, 126
1, 319552, Note_off_c, 4, 45, 64
1, 319560, Note_off_c, 1, 78, 64
1, 319602, Note_on_c, 4, 64, 125
1, 319608, Note_off_c, 3, 71, 64
1, 319638, Note_on_c, 3, 67, 125
1, 319661, Note_off_c, 4, 64, 64
1, 319692, Note_on_c, 3, 71, 123
1, 319698, Note_off_c, 3, 67, 64
1, 319748, Note_on_c, 3, 67, 125
1, 319753, Note_off_c, 3, 71, 64
1, 319782, Note_on_c, 3, 71, 123
1, 319805, Note_off_c, 3, 67, 64
1, 319832, Note_on_c, 2, 76, 108
1, 319838, Note_off_c, 3, 71, 64
1, 319886, Note_on_c, 3, 71, 123
1, 319890, Note_off_c, 2, 76, 64
1, 319919, Note_on_c, 2, 76, 108
1, 319940, Note_off_c, 3, 71, 64
1, 319967, Note_on_c, 1, 79, 105
1, 319972, Note_off_c, 2, 76, 64
1, 320020, Note_on_c, 2, 76, 108
1, 320027, Note_off_c, 1, 79, 64
1, 320052, Note_on_c, 1, 79, 105
1, 320075, Note_off_c, 2, 76, 64
1, 320104, Note_on_c, 1, 83, 105
1, 320110, Note_off_c, 1, 79, 64
1, 320154, Note_on_c, 1, 84, 105
1, 320160, Note_off_c, 1, 83, 64
1, 320190, Note_on_c, 1, 83, 105
1, 320211, Note_off_c, 1, 84, 64
1, 320237, Note_on_c, 1, 81, 105
1, 320243, Note_off_c, 1, 83, 64
1, 320289, Note_on_c, 1, 79, 105
1, 320295, Note_off_c, 1, 81, 64
1, 320322, Note_on_c, 1, 78, 105
1, 320345, Note_off_c, 1, 79, 64
1, 320374, Note_off_c, 4, 55, 64
1, 320374, Note_on_c, 1, 79, 105
1, 320375, Note_on_c, 4, 56, 126
1, 320378, Note_off_c, 1, 78, 64
1, 320426, Note_on_c, 1, 81, 105
1, 320432, Note_off_c, 1, 79, 64
1, 320465, Note_on_c, 1, 79, 105
1, 320488, Note_off_c, 1, 81, 64
1, 320517, Note_on_c, 1, 78, 105
1, 320522, Note_off_c, 1, 79, 64
1, 320570, Note_on_c, 2, 76, 108
1, 320576, Note_off_c, 1, 78, 64
1, 320605, Note_on_c, 3, 74, 111
1, 320626, Note_off_c, 2, 76, 64
1, 320655, Note_off_c, 4, 56, 64
1, 320655, Note_on_c, 3, 73, 114
1, 320656, Note_on_c, 4, 33, 127
1, 320662, Note_off_c, 3, 74, 64
1, 320710, Note_on_c, 4, 37, 127
1, 320746, Note_on_c, 4, 40, 126
1, 320767, Note_off_c, 4, 37, 64
1, 320784, Note_off_c, 4, 33, 64
1, 320795, Note_on_c, 4, 45, 126
1, 320800, Note_off_c, 4, 40, 64
1, 320844, Note_on_c, 4, 49, 126
1, 320850, Note_off_c, 4, 45, 64
1, 320877, Note_on_c, 4, 52, 126
1, 320898, Note_off_c, 4, 49, 64
1, 320927, Note_off_c, 3, 73, 64
1, 320927, Note_on_c, 1, 78, 113
1, 320928, Note_on_c, 3, 74, 119
1, 320928, Note_on_c, 3, 69, 124
1, 320928, Note_on_c, 4, 38, 127
1, 320961, Note_off_c, 4, 52, 64
1, 320976, Note_on_c, 4, 42, 126
1, 321013, Note_on_c, 4, 45, 126
1, 321038, Note_off_c, 4, 42, 64
1, 321057, Note_off_c, 4, 38, 64
1, 321067, Note_on_c, 4, 50, 126
1, 321072, Note_off_c, 4, 45, 64
1, 321117, Note_on_c, 4, 54, 126
1, 321123, Note_off_c, 4, 50, 64
1, 321153, Note_on_c, 4, 57, 126
1, 321179, Note_off_c, 4, 54, 64
1, 321204, Note_off_c, 4, 57, 64
1, 321212, Note_off_c, 3, 69, 64
1, 321213, Note_off_c, 1, 78, 64
1, 321213, Note_off_c, 3, 74, 64
1, 321214, Note_on_c, 4, 49, 126
1, 321214, Note_on_c, 4, 57, 126
1, 321215, Note_on_c, 4, 45, 126
1, 321265, Note_on_c, 4, 61, 126
1, 321273, Note_off_c, 4, 57, 64
1, 321299, Note_on_c, 4, 64, 125
1, 321322, Note_off_c, 4, 61, 64
1, 321351, Note_on_c, 3, 69, 124
1, 321359, Note_off_c, 4, 64, 64
1, 321403, Note_on_c, 3, 73, 122
1, 321409, Note_off_c, 3, 69, 64
1, 321437, Note_on_c, 2, 76, 116
1, 321458, Note_off_c, 3, 73, 64
1, 321480, Note_off_c, 4, 49, 64
1, 321480, Note_off_c, 4, 45, 64
1, 321485, Note_on_c, 4, 50, 126
1, 321485, Note_on_c, 1, 78, 113
1, 321486, Note_on_c, 4, 45, 126
1, 321489, Note_off_c, 2, 76, 64
1, 321533, Note_on_c, 1, 81, 113
1, 321540, Note_off_c, 1, 78, 64
1, 321564, Note_on_c, 1, 86, 105
1, 321585, Note_off_c, 1, 81, 64
1, 321611, Note_on_c, 1, 81, 113
1, 321616, Note_off_c, 1, 86, 64
1, 321658, Note_on_c, 1, 78, 113
1, 321664, Note_off_c, 1, 81, 64
1, 321693, Note_on_c, 3, 74, 122
1, 321714, Note_off_c, 1, 78, 64
1, 321737, Note_off_c, 4, 45, 64
1, 321738, Note_off_c, 4, 50, 64
1, 321744, Note_off_c, 3, 74, 64
1, 321744, Note_on_c, 1, 81, 119
1, 321745, Note_on_c, 4, 49, 126
1, 321745, Note_on_c, 4, 45, 126
1, 321882, Note_off_c, 1, 81, 64
1, 321894, Note_on_c, 3, 69, 124
1, 322172, Note_off_c, 3, 69, 64
1, 322305, Note_on_c, 4, 62, 125
1, 322524, Note_off_c, 4, 62, 64
1, 322524, Note_on_c, 4, 64, 125
1, 322563, Note_on_c, 4, 62, 125
1, 322574, Note_off_c, 4, 64, 64
1, 322599, Note_on_c, 4, 61, 126
1, 322611, Note_off_c, 4, 62, 64
1, 322741, Note_on_c, 4, 62, 125
1, 322751, Note_off_c, 4, 61, 64
1, 322874, Note_on_c, 4, 63, 125
1, 322887, Note_off_c, 4, 62, 64
1, 323020, Note_on_c, 4, 64, 125
1, 323020, Note_on_c, 1, 79, 105
1, 323033, Note_off_c, 4, 63, 64
1, 323045, Note_off_c, 4, 45, 64
1, 323045, Note_off_c, 4, 49, 64
1, 323094, Note_on_c, 3, 71, 123
1, 323105, Note_off_c, 1, 79, 64
1, 323155, Note_off_c, 4, 64, 64
1, 323165, Note_on_c, 4, 64, 125
1, 323165, Note_on_c, 3, 74, 111
1, 323177, Note_off_c, 3, 71, 64
1, 323304, Note_on_c, 3, 73, 114
1, 323316, Note_off_c, 3, 74, 64
1, 323435, Note_off_c, 4, 64, 64
1, 323442, Note_on_c, 4, 64, 125
1, 323454, Note_off_c, 3, 73, 64
1, 323663, Note_off_c, 4, 64, 64
1, 323663, Note_on_c, 3, 66, 125
1, 323700, Note_on_c, 4, 64, 125
1, 323713, Note_off_c, 3, 66, 64
1, 323736, Note_on_c, 4, 62, 125
1, 323750, Note_off_c, 4, 64, 64
1, 323877, Note_on_c, 4, 64, 125
1, 323887, Note_off_c, 4, 62, 64
1, 324013, Note_on_c, 4, 65, 125
1, 324024, Note_off_c, 4, 64, 64
1, 324159, Note_on_c, 3, 66, 125
1, 324159, Note_on_c, 1, 81, 105
1, 324171, Note_off_c, 4, 65, 64
1, 324231, Note_on_c, 3, 73, 114
1, 324242, Note_off_c, 1, 81, 64
1, 324288, Note_off_c, 3, 66, 64
1, 324299, Note_on_c, 3, 66, 125
1, 324299, Note_on_c, 2, 76, 108
1, 324312, Note_off_c, 3, 73, 64
1, 324436, Note_on_c, 3, 75, 108
1, 324448, Note_off_c, 2, 76, 64
1, 324573, Note_on_c, 2, 76, 108
1, 324586, Note_off_c, 3, 75, 64
1, 324719, Note_off_c, 3, 66, 64
1, 324720, Note_on_c, 3, 71, 123
1, 324721, Note_on_c, 3, 67, 125
1, 324789, Note_off_c, 2, 76, 64
1, 324792, Note_on_c, 3, 75, 108
1, 324831, Note_on_c, 2, 76, 104
1, 324844, Note_off_c, 3, 75, 64
1, 324865, Note_on_c, 1, 78, 98
1, 324867, Note_on_c, 3, 69, 124
1, 324868, Note_on_c, 3, 66, 125
1, 324878, Note_off_c, 2, 76, 64
1, 324879, Note_off_c, 3, 67, 64
1, 324879, Note_off_c, 3, 71, 64
1, 325003, Note_on_c, 1, 79, 98
1, 325005, Note_on_c, 3, 67, 125
1, 325005, Note_on_c, 4, 64, 125
1, 325015, Note_off_c, 1, 78, 64
1, 325017, Note_off_c, 3, 66, 64
1, 325018, Note_off_c, 3, 69, 64
1, 325141, Note_on_c, 3, 72, 118
1, 325142, Note_on_c, 4, 63, 125
1, 325142, Note_on_c, 3, 69, 124
1, 325152, Note_off_c, 1, 79, 64
1, 325154, Note_off_c, 4, 64, 64
1, 325155, Note_off_c, 3, 67, 64
1, 325288, Note_on_c, 3, 71, 120
1, 325300, Note_off_c, 3, 72, 64
1, 325431, Note_off_c, 3, 69, 64
1, 325431, Note_off_c, 4, 63, 64
1, 325432, Note_on_c, 3, 67, 125
1, 325433, Note_on_c, 4, 64, 125
1, 325567, Note_off_c, 3, 71, 64
1, 325568, Note_on_c, 1, 79, 98
1, 325704, Note_on_c, 3, 70, 124
1, 325705, Note_off_c, 4, 64, 64
1, 325705, Note_on_c, 4, 61, 126
1, 325716, Note_off_c, 1, 79, 64
1, 325849, Note_on_c, 3, 69, 124
1, 325860, Note_off_c, 3, 70, 64
1, 325986, Note_on_c, 3, 66, 125
1, 325987, Note_off_c, 4, 61, 64
1, 325987, Note_on_c, 4, 62, 125
1, 325988, Note_off_c, 3, 67, 64
1, 326111, Note_off_c, 3, 69, 64
1, 326117, Note_on_c, 3, 69, 124
1, 326184, Note_on_c, 1, 78, 98
1, 326196, Note_off_c, 3, 69, 64
1, 326252, Note_off_c, 4, 62, 64
1, 326253, Note_on_c, 4, 59, 126
1, 326253, Note_on_c, 2, 76, 104
1, 326265, Note_off_c, 1, 78, 64
1, 326397, Note_on_c, 3, 74, 107
1, 326399, Note_on_c, 4, 65, 125
1, 326409, Note_off_c, 2, 76, 64
1, 326543, Note_off_c, 4, 59, 64
1, 326544, Note_on_c, 4, 64, 125
1, 326544, Note_on_c, 4, 58, 126
1, 326554, Note_off_c, 4, 65, 64
1, 326678, Note_off_c, 3, 74, 64
1, 326679, Note_off_c, 3, 66, 64
1, 326679, Note_on_c, 3, 68, 124
1, 326680, Note_on_c, 4, 62, 125
1, 326692, Note_off_c, 4, 64, 64
1, 326817, Note_off_c, 4, 58, 64
1, 326817, Note_on_c, 3, 69, 124
1, 326818, Note_on_c, 4, 61, 126
1, 326818, Note_on_c, 4, 57, 126
1, 326828, Note_off_c, 3, 68, 64
1, 326829, Note_off_c, 4, 62, 64
1, 327036, Note_off_c, 3, 69, 64
1, 327036, Note_on_c, 3, 71, 123
1, 327071, Note_on_c, 3, 69, 124
1, 327083, Note_off_c, 3, 71, 64
1, 327108, Note_on_c, 3, 68, 124
1, 327119, Note_off_c, 3, 69, 64
1, 327245, Note_on_c, 3, 69, 124
1, 327256, Note_off_c, 3, 68, 64
1, 327373, Note_off_c, 4, 57, 64
1, 327383, Note_on_c, 3, 70, 124
1, 327384, Note_on_c, 4, 62, 125
1, 327384, Note_on_c, 4, 45, 126
1, 327384, Note_on_c, 4, 57, 126
1, 327385, Note_off_c, 4, 61, 64
1, 327396, Note_off_c, 3, 69, 64
1, 327528, Note_on_c, 3, 71, 123
1, 327540, Note_off_c, 3, 70, 64
1, 327603, Note_on_c, 4, 56, 126
1, 327609, Note_off_c, 4, 57, 64
1, 327639, Note_on_c, 4, 57, 126
1, 327653, Note_off_c, 4, 56, 64
1, 327666, Note_off_c, 3, 71, 64
1, 327676, Note_on_c, 3, 71, 123
1, 327677, Note_on_c, 4, 59, 126
1, 327688, Note_off_c, 4, 57, 64
1, 327813, Note_on_c, 4, 57, 126
1, 327825, Note_off_c, 4, 59, 64
1, 327939, Note_off_c, 4, 57, 64
1, 327945, Note_off_c, 4, 45, 64
1, 327950, Note_off_c, 3, 71, 64
1, 327951, Note_off_c, 4, 62, 64
1, 327951, Note_on_c, 3, 73, 120
1, 327952, Note_on_c, 4, 64, 125
1, 327952, Note_on_c, 4, 57, 126
1, 327953, Note_on_c, 4, 45, 126
1, 328096, Note_on_c, 4, 55, 126
1, 328108, Note_off_c, 4, 57, 64
1, 328168, Note_off_c, 3, 73, 64
1, 328168, Note_on_c, 3, 74, 117
1, 328205, Note_on_c, 3, 73, 120
1, 328217, Note_off_c, 3, 74, 64
1, 328228, Note_off_c, 4, 55, 64
1, 328240, Note_on_c, 4, 55, 126
1, 328240, Note_on_c, 3, 71, 123
1, 328250, Note_off_c, 3, 73, 64
1, 328371, Note_on_c, 3, 73, 120
1, 328383, Note_off_c, 3, 71, 64
1, 328496, Note_off_c, 3, 73, 64
1, 328500, Note_off_c, 4, 45, 64
1, 328506, Note_off_c, 4, 55, 64
1, 328506, Note_on_c, 3, 73, 120
1, 328508, Note_off_c, 4, 64, 64
1, 328509, Note_on_c, 3, 69, 124
1, 328509, Note_on_c, 4, 54, 126
1, 328510, Note_on_c, 4, 45, 126
1, 328653, Note_on_c, 3, 74, 117
1, 328664, Note_off_c, 3, 73, 64
1, 328726, Note_on_c, 4, 52, 126
1, 328727, Note_off_c, 4, 54, 64
1, 328762, Note_on_c, 4, 54, 126
1, 328774, Note_off_c, 4, 52, 64
1, 328785, Note_off_c, 3, 74, 64
1, 328793, Note_on_c, 3, 74, 117
1, 328793, Note_on_c, 4, 55, 126
1, 328803, Note_off_c, 4, 54, 64
1, 328928, Note_on_c, 4, 54, 126
1, 328940, Note_off_c, 4, 55, 64
1, 329054, Note_off_c, 4, 54, 64
1, 329058, Note_off_c, 4, 45, 64
1, 329064, Note_off_c, 3, 74, 64
1, 329064, Note_off_c, 3, 69, 64
1, 329064, Note_on_c, 2, 76, 114
1, 329065, Note_on_c, 3, 73, 120
1, 329065, Note_on_c, 4, 54, 126
1, 329066, Note_on_c, 4, 45, 126
1, 329210, Note_on_c, 4, 52, 126
1, 329211, Note_off_c, 4, 54, 64
1, 329284, Note_off_c, 2, 76, 64
1, 329285, Note_on_c, 1, 78, 111
1, 329322, Note_on_c, 2, 76, 114
1, 329333, Note_off_c, 1, 78, 64
1, 329347, Note_off_c, 4, 52, 64
1, 329358, Note_on_c, 3, 74, 117
1, 329359, Note_on_c, 4, 52, 126
1, 329369, Note_off_c, 2, 76, 64
1, 329497, Note_on_c, 2, 76, 114
1, 329509, Note_off_c, 3, 74, 64
1, 329628, Note_off_c, 4, 45, 64
1, 329634, Note_off_c, 4, 52, 64
1, 329634, Note_on_c, 1, 78, 111
1, 329635, Note_on_c, 3, 69, 124
1, 329635, Note_on_c, 4, 62, 125
1, 329636, Note_off_c, 3, 73, 64
1, 329636, Note_on_c, 4, 57, 126
1, 329644, Note_off_c, 2, 76, 64
1, 329852, Note_off_c, 1, 78, 64
1, 329852, Note_off_c, 4, 62, 64
1, 329853, Note_on_c, 1, 79, 111
1, 329853, Note_on_c, 4, 64, 125
1, 329890, Note_on_c, 1, 78, 111
1, 329891, Note_on_c, 4, 62, 125
1, 329902, Note_off_c, 4, 64, 64
1, 329902, Note_off_c, 1, 79, 64
1, 329925, Note_on_c, 4, 61, 126
1, 329925, Note_on_c, 2, 76, 114
1, 329936, Note_off_c, 1, 78, 64
1, 329937, Note_off_c, 4, 62, 64
1, 330061, Note_on_c, 1, 78, 111
1, 330061, Note_on_c, 4, 63, 125
1, 330072, Note_off_c, 2, 76, 64
1, 330073, Note_off_c, 4, 61, 64
1, 330198, Note_off_c, 3, 69, 64
1, 330198, Note_off_c, 4, 57, 64
1, 330198, Note_on_c, 1, 79, 111
1, 330199, Note_on_c, 4, 57, 126
1, 330199, Note_on_c, 4, 64, 125
1, 330211, Note_off_c, 1, 78, 64
1, 330213, Note_off_c, 4, 63, 64
1, 330257, Note_on_c, 2, 76, 114
1, 330263, Note_off_c, 1, 79, 64
1, 330291, Note_on_c, 3, 73, 120
1, 330314, Note_off_c, 2, 76, 64
1, 330344, Note_on_c, 3, 69, 124
1, 330349, Note_off_c, 3, 73, 64
1, 330395, Note_on_c, 3, 67, 125
1, 330403, Note_off_c, 3, 69, 64
1, 330417, Note_off_c, 4, 64, 64
1, 330434, Note_on_c, 4, 64, 125
1, 330461, Note_off_c, 3, 67, 64
1, 330494, Note_off_c, 4, 57, 64
1, 330494, Note_on_c, 4, 61, 126
1, 330500, Note_off_c, 4, 64, 64
1, 330552, Note_on_c, 4, 64, 125
1, 330558, Note_off_c, 4, 61, 64
1, 330590, Note_on_c, 3, 67, 125
1, 330615, Note_off_c, 4, 64, 64
1, 330644, Note_on_c, 3, 69, 124
1, 330649, Note_off_c, 3, 67, 64
1, 330695, Note_on_c, 3, 73, 114
1, 330701, Note_off_c, 3, 69, 64
1, 330729, Note_on_c, 2, 76, 108
1, 330750, Note_off_c, 3, 73, 64
1, 330778, Note_on_c, 1, 79, 105
1, 330785, Note_off_c, 2, 76, 64
1, 330835, Note_on_c, 2, 76, 108
1, 330839, Note_off_c, 1, 79, 64
1, 330868, Note_on_c, 3, 73, 114
1, 330892, Note_off_c, 2, 76, 64
1, 330919, Note_on_c, 3, 69, 124
1, 330924, Note_off_c, 3, 73, 64
1, 330972, Note_on_c, 3, 67, 125
1, 330980, Note_off_c, 3, 69, 64
1, 331010, Note_on_c, 4, 64, 125
1, 331037, Note_off_c, 3, 67, 64
1, 331068, Note_on_c, 4, 61, 126
1, 331076, Note_off_c, 4, 64, 64
1, 331126, Note_on_c, 4, 64, 125
1, 331132, Note_off_c, 4, 61, 64
1, 331163, Note_on_c, 3, 67, 125
1, 331187, Note_off_c, 4, 64, 64
1, 331214, Note_on_c, 3, 69, 124
1, 331220, Note_off_c, 3, 67, 64
1, 331266, Note_on_c, 3, 73, 114
1, 331272, Note_off_c, 3, 69, 64
1, 331301, Note_on_c, 2, 76, 108
1, 331322, Note_off_c, 3, 73, 64
1, 331349, Note_on_c, 4, 64, 125
1, 331349, Note_on_c, 1, 79, 105
1, 331357, Note_off_c, 2, 76, 64
1, 331405, Note_on_c, 2, 76, 108
1, 331411, Note_off_c, 1, 79, 64
1, 331440, Note_on_c, 1, 79, 105
1, 331496, Note_on_c, 1, 78, 105
1, 331496, Note_on_c, 4, 62, 125
1, 331497, Note_off_c, 2, 76, 64
1, 331500, Note_off_c, 1, 79, 64
1, 331506, Note_off_c, 4, 64, 64
1, 331547, Note_on_c, 3, 74, 111
1, 331552, Note_off_c, 1, 78, 64
1, 331579, Note_on_c, 1, 78, 105
1, 331635, Note_on_c, 4, 61, 126
1, 331635, Note_on_c, 2, 76, 111
1, 331636, Note_off_c, 3, 74, 64
1, 331640, Note_off_c, 1, 78, 64
1, 331645, Note_off_c, 4, 62, 64
1, 331686, Note_on_c, 3, 73, 117
1, 331692, Note_off_c, 2, 76, 64
1, 331720, Note_on_c, 2, 76, 111
1, 331774, Note_on_c, 3, 74, 114
1, 331775, Note_off_c, 3, 73, 64
1, 331775, Note_on_c, 4, 59, 126
1, 331779, Note_off_c, 2, 76, 64
1, 331785, Note_off_c, 4, 61, 64
1, 331827, Note_on_c, 3, 71, 125
1, 331833, Note_off_c, 3, 74, 64
1, 331861, Note_on_c, 3, 74, 114
1, 331917, Note_on_c, 3, 73, 117
1, 331918, Note_on_c, 4, 57, 126
1, 331920, Note_off_c, 3, 71, 64
1, 331924, Note_off_c, 3, 74, 64
1, 331932, Note_off_c, 4, 59, 64
1, 331978, Note_on_c, 3, 69, 126
1, 331981, Note_off_c, 3, 73, 64
1, 332010, Note_on_c, 3, 73, 117
1, 332066, Note_on_c, 3, 71, 125
1, 332067, Note_on_c, 4, 55, 126
1, 332069, Note_off_c, 3, 69, 64
1, 332073, Note_off_c, 3, 73, 64
1, 332079, Note_off_c, 4, 57, 64
1, 332118, Note_on_c, 3, 67, 127
1, 332124, Note_off_c, 3, 71, 64
1, 332152, Note_on_c, 3, 71, 125
1, 332210, Note_on_c, 3, 69, 126
1, 332211, Note_off_c, 3, 67, 64
1, 332211, Note_on_c, 4, 54, 126
1, 332216, Note_off_c, 3, 71, 64
1, 332221, Note_off_c, 4, 55, 64
1, 332262, Note_on_c, 3, 66, 127
1, 332269, Note_off_c, 3, 69, 64
1, 332298, Note_on_c, 3, 69, 126
1, 332358, Note_on_c, 4, 52, 126
1, 332358, Note_on_c, 3, 67, 127
1, 332359, Note_off_c, 3, 66, 64
1, 332363, Note_off_c, 3, 69, 64
1, 332369, Note_off_c, 4, 54, 64
1, 332412, Note_on_c, 4, 64, 125
1, 332418, Note_off_c, 3, 67, 64
1, 332448, Note_on_c, 3, 67, 127
1, 332507, Note_off_c, 3, 67, 64
1, 332507, Note_off_c, 4, 64, 64
1, 332508, Note_on_c, 4, 50, 126
1, 332508, Note_on_c, 3, 66, 127
1, 332518, Note_off_c, 4, 52, 64
1, 332651, Note_on_c, 1, 81, 105
1, 332704, Note_on_c, 1, 78, 105
1, 332710, Note_off_c, 1, 81, 64
1, 332722, Note_off_c, 3, 66, 64
1, 332741, Note_on_c, 3, 74, 111
1, 332766, Note_off_c, 1, 78, 64
1, 332797, Note_on_c, 3, 69, 124
1, 332797, Note_on_c, 3, 67, 125
1, 332797, Note_on_c, 3, 73, 114
1, 332801, Note_off_c, 3, 74, 64
1, 332852, Note_on_c, 2, 76, 108
1, 332857, Note_off_c, 3, 73, 64
1, 332888, Note_on_c, 3, 69, 124
1, 332934, Note_on_c, 1, 81, 105
1, 332936, Note_off_c, 2, 76, 64
1, 332988, Note_on_c, 1, 79, 105
1, 332993, Note_off_c, 1, 81, 64
1, 333024, Note_on_c, 2, 76, 108
1, 333046, Note_off_c, 1, 79, 64
1, 333069, Note_off_c, 3, 69, 64
1, 333070, Note_off_c, 3, 67, 64
1, 333074, Note_on_c, 3, 74, 111
1, 333076, Note_on_c, 3, 69, 124
1, 333076, Note_on_c, 3, 66, 125
1, 333081, Note_off_c, 2, 76, 64
1, 333131, Note_on_c, 1, 78, 105
1, 333169, Note_on_c, 3, 69, 124
1, 333170, Note_off_c, 3, 74, 64
1, 333219, Note_on_c, 1, 81, 105
1, 333221, Note_off_c, 1, 78, 64
1, 333278, Note_on_c, 1, 78, 105
1, 333283, Note_off_c, 1, 81, 64
1, 333313, Note_on_c, 3, 74, 111
1, 333336, Note_off_c, 1, 78, 64
1, 333360, Note_off_c, 3, 66, 64
1, 333366, Note_on_c, 3, 73, 114
1, 333367, Note_on_c, 3, 69, 124
1, 333367, Note_on_c, 3, 67, 125
1, 333371, Note_off_c, 3, 74, 64
1, 333419, Note_on_c, 2, 76, 108
1, 333424, Note_off_c, 3, 73, 64
1, 333445, Note_off_c, 3, 69, 64
1, 333452, Note_on_c, 3, 69, 124
1, 333501, Note_on_c, 1, 81, 105
1, 333503, Note_off_c, 2, 76, 64
1, 333552, Note_on_c, 1, 79, 105
1, 333558, Note_off_c, 1, 81, 64
1, 333585, Note_on_c, 2, 76, 108
1, 333608, Note_off_c, 1, 79, 64
1, 333632, Note_off_c, 3, 67, 64
1, 333637, Note_on_c, 3, 69, 124
1, 333637, Note_on_c, 3, 74, 111
1, 333638, Note_on_c, 3, 66, 125
1, 333643, Note_off_c, 2, 76, 64
1, 333693, Note_on_c, 1, 78, 105
1, 333720, Note_off_c, 3, 66, 64
1, 333722, Note_off_c, 3, 74, 64
1, 333728, Note_on_c, 3, 69, 124
1, 333750, Note_off_c, 3, 69, 64
1, 333750, Note_off_c, 3, 69, 64
1, 333770, Note_off_c, 1, 78, 64
1, 333776, Note_on_c, 1, 81, 107
1, 333777, Note_on_c, 3, 72, 124
1, 333777, Note_on_c, 3, 66, 125
1, 333831, Note_on_c, 3, 69, 124
1, 333837, Note_off_c, 3, 66, 64
1, 333867, Note_on_c, 3, 66, 125
1, 333890, Note_off_c, 3, 69, 64
1, 333919, Note_on_c, 3, 71, 125
1, 333920, Note_on_c, 4, 63, 125
1, 333926, Note_off_c, 3, 66, 64
1, 333930, Note_off_c, 3, 72, 64
1, 333976, Note_on_c, 3, 66, 125
1, 333984, Note_off_c, 4, 63, 64
1, 334018, Note_on_c, 4, 63, 125
1, 334041, Note_off_c, 3, 66, 64
1, 334054, Note_off_c, 3, 69, 64
1, 334054, Note_off_c, 3, 69, 64
1, 334054, Note_off_c, 3, 69, 64
1, 334054, Note_off_c, 3, 69, 64
1, 334070, Note_off_c, 1, 81, 64
1, 334070, Note_on_c, 1, 79, 117
1, 334071, Note_on_c, 4, 64, 125
1, 334077, Note_off_c, 4, 63, 64
1, 334127, Note_on_c, 3, 67, 125
1, 334132, Note_off_c, 4, 64, 64
1, 334169, Note_on_c, 4, 64, 125
1, 334192, Note_off_c, 3, 67, 64
1, 334221, Note_off_c, 3, 71, 64
1, 334221, Note_on_c, 3, 69, 124
1, 334222, Note_on_c, 4, 61, 126
1, 334229, Note_off_c, 4, 64, 64
1, 334245, Note_off_c, 4, 50, 64
1, 334275, Note_on_c, 4, 64, 125
1, 334281, Note_off_c, 4, 61, 64
1, 334314, Note_on_c, 4, 61, 126
1, 334335, Note_off_c, 4, 64, 64
1, 334364, Note_off_c, 1, 79, 64
1, 334364, Note_on_c, 1, 78, 117
1, 334367, Note_on_c, 4, 62, 125
1, 334372, Note_off_c, 4, 61, 64
1, 334413, Note_on_c, 3, 66, 125
1, 334426, Note_off_c, 4, 62, 64
1, 334459, Note_on_c, 4, 62, 125
1, 334474, Note_off_c, 3, 66, 64
1, 334509, Note_off_c, 3, 69, 64
1, 334509, Note_on_c, 3, 67, 125
1, 334510, Note_on_c, 4, 59, 126
1, 334517, Note_off_c, 4, 62, 64
1, 334567, Note_on_c, 4, 62, 125
1, 334573, Note_off_c, 4, 59, 64
1, 334606, Note_on_c, 4, 59, 126
1, 334631, Note_off_c, 4, 62, 64
1, 334659, Note_off_c, 1, 78, 64
1, 334660, Note_on_c, 2, 76, 120
1, 334660, Note_on_c, 4, 61, 126
1, 334666, Note_off_c, 4, 59, 64
1, 334714, Note_on_c, 4, 64, 125
1, 334720, Note_off_c, 4, 61, 64
1, 334751, Note_on_c, 4, 61, 126
1, 334776, Note_off_c, 4, 64, 64
1, 334806, Note_off_c, 3, 67, 64
1, 334807, Note_on_c, 3, 66, 125
1, 334807, Note_on_c, 4, 58, 126
1, 334813, Note_off_c, 4, 61, 64
1, 334863, Note_on_c, 4, 61, 126
1, 334869, Note_off_c, 4, 58, 64
1, 334901, Note_on_c, 4, 58, 126
1, 334927, Note_off_c, 4, 61, 64
1, 334955, Note_off_c, 2, 76, 64
1, 334956, Note_on_c, 3, 74, 125
1, 334956, Note_on_c, 4, 59, 126
1, 334962, Note_off_c, 4, 58, 64
1, 335012, Note_on_c, 4, 62, 125
1, 335017, Note_off_c, 4, 59, 64
1, 335052, Note_on_c, 4, 59, 126
1, 335075, Note_off_c, 4, 62, 64
1, 335106, Note_off_c, 3, 66, 64
1, 335106, Note_on_c, 4, 64, 125
1, 335107, Note_on_c, 4, 56, 126
1, 335114, Note_off_c, 4, 59, 64
1, 335166, Note_on_c, 4, 59, 126
1, 335172, Note_off_c, 4, 56, 64
1, 335205, Note_on_c, 4, 56, 126
1, 335230, Note_off_c, 4, 59, 64
1, 335259, Note_off_c, 3, 74, 64
1, 335259, Note_on_c, 3, 73, 125
1, 335261, Note_on_c, 4, 55, 126
1, 335265, Note_off_c, 4, 56, 64
1, 335311, Note_on_c, 4, 57, 126
1, 335317, Note_off_c, 4, 55, 64
1, 335352, Note_on_c, 4, 55, 126
1, 335378, Note_off_c, 4, 57, 64
1, 335406, Note_off_c, 4, 64, 64
1, 335406, Note_on_c, 3, 74, 117
1, 335408, Note_on_c, 4, 54, 126
1, 335414, Note_off_c, 4, 55, 64
1, 335418, Note_off_c, 3, 73, 64
1, 335460, Note_on_c, 1, 86, 105
1, 335466, Note_off_c, 3, 74, 64
1, 335498, Note_on_c, 1, 81, 109
1, 335521, Note_off_c, 1, 86, 64
1, 335551, Note_on_c, 1, 83, 109
1, 335552, Note_on_c, 4, 55, 126
1, 335558, Note_off_c, 1, 81, 64
1, 335566, Note_off_c, 4, 54, 64
1, 335606, Note_on_c, 1, 86, 105
1, 335612, Note_off_c, 1, 83, 64
1, 335641, Note_on_c, 1, 79, 109
1, 335665, Note_off_c, 1, 86, 64
1, 335694, Note_on_c, 1, 78, 109
1, 335696, Note_on_c, 4, 57, 126
1, 335699, Note_off_c, 1, 79, 64
1, 335707, Note_off_c, 4, 55, 64
1, 335751, Note_on_c, 1, 81, 109
1, 335757, Note_off_c, 1, 78, 64
1, 335790, Note_on_c, 3, 74, 115
1, 335811, Note_off_c, 1, 81, 64
1, 335842, Note_on_c, 2, 76, 112
1, 335843, Note_on_c, 4, 45, 126
1, 335849, Note_off_c, 3, 74, 64
1, 335856, Note_off_c, 4, 57, 64
1, 335897, Note_on_c, 1, 79, 109
1, 335903, Note_off_c, 2, 76, 64
1, 335937, Note_on_c, 3, 73, 118
1, 335960, Note_off_c, 1, 79, 64
1, 335988, Note_on_c, 3, 74, 115
1, 335989, Note_on_c, 4, 50, 126
1, 335993, Note_off_c, 3, 73, 64
1, 336001, Note_off_c, 4, 45, 64
1, 336272, Note_off_c, 3, 74, 64
1, 336273, Note_on_c, 1, 78, 112
1, 336274, Note_on_c, 3, 69, 126
1, 336274, Note_on_c, 4, 62, 125
1, 336434, Note_on_c, 3, 70, 126
1, 336434, Note_on_c, 2, 76, 115
1, 336435, Note_on_c, 4, 61, 126
1, 336447, Note_off_c, 1, 78, 64
1, 336448, Note_off_c, 4, 62, 64
1, 336448, Note_off_c, 3, 69, 64
1, 336449, Note_off_c, 4, 50, 64
1, 336593, Note_on_c, 3, 74, 118
1, 336594, Note_on_c, 4, 59, 126
1, 336594, Note_on_c, 3, 71, 125
1, 336604, Note_off_c, 2, 76, 64
1, 336606, Note_off_c, 3, 70, 64
1, 336606, Note_off_c, 4, 61, 64
1, 336751, Note_on_c, 3, 73, 121
1, 336751, Note_on_c, 3, 66, 127
1, 336752, Note_on_c, 4, 57, 126
1, 336763, Note_off_c, 3, 74, 64
1, 336765, Note_off_c, 4, 59, 64
1, 336766, Note_off_c, 3, 71, 64
1, 336906, Note_on_c, 3, 71, 125
1, 336908, Note_on_c, 3, 67, 127
1, 336909, Note_on_c, 4, 55, 126
1, 336921, Note_off_c, 3, 73, 64
1, 336923, Note_off_c, 4, 57, 64
1, 336923, Note_off_c, 3, 66, 64
1, 337062, Note_on_c, 4, 62, 125
1, 337062, Note_on_c, 3, 69, 126
1, 337063, Note_on_c, 4, 54, 126
1, 337074, Note_off_c, 3, 71, 64
1, 337075, Note_off_c, 4, 55, 64
1, 337076, Note_off_c, 3, 67, 64
1, 337209, Note_off_c, 3, 69, 64
1, 337220, Note_on_c, 3, 69, 126
1, 337221, Note_on_c, 4, 61, 126
1, 337221, Note_on_c, 4, 52, 126
1, 337233, Note_off_c, 4, 62, 64
1, 337233, Note_off_c, 4, 54, 64
1, 337297, Note_on_c, 3, 67, 127
1, 337312, Note_off_c, 3, 69, 64
1, 337374, Note_on_c, 4, 62, 125
1, 337374, Note_on_c, 3, 66, 127
1, 337375, Note_on_c, 4, 50, 126
1, 337384, Note_off_c, 3, 67, 64
1, 337386, Note_off_c, 4, 52, 64
1, 337387, Note_off_c, 4, 61, 64
1, 337522, Note_off_c, 3, 66, 64
1, 337533, Note_on_c, 3, 69, 126
1, 337685, Note_on_c, 4, 57, 126
1, 337685, Note_on_c, 4, 54, 126
1, 337686, Note_off_c, 4, 62, 64
1, 337686, Note_off_c, 4, 50, 64
1, 337828, Note_off_c, 4, 54, 64
1, 337829, Note_off_c, 4, 57, 64
1, 337842, Note_on_c, 4, 62, 125
1, 337843, Note_on_c, 4, 59, 126
1, 337913, Note_off_c, 3, 69, 64
1, 337913, Note_on_c, 3, 67, 127
1, 337992, Note_on_c, 4, 61, 126
1, 337992, Note_on_c, 4, 57, 126
1, 338005, Note_off_c, 4, 62, 64
1, 338005, Note_off_c, 4, 59, 64
1, 338067, Note_on_c, 3, 66, 127
1, 338081, Note_off_c, 3, 67, 64
1, 338146, Note_on_c, 4, 59, 126
1, 338146, Note_on_c, 4, 55, 126
1, 338157, Note_off_c, 4, 57, 64
1, 338157, Note_off_c, 4, 61, 64
1, 338215, Note_on_c, 4, 64, 127
1, 338229, Note_off_c, 3, 66, 64
1, 338284, Note_off_c, 4, 59, 64
1, 338296, Note_on_c, 4, 59, 126
1, 338296, Note_on_c, 4, 56, 126
1, 338308, Note_off_c, 4, 55, 64
1, 338364, Note_on_c, 4, 62, 125
1, 338377, Note_off_c, 4, 64, 64
1, 338427, Note_off_c, 4, 62, 64
1, 338429, Note_off_c, 4, 56, 64
1, 338430, Note_off_c, 4, 59, 64
1, 338438, Note_on_c, 3, 66, 127
1, 338438, Note_on_c, 4, 62, 125
1, 338439, Note_on_c, 4, 57, 126
1, 338597, Note_on_c, 4, 64, 127
1, 338598, Note_on_c, 4, 61, 126
1, 338608, Note_off_c, 3, 66, 64
1, 338610, Note_off_c, 4, 62, 64
1, 338742, Note_on_c, 1, 78, 108
1, 338743, Note_on_c, 4, 62, 125
1, 338743, Note_on_c, 3, 69, 126
1, 338753, Note_off_c, 4, 64, 64
1, 338755, Note_off_c, 4, 61, 64
1, 338795, Note_on_c, 1, 79, 105
1, 338801, Note_off_c, 1, 78, 64
1, 338833, Note_on_c, 1, 78, 105
1, 338856, Note_off_c, 1, 79, 64
1, 338885, Note_on_c, 2, 76, 108
1, 338886, Note_on_c, 4, 61, 126
1, 338892, Note_off_c, 1, 78, 64
1, 338900, Note_off_c, 4, 62, 64
1, 338944, Note_on_c, 1, 80, 105
1, 338950, Note_off_c, 2, 76, 64
1, 338978, Note_on_c, 1, 81, 103
1, 339001, Note_off_c, 1, 80, 64
1, 339036, Note_off_c, 3, 69, 64
1, 339036, Note_on_c, 3, 74, 111
1, 339037, Note_off_c, 4, 57, 64
1, 339037, Note_on_c, 3, 66, 127
1, 339038, Note_on_c, 4, 59, 126
1, 339042, Note_off_c, 1, 81, 64
1, 339048, Note_off_c, 4, 61, 64
1, 339090, Note_on_c, 2, 76, 108
1, 339096, Note_off_c, 3, 74, 64
1, 339126, Note_on_c, 3, 74, 111
1, 339149, Note_off_c, 2, 76, 64
1, 339178, Note_on_c, 3, 73, 114
1, 339179, Note_on_c, 4, 57, 126
1, 339183, Note_off_c, 3, 74, 64
1, 339189, Note_off_c, 4, 59, 64
1, 339235, Note_on_c, 2, 77, 108
1, 339240, Note_off_c, 3, 73, 64
1, 339269, Note_on_c, 1, 78, 105
1, 339292, Note_off_c, 2, 77, 64
1, 339323, Note_on_c, 3, 71, 119
1, 339324, Note_off_c, 3, 66, 64
1, 339324, Note_on_c, 4, 62, 125
1, 339324, Note_on_c, 4, 55, 126
1, 339329, Note_off_c, 1, 78, 64
1, 339335, Note_off_c, 4, 57, 64
1, 339375, Note_on_c, 3, 72, 119
1, 339381, Note_off_c, 3, 71, 64
1, 339413, Note_on_c, 3, 71, 119
1, 339437, Note_off_c, 3, 72, 64
1, 339466, Note_on_c, 3, 69, 126
1, 339467, Note_on_c, 4, 54, 126
1, 339471, Note_off_c, 3, 71, 64
1, 339479, Note_off_c, 4, 55, 64
1, 339517, Note_on_c, 3, 73, 114
1, 339523, Note_off_c, 3, 69, 64
1, 339552, Note_on_c, 3, 74, 111
1, 339573, Note_off_c, 3, 73, 64
1, 339605, Note_on_c, 3, 69, 126
1, 339606, Note_off_c, 4, 62, 64
1, 339606, Note_on_c, 4, 61, 126
1, 339607, Note_on_c, 4, 52, 126
1, 339611, Note_off_c, 3, 74, 64
1, 339619, Note_off_c, 4, 54, 64
1, 339680, Note_on_c, 3, 67, 127
1, 339694, Note_off_c, 3, 69, 64
1, 339759, Note_on_c, 4, 62, 125
1, 339759, Note_on_c, 3, 66, 127
1, 339760, Note_on_c, 4, 50, 126
1, 339762, Note_off_c, 4, 52, 64
1, 339766, Note_off_c, 4, 61, 64
1, 339772, Note_off_c, 3, 67, 64
1, 339895, Note_off_c, 3, 66, 64
1, 339906, Note_on_c, 1, 81, 121
1, 340038, Note_off_c, 4, 50, 64
1, 340039, Note_off_c, 4, 62, 64
1, 340045, Note_on_c, 4, 62, 125
1, 340045, Note_on_c, 4, 54, 126
1, 340192, Note_on_c, 4, 55, 126
1, 340204, Note_off_c, 4, 54, 64
1, 340263, Note_off_c, 1, 81, 64
1, 340264, Note_on_c, 1, 83, 107
1, 340339, Note_off_c, 4, 62, 64
1, 340340, Note_on_c, 1, 79, 109
1, 340340, Note_on_c, 3, 67, 127
1, 340350, Note_off_c, 1, 83, 64
1, 340407, Note_on_c, 2, 76, 112
1, 340421, Note_off_c, 1, 79, 64
1, 340482, Note_off_c, 4, 55, 64
1, 340483, Note_on_c, 3, 74, 115
1, 340483, Note_on_c, 3, 66, 127
1, 340484, Note_on_c, 4, 57, 126
1, 340494, Note_off_c, 2, 76, 64
1, 340494, Note_off_c, 3, 67, 64
1, 340637, Note_on_c, 1, 78, 109
1, 340637, Note_on_c, 4, 61, 126
1, 340651, Note_off_c, 4, 57, 64
1, 340652, Note_off_c, 3, 66, 64
1, 340652, Note_off_c, 3, 74, 64
1, 340712, Note_on_c, 2, 76, 112
1, 340725, Note_off_c, 1, 78, 64
1, 340785, Note_on_c, 4, 38, 127
1, 340785, Note_on_c, 3, 74, 115
1, 340795, Note_off_c, 4, 61, 64
1, 340796, Note_off_c, 2, 76, 64
1, 340838, Note_on_c, 4, 42, 126
1, 340875, Note_on_c, 4, 45, 126
1, 340929, Note_off_c, 4, 38, 64
1, 340929, Note_on_c, 4, 50, 126
1, 340935, Note_off_c, 4, 45, 64
1, 340936, Note_off_c, 4, 42, 64
1, 340941, Note_off_c, 3, 74, 64
1, 340980, Note_on_c, 4, 54, 126
1, 340985, Note_off_c, 4, 50, 64
1, 341014, Note_on_c, 4, 57, 126
1, 341037, Note_off_c, 4, 54, 64
1, 341070, Note_on_c, 1, 86, 105
1, 341070, Note_on_c, 4, 62, 125
1, 341075, Note_off_c, 4, 57, 64
1, 341126, Note_on_c, 1, 81, 105
1, 341132, Note_off_c, 1, 86, 64
1, 341163, Note_on_c, 1, 78, 107
1, 341178, Note_off_c, 4, 62, 64
1, 341186, Note_off_c, 1, 81, 64
1, 341215, Note_on_c, 3, 74, 113
1, 341220, Note_off_c, 1, 78, 64
1, 341268, Note_on_c, 3, 69, 126
1, 341276, Note_off_c, 3, 74, 64
1, 341309, Note_on_c, 3, 66, 127
1, 341333, Note_off_c, 3, 69, 64
1, 341364, Note_on_c, 4, 64, 125
1, 341364, Note_on_c, 4, 38, 127
1, 341368, Note_off_c, 3, 66, 64
1, 341418, Note_on_c, 4, 43, 126
1, 341451, Note_on_c, 4, 49, 126
1, 341499, Note_off_c, 4, 38, 64
1, 341499, Note_off_c, 4, 64, 64
1, 341500, Note_on_c, 4, 52, 126
1, 341502, Note_off_c, 4, 43, 64
1, 341506, Note_off_c, 4, 49, 64
1, 341556, Note_on_c, 4, 55, 126
1, 341561, Note_off_c, 4, 52, 64
1, 341592, Note_on_c, 4, 57, 126
1, 341617, Note_off_c, 4, 55, 64
1, 341648, Note_on_c, 1, 88, 105
1, 341648, Note_on_c, 4, 61, 126
1, 341654, Note_off_c, 4, 57, 64
1, 341699, Note_on_c, 1, 85, 105
1, 341705, Note_off_c, 1, 88, 64
1, 341732, Note_on_c, 1, 79, 107
1, 341748, Note_off_c, 4, 61, 64
1, 341755, Note_off_c, 1, 85, 64
1, 341788, Note_on_c, 2, 76, 110
1, 341794, Note_off_c, 1, 79, 64
1, 341844, Note_on_c, 3, 73, 116
1, 341849, Note_off_c, 2, 76, 64
1, 341882, Note_on_c, 3, 67, 127
1, 341905, Note_off_c, 3, 73, 64
1, 341934, Note_on_c, 4, 38, 127
1, 341934, Note_on_c, 3, 66, 127
1, 341940, Note_off_c, 3, 67, 64
1, 341988, Note_on_c, 4, 42, 126
1, 342022, Note_on_c, 4, 45, 126
1, 342073, Note_off_c, 3, 66, 64
1, 342073, Note_off_c, 4, 38, 64
1, 342074, Note_off_c, 4, 42, 64
1, 342074, Note_on_c, 4, 50, 126
1, 342079, Note_off_c, 4, 45, 64
1, 342125, Note_on_c, 4, 54, 126
1, 342131, Note_off_c, 4, 50, 64
1, 342163, Note_on_c, 4, 57, 126
1, 342188, Note_off_c, 4, 54, 64
1, 342217, Note_on_c, 4, 62, 125
1, 342217, Note_on_c, 1, 84, 105
1, 342224, Note_off_c, 4, 57, 64
1, 342274, Note_on_c, 1, 81, 105
1, 342280, Note_off_c, 1, 84, 64
1, 342310, Note_on_c, 1, 78, 107
1, 342327, Note_off_c, 4, 62, 64
1, 342335, Note_off_c, 1, 81, 64
1, 342365, Note_on_c, 3, 74, 113
1, 342372, Note_off_c, 1, 78, 64
1, 342420, Note_on_c, 3, 72, 124
1, 342427, Note_off_c, 3, 74, 64
1, 342455, Note_on_c, 3, 69, 126
1, 342480, Note_off_c, 3, 72, 64
1, 342505, Note_off_c, 3, 69, 64
1, 342513, Note_on_c, 3, 69, 126
1, 342514, Note_on_c, 4, 63, 125
1, 342567, Note_on_c, 3, 71, 125
1, 342604, Note_on_c, 3, 75, 110
1, 342656, Note_on_c, 1, 78, 107
1, 342661, Note_off_c, 3, 75, 64
1, 342671, Note_off_c, 3, 71, 64
1, 342708, Note_on_c, 1, 83, 105
1, 342714, Note_off_c, 1, 78, 64
1, 342742, Note_on_c, 3, 71, 125
1, 342791, Note_off_c, 3, 69, 64
1, 342791, Note_off_c, 4, 63, 64
1, 342792, Note_on_c, 4, 62, 125
1, 342792, Note_on_c, 3, 68, 126
1, 342804, Note_off_c, 1, 83, 64
1, 342840, Note_off_c, 3, 71, 64
1, 342844, Note_on_c, 2, 76, 110
1, 342883, Note_on_c, 1, 80, 107
1, 342909, Note_off_c, 2, 76, 64
1, 342942, Note_on_c, 1, 83, 105
1, 342948, Note_off_c, 1, 80, 64
1, 342994, Note_on_c, 1, 88, 105
1, 343000, Note_off_c, 1, 83, 64
1, 343032, Note_on_c, 2, 76, 108
1, 343080, Note_off_c, 4, 62, 64
1, 343081, Note_off_c, 3, 68, 64
1, 343081, Note_on_c, 3, 67, 125
1, 343082, Note_on_c, 4, 61, 126
1, 343096, Note_off_c, 1, 88, 64
1, 343132, Note_off_c, 2, 76, 64
1, 343136, Note_on_c, 3, 69, 124
1, 343175, Note_on_c, 3, 73, 114
1, 343228, Note_on_c, 2, 76, 108
1, 343234, Note_off_c, 3, 73, 64
1, 343244, Note_off_c, 3, 69, 64
1, 343279, Note_on_c, 1, 81, 105
1, 343286, Note_off_c, 2, 76, 64
1, 343317, Note_on_c, 3, 69, 124
1, 343368, Note_off_c, 3, 67, 64
1, 343368, Note_off_c, 4, 61, 64
1, 343368, Note_on_c, 3, 66, 125
1, 343369, Note_on_c, 4, 60, 126
1, 343381, Note_off_c, 1, 81, 64
1, 343417, Note_off_c, 3, 69, 64
1, 343419, Note_on_c, 3, 74, 111
1, 343460, Note_on_c, 1, 78, 105
1, 343487, Note_off_c, 3, 74, 64
1, 343515, Note_on_c, 1, 81, 105
1, 343521, Note_off_c, 1, 78, 64
1, 343565, Note_on_c, 1, 86, 105
1, 343571, Note_off_c, 1, 81, 64
1, 343602, Note_on_c, 3, 74, 111
1, 343656, Note_off_c, 3, 66, 64
1, 343656, Note_off_c, 4, 60, 64
1, 343656, Note_on_c, 4, 62, 125
1, 343657, Note_on_c, 4, 59, 126
1, 343673, Note_off_c, 1, 86, 64
1, 343709, Note_off_c, 3, 74, 64
1, 343710, Note_on_c, 1, 81, 105
1, 343746, Note_on_c, 1, 79, 105
1, 343769, Note_off_c, 1, 81, 64
1, 343796, Note_on_c, 4, 61, 126
1, 343796, Note_on_c, 4, 57, 126
1, 343808, Note_off_c, 4, 59, 64
1, 343809, Note_off_c, 4, 62, 64
1, 343846, Note_off_c, 1, 79, 64
1, 343848, Note_on_c, 1, 79, 105
1, 343882, Note_on_c, 1, 78, 105
1, 343905, Note_off_c, 1, 79, 64
1, 343936, Note_on_c, 4, 59, 126
1, 343936, Note_on_c, 4, 55, 126
1, 343948, Note_off_c, 4, 57, 64
1, 343949, Note_off_c, 4, 61, 64
1, 343988, Note_off_c, 1, 78, 64
1, 343992, Note_on_c, 1, 78, 105
1, 344028, Note_on_c, 2, 76, 108
1, 344053, Note_off_c, 1, 78, 64
1, 344082, Note_on_c, 4, 56, 126
1, 344095, Note_off_c, 4, 55, 64
1, 344139, Note_off_c, 2, 76, 64
1, 344141, Note_on_c, 2, 76, 108
1, 344178, Note_on_c, 3, 74, 111
1, 344203, Note_off_c, 2, 76, 64
1, 344235, Note_off_c, 4, 59, 64
1, 344236, Note_on_c, 4, 57, 126
1, 344236, Note_on_c, 3, 73, 114
1, 344240, Note_off_c, 3, 74, 64
1, 344246, Note_off_c, 4, 56, 64
1, 344288, Note_on_c, 3, 69, 124
1, 344327, Note_on_c, 2, 76, 108
1, 344342, Note_off_c, 3, 73, 64
1, 344385, Note_on_c, 3, 73, 114
1, 344400, Note_off_c, 3, 69, 64
1, 344436, Note_off_c, 2, 76, 64
1, 344438, Note_on_c, 1, 81, 105
1, 344474, Note_on_c, 2, 76, 108
1, 344492, Note_off_c, 3, 73, 64
1, 344529, Note_on_c, 1, 85, 105
1, 344544, Note_off_c, 1, 81, 64
1, 344578, Note_off_c, 2, 76, 64
1, 344580, Note_on_c, 1, 81, 105
1, 344588, Note_off_c, 1, 85, 64
1, 344613, Note_on_c, 1, 88, 105
1, 344663, Note_on_c, 1, 85, 105
1, 344668, Note_off_c, 1, 88, 64
1, 344676, Note_off_c, 1, 81, 64
1, 344711, Note_on_c, 1, 81, 105
1, 344716, Note_off_c, 1, 85, 64
1, 344745, Note_on_c, 2, 76, 108
1, 344766, Note_off_c, 1, 81, 64
1, 344793, Note_off_c, 4, 57, 64
1, 344796, Note_on_c, 4, 62, 125
1, 344796, Note_on_c, 4, 57, 126
1, 344796, Note_on_c, 1, 78, 105
1, 344802, Note_off_c, 2, 76, 64
1, 344850, Note_on_c, 3, 74, 111
1, 344884, Note_on_c, 1, 81, 105
1, 344898, Note_off_c, 1, 78, 64
1, 344937, Note_on_c, 1, 78, 105
1, 344952, Note_off_c, 3, 74, 64
1, 344984, Note_off_c, 1, 81, 64
1, 344986, Note_on_c, 1, 86, 105
1, 345021, Note_on_c, 1, 81, 105
1, 345034, Note_off_c, 1, 78, 64
1, 345042, Note_off_c, 1, 86, 64
1, 345069, Note_on_c, 1, 78, 105
1, 345072, Note_off_c, 1, 81, 64
1, 345116, Note_on_c, 1, 81, 105
1, 345122, Note_off_c, 1, 78, 64
1, 345152, Note_on_c, 3, 74, 111
1, 345204, Note_on_c, 1, 78, 105
1, 345219, Note_off_c, 1, 81, 64
1, 345258, Note_off_c, 3, 74, 64
1, 345262, Note_on_c, 3, 69, 124
1, 345297, Note_on_c, 3, 74, 111
1, 345312, Note_off_c, 1, 78, 64
1, 345321, Note_off_c, 3, 69, 64
1, 345348, Note_off_c, 4, 57, 64
1, 345352, Note_off_c, 4, 62, 64
1, 345353, Note_on_c, 4, 64, 125
1, 345353, Note_on_c, 3, 73, 114
1, 345354, Note_on_c, 4, 61, 126
1, 345354, Note_on_c, 4, 57, 126
1, 345358, Note_off_c, 3, 74, 64
1, 345408, Note_on_c, 3, 69, 124
1, 345443, Note_on_c, 2, 76, 108
1, 345457, Note_off_c, 3, 73, 64
1, 345497, Note_on_c, 3, 73, 114
1, 345513, Note_off_c, 3, 69, 64
1, 345545, Note_off_c, 2, 76, 64
1, 345547, Note_on_c, 1, 81, 105
1, 345584, Note_on_c, 2, 76, 108
1, 345599, Note_off_c, 3, 73, 64
1, 345633, Note_on_c, 1, 85, 105
1, 345648, Note_off_c, 1, 81, 64
1, 345683, Note_off_c, 2, 76, 64
1, 345683, Note_on_c, 1, 81, 105
1, 345688, Note_off_c, 1, 85, 64
1, 345713, Note_on_c, 1, 88, 105
1, 345736, Note_off_c, 1, 81, 64
1, 345763, Note_on_c, 1, 85, 105
1, 345767, Note_off_c, 1, 88, 64
1, 345811, Note_on_c, 1, 81, 105
1, 345817, Note_off_c, 1, 85, 64
1, 345846, Note_on_c, 2, 76, 108
1, 345869, Note_off_c, 1, 81, 64
1, 345894, Note_off_c, 4, 57, 64
1, 345898, Note_off_c, 4, 64, 64
1, 345898, Note_off_c, 4, 61, 64
1, 345899, Note_on_c, 4, 65, 125
1, 345899, Note_on_c, 2, 77, 108
1, 345900, Note_on_c, 4, 62, 125
1, 345900, Note_on_c, 4, 57, 126
1, 345904, Note_off_c, 2, 76, 64
1, 345956, Note_on_c, 3, 74, 111
1, 345989, Note_on_c, 1, 81, 105
1, 346004, Note_off_c, 2, 77, 64
1, 346043, Note_on_c, 2, 77, 108
1, 346058, Note_off_c, 3, 74, 64
1, 346091, Note_off_c, 1, 81, 64
1, 346092, Note_on_c, 1, 86, 105
1, 346127, Note_on_c, 1, 81, 105
1, 346140, Note_off_c, 2, 77, 64
1, 346148, Note_off_c, 1, 86, 64
1, 346175, Note_on_c, 2, 77, 108
1, 346181, Note_off_c, 1, 81, 64
1, 346225, Note_on_c, 1, 81, 105
1, 346233, Note_off_c, 2, 77, 64
1, 346261, Note_on_c, 3, 74, 111
1, 346283, Note_off_c, 1, 81, 64
1, 346311, Note_on_c, 2, 77, 108
1, 346317, Note_off_c, 3, 74, 64
1, 346367, Note_on_c, 3, 69, 124
1, 346373, Note_off_c, 2, 77, 64
1, 346406, Note_on_c, 3, 74, 115
1, 346431, Note_off_c, 3, 69, 64
1, 346456, Note_off_c, 4, 57, 64
1, 346460, Note_off_c, 4, 62, 64
1, 346461, Note_off_c, 4, 65, 64
1, 346461, Note_on_c, 3, 73, 118
1, 346467, Note_off_c, 3, 74, 64
1, 346515, Note_on_c, 4, 57, 126
1, 346555, Note_on_c, 4, 61, 126
1, 346615, Note_on_c, 4, 64, 125
1, 346620, Note_off_c, 4, 61, 64
1, 346626, Note_off_c, 3, 73, 64
1, 346630, Note_off_c, 4, 57, 64
1, 346672, Note_on_c, 3, 69, 124
1, 346678, Note_off_c, 4, 64, 64
1, 346697, Note_off_c, 3, 69, 64
1, 346707, Note_on_c, 3, 73, 118
1, 346707, Note_on_c, 3, 69, 124
1, 346754, Note_off_c, 3, 69, 64
1, 346754, Note_off_c, 3, 73, 64
1, 346761, Note_on_c, 3, 74, 115
1, 346761, Note_on_c, 3, 71, 123
1, 346815, Note_on_c, 4, 57, 126
1, 346856, Note_on_c, 4, 59, 126
1, 346915, Note_on_c, 4, 62, 125
1, 346923, Note_off_c, 4, 59, 64
1, 346932, Note_off_c, 4, 57, 64
1, 346973, Note_on_c, 3, 68, 124
1, 346979, Note_off_c, 4, 62, 64
1, 346990, Note_off_c, 3, 71, 64
1, 346991, Note_off_c, 3, 74, 64
1, 347008, Note_on_c, 3, 74, 115
1, 347009, Note_on_c, 3, 71, 123
1, 347055, Note_off_c, 3, 71, 64
1, 347056, Note_off_c, 3, 74, 64
1, 347062, Note_on_c, 2, 76, 112
1, 347063, Note_on_c, 3, 73, 118
1, 347078, Note_off_c, 3, 68, 64
1, 347119, Note_on_c, 4, 57, 126
1, 347159, Note_on_c, 4, 61, 126
1, 347223, Note_on_c, 4, 64, 125
1, 347228, Note_off_c, 4, 61, 64
1, 347240, Note_off_c, 4, 57, 64
1, 347280, Note_on_c, 3, 67, 125
1, 347286, Note_off_c, 4, 64, 64
1, 347300, Note_off_c, 2, 76, 64
1, 347300, Note_off_c, 3, 73, 64
1, 347322, Note_on_c, 2, 76, 112
1, 347322, Note_on_c, 3, 73, 118
1, 347372, Note_off_c, 3, 73, 64
1, 347373, Note_off_c, 2, 76, 64
1, 347379, Note_on_c, 1, 78, 109
1, 347380, Note_on_c, 3, 74, 115
1, 347395, Note_off_c, 3, 67, 64
1, 347439, Note_on_c, 4, 57, 126
1, 347478, Note_on_c, 4, 61, 126
1, 347534, Note_on_c, 4, 62, 125
1, 347539, Note_off_c, 4, 61, 64
1, 347548, Note_off_c, 4, 57, 64
1, 347587, Note_on_c, 3, 66, 125
1, 347592, Note_off_c, 4, 62, 64
1, 347606, Note_off_c, 1, 78, 64
1, 347606, Note_off_c, 3, 74, 64
1, 347624, Note_on_c, 1, 78, 109
1, 347624, Note_on_c, 3, 74, 115
1, 347669, Note_off_c, 3, 74, 64
1, 347669, Note_off_c, 1, 78, 64
1, 347677, Note_off_c, 3, 66, 64
1, 347684, Note_on_c, 4, 57, 126
1, 347684, Note_on_c, 1, 79, 109
1, 347685, Note_on_c, 4, 45, 126
1, 347748, Note_on_c, 1, 85, 105
1, 347790, Note_on_c, 1, 88, 105
1, 347798, Note_off_c, 1, 79, 64
1, 347819, Note_off_c, 1, 85, 64
1, 347850, Note_on_c, 1, 78, 109
1, 347880, Note_off_c, 1, 88, 64
1, 347905, Note_on_c, 1, 88, 105
1, 347944, Note_on_c, 1, 86, 105
1, 347950, Note_off_c, 1, 78, 64
1, 347965, Note_off_c, 1, 88, 64
1, 347994, Note_on_c, 2, 76, 112
1, 348046, Note_off_c, 1, 86, 64
1, 348048, Note_on_c, 1, 79, 109
1, 348055, Note_off_c, 2, 76, 64
1, 348084, Note_on_c, 1, 85, 105
1, 348140, Note_on_c, 3, 74, 115
1, 348156, Note_off_c, 1, 79, 64
1, 348171, Note_off_c, 1, 85, 64
1, 348193, Note_on_c, 1, 85, 105
1, 348233, Note_on_c, 1, 83, 105
1, 348250, Note_off_c, 3, 74, 64
1, 348258, Note_off_c, 1, 85, 64
1, 348285, Note_on_c, 3, 73, 114
1, 348335, Note_off_c, 1, 83, 64
1, 348336, Note_on_c, 2, 76, 108
1, 348342, Note_off_c, 3, 73, 64
1, 348371, Note_on_c, 1, 81, 105
1, 348425, Note_on_c, 3, 71, 123
1, 348438, Note_off_c, 2, 76, 64
1, 348452, Note_off_c, 1, 81, 64
1, 348475, Note_on_c, 1, 81, 105
1, 348513, Note_on_c, 1, 79, 105
1, 348527, Note_off_c, 3, 71, 64
1, 348534, Note_off_c, 1, 81, 64
1, 348565, Note_on_c, 3, 69, 124
1, 348623, Note_off_c, 1, 79, 64
1, 348624, Note_on_c, 3, 73, 114
1, 348632, Note_off_c, 3, 69, 64
1, 348663, Note_on_c, 1, 78, 105
1, 348722, Note_on_c, 3, 67, 125
1, 348738, Note_off_c, 3, 73, 64
1, 348751, Note_off_c, 1, 78, 64
1, 348776, Note_on_c, 1, 78, 110
1, 348818, Note_on_c, 2, 76, 113
1, 348836, Note_off_c, 3, 67, 64
1, 348843, Note_off_c, 1, 78, 64
1, 348878, Note_off_c, 2, 76, 64
1, 348879, Note_off_c, 4, 57, 64
1, 348879, Note_off_c, 4, 45, 64
1, 348880, Note_on_c, 3, 74, 116
1, 349024, Note_on_c, 3, 69, 124
1, 349024, Note_on_c, 3, 66, 125
1, 349095, Note_off_c, 3, 74, 64
1, 349095, Note_on_c, 2, 76, 107
1, 349132, Note_on_c, 3, 74, 110
1, 349144, Note_off_c, 2, 76, 64
1, 349157, Note_off_c, 3, 66, 64
1, 349158, Note_off_c, 3, 69, 64
1, 349168, Note_on_c, 3, 73, 113
1, 349169, Note_on_c, 3, 69, 124
1, 349169, Note_on_c, 3, 66, 125
1, 349180, Note_off_c, 3, 74, 64
1, 349301, Note_off_c, 3, 66, 64
1, 349301, Note_off_c, 3, 69, 64
1, 349311, Note_off_c, 3, 73, 64
1, 349311, Note_on_c, 3, 74, 114
1, 349312, Note_on_c, 3, 69, 124
1, 349312, Note_on_c, 3, 66, 125
1, 349451, Note_off_c, 3, 74, 64
1, 349452, Note_on_c, 3, 75, 111
1, 349512, Note_off_c, 3, 66, 64
1, 349512, Note_off_c, 3, 69, 64
1, 349596, Note_off_c, 3, 75, 64
1, 349597, Note_on_c, 3, 71, 123
1, 349597, Note_on_c, 3, 67, 125
1, 349597, Note_on_c, 2, 76, 111
1, 349730, Note_off_c, 3, 67, 64
1, 349731, Note_off_c, 2, 76, 64
1, 349731, Note_off_c, 3, 71, 64
1, 349741, Note_on_c, 2, 76, 111
1, 349742, Note_on_c, 3, 71, 123
1, 349742, Note_on_c, 3, 67, 125
1, 349871, Note_off_c, 3, 67, 64
1, 349872, Note_off_c, 3, 71, 64
1, 349882, Note_on_c, 3, 71, 123
1, 349882, Note_on_c, 3, 67, 125
1, 350015, Note_off_c, 2, 76, 64
1, 350023, Note_on_c, 2, 76, 111
1, 350082, Note_off_c, 3, 67, 64
1, 350083, Note_off_c, 3, 71, 64
1, 350168, Note_on_c, 3, 69, 124
1, 350168, Note_on_c, 4, 61, 126
1, 350238, Note_off_c, 2, 76, 64
1, 350238, Note_on_c, 1, 78, 108
1, 350273, Note_on_c, 2, 76, 111
1, 350285, Note_off_c, 1, 78, 64
1, 350298, Note_off_c, 4, 61, 64
1, 350299, Note_off_c, 3, 69, 64
1, 350309, Note_on_c, 3, 74, 110
1, 350309, Note_on_c, 3, 69, 124
1, 350310, Note_off_c, 2, 76, 64
1, 350310, Note_on_c, 4, 61, 126
1, 350441, Note_off_c, 4, 61, 64
1, 350442, Note_off_c, 3, 69, 64
1, 350452, Note_off_c, 3, 74, 64
1, 350452, Note_on_c, 2, 76, 117
1, 350453, Note_on_c, 4, 61, 126
1, 350453, Note_on_c, 3, 69, 124
1, 350592, Note_off_c, 2, 76, 64
1, 350592, Note_on_c, 2, 77, 117
1, 350731, Note_off_c, 4, 61, 64
1, 350732, Note_off_c, 3, 69, 64
1, 350736, Note_off_c, 2, 77, 64
1, 350736, Note_on_c, 1, 78, 111
1, 350737, Note_on_c, 3, 69, 124
1, 350737, Note_on_c, 4, 62, 125
1, 350868, Note_off_c, 1, 78, 64
1, 350869, Note_off_c, 4, 62, 64
1, 350869, Note_off_c, 3, 69, 64
1, 350878, Note_on_c, 1, 78, 105
1, 350880, Note_on_c, 3, 69, 124
1, 350880, Note_on_c, 4, 62, 125
1, 351009, Note_off_c, 4, 62, 64
1, 351009, Note_off_c, 3, 69, 64
1, 351019, Note_on_c, 3, 69, 124
1, 351020, Note_on_c, 4, 62, 125
1, 351151, Note_off_c, 3, 69, 64
1, 351151, Note_off_c, 4, 62, 64
1, 351154, Note_off_c, 1, 78, 64
1, 351159, Note_on_c, 1, 81, 105
1, 351160, Note_on_c, 3, 69, 124
1, 351160, Note_on_c, 3, 66, 125
1, 351270, Note_on_c, 1, 83, 105
1, 351281, Note_off_c, 1, 81, 64
1, 351305, Note_on_c, 4, 64, 125
1, 351305, Note_on_c, 1, 79, 105
1, 351318, Note_off_c, 1, 83, 64
1, 351318, Note_off_c, 3, 66, 64
1, 351415, Note_on_c, 1, 81, 105
1, 351426, Note_off_c, 1, 79, 64
1, 351451, Note_on_c, 1, 78, 105
1, 351452, Note_on_c, 4, 62, 125
1, 351464, Note_off_c, 1, 81, 64
1, 351464, Note_off_c, 4, 64, 64
1, 351593, Note_on_c, 3, 74, 111
1, 351607, Note_off_c, 1, 78, 64
1, 351726, Note_off_c, 3, 69, 64
1, 351737, Note_off_c, 4, 62, 64
1, 351738, Note_on_c, 3, 69, 124
1, 351738, Note_on_c, 1, 79, 105
1, 351739, Note_on_c, 4, 64, 125
1, 351749, Note_off_c, 3, 74, 64
1, 351847, Note_on_c, 1, 81, 105
1, 351872, Note_off_c, 1, 79, 64
1, 351884, Note_on_c, 1, 78, 105
1, 351884, Note_on_c, 3, 66, 125
1, 351894, Note_off_c, 1, 81, 64
1, 351895, Note_off_c, 4, 64, 64
1, 351991, Note_on_c, 1, 79, 98
1, 352018, Note_off_c, 1, 78, 64
1, 352028, Note_on_c, 3, 67, 125
1, 352028, Note_on_c, 2, 76, 104
1, 352040, Note_off_c, 1, 79, 64
1, 352041, Note_off_c, 3, 66, 64
1, 352172, Note_off_c, 2, 76, 64
1, 352172, Note_on_c, 3, 73, 113
1, 352301, Note_off_c, 3, 69, 64
1, 352313, Note_off_c, 3, 73, 64
1, 352313, Note_off_c, 3, 67, 64
1, 352314, Note_on_c, 3, 69, 124
1, 352314, Note_on_c, 3, 74, 110
1, 352315, Note_on_c, 3, 66, 125
1, 352447, Note_off_c, 3, 74, 64
1, 352459, Note_on_c, 3, 74, 110
1, 352603, Note_off_c, 3, 74, 64
1, 352603, Note_off_c, 3, 66, 64
1, 352604, Note_off_c, 3, 69, 64
1, 352604, Note_on_c, 3, 73, 113
1, 352605, Note_on_c, 4, 64, 125
1, 352605, Note_on_c, 3, 69, 124
1, 352734, Note_off_c, 3, 73, 64
1, 352744, Note_on_c, 3, 73, 113
1, 352874, Note_off_c, 3, 73, 64
1, 352886, Note_off_c, 3, 69, 64
1, 352886, Note_off_c, 4, 64, 64
1, 352887, Note_on_c, 4, 62, 125
1, 352887, Note_on_c, 3, 73, 113
1, 352888, Note_on_c, 4, 52, 126
1, 352907, Note_on_c, 3, 71, 123
1, 352938, Note_off_c, 3, 73, 64
1, 353016, Note_on_c, 3, 69, 124
1, 353022, Note_off_c, 3, 71, 64
1, 353041, Note_on_c, 3, 71, 123
1, 353074, Note_off_c, 3, 69, 64
1, 353155, Note_on_c, 3, 73, 113
1, 353166, Note_off_c, 3, 71, 64
1, 353193, Note_off_c, 4, 52, 64
1, 353194, Note_off_c, 4, 62, 64
1, 353194, Note_on_c, 3, 69, 124
1, 353195, Note_on_c, 4, 61, 126
1, 353195, Note_on_c, 4, 57, 126
1, 353207, Note_off_c, 3, 73, 64
1, 353481, Note_off_c, 4, 57, 64
1, 353482, Note_off_c, 3, 69, 64
1, 353482, Note_off_c, 4, 61, 64
1, 353483, Note_on_c, 4, 62, 125
1, 353483, Note_on_c, 3, 74, 122
1, 353537, Note_on_c, 4, 64, 125
1, 353541, Note_off_c, 4, 62, 64
1, 353569, Note_on_c, 3, 66, 125
1, 353591, Note_off_c, 4, 64, 64
1, 353621, Note_on_c, 4, 64, 125
1, 353626, Note_off_c, 3, 66, 64
1, 353673, Note_on_c, 4, 62, 125
1, 353679, Note_off_c, 4, 64, 64
1, 353690, Note_off_c, 3, 74, 64
1, 353691, Note_on_c, 2, 76, 119
1, 353712, Note_on_c, 4, 61, 126
1, 353732, Note_on_c, 3, 74, 122
1, 353739, Note_off_c, 4, 62, 64
1, 353745, Note_off_c, 2, 76, 64
1, 353770, Note_on_c, 3, 73, 125
1, 353771, Note_on_c, 4, 59, 126
1, 353778, Note_off_c, 4, 61, 64
1, 353782, Note_off_c, 3, 74, 64
1, 353826, Note_on_c, 4, 61, 126
1, 353832, Note_off_c, 4, 59, 64
1, 353860, Note_on_c, 4, 62, 125
1, 353885, Note_off_c, 4, 61, 64
1, 353916, Note_off_c, 3, 73, 64
1, 353916, Note_on_c, 3, 74, 122
1, 353917, Note_on_c, 4, 61, 126
1, 353923, Note_off_c, 4, 62, 64
1, 353969, Note_on_c, 4, 59, 126
1, 353976, Note_off_c, 4, 61, 64
1, 354007, Note_on_c, 4, 57, 126
1, 354030, Note_off_c, 4, 59, 64
1, 354059, Note_on_c, 3, 75, 119
1, 354060, Note_on_c, 4, 55, 126
1, 354066, Note_off_c, 4, 57, 64
1, 354070, Note_off_c, 3, 74, 64
1, 354114, Note_on_c, 4, 57, 126
1, 354120, Note_off_c, 4, 55, 64
1, 354150, Note_on_c, 4, 59, 126
1, 354173, Note_off_c, 4, 57, 64
1, 354203, Note_on_c, 4, 57, 126
1, 354203, Note_on_c, 2, 76, 122
1, 354209, Note_off_c, 4, 59, 64
1, 354213, Note_off_c, 3, 75, 64
1, 354253, Note_on_c, 4, 55, 126
1, 354259, Note_off_c, 4, 57, 64
1, 354289, Note_on_c, 4, 54, 126
1, 354314, Note_off_c, 4, 55, 64
1, 354332, Note_off_c, 2, 76, 64
1, 354344, Note_on_c, 2, 76, 122
1, 354346, Note_on_c, 4, 52, 126
1, 354351, Note_off_c, 4, 54, 64
1, 354399, Note_on_c, 4, 54, 126
1, 354405, Note_off_c, 4, 52, 64
1, 354433, Note_on_c, 4, 55, 126
1, 354456, Note_off_c, 4, 54, 64
1, 354489, Note_on_c, 4, 54, 126
1, 354495, Note_off_c, 4, 55, 64
1, 354541, Note_on_c, 4, 52, 126
1, 354547, Note_off_c, 4, 54, 64
1, 354582, Note_on_c, 4, 50, 126
1, 354604, Note_off_c, 4, 52, 64
1, 354628, Note_off_c, 2, 76, 64
1, 354636, Note_on_c, 2, 76, 122
1, 354636, Note_on_c, 4, 49, 126
1, 354642, Note_off_c, 4, 50, 64
1, 354690, Note_on_c, 4, 50, 126
1, 354696, Note_off_c, 4, 49, 64
1, 354725, Note_on_c, 4, 52, 126
1, 354748, Note_off_c, 4, 50, 64
1, 354782, Note_on_c, 4, 50, 126
1, 354786, Note_off_c, 4, 52, 64
1, 354832, Note_on_c, 4, 49, 126
1, 354838, Note_off_c, 4, 50, 64
1, 354848, Note_off_c, 2, 76, 64
1, 354848, Note_on_c, 1, 78, 119
1, 354866, Note_on_c, 4, 47, 126
1, 354881, Note_on_c, 2, 76, 122
1, 354889, Note_off_c, 4, 49, 64
1, 354895, Note_off_c, 1, 78, 64
1, 354918, Note_on_c, 4, 45, 126
1, 354918, Note_on_c, 3, 74, 125
1, 354926, Note_off_c, 4, 47, 64
1, 354930, Note_off_c, 2, 76, 64
1, 354972, Note_on_c, 4, 47, 126
1, 354978, Note_off_c, 4, 45, 64
1, 355013, Note_on_c, 4, 45, 126
1, 355036, Note_off_c, 4, 47, 64
1, 355063, Note_on_c, 2, 76, 122
1, 355063, Note_on_c, 4, 43, 126
1, 355070, Note_off_c, 4, 45, 64
1, 355074, Note_off_c, 3, 74, 64
1, 355120, Note_on_c, 4, 42, 126
1, 355126, Note_off_c, 4, 43, 64
1, 355157, Note_on_c, 4, 40, 126
1, 355182, Note_off_c, 4, 42, 64
1, 355211, Note_on_c, 2, 77, 122
1, 355212, Note_on_c, 4, 38, 127
1, 355218, Note_off_c, 4, 40, 64
1, 355224, Note_off_c, 2, 76, 64
1, 355268, Note_on_c, 4, 42, 126
1, 355274, Note_off_c, 4, 38, 64
1, 355303, Note_on_c, 4, 43, 126
1, 355328, Note_off_c, 4, 42, 64
1, 355356, Note_on_c, 1, 78, 119
1, 355357, Note_on_c, 4, 45, 126
1, 355363, Note_off_c, 4, 43, 64
1, 355369, Note_off_c, 2, 77, 64
1, 355413, Note_on_c, 4, 47, 126
1, 355419, Note_off_c, 4, 45, 64
1, 355448, Note_on_c, 4, 49, 126
1, 355471, Note_off_c, 4, 47, 64
1, 355488, Note_off_c, 1, 78, 64
1, 355500, Note_on_c, 1, 78, 119
1, 355500, Note_on_c, 4, 50, 126
1, 355506, Note_off_c, 4, 49, 64
1, 355556, Note_on_c, 4, 52, 126
1, 355562, Note_off_c, 4, 50, 64
1, 355592, Note_on_c, 4, 54, 126
1, 355618, Note_off_c, 4, 52, 64
1, 355646, Note_on_c, 4, 55, 126
1, 355652, Note_off_c, 4, 54, 64
1, 355700, Note_on_c, 4, 57, 126
1, 355706, Note_off_c, 4, 55, 64
1, 355735, Note_on_c, 4, 59, 126
1, 355758, Note_off_c, 4, 57, 64
1, 355787, Note_on_c, 4, 60, 126
1, 355787, Note_on_c, 4, 62, 125
1, 355794, Note_off_c, 4, 59, 64
1, 355798, Note_off_c, 1, 78, 64
1, 355842, Note_on_c, 3, 66, 125
1, 355848, Note_off_c, 4, 62, 64
1, 355879, Note_on_c, 3, 69, 124
1, 355904, Note_off_c, 3, 66, 64
1, 355934, Note_on_c, 3, 74, 111
1, 355940, Note_off_c, 3, 69, 64
1, 355988, Note_on_c, 2, 76, 108
1, 355996, Note_off_c, 3, 74, 64
1, 356025, Note_on_c, 1, 78, 105
1, 356048, Note_off_c, 2, 76, 64
1, 356076, Note_on_c, 1, 79, 105
1, 356079, Note_off_c, 4, 60, 64
1, 356079, Note_on_c, 4, 59, 126
1, 356083, Note_off_c, 1, 78, 64
1, 356132, Note_on_c, 1, 78, 105
1, 356135, Note_off_c, 1, 79, 64
1, 356164, Note_on_c, 1, 79, 105
1, 356189, Note_off_c, 1, 78, 64
1, 356218, Note_on_c, 1, 83, 105
1, 356223, Note_off_c, 1, 79, 64
1, 356273, Note_on_c, 1, 79, 105
1, 356279, Note_off_c, 1, 83, 64
1, 356308, Note_on_c, 3, 74, 111
1, 356333, Note_off_c, 1, 79, 64
1, 356364, Note_off_c, 4, 59, 64
1, 356364, Note_on_c, 4, 55, 126
1, 356364, Note_on_c, 3, 69, 124
1, 356369, Note_off_c, 3, 74, 64
1, 356417, Note_on_c, 3, 73, 114
1, 356425, Note_off_c, 3, 69, 64
1, 356456, Note_on_c, 2, 76, 108
1, 356481, Note_off_c, 3, 73, 64
1, 356511, Note_on_c, 1, 81, 105
1, 356517, Note_off_c, 2, 76, 64
1, 356567, Note_on_c, 1, 83, 105
1, 356573, Note_off_c, 1, 81, 64
1, 356604, Note_on_c, 1, 85, 105
1, 356628, Note_off_c, 1, 83, 64
1, 356658, Note_on_c, 1, 86, 105
1, 356659, Note_off_c, 4, 55, 64
1, 356660, Note_on_c, 4, 54, 126
1, 356664, Note_off_c, 1, 85, 64
1, 356714, Note_on_c, 1, 85, 105
1, 356718, Note_off_c, 1, 86, 64
1, 356747, Note_on_c, 1, 83, 105
1, 356771, Note_off_c, 1, 85, 64
1, 356800, Note_on_c, 1, 81, 105
1, 356805, Note_off_c, 1, 83, 64
1, 356851, Note_on_c, 1, 79, 105
1, 356857, Note_off_c, 1, 81, 64
1, 356888, Note_on_c, 1, 78, 105
1, 356901, Note_off_c, 1, 79, 64
1, 356938, Note_off_c, 1, 78, 64
1, 356944, Note_on_c, 3, 75, 108
1, 356994, Note_off_c, 3, 75, 64
1, 356999, Note_on_c, 2, 76, 108
1, 357034, Note_on_c, 1, 79, 105
1, 357086, Note_off_c, 2, 76, 64
1, 357088, Note_on_c, 3, 67, 125
1, 357088, Note_on_c, 1, 83, 105
1, 357089, Note_off_c, 4, 54, 64
1, 357089, Note_on_c, 4, 55, 126
1, 357124, Note_off_c, 1, 79, 64
1, 357141, Note_on_c, 1, 79, 105
1, 357174, Note_off_c, 1, 83, 64
1, 357175, Note_on_c, 2, 76, 108
1, 357216, Note_off_c, 3, 67, 64
1, 357217, Note_off_c, 4, 55, 64
1, 357226, Note_off_c, 1, 79, 64
1, 357227, Note_on_c, 1, 81, 105
1, 357227, Note_on_c, 3, 66, 125
1, 357228, Note_on_c, 4, 57, 126
1, 357261, Note_off_c, 2, 76, 64
1, 357280, Note_on_c, 1, 78, 105
1, 357312, Note_off_c, 1, 81, 64
1, 357313, Note_on_c, 3, 74, 111
1, 357357, Note_off_c, 4, 57, 64
1, 357357, Note_off_c, 3, 66, 64
1, 357365, Note_off_c, 1, 78, 64
1, 357366, Note_on_c, 1, 79, 105
1, 357366, Note_on_c, 4, 64, 125
1, 357367, Note_on_c, 4, 59, 126
1, 357404, Note_off_c, 3, 74, 64
1, 357421, Note_on_c, 2, 76, 108
1, 357456, Note_off_c, 1, 79, 64
1, 357456, Note_on_c, 3, 73, 117
1, 357481, Note_off_c, 2, 76, 64
1, 357503, Note_off_c, 4, 59, 64
1, 357503, Note_off_c, 4, 64, 64
1, 357513, Note_off_c, 3, 73, 64
1, 357514, Note_on_c, 3, 74, 115
1, 357514, Note_on_c, 3, 73, 118
1, 357515, Note_on_c, 4, 62, 125
1, 357515, Note_on_c, 4, 64, 125
1, 357516, Note_on_c, 4, 57, 126
1, 357516, Note_on_c, 4, 54, 126
1, 357520, Note_off_c, 3, 73, 64
1, 357528, Note_off_c, 4, 64, 64
1, 357568, Note_on_c, 1, 78, 109
1, 357574, Note_off_c, 3, 74, 64
1, 357604, Note_on_c, 1, 81, 109
1, 357627, Note_off_c, 1, 78, 64
1, 357656, Note_on_c, 1, 86, 105
1, 357662, Note_off_c, 1, 81, 64
1, 357711, Note_on_c, 3, 74, 115
1, 357717, Note_off_c, 1, 86, 64
1, 357745, Note_on_c, 1, 86, 105
1, 357767, Note_off_c, 3, 74, 64
1, 357790, Note_off_c, 1, 86, 64
1, 357793, Note_on_c, 1, 86, 105
1, 357845, Note_on_c, 1, 85, 105
1, 357851, Note_off_c, 1, 86, 64
1, 357880, Note_on_c, 1, 83, 105
1, 357905, Note_off_c, 1, 85, 64
1, 357934, Note_on_c, 1, 81, 109
1, 357939, Note_off_c, 1, 83, 64
1, 357987, Note_on_c, 1, 79, 109
1, 357995, Note_off_c, 1, 81, 64
1, 358024, Note_on_c, 1, 78, 109
1, 358047, Note_off_c, 1, 79, 64
1, 358076, Note_off_c, 4, 62, 64
1, 358078, Note_off_c, 4, 54, 64
1, 358078, Note_on_c, 3, 71, 123
1, 358079, Note_off_c, 4, 57, 64
1, 358079, Note_on_c, 4, 64, 125
1, 358080, Note_on_c, 4, 62, 125
1, 358080, Note_on_c, 4, 55, 126
1, 358082, Note_off_c, 1, 78, 64
1, 358132, Note_on_c, 2, 76, 112
1, 358138, Note_off_c, 3, 71, 64
1, 358167, Note_on_c, 1, 79, 109
1, 358190, Note_off_c, 2, 76, 64
1, 358219, Note_on_c, 1, 83, 105
1, 358226, Note_off_c, 1, 79, 64
1, 358274, Note_on_c, 3, 71, 123
1, 358280, Note_off_c, 1, 83, 64
1, 358309, Note_on_c, 1, 83, 105
1, 358330, Note_off_c, 3, 71, 64
1, 358355, Note_off_c, 1, 83, 64
1, 358361, Note_on_c, 1, 83, 105
1, 358413, Note_on_c, 1, 81, 109
1, 358418, Note_off_c, 1, 83, 64
1, 358447, Note_on_c, 1, 79, 109
1, 358470, Note_off_c, 1, 81, 64
1, 358501, Note_on_c, 1, 78, 109
1, 358507, Note_off_c, 1, 79, 64
1, 358555, Note_on_c, 2, 76, 112
1, 358560, Note_off_c, 1, 78, 64
1, 358593, Note_on_c, 3, 74, 115
1, 358616, Note_off_c, 2, 76, 64
1, 358643, Note_off_c, 4, 62, 64
1, 358647, Note_off_c, 4, 55, 64
1, 358647, Note_on_c, 3, 69, 124
1, 358648, Note_off_c, 4, 64, 64
1, 358648, Note_on_c, 3, 66, 125
1, 358649, Note_on_c, 4, 62, 125
1, 358649, Note_on_c, 4, 57, 126
1, 358652, Note_off_c, 3, 74, 64
1, 358700, Note_on_c, 3, 74, 115
1, 358707, Note_off_c, 3, 69, 64
1, 358736, Note_on_c, 1, 78, 109
1, 358759, Note_off_c, 3, 74, 64
1, 358790, Note_on_c, 1, 81, 109
1, 358796, Note_off_c, 1, 78, 64
1, 358846, Note_on_c, 1, 78, 109
1, 358851, Note_off_c, 1, 81, 64
1, 358880, Note_on_c, 3, 74, 115
1, 358905, Note_off_c, 1, 78, 64
1, 358928, Note_off_c, 4, 57, 64
1, 358934, Note_on_c, 3, 69, 124
1, 358936, Note_off_c, 3, 66, 64
1, 358936, Note_off_c, 4, 62, 64
1, 358937, Note_on_c, 4, 64, 125
1, 358937, Note_on_c, 3, 67, 125
1, 358938, Note_on_c, 4, 57, 126
1, 358940, Note_off_c, 3, 74, 64
1, 358984, Note_on_c, 3, 73, 118
1, 358990, Note_off_c, 3, 69, 64
1, 359018, Note_on_c, 2, 76, 112
1, 359041, Note_off_c, 3, 73, 64
1, 359073, Note_on_c, 1, 79, 109
1, 359078, Note_off_c, 2, 76, 64
1, 359120, Note_on_c, 2, 76, 112
1, 359126, Note_off_c, 1, 79, 64
1, 359155, Note_on_c, 3, 73, 118
1, 359180, Note_off_c, 2, 76, 64
1, 359205, Note_off_c, 4, 57, 64
1, 359211, Note_on_c, 3, 74, 115
1, 359212, Note_off_c, 4, 64, 64
1, 359213, Note_off_c, 3, 67, 64
1, 359213, Note_on_c, 4, 62, 125
1, 359214, Note_on_c, 4, 57, 126
1, 359214, Note_on_c, 4, 54, 126
1, 359217, Note_off_c, 3, 73, 64
1, 359265, Note_on_c, 1, 78, 109
1, 359271, Note_off_c, 3, 74, 64
1, 359300, Note_on_c, 1, 81, 109
1, 359321, Note_off_c, 1, 78, 64
1, 359352, Note_on_c, 1, 86, 105
1, 359358, Note_off_c, 1, 81, 64
1, 359408, Note_on_c, 3, 74, 115
1, 359413, Note_off_c, 1, 86, 64
1, 359440, Note_on_c, 1, 86, 105
1, 359463, Note_off_c, 3, 74, 64
1, 359490, Note_off_c, 1, 86, 64
1, 359496, Note_on_c, 1, 86, 105
1, 359546, Note_on_c, 1, 85, 105
1, 359552, Note_off_c, 1, 86, 64
1, 359580, Note_on_c, 1, 83, 105
1, 359603, Note_off_c, 1, 85, 64
1, 359632, Note_on_c, 1, 81, 109
1, 359640, Note_off_c, 1, 83, 64
1, 359686, Note_on_c, 1, 79, 109
1, 359692, Note_off_c, 1, 81, 64
1, 359724, Note_on_c, 1, 78, 109
1, 359747, Note_off_c, 1, 79, 64
1, 359773, Note_off_c, 4, 62, 64
1, 359775, Note_on_c, 3, 71, 123
1, 359776, Note_off_c, 4, 54, 64
1, 359776, Note_off_c, 4, 57, 64
1, 359777, Note_on_c, 4, 64, 125
1, 359777, Note_on_c, 4, 62, 125
1, 359778, Note_on_c, 4, 55, 126
1, 359782, Note_off_c, 1, 78, 64
1, 359828, Note_on_c, 2, 76, 112
1, 359834, Note_off_c, 3, 71, 64
1, 359863, Note_on_c, 1, 79, 109
1, 359884, Note_off_c, 2, 76, 64
1, 359915, Note_on_c, 1, 83, 105
1, 359922, Note_off_c, 1, 79, 64
1, 359968, Note_on_c, 3, 71, 123
1, 359974, Note_off_c, 1, 83, 64
1, 360001, Note_on_c, 1, 83, 105
1, 360026, Note_off_c, 3, 71, 64
1, 360049, Note_off_c, 1, 83, 64
1, 360055, Note_on_c, 1, 83, 105
1, 360107, Note_on_c, 1, 81, 109
1, 360110, Note_off_c, 1, 83, 64
1, 360139, Note_on_c, 1, 79, 109
1, 360162, Note_off_c, 1, 81, 64
1, 360189, Note_on_c, 1, 78, 109
1, 360195, Note_off_c, 1, 79, 64
1, 360241, Note_on_c, 2, 76, 112
1, 360247, Note_off_c, 1, 78, 64
1, 360276, Note_on_c, 3, 74, 115
1, 360299, Note_off_c, 2, 76, 64
1, 360327, Note_off_c, 4, 62, 64
1, 360329, Note_on_c, 3, 69, 124
1, 360330, Note_off_c, 4, 64, 64
1, 360330, Note_off_c, 4, 55, 64
1, 360331, Note_on_c, 4, 62, 125
1, 360331, Note_on_c, 3, 66, 125
1, 360332, Note_on_c, 4, 57, 126
1, 360336, Note_off_c, 3, 74, 64
1, 360384, Note_on_c, 3, 74, 115
1, 360390, Note_off_c, 3, 69, 64
1, 360419, Note_on_c, 1, 78, 109
1, 360442, Note_off_c, 3, 74, 64
1, 360468, Note_on_c, 1, 81, 109
1, 360474, Note_off_c, 1, 78, 64
1, 360522, Note_on_c, 1, 78, 109
1, 360528, Note_off_c, 1, 81, 64
1, 360555, Note_on_c, 3, 74, 115
1, 360576, Note_off_c, 1, 78, 64
1, 360599, Note_off_c, 4, 57, 64
1, 360605, Note_on_c, 3, 69, 124
1, 360606, Note_off_c, 3, 66, 64
1, 360606, Note_off_c, 4, 62, 64
1, 360607, Note_on_c, 4, 64, 125
1, 360607, Note_on_c, 3, 67, 125
1, 360608, Note_on_c, 4, 57, 126
1, 360612, Note_off_c, 3, 74, 64
1, 360658, Note_on_c, 3, 73, 118
1, 360663, Note_off_c, 3, 69, 64
1, 360694, Note_on_c, 2, 76, 112
1, 360717, Note_off_c, 3, 73, 64
1, 360744, Note_on_c, 1, 79, 109
1, 360750, Note_off_c, 2, 76, 64
1, 360798, Note_on_c, 2, 76, 112
1, 360804, Note_off_c, 1, 79, 64
1, 360830, Note_on_c, 3, 73, 118
1, 360853, Note_off_c, 2, 76, 64
1, 360880, Note_on_c, 3, 74, 122
1, 360882, Note_off_c, 4, 57, 64
1, 360883, Note_off_c, 3, 67, 64
1, 360883, Note_off_c, 4, 64, 64
1, 360884, Note_on_c, 4, 50, 126
1, 360888, Note_off_c, 3, 73, 64
1, 360936, Note_on_c, 4, 62, 125
1, 360972, Note_on_c, 4, 61, 126
1, 360990, Note_off_c, 4, 62, 64
1, 361026, Note_off_c, 4, 61, 64
1, 361028, Note_on_c, 4, 62, 125
1, 361080, Note_off_c, 4, 62, 64
1, 361082, Note_on_c, 4, 61, 126
1, 361115, Note_on_c, 4, 62, 125
1, 361130, Note_off_c, 4, 61, 64
1, 361161, Note_off_c, 3, 74, 64
1, 361163, Note_off_c, 4, 50, 64
1, 361164, Note_on_c, 1, 83, 120
1, 361165, Note_on_c, 4, 50, 126
1, 361165, Note_on_c, 1, 79, 120
1, 361214, Note_off_c, 4, 62, 64
1, 361216, Note_on_c, 4, 62, 125
1, 361249, Note_on_c, 4, 61, 126
1, 361264, Note_off_c, 4, 62, 64
1, 361301, Note_off_c, 4, 61, 64
1, 361303, Note_on_c, 4, 62, 125
1, 361349, Note_off_c, 4, 62, 64
1, 361351, Note_on_c, 4, 61, 126
1, 361385, Note_on_c, 4, 62, 125
1, 361401, Note_off_c, 4, 61, 64
1, 361420, Note_off_c, 1, 83, 64
1, 361422, Note_off_c, 1, 79, 64
1, 361433, Note_off_c, 4, 50, 64
1, 361436, Note_on_c, 4, 50, 126
1, 361436, Note_on_c, 1, 81, 120
1, 361436, Note_on_c, 1, 78, 120
1, 361484, Note_off_c, 4, 62, 64
1, 361489, Note_on_c, 4, 62, 125
1, 361524, Note_on_c, 4, 61, 126
1, 361539, Note_off_c, 4, 62, 64
1, 361573, Note_off_c, 4, 61, 64
1, 361575, Note_on_c, 4, 62, 125
1, 361623, Note_off_c, 4, 62, 64
1, 361627, Note_on_c, 4, 61, 126
1, 361660, Note_on_c, 4, 62, 125
1, 361675, Note_off_c, 4, 61, 64
1, 361696, Note_off_c, 1, 81, 64
1, 361697, Note_off_c, 1, 78, 64
1, 361710, Note_off_c, 4, 50, 64
1, 361712, Note_on_c, 1, 79, 120
1, 361713, Note_on_c, 4, 50, 126
1, 361713, Note_on_c, 3, 73, 125
1, 361761, Note_off_c, 4, 62, 64
1, 361766, Note_on_c, 4, 62, 125
1, 361801, Note_on_c, 4, 61, 126
1, 361817, Note_off_c, 4, 62, 64
1, 361849, Note_off_c, 4, 61, 64
1, 361851, Note_on_c, 4, 62, 125
1, 361901, Note_off_c, 4, 62, 64
1, 361903, Note_on_c, 4, 61, 126
1, 361938, Note_on_c, 4, 62, 125
1, 361953, Note_off_c, 4, 61, 64
1, 361972, Note_off_c, 1, 79, 64
1, 361974, Note_off_c, 3, 73, 64
1, 361986, Note_off_c, 4, 50, 64
1, 361988, Note_on_c, 1, 78, 120
1, 361990, Note_on_c, 4, 50, 126
1, 361990, Note_on_c, 3, 74, 125
1, 362037, Note_off_c, 4, 62, 64
1, 362044, Note_on_c, 4, 62, 125
1, 362081, Note_on_c, 4, 61, 126
1, 362096, Note_off_c, 4, 62, 64
1, 362133, Note_off_c, 4, 61, 64
1, 362135, Note_on_c, 4, 62, 125
1, 362184, Note_off_c, 4, 62, 64
1, 362186, Note_on_c, 4, 61, 126
1, 362221, Note_on_c, 4, 62, 125
1, 362234, Note_off_c, 4, 61, 64
1, 362256, Note_off_c, 1, 78, 64
1, 362257, Note_off_c, 3, 74, 64
1, 362269, Note_off_c, 4, 50, 64
1, 362271, Note_on_c, 3, 71, 125
1, 362271, Note_on_c, 1, 79, 120
1, 362272, Note_on_c, 4, 50, 126
1, 362319, Note_off_c, 4, 62, 64
1, 362325, Note_on_c, 4, 62, 125
1, 362357, Note_on_c, 4, 61, 126
1, 362373, Note_off_c, 4, 62, 64
1, 362409, Note_off_c, 4, 61, 64
1, 362410, Note_on_c, 4, 62, 125
1, 362459, Note_off_c, 4, 62, 64
1, 362461, Note_on_c, 4, 61, 126
1, 362497, Note_on_c, 4, 62, 125
1, 362513, Note_off_c, 4, 61, 64
1, 362532, Note_off_c, 1, 79, 64
1, 362533, Note_off_c, 3, 71, 64
1, 362545, Note_off_c, 4, 50, 64
1, 362546, Note_on_c, 3, 69, 126
1, 362546, Note_on_c, 1, 78, 120
1, 362547, Note_on_c, 4, 50, 126
1, 362590, Note_off_c, 4, 62, 64
1, 362597, Note_on_c, 4, 62, 125
1, 362630, Note_on_c, 4, 61, 126
1, 362645, Note_off_c, 4, 62, 64
1, 362681, Note_off_c, 4, 61, 64
1, 362685, Note_on_c, 4, 62, 125
1, 362735, Note_off_c, 4, 62, 64
1, 362736, Note_on_c, 4, 61, 126
1, 362771, Note_on_c, 4, 62, 125
1, 362784, Note_off_c, 4, 61, 64
1, 362819, Note_off_c, 4, 50, 64
1, 362820, Note_on_c, 3, 73, 125
1, 362822, Note_off_c, 1, 78, 64
1, 362822, Note_on_c, 3, 67, 127
1, 362823, Note_off_c, 3, 69, 64
1, 362823, Note_on_c, 4, 50, 126
1, 362866, Note_off_c, 4, 62, 64
1, 362872, Note_on_c, 4, 62, 125
1, 362910, Note_on_c, 4, 61, 126
1, 362926, Note_off_c, 4, 62, 64
1, 362960, Note_off_c, 4, 61, 64
1, 362962, Note_on_c, 4, 62, 125
1, 363014, Note_off_c, 4, 62, 64
1, 363016, Note_on_c, 4, 61, 126
1, 363052, Note_on_c, 4, 62, 125
1, 363070, Note_off_c, 4, 61, 64
1, 363079, Note_off_c, 3, 73, 64
1, 363080, Note_off_c, 3, 67, 64
1, 363106, Note_off_c, 4, 50, 64
1, 363107, Note_on_c, 3, 74, 125
1, 363109, Note_on_c, 4, 50, 126
1, 363109, Note_on_c, 3, 66, 127
1, 363114, Note_off_c, 4, 62, 64
1, 363377, Note_off_c, 3, 74, 64
1, 363377, Note_off_c, 3, 66, 64
1, 363403, Note_on_c, 1, 78, 120
1, 363407, Note_on_c, 4, 62, 125
1, 363407, Note_on_c, 3, 69, 126
1, 363722, Note_off_c, 1, 78, 64
1, 363727, Note_off_c, 3, 69, 64
1, 363732, Note_off_c, 4, 50, 64
1, 363738, Note_on_c, 3, 74, 125
1, 363740, Note_off_c, 4, 62, 64
1, 363742, Note_on_c, 3, 66, 127
1, 363743, Note_on_c, 4, 50, 126
1, 366333, Note_off_c, 3, 74, 64
1, 366338, Note_off_c, 4, 50, 64
1, 366339, Note_off_c, 3, 66, 64
1, 366339, End_track
0, 0, End_of_file
