0, 0, Header, 1, 2, 500
1, 0, Start_track
1, 0, Title_t, 'example'
1, 0, Tempo, 500000
1, 0, Time_signature, 4, 2, 24, 8
1, 0, End_track
2, 0, Start_track
2, 0, Title_t, 'Instrument Track 01'
2, 0, Program_c, 6, 6
2, 0, Note_on_c, 0, 65, 100
2, 1000, Note_off_c, 0, 65, 64
2, 1000, Note_on_c, 0, 70, 100
2, 1000, Note_on_c, 0, 65, 100
2, 1000, Note_on_c, 0, 62, 100
2, 1000, Note_on_c, 0, 58, 100
2, 1000, Note_on_c, 0, 46, 100
2, 2500, Note_off_c, 0, 70, 64
2, 2500, Note_on_c, 0, 69, 100
2, 3500, Note_off_c, 0, 69, 64
2, 3500, Note_on_c, 0, 70, 100
2, 3500, Note_off_c, 0, 65, 64
2, 3500, Note_off_c, 0, 62, 64
2, 3500, Note_off_c, 0, 58, 64
2, 3500, Note_off_c, 0, 46, 64
2, 4500, Note_off_c, 0, 70, 64
2, 4500, Note_on_c, 0, 62, 100
2, 4500, Note_on_c, 0, 65, 100
2, 4500, Note_on_c, 0, 58, 100
2, 4500, Note_on_c, 0, 57, 100
2, 4500, Note_on_c, 0, 45, 100
2, 6000, Note_off_c, 0, 62, 64
2, 6000, Note_off_c, 0, 65, 64
2, 7000, Note_on_c, 0, 65, 100
2, 7000, Note_on_c, 0, 70, 100
2, 7000, Note_off_c, 0, 65, 64
2, 7000, Note_off_c, 0, 58, 64
2, 7000, Note_off_c, 0, 57, 64
2, 7000, Note_off_c, 0, 45, 64
2, 8000, Note_off_c, 0, 70, 64
2, 8000, Note_on_c, 0, 70, 100
2, 8000, Note_on_c, 0, 67, 100
2, 8000, Note_on_c, 0, 62, 100
2, 8000, Note_on_c, 0, 55, 100
2, 8000, Note_on_c, 0, 43, 100
2, 9500, Note_off_c, 0, 70, 64
2, 9500, Note_on_c, 0, 69, 100
2, 10500, Note_off_c, 0, 69, 64
2, 10500, Note_on_c, 0, 70, 100
2, 10500, Note_off_c, 0, 67, 64
2, 10500, Note_off_c, 0, 62, 64
2, 10500, Note_off_c, 0, 55, 64
2, 10500, Note_off_c, 0, 43, 64
2, 11500, Note_off_c, 0, 70, 64
2, 11500, Note_on_c, 0, 62, 100
2, 11500, Note_on_c, 0, 70, 100
2, 11500, Note_on_c, 0, 65, 100
2, 11500, Note_on_c, 0, 53, 100
2, 11500, Note_on_c, 0, 41, 100
2, 13000, Note_off_c, 0, 62, 64
2, 13000, Note_off_c, 0, 65, 64
2, 14000, Note_on_c, 0, 65, 100
2, 14000, Note_off_c, 0, 70, 64
2, 14000, Note_off_c, 0, 65, 64
2, 14000, Note_off_c, 0, 53, 64
2, 14000, Note_off_c, 0, 41, 64
2, 15000, Note_on_c, 0, 70, 100
2, 15000, Note_on_c, 0, 72, 100
2, 15000, Note_off_c, 0, 70, 64
2, 15000, Note_on_c, 0, 67, 100
2, 15000, Note_on_c, 0, 51, 100
2, 15000, Note_on_c, 0, 39, 100
2, 16500, Note_off_c, 0, 72, 64
2, 16500, Note_on_c, 0, 70, 100
2, 17500, Note_off_c, 0, 70, 64
2, 17500, Note_on_c, 0, 72, 100
2, 17500, Note_on_c, 0, 70, 100
2, 17500, Note_off_c, 0, 67, 64
2, 17500, Note_off_c, 0, 51, 64
2, 17500, Note_off_c, 0, 39, 64
2, 18500, Note_off_c, 0, 72, 64
2, 18500, Note_on_c, 0, 65, 100
2, 18500, Note_on_c, 0, 69, 100
2, 18500, Note_on_c, 0, 53, 100
2, 18500, Note_on_c, 0, 41, 100
2, 20000, Note_off_c, 0, 65, 64
2, 20000, Note_off_c, 0, 69, 64
2, 21000, Note_on_c, 0, 69, 100
2, 21000, Note_on_c, 0, 72, 100
2, 21000, Note_off_c, 0, 69, 64
2, 21000, Note_on_c, 0, 65, 100
2, 21000, Note_off_c, 0, 53, 64
2, 21000, Note_off_c, 0, 41, 64
2, 22000, Note_off_c, 0, 72, 64
2, 22000, Note_on_c, 0, 74, 100
2, 22000, Note_off_c, 0, 70, 64
2, 22000, Note_off_c, 0, 65, 64
2, 22000, Note_on_c, 0, 46, 100
2, 22000, Note_on_c, 0, 34, 100
2, 23500, Note_off_c, 0, 74, 64
2, 23500, Note_on_c, 0, 72, 100
2, 23500, Note_on_c, 0, 70, 100
2, 23500, Note_on_c, 0, 69, 100
2, 23500, Note_on_c, 0, 65, 100
2, 23500, Note_on_c, 0, 63, 100
2, 24500, Note_off_c, 0, 72, 64
2, 24500, Note_off_c, 0, 69, 64
2, 24500, Note_off_c, 0, 63, 64
2, 24500, Note_on_c, 0, 74, 100
2, 24500, Note_off_c, 0, 70, 64
2, 24500, Note_off_c, 0, 65, 64
2, 24500, Note_off_c, 0, 46, 64
2, 24500, Note_on_c, 0, 53, 100
2, 24500, Note_off_c, 0, 34, 64
2, 24500, Note_on_c, 0, 41, 100
2, 25500, Note_off_c, 0, 74, 64
2, 25500, Note_on_c, 0, 70, 100
2, 25500, Note_on_c, 0, 65, 100
2, 25500, Note_off_c, 0, 53, 64
2, 25500, Note_off_c, 0, 41, 64
2, 25500, Note_off_c, 0, 70, 64
2, 25500, Note_off_c, 0, 65, 64
2, 25500, Note_on_c, 0, 62, 100
2, 25500, Note_on_c, 0, 58, 100
2, 25500, Note_on_c, 0, 46, 100
2, 27000, Note_off_c, 0, 62, 64
2, 27000, Note_on_c, 0, 60, 100
2, 27000, Note_off_c, 0, 58, 64
2, 27000, Note_on_c, 0, 57, 100
2, 27000, Note_off_c, 0, 46, 64
2, 27000, Note_on_c, 0, 45, 100
2, 28000, Note_off_c, 0, 60, 64
2, 28000, Note_off_c, 0, 57, 64
2, 28000, Note_off_c, 0, 45, 64
2, 28000, Note_on_c, 0, 70, 100
2, 28000, Note_on_c, 0, 74, 100
2, 28000, Note_on_c, 0, 65, 100
2, 28000, Note_on_c, 0, 62, 100
2, 28000, Note_on_c, 0, 58, 100
2, 28000, Note_on_c, 0, 46, 100
2, 29000, Note_off_c, 0, 65, 64
2, 29000, Note_off_c, 0, 62, 64
2, 29000, Note_off_c, 0, 58, 64
2, 29000, Note_off_c, 0, 46, 64
2, 29000, Note_on_c, 0, 67, 100
2, 29000, Note_on_c, 0, 55, 100
2, 29000, Note_on_c, 0, 52, 100
2, 29000, Note_on_c, 0, 40, 100
2, 30500, Note_off_c, 0, 74, 64
2, 30500, Note_off_c, 0, 67, 64
2, 31500, Note_on_c, 0, 67, 100
2, 31500, Note_off_c, 0, 70, 64
2, 31500, Note_off_c, 0, 67, 64
2, 31500, Note_off_c, 0, 55, 64
2, 31500, Note_off_c, 0, 52, 64
2, 31500, Note_off_c, 0, 40, 64
2, 33000, Note_on_c, 0, 67, 100
2, 33000, Note_on_c, 0, 64, 100
2, 33000, Note_on_c, 0, 48, 100
2, 33000, Note_on_c, 0, 36, 100
2, 34500, Note_on_c, 0, 70, 100
2, 34500, Note_off_c, 0, 64, 64
2, 35500, Note_on_c, 0, 64, 100
2, 35500, Note_on_c, 0, 72, 100
2, 35500, Note_off_c, 0, 67, 64
2, 35500, Note_off_c, 0, 64, 64
2, 35500, Note_off_c, 0, 48, 64
2, 35500, Note_off_c, 0, 36, 64
2, 37000, Note_on_c, 0, 65, 100
2, 37000, Note_on_c, 0, 57, 100
2, 37000, Note_on_c, 0, 50, 100
2, 37000, Note_on_c, 0, 38, 100
2, 38500, Note_off_c, 0, 72, 64
2, 38500, Note_off_c, 0, 65, 64
2, 39500, Note_on_c, 0, 65, 100
2, 39500, Note_on_c, 0, 69, 100
2, 39500, Note_off_c, 0, 65, 64
2, 39500, Note_off_c, 0, 57, 64
2, 39500, Note_off_c, 0, 50, 64
2, 39500, Note_off_c, 0, 38, 64
2, 41000, Note_on_c, 0, 65, 100
2, 41000, Note_on_c, 0, 62, 100
2, 41000, Note_on_c, 0, 46, 100
2, 41000, Note_on_c, 0, 34, 100
2, 42500, Note_off_c, 0, 69, 64
2, 42500, Note_off_c, 0, 62, 64
2, 43500, Note_on_c, 0, 62, 100
2, 43500, Note_off_c, 0, 70, 64
2, 43500, Note_off_c, 0, 65, 64
2, 43500, Note_off_c, 0, 62, 64
2, 43500, Note_off_c, 0, 46, 64
2, 43500, Note_off_c, 0, 34, 64
2, 45000, Note_on_c, 0, 64, 100
2, 45000, Note_on_c, 0, 55, 100
2, 45000, Note_on_c, 0, 48, 100
2, 45000, Note_on_c, 0, 36, 100
2, 46500, Note_on_c, 0, 70, 100
2, 46500, Note_off_c, 0, 64, 64
2, 47500, Note_on_c, 0, 64, 100
2, 47500, Note_on_c, 0, 67, 100
2, 47500, Note_off_c, 0, 64, 64
2, 47500, Note_on_c, 0, 60, 100
2, 47500, Note_off_c, 0, 55, 64
2, 47500, Note_on_c, 0, 52, 100
2, 47500, Note_off_c, 0, 48, 64
2, 47500, Note_on_c, 0, 46, 100
2, 47500, Note_off_c, 0, 36, 64
2, 47500, Note_on_c, 0, 34, 100
2, 48500, Note_off_c, 0, 60, 64
2, 48500, Note_off_c, 0, 52, 64
2, 48500, Note_off_c, 0, 46, 64
2, 48500, Note_off_c, 0, 34, 64
2, 48500, Note_on_c, 0, 60, 100
2, 48500, Note_on_c, 0, 57, 100
2, 48500, Note_on_c, 0, 45, 100
2, 48500, Note_on_c, 0, 33, 100
2, 50000, Note_off_c, 0, 67, 64
2, 50000, Note_off_c, 0, 60, 64
2, 51000, Note_on_c, 0, 60, 100
2, 51000, Note_off_c, 0, 70, 64
2, 51000, Note_off_c, 0, 60, 64
2, 51000, Note_on_c, 0, 64, 100
2, 51000, Note_off_c, 0, 57, 64
2, 51000, Note_on_c, 0, 58, 100
2, 51000, Note_off_c, 0, 45, 64
2, 51000, Note_on_c, 0, 43, 100
2, 51000, Note_off_c, 0, 33, 64
2, 51000, Note_on_c, 0, 31, 100
2, 52000, Note_on_c, 0, 70, 100
2, 52000, Note_off_c, 0, 64, 64
2, 52000, Note_off_c, 0, 58, 64
2, 52000, Note_off_c, 0, 43, 64
2, 52000, Note_off_c, 0, 31, 64
2, 52000, Note_on_c, 0, 69, 100
2, 52000, Note_on_c, 0, 65, 100
2, 52000, Note_on_c, 0, 60, 100
2, 52000, Note_on_c, 0, 41, 100
2, 52000, Note_on_c, 0, 29, 100
2, 53500, Note_off_c, 0, 69, 64
2, 53500, Note_on_c, 0, 67, 100
2, 53500, Note_off_c, 0, 65, 64
2, 53500, Note_on_c, 0, 64, 100
2, 53500, Note_off_c, 0, 60, 64
2, 53500, Note_on_c, 0, 58, 100
2, 54500, Note_off_c, 0, 67, 64
2, 54500, Note_off_c, 0, 64, 64
2, 54500, Note_off_c, 0, 58, 64
2, 54500, Note_on_c, 0, 69, 100
2, 54500, Note_on_c, 0, 65, 100
2, 54500, Note_on_c, 0, 60, 100
2, 54500, Note_off_c, 0, 41, 64
2, 54500, Note_on_c, 0, 48, 100
2, 54500, Note_on_c, 0, 36, 100
2, 54500, Note_off_c, 0, 29, 64
2, 55500, Note_off_c, 0, 69, 64
2, 55500, Note_off_c, 0, 65, 64
2, 55500, Note_off_c, 0, 60, 64
2, 55500, Note_off_c, 0, 48, 64
2, 55500, Note_off_c, 0, 36, 64
2, 55500, Note_on_c, 0, 65, 100
2, 55500, Note_on_c, 0, 60, 100
2, 55500, Note_on_c, 0, 57, 100
2, 55500, Note_on_c, 0, 53, 100
2, 55500, Note_on_c, 0, 41, 100
2, 57000, Note_off_c, 0, 65, 64
2, 57000, Note_on_c, 0, 69, 100
2, 57000, Note_off_c, 0, 57, 64
2, 57000, Note_on_c, 0, 55, 100
2, 57000, Note_off_c, 0, 53, 64
2, 57000, Note_on_c, 0, 51, 100
2, 57000, Note_off_c, 0, 41, 64
2, 57000, Note_on_c, 0, 39, 100
2, 58000, Note_off_c, 0, 69, 64
2, 58000, Note_off_c, 0, 55, 64
2, 58000, Note_off_c, 0, 51, 64
2, 58000, Note_off_c, 0, 39, 64
2, 58000, Note_on_c, 0, 72, 100
2, 58000, Note_off_c, 0, 60, 64
2, 58000, Note_on_c, 0, 65, 100
2, 58000, Note_on_c, 0, 57, 100
2, 58000, Note_on_c, 0, 53, 100
2, 58000, Note_on_c, 0, 41, 100
2, 59000, Note_off_c, 0, 72, 64
2, 59000, Note_off_c, 0, 65, 64
2, 59000, Note_off_c, 0, 57, 64
2, 59000, Note_off_c, 0, 53, 64
2, 59000, Note_off_c, 0, 41, 64
2, 59000, Note_on_c, 0, 77, 100
2, 59000, Note_on_c, 0, 65, 100
2, 59000, Note_on_c, 0, 58, 100
2, 59000, Note_on_c, 0, 50, 100
2, 59000, Note_on_c, 0, 38, 100
2, 60000, Note_off_c, 0, 77, 64
2, 60000, Note_off_c, 0, 70, 64
2, 61000, Note_on_c, 0, 70, 100
2, 61000, Note_on_c, 0, 74, 100
2, 61000, Note_off_c, 0, 65, 64
2, 61000, Note_off_c, 0, 58, 64
2, 61000, Note_off_c, 0, 50, 64
2, 61000, Note_off_c, 0, 38, 64
2, 62500, Note_on_c, 0, 65, 100
2, 62500, Note_on_c, 0, 58, 100
2, 62500, Note_on_c, 0, 55, 100
2, 62500, Note_on_c, 0, 43, 100
2, 64000, Note_off_c, 0, 74, 64
2, 64000, Note_on_c, 0, 67, 100
2, 65000, Note_off_c, 0, 67, 64
2, 65000, Note_on_c, 0, 75, 100
2, 65000, Note_off_c, 0, 65, 64
2, 65000, Note_off_c, 0, 58, 64
2, 65000, Note_off_c, 0, 55, 64
2, 65000, Note_off_c, 0, 43, 64
2, 66500, Note_on_c, 0, 63, 100
2, 66500, Note_on_c, 0, 58, 100
2, 66500, Note_on_c, 0, 48, 100
2, 66500, Note_on_c, 0, 36, 100
2, 68000, Note_off_c, 0, 75, 64
2, 68000, Note_on_c, 0, 69, 100
2, 69000, Note_off_c, 0, 69, 64
2, 69000, Note_on_c, 0, 72, 100
2, 69000, Note_off_c, 0, 63, 64
2, 69000, Note_off_c, 0, 58, 64
2, 69000, Note_off_c, 0, 48, 64
2, 69000, Note_off_c, 0, 36, 64
2, 70500, Note_on_c, 0, 65, 100
2, 70500, Note_on_c, 0, 57, 100
2, 70500, Note_on_c, 0, 53, 100
2, 70500, Note_on_c, 0, 41, 100
2, 72000, Note_off_c, 0, 72, 64
2, 72000, Note_off_c, 0, 65, 64
2, 73000, Note_on_c, 0, 65, 100
2, 73000, Note_on_c, 0, 74, 100
2, 73000, Note_off_c, 0, 65, 64
2, 73000, Note_off_c, 0, 57, 64
2, 73000, Note_off_c, 0, 53, 64
2, 73000, Note_off_c, 0, 41, 64
2, 74500, Note_on_c, 0, 65, 100
2, 74500, Note_on_c, 0, 58, 100
2, 74500, Note_on_c, 0, 46, 100
2, 74500, Note_on_c, 0, 34, 100
2, 76000, Note_off_c, 0, 74, 64
2, 76000, Note_off_c, 0, 65, 64
2, 76000, Note_on_c, 0, 62, 100
2, 77000, Note_on_c, 0, 65, 100
2, 77000, Note_off_c, 0, 62, 64
2, 77000, Note_off_c, 0, 70, 64
2, 77000, Note_off_c, 0, 65, 64
2, 77000, Note_off_c, 0, 58, 64
2, 77000, Note_on_c, 0, 62, 100
2, 77000, Note_off_c, 0, 46, 64
2, 77000, Note_off_c, 0, 34, 64
2, 78000, Note_on_c, 0, 65, 100
2, 78000, Note_off_c, 0, 62, 64
2, 78000, Note_on_c, 0, 58, 100
2, 78000, Note_on_c, 0, 46, 100
2, 78000, Note_on_c, 0, 62, 100
2, 78000, Note_on_c, 0, 53, 100
2, 78000, Note_off_c, 0, 46, 64
2, 78000, Note_on_c, 0, 34, 100
2, 79500, Note_on_c, 0, 70, 100
2, 79500, Note_off_c, 0, 62, 64
2, 79500, Note_off_c, 0, 58, 64
2, 80500, Note_on_c, 0, 62, 100
2, 80500, Note_on_c, 0, 58, 100
2, 80500, Note_off_c, 0, 65, 64
2, 80500, Note_off_c, 0, 62, 64
2, 80500, Note_off_c, 0, 53, 64
2, 80500, Note_off_c, 0, 58, 64
2, 80500, Note_on_c, 0, 46, 100
2, 80500, Note_off_c, 0, 34, 64
2, 81500, Note_on_c, 0, 62, 100
2, 81500, Note_on_c, 0, 58, 100
2, 81500, Note_off_c, 0, 46, 64
2, 81500, Note_off_c, 0, 58, 64
2, 81500, Note_on_c, 0, 50, 100
2, 81500, Note_on_c, 0, 46, 100
2, 81500, Note_on_c, 0, 34, 100
2, 83000, Note_on_c, 0, 65, 100
2, 83000, Note_on_c, 0, 58, 100
2, 83000, Note_off_c, 0, 62, 64
2, 83000, Note_off_c, 0, 50, 64
2, 83000, Note_on_c, 0, 53, 100
2, 84000, Note_off_c, 0, 58, 64
2, 84000, Note_on_c, 0, 62, 100
2, 84000, Note_off_c, 0, 53, 64
2, 84000, Note_off_c, 0, 62, 64
2, 84000, Note_off_c, 0, 65, 64
2, 84000, Note_on_c, 0, 58, 100
2, 84000, Note_off_c, 0, 46, 64
2, 84000, Note_off_c, 0, 34, 64
2, 85000, Note_on_c, 0, 62, 100
2, 85000, Note_on_c, 0, 65, 100
2, 85000, Note_off_c, 0, 58, 64
2, 85000, Note_on_c, 0, 46, 100
2, 85000, Note_off_c, 0, 65, 64
2, 85000, Note_off_c, 0, 70, 64
2, 85000, Note_off_c, 0, 62, 64
2, 85000, Note_off_c, 0, 46, 64
2, 85000, Note_on_c, 0, 34, 100
2, 86000, Note_on_c, 0, 65, 100
2, 86000, Note_on_c, 0, 70, 100
2, 86000, Note_on_c, 0, 62, 100
2, 86000, Note_off_c, 0, 62, 64
2, 86000, Note_off_c, 0, 65, 64
2, 86000, Note_on_c, 0, 58, 100
2, 87000, Note_on_c, 0, 62, 100
2, 87000, Note_on_c, 0, 65, 100
2, 87000, Note_off_c, 0, 58, 64
2, 87000, Note_off_c, 0, 65, 64
2, 87000, Note_off_c, 0, 70, 64
2, 87000, Note_off_c, 0, 62, 64
2, 87000, Note_on_c, 0, 46, 100
2, 87000, Note_on_c, 0, 58, 100
2, 87000, Note_off_c, 0, 34, 64
2, 88000, Note_on_c, 0, 65, 100
2, 88000, Note_on_c, 0, 70, 100
2, 88000, Note_on_c, 0, 62, 100
2, 88000, Note_off_c, 0, 58, 64
2, 88000, Note_off_c, 0, 46, 64
2, 88000, Note_off_c, 0, 70, 64
2, 88000, Note_off_c, 0, 62, 64
2, 88000, Note_off_c, 0, 65, 64
2, 88000, Note_on_c, 0, 46, 100
2, 88000, Note_on_c, 0, 34, 100
2, 89000, Note_on_c, 0, 70, 100
2, 89000, Note_on_c, 0, 65, 100
2, 90000, Note_off_c, 0, 65, 64
2, 90000, Note_on_c, 0, 67, 100
2, 90000, Note_on_c, 0, 62, 100
2, 90000, Note_on_c, 0, 65, 100
2, 90000, Note_off_c, 0, 46, 64
2, 90000, Note_off_c, 0, 34, 64
2, 91500, Note_on_c, 0, 63, 100
2, 91500, Note_on_c, 0, 58, 100
2, 91500, Note_on_c, 0, 46, 100
2, 93000, Note_off_c, 0, 67, 64
2, 93000, Note_off_c, 0, 65, 64
2, 94000, Note_on_c, 0, 65, 100
2, 94000, Note_off_c, 0, 70, 64
2, 94000, Note_off_c, 0, 63, 64
2, 94000, Note_off_c, 0, 58, 64
2, 94000, Note_off_c, 0, 46, 64
2, 95500, Note_off_c, 0, 62, 64
2, 95500, Note_on_c, 0, 53, 100
2, 95500, Note_on_c, 0, 46, 100
2, 95500, Note_on_c, 0, 34, 100
2, 97000, Note_on_c, 0, 70, 100
2, 97000, Note_off_c, 0, 65, 64
2, 98000, Note_on_c, 0, 65, 100
2, 98000, Note_on_c, 0, 67, 100
2, 98000, Note_on_c, 0, 62, 100
2, 98000, Note_off_c, 0, 53, 64
2, 98000, Note_off_c, 0, 46, 64
2, 98000, Note_off_c, 0, 34, 64
2, 99500, Note_on_c, 0, 63, 100
2, 99500, Note_on_c, 0, 58, 100
2, 99500, Note_on_c, 0, 46, 100
2, 101000, Note_off_c, 0, 67, 64
2, 101000, Note_off_c, 0, 65, 64
2, 102000, Note_on_c, 0, 65, 100
2, 102000, Note_off_c, 0, 70, 64
2, 102000, Note_off_c, 0, 63, 64
2, 102000, Note_off_c, 0, 62, 64
2, 102000, Note_off_c, 0, 58, 64
2, 102000, Note_on_c, 0, 53, 100
2, 102000, Note_off_c, 0, 46, 64
2, 102000, Note_on_c, 0, 34, 100
2, 103000, Note_on_c, 0, 62, 100
2, 103000, Note_off_c, 0, 53, 64
2, 103000, Note_on_c, 0, 46, 100
2, 103000, Note_off_c, 0, 34, 64
2, 103000, Note_on_c, 0, 63, 100
2, 103000, Note_on_c, 0, 55, 100
2, 103000, Note_on_c, 0, 51, 100
2, 103000, Note_on_c, 0, 39, 100
2, 104500, Note_on_c, 0, 70, 100
2, 104500, Note_on_c, 0, 67, 100
2, 105500, Note_off_c, 0, 67, 64
2, 105500, Note_on_c, 0, 75, 100
2, 105500, Note_off_c, 0, 63, 64
2, 105500, Note_on_c, 0, 67, 100
2, 105500, Note_off_c, 0, 55, 64
2, 105500, Note_on_c, 0, 60, 100
2, 105500, Note_off_c, 0, 51, 64
2, 105500, Note_on_c, 0, 48, 100
2, 105500, Note_off_c, 0, 39, 64
2, 105500, Note_on_c, 0, 36, 100
2, 106500, Note_off_c, 0, 67, 64
2, 106500, Note_off_c, 0, 60, 64
2, 106500, Note_off_c, 0, 48, 64
2, 106500, Note_off_c, 0, 36, 64
2, 106500, Note_off_c, 0, 65, 64
2, 106500, Note_on_c, 0, 57, 100
2, 106500, Note_on_c, 0, 53, 100
2, 106500, Note_on_c, 0, 41, 100
2, 108000, Note_off_c, 0, 75, 64
2, 108000, Note_on_c, 0, 69, 100
2, 109000, Note_off_c, 0, 69, 64
2, 109000, Note_on_c, 0, 77, 100
2, 109000, Note_on_c, 0, 65, 100
2, 109000, Note_on_c, 0, 72, 100
2, 109000, Note_off_c, 0, 57, 64
2, 109000, Note_off_c, 0, 53, 64
2, 109000, Note_on_c, 0, 45, 100
2, 109000, Note_off_c, 0, 41, 64
2, 109000, Note_on_c, 0, 33, 100
2, 110000, Note_off_c, 0, 72, 64
2, 110000, Note_on_c, 0, 53, 100
2, 110000, Note_off_c, 0, 45, 64
2, 110000, Note_off_c, 0, 33, 64
2, 110000, Note_off_c, 0, 77, 64
2, 110000, Note_on_c, 0, 74, 100
2, 110000, Note_off_c, 0, 70, 64
2, 110000, Note_off_c, 0, 65, 64
2, 110000, Note_off_c, 0, 46, 64
2, 110000, Note_on_c, 0, 34, 100
2, 111000, Note_off_c, 0, 74, 64
2, 111000, Note_on_c, 0, 70, 100
2, 111000, Note_on_c, 0, 65, 100
2, 111000, Note_on_c, 0, 46, 100
2, 111000, Note_off_c, 0, 34, 64
2, 111000, Note_off_c, 0, 70, 64
2, 111000, Note_off_c, 0, 65, 64
2, 111000, Note_off_c, 0, 62, 64
2, 111000, Note_on_c, 0, 50, 100
2, 111000, Note_on_c, 0, 38, 100
2, 112000, Note_on_c, 0, 70, 100
2, 112000, Note_on_c, 0, 65, 100
2, 112000, Note_on_c, 0, 62, 100
2, 112000, Note_off_c, 0, 50, 64
2, 112000, Note_off_c, 0, 38, 64
2, 112000, Note_on_c, 0, 69, 100
2, 112000, Note_off_c, 0, 65, 64
2, 112000, Note_on_c, 0, 60, 100
2, 112000, Note_off_c, 0, 53, 64
2, 112000, Note_on_c, 0, 41, 100
2, 113000, Note_off_c, 0, 69, 64
2, 113000, Note_on_c, 0, 65, 100
2, 113000, Note_off_c, 0, 60, 64
2, 113000, Note_on_c, 0, 53, 100
2, 113000, Note_off_c, 0, 41, 64
2, 113000, Note_off_c, 0, 70, 64
2, 113000, Note_off_c, 0, 65, 64
2, 113000, Note_off_c, 0, 62, 64
2, 113000, Note_on_c, 0, 58, 100
2, 113000, Note_off_c, 0, 46, 64
2, 114000, Note_off_c, 0, 58, 64
2, 114000, Note_on_c, 0, 46, 100
2, 114000, Note_on_c, 0, 50, 100
2, 114000, Note_on_c, 0, 38, 100
2, 114500, Note_on_c, 0, 70, 100
2, 114500, Note_on_c, 0, 65, 100
2, 114500, Note_off_c, 0, 50, 64
2, 114500, Note_off_c, 0, 38, 64
2, 114500, Note_off_c, 0, 65, 64
2, 114500, Note_on_c, 0, 67, 100
2, 114500, Note_off_c, 0, 70, 64
2, 114500, Note_on_c, 0, 62, 100
2, 114500, Note_off_c, 0, 53, 64
2, 114500, Note_on_c, 0, 41, 100
2, 115000, Note_off_c, 0, 67, 64
2, 115000, Note_on_c, 0, 69, 100
2, 115000, Note_on_c, 0, 53, 100
2, 115000, Note_off_c, 0, 41, 64
2, 115000, Note_off_c, 0, 69, 64
2, 115000, Note_on_c, 0, 70, 100
2, 115000, Note_off_c, 0, 46, 64
2, 115000, Note_on_c, 0, 34, 100
2, 115500, Note_off_c, 0, 70, 64
2, 115500, Note_on_c, 0, 69, 100
2, 116000, Note_off_c, 0, 69, 64
2, 116000, Note_on_c, 0, 70, 100
2, 116000, Note_on_c, 0, 46, 100
2, 116000, Note_on_c, 0, 50, 100
2, 116500, Note_on_c, 0, 65, 100
2, 116500, Note_off_c, 0, 70, 64
2, 116500, Note_off_c, 0, 50, 64
2, 116500, Note_off_c, 0, 65, 64
2, 116500, Note_on_c, 0, 67, 100
2, 116500, Note_off_c, 0, 53, 64
2, 116500, Note_off_c, 0, 34, 64
2, 116500, Note_off_c, 0, 46, 64
2, 117000, Note_off_c, 0, 67, 64
2, 117000, Note_on_c, 0, 69, 100
2, 117000, Note_on_c, 0, 53, 100
2, 117000, Note_off_c, 0, 69, 64
2, 117000, Note_on_c, 0, 70, 100
2, 117000, Note_on_c, 0, 45, 100
2, 117500, Note_off_c, 0, 70, 64
2, 117500, Note_on_c, 0, 69, 100
2, 118000, Note_off_c, 0, 69, 64
2, 118000, Note_on_c, 0, 70, 100
2, 118000, Note_off_c, 0, 45, 64
2, 118000, Note_on_c, 0, 50, 100
2, 118500, Note_on_c, 0, 65, 100
2, 118500, Note_off_c, 0, 70, 64
2, 118500, Note_off_c, 0, 50, 64
2, 118500, Note_off_c, 0, 65, 64
2, 118500, Note_on_c, 0, 67, 100
2, 118500, Note_off_c, 0, 53, 64
2, 119000, Note_off_c, 0, 67, 64
2, 119000, Note_on_c, 0, 69, 100
2, 119000, Note_on_c, 0, 53, 100
2, 119000, Note_off_c, 0, 69, 64
2, 119000, Note_on_c, 0, 70, 100
2, 119000, Note_on_c, 0, 43, 100
2, 119500, Note_off_c, 0, 70, 64
2, 119500, Note_on_c, 0, 69, 100
2, 120000, Note_off_c, 0, 69, 64
2, 120000, Note_on_c, 0, 70, 100
2, 120000, Note_off_c, 0, 43, 64
2, 120000, Note_on_c, 0, 46, 100
2, 120500, Note_on_c, 0, 65, 100
2, 120500, Note_off_c, 0, 70, 64
2, 120500, Note_off_c, 0, 46, 64
2, 120500, Note_off_c, 0, 65, 64
2, 120500, Note_on_c, 0, 67, 100
2, 120500, Note_on_c, 0, 50, 100
2, 121000, Note_off_c, 0, 67, 64
2, 121000, Note_on_c, 0, 69, 100
2, 121000, Note_off_c, 0, 50, 64
2, 121000, Note_off_c, 0, 69, 64
2, 121000, Note_on_c, 0, 70, 100
2, 121000, Note_on_c, 0, 41, 100
2, 121500, Note_off_c, 0, 70, 64
2, 121500, Note_on_c, 0, 69, 100
2, 122000, Note_off_c, 0, 69, 64
2, 122000, Note_on_c, 0, 70, 100
2, 122000, Note_off_c, 0, 41, 64
2, 122000, Note_on_c, 0, 46, 100
2, 122500, Note_on_c, 0, 67, 100
2, 122500, Note_off_c, 0, 70, 64
2, 122500, Note_off_c, 0, 46, 64
2, 122500, Note_off_c, 0, 67, 64
2, 122500, Note_on_c, 0, 69, 100
2, 122500, Note_on_c, 0, 50, 100
2, 123000, Note_off_c, 0, 69, 64
2, 123000, Note_on_c, 0, 70, 100
2, 123000, Note_off_c, 0, 50, 64
2, 123000, Note_off_c, 0, 70, 64
2, 123000, Note_on_c, 0, 72, 100
2, 123000, Note_on_c, 0, 39, 100
2, 123500, Note_off_c, 0, 72, 64
2, 123500, Note_on_c, 0, 70, 100
2, 124000, Note_off_c, 0, 70, 64
2, 124000, Note_on_c, 0, 72, 100
2, 124000, Note_off_c, 0, 39, 64
2, 124000, Note_on_c, 0, 43, 100
2, 124500, Note_off_c, 0, 72, 64
2, 124500, Note_on_c, 0, 70, 100
2, 124500, Note_on_c, 0, 67, 100
2, 124500, Note_off_c, 0, 43, 64
2, 124500, Note_off_c, 0, 70, 64
2, 124500, Note_on_c, 0, 69, 100
2, 124500, Note_off_c, 0, 67, 64
2, 124500, Note_on_c, 0, 48, 100
2, 125000, Note_off_c, 0, 69, 64
2, 125000, Note_on_c, 0, 67, 100
2, 125000, Note_on_c, 0, 70, 100
2, 125000, Note_off_c, 0, 48, 64
2, 125000, Note_off_c, 0, 67, 64
2, 125000, Note_on_c, 0, 65, 100
2, 125000, Note_off_c, 0, 70, 64
2, 125000, Note_on_c, 0, 72, 100
2, 125000, Note_on_c, 0, 45, 100
2, 125500, Note_off_c, 0, 72, 64
2, 125500, Note_on_c, 0, 70, 100
2, 125500, Note_off_c, 0, 65, 64
2, 125500, Note_on_c, 0, 69, 100
2, 125500, Note_off_c, 0, 70, 64
2, 125500, Note_on_c, 0, 72, 100
2, 125500, Note_off_c, 0, 45, 64
2, 125500, Note_on_c, 0, 48, 100
2, 126000, Note_off_c, 0, 72, 64
2, 126000, Note_on_c, 0, 70, 100
2, 126000, Note_off_c, 0, 69, 64
2, 126000, Note_off_c, 0, 48, 64
2, 126000, Note_on_c, 0, 72, 100
2, 126000, Note_off_c, 0, 70, 64
2, 126000, Note_on_c, 0, 69, 100
2, 126000, Note_on_c, 0, 41, 100
2, 126500, Note_off_c, 0, 69, 64
2, 126500, Note_on_c, 0, 67, 100
2, 126500, Note_off_c, 0, 72, 64
2, 126500, Note_off_c, 0, 41, 64
2, 126500, Note_on_c, 0, 74, 100
2, 126500, Note_off_c, 0, 67, 64
2, 126500, Note_on_c, 0, 65, 100
2, 126500, Note_on_c, 0, 46, 100
2, 127000, Note_off_c, 0, 74, 64
2, 127000, Note_on_c, 0, 72, 100
2, 127000, Note_off_c, 0, 65, 64
2, 127000, Note_on_c, 0, 63, 100
2, 127500, Note_off_c, 0, 72, 64
2, 127500, Note_on_c, 0, 74, 100
2, 127500, Note_off_c, 0, 63, 64
2, 127500, Note_on_c, 0, 65, 100
2, 127500, Note_off_c, 0, 46, 64
2, 127500, Note_on_c, 0, 50, 100
2, 128000, Note_off_c, 0, 74, 64
2, 128000, Note_on_c, 0, 75, 100
2, 128000, Note_off_c, 0, 65, 64
2, 128000, Note_on_c, 0, 67, 100
2, 128000, Note_off_c, 0, 50, 64
2, 128000, Note_off_c, 0, 75, 64
2, 128000, Note_on_c, 0, 74, 100
2, 128000, Note_off_c, 0, 67, 64
2, 128000, Note_on_c, 0, 65, 100
2, 128000, Note_off_c, 0, 53, 64
2, 128500, Note_off_c, 0, 74, 64
2, 128500, Note_on_c, 0, 72, 100
2, 128500, Note_off_c, 0, 65, 64
2, 128500, Note_on_c, 0, 63, 100
2, 128500, Note_on_c, 0, 53, 100
2, 128500, Note_off_c, 0, 72, 64
2, 128500, Note_on_c, 0, 70, 100
2, 128500, Note_off_c, 0, 63, 64
2, 128500, Note_off_c, 0, 62, 64
2, 128500, Note_on_c, 0, 58, 100
2, 129000, Note_on_c, 0, 62, 100
2, 129000, Note_on_c, 0, 60, 100
2, 129000, Note_off_c, 0, 70, 64
2, 129000, Note_on_c, 0, 65, 100
2, 129000, Note_off_c, 0, 60, 64
2, 129000, Note_off_c, 0, 62, 64
2, 129000, Note_off_c, 0, 58, 64
2, 129000, Note_on_c, 0, 57, 100
2, 129500, Note_on_c, 0, 62, 100
2, 129500, Note_on_c, 0, 63, 100
2, 129500, Note_off_c, 0, 65, 64
2, 129500, Note_off_c, 0, 57, 64
2, 129500, Note_on_c, 0, 74, 100
2, 129500, Note_off_c, 0, 63, 64
2, 129500, Note_on_c, 0, 65, 100
2, 129500, Note_on_c, 0, 58, 100
2, 130000, Note_off_c, 0, 65, 64
2, 130000, Note_off_c, 0, 62, 64
2, 130000, Note_off_c, 0, 58, 64
2, 130000, Note_on_c, 0, 62, 100
2, 130000, Note_on_c, 0, 67, 100
2, 130000, Note_on_c, 0, 52, 100
2, 130500, Note_off_c, 0, 67, 64
2, 130500, Note_on_c, 0, 69, 100
2, 130500, Note_off_c, 0, 52, 64
2, 130500, Note_off_c, 0, 74, 64
2, 130500, Note_on_c, 0, 67, 100
2, 130500, Note_off_c, 0, 69, 64
2, 130500, Note_on_c, 0, 70, 100
2, 130500, Note_on_c, 0, 55, 100
2, 131000, Note_off_c, 0, 70, 64
2, 131000, Note_on_c, 0, 69, 100
2, 131000, Note_off_c, 0, 67, 64
2, 131000, Note_off_c, 0, 55, 64
2, 131000, Note_on_c, 0, 70, 100
2, 131000, Note_off_c, 0, 69, 64
2, 131000, Note_on_c, 0, 67, 100
2, 131000, Note_on_c, 0, 52, 100
2, 131500, Note_off_c, 0, 67, 64
2, 131500, Note_on_c, 0, 65, 100
2, 131500, Note_off_c, 0, 52, 64
2, 131500, Note_off_c, 0, 65, 64
2, 131500, Note_on_c, 0, 64, 100
2, 131500, Note_on_c, 0, 48, 100
2, 132000, Note_off_c, 0, 64, 64
2, 132000, Note_off_c, 0, 62, 64
2, 132000, Note_off_c, 0, 48, 64
2, 132000, Note_off_c, 0, 70, 64
2, 132000, Note_on_c, 0, 64, 100
2, 132000, Note_on_c, 0, 62, 100
2, 132000, Note_on_c, 0, 60, 100
2, 132000, Note_on_c, 0, 57, 100
2, 132500, Note_off_c, 0, 60, 64
2, 132500, Note_off_c, 0, 62, 64
2, 132500, Note_off_c, 0, 64, 64
2, 132500, Note_off_c, 0, 57, 64
2, 132500, Note_on_c, 0, 72, 100
2, 132500, Note_on_c, 0, 62, 100
2, 132500, Note_on_c, 0, 64, 100
2, 132500, Note_on_c, 0, 48, 100
2, 133000, Note_off_c, 0, 64, 64
2, 133000, Note_on_c, 0, 60, 100
2, 133000, Note_off_c, 0, 48, 64
2, 133000, Note_off_c, 0, 60, 64
2, 133000, Note_on_c, 0, 65, 100
2, 133000, Note_on_c, 0, 50, 100
2, 133500, Note_off_c, 0, 65, 64
2, 133500, Note_on_c, 0, 67, 100
2, 133500, Note_off_c, 0, 50, 64
2, 133500, Note_off_c, 0, 72, 64
2, 133500, Note_on_c, 0, 65, 100
2, 133500, Note_off_c, 0, 67, 64
2, 133500, Note_on_c, 0, 69, 100
2, 133500, Note_off_c, 0, 53, 64
2, 134000, Note_off_c, 0, 69, 64
2, 134000, Note_on_c, 0, 67, 100
2, 134000, Note_off_c, 0, 65, 64
2, 134000, Note_on_c, 0, 53, 100
2, 134000, Note_on_c, 0, 69, 100
2, 134000, Note_off_c, 0, 67, 64
2, 134000, Note_on_c, 0, 65, 100
2, 134000, Note_on_c, 0, 50, 100
2, 134500, Note_off_c, 0, 65, 64
2, 134500, Note_on_c, 0, 64, 100
2, 134500, Note_off_c, 0, 50, 64
2, 134500, Note_off_c, 0, 64, 64
2, 134500, Note_off_c, 0, 62, 64
2, 134500, Note_on_c, 0, 46, 100
2, 135000, Note_on_c, 0, 62, 100
2, 135000, Note_on_c, 0, 60, 100
2, 135000, Note_off_c, 0, 46, 64
2, 135000, Note_off_c, 0, 69, 64
2, 135000, Note_off_c, 0, 62, 64
2, 135000, Note_off_c, 0, 60, 64
2, 135000, Note_on_c, 0, 58, 100
2, 135000, Note_on_c, 0, 55, 100
2, 135500, Note_off_c, 0, 58, 64
2, 135500, Note_on_c, 0, 60, 100
2, 135500, Note_on_c, 0, 62, 100
2, 135500, Note_off_c, 0, 55, 64
2, 135500, Note_on_c, 0, 70, 100
2, 135500, Note_off_c, 0, 60, 64
2, 135500, Note_off_c, 0, 62, 64
2, 135500, Note_on_c, 0, 46, 100
2, 136000, Note_on_c, 0, 62, 100
2, 136000, Note_on_c, 0, 58, 100
2, 136000, Note_off_c, 0, 46, 64
2, 136000, Note_off_c, 0, 58, 64
2, 136000, Note_on_c, 0, 64, 100
2, 136000, Note_on_c, 0, 48, 100
2, 136500, Note_off_c, 0, 64, 64
2, 136500, Note_on_c, 0, 65, 100
2, 137000, Note_off_c, 0, 70, 64
2, 137000, Note_on_c, 0, 64, 100
2, 137000, Note_off_c, 0, 65, 64
2, 137000, Note_on_c, 0, 67, 100
2, 137500, Note_off_c, 0, 67, 64
2, 137500, Note_on_c, 0, 65, 100
2, 137500, Note_off_c, 0, 64, 64
2, 137500, Note_on_c, 0, 67, 100
2, 137500, Note_off_c, 0, 65, 64
2, 137500, Note_on_c, 0, 64, 100
2, 137500, Note_off_c, 0, 48, 64
2, 137500, Note_on_c, 0, 46, 100
2, 138000, Note_off_c, 0, 64, 64
2, 138000, Note_off_c, 0, 62, 64
2, 138500, Note_on_c, 0, 62, 100
2, 138500, Note_on_c, 0, 60, 100
2, 138500, Note_off_c, 0, 46, 64
2, 138500, Note_on_c, 0, 45, 100
2, 139000, Note_off_c, 0, 60, 64
2, 139000, Note_off_c, 0, 62, 64
2, 139500, Note_off_c, 0, 67, 64
2, 139500, Note_on_c, 0, 60, 100
2, 139500, Note_on_c, 0, 62, 100
2, 139500, Note_on_c, 0, 64, 100
2, 140000, Note_off_c, 0, 64, 64
2, 140000, Note_off_c, 0, 62, 64
2, 140000, Note_off_c, 0, 60, 64
2, 140000, Note_on_c, 0, 70, 100
2, 140000, Note_on_c, 0, 62, 100
2, 140000, Note_on_c, 0, 60, 100
2, 140000, Note_off_c, 0, 45, 64
2, 140000, Note_on_c, 0, 43, 100
2, 140500, Note_off_c, 0, 60, 64
2, 140500, Note_on_c, 0, 58, 100
2, 140500, Note_off_c, 0, 70, 64
2, 140500, Note_on_c, 0, 69, 100
2, 140500, Note_off_c, 0, 58, 64
2, 140500, Note_on_c, 0, 60, 100
2, 140500, Note_off_c, 0, 43, 64
2, 140500, Note_on_c, 0, 41, 100
2, 141000, Note_off_c, 0, 60, 64
2, 141000, Note_on_c, 0, 65, 100
2, 141500, Note_off_c, 0, 69, 64
2, 141500, Note_on_c, 0, 67, 100
2, 141500, Note_off_c, 0, 65, 64
2, 141500, Note_on_c, 0, 64, 100
2, 142000, Note_off_c, 0, 64, 64
2, 142000, Note_off_c, 0, 62, 64
2, 142000, Note_off_c, 0, 67, 64
2, 142000, Note_on_c, 0, 69, 100
2, 142000, Note_on_c, 0, 62, 100
2, 142000, Note_on_c, 0, 60, 100
2, 142000, Note_off_c, 0, 41, 64
2, 142500, Note_off_c, 0, 60, 64
2, 142500, Note_on_c, 0, 58, 100
2, 142500, Note_off_c, 0, 69, 64
2, 142500, Note_on_c, 0, 65, 100
2, 142500, Note_off_c, 0, 58, 64
2, 142500, Note_on_c, 0, 57, 100
2, 143000, Note_off_c, 0, 57, 64
2, 143000, Note_on_c, 0, 58, 100
2, 143500, Note_off_c, 0, 65, 64
2, 143500, Note_on_c, 0, 57, 100
2, 143500, Note_off_c, 0, 58, 64
2, 143500, Note_on_c, 0, 60, 100
2, 144000, Note_off_c, 0, 60, 64
2, 144000, Note_on_c, 0, 58, 100
2, 144000, Note_off_c, 0, 57, 64
2, 144000, Note_on_c, 0, 60, 100
2, 144000, Note_off_c, 0, 58, 64
2, 144000, Note_on_c, 0, 57, 100
2, 144500, Note_off_c, 0, 57, 64
2, 144500, Note_on_c, 0, 55, 100
2, 144500, Note_off_c, 0, 60, 64
2, 144500, Note_on_c, 0, 65, 100
2, 144500, Note_off_c, 0, 55, 64
2, 144500, Note_off_c, 0, 53, 64
2, 144500, Note_on_c, 0, 60, 100
2, 144500, Note_on_c, 0, 57, 100
2, 144500, Note_on_c, 0, 41, 100
2, 146000, Note_off_c, 0, 65, 64
2, 146000, Note_on_c, 0, 64, 100
2, 147000, Note_off_c, 0, 64, 64
2, 147000, Note_on_c, 0, 65, 100
2, 147000, Note_on_c, 0, 53, 100
2, 147000, Note_off_c, 0, 60, 64
2, 147000, Note_off_c, 0, 57, 64
2, 147000, Note_off_c, 0, 41, 64
2, 148000, Note_off_c, 0, 65, 64
2, 148000, Note_on_c, 0, 57, 100
2, 148000, Note_on_c, 0, 60, 100
2, 148000, Note_off_c, 0, 53, 64
2, 148000, Note_on_c, 0, 52, 100
2, 148000, Note_on_c, 0, 40, 100
2, 149500, Note_off_c, 0, 57, 64
2, 149500, Note_off_c, 0, 60, 64
2, 150500, Note_on_c, 0, 60, 100
2, 150500, Note_on_c, 0, 65, 100
2, 150500, Note_off_c, 0, 60, 64
2, 150500, Note_on_c, 0, 53, 100
2, 150500, Note_off_c, 0, 52, 64
2, 150500, Note_off_c, 0, 40, 64
2, 151500, Note_off_c, 0, 65, 64
2, 151500, Note_on_c, 0, 65, 100
2, 151500, Note_off_c, 0, 62, 64
2, 151500, Note_on_c, 0, 57, 100
2, 151500, Note_on_c, 0, 50, 100
2, 151500, Note_on_c, 0, 38, 100
2, 153000, Note_off_c, 0, 65, 64
2, 153000, Note_on_c, 0, 64, 100
2, 154000, Note_off_c, 0, 64, 64
2, 154000, Note_on_c, 0, 65, 100
2, 154000, Note_on_c, 0, 62, 100
2, 154000, Note_off_c, 0, 57, 64
2, 154000, Note_off_c, 0, 50, 64
2, 154000, Note_off_c, 0, 38, 64
2, 155000, Note_off_c, 0, 65, 64
2, 155000, Note_on_c, 0, 57, 100
2, 155000, Note_on_c, 0, 65, 100
2, 155000, Note_on_c, 0, 60, 100
2, 155000, Note_on_c, 0, 48, 100
2, 155000, Note_on_c, 0, 36, 100
2, 156500, Note_off_c, 0, 57, 64
2, 156500, Note_off_c, 0, 60, 64
2, 157500, Note_on_c, 0, 60, 100
2, 157500, Note_off_c, 0, 65, 64
2, 157500, Note_off_c, 0, 60, 64
2, 157500, Note_off_c, 0, 48, 64
2, 157500, Note_off_c, 0, 36, 64
2, 158500, Note_on_c, 0, 65, 100
2, 158500, Note_on_c, 0, 67, 100
2, 158500, Note_off_c, 0, 65, 64
2, 158500, Note_off_c, 0, 62, 64
2, 158500, Note_on_c, 0, 46, 100
2, 158500, Note_on_c, 0, 34, 100
2, 160000, Note_off_c, 0, 67, 64
2, 160000, Note_on_c, 0, 65, 100
2, 161000, Note_off_c, 0, 65, 64
2, 161000, Note_on_c, 0, 67, 100
2, 161000, Note_on_c, 0, 65, 100
2, 161000, Note_on_c, 0, 62, 100
2, 161000, Note_off_c, 0, 46, 64
2, 161000, Note_off_c, 0, 34, 64
2, 162000, Note_off_c, 0, 67, 64
2, 162000, Note_on_c, 0, 60, 100
2, 162000, Note_on_c, 0, 64, 100
2, 162000, Note_on_c, 0, 48, 100
2, 162000, Note_on_c, 0, 36, 100
2, 163500, Note_off_c, 0, 60, 64
2, 163500, Note_off_c, 0, 64, 64
2, 164500, Note_on_c, 0, 64, 100
2, 164500, Note_on_c, 0, 67, 100
2, 164500, Note_off_c, 0, 64, 64
2, 164500, Note_on_c, 0, 60, 100
2, 164500, Note_off_c, 0, 48, 64
2, 164500, Note_off_c, 0, 36, 64
2, 165500, Note_off_c, 0, 67, 64
2, 165500, Note_on_c, 0, 69, 100
2, 165500, Note_off_c, 0, 65, 64
2, 165500, Note_off_c, 0, 60, 64
2, 165500, Note_on_c, 0, 41, 100
2, 165500, Note_on_c, 0, 29, 100
2, 167000, Note_off_c, 0, 69, 64
2, 167000, Note_on_c, 0, 67, 100
2, 167000, Note_on_c, 0, 65, 100
2, 167000, Note_on_c, 0, 64, 100
2, 167000, Note_on_c, 0, 60, 100
2, 167000, Note_on_c, 0, 58, 100
2, 168000, Note_off_c, 0, 67, 64
2, 168000, Note_off_c, 0, 64, 64
2, 168000, Note_off_c, 0, 58, 64
2, 168000, Note_on_c, 0, 69, 100
2, 168000, Note_off_c, 0, 65, 64
2, 168000, Note_off_c, 0, 60, 64
2, 169000, Note_off_c, 0, 69, 64
2, 169000, Note_on_c, 0, 65, 100
2, 169000, Note_on_c, 0, 60, 100
2, 169000, Note_off_c, 0, 65, 64
2, 169000, Note_off_c, 0, 60, 64
2, 169000, Note_on_c, 0, 57, 100
2, 170000, Note_off_c, 0, 41, 64
2, 170000, Note_on_c, 0, 45, 100
2, 170500, Note_on_c, 0, 65, 100
2, 170500, Note_on_c, 0, 60, 100
2, 170500, Note_off_c, 0, 45, 64
2, 170500, Note_off_c, 0, 65, 64
2, 170500, Note_off_c, 0, 60, 64
2, 170500, Note_off_c, 0, 62, 64
2, 170500, Note_off_c, 0, 57, 64
2, 170500, Note_on_c, 0, 48, 100
2, 170500, Note_on_c, 0, 41, 100
2, 170500, Note_off_c, 0, 29, 64
2, 171000, Note_on_c, 0, 62, 100
2, 171000, Note_on_c, 0, 64, 100
2, 171000, Note_off_c, 0, 48, 64
2, 171000, Note_off_c, 0, 64, 64
2, 171000, Note_on_c, 0, 65, 100
2, 171000, Note_off_c, 0, 53, 64
2, 171500, Note_off_c, 0, 65, 64
2, 171500, Note_on_c, 0, 64, 100
2, 172000, Note_off_c, 0, 64, 64
2, 172000, Note_on_c, 0, 65, 100
2, 172000, Note_on_c, 0, 53, 100
2, 172000, Note_on_c, 0, 57, 100
2, 172500, Note_on_c, 0, 60, 100
2, 172500, Note_off_c, 0, 65, 64
2, 172500, Note_off_c, 0, 57, 64
2, 172500, Note_off_c, 0, 60, 64
2, 172500, Note_off_c, 0, 62, 64
2, 173000, Note_on_c, 0, 62, 100
2, 173000, Note_on_c, 0, 64, 100
2, 173000, Note_on_c, 0, 60, 100
2, 173000, Note_off_c, 0, 64, 64
2, 173000, Note_on_c, 0, 65, 100
2, 173000, Note_on_c, 0, 52, 100
2, 173500, Note_off_c, 0, 65, 64
2, 173500, Note_on_c, 0, 64, 100
2, 174000, Note_off_c, 0, 64, 64
2, 174000, Note_on_c, 0, 65, 100
2, 174000, Note_off_c, 0, 52, 64
2, 174000, Note_on_c, 0, 57, 100
2, 174500, Note_off_c, 0, 60, 64
2, 174500, Note_off_c, 0, 65, 64
2, 174500, Note_off_c, 0, 57, 64
2, 174500, Note_on_c, 0, 60, 100
2, 174500, Note_off_c, 0, 62, 64
2, 175000, Note_on_c, 0, 62, 100
2, 175000, Note_on_c, 0, 64, 100
2, 175000, Note_off_c, 0, 60, 64
2, 175000, Note_off_c, 0, 64, 64
2, 175000, Note_on_c, 0, 65, 100
2, 175000, Note_on_c, 0, 50, 100
2, 175500, Note_off_c, 0, 65, 64
2, 175500, Note_on_c, 0, 64, 100
2, 176000, Note_off_c, 0, 64, 64
2, 176000, Note_on_c, 0, 65, 100
2, 176000, Note_off_c, 0, 50, 64
2, 176000, Note_off_c, 0, 53, 64
2, 176500, Note_on_c, 0, 60, 100
2, 176500, Note_off_c, 0, 65, 64
2, 176500, Note_on_c, 0, 53, 100
2, 176500, Note_off_c, 0, 60, 64
2, 176500, Note_off_c, 0, 62, 64
2, 176500, Note_on_c, 0, 57, 100
2, 177000, Note_on_c, 0, 62, 100
2, 177000, Note_on_c, 0, 64, 100
2, 177000, Note_off_c, 0, 57, 64
2, 177000, Note_off_c, 0, 64, 64
2, 177000, Note_on_c, 0, 65, 100
2, 177000, Note_on_c, 0, 48, 100
2, 177500, Note_off_c, 0, 65, 64
2, 177500, Note_on_c, 0, 64, 100
2, 178000, Note_off_c, 0, 64, 64
2, 178000, Note_on_c, 0, 65, 100
2, 178000, Note_off_c, 0, 48, 64
2, 178000, Note_off_c, 0, 53, 64
2, 178500, Note_off_c, 0, 62, 64
2, 178500, Note_off_c, 0, 65, 64
2, 178500, Note_on_c, 0, 53, 100
2, 178500, Note_on_c, 0, 62, 100
2, 178500, Note_on_c, 0, 64, 100
2, 178500, Note_on_c, 0, 57, 100
2, 179000, Note_off_c, 0, 64, 64
2, 179000, Note_on_c, 0, 65, 100
2, 179000, Note_off_c, 0, 57, 64
2, 179000, Note_off_c, 0, 65, 64
2, 179000, Note_on_c, 0, 67, 100
2, 179000, Note_on_c, 0, 46, 100
2, 179500, Note_off_c, 0, 67, 64
2, 179500, Note_on_c, 0, 65, 100
2, 180000, Note_off_c, 0, 65, 64
2, 180000, Note_on_c, 0, 67, 100
2, 180000, Note_off_c, 0, 46, 64
2, 180000, Note_on_c, 0, 50, 100
2, 180500, Note_off_c, 0, 62, 64
2, 180500, Note_off_c, 0, 67, 64
2, 180500, Note_on_c, 0, 65, 100
2, 180500, Note_off_c, 0, 50, 64
2, 180500, Note_on_c, 0, 62, 100
2, 180500, Note_on_c, 0, 64, 100
2, 180500, Note_off_c, 0, 65, 64
2, 180500, Note_on_c, 0, 55, 100
2, 181000, Note_off_c, 0, 64, 64
2, 181000, Note_on_c, 0, 65, 100
2, 181000, Note_off_c, 0, 62, 64
2, 181000, Note_off_c, 0, 55, 64
2, 181000, Note_off_c, 0, 65, 64
2, 181000, Note_on_c, 0, 67, 100
2, 181000, Note_on_c, 0, 62, 100
2, 181000, Note_on_c, 0, 60, 100
2, 181000, Note_on_c, 0, 52, 100
2, 181500, Note_off_c, 0, 67, 64
2, 181500, Note_on_c, 0, 65, 100
2, 181500, Note_off_c, 0, 60, 64
2, 181500, Note_off_c, 0, 65, 64
2, 181500, Note_on_c, 0, 67, 100
2, 181500, Note_on_c, 0, 64, 100
2, 181500, Note_off_c, 0, 52, 64
2, 181500, Note_on_c, 0, 55, 100
2, 182000, Note_off_c, 0, 67, 64
2, 182000, Note_on_c, 0, 65, 100
2, 182000, Note_off_c, 0, 64, 64
2, 182000, Note_off_c, 0, 55, 64
2, 182000, Note_off_c, 0, 65, 64
2, 182000, Note_on_c, 0, 64, 100
2, 182000, Note_on_c, 0, 67, 100
2, 182000, Note_on_c, 0, 48, 100
2, 182500, Note_off_c, 0, 64, 64
2, 182500, Note_off_c, 0, 62, 64
2, 182500, Note_off_c, 0, 67, 64
2, 182500, Note_off_c, 0, 48, 64
2, 182500, Note_on_c, 0, 62, 100
2, 182500, Note_on_c, 0, 60, 100
2, 182500, Note_on_c, 0, 69, 100
2, 182500, Note_off_c, 0, 41, 64
2, 183000, Note_off_c, 0, 60, 64
2, 183000, Note_on_c, 0, 58, 100
2, 183000, Note_off_c, 0, 69, 64
2, 183000, Note_on_c, 0, 67, 100
2, 183500, Note_off_c, 0, 58, 64
2, 183500, Note_on_c, 0, 60, 100
2, 183500, Note_off_c, 0, 67, 64
2, 183500, Note_on_c, 0, 69, 100
2, 183500, Note_on_c, 0, 41, 100
2, 183500, Note_on_c, 0, 45, 100
2, 184000, Note_off_c, 0, 60, 64
2, 184000, Note_off_c, 0, 62, 64
2, 184000, Note_off_c, 0, 69, 64
2, 184000, Note_on_c, 0, 70, 100
2, 184000, Note_off_c, 0, 45, 64
2, 184000, Note_on_c, 0, 62, 100
2, 184000, Note_on_c, 0, 60, 100
2, 184000, Note_off_c, 0, 70, 64
2, 184000, Note_on_c, 0, 69, 100
2, 184000, Note_on_c, 0, 48, 100
2, 184500, Note_off_c, 0, 60, 64
2, 184500, Note_on_c, 0, 58, 100
2, 184500, Note_off_c, 0, 69, 64
2, 184500, Note_on_c, 0, 67, 100
2, 184500, Note_off_c, 0, 48, 64
2, 184500, Note_off_c, 0, 58, 64
2, 184500, Note_on_c, 0, 57, 100
2, 184500, Note_off_c, 0, 67, 64
2, 184500, Note_on_c, 0, 65, 100
2, 184500, Note_off_c, 0, 53, 64
2, 185000, Note_off_c, 0, 57, 64
2, 185000, Note_on_c, 0, 55, 100
2, 185000, Note_off_c, 0, 65, 64
2, 185000, Note_off_c, 0, 55, 64
2, 185000, Note_on_c, 0, 57, 100
2, 185000, Note_on_c, 0, 60, 100
2, 185000, Note_on_c, 0, 53, 100
2, 185000, Note_on_c, 0, 52, 100
2, 185500, Note_off_c, 0, 57, 64
2, 185500, Note_on_c, 0, 58, 100
2, 185500, Note_off_c, 0, 60, 64
2, 185500, Note_off_c, 0, 52, 64
2, 185500, Note_off_c, 0, 58, 64
2, 185500, Note_on_c, 0, 60, 100
2, 185500, Note_on_c, 0, 69, 100
2, 185500, Note_off_c, 0, 53, 64
2, 186000, Note_off_c, 0, 60, 64
2, 186000, Note_on_c, 0, 57, 100
2, 186000, Note_on_c, 0, 53, 100
2, 186000, Note_off_c, 0, 57, 64
2, 186000, Note_off_c, 0, 62, 64
2, 186000, Note_on_c, 0, 47, 100
2, 186500, Note_on_c, 0, 62, 100
2, 186500, Note_on_c, 0, 64, 100
2, 186500, Note_off_c, 0, 47, 64
2, 186500, Note_off_c, 0, 64, 64
2, 186500, Note_on_c, 0, 65, 100
2, 186500, Note_off_c, 0, 69, 64
2, 186500, Note_off_c, 0, 62, 64
2, 186500, Note_on_c, 0, 50, 100
2, 187000, Note_off_c, 0, 65, 64
2, 187000, Note_on_c, 0, 64, 100
2, 187000, Note_on_c, 0, 62, 100
2, 187000, Note_off_c, 0, 50, 64
2, 187000, Note_off_c, 0, 64, 64
2, 187000, Note_off_c, 0, 62, 64
2, 187000, Note_on_c, 0, 65, 100
2, 187000, Note_on_c, 0, 47, 100
2, 187500, Note_on_c, 0, 62, 100
2, 187500, Note_on_c, 0, 60, 100
2, 187500, Note_off_c, 0, 47, 64
2, 187500, Note_off_c, 0, 60, 64
2, 187500, Note_on_c, 0, 59, 100
2, 187500, Note_on_c, 0, 43, 100
2, 188000, Note_off_c, 0, 59, 64
2, 188000, Note_on_c, 0, 57, 100
2, 188000, Note_off_c, 0, 43, 64
2, 188000, Note_off_c, 0, 57, 64
2, 188000, Note_on_c, 0, 55, 100
2, 188000, Note_off_c, 0, 65, 64
2, 188000, Note_on_c, 0, 59, 100
2, 188000, Note_on_c, 0, 52, 100
2, 188500, Note_off_c, 0, 55, 64
2, 188500, Note_on_c, 0, 57, 100
2, 188500, Note_off_c, 0, 59, 64
2, 188500, Note_off_c, 0, 52, 64
2, 188500, Note_off_c, 0, 57, 64
2, 188500, Note_on_c, 0, 59, 100
2, 188500, Note_on_c, 0, 67, 100
2, 188500, Note_on_c, 0, 43, 100
2, 189000, Note_off_c, 0, 59, 64
2, 189000, Note_on_c, 0, 55, 100
2, 189000, Note_off_c, 0, 43, 64
2, 189000, Note_off_c, 0, 55, 64
2, 189000, Note_on_c, 0, 60, 100
2, 189000, Note_on_c, 0, 45, 100
2, 189500, Note_off_c, 0, 60, 64
2, 189500, Note_off_c, 0, 62, 64
2, 189500, Note_off_c, 0, 45, 64
2, 189500, Note_on_c, 0, 62, 100
2, 189500, Note_on_c, 0, 64, 100
2, 189500, Note_off_c, 0, 67, 64
2, 189500, Note_on_c, 0, 60, 100
2, 189500, Note_on_c, 0, 48, 100
2, 190000, Note_off_c, 0, 64, 64
2, 190000, Note_off_c, 0, 62, 64
2, 190000, Note_off_c, 0, 60, 64
2, 190000, Note_off_c, 0, 48, 64
2, 190000, Note_on_c, 0, 62, 100
2, 190000, Note_on_c, 0, 60, 100
2, 190000, Note_on_c, 0, 64, 100
2, 190000, Note_on_c, 0, 45, 100
2, 190500, Note_off_c, 0, 60, 64
2, 190500, Note_on_c, 0, 59, 100
2, 190500, Note_off_c, 0, 45, 64
2, 190500, Note_off_c, 0, 59, 64
2, 190500, Note_on_c, 0, 57, 100
2, 190500, Note_off_c, 0, 41, 64
2, 191000, Note_off_c, 0, 57, 64
2, 191000, Note_on_c, 0, 55, 100
2, 191000, Note_on_c, 0, 41, 100
2, 191000, Note_off_c, 0, 55, 64
2, 191000, Note_off_c, 0, 53, 64
2, 191000, Note_off_c, 0, 64, 64
2, 191000, Note_on_c, 0, 57, 100
2, 191000, Note_on_c, 0, 50, 100
2, 191500, Note_on_c, 0, 53, 100
2, 191500, Note_on_c, 0, 55, 100
2, 191500, Note_off_c, 0, 57, 64
2, 191500, Note_off_c, 0, 50, 64
2, 191500, Note_off_c, 0, 55, 64
2, 191500, Note_on_c, 0, 57, 100
2, 191500, Note_on_c, 0, 65, 100
2, 191500, Note_off_c, 0, 41, 64
2, 192000, Note_off_c, 0, 57, 64
2, 192000, Note_off_c, 0, 53, 64
2, 192000, Note_on_c, 0, 41, 100
2, 192000, Note_on_c, 0, 53, 100
2, 192000, Note_on_c, 0, 59, 100
2, 192000, Note_on_c, 0, 43, 100
2, 192500, Note_off_c, 0, 59, 64
2, 192500, Note_on_c, 0, 60, 100
2, 193000, Note_off_c, 0, 60, 64
2, 193000, Note_off_c, 0, 62, 64
2, 193000, Note_off_c, 0, 65, 64
2, 193000, Note_on_c, 0, 59, 100
2, 193500, Note_on_c, 0, 62, 100
2, 193500, Note_on_c, 0, 60, 100
2, 193500, Note_off_c, 0, 59, 64
2, 193500, Note_off_c, 0, 60, 64
2, 193500, Note_on_c, 0, 59, 100
2, 193500, Note_off_c, 0, 62, 64
2, 193500, Note_off_c, 0, 43, 64
2, 193500, Note_off_c, 0, 41, 64
2, 194000, Note_off_c, 0, 59, 64
2, 194000, Note_on_c, 0, 57, 100
2, 194500, Note_off_c, 0, 57, 64
2, 194500, Note_on_c, 0, 55, 100
2, 194500, Note_on_c, 0, 41, 100
2, 194500, Note_on_c, 0, 40, 100
2, 195000, Note_off_c, 0, 55, 64
2, 195000, Note_on_c, 0, 57, 100
2, 195500, Note_off_c, 0, 57, 64
2, 195500, Note_on_c, 0, 59, 100
2, 195500, Note_on_c, 0, 62, 100
2, 195500, Note_on_c, 0, 55, 100
2, 196000, Note_off_c, 0, 59, 64
2, 196000, Note_on_c, 0, 57, 100
2, 196000, Note_off_c, 0, 55, 64
2, 196000, Note_off_c, 0, 57, 64
2, 196000, Note_on_c, 0, 55, 100
2, 196000, Note_on_c, 0, 65, 100
2, 196000, Note_off_c, 0, 40, 64
2, 196000, Note_on_c, 0, 38, 100
2, 196500, Note_off_c, 0, 55, 64
2, 196500, Note_off_c, 0, 53, 64
2, 196500, Note_off_c, 0, 65, 64
2, 196500, Note_on_c, 0, 53, 100
2, 196500, Note_on_c, 0, 55, 100
2, 196500, Note_on_c, 0, 64, 100
2, 196500, Note_off_c, 0, 38, 64
2, 196500, Note_on_c, 0, 36, 100
2, 197000, Note_off_c, 0, 55, 64
2, 197000, Note_on_c, 0, 60, 100
2, 197500, Note_off_c, 0, 60, 64
2, 197500, Note_on_c, 0, 59, 100
2, 197500, Note_off_c, 0, 64, 64
2, 197500, Note_off_c, 0, 62, 64
2, 198000, Note_off_c, 0, 59, 64
2, 198000, Note_on_c, 0, 57, 100
2, 198000, Note_on_c, 0, 62, 100
2, 198000, Note_off_c, 0, 57, 64
2, 198000, Note_on_c, 0, 55, 100
2, 198000, Note_on_c, 0, 64, 100
2, 198000, Note_off_c, 0, 36, 64
2, 198500, Note_off_c, 0, 55, 64
2, 198500, Note_off_c, 0, 53, 64
2, 198500, Note_off_c, 0, 64, 64
2, 198500, Note_on_c, 0, 53, 100
2, 198500, Note_on_c, 0, 52, 100
2, 198500, Note_on_c, 0, 60, 100
2, 199000, Note_off_c, 0, 52, 64
2, 199000, Note_off_c, 0, 53, 64
2, 199500, Note_on_c, 0, 53, 100
2, 199500, Note_on_c, 0, 55, 100
2, 199500, Note_off_c, 0, 60, 64
2, 199500, Note_on_c, 0, 64, 100
2, 200000, Note_off_c, 0, 55, 64
2, 200000, Note_off_c, 0, 53, 64
2, 200000, Note_off_c, 0, 64, 64
2, 200000, Note_on_c, 0, 53, 100
2, 200000, Note_on_c, 0, 52, 100
2, 200000, Note_on_c, 0, 67, 100
2, 200500, Note_off_c, 0, 52, 64
2, 200500, Note_on_c, 0, 50, 100
2, 200500, Note_off_c, 0, 67, 64
2, 200500, Note_off_c, 0, 50, 64
2, 200500, Note_on_c, 0, 48, 100
2, 200500, Note_on_c, 0, 72, 100
2, 200500, Note_on_c, 0, 65, 100
2, 200500, Note_on_c, 0, 60, 100
2, 200500, Note_on_c, 0, 45, 100
2, 200500, Note_on_c, 0, 33, 100
2, 201500, Note_off_c, 0, 48, 64
2, 201500, Note_off_c, 0, 72, 64
2, 201500, Note_off_c, 0, 60, 64
2, 201500, Note_off_c, 0, 65, 64
2, 202500, Note_on_c, 0, 60, 100
2, 202500, Note_on_c, 0, 65, 100
2, 202500, Note_on_c, 0, 69, 100
2, 202500, Note_off_c, 0, 65, 64
2, 202500, Note_off_c, 0, 60, 64
2, 202500, Note_off_c, 0, 45, 64
2, 202500, Note_off_c, 0, 33, 64
2, 204000, Note_on_c, 0, 65, 100
2, 204000, Note_on_c, 0, 60, 100
2, 204000, Note_on_c, 0, 50, 100
2, 204000, Note_on_c, 0, 38, 100
2, 205500, Note_off_c, 0, 69, 64
2, 205500, Note_off_c, 0, 62, 64
2, 206500, Note_on_c, 0, 62, 100
2, 206500, Note_on_c, 0, 70, 100
2, 206500, Note_off_c, 0, 65, 64
2, 206500, Note_off_c, 0, 60, 64
2, 206500, Note_off_c, 0, 50, 64
2, 206500, Note_off_c, 0, 38, 64
2, 208000, Note_on_c, 0, 65, 100
2, 208000, Note_on_c, 0, 58, 100
2, 208000, Note_on_c, 0, 43, 100
2, 208000, Note_on_c, 0, 31, 100
2, 209500, Note_off_c, 0, 70, 64
2, 209500, Note_on_c, 0, 64, 100
2, 210500, Note_off_c, 0, 64, 64
2, 210500, Note_on_c, 0, 67, 100
2, 210500, Note_off_c, 0, 65, 64
2, 210500, Note_off_c, 0, 58, 64
2, 210500, Note_off_c, 0, 43, 64
2, 210500, Note_off_c, 0, 31, 64
2, 212000, Note_on_c, 0, 64, 100
2, 212000, Note_on_c, 0, 60, 100
2, 212000, Note_on_c, 0, 48, 100
2, 212000, Note_on_c, 0, 36, 100
2, 213500, Note_off_c, 0, 67, 64
2, 213500, Note_off_c, 0, 60, 64
2, 214500, Note_on_c, 0, 60, 100
2, 214500, Note_on_c, 0, 69, 100
2, 214500, Note_off_c, 0, 64, 64
2, 214500, Note_off_c, 0, 60, 64
2, 214500, Note_off_c, 0, 48, 64
2, 214500, Note_off_c, 0, 36, 64
2, 216000, Note_on_c, 0, 65, 100
2, 216000, Note_on_c, 0, 60, 100
2, 216000, Note_off_c, 0, 41, 64
2, 216000, Note_on_c, 0, 29, 100
2, 216500, Note_off_c, 0, 69, 64
2, 216500, Note_off_c, 0, 65, 64
2, 217000, Note_on_c, 0, 69, 100
2, 217000, Note_off_c, 0, 60, 64
2, 217000, Note_on_c, 0, 65, 100
2, 217000, Note_on_c, 0, 64, 100
2, 217500, Note_off_c, 0, 64, 64
2, 217500, Note_off_c, 0, 62, 64
2, 217500, Note_on_c, 0, 60, 100
2, 217500, Note_off_c, 0, 65, 64
2, 217500, Note_on_c, 0, 62, 100
2, 217500, Note_off_c, 0, 60, 64
2, 217500, Note_on_c, 0, 41, 100
2, 217500, Note_off_c, 0, 53, 64
2, 217500, Note_off_c, 0, 29, 64
2, 218000, Note_on_c, 0, 60, 100
2, 218000, Note_on_c, 0, 58, 100
2, 218000, Note_on_c, 0, 53, 100
2, 218000, Note_off_c, 0, 58, 64
2, 218000, Note_on_c, 0, 57, 100
2, 218000, Note_off_c, 0, 41, 64
2, 218500, Note_off_c, 0, 57, 64
2, 218500, Note_off_c, 0, 62, 64
2, 219000, Note_on_c, 0, 65, 100
2, 219000, Note_on_c, 0, 57, 100
2, 219000, Note_on_c, 0, 62, 100
2, 219000, Note_off_c, 0, 60, 64
2, 219500, Note_on_c, 0, 60, 100
2, 219500, Note_on_c, 0, 58, 100
2, 219500, Note_off_c, 0, 57, 64
2, 219500, Note_off_c, 0, 60, 64
2, 219500, Note_off_c, 0, 58, 64
2, 219500, Note_on_c, 0, 57, 100
2, 219500, Note_on_c, 0, 41, 100
2, 219500, Note_off_c, 0, 53, 64
2, 220000, Note_off_c, 0, 57, 64
2, 220000, Note_on_c, 0, 55, 100
2, 220000, Note_on_c, 0, 53, 100
2, 220000, Note_off_c, 0, 55, 64
2, 220000, Note_off_c, 0, 53, 64
2, 220000, Note_off_c, 0, 41, 64
2, 220500, Note_on_c, 0, 53, 100
2, 220500, Note_on_c, 0, 48, 100
2, 221000, Note_on_c, 0, 60, 100
2, 221000, Note_off_c, 0, 53, 64
2, 221000, Note_off_c, 0, 48, 64
2, 221000, Note_on_c, 0, 50, 100
2, 221500, Note_off_c, 0, 50, 64
2, 221500, Note_on_c, 0, 52, 100
2, 221500, Note_on_c, 0, 53, 100
2, 221500, Note_on_c, 0, 57, 100
2, 221500, Note_off_c, 0, 52, 64
2, 221500, Note_off_c, 0, 53, 64
2, 221500, Note_on_c, 0, 41, 100
2, 222000, Note_on_c, 0, 53, 100
2, 222000, Note_on_c, 0, 55, 100
2, 222000, Note_off_c, 0, 57, 64
2, 222000, Note_off_c, 0, 53, 64
2, 222000, Note_off_c, 0, 60, 64
2, 222000, Note_off_c, 0, 55, 64
2, 222000, Note_on_c, 0, 57, 100
2, 222000, Note_off_c, 0, 41, 64
2, 222500, Note_off_c, 0, 57, 64
2, 222500, Note_on_c, 0, 55, 100
2, 222500, Note_on_c, 0, 60, 100
2, 222500, Note_on_c, 0, 57, 100
2, 222500, Note_off_c, 0, 55, 64
2, 222500, Note_on_c, 0, 53, 100
2, 223000, Note_off_c, 0, 53, 64
2, 223000, Note_on_c, 0, 55, 100
2, 223000, Note_off_c, 0, 57, 64
2, 223000, Note_off_c, 0, 60, 64
2, 223000, Note_off_c, 0, 55, 64
2, 223000, Note_on_c, 0, 57, 100
2, 223000, Note_on_c, 0, 41, 100
2, 223000, Note_on_c, 0, 53, 100
2, 223500, Note_off_c, 0, 57, 64
2, 223500, Note_on_c, 0, 58, 100
2, 223500, Note_on_c, 0, 60, 100
2, 223500, Note_off_c, 0, 53, 64
2, 223500, Note_off_c, 0, 65, 64
2, 223500, Note_off_c, 0, 58, 64
2, 223500, Note_off_c, 0, 60, 64
2, 223500, Note_on_c, 0, 57, 100
2, 223500, Note_off_c, 0, 41, 64
2, 223500, Note_on_c, 0, 29, 100
2, 224500, Note_on_c, 0, 65, 100
2, 224500, Note_on_c, 0, 60, 100
2, 224500, Note_off_c, 0, 60, 64
2, 224500, Note_on_c, 0, 53, 100
2, 225500, Note_on_c, 0, 60, 100
2, 225500, Note_off_c, 0, 53, 64
2, 225500, Note_off_c, 0, 62, 64
2, 225500, Note_off_c, 0, 57, 64
2, 225500, Note_off_c, 0, 60, 64
2, 225500, Note_on_c, 0, 41, 100
2, 225500, Note_off_c, 0, 29, 64
2, 227000, Note_on_c, 0, 58, 100
2, 227000, Note_on_c, 0, 53, 100
2, 227000, Note_off_c, 0, 41, 64
2, 228500, Note_on_c, 0, 62, 100
2, 228500, Note_on_c, 0, 60, 100
2, 229000, Note_off_c, 0, 60, 64
2, 229000, Note_off_c, 0, 58, 64
2, 229000, Note_on_c, 0, 60, 100
2, 229000, Note_on_c, 0, 58, 100
2, 229000, Note_on_c, 0, 57, 100
2, 229000, Note_off_c, 0, 65, 64
2, 229000, Note_off_c, 0, 53, 64
2, 229000, Note_on_c, 0, 41, 100
2, 229500, Note_off_c, 0, 57, 64
2, 229500, Note_on_c, 0, 55, 100
2, 230000, Note_off_c, 0, 55, 64
2, 230000, Note_on_c, 0, 57, 100
2, 230000, Note_off_c, 0, 41, 64
2, 230500, Note_off_c, 0, 57, 64
2, 230500, Note_off_c, 0, 58, 64
2, 231000, Note_on_c, 0, 58, 100
2, 231000, Note_off_c, 0, 60, 64
2, 231000, Note_on_c, 0, 65, 100
2, 231500, Note_on_c, 0, 60, 100
2, 231500, Note_off_c, 0, 58, 64
2, 231500, Note_off_c, 0, 60, 64
2, 231500, Note_on_c, 0, 58, 100
2, 231500, Note_on_c, 0, 57, 100
2, 231500, Note_off_c, 0, 62, 64
2, 231500, Note_on_c, 0, 41, 100
2, 232000, Note_off_c, 0, 57, 64
2, 232000, Note_on_c, 0, 55, 100
2, 232500, Note_off_c, 0, 55, 64
2, 232500, Note_on_c, 0, 53, 100
2, 233000, Note_off_c, 0, 53, 64
2, 233000, Note_on_c, 0, 55, 100
2, 233500, Note_off_c, 0, 55, 64
2, 233500, Note_on_c, 0, 57, 100
2, 233500, Note_on_c, 0, 62, 100
2, 233500, Note_on_c, 0, 60, 100
2, 234000, Note_off_c, 0, 57, 64
2, 234000, Note_on_c, 0, 55, 100
2, 234000, Note_off_c, 0, 60, 64
2, 234000, Note_off_c, 0, 55, 64
2, 234000, Note_on_c, 0, 53, 100
2, 234000, Note_off_c, 0, 65, 64
2, 234000, Note_on_c, 0, 60, 100
2, 234000, Note_on_c, 0, 57, 100
2, 234000, Note_off_c, 0, 41, 64
2, 234000, Note_on_c, 0, 29, 100
2, 234500, Note_off_c, 0, 53, 64
2, 234500, Note_on_c, 0, 52, 100
2, 234500, Note_on_c, 0, 41, 100
2, 234500, Note_off_c, 0, 29, 64
2, 234500, Note_off_c, 0, 52, 64
2, 234500, Note_on_c, 0, 50, 100
2, 234500, Note_off_c, 0, 60, 64
2, 234500, Note_off_c, 0, 62, 64
2, 234500, Note_off_c, 0, 57, 64
2, 234500, Note_off_c, 0, 58, 64
2, 234500, Note_on_c, 0, 46, 100
2, 234500, Note_on_c, 0, 34, 100
2, 236000, Note_off_c, 0, 50, 64
2, 236000, Note_on_c, 0, 62, 100
2, 236000, Note_on_c, 0, 65, 100
2, 237000, Note_off_c, 0, 62, 64
2, 237000, Note_on_c, 0, 70, 100
2, 237000, Note_on_c, 0, 62, 100
2, 237000, Note_on_c, 0, 67, 100
2, 237000, Note_on_c, 0, 58, 100
2, 237000, Note_off_c, 0, 46, 64
2, 237000, Note_on_c, 0, 43, 100
2, 237000, Note_off_c, 0, 34, 64
2, 237000, Note_on_c, 0, 31, 100
2, 238000, Note_off_c, 0, 67, 64
2, 238000, Note_off_c, 0, 62, 64
2, 238000, Note_off_c, 0, 43, 64
2, 238000, Note_off_c, 0, 31, 64
2, 238000, Note_on_c, 0, 55, 100
2, 238000, Note_on_c, 0, 64, 100
2, 238000, Note_on_c, 0, 48, 100
2, 238000, Note_on_c, 0, 36, 100
2, 239500, Note_off_c, 0, 70, 64
2, 239500, Note_off_c, 0, 64, 64
2, 240500, Note_on_c, 0, 64, 100
2, 240500, Note_on_c, 0, 72, 100
2, 240500, Note_off_c, 0, 55, 64
2, 240500, Note_on_c, 0, 67, 100
2, 240500, Note_off_c, 0, 64, 64
2, 240500, Note_on_c, 0, 60, 100
2, 240500, Note_off_c, 0, 48, 64
2, 240500, Note_on_c, 0, 52, 100
2, 240500, Note_off_c, 0, 36, 64
2, 240500, Note_on_c, 0, 40, 100
2, 241500, Note_off_c, 0, 67, 64
2, 241500, Note_off_c, 0, 60, 64
2, 241500, Note_off_c, 0, 52, 64
2, 241500, Note_off_c, 0, 40, 64
2, 241500, Note_off_c, 0, 72, 64
2, 241500, Note_off_c, 0, 69, 64
2, 241500, Note_off_c, 0, 65, 64
2, 241500, Note_on_c, 0, 60, 100
2, 241500, Note_on_c, 0, 53, 100
2, 241500, Note_off_c, 0, 41, 64
2, 242500, Note_on_c, 0, 69, 100
2, 242500, Note_on_c, 0, 65, 100
2, 242500, Note_off_c, 0, 60, 64
2, 242500, Note_off_c, 0, 53, 64
2, 242500, Note_on_c, 0, 41, 100
2, 242500, Note_off_c, 0, 65, 64
2, 242500, Note_on_c, 0, 60, 100
2, 242500, Note_on_c, 0, 57, 100
2, 242500, Note_on_c, 0, 33, 100
2, 242500, Note_on_c, 0, 45, 100
2, 243500, Note_on_c, 0, 65, 100
2, 243500, Note_off_c, 0, 60, 64
2, 243500, Note_off_c, 0, 57, 64
2, 243500, Note_off_c, 0, 33, 64
2, 243500, Note_off_c, 0, 45, 64
2, 243500, Note_on_c, 0, 64, 100
2, 243500, Note_on_c, 0, 60, 100
2, 243500, Note_on_c, 0, 55, 100
2, 243500, Note_on_c, 0, 36, 100
2, 243500, Note_on_c, 0, 48, 100
2, 243500, Note_off_c, 0, 64, 64
2, 243500, Note_off_c, 0, 65, 64
2, 243500, Note_on_c, 0, 65, 100
2, 243500, Note_on_c, 0, 64, 100
2, 243500, Note_off_c, 0, 60, 64
2, 243500, Note_off_c, 0, 55, 64
2, 243500, Note_off_c, 0, 36, 64
2, 243500, Note_off_c, 0, 48, 64
2, 243500, Note_off_c, 0, 64, 64
2, 243500, Note_off_c, 0, 65, 64
2, 243500, Note_on_c, 0, 60, 100
2, 243500, Note_on_c, 0, 57, 100
2, 243500, Note_on_c, 0, 53, 100
2, 243500, Note_off_c, 0, 41, 64
2, 243500, Note_on_c, 0, 29, 100
2, 244000, Note_off_c, 0, 53, 64
2, 244000, Note_on_c, 0, 55, 100
2, 244500, Note_off_c, 0, 55, 64
2, 244500, Note_off_c, 0, 57, 64
2, 245000, Note_on_c, 0, 57, 100
2, 245000, Note_on_c, 0, 55, 100
2, 245500, Note_on_c, 0, 65, 100
2, 245500, Note_off_c, 0, 60, 64
2, 245500, Note_off_c, 0, 57, 64
2, 245500, Note_off_c, 0, 55, 64
2, 245500, Note_on_c, 0, 53, 100
2, 245500, Note_on_c, 0, 41, 100
2, 245500, Note_off_c, 0, 29, 64
2, 246000, Note_off_c, 0, 53, 64
2, 246000, Note_on_c, 0, 51, 100
2, 246000, Note_on_c, 0, 60, 100
2, 246000, Note_off_c, 0, 65, 64
2, 246000, Note_off_c, 0, 51, 64
2, 246000, Note_on_c, 0, 50, 100
2, 246500, Note_off_c, 0, 50, 64
2, 246500, Note_on_c, 0, 51, 100
2, 247000, Note_off_c, 0, 51, 64
2, 247000, Note_on_c, 0, 53, 100
2, 247500, Note_off_c, 0, 53, 64
2, 247500, Note_on_c, 0, 51, 100
2, 248000, Note_off_c, 0, 69, 64
2, 248000, Note_off_c, 0, 51, 64
2, 248000, Note_on_c, 0, 50, 100
2, 248500, Note_off_c, 0, 50, 64
2, 248500, Note_on_c, 0, 48, 100
2, 248500, Note_on_c, 0, 69, 100
2, 248500, Note_on_c, 0, 74, 100
2, 248500, Note_off_c, 0, 48, 64
2, 248500, Note_on_c, 0, 47, 100
2, 249000, Note_off_c, 0, 47, 64
2, 249000, Note_on_c, 0, 50, 100
2, 249500, Note_on_c, 0, 65, 100
2, 249500, Note_on_c, 0, 59, 100
2, 249500, Note_off_c, 0, 50, 64
2, 249500, Note_on_c, 0, 55, 100
2, 250000, Note_off_c, 0, 55, 64
2, 250000, Note_on_c, 0, 53, 100
2, 250000, Note_off_c, 0, 59, 64
2, 250000, Note_on_c, 0, 62, 100
2, 250000, Note_off_c, 0, 53, 64
2, 250000, Note_on_c, 0, 51, 100
2, 250500, Note_off_c, 0, 51, 64
2, 250500, Note_on_c, 0, 50, 100
2, 250500, Note_off_c, 0, 62, 64
2, 250500, Note_on_c, 0, 63, 100
2, 250500, Note_off_c, 0, 50, 64
2, 250500, Note_on_c, 0, 48, 100
2, 251000, Note_off_c, 0, 63, 64
2, 251000, Note_off_c, 0, 65, 64
2, 251000, Note_off_c, 0, 48, 64
2, 251000, Note_off_c, 0, 74, 64
2, 251000, Note_on_c, 0, 67, 100
2, 251000, Note_on_c, 0, 65, 100
2, 251000, Note_on_c, 0, 51, 100
2, 251500, Note_off_c, 0, 67, 64
2, 251500, Note_off_c, 0, 65, 64
2, 251500, Note_on_c, 0, 67, 100
2, 251500, Note_off_c, 0, 51, 64
2, 251500, Note_on_c, 0, 71, 100
2, 251500, Note_on_c, 0, 65, 100
2, 251500, Note_on_c, 0, 63, 100
2, 251500, Note_off_c, 0, 67, 64
2, 251500, Note_on_c, 0, 55, 100
2, 251500, Note_on_c, 0, 43, 100
2, 251500, Note_on_c, 0, 31, 100
2, 252000, Note_off_c, 0, 63, 64
2, 252000, Note_on_c, 0, 62, 100
2, 252000, Note_off_c, 0, 43, 64
2, 252000, Note_off_c, 0, 31, 64
2, 252000, Note_off_c, 0, 71, 64
2, 252000, Note_on_c, 0, 67, 100
2, 252000, Note_off_c, 0, 55, 64
2, 252000, Note_on_c, 0, 72, 100
2, 252000, Note_off_c, 0, 62, 64
2, 252000, Note_on_c, 0, 63, 100
2, 252000, Note_on_c, 0, 55, 100
2, 252000, Note_off_c, 0, 60, 64
2, 252000, Note_on_c, 0, 36, 100
2, 252000, Note_on_c, 0, 48, 100
2, 252500, Note_off_c, 0, 63, 64
2, 252500, Note_on_c, 0, 62, 100
2, 252500, Note_off_c, 0, 72, 64
2, 252500, Note_on_c, 0, 60, 100
2, 252500, Note_off_c, 0, 60, 64
2, 252500, Note_off_c, 0, 62, 64
2, 252500, Note_on_c, 0, 51, 100
2, 253000, Note_on_c, 0, 60, 100
2, 253000, Note_on_c, 0, 63, 100
2, 253000, Note_off_c, 0, 60, 64
2, 253000, Note_off_c, 0, 51, 64
2, 253000, Note_off_c, 0, 63, 64
2, 253000, Note_on_c, 0, 62, 100
2, 253000, Note_off_c, 0, 55, 64
2, 253000, Note_off_c, 0, 36, 64
2, 253000, Note_off_c, 0, 48, 64
2, 253500, Note_off_c, 0, 62, 64
2, 253500, Note_off_c, 0, 65, 64
2, 253500, Note_on_c, 0, 55, 100
2, 253500, Note_on_c, 0, 65, 100
2, 253500, Note_on_c, 0, 63, 100
2, 253500, Note_on_c, 0, 48, 100
2, 254000, Note_off_c, 0, 48, 64
2, 254000, Note_on_c, 0, 50, 100
2, 254500, Note_off_c, 0, 50, 64
2, 254500, Note_on_c, 0, 51, 100
2, 255000, Note_off_c, 0, 51, 64
2, 255000, Note_on_c, 0, 50, 100
2, 255500, Note_off_c, 0, 67, 64
2, 255500, Note_off_c, 0, 50, 64
2, 255500, Note_on_c, 0, 48, 100
2, 256000, Note_off_c, 0, 48, 64
2, 256000, Note_on_c, 0, 46, 100
2, 256000, Note_on_c, 0, 67, 100
2, 256000, Note_on_c, 0, 72, 100
2, 256000, Note_off_c, 0, 46, 64
2, 256000, Note_on_c, 0, 45, 100
2, 256500, Note_off_c, 0, 45, 64
2, 256500, Note_on_c, 0, 48, 100
2, 257000, Note_off_c, 0, 63, 64
2, 257000, Note_on_c, 0, 57, 100
2, 257000, Note_off_c, 0, 48, 64
2, 257000, Note_on_c, 0, 53, 100
2, 257500, Note_off_c, 0, 53, 64
2, 257500, Note_on_c, 0, 51, 100
2, 257500, Note_off_c, 0, 57, 64
2, 257500, Note_on_c, 0, 60, 100
2, 257500, Note_off_c, 0, 51, 64
2, 257500, Note_on_c, 0, 50, 100
2, 258000, Note_off_c, 0, 50, 64
2, 258000, Note_on_c, 0, 48, 100
2, 258000, Note_off_c, 0, 60, 64
2, 258000, Note_on_c, 0, 62, 100
2, 258000, Note_off_c, 0, 48, 64
2, 258000, Note_on_c, 0, 46, 100
2, 258500, Note_off_c, 0, 62, 64
2, 258500, Note_on_c, 0, 63, 100
2, 258500, Note_off_c, 0, 46, 64
2, 258500, Note_off_c, 0, 72, 64
2, 258500, Note_off_c, 0, 65, 64
2, 258500, Note_off_c, 0, 63, 64
2, 258500, Note_on_c, 0, 50, 100
2, 259000, Note_on_c, 0, 65, 100
2, 259000, Note_on_c, 0, 63, 100
2, 259000, Note_off_c, 0, 65, 64
2, 259000, Note_off_c, 0, 50, 64
2, 259000, Note_off_c, 0, 69, 64
2, 259000, Note_off_c, 0, 63, 64
2, 259000, Note_on_c, 0, 62, 100
2, 259000, Note_on_c, 0, 65, 100
2, 259000, Note_on_c, 0, 53, 100
2, 259000, Note_off_c, 0, 41, 64
2, 259000, Note_on_c, 0, 29, 100
2, 259500, Note_off_c, 0, 62, 64
2, 259500, Note_on_c, 0, 60, 100
2, 259500, Note_on_c, 0, 41, 100
2, 259500, Note_off_c, 0, 29, 64
2, 259500, Note_on_c, 0, 69, 100
2, 259500, Note_off_c, 0, 65, 64
2, 259500, Note_off_c, 0, 53, 64
2, 259500, Note_on_c, 0, 70, 100
2, 259500, Note_off_c, 0, 60, 64
2, 259500, Note_on_c, 0, 62, 100
2, 259500, Note_on_c, 0, 53, 100
2, 259500, Note_off_c, 0, 58, 64
2, 259500, Note_on_c, 0, 34, 100
2, 259500, Note_on_c, 0, 46, 100
2, 260000, Note_on_c, 0, 58, 100
2, 260000, Note_on_c, 0, 60, 100
2, 260000, Note_off_c, 0, 70, 64
2, 260000, Note_off_c, 0, 62, 64
2, 260000, Note_off_c, 0, 58, 64
2, 260000, Note_off_c, 0, 60, 64
2, 260500, Note_on_c, 0, 58, 100
2, 260500, Note_on_c, 0, 57, 100
2, 260500, Note_off_c, 0, 58, 64
2, 260500, Note_on_c, 0, 62, 100
2, 260500, Note_off_c, 0, 53, 64
2, 260500, Note_off_c, 0, 57, 64
2, 260500, Note_off_c, 0, 55, 64
2, 260500, Note_off_c, 0, 34, 64
2, 260500, Note_off_c, 0, 46, 64
2, 261000, Note_on_c, 0, 55, 100
2, 261000, Note_on_c, 0, 53, 100
2, 261000, Note_off_c, 0, 62, 64
2, 261000, Note_off_c, 0, 67, 64
2, 261000, Note_off_c, 0, 53, 64
2, 261000, Note_on_c, 0, 51, 100
2, 261500, Note_off_c, 0, 51, 64
2, 261500, Note_on_c, 0, 53, 100
2, 262000, Note_off_c, 0, 53, 64
2, 262000, Note_off_c, 0, 55, 64
2, 262500, Note_on_c, 0, 55, 100
2, 262500, Note_on_c, 0, 53, 100
2, 263000, Note_on_c, 0, 70, 100
2, 263000, Note_off_c, 0, 53, 64
2, 263000, Note_on_c, 0, 51, 100
2, 263500, Note_off_c, 0, 51, 64
2, 263500, Note_on_c, 0, 50, 100
2, 263500, Note_off_c, 0, 70, 64
2, 263500, Note_on_c, 0, 75, 100
2, 263500, Note_off_c, 0, 50, 64
2, 263500, Note_on_c, 0, 48, 100
2, 264000, Note_off_c, 0, 48, 64
2, 264000, Note_on_c, 0, 51, 100
2, 264500, Note_on_c, 0, 67, 100
2, 264500, Note_on_c, 0, 60, 100
2, 264500, Note_off_c, 0, 51, 64
2, 264500, Note_on_c, 0, 57, 100
2, 265000, Note_off_c, 0, 57, 64
2, 265000, Note_off_c, 0, 55, 64
2, 265000, Note_off_c, 0, 60, 64
2, 265000, Note_on_c, 0, 63, 100
2, 265000, Note_on_c, 0, 60, 100
2, 265000, Note_on_c, 0, 57, 100
2, 265000, Note_on_c, 0, 55, 100
2, 265000, Note_on_c, 0, 53, 100
2, 265000, Note_on_c, 0, 36, 100
2, 265000, Note_on_c, 0, 48, 100
2, 265500, Note_off_c, 0, 53, 64
2, 265500, Note_on_c, 0, 51, 100
2, 265500, Note_off_c, 0, 63, 64
2, 265500, Note_off_c, 0, 60, 64
2, 265500, Note_off_c, 0, 57, 64
2, 265500, Note_off_c, 0, 36, 64
2, 265500, Note_off_c, 0, 48, 64
2, 265500, Note_on_c, 0, 65, 100
2, 265500, Note_on_c, 0, 60, 100
2, 265500, Note_on_c, 0, 53, 100
2, 265500, Note_off_c, 0, 51, 64
2, 265500, Note_on_c, 0, 50, 100
2, 265500, Note_on_c, 0, 38, 100
2, 266000, Note_off_c, 0, 50, 64
2, 266000, Note_on_c, 0, 51, 100
2, 266500, Note_off_c, 0, 75, 64
2, 266500, Note_off_c, 0, 69, 64
2, 266500, Note_off_c, 0, 51, 64
2, 266500, Note_off_c, 0, 53, 64
2, 267000, Note_on_c, 0, 53, 100
2, 267000, Note_on_c, 0, 51, 100
2, 267000, Note_on_c, 0, 69, 100
2, 267000, Note_on_c, 0, 72, 100
2, 267000, Note_off_c, 0, 51, 64
2, 267000, Note_on_c, 0, 50, 100
2, 267500, Note_off_c, 0, 50, 64
2, 267500, Note_on_c, 0, 48, 100
2, 267500, Note_off_c, 0, 72, 64
2, 267500, Note_on_c, 0, 74, 100
2, 267500, Note_off_c, 0, 60, 64
2, 267500, Note_off_c, 0, 53, 64
2, 267500, Note_off_c, 0, 48, 64
2, 267500, Note_on_c, 0, 46, 100
2, 267500, Note_off_c, 0, 38, 64
2, 267500, Note_on_c, 0, 50, 100
2, 268000, Note_off_c, 0, 46, 64
2, 268000, Note_off_c, 0, 50, 64
2, 268500, Note_off_c, 0, 65, 64
2, 268500, Note_on_c, 0, 58, 100
2, 268500, Note_on_c, 0, 50, 100
2, 268500, Note_off_c, 0, 55, 64
2, 269000, Note_on_c, 0, 55, 100
2, 269000, Note_on_c, 0, 53, 100
2, 269000, Note_off_c, 0, 58, 64
2, 269000, Note_on_c, 0, 62, 100
2, 269000, Note_on_c, 0, 58, 100
2, 269000, Note_off_c, 0, 55, 64
2, 269000, Note_off_c, 0, 53, 64
2, 269000, Note_on_c, 0, 51, 100
2, 269000, Note_on_c, 0, 34, 100
2, 269000, Note_on_c, 0, 46, 100
2, 269500, Note_off_c, 0, 51, 64
2, 269500, Note_off_c, 0, 50, 64
2, 269500, Note_off_c, 0, 62, 64
2, 269500, Note_off_c, 0, 58, 64
2, 269500, Note_on_c, 0, 55, 100
2, 269500, Note_off_c, 0, 34, 64
2, 269500, Note_off_c, 0, 46, 64
2, 269500, Note_on_c, 0, 63, 100
2, 269500, Note_on_c, 0, 58, 100
2, 269500, Note_on_c, 0, 51, 100
2, 269500, Note_on_c, 0, 50, 100
2, 269500, Note_on_c, 0, 48, 100
2, 269500, Note_on_c, 0, 36, 100
2, 270000, Note_off_c, 0, 48, 64
2, 270000, Note_off_c, 0, 50, 64
2, 270500, Note_off_c, 0, 74, 64
2, 270500, Note_off_c, 0, 67, 64
2, 270500, Note_on_c, 0, 50, 100
2, 270500, Note_off_c, 0, 51, 64
2, 271000, Note_on_c, 0, 51, 100
2, 271000, Note_off_c, 0, 50, 64
2, 271000, Note_on_c, 0, 67, 100
2, 271000, Note_on_c, 0, 70, 100
2, 271000, Note_on_c, 0, 50, 100
2, 271000, Note_on_c, 0, 48, 100
2, 271500, Note_off_c, 0, 48, 64
2, 271500, Note_on_c, 0, 46, 100
2, 271500, Note_off_c, 0, 70, 64
2, 271500, Note_on_c, 0, 72, 100
2, 271500, Note_off_c, 0, 58, 64
2, 271500, Note_off_c, 0, 51, 64
2, 271500, Note_off_c, 0, 46, 64
2, 271500, Note_on_c, 0, 45, 100
2, 271500, Note_off_c, 0, 36, 64
2, 271500, Note_on_c, 0, 48, 100
2, 272000, Note_off_c, 0, 45, 64
2, 272000, Note_off_c, 0, 48, 64
2, 272500, Note_off_c, 0, 63, 64
2, 272500, Note_on_c, 0, 57, 100
2, 272500, Note_on_c, 0, 48, 100
2, 272500, Note_on_c, 0, 53, 100
2, 273000, Note_off_c, 0, 53, 64
2, 273000, Note_on_c, 0, 51, 100
2, 273000, Note_off_c, 0, 57, 64
2, 273000, Note_on_c, 0, 60, 100
2, 273000, Note_on_c, 0, 57, 100
2, 273000, Note_on_c, 0, 53, 100
2, 273000, Note_off_c, 0, 51, 64
2, 273000, Note_off_c, 0, 50, 64
2, 273000, Note_off_c, 0, 41, 64
2, 273000, Note_on_c, 0, 29, 100
2, 273500, Note_on_c, 0, 50, 100
2, 273500, Note_off_c, 0, 48, 64
2, 273500, Note_off_c, 0, 60, 64
2, 273500, Note_off_c, 0, 57, 64
2, 273500, Note_off_c, 0, 53, 64
2, 273500, Note_on_c, 0, 41, 100
2, 273500, Note_off_c, 0, 29, 64
2, 273500, Note_on_c, 0, 62, 100
2, 273500, Note_on_c, 0, 58, 100
2, 273500, Note_on_c, 0, 48, 100
2, 273500, Note_on_c, 0, 46, 100
2, 273500, Note_on_c, 0, 34, 100
2, 274000, Note_off_c, 0, 62, 64
2, 274000, Note_on_c, 0, 60, 100
2, 274000, Note_off_c, 0, 46, 64
2, 274000, Note_on_c, 0, 45, 100
2, 274500, Note_off_c, 0, 72, 64
2, 274500, Note_on_c, 0, 65, 100
2, 274500, Note_off_c, 0, 60, 64
2, 274500, Note_on_c, 0, 62, 100
2, 274500, Note_off_c, 0, 45, 64
2, 274500, Note_on_c, 0, 46, 100
2, 275000, Note_off_c, 0, 62, 64
2, 275000, Note_on_c, 0, 63, 100
2, 275000, Note_off_c, 0, 46, 64
2, 275000, Note_off_c, 0, 48, 64
2, 275000, Note_off_c, 0, 65, 64
2, 275000, Note_on_c, 0, 70, 100
2, 275000, Note_off_c, 0, 63, 64
2, 275000, Note_on_c, 0, 65, 100
2, 275000, Note_on_c, 0, 48, 100
2, 275000, Note_off_c, 0, 50, 64
2, 275500, Note_off_c, 0, 65, 64
2, 275500, Note_off_c, 0, 67, 64
2, 275500, Note_on_c, 0, 50, 100
2, 275500, Note_on_c, 0, 51, 100
2, 276000, Note_on_c, 0, 67, 100
2, 276000, Note_on_c, 0, 60, 100
2, 276000, Note_off_c, 0, 58, 64
2, 276000, Note_off_c, 0, 51, 64
2, 276000, Note_on_c, 0, 53, 100
2, 276000, Note_off_c, 0, 34, 64
2, 276000, Note_on_c, 0, 46, 100
2, 276500, Note_off_c, 0, 53, 64
2, 276500, Note_on_c, 0, 52, 100
2, 276500, Note_off_c, 0, 60, 64
2, 276500, Note_off_c, 0, 70, 64
2, 276500, Note_off_c, 0, 69, 64
2, 276500, Note_on_c, 0, 53, 100
2, 276500, Note_off_c, 0, 52, 64
2, 277000, Note_off_c, 0, 53, 64
2, 277000, Note_off_c, 0, 48, 64
2, 277000, Note_on_c, 0, 69, 100
2, 277000, Note_on_c, 0, 53, 100
2, 277000, Note_on_c, 0, 77, 100
2, 277000, Note_on_c, 0, 48, 100
2, 277000, Note_on_c, 0, 45, 100
2, 277500, Note_off_c, 0, 45, 64
2, 277500, Note_off_c, 0, 48, 64
2, 278000, Note_off_c, 0, 69, 64
2, 278000, Note_on_c, 0, 65, 100
2, 278000, Note_on_c, 0, 48, 100
2, 278000, Note_off_c, 0, 41, 64
2, 278000, Note_on_c, 0, 29, 100
2, 279500, Note_off_c, 0, 77, 64
2, 279500, Note_on_c, 0, 72, 100
2, 280500, Note_off_c, 0, 72, 64
2, 280500, Note_on_c, 0, 74, 100
2, 280500, Note_on_c, 0, 69, 100
2, 280500, Note_off_c, 0, 65, 64
2, 280500, Note_on_c, 0, 41, 100
2, 280500, Note_off_c, 0, 29, 64
2, 282000, Note_off_c, 0, 74, 64
2, 282000, Note_on_c, 0, 70, 100
2, 282000, Note_on_c, 0, 65, 100
2, 282000, Note_off_c, 0, 53, 64
2, 282000, Note_off_c, 0, 41, 64
2, 283500, Note_on_c, 0, 74, 100
2, 283500, Note_on_c, 0, 72, 100
2, 284500, Note_off_c, 0, 72, 64
2, 284500, Note_on_c, 0, 77, 100
2, 284500, Note_off_c, 0, 70, 64
2, 284500, Note_off_c, 0, 65, 64
2, 284500, Note_on_c, 0, 53, 100
2, 284500, Note_on_c, 0, 41, 100
2, 286000, Note_off_c, 0, 69, 64
2, 286000, Note_on_c, 0, 60, 100
2, 286000, Note_off_c, 0, 41, 64
2, 286000, Note_on_c, 0, 29, 100
2, 287500, Note_off_c, 0, 77, 64
2, 287500, Note_on_c, 0, 72, 100
2, 288500, Note_off_c, 0, 72, 64
2, 288500, Note_off_c, 0, 74, 64
2, 288500, Note_on_c, 0, 69, 100
2, 288500, Note_off_c, 0, 60, 64
2, 288500, Note_on_c, 0, 41, 100
2, 288500, Note_off_c, 0, 29, 64
2, 290000, Note_on_c, 0, 65, 100
2, 290000, Note_on_c, 0, 58, 100
2, 290000, Note_off_c, 0, 53, 64
2, 290000, Note_off_c, 0, 41, 64
2, 290500, Note_on_c, 0, 53, 100
2, 290500, Note_off_c, 0, 48, 64
2, 291000, Note_on_c, 0, 74, 100
2, 291000, Note_on_c, 0, 72, 100
2, 291000, Note_on_c, 0, 48, 100
2, 291000, Note_off_c, 0, 50, 64
2, 291500, Note_on_c, 0, 50, 100
2, 291500, Note_on_c, 0, 51, 100
2, 291500, Note_off_c, 0, 72, 64
2, 291500, Note_on_c, 0, 75, 100
2, 291500, Note_off_c, 0, 65, 64
2, 291500, Note_off_c, 0, 58, 64
2, 291500, Note_on_c, 0, 57, 100
2, 291500, Note_off_c, 0, 51, 64
2, 291500, Note_off_c, 0, 53, 64
2, 291500, Note_on_c, 0, 41, 100
2, 292000, Note_on_c, 0, 53, 100
2, 292000, Note_off_c, 0, 55, 64
2, 292000, Note_on_c, 0, 65, 100
2, 292000, Note_off_c, 0, 57, 64
2, 292000, Note_on_c, 0, 72, 100
2, 292000, Note_off_c, 0, 53, 64
2, 292000, Note_on_c, 0, 55, 100
2, 292000, Note_on_c, 0, 57, 100
2, 292500, Note_off_c, 0, 72, 64
2, 292500, Note_off_c, 0, 74, 64
2, 292500, Note_off_c, 0, 57, 64
2, 292500, Note_on_c, 0, 58, 100
2, 293000, Note_off_c, 0, 75, 64
2, 293000, Note_off_c, 0, 69, 64
2, 293000, Note_on_c, 0, 74, 100
2, 293000, Note_off_c, 0, 58, 64
2, 293000, Note_on_c, 0, 60, 100
2, 293500, Note_on_c, 0, 75, 100
2, 293500, Note_off_c, 0, 74, 64
2, 293500, Note_off_c, 0, 60, 64
2, 293500, Note_on_c, 0, 58, 100
2, 293500, Note_on_c, 0, 69, 100
2, 293500, Note_on_c, 0, 72, 100
2, 293500, Note_on_c, 0, 74, 100
2, 293500, Note_on_c, 0, 53, 100
2, 293500, Note_off_c, 0, 65, 64
2, 293500, Note_off_c, 0, 58, 64
2, 293500, Note_on_c, 0, 57, 100
2, 294000, Note_off_c, 0, 72, 64
2, 294000, Note_on_c, 0, 70, 100
2, 294000, Note_off_c, 0, 57, 64
2, 294000, Note_off_c, 0, 55, 64
2, 294000, Note_on_c, 0, 65, 100
2, 294000, Note_off_c, 0, 70, 64
2, 294000, Note_off_c, 0, 69, 64
2, 294000, Note_off_c, 0, 53, 64
2, 294000, Note_on_c, 0, 55, 100
2, 294500, Note_on_c, 0, 69, 100
2, 294500, Note_on_c, 0, 70, 100
2, 294500, Note_on_c, 0, 53, 100
2, 294500, Note_off_c, 0, 55, 64
2, 295000, Note_on_c, 0, 72, 100
2, 295000, Note_off_c, 0, 65, 64
2, 295000, Note_off_c, 0, 70, 64
2, 295000, Note_on_c, 0, 55, 100
2, 295000, Note_on_c, 0, 57, 100
2, 295500, Note_off_c, 0, 72, 64
2, 295500, Note_on_c, 0, 70, 100
2, 295500, Note_off_c, 0, 57, 64
2, 295500, Note_off_c, 0, 55, 64
2, 295500, Note_on_c, 0, 65, 100
2, 295500, Note_off_c, 0, 69, 64
2, 295500, Note_off_c, 0, 70, 64
2, 295500, Note_off_c, 0, 53, 64
2, 295500, Note_off_c, 0, 65, 64
2, 295500, Note_on_c, 0, 55, 100
2, 296000, Note_on_c, 0, 69, 100
2, 296000, Note_off_c, 0, 67, 64
2, 296000, Note_on_c, 0, 53, 100
2, 296000, Note_on_c, 0, 51, 100
2, 296000, Note_on_c, 0, 65, 100
2, 296000, Note_on_c, 0, 67, 100
2, 296000, Note_off_c, 0, 65, 64
2, 296000, Note_off_c, 0, 53, 64
2, 296000, Note_off_c, 0, 51, 64
2, 296000, Note_off_c, 0, 50, 64
2, 296500, Note_on_c, 0, 65, 100
2, 296500, Note_off_c, 0, 67, 64
2, 296500, Note_on_c, 0, 50, 100
2, 296500, Note_on_c, 0, 51, 100
2, 297000, Note_off_c, 0, 69, 64
2, 297000, Note_on_c, 0, 72, 100
2, 297000, Note_on_c, 0, 67, 100
2, 297000, Note_off_c, 0, 51, 64
2, 297000, Note_on_c, 0, 53, 100
2, 297500, Note_on_c, 0, 69, 100
2, 297500, Note_on_c, 0, 70, 100
2, 297500, Note_off_c, 0, 53, 64
2, 297500, Note_on_c, 0, 51, 100
2, 297500, Note_off_c, 0, 72, 64
2, 297500, Note_off_c, 0, 75, 64
2, 297500, Note_off_c, 0, 70, 64
2, 297500, Note_on_c, 0, 72, 100
2, 297500, Note_on_c, 0, 53, 100
2, 297500, Note_off_c, 0, 69, 64
2, 297500, Note_off_c, 0, 65, 64
2, 297500, Note_off_c, 0, 51, 64
2, 297500, Note_off_c, 0, 50, 64
2, 297500, Note_off_c, 0, 41, 64
2, 297500, Note_on_c, 0, 29, 100
2, 298000, Note_off_c, 0, 72, 64
2, 298000, Note_on_c, 0, 69, 100
2, 298000, Note_on_c, 0, 50, 100
2, 298000, Note_off_c, 0, 48, 64
2, 298000, Note_off_c, 0, 69, 64
2, 298000, Note_on_c, 0, 65, 100
2, 298000, Note_on_c, 0, 41, 100
2, 298000, Note_off_c, 0, 29, 64
2, 298000, Note_on_c, 0, 69, 100
2, 298000, Note_on_c, 0, 70, 100
2, 298000, Note_off_c, 0, 65, 64
2, 298000, Note_off_c, 0, 53, 64
2, 298000, Note_on_c, 0, 48, 100
2, 298000, Note_off_c, 0, 46, 64
2, 298000, Note_on_c, 0, 34, 100
2, 298500, Note_on_c, 0, 46, 100
2, 298500, Note_on_c, 0, 53, 100
2, 298500, Note_off_c, 0, 70, 64
2, 298500, Note_on_c, 0, 75, 100
2, 298500, Note_off_c, 0, 74, 64
2, 298500, Note_on_c, 0, 58, 100
2, 298500, Note_off_c, 0, 53, 64
2, 298500, Note_off_c, 0, 55, 64
2, 299000, Note_on_c, 0, 55, 100
2, 299000, Note_on_c, 0, 57, 100
2, 299000, Note_on_c, 0, 74, 100
2, 299000, Note_off_c, 0, 58, 64
2, 299000, Note_on_c, 0, 58, 100
2, 299000, Note_on_c, 0, 68, 100
2, 299000, Note_on_c, 0, 65, 100
2, 299000, Note_on_c, 0, 53, 100
2, 299000, Note_on_c, 0, 62, 100
2, 299000, Note_off_c, 0, 57, 64
2, 299000, Note_off_c, 0, 34, 64
2, 299000, Note_off_c, 0, 46, 64
2, 299500, Note_off_c, 0, 58, 64
2, 299500, Note_on_c, 0, 60, 100
2, 299500, Note_on_c, 0, 58, 100
2, 299500, Note_off_c, 0, 65, 64
2, 299500, Note_off_c, 0, 62, 64
2, 299500, Note_on_c, 0, 65, 100
2, 299500, Note_off_c, 0, 58, 64
2, 299500, Note_off_c, 0, 60, 64
2, 299500, Note_on_c, 0, 62, 100
2, 300000, Note_off_c, 0, 65, 64
2, 300000, Note_off_c, 0, 67, 64
2, 300000, Note_off_c, 0, 62, 64
2, 300000, Note_on_c, 0, 63, 100
2, 300500, Note_on_c, 0, 67, 100
2, 300500, Note_off_c, 0, 68, 64
2, 300500, Note_on_c, 0, 62, 100
2, 300500, Note_off_c, 0, 63, 64
2, 300500, Note_on_c, 0, 65, 100
2, 301000, Note_on_c, 0, 68, 100
2, 301000, Note_off_c, 0, 67, 64
2, 301000, Note_off_c, 0, 65, 64
2, 301000, Note_on_c, 0, 63, 100
2, 301000, Note_off_c, 0, 62, 64
2, 301000, Note_on_c, 0, 67, 100
2, 301000, Note_on_c, 0, 65, 100
2, 301000, Note_on_c, 0, 58, 100
2, 301000, Note_on_c, 0, 70, 100
2, 301000, Note_off_c, 0, 63, 64
2, 301000, Note_on_c, 0, 62, 100
2, 301500, Note_off_c, 0, 65, 64
2, 301500, Note_on_c, 0, 63, 100
2, 301500, Note_off_c, 0, 62, 64
2, 301500, Note_on_c, 0, 60, 100
2, 301500, Note_off_c, 0, 70, 64
2, 301500, Note_off_c, 0, 63, 64
2, 301500, Note_on_c, 0, 62, 100
2, 301500, Note_off_c, 0, 58, 64
2, 301500, Note_off_c, 0, 60, 64
2, 302000, Note_off_c, 0, 62, 64
2, 302000, Note_on_c, 0, 63, 100
2, 302000, Note_on_c, 0, 58, 100
2, 302000, Note_on_c, 0, 60, 100
2, 302500, Note_off_c, 0, 63, 64
2, 302500, Note_on_c, 0, 65, 100
2, 302500, Note_off_c, 0, 58, 64
2, 302500, Note_off_c, 0, 60, 64
2, 302500, Note_on_c, 0, 62, 100
2, 303000, Note_off_c, 0, 65, 64
2, 303000, Note_on_c, 0, 63, 100
2, 303000, Note_off_c, 0, 62, 64
2, 303000, Note_on_c, 0, 60, 100
2, 303000, Note_on_c, 0, 58, 100
2, 303000, Note_off_c, 0, 63, 64
2, 303000, Note_on_c, 0, 62, 100
2, 303000, Note_off_c, 0, 58, 64
2, 303000, Note_on_c, 0, 70, 100
2, 303000, Note_off_c, 0, 60, 64
2, 303500, Note_off_c, 0, 62, 64
2, 303500, Note_on_c, 0, 60, 100
2, 303500, Note_on_c, 0, 58, 100
2, 303500, Note_on_c, 0, 56, 100
2, 303500, Note_off_c, 0, 70, 64
2, 303500, Note_off_c, 0, 60, 64
2, 303500, Note_off_c, 0, 58, 64
2, 303500, Note_off_c, 0, 56, 64
2, 303500, Note_off_c, 0, 55, 64
2, 304000, Note_on_c, 0, 58, 100
2, 304000, Note_on_c, 0, 60, 100
2, 304000, Note_on_c, 0, 55, 100
2, 304000, Note_on_c, 0, 56, 100
2, 304500, Note_off_c, 0, 60, 64
2, 304500, Note_on_c, 0, 62, 100
2, 304500, Note_on_c, 0, 65, 100
2, 304500, Note_off_c, 0, 56, 64
2, 304500, Note_off_c, 0, 58, 64
2, 305000, Note_off_c, 0, 62, 64
2, 305000, Note_on_c, 0, 63, 100
2, 305000, Note_on_c, 0, 58, 100
2, 305000, Note_on_c, 0, 56, 100
2, 305000, Note_off_c, 0, 65, 64
2, 305000, Note_off_c, 0, 63, 64
2, 305000, Note_on_c, 0, 65, 100
2, 305000, Note_off_c, 0, 68, 64
2, 305000, Note_off_c, 0, 58, 64
2, 305000, Note_on_c, 0, 70, 100
2, 305000, Note_on_c, 0, 62, 100
2, 305000, Note_off_c, 0, 56, 64
2, 305000, Note_off_c, 0, 55, 64
2, 305000, Note_on_c, 0, 34, 100
2, 305000, Note_on_c, 0, 46, 100
2, 305500, Note_off_c, 0, 65, 64
2, 305500, Note_off_c, 0, 62, 64
2, 305500, Note_on_c, 0, 55, 100
2, 305500, Note_off_c, 0, 53, 64
2, 305500, Note_off_c, 0, 70, 64
2, 305500, Note_on_c, 0, 62, 100
2, 305500, Note_off_c, 0, 34, 64
2, 305500, Note_off_c, 0, 46, 64
2, 305500, Note_off_c, 0, 62, 64
2, 305500, Note_on_c, 0, 63, 100
2, 305500, Note_on_c, 0, 58, 100
2, 305500, Note_on_c, 0, 53, 100
2, 305500, Note_on_c, 0, 51, 100
2, 305500, Note_on_c, 0, 39, 100
2, 306000, Note_off_c, 0, 51, 64
2, 306000, Note_on_c, 0, 52, 100
2, 306000, Note_off_c, 0, 63, 64
2, 306000, Note_on_c, 0, 51, 100
2, 306000, Note_on_c, 0, 68, 100
2, 306000, Note_off_c, 0, 67, 64
2, 306000, Note_off_c, 0, 52, 64
2, 306000, Note_off_c, 0, 55, 64
2, 306500, Note_on_c, 0, 55, 100
2, 306500, Note_on_c, 0, 52, 100
2, 306500, Note_off_c, 0, 51, 64
2, 306500, Note_on_c, 0, 67, 100
2, 306500, Note_off_c, 0, 67, 64
2, 306500, Note_off_c, 0, 58, 64
2, 306500, Note_off_c, 0, 52, 64
2, 306500, Note_on_c, 0, 51, 100
2, 306500, Note_off_c, 0, 39, 64
2, 307000, Note_off_c, 0, 51, 64
2, 307000, Note_off_c, 0, 50, 64
2, 307500, Note_on_c, 0, 60, 100
2, 307500, Note_off_c, 0, 55, 64
2, 307500, Note_on_c, 0, 50, 100
2, 307500, Note_off_c, 0, 48, 64
2, 307500, Note_on_c, 0, 40, 100
2, 307500, Note_on_c, 0, 52, 100
2, 308000, Note_on_c, 0, 48, 100
2, 308000, Note_off_c, 0, 50, 64
2, 308500, Note_on_c, 0, 67, 100
2, 308500, Note_off_c, 0, 60, 64
2, 308500, Note_on_c, 0, 50, 100
2, 308500, Note_off_c, 0, 52, 64
2, 309000, Note_on_c, 0, 52, 100
2, 309000, Note_off_c, 0, 50, 64
2, 309000, Note_on_c, 0, 60, 100
2, 309000, Note_on_c, 0, 70, 100
2, 309000, Note_off_c, 0, 60, 64
2, 309000, Note_on_c, 0, 55, 100
2, 309000, Note_on_c, 0, 50, 100
2, 309000, Note_off_c, 0, 52, 64
2, 309000, Note_off_c, 0, 40, 64
2, 309500, Note_on_c, 0, 52, 100
2, 309500, Note_off_c, 0, 48, 64
2, 310000, Note_on_c, 0, 60, 100
2, 310000, Note_off_c, 0, 53, 64
2, 310000, Note_on_c, 0, 48, 100
2, 310000, Note_off_c, 0, 41, 64
2, 310500, Note_on_c, 0, 53, 100
2, 310500, Note_off_c, 0, 55, 64
2, 311000, Note_off_c, 0, 70, 64
2, 311000, Note_off_c, 0, 69, 64
2, 311000, Note_on_c, 0, 55, 100
2, 311000, Note_on_c, 0, 57, 100
2, 311500, Note_off_c, 0, 57, 64
2, 311500, Note_off_c, 0, 55, 64
2, 311500, Note_on_c, 0, 69, 100
2, 311500, Note_off_c, 0, 69, 64
2, 311500, Note_off_c, 0, 60, 64
2, 311500, Note_off_c, 0, 53, 64
2, 311500, Note_on_c, 0, 55, 100
2, 311500, Note_on_c, 0, 41, 100
2, 312000, Note_on_c, 0, 53, 100
2, 312000, Note_on_c, 0, 51, 100
2, 312500, Note_on_c, 0, 62, 100
2, 312500, Note_on_c, 0, 57, 100
2, 312500, Note_off_c, 0, 51, 64
2, 312500, Note_off_c, 0, 50, 64
2, 312500, Note_on_c, 0, 42, 100
2, 312500, Note_on_c, 0, 54, 100
2, 313000, Note_on_c, 0, 50, 100
2, 313000, Note_off_c, 0, 52, 64
2, 313500, Note_on_c, 0, 69, 100
2, 313500, Note_off_c, 0, 62, 64
2, 313500, Note_on_c, 0, 52, 100
2, 313500, Note_off_c, 0, 54, 64
2, 314000, Note_on_c, 0, 54, 100
2, 314000, Note_off_c, 0, 52, 64
2, 314000, Note_on_c, 0, 62, 100
2, 314000, Note_on_c, 0, 72, 100
2, 314000, Note_off_c, 0, 62, 64
2, 314000, Note_off_c, 0, 57, 64
2, 314000, Note_on_c, 0, 52, 100
2, 314000, Note_off_c, 0, 54, 64
2, 314000, Note_off_c, 0, 42, 64
2, 314500, Note_on_c, 0, 54, 100
2, 314500, Note_off_c, 0, 50, 64
2, 315000, Note_on_c, 0, 62, 100
2, 315000, Note_off_c, 0, 55, 64
2, 315000, Note_on_c, 0, 50, 100
2, 315000, Note_on_c, 0, 43, 100
2, 315500, Note_on_c, 0, 55, 100
2, 315500, Note_off_c, 0, 54, 64
2, 316000, Note_off_c, 0, 72, 64
2, 316000, Note_on_c, 0, 70, 100
2, 316000, Note_on_c, 0, 54, 100
2, 316000, Note_off_c, 0, 55, 64
2, 316500, Note_on_c, 0, 55, 100
2, 316500, Note_on_c, 0, 57, 100
2, 316500, Note_off_c, 0, 70, 64
2, 316500, Note_off_c, 0, 74, 64
2, 316500, Note_off_c, 0, 62, 64
2, 316500, Note_off_c, 0, 55, 64
2, 316500, Note_off_c, 0, 57, 64
2, 316500, Note_on_c, 0, 58, 100
2, 316500, Note_off_c, 0, 43, 64
2, 317000, Note_off_c, 0, 58, 64
2, 317000, Note_on_c, 0, 55, 100
2, 317500, Note_on_c, 0, 63, 100
2, 317500, Note_on_c, 0, 65, 100
2, 317500, Note_on_c, 0, 60, 100
2, 317500, Note_off_c, 0, 55, 64
2, 317500, Note_on_c, 0, 57, 100
2, 317500, Note_on_c, 0, 45, 100
2, 318000, Note_off_c, 0, 57, 64
2, 318000, Note_on_c, 0, 55, 100
2, 318500, Note_on_c, 0, 74, 100
2, 318500, Note_on_c, 0, 72, 100
2, 318500, Note_off_c, 0, 55, 64
2, 318500, Note_on_c, 0, 57, 100
2, 319000, Note_off_c, 0, 57, 64
2, 319000, Note_on_c, 0, 58, 100
2, 319000, Note_off_c, 0, 72, 64
2, 319000, Note_off_c, 0, 75, 64
2, 319000, Note_off_c, 0, 63, 64
2, 319000, Note_off_c, 0, 60, 64
2, 319000, Note_off_c, 0, 65, 64
2, 319000, Note_off_c, 0, 58, 64
2, 319000, Note_off_c, 0, 45, 64
2, 319000, Note_on_c, 0, 57, 100
2, 319500, Note_on_c, 0, 60, 100
2, 319500, Note_off_c, 0, 57, 64
2, 319500, Note_off_c, 0, 60, 64
2, 319500, Note_on_c, 0, 65, 100
2, 319500, Note_on_c, 0, 58, 100
2, 319500, Note_on_c, 0, 57, 100
2, 319500, Note_on_c, 0, 46, 100
2, 320000, Note_off_c, 0, 58, 64
2, 320000, Note_off_c, 0, 57, 64
2, 320500, Note_on_c, 0, 75, 100
2, 320500, Note_off_c, 0, 74, 64
2, 320500, Note_on_c, 0, 57, 100
2, 320500, Note_on_c, 0, 58, 100
2, 321000, Note_off_c, 0, 58, 64
2, 321000, Note_on_c, 0, 60, 100
2, 321000, Note_on_c, 0, 74, 100
2, 321000, Note_on_c, 0, 77, 100
2, 321000, Note_off_c, 0, 65, 64
2, 321000, Note_on_c, 0, 62, 100
2, 321000, Note_on_c, 0, 58, 100
2, 321000, Note_off_c, 0, 60, 64
2, 321000, Note_off_c, 0, 46, 64
2, 321500, Note_off_c, 0, 62, 64
2, 321500, Note_off_c, 0, 58, 64
2, 321500, Note_on_c, 0, 62, 100
2, 321500, Note_off_c, 0, 67, 64
2, 321500, Note_on_c, 0, 58, 100
2, 321500, Note_on_c, 0, 55, 100
2, 321500, Note_on_c, 0, 51, 100
2, 321500, Note_on_c, 0, 39, 100
2, 322000, Note_off_c, 0, 51, 64
2, 322000, Note_off_c, 0, 50, 64
2, 322500, Note_off_c, 0, 77, 64
2, 322500, Note_off_c, 0, 75, 64
2, 322500, Note_on_c, 0, 50, 100
2, 322500, Note_on_c, 0, 51, 100
2, 323000, Note_on_c, 0, 75, 100
2, 323000, Note_off_c, 0, 74, 64
2, 323000, Note_on_c, 0, 67, 100
2, 323000, Note_on_c, 0, 65, 100
2, 323000, Note_off_c, 0, 51, 64
2, 323000, Note_off_c, 0, 53, 64
2, 323500, Note_on_c, 0, 74, 100
2, 323500, Note_on_c, 0, 72, 100
2, 323500, Note_off_c, 0, 65, 64
2, 323500, Note_on_c, 0, 63, 100
2, 323500, Note_off_c, 0, 58, 64
2, 323500, Note_off_c, 0, 55, 64
2, 323500, Note_on_c, 0, 53, 100
2, 323500, Note_off_c, 0, 39, 64
2, 323500, Note_on_c, 0, 51, 100
2, 324000, Note_off_c, 0, 72, 64
2, 324000, Note_on_c, 0, 70, 100
2, 324000, Note_off_c, 0, 63, 64
2, 324000, Note_off_c, 0, 62, 64
2, 324000, Note_on_c, 0, 55, 100
2, 324000, Note_off_c, 0, 51, 64
2, 324500, Note_off_c, 0, 70, 64
2, 324500, Note_off_c, 0, 69, 64
2, 324500, Note_on_c, 0, 62, 100
2, 324500, Note_on_c, 0, 60, 100
2, 324500, Note_on_c, 0, 65, 100
2, 324500, Note_on_c, 0, 51, 100
2, 324500, Note_off_c, 0, 53, 64
2, 324500, Note_off_c, 0, 41, 64
2, 325000, Note_on_c, 0, 69, 100
2, 325000, Note_off_c, 0, 67, 64
2, 325000, Note_off_c, 0, 60, 64
2, 325000, Note_on_c, 0, 58, 100
2, 325000, Note_on_c, 0, 53, 100
2, 325000, Note_on_c, 0, 67, 100
2, 325000, Note_off_c, 0, 65, 64
2, 325000, Note_off_c, 0, 58, 64
2, 325000, Note_off_c, 0, 57, 64
2, 325000, Note_on_c, 0, 41, 100
2, 325500, Note_on_c, 0, 65, 100
2, 325500, Note_on_c, 0, 63, 100
2, 325500, Note_on_c, 0, 57, 100
2, 325500, Note_off_c, 0, 55, 64
2, 325500, Note_off_c, 0, 41, 64
2, 325500, Note_off_c, 0, 63, 64
2, 325500, Note_off_c, 0, 62, 64
2, 325500, Note_on_c, 0, 55, 100
2, 325500, Note_off_c, 0, 53, 64
2, 325500, Note_off_c, 0, 65, 64
2, 325500, Note_on_c, 0, 60, 100
2, 325500, Note_on_c, 0, 41, 100
2, 326000, Note_on_c, 0, 62, 100
2, 326000, Note_off_c, 0, 60, 64
2, 326000, Note_on_c, 0, 53, 100
2, 326000, Note_off_c, 0, 51, 64
2, 326000, Note_off_c, 0, 53, 64
2, 326000, Note_on_c, 0, 60, 100
2, 326000, Note_on_c, 0, 58, 100
2, 326000, Note_on_c, 0, 51, 100
2, 326000, Note_off_c, 0, 50, 64
2, 326000, Note_on_c, 0, 46, 100
2, 326500, Note_off_c, 0, 58, 64
2, 326500, Note_off_c, 0, 57, 64
2, 326500, Note_on_c, 0, 50, 100
2, 326500, Note_on_c, 0, 57, 100
2, 326500, Note_on_c, 0, 58, 100
2, 326500, Note_off_c, 0, 46, 64
2, 326500, Note_off_c, 0, 50, 64
2, 327000, Note_on_c, 0, 53, 100
2, 327000, Note_off_c, 0, 58, 64
2, 327000, Note_on_c, 0, 50, 100
2, 327000, Note_off_c, 0, 53, 64
2, 327000, Note_off_c, 0, 55, 64
2, 327500, Note_on_c, 0, 55, 100
2, 327500, Note_off_c, 0, 57, 64
2, 327500, Note_on_c, 0, 53, 100
2, 327500, Note_on_c, 0, 57, 100
2, 327500, Note_on_c, 0, 58, 100
2, 327500, Note_on_c, 0, 45, 100
2, 328000, Note_off_c, 0, 58, 64
2, 328000, Note_off_c, 0, 57, 64
2, 328500, Note_on_c, 0, 57, 100
2, 328500, Note_on_c, 0, 58, 100
2, 328500, Note_off_c, 0, 45, 64
2, 328500, Note_off_c, 0, 50, 64
2, 329000, Note_off_c, 0, 53, 64
2, 329000, Note_off_c, 0, 58, 64
2, 329000, Note_on_c, 0, 50, 100
2, 329000, Note_on_c, 0, 53, 100
2, 329000, Note_off_c, 0, 55, 64
2, 329500, Note_on_c, 0, 55, 100
2, 329500, Note_off_c, 0, 57, 64
2, 329500, Note_off_c, 0, 53, 64
2, 329500, Note_on_c, 0, 57, 100
2, 329500, Note_on_c, 0, 58, 100
2, 329500, Note_on_c, 0, 43, 100
2, 330000, Note_off_c, 0, 58, 64
2, 330000, Note_off_c, 0, 57, 64
2, 330500, Note_on_c, 0, 57, 100
2, 330500, Note_on_c, 0, 58, 100
2, 330500, Note_off_c, 0, 43, 64
2, 330500, Note_on_c, 0, 46, 100
2, 331000, Note_on_c, 0, 53, 100
2, 331000, Note_off_c, 0, 58, 64
2, 331000, Note_off_c, 0, 46, 64
2, 331000, Note_off_c, 0, 53, 64
2, 331000, Note_off_c, 0, 55, 64
2, 331000, Note_off_c, 0, 50, 64
2, 331500, Note_on_c, 0, 55, 100
2, 331500, Note_off_c, 0, 57, 64
2, 331500, Note_on_c, 0, 50, 100
2, 331500, Note_on_c, 0, 57, 100
2, 331500, Note_on_c, 0, 58, 100
2, 331500, Note_off_c, 0, 41, 64
2, 332000, Note_off_c, 0, 58, 64
2, 332000, Note_off_c, 0, 57, 64
2, 332500, Note_on_c, 0, 57, 100
2, 332500, Note_on_c, 0, 58, 100
2, 332500, Note_on_c, 0, 41, 100
2, 332500, Note_on_c, 0, 46, 100
2, 333000, Note_off_c, 0, 55, 64
2, 333000, Note_off_c, 0, 58, 64
2, 333000, Note_off_c, 0, 46, 64
2, 333000, Note_on_c, 0, 55, 100
2, 333000, Note_off_c, 0, 57, 64
2, 333000, Note_off_c, 0, 50, 64
2, 333500, Note_on_c, 0, 57, 100
2, 333500, Note_on_c, 0, 58, 100
2, 333500, Note_on_c, 0, 50, 100
2, 333500, Note_off_c, 0, 58, 64
2, 333500, Note_off_c, 0, 60, 64
2, 333500, Note_on_c, 0, 39, 100
2, 334000, Note_on_c, 0, 60, 100
2, 334000, Note_on_c, 0, 58, 100
2, 334500, Note_off_c, 0, 58, 64
2, 334500, Note_off_c, 0, 60, 64
2, 334500, Note_off_c, 0, 39, 64
2, 334500, Note_on_c, 0, 43, 100
2, 335000, Note_on_c, 0, 60, 100
2, 335000, Note_on_c, 0, 58, 100
2, 335000, Note_off_c, 0, 55, 64
2, 335000, Note_off_c, 0, 43, 64
2, 335000, Note_off_c, 0, 58, 64
2, 335000, Note_off_c, 0, 57, 64
2, 335000, Note_on_c, 0, 55, 100
2, 335000, Note_off_c, 0, 48, 64
2, 335500, Note_on_c, 0, 57, 100
2, 335500, Note_off_c, 0, 55, 64
2, 335500, Note_on_c, 0, 58, 100
2, 335500, Note_on_c, 0, 48, 100
2, 335500, Note_on_c, 0, 55, 100
2, 335500, Note_on_c, 0, 53, 100
2, 335500, Note_off_c, 0, 58, 64
2, 335500, Note_off_c, 0, 60, 64
2, 335500, Note_on_c, 0, 45, 100
2, 336000, Note_on_c, 0, 60, 100
2, 336000, Note_on_c, 0, 58, 100
2, 336000, Note_off_c, 0, 53, 64
2, 336000, Note_off_c, 0, 57, 64
2, 336000, Note_off_c, 0, 58, 64
2, 336000, Note_off_c, 0, 60, 64
2, 336000, Note_off_c, 0, 45, 64
2, 336000, Note_off_c, 0, 48, 64
2, 336500, Note_on_c, 0, 60, 100
2, 336500, Note_on_c, 0, 58, 100
2, 336500, Note_on_c, 0, 57, 100
2, 336500, Note_on_c, 0, 48, 100
2, 336500, Note_off_c, 0, 60, 64
2, 336500, Note_off_c, 0, 58, 64
2, 336500, Note_off_c, 0, 57, 64
2, 336500, Note_off_c, 0, 41, 64
2, 337000, Note_on_c, 0, 57, 100
2, 337000, Note_off_c, 0, 55, 64
2, 337000, Note_on_c, 0, 60, 100
2, 337000, Note_on_c, 0, 41, 100
2, 337000, Note_off_c, 0, 62, 64
2, 337000, Note_on_c, 0, 55, 100
2, 337000, Note_on_c, 0, 53, 100
2, 337000, Note_on_c, 0, 46, 100
2, 337500, Note_on_c, 0, 62, 100
2, 337500, Note_off_c, 0, 60, 64
2, 337500, Note_off_c, 0, 53, 64
2, 337500, Note_off_c, 0, 51, 64
2, 338000, Note_on_c, 0, 60, 100
2, 338000, Note_off_c, 0, 62, 64
2, 338000, Note_on_c, 0, 51, 100
2, 338000, Note_on_c, 0, 53, 100
2, 338000, Note_off_c, 0, 46, 64
2, 338000, Note_off_c, 0, 50, 64
2, 338500, Note_on_c, 0, 62, 100
2, 338500, Note_on_c, 0, 63, 100
2, 338500, Note_off_c, 0, 53, 64
2, 338500, Note_off_c, 0, 55, 64
2, 338500, Note_on_c, 0, 50, 100
2, 338500, Note_off_c, 0, 63, 64
2, 338500, Note_off_c, 0, 62, 64
2, 338500, Note_on_c, 0, 55, 100
2, 338500, Note_on_c, 0, 53, 100
2, 339000, Note_on_c, 0, 62, 100
2, 339000, Note_off_c, 0, 60, 64
2, 339000, Note_off_c, 0, 53, 64
2, 339000, Note_off_c, 0, 51, 64
2, 339000, Note_on_c, 0, 53, 100
2, 339000, Note_on_c, 0, 60, 100
2, 339000, Note_on_c, 0, 58, 100
2, 339000, Note_on_c, 0, 51, 100
2, 339000, Note_off_c, 0, 50, 64
2, 339500, Note_off_c, 0, 58, 64
2, 339500, Note_off_c, 0, 62, 64
2, 340000, Note_on_c, 0, 62, 100
2, 340000, Note_on_c, 0, 65, 100
2, 340000, Note_on_c, 0, 58, 100
2, 340000, Note_off_c, 0, 57, 64
2, 340500, Note_off_c, 0, 65, 64
2, 340500, Note_on_c, 0, 70, 100
2, 340500, Note_on_c, 0, 57, 100
2, 340500, Note_off_c, 0, 70, 64
2, 340500, Note_off_c, 0, 74, 64
2, 340500, Note_on_c, 0, 50, 100
2, 340500, Note_on_c, 0, 77, 100
2, 340500, Note_off_c, 0, 58, 64
2, 341000, Note_on_c, 0, 74, 100
2, 341000, Note_off_c, 0, 75, 64
2, 341000, Note_on_c, 0, 58, 100
2, 341000, Note_on_c, 0, 75, 100
2, 341000, Note_off_c, 0, 77, 64
2, 341000, Note_on_c, 0, 70, 100
2, 341000, Note_on_c, 0, 65, 100
2, 341000, Note_off_c, 0, 50, 64
2, 341000, Note_on_c, 0, 38, 100
2, 342000, Note_on_c, 0, 77, 100
2, 342000, Note_off_c, 0, 70, 64
2, 343000, Note_on_c, 0, 70, 100
2, 343000, Note_off_c, 0, 74, 64
2, 343000, Note_off_c, 0, 70, 64
2, 343000, Note_off_c, 0, 65, 64
2, 343000, Note_on_c, 0, 50, 100
2, 343000, Note_off_c, 0, 38, 64
2, 344500, Note_on_c, 0, 70, 100
2, 344500, Note_on_c, 0, 65, 100
2, 344500, Note_off_c, 0, 55, 64
2, 344500, Note_on_c, 0, 43, 100
2, 346000, Note_on_c, 0, 74, 100
2, 346000, Note_off_c, 0, 67, 64
2, 347000, Note_on_c, 0, 67, 100
2, 347000, Note_off_c, 0, 75, 64
2, 347000, Note_off_c, 0, 70, 64
2, 347000, Note_off_c, 0, 65, 64
2, 347000, Note_on_c, 0, 55, 100
2, 347000, Note_off_c, 0, 43, 64
2, 348500, Note_on_c, 0, 70, 100
2, 348500, Note_on_c, 0, 63, 100
2, 348500, Note_off_c, 0, 48, 64
2, 348500, Note_on_c, 0, 36, 100
2, 350000, Note_on_c, 0, 75, 100
2, 350000, Note_off_c, 0, 69, 64
2, 351000, Note_on_c, 0, 69, 100
2, 351000, Note_on_c, 0, 72, 100
2, 351000, Note_off_c, 0, 70, 64
2, 351000, Note_off_c, 0, 63, 64
2, 351000, Note_on_c, 0, 48, 100
2, 351000, Note_off_c, 0, 36, 64
2, 352500, Note_off_c, 0, 69, 64
2, 352500, Note_on_c, 0, 65, 100
2, 352500, Note_off_c, 0, 53, 64
2, 352500, Note_off_c, 0, 41, 64
2, 354000, Note_off_c, 0, 72, 64
2, 354000, Note_off_c, 0, 65, 64
2, 355000, Note_on_c, 0, 65, 100
2, 355000, Note_off_c, 0, 74, 64
2, 355000, Note_on_c, 0, 69, 100
2, 355000, Note_off_c, 0, 65, 64
2, 355000, Note_on_c, 0, 53, 100
2, 355000, Note_on_c, 0, 41, 100
2, 356500, Note_on_c, 0, 70, 100
2, 356500, Note_on_c, 0, 65, 100
2, 356500, Note_on_c, 0, 46, 100
2, 356500, Note_on_c, 0, 34, 100
2, 357000, Note_on_c, 0, 74, 100
2, 357000, Note_off_c, 0, 70, 64
2, 357500, Note_on_c, 0, 70, 100
2, 357500, Note_off_c, 0, 69, 64
2, 357500, Note_off_c, 0, 74, 64
2, 357500, Note_off_c, 0, 65, 64
2, 358000, Note_on_c, 0, 69, 100
2, 358000, Note_off_c, 0, 67, 64
2, 358000, Note_on_c, 0, 65, 100
2, 358000, Note_on_c, 0, 67, 100
2, 358000, Note_off_c, 0, 65, 64
2, 358000, Note_off_c, 0, 70, 64
2, 358000, Note_off_c, 0, 46, 64
2, 358000, Note_off_c, 0, 58, 64
2, 358000, Note_off_c, 0, 34, 64
2, 358500, Note_on_c, 0, 65, 100
2, 358500, Note_on_c, 0, 63, 100
2, 358500, Note_on_c, 0, 58, 100
2, 358500, Note_off_c, 0, 63, 64
2, 358500, Note_off_c, 0, 62, 64
2, 358500, Note_on_c, 0, 46, 100
2, 359000, Note_on_c, 0, 62, 100
2, 359000, Note_off_c, 0, 67, 64
2, 359500, Note_on_c, 0, 67, 100
2, 359500, Note_off_c, 0, 65, 64
2, 359500, Note_on_c, 0, 70, 100
2, 359500, Note_off_c, 0, 62, 64
2, 360000, Note_on_c, 0, 65, 100
2, 360000, Note_on_c, 0, 63, 100
2, 360000, Note_on_c, 0, 62, 100
2, 360000, Note_off_c, 0, 63, 64
2, 360000, Note_off_c, 0, 62, 64
2, 360000, Note_off_c, 0, 65, 64
2, 360000, Note_off_c, 0, 46, 64
2, 360000, Note_off_c, 0, 58, 64
2, 360500, Note_on_c, 0, 62, 100
2, 360500, Note_off_c, 0, 60, 64
2, 360500, Note_on_c, 0, 58, 100
2, 360500, Note_on_c, 0, 60, 100
2, 360500, Note_off_c, 0, 58, 64
2, 360500, Note_on_c, 0, 46, 100
2, 361000, Note_on_c, 0, 58, 100
2, 361000, Note_off_c, 0, 53, 64
2, 361500, Note_on_c, 0, 53, 100
2, 361500, Note_off_c, 0, 55, 64
2, 361500, Note_on_c, 0, 65, 100
2, 361500, Note_off_c, 0, 58, 64
2, 362000, Note_on_c, 0, 55, 100
2, 362000, Note_off_c, 0, 57, 64
2, 362000, Note_on_c, 0, 58, 100
2, 362000, Note_on_c, 0, 57, 100
2, 362000, Note_off_c, 0, 58, 64
2, 362000, Note_off_c, 0, 62, 64
2, 362000, Note_off_c, 0, 46, 64
2, 362500, Note_on_c, 0, 58, 100
2, 362500, Note_off_c, 0, 60, 64
2, 362500, Note_on_c, 0, 62, 100
2, 362500, Note_off_c, 0, 58, 64
2, 362500, Note_on_c, 0, 60, 100
2, 362500, Note_off_c, 0, 62, 64
2, 362500, Note_off_c, 0, 65, 64
2, 362500, Note_on_c, 0, 46, 100
2, 363000, Note_on_c, 0, 62, 100
2, 363000, Note_off_c, 0, 60, 64
2, 363000, Note_on_c, 0, 65, 100
2, 363000, Note_on_c, 0, 60, 100
2, 363000, Note_on_c, 0, 58, 100
2, 363000, Note_off_c, 0, 62, 64
2, 363500, Note_off_c, 0, 58, 64
2, 363500, Note_off_c, 0, 60, 64
2, 363500, Note_on_c, 0, 62, 100
2, 363500, Note_on_c, 0, 60, 100
2, 363500, Note_off_c, 0, 62, 64
2, 363500, Note_off_c, 0, 65, 64
2, 363500, Note_off_c, 0, 46, 64
2, 363500, Note_on_c, 0, 58, 100
2, 364000, Note_on_c, 0, 62, 100
2, 364000, Note_on_c, 0, 63, 100
2, 364000, Note_on_c, 0, 65, 100
2, 364000, Note_off_c, 0, 58, 64
2, 364000, Note_off_c, 0, 63, 64
2, 364000, Note_off_c, 0, 65, 64
2, 364000, Note_off_c, 0, 70, 64
2, 364000, Note_off_c, 0, 62, 64
2, 364000, Note_on_c, 0, 58, 100
2, 364000, Note_on_c, 0, 46, 100
2, 364000, Note_on_c, 0, 34, 100
2, 365000, Note_on_c, 0, 65, 100
2, 365000, Note_on_c, 0, 70, 100
2, 365000, Note_off_c, 0, 58, 64
2, 365000, Note_off_c, 0, 65, 64
2, 366000, Note_on_c, 0, 58, 100
2, 366000, Note_on_c, 0, 65, 100
2, 366000, Note_off_c, 0, 67, 64
2, 366000, Note_on_c, 0, 62, 100
2, 366000, Note_off_c, 0, 58, 64
2, 366000, Note_off_c, 0, 46, 64
2, 366000, Note_off_c, 0, 34, 64
2, 367500, Note_on_c, 0, 63, 100
2, 367500, Note_on_c, 0, 58, 100
2, 367500, Note_on_c, 0, 46, 100
2, 369000, Note_on_c, 0, 67, 100
2, 369000, Note_off_c, 0, 65, 64
2, 369500, Note_on_c, 0, 65, 100
2, 369500, Note_off_c, 0, 63, 64
2, 369500, Note_off_c, 0, 65, 64
2, 369500, Note_off_c, 0, 70, 64
2, 369500, Note_on_c, 0, 63, 100
2, 369500, Note_off_c, 0, 62, 64
2, 369500, Note_off_c, 0, 58, 64
2, 369500, Note_off_c, 0, 46, 64
2, 370000, Note_on_c, 0, 62, 100
2, 370000, Note_off_c, 0, 60, 64
2, 370500, Note_on_c, 0, 60, 100
2, 370500, Note_off_c, 0, 62, 64
2, 370500, Note_on_c, 0, 65, 100
2, 370500, Note_on_c, 0, 58, 100
2, 370500, Note_on_c, 0, 46, 100
2, 370500, Note_on_c, 0, 34, 100
2, 371000, Note_on_c, 0, 62, 100
2, 371000, Note_off_c, 0, 63, 64
2, 371500, Note_on_c, 0, 70, 100
2, 371500, Note_off_c, 0, 65, 64
2, 371500, Note_on_c, 0, 63, 100
2, 372000, Note_on_c, 0, 65, 100
2, 372000, Note_off_c, 0, 63, 64
2, 372000, Note_off_c, 0, 65, 64
2, 372000, Note_off_c, 0, 67, 64
2, 372000, Note_on_c, 0, 63, 100
2, 372000, Note_off_c, 0, 62, 64
2, 372000, Note_on_c, 0, 65, 100
2, 372000, Note_off_c, 0, 58, 64
2, 372000, Note_off_c, 0, 46, 64
2, 372000, Note_off_c, 0, 34, 64
2, 372500, Note_on_c, 0, 62, 100
2, 372500, Note_off_c, 0, 60, 64
2, 373000, Note_on_c, 0, 60, 100
2, 373000, Note_on_c, 0, 58, 100
2, 373000, Note_on_c, 0, 46, 100
2, 373500, Note_off_c, 0, 58, 64
2, 373500, Note_off_c, 0, 60, 64
2, 374000, Note_on_c, 0, 67, 100
2, 374000, Note_off_c, 0, 65, 64
2, 374000, Note_on_c, 0, 60, 100
2, 374000, Note_off_c, 0, 62, 64
2, 374500, Note_on_c, 0, 62, 100
2, 374500, Note_off_c, 0, 60, 64
2, 374500, Note_on_c, 0, 65, 100
2, 374500, Note_off_c, 0, 70, 64
2, 374500, Note_on_c, 0, 60, 100
2, 374500, Note_on_c, 0, 58, 100
2, 374500, Note_off_c, 0, 46, 64
2, 375000, Note_off_c, 0, 58, 64
2, 375000, Note_off_c, 0, 57, 64
2, 375000, Note_on_c, 0, 46, 100
2, 375000, Note_on_c, 0, 57, 100
2, 375000, Note_off_c, 0, 55, 64
2, 375000, Note_off_c, 0, 51, 64
2, 375500, Note_on_c, 0, 55, 100
2, 375500, Note_off_c, 0, 57, 64
2, 376000, Note_on_c, 0, 70, 100
2, 376000, Note_off_c, 0, 67, 64
2, 376000, Note_on_c, 0, 57, 100
2, 376000, Note_on_c, 0, 58, 100
2, 376500, Note_off_c, 0, 58, 64
2, 376500, Note_off_c, 0, 62, 64
2, 376500, Note_on_c, 0, 67, 100
2, 376500, Note_off_c, 0, 75, 64
2, 376500, Note_on_c, 0, 62, 100
2, 376500, Note_off_c, 0, 60, 64
2, 376500, Note_on_c, 0, 51, 100
2, 376500, Note_off_c, 0, 48, 64
2, 377000, Note_on_c, 0, 60, 100
2, 377000, Note_on_c, 0, 58, 100
2, 377000, Note_on_c, 0, 48, 100
2, 377000, Note_off_c, 0, 58, 64
2, 377000, Note_off_c, 0, 57, 64
2, 377000, Note_off_c, 0, 53, 64
2, 377500, Note_on_c, 0, 57, 100
2, 377500, Note_on_c, 0, 58, 100
2, 378000, Note_on_c, 0, 75, 100
2, 378000, Note_off_c, 0, 69, 64
2, 378000, Note_off_c, 0, 58, 64
2, 378000, Note_off_c, 0, 60, 64
2, 378500, Note_on_c, 0, 60, 100
2, 378500, Note_off_c, 0, 63, 64
2, 378500, Note_on_c, 0, 69, 100
2, 378500, Note_off_c, 0, 77, 64
2, 378500, Note_on_c, 0, 63, 100
2, 378500, Note_off_c, 0, 62, 64
2, 378500, Note_on_c, 0, 53, 100
2, 378500, Note_off_c, 0, 57, 64
2, 379000, Note_on_c, 0, 62, 100
2, 379000, Note_off_c, 0, 60, 64
2, 379000, Note_on_c, 0, 57, 100
2, 379000, Note_on_c, 0, 77, 100
2, 379000, Note_on_c, 0, 74, 100
2, 379000, Note_on_c, 0, 60, 100
2, 379000, Note_on_c, 0, 58, 100
2, 379500, Note_off_c, 0, 58, 64
2, 379500, Note_off_c, 0, 57, 64
2, 379500, Note_off_c, 0, 74, 64
2, 379500, Note_on_c, 0, 58, 100
2, 379500, Note_off_c, 0, 70, 64
2, 379500, Note_on_c, 0, 57, 100
2, 379500, Note_off_c, 0, 58, 64
2, 379500, Note_off_c, 0, 50, 64
2, 380000, Note_on_c, 0, 58, 100
2, 380000, Note_off_c, 0, 62, 64
2, 380000, Note_on_c, 0, 70, 100
2, 380000, Note_on_c, 0, 50, 100
2, 380000, Note_off_c, 0, 69, 64
2, 380000, Note_on_c, 0, 62, 100
2, 380000, Note_off_c, 0, 60, 64
2, 380000, Note_off_c, 0, 53, 64
2, 380500, Note_on_c, 0, 60, 100
2, 380500, Note_off_c, 0, 63, 64
2, 380500, Note_on_c, 0, 69, 100
2, 380500, Note_on_c, 0, 53, 100
2, 380500, Note_off_c, 0, 70, 64
2, 380500, Note_on_c, 0, 63, 100
2, 380500, Note_off_c, 0, 62, 64
2, 380500, Note_off_c, 0, 46, 64
2, 381000, Note_on_c, 0, 70, 100
2, 381000, Note_off_c, 0, 65, 64
2, 381000, Note_on_c, 0, 62, 100
2, 381500, Note_on_c, 0, 65, 100
2, 381500, Note_off_c, 0, 62, 64
2, 382000, Note_on_c, 0, 62, 100
2, 382000, Note_off_c, 0, 58, 64
2, 382500, Note_on_c, 0, 58, 100
2, 382500, Note_off_c, 0, 62, 64
2, 382500, Note_on_c, 0, 46, 100
2, 383000, Note_on_c, 0, 62, 100
2, 383000, Note_off_c, 0, 65, 64
2, 383500, Note_on_c, 0, 65, 100
2, 383500, Note_off_c, 0, 70, 64
2, 383500, Note_off_c, 0, 62, 64
2, 383500, Note_off_c, 0, 58, 64
2, 383500, Note_off_c, 0, 46, 64
2, 385000, Note_on_c, 0, 70, 100
2, 385000, Note_off_c, 0, 69, 64
2, 386000, Note_on_c, 0, 69, 100
2, 386000, Note_off_c, 0, 70, 64
2, 386000, Note_off_c, 0, 65, 64
2, 386000, Note_on_c, 0, 62, 100
2, 386000, Note_on_c, 0, 58, 100
2, 386000, Note_on_c, 0, 46, 100
2, 387000, Note_on_c, 0, 70, 100
2, 387000, Note_off_c, 0, 62, 64
2, 387000, Note_on_c, 0, 65, 100
2, 387000, Note_off_c, 0, 58, 64
2, 387000, Note_off_c, 0, 57, 64
2, 387000, Note_on_c, 0, 45, 100
2, 388500, Note_on_c, 0, 62, 100
2, 388500, Note_off_c, 0, 65, 64
2, 389500, Note_on_c, 0, 65, 100
2, 389500, Note_off_c, 0, 70, 64
2, 389500, Note_off_c, 0, 65, 64
2, 389500, Note_on_c, 0, 58, 100
2, 389500, Note_on_c, 0, 57, 100
2, 389500, Note_off_c, 0, 45, 64
2, 390500, Note_on_c, 0, 70, 100
2, 390500, Note_off_c, 0, 70, 64
2, 390500, Note_off_c, 0, 67, 64
2, 390500, Note_off_c, 0, 62, 64
2, 390500, Note_off_c, 0, 55, 64
2, 390500, Note_on_c, 0, 43, 100
2, 392000, Note_on_c, 0, 70, 100
2, 392000, Note_off_c, 0, 69, 64
2, 393000, Note_on_c, 0, 69, 100
2, 393000, Note_off_c, 0, 70, 64
2, 393000, Note_on_c, 0, 67, 100
2, 393000, Note_on_c, 0, 62, 100
2, 393000, Note_on_c, 0, 55, 100
2, 393000, Note_off_c, 0, 43, 64
2, 394000, Note_on_c, 0, 70, 100
2, 394000, Note_off_c, 0, 62, 64
2, 394000, Note_off_c, 0, 70, 64
2, 394000, Note_on_c, 0, 65, 100
2, 394000, Note_off_c, 0, 53, 64
2, 394000, Note_off_c, 0, 41, 64
2, 395500, Note_on_c, 0, 62, 100
2, 395500, Note_off_c, 0, 65, 64
2, 396500, Note_on_c, 0, 65, 100
2, 396500, Note_on_c, 0, 70, 100
2, 396500, Note_off_c, 0, 65, 64
2, 396500, Note_on_c, 0, 53, 100
2, 396500, Note_on_c, 0, 41, 100
2, 397500, Note_off_c, 0, 70, 64
2, 397500, Note_on_c, 0, 72, 100
2, 397500, Note_on_c, 0, 70, 100
2, 397500, Note_off_c, 0, 67, 64
2, 397500, Note_off_c, 0, 51, 64
2, 397500, Note_on_c, 0, 39, 100
2, 399000, Note_off_c, 0, 72, 64
2, 399000, Note_off_c, 0, 70, 64
2, 400000, Note_on_c, 0, 70, 100
2, 400000, Note_on_c, 0, 72, 100
2, 400000, Note_off_c, 0, 70, 64
2, 400000, Note_on_c, 0, 67, 100
2, 400000, Note_on_c, 0, 51, 100
2, 400000, Note_off_c, 0, 39, 64
2, 401000, Note_off_c, 0, 72, 64
2, 401000, Note_on_c, 0, 65, 100
2, 401000, Note_off_c, 0, 69, 64
2, 401000, Note_off_c, 0, 53, 64
2, 401000, Note_off_c, 0, 41, 64
2, 402500, Note_off_c, 0, 65, 64
2, 402500, Note_on_c, 0, 69, 100
2, 403500, Note_off_c, 0, 69, 64
2, 403500, Note_on_c, 0, 72, 100
2, 403500, Note_on_c, 0, 69, 100
2, 403500, Note_on_c, 0, 65, 100
2, 403500, Note_on_c, 0, 53, 100
2, 403500, Note_on_c, 0, 41, 100
2, 404500, Note_off_c, 0, 72, 64
2, 404500, Note_on_c, 0, 74, 100
2, 404500, Note_on_c, 0, 70, 100
2, 404500, Note_off_c, 0, 65, 64
2, 404500, Note_off_c, 0, 46, 64
2, 404500, Note_on_c, 0, 34, 100
2, 406000, Note_off_c, 0, 74, 64
2, 406000, Note_on_c, 0, 72, 100
2, 406000, Note_off_c, 0, 70, 64
2, 406000, Note_off_c, 0, 69, 64
2, 406000, Note_on_c, 0, 65, 100
2, 406000, Note_off_c, 0, 63, 64
2, 407000, Note_off_c, 0, 72, 64
2, 407000, Note_on_c, 0, 69, 100
2, 407000, Note_on_c, 0, 63, 100
2, 407000, Note_on_c, 0, 74, 100
2, 407000, Note_on_c, 0, 70, 100
2, 407000, Note_off_c, 0, 65, 64
2, 407000, Note_on_c, 0, 46, 100
2, 407000, Note_off_c, 0, 53, 64
2, 407000, Note_off_c, 0, 34, 64
2, 407000, Note_off_c, 0, 41, 64
2, 408000, Note_off_c, 0, 74, 64
2, 408000, Note_off_c, 0, 70, 64
2, 408000, Note_on_c, 0, 65, 100
2, 408000, Note_on_c, 0, 53, 100
2, 408000, Note_on_c, 0, 41, 100
2, 408000, Note_on_c, 0, 70, 100
2, 408000, Note_off_c, 0, 65, 64
2, 408000, Note_off_c, 0, 62, 64
2, 408000, Note_off_c, 0, 58, 64
2, 408000, Note_off_c, 0, 46, 64
2, 409500, Note_on_c, 0, 62, 100
2, 409500, Note_off_c, 0, 60, 64
2, 409500, Note_on_c, 0, 58, 100
2, 409500, Note_off_c, 0, 57, 64
2, 409500, Note_on_c, 0, 46, 100
2, 409500, Note_on_c, 0, 45, 100
2, 410500, Note_on_c, 0, 60, 100
2, 410500, Note_on_c, 0, 57, 100
2, 410500, Note_off_c, 0, 45, 64
2, 410500, Note_off_c, 0, 70, 64
2, 410500, Note_on_c, 0, 74, 100
2, 410500, Note_on_c, 0, 65, 100
2, 410500, Note_off_c, 0, 62, 64
2, 410500, Note_off_c, 0, 58, 64
2, 410500, Note_off_c, 0, 46, 64
2, 411500, Note_off_c, 0, 65, 64
2, 411500, Note_on_c, 0, 62, 100
2, 411500, Note_on_c, 0, 58, 100
2, 411500, Note_on_c, 0, 46, 100
2, 411500, Note_off_c, 0, 67, 64
2, 411500, Note_off_c, 0, 55, 64
2, 411500, Note_off_c, 0, 52, 64
2, 411500, Note_on_c, 0, 40, 100
2, 413000, Note_off_c, 0, 74, 64
2, 413000, Note_on_c, 0, 67, 100
2, 414000, Note_off_c, 0, 67, 64
2, 414000, Note_on_c, 0, 70, 100
2, 414000, Note_on_c, 0, 67, 100
2, 414000, Note_on_c, 0, 55, 100
2, 414000, Note_on_c, 0, 52, 100
2, 414000, Note_off_c, 0, 40, 64
2, 415500, Note_off_c, 0, 67, 64
2, 415500, Note_on_c, 0, 64, 100
2, 415500, Note_off_c, 0, 48, 64
2, 415500, Note_on_c, 0, 36, 100
2, 417000, Note_off_c, 0, 70, 64
2, 417000, Note_off_c, 0, 64, 64
2, 418000, Note_on_c, 0, 64, 100
2, 418000, Note_on_c, 0, 72, 100
2, 418000, Note_on_c, 0, 67, 100
2, 418000, Note_off_c, 0, 64, 64
2, 418000, Note_on_c, 0, 48, 100
2, 418000, Note_off_c, 0, 36, 64
2, 419500, Note_on_c, 0, 65, 100
2, 419500, Note_off_c, 0, 57, 64
2, 419500, Note_off_c, 0, 50, 64
2, 419500, Note_on_c, 0, 38, 100
2, 421000, Note_off_c, 0, 72, 64
2, 421000, Note_off_c, 0, 65, 64
2, 422000, Note_on_c, 0, 65, 100
2, 422000, Note_off_c, 0, 69, 64
2, 422000, Note_off_c, 0, 65, 64
2, 422000, Note_on_c, 0, 57, 100
2, 422000, Note_on_c, 0, 50, 100
2, 422000, Note_off_c, 0, 38, 64
2, 423500, Note_on_c, 0, 65, 100
2, 423500, Note_off_c, 0, 62, 64
2, 423500, Note_off_c, 0, 46, 64
2, 423500, Note_on_c, 0, 34, 100
2, 425000, Note_on_c, 0, 69, 100
2, 425000, Note_on_c, 0, 62, 100
2, 426000, Note_off_c, 0, 62, 64
2, 426000, Note_on_c, 0, 70, 100
2, 426000, Note_off_c, 0, 65, 64
2, 426000, Note_on_c, 0, 62, 100
2, 426000, Note_on_c, 0, 46, 100
2, 426000, Note_off_c, 0, 34, 64
2, 427500, Note_on_c, 0, 64, 100
2, 427500, Note_off_c, 0, 55, 64
2, 427500, Note_off_c, 0, 48, 64
2, 427500, Note_on_c, 0, 36, 100
2, 429000, Note_off_c, 0, 70, 64
2, 429000, Note_off_c, 0, 64, 64
2, 430000, Note_on_c, 0, 64, 100
2, 430000, Note_off_c, 0, 67, 64
2, 430000, Note_off_c, 0, 64, 64
2, 430000, Note_off_c, 0, 60, 64
2, 430000, Note_on_c, 0, 55, 100
2, 430000, Note_off_c, 0, 52, 64
2, 430000, Note_on_c, 0, 48, 100
2, 430000, Note_off_c, 0, 46, 64
2, 430000, Note_off_c, 0, 36, 64
2, 430000, Note_on_c, 0, 34, 100
2, 431000, Note_on_c, 0, 60, 100
2, 431000, Note_on_c, 0, 52, 100
2, 431000, Note_on_c, 0, 46, 100
2, 431000, Note_off_c, 0, 34, 64
2, 431000, Note_off_c, 0, 60, 64
2, 431000, Note_off_c, 0, 57, 64
2, 431000, Note_on_c, 0, 45, 100
2, 431000, Note_on_c, 0, 33, 100
2, 432500, Note_on_c, 0, 67, 100
2, 432500, Note_on_c, 0, 60, 100
2, 433500, Note_off_c, 0, 60, 64
2, 433500, Note_on_c, 0, 70, 100
2, 433500, Note_on_c, 0, 60, 100
2, 433500, Note_on_c, 0, 64, 100
2, 433500, Note_on_c, 0, 57, 100
2, 433500, Note_off_c, 0, 58, 64
2, 433500, Note_off_c, 0, 45, 64
2, 433500, Note_on_c, 0, 43, 100
2, 433500, Note_off_c, 0, 33, 64
2, 433500, Note_on_c, 0, 31, 100
2, 434500, Note_off_c, 0, 70, 64
2, 434500, Note_off_c, 0, 64, 64
2, 434500, Note_on_c, 0, 58, 100
2, 434500, Note_off_c, 0, 43, 64
2, 434500, Note_off_c, 0, 31, 64
2, 434500, Note_off_c, 0, 69, 64
2, 434500, Note_on_c, 0, 65, 100
2, 434500, Note_off_c, 0, 60, 64
2, 434500, Note_off_c, 0, 41, 64
2, 434500, Note_on_c, 0, 29, 100
2, 436000, Note_on_c, 0, 69, 100
2, 436000, Note_off_c, 0, 67, 64
2, 436000, Note_off_c, 0, 65, 64
2, 436000, Note_on_c, 0, 64, 100
2, 436000, Note_on_c, 0, 60, 100
2, 436000, Note_off_c, 0, 58, 64
2, 437000, Note_on_c, 0, 67, 100
2, 437000, Note_off_c, 0, 64, 64
2, 437000, Note_on_c, 0, 58, 100
2, 437000, Note_off_c, 0, 69, 64
2, 437000, Note_on_c, 0, 65, 100
2, 437000, Note_off_c, 0, 60, 64
2, 437000, Note_on_c, 0, 41, 100
2, 437000, Note_off_c, 0, 48, 64
2, 437000, Note_on_c, 0, 36, 100
2, 437000, Note_off_c, 0, 29, 64
2, 438000, Note_on_c, 0, 69, 100
2, 438000, Note_off_c, 0, 65, 64
2, 438000, Note_on_c, 0, 60, 100
2, 438000, Note_on_c, 0, 48, 100
2, 438000, Note_off_c, 0, 36, 64
2, 438000, Note_on_c, 0, 65, 100
2, 438000, Note_off_c, 0, 60, 64
2, 438000, Note_off_c, 0, 57, 64
2, 438000, Note_off_c, 0, 53, 64
2, 438000, Note_off_c, 0, 41, 64
2, 439500, Note_off_c, 0, 65, 64
2, 439500, Note_off_c, 0, 69, 64
2, 439500, Note_on_c, 0, 57, 100
2, 439500, Note_off_c, 0, 55, 64
2, 439500, Note_on_c, 0, 53, 100
2, 439500, Note_off_c, 0, 51, 64
2, 439500, Note_on_c, 0, 41, 100
2, 439500, Note_on_c, 0, 39, 100
2, 440500, Note_on_c, 0, 69, 100
2, 440500, Note_on_c, 0, 55, 100
2, 440500, Note_on_c, 0, 51, 100
2, 440500, Note_off_c, 0, 39, 64
2, 440500, Note_on_c, 0, 72, 100
2, 440500, Note_on_c, 0, 60, 100
2, 440500, Note_on_c, 0, 65, 100
2, 440500, Note_off_c, 0, 57, 64
2, 440500, Note_off_c, 0, 53, 64
2, 440500, Note_off_c, 0, 41, 64
2, 441500, Note_off_c, 0, 72, 64
2, 441500, Note_off_c, 0, 65, 64
2, 441500, Note_on_c, 0, 57, 100
2, 441500, Note_on_c, 0, 53, 100
2, 441500, Note_on_c, 0, 41, 100
2, 441500, Note_off_c, 0, 77, 64
2, 441500, Note_on_c, 0, 65, 100
2, 441500, Note_off_c, 0, 58, 64
2, 441500, Note_off_c, 0, 50, 64
2, 441500, Note_on_c, 0, 38, 100
2, 442500, Note_on_c, 0, 77, 100
2, 442500, Note_on_c, 0, 70, 100
2, 443500, Note_off_c, 0, 70, 64
2, 443500, Note_on_c, 0, 74, 100
2, 443500, Note_off_c, 0, 65, 64
2, 443500, Note_on_c, 0, 58, 100
2, 443500, Note_on_c, 0, 50, 100
2, 443500, Note_off_c, 0, 38, 64
2, 445000, Note_on_c, 0, 65, 100
2, 445000, Note_off_c, 0, 58, 64
2, 445000, Note_off_c, 0, 55, 64
2, 445000, Note_on_c, 0, 43, 100
2, 446500, Note_off_c, 0, 74, 64
2, 446500, Note_off_c, 0, 67, 64
2, 447500, Note_on_c, 0, 67, 100
2, 447500, Note_off_c, 0, 75, 64
2, 447500, Note_off_c, 0, 65, 64
2, 447500, Note_on_c, 0, 58, 100
2, 447500, Note_on_c, 0, 55, 100
2, 447500, Note_off_c, 0, 43, 64
2, 449000, Note_off_c, 0, 63, 64
2, 449000, Note_off_c, 0, 58, 64
2, 449000, Note_off_c, 0, 48, 64
2, 449000, Note_on_c, 0, 36, 100
2, 450500, Note_on_c, 0, 75, 100
2, 450500, Note_off_c, 0, 69, 64
2, 451500, Note_on_c, 0, 69, 100
2, 451500, Note_on_c, 0, 72, 100
2, 451500, Note_on_c, 0, 63, 100
2, 451500, Note_on_c, 0, 58, 100
2, 451500, Note_on_c, 0, 48, 100
2, 451500, Note_off_c, 0, 36, 64
2, 453000, Note_on_c, 0, 65, 100
2, 453000, Note_off_c, 0, 57, 64
2, 453000, Note_off_c, 0, 53, 64
2, 453000, Note_off_c, 0, 41, 64
2, 454500, Note_off_c, 0, 72, 64
2, 454500, Note_off_c, 0, 65, 64
2, 455500, Note_on_c, 0, 65, 100
2, 455500, Note_on_c, 0, 74, 100
2, 455500, Note_off_c, 0, 65, 64
2, 455500, Note_on_c, 0, 57, 100
2, 455500, Note_on_c, 0, 53, 100
2, 455500, Note_on_c, 0, 41, 100
2, 457000, Note_on_c, 0, 65, 100
2, 457000, Note_off_c, 0, 58, 64
2, 457000, Note_off_c, 0, 46, 64
2, 457000, Note_on_c, 0, 34, 100
2, 458500, Note_off_c, 0, 74, 64
2, 458500, Note_off_c, 0, 65, 64
2, 458500, Note_off_c, 0, 62, 64
2, 459500, Note_on_c, 0, 65, 100
2, 459500, Note_on_c, 0, 62, 100
2, 459500, Note_on_c, 0, 70, 100
2, 459500, Note_off_c, 0, 65, 64
2, 459500, Note_on_c, 0, 58, 100
2, 459500, Note_off_c, 0, 62, 64
2, 459500, Note_on_c, 0, 46, 100
2, 459500, Note_off_c, 0, 34, 64
2, 460500, Note_on_c, 0, 65, 100
2, 460500, Note_on_c, 0, 62, 100
2, 460500, Note_off_c, 0, 58, 64
2, 460500, Note_off_c, 0, 46, 64
2, 460500, Note_off_c, 0, 62, 64
2, 460500, Note_off_c, 0, 53, 64
2, 460500, Note_on_c, 0, 46, 100
2, 460500, Note_on_c, 0, 34, 100
2, 462000, Note_off_c, 0, 70, 64
2, 462000, Note_on_c, 0, 62, 100
2, 462000, Note_on_c, 0, 58, 100
2, 463000, Note_off_c, 0, 62, 64
2, 463000, Note_off_c, 0, 58, 64
2, 463000, Note_off_c, 0, 65, 64
2, 463000, Note_on_c, 0, 62, 100
2, 463000, Note_on_c, 0, 53, 100
2, 463000, Note_on_c, 0, 58, 100
2, 463000, Note_off_c, 0, 46, 64
2, 463000, Note_off_c, 0, 34, 64
2, 464000, Note_off_c, 0, 62, 64
2, 464000, Note_off_c, 0, 58, 64
2, 464000, Note_on_c, 0, 46, 100
2, 464000, Note_on_c, 0, 58, 100
2, 464000, Note_off_c, 0, 50, 64
2, 464000, Note_off_c, 0, 46, 64
2, 464000, Note_on_c, 0, 34, 100
2, 465500, Note_on_c, 0, 65, 100
2, 465500, Note_off_c, 0, 58, 64
2, 465500, Note_on_c, 0, 62, 100
2, 465500, Note_on_c, 0, 50, 100
2, 465500, Note_off_c, 0, 53, 64
2, 466500, Note_on_c, 0, 58, 100
2, 466500, Note_off_c, 0, 62, 64
2, 466500, Note_on_c, 0, 53, 100
2, 466500, Note_on_c, 0, 62, 100
2, 466500, Note_off_c, 0, 65, 64
2, 466500, Note_off_c, 0, 58, 64
2, 466500, Note_on_c, 0, 46, 100
2, 466500, Note_off_c, 0, 34, 64
2, 467500, Note_off_c, 0, 62, 64
2, 467500, Note_on_c, 0, 65, 100
2, 467500, Note_on_c, 0, 58, 100
2, 467500, Note_off_c, 0, 46, 64
2, 467500, Note_off_c, 0, 65, 64
2, 467500, Note_on_c, 0, 70, 100
2, 467500, Note_on_c, 0, 62, 100
2, 467500, Note_on_c, 0, 46, 100
2, 467500, Note_on_c, 0, 34, 100
2, 468500, Note_on_c, 0, 65, 100
2, 468500, Note_off_c, 0, 70, 64
2, 468500, Note_off_c, 0, 62, 64
2, 468500, Note_on_c, 0, 62, 100
2, 468500, Note_off_c, 0, 65, 64
2, 468500, Note_off_c, 0, 58, 64
2, 469500, Note_off_c, 0, 62, 64
2, 469500, Note_on_c, 0, 65, 100
2, 469500, Note_on_c, 0, 58, 100
2, 469500, Note_off_c, 0, 65, 64
2, 469500, Note_on_c, 0, 70, 100
2, 469500, Note_on_c, 0, 62, 100
2, 469500, Note_off_c, 0, 46, 64
2, 469500, Note_off_c, 0, 58, 64
2, 469500, Note_off_c, 0, 34, 64
2, 470500, Note_on_c, 0, 65, 100
2, 470500, Note_off_c, 0, 70, 64
2, 470500, Note_off_c, 0, 62, 64
2, 470500, Note_on_c, 0, 58, 100
2, 470500, Note_on_c, 0, 46, 100
2, 470500, Note_on_c, 0, 70, 100
2, 470500, Note_on_c, 0, 62, 100
2, 470500, Note_off_c, 0, 65, 64
2, 470500, Note_off_c, 0, 46, 64
2, 470500, Note_on_c, 0, 34, 100
2, 471500, Note_off_c, 0, 70, 64
2, 471500, Note_on_c, 0, 65, 100
2, 472500, Note_off_c, 0, 65, 64
2, 472500, Note_off_c, 0, 67, 64
2, 472500, Note_off_c, 0, 62, 64
2, 472500, Note_on_c, 0, 65, 100
2, 472500, Note_on_c, 0, 46, 100
2, 472500, Note_off_c, 0, 34, 64
2, 474000, Note_off_c, 0, 63, 64
2, 474000, Note_off_c, 0, 58, 64
2, 474000, Note_off_c, 0, 46, 64
2, 475500, Note_on_c, 0, 67, 100
2, 475500, Note_off_c, 0, 65, 64
2, 476500, Note_on_c, 0, 65, 100
2, 476500, Note_on_c, 0, 70, 100
2, 476500, Note_on_c, 0, 63, 100
2, 476500, Note_on_c, 0, 58, 100
2, 476500, Note_on_c, 0, 46, 100
2, 478000, Note_on_c, 0, 62, 100
2, 478000, Note_off_c, 0, 53, 64
2, 478000, Note_off_c, 0, 46, 64
2, 478000, Note_on_c, 0, 34, 100
2, 479500, Note_off_c, 0, 70, 64
2, 479500, Note_off_c, 0, 65, 64
2, 480500, Note_on_c, 0, 65, 100
2, 480500, Note_off_c, 0, 67, 64
2, 480500, Note_off_c, 0, 62, 64
2, 480500, Note_on_c, 0, 53, 100
2, 480500, Note_on_c, 0, 46, 100
2, 480500, Note_off_c, 0, 34, 64
2, 482000, Note_off_c, 0, 63, 64
2, 482000, Note_off_c, 0, 58, 64
2, 482000, Note_off_c, 0, 46, 64
2, 483500, Note_on_c, 0, 67, 100
2, 483500, Note_off_c, 0, 65, 64
2, 484500, Note_on_c, 0, 65, 100
2, 484500, Note_on_c, 0, 70, 100
2, 484500, Note_on_c, 0, 63, 100
2, 484500, Note_on_c, 0, 62, 100
2, 484500, Note_on_c, 0, 58, 100
2, 484500, Note_off_c, 0, 53, 64
2, 484500, Note_on_c, 0, 46, 100
2, 484500, Note_on_c, 0, 34, 100
2, 485500, Note_off_c, 0, 62, 64
2, 485500, Note_on_c, 0, 53, 100
2, 485500, Note_off_c, 0, 46, 64
2, 485500, Note_off_c, 0, 34, 64
2, 485500, Note_off_c, 0, 63, 64
2, 485500, Note_off_c, 0, 55, 64
2, 485500, Note_off_c, 0, 51, 64
2, 485500, Note_on_c, 0, 39, 100
2, 487000, Note_off_c, 0, 70, 64
2, 487000, Note_off_c, 0, 67, 64
2, 488000, Note_on_c, 0, 67, 100
2, 488000, Note_off_c, 0, 75, 64
2, 488000, Note_on_c, 0, 63, 100
2, 488000, Note_off_c, 0, 67, 64
2, 488000, Note_on_c, 0, 55, 100
2, 488000, Note_off_c, 0, 60, 64
2, 488000, Note_on_c, 0, 51, 100
2, 488000, Note_off_c, 0, 48, 64
2, 488000, Note_off_c, 0, 39, 64
2, 488000, Note_on_c, 0, 36, 100
2, 489000, Note_on_c, 0, 67, 100
2, 489000, Note_on_c, 0, 60, 100
2, 489000, Note_on_c, 0, 48, 100
2, 489000, Note_off_c, 0, 36, 64
2, 489000, Note_off_c, 0, 65, 64
2, 489000, Note_off_c, 0, 57, 64
2, 489000, Note_off_c, 0, 53, 64
2, 489000, Note_off_c, 0, 41, 64
2, 490500, Note_on_c, 0, 75, 100
2, 490500, Note_off_c, 0, 69, 64
2, 491500, Note_on_c, 0, 69, 100
2, 491500, Note_off_c, 0, 77, 64
2, 491500, Note_on_c, 0, 65, 100
2, 491500, Note_on_c, 0, 72, 100
2, 491500, Note_on_c, 0, 57, 100
2, 491500, Note_on_c, 0, 53, 100
2, 491500, Note_on_c, 0, 45, 100
2, 491500, Note_on_c, 0, 41, 100
2, 491500, Note_on_c, 0, 33, 100
2, 492500, Note_off_c, 0, 72, 64
2, 492500, Note_off_c, 0, 53, 64
2, 492500, Note_off_c, 0, 45, 64
2, 492500, Note_off_c, 0, 33, 64
2, 492500, Note_on_c, 0, 77, 100
2, 492500, Note_on_c, 0, 74, 100
2, 492500, Note_on_c, 0, 70, 100
2, 492500, Note_off_c, 0, 65, 64
2, 492500, Note_on_c, 0, 46, 100
2, 492500, Note_on_c, 0, 34, 100
2, 493500, Note_off_c, 0, 74, 64
2, 493500, Note_off_c, 0, 70, 64
2, 493500, Note_on_c, 0, 65, 100
2, 493500, Note_off_c, 0, 46, 64
2, 493500, Note_off_c, 0, 34, 64
2, 493500, Note_on_c, 0, 70, 100
2, 493500, Note_off_c, 0, 65, 64
2, 493500, Note_on_c, 0, 62, 100
2, 493500, Note_off_c, 0, 50, 64
2, 493500, Note_on_c, 0, 26, 100
2, 493500, Note_on_c, 0, 38, 100
2, 494500, Note_off_c, 0, 70, 64
2, 494500, Note_on_c, 0, 65, 100
2, 494500, Note_off_c, 0, 62, 64
2, 494500, Note_on_c, 0, 50, 100
2, 494500, Note_off_c, 0, 26, 64
2, 494500, Note_off_c, 0, 38, 64
2, 494500, Note_off_c, 0, 69, 64
2, 494500, Note_off_c, 0, 65, 64
2, 494500, Note_off_c, 0, 60, 64
2, 494500, Note_on_c, 0, 53, 100
2, 494500, Note_off_c, 0, 41, 64
2, 494500, Note_on_c, 0, 29, 100
2, 494500, Note_on_c, 0, 69, 100
2, 494500, Note_off_c, 0, 67, 64
2, 494500, Note_on_c, 0, 67, 100
2, 494500, Note_off_c, 0, 69, 64
2, 494500, Note_on_c, 0, 65, 100
2, 494500, Note_on_c, 0, 60, 100
2, 494500, Note_off_c, 0, 53, 64
2, 494500, Note_on_c, 0, 41, 100
2, 494500, Note_off_c, 0, 29, 64
2, 494500, Note_on_c, 0, 69, 100
2, 494500, Note_on_c, 0, 70, 100
2, 494500, Note_off_c, 0, 65, 64
2, 494500, Note_on_c, 0, 62, 100
2, 494500, Note_on_c, 0, 46, 100
2, 494500, Note_on_c, 0, 22, 100
2, 494500, Note_on_c, 0, 34, 100
2, 497000, Note_off_c, 0, 70, 64
2, 497000, Note_on_c, 0, 74, 100
2, 497500, Note_off_c, 0, 74, 64
2, 497500, Note_on_c, 0, 72, 100
2, 497500, Note_on_c, 0, 70, 100
2, 497500, Note_on_c, 0, 65, 100
2, 497500, Note_off_c, 0, 62, 64
2, 497500, Note_off_c, 0, 46, 64
2, 497500, Note_off_c, 0, 22, 64
2, 497500, Note_off_c, 0, 34, 64
2, 498000, Note_off_c, 0, 72, 64
2, 498000, Note_on_c, 0, 74, 100
2, 498500, Note_off_c, 0, 74, 64
2, 498500, Note_off_c, 0, 70, 64
2, 498500, Note_off_c, 0, 50, 64
2, 498500, Note_on_c, 0, 26, 100
2, 498500, Note_on_c, 0, 38, 100
2, 499000, Note_on_c, 0, 70, 100
2, 499000, Note_on_c, 0, 74, 100
2, 499500, Note_off_c, 0, 74, 64
2, 499500, Note_off_c, 0, 69, 64
2, 500000, Note_on_c, 0, 69, 100
2, 500000, Note_on_c, 0, 74, 100
2, 500500, Note_off_c, 0, 74, 64
2, 500500, Note_off_c, 0, 67, 64
2, 500500, Note_on_c, 0, 50, 100
2, 500500, Note_on_c, 0, 62, 100
2, 500500, Note_off_c, 0, 26, 64
2, 500500, Note_off_c, 0, 38, 64
2, 501000, Note_on_c, 0, 67, 100
2, 501000, Note_on_c, 0, 74, 100
2, 501000, Note_off_c, 0, 62, 64
2, 501000, Note_on_c, 0, 38, 100
2, 501000, Note_off_c, 0, 50, 64
2, 501000, Note_off_c, 0, 74, 64
2, 501000, Note_on_c, 0, 66, 100
2, 501000, Note_on_c, 0, 50, 100
2, 501000, Note_on_c, 0, 26, 100
2, 501000, Note_off_c, 0, 38, 64
2, 501500, Note_off_c, 0, 66, 64
2, 501500, Note_on_c, 0, 74, 100
2, 502000, Note_off_c, 0, 74, 64
2, 502000, Note_on_c, 0, 64, 100
2, 502500, Note_off_c, 0, 64, 64
2, 502500, Note_on_c, 0, 74, 100
2, 502500, Note_on_c, 0, 62, 100
2, 503000, Note_off_c, 0, 74, 64
2, 503000, Note_on_c, 0, 66, 100
2, 503000, Note_off_c, 0, 62, 64
2, 503000, Note_on_c, 0, 72, 100
2, 503000, Note_off_c, 0, 50, 64
2, 503000, Note_off_c, 0, 26, 64
2, 503000, Note_on_c, 0, 38, 100
2, 503500, Note_off_c, 0, 66, 64
2, 503500, Note_on_c, 0, 74, 100
2, 503500, Note_off_c, 0, 72, 64
2, 503500, Note_on_c, 0, 62, 100
2, 503500, Note_off_c, 0, 62, 64
2, 503500, Note_off_c, 0, 38, 64
2, 503500, Note_on_c, 0, 50, 100
2, 503500, Note_off_c, 0, 74, 64
2, 503500, Note_off_c, 0, 67, 64
2, 503500, Note_on_c, 0, 62, 100
2, 503500, Note_off_c, 0, 70, 64
2, 503500, Note_off_c, 0, 50, 64
2, 503500, Note_on_c, 0, 26, 100
2, 503500, Note_on_c, 0, 38, 100
2, 504000, Note_on_c, 0, 67, 100
2, 504000, Note_on_c, 0, 74, 100
2, 504000, Note_on_c, 0, 70, 100
2, 504000, Note_off_c, 0, 62, 64
2, 504500, Note_off_c, 0, 74, 64
2, 504500, Note_on_c, 0, 66, 100
2, 504500, Note_on_c, 0, 62, 100
2, 504500, Note_off_c, 0, 69, 64
2, 505000, Note_off_c, 0, 66, 64
2, 505000, Note_on_c, 0, 74, 100
2, 505000, Note_on_c, 0, 69, 100
2, 505000, Note_off_c, 0, 62, 64
2, 505500, Note_off_c, 0, 74, 64
2, 505500, Note_off_c, 0, 67, 64
2, 505500, Note_on_c, 0, 62, 100
2, 505500, Note_on_c, 0, 50, 100
2, 505500, Note_off_c, 0, 26, 64
2, 505500, Note_off_c, 0, 38, 64
2, 506000, Note_on_c, 0, 67, 100
2, 506000, Note_on_c, 0, 74, 100
2, 506000, Note_off_c, 0, 62, 64
2, 506000, Note_on_c, 0, 62, 100
2, 506000, Note_on_c, 0, 38, 100
2, 506000, Note_off_c, 0, 50, 64
2, 506000, Note_off_c, 0, 74, 64
2, 506000, Note_off_c, 0, 69, 64
2, 506000, Note_off_c, 0, 62, 64
2, 506000, Note_on_c, 0, 66, 100
2, 506000, Note_on_c, 0, 50, 100
2, 506000, Note_on_c, 0, 26, 100
2, 506000, Note_off_c, 0, 38, 64
2, 506500, Note_on_c, 0, 69, 100
2, 506500, Note_on_c, 0, 74, 100
2, 506500, Note_off_c, 0, 66, 64
2, 506500, Note_on_c, 0, 62, 100
2, 507000, Note_off_c, 0, 74, 64
2, 507000, Note_off_c, 0, 67, 64
2, 507000, Note_off_c, 0, 62, 64
2, 507000, Note_on_c, 0, 64, 100
2, 507500, Note_on_c, 0, 67, 100
2, 507500, Note_on_c, 0, 74, 100
2, 507500, Note_off_c, 0, 64, 64
2, 507500, Note_on_c, 0, 62, 100
2, 508000, Note_off_c, 0, 74, 64
2, 508000, Note_off_c, 0, 69, 64
2, 508000, Note_off_c, 0, 62, 64
2, 508000, Note_on_c, 0, 66, 100
2, 508000, Note_off_c, 0, 50, 64
2, 508000, Note_off_c, 0, 26, 64
2, 508000, Note_on_c, 0, 38, 100
2, 508500, Note_on_c, 0, 69, 100
2, 508500, Note_on_c, 0, 74, 100
2, 508500, Note_off_c, 0, 66, 64
2, 508500, Note_on_c, 0, 62, 100
2, 508500, Note_off_c, 0, 62, 64
2, 508500, Note_off_c, 0, 38, 64
2, 508500, Note_on_c, 0, 50, 100
2, 508500, Note_off_c, 0, 74, 64
2, 508500, Note_off_c, 0, 70, 64
2, 508500, Note_on_c, 0, 62, 100
2, 508500, Note_off_c, 0, 67, 64
2, 508500, Note_off_c, 0, 50, 64
2, 508500, Note_on_c, 0, 26, 100
2, 508500, Note_on_c, 0, 38, 100
2, 509000, Note_on_c, 0, 70, 100
2, 509000, Note_on_c, 0, 74, 100
2, 509000, Note_on_c, 0, 67, 100
2, 509000, Note_off_c, 0, 62, 64
2, 509500, Note_off_c, 0, 74, 64
2, 509500, Note_off_c, 0, 69, 64
2, 509500, Note_on_c, 0, 62, 100
2, 509500, Note_on_c, 0, 66, 100
2, 510000, Note_on_c, 0, 69, 100
2, 510000, Note_on_c, 0, 74, 100
2, 510000, Note_off_c, 0, 66, 64
2, 510000, Note_off_c, 0, 62, 64
2, 510500, Note_off_c, 0, 74, 64
2, 510500, Note_off_c, 0, 70, 64
2, 510500, Note_on_c, 0, 62, 100
2, 510500, Note_off_c, 0, 67, 64
2, 510500, Note_on_c, 0, 50, 100
2, 510500, Note_off_c, 0, 26, 64
2, 510500, Note_off_c, 0, 38, 64
2, 511000, Note_on_c, 0, 70, 100
2, 511000, Note_on_c, 0, 74, 100
2, 511000, Note_on_c, 0, 67, 100
2, 511000, Note_off_c, 0, 62, 64
2, 511000, Note_on_c, 0, 62, 100
2, 511000, Note_on_c, 0, 38, 100
2, 511000, Note_off_c, 0, 50, 64
2, 511000, Note_off_c, 0, 74, 64
2, 511000, Note_on_c, 0, 72, 100
2, 511000, Note_off_c, 0, 62, 64
2, 511000, Note_off_c, 0, 69, 64
2, 511000, Note_on_c, 0, 50, 100
2, 511000, Note_on_c, 0, 26, 100
2, 511000, Note_off_c, 0, 38, 64
2, 511500, Note_off_c, 0, 72, 64
2, 511500, Note_on_c, 0, 74, 100
2, 511500, Note_on_c, 0, 69, 100
2, 511500, Note_on_c, 0, 62, 100
2, 512000, Note_off_c, 0, 74, 64
2, 512000, Note_off_c, 0, 70, 64
2, 512000, Note_off_c, 0, 62, 64
2, 512000, Note_off_c, 0, 67, 64
2, 512500, Note_on_c, 0, 70, 100
2, 512500, Note_on_c, 0, 74, 100
2, 512500, Note_on_c, 0, 67, 100
2, 512500, Note_on_c, 0, 62, 100
2, 513000, Note_off_c, 0, 74, 64
2, 513000, Note_off_c, 0, 69, 64
2, 513000, Note_off_c, 0, 62, 64
2, 513000, Note_on_c, 0, 66, 100
2, 513000, Note_off_c, 0, 50, 64
2, 513000, Note_off_c, 0, 26, 64
2, 513000, Note_on_c, 0, 38, 100
2, 513500, Note_on_c, 0, 69, 100
2, 513500, Note_on_c, 0, 74, 100
2, 513500, Note_off_c, 0, 66, 64
2, 513500, Note_on_c, 0, 62, 100
2, 513500, Note_off_c, 0, 62, 64
2, 513500, Note_off_c, 0, 38, 64
2, 513500, Note_on_c, 0, 50, 100
2, 513500, Note_off_c, 0, 74, 64
2, 513500, Note_off_c, 0, 70, 64
2, 513500, Note_on_c, 0, 62, 100
2, 513500, Note_off_c, 0, 67, 64
2, 513500, Note_off_c, 0, 50, 64
2, 513500, Note_on_c, 0, 26, 100
2, 513500, Note_on_c, 0, 38, 100
2, 514000, Note_on_c, 0, 70, 100
2, 514000, Note_on_c, 0, 74, 100
2, 514000, Note_on_c, 0, 67, 100
2, 514000, Note_off_c, 0, 62, 64
2, 514500, Note_off_c, 0, 74, 64
2, 514500, Note_off_c, 0, 69, 64
2, 514500, Note_on_c, 0, 62, 100
2, 515000, Note_on_c, 0, 69, 100
2, 515000, Note_on_c, 0, 74, 100
2, 515000, Note_off_c, 0, 62, 64
2, 515500, Note_off_c, 0, 74, 64
2, 515500, Note_off_c, 0, 67, 64
2, 515500, Note_on_c, 0, 62, 100
2, 515500, Note_off_c, 0, 70, 64
2, 515500, Note_on_c, 0, 50, 100
2, 515500, Note_off_c, 0, 26, 64
2, 515500, Note_off_c, 0, 38, 64
2, 516000, Note_on_c, 0, 67, 100
2, 516000, Note_on_c, 0, 74, 100
2, 516000, Note_on_c, 0, 70, 100
2, 516000, Note_off_c, 0, 62, 64
2, 516000, Note_on_c, 0, 62, 100
2, 516000, Note_on_c, 0, 38, 100
2, 516000, Note_off_c, 0, 50, 64
2, 516000, Note_off_c, 0, 74, 64
2, 516000, Note_on_c, 0, 66, 100
2, 516000, Note_off_c, 0, 62, 64
2, 516000, Note_off_c, 0, 69, 64
2, 516000, Note_on_c, 0, 50, 100
2, 516000, Note_on_c, 0, 26, 100
2, 516000, Note_off_c, 0, 38, 64
2, 516500, Note_off_c, 0, 66, 64
2, 516500, Note_on_c, 0, 62, 100
2, 516500, Note_on_c, 0, 69, 100
2, 516500, Note_off_c, 0, 62, 64
2, 516500, Note_on_c, 0, 66, 100
2, 517000, Note_off_c, 0, 66, 64
2, 517000, Note_off_c, 0, 69, 64
2, 517000, Note_on_c, 0, 62, 100
2, 517000, Note_on_c, 0, 69, 100
2, 517000, Note_on_c, 0, 74, 100
2, 517000, Note_off_c, 0, 50, 64
2, 517000, Note_off_c, 0, 48, 64
2, 517000, Note_off_c, 0, 26, 64
2, 517000, Note_on_c, 0, 38, 100
2, 517500, Note_off_c, 0, 74, 64
2, 517500, Note_off_c, 0, 75, 64
2, 517500, Note_on_c, 0, 48, 100
2, 517500, Note_on_c, 0, 75, 100
2, 517500, Note_off_c, 0, 77, 64
2, 517500, Note_on_c, 0, 47, 100
2, 518000, Note_off_c, 0, 55, 64
2, 518500, Note_on_c, 0, 55, 100
2, 518500, Note_on_c, 0, 59, 100
2, 519000, Note_off_c, 0, 59, 64
2, 519000, Note_off_c, 0, 62, 64
2, 519500, Note_on_c, 0, 62, 100
2, 519500, Note_off_c, 0, 67, 64
2, 519500, Note_off_c, 0, 47, 64
2, 520000, Note_on_c, 0, 67, 100
2, 520000, Note_on_c, 0, 71, 100
2, 520500, Note_on_c, 0, 77, 100
2, 520500, Note_off_c, 0, 71, 64
2, 520500, Note_off_c, 0, 75, 64
2, 520500, Note_off_c, 0, 48, 64
2, 521000, Note_off_c, 0, 60, 64
2, 521500, Note_on_c, 0, 60, 100
2, 521500, Note_off_c, 0, 63, 64
2, 522000, Note_on_c, 0, 63, 100
2, 522000, Note_off_c, 0, 67, 64
2, 522500, Note_on_c, 0, 67, 100
2, 522500, Note_on_c, 0, 72, 100
2, 522500, Note_on_c, 0, 48, 100
2, 523000, Note_off_c, 0, 72, 64
2, 523000, Note_on_c, 0, 74, 100
2, 523500, Note_off_c, 0, 74, 64
2, 523500, Note_on_c, 0, 75, 100
2, 523500, Note_on_c, 0, 45, 100
2, 524000, Note_on_c, 0, 53, 100
2, 524500, Note_off_c, 0, 53, 64
2, 524500, Note_off_c, 0, 57, 64
2, 525000, Note_on_c, 0, 57, 100
2, 525000, Note_off_c, 0, 60, 64
2, 525500, Note_on_c, 0, 60, 100
2, 525500, Note_off_c, 0, 65, 64
2, 525500, Note_off_c, 0, 45, 64
2, 526000, Note_on_c, 0, 65, 100
2, 526000, Note_off_c, 0, 69, 64
2, 526500, Note_off_c, 0, 75, 64
2, 526500, Note_on_c, 0, 69, 100
2, 526500, Note_on_c, 0, 74, 100
2, 526500, Note_on_c, 0, 46, 100
2, 527000, Note_off_c, 0, 58, 64
2, 527500, Note_on_c, 0, 58, 100
2, 527500, Note_off_c, 0, 62, 64
2, 528000, Note_on_c, 0, 62, 100
2, 528000, Note_off_c, 0, 65, 64
2, 528500, Note_on_c, 0, 65, 100
2, 528500, Note_off_c, 0, 70, 64
2, 528500, Note_off_c, 0, 46, 64
2, 529000, Note_on_c, 0, 70, 100
2, 529000, Note_on_c, 0, 72, 100
2, 529500, Note_off_c, 0, 72, 64
2, 529500, Note_off_c, 0, 74, 64
2, 529500, Note_on_c, 0, 43, 100
2, 530000, Note_off_c, 0, 51, 64
2, 530500, Note_on_c, 0, 51, 100
2, 530500, Note_off_c, 0, 55, 64
2, 531000, Note_on_c, 0, 55, 100
2, 531000, Note_off_c, 0, 58, 64
2, 531500, Note_on_c, 0, 58, 100
2, 531500, Note_off_c, 0, 63, 64
2, 531500, Note_off_c, 0, 43, 64
2, 532000, Note_on_c, 0, 63, 100
2, 532000, Note_off_c, 0, 67, 64
2, 532500, Note_on_c, 0, 74, 100
2, 532500, Note_on_c, 0, 67, 100
2, 532500, Note_on_c, 0, 72, 100
2, 532500, Note_on_c, 0, 45, 100
2, 533000, Note_off_c, 0, 57, 64
2, 533500, Note_on_c, 0, 57, 100
2, 533500, Note_off_c, 0, 60, 64
2, 534000, Note_on_c, 0, 60, 100
2, 534000, Note_on_c, 0, 66, 100
2, 534500, Note_off_c, 0, 66, 64
2, 534500, Note_off_c, 0, 69, 64
2, 534500, Note_off_c, 0, 45, 64
2, 535000, Note_on_c, 0, 69, 100
2, 535000, Note_off_c, 0, 70, 64
2, 535500, Note_on_c, 0, 70, 100
2, 535500, Note_off_c, 0, 72, 64
2, 535500, Note_on_c, 0, 42, 100
2, 536000, Note_on_c, 0, 50, 100
2, 536500, Note_off_c, 0, 50, 64
2, 536500, Note_off_c, 0, 54, 64
2, 537000, Note_on_c, 0, 54, 100
2, 537000, Note_off_c, 0, 57, 64
2, 537500, Note_on_c, 0, 57, 100
2, 537500, Note_off_c, 0, 62, 64
2, 537500, Note_off_c, 0, 42, 64
2, 538000, Note_on_c, 0, 62, 100
2, 538000, Note_on_c, 0, 66, 100
2, 538500, Note_on_c, 0, 72, 100
2, 538500, Note_off_c, 0, 66, 64
2, 538500, Note_off_c, 0, 70, 64
2, 538500, Note_on_c, 0, 43, 100
2, 539000, Note_off_c, 0, 55, 64
2, 539500, Note_on_c, 0, 55, 100
2, 539500, Note_off_c, 0, 57, 64
2, 540000, Note_on_c, 0, 57, 100
2, 540000, Note_off_c, 0, 58, 64
2, 540500, Note_on_c, 0, 58, 100
2, 540500, Note_off_c, 0, 60, 64
2, 540500, Note_off_c, 0, 43, 64
2, 541000, Note_on_c, 0, 60, 100
2, 541000, Note_off_c, 0, 62, 64
2, 541500, Note_on_c, 0, 62, 100
2, 541500, Note_off_c, 0, 63, 64
2, 541500, Note_off_c, 0, 48, 64
2, 542000, Note_on_c, 0, 70, 100
2, 542000, Note_off_c, 0, 69, 64
2, 542500, Note_on_c, 0, 69, 100
2, 542500, Note_off_c, 0, 67, 64
2, 543000, Note_on_c, 0, 67, 100
2, 543000, Note_off_c, 0, 65, 64
2, 543500, Note_on_c, 0, 65, 100
2, 543500, Note_on_c, 0, 63, 100
2, 543500, Note_on_c, 0, 48, 100
2, 544000, Note_off_c, 0, 63, 64
2, 544000, Note_off_c, 0, 62, 64
2, 544500, Note_on_c, 0, 62, 100
2, 544500, Note_off_c, 0, 72, 64
2, 544500, Note_on_c, 0, 45, 100
2, 545000, Note_on_c, 0, 63, 100
2, 545000, Note_off_c, 0, 57, 64
2, 545500, Note_on_c, 0, 57, 100
2, 545500, Note_off_c, 0, 58, 64
2, 546000, Note_on_c, 0, 58, 100
2, 546000, Note_off_c, 0, 60, 64
2, 546500, Note_on_c, 0, 60, 100
2, 546500, Note_off_c, 0, 62, 64
2, 546500, Note_off_c, 0, 45, 64
2, 547000, Note_on_c, 0, 62, 100
2, 547000, Note_on_c, 0, 64, 100
2, 547500, Note_off_c, 0, 64, 64
2, 547500, Note_off_c, 0, 65, 64
2, 547500, Note_on_c, 0, 50, 100
2, 548000, Note_on_c, 0, 72, 100
2, 548000, Note_off_c, 0, 70, 64
2, 548500, Note_on_c, 0, 70, 100
2, 548500, Note_off_c, 0, 69, 64
2, 549000, Note_on_c, 0, 69, 100
2, 549000, Note_off_c, 0, 67, 64
2, 549500, Note_on_c, 0, 67, 100
2, 549500, Note_on_c, 0, 65, 100
2, 549500, Note_off_c, 0, 50, 64
2, 550000, Note_off_c, 0, 65, 64
2, 550000, Note_off_c, 0, 63, 64
2, 550500, Note_on_c, 0, 63, 100
2, 550500, Note_off_c, 0, 74, 64
2, 550500, Note_on_c, 0, 46, 100
2, 551000, Note_on_c, 0, 65, 100
2, 551000, Note_off_c, 0, 58, 64
2, 551500, Note_on_c, 0, 58, 100
2, 551500, Note_off_c, 0, 60, 64
2, 552000, Note_on_c, 0, 60, 100
2, 552000, Note_off_c, 0, 62, 64
2, 552500, Note_on_c, 0, 62, 100
2, 552500, Note_on_c, 0, 64, 100
2, 552500, Note_off_c, 0, 46, 64
2, 553000, Note_off_c, 0, 64, 64
2, 553000, Note_on_c, 0, 66, 100
2, 553500, Note_off_c, 0, 66, 64
2, 553500, Note_off_c, 0, 67, 64
2, 553500, Note_off_c, 0, 51, 64
2, 554000, Note_on_c, 0, 74, 100
2, 554000, Note_off_c, 0, 72, 64
2, 554500, Note_on_c, 0, 72, 100
2, 554500, Note_off_c, 0, 70, 64
2, 555000, Note_on_c, 0, 67, 100
2, 555000, Note_on_c, 0, 70, 100
2, 555000, Note_off_c, 0, 69, 64
2, 555500, Note_off_c, 0, 70, 64
2, 555500, Note_off_c, 0, 72, 64
2, 555500, Note_on_c, 0, 69, 100
2, 555500, Note_off_c, 0, 67, 64
2, 555500, Note_on_c, 0, 51, 100
2, 556000, Note_on_c, 0, 72, 100
2, 556000, Note_off_c, 0, 74, 64
2, 556000, Note_on_c, 0, 67, 100
2, 556000, Note_on_c, 0, 66, 100
2, 556500, Note_on_c, 0, 74, 100
2, 556500, Note_on_c, 0, 75, 100
2, 556500, Note_off_c, 0, 66, 64
2, 556500, Note_off_c, 0, 67, 64
2, 556500, Note_off_c, 0, 48, 64
2, 557000, Note_off_c, 0, 75, 64
2, 557000, Note_off_c, 0, 74, 64
2, 557000, Note_on_c, 0, 67, 100
2, 557000, Note_off_c, 0, 65, 64
2, 557500, Note_on_c, 0, 74, 100
2, 557500, Note_off_c, 0, 72, 64
2, 557500, Note_on_c, 0, 65, 100
2, 557500, Note_off_c, 0, 63, 64
2, 558000, Note_on_c, 0, 72, 100
2, 558000, Note_on_c, 0, 70, 100
2, 558000, Note_on_c, 0, 63, 100
2, 558000, Note_off_c, 0, 62, 64
2, 558500, Note_off_c, 0, 70, 64
2, 558500, Note_off_c, 0, 69, 64
2, 558500, Note_on_c, 0, 62, 100
2, 558500, Note_off_c, 0, 60, 64
2, 558500, Note_on_c, 0, 48, 100
2, 559000, Note_on_c, 0, 69, 100
2, 559000, Note_off_c, 0, 67, 64
2, 559000, Note_on_c, 0, 60, 100
2, 559000, Note_off_c, 0, 58, 64
2, 559500, Note_on_c, 0, 67, 100
2, 559500, Note_on_c, 0, 66, 100
2, 559500, Note_on_c, 0, 58, 100
2, 559500, Note_off_c, 0, 57, 64
2, 559500, Note_on_c, 0, 50, 100
2, 560000, Note_off_c, 0, 66, 64
2, 560000, Note_on_c, 0, 64, 100
2, 560000, Note_on_c, 0, 57, 100
2, 560000, Note_off_c, 0, 55, 64
2, 560500, Note_off_c, 0, 64, 64
2, 560500, Note_on_c, 0, 66, 100
2, 560500, Note_on_c, 0, 55, 100
2, 560500, Note_off_c, 0, 57, 64
2, 561000, Note_off_c, 0, 66, 64
2, 561000, Note_off_c, 0, 67, 64
2, 561000, Note_on_c, 0, 57, 100
2, 561000, Note_off_c, 0, 58, 64
2, 561500, Note_on_c, 0, 67, 100
2, 561500, Note_on_c, 0, 66, 100
2, 561500, Note_on_c, 0, 58, 100
2, 561500, Note_off_c, 0, 57, 64
2, 561500, Note_off_c, 0, 50, 64
2, 562000, Note_off_c, 0, 66, 64
2, 562000, Note_off_c, 0, 67, 64
2, 562000, Note_on_c, 0, 57, 100
2, 562000, Note_off_c, 0, 58, 64
2, 562500, Note_on_c, 0, 67, 100
2, 562500, Note_off_c, 0, 69, 64
2, 562500, Note_on_c, 0, 58, 100
2, 562500, Note_off_c, 0, 60, 64
2, 562500, Note_off_c, 0, 38, 64
2, 563000, Note_on_c, 0, 69, 100
2, 563000, Note_off_c, 0, 67, 64
2, 563000, Note_on_c, 0, 60, 100
2, 563000, Note_off_c, 0, 58, 64
2, 563500, Note_on_c, 0, 67, 100
2, 563500, Note_off_c, 0, 69, 64
2, 563500, Note_on_c, 0, 58, 100
2, 563500, Note_off_c, 0, 60, 64
2, 564000, Note_on_c, 0, 69, 100
2, 564000, Note_on_c, 0, 70, 100
2, 564000, Note_on_c, 0, 60, 100
2, 564000, Note_off_c, 0, 62, 64
2, 564500, Note_off_c, 0, 70, 64
2, 564500, Note_off_c, 0, 69, 64
2, 564500, Note_on_c, 0, 62, 100
2, 564500, Note_off_c, 0, 60, 64
2, 564500, Note_on_c, 0, 38, 100
2, 565000, Note_on_c, 0, 69, 100
2, 565000, Note_on_c, 0, 70, 100
2, 565000, Note_on_c, 0, 60, 100
2, 565000, Note_off_c, 0, 62, 64
2, 565500, Note_off_c, 0, 70, 64
2, 565500, Note_off_c, 0, 67, 64
2, 565500, Note_on_c, 0, 62, 100
2, 565500, Note_off_c, 0, 58, 64
2, 565500, Note_off_c, 0, 55, 64
2, 565500, Note_on_c, 0, 43, 100
2, 567000, Note_on_c, 0, 67, 100
2, 567000, Note_on_c, 0, 66, 100
2, 567000, Note_on_c, 0, 58, 100
2, 567000, Note_off_c, 0, 62, 64
2, 568000, Note_off_c, 0, 66, 64
2, 568000, Note_on_c, 0, 62, 100
2, 568000, Note_off_c, 0, 67, 64
2, 568000, Note_off_c, 0, 62, 64
2, 568000, Note_off_c, 0, 58, 64
2, 568000, Note_on_c, 0, 55, 100
2, 568000, Note_off_c, 0, 43, 64
2, 569000, Note_on_c, 0, 67, 100
2, 569000, Note_on_c, 0, 58, 100
2, 569000, Note_on_c, 0, 62, 100
2, 569000, Note_off_c, 0, 55, 64
2, 569000, Note_on_c, 0, 53, 100
2, 569000, Note_off_c, 0, 41, 64
2, 570500, Note_off_c, 0, 58, 64
2, 570500, Note_off_c, 0, 62, 64
2, 571500, Note_on_c, 0, 62, 100
2, 571500, Note_off_c, 0, 67, 64
2, 571500, Note_off_c, 0, 62, 64
2, 571500, Note_on_c, 0, 55, 100
2, 571500, Note_off_c, 0, 53, 64
2, 571500, Note_on_c, 0, 41, 100
2, 572500, Note_on_c, 0, 67, 100
2, 572500, Note_off_c, 0, 67, 64
2, 572500, Note_off_c, 0, 63, 64
2, 572500, Note_on_c, 0, 58, 100
2, 572500, Note_off_c, 0, 51, 64
2, 572500, Note_on_c, 0, 39, 100
2, 574000, Note_on_c, 0, 67, 100
2, 574000, Note_on_c, 0, 66, 100
2, 575000, Note_off_c, 0, 66, 64
2, 575000, Note_off_c, 0, 67, 64
2, 575000, Note_on_c, 0, 63, 100
2, 575000, Note_off_c, 0, 58, 64
2, 575000, Note_on_c, 0, 51, 100
2, 575000, Note_off_c, 0, 39, 64
2, 576000, Note_on_c, 0, 67, 100
2, 576000, Note_on_c, 0, 58, 100
2, 576000, Note_off_c, 0, 67, 64
2, 576000, Note_on_c, 0, 62, 100
2, 576000, Note_on_c, 0, 50, 100
2, 576000, Note_off_c, 0, 38, 64
2, 577500, Note_off_c, 0, 58, 64
2, 577500, Note_off_c, 0, 62, 64
2, 578500, Note_on_c, 0, 62, 100
2, 578500, Note_on_c, 0, 67, 100
2, 578500, Note_off_c, 0, 62, 64
2, 578500, Note_off_c, 0, 50, 64
2, 578500, Note_on_c, 0, 38, 100
2, 579500, Note_off_c, 0, 67, 64
2, 579500, Note_off_c, 0, 69, 64
2, 579500, Note_on_c, 0, 67, 100
2, 579500, Note_off_c, 0, 63, 64
2, 579500, Note_off_c, 0, 48, 64
2, 579500, Note_on_c, 0, 36, 100
2, 581000, Note_on_c, 0, 69, 100
2, 581000, Note_off_c, 0, 67, 64
2, 582000, Note_on_c, 0, 67, 100
2, 582000, Note_off_c, 0, 69, 64
2, 582000, Note_off_c, 0, 67, 64
2, 582000, Note_on_c, 0, 63, 100
2, 582000, Note_on_c, 0, 48, 100
2, 582000, Note_off_c, 0, 36, 64
2, 583000, Note_on_c, 0, 69, 100
2, 583000, Note_on_c, 0, 62, 100
2, 583000, Note_on_c, 0, 66, 100
2, 583000, Note_on_c, 0, 50, 100
2, 583000, Note_off_c, 0, 38, 64
2, 584500, Note_off_c, 0, 62, 64
2, 584500, Note_off_c, 0, 66, 64
2, 585500, Note_on_c, 0, 66, 100
2, 585500, Note_off_c, 0, 69, 64
2, 585500, Note_off_c, 0, 66, 64
2, 585500, Note_on_c, 0, 62, 100
2, 585500, Note_off_c, 0, 50, 64
2, 585500, Note_on_c, 0, 38, 100
2, 586500, Note_on_c, 0, 69, 100
2, 586500, Note_on_c, 0, 70, 100
2, 586500, Note_on_c, 0, 67, 100
2, 586500, Note_off_c, 0, 62, 64
2, 586500, Note_on_c, 0, 43, 100
2, 586500, Note_on_c, 0, 31, 100
2, 588000, Note_off_c, 0, 70, 64
2, 588000, Note_off_c, 0, 69, 64
2, 588000, Note_off_c, 0, 67, 64
2, 588000, Note_on_c, 0, 66, 100
2, 588000, Note_on_c, 0, 62, 100
2, 588000, Note_off_c, 0, 60, 64
2, 589000, Note_on_c, 0, 69, 100
2, 589000, Note_off_c, 0, 66, 64
2, 589000, Note_on_c, 0, 60, 100
2, 589000, Note_on_c, 0, 70, 100
2, 589000, Note_on_c, 0, 67, 100
2, 589000, Note_off_c, 0, 62, 64
2, 589000, Note_off_c, 0, 43, 64
2, 589000, Note_on_c, 0, 50, 100
2, 589000, Note_off_c, 0, 38, 64
2, 589000, Note_off_c, 0, 31, 64
2, 590000, Note_off_c, 0, 70, 64
2, 590000, Note_off_c, 0, 67, 64
2, 590000, Note_on_c, 0, 62, 100
2, 590000, Note_off_c, 0, 50, 64
2, 590000, Note_on_c, 0, 38, 100
2, 590000, Note_on_c, 0, 67, 100
2, 590000, Note_off_c, 0, 62, 64
2, 590000, Note_on_c, 0, 58, 100
2, 590000, Note_off_c, 0, 55, 64
2, 590000, Note_on_c, 0, 43, 100
2, 590500, Note_on_c, 0, 55, 100
2, 590500, Note_off_c, 0, 57, 64
2, 591000, Note_on_c, 0, 57, 100
2, 591000, Note_off_c, 0, 58, 64
2, 591500, Note_on_c, 0, 58, 100
2, 591500, Note_off_c, 0, 57, 64
2, 592000, Note_off_c, 0, 67, 64
2, 592000, Note_off_c, 0, 74, 64
2, 592000, Note_on_c, 0, 62, 100
2, 592000, Note_off_c, 0, 58, 64
2, 592000, Note_on_c, 0, 57, 100
2, 592000, Note_off_c, 0, 55, 64
2, 592000, Note_off_c, 0, 43, 64
2, 592500, Note_on_c, 0, 55, 100
2, 592500, Note_on_c, 0, 53, 100
2, 592500, Note_on_c, 0, 74, 100
2, 592500, Note_on_c, 0, 79, 100
2, 592500, Note_off_c, 0, 53, 64
2, 592500, Note_off_c, 0, 52, 64
2, 593000, Note_on_c, 0, 52, 100
2, 593000, Note_on_c, 0, 53, 100
2, 593500, Note_off_c, 0, 53, 64
2, 593500, Note_off_c, 0, 55, 64
2, 594000, Note_on_c, 0, 55, 100
2, 594000, Note_on_c, 0, 53, 100
2, 594500, Note_on_c, 0, 71, 100
2, 594500, Note_off_c, 0, 53, 64
2, 594500, Note_off_c, 0, 52, 64
2, 595000, Note_on_c, 0, 52, 100
2, 595000, Note_on_c, 0, 50, 100
2, 595000, Note_off_c, 0, 71, 64
2, 595000, Note_on_c, 0, 76, 100
2, 595000, Note_off_c, 0, 50, 64
2, 595000, Note_on_c, 0, 49, 100
2, 595500, Note_off_c, 0, 49, 64
2, 595500, Note_off_c, 0, 52, 64
2, 596000, Note_off_c, 0, 79, 64
2, 596000, Note_on_c, 0, 73, 100
2, 596000, Note_on_c, 0, 52, 100
2, 596000, Note_off_c, 0, 57, 64
2, 596500, Note_on_c, 0, 57, 100
2, 596500, Note_off_c, 0, 55, 64
2, 596500, Note_off_c, 0, 73, 64
2, 596500, Note_off_c, 0, 76, 64
2, 596500, Note_on_c, 0, 55, 100
2, 596500, Note_on_c, 0, 53, 100
2, 597000, Note_off_c, 0, 53, 64
2, 597000, Note_off_c, 0, 52, 64
2, 597000, Note_on_c, 0, 76, 100
2, 597000, Note_off_c, 0, 77, 64
2, 597000, Note_on_c, 0, 52, 100
2, 597000, Note_on_c, 0, 50, 100
2, 597500, Note_on_c, 0, 77, 100
2, 597500, Note_off_c, 0, 76, 64
2, 597500, Note_off_c, 0, 50, 64
2, 597500, Note_on_c, 0, 76, 100
2, 597500, Note_off_c, 0, 74, 64
2, 597500, Note_off_c, 0, 69, 64
2, 597500, Note_on_c, 0, 53, 100
2, 598000, Note_on_c, 0, 74, 100
2, 598000, Note_off_c, 0, 77, 64
2, 598000, Note_on_c, 0, 69, 100
2, 598000, Note_off_c, 0, 53, 64
2, 598000, Note_on_c, 0, 77, 100
2, 598000, Note_off_c, 0, 76, 64
2, 598000, Note_on_c, 0, 73, 100
2, 598000, Note_off_c, 0, 69, 64
2, 598000, Note_on_c, 0, 64, 100
2, 598000, Note_off_c, 0, 57, 64
2, 598000, Note_on_c, 0, 33, 100
2, 598000, Note_on_c, 0, 45, 100
2, 598500, Note_on_c, 0, 76, 100
2, 598500, Note_on_c, 0, 79, 100
2, 598500, Note_off_c, 0, 33, 64
2, 598500, Note_off_c, 0, 45, 64
2, 598500, Note_off_c, 0, 73, 64
2, 598500, Note_on_c, 0, 69, 100
2, 598500, Note_off_c, 0, 64, 64
2, 598500, Note_on_c, 0, 57, 100
2, 598500, Note_off_c, 0, 79, 64
2, 598500, Note_off_c, 0, 77, 64
2, 598500, Note_off_c, 0, 74, 64
2, 598500, Note_off_c, 0, 69, 64
2, 598500, Note_off_c, 0, 62, 64
2, 598500, Note_off_c, 0, 38, 64
2, 598500, Note_on_c, 0, 50, 100
2, 599000, Note_on_c, 0, 77, 100
2, 599000, Note_on_c, 0, 69, 100
2, 599000, Note_on_c, 0, 74, 100
2, 599000, Note_on_c, 0, 62, 100
2, 599000, Note_off_c, 0, 69, 64
2, 599000, Note_off_c, 0, 74, 64
2, 599000, Note_off_c, 0, 62, 64
2, 599000, Note_on_c, 0, 53, 100
2, 599500, Note_on_c, 0, 74, 100
2, 599500, Note_off_c, 0, 76, 64
2, 599500, Note_on_c, 0, 76, 100
2, 599500, Note_off_c, 0, 77, 64
2, 599500, Note_on_c, 0, 62, 100
2, 599500, Note_off_c, 0, 53, 64
2, 599500, Note_on_c, 0, 77, 100
2, 599500, Note_off_c, 0, 76, 64
2, 599500, Note_on_c, 0, 69, 100
2, 599500, Note_off_c, 0, 62, 64
2, 599500, Note_off_c, 0, 57, 64
2, 599500, Note_on_c, 0, 38, 100
2, 599500, Note_off_c, 0, 50, 64
2, 600000, Note_on_c, 0, 76, 100
2, 600000, Note_off_c, 0, 77, 64
2, 600000, Note_on_c, 0, 77, 100
2, 600000, Note_on_c, 0, 79, 100
2, 600000, Note_on_c, 0, 57, 100
2, 600000, Note_off_c, 0, 79, 64
2, 600000, Note_off_c, 0, 77, 64
2, 600000, Note_on_c, 0, 50, 100
2, 600500, Note_off_c, 0, 50, 64
2, 600500, Note_off_c, 0, 51, 64
2, 601000, Note_on_c, 0, 51, 100
2, 601000, Note_on_c, 0, 53, 100
2, 601500, Note_off_c, 0, 53, 64
2, 601500, Note_off_c, 0, 51, 64
2, 602000, Note_off_c, 0, 69, 64
2, 602000, Note_on_c, 0, 51, 100
2, 602000, Note_on_c, 0, 50, 100
2, 602500, Note_off_c, 0, 50, 64
2, 602500, Note_off_c, 0, 48, 64
2, 602500, Note_on_c, 0, 69, 100
2, 602500, Note_off_c, 0, 74, 64
2, 602500, Note_on_c, 0, 48, 100
2, 602500, Note_on_c, 0, 47, 100
2, 603000, Note_off_c, 0, 47, 64
2, 603000, Note_on_c, 0, 50, 100
2, 603500, Note_on_c, 0, 77, 100
2, 603500, Note_on_c, 0, 71, 100
2, 603500, Note_off_c, 0, 50, 64
2, 603500, Note_off_c, 0, 55, 64
2, 604000, Note_on_c, 0, 55, 100
2, 604000, Note_on_c, 0, 53, 100
2, 604000, Note_off_c, 0, 71, 64
2, 604000, Note_on_c, 0, 74, 100
2, 604000, Note_off_c, 0, 53, 64
2, 604000, Note_off_c, 0, 51, 64
2, 604500, Note_on_c, 0, 51, 100
2, 604500, Note_on_c, 0, 50, 100
2, 604500, Note_off_c, 0, 74, 64
2, 604500, Note_on_c, 0, 75, 100
2, 604500, Note_off_c, 0, 50, 64
2, 604500, Note_off_c, 0, 48, 64
2, 605000, Note_off_c, 0, 75, 64
2, 605000, Note_on_c, 0, 74, 100
2, 605000, Note_on_c, 0, 48, 100
2, 605000, Note_off_c, 0, 74, 64
2, 605000, Note_off_c, 0, 72, 64
2, 605000, Note_on_c, 0, 67, 100
2, 605000, Note_off_c, 0, 51, 64
2, 605500, Note_on_c, 0, 72, 100
2, 605500, Note_on_c, 0, 75, 100
2, 605500, Note_off_c, 0, 67, 64
2, 605500, Note_on_c, 0, 51, 100
2, 605500, Note_off_c, 0, 75, 64
2, 605500, Note_on_c, 0, 74, 100
2, 605500, Note_on_c, 0, 71, 100
2, 605500, Note_on_c, 0, 67, 100
2, 605500, Note_on_c, 0, 62, 100
2, 605500, Note_off_c, 0, 55, 64
2, 605500, Note_on_c, 0, 43, 100
2, 605500, Note_on_c, 0, 31, 100
2, 606000, Note_off_c, 0, 74, 64
2, 606000, Note_off_c, 0, 77, 64
2, 606000, Note_off_c, 0, 43, 64
2, 606000, Note_off_c, 0, 31, 64
2, 606000, Note_off_c, 0, 71, 64
2, 606000, Note_off_c, 0, 67, 64
2, 606000, Note_off_c, 0, 62, 64
2, 606000, Note_on_c, 0, 55, 100
2, 606000, Note_on_c, 0, 77, 100
2, 606000, Note_on_c, 0, 75, 100
2, 606000, Note_off_c, 0, 72, 64
2, 606000, Note_on_c, 0, 67, 100
2, 606000, Note_off_c, 0, 60, 64
2, 606000, Note_on_c, 0, 36, 100
2, 606000, Note_off_c, 0, 48, 64
2, 606500, Note_on_c, 0, 60, 100
2, 606500, Note_on_c, 0, 62, 100
2, 606500, Note_off_c, 0, 75, 64
2, 606500, Note_on_c, 0, 72, 100
2, 606500, Note_off_c, 0, 62, 64
2, 606500, Note_off_c, 0, 60, 64
2, 607000, Note_on_c, 0, 60, 100
2, 607000, Note_on_c, 0, 58, 100
2, 607000, Note_off_c, 0, 72, 64
2, 607000, Note_on_c, 0, 75, 100
2, 607000, Note_off_c, 0, 67, 64
2, 607000, Note_off_c, 0, 60, 64
2, 607000, Note_off_c, 0, 58, 64
2, 607000, Note_off_c, 0, 57, 64
2, 607000, Note_off_c, 0, 36, 64
2, 607000, Note_on_c, 0, 48, 100
2, 607500, Note_on_c, 0, 57, 100
2, 607500, Note_off_c, 0, 55, 64
2, 607500, Note_off_c, 0, 75, 64
2, 607500, Note_on_c, 0, 74, 100
2, 607500, Note_on_c, 0, 55, 100
2, 607500, Note_off_c, 0, 54, 64
2, 608000, Note_on_c, 0, 54, 100
2, 608000, Note_off_c, 0, 57, 64
2, 608500, Note_on_c, 0, 72, 100
2, 608500, Note_on_c, 0, 66, 100
2, 608500, Note_on_c, 0, 57, 100
2, 608500, Note_on_c, 0, 62, 100
2, 609000, Note_off_c, 0, 62, 64
2, 609000, Note_on_c, 0, 60, 100
2, 609000, Note_off_c, 0, 66, 64
2, 609000, Note_off_c, 0, 69, 64
2, 609000, Note_off_c, 0, 60, 64
2, 609000, Note_on_c, 0, 58, 100
2, 609500, Note_off_c, 0, 58, 64
2, 609500, Note_off_c, 0, 57, 64
2, 609500, Note_on_c, 0, 69, 100
2, 609500, Note_on_c, 0, 70, 100
2, 609500, Note_on_c, 0, 57, 100
2, 609500, Note_off_c, 0, 55, 64
2, 610000, Note_on_c, 0, 55, 100
2, 610000, Note_off_c, 0, 57, 64
2, 610500, Note_off_c, 0, 74, 64
2, 610500, Note_on_c, 0, 67, 100
2, 610500, Note_on_c, 0, 57, 100
2, 610500, Note_on_c, 0, 58, 100
2, 611000, Note_off_c, 0, 58, 64
2, 611000, Note_off_c, 0, 57, 64
2, 611000, Note_off_c, 0, 67, 64
2, 611000, Note_off_c, 0, 70, 64
2, 611000, Note_on_c, 0, 62, 100
2, 611000, Note_on_c, 0, 58, 100
2, 611000, Note_on_c, 0, 57, 100
2, 611000, Note_off_c, 0, 55, 64
2, 611000, Note_on_c, 0, 43, 100
2, 611500, Note_on_c, 0, 55, 100
2, 611500, Note_on_c, 0, 53, 100
2, 611500, Note_on_c, 0, 70, 100
2, 611500, Note_off_c, 0, 62, 64
2, 611500, Note_off_c, 0, 58, 64
2, 611500, Note_off_c, 0, 43, 64
2, 611500, Note_off_c, 0, 55, 64
2, 611500, Note_off_c, 0, 72, 64
2, 611500, Note_on_c, 0, 67, 100
2, 611500, Note_on_c, 0, 58, 100
2, 611500, Note_off_c, 0, 53, 64
2, 611500, Note_off_c, 0, 52, 64
2, 611500, Note_on_c, 0, 40, 100
2, 612000, Note_on_c, 0, 52, 100
2, 612000, Note_on_c, 0, 55, 100
2, 612500, Note_off_c, 0, 70, 64
2, 612500, Note_on_c, 0, 64, 100
2, 612500, Note_off_c, 0, 55, 64
2, 612500, Note_on_c, 0, 60, 100
2, 613000, Note_off_c, 0, 60, 64
2, 613000, Note_off_c, 0, 58, 64
2, 613000, Note_off_c, 0, 64, 64
2, 613000, Note_off_c, 0, 67, 64
2, 613000, Note_on_c, 0, 58, 100
2, 613000, Note_off_c, 0, 57, 64
2, 613500, Note_on_c, 0, 57, 100
2, 613500, Note_on_c, 0, 55, 100
2, 613500, Note_on_c, 0, 67, 100
2, 613500, Note_off_c, 0, 69, 64
2, 613500, Note_off_c, 0, 67, 64
2, 613500, Note_off_c, 0, 58, 64
2, 613500, Note_off_c, 0, 55, 64
2, 613500, Note_on_c, 0, 53, 100
2, 613500, Note_off_c, 0, 40, 64
2, 613500, Note_off_c, 0, 52, 64
2, 614000, Note_off_c, 0, 53, 64
2, 614000, Note_on_c, 0, 55, 100
2, 614500, Note_on_c, 0, 72, 100
2, 614500, Note_off_c, 0, 65, 64
2, 614500, Note_off_c, 0, 55, 64
2, 614500, Note_off_c, 0, 57, 64
2, 615000, Note_on_c, 0, 57, 100
2, 615000, Note_on_c, 0, 55, 100
2, 615000, Note_on_c, 0, 65, 100
2, 615000, Note_on_c, 0, 69, 100
2, 615000, Note_on_c, 0, 60, 100
2, 615000, Note_off_c, 0, 57, 64
2, 615000, Note_off_c, 0, 55, 64
2, 615000, Note_on_c, 0, 53, 100
2, 615000, Note_off_c, 0, 41, 64
2, 615500, Note_off_c, 0, 53, 64
2, 615500, Note_off_c, 0, 51, 64
2, 615500, Note_off_c, 0, 69, 64
2, 615500, Note_off_c, 0, 60, 64
2, 615500, Note_on_c, 0, 57, 100
2, 615500, Note_on_c, 0, 41, 100
2, 615500, Note_on_c, 0, 53, 100
2, 615500, Note_on_c, 0, 70, 100
2, 615500, Note_off_c, 0, 65, 64
2, 615500, Note_off_c, 0, 57, 64
2, 615500, Note_on_c, 0, 51, 100
2, 615500, Note_on_c, 0, 50, 100
2, 615500, Note_off_c, 0, 38, 64
2, 616000, Note_off_c, 0, 50, 64
2, 616000, Note_off_c, 0, 53, 64
2, 616500, Note_on_c, 0, 69, 100
2, 616500, Note_on_c, 0, 62, 100
2, 616500, Note_on_c, 0, 53, 100
2, 616500, Note_on_c, 0, 58, 100
2, 617000, Note_off_c, 0, 58, 64
2, 617000, Note_on_c, 0, 57, 100
2, 617000, Note_off_c, 0, 62, 64
2, 617000, Note_on_c, 0, 65, 100
2, 617000, Note_off_c, 0, 57, 64
2, 617000, Note_on_c, 0, 55, 100
2, 617500, Note_off_c, 0, 55, 64
2, 617500, Note_off_c, 0, 53, 64
2, 617500, Note_off_c, 0, 65, 64
2, 617500, Note_on_c, 0, 67, 100
2, 617500, Note_on_c, 0, 65, 100
2, 617500, Note_on_c, 0, 57, 100
2, 617500, Note_on_c, 0, 53, 100
2, 617500, Note_on_c, 0, 52, 100
2, 617500, Note_on_c, 0, 38, 100
2, 617500, Note_on_c, 0, 50, 100
2, 618000, Note_off_c, 0, 52, 64
2, 618000, Note_off_c, 0, 53, 64
2, 618500, Note_off_c, 0, 70, 64
2, 618500, Note_on_c, 0, 64, 100
2, 618500, Note_on_c, 0, 53, 100
2, 618500, Note_on_c, 0, 55, 100
2, 619000, Note_off_c, 0, 55, 64
2, 619000, Note_off_c, 0, 53, 64
2, 619000, Note_off_c, 0, 64, 64
2, 619000, Note_off_c, 0, 67, 64
2, 619000, Note_on_c, 0, 70, 100
2, 619000, Note_on_c, 0, 55, 100
2, 619000, Note_on_c, 0, 53, 100
2, 619000, Note_on_c, 0, 52, 100
2, 619000, Note_on_c, 0, 40, 100
2, 619500, Note_off_c, 0, 52, 64
2, 619500, Note_off_c, 0, 50, 64
2, 619500, Note_on_c, 0, 67, 100
2, 619500, Note_off_c, 0, 70, 64
2, 619500, Note_off_c, 0, 55, 64
2, 619500, Note_off_c, 0, 69, 64
2, 619500, Note_on_c, 0, 64, 100
2, 619500, Note_off_c, 0, 57, 64
2, 619500, Note_on_c, 0, 50, 100
2, 619500, Note_on_c, 0, 49, 100
2, 619500, Note_off_c, 0, 40, 64
2, 619500, Note_on_c, 0, 37, 100
2, 619500, Note_on_c, 0, 52, 100
2, 620000, Note_off_c, 0, 67, 64
2, 620000, Note_on_c, 0, 69, 100
2, 620500, Note_off_c, 0, 69, 64
2, 620500, Note_on_c, 0, 67, 100
2, 620500, Note_off_c, 0, 49, 64
2, 620500, Note_off_c, 0, 50, 64
2, 621000, Note_off_c, 0, 67, 64
2, 621000, Note_off_c, 0, 65, 64
2, 621000, Note_on_c, 0, 50, 100
2, 621000, Note_on_c, 0, 65, 100
2, 621000, Note_off_c, 0, 64, 64
2, 621000, Note_off_c, 0, 52, 64
2, 621500, Note_on_c, 0, 64, 100
2, 621500, Note_off_c, 0, 65, 64
2, 621500, Note_on_c, 0, 52, 100
2, 621500, Note_on_c, 0, 65, 100
2, 621500, Note_on_c, 0, 67, 100
2, 621500, Note_off_c, 0, 64, 64
2, 621500, Note_on_c, 0, 57, 100
2, 621500, Note_on_c, 0, 45, 100
2, 621500, Note_off_c, 0, 37, 64
2, 621500, Note_on_c, 0, 49, 100
2, 622000, Note_off_c, 0, 67, 64
2, 622000, Note_off_c, 0, 65, 64
2, 622500, Note_on_c, 0, 65, 100
2, 622500, Note_on_c, 0, 67, 100
2, 623000, Note_off_c, 0, 67, 64
2, 623000, Note_on_c, 0, 69, 100
2, 623500, Note_off_c, 0, 69, 64
2, 623500, Note_on_c, 0, 67, 100
2, 623500, Note_off_c, 0, 45, 64
2, 623500, Note_off_c, 0, 49, 64
2, 624000, Note_off_c, 0, 67, 64
2, 624000, Note_on_c, 0, 69, 100
2, 624000, Note_on_c, 0, 49, 100
2, 624000, Note_off_c, 0, 69, 64
2, 624000, Note_off_c, 0, 65, 64
2, 624000, Note_off_c, 0, 57, 64
2, 624000, Note_off_c, 0, 50, 64
2, 624000, Note_off_c, 0, 38, 64
2, 624500, Note_on_c, 0, 65, 100
2, 624500, Note_on_c, 0, 69, 100
2, 625000, Note_off_c, 0, 69, 64
2, 625000, Note_on_c, 0, 64, 100
2, 625500, Note_off_c, 0, 64, 64
2, 625500, Note_on_c, 0, 69, 100
2, 626000, Note_off_c, 0, 69, 64
2, 626000, Note_on_c, 0, 62, 100
2, 626000, Note_on_c, 0, 57, 100
2, 626000, Note_on_c, 0, 50, 100
2, 626000, Note_on_c, 0, 38, 100
2, 626500, Note_off_c, 0, 62, 64
2, 626500, Note_on_c, 0, 69, 100
2, 626500, Note_off_c, 0, 69, 64
2, 626500, Note_on_c, 0, 69, 100
2, 626500, Note_on_c, 0, 61, 100
2, 626500, Note_off_c, 0, 57, 64
2, 626500, Note_on_c, 0, 45, 100
2, 626500, Note_on_c, 0, 33, 100
2, 627000, Note_off_c, 0, 61, 64
2, 627000, Note_off_c, 0, 69, 64
2, 627500, Note_on_c, 0, 69, 100
2, 627500, Note_on_c, 0, 59, 100
2, 628000, Note_off_c, 0, 69, 64
2, 628000, Note_off_c, 0, 59, 64
2, 628500, Note_on_c, 0, 69, 100
2, 628500, Note_on_c, 0, 79, 100
2, 628500, Note_on_c, 0, 61, 100
2, 628500, Note_on_c, 0, 57, 100
2, 628500, Note_off_c, 0, 45, 64
2, 628500, Note_off_c, 0, 33, 64
2, 629000, Note_off_c, 0, 79, 64
2, 629000, Note_off_c, 0, 69, 64
2, 629000, Note_off_c, 0, 61, 64
2, 629000, Note_on_c, 0, 69, 100
2, 629000, Note_off_c, 0, 69, 64
2, 629000, Note_off_c, 0, 77, 64
2, 629000, Note_on_c, 0, 62, 100
2, 629000, Note_off_c, 0, 57, 64
2, 629000, Note_off_c, 0, 38, 64
2, 629000, Note_on_c, 0, 26, 100
2, 629500, Note_on_c, 0, 77, 100
2, 629500, Note_on_c, 0, 69, 100
2, 629500, Note_off_c, 0, 62, 64
2, 630000, Note_off_c, 0, 69, 64
2, 630000, Note_off_c, 0, 76, 64
2, 630000, Note_on_c, 0, 61, 100
2, 630500, Note_on_c, 0, 76, 100
2, 630500, Note_on_c, 0, 69, 100
2, 630500, Note_off_c, 0, 61, 64
2, 631000, Note_off_c, 0, 69, 64
2, 631000, Note_on_c, 0, 74, 100
2, 631000, Note_on_c, 0, 62, 100
2, 631000, Note_on_c, 0, 57, 100
2, 631000, Note_on_c, 0, 38, 100
2, 631000, Note_off_c, 0, 26, 64
2, 631500, Note_off_c, 0, 74, 64
2, 631500, Note_on_c, 0, 69, 100
2, 631500, Note_off_c, 0, 62, 64
2, 631500, Note_off_c, 0, 69, 64
2, 631500, Note_on_c, 0, 69, 100
2, 631500, Note_on_c, 0, 73, 100
2, 631500, Note_on_c, 0, 64, 100
2, 631500, Note_off_c, 0, 57, 64
2, 631500, Note_on_c, 0, 45, 100
2, 631500, Note_on_c, 0, 33, 100
2, 632000, Note_off_c, 0, 73, 64
2, 632000, Note_off_c, 0, 69, 64
2, 632000, Note_off_c, 0, 64, 64
2, 632500, Note_on_c, 0, 69, 100
2, 632500, Note_on_c, 0, 71, 100
2, 632500, Note_on_c, 0, 62, 100
2, 633000, Note_off_c, 0, 71, 64
2, 633000, Note_off_c, 0, 69, 64
2, 633000, Note_off_c, 0, 62, 64
2, 633500, Note_on_c, 0, 69, 100
2, 633500, Note_on_c, 0, 73, 100
2, 633500, Note_on_c, 0, 64, 100
2, 633500, Note_on_c, 0, 57, 100
2, 633500, Note_off_c, 0, 45, 64
2, 633500, Note_off_c, 0, 33, 64
2, 634000, Note_off_c, 0, 73, 64
2, 634000, Note_off_c, 0, 69, 64
2, 634000, Note_off_c, 0, 64, 64
2, 634000, Note_on_c, 0, 69, 100
2, 634000, Note_off_c, 0, 69, 64
2, 634000, Note_on_c, 0, 74, 100
2, 634000, Note_off_c, 0, 65, 64
2, 634000, Note_off_c, 0, 57, 64
2, 634000, Note_off_c, 0, 50, 64
2, 634000, Note_off_c, 0, 38, 64
2, 634500, Note_off_c, 0, 74, 64
2, 634500, Note_on_c, 0, 69, 100
2, 634500, Note_on_c, 0, 65, 100
2, 635000, Note_off_c, 0, 69, 64
2, 635000, Note_on_c, 0, 73, 100
2, 635000, Note_on_c, 0, 64, 100
2, 635500, Note_off_c, 0, 73, 64
2, 635500, Note_on_c, 0, 69, 100
2, 635500, Note_off_c, 0, 64, 64
2, 636000, Note_off_c, 0, 69, 64
2, 636000, Note_on_c, 0, 74, 100
2, 636000, Note_off_c, 0, 65, 64
2, 636000, Note_on_c, 0, 57, 100
2, 636000, Note_on_c, 0, 50, 100
2, 636000, Note_on_c, 0, 38, 100
2, 636500, Note_off_c, 0, 74, 64
2, 636500, Note_on_c, 0, 69, 100
2, 636500, Note_on_c, 0, 65, 100
2, 636500, Note_off_c, 0, 69, 64
2, 636500, Note_on_c, 0, 69, 100
2, 636500, Note_off_c, 0, 76, 64
2, 636500, Note_on_c, 0, 67, 100
2, 636500, Note_off_c, 0, 57, 64
2, 636500, Note_on_c, 0, 45, 100
2, 637000, Note_on_c, 0, 76, 100
2, 637000, Note_off_c, 0, 69, 64
2, 637000, Note_off_c, 0, 67, 64
2, 637500, Note_on_c, 0, 69, 100
2, 637500, Note_on_c, 0, 74, 100
2, 637500, Note_off_c, 0, 65, 64
2, 638000, Note_off_c, 0, 74, 64
2, 638000, Note_off_c, 0, 69, 64
2, 638000, Note_on_c, 0, 65, 100
2, 638500, Note_on_c, 0, 69, 100
2, 638500, Note_on_c, 0, 73, 100
2, 638500, Note_on_c, 0, 64, 100
2, 638500, Note_on_c, 0, 57, 100
2, 638500, Note_off_c, 0, 45, 64
2, 639000, Note_off_c, 0, 73, 64
2, 639000, Note_off_c, 0, 69, 64
2, 639000, Note_off_c, 0, 64, 64
2, 639000, Note_on_c, 0, 69, 100
2, 639000, Note_off_c, 0, 69, 64
2, 639000, Note_on_c, 0, 74, 100
2, 639000, Note_off_c, 0, 65, 64
2, 639000, Note_off_c, 0, 57, 64
2, 639000, Note_on_c, 0, 62, 100
2, 639000, Note_off_c, 0, 50, 64
2, 639500, Note_off_c, 0, 74, 64
2, 639500, Note_on_c, 0, 69, 100
2, 639500, Note_on_c, 0, 65, 100
2, 640000, Note_off_c, 0, 69, 64
2, 640000, Note_off_c, 0, 76, 64
2, 640000, Note_on_c, 0, 64, 100
2, 640500, Note_on_c, 0, 76, 100
2, 640500, Note_on_c, 0, 69, 100
2, 640500, Note_off_c, 0, 64, 64
2, 641000, Note_off_c, 0, 69, 64
2, 641000, Note_off_c, 0, 77, 64
2, 641000, Note_off_c, 0, 62, 64
2, 641000, Note_on_c, 0, 57, 100
2, 641000, Note_on_c, 0, 50, 100
2, 641500, Note_on_c, 0, 77, 100
2, 641500, Note_on_c, 0, 69, 100
2, 641500, Note_on_c, 0, 62, 100
2, 641500, Note_off_c, 0, 69, 64
2, 641500, Note_on_c, 0, 69, 100
2, 641500, Note_off_c, 0, 76, 64
2, 641500, Note_on_c, 0, 61, 100
2, 641500, Note_off_c, 0, 57, 64
2, 641500, Note_on_c, 0, 45, 100
2, 642000, Note_off_c, 0, 61, 64
2, 642000, Note_on_c, 0, 57, 100
2, 642000, Note_on_c, 0, 76, 100
2, 642000, Note_off_c, 0, 69, 64
2, 642000, Note_off_c, 0, 57, 64
2, 642000, Note_on_c, 0, 61, 100
2, 642500, Note_off_c, 0, 61, 64
2, 642500, Note_on_c, 0, 64, 100
2, 642500, Note_on_c, 0, 69, 100
2, 642500, Note_off_c, 0, 64, 64
2, 642500, Note_off_c, 0, 69, 64
2, 642500, Note_on_c, 0, 57, 100
2, 642500, Note_off_c, 0, 45, 64
2, 643000, Note_on_c, 0, 69, 100
2, 643000, Note_on_c, 0, 67, 100
2, 643500, Note_off_c, 0, 67, 64
2, 643500, Note_off_c, 0, 65, 64
2, 643500, Note_off_c, 0, 50, 64
2, 644000, Note_off_c, 0, 62, 64
2, 644500, Note_on_c, 0, 62, 100
2, 644500, Note_on_c, 0, 65, 100
2, 645000, Note_off_c, 0, 65, 64
2, 645000, Note_off_c, 0, 69, 64
2, 645500, Note_on_c, 0, 69, 100
2, 645500, Note_on_c, 0, 74, 100
2, 645500, Note_on_c, 0, 50, 100
2, 646000, Note_off_c, 0, 74, 64
2, 646000, Note_off_c, 0, 72, 64
2, 646500, Note_on_c, 0, 72, 100
2, 646500, Note_on_c, 0, 70, 100
2, 646500, Note_on_c, 0, 55, 100
2, 647000, Note_on_c, 0, 65, 100
2, 647000, Note_off_c, 0, 55, 64
2, 647500, Note_on_c, 0, 55, 100
2, 647500, Note_on_c, 0, 58, 100
2, 648000, Note_off_c, 0, 58, 64
2, 648000, Note_off_c, 0, 62, 64
2, 648500, Note_on_c, 0, 62, 100
2, 648500, Note_on_c, 0, 67, 100
2, 648500, Note_off_c, 0, 55, 64
2, 649000, Note_off_c, 0, 67, 64
2, 649000, Note_off_c, 0, 65, 64
2, 649500, Note_on_c, 0, 65, 100
2, 649500, Note_on_c, 0, 64, 100
2, 649500, Note_off_c, 0, 48, 64
2, 650000, Note_off_c, 0, 70, 64
2, 650000, Note_on_c, 0, 60, 100
2, 650500, Note_off_c, 0, 60, 64
2, 650500, Note_off_c, 0, 64, 64
2, 651000, Note_on_c, 0, 64, 100
2, 651000, Note_on_c, 0, 67, 100
2, 651500, Note_off_c, 0, 67, 64
2, 651500, Note_off_c, 0, 72, 64
2, 651500, Note_on_c, 0, 48, 100
2, 652000, Note_on_c, 0, 72, 100
2, 652000, Note_on_c, 0, 70, 100
2, 652500, Note_off_c, 0, 70, 64
2, 652500, Note_off_c, 0, 69, 64
2, 652500, Note_off_c, 0, 53, 64
2, 653000, Note_off_c, 0, 64, 64
2, 653000, Note_on_c, 0, 53, 100
2, 653500, Note_off_c, 0, 53, 64
2, 653500, Note_off_c, 0, 57, 64
2, 654000, Note_on_c, 0, 57, 100
2, 654000, Note_on_c, 0, 60, 100
2, 654500, Note_off_c, 0, 60, 64
2, 654500, Note_off_c, 0, 65, 64
2, 654500, Note_on_c, 0, 53, 100
2, 655000, Note_on_c, 0, 65, 100
2, 655000, Note_on_c, 0, 64, 100
2, 655500, Note_off_c, 0, 64, 64
2, 655500, Note_off_c, 0, 62, 64
2, 655500, Note_on_c, 0, 58, 100
2, 656000, Note_on_c, 0, 69, 100
2, 656000, Note_off_c, 0, 58, 64
2, 656500, Note_on_c, 0, 58, 100
2, 656500, Note_on_c, 0, 62, 100
2, 657000, Note_off_c, 0, 62, 64
2, 657000, Note_off_c, 0, 65, 64
2, 657500, Note_on_c, 0, 65, 100
2, 657500, Note_on_c, 0, 70, 100
2, 657500, Note_off_c, 0, 58, 64
2, 658000, Note_off_c, 0, 70, 64
2, 658000, Note_off_c, 0, 69, 64
2, 658500, Note_on_c, 0, 69, 100
2, 658500, Note_on_c, 0, 67, 100
2, 658500, Note_off_c, 0, 52, 64
2, 659000, Note_on_c, 0, 62, 100
2, 659000, Note_on_c, 0, 52, 100
2, 659500, Note_off_c, 0, 52, 64
2, 659500, Note_on_c, 0, 55, 100
2, 660000, Note_off_c, 0, 55, 64
2, 660000, Note_on_c, 0, 59, 100
2, 660500, Note_off_c, 0, 59, 64
2, 660500, Note_on_c, 0, 64, 100
2, 660500, Note_on_c, 0, 52, 100
2, 661000, Note_off_c, 0, 64, 64
2, 661000, Note_off_c, 0, 62, 64
2, 661500, Note_on_c, 0, 62, 100
2, 661500, Note_on_c, 0, 61, 100
2, 661500, Note_off_c, 0, 57, 64
2, 662000, Note_off_c, 0, 67, 64
2, 662000, Note_on_c, 0, 57, 100
2, 662500, Note_off_c, 0, 57, 64
2, 662500, Note_off_c, 0, 61, 64
2, 663000, Note_on_c, 0, 61, 100
2, 663000, Note_on_c, 0, 64, 100
2, 663500, Note_off_c, 0, 64, 64
2, 663500, Note_off_c, 0, 69, 64
2, 663500, Note_on_c, 0, 57, 100
2, 664000, Note_on_c, 0, 69, 100
2, 664000, Note_on_c, 0, 67, 100
2, 664500, Note_off_c, 0, 67, 64
2, 664500, Note_off_c, 0, 65, 64
2, 664500, Note_off_c, 0, 61, 64
2, 664500, Note_off_c, 0, 50, 64
2, 665000, Note_off_c, 0, 62, 64
2, 665500, Note_on_c, 0, 62, 100
2, 665500, Note_on_c, 0, 64, 100
2, 666000, Note_off_c, 0, 64, 64
2, 666000, Note_on_c, 0, 65, 100
2, 666500, Note_off_c, 0, 65, 64
2, 666500, Note_on_c, 0, 67, 100
2, 666500, Note_on_c, 0, 50, 100
2, 667000, Note_off_c, 0, 67, 64
2, 667000, Note_off_c, 0, 69, 64
2, 667500, Note_on_c, 0, 69, 100
2, 667500, Note_on_c, 0, 70, 100
2, 667500, Note_on_c, 0, 55, 100
2, 668000, Note_on_c, 0, 65, 100
2, 668000, Note_on_c, 0, 64, 100
2, 668500, Note_off_c, 0, 64, 64
2, 668500, Note_off_c, 0, 62, 64
2, 669000, Note_on_c, 0, 62, 100
2, 669000, Note_on_c, 0, 60, 100
2, 669500, Note_off_c, 0, 60, 64
2, 669500, Note_on_c, 0, 58, 100
2, 669500, Note_off_c, 0, 55, 64
2, 670000, Note_off_c, 0, 58, 64
2, 670000, Note_off_c, 0, 57, 64
2, 670500, Note_on_c, 0, 57, 100
2, 670500, Note_on_c, 0, 67, 100
2, 670500, Note_off_c, 0, 52, 64
2, 671000, Note_off_c, 0, 70, 64
2, 671000, Note_on_c, 0, 64, 100
2, 671500, Note_off_c, 0, 64, 64
2, 671500, Note_off_c, 0, 65, 64
2, 672000, Note_on_c, 0, 65, 100
2, 672000, Note_off_c, 0, 67, 64
2, 672500, Note_on_c, 0, 67, 100
2, 672500, Note_off_c, 0, 69, 64
2, 672500, Note_on_c, 0, 52, 100
2, 673000, Note_on_c, 0, 69, 100
2, 673000, Note_on_c, 0, 71, 100
2, 673500, Note_off_c, 0, 71, 64
2, 673500, Note_off_c, 0, 72, 64
2, 673500, Note_off_c, 0, 57, 64
2, 674000, Note_off_c, 0, 67, 64
2, 674000, Note_off_c, 0, 65, 64
2, 674500, Note_on_c, 0, 65, 100
2, 674500, Note_on_c, 0, 64, 100
2, 675000, Note_off_c, 0, 64, 64
2, 675000, Note_off_c, 0, 62, 64
2, 675500, Note_on_c, 0, 62, 100
2, 675500, Note_on_c, 0, 60, 100
2, 675500, Note_on_c, 0, 57, 100
2, 676000, Note_off_c, 0, 60, 64
2, 676000, Note_on_c, 0, 58, 100
2, 676500, Note_off_c, 0, 58, 64
2, 676500, Note_off_c, 0, 69, 64
2, 676500, Note_off_c, 0, 53, 64
2, 677000, Note_on_c, 0, 72, 100
2, 677000, Note_off_c, 0, 65, 64
2, 677500, Note_on_c, 0, 65, 100
2, 677500, Note_on_c, 0, 67, 100
2, 678000, Note_off_c, 0, 67, 64
2, 678000, Note_on_c, 0, 69, 100
2, 678500, Note_off_c, 0, 69, 64
2, 678500, Note_on_c, 0, 71, 100
2, 678500, Note_on_c, 0, 53, 100
2, 679000, Note_off_c, 0, 71, 64
2, 679000, Note_on_c, 0, 73, 100
2, 679500, Note_off_c, 0, 73, 64
2, 679500, Note_on_c, 0, 74, 100
2, 679500, Note_on_c, 0, 58, 100
2, 680000, Note_on_c, 0, 69, 100
2, 680000, Note_on_c, 0, 67, 100
2, 680500, Note_off_c, 0, 67, 64
2, 680500, Note_off_c, 0, 65, 64
2, 681000, Note_on_c, 0, 65, 100
2, 681000, Note_on_c, 0, 64, 100
2, 681000, Note_off_c, 0, 74, 64
2, 681500, Note_off_c, 0, 64, 64
2, 681500, Note_off_c, 0, 62, 64
2, 681500, Note_off_c, 0, 65, 64
2, 681500, Note_on_c, 0, 67, 100
2, 681500, Note_off_c, 0, 58, 64
2, 682000, Note_on_c, 0, 62, 100
2, 682000, Note_on_c, 0, 61, 100
2, 682000, Note_off_c, 0, 67, 64
2, 682000, Note_off_c, 0, 69, 64
2, 682500, Note_off_c, 0, 61, 64
2, 682500, Note_off_c, 0, 62, 64
2, 682500, Note_on_c, 0, 69, 100
2, 682500, Note_on_c, 0, 70, 100
2, 682500, Note_on_c, 0, 55, 100
2, 683000, Note_on_c, 0, 62, 100
2, 683000, Note_on_c, 0, 60, 100
2, 683000, Note_off_c, 0, 70, 64
2, 683000, Note_off_c, 0, 69, 64
2, 683500, Note_off_c, 0, 60, 64
2, 683500, Note_on_c, 0, 58, 100
2, 683500, Note_on_c, 0, 69, 100
2, 683500, Note_on_c, 0, 67, 100
2, 684000, Note_off_c, 0, 58, 64
2, 684000, Note_off_c, 0, 57, 64
2, 684000, Note_off_c, 0, 67, 64
2, 684000, Note_on_c, 0, 65, 100
2, 684500, Note_on_c, 0, 57, 100
2, 684500, Note_off_c, 0, 55, 64
2, 684500, Note_off_c, 0, 65, 64
2, 684500, Note_on_c, 0, 64, 100
2, 685000, Note_on_c, 0, 55, 100
2, 685000, Note_off_c, 0, 53, 64
2, 685000, Note_off_c, 0, 64, 64
2, 685000, Note_off_c, 0, 62, 64
2, 685500, Note_on_c, 0, 53, 100
2, 685500, Note_off_c, 0, 52, 64
2, 685500, Note_on_c, 0, 62, 100
2, 685500, Note_on_c, 0, 61, 100
2, 685500, Note_off_c, 0, 57, 64
2, 686000, Note_on_c, 0, 52, 100
2, 686000, Note_off_c, 0, 50, 64
2, 686000, Note_off_c, 0, 61, 64
2, 686000, Note_on_c, 0, 59, 100
2, 686500, Note_on_c, 0, 50, 100
2, 686500, Note_off_c, 0, 52, 64
2, 686500, Note_off_c, 0, 59, 64
2, 686500, Note_on_c, 0, 61, 100
2, 687000, Note_on_c, 0, 52, 100
2, 687000, Note_off_c, 0, 53, 64
2, 687000, Note_off_c, 0, 61, 64
2, 687000, Note_off_c, 0, 62, 64
2, 687500, Note_on_c, 0, 53, 100
2, 687500, Note_off_c, 0, 52, 64
2, 687500, Note_on_c, 0, 62, 100
2, 687500, Note_on_c, 0, 61, 100
2, 687500, Note_on_c, 0, 57, 100
2, 688000, Note_on_c, 0, 52, 100
2, 688000, Note_off_c, 0, 53, 64
2, 688000, Note_off_c, 0, 61, 64
2, 688000, Note_off_c, 0, 62, 64
2, 688500, Note_on_c, 0, 53, 100
2, 688500, Note_off_c, 0, 55, 64
2, 688500, Note_on_c, 0, 62, 100
2, 688500, Note_on_c, 0, 64, 100
2, 688500, Note_on_c, 0, 45, 100
2, 689000, Note_on_c, 0, 55, 100
2, 689000, Note_off_c, 0, 53, 64
2, 689000, Note_off_c, 0, 64, 64
2, 689000, Note_off_c, 0, 62, 64
2, 689500, Note_on_c, 0, 53, 100
2, 689500, Note_off_c, 0, 55, 64
2, 689500, Note_on_c, 0, 62, 100
2, 689500, Note_on_c, 0, 64, 100
2, 690000, Note_on_c, 0, 55, 100
2, 690000, Note_off_c, 0, 57, 64
2, 690000, Note_off_c, 0, 64, 64
2, 690000, Note_on_c, 0, 65, 100
2, 690500, Note_on_c, 0, 57, 100
2, 690500, Note_off_c, 0, 55, 64
2, 690500, Note_off_c, 0, 65, 64
2, 690500, Note_on_c, 0, 64, 100
2, 690500, Note_off_c, 0, 45, 64
2, 691000, Note_on_c, 0, 55, 100
2, 691000, Note_off_c, 0, 57, 64
2, 691000, Note_off_c, 0, 64, 64
2, 691000, Note_on_c, 0, 65, 100
2, 691500, Note_on_c, 0, 57, 100
2, 691500, Note_off_c, 0, 53, 64
2, 691500, Note_off_c, 0, 65, 64
2, 691500, Note_off_c, 0, 62, 64
2, 691500, Note_off_c, 0, 50, 64
2, 691500, Note_off_c, 0, 38, 64
2, 692500, Note_on_c, 0, 53, 100
2, 692500, Note_on_c, 0, 62, 100
2, 692500, Note_off_c, 0, 57, 64
2, 693500, Note_on_c, 0, 57, 100
2, 693500, Note_on_c, 0, 58, 100
2, 693500, Note_off_c, 0, 57, 64
2, 693500, Note_off_c, 0, 53, 64
2, 693500, Note_on_c, 0, 50, 100
2, 693500, Note_on_c, 0, 38, 100
2, 695000, Note_off_c, 0, 55, 64
2, 695000, Note_off_c, 0, 50, 64
2, 695000, Note_off_c, 0, 38, 64
2, 695000, Note_on_c, 0, 26, 100
2, 696500, Note_off_c, 0, 58, 64
2, 696500, Note_on_c, 0, 57, 100
2, 697500, Note_off_c, 0, 57, 64
2, 697500, Note_off_c, 0, 62, 64
2, 697500, Note_on_c, 0, 55, 100
2, 697500, Note_on_c, 0, 50, 100
2, 697500, Note_on_c, 0, 38, 100
2, 697500, Note_off_c, 0, 26, 64
2, 699000, Note_on_c, 0, 53, 100
2, 699000, Note_on_c, 0, 57, 100
2, 699000, Note_off_c, 0, 50, 64
2, 699000, Note_off_c, 0, 38, 64
2, 700500, Note_on_c, 0, 62, 100
2, 700500, Note_off_c, 0, 57, 64
2, 701500, Note_on_c, 0, 57, 100
2, 701500, Note_on_c, 0, 58, 100
2, 701500, Note_off_c, 0, 53, 64
2, 701500, Note_off_c, 0, 57, 64
2, 701500, Note_on_c, 0, 50, 100
2, 701500, Note_on_c, 0, 38, 100
2, 703000, Note_off_c, 0, 50, 64
2, 703000, Note_off_c, 0, 55, 64
2, 703000, Note_off_c, 0, 38, 64
2, 703000, Note_on_c, 0, 26, 100
2, 704500, Note_off_c, 0, 58, 64
2, 704500, Note_on_c, 0, 57, 100
2, 705500, Note_off_c, 0, 57, 64
2, 705500, Note_off_c, 0, 62, 64
2, 705500, Note_on_c, 0, 50, 100
2, 705500, Note_on_c, 0, 55, 100
2, 705500, Note_on_c, 0, 53, 100
2, 705500, Note_on_c, 0, 38, 100
2, 705500, Note_off_c, 0, 26, 64
2, 706500, Note_off_c, 0, 53, 64
2, 706500, Note_off_c, 0, 50, 64
2, 706500, Note_off_c, 0, 38, 64
2, 706500, Note_on_c, 0, 59, 100
2, 706500, Note_on_c, 0, 50, 100
2, 706500, Note_off_c, 0, 55, 64
2, 706500, Note_on_c, 0, 43, 100
2, 708000, Note_on_c, 0, 62, 100
2, 708000, Note_off_c, 0, 59, 64
2, 709000, Note_on_c, 0, 59, 100
2, 709000, Note_on_c, 0, 67, 100
2, 709000, Note_off_c, 0, 59, 64
2, 709000, Note_off_c, 0, 50, 64
2, 709000, Note_off_c, 0, 52, 64
2, 709000, Note_on_c, 0, 55, 100
2, 709000, Note_off_c, 0, 43, 64
2, 709000, Note_on_c, 0, 40, 100
2, 710000, Note_on_c, 0, 59, 100
2, 710000, Note_on_c, 0, 52, 100
2, 710000, Note_off_c, 0, 40, 64
2, 710000, Note_on_c, 0, 61, 100
2, 710000, Note_off_c, 0, 52, 64
2, 710000, Note_on_c, 0, 57, 100
2, 710000, Note_on_c, 0, 45, 100
2, 711500, Note_off_c, 0, 67, 64
2, 711500, Note_off_c, 0, 61, 64
2, 712500, Note_on_c, 0, 61, 100
2, 712500, Note_off_c, 0, 69, 64
2, 712500, Note_off_c, 0, 61, 64
2, 712500, Note_on_c, 0, 64, 100
2, 712500, Note_on_c, 0, 52, 100
2, 712500, Note_off_c, 0, 57, 64
2, 712500, Note_off_c, 0, 49, 64
2, 712500, Note_off_c, 0, 45, 64
2, 712500, Note_on_c, 0, 37, 100
2, 713500, Note_on_c, 0, 69, 100
2, 713500, Note_off_c, 0, 64, 64
2, 713500, Note_off_c, 0, 52, 64
2, 713500, Note_on_c, 0, 49, 100
2, 713500, Note_off_c, 0, 37, 64
2, 713500, Note_on_c, 0, 65, 100
2, 713500, Note_off_c, 0, 62, 64
2, 713500, Note_on_c, 0, 57, 100
2, 713500, Note_on_c, 0, 50, 100
2, 713500, Note_on_c, 0, 38, 100
2, 714500, Note_off_c, 0, 65, 64
2, 714500, Note_on_c, 0, 62, 100
2, 714500, Note_off_c, 0, 57, 64
2, 714500, Note_off_c, 0, 50, 64
2, 714500, Note_off_c, 0, 38, 64
2, 714500, Note_off_c, 0, 62, 64
2, 714500, Note_on_c, 0, 57, 100
2, 714500, Note_on_c, 0, 53, 100
2, 714500, Note_off_c, 0, 41, 64
2, 714500, Note_on_c, 0, 29, 100
2, 715500, Note_on_c, 0, 62, 100
2, 715500, Note_off_c, 0, 57, 64
2, 715500, Note_off_c, 0, 53, 64
2, 715500, Note_on_c, 0, 41, 100
2, 715500, Note_off_c, 0, 29, 64
2, 715500, Note_on_c, 0, 61, 100
2, 715500, Note_on_c, 0, 57, 100
2, 715500, Note_on_c, 0, 52, 100
2, 715500, Note_on_c, 0, 45, 100
2, 715500, Note_on_c, 0, 33, 100
2, 715500, Note_off_c, 0, 61, 64
2, 715500, Note_off_c, 0, 62, 64
2, 715500, Note_on_c, 0, 62, 100
2, 715500, Note_on_c, 0, 61, 100
2, 715500, Note_off_c, 0, 57, 64
2, 715500, Note_off_c, 0, 52, 64
2, 715500, Note_off_c, 0, 45, 64
2, 715500, Note_off_c, 0, 33, 64
2, 715500, Note_off_c, 0, 61, 64
2, 715500, Note_off_c, 0, 62, 64
2, 715500, Note_on_c, 0, 57, 100
2, 715500, Note_on_c, 0, 53, 100
2, 715500, Note_on_c, 0, 38, 100
2, 715500, Note_on_c, 0, 26, 100
2, 719000, Note_on_c, 0, 62, 100
2, 719000, Note_on_c, 0, 65, 100
2, 719000, Note_off_c, 0, 57, 64
2, 719000, Note_off_c, 0, 53, 64
2, 719000, Note_off_c, 0, 38, 64
2, 719000, Note_off_c, 0, 26, 64
2, 720000, Note_off_c, 0, 65, 64
2, 720000, Note_on_c, 0, 70, 100
2, 720000, Note_on_c, 0, 65, 100
2, 720000, Note_off_c, 0, 62, 64
2, 720000, Note_on_c, 0, 58, 100
2, 720000, Note_on_c, 0, 46, 100
2, 721500, Note_off_c, 0, 70, 64
2, 721500, Note_off_c, 0, 69, 64
2, 722500, Note_on_c, 0, 69, 100
2, 722500, Note_on_c, 0, 70, 100
2, 722500, Note_off_c, 0, 65, 64
2, 722500, Note_on_c, 0, 62, 100
2, 722500, Note_off_c, 0, 58, 64
2, 722500, Note_off_c, 0, 46, 64
2, 723500, Note_off_c, 0, 70, 64
2, 723500, Note_off_c, 0, 62, 64
2, 723500, Note_on_c, 0, 65, 100
2, 723500, Note_on_c, 0, 58, 100
2, 723500, Note_on_c, 0, 57, 100
2, 723500, Note_on_c, 0, 45, 100
2, 725000, Note_on_c, 0, 62, 100
2, 725000, Note_off_c, 0, 65, 64
2, 726000, Note_on_c, 0, 65, 100
2, 726000, Note_on_c, 0, 70, 100
2, 726000, Note_off_c, 0, 65, 64
2, 726000, Note_off_c, 0, 58, 64
2, 726000, Note_off_c, 0, 57, 64
2, 726000, Note_off_c, 0, 45, 64
2, 727000, Note_off_c, 0, 70, 64
2, 727000, Note_on_c, 0, 70, 100
2, 727000, Note_on_c, 0, 67, 100
2, 727000, Note_off_c, 0, 62, 64
2, 727000, Note_off_c, 0, 55, 64
2, 727000, Note_on_c, 0, 43, 100
2, 728500, Note_off_c, 0, 70, 64
2, 728500, Note_off_c, 0, 69, 64
2, 729500, Note_on_c, 0, 69, 100
2, 729500, Note_on_c, 0, 70, 100
2, 729500, Note_off_c, 0, 67, 64
2, 729500, Note_on_c, 0, 62, 100
2, 729500, Note_on_c, 0, 55, 100
2, 729500, Note_off_c, 0, 43, 64
2, 730500, Note_off_c, 0, 70, 64
2, 730500, Note_off_c, 0, 62, 64
2, 730500, Note_on_c, 0, 70, 100
2, 730500, Note_on_c, 0, 65, 100
2, 730500, Note_on_c, 0, 53, 100
2, 730500, Note_off_c, 0, 41, 64
2, 732000, Note_on_c, 0, 62, 100
2, 732000, Note_off_c, 0, 65, 64
2, 733000, Note_on_c, 0, 65, 100
2, 733000, Note_off_c, 0, 70, 64
2, 733000, Note_off_c, 0, 65, 64
2, 733000, Note_off_c, 0, 53, 64
2, 733000, Note_on_c, 0, 41, 100
2, 734000, Note_on_c, 0, 70, 100
2, 734000, Note_off_c, 0, 72, 64
2, 734000, Note_off_c, 0, 70, 64
2, 734000, Note_on_c, 0, 67, 100
2, 734000, Note_off_c, 0, 51, 64
2, 734000, Note_on_c, 0, 39, 100
2, 735500, Note_on_c, 0, 72, 100
2, 735500, Note_on_c, 0, 70, 100
2, 736500, Note_off_c, 0, 70, 64
2, 736500, Note_off_c, 0, 72, 64
2, 736500, Note_on_c, 0, 70, 100
2, 736500, Note_off_c, 0, 67, 64
2, 736500, Note_on_c, 0, 51, 100
2, 736500, Note_off_c, 0, 39, 64
2, 737500, Note_on_c, 0, 72, 100
2, 737500, Note_on_c, 0, 65, 100
2, 737500, Note_off_c, 0, 69, 64
2, 737500, Note_on_c, 0, 53, 100
2, 737500, Note_off_c, 0, 41, 64
2, 739000, Note_off_c, 0, 65, 64
2, 739000, Note_on_c, 0, 69, 100
2, 740000, Note_off_c, 0, 69, 64
2, 740000, Note_off_c, 0, 72, 64
2, 740000, Note_on_c, 0, 69, 100
2, 740000, Note_on_c, 0, 65, 100
2, 740000, Note_off_c, 0, 53, 64
2, 740000, Note_on_c, 0, 41, 100
2, 741000, Note_on_c, 0, 72, 100
2, 741000, Note_on_c, 0, 74, 100
2, 741000, Note_off_c, 0, 70, 64
2, 741000, Note_off_c, 0, 65, 64
2, 741000, Note_on_c, 0, 46, 100
2, 741000, Note_on_c, 0, 34, 100
2, 742500, Note_off_c, 0, 74, 64
2, 742500, Note_off_c, 0, 72, 64
2, 742500, Note_on_c, 0, 70, 100
2, 742500, Note_off_c, 0, 69, 64
2, 742500, Note_on_c, 0, 65, 100
2, 742500, Note_off_c, 0, 63, 64
2, 743500, Note_on_c, 0, 72, 100
2, 743500, Note_on_c, 0, 69, 100
2, 743500, Note_on_c, 0, 63, 100
2, 743500, Note_on_c, 0, 74, 100
2, 743500, Note_off_c, 0, 70, 64
2, 743500, Note_off_c, 0, 65, 64
2, 743500, Note_off_c, 0, 46, 64
2, 743500, Note_on_c, 0, 53, 100
2, 743500, Note_off_c, 0, 34, 64
2, 743500, Note_off_c, 0, 41, 64
2, 744500, Note_off_c, 0, 74, 64
2, 744500, Note_on_c, 0, 70, 100
2, 744500, Note_on_c, 0, 65, 100
2, 744500, Note_off_c, 0, 53, 64
2, 744500, Note_on_c, 0, 41, 100
2, 744500, Note_off_c, 0, 70, 64
2, 744500, Note_off_c, 0, 65, 64
2, 744500, Note_off_c, 0, 62, 64
2, 744500, Note_on_c, 0, 58, 100
2, 744500, Note_on_c, 0, 46, 100
2, 746000, Note_on_c, 0, 62, 100
2, 746000, Note_on_c, 0, 60, 100
2, 746000, Note_off_c, 0, 58, 64
2, 746000, Note_on_c, 0, 57, 100
2, 746000, Note_off_c, 0, 46, 64
2, 746000, Note_on_c, 0, 45, 100
2, 747000, Note_off_c, 0, 60, 64
2, 747000, Note_off_c, 0, 57, 64
2, 747000, Note_off_c, 0, 45, 64
2, 747000, Note_on_c, 0, 70, 100
2, 747000, Note_on_c, 0, 74, 100
2, 747000, Note_on_c, 0, 65, 100
2, 747000, Note_off_c, 0, 62, 64
2, 747000, Note_on_c, 0, 58, 100
2, 747000, Note_on_c, 0, 46, 100
2, 748000, Note_off_c, 0, 65, 64
2, 748000, Note_on_c, 0, 62, 100
2, 748000, Note_off_c, 0, 58, 64
2, 748000, Note_off_c, 0, 46, 64
2, 748000, Note_on_c, 0, 67, 100
2, 748000, Note_off_c, 0, 55, 64
2, 748000, Note_on_c, 0, 52, 100
2, 748000, Note_on_c, 0, 40, 100
2, 749500, Note_off_c, 0, 74, 64
2, 749500, Note_off_c, 0, 67, 64
2, 750500, Note_on_c, 0, 67, 100
2, 750500, Note_off_c, 0, 70, 64
2, 750500, Note_off_c, 0, 67, 64
2, 750500, Note_on_c, 0, 55, 100
2, 750500, Note_off_c, 0, 52, 64
2, 750500, Note_off_c, 0, 40, 64
2, 752000, Note_on_c, 0, 67, 100
2, 752000, Note_on_c, 0, 64, 100
2, 752000, Note_off_c, 0, 48, 64
2, 752000, Note_on_c, 0, 36, 100
2, 753500, Note_on_c, 0, 70, 100
2, 753500, Note_off_c, 0, 64, 64
2, 754500, Note_on_c, 0, 64, 100
2, 754500, Note_off_c, 0, 72, 64
2, 754500, Note_off_c, 0, 67, 64
2, 754500, Note_off_c, 0, 64, 64
2, 754500, Note_on_c, 0, 48, 100
2, 754500, Note_off_c, 0, 36, 64
2, 756000, Note_on_c, 0, 65, 100
2, 756000, Note_on_c, 0, 57, 100
2, 756000, Note_on_c, 0, 50, 100
2, 756000, Note_on_c, 0, 38, 100
2, 757500, Note_on_c, 0, 72, 100
2, 757500, Note_off_c, 0, 65, 64
2, 758500, Note_on_c, 0, 65, 100
2, 758500, Note_off_c, 0, 69, 64
2, 758500, Note_off_c, 0, 65, 64
2, 758500, Note_off_c, 0, 57, 64
2, 758500, Note_off_c, 0, 50, 64
2, 758500, Note_off_c, 0, 38, 64
2, 760000, Note_on_c, 0, 65, 100
2, 760000, Note_off_c, 0, 62, 64
2, 760000, Note_on_c, 0, 46, 100
2, 760000, Note_on_c, 0, 34, 100
2, 761500, Note_on_c, 0, 69, 100
2, 761500, Note_on_c, 0, 62, 100
2, 762500, Note_off_c, 0, 62, 64
2, 762500, Note_off_c, 0, 70, 64
2, 762500, Note_off_c, 0, 65, 64
2, 762500, Note_on_c, 0, 62, 100
2, 762500, Note_off_c, 0, 46, 64
2, 762500, Note_off_c, 0, 34, 64
2, 764000, Note_on_c, 0, 64, 100
2, 764000, Note_off_c, 0, 55, 64
2, 764000, Note_off_c, 0, 48, 64
2, 764000, Note_on_c, 0, 36, 100
2, 765500, Note_on_c, 0, 70, 100
2, 765500, Note_off_c, 0, 64, 64
2, 766500, Note_on_c, 0, 64, 100
2, 766500, Note_on_c, 0, 67, 100
2, 766500, Note_off_c, 0, 64, 64
2, 766500, Note_on_c, 0, 60, 100
2, 766500, Note_on_c, 0, 55, 100
2, 766500, Note_on_c, 0, 52, 100
2, 766500, Note_on_c, 0, 48, 100
2, 766500, Note_on_c, 0, 46, 100
2, 766500, Note_off_c, 0, 36, 64
2, 766500, Note_on_c, 0, 34, 100
2, 767500, Note_off_c, 0, 60, 64
2, 767500, Note_off_c, 0, 52, 64
2, 767500, Note_off_c, 0, 46, 64
2, 767500, Note_off_c, 0, 34, 64
2, 767500, Note_on_c, 0, 60, 100
2, 767500, Note_on_c, 0, 57, 100
2, 767500, Note_on_c, 0, 45, 100
2, 767500, Note_on_c, 0, 33, 100
2, 769000, Note_off_c, 0, 67, 64
2, 769000, Note_off_c, 0, 60, 64
2, 770000, Note_on_c, 0, 60, 100
2, 770000, Note_off_c, 0, 70, 64
2, 770000, Note_off_c, 0, 60, 64
2, 770000, Note_on_c, 0, 64, 100
2, 770000, Note_off_c, 0, 57, 64
2, 770000, Note_on_c, 0, 58, 100
2, 770000, Note_off_c, 0, 45, 64
2, 770000, Note_on_c, 0, 43, 100
2, 770000, Note_off_c, 0, 33, 64
2, 770000, Note_on_c, 0, 31, 100
2, 771000, Note_on_c, 0, 70, 100
2, 771000, Note_off_c, 0, 64, 64
2, 771000, Note_off_c, 0, 58, 64
2, 771000, Note_off_c, 0, 43, 64
2, 771000, Note_off_c, 0, 31, 64
2, 771000, Note_off_c, 0, 69, 64
2, 771000, Note_on_c, 0, 65, 100
2, 771000, Note_on_c, 0, 60, 100
2, 771000, Note_off_c, 0, 41, 64
2, 771000, Note_on_c, 0, 29, 100
2, 772500, Note_on_c, 0, 69, 100
2, 772500, Note_on_c, 0, 67, 100
2, 772500, Note_off_c, 0, 65, 64
2, 772500, Note_on_c, 0, 64, 100
2, 772500, Note_off_c, 0, 60, 64
2, 772500, Note_on_c, 0, 58, 100
2, 773500, Note_off_c, 0, 67, 64
2, 773500, Note_off_c, 0, 64, 64
2, 773500, Note_off_c, 0, 58, 64
2, 773500, Note_off_c, 0, 69, 64
2, 773500, Note_on_c, 0, 65, 100
2, 773500, Note_on_c, 0, 60, 100
2, 773500, Note_on_c, 0, 41, 100
2, 773500, Note_off_c, 0, 48, 64
2, 773500, Note_on_c, 0, 36, 100
2, 773500, Note_off_c, 0, 29, 64
2, 774500, Note_on_c, 0, 69, 100
2, 774500, Note_off_c, 0, 65, 64
2, 774500, Note_off_c, 0, 60, 64
2, 774500, Note_on_c, 0, 48, 100
2, 774500, Note_off_c, 0, 36, 64
2, 774500, Note_on_c, 0, 65, 100
2, 774500, Note_on_c, 0, 60, 100
2, 774500, Note_on_c, 0, 57, 100
2, 774500, Note_on_c, 0, 53, 100
2, 774500, Note_off_c, 0, 41, 64
2, 776000, Note_off_c, 0, 65, 64
2, 776000, Note_off_c, 0, 69, 64
2, 776000, Note_off_c, 0, 57, 64
2, 776000, Note_off_c, 0, 55, 64
2, 776000, Note_off_c, 0, 53, 64
2, 776000, Note_off_c, 0, 51, 64
2, 776000, Note_on_c, 0, 41, 100
2, 776000, Note_on_c, 0, 39, 100
2, 777000, Note_on_c, 0, 69, 100
2, 777000, Note_on_c, 0, 55, 100
2, 777000, Note_on_c, 0, 51, 100
2, 777000, Note_off_c, 0, 39, 64
2, 777000, Note_off_c, 0, 72, 64
2, 777000, Note_off_c, 0, 60, 64
2, 777000, Note_on_c, 0, 65, 100
2, 777000, Note_on_c, 0, 57, 100
2, 777000, Note_on_c, 0, 53, 100
2, 777000, Note_off_c, 0, 41, 64
2, 778000, Note_on_c, 0, 72, 100
2, 778000, Note_off_c, 0, 65, 64
2, 778000, Note_off_c, 0, 57, 64
2, 778000, Note_off_c, 0, 53, 64
2, 778000, Note_on_c, 0, 41, 100
2, 778000, Note_off_c, 0, 77, 64
2, 778000, Note_on_c, 0, 65, 100
2, 778000, Note_on_c, 0, 58, 100
2, 778000, Note_on_c, 0, 50, 100
2, 778000, Note_on_c, 0, 38, 100
2, 779000, Note_on_c, 0, 77, 100
2, 779000, Note_off_c, 0, 70, 64
2, 780000, Note_on_c, 0, 70, 100
2, 780000, Note_on_c, 0, 74, 100
2, 780000, Note_off_c, 0, 65, 64
2, 780000, Note_off_c, 0, 58, 64
2, 780000, Note_off_c, 0, 50, 64
2, 780000, Note_off_c, 0, 38, 64
2, 781500, Note_on_c, 0, 65, 100
2, 781500, Note_on_c, 0, 58, 100
2, 781500, Note_off_c, 0, 55, 64
2, 781500, Note_on_c, 0, 43, 100
2, 783000, Note_off_c, 0, 74, 64
2, 783000, Note_on_c, 0, 67, 100
2, 784000, Note_off_c, 0, 67, 64
2, 784000, Note_on_c, 0, 75, 100
2, 784000, Note_off_c, 0, 65, 64
2, 784000, Note_off_c, 0, 58, 64
2, 784000, Note_on_c, 0, 55, 100
2, 784000, Note_off_c, 0, 43, 64
2, 785500, Note_off_c, 0, 63, 64
2, 785500, Note_on_c, 0, 58, 100
2, 785500, Note_off_c, 0, 48, 64
2, 785500, Note_on_c, 0, 36, 100
2, 787000, Note_off_c, 0, 75, 64
2, 787000, Note_off_c, 0, 69, 64
2, 788000, Note_on_c, 0, 69, 100
2, 788000, Note_off_c, 0, 72, 64
2, 788000, Note_on_c, 0, 63, 100
2, 788000, Note_off_c, 0, 58, 64
2, 788000, Note_on_c, 0, 48, 100
2, 788000, Note_off_c, 0, 36, 64
2, 789500, Note_on_c, 0, 65, 100
2, 789500, Note_on_c, 0, 57, 100
2, 789500, Note_on_c, 0, 53, 100
2, 789500, Note_off_c, 0, 41, 64
2, 791000, Note_on_c, 0, 72, 100
2, 791000, Note_off_c, 0, 65, 64
2, 792000, Note_on_c, 0, 65, 100
2, 792000, Note_on_c, 0, 74, 100
2, 792000, Note_off_c, 0, 65, 64
2, 792000, Note_off_c, 0, 57, 64
2, 792000, Note_off_c, 0, 53, 64
2, 792000, Note_on_c, 0, 41, 100
2, 793500, Note_on_c, 0, 65, 100
2, 793500, Note_on_c, 0, 58, 100
2, 793500, Note_on_c, 0, 46, 100
2, 793500, Note_on_c, 0, 34, 100
2, 795000, Note_off_c, 0, 74, 64
2, 795000, Note_off_c, 0, 65, 64
2, 795000, Note_off_c, 0, 62, 64
2, 796000, Note_on_c, 0, 65, 100
2, 796000, Note_on_c, 0, 62, 100
2, 796000, Note_off_c, 0, 70, 64
2, 796000, Note_off_c, 0, 65, 64
2, 796000, Note_off_c, 0, 58, 64
2, 796000, Note_off_c, 0, 62, 64
2, 796000, Note_off_c, 0, 46, 64
2, 796000, Note_off_c, 0, 34, 64
2, 797000, Note_on_c, 0, 65, 100
2, 797000, Note_on_c, 0, 62, 100
2, 797000, Note_on_c, 0, 58, 100
2, 797000, Note_on_c, 0, 46, 100
2, 797000, Note_off_c, 0, 62, 64
2, 797000, Note_on_c, 0, 53, 100
2, 797000, Note_off_c, 0, 46, 64
2, 797000, Note_on_c, 0, 34, 100
2, 798500, Note_on_c, 0, 70, 100
2, 798500, Note_on_c, 0, 62, 100
2, 798500, Note_off_c, 0, 58, 64
2, 799500, Note_off_c, 0, 62, 64
2, 799500, Note_on_c, 0, 58, 100
2, 799500, Note_off_c, 0, 65, 64
2, 799500, Note_on_c, 0, 62, 100
2, 799500, Note_off_c, 0, 53, 64
2, 799500, Note_off_c, 0, 58, 64
2, 799500, Note_on_c, 0, 46, 100
2, 799500, Note_off_c, 0, 34, 64
2, 800500, Note_off_c, 0, 62, 64
2, 800500, Note_on_c, 0, 58, 100
2, 800500, Note_off_c, 0, 46, 64
2, 800500, Note_off_c, 0, 58, 64
2, 800500, Note_on_c, 0, 50, 100
2, 800500, Note_on_c, 0, 46, 100
2, 800500, Note_on_c, 0, 34, 100
2, 802000, Note_on_c, 0, 65, 100
2, 802000, Note_on_c, 0, 58, 100
2, 802000, Note_on_c, 0, 62, 100
2, 802000, Note_off_c, 0, 50, 64
2, 802000, Note_on_c, 0, 53, 100
2, 803000, Note_off_c, 0, 58, 64
2, 803000, Note_off_c, 0, 62, 64
2, 803000, Note_off_c, 0, 53, 64
2, 803000, Note_on_c, 0, 62, 100
2, 803000, Note_off_c, 0, 65, 64
2, 803000, Note_on_c, 0, 58, 100
2, 803000, Note_off_c, 0, 46, 64
2, 803000, Note_off_c, 0, 34, 64
2, 804000, Note_off_c, 0, 62, 64
2, 804000, Note_on_c, 0, 65, 100
2, 804000, Note_off_c, 0, 58, 64
2, 804000, Note_on_c, 0, 46, 100
2, 804000, Note_off_c, 0, 65, 64
2, 804000, Note_off_c, 0, 70, 64
2, 804000, Note_on_c, 0, 62, 100
2, 804000, Note_off_c, 0, 46, 64
2, 804000, Note_on_c, 0, 34, 100
2, 805000, Note_on_c, 0, 65, 100
2, 805000, Note_on_c, 0, 70, 100
2, 805000, Note_off_c, 0, 62, 64
2, 805000, Note_on_c, 0, 62, 100
2, 805000, Note_off_c, 0, 65, 64
2, 805000, Note_on_c, 0, 58, 100
2, 806000, Note_off_c, 0, 62, 64
2, 806000, Note_on_c, 0, 65, 100
2, 806000, Note_off_c, 0, 58, 64
2, 806000, Note_off_c, 0, 65, 64
2, 806000, Note_off_c, 0, 70, 64
2, 806000, Note_on_c, 0, 62, 100
2, 806000, Note_on_c, 0, 46, 100
2, 806000, Note_on_c, 0, 58, 100
2, 806000, Note_off_c, 0, 34, 64
2, 807000, Note_on_c, 0, 65, 100
2, 807000, Note_on_c, 0, 70, 100
2, 807000, Note_off_c, 0, 62, 64
2, 807000, Note_off_c, 0, 58, 64
2, 807000, Note_off_c, 0, 46, 64
2, 807000, Note_off_c, 0, 70, 64
2, 807000, Note_on_c, 0, 62, 100
2, 807000, Note_off_c, 0, 65, 64
2, 807000, Note_on_c, 0, 46, 100
2, 807000, Note_on_c, 0, 34, 100
2, 808000, Note_on_c, 0, 70, 100
2, 808000, Note_on_c, 0, 65, 100
2, 809000, Note_off_c, 0, 65, 64
2, 809000, Note_on_c, 0, 67, 100
2, 809000, Note_off_c, 0, 62, 64
2, 809000, Note_on_c, 0, 65, 100
2, 809000, Note_off_c, 0, 46, 64
2, 809000, Note_off_c, 0, 34, 64
2, 810500, Note_off_c, 0, 63, 64
2, 810500, Note_on_c, 0, 58, 100
2, 810500, Note_on_c, 0, 46, 100
2, 812000, Note_off_c, 0, 67, 64
2, 812000, Note_off_c, 0, 65, 64
2, 813000, Note_on_c, 0, 65, 100
2, 813000, Note_off_c, 0, 70, 64
2, 813000, Note_on_c, 0, 63, 100
2, 813000, Note_off_c, 0, 58, 64
2, 813000, Note_off_c, 0, 46, 64
2, 814500, Note_on_c, 0, 62, 100
2, 814500, Note_on_c, 0, 53, 100
2, 814500, Note_on_c, 0, 46, 100
2, 814500, Note_on_c, 0, 34, 100
2, 816000, Note_on_c, 0, 70, 100
2, 816000, Note_off_c, 0, 65, 64
2, 817000, Note_on_c, 0, 65, 100
2, 817000, Note_on_c, 0, 67, 100
2, 817000, Note_off_c, 0, 62, 64
2, 817000, Note_off_c, 0, 53, 64
2, 817000, Note_off_c, 0, 46, 64
2, 817000, Note_off_c, 0, 34, 64
2, 818500, Note_off_c, 0, 63, 64
2, 818500, Note_on_c, 0, 58, 100
2, 818500, Note_on_c, 0, 46, 100
2, 820000, Note_off_c, 0, 67, 64
2, 820000, Note_off_c, 0, 65, 64
2, 821000, Note_on_c, 0, 65, 100
2, 821000, Note_off_c, 0, 70, 64
2, 821000, Note_on_c, 0, 63, 100
2, 821000, Note_on_c, 0, 62, 100
2, 821000, Note_off_c, 0, 58, 64
2, 821000, Note_on_c, 0, 53, 100
2, 821000, Note_off_c, 0, 46, 64
2, 821000, Note_on_c, 0, 34, 100
2, 822000, Note_off_c, 0, 62, 64
2, 822000, Note_off_c, 0, 53, 64
2, 822000, Note_on_c, 0, 46, 100
2, 822000, Note_off_c, 0, 34, 64
2, 822000, Note_off_c, 0, 63, 64
2, 822000, Note_off_c, 0, 55, 64
2, 822000, Note_off_c, 0, 51, 64
2, 822000, Note_on_c, 0, 39, 100
2, 823500, Note_on_c, 0, 70, 100
2, 823500, Note_on_c, 0, 67, 100
2, 824500, Note_off_c, 0, 67, 64
2, 824500, Note_on_c, 0, 75, 100
2, 824500, Note_on_c, 0, 63, 100
2, 824500, Note_on_c, 0, 67, 100
2, 824500, Note_on_c, 0, 55, 100
2, 824500, Note_on_c, 0, 60, 100
2, 824500, Note_on_c, 0, 51, 100
2, 824500, Note_off_c, 0, 48, 64
2, 824500, Note_off_c, 0, 39, 64
2, 824500, Note_on_c, 0, 36, 100
2, 825500, Note_off_c, 0, 67, 64
2, 825500, Note_off_c, 0, 60, 64
2, 825500, Note_on_c, 0, 48, 100
2, 825500, Note_off_c, 0, 36, 64
2, 825500, Note_off_c, 0, 65, 64
2, 825500, Note_on_c, 0, 57, 100
2, 825500, Note_on_c, 0, 53, 100
2, 825500, Note_off_c, 0, 41, 64
2, 827000, Note_off_c, 0, 75, 64
2, 827000, Note_off_c, 0, 69, 64
2, 828000, Note_on_c, 0, 69, 100
2, 828000, Note_off_c, 0, 77, 64
2, 828000, Note_on_c, 0, 65, 100
2, 828000, Note_off_c, 0, 72, 64
2, 828000, Note_off_c, 0, 57, 64
2, 828000, Note_off_c, 0, 53, 64
2, 828000, Note_on_c, 0, 45, 100
2, 828000, Note_on_c, 0, 41, 100
2, 828000, Note_on_c, 0, 33, 100
2, 829000, Note_on_c, 0, 72, 100
2, 829000, Note_on_c, 0, 53, 100
2, 829000, Note_off_c, 0, 45, 64
2, 829000, Note_off_c, 0, 33, 64
2, 829000, Note_on_c, 0, 77, 100
2, 829000, Note_on_c, 0, 74, 100
2, 829000, Note_off_c, 0, 70, 64
2, 829000, Note_off_c, 0, 65, 64
2, 829000, Note_off_c, 0, 46, 64
2, 829000, Note_on_c, 0, 34, 100
2, 830000, Note_off_c, 0, 74, 64
2, 830000, Note_on_c, 0, 70, 100
2, 830000, Note_on_c, 0, 65, 100
2, 830000, Note_on_c, 0, 46, 100
2, 830000, Note_off_c, 0, 34, 64
2, 830000, Note_off_c, 0, 70, 64
2, 830000, Note_off_c, 0, 65, 64
2, 830000, Note_on_c, 0, 62, 100
2, 830000, Note_on_c, 0, 50, 100
2, 830000, Note_on_c, 0, 38, 100
2, 831000, Note_on_c, 0, 70, 100
2, 831000, Note_on_c, 0, 65, 100
2, 831000, Note_off_c, 0, 62, 64
2, 831000, Note_off_c, 0, 50, 64
2, 831000, Note_off_c, 0, 38, 64
2, 831000, Note_off_c, 0, 69, 64
2, 831000, Note_off_c, 0, 65, 64
2, 831000, Note_on_c, 0, 60, 100
2, 831000, Note_off_c, 0, 53, 64
2, 831000, Note_off_c, 0, 41, 64
2, 832000, Note_on_c, 0, 69, 100
2, 832000, Note_on_c, 0, 65, 100
2, 832000, Note_off_c, 0, 60, 64
2, 832000, Note_on_c, 0, 53, 100
2, 832000, Note_on_c, 0, 41, 100
2, 832000, Note_off_c, 0, 70, 64
2, 832000, Note_off_c, 0, 65, 64
2, 832000, Note_on_c, 0, 62, 100
2, 832000, Note_on_c, 0, 58, 100
2, 832000, Note_off_c, 0, 46, 64
2, 833000, Note_off_c, 0, 58, 64
2, 833000, Note_on_c, 0, 46, 100
2, 833000, Note_on_c, 0, 50, 100
2, 833000, Note_on_c, 0, 38, 100
2, 833500, Note_on_c, 0, 70, 100
2, 833500, Note_on_c, 0, 65, 100
2, 833500, Note_off_c, 0, 50, 64
2, 833500, Note_off_c, 0, 38, 64
2, 833500, Note_off_c, 0, 65, 64
2, 833500, Note_on_c, 0, 67, 100
2, 833500, Note_off_c, 0, 70, 64
2, 833500, Note_off_c, 0, 62, 64
2, 833500, Note_off_c, 0, 53, 64
2, 833500, Note_off_c, 0, 41, 64
2, 834000, Note_off_c, 0, 67, 64
2, 834000, Note_off_c, 0, 69, 64
2, 834000, Note_on_c, 0, 53, 100
2, 834000, Note_on_c, 0, 41, 100
2, 834000, Note_on_c, 0, 69, 100
2, 834000, Note_on_c, 0, 70, 100
2, 834000, Note_off_c, 0, 46, 64
2, 834000, Note_on_c, 0, 34, 100
2, 834500, Note_off_c, 0, 70, 64
2, 834500, Note_off_c, 0, 69, 64
2, 835000, Note_on_c, 0, 69, 100
2, 835000, Note_on_c, 0, 70, 100
2, 835000, Note_on_c, 0, 46, 100
2, 835000, Note_on_c, 0, 50, 100
2, 835500, Note_on_c, 0, 65, 100
2, 835500, Note_off_c, 0, 70, 64
2, 835500, Note_off_c, 0, 50, 64
2, 835500, Note_off_c, 0, 65, 64
2, 835500, Note_on_c, 0, 67, 100
2, 835500, Note_off_c, 0, 53, 64
2, 835500, Note_off_c, 0, 34, 64
2, 835500, Note_off_c, 0, 46, 64
2, 836000, Note_off_c, 0, 67, 64
2, 836000, Note_off_c, 0, 69, 64
2, 836000, Note_on_c, 0, 53, 100
2, 836000, Note_on_c, 0, 69, 100
2, 836000, Note_on_c, 0, 70, 100
2, 836000, Note_on_c, 0, 45, 100
2, 836500, Note_off_c, 0, 70, 64
2, 836500, Note_off_c, 0, 69, 64
2, 837000, Note_on_c, 0, 69, 100
2, 837000, Note_on_c, 0, 70, 100
2, 837000, Note_off_c, 0, 45, 64
2, 837000, Note_on_c, 0, 50, 100
2, 837500, Note_on_c, 0, 65, 100
2, 837500, Note_off_c, 0, 70, 64
2, 837500, Note_off_c, 0, 50, 64
2, 837500, Note_off_c, 0, 65, 64
2, 837500, Note_on_c, 0, 67, 100
2, 837500, Note_off_c, 0, 53, 64
2, 838000, Note_off_c, 0, 67, 64
2, 838000, Note_off_c, 0, 69, 64
2, 838000, Note_on_c, 0, 53, 100
2, 838000, Note_on_c, 0, 69, 100
2, 838000, Note_on_c, 0, 70, 100
2, 838000, Note_on_c, 0, 43, 100
2, 838500, Note_off_c, 0, 70, 64
2, 838500, Note_off_c, 0, 69, 64
2, 839000, Note_on_c, 0, 69, 100
2, 839000, Note_on_c, 0, 70, 100
2, 839000, Note_off_c, 0, 43, 64
2, 839000, Note_on_c, 0, 46, 100
2, 839500, Note_on_c, 0, 65, 100
2, 839500, Note_off_c, 0, 70, 64
2, 839500, Note_off_c, 0, 46, 64
2, 839500, Note_off_c, 0, 65, 64
2, 839500, Note_on_c, 0, 67, 100
2, 839500, Note_on_c, 0, 50, 100
2, 840000, Note_off_c, 0, 67, 64
2, 840000, Note_off_c, 0, 69, 64
2, 840000, Note_off_c, 0, 50, 64
2, 840000, Note_on_c, 0, 69, 100
2, 840000, Note_on_c, 0, 70, 100
2, 840000, Note_off_c, 0, 41, 64
2, 840500, Note_off_c, 0, 70, 64
2, 840500, Note_off_c, 0, 69, 64
2, 841000, Note_on_c, 0, 69, 100
2, 841000, Note_on_c, 0, 70, 100
2, 841000, Note_on_c, 0, 41, 100
2, 841000, Note_on_c, 0, 46, 100
2, 841500, Note_on_c, 0, 67, 100
2, 841500, Note_off_c, 0, 70, 64
2, 841500, Note_off_c, 0, 46, 64
2, 841500, Note_off_c, 0, 67, 64
2, 841500, Note_off_c, 0, 69, 64
2, 841500, Note_on_c, 0, 50, 100
2, 842000, Note_on_c, 0, 69, 100
2, 842000, Note_on_c, 0, 70, 100
2, 842000, Note_off_c, 0, 50, 64
2, 842000, Note_off_c, 0, 70, 64
2, 842000, Note_off_c, 0, 72, 64
2, 842000, Note_on_c, 0, 39, 100
2, 842500, Note_on_c, 0, 72, 100
2, 842500, Note_on_c, 0, 70, 100
2, 843000, Note_off_c, 0, 70, 64
2, 843000, Note_off_c, 0, 72, 64
2, 843000, Note_off_c, 0, 39, 64
2, 843000, Note_on_c, 0, 43, 100
2, 843500, Note_on_c, 0, 72, 100
2, 843500, Note_on_c, 0, 70, 100
2, 843500, Note_on_c, 0, 67, 100
2, 843500, Note_off_c, 0, 43, 64
2, 843500, Note_off_c, 0, 70, 64
2, 843500, Note_off_c, 0, 69, 64
2, 843500, Note_off_c, 0, 67, 64
2, 843500, Note_off_c, 0, 48, 64
2, 844000, Note_on_c, 0, 69, 100
2, 844000, Note_on_c, 0, 67, 100
2, 844000, Note_on_c, 0, 70, 100
2, 844000, Note_on_c, 0, 48, 100
2, 844000, Note_off_c, 0, 67, 64
2, 844000, Note_on_c, 0, 65, 100
2, 844000, Note_off_c, 0, 70, 64
2, 844000, Note_off_c, 0, 72, 64
2, 844000, Note_on_c, 0, 45, 100
2, 844500, Note_on_c, 0, 72, 100
2, 844500, Note_on_c, 0, 70, 100
2, 844500, Note_off_c, 0, 65, 64
2, 844500, Note_off_c, 0, 69, 64
2, 844500, Note_off_c, 0, 70, 64
2, 844500, Note_off_c, 0, 72, 64
2, 844500, Note_off_c, 0, 45, 64
2, 844500, Note_off_c, 0, 48, 64
2, 845000, Note_on_c, 0, 72, 100
2, 845000, Note_on_c, 0, 70, 100
2, 845000, Note_on_c, 0, 69, 100
2, 845000, Note_on_c, 0, 48, 100
2, 845000, Note_off_c, 0, 72, 64
2, 845000, Note_off_c, 0, 70, 64
2, 845000, Note_off_c, 0, 69, 64
2, 845000, Note_off_c, 0, 41, 64
2, 845500, Note_on_c, 0, 69, 100
2, 845500, Note_on_c, 0, 67, 100
2, 845500, Note_on_c, 0, 72, 100
2, 845500, Note_on_c, 0, 41, 100
2, 845500, Note_on_c, 0, 74, 100
2, 845500, Note_off_c, 0, 67, 64
2, 845500, Note_on_c, 0, 65, 100
2, 845500, Note_on_c, 0, 46, 100
2, 846000, Note_off_c, 0, 74, 64
2, 846000, Note_off_c, 0, 72, 64
2, 846000, Note_off_c, 0, 65, 64
2, 846000, Note_off_c, 0, 63, 64
2, 846500, Note_on_c, 0, 72, 100
2, 846500, Note_on_c, 0, 74, 100
2, 846500, Note_on_c, 0, 63, 100
2, 846500, Note_on_c, 0, 65, 100
2, 846500, Note_off_c, 0, 46, 64
2, 846500, Note_on_c, 0, 50, 100
2, 847000, Note_off_c, 0, 74, 64
2, 847000, Note_on_c, 0, 75, 100
2, 847000, Note_off_c, 0, 65, 64
2, 847000, Note_on_c, 0, 67, 100
2, 847000, Note_off_c, 0, 50, 64
2, 847000, Note_off_c, 0, 75, 64
2, 847000, Note_on_c, 0, 74, 100
2, 847000, Note_off_c, 0, 67, 64
2, 847000, Note_on_c, 0, 65, 100
2, 847000, Note_off_c, 0, 53, 64
2, 847500, Note_off_c, 0, 74, 64
2, 847500, Note_off_c, 0, 72, 64
2, 847500, Note_off_c, 0, 65, 64
2, 847500, Note_off_c, 0, 63, 64
2, 847500, Note_on_c, 0, 53, 100
2, 847500, Note_on_c, 0, 72, 100
2, 847500, Note_on_c, 0, 70, 100
2, 847500, Note_on_c, 0, 63, 100
2, 847500, Note_on_c, 0, 62, 100
2, 847500, Note_on_c, 0, 58, 100
2, 848000, Note_off_c, 0, 62, 64
2, 848000, Note_on_c, 0, 60, 100
2, 848000, Note_off_c, 0, 70, 64
2, 848000, Note_on_c, 0, 65, 100
2, 848000, Note_off_c, 0, 60, 64
2, 848000, Note_on_c, 0, 62, 100
2, 848000, Note_off_c, 0, 58, 64
2, 848000, Note_on_c, 0, 57, 100
2, 848500, Note_off_c, 0, 62, 64
2, 848500, Note_off_c, 0, 63, 64
2, 848500, Note_off_c, 0, 65, 64
2, 848500, Note_off_c, 0, 57, 64
2, 848500, Note_on_c, 0, 74, 100
2, 848500, Note_on_c, 0, 63, 100
2, 848500, Note_on_c, 0, 65, 100
2, 848500, Note_on_c, 0, 58, 100
2, 849000, Note_off_c, 0, 65, 64
2, 849000, Note_on_c, 0, 62, 100
2, 849000, Note_off_c, 0, 58, 64
2, 849000, Note_off_c, 0, 62, 64
2, 849000, Note_on_c, 0, 67, 100
2, 849000, Note_on_c, 0, 52, 100
2, 849500, Note_off_c, 0, 67, 64
2, 849500, Note_off_c, 0, 69, 64
2, 849500, Note_off_c, 0, 52, 64
2, 849500, Note_off_c, 0, 74, 64
2, 849500, Note_on_c, 0, 67, 100
2, 849500, Note_on_c, 0, 69, 100
2, 849500, Note_on_c, 0, 70, 100
2, 849500, Note_off_c, 0, 55, 64
2, 850000, Note_off_c, 0, 70, 64
2, 850000, Note_off_c, 0, 69, 64
2, 850000, Note_off_c, 0, 67, 64
2, 850000, Note_on_c, 0, 55, 100
2, 850000, Note_on_c, 0, 70, 100
2, 850000, Note_on_c, 0, 69, 100
2, 850000, Note_on_c, 0, 67, 100
2, 850000, Note_on_c, 0, 52, 100
2, 850500, Note_off_c, 0, 67, 64
2, 850500, Note_on_c, 0, 65, 100
2, 850500, Note_off_c, 0, 52, 64
2, 850500, Note_off_c, 0, 65, 64
2, 850500, Note_on_c, 0, 64, 100
2, 850500, Note_off_c, 0, 48, 64
2, 851000, Note_off_c, 0, 64, 64
2, 851000, Note_on_c, 0, 62, 100
2, 851000, Note_on_c, 0, 48, 100
2, 851000, Note_off_c, 0, 70, 64
2, 851000, Note_on_c, 0, 64, 100
2, 851000, Note_off_c, 0, 62, 64
2, 851000, Note_on_c, 0, 60, 100
2, 851000, Note_on_c, 0, 57, 100
2, 851500, Note_off_c, 0, 60, 64
2, 851500, Note_on_c, 0, 62, 100
2, 851500, Note_off_c, 0, 64, 64
2, 851500, Note_off_c, 0, 57, 64
2, 851500, Note_off_c, 0, 72, 64
2, 851500, Note_off_c, 0, 62, 64
2, 851500, Note_on_c, 0, 64, 100
2, 851500, Note_off_c, 0, 48, 64
2, 852000, Note_off_c, 0, 64, 64
2, 852000, Note_on_c, 0, 60, 100
2, 852000, Note_on_c, 0, 48, 100
2, 852000, Note_off_c, 0, 60, 64
2, 852000, Note_on_c, 0, 65, 100
2, 852000, Note_on_c, 0, 50, 100
2, 852500, Note_off_c, 0, 65, 64
2, 852500, Note_on_c, 0, 67, 100
2, 852500, Note_off_c, 0, 50, 64
2, 852500, Note_on_c, 0, 72, 100
2, 852500, Note_on_c, 0, 65, 100
2, 852500, Note_off_c, 0, 67, 64
2, 852500, Note_off_c, 0, 69, 64
2, 852500, Note_off_c, 0, 53, 64
2, 853000, Note_on_c, 0, 69, 100
2, 853000, Note_on_c, 0, 67, 100
2, 853000, Note_off_c, 0, 65, 64
2, 853000, Note_on_c, 0, 53, 100
2, 853000, Note_off_c, 0, 69, 64
2, 853000, Note_off_c, 0, 67, 64
2, 853000, Note_on_c, 0, 65, 100
2, 853000, Note_on_c, 0, 50, 100
2, 853500, Note_off_c, 0, 65, 64
2, 853500, Note_on_c, 0, 64, 100
2, 853500, Note_off_c, 0, 50, 64
2, 853500, Note_off_c, 0, 64, 64
2, 853500, Note_on_c, 0, 62, 100
2, 853500, Note_on_c, 0, 46, 100
2, 854000, Note_off_c, 0, 62, 64
2, 854000, Note_on_c, 0, 60, 100
2, 854000, Note_off_c, 0, 46, 64
2, 854000, Note_on_c, 0, 69, 100
2, 854000, Note_on_c, 0, 62, 100
2, 854000, Note_off_c, 0, 60, 64
2, 854000, Note_on_c, 0, 58, 100
2, 854000, Note_off_c, 0, 55, 64
2, 854500, Note_off_c, 0, 58, 64
2, 854500, Note_on_c, 0, 60, 100
2, 854500, Note_off_c, 0, 62, 64
2, 854500, Note_on_c, 0, 55, 100
2, 854500, Note_on_c, 0, 70, 100
2, 854500, Note_off_c, 0, 60, 64
2, 854500, Note_on_c, 0, 62, 100
2, 854500, Note_on_c, 0, 46, 100
2, 855000, Note_off_c, 0, 62, 64
2, 855000, Note_on_c, 0, 58, 100
2, 855000, Note_off_c, 0, 46, 64
2, 855000, Note_off_c, 0, 58, 64
2, 855000, Note_on_c, 0, 64, 100
2, 855000, Note_off_c, 0, 48, 64
2, 855500, Note_off_c, 0, 64, 64
2, 855500, Note_on_c, 0, 65, 100
2, 856000, Note_off_c, 0, 70, 64
2, 856000, Note_on_c, 0, 64, 100
2, 856000, Note_off_c, 0, 65, 64
2, 856000, Note_on_c, 0, 67, 100
2, 856500, Note_off_c, 0, 67, 64
2, 856500, Note_on_c, 0, 65, 100
2, 856500, Note_off_c, 0, 64, 64
2, 856500, Note_on_c, 0, 67, 100
2, 856500, Note_off_c, 0, 65, 64
2, 856500, Note_on_c, 0, 64, 100
2, 856500, Note_on_c, 0, 48, 100
2, 856500, Note_on_c, 0, 46, 100
2, 857000, Note_off_c, 0, 64, 64
2, 857000, Note_on_c, 0, 62, 100
2, 857500, Note_off_c, 0, 62, 64
2, 857500, Note_on_c, 0, 60, 100
2, 857500, Note_off_c, 0, 46, 64
2, 857500, Note_on_c, 0, 45, 100
2, 858000, Note_off_c, 0, 60, 64
2, 858000, Note_on_c, 0, 62, 100
2, 858500, Note_off_c, 0, 67, 64
2, 858500, Note_on_c, 0, 60, 100
2, 858500, Note_off_c, 0, 62, 64
2, 858500, Note_on_c, 0, 64, 100
2, 859000, Note_off_c, 0, 64, 64
2, 859000, Note_on_c, 0, 62, 100
2, 859000, Note_off_c, 0, 60, 64
2, 859000, Note_on_c, 0, 70, 100
2, 859000, Note_off_c, 0, 62, 64
2, 859000, Note_on_c, 0, 60, 100
2, 859000, Note_off_c, 0, 45, 64
2, 859000, Note_on_c, 0, 43, 100
2, 859500, Note_off_c, 0, 60, 64
2, 859500, Note_on_c, 0, 58, 100
2, 859500, Note_off_c, 0, 70, 64
2, 859500, Note_off_c, 0, 69, 64
2, 859500, Note_off_c, 0, 58, 64
2, 859500, Note_on_c, 0, 60, 100
2, 859500, Note_off_c, 0, 43, 64
2, 859500, Note_off_c, 0, 41, 64
2, 860000, Note_off_c, 0, 60, 64
2, 860000, Note_on_c, 0, 65, 100
2, 860500, Note_on_c, 0, 69, 100
2, 860500, Note_on_c, 0, 67, 100
2, 860500, Note_off_c, 0, 65, 64
2, 860500, Note_on_c, 0, 64, 100
2, 861000, Note_off_c, 0, 64, 64
2, 861000, Note_on_c, 0, 62, 100
2, 861000, Note_off_c, 0, 67, 64
2, 861000, Note_off_c, 0, 69, 64
2, 861000, Note_off_c, 0, 62, 64
2, 861000, Note_on_c, 0, 60, 100
2, 861000, Note_on_c, 0, 41, 100
2, 861500, Note_off_c, 0, 60, 64
2, 861500, Note_on_c, 0, 58, 100
2, 861500, Note_on_c, 0, 69, 100
2, 861500, Note_on_c, 0, 65, 100
2, 861500, Note_off_c, 0, 58, 64
2, 861500, Note_on_c, 0, 57, 100
2, 862000, Note_off_c, 0, 57, 64
2, 862000, Note_on_c, 0, 58, 100
2, 862500, Note_off_c, 0, 65, 64
2, 862500, Note_on_c, 0, 57, 100
2, 862500, Note_off_c, 0, 58, 64
2, 862500, Note_on_c, 0, 60, 100
2, 863000, Note_off_c, 0, 60, 64
2, 863000, Note_on_c, 0, 58, 100
2, 863000, Note_off_c, 0, 57, 64
2, 863000, Note_on_c, 0, 60, 100
2, 863000, Note_off_c, 0, 58, 64
2, 863000, Note_on_c, 0, 57, 100
2, 863500, Note_off_c, 0, 57, 64
2, 863500, Note_off_c, 0, 55, 64
2, 863500, Note_off_c, 0, 60, 64
2, 863500, Note_on_c, 0, 65, 100
2, 863500, Note_on_c, 0, 55, 100
2, 863500, Note_off_c, 0, 53, 64
2, 863500, Note_on_c, 0, 60, 100
2, 863500, Note_on_c, 0, 57, 100
2, 863500, Note_off_c, 0, 41, 64
2, 865000, Note_off_c, 0, 65, 64
2, 865000, Note_on_c, 0, 64, 100
2, 866000, Note_off_c, 0, 64, 64
2, 866000, Note_on_c, 0, 65, 100
2, 866000, Note_on_c, 0, 53, 100
2, 866000, Note_off_c, 0, 60, 64
2, 866000, Note_off_c, 0, 57, 64
2, 866000, Note_on_c, 0, 41, 100
2, 867000, Note_off_c, 0, 65, 64
2, 867000, Note_on_c, 0, 57, 100
2, 867000, Note_on_c, 0, 60, 100
2, 867000, Note_off_c, 0, 53, 64
2, 867000, Note_on_c, 0, 52, 100
2, 867000, Note_on_c, 0, 40, 100
2, 868500, Note_off_c, 0, 57, 64
2, 868500, Note_off_c, 0, 60, 64
2, 869500, Note_on_c, 0, 60, 100
2, 869500, Note_on_c, 0, 65, 100
2, 869500, Note_off_c, 0, 60, 64
2, 869500, Note_on_c, 0, 53, 100
2, 869500, Note_off_c, 0, 52, 64
2, 869500, Note_off_c, 0, 40, 64
2, 870500, Note_off_c, 0, 65, 64
2, 870500, Note_on_c, 0, 65, 100
2, 870500, Note_on_c, 0, 62, 100
2, 870500, Note_on_c, 0, 57, 100
2, 870500, Note_on_c, 0, 50, 100
2, 870500, Note_on_c, 0, 38, 100
2, 872000, Note_off_c, 0, 65, 64
2, 872000, Note_on_c, 0, 64, 100
2, 873000, Note_off_c, 0, 64, 64
2, 873000, Note_on_c, 0, 65, 100
2, 873000, Note_off_c, 0, 62, 64
2, 873000, Note_off_c, 0, 57, 64
2, 873000, Note_off_c, 0, 50, 64
2, 873000, Note_off_c, 0, 38, 64
2, 874000, Note_off_c, 0, 65, 64
2, 874000, Note_on_c, 0, 57, 100
2, 874000, Note_on_c, 0, 65, 100
2, 874000, Note_on_c, 0, 60, 100
2, 874000, Note_off_c, 0, 48, 64
2, 874000, Note_on_c, 0, 36, 100
2, 875500, Note_off_c, 0, 57, 64
2, 875500, Note_off_c, 0, 60, 64
2, 876500, Note_on_c, 0, 60, 100
2, 876500, Note_off_c, 0, 65, 64
2, 876500, Note_off_c, 0, 60, 64
2, 876500, Note_on_c, 0, 48, 100
2, 876500, Note_off_c, 0, 36, 64
2, 877500, Note_on_c, 0, 65, 100
2, 877500, Note_on_c, 0, 67, 100
2, 877500, Note_off_c, 0, 65, 64
2, 877500, Note_on_c, 0, 62, 100
2, 877500, Note_on_c, 0, 46, 100
2, 877500, Note_on_c, 0, 34, 100
2, 879000, Note_off_c, 0, 67, 64
2, 879000, Note_on_c, 0, 65, 100
2, 880000, Note_off_c, 0, 65, 64
2, 880000, Note_on_c, 0, 67, 100
2, 880000, Note_on_c, 0, 65, 100
2, 880000, Note_off_c, 0, 62, 64
2, 880000, Note_off_c, 0, 46, 64
2, 880000, Note_off_c, 0, 34, 64
2, 881000, Note_off_c, 0, 67, 64
2, 881000, Note_on_c, 0, 60, 100
2, 881000, Note_on_c, 0, 64, 100
2, 881000, Note_off_c, 0, 48, 64
2, 881000, Note_on_c, 0, 36, 100
2, 882500, Note_off_c, 0, 60, 64
2, 882500, Note_off_c, 0, 64, 64
2, 883500, Note_on_c, 0, 64, 100
2, 883500, Note_on_c, 0, 67, 100
2, 883500, Note_off_c, 0, 64, 64
2, 883500, Note_on_c, 0, 60, 100
2, 883500, Note_on_c, 0, 48, 100
2, 883500, Note_off_c, 0, 36, 64
2, 884500, Note_off_c, 0, 67, 64
2, 884500, Note_off_c, 0, 69, 64
2, 884500, Note_off_c, 0, 65, 64
2, 884500, Note_off_c, 0, 60, 64
2, 884500, Note_off_c, 0, 41, 64
2, 884500, Note_on_c, 0, 29, 100
2, 886000, Note_on_c, 0, 69, 100
2, 886000, Note_on_c, 0, 67, 100
2, 886000, Note_on_c, 0, 65, 100
2, 886000, Note_on_c, 0, 64, 100
2, 886000, Note_on_c, 0, 60, 100
2, 886000, Note_on_c, 0, 58, 100
2, 887000, Note_off_c, 0, 67, 64
2, 887000, Note_off_c, 0, 64, 64
2, 887000, Note_off_c, 0, 58, 64
2, 887000, Note_off_c, 0, 69, 64
2, 887000, Note_off_c, 0, 65, 64
2, 887000, Note_off_c, 0, 60, 64
2, 888000, Note_on_c, 0, 69, 100
2, 888000, Note_on_c, 0, 65, 100
2, 888000, Note_on_c, 0, 60, 100
2, 888000, Note_off_c, 0, 65, 64
2, 888000, Note_off_c, 0, 60, 64
2, 888000, Note_on_c, 0, 57, 100
2, 889000, Note_on_c, 0, 41, 100
2, 889000, Note_on_c, 0, 45, 100
2, 889500, Note_on_c, 0, 65, 100
2, 889500, Note_on_c, 0, 60, 100
2, 889500, Note_off_c, 0, 45, 64
2, 889500, Note_off_c, 0, 65, 64
2, 889500, Note_off_c, 0, 60, 64
2, 889500, Note_on_c, 0, 62, 100
2, 889500, Note_off_c, 0, 57, 64
2, 889500, Note_off_c, 0, 48, 64
2, 889500, Note_off_c, 0, 41, 64
2, 889500, Note_off_c, 0, 29, 64
2, 890000, Note_off_c, 0, 62, 64
2, 890000, Note_on_c, 0, 64, 100
2, 890000, Note_on_c, 0, 48, 100
2, 890000, Note_off_c, 0, 64, 64
2, 890000, Note_on_c, 0, 65, 100
2, 890000, Note_off_c, 0, 53, 64
2, 890500, Note_off_c, 0, 65, 64
2, 890500, Note_on_c, 0, 64, 100
2, 891000, Note_off_c, 0, 64, 64
2, 891000, Note_on_c, 0, 65, 100
2, 891000, Note_on_c, 0, 53, 100
2, 891000, Note_on_c, 0, 57, 100
2, 891500, Note_on_c, 0, 60, 100
2, 891500, Note_off_c, 0, 65, 64
2, 891500, Note_off_c, 0, 57, 64
2, 891500, Note_off_c, 0, 60, 64
2, 891500, Note_on_c, 0, 62, 100
2, 892000, Note_off_c, 0, 62, 64
2, 892000, Note_on_c, 0, 64, 100
2, 892000, Note_on_c, 0, 60, 100
2, 892000, Note_off_c, 0, 64, 64
2, 892000, Note_on_c, 0, 65, 100
2, 892000, Note_on_c, 0, 52, 100
2, 892500, Note_off_c, 0, 65, 64
2, 892500, Note_on_c, 0, 64, 100
2, 893000, Note_off_c, 0, 64, 64
2, 893000, Note_on_c, 0, 65, 100
2, 893000, Note_off_c, 0, 52, 64
2, 893000, Note_on_c, 0, 57, 100
2, 893500, Note_off_c, 0, 60, 64
2, 893500, Note_off_c, 0, 65, 64
2, 893500, Note_off_c, 0, 57, 64
2, 893500, Note_on_c, 0, 60, 100
2, 893500, Note_on_c, 0, 62, 100
2, 894000, Note_off_c, 0, 62, 64
2, 894000, Note_on_c, 0, 64, 100
2, 894000, Note_off_c, 0, 60, 64
2, 894000, Note_off_c, 0, 64, 64
2, 894000, Note_on_c, 0, 65, 100
2, 894000, Note_on_c, 0, 50, 100
2, 894500, Note_off_c, 0, 65, 64
2, 894500, Note_on_c, 0, 64, 100
2, 895000, Note_off_c, 0, 64, 64
2, 895000, Note_on_c, 0, 65, 100
2, 895000, Note_off_c, 0, 50, 64
2, 895000, Note_off_c, 0, 53, 64
2, 895500, Note_on_c, 0, 60, 100
2, 895500, Note_off_c, 0, 65, 64
2, 895500, Note_on_c, 0, 53, 100
2, 895500, Note_off_c, 0, 60, 64
2, 895500, Note_on_c, 0, 62, 100
2, 895500, Note_on_c, 0, 57, 100
2, 896000, Note_off_c, 0, 62, 64
2, 896000, Note_on_c, 0, 64, 100
2, 896000, Note_off_c, 0, 57, 64
2, 896000, Note_off_c, 0, 64, 64
2, 896000, Note_on_c, 0, 65, 100
2, 896000, Note_off_c, 0, 48, 64
2, 896500, Note_off_c, 0, 65, 64
2, 896500, Note_on_c, 0, 64, 100
2, 897000, Note_off_c, 0, 64, 64
2, 897000, Note_on_c, 0, 65, 100
2, 897000, Note_on_c, 0, 48, 100
2, 897000, Note_off_c, 0, 53, 64
2, 897500, Note_on_c, 0, 62, 100
2, 897500, Note_off_c, 0, 65, 64
2, 897500, Note_on_c, 0, 53, 100
2, 897500, Note_off_c, 0, 62, 64
2, 897500, Note_on_c, 0, 64, 100
2, 897500, Note_on_c, 0, 57, 100
2, 898000, Note_off_c, 0, 64, 64
2, 898000, Note_on_c, 0, 65, 100
2, 898000, Note_off_c, 0, 57, 64
2, 898000, Note_off_c, 0, 65, 64
2, 898000, Note_on_c, 0, 67, 100
2, 898000, Note_on_c, 0, 46, 100
2, 898500, Note_off_c, 0, 67, 64
2, 898500, Note_on_c, 0, 65, 100
2, 899000, Note_off_c, 0, 65, 64
2, 899000, Note_on_c, 0, 67, 100
2, 899000, Note_off_c, 0, 46, 64
2, 899000, Note_on_c, 0, 50, 100
2, 899500, Note_on_c, 0, 62, 100
2, 899500, Note_off_c, 0, 67, 64
2, 899500, Note_on_c, 0, 65, 100
2, 899500, Note_off_c, 0, 50, 64
2, 899500, Note_off_c, 0, 62, 64
2, 899500, Note_on_c, 0, 64, 100
2, 899500, Note_off_c, 0, 65, 64
2, 899500, Note_off_c, 0, 55, 64
2, 900000, Note_off_c, 0, 64, 64
2, 900000, Note_on_c, 0, 65, 100
2, 900000, Note_on_c, 0, 62, 100
2, 900000, Note_on_c, 0, 55, 100
2, 900000, Note_off_c, 0, 65, 64
2, 900000, Note_on_c, 0, 67, 100
2, 900000, Note_off_c, 0, 62, 64
2, 900000, Note_on_c, 0, 60, 100
2, 900000, Note_on_c, 0, 52, 100
2, 900500, Note_off_c, 0, 67, 64
2, 900500, Note_on_c, 0, 65, 100
2, 900500, Note_off_c, 0, 60, 64
2, 900500, Note_off_c, 0, 65, 64
2, 900500, Note_on_c, 0, 67, 100
2, 900500, Note_on_c, 0, 64, 100
2, 900500, Note_off_c, 0, 52, 64
2, 900500, Note_off_c, 0, 55, 64
2, 901000, Note_off_c, 0, 67, 64
2, 901000, Note_on_c, 0, 65, 100
2, 901000, Note_off_c, 0, 64, 64
2, 901000, Note_on_c, 0, 55, 100
2, 901000, Note_off_c, 0, 65, 64
2, 901000, Note_on_c, 0, 64, 100
2, 901000, Note_on_c, 0, 67, 100
2, 901000, Note_off_c, 0, 48, 64
2, 901500, Note_off_c, 0, 64, 64
2, 901500, Note_on_c, 0, 62, 100
2, 901500, Note_off_c, 0, 67, 64
2, 901500, Note_on_c, 0, 48, 100
2, 901500, Note_off_c, 0, 62, 64
2, 901500, Note_on_c, 0, 60, 100
2, 901500, Note_off_c, 0, 69, 64
2, 901500, Note_on_c, 0, 41, 100
2, 902000, Note_off_c, 0, 60, 64
2, 902000, Note_on_c, 0, 58, 100
2, 902000, Note_on_c, 0, 69, 100
2, 902000, Note_on_c, 0, 67, 100
2, 902500, Note_off_c, 0, 58, 64
2, 902500, Note_on_c, 0, 60, 100
2, 902500, Note_off_c, 0, 67, 64
2, 902500, Note_off_c, 0, 69, 64
2, 902500, Note_off_c, 0, 41, 64
2, 902500, Note_on_c, 0, 45, 100
2, 903000, Note_off_c, 0, 60, 64
2, 903000, Note_on_c, 0, 62, 100
2, 903000, Note_on_c, 0, 69, 100
2, 903000, Note_on_c, 0, 70, 100
2, 903000, Note_off_c, 0, 45, 64
2, 903000, Note_off_c, 0, 62, 64
2, 903000, Note_on_c, 0, 60, 100
2, 903000, Note_off_c, 0, 70, 64
2, 903000, Note_off_c, 0, 69, 64
2, 903000, Note_off_c, 0, 48, 64
2, 903500, Note_off_c, 0, 60, 64
2, 903500, Note_on_c, 0, 58, 100
2, 903500, Note_on_c, 0, 69, 100
2, 903500, Note_on_c, 0, 67, 100
2, 903500, Note_on_c, 0, 48, 100
2, 903500, Note_off_c, 0, 58, 64
2, 903500, Note_on_c, 0, 57, 100
2, 903500, Note_off_c, 0, 67, 64
2, 903500, Note_on_c, 0, 65, 100
2, 903500, Note_off_c, 0, 53, 64
2, 904000, Note_off_c, 0, 57, 64
2, 904000, Note_off_c, 0, 55, 64
2, 904000, Note_off_c, 0, 65, 64
2, 904000, Note_on_c, 0, 55, 100
2, 904000, Note_on_c, 0, 57, 100
2, 904000, Note_on_c, 0, 60, 100
2, 904000, Note_on_c, 0, 53, 100
2, 904000, Note_on_c, 0, 52, 100
2, 904500, Note_off_c, 0, 57, 64
2, 904500, Note_on_c, 0, 58, 100
2, 904500, Note_off_c, 0, 60, 64
2, 904500, Note_off_c, 0, 52, 64
2, 904500, Note_off_c, 0, 58, 64
2, 904500, Note_on_c, 0, 60, 100
2, 904500, Note_off_c, 0, 69, 64
2, 904500, Note_off_c, 0, 53, 64
2, 905000, Note_off_c, 0, 60, 64
2, 905000, Note_on_c, 0, 57, 100
2, 905000, Note_on_c, 0, 53, 100
2, 905000, Note_off_c, 0, 57, 64
2, 905000, Note_on_c, 0, 62, 100
2, 905000, Note_on_c, 0, 47, 100
2, 905500, Note_off_c, 0, 62, 64
2, 905500, Note_on_c, 0, 64, 100
2, 905500, Note_off_c, 0, 47, 64
2, 905500, Note_off_c, 0, 64, 64
2, 905500, Note_on_c, 0, 65, 100
2, 905500, Note_on_c, 0, 69, 100
2, 905500, Note_on_c, 0, 62, 100
2, 905500, Note_on_c, 0, 50, 100
2, 906000, Note_off_c, 0, 65, 64
2, 906000, Note_on_c, 0, 64, 100
2, 906000, Note_off_c, 0, 62, 64
2, 906000, Note_off_c, 0, 50, 64
2, 906000, Note_off_c, 0, 64, 64
2, 906000, Note_on_c, 0, 62, 100
2, 906000, Note_on_c, 0, 65, 100
2, 906000, Note_on_c, 0, 47, 100
2, 906500, Note_off_c, 0, 62, 64
2, 906500, Note_on_c, 0, 60, 100
2, 906500, Note_off_c, 0, 47, 64
2, 906500, Note_off_c, 0, 60, 64
2, 906500, Note_off_c, 0, 59, 64
2, 906500, Note_on_c, 0, 43, 100
2, 907000, Note_on_c, 0, 59, 100
2, 907000, Note_on_c, 0, 57, 100
2, 907000, Note_off_c, 0, 43, 64
2, 907000, Note_off_c, 0, 57, 64
2, 907000, Note_off_c, 0, 55, 64
2, 907000, Note_off_c, 0, 65, 64
2, 907000, Note_off_c, 0, 59, 64
2, 907000, Note_on_c, 0, 52, 100
2, 907500, Note_on_c, 0, 55, 100
2, 907500, Note_on_c, 0, 57, 100
2, 907500, Note_on_c, 0, 59, 100
2, 907500, Note_off_c, 0, 52, 64
2, 907500, Note_off_c, 0, 57, 64
2, 907500, Note_off_c, 0, 59, 64
2, 907500, Note_on_c, 0, 67, 100
2, 907500, Note_on_c, 0, 43, 100
2, 908000, Note_on_c, 0, 59, 100
2, 908000, Note_off_c, 0, 55, 64
2, 908000, Note_off_c, 0, 43, 64
2, 908000, Note_on_c, 0, 55, 100
2, 908000, Note_on_c, 0, 60, 100
2, 908000, Note_on_c, 0, 45, 100
2, 908500, Note_off_c, 0, 60, 64
2, 908500, Note_on_c, 0, 62, 100
2, 908500, Note_off_c, 0, 45, 64
2, 908500, Note_off_c, 0, 62, 64
2, 908500, Note_on_c, 0, 64, 100
2, 908500, Note_off_c, 0, 67, 64
2, 908500, Note_on_c, 0, 60, 100
2, 908500, Note_off_c, 0, 48, 64
2, 909000, Note_off_c, 0, 64, 64
2, 909000, Note_on_c, 0, 62, 100
2, 909000, Note_off_c, 0, 60, 64
2, 909000, Note_on_c, 0, 48, 100
2, 909000, Note_off_c, 0, 62, 64
2, 909000, Note_on_c, 0, 60, 100
2, 909000, Note_on_c, 0, 64, 100
2, 909000, Note_on_c, 0, 45, 100
2, 909500, Note_off_c, 0, 60, 64
2, 909500, Note_off_c, 0, 59, 64
2, 909500, Note_off_c, 0, 45, 64
2, 909500, Note_on_c, 0, 59, 100
2, 909500, Note_on_c, 0, 57, 100
2, 909500, Note_on_c, 0, 41, 100
2, 910000, Note_off_c, 0, 57, 64
2, 910000, Note_off_c, 0, 55, 64
2, 910000, Note_off_c, 0, 41, 64
2, 910000, Note_on_c, 0, 55, 100
2, 910000, Note_off_c, 0, 53, 64
2, 910000, Note_off_c, 0, 64, 64
2, 910000, Note_on_c, 0, 57, 100
2, 910000, Note_on_c, 0, 50, 100
2, 910500, Note_on_c, 0, 53, 100
2, 910500, Note_off_c, 0, 55, 64
2, 910500, Note_off_c, 0, 57, 64
2, 910500, Note_off_c, 0, 50, 64
2, 910500, Note_on_c, 0, 55, 100
2, 910500, Note_on_c, 0, 57, 100
2, 910500, Note_on_c, 0, 65, 100
2, 910500, Note_on_c, 0, 41, 100
2, 911000, Note_off_c, 0, 57, 64
2, 911000, Note_off_c, 0, 53, 64
2, 911000, Note_off_c, 0, 41, 64
2, 911000, Note_on_c, 0, 53, 100
2, 911000, Note_off_c, 0, 59, 64
2, 911000, Note_on_c, 0, 43, 100
2, 911500, Note_on_c, 0, 59, 100
2, 911500, Note_on_c, 0, 60, 100
2, 912000, Note_off_c, 0, 60, 64
2, 912000, Note_on_c, 0, 62, 100
2, 912000, Note_off_c, 0, 65, 64
2, 912000, Note_off_c, 0, 59, 64
2, 912500, Note_off_c, 0, 62, 64
2, 912500, Note_on_c, 0, 60, 100
2, 912500, Note_on_c, 0, 59, 100
2, 912500, Note_off_c, 0, 60, 64
2, 912500, Note_off_c, 0, 59, 64
2, 912500, Note_on_c, 0, 62, 100
2, 912500, Note_off_c, 0, 43, 64
2, 912500, Note_on_c, 0, 41, 100
2, 913000, Note_on_c, 0, 59, 100
2, 913000, Note_on_c, 0, 57, 100
2, 913500, Note_off_c, 0, 57, 64
2, 913500, Note_off_c, 0, 55, 64
2, 913500, Note_off_c, 0, 41, 64
2, 913500, Note_on_c, 0, 40, 100
2, 914000, Note_on_c, 0, 55, 100
2, 914000, Note_on_c, 0, 57, 100
2, 914500, Note_off_c, 0, 57, 64
2, 914500, Note_off_c, 0, 59, 64
2, 914500, Note_off_c, 0, 62, 64
2, 914500, Note_off_c, 0, 55, 64
2, 915000, Note_on_c, 0, 59, 100
2, 915000, Note_on_c, 0, 57, 100
2, 915000, Note_on_c, 0, 55, 100
2, 915000, Note_off_c, 0, 57, 64
2, 915000, Note_off_c, 0, 55, 64
2, 915000, Note_on_c, 0, 65, 100
2, 915000, Note_off_c, 0, 40, 64
2, 915000, Note_on_c, 0, 38, 100
2, 915500, Note_on_c, 0, 55, 100
2, 915500, Note_off_c, 0, 53, 64
2, 915500, Note_off_c, 0, 65, 64
2, 915500, Note_on_c, 0, 53, 100
2, 915500, Note_off_c, 0, 55, 64
2, 915500, Note_on_c, 0, 64, 100
2, 915500, Note_off_c, 0, 38, 64
2, 915500, Note_on_c, 0, 36, 100
2, 916000, Note_on_c, 0, 55, 100
2, 916000, Note_on_c, 0, 60, 100
2, 916500, Note_off_c, 0, 60, 64
2, 916500, Note_off_c, 0, 59, 64
2, 916500, Note_off_c, 0, 64, 64
2, 916500, Note_on_c, 0, 62, 100
2, 917000, Note_on_c, 0, 59, 100
2, 917000, Note_on_c, 0, 57, 100
2, 917000, Note_off_c, 0, 62, 64
2, 917000, Note_off_c, 0, 57, 64
2, 917000, Note_off_c, 0, 55, 64
2, 917000, Note_on_c, 0, 64, 100
2, 917000, Note_off_c, 0, 36, 64
2, 917500, Note_on_c, 0, 55, 100
2, 917500, Note_off_c, 0, 53, 64
2, 917500, Note_off_c, 0, 64, 64
2, 917500, Note_on_c, 0, 53, 100
2, 917500, Note_on_c, 0, 52, 100
2, 917500, Note_on_c, 0, 60, 100
2, 918000, Note_off_c, 0, 52, 64
2, 918000, Note_off_c, 0, 53, 64
2, 918500, Note_on_c, 0, 53, 100
2, 918500, Note_off_c, 0, 55, 64
2, 918500, Note_off_c, 0, 60, 64
2, 918500, Note_on_c, 0, 64, 100
2, 919000, Note_on_c, 0, 55, 100
2, 919000, Note_off_c, 0, 53, 64
2, 919000, Note_off_c, 0, 64, 64
2, 919000, Note_on_c, 0, 53, 100
2, 919000, Note_on_c, 0, 52, 100
2, 919000, Note_on_c, 0, 67, 100
2, 919500, Note_off_c, 0, 52, 64
2, 919500, Note_on_c, 0, 50, 100
2, 919500, Note_off_c, 0, 67, 64
2, 919500, Note_off_c, 0, 50, 64
2, 919500, Note_off_c, 0, 48, 64
2, 919500, Note_off_c, 0, 72, 64
2, 919500, Note_on_c, 0, 65, 100
2, 919500, Note_on_c, 0, 60, 100
2, 919500, Note_on_c, 0, 45, 100
2, 919500, Note_on_c, 0, 33, 100
2, 920500, Note_on_c, 0, 48, 100
2, 920500, Note_on_c, 0, 72, 100
2, 920500, Note_off_c, 0, 60, 64
2, 920500, Note_off_c, 0, 65, 64
2, 921500, Note_on_c, 0, 60, 100
2, 921500, Note_on_c, 0, 65, 100
2, 921500, Note_off_c, 0, 69, 64
2, 921500, Note_off_c, 0, 65, 64
2, 921500, Note_off_c, 0, 60, 64
2, 921500, Note_off_c, 0, 45, 64
2, 921500, Note_off_c, 0, 33, 64
2, 923000, Note_on_c, 0, 65, 100
2, 923000, Note_on_c, 0, 60, 100
2, 923000, Note_on_c, 0, 50, 100
2, 923000, Note_on_c, 0, 38, 100
2, 924500, Note_on_c, 0, 69, 100
2, 924500, Note_on_c, 0, 62, 100
2, 925500, Note_off_c, 0, 62, 64
2, 925500, Note_on_c, 0, 70, 100
2, 925500, Note_off_c, 0, 65, 64
2, 925500, Note_off_c, 0, 60, 64
2, 925500, Note_off_c, 0, 50, 64
2, 925500, Note_off_c, 0, 38, 64
2, 927000, Note_on_c, 0, 65, 100
2, 927000, Note_on_c, 0, 58, 100
2, 927000, Note_on_c, 0, 43, 100
2, 927000, Note_on_c, 0, 31, 100
2, 928500, Note_off_c, 0, 70, 64
2, 928500, Note_on_c, 0, 64, 100
2, 929500, Note_off_c, 0, 64, 64
2, 929500, Note_on_c, 0, 67, 100
2, 929500, Note_off_c, 0, 65, 64
2, 929500, Note_off_c, 0, 58, 64
2, 929500, Note_off_c, 0, 43, 64
2, 929500, Note_off_c, 0, 31, 64
2, 931000, Note_on_c, 0, 64, 100
2, 931000, Note_on_c, 0, 60, 100
2, 931000, Note_off_c, 0, 48, 64
2, 931000, Note_on_c, 0, 36, 100
2, 932500, Note_off_c, 0, 67, 64
2, 932500, Note_off_c, 0, 60, 64
2, 933500, Note_on_c, 0, 60, 100
2, 933500, Note_off_c, 0, 69, 64
2, 933500, Note_off_c, 0, 64, 64
2, 933500, Note_off_c, 0, 60, 64
2, 933500, Note_on_c, 0, 48, 100
2, 933500, Note_off_c, 0, 36, 64
2, 935000, Note_on_c, 0, 65, 100
2, 935000, Note_on_c, 0, 60, 100
2, 935000, Note_on_c, 0, 41, 100
2, 935000, Note_on_c, 0, 29, 100
2, 935500, Note_on_c, 0, 69, 100
2, 935500, Note_off_c, 0, 65, 64
2, 936000, Note_off_c, 0, 69, 64
2, 936000, Note_off_c, 0, 60, 64
2, 936000, Note_on_c, 0, 65, 100
2, 936000, Note_on_c, 0, 64, 100
2, 936500, Note_off_c, 0, 64, 64
2, 936500, Note_on_c, 0, 62, 100
2, 936500, Note_on_c, 0, 60, 100
2, 936500, Note_off_c, 0, 65, 64
2, 936500, Note_off_c, 0, 62, 64
2, 936500, Note_off_c, 0, 60, 64
2, 936500, Note_off_c, 0, 41, 64
2, 936500, Note_off_c, 0, 53, 64
2, 936500, Note_off_c, 0, 29, 64
2, 937000, Note_on_c, 0, 60, 100
2, 937000, Note_on_c, 0, 58, 100
2, 937000, Note_on_c, 0, 53, 100
2, 937000, Note_off_c, 0, 58, 64
2, 937000, Note_on_c, 0, 57, 100
2, 937000, Note_on_c, 0, 41, 100
2, 937500, Note_off_c, 0, 57, 64
2, 937500, Note_on_c, 0, 62, 100
2, 938000, Note_on_c, 0, 65, 100
2, 938000, Note_on_c, 0, 57, 100
2, 938000, Note_off_c, 0, 62, 64
2, 938000, Note_off_c, 0, 60, 64
2, 938500, Note_on_c, 0, 60, 100
2, 938500, Note_on_c, 0, 58, 100
2, 938500, Note_off_c, 0, 57, 64
2, 938500, Note_off_c, 0, 60, 64
2, 938500, Note_off_c, 0, 58, 64
2, 938500, Note_on_c, 0, 57, 100
2, 938500, Note_off_c, 0, 41, 64
2, 938500, Note_off_c, 0, 53, 64
2, 939000, Note_off_c, 0, 57, 64
2, 939000, Note_off_c, 0, 55, 64
2, 939000, Note_on_c, 0, 53, 100
2, 939000, Note_on_c, 0, 55, 100
2, 939000, Note_off_c, 0, 53, 64
2, 939000, Note_on_c, 0, 41, 100
2, 939500, Note_on_c, 0, 53, 100
2, 939500, Note_off_c, 0, 48, 64
2, 940000, Note_on_c, 0, 60, 100
2, 940000, Note_off_c, 0, 53, 64
2, 940000, Note_on_c, 0, 48, 100
2, 940000, Note_on_c, 0, 50, 100
2, 940500, Note_off_c, 0, 50, 64
2, 940500, Note_on_c, 0, 52, 100
2, 940500, Note_on_c, 0, 53, 100
2, 940500, Note_on_c, 0, 57, 100
2, 940500, Note_off_c, 0, 52, 64
2, 940500, Note_off_c, 0, 53, 64
2, 940500, Note_off_c, 0, 41, 64
2, 941000, Note_on_c, 0, 53, 100
2, 941000, Note_off_c, 0, 55, 64
2, 941000, Note_off_c, 0, 57, 64
2, 941000, Note_off_c, 0, 53, 64
2, 941000, Note_off_c, 0, 60, 64
2, 941000, Note_on_c, 0, 55, 100
2, 941000, Note_on_c, 0, 57, 100
2, 941000, Note_on_c, 0, 41, 100
2, 941500, Note_off_c, 0, 57, 64
2, 941500, Note_off_c, 0, 55, 64
2, 941500, Note_on_c, 0, 60, 100
2, 941500, Note_on_c, 0, 57, 100
2, 941500, Note_on_c, 0, 55, 100
2, 941500, Note_on_c, 0, 53, 100
2, 942000, Note_off_c, 0, 53, 64
2, 942000, Note_off_c, 0, 55, 64
2, 942000, Note_off_c, 0, 57, 64
2, 942000, Note_off_c, 0, 60, 64
2, 942000, Note_on_c, 0, 55, 100
2, 942000, Note_on_c, 0, 57, 100
2, 942000, Note_off_c, 0, 41, 64
2, 942000, Note_on_c, 0, 53, 100
2, 942500, Note_off_c, 0, 57, 64
2, 942500, Note_on_c, 0, 58, 100
2, 942500, Note_on_c, 0, 60, 100
2, 942500, Note_off_c, 0, 53, 64
2, 942500, Note_off_c, 0, 65, 64
2, 942500, Note_off_c, 0, 58, 64
2, 942500, Note_off_c, 0, 60, 64
2, 942500, Note_on_c, 0, 57, 100
2, 942500, Note_on_c, 0, 41, 100
2, 942500, Note_on_c, 0, 29, 100
2, 943500, Note_on_c, 0, 65, 100
2, 943500, Note_on_c, 0, 60, 100
2, 943500, Note_off_c, 0, 60, 64
2, 943500, Note_on_c, 0, 53, 100
2, 944500, Note_on_c, 0, 60, 100
2, 944500, Note_off_c, 0, 53, 64
2, 944500, Note_on_c, 0, 62, 100
2, 944500, Note_off_c, 0, 57, 64
2, 944500, Note_off_c, 0, 60, 64
2, 944500, Note_off_c, 0, 41, 64
2, 944500, Note_off_c, 0, 29, 64
2, 946000, Note_on_c, 0, 58, 100
2, 946000, Note_on_c, 0, 53, 100
2, 946000, Note_on_c, 0, 41, 100
2, 947500, Note_off_c, 0, 62, 64
2, 947500, Note_on_c, 0, 60, 100
2, 948000, Note_off_c, 0, 60, 64
2, 948000, Note_off_c, 0, 58, 64
2, 948000, Note_on_c, 0, 60, 100
2, 948000, Note_on_c, 0, 58, 100
2, 948000, Note_on_c, 0, 57, 100
2, 948000, Note_off_c, 0, 65, 64
2, 948000, Note_off_c, 0, 53, 64
2, 948000, Note_off_c, 0, 41, 64
2, 948500, Note_off_c, 0, 57, 64
2, 948500, Note_off_c, 0, 55, 64
2, 949000, Note_on_c, 0, 55, 100
2, 949000, Note_on_c, 0, 57, 100
2, 949000, Note_on_c, 0, 41, 100
2, 949500, Note_off_c, 0, 57, 64
2, 949500, Note_off_c, 0, 58, 64
2, 950000, Note_on_c, 0, 58, 100
2, 950000, Note_off_c, 0, 60, 64
2, 950000, Note_on_c, 0, 65, 100
2, 950500, Note_on_c, 0, 60, 100
2, 950500, Note_off_c, 0, 58, 64
2, 950500, Note_off_c, 0, 60, 64
2, 950500, Note_on_c, 0, 58, 100
2, 950500, Note_on_c, 0, 57, 100
2, 950500, Note_on_c, 0, 62, 100
2, 950500, Note_off_c, 0, 41, 64
2, 951000, Note_off_c, 0, 57, 64
2, 951000, Note_off_c, 0, 55, 64
2, 951500, Note_on_c, 0, 55, 100
2, 951500, Note_on_c, 0, 53, 100
2, 952000, Note_off_c, 0, 53, 64
2, 952000, Note_off_c, 0, 55, 64
2, 952500, Note_on_c, 0, 55, 100
2, 952500, Note_on_c, 0, 57, 100
2, 952500, Note_off_c, 0, 62, 64
2, 952500, Note_on_c, 0, 60, 100
2, 953000, Note_off_c, 0, 57, 64
2, 953000, Note_off_c, 0, 55, 64
2, 953000, Note_off_c, 0, 60, 64
2, 953000, Note_on_c, 0, 55, 100
2, 953000, Note_on_c, 0, 53, 100
2, 953000, Note_off_c, 0, 65, 64
2, 953000, Note_on_c, 0, 60, 100
2, 953000, Note_on_c, 0, 57, 100
2, 953000, Note_on_c, 0, 41, 100
2, 953000, Note_on_c, 0, 29, 100
2, 953500, Note_off_c, 0, 53, 64
2, 953500, Note_on_c, 0, 52, 100
2, 953500, Note_off_c, 0, 41, 64
2, 953500, Note_off_c, 0, 29, 64
2, 953500, Note_off_c, 0, 52, 64
2, 953500, Note_on_c, 0, 50, 100
2, 953500, Note_off_c, 0, 60, 64
2, 953500, Note_on_c, 0, 62, 100
2, 953500, Note_off_c, 0, 57, 64
2, 953500, Note_off_c, 0, 58, 64
2, 953500, Note_on_c, 0, 46, 100
2, 953500, Note_on_c, 0, 34, 100
2, 955000, Note_off_c, 0, 50, 64
2, 955000, Note_off_c, 0, 62, 64
2, 955000, Note_on_c, 0, 65, 100
2, 956000, Note_on_c, 0, 62, 100
2, 956000, Note_on_c, 0, 70, 100
2, 956000, Note_off_c, 0, 62, 64
2, 956000, Note_on_c, 0, 67, 100
2, 956000, Note_on_c, 0, 58, 100
2, 956000, Note_off_c, 0, 46, 64
2, 956000, Note_on_c, 0, 43, 100
2, 956000, Note_off_c, 0, 34, 64
2, 956000, Note_on_c, 0, 31, 100
2, 957000, Note_off_c, 0, 67, 64
2, 957000, Note_on_c, 0, 62, 100
2, 957000, Note_off_c, 0, 43, 64
2, 957000, Note_off_c, 0, 31, 64
2, 957000, Note_off_c, 0, 55, 64
2, 957000, Note_on_c, 0, 64, 100
2, 957000, Note_off_c, 0, 48, 64
2, 957000, Note_on_c, 0, 36, 100
2, 958500, Note_off_c, 0, 70, 64
2, 958500, Note_off_c, 0, 64, 64
2, 959500, Note_on_c, 0, 64, 100
2, 959500, Note_off_c, 0, 72, 64
2, 959500, Note_on_c, 0, 55, 100
2, 959500, Note_on_c, 0, 67, 100
2, 959500, Note_off_c, 0, 64, 64
2, 959500, Note_on_c, 0, 60, 100
2, 959500, Note_on_c, 0, 48, 100
2, 959500, Note_on_c, 0, 52, 100
2, 959500, Note_off_c, 0, 36, 64
2, 959500, Note_on_c, 0, 40, 100
2, 960500, Note_off_c, 0, 67, 64
2, 960500, Note_off_c, 0, 60, 64
2, 960500, Note_off_c, 0, 52, 64
2, 960500, Note_off_c, 0, 40, 64
2, 960500, Note_on_c, 0, 72, 100
2, 960500, Note_on_c, 0, 69, 100
2, 960500, Note_off_c, 0, 65, 64
2, 960500, Note_on_c, 0, 60, 100
2, 960500, Note_on_c, 0, 53, 100
2, 960500, Note_on_c, 0, 41, 100
2, 961500, Note_off_c, 0, 69, 64
2, 961500, Note_on_c, 0, 65, 100
2, 961500, Note_off_c, 0, 60, 64
2, 961500, Note_off_c, 0, 53, 64
2, 961500, Note_off_c, 0, 41, 64
2, 961500, Note_off_c, 0, 65, 64
2, 961500, Note_on_c, 0, 60, 100
2, 961500, Note_on_c, 0, 57, 100
2, 961500, Note_on_c, 0, 33, 100
2, 961500, Note_on_c, 0, 45, 100
2, 962500, Note_on_c, 0, 65, 100
2, 962500, Note_off_c, 0, 60, 64
2, 962500, Note_off_c, 0, 57, 64
2, 962500, Note_off_c, 0, 33, 64
2, 962500, Note_off_c, 0, 45, 64
2, 962500, Note_on_c, 0, 64, 100
2, 962500, Note_on_c, 0, 60, 100
2, 962500, Note_off_c, 0, 55, 64
2, 962500, Note_on_c, 0, 36, 100
2, 962500, Note_off_c, 0, 48, 64
2, 962500, Note_off_c, 0, 64, 64
2, 962500, Note_off_c, 0, 65, 64
2, 962500, Note_on_c, 0, 65, 100
2, 962500, Note_on_c, 0, 64, 100
2, 962500, Note_off_c, 0, 60, 64
2, 962500, Note_on_c, 0, 55, 100
2, 962500, Note_off_c, 0, 36, 64
2, 962500, Note_on_c, 0, 48, 100
2, 962500, Note_off_c, 0, 64, 64
2, 962500, Note_off_c, 0, 65, 64
2, 962500, Note_on_c, 0, 60, 100
2, 962500, Note_on_c, 0, 57, 100
2, 962500, Note_on_c, 0, 53, 100
2, 962500, Note_on_c, 0, 41, 100
2, 962500, Note_on_c, 0, 29, 100
2, 963000, Note_off_c, 0, 53, 64
2, 963000, Note_off_c, 0, 55, 64
2, 963500, Note_on_c, 0, 55, 100
2, 963500, Note_off_c, 0, 57, 64
2, 964000, Note_on_c, 0, 57, 100
2, 964000, Note_off_c, 0, 55, 64
2, 964500, Note_on_c, 0, 65, 100
2, 964500, Note_off_c, 0, 60, 64
2, 964500, Note_off_c, 0, 57, 64
2, 964500, Note_on_c, 0, 55, 100
2, 964500, Note_on_c, 0, 53, 100
2, 964500, Note_off_c, 0, 41, 64
2, 964500, Note_off_c, 0, 29, 64
2, 965000, Note_off_c, 0, 53, 64
2, 965000, Note_off_c, 0, 51, 64
2, 965000, Note_on_c, 0, 60, 100
2, 965000, Note_off_c, 0, 65, 64
2, 965000, Note_on_c, 0, 51, 100
2, 965000, Note_on_c, 0, 50, 100
2, 965500, Note_off_c, 0, 50, 64
2, 965500, Note_off_c, 0, 51, 64
2, 966000, Note_on_c, 0, 51, 100
2, 966000, Note_on_c, 0, 53, 100
2, 966500, Note_off_c, 0, 53, 64
2, 966500, Note_off_c, 0, 51, 64
2, 967000, Note_on_c, 0, 69, 100
2, 967000, Note_on_c, 0, 51, 100
2, 967000, Note_on_c, 0, 50, 100
2, 967500, Note_off_c, 0, 50, 64
2, 967500, Note_off_c, 0, 48, 64
2, 967500, Note_off_c, 0, 69, 64
2, 967500, Note_on_c, 0, 74, 100
2, 967500, Note_on_c, 0, 48, 100
2, 967500, Note_on_c, 0, 47, 100
2, 968000, Note_off_c, 0, 47, 64
2, 968000, Note_on_c, 0, 50, 100
2, 968500, Note_on_c, 0, 65, 100
2, 968500, Note_off_c, 0, 59, 64
2, 968500, Note_off_c, 0, 50, 64
2, 968500, Note_off_c, 0, 55, 64
2, 969000, Note_on_c, 0, 55, 100
2, 969000, Note_on_c, 0, 53, 100
2, 969000, Note_on_c, 0, 59, 100
2, 969000, Note_off_c, 0, 62, 64
2, 969000, Note_off_c, 0, 53, 64
2, 969000, Note_off_c, 0, 51, 64
2, 969500, Note_on_c, 0, 51, 100
2, 969500, Note_on_c, 0, 50, 100
2, 969500, Note_on_c, 0, 62, 100
2, 969500, Note_off_c, 0, 63, 64
2, 969500, Note_off_c, 0, 50, 64
2, 969500, Note_off_c, 0, 48, 64
2, 970000, Note_on_c, 0, 63, 100
2, 970000, Note_off_c, 0, 65, 64
2, 970000, Note_on_c, 0, 48, 100
2, 970000, Note_off_c, 0, 74, 64
2, 970000, Note_on_c, 0, 67, 100
2, 970000, Note_on_c, 0, 65, 100
2, 970000, Note_off_c, 0, 51, 64
2, 970500, Note_off_c, 0, 67, 64
2, 970500, Note_off_c, 0, 65, 64
2, 970500, Note_on_c, 0, 67, 100
2, 970500, Note_on_c, 0, 51, 100
2, 970500, Note_on_c, 0, 71, 100
2, 970500, Note_on_c, 0, 65, 100
2, 970500, Note_off_c, 0, 63, 64
2, 970500, Note_off_c, 0, 67, 64
2, 970500, Note_off_c, 0, 55, 64
2, 970500, Note_on_c, 0, 43, 100
2, 970500, Note_on_c, 0, 31, 100
2, 971000, Note_on_c, 0, 63, 100
2, 971000, Note_off_c, 0, 62, 64
2, 971000, Note_off_c, 0, 43, 64
2, 971000, Note_off_c, 0, 31, 64
2, 971000, Note_off_c, 0, 71, 64
2, 971000, Note_on_c, 0, 67, 100
2, 971000, Note_on_c, 0, 55, 100
2, 971000, Note_off_c, 0, 72, 64
2, 971000, Note_on_c, 0, 62, 100
2, 971000, Note_off_c, 0, 63, 64
2, 971000, Note_off_c, 0, 55, 64
2, 971000, Note_off_c, 0, 60, 64
2, 971000, Note_on_c, 0, 36, 100
2, 971000, Note_off_c, 0, 48, 64
2, 971500, Note_on_c, 0, 63, 100
2, 971500, Note_off_c, 0, 62, 64
2, 971500, Note_on_c, 0, 72, 100
2, 971500, Note_on_c, 0, 60, 100
2, 971500, Note_off_c, 0, 60, 64
2, 971500, Note_on_c, 0, 62, 100
2, 971500, Note_off_c, 0, 51, 64
2, 972000, Note_on_c, 0, 60, 100
2, 972000, Note_off_c, 0, 63, 64
2, 972000, Note_off_c, 0, 60, 64
2, 972000, Note_on_c, 0, 51, 100
2, 972000, Note_on_c, 0, 63, 100
2, 972000, Note_off_c, 0, 62, 64
2, 972000, Note_on_c, 0, 55, 100
2, 972000, Note_off_c, 0, 36, 64
2, 972000, Note_on_c, 0, 48, 100
2, 972500, Note_on_c, 0, 62, 100
2, 972500, Note_off_c, 0, 65, 64
2, 972500, Note_off_c, 0, 55, 64
2, 972500, Note_on_c, 0, 65, 100
2, 972500, Note_off_c, 0, 63, 64
2, 972500, Note_off_c, 0, 48, 64
2, 973000, Note_on_c, 0, 48, 100
2, 973000, Note_on_c, 0, 50, 100
2, 973500, Note_off_c, 0, 50, 64
2, 973500, Note_off_c, 0, 51, 64
2, 974000, Note_on_c, 0, 51, 100
2, 974000, Note_on_c, 0, 50, 100
2, 974500, Note_off_c, 0, 67, 64
2, 974500, Note_off_c, 0, 50, 64
2, 974500, Note_off_c, 0, 48, 64
2, 975000, Note_on_c, 0, 48, 100
2, 975000, Note_on_c, 0, 46, 100
2, 975000, Note_on_c, 0, 67, 100
2, 975000, Note_off_c, 0, 72, 64
2, 975000, Note_off_c, 0, 46, 64
2, 975000, Note_on_c, 0, 45, 100
2, 975500, Note_off_c, 0, 45, 64
2, 975500, Note_off_c, 0, 48, 64
2, 976000, Note_on_c, 0, 63, 100
2, 976000, Note_on_c, 0, 57, 100
2, 976000, Note_on_c, 0, 48, 100
2, 976000, Note_on_c, 0, 53, 100
2, 976500, Note_off_c, 0, 53, 64
2, 976500, Note_off_c, 0, 51, 64
2, 976500, Note_off_c, 0, 57, 64
2, 976500, Note_on_c, 0, 60, 100
2, 976500, Note_on_c, 0, 51, 100
2, 976500, Note_on_c, 0, 50, 100
2, 977000, Note_off_c, 0, 50, 64
2, 977000, Note_off_c, 0, 48, 64
2, 977000, Note_off_c, 0, 60, 64
2, 977000, Note_off_c, 0, 62, 64
2, 977000, Note_on_c, 0, 48, 100
2, 977000, Note_on_c, 0, 46, 100
2, 977500, Note_on_c, 0, 62, 100
2, 977500, Note_off_c, 0, 63, 64
2, 977500, Note_off_c, 0, 46, 64
2, 977500, Note_on_c, 0, 72, 100
2, 977500, Note_off_c, 0, 65, 64
2, 977500, Note_on_c, 0, 63, 100
2, 977500, Note_on_c, 0, 50, 100
2, 978000, Note_on_c, 0, 65, 100
2, 978000, Note_off_c, 0, 63, 64
2, 978000, Note_off_c, 0, 65, 64
2, 978000, Note_off_c, 0, 50, 64
2, 978000, Note_on_c, 0, 69, 100
2, 978000, Note_on_c, 0, 63, 100
2, 978000, Note_off_c, 0, 62, 64
2, 978000, Note_on_c, 0, 65, 100
2, 978000, Note_on_c, 0, 53, 100
2, 978000, Note_on_c, 0, 41, 100
2, 978000, Note_on_c, 0, 29, 100
2, 978500, Note_on_c, 0, 62, 100
2, 978500, Note_on_c, 0, 60, 100
2, 978500, Note_off_c, 0, 41, 64
2, 978500, Note_off_c, 0, 29, 64
2, 978500, Note_off_c, 0, 69, 64
2, 978500, Note_off_c, 0, 65, 64
2, 978500, Note_off_c, 0, 53, 64
2, 978500, Note_on_c, 0, 70, 100
2, 978500, Note_off_c, 0, 60, 64
2, 978500, Note_off_c, 0, 62, 64
2, 978500, Note_on_c, 0, 53, 100
2, 978500, Note_off_c, 0, 58, 64
2, 978500, Note_on_c, 0, 34, 100
2, 978500, Note_on_c, 0, 46, 100
2, 979000, Note_on_c, 0, 58, 100
2, 979000, Note_on_c, 0, 60, 100
2, 979000, Note_off_c, 0, 70, 64
2, 979000, Note_on_c, 0, 62, 100
2, 979000, Note_off_c, 0, 58, 64
2, 979000, Note_off_c, 0, 60, 64
2, 979500, Note_on_c, 0, 58, 100
2, 979500, Note_on_c, 0, 57, 100
2, 979500, Note_off_c, 0, 58, 64
2, 979500, Note_off_c, 0, 62, 64
2, 979500, Note_off_c, 0, 53, 64
2, 979500, Note_off_c, 0, 57, 64
2, 979500, Note_on_c, 0, 55, 100
2, 979500, Note_off_c, 0, 34, 64
2, 979500, Note_off_c, 0, 46, 64
2, 980000, Note_off_c, 0, 55, 64
2, 980000, Note_on_c, 0, 53, 100
2, 980000, Note_on_c, 0, 62, 100
2, 980000, Note_off_c, 0, 67, 64
2, 980000, Note_off_c, 0, 53, 64
2, 980000, Note_off_c, 0, 51, 64
2, 980500, Note_on_c, 0, 51, 100
2, 980500, Note_on_c, 0, 53, 100
2, 981000, Note_off_c, 0, 53, 64
2, 981000, Note_on_c, 0, 55, 100
2, 981500, Note_off_c, 0, 55, 64
2, 981500, Note_on_c, 0, 53, 100
2, 982000, Note_on_c, 0, 70, 100
2, 982000, Note_off_c, 0, 53, 64
2, 982000, Note_off_c, 0, 51, 64
2, 982500, Note_on_c, 0, 51, 100
2, 982500, Note_on_c, 0, 50, 100
2, 982500, Note_off_c, 0, 70, 64
2, 982500, Note_on_c, 0, 75, 100
2, 982500, Note_off_c, 0, 50, 64
2, 982500, Note_off_c, 0, 48, 64
2, 983000, Note_on_c, 0, 48, 100
2, 983000, Note_off_c, 0, 51, 64
2, 983500, Note_on_c, 0, 67, 100
2, 983500, Note_on_c, 0, 60, 100
2, 983500, Note_on_c, 0, 51, 100
2, 983500, Note_on_c, 0, 57, 100
2, 984000, Note_off_c, 0, 57, 64
2, 984000, Note_on_c, 0, 55, 100
2, 984000, Note_off_c, 0, 60, 64
2, 984000, Note_off_c, 0, 63, 64
2, 984000, Note_on_c, 0, 60, 100
2, 984000, Note_on_c, 0, 57, 100
2, 984000, Note_off_c, 0, 55, 64
2, 984000, Note_on_c, 0, 53, 100
2, 984000, Note_on_c, 0, 36, 100
2, 984000, Note_off_c, 0, 48, 64
2, 984500, Note_off_c, 0, 53, 64
2, 984500, Note_off_c, 0, 51, 64
2, 984500, Note_on_c, 0, 63, 100
2, 984500, Note_off_c, 0, 60, 64
2, 984500, Note_off_c, 0, 57, 64
2, 984500, Note_off_c, 0, 36, 64
2, 984500, Note_on_c, 0, 48, 100
2, 984500, Note_on_c, 0, 65, 100
2, 984500, Note_on_c, 0, 60, 100
2, 984500, Note_on_c, 0, 53, 100
2, 984500, Note_on_c, 0, 51, 100
2, 984500, Note_on_c, 0, 50, 100
2, 984500, Note_on_c, 0, 38, 100
2, 985000, Note_off_c, 0, 50, 64
2, 985000, Note_off_c, 0, 51, 64
2, 985500, Note_off_c, 0, 75, 64
2, 985500, Note_on_c, 0, 69, 100
2, 985500, Note_on_c, 0, 51, 100
2, 985500, Note_off_c, 0, 53, 64
2, 986000, Note_on_c, 0, 53, 100
2, 986000, Note_off_c, 0, 51, 64
2, 986000, Note_off_c, 0, 69, 64
2, 986000, Note_off_c, 0, 72, 64
2, 986000, Note_on_c, 0, 51, 100
2, 986000, Note_on_c, 0, 50, 100
2, 986500, Note_off_c, 0, 50, 64
2, 986500, Note_off_c, 0, 48, 64
2, 986500, Note_on_c, 0, 72, 100
2, 986500, Note_on_c, 0, 74, 100
2, 986500, Note_off_c, 0, 60, 64
2, 986500, Note_off_c, 0, 53, 64
2, 986500, Note_on_c, 0, 48, 100
2, 986500, Note_on_c, 0, 46, 100
2, 986500, Note_off_c, 0, 38, 64
2, 986500, Note_on_c, 0, 50, 100
2, 987000, Note_off_c, 0, 46, 64
2, 987000, Note_off_c, 0, 50, 64
2, 987500, Note_off_c, 0, 65, 64
2, 987500, Note_on_c, 0, 58, 100
2, 987500, Note_on_c, 0, 50, 100
2, 987500, Note_on_c, 0, 55, 100
2, 988000, Note_off_c, 0, 55, 64
2, 988000, Note_on_c, 0, 53, 100
2, 988000, Note_off_c, 0, 58, 64
2, 988000, Note_off_c, 0, 62, 64
2, 988000, Note_on_c, 0, 58, 100
2, 988000, Note_on_c, 0, 55, 100
2, 988000, Note_off_c, 0, 53, 64
2, 988000, Note_off_c, 0, 51, 64
2, 988000, Note_on_c, 0, 34, 100
2, 988000, Note_on_c, 0, 46, 100
2, 988500, Note_on_c, 0, 51, 100
2, 988500, Note_off_c, 0, 50, 64
2, 988500, Note_on_c, 0, 62, 100
2, 988500, Note_off_c, 0, 58, 64
2, 988500, Note_off_c, 0, 55, 64
2, 988500, Note_off_c, 0, 34, 64
2, 988500, Note_off_c, 0, 46, 64
2, 988500, Note_off_c, 0, 63, 64
2, 988500, Note_on_c, 0, 58, 100
2, 988500, Note_off_c, 0, 51, 64
2, 988500, Note_on_c, 0, 50, 100
2, 988500, Note_off_c, 0, 48, 64
2, 988500, Note_on_c, 0, 36, 100
2, 989000, Note_on_c, 0, 48, 100
2, 989000, Note_off_c, 0, 50, 64
2, 989500, Note_off_c, 0, 74, 64
2, 989500, Note_off_c, 0, 67, 64
2, 989500, Note_on_c, 0, 50, 100
2, 989500, Note_on_c, 0, 51, 100
2, 990000, Note_off_c, 0, 51, 64
2, 990000, Note_off_c, 0, 50, 64
2, 990000, Note_on_c, 0, 67, 100
2, 990000, Note_on_c, 0, 70, 100
2, 990000, Note_on_c, 0, 50, 100
2, 990000, Note_off_c, 0, 48, 64
2, 990500, Note_on_c, 0, 48, 100
2, 990500, Note_on_c, 0, 46, 100
2, 990500, Note_off_c, 0, 70, 64
2, 990500, Note_off_c, 0, 72, 64
2, 990500, Note_off_c, 0, 58, 64
2, 990500, Note_on_c, 0, 51, 100
2, 990500, Note_off_c, 0, 46, 64
2, 990500, Note_on_c, 0, 45, 100
2, 990500, Note_off_c, 0, 36, 64
2, 990500, Note_off_c, 0, 48, 64
2, 991000, Note_off_c, 0, 45, 64
2, 991000, Note_on_c, 0, 48, 100
2, 991500, Note_on_c, 0, 63, 100
2, 991500, Note_on_c, 0, 57, 100
2, 991500, Note_off_c, 0, 48, 64
2, 991500, Note_on_c, 0, 53, 100
2, 992000, Note_off_c, 0, 53, 64
2, 992000, Note_off_c, 0, 51, 64
2, 992000, Note_off_c, 0, 57, 64
2, 992000, Note_on_c, 0, 60, 100
2, 992000, Note_on_c, 0, 57, 100
2, 992000, Note_on_c, 0, 53, 100
2, 992000, Note_on_c, 0, 51, 100
2, 992000, Note_off_c, 0, 50, 64
2, 992000, Note_on_c, 0, 41, 100
2, 992000, Note_on_c, 0, 29, 100
2, 992500, Note_on_c, 0, 50, 100
2, 992500, Note_on_c, 0, 48, 100
2, 992500, Note_off_c, 0, 60, 64
2, 992500, Note_off_c, 0, 57, 64
2, 992500, Note_off_c, 0, 53, 64
2, 992500, Note_off_c, 0, 41, 64
2, 992500, Note_off_c, 0, 29, 64
2, 992500, Note_off_c, 0, 62, 64
2, 992500, Note_on_c, 0, 58, 100
2, 992500, Note_off_c, 0, 48, 64
2, 992500, Note_on_c, 0, 46, 100
2, 992500, Note_on_c, 0, 34, 100
2, 993000, Note_on_c, 0, 62, 100
2, 993000, Note_on_c, 0, 60, 100
2, 993000, Note_off_c, 0, 46, 64
2, 993000, Note_on_c, 0, 45, 100
2, 993500, Note_on_c, 0, 72, 100
2, 993500, Note_on_c, 0, 65, 100
2, 993500, Note_off_c, 0, 60, 64
2, 993500, Note_off_c, 0, 62, 64
2, 993500, Note_off_c, 0, 45, 64
2, 993500, Note_on_c, 0, 46, 100
2, 994000, Note_on_c, 0, 62, 100
2, 994000, Note_off_c, 0, 63, 64
2, 994000, Note_off_c, 0, 46, 64
2, 994000, Note_on_c, 0, 48, 100
2, 994000, Note_off_c, 0, 65, 64
2, 994000, Note_on_c, 0, 70, 100
2, 994000, Note_on_c, 0, 63, 100
2, 994000, Note_on_c, 0, 65, 100
2, 994000, Note_off_c, 0, 48, 64
2, 994000, Note_off_c, 0, 50, 64
2, 994500, Note_off_c, 0, 65, 64
2, 994500, Note_off_c, 0, 67, 64
2, 994500, Note_on_c, 0, 50, 100
2, 994500, Note_off_c, 0, 51, 64
2, 995000, Note_on_c, 0, 67, 100
2, 995000, Note_on_c, 0, 60, 100
2, 995000, Note_off_c, 0, 58, 64
2, 995000, Note_on_c, 0, 51, 100
2, 995000, Note_on_c, 0, 53, 100
2, 995000, Note_off_c, 0, 34, 64
2, 995000, Note_on_c, 0, 46, 100
2, 995500, Note_off_c, 0, 53, 64
2, 995500, Note_on_c, 0, 52, 100
2, 995500, Note_off_c, 0, 60, 64
2, 995500, Note_off_c, 0, 70, 64
2, 995500, Note_on_c, 0, 69, 100
2, 995500, Note_on_c, 0, 53, 100
2, 995500, Note_off_c, 0, 52, 64
2, 996000, Note_off_c, 0, 53, 64
2, 996000, Note_on_c, 0, 48, 100
2, 996000, Note_off_c, 0, 69, 64
2, 996000, Note_on_c, 0, 53, 100
2, 996000, Note_off_c, 0, 77, 64
2, 996000, Note_off_c, 0, 48, 64
2, 996000, Note_on_c, 0, 45, 100
2, 996500, Note_off_c, 0, 45, 64
2, 996500, Note_on_c, 0, 48, 100
2, 997000, Note_on_c, 0, 69, 100
2, 997000, Note_on_c, 0, 65, 100
2, 997000, Note_off_c, 0, 48, 64
2, 997000, Note_on_c, 0, 41, 100
2, 997000, Note_on_c, 0, 29, 100
2, 998500, Note_on_c, 0, 77, 100
2, 998500, Note_off_c, 0, 72, 64
2, 999500, Note_on_c, 0, 72, 100
2, 999500, Note_on_c, 0, 74, 100
2, 999500, Note_off_c, 0, 69, 64
2, 999500, Note_off_c, 0, 65, 64
2, 999500, Note_off_c, 0, 41, 64
2, 999500, Note_off_c, 0, 29, 64
2, 1001000, Note_off_c, 0, 74, 64
2, 1001000, Note_on_c, 0, 70, 100
2, 1001000, Note_on_c, 0, 65, 100
2, 1001000, Note_off_c, 0, 53, 64
2, 1001000, Note_on_c, 0, 41, 100
2, 1002500, Note_on_c, 0, 74, 100
2, 1002500, Note_off_c, 0, 72, 64
2, 1003500, Note_on_c, 0, 72, 100
2, 1003500, Note_off_c, 0, 77, 64
2, 1003500, Note_off_c, 0, 70, 64
2, 1003500, Note_off_c, 0, 65, 64
2, 1003500, Note_on_c, 0, 53, 100
2, 1003500, Note_off_c, 0, 41, 64
2, 1005000, Note_on_c, 0, 69, 100
2, 1005000, Note_on_c, 0, 60, 100
2, 1005000, Note_on_c, 0, 41, 100
2, 1005000, Note_on_c, 0, 29, 100
2, 1006500, Note_on_c, 0, 77, 100
2, 1006500, Note_off_c, 0, 72, 64
2, 1007500, Note_on_c, 0, 72, 100
2, 1007500, Note_off_c, 0, 74, 64
2, 1007500, Note_off_c, 0, 69, 64
2, 1007500, Note_off_c, 0, 60, 64
2, 1007500, Note_off_c, 0, 41, 64
2, 1007500, Note_off_c, 0, 29, 64
2, 1009000, Note_on_c, 0, 65, 100
2, 1009000, Note_on_c, 0, 58, 100
2, 1009000, Note_off_c, 0, 53, 64
2, 1009000, Note_on_c, 0, 41, 100
2, 1009500, Note_on_c, 0, 53, 100
2, 1009500, Note_on_c, 0, 48, 100
2, 1010000, Note_on_c, 0, 74, 100
2, 1010000, Note_off_c, 0, 72, 64
2, 1010000, Note_off_c, 0, 48, 64
2, 1010000, Note_off_c, 0, 50, 64
2, 1010500, Note_on_c, 0, 50, 100
2, 1010500, Note_off_c, 0, 51, 64
2, 1010500, Note_on_c, 0, 72, 100
2, 1010500, Note_on_c, 0, 75, 100
2, 1010500, Note_off_c, 0, 65, 64
2, 1010500, Note_off_c, 0, 58, 64
2, 1010500, Note_on_c, 0, 57, 100
2, 1010500, Note_on_c, 0, 51, 100
2, 1010500, Note_off_c, 0, 53, 64
2, 1010500, Note_off_c, 0, 41, 64
2, 1011000, Note_on_c, 0, 53, 100
2, 1011000, Note_on_c, 0, 55, 100
2, 1011000, Note_on_c, 0, 65, 100
2, 1011000, Note_off_c, 0, 57, 64
2, 1011000, Note_off_c, 0, 72, 64
2, 1011000, Note_off_c, 0, 53, 64
2, 1011000, Note_off_c, 0, 55, 64
2, 1011000, Note_on_c, 0, 57, 100
2, 1011500, Note_on_c, 0, 72, 100
2, 1011500, Note_off_c, 0, 74, 64
2, 1011500, Note_off_c, 0, 57, 64
2, 1011500, Note_on_c, 0, 58, 100
2, 1012000, Note_off_c, 0, 75, 64
2, 1012000, Note_on_c, 0, 69, 100
2, 1012000, Note_on_c, 0, 74, 100
2, 1012000, Note_off_c, 0, 58, 64
2, 1012000, Note_on_c, 0, 60, 100
2, 1012500, Note_on_c, 0, 75, 100
2, 1012500, Note_off_c, 0, 74, 64
2, 1012500, Note_off_c, 0, 60, 64
2, 1012500, Note_on_c, 0, 58, 100
2, 1012500, Note_off_c, 0, 69, 64
2, 1012500, Note_off_c, 0, 72, 64
2, 1012500, Note_on_c, 0, 74, 100
2, 1012500, Note_on_c, 0, 53, 100
2, 1012500, Note_off_c, 0, 65, 64
2, 1012500, Note_off_c, 0, 58, 64
2, 1012500, Note_on_c, 0, 57, 100
2, 1013000, Note_on_c, 0, 72, 100
2, 1013000, Note_on_c, 0, 70, 100
2, 1013000, Note_off_c, 0, 57, 64
2, 1013000, Note_on_c, 0, 55, 100
2, 1013000, Note_on_c, 0, 65, 100
2, 1013000, Note_off_c, 0, 70, 64
2, 1013000, Note_on_c, 0, 69, 100
2, 1013000, Note_off_c, 0, 53, 64
2, 1013000, Note_off_c, 0, 55, 64
2, 1013500, Note_off_c, 0, 69, 64
2, 1013500, Note_on_c, 0, 70, 100
2, 1013500, Note_on_c, 0, 53, 100
2, 1013500, Note_on_c, 0, 55, 100
2, 1014000, Note_off_c, 0, 72, 64
2, 1014000, Note_off_c, 0, 65, 64
2, 1014000, Note_off_c, 0, 70, 64
2, 1014000, Note_off_c, 0, 55, 64
2, 1014000, Note_on_c, 0, 57, 100
2, 1014500, Note_on_c, 0, 72, 100
2, 1014500, Note_on_c, 0, 70, 100
2, 1014500, Note_off_c, 0, 57, 64
2, 1014500, Note_on_c, 0, 55, 100
2, 1014500, Note_on_c, 0, 65, 100
2, 1014500, Note_on_c, 0, 69, 100
2, 1014500, Note_off_c, 0, 70, 64
2, 1014500, Note_off_c, 0, 53, 64
2, 1014500, Note_off_c, 0, 65, 64
2, 1014500, Note_off_c, 0, 55, 64
2, 1015000, Note_off_c, 0, 69, 64
2, 1015000, Note_off_c, 0, 67, 64
2, 1015000, Note_on_c, 0, 53, 100
2, 1015000, Note_off_c, 0, 51, 64
2, 1015000, Note_on_c, 0, 65, 100
2, 1015000, Note_on_c, 0, 67, 100
2, 1015000, Note_off_c, 0, 65, 64
2, 1015000, Note_off_c, 0, 53, 64
2, 1015000, Note_on_c, 0, 51, 100
2, 1015000, Note_off_c, 0, 50, 64
2, 1015500, Note_on_c, 0, 65, 100
2, 1015500, Note_off_c, 0, 67, 64
2, 1015500, Note_on_c, 0, 50, 100
2, 1015500, Note_off_c, 0, 51, 64
2, 1016000, Note_on_c, 0, 69, 100
2, 1016000, Note_off_c, 0, 72, 64
2, 1016000, Note_on_c, 0, 67, 100
2, 1016000, Note_on_c, 0, 51, 100
2, 1016000, Note_on_c, 0, 53, 100
2, 1016500, Note_off_c, 0, 69, 64
2, 1016500, Note_on_c, 0, 70, 100
2, 1016500, Note_off_c, 0, 53, 64
2, 1016500, Note_off_c, 0, 51, 64
2, 1016500, Note_on_c, 0, 72, 100
2, 1016500, Note_off_c, 0, 75, 64
2, 1016500, Note_off_c, 0, 70, 64
2, 1016500, Note_off_c, 0, 72, 64
2, 1016500, Note_on_c, 0, 53, 100
2, 1016500, Note_on_c, 0, 69, 100
2, 1016500, Note_off_c, 0, 65, 64
2, 1016500, Note_on_c, 0, 51, 100
2, 1016500, Note_off_c, 0, 50, 64
2, 1016500, Note_on_c, 0, 41, 100
2, 1016500, Note_on_c, 0, 29, 100
2, 1017000, Note_on_c, 0, 72, 100
2, 1017000, Note_off_c, 0, 69, 64
2, 1017000, Note_on_c, 0, 50, 100
2, 1017000, Note_on_c, 0, 48, 100
2, 1017000, Note_on_c, 0, 69, 100
2, 1017000, Note_on_c, 0, 65, 100
2, 1017000, Note_off_c, 0, 41, 64
2, 1017000, Note_off_c, 0, 29, 64
2, 1017000, Note_off_c, 0, 69, 64
2, 1017000, Note_on_c, 0, 70, 100
2, 1017000, Note_off_c, 0, 65, 64
2, 1017000, Note_off_c, 0, 53, 64
2, 1017000, Note_off_c, 0, 48, 64
2, 1017000, Note_off_c, 0, 46, 64
2, 1017000, Note_on_c, 0, 34, 100
2, 1017500, Note_on_c, 0, 46, 100
2, 1017500, Note_on_c, 0, 53, 100
2, 1017500, Note_off_c, 0, 70, 64
2, 1017500, Note_on_c, 0, 75, 100
2, 1017500, Note_off_c, 0, 74, 64
2, 1017500, Note_on_c, 0, 58, 100
2, 1017500, Note_off_c, 0, 53, 64
2, 1017500, Note_on_c, 0, 55, 100
2, 1018000, Note_off_c, 0, 55, 64
2, 1018000, Note_on_c, 0, 57, 100
2, 1018000, Note_on_c, 0, 74, 100
2, 1018000, Note_off_c, 0, 58, 64
2, 1018000, Note_on_c, 0, 58, 100
2, 1018000, Note_off_c, 0, 68, 64
2, 1018000, Note_on_c, 0, 65, 100
2, 1018000, Note_on_c, 0, 53, 100
2, 1018000, Note_off_c, 0, 62, 64
2, 1018000, Note_off_c, 0, 57, 64
2, 1018000, Note_off_c, 0, 34, 64
2, 1018000, Note_off_c, 0, 46, 64
2, 1018500, Note_off_c, 0, 58, 64
2, 1018500, Note_on_c, 0, 60, 100
2, 1018500, Note_on_c, 0, 58, 100
2, 1018500, Note_off_c, 0, 65, 64
2, 1018500, Note_on_c, 0, 62, 100
2, 1018500, Note_on_c, 0, 65, 100
2, 1018500, Note_off_c, 0, 58, 64
2, 1018500, Note_off_c, 0, 60, 64
2, 1018500, Note_off_c, 0, 62, 64
2, 1019000, Note_off_c, 0, 65, 64
2, 1019000, Note_off_c, 0, 67, 64
2, 1019000, Note_on_c, 0, 62, 100
2, 1019000, Note_off_c, 0, 63, 64
2, 1019500, Note_on_c, 0, 67, 100
2, 1019500, Note_on_c, 0, 68, 100
2, 1019500, Note_off_c, 0, 62, 64
2, 1019500, Note_on_c, 0, 63, 100
2, 1019500, Note_on_c, 0, 65, 100
2, 1020000, Note_off_c, 0, 68, 64
2, 1020000, Note_off_c, 0, 67, 64
2, 1020000, Note_off_c, 0, 65, 64
2, 1020000, Note_off_c, 0, 63, 64
2, 1020000, Note_on_c, 0, 62, 100
2, 1020000, Note_on_c, 0, 67, 100
2, 1020000, Note_on_c, 0, 65, 100
2, 1020000, Note_on_c, 0, 58, 100
2, 1020000, Note_on_c, 0, 70, 100
2, 1020000, Note_on_c, 0, 63, 100
2, 1020000, Note_off_c, 0, 62, 64
2, 1020500, Note_off_c, 0, 65, 64
2, 1020500, Note_off_c, 0, 63, 64
2, 1020500, Note_on_c, 0, 62, 100
2, 1020500, Note_on_c, 0, 60, 100
2, 1020500, Note_off_c, 0, 70, 64
2, 1020500, Note_on_c, 0, 63, 100
2, 1020500, Note_off_c, 0, 62, 64
2, 1020500, Note_off_c, 0, 58, 64
2, 1020500, Note_off_c, 0, 60, 64
2, 1021000, Note_on_c, 0, 62, 100
2, 1021000, Note_off_c, 0, 63, 64
2, 1021000, Note_on_c, 0, 58, 100
2, 1021000, Note_on_c, 0, 60, 100
2, 1021500, Note_on_c, 0, 63, 100
2, 1021500, Note_on_c, 0, 65, 100
2, 1021500, Note_off_c, 0, 58, 64
2, 1021500, Note_off_c, 0, 60, 64
2, 1021500, Note_off_c, 0, 62, 64
2, 1022000, Note_off_c, 0, 65, 64
2, 1022000, Note_off_c, 0, 63, 64
2, 1022000, Note_on_c, 0, 62, 100
2, 1022000, Note_on_c, 0, 60, 100
2, 1022000, Note_on_c, 0, 58, 100
2, 1022000, Note_on_c, 0, 63, 100
2, 1022000, Note_off_c, 0, 62, 64
2, 1022000, Note_off_c, 0, 58, 64
2, 1022000, Note_on_c, 0, 70, 100
2, 1022000, Note_off_c, 0, 60, 64
2, 1022500, Note_on_c, 0, 62, 100
2, 1022500, Note_on_c, 0, 60, 100
2, 1022500, Note_on_c, 0, 58, 100
2, 1022500, Note_on_c, 0, 56, 100
2, 1022500, Note_off_c, 0, 70, 64
2, 1022500, Note_off_c, 0, 60, 64
2, 1022500, Note_off_c, 0, 58, 64
2, 1022500, Note_off_c, 0, 56, 64
2, 1022500, Note_on_c, 0, 55, 100
2, 1023000, Note_on_c, 0, 58, 100
2, 1023000, Note_on_c, 0, 60, 100
2, 1023000, Note_off_c, 0, 55, 64
2, 1023000, Note_on_c, 0, 56, 100
2, 1023500, Note_off_c, 0, 60, 64
2, 1023500, Note_off_c, 0, 62, 64
2, 1023500, Note_on_c, 0, 65, 100
2, 1023500, Note_off_c, 0, 56, 64
2, 1023500, Note_off_c, 0, 58, 64
2, 1024000, Note_on_c, 0, 62, 100
2, 1024000, Note_off_c, 0, 63, 64
2, 1024000, Note_on_c, 0, 58, 100
2, 1024000, Note_on_c, 0, 56, 100
2, 1024000, Note_off_c, 0, 65, 64
2, 1024000, Note_on_c, 0, 63, 100
2, 1024000, Note_on_c, 0, 65, 100
2, 1024000, Note_on_c, 0, 68, 100
2, 1024000, Note_off_c, 0, 58, 64
2, 1024000, Note_on_c, 0, 70, 100
2, 1024000, Note_off_c, 0, 62, 64
2, 1024000, Note_off_c, 0, 56, 64
2, 1024000, Note_on_c, 0, 55, 100
2, 1024000, Note_on_c, 0, 34, 100
2, 1024000, Note_on_c, 0, 46, 100
2, 1024500, Note_off_c, 0, 65, 64
2, 1024500, Note_on_c, 0, 62, 100
2, 1024500, Note_off_c, 0, 55, 64
2, 1024500, Note_off_c, 0, 53, 64
2, 1024500, Note_off_c, 0, 70, 64
2, 1024500, Note_off_c, 0, 62, 64
2, 1024500, Note_off_c, 0, 34, 64
2, 1024500, Note_off_c, 0, 46, 64
2, 1024500, Note_on_c, 0, 62, 100
2, 1024500, Note_off_c, 0, 63, 64
2, 1024500, Note_on_c, 0, 58, 100
2, 1024500, Note_on_c, 0, 53, 100
2, 1024500, Note_off_c, 0, 51, 64
2, 1024500, Note_on_c, 0, 39, 100
2, 1025000, Note_on_c, 0, 51, 100
2, 1025000, Note_on_c, 0, 52, 100
2, 1025000, Note_on_c, 0, 63, 100
2, 1025000, Note_off_c, 0, 51, 64
2, 1025000, Note_off_c, 0, 68, 64
2, 1025000, Note_off_c, 0, 67, 64
2, 1025000, Note_off_c, 0, 52, 64
2, 1025000, Note_on_c, 0, 55, 100
2, 1025500, Note_off_c, 0, 55, 64
2, 1025500, Note_on_c, 0, 52, 100
2, 1025500, Note_on_c, 0, 51, 100
2, 1025500, Note_on_c, 0, 67, 100
2, 1025500, Note_off_c, 0, 67, 64
2, 1025500, Note_off_c, 0, 58, 64
2, 1025500, Note_off_c, 0, 52, 64
2, 1025500, Note_off_c, 0, 51, 64
2, 1025500, Note_off_c, 0, 39, 64
2, 1026000, Note_on_c, 0, 51, 100
2, 1026000, Note_off_c, 0, 50, 64
2, 1026500, Note_on_c, 0, 60, 100
2, 1026500, Note_on_c, 0, 55, 100
2, 1026500, Note_on_c, 0, 50, 100
2, 1026500, Note_on_c, 0, 48, 100
2, 1026500, Note_on_c, 0, 40, 100
2, 1026500, Note_on_c, 0, 52, 100
2, 1027000, Note_off_c, 0, 48, 64
2, 1027000, Note_off_c, 0, 50, 64
2, 1027500, Note_on_c, 0, 67, 100
2, 1027500, Note_off_c, 0, 60, 64
2, 1027500, Note_on_c, 0, 50, 100
2, 1027500, Note_off_c, 0, 52, 64
2, 1028000, Note_on_c, 0, 52, 100
2, 1028000, Note_off_c, 0, 50, 64
2, 1028000, Note_on_c, 0, 60, 100
2, 1028000, Note_on_c, 0, 70, 100
2, 1028000, Note_off_c, 0, 60, 64
2, 1028000, Note_off_c, 0, 55, 64
2, 1028000, Note_on_c, 0, 50, 100
2, 1028000, Note_off_c, 0, 52, 64
2, 1028000, Note_off_c, 0, 40, 64
2, 1028500, Note_on_c, 0, 52, 100
2, 1028500, Note_on_c, 0, 48, 100
2, 1029000, Note_on_c, 0, 60, 100
2, 1029000, Note_off_c, 0, 53, 64
2, 1029000, Note_off_c, 0, 48, 64
2, 1029000, Note_on_c, 0, 41, 100
2, 1029500, Note_on_c, 0, 53, 100
2, 1029500, Note_on_c, 0, 55, 100
2, 1030000, Note_off_c, 0, 70, 64
2, 1030000, Note_on_c, 0, 69, 100
2, 1030000, Note_off_c, 0, 55, 64
2, 1030000, Note_on_c, 0, 57, 100
2, 1030500, Note_off_c, 0, 57, 64
2, 1030500, Note_on_c, 0, 55, 100
2, 1030500, Note_off_c, 0, 69, 64
2, 1030500, Note_on_c, 0, 69, 100
2, 1030500, Note_off_c, 0, 60, 64
2, 1030500, Note_off_c, 0, 53, 64
2, 1030500, Note_off_c, 0, 55, 64
2, 1030500, Note_off_c, 0, 41, 64
2, 1031000, Note_on_c, 0, 53, 100
2, 1031000, Note_off_c, 0, 51, 64
2, 1031500, Note_off_c, 0, 62, 64
2, 1031500, Note_on_c, 0, 57, 100
2, 1031500, Note_on_c, 0, 51, 100
2, 1031500, Note_off_c, 0, 50, 64
2, 1031500, Note_on_c, 0, 42, 100
2, 1031500, Note_off_c, 0, 54, 64
2, 1032000, Note_on_c, 0, 50, 100
2, 1032000, Note_off_c, 0, 52, 64
2, 1032500, Note_off_c, 0, 69, 64
2, 1032500, Note_on_c, 0, 62, 100
2, 1032500, Note_on_c, 0, 52, 100
2, 1032500, Note_on_c, 0, 54, 100
2, 1033000, Note_off_c, 0, 54, 64
2, 1033000, Note_off_c, 0, 52, 64
2, 1033000, Note_off_c, 0, 62, 64
2, 1033000, Note_off_c, 0, 72, 64
2, 1033000, Note_on_c, 0, 62, 100
2, 1033000, Note_off_c, 0, 57, 64
2, 1033000, Note_on_c, 0, 52, 100
2, 1033000, Note_on_c, 0, 54, 100
2, 1033000, Note_off_c, 0, 42, 64
2, 1033500, Note_off_c, 0, 54, 64
2, 1033500, Note_off_c, 0, 50, 64
2, 1034000, Note_off_c, 0, 62, 64
2, 1034000, Note_on_c, 0, 55, 100
2, 1034000, Note_on_c, 0, 50, 100
2, 1034000, Note_on_c, 0, 43, 100
2, 1034500, Note_off_c, 0, 55, 64
2, 1034500, Note_on_c, 0, 54, 100
2, 1035000, Note_on_c, 0, 72, 100
2, 1035000, Note_on_c, 0, 70, 100
2, 1035000, Note_off_c, 0, 54, 64
2, 1035000, Note_on_c, 0, 55, 100
2, 1035500, Note_off_c, 0, 55, 64
2, 1035500, Note_on_c, 0, 57, 100
2, 1035500, Note_off_c, 0, 70, 64
2, 1035500, Note_off_c, 0, 74, 64
2, 1035500, Note_on_c, 0, 62, 100
2, 1035500, Note_on_c, 0, 55, 100
2, 1035500, Note_off_c, 0, 57, 64
2, 1035500, Note_on_c, 0, 58, 100
2, 1035500, Note_off_c, 0, 43, 64
2, 1036000, Note_off_c, 0, 58, 64
2, 1036000, Note_off_c, 0, 55, 64
2, 1036500, Note_off_c, 0, 63, 64
2, 1036500, Note_on_c, 0, 65, 100
2, 1036500, Note_on_c, 0, 60, 100
2, 1036500, Note_on_c, 0, 55, 100
2, 1036500, Note_on_c, 0, 57, 100
2, 1036500, Note_on_c, 0, 45, 100
2, 1037000, Note_off_c, 0, 57, 64
2, 1037000, Note_off_c, 0, 55, 64
2, 1037500, Note_on_c, 0, 74, 100
2, 1037500, Note_off_c, 0, 72, 64
2, 1037500, Note_on_c, 0, 55, 100
2, 1037500, Note_on_c, 0, 57, 100
2, 1038000, Note_off_c, 0, 57, 64
2, 1038000, Note_on_c, 0, 58, 100
2, 1038000, Note_on_c, 0, 72, 100
2, 1038000, Note_off_c, 0, 75, 64
2, 1038000, Note_on_c, 0, 63, 100
2, 1038000, Note_off_c, 0, 60, 64
2, 1038000, Note_off_c, 0, 65, 64
2, 1038000, Note_off_c, 0, 58, 64
2, 1038000, Note_off_c, 0, 45, 64
2, 1038000, Note_on_c, 0, 57, 100
2, 1038500, Note_on_c, 0, 60, 100
2, 1038500, Note_off_c, 0, 57, 64
2, 1038500, Note_off_c, 0, 60, 64
2, 1038500, Note_on_c, 0, 65, 100
2, 1038500, Note_on_c, 0, 58, 100
2, 1038500, Note_on_c, 0, 57, 100
2, 1038500, Note_on_c, 0, 46, 100
2, 1039000, Note_off_c, 0, 58, 64
2, 1039000, Note_off_c, 0, 57, 64
2, 1039500, Note_on_c, 0, 75, 100
2, 1039500, Note_off_c, 0, 74, 64
2, 1039500, Note_on_c, 0, 57, 100
2, 1039500, Note_on_c, 0, 58, 100
2, 1040000, Note_off_c, 0, 58, 64
2, 1040000, Note_on_c, 0, 60, 100
2, 1040000, Note_on_c, 0, 74, 100
2, 1040000, Note_off_c, 0, 77, 64
2, 1040000, Note_off_c, 0, 65, 64
2, 1040000, Note_off_c, 0, 62, 64
2, 1040000, Note_on_c, 0, 58, 100
2, 1040000, Note_off_c, 0, 60, 64
2, 1040000, Note_off_c, 0, 46, 64
2, 1040500, Note_on_c, 0, 62, 100
2, 1040500, Note_off_c, 0, 58, 64
2, 1040500, Note_off_c, 0, 62, 64
2, 1040500, Note_off_c, 0, 67, 64
2, 1040500, Note_on_c, 0, 58, 100
2, 1040500, Note_off_c, 0, 55, 64
2, 1040500, Note_off_c, 0, 51, 64
2, 1040500, Note_on_c, 0, 39, 100
2, 1041000, Note_on_c, 0, 51, 100
2, 1041000, Note_off_c, 0, 50, 64
2, 1041500, Note_on_c, 0, 77, 100
2, 1041500, Note_off_c, 0, 75, 64
2, 1041500, Note_on_c, 0, 50, 100
2, 1041500, Note_off_c, 0, 51, 64
2, 1042000, Note_on_c, 0, 75, 100
2, 1042000, Note_off_c, 0, 74, 64
2, 1042000, Note_on_c, 0, 67, 100
2, 1042000, Note_on_c, 0, 65, 100
2, 1042000, Note_on_c, 0, 51, 100
2, 1042000, Note_off_c, 0, 53, 64
2, 1042500, Note_on_c, 0, 74, 100
2, 1042500, Note_off_c, 0, 72, 64
2, 1042500, Note_off_c, 0, 65, 64
2, 1042500, Note_off_c, 0, 63, 64
2, 1042500, Note_off_c, 0, 58, 64
2, 1042500, Note_on_c, 0, 55, 100
2, 1042500, Note_on_c, 0, 53, 100
2, 1042500, Note_off_c, 0, 39, 64
2, 1042500, Note_off_c, 0, 51, 64
2, 1043000, Note_on_c, 0, 72, 100
2, 1043000, Note_on_c, 0, 70, 100
2, 1043000, Note_on_c, 0, 63, 100
2, 1043000, Note_on_c, 0, 62, 100
2, 1043000, Note_off_c, 0, 55, 64
2, 1043000, Note_on_c, 0, 51, 100
2, 1043500, Note_off_c, 0, 70, 64
2, 1043500, Note_on_c, 0, 69, 100
2, 1043500, Note_off_c, 0, 62, 64
2, 1043500, Note_on_c, 0, 60, 100
2, 1043500, Note_on_c, 0, 65, 100
2, 1043500, Note_off_c, 0, 51, 64
2, 1043500, Note_off_c, 0, 53, 64
2, 1043500, Note_on_c, 0, 41, 100
2, 1044000, Note_off_c, 0, 69, 64
2, 1044000, Note_off_c, 0, 67, 64
2, 1044000, Note_off_c, 0, 60, 64
2, 1044000, Note_on_c, 0, 58, 100
2, 1044000, Note_on_c, 0, 53, 100
2, 1044000, Note_on_c, 0, 67, 100
2, 1044000, Note_off_c, 0, 65, 64
2, 1044000, Note_off_c, 0, 58, 64
2, 1044000, Note_off_c, 0, 57, 64
2, 1044000, Note_off_c, 0, 41, 64
2, 1044500, Note_on_c, 0, 65, 100
2, 1044500, Note_off_c, 0, 63, 64
2, 1044500, Note_on_c, 0, 57, 100
2, 1044500, Note_on_c, 0, 55, 100
2, 1044500, Note_on_c, 0, 41, 100
2, 1044500, Note_on_c, 0, 63, 100
2, 1044500, Note_on_c, 0, 62, 100
2, 1044500, Note_off_c, 0, 55, 64
2, 1044500, Note_off_c, 0, 53, 64
2, 1044500, Note_off_c, 0, 65, 64
2, 1044500, Note_on_c, 0, 60, 100
2, 1044500, Note_off_c, 0, 41, 64
2, 1045000, Note_off_c, 0, 62, 64
2, 1045000, Note_off_c, 0, 60, 64
2, 1045000, Note_on_c, 0, 53, 100
2, 1045000, Note_on_c, 0, 51, 100
2, 1045000, Note_off_c, 0, 53, 64
2, 1045000, Note_on_c, 0, 60, 100
2, 1045000, Note_on_c, 0, 58, 100
2, 1045000, Note_off_c, 0, 51, 64
2, 1045000, Note_off_c, 0, 50, 64
2, 1045000, Note_on_c, 0, 46, 100
2, 1045500, Note_off_c, 0, 58, 64
2, 1045500, Note_off_c, 0, 57, 64
2, 1045500, Note_on_c, 0, 50, 100
2, 1045500, Note_on_c, 0, 57, 100
2, 1045500, Note_on_c, 0, 58, 100
2, 1045500, Note_off_c, 0, 46, 64
2, 1045500, Note_off_c, 0, 50, 64
2, 1046000, Note_on_c, 0, 53, 100
2, 1046000, Note_off_c, 0, 58, 64
2, 1046000, Note_on_c, 0, 50, 100
2, 1046000, Note_off_c, 0, 53, 64
2, 1046000, Note_on_c, 0, 55, 100
2, 1046500, Note_off_c, 0, 55, 64
2, 1046500, Note_off_c, 0, 57, 64
2, 1046500, Note_on_c, 0, 53, 100
2, 1046500, Note_on_c, 0, 57, 100
2, 1046500, Note_on_c, 0, 58, 100
2, 1046500, Note_on_c, 0, 45, 100
2, 1047000, Note_off_c, 0, 58, 64
2, 1047000, Note_off_c, 0, 57, 64
2, 1047500, Note_on_c, 0, 57, 100
2, 1047500, Note_on_c, 0, 58, 100
2, 1047500, Note_off_c, 0, 45, 64
2, 1047500, Note_off_c, 0, 50, 64
2, 1048000, Note_off_c, 0, 53, 64
2, 1048000, Note_off_c, 0, 58, 64
2, 1048000, Note_on_c, 0, 50, 100
2, 1048000, Note_on_c, 0, 53, 100
2, 1048000, Note_on_c, 0, 55, 100
2, 1048500, Note_off_c, 0, 55, 64
2, 1048500, Note_off_c, 0, 57, 64
2, 1048500, Note_off_c, 0, 53, 64
2, 1048500, Note_on_c, 0, 57, 100
2, 1048500, Note_on_c, 0, 58, 100
2, 1048500, Note_on_c, 0, 43, 100
2, 1049000, Note_off_c, 0, 58, 64
2, 1049000, Note_off_c, 0, 57, 64
2, 1049500, Note_on_c, 0, 57, 100
2, 1049500, Note_on_c, 0, 58, 100
2, 1049500, Note_off_c, 0, 43, 64
2, 1049500, Note_on_c, 0, 46, 100
2, 1050000, Note_on_c, 0, 53, 100
2, 1050000, Note_off_c, 0, 58, 64
2, 1050000, Note_off_c, 0, 46, 64
2, 1050000, Note_off_c, 0, 53, 64
2, 1050000, Note_on_c, 0, 55, 100
2, 1050000, Note_off_c, 0, 50, 64
2, 1050500, Note_off_c, 0, 55, 64
2, 1050500, Note_off_c, 0, 57, 64
2, 1050500, Note_on_c, 0, 50, 100
2, 1050500, Note_on_c, 0, 57, 100
2, 1050500, Note_on_c, 0, 58, 100
2, 1050500, Note_on_c, 0, 41, 100
2, 1051000, Note_off_c, 0, 58, 64
2, 1051000, Note_off_c, 0, 57, 64
2, 1051500, Note_on_c, 0, 57, 100
2, 1051500, Note_on_c, 0, 58, 100
2, 1051500, Note_off_c, 0, 41, 64
2, 1051500, Note_on_c, 0, 46, 100
2, 1052000, Note_on_c, 0, 55, 100
2, 1052000, Note_off_c, 0, 58, 64
2, 1052000, Note_off_c, 0, 46, 64
2, 1052000, Note_off_c, 0, 55, 64
2, 1052000, Note_off_c, 0, 57, 64
2, 1052000, Note_off_c, 0, 50, 64
2, 1052500, Note_on_c, 0, 57, 100
2, 1052500, Note_on_c, 0, 58, 100
2, 1052500, Note_on_c, 0, 50, 100
2, 1052500, Note_off_c, 0, 58, 64
2, 1052500, Note_off_c, 0, 60, 64
2, 1052500, Note_on_c, 0, 39, 100
2, 1053000, Note_on_c, 0, 60, 100
2, 1053000, Note_on_c, 0, 58, 100
2, 1053500, Note_off_c, 0, 58, 64
2, 1053500, Note_off_c, 0, 60, 64
2, 1053500, Note_off_c, 0, 39, 64
2, 1053500, Note_on_c, 0, 43, 100
2, 1054000, Note_on_c, 0, 60, 100
2, 1054000, Note_on_c, 0, 58, 100
2, 1054000, Note_on_c, 0, 55, 100
2, 1054000, Note_off_c, 0, 43, 64
2, 1054000, Note_off_c, 0, 58, 64
2, 1054000, Note_off_c, 0, 57, 64
2, 1054000, Note_off_c, 0, 55, 64
2, 1054000, Note_on_c, 0, 48, 100
2, 1054500, Note_on_c, 0, 57, 100
2, 1054500, Note_on_c, 0, 55, 100
2, 1054500, Note_on_c, 0, 58, 100
2, 1054500, Note_off_c, 0, 48, 64
2, 1054500, Note_off_c, 0, 55, 64
2, 1054500, Note_on_c, 0, 53, 100
2, 1054500, Note_off_c, 0, 58, 64
2, 1054500, Note_off_c, 0, 60, 64
2, 1054500, Note_on_c, 0, 45, 100
2, 1055000, Note_on_c, 0, 60, 100
2, 1055000, Note_on_c, 0, 58, 100
2, 1055000, Note_off_c, 0, 53, 64
2, 1055000, Note_off_c, 0, 57, 64
2, 1055000, Note_off_c, 0, 58, 64
2, 1055000, Note_off_c, 0, 60, 64
2, 1055000, Note_off_c, 0, 45, 64
2, 1055000, Note_on_c, 0, 48, 100
2, 1055500, Note_on_c, 0, 60, 100
2, 1055500, Note_on_c, 0, 58, 100
2, 1055500, Note_on_c, 0, 57, 100
2, 1055500, Note_off_c, 0, 48, 64
2, 1055500, Note_off_c, 0, 60, 64
2, 1055500, Note_off_c, 0, 58, 64
2, 1055500, Note_off_c, 0, 57, 64
2, 1055500, Note_on_c, 0, 41, 100
2, 1056000, Note_on_c, 0, 57, 100
2, 1056000, Note_on_c, 0, 55, 100
2, 1056000, Note_on_c, 0, 60, 100
2, 1056000, Note_off_c, 0, 41, 64
2, 1056000, Note_on_c, 0, 62, 100
2, 1056000, Note_off_c, 0, 55, 64
2, 1056000, Note_on_c, 0, 53, 100
2, 1056000, Note_on_c, 0, 46, 100
2, 1056500, Note_off_c, 0, 62, 64
2, 1056500, Note_off_c, 0, 60, 64
2, 1056500, Note_off_c, 0, 53, 64
2, 1056500, Note_on_c, 0, 51, 100
2, 1057000, Note_on_c, 0, 60, 100
2, 1057000, Note_on_c, 0, 62, 100
2, 1057000, Note_off_c, 0, 51, 64
2, 1057000, Note_on_c, 0, 53, 100
2, 1057000, Note_off_c, 0, 46, 64
2, 1057000, Note_off_c, 0, 50, 64
2, 1057500, Note_off_c, 0, 62, 64
2, 1057500, Note_off_c, 0, 63, 64
2, 1057500, Note_off_c, 0, 53, 64
2, 1057500, Note_on_c, 0, 55, 100
2, 1057500, Note_on_c, 0, 50, 100
2, 1057500, Note_on_c, 0, 63, 100
2, 1057500, Note_on_c, 0, 62, 100
2, 1057500, Note_off_c, 0, 55, 64
2, 1057500, Note_on_c, 0, 53, 100
2, 1058000, Note_off_c, 0, 62, 64
2, 1058000, Note_off_c, 0, 60, 64
2, 1058000, Note_off_c, 0, 53, 64
2, 1058000, Note_on_c, 0, 51, 100
2, 1058000, Note_on_c, 0, 53, 100
2, 1058000, Note_on_c, 0, 60, 100
2, 1058000, Note_on_c, 0, 58, 100
2, 1058000, Note_off_c, 0, 51, 64
2, 1058000, Note_off_c, 0, 50, 64
2, 1058500, Note_off_c, 0, 58, 64
2, 1058500, Note_on_c, 0, 62, 100
2, 1059000, Note_off_c, 0, 62, 64
2, 1059000, Note_on_c, 0, 65, 100
2, 1059000, Note_on_c, 0, 58, 100
2, 1059000, Note_off_c, 0, 57, 64
2, 1059500, Note_off_c, 0, 65, 64
2, 1059500, Note_on_c, 0, 70, 100
2, 1059500, Note_on_c, 0, 57, 100
2, 1059500, Note_off_c, 0, 70, 64
2, 1059500, Note_off_c, 0, 74, 64
2, 1059500, Note_on_c, 0, 50, 100
2, 1059500, Note_off_c, 0, 77, 64
2, 1059500, Note_off_c, 0, 58, 64
2, 1060000, Note_on_c, 0, 74, 100
2, 1060000, Note_off_c, 0, 75, 64
2, 1060000, Note_on_c, 0, 58, 100
2, 1060000, Note_on_c, 0, 75, 100
2, 1060000, Note_on_c, 0, 77, 100
2, 1060000, Note_on_c, 0, 70, 100
2, 1060000, Note_on_c, 0, 65, 100
2, 1060000, Note_off_c, 0, 50, 64
2, 1060000, Note_on_c, 0, 38, 100
2, 1061000, Note_off_c, 0, 77, 64
2, 1061000, Note_off_c, 0, 70, 64
2, 1062000, Note_on_c, 0, 70, 100
2, 1062000, Note_off_c, 0, 74, 64
2, 1062000, Note_off_c, 0, 70, 64
2, 1062000, Note_off_c, 0, 65, 64
2, 1062000, Note_on_c, 0, 50, 100
2, 1062000, Note_off_c, 0, 38, 64
2, 1063500, Note_on_c, 0, 70, 100
2, 1063500, Note_on_c, 0, 65, 100
2, 1063500, Note_on_c, 0, 55, 100
2, 1063500, Note_on_c, 0, 43, 100
2, 1065000, Note_on_c, 0, 74, 100
2, 1065000, Note_off_c, 0, 67, 64
2, 1066000, Note_on_c, 0, 67, 100
2, 1066000, Note_off_c, 0, 75, 64
2, 1066000, Note_off_c, 0, 70, 64
2, 1066000, Note_off_c, 0, 65, 64
2, 1066000, Note_off_c, 0, 55, 64
2, 1066000, Note_off_c, 0, 43, 64
2, 1067500, Note_on_c, 0, 70, 100
2, 1067500, Note_off_c, 0, 63, 64
2, 1067500, Note_on_c, 0, 48, 100
2, 1067500, Note_on_c, 0, 36, 100
2, 1069000, Note_on_c, 0, 75, 100
2, 1069000, Note_on_c, 0, 69, 100
2, 1070000, Note_off_c, 0, 69, 64
2, 1070000, Note_off_c, 0, 72, 64
2, 1070000, Note_off_c, 0, 70, 64
2, 1070000, Note_on_c, 0, 63, 100
2, 1070000, Note_off_c, 0, 48, 64
2, 1070000, Note_off_c, 0, 36, 64
2, 1071500, Note_on_c, 0, 69, 100
2, 1071500, Note_on_c, 0, 65, 100
2, 1071500, Note_off_c, 0, 53, 64
2, 1071500, Note_on_c, 0, 41, 100
2, 1073000, Note_on_c, 0, 72, 100
2, 1073000, Note_off_c, 0, 65, 64
2, 1074000, Note_on_c, 0, 65, 100
2, 1074000, Note_off_c, 0, 74, 64
2, 1074000, Note_off_c, 0, 69, 64
2, 1074000, Note_off_c, 0, 65, 64
2, 1074000, Note_on_c, 0, 53, 100
2, 1074000, Note_off_c, 0, 41, 64
2, 1075500, Note_on_c, 0, 70, 100
2, 1075500, Note_on_c, 0, 65, 100
2, 1075500, Note_on_c, 0, 46, 100
2, 1075500, Note_on_c, 0, 34, 100
2, 1076000, Note_on_c, 0, 74, 100
2, 1076000, Note_off_c, 0, 70, 64
2, 1076500, Note_on_c, 0, 70, 100
2, 1076500, Note_on_c, 0, 69, 100
2, 1076500, Note_off_c, 0, 74, 64
2, 1076500, Note_off_c, 0, 65, 64
2, 1077000, Note_off_c, 0, 69, 64
2, 1077000, Note_off_c, 0, 67, 64
2, 1077000, Note_on_c, 0, 65, 100
2, 1077000, Note_on_c, 0, 67, 100
2, 1077000, Note_off_c, 0, 65, 64
2, 1077000, Note_off_c, 0, 70, 64
2, 1077000, Note_off_c, 0, 46, 64
2, 1077000, Note_off_c, 0, 58, 64
2, 1077000, Note_off_c, 0, 34, 64
2, 1077500, Note_on_c, 0, 65, 100
2, 1077500, Note_off_c, 0, 63, 64
2, 1077500, Note_on_c, 0, 58, 100
2, 1077500, Note_on_c, 0, 63, 100
2, 1077500, Note_on_c, 0, 62, 100
2, 1077500, Note_on_c, 0, 46, 100
2, 1078000, Note_off_c, 0, 62, 64
2, 1078000, Note_off_c, 0, 67, 64
2, 1078500, Note_on_c, 0, 67, 100
2, 1078500, Note_off_c, 0, 65, 64
2, 1078500, Note_on_c, 0, 70, 100
2, 1078500, Note_on_c, 0, 62, 100
2, 1079000, Note_on_c, 0, 65, 100
2, 1079000, Note_off_c, 0, 63, 64
2, 1079000, Note_off_c, 0, 62, 64
2, 1079000, Note_on_c, 0, 63, 100
2, 1079000, Note_on_c, 0, 62, 100
2, 1079000, Note_off_c, 0, 65, 64
2, 1079000, Note_off_c, 0, 46, 64
2, 1079000, Note_off_c, 0, 58, 64
2, 1079500, Note_off_c, 0, 62, 64
2, 1079500, Note_off_c, 0, 60, 64
2, 1079500, Note_on_c, 0, 58, 100
2, 1079500, Note_on_c, 0, 60, 100
2, 1079500, Note_off_c, 0, 58, 64
2, 1079500, Note_on_c, 0, 46, 100
2, 1080000, Note_on_c, 0, 58, 100
2, 1080000, Note_off_c, 0, 53, 64
2, 1080500, Note_on_c, 0, 53, 100
2, 1080500, Note_on_c, 0, 55, 100
2, 1080500, Note_on_c, 0, 65, 100
2, 1080500, Note_off_c, 0, 58, 64
2, 1081000, Note_off_c, 0, 55, 64
2, 1081000, Note_off_c, 0, 57, 64
2, 1081000, Note_on_c, 0, 58, 100
2, 1081000, Note_on_c, 0, 57, 100
2, 1081000, Note_off_c, 0, 58, 64
2, 1081000, Note_on_c, 0, 62, 100
2, 1081000, Note_off_c, 0, 46, 64
2, 1081500, Note_on_c, 0, 58, 100
2, 1081500, Note_off_c, 0, 60, 64
2, 1081500, Note_off_c, 0, 62, 64
2, 1081500, Note_off_c, 0, 58, 64
2, 1081500, Note_on_c, 0, 60, 100
2, 1081500, Note_on_c, 0, 62, 100
2, 1081500, Note_off_c, 0, 65, 64
2, 1081500, Note_on_c, 0, 46, 100
2, 1082000, Note_off_c, 0, 62, 64
2, 1082000, Note_off_c, 0, 60, 64
2, 1082000, Note_on_c, 0, 65, 100
2, 1082000, Note_on_c, 0, 60, 100
2, 1082000, Note_on_c, 0, 58, 100
2, 1082000, Note_on_c, 0, 62, 100
2, 1082500, Note_off_c, 0, 58, 64
2, 1082500, Note_off_c, 0, 60, 64
2, 1082500, Note_off_c, 0, 62, 64
2, 1082500, Note_on_c, 0, 60, 100
2, 1082500, Note_on_c, 0, 62, 100
2, 1082500, Note_off_c, 0, 65, 64
2, 1082500, Note_off_c, 0, 46, 64
2, 1082500, Note_on_c, 0, 58, 100
2, 1083000, Note_off_c, 0, 62, 64
2, 1083000, Note_off_c, 0, 63, 64
2, 1083000, Note_on_c, 0, 65, 100
2, 1083000, Note_off_c, 0, 58, 64
2, 1083000, Note_on_c, 0, 63, 100
2, 1083000, Note_off_c, 0, 65, 64
2, 1083000, Note_off_c, 0, 70, 64
2, 1083000, Note_on_c, 0, 62, 100
2, 1083000, Note_on_c, 0, 58, 100
2, 1083000, Note_on_c, 0, 46, 100
2, 1083000, Note_on_c, 0, 34, 100
2, 1084000, Note_on_c, 0, 65, 100
2, 1084000, Note_on_c, 0, 70, 100
2, 1084000, Note_off_c, 0, 58, 64
2, 1084000, Note_off_c, 0, 65, 64
2, 1085000, Note_on_c, 0, 58, 100
2, 1085000, Note_on_c, 0, 65, 100
2, 1085000, Note_off_c, 0, 67, 64
2, 1085000, Note_off_c, 0, 62, 64
2, 1085000, Note_off_c, 0, 58, 64
2, 1085000, Note_off_c, 0, 46, 64
2, 1085000, Note_off_c, 0, 34, 64
2, 1086500, Note_off_c, 0, 63, 64
2, 1086500, Note_on_c, 0, 58, 100
2, 1086500, Note_on_c, 0, 46, 100
2, 1088000, Note_on_c, 0, 67, 100
2, 1088000, Note_off_c, 0, 65, 64
2, 1088500, Note_on_c, 0, 65, 100
2, 1088500, Note_on_c, 0, 63, 100
2, 1088500, Note_off_c, 0, 65, 64
2, 1088500, Note_off_c, 0, 70, 64
2, 1088500, Note_off_c, 0, 63, 64
2, 1088500, Note_on_c, 0, 62, 100
2, 1088500, Note_off_c, 0, 58, 64
2, 1088500, Note_off_c, 0, 46, 64
2, 1089000, Note_off_c, 0, 62, 64
2, 1089000, Note_off_c, 0, 60, 64
2, 1089500, Note_on_c, 0, 60, 100
2, 1089500, Note_on_c, 0, 62, 100
2, 1089500, Note_on_c, 0, 65, 100
2, 1089500, Note_on_c, 0, 58, 100
2, 1089500, Note_on_c, 0, 46, 100
2, 1089500, Note_on_c, 0, 34, 100
2, 1090000, Note_off_c, 0, 62, 64
2, 1090000, Note_on_c, 0, 63, 100
2, 1090500, Note_on_c, 0, 70, 100
2, 1090500, Note_off_c, 0, 65, 64
2, 1090500, Note_off_c, 0, 63, 64
2, 1091000, Note_on_c, 0, 65, 100
2, 1091000, Note_on_c, 0, 63, 100
2, 1091000, Note_off_c, 0, 65, 64
2, 1091000, Note_off_c, 0, 67, 64
2, 1091000, Note_off_c, 0, 63, 64
2, 1091000, Note_on_c, 0, 62, 100
2, 1091000, Note_on_c, 0, 65, 100
2, 1091000, Note_off_c, 0, 58, 64
2, 1091000, Note_off_c, 0, 46, 64
2, 1091000, Note_off_c, 0, 34, 64
2, 1091500, Note_off_c, 0, 62, 64
2, 1091500, Note_off_c, 0, 60, 64
2, 1092000, Note_on_c, 0, 60, 100
2, 1092000, Note_on_c, 0, 58, 100
2, 1092000, Note_on_c, 0, 46, 100
2, 1092500, Note_off_c, 0, 58, 64
2, 1092500, Note_off_c, 0, 60, 64
2, 1093000, Note_on_c, 0, 67, 100
2, 1093000, Note_off_c, 0, 65, 64
2, 1093000, Note_on_c, 0, 60, 100
2, 1093000, Note_on_c, 0, 62, 100
2, 1093500, Note_off_c, 0, 62, 64
2, 1093500, Note_off_c, 0, 60, 64
2, 1093500, Note_on_c, 0, 65, 100
2, 1093500, Note_off_c, 0, 70, 64
2, 1093500, Note_on_c, 0, 60, 100
2, 1093500, Note_on_c, 0, 58, 100
2, 1093500, Note_off_c, 0, 46, 64
2, 1094000, Note_off_c, 0, 58, 64
2, 1094000, Note_off_c, 0, 57, 64
2, 1094000, Note_on_c, 0, 46, 100
2, 1094000, Note_on_c, 0, 57, 100
2, 1094000, Note_on_c, 0, 55, 100
2, 1094000, Note_on_c, 0, 51, 100
2, 1094500, Note_off_c, 0, 55, 64
2, 1094500, Note_off_c, 0, 57, 64
2, 1095000, Note_on_c, 0, 70, 100
2, 1095000, Note_off_c, 0, 67, 64
2, 1095000, Note_on_c, 0, 57, 100
2, 1095000, Note_on_c, 0, 58, 100
2, 1095500, Note_off_c, 0, 58, 64
2, 1095500, Note_on_c, 0, 62, 100
2, 1095500, Note_on_c, 0, 67, 100
2, 1095500, Note_off_c, 0, 75, 64
2, 1095500, Note_off_c, 0, 62, 64
2, 1095500, Note_off_c, 0, 60, 64
2, 1095500, Note_off_c, 0, 51, 64
2, 1095500, Note_on_c, 0, 48, 100
2, 1096000, Note_on_c, 0, 60, 100
2, 1096000, Note_on_c, 0, 58, 100
2, 1096000, Note_off_c, 0, 48, 64
2, 1096000, Note_off_c, 0, 58, 64
2, 1096000, Note_off_c, 0, 57, 64
2, 1096000, Note_off_c, 0, 53, 64
2, 1096500, Note_on_c, 0, 57, 100
2, 1096500, Note_on_c, 0, 58, 100
2, 1097000, Note_on_c, 0, 75, 100
2, 1097000, Note_on_c, 0, 69, 100
2, 1097000, Note_off_c, 0, 58, 64
2, 1097000, Note_off_c, 0, 60, 64
2, 1097500, Note_on_c, 0, 60, 100
2, 1097500, Note_on_c, 0, 63, 100
2, 1097500, Note_off_c, 0, 69, 64
2, 1097500, Note_on_c, 0, 77, 100
2, 1097500, Note_off_c, 0, 63, 64
2, 1097500, Note_on_c, 0, 62, 100
2, 1097500, Note_on_c, 0, 53, 100
2, 1097500, Note_off_c, 0, 57, 64
2, 1098000, Note_off_c, 0, 62, 64
2, 1098000, Note_off_c, 0, 60, 64
2, 1098000, Note_on_c, 0, 57, 100
2, 1098000, Note_off_c, 0, 77, 64
2, 1098000, Note_on_c, 0, 74, 100
2, 1098000, Note_on_c, 0, 60, 100
2, 1098000, Note_on_c, 0, 58, 100
2, 1098500, Note_off_c, 0, 58, 64
2, 1098500, Note_off_c, 0, 57, 64
2, 1098500, Note_off_c, 0, 74, 64
2, 1098500, Note_on_c, 0, 58, 100
2, 1098500, Note_off_c, 0, 70, 64
2, 1098500, Note_on_c, 0, 57, 100
2, 1098500, Note_off_c, 0, 58, 64
2, 1098500, Note_off_c, 0, 50, 64
2, 1099000, Note_on_c, 0, 58, 100
2, 1099000, Note_on_c, 0, 62, 100
2, 1099000, Note_on_c, 0, 70, 100
2, 1099000, Note_on_c, 0, 50, 100
2, 1099000, Note_on_c, 0, 69, 100
2, 1099000, Note_off_c, 0, 62, 64
2, 1099000, Note_off_c, 0, 60, 64
2, 1099000, Note_off_c, 0, 53, 64
2, 1099500, Note_on_c, 0, 60, 100
2, 1099500, Note_on_c, 0, 63, 100
2, 1099500, Note_off_c, 0, 69, 64
2, 1099500, Note_on_c, 0, 53, 100
2, 1099500, Note_off_c, 0, 70, 64
2, 1099500, Note_off_c, 0, 63, 64
2, 1099500, Note_on_c, 0, 62, 100
2, 1099500, Note_off_c, 0, 46, 64
2, 1100000, Note_on_c, 0, 70, 100
2, 1100000, Note_off_c, 0, 65, 64
2, 1100000, Note_off_c, 0, 62, 64
2, 1100500, Note_on_c, 0, 65, 100
2, 1100500, Note_on_c, 0, 62, 100
2, 1101000, Note_off_c, 0, 62, 64
2, 1101000, Note_off_c, 0, 58, 64
2, 1101500, Note_on_c, 0, 58, 100
2, 1101500, Note_on_c, 0, 62, 100
2, 1101500, Note_on_c, 0, 46, 100
2, 1102000, Note_off_c, 0, 62, 64
2, 1102000, Note_off_c, 0, 65, 64
2, 1102500, Note_on_c, 0, 65, 100
2, 1102500, Note_off_c, 0, 70, 64
2, 1102500, Note_on_c, 0, 62, 100
2, 1102500, Note_off_c, 0, 58, 64
2, 1102500, Note_off_c, 0, 46, 64
2, 1104000, Note_on_c, 0, 70, 100
2, 1104000, Note_on_c, 0, 69, 100
2, 1105000, Note_off_c, 0, 69, 64
2, 1105000, Note_off_c, 0, 70, 64
2, 1105000, Note_off_c, 0, 65, 64
2, 1105000, Note_off_c, 0, 62, 64
2, 1105000, Note_on_c, 0, 58, 100
2, 1105000, Note_on_c, 0, 46, 100
2, 1106000, Note_on_c, 0, 70, 100
2, 1106000, Note_on_c, 0, 62, 100
2, 1106000, Note_on_c, 0, 65, 100
2, 1106000, Note_off_c, 0, 58, 64
2, 1106000, Note_off_c, 0, 57, 64
2, 1106000, Note_on_c, 0, 45, 100
2, 1107500, Note_off_c, 0, 62, 64
2, 1107500, Note_off_c, 0, 65, 64
2, 1108500, Note_on_c, 0, 65, 100
2, 1108500, Note_off_c, 0, 70, 64
2, 1108500, Note_off_c, 0, 65, 64
2, 1108500, Note_on_c, 0, 58, 100
2, 1108500, Note_on_c, 0, 57, 100
2, 1108500, Note_off_c, 0, 45, 64
2, 1109500, Note_on_c, 0, 70, 100
2, 1109500, Note_off_c, 0, 70, 64
2, 1109500, Note_off_c, 0, 67, 64
2, 1109500, Note_on_c, 0, 62, 100
2, 1109500, Note_on_c, 0, 55, 100
2, 1109500, Note_on_c, 0, 43, 100
2, 1111000, Note_on_c, 0, 70, 100
2, 1111000, Note_on_c, 0, 69, 100
2, 1112000, Note_off_c, 0, 69, 64
2, 1112000, Note_off_c, 0, 70, 64
2, 1112000, Note_on_c, 0, 67, 100
2, 1112000, Note_off_c, 0, 62, 64
2, 1112000, Note_off_c, 0, 55, 64
2, 1112000, Note_off_c, 0, 43, 64
2, 1113000, Note_on_c, 0, 70, 100
2, 1113000, Note_on_c, 0, 62, 100
2, 1113000, Note_off_c, 0, 70, 64
2, 1113000, Note_on_c, 0, 65, 100
2, 1113000, Note_off_c, 0, 53, 64
2, 1113000, Note_on_c, 0, 41, 100
2, 1114500, Note_off_c, 0, 62, 64
2, 1114500, Note_off_c, 0, 65, 64
2, 1115500, Note_on_c, 0, 65, 100
2, 1115500, Note_on_c, 0, 70, 100
2, 1115500, Note_off_c, 0, 65, 64
2, 1115500, Note_on_c, 0, 53, 100
2, 1115500, Note_off_c, 0, 41, 64
2, 1116500, Note_off_c, 0, 70, 64
2, 1116500, Note_off_c, 0, 72, 64
2, 1116500, Note_on_c, 0, 70, 100
2, 1116500, Note_off_c, 0, 67, 64
2, 1116500, Note_on_c, 0, 51, 100
2, 1116500, Note_on_c, 0, 39, 100
2, 1118000, Note_on_c, 0, 72, 100
2, 1118000, Note_off_c, 0, 70, 64
2, 1119000, Note_on_c, 0, 70, 100
2, 1119000, Note_off_c, 0, 72, 64
2, 1119000, Note_off_c, 0, 70, 64
2, 1119000, Note_on_c, 0, 67, 100
2, 1119000, Note_off_c, 0, 51, 64
2, 1119000, Note_off_c, 0, 39, 64
2, 1120000, Note_on_c, 0, 72, 100
2, 1120000, Note_on_c, 0, 65, 100
2, 1120000, Note_on_c, 0, 69, 100
2, 1120000, Note_off_c, 0, 53, 64
2, 1120000, Note_on_c, 0, 41, 100
2, 1121500, Note_off_c, 0, 65, 64
2, 1121500, Note_off_c, 0, 69, 64
2, 1122500, Note_on_c, 0, 69, 100
2, 1122500, Note_off_c, 0, 72, 64
2, 1122500, Note_off_c, 0, 69, 64
2, 1122500, Note_on_c, 0, 65, 100
2, 1122500, Note_on_c, 0, 53, 100
2, 1122500, Note_off_c, 0, 41, 64
2, 1123500, Note_on_c, 0, 72, 100
2, 1123500, Note_on_c, 0, 74, 100
2, 1123500, Note_on_c, 0, 70, 100
2, 1123500, Note_off_c, 0, 65, 64
2, 1123500, Note_off_c, 0, 46, 64
2, 1123500, Note_on_c, 0, 34, 100
2, 1125000, Note_off_c, 0, 74, 64
2, 1125000, Note_off_c, 0, 72, 64
2, 1125000, Note_off_c, 0, 70, 64
2, 1125000, Note_on_c, 0, 69, 100
2, 1125000, Note_on_c, 0, 65, 100
2, 1125000, Note_on_c, 0, 63, 100
2, 1126000, Note_on_c, 0, 72, 100
2, 1126000, Note_off_c, 0, 69, 64
2, 1126000, Note_off_c, 0, 63, 64
2, 1126000, Note_on_c, 0, 74, 100
2, 1126000, Note_on_c, 0, 70, 100
2, 1126000, Note_off_c, 0, 65, 64
2, 1126000, Note_on_c, 0, 46, 100
2, 1126000, Note_off_c, 0, 53, 64
2, 1126000, Note_off_c, 0, 34, 64
2, 1126000, Note_on_c, 0, 41, 100
2, 1127000, Note_off_c, 0, 74, 64
2, 1127000, Note_off_c, 0, 70, 64
2, 1127000, Note_on_c, 0, 65, 100
2, 1127000, Note_on_c, 0, 53, 100
2, 1127000, Note_off_c, 0, 41, 64
2, 1127000, Note_on_c, 0, 70, 100
2, 1127000, Note_off_c, 0, 65, 64
2, 1127000, Note_on_c, 0, 62, 100
2, 1127000, Note_off_c, 0, 58, 64
2, 1127000, Note_off_c, 0, 46, 64
2, 1128500, Note_off_c, 0, 62, 64
2, 1128500, Note_off_c, 0, 60, 64
2, 1128500, Note_on_c, 0, 58, 100
2, 1128500, Note_off_c, 0, 57, 64
2, 1128500, Note_on_c, 0, 46, 100
2, 1128500, Note_on_c, 0, 45, 100
2, 1129500, Note_on_c, 0, 60, 100
2, 1129500, Note_on_c, 0, 57, 100
2, 1129500, Note_off_c, 0, 45, 64
2, 1129500, Note_off_c, 0, 70, 64
2, 1129500, Note_on_c, 0, 74, 100
2, 1129500, Note_on_c, 0, 65, 100
2, 1129500, Note_on_c, 0, 62, 100
2, 1129500, Note_off_c, 0, 58, 64
2, 1129500, Note_off_c, 0, 46, 64
2, 1130500, Note_off_c, 0, 65, 64
2, 1130500, Note_off_c, 0, 62, 64
2, 1130500, Note_on_c, 0, 58, 100
2, 1130500, Note_on_c, 0, 46, 100
2, 1130500, Note_off_c, 0, 67, 64
2, 1130500, Note_on_c, 0, 55, 100
2, 1130500, Note_off_c, 0, 52, 64
2, 1130500, Note_on_c, 0, 40, 100
2, 1132000, Note_off_c, 0, 74, 64
2, 1132000, Note_on_c, 0, 67, 100
2, 1133000, Note_off_c, 0, 67, 64
2, 1133000, Note_on_c, 0, 70, 100
2, 1133000, Note_on_c, 0, 67, 100
2, 1133000, Note_off_c, 0, 55, 64
2, 1133000, Note_on_c, 0, 52, 100
2, 1133000, Note_off_c, 0, 40, 64
2, 1134500, Note_off_c, 0, 67, 64
2, 1134500, Note_on_c, 0, 64, 100
2, 1134500, Note_on_c, 0, 48, 100
2, 1134500, Note_on_c, 0, 36, 100
2, 1136000, Note_off_c, 0, 70, 64
2, 1136000, Note_off_c, 0, 64, 64
2, 1137000, Note_on_c, 0, 64, 100
2, 1137000, Note_off_c, 0, 72, 64
2, 1137000, Note_on_c, 0, 67, 100
2, 1137000, Note_off_c, 0, 64, 64
2, 1137000, Note_off_c, 0, 48, 64
2, 1137000, Note_off_c, 0, 36, 64
2, 1138500, Note_on_c, 0, 65, 100
2, 1138500, Note_off_c, 0, 57, 64
2, 1138500, Note_off_c, 0, 50, 64
2, 1138500, Note_on_c, 0, 38, 100
2, 1140000, Note_on_c, 0, 72, 100
2, 1140000, Note_off_c, 0, 65, 64
2, 1141000, Note_on_c, 0, 65, 100
2, 1141000, Note_on_c, 0, 69, 100
2, 1141000, Note_off_c, 0, 65, 64
2, 1141000, Note_on_c, 0, 57, 100
2, 1141000, Note_on_c, 0, 50, 100
2, 1141000, Note_off_c, 0, 38, 64
2, 1142500, Note_on_c, 0, 65, 100
2, 1142500, Note_on_c, 0, 62, 100
2, 1142500, Note_off_c, 0, 46, 64
2, 1142500, Note_on_c, 0, 34, 100
2, 1144000, Note_off_c, 0, 69, 64
2, 1144000, Note_off_c, 0, 62, 64
2, 1145000, Note_on_c, 0, 62, 100
2, 1145000, Note_on_c, 0, 70, 100
2, 1145000, Note_off_c, 0, 65, 64
2, 1145000, Note_off_c, 0, 62, 64
2, 1145000, Note_on_c, 0, 46, 100
2, 1145000, Note_off_c, 0, 34, 64
2, 1146500, Note_on_c, 0, 64, 100
2, 1146500, Note_on_c, 0, 55, 100
2, 1146500, Note_on_c, 0, 48, 100
2, 1146500, Note_on_c, 0, 36, 100
2, 1148000, Note_off_c, 0, 70, 64
2, 1148000, Note_off_c, 0, 64, 64
2, 1149000, Note_on_c, 0, 64, 100
2, 1149000, Note_off_c, 0, 67, 64
2, 1149000, Note_off_c, 0, 64, 64
2, 1149000, Note_off_c, 0, 60, 64
2, 1149000, Note_off_c, 0, 55, 64
2, 1149000, Note_off_c, 0, 52, 64
2, 1149000, Note_off_c, 0, 48, 64
2, 1149000, Note_off_c, 0, 46, 64
2, 1149000, Note_off_c, 0, 36, 64
2, 1149000, Note_on_c, 0, 34, 100
2, 1150000, Note_on_c, 0, 60, 100
2, 1150000, Note_on_c, 0, 52, 100
2, 1150000, Note_on_c, 0, 46, 100
2, 1150000, Note_off_c, 0, 34, 64
2, 1150000, Note_off_c, 0, 60, 64
2, 1150000, Note_off_c, 0, 57, 64
2, 1150000, Note_on_c, 0, 45, 100
2, 1150000, Note_on_c, 0, 33, 100
2, 1151500, Note_on_c, 0, 67, 100
2, 1151500, Note_on_c, 0, 60, 100
2, 1152500, Note_off_c, 0, 60, 64
2, 1152500, Note_on_c, 0, 70, 100
2, 1152500, Note_on_c, 0, 60, 100
2, 1152500, Note_on_c, 0, 64, 100
2, 1152500, Note_on_c, 0, 57, 100
2, 1152500, Note_off_c, 0, 58, 64
2, 1152500, Note_off_c, 0, 45, 64
2, 1152500, Note_on_c, 0, 43, 100
2, 1152500, Note_off_c, 0, 33, 64
2, 1152500, Note_on_c, 0, 31, 100
2, 1153500, Note_off_c, 0, 70, 64
2, 1153500, Note_off_c, 0, 64, 64
2, 1153500, Note_on_c, 0, 58, 100
2, 1153500, Note_off_c, 0, 43, 64
2, 1153500, Note_off_c, 0, 31, 64
2, 1153500, Note_on_c, 0, 69, 100
2, 1153500, Note_on_c, 0, 65, 100
2, 1153500, Note_off_c, 0, 60, 64
2, 1153500, Note_on_c, 0, 41, 100
2, 1153500, Note_on_c, 0, 29, 100
2, 1155000, Note_off_c, 0, 69, 64
2, 1155000, Note_off_c, 0, 67, 64
2, 1155000, Note_off_c, 0, 65, 64
2, 1155000, Note_on_c, 0, 64, 100
2, 1155000, Note_on_c, 0, 60, 100
2, 1155000, Note_off_c, 0, 58, 64
2, 1156000, Note_on_c, 0, 67, 100
2, 1156000, Note_off_c, 0, 64, 64
2, 1156000, Note_on_c, 0, 58, 100
2, 1156000, Note_on_c, 0, 69, 100
2, 1156000, Note_on_c, 0, 65, 100
2, 1156000, Note_off_c, 0, 60, 64
2, 1156000, Note_off_c, 0, 41, 64
2, 1156000, Note_on_c, 0, 48, 100
2, 1156000, Note_on_c, 0, 36, 100
2, 1156000, Note_off_c, 0, 29, 64
2, 1157000, Note_off_c, 0, 69, 64
2, 1157000, Note_off_c, 0, 65, 64
2, 1157000, Note_on_c, 0, 60, 100
2, 1157000, Note_off_c, 0, 48, 64
2, 1157000, Note_off_c, 0, 36, 64
2, 1157000, Note_on_c, 0, 65, 100
2, 1157000, Note_off_c, 0, 60, 64
2, 1157000, Note_off_c, 0, 57, 64
2, 1157000, Note_off_c, 0, 53, 64
2, 1157000, Note_on_c, 0, 41, 100
2, 1158500, Note_off_c, 0, 65, 64
2, 1158500, Note_on_c, 0, 69, 100
2, 1158500, Note_on_c, 0, 57, 100
2, 1158500, Note_on_c, 0, 55, 100
2, 1158500, Note_on_c, 0, 53, 100
2, 1158500, Note_on_c, 0, 51, 100
2, 1158500, Note_off_c, 0, 41, 64
2, 1158500, Note_on_c, 0, 39, 100
2, 1159500, Note_off_c, 0, 69, 64
2, 1159500, Note_off_c, 0, 55, 64
2, 1159500, Note_off_c, 0, 51, 64
2, 1159500, Note_off_c, 0, 39, 64
2, 1159500, Note_off_c, 0, 72, 64
2, 1159500, Note_on_c, 0, 60, 100
2, 1159500, Note_on_c, 0, 65, 100
2, 1159500, Note_off_c, 0, 57, 64
2, 1159500, Note_off_c, 0, 53, 64
2, 1159500, Note_on_c, 0, 41, 100
2, 1160500, Note_on_c, 0, 72, 100
2, 1160500, Note_off_c, 0, 65, 64
2, 1160500, Note_on_c, 0, 57, 100
2, 1160500, Note_on_c, 0, 53, 100
2, 1160500, Note_off_c, 0, 41, 64
2, 1160500, Note_on_c, 0, 77, 100
2, 1160500, Note_on_c, 0, 65, 100
2, 1160500, Note_off_c, 0, 58, 64
2, 1160500, Note_off_c, 0, 50, 64
2, 1160500, Note_on_c, 0, 38, 100
2, 1161500, Note_off_c, 0, 77, 64
2, 1161500, Note_on_c, 0, 70, 100
2, 1162500, Note_off_c, 0, 70, 64
2, 1162500, Note_on_c, 0, 74, 100
2, 1162500, Note_off_c, 0, 65, 64
2, 1162500, Note_on_c, 0, 58, 100
2, 1162500, Note_on_c, 0, 50, 100
2, 1162500, Note_off_c, 0, 38, 64
2, 1164000, Note_on_c, 0, 65, 100
2, 1164000, Note_off_c, 0, 58, 64
2, 1164000, Note_on_c, 0, 55, 100
2, 1164000, Note_on_c, 0, 43, 100
2, 1165500, Note_off_c, 0, 74, 64
2, 1165500, Note_off_c, 0, 67, 64
2, 1166500, Note_on_c, 0, 67, 100
2, 1166500, Note_off_c, 0, 75, 64
2, 1166500, Note_off_c, 0, 65, 64
2, 1166500, Note_on_c, 0, 58, 100
2, 1166500, Note_off_c, 0, 55, 64
2, 1166500, Note_off_c, 0, 43, 64
2, 1168000, Note_on_c, 0, 63, 100
2, 1168000, Note_off_c, 0, 58, 64
2, 1168000, Note_on_c, 0, 48, 100
2, 1168000, Note_on_c, 0, 36, 100
2, 1169500, Note_on_c, 0, 75, 100
2, 1169500, Note_on_c, 0, 69, 100
2, 1170500, Note_off_c, 0, 69, 64
2, 1170500, Note_off_c, 0, 72, 64
2, 1170500, Note_off_c, 0, 63, 64
2, 1170500, Note_on_c, 0, 58, 100
2, 1170500, Note_off_c, 0, 48, 64
2, 1170500, Note_off_c, 0, 36, 64
2, 1172000, Note_on_c, 0, 65, 100
2, 1172000, Note_off_c, 0, 57, 64
2, 1172000, Note_off_c, 0, 53, 64
2, 1172000, Note_on_c, 0, 41, 100
2, 1173500, Note_on_c, 0, 72, 100
2, 1173500, Note_off_c, 0, 65, 64
2, 1174500, Note_on_c, 0, 65, 100
2, 1174500, Note_on_c, 0, 74, 100
2, 1174500, Note_off_c, 0, 65, 64
2, 1174500, Note_on_c, 0, 57, 100
2, 1174500, Note_on_c, 0, 53, 100
2, 1174500, Note_off_c, 0, 41, 64
2, 1176000, Note_on_c, 0, 65, 100
2, 1176000, Note_off_c, 0, 58, 64
2, 1176000, Note_off_c, 0, 46, 64
2, 1176000, Note_on_c, 0, 34, 100
2, 1177500, Note_off_c, 0, 74, 64
2, 1177500, Note_off_c, 0, 65, 64
2, 1177500, Note_on_c, 0, 62, 100
2, 1178500, Note_on_c, 0, 65, 100
2, 1178500, Note_off_c, 0, 62, 64
2, 1178500, Note_on_c, 0, 70, 100
2, 1178500, Note_off_c, 0, 65, 64
2, 1178500, Note_on_c, 0, 58, 100
2, 1178500, Note_on_c, 0, 62, 100
2, 1178500, Note_on_c, 0, 46, 100
2, 1178500, Note_off_c, 0, 34, 64
2, 1179500, Note_on_c, 0, 65, 100
2, 1179500, Note_off_c, 0, 62, 64
2, 1179500, Note_off_c, 0, 58, 64
2, 1179500, Note_off_c, 0, 46, 64
2, 1179500, Note_on_c, 0, 62, 100
2, 1179500, Note_off_c, 0, 53, 64
2, 1179500, Note_on_c, 0, 46, 100
2, 1179500, Note_on_c, 0, 34, 100
2, 1181000, Note_off_c, 0, 70, 64
2, 1181000, Note_off_c, 0, 62, 64
2, 1181000, Note_on_c, 0, 58, 100
2, 1182000, Note_on_c, 0, 62, 100
2, 1182000, Note_off_c, 0, 58, 64
2, 1182000, Note_off_c, 0, 65, 64
2, 1182000, Note_off_c, 0, 62, 64
2, 1182000, Note_on_c, 0, 53, 100
2, 1182000, Note_on_c, 0, 58, 100
2, 1182000, Note_off_c, 0, 46, 64
2, 1182000, Note_off_c, 0, 34, 64
2, 1183000, Note_on_c, 0, 62, 100
2, 1183000, Note_off_c, 0, 58, 64
2, 1183000, Note_on_c, 0, 46, 100
2, 1183000, Note_on_c, 0, 58, 100
2, 1183000, Note_off_c, 0, 50, 64
2, 1183000, Note_off_c, 0, 46, 64
2, 1183000, Note_on_c, 0, 34, 100
2, 1184500, Note_on_c, 0, 65, 100
2, 1184500, Note_off_c, 0, 58, 64
2, 1184500, Note_off_c, 0, 62, 64
2, 1184500, Note_on_c, 0, 50, 100
2, 1184500, Note_off_c, 0, 53, 64
2, 1185500, Note_on_c, 0, 58, 100
2, 1185500, Note_on_c, 0, 62, 100
2, 1185500, Note_on_c, 0, 53, 100
2, 1185500, Note_off_c, 0, 62, 64
2, 1185500, Note_off_c, 0, 65, 64
2, 1185500, Note_off_c, 0, 58, 64
2, 1185500, Note_on_c, 0, 46, 100
2, 1185500, Note_off_c, 0, 34, 64
2, 1186500, Note_on_c, 0, 62, 100
2, 1186500, Note_on_c, 0, 65, 100
2, 1186500, Note_on_c, 0, 58, 100
2, 1186500, Note_off_c, 0, 46, 64
2, 1186500, Note_off_c, 0, 65, 64
2, 1186500, Note_on_c, 0, 70, 100
2, 1186500, Note_off_c, 0, 62, 64
2, 1186500, Note_on_c, 0, 46, 100
2, 1186500, Note_on_c, 0, 34, 100
2, 1187500, Note_on_c, 0, 65, 100
2, 1187500, Note_off_c, 0, 70, 64
2, 1187500, Note_on_c, 0, 62, 100
2, 1187500, Note_off_c, 0, 62, 64
2, 1187500, Note_off_c, 0, 65, 64
2, 1187500, Note_off_c, 0, 58, 64
2, 1188500, Note_on_c, 0, 62, 100
2, 1188500, Note_on_c, 0, 65, 100
2, 1188500, Note_on_c, 0, 58, 100
2, 1188500, Note_off_c, 0, 65, 64
2, 1188500, Note_on_c, 0, 70, 100
2, 1188500, Note_off_c, 0, 62, 64
2, 1188500, Note_off_c, 0, 46, 64
2, 1188500, Note_off_c, 0, 58, 64
2, 1188500, Note_off_c, 0, 34, 64
2, 1189500, Note_on_c, 0, 65, 100
2, 1189500, Note_off_c, 0, 70, 64
2, 1189500, Note_on_c, 0, 62, 100
2, 1189500, Note_on_c, 0, 58, 100
2, 1189500, Note_on_c, 0, 46, 100
2, 1189500, Note_on_c, 0, 70, 100
2, 1189500, Note_off_c, 0, 62, 64
2, 1189500, Note_off_c, 0, 65, 64
2, 1189500, Note_off_c, 0, 46, 64
2, 1189500, Note_on_c, 0, 34, 100
2, 1190500, Note_off_c, 0, 70, 64
2, 1190500, Note_on_c, 0, 65, 100
2, 1191500, Note_off_c, 0, 65, 64
2, 1191500, Note_off_c, 0, 67, 64
2, 1191500, Note_on_c, 0, 62, 100
2, 1191500, Note_on_c, 0, 65, 100
2, 1191500, Note_on_c, 0, 46, 100
2, 1191500, Note_off_c, 0, 34, 64
2, 1193000, Note_on_c, 0, 63, 100
2, 1193000, Note_off_c, 0, 58, 64
2, 1193000, Note_off_c, 0, 46, 64
2, 1194500, Note_on_c, 0, 67, 100
2, 1194500, Note_off_c, 0, 65, 64
2, 1195500, Note_on_c, 0, 65, 100
2, 1195500, Note_on_c, 0, 70, 100
2, 1195500, Note_off_c, 0, 63, 64
2, 1195500, Note_on_c, 0, 58, 100
2, 1195500, Note_on_c, 0, 46, 100
2, 1197000, Note_off_c, 0, 62, 64
2, 1197000, Note_off_c, 0, 53, 64
2, 1197000, Note_off_c, 0, 46, 64
2, 1197000, Note_on_c, 0, 34, 100
2, 1198500, Note_off_c, 0, 70, 64
2, 1198500, Note_off_c, 0, 65, 64
2, 1199500, Note_on_c, 0, 65, 100
2, 1199500, Note_off_c, 0, 67, 64
2, 1199500, Note_on_c, 0, 62, 100
2, 1199500, Note_on_c, 0, 53, 100
2, 1199500, Note_on_c, 0, 46, 100
2, 1199500, Note_off_c, 0, 34, 64
2, 1201000, Note_on_c, 0, 63, 100
2, 1201000, Note_off_c, 0, 58, 64
2, 1201000, Note_off_c, 0, 46, 64
2, 1202500, Note_on_c, 0, 67, 100
2, 1202500, Note_off_c, 0, 65, 64
2, 1203500, Note_on_c, 0, 65, 100
2, 1203500, Note_on_c, 0, 70, 100
2, 1203500, Note_off_c, 0, 63, 64
2, 1203500, Note_off_c, 0, 62, 64
2, 1203500, Note_on_c, 0, 58, 100
2, 1203500, Note_off_c, 0, 53, 64
2, 1203500, Note_on_c, 0, 46, 100
2, 1203500, Note_on_c, 0, 34, 100
2, 1204500, Note_on_c, 0, 62, 100
2, 1204500, Note_on_c, 0, 53, 100
2, 1204500, Note_off_c, 0, 46, 64
2, 1204500, Note_off_c, 0, 34, 64
2, 1204500, Note_on_c, 0, 63, 100
2, 1204500, Note_on_c, 0, 55, 100
2, 1204500, Note_on_c, 0, 51, 100
2, 1204500, Note_on_c, 0, 39, 100
2, 1206000, Note_off_c, 0, 70, 64
2, 1206000, Note_off_c, 0, 67, 64
2, 1207000, Note_on_c, 0, 67, 100
2, 1207000, Note_off_c, 0, 75, 64
2, 1207000, Note_off_c, 0, 63, 64
2, 1207000, Note_off_c, 0, 67, 64
2, 1207000, Note_off_c, 0, 55, 64
2, 1207000, Note_off_c, 0, 60, 64
2, 1207000, Note_off_c, 0, 51, 64
2, 1207000, Note_on_c, 0, 48, 100
2, 1207000, Note_off_c, 0, 39, 64
2, 1207000, Note_on_c, 0, 36, 100
2, 1208000, Note_on_c, 0, 67, 100
2, 1208000, Note_on_c, 0, 60, 100
2, 1208000, Note_off_c, 0, 48, 64
2, 1208000, Note_off_c, 0, 36, 64
2, 1208000, Note_off_c, 0, 65, 64
2, 1208000, Note_off_c, 0, 57, 64
2, 1208000, Note_off_c, 0, 53, 64
2, 1208000, Note_on_c, 0, 41, 100
2, 1209500, Note_on_c, 0, 75, 100
2, 1209500, Note_on_c, 0, 69, 100
2, 1210500, Note_off_c, 0, 69, 64
2, 1210500, Note_on_c, 0, 77, 100
2, 1210500, Note_on_c, 0, 65, 100
2, 1210500, Note_off_c, 0, 72, 64
2, 1210500, Note_on_c, 0, 57, 100
2, 1210500, Note_on_c, 0, 53, 100
2, 1210500, Note_on_c, 0, 45, 100
2, 1210500, Note_off_c, 0, 41, 64
2, 1210500, Note_on_c, 0, 33, 100
2, 1211500, Note_on_c, 0, 72, 100
2, 1211500, Note_off_c, 0, 53, 64
2, 1211500, Note_off_c, 0, 45, 64
2, 1211500, Note_off_c, 0, 33, 64
2, 1211500, Note_off_c, 0, 77, 64
2, 1211500, Note_on_c, 0, 74, 100
2, 1211500, Note_on_c, 0, 70, 100
2, 1211500, Note_off_c, 0, 65, 64
2, 1211500, Note_on_c, 0, 46, 100
2, 1211500, Note_on_c, 0, 34, 100
2, 1212500, Note_off_c, 0, 74, 64
2, 1212500, Note_off_c, 0, 70, 64
2, 1212500, Note_on_c, 0, 65, 100
2, 1212500, Note_off_c, 0, 46, 64
2, 1212500, Note_off_c, 0, 34, 64
2, 1212500, Note_on_c, 0, 70, 100
2, 1212500, Note_off_c, 0, 65, 64
2, 1212500, Note_off_c, 0, 62, 64
2, 1212500, Note_off_c, 0, 50, 64
2, 1212500, Note_on_c, 0, 26, 100
2, 1212500, Note_on_c, 0, 38, 100
2, 1213500, Note_off_c, 0, 70, 64
2, 1213500, Note_on_c, 0, 65, 100
2, 1213500, Note_on_c, 0, 62, 100
2, 1213500, Note_on_c, 0, 50, 100
2, 1213500, Note_off_c, 0, 26, 64
2, 1213500, Note_off_c, 0, 38, 64
2, 1213500, Note_on_c, 0, 69, 100
2, 1213500, Note_off_c, 0, 65, 64
2, 1213500, Note_off_c, 0, 60, 64
2, 1213500, Note_on_c, 0, 53, 100
2, 1213500, Note_on_c, 0, 41, 100
2, 1213500, Note_on_c, 0, 29, 100
2, 1213500, Note_off_c, 0, 69, 64
2, 1213500, Note_off_c, 0, 67, 64
2, 1213500, Note_on_c, 0, 67, 100
2, 1213500, Note_on_c, 0, 69, 100
2, 1213500, Note_on_c, 0, 65, 100
2, 1213500, Note_on_c, 0, 60, 100
2, 1213500, Note_off_c, 0, 53, 64
2, 1213500, Note_off_c, 0, 41, 64
2, 1213500, Note_off_c, 0, 29, 64
2, 1213500, Note_off_c, 0, 69, 64
2, 1213500, Note_on_c, 0, 70, 100
2, 1213500, Note_off_c, 0, 65, 64
2, 1213500, Note_off_c, 0, 62, 64
2, 1213500, Note_on_c, 0, 46, 100
2, 1213500, Note_on_c, 0, 22, 100
2, 1213500, Note_on_c, 0, 34, 100
2, 1225000, Note_off_c, 0, 70, 64
2, 1225000, Note_on_c, 0, 65, 100
2, 1225000, Note_on_c, 0, 62, 100
2, 1225000, Note_off_c, 0, 46, 64
2, 1225000, Note_off_c, 0, 22, 64
2, 1225000, Note_off_c, 0, 34, 64
2, 1225000, End_track
0, 0, End_of_file
