0, 0, Header, 1, 2, 1024
1, 0, Start_track
1, 0, Title_t, 'example'
1, 0, Tempo, 250000
1, 0, Time_signature, 4, 2, 24, 8
1, 0, End_track
2, 0, Start_track
2, 0, Title_t, 'Instrument Track 01'
2, 0, Program_c, 6, 6
2, 180224, Note_on_c, 0, 65, 100
2, 191488, Note_off_c, 0, 65, 64
2, 194560, Note_on_c, 0, 70, 100
2, 195584, Note_on_c, 0, 65, 100
2, 196608, Note_on_c, 0, 62, 100
2, 197632, Note_on_c, 0, 58, 100
2, 198656, Note_on_c, 0, 46, 100
2, 214016, Note_off_c, 0, 70, 64
2, 215040, Note_on_c, 0, 69, 100
2, 226304, Note_off_c, 0, 69, 64
2, 229376, Note_on_c, 0, 70, 100
2, 230400, Note_off_c, 0, 65, 64
2, 231424, Note_off_c, 0, 62, 64
2, 232448, Note_off_c, 0, 58, 64
2, 233472, Note_off_c, 0, 46, 64
2, 244736, Note_off_c, 0, 70, 64
2, 247808, Note_on_c, 0, 62, 100
2, 248832, Note_on_c, 0, 65, 100
2, 249856, Note_on_c, 0, 58, 100
2, 250880, Note_on_c, 0, 57, 100
2, 251904, Note_on_c, 0, 45, 100
2, 267264, Note_off_c, 0, 62, 64
2, 268288, Note_off_c, 0, 65, 64
2, 279552, Note_on_c, 0, 65, 100
2, 282624, Note_on_c, 0, 70, 100
2, 283648, Note_off_c, 0, 65, 64
2, 284672, Note_off_c, 0, 58, 64
2, 285696, Note_off_c, 0, 57, 64
2, 286720, Note_off_c, 0, 45, 64
2, 297984, Note_off_c, 0, 70, 64
2, 301056, Note_on_c, 0, 70, 100
2, 302080, Note_on_c, 0, 67, 100
2, 303104, Note_on_c, 0, 62, 100
2, 304128, Note_on_c, 0, 55, 100
2, 305152, Note_on_c, 0, 43, 100
2, 320512, Note_off_c, 0, 70, 64
2, 321536, Note_on_c, 0, 69, 100
2, 332800, Note_off_c, 0, 69, 64
2, 335872, Note_on_c, 0, 70, 100
2, 336896, Note_off_c, 0, 67, 64
2, 337920, Note_off_c, 0, 62, 64
2, 338944, Note_off_c, 0, 55, 64
2, 339968, Note_off_c, 0, 43, 64
2, 351232, Note_off_c, 0, 70, 64
2, 354304, Note_on_c, 0, 62, 100
2, 355328, Note_on_c, 0, 70, 100
2, 356352, Note_on_c, 0, 65, 100
2, 357376, Note_on_c, 0, 53, 100
2, 358400, Note_on_c, 0, 41, 100
2, 373760, Note_off_c, 0, 62, 64
2, 374784, Note_off_c, 0, 65, 64
2, 386048, Note_on_c, 0, 65, 100
2, 389120, Note_off_c, 0, 70, 64
2, 390144, Note_off_c, 0, 65, 64
2, 391168, Note_off_c, 0, 53, 64
2, 392192, Note_off_c, 0, 41, 64
2, 403456, Note_on_c, 0, 70, 100
2, 406528, Note_on_c, 0, 72, 100
2, 407552, Note_off_c, 0, 70, 64
2, 408576, Note_on_c, 0, 67, 100
2, 409600, Note_on_c, 0, 51, 100
2, 410624, Note_on_c, 0, 39, 100
2, 425984, Note_off_c, 0, 72, 64
2, 427008, Note_on_c, 0, 70, 100
2, 438272, Note_off_c, 0, 70, 64
2, 441344, Note_on_c, 0, 72, 100
2, 442368, Note_on_c, 0, 70, 100
2, 443392, Note_off_c, 0, 67, 64
2, 444416, Note_off_c, 0, 51, 64
2, 445440, Note_off_c, 0, 39, 64
2, 456704, Note_off_c, 0, 72, 64
2, 459776, Note_on_c, 0, 65, 100
2, 460800, Note_on_c, 0, 69, 100
2, 461824, Note_on_c, 0, 53, 100
2, 462848, Note_on_c, 0, 41, 100
2, 478208, Note_off_c, 0, 65, 64
2, 479232, Note_off_c, 0, 69, 64
2, 490496, Note_on_c, 0, 69, 100
2, 493568, Note_on_c, 0, 72, 100
2, 494592, Note_off_c, 0, 69, 64
2, 495616, Note_on_c, 0, 65, 100
2, 496640, Note_off_c, 0, 53, 64
2, 497664, Note_off_c, 0, 41, 64
2, 508928, Note_off_c, 0, 72, 64
2, 512000, Note_on_c, 0, 74, 100
2, 513024, Note_off_c, 0, 70, 64
2, 514048, Note_off_c, 0, 65, 64
2, 515072, Note_on_c, 0, 46, 100
2, 516096, Note_on_c, 0, 34, 100
2, 531456, Note_off_c, 0, 74, 64
2, 532480, Note_on_c, 0, 72, 100
2, 533504, Note_on_c, 0, 70, 100
2, 534528, Note_on_c, 0, 69, 100
2, 535552, Note_on_c, 0, 65, 100
2, 536576, Note_on_c, 0, 63, 100
2, 547840, Note_off_c, 0, 72, 64
2, 548864, Note_off_c, 0, 69, 64
2, 549888, Note_off_c, 0, 63, 64
2, 552960, Note_on_c, 0, 74, 100
2, 553984, Note_off_c, 0, 70, 64
2, 555008, Note_off_c, 0, 65, 64
2, 556032, Note_off_c, 0, 46, 64
2, 557056, Note_on_c, 0, 53, 100
2, 558080, Note_off_c, 0, 34, 64
2, 559104, Note_on_c, 0, 41, 100
2, 570368, Note_off_c, 0, 74, 64
2, 571392, Note_on_c, 0, 70, 100
2, 572416, Note_on_c, 0, 65, 100
2, 573440, Note_off_c, 0, 53, 64
2, 574464, Note_off_c, 0, 41, 64
2, 577536, Note_off_c, 0, 70, 64
2, 578560, Note_off_c, 0, 65, 64
2, 579584, Note_on_c, 0, 62, 100
2, 580608, Note_on_c, 0, 58, 100
2, 581632, Note_on_c, 0, 46, 100
2, 596992, Note_off_c, 0, 62, 64
2, 598016, Note_on_c, 0, 60, 100
2, 599040, Note_off_c, 0, 58, 64
2, 600064, Note_on_c, 0, 57, 100
2, 601088, Note_off_c, 0, 46, 64
2, 602112, Note_on_c, 0, 45, 100
2, 613376, Note_off_c, 0, 60, 64
2, 614400, Note_off_c, 0, 57, 64
2, 615424, Note_off_c, 0, 45, 64
2, 618496, Note_on_c, 0, 70, 100
2, 619520, Note_on_c, 0, 74, 100
2, 620544, Note_on_c, 0, 65, 100
2, 621568, Note_on_c, 0, 62, 100
2, 622592, Note_on_c, 0, 58, 100
2, 623616, Note_on_c, 0, 46, 100
2, 634880, Note_off_c, 0, 65, 64
2, 635904, Note_off_c, 0, 62, 64
2, 636928, Note_off_c, 0, 58, 64
2, 637952, Note_off_c, 0, 46, 64
2, 641024, Note_on_c, 0, 67, 100
2, 642048, Note_on_c, 0, 55, 100
2, 643072, Note_on_c, 0, 52, 100
2, 644096, Note_on_c, 0, 40, 100
2, 659456, Note_off_c, 0, 74, 64
2, 660480, Note_off_c, 0, 67, 64
2, 671744, Note_on_c, 0, 67, 100
2, 674816, Note_off_c, 0, 70, 64
2, 675840, Note_off_c, 0, 67, 64
2, 676864, Note_off_c, 0, 55, 64
2, 677888, Note_off_c, 0, 52, 64
2, 678912, Note_off_c, 0, 40, 64
2, 694272, Note_on_c, 0, 67, 100
2, 695296, Note_on_c, 0, 64, 100
2, 696320, Note_on_c, 0, 48, 100
2, 697344, Note_on_c, 0, 36, 100
2, 712704, Note_on_c, 0, 70, 100
2, 713728, Note_off_c, 0, 64, 64
2, 724992, Note_on_c, 0, 64, 100
2, 728064, Note_on_c, 0, 72, 100
2, 729088, Note_off_c, 0, 67, 64
2, 730112, Note_off_c, 0, 64, 64
2, 731136, Note_off_c, 0, 48, 64
2, 732160, Note_off_c, 0, 36, 64
2, 747520, Note_on_c, 0, 65, 100
2, 748544, Note_on_c, 0, 57, 100
2, 749568, Note_on_c, 0, 50, 100
2, 750592, Note_on_c, 0, 38, 100
2, 765952, Note_off_c, 0, 72, 64
2, 766976, Note_off_c, 0, 65, 64
2, 778240, Note_on_c, 0, 65, 100
2, 781312, Note_on_c, 0, 69, 100
2, 782336, Note_off_c, 0, 65, 64
2, 783360, Note_off_c, 0, 57, 64
2, 784384, Note_off_c, 0, 50, 64
2, 785408, Note_off_c, 0, 38, 64
2, 800768, Note_on_c, 0, 65, 100
2, 801792, Note_on_c, 0, 62, 100
2, 802816, Note_on_c, 0, 46, 100
2, 803840, Note_on_c, 0, 34, 100
2, 819200, Note_off_c, 0, 69, 64
2, 820224, Note_off_c, 0, 62, 64
2, 831488, Note_on_c, 0, 62, 100
2, 834560, Note_off_c, 0, 70, 64
2, 835584, Note_off_c, 0, 65, 64
2, 836608, Note_off_c, 0, 62, 64
2, 837632, Note_off_c, 0, 46, 64
2, 838656, Note_off_c, 0, 34, 64
2, 854016, Note_on_c, 0, 64, 100
2, 855040, Note_on_c, 0, 55, 100
2, 856064, Note_on_c, 0, 48, 100
2, 857088, Note_on_c, 0, 36, 100
2, 872448, Note_on_c, 0, 70, 100
2, 873472, Note_off_c, 0, 64, 64
2, 884736, Note_on_c, 0, 64, 100
2, 887808, Note_on_c, 0, 67, 100
2, 888832, Note_off_c, 0, 64, 64
2, 889856, Note_on_c, 0, 60, 100
2, 890880, Note_off_c, 0, 55, 64
2, 891904, Note_on_c, 0, 52, 100
2, 892928, Note_off_c, 0, 48, 64
2, 893952, Note_on_c, 0, 46, 100
2, 894976, Note_off_c, 0, 36, 64
2, 896000, Note_on_c, 0, 34, 100
2, 907264, Note_off_c, 0, 60, 64
2, 908288, Note_off_c, 0, 52, 64
2, 909312, Note_off_c, 0, 46, 64
2, 910336, Note_off_c, 0, 34, 64
2, 913408, Note_on_c, 0, 60, 100
2, 914432, Note_on_c, 0, 57, 100
2, 915456, Note_on_c, 0, 45, 100
2, 916480, Note_on_c, 0, 33, 100
2, 931840, Note_off_c, 0, 67, 64
2, 932864, Note_off_c, 0, 60, 64
2, 944128, Note_on_c, 0, 60, 100
2, 947200, Note_off_c, 0, 70, 64
2, 948224, Note_off_c, 0, 60, 64
2, 949248, Note_on_c, 0, 64, 100
2, 950272, Note_off_c, 0, 57, 64
2, 951296, Note_on_c, 0, 58, 100
2, 952320, Note_off_c, 0, 45, 64
2, 953344, Note_on_c, 0, 43, 100
2, 954368, Note_off_c, 0, 33, 64
2, 955392, Note_on_c, 0, 31, 100
2, 966656, Note_on_c, 0, 70, 100
2, 967680, Note_off_c, 0, 64, 64
2, 968704, Note_off_c, 0, 58, 64
2, 969728, Note_off_c, 0, 43, 64
2, 970752, Note_off_c, 0, 31, 64
2, 973824, Note_on_c, 0, 69, 100
2, 974848, Note_on_c, 0, 65, 100
2, 975872, Note_on_c, 0, 60, 100
2, 976896, Note_on_c, 0, 41, 100
2, 977920, Note_on_c, 0, 29, 100
2, 993280, Note_off_c, 0, 69, 64
2, 994304, Note_on_c, 0, 67, 100
2, 995328, Note_off_c, 0, 65, 64
2, 996352, Note_on_c, 0, 64, 100
2, 997376, Note_off_c, 0, 60, 64
2, 998400, Note_on_c, 0, 58, 100
2, 1009664, Note_off_c, 0, 67, 64
2, 1010688, Note_off_c, 0, 64, 64
2, 1011712, Note_off_c, 0, 58, 64
2, 1014784, Note_on_c, 0, 69, 100
2, 1015808, Note_on_c, 0, 65, 100
2, 1016832, Note_on_c, 0, 60, 100
2, 1017856, Note_off_c, 0, 41, 64
2, 1018880, Note_on_c, 0, 48, 100
2, 1019904, Note_on_c, 0, 36, 100
2, 1020928, Note_off_c, 0, 29, 64
2, 1032192, Note_off_c, 0, 69, 64
2, 1033216, Note_off_c, 0, 65, 64
2, 1034240, Note_off_c, 0, 60, 64
2, 1035264, Note_off_c, 0, 48, 64
2, 1036288, Note_off_c, 0, 36, 64
2, 1039360, Note_on_c, 0, 65, 100
2, 1040384, Note_on_c, 0, 60, 100
2, 1041408, Note_on_c, 0, 57, 100
2, 1042432, Note_on_c, 0, 53, 100
2, 1043456, Note_on_c, 0, 41, 100
2, 1058816, Note_off_c, 0, 65, 64
2, 1059840, Note_on_c, 0, 69, 100
2, 1060864, Note_off_c, 0, 57, 64
2, 1061888, Note_on_c, 0, 55, 100
2, 1062912, Note_off_c, 0, 53, 64
2, 1063936, Note_on_c, 0, 51, 100
2, 1064960, Note_off_c, 0, 41, 64
2, 1065984, Note_on_c, 0, 39, 100
2, 1077248, Note_off_c, 0, 69, 64
2, 1078272, Note_off_c, 0, 55, 64
2, 1079296, Note_off_c, 0, 51, 64
2, 1080320, Note_off_c, 0, 39, 64
2, 1083392, Note_on_c, 0, 72, 100
2, 1084416, Note_off_c, 0, 60, 64
2, 1085440, Note_on_c, 0, 65, 100
2, 1086464, Note_on_c, 0, 57, 100
2, 1087488, Note_on_c, 0, 53, 100
2, 1088512, Note_on_c, 0, 41, 100
2, 1099776, Note_off_c, 0, 72, 64
2, 1100800, Note_off_c, 0, 65, 64
2, 1101824, Note_off_c, 0, 57, 64
2, 1102848, Note_off_c, 0, 53, 64
2, 1103872, Note_off_c, 0, 41, 64
2, 1106944, Note_on_c, 0, 77, 100
2, 1107968, Note_on_c, 0, 65, 100
2, 1108992, Note_on_c, 0, 58, 100
2, 1110016, Note_on_c, 0, 50, 100
2, 1111040, Note_on_c, 0, 38, 100
2, 1122304, Note_off_c, 0, 77, 64
2, 1125376, Note_off_c, 0, 70, 64
2, 1136640, Note_on_c, 0, 70, 100
2, 1139712, Note_on_c, 0, 74, 100
2, 1140736, Note_off_c, 0, 65, 64
2, 1141760, Note_off_c, 0, 58, 64
2, 1142784, Note_off_c, 0, 50, 64
2, 1143808, Note_off_c, 0, 38, 64
2, 1159168, Note_on_c, 0, 65, 100
2, 1160192, Note_on_c, 0, 58, 100
2, 1161216, Note_on_c, 0, 55, 100
2, 1162240, Note_on_c, 0, 43, 100
2, 1177600, Note_off_c, 0, 74, 64
2, 1178624, Note_on_c, 0, 67, 100
2, 1189888, Note_off_c, 0, 67, 64
2, 1192960, Note_on_c, 0, 75, 100
2, 1193984, Note_off_c, 0, 65, 64
2, 1195008, Note_off_c, 0, 58, 64
2, 1196032, Note_off_c, 0, 55, 64
2, 1197056, Note_off_c, 0, 43, 64
2, 1212416, Note_on_c, 0, 63, 100
2, 1213440, Note_on_c, 0, 58, 100
2, 1214464, Note_on_c, 0, 48, 100
2, 1215488, Note_on_c, 0, 36, 100
2, 1230848, Note_off_c, 0, 75, 64
2, 1231872, Note_on_c, 0, 69, 100
2, 1243136, Note_off_c, 0, 69, 64
2, 1246208, Note_on_c, 0, 72, 100
2, 1247232, Note_off_c, 0, 63, 64
2, 1248256, Note_off_c, 0, 58, 64
2, 1249280, Note_off_c, 0, 48, 64
2, 1250304, Note_off_c, 0, 36, 64
2, 1265664, Note_on_c, 0, 65, 100
2, 1266688, Note_on_c, 0, 57, 100
2, 1267712, Note_on_c, 0, 53, 100
2, 1268736, Note_on_c, 0, 41, 100
2, 1284096, Note_off_c, 0, 72, 64
2, 1285120, Note_off_c, 0, 65, 64
2, 1296384, Note_on_c, 0, 65, 100
2, 1299456, Note_on_c, 0, 74, 100
2, 1300480, Note_off_c, 0, 65, 64
2, 1301504, Note_off_c, 0, 57, 64
2, 1302528, Note_off_c, 0, 53, 64
2, 1303552, Note_off_c, 0, 41, 64
2, 1318912, Note_on_c, 0, 65, 100
2, 1319936, Note_on_c, 0, 58, 100
2, 1320960, Note_on_c, 0, 46, 100
2, 1321984, Note_on_c, 0, 34, 100
2, 1337344, Note_off_c, 0, 74, 64
2, 1338368, Note_off_c, 0, 65, 64
2, 1339392, Note_on_c, 0, 62, 100
2, 1350656, Note_on_c, 0, 65, 100
2, 1351680, Note_off_c, 0, 62, 64
2, 1354752, Note_off_c, 0, 70, 64
2, 1355776, Note_off_c, 0, 65, 64
2, 1356800, Note_off_c, 0, 58, 64
2, 1357824, Note_on_c, 0, 62, 100
2, 1358848, Note_off_c, 0, 46, 64
2, 1359872, Note_off_c, 0, 34, 64
2, 1371136, Note_on_c, 0, 65, 100
2, 1372160, Note_off_c, 0, 62, 64
2, 1373184, Note_on_c, 0, 58, 100
2, 1374208, Note_on_c, 0, 46, 100
2, 1377280, Note_on_c, 0, 62, 100
2, 1378304, Note_on_c, 0, 53, 100
2, 1379328, Note_off_c, 0, 46, 64
2, 1380352, Note_on_c, 0, 34, 100
2, 1395712, Note_on_c, 0, 70, 100
2, 1396736, Note_off_c, 0, 62, 64
2, 1397760, Note_off_c, 0, 58, 64
2, 1409024, Note_on_c, 0, 62, 100
2, 1410048, Note_on_c, 0, 58, 100
2, 1413120, Note_off_c, 0, 65, 64
2, 1414144, Note_off_c, 0, 62, 64
2, 1415168, Note_off_c, 0, 53, 64
2, 1416192, Note_off_c, 0, 58, 64
2, 1417216, Note_on_c, 0, 46, 100
2, 1418240, Note_off_c, 0, 34, 64
2, 1429504, Note_on_c, 0, 62, 100
2, 1430528, Note_on_c, 0, 58, 100
2, 1431552, Note_off_c, 0, 46, 64
2, 1434624, Note_off_c, 0, 58, 64
2, 1435648, Note_on_c, 0, 50, 100
2, 1436672, Note_on_c, 0, 46, 100
2, 1437696, Note_on_c, 0, 34, 100
2, 1453056, Note_on_c, 0, 65, 100
2, 1454080, Note_on_c, 0, 58, 100
2, 1455104, Note_off_c, 0, 62, 64
2, 1456128, Note_off_c, 0, 50, 64
2, 1457152, Note_on_c, 0, 53, 100
2, 1468416, Note_off_c, 0, 58, 64
2, 1469440, Note_on_c, 0, 62, 100
2, 1470464, Note_off_c, 0, 53, 64
2, 1473536, Note_off_c, 0, 62, 64
2, 1474560, Note_off_c, 0, 65, 64
2, 1475584, Note_on_c, 0, 58, 100
2, 1476608, Note_off_c, 0, 46, 64
2, 1477632, Note_off_c, 0, 34, 64
2, 1488896, Note_on_c, 0, 62, 100
2, 1489920, Note_on_c, 0, 65, 100
2, 1490944, Note_off_c, 0, 58, 64
2, 1491968, Note_on_c, 0, 46, 100
2, 1495040, Note_off_c, 0, 65, 64
2, 1496064, Note_off_c, 0, 70, 64
2, 1497088, Note_off_c, 0, 62, 64
2, 1498112, Note_off_c, 0, 46, 64
2, 1499136, Note_on_c, 0, 34, 100
2, 1510400, Note_on_c, 0, 65, 100
2, 1511424, Note_on_c, 0, 70, 100
2, 1512448, Note_on_c, 0, 62, 100
2, 1515520, Note_off_c, 0, 62, 64
2, 1516544, Note_off_c, 0, 65, 64
2, 1517568, Note_on_c, 0, 58, 100
2, 1528832, Note_on_c, 0, 62, 100
2, 1529856, Note_on_c, 0, 65, 100
2, 1530880, Note_off_c, 0, 58, 64
2, 1533952, Note_off_c, 0, 65, 64
2, 1534976, Note_off_c, 0, 70, 64
2, 1536000, Note_off_c, 0, 62, 64
2, 1537024, Note_on_c, 0, 46, 100
2, 1538048, Note_on_c, 0, 58, 100
2, 1539072, Note_off_c, 0, 34, 64
2, 1550336, Note_on_c, 0, 65, 100
2, 1551360, Note_on_c, 0, 70, 100
2, 1552384, Note_on_c, 0, 62, 100
2, 1553408, Note_off_c, 0, 58, 64
2, 1554432, Note_off_c, 0, 46, 64
2, 1557504, Note_off_c, 0, 70, 64
2, 1558528, Note_off_c, 0, 62, 64
2, 1559552, Note_off_c, 0, 65, 64
2, 1560576, Note_on_c, 0, 46, 100
2, 1561600, Note_on_c, 0, 34, 100
2, 1572864, Note_on_c, 0, 70, 100
2, 1575936, Note_on_c, 0, 65, 100
2, 1587200, Note_off_c, 0, 65, 64
2, 1590272, Note_on_c, 0, 67, 100
2, 1591296, Note_on_c, 0, 62, 100
2, 1592320, Note_on_c, 0, 65, 100
2, 1593344, Note_off_c, 0, 46, 64
2, 1594368, Note_off_c, 0, 34, 64
2, 1609728, Note_on_c, 0, 63, 100
2, 1610752, Note_on_c, 0, 58, 100
2, 1611776, Note_on_c, 0, 46, 100
2, 1627136, Note_off_c, 0, 67, 64
2, 1628160, Note_off_c, 0, 65, 64
2, 1639424, Note_on_c, 0, 65, 100
2, 1642496, Note_off_c, 0, 70, 64
2, 1643520, Note_off_c, 0, 63, 64
2, 1644544, Note_off_c, 0, 58, 64
2, 1645568, Note_off_c, 0, 46, 64
2, 1660928, Note_off_c, 0, 62, 64
2, 1661952, Note_on_c, 0, 53, 100
2, 1662976, Note_on_c, 0, 46, 100
2, 1664000, Note_on_c, 0, 34, 100
2, 1679360, Note_on_c, 0, 70, 100
2, 1680384, Note_off_c, 0, 65, 64
2, 1691648, Note_on_c, 0, 65, 100
2, 1694720, Note_on_c, 0, 67, 100
2, 1695744, Note_on_c, 0, 62, 100
2, 1696768, Note_off_c, 0, 53, 64
2, 1697792, Note_off_c, 0, 46, 64
2, 1698816, Note_off_c, 0, 34, 64
2, 1714176, Note_on_c, 0, 63, 100
2, 1715200, Note_on_c, 0, 58, 100
2, 1716224, Note_on_c, 0, 46, 100
2, 1731584, Note_off_c, 0, 67, 64
2, 1732608, Note_off_c, 0, 65, 64
2, 1743872, Note_on_c, 0, 65, 100
2, 1746944, Note_off_c, 0, 70, 64
2, 1747968, Note_off_c, 0, 63, 64
2, 1748992, Note_off_c, 0, 62, 64
2, 1750016, Note_off_c, 0, 58, 64
2, 1751040, Note_on_c, 0, 53, 100
2, 1752064, Note_off_c, 0, 46, 64
2, 1753088, Note_on_c, 0, 34, 100
2, 1764352, Note_on_c, 0, 62, 100
2, 1765376, Note_off_c, 0, 53, 64
2, 1766400, Note_on_c, 0, 46, 100
2, 1767424, Note_off_c, 0, 34, 64
2, 1770496, Note_on_c, 0, 63, 100
2, 1771520, Note_on_c, 0, 55, 100
2, 1772544, Note_on_c, 0, 51, 100
2, 1773568, Note_on_c, 0, 39, 100
2, 1788928, Note_on_c, 0, 70, 100
2, 1789952, Note_on_c, 0, 67, 100
2, 1801216, Note_off_c, 0, 67, 64
2, 1804288, Note_on_c, 0, 75, 100
2, 1805312, Note_off_c, 0, 63, 64
2, 1806336, Note_on_c, 0, 67, 100
2, 1807360, Note_off_c, 0, 55, 64
2, 1808384, Note_on_c, 0, 60, 100
2, 1809408, Note_off_c, 0, 51, 64
2, 1810432, Note_on_c, 0, 48, 100
2, 1811456, Note_off_c, 0, 39, 64
2, 1812480, Note_on_c, 0, 36, 100
2, 1823744, Note_off_c, 0, 67, 64
2, 1824768, Note_off_c, 0, 60, 64
2, 1825792, Note_off_c, 0, 48, 64
2, 1826816, Note_off_c, 0, 36, 64
2, 1829888, Note_off_c, 0, 65, 64
2, 1830912, Note_on_c, 0, 57, 100
2, 1831936, Note_on_c, 0, 53, 100
2, 1832960, Note_on_c, 0, 41, 100
2, 1848320, Note_off_c, 0, 75, 64
2, 1849344, Note_on_c, 0, 69, 100
2, 1860608, Note_off_c, 0, 69, 64
2, 1863680, Note_on_c, 0, 77, 100
2, 1864704, Note_on_c, 0, 65, 100
2, 1865728, Note_on_c, 0, 72, 100
2, 1866752, Note_off_c, 0, 57, 64
2, 1867776, Note_off_c, 0, 53, 64
2, 1868800, Note_on_c, 0, 45, 100
2, 1869824, Note_off_c, 0, 41, 64
2, 1870848, Note_on_c, 0, 33, 100
2, 1882112, Note_off_c, 0, 72, 64
2, 1883136, Note_on_c, 0, 53, 100
2, 1884160, Note_off_c, 0, 45, 64
2, 1885184, Note_off_c, 0, 33, 64
2, 1888256, Note_off_c, 0, 77, 64
2, 1889280, Note_on_c, 0, 74, 100
2, 1890304, Note_off_c, 0, 70, 64
2, 1891328, Note_off_c, 0, 65, 64
2, 1892352, Note_off_c, 0, 46, 64
2, 1893376, Note_on_c, 0, 34, 100
2, 1904640, Note_off_c, 0, 74, 64
2, 1905664, Note_on_c, 0, 70, 100
2, 1906688, Note_on_c, 0, 65, 100
2, 1907712, Note_on_c, 0, 46, 100
2, 1908736, Note_off_c, 0, 34, 64
2, 1911808, Note_off_c, 0, 70, 64
2, 1912832, Note_off_c, 0, 65, 64
2, 1913856, Note_off_c, 0, 62, 64
2, 1914880, Note_on_c, 0, 50, 100
2, 1915904, Note_on_c, 0, 38, 100
2, 1927168, Note_on_c, 0, 70, 100
2, 1928192, Note_on_c, 0, 65, 100
2, 1929216, Note_on_c, 0, 62, 100
2, 1930240, Note_off_c, 0, 50, 64
2, 1931264, Note_off_c, 0, 38, 64
2, 1934336, Note_on_c, 0, 69, 100
2, 1935360, Note_off_c, 0, 65, 64
2, 1936384, Note_on_c, 0, 60, 100
2, 1937408, Note_off_c, 0, 53, 64
2, 1938432, Note_on_c, 0, 41, 100
2, 1949696, Note_off_c, 0, 69, 64
2, 1950720, Note_on_c, 0, 65, 100
2, 1951744, Note_off_c, 0, 60, 64
2, 1952768, Note_on_c, 0, 53, 100
2, 1953792, Note_off_c, 0, 41, 64
2, 1956864, Note_off_c, 0, 70, 64
2, 1957888, Note_off_c, 0, 65, 64
2, 1958912, Note_off_c, 0, 62, 64
2, 1959936, Note_on_c, 0, 58, 100
2, 1960960, Note_off_c, 0, 46, 64
2, 1972224, Note_off_c, 0, 58, 64
2, 1973248, Note_on_c, 0, 46, 100
2, 1976320, Note_on_c, 0, 50, 100
2, 1977344, Note_on_c, 0, 38, 100
2, 1984512, Note_on_c, 0, 70, 100
2, 1985536, Note_on_c, 0, 65, 100
2, 1988608, Note_off_c, 0, 50, 64
2, 1989632, Note_off_c, 0, 38, 64
2, 1992704, Note_off_c, 0, 65, 64
2, 1993728, Note_on_c, 0, 67, 100
2, 1994752, Note_off_c, 0, 70, 64
2, 1995776, Note_on_c, 0, 62, 100
2, 1996800, Note_off_c, 0, 53, 64
2, 1997824, Note_on_c, 0, 41, 100
2, 2004992, Note_off_c, 0, 67, 64
2, 2006016, Note_on_c, 0, 69, 100
2, 2009088, Note_on_c, 0, 53, 100
2, 2010112, Note_off_c, 0, 41, 64
2, 2013184, Note_off_c, 0, 69, 64
2, 2014208, Note_on_c, 0, 70, 100
2, 2015232, Note_off_c, 0, 46, 64
2, 2016256, Note_on_c, 0, 34, 100
2, 2023424, Note_off_c, 0, 70, 64
2, 2024448, Note_on_c, 0, 69, 100
2, 2031616, Note_off_c, 0, 69, 64
2, 2032640, Note_on_c, 0, 70, 100
2, 2033664, Note_on_c, 0, 46, 100
2, 2034688, Note_on_c, 0, 50, 100
2, 2041856, Note_on_c, 0, 65, 100
2, 2044928, Note_off_c, 0, 70, 64
2, 2045952, Note_off_c, 0, 50, 64
2, 2049024, Note_off_c, 0, 65, 64
2, 2050048, Note_on_c, 0, 67, 100
2, 2051072, Note_off_c, 0, 53, 64
2, 2052096, Note_off_c, 0, 34, 64
2, 2053120, Note_off_c, 0, 46, 64
2, 2060288, Note_off_c, 0, 67, 64
2, 2061312, Note_on_c, 0, 69, 100
2, 2064384, Note_on_c, 0, 53, 100
2, 2067456, Note_off_c, 0, 69, 64
2, 2068480, Note_on_c, 0, 70, 100
2, 2069504, Note_on_c, 0, 45, 100
2, 2076672, Note_off_c, 0, 70, 64
2, 2077696, Note_on_c, 0, 69, 100
2, 2084864, Note_off_c, 0, 69, 64
2, 2085888, Note_on_c, 0, 70, 100
2, 2086912, Note_off_c, 0, 45, 64
2, 2087936, Note_on_c, 0, 50, 100
2, 2095104, Note_on_c, 0, 65, 100
2, 2098176, Note_off_c, 0, 70, 64
2, 2099200, Note_off_c, 0, 50, 64
2, 2102272, Note_off_c, 0, 65, 64
2, 2103296, Note_on_c, 0, 67, 100
2, 2104320, Note_off_c, 0, 53, 64
2, 2111488, Note_off_c, 0, 67, 64
2, 2112512, Note_on_c, 0, 69, 100
2, 2115584, Note_on_c, 0, 53, 100
2, 2118656, Note_off_c, 0, 69, 64
2, 2119680, Note_on_c, 0, 70, 100
2, 2120704, Note_on_c, 0, 43, 100
2, 2127872, Note_off_c, 0, 70, 64
2, 2128896, Note_on_c, 0, 69, 100
2, 2136064, Note_off_c, 0, 69, 64
2, 2137088, Note_on_c, 0, 70, 100
2, 2138112, Note_off_c, 0, 43, 64
2, 2139136, Note_on_c, 0, 46, 100
2, 2146304, Note_on_c, 0, 65, 100
2, 2149376, Note_off_c, 0, 70, 64
2, 2150400, Note_off_c, 0, 46, 64
2, 2153472, Note_off_c, 0, 65, 64
2, 2154496, Note_on_c, 0, 67, 100
2, 2155520, Note_on_c, 0, 50, 100
2, 2162688, Note_off_c, 0, 67, 64
2, 2163712, Note_on_c, 0, 69, 100
2, 2166784, Note_off_c, 0, 50, 64
2, 2169856, Note_off_c, 0, 69, 64
2, 2170880, Note_on_c, 0, 70, 100
2, 2171904, Note_on_c, 0, 41, 100
2, 2179072, Note_off_c, 0, 70, 64
2, 2180096, Note_on_c, 0, 69, 100
2, 2187264, Note_off_c, 0, 69, 64
2, 2188288, Note_on_c, 0, 70, 100
2, 2189312, Note_off_c, 0, 41, 64
2, 2190336, Note_on_c, 0, 46, 100
2, 2197504, Note_on_c, 0, 67, 100
2, 2200576, Note_off_c, 0, 70, 64
2, 2201600, Note_off_c, 0, 46, 64
2, 2204672, Note_off_c, 0, 67, 64
2, 2205696, Note_on_c, 0, 69, 100
2, 2206720, Note_on_c, 0, 50, 100
2, 2213888, Note_off_c, 0, 69, 64
2, 2214912, Note_on_c, 0, 70, 100
2, 2217984, Note_off_c, 0, 50, 64
2, 2221056, Note_off_c, 0, 70, 64
2, 2222080, Note_on_c, 0, 72, 100
2, 2223104, Note_on_c, 0, 39, 100
2, 2230272, Note_off_c, 0, 72, 64
2, 2231296, Note_on_c, 0, 70, 100
2, 2238464, Note_off_c, 0, 70, 64
2, 2239488, Note_on_c, 0, 72, 100
2, 2240512, Note_off_c, 0, 39, 64
2, 2241536, Note_on_c, 0, 43, 100
2, 2248704, Note_off_c, 0, 72, 64
2, 2249728, Note_on_c, 0, 70, 100
2, 2250752, Note_on_c, 0, 67, 100
2, 2253824, Note_off_c, 0, 43, 64
2, 2256896, Note_off_c, 0, 70, 64
2, 2257920, Note_on_c, 0, 69, 100
2, 2258944, Note_off_c, 0, 67, 64
2, 2259968, Note_on_c, 0, 48, 100
2, 2267136, Note_off_c, 0, 69, 64
2, 2268160, Note_on_c, 0, 67, 100
2, 2269184, Note_on_c, 0, 70, 100
2, 2272256, Note_off_c, 0, 48, 64
2, 2275328, Note_off_c, 0, 67, 64
2, 2276352, Note_on_c, 0, 65, 100
2, 2277376, Note_off_c, 0, 70, 64
2, 2278400, Note_on_c, 0, 72, 100
2, 2279424, Note_on_c, 0, 45, 100
2, 2286592, Note_off_c, 0, 72, 64
2, 2287616, Note_on_c, 0, 70, 100
2, 2290688, Note_off_c, 0, 65, 64
2, 2293760, Note_on_c, 0, 69, 100
2, 2294784, Note_off_c, 0, 70, 64
2, 2295808, Note_on_c, 0, 72, 100
2, 2296832, Note_off_c, 0, 45, 64
2, 2297856, Note_on_c, 0, 48, 100
2, 2305024, Note_off_c, 0, 72, 64
2, 2306048, Note_on_c, 0, 70, 100
2, 2309120, Note_off_c, 0, 69, 64
2, 2310144, Note_off_c, 0, 48, 64
2, 2313216, Note_on_c, 0, 72, 100
2, 2314240, Note_off_c, 0, 70, 64
2, 2315264, Note_on_c, 0, 69, 100
2, 2316288, Note_on_c, 0, 41, 100
2, 2323456, Note_off_c, 0, 69, 64
2, 2324480, Note_on_c, 0, 67, 100
2, 2327552, Note_off_c, 0, 72, 64
2, 2328576, Note_off_c, 0, 41, 64
2, 2331648, Note_on_c, 0, 74, 100
2, 2332672, Note_off_c, 0, 67, 64
2, 2333696, Note_on_c, 0, 65, 100
2, 2334720, Note_on_c, 0, 46, 100
2, 2341888, Note_off_c, 0, 74, 64
2, 2342912, Note_on_c, 0, 72, 100
2, 2343936, Note_off_c, 0, 65, 64
2, 2344960, Note_on_c, 0, 63, 100
2, 2352128, Note_off_c, 0, 72, 64
2, 2353152, Note_on_c, 0, 74, 100
2, 2354176, Note_off_c, 0, 63, 64
2, 2355200, Note_on_c, 0, 65, 100
2, 2356224, Note_off_c, 0, 46, 64
2, 2357248, Note_on_c, 0, 50, 100
2, 2364416, Note_off_c, 0, 74, 64
2, 2365440, Note_on_c, 0, 75, 100
2, 2366464, Note_off_c, 0, 65, 64
2, 2367488, Note_on_c, 0, 67, 100
2, 2370560, Note_off_c, 0, 50, 64
2, 2373632, Note_off_c, 0, 75, 64
2, 2374656, Note_on_c, 0, 74, 100
2, 2375680, Note_off_c, 0, 67, 64
2, 2376704, Note_on_c, 0, 65, 100
2, 2377728, Note_off_c, 0, 53, 64
2, 2384896, Note_off_c, 0, 74, 64
2, 2385920, Note_on_c, 0, 72, 100
2, 2386944, Note_off_c, 0, 65, 64
2, 2387968, Note_on_c, 0, 63, 100
2, 2391040, Note_on_c, 0, 53, 100
2, 2394112, Note_off_c, 0, 72, 64
2, 2395136, Note_on_c, 0, 70, 100
2, 2396160, Note_off_c, 0, 63, 64
2, 2397184, Note_off_c, 0, 62, 64
2, 2398208, Note_on_c, 0, 58, 100
2, 2405376, Note_on_c, 0, 62, 100
2, 2406400, Note_on_c, 0, 60, 100
2, 2409472, Note_off_c, 0, 70, 64
2, 2412544, Note_on_c, 0, 65, 100
2, 2413568, Note_off_c, 0, 60, 64
2, 2414592, Note_off_c, 0, 62, 64
2, 2415616, Note_off_c, 0, 58, 64
2, 2416640, Note_on_c, 0, 57, 100
2, 2423808, Note_on_c, 0, 62, 100
2, 2424832, Note_on_c, 0, 63, 100
2, 2427904, Note_off_c, 0, 65, 64
2, 2428928, Note_off_c, 0, 57, 64
2, 2432000, Note_on_c, 0, 74, 100
2, 2433024, Note_off_c, 0, 63, 64
2, 2434048, Note_on_c, 0, 65, 100
2, 2435072, Note_on_c, 0, 58, 100
2, 2442240, Note_off_c, 0, 65, 64
2, 2443264, Note_off_c, 0, 62, 64
2, 2446336, Note_off_c, 0, 58, 64
2, 2449408, Note_on_c, 0, 62, 100
2, 2450432, Note_on_c, 0, 67, 100
2, 2451456, Note_on_c, 0, 52, 100
2, 2458624, Note_off_c, 0, 67, 64
2, 2459648, Note_on_c, 0, 69, 100
2, 2462720, Note_off_c, 0, 52, 64
2, 2465792, Note_off_c, 0, 74, 64
2, 2466816, Note_on_c, 0, 67, 100
2, 2467840, Note_off_c, 0, 69, 64
2, 2468864, Note_on_c, 0, 70, 100
2, 2469888, Note_on_c, 0, 55, 100
2, 2477056, Note_off_c, 0, 70, 64
2, 2478080, Note_on_c, 0, 69, 100
2, 2481152, Note_off_c, 0, 67, 64
2, 2482176, Note_off_c, 0, 55, 64
2, 2485248, Note_on_c, 0, 70, 100
2, 2486272, Note_off_c, 0, 69, 64
2, 2487296, Note_on_c, 0, 67, 100
2, 2488320, Note_on_c, 0, 52, 100
2, 2495488, Note_off_c, 0, 67, 64
2, 2496512, Note_on_c, 0, 65, 100
2, 2499584, Note_off_c, 0, 52, 64
2, 2502656, Note_off_c, 0, 65, 64
2, 2503680, Note_on_c, 0, 64, 100
2, 2504704, Note_on_c, 0, 48, 100
2, 2511872, Note_off_c, 0, 64, 64
2, 2512896, Note_off_c, 0, 62, 64
2, 2515968, Note_off_c, 0, 48, 64
2, 2519040, Note_off_c, 0, 70, 64
2, 2520064, Note_on_c, 0, 64, 100
2, 2521088, Note_on_c, 0, 62, 100
2, 2522112, Note_on_c, 0, 60, 100
2, 2523136, Note_on_c, 0, 57, 100
2, 2530304, Note_off_c, 0, 60, 64
2, 2531328, Note_off_c, 0, 62, 64
2, 2534400, Note_off_c, 0, 64, 64
2, 2535424, Note_off_c, 0, 57, 64
2, 2538496, Note_on_c, 0, 72, 100
2, 2539520, Note_on_c, 0, 62, 100
2, 2540544, Note_on_c, 0, 64, 100
2, 2541568, Note_on_c, 0, 48, 100
2, 2548736, Note_off_c, 0, 64, 64
2, 2549760, Note_on_c, 0, 60, 100
2, 2552832, Note_off_c, 0, 48, 64
2, 2555904, Note_off_c, 0, 60, 64
2, 2556928, Note_on_c, 0, 65, 100
2, 2557952, Note_on_c, 0, 50, 100
2, 2565120, Note_off_c, 0, 65, 64
2, 2566144, Note_on_c, 0, 67, 100
2, 2569216, Note_off_c, 0, 50, 64
2, 2572288, Note_off_c, 0, 72, 64
2, 2573312, Note_on_c, 0, 65, 100
2, 2574336, Note_off_c, 0, 67, 64
2, 2575360, Note_on_c, 0, 69, 100
2, 2576384, Note_off_c, 0, 53, 64
2, 2583552, Note_off_c, 0, 69, 64
2, 2584576, Note_on_c, 0, 67, 100
2, 2587648, Note_off_c, 0, 65, 64
2, 2588672, Note_on_c, 0, 53, 100
2, 2591744, Note_on_c, 0, 69, 100
2, 2592768, Note_off_c, 0, 67, 64
2, 2593792, Note_on_c, 0, 65, 100
2, 2594816, Note_on_c, 0, 50, 100
2, 2601984, Note_off_c, 0, 65, 64
2, 2603008, Note_on_c, 0, 64, 100
2, 2606080, Note_off_c, 0, 50, 64
2, 2609152, Note_off_c, 0, 64, 64
2, 2610176, Note_off_c, 0, 62, 64
2, 2611200, Note_on_c, 0, 46, 100
2, 2618368, Note_on_c, 0, 62, 100
2, 2619392, Note_on_c, 0, 60, 100
2, 2622464, Note_off_c, 0, 46, 64
2, 2625536, Note_off_c, 0, 69, 64
2, 2626560, Note_off_c, 0, 62, 64
2, 2627584, Note_off_c, 0, 60, 64
2, 2628608, Note_on_c, 0, 58, 100
2, 2629632, Note_on_c, 0, 55, 100
2, 2636800, Note_off_c, 0, 58, 64
2, 2637824, Note_on_c, 0, 60, 100
2, 2640896, Note_on_c, 0, 62, 100
2, 2641920, Note_off_c, 0, 55, 64
2, 2644992, Note_on_c, 0, 70, 100
2, 2646016, Note_off_c, 0, 60, 64
2, 2647040, Note_off_c, 0, 62, 64
2, 2648064, Note_on_c, 0, 46, 100
2, 2655232, Note_on_c, 0, 62, 100
2, 2656256, Note_on_c, 0, 58, 100
2, 2659328, Note_off_c, 0, 46, 64
2, 2662400, Note_off_c, 0, 58, 64
2, 2663424, Note_on_c, 0, 64, 100
2, 2664448, Note_on_c, 0, 48, 100
2, 2671616, Note_off_c, 0, 64, 64
2, 2672640, Note_on_c, 0, 65, 100
2, 2679808, Note_off_c, 0, 70, 64
2, 2680832, Note_on_c, 0, 64, 100
2, 2681856, Note_off_c, 0, 65, 64
2, 2682880, Note_on_c, 0, 67, 100
2, 2690048, Note_off_c, 0, 67, 64
2, 2691072, Note_on_c, 0, 65, 100
2, 2694144, Note_off_c, 0, 64, 64
2, 2697216, Note_on_c, 0, 67, 100
2, 2698240, Note_off_c, 0, 65, 64
2, 2699264, Note_on_c, 0, 64, 100
2, 2700288, Note_off_c, 0, 48, 64
2, 2701312, Note_on_c, 0, 46, 100
2, 2708480, Note_off_c, 0, 64, 64
2, 2709504, Note_off_c, 0, 62, 64
2, 2716672, Note_on_c, 0, 62, 100
2, 2717696, Note_on_c, 0, 60, 100
2, 2718720, Note_off_c, 0, 46, 64
2, 2719744, Note_on_c, 0, 45, 100
2, 2726912, Note_off_c, 0, 60, 64
2, 2727936, Note_off_c, 0, 62, 64
2, 2735104, Note_off_c, 0, 67, 64
2, 2736128, Note_on_c, 0, 60, 100
2, 2737152, Note_on_c, 0, 62, 100
2, 2738176, Note_on_c, 0, 64, 100
2, 2745344, Note_off_c, 0, 64, 64
2, 2746368, Note_off_c, 0, 62, 64
2, 2749440, Note_off_c, 0, 60, 64
2, 2752512, Note_on_c, 0, 70, 100
2, 2753536, Note_on_c, 0, 62, 100
2, 2754560, Note_on_c, 0, 60, 100
2, 2755584, Note_off_c, 0, 45, 64
2, 2756608, Note_on_c, 0, 43, 100
2, 2763776, Note_off_c, 0, 60, 64
2, 2764800, Note_on_c, 0, 58, 100
2, 2767872, Note_off_c, 0, 70, 64
2, 2770944, Note_on_c, 0, 69, 100
2, 2771968, Note_off_c, 0, 58, 64
2, 2772992, Note_on_c, 0, 60, 100
2, 2774016, Note_off_c, 0, 43, 64
2, 2775040, Note_on_c, 0, 41, 100
2, 2782208, Note_off_c, 0, 60, 64
2, 2783232, Note_on_c, 0, 65, 100
2, 2790400, Note_off_c, 0, 69, 64
2, 2791424, Note_on_c, 0, 67, 100
2, 2792448, Note_off_c, 0, 65, 64
2, 2793472, Note_on_c, 0, 64, 100
2, 2800640, Note_off_c, 0, 64, 64
2, 2801664, Note_off_c, 0, 62, 64
2, 2804736, Note_off_c, 0, 67, 64
2, 2807808, Note_on_c, 0, 69, 100
2, 2808832, Note_on_c, 0, 62, 100
2, 2809856, Note_on_c, 0, 60, 100
2, 2810880, Note_off_c, 0, 41, 64
2, 2818048, Note_off_c, 0, 60, 64
2, 2819072, Note_on_c, 0, 58, 100
2, 2822144, Note_off_c, 0, 69, 64
2, 2825216, Note_on_c, 0, 65, 100
2, 2826240, Note_off_c, 0, 58, 64
2, 2827264, Note_on_c, 0, 57, 100
2, 2834432, Note_off_c, 0, 57, 64
2, 2835456, Note_on_c, 0, 58, 100
2, 2842624, Note_off_c, 0, 65, 64
2, 2843648, Note_on_c, 0, 57, 100
2, 2844672, Note_off_c, 0, 58, 64
2, 2845696, Note_on_c, 0, 60, 100
2, 2852864, Note_off_c, 0, 60, 64
2, 2853888, Note_on_c, 0, 58, 100
2, 2856960, Note_off_c, 0, 57, 64
2, 2860032, Note_on_c, 0, 60, 100
2, 2861056, Note_off_c, 0, 58, 64
2, 2862080, Note_on_c, 0, 57, 100
2, 2869248, Note_off_c, 0, 57, 64
2, 2870272, Note_on_c, 0, 55, 100
2, 2873344, Note_off_c, 0, 60, 64
2, 2876416, Note_on_c, 0, 65, 100
2, 2877440, Note_off_c, 0, 55, 64
2, 2878464, Note_off_c, 0, 53, 64
2, 2879488, Note_on_c, 0, 60, 100
2, 2880512, Note_on_c, 0, 57, 100
2, 2881536, Note_on_c, 0, 41, 100
2, 2896896, Note_off_c, 0, 65, 64
2, 2897920, Note_on_c, 0, 64, 100
2, 2909184, Note_off_c, 0, 64, 64
2, 2912256, Note_on_c, 0, 65, 100
2, 2913280, Note_on_c, 0, 53, 100
2, 2914304, Note_off_c, 0, 60, 64
2, 2915328, Note_off_c, 0, 57, 64
2, 2916352, Note_off_c, 0, 41, 64
2, 2927616, Note_off_c, 0, 65, 64
2, 2930688, Note_on_c, 0, 57, 100
2, 2931712, Note_on_c, 0, 60, 100
2, 2932736, Note_off_c, 0, 53, 64
2, 2933760, Note_on_c, 0, 52, 100
2, 2934784, Note_on_c, 0, 40, 100
2, 2950144, Note_off_c, 0, 57, 64
2, 2951168, Note_off_c, 0, 60, 64
2, 2962432, Note_on_c, 0, 60, 100
2, 2965504, Note_on_c, 0, 65, 100
2, 2966528, Note_off_c, 0, 60, 64
2, 2967552, Note_on_c, 0, 53, 100
2, 2968576, Note_off_c, 0, 52, 64
2, 2969600, Note_off_c, 0, 40, 64
2, 2980864, Note_off_c, 0, 65, 64
2, 2983936, Note_on_c, 0, 65, 100
2, 2984960, Note_off_c, 0, 62, 64
2, 2985984, Note_on_c, 0, 57, 100
2, 2987008, Note_on_c, 0, 50, 100
2, 2988032, Note_on_c, 0, 38, 100
2, 3003392, Note_off_c, 0, 65, 64
2, 3004416, Note_on_c, 0, 64, 100
2, 3015680, Note_off_c, 0, 64, 64
2, 3018752, Note_on_c, 0, 65, 100
2, 3019776, Note_on_c, 0, 62, 100
2, 3020800, Note_off_c, 0, 57, 64
2, 3021824, Note_off_c, 0, 50, 64
2, 3022848, Note_off_c, 0, 38, 64
2, 3034112, Note_off_c, 0, 65, 64
2, 3037184, Note_on_c, 0, 57, 100
2, 3038208, Note_on_c, 0, 65, 100
2, 3039232, Note_on_c, 0, 60, 100
2, 3040256, Note_on_c, 0, 48, 100
2, 3041280, Note_on_c, 0, 36, 100
2, 3056640, Note_off_c, 0, 57, 64
2, 3057664, Note_off_c, 0, 60, 64
2, 3068928, Note_on_c, 0, 60, 100
2, 3072000, Note_off_c, 0, 65, 64
2, 3073024, Note_off_c, 0, 60, 64
2, 3074048, Note_off_c, 0, 48, 64
2, 3075072, Note_off_c, 0, 36, 64
2, 3086336, Note_on_c, 0, 65, 100
2, 3089408, Note_on_c, 0, 67, 100
2, 3090432, Note_off_c, 0, 65, 64
2, 3091456, Note_off_c, 0, 62, 64
2, 3092480, Note_on_c, 0, 46, 100
2, 3093504, Note_on_c, 0, 34, 100
2, 3108864, Note_off_c, 0, 67, 64
2, 3109888, Note_on_c, 0, 65, 100
2, 3121152, Note_off_c, 0, 65, 64
2, 3124224, Note_on_c, 0, 67, 100
2, 3125248, Note_on_c, 0, 65, 100
2, 3126272, Note_on_c, 0, 62, 100
2, 3127296, Note_off_c, 0, 46, 64
2, 3128320, Note_off_c, 0, 34, 64
2, 3139584, Note_off_c, 0, 67, 64
2, 3142656, Note_on_c, 0, 60, 100
2, 3143680, Note_on_c, 0, 64, 100
2, 3144704, Note_on_c, 0, 48, 100
2, 3145728, Note_on_c, 0, 36, 100
2, 3161088, Note_off_c, 0, 60, 64
2, 3162112, Note_off_c, 0, 64, 64
2, 3173376, Note_on_c, 0, 64, 100
2, 3176448, Note_on_c, 0, 67, 100
2, 3177472, Note_off_c, 0, 64, 64
2, 3178496, Note_on_c, 0, 60, 100
2, 3179520, Note_off_c, 0, 48, 64
2, 3180544, Note_off_c, 0, 36, 64
2, 3191808, Note_off_c, 0, 67, 64
2, 3194880, Note_on_c, 0, 69, 100
2, 3195904, Note_off_c, 0, 65, 64
2, 3196928, Note_off_c, 0, 60, 64
2, 3197952, Note_on_c, 0, 41, 100
2, 3198976, Note_on_c, 0, 29, 100
2, 3214336, Note_off_c, 0, 69, 64
2, 3215360, Note_on_c, 0, 67, 100
2, 3216384, Note_on_c, 0, 65, 100
2, 3217408, Note_on_c, 0, 64, 100
2, 3218432, Note_on_c, 0, 60, 100
2, 3219456, Note_on_c, 0, 58, 100
2, 3230720, Note_off_c, 0, 67, 64
2, 3231744, Note_off_c, 0, 64, 64
2, 3232768, Note_off_c, 0, 58, 64
2, 3235840, Note_on_c, 0, 69, 100
2, 3236864, Note_off_c, 0, 65, 64
2, 3237888, Note_off_c, 0, 60, 64
2, 3249152, Note_off_c, 0, 69, 64
2, 3250176, Note_on_c, 0, 65, 100
2, 3251200, Note_on_c, 0, 60, 100
2, 3254272, Note_off_c, 0, 65, 64
2, 3255296, Note_off_c, 0, 60, 64
2, 3256320, Note_on_c, 0, 57, 100
2, 3267584, Note_off_c, 0, 41, 64
2, 3270656, Note_on_c, 0, 45, 100
2, 3277824, Note_on_c, 0, 65, 100
2, 3278848, Note_on_c, 0, 60, 100
2, 3281920, Note_off_c, 0, 45, 64
2, 3284992, Note_off_c, 0, 65, 64
2, 3286016, Note_off_c, 0, 60, 64
2, 3287040, Note_off_c, 0, 62, 64
2, 3288064, Note_off_c, 0, 57, 64
2, 3289088, Note_on_c, 0, 48, 100
2, 3290112, Note_on_c, 0, 41, 100
2, 3291136, Note_off_c, 0, 29, 64
2, 3298304, Note_on_c, 0, 62, 100
2, 3299328, Note_on_c, 0, 64, 100
2, 3302400, Note_off_c, 0, 48, 64
2, 3305472, Note_off_c, 0, 64, 64
2, 3306496, Note_on_c, 0, 65, 100
2, 3307520, Note_off_c, 0, 53, 64
2, 3314688, Note_off_c, 0, 65, 64
2, 3315712, Note_on_c, 0, 64, 100
2, 3322880, Note_off_c, 0, 64, 64
2, 3323904, Note_on_c, 0, 65, 100
2, 3324928, Note_on_c, 0, 53, 100
2, 3325952, Note_on_c, 0, 57, 100
2, 3333120, Note_on_c, 0, 60, 100
2, 3336192, Note_off_c, 0, 65, 64
2, 3337216, Note_off_c, 0, 57, 64
2, 3340288, Note_off_c, 0, 60, 64
2, 3341312, Note_off_c, 0, 62, 64
2, 3348480, Note_on_c, 0, 62, 100
2, 3349504, Note_on_c, 0, 64, 100
2, 3352576, Note_on_c, 0, 60, 100
2, 3355648, Note_off_c, 0, 64, 64
2, 3356672, Note_on_c, 0, 65, 100
2, 3357696, Note_on_c, 0, 52, 100
2, 3364864, Note_off_c, 0, 65, 64
2, 3365888, Note_on_c, 0, 64, 100
2, 3373056, Note_off_c, 0, 64, 64
2, 3374080, Note_on_c, 0, 65, 100
2, 3375104, Note_off_c, 0, 52, 64
2, 3376128, Note_on_c, 0, 57, 100
2, 3383296, Note_off_c, 0, 60, 64
2, 3386368, Note_off_c, 0, 65, 64
2, 3387392, Note_off_c, 0, 57, 64
2, 3390464, Note_on_c, 0, 60, 100
2, 3391488, Note_off_c, 0, 62, 64
2, 3398656, Note_on_c, 0, 62, 100
2, 3399680, Note_on_c, 0, 64, 100
2, 3402752, Note_off_c, 0, 60, 64
2, 3405824, Note_off_c, 0, 64, 64
2, 3406848, Note_on_c, 0, 65, 100
2, 3407872, Note_on_c, 0, 50, 100
2, 3415040, Note_off_c, 0, 65, 64
2, 3416064, Note_on_c, 0, 64, 100
2, 3423232, Note_off_c, 0, 64, 64
2, 3424256, Note_on_c, 0, 65, 100
2, 3425280, Note_off_c, 0, 50, 64
2, 3426304, Note_off_c, 0, 53, 64
2, 3433472, Note_on_c, 0, 60, 100
2, 3436544, Note_off_c, 0, 65, 64
2, 3437568, Note_on_c, 0, 53, 100
2, 3440640, Note_off_c, 0, 60, 64
2, 3441664, Note_off_c, 0, 62, 64
2, 3442688, Note_on_c, 0, 57, 100
2, 3449856, Note_on_c, 0, 62, 100
2, 3450880, Note_on_c, 0, 64, 100
2, 3453952, Note_off_c, 0, 57, 64
2, 3457024, Note_off_c, 0, 64, 64
2, 3458048, Note_on_c, 0, 65, 100
2, 3459072, Note_on_c, 0, 48, 100
2, 3466240, Note_off_c, 0, 65, 64
2, 3467264, Note_on_c, 0, 64, 100
2, 3474432, Note_off_c, 0, 64, 64
2, 3475456, Note_on_c, 0, 65, 100
2, 3476480, Note_off_c, 0, 48, 64
2, 3477504, Note_off_c, 0, 53, 64
2, 3484672, Note_off_c, 0, 62, 64
2, 3487744, Note_off_c, 0, 65, 64
2, 3488768, Note_on_c, 0, 53, 100
2, 3491840, Note_on_c, 0, 62, 100
2, 3492864, Note_on_c, 0, 64, 100
2, 3493888, Note_on_c, 0, 57, 100
2, 3501056, Note_off_c, 0, 64, 64
2, 3502080, Note_on_c, 0, 65, 100
2, 3505152, Note_off_c, 0, 57, 64
2, 3508224, Note_off_c, 0, 65, 64
2, 3509248, Note_on_c, 0, 67, 100
2, 3510272, Note_on_c, 0, 46, 100
2, 3517440, Note_off_c, 0, 67, 64
2, 3518464, Note_on_c, 0, 65, 100
2, 3525632, Note_off_c, 0, 65, 64
2, 3526656, Note_on_c, 0, 67, 100
2, 3527680, Note_off_c, 0, 46, 64
2, 3528704, Note_on_c, 0, 50, 100
2, 3535872, Note_off_c, 0, 62, 64
2, 3536896, Note_off_c, 0, 67, 64
2, 3537920, Note_on_c, 0, 65, 100
2, 3540992, Note_off_c, 0, 50, 64
2, 3544064, Note_on_c, 0, 62, 100
2, 3545088, Note_on_c, 0, 64, 100
2, 3546112, Note_off_c, 0, 65, 64
2, 3547136, Note_on_c, 0, 55, 100
2, 3554304, Note_off_c, 0, 64, 64
2, 3555328, Note_on_c, 0, 65, 100
2, 3556352, Note_off_c, 0, 62, 64
2, 3559424, Note_off_c, 0, 55, 64
2, 3562496, Note_off_c, 0, 65, 64
2, 3563520, Note_on_c, 0, 67, 100
2, 3564544, Note_on_c, 0, 62, 100
2, 3565568, Note_on_c, 0, 60, 100
2, 3566592, Note_on_c, 0, 52, 100
2, 3573760, Note_off_c, 0, 67, 64
2, 3574784, Note_on_c, 0, 65, 100
2, 3577856, Note_off_c, 0, 60, 64
2, 3580928, Note_off_c, 0, 65, 64
2, 3581952, Note_on_c, 0, 67, 100
2, 3582976, Note_on_c, 0, 64, 100
2, 3584000, Note_off_c, 0, 52, 64
2, 3585024, Note_on_c, 0, 55, 100
2, 3592192, Note_off_c, 0, 67, 64
2, 3593216, Note_on_c, 0, 65, 100
2, 3596288, Note_off_c, 0, 64, 64
2, 3597312, Note_off_c, 0, 55, 64
2, 3600384, Note_off_c, 0, 65, 64
2, 3601408, Note_on_c, 0, 64, 100
2, 3602432, Note_on_c, 0, 67, 100
2, 3603456, Note_on_c, 0, 48, 100
2, 3610624, Note_off_c, 0, 64, 64
2, 3611648, Note_off_c, 0, 62, 64
2, 3614720, Note_off_c, 0, 67, 64
2, 3615744, Note_off_c, 0, 48, 64
2, 3618816, Note_on_c, 0, 62, 100
2, 3619840, Note_on_c, 0, 60, 100
2, 3620864, Note_on_c, 0, 69, 100
2, 3621888, Note_off_c, 0, 41, 64
2, 3629056, Note_off_c, 0, 60, 64
2, 3630080, Note_on_c, 0, 58, 100
2, 3631104, Note_off_c, 0, 69, 64
2, 3632128, Note_on_c, 0, 67, 100
2, 3639296, Note_off_c, 0, 58, 64
2, 3640320, Note_on_c, 0, 60, 100
2, 3641344, Note_off_c, 0, 67, 64
2, 3642368, Note_on_c, 0, 69, 100
2, 3643392, Note_on_c, 0, 41, 100
2, 3644416, Note_on_c, 0, 45, 100
2, 3651584, Note_off_c, 0, 60, 64
2, 3652608, Note_off_c, 0, 62, 64
2, 3653632, Note_off_c, 0, 69, 64
2, 3654656, Note_on_c, 0, 70, 100
2, 3657728, Note_off_c, 0, 45, 64
2, 3660800, Note_on_c, 0, 62, 100
2, 3661824, Note_on_c, 0, 60, 100
2, 3662848, Note_off_c, 0, 70, 64
2, 3663872, Note_on_c, 0, 69, 100
2, 3664896, Note_on_c, 0, 48, 100
2, 3672064, Note_off_c, 0, 60, 64
2, 3673088, Note_on_c, 0, 58, 100
2, 3674112, Note_off_c, 0, 69, 64
2, 3675136, Note_on_c, 0, 67, 100
2, 3678208, Note_off_c, 0, 48, 64
2, 3681280, Note_off_c, 0, 58, 64
2, 3682304, Note_on_c, 0, 57, 100
2, 3683328, Note_off_c, 0, 67, 64
2, 3684352, Note_on_c, 0, 65, 100
2, 3685376, Note_off_c, 0, 53, 64
2, 3692544, Note_off_c, 0, 57, 64
2, 3693568, Note_on_c, 0, 55, 100
2, 3696640, Note_off_c, 0, 65, 64
2, 3699712, Note_off_c, 0, 55, 64
2, 3700736, Note_on_c, 0, 57, 100
2, 3701760, Note_on_c, 0, 60, 100
2, 3702784, Note_on_c, 0, 53, 100
2, 3703808, Note_on_c, 0, 52, 100
2, 3710976, Note_off_c, 0, 57, 64
2, 3712000, Note_on_c, 0, 58, 100
2, 3715072, Note_off_c, 0, 60, 64
2, 3716096, Note_off_c, 0, 52, 64
2, 3719168, Note_off_c, 0, 58, 64
2, 3720192, Note_on_c, 0, 60, 100
2, 3721216, Note_on_c, 0, 69, 100
2, 3722240, Note_off_c, 0, 53, 64
2, 3729408, Note_off_c, 0, 60, 64
2, 3730432, Note_on_c, 0, 57, 100
2, 3733504, Note_on_c, 0, 53, 100
2, 3736576, Note_off_c, 0, 57, 64
2, 3737600, Note_off_c, 0, 62, 64
2, 3738624, Note_on_c, 0, 47, 100
2, 3745792, Note_on_c, 0, 62, 100
2, 3746816, Note_on_c, 0, 64, 100
2, 3749888, Note_off_c, 0, 47, 64
2, 3752960, Note_off_c, 0, 64, 64
2, 3753984, Note_on_c, 0, 65, 100
2, 3755008, Note_off_c, 0, 69, 64
2, 3756032, Note_off_c, 0, 62, 64
2, 3757056, Note_on_c, 0, 50, 100
2, 3764224, Note_off_c, 0, 65, 64
2, 3765248, Note_on_c, 0, 64, 100
2, 3768320, Note_on_c, 0, 62, 100
2, 3769344, Note_off_c, 0, 50, 64
2, 3772416, Note_off_c, 0, 64, 64
2, 3773440, Note_off_c, 0, 62, 64
2, 3774464, Note_on_c, 0, 65, 100
2, 3775488, Note_on_c, 0, 47, 100
2, 3782656, Note_on_c, 0, 62, 100
2, 3783680, Note_on_c, 0, 60, 100
2, 3786752, Note_off_c, 0, 47, 64
2, 3789824, Note_off_c, 0, 60, 64
2, 3790848, Note_on_c, 0, 59, 100
2, 3791872, Note_on_c, 0, 43, 100
2, 3799040, Note_off_c, 0, 59, 64
2, 3800064, Note_on_c, 0, 57, 100
2, 3803136, Note_off_c, 0, 43, 64
2, 3806208, Note_off_c, 0, 57, 64
2, 3807232, Note_on_c, 0, 55, 100
2, 3808256, Note_off_c, 0, 65, 64
2, 3809280, Note_on_c, 0, 59, 100
2, 3810304, Note_on_c, 0, 52, 100
2, 3817472, Note_off_c, 0, 55, 64
2, 3818496, Note_on_c, 0, 57, 100
2, 3821568, Note_off_c, 0, 59, 64
2, 3822592, Note_off_c, 0, 52, 64
2, 3825664, Note_off_c, 0, 57, 64
2, 3826688, Note_on_c, 0, 59, 100
2, 3827712, Note_on_c, 0, 67, 100
2, 3828736, Note_on_c, 0, 43, 100
2, 3835904, Note_off_c, 0, 59, 64
2, 3836928, Note_on_c, 0, 55, 100
2, 3840000, Note_off_c, 0, 43, 64
2, 3843072, Note_off_c, 0, 55, 64
2, 3844096, Note_on_c, 0, 60, 100
2, 3845120, Note_on_c, 0, 45, 100
2, 3852288, Note_off_c, 0, 60, 64
2, 3853312, Note_off_c, 0, 62, 64
2, 3856384, Note_off_c, 0, 45, 64
2, 3859456, Note_on_c, 0, 62, 100
2, 3860480, Note_on_c, 0, 64, 100
2, 3861504, Note_off_c, 0, 67, 64
2, 3862528, Note_on_c, 0, 60, 100
2, 3863552, Note_on_c, 0, 48, 100
2, 3870720, Note_off_c, 0, 64, 64
2, 3871744, Note_off_c, 0, 62, 64
2, 3874816, Note_off_c, 0, 60, 64
2, 3875840, Note_off_c, 0, 48, 64
2, 3878912, Note_on_c, 0, 62, 100
2, 3879936, Note_on_c, 0, 60, 100
2, 3880960, Note_on_c, 0, 64, 100
2, 3881984, Note_on_c, 0, 45, 100
2, 3889152, Note_off_c, 0, 60, 64
2, 3890176, Note_on_c, 0, 59, 100
2, 3893248, Note_off_c, 0, 45, 64
2, 3896320, Note_off_c, 0, 59, 64
2, 3897344, Note_on_c, 0, 57, 100
2, 3898368, Note_off_c, 0, 41, 64
2, 3905536, Note_off_c, 0, 57, 64
2, 3906560, Note_on_c, 0, 55, 100
2, 3909632, Note_on_c, 0, 41, 100
2, 3912704, Note_off_c, 0, 55, 64
2, 3913728, Note_off_c, 0, 53, 64
2, 3914752, Note_off_c, 0, 64, 64
2, 3915776, Note_on_c, 0, 57, 100
2, 3916800, Note_on_c, 0, 50, 100
2, 3923968, Note_on_c, 0, 53, 100
2, 3924992, Note_on_c, 0, 55, 100
2, 3928064, Note_off_c, 0, 57, 64
2, 3929088, Note_off_c, 0, 50, 64
2, 3932160, Note_off_c, 0, 55, 64
2, 3933184, Note_on_c, 0, 57, 100
2, 3934208, Note_on_c, 0, 65, 100
2, 3935232, Note_off_c, 0, 41, 64
2, 3942400, Note_off_c, 0, 57, 64
2, 3943424, Note_off_c, 0, 53, 64
2, 3946496, Note_on_c, 0, 41, 100
2, 3949568, Note_on_c, 0, 53, 100
2, 3950592, Note_on_c, 0, 59, 100
2, 3951616, Note_on_c, 0, 43, 100
2, 3958784, Note_off_c, 0, 59, 64
2, 3959808, Note_on_c, 0, 60, 100
2, 3966976, Note_off_c, 0, 60, 64
2, 3968000, Note_off_c, 0, 62, 64
2, 3969024, Note_off_c, 0, 65, 64
2, 3970048, Note_on_c, 0, 59, 100
2, 3977216, Note_on_c, 0, 62, 100
2, 3978240, Note_on_c, 0, 60, 100
2, 3981312, Note_off_c, 0, 59, 64
2, 3984384, Note_off_c, 0, 60, 64
2, 3985408, Note_on_c, 0, 59, 100
2, 3986432, Note_off_c, 0, 62, 64
2, 3987456, Note_off_c, 0, 43, 64
2, 3988480, Note_off_c, 0, 41, 64
2, 3995648, Note_off_c, 0, 59, 64
2, 3996672, Note_on_c, 0, 57, 100
2, 4003840, Note_off_c, 0, 57, 64
2, 4004864, Note_on_c, 0, 55, 100
2, 4005888, Note_on_c, 0, 41, 100
2, 4006912, Note_on_c, 0, 40, 100
2, 4014080, Note_off_c, 0, 55, 64
2, 4015104, Note_on_c, 0, 57, 100
2, 4022272, Note_off_c, 0, 57, 64
2, 4023296, Note_on_c, 0, 59, 100
2, 4024320, Note_on_c, 0, 62, 100
2, 4025344, Note_on_c, 0, 55, 100
2, 4032512, Note_off_c, 0, 59, 64
2, 4033536, Note_on_c, 0, 57, 100
2, 4036608, Note_off_c, 0, 55, 64
2, 4039680, Note_off_c, 0, 57, 64
2, 4040704, Note_on_c, 0, 55, 100
2, 4041728, Note_on_c, 0, 65, 100
2, 4042752, Note_off_c, 0, 40, 64
2, 4043776, Note_on_c, 0, 38, 100
2, 4050944, Note_off_c, 0, 55, 64
2, 4051968, Note_off_c, 0, 53, 64
2, 4055040, Note_off_c, 0, 65, 64
2, 4058112, Note_on_c, 0, 53, 100
2, 4059136, Note_on_c, 0, 55, 100
2, 4060160, Note_on_c, 0, 64, 100
2, 4061184, Note_off_c, 0, 38, 64
2, 4062208, Note_on_c, 0, 36, 100
2, 4069376, Note_off_c, 0, 55, 64
2, 4070400, Note_on_c, 0, 60, 100
2, 4077568, Note_off_c, 0, 60, 64
2, 4078592, Note_on_c, 0, 59, 100
2, 4079616, Note_off_c, 0, 64, 64
2, 4080640, Note_off_c, 0, 62, 64
2, 4087808, Note_off_c, 0, 59, 64
2, 4088832, Note_on_c, 0, 57, 100
2, 4091904, Note_on_c, 0, 62, 100
2, 4094976, Note_off_c, 0, 57, 64
2, 4096000, Note_on_c, 0, 55, 100
2, 4097024, Note_on_c, 0, 64, 100
2, 4098048, Note_off_c, 0, 36, 64
2, 4105216, Note_off_c, 0, 55, 64
2, 4106240, Note_off_c, 0, 53, 64
2, 4109312, Note_off_c, 0, 64, 64
2, 4112384, Note_on_c, 0, 53, 100
2, 4113408, Note_on_c, 0, 52, 100
2, 4114432, Note_on_c, 0, 60, 100
2, 4121600, Note_off_c, 0, 52, 64
2, 4122624, Note_off_c, 0, 53, 64
2, 4129792, Note_on_c, 0, 53, 100
2, 4130816, Note_on_c, 0, 55, 100
2, 4131840, Note_off_c, 0, 60, 64
2, 4132864, Note_on_c, 0, 64, 100
2, 4140032, Note_off_c, 0, 55, 64
2, 4141056, Note_off_c, 0, 53, 64
2, 4144128, Note_off_c, 0, 64, 64
2, 4147200, Note_on_c, 0, 53, 100
2, 4148224, Note_on_c, 0, 52, 100
2, 4149248, Note_on_c, 0, 67, 100
2, 4156416, Note_off_c, 0, 52, 64
2, 4157440, Note_on_c, 0, 50, 100
2, 4160512, Note_off_c, 0, 67, 64
2, 4163584, Note_off_c, 0, 50, 64
2, 4164608, Note_on_c, 0, 48, 100
2, 4165632, Note_on_c, 0, 72, 100
2, 4166656, Note_on_c, 0, 65, 100
2, 4167680, Note_on_c, 0, 60, 100
2, 4168704, Note_on_c, 0, 45, 100
2, 4169728, Note_on_c, 0, 33, 100
2, 4180992, Note_off_c, 0, 48, 64
2, 4182016, Note_off_c, 0, 72, 64
2, 4185088, Note_off_c, 0, 60, 64
2, 4186112, Note_off_c, 0, 65, 64
2, 4197376, Note_on_c, 0, 60, 100
2, 4198400, Note_on_c, 0, 65, 100
2, 4201472, Note_on_c, 0, 69, 100
2, 4202496, Note_off_c, 0, 65, 64
2, 4203520, Note_off_c, 0, 60, 64
2, 4204544, Note_off_c, 0, 45, 64
2, 4205568, Note_off_c, 0, 33, 64
2, 4220928, Note_on_c, 0, 65, 100
2, 4221952, Note_on_c, 0, 60, 100
2, 4222976, Note_on_c, 0, 50, 100
2, 4224000, Note_on_c, 0, 38, 100
2, 4239360, Note_off_c, 0, 69, 64
2, 4240384, Note_off_c, 0, 62, 64
2, 4251648, Note_on_c, 0, 62, 100
2, 4254720, Note_on_c, 0, 70, 100
2, 4255744, Note_off_c, 0, 65, 64
2, 4256768, Note_off_c, 0, 60, 64
2, 4257792, Note_off_c, 0, 50, 64
2, 4258816, Note_off_c, 0, 38, 64
2, 4274176, Note_on_c, 0, 65, 100
2, 4275200, Note_on_c, 0, 58, 100
2, 4276224, Note_on_c, 0, 43, 100
2, 4277248, Note_on_c, 0, 31, 100
2, 4292608, Note_off_c, 0, 70, 64
2, 4293632, Note_on_c, 0, 64, 100
2, 4304896, Note_off_c, 0, 64, 64
2, 4307968, Note_on_c, 0, 67, 100
2, 4308992, Note_off_c, 0, 65, 64
2, 4310016, Note_off_c, 0, 58, 64
2, 4311040, Note_off_c, 0, 43, 64
2, 4312064, Note_off_c, 0, 31, 64
2, 4327424, Note_on_c, 0, 64, 100
2, 4328448, Note_on_c, 0, 60, 100
2, 4329472, Note_on_c, 0, 48, 100
2, 4330496, Note_on_c, 0, 36, 100
2, 4345856, Note_off_c, 0, 67, 64
2, 4346880, Note_off_c, 0, 60, 64
2, 4358144, Note_on_c, 0, 60, 100
2, 4361216, Note_on_c, 0, 69, 100
2, 4362240, Note_off_c, 0, 64, 64
2, 4363264, Note_off_c, 0, 60, 64
2, 4364288, Note_off_c, 0, 48, 64
2, 4365312, Note_off_c, 0, 36, 64
2, 4380672, Note_on_c, 0, 65, 100
2, 4381696, Note_on_c, 0, 60, 100
2, 4382720, Note_off_c, 0, 41, 64
2, 4383744, Note_on_c, 0, 29, 100
2, 4390912, Note_off_c, 0, 69, 64
2, 4391936, Note_off_c, 0, 65, 64
2, 4399104, Note_on_c, 0, 69, 100
2, 4400128, Note_off_c, 0, 60, 64
2, 4401152, Note_on_c, 0, 65, 100
2, 4402176, Note_on_c, 0, 64, 100
2, 4409344, Note_off_c, 0, 64, 64
2, 4410368, Note_off_c, 0, 62, 64
2, 4413440, Note_on_c, 0, 60, 100
2, 4416512, Note_off_c, 0, 65, 64
2, 4417536, Note_on_c, 0, 62, 100
2, 4418560, Note_off_c, 0, 60, 64
2, 4419584, Note_on_c, 0, 41, 100
2, 4420608, Note_off_c, 0, 53, 64
2, 4421632, Note_off_c, 0, 29, 64
2, 4428800, Note_on_c, 0, 60, 100
2, 4429824, Note_on_c, 0, 58, 100
2, 4432896, Note_on_c, 0, 53, 100
2, 4435968, Note_off_c, 0, 58, 64
2, 4436992, Note_on_c, 0, 57, 100
2, 4438016, Note_off_c, 0, 41, 64
2, 4445184, Note_off_c, 0, 57, 64
2, 4446208, Note_off_c, 0, 62, 64
2, 4453376, Note_on_c, 0, 65, 100
2, 4454400, Note_on_c, 0, 57, 100
2, 4455424, Note_on_c, 0, 62, 100
2, 4456448, Note_off_c, 0, 60, 64
2, 4463616, Note_on_c, 0, 60, 100
2, 4464640, Note_on_c, 0, 58, 100
2, 4467712, Note_off_c, 0, 57, 64
2, 4470784, Note_off_c, 0, 60, 64
2, 4471808, Note_off_c, 0, 58, 64
2, 4472832, Note_on_c, 0, 57, 100
2, 4473856, Note_on_c, 0, 41, 100
2, 4474880, Note_off_c, 0, 53, 64
2, 4482048, Note_off_c, 0, 57, 64
2, 4483072, Note_on_c, 0, 55, 100
2, 4486144, Note_on_c, 0, 53, 100
2, 4489216, Note_off_c, 0, 55, 64
2, 4490240, Note_off_c, 0, 53, 64
2, 4491264, Note_off_c, 0, 41, 64
2, 4498432, Note_on_c, 0, 53, 100
2, 4499456, Note_on_c, 0, 48, 100
2, 4506624, Note_on_c, 0, 60, 100
2, 4507648, Note_off_c, 0, 53, 64
2, 4508672, Note_off_c, 0, 48, 64
2, 4509696, Note_on_c, 0, 50, 100
2, 4516864, Note_off_c, 0, 50, 64
2, 4517888, Note_on_c, 0, 52, 100
2, 4520960, Note_on_c, 0, 53, 100
2, 4524032, Note_on_c, 0, 57, 100
2, 4525056, Note_off_c, 0, 52, 64
2, 4526080, Note_off_c, 0, 53, 64
2, 4527104, Note_on_c, 0, 41, 100
2, 4534272, Note_on_c, 0, 53, 100
2, 4535296, Note_on_c, 0, 55, 100
2, 4538368, Note_off_c, 0, 57, 64
2, 4539392, Note_off_c, 0, 53, 64
2, 4542464, Note_off_c, 0, 60, 64
2, 4543488, Note_off_c, 0, 55, 64
2, 4544512, Note_on_c, 0, 57, 100
2, 4545536, Note_off_c, 0, 41, 64
2, 4552704, Note_off_c, 0, 57, 64
2, 4553728, Note_on_c, 0, 55, 100
2, 4556800, Note_on_c, 0, 60, 100
2, 4559872, Note_on_c, 0, 57, 100
2, 4560896, Note_off_c, 0, 55, 64
2, 4561920, Note_on_c, 0, 53, 100
2, 4569088, Note_off_c, 0, 53, 64
2, 4570112, Note_on_c, 0, 55, 100
2, 4573184, Note_off_c, 0, 57, 64
2, 4576256, Note_off_c, 0, 60, 64
2, 4577280, Note_off_c, 0, 55, 64
2, 4578304, Note_on_c, 0, 57, 100
2, 4579328, Note_on_c, 0, 41, 100
2, 4580352, Note_on_c, 0, 53, 100
2, 4587520, Note_off_c, 0, 57, 64
2, 4588544, Note_on_c, 0, 58, 100
2, 4591616, Note_on_c, 0, 60, 100
2, 4592640, Note_off_c, 0, 53, 64
2, 4595712, Note_off_c, 0, 65, 64
2, 4596736, Note_off_c, 0, 58, 64
2, 4597760, Note_off_c, 0, 60, 64
2, 4598784, Note_on_c, 0, 57, 100
2, 4599808, Note_off_c, 0, 41, 64
2, 4600832, Note_on_c, 0, 29, 100
2, 4612096, Note_on_c, 0, 65, 100
2, 4613120, Note_on_c, 0, 60, 100
2, 4616192, Note_off_c, 0, 60, 64
2, 4617216, Note_on_c, 0, 53, 100
2, 4628480, Note_on_c, 0, 60, 100
2, 4629504, Note_off_c, 0, 53, 64
2, 4632576, Note_off_c, 0, 62, 64
2, 4633600, Note_off_c, 0, 57, 64
2, 4634624, Note_off_c, 0, 60, 64
2, 4635648, Note_on_c, 0, 41, 100
2, 4636672, Note_off_c, 0, 29, 64
2, 4652032, Note_on_c, 0, 58, 100
2, 4653056, Note_on_c, 0, 53, 100
2, 4654080, Note_off_c, 0, 41, 64
2, 4669440, Note_on_c, 0, 62, 100
2, 4670464, Note_on_c, 0, 60, 100
2, 4677632, Note_off_c, 0, 60, 64
2, 4678656, Note_off_c, 0, 58, 64
2, 4681728, Note_on_c, 0, 60, 100
2, 4684800, Note_on_c, 0, 58, 100
2, 4685824, Note_on_c, 0, 57, 100
2, 4686848, Note_off_c, 0, 65, 64
2, 4687872, Note_off_c, 0, 53, 64
2, 4688896, Note_on_c, 0, 41, 100
2, 4696064, Note_off_c, 0, 57, 64
2, 4697088, Note_on_c, 0, 55, 100
2, 4704256, Note_off_c, 0, 55, 64
2, 4705280, Note_on_c, 0, 57, 100
2, 4706304, Note_off_c, 0, 41, 64
2, 4713472, Note_off_c, 0, 57, 64
2, 4714496, Note_off_c, 0, 58, 64
2, 4721664, Note_on_c, 0, 58, 100
2, 4722688, Note_off_c, 0, 60, 64
2, 4723712, Note_on_c, 0, 65, 100
2, 4730880, Note_on_c, 0, 60, 100
2, 4731904, Note_off_c, 0, 58, 64
2, 4734976, Note_off_c, 0, 60, 64
2, 4738048, Note_on_c, 0, 58, 100
2, 4739072, Note_on_c, 0, 57, 100
2, 4740096, Note_off_c, 0, 62, 64
2, 4741120, Note_on_c, 0, 41, 100
2, 4748288, Note_off_c, 0, 57, 64
2, 4749312, Note_on_c, 0, 55, 100
2, 4756480, Note_off_c, 0, 55, 64
2, 4757504, Note_on_c, 0, 53, 100
2, 4764672, Note_off_c, 0, 53, 64
2, 4765696, Note_on_c, 0, 55, 100
2, 4772864, Note_off_c, 0, 55, 64
2, 4773888, Note_on_c, 0, 57, 100
2, 4774912, Note_on_c, 0, 62, 100
2, 4775936, Note_on_c, 0, 60, 100
2, 4783104, Note_off_c, 0, 57, 64
2, 4784128, Note_on_c, 0, 55, 100
2, 4787200, Note_off_c, 0, 60, 64
2, 4790272, Note_off_c, 0, 55, 64
2, 4791296, Note_on_c, 0, 53, 100
2, 4792320, Note_off_c, 0, 65, 64
2, 4793344, Note_on_c, 0, 60, 100
2, 4794368, Note_on_c, 0, 57, 100
2, 4795392, Note_off_c, 0, 41, 64
2, 4796416, Note_on_c, 0, 29, 100
2, 4803584, Note_off_c, 0, 53, 64
2, 4804608, Note_on_c, 0, 52, 100
2, 4807680, Note_on_c, 0, 41, 100
2, 4808704, Note_off_c, 0, 29, 64
2, 4811776, Note_off_c, 0, 52, 64
2, 4812800, Note_on_c, 0, 50, 100
2, 4813824, Note_off_c, 0, 60, 64
2, 4814848, Note_off_c, 0, 62, 64
2, 4815872, Note_off_c, 0, 57, 64
2, 4816896, Note_off_c, 0, 58, 64
2, 4817920, Note_on_c, 0, 46, 100
2, 4818944, Note_on_c, 0, 34, 100
2, 4834304, Note_off_c, 0, 50, 64
2, 4835328, Note_on_c, 0, 62, 100
2, 4836352, Note_on_c, 0, 65, 100
2, 4847616, Note_off_c, 0, 62, 64
2, 4850688, Note_on_c, 0, 70, 100
2, 4851712, Note_on_c, 0, 62, 100
2, 4852736, Note_on_c, 0, 67, 100
2, 4853760, Note_on_c, 0, 58, 100
2, 4854784, Note_off_c, 0, 46, 64
2, 4855808, Note_on_c, 0, 43, 100
2, 4856832, Note_off_c, 0, 34, 64
2, 4857856, Note_on_c, 0, 31, 100
2, 4869120, Note_off_c, 0, 67, 64
2, 4870144, Note_off_c, 0, 62, 64
2, 4871168, Note_off_c, 0, 43, 64
2, 4872192, Note_off_c, 0, 31, 64
2, 4875264, Note_on_c, 0, 55, 100
2, 4876288, Note_on_c, 0, 64, 100
2, 4877312, Note_on_c, 0, 48, 100
2, 4878336, Note_on_c, 0, 36, 100
2, 4893696, Note_off_c, 0, 70, 64
2, 4894720, Note_off_c, 0, 64, 64
2, 4905984, Note_on_c, 0, 64, 100
2, 4909056, Note_on_c, 0, 72, 100
2, 4910080, Note_off_c, 0, 55, 64
2, 4911104, Note_on_c, 0, 67, 100
2, 4912128, Note_off_c, 0, 64, 64
2, 4913152, Note_on_c, 0, 60, 100
2, 4914176, Note_off_c, 0, 48, 64
2, 4915200, Note_on_c, 0, 52, 100
2, 4916224, Note_off_c, 0, 36, 64
2, 4917248, Note_on_c, 0, 40, 100
2, 4928512, Note_off_c, 0, 67, 64
2, 4929536, Note_off_c, 0, 60, 64
2, 4930560, Note_off_c, 0, 52, 64
2, 4931584, Note_off_c, 0, 40, 64
2, 4934656, Note_off_c, 0, 72, 64
2, 4935680, Note_off_c, 0, 69, 64
2, 4936704, Note_off_c, 0, 65, 64
2, 4937728, Note_on_c, 0, 60, 100
2, 4938752, Note_on_c, 0, 53, 100
2, 4939776, Note_off_c, 0, 41, 64
2, 4951040, Note_on_c, 0, 69, 100
2, 4952064, Note_on_c, 0, 65, 100
2, 4953088, Note_off_c, 0, 60, 64
2, 4954112, Note_off_c, 0, 53, 64
2, 4955136, Note_on_c, 0, 41, 100
2, 4958208, Note_off_c, 0, 65, 64
2, 4959232, Note_on_c, 0, 60, 100
2, 4960256, Note_on_c, 0, 57, 100
2, 4961280, Note_on_c, 0, 33, 100
2, 4962304, Note_on_c, 0, 45, 100
2, 4973568, Note_on_c, 0, 65, 100
2, 4974592, Note_off_c, 0, 60, 64
2, 4975616, Note_off_c, 0, 57, 64
2, 4976640, Note_off_c, 0, 33, 64
2, 4977664, Note_off_c, 0, 45, 64
2, 4980736, Note_on_c, 0, 64, 100
2, 4981760, Note_on_c, 0, 60, 100
2, 4982784, Note_on_c, 0, 55, 100
2, 4983808, Note_on_c, 0, 36, 100
2, 4984832, Note_on_c, 0, 48, 100
2, 4987904, Note_off_c, 0, 64, 64
2, 4988928, Note_off_c, 0, 65, 64
2, 4992000, Note_on_c, 0, 65, 100
2, 4993024, Note_on_c, 0, 64, 100
2, 4996096, Note_off_c, 0, 60, 64
2, 4997120, Note_off_c, 0, 55, 64
2, 4998144, Note_off_c, 0, 36, 64
2, 4999168, Note_off_c, 0, 48, 64
2, 5002240, Note_off_c, 0, 64, 64
2, 5003264, Note_off_c, 0, 65, 64
2, 5004288, Note_on_c, 0, 60, 100
2, 5005312, Note_on_c, 0, 57, 100
2, 5006336, Note_on_c, 0, 53, 100
2, 5007360, Note_off_c, 0, 41, 64
2, 5008384, Note_on_c, 0, 29, 100
2, 5015552, Note_off_c, 0, 53, 64
2, 5016576, Note_on_c, 0, 55, 100
2, 5023744, Note_off_c, 0, 55, 64
2, 5024768, Note_off_c, 0, 57, 64
2, 5031936, Note_on_c, 0, 57, 100
2, 5032960, Note_on_c, 0, 55, 100
2, 5040128, Note_on_c, 0, 65, 100
2, 5041152, Note_off_c, 0, 60, 64
2, 5042176, Note_off_c, 0, 57, 64
2, 5043200, Note_off_c, 0, 55, 64
2, 5044224, Note_on_c, 0, 53, 100
2, 5045248, Note_on_c, 0, 41, 100
2, 5046272, Note_off_c, 0, 29, 64
2, 5053440, Note_off_c, 0, 53, 64
2, 5054464, Note_on_c, 0, 51, 100
2, 5057536, Note_on_c, 0, 60, 100
2, 5060608, Note_off_c, 0, 65, 64
2, 5061632, Note_off_c, 0, 51, 64
2, 5062656, Note_on_c, 0, 50, 100
2, 5069824, Note_off_c, 0, 50, 64
2, 5070848, Note_on_c, 0, 51, 100
2, 5078016, Note_off_c, 0, 51, 64
2, 5079040, Note_on_c, 0, 53, 100
2, 5086208, Note_off_c, 0, 53, 64
2, 5087232, Note_on_c, 0, 51, 100
2, 5094400, Note_off_c, 0, 69, 64
2, 5095424, Note_off_c, 0, 51, 64
2, 5096448, Note_on_c, 0, 50, 100
2, 5103616, Note_off_c, 0, 50, 64
2, 5104640, Note_on_c, 0, 48, 100
2, 5107712, Note_on_c, 0, 69, 100
2, 5110784, Note_on_c, 0, 74, 100
2, 5111808, Note_off_c, 0, 48, 64
2, 5112832, Note_on_c, 0, 47, 100
2, 5120000, Note_off_c, 0, 47, 64
2, 5121024, Note_on_c, 0, 50, 100
2, 5128192, Note_on_c, 0, 65, 100
2, 5129216, Note_on_c, 0, 59, 100
2, 5130240, Note_off_c, 0, 50, 64
2, 5131264, Note_on_c, 0, 55, 100
2, 5138432, Note_off_c, 0, 55, 64
2, 5139456, Note_on_c, 0, 53, 100
2, 5142528, Note_off_c, 0, 59, 64
2, 5145600, Note_on_c, 0, 62, 100
2, 5146624, Note_off_c, 0, 53, 64
2, 5147648, Note_on_c, 0, 51, 100
2, 5154816, Note_off_c, 0, 51, 64
2, 5155840, Note_on_c, 0, 50, 100
2, 5158912, Note_off_c, 0, 62, 64
2, 5161984, Note_on_c, 0, 63, 100
2, 5163008, Note_off_c, 0, 50, 64
2, 5164032, Note_on_c, 0, 48, 100
2, 5171200, Note_off_c, 0, 63, 64
2, 5172224, Note_off_c, 0, 65, 64
2, 5175296, Note_off_c, 0, 48, 64
2, 5178368, Note_off_c, 0, 74, 64
2, 5179392, Note_on_c, 0, 67, 100
2, 5180416, Note_on_c, 0, 65, 100
2, 5181440, Note_on_c, 0, 51, 100
2, 5188608, Note_off_c, 0, 67, 64
2, 5189632, Note_off_c, 0, 65, 64
2, 5192704, Note_on_c, 0, 67, 100
2, 5193728, Note_off_c, 0, 51, 64
2, 5196800, Note_on_c, 0, 71, 100
2, 5197824, Note_on_c, 0, 65, 100
2, 5198848, Note_on_c, 0, 63, 100
2, 5199872, Note_off_c, 0, 67, 64
2, 5200896, Note_on_c, 0, 55, 100
2, 5201920, Note_on_c, 0, 43, 100
2, 5202944, Note_on_c, 0, 31, 100
2, 5210112, Note_off_c, 0, 63, 64
2, 5211136, Note_on_c, 0, 62, 100
2, 5212160, Note_off_c, 0, 43, 64
2, 5213184, Note_off_c, 0, 31, 64
2, 5216256, Note_off_c, 0, 71, 64
2, 5217280, Note_on_c, 0, 67, 100
2, 5218304, Note_off_c, 0, 55, 64
2, 5221376, Note_on_c, 0, 72, 100
2, 5222400, Note_off_c, 0, 62, 64
2, 5223424, Note_on_c, 0, 63, 100
2, 5224448, Note_on_c, 0, 55, 100
2, 5225472, Note_off_c, 0, 60, 64
2, 5226496, Note_on_c, 0, 36, 100
2, 5227520, Note_on_c, 0, 48, 100
2, 5234688, Note_off_c, 0, 63, 64
2, 5235712, Note_on_c, 0, 62, 100
2, 5238784, Note_off_c, 0, 72, 64
2, 5239808, Note_on_c, 0, 60, 100
2, 5242880, Note_off_c, 0, 60, 64
2, 5243904, Note_off_c, 0, 62, 64
2, 5244928, Note_on_c, 0, 51, 100
2, 5252096, Note_on_c, 0, 60, 100
2, 5253120, Note_on_c, 0, 63, 100
2, 5256192, Note_off_c, 0, 60, 64
2, 5257216, Note_off_c, 0, 51, 64
2, 5260288, Note_off_c, 0, 63, 64
2, 5261312, Note_on_c, 0, 62, 100
2, 5262336, Note_off_c, 0, 55, 64
2, 5263360, Note_off_c, 0, 36, 64
2, 5264384, Note_off_c, 0, 48, 64
2, 5271552, Note_off_c, 0, 62, 64
2, 5272576, Note_off_c, 0, 65, 64
2, 5275648, Note_on_c, 0, 55, 100
2, 5278720, Note_on_c, 0, 65, 100
2, 5279744, Note_on_c, 0, 63, 100
2, 5280768, Note_on_c, 0, 48, 100
2, 5287936, Note_off_c, 0, 48, 64
2, 5288960, Note_on_c, 0, 50, 100
2, 5296128, Note_off_c, 0, 50, 64
2, 5297152, Note_on_c, 0, 51, 100
2, 5304320, Note_off_c, 0, 51, 64
2, 5305344, Note_on_c, 0, 50, 100
2, 5312512, Note_off_c, 0, 67, 64
2, 5313536, Note_off_c, 0, 50, 64
2, 5314560, Note_on_c, 0, 48, 100
2, 5321728, Note_off_c, 0, 48, 64
2, 5322752, Note_on_c, 0, 46, 100
2, 5325824, Note_on_c, 0, 67, 100
2, 5328896, Note_on_c, 0, 72, 100
2, 5329920, Note_off_c, 0, 46, 64
2, 5330944, Note_on_c, 0, 45, 100
2, 5338112, Note_off_c, 0, 45, 64
2, 5339136, Note_on_c, 0, 48, 100
2, 5346304, Note_off_c, 0, 63, 64
2, 5347328, Note_on_c, 0, 57, 100
2, 5348352, Note_off_c, 0, 48, 64
2, 5349376, Note_on_c, 0, 53, 100
2, 5356544, Note_off_c, 0, 53, 64
2, 5357568, Note_on_c, 0, 51, 100
2, 5360640, Note_off_c, 0, 57, 64
2, 5363712, Note_on_c, 0, 60, 100
2, 5364736, Note_off_c, 0, 51, 64
2, 5365760, Note_on_c, 0, 50, 100
2, 5372928, Note_off_c, 0, 50, 64
2, 5373952, Note_on_c, 0, 48, 100
2, 5377024, Note_off_c, 0, 60, 64
2, 5380096, Note_on_c, 0, 62, 100
2, 5381120, Note_off_c, 0, 48, 64
2, 5382144, Note_on_c, 0, 46, 100
2, 5389312, Note_off_c, 0, 62, 64
2, 5390336, Note_on_c, 0, 63, 100
2, 5393408, Note_off_c, 0, 46, 64
2, 5396480, Note_off_c, 0, 72, 64
2, 5397504, Note_off_c, 0, 65, 64
2, 5398528, Note_off_c, 0, 63, 64
2, 5399552, Note_on_c, 0, 50, 100
2, 5406720, Note_on_c, 0, 65, 100
2, 5407744, Note_on_c, 0, 63, 100
2, 5410816, Note_off_c, 0, 65, 64
2, 5411840, Note_off_c, 0, 50, 64
2, 5414912, Note_off_c, 0, 69, 64
2, 5415936, Note_off_c, 0, 63, 64
2, 5416960, Note_on_c, 0, 62, 100
2, 5417984, Note_on_c, 0, 65, 100
2, 5419008, Note_on_c, 0, 53, 100
2, 5420032, Note_off_c, 0, 41, 64
2, 5421056, Note_on_c, 0, 29, 100
2, 5428224, Note_off_c, 0, 62, 64
2, 5429248, Note_on_c, 0, 60, 100
2, 5430272, Note_on_c, 0, 41, 100
2, 5431296, Note_off_c, 0, 29, 64
2, 5434368, Note_on_c, 0, 69, 100
2, 5435392, Note_off_c, 0, 65, 64
2, 5436416, Note_off_c, 0, 53, 64
2, 5439488, Note_on_c, 0, 70, 100
2, 5440512, Note_off_c, 0, 60, 64
2, 5441536, Note_on_c, 0, 62, 100
2, 5442560, Note_on_c, 0, 53, 100
2, 5443584, Note_off_c, 0, 58, 64
2, 5444608, Note_on_c, 0, 34, 100
2, 5445632, Note_on_c, 0, 46, 100
2, 5452800, Note_on_c, 0, 58, 100
2, 5453824, Note_on_c, 0, 60, 100
2, 5456896, Note_off_c, 0, 70, 64
2, 5457920, Note_off_c, 0, 62, 64
2, 5460992, Note_off_c, 0, 58, 64
2, 5462016, Note_off_c, 0, 60, 64
2, 5469184, Note_on_c, 0, 58, 100
2, 5470208, Note_on_c, 0, 57, 100
2, 5473280, Note_off_c, 0, 58, 64
2, 5476352, Note_on_c, 0, 62, 100
2, 5477376, Note_off_c, 0, 53, 64
2, 5478400, Note_off_c, 0, 57, 64
2, 5479424, Note_off_c, 0, 55, 64
2, 5480448, Note_off_c, 0, 34, 64
2, 5481472, Note_off_c, 0, 46, 64
2, 5488640, Note_on_c, 0, 55, 100
2, 5489664, Note_on_c, 0, 53, 100
2, 5492736, Note_off_c, 0, 62, 64
2, 5495808, Note_off_c, 0, 67, 64
2, 5496832, Note_off_c, 0, 53, 64
2, 5497856, Note_on_c, 0, 51, 100
2, 5505024, Note_off_c, 0, 51, 64
2, 5506048, Note_on_c, 0, 53, 100
2, 5513216, Note_off_c, 0, 53, 64
2, 5514240, Note_off_c, 0, 55, 64
2, 5521408, Note_on_c, 0, 55, 100
2, 5522432, Note_on_c, 0, 53, 100
2, 5529600, Note_on_c, 0, 70, 100
2, 5530624, Note_off_c, 0, 53, 64
2, 5531648, Note_on_c, 0, 51, 100
2, 5538816, Note_off_c, 0, 51, 64
2, 5539840, Note_on_c, 0, 50, 100
2, 5542912, Note_off_c, 0, 70, 64
2, 5545984, Note_on_c, 0, 75, 100
2, 5547008, Note_off_c, 0, 50, 64
2, 5548032, Note_on_c, 0, 48, 100
2, 5555200, Note_off_c, 0, 48, 64
2, 5556224, Note_on_c, 0, 51, 100
2, 5563392, Note_on_c, 0, 67, 100
2, 5564416, Note_on_c, 0, 60, 100
2, 5565440, Note_off_c, 0, 51, 64
2, 5566464, Note_on_c, 0, 57, 100
2, 5573632, Note_off_c, 0, 57, 64
2, 5574656, Note_off_c, 0, 55, 64
2, 5577728, Note_off_c, 0, 60, 64
2, 5580800, Note_on_c, 0, 63, 100
2, 5581824, Note_on_c, 0, 60, 100
2, 5582848, Note_on_c, 0, 57, 100
2, 5583872, Note_on_c, 0, 55, 100
2, 5584896, Note_on_c, 0, 53, 100
2, 5585920, Note_on_c, 0, 36, 100
2, 5586944, Note_on_c, 0, 48, 100
2, 5594112, Note_off_c, 0, 53, 64
2, 5595136, Note_on_c, 0, 51, 100
2, 5598208, Note_off_c, 0, 63, 64
2, 5599232, Note_off_c, 0, 60, 64
2, 5600256, Note_off_c, 0, 57, 64
2, 5601280, Note_off_c, 0, 36, 64
2, 5602304, Note_off_c, 0, 48, 64
2, 5605376, Note_on_c, 0, 65, 100
2, 5606400, Note_on_c, 0, 60, 100
2, 5607424, Note_on_c, 0, 53, 100
2, 5608448, Note_off_c, 0, 51, 64
2, 5609472, Note_on_c, 0, 50, 100
2, 5610496, Note_on_c, 0, 38, 100
2, 5617664, Note_off_c, 0, 50, 64
2, 5618688, Note_on_c, 0, 51, 100
2, 5625856, Note_off_c, 0, 75, 64
2, 5626880, Note_off_c, 0, 69, 64
2, 5627904, Note_off_c, 0, 51, 64
2, 5628928, Note_off_c, 0, 53, 64
2, 5636096, Note_on_c, 0, 53, 100
2, 5637120, Note_on_c, 0, 51, 100
2, 5640192, Note_on_c, 0, 69, 100
2, 5643264, Note_on_c, 0, 72, 100
2, 5644288, Note_off_c, 0, 51, 64
2, 5645312, Note_on_c, 0, 50, 100
2, 5652480, Note_off_c, 0, 50, 64
2, 5653504, Note_on_c, 0, 48, 100
2, 5656576, Note_off_c, 0, 72, 64
2, 5659648, Note_on_c, 0, 74, 100
2, 5660672, Note_off_c, 0, 60, 64
2, 5661696, Note_off_c, 0, 53, 64
2, 5662720, Note_off_c, 0, 48, 64
2, 5663744, Note_on_c, 0, 46, 100
2, 5664768, Note_off_c, 0, 38, 64
2, 5665792, Note_on_c, 0, 50, 100
2, 5672960, Note_off_c, 0, 46, 64
2, 5673984, Note_off_c, 0, 50, 64
2, 5681152, Note_off_c, 0, 65, 64
2, 5682176, Note_on_c, 0, 58, 100
2, 5683200, Note_on_c, 0, 50, 100
2, 5684224, Note_off_c, 0, 55, 64
2, 5691392, Note_on_c, 0, 55, 100
2, 5692416, Note_on_c, 0, 53, 100
2, 5695488, Note_off_c, 0, 58, 64
2, 5698560, Note_on_c, 0, 62, 100
2, 5699584, Note_on_c, 0, 58, 100
2, 5700608, Note_off_c, 0, 55, 64
2, 5701632, Note_off_c, 0, 53, 64
2, 5702656, Note_on_c, 0, 51, 100
2, 5703680, Note_on_c, 0, 34, 100
2, 5704704, Note_on_c, 0, 46, 100
2, 5711872, Note_off_c, 0, 51, 64
2, 5712896, Note_off_c, 0, 50, 64
2, 5715968, Note_off_c, 0, 62, 64
2, 5716992, Note_off_c, 0, 58, 64
2, 5718016, Note_on_c, 0, 55, 100
2, 5719040, Note_off_c, 0, 34, 64
2, 5720064, Note_off_c, 0, 46, 64
2, 5723136, Note_on_c, 0, 63, 100
2, 5724160, Note_on_c, 0, 58, 100
2, 5725184, Note_on_c, 0, 51, 100
2, 5726208, Note_on_c, 0, 50, 100
2, 5727232, Note_on_c, 0, 48, 100
2, 5728256, Note_on_c, 0, 36, 100
2, 5735424, Note_off_c, 0, 48, 64
2, 5736448, Note_off_c, 0, 50, 64
2, 5743616, Note_off_c, 0, 74, 64
2, 5744640, Note_off_c, 0, 67, 64
2, 5745664, Note_on_c, 0, 50, 100
2, 5746688, Note_off_c, 0, 51, 64
2, 5753856, Note_on_c, 0, 51, 100
2, 5754880, Note_off_c, 0, 50, 64
2, 5757952, Note_on_c, 0, 67, 100
2, 5761024, Note_on_c, 0, 70, 100
2, 5762048, Note_on_c, 0, 50, 100
2, 5763072, Note_on_c, 0, 48, 100
2, 5770240, Note_off_c, 0, 48, 64
2, 5771264, Note_on_c, 0, 46, 100
2, 5774336, Note_off_c, 0, 70, 64
2, 5777408, Note_on_c, 0, 72, 100
2, 5778432, Note_off_c, 0, 58, 64
2, 5779456, Note_off_c, 0, 51, 64
2, 5780480, Note_off_c, 0, 46, 64
2, 5781504, Note_on_c, 0, 45, 100
2, 5782528, Note_off_c, 0, 36, 64
2, 5783552, Note_on_c, 0, 48, 100
2, 5790720, Note_off_c, 0, 45, 64
2, 5791744, Note_off_c, 0, 48, 64
2, 5798912, Note_off_c, 0, 63, 64
2, 5799936, Note_on_c, 0, 57, 100
2, 5800960, Note_on_c, 0, 48, 100
2, 5801984, Note_on_c, 0, 53, 100
2, 5809152, Note_off_c, 0, 53, 64
2, 5810176, Note_on_c, 0, 51, 100
2, 5813248, Note_off_c, 0, 57, 64
2, 5816320, Note_on_c, 0, 60, 100
2, 5817344, Note_on_c, 0, 57, 100
2, 5818368, Note_on_c, 0, 53, 100
2, 5819392, Note_off_c, 0, 51, 64
2, 5820416, Note_off_c, 0, 50, 64
2, 5821440, Note_off_c, 0, 41, 64
2, 5822464, Note_on_c, 0, 29, 100
2, 5829632, Note_on_c, 0, 50, 100
2, 5830656, Note_off_c, 0, 48, 64
2, 5833728, Note_off_c, 0, 60, 64
2, 5834752, Note_off_c, 0, 57, 64
2, 5835776, Note_off_c, 0, 53, 64
2, 5836800, Note_on_c, 0, 41, 100
2, 5837824, Note_off_c, 0, 29, 64
2, 5840896, Note_on_c, 0, 62, 100
2, 5841920, Note_on_c, 0, 58, 100
2, 5842944, Note_on_c, 0, 48, 100
2, 5843968, Note_on_c, 0, 46, 100
2, 5844992, Note_on_c, 0, 34, 100
2, 5852160, Note_off_c, 0, 62, 64
2, 5853184, Note_on_c, 0, 60, 100
2, 5854208, Note_off_c, 0, 46, 64
2, 5855232, Note_on_c, 0, 45, 100
2, 5862400, Note_off_c, 0, 72, 64
2, 5863424, Note_on_c, 0, 65, 100
2, 5864448, Note_off_c, 0, 60, 64
2, 5865472, Note_on_c, 0, 62, 100
2, 5866496, Note_off_c, 0, 45, 64
2, 5867520, Note_on_c, 0, 46, 100
2, 5874688, Note_off_c, 0, 62, 64
2, 5875712, Note_on_c, 0, 63, 100
2, 5876736, Note_off_c, 0, 46, 64
2, 5877760, Note_off_c, 0, 48, 64
2, 5880832, Note_off_c, 0, 65, 64
2, 5883904, Note_on_c, 0, 70, 100
2, 5884928, Note_off_c, 0, 63, 64
2, 5885952, Note_on_c, 0, 65, 100
2, 5886976, Note_on_c, 0, 48, 100
2, 5888000, Note_off_c, 0, 50, 64
2, 5895168, Note_off_c, 0, 65, 64
2, 5896192, Note_off_c, 0, 67, 64
2, 5897216, Note_on_c, 0, 50, 100
2, 5898240, Note_on_c, 0, 51, 100
2, 5905408, Note_on_c, 0, 67, 100
2, 5906432, Note_on_c, 0, 60, 100
2, 5907456, Note_off_c, 0, 58, 64
2, 5908480, Note_off_c, 0, 51, 64
2, 5909504, Note_on_c, 0, 53, 100
2, 5910528, Note_off_c, 0, 34, 64
2, 5911552, Note_on_c, 0, 46, 100
2, 5918720, Note_off_c, 0, 53, 64
2, 5919744, Note_on_c, 0, 52, 100
2, 5922816, Note_off_c, 0, 60, 64
2, 5925888, Note_off_c, 0, 70, 64
2, 5926912, Note_off_c, 0, 69, 64
2, 5927936, Note_on_c, 0, 53, 100
2, 5928960, Note_off_c, 0, 52, 64
2, 5936128, Note_off_c, 0, 53, 64
2, 5937152, Note_off_c, 0, 48, 64
2, 5940224, Note_on_c, 0, 69, 100
2, 5941248, Note_on_c, 0, 53, 100
2, 5944320, Note_on_c, 0, 77, 100
2, 5945344, Note_on_c, 0, 48, 100
2, 5946368, Note_on_c, 0, 45, 100
2, 5953536, Note_off_c, 0, 45, 64
2, 5954560, Note_off_c, 0, 48, 64
2, 5961728, Note_off_c, 0, 69, 64
2, 5962752, Note_on_c, 0, 65, 100
2, 5963776, Note_on_c, 0, 48, 100
2, 5964800, Note_off_c, 0, 41, 64
2, 5965824, Note_on_c, 0, 29, 100
2, 5981184, Note_off_c, 0, 77, 64
2, 5982208, Note_on_c, 0, 72, 100
2, 5993472, Note_off_c, 0, 72, 64
2, 5996544, Note_on_c, 0, 74, 100
2, 5997568, Note_on_c, 0, 69, 100
2, 5998592, Note_off_c, 0, 65, 64
2, 5999616, Note_on_c, 0, 41, 100
2, 6000640, Note_off_c, 0, 29, 64
2, 6016000, Note_off_c, 0, 74, 64
2, 6017024, Note_on_c, 0, 70, 100
2, 6018048, Note_on_c, 0, 65, 100
2, 6019072, Note_off_c, 0, 53, 64
2, 6020096, Note_off_c, 0, 41, 64
2, 6035456, Note_on_c, 0, 74, 100
2, 6036480, Note_on_c, 0, 72, 100
2, 6047744, Note_off_c, 0, 72, 64
2, 6050816, Note_on_c, 0, 77, 100
2, 6051840, Note_off_c, 0, 70, 64
2, 6052864, Note_off_c, 0, 65, 64
2, 6053888, Note_on_c, 0, 53, 100
2, 6054912, Note_on_c, 0, 41, 100
2, 6070272, Note_off_c, 0, 69, 64
2, 6071296, Note_on_c, 0, 60, 100
2, 6072320, Note_off_c, 0, 41, 64
2, 6073344, Note_on_c, 0, 29, 100
2, 6088704, Note_off_c, 0, 77, 64
2, 6089728, Note_on_c, 0, 72, 100
2, 6100992, Note_off_c, 0, 72, 64
2, 6104064, Note_off_c, 0, 74, 64
2, 6105088, Note_on_c, 0, 69, 100
2, 6106112, Note_off_c, 0, 60, 64
2, 6107136, Note_on_c, 0, 41, 100
2, 6108160, Note_off_c, 0, 29, 64
2, 6123520, Note_on_c, 0, 65, 100
2, 6124544, Note_on_c, 0, 58, 100
2, 6125568, Note_off_c, 0, 53, 64
2, 6126592, Note_off_c, 0, 41, 64
2, 6133760, Note_on_c, 0, 53, 100
2, 6134784, Note_off_c, 0, 48, 64
2, 6141952, Note_on_c, 0, 74, 100
2, 6142976, Note_on_c, 0, 72, 100
2, 6144000, Note_on_c, 0, 48, 100
2, 6145024, Note_off_c, 0, 50, 64
2, 6152192, Note_on_c, 0, 50, 100
2, 6153216, Note_on_c, 0, 51, 100
2, 6156288, Note_off_c, 0, 72, 64
2, 6159360, Note_on_c, 0, 75, 100
2, 6160384, Note_off_c, 0, 65, 64
2, 6161408, Note_off_c, 0, 58, 64
2, 6162432, Note_on_c, 0, 57, 100
2, 6163456, Note_off_c, 0, 51, 64
2, 6164480, Note_off_c, 0, 53, 64
2, 6165504, Note_on_c, 0, 41, 100
2, 6172672, Note_on_c, 0, 53, 100
2, 6173696, Note_off_c, 0, 55, 64
2, 6176768, Note_on_c, 0, 65, 100
2, 6177792, Note_off_c, 0, 57, 64
2, 6180864, Note_on_c, 0, 72, 100
2, 6181888, Note_off_c, 0, 53, 64
2, 6182912, Note_on_c, 0, 55, 100
2, 6183936, Note_on_c, 0, 57, 100
2, 6191104, Note_off_c, 0, 72, 64
2, 6192128, Note_off_c, 0, 74, 64
2, 6193152, Note_off_c, 0, 57, 64
2, 6194176, Note_on_c, 0, 58, 100
2, 6201344, Note_off_c, 0, 75, 64
2, 6202368, Note_off_c, 0, 69, 64
2, 6203392, Note_on_c, 0, 74, 100
2, 6204416, Note_off_c, 0, 58, 64
2, 6205440, Note_on_c, 0, 60, 100
2, 6212608, Note_on_c, 0, 75, 100
2, 6213632, Note_off_c, 0, 74, 64
2, 6214656, Note_off_c, 0, 60, 64
2, 6215680, Note_on_c, 0, 58, 100
2, 6218752, Note_on_c, 0, 69, 100
2, 6221824, Note_on_c, 0, 72, 100
2, 6222848, Note_on_c, 0, 74, 100
2, 6223872, Note_on_c, 0, 53, 100
2, 6224896, Note_off_c, 0, 65, 64
2, 6225920, Note_off_c, 0, 58, 64
2, 6226944, Note_on_c, 0, 57, 100
2, 6234112, Note_off_c, 0, 72, 64
2, 6235136, Note_on_c, 0, 70, 100
2, 6236160, Note_off_c, 0, 57, 64
2, 6237184, Note_off_c, 0, 55, 64
2, 6240256, Note_on_c, 0, 65, 100
2, 6243328, Note_off_c, 0, 70, 64
2, 6244352, Note_off_c, 0, 69, 64
2, 6245376, Note_off_c, 0, 53, 64
2, 6246400, Note_on_c, 0, 55, 100
2, 6253568, Note_on_c, 0, 69, 100
2, 6254592, Note_on_c, 0, 70, 100
2, 6255616, Note_on_c, 0, 53, 100
2, 6256640, Note_off_c, 0, 55, 64
2, 6263808, Note_on_c, 0, 72, 100
2, 6264832, Note_off_c, 0, 65, 64
2, 6265856, Note_off_c, 0, 70, 64
2, 6266880, Note_on_c, 0, 55, 100
2, 6267904, Note_on_c, 0, 57, 100
2, 6275072, Note_off_c, 0, 72, 64
2, 6276096, Note_on_c, 0, 70, 100
2, 6277120, Note_off_c, 0, 57, 64
2, 6278144, Note_off_c, 0, 55, 64
2, 6281216, Note_on_c, 0, 65, 100
2, 6284288, Note_off_c, 0, 69, 64
2, 6285312, Note_off_c, 0, 70, 64
2, 6286336, Note_off_c, 0, 53, 64
2, 6287360, Note_off_c, 0, 65, 64
2, 6288384, Note_on_c, 0, 55, 100
2, 6295552, Note_on_c, 0, 69, 100
2, 6296576, Note_off_c, 0, 67, 64
2, 6297600, Note_on_c, 0, 53, 100
2, 6298624, Note_on_c, 0, 51, 100
2, 6301696, Note_on_c, 0, 65, 100
2, 6304768, Note_on_c, 0, 67, 100
2, 6305792, Note_off_c, 0, 65, 64
2, 6306816, Note_off_c, 0, 53, 64
2, 6307840, Note_off_c, 0, 51, 64
2, 6308864, Note_off_c, 0, 50, 64
2, 6316032, Note_on_c, 0, 65, 100
2, 6317056, Note_off_c, 0, 67, 64
2, 6318080, Note_on_c, 0, 50, 100
2, 6319104, Note_on_c, 0, 51, 100
2, 6326272, Note_off_c, 0, 69, 64
2, 6327296, Note_on_c, 0, 72, 100
2, 6328320, Note_on_c, 0, 67, 100
2, 6329344, Note_off_c, 0, 51, 64
2, 6330368, Note_on_c, 0, 53, 100
2, 6337536, Note_on_c, 0, 69, 100
2, 6338560, Note_on_c, 0, 70, 100
2, 6339584, Note_off_c, 0, 53, 64
2, 6340608, Note_on_c, 0, 51, 100
2, 6343680, Note_off_c, 0, 72, 64
2, 6346752, Note_off_c, 0, 75, 64
2, 6347776, Note_off_c, 0, 70, 64
2, 6348800, Note_on_c, 0, 72, 100
2, 6349824, Note_on_c, 0, 53, 100
2, 6350848, Note_off_c, 0, 69, 64
2, 6351872, Note_off_c, 0, 65, 64
2, 6352896, Note_off_c, 0, 51, 64
2, 6353920, Note_off_c, 0, 50, 64
2, 6354944, Note_off_c, 0, 41, 64
2, 6355968, Note_on_c, 0, 29, 100
2, 6363136, Note_off_c, 0, 72, 64
2, 6364160, Note_on_c, 0, 69, 100
2, 6365184, Note_on_c, 0, 50, 100
2, 6366208, Note_off_c, 0, 48, 64
2, 6369280, Note_off_c, 0, 69, 64
2, 6370304, Note_on_c, 0, 65, 100
2, 6371328, Note_on_c, 0, 41, 100
2, 6372352, Note_off_c, 0, 29, 64
2, 6375424, Note_on_c, 0, 69, 100
2, 6376448, Note_on_c, 0, 70, 100
2, 6377472, Note_off_c, 0, 65, 64
2, 6378496, Note_off_c, 0, 53, 64
2, 6379520, Note_on_c, 0, 48, 100
2, 6380544, Note_off_c, 0, 46, 64
2, 6381568, Note_on_c, 0, 34, 100
2, 6388736, Note_on_c, 0, 46, 100
2, 6389760, Note_on_c, 0, 53, 100
2, 6392832, Note_off_c, 0, 70, 64
2, 6395904, Note_on_c, 0, 75, 100
2, 6396928, Note_off_c, 0, 74, 64
2, 6397952, Note_on_c, 0, 58, 100
2, 6398976, Note_off_c, 0, 53, 64
2, 6400000, Note_off_c, 0, 55, 64
2, 6407168, Note_on_c, 0, 55, 100
2, 6408192, Note_on_c, 0, 57, 100
2, 6411264, Note_on_c, 0, 74, 100
2, 6412288, Note_off_c, 0, 58, 64
2, 6415360, Note_on_c, 0, 58, 100
2, 6416384, Note_on_c, 0, 68, 100
2, 6417408, Note_on_c, 0, 65, 100
2, 6418432, Note_on_c, 0, 53, 100
2, 6419456, Note_on_c, 0, 62, 100
2, 6420480, Note_off_c, 0, 57, 64
2, 6421504, Note_off_c, 0, 34, 64
2, 6422528, Note_off_c, 0, 46, 64
2, 6429696, Note_off_c, 0, 58, 64
2, 6430720, Note_on_c, 0, 60, 100
2, 6433792, Note_on_c, 0, 58, 100
2, 6434816, Note_off_c, 0, 65, 64
2, 6435840, Note_off_c, 0, 62, 64
2, 6438912, Note_on_c, 0, 65, 100
2, 6439936, Note_off_c, 0, 58, 64
2, 6440960, Note_off_c, 0, 60, 64
2, 6441984, Note_on_c, 0, 62, 100
2, 6449152, Note_off_c, 0, 65, 64
2, 6450176, Note_off_c, 0, 67, 64
2, 6451200, Note_off_c, 0, 62, 64
2, 6452224, Note_on_c, 0, 63, 100
2, 6459392, Note_on_c, 0, 67, 100
2, 6460416, Note_off_c, 0, 68, 64
2, 6461440, Note_on_c, 0, 62, 100
2, 6462464, Note_off_c, 0, 63, 64
2, 6463488, Note_on_c, 0, 65, 100
2, 6470656, Note_on_c, 0, 68, 100
2, 6471680, Note_off_c, 0, 67, 64
2, 6472704, Note_off_c, 0, 65, 64
2, 6473728, Note_on_c, 0, 63, 100
2, 6476800, Note_off_c, 0, 62, 64
2, 6479872, Note_on_c, 0, 67, 100
2, 6480896, Note_on_c, 0, 65, 100
2, 6481920, Note_on_c, 0, 58, 100
2, 6482944, Note_on_c, 0, 70, 100
2, 6483968, Note_off_c, 0, 63, 64
2, 6484992, Note_on_c, 0, 62, 100
2, 6492160, Note_off_c, 0, 65, 64
2, 6493184, Note_on_c, 0, 63, 100
2, 6494208, Note_off_c, 0, 62, 64
2, 6495232, Note_on_c, 0, 60, 100
2, 6498304, Note_off_c, 0, 70, 64
2, 6501376, Note_off_c, 0, 63, 64
2, 6502400, Note_on_c, 0, 62, 100
2, 6503424, Note_off_c, 0, 58, 64
2, 6504448, Note_off_c, 0, 60, 64
2, 6511616, Note_off_c, 0, 62, 64
2, 6512640, Note_on_c, 0, 63, 100
2, 6513664, Note_on_c, 0, 58, 100
2, 6514688, Note_on_c, 0, 60, 100
2, 6521856, Note_off_c, 0, 63, 64
2, 6522880, Note_on_c, 0, 65, 100
2, 6523904, Note_off_c, 0, 58, 64
2, 6524928, Note_off_c, 0, 60, 64
2, 6525952, Note_on_c, 0, 62, 100
2, 6533120, Note_off_c, 0, 65, 64
2, 6534144, Note_on_c, 0, 63, 100
2, 6535168, Note_off_c, 0, 62, 64
2, 6536192, Note_on_c, 0, 60, 100
2, 6539264, Note_on_c, 0, 58, 100
2, 6542336, Note_off_c, 0, 63, 64
2, 6543360, Note_on_c, 0, 62, 100
2, 6544384, Note_off_c, 0, 58, 64
2, 6545408, Note_on_c, 0, 70, 100
2, 6546432, Note_off_c, 0, 60, 64
2, 6553600, Note_off_c, 0, 62, 64
2, 6554624, Note_on_c, 0, 60, 100
2, 6555648, Note_on_c, 0, 58, 100
2, 6556672, Note_on_c, 0, 56, 100
2, 6559744, Note_off_c, 0, 70, 64
2, 6562816, Note_off_c, 0, 60, 64
2, 6563840, Note_off_c, 0, 58, 64
2, 6564864, Note_off_c, 0, 56, 64
2, 6565888, Note_off_c, 0, 55, 64
2, 6573056, Note_on_c, 0, 58, 100
2, 6574080, Note_on_c, 0, 60, 100
2, 6575104, Note_on_c, 0, 55, 100
2, 6576128, Note_on_c, 0, 56, 100
2, 6583296, Note_off_c, 0, 60, 64
2, 6584320, Note_on_c, 0, 62, 100
2, 6585344, Note_on_c, 0, 65, 100
2, 6586368, Note_off_c, 0, 56, 64
2, 6587392, Note_off_c, 0, 58, 64
2, 6594560, Note_off_c, 0, 62, 64
2, 6595584, Note_on_c, 0, 63, 100
2, 6596608, Note_on_c, 0, 58, 100
2, 6597632, Note_on_c, 0, 56, 100
2, 6600704, Note_off_c, 0, 65, 64
2, 6603776, Note_off_c, 0, 63, 64
2, 6604800, Note_on_c, 0, 65, 100
2, 6605824, Note_off_c, 0, 68, 64
2, 6606848, Note_off_c, 0, 58, 64
2, 6607872, Note_on_c, 0, 70, 100
2, 6608896, Note_on_c, 0, 62, 100
2, 6609920, Note_off_c, 0, 56, 64
2, 6610944, Note_off_c, 0, 55, 64
2, 6611968, Note_on_c, 0, 34, 100
2, 6612992, Note_on_c, 0, 46, 100
2, 6620160, Note_off_c, 0, 65, 64
2, 6621184, Note_off_c, 0, 62, 64
2, 6622208, Note_on_c, 0, 55, 100
2, 6623232, Note_off_c, 0, 53, 64
2, 6626304, Note_off_c, 0, 70, 64
2, 6627328, Note_on_c, 0, 62, 100
2, 6628352, Note_off_c, 0, 34, 64
2, 6629376, Note_off_c, 0, 46, 64
2, 6632448, Note_off_c, 0, 62, 64
2, 6633472, Note_on_c, 0, 63, 100
2, 6634496, Note_on_c, 0, 58, 100
2, 6635520, Note_on_c, 0, 53, 100
2, 6636544, Note_on_c, 0, 51, 100
2, 6637568, Note_on_c, 0, 39, 100
2, 6644736, Note_off_c, 0, 51, 64
2, 6645760, Note_on_c, 0, 52, 100
2, 6648832, Note_off_c, 0, 63, 64
2, 6651904, Note_on_c, 0, 51, 100
2, 6652928, Note_on_c, 0, 68, 100
2, 6653952, Note_off_c, 0, 67, 64
2, 6654976, Note_off_c, 0, 52, 64
2, 6656000, Note_off_c, 0, 55, 64
2, 6663168, Note_on_c, 0, 55, 100
2, 6664192, Note_on_c, 0, 52, 100
2, 6667264, Note_off_c, 0, 51, 64
2, 6668288, Note_on_c, 0, 67, 100
2, 6671360, Note_off_c, 0, 67, 64
2, 6672384, Note_off_c, 0, 58, 64
2, 6673408, Note_off_c, 0, 52, 64
2, 6674432, Note_on_c, 0, 51, 100
2, 6675456, Note_off_c, 0, 39, 64
2, 6682624, Note_off_c, 0, 51, 64
2, 6683648, Note_off_c, 0, 50, 64
2, 6690816, Note_on_c, 0, 60, 100
2, 6691840, Note_off_c, 0, 55, 64
2, 6692864, Note_on_c, 0, 50, 100
2, 6693888, Note_off_c, 0, 48, 64
2, 6694912, Note_on_c, 0, 40, 100
2, 6695936, Note_on_c, 0, 52, 100
2, 6703104, Note_on_c, 0, 48, 100
2, 6704128, Note_off_c, 0, 50, 64
2, 6711296, Note_on_c, 0, 67, 100
2, 6712320, Note_off_c, 0, 60, 64
2, 6713344, Note_on_c, 0, 50, 100
2, 6714368, Note_off_c, 0, 52, 64
2, 6721536, Note_on_c, 0, 52, 100
2, 6722560, Note_off_c, 0, 50, 64
2, 6725632, Note_on_c, 0, 60, 100
2, 6728704, Note_on_c, 0, 70, 100
2, 6729728, Note_off_c, 0, 60, 64
2, 6730752, Note_on_c, 0, 55, 100
2, 6731776, Note_on_c, 0, 50, 100
2, 6732800, Note_off_c, 0, 52, 64
2, 6733824, Note_off_c, 0, 40, 64
2, 6740992, Note_on_c, 0, 52, 100
2, 6742016, Note_off_c, 0, 48, 64
2, 6749184, Note_on_c, 0, 60, 100
2, 6750208, Note_off_c, 0, 53, 64
2, 6751232, Note_on_c, 0, 48, 100
2, 6752256, Note_off_c, 0, 41, 64
2, 6759424, Note_on_c, 0, 53, 100
2, 6760448, Note_off_c, 0, 55, 64
2, 6767616, Note_off_c, 0, 70, 64
2, 6768640, Note_off_c, 0, 69, 64
2, 6769664, Note_on_c, 0, 55, 100
2, 6770688, Note_on_c, 0, 57, 100
2, 6777856, Note_off_c, 0, 57, 64
2, 6778880, Note_off_c, 0, 55, 64
2, 6781952, Note_on_c, 0, 69, 100
2, 6785024, Note_off_c, 0, 69, 64
2, 6786048, Note_off_c, 0, 60, 64
2, 6787072, Note_off_c, 0, 53, 64
2, 6788096, Note_on_c, 0, 55, 100
2, 6789120, Note_on_c, 0, 41, 100
2, 6796288, Note_on_c, 0, 53, 100
2, 6797312, Note_on_c, 0, 51, 100
2, 6804480, Note_on_c, 0, 62, 100
2, 6805504, Note_on_c, 0, 57, 100
2, 6806528, Note_off_c, 0, 51, 64
2, 6807552, Note_off_c, 0, 50, 64
2, 6808576, Note_on_c, 0, 42, 100
2, 6809600, Note_on_c, 0, 54, 100
2, 6816768, Note_on_c, 0, 50, 100
2, 6817792, Note_off_c, 0, 52, 64
2, 6824960, Note_on_c, 0, 69, 100
2, 6825984, Note_off_c, 0, 62, 64
2, 6827008, Note_on_c, 0, 52, 100
2, 6828032, Note_off_c, 0, 54, 64
2, 6835200, Note_on_c, 0, 54, 100
2, 6836224, Note_off_c, 0, 52, 64
2, 6839296, Note_on_c, 0, 62, 100
2, 6842368, Note_on_c, 0, 72, 100
2, 6843392, Note_off_c, 0, 62, 64
2, 6844416, Note_off_c, 0, 57, 64
2, 6845440, Note_on_c, 0, 52, 100
2, 6846464, Note_off_c, 0, 54, 64
2, 6847488, Note_off_c, 0, 42, 64
2, 6854656, Note_on_c, 0, 54, 100
2, 6855680, Note_off_c, 0, 50, 64
2, 6862848, Note_on_c, 0, 62, 100
2, 6863872, Note_off_c, 0, 55, 64
2, 6864896, Note_on_c, 0, 50, 100
2, 6865920, Note_on_c, 0, 43, 100
2, 6873088, Note_on_c, 0, 55, 100
2, 6874112, Note_off_c, 0, 54, 64
2, 6881280, Note_off_c, 0, 72, 64
2, 6882304, Note_on_c, 0, 70, 100
2, 6883328, Note_on_c, 0, 54, 100
2, 6884352, Note_off_c, 0, 55, 64
2, 6891520, Note_on_c, 0, 55, 100
2, 6892544, Note_on_c, 0, 57, 100
2, 6895616, Note_off_c, 0, 70, 64
2, 6898688, Note_off_c, 0, 74, 64
2, 6899712, Note_off_c, 0, 62, 64
2, 6900736, Note_off_c, 0, 55, 64
2, 6901760, Note_off_c, 0, 57, 64
2, 6902784, Note_on_c, 0, 58, 100
2, 6903808, Note_off_c, 0, 43, 64
2, 6910976, Note_off_c, 0, 58, 64
2, 6912000, Note_on_c, 0, 55, 100
2, 6919168, Note_on_c, 0, 63, 100
2, 6920192, Note_on_c, 0, 65, 100
2, 6921216, Note_on_c, 0, 60, 100
2, 6922240, Note_off_c, 0, 55, 64
2, 6923264, Note_on_c, 0, 57, 100
2, 6924288, Note_on_c, 0, 45, 100
2, 6931456, Note_off_c, 0, 57, 64
2, 6932480, Note_on_c, 0, 55, 100
2, 6939648, Note_on_c, 0, 74, 100
2, 6940672, Note_on_c, 0, 72, 100
2, 6941696, Note_off_c, 0, 55, 64
2, 6942720, Note_on_c, 0, 57, 100
2, 6949888, Note_off_c, 0, 57, 64
2, 6950912, Note_on_c, 0, 58, 100
2, 6953984, Note_off_c, 0, 72, 64
2, 6957056, Note_off_c, 0, 75, 64
2, 6958080, Note_off_c, 0, 63, 64
2, 6959104, Note_off_c, 0, 60, 64
2, 6960128, Note_off_c, 0, 65, 64
2, 6961152, Note_off_c, 0, 58, 64
2, 6962176, Note_off_c, 0, 45, 64
2, 6963200, Note_on_c, 0, 57, 100
2, 6970368, Note_on_c, 0, 60, 100
2, 6971392, Note_off_c, 0, 57, 64
2, 6974464, Note_off_c, 0, 60, 64
2, 6977536, Note_on_c, 0, 65, 100
2, 6978560, Note_on_c, 0, 58, 100
2, 6979584, Note_on_c, 0, 57, 100
2, 6980608, Note_on_c, 0, 46, 100
2, 6987776, Note_off_c, 0, 58, 64
2, 6988800, Note_off_c, 0, 57, 64
2, 6995968, Note_on_c, 0, 75, 100
2, 6996992, Note_off_c, 0, 74, 64
2, 6998016, Note_on_c, 0, 57, 100
2, 6999040, Note_on_c, 0, 58, 100
2, 7006208, Note_off_c, 0, 58, 64
2, 7007232, Note_on_c, 0, 60, 100
2, 7010304, Note_on_c, 0, 74, 100
2, 7013376, Note_on_c, 0, 77, 100
2, 7014400, Note_off_c, 0, 65, 64
2, 7015424, Note_on_c, 0, 62, 100
2, 7016448, Note_on_c, 0, 58, 100
2, 7017472, Note_off_c, 0, 60, 64
2, 7018496, Note_off_c, 0, 46, 64
2, 7025664, Note_off_c, 0, 62, 64
2, 7026688, Note_off_c, 0, 58, 64
2, 7029760, Note_on_c, 0, 62, 100
2, 7032832, Note_off_c, 0, 67, 64
2, 7033856, Note_on_c, 0, 58, 100
2, 7034880, Note_on_c, 0, 55, 100
2, 7035904, Note_on_c, 0, 51, 100
2, 7036928, Note_on_c, 0, 39, 100
2, 7044096, Note_off_c, 0, 51, 64
2, 7045120, Note_off_c, 0, 50, 64
2, 7052288, Note_off_c, 0, 77, 64
2, 7053312, Note_off_c, 0, 75, 64
2, 7054336, Note_on_c, 0, 50, 100
2, 7055360, Note_on_c, 0, 51, 100
2, 7062528, Note_on_c, 0, 75, 100
2, 7063552, Note_off_c, 0, 74, 64
2, 7064576, Note_on_c, 0, 67, 100
2, 7065600, Note_on_c, 0, 65, 100
2, 7066624, Note_off_c, 0, 51, 64
2, 7067648, Note_off_c, 0, 53, 64
2, 7074816, Note_on_c, 0, 74, 100
2, 7075840, Note_on_c, 0, 72, 100
2, 7076864, Note_off_c, 0, 65, 64
2, 7077888, Note_on_c, 0, 63, 100
2, 7078912, Note_off_c, 0, 58, 64
2, 7079936, Note_off_c, 0, 55, 64
2, 7080960, Note_on_c, 0, 53, 100
2, 7081984, Note_off_c, 0, 39, 64
2, 7083008, Note_on_c, 0, 51, 100
2, 7090176, Note_off_c, 0, 72, 64
2, 7091200, Note_on_c, 0, 70, 100
2, 7092224, Note_off_c, 0, 63, 64
2, 7093248, Note_off_c, 0, 62, 64
2, 7094272, Note_on_c, 0, 55, 100
2, 7095296, Note_off_c, 0, 51, 64
2, 7102464, Note_off_c, 0, 70, 64
2, 7103488, Note_off_c, 0, 69, 64
2, 7104512, Note_on_c, 0, 62, 100
2, 7105536, Note_on_c, 0, 60, 100
2, 7106560, Note_on_c, 0, 65, 100
2, 7107584, Note_on_c, 0, 51, 100
2, 7108608, Note_off_c, 0, 53, 64
2, 7109632, Note_off_c, 0, 41, 64
2, 7116800, Note_on_c, 0, 69, 100
2, 7117824, Note_off_c, 0, 67, 64
2, 7118848, Note_off_c, 0, 60, 64
2, 7119872, Note_on_c, 0, 58, 100
2, 7122944, Note_on_c, 0, 53, 100
2, 7126016, Note_on_c, 0, 67, 100
2, 7127040, Note_off_c, 0, 65, 64
2, 7128064, Note_off_c, 0, 58, 64
2, 7129088, Note_off_c, 0, 57, 64
2, 7130112, Note_on_c, 0, 41, 100
2, 7137280, Note_on_c, 0, 65, 100
2, 7138304, Note_on_c, 0, 63, 100
2, 7139328, Note_on_c, 0, 57, 100
2, 7140352, Note_off_c, 0, 55, 64
2, 7143424, Note_off_c, 0, 41, 64
2, 7146496, Note_off_c, 0, 63, 64
2, 7147520, Note_off_c, 0, 62, 64
2, 7148544, Note_on_c, 0, 55, 100
2, 7149568, Note_off_c, 0, 53, 64
2, 7150592, Note_off_c, 0, 65, 64
2, 7151616, Note_on_c, 0, 60, 100
2, 7152640, Note_on_c, 0, 41, 100
2, 7159808, Note_on_c, 0, 62, 100
2, 7160832, Note_off_c, 0, 60, 64
2, 7161856, Note_on_c, 0, 53, 100
2, 7162880, Note_off_c, 0, 51, 64
2, 7165952, Note_off_c, 0, 53, 64
2, 7169024, Note_on_c, 0, 60, 100
2, 7170048, Note_on_c, 0, 58, 100
2, 7171072, Note_on_c, 0, 51, 100
2, 7172096, Note_off_c, 0, 50, 64
2, 7173120, Note_on_c, 0, 46, 100
2, 7180288, Note_off_c, 0, 58, 64
2, 7181312, Note_off_c, 0, 57, 64
2, 7184384, Note_on_c, 0, 50, 100
2, 7187456, Note_on_c, 0, 57, 100
2, 7188480, Note_on_c, 0, 58, 100
2, 7189504, Note_off_c, 0, 46, 64
2, 7190528, Note_off_c, 0, 50, 64
2, 7197696, Note_on_c, 0, 53, 100
2, 7200768, Note_off_c, 0, 58, 64
2, 7201792, Note_on_c, 0, 50, 100
2, 7204864, Note_off_c, 0, 53, 64
2, 7205888, Note_off_c, 0, 55, 64
2, 7213056, Note_on_c, 0, 55, 100
2, 7214080, Note_off_c, 0, 57, 64
2, 7217152, Note_on_c, 0, 53, 100
2, 7220224, Note_on_c, 0, 57, 100
2, 7221248, Note_on_c, 0, 58, 100
2, 7222272, Note_on_c, 0, 45, 100
2, 7229440, Note_off_c, 0, 58, 64
2, 7230464, Note_off_c, 0, 57, 64
2, 7237632, Note_on_c, 0, 57, 100
2, 7238656, Note_on_c, 0, 58, 100
2, 7239680, Note_off_c, 0, 45, 64
2, 7240704, Note_off_c, 0, 50, 64
2, 7247872, Note_off_c, 0, 53, 64
2, 7250944, Note_off_c, 0, 58, 64
2, 7251968, Note_on_c, 0, 50, 100
2, 7255040, Note_on_c, 0, 53, 100
2, 7256064, Note_off_c, 0, 55, 64
2, 7263232, Note_on_c, 0, 55, 100
2, 7264256, Note_off_c, 0, 57, 64
2, 7267328, Note_off_c, 0, 53, 64
2, 7270400, Note_on_c, 0, 57, 100
2, 7271424, Note_on_c, 0, 58, 100
2, 7272448, Note_on_c, 0, 43, 100
2, 7279616, Note_off_c, 0, 58, 64
2, 7280640, Note_off_c, 0, 57, 64
2, 7287808, Note_on_c, 0, 57, 100
2, 7288832, Note_on_c, 0, 58, 100
2, 7289856, Note_off_c, 0, 43, 64
2, 7290880, Note_on_c, 0, 46, 100
2, 7298048, Note_on_c, 0, 53, 100
2, 7301120, Note_off_c, 0, 58, 64
2, 7302144, Note_off_c, 0, 46, 64
2, 7305216, Note_off_c, 0, 53, 64
2, 7306240, Note_off_c, 0, 55, 64
2, 7307264, Note_off_c, 0, 50, 64
2, 7314432, Note_on_c, 0, 55, 100
2, 7315456, Note_off_c, 0, 57, 64
2, 7318528, Note_on_c, 0, 50, 100
2, 7321600, Note_on_c, 0, 57, 100
2, 7322624, Note_on_c, 0, 58, 100
2, 7323648, Note_off_c, 0, 41, 64
2, 7330816, Note_off_c, 0, 58, 64
2, 7331840, Note_off_c, 0, 57, 64
2, 7339008, Note_on_c, 0, 57, 100
2, 7340032, Note_on_c, 0, 58, 100
2, 7341056, Note_on_c, 0, 41, 100
2, 7342080, Note_on_c, 0, 46, 100
2, 7349248, Note_off_c, 0, 55, 64
2, 7352320, Note_off_c, 0, 58, 64
2, 7353344, Note_off_c, 0, 46, 64
2, 7356416, Note_on_c, 0, 55, 100
2, 7357440, Note_off_c, 0, 57, 64
2, 7358464, Note_off_c, 0, 50, 64
2, 7365632, Note_on_c, 0, 57, 100
2, 7366656, Note_on_c, 0, 58, 100
2, 7369728, Note_on_c, 0, 50, 100
2, 7372800, Note_off_c, 0, 58, 64
2, 7373824, Note_off_c, 0, 60, 64
2, 7374848, Note_on_c, 0, 39, 100
2, 7382016, Note_on_c, 0, 60, 100
2, 7383040, Note_on_c, 0, 58, 100
2, 7390208, Note_off_c, 0, 58, 64
2, 7391232, Note_off_c, 0, 60, 64
2, 7392256, Note_off_c, 0, 39, 64
2, 7393280, Note_on_c, 0, 43, 100
2, 7400448, Note_on_c, 0, 60, 100
2, 7401472, Note_on_c, 0, 58, 100
2, 7402496, Note_off_c, 0, 55, 64
2, 7405568, Note_off_c, 0, 43, 64
2, 7408640, Note_off_c, 0, 58, 64
2, 7409664, Note_off_c, 0, 57, 64
2, 7410688, Note_on_c, 0, 55, 100
2, 7411712, Note_off_c, 0, 48, 64
2, 7418880, Note_on_c, 0, 57, 100
2, 7419904, Note_off_c, 0, 55, 64
2, 7420928, Note_on_c, 0, 58, 100
2, 7424000, Note_on_c, 0, 48, 100
2, 7427072, Note_on_c, 0, 55, 100
2, 7428096, Note_on_c, 0, 53, 100
2, 7429120, Note_off_c, 0, 58, 64
2, 7430144, Note_off_c, 0, 60, 64
2, 7431168, Note_on_c, 0, 45, 100
2, 7438336, Note_on_c, 0, 60, 100
2, 7439360, Note_on_c, 0, 58, 100
2, 7442432, Note_off_c, 0, 53, 64
2, 7445504, Note_off_c, 0, 57, 64
2, 7446528, Note_off_c, 0, 58, 64
2, 7447552, Note_off_c, 0, 60, 64
2, 7448576, Note_off_c, 0, 45, 64
2, 7449600, Note_off_c, 0, 48, 64
2, 7456768, Note_on_c, 0, 60, 100
2, 7457792, Note_on_c, 0, 58, 100
2, 7460864, Note_on_c, 0, 57, 100
2, 7461888, Note_on_c, 0, 48, 100
2, 7464960, Note_off_c, 0, 60, 64
2, 7465984, Note_off_c, 0, 58, 64
2, 7467008, Note_off_c, 0, 57, 64
2, 7468032, Note_off_c, 0, 41, 64
2, 7475200, Note_on_c, 0, 57, 100
2, 7476224, Note_off_c, 0, 55, 64
2, 7479296, Note_on_c, 0, 60, 100
2, 7480320, Note_on_c, 0, 41, 100
2, 7483392, Note_off_c, 0, 62, 64
2, 7484416, Note_on_c, 0, 55, 100
2, 7485440, Note_on_c, 0, 53, 100
2, 7486464, Note_on_c, 0, 46, 100
2, 7493632, Note_on_c, 0, 62, 100
2, 7494656, Note_off_c, 0, 60, 64
2, 7495680, Note_off_c, 0, 53, 64
2, 7496704, Note_off_c, 0, 51, 64
2, 7503872, Note_on_c, 0, 60, 100
2, 7504896, Note_off_c, 0, 62, 64
2, 7505920, Note_on_c, 0, 51, 100
2, 7506944, Note_on_c, 0, 53, 100
2, 7507968, Note_off_c, 0, 46, 64
2, 7508992, Note_off_c, 0, 50, 64
2, 7516160, Note_on_c, 0, 62, 100
2, 7517184, Note_on_c, 0, 63, 100
2, 7518208, Note_off_c, 0, 53, 64
2, 7519232, Note_off_c, 0, 55, 64
2, 7522304, Note_on_c, 0, 50, 100
2, 7525376, Note_off_c, 0, 63, 64
2, 7526400, Note_off_c, 0, 62, 64
2, 7527424, Note_on_c, 0, 55, 100
2, 7528448, Note_on_c, 0, 53, 100
2, 7535616, Note_on_c, 0, 62, 100
2, 7536640, Note_off_c, 0, 60, 64
2, 7537664, Note_off_c, 0, 53, 64
2, 7538688, Note_off_c, 0, 51, 64
2, 7541760, Note_on_c, 0, 53, 100
2, 7544832, Note_on_c, 0, 60, 100
2, 7545856, Note_on_c, 0, 58, 100
2, 7546880, Note_on_c, 0, 51, 100
2, 7547904, Note_off_c, 0, 50, 64
2, 7555072, Note_off_c, 0, 58, 64
2, 7556096, Note_off_c, 0, 62, 64
2, 7563264, Note_on_c, 0, 62, 100
2, 7564288, Note_on_c, 0, 65, 100
2, 7565312, Note_on_c, 0, 58, 100
2, 7566336, Note_off_c, 0, 57, 64
2, 7573504, Note_off_c, 0, 65, 64
2, 7574528, Note_on_c, 0, 70, 100
2, 7577600, Note_on_c, 0, 57, 100
2, 7580672, Note_off_c, 0, 70, 64
2, 7581696, Note_off_c, 0, 74, 64
2, 7582720, Note_on_c, 0, 50, 100
2, 7583744, Note_on_c, 0, 77, 100
2, 7584768, Note_off_c, 0, 58, 64
2, 7591936, Note_on_c, 0, 74, 100
2, 7592960, Note_off_c, 0, 75, 64
2, 7596032, Note_on_c, 0, 58, 100
2, 7599104, Note_on_c, 0, 75, 100
2, 7600128, Note_off_c, 0, 77, 64
2, 7601152, Note_on_c, 0, 70, 100
2, 7602176, Note_on_c, 0, 65, 100
2, 7603200, Note_off_c, 0, 50, 64
2, 7604224, Note_on_c, 0, 38, 100
2, 7615488, Note_on_c, 0, 77, 100
2, 7618560, Note_off_c, 0, 70, 64
2, 7629824, Note_on_c, 0, 70, 100
2, 7632896, Note_off_c, 0, 74, 64
2, 7633920, Note_off_c, 0, 70, 64
2, 7634944, Note_off_c, 0, 65, 64
2, 7635968, Note_on_c, 0, 50, 100
2, 7636992, Note_off_c, 0, 38, 64
2, 7652352, Note_on_c, 0, 70, 100
2, 7653376, Note_on_c, 0, 65, 100
2, 7654400, Note_off_c, 0, 55, 64
2, 7655424, Note_on_c, 0, 43, 100
2, 7670784, Note_on_c, 0, 74, 100
2, 7671808, Note_off_c, 0, 67, 64
2, 7683072, Note_on_c, 0, 67, 100
2, 7686144, Note_off_c, 0, 75, 64
2, 7687168, Note_off_c, 0, 70, 64
2, 7688192, Note_off_c, 0, 65, 64
2, 7689216, Note_on_c, 0, 55, 100
2, 7690240, Note_off_c, 0, 43, 64
2, 7705600, Note_on_c, 0, 70, 100
2, 7706624, Note_on_c, 0, 63, 100
2, 7707648, Note_off_c, 0, 48, 64
2, 7708672, Note_on_c, 0, 36, 100
2, 7724032, Note_on_c, 0, 75, 100
2, 7725056, Note_off_c, 0, 69, 64
2, 7736320, Note_on_c, 0, 69, 100
2, 7739392, Note_on_c, 0, 72, 100
2, 7740416, Note_off_c, 0, 70, 64
2, 7741440, Note_off_c, 0, 63, 64
2, 7742464, Note_on_c, 0, 48, 100
2, 7743488, Note_off_c, 0, 36, 64
2, 7758848, Note_off_c, 0, 69, 64
2, 7759872, Note_on_c, 0, 65, 100
2, 7760896, Note_off_c, 0, 53, 64
2, 7761920, Note_off_c, 0, 41, 64
2, 7777280, Note_off_c, 0, 72, 64
2, 7778304, Note_off_c, 0, 65, 64
2, 7789568, Note_on_c, 0, 65, 100
2, 7792640, Note_off_c, 0, 74, 64
2, 7793664, Note_on_c, 0, 69, 100
2, 7794688, Note_off_c, 0, 65, 64
2, 7795712, Note_on_c, 0, 53, 100
2, 7796736, Note_on_c, 0, 41, 100
2, 7812096, Note_on_c, 0, 70, 100
2, 7813120, Note_on_c, 0, 65, 100
2, 7814144, Note_on_c, 0, 46, 100
2, 7815168, Note_on_c, 0, 34, 100
2, 7822336, Note_on_c, 0, 74, 100
2, 7823360, Note_off_c, 0, 70, 64
2, 7830528, Note_on_c, 0, 70, 100
2, 7831552, Note_off_c, 0, 69, 64
2, 7832576, Note_off_c, 0, 74, 64
2, 7833600, Note_off_c, 0, 65, 64
2, 7840768, Note_on_c, 0, 69, 100
2, 7841792, Note_off_c, 0, 67, 64
2, 7844864, Note_on_c, 0, 65, 100
2, 7847936, Note_on_c, 0, 67, 100
2, 7848960, Note_off_c, 0, 65, 64
2, 7849984, Note_off_c, 0, 70, 64
2, 7851008, Note_off_c, 0, 46, 64
2, 7852032, Note_off_c, 0, 58, 64
2, 7853056, Note_off_c, 0, 34, 64
2, 7860224, Note_on_c, 0, 65, 100
2, 7861248, Note_on_c, 0, 63, 100
2, 7864320, Note_on_c, 0, 58, 100
2, 7867392, Note_off_c, 0, 63, 64
2, 7868416, Note_off_c, 0, 62, 64
2, 7869440, Note_on_c, 0, 46, 100
2, 7876608, Note_on_c, 0, 62, 100
2, 7877632, Note_off_c, 0, 67, 64
2, 7884800, Note_on_c, 0, 67, 100
2, 7885824, Note_off_c, 0, 65, 64
2, 7886848, Note_on_c, 0, 70, 100
2, 7887872, Note_off_c, 0, 62, 64
2, 7895040, Note_on_c, 0, 65, 100
2, 7896064, Note_on_c, 0, 63, 100
2, 7899136, Note_on_c, 0, 62, 100
2, 7902208, Note_off_c, 0, 63, 64
2, 7903232, Note_off_c, 0, 62, 64
2, 7904256, Note_off_c, 0, 65, 64
2, 7905280, Note_off_c, 0, 46, 64
2, 7906304, Note_off_c, 0, 58, 64
2, 7913472, Note_on_c, 0, 62, 100
2, 7914496, Note_off_c, 0, 60, 64
2, 7917568, Note_on_c, 0, 58, 100
2, 7920640, Note_on_c, 0, 60, 100
2, 7921664, Note_off_c, 0, 58, 64
2, 7922688, Note_on_c, 0, 46, 100
2, 7929856, Note_on_c, 0, 58, 100
2, 7930880, Note_off_c, 0, 53, 64
2, 7938048, Note_on_c, 0, 53, 100
2, 7939072, Note_off_c, 0, 55, 64
2, 7940096, Note_on_c, 0, 65, 100
2, 7941120, Note_off_c, 0, 58, 64
2, 7948288, Note_on_c, 0, 55, 100
2, 7949312, Note_off_c, 0, 57, 64
2, 7952384, Note_on_c, 0, 58, 100
2, 7955456, Note_on_c, 0, 57, 100
2, 7956480, Note_off_c, 0, 58, 64
2, 7957504, Note_off_c, 0, 62, 64
2, 7958528, Note_off_c, 0, 46, 64
2, 7965696, Note_on_c, 0, 58, 100
2, 7966720, Note_off_c, 0, 60, 64
2, 7969792, Note_on_c, 0, 62, 100
2, 7970816, Note_off_c, 0, 58, 64
2, 7973888, Note_on_c, 0, 60, 100
2, 7974912, Note_off_c, 0, 62, 64
2, 7975936, Note_off_c, 0, 65, 64
2, 7976960, Note_on_c, 0, 46, 100
2, 7984128, Note_on_c, 0, 62, 100
2, 7985152, Note_off_c, 0, 60, 64
2, 7988224, Note_on_c, 0, 65, 100
2, 7991296, Note_on_c, 0, 60, 100
2, 7992320, Note_on_c, 0, 58, 100
2, 7993344, Note_off_c, 0, 62, 64
2, 8000512, Note_off_c, 0, 58, 64
2, 8001536, Note_off_c, 0, 60, 64
2, 8004608, Note_on_c, 0, 62, 100
2, 8007680, Note_on_c, 0, 60, 100
2, 8008704, Note_off_c, 0, 62, 64
2, 8009728, Note_off_c, 0, 65, 64
2, 8010752, Note_off_c, 0, 46, 64
2, 8011776, Note_on_c, 0, 58, 100
2, 8018944, Note_on_c, 0, 62, 100
2, 8019968, Note_on_c, 0, 63, 100
2, 8023040, Note_on_c, 0, 65, 100
2, 8024064, Note_off_c, 0, 58, 64
2, 8027136, Note_off_c, 0, 63, 64
2, 8028160, Note_off_c, 0, 65, 64
2, 8029184, Note_off_c, 0, 70, 64
2, 8030208, Note_off_c, 0, 62, 64
2, 8031232, Note_on_c, 0, 58, 100
2, 8032256, Note_on_c, 0, 46, 100
2, 8033280, Note_on_c, 0, 34, 100
2, 8044544, Note_on_c, 0, 65, 100
2, 8045568, Note_on_c, 0, 70, 100
2, 8048640, Note_off_c, 0, 58, 64
2, 8049664, Note_off_c, 0, 65, 64
2, 8060928, Note_on_c, 0, 58, 100
2, 8061952, Note_on_c, 0, 65, 100
2, 8065024, Note_off_c, 0, 67, 64
2, 8066048, Note_on_c, 0, 62, 100
2, 8067072, Note_off_c, 0, 58, 64
2, 8068096, Note_off_c, 0, 46, 64
2, 8069120, Note_off_c, 0, 34, 64
2, 8084480, Note_on_c, 0, 63, 100
2, 8085504, Note_on_c, 0, 58, 100
2, 8086528, Note_on_c, 0, 46, 100
2, 8101888, Note_on_c, 0, 67, 100
2, 8102912, Note_off_c, 0, 65, 64
2, 8110080, Note_on_c, 0, 65, 100
2, 8111104, Note_off_c, 0, 63, 64
2, 8114176, Note_off_c, 0, 65, 64
2, 8117248, Note_off_c, 0, 70, 64
2, 8118272, Note_on_c, 0, 63, 100
2, 8119296, Note_off_c, 0, 62, 64
2, 8120320, Note_off_c, 0, 58, 64
2, 8121344, Note_off_c, 0, 46, 64
2, 8128512, Note_on_c, 0, 62, 100
2, 8129536, Note_off_c, 0, 60, 64
2, 8136704, Note_on_c, 0, 60, 100
2, 8137728, Note_off_c, 0, 62, 64
2, 8138752, Note_on_c, 0, 65, 100
2, 8139776, Note_on_c, 0, 58, 100
2, 8140800, Note_on_c, 0, 46, 100
2, 8141824, Note_on_c, 0, 34, 100
2, 8148992, Note_on_c, 0, 62, 100
2, 8150016, Note_off_c, 0, 63, 64
2, 8157184, Note_on_c, 0, 70, 100
2, 8158208, Note_off_c, 0, 65, 64
2, 8159232, Note_on_c, 0, 63, 100
2, 8166400, Note_on_c, 0, 65, 100
2, 8167424, Note_off_c, 0, 63, 64
2, 8170496, Note_off_c, 0, 65, 64
2, 8173568, Note_off_c, 0, 67, 64
2, 8174592, Note_on_c, 0, 63, 100
2, 8175616, Note_off_c, 0, 62, 64
2, 8176640, Note_on_c, 0, 65, 100
2, 8177664, Note_off_c, 0, 58, 64
2, 8178688, Note_off_c, 0, 46, 64
2, 8179712, Note_off_c, 0, 34, 64
2, 8186880, Note_on_c, 0, 62, 100
2, 8187904, Note_off_c, 0, 60, 64
2, 8195072, Note_on_c, 0, 60, 100
2, 8196096, Note_on_c, 0, 58, 100
2, 8197120, Note_on_c, 0, 46, 100
2, 8204288, Note_off_c, 0, 58, 64
2, 8205312, Note_off_c, 0, 60, 64
2, 8212480, Note_on_c, 0, 67, 100
2, 8213504, Note_off_c, 0, 65, 64
2, 8214528, Note_on_c, 0, 60, 100
2, 8215552, Note_off_c, 0, 62, 64
2, 8222720, Note_on_c, 0, 62, 100
2, 8223744, Note_off_c, 0, 60, 64
2, 8226816, Note_on_c, 0, 65, 100
2, 8229888, Note_off_c, 0, 70, 64
2, 8230912, Note_on_c, 0, 60, 100
2, 8231936, Note_on_c, 0, 58, 100
2, 8232960, Note_off_c, 0, 46, 64
2, 8240128, Note_off_c, 0, 58, 64
2, 8241152, Note_off_c, 0, 57, 64
2, 8244224, Note_on_c, 0, 46, 100
2, 8247296, Note_on_c, 0, 57, 100
2, 8248320, Note_off_c, 0, 55, 64
2, 8249344, Note_off_c, 0, 51, 64
2, 8256512, Note_on_c, 0, 55, 100
2, 8257536, Note_off_c, 0, 57, 64
2, 8264704, Note_on_c, 0, 70, 100
2, 8265728, Note_off_c, 0, 67, 64
2, 8266752, Note_on_c, 0, 57, 100
2, 8267776, Note_on_c, 0, 58, 100
2, 8274944, Note_off_c, 0, 58, 64
2, 8275968, Note_off_c, 0, 62, 64
2, 8279040, Note_on_c, 0, 67, 100
2, 8282112, Note_off_c, 0, 75, 64
2, 8283136, Note_on_c, 0, 62, 100
2, 8284160, Note_off_c, 0, 60, 64
2, 8285184, Note_on_c, 0, 51, 100
2, 8286208, Note_off_c, 0, 48, 64
2, 8293376, Note_on_c, 0, 60, 100
2, 8294400, Note_on_c, 0, 58, 100
2, 8297472, Note_on_c, 0, 48, 100
2, 8300544, Note_off_c, 0, 58, 64
2, 8301568, Note_off_c, 0, 57, 64
2, 8302592, Note_off_c, 0, 53, 64
2, 8309760, Note_on_c, 0, 57, 100
2, 8310784, Note_on_c, 0, 58, 100
2, 8317952, Note_on_c, 0, 75, 100
2, 8318976, Note_off_c, 0, 69, 64
2, 8320000, Note_off_c, 0, 58, 64
2, 8321024, Note_off_c, 0, 60, 64
2, 8328192, Note_on_c, 0, 60, 100
2, 8329216, Note_off_c, 0, 63, 64
2, 8332288, Note_on_c, 0, 69, 100
2, 8335360, Note_off_c, 0, 77, 64
2, 8336384, Note_on_c, 0, 63, 100
2, 8337408, Note_off_c, 0, 62, 64
2, 8338432, Note_on_c, 0, 53, 100
2, 8339456, Note_off_c, 0, 57, 64
2, 8346624, Note_on_c, 0, 62, 100
2, 8347648, Note_off_c, 0, 60, 64
2, 8350720, Note_on_c, 0, 57, 100
2, 8353792, Note_on_c, 0, 77, 100
2, 8354816, Note_on_c, 0, 74, 100
2, 8355840, Note_on_c, 0, 60, 100
2, 8356864, Note_on_c, 0, 58, 100
2, 8364032, Note_off_c, 0, 58, 64
2, 8365056, Note_off_c, 0, 57, 64
2, 8368128, Note_off_c, 0, 74, 64
2, 8369152, Note_on_c, 0, 58, 100
2, 8372224, Note_off_c, 0, 70, 64
2, 8373248, Note_on_c, 0, 57, 100
2, 8374272, Note_off_c, 0, 58, 64
2, 8375296, Note_off_c, 0, 50, 64
2, 8382464, Note_on_c, 0, 58, 100
2, 8383488, Note_off_c, 0, 62, 64
2, 8386560, Note_on_c, 0, 70, 100
2, 8387584, Note_on_c, 0, 50, 100
2, 8390656, Note_off_c, 0, 69, 64
2, 8391680, Note_on_c, 0, 62, 100
2, 8392704, Note_off_c, 0, 60, 64
2, 8393728, Note_off_c, 0, 53, 64
2, 8400896, Note_on_c, 0, 60, 100
2, 8401920, Note_off_c, 0, 63, 64
2, 8404992, Note_on_c, 0, 69, 100
2, 8406016, Note_on_c, 0, 53, 100
2, 8409088, Note_off_c, 0, 70, 64
2, 8410112, Note_on_c, 0, 63, 100
2, 8411136, Note_off_c, 0, 62, 64
2, 8412160, Note_off_c, 0, 46, 64
2, 8419328, Note_on_c, 0, 70, 100
2, 8420352, Note_off_c, 0, 65, 64
2, 8421376, Note_on_c, 0, 62, 100
2, 8428544, Note_on_c, 0, 65, 100
2, 8429568, Note_off_c, 0, 62, 64
2, 8436736, Note_on_c, 0, 62, 100
2, 8437760, Note_off_c, 0, 58, 64
2, 8444928, Note_on_c, 0, 58, 100
2, 8445952, Note_off_c, 0, 62, 64
2, 8446976, Note_on_c, 0, 46, 100
2, 8454144, Note_on_c, 0, 62, 100
2, 8455168, Note_off_c, 0, 65, 64
2, 8462336, Note_on_c, 0, 65, 100
2, 8463360, Note_off_c, 0, 70, 64
2, 8464384, Note_off_c, 0, 62, 64
2, 8465408, Note_off_c, 0, 58, 64
2, 8466432, Note_off_c, 0, 46, 64
2, 8481792, Note_on_c, 0, 70, 100
2, 8482816, Note_off_c, 0, 69, 64
2, 8494080, Note_on_c, 0, 69, 100
2, 8497152, Note_off_c, 0, 70, 64
2, 8498176, Note_off_c, 0, 65, 64
2, 8499200, Note_on_c, 0, 62, 100
2, 8500224, Note_on_c, 0, 58, 100
2, 8501248, Note_on_c, 0, 46, 100
2, 8512512, Note_on_c, 0, 70, 100
2, 8515584, Note_off_c, 0, 62, 64
2, 8516608, Note_on_c, 0, 65, 100
2, 8517632, Note_off_c, 0, 58, 64
2, 8518656, Note_off_c, 0, 57, 64
2, 8519680, Note_on_c, 0, 45, 100
2, 8535040, Note_on_c, 0, 62, 100
2, 8536064, Note_off_c, 0, 65, 64
2, 8547328, Note_on_c, 0, 65, 100
2, 8550400, Note_off_c, 0, 70, 64
2, 8551424, Note_off_c, 0, 65, 64
2, 8552448, Note_on_c, 0, 58, 100
2, 8553472, Note_on_c, 0, 57, 100
2, 8554496, Note_off_c, 0, 45, 64
2, 8565760, Note_on_c, 0, 70, 100
2, 8568832, Note_off_c, 0, 70, 64
2, 8569856, Note_off_c, 0, 67, 64
2, 8570880, Note_off_c, 0, 62, 64
2, 8571904, Note_off_c, 0, 55, 64
2, 8572928, Note_on_c, 0, 43, 100
2, 8588288, Note_on_c, 0, 70, 100
2, 8589312, Note_off_c, 0, 69, 64
2, 8600576, Note_on_c, 0, 69, 100
2, 8603648, Note_off_c, 0, 70, 64
2, 8604672, Note_on_c, 0, 67, 100
2, 8605696, Note_on_c, 0, 62, 100
2, 8606720, Note_on_c, 0, 55, 100
2, 8607744, Note_off_c, 0, 43, 64
2, 8619008, Note_on_c, 0, 70, 100
2, 8622080, Note_off_c, 0, 62, 64
2, 8623104, Note_off_c, 0, 70, 64
2, 8624128, Note_on_c, 0, 65, 100
2, 8625152, Note_off_c, 0, 53, 64
2, 8626176, Note_off_c, 0, 41, 64
2, 8641536, Note_on_c, 0, 62, 100
2, 8642560, Note_off_c, 0, 65, 64
2, 8653824, Note_on_c, 0, 65, 100
2, 8656896, Note_on_c, 0, 70, 100
2, 8657920, Note_off_c, 0, 65, 64
2, 8658944, Note_on_c, 0, 53, 100
2, 8659968, Note_on_c, 0, 41, 100
2, 8671232, Note_off_c, 0, 70, 64
2, 8674304, Note_on_c, 0, 72, 100
2, 8675328, Note_on_c, 0, 70, 100
2, 8676352, Note_off_c, 0, 67, 64
2, 8677376, Note_off_c, 0, 51, 64
2, 8678400, Note_on_c, 0, 39, 100
2, 8693760, Note_off_c, 0, 72, 64
2, 8694784, Note_off_c, 0, 70, 64
2, 8706048, Note_on_c, 0, 70, 100
2, 8709120, Note_on_c, 0, 72, 100
2, 8710144, Note_off_c, 0, 70, 64
2, 8711168, Note_on_c, 0, 67, 100
2, 8712192, Note_on_c, 0, 51, 100
2, 8713216, Note_off_c, 0, 39, 64
2, 8724480, Note_off_c, 0, 72, 64
2, 8727552, Note_on_c, 0, 65, 100
2, 8728576, Note_off_c, 0, 69, 64
2, 8729600, Note_off_c, 0, 53, 64
2, 8730624, Note_off_c, 0, 41, 64
2, 8745984, Note_off_c, 0, 65, 64
2, 8747008, Note_on_c, 0, 69, 100
2, 8758272, Note_off_c, 0, 69, 64
2, 8761344, Note_on_c, 0, 72, 100
2, 8762368, Note_on_c, 0, 69, 100
2, 8763392, Note_on_c, 0, 65, 100
2, 8764416, Note_on_c, 0, 53, 100
2, 8765440, Note_on_c, 0, 41, 100
2, 8776704, Note_off_c, 0, 72, 64
2, 8779776, Note_on_c, 0, 74, 100
2, 8780800, Note_on_c, 0, 70, 100
2, 8781824, Note_off_c, 0, 65, 64
2, 8782848, Note_off_c, 0, 46, 64
2, 8783872, Note_on_c, 0, 34, 100
2, 8799232, Note_off_c, 0, 74, 64
2, 8800256, Note_on_c, 0, 72, 100
2, 8801280, Note_off_c, 0, 70, 64
2, 8802304, Note_off_c, 0, 69, 64
2, 8803328, Note_on_c, 0, 65, 100
2, 8804352, Note_off_c, 0, 63, 64
2, 8815616, Note_off_c, 0, 72, 64
2, 8816640, Note_on_c, 0, 69, 100
2, 8817664, Note_on_c, 0, 63, 100
2, 8820736, Note_on_c, 0, 74, 100
2, 8821760, Note_on_c, 0, 70, 100
2, 8822784, Note_off_c, 0, 65, 64
2, 8823808, Note_on_c, 0, 46, 100
2, 8824832, Note_off_c, 0, 53, 64
2, 8825856, Note_off_c, 0, 34, 64
2, 8826880, Note_off_c, 0, 41, 64
2, 8838144, Note_off_c, 0, 74, 64
2, 8839168, Note_off_c, 0, 70, 64
2, 8840192, Note_on_c, 0, 65, 100
2, 8841216, Note_on_c, 0, 53, 100
2, 8842240, Note_on_c, 0, 41, 100
2, 8845312, Note_on_c, 0, 70, 100
2, 8846336, Note_off_c, 0, 65, 64
2, 8847360, Note_off_c, 0, 62, 64
2, 8848384, Note_off_c, 0, 58, 64
2, 8849408, Note_off_c, 0, 46, 64
2, 8864768, Note_on_c, 0, 62, 100
2, 8865792, Note_off_c, 0, 60, 64
2, 8866816, Note_on_c, 0, 58, 100
2, 8867840, Note_off_c, 0, 57, 64
2, 8868864, Note_on_c, 0, 46, 100
2, 8869888, Note_on_c, 0, 45, 100
2, 8881152, Note_on_c, 0, 60, 100
2, 8882176, Note_on_c, 0, 57, 100
2, 8883200, Note_off_c, 0, 45, 64
2, 8886272, Note_off_c, 0, 70, 64
2, 8887296, Note_on_c, 0, 74, 100
2, 8888320, Note_on_c, 0, 65, 100
2, 8889344, Note_off_c, 0, 62, 64
2, 8890368, Note_off_c, 0, 58, 64
2, 8891392, Note_off_c, 0, 46, 64
2, 8902656, Note_off_c, 0, 65, 64
2, 8903680, Note_on_c, 0, 62, 100
2, 8904704, Note_on_c, 0, 58, 100
2, 8905728, Note_on_c, 0, 46, 100
2, 8908800, Note_off_c, 0, 67, 64
2, 8909824, Note_off_c, 0, 55, 64
2, 8910848, Note_off_c, 0, 52, 64
2, 8911872, Note_on_c, 0, 40, 100
2, 8927232, Note_off_c, 0, 74, 64
2, 8928256, Note_on_c, 0, 67, 100
2, 8939520, Note_off_c, 0, 67, 64
2, 8942592, Note_on_c, 0, 70, 100
2, 8943616, Note_on_c, 0, 67, 100
2, 8944640, Note_on_c, 0, 55, 100
2, 8945664, Note_on_c, 0, 52, 100
2, 8946688, Note_off_c, 0, 40, 64
2, 8962048, Note_off_c, 0, 67, 64
2, 8963072, Note_on_c, 0, 64, 100
2, 8964096, Note_off_c, 0, 48, 64
2, 8965120, Note_on_c, 0, 36, 100
2, 8980480, Note_off_c, 0, 70, 64
2, 8981504, Note_off_c, 0, 64, 64
2, 8992768, Note_on_c, 0, 64, 100
2, 8995840, Note_on_c, 0, 72, 100
2, 8996864, Note_on_c, 0, 67, 100
2, 8997888, Note_off_c, 0, 64, 64
2, 8998912, Note_on_c, 0, 48, 100
2, 8999936, Note_off_c, 0, 36, 64
2, 9015296, Note_on_c, 0, 65, 100
2, 9016320, Note_off_c, 0, 57, 64
2, 9017344, Note_off_c, 0, 50, 64
2, 9018368, Note_on_c, 0, 38, 100
2, 9033728, Note_off_c, 0, 72, 64
2, 9034752, Note_off_c, 0, 65, 64
2, 9046016, Note_on_c, 0, 65, 100
2, 9049088, Note_off_c, 0, 69, 64
2, 9050112, Note_off_c, 0, 65, 64
2, 9051136, Note_on_c, 0, 57, 100
2, 9052160, Note_on_c, 0, 50, 100
2, 9053184, Note_off_c, 0, 38, 64
2, 9068544, Note_on_c, 0, 65, 100
2, 9069568, Note_off_c, 0, 62, 64
2, 9070592, Note_off_c, 0, 46, 64
2, 9071616, Note_on_c, 0, 34, 100
2, 9086976, Note_on_c, 0, 69, 100
2, 9088000, Note_on_c, 0, 62, 100
2, 9099264, Note_off_c, 0, 62, 64
2, 9102336, Note_on_c, 0, 70, 100
2, 9103360, Note_off_c, 0, 65, 64
2, 9104384, Note_on_c, 0, 62, 100
2, 9105408, Note_on_c, 0, 46, 100
2, 9106432, Note_off_c, 0, 34, 64
2, 9121792, Note_on_c, 0, 64, 100
2, 9122816, Note_off_c, 0, 55, 64
2, 9123840, Note_off_c, 0, 48, 64
2, 9124864, Note_on_c, 0, 36, 100
2, 9140224, Note_off_c, 0, 70, 64
2, 9141248, Note_off_c, 0, 64, 64
2, 9152512, Note_on_c, 0, 64, 100
2, 9155584, Note_off_c, 0, 67, 64
2, 9156608, Note_off_c, 0, 64, 64
2, 9157632, Note_off_c, 0, 60, 64
2, 9158656, Note_on_c, 0, 55, 100
2, 9159680, Note_off_c, 0, 52, 64
2, 9160704, Note_on_c, 0, 48, 100
2, 9161728, Note_off_c, 0, 46, 64
2, 9162752, Note_off_c, 0, 36, 64
2, 9163776, Note_on_c, 0, 34, 100
2, 9175040, Note_on_c, 0, 60, 100
2, 9176064, Note_on_c, 0, 52, 100
2, 9177088, Note_on_c, 0, 46, 100
2, 9178112, Note_off_c, 0, 34, 64
2, 9181184, Note_off_c, 0, 60, 64
2, 9182208, Note_off_c, 0, 57, 64
2, 9183232, Note_on_c, 0, 45, 100
2, 9184256, Note_on_c, 0, 33, 100
2, 9199616, Note_on_c, 0, 67, 100
2, 9200640, Note_on_c, 0, 60, 100
2, 9211904, Note_off_c, 0, 60, 64
2, 9214976, Note_on_c, 0, 70, 100
2, 9216000, Note_on_c, 0, 60, 100
2, 9217024, Note_on_c, 0, 64, 100
2, 9218048, Note_on_c, 0, 57, 100
2, 9219072, Note_off_c, 0, 58, 64
2, 9220096, Note_off_c, 0, 45, 64
2, 9221120, Note_on_c, 0, 43, 100
2, 9222144, Note_off_c, 0, 33, 64
2, 9223168, Note_on_c, 0, 31, 100
2, 9234432, Note_off_c, 0, 70, 64
2, 9235456, Note_off_c, 0, 64, 64
2, 9236480, Note_on_c, 0, 58, 100
2, 9237504, Note_off_c, 0, 43, 64
2, 9238528, Note_off_c, 0, 31, 64
2, 9241600, Note_off_c, 0, 69, 64
2, 9242624, Note_on_c, 0, 65, 100
2, 9243648, Note_off_c, 0, 60, 64
2, 9244672, Note_off_c, 0, 41, 64
2, 9245696, Note_on_c, 0, 29, 100
2, 9261056, Note_on_c, 0, 69, 100
2, 9262080, Note_off_c, 0, 67, 64
2, 9263104, Note_off_c, 0, 65, 64
2, 9264128, Note_on_c, 0, 64, 100
2, 9265152, Note_on_c, 0, 60, 100
2, 9266176, Note_off_c, 0, 58, 64
2, 9277440, Note_on_c, 0, 67, 100
2, 9278464, Note_off_c, 0, 64, 64
2, 9279488, Note_on_c, 0, 58, 100
2, 9282560, Note_off_c, 0, 69, 64
2, 9283584, Note_on_c, 0, 65, 100
2, 9284608, Note_off_c, 0, 60, 64
2, 9285632, Note_on_c, 0, 41, 100
2, 9286656, Note_off_c, 0, 48, 64
2, 9287680, Note_on_c, 0, 36, 100
2, 9288704, Note_off_c, 0, 29, 64
2, 9299968, Note_on_c, 0, 69, 100
2, 9300992, Note_off_c, 0, 65, 64
2, 9302016, Note_on_c, 0, 60, 100
2, 9303040, Note_on_c, 0, 48, 100
2, 9304064, Note_off_c, 0, 36, 64
2, 9307136, Note_on_c, 0, 65, 100
2, 9308160, Note_off_c, 0, 60, 64
2, 9309184, Note_off_c, 0, 57, 64
2, 9310208, Note_off_c, 0, 53, 64
2, 9311232, Note_off_c, 0, 41, 64
2, 9326592, Note_off_c, 0, 65, 64
2, 9327616, Note_off_c, 0, 69, 64
2, 9328640, Note_on_c, 0, 57, 100
2, 9329664, Note_off_c, 0, 55, 64
2, 9330688, Note_on_c, 0, 53, 100
2, 9331712, Note_off_c, 0, 51, 64
2, 9332736, Note_on_c, 0, 41, 100
2, 9333760, Note_on_c, 0, 39, 100
2, 9345024, Note_on_c, 0, 69, 100
2, 9346048, Note_on_c, 0, 55, 100
2, 9347072, Note_on_c, 0, 51, 100
2, 9348096, Note_off_c, 0, 39, 64
2, 9351168, Note_on_c, 0, 72, 100
2, 9352192, Note_on_c, 0, 60, 100
2, 9353216, Note_on_c, 0, 65, 100
2, 9354240, Note_off_c, 0, 57, 64
2, 9355264, Note_off_c, 0, 53, 64
2, 9356288, Note_off_c, 0, 41, 64
2, 9367552, Note_off_c, 0, 72, 64
2, 9368576, Note_off_c, 0, 65, 64
2, 9369600, Note_on_c, 0, 57, 100
2, 9370624, Note_on_c, 0, 53, 100
2, 9371648, Note_on_c, 0, 41, 100
2, 9374720, Note_off_c, 0, 77, 64
2, 9375744, Note_on_c, 0, 65, 100
2, 9376768, Note_off_c, 0, 58, 64
2, 9377792, Note_off_c, 0, 50, 64
2, 9378816, Note_on_c, 0, 38, 100
2, 9390080, Note_on_c, 0, 77, 100
2, 9393152, Note_on_c, 0, 70, 100
2, 9404416, Note_off_c, 0, 70, 64
2, 9407488, Note_on_c, 0, 74, 100
2, 9408512, Note_off_c, 0, 65, 64
2, 9409536, Note_on_c, 0, 58, 100
2, 9410560, Note_on_c, 0, 50, 100
2, 9411584, Note_off_c, 0, 38, 64
2, 9426944, Note_on_c, 0, 65, 100
2, 9427968, Note_off_c, 0, 58, 64
2, 9428992, Note_off_c, 0, 55, 64
2, 9430016, Note_on_c, 0, 43, 100
2, 9445376, Note_off_c, 0, 74, 64
2, 9446400, Note_off_c, 0, 67, 64
2, 9457664, Note_on_c, 0, 67, 100
2, 9460736, Note_off_c, 0, 75, 64
2, 9461760, Note_off_c, 0, 65, 64
2, 9462784, Note_on_c, 0, 58, 100
2, 9463808, Note_on_c, 0, 55, 100
2, 9464832, Note_off_c, 0, 43, 64
2, 9480192, Note_off_c, 0, 63, 64
2, 9481216, Note_off_c, 0, 58, 64
2, 9482240, Note_off_c, 0, 48, 64
2, 9483264, Note_on_c, 0, 36, 100
2, 9498624, Note_on_c, 0, 75, 100
2, 9499648, Note_off_c, 0, 69, 64
2, 9510912, Note_on_c, 0, 69, 100
2, 9513984, Note_on_c, 0, 72, 100
2, 9515008, Note_on_c, 0, 63, 100
2, 9516032, Note_on_c, 0, 58, 100
2, 9517056, Note_on_c, 0, 48, 100
2, 9518080, Note_off_c, 0, 36, 64
2, 9533440, Note_on_c, 0, 65, 100
2, 9534464, Note_off_c, 0, 57, 64
2, 9535488, Note_off_c, 0, 53, 64
2, 9536512, Note_off_c, 0, 41, 64
2, 9551872, Note_off_c, 0, 72, 64
2, 9552896, Note_off_c, 0, 65, 64
2, 9564160, Note_on_c, 0, 65, 100
2, 9567232, Note_on_c, 0, 74, 100
2, 9568256, Note_off_c, 0, 65, 64
2, 9569280, Note_on_c, 0, 57, 100
2, 9570304, Note_on_c, 0, 53, 100
2, 9571328, Note_on_c, 0, 41, 100
2, 9586688, Note_on_c, 0, 65, 100
2, 9587712, Note_off_c, 0, 58, 64
2, 9588736, Note_off_c, 0, 46, 64
2, 9589760, Note_on_c, 0, 34, 100
2, 9605120, Note_off_c, 0, 74, 64
2, 9606144, Note_off_c, 0, 65, 64
2, 9607168, Note_off_c, 0, 62, 64
2, 9618432, Note_on_c, 0, 65, 100
2, 9619456, Note_on_c, 0, 62, 100
2, 9622528, Note_on_c, 0, 70, 100
2, 9623552, Note_off_c, 0, 65, 64
2, 9624576, Note_on_c, 0, 58, 100
2, 9625600, Note_off_c, 0, 62, 64
2, 9626624, Note_on_c, 0, 46, 100
2, 9627648, Note_off_c, 0, 34, 64
2, 9638912, Note_on_c, 0, 65, 100
2, 9639936, Note_on_c, 0, 62, 100
2, 9640960, Note_off_c, 0, 58, 64
2, 9641984, Note_off_c, 0, 46, 64
2, 9645056, Note_off_c, 0, 62, 64
2, 9646080, Note_off_c, 0, 53, 64
2, 9647104, Note_on_c, 0, 46, 100
2, 9648128, Note_on_c, 0, 34, 100
2, 9663488, Note_off_c, 0, 70, 64
2, 9664512, Note_on_c, 0, 62, 100
2, 9665536, Note_on_c, 0, 58, 100
2, 9676800, Note_off_c, 0, 62, 64
2, 9677824, Note_off_c, 0, 58, 64
2, 9680896, Note_off_c, 0, 65, 64
2, 9681920, Note_on_c, 0, 62, 100
2, 9682944, Note_on_c, 0, 53, 100
2, 9683968, Note_on_c, 0, 58, 100
2, 9684992, Note_off_c, 0, 46, 64
2, 9686016, Note_off_c, 0, 34, 64
2, 9697280, Note_off_c, 0, 62, 64
2, 9698304, Note_off_c, 0, 58, 64
2, 9699328, Note_on_c, 0, 46, 100
2, 9702400, Note_on_c, 0, 58, 100
2, 9703424, Note_off_c, 0, 50, 64
2, 9704448, Note_off_c, 0, 46, 64
2, 9705472, Note_on_c, 0, 34, 100
2, 9720832, Note_on_c, 0, 65, 100
2, 9721856, Note_off_c, 0, 58, 64
2, 9722880, Note_on_c, 0, 62, 100
2, 9723904, Note_on_c, 0, 50, 100
2, 9724928, Note_off_c, 0, 53, 64
2, 9736192, Note_on_c, 0, 58, 100
2, 9737216, Note_off_c, 0, 62, 64
2, 9738240, Note_on_c, 0, 53, 100
2, 9741312, Note_on_c, 0, 62, 100
2, 9742336, Note_off_c, 0, 65, 64
2, 9743360, Note_off_c, 0, 58, 64
2, 9744384, Note_on_c, 0, 46, 100
2, 9745408, Note_off_c, 0, 34, 64
2, 9756672, Note_off_c, 0, 62, 64
2, 9757696, Note_on_c, 0, 65, 100
2, 9758720, Note_on_c, 0, 58, 100
2, 9759744, Note_off_c, 0, 46, 64
2, 9762816, Note_off_c, 0, 65, 64
2, 9763840, Note_on_c, 0, 70, 100
2, 9764864, Note_on_c, 0, 62, 100
2, 9765888, Note_on_c, 0, 46, 100
2, 9766912, Note_on_c, 0, 34, 100
2, 9778176, Note_on_c, 0, 65, 100
2, 9779200, Note_off_c, 0, 70, 64
2, 9780224, Note_off_c, 0, 62, 64
2, 9783296, Note_on_c, 0, 62, 100
2, 9784320, Note_off_c, 0, 65, 64
2, 9785344, Note_off_c, 0, 58, 64
2, 9796608, Note_off_c, 0, 62, 64
2, 9797632, Note_on_c, 0, 65, 100
2, 9798656, Note_on_c, 0, 58, 100
2, 9801728, Note_off_c, 0, 65, 64
2, 9802752, Note_on_c, 0, 70, 100
2, 9803776, Note_on_c, 0, 62, 100
2, 9804800, Note_off_c, 0, 46, 64
2, 9805824, Note_off_c, 0, 58, 64
2, 9806848, Note_off_c, 0, 34, 64
2, 9818112, Note_on_c, 0, 65, 100
2, 9819136, Note_off_c, 0, 70, 64
2, 9820160, Note_off_c, 0, 62, 64
2, 9821184, Note_on_c, 0, 58, 100
2, 9822208, Note_on_c, 0, 46, 100
2, 9825280, Note_on_c, 0, 70, 100
2, 9826304, Note_on_c, 0, 62, 100
2, 9827328, Note_off_c, 0, 65, 64
2, 9828352, Note_off_c, 0, 46, 64
2, 9829376, Note_on_c, 0, 34, 100
2, 9840640, Note_off_c, 0, 70, 64
2, 9843712, Note_on_c, 0, 65, 100
2, 9854976, Note_off_c, 0, 65, 64
2, 9858048, Note_off_c, 0, 67, 64
2, 9859072, Note_off_c, 0, 62, 64
2, 9860096, Note_on_c, 0, 65, 100
2, 9861120, Note_on_c, 0, 46, 100
2, 9862144, Note_off_c, 0, 34, 64
2, 9877504, Note_off_c, 0, 63, 64
2, 9878528, Note_off_c, 0, 58, 64
2, 9879552, Note_off_c, 0, 46, 64
2, 9894912, Note_on_c, 0, 67, 100
2, 9895936, Note_off_c, 0, 65, 64
2, 9907200, Note_on_c, 0, 65, 100
2, 9910272, Note_on_c, 0, 70, 100
2, 9911296, Note_on_c, 0, 63, 100
2, 9912320, Note_on_c, 0, 58, 100
2, 9913344, Note_on_c, 0, 46, 100
2, 9928704, Note_on_c, 0, 62, 100
2, 9929728, Note_off_c, 0, 53, 64
2, 9930752, Note_off_c, 0, 46, 64
2, 9931776, Note_on_c, 0, 34, 100
2, 9947136, Note_off_c, 0, 70, 64
2, 9948160, Note_off_c, 0, 65, 64
2, 9959424, Note_on_c, 0, 65, 100
2, 9962496, Note_off_c, 0, 67, 64
2, 9963520, Note_off_c, 0, 62, 64
2, 9964544, Note_on_c, 0, 53, 100
2, 9965568, Note_on_c, 0, 46, 100
2, 9966592, Note_off_c, 0, 34, 64
2, 9981952, Note_off_c, 0, 63, 64
2, 9982976, Note_off_c, 0, 58, 64
2, 9984000, Note_off_c, 0, 46, 64
2, 9999360, Note_on_c, 0, 67, 100
2, 10000384, Note_off_c, 0, 65, 64
2, 10011648, Note_on_c, 0, 65, 100
2, 10014720, Note_on_c, 0, 70, 100
2, 10015744, Note_on_c, 0, 63, 100
2, 10016768, Note_on_c, 0, 62, 100
2, 10017792, Note_on_c, 0, 58, 100
2, 10018816, Note_off_c, 0, 53, 64
2, 10019840, Note_on_c, 0, 46, 100
2, 10020864, Note_on_c, 0, 34, 100
2, 10032128, Note_off_c, 0, 62, 64
2, 10033152, Note_on_c, 0, 53, 100
2, 10034176, Note_off_c, 0, 46, 64
2, 10035200, Note_off_c, 0, 34, 64
2, 10038272, Note_off_c, 0, 63, 64
2, 10039296, Note_off_c, 0, 55, 64
2, 10040320, Note_off_c, 0, 51, 64
2, 10041344, Note_on_c, 0, 39, 100
2, 10056704, Note_off_c, 0, 70, 64
2, 10057728, Note_off_c, 0, 67, 64
2, 10068992, Note_on_c, 0, 67, 100
2, 10072064, Note_off_c, 0, 75, 64
2, 10073088, Note_on_c, 0, 63, 100
2, 10074112, Note_off_c, 0, 67, 64
2, 10075136, Note_on_c, 0, 55, 100
2, 10076160, Note_off_c, 0, 60, 64
2, 10077184, Note_on_c, 0, 51, 100
2, 10078208, Note_off_c, 0, 48, 64
2, 10079232, Note_off_c, 0, 39, 64
2, 10080256, Note_on_c, 0, 36, 100
2, 10091520, Note_on_c, 0, 67, 100
2, 10092544, Note_on_c, 0, 60, 100
2, 10093568, Note_on_c, 0, 48, 100
2, 10094592, Note_off_c, 0, 36, 64
2, 10097664, Note_off_c, 0, 65, 64
2, 10098688, Note_off_c, 0, 57, 64
2, 10099712, Note_off_c, 0, 53, 64
2, 10100736, Note_off_c, 0, 41, 64
2, 10116096, Note_on_c, 0, 75, 100
2, 10117120, Note_off_c, 0, 69, 64
2, 10128384, Note_on_c, 0, 69, 100
2, 10131456, Note_off_c, 0, 77, 64
2, 10132480, Note_on_c, 0, 65, 100
2, 10133504, Note_on_c, 0, 72, 100
2, 10134528, Note_on_c, 0, 57, 100
2, 10135552, Note_on_c, 0, 53, 100
2, 10136576, Note_on_c, 0, 45, 100
2, 10137600, Note_on_c, 0, 41, 100
2, 10138624, Note_on_c, 0, 33, 100
2, 10149888, Note_off_c, 0, 72, 64
2, 10150912, Note_off_c, 0, 53, 64
2, 10151936, Note_off_c, 0, 45, 64
2, 10152960, Note_off_c, 0, 33, 64
2, 10156032, Note_on_c, 0, 77, 100
2, 10157056, Note_on_c, 0, 74, 100
2, 10158080, Note_on_c, 0, 70, 100
2, 10159104, Note_off_c, 0, 65, 64
2, 10160128, Note_on_c, 0, 46, 100
2, 10161152, Note_on_c, 0, 34, 100
2, 10172416, Note_off_c, 0, 74, 64
2, 10173440, Note_off_c, 0, 70, 64
2, 10174464, Note_on_c, 0, 65, 100
2, 10175488, Note_off_c, 0, 46, 64
2, 10176512, Note_off_c, 0, 34, 64
2, 10179584, Note_on_c, 0, 70, 100
2, 10180608, Note_off_c, 0, 65, 64
2, 10181632, Note_on_c, 0, 62, 100
2, 10182656, Note_off_c, 0, 50, 64
2, 10183680, Note_on_c, 0, 26, 100
2, 10184704, Note_on_c, 0, 38, 100
2, 10195968, Note_off_c, 0, 70, 64
2, 10196992, Note_on_c, 0, 65, 100
2, 10198016, Note_off_c, 0, 62, 64
2, 10199040, Note_on_c, 0, 50, 100
2, 10200064, Note_off_c, 0, 26, 64
2, 10201088, Note_off_c, 0, 38, 64
2, 10204160, Note_off_c, 0, 69, 64
2, 10205184, Note_off_c, 0, 65, 64
2, 10206208, Note_off_c, 0, 60, 64
2, 10207232, Note_on_c, 0, 53, 100
2, 10208256, Note_off_c, 0, 41, 64
2, 10209280, Note_on_c, 0, 29, 100
2, 10212352, Note_on_c, 0, 69, 100
2, 10213376, Note_off_c, 0, 67, 64
2, 10216448, Note_on_c, 0, 67, 100
2, 10217472, Note_off_c, 0, 69, 64
2, 10220544, Note_on_c, 0, 65, 100
2, 10221568, Note_on_c, 0, 60, 100
2, 10222592, Note_off_c, 0, 53, 64
2, 10223616, Note_on_c, 0, 41, 100
2, 10224640, Note_off_c, 0, 29, 64
2, 10227712, Note_on_c, 0, 69, 100
2, 10228736, Note_on_c, 0, 70, 100
2, 10229760, Note_off_c, 0, 65, 64
2, 10230784, Note_on_c, 0, 62, 100
2, 10231808, Note_on_c, 0, 46, 100
2, 10232832, Note_on_c, 0, 22, 100
2, 10233856, Note_on_c, 0, 34, 100
2, 10257408, Note_off_c, 0, 70, 64
2, 10258432, Note_on_c, 0, 74, 100
2, 10265600, Note_off_c, 0, 74, 64
2, 10266624, Note_on_c, 0, 72, 100
2, 10267648, Note_on_c, 0, 70, 100
2, 10268672, Note_on_c, 0, 65, 100
2, 10269696, Note_off_c, 0, 62, 64
2, 10270720, Note_off_c, 0, 46, 64
2, 10271744, Note_off_c, 0, 22, 64
2, 10272768, Note_off_c, 0, 34, 64
2, 10279936, Note_off_c, 0, 72, 64
2, 10280960, Note_on_c, 0, 74, 100
2, 10288128, Note_off_c, 0, 74, 64
2, 10289152, Note_off_c, 0, 70, 64
2, 10290176, Note_off_c, 0, 50, 64
2, 10291200, Note_on_c, 0, 26, 100
2, 10292224, Note_on_c, 0, 38, 100
2, 10299392, Note_on_c, 0, 70, 100
2, 10300416, Note_on_c, 0, 74, 100
2, 10307584, Note_off_c, 0, 74, 64
2, 10308608, Note_off_c, 0, 69, 64
2, 10315776, Note_on_c, 0, 69, 100
2, 10316800, Note_on_c, 0, 74, 100
2, 10323968, Note_off_c, 0, 74, 64
2, 10324992, Note_off_c, 0, 67, 64
2, 10326016, Note_on_c, 0, 50, 100
2, 10327040, Note_on_c, 0, 62, 100
2, 10328064, Note_off_c, 0, 26, 64
2, 10329088, Note_off_c, 0, 38, 64
2, 10336256, Note_on_c, 0, 67, 100
2, 10337280, Note_on_c, 0, 74, 100
2, 10340352, Note_off_c, 0, 62, 64
2, 10341376, Note_on_c, 0, 38, 100
2, 10342400, Note_off_c, 0, 50, 64
2, 10345472, Note_off_c, 0, 74, 64
2, 10346496, Note_on_c, 0, 66, 100
2, 10347520, Note_on_c, 0, 50, 100
2, 10348544, Note_on_c, 0, 26, 100
2, 10349568, Note_off_c, 0, 38, 64
2, 10356736, Note_off_c, 0, 66, 64
2, 10357760, Note_on_c, 0, 74, 100
2, 10364928, Note_off_c, 0, 74, 64
2, 10365952, Note_on_c, 0, 64, 100
2, 10373120, Note_off_c, 0, 64, 64
2, 10374144, Note_on_c, 0, 74, 100
2, 10375168, Note_on_c, 0, 62, 100
2, 10382336, Note_off_c, 0, 74, 64
2, 10383360, Note_on_c, 0, 66, 100
2, 10384384, Note_off_c, 0, 62, 64
2, 10385408, Note_on_c, 0, 72, 100
2, 10386432, Note_off_c, 0, 50, 64
2, 10387456, Note_off_c, 0, 26, 64
2, 10388480, Note_on_c, 0, 38, 100
2, 10395648, Note_off_c, 0, 66, 64
2, 10396672, Note_on_c, 0, 74, 100
2, 10397696, Note_off_c, 0, 72, 64
2, 10398720, Note_on_c, 0, 62, 100
2, 10401792, Note_off_c, 0, 62, 64
2, 10402816, Note_off_c, 0, 38, 64
2, 10403840, Note_on_c, 0, 50, 100
2, 10406912, Note_off_c, 0, 74, 64
2, 10407936, Note_off_c, 0, 67, 64
2, 10408960, Note_on_c, 0, 62, 100
2, 10409984, Note_off_c, 0, 70, 64
2, 10411008, Note_off_c, 0, 50, 64
2, 10412032, Note_on_c, 0, 26, 100
2, 10413056, Note_on_c, 0, 38, 100
2, 10420224, Note_on_c, 0, 67, 100
2, 10421248, Note_on_c, 0, 74, 100
2, 10422272, Note_on_c, 0, 70, 100
2, 10423296, Note_off_c, 0, 62, 64
2, 10430464, Note_off_c, 0, 74, 64
2, 10431488, Note_on_c, 0, 66, 100
2, 10432512, Note_on_c, 0, 62, 100
2, 10433536, Note_off_c, 0, 69, 64
2, 10440704, Note_off_c, 0, 66, 64
2, 10441728, Note_on_c, 0, 74, 100
2, 10442752, Note_on_c, 0, 69, 100
2, 10443776, Note_off_c, 0, 62, 64
2, 10450944, Note_off_c, 0, 74, 64
2, 10451968, Note_off_c, 0, 67, 64
2, 10452992, Note_on_c, 0, 62, 100
2, 10454016, Note_on_c, 0, 50, 100
2, 10455040, Note_off_c, 0, 26, 64
2, 10456064, Note_off_c, 0, 38, 64
2, 10463232, Note_on_c, 0, 67, 100
2, 10464256, Note_on_c, 0, 74, 100
2, 10465280, Note_off_c, 0, 62, 64
2, 10468352, Note_on_c, 0, 62, 100
2, 10469376, Note_on_c, 0, 38, 100
2, 10470400, Note_off_c, 0, 50, 64
2, 10473472, Note_off_c, 0, 74, 64
2, 10474496, Note_off_c, 0, 69, 64
2, 10475520, Note_off_c, 0, 62, 64
2, 10476544, Note_on_c, 0, 66, 100
2, 10477568, Note_on_c, 0, 50, 100
2, 10478592, Note_on_c, 0, 26, 100
2, 10479616, Note_off_c, 0, 38, 64
2, 10486784, Note_on_c, 0, 69, 100
2, 10487808, Note_on_c, 0, 74, 100
2, 10488832, Note_off_c, 0, 66, 64
2, 10489856, Note_on_c, 0, 62, 100
2, 10497024, Note_off_c, 0, 74, 64
2, 10498048, Note_off_c, 0, 67, 64
2, 10499072, Note_off_c, 0, 62, 64
2, 10500096, Note_on_c, 0, 64, 100
2, 10507264, Note_on_c, 0, 67, 100
2, 10508288, Note_on_c, 0, 74, 100
2, 10509312, Note_off_c, 0, 64, 64
2, 10510336, Note_on_c, 0, 62, 100
2, 10517504, Note_off_c, 0, 74, 64
2, 10518528, Note_off_c, 0, 69, 64
2, 10519552, Note_off_c, 0, 62, 64
2, 10520576, Note_on_c, 0, 66, 100
2, 10521600, Note_off_c, 0, 50, 64
2, 10522624, Note_off_c, 0, 26, 64
2, 10523648, Note_on_c, 0, 38, 100
2, 10530816, Note_on_c, 0, 69, 100
2, 10531840, Note_on_c, 0, 74, 100
2, 10532864, Note_off_c, 0, 66, 64
2, 10533888, Note_on_c, 0, 62, 100
2, 10536960, Note_off_c, 0, 62, 64
2, 10537984, Note_off_c, 0, 38, 64
2, 10539008, Note_on_c, 0, 50, 100
2, 10542080, Note_off_c, 0, 74, 64
2, 10543104, Note_off_c, 0, 70, 64
2, 10544128, Note_on_c, 0, 62, 100
2, 10545152, Note_off_c, 0, 67, 64
2, 10546176, Note_off_c, 0, 50, 64
2, 10547200, Note_on_c, 0, 26, 100
2, 10548224, Note_on_c, 0, 38, 100
2, 10555392, Note_on_c, 0, 70, 100
2, 10556416, Note_on_c, 0, 74, 100
2, 10557440, Note_on_c, 0, 67, 100
2, 10558464, Note_off_c, 0, 62, 64
2, 10565632, Note_off_c, 0, 74, 64
2, 10566656, Note_off_c, 0, 69, 64
2, 10567680, Note_on_c, 0, 62, 100
2, 10568704, Note_on_c, 0, 66, 100
2, 10575872, Note_on_c, 0, 69, 100
2, 10576896, Note_on_c, 0, 74, 100
2, 10577920, Note_off_c, 0, 66, 64
2, 10578944, Note_off_c, 0, 62, 64
2, 10586112, Note_off_c, 0, 74, 64
2, 10587136, Note_off_c, 0, 70, 64
2, 10588160, Note_on_c, 0, 62, 100
2, 10589184, Note_off_c, 0, 67, 64
2, 10590208, Note_on_c, 0, 50, 100
2, 10591232, Note_off_c, 0, 26, 64
2, 10592256, Note_off_c, 0, 38, 64
2, 10599424, Note_on_c, 0, 70, 100
2, 10600448, Note_on_c, 0, 74, 100
2, 10601472, Note_on_c, 0, 67, 100
2, 10602496, Note_off_c, 0, 62, 64
2, 10605568, Note_on_c, 0, 62, 100
2, 10606592, Note_on_c, 0, 38, 100
2, 10607616, Note_off_c, 0, 50, 64
2, 10610688, Note_off_c, 0, 74, 64
2, 10611712, Note_on_c, 0, 72, 100
2, 10612736, Note_off_c, 0, 62, 64
2, 10613760, Note_off_c, 0, 69, 64
2, 10614784, Note_on_c, 0, 50, 100
2, 10615808, Note_on_c, 0, 26, 100
2, 10616832, Note_off_c, 0, 38, 64
2, 10624000, Note_off_c, 0, 72, 64
2, 10625024, Note_on_c, 0, 74, 100
2, 10626048, Note_on_c, 0, 69, 100
2, 10627072, Note_on_c, 0, 62, 100
2, 10634240, Note_off_c, 0, 74, 64
2, 10635264, Note_off_c, 0, 70, 64
2, 10636288, Note_off_c, 0, 62, 64
2, 10637312, Note_off_c, 0, 67, 64
2, 10644480, Note_on_c, 0, 70, 100
2, 10645504, Note_on_c, 0, 74, 100
2, 10646528, Note_on_c, 0, 67, 100
2, 10647552, Note_on_c, 0, 62, 100
2, 10654720, Note_off_c, 0, 74, 64
2, 10655744, Note_off_c, 0, 69, 64
2, 10656768, Note_off_c, 0, 62, 64
2, 10657792, Note_on_c, 0, 66, 100
2, 10658816, Note_off_c, 0, 50, 64
2, 10659840, Note_off_c, 0, 26, 64
2, 10660864, Note_on_c, 0, 38, 100
2, 10668032, Note_on_c, 0, 69, 100
2, 10669056, Note_on_c, 0, 74, 100
2, 10670080, Note_off_c, 0, 66, 64
2, 10671104, Note_on_c, 0, 62, 100
2, 10674176, Note_off_c, 0, 62, 64
2, 10675200, Note_off_c, 0, 38, 64
2, 10676224, Note_on_c, 0, 50, 100
2, 10679296, Note_off_c, 0, 74, 64
2, 10680320, Note_off_c, 0, 70, 64
2, 10681344, Note_on_c, 0, 62, 100
2, 10682368, Note_off_c, 0, 67, 64
2, 10683392, Note_off_c, 0, 50, 64
2, 10684416, Note_on_c, 0, 26, 100
2, 10685440, Note_on_c, 0, 38, 100
2, 10692608, Note_on_c, 0, 70, 100
2, 10693632, Note_on_c, 0, 74, 100
2, 10694656, Note_on_c, 0, 67, 100
2, 10695680, Note_off_c, 0, 62, 64
2, 10702848, Note_off_c, 0, 74, 64
2, 10703872, Note_off_c, 0, 69, 64
2, 10704896, Note_on_c, 0, 62, 100
2, 10712064, Note_on_c, 0, 69, 100
2, 10713088, Note_on_c, 0, 74, 100
2, 10714112, Note_off_c, 0, 62, 64
2, 10721280, Note_off_c, 0, 74, 64
2, 10722304, Note_off_c, 0, 67, 64
2, 10723328, Note_on_c, 0, 62, 100
2, 10724352, Note_off_c, 0, 70, 64
2, 10725376, Note_on_c, 0, 50, 100
2, 10726400, Note_off_c, 0, 26, 64
2, 10727424, Note_off_c, 0, 38, 64
2, 10734592, Note_on_c, 0, 67, 100
2, 10735616, Note_on_c, 0, 74, 100
2, 10736640, Note_on_c, 0, 70, 100
2, 10737664, Note_off_c, 0, 62, 64
2, 10740736, Note_on_c, 0, 62, 100
2, 10741760, Note_on_c, 0, 38, 100
2, 10742784, Note_off_c, 0, 50, 64
2, 10745856, Note_off_c, 0, 74, 64
2, 10746880, Note_on_c, 0, 66, 100
2, 10747904, Note_off_c, 0, 62, 64
2, 10748928, Note_off_c, 0, 69, 64
2, 10749952, Note_on_c, 0, 50, 100
2, 10750976, Note_on_c, 0, 26, 100
2, 10752000, Note_off_c, 0, 38, 64
2, 10759168, Note_off_c, 0, 66, 64
2, 10760192, Note_on_c, 0, 62, 100
2, 10763264, Note_on_c, 0, 69, 100
2, 10766336, Note_off_c, 0, 62, 64
2, 10767360, Note_on_c, 0, 66, 100
2, 10774528, Note_off_c, 0, 66, 64
2, 10775552, Note_off_c, 0, 69, 64
2, 10778624, Note_on_c, 0, 62, 100
2, 10781696, Note_on_c, 0, 69, 100
2, 10782720, Note_on_c, 0, 74, 100
2, 10783744, Note_off_c, 0, 50, 64
2, 10784768, Note_off_c, 0, 48, 64
2, 10785792, Note_off_c, 0, 26, 64
2, 10786816, Note_on_c, 0, 38, 100
2, 10793984, Note_off_c, 0, 74, 64
2, 10795008, Note_off_c, 0, 75, 64
2, 10798080, Note_on_c, 0, 48, 100
2, 10801152, Note_on_c, 0, 75, 100
2, 10802176, Note_off_c, 0, 77, 64
2, 10803200, Note_on_c, 0, 47, 100
2, 10810368, Note_off_c, 0, 55, 64
2, 10817536, Note_on_c, 0, 55, 100
2, 10818560, Note_on_c, 0, 59, 100
2, 10825728, Note_off_c, 0, 59, 64
2, 10826752, Note_off_c, 0, 62, 64
2, 10833920, Note_on_c, 0, 62, 100
2, 10834944, Note_off_c, 0, 67, 64
2, 10835968, Note_off_c, 0, 47, 64
2, 10843136, Note_on_c, 0, 67, 100
2, 10844160, Note_on_c, 0, 71, 100
2, 10851328, Note_on_c, 0, 77, 100
2, 10852352, Note_off_c, 0, 71, 64
2, 10853376, Note_off_c, 0, 75, 64
2, 10854400, Note_off_c, 0, 48, 64
2, 10861568, Note_off_c, 0, 60, 64
2, 10868736, Note_on_c, 0, 60, 100
2, 10869760, Note_off_c, 0, 63, 64
2, 10876928, Note_on_c, 0, 63, 100
2, 10877952, Note_off_c, 0, 67, 64
2, 10885120, Note_on_c, 0, 67, 100
2, 10886144, Note_on_c, 0, 72, 100
2, 10887168, Note_on_c, 0, 48, 100
2, 10894336, Note_off_c, 0, 72, 64
2, 10895360, Note_on_c, 0, 74, 100
2, 10902528, Note_off_c, 0, 74, 64
2, 10903552, Note_on_c, 0, 75, 100
2, 10904576, Note_on_c, 0, 45, 100
2, 10911744, Note_on_c, 0, 53, 100
2, 10918912, Note_off_c, 0, 53, 64
2, 10919936, Note_off_c, 0, 57, 64
2, 10927104, Note_on_c, 0, 57, 100
2, 10928128, Note_off_c, 0, 60, 64
2, 10935296, Note_on_c, 0, 60, 100
2, 10936320, Note_off_c, 0, 65, 64
2, 10937344, Note_off_c, 0, 45, 64
2, 10944512, Note_on_c, 0, 65, 100
2, 10945536, Note_off_c, 0, 69, 64
2, 10952704, Note_off_c, 0, 75, 64
2, 10953728, Note_on_c, 0, 69, 100
2, 10954752, Note_on_c, 0, 74, 100
2, 10955776, Note_on_c, 0, 46, 100
2, 10962944, Note_off_c, 0, 58, 64
2, 10970112, Note_on_c, 0, 58, 100
2, 10971136, Note_off_c, 0, 62, 64
2, 10978304, Note_on_c, 0, 62, 100
2, 10979328, Note_off_c, 0, 65, 64
2, 10986496, Note_on_c, 0, 65, 100
2, 10987520, Note_off_c, 0, 70, 64
2, 10988544, Note_off_c, 0, 46, 64
2, 10995712, Note_on_c, 0, 70, 100
2, 10996736, Note_on_c, 0, 72, 100
2, 11003904, Note_off_c, 0, 72, 64
2, 11004928, Note_off_c, 0, 74, 64
2, 11005952, Note_on_c, 0, 43, 100
2, 11013120, Note_off_c, 0, 51, 64
2, 11020288, Note_on_c, 0, 51, 100
2, 11021312, Note_off_c, 0, 55, 64
2, 11028480, Note_on_c, 0, 55, 100
2, 11029504, Note_off_c, 0, 58, 64
2, 11036672, Note_on_c, 0, 58, 100
2, 11037696, Note_off_c, 0, 63, 64
2, 11038720, Note_off_c, 0, 43, 64
2, 11045888, Note_on_c, 0, 63, 100
2, 11046912, Note_off_c, 0, 67, 64
2, 11054080, Note_on_c, 0, 74, 100
2, 11055104, Note_on_c, 0, 67, 100
2, 11056128, Note_on_c, 0, 72, 100
2, 11057152, Note_on_c, 0, 45, 100
2, 11064320, Note_off_c, 0, 57, 64
2, 11071488, Note_on_c, 0, 57, 100
2, 11072512, Note_off_c, 0, 60, 64
2, 11079680, Note_on_c, 0, 60, 100
2, 11080704, Note_on_c, 0, 66, 100
2, 11087872, Note_off_c, 0, 66, 64
2, 11088896, Note_off_c, 0, 69, 64
2, 11089920, Note_off_c, 0, 45, 64
2, 11097088, Note_on_c, 0, 69, 100
2, 11098112, Note_off_c, 0, 70, 64
2, 11105280, Note_on_c, 0, 70, 100
2, 11106304, Note_off_c, 0, 72, 64
2, 11107328, Note_on_c, 0, 42, 100
2, 11114496, Note_on_c, 0, 50, 100
2, 11121664, Note_off_c, 0, 50, 64
2, 11122688, Note_off_c, 0, 54, 64
2, 11129856, Note_on_c, 0, 54, 100
2, 11130880, Note_off_c, 0, 57, 64
2, 11138048, Note_on_c, 0, 57, 100
2, 11139072, Note_off_c, 0, 62, 64
2, 11140096, Note_off_c, 0, 42, 64
2, 11147264, Note_on_c, 0, 62, 100
2, 11148288, Note_on_c, 0, 66, 100
2, 11155456, Note_on_c, 0, 72, 100
2, 11156480, Note_off_c, 0, 66, 64
2, 11157504, Note_off_c, 0, 70, 64
2, 11158528, Note_on_c, 0, 43, 100
2, 11165696, Note_off_c, 0, 55, 64
2, 11172864, Note_on_c, 0, 55, 100
2, 11173888, Note_off_c, 0, 57, 64
2, 11181056, Note_on_c, 0, 57, 100
2, 11182080, Note_off_c, 0, 58, 64
2, 11189248, Note_on_c, 0, 58, 100
2, 11190272, Note_off_c, 0, 60, 64
2, 11191296, Note_off_c, 0, 43, 64
2, 11198464, Note_on_c, 0, 60, 100
2, 11199488, Note_off_c, 0, 62, 64
2, 11206656, Note_on_c, 0, 62, 100
2, 11207680, Note_off_c, 0, 63, 64
2, 11208704, Note_off_c, 0, 48, 64
2, 11215872, Note_on_c, 0, 70, 100
2, 11216896, Note_off_c, 0, 69, 64
2, 11224064, Note_on_c, 0, 69, 100
2, 11225088, Note_off_c, 0, 67, 64
2, 11232256, Note_on_c, 0, 67, 100
2, 11233280, Note_off_c, 0, 65, 64
2, 11240448, Note_on_c, 0, 65, 100
2, 11241472, Note_on_c, 0, 63, 100
2, 11242496, Note_on_c, 0, 48, 100
2, 11249664, Note_off_c, 0, 63, 64
2, 11250688, Note_off_c, 0, 62, 64
2, 11257856, Note_on_c, 0, 62, 100
2, 11258880, Note_off_c, 0, 72, 64
2, 11259904, Note_on_c, 0, 45, 100
2, 11267072, Note_on_c, 0, 63, 100
2, 11268096, Note_off_c, 0, 57, 64
2, 11275264, Note_on_c, 0, 57, 100
2, 11276288, Note_off_c, 0, 58, 64
2, 11283456, Note_on_c, 0, 58, 100
2, 11284480, Note_off_c, 0, 60, 64
2, 11291648, Note_on_c, 0, 60, 100
2, 11292672, Note_off_c, 0, 62, 64
2, 11293696, Note_off_c, 0, 45, 64
2, 11300864, Note_on_c, 0, 62, 100
2, 11301888, Note_on_c, 0, 64, 100
2, 11309056, Note_off_c, 0, 64, 64
2, 11310080, Note_off_c, 0, 65, 64
2, 11311104, Note_on_c, 0, 50, 100
2, 11318272, Note_on_c, 0, 72, 100
2, 11319296, Note_off_c, 0, 70, 64
2, 11326464, Note_on_c, 0, 70, 100
2, 11327488, Note_off_c, 0, 69, 64
2, 11334656, Note_on_c, 0, 69, 100
2, 11335680, Note_off_c, 0, 67, 64
2, 11342848, Note_on_c, 0, 67, 100
2, 11343872, Note_on_c, 0, 65, 100
2, 11344896, Note_off_c, 0, 50, 64
2, 11352064, Note_off_c, 0, 65, 64
2, 11353088, Note_off_c, 0, 63, 64
2, 11360256, Note_on_c, 0, 63, 100
2, 11361280, Note_off_c, 0, 74, 64
2, 11362304, Note_on_c, 0, 46, 100
2, 11369472, Note_on_c, 0, 65, 100
2, 11370496, Note_off_c, 0, 58, 64
2, 11377664, Note_on_c, 0, 58, 100
2, 11378688, Note_off_c, 0, 60, 64
2, 11385856, Note_on_c, 0, 60, 100
2, 11386880, Note_off_c, 0, 62, 64
2, 11394048, Note_on_c, 0, 62, 100
2, 11395072, Note_on_c, 0, 64, 100
2, 11396096, Note_off_c, 0, 46, 64
2, 11403264, Note_off_c, 0, 64, 64
2, 11404288, Note_on_c, 0, 66, 100
2, 11411456, Note_off_c, 0, 66, 64
2, 11412480, Note_off_c, 0, 67, 64
2, 11413504, Note_off_c, 0, 51, 64
2, 11420672, Note_on_c, 0, 74, 100
2, 11421696, Note_off_c, 0, 72, 64
2, 11428864, Note_on_c, 0, 72, 100
2, 11429888, Note_off_c, 0, 70, 64
2, 11437056, Note_on_c, 0, 67, 100
2, 11438080, Note_on_c, 0, 70, 100
2, 11439104, Note_off_c, 0, 69, 64
2, 11446272, Note_off_c, 0, 70, 64
2, 11447296, Note_off_c, 0, 72, 64
2, 11448320, Note_on_c, 0, 69, 100
2, 11449344, Note_off_c, 0, 67, 64
2, 11450368, Note_on_c, 0, 51, 100
2, 11457536, Note_on_c, 0, 72, 100
2, 11458560, Note_off_c, 0, 74, 64
2, 11459584, Note_on_c, 0, 67, 100
2, 11460608, Note_on_c, 0, 66, 100
2, 11467776, Note_on_c, 0, 74, 100
2, 11468800, Note_on_c, 0, 75, 100
2, 11469824, Note_off_c, 0, 66, 64
2, 11470848, Note_off_c, 0, 67, 64
2, 11471872, Note_off_c, 0, 48, 64
2, 11479040, Note_off_c, 0, 75, 64
2, 11480064, Note_off_c, 0, 74, 64
2, 11481088, Note_on_c, 0, 67, 100
2, 11482112, Note_off_c, 0, 65, 64
2, 11489280, Note_on_c, 0, 74, 100
2, 11490304, Note_off_c, 0, 72, 64
2, 11491328, Note_on_c, 0, 65, 100
2, 11492352, Note_off_c, 0, 63, 64
2, 11499520, Note_on_c, 0, 72, 100
2, 11500544, Note_on_c, 0, 70, 100
2, 11501568, Note_on_c, 0, 63, 100
2, 11502592, Note_off_c, 0, 62, 64
2, 11509760, Note_off_c, 0, 70, 64
2, 11510784, Note_off_c, 0, 69, 64
2, 11511808, Note_on_c, 0, 62, 100
2, 11512832, Note_off_c, 0, 60, 64
2, 11513856, Note_on_c, 0, 48, 100
2, 11521024, Note_on_c, 0, 69, 100
2, 11522048, Note_off_c, 0, 67, 64
2, 11523072, Note_on_c, 0, 60, 100
2, 11524096, Note_off_c, 0, 58, 64
2, 11531264, Note_on_c, 0, 67, 100
2, 11532288, Note_on_c, 0, 66, 100
2, 11533312, Note_on_c, 0, 58, 100
2, 11534336, Note_off_c, 0, 57, 64
2, 11535360, Note_on_c, 0, 50, 100
2, 11542528, Note_off_c, 0, 66, 64
2, 11543552, Note_on_c, 0, 64, 100
2, 11544576, Note_on_c, 0, 57, 100
2, 11545600, Note_off_c, 0, 55, 64
2, 11552768, Note_off_c, 0, 64, 64
2, 11553792, Note_on_c, 0, 66, 100
2, 11554816, Note_on_c, 0, 55, 100
2, 11555840, Note_off_c, 0, 57, 64
2, 11563008, Note_off_c, 0, 66, 64
2, 11564032, Note_off_c, 0, 67, 64
2, 11565056, Note_on_c, 0, 57, 100
2, 11566080, Note_off_c, 0, 58, 64
2, 11573248, Note_on_c, 0, 67, 100
2, 11574272, Note_on_c, 0, 66, 100
2, 11575296, Note_on_c, 0, 58, 100
2, 11576320, Note_off_c, 0, 57, 64
2, 11577344, Note_off_c, 0, 50, 64
2, 11584512, Note_off_c, 0, 66, 64
2, 11585536, Note_off_c, 0, 67, 64
2, 11586560, Note_on_c, 0, 57, 100
2, 11587584, Note_off_c, 0, 58, 64
2, 11594752, Note_on_c, 0, 67, 100
2, 11595776, Note_off_c, 0, 69, 64
2, 11596800, Note_on_c, 0, 58, 100
2, 11597824, Note_off_c, 0, 60, 64
2, 11598848, Note_off_c, 0, 38, 64
2, 11606016, Note_on_c, 0, 69, 100
2, 11607040, Note_off_c, 0, 67, 64
2, 11608064, Note_on_c, 0, 60, 100
2, 11609088, Note_off_c, 0, 58, 64
2, 11616256, Note_on_c, 0, 67, 100
2, 11617280, Note_off_c, 0, 69, 64
2, 11618304, Note_on_c, 0, 58, 100
2, 11619328, Note_off_c, 0, 60, 64
2, 11626496, Note_on_c, 0, 69, 100
2, 11627520, Note_on_c, 0, 70, 100
2, 11628544, Note_on_c, 0, 60, 100
2, 11629568, Note_off_c, 0, 62, 64
2, 11636736, Note_off_c, 0, 70, 64
2, 11637760, Note_off_c, 0, 69, 64
2, 11638784, Note_on_c, 0, 62, 100
2, 11639808, Note_off_c, 0, 60, 64
2, 11640832, Note_on_c, 0, 38, 100
2, 11648000, Note_on_c, 0, 69, 100
2, 11649024, Note_on_c, 0, 70, 100
2, 11650048, Note_on_c, 0, 60, 100
2, 11651072, Note_off_c, 0, 62, 64
2, 11658240, Note_off_c, 0, 70, 64
2, 11659264, Note_off_c, 0, 67, 64
2, 11660288, Note_on_c, 0, 62, 100
2, 11661312, Note_off_c, 0, 58, 64
2, 11662336, Note_off_c, 0, 55, 64
2, 11663360, Note_on_c, 0, 43, 100
2, 11678720, Note_on_c, 0, 67, 100
2, 11679744, Note_on_c, 0, 66, 100
2, 11680768, Note_on_c, 0, 58, 100
2, 11681792, Note_off_c, 0, 62, 64
2, 11693056, Note_off_c, 0, 66, 64
2, 11694080, Note_on_c, 0, 62, 100
2, 11697152, Note_off_c, 0, 67, 64
2, 11698176, Note_off_c, 0, 62, 64
2, 11699200, Note_off_c, 0, 58, 64
2, 11700224, Note_on_c, 0, 55, 100
2, 11701248, Note_off_c, 0, 43, 64
2, 11712512, Note_on_c, 0, 67, 100
2, 11715584, Note_on_c, 0, 58, 100
2, 11716608, Note_on_c, 0, 62, 100
2, 11717632, Note_off_c, 0, 55, 64
2, 11718656, Note_on_c, 0, 53, 100
2, 11719680, Note_off_c, 0, 41, 64
2, 11735040, Note_off_c, 0, 58, 64
2, 11736064, Note_off_c, 0, 62, 64
2, 11747328, Note_on_c, 0, 62, 100
2, 11750400, Note_off_c, 0, 67, 64
2, 11751424, Note_off_c, 0, 62, 64
2, 11752448, Note_on_c, 0, 55, 100
2, 11753472, Note_off_c, 0, 53, 64
2, 11754496, Note_on_c, 0, 41, 100
2, 11765760, Note_on_c, 0, 67, 100
2, 11768832, Note_off_c, 0, 67, 64
2, 11769856, Note_off_c, 0, 63, 64
2, 11770880, Note_on_c, 0, 58, 100
2, 11771904, Note_off_c, 0, 51, 64
2, 11772928, Note_on_c, 0, 39, 100
2, 11788288, Note_on_c, 0, 67, 100
2, 11789312, Note_on_c, 0, 66, 100
2, 11800576, Note_off_c, 0, 66, 64
2, 11803648, Note_off_c, 0, 67, 64
2, 11804672, Note_on_c, 0, 63, 100
2, 11805696, Note_off_c, 0, 58, 64
2, 11806720, Note_on_c, 0, 51, 100
2, 11807744, Note_off_c, 0, 39, 64
2, 11819008, Note_on_c, 0, 67, 100
2, 11822080, Note_on_c, 0, 58, 100
2, 11823104, Note_off_c, 0, 67, 64
2, 11824128, Note_on_c, 0, 62, 100
2, 11825152, Note_on_c, 0, 50, 100
2, 11826176, Note_off_c, 0, 38, 64
2, 11841536, Note_off_c, 0, 58, 64
2, 11842560, Note_off_c, 0, 62, 64
2, 11853824, Note_on_c, 0, 62, 100
2, 11856896, Note_on_c, 0, 67, 100
2, 11857920, Note_off_c, 0, 62, 64
2, 11858944, Note_off_c, 0, 50, 64
2, 11859968, Note_on_c, 0, 38, 100
2, 11871232, Note_off_c, 0, 67, 64
2, 11874304, Note_off_c, 0, 69, 64
2, 11875328, Note_on_c, 0, 67, 100
2, 11876352, Note_off_c, 0, 63, 64
2, 11877376, Note_off_c, 0, 48, 64
2, 11878400, Note_on_c, 0, 36, 100
2, 11893760, Note_on_c, 0, 69, 100
2, 11894784, Note_off_c, 0, 67, 64
2, 11906048, Note_on_c, 0, 67, 100
2, 11909120, Note_off_c, 0, 69, 64
2, 11910144, Note_off_c, 0, 67, 64
2, 11911168, Note_on_c, 0, 63, 100
2, 11912192, Note_on_c, 0, 48, 100
2, 11913216, Note_off_c, 0, 36, 64
2, 11924480, Note_on_c, 0, 69, 100
2, 11927552, Note_on_c, 0, 62, 100
2, 11928576, Note_on_c, 0, 66, 100
2, 11929600, Note_on_c, 0, 50, 100
2, 11930624, Note_off_c, 0, 38, 64
2, 11945984, Note_off_c, 0, 62, 64
2, 11947008, Note_off_c, 0, 66, 64
2, 11958272, Note_on_c, 0, 66, 100
2, 11961344, Note_off_c, 0, 69, 64
2, 11962368, Note_off_c, 0, 66, 64
2, 11963392, Note_on_c, 0, 62, 100
2, 11964416, Note_off_c, 0, 50, 64
2, 11965440, Note_on_c, 0, 38, 100
2, 11976704, Note_on_c, 0, 69, 100
2, 11979776, Note_on_c, 0, 70, 100
2, 11980800, Note_on_c, 0, 67, 100
2, 11981824, Note_off_c, 0, 62, 64
2, 11982848, Note_on_c, 0, 43, 100
2, 11983872, Note_on_c, 0, 31, 100
2, 11999232, Note_off_c, 0, 70, 64
2, 12000256, Note_off_c, 0, 69, 64
2, 12001280, Note_off_c, 0, 67, 64
2, 12002304, Note_on_c, 0, 66, 100
2, 12003328, Note_on_c, 0, 62, 100
2, 12004352, Note_off_c, 0, 60, 64
2, 12015616, Note_on_c, 0, 69, 100
2, 12016640, Note_off_c, 0, 66, 64
2, 12017664, Note_on_c, 0, 60, 100
2, 12020736, Note_on_c, 0, 70, 100
2, 12021760, Note_on_c, 0, 67, 100
2, 12022784, Note_off_c, 0, 62, 64
2, 12023808, Note_off_c, 0, 43, 64
2, 12024832, Note_on_c, 0, 50, 100
2, 12025856, Note_off_c, 0, 38, 64
2, 12026880, Note_off_c, 0, 31, 64
2, 12038144, Note_off_c, 0, 70, 64
2, 12039168, Note_off_c, 0, 67, 64
2, 12040192, Note_on_c, 0, 62, 100
2, 12041216, Note_off_c, 0, 50, 64
2, 12042240, Note_on_c, 0, 38, 100
2, 12045312, Note_on_c, 0, 67, 100
2, 12046336, Note_off_c, 0, 62, 64
2, 12047360, Note_on_c, 0, 58, 100
2, 12048384, Note_off_c, 0, 55, 64
2, 12049408, Note_on_c, 0, 43, 100
2, 12056576, Note_on_c, 0, 55, 100
2, 12057600, Note_off_c, 0, 57, 64
2, 12064768, Note_on_c, 0, 57, 100
2, 12065792, Note_off_c, 0, 58, 64
2, 12072960, Note_on_c, 0, 58, 100
2, 12073984, Note_off_c, 0, 57, 64
2, 12081152, Note_off_c, 0, 67, 64
2, 12082176, Note_off_c, 0, 74, 64
2, 12083200, Note_on_c, 0, 62, 100
2, 12084224, Note_off_c, 0, 58, 64
2, 12085248, Note_on_c, 0, 57, 100
2, 12086272, Note_off_c, 0, 55, 64
2, 12087296, Note_off_c, 0, 43, 64
2, 12094464, Note_on_c, 0, 55, 100
2, 12095488, Note_on_c, 0, 53, 100
2, 12098560, Note_on_c, 0, 74, 100
2, 12101632, Note_on_c, 0, 79, 100
2, 12102656, Note_off_c, 0, 53, 64
2, 12103680, Note_off_c, 0, 52, 64
2, 12110848, Note_on_c, 0, 52, 100
2, 12111872, Note_on_c, 0, 53, 100
2, 12119040, Note_off_c, 0, 53, 64
2, 12120064, Note_off_c, 0, 55, 64
2, 12127232, Note_on_c, 0, 55, 100
2, 12128256, Note_on_c, 0, 53, 100
2, 12135424, Note_on_c, 0, 71, 100
2, 12136448, Note_off_c, 0, 53, 64
2, 12137472, Note_off_c, 0, 52, 64
2, 12144640, Note_on_c, 0, 52, 100
2, 12145664, Note_on_c, 0, 50, 100
2, 12148736, Note_off_c, 0, 71, 64
2, 12151808, Note_on_c, 0, 76, 100
2, 12152832, Note_off_c, 0, 50, 64
2, 12153856, Note_on_c, 0, 49, 100
2, 12161024, Note_off_c, 0, 49, 64
2, 12162048, Note_off_c, 0, 52, 64
2, 12169216, Note_off_c, 0, 79, 64
2, 12170240, Note_on_c, 0, 73, 100
2, 12171264, Note_on_c, 0, 52, 100
2, 12172288, Note_off_c, 0, 57, 64
2, 12179456, Note_on_c, 0, 57, 100
2, 12180480, Note_off_c, 0, 55, 64
2, 12183552, Note_off_c, 0, 73, 64
2, 12186624, Note_off_c, 0, 76, 64
2, 12187648, Note_on_c, 0, 55, 100
2, 12188672, Note_on_c, 0, 53, 100
2, 12195840, Note_off_c, 0, 53, 64
2, 12196864, Note_off_c, 0, 52, 64
2, 12199936, Note_on_c, 0, 76, 100
2, 12203008, Note_off_c, 0, 77, 64
2, 12204032, Note_on_c, 0, 52, 100
2, 12205056, Note_on_c, 0, 50, 100
2, 12212224, Note_on_c, 0, 77, 100
2, 12213248, Note_off_c, 0, 76, 64
2, 12216320, Note_off_c, 0, 50, 64
2, 12219392, Note_on_c, 0, 76, 100
2, 12220416, Note_off_c, 0, 74, 64
2, 12221440, Note_off_c, 0, 69, 64
2, 12222464, Note_on_c, 0, 53, 100
2, 12229632, Note_on_c, 0, 74, 100
2, 12230656, Note_off_c, 0, 77, 64
2, 12233728, Note_on_c, 0, 69, 100
2, 12234752, Note_off_c, 0, 53, 64
2, 12237824, Note_on_c, 0, 77, 100
2, 12238848, Note_off_c, 0, 76, 64
2, 12239872, Note_on_c, 0, 73, 100
2, 12240896, Note_off_c, 0, 69, 64
2, 12241920, Note_on_c, 0, 64, 100
2, 12242944, Note_off_c, 0, 57, 64
2, 12243968, Note_on_c, 0, 33, 100
2, 12244992, Note_on_c, 0, 45, 100
2, 12252160, Note_on_c, 0, 76, 100
2, 12253184, Note_on_c, 0, 79, 100
2, 12254208, Note_off_c, 0, 33, 64
2, 12255232, Note_off_c, 0, 45, 64
2, 12258304, Note_off_c, 0, 73, 64
2, 12259328, Note_on_c, 0, 69, 100
2, 12260352, Note_off_c, 0, 64, 64
2, 12261376, Note_on_c, 0, 57, 100
2, 12264448, Note_off_c, 0, 79, 64
2, 12265472, Note_off_c, 0, 77, 64
2, 12266496, Note_off_c, 0, 74, 64
2, 12267520, Note_off_c, 0, 69, 64
2, 12268544, Note_off_c, 0, 62, 64
2, 12269568, Note_off_c, 0, 38, 64
2, 12270592, Note_on_c, 0, 50, 100
2, 12277760, Note_on_c, 0, 77, 100
2, 12278784, Note_on_c, 0, 69, 100
2, 12281856, Note_on_c, 0, 74, 100
2, 12282880, Note_on_c, 0, 62, 100
2, 12285952, Note_off_c, 0, 69, 64
2, 12286976, Note_off_c, 0, 74, 64
2, 12288000, Note_off_c, 0, 62, 64
2, 12289024, Note_on_c, 0, 53, 100
2, 12296192, Note_on_c, 0, 74, 100
2, 12297216, Note_off_c, 0, 76, 64
2, 12300288, Note_on_c, 0, 76, 100
2, 12301312, Note_off_c, 0, 77, 64
2, 12302336, Note_on_c, 0, 62, 100
2, 12303360, Note_off_c, 0, 53, 64
2, 12306432, Note_on_c, 0, 77, 100
2, 12307456, Note_off_c, 0, 76, 64
2, 12308480, Note_on_c, 0, 69, 100
2, 12309504, Note_off_c, 0, 62, 64
2, 12310528, Note_off_c, 0, 57, 64
2, 12311552, Note_on_c, 0, 38, 100
2, 12312576, Note_off_c, 0, 50, 64
2, 12319744, Note_on_c, 0, 76, 100
2, 12320768, Note_off_c, 0, 77, 64
2, 12323840, Note_on_c, 0, 77, 100
2, 12324864, Note_on_c, 0, 79, 100
2, 12325888, Note_on_c, 0, 57, 100
2, 12328960, Note_off_c, 0, 79, 64
2, 12329984, Note_off_c, 0, 77, 64
2, 12331008, Note_on_c, 0, 50, 100
2, 12338176, Note_off_c, 0, 50, 64
2, 12339200, Note_off_c, 0, 51, 64
2, 12346368, Note_on_c, 0, 51, 100
2, 12347392, Note_on_c, 0, 53, 100
2, 12354560, Note_off_c, 0, 53, 64
2, 12355584, Note_off_c, 0, 51, 64
2, 12362752, Note_off_c, 0, 69, 64
2, 12363776, Note_on_c, 0, 51, 100
2, 12364800, Note_on_c, 0, 50, 100
2, 12371968, Note_off_c, 0, 50, 64
2, 12372992, Note_off_c, 0, 48, 64
2, 12376064, Note_on_c, 0, 69, 100
2, 12379136, Note_off_c, 0, 74, 64
2, 12380160, Note_on_c, 0, 48, 100
2, 12381184, Note_on_c, 0, 47, 100
2, 12388352, Note_off_c, 0, 47, 64
2, 12389376, Note_on_c, 0, 50, 100
2, 12396544, Note_on_c, 0, 77, 100
2, 12397568, Note_on_c, 0, 71, 100
2, 12398592, Note_off_c, 0, 50, 64
2, 12399616, Note_off_c, 0, 55, 64
2, 12406784, Note_on_c, 0, 55, 100
2, 12407808, Note_on_c, 0, 53, 100
2, 12410880, Note_off_c, 0, 71, 64
2, 12413952, Note_on_c, 0, 74, 100
2, 12414976, Note_off_c, 0, 53, 64
2, 12416000, Note_off_c, 0, 51, 64
2, 12423168, Note_on_c, 0, 51, 100
2, 12424192, Note_on_c, 0, 50, 100
2, 12427264, Note_off_c, 0, 74, 64
2, 12430336, Note_on_c, 0, 75, 100
2, 12431360, Note_off_c, 0, 50, 64
2, 12432384, Note_off_c, 0, 48, 64
2, 12439552, Note_off_c, 0, 75, 64
2, 12440576, Note_on_c, 0, 74, 100
2, 12443648, Note_on_c, 0, 48, 100
2, 12446720, Note_off_c, 0, 74, 64
2, 12447744, Note_off_c, 0, 72, 64
2, 12448768, Note_on_c, 0, 67, 100
2, 12449792, Note_off_c, 0, 51, 64
2, 12456960, Note_on_c, 0, 72, 100
2, 12457984, Note_on_c, 0, 75, 100
2, 12461056, Note_off_c, 0, 67, 64
2, 12462080, Note_on_c, 0, 51, 100
2, 12465152, Note_off_c, 0, 75, 64
2, 12466176, Note_on_c, 0, 74, 100
2, 12467200, Note_on_c, 0, 71, 100
2, 12468224, Note_on_c, 0, 67, 100
2, 12469248, Note_on_c, 0, 62, 100
2, 12470272, Note_off_c, 0, 55, 64
2, 12471296, Note_on_c, 0, 43, 100
2, 12472320, Note_on_c, 0, 31, 100
2, 12479488, Note_off_c, 0, 74, 64
2, 12480512, Note_off_c, 0, 77, 64
2, 12481536, Note_off_c, 0, 43, 64
2, 12482560, Note_off_c, 0, 31, 64
2, 12485632, Note_off_c, 0, 71, 64
2, 12486656, Note_off_c, 0, 67, 64
2, 12487680, Note_off_c, 0, 62, 64
2, 12488704, Note_on_c, 0, 55, 100
2, 12491776, Note_on_c, 0, 77, 100
2, 12492800, Note_on_c, 0, 75, 100
2, 12493824, Note_off_c, 0, 72, 64
2, 12494848, Note_on_c, 0, 67, 100
2, 12495872, Note_off_c, 0, 60, 64
2, 12496896, Note_on_c, 0, 36, 100
2, 12497920, Note_off_c, 0, 48, 64
2, 12505088, Note_on_c, 0, 60, 100
2, 12506112, Note_on_c, 0, 62, 100
2, 12509184, Note_off_c, 0, 75, 64
2, 12512256, Note_on_c, 0, 72, 100
2, 12513280, Note_off_c, 0, 62, 64
2, 12514304, Note_off_c, 0, 60, 64
2, 12521472, Note_on_c, 0, 60, 100
2, 12522496, Note_on_c, 0, 58, 100
2, 12525568, Note_off_c, 0, 72, 64
2, 12528640, Note_on_c, 0, 75, 100
2, 12529664, Note_off_c, 0, 67, 64
2, 12530688, Note_off_c, 0, 60, 64
2, 12531712, Note_off_c, 0, 58, 64
2, 12532736, Note_off_c, 0, 57, 64
2, 12533760, Note_off_c, 0, 36, 64
2, 12534784, Note_on_c, 0, 48, 100
2, 12541952, Note_on_c, 0, 57, 100
2, 12542976, Note_off_c, 0, 55, 64
2, 12546048, Note_off_c, 0, 75, 64
2, 12549120, Note_on_c, 0, 74, 100
2, 12550144, Note_on_c, 0, 55, 100
2, 12551168, Note_off_c, 0, 54, 64
2, 12558336, Note_on_c, 0, 54, 100
2, 12559360, Note_off_c, 0, 57, 64
2, 12566528, Note_on_c, 0, 72, 100
2, 12567552, Note_on_c, 0, 66, 100
2, 12568576, Note_on_c, 0, 57, 100
2, 12569600, Note_on_c, 0, 62, 100
2, 12576768, Note_off_c, 0, 62, 64
2, 12577792, Note_on_c, 0, 60, 100
2, 12580864, Note_off_c, 0, 66, 64
2, 12583936, Note_off_c, 0, 69, 64
2, 12584960, Note_off_c, 0, 60, 64
2, 12585984, Note_on_c, 0, 58, 100
2, 12593152, Note_off_c, 0, 58, 64
2, 12594176, Note_off_c, 0, 57, 64
2, 12597248, Note_on_c, 0, 69, 100
2, 12600320, Note_on_c, 0, 70, 100
2, 12601344, Note_on_c, 0, 57, 100
2, 12602368, Note_off_c, 0, 55, 64
2, 12609536, Note_on_c, 0, 55, 100
2, 12610560, Note_off_c, 0, 57, 64
2, 12617728, Note_off_c, 0, 74, 64
2, 12618752, Note_on_c, 0, 67, 100
2, 12619776, Note_on_c, 0, 57, 100
2, 12620800, Note_on_c, 0, 58, 100
2, 12627968, Note_off_c, 0, 58, 64
2, 12628992, Note_off_c, 0, 57, 64
2, 12632064, Note_off_c, 0, 67, 64
2, 12635136, Note_off_c, 0, 70, 64
2, 12636160, Note_on_c, 0, 62, 100
2, 12637184, Note_on_c, 0, 58, 100
2, 12638208, Note_on_c, 0, 57, 100
2, 12639232, Note_off_c, 0, 55, 64
2, 12640256, Note_on_c, 0, 43, 100
2, 12647424, Note_on_c, 0, 55, 100
2, 12648448, Note_on_c, 0, 53, 100
2, 12651520, Note_on_c, 0, 70, 100
2, 12652544, Note_off_c, 0, 62, 64
2, 12653568, Note_off_c, 0, 58, 64
2, 12654592, Note_off_c, 0, 43, 64
2, 12655616, Note_off_c, 0, 55, 64
2, 12658688, Note_off_c, 0, 72, 64
2, 12659712, Note_on_c, 0, 67, 100
2, 12660736, Note_on_c, 0, 58, 100
2, 12661760, Note_off_c, 0, 53, 64
2, 12662784, Note_off_c, 0, 52, 64
2, 12663808, Note_on_c, 0, 40, 100
2, 12670976, Note_on_c, 0, 52, 100
2, 12672000, Note_on_c, 0, 55, 100
2, 12679168, Note_off_c, 0, 70, 64
2, 12680192, Note_on_c, 0, 64, 100
2, 12681216, Note_off_c, 0, 55, 64
2, 12682240, Note_on_c, 0, 60, 100
2, 12689408, Note_off_c, 0, 60, 64
2, 12690432, Note_off_c, 0, 58, 64
2, 12693504, Note_off_c, 0, 64, 64
2, 12696576, Note_off_c, 0, 67, 64
2, 12697600, Note_on_c, 0, 58, 100
2, 12698624, Note_off_c, 0, 57, 64
2, 12705792, Note_on_c, 0, 57, 100
2, 12706816, Note_on_c, 0, 55, 100
2, 12709888, Note_on_c, 0, 67, 100
2, 12712960, Note_off_c, 0, 69, 64
2, 12713984, Note_off_c, 0, 67, 64
2, 12715008, Note_off_c, 0, 58, 64
2, 12716032, Note_off_c, 0, 55, 64
2, 12717056, Note_on_c, 0, 53, 100
2, 12718080, Note_off_c, 0, 40, 64
2, 12719104, Note_off_c, 0, 52, 64
2, 12726272, Note_off_c, 0, 53, 64
2, 12727296, Note_on_c, 0, 55, 100
2, 12734464, Note_on_c, 0, 72, 100
2, 12735488, Note_off_c, 0, 65, 64
2, 12736512, Note_off_c, 0, 55, 64
2, 12737536, Note_off_c, 0, 57, 64
2, 12744704, Note_on_c, 0, 57, 100
2, 12745728, Note_on_c, 0, 55, 100
2, 12748800, Note_on_c, 0, 65, 100
2, 12751872, Note_on_c, 0, 69, 100
2, 12752896, Note_on_c, 0, 60, 100
2, 12753920, Note_off_c, 0, 57, 64
2, 12754944, Note_off_c, 0, 55, 64
2, 12755968, Note_on_c, 0, 53, 100
2, 12756992, Note_off_c, 0, 41, 64
2, 12764160, Note_off_c, 0, 53, 64
2, 12765184, Note_off_c, 0, 51, 64
2, 12768256, Note_off_c, 0, 69, 64
2, 12769280, Note_off_c, 0, 60, 64
2, 12770304, Note_on_c, 0, 57, 100
2, 12771328, Note_on_c, 0, 41, 100
2, 12772352, Note_on_c, 0, 53, 100
2, 12775424, Note_on_c, 0, 70, 100
2, 12776448, Note_off_c, 0, 65, 64
2, 12777472, Note_off_c, 0, 57, 64
2, 12778496, Note_on_c, 0, 51, 100
2, 12779520, Note_on_c, 0, 50, 100
2, 12780544, Note_off_c, 0, 38, 64
2, 12787712, Note_off_c, 0, 50, 64
2, 12788736, Note_off_c, 0, 53, 64
2, 12795904, Note_on_c, 0, 69, 100
2, 12796928, Note_on_c, 0, 62, 100
2, 12797952, Note_on_c, 0, 53, 100
2, 12798976, Note_on_c, 0, 58, 100
2, 12806144, Note_off_c, 0, 58, 64
2, 12807168, Note_on_c, 0, 57, 100
2, 12810240, Note_off_c, 0, 62, 64
2, 12813312, Note_on_c, 0, 65, 100
2, 12814336, Note_off_c, 0, 57, 64
2, 12815360, Note_on_c, 0, 55, 100
2, 12822528, Note_off_c, 0, 55, 64
2, 12823552, Note_off_c, 0, 53, 64
2, 12826624, Note_off_c, 0, 65, 64
2, 12829696, Note_on_c, 0, 67, 100
2, 12830720, Note_on_c, 0, 65, 100
2, 12831744, Note_on_c, 0, 57, 100
2, 12832768, Note_on_c, 0, 53, 100
2, 12833792, Note_on_c, 0, 52, 100
2, 12834816, Note_on_c, 0, 38, 100
2, 12835840, Note_on_c, 0, 50, 100
2, 12843008, Note_off_c, 0, 52, 64
2, 12844032, Note_off_c, 0, 53, 64
2, 12851200, Note_off_c, 0, 70, 64
2, 12852224, Note_on_c, 0, 64, 100
2, 12853248, Note_on_c, 0, 53, 100
2, 12854272, Note_on_c, 0, 55, 100
2, 12861440, Note_off_c, 0, 55, 64
2, 12862464, Note_off_c, 0, 53, 64
2, 12865536, Note_off_c, 0, 64, 64
2, 12868608, Note_off_c, 0, 67, 64
2, 12869632, Note_on_c, 0, 70, 100
2, 12870656, Note_on_c, 0, 55, 100
2, 12871680, Note_on_c, 0, 53, 100
2, 12872704, Note_on_c, 0, 52, 100
2, 12873728, Note_on_c, 0, 40, 100
2, 12880896, Note_off_c, 0, 52, 64
2, 12881920, Note_off_c, 0, 50, 64
2, 12884992, Note_on_c, 0, 67, 100
2, 12886016, Note_off_c, 0, 70, 64
2, 12887040, Note_off_c, 0, 55, 64
2, 12890112, Note_off_c, 0, 69, 64
2, 12891136, Note_on_c, 0, 64, 100
2, 12892160, Note_off_c, 0, 57, 64
2, 12893184, Note_on_c, 0, 50, 100
2, 12894208, Note_on_c, 0, 49, 100
2, 12895232, Note_off_c, 0, 40, 64
2, 12896256, Note_on_c, 0, 37, 100
2, 12897280, Note_on_c, 0, 52, 100
2, 12904448, Note_off_c, 0, 67, 64
2, 12905472, Note_on_c, 0, 69, 100
2, 12912640, Note_off_c, 0, 69, 64
2, 12913664, Note_on_c, 0, 67, 100
2, 12914688, Note_off_c, 0, 49, 64
2, 12915712, Note_off_c, 0, 50, 64
2, 12922880, Note_off_c, 0, 67, 64
2, 12923904, Note_off_c, 0, 65, 64
2, 12926976, Note_on_c, 0, 50, 100
2, 12930048, Note_on_c, 0, 65, 100
2, 12931072, Note_off_c, 0, 64, 64
2, 12932096, Note_off_c, 0, 52, 64
2, 12939264, Note_on_c, 0, 64, 100
2, 12940288, Note_off_c, 0, 65, 64
2, 12943360, Note_on_c, 0, 52, 100
2, 12946432, Note_on_c, 0, 65, 100
2, 12947456, Note_on_c, 0, 67, 100
2, 12948480, Note_off_c, 0, 64, 64
2, 12949504, Note_on_c, 0, 57, 100
2, 12950528, Note_on_c, 0, 45, 100
2, 12951552, Note_off_c, 0, 37, 64
2, 12952576, Note_on_c, 0, 49, 100
2, 12959744, Note_off_c, 0, 67, 64
2, 12960768, Note_off_c, 0, 65, 64
2, 12967936, Note_on_c, 0, 65, 100
2, 12968960, Note_on_c, 0, 67, 100
2, 12976128, Note_off_c, 0, 67, 64
2, 12977152, Note_on_c, 0, 69, 100
2, 12984320, Note_off_c, 0, 69, 64
2, 12985344, Note_on_c, 0, 67, 100
2, 12986368, Note_off_c, 0, 45, 64
2, 12987392, Note_off_c, 0, 49, 64
2, 12994560, Note_off_c, 0, 67, 64
2, 12995584, Note_on_c, 0, 69, 100
2, 12998656, Note_on_c, 0, 49, 100
2, 13001728, Note_off_c, 0, 69, 64
2, 13002752, Note_off_c, 0, 65, 64
2, 13003776, Note_off_c, 0, 57, 64
2, 13004800, Note_off_c, 0, 50, 64
2, 13005824, Note_off_c, 0, 38, 64
2, 13012992, Note_on_c, 0, 65, 100
2, 13014016, Note_on_c, 0, 69, 100
2, 13021184, Note_off_c, 0, 69, 64
2, 13022208, Note_on_c, 0, 64, 100
2, 13029376, Note_off_c, 0, 64, 64
2, 13030400, Note_on_c, 0, 69, 100
2, 13037568, Note_off_c, 0, 69, 64
2, 13038592, Note_on_c, 0, 62, 100
2, 13039616, Note_on_c, 0, 57, 100
2, 13040640, Note_on_c, 0, 50, 100
2, 13041664, Note_on_c, 0, 38, 100
2, 13048832, Note_off_c, 0, 62, 64
2, 13049856, Note_on_c, 0, 69, 100
2, 13052928, Note_off_c, 0, 69, 64
2, 13056000, Note_on_c, 0, 69, 100
2, 13057024, Note_on_c, 0, 61, 100
2, 13058048, Note_off_c, 0, 57, 64
2, 13059072, Note_on_c, 0, 45, 100
2, 13060096, Note_on_c, 0, 33, 100
2, 13067264, Note_off_c, 0, 61, 64
2, 13068288, Note_off_c, 0, 69, 64
2, 13075456, Note_on_c, 0, 69, 100
2, 13076480, Note_on_c, 0, 59, 100
2, 13083648, Note_off_c, 0, 69, 64
2, 13084672, Note_off_c, 0, 59, 64
2, 13091840, Note_on_c, 0, 69, 100
2, 13092864, Note_on_c, 0, 79, 100
2, 13093888, Note_on_c, 0, 61, 100
2, 13094912, Note_on_c, 0, 57, 100
2, 13095936, Note_off_c, 0, 45, 64
2, 13096960, Note_off_c, 0, 33, 64
2, 13104128, Note_off_c, 0, 79, 64
2, 13105152, Note_off_c, 0, 69, 64
2, 13106176, Note_off_c, 0, 61, 64
2, 13109248, Note_on_c, 0, 69, 100
2, 13112320, Note_off_c, 0, 69, 64
2, 13113344, Note_off_c, 0, 77, 64
2, 13114368, Note_on_c, 0, 62, 100
2, 13115392, Note_off_c, 0, 57, 64
2, 13116416, Note_off_c, 0, 38, 64
2, 13117440, Note_on_c, 0, 26, 100
2, 13124608, Note_on_c, 0, 77, 100
2, 13125632, Note_on_c, 0, 69, 100
2, 13126656, Note_off_c, 0, 62, 64
2, 13133824, Note_off_c, 0, 69, 64
2, 13134848, Note_off_c, 0, 76, 64
2, 13135872, Note_on_c, 0, 61, 100
2, 13143040, Note_on_c, 0, 76, 100
2, 13144064, Note_on_c, 0, 69, 100
2, 13145088, Note_off_c, 0, 61, 64
2, 13152256, Note_off_c, 0, 69, 64
2, 13153280, Note_on_c, 0, 74, 100
2, 13154304, Note_on_c, 0, 62, 100
2, 13155328, Note_on_c, 0, 57, 100
2, 13156352, Note_on_c, 0, 38, 100
2, 13157376, Note_off_c, 0, 26, 64
2, 13164544, Note_off_c, 0, 74, 64
2, 13165568, Note_on_c, 0, 69, 100
2, 13166592, Note_off_c, 0, 62, 64
2, 13169664, Note_off_c, 0, 69, 64
2, 13172736, Note_on_c, 0, 69, 100
2, 13173760, Note_on_c, 0, 73, 100
2, 13174784, Note_on_c, 0, 64, 100
2, 13175808, Note_off_c, 0, 57, 64
2, 13176832, Note_on_c, 0, 45, 100
2, 13177856, Note_on_c, 0, 33, 100
2, 13185024, Note_off_c, 0, 73, 64
2, 13186048, Note_off_c, 0, 69, 64
2, 13187072, Note_off_c, 0, 64, 64
2, 13194240, Note_on_c, 0, 69, 100
2, 13195264, Note_on_c, 0, 71, 100
2, 13196288, Note_on_c, 0, 62, 100
2, 13203456, Note_off_c, 0, 71, 64
2, 13204480, Note_off_c, 0, 69, 64
2, 13205504, Note_off_c, 0, 62, 64
2, 13212672, Note_on_c, 0, 69, 100
2, 13213696, Note_on_c, 0, 73, 100
2, 13214720, Note_on_c, 0, 64, 100
2, 13215744, Note_on_c, 0, 57, 100
2, 13216768, Note_off_c, 0, 45, 64
2, 13217792, Note_off_c, 0, 33, 64
2, 13224960, Note_off_c, 0, 73, 64
2, 13225984, Note_off_c, 0, 69, 64
2, 13227008, Note_off_c, 0, 64, 64
2, 13230080, Note_on_c, 0, 69, 100
2, 13233152, Note_off_c, 0, 69, 64
2, 13234176, Note_on_c, 0, 74, 100
2, 13235200, Note_off_c, 0, 65, 64
2, 13236224, Note_off_c, 0, 57, 64
2, 13237248, Note_off_c, 0, 50, 64
2, 13238272, Note_off_c, 0, 38, 64
2, 13245440, Note_off_c, 0, 74, 64
2, 13246464, Note_on_c, 0, 69, 100
2, 13247488, Note_on_c, 0, 65, 100
2, 13254656, Note_off_c, 0, 69, 64
2, 13255680, Note_on_c, 0, 73, 100
2, 13256704, Note_on_c, 0, 64, 100
2, 13263872, Note_off_c, 0, 73, 64
2, 13264896, Note_on_c, 0, 69, 100
2, 13265920, Note_off_c, 0, 64, 64
2, 13273088, Note_off_c, 0, 69, 64
2, 13274112, Note_on_c, 0, 74, 100
2, 13275136, Note_off_c, 0, 65, 64
2, 13276160, Note_on_c, 0, 57, 100
2, 13277184, Note_on_c, 0, 50, 100
2, 13278208, Note_on_c, 0, 38, 100
2, 13285376, Note_off_c, 0, 74, 64
2, 13286400, Note_on_c, 0, 69, 100
2, 13287424, Note_on_c, 0, 65, 100
2, 13290496, Note_off_c, 0, 69, 64
2, 13293568, Note_on_c, 0, 69, 100
2, 13294592, Note_off_c, 0, 76, 64
2, 13295616, Note_on_c, 0, 67, 100
2, 13296640, Note_off_c, 0, 57, 64
2, 13297664, Note_on_c, 0, 45, 100
2, 13304832, Note_on_c, 0, 76, 100
2, 13305856, Note_off_c, 0, 69, 64
2, 13306880, Note_off_c, 0, 67, 64
2, 13314048, Note_on_c, 0, 69, 100
2, 13315072, Note_on_c, 0, 74, 100
2, 13316096, Note_off_c, 0, 65, 64
2, 13323264, Note_off_c, 0, 74, 64
2, 13324288, Note_off_c, 0, 69, 64
2, 13325312, Note_on_c, 0, 65, 100
2, 13332480, Note_on_c, 0, 69, 100
2, 13333504, Note_on_c, 0, 73, 100
2, 13334528, Note_on_c, 0, 64, 100
2, 13335552, Note_on_c, 0, 57, 100
2, 13336576, Note_off_c, 0, 45, 64
2, 13343744, Note_off_c, 0, 73, 64
2, 13344768, Note_off_c, 0, 69, 64
2, 13345792, Note_off_c, 0, 64, 64
2, 13348864, Note_on_c, 0, 69, 100
2, 13351936, Note_off_c, 0, 69, 64
2, 13352960, Note_on_c, 0, 74, 100
2, 13353984, Note_off_c, 0, 65, 64
2, 13355008, Note_off_c, 0, 57, 64
2, 13356032, Note_on_c, 0, 62, 100
2, 13357056, Note_off_c, 0, 50, 64
2, 13364224, Note_off_c, 0, 74, 64
2, 13365248, Note_on_c, 0, 69, 100
2, 13366272, Note_on_c, 0, 65, 100
2, 13373440, Note_off_c, 0, 69, 64
2, 13374464, Note_off_c, 0, 76, 64
2, 13375488, Note_on_c, 0, 64, 100
2, 13382656, Note_on_c, 0, 76, 100
2, 13383680, Note_on_c, 0, 69, 100
2, 13384704, Note_off_c, 0, 64, 64
2, 13391872, Note_off_c, 0, 69, 64
2, 13392896, Note_off_c, 0, 77, 64
2, 13393920, Note_off_c, 0, 62, 64
2, 13394944, Note_on_c, 0, 57, 100
2, 13395968, Note_on_c, 0, 50, 100
2, 13403136, Note_on_c, 0, 77, 100
2, 13404160, Note_on_c, 0, 69, 100
2, 13405184, Note_on_c, 0, 62, 100
2, 13408256, Note_off_c, 0, 69, 64
2, 13411328, Note_on_c, 0, 69, 100
2, 13412352, Note_off_c, 0, 76, 64
2, 13413376, Note_on_c, 0, 61, 100
2, 13414400, Note_off_c, 0, 57, 64
2, 13415424, Note_on_c, 0, 45, 100
2, 13422592, Note_off_c, 0, 61, 64
2, 13423616, Note_on_c, 0, 57, 100
2, 13426688, Note_on_c, 0, 76, 100
2, 13429760, Note_off_c, 0, 69, 64
2, 13430784, Note_off_c, 0, 57, 64
2, 13431808, Note_on_c, 0, 61, 100
2, 13438976, Note_off_c, 0, 61, 64
2, 13440000, Note_on_c, 0, 64, 100
2, 13443072, Note_on_c, 0, 69, 100
2, 13446144, Note_off_c, 0, 64, 64
2, 13447168, Note_off_c, 0, 69, 64
2, 13448192, Note_on_c, 0, 57, 100
2, 13449216, Note_off_c, 0, 45, 64
2, 13456384, Note_on_c, 0, 69, 100
2, 13457408, Note_on_c, 0, 67, 100
2, 13464576, Note_off_c, 0, 67, 64
2, 13465600, Note_off_c, 0, 65, 64
2, 13466624, Note_off_c, 0, 50, 64
2, 13473792, Note_off_c, 0, 62, 64
2, 13480960, Note_on_c, 0, 62, 100
2, 13481984, Note_on_c, 0, 65, 100
2, 13489152, Note_off_c, 0, 65, 64
2, 13490176, Note_off_c, 0, 69, 64
2, 13497344, Note_on_c, 0, 69, 100
2, 13498368, Note_on_c, 0, 74, 100
2, 13499392, Note_on_c, 0, 50, 100
2, 13506560, Note_off_c, 0, 74, 64
2, 13507584, Note_off_c, 0, 72, 64
2, 13514752, Note_on_c, 0, 72, 100
2, 13515776, Note_on_c, 0, 70, 100
2, 13516800, Note_on_c, 0, 55, 100
2, 13523968, Note_on_c, 0, 65, 100
2, 13524992, Note_off_c, 0, 55, 64
2, 13532160, Note_on_c, 0, 55, 100
2, 13533184, Note_on_c, 0, 58, 100
2, 13540352, Note_off_c, 0, 58, 64
2, 13541376, Note_off_c, 0, 62, 64
2, 13548544, Note_on_c, 0, 62, 100
2, 13549568, Note_on_c, 0, 67, 100
2, 13550592, Note_off_c, 0, 55, 64
2, 13557760, Note_off_c, 0, 67, 64
2, 13558784, Note_off_c, 0, 65, 64
2, 13565952, Note_on_c, 0, 65, 100
2, 13566976, Note_on_c, 0, 64, 100
2, 13568000, Note_off_c, 0, 48, 64
2, 13575168, Note_off_c, 0, 70, 64
2, 13576192, Note_on_c, 0, 60, 100
2, 13583360, Note_off_c, 0, 60, 64
2, 13584384, Note_off_c, 0, 64, 64
2, 13591552, Note_on_c, 0, 64, 100
2, 13592576, Note_on_c, 0, 67, 100
2, 13599744, Note_off_c, 0, 67, 64
2, 13600768, Note_off_c, 0, 72, 64
2, 13601792, Note_on_c, 0, 48, 100
2, 13608960, Note_on_c, 0, 72, 100
2, 13609984, Note_on_c, 0, 70, 100
2, 13617152, Note_off_c, 0, 70, 64
2, 13618176, Note_off_c, 0, 69, 64
2, 13619200, Note_off_c, 0, 53, 64
2, 13626368, Note_off_c, 0, 64, 64
2, 13627392, Note_on_c, 0, 53, 100
2, 13634560, Note_off_c, 0, 53, 64
2, 13635584, Note_off_c, 0, 57, 64
2, 13642752, Note_on_c, 0, 57, 100
2, 13643776, Note_on_c, 0, 60, 100
2, 13650944, Note_off_c, 0, 60, 64
2, 13651968, Note_off_c, 0, 65, 64
2, 13652992, Note_on_c, 0, 53, 100
2, 13660160, Note_on_c, 0, 65, 100
2, 13661184, Note_on_c, 0, 64, 100
2, 13668352, Note_off_c, 0, 64, 64
2, 13669376, Note_off_c, 0, 62, 64
2, 13670400, Note_on_c, 0, 58, 100
2, 13677568, Note_on_c, 0, 69, 100
2, 13678592, Note_off_c, 0, 58, 64
2, 13685760, Note_on_c, 0, 58, 100
2, 13686784, Note_on_c, 0, 62, 100
2, 13693952, Note_off_c, 0, 62, 64
2, 13694976, Note_off_c, 0, 65, 64
2, 13702144, Note_on_c, 0, 65, 100
2, 13703168, Note_on_c, 0, 70, 100
2, 13704192, Note_off_c, 0, 58, 64
2, 13711360, Note_off_c, 0, 70, 64
2, 13712384, Note_off_c, 0, 69, 64
2, 13719552, Note_on_c, 0, 69, 100
2, 13720576, Note_on_c, 0, 67, 100
2, 13721600, Note_off_c, 0, 52, 64
2, 13728768, Note_on_c, 0, 62, 100
2, 13729792, Note_on_c, 0, 52, 100
2, 13736960, Note_off_c, 0, 52, 64
2, 13737984, Note_on_c, 0, 55, 100
2, 13745152, Note_off_c, 0, 55, 64
2, 13746176, Note_on_c, 0, 59, 100
2, 13753344, Note_off_c, 0, 59, 64
2, 13754368, Note_on_c, 0, 64, 100
2, 13755392, Note_on_c, 0, 52, 100
2, 13762560, Note_off_c, 0, 64, 64
2, 13763584, Note_off_c, 0, 62, 64
2, 13770752, Note_on_c, 0, 62, 100
2, 13771776, Note_on_c, 0, 61, 100
2, 13772800, Note_off_c, 0, 57, 64
2, 13779968, Note_off_c, 0, 67, 64
2, 13780992, Note_on_c, 0, 57, 100
2, 13788160, Note_off_c, 0, 57, 64
2, 13789184, Note_off_c, 0, 61, 64
2, 13796352, Note_on_c, 0, 61, 100
2, 13797376, Note_on_c, 0, 64, 100
2, 13804544, Note_off_c, 0, 64, 64
2, 13805568, Note_off_c, 0, 69, 64
2, 13806592, Note_on_c, 0, 57, 100
2, 13813760, Note_on_c, 0, 69, 100
2, 13814784, Note_on_c, 0, 67, 100
2, 13821952, Note_off_c, 0, 67, 64
2, 13822976, Note_off_c, 0, 65, 64
2, 13824000, Note_off_c, 0, 61, 64
2, 13825024, Note_off_c, 0, 50, 64
2, 13832192, Note_off_c, 0, 62, 64
2, 13839360, Note_on_c, 0, 62, 100
2, 13840384, Note_on_c, 0, 64, 100
2, 13847552, Note_off_c, 0, 64, 64
2, 13848576, Note_on_c, 0, 65, 100
2, 13855744, Note_off_c, 0, 65, 64
2, 13856768, Note_on_c, 0, 67, 100
2, 13857792, Note_on_c, 0, 50, 100
2, 13864960, Note_off_c, 0, 67, 64
2, 13865984, Note_off_c, 0, 69, 64
2, 13873152, Note_on_c, 0, 69, 100
2, 13874176, Note_on_c, 0, 70, 100
2, 13875200, Note_on_c, 0, 55, 100
2, 13882368, Note_on_c, 0, 65, 100
2, 13883392, Note_on_c, 0, 64, 100
2, 13890560, Note_off_c, 0, 64, 64
2, 13891584, Note_off_c, 0, 62, 64
2, 13898752, Note_on_c, 0, 62, 100
2, 13899776, Note_on_c, 0, 60, 100
2, 13906944, Note_off_c, 0, 60, 64
2, 13907968, Note_on_c, 0, 58, 100
2, 13908992, Note_off_c, 0, 55, 64
2, 13916160, Note_off_c, 0, 58, 64
2, 13917184, Note_off_c, 0, 57, 64
2, 13924352, Note_on_c, 0, 57, 100
2, 13925376, Note_on_c, 0, 67, 100
2, 13926400, Note_off_c, 0, 52, 64
2, 13933568, Note_off_c, 0, 70, 64
2, 13934592, Note_on_c, 0, 64, 100
2, 13941760, Note_off_c, 0, 64, 64
2, 13942784, Note_off_c, 0, 65, 64
2, 13949952, Note_on_c, 0, 65, 100
2, 13950976, Note_off_c, 0, 67, 64
2, 13958144, Note_on_c, 0, 67, 100
2, 13959168, Note_off_c, 0, 69, 64
2, 13960192, Note_on_c, 0, 52, 100
2, 13967360, Note_on_c, 0, 69, 100
2, 13968384, Note_on_c, 0, 71, 100
2, 13975552, Note_off_c, 0, 71, 64
2, 13976576, Note_off_c, 0, 72, 64
2, 13977600, Note_off_c, 0, 57, 64
2, 13984768, Note_off_c, 0, 67, 64
2, 13985792, Note_off_c, 0, 65, 64
2, 13992960, Note_on_c, 0, 65, 100
2, 13993984, Note_on_c, 0, 64, 100
2, 14001152, Note_off_c, 0, 64, 64
2, 14002176, Note_off_c, 0, 62, 64
2, 14009344, Note_on_c, 0, 62, 100
2, 14010368, Note_on_c, 0, 60, 100
2, 14011392, Note_on_c, 0, 57, 100
2, 14018560, Note_off_c, 0, 60, 64
2, 14019584, Note_on_c, 0, 58, 100
2, 14026752, Note_off_c, 0, 58, 64
2, 14027776, Note_off_c, 0, 69, 64
2, 14028800, Note_off_c, 0, 53, 64
2, 14035968, Note_on_c, 0, 72, 100
2, 14036992, Note_off_c, 0, 65, 64
2, 14044160, Note_on_c, 0, 65, 100
2, 14045184, Note_on_c, 0, 67, 100
2, 14052352, Note_off_c, 0, 67, 64
2, 14053376, Note_on_c, 0, 69, 100
2, 14060544, Note_off_c, 0, 69, 64
2, 14061568, Note_on_c, 0, 71, 100
2, 14062592, Note_on_c, 0, 53, 100
2, 14069760, Note_off_c, 0, 71, 64
2, 14070784, Note_on_c, 0, 73, 100
2, 14077952, Note_off_c, 0, 73, 64
2, 14078976, Note_on_c, 0, 74, 100
2, 14080000, Note_on_c, 0, 58, 100
2, 14087168, Note_on_c, 0, 69, 100
2, 14088192, Note_on_c, 0, 67, 100
2, 14095360, Note_off_c, 0, 67, 64
2, 14096384, Note_off_c, 0, 65, 64
2, 14103552, Note_on_c, 0, 65, 100
2, 14104576, Note_on_c, 0, 64, 100
2, 14105600, Note_off_c, 0, 74, 64
2, 14112768, Note_off_c, 0, 64, 64
2, 14113792, Note_off_c, 0, 62, 64
2, 14114816, Note_off_c, 0, 65, 64
2, 14115840, Note_on_c, 0, 67, 100
2, 14116864, Note_off_c, 0, 58, 64
2, 14124032, Note_on_c, 0, 62, 100
2, 14125056, Note_on_c, 0, 61, 100
2, 14126080, Note_off_c, 0, 67, 64
2, 14127104, Note_off_c, 0, 69, 64
2, 14134272, Note_off_c, 0, 61, 64
2, 14135296, Note_off_c, 0, 62, 64
2, 14136320, Note_on_c, 0, 69, 100
2, 14137344, Note_on_c, 0, 70, 100
2, 14138368, Note_on_c, 0, 55, 100
2, 14145536, Note_on_c, 0, 62, 100
2, 14146560, Note_on_c, 0, 60, 100
2, 14147584, Note_off_c, 0, 70, 64
2, 14148608, Note_off_c, 0, 69, 64
2, 14155776, Note_off_c, 0, 60, 64
2, 14156800, Note_on_c, 0, 58, 100
2, 14157824, Note_on_c, 0, 69, 100
2, 14158848, Note_on_c, 0, 67, 100
2, 14166016, Note_off_c, 0, 58, 64
2, 14167040, Note_off_c, 0, 57, 64
2, 14168064, Note_off_c, 0, 67, 64
2, 14169088, Note_on_c, 0, 65, 100
2, 14176256, Note_on_c, 0, 57, 100
2, 14177280, Note_off_c, 0, 55, 64
2, 14178304, Note_off_c, 0, 65, 64
2, 14179328, Note_on_c, 0, 64, 100
2, 14186496, Note_on_c, 0, 55, 100
2, 14187520, Note_off_c, 0, 53, 64
2, 14188544, Note_off_c, 0, 64, 64
2, 14189568, Note_off_c, 0, 62, 64
2, 14196736, Note_on_c, 0, 53, 100
2, 14197760, Note_off_c, 0, 52, 64
2, 14198784, Note_on_c, 0, 62, 100
2, 14199808, Note_on_c, 0, 61, 100
2, 14200832, Note_off_c, 0, 57, 64
2, 14208000, Note_on_c, 0, 52, 100
2, 14209024, Note_off_c, 0, 50, 64
2, 14210048, Note_off_c, 0, 61, 64
2, 14211072, Note_on_c, 0, 59, 100
2, 14218240, Note_on_c, 0, 50, 100
2, 14219264, Note_off_c, 0, 52, 64
2, 14220288, Note_off_c, 0, 59, 64
2, 14221312, Note_on_c, 0, 61, 100
2, 14228480, Note_on_c, 0, 52, 100
2, 14229504, Note_off_c, 0, 53, 64
2, 14230528, Note_off_c, 0, 61, 64
2, 14231552, Note_off_c, 0, 62, 64
2, 14238720, Note_on_c, 0, 53, 100
2, 14239744, Note_off_c, 0, 52, 64
2, 14240768, Note_on_c, 0, 62, 100
2, 14241792, Note_on_c, 0, 61, 100
2, 14242816, Note_on_c, 0, 57, 100
2, 14249984, Note_on_c, 0, 52, 100
2, 14251008, Note_off_c, 0, 53, 64
2, 14252032, Note_off_c, 0, 61, 64
2, 14253056, Note_off_c, 0, 62, 64
2, 14260224, Note_on_c, 0, 53, 100
2, 14261248, Note_off_c, 0, 55, 64
2, 14262272, Note_on_c, 0, 62, 100
2, 14263296, Note_on_c, 0, 64, 100
2, 14264320, Note_on_c, 0, 45, 100
2, 14271488, Note_on_c, 0, 55, 100
2, 14272512, Note_off_c, 0, 53, 64
2, 14273536, Note_off_c, 0, 64, 64
2, 14274560, Note_off_c, 0, 62, 64
2, 14281728, Note_on_c, 0, 53, 100
2, 14282752, Note_off_c, 0, 55, 64
2, 14283776, Note_on_c, 0, 62, 100
2, 14284800, Note_on_c, 0, 64, 100
2, 14291968, Note_on_c, 0, 55, 100
2, 14292992, Note_off_c, 0, 57, 64
2, 14294016, Note_off_c, 0, 64, 64
2, 14295040, Note_on_c, 0, 65, 100
2, 14302208, Note_on_c, 0, 57, 100
2, 14303232, Note_off_c, 0, 55, 64
2, 14304256, Note_off_c, 0, 65, 64
2, 14305280, Note_on_c, 0, 64, 100
2, 14306304, Note_off_c, 0, 45, 64
2, 14313472, Note_on_c, 0, 55, 100
2, 14314496, Note_off_c, 0, 57, 64
2, 14315520, Note_off_c, 0, 64, 64
2, 14316544, Note_on_c, 0, 65, 100
2, 14323712, Note_on_c, 0, 57, 100
2, 14324736, Note_off_c, 0, 53, 64
2, 14325760, Note_off_c, 0, 65, 64
2, 14326784, Note_off_c, 0, 62, 64
2, 14327808, Note_off_c, 0, 50, 64
2, 14328832, Note_off_c, 0, 38, 64
2, 14340096, Note_on_c, 0, 53, 100
2, 14341120, Note_on_c, 0, 62, 100
2, 14344192, Note_off_c, 0, 57, 64
2, 14355456, Note_on_c, 0, 57, 100
2, 14358528, Note_on_c, 0, 58, 100
2, 14359552, Note_off_c, 0, 57, 64
2, 14360576, Note_off_c, 0, 53, 64
2, 14361600, Note_on_c, 0, 50, 100
2, 14362624, Note_on_c, 0, 38, 100
2, 14377984, Note_off_c, 0, 55, 64
2, 14379008, Note_off_c, 0, 50, 64
2, 14380032, Note_off_c, 0, 38, 64
2, 14381056, Note_on_c, 0, 26, 100
2, 14396416, Note_off_c, 0, 58, 64
2, 14397440, Note_on_c, 0, 57, 100
2, 14408704, Note_off_c, 0, 57, 64
2, 14411776, Note_off_c, 0, 62, 64
2, 14412800, Note_on_c, 0, 55, 100
2, 14413824, Note_on_c, 0, 50, 100
2, 14414848, Note_on_c, 0, 38, 100
2, 14415872, Note_off_c, 0, 26, 64
2, 14431232, Note_on_c, 0, 53, 100
2, 14432256, Note_on_c, 0, 57, 100
2, 14433280, Note_off_c, 0, 50, 64
2, 14434304, Note_off_c, 0, 38, 64
2, 14449664, Note_on_c, 0, 62, 100
2, 14450688, Note_off_c, 0, 57, 64
2, 14461952, Note_on_c, 0, 57, 100
2, 14465024, Note_on_c, 0, 58, 100
2, 14466048, Note_off_c, 0, 53, 64
2, 14467072, Note_off_c, 0, 57, 64
2, 14468096, Note_on_c, 0, 50, 100
2, 14469120, Note_on_c, 0, 38, 100
2, 14484480, Note_off_c, 0, 50, 64
2, 14485504, Note_off_c, 0, 55, 64
2, 14486528, Note_off_c, 0, 38, 64
2, 14487552, Note_on_c, 0, 26, 100
2, 14502912, Note_off_c, 0, 58, 64
2, 14503936, Note_on_c, 0, 57, 100
2, 14515200, Note_off_c, 0, 57, 64
2, 14518272, Note_off_c, 0, 62, 64
2, 14519296, Note_on_c, 0, 50, 100
2, 14520320, Note_on_c, 0, 55, 100
2, 14521344, Note_on_c, 0, 53, 100
2, 14522368, Note_on_c, 0, 38, 100
2, 14523392, Note_off_c, 0, 26, 64
2, 14534656, Note_off_c, 0, 53, 64
2, 14535680, Note_off_c, 0, 50, 64
2, 14536704, Note_off_c, 0, 38, 64
2, 14539776, Note_on_c, 0, 59, 100
2, 14540800, Note_on_c, 0, 50, 100
2, 14541824, Note_off_c, 0, 55, 64
2, 14542848, Note_on_c, 0, 43, 100
2, 14558208, Note_on_c, 0, 62, 100
2, 14559232, Note_off_c, 0, 59, 64
2, 14570496, Note_on_c, 0, 59, 100
2, 14573568, Note_on_c, 0, 67, 100
2, 14574592, Note_off_c, 0, 59, 64
2, 14575616, Note_off_c, 0, 50, 64
2, 14576640, Note_off_c, 0, 52, 64
2, 14577664, Note_on_c, 0, 55, 100
2, 14578688, Note_off_c, 0, 43, 64
2, 14579712, Note_on_c, 0, 40, 100
2, 14590976, Note_on_c, 0, 59, 100
2, 14592000, Note_on_c, 0, 52, 100
2, 14593024, Note_off_c, 0, 40, 64
2, 14596096, Note_on_c, 0, 61, 100
2, 14597120, Note_off_c, 0, 52, 64
2, 14598144, Note_on_c, 0, 57, 100
2, 14599168, Note_on_c, 0, 45, 100
2, 14614528, Note_off_c, 0, 67, 64
2, 14615552, Note_off_c, 0, 61, 64
2, 14626816, Note_on_c, 0, 61, 100
2, 14629888, Note_off_c, 0, 69, 64
2, 14630912, Note_off_c, 0, 61, 64
2, 14631936, Note_on_c, 0, 64, 100
2, 14632960, Note_on_c, 0, 52, 100
2, 14633984, Note_off_c, 0, 57, 64
2, 14635008, Note_off_c, 0, 49, 64
2, 14636032, Note_off_c, 0, 45, 64
2, 14637056, Note_on_c, 0, 37, 100
2, 14648320, Note_on_c, 0, 69, 100
2, 14649344, Note_off_c, 0, 64, 64
2, 14650368, Note_off_c, 0, 52, 64
2, 14651392, Note_on_c, 0, 49, 100
2, 14652416, Note_off_c, 0, 37, 64
2, 14655488, Note_on_c, 0, 65, 100
2, 14656512, Note_off_c, 0, 62, 64
2, 14657536, Note_on_c, 0, 57, 100
2, 14658560, Note_on_c, 0, 50, 100
2, 14659584, Note_on_c, 0, 38, 100
2, 14670848, Note_off_c, 0, 65, 64
2, 14671872, Note_on_c, 0, 62, 100
2, 14672896, Note_off_c, 0, 57, 64
2, 14673920, Note_off_c, 0, 50, 64
2, 14674944, Note_off_c, 0, 38, 64
2, 14678016, Note_off_c, 0, 62, 64
2, 14679040, Note_on_c, 0, 57, 100
2, 14680064, Note_on_c, 0, 53, 100
2, 14681088, Note_off_c, 0, 41, 64
2, 14682112, Note_on_c, 0, 29, 100
2, 14693376, Note_on_c, 0, 62, 100
2, 14694400, Note_off_c, 0, 57, 64
2, 14695424, Note_off_c, 0, 53, 64
2, 14696448, Note_on_c, 0, 41, 100
2, 14697472, Note_off_c, 0, 29, 64
2, 14700544, Note_on_c, 0, 61, 100
2, 14701568, Note_on_c, 0, 57, 100
2, 14702592, Note_on_c, 0, 52, 100
2, 14703616, Note_on_c, 0, 45, 100
2, 14704640, Note_on_c, 0, 33, 100
2, 14707712, Note_off_c, 0, 61, 64
2, 14708736, Note_off_c, 0, 62, 64
2, 14711808, Note_on_c, 0, 62, 100
2, 14712832, Note_on_c, 0, 61, 100
2, 14715904, Note_off_c, 0, 57, 64
2, 14716928, Note_off_c, 0, 52, 64
2, 14717952, Note_off_c, 0, 45, 64
2, 14718976, Note_off_c, 0, 33, 64
2, 14722048, Note_off_c, 0, 61, 64
2, 14723072, Note_off_c, 0, 62, 64
2, 14724096, Note_on_c, 0, 57, 100
2, 14725120, Note_on_c, 0, 53, 100
2, 14726144, Note_on_c, 0, 38, 100
2, 14727168, Note_on_c, 0, 26, 100
2, 14758912, Note_on_c, 0, 62, 100
2, 14759936, Note_on_c, 0, 65, 100
2, 14760960, Note_off_c, 0, 57, 64
2, 14761984, Note_off_c, 0, 53, 64
2, 14763008, Note_off_c, 0, 38, 64
2, 14764032, Note_off_c, 0, 26, 64
2, 14775296, Note_off_c, 0, 65, 64
2, 14778368, Note_on_c, 0, 70, 100
2, 14779392, Note_on_c, 0, 65, 100
2, 14780416, Note_off_c, 0, 62, 64
2, 14781440, Note_on_c, 0, 58, 100
2, 14782464, Note_on_c, 0, 46, 100
2, 14797824, Note_off_c, 0, 70, 64
2, 14798848, Note_off_c, 0, 69, 64
2, 14810112, Note_on_c, 0, 69, 100
2, 14813184, Note_on_c, 0, 70, 100
2, 14814208, Note_off_c, 0, 65, 64
2, 14815232, Note_on_c, 0, 62, 100
2, 14816256, Note_off_c, 0, 58, 64
2, 14817280, Note_off_c, 0, 46, 64
2, 14828544, Note_off_c, 0, 70, 64
2, 14831616, Note_off_c, 0, 62, 64
2, 14832640, Note_on_c, 0, 65, 100
2, 14833664, Note_on_c, 0, 58, 100
2, 14834688, Note_on_c, 0, 57, 100
2, 14835712, Note_on_c, 0, 45, 100
2, 14851072, Note_on_c, 0, 62, 100
2, 14852096, Note_off_c, 0, 65, 64
2, 14863360, Note_on_c, 0, 65, 100
2, 14866432, Note_on_c, 0, 70, 100
2, 14867456, Note_off_c, 0, 65, 64
2, 14868480, Note_off_c, 0, 58, 64
2, 14869504, Note_off_c, 0, 57, 64
2, 14870528, Note_off_c, 0, 45, 64
2, 14881792, Note_off_c, 0, 70, 64
2, 14884864, Note_on_c, 0, 70, 100
2, 14885888, Note_on_c, 0, 67, 100
2, 14886912, Note_off_c, 0, 62, 64
2, 14887936, Note_off_c, 0, 55, 64
2, 14888960, Note_on_c, 0, 43, 100
2, 14904320, Note_off_c, 0, 70, 64
2, 14905344, Note_off_c, 0, 69, 64
2, 14916608, Note_on_c, 0, 69, 100
2, 14919680, Note_on_c, 0, 70, 100
2, 14920704, Note_off_c, 0, 67, 64
2, 14921728, Note_on_c, 0, 62, 100
2, 14922752, Note_on_c, 0, 55, 100
2, 14923776, Note_off_c, 0, 43, 64
2, 14935040, Note_off_c, 0, 70, 64
2, 14938112, Note_off_c, 0, 62, 64
2, 14939136, Note_on_c, 0, 70, 100
2, 14940160, Note_on_c, 0, 65, 100
2, 14941184, Note_on_c, 0, 53, 100
2, 14942208, Note_off_c, 0, 41, 64
2, 14957568, Note_on_c, 0, 62, 100
2, 14958592, Note_off_c, 0, 65, 64
2, 14969856, Note_on_c, 0, 65, 100
2, 14972928, Note_off_c, 0, 70, 64
2, 14973952, Note_off_c, 0, 65, 64
2, 14974976, Note_off_c, 0, 53, 64
2, 14976000, Note_on_c, 0, 41, 100
2, 14987264, Note_on_c, 0, 70, 100
2, 14990336, Note_off_c, 0, 72, 64
2, 14991360, Note_off_c, 0, 70, 64
2, 14992384, Note_on_c, 0, 67, 100
2, 14993408, Note_off_c, 0, 51, 64
2, 14994432, Note_on_c, 0, 39, 100
2, 15009792, Note_on_c, 0, 72, 100
2, 15010816, Note_on_c, 0, 70, 100
2, 15022080, Note_off_c, 0, 70, 64
2, 15025152, Note_off_c, 0, 72, 64
2, 15026176, Note_on_c, 0, 70, 100
2, 15027200, Note_off_c, 0, 67, 64
2, 15028224, Note_on_c, 0, 51, 100
2, 15029248, Note_off_c, 0, 39, 64
2, 15040512, Note_on_c, 0, 72, 100
2, 15043584, Note_on_c, 0, 65, 100
2, 15044608, Note_off_c, 0, 69, 64
2, 15045632, Note_on_c, 0, 53, 100
2, 15046656, Note_off_c, 0, 41, 64
2, 15062016, Note_off_c, 0, 65, 64
2, 15063040, Note_on_c, 0, 69, 100
2, 15074304, Note_off_c, 0, 69, 64
2, 15077376, Note_off_c, 0, 72, 64
2, 15078400, Note_on_c, 0, 69, 100
2, 15079424, Note_on_c, 0, 65, 100
2, 15080448, Note_off_c, 0, 53, 64
2, 15081472, Note_on_c, 0, 41, 100
2, 15092736, Note_on_c, 0, 72, 100
2, 15095808, Note_on_c, 0, 74, 100
2, 15096832, Note_off_c, 0, 70, 64
2, 15097856, Note_off_c, 0, 65, 64
2, 15098880, Note_on_c, 0, 46, 100
2, 15099904, Note_on_c, 0, 34, 100
2, 15115264, Note_off_c, 0, 74, 64
2, 15116288, Note_off_c, 0, 72, 64
2, 15117312, Note_on_c, 0, 70, 100
2, 15118336, Note_off_c, 0, 69, 64
2, 15119360, Note_on_c, 0, 65, 100
2, 15120384, Note_off_c, 0, 63, 64
2, 15131648, Note_on_c, 0, 72, 100
2, 15132672, Note_on_c, 0, 69, 100
2, 15133696, Note_on_c, 0, 63, 100
2, 15136768, Note_on_c, 0, 74, 100
2, 15137792, Note_off_c, 0, 70, 64
2, 15138816, Note_off_c, 0, 65, 64
2, 15139840, Note_off_c, 0, 46, 64
2, 15140864, Note_on_c, 0, 53, 100
2, 15141888, Note_off_c, 0, 34, 64
2, 15142912, Note_off_c, 0, 41, 64
2, 15154176, Note_off_c, 0, 74, 64
2, 15155200, Note_on_c, 0, 70, 100
2, 15156224, Note_on_c, 0, 65, 100
2, 15157248, Note_off_c, 0, 53, 64
2, 15158272, Note_on_c, 0, 41, 100
2, 15161344, Note_off_c, 0, 70, 64
2, 15162368, Note_off_c, 0, 65, 64
2, 15163392, Note_off_c, 0, 62, 64
2, 15164416, Note_on_c, 0, 58, 100
2, 15165440, Note_on_c, 0, 46, 100
2, 15180800, Note_on_c, 0, 62, 100
2, 15181824, Note_on_c, 0, 60, 100
2, 15182848, Note_off_c, 0, 58, 64
2, 15183872, Note_on_c, 0, 57, 100
2, 15184896, Note_off_c, 0, 46, 64
2, 15185920, Note_on_c, 0, 45, 100
2, 15197184, Note_off_c, 0, 60, 64
2, 15198208, Note_off_c, 0, 57, 64
2, 15199232, Note_off_c, 0, 45, 64
2, 15202304, Note_on_c, 0, 70, 100
2, 15203328, Note_on_c, 0, 74, 100
2, 15204352, Note_on_c, 0, 65, 100
2, 15205376, Note_off_c, 0, 62, 64
2, 15206400, Note_on_c, 0, 58, 100
2, 15207424, Note_on_c, 0, 46, 100
2, 15218688, Note_off_c, 0, 65, 64
2, 15219712, Note_on_c, 0, 62, 100
2, 15220736, Note_off_c, 0, 58, 64
2, 15221760, Note_off_c, 0, 46, 64
2, 15224832, Note_on_c, 0, 67, 100
2, 15225856, Note_off_c, 0, 55, 64
2, 15226880, Note_on_c, 0, 52, 100
2, 15227904, Note_on_c, 0, 40, 100
2, 15243264, Note_off_c, 0, 74, 64
2, 15244288, Note_off_c, 0, 67, 64
2, 15255552, Note_on_c, 0, 67, 100
2, 15258624, Note_off_c, 0, 70, 64
2, 15259648, Note_off_c, 0, 67, 64
2, 15260672, Note_on_c, 0, 55, 100
2, 15261696, Note_off_c, 0, 52, 64
2, 15262720, Note_off_c, 0, 40, 64
2, 15278080, Note_on_c, 0, 67, 100
2, 15279104, Note_on_c, 0, 64, 100
2, 15280128, Note_off_c, 0, 48, 64
2, 15281152, Note_on_c, 0, 36, 100
2, 15296512, Note_on_c, 0, 70, 100
2, 15297536, Note_off_c, 0, 64, 64
2, 15308800, Note_on_c, 0, 64, 100
2, 15311872, Note_off_c, 0, 72, 64
2, 15312896, Note_off_c, 0, 67, 64
2, 15313920, Note_off_c, 0, 64, 64
2, 15314944, Note_on_c, 0, 48, 100
2, 15315968, Note_off_c, 0, 36, 64
2, 15331328, Note_on_c, 0, 65, 100
2, 15332352, Note_on_c, 0, 57, 100
2, 15333376, Note_on_c, 0, 50, 100
2, 15334400, Note_on_c, 0, 38, 100
2, 15349760, Note_on_c, 0, 72, 100
2, 15350784, Note_off_c, 0, 65, 64
2, 15362048, Note_on_c, 0, 65, 100
2, 15365120, Note_off_c, 0, 69, 64
2, 15366144, Note_off_c, 0, 65, 64
2, 15367168, Note_off_c, 0, 57, 64
2, 15368192, Note_off_c, 0, 50, 64
2, 15369216, Note_off_c, 0, 38, 64
2, 15384576, Note_on_c, 0, 65, 100
2, 15385600, Note_off_c, 0, 62, 64
2, 15386624, Note_on_c, 0, 46, 100
2, 15387648, Note_on_c, 0, 34, 100
2, 15403008, Note_on_c, 0, 69, 100
2, 15404032, Note_on_c, 0, 62, 100
2, 15415296, Note_off_c, 0, 62, 64
2, 15418368, Note_off_c, 0, 70, 64
2, 15419392, Note_off_c, 0, 65, 64
2, 15420416, Note_on_c, 0, 62, 100
2, 15421440, Note_off_c, 0, 46, 64
2, 15422464, Note_off_c, 0, 34, 64
2, 15437824, Note_on_c, 0, 64, 100
2, 15438848, Note_off_c, 0, 55, 64
2, 15439872, Note_off_c, 0, 48, 64
2, 15440896, Note_on_c, 0, 36, 100
2, 15456256, Note_on_c, 0, 70, 100
2, 15457280, Note_off_c, 0, 64, 64
2, 15468544, Note_on_c, 0, 64, 100
2, 15471616, Note_on_c, 0, 67, 100
2, 15472640, Note_off_c, 0, 64, 64
2, 15473664, Note_on_c, 0, 60, 100
2, 15474688, Note_on_c, 0, 55, 100
2, 15475712, Note_on_c, 0, 52, 100
2, 15476736, Note_on_c, 0, 48, 100
2, 15477760, Note_on_c, 0, 46, 100
2, 15478784, Note_off_c, 0, 36, 64
2, 15479808, Note_on_c, 0, 34, 100
2, 15491072, Note_off_c, 0, 60, 64
2, 15492096, Note_off_c, 0, 52, 64
2, 15493120, Note_off_c, 0, 46, 64
2, 15494144, Note_off_c, 0, 34, 64
2, 15497216, Note_on_c, 0, 60, 100
2, 15498240, Note_on_c, 0, 57, 100
2, 15499264, Note_on_c, 0, 45, 100
2, 15500288, Note_on_c, 0, 33, 100
2, 15515648, Note_off_c, 0, 67, 64
2, 15516672, Note_off_c, 0, 60, 64
2, 15527936, Note_on_c, 0, 60, 100
2, 15531008, Note_off_c, 0, 70, 64
2, 15532032, Note_off_c, 0, 60, 64
2, 15533056, Note_on_c, 0, 64, 100
2, 15534080, Note_off_c, 0, 57, 64
2, 15535104, Note_on_c, 0, 58, 100
2, 15536128, Note_off_c, 0, 45, 64
2, 15537152, Note_on_c, 0, 43, 100
2, 15538176, Note_off_c, 0, 33, 64
2, 15539200, Note_on_c, 0, 31, 100
2, 15550464, Note_on_c, 0, 70, 100
2, 15551488, Note_off_c, 0, 64, 64
2, 15552512, Note_off_c, 0, 58, 64
2, 15553536, Note_off_c, 0, 43, 64
2, 15554560, Note_off_c, 0, 31, 64
2, 15557632, Note_off_c, 0, 69, 64
2, 15558656, Note_on_c, 0, 65, 100
2, 15559680, Note_on_c, 0, 60, 100
2, 15560704, Note_off_c, 0, 41, 64
2, 15561728, Note_on_c, 0, 29, 100
2, 15577088, Note_on_c, 0, 69, 100
2, 15578112, Note_on_c, 0, 67, 100
2, 15579136, Note_off_c, 0, 65, 64
2, 15580160, Note_on_c, 0, 64, 100
2, 15581184, Note_off_c, 0, 60, 64
2, 15582208, Note_on_c, 0, 58, 100
2, 15593472, Note_off_c, 0, 67, 64
2, 15594496, Note_off_c, 0, 64, 64
2, 15595520, Note_off_c, 0, 58, 64
2, 15598592, Note_off_c, 0, 69, 64
2, 15599616, Note_on_c, 0, 65, 100
2, 15600640, Note_on_c, 0, 60, 100
2, 15601664, Note_on_c, 0, 41, 100
2, 15602688, Note_off_c, 0, 48, 64
2, 15603712, Note_on_c, 0, 36, 100
2, 15604736, Note_off_c, 0, 29, 64
2, 15616000, Note_on_c, 0, 69, 100
2, 15617024, Note_off_c, 0, 65, 64
2, 15618048, Note_off_c, 0, 60, 64
2, 15619072, Note_on_c, 0, 48, 100
2, 15620096, Note_off_c, 0, 36, 64
2, 15623168, Note_on_c, 0, 65, 100
2, 15624192, Note_on_c, 0, 60, 100
2, 15625216, Note_on_c, 0, 57, 100
2, 15626240, Note_on_c, 0, 53, 100
2, 15627264, Note_off_c, 0, 41, 64
2, 15642624, Note_off_c, 0, 65, 64
2, 15643648, Note_off_c, 0, 69, 64
2, 15644672, Note_off_c, 0, 57, 64
2, 15645696, Note_off_c, 0, 55, 64
2, 15646720, Note_off_c, 0, 53, 64
2, 15647744, Note_off_c, 0, 51, 64
2, 15648768, Note_on_c, 0, 41, 100
2, 15649792, Note_on_c, 0, 39, 100
2, 15661056, Note_on_c, 0, 69, 100
2, 15662080, Note_on_c, 0, 55, 100
2, 15663104, Note_on_c, 0, 51, 100
2, 15664128, Note_off_c, 0, 39, 64
2, 15667200, Note_off_c, 0, 72, 64
2, 15668224, Note_off_c, 0, 60, 64
2, 15669248, Note_on_c, 0, 65, 100
2, 15670272, Note_on_c, 0, 57, 100
2, 15671296, Note_on_c, 0, 53, 100
2, 15672320, Note_off_c, 0, 41, 64
2, 15683584, Note_on_c, 0, 72, 100
2, 15684608, Note_off_c, 0, 65, 64
2, 15685632, Note_off_c, 0, 57, 64
2, 15686656, Note_off_c, 0, 53, 64
2, 15687680, Note_on_c, 0, 41, 100
2, 15690752, Note_off_c, 0, 77, 64
2, 15691776, Note_on_c, 0, 65, 100
2, 15692800, Note_on_c, 0, 58, 100
2, 15693824, Note_on_c, 0, 50, 100
2, 15694848, Note_on_c, 0, 38, 100
2, 15706112, Note_on_c, 0, 77, 100
2, 15709184, Note_off_c, 0, 70, 64
2, 15720448, Note_on_c, 0, 70, 100
2, 15723520, Note_on_c, 0, 74, 100
2, 15724544, Note_off_c, 0, 65, 64
2, 15725568, Note_off_c, 0, 58, 64
2, 15726592, Note_off_c, 0, 50, 64
2, 15727616, Note_off_c, 0, 38, 64
2, 15742976, Note_on_c, 0, 65, 100
2, 15744000, Note_on_c, 0, 58, 100
2, 15745024, Note_off_c, 0, 55, 64
2, 15746048, Note_on_c, 0, 43, 100
2, 15761408, Note_off_c, 0, 74, 64
2, 15762432, Note_on_c, 0, 67, 100
2, 15773696, Note_off_c, 0, 67, 64
2, 15776768, Note_on_c, 0, 75, 100
2, 15777792, Note_off_c, 0, 65, 64
2, 15778816, Note_off_c, 0, 58, 64
2, 15779840, Note_on_c, 0, 55, 100
2, 15780864, Note_off_c, 0, 43, 64
2, 15796224, Note_off_c, 0, 63, 64
2, 15797248, Note_on_c, 0, 58, 100
2, 15798272, Note_off_c, 0, 48, 64
2, 15799296, Note_on_c, 0, 36, 100
2, 15814656, Note_off_c, 0, 75, 64
2, 15815680, Note_off_c, 0, 69, 64
2, 15826944, Note_on_c, 0, 69, 100
2, 15830016, Note_off_c, 0, 72, 64
2, 15831040, Note_on_c, 0, 63, 100
2, 15832064, Note_off_c, 0, 58, 64
2, 15833088, Note_on_c, 0, 48, 100
2, 15834112, Note_off_c, 0, 36, 64
2, 15849472, Note_on_c, 0, 65, 100
2, 15850496, Note_on_c, 0, 57, 100
2, 15851520, Note_on_c, 0, 53, 100
2, 15852544, Note_off_c, 0, 41, 64
2, 15867904, Note_on_c, 0, 72, 100
2, 15868928, Note_off_c, 0, 65, 64
2, 15880192, Note_on_c, 0, 65, 100
2, 15883264, Note_on_c, 0, 74, 100
2, 15884288, Note_off_c, 0, 65, 64
2, 15885312, Note_off_c, 0, 57, 64
2, 15886336, Note_off_c, 0, 53, 64
2, 15887360, Note_on_c, 0, 41, 100
2, 15902720, Note_on_c, 0, 65, 100
2, 15903744, Note_on_c, 0, 58, 100
2, 15904768, Note_on_c, 0, 46, 100
2, 15905792, Note_on_c, 0, 34, 100
2, 15921152, Note_off_c, 0, 74, 64
2, 15922176, Note_off_c, 0, 65, 64
2, 15923200, Note_off_c, 0, 62, 64
2, 15934464, Note_on_c, 0, 65, 100
2, 15935488, Note_on_c, 0, 62, 100
2, 15938560, Note_off_c, 0, 70, 64
2, 15939584, Note_off_c, 0, 65, 64
2, 15940608, Note_off_c, 0, 58, 64
2, 15941632, Note_off_c, 0, 62, 64
2, 15942656, Note_off_c, 0, 46, 64
2, 15943680, Note_off_c, 0, 34, 64
2, 15954944, Note_on_c, 0, 65, 100
2, 15955968, Note_on_c, 0, 62, 100
2, 15956992, Note_on_c, 0, 58, 100
2, 15958016, Note_on_c, 0, 46, 100
2, 15961088, Note_off_c, 0, 62, 64
2, 15962112, Note_on_c, 0, 53, 100
2, 15963136, Note_off_c, 0, 46, 64
2, 15964160, Note_on_c, 0, 34, 100
2, 15979520, Note_on_c, 0, 70, 100
2, 15980544, Note_on_c, 0, 62, 100
2, 15981568, Note_off_c, 0, 58, 64
2, 15992832, Note_off_c, 0, 62, 64
2, 15993856, Note_on_c, 0, 58, 100
2, 15996928, Note_off_c, 0, 65, 64
2, 15997952, Note_on_c, 0, 62, 100
2, 15998976, Note_off_c, 0, 53, 64
2, 16000000, Note_off_c, 0, 58, 64
2, 16001024, Note_on_c, 0, 46, 100
2, 16002048, Note_off_c, 0, 34, 64
2, 16013312, Note_off_c, 0, 62, 64
2, 16014336, Note_on_c, 0, 58, 100
2, 16015360, Note_off_c, 0, 46, 64
2, 16018432, Note_off_c, 0, 58, 64
2, 16019456, Note_on_c, 0, 50, 100
2, 16020480, Note_on_c, 0, 46, 100
2, 16021504, Note_on_c, 0, 34, 100
2, 16036864, Note_on_c, 0, 65, 100
2, 16037888, Note_on_c, 0, 58, 100
2, 16038912, Note_on_c, 0, 62, 100
2, 16039936, Note_off_c, 0, 50, 64
2, 16040960, Note_on_c, 0, 53, 100
2, 16052224, Note_off_c, 0, 58, 64
2, 16053248, Note_off_c, 0, 62, 64
2, 16054272, Note_off_c, 0, 53, 64
2, 16057344, Note_on_c, 0, 62, 100
2, 16058368, Note_off_c, 0, 65, 64
2, 16059392, Note_on_c, 0, 58, 100
2, 16060416, Note_off_c, 0, 46, 64
2, 16061440, Note_off_c, 0, 34, 64
2, 16072704, Note_off_c, 0, 62, 64
2, 16073728, Note_on_c, 0, 65, 100
2, 16074752, Note_off_c, 0, 58, 64
2, 16075776, Note_on_c, 0, 46, 100
2, 16078848, Note_off_c, 0, 65, 64
2, 16079872, Note_off_c, 0, 70, 64
2, 16080896, Note_on_c, 0, 62, 100
2, 16081920, Note_off_c, 0, 46, 64
2, 16082944, Note_on_c, 0, 34, 100
2, 16094208, Note_on_c, 0, 65, 100
2, 16095232, Note_on_c, 0, 70, 100
2, 16096256, Note_off_c, 0, 62, 64
2, 16099328, Note_on_c, 0, 62, 100
2, 16100352, Note_off_c, 0, 65, 64
2, 16101376, Note_on_c, 0, 58, 100
2, 16112640, Note_off_c, 0, 62, 64
2, 16113664, Note_on_c, 0, 65, 100
2, 16114688, Note_off_c, 0, 58, 64
2, 16117760, Note_off_c, 0, 65, 64
2, 16118784, Note_off_c, 0, 70, 64
2, 16119808, Note_on_c, 0, 62, 100
2, 16120832, Note_on_c, 0, 46, 100
2, 16121856, Note_on_c, 0, 58, 100
2, 16122880, Note_off_c, 0, 34, 64
2, 16134144, Note_on_c, 0, 65, 100
2, 16135168, Note_on_c, 0, 70, 100
2, 16136192, Note_off_c, 0, 62, 64
2, 16137216, Note_off_c, 0, 58, 64
2, 16138240, Note_off_c, 0, 46, 64
2, 16141312, Note_off_c, 0, 70, 64
2, 16142336, Note_on_c, 0, 62, 100
2, 16143360, Note_off_c, 0, 65, 64
2, 16144384, Note_on_c, 0, 46, 100
2, 16145408, Note_on_c, 0, 34, 100
2, 16156672, Note_on_c, 0, 70, 100
2, 16159744, Note_on_c, 0, 65, 100
2, 16171008, Note_off_c, 0, 65, 64
2, 16174080, Note_on_c, 0, 67, 100
2, 16175104, Note_off_c, 0, 62, 64
2, 16176128, Note_on_c, 0, 65, 100
2, 16177152, Note_off_c, 0, 46, 64
2, 16178176, Note_off_c, 0, 34, 64
2, 16193536, Note_off_c, 0, 63, 64
2, 16194560, Note_on_c, 0, 58, 100
2, 16195584, Note_on_c, 0, 46, 100
2, 16210944, Note_off_c, 0, 67, 64
2, 16211968, Note_off_c, 0, 65, 64
2, 16223232, Note_on_c, 0, 65, 100
2, 16226304, Note_off_c, 0, 70, 64
2, 16227328, Note_on_c, 0, 63, 100
2, 16228352, Note_off_c, 0, 58, 64
2, 16229376, Note_off_c, 0, 46, 64
2, 16244736, Note_on_c, 0, 62, 100
2, 16245760, Note_on_c, 0, 53, 100
2, 16246784, Note_on_c, 0, 46, 100
2, 16247808, Note_on_c, 0, 34, 100
2, 16263168, Note_on_c, 0, 70, 100
2, 16264192, Note_off_c, 0, 65, 64
2, 16275456, Note_on_c, 0, 65, 100
2, 16278528, Note_on_c, 0, 67, 100
2, 16279552, Note_off_c, 0, 62, 64
2, 16280576, Note_off_c, 0, 53, 64
2, 16281600, Note_off_c, 0, 46, 64
2, 16282624, Note_off_c, 0, 34, 64
2, 16297984, Note_off_c, 0, 63, 64
2, 16299008, Note_on_c, 0, 58, 100
2, 16300032, Note_on_c, 0, 46, 100
2, 16315392, Note_off_c, 0, 67, 64
2, 16316416, Note_off_c, 0, 65, 64
2, 16327680, Note_on_c, 0, 65, 100
2, 16330752, Note_off_c, 0, 70, 64
2, 16331776, Note_on_c, 0, 63, 100
2, 16332800, Note_on_c, 0, 62, 100
2, 16333824, Note_off_c, 0, 58, 64
2, 16334848, Note_on_c, 0, 53, 100
2, 16335872, Note_off_c, 0, 46, 64
2, 16336896, Note_on_c, 0, 34, 100
2, 16348160, Note_off_c, 0, 62, 64
2, 16349184, Note_off_c, 0, 53, 64
2, 16350208, Note_on_c, 0, 46, 100
2, 16351232, Note_off_c, 0, 34, 64
2, 16354304, Note_off_c, 0, 63, 64
2, 16355328, Note_off_c, 0, 55, 64
2, 16356352, Note_off_c, 0, 51, 64
2, 16357376, Note_on_c, 0, 39, 100
2, 16372736, Note_on_c, 0, 70, 100
2, 16373760, Note_on_c, 0, 67, 100
2, 16385024, Note_off_c, 0, 67, 64
2, 16388096, Note_on_c, 0, 75, 100
2, 16389120, Note_on_c, 0, 63, 100
2, 16390144, Note_on_c, 0, 67, 100
2, 16391168, Note_on_c, 0, 55, 100
2, 16392192, Note_on_c, 0, 60, 100
2, 16393216, Note_on_c, 0, 51, 100
2, 16394240, Note_off_c, 0, 48, 64
2, 16395264, Note_off_c, 0, 39, 64
2, 16396288, Note_on_c, 0, 36, 100
2, 16407552, Note_off_c, 0, 67, 64
2, 16408576, Note_off_c, 0, 60, 64
2, 16409600, Note_on_c, 0, 48, 100
2, 16410624, Note_off_c, 0, 36, 64
2, 16413696, Note_off_c, 0, 65, 64
2, 16414720, Note_on_c, 0, 57, 100
2, 16415744, Note_on_c, 0, 53, 100
2, 16416768, Note_off_c, 0, 41, 64
2, 16432128, Note_off_c, 0, 75, 64
2, 16433152, Note_off_c, 0, 69, 64
2, 16444416, Note_on_c, 0, 69, 100
2, 16447488, Note_off_c, 0, 77, 64
2, 16448512, Note_on_c, 0, 65, 100
2, 16449536, Note_off_c, 0, 72, 64
2, 16450560, Note_off_c, 0, 57, 64
2, 16451584, Note_off_c, 0, 53, 64
2, 16452608, Note_on_c, 0, 45, 100
2, 16453632, Note_on_c, 0, 41, 100
2, 16454656, Note_on_c, 0, 33, 100
2, 16465920, Note_on_c, 0, 72, 100
2, 16466944, Note_on_c, 0, 53, 100
2, 16467968, Note_off_c, 0, 45, 64
2, 16468992, Note_off_c, 0, 33, 64
2, 16472064, Note_on_c, 0, 77, 100
2, 16473088, Note_on_c, 0, 74, 100
2, 16474112, Note_off_c, 0, 70, 64
2, 16475136, Note_off_c, 0, 65, 64
2, 16476160, Note_off_c, 0, 46, 64
2, 16477184, Note_on_c, 0, 34, 100
2, 16488448, Note_off_c, 0, 74, 64
2, 16489472, Note_on_c, 0, 70, 100
2, 16490496, Note_on_c, 0, 65, 100
2, 16491520, Note_on_c, 0, 46, 100
2, 16492544, Note_off_c, 0, 34, 64
2, 16495616, Note_off_c, 0, 70, 64
2, 16496640, Note_off_c, 0, 65, 64
2, 16497664, Note_on_c, 0, 62, 100
2, 16498688, Note_on_c, 0, 50, 100
2, 16499712, Note_on_c, 0, 38, 100
2, 16510976, Note_on_c, 0, 70, 100
2, 16512000, Note_on_c, 0, 65, 100
2, 16513024, Note_off_c, 0, 62, 64
2, 16514048, Note_off_c, 0, 50, 64
2, 16515072, Note_off_c, 0, 38, 64
2, 16518144, Note_off_c, 0, 69, 64
2, 16519168, Note_off_c, 0, 65, 64
2, 16520192, Note_on_c, 0, 60, 100
2, 16521216, Note_off_c, 0, 53, 64
2, 16522240, Note_off_c, 0, 41, 64
2, 16533504, Note_on_c, 0, 69, 100
2, 16534528, Note_on_c, 0, 65, 100
2, 16535552, Note_off_c, 0, 60, 64
2, 16536576, Note_on_c, 0, 53, 100
2, 16537600, Note_on_c, 0, 41, 100
2, 16540672, Note_off_c, 0, 70, 64
2, 16541696, Note_off_c, 0, 65, 64
2, 16542720, Note_on_c, 0, 62, 100
2, 16543744, Note_on_c, 0, 58, 100
2, 16544768, Note_off_c, 0, 46, 64
2, 16556032, Note_off_c, 0, 58, 64
2, 16557056, Note_on_c, 0, 46, 100
2, 16560128, Note_on_c, 0, 50, 100
2, 16561152, Note_on_c, 0, 38, 100
2, 16568320, Note_on_c, 0, 70, 100
2, 16569344, Note_on_c, 0, 65, 100
2, 16572416, Note_off_c, 0, 50, 64
2, 16573440, Note_off_c, 0, 38, 64
2, 16576512, Note_off_c, 0, 65, 64
2, 16577536, Note_on_c, 0, 67, 100
2, 16578560, Note_off_c, 0, 70, 64
2, 16579584, Note_off_c, 0, 62, 64
2, 16580608, Note_off_c, 0, 53, 64
2, 16581632, Note_off_c, 0, 41, 64
2, 16588800, Note_off_c, 0, 67, 64
2, 16589824, Note_off_c, 0, 69, 64
2, 16592896, Note_on_c, 0, 53, 100
2, 16593920, Note_on_c, 0, 41, 100
2, 16596992, Note_on_c, 0, 69, 100
2, 16598016, Note_on_c, 0, 70, 100
2, 16599040, Note_off_c, 0, 46, 64
2, 16600064, Note_on_c, 0, 34, 100
2, 16607232, Note_off_c, 0, 70, 64
2, 16608256, Note_off_c, 0, 69, 64
2, 16615424, Note_on_c, 0, 69, 100
2, 16616448, Note_on_c, 0, 70, 100
2, 16617472, Note_on_c, 0, 46, 100
2, 16618496, Note_on_c, 0, 50, 100
2, 16625664, Note_on_c, 0, 65, 100
2, 16628736, Note_off_c, 0, 70, 64
2, 16629760, Note_off_c, 0, 50, 64
2, 16632832, Note_off_c, 0, 65, 64
2, 16633856, Note_on_c, 0, 67, 100
2, 16634880, Note_off_c, 0, 53, 64
2, 16635904, Note_off_c, 0, 34, 64
2, 16636928, Note_off_c, 0, 46, 64
2, 16644096, Note_off_c, 0, 67, 64
2, 16645120, Note_off_c, 0, 69, 64
2, 16648192, Note_on_c, 0, 53, 100
2, 16651264, Note_on_c, 0, 69, 100
2, 16652288, Note_on_c, 0, 70, 100
2, 16653312, Note_on_c, 0, 45, 100
2, 16660480, Note_off_c, 0, 70, 64
2, 16661504, Note_off_c, 0, 69, 64
2, 16668672, Note_on_c, 0, 69, 100
2, 16669696, Note_on_c, 0, 70, 100
2, 16670720, Note_off_c, 0, 45, 64
2, 16671744, Note_on_c, 0, 50, 100
2, 16678912, Note_on_c, 0, 65, 100
2, 16681984, Note_off_c, 0, 70, 64
2, 16683008, Note_off_c, 0, 50, 64
2, 16686080, Note_off_c, 0, 65, 64
2, 16687104, Note_on_c, 0, 67, 100
2, 16688128, Note_off_c, 0, 53, 64
2, 16695296, Note_off_c, 0, 67, 64
2, 16696320, Note_off_c, 0, 69, 64
2, 16699392, Note_on_c, 0, 53, 100
2, 16702464, Note_on_c, 0, 69, 100
2, 16703488, Note_on_c, 0, 70, 100
2, 16704512, Note_on_c, 0, 43, 100
2, 16711680, Note_off_c, 0, 70, 64
2, 16712704, Note_off_c, 0, 69, 64
2, 16719872, Note_on_c, 0, 69, 100
2, 16720896, Note_on_c, 0, 70, 100
2, 16721920, Note_off_c, 0, 43, 64
2, 16722944, Note_on_c, 0, 46, 100
2, 16730112, Note_on_c, 0, 65, 100
2, 16733184, Note_off_c, 0, 70, 64
2, 16734208, Note_off_c, 0, 46, 64
2, 16737280, Note_off_c, 0, 65, 64
2, 16738304, Note_on_c, 0, 67, 100
2, 16739328, Note_on_c, 0, 50, 100
2, 16746496, Note_off_c, 0, 67, 64
2, 16747520, Note_off_c, 0, 69, 64
2, 16750592, Note_off_c, 0, 50, 64
2, 16753664, Note_on_c, 0, 69, 100
2, 16754688, Note_on_c, 0, 70, 100
2, 16755712, Note_off_c, 0, 41, 64
2, 16762880, Note_off_c, 0, 70, 64
2, 16763904, Note_off_c, 0, 69, 64
2, 16771072, Note_on_c, 0, 69, 100
2, 16772096, Note_on_c, 0, 70, 100
2, 16773120, Note_on_c, 0, 41, 100
2, 16774144, Note_on_c, 0, 46, 100
2, 16781312, Note_on_c, 0, 67, 100
2, 16784384, Note_off_c, 0, 70, 64
2, 16785408, Note_off_c, 0, 46, 64
2, 16788480, Note_off_c, 0, 67, 64
2, 16789504, Note_off_c, 0, 69, 64
2, 16790528, Note_on_c, 0, 50, 100
2, 16797696, Note_on_c, 0, 69, 100
2, 16798720, Note_on_c, 0, 70, 100
2, 16801792, Note_off_c, 0, 50, 64
2, 16804864, Note_off_c, 0, 70, 64
2, 16805888, Note_off_c, 0, 72, 64
2, 16806912, Note_on_c, 0, 39, 100
2, 16814080, Note_on_c, 0, 72, 100
2, 16815104, Note_on_c, 0, 70, 100
2, 16822272, Note_off_c, 0, 70, 64
2, 16823296, Note_off_c, 0, 72, 64
2, 16824320, Note_off_c, 0, 39, 64
2, 16825344, Note_on_c, 0, 43, 100
2, 16832512, Note_on_c, 0, 72, 100
2, 16833536, Note_on_c, 0, 70, 100
2, 16834560, Note_on_c, 0, 67, 100
2, 16837632, Note_off_c, 0, 43, 64
2, 16840704, Note_off_c, 0, 70, 64
2, 16841728, Note_off_c, 0, 69, 64
2, 16842752, Note_off_c, 0, 67, 64
2, 16843776, Note_off_c, 0, 48, 64
2, 16850944, Note_on_c, 0, 69, 100
2, 16851968, Note_on_c, 0, 67, 100
2, 16852992, Note_on_c, 0, 70, 100
2, 16856064, Note_on_c, 0, 48, 100
2, 16859136, Note_off_c, 0, 67, 64
2, 16860160, Note_on_c, 0, 65, 100
2, 16861184, Note_off_c, 0, 70, 64
2, 16862208, Note_off_c, 0, 72, 64
2, 16863232, Note_on_c, 0, 45, 100
2, 16870400, Note_on_c, 0, 72, 100
2, 16871424, Note_on_c, 0, 70, 100
2, 16874496, Note_off_c, 0, 65, 64
2, 16877568, Note_off_c, 0, 69, 64
2, 16878592, Note_off_c, 0, 70, 64
2, 16879616, Note_off_c, 0, 72, 64
2, 16880640, Note_off_c, 0, 45, 64
2, 16881664, Note_off_c, 0, 48, 64
2, 16888832, Note_on_c, 0, 72, 100
2, 16889856, Note_on_c, 0, 70, 100
2, 16892928, Note_on_c, 0, 69, 100
2, 16893952, Note_on_c, 0, 48, 100
2, 16897024, Note_off_c, 0, 72, 64
2, 16898048, Note_off_c, 0, 70, 64
2, 16899072, Note_off_c, 0, 69, 64
2, 16900096, Note_off_c, 0, 41, 64
2, 16907264, Note_on_c, 0, 69, 100
2, 16908288, Note_on_c, 0, 67, 100
2, 16911360, Note_on_c, 0, 72, 100
2, 16912384, Note_on_c, 0, 41, 100
2, 16915456, Note_on_c, 0, 74, 100
2, 16916480, Note_off_c, 0, 67, 64
2, 16917504, Note_on_c, 0, 65, 100
2, 16918528, Note_on_c, 0, 46, 100
2, 16925696, Note_off_c, 0, 74, 64
2, 16926720, Note_off_c, 0, 72, 64
2, 16927744, Note_off_c, 0, 65, 64
2, 16928768, Note_off_c, 0, 63, 64
2, 16935936, Note_on_c, 0, 72, 100
2, 16936960, Note_on_c, 0, 74, 100
2, 16937984, Note_on_c, 0, 63, 100
2, 16939008, Note_on_c, 0, 65, 100
2, 16940032, Note_off_c, 0, 46, 64
2, 16941056, Note_on_c, 0, 50, 100
2, 16948224, Note_off_c, 0, 74, 64
2, 16949248, Note_on_c, 0, 75, 100
2, 16950272, Note_off_c, 0, 65, 64
2, 16951296, Note_on_c, 0, 67, 100
2, 16954368, Note_off_c, 0, 50, 64
2, 16957440, Note_off_c, 0, 75, 64
2, 16958464, Note_on_c, 0, 74, 100
2, 16959488, Note_off_c, 0, 67, 64
2, 16960512, Note_on_c, 0, 65, 100
2, 16961536, Note_off_c, 0, 53, 64
2, 16968704, Note_off_c, 0, 74, 64
2, 16969728, Note_off_c, 0, 72, 64
2, 16970752, Note_off_c, 0, 65, 64
2, 16971776, Note_off_c, 0, 63, 64
2, 16974848, Note_on_c, 0, 53, 100
2, 16977920, Note_on_c, 0, 72, 100
2, 16978944, Note_on_c, 0, 70, 100
2, 16979968, Note_on_c, 0, 63, 100
2, 16980992, Note_on_c, 0, 62, 100
2, 16982016, Note_on_c, 0, 58, 100
2, 16989184, Note_off_c, 0, 62, 64
2, 16990208, Note_on_c, 0, 60, 100
2, 16993280, Note_off_c, 0, 70, 64
2, 16996352, Note_on_c, 0, 65, 100
2, 16997376, Note_off_c, 0, 60, 64
2, 16998400, Note_on_c, 0, 62, 100
2, 16999424, Note_off_c, 0, 58, 64
2, 17000448, Note_on_c, 0, 57, 100
2, 17007616, Note_off_c, 0, 62, 64
2, 17008640, Note_off_c, 0, 63, 64
2, 17011712, Note_off_c, 0, 65, 64
2, 17012736, Note_off_c, 0, 57, 64
2, 17015808, Note_on_c, 0, 74, 100
2, 17016832, Note_on_c, 0, 63, 100
2, 17017856, Note_on_c, 0, 65, 100
2, 17018880, Note_on_c, 0, 58, 100
2, 17026048, Note_off_c, 0, 65, 64
2, 17027072, Note_on_c, 0, 62, 100
2, 17030144, Note_off_c, 0, 58, 64
2, 17033216, Note_off_c, 0, 62, 64
2, 17034240, Note_on_c, 0, 67, 100
2, 17035264, Note_on_c, 0, 52, 100
2, 17042432, Note_off_c, 0, 67, 64
2, 17043456, Note_off_c, 0, 69, 64
2, 17046528, Note_off_c, 0, 52, 64
2, 17049600, Note_off_c, 0, 74, 64
2, 17050624, Note_on_c, 0, 67, 100
2, 17051648, Note_on_c, 0, 69, 100
2, 17052672, Note_on_c, 0, 70, 100
2, 17053696, Note_off_c, 0, 55, 64
2, 17060864, Note_off_c, 0, 70, 64
2, 17061888, Note_off_c, 0, 69, 64
2, 17064960, Note_off_c, 0, 67, 64
2, 17065984, Note_on_c, 0, 55, 100
2, 17069056, Note_on_c, 0, 70, 100
2, 17070080, Note_on_c, 0, 69, 100
2, 17071104, Note_on_c, 0, 67, 100
2, 17072128, Note_on_c, 0, 52, 100
2, 17079296, Note_off_c, 0, 67, 64
2, 17080320, Note_on_c, 0, 65, 100
2, 17083392, Note_off_c, 0, 52, 64
2, 17086464, Note_off_c, 0, 65, 64
2, 17087488, Note_on_c, 0, 64, 100
2, 17088512, Note_off_c, 0, 48, 64
2, 17095680, Note_off_c, 0, 64, 64
2, 17096704, Note_on_c, 0, 62, 100
2, 17099776, Note_on_c, 0, 48, 100
2, 17102848, Note_off_c, 0, 70, 64
2, 17103872, Note_on_c, 0, 64, 100
2, 17104896, Note_off_c, 0, 62, 64
2, 17105920, Note_on_c, 0, 60, 100
2, 17106944, Note_on_c, 0, 57, 100
2, 17114112, Note_off_c, 0, 60, 64
2, 17115136, Note_on_c, 0, 62, 100
2, 17118208, Note_off_c, 0, 64, 64
2, 17119232, Note_off_c, 0, 57, 64
2, 17122304, Note_off_c, 0, 72, 64
2, 17123328, Note_off_c, 0, 62, 64
2, 17124352, Note_on_c, 0, 64, 100
2, 17125376, Note_off_c, 0, 48, 64
2, 17132544, Note_off_c, 0, 64, 64
2, 17133568, Note_on_c, 0, 60, 100
2, 17136640, Note_on_c, 0, 48, 100
2, 17139712, Note_off_c, 0, 60, 64
2, 17140736, Note_on_c, 0, 65, 100
2, 17141760, Note_on_c, 0, 50, 100
2, 17148928, Note_off_c, 0, 65, 64
2, 17149952, Note_on_c, 0, 67, 100
2, 17153024, Note_off_c, 0, 50, 64
2, 17156096, Note_on_c, 0, 72, 100
2, 17157120, Note_on_c, 0, 65, 100
2, 17158144, Note_off_c, 0, 67, 64
2, 17159168, Note_off_c, 0, 69, 64
2, 17160192, Note_off_c, 0, 53, 64
2, 17167360, Note_on_c, 0, 69, 100
2, 17168384, Note_on_c, 0, 67, 100
2, 17171456, Note_off_c, 0, 65, 64
2, 17172480, Note_on_c, 0, 53, 100
2, 17175552, Note_off_c, 0, 69, 64
2, 17176576, Note_off_c, 0, 67, 64
2, 17177600, Note_on_c, 0, 65, 100
2, 17178624, Note_on_c, 0, 50, 100
2, 17185792, Note_off_c, 0, 65, 64
2, 17186816, Note_on_c, 0, 64, 100
2, 17189888, Note_off_c, 0, 50, 64
2, 17192960, Note_off_c, 0, 64, 64
2, 17193984, Note_on_c, 0, 62, 100
2, 17195008, Note_on_c, 0, 46, 100
2, 17202176, Note_off_c, 0, 62, 64
2, 17203200, Note_on_c, 0, 60, 100
2, 17206272, Note_off_c, 0, 46, 64
2, 17209344, Note_on_c, 0, 69, 100
2, 17210368, Note_on_c, 0, 62, 100
2, 17211392, Note_off_c, 0, 60, 64
2, 17212416, Note_on_c, 0, 58, 100
2, 17213440, Note_off_c, 0, 55, 64
2, 17220608, Note_off_c, 0, 58, 64
2, 17221632, Note_on_c, 0, 60, 100
2, 17224704, Note_off_c, 0, 62, 64
2, 17225728, Note_on_c, 0, 55, 100
2, 17228800, Note_on_c, 0, 70, 100
2, 17229824, Note_off_c, 0, 60, 64
2, 17230848, Note_on_c, 0, 62, 100
2, 17231872, Note_on_c, 0, 46, 100
2, 17239040, Note_off_c, 0, 62, 64
2, 17240064, Note_on_c, 0, 58, 100
2, 17243136, Note_off_c, 0, 46, 64
2, 17246208, Note_off_c, 0, 58, 64
2, 17247232, Note_on_c, 0, 64, 100
2, 17248256, Note_off_c, 0, 48, 64
2, 17255424, Note_off_c, 0, 64, 64
2, 17256448, Note_on_c, 0, 65, 100
2, 17263616, Note_off_c, 0, 70, 64
2, 17264640, Note_on_c, 0, 64, 100
2, 17265664, Note_off_c, 0, 65, 64
2, 17266688, Note_on_c, 0, 67, 100
2, 17273856, Note_off_c, 0, 67, 64
2, 17274880, Note_on_c, 0, 65, 100
2, 17277952, Note_off_c, 0, 64, 64
2, 17281024, Note_on_c, 0, 67, 100
2, 17282048, Note_off_c, 0, 65, 64
2, 17283072, Note_on_c, 0, 64, 100
2, 17284096, Note_on_c, 0, 48, 100
2, 17285120, Note_on_c, 0, 46, 100
2, 17292288, Note_off_c, 0, 64, 64
2, 17293312, Note_on_c, 0, 62, 100
2, 17300480, Note_off_c, 0, 62, 64
2, 17301504, Note_on_c, 0, 60, 100
2, 17302528, Note_off_c, 0, 46, 64
2, 17303552, Note_on_c, 0, 45, 100
2, 17310720, Note_off_c, 0, 60, 64
2, 17311744, Note_on_c, 0, 62, 100
2, 17318912, Note_off_c, 0, 67, 64
2, 17319936, Note_on_c, 0, 60, 100
2, 17320960, Note_off_c, 0, 62, 64
2, 17321984, Note_on_c, 0, 64, 100
2, 17329152, Note_off_c, 0, 64, 64
2, 17330176, Note_on_c, 0, 62, 100
2, 17333248, Note_off_c, 0, 60, 64
2, 17336320, Note_on_c, 0, 70, 100
2, 17337344, Note_off_c, 0, 62, 64
2, 17338368, Note_on_c, 0, 60, 100
2, 17339392, Note_off_c, 0, 45, 64
2, 17340416, Note_on_c, 0, 43, 100
2, 17347584, Note_off_c, 0, 60, 64
2, 17348608, Note_on_c, 0, 58, 100
2, 17351680, Note_off_c, 0, 70, 64
2, 17354752, Note_off_c, 0, 69, 64
2, 17355776, Note_off_c, 0, 58, 64
2, 17356800, Note_on_c, 0, 60, 100
2, 17357824, Note_off_c, 0, 43, 64
2, 17358848, Note_off_c, 0, 41, 64
2, 17366016, Note_off_c, 0, 60, 64
2, 17367040, Note_on_c, 0, 65, 100
2, 17374208, Note_on_c, 0, 69, 100
2, 17375232, Note_on_c, 0, 67, 100
2, 17376256, Note_off_c, 0, 65, 64
2, 17377280, Note_on_c, 0, 64, 100
2, 17384448, Note_off_c, 0, 64, 64
2, 17385472, Note_on_c, 0, 62, 100
2, 17388544, Note_off_c, 0, 67, 64
2, 17391616, Note_off_c, 0, 69, 64
2, 17392640, Note_off_c, 0, 62, 64
2, 17393664, Note_on_c, 0, 60, 100
2, 17394688, Note_on_c, 0, 41, 100
2, 17401856, Note_off_c, 0, 60, 64
2, 17402880, Note_on_c, 0, 58, 100
2, 17405952, Note_on_c, 0, 69, 100
2, 17409024, Note_on_c, 0, 65, 100
2, 17410048, Note_off_c, 0, 58, 64
2, 17411072, Note_on_c, 0, 57, 100
2, 17418240, Note_off_c, 0, 57, 64
2, 17419264, Note_on_c, 0, 58, 100
2, 17426432, Note_off_c, 0, 65, 64
2, 17427456, Note_on_c, 0, 57, 100
2, 17428480, Note_off_c, 0, 58, 64
2, 17429504, Note_on_c, 0, 60, 100
2, 17436672, Note_off_c, 0, 60, 64
2, 17437696, Note_on_c, 0, 58, 100
2, 17440768, Note_off_c, 0, 57, 64
2, 17443840, Note_on_c, 0, 60, 100
2, 17444864, Note_off_c, 0, 58, 64
2, 17445888, Note_on_c, 0, 57, 100
2, 17453056, Note_off_c, 0, 57, 64
2, 17454080, Note_off_c, 0, 55, 64
2, 17457152, Note_off_c, 0, 60, 64
2, 17460224, Note_on_c, 0, 65, 100
2, 17461248, Note_on_c, 0, 55, 100
2, 17462272, Note_off_c, 0, 53, 64
2, 17463296, Note_on_c, 0, 60, 100
2, 17464320, Note_on_c, 0, 57, 100
2, 17465344, Note_off_c, 0, 41, 64
2, 17480704, Note_off_c, 0, 65, 64
2, 17481728, Note_on_c, 0, 64, 100
2, 17492992, Note_off_c, 0, 64, 64
2, 17496064, Note_on_c, 0, 65, 100
2, 17497088, Note_on_c, 0, 53, 100
2, 17498112, Note_off_c, 0, 60, 64
2, 17499136, Note_off_c, 0, 57, 64
2, 17500160, Note_on_c, 0, 41, 100
2, 17511424, Note_off_c, 0, 65, 64
2, 17514496, Note_on_c, 0, 57, 100
2, 17515520, Note_on_c, 0, 60, 100
2, 17516544, Note_off_c, 0, 53, 64
2, 17517568, Note_on_c, 0, 52, 100
2, 17518592, Note_on_c, 0, 40, 100
2, 17533952, Note_off_c, 0, 57, 64
2, 17534976, Note_off_c, 0, 60, 64
2, 17546240, Note_on_c, 0, 60, 100
2, 17549312, Note_on_c, 0, 65, 100
2, 17550336, Note_off_c, 0, 60, 64
2, 17551360, Note_on_c, 0, 53, 100
2, 17552384, Note_off_c, 0, 52, 64
2, 17553408, Note_off_c, 0, 40, 64
2, 17564672, Note_off_c, 0, 65, 64
2, 17567744, Note_on_c, 0, 65, 100
2, 17568768, Note_on_c, 0, 62, 100
2, 17569792, Note_on_c, 0, 57, 100
2, 17570816, Note_on_c, 0, 50, 100
2, 17571840, Note_on_c, 0, 38, 100
2, 17587200, Note_off_c, 0, 65, 64
2, 17588224, Note_on_c, 0, 64, 100
2, 17599488, Note_off_c, 0, 64, 64
2, 17602560, Note_on_c, 0, 65, 100
2, 17603584, Note_off_c, 0, 62, 64
2, 17604608, Note_off_c, 0, 57, 64
2, 17605632, Note_off_c, 0, 50, 64
2, 17606656, Note_off_c, 0, 38, 64
2, 17617920, Note_off_c, 0, 65, 64
2, 17620992, Note_on_c, 0, 57, 100
2, 17622016, Note_on_c, 0, 65, 100
2, 17623040, Note_on_c, 0, 60, 100
2, 17624064, Note_off_c, 0, 48, 64
2, 17625088, Note_on_c, 0, 36, 100
2, 17640448, Note_off_c, 0, 57, 64
2, 17641472, Note_off_c, 0, 60, 64
2, 17652736, Note_on_c, 0, 60, 100
2, 17655808, Note_off_c, 0, 65, 64
2, 17656832, Note_off_c, 0, 60, 64
2, 17657856, Note_on_c, 0, 48, 100
2, 17658880, Note_off_c, 0, 36, 64
2, 17670144, Note_on_c, 0, 65, 100
2, 17673216, Note_on_c, 0, 67, 100
2, 17674240, Note_off_c, 0, 65, 64
2, 17675264, Note_on_c, 0, 62, 100
2, 17676288, Note_on_c, 0, 46, 100
2, 17677312, Note_on_c, 0, 34, 100
2, 17692672, Note_off_c, 0, 67, 64
2, 17693696, Note_on_c, 0, 65, 100
2, 17704960, Note_off_c, 0, 65, 64
2, 17708032, Note_on_c, 0, 67, 100
2, 17709056, Note_on_c, 0, 65, 100
2, 17710080, Note_off_c, 0, 62, 64
2, 17711104, Note_off_c, 0, 46, 64
2, 17712128, Note_off_c, 0, 34, 64
2, 17723392, Note_off_c, 0, 67, 64
2, 17726464, Note_on_c, 0, 60, 100
2, 17727488, Note_on_c, 0, 64, 100
2, 17728512, Note_off_c, 0, 48, 64
2, 17729536, Note_on_c, 0, 36, 100
2, 17744896, Note_off_c, 0, 60, 64
2, 17745920, Note_off_c, 0, 64, 64
2, 17757184, Note_on_c, 0, 64, 100
2, 17760256, Note_on_c, 0, 67, 100
2, 17761280, Note_off_c, 0, 64, 64
2, 17762304, Note_on_c, 0, 60, 100
2, 17763328, Note_on_c, 0, 48, 100
2, 17764352, Note_off_c, 0, 36, 64
2, 17775616, Note_off_c, 0, 67, 64
2, 17778688, Note_off_c, 0, 69, 64
2, 17779712, Note_off_c, 0, 65, 64
2, 17780736, Note_off_c, 0, 60, 64
2, 17781760, Note_off_c, 0, 41, 64
2, 17782784, Note_on_c, 0, 29, 100
2, 17798144, Note_on_c, 0, 69, 100
2, 17799168, Note_on_c, 0, 67, 100
2, 17800192, Note_on_c, 0, 65, 100
2, 17801216, Note_on_c, 0, 64, 100
2, 17802240, Note_on_c, 0, 60, 100
2, 17803264, Note_on_c, 0, 58, 100
2, 17814528, Note_off_c, 0, 67, 64
2, 17815552, Note_off_c, 0, 64, 64
2, 17816576, Note_off_c, 0, 58, 64
2, 17819648, Note_off_c, 0, 69, 64
2, 17820672, Note_off_c, 0, 65, 64
2, 17821696, Note_off_c, 0, 60, 64
2, 17832960, Note_on_c, 0, 69, 100
2, 17833984, Note_on_c, 0, 65, 100
2, 17835008, Note_on_c, 0, 60, 100
2, 17838080, Note_off_c, 0, 65, 64
2, 17839104, Note_off_c, 0, 60, 64
2, 17840128, Note_on_c, 0, 57, 100
2, 17851392, Note_on_c, 0, 41, 100
2, 17854464, Note_on_c, 0, 45, 100
2, 17861632, Note_on_c, 0, 65, 100
2, 17862656, Note_on_c, 0, 60, 100
2, 17865728, Note_off_c, 0, 45, 64
2, 17868800, Note_off_c, 0, 65, 64
2, 17869824, Note_off_c, 0, 60, 64
2, 17870848, Note_on_c, 0, 62, 100
2, 17871872, Note_off_c, 0, 57, 64
2, 17872896, Note_off_c, 0, 48, 64
2, 17873920, Note_off_c, 0, 41, 64
2, 17874944, Note_off_c, 0, 29, 64
2, 17882112, Note_off_c, 0, 62, 64
2, 17883136, Note_on_c, 0, 64, 100
2, 17886208, Note_on_c, 0, 48, 100
2, 17889280, Note_off_c, 0, 64, 64
2, 17890304, Note_on_c, 0, 65, 100
2, 17891328, Note_off_c, 0, 53, 64
2, 17898496, Note_off_c, 0, 65, 64
2, 17899520, Note_on_c, 0, 64, 100
2, 17906688, Note_off_c, 0, 64, 64
2, 17907712, Note_on_c, 0, 65, 100
2, 17908736, Note_on_c, 0, 53, 100
2, 17909760, Note_on_c, 0, 57, 100
2, 17916928, Note_on_c, 0, 60, 100
2, 17920000, Note_off_c, 0, 65, 64
2, 17921024, Note_off_c, 0, 57, 64
2, 17924096, Note_off_c, 0, 60, 64
2, 17925120, Note_on_c, 0, 62, 100
2, 17932288, Note_off_c, 0, 62, 64
2, 17933312, Note_on_c, 0, 64, 100
2, 17936384, Note_on_c, 0, 60, 100
2, 17939456, Note_off_c, 0, 64, 64
2, 17940480, Note_on_c, 0, 65, 100
2, 17941504, Note_on_c, 0, 52, 100
2, 17948672, Note_off_c, 0, 65, 64
2, 17949696, Note_on_c, 0, 64, 100
2, 17956864, Note_off_c, 0, 64, 64
2, 17957888, Note_on_c, 0, 65, 100
2, 17958912, Note_off_c, 0, 52, 64
2, 17959936, Note_on_c, 0, 57, 100
2, 17967104, Note_off_c, 0, 60, 64
2, 17970176, Note_off_c, 0, 65, 64
2, 17971200, Note_off_c, 0, 57, 64
2, 17974272, Note_on_c, 0, 60, 100
2, 17975296, Note_on_c, 0, 62, 100
2, 17982464, Note_off_c, 0, 62, 64
2, 17983488, Note_on_c, 0, 64, 100
2, 17986560, Note_off_c, 0, 60, 64
2, 17989632, Note_off_c, 0, 64, 64
2, 17990656, Note_on_c, 0, 65, 100
2, 17991680, Note_on_c, 0, 50, 100
2, 17998848, Note_off_c, 0, 65, 64
2, 17999872, Note_on_c, 0, 64, 100
2, 18007040, Note_off_c, 0, 64, 64
2, 18008064, Note_on_c, 0, 65, 100
2, 18009088, Note_off_c, 0, 50, 64
2, 18010112, Note_off_c, 0, 53, 64
2, 18017280, Note_on_c, 0, 60, 100
2, 18020352, Note_off_c, 0, 65, 64
2, 18021376, Note_on_c, 0, 53, 100
2, 18024448, Note_off_c, 0, 60, 64
2, 18025472, Note_on_c, 0, 62, 100
2, 18026496, Note_on_c, 0, 57, 100
2, 18033664, Note_off_c, 0, 62, 64
2, 18034688, Note_on_c, 0, 64, 100
2, 18037760, Note_off_c, 0, 57, 64
2, 18040832, Note_off_c, 0, 64, 64
2, 18041856, Note_on_c, 0, 65, 100
2, 18042880, Note_off_c, 0, 48, 64
2, 18050048, Note_off_c, 0, 65, 64
2, 18051072, Note_on_c, 0, 64, 100
2, 18058240, Note_off_c, 0, 64, 64
2, 18059264, Note_on_c, 0, 65, 100
2, 18060288, Note_on_c, 0, 48, 100
2, 18061312, Note_off_c, 0, 53, 64
2, 18068480, Note_on_c, 0, 62, 100
2, 18071552, Note_off_c, 0, 65, 64
2, 18072576, Note_on_c, 0, 53, 100
2, 18075648, Note_off_c, 0, 62, 64
2, 18076672, Note_on_c, 0, 64, 100
2, 18077696, Note_on_c, 0, 57, 100
2, 18084864, Note_off_c, 0, 64, 64
2, 18085888, Note_on_c, 0, 65, 100
2, 18088960, Note_off_c, 0, 57, 64
2, 18092032, Note_off_c, 0, 65, 64
2, 18093056, Note_on_c, 0, 67, 100
2, 18094080, Note_on_c, 0, 46, 100
2, 18101248, Note_off_c, 0, 67, 64
2, 18102272, Note_on_c, 0, 65, 100
2, 18109440, Note_off_c, 0, 65, 64
2, 18110464, Note_on_c, 0, 67, 100
2, 18111488, Note_off_c, 0, 46, 64
2, 18112512, Note_on_c, 0, 50, 100
2, 18119680, Note_on_c, 0, 62, 100
2, 18120704, Note_off_c, 0, 67, 64
2, 18121728, Note_on_c, 0, 65, 100
2, 18124800, Note_off_c, 0, 50, 64
2, 18127872, Note_off_c, 0, 62, 64
2, 18128896, Note_on_c, 0, 64, 100
2, 18129920, Note_off_c, 0, 65, 64
2, 18130944, Note_off_c, 0, 55, 64
2, 18138112, Note_off_c, 0, 64, 64
2, 18139136, Note_on_c, 0, 65, 100
2, 18140160, Note_on_c, 0, 62, 100
2, 18143232, Note_on_c, 0, 55, 100
2, 18146304, Note_off_c, 0, 65, 64
2, 18147328, Note_on_c, 0, 67, 100
2, 18148352, Note_off_c, 0, 62, 64
2, 18149376, Note_on_c, 0, 60, 100
2, 18150400, Note_on_c, 0, 52, 100
2, 18157568, Note_off_c, 0, 67, 64
2, 18158592, Note_on_c, 0, 65, 100
2, 18161664, Note_off_c, 0, 60, 64
2, 18164736, Note_off_c, 0, 65, 64
2, 18165760, Note_on_c, 0, 67, 100
2, 18166784, Note_on_c, 0, 64, 100
2, 18167808, Note_off_c, 0, 52, 64
2, 18168832, Note_off_c, 0, 55, 64
2, 18176000, Note_off_c, 0, 67, 64
2, 18177024, Note_on_c, 0, 65, 100
2, 18180096, Note_off_c, 0, 64, 64
2, 18181120, Note_on_c, 0, 55, 100
2, 18184192, Note_off_c, 0, 65, 64
2, 18185216, Note_on_c, 0, 64, 100
2, 18186240, Note_on_c, 0, 67, 100
2, 18187264, Note_off_c, 0, 48, 64
2, 18194432, Note_off_c, 0, 64, 64
2, 18195456, Note_on_c, 0, 62, 100
2, 18198528, Note_off_c, 0, 67, 64
2, 18199552, Note_on_c, 0, 48, 100
2, 18202624, Note_off_c, 0, 62, 64
2, 18203648, Note_on_c, 0, 60, 100
2, 18204672, Note_off_c, 0, 69, 64
2, 18205696, Note_on_c, 0, 41, 100
2, 18212864, Note_off_c, 0, 60, 64
2, 18213888, Note_on_c, 0, 58, 100
2, 18214912, Note_on_c, 0, 69, 100
2, 18215936, Note_on_c, 0, 67, 100
2, 18223104, Note_off_c, 0, 58, 64
2, 18224128, Note_on_c, 0, 60, 100
2, 18225152, Note_off_c, 0, 67, 64
2, 18226176, Note_off_c, 0, 69, 64
2, 18227200, Note_off_c, 0, 41, 64
2, 18228224, Note_on_c, 0, 45, 100
2, 18235392, Note_off_c, 0, 60, 64
2, 18236416, Note_on_c, 0, 62, 100
2, 18237440, Note_on_c, 0, 69, 100
2, 18238464, Note_on_c, 0, 70, 100
2, 18241536, Note_off_c, 0, 45, 64
2, 18244608, Note_off_c, 0, 62, 64
2, 18245632, Note_on_c, 0, 60, 100
2, 18246656, Note_off_c, 0, 70, 64
2, 18247680, Note_off_c, 0, 69, 64
2, 18248704, Note_off_c, 0, 48, 64
2, 18255872, Note_off_c, 0, 60, 64
2, 18256896, Note_on_c, 0, 58, 100
2, 18257920, Note_on_c, 0, 69, 100
2, 18258944, Note_on_c, 0, 67, 100
2, 18262016, Note_on_c, 0, 48, 100
2, 18265088, Note_off_c, 0, 58, 64
2, 18266112, Note_on_c, 0, 57, 100
2, 18267136, Note_off_c, 0, 67, 64
2, 18268160, Note_on_c, 0, 65, 100
2, 18269184, Note_off_c, 0, 53, 64
2, 18276352, Note_off_c, 0, 57, 64
2, 18277376, Note_off_c, 0, 55, 64
2, 18280448, Note_off_c, 0, 65, 64
2, 18283520, Note_on_c, 0, 55, 100
2, 18284544, Note_on_c, 0, 57, 100
2, 18285568, Note_on_c, 0, 60, 100
2, 18286592, Note_on_c, 0, 53, 100
2, 18287616, Note_on_c, 0, 52, 100
2, 18294784, Note_off_c, 0, 57, 64
2, 18295808, Note_on_c, 0, 58, 100
2, 18298880, Note_off_c, 0, 60, 64
2, 18299904, Note_off_c, 0, 52, 64
2, 18302976, Note_off_c, 0, 58, 64
2, 18304000, Note_on_c, 0, 60, 100
2, 18305024, Note_off_c, 0, 69, 64
2, 18306048, Note_off_c, 0, 53, 64
2, 18313216, Note_off_c, 0, 60, 64
2, 18314240, Note_on_c, 0, 57, 100
2, 18317312, Note_on_c, 0, 53, 100
2, 18320384, Note_off_c, 0, 57, 64
2, 18321408, Note_on_c, 0, 62, 100
2, 18322432, Note_on_c, 0, 47, 100
2, 18329600, Note_off_c, 0, 62, 64
2, 18330624, Note_on_c, 0, 64, 100
2, 18333696, Note_off_c, 0, 47, 64
2, 18336768, Note_off_c, 0, 64, 64
2, 18337792, Note_on_c, 0, 65, 100
2, 18338816, Note_on_c, 0, 69, 100
2, 18339840, Note_on_c, 0, 62, 100
2, 18340864, Note_on_c, 0, 50, 100
2, 18348032, Note_off_c, 0, 65, 64
2, 18349056, Note_on_c, 0, 64, 100
2, 18352128, Note_off_c, 0, 62, 64
2, 18353152, Note_off_c, 0, 50, 64
2, 18356224, Note_off_c, 0, 64, 64
2, 18357248, Note_on_c, 0, 62, 100
2, 18358272, Note_on_c, 0, 65, 100
2, 18359296, Note_on_c, 0, 47, 100
2, 18366464, Note_off_c, 0, 62, 64
2, 18367488, Note_on_c, 0, 60, 100
2, 18370560, Note_off_c, 0, 47, 64
2, 18373632, Note_off_c, 0, 60, 64
2, 18374656, Note_off_c, 0, 59, 64
2, 18375680, Note_on_c, 0, 43, 100
2, 18382848, Note_on_c, 0, 59, 100
2, 18383872, Note_on_c, 0, 57, 100
2, 18386944, Note_off_c, 0, 43, 64
2, 18390016, Note_off_c, 0, 57, 64
2, 18391040, Note_off_c, 0, 55, 64
2, 18392064, Note_off_c, 0, 65, 64
2, 18393088, Note_off_c, 0, 59, 64
2, 18394112, Note_on_c, 0, 52, 100
2, 18401280, Note_on_c, 0, 55, 100
2, 18402304, Note_on_c, 0, 57, 100
2, 18405376, Note_on_c, 0, 59, 100
2, 18406400, Note_off_c, 0, 52, 64
2, 18409472, Note_off_c, 0, 57, 64
2, 18410496, Note_off_c, 0, 59, 64
2, 18411520, Note_on_c, 0, 67, 100
2, 18412544, Note_on_c, 0, 43, 100
2, 18419712, Note_on_c, 0, 59, 100
2, 18420736, Note_off_c, 0, 55, 64
2, 18423808, Note_off_c, 0, 43, 64
2, 18426880, Note_on_c, 0, 55, 100
2, 18427904, Note_on_c, 0, 60, 100
2, 18428928, Note_on_c, 0, 45, 100
2, 18436096, Note_off_c, 0, 60, 64
2, 18437120, Note_on_c, 0, 62, 100
2, 18440192, Note_off_c, 0, 45, 64
2, 18443264, Note_off_c, 0, 62, 64
2, 18444288, Note_on_c, 0, 64, 100
2, 18445312, Note_off_c, 0, 67, 64
2, 18446336, Note_on_c, 0, 60, 100
2, 18447360, Note_off_c, 0, 48, 64
2, 18454528, Note_off_c, 0, 64, 64
2, 18455552, Note_on_c, 0, 62, 100
2, 18458624, Note_off_c, 0, 60, 64
2, 18459648, Note_on_c, 0, 48, 100
2, 18462720, Note_off_c, 0, 62, 64
2, 18463744, Note_on_c, 0, 60, 100
2, 18464768, Note_on_c, 0, 64, 100
2, 18465792, Note_on_c, 0, 45, 100
2, 18472960, Note_off_c, 0, 60, 64
2, 18473984, Note_off_c, 0, 59, 64
2, 18477056, Note_off_c, 0, 45, 64
2, 18480128, Note_on_c, 0, 59, 100
2, 18481152, Note_on_c, 0, 57, 100
2, 18482176, Note_on_c, 0, 41, 100
2, 18489344, Note_off_c, 0, 57, 64
2, 18490368, Note_off_c, 0, 55, 64
2, 18493440, Note_off_c, 0, 41, 64
2, 18496512, Note_on_c, 0, 55, 100
2, 18497536, Note_off_c, 0, 53, 64
2, 18498560, Note_off_c, 0, 64, 64
2, 18499584, Note_on_c, 0, 57, 100
2, 18500608, Note_on_c, 0, 50, 100
2, 18507776, Note_on_c, 0, 53, 100
2, 18508800, Note_off_c, 0, 55, 64
2, 18511872, Note_off_c, 0, 57, 64
2, 18512896, Note_off_c, 0, 50, 64
2, 18515968, Note_on_c, 0, 55, 100
2, 18516992, Note_on_c, 0, 57, 100
2, 18518016, Note_on_c, 0, 65, 100
2, 18519040, Note_on_c, 0, 41, 100
2, 18526208, Note_off_c, 0, 57, 64
2, 18527232, Note_off_c, 0, 53, 64
2, 18530304, Note_off_c, 0, 41, 64
2, 18533376, Note_on_c, 0, 53, 100
2, 18534400, Note_off_c, 0, 59, 64
2, 18535424, Note_on_c, 0, 43, 100
2, 18542592, Note_on_c, 0, 59, 100
2, 18543616, Note_on_c, 0, 60, 100
2, 18550784, Note_off_c, 0, 60, 64
2, 18551808, Note_on_c, 0, 62, 100
2, 18552832, Note_off_c, 0, 65, 64
2, 18553856, Note_off_c, 0, 59, 64
2, 18561024, Note_off_c, 0, 62, 64
2, 18562048, Note_on_c, 0, 60, 100
2, 18565120, Note_on_c, 0, 59, 100
2, 18568192, Note_off_c, 0, 60, 64
2, 18569216, Note_off_c, 0, 59, 64
2, 18570240, Note_on_c, 0, 62, 100
2, 18571264, Note_off_c, 0, 43, 64
2, 18572288, Note_on_c, 0, 41, 100
2, 18579456, Note_on_c, 0, 59, 100
2, 18580480, Note_on_c, 0, 57, 100
2, 18587648, Note_off_c, 0, 57, 64
2, 18588672, Note_off_c, 0, 55, 64
2, 18589696, Note_off_c, 0, 41, 64
2, 18590720, Note_on_c, 0, 40, 100
2, 18597888, Note_on_c, 0, 55, 100
2, 18598912, Note_on_c, 0, 57, 100
2, 18606080, Note_off_c, 0, 57, 64
2, 18607104, Note_off_c, 0, 59, 64
2, 18608128, Note_off_c, 0, 62, 64
2, 18609152, Note_off_c, 0, 55, 64
2, 18616320, Note_on_c, 0, 59, 100
2, 18617344, Note_on_c, 0, 57, 100
2, 18620416, Note_on_c, 0, 55, 100
2, 18623488, Note_off_c, 0, 57, 64
2, 18624512, Note_off_c, 0, 55, 64
2, 18625536, Note_on_c, 0, 65, 100
2, 18626560, Note_off_c, 0, 40, 64
2, 18627584, Note_on_c, 0, 38, 100
2, 18634752, Note_on_c, 0, 55, 100
2, 18635776, Note_off_c, 0, 53, 64
2, 18638848, Note_off_c, 0, 65, 64
2, 18641920, Note_on_c, 0, 53, 100
2, 18642944, Note_off_c, 0, 55, 64
2, 18643968, Note_on_c, 0, 64, 100
2, 18644992, Note_off_c, 0, 38, 64
2, 18646016, Note_on_c, 0, 36, 100
2, 18653184, Note_on_c, 0, 55, 100
2, 18654208, Note_on_c, 0, 60, 100
2, 18661376, Note_off_c, 0, 60, 64
2, 18662400, Note_off_c, 0, 59, 64
2, 18663424, Note_off_c, 0, 64, 64
2, 18664448, Note_on_c, 0, 62, 100
2, 18671616, Note_on_c, 0, 59, 100
2, 18672640, Note_on_c, 0, 57, 100
2, 18675712, Note_off_c, 0, 62, 64
2, 18678784, Note_off_c, 0, 57, 64
2, 18679808, Note_off_c, 0, 55, 64
2, 18680832, Note_on_c, 0, 64, 100
2, 18681856, Note_off_c, 0, 36, 64
2, 18689024, Note_on_c, 0, 55, 100
2, 18690048, Note_off_c, 0, 53, 64
2, 18693120, Note_off_c, 0, 64, 64
2, 18696192, Note_on_c, 0, 53, 100
2, 18697216, Note_on_c, 0, 52, 100
2, 18698240, Note_on_c, 0, 60, 100
2, 18705408, Note_off_c, 0, 52, 64
2, 18706432, Note_off_c, 0, 53, 64
2, 18713600, Note_on_c, 0, 53, 100
2, 18714624, Note_off_c, 0, 55, 64
2, 18715648, Note_off_c, 0, 60, 64
2, 18716672, Note_on_c, 0, 64, 100
2, 18723840, Note_on_c, 0, 55, 100
2, 18724864, Note_off_c, 0, 53, 64
2, 18727936, Note_off_c, 0, 64, 64
2, 18731008, Note_on_c, 0, 53, 100
2, 18732032, Note_on_c, 0, 52, 100
2, 18733056, Note_on_c, 0, 67, 100
2, 18740224, Note_off_c, 0, 52, 64
2, 18741248, Note_on_c, 0, 50, 100
2, 18744320, Note_off_c, 0, 67, 64
2, 18747392, Note_off_c, 0, 50, 64
2, 18748416, Note_off_c, 0, 48, 64
2, 18749440, Note_off_c, 0, 72, 64
2, 18750464, Note_on_c, 0, 65, 100
2, 18751488, Note_on_c, 0, 60, 100
2, 18752512, Note_on_c, 0, 45, 100
2, 18753536, Note_on_c, 0, 33, 100
2, 18764800, Note_on_c, 0, 48, 100
2, 18765824, Note_on_c, 0, 72, 100
2, 18768896, Note_off_c, 0, 60, 64
2, 18769920, Note_off_c, 0, 65, 64
2, 18781184, Note_on_c, 0, 60, 100
2, 18782208, Note_on_c, 0, 65, 100
2, 18785280, Note_off_c, 0, 69, 64
2, 18786304, Note_off_c, 0, 65, 64
2, 18787328, Note_off_c, 0, 60, 64
2, 18788352, Note_off_c, 0, 45, 64
2, 18789376, Note_off_c, 0, 33, 64
2, 18804736, Note_on_c, 0, 65, 100
2, 18805760, Note_on_c, 0, 60, 100
2, 18806784, Note_on_c, 0, 50, 100
2, 18807808, Note_on_c, 0, 38, 100
2, 18823168, Note_on_c, 0, 69, 100
2, 18824192, Note_on_c, 0, 62, 100
2, 18835456, Note_off_c, 0, 62, 64
2, 18838528, Note_on_c, 0, 70, 100
2, 18839552, Note_off_c, 0, 65, 64
2, 18840576, Note_off_c, 0, 60, 64
2, 18841600, Note_off_c, 0, 50, 64
2, 18842624, Note_off_c, 0, 38, 64
2, 18857984, Note_on_c, 0, 65, 100
2, 18859008, Note_on_c, 0, 58, 100
2, 18860032, Note_on_c, 0, 43, 100
2, 18861056, Note_on_c, 0, 31, 100
2, 18876416, Note_off_c, 0, 70, 64
2, 18877440, Note_on_c, 0, 64, 100
2, 18888704, Note_off_c, 0, 64, 64
2, 18891776, Note_on_c, 0, 67, 100
2, 18892800, Note_off_c, 0, 65, 64
2, 18893824, Note_off_c, 0, 58, 64
2, 18894848, Note_off_c, 0, 43, 64
2, 18895872, Note_off_c, 0, 31, 64
2, 18911232, Note_on_c, 0, 64, 100
2, 18912256, Note_on_c, 0, 60, 100
2, 18913280, Note_off_c, 0, 48, 64
2, 18914304, Note_on_c, 0, 36, 100
2, 18929664, Note_off_c, 0, 67, 64
2, 18930688, Note_off_c, 0, 60, 64
2, 18941952, Note_on_c, 0, 60, 100
2, 18945024, Note_off_c, 0, 69, 64
2, 18946048, Note_off_c, 0, 64, 64
2, 18947072, Note_off_c, 0, 60, 64
2, 18948096, Note_on_c, 0, 48, 100
2, 18949120, Note_off_c, 0, 36, 64
2, 18964480, Note_on_c, 0, 65, 100
2, 18965504, Note_on_c, 0, 60, 100
2, 18966528, Note_on_c, 0, 41, 100
2, 18967552, Note_on_c, 0, 29, 100
2, 18974720, Note_on_c, 0, 69, 100
2, 18975744, Note_off_c, 0, 65, 64
2, 18982912, Note_off_c, 0, 69, 64
2, 18983936, Note_off_c, 0, 60, 64
2, 18984960, Note_on_c, 0, 65, 100
2, 18985984, Note_on_c, 0, 64, 100
2, 18993152, Note_off_c, 0, 64, 64
2, 18994176, Note_on_c, 0, 62, 100
2, 18997248, Note_on_c, 0, 60, 100
2, 19000320, Note_off_c, 0, 65, 64
2, 19001344, Note_off_c, 0, 62, 64
2, 19002368, Note_off_c, 0, 60, 64
2, 19003392, Note_off_c, 0, 41, 64
2, 19004416, Note_off_c, 0, 53, 64
2, 19005440, Note_off_c, 0, 29, 64
2, 19012608, Note_on_c, 0, 60, 100
2, 19013632, Note_on_c, 0, 58, 100
2, 19016704, Note_on_c, 0, 53, 100
2, 19019776, Note_off_c, 0, 58, 64
2, 19020800, Note_on_c, 0, 57, 100
2, 19021824, Note_on_c, 0, 41, 100
2, 19028992, Note_off_c, 0, 57, 64
2, 19030016, Note_on_c, 0, 62, 100
2, 19037184, Note_on_c, 0, 65, 100
2, 19038208, Note_on_c, 0, 57, 100
2, 19039232, Note_off_c, 0, 62, 64
2, 19040256, Note_off_c, 0, 60, 64
2, 19047424, Note_on_c, 0, 60, 100
2, 19048448, Note_on_c, 0, 58, 100
2, 19051520, Note_off_c, 0, 57, 64
2, 19054592, Note_off_c, 0, 60, 64
2, 19055616, Note_off_c, 0, 58, 64
2, 19056640, Note_on_c, 0, 57, 100
2, 19057664, Note_off_c, 0, 41, 64
2, 19058688, Note_off_c, 0, 53, 64
2, 19065856, Note_off_c, 0, 57, 64
2, 19066880, Note_off_c, 0, 55, 64
2, 19069952, Note_on_c, 0, 53, 100
2, 19073024, Note_on_c, 0, 55, 100
2, 19074048, Note_off_c, 0, 53, 64
2, 19075072, Note_on_c, 0, 41, 100
2, 19082240, Note_on_c, 0, 53, 100
2, 19083264, Note_off_c, 0, 48, 64
2, 19090432, Note_on_c, 0, 60, 100
2, 19091456, Note_off_c, 0, 53, 64
2, 19092480, Note_on_c, 0, 48, 100
2, 19093504, Note_on_c, 0, 50, 100
2, 19100672, Note_off_c, 0, 50, 64
2, 19101696, Note_on_c, 0, 52, 100
2, 19104768, Note_on_c, 0, 53, 100
2, 19107840, Note_on_c, 0, 57, 100
2, 19108864, Note_off_c, 0, 52, 64
2, 19109888, Note_off_c, 0, 53, 64
2, 19110912, Note_off_c, 0, 41, 64
2, 19118080, Note_on_c, 0, 53, 100
2, 19119104, Note_off_c, 0, 55, 64
2, 19122176, Note_off_c, 0, 57, 64
2, 19123200, Note_off_c, 0, 53, 64
2, 19126272, Note_off_c, 0, 60, 64
2, 19127296, Note_on_c, 0, 55, 100
2, 19128320, Note_on_c, 0, 57, 100
2, 19129344, Note_on_c, 0, 41, 100
2, 19136512, Note_off_c, 0, 57, 64
2, 19137536, Note_off_c, 0, 55, 64
2, 19140608, Note_on_c, 0, 60, 100
2, 19143680, Note_on_c, 0, 57, 100
2, 19144704, Note_on_c, 0, 55, 100
2, 19145728, Note_on_c, 0, 53, 100
2, 19152896, Note_off_c, 0, 53, 64
2, 19153920, Note_off_c, 0, 55, 64
2, 19156992, Note_off_c, 0, 57, 64
2, 19160064, Note_off_c, 0, 60, 64
2, 19161088, Note_on_c, 0, 55, 100
2, 19162112, Note_on_c, 0, 57, 100
2, 19163136, Note_off_c, 0, 41, 64
2, 19164160, Note_on_c, 0, 53, 100
2, 19171328, Note_off_c, 0, 57, 64
2, 19172352, Note_on_c, 0, 58, 100
2, 19175424, Note_on_c, 0, 60, 100
2, 19176448, Note_off_c, 0, 53, 64
2, 19179520, Note_off_c, 0, 65, 64
2, 19180544, Note_off_c, 0, 58, 64
2, 19181568, Note_off_c, 0, 60, 64
2, 19182592, Note_on_c, 0, 57, 100
2, 19183616, Note_on_c, 0, 41, 100
2, 19184640, Note_on_c, 0, 29, 100
2, 19195904, Note_on_c, 0, 65, 100
2, 19196928, Note_on_c, 0, 60, 100
2, 19200000, Note_off_c, 0, 60, 64
2, 19201024, Note_on_c, 0, 53, 100
2, 19212288, Note_on_c, 0, 60, 100
2, 19213312, Note_off_c, 0, 53, 64
2, 19216384, Note_on_c, 0, 62, 100
2, 19217408, Note_off_c, 0, 57, 64
2, 19218432, Note_off_c, 0, 60, 64
2, 19219456, Note_off_c, 0, 41, 64
2, 19220480, Note_off_c, 0, 29, 64
2, 19235840, Note_on_c, 0, 58, 100
2, 19236864, Note_on_c, 0, 53, 100
2, 19237888, Note_on_c, 0, 41, 100
2, 19253248, Note_off_c, 0, 62, 64
2, 19254272, Note_on_c, 0, 60, 100
2, 19261440, Note_off_c, 0, 60, 64
2, 19262464, Note_off_c, 0, 58, 64
2, 19265536, Note_on_c, 0, 60, 100
2, 19268608, Note_on_c, 0, 58, 100
2, 19269632, Note_on_c, 0, 57, 100
2, 19270656, Note_off_c, 0, 65, 64
2, 19271680, Note_off_c, 0, 53, 64
2, 19272704, Note_off_c, 0, 41, 64
2, 19279872, Note_off_c, 0, 57, 64
2, 19280896, Note_off_c, 0, 55, 64
2, 19288064, Note_on_c, 0, 55, 100
2, 19289088, Note_on_c, 0, 57, 100
2, 19290112, Note_on_c, 0, 41, 100
2, 19297280, Note_off_c, 0, 57, 64
2, 19298304, Note_off_c, 0, 58, 64
2, 19305472, Note_on_c, 0, 58, 100
2, 19306496, Note_off_c, 0, 60, 64
2, 19307520, Note_on_c, 0, 65, 100
2, 19314688, Note_on_c, 0, 60, 100
2, 19315712, Note_off_c, 0, 58, 64
2, 19318784, Note_off_c, 0, 60, 64
2, 19321856, Note_on_c, 0, 58, 100
2, 19322880, Note_on_c, 0, 57, 100
2, 19323904, Note_on_c, 0, 62, 100
2, 19324928, Note_off_c, 0, 41, 64
2, 19332096, Note_off_c, 0, 57, 64
2, 19333120, Note_off_c, 0, 55, 64
2, 19340288, Note_on_c, 0, 55, 100
2, 19341312, Note_on_c, 0, 53, 100
2, 19348480, Note_off_c, 0, 53, 64
2, 19349504, Note_off_c, 0, 55, 64
2, 19356672, Note_on_c, 0, 55, 100
2, 19357696, Note_on_c, 0, 57, 100
2, 19358720, Note_off_c, 0, 62, 64
2, 19359744, Note_on_c, 0, 60, 100
2, 19366912, Note_off_c, 0, 57, 64
2, 19367936, Note_off_c, 0, 55, 64
2, 19371008, Note_off_c, 0, 60, 64
2, 19374080, Note_on_c, 0, 55, 100
2, 19375104, Note_on_c, 0, 53, 100
2, 19376128, Note_off_c, 0, 65, 64
2, 19377152, Note_on_c, 0, 60, 100
2, 19378176, Note_on_c, 0, 57, 100
2, 19379200, Note_on_c, 0, 41, 100
2, 19380224, Note_on_c, 0, 29, 100
2, 19387392, Note_off_c, 0, 53, 64
2, 19388416, Note_on_c, 0, 52, 100
2, 19391488, Note_off_c, 0, 41, 64
2, 19392512, Note_off_c, 0, 29, 64
2, 19395584, Note_off_c, 0, 52, 64
2, 19396608, Note_on_c, 0, 50, 100
2, 19397632, Note_off_c, 0, 60, 64
2, 19398656, Note_on_c, 0, 62, 100
2, 19399680, Note_off_c, 0, 57, 64
2, 19400704, Note_off_c, 0, 58, 64
2, 19401728, Note_on_c, 0, 46, 100
2, 19402752, Note_on_c, 0, 34, 100
2, 19418112, Note_off_c, 0, 50, 64
2, 19419136, Note_off_c, 0, 62, 64
2, 19420160, Note_on_c, 0, 65, 100
2, 19431424, Note_on_c, 0, 62, 100
2, 19434496, Note_on_c, 0, 70, 100
2, 19435520, Note_off_c, 0, 62, 64
2, 19436544, Note_on_c, 0, 67, 100
2, 19437568, Note_on_c, 0, 58, 100
2, 19438592, Note_off_c, 0, 46, 64
2, 19439616, Note_on_c, 0, 43, 100
2, 19440640, Note_off_c, 0, 34, 64
2, 19441664, Note_on_c, 0, 31, 100
2, 19452928, Note_off_c, 0, 67, 64
2, 19453952, Note_on_c, 0, 62, 100
2, 19454976, Note_off_c, 0, 43, 64
2, 19456000, Note_off_c, 0, 31, 64
2, 19459072, Note_off_c, 0, 55, 64
2, 19460096, Note_on_c, 0, 64, 100
2, 19461120, Note_off_c, 0, 48, 64
2, 19462144, Note_on_c, 0, 36, 100
2, 19477504, Note_off_c, 0, 70, 64
2, 19478528, Note_off_c, 0, 64, 64
2, 19489792, Note_on_c, 0, 64, 100
2, 19492864, Note_off_c, 0, 72, 64
2, 19493888, Note_on_c, 0, 55, 100
2, 19494912, Note_on_c, 0, 67, 100
2, 19495936, Note_off_c, 0, 64, 64
2, 19496960, Note_on_c, 0, 60, 100
2, 19497984, Note_on_c, 0, 48, 100
2, 19499008, Note_on_c, 0, 52, 100
2, 19500032, Note_off_c, 0, 36, 64
2, 19501056, Note_on_c, 0, 40, 100
2, 19512320, Note_off_c, 0, 67, 64
2, 19513344, Note_off_c, 0, 60, 64
2, 19514368, Note_off_c, 0, 52, 64
2, 19515392, Note_off_c, 0, 40, 64
2, 19518464, Note_on_c, 0, 72, 100
2, 19519488, Note_on_c, 0, 69, 100
2, 19520512, Note_off_c, 0, 65, 64
2, 19521536, Note_on_c, 0, 60, 100
2, 19522560, Note_on_c, 0, 53, 100
2, 19523584, Note_on_c, 0, 41, 100
2, 19534848, Note_off_c, 0, 69, 64
2, 19535872, Note_on_c, 0, 65, 100
2, 19536896, Note_off_c, 0, 60, 64
2, 19537920, Note_off_c, 0, 53, 64
2, 19538944, Note_off_c, 0, 41, 64
2, 19542016, Note_off_c, 0, 65, 64
2, 19543040, Note_on_c, 0, 60, 100
2, 19544064, Note_on_c, 0, 57, 100
2, 19545088, Note_on_c, 0, 33, 100
2, 19546112, Note_on_c, 0, 45, 100
2, 19557376, Note_on_c, 0, 65, 100
2, 19558400, Note_off_c, 0, 60, 64
2, 19559424, Note_off_c, 0, 57, 64
2, 19560448, Note_off_c, 0, 33, 64
2, 19561472, Note_off_c, 0, 45, 64
2, 19564544, Note_on_c, 0, 64, 100
2, 19565568, Note_on_c, 0, 60, 100
2, 19566592, Note_off_c, 0, 55, 64
2, 19567616, Note_on_c, 0, 36, 100
2, 19568640, Note_off_c, 0, 48, 64
2, 19571712, Note_off_c, 0, 64, 64
2, 19572736, Note_off_c, 0, 65, 64
2, 19575808, Note_on_c, 0, 65, 100
2, 19576832, Note_on_c, 0, 64, 100
2, 19579904, Note_off_c, 0, 60, 64
2, 19580928, Note_on_c, 0, 55, 100
2, 19581952, Note_off_c, 0, 36, 64
2, 19582976, Note_on_c, 0, 48, 100
2, 19586048, Note_off_c, 0, 64, 64
2, 19587072, Note_off_c, 0, 65, 64
2, 19588096, Note_on_c, 0, 60, 100
2, 19589120, Note_on_c, 0, 57, 100
2, 19590144, Note_on_c, 0, 53, 100
2, 19591168, Note_on_c, 0, 41, 100
2, 19592192, Note_on_c, 0, 29, 100
2, 19599360, Note_off_c, 0, 53, 64
2, 19600384, Note_off_c, 0, 55, 64
2, 19607552, Note_on_c, 0, 55, 100
2, 19608576, Note_off_c, 0, 57, 64
2, 19615744, Note_on_c, 0, 57, 100
2, 19616768, Note_off_c, 0, 55, 64
2, 19623936, Note_on_c, 0, 65, 100
2, 19624960, Note_off_c, 0, 60, 64
2, 19625984, Note_off_c, 0, 57, 64
2, 19627008, Note_on_c, 0, 55, 100
2, 19628032, Note_on_c, 0, 53, 100
2, 19629056, Note_off_c, 0, 41, 64
2, 19630080, Note_off_c, 0, 29, 64
2, 19637248, Note_off_c, 0, 53, 64
2, 19638272, Note_off_c, 0, 51, 64
2, 19641344, Note_on_c, 0, 60, 100
2, 19644416, Note_off_c, 0, 65, 64
2, 19645440, Note_on_c, 0, 51, 100
2, 19646464, Note_on_c, 0, 50, 100
2, 19653632, Note_off_c, 0, 50, 64
2, 19654656, Note_off_c, 0, 51, 64
2, 19661824, Note_on_c, 0, 51, 100
2, 19662848, Note_on_c, 0, 53, 100
2, 19670016, Note_off_c, 0, 53, 64
2, 19671040, Note_off_c, 0, 51, 64
2, 19678208, Note_on_c, 0, 69, 100
2, 19679232, Note_on_c, 0, 51, 100
2, 19680256, Note_on_c, 0, 50, 100
2, 19687424, Note_off_c, 0, 50, 64
2, 19688448, Note_off_c, 0, 48, 64
2, 19691520, Note_off_c, 0, 69, 64
2, 19694592, Note_on_c, 0, 74, 100
2, 19695616, Note_on_c, 0, 48, 100
2, 19696640, Note_on_c, 0, 47, 100
2, 19703808, Note_off_c, 0, 47, 64
2, 19704832, Note_on_c, 0, 50, 100
2, 19712000, Note_on_c, 0, 65, 100
2, 19713024, Note_off_c, 0, 59, 64
2, 19714048, Note_off_c, 0, 50, 64
2, 19715072, Note_off_c, 0, 55, 64
2, 19722240, Note_on_c, 0, 55, 100
2, 19723264, Note_on_c, 0, 53, 100
2, 19726336, Note_on_c, 0, 59, 100
2, 19729408, Note_off_c, 0, 62, 64
2, 19730432, Note_off_c, 0, 53, 64
2, 19731456, Note_off_c, 0, 51, 64
2, 19738624, Note_on_c, 0, 51, 100
2, 19739648, Note_on_c, 0, 50, 100
2, 19742720, Note_on_c, 0, 62, 100
2, 19745792, Note_off_c, 0, 63, 64
2, 19746816, Note_off_c, 0, 50, 64
2, 19747840, Note_off_c, 0, 48, 64
2, 19755008, Note_on_c, 0, 63, 100
2, 19756032, Note_off_c, 0, 65, 64
2, 19759104, Note_on_c, 0, 48, 100
2, 19762176, Note_off_c, 0, 74, 64
2, 19763200, Note_on_c, 0, 67, 100
2, 19764224, Note_on_c, 0, 65, 100
2, 19765248, Note_off_c, 0, 51, 64
2, 19772416, Note_off_c, 0, 67, 64
2, 19773440, Note_off_c, 0, 65, 64
2, 19776512, Note_on_c, 0, 67, 100
2, 19777536, Note_on_c, 0, 51, 100
2, 19780608, Note_on_c, 0, 71, 100
2, 19781632, Note_on_c, 0, 65, 100
2, 19782656, Note_off_c, 0, 63, 64
2, 19783680, Note_off_c, 0, 67, 64
2, 19784704, Note_off_c, 0, 55, 64
2, 19785728, Note_on_c, 0, 43, 100
2, 19786752, Note_on_c, 0, 31, 100
2, 19793920, Note_on_c, 0, 63, 100
2, 19794944, Note_off_c, 0, 62, 64
2, 19795968, Note_off_c, 0, 43, 64
2, 19796992, Note_off_c, 0, 31, 64
2, 19800064, Note_off_c, 0, 71, 64
2, 19801088, Note_on_c, 0, 67, 100
2, 19802112, Note_on_c, 0, 55, 100
2, 19805184, Note_off_c, 0, 72, 64
2, 19806208, Note_on_c, 0, 62, 100
2, 19807232, Note_off_c, 0, 63, 64
2, 19808256, Note_off_c, 0, 55, 64
2, 19809280, Note_off_c, 0, 60, 64
2, 19810304, Note_on_c, 0, 36, 100
2, 19811328, Note_off_c, 0, 48, 64
2, 19818496, Note_on_c, 0, 63, 100
2, 19819520, Note_off_c, 0, 62, 64
2, 19822592, Note_on_c, 0, 72, 100
2, 19823616, Note_on_c, 0, 60, 100
2, 19826688, Note_off_c, 0, 60, 64
2, 19827712, Note_on_c, 0, 62, 100
2, 19828736, Note_off_c, 0, 51, 64
2, 19835904, Note_on_c, 0, 60, 100
2, 19836928, Note_off_c, 0, 63, 64
2, 19840000, Note_off_c, 0, 60, 64
2, 19841024, Note_on_c, 0, 51, 100
2, 19844096, Note_on_c, 0, 63, 100
2, 19845120, Note_off_c, 0, 62, 64
2, 19846144, Note_on_c, 0, 55, 100
2, 19847168, Note_off_c, 0, 36, 64
2, 19848192, Note_on_c, 0, 48, 100
2, 19855360, Note_on_c, 0, 62, 100
2, 19856384, Note_off_c, 0, 65, 64
2, 19859456, Note_off_c, 0, 55, 64
2, 19862528, Note_on_c, 0, 65, 100
2, 19863552, Note_off_c, 0, 63, 64
2, 19864576, Note_off_c, 0, 48, 64
2, 19871744, Note_on_c, 0, 48, 100
2, 19872768, Note_on_c, 0, 50, 100
2, 19879936, Note_off_c, 0, 50, 64
2, 19880960, Note_off_c, 0, 51, 64
2, 19888128, Note_on_c, 0, 51, 100
2, 19889152, Note_on_c, 0, 50, 100
2, 19896320, Note_off_c, 0, 67, 64
2, 19897344, Note_off_c, 0, 50, 64
2, 19898368, Note_off_c, 0, 48, 64
2, 19905536, Note_on_c, 0, 48, 100
2, 19906560, Note_on_c, 0, 46, 100
2, 19909632, Note_on_c, 0, 67, 100
2, 19912704, Note_off_c, 0, 72, 64
2, 19913728, Note_off_c, 0, 46, 64
2, 19914752, Note_on_c, 0, 45, 100
2, 19921920, Note_off_c, 0, 45, 64
2, 19922944, Note_off_c, 0, 48, 64
2, 19930112, Note_on_c, 0, 63, 100
2, 19931136, Note_on_c, 0, 57, 100
2, 19932160, Note_on_c, 0, 48, 100
2, 19933184, Note_on_c, 0, 53, 100
2, 19940352, Note_off_c, 0, 53, 64
2, 19941376, Note_off_c, 0, 51, 64
2, 19944448, Note_off_c, 0, 57, 64
2, 19947520, Note_on_c, 0, 60, 100
2, 19948544, Note_on_c, 0, 51, 100
2, 19949568, Note_on_c, 0, 50, 100
2, 19956736, Note_off_c, 0, 50, 64
2, 19957760, Note_off_c, 0, 48, 64
2, 19960832, Note_off_c, 0, 60, 64
2, 19963904, Note_off_c, 0, 62, 64
2, 19964928, Note_on_c, 0, 48, 100
2, 19965952, Note_on_c, 0, 46, 100
2, 19973120, Note_on_c, 0, 62, 100
2, 19974144, Note_off_c, 0, 63, 64
2, 19977216, Note_off_c, 0, 46, 64
2, 19980288, Note_on_c, 0, 72, 100
2, 19981312, Note_off_c, 0, 65, 64
2, 19982336, Note_on_c, 0, 63, 100
2, 19983360, Note_on_c, 0, 50, 100
2, 19990528, Note_on_c, 0, 65, 100
2, 19991552, Note_off_c, 0, 63, 64
2, 19994624, Note_off_c, 0, 65, 64
2, 19995648, Note_off_c, 0, 50, 64
2, 19998720, Note_on_c, 0, 69, 100
2, 19999744, Note_on_c, 0, 63, 100
2, 20000768, Note_off_c, 0, 62, 64
2, 20001792, Note_on_c, 0, 65, 100
2, 20002816, Note_on_c, 0, 53, 100
2, 20003840, Note_on_c, 0, 41, 100
2, 20004864, Note_on_c, 0, 29, 100
2, 20012032, Note_on_c, 0, 62, 100
2, 20013056, Note_on_c, 0, 60, 100
2, 20014080, Note_off_c, 0, 41, 64
2, 20015104, Note_off_c, 0, 29, 64
2, 20018176, Note_off_c, 0, 69, 64
2, 20019200, Note_off_c, 0, 65, 64
2, 20020224, Note_off_c, 0, 53, 64
2, 20023296, Note_on_c, 0, 70, 100
2, 20024320, Note_off_c, 0, 60, 64
2, 20025344, Note_off_c, 0, 62, 64
2, 20026368, Note_on_c, 0, 53, 100
2, 20027392, Note_off_c, 0, 58, 64
2, 20028416, Note_on_c, 0, 34, 100
2, 20029440, Note_on_c, 0, 46, 100
2, 20036608, Note_on_c, 0, 58, 100
2, 20037632, Note_on_c, 0, 60, 100
2, 20040704, Note_off_c, 0, 70, 64
2, 20041728, Note_on_c, 0, 62, 100
2, 20044800, Note_off_c, 0, 58, 64
2, 20045824, Note_off_c, 0, 60, 64
2, 20052992, Note_on_c, 0, 58, 100
2, 20054016, Note_on_c, 0, 57, 100
2, 20057088, Note_off_c, 0, 58, 64
2, 20060160, Note_off_c, 0, 62, 64
2, 20061184, Note_off_c, 0, 53, 64
2, 20062208, Note_off_c, 0, 57, 64
2, 20063232, Note_on_c, 0, 55, 100
2, 20064256, Note_off_c, 0, 34, 64
2, 20065280, Note_off_c, 0, 46, 64
2, 20072448, Note_off_c, 0, 55, 64
2, 20073472, Note_on_c, 0, 53, 100
2, 20076544, Note_on_c, 0, 62, 100
2, 20079616, Note_off_c, 0, 67, 64
2, 20080640, Note_off_c, 0, 53, 64
2, 20081664, Note_off_c, 0, 51, 64
2, 20088832, Note_on_c, 0, 51, 100
2, 20089856, Note_on_c, 0, 53, 100
2, 20097024, Note_off_c, 0, 53, 64
2, 20098048, Note_on_c, 0, 55, 100
2, 20105216, Note_off_c, 0, 55, 64
2, 20106240, Note_on_c, 0, 53, 100
2, 20113408, Note_on_c, 0, 70, 100
2, 20114432, Note_off_c, 0, 53, 64
2, 20115456, Note_off_c, 0, 51, 64
2, 20122624, Note_on_c, 0, 51, 100
2, 20123648, Note_on_c, 0, 50, 100
2, 20126720, Note_off_c, 0, 70, 64
2, 20129792, Note_on_c, 0, 75, 100
2, 20130816, Note_off_c, 0, 50, 64
2, 20131840, Note_off_c, 0, 48, 64
2, 20139008, Note_on_c, 0, 48, 100
2, 20140032, Note_off_c, 0, 51, 64
2, 20147200, Note_on_c, 0, 67, 100
2, 20148224, Note_on_c, 0, 60, 100
2, 20149248, Note_on_c, 0, 51, 100
2, 20150272, Note_on_c, 0, 57, 100
2, 20157440, Note_off_c, 0, 57, 64
2, 20158464, Note_on_c, 0, 55, 100
2, 20161536, Note_off_c, 0, 60, 64
2, 20164608, Note_off_c, 0, 63, 64
2, 20165632, Note_on_c, 0, 60, 100
2, 20166656, Note_on_c, 0, 57, 100
2, 20167680, Note_off_c, 0, 55, 64
2, 20168704, Note_on_c, 0, 53, 100
2, 20169728, Note_on_c, 0, 36, 100
2, 20170752, Note_off_c, 0, 48, 64
2, 20177920, Note_off_c, 0, 53, 64
2, 20178944, Note_off_c, 0, 51, 64
2, 20182016, Note_on_c, 0, 63, 100
2, 20183040, Note_off_c, 0, 60, 64
2, 20184064, Note_off_c, 0, 57, 64
2, 20185088, Note_off_c, 0, 36, 64
2, 20186112, Note_on_c, 0, 48, 100
2, 20189184, Note_on_c, 0, 65, 100
2, 20190208, Note_on_c, 0, 60, 100
2, 20191232, Note_on_c, 0, 53, 100
2, 20192256, Note_on_c, 0, 51, 100
2, 20193280, Note_on_c, 0, 50, 100
2, 20194304, Note_on_c, 0, 38, 100
2, 20201472, Note_off_c, 0, 50, 64
2, 20202496, Note_off_c, 0, 51, 64
2, 20209664, Note_off_c, 0, 75, 64
2, 20210688, Note_on_c, 0, 69, 100
2, 20211712, Note_on_c, 0, 51, 100
2, 20212736, Note_off_c, 0, 53, 64
2, 20219904, Note_on_c, 0, 53, 100
2, 20220928, Note_off_c, 0, 51, 64
2, 20224000, Note_off_c, 0, 69, 64
2, 20227072, Note_off_c, 0, 72, 64
2, 20228096, Note_on_c, 0, 51, 100
2, 20229120, Note_on_c, 0, 50, 100
2, 20236288, Note_off_c, 0, 50, 64
2, 20237312, Note_off_c, 0, 48, 64
2, 20240384, Note_on_c, 0, 72, 100
2, 20243456, Note_on_c, 0, 74, 100
2, 20244480, Note_off_c, 0, 60, 64
2, 20245504, Note_off_c, 0, 53, 64
2, 20246528, Note_on_c, 0, 48, 100
2, 20247552, Note_on_c, 0, 46, 100
2, 20248576, Note_off_c, 0, 38, 64
2, 20249600, Note_on_c, 0, 50, 100
2, 20256768, Note_off_c, 0, 46, 64
2, 20257792, Note_off_c, 0, 50, 64
2, 20264960, Note_off_c, 0, 65, 64
2, 20265984, Note_on_c, 0, 58, 100
2, 20267008, Note_on_c, 0, 50, 100
2, 20268032, Note_on_c, 0, 55, 100
2, 20275200, Note_off_c, 0, 55, 64
2, 20276224, Note_on_c, 0, 53, 100
2, 20279296, Note_off_c, 0, 58, 64
2, 20282368, Note_off_c, 0, 62, 64
2, 20283392, Note_on_c, 0, 58, 100
2, 20284416, Note_on_c, 0, 55, 100
2, 20285440, Note_off_c, 0, 53, 64
2, 20286464, Note_off_c, 0, 51, 64
2, 20287488, Note_on_c, 0, 34, 100
2, 20288512, Note_on_c, 0, 46, 100
2, 20295680, Note_on_c, 0, 51, 100
2, 20296704, Note_off_c, 0, 50, 64
2, 20299776, Note_on_c, 0, 62, 100
2, 20300800, Note_off_c, 0, 58, 64
2, 20301824, Note_off_c, 0, 55, 64
2, 20302848, Note_off_c, 0, 34, 64
2, 20303872, Note_off_c, 0, 46, 64
2, 20306944, Note_off_c, 0, 63, 64
2, 20307968, Note_on_c, 0, 58, 100
2, 20308992, Note_off_c, 0, 51, 64
2, 20310016, Note_on_c, 0, 50, 100
2, 20311040, Note_off_c, 0, 48, 64
2, 20312064, Note_on_c, 0, 36, 100
2, 20319232, Note_on_c, 0, 48, 100
2, 20320256, Note_off_c, 0, 50, 64
2, 20327424, Note_off_c, 0, 74, 64
2, 20328448, Note_off_c, 0, 67, 64
2, 20329472, Note_on_c, 0, 50, 100
2, 20330496, Note_on_c, 0, 51, 100
2, 20337664, Note_off_c, 0, 51, 64
2, 20338688, Note_off_c, 0, 50, 64
2, 20341760, Note_on_c, 0, 67, 100
2, 20344832, Note_on_c, 0, 70, 100
2, 20345856, Note_on_c, 0, 50, 100
2, 20346880, Note_off_c, 0, 48, 64
2, 20354048, Note_on_c, 0, 48, 100
2, 20355072, Note_on_c, 0, 46, 100
2, 20358144, Note_off_c, 0, 70, 64
2, 20361216, Note_off_c, 0, 72, 64
2, 20362240, Note_off_c, 0, 58, 64
2, 20363264, Note_on_c, 0, 51, 100
2, 20364288, Note_off_c, 0, 46, 64
2, 20365312, Note_on_c, 0, 45, 100
2, 20366336, Note_off_c, 0, 36, 64
2, 20367360, Note_off_c, 0, 48, 64
2, 20374528, Note_off_c, 0, 45, 64
2, 20375552, Note_on_c, 0, 48, 100
2, 20382720, Note_on_c, 0, 63, 100
2, 20383744, Note_on_c, 0, 57, 100
2, 20384768, Note_off_c, 0, 48, 64
2, 20385792, Note_on_c, 0, 53, 100
2, 20392960, Note_off_c, 0, 53, 64
2, 20393984, Note_off_c, 0, 51, 64
2, 20397056, Note_off_c, 0, 57, 64
2, 20400128, Note_on_c, 0, 60, 100
2, 20401152, Note_on_c, 0, 57, 100
2, 20402176, Note_on_c, 0, 53, 100
2, 20403200, Note_on_c, 0, 51, 100
2, 20404224, Note_off_c, 0, 50, 64
2, 20405248, Note_on_c, 0, 41, 100
2, 20406272, Note_on_c, 0, 29, 100
2, 20413440, Note_on_c, 0, 50, 100
2, 20414464, Note_on_c, 0, 48, 100
2, 20417536, Note_off_c, 0, 60, 64
2, 20418560, Note_off_c, 0, 57, 64
2, 20419584, Note_off_c, 0, 53, 64
2, 20420608, Note_off_c, 0, 41, 64
2, 20421632, Note_off_c, 0, 29, 64
2, 20424704, Note_off_c, 0, 62, 64
2, 20425728, Note_on_c, 0, 58, 100
2, 20426752, Note_off_c, 0, 48, 64
2, 20427776, Note_on_c, 0, 46, 100
2, 20428800, Note_on_c, 0, 34, 100
2, 20435968, Note_on_c, 0, 62, 100
2, 20436992, Note_on_c, 0, 60, 100
2, 20438016, Note_off_c, 0, 46, 64
2, 20439040, Note_on_c, 0, 45, 100
2, 20446208, Note_on_c, 0, 72, 100
2, 20447232, Note_on_c, 0, 65, 100
2, 20448256, Note_off_c, 0, 60, 64
2, 20449280, Note_off_c, 0, 62, 64
2, 20450304, Note_off_c, 0, 45, 64
2, 20451328, Note_on_c, 0, 46, 100
2, 20458496, Note_on_c, 0, 62, 100
2, 20459520, Note_off_c, 0, 63, 64
2, 20460544, Note_off_c, 0, 46, 64
2, 20461568, Note_on_c, 0, 48, 100
2, 20464640, Note_off_c, 0, 65, 64
2, 20467712, Note_on_c, 0, 70, 100
2, 20468736, Note_on_c, 0, 63, 100
2, 20469760, Note_on_c, 0, 65, 100
2, 20470784, Note_off_c, 0, 48, 64
2, 20471808, Note_off_c, 0, 50, 64
2, 20478976, Note_off_c, 0, 65, 64
2, 20480000, Note_off_c, 0, 67, 64
2, 20481024, Note_on_c, 0, 50, 100
2, 20482048, Note_off_c, 0, 51, 64
2, 20489216, Note_on_c, 0, 67, 100
2, 20490240, Note_on_c, 0, 60, 100
2, 20491264, Note_off_c, 0, 58, 64
2, 20492288, Note_on_c, 0, 51, 100
2, 20493312, Note_on_c, 0, 53, 100
2, 20494336, Note_off_c, 0, 34, 64
2, 20495360, Note_on_c, 0, 46, 100
2, 20502528, Note_off_c, 0, 53, 64
2, 20503552, Note_on_c, 0, 52, 100
2, 20506624, Note_off_c, 0, 60, 64
2, 20509696, Note_off_c, 0, 70, 64
2, 20510720, Note_on_c, 0, 69, 100
2, 20511744, Note_on_c, 0, 53, 100
2, 20512768, Note_off_c, 0, 52, 64
2, 20519936, Note_off_c, 0, 53, 64
2, 20520960, Note_on_c, 0, 48, 100
2, 20524032, Note_off_c, 0, 69, 64
2, 20525056, Note_on_c, 0, 53, 100
2, 20528128, Note_off_c, 0, 77, 64
2, 20529152, Note_off_c, 0, 48, 64
2, 20530176, Note_on_c, 0, 45, 100
2, 20537344, Note_off_c, 0, 45, 64
2, 20538368, Note_on_c, 0, 48, 100
2, 20545536, Note_on_c, 0, 69, 100
2, 20546560, Note_on_c, 0, 65, 100
2, 20547584, Note_off_c, 0, 48, 64
2, 20548608, Note_on_c, 0, 41, 100
2, 20549632, Note_on_c, 0, 29, 100
2, 20564992, Note_on_c, 0, 77, 100
2, 20566016, Note_off_c, 0, 72, 64
2, 20577280, Note_on_c, 0, 72, 100
2, 20580352, Note_on_c, 0, 74, 100
2, 20581376, Note_off_c, 0, 69, 64
2, 20582400, Note_off_c, 0, 65, 64
2, 20583424, Note_off_c, 0, 41, 64
2, 20584448, Note_off_c, 0, 29, 64
2, 20599808, Note_off_c, 0, 74, 64
2, 20600832, Note_on_c, 0, 70, 100
2, 20601856, Note_on_c, 0, 65, 100
2, 20602880, Note_off_c, 0, 53, 64
2, 20603904, Note_on_c, 0, 41, 100
2, 20619264, Note_on_c, 0, 74, 100
2, 20620288, Note_off_c, 0, 72, 64
2, 20631552, Note_on_c, 0, 72, 100
2, 20634624, Note_off_c, 0, 77, 64
2, 20635648, Note_off_c, 0, 70, 64
2, 20636672, Note_off_c, 0, 65, 64
2, 20637696, Note_on_c, 0, 53, 100
2, 20638720, Note_off_c, 0, 41, 64
2, 20654080, Note_on_c, 0, 69, 100
2, 20655104, Note_on_c, 0, 60, 100
2, 20656128, Note_on_c, 0, 41, 100
2, 20657152, Note_on_c, 0, 29, 100
2, 20672512, Note_on_c, 0, 77, 100
2, 20673536, Note_off_c, 0, 72, 64
2, 20684800, Note_on_c, 0, 72, 100
2, 20687872, Note_off_c, 0, 74, 64
2, 20688896, Note_off_c, 0, 69, 64
2, 20689920, Note_off_c, 0, 60, 64
2, 20690944, Note_off_c, 0, 41, 64
2, 20691968, Note_off_c, 0, 29, 64
2, 20707328, Note_on_c, 0, 65, 100
2, 20708352, Note_on_c, 0, 58, 100
2, 20709376, Note_off_c, 0, 53, 64
2, 20710400, Note_on_c, 0, 41, 100
2, 20717568, Note_on_c, 0, 53, 100
2, 20718592, Note_on_c, 0, 48, 100
2, 20725760, Note_on_c, 0, 74, 100
2, 20726784, Note_off_c, 0, 72, 64
2, 20727808, Note_off_c, 0, 48, 64
2, 20728832, Note_off_c, 0, 50, 64
2, 20736000, Note_on_c, 0, 50, 100
2, 20737024, Note_off_c, 0, 51, 64
2, 20740096, Note_on_c, 0, 72, 100
2, 20743168, Note_on_c, 0, 75, 100
2, 20744192, Note_off_c, 0, 65, 64
2, 20745216, Note_off_c, 0, 58, 64
2, 20746240, Note_on_c, 0, 57, 100
2, 20747264, Note_on_c, 0, 51, 100
2, 20748288, Note_off_c, 0, 53, 64
2, 20749312, Note_off_c, 0, 41, 64
2, 20756480, Note_on_c, 0, 53, 100
2, 20757504, Note_on_c, 0, 55, 100
2, 20760576, Note_on_c, 0, 65, 100
2, 20761600, Note_off_c, 0, 57, 64
2, 20764672, Note_off_c, 0, 72, 64
2, 20765696, Note_off_c, 0, 53, 64
2, 20766720, Note_off_c, 0, 55, 64
2, 20767744, Note_on_c, 0, 57, 100
2, 20774912, Note_on_c, 0, 72, 100
2, 20775936, Note_off_c, 0, 74, 64
2, 20776960, Note_off_c, 0, 57, 64
2, 20777984, Note_on_c, 0, 58, 100
2, 20785152, Note_off_c, 0, 75, 64
2, 20786176, Note_on_c, 0, 69, 100
2, 20787200, Note_on_c, 0, 74, 100
2, 20788224, Note_off_c, 0, 58, 64
2, 20789248, Note_on_c, 0, 60, 100
2, 20796416, Note_on_c, 0, 75, 100
2, 20797440, Note_off_c, 0, 74, 64
2, 20798464, Note_off_c, 0, 60, 64
2, 20799488, Note_on_c, 0, 58, 100
2, 20802560, Note_off_c, 0, 69, 64
2, 20805632, Note_off_c, 0, 72, 64
2, 20806656, Note_on_c, 0, 74, 100
2, 20807680, Note_on_c, 0, 53, 100
2, 20808704, Note_off_c, 0, 65, 64
2, 20809728, Note_off_c, 0, 58, 64
2, 20810752, Note_on_c, 0, 57, 100
2, 20817920, Note_on_c, 0, 72, 100
2, 20818944, Note_on_c, 0, 70, 100
2, 20819968, Note_off_c, 0, 57, 64
2, 20820992, Note_on_c, 0, 55, 100
2, 20824064, Note_on_c, 0, 65, 100
2, 20827136, Note_off_c, 0, 70, 64
2, 20828160, Note_on_c, 0, 69, 100
2, 20829184, Note_off_c, 0, 53, 64
2, 20830208, Note_off_c, 0, 55, 64
2, 20837376, Note_off_c, 0, 69, 64
2, 20838400, Note_on_c, 0, 70, 100
2, 20839424, Note_on_c, 0, 53, 100
2, 20840448, Note_on_c, 0, 55, 100
2, 20847616, Note_off_c, 0, 72, 64
2, 20848640, Note_off_c, 0, 65, 64
2, 20849664, Note_off_c, 0, 70, 64
2, 20850688, Note_off_c, 0, 55, 64
2, 20851712, Note_on_c, 0, 57, 100
2, 20858880, Note_on_c, 0, 72, 100
2, 20859904, Note_on_c, 0, 70, 100
2, 20860928, Note_off_c, 0, 57, 64
2, 20861952, Note_on_c, 0, 55, 100
2, 20865024, Note_on_c, 0, 65, 100
2, 20868096, Note_on_c, 0, 69, 100
2, 20869120, Note_off_c, 0, 70, 64
2, 20870144, Note_off_c, 0, 53, 64
2, 20871168, Note_off_c, 0, 65, 64
2, 20872192, Note_off_c, 0, 55, 64
2, 20879360, Note_off_c, 0, 69, 64
2, 20880384, Note_off_c, 0, 67, 64
2, 20881408, Note_on_c, 0, 53, 100
2, 20882432, Note_off_c, 0, 51, 64
2, 20885504, Note_on_c, 0, 65, 100
2, 20888576, Note_on_c, 0, 67, 100
2, 20889600, Note_off_c, 0, 65, 64
2, 20890624, Note_off_c, 0, 53, 64
2, 20891648, Note_on_c, 0, 51, 100
2, 20892672, Note_off_c, 0, 50, 64
2, 20899840, Note_on_c, 0, 65, 100
2, 20900864, Note_off_c, 0, 67, 64
2, 20901888, Note_on_c, 0, 50, 100
2, 20902912, Note_off_c, 0, 51, 64
2, 20910080, Note_on_c, 0, 69, 100
2, 20911104, Note_off_c, 0, 72, 64
2, 20912128, Note_on_c, 0, 67, 100
2, 20913152, Note_on_c, 0, 51, 100
2, 20914176, Note_on_c, 0, 53, 100
2, 20921344, Note_off_c, 0, 69, 64
2, 20922368, Note_on_c, 0, 70, 100
2, 20923392, Note_off_c, 0, 53, 64
2, 20924416, Note_off_c, 0, 51, 64
2, 20927488, Note_on_c, 0, 72, 100
2, 20930560, Note_off_c, 0, 75, 64
2, 20931584, Note_off_c, 0, 70, 64
2, 20932608, Note_off_c, 0, 72, 64
2, 20933632, Note_on_c, 0, 53, 100
2, 20934656, Note_on_c, 0, 69, 100
2, 20935680, Note_off_c, 0, 65, 64
2, 20936704, Note_on_c, 0, 51, 100
2, 20937728, Note_off_c, 0, 50, 64
2, 20938752, Note_on_c, 0, 41, 100
2, 20939776, Note_on_c, 0, 29, 100
2, 20946944, Note_on_c, 0, 72, 100
2, 20947968, Note_off_c, 0, 69, 64
2, 20948992, Note_on_c, 0, 50, 100
2, 20950016, Note_on_c, 0, 48, 100
2, 20953088, Note_on_c, 0, 69, 100
2, 20954112, Note_on_c, 0, 65, 100
2, 20955136, Note_off_c, 0, 41, 64
2, 20956160, Note_off_c, 0, 29, 64
2, 20959232, Note_off_c, 0, 69, 64
2, 20960256, Note_on_c, 0, 70, 100
2, 20961280, Note_off_c, 0, 65, 64
2, 20962304, Note_off_c, 0, 53, 64
2, 20963328, Note_off_c, 0, 48, 64
2, 20964352, Note_off_c, 0, 46, 64
2, 20965376, Note_on_c, 0, 34, 100
2, 20972544, Note_on_c, 0, 46, 100
2, 20973568, Note_on_c, 0, 53, 100
2, 20976640, Note_off_c, 0, 70, 64
2, 20979712, Note_on_c, 0, 75, 100
2, 20980736, Note_off_c, 0, 74, 64
2, 20981760, Note_on_c, 0, 58, 100
2, 20982784, Note_off_c, 0, 53, 64
2, 20983808, Note_on_c, 0, 55, 100
2, 20990976, Note_off_c, 0, 55, 64
2, 20992000, Note_on_c, 0, 57, 100
2, 20995072, Note_on_c, 0, 74, 100
2, 20996096, Note_off_c, 0, 58, 64
2, 20999168, Note_on_c, 0, 58, 100
2, 21000192, Note_off_c, 0, 68, 64
2, 21001216, Note_on_c, 0, 65, 100
2, 21002240, Note_on_c, 0, 53, 100
2, 21003264, Note_off_c, 0, 62, 64
2, 21004288, Note_off_c, 0, 57, 64
2, 21005312, Note_off_c, 0, 34, 64
2, 21006336, Note_off_c, 0, 46, 64
2, 21013504, Note_off_c, 0, 58, 64
2, 21014528, Note_on_c, 0, 60, 100
2, 21017600, Note_on_c, 0, 58, 100
2, 21018624, Note_off_c, 0, 65, 64
2, 21019648, Note_on_c, 0, 62, 100
2, 21022720, Note_on_c, 0, 65, 100
2, 21023744, Note_off_c, 0, 58, 64
2, 21024768, Note_off_c, 0, 60, 64
2, 21025792, Note_off_c, 0, 62, 64
2, 21032960, Note_off_c, 0, 65, 64
2, 21033984, Note_off_c, 0, 67, 64
2, 21035008, Note_on_c, 0, 62, 100
2, 21036032, Note_off_c, 0, 63, 64
2, 21043200, Note_on_c, 0, 67, 100
2, 21044224, Note_on_c, 0, 68, 100
2, 21045248, Note_off_c, 0, 62, 64
2, 21046272, Note_on_c, 0, 63, 100
2, 21047296, Note_on_c, 0, 65, 100
2, 21054464, Note_off_c, 0, 68, 64
2, 21055488, Note_off_c, 0, 67, 64
2, 21056512, Note_off_c, 0, 65, 64
2, 21057536, Note_off_c, 0, 63, 64
2, 21060608, Note_on_c, 0, 62, 100
2, 21063680, Note_on_c, 0, 67, 100
2, 21064704, Note_on_c, 0, 65, 100
2, 21065728, Note_on_c, 0, 58, 100
2, 21066752, Note_on_c, 0, 70, 100
2, 21067776, Note_on_c, 0, 63, 100
2, 21068800, Note_off_c, 0, 62, 64
2, 21075968, Note_off_c, 0, 65, 64
2, 21076992, Note_off_c, 0, 63, 64
2, 21078016, Note_on_c, 0, 62, 100
2, 21079040, Note_on_c, 0, 60, 100
2, 21082112, Note_off_c, 0, 70, 64
2, 21085184, Note_on_c, 0, 63, 100
2, 21086208, Note_off_c, 0, 62, 64
2, 21087232, Note_off_c, 0, 58, 64
2, 21088256, Note_off_c, 0, 60, 64
2, 21095424, Note_on_c, 0, 62, 100
2, 21096448, Note_off_c, 0, 63, 64
2, 21097472, Note_on_c, 0, 58, 100
2, 21098496, Note_on_c, 0, 60, 100
2, 21105664, Note_on_c, 0, 63, 100
2, 21106688, Note_on_c, 0, 65, 100
2, 21107712, Note_off_c, 0, 58, 64
2, 21108736, Note_off_c, 0, 60, 64
2, 21109760, Note_off_c, 0, 62, 64
2, 21116928, Note_off_c, 0, 65, 64
2, 21117952, Note_off_c, 0, 63, 64
2, 21118976, Note_on_c, 0, 62, 100
2, 21120000, Note_on_c, 0, 60, 100
2, 21123072, Note_on_c, 0, 58, 100
2, 21126144, Note_on_c, 0, 63, 100
2, 21127168, Note_off_c, 0, 62, 64
2, 21128192, Note_off_c, 0, 58, 64
2, 21129216, Note_on_c, 0, 70, 100
2, 21130240, Note_off_c, 0, 60, 64
2, 21137408, Note_on_c, 0, 62, 100
2, 21138432, Note_on_c, 0, 60, 100
2, 21139456, Note_on_c, 0, 58, 100
2, 21140480, Note_on_c, 0, 56, 100
2, 21143552, Note_off_c, 0, 70, 64
2, 21146624, Note_off_c, 0, 60, 64
2, 21147648, Note_off_c, 0, 58, 64
2, 21148672, Note_off_c, 0, 56, 64
2, 21149696, Note_on_c, 0, 55, 100
2, 21156864, Note_on_c, 0, 58, 100
2, 21157888, Note_on_c, 0, 60, 100
2, 21158912, Note_off_c, 0, 55, 64
2, 21159936, Note_on_c, 0, 56, 100
2, 21167104, Note_off_c, 0, 60, 64
2, 21168128, Note_off_c, 0, 62, 64
2, 21169152, Note_on_c, 0, 65, 100
2, 21170176, Note_off_c, 0, 56, 64
2, 21171200, Note_off_c, 0, 58, 64
2, 21178368, Note_on_c, 0, 62, 100
2, 21179392, Note_off_c, 0, 63, 64
2, 21180416, Note_on_c, 0, 58, 100
2, 21181440, Note_on_c, 0, 56, 100
2, 21184512, Note_off_c, 0, 65, 64
2, 21187584, Note_on_c, 0, 63, 100
2, 21188608, Note_on_c, 0, 65, 100
2, 21189632, Note_on_c, 0, 68, 100
2, 21190656, Note_off_c, 0, 58, 64
2, 21191680, Note_on_c, 0, 70, 100
2, 21192704, Note_off_c, 0, 62, 64
2, 21193728, Note_off_c, 0, 56, 64
2, 21194752, Note_on_c, 0, 55, 100
2, 21195776, Note_on_c, 0, 34, 100
2, 21196800, Note_on_c, 0, 46, 100
2, 21203968, Note_off_c, 0, 65, 64
2, 21204992, Note_on_c, 0, 62, 100
2, 21206016, Note_off_c, 0, 55, 64
2, 21207040, Note_off_c, 0, 53, 64
2, 21210112, Note_off_c, 0, 70, 64
2, 21211136, Note_off_c, 0, 62, 64
2, 21212160, Note_off_c, 0, 34, 64
2, 21213184, Note_off_c, 0, 46, 64
2, 21216256, Note_on_c, 0, 62, 100
2, 21217280, Note_off_c, 0, 63, 64
2, 21218304, Note_on_c, 0, 58, 100
2, 21219328, Note_on_c, 0, 53, 100
2, 21220352, Note_off_c, 0, 51, 64
2, 21221376, Note_on_c, 0, 39, 100
2, 21228544, Note_on_c, 0, 51, 100
2, 21229568, Note_on_c, 0, 52, 100
2, 21232640, Note_on_c, 0, 63, 100
2, 21235712, Note_off_c, 0, 51, 64
2, 21236736, Note_off_c, 0, 68, 64
2, 21237760, Note_off_c, 0, 67, 64
2, 21238784, Note_off_c, 0, 52, 64
2, 21239808, Note_on_c, 0, 55, 100
2, 21246976, Note_off_c, 0, 55, 64
2, 21248000, Note_on_c, 0, 52, 100
2, 21251072, Note_on_c, 0, 51, 100
2, 21252096, Note_on_c, 0, 67, 100
2, 21255168, Note_off_c, 0, 67, 64
2, 21256192, Note_off_c, 0, 58, 64
2, 21257216, Note_off_c, 0, 52, 64
2, 21258240, Note_off_c, 0, 51, 64
2, 21259264, Note_off_c, 0, 39, 64
2, 21266432, Note_on_c, 0, 51, 100
2, 21267456, Note_off_c, 0, 50, 64
2, 21274624, Note_on_c, 0, 60, 100
2, 21275648, Note_on_c, 0, 55, 100
2, 21276672, Note_on_c, 0, 50, 100
2, 21277696, Note_on_c, 0, 48, 100
2, 21278720, Note_on_c, 0, 40, 100
2, 21279744, Note_on_c, 0, 52, 100
2, 21286912, Note_off_c, 0, 48, 64
2, 21287936, Note_off_c, 0, 50, 64
2, 21295104, Note_on_c, 0, 67, 100
2, 21296128, Note_off_c, 0, 60, 64
2, 21297152, Note_on_c, 0, 50, 100
2, 21298176, Note_off_c, 0, 52, 64
2, 21305344, Note_on_c, 0, 52, 100
2, 21306368, Note_off_c, 0, 50, 64
2, 21309440, Note_on_c, 0, 60, 100
2, 21312512, Note_on_c, 0, 70, 100
2, 21313536, Note_off_c, 0, 60, 64
2, 21314560, Note_off_c, 0, 55, 64
2, 21315584, Note_on_c, 0, 50, 100
2, 21316608, Note_off_c, 0, 52, 64
2, 21317632, Note_off_c, 0, 40, 64
2, 21324800, Note_on_c, 0, 52, 100
2, 21325824, Note_on_c, 0, 48, 100
2, 21332992, Note_on_c, 0, 60, 100
2, 21334016, Note_off_c, 0, 53, 64
2, 21335040, Note_off_c, 0, 48, 64
2, 21336064, Note_on_c, 0, 41, 100
2, 21343232, Note_on_c, 0, 53, 100
2, 21344256, Note_on_c, 0, 55, 100
2, 21351424, Note_off_c, 0, 70, 64
2, 21352448, Note_on_c, 0, 69, 100
2, 21353472, Note_off_c, 0, 55, 64
2, 21354496, Note_on_c, 0, 57, 100
2, 21361664, Note_off_c, 0, 57, 64
2, 21362688, Note_on_c, 0, 55, 100
2, 21365760, Note_off_c, 0, 69, 64
2, 21368832, Note_on_c, 0, 69, 100
2, 21369856, Note_off_c, 0, 60, 64
2, 21370880, Note_off_c, 0, 53, 64
2, 21371904, Note_off_c, 0, 55, 64
2, 21372928, Note_off_c, 0, 41, 64
2, 21380096, Note_on_c, 0, 53, 100
2, 21381120, Note_off_c, 0, 51, 64
2, 21388288, Note_off_c, 0, 62, 64
2, 21389312, Note_on_c, 0, 57, 100
2, 21390336, Note_on_c, 0, 51, 100
2, 21391360, Note_off_c, 0, 50, 64
2, 21392384, Note_on_c, 0, 42, 100
2, 21393408, Note_off_c, 0, 54, 64
2, 21400576, Note_on_c, 0, 50, 100
2, 21401600, Note_off_c, 0, 52, 64
2, 21408768, Note_off_c, 0, 69, 64
2, 21409792, Note_on_c, 0, 62, 100
2, 21410816, Note_on_c, 0, 52, 100
2, 21411840, Note_on_c, 0, 54, 100
2, 21419008, Note_off_c, 0, 54, 64
2, 21420032, Note_off_c, 0, 52, 64
2, 21423104, Note_off_c, 0, 62, 64
2, 21426176, Note_off_c, 0, 72, 64
2, 21427200, Note_on_c, 0, 62, 100
2, 21428224, Note_off_c, 0, 57, 64
2, 21429248, Note_on_c, 0, 52, 100
2, 21430272, Note_on_c, 0, 54, 100
2, 21431296, Note_off_c, 0, 42, 64
2, 21438464, Note_off_c, 0, 54, 64
2, 21439488, Note_off_c, 0, 50, 64
2, 21446656, Note_off_c, 0, 62, 64
2, 21447680, Note_on_c, 0, 55, 100
2, 21448704, Note_on_c, 0, 50, 100
2, 21449728, Note_on_c, 0, 43, 100
2, 21456896, Note_off_c, 0, 55, 64
2, 21457920, Note_on_c, 0, 54, 100
2, 21465088, Note_on_c, 0, 72, 100
2, 21466112, Note_on_c, 0, 70, 100
2, 21467136, Note_off_c, 0, 54, 64
2, 21468160, Note_on_c, 0, 55, 100
2, 21475328, Note_off_c, 0, 55, 64
2, 21476352, Note_on_c, 0, 57, 100
2, 21479424, Note_off_c, 0, 70, 64
2, 21482496, Note_off_c, 0, 74, 64
2, 21483520, Note_on_c, 0, 62, 100
2, 21484544, Note_on_c, 0, 55, 100
2, 21485568, Note_off_c, 0, 57, 64
2, 21486592, Note_on_c, 0, 58, 100
2, 21487616, Note_off_c, 0, 43, 64
2, 21494784, Note_off_c, 0, 58, 64
2, 21495808, Note_off_c, 0, 55, 64
2, 21502976, Note_off_c, 0, 63, 64
2, 21504000, Note_on_c, 0, 65, 100
2, 21505024, Note_on_c, 0, 60, 100
2, 21506048, Note_on_c, 0, 55, 100
2, 21507072, Note_on_c, 0, 57, 100
2, 21508096, Note_on_c, 0, 45, 100
2, 21515264, Note_off_c, 0, 57, 64
2, 21516288, Note_off_c, 0, 55, 64
2, 21523456, Note_on_c, 0, 74, 100
2, 21524480, Note_off_c, 0, 72, 64
2, 21525504, Note_on_c, 0, 55, 100
2, 21526528, Note_on_c, 0, 57, 100
2, 21533696, Note_off_c, 0, 57, 64
2, 21534720, Note_on_c, 0, 58, 100
2, 21537792, Note_on_c, 0, 72, 100
2, 21540864, Note_off_c, 0, 75, 64
2, 21541888, Note_on_c, 0, 63, 100
2, 21542912, Note_off_c, 0, 60, 64
2, 21543936, Note_off_c, 0, 65, 64
2, 21544960, Note_off_c, 0, 58, 64
2, 21545984, Note_off_c, 0, 45, 64
2, 21547008, Note_on_c, 0, 57, 100
2, 21554176, Note_on_c, 0, 60, 100
2, 21555200, Note_off_c, 0, 57, 64
2, 21558272, Note_off_c, 0, 60, 64
2, 21561344, Note_on_c, 0, 65, 100
2, 21562368, Note_on_c, 0, 58, 100
2, 21563392, Note_on_c, 0, 57, 100
2, 21564416, Note_on_c, 0, 46, 100
2, 21571584, Note_off_c, 0, 58, 64
2, 21572608, Note_off_c, 0, 57, 64
2, 21579776, Note_on_c, 0, 75, 100
2, 21580800, Note_off_c, 0, 74, 64
2, 21581824, Note_on_c, 0, 57, 100
2, 21582848, Note_on_c, 0, 58, 100
2, 21590016, Note_off_c, 0, 58, 64
2, 21591040, Note_on_c, 0, 60, 100
2, 21594112, Note_on_c, 0, 74, 100
2, 21597184, Note_off_c, 0, 77, 64
2, 21598208, Note_off_c, 0, 65, 64
2, 21599232, Note_off_c, 0, 62, 64
2, 21600256, Note_on_c, 0, 58, 100
2, 21601280, Note_off_c, 0, 60, 64
2, 21602304, Note_off_c, 0, 46, 64
2, 21609472, Note_on_c, 0, 62, 100
2, 21610496, Note_off_c, 0, 58, 64
2, 21613568, Note_off_c, 0, 62, 64
2, 21616640, Note_off_c, 0, 67, 64
2, 21617664, Note_on_c, 0, 58, 100
2, 21618688, Note_off_c, 0, 55, 64
2, 21619712, Note_off_c, 0, 51, 64
2, 21620736, Note_on_c, 0, 39, 100
2, 21627904, Note_on_c, 0, 51, 100
2, 21628928, Note_off_c, 0, 50, 64
2, 21636096, Note_on_c, 0, 77, 100
2, 21637120, Note_off_c, 0, 75, 64
2, 21638144, Note_on_c, 0, 50, 100
2, 21639168, Note_off_c, 0, 51, 64
2, 21646336, Note_on_c, 0, 75, 100
2, 21647360, Note_off_c, 0, 74, 64
2, 21648384, Note_on_c, 0, 67, 100
2, 21649408, Note_on_c, 0, 65, 100
2, 21650432, Note_on_c, 0, 51, 100
2, 21651456, Note_off_c, 0, 53, 64
2, 21658624, Note_on_c, 0, 74, 100
2, 21659648, Note_off_c, 0, 72, 64
2, 21660672, Note_off_c, 0, 65, 64
2, 21661696, Note_off_c, 0, 63, 64
2, 21662720, Note_off_c, 0, 58, 64
2, 21663744, Note_on_c, 0, 55, 100
2, 21664768, Note_on_c, 0, 53, 100
2, 21665792, Note_off_c, 0, 39, 64
2, 21666816, Note_off_c, 0, 51, 64
2, 21673984, Note_on_c, 0, 72, 100
2, 21675008, Note_on_c, 0, 70, 100
2, 21676032, Note_on_c, 0, 63, 100
2, 21677056, Note_on_c, 0, 62, 100
2, 21678080, Note_off_c, 0, 55, 64
2, 21679104, Note_on_c, 0, 51, 100
2, 21686272, Note_off_c, 0, 70, 64
2, 21687296, Note_on_c, 0, 69, 100
2, 21688320, Note_off_c, 0, 62, 64
2, 21689344, Note_on_c, 0, 60, 100
2, 21690368, Note_on_c, 0, 65, 100
2, 21691392, Note_off_c, 0, 51, 64
2, 21692416, Note_off_c, 0, 53, 64
2, 21693440, Note_on_c, 0, 41, 100
2, 21700608, Note_off_c, 0, 69, 64
2, 21701632, Note_off_c, 0, 67, 64
2, 21702656, Note_off_c, 0, 60, 64
2, 21703680, Note_on_c, 0, 58, 100
2, 21706752, Note_on_c, 0, 53, 100
2, 21709824, Note_on_c, 0, 67, 100
2, 21710848, Note_off_c, 0, 65, 64
2, 21711872, Note_off_c, 0, 58, 64
2, 21712896, Note_off_c, 0, 57, 64
2, 21713920, Note_off_c, 0, 41, 64
2, 21721088, Note_on_c, 0, 65, 100
2, 21722112, Note_off_c, 0, 63, 64
2, 21723136, Note_on_c, 0, 57, 100
2, 21724160, Note_on_c, 0, 55, 100
2, 21727232, Note_on_c, 0, 41, 100
2, 21730304, Note_on_c, 0, 63, 100
2, 21731328, Note_on_c, 0, 62, 100
2, 21732352, Note_off_c, 0, 55, 64
2, 21733376, Note_off_c, 0, 53, 64
2, 21734400, Note_off_c, 0, 65, 64
2, 21735424, Note_on_c, 0, 60, 100
2, 21736448, Note_off_c, 0, 41, 64
2, 21743616, Note_off_c, 0, 62, 64
2, 21744640, Note_off_c, 0, 60, 64
2, 21745664, Note_on_c, 0, 53, 100
2, 21746688, Note_on_c, 0, 51, 100
2, 21749760, Note_off_c, 0, 53, 64
2, 21752832, Note_on_c, 0, 60, 100
2, 21753856, Note_on_c, 0, 58, 100
2, 21754880, Note_off_c, 0, 51, 64
2, 21755904, Note_off_c, 0, 50, 64
2, 21756928, Note_on_c, 0, 46, 100
2, 21764096, Note_off_c, 0, 58, 64
2, 21765120, Note_off_c, 0, 57, 64
2, 21768192, Note_on_c, 0, 50, 100
2, 21771264, Note_on_c, 0, 57, 100
2, 21772288, Note_on_c, 0, 58, 100
2, 21773312, Note_off_c, 0, 46, 64
2, 21774336, Note_off_c, 0, 50, 64
2, 21781504, Note_on_c, 0, 53, 100
2, 21784576, Note_off_c, 0, 58, 64
2, 21785600, Note_on_c, 0, 50, 100
2, 21788672, Note_off_c, 0, 53, 64
2, 21789696, Note_on_c, 0, 55, 100
2, 21796864, Note_off_c, 0, 55, 64
2, 21797888, Note_off_c, 0, 57, 64
2, 21800960, Note_on_c, 0, 53, 100
2, 21804032, Note_on_c, 0, 57, 100
2, 21805056, Note_on_c, 0, 58, 100
2, 21806080, Note_on_c, 0, 45, 100
2, 21813248, Note_off_c, 0, 58, 64
2, 21814272, Note_off_c, 0, 57, 64
2, 21821440, Note_on_c, 0, 57, 100
2, 21822464, Note_on_c, 0, 58, 100
2, 21823488, Note_off_c, 0, 45, 64
2, 21824512, Note_off_c, 0, 50, 64
2, 21831680, Note_off_c, 0, 53, 64
2, 21834752, Note_off_c, 0, 58, 64
2, 21835776, Note_on_c, 0, 50, 100
2, 21838848, Note_on_c, 0, 53, 100
2, 21839872, Note_on_c, 0, 55, 100
2, 21847040, Note_off_c, 0, 55, 64
2, 21848064, Note_off_c, 0, 57, 64
2, 21851136, Note_off_c, 0, 53, 64
2, 21854208, Note_on_c, 0, 57, 100
2, 21855232, Note_on_c, 0, 58, 100
2, 21856256, Note_on_c, 0, 43, 100
2, 21863424, Note_off_c, 0, 58, 64
2, 21864448, Note_off_c, 0, 57, 64
2, 21871616, Note_on_c, 0, 57, 100
2, 21872640, Note_on_c, 0, 58, 100
2, 21873664, Note_off_c, 0, 43, 64
2, 21874688, Note_on_c, 0, 46, 100
2, 21881856, Note_on_c, 0, 53, 100
2, 21884928, Note_off_c, 0, 58, 64
2, 21885952, Note_off_c, 0, 46, 64
2, 21889024, Note_off_c, 0, 53, 64
2, 21890048, Note_on_c, 0, 55, 100
2, 21891072, Note_off_c, 0, 50, 64
2, 21898240, Note_off_c, 0, 55, 64
2, 21899264, Note_off_c, 0, 57, 64
2, 21902336, Note_on_c, 0, 50, 100
2, 21905408, Note_on_c, 0, 57, 100
2, 21906432, Note_on_c, 0, 58, 100
2, 21907456, Note_on_c, 0, 41, 100
2, 21914624, Note_off_c, 0, 58, 64
2, 21915648, Note_off_c, 0, 57, 64
2, 21922816, Note_on_c, 0, 57, 100
2, 21923840, Note_on_c, 0, 58, 100
2, 21924864, Note_off_c, 0, 41, 64
2, 21925888, Note_on_c, 0, 46, 100
2, 21933056, Note_on_c, 0, 55, 100
2, 21936128, Note_off_c, 0, 58, 64
2, 21937152, Note_off_c, 0, 46, 64
2, 21940224, Note_off_c, 0, 55, 64
2, 21941248, Note_off_c, 0, 57, 64
2, 21942272, Note_off_c, 0, 50, 64
2, 21949440, Note_on_c, 0, 57, 100
2, 21950464, Note_on_c, 0, 58, 100
2, 21953536, Note_on_c, 0, 50, 100
2, 21956608, Note_off_c, 0, 58, 64
2, 21957632, Note_off_c, 0, 60, 64
2, 21958656, Note_on_c, 0, 39, 100
2, 21965824, Note_on_c, 0, 60, 100
2, 21966848, Note_on_c, 0, 58, 100
2, 21974016, Note_off_c, 0, 58, 64
2, 21975040, Note_off_c, 0, 60, 64
2, 21976064, Note_off_c, 0, 39, 64
2, 21977088, Note_on_c, 0, 43, 100
2, 21984256, Note_on_c, 0, 60, 100
2, 21985280, Note_on_c, 0, 58, 100
2, 21986304, Note_on_c, 0, 55, 100
2, 21989376, Note_off_c, 0, 43, 64
2, 21992448, Note_off_c, 0, 58, 64
2, 21993472, Note_off_c, 0, 57, 64
2, 21994496, Note_off_c, 0, 55, 64
2, 21995520, Note_on_c, 0, 48, 100
2, 22002688, Note_on_c, 0, 57, 100
2, 22003712, Note_on_c, 0, 55, 100
2, 22004736, Note_on_c, 0, 58, 100
2, 22007808, Note_off_c, 0, 48, 64
2, 22010880, Note_off_c, 0, 55, 64
2, 22011904, Note_on_c, 0, 53, 100
2, 22012928, Note_off_c, 0, 58, 64
2, 22013952, Note_off_c, 0, 60, 64
2, 22014976, Note_on_c, 0, 45, 100
2, 22022144, Note_on_c, 0, 60, 100
2, 22023168, Note_on_c, 0, 58, 100
2, 22026240, Note_off_c, 0, 53, 64
2, 22029312, Note_off_c, 0, 57, 64
2, 22030336, Note_off_c, 0, 58, 64
2, 22031360, Note_off_c, 0, 60, 64
2, 22032384, Note_off_c, 0, 45, 64
2, 22033408, Note_on_c, 0, 48, 100
2, 22040576, Note_on_c, 0, 60, 100
2, 22041600, Note_on_c, 0, 58, 100
2, 22044672, Note_on_c, 0, 57, 100
2, 22045696, Note_off_c, 0, 48, 64
2, 22048768, Note_off_c, 0, 60, 64
2, 22049792, Note_off_c, 0, 58, 64
2, 22050816, Note_off_c, 0, 57, 64
2, 22051840, Note_on_c, 0, 41, 100
2, 22059008, Note_on_c, 0, 57, 100
2, 22060032, Note_on_c, 0, 55, 100
2, 22063104, Note_on_c, 0, 60, 100
2, 22064128, Note_off_c, 0, 41, 64
2, 22067200, Note_on_c, 0, 62, 100
2, 22068224, Note_off_c, 0, 55, 64
2, 22069248, Note_on_c, 0, 53, 100
2, 22070272, Note_on_c, 0, 46, 100
2, 22077440, Note_off_c, 0, 62, 64
2, 22078464, Note_off_c, 0, 60, 64
2, 22079488, Note_off_c, 0, 53, 64
2, 22080512, Note_on_c, 0, 51, 100
2, 22087680, Note_on_c, 0, 60, 100
2, 22088704, Note_on_c, 0, 62, 100
2, 22089728, Note_off_c, 0, 51, 64
2, 22090752, Note_on_c, 0, 53, 100
2, 22091776, Note_off_c, 0, 46, 64
2, 22092800, Note_off_c, 0, 50, 64
2, 22099968, Note_off_c, 0, 62, 64
2, 22100992, Note_off_c, 0, 63, 64
2, 22102016, Note_off_c, 0, 53, 64
2, 22103040, Note_on_c, 0, 55, 100
2, 22106112, Note_on_c, 0, 50, 100
2, 22109184, Note_on_c, 0, 63, 100
2, 22110208, Note_on_c, 0, 62, 100
2, 22111232, Note_off_c, 0, 55, 64
2, 22112256, Note_on_c, 0, 53, 100
2, 22119424, Note_off_c, 0, 62, 64
2, 22120448, Note_off_c, 0, 60, 64
2, 22121472, Note_off_c, 0, 53, 64
2, 22122496, Note_on_c, 0, 51, 100
2, 22125568, Note_on_c, 0, 53, 100
2, 22128640, Note_on_c, 0, 60, 100
2, 22129664, Note_on_c, 0, 58, 100
2, 22130688, Note_off_c, 0, 51, 64
2, 22131712, Note_off_c, 0, 50, 64
2, 22138880, Note_off_c, 0, 58, 64
2, 22139904, Note_on_c, 0, 62, 100
2, 22147072, Note_off_c, 0, 62, 64
2, 22148096, Note_on_c, 0, 65, 100
2, 22149120, Note_on_c, 0, 58, 100
2, 22150144, Note_off_c, 0, 57, 64
2, 22157312, Note_off_c, 0, 65, 64
2, 22158336, Note_on_c, 0, 70, 100
2, 22161408, Note_on_c, 0, 57, 100
2, 22164480, Note_off_c, 0, 70, 64
2, 22165504, Note_off_c, 0, 74, 64
2, 22166528, Note_on_c, 0, 50, 100
2, 22167552, Note_off_c, 0, 77, 64
2, 22168576, Note_off_c, 0, 58, 64
2, 22175744, Note_on_c, 0, 74, 100
2, 22176768, Note_off_c, 0, 75, 64
2, 22179840, Note_on_c, 0, 58, 100
2, 22182912, Note_on_c, 0, 75, 100
2, 22183936, Note_on_c, 0, 77, 100
2, 22184960, Note_on_c, 0, 70, 100
2, 22185984, Note_on_c, 0, 65, 100
2, 22187008, Note_off_c, 0, 50, 64
2, 22188032, Note_on_c, 0, 38, 100
2, 22199296, Note_off_c, 0, 77, 64
2, 22202368, Note_off_c, 0, 70, 64
2, 22213632, Note_on_c, 0, 70, 100
2, 22216704, Note_off_c, 0, 74, 64
2, 22217728, Note_off_c, 0, 70, 64
2, 22218752, Note_off_c, 0, 65, 64
2, 22219776, Note_on_c, 0, 50, 100
2, 22220800, Note_off_c, 0, 38, 64
2, 22236160, Note_on_c, 0, 70, 100
2, 22237184, Note_on_c, 0, 65, 100
2, 22238208, Note_on_c, 0, 55, 100
2, 22239232, Note_on_c, 0, 43, 100
2, 22254592, Note_on_c, 0, 74, 100
2, 22255616, Note_off_c, 0, 67, 64
2, 22266880, Note_on_c, 0, 67, 100
2, 22269952, Note_off_c, 0, 75, 64
2, 22270976, Note_off_c, 0, 70, 64
2, 22272000, Note_off_c, 0, 65, 64
2, 22273024, Note_off_c, 0, 55, 64
2, 22274048, Note_off_c, 0, 43, 64
2, 22289408, Note_on_c, 0, 70, 100
2, 22290432, Note_off_c, 0, 63, 64
2, 22291456, Note_on_c, 0, 48, 100
2, 22292480, Note_on_c, 0, 36, 100
2, 22307840, Note_on_c, 0, 75, 100
2, 22308864, Note_on_c, 0, 69, 100
2, 22320128, Note_off_c, 0, 69, 64
2, 22323200, Note_off_c, 0, 72, 64
2, 22324224, Note_off_c, 0, 70, 64
2, 22325248, Note_on_c, 0, 63, 100
2, 22326272, Note_off_c, 0, 48, 64
2, 22327296, Note_off_c, 0, 36, 64
2, 22342656, Note_on_c, 0, 69, 100
2, 22343680, Note_on_c, 0, 65, 100
2, 22344704, Note_off_c, 0, 53, 64
2, 22345728, Note_on_c, 0, 41, 100
2, 22361088, Note_on_c, 0, 72, 100
2, 22362112, Note_off_c, 0, 65, 64
2, 22373376, Note_on_c, 0, 65, 100
2, 22376448, Note_off_c, 0, 74, 64
2, 22377472, Note_off_c, 0, 69, 64
2, 22378496, Note_off_c, 0, 65, 64
2, 22379520, Note_on_c, 0, 53, 100
2, 22380544, Note_off_c, 0, 41, 64
2, 22395904, Note_on_c, 0, 70, 100
2, 22396928, Note_on_c, 0, 65, 100
2, 22397952, Note_on_c, 0, 46, 100
2, 22398976, Note_on_c, 0, 34, 100
2, 22406144, Note_on_c, 0, 74, 100
2, 22407168, Note_off_c, 0, 70, 64
2, 22414336, Note_on_c, 0, 70, 100
2, 22415360, Note_on_c, 0, 69, 100
2, 22416384, Note_off_c, 0, 74, 64
2, 22417408, Note_off_c, 0, 65, 64
2, 22424576, Note_off_c, 0, 69, 64
2, 22425600, Note_off_c, 0, 67, 64
2, 22428672, Note_on_c, 0, 65, 100
2, 22431744, Note_on_c, 0, 67, 100
2, 22432768, Note_off_c, 0, 65, 64
2, 22433792, Note_off_c, 0, 70, 64
2, 22434816, Note_off_c, 0, 46, 64
2, 22435840, Note_off_c, 0, 58, 64
2, 22436864, Note_off_c, 0, 34, 64
2, 22444032, Note_on_c, 0, 65, 100
2, 22445056, Note_off_c, 0, 63, 64
2, 22448128, Note_on_c, 0, 58, 100
2, 22451200, Note_on_c, 0, 63, 100
2, 22452224, Note_on_c, 0, 62, 100
2, 22453248, Note_on_c, 0, 46, 100
2, 22460416, Note_off_c, 0, 62, 64
2, 22461440, Note_off_c, 0, 67, 64
2, 22468608, Note_on_c, 0, 67, 100
2, 22469632, Note_off_c, 0, 65, 64
2, 22470656, Note_on_c, 0, 70, 100
2, 22471680, Note_on_c, 0, 62, 100
2, 22478848, Note_on_c, 0, 65, 100
2, 22479872, Note_off_c, 0, 63, 64
2, 22482944, Note_off_c, 0, 62, 64
2, 22486016, Note_on_c, 0, 63, 100
2, 22487040, Note_on_c, 0, 62, 100
2, 22488064, Note_off_c, 0, 65, 64
2, 22489088, Note_off_c, 0, 46, 64
2, 22490112, Note_off_c, 0, 58, 64
2, 22497280, Note_off_c, 0, 62, 64
2, 22498304, Note_off_c, 0, 60, 64
2, 22501376, Note_on_c, 0, 58, 100
2, 22504448, Note_on_c, 0, 60, 100
2, 22505472, Note_off_c, 0, 58, 64
2, 22506496, Note_on_c, 0, 46, 100
2, 22513664, Note_on_c, 0, 58, 100
2, 22514688, Note_off_c, 0, 53, 64
2, 22521856, Note_on_c, 0, 53, 100
2, 22522880, Note_on_c, 0, 55, 100
2, 22523904, Note_on_c, 0, 65, 100
2, 22524928, Note_off_c, 0, 58, 64
2, 22532096, Note_off_c, 0, 55, 64
2, 22533120, Note_off_c, 0, 57, 64
2, 22536192, Note_on_c, 0, 58, 100
2, 22539264, Note_on_c, 0, 57, 100
2, 22540288, Note_off_c, 0, 58, 64
2, 22541312, Note_on_c, 0, 62, 100
2, 22542336, Note_off_c, 0, 46, 64
2, 22549504, Note_on_c, 0, 58, 100
2, 22550528, Note_off_c, 0, 60, 64
2, 22553600, Note_off_c, 0, 62, 64
2, 22554624, Note_off_c, 0, 58, 64
2, 22557696, Note_on_c, 0, 60, 100
2, 22558720, Note_on_c, 0, 62, 100
2, 22559744, Note_off_c, 0, 65, 64
2, 22560768, Note_on_c, 0, 46, 100
2, 22567936, Note_off_c, 0, 62, 64
2, 22568960, Note_off_c, 0, 60, 64
2, 22572032, Note_on_c, 0, 65, 100
2, 22575104, Note_on_c, 0, 60, 100
2, 22576128, Note_on_c, 0, 58, 100
2, 22577152, Note_on_c, 0, 62, 100
2, 22584320, Note_off_c, 0, 58, 64
2, 22585344, Note_off_c, 0, 60, 64
2, 22588416, Note_off_c, 0, 62, 64
2, 22591488, Note_on_c, 0, 60, 100
2, 22592512, Note_on_c, 0, 62, 100
2, 22593536, Note_off_c, 0, 65, 64
2, 22594560, Note_off_c, 0, 46, 64
2, 22595584, Note_on_c, 0, 58, 100
2, 22602752, Note_off_c, 0, 62, 64
2, 22603776, Note_off_c, 0, 63, 64
2, 22606848, Note_on_c, 0, 65, 100
2, 22607872, Note_off_c, 0, 58, 64
2, 22610944, Note_on_c, 0, 63, 100
2, 22611968, Note_off_c, 0, 65, 64
2, 22612992, Note_off_c, 0, 70, 64
2, 22614016, Note_on_c, 0, 62, 100
2, 22615040, Note_on_c, 0, 58, 100
2, 22616064, Note_on_c, 0, 46, 100
2, 22617088, Note_on_c, 0, 34, 100
2, 22628352, Note_on_c, 0, 65, 100
2, 22629376, Note_on_c, 0, 70, 100
2, 22632448, Note_off_c, 0, 58, 64
2, 22633472, Note_off_c, 0, 65, 64
2, 22644736, Note_on_c, 0, 58, 100
2, 22645760, Note_on_c, 0, 65, 100
2, 22648832, Note_off_c, 0, 67, 64
2, 22649856, Note_off_c, 0, 62, 64
2, 22650880, Note_off_c, 0, 58, 64
2, 22651904, Note_off_c, 0, 46, 64
2, 22652928, Note_off_c, 0, 34, 64
2, 22668288, Note_off_c, 0, 63, 64
2, 22669312, Note_on_c, 0, 58, 100
2, 22670336, Note_on_c, 0, 46, 100
2, 22685696, Note_on_c, 0, 67, 100
2, 22686720, Note_off_c, 0, 65, 64
2, 22693888, Note_on_c, 0, 65, 100
2, 22694912, Note_on_c, 0, 63, 100
2, 22697984, Note_off_c, 0, 65, 64
2, 22701056, Note_off_c, 0, 70, 64
2, 22702080, Note_off_c, 0, 63, 64
2, 22703104, Note_on_c, 0, 62, 100
2, 22704128, Note_off_c, 0, 58, 64
2, 22705152, Note_off_c, 0, 46, 64
2, 22712320, Note_off_c, 0, 62, 64
2, 22713344, Note_off_c, 0, 60, 64
2, 22720512, Note_on_c, 0, 60, 100
2, 22721536, Note_on_c, 0, 62, 100
2, 22722560, Note_on_c, 0, 65, 100
2, 22723584, Note_on_c, 0, 58, 100
2, 22724608, Note_on_c, 0, 46, 100
2, 22725632, Note_on_c, 0, 34, 100
2, 22732800, Note_off_c, 0, 62, 64
2, 22733824, Note_on_c, 0, 63, 100
2, 22740992, Note_on_c, 0, 70, 100
2, 22742016, Note_off_c, 0, 65, 64
2, 22743040, Note_off_c, 0, 63, 64
2, 22750208, Note_on_c, 0, 65, 100
2, 22751232, Note_on_c, 0, 63, 100
2, 22754304, Note_off_c, 0, 65, 64
2, 22757376, Note_off_c, 0, 67, 64
2, 22758400, Note_off_c, 0, 63, 64
2, 22759424, Note_on_c, 0, 62, 100
2, 22760448, Note_on_c, 0, 65, 100
2, 22761472, Note_off_c, 0, 58, 64
2, 22762496, Note_off_c, 0, 46, 64
2, 22763520, Note_off_c, 0, 34, 64
2, 22770688, Note_off_c, 0, 62, 64
2, 22771712, Note_off_c, 0, 60, 64
2, 22778880, Note_on_c, 0, 60, 100
2, 22779904, Note_on_c, 0, 58, 100
2, 22780928, Note_on_c, 0, 46, 100
2, 22788096, Note_off_c, 0, 58, 64
2, 22789120, Note_off_c, 0, 60, 64
2, 22796288, Note_on_c, 0, 67, 100
2, 22797312, Note_off_c, 0, 65, 64
2, 22798336, Note_on_c, 0, 60, 100
2, 22799360, Note_on_c, 0, 62, 100
2, 22806528, Note_off_c, 0, 62, 64
2, 22807552, Note_off_c, 0, 60, 64
2, 22810624, Note_on_c, 0, 65, 100
2, 22813696, Note_off_c, 0, 70, 64
2, 22814720, Note_on_c, 0, 60, 100
2, 22815744, Note_on_c, 0, 58, 100
2, 22816768, Note_off_c, 0, 46, 64
2, 22823936, Note_off_c, 0, 58, 64
2, 22824960, Note_off_c, 0, 57, 64
2, 22828032, Note_on_c, 0, 46, 100
2, 22831104, Note_on_c, 0, 57, 100
2, 22832128, Note_on_c, 0, 55, 100
2, 22833152, Note_on_c, 0, 51, 100
2, 22840320, Note_off_c, 0, 55, 64
2, 22841344, Note_off_c, 0, 57, 64
2, 22848512, Note_on_c, 0, 70, 100
2, 22849536, Note_off_c, 0, 67, 64
2, 22850560, Note_on_c, 0, 57, 100
2, 22851584, Note_on_c, 0, 58, 100
2, 22858752, Note_off_c, 0, 58, 64
2, 22859776, Note_on_c, 0, 62, 100
2, 22862848, Note_on_c, 0, 67, 100
2, 22865920, Note_off_c, 0, 75, 64
2, 22866944, Note_off_c, 0, 62, 64
2, 22867968, Note_off_c, 0, 60, 64
2, 22868992, Note_off_c, 0, 51, 64
2, 22870016, Note_on_c, 0, 48, 100
2, 22877184, Note_on_c, 0, 60, 100
2, 22878208, Note_on_c, 0, 58, 100
2, 22881280, Note_off_c, 0, 48, 64
2, 22884352, Note_off_c, 0, 58, 64
2, 22885376, Note_off_c, 0, 57, 64
2, 22886400, Note_off_c, 0, 53, 64
2, 22893568, Note_on_c, 0, 57, 100
2, 22894592, Note_on_c, 0, 58, 100
2, 22901760, Note_on_c, 0, 75, 100
2, 22902784, Note_on_c, 0, 69, 100
2, 22903808, Note_off_c, 0, 58, 64
2, 22904832, Note_off_c, 0, 60, 64
2, 22912000, Note_on_c, 0, 60, 100
2, 22913024, Note_on_c, 0, 63, 100
2, 22916096, Note_off_c, 0, 69, 64
2, 22919168, Note_on_c, 0, 77, 100
2, 22920192, Note_off_c, 0, 63, 64
2, 22921216, Note_on_c, 0, 62, 100
2, 22922240, Note_on_c, 0, 53, 100
2, 22923264, Note_off_c, 0, 57, 64
2, 22930432, Note_off_c, 0, 62, 64
2, 22931456, Note_off_c, 0, 60, 64
2, 22934528, Note_on_c, 0, 57, 100
2, 22937600, Note_off_c, 0, 77, 64
2, 22938624, Note_on_c, 0, 74, 100
2, 22939648, Note_on_c, 0, 60, 100
2, 22940672, Note_on_c, 0, 58, 100
2, 22947840, Note_off_c, 0, 58, 64
2, 22948864, Note_off_c, 0, 57, 64
2, 22951936, Note_off_c, 0, 74, 64
2, 22952960, Note_on_c, 0, 58, 100
2, 22956032, Note_off_c, 0, 70, 64
2, 22957056, Note_on_c, 0, 57, 100
2, 22958080, Note_off_c, 0, 58, 64
2, 22959104, Note_off_c, 0, 50, 64
2, 22966272, Note_on_c, 0, 58, 100
2, 22967296, Note_on_c, 0, 62, 100
2, 22970368, Note_on_c, 0, 70, 100
2, 22971392, Note_on_c, 0, 50, 100
2, 22974464, Note_on_c, 0, 69, 100
2, 22975488, Note_off_c, 0, 62, 64
2, 22976512, Note_off_c, 0, 60, 64
2, 22977536, Note_off_c, 0, 53, 64
2, 22984704, Note_on_c, 0, 60, 100
2, 22985728, Note_on_c, 0, 63, 100
2, 22988800, Note_off_c, 0, 69, 64
2, 22989824, Note_on_c, 0, 53, 100
2, 22992896, Note_off_c, 0, 70, 64
2, 22993920, Note_off_c, 0, 63, 64
2, 22994944, Note_on_c, 0, 62, 100
2, 22995968, Note_off_c, 0, 46, 64
2, 23003136, Note_on_c, 0, 70, 100
2, 23004160, Note_off_c, 0, 65, 64
2, 23005184, Note_off_c, 0, 62, 64
2, 23012352, Note_on_c, 0, 65, 100
2, 23013376, Note_on_c, 0, 62, 100
2, 23020544, Note_off_c, 0, 62, 64
2, 23021568, Note_off_c, 0, 58, 64
2, 23028736, Note_on_c, 0, 58, 100
2, 23029760, Note_on_c, 0, 62, 100
2, 23030784, Note_on_c, 0, 46, 100
2, 23037952, Note_off_c, 0, 62, 64
2, 23038976, Note_off_c, 0, 65, 64
2, 23046144, Note_on_c, 0, 65, 100
2, 23047168, Note_off_c, 0, 70, 64
2, 23048192, Note_on_c, 0, 62, 100
2, 23049216, Note_off_c, 0, 58, 64
2, 23050240, Note_off_c, 0, 46, 64
2, 23065600, Note_on_c, 0, 70, 100
2, 23066624, Note_on_c, 0, 69, 100
2, 23077888, Note_off_c, 0, 69, 64
2, 23080960, Note_off_c, 0, 70, 64
2, 23081984, Note_off_c, 0, 65, 64
2, 23083008, Note_off_c, 0, 62, 64
2, 23084032, Note_on_c, 0, 58, 100
2, 23085056, Note_on_c, 0, 46, 100
2, 23096320, Note_on_c, 0, 70, 100
2, 23099392, Note_on_c, 0, 62, 100
2, 23100416, Note_on_c, 0, 65, 100
2, 23101440, Note_off_c, 0, 58, 64
2, 23102464, Note_off_c, 0, 57, 64
2, 23103488, Note_on_c, 0, 45, 100
2, 23118848, Note_off_c, 0, 62, 64
2, 23119872, Note_off_c, 0, 65, 64
2, 23131136, Note_on_c, 0, 65, 100
2, 23134208, Note_off_c, 0, 70, 64
2, 23135232, Note_off_c, 0, 65, 64
2, 23136256, Note_on_c, 0, 58, 100
2, 23137280, Note_on_c, 0, 57, 100
2, 23138304, Note_off_c, 0, 45, 64
2, 23149568, Note_on_c, 0, 70, 100
2, 23152640, Note_off_c, 0, 70, 64
2, 23153664, Note_off_c, 0, 67, 64
2, 23154688, Note_on_c, 0, 62, 100
2, 23155712, Note_on_c, 0, 55, 100
2, 23156736, Note_on_c, 0, 43, 100
2, 23172096, Note_on_c, 0, 70, 100
2, 23173120, Note_on_c, 0, 69, 100
2, 23184384, Note_off_c, 0, 69, 64
2, 23187456, Note_off_c, 0, 70, 64
2, 23188480, Note_on_c, 0, 67, 100
2, 23189504, Note_off_c, 0, 62, 64
2, 23190528, Note_off_c, 0, 55, 64
2, 23191552, Note_off_c, 0, 43, 64
2, 23202816, Note_on_c, 0, 70, 100
2, 23205888, Note_on_c, 0, 62, 100
2, 23206912, Note_off_c, 0, 70, 64
2, 23207936, Note_on_c, 0, 65, 100
2, 23208960, Note_off_c, 0, 53, 64
2, 23209984, Note_on_c, 0, 41, 100
2, 23225344, Note_off_c, 0, 62, 64
2, 23226368, Note_off_c, 0, 65, 64
2, 23237632, Note_on_c, 0, 65, 100
2, 23240704, Note_on_c, 0, 70, 100
2, 23241728, Note_off_c, 0, 65, 64
2, 23242752, Note_on_c, 0, 53, 100
2, 23243776, Note_off_c, 0, 41, 64
2, 23255040, Note_off_c, 0, 70, 64
2, 23258112, Note_off_c, 0, 72, 64
2, 23259136, Note_on_c, 0, 70, 100
2, 23260160, Note_off_c, 0, 67, 64
2, 23261184, Note_on_c, 0, 51, 100
2, 23262208, Note_on_c, 0, 39, 100
2, 23277568, Note_on_c, 0, 72, 100
2, 23278592, Note_off_c, 0, 70, 64
2, 23289856, Note_on_c, 0, 70, 100
2, 23292928, Note_off_c, 0, 72, 64
2, 23293952, Note_off_c, 0, 70, 64
2, 23294976, Note_on_c, 0, 67, 100
2, 23296000, Note_off_c, 0, 51, 64
2, 23297024, Note_off_c, 0, 39, 64
2, 23308288, Note_on_c, 0, 72, 100
2, 23311360, Note_on_c, 0, 65, 100
2, 23312384, Note_on_c, 0, 69, 100
2, 23313408, Note_off_c, 0, 53, 64
2, 23314432, Note_on_c, 0, 41, 100
2, 23329792, Note_off_c, 0, 65, 64
2, 23330816, Note_off_c, 0, 69, 64
2, 23342080, Note_on_c, 0, 69, 100
2, 23345152, Note_off_c, 0, 72, 64
2, 23346176, Note_off_c, 0, 69, 64
2, 23347200, Note_on_c, 0, 65, 100
2, 23348224, Note_on_c, 0, 53, 100
2, 23349248, Note_off_c, 0, 41, 64
2, 23360512, Note_on_c, 0, 72, 100
2, 23363584, Note_on_c, 0, 74, 100
2, 23364608, Note_on_c, 0, 70, 100
2, 23365632, Note_off_c, 0, 65, 64
2, 23366656, Note_off_c, 0, 46, 64
2, 23367680, Note_on_c, 0, 34, 100
2, 23383040, Note_off_c, 0, 74, 64
2, 23384064, Note_off_c, 0, 72, 64
2, 23385088, Note_off_c, 0, 70, 64
2, 23386112, Note_on_c, 0, 69, 100
2, 23387136, Note_on_c, 0, 65, 100
2, 23388160, Note_on_c, 0, 63, 100
2, 23399424, Note_on_c, 0, 72, 100
2, 23400448, Note_off_c, 0, 69, 64
2, 23401472, Note_off_c, 0, 63, 64
2, 23404544, Note_on_c, 0, 74, 100
2, 23405568, Note_on_c, 0, 70, 100
2, 23406592, Note_off_c, 0, 65, 64
2, 23407616, Note_on_c, 0, 46, 100
2, 23408640, Note_off_c, 0, 53, 64
2, 23409664, Note_off_c, 0, 34, 64
2, 23410688, Note_on_c, 0, 41, 100
2, 23421952, Note_off_c, 0, 74, 64
2, 23422976, Note_off_c, 0, 70, 64
2, 23424000, Note_on_c, 0, 65, 100
2, 23425024, Note_on_c, 0, 53, 100
2, 23426048, Note_off_c, 0, 41, 64
2, 23429120, Note_on_c, 0, 70, 100
2, 23430144, Note_off_c, 0, 65, 64
2, 23431168, Note_on_c, 0, 62, 100
2, 23432192, Note_off_c, 0, 58, 64
2, 23433216, Note_off_c, 0, 46, 64
2, 23448576, Note_off_c, 0, 62, 64
2, 23449600, Note_off_c, 0, 60, 64
2, 23450624, Note_on_c, 0, 58, 100
2, 23451648, Note_off_c, 0, 57, 64
2, 23452672, Note_on_c, 0, 46, 100
2, 23453696, Note_on_c, 0, 45, 100
2, 23464960, Note_on_c, 0, 60, 100
2, 23465984, Note_on_c, 0, 57, 100
2, 23467008, Note_off_c, 0, 45, 64
2, 23470080, Note_off_c, 0, 70, 64
2, 23471104, Note_on_c, 0, 74, 100
2, 23472128, Note_on_c, 0, 65, 100
2, 23473152, Note_on_c, 0, 62, 100
2, 23474176, Note_off_c, 0, 58, 64
2, 23475200, Note_off_c, 0, 46, 64
2, 23486464, Note_off_c, 0, 65, 64
2, 23487488, Note_off_c, 0, 62, 64
2, 23488512, Note_on_c, 0, 58, 100
2, 23489536, Note_on_c, 0, 46, 100
2, 23492608, Note_off_c, 0, 67, 64
2, 23493632, Note_on_c, 0, 55, 100
2, 23494656, Note_off_c, 0, 52, 64
2, 23495680, Note_on_c, 0, 40, 100
2, 23511040, Note_off_c, 0, 74, 64
2, 23512064, Note_on_c, 0, 67, 100
2, 23523328, Note_off_c, 0, 67, 64
2, 23526400, Note_on_c, 0, 70, 100
2, 23527424, Note_on_c, 0, 67, 100
2, 23528448, Note_off_c, 0, 55, 64
2, 23529472, Note_on_c, 0, 52, 100
2, 23530496, Note_off_c, 0, 40, 64
2, 23545856, Note_off_c, 0, 67, 64
2, 23546880, Note_on_c, 0, 64, 100
2, 23547904, Note_on_c, 0, 48, 100
2, 23548928, Note_on_c, 0, 36, 100
2, 23564288, Note_off_c, 0, 70, 64
2, 23565312, Note_off_c, 0, 64, 64
2, 23576576, Note_on_c, 0, 64, 100
2, 23579648, Note_off_c, 0, 72, 64
2, 23580672, Note_on_c, 0, 67, 100
2, 23581696, Note_off_c, 0, 64, 64
2, 23582720, Note_off_c, 0, 48, 64
2, 23583744, Note_off_c, 0, 36, 64
2, 23599104, Note_on_c, 0, 65, 100
2, 23600128, Note_off_c, 0, 57, 64
2, 23601152, Note_off_c, 0, 50, 64
2, 23602176, Note_on_c, 0, 38, 100
2, 23617536, Note_on_c, 0, 72, 100
2, 23618560, Note_off_c, 0, 65, 64
2, 23629824, Note_on_c, 0, 65, 100
2, 23632896, Note_on_c, 0, 69, 100
2, 23633920, Note_off_c, 0, 65, 64
2, 23634944, Note_on_c, 0, 57, 100
2, 23635968, Note_on_c, 0, 50, 100
2, 23636992, Note_off_c, 0, 38, 64
2, 23652352, Note_on_c, 0, 65, 100
2, 23653376, Note_on_c, 0, 62, 100
2, 23654400, Note_off_c, 0, 46, 64
2, 23655424, Note_on_c, 0, 34, 100
2, 23670784, Note_off_c, 0, 69, 64
2, 23671808, Note_off_c, 0, 62, 64
2, 23683072, Note_on_c, 0, 62, 100
2, 23686144, Note_on_c, 0, 70, 100
2, 23687168, Note_off_c, 0, 65, 64
2, 23688192, Note_off_c, 0, 62, 64
2, 23689216, Note_on_c, 0, 46, 100
2, 23690240, Note_off_c, 0, 34, 64
2, 23705600, Note_on_c, 0, 64, 100
2, 23706624, Note_on_c, 0, 55, 100
2, 23707648, Note_on_c, 0, 48, 100
2, 23708672, Note_on_c, 0, 36, 100
2, 23724032, Note_off_c, 0, 70, 64
2, 23725056, Note_off_c, 0, 64, 64
2, 23736320, Note_on_c, 0, 64, 100
2, 23739392, Note_off_c, 0, 67, 64
2, 23740416, Note_off_c, 0, 64, 64
2, 23741440, Note_off_c, 0, 60, 64
2, 23742464, Note_off_c, 0, 55, 64
2, 23743488, Note_off_c, 0, 52, 64
2, 23744512, Note_off_c, 0, 48, 64
2, 23745536, Note_off_c, 0, 46, 64
2, 23746560, Note_off_c, 0, 36, 64
2, 23747584, Note_on_c, 0, 34, 100
2, 23758848, Note_on_c, 0, 60, 100
2, 23759872, Note_on_c, 0, 52, 100
2, 23760896, Note_on_c, 0, 46, 100
2, 23761920, Note_off_c, 0, 34, 64
2, 23764992, Note_off_c, 0, 60, 64
2, 23766016, Note_off_c, 0, 57, 64
2, 23767040, Note_on_c, 0, 45, 100
2, 23768064, Note_on_c, 0, 33, 100
2, 23783424, Note_on_c, 0, 67, 100
2, 23784448, Note_on_c, 0, 60, 100
2, 23795712, Note_off_c, 0, 60, 64
2, 23798784, Note_on_c, 0, 70, 100
2, 23799808, Note_on_c, 0, 60, 100
2, 23800832, Note_on_c, 0, 64, 100
2, 23801856, Note_on_c, 0, 57, 100
2, 23802880, Note_off_c, 0, 58, 64
2, 23803904, Note_off_c, 0, 45, 64
2, 23804928, Note_on_c, 0, 43, 100
2, 23805952, Note_off_c, 0, 33, 64
2, 23806976, Note_on_c, 0, 31, 100
2, 23818240, Note_off_c, 0, 70, 64
2, 23819264, Note_off_c, 0, 64, 64
2, 23820288, Note_on_c, 0, 58, 100
2, 23821312, Note_off_c, 0, 43, 64
2, 23822336, Note_off_c, 0, 31, 64
2, 23825408, Note_on_c, 0, 69, 100
2, 23826432, Note_on_c, 0, 65, 100
2, 23827456, Note_off_c, 0, 60, 64
2, 23828480, Note_on_c, 0, 41, 100
2, 23829504, Note_on_c, 0, 29, 100
2, 23844864, Note_off_c, 0, 69, 64
2, 23845888, Note_off_c, 0, 67, 64
2, 23846912, Note_off_c, 0, 65, 64
2, 23847936, Note_on_c, 0, 64, 100
2, 23848960, Note_on_c, 0, 60, 100
2, 23849984, Note_off_c, 0, 58, 64
2, 23861248, Note_on_c, 0, 67, 100
2, 23862272, Note_off_c, 0, 64, 64
2, 23863296, Note_on_c, 0, 58, 100
2, 23866368, Note_on_c, 0, 69, 100
2, 23867392, Note_on_c, 0, 65, 100
2, 23868416, Note_off_c, 0, 60, 64
2, 23869440, Note_off_c, 0, 41, 64
2, 23870464, Note_on_c, 0, 48, 100
2, 23871488, Note_on_c, 0, 36, 100
2, 23872512, Note_off_c, 0, 29, 64
2, 23883776, Note_off_c, 0, 69, 64
2, 23884800, Note_off_c, 0, 65, 64
2, 23885824, Note_on_c, 0, 60, 100
2, 23886848, Note_off_c, 0, 48, 64
2, 23887872, Note_off_c, 0, 36, 64
2, 23890944, Note_on_c, 0, 65, 100
2, 23891968, Note_off_c, 0, 60, 64
2, 23892992, Note_off_c, 0, 57, 64
2, 23894016, Note_off_c, 0, 53, 64
2, 23895040, Note_on_c, 0, 41, 100
2, 23910400, Note_off_c, 0, 65, 64
2, 23911424, Note_on_c, 0, 69, 100
2, 23912448, Note_on_c, 0, 57, 100
2, 23913472, Note_on_c, 0, 55, 100
2, 23914496, Note_on_c, 0, 53, 100
2, 23915520, Note_on_c, 0, 51, 100
2, 23916544, Note_off_c, 0, 41, 64
2, 23917568, Note_on_c, 0, 39, 100
2, 23928832, Note_off_c, 0, 69, 64
2, 23929856, Note_off_c, 0, 55, 64
2, 23930880, Note_off_c, 0, 51, 64
2, 23931904, Note_off_c, 0, 39, 64
2, 23934976, Note_off_c, 0, 72, 64
2, 23936000, Note_on_c, 0, 60, 100
2, 23937024, Note_on_c, 0, 65, 100
2, 23938048, Note_off_c, 0, 57, 64
2, 23939072, Note_off_c, 0, 53, 64
2, 23940096, Note_on_c, 0, 41, 100
2, 23951360, Note_on_c, 0, 72, 100
2, 23952384, Note_off_c, 0, 65, 64
2, 23953408, Note_on_c, 0, 57, 100
2, 23954432, Note_on_c, 0, 53, 100
2, 23955456, Note_off_c, 0, 41, 64
2, 23958528, Note_on_c, 0, 77, 100
2, 23959552, Note_on_c, 0, 65, 100
2, 23960576, Note_off_c, 0, 58, 64
2, 23961600, Note_off_c, 0, 50, 64
2, 23962624, Note_on_c, 0, 38, 100
2, 23973888, Note_off_c, 0, 77, 64
2, 23976960, Note_on_c, 0, 70, 100
2, 23988224, Note_off_c, 0, 70, 64
2, 23991296, Note_on_c, 0, 74, 100
2, 23992320, Note_off_c, 0, 65, 64
2, 23993344, Note_on_c, 0, 58, 100
2, 23994368, Note_on_c, 0, 50, 100
2, 23995392, Note_off_c, 0, 38, 64
2, 24010752, Note_on_c, 0, 65, 100
2, 24011776, Note_off_c, 0, 58, 64
2, 24012800, Note_on_c, 0, 55, 100
2, 24013824, Note_on_c, 0, 43, 100
2, 24029184, Note_off_c, 0, 74, 64
2, 24030208, Note_off_c, 0, 67, 64
2, 24041472, Note_on_c, 0, 67, 100
2, 24044544, Note_off_c, 0, 75, 64
2, 24045568, Note_off_c, 0, 65, 64
2, 24046592, Note_on_c, 0, 58, 100
2, 24047616, Note_off_c, 0, 55, 64
2, 24048640, Note_off_c, 0, 43, 64
2, 24064000, Note_on_c, 0, 63, 100
2, 24065024, Note_off_c, 0, 58, 64
2, 24066048, Note_on_c, 0, 48, 100
2, 24067072, Note_on_c, 0, 36, 100
2, 24082432, Note_on_c, 0, 75, 100
2, 24083456, Note_on_c, 0, 69, 100
2, 24094720, Note_off_c, 0, 69, 64
2, 24097792, Note_off_c, 0, 72, 64
2, 24098816, Note_off_c, 0, 63, 64
2, 24099840, Note_on_c, 0, 58, 100
2, 24100864, Note_off_c, 0, 48, 64
2, 24101888, Note_off_c, 0, 36, 64
2, 24117248, Note_on_c, 0, 65, 100
2, 24118272, Note_off_c, 0, 57, 64
2, 24119296, Note_off_c, 0, 53, 64
2, 24120320, Note_on_c, 0, 41, 100
2, 24135680, Note_on_c, 0, 72, 100
2, 24136704, Note_off_c, 0, 65, 64
2, 24147968, Note_on_c, 0, 65, 100
2, 24151040, Note_on_c, 0, 74, 100
2, 24152064, Note_off_c, 0, 65, 64
2, 24153088, Note_on_c, 0, 57, 100
2, 24154112, Note_on_c, 0, 53, 100
2, 24155136, Note_off_c, 0, 41, 64
2, 24170496, Note_on_c, 0, 65, 100
2, 24171520, Note_off_c, 0, 58, 64
2, 24172544, Note_off_c, 0, 46, 64
2, 24173568, Note_on_c, 0, 34, 100
2, 24188928, Note_off_c, 0, 74, 64
2, 24189952, Note_off_c, 0, 65, 64
2, 24190976, Note_on_c, 0, 62, 100
2, 24202240, Note_on_c, 0, 65, 100
2, 24203264, Note_off_c, 0, 62, 64
2, 24206336, Note_on_c, 0, 70, 100
2, 24207360, Note_off_c, 0, 65, 64
2, 24208384, Note_on_c, 0, 58, 100
2, 24209408, Note_on_c, 0, 62, 100
2, 24210432, Note_on_c, 0, 46, 100
2, 24211456, Note_off_c, 0, 34, 64
2, 24222720, Note_on_c, 0, 65, 100
2, 24223744, Note_off_c, 0, 62, 64
2, 24224768, Note_off_c, 0, 58, 64
2, 24225792, Note_off_c, 0, 46, 64
2, 24228864, Note_on_c, 0, 62, 100
2, 24229888, Note_off_c, 0, 53, 64
2, 24230912, Note_on_c, 0, 46, 100
2, 24231936, Note_on_c, 0, 34, 100
2, 24247296, Note_off_c, 0, 70, 64
2, 24248320, Note_off_c, 0, 62, 64
2, 24249344, Note_on_c, 0, 58, 100
2, 24260608, Note_on_c, 0, 62, 100
2, 24261632, Note_off_c, 0, 58, 64
2, 24264704, Note_off_c, 0, 65, 64
2, 24265728, Note_off_c, 0, 62, 64
2, 24266752, Note_on_c, 0, 53, 100
2, 24267776, Note_on_c, 0, 58, 100
2, 24268800, Note_off_c, 0, 46, 64
2, 24269824, Note_off_c, 0, 34, 64
2, 24281088, Note_on_c, 0, 62, 100
2, 24282112, Note_off_c, 0, 58, 64
2, 24283136, Note_on_c, 0, 46, 100
2, 24286208, Note_on_c, 0, 58, 100
2, 24287232, Note_off_c, 0, 50, 64
2, 24288256, Note_off_c, 0, 46, 64
2, 24289280, Note_on_c, 0, 34, 100
2, 24304640, Note_on_c, 0, 65, 100
2, 24305664, Note_off_c, 0, 58, 64
2, 24306688, Note_off_c, 0, 62, 64
2, 24307712, Note_on_c, 0, 50, 100
2, 24308736, Note_off_c, 0, 53, 64
2, 24320000, Note_on_c, 0, 58, 100
2, 24321024, Note_on_c, 0, 62, 100
2, 24322048, Note_on_c, 0, 53, 100
2, 24325120, Note_off_c, 0, 62, 64
2, 24326144, Note_off_c, 0, 65, 64
2, 24327168, Note_off_c, 0, 58, 64
2, 24328192, Note_on_c, 0, 46, 100
2, 24329216, Note_off_c, 0, 34, 64
2, 24340480, Note_on_c, 0, 62, 100
2, 24341504, Note_on_c, 0, 65, 100
2, 24342528, Note_on_c, 0, 58, 100
2, 24343552, Note_off_c, 0, 46, 64
2, 24346624, Note_off_c, 0, 65, 64
2, 24347648, Note_on_c, 0, 70, 100
2, 24348672, Note_off_c, 0, 62, 64
2, 24349696, Note_on_c, 0, 46, 100
2, 24350720, Note_on_c, 0, 34, 100
2, 24361984, Note_on_c, 0, 65, 100
2, 24363008, Note_off_c, 0, 70, 64
2, 24364032, Note_on_c, 0, 62, 100
2, 24367104, Note_off_c, 0, 62, 64
2, 24368128, Note_off_c, 0, 65, 64
2, 24369152, Note_off_c, 0, 58, 64
2, 24380416, Note_on_c, 0, 62, 100
2, 24381440, Note_on_c, 0, 65, 100
2, 24382464, Note_on_c, 0, 58, 100
2, 24385536, Note_off_c, 0, 65, 64
2, 24386560, Note_on_c, 0, 70, 100
2, 24387584, Note_off_c, 0, 62, 64
2, 24388608, Note_off_c, 0, 46, 64
2, 24389632, Note_off_c, 0, 58, 64
2, 24390656, Note_off_c, 0, 34, 64
2, 24401920, Note_on_c, 0, 65, 100
2, 24402944, Note_off_c, 0, 70, 64
2, 24403968, Note_on_c, 0, 62, 100
2, 24404992, Note_on_c, 0, 58, 100
2, 24406016, Note_on_c, 0, 46, 100
2, 24409088, Note_on_c, 0, 70, 100
2, 24410112, Note_off_c, 0, 62, 64
2, 24411136, Note_off_c, 0, 65, 64
2, 24412160, Note_off_c, 0, 46, 64
2, 24413184, Note_on_c, 0, 34, 100
2, 24424448, Note_off_c, 0, 70, 64
2, 24427520, Note_on_c, 0, 65, 100
2, 24438784, Note_off_c, 0, 65, 64
2, 24441856, Note_off_c, 0, 67, 64
2, 24442880, Note_on_c, 0, 62, 100
2, 24443904, Note_on_c, 0, 65, 100
2, 24444928, Note_on_c, 0, 46, 100
2, 24445952, Note_off_c, 0, 34, 64
2, 24461312, Note_on_c, 0, 63, 100
2, 24462336, Note_off_c, 0, 58, 64
2, 24463360, Note_off_c, 0, 46, 64
2, 24478720, Note_on_c, 0, 67, 100
2, 24479744, Note_off_c, 0, 65, 64
2, 24491008, Note_on_c, 0, 65, 100
2, 24494080, Note_on_c, 0, 70, 100
2, 24495104, Note_off_c, 0, 63, 64
2, 24496128, Note_on_c, 0, 58, 100
2, 24497152, Note_on_c, 0, 46, 100
2, 24512512, Note_off_c, 0, 62, 64
2, 24513536, Note_off_c, 0, 53, 64
2, 24514560, Note_off_c, 0, 46, 64
2, 24515584, Note_on_c, 0, 34, 100
2, 24530944, Note_off_c, 0, 70, 64
2, 24531968, Note_off_c, 0, 65, 64
2, 24543232, Note_on_c, 0, 65, 100
2, 24546304, Note_off_c, 0, 67, 64
2, 24547328, Note_on_c, 0, 62, 100
2, 24548352, Note_on_c, 0, 53, 100
2, 24549376, Note_on_c, 0, 46, 100
2, 24550400, Note_off_c, 0, 34, 64
2, 24565760, Note_on_c, 0, 63, 100
2, 24566784, Note_off_c, 0, 58, 64
2, 24567808, Note_off_c, 0, 46, 64
2, 24583168, Note_on_c, 0, 67, 100
2, 24584192, Note_off_c, 0, 65, 64
2, 24595456, Note_on_c, 0, 65, 100
2, 24598528, Note_on_c, 0, 70, 100
2, 24599552, Note_off_c, 0, 63, 64
2, 24600576, Note_off_c, 0, 62, 64
2, 24601600, Note_on_c, 0, 58, 100
2, 24602624, Note_off_c, 0, 53, 64
2, 24603648, Note_on_c, 0, 46, 100
2, 24604672, Note_on_c, 0, 34, 100
2, 24615936, Note_on_c, 0, 62, 100
2, 24616960, Note_on_c, 0, 53, 100
2, 24617984, Note_off_c, 0, 46, 64
2, 24619008, Note_off_c, 0, 34, 64
2, 24622080, Note_on_c, 0, 63, 100
2, 24623104, Note_on_c, 0, 55, 100
2, 24624128, Note_on_c, 0, 51, 100
2, 24625152, Note_on_c, 0, 39, 100
2, 24640512, Note_off_c, 0, 70, 64
2, 24641536, Note_off_c, 0, 67, 64
2, 24652800, Note_on_c, 0, 67, 100
2, 24655872, Note_off_c, 0, 75, 64
2, 24656896, Note_off_c, 0, 63, 64
2, 24657920, Note_off_c, 0, 67, 64
2, 24658944, Note_off_c, 0, 55, 64
2, 24659968, Note_off_c, 0, 60, 64
2, 24660992, Note_off_c, 0, 51, 64
2, 24662016, Note_on_c, 0, 48, 100
2, 24663040, Note_off_c, 0, 39, 64
2, 24664064, Note_on_c, 0, 36, 100
2, 24675328, Note_on_c, 0, 67, 100
2, 24676352, Note_on_c, 0, 60, 100
2, 24677376, Note_off_c, 0, 48, 64
2, 24678400, Note_off_c, 0, 36, 64
2, 24681472, Note_off_c, 0, 65, 64
2, 24682496, Note_off_c, 0, 57, 64
2, 24683520, Note_off_c, 0, 53, 64
2, 24684544, Note_on_c, 0, 41, 100
2, 24699904, Note_on_c, 0, 75, 100
2, 24700928, Note_on_c, 0, 69, 100
2, 24712192, Note_off_c, 0, 69, 64
2, 24715264, Note_on_c, 0, 77, 100
2, 24716288, Note_on_c, 0, 65, 100
2, 24717312, Note_off_c, 0, 72, 64
2, 24718336, Note_on_c, 0, 57, 100
2, 24719360, Note_on_c, 0, 53, 100
2, 24720384, Note_on_c, 0, 45, 100
2, 24721408, Note_off_c, 0, 41, 64
2, 24722432, Note_on_c, 0, 33, 100
2, 24733696, Note_on_c, 0, 72, 100
2, 24734720, Note_off_c, 0, 53, 64
2, 24735744, Note_off_c, 0, 45, 64
2, 24736768, Note_off_c, 0, 33, 64
2, 24739840, Note_off_c, 0, 77, 64
2, 24740864, Note_on_c, 0, 74, 100
2, 24741888, Note_on_c, 0, 70, 100
2, 24742912, Note_off_c, 0, 65, 64
2, 24743936, Note_on_c, 0, 46, 100
2, 24744960, Note_on_c, 0, 34, 100
2, 24756224, Note_off_c, 0, 74, 64
2, 24757248, Note_off_c, 0, 70, 64
2, 24758272, Note_on_c, 0, 65, 100
2, 24759296, Note_off_c, 0, 46, 64
2, 24760320, Note_off_c, 0, 34, 64
2, 24763392, Note_on_c, 0, 70, 100
2, 24764416, Note_off_c, 0, 65, 64
2, 24765440, Note_off_c, 0, 62, 64
2, 24766464, Note_off_c, 0, 50, 64
2, 24767488, Note_on_c, 0, 26, 100
2, 24768512, Note_on_c, 0, 38, 100
2, 24779776, Note_off_c, 0, 70, 64
2, 24780800, Note_on_c, 0, 65, 100
2, 24781824, Note_on_c, 0, 62, 100
2, 24782848, Note_on_c, 0, 50, 100
2, 24783872, Note_off_c, 0, 26, 64
2, 24784896, Note_off_c, 0, 38, 64
2, 24787968, Note_on_c, 0, 69, 100
2, 24788992, Note_off_c, 0, 65, 64
2, 24790016, Note_off_c, 0, 60, 64
2, 24791040, Note_on_c, 0, 53, 100
2, 24792064, Note_on_c, 0, 41, 100
2, 24793088, Note_on_c, 0, 29, 100
2, 24796160, Note_off_c, 0, 69, 64
2, 24797184, Note_off_c, 0, 67, 64
2, 24800256, Note_on_c, 0, 67, 100
2, 24801280, Note_on_c, 0, 69, 100
2, 24804352, Note_on_c, 0, 65, 100
2, 24805376, Note_on_c, 0, 60, 100
2, 24806400, Note_off_c, 0, 53, 64
2, 24807424, Note_off_c, 0, 41, 64
2, 24808448, Note_off_c, 0, 29, 64
2, 24811520, Note_off_c, 0, 69, 64
2, 24812544, Note_on_c, 0, 70, 100
2, 24813568, Note_off_c, 0, 65, 64
2, 24814592, Note_off_c, 0, 62, 64
2, 24815616, Note_on_c, 0, 46, 100
2, 24816640, Note_on_c, 0, 22, 100
2, 24817664, Note_on_c, 0, 34, 100
2, 24914944, Note_off_c, 0, 70, 64
2, 24915968, Note_on_c, 0, 65, 100
2, 24916992, Note_on_c, 0, 62, 100
2, 24918016, Note_off_c, 0, 46, 64
2, 24919040, Note_off_c, 0, 22, 64
2, 24920064, Note_off_c, 0, 34, 64
2, 24922636, End_track
0, 0, End_of_file
