0, 0, Header, 1, 2, 512
1, 0, Start_track
1, 0, Title_t, 'example'
1, 0, Tempo, 413793
1, 0, Time_signature, 4, 2, 24, 8
1, 0, End_track
2, 0, Start_track
2, 0, Title_t, 'Instrument Track 01'
2, 0, Program_c, 6, 6
2, 0, Note_on_c, 0, 60, 100
2, 0, Note_on_c, 0, 64, 100
2, 0, Note_on_c, 0, 67, 100
2, 160, Note_off_c, 0, 60, 64
2, 160, Note_off_c, 0, 64, 64
2, 160, Note_off_c, 0, 67, 64
2, 288, Note_on_c, 0, 64, 100
2, 288, Note_off_c, 0, 61, 64
2, 288, Note_on_c, 0, 61, 100
2, 288, Note_on_c, 0, 62, 100
2, 288, Note_off_c, 0, 62, 64
2, 288, Note_on_c, 0, 62, 100
2, 416, Note_on_c, 0, 69, 100
2, 416, Note_off_c, 0, 67, 64
2, 416, Note_on_c, 0, 67, 100
2, 416, Note_on_c, 0, 60, 100
2, 416, Note_off_c, 0, 61, 64
2, 544, Note_on_c, 0, 61, 100
2, 544, Note_off_c, 0, 64, 64
2, 544, Note_off_c, 0, 67, 64
2, 544, Note_off_c, 0, 62, 64
2, 544, Note_on_c, 0, 62, 100
2, 544, Note_on_c, 0, 55, 100
2, 672, Note_off_c, 0, 62, 64
2, 672, Note_off_c, 0, 64, 64
2, 672, Note_on_c, 0, 64, 100
2, 800, Note_off_c, 0, 55, 64
2, 800, Note_off_c, 0, 64, 64
2, 800, Note_on_c, 0, 64, 100
2, 800, Note_off_c, 0, 61, 64
2, 800, Note_off_c, 0, 57, 64
2, 800, Note_on_c, 0, 57, 100
2, 928, Note_off_c, 0, 64, 64
2, 928, Note_off_c, 0, 62, 64
2, 928, Note_on_c, 0, 62, 100
2, 928, Note_off_c, 0, 38, 64
2, 928, Note_on_c, 0, 38, 100
2, 1056, Note_on_c, 0, 61, 100
2, 1056, Note_off_c, 0, 62, 64
2, 1056, Note_off_c, 0, 57, 64
2, 1056, Note_on_c, 0, 40, 100
2, 1056, Note_off_c, 0, 38, 64
2, 1056, Note_on_c, 0, 74, 100
2, 1056, Note_on_c, 0, 64, 100
2, 1056, Note_on_c, 0, 62, 100
2, 1312, Note_off_c, 0, 62, 64
2, 1312, Note_off_c, 0, 64, 64
2, 1440, Note_on_c, 0, 64, 100
2, 1440, Note_off_c, 0, 66, 64
2, 1440, Note_on_c, 0, 66, 100
2, 1440, Note_on_c, 0, 50, 100
2, 1440, Note_on_c, 0, 57, 100
2, 1440, Note_on_c, 0, 38, 100
2, 1568, Note_off_c, 0, 66, 64
2, 1568, Note_off_c, 0, 50, 64
2, 1568, Note_off_c, 0, 38, 64
2, 1568, Note_off_c, 0, 62, 64
2, 1568, Note_on_c, 0, 62, 100
2, 1568, Note_on_c, 0, 50, 100
2, 1568, Note_on_c, 0, 38, 100
2, 1568, Note_off_c, 0, 50, 64
2, 1696, Note_off_c, 0, 57, 64
2, 1696, Note_on_c, 0, 57, 100
2, 1696, Note_off_c, 0, 74, 64
2, 1824, Note_off_c, 0, 62, 64
2, 1824, Note_off_c, 0, 57, 64
2, 1824, Note_off_c, 0, 38, 64
2, 1824, Note_on_c, 0, 50, 100
2, 1824, Note_off_c, 0, 74, 64
2, 1824, Note_on_c, 0, 74, 100
2, 1824, Note_on_c, 0, 62, 100
2, 1824, Note_on_c, 0, 42, 100
2, 2080, Note_off_c, 0, 74, 64
2, 2080, Note_off_c, 0, 62, 64
2, 2080, Note_off_c, 0, 69, 64
2, 2080, Note_on_c, 0, 72, 100
2, 2208, Note_off_c, 0, 72, 64
2, 2208, Note_on_c, 0, 69, 100
2, 2208, Note_off_c, 0, 42, 64
2, 2208, Note_off_c, 0, 71, 64
2, 2208, Note_on_c, 0, 71, 100
2, 2208, Note_on_c, 0, 38, 100
2, 2336, Note_on_c, 0, 52, 100
2, 2336, Note_off_c, 0, 38, 64
2, 2336, Note_off_c, 0, 71, 64
2, 2336, Note_off_c, 0, 72, 64
2, 2336, Note_on_c, 0, 72, 100
2, 2336, Note_on_c, 0, 45, 100
2, 2464, Note_off_c, 0, 69, 64
2, 2592, Note_off_c, 0, 72, 64
2, 2592, Note_off_c, 0, 62, 64
2, 2592, Note_on_c, 0, 69, 100
2, 2592, Note_on_c, 0, 74, 100
2, 2592, Note_on_c, 0, 62, 100
2, 2592, Note_on_c, 0, 78, 100
2, 2720, Note_off_c, 0, 74, 64
2, 2720, Note_on_c, 0, 72, 100
2, 2720, Note_off_c, 0, 62, 64
2, 2848, Note_off_c, 0, 78, 64
2, 2848, Note_off_c, 0, 72, 64
2, 2848, Note_off_c, 0, 45, 64
2, 2848, Note_on_c, 0, 62, 100
2, 2848, Note_on_c, 0, 72, 100
2, 2848, Note_off_c, 0, 69, 64
2, 2848, Note_on_c, 0, 74, 100
2, 2848, Note_off_c, 0, 50, 64
2, 2976, Note_off_c, 0, 74, 64
2, 2976, Note_on_c, 0, 74, 100
2, 2976, Note_off_c, 0, 72, 64
2, 2976, Note_on_c, 0, 69, 100
2, 3104, Note_on_c, 0, 50, 100
2, 3104, Note_off_c, 0, 69, 64
2, 3104, Note_off_c, 0, 72, 64
2, 3104, Note_on_c, 0, 69, 100
2, 3104, Note_on_c, 0, 66, 100
2, 3104, Note_on_c, 0, 72, 100
2, 3104, Note_off_c, 0, 60, 64
2, 3104, Note_on_c, 0, 78, 100
2, 3232, Note_off_c, 0, 78, 64
2, 3232, Note_on_c, 0, 60, 100
2, 3232, Note_off_c, 0, 74, 64
2, 3360, Note_off_c, 0, 69, 64
2, 3360, Note_off_c, 0, 66, 64
2, 3360, Note_off_c, 0, 72, 64
2, 3360, Note_on_c, 0, 74, 100
2, 3360, Note_off_c, 0, 62, 64
2, 3360, Note_on_c, 0, 62, 100
2, 3360, Note_on_c, 0, 58, 100
2, 3360, Note_on_c, 0, 71, 100
2, 3360, Note_on_c, 0, 66, 100
2, 3488, Note_off_c, 0, 66, 64
2, 3488, Note_on_c, 0, 67, 100
2, 3616, Note_off_c, 0, 67, 64
2, 3616, Note_off_c, 0, 71, 64
2, 3616, Note_off_c, 0, 62, 64
2, 3616, Note_off_c, 0, 74, 64
2, 3616, Note_off_c, 0, 58, 64
2, 3616, Note_on_c, 0, 65, 100
2, 3616, Note_on_c, 0, 67, 100
2, 3616, Note_on_c, 0, 72, 100
2, 3616, Note_on_c, 0, 69, 100
2, 3616, Note_on_c, 0, 55, 100
2, 3616, Note_on_c, 0, 43, 100
2, 3744, Note_off_c, 0, 72, 64
2, 3744, Note_off_c, 0, 67, 64
2, 3744, Note_on_c, 0, 67, 100
2, 3744, Note_on_c, 0, 72, 100
2, 3872, Note_off_c, 0, 69, 64
2, 3872, Note_off_c, 0, 65, 64
2, 3872, Note_off_c, 0, 67, 64
2, 3872, Note_off_c, 0, 62, 64
2, 3872, Note_off_c, 0, 43, 64
2, 3872, Note_on_c, 0, 62, 100
2, 4000, Note_off_c, 0, 72, 64
2, 4000, Note_on_c, 0, 74, 100
2, 4000, Note_off_c, 0, 62, 64
2, 4128, Note_off_c, 0, 74, 64
2, 4128, Note_on_c, 0, 62, 100
2, 4128, Note_off_c, 0, 55, 64
2, 4128, Note_off_c, 0, 76, 64
2, 4128, Note_on_c, 0, 67, 100
2, 4128, Note_on_c, 0, 76, 100
2, 4128, Note_off_c, 0, 60, 64
2, 4128, Note_on_c, 0, 43, 100
2, 4128, Note_off_c, 0, 64, 64
2, 4128, Note_on_c, 0, 55, 100
2, 4256, Note_off_c, 0, 67, 64
2, 4256, Note_on_c, 0, 72, 100
2, 4256, Note_off_c, 0, 76, 64
2, 4256, Note_on_c, 0, 74, 100
2, 4384, Note_on_c, 0, 76, 100
2, 4384, Note_off_c, 0, 72, 64
2, 4384, Note_on_c, 0, 60, 100
2, 4384, Note_off_c, 0, 74, 64
2, 4384, Note_on_c, 0, 64, 100
2, 4384, Note_off_c, 0, 43, 64
2, 4384, Note_on_c, 0, 48, 100
2, 4384, Note_on_c, 0, 67, 100
2, 4512, Note_off_c, 0, 67, 64
2, 4512, Note_off_c, 0, 76, 64
2, 4512, Note_on_c, 0, 70, 100
2, 4640, Note_off_c, 0, 55, 64
2, 4640, Note_off_c, 0, 70, 64
2, 4640, Note_on_c, 0, 76, 100
2, 4640, Note_off_c, 0, 48, 64
2, 4640, Note_off_c, 0, 64, 64
2, 4768, Note_on_c, 0, 72, 100
2, 4768, Note_off_c, 0, 70, 64
2, 4768, Note_on_c, 0, 70, 100
2, 4896, Note_off_c, 0, 72, 64
2, 4896, Note_on_c, 0, 64, 100
2, 4896, Note_off_c, 0, 70, 64
2, 4896, Note_on_c, 0, 67, 100
2, 4896, Note_off_c, 0, 49, 64
2, 4896, Note_on_c, 0, 49, 100
2, 4896, Note_off_c, 0, 61, 64
2, 4896, Note_on_c, 0, 69, 100
2, 5024, Note_on_c, 0, 77, 100
2, 5024, Note_off_c, 0, 76, 64
2, 5152, Note_on_c, 0, 76, 100
2, 5152, Note_off_c, 0, 67, 64
2, 5152, Note_off_c, 0, 69, 64
2, 5152, Note_on_c, 0, 58, 100
2, 5152, Note_off_c, 0, 49, 64
2, 5152, Note_off_c, 0, 65, 64
2, 5152, Note_on_c, 0, 65, 100
2, 5152, Note_off_c, 0, 53, 64
2, 5152, Note_on_c, 0, 53, 100
2, 5280, Note_off_c, 0, 72, 64
2, 5280, Note_on_c, 0, 72, 100
2, 5408, Note_off_c, 0, 65, 64
2, 5408, Note_off_c, 0, 72, 64
2, 5408, Note_off_c, 0, 53, 64
2, 5408, Note_off_c, 0, 57, 64
2, 5408, Note_on_c, 0, 57, 100
2, 5408, Note_off_c, 0, 77, 64
2, 5536, Note_on_c, 0, 77, 100
2, 5536, Note_off_c, 0, 72, 64
2, 5536, Note_on_c, 0, 72, 100
2, 5664, Note_off_c, 0, 72, 64
2, 5664, Note_off_c, 0, 57, 64
2, 5664, Note_off_c, 0, 77, 64
2, 5664, Note_on_c, 0, 77, 100
2, 5664, Note_on_c, 0, 74, 100
2, 5664, Note_on_c, 0, 72, 100
2, 5664, Note_off_c, 0, 50, 64
2, 5792, Note_off_c, 0, 72, 64
2, 5792, Note_off_c, 0, 74, 64
2, 5920, Note_off_c, 0, 77, 64
2, 5920, Note_on_c, 0, 72, 100
2, 5920, Note_on_c, 0, 70, 100
2, 6048, Note_off_c, 0, 72, 64
2, 6048, Note_on_c, 0, 74, 100
2, 6176, Note_off_c, 0, 74, 64
2, 6176, Note_on_c, 0, 72, 100
2, 6304, Note_off_c, 0, 72, 64
2, 6304, Note_on_c, 0, 75, 100
2, 6432, Note_on_c, 0, 53, 100
2, 6432, Note_on_c, 0, 50, 100
2, 6432, Note_off_c, 0, 75, 64
2, 6432, Note_off_c, 0, 58, 64
2, 6560, Note_off_c, 0, 76, 64
2, 6688, Note_on_c, 0, 58, 100
2, 6688, Note_off_c, 0, 50, 64
2, 6688, Note_on_c, 0, 76, 100
2, 6688, Note_on_c, 0, 74, 100
2, 6688, Note_on_c, 0, 57, 100
2, 6752, Note_off_c, 0, 74, 64
2, 6752, Note_on_c, 0, 72, 100
2, 6880, Note_off_c, 0, 72, 64
2, 6880, Note_off_c, 0, 70, 64
2, 6880, Note_on_c, 0, 77, 100
2, 6944, Note_off_c, 0, 76, 64
2, 6944, Note_on_c, 0, 70, 100
2, 6944, Note_off_c, 0, 57, 64
2, 6944, Note_on_c, 0, 72, 100
2, 7008, Note_off_c, 0, 70, 64
2, 7008, Note_off_c, 0, 72, 64
2, 7072, Note_on_c, 0, 70, 100
2, 7072, Note_off_c, 0, 77, 64
2, 7136, Note_on_c, 0, 72, 100
2, 7136, Note_on_c, 0, 76, 100
2, 7200, Note_off_c, 0, 76, 64
2, 7200, Note_off_c, 0, 72, 64
2, 7200, Note_off_c, 0, 60, 64
2, 7200, Note_on_c, 0, 57, 100
2, 7200, Note_on_c, 0, 77, 100
2, 7200, Note_on_c, 0, 74, 100
2, 7328, Note_off_c, 0, 77, 64
2, 7328, Note_on_c, 0, 72, 100
2, 7328, Note_off_c, 0, 74, 64
2, 7392, Note_on_c, 0, 65, 100
2, 7392, Note_on_c, 0, 74, 100
2, 7456, Note_off_c, 0, 65, 64
2, 7456, Note_off_c, 0, 72, 64
2, 7456, Note_off_c, 0, 60, 64
2, 7456, Note_off_c, 0, 57, 64
2, 7456, Note_on_c, 0, 79, 100
2, 7456, Note_on_c, 0, 72, 100
2, 7456, Note_on_c, 0, 48, 100
2, 7456, Note_on_c, 0, 60, 100
2, 7456, Note_on_c, 0, 36, 100
2, 7584, Note_off_c, 0, 74, 64
2, 7584, Note_on_c, 0, 74, 100
2, 7712, Note_off_c, 0, 57, 64
2, 7712, Note_off_c, 0, 48, 64
2, 7712, Note_on_c, 0, 54, 100
2, 7712, Note_off_c, 0, 49, 64
2, 7712, Note_on_c, 0, 49, 100
2, 7712, Note_on_c, 0, 48, 100
2, 7712, Note_off_c, 0, 70, 64
2, 7712, Note_on_c, 0, 57, 100
2, 7840, Note_off_c, 0, 79, 64
2, 7840, Note_off_c, 0, 74, 64
2, 7968, Note_off_c, 0, 60, 64
2, 7968, Note_off_c, 0, 81, 64
2, 7968, Note_on_c, 0, 81, 100
2, 7968, Note_off_c, 0, 72, 64
2, 7968, Note_on_c, 0, 65, 100
2, 7968, Note_on_c, 0, 60, 100
2, 7968, Note_off_c, 0, 53, 64
2, 8096, Note_on_c, 0, 84, 100
2, 8096, Note_on_c, 0, 79, 100
2, 8224, Note_on_c, 0, 53, 100
2, 8224, Note_off_c, 0, 60, 64
2, 8224, Note_on_c, 0, 77, 100
2, 8224, Note_on_c, 0, 82, 100
2, 8224, Note_on_c, 0, 72, 100
2, 8224, Note_off_c, 0, 65, 64
2, 8224, Note_off_c, 0, 58, 64
2, 8224, Note_on_c, 0, 67, 100
2, 8224, Note_on_c, 0, 46, 100
2, 8224, Note_on_c, 0, 58, 100
2, 8288, Note_off_c, 0, 77, 64
2, 8288, Note_off_c, 0, 79, 64
2, 8352, Note_off_c, 0, 46, 64
2, 8352, Note_off_c, 0, 58, 64
2, 8352, Note_off_c, 0, 82, 64
2, 8352, Note_off_c, 0, 81, 64
2, 8352, Note_on_c, 0, 77, 100
2, 8352, Note_on_c, 0, 69, 100
2, 8352, Note_off_c, 0, 72, 64
2, 8352, Note_on_c, 0, 72, 100
2, 8416, Note_off_c, 0, 72, 64
2, 8416, Note_on_c, 0, 82, 100
2, 8416, Note_off_c, 0, 67, 64
2, 8416, Note_off_c, 0, 69, 64
2, 8416, Note_on_c, 0, 72, 100
2, 8416, Note_on_c, 0, 67, 100
2, 8480, Note_off_c, 0, 72, 64
2, 8480, Note_on_c, 0, 69, 100
2, 8544, Note_on_c, 0, 70, 100
2, 8608, Note_off_c, 0, 69, 64
2, 8608, Note_on_c, 0, 69, 100
2, 8672, Note_off_c, 0, 70, 64
2, 8672, Note_off_c, 0, 69, 64
2, 8672, Note_off_c, 0, 65, 64
2, 8672, Note_on_c, 0, 65, 100
2, 8672, Note_on_c, 0, 70, 100
2, 8672, Note_on_c, 0, 46, 100
2, 8736, Note_off_c, 0, 46, 64
2, 8736, Note_off_c, 0, 70, 64
2, 8736, Note_off_c, 0, 65, 64
2, 8800, Note_off_c, 0, 81, 64
2, 8800, Note_on_c, 0, 65, 100
2, 8800, Note_on_c, 0, 72, 100
2, 8800, Note_on_c, 0, 81, 100
2, 8800, Note_off_c, 0, 77, 64
2, 8864, Note_off_c, 0, 81, 64
2, 8864, Note_off_c, 0, 72, 64
2, 8928, Note_off_c, 0, 84, 64
2, 8928, Note_off_c, 0, 82, 64
2, 8928, Note_on_c, 0, 82, 100
2, 8928, Note_on_c, 0, 79, 100
2, 8928, Note_on_c, 0, 70, 100
2, 8928, Note_off_c, 0, 48, 64
2, 8928, Note_off_c, 0, 82, 64
2, 8928, Note_on_c, 0, 84, 100
2, 8928, Note_on_c, 0, 98, 100
2, 8928, Note_on_c, 0, 97, 100
2, 8928, Note_on_c, 0, 115, 100
2, 8928, Note_on_c, 0, 104, 100
2, 8992, Note_on_c, 0, 82, 100
2, 8992, Note_off_c, 0, 79, 64
2, 8992, Note_off_c, 0, 70, 64
2, 8992, Note_off_c, 0, 84, 64
2, 9056, Note_on_c, 0, 70, 100
2, 9056, Note_off_c, 0, 86, 64
2, 9056, Note_on_c, 0, 86, 100
2, 9056, Note_off_c, 0, 77, 64
2, 9056, Note_on_c, 0, 77, 100
2, 9120, Note_on_c, 0, 84, 100
2, 9120, Note_on_c, 0, 48, 100
2, 9120, Note_off_c, 0, 82, 64
2, 9120, Note_on_c, 0, 82, 100
2, 9184, Note_off_c, 0, 46, 64
2, 9184, Note_on_c, 0, 46, 100
2, 9184, Note_off_c, 0, 82, 64
2, 9184, Note_off_c, 0, 65, 64
2, 9248, Note_on_c, 0, 65, 100
2, 9312, Note_off_c, 0, 77, 64
2, 9312, Note_off_c, 0, 62, 64
2, 9312, Note_on_c, 0, 62, 100
2, 9312, Note_on_c, 0, 82, 100
2, 9312, Note_on_c, 0, 77, 100
2, 9376, Note_off_c, 0, 62, 64
2, 9376, Note_off_c, 0, 70, 64
2, 9376, Note_off_c, 0, 67, 64
2, 9440, Note_on_c, 0, 79, 100
2, 9440, Note_off_c, 0, 46, 64
2, 9440, Note_off_c, 0, 82, 64
2, 9440, Note_on_c, 0, 67, 100
2, 9440, Note_on_c, 0, 62, 100
2, 9440, Note_on_c, 0, 70, 100
2, 9440, Note_on_c, 0, 46, 100
2, 9504, Note_off_c, 0, 70, 64
2, 9568, Note_off_c, 0, 79, 64
2, 9568, Note_off_c, 0, 46, 64
2, 9632, Note_on_c, 0, 79, 100
2, 9632, Note_on_c, 0, 78, 100
2, 9632, Note_off_c, 0, 62, 64
2, 9632, Note_on_c, 0, 50, 100
2, 9632, Note_on_c, 0, 42, 100
2, 9632, Note_on_c, 0, 70, 100
2, 9760, Note_off_c, 0, 79, 64
2, 9760, Note_off_c, 0, 78, 64
2, 9888, Note_on_c, 0, 75, 100
2, 9888, Note_off_c, 0, 50, 64
2, 9888, Note_off_c, 0, 78, 64
2, 9888, Note_off_c, 0, 70, 64
2, 9888, Note_on_c, 0, 66, 100
2, 9888, Note_on_c, 0, 74, 100
2, 9888, Note_on_c, 0, 78, 100
2, 10080, Note_off_c, 0, 66, 64
2, 10080, Note_off_c, 0, 77, 64
2, 10080, Note_off_c, 0, 74, 64
2, 10144, Note_off_c, 0, 74, 64
2, 10144, Note_on_c, 0, 74, 100
2, 10144, Note_on_c, 0, 70, 100
2, 10144, Note_off_c, 0, 62, 64
2, 10144, Note_off_c, 0, 43, 64
2, 10144, Note_on_c, 0, 43, 100
2, 10144, Note_on_c, 0, 79, 100
2, 10144, Note_on_c, 0, 62, 100
2, 10144, Note_off_c, 0, 55, 64
2, 10144, Note_on_c, 0, 55, 100
2, 10336, Note_off_c, 0, 79, 64
2, 10336, Note_off_c, 0, 70, 64
2, 10336, Note_off_c, 0, 74, 64
2, 10400, Note_off_c, 0, 65, 64
2, 10400, Note_off_c, 0, 62, 64
2, 10400, Note_on_c, 0, 70, 100
2, 10400, Note_on_c, 0, 77, 100
2, 10400, Note_on_c, 0, 58, 100
2, 10400, Note_off_c, 0, 55, 64
2, 10656, Note_off_c, 0, 70, 64
2, 10656, Note_on_c, 0, 70, 100
2, 10656, Note_on_c, 0, 65, 100
2, 10656, Note_off_c, 0, 63, 64
2, 10656, Note_off_c, 0, 58, 64
2, 10656, Note_on_c, 0, 74, 100
2, 10656, Note_on_c, 0, 62, 100
2, 10656, Note_on_c, 0, 58, 100
2, 10656, Note_on_c, 0, 63, 100
2, 10848, Note_off_c, 0, 65, 64
2, 10848, Note_off_c, 0, 58, 64
2, 10848, Note_off_c, 0, 62, 64
2, 10912, Note_off_c, 0, 70, 64
2, 10912, Note_off_c, 0, 67, 64
2, 10912, Note_off_c, 0, 63, 64
2, 10912, Note_on_c, 0, 60, 100
2, 10912, Note_off_c, 0, 43, 64
2, 10912, Note_off_c, 0, 55, 64
2, 10912, Note_on_c, 0, 55, 100
2, 10976, Note_off_c, 0, 55, 64
2, 10976, Note_on_c, 0, 58, 100
2, 11168, Note_on_c, 0, 70, 100
2, 11168, Note_on_c, 0, 67, 100
2, 11168, Note_on_c, 0, 63, 100
2, 11168, Note_on_c, 0, 62, 100
2, 11168, Note_off_c, 0, 58, 64
2, 11168, Note_off_c, 0, 60, 64
2, 11168, Note_on_c, 0, 60, 100
2, 11168, Note_off_c, 0, 67, 64
2, 11168, Note_on_c, 0, 67, 100
2, 11232, Note_off_c, 0, 62, 64
2, 11232, Note_off_c, 0, 70, 64
2, 11424, Note_off_c, 0, 67, 64
2, 11424, Note_on_c, 0, 70, 100
2, 11424, Note_off_c, 0, 60, 64
2, 11424, Note_off_c, 0, 58, 64
2, 11424, Note_off_c, 0, 43, 64
2, 11424, Note_on_c, 0, 72, 100
2, 11424, Note_on_c, 0, 67, 100
2, 11424, Note_on_c, 0, 62, 100
2, 11424, Note_off_c, 0, 63, 64
2, 11424, Note_on_c, 0, 63, 100
2, 11424, Note_on_c, 0, 58, 100
2, 11424, Note_on_c, 0, 43, 100
2, 11552, Note_off_c, 0, 72, 64
2, 11552, Note_off_c, 0, 70, 64
2, 11552, Note_on_c, 0, 70, 100
2, 11616, Note_off_c, 0, 67, 64
2, 11616, Note_off_c, 0, 62, 64
2, 11616, Note_off_c, 0, 63, 64
2, 11616, Note_off_c, 0, 43, 64
2, 11680, Note_off_c, 0, 70, 64
2, 11680, Note_on_c, 0, 67, 100
2, 11680, Note_on_c, 0, 62, 100
2, 11680, Note_on_c, 0, 69, 100
2, 11680, Note_off_c, 0, 45, 64
2, 11680, Note_on_c, 0, 60, 100
2, 11680, Note_on_c, 0, 45, 100
2, 11936, Note_off_c, 0, 60, 64
2, 11936, Note_off_c, 0, 62, 64
2, 11936, Note_on_c, 0, 62, 100
2, 11936, Note_on_c, 0, 50, 100
2, 11936, Note_off_c, 0, 58, 64
2, 11936, Note_on_c, 0, 46, 100
2, 11936, Note_on_c, 0, 47, 100
2, 12192, Note_off_c, 0, 75, 64
2, 12192, Note_off_c, 0, 67, 64
2, 12192, Note_off_c, 0, 50, 64
2, 12192, Note_off_c, 0, 47, 64
2, 12192, Note_on_c, 0, 43, 100
2, 12192, Note_on_c, 0, 75, 100
2, 12192, Note_on_c, 0, 63, 100
2, 12192, Note_off_c, 0, 48, 64
2, 12320, Note_on_c, 0, 68, 100
2, 12320, Note_on_c, 0, 71, 100
2, 12320, Note_on_c, 0, 65, 100
2, 12448, Note_off_c, 0, 43, 64
2, 12448, Note_off_c, 0, 71, 64
2, 12448, Note_on_c, 0, 43, 100
2, 12448, Note_off_c, 0, 65, 64
2, 12448, Note_off_c, 0, 62, 64
2, 12448, Note_on_c, 0, 62, 100
2, 12448, Note_off_c, 0, 74, 64
2, 12448, Note_on_c, 0, 67, 100
2, 12448, Note_off_c, 0, 59, 64
2, 12448, Note_on_c, 0, 59, 100
2, 12448, Note_off_c, 0, 43, 64
2, 12704, Note_off_c, 0, 62, 64
2, 12704, Note_off_c, 0, 59, 64
2, 12704, Note_on_c, 0, 74, 100
2, 12704, Note_off_c, 0, 63, 64
2, 12704, Note_on_c, 0, 63, 100
2, 12704, Note_off_c, 0, 67, 64
2, 12704, Note_on_c, 0, 48, 100
2, 12704, Note_off_c, 0, 60, 64
2, 12704, Note_on_c, 0, 72, 100
2, 12704, Note_off_c, 0, 36, 64
2, 12704, Note_on_c, 0, 60, 100
2, 12704, Note_on_c, 0, 51, 100
2, 12832, Note_off_c, 0, 72, 64
2, 12832, Note_on_c, 0, 76, 100
2, 12960, Note_off_c, 0, 63, 64
2, 12960, Note_off_c, 0, 60, 64
2, 12960, Note_off_c, 0, 52, 64
2, 12960, Note_on_c, 0, 72, 100
2, 12960, Note_on_c, 0, 67, 100
2, 12960, Note_off_c, 0, 48, 64
2, 13216, Note_off_c, 0, 76, 64
2, 13216, Note_on_c, 0, 36, 100
2, 13216, Note_on_c, 0, 47, 100
2, 13216, Note_on_c, 0, 65, 100
2, 13216, Note_off_c, 0, 67, 64
2, 13216, Note_off_c, 0, 71, 64
2, 13216, Note_off_c, 0, 50, 64
2, 13216, Note_on_c, 0, 62, 100
2, 13216, Note_on_c, 0, 50, 100
2, 13216, Note_off_c, 0, 38, 64
2, 13216, Note_on_c, 0, 38, 100
2, 13216, Note_off_c, 0, 74, 64
2, 13216, Note_on_c, 0, 71, 100
2, 13216, Note_on_c, 0, 55, 100
2, 13472, Note_off_c, 0, 71, 64
2, 13472, Note_off_c, 0, 62, 64
2, 13472, Note_off_c, 0, 50, 64
2, 13472, Note_off_c, 0, 55, 64
2, 13472, Note_on_c, 0, 48, 100
2, 13472, Note_off_c, 0, 47, 64
2, 13472, Note_on_c, 0, 60, 100
2, 13472, Note_on_c, 0, 59, 100
2, 13472, Note_off_c, 0, 45, 64
2, 13472, Note_on_c, 0, 47, 100
2, 13472, Note_off_c, 0, 97, 64
2, 13472, Note_on_c, 0, 109, 100
2, 13472, Note_on_c, 0, 100, 100
2, 13472, Note_on_c, 0, 103, 100
2, 13472, Note_off_c, 0, 112, 64
2, 13472, Note_on_c, 0, 117, 100
2, 13472, Note_on_c, 0, 45, 100
2, 13472, Note_on_c, 0, 112, 100
2, 13472, Note_on_c, 0, 114, 100
2, 13472, Note_on_c, 0, 111, 100
2, 13472, Note_off_c, 0, 45, 64
2, 13472, Note_on_c, 0, 105, 100
2, 13472, Note_on_c, 0, 110, 100
2, 13472, Note_off_c, 0, 115, 64
2, 13472, Note_on_c, 0, 116, 100
2, 13472, Note_on_c, 0, 97, 100
2, 13472, Note_off_c, 0, 108, 64
2, 13472, Note_on_c, 0, 108, 100
2, 13536, Note_on_c, 0, 45, 100
2, 13536, Note_on_c, 0, 121, 100
2, 13600, Note_off_c, 0, 45, 64
2, 13600, Note_on_c, 0, 45, 100
2, 13600, Note_off_c, 0, 111, 64
2, 13600, Note_off_c, 0, 112, 64
2, 13600, Note_on_c, 0, 101, 100
2, 13600, Note_off_c, 0, 110, 64
2, 13600, Note_off_c, 0, 99, 64
2, 13600, Note_off_c, 0, 108, 64
2, 13600, Note_on_c, 0, 61, 100
2, 13600, Note_off_c, 0, 114, 64
2, 13600, Note_on_c, 0, 111, 100
2, 13600, Note_on_c, 0, 99, 100
2, 13600, Note_off_c, 0, 109, 64
2, 13856, Note_off_c, 0, 74, 64
2, 13856, Note_on_c, 0, 35, 100
2, 13856, Note_off_c, 0, 47, 64
2, 13856, Note_off_c, 0, 77, 64
2, 13856, Note_on_c, 0, 74, 100
2, 13856, Note_off_c, 0, 71, 64
2, 13856, Note_off_c, 0, 59, 64
2, 13856, Note_on_c, 0, 55, 100
2, 13856, Note_on_c, 0, 43, 100
2, 13856, Note_off_c, 0, 43, 64
2, 13856, Note_on_c, 0, 71, 100
2, 13856, Note_off_c, 0, 55, 64
2, 13856, Note_on_c, 0, 43, 100
2, 13856, Note_on_c, 0, 55, 100
2, 14112, Note_off_c, 0, 43, 64
2, 14112, Note_off_c, 0, 71, 64
2, 14112, Note_off_c, 0, 55, 64
2, 14112, Note_on_c, 0, 43, 100
2, 14112, Note_off_c, 0, 74, 64
2, 14112, Note_on_c, 0, 79, 100
2, 14112, Note_off_c, 0, 43, 64
2, 14368, Note_off_c, 0, 81, 64
2, 14368, Note_on_c, 0, 81, 100
2, 14432, Note_off_c, 0, 72, 64
2, 14624, Note_off_c, 0, 74, 64
2, 14624, Note_on_c, 0, 43, 100
2, 14624, Note_on_c, 0, 67, 100
2, 14624, Note_on_c, 0, 47, 100
2, 14624, Note_off_c, 0, 35, 64
2, 14624, Note_on_c, 0, 74, 100
2, 14624, Note_on_c, 0, 39, 100
2, 14880, Note_off_c, 0, 74, 64
2, 14880, Note_off_c, 0, 67, 64
2, 14880, Note_off_c, 0, 79, 64
2, 14880, Note_off_c, 0, 51, 64
2, 14880, Note_off_c, 0, 39, 64
2, 14880, Note_off_c, 0, 75, 64
2, 14880, Note_off_c, 0, 69, 64
2, 14880, Note_off_c, 0, 48, 64
2, 14880, Note_off_c, 0, 98, 64
2, 14880, Note_off_c, 0, 97, 64
2, 14880, Note_on_c, 0, 115, 100
2, 14880, Note_off_c, 0, 104, 64
2, 14944, Note_on_c, 0, 75, 100
2, 14944, Note_off_c, 0, 72, 64
2, 14944, Note_on_c, 0, 72, 100
2, 15072, Note_off_c, 0, 72, 64
2, 15072, Note_off_c, 0, 81, 64
2, 15072, Note_on_c, 0, 39, 100
2, 15072, Note_on_c, 0, 70, 100
2, 15328, Note_on_c, 0, 76, 100
2, 15328, Note_on_c, 0, 79, 100
2, 15328, Note_off_c, 0, 79, 64
2, 15328, Note_on_c, 0, 66, 100
2, 15328, Note_on_c, 0, 79, 100
2, 15392, Note_off_c, 0, 70, 64
2, 15520, Note_off_c, 0, 76, 64
2, 15520, Note_off_c, 0, 66, 64
2, 15520, Note_on_c, 0, 52, 100
2, 15520, Note_on_c, 0, 70, 100
2, 15584, Note_off_c, 0, 79, 64
2, 15584, Note_on_c, 0, 74, 100
2, 15584, Note_off_c, 0, 78, 64
2, 15584, Note_on_c, 0, 81, 100
2, 15584, Note_off_c, 0, 69, 64
2, 15584, Note_on_c, 0, 76, 100
2, 15584, Note_on_c, 0, 66, 100
2, 15584, Note_on_c, 0, 69, 100
2, 15584, Note_on_c, 0, 50, 100
2, 15584, Note_off_c, 0, 38, 64
2, 15840, Note_off_c, 0, 50, 64
2, 15840, Note_off_c, 0, 43, 64
2, 15840, Note_off_c, 0, 46, 64
2, 15840, Note_on_c, 0, 46, 100
2, 15840, Note_off_c, 0, 86, 64
2, 15840, Note_off_c, 0, 81, 64
2, 15904, Note_off_c, 0, 66, 64
2, 15904, Note_off_c, 0, 46, 64
2, 16096, Note_on_c, 0, 82, 100
2, 16096, Note_on_c, 0, 81, 100
2, 16096, Note_on_c, 0, 79, 100
2, 16096, Note_off_c, 0, 76, 64
2, 16096, Note_off_c, 0, 69, 64
2, 16160, Note_on_c, 0, 76, 100
2, 16160, Note_off_c, 0, 82, 64
2, 16160, Note_off_c, 0, 81, 64
2, 16224, Note_on_c, 0, 81, 100
2, 16288, Note_off_c, 0, 79, 64
2, 16288, Note_off_c, 0, 70, 64
2, 16352, Note_on_c, 0, 73, 100
2, 16352, Note_on_c, 0, 69, 100
2, 16352, Note_off_c, 0, 45, 64
2, 16352, Note_off_c, 0, 42, 64
2, 16352, Note_on_c, 0, 78, 100
2, 16416, Note_off_c, 0, 76, 64
2, 16480, Note_on_c, 0, 76, 100
2, 16544, Note_on_c, 0, 42, 100
2, 16608, Note_off_c, 0, 73, 64
2, 16608, Note_off_c, 0, 78, 64
2, 16608, Note_off_c, 0, 74, 64
2, 16608, Note_on_c, 0, 74, 100
2, 16608, Note_off_c, 0, 69, 64
2, 16608, Note_off_c, 0, 74, 64
2, 16672, Note_on_c, 0, 78, 100
2, 16672, Note_off_c, 0, 76, 64
2, 16672, Note_on_c, 0, 69, 100
2, 16672, Note_on_c, 0, 67, 100
2, 16672, Note_on_c, 0, 76, 100
2, 16736, Note_off_c, 0, 67, 64
2, 16736, Note_off_c, 0, 74, 64
2, 16736, Note_on_c, 0, 74, 100
2, 16736, Note_off_c, 0, 76, 64
2, 16800, Note_off_c, 0, 69, 64
2, 16800, Note_on_c, 0, 69, 100
2, 16864, Note_off_c, 0, 69, 64
2, 16864, Note_on_c, 0, 73, 100
2, 16864, Note_off_c, 0, 76, 64
2, 16864, Note_on_c, 0, 76, 100
2, 16864, Note_on_c, 0, 69, 100
2, 16928, Note_on_c, 0, 70, 100
2, 16928, Note_off_c, 0, 76, 64
2, 16928, Note_on_c, 0, 76, 100
2, 16992, Note_on_c, 0, 72, 100
2, 16992, Note_off_c, 0, 73, 64
2, 17056, Note_off_c, 0, 72, 64
2, 17056, Note_off_c, 0, 76, 64
2, 17120, Note_off_c, 0, 69, 64
2, 17120, Note_on_c, 0, 73, 100
2, 17120, Note_off_c, 0, 78, 64
2, 17184, Note_on_c, 0, 78, 100
2, 17184, Note_off_c, 0, 74, 64
2, 17184, Note_on_c, 0, 74, 100
2, 17248, Note_on_c, 0, 72, 100
2, 17248, Note_off_c, 0, 75, 64
2, 17312, Note_off_c, 0, 74, 64
2, 17312, Note_on_c, 0, 75, 100
2, 17376, Note_on_c, 0, 74, 100
2, 17376, Note_on_c, 0, 69, 100
2, 17376, Note_off_c, 0, 75, 64
2, 17376, Note_on_c, 0, 75, 100
2, 17376, Note_on_c, 0, 46, 100
2, 17440, Note_off_c, 0, 75, 64
2, 17440, Note_on_c, 0, 75, 100
2, 17504, Note_on_c, 0, 76, 100
2, 17568, Note_on_c, 0, 77, 100
2, 17568, Note_off_c, 0, 78, 64
2, 17632, Note_off_c, 0, 76, 64
2, 17632, Note_off_c, 0, 78, 64
2, 17632, Note_on_c, 0, 78, 100
2, 17696, Note_off_c, 0, 76, 64
2, 17696, Note_on_c, 0, 76, 100
2, 17696, Note_off_c, 0, 75, 64
2, 17760, Note_off_c, 0, 78, 64
2, 17824, Note_off_c, 0, 79, 64
2, 17824, Note_on_c, 0, 79, 100
2, 17824, Note_on_c, 0, 75, 100
2, 17888, Note_off_c, 0, 79, 64
2, 17888, Note_on_c, 0, 79, 100
2, 17888, Note_off_c, 0, 76, 64
2, 17952, Note_on_c, 0, 76, 100
2, 17952, Note_off_c, 0, 79, 64
2, 18016, Note_off_c, 0, 66, 64
2, 18016, Note_on_c, 0, 66, 100
2, 18080, Note_off_c, 0, 46, 64
2, 18080, Note_off_c, 0, 66, 64
2, 18080, Note_on_c, 0, 46, 100
2, 18080, Note_off_c, 0, 46, 64
2, 18176, Note_off_c, 0, 47, 64
2, 18176, Note_on_c, 0, 47, 100
2, 18176, Note_on_c, 0, 35, 100
2, 18304, Note_off_c, 0, 47, 64
2, 18304, Note_on_c, 0, 38, 100
2, 18304, Note_off_c, 0, 35, 64
2, 18432, Note_off_c, 0, 67, 64
2, 18432, Note_on_c, 0, 67, 100
2, 18560, Note_off_c, 0, 76, 64
2, 18560, Note_on_c, 0, 76, 100
2, 18560, Note_on_c, 0, 71, 100
2, 18688, Note_off_c, 0, 71, 64
2, 18688, Note_off_c, 0, 76, 64
2, 18688, Note_off_c, 0, 67, 64
2, 18688, Note_on_c, 0, 67, 100
2, 18816, Note_on_c, 0, 76, 100
2, 18816, Note_off_c, 0, 66, 64
2, 18816, Note_on_c, 0, 66, 100
2, 18816, Note_off_c, 0, 67, 64
2, 18944, Note_off_c, 0, 66, 64
2, 18944, Note_off_c, 0, 64, 64
2, 18944, Note_off_c, 0, 76, 64
2, 18944, Note_on_c, 0, 67, 100
2, 19008, Note_off_c, 0, 67, 64
2, 19072, Note_off_c, 0, 64, 64
2, 19072, Note_on_c, 0, 64, 100
2, 19072, Note_off_c, 0, 67, 64
2, 19072, Note_on_c, 0, 76, 100
2, 19072, Note_off_c, 0, 76, 64
2, 19072, Note_on_c, 0, 67, 100
2, 19072, Note_on_c, 0, 76, 100
2, 19136, Note_off_c, 0, 64, 64
2, 19136, Note_off_c, 0, 76, 64
2, 19200, Note_off_c, 0, 67, 64
2, 19200, Note_on_c, 0, 64, 100
2, 19200, Note_off_c, 0, 69, 64
2, 19200, Note_off_c, 0, 60, 64
2, 19200, Note_on_c, 0, 76, 100
2, 19264, Note_off_c, 0, 69, 64
2, 19264, Note_on_c, 0, 69, 100
2, 19328, Note_off_c, 0, 69, 64
2, 19328, Note_off_c, 0, 67, 64
2, 19328, Note_on_c, 0, 67, 100
2, 19328, Note_on_c, 0, 66, 100
2, 19392, Note_on_c, 0, 60, 100
2, 19456, Note_off_c, 0, 64, 64
2, 19456, Note_off_c, 0, 67, 64
2, 19456, Note_on_c, 0, 67, 100
2, 19456, Note_on_c, 0, 59, 100
2, 19456, Note_off_c, 0, 38, 64
2, 19584, Note_off_c, 0, 76, 64
2, 19584, Note_off_c, 0, 67, 64
2, 19584, Note_off_c, 0, 66, 64
2, 19648, Note_on_c, 0, 67, 100
2, 19712, Note_on_c, 0, 66, 100
2, 19712, Note_on_c, 0, 64, 100
2, 19712, Note_off_c, 0, 81, 64
2, 19712, Note_off_c, 0, 59, 64
2, 19712, Note_off_c, 0, 60, 64
2, 19840, Note_on_c, 0, 60, 100
2, 19840, Note_on_c, 0, 59, 100
2, 19840, Note_off_c, 0, 67, 64
2, 19904, Note_on_c, 0, 81, 100
2, 19968, Note_on_c, 0, 67, 100
2, 19968, Note_off_c, 0, 72, 64
2, 20096, Note_off_c, 0, 72, 64
2, 20096, Note_on_c, 0, 72, 100
2, 20160, Note_off_c, 0, 72, 64
2, 20224, Note_off_c, 0, 60, 64
2, 20224, Note_off_c, 0, 63, 64
2, 20224, Note_on_c, 0, 63, 100
2, 20224, Note_on_c, 0, 79, 100
2, 20288, Note_off_c, 0, 81, 64
2, 20352, Note_on_c, 0, 81, 100
2, 20416, Note_on_c, 0, 72, 100
2, 20416, Note_off_c, 0, 81, 64
2, 20480, Note_off_c, 0, 79, 64
2, 20480, Note_on_c, 0, 81, 100
2, 20608, Note_off_c, 0, 72, 64
2, 20608, Note_off_c, 0, 81, 64
2, 20672, Note_on_c, 0, 72, 100
2, 20736, Note_on_c, 0, 81, 100
2, 20736, Note_off_c, 0, 72, 64
2, 20800, Note_off_c, 0, 63, 64
2, 20800, Note_off_c, 0, 81, 64
2, 20800, Note_on_c, 0, 72, 100
2, 20864, Note_on_c, 0, 81, 100
2, 20864, Note_off_c, 0, 72, 64
2, 20928, Note_on_c, 0, 71, 100
2, 20992, Note_off_c, 0, 81, 64
2, 20992, Note_off_c, 0, 71, 64
2, 20992, Note_on_c, 0, 72, 100
2, 20992, Note_on_c, 0, 81, 100
2, 20992, Note_on_c, 0, 38, 100
2, 21120, Note_off_c, 0, 81, 64
2, 21120, Note_off_c, 0, 72, 64
2, 21248, Note_on_c, 0, 71, 100
2, 21248, Note_on_c, 0, 81, 100
2, 21248, Note_on_c, 0, 72, 100
2, 21376, Note_off_c, 0, 81, 64
2, 21376, Note_off_c, 0, 72, 64
2, 21440, Note_off_c, 0, 71, 64
2, 21504, Note_on_c, 0, 72, 100
2, 21504, Note_off_c, 0, 38, 64
2, 21504, Note_off_c, 0, 74, 64
2, 21504, Note_on_c, 0, 69, 100
2, 21632, Note_off_c, 0, 69, 64
2, 21760, Note_on_c, 0, 50, 100
2, 21760, Note_on_c, 0, 69, 100
2, 21760, Note_off_c, 0, 66, 64
2, 21888, Note_on_c, 0, 66, 100
2, 21888, Note_off_c, 0, 72, 64
2, 21952, Note_off_c, 0, 69, 64
2, 22016, Note_off_c, 0, 66, 64
2, 22016, Note_on_c, 0, 72, 100
2, 22016, Note_off_c, 0, 50, 64
2, 22016, Note_on_c, 0, 38, 100
2, 22144, Note_off_c, 0, 72, 64
2, 22144, Note_on_c, 0, 69, 100
2, 22208, Note_off_c, 0, 69, 64
2, 22272, Note_on_c, 0, 66, 100
2, 22272, Note_off_c, 0, 71, 64
2, 22272, Note_on_c, 0, 71, 100
2, 22272, Note_on_c, 0, 55, 100
2, 22272, Note_on_c, 0, 72, 100
2, 22400, Note_off_c, 0, 72, 64
2, 22400, Note_off_c, 0, 71, 64
2, 22400, Note_off_c, 0, 55, 64
2, 22464, Note_on_c, 0, 71, 100
2, 22528, Note_on_c, 0, 55, 100
2, 22528, Note_on_c, 0, 72, 100
2, 22528, Note_off_c, 0, 71, 64
2, 22528, Note_off_c, 0, 38, 64
2, 22592, Note_on_c, 0, 71, 100
2, 22592, Note_off_c, 0, 72, 64
2, 22656, Note_off_c, 0, 72, 64
2, 22656, Note_on_c, 0, 72, 100
2, 22720, Note_off_c, 0, 75, 64
2, 22720, Note_off_c, 0, 72, 64
2, 22784, Note_on_c, 0, 72, 100
2, 22784, Note_on_c, 0, 50, 100
2, 22784, Note_off_c, 0, 55, 64
2, 22784, Note_on_c, 0, 43, 100
2, 22912, Note_off_c, 0, 72, 64
2, 22912, Note_on_c, 0, 75, 100
2, 23040, Note_off_c, 0, 75, 64
2, 23040, Note_off_c, 0, 71, 64
2, 23040, Note_off_c, 0, 54, 64
2, 23168, Note_on_c, 0, 71, 100
2, 23168, Note_on_c, 0, 69, 100
2, 23296, Note_off_c, 0, 69, 64
2, 23296, Note_off_c, 0, 71, 64
2, 23296, Note_on_c, 0, 62, 100
2, 23296, Note_off_c, 0, 55, 64
2, 23296, Note_on_c, 0, 55, 100
2, 23424, Note_on_c, 0, 71, 100
2, 23424, Note_off_c, 0, 67, 64
2, 23552, Note_on_c, 0, 67, 100
2, 23552, Note_off_c, 0, 75, 64
2, 23552, Note_on_c, 0, 75, 100
2, 23552, Note_off_c, 0, 43, 64
2, 23680, Note_off_c, 0, 75, 64
2, 23680, Note_off_c, 0, 62, 64
2, 23680, Note_on_c, 0, 54, 100
2, 23808, Note_off_c, 0, 71, 64
2, 23808, Note_on_c, 0, 75, 100
2, 23808, Note_off_c, 0, 55, 64
2, 23808, Note_off_c, 0, 53, 64
2, 23808, Note_off_c, 0, 50, 64
2, 23808, Note_on_c, 0, 50, 100
2, 23936, Note_off_c, 0, 71, 64
2, 23936, Note_on_c, 0, 71, 100
2, 24064, Note_off_c, 0, 71, 64
2, 24064, Note_off_c, 0, 77, 64
2, 24064, Note_on_c, 0, 71, 100
2, 24192, Note_on_c, 0, 77, 100
2, 24192, Note_off_c, 0, 75, 64
2, 24320, Note_on_c, 0, 75, 100
2, 24320, Note_off_c, 0, 77, 64
2, 24320, Note_off_c, 0, 71, 64
2, 24320, Note_on_c, 0, 77, 100
2, 24320, Note_off_c, 0, 62, 64
2, 24320, Note_on_c, 0, 62, 100
2, 24448, Note_on_c, 0, 74, 100
2, 24448, Note_off_c, 0, 75, 64
2, 24576, Note_off_c, 0, 74, 64
2, 24576, Note_on_c, 0, 75, 100
2, 24576, Note_off_c, 0, 62, 64
2, 24576, Note_on_c, 0, 60, 100
2, 24576, Note_off_c, 0, 55, 64
2, 24576, Note_on_c, 0, 55, 100
2, 24704, Note_off_c, 0, 77, 64
2, 24704, Note_on_c, 0, 79, 100
2, 24832, Note_off_c, 0, 79, 64
2, 24832, Note_off_c, 0, 75, 64
2, 24960, Note_on_c, 0, 75, 100
2, 24960, Note_off_c, 0, 74, 64
2, 24960, Note_on_c, 0, 74, 100
2, 25088, Note_off_c, 0, 74, 64
2, 25088, Note_off_c, 0, 72, 64
2, 25088, Note_off_c, 0, 60, 64
2, 25088, Note_on_c, 0, 63, 100
2, 25088, Note_on_c, 0, 72, 100
2, 25216, Note_off_c, 0, 72, 64
2, 25344, Note_off_c, 0, 63, 64
2, 25344, Note_on_c, 0, 79, 100
2, 25344, Note_off_c, 0, 67, 64
2, 25344, Note_off_c, 0, 70, 64
2, 25344, Note_on_c, 0, 72, 100
2, 25344, Note_on_c, 0, 70, 100
2, 25344, Note_on_c, 0, 62, 100
2, 25472, Note_on_c, 0, 67, 100
2, 25472, Note_on_c, 0, 69, 100
2, 25600, Note_off_c, 0, 67, 64
2, 25600, Note_off_c, 0, 70, 64
2, 25600, Note_off_c, 0, 62, 64
2, 25600, Note_on_c, 0, 70, 100
2, 25600, Note_off_c, 0, 69, 64
2, 25600, Note_off_c, 0, 55, 64
2, 25856, Note_off_c, 0, 75, 64
2, 25856, Note_on_c, 0, 74, 100
2, 25856, Note_on_c, 0, 75, 100
2, 26112, Note_on_c, 0, 69, 100
2, 26112, Note_on_c, 0, 63, 100
2, 26112, Note_on_c, 0, 60, 100
2, 26112, Note_off_c, 0, 50, 64
2, 26112, Note_on_c, 0, 51, 100
2, 26368, Note_off_c, 0, 69, 64
2, 26368, Note_off_c, 0, 74, 64
2, 26368, Note_off_c, 0, 63, 64
2, 26368, Note_off_c, 0, 65, 64
2, 26368, Note_off_c, 0, 60, 64
2, 26368, Note_on_c, 0, 58, 100
2, 26368, Note_off_c, 0, 51, 64
2, 26368, Note_on_c, 0, 53, 100
2, 26624, Note_on_c, 0, 74, 100
2, 26624, Note_on_c, 0, 77, 100
2, 26624, Note_off_c, 0, 58, 64
2, 26624, Note_on_c, 0, 60, 100
2, 26624, Note_on_c, 0, 50, 100
2, 26624, Note_on_c, 0, 51, 100
2, 26688, Note_off_c, 0, 74, 64
2, 26688, Note_on_c, 0, 76, 100
2, 26880, Note_off_c, 0, 70, 64
2, 26880, Note_off_c, 0, 69, 64
2, 26880, Note_on_c, 0, 69, 100
2, 26880, Note_off_c, 0, 60, 64
2, 26880, Note_on_c, 0, 58, 100
2, 26880, Note_off_c, 0, 65, 64
2, 26880, Note_on_c, 0, 65, 100
2, 27136, Note_off_c, 0, 65, 64
2, 27136, Note_off_c, 0, 70, 64
2, 27136, Note_on_c, 0, 70, 100
2, 27136, Note_on_c, 0, 67, 100
2, 27136, Note_on_c, 0, 65, 100
2, 27136, Note_off_c, 0, 50, 64
2, 27136, Note_off_c, 0, 51, 64
2, 27392, Note_off_c, 0, 70, 64
2, 27392, Note_on_c, 0, 70, 100
2, 27392, Note_off_c, 0, 69, 64
2, 27392, Note_off_c, 0, 58, 64
2, 27392, Note_off_c, 0, 67, 64
2, 27392, Note_off_c, 0, 65, 64
2, 27520, Note_on_c, 0, 69, 100
2, 27520, Note_on_c, 0, 67, 100
2, 27648, Note_off_c, 0, 69, 64
2, 27648, Note_on_c, 0, 69, 100
2, 27648, Note_off_c, 0, 67, 64
2, 27648, Note_off_c, 0, 65, 64
2, 27648, Note_on_c, 0, 65, 100
2, 27648, Note_on_c, 0, 60, 100
2, 27904, Note_off_c, 0, 76, 64
2, 27904, Note_on_c, 0, 74, 100
2, 27904, Note_off_c, 0, 69, 64
2, 27904, Note_off_c, 0, 70, 64
2, 27904, Note_on_c, 0, 69, 100
2, 27904, Note_on_c, 0, 67, 100
2, 27904, Note_off_c, 0, 60, 64
2, 27904, Note_on_c, 0, 58, 100
2, 27904, Note_on_c, 0, 51, 100
2, 27904, Note_on_c, 0, 50, 100
2, 28032, Note_off_c, 0, 74, 64
2, 28032, Note_off_c, 0, 75, 64
2, 28160, Note_on_c, 0, 60, 100
2, 28160, Note_off_c, 0, 58, 64
2, 28288, Note_on_c, 0, 75, 100
2, 28288, Note_off_c, 0, 74, 64
2, 28288, Note_on_c, 0, 74, 100
2, 28288, Note_off_c, 0, 72, 64
2, 28416, Note_off_c, 0, 70, 64
2, 28416, Note_on_c, 0, 72, 100
2, 28416, Note_off_c, 0, 75, 64
2, 28416, Note_off_c, 0, 72, 64
2, 28416, Note_off_c, 0, 69, 64
2, 28416, Note_on_c, 0, 72, 100
2, 28416, Note_off_c, 0, 67, 64
2, 28416, Note_on_c, 0, 70, 100
2, 28416, Note_on_c, 0, 58, 100
2, 28416, Note_off_c, 0, 57, 64
2, 28416, Note_off_c, 0, 51, 64
2, 28416, Note_off_c, 0, 50, 64
2, 28544, Note_on_c, 0, 51, 100
2, 28544, Note_on_c, 0, 55, 100
2, 28672, Note_off_c, 0, 70, 64
2, 28672, Note_on_c, 0, 69, 100
2, 28672, Note_off_c, 0, 51, 64
2, 28672, Note_off_c, 0, 53, 64
2, 28672, Note_on_c, 0, 53, 100
2, 28928, Note_on_c, 0, 70, 100
2, 28928, Note_off_c, 0, 72, 64
2, 28928, Note_off_c, 0, 55, 64
2, 28928, Note_off_c, 0, 69, 64
2, 28928, Note_on_c, 0, 57, 100
2, 29184, Note_on_c, 0, 69, 100
2, 29184, Note_off_c, 0, 74, 64
2, 29184, Note_on_c, 0, 72, 100
2, 29184, Note_off_c, 0, 65, 64
2, 29184, Note_off_c, 0, 53, 64
2, 29184, Note_on_c, 0, 46, 100
2, 29440, Note_off_c, 0, 69, 64
2, 29440, Note_on_c, 0, 65, 100
2, 29440, Note_on_c, 0, 75, 100
2, 29440, Note_off_c, 0, 72, 64
2, 29696, Note_off_c, 0, 70, 64
2, 29696, Note_off_c, 0, 65, 64
2, 29696, Note_on_c, 0, 65, 100
2, 29696, Note_off_c, 0, 62, 64
2, 29696, Note_on_c, 0, 62, 100
2, 29696, Note_on_c, 0, 72, 100
2, 29696, Note_on_c, 0, 53, 100
2, 29696, Note_off_c, 0, 46, 64
2, 29696, Note_on_c, 0, 46, 100
2, 29952, Note_off_c, 0, 46, 64
2, 29952, Note_off_c, 0, 53, 64
2, 30080, Note_on_c, 0, 53, 100
2, 30080, Note_on_c, 0, 51, 100
2, 30208, Note_off_c, 0, 72, 64
2, 30208, Note_on_c, 0, 74, 100
2, 30208, Note_off_c, 0, 65, 64
2, 30208, Note_on_c, 0, 70, 100
2, 30208, Note_off_c, 0, 53, 64
2, 30208, Note_off_c, 0, 55, 64
2, 30208, Note_on_c, 0, 48, 100
2, 30208, Note_on_c, 0, 43, 100
2, 30208, Note_on_c, 0, 55, 100
2, 30336, Note_off_c, 0, 48, 64
2, 30336, Note_on_c, 0, 50, 100
2, 30336, Note_off_c, 0, 51, 64
2, 30464, Note_off_c, 0, 70, 64
2, 30464, Note_on_c, 0, 67, 100
2, 30464, Note_off_c, 0, 50, 64
2, 30464, Note_off_c, 0, 48, 64
2, 30464, Note_on_c, 0, 48, 100
2, 30592, Note_off_c, 0, 48, 64
2, 30592, Note_on_c, 0, 50, 100
2, 30592, Note_on_c, 0, 48, 100
2, 30720, Note_off_c, 0, 74, 64
2, 30720, Note_off_c, 0, 77, 64
2, 30720, Note_off_c, 0, 67, 64
2, 30720, Note_on_c, 0, 46, 100
2, 30720, Note_off_c, 0, 50, 64
2, 30720, Note_off_c, 0, 48, 64
2, 30848, Note_off_c, 0, 46, 64
2, 30976, Note_on_c, 0, 77, 100
2, 30976, Note_on_c, 0, 74, 100
2, 30976, Note_on_c, 0, 70, 100
2, 30976, Note_on_c, 0, 63, 100
2, 30976, Note_on_c, 0, 50, 100
2, 31104, Note_off_c, 0, 50, 64
2, 31232, Note_off_c, 0, 63, 64
2, 31232, Note_off_c, 0, 62, 64
2, 31232, Note_on_c, 0, 50, 100
2, 31232, Note_on_c, 0, 48, 100
2, 31360, Note_off_c, 0, 60, 64
2, 31360, Note_off_c, 0, 57, 64
2, 31488, Note_on_c, 0, 57, 100
2, 31488, Note_off_c, 0, 55, 64
2, 31488, Note_on_c, 0, 51, 100
2, 31488, Note_on_c, 0, 53, 100
2, 31488, Note_off_c, 0, 48, 64
2, 31616, Note_on_c, 0, 62, 100
2, 31616, Note_on_c, 0, 60, 100
2, 31616, Note_on_c, 0, 55, 100
2, 31616, Note_on_c, 0, 56, 100
2, 31744, Note_off_c, 0, 70, 64
2, 31744, Note_off_c, 0, 60, 64
2, 31744, Note_off_c, 0, 58, 64
2, 31744, Note_off_c, 0, 56, 64
2, 31744, Note_off_c, 0, 51, 64
2, 31744, Note_on_c, 0, 48, 100
2, 31744, Note_off_c, 0, 36, 64
2, 31872, Note_on_c, 0, 60, 100
2, 31872, Note_off_c, 0, 62, 64
2, 32000, Note_on_c, 0, 62, 100
2, 32000, Note_on_c, 0, 58, 100
2, 32000, Note_off_c, 0, 55, 64
2, 32000, Note_off_c, 0, 48, 64
2, 32000, Note_on_c, 0, 46, 100
2, 32000, Note_on_c, 0, 51, 100
2, 32000, Note_off_c, 0, 39, 64
2, 32128, Note_on_c, 0, 70, 100
2, 32128, Note_on_c, 0, 65, 100
2, 32128, Note_off_c, 0, 58, 64
2, 32128, Note_on_c, 0, 56, 100
2, 32128, Note_on_c, 0, 55, 100
2, 32256, Note_off_c, 0, 65, 64
2, 32256, Note_on_c, 0, 67, 100
2, 32256, Note_on_c, 0, 58, 100
2, 32256, Note_on_c, 0, 48, 100
2, 32256, Note_off_c, 0, 56, 64
2, 32256, Note_off_c, 0, 55, 64
2, 32256, Note_on_c, 0, 44, 100
2, 32256, Note_off_c, 0, 43, 64
2, 32256, Note_off_c, 0, 46, 64
2, 32384, Note_off_c, 0, 58, 64
2, 32384, Note_on_c, 0, 58, 100
2, 32512, Note_off_c, 0, 58, 64
2, 32512, Note_on_c, 0, 63, 100
2, 32512, Note_on_c, 0, 56, 100
2, 32512, Note_on_c, 0, 55, 100
2, 32512, Note_on_c, 0, 46, 100
2, 32512, Note_off_c, 0, 51, 64
2, 32512, Note_on_c, 0, 39, 100
2, 32640, Note_off_c, 0, 56, 64
2, 32640, Note_off_c, 0, 55, 64
2, 32768, Note_on_c, 0, 51, 100
2, 32768, Note_off_c, 0, 39, 64
2, 32896, Note_on_c, 0, 55, 100
2, 32896, Note_on_c, 0, 58, 100
2, 33024, Note_off_c, 0, 63, 64
2, 33024, Note_on_c, 0, 63, 100
2, 33024, Note_off_c, 0, 58, 64
2, 33024, Note_on_c, 0, 56, 100
2, 33024, Note_off_c, 0, 55, 64
2, 33152, Note_off_c, 0, 56, 64
2, 33152, Note_on_c, 0, 55, 100
2, 33280, Note_off_c, 0, 55, 64
2, 33280, Note_off_c, 0, 57, 64
2, 33280, Note_on_c, 0, 39, 100
2, 33280, Note_on_c, 0, 57, 100
2, 33280, Note_off_c, 0, 57, 64
2, 33280, Note_off_c, 0, 62, 64
2, 33408, Note_on_c, 0, 57, 100
2, 33536, Note_off_c, 0, 60, 64
2, 33536, Note_off_c, 0, 57, 64
2, 33536, Note_on_c, 0, 58, 100
2, 33536, Note_off_c, 0, 51, 64
2, 33536, Note_on_c, 0, 51, 100
2, 33664, Note_off_c, 0, 63, 64
2, 33664, Note_on_c, 0, 62, 100
2, 33792, Note_off_c, 0, 62, 64
2, 33792, Note_off_c, 0, 67, 64
2, 33792, Note_off_c, 0, 10, 64
2, 33792, Note_on_c, 0, 10, 100
2, 33792, End_track
0, 0, End_of_file
