0, 0, Header, 1, 2, 512
1, 0, Start_track
1, 0, Title_t, 'example'
1, 0, Tempo, 413793
1, 0, Time_signature, 4, 2, 24, 8
1, 0, End_track
2, 0, Start_track
2, 0, Title_t, 'Instrument Track 01'
2, 0, Program_c, 6, 6
2, 0, Note_on_c, 0, 60, 100
2, 0, Note_on_c, 0, 64, 100
2, 0, Note_on_c, 0, 67, 100
2, 160, Note_off_c, 0, 60, 64
2, 160, Note_off_c, 0, 64, 64
2, 160, Note_off_c, 0, 67, 64
2, 288, Note_on_c, 0, 64, 100
2, 288, Note_off_c, 0, 61, 64
2, 288, Note_on_c, 0, 61, 100
2, 288, Note_on_c, 0, 62, 100
2, 288, Note_off_c, 0, 62, 64
2, 288, Note_on_c, 0, 62, 100
2, 416, Note_on_c, 0, 69, 100
2, 416, Note_off_c, 0, 67, 64
2, 416, Note_on_c, 0, 67, 100
2, 416, Note_on_c, 0, 60, 100
2, 416, Note_off_c, 0, 61, 64
2, 544, Note_on_c, 0, 61, 100
2, 544, Note_off_c, 0, 64, 64
2, 544, Note_off_c, 0, 67, 64
2, 544, Note_off_c, 0, 62, 64
2, 544, Note_on_c, 0, 62, 100
2, 544, Note_on_c, 0, 55, 100
2, 672, Note_off_c, 0, 62, 64
2, 672, Note_off_c, 0, 64, 64
2, 672, Note_on_c, 0, 64, 100
2, 800, Note_off_c, 0, 55, 64
2, 800, Note_off_c, 0, 64, 64
2, 800, Note_on_c, 0, 64, 100
2, 800, Note_off_c, 0, 61, 64
2, 800, Note_off_c, 0, 57, 64
2, 800, Note_on_c, 0, 57, 100
2, 928, Note_off_c, 0, 64, 64
2, 928, Note_off_c, 0, 62, 64
2, 928, Note_on_c, 0, 62, 100
2, 928, Note_off_c, 0, 38, 64
2, 928, Note_on_c, 0, 38, 100
2, 1056, Note_on_c, 0, 61, 100
2, 1056, Note_off_c, 0, 62, 64
2, 1056, Note_off_c, 0, 57, 64
2, 1056, Note_on_c, 0, 40, 100
2, 1056, Note_off_c, 0, 38, 64
2, 1056, Note_on_c, 0, 74, 100
2, 1056, Note_on_c, 0, 64, 100
2, 1056, Note_on_c, 0, 62, 100
2, 1312, Note_off_c, 0, 62, 64
2, 1312, Note_off_c, 0, 64, 64
2, 1440, Note_on_c, 0, 64, 100
2, 1440, Note_off_c, 0, 66, 64
2, 1440, Note_on_c, 0, 66, 100
2, 1440, Note_on_c, 0, 50, 100
2, 1440, Note_on_c, 0, 57, 100
2, 1440, Note_on_c, 0, 38, 100
2, 1568, Note_off_c, 0, 66, 64
2, 1568, Note_off_c, 0, 50, 64
2, 1568, Note_off_c, 0, 38, 64
2, 1568, Note_off_c, 0, 62, 64
2, 1568, Note_on_c, 0, 62, 100
2, 1568, Note_on_c, 0, 50, 100
2, 1568, Note_on_c, 0, 38, 100
2, 1568, Note_off_c, 0, 50, 64
2, 1696, Note_off_c, 0, 57, 64
2, 1696, Note_on_c, 0, 57, 100
2, 1696, Note_off_c, 0, 74, 64
2, 1824, Note_off_c, 0, 62, 64
2, 1824, Note_off_c, 0, 57, 64
2, 1824, Note_off_c, 0, 38, 64
2, 1824, Note_on_c, 0, 50, 100
2, 1824, Note_off_c, 0, 74, 64
2, 1824, Note_on_c, 0, 74, 100
2, 1824, Note_on_c, 0, 62, 100
2, 1824, Note_on_c, 0, 42, 100
2, 2080, Note_off_c, 0, 74, 64
2, 2080, Note_off_c, 0, 62, 64
2, 2080, Note_off_c, 0, 69, 64
2, 2080, Note_on_c, 0, 72, 100
2, 2208, Note_off_c, 0, 72, 64
2, 2208, Note_on_c, 0, 69, 100
2, 2208, Note_off_c, 0, 42, 64
2, 2208, Note_off_c, 0, 71, 64
2, 2208, Note_on_c, 0, 71, 100
2, 2208, Note_on_c, 0, 38, 100
2, 2336, Note_on_c, 0, 52, 100
2, 2336, Note_off_c, 0, 38, 64
2, 2336, Note_off_c, 0, 71, 64
2, 2336, Note_off_c, 0, 72, 64
2, 2336, Note_on_c, 0, 72, 100
2, 2336, Note_on_c, 0, 45, 100
2, 2464, Note_off_c, 0, 69, 64
2, 2592, Note_off_c, 0, 72, 64
2, 2592, Note_off_c, 0, 62, 64
2, 2592, Note_on_c, 0, 69, 100
2, 2592, Note_on_c, 0, 74, 100
2, 2592, Note_on_c, 0, 62, 100
2, 2592, Note_on_c, 0, 78, 100
2, 2720, Note_off_c, 0, 74, 64
2, 2720, Note_on_c, 0, 72, 100
2, 2720, Note_off_c, 0, 62, 64
2, 2848, Note_off_c, 0, 78, 64
2, 2848, Note_off_c, 0, 72, 64
2, 2848, Note_off_c, 0, 45, 64
2, 2848, Note_on_c, 0, 62, 100
2, 2848, Note_on_c, 0, 72, 100
2, 2848, Note_off_c, 0, 69, 64
2, 2848, Note_on_c, 0, 74, 100
2, 2848, Note_off_c, 0, 50, 64
2, 2976, Note_off_c, 0, 74, 64
2, 2976, Note_on_c, 0, 74, 100
2, 2976, Note_off_c, 0, 72, 64
2, 2976, Note_on_c, 0, 69, 100
2, 3104, Note_on_c, 0, 50, 100
2, 3104, Note_off_c, 0, 69, 64
2, 3104, Note_off_c, 0, 72, 64
2, 3104, Note_on_c, 0, 69, 100
2, 3104, Note_on_c, 0, 66, 100
2, 3104, Note_on_c, 0, 72, 100
2, 3104, Note_off_c, 0, 60, 64
2, 3104, Note_on_c, 0, 78, 100
2, 3232, Note_off_c, 0, 78, 64
2, 3232, Note_on_c, 0, 60, 100
2, 3232, Note_off_c, 0, 74, 64
2, 3360, Note_off_c, 0, 69, 64
2, 3360, Note_off_c, 0, 66, 64
2, 3360, Note_off_c, 0, 72, 64
2, 3360, Note_on_c, 0, 74, 100
2, 3360, Note_off_c, 0, 62, 64
2, 3360, Note_on_c, 0, 62, 100
2, 3360, Note_on_c, 0, 58, 100
2, 3360, Note_on_c, 0, 71, 100
2, 3360, Note_on_c, 0, 66, 100
2, 3488, Note_off_c, 0, 66, 64
2, 3488, Note_on_c, 0, 67, 100
2, 3616, Note_off_c, 0, 67, 64
2, 3616, Note_off_c, 0, 71, 64
2, 3616, Note_off_c, 0, 62, 64
2, 3616, Note_off_c, 0, 74, 64
2, 3616, Note_off_c, 0, 58, 64
2, 3616, Note_on_c, 0, 65, 100
2, 3616, Note_on_c, 0, 67, 100
2, 3616, Note_on_c, 0, 72, 100
2, 3616, Note_on_c, 0, 69, 100
2, 3616, Note_on_c, 0, 55, 100
2, 3616, Note_on_c, 0, 43, 100
2, 3744, Note_off_c, 0, 72, 64
2, 3744, Note_off_c, 0, 67, 64
2, 3744, Note_on_c, 0, 67, 100
2, 3744, Note_on_c, 0, 72, 100
2, 3872, Note_off_c, 0, 69, 64
2, 3872, Note_off_c, 0, 65, 64
2, 3872, Note_off_c, 0, 67, 64
2, 3872, Note_off_c, 0, 62, 64
2, 3872, Note_off_c, 0, 43, 64
2, 3872, Note_on_c, 0, 62, 100
2, 4000, Note_off_c, 0, 72, 64
2, 4000, Note_on_c, 0, 74, 100
2, 4000, Note_off_c, 0, 62, 64
2, 4128, Note_off_c, 0, 74, 64
2, 4128, Note_on_c, 0, 62, 100
2, 4128, Note_off_c, 0, 55, 64
2, 4128, Note_off_c, 0, 76, 64
2, 4128, Note_on_c, 0, 67, 100
2, 4128, Note_on_c, 0, 76, 100
2, 4128, Note_off_c, 0, 60, 64
2, 4128, Note_on_c, 0, 43, 100
2, 4128, Note_off_c, 0, 64, 64
2, 4128, Note_on_c, 0, 55, 100
2, 4256, Note_off_c, 0, 67, 64
2, 4256, Note_on_c, 0, 72, 100
2, 4256, Note_off_c, 0, 76, 64
2, 4256, Note_on_c, 0, 74, 100
2, 4384, Note_on_c, 0, 76, 100
2, 4384, Note_off_c, 0, 72, 64
2, 4384, Note_on_c, 0, 60, 100
2, 4384, Note_off_c, 0, 74, 64
2, 4384, Note_on_c, 0, 64, 100
2, 4384, Note_off_c, 0, 43, 64
2, 4384, Note_on_c, 0, 48, 100
2, 4384, Note_on_c, 0, 67, 100
2, 4512, Note_off_c, 0, 67, 64
2, 4512, Note_off_c, 0, 76, 64
2, 4512, Note_on_c, 0, 70, 100
2, 4640, Note_off_c, 0, 55, 64
2, 4640, Note_off_c, 0, 70, 64
2, 4640, Note_on_c, 0, 76, 100
2, 4640, Note_off_c, 0, 48, 64
2, 4640, Note_off_c, 0, 64, 64
2, 4768, Note_on_c, 0, 72, 100
2, 4768, Note_off_c, 0, 70, 64
2, 4768, Note_on_c, 0, 70, 100
2, 4896, Note_off_c, 0, 72, 64
2, 4896, Note_on_c, 0, 64, 100
2, 4896, Note_off_c, 0, 70, 64
2, 4896, Note_on_c, 0, 67, 100
2, 4896, Note_off_c, 0, 49, 64
2, 4896, Note_on_c, 0, 49, 100
2, 4896, Note_off_c, 0, 61, 64
2, 4896, Note_on_c, 0, 69, 100
2, 5024, Note_on_c, 0, 77, 100
2, 5024, Note_off_c, 0, 76, 64
2, 5152, Note_on_c, 0, 76, 100
2, 5152, Note_off_c, 0, 67, 64
2, 5152, Note_off_c, 0, 69, 64
2, 5152, Note_on_c, 0, 58, 100
2, 5152, Note_off_c, 0, 49, 64
2, 5152, Note_off_c, 0, 65, 64
2, 5152, Note_on_c, 0, 65, 100
2, 5152, Note_off_c, 0, 53, 64
2, 5152, Note_on_c, 0, 53, 100
2, 5280, Note_off_c, 0, 72, 64
2, 5280, Note_on_c, 0, 72, 100
2, 5408, Note_off_c, 0, 65, 64
2, 5408, Note_off_c, 0, 72, 64
2, 5408, Note_off_c, 0, 53, 64
2, 5408, Note_off_c, 0, 57, 64
2, 5408, Note_on_c, 0, 57, 100
2, 5408, Note_off_c, 0, 77, 64
2, 5536, Note_on_c, 0, 77, 100
2, 5536, Note_off_c, 0, 72, 64
2, 5536, Note_on_c, 0, 72, 100
2, 5664, Note_off_c, 0, 72, 64
2, 5664, Note_off_c, 0, 57, 64
2, 5664, Note_off_c, 0, 77, 64
2, 5664, Note_on_c, 0, 77, 100
2, 5664, Note_on_c, 0, 74, 100
2, 5664, Note_on_c, 0, 72, 100
2, 5664, Note_off_c, 0, 50, 64
2, 5792, Note_off_c, 0, 72, 64
2, 5792, Note_off_c, 0, 74, 64
2, 5920, Note_off_c, 0, 77, 64
2, 5920, Note_on_c, 0, 72, 100
2, 5920, Note_on_c, 0, 70, 100
2, 6048, Note_off_c, 0, 72, 64
2, 6048, Note_on_c, 0, 74, 100
2, 6176, Note_off_c, 0, 74, 64
2, 6176, Note_on_c, 0, 72, 100
2, 6304, Note_off_c, 0, 72, 64
2, 6304, Note_on_c, 0, 75, 100
2, 6432, Note_on_c, 0, 53, 100
2, 6432, Note_on_c, 0, 50, 100
2, 6432, Note_off_c, 0, 75, 64
2, 6432, Note_off_c, 0, 58, 64
2, 6560, Note_off_c, 0, 76, 64
2, 6688, Note_on_c, 0, 58, 100
2, 6688, Note_off_c, 0, 50, 64
2, 6688, Note_on_c, 0, 76, 100
2, 6688, Note_on_c, 0, 74, 100
2, 6688, Note_off_c, 0, 57, 64
2, 6688, Note_on_c, 0, 36, 100
2, 6688, Note_on_c, 0, 57, 100
2, 6752, Note_off_c, 0, 74, 64
2, 6752, Note_on_c, 0, 72, 100
2, 6880, Note_off_c, 0, 72, 64
2, 6880, Note_off_c, 0, 70, 64
2, 6880, Note_on_c, 0, 77, 100
2, 6944, Note_off_c, 0, 76, 64
2, 6944, Note_on_c, 0, 70, 100
2, 6944, Note_off_c, 0, 57, 64
2, 6944, Note_on_c, 0, 72, 100
2, 7008, Note_off_c, 0, 70, 64
2, 7008, Note_off_c, 0, 72, 64
2, 7072, Note_on_c, 0, 70, 100
2, 7072, Note_off_c, 0, 77, 64
2, 7136, Note_on_c, 0, 72, 100
2, 7136, Note_on_c, 0, 76, 100
2, 7200, Note_off_c, 0, 76, 64
2, 7200, Note_off_c, 0, 72, 64
2, 7200, Note_off_c, 0, 60, 64
2, 7200, Note_on_c, 0, 57, 100
2, 7200, Note_on_c, 0, 77, 100
2, 7200, Note_on_c, 0, 74, 100
2, 7328, Note_off_c, 0, 77, 64
2, 7328, Note_on_c, 0, 72, 100
2, 7328, Note_off_c, 0, 74, 64
2, 7392, Note_on_c, 0, 65, 100
2, 7392, Note_on_c, 0, 74, 100
2, 7456, Note_off_c, 0, 65, 64
2, 7456, Note_off_c, 0, 72, 64
2, 7456, Note_off_c, 0, 60, 64
2, 7456, Note_off_c, 0, 57, 64
2, 7456, Note_on_c, 0, 79, 100
2, 7456, Note_on_c, 0, 72, 100
2, 7456, Note_on_c, 0, 48, 100
2, 7456, Note_off_c, 0, 36, 64
2, 7456, Note_on_c, 0, 77, 100
2, 7456, Note_on_c, 0, 57, 100
2, 7456, Note_on_c, 0, 60, 100
2, 7456, Note_on_c, 0, 36, 100
2, 7584, Note_off_c, 0, 74, 64
2, 7584, Note_on_c, 0, 74, 100
2, 7712, Note_off_c, 0, 57, 64
2, 7712, Note_off_c, 0, 48, 64
2, 7712, Note_off_c, 0, 36, 64
2, 7712, Note_on_c, 0, 36, 100
2, 7712, Note_off_c, 0, 70, 64
2, 7712, Note_on_c, 0, 57, 100
2, 7840, Note_off_c, 0, 79, 64
2, 7840, Note_off_c, 0, 74, 64
2, 7968, Note_off_c, 0, 60, 64
2, 7968, Note_off_c, 0, 81, 64
2, 7968, Note_on_c, 0, 81, 100
2, 7968, Note_off_c, 0, 72, 64
2, 7968, Note_on_c, 0, 65, 100
2, 7968, Note_on_c, 0, 60, 100
2, 7968, Note_off_c, 0, 53, 64
2, 8096, Note_on_c, 0, 84, 100
2, 8096, Note_on_c, 0, 79, 100
2, 8224, Note_on_c, 0, 53, 100
2, 8224, Note_off_c, 0, 60, 64
2, 8224, Note_off_c, 0, 77, 64
2, 8224, Note_on_c, 0, 82, 100
2, 8224, Note_on_c, 0, 72, 100
2, 8224, Note_off_c, 0, 65, 64
2, 8224, Note_off_c, 0, 58, 64
2, 8224, Note_on_c, 0, 67, 100
2, 8224, Note_on_c, 0, 46, 100
2, 8224, Note_on_c, 0, 34, 100
2, 8224, Note_on_c, 0, 58, 100
2, 8352, Note_on_c, 0, 77, 100
2, 8352, Note_off_c, 0, 79, 64
2, 8480, Note_off_c, 0, 46, 64
2, 8480, Note_off_c, 0, 58, 64
2, 8480, Note_off_c, 0, 82, 64
2, 8480, Note_off_c, 0, 81, 64
2, 8480, Note_off_c, 0, 77, 64
2, 8480, Note_on_c, 0, 69, 100
2, 8480, Note_off_c, 0, 72, 64
2, 8480, Note_on_c, 0, 72, 100
2, 8736, Note_off_c, 0, 72, 64
2, 8736, Note_on_c, 0, 82, 100
2, 8736, Note_off_c, 0, 67, 64
2, 8736, Note_off_c, 0, 69, 64
2, 8736, Note_on_c, 0, 72, 100
2, 8736, Note_on_c, 0, 67, 100
2, 8736, Note_off_c, 0, 62, 64
2, 8736, Note_on_c, 0, 46, 100
2, 8736, Note_on_c, 0, 81, 100
2, 8864, Note_off_c, 0, 72, 64
2, 8864, Note_on_c, 0, 69, 100
2, 8992, Note_on_c, 0, 62, 100
2, 8992, Note_off_c, 0, 46, 64
2, 8992, Note_off_c, 0, 67, 64
2, 8992, Note_on_c, 0, 79, 100
2, 9056, Note_on_c, 0, 70, 100
2, 9120, Note_off_c, 0, 69, 64
2, 9120, Note_on_c, 0, 69, 100
2, 9248, Note_off_c, 0, 70, 64
2, 9248, Note_off_c, 0, 69, 64
2, 9248, Note_off_c, 0, 65, 64
2, 9248, Note_on_c, 0, 65, 100
2, 9248, Note_on_c, 0, 70, 100
2, 9248, Note_on_c, 0, 46, 100
2, 9312, Note_off_c, 0, 46, 64
2, 9312, Note_off_c, 0, 70, 64
2, 9312, Note_off_c, 0, 65, 64
2, 9376, Note_off_c, 0, 81, 64
2, 9376, Note_on_c, 0, 65, 100
2, 9376, Note_on_c, 0, 72, 100
2, 9376, Note_on_c, 0, 81, 100
2, 9376, Note_on_c, 0, 77, 100
2, 9440, Note_off_c, 0, 81, 64
2, 9440, Note_off_c, 0, 72, 64
2, 9504, Note_off_c, 0, 84, 64
2, 9504, Note_off_c, 0, 82, 64
2, 9504, Note_on_c, 0, 82, 100
2, 9504, Note_off_c, 0, 79, 64
2, 9504, Note_on_c, 0, 70, 100
2, 9504, Note_off_c, 0, 48, 64
2, 9504, Note_off_c, 0, 82, 64
2, 9504, Note_on_c, 0, 84, 100
2, 9504, Note_off_c, 0, 36, 64
2, 9504, Note_on_c, 0, 48, 100
2, 9568, Note_on_c, 0, 82, 100
2, 9568, Note_on_c, 0, 79, 100
2, 9568, Note_off_c, 0, 70, 64
2, 9568, Note_off_c, 0, 84, 64
2, 9632, Note_on_c, 0, 70, 100
2, 9632, Note_off_c, 0, 86, 64
2, 9632, Note_on_c, 0, 86, 100
2, 9632, Note_off_c, 0, 77, 64
2, 9632, Note_on_c, 0, 77, 100
2, 9696, Note_on_c, 0, 84, 100
2, 9696, Note_off_c, 0, 48, 64
2, 9696, Note_off_c, 0, 34, 64
2, 9696, Note_off_c, 0, 82, 64
2, 9696, Note_on_c, 0, 82, 100
2, 9760, Note_off_c, 0, 46, 64
2, 9760, Note_on_c, 0, 46, 100
2, 9760, Note_off_c, 0, 82, 64
2, 9760, Note_off_c, 0, 65, 64
2, 9824, Note_on_c, 0, 65, 100
2, 9888, Note_off_c, 0, 77, 64
2, 9888, Note_off_c, 0, 62, 64
2, 9888, Note_on_c, 0, 62, 100
2, 9888, Note_on_c, 0, 82, 100
2, 9888, Note_on_c, 0, 77, 100
2, 9952, Note_off_c, 0, 62, 64
2, 9952, Note_off_c, 0, 70, 64
2, 9952, Note_on_c, 0, 67, 100
2, 10016, Note_off_c, 0, 79, 64
2, 10016, Note_off_c, 0, 46, 64
2, 10016, Note_off_c, 0, 82, 64
2, 10016, Note_off_c, 0, 67, 64
2, 10016, Note_on_c, 0, 62, 100
2, 10016, Note_on_c, 0, 70, 100
2, 10016, Note_on_c, 0, 46, 100
2, 10016, Note_on_c, 0, 34, 100
2, 10144, Note_off_c, 0, 70, 64
2, 10208, Note_on_c, 0, 79, 100
2, 10208, Note_off_c, 0, 34, 64
2, 10208, Note_off_c, 0, 46, 64
2, 10272, Note_off_c, 0, 79, 64
2, 10272, Note_on_c, 0, 78, 100
2, 10272, Note_off_c, 0, 62, 64
2, 10272, Note_on_c, 0, 50, 100
2, 10272, Note_on_c, 0, 42, 100
2, 10272, Note_on_c, 0, 70, 100
2, 10400, Note_on_c, 0, 79, 100
2, 10400, Note_off_c, 0, 78, 64
2, 10528, Note_on_c, 0, 75, 100
2, 10528, Note_off_c, 0, 50, 64
2, 10528, Note_off_c, 0, 78, 64
2, 10528, Note_off_c, 0, 70, 64
2, 10528, Note_on_c, 0, 66, 100
2, 10528, Note_on_c, 0, 74, 100
2, 10528, Note_on_c, 0, 78, 100
2, 10720, Note_off_c, 0, 66, 64
2, 10720, Note_off_c, 0, 77, 64
2, 10720, Note_off_c, 0, 74, 64
2, 10784, Note_off_c, 0, 74, 64
2, 10784, Note_on_c, 0, 74, 100
2, 10784, Note_on_c, 0, 70, 100
2, 10784, Note_off_c, 0, 62, 64
2, 10784, Note_off_c, 0, 43, 64
2, 10784, Note_on_c, 0, 43, 100
2, 10784, Note_off_c, 0, 79, 64
2, 10784, Note_on_c, 0, 62, 100
2, 10784, Note_off_c, 0, 55, 64
2, 10784, Note_on_c, 0, 55, 100
2, 10976, Note_on_c, 0, 79, 100
2, 10976, Note_off_c, 0, 70, 64
2, 10976, Note_off_c, 0, 74, 64
2, 11040, Note_off_c, 0, 65, 64
2, 11040, Note_off_c, 0, 62, 64
2, 11040, Note_on_c, 0, 70, 100
2, 11040, Note_on_c, 0, 77, 100
2, 11040, Note_on_c, 0, 58, 100
2, 11040, Note_off_c, 0, 55, 64
2, 11296, Note_off_c, 0, 70, 64
2, 11296, Note_on_c, 0, 70, 100
2, 11296, Note_on_c, 0, 65, 100
2, 11296, Note_off_c, 0, 63, 64
2, 11296, Note_off_c, 0, 58, 64
2, 11296, Note_on_c, 0, 74, 100
2, 11296, Note_on_c, 0, 62, 100
2, 11296, Note_on_c, 0, 58, 100
2, 11296, Note_on_c, 0, 63, 100
2, 11488, Note_off_c, 0, 65, 64
2, 11488, Note_off_c, 0, 58, 64
2, 11488, Note_off_c, 0, 62, 64
2, 11552, Note_off_c, 0, 70, 64
2, 11552, Note_on_c, 0, 67, 100
2, 11552, Note_off_c, 0, 63, 64
2, 11552, Note_on_c, 0, 60, 100
2, 11552, Note_off_c, 0, 43, 64
2, 11552, Note_off_c, 0, 55, 64
2, 11552, Note_on_c, 0, 55, 100
2, 11616, Note_off_c, 0, 55, 64
2, 11616, Note_on_c, 0, 58, 100
2, 11808, Note_on_c, 0, 70, 100
2, 11808, Note_off_c, 0, 67, 64
2, 11808, Note_on_c, 0, 63, 100
2, 11808, Note_on_c, 0, 62, 100
2, 11808, Note_off_c, 0, 58, 64
2, 11808, Note_off_c, 0, 60, 64
2, 11808, Note_on_c, 0, 60, 100
2, 11808, Note_on_c, 0, 67, 100
2, 11808, Note_off_c, 0, 67, 64
2, 11872, Note_off_c, 0, 62, 64
2, 11872, Note_off_c, 0, 70, 64
2, 12064, Note_off_c, 0, 67, 64
2, 12064, Note_on_c, 0, 70, 100
2, 12064, Note_off_c, 0, 60, 64
2, 12064, Note_off_c, 0, 58, 64
2, 12064, Note_off_c, 0, 43, 64
2, 12064, Note_on_c, 0, 72, 100
2, 12064, Note_on_c, 0, 67, 100
2, 12064, Note_on_c, 0, 62, 100
2, 12064, Note_off_c, 0, 63, 64
2, 12064, Note_on_c, 0, 63, 100
2, 12064, Note_on_c, 0, 58, 100
2, 12064, Note_on_c, 0, 43, 100
2, 12192, Note_off_c, 0, 72, 64
2, 12192, Note_off_c, 0, 70, 64
2, 12192, Note_on_c, 0, 70, 100
2, 12256, Note_off_c, 0, 67, 64
2, 12256, Note_off_c, 0, 62, 64
2, 12256, Note_off_c, 0, 63, 64
2, 12256, Note_off_c, 0, 43, 64
2, 12320, Note_off_c, 0, 70, 64
2, 12320, Note_on_c, 0, 67, 100
2, 12320, Note_on_c, 0, 62, 100
2, 12320, Note_on_c, 0, 69, 100
2, 12320, Note_off_c, 0, 45, 64
2, 12320, Note_on_c, 0, 60, 100
2, 12320, Note_on_c, 0, 45, 100
2, 12576, Note_off_c, 0, 60, 64
2, 12576, Note_off_c, 0, 62, 64
2, 12576, Note_on_c, 0, 62, 100
2, 12576, Note_on_c, 0, 50, 100
2, 12576, Note_off_c, 0, 58, 64
2, 12576, Note_on_c, 0, 46, 100
2, 12576, Note_on_c, 0, 47, 100
2, 12832, Note_off_c, 0, 75, 64
2, 12832, Note_off_c, 0, 67, 64
2, 12832, Note_off_c, 0, 50, 64
2, 12832, Note_off_c, 0, 47, 64
2, 12832, Note_on_c, 0, 43, 100
2, 12832, Note_on_c, 0, 75, 100
2, 12832, Note_on_c, 0, 63, 100
2, 12832, Note_on_c, 0, 48, 100
2, 12832, Note_on_c, 0, 36, 100
2, 12832, Note_on_c, 0, 68, 100
2, 12960, Note_off_c, 0, 68, 64
2, 12960, Note_on_c, 0, 71, 100
2, 12960, Note_on_c, 0, 65, 100
2, 13088, Note_off_c, 0, 43, 64
2, 13088, Note_off_c, 0, 71, 64
2, 13088, Note_on_c, 0, 43, 100
2, 13088, Note_off_c, 0, 65, 64
2, 13088, Note_off_c, 0, 62, 64
2, 13088, Note_on_c, 0, 62, 100
2, 13088, Note_off_c, 0, 74, 64
2, 13088, Note_on_c, 0, 67, 100
2, 13088, Note_off_c, 0, 59, 64
2, 13088, Note_on_c, 0, 59, 100
2, 13088, Note_off_c, 0, 43, 64
2, 13344, Note_off_c, 0, 62, 64
2, 13344, Note_off_c, 0, 59, 64
2, 13344, Note_on_c, 0, 74, 100
2, 13344, Note_off_c, 0, 63, 64
2, 13344, Note_on_c, 0, 63, 100
2, 13344, Note_off_c, 0, 67, 64
2, 13344, Note_off_c, 0, 48, 64
2, 13344, Note_off_c, 0, 60, 64
2, 13344, Note_on_c, 0, 72, 100
2, 13344, Note_off_c, 0, 36, 64
2, 13344, Note_on_c, 0, 60, 100
2, 13344, Note_on_c, 0, 51, 100
2, 13472, Note_off_c, 0, 72, 64
2, 13472, Note_on_c, 0, 76, 100
2, 13600, Note_off_c, 0, 63, 64
2, 13600, Note_off_c, 0, 60, 64
2, 13600, Note_off_c, 0, 52, 64
2, 13600, Note_on_c, 0, 72, 100
2, 13600, Note_off_c, 0, 67, 64
2, 13600, Note_off_c, 0, 48, 64
2, 13600, Note_on_c, 0, 36, 100
2, 13600, Note_on_c, 0, 67, 100
2, 13600, Note_on_c, 0, 48, 100
2, 13856, Note_off_c, 0, 76, 64
2, 13856, Note_off_c, 0, 36, 64
2, 13856, Note_on_c, 0, 47, 100
2, 13856, Note_on_c, 0, 65, 100
2, 13856, Note_off_c, 0, 67, 64
2, 13856, Note_off_c, 0, 71, 64
2, 13856, Note_off_c, 0, 50, 64
2, 13856, Note_on_c, 0, 62, 100
2, 13856, Note_on_c, 0, 50, 100
2, 13856, Note_off_c, 0, 38, 64
2, 13856, Note_on_c, 0, 38, 100
2, 13856, Note_off_c, 0, 74, 64
2, 13856, Note_on_c, 0, 71, 100
2, 13856, Note_on_c, 0, 55, 100
2, 14112, Note_off_c, 0, 71, 64
2, 14112, Note_off_c, 0, 62, 64
2, 14112, Note_off_c, 0, 50, 64
2, 14112, Note_off_c, 0, 55, 64
2, 14112, Note_off_c, 0, 48, 64
2, 14112, Note_on_c, 0, 36, 100
2, 14112, Note_off_c, 0, 77, 64
2, 14112, Note_off_c, 0, 47, 64
2, 14112, Note_on_c, 0, 60, 100
2, 14112, Note_on_c, 0, 59, 100
2, 14112, Note_off_c, 0, 45, 64
2, 14112, Note_on_c, 0, 33, 100
2, 14112, Note_on_c, 0, 47, 100
2, 14368, Note_off_c, 0, 74, 64
2, 14368, Note_on_c, 0, 35, 100
2, 14368, Note_off_c, 0, 47, 64
2, 14368, Note_on_c, 0, 77, 100
2, 14368, Note_on_c, 0, 74, 100
2, 14368, Note_off_c, 0, 71, 64
2, 14368, Note_off_c, 0, 59, 64
2, 14368, Note_on_c, 0, 55, 100
2, 14368, Note_on_c, 0, 43, 100
2, 14368, Note_off_c, 0, 43, 64
2, 14368, Note_on_c, 0, 71, 100
2, 14368, Note_off_c, 0, 55, 64
2, 14368, Note_on_c, 0, 43, 100
2, 14368, Note_on_c, 0, 55, 100
2, 14624, Note_off_c, 0, 43, 64
2, 14624, Note_off_c, 0, 71, 64
2, 14624, Note_off_c, 0, 55, 64
2, 14624, Note_on_c, 0, 43, 100
2, 14624, Note_off_c, 0, 74, 64
2, 14624, Note_off_c, 0, 79, 64
2, 14624, Note_off_c, 0, 43, 64
2, 14880, Note_off_c, 0, 81, 64
2, 14880, Note_on_c, 0, 81, 100
2, 14944, Note_off_c, 0, 72, 64
2, 15136, Note_off_c, 0, 74, 64
2, 15136, Note_on_c, 0, 43, 100
2, 15136, Note_on_c, 0, 67, 100
2, 15136, Note_on_c, 0, 47, 100
2, 15136, Note_off_c, 0, 35, 64
2, 15136, Note_on_c, 0, 74, 100
2, 15136, Note_on_c, 0, 39, 100
2, 15392, Note_off_c, 0, 74, 64
2, 15392, Note_off_c, 0, 67, 64
2, 15392, Note_on_c, 0, 79, 100
2, 15392, Note_off_c, 0, 51, 64
2, 15392, Note_off_c, 0, 39, 64
2, 15392, Note_off_c, 0, 75, 64
2, 15392, Note_off_c, 0, 69, 64
2, 15392, Note_off_c, 0, 48, 64
2, 15392, Note_off_c, 0, 36, 64
2, 15392, Note_on_c, 0, 48, 100
2, 15456, Note_on_c, 0, 75, 100
2, 15456, Note_off_c, 0, 72, 64
2, 15456, Note_on_c, 0, 72, 100
2, 15584, Note_off_c, 0, 72, 64
2, 15584, Note_off_c, 0, 81, 64
2, 15584, Note_on_c, 0, 36, 100
2, 15584, Note_off_c, 0, 75, 64
2, 15584, Note_off_c, 0, 48, 64
2, 15584, Note_off_c, 0, 79, 64
2, 15584, Note_off_c, 0, 70, 64
2, 15584, Note_on_c, 0, 66, 100
2, 15584, Note_on_c, 0, 51, 100
2, 15584, Note_on_c, 0, 39, 100
2, 15584, Note_on_c, 0, 70, 100
2, 15840, Note_on_c, 0, 76, 100
2, 15840, Note_on_c, 0, 79, 100
2, 15840, Note_off_c, 0, 79, 64
2, 15840, Note_off_c, 0, 66, 64
2, 15840, Note_on_c, 0, 79, 100
2, 15904, Note_off_c, 0, 70, 64
2, 16032, Note_off_c, 0, 76, 64
2, 16032, Note_on_c, 0, 66, 100
2, 16032, Note_on_c, 0, 52, 100
2, 16032, Note_on_c, 0, 70, 100
2, 16096, Note_off_c, 0, 79, 64
2, 16096, Note_on_c, 0, 74, 100
2, 16096, Note_off_c, 0, 78, 64
2, 16096, Note_on_c, 0, 81, 100
2, 16096, Note_off_c, 0, 69, 64
2, 16096, Note_on_c, 0, 76, 100
2, 16096, Note_off_c, 0, 66, 64
2, 16096, Note_on_c, 0, 69, 100
2, 16096, Note_on_c, 0, 50, 100
2, 16096, Note_off_c, 0, 38, 64
2, 16352, Note_off_c, 0, 50, 64
2, 16352, Note_off_c, 0, 43, 64
2, 16352, Note_off_c, 0, 46, 64
2, 16352, Note_on_c, 0, 46, 100
2, 16352, Note_on_c, 0, 34, 100
2, 16352, Note_off_c, 0, 86, 64
2, 16352, Note_off_c, 0, 81, 64
2, 16416, Note_on_c, 0, 66, 100
2, 16416, Note_off_c, 0, 46, 64
2, 16416, Note_off_c, 0, 34, 64
2, 16608, Note_on_c, 0, 82, 100
2, 16608, Note_on_c, 0, 81, 100
2, 16608, Note_on_c, 0, 79, 100
2, 16608, Note_off_c, 0, 76, 64
2, 16608, Note_off_c, 0, 69, 64
2, 16672, Note_on_c, 0, 76, 100
2, 16672, Note_off_c, 0, 82, 64
2, 16672, Note_off_c, 0, 81, 64
2, 16736, Note_on_c, 0, 81, 100
2, 16800, Note_off_c, 0, 79, 64
2, 16800, Note_off_c, 0, 70, 64
2, 16864, Note_on_c, 0, 73, 100
2, 16864, Note_on_c, 0, 69, 100
2, 16864, Note_on_c, 0, 45, 100
2, 16864, Note_off_c, 0, 42, 64
2, 16864, Note_on_c, 0, 78, 100
2, 16928, Note_off_c, 0, 76, 64
2, 16992, Note_on_c, 0, 76, 100
2, 17056, Note_on_c, 0, 42, 100
2, 17120, Note_off_c, 0, 73, 64
2, 17120, Note_off_c, 0, 78, 64
2, 17120, Note_off_c, 0, 74, 64
2, 17120, Note_on_c, 0, 74, 100
2, 17120, Note_off_c, 0, 69, 64
2, 17120, Note_off_c, 0, 74, 64
2, 17184, Note_on_c, 0, 78, 100
2, 17184, Note_off_c, 0, 76, 64
2, 17184, Note_on_c, 0, 69, 100
2, 17184, Note_on_c, 0, 67, 100
2, 17184, Note_on_c, 0, 76, 100
2, 17248, Note_off_c, 0, 67, 64
2, 17248, Note_off_c, 0, 74, 64
2, 17248, Note_on_c, 0, 74, 100
2, 17248, Note_off_c, 0, 76, 64
2, 17312, Note_off_c, 0, 69, 64
2, 17312, Note_on_c, 0, 69, 100
2, 17376, Note_off_c, 0, 69, 64
2, 17376, Note_on_c, 0, 73, 100
2, 17376, Note_off_c, 0, 76, 64
2, 17376, Note_on_c, 0, 76, 100
2, 17376, Note_on_c, 0, 69, 100
2, 17440, Note_on_c, 0, 70, 100
2, 17440, Note_off_c, 0, 76, 64
2, 17440, Note_on_c, 0, 76, 100
2, 17504, Note_on_c, 0, 72, 100
2, 17504, Note_off_c, 0, 73, 64
2, 17568, Note_off_c, 0, 72, 64
2, 17568, Note_off_c, 0, 76, 64
2, 17632, Note_off_c, 0, 69, 64
2, 17632, Note_on_c, 0, 73, 100
2, 17632, Note_off_c, 0, 78, 64
2, 17696, Note_on_c, 0, 78, 100
2, 17696, Note_off_c, 0, 74, 64
2, 17696, Note_on_c, 0, 74, 100
2, 17760, Note_on_c, 0, 72, 100
2, 17760, Note_on_c, 0, 75, 100
2, 17824, Note_off_c, 0, 74, 64
2, 17824, Note_off_c, 0, 75, 64
2, 17888, Note_on_c, 0, 74, 100
2, 17888, Note_on_c, 0, 69, 100
2, 17888, Note_off_c, 0, 75, 64
2, 17888, Note_on_c, 0, 75, 100
2, 17888, Note_on_c, 0, 46, 100
2, 17888, Note_on_c, 0, 34, 100
2, 17952, Note_off_c, 0, 75, 64
2, 17952, Note_on_c, 0, 75, 100
2, 18016, Note_on_c, 0, 76, 100
2, 18080, Note_off_c, 0, 77, 64
2, 18080, Note_off_c, 0, 78, 64
2, 18144, Note_off_c, 0, 76, 64
2, 18144, Note_off_c, 0, 78, 64
2, 18144, Note_on_c, 0, 78, 100
2, 18208, Note_off_c, 0, 76, 64
2, 18208, Note_on_c, 0, 76, 100
2, 18208, Note_off_c, 0, 75, 64
2, 18272, Note_off_c, 0, 78, 64
2, 18336, Note_off_c, 0, 79, 64
2, 18336, Note_on_c, 0, 79, 100
2, 18336, Note_on_c, 0, 75, 100
2, 18400, Note_off_c, 0, 79, 64
2, 18400, Note_on_c, 0, 79, 100
2, 18400, Note_off_c, 0, 76, 64
2, 18464, Note_on_c, 0, 76, 100
2, 18464, Note_off_c, 0, 79, 64
2, 18720, Note_off_c, 0, 66, 64
2, 18720, Note_on_c, 0, 66, 100
2, 18848, Note_off_c, 0, 46, 64
2, 18848, Note_off_c, 0, 66, 64
2, 18848, Note_on_c, 0, 46, 100
2, 18848, Note_off_c, 0, 46, 64
2, 18912, Note_off_c, 0, 34, 64
2, 18976, Note_off_c, 0, 47, 64
2, 18976, Note_on_c, 0, 47, 100
2, 18976, Note_on_c, 0, 35, 100
2, 19104, Note_off_c, 0, 47, 64
2, 19104, Note_on_c, 0, 38, 100
2, 19104, Note_off_c, 0, 35, 64
2, 19232, Note_off_c, 0, 67, 64
2, 19232, Note_on_c, 0, 67, 100
2, 19360, Note_off_c, 0, 76, 64
2, 19360, Note_on_c, 0, 76, 100
2, 19360, Note_on_c, 0, 71, 100
2, 19488, Note_off_c, 0, 71, 64
2, 19488, Note_off_c, 0, 76, 64
2, 19488, Note_off_c, 0, 67, 64
2, 19488, Note_on_c, 0, 67, 100
2, 19616, Note_on_c, 0, 76, 100
2, 19616, Note_off_c, 0, 66, 64
2, 19616, Note_on_c, 0, 66, 100
2, 19616, Note_off_c, 0, 67, 64
2, 19744, Note_off_c, 0, 66, 64
2, 19744, Note_off_c, 0, 64, 64
2, 19744, Note_off_c, 0, 76, 64
2, 19744, Note_on_c, 0, 67, 100
2, 19808, Note_off_c, 0, 67, 64
2, 19872, Note_off_c, 0, 64, 64
2, 19872, Note_on_c, 0, 64, 100
2, 19872, Note_off_c, 0, 67, 64
2, 19872, Note_on_c, 0, 76, 100
2, 19872, Note_off_c, 0, 76, 64
2, 19872, Note_on_c, 0, 67, 100
2, 19872, Note_on_c, 0, 76, 100
2, 19936, Note_off_c, 0, 64, 64
2, 19936, Note_off_c, 0, 76, 64
2, 20000, Note_off_c, 0, 67, 64
2, 20000, Note_on_c, 0, 64, 100
2, 20000, Note_off_c, 0, 69, 64
2, 20000, Note_off_c, 0, 60, 64
2, 20000, Note_on_c, 0, 76, 100
2, 20064, Note_off_c, 0, 69, 64
2, 20064, Note_on_c, 0, 69, 100
2, 20128, Note_off_c, 0, 69, 64
2, 20128, Note_off_c, 0, 67, 64
2, 20128, Note_on_c, 0, 67, 100
2, 20128, Note_on_c, 0, 66, 100
2, 20192, Note_on_c, 0, 60, 100
2, 20256, Note_off_c, 0, 64, 64
2, 20256, Note_off_c, 0, 67, 64
2, 20256, Note_on_c, 0, 67, 100
2, 20256, Note_on_c, 0, 59, 100
2, 20256, Note_off_c, 0, 38, 64
2, 20384, Note_off_c, 0, 76, 64
2, 20384, Note_off_c, 0, 67, 64
2, 20384, Note_off_c, 0, 66, 64
2, 20448, Note_on_c, 0, 67, 100
2, 20512, Note_on_c, 0, 66, 100
2, 20512, Note_on_c, 0, 64, 100
2, 20512, Note_off_c, 0, 81, 64
2, 20512, Note_off_c, 0, 59, 64
2, 20512, Note_off_c, 0, 60, 64
2, 20640, Note_on_c, 0, 60, 100
2, 20640, Note_on_c, 0, 59, 100
2, 20640, Note_off_c, 0, 67, 64
2, 20704, Note_on_c, 0, 81, 100
2, 20768, Note_on_c, 0, 67, 100
2, 20768, Note_off_c, 0, 72, 64
2, 20896, Note_off_c, 0, 72, 64
2, 20896, Note_on_c, 0, 72, 100
2, 20960, Note_off_c, 0, 72, 64
2, 21024, Note_off_c, 0, 60, 64
2, 21024, Note_off_c, 0, 63, 64
2, 21024, Note_on_c, 0, 63, 100
2, 21024, Note_on_c, 0, 79, 100
2, 21088, Note_off_c, 0, 81, 64
2, 21152, Note_on_c, 0, 81, 100
2, 21216, Note_on_c, 0, 72, 100
2, 21216, Note_off_c, 0, 81, 64
2, 21280, Note_off_c, 0, 79, 64
2, 21280, Note_on_c, 0, 81, 100
2, 21408, Note_off_c, 0, 72, 64
2, 21408, Note_off_c, 0, 81, 64
2, 21472, Note_on_c, 0, 72, 100
2, 21536, Note_on_c, 0, 81, 100
2, 21536, Note_off_c, 0, 72, 64
2, 21600, Note_off_c, 0, 63, 64
2, 21600, Note_off_c, 0, 81, 64
2, 21600, Note_on_c, 0, 72, 100
2, 21664, Note_on_c, 0, 81, 100
2, 21664, Note_off_c, 0, 72, 64
2, 21728, Note_on_c, 0, 71, 100
2, 21792, Note_off_c, 0, 81, 64
2, 21792, Note_off_c, 0, 71, 64
2, 21792, Note_on_c, 0, 72, 100
2, 21792, Note_on_c, 0, 81, 100
2, 21792, Note_on_c, 0, 38, 100
2, 21920, Note_off_c, 0, 81, 64
2, 21920, Note_off_c, 0, 72, 64
2, 22048, Note_on_c, 0, 71, 100
2, 22048, Note_on_c, 0, 81, 100
2, 22048, Note_on_c, 0, 72, 100
2, 22176, Note_off_c, 0, 81, 64
2, 22176, Note_off_c, 0, 72, 64
2, 22240, Note_off_c, 0, 71, 64
2, 22304, Note_on_c, 0, 72, 100
2, 22304, Note_off_c, 0, 38, 64
2, 22304, Note_off_c, 0, 74, 64
2, 22304, Note_on_c, 0, 69, 100
2, 22432, Note_off_c, 0, 69, 64
2, 22560, Note_on_c, 0, 50, 100
2, 22560, Note_on_c, 0, 69, 100
2, 22560, Note_off_c, 0, 66, 64
2, 22688, Note_on_c, 0, 66, 100
2, 22688, Note_off_c, 0, 72, 64
2, 22752, Note_off_c, 0, 69, 64
2, 22816, Note_off_c, 0, 66, 64
2, 22816, Note_on_c, 0, 72, 100
2, 22816, Note_off_c, 0, 50, 64
2, 22816, Note_on_c, 0, 38, 100
2, 22944, Note_off_c, 0, 72, 64
2, 22944, Note_on_c, 0, 69, 100
2, 23008, Note_off_c, 0, 69, 64
2, 23072, Note_on_c, 0, 66, 100
2, 23072, Note_off_c, 0, 71, 64
2, 23072, Note_on_c, 0, 71, 100
2, 23072, Note_on_c, 0, 55, 100
2, 23072, Note_on_c, 0, 72, 100
2, 23200, Note_off_c, 0, 72, 64
2, 23200, Note_off_c, 0, 71, 64
2, 23200, Note_off_c, 0, 55, 64
2, 23264, Note_on_c, 0, 71, 100
2, 23328, Note_on_c, 0, 55, 100
2, 23328, Note_on_c, 0, 72, 100
2, 23328, Note_off_c, 0, 71, 64
2, 23328, Note_off_c, 0, 38, 64
2, 23392, Note_on_c, 0, 71, 100
2, 23392, Note_off_c, 0, 72, 64
2, 23456, Note_off_c, 0, 72, 64
2, 23456, Note_on_c, 0, 72, 100
2, 23520, Note_off_c, 0, 75, 64
2, 23520, Note_off_c, 0, 72, 64
2, 23584, Note_on_c, 0, 72, 100
2, 23584, Note_on_c, 0, 50, 100
2, 23584, Note_off_c, 0, 55, 64
2, 23584, Note_on_c, 0, 43, 100
2, 23712, Note_off_c, 0, 72, 64
2, 23712, Note_on_c, 0, 75, 100
2, 23840, Note_off_c, 0, 75, 64
2, 23840, Note_off_c, 0, 71, 64
2, 23840, Note_on_c, 0, 54, 100
2, 23968, Note_on_c, 0, 71, 100
2, 23968, Note_on_c, 0, 69, 100
2, 24096, Note_off_c, 0, 69, 64
2, 24096, Note_off_c, 0, 71, 64
2, 24096, Note_on_c, 0, 62, 100
2, 24096, Note_off_c, 0, 55, 64
2, 24096, Note_on_c, 0, 55, 100
2, 24224, Note_on_c, 0, 71, 100
2, 24224, Note_off_c, 0, 67, 64
2, 24352, Note_on_c, 0, 67, 100
2, 24352, Note_off_c, 0, 75, 64
2, 24352, Note_on_c, 0, 75, 100
2, 24352, Note_off_c, 0, 43, 64
2, 24480, Note_off_c, 0, 75, 64
2, 24480, Note_off_c, 0, 62, 64
2, 24480, Note_off_c, 0, 54, 64
2, 24608, Note_off_c, 0, 71, 64
2, 24608, Note_on_c, 0, 75, 100
2, 24608, Note_off_c, 0, 55, 64
2, 24608, Note_off_c, 0, 53, 64
2, 24608, Note_off_c, 0, 50, 64
2, 24608, Note_on_c, 0, 50, 100
2, 24736, Note_off_c, 0, 71, 64
2, 24736, Note_on_c, 0, 71, 100
2, 24864, Note_off_c, 0, 71, 64
2, 24864, Note_on_c, 0, 77, 100
2, 24864, Note_on_c, 0, 71, 100
2, 24992, Note_off_c, 0, 77, 64
2, 24992, Note_off_c, 0, 75, 64
2, 25120, Note_on_c, 0, 75, 100
2, 25120, Note_off_c, 0, 77, 64
2, 25120, Note_off_c, 0, 71, 64
2, 25120, Note_on_c, 0, 77, 100
2, 25120, Note_off_c, 0, 62, 64
2, 25120, Note_on_c, 0, 62, 100
2, 25248, Note_on_c, 0, 74, 100
2, 25248, Note_off_c, 0, 75, 64
2, 25376, Note_off_c, 0, 74, 64
2, 25376, Note_on_c, 0, 75, 100
2, 25376, Note_off_c, 0, 62, 64
2, 25376, Note_on_c, 0, 60, 100
2, 25376, Note_off_c, 0, 55, 64
2, 25376, Note_on_c, 0, 55, 100
2, 25504, Note_off_c, 0, 77, 64
2, 25504, Note_on_c, 0, 79, 100
2, 25632, Note_off_c, 0, 79, 64
2, 25632, Note_off_c, 0, 75, 64
2, 25760, Note_on_c, 0, 75, 100
2, 25760, Note_off_c, 0, 74, 64
2, 25760, Note_on_c, 0, 74, 100
2, 25888, Note_off_c, 0, 74, 64
2, 25888, Note_off_c, 0, 72, 64
2, 25888, Note_off_c, 0, 60, 64
2, 25888, Note_on_c, 0, 63, 100
2, 25888, Note_on_c, 0, 72, 100
2, 26016, Note_off_c, 0, 72, 64
2, 26144, Note_off_c, 0, 63, 64
2, 26144, Note_on_c, 0, 79, 100
2, 26144, Note_off_c, 0, 67, 64
2, 26144, Note_off_c, 0, 70, 64
2, 26144, Note_on_c, 0, 72, 100
2, 26144, Note_on_c, 0, 70, 100
2, 26144, Note_on_c, 0, 62, 100
2, 26272, Note_on_c, 0, 67, 100
2, 26272, Note_on_c, 0, 69, 100
2, 26400, Note_off_c, 0, 67, 64
2, 26400, Note_off_c, 0, 70, 64
2, 26400, Note_off_c, 0, 62, 64
2, 26400, Note_on_c, 0, 70, 100
2, 26400, Note_off_c, 0, 69, 64
2, 26400, Note_off_c, 0, 55, 64
2, 26656, Note_off_c, 0, 75, 64
2, 26656, Note_on_c, 0, 74, 100
2, 26656, Note_on_c, 0, 75, 100
2, 26912, Note_on_c, 0, 69, 100
2, 26912, Note_on_c, 0, 63, 100
2, 26912, Note_on_c, 0, 60, 100
2, 26912, Note_off_c, 0, 50, 64
2, 26912, Note_off_c, 0, 51, 64
2, 27168, Note_off_c, 0, 69, 64
2, 27168, Note_off_c, 0, 74, 64
2, 27168, Note_off_c, 0, 63, 64
2, 27168, Note_off_c, 0, 65, 64
2, 27168, Note_off_c, 0, 60, 64
2, 27168, Note_on_c, 0, 58, 100
2, 27168, Note_on_c, 0, 51, 100
2, 27168, Note_on_c, 0, 53, 100
2, 27424, Note_on_c, 0, 74, 100
2, 27424, Note_on_c, 0, 77, 100
2, 27424, Note_off_c, 0, 58, 64
2, 27424, Note_on_c, 0, 60, 100
2, 27424, Note_on_c, 0, 50, 100
2, 27424, Note_off_c, 0, 51, 64
2, 27488, Note_off_c, 0, 74, 64
2, 27488, Note_on_c, 0, 76, 100
2, 27680, Note_off_c, 0, 70, 64
2, 27680, Note_off_c, 0, 69, 64
2, 27680, Note_on_c, 0, 69, 100
2, 27680, Note_off_c, 0, 60, 64
2, 27680, Note_on_c, 0, 58, 100
2, 27680, Note_off_c, 0, 65, 64
2, 27680, Note_on_c, 0, 65, 100
2, 27936, Note_off_c, 0, 65, 64
2, 27936, Note_off_c, 0, 70, 64
2, 27936, Note_on_c, 0, 70, 100
2, 27936, Note_on_c, 0, 67, 100
2, 27936, Note_on_c, 0, 65, 100
2, 27936, Note_off_c, 0, 50, 64
2, 27936, Note_on_c, 0, 51, 100
2, 28192, Note_off_c, 0, 70, 64
2, 28192, Note_on_c, 0, 70, 100
2, 28192, Note_off_c, 0, 69, 64
2, 28192, Note_off_c, 0, 58, 64
2, 28192, Note_off_c, 0, 67, 64
2, 28192, Note_off_c, 0, 65, 64
2, 28320, Note_on_c, 0, 69, 100
2, 28320, Note_on_c, 0, 67, 100
2, 28448, Note_off_c, 0, 69, 64
2, 28448, Note_on_c, 0, 69, 100
2, 28448, Note_off_c, 0, 67, 64
2, 28448, Note_off_c, 0, 65, 64
2, 28448, Note_on_c, 0, 65, 100
2, 28448, Note_on_c, 0, 60, 100
2, 28704, Note_off_c, 0, 76, 64
2, 28704, Note_on_c, 0, 74, 100
2, 28704, Note_off_c, 0, 69, 64
2, 28704, Note_off_c, 0, 70, 64
2, 28704, Note_on_c, 0, 69, 100
2, 28704, Note_on_c, 0, 67, 100
2, 28704, Note_off_c, 0, 60, 64
2, 28704, Note_on_c, 0, 58, 100
2, 28704, Note_off_c, 0, 51, 64
2, 28704, Note_on_c, 0, 50, 100
2, 28832, Note_off_c, 0, 74, 64
2, 28832, Note_off_c, 0, 75, 64
2, 28960, Note_on_c, 0, 60, 100
2, 28960, Note_off_c, 0, 58, 64
2, 29088, Note_on_c, 0, 75, 100
2, 29088, Note_off_c, 0, 74, 64
2, 29088, Note_on_c, 0, 74, 100
2, 29088, Note_off_c, 0, 72, 64
2, 29216, Note_off_c, 0, 70, 64
2, 29216, Note_on_c, 0, 72, 100
2, 29216, Note_off_c, 0, 75, 64
2, 29216, Note_off_c, 0, 72, 64
2, 29216, Note_off_c, 0, 69, 64
2, 29216, Note_on_c, 0, 72, 100
2, 29216, Note_off_c, 0, 67, 64
2, 29216, Note_on_c, 0, 70, 100
2, 29216, Note_on_c, 0, 58, 100
2, 29216, Note_off_c, 0, 57, 64
2, 29216, Note_on_c, 0, 51, 100
2, 29216, Note_off_c, 0, 50, 64
2, 29344, Note_off_c, 0, 51, 64
2, 29344, Note_on_c, 0, 55, 100
2, 29472, Note_off_c, 0, 70, 64
2, 29472, Note_on_c, 0, 69, 100
2, 29472, Note_on_c, 0, 51, 100
2, 29472, Note_off_c, 0, 53, 64
2, 29472, Note_on_c, 0, 53, 100
2, 29728, Note_on_c, 0, 70, 100
2, 29728, Note_off_c, 0, 72, 64
2, 29728, Note_off_c, 0, 55, 64
2, 29728, Note_off_c, 0, 69, 64
2, 29728, Note_on_c, 0, 57, 100
2, 29984, Note_on_c, 0, 69, 100
2, 29984, Note_off_c, 0, 74, 64
2, 29984, Note_on_c, 0, 72, 100
2, 29984, Note_off_c, 0, 65, 64
2, 29984, Note_off_c, 0, 53, 64
2, 29984, Note_on_c, 0, 46, 100
2, 30240, Note_off_c, 0, 69, 64
2, 30240, Note_on_c, 0, 65, 100
2, 30240, Note_on_c, 0, 75, 100
2, 30240, Note_off_c, 0, 72, 64
2, 30496, Note_off_c, 0, 70, 64
2, 30496, Note_off_c, 0, 65, 64
2, 30496, Note_on_c, 0, 65, 100
2, 30496, Note_off_c, 0, 62, 64
2, 30496, Note_on_c, 0, 62, 100
2, 30496, Note_on_c, 0, 72, 100
2, 30496, Note_on_c, 0, 53, 100
2, 30496, Note_off_c, 0, 46, 64
2, 30496, Note_on_c, 0, 46, 100
2, 30752, Note_off_c, 0, 46, 64
2, 30752, Note_off_c, 0, 53, 64
2, 30880, Note_on_c, 0, 53, 100
2, 30880, Note_off_c, 0, 51, 64
2, 31008, Note_off_c, 0, 72, 64
2, 31008, Note_on_c, 0, 74, 100
2, 31008, Note_off_c, 0, 65, 64
2, 31008, Note_on_c, 0, 70, 100
2, 31008, Note_off_c, 0, 53, 64
2, 31008, Note_off_c, 0, 55, 64
2, 31008, Note_on_c, 0, 48, 100
2, 31008, Note_on_c, 0, 43, 100
2, 31008, Note_on_c, 0, 55, 100
2, 31136, Note_off_c, 0, 48, 64
2, 31136, Note_on_c, 0, 50, 100
2, 31136, Note_on_c, 0, 51, 100
2, 31264, Note_off_c, 0, 70, 64
2, 31264, Note_on_c, 0, 67, 100
2, 31264, Note_off_c, 0, 50, 64
2, 31264, Note_off_c, 0, 48, 64
2, 31264, Note_on_c, 0, 48, 100
2, 31392, Note_off_c, 0, 48, 64
2, 31392, Note_on_c, 0, 50, 100
2, 31392, Note_on_c, 0, 48, 100
2, 31520, Note_off_c, 0, 74, 64
2, 31520, Note_off_c, 0, 77, 64
2, 31520, Note_off_c, 0, 67, 64
2, 31520, Note_on_c, 0, 46, 100
2, 31520, Note_off_c, 0, 50, 64
2, 31520, Note_off_c, 0, 48, 64
2, 31648, Note_off_c, 0, 46, 64
2, 31776, Note_on_c, 0, 77, 100
2, 31776, Note_on_c, 0, 74, 100
2, 31776, Note_on_c, 0, 70, 100
2, 31776, Note_on_c, 0, 63, 100
2, 31776, Note_on_c, 0, 50, 100
2, 31904, Note_off_c, 0, 50, 64
2, 32032, Note_off_c, 0, 63, 64
2, 32032, Note_off_c, 0, 62, 64
2, 32032, Note_on_c, 0, 50, 100
2, 32032, Note_on_c, 0, 48, 100
2, 32160, Note_off_c, 0, 60, 64
2, 32160, Note_off_c, 0, 57, 64
2, 32288, Note_on_c, 0, 57, 100
2, 32288, Note_off_c, 0, 55, 64
2, 32288, Note_off_c, 0, 51, 64
2, 32288, Note_on_c, 0, 53, 100
2, 32288, Note_off_c, 0, 48, 64
2, 32416, Note_on_c, 0, 62, 100
2, 32416, Note_on_c, 0, 60, 100
2, 32416, Note_on_c, 0, 55, 100
2, 32416, Note_on_c, 0, 56, 100
2, 32544, Note_off_c, 0, 70, 64
2, 32544, Note_off_c, 0, 60, 64
2, 32544, Note_off_c, 0, 58, 64
2, 32544, Note_off_c, 0, 56, 64
2, 32544, Note_on_c, 0, 51, 100
2, 32544, Note_on_c, 0, 48, 100
2, 32544, Note_off_c, 0, 36, 64
2, 32672, Note_on_c, 0, 60, 100
2, 32672, Note_off_c, 0, 62, 64
2, 32800, Note_on_c, 0, 62, 100
2, 32800, Note_on_c, 0, 58, 100
2, 32800, Note_off_c, 0, 55, 64
2, 32800, Note_off_c, 0, 48, 64
2, 32800, Note_on_c, 0, 46, 100
2, 32800, Note_off_c, 0, 51, 64
2, 32800, Note_off_c, 0, 39, 64
2, 32928, Note_on_c, 0, 70, 100
2, 32928, Note_on_c, 0, 65, 100
2, 32928, Note_off_c, 0, 58, 64
2, 32928, Note_on_c, 0, 56, 100
2, 32928, Note_on_c, 0, 55, 100
2, 33056, Note_off_c, 0, 65, 64
2, 33056, Note_on_c, 0, 67, 100
2, 33056, Note_on_c, 0, 58, 100
2, 33056, Note_on_c, 0, 48, 100
2, 33056, Note_off_c, 0, 56, 64
2, 33056, Note_off_c, 0, 55, 64
2, 33056, Note_on_c, 0, 44, 100
2, 33056, Note_off_c, 0, 43, 64
2, 33056, Note_off_c, 0, 46, 64
2, 33184, Note_off_c, 0, 58, 64
2, 33184, Note_on_c, 0, 58, 100
2, 33312, Note_off_c, 0, 58, 64
2, 33312, Note_on_c, 0, 63, 100
2, 33312, Note_on_c, 0, 56, 100
2, 33312, Note_on_c, 0, 55, 100
2, 33312, Note_on_c, 0, 46, 100
2, 33312, Note_on_c, 0, 51, 100
2, 33312, Note_on_c, 0, 39, 100
2, 33440, Note_off_c, 0, 56, 64
2, 33440, Note_off_c, 0, 55, 64
2, 33568, Note_off_c, 0, 51, 64
2, 33568, Note_off_c, 0, 39, 64
2, 33696, Note_on_c, 0, 55, 100
2, 33696, Note_on_c, 0, 58, 100
2, 33824, Note_off_c, 0, 63, 64
2, 33824, Note_on_c, 0, 63, 100
2, 33824, Note_off_c, 0, 58, 64
2, 33824, Note_on_c, 0, 56, 100
2, 33824, Note_off_c, 0, 55, 64
2, 33952, Note_off_c, 0, 56, 64
2, 33952, Note_on_c, 0, 55, 100
2, 34080, Note_off_c, 0, 55, 64
2, 34080, Note_off_c, 0, 57, 64
2, 34080, Note_on_c, 0, 39, 100
2, 34080, Note_on_c, 0, 57, 100
2, 34080, Note_off_c, 0, 57, 64
2, 34080, Note_off_c, 0, 62, 64
2, 34208, Note_on_c, 0, 57, 100
2, 34336, Note_off_c, 0, 60, 64
2, 34336, Note_off_c, 0, 57, 64
2, 34336, Note_on_c, 0, 58, 100
2, 34336, Note_off_c, 0, 51, 64
2, 34336, Note_on_c, 0, 51, 100
2, 34464, Note_off_c, 0, 63, 64
2, 34464, Note_on_c, 0, 62, 100
2, 34592, Note_off_c, 0, 62, 64
2, 34592, Note_off_c, 0, 67, 64
2, 34592, Note_on_c, 0, 57, 100
2, 34592, Note_off_c, 0, 58, 64
2, 34592, Note_off_c, 0, 51, 64
2, 34592, Note_off_c, 0, 50, 64
2, 34720, Note_on_c, 0, 67, 100
2, 34720, Note_on_c, 0, 65, 100
2, 34848, Note_off_c, 0, 65, 64
2, 34848, Note_on_c, 0, 63, 100
2, 34848, Note_on_c, 0, 58, 100
2, 34848, Note_off_c, 0, 57, 64
2, 34848, Note_on_c, 0, 50, 100
2, 34848, Note_on_c, 0, 51, 100
2, 34976, Note_off_c, 0, 65, 64
2, 34976, Note_on_c, 0, 65, 100
2, 35104, Note_off_c, 0, 65, 64
2, 35104, Note_off_c, 0, 63, 64
2, 35104, Note_off_c, 0, 50, 64
2, 35104, Note_off_c, 0, 48, 64
2, 35104, Note_on_c, 0, 57, 100
2, 35104, Note_on_c, 0, 50, 100
2, 35232, Note_on_c, 0, 63, 100
2, 35360, Note_off_c, 0, 70, 64
2, 35360, Note_on_c, 0, 70, 100
2, 35360, Note_off_c, 0, 64, 64
2, 35360, Note_on_c, 0, 65, 100
2, 35360, Note_off_c, 0, 52, 64
2, 35360, Note_on_c, 0, 52, 100
2, 35360, Note_off_c, 0, 50, 64
2, 35360, Note_on_c, 0, 48, 100
2, 35488, Note_off_c, 0, 70, 64
2, 35488, Note_on_c, 0, 69, 100
2, 35616, Note_off_c, 0, 69, 64
2, 35616, Note_off_c, 0, 67, 64
2, 35616, Note_on_c, 0, 67, 100
2, 35616, Note_off_c, 0, 79, 64
2, 35616, Note_off_c, 0, 65, 64
2, 35616, Note_on_c, 0, 64, 100
2, 35616, Note_off_c, 0, 57, 64
2, 35616, Note_off_c, 0, 52, 64
2, 35616, Note_off_c, 0, 48, 64
2, 35744, Note_on_c, 0, 79, 100
2, 35744, Note_off_c, 0, 74, 64
2, 35872, Note_on_c, 0, 74, 100
2, 35872, Note_off_c, 0, 79, 64
2, 35872, Note_on_c, 0, 48, 100
2, 35872, Note_on_c, 0, 52, 100
2, 35872, Note_off_c, 0, 64, 64
2, 35872, Note_on_c, 0, 64, 100
2, 36128, Note_off_c, 0, 64, 64
2, 36128, Note_on_c, 0, 64, 100
2, 36128, Note_off_c, 0, 52, 64
2, 36128, Note_on_c, 0, 55, 100
2, 36256, Note_on_c, 0, 79, 100
2, 36256, Note_on_c, 0, 81, 100
2, 36256, Note_off_c, 0, 57, 64
2, 36256, Note_on_c, 0, 57, 100
2, 36384, Note_off_c, 0, 81, 64
2, 36384, Note_off_c, 0, 79, 64
2, 36384, Note_on_c, 0, 76, 100
2, 36512, Note_off_c, 0, 57, 64
2, 36512, Note_off_c, 0, 55, 64
2, 36640, Note_on_c, 0, 55, 100
2, 36640, Note_on_c, 0, 57, 100
2, 36768, Note_off_c, 0, 57, 64
2, 36768, Note_off_c, 0, 55, 64
2, 36896, Note_off_c, 0, 76, 64
2, 36896, Note_off_c, 0, 73, 64
2, 36896, Note_on_c, 0, 73, 100
2, 36896, Note_on_c, 0, 82, 100
2, 36896, Note_on_c, 0, 55, 100
2, 37152, Note_off_c, 0, 82, 64
2, 37152, Note_off_c, 0, 73, 64
2, 37152, Note_off_c, 0, 64, 64
2, 37152, Note_off_c, 0, 53, 64
2, 37152, Note_off_c, 0, 55, 64
2, 37152, Note_on_c, 0, 62, 100
2, 37280, Note_on_c, 0, 53, 100
2, 37280, Note_on_c, 0, 43, 100
2, 37408, Note_on_c, 0, 82, 100
2, 37408, Note_off_c, 0, 74, 64
2, 37408, Note_off_c, 0, 62, 64
2, 37408, Note_off_c, 0, 67, 64
2, 37408, Note_off_c, 0, 82, 64
2, 37408, Note_on_c, 0, 67, 100
2, 37408, Note_on_c, 0, 65, 100
2, 37408, Note_off_c, 0, 55, 64
2, 37408, Note_off_c, 0, 43, 64
2, 37408, Note_on_c, 0, 55, 100
2, 37408, Note_on_c, 0, 82, 100
2, 37408, Note_on_c, 0, 79, 100
2, 37408, Note_on_c, 0, 74, 100
2, 37664, Note_off_c, 0, 65, 64
2, 37664, Note_off_c, 0, 67, 64
2, 37664, Note_on_c, 0, 72, 100
2, 37664, Note_off_c, 0, 84, 64
2, 37664, Note_off_c, 0, 53, 64
2, 37664, Note_off_c, 0, 45, 64
2, 37664, Note_on_c, 0, 41, 100
2, 37664, Note_on_c, 0, 81, 100
2, 37664, Note_on_c, 0, 84, 100
2, 37664, Note_on_c, 0, 69, 100
2, 37664, Note_on_c, 0, 64, 100
2, 37664, Note_on_c, 0, 53, 100
2, 37664, Note_on_c, 0, 47, 100
2, 37920, Note_off_c, 0, 77, 64
2, 37920, Note_off_c, 0, 74, 64
2, 38048, Note_on_c, 0, 74, 100
2, 38048, Note_on_c, 0, 76, 100
2, 38176, Note_off_c, 0, 76, 64
2, 38176, Note_off_c, 0, 74, 64
2, 38176, Note_off_c, 0, 65, 64
2, 38176, Note_on_c, 0, 65, 100
2, 38176, Note_off_c, 0, 47, 64
2, 38176, Note_off_c, 0, 50, 64
2, 38176, Note_on_c, 0, 62, 100
2, 38176, Note_on_c, 0, 74, 100
2, 38176, Note_on_c, 0, 67, 100
2, 38176, Note_off_c, 0, 59, 64
2, 38176, Note_on_c, 0, 59, 100
2, 38176, Note_on_c, 0, 50, 100
2, 38176, Note_on_c, 0, 38, 100
2, 38176, Note_on_c, 0, 83, 100
2, 38240, Note_off_c, 0, 65, 64
2, 38240, Note_off_c, 0, 62, 64
2, 38240, Note_on_c, 0, 62, 100
2, 38304, Note_off_c, 0, 67, 64
2, 38304, Note_on_c, 0, 67, 100
2, 38368, Note_off_c, 0, 69, 64
2, 38368, Note_off_c, 0, 67, 64
2, 38368, Note_on_c, 0, 67, 100
2, 38432, Note_off_c, 0, 83, 64
2, 38432, Note_off_c, 0, 84, 64
2, 38496, Note_on_c, 0, 86, 100
2, 38496, Note_off_c, 0, 72, 64
2, 38496, Note_off_c, 0, 77, 64
2, 38496, Note_off_c, 0, 67, 64
2, 38496, Note_on_c, 0, 69, 100
2, 38496, Note_on_c, 0, 72, 100
2, 38496, Note_on_c, 0, 77, 100
2, 38496, Note_off_c, 0, 74, 64
2, 38560, Note_off_c, 0, 74, 64
2, 38560, Note_on_c, 0, 74, 100
2, 38624, Note_off_c, 0, 81, 64
2, 38624, Note_off_c, 0, 79, 64
2, 38688, Note_off_c, 0, 79, 64
2, 38688, Note_on_c, 0, 79, 100
2, 38688, Note_off_c, 0, 69, 64
2, 38688, Note_on_c, 0, 60, 100
2, 38752, Note_off_c, 0, 72, 64
2, 38752, Note_on_c, 0, 72, 100
2, 38752, Note_off_c, 0, 74, 64
2, 38752, Note_on_c, 0, 76, 100
2, 38816, Note_off_c, 0, 76, 64
2, 38816, Note_off_c, 0, 77, 64
2, 38880, Note_on_c, 0, 74, 100
2, 38880, Note_off_c, 0, 72, 64
2, 38880, Note_on_c, 0, 77, 100
2, 38880, Note_off_c, 0, 53, 64
2, 38880, Note_on_c, 0, 53, 100
2, 38880, Note_on_c, 0, 57, 100
2, 38880, Note_off_c, 0, 79, 64
2, 38944, Note_off_c, 0, 69, 64
2, 38944, Note_on_c, 0, 69, 100
2, 39008, Note_off_c, 0, 74, 64
2, 39072, Note_on_c, 0, 76, 100
2, 39136, Note_off_c, 0, 76, 64
2, 39200, Note_on_c, 0, 72, 100
2, 39200, Note_off_c, 0, 76, 64
2, 39200, Note_off_c, 0, 77, 64
2, 39200, Note_off_c, 0, 57, 64
2, 39200, Note_off_c, 0, 60, 64
2, 39200, Note_off_c, 0, 53, 64
2, 39200, Note_on_c, 0, 77, 100
2, 39200, Note_off_c, 0, 72, 64
2, 39200, Note_off_c, 0, 74, 64
2, 39200, Note_on_c, 0, 74, 100
2, 39200, Note_off_c, 0, 69, 64
2, 39200, Note_on_c, 0, 72, 100
2, 39200, Note_on_c, 0, 76, 100
2, 39264, Note_on_c, 0, 81, 100
2, 39264, Note_on_c, 0, 79, 100
2, 39328, Note_off_c, 0, 81, 64
2, 39328, Note_off_c, 0, 79, 64
2, 39392, Note_on_c, 0, 81, 100
2, 39392, Note_off_c, 0, 72, 64
2, 39456, Note_off_c, 0, 81, 64
2, 39456, Note_on_c, 0, 79, 100
2, 39456, Note_off_c, 0, 77, 64
2, 39520, Note_off_c, 0, 79, 64
2, 39520, Note_on_c, 0, 81, 100
2, 39520, Note_off_c, 0, 67, 64
2, 39520, Note_on_c, 0, 67, 100
2, 39520, Note_on_c, 0, 53, 100
2, 39520, Note_on_c, 0, 47, 100
2, 39520, Note_on_c, 0, 77, 100
2, 39584, Note_on_c, 0, 65, 100
2, 39584, Note_off_c, 0, 79, 64
2, 39584, Note_on_c, 0, 79, 100
2, 39648, Note_off_c, 0, 77, 64
2, 39648, Note_off_c, 0, 79, 64
2, 39648, Note_on_c, 0, 72, 100
2, 39712, Note_off_c, 0, 72, 64
2, 39712, Note_on_c, 0, 79, 100
2, 39712, Note_off_c, 0, 64, 64
2, 39712, Note_on_c, 0, 64, 100
2, 39712, Note_off_c, 0, 67, 64
2, 39712, Note_on_c, 0, 77, 100
2, 39712, Note_on_c, 0, 67, 100
2, 39712, Note_off_c, 0, 75, 64
2, 39712, Note_on_c, 0, 72, 100
2, 39712, Note_off_c, 0, 72, 64
2, 39776, Note_on_c, 0, 72, 100
2, 39776, Note_off_c, 0, 67, 64
2, 39776, Note_off_c, 0, 69, 64
2, 39776, Note_on_c, 0, 69, 100
2, 39840, Note_on_c, 0, 67, 100
2, 39840, Note_on_c, 0, 60, 100
2, 39840, Note_off_c, 0, 72, 64
2, 39840, Note_off_c, 0, 65, 64
2, 39840, Note_off_c, 0, 77, 64
2, 39968, Note_off_c, 0, 69, 64
2, 39968, Note_on_c, 0, 69, 100
2, 39968, Note_on_c, 0, 65, 100
2, 40032, Note_off_c, 0, 47, 64
2, 40096, Note_off_c, 0, 60, 64
2, 40096, Note_off_c, 0, 65, 64
2, 40096, Note_on_c, 0, 65, 100
2, 40352, Note_on_c, 0, 72, 100
2, 40352, Note_off_c, 0, 79, 64
2, 41376, Note_on_c, 0, 79, 100
2, 41376, Note_on_c, 0, 71, 100
2, 41440, Note_on_c, 0, 60, 100
2, 41440, Note_off_c, 0, 59, 64
2, 41568, Note_off_c, 0, 65, 64
2, 41568, Note_on_c, 0, 59, 100
2, 41568, Note_on_c, 0, 80, 100
2, 41568, Note_off_c, 0, 71, 64
2, 41824, Note_off_c, 0, 80, 64
2, 41824, Note_on_c, 0, 77, 100
2, 42016, Note_off_c, 0, 77, 64
2, 42016, Note_off_c, 0, 76, 64
2, 42080, Note_on_c, 0, 76, 100
2, 42080, Note_on_c, 0, 75, 100
2, 42144, Note_on_c, 0, 77, 100
2, 42144, Note_on_c, 0, 80, 100
2, 42592, Note_off_c, 0, 77, 64
2, 42656, Note_off_c, 0, 80, 64
2, 42656, Note_on_c, 0, 80, 100
2, 42784, Note_off_c, 0, 80, 64
2, 42784, Note_off_c, 0, 75, 64
2, 42784, Note_on_c, 0, 71, 100
2, 42784, Note_off_c, 0, 67, 64
2, 42784, Note_on_c, 0, 47, 100
2, 43104, Note_on_c, 0, 67, 100
2, 43104, Note_off_c, 0, 69, 64
2, 43104, Note_on_c, 0, 69, 100
2, 43424, Note_on_c, 0, 77, 100
2, 43424, Note_off_c, 0, 75, 64
2, 43424, Note_on_c, 0, 75, 100
2, 43424, Note_off_c, 0, 50, 64
2, 43424, Note_off_c, 0, 71, 64
2, 43424, Note_on_c, 0, 50, 100
2, 43616, Note_off_c, 0, 77, 64
2, 43616, Note_off_c, 0, 72, 64
2, 43744, Note_on_c, 0, 70, 100
2, 43744, Note_on_c, 0, 72, 100
2, 43872, Note_off_c, 0, 72, 64
2, 43872, Note_off_c, 0, 70, 64
2, 44000, Note_on_c, 0, 70, 100
2, 44000, Note_off_c, 0, 69, 64
2, 44064, Note_on_c, 0, 69, 100
2, 44064, Note_off_c, 0, 70, 64
2, 44192, Note_on_c, 0, 70, 100
2, 44192, Note_off_c, 0, 69, 64
2, 44384, Note_on_c, 0, 69, 100
2, 44384, Note_off_c, 0, 67, 64
2, 44640, Note_on_c, 0, 67, 100
2, 44640, Note_off_c, 0, 63, 64
2, 45024, Note_on_c, 0, 63, 100
2, 45024, Note_off_c, 0, 62, 64
2, 45088, Note_on_c, 0, 62, 100
2, 45088, Note_off_c, 0, 60, 64
2, 45216, Note_on_c, 0, 60, 100
2, 45216, Note_off_c, 0, 63, 64
2, 45344, Note_on_c, 0, 63, 100
2, 45344, Note_off_c, 0, 62, 64
2, 45472, Note_off_c, 0, 46, 64
2, 45472, Note_off_c, 0, 50, 64
2, 45536, Note_on_c, 0, 62, 100
2, 45536, Note_off_c, 0, 60, 64
2, 45600, Note_on_c, 0, 60, 100
2, 45600, Note_off_c, 0, 62, 64
2, 45600, Note_on_c, 0, 50, 100
2, 45600, Note_off_c, 0, 58, 64
2, 45600, Note_on_c, 0, 62, 100
2, 45600, Note_on_c, 0, 77, 100
2, 45920, Note_on_c, 0, 58, 100
2, 46048, Note_off_c, 0, 62, 64
2, 46048, Note_on_c, 0, 61, 100
2, 46176, Note_off_c, 0, 61, 64
2, 46176, Note_off_c, 0, 47, 64
2, 46304, Note_off_c, 0, 53, 64
2, 46304, Note_on_c, 0, 53, 100
2, 46304, Note_off_c, 0, 47, 64
2, 46304, Note_on_c, 0, 47, 100
2, 46560, Note_off_c, 0, 53, 64
2, 46560, Note_off_c, 0, 47, 64
2, 46688, Note_off_c, 0, 50, 64
2, 46688, Note_on_c, 0, 47, 100
2, 46816, Note_off_c, 0, 65, 64
2, 46816, Note_on_c, 0, 65, 100
2, 46944, Note_off_c, 0, 47, 64
2, 46944, Note_on_c, 0, 49, 100
2, 47072, Note_off_c, 0, 49, 64
2, 47072, Note_off_c, 0, 55, 64
2, 47072, Note_on_c, 0, 55, 100
2, 47328, Note_off_c, 0, 55, 64
2, 47328, Note_on_c, 0, 53, 100
2, 47456, Note_off_c, 0, 53, 64
2, 47456, Note_on_c, 0, 55, 100
2, 47584, Note_off_c, 0, 55, 64
2, 47584, Note_on_c, 0, 52, 100
2, 47712, Note_off_c, 0, 65, 64
2, 47712, Note_on_c, 0, 62, 100
2, 47840, Note_off_c, 0, 62, 64
2, 47840, Note_off_c, 0, 52, 64
2, 47840, Note_off_c, 0, 60, 64
2, 47840, Note_off_c, 0, 55, 64
2, 47840, Note_on_c, 0, 55, 100
2, 48096, Note_off_c, 0, 55, 64
2, 48096, Note_off_c, 0, 64, 64
2, 48096, Note_on_c, 0, 55, 100
2, 48224, Note_on_c, 0, 60, 100
2, 48224, Note_off_c, 0, 62, 64
2, 48224, Note_on_c, 0, 62, 100
2, 48224, Note_on_c, 0, 64, 100
2, 48224, Note_off_c, 0, 55, 64
2, 48352, Note_off_c, 0, 64, 64
2, 48352, Note_off_c, 0, 62, 64
2, 48352, Note_on_c, 0, 62, 100
2, 48352, Note_off_c, 0, 53, 64
2, 48352, Note_on_c, 0, 53, 100
2, 48608, Note_off_c, 0, 53, 64
2, 48608, Note_on_c, 0, 50, 100
2, 48736, Note_off_c, 0, 50, 64
2, 48736, Note_off_c, 0, 48, 64
2, 48864, Note_on_c, 0, 48, 100
2, 48864, Note_off_c, 0, 62, 64
2, 48864, Note_off_c, 0, 60, 64
2, 48864, Note_on_c, 0, 53, 100
2, 48992, Note_off_c, 0, 53, 64
2, 48992, Note_off_c, 0, 52, 64
2, 48992, Note_on_c, 0, 50, 100
2, 48992, Note_on_c, 0, 52, 100
2, 49120, Note_on_c, 0, 60, 100
2, 49120, Note_on_c, 0, 62, 100
2, 49120, Note_off_c, 0, 50, 64
2, 49120, Note_off_c, 0, 58, 64
2, 49120, Note_off_c, 0, 52, 64
2, 49120, Note_on_c, 0, 53, 100
2, 49248, Note_off_c, 0, 53, 64
2, 49248, Note_on_c, 0, 55, 100
2, 49376, Note_on_c, 0, 58, 100
2, 49376, Note_off_c, 0, 55, 64
2, 49376, Note_on_c, 0, 55, 100
2, 49376, Note_off_c, 0, 64, 64
2, 49376, Note_on_c, 0, 64, 100
2, 49376, Note_off_c, 0, 62, 64
2, 49376, Note_on_c, 0, 68, 100
2, 49504, Note_off_c, 0, 55, 64
2, 49504, Note_on_c, 0, 57, 100
2, 49632, Note_off_c, 0, 57, 64
2, 49632, Note_off_c, 0, 58, 64
2, 49632, Note_on_c, 0, 58, 100
2, 49632, Note_on_c, 0, 46, 100
2, 49760, Note_off_c, 0, 58, 64
2, 49760, Note_on_c, 0, 50, 100
2, 49888, Note_off_c, 0, 69, 64
2, 49888, Note_off_c, 0, 57, 64
2, 49888, Note_on_c, 0, 57, 100
2, 49888, Note_off_c, 0, 46, 64
2, 49888, Note_on_c, 0, 45, 100
2, 49888, Note_on_c, 0, 37, 100
2, 50144, Note_on_c, 0, 69, 100
2, 50144, Note_off_c, 0, 70, 64
2, 50144, Note_on_c, 0, 70, 100
2, 50272, Note_off_c, 0, 69, 64
2, 50272, Note_on_c, 0, 69, 100
2, 50400, Note_off_c, 0, 69, 64
2, 50400, Note_off_c, 0, 50, 64
2, 50400, Note_on_c, 0, 50, 100
2, 50400, Note_off_c, 0, 38, 64
2, 50400, Note_on_c, 0, 38, 100
2, 50528, Note_on_c, 0, 69, 100
2, 50656, Note_on_c, 0, 73, 100
2, 50656, Note_off_c, 0, 74, 64
2, 50656, Note_off_c, 0, 69, 64
2, 50656, Note_off_c, 0, 57, 64
2, 50784, Note_on_c, 0, 74, 100
2, 50784, Note_off_c, 0, 73, 64
2, 50912, Note_off_c, 0, 74, 64
2, 50912, Note_off_c, 0, 70, 64
2, 50912, Note_off_c, 0, 73, 64
2, 50912, Note_on_c, 0, 73, 100
2, 50912, Note_on_c, 0, 69, 100
2, 50912, Note_on_c, 0, 65, 100
2, 50912, Note_off_c, 0, 57, 64
2, 50912, Note_off_c, 0, 50, 64
2, 50912, Note_on_c, 0, 57, 100
2, 51040, Note_off_c, 0, 77, 64
2, 51040, Note_off_c, 0, 76, 64
2, 51168, Note_on_c, 0, 76, 100
2, 51168, Note_on_c, 0, 74, 100
2, 51168, Note_off_c, 0, 57, 64
2, 51168, Note_off_c, 0, 59, 64
2, 51168, Note_on_c, 0, 50, 100
2, 51168, Note_off_c, 0, 47, 64
2, 51168, Note_off_c, 0, 38, 64
2, 51168, Note_on_c, 0, 47, 100
2, 51424, Note_off_c, 0, 74, 64
2, 51424, Note_off_c, 0, 73, 64
2, 51424, Note_on_c, 0, 59, 100
2, 51424, Note_on_c, 0, 57, 100
2, 51424, Note_off_c, 0, 50, 64
2, 51424, Note_on_c, 0, 49, 100
2, 51424, Note_on_c, 0, 38, 100
2, 51424, Note_off_c, 0, 39, 64
2, 51552, Note_off_c, 0, 73, 64
2, 51552, Note_on_c, 0, 73, 100
2, 51680, Note_off_c, 0, 73, 64
2, 51680, Note_on_c, 0, 74, 100
2, 51680, Note_off_c, 0, 45, 64
2, 51680, Note_off_c, 0, 49, 64
2, 51680, Note_off_c, 0, 37, 64
2, 51680, Note_on_c, 0, 37, 100
2, 51808, Note_off_c, 0, 74, 64
2, 51808, Note_off_c, 0, 76, 64
2, 51936, Note_on_c, 0, 76, 100
2, 51936, Note_on_c, 0, 77, 100
2, 51936, Note_off_c, 0, 57, 64
2, 51936, Note_on_c, 0, 53, 100
2, 51936, Note_off_c, 0, 48, 64
2, 51936, Note_on_c, 0, 36, 100
2, 52064, Note_off_c, 0, 77, 64
2, 52064, Note_off_c, 0, 75, 64
2, 52064, Note_off_c, 0, 53, 64
2, 52064, Note_off_c, 0, 51, 64
2, 52192, Note_on_c, 0, 75, 100
2, 52192, Note_on_c, 0, 74, 100
2, 52192, Note_off_c, 0, 69, 64
2, 52192, Note_off_c, 0, 68, 64
2, 52192, Note_on_c, 0, 51, 100
2, 52192, Note_on_c, 0, 53, 100
2, 52192, Note_on_c, 0, 39, 100
2, 52192, Note_off_c, 0, 41, 64
2, 52448, Note_off_c, 0, 69, 64
2, 52448, Note_on_c, 0, 69, 100
2, 52448, Note_on_c, 0, 41, 100
2, 52448, Note_off_c, 0, 53, 64
2, 52448, Note_off_c, 0, 41, 64
2, 52448, Note_on_c, 0, 41, 100
2, 52576, Note_off_c, 0, 69, 64
2, 52576, Note_off_c, 0, 66, 64
2, 52576, Note_off_c, 0, 65, 64
2, 52576, Note_on_c, 0, 57, 100
2, 52640, Note_off_c, 0, 57, 64
2, 52640, Note_on_c, 0, 56, 100
2, 52704, Note_off_c, 0, 74, 64
2, 52704, Note_on_c, 0, 72, 100
2, 52704, Note_on_c, 0, 65, 100
2, 52704, Note_off_c, 0, 63, 64
2, 52704, Note_off_c, 0, 57, 64
2, 52704, Note_on_c, 0, 57, 100
2, 52704, Note_off_c, 0, 56, 64
2, 52704, Note_on_c, 0, 53, 100
2, 52704, Note_off_c, 0, 41, 64
2, 52704, Note_off_c, 0, 42, 64
2, 52832, Note_off_c, 0, 75, 64
2, 52832, Note_on_c, 0, 75, 100
2, 52960, Note_off_c, 0, 57, 64
2, 52960, Note_on_c, 0, 57, 100
2, 53472, Note_off_c, 0, 72, 64
2, 53472, Note_on_c, 0, 66, 100
2, 53472, Note_on_c, 0, 63, 100
2, 53472, Note_on_c, 0, 68, 100
2, 53472, Note_off_c, 0, 57, 64
2, 53472, Note_on_c, 0, 56, 100
2, 53472, Note_off_c, 0, 42, 64
2, 53472, Note_on_c, 0, 42, 100
2, 53728, Note_off_c, 0, 81, 64
2, 53728, Note_on_c, 0, 72, 100
2, 53728, Note_on_c, 0, 69, 100
2, 53728, Note_off_c, 0, 56, 64
2, 53728, Note_on_c, 0, 54, 100
2, 53728, Note_off_c, 0, 42, 64
2, 53728, Note_off_c, 0, 44, 64
2, 53984, Note_off_c, 0, 60, 64
2, 53984, Note_on_c, 0, 60, 100
2, 54240, Note_off_c, 0, 69, 64
2, 54240, Note_off_c, 0, 68, 64
2, 54240, Note_off_c, 0, 65, 64
2, 54240, Note_off_c, 0, 63, 64
2, 54240, Note_off_c, 0, 60, 64
2, 54496, Note_on_c, 0, 68, 100
2, 54496, Note_off_c, 0, 67, 64
2, 54752, Note_on_c, 0, 67, 100
2, 54752, Note_off_c, 0, 65, 64
2, 54752, Note_on_c, 0, 65, 100
2, 54752, Note_on_c, 0, 60, 100
2, 54880, Note_off_c, 0, 60, 64
2, 54880, Note_on_c, 0, 60, 100
2, 55008, Note_off_c, 0, 60, 64
2, 55008, Note_on_c, 0, 63, 100
2, 55136, Note_off_c, 0, 63, 64
2, 55136, Note_off_c, 0, 65, 64
2, 55264, Note_on_c, 0, 63, 100
2, 55264, Note_on_c, 0, 62, 100
2, 55328, Note_on_c, 0, 65, 100
2, 55328, Note_off_c, 0, 63, 64
2, 55328, Note_off_c, 0, 62, 64
2, 55328, Note_on_c, 0, 60, 100
2, 55456, Note_on_c, 0, 63, 100
2, 55456, Note_off_c, 0, 63, 64
2, 55456, Note_on_c, 0, 63, 100
2, 55456, Note_off_c, 0, 60, 64
2, 55456, Note_on_c, 0, 60, 100
2, 55520, Note_off_c, 0, 63, 64
2, 55520, Note_off_c, 0, 65, 64
2, 55712, Note_on_c, 0, 77, 100
2, 55712, Note_on_c, 0, 80, 100
2, 55712, Note_on_c, 0, 63, 100
2, 55776, Note_off_c, 0, 68, 64
2, 55776, Note_on_c, 0, 68, 100
2, 55840, Note_off_c, 0, 80, 64
2, 55840, Note_off_c, 0, 77, 64
2, 55904, Note_on_c, 0, 80, 100
2, 55904, Note_on_c, 0, 81, 100
2, 55968, Note_off_c, 0, 81, 64
2, 55968, Note_off_c, 0, 80, 64
2, 56160, Note_on_c, 0, 80, 100
2, 56160, Note_on_c, 0, 69, 100
2, 56160, Note_off_c, 0, 60, 64
2, 56224, Note_off_c, 0, 75, 64
2, 56224, Note_on_c, 0, 75, 100
2, 56352, Note_off_c, 0, 75, 64
2, 56416, Note_on_c, 0, 77, 100
2, 56416, Note_on_c, 0, 78, 100
2, 56480, Note_off_c, 0, 78, 64
2, 56480, Note_on_c, 0, 75, 100
2, 56544, Note_on_c, 0, 78, 100
2, 56544, Note_off_c, 0, 75, 64
2, 56544, Note_on_c, 0, 75, 100
2, 56608, Note_off_c, 0, 75, 64
2, 56608, Note_off_c, 0, 77, 64
2, 56672, Note_off_c, 0, 78, 64
2, 56672, Note_on_c, 0, 75, 100
2, 56672, Note_on_c, 0, 78, 100
2, 56736, Note_off_c, 0, 75, 64
2, 56736, Note_on_c, 0, 77, 100
2, 56736, Note_on_c, 0, 65, 100
2, 56800, Note_off_c, 0, 77, 64
2, 56928, Note_off_c, 0, 63, 64
2, 56928, Note_on_c, 0, 42, 100
2, 57184, Note_on_c, 0, 60, 100
2, 57184, Note_off_c, 0, 59, 64
2, 57248, Note_off_c, 0, 42, 64
2, 57440, Note_on_c, 0, 59, 100
2, 57440, Note_off_c, 0, 60, 64
2, 57696, Note_on_c, 0, 60, 100
2, 57696, Note_off_c, 0, 59, 64
2, 57952, Note_off_c, 0, 59, 64
2, 57952, Note_on_c, 0, 59, 100
2, 58208, Note_off_c, 0, 59, 64
2, 58208, Note_off_c, 0, 61, 64
2, 58208, Note_on_c, 0, 61, 100
2, 58464, Note_off_c, 0, 61, 64
2, 58464, Note_on_c, 0, 61, 100
2, 58464, Note_off_c, 0, 49, 64
2, 58464, Note_off_c, 0, 54, 64
2, 58464, Note_on_c, 0, 49, 100
2, 58720, Note_off_c, 0, 61, 64
2, 58720, Note_on_c, 0, 59, 100
2, 58720, Note_on_c, 0, 61, 100
2, 58976, Note_off_c, 0, 59, 64
2, 58976, Note_off_c, 0, 61, 64
2, 59232, Note_off_c, 0, 49, 64
2, 59232, Note_off_c, 0, 59, 64
2, 59232, Note_on_c, 0, 59, 100
2, 59360, Note_off_c, 0, 59, 64
2, 59360, Note_on_c, 0, 59, 100
2, 59488, Note_off_c, 0, 59, 64
2, 59488, Note_off_c, 0, 61, 64
2, 59488, Note_on_c, 0, 61, 100
2, 59488, Note_on_c, 0, 54, 100
2, 59616, Note_off_c, 0, 61, 64
2, 59616, Note_on_c, 0, 56, 100
2, 59744, Note_off_c, 0, 56, 64
2, 59744, Note_on_c, 0, 52, 100
2, 59744, Note_off_c, 0, 54, 64
2, 59872, Note_on_c, 0, 56, 100
2, 59872, Note_off_c, 0, 54, 64
2, 59872, Note_on_c, 0, 54, 100
2, 60000, Note_off_c, 0, 54, 64
2, 60000, Note_on_c, 0, 54, 100
2, 60000, Note_off_c, 0, 52, 64
2, 60256, Note_on_c, 0, 52, 100
2, 60256, Note_off_c, 0, 50, 64
2, 60256, Note_on_c, 0, 50, 100
2, 60384, Note_off_c, 0, 54, 64
2, 60384, Note_off_c, 0, 52, 64
2, 60384, Note_off_c, 0, 50, 64
2, 60512, Note_on_c, 0, 50, 100
2, 60512, Note_off_c, 0, 49, 64
2, 60512, Note_on_c, 0, 49, 100
2, 60640, Note_off_c, 0, 49, 64
2, 60640, Note_off_c, 0, 50, 64
2, 60640, Note_on_c, 0, 50, 100
2, 60768, Note_off_c, 0, 50, 64
2, 60768, Note_off_c, 0, 56, 64
2, 60768, Note_on_c, 0, 56, 100
2, 60896, Note_off_c, 0, 56, 64
2, 60896, Note_off_c, 0, 52, 64
2, 60896, Note_on_c, 0, 52, 100
2, 61024, Note_off_c, 0, 52, 64
2, 61024, Note_off_c, 0, 50, 64
2, 61024, Note_on_c, 0, 50, 100
2, 61152, Note_off_c, 0, 50, 64
2, 61152, Note_off_c, 0, 53, 64
2, 61152, Note_on_c, 0, 53, 100
2, 61280, Note_on_c, 0, 54, 100
2, 61280, Note_off_c, 0, 56, 64
2, 61280, Note_on_c, 0, 56, 100
2, 61408, Note_off_c, 0, 56, 64
2, 61408, Note_off_c, 0, 58, 64
2, 61408, Note_on_c, 0, 58, 100
2, 61536, Note_off_c, 0, 58, 64
2, 61536, Note_off_c, 0, 57, 64
2, 61536, Note_on_c, 0, 57, 100
2, 61792, Note_off_c, 0, 57, 64
2, 61792, Note_off_c, 0, 58, 64
2, 61792, Note_on_c, 0, 58, 100
2, 61920, Note_off_c, 0, 58, 64
2, 61920, Note_off_c, 0, 60, 64
2, 61920, Note_on_c, 0, 60, 100
2, 62048, Note_off_c, 0, 60, 64
2, 62048, Note_off_c, 0, 65, 64
2, 62048, Note_on_c, 0, 65, 100
2, 62176, Note_off_c, 0, 65, 64
2, 62176, Note_off_c, 0, 60, 64
2, 62176, Note_on_c, 0, 60, 100
2, 62304, Note_off_c, 0, 60, 64
2, 62304, Note_off_c, 0, 57, 64
2, 62304, Note_on_c, 0, 57, 100
2, 62432, Note_off_c, 0, 57, 64
2, 62432, Note_off_c, 0, 62, 64
2, 62432, Note_on_c, 0, 62, 100
2, 62560, Note_off_c, 0, 62, 64
2, 62560, Note_off_c, 0, 72, 64
2, 62560, Note_on_c, 0, 72, 100
2, 62688, Note_off_c, 0, 72, 64
2, 62688, Note_off_c, 0, 81, 64
2, 62688, Note_on_c, 0, 81, 100
2, 62688, Note_off_c, 0, 57, 64
2, 62688, Note_on_c, 0, 57, 100
2, 62816, Note_off_c, 0, 81, 64
2, 62816, Note_off_c, 0, 57, 64
2, 62816, Note_off_c, 0, 62, 64
2, 62816, Note_on_c, 0, 62, 100
2, 62944, Note_on_c, 0, 58, 100
2, 62944, Note_off_c, 0, 53, 64
2, 62944, Note_on_c, 0, 53, 100
2, 63072, Note_off_c, 0, 58, 64
2, 63072, Note_off_c, 0, 57, 64
2, 63072, Note_on_c, 0, 57, 100
2, 63200, Note_off_c, 0, 57, 64
2, 63200, Note_off_c, 0, 53, 64
2, 63200, Note_on_c, 0, 53, 100
2, 63328, Note_off_c, 0, 53, 64
2, 63328, Note_off_c, 0, 50, 64
2, 63328, Note_on_c, 0, 50, 100
2, 63456, Note_off_c, 0, 62, 64
2, 63456, Note_off_c, 0, 69, 64
2, 63456, Note_on_c, 0, 69, 100
2, 63584, Note_off_c, 0, 69, 64
2, 63584, Note_off_c, 0, 70, 64
2, 63584, Note_on_c, 0, 70, 100
2, 63584, Note_off_c, 0, 55, 64
2, 63584, Note_on_c, 0, 55, 100
2, 63712, Note_off_c, 0, 55, 64
2, 63712, Note_off_c, 0, 57, 64
2, 63712, Note_on_c, 0, 57, 100
2, 63840, Note_off_c, 0, 57, 64
2, 63840, Note_off_c, 0, 55, 64
2, 63840, Note_on_c, 0, 55, 100
2, 63968, Note_off_c, 0, 70, 64
2, 63968, Note_off_c, 0, 72, 64
2, 63968, Note_on_c, 0, 72, 100
2, 64096, Note_off_c, 0, 72, 64
2, 64096, Note_off_c, 0, 62, 64
2, 64096, Note_on_c, 0, 62, 100
2, 64224, Note_off_c, 0, 62, 64
2, 64224, Note_off_c, 0, 67, 64
2, 64224, Note_on_c, 0, 67, 100
2, 64352, Note_off_c, 0, 67, 64
2, 64352, Note_off_c, 0, 62, 64
2, 64352, Note_on_c, 0, 62, 100
2, 64480, Note_off_c, 0, 62, 64
2, 64480, Note_off_c, 0, 60, 64
2, 64480, Note_on_c, 0, 60, 100
2, 64608, Note_off_c, 0, 55, 64
2, 64608, Note_off_c, 0, 60, 64
2, 64608, Note_off_c, 0, 63, 64
2, 64608, Note_on_c, 0, 63, 100
2, 64736, Note_off_c, 0, 63, 64
2, 64736, Note_off_c, 0, 62, 64
2, 64736, Note_on_c, 0, 62, 100
2, 64864, Note_off_c, 0, 62, 64
2, 64864, Note_off_c, 0, 60, 64
2, 64864, Note_on_c, 0, 60, 100
2, 64992, Note_off_c, 0, 60, 64
2, 64992, Note_off_c, 0, 62, 64
2, 64992, Note_on_c, 0, 62, 100
2, 65120, Note_off_c, 0, 62, 64
2, 65120, Note_off_c, 0, 65, 64
2, 65120, Note_on_c, 0, 65, 100
2, 65120, Note_off_c, 0, 50, 64
2, 65120, Note_on_c, 0, 50, 100
2, 65248, Note_on_c, 0, 63, 100
2, 65248, Note_off_c, 0, 67, 64
2, 65248, Note_on_c, 0, 67, 100
2, 65376, Note_off_c, 0, 67, 64
2, 65376, Note_off_c, 0, 58, 64
2, 65376, Note_on_c, 0, 58, 100
2, 65504, Note_off_c, 0, 65, 64
2, 65504, Note_off_c, 0, 67, 64
2, 65504, Note_on_c, 0, 67, 100
2, 65632, Note_off_c, 0, 67, 64
2, 65632, Note_on_c, 0, 59, 100
2, 65632, Note_off_c, 0, 65, 64
2, 65632, Note_on_c, 0, 65, 100
2, 65632, Note_off_c, 0, 60, 64
2, 65632, Note_on_c, 0, 60, 100
2, 65760, Note_off_c, 0, 65, 64
2, 65760, Note_off_c, 0, 63, 64
2, 65760, Note_on_c, 0, 63, 100
2, 65888, Note_off_c, 0, 63, 64
2, 65888, Note_off_c, 0, 62, 64
2, 65888, Note_on_c, 0, 62, 100
2, 65888, Note_off_c, 0, 60, 64
2, 65888, Note_off_c, 0, 59, 64
2, 65888, Note_off_c, 0, 50, 64
2, 65888, Note_on_c, 0, 50, 100
2, 65888, Note_off_c, 0, 51, 64
2, 65888, Note_on_c, 0, 51, 100
2, 65888, Note_off_c, 0, 47, 64
2, 66016, Note_off_c, 0, 62, 64
2, 66016, Note_off_c, 0, 63, 64
2, 66016, Note_on_c, 0, 63, 100
2, 66144, Note_off_c, 0, 63, 64
2, 66144, Note_off_c, 0, 62, 64
2, 66144, Note_on_c, 0, 62, 100
2, 66144, Note_off_c, 0, 50, 64
2, 66144, Note_off_c, 0, 53, 64
2, 66144, Note_on_c, 0, 53, 100
2, 66272, Note_off_c, 0, 62, 64
2, 66272, Note_off_c, 0, 60, 64
2, 66272, Note_on_c, 0, 60, 100
2, 66400, Note_off_c, 0, 60, 64
2, 66400, Note_off_c, 0, 59, 64
2, 66400, Note_on_c, 0, 59, 100
2, 66400, Note_off_c, 0, 53, 64
2, 66400, Note_off_c, 0, 51, 64
2, 66400, Note_on_c, 0, 51, 100
2, 66400, Note_off_c, 0, 55, 64
2, 66400, Note_on_c, 0, 55, 100
2, 66528, Note_off_c, 0, 51, 64
2, 66528, Note_off_c, 0, 50, 64
2, 66528, Note_on_c, 0, 50, 100
2, 66656, Note_off_c, 0, 59, 64
2, 66656, Note_off_c, 0, 62, 64
2, 66656, Note_on_c, 0, 62, 100
2, 66656, Note_off_c, 0, 55, 64
2, 66656, Note_off_c, 0, 50, 64
2, 66656, Note_off_c, 0, 47, 64
2, 66656, Note_on_c, 0, 47, 100
2, 66784, Note_off_c, 0, 62, 64
2, 66784, Note_off_c, 0, 60, 64
2, 66784, Note_on_c, 0, 60, 100
2, 66912, Note_off_c, 0, 60, 64
2, 66912, Note_off_c, 0, 59, 64
2, 66912, Note_on_c, 0, 59, 100
2, 66912, Note_on_c, 0, 50, 100
2, 66912, Note_off_c, 0, 38, 64
2, 66912, Note_on_c, 0, 38, 100
2, 67040, Note_off_c, 0, 59, 64
2, 67040, Note_off_c, 0, 57, 64
2, 67040, Note_on_c, 0, 57, 100
2, 67168, Note_off_c, 0, 57, 64
2, 67168, Note_off_c, 0, 62, 64
2, 67168, Note_on_c, 0, 62, 100
2, 67168, Note_off_c, 0, 60, 64
2, 67168, Note_on_c, 0, 60, 100
2, 67296, Note_off_c, 0, 62, 64
2, 67296, Note_off_c, 0, 64, 64
2, 67296, Note_on_c, 0, 64, 100
2, 67296, Note_off_c, 0, 60, 64
2, 67296, Note_off_c, 0, 59, 64
2, 67296, Note_on_c, 0, 59, 100
2, 67424, Note_off_c, 0, 64, 64
2, 67424, Note_off_c, 0, 62, 64
2, 67424, Note_on_c, 0, 62, 100
2, 67424, Note_off_c, 0, 59, 64
2, 67424, Note_on_c, 0, 60, 100
2, 67424, Note_off_c, 0, 60, 64
2, 67424, Note_on_c, 0, 64, 100
2, 67424, Note_on_c, 0, 60, 100
2, 67488, Note_off_c, 0, 64, 64
2, 67488, Note_off_c, 0, 62, 64
2, 67488, Note_on_c, 0, 64, 100
2, 67488, Note_off_c, 0, 64, 64
2, 67488, Note_on_c, 0, 62, 100
2, 67488, Note_off_c, 0, 60, 64
2, 67488, Note_on_c, 0, 60, 100
2, 67488, Note_off_c, 0, 60, 64
2, 67488, Note_off_c, 0, 58, 64
2, 67552, Note_on_c, 0, 64, 100
2, 67552, Note_off_c, 0, 62, 64
2, 67552, Note_off_c, 0, 60, 64
2, 67552, Note_on_c, 0, 60, 100
2, 67552, Note_on_c, 0, 58, 100
2, 67552, Note_on_c, 0, 57, 100
2, 67552, Note_on_c, 0, 62, 100
2, 67616, Note_off_c, 0, 64, 64
2, 67616, Note_on_c, 0, 64, 100
2, 67616, Note_off_c, 0, 62, 64
2, 67616, Note_off_c, 0, 60, 64
2, 67680, Note_off_c, 0, 64, 64
2, 67680, Note_off_c, 0, 65, 64
2, 67680, Note_on_c, 0, 65, 100
2, 67680, Note_off_c, 0, 57, 64
2, 67680, Note_off_c, 0, 60, 64
2, 67680, Note_on_c, 0, 60, 100
2, 67680, Note_on_c, 0, 57, 100
2, 67680, Note_off_c, 0, 57, 64
2, 67936, Note_off_c, 0, 72, 64
2, 67936, Note_on_c, 0, 72, 100
2, 67936, Note_on_c, 0, 63, 100
2, 67936, Note_off_c, 0, 65, 64
2, 67936, Note_on_c, 0, 65, 100
2, 67936, Note_off_c, 0, 65, 64
2, 67936, Note_on_c, 0, 57, 100
2, 67936, Note_off_c, 0, 60, 64
2, 67936, Note_on_c, 0, 60, 100
2, 67936, Note_off_c, 0, 62, 64
2, 67936, Note_on_c, 0, 62, 100
2, 68064, Note_on_c, 0, 65, 100
2, 68064, Note_off_c, 0, 74, 64
2, 68064, Note_on_c, 0, 74, 100
2, 68064, Note_off_c, 0, 60, 64
2, 68064, Note_off_c, 0, 62, 64
2, 68064, Note_on_c, 0, 62, 100
2, 68128, Note_off_c, 0, 72, 64
2, 68128, Note_off_c, 0, 70, 64
2, 68128, Note_on_c, 0, 70, 100
2, 68192, Note_off_c, 0, 74, 64
2, 68192, Note_off_c, 0, 62, 64
2, 68192, Note_off_c, 0, 70, 64
2, 68192, Note_off_c, 0, 65, 64
2, 68192, Note_on_c, 0, 65, 100
2, 68192, Note_off_c, 0, 65, 64
2, 68192, Note_on_c, 0, 62, 100
2, 68192, Note_off_c, 0, 62, 64
2, 68192, Note_on_c, 0, 65, 100
2, 68320, Note_on_c, 0, 62, 100
2, 68320, Note_off_c, 0, 60, 64
2, 68320, Note_on_c, 0, 60, 100
2, 68320, Note_off_c, 0, 57, 64
2, 68320, Note_on_c, 0, 57, 100
2, 68384, Note_off_c, 0, 58, 64
2, 68384, Note_on_c, 0, 58, 100
2, 68384, Note_off_c, 0, 57, 64
2, 68448, Note_off_c, 0, 58, 64
2, 68448, Note_on_c, 0, 57, 100
2, 68448, Note_off_c, 0, 63, 64
2, 68448, Note_on_c, 0, 70, 100
2, 68448, Note_off_c, 0, 65, 64
2, 68448, Note_on_c, 0, 65, 100
2, 68448, Note_on_c, 0, 63, 100
2, 68448, Note_off_c, 0, 72, 64
2, 68448, Note_on_c, 0, 72, 100
2, 68512, Note_off_c, 0, 65, 64
2, 68512, Note_off_c, 0, 67, 64
2, 68512, Note_on_c, 0, 67, 100
2, 68640, Note_off_c, 0, 72, 64
2, 68640, Note_off_c, 0, 67, 64
2, 68640, Note_off_c, 0, 70, 64
2, 68640, Note_off_c, 0, 57, 64
2, 68640, Note_off_c, 0, 53, 64
2, 68640, Note_off_c, 0, 65, 64
2, 68640, Note_on_c, 0, 65, 100
2, 68640, Note_on_c, 0, 53, 100
2, 68704, Note_off_c, 0, 65, 64
2, 68704, Note_on_c, 0, 65, 100
2, 68704, Note_off_c, 0, 65, 64
2, 68704, Note_off_c, 0, 57, 64
2, 68704, Note_on_c, 0, 57, 100
2, 68704, Note_off_c, 0, 60, 64
2, 68704, Note_on_c, 0, 60, 100
2, 68768, Note_on_c, 0, 70, 100
2, 68768, Note_off_c, 0, 72, 64
2, 68768, Note_on_c, 0, 72, 100
2, 68832, Note_off_c, 0, 60, 64
2, 68832, Note_on_c, 0, 60, 100
2, 68832, Note_off_c, 0, 57, 64
2, 68896, Note_off_c, 0, 72, 64
2, 68896, Note_on_c, 0, 72, 100
2, 68896, Note_off_c, 0, 72, 64
2, 68896, Note_on_c, 0, 69, 100
2, 68896, Note_off_c, 0, 65, 64
2, 68896, Note_on_c, 0, 65, 100
2, 68896, Note_off_c, 0, 63, 64
2, 68896, Note_on_c, 0, 63, 100
2, 68896, Note_off_c, 0, 57, 64
2, 68896, Note_on_c, 0, 57, 100
2, 69024, Note_on_c, 0, 72, 100
2, 69024, Note_off_c, 0, 69, 64
2, 69024, Note_on_c, 0, 69, 100
2, 69024, Note_off_c, 0, 65, 64
2, 69024, Note_on_c, 0, 65, 100
2, 69024, Note_off_c, 0, 65, 64
2, 69152, Note_off_c, 0, 69, 64
2, 69152, Note_off_c, 0, 68, 64
2, 69152, Note_on_c, 0, 68, 100
2, 69152, Note_off_c, 0, 63, 64
2, 69152, Note_off_c, 0, 60, 64
2, 69152, Note_on_c, 0, 60, 100
2, 69152, Note_off_c, 0, 72, 64
2, 69152, Note_on_c, 0, 72, 100
2, 69152, Note_off_c, 0, 65, 64
2, 69152, Note_on_c, 0, 65, 100
2, 69280, Note_off_c, 0, 68, 64
2, 69280, Note_off_c, 0, 67, 64
2, 69280, Note_on_c, 0, 67, 100
2, 69344, Note_off_c, 0, 65, 64
2, 69344, Note_on_c, 0, 65, 100
2, 69344, Note_off_c, 0, 60, 64
2, 69408, Note_off_c, 0, 67, 64
2, 69408, Note_off_c, 0, 65, 64
2, 69408, Note_on_c, 0, 65, 100
2, 69408, Note_on_c, 0, 63, 100
2, 69408, Note_off_c, 0, 62, 64
2, 69408, Note_on_c, 0, 62, 100
2, 69408, Note_off_c, 0, 72, 64
2, 69408, Note_on_c, 0, 72, 100
2, 69408, Note_on_c, 0, 75, 100
2, 69408, Note_on_c, 0, 74, 100
2, 69536, Note_off_c, 0, 72, 64
2, 69536, Note_off_c, 0, 74, 64
2, 69536, Note_on_c, 0, 74, 100
2, 69664, Note_off_c, 0, 74, 64
2, 69664, Note_off_c, 0, 62, 64
2, 69664, Note_off_c, 0, 65, 64
2, 69664, Note_on_c, 0, 65, 100
2, 69664, Note_off_c, 0, 63, 64
2, 69664, Note_on_c, 0, 63, 100
2, 69792, Note_off_c, 0, 65, 64
2, 69792, Note_off_c, 0, 63, 64
2, 69792, Note_on_c, 0, 63, 100
2, 69920, Note_off_c, 0, 72, 64
2, 69920, Note_on_c, 0, 72, 100
2, 69920, Note_off_c, 0, 75, 64
2, 69920, Note_off_c, 0, 63, 64
2, 69920, Note_off_c, 0, 60, 64
2, 69920, Note_on_c, 0, 60, 100
2, 69920, Note_off_c, 0, 79, 64
2, 69920, Note_on_c, 0, 79, 100
2, 69920, Note_off_c, 0, 48, 64
2, 69920, Note_on_c, 0, 48, 100
2, 69920, Note_on_c, 0, 63, 100
2, 69920, Note_off_c, 0, 67, 64
2, 69920, Note_on_c, 0, 67, 100
2, 70304, Note_off_c, 0, 67, 64
2, 70304, Note_off_c, 0, 65, 64
2, 70304, Note_on_c, 0, 65, 100
2, 70304, Note_off_c, 0, 63, 64
2, 70304, Note_on_c, 0, 63, 100
2, 70304, Note_off_c, 0, 63, 64
2, 70304, Note_off_c, 0, 55, 64
2, 70304, Note_on_c, 0, 55, 100
2, 70304, Note_off_c, 0, 72, 64
2, 70304, Note_off_c, 0, 48, 64
2, 70304, Note_off_c, 0, 45, 64
2, 70304, Note_on_c, 0, 45, 100
2, 70304, Note_on_c, 0, 62, 100
2, 70304, Note_off_c, 0, 60, 64
2, 70304, Note_on_c, 0, 60, 100
2, 70432, Note_off_c, 0, 62, 64
2, 70432, Note_off_c, 0, 60, 64
2, 70432, Note_on_c, 0, 63, 100
2, 70432, Note_off_c, 0, 45, 64
2, 70432, Note_off_c, 0, 55, 64
2, 70432, Note_on_c, 0, 55, 100
2, 70432, Note_off_c, 0, 79, 64
2, 70432, Note_off_c, 0, 74, 64
2, 70432, Note_on_c, 0, 74, 100
2, 70432, Note_off_c, 0, 65, 64
2, 70432, Note_on_c, 0, 65, 100
2, 70496, Note_off_c, 0, 65, 64
2, 70496, Note_on_c, 0, 65, 100
2, 70496, Note_off_c, 0, 67, 64
2, 70496, Note_on_c, 0, 67, 100
2, 70496, Note_off_c, 0, 65, 64
2, 70496, Note_off_c, 0, 63, 64
2, 70496, Note_off_c, 0, 55, 64
2, 70560, Note_on_c, 0, 65, 100
2, 70560, Note_off_c, 0, 71, 64
2, 70560, Note_on_c, 0, 71, 100
2, 70560, Note_off_c, 0, 67, 64
2, 70560, Note_on_c, 0, 67, 100
2, 70560, Note_off_c, 0, 65, 64
2, 70560, Note_on_c, 0, 65, 100
2, 70560, Note_off_c, 0, 55, 64
2, 70560, Note_on_c, 0, 55, 100
2, 70688, Note_off_c, 0, 71, 64
2, 70688, Note_off_c, 0, 65, 64
2, 70688, Note_off_c, 0, 63, 64
2, 70688, Note_on_c, 0, 63, 100
2, 70688, Note_off_c, 0, 55, 64
2, 70688, Note_on_c, 0, 55, 100
2, 70816, Note_off_c, 0, 63, 64
2, 70816, Note_off_c, 0, 62, 64
2, 70816, Note_on_c, 0, 62, 100
2, 70816, Note_off_c, 0, 53, 64
2, 70816, Note_on_c, 0, 53, 100
2, 70944, Note_off_c, 0, 67, 64
2, 70944, Note_off_c, 0, 62, 64
2, 70944, Note_off_c, 0, 53, 64
2, 70944, Note_off_c, 0, 55, 64
2, 70944, Note_on_c, 0, 55, 100
2, 70944, Note_off_c, 0, 63, 64
2, 70944, Note_on_c, 0, 63, 100
2, 71072, Note_off_c, 0, 63, 64
2, 71072, Note_off_c, 0, 62, 64
2, 71072, Note_on_c, 0, 62, 100
2, 71200, Note_off_c, 0, 62, 64
2, 71200, Note_off_c, 0, 60, 64
2, 71200, Note_on_c, 0, 60, 100
2, 71200, Note_off_c, 0, 55, 64
2, 71200, Note_off_c, 0, 56, 64
2, 71200, Note_on_c, 0, 56, 100
2, 71328, Note_off_c, 0, 56, 64
2, 71328, Note_off_c, 0, 55, 64
2, 71328, Note_on_c, 0, 55, 100
2, 71456, Note_off_c, 0, 60, 64
2, 71456, Note_off_c, 0, 59, 64
2, 71456, Note_on_c, 0, 59, 100
2, 71456, Note_off_c, 0, 55, 64
2, 71456, Note_off_c, 0, 53, 64
2, 71456, Note_on_c, 0, 53, 100
2, 71584, Note_off_c, 0, 59, 64
2, 71584, Note_off_c, 0, 56, 64
2, 71584, Note_off_c, 0, 57, 64
2, 71584, Note_on_c, 0, 57, 100
2, 71584, Note_on_c, 0, 56, 100
2, 71584, Note_on_c, 0, 55, 100
2, 71712, Note_off_c, 0, 55, 64
2, 71712, Note_off_c, 0, 56, 64
2, 71712, Note_off_c, 0, 53, 64
2, 71712, Note_off_c, 0, 57, 64
2, 71712, Note_on_c, 0, 53, 100
2, 71712, Note_off_c, 0, 53, 64
2, 71840, Note_on_c, 0, 53, 100
2, 71840, Note_off_c, 0, 51, 64
2, 71840, Note_on_c, 0, 51, 100
2, 71968, Note_off_c, 0, 51, 64
2, 71968, Note_off_c, 0, 50, 64
2, 71968, Note_on_c, 0, 50, 100
2, 72096, Note_off_c, 0, 50, 64
2, 72096, Note_off_c, 0, 48, 64
2, 72096, Note_on_c, 0, 48, 100
2, 72224, Note_off_c, 0, 48, 64
2, 72224, Note_on_c, 0, 52, 100
2, 72224, Note_off_c, 0, 52, 64
2, 72224, Note_on_c, 0, 52, 100
2, 72352, Note_off_c, 0, 52, 64
2, 72352, Note_off_c, 0, 50, 64
2, 72352, Note_on_c, 0, 50, 100
2, 72352, Note_off_c, 0, 48, 64
2, 72352, Note_on_c, 0, 48, 100
2, 72480, Note_on_c, 0, 52, 100
2, 72480, Note_off_c, 0, 65, 64
2, 72480, Note_on_c, 0, 65, 100
2, 72480, Note_off_c, 0, 50, 64
2, 72480, Note_on_c, 0, 50, 100
2, 72480, Note_off_c, 0, 52, 64
2, 72480, Note_on_c, 0, 52, 100
2, 72480, Note_off_c, 0, 50, 64
2, 72608, Note_off_c, 0, 52, 64
2, 72608, Note_off_c, 0, 53, 64
2, 72608, Note_on_c, 0, 53, 100
2, 72736, Note_off_c, 0, 53, 64
2, 72736, Note_off_c, 0, 52, 64
2, 72736, Note_on_c, 0, 52, 100
2, 72736, Note_off_c, 0, 50, 64
2, 72736, Note_on_c, 0, 50, 100
2, 72864, Note_on_c, 0, 58, 100
2, 72864, Note_off_c, 0, 58, 64
2, 72864, Note_on_c, 0, 58, 100
2, 72864, Note_off_c, 0, 50, 64
2, 72864, Note_off_c, 0, 52, 64
2, 72864, Note_on_c, 0, 52, 100
2, 72992, Note_off_c, 0, 58, 64
2, 72992, Note_off_c, 0, 57, 64
2, 72992, Note_on_c, 0, 57, 100
2, 72992, Note_off_c, 0, 52, 64
2, 72992, Note_off_c, 0, 48, 64
2, 72992, Note_on_c, 0, 48, 100
2, 72992, Note_off_c, 0, 64, 64
2, 72992, Note_on_c, 0, 64, 100
2, 72992, Note_off_c, 0, 60, 64
2, 72992, Note_on_c, 0, 60, 100
2, 72992, Note_on_c, 0, 58, 100
2, 72992, Note_off_c, 0, 58, 64
2, 73120, Note_off_c, 0, 58, 64
2, 73120, Note_on_c, 0, 58, 100
2, 73248, Note_off_c, 0, 64, 64
2, 73248, Note_off_c, 0, 65, 64
2, 73248, Note_on_c, 0, 65, 100
2, 73248, Note_on_c, 0, 46, 100
2, 73248, Note_off_c, 0, 48, 64
2, 73248, Note_on_c, 0, 48, 100
2, 73376, Note_off_c, 0, 60, 64
2, 73376, Note_off_c, 0, 59, 64
2, 73376, Note_on_c, 0, 59, 100
2, 73504, Note_off_c, 0, 57, 64
2, 73504, Note_off_c, 0, 53, 64
2, 73504, Note_on_c, 0, 53, 100
2, 73632, Note_off_c, 0, 59, 64
2, 73632, Note_off_c, 0, 57, 64
2, 73632, Note_on_c, 0, 57, 100
2, 73760, Note_off_c, 0, 65, 64
2, 73760, Note_off_c, 0, 57, 64
2, 73760, Note_off_c, 0, 53, 64
2, 73760, Note_off_c, 0, 52, 64
2, 73760, Note_on_c, 0, 52, 100
2, 73760, Note_off_c, 0, 59, 64
2, 73760, Note_on_c, 0, 59, 100
2, 73888, Note_off_c, 0, 59, 64
2, 73888, Note_off_c, 0, 60, 64
2, 73888, Note_on_c, 0, 60, 100
2, 74016, Note_off_c, 0, 60, 64
2, 74016, Note_off_c, 0, 59, 64
2, 74016, Note_on_c, 0, 59, 100
2, 74016, Note_off_c, 0, 52, 64
2, 74016, Note_off_c, 0, 50, 64
2, 74016, Note_on_c, 0, 50, 100
2, 74144, Note_off_c, 0, 59, 64
2, 74144, Note_off_c, 0, 60, 64
2, 74144, Note_on_c, 0, 60, 100
2, 74272, Note_off_c, 0, 60, 64
2, 74272, Note_off_c, 0, 58, 64
2, 74272, Note_on_c, 0, 58, 100
2, 74272, Note_off_c, 0, 50, 64
2, 74272, Note_off_c, 0, 52, 64
2, 74272, Note_on_c, 0, 52, 100
2, 74400, Note_off_c, 0, 58, 64
2, 74400, Note_off_c, 0, 60, 64
2, 74400, Note_on_c, 0, 60, 100
2, 74528, Note_off_c, 0, 60, 64
2, 74528, Note_off_c, 0, 57, 64
2, 74528, Note_on_c, 0, 57, 100
2, 74528, Note_off_c, 0, 52, 64
2, 74528, Note_off_c, 0, 48, 64
2, 74528, Note_on_c, 0, 48, 100
2, 74656, Note_off_c, 0, 57, 64
2, 74656, Note_on_c, 0, 57, 100
2, 74656, Note_off_c, 0, 57, 64
2, 74656, Note_off_c, 0, 48, 64
2, 74784, Note_on_c, 0, 57, 100
2, 74784, Note_off_c, 0, 60, 64
2, 74784, Note_on_c, 0, 60, 100
2, 74784, Note_off_c, 0, 46, 64
2, 74784, Note_on_c, 0, 46, 100
2, 74784, Note_on_c, 0, 45, 100
2, 74912, Note_off_c, 0, 60, 64
2, 74912, Note_off_c, 0, 63, 64
2, 74912, Note_on_c, 0, 63, 100
2, 75040, Note_off_c, 0, 63, 64
2, 75040, Note_on_c, 0, 48, 100
2, 75040, Note_off_c, 0, 65, 64
2, 75040, Note_on_c, 0, 65, 100
2, 75040, Note_off_c, 0, 38, 64
2, 75040, Note_on_c, 0, 50, 100
2, 75040, Note_off_c, 0, 50, 64
2, 75040, Note_on_c, 0, 50, 100
2, 75168, Note_off_c, 0, 65, 64
2, 75168, Note_off_c, 0, 69, 64
2, 75168, Note_on_c, 0, 69, 100
2, 75296, Note_off_c, 0, 69, 64
2, 75296, Note_off_c, 0, 65, 64
2, 75296, Note_on_c, 0, 65, 100
2, 75424, Note_off_c, 0, 65, 64
2, 75424, Note_off_c, 0, 62, 64
2, 75424, Note_on_c, 0, 62, 100
2, 75552, Note_off_c, 0, 62, 64
2, 75552, Note_off_c, 0, 58, 64
2, 75552, Note_on_c, 0, 58, 100
2, 75680, Note_off_c, 0, 58, 64
2, 75680, Note_off_c, 0, 60, 64
2, 75680, Note_on_c, 0, 60, 100
2, 75808, Note_off_c, 0, 60, 64
2, 75808, Note_off_c, 0, 62, 64
2, 75808, Note_on_c, 0, 62, 100
2, 75808, Note_off_c, 0, 58, 64
2, 75808, Note_on_c, 0, 58, 100
2, 75936, Note_off_c, 0, 62, 64
2, 75936, Note_off_c, 0, 63, 64
2, 75936, Note_on_c, 0, 63, 100
2, 76064, Note_off_c, 0, 63, 64
2, 76064, Note_off_c, 0, 62, 64
2, 76064, Note_on_c, 0, 62, 100
2, 76064, Note_off_c, 0, 58, 64
2, 76064, Note_off_c, 0, 55, 64
2, 76064, Note_on_c, 0, 55, 100
2, 76192, Note_off_c, 0, 62, 64
2, 76192, Note_on_c, 0, 63, 100
2, 76192, Note_off_c, 0, 63, 64
2, 76192, Note_on_c, 0, 63, 100
2, 76192, Note_off_c, 0, 57, 64
2, 76192, Note_on_c, 0, 57, 100
2, 76192, Note_off_c, 0, 55, 64
2, 76192, Note_off_c, 0, 48, 64
2, 76192, Note_on_c, 0, 48, 100
2, 76320, Note_on_c, 0, 64, 100
2, 76320, Note_off_c, 0, 66, 64
2, 76320, Note_on_c, 0, 66, 100
2, 76320, Note_off_c, 0, 57, 64
2, 76320, Note_off_c, 0, 55, 64
2, 76320, Note_on_c, 0, 55, 100
2, 76320, Note_off_c, 0, 48, 64
2, 76320, Note_off_c, 0, 46, 64
2, 76320, Note_on_c, 0, 46, 100
2, 76448, Note_off_c, 0, 55, 64
2, 76448, Note_off_c, 0, 54, 64
2, 76448, Note_on_c, 0, 54, 100
2, 76448, Note_off_c, 0, 46, 64
2, 76448, Note_off_c, 0, 45, 64
2, 76448, Note_on_c, 0, 45, 100
2, 76576, Note_off_c, 0, 66, 64
2, 76576, Note_on_c, 0, 79, 100
2, 76576, Note_on_c, 0, 81, 100
2, 76576, Note_off_c, 0, 54, 64
2, 76576, Note_off_c, 0, 45, 64
2, 76576, Note_off_c, 0, 46, 64
2, 76576, Note_on_c, 0, 46, 100
2, 76704, Note_on_c, 0, 48, 100
2, 76704, Note_off_c, 0, 50, 64
2, 76704, Note_on_c, 0, 50, 100
2, 76832, Note_off_c, 0, 79, 64
2, 76832, Note_off_c, 0, 81, 64
2, 76832, Note_on_c, 0, 81, 100
2, 76832, Note_off_c, 0, 50, 64
2, 76832, Note_on_c, 0, 50, 100
2, 76832, Note_off_c, 0, 50, 64
2, 76960, Note_on_c, 0, 50, 100
2, 76960, Note_off_c, 0, 48, 64
2, 76960, Note_on_c, 0, 48, 100
2, 77088, Note_off_c, 0, 81, 64
2, 77088, Note_off_c, 0, 78, 64
2, 77088, Note_on_c, 0, 78, 100
2, 77088, Note_off_c, 0, 48, 64
2, 77088, Note_off_c, 0, 50, 64
2, 77088, Note_on_c, 0, 50, 100
2, 77216, Note_off_c, 0, 78, 64
2, 77216, Note_off_c, 0, 67, 64
2, 77216, Note_on_c, 0, 67, 100
2, 77344, Note_off_c, 0, 67, 64
2, 77344, Note_off_c, 0, 69, 64
2, 77344, Note_on_c, 0, 69, 100
2, 77344, Note_off_c, 0, 50, 64
2, 77344, Note_off_c, 0, 51, 64
2, 77344, Note_on_c, 0, 51, 100
2, 77472, Note_off_c, 0, 69, 64
2, 77472, Note_off_c, 0, 67, 64
2, 77472, Note_on_c, 0, 67, 100
2, 77600, Note_off_c, 0, 67, 64
2, 77600, Note_off_c, 0, 72, 64
2, 77600, Note_on_c, 0, 72, 100
2, 77600, Note_off_c, 0, 51, 64
2, 77600, Note_off_c, 0, 50, 64
2, 77600, Note_on_c, 0, 50, 100
2, 77728, Note_off_c, 0, 72, 64
2, 77728, Note_off_c, 0, 81, 64
2, 77728, Note_on_c, 0, 81, 100
2, 77856, Note_off_c, 0, 81, 64
2, 77856, Note_off_c, 0, 72, 64
2, 77856, Note_on_c, 0, 72, 100
2, 77856, Note_off_c, 0, 50, 64
2, 77856, Note_off_c, 0, 51, 64
2, 77856, Note_on_c, 0, 51, 100
2, 77984, Note_off_c, 0, 70, 64
2, 77984, Note_off_c, 0, 72, 64
2, 77984, Note_off_c, 0, 51, 64
2, 77984, Note_off_c, 0, 50, 64
2, 77984, Note_on_c, 0, 50, 100
2, 78112, Note_on_c, 0, 78, 100
2, 78112, Note_off_c, 0, 79, 64
2, 78112, Note_on_c, 0, 79, 100
2, 78112, Note_off_c, 0, 50, 64
2, 78112, Note_off_c, 0, 51, 64
2, 78112, Note_on_c, 0, 51, 100
2, 78112, Note_off_c, 0, 70, 64
2, 78112, Note_on_c, 0, 70, 100
2, 78240, Note_off_c, 0, 70, 64
2, 78240, Note_off_c, 0, 69, 64
2, 78240, Note_on_c, 0, 69, 100
2, 78240, Note_off_c, 0, 51, 64
2, 78240, Note_off_c, 0, 53, 64
2, 78240, Note_on_c, 0, 53, 100
2, 78368, Note_off_c, 0, 69, 64
2, 78368, Note_off_c, 0, 67, 64
2, 78368, Note_on_c, 0, 67, 100
2, 78368, Note_off_c, 0, 70, 64
2, 78368, Note_on_c, 0, 70, 100
2, 78368, Note_off_c, 0, 53, 64
2, 78368, Note_off_c, 0, 58, 64
2, 78368, Note_on_c, 0, 58, 100
2, 78368, Note_off_c, 0, 46, 64
2, 78368, Note_on_c, 0, 46, 100
2, 78496, Note_off_c, 0, 67, 64
2, 78496, Note_off_c, 0, 70, 64
2, 78496, Note_off_c, 0, 69, 64
2, 78496, Note_on_c, 0, 69, 100
2, 78496, Note_off_c, 0, 74, 64
2, 78496, Note_on_c, 0, 74, 100
2, 78624, Note_off_c, 0, 74, 64
2, 78624, Note_off_c, 0, 72, 64
2, 78624, Note_on_c, 0, 72, 100
2, 78624, Note_off_c, 0, 69, 64
2, 78624, Note_off_c, 0, 67, 64
2, 78624, Note_on_c, 0, 67, 100
2, 78624, Note_off_c, 0, 58, 64
2, 78624, Note_on_c, 0, 58, 100
2, 78624, Note_on_c, 0, 50, 100
2, 78624, Note_off_c, 0, 51, 64
2, 78624, Note_on_c, 0, 51, 100
2, 78752, Note_off_c, 0, 63, 64
2, 78752, Note_on_c, 0, 63, 100
2, 78752, Note_off_c, 0, 62, 64
2, 78752, Note_on_c, 0, 62, 100
2, 78880, Note_off_c, 0, 62, 64
2, 78880, Note_off_c, 0, 60, 64
2, 78880, Note_on_c, 0, 60, 100
2, 79008, Note_off_c, 0, 60, 64
2, 79008, Note_off_c, 0, 58, 64
2, 79008, Note_on_c, 0, 58, 100
2, 79136, Note_off_c, 0, 72, 64
2, 79136, Note_off_c, 0, 69, 64
2, 79136, Note_on_c, 0, 69, 100
2, 79136, Note_off_c, 0, 58, 64
2, 79136, Note_off_c, 0, 57, 64
2, 79136, Note_on_c, 0, 57, 100
2, 79136, Note_off_c, 0, 51, 64
2, 79136, Note_off_c, 0, 53, 64
2, 79136, Note_on_c, 0, 53, 100
2, 79136, Note_off_c, 0, 67, 64
2, 79136, Note_off_c, 0, 65, 64
2, 79136, Note_on_c, 0, 65, 100
2, 79264, Note_off_c, 0, 57, 64
2, 79264, Note_off_c, 0, 53, 64
2, 79264, Note_on_c, 0, 53, 100
2, 79392, Note_off_c, 0, 53, 64
2, 79392, Note_off_c, 0, 57, 64
2, 79392, Note_on_c, 0, 57, 100
2, 79392, Note_off_c, 0, 69, 64
2, 79392, Note_on_c, 0, 69, 100
2, 79392, Note_off_c, 0, 77, 64
2, 79392, Note_on_c, 0, 77, 100
2, 79392, Note_off_c, 0, 67, 64
2, 79392, Note_on_c, 0, 67, 100
2, 79520, Note_off_c, 0, 57, 64
2, 79520, Note_off_c, 0, 46, 64
2, 79520, Note_on_c, 0, 46, 100
2, 79648, Note_off_c, 0, 46, 64
2, 79648, Note_on_c, 0, 51, 100
2, 79648, Note_off_c, 0, 67, 64
2, 79648, Note_on_c, 0, 75, 100
2, 79648, Note_off_c, 0, 77, 64
2, 79648, Note_on_c, 0, 67, 100
2, 79648, Note_off_c, 0, 50, 64
2, 79648, Note_on_c, 0, 50, 100
2, 79776, Note_off_c, 0, 51, 64
2, 79776, Note_off_c, 0, 50, 64
2, 79776, Note_on_c, 0, 50, 100
2, 79776, Note_on_c, 0, 66, 100
2, 79776, Note_off_c, 0, 65, 64
2, 79904, Note_off_c, 0, 50, 64
2, 79904, Note_on_c, 0, 51, 100
2, 79904, Note_on_c, 0, 70, 100
2, 79904, Note_on_c, 0, 65, 100
2, 79904, Note_off_c, 0, 67, 64
2, 79904, Note_on_c, 0, 67, 100
2, 79904, Note_off_c, 0, 62, 64
2, 79904, Note_on_c, 0, 62, 100
2, 79904, Note_off_c, 0, 74, 64
2, 79904, Note_on_c, 0, 74, 100
2, 79904, Note_on_c, 0, 48, 100
2, 80032, Note_off_c, 0, 74, 64
2, 80032, Note_off_c, 0, 55, 64
2, 80032, Note_on_c, 0, 55, 100
2, 80032, Note_off_c, 0, 75, 64
2, 80032, Note_on_c, 0, 75, 100
2, 80032, Note_off_c, 0, 72, 64
2, 80032, Note_on_c, 0, 72, 100
2, 80032, Note_off_c, 0, 57, 64
2, 80032, Note_on_c, 0, 57, 100
2, 80160, Note_off_c, 0, 67, 64
2, 80160, Note_off_c, 0, 75, 64
2, 80160, Note_off_c, 0, 72, 64
2, 80160, Note_off_c, 0, 69, 64
2, 80160, Note_on_c, 0, 69, 100
2, 80160, Note_off_c, 0, 62, 64
2, 80160, Note_on_c, 0, 62, 100
2, 80160, Note_off_c, 0, 66, 64
2, 80160, Note_on_c, 0, 66, 100
2, 80160, Note_off_c, 0, 57, 64
2, 80160, Note_on_c, 0, 57, 100
2, 80288, Note_off_c, 0, 57, 64
2, 80288, Note_off_c, 0, 55, 64
2, 80288, Note_on_c, 0, 55, 100
2, 80352, Note_off_c, 0, 62, 64
2, 80416, Note_off_c, 0, 66, 64
2, 80416, Note_off_c, 0, 69, 64
2, 80416, Note_off_c, 0, 65, 64
2, 80416, Note_on_c, 0, 65, 100
2, 80416, Note_off_c, 0, 60, 64
2, 80416, Note_on_c, 0, 60, 100
2, 80544, Note_off_c, 0, 55, 64
2, 80672, Note_on_c, 0, 72, 100
2, 80672, Note_off_c, 0, 74, 64
2, 80672, Note_on_c, 0, 74, 100
2, 80672, Note_off_c, 0, 60, 64
2, 80672, Note_on_c, 0, 58, 100
2, 80672, Note_off_c, 0, 58, 64
2, 80672, Note_on_c, 0, 58, 100
2, 80800, Note_off_c, 0, 58, 64
2, 80800, Note_off_c, 0, 57, 64
2, 80800, Note_on_c, 0, 57, 100
2, 80928, Note_off_c, 0, 57, 64
2, 80928, Note_off_c, 0, 60, 64
2, 80928, Note_on_c, 0, 60, 100
2, 80928, Note_off_c, 0, 53, 64
2, 80928, Note_on_c, 0, 53, 100
2, 80992, Note_off_c, 0, 74, 64
2, 80992, Note_on_c, 0, 75, 100
2, 80992, Note_off_c, 0, 70, 64
2, 80992, Note_on_c, 0, 70, 100
2, 81120, Note_off_c, 0, 75, 64
2, 81120, Note_off_c, 0, 70, 64
2, 81120, Note_off_c, 0, 60, 64
2, 81120, Note_off_c, 0, 63, 64
2, 81120, Note_off_c, 0, 65, 64
2, 81120, Note_off_c, 0, 72, 64
2, 81120, Note_on_c, 0, 70, 100
2, 81120, Note_off_c, 0, 70, 64
2, 81120, Note_off_c, 0, 53, 64
2, 81120, Note_off_c, 0, 55, 64
2, 81120, Note_on_c, 0, 55, 100
2, 81120, Note_off_c, 0, 58, 64
2, 81120, Note_on_c, 0, 58, 100
2, 81120, Note_on_c, 0, 63, 100
2, 81248, Note_off_c, 0, 55, 64
2, 81248, Note_off_c, 0, 53, 64
2, 81248, Note_on_c, 0, 53, 100
2, 81376, Note_off_c, 0, 53, 64
2, 81376, Note_off_c, 0, 51, 64
2, 81376, Note_on_c, 0, 51, 100
2, 81376, Note_off_c, 0, 79, 64
2, 81376, Note_on_c, 0, 79, 100
2, 81376, Note_on_c, 0, 77, 100
2, 81376, Note_on_c, 0, 70, 100
2, 81376, Note_off_c, 0, 67, 64
2, 81376, Note_on_c, 0, 67, 100
2, 81568, Note_off_c, 0, 67, 64
2, 81568, Note_off_c, 0, 70, 64
2, 81568, Note_on_c, 0, 70, 100
2, 81696, Note_off_c, 0, 70, 64
2, 81696, Note_off_c, 0, 68, 64
2, 81696, Note_on_c, 0, 68, 100
2, 81824, Note_off_c, 0, 63, 64
2, 81824, Note_off_c, 0, 62, 64
2, 81824, Note_on_c, 0, 62, 100
2, 81824, Note_off_c, 0, 68, 64
2, 81888, Note_off_c, 0, 79, 64
2, 81952, Note_off_c, 0, 77, 64
2, 81952, Note_on_c, 0, 77, 100
2, 81952, Note_off_c, 0, 62, 64
2, 81952, Note_on_c, 0, 79, 100
2, 81952, Note_off_c, 0, 68, 64
2, 81952, Note_off_c, 0, 63, 64
2, 81952, Note_on_c, 0, 63, 100
2, 81952, Note_off_c, 0, 51, 64
2, 81952, Note_on_c, 0, 51, 100
2, 81952, Note_off_c, 0, 60, 64
2, 81952, Note_on_c, 0, 60, 100
2, 81952, Note_on_c, 0, 62, 100
2, 81952, Note_on_c, 0, 65, 100
2, 81952, Note_on_c, 0, 68, 100
2, 81952, Note_on_c, 0, 70, 100
2, 81952, Note_off_c, 0, 77, 64
2, 82080, Note_off_c, 0, 62, 64
2, 82080, Note_off_c, 0, 50, 64
2, 82080, Note_on_c, 0, 50, 100
2, 82080, Note_on_c, 0, 77, 100
2, 82080, Note_off_c, 0, 80, 64
2, 82080, Note_on_c, 0, 80, 100
2, 82080, Note_off_c, 0, 77, 64
2, 82080, Note_on_c, 0, 77, 100
2, 82208, Note_off_c, 0, 80, 64
2, 82208, Note_on_c, 0, 80, 100
2, 82208, Note_off_c, 0, 79, 64
2, 82208, Note_off_c, 0, 60, 64
2, 82208, Note_off_c, 0, 61, 64
2, 82208, Note_on_c, 0, 61, 100
2, 82208, Note_off_c, 0, 80, 64
2, 82208, Note_on_c, 0, 80, 100
2, 82400, Note_off_c, 0, 50, 64
2, 82400, Note_off_c, 0, 80, 64
2, 82400, Note_on_c, 0, 80, 100
2, 82400, Note_off_c, 0, 80, 64
2, 82400, Note_off_c, 0, 46, 64
2, 82400, Note_on_c, 0, 46, 100
2, 82400, Note_off_c, 0, 58, 64
2, 82400, Note_off_c, 0, 61, 64
2, 82400, Note_off_c, 0, 65, 64
2, 82400, Note_on_c, 0, 65, 100
2, 82464, Note_off_c, 0, 75, 64
2, 82464, Note_on_c, 0, 75, 100
2, 82528, Note_off_c, 0, 75, 64
2, 82528, Note_off_c, 0, 68, 64
2, 82528, Note_off_c, 0, 63, 64
2, 82528, Note_off_c, 0, 46, 64
2, 82528, Note_off_c, 0, 61, 64
2, 82528, Note_on_c, 0, 61, 100
2, 82528, Note_on_c, 0, 79, 100
2, 82528, Note_off_c, 0, 77, 64
2, 82528, Note_on_c, 0, 77, 100
2, 82528, Note_on_c, 0, 75, 100
2, 82528, Note_off_c, 0, 75, 64
2, 82720, Note_on_c, 0, 58, 100
2, 82720, Note_off_c, 0, 56, 64
2, 82720, Note_on_c, 0, 56, 100
2, 82720, Note_off_c, 0, 77, 64
2, 82720, Note_on_c, 0, 73, 100
2, 82720, Note_off_c, 0, 73, 64
2, 82720, Note_on_c, 0, 73, 100
2, 82720, Note_off_c, 0, 70, 64
2, 82720, Note_on_c, 0, 70, 100
2, 82848, Note_on_c, 0, 75, 100
2, 82848, Note_off_c, 0, 73, 64
2, 82848, Note_on_c, 0, 72, 100
2, 82912, Note_off_c, 0, 56, 64
2, 82912, Note_on_c, 0, 56, 100
2, 82912, Note_on_c, 0, 73, 100
2, 82912, Note_off_c, 0, 54, 64
2, 82912, Note_on_c, 0, 54, 100
2, 82912, Note_on_c, 0, 77, 100
2, 82912, Note_off_c, 0, 75, 64
2, 82912, Note_on_c, 0, 75, 100
2, 82976, Note_off_c, 0, 58, 64
2, 82976, Note_on_c, 0, 58, 100
2, 82976, Note_off_c, 0, 61, 64
2, 83104, Note_off_c, 0, 58, 64
2, 83104, Note_on_c, 0, 68, 100
2, 83104, Note_off_c, 0, 56, 64
2, 83168, Note_off_c, 0, 70, 64
2, 83168, Note_off_c, 0, 68, 64
2, 83168, Note_off_c, 0, 60, 64
2, 83168, Note_on_c, 0, 60, 100
2, 83168, Note_on_c, 0, 68, 100
2, 83168, Note_off_c, 0, 68, 64
2, 83168, Note_on_c, 0, 53, 100
2, 83168, Note_off_c, 0, 53, 64
2, 83168, Note_on_c, 0, 53, 100
2, 83168, Note_on_c, 0, 68, 100
2, 83168, Note_off_c, 0, 65, 64
2, 83168, Note_on_c, 0, 65, 100
2, 83424, Note_off_c, 0, 65, 64
2, 83424, Note_on_c, 0, 61, 100
2, 83424, Note_off_c, 0, 60, 64
2, 83424, Note_off_c, 0, 68, 64
2, 83424, Note_off_c, 0, 75, 64
2, 83424, Note_off_c, 0, 77, 64
2, 83424, Note_off_c, 0, 53, 64
2, 83424, Note_off_c, 0, 56, 64
2, 83424, Note_on_c, 0, 60, 100
2, 83424, Note_on_c, 0, 65, 100
2, 83424, Note_off_c, 0, 65, 64
2, 83424, Note_on_c, 0, 56, 100
2, 83552, Note_on_c, 0, 68, 100
2, 83552, Note_off_c, 0, 68, 64
2, 83552, Note_on_c, 0, 68, 100
2, 83552, Note_off_c, 0, 68, 64
2, 83552, Note_off_c, 0, 56, 64
2, 83616, Note_on_c, 0, 77, 100
2, 83616, Note_on_c, 0, 75, 100
2, 83680, Note_on_c, 0, 68, 100
2, 83680, Note_off_c, 0, 61, 64
2, 83680, Note_on_c, 0, 61, 100
2, 83680, Note_off_c, 0, 56, 64
2, 83680, Note_on_c, 0, 56, 100
2, 83680, Note_off_c, 0, 65, 64
2, 83680, Note_on_c, 0, 65, 100
2, 83680, Note_on_c, 0, 70, 100
2, 83936, Note_off_c, 0, 65, 64
2, 83936, Note_off_c, 0, 67, 64
2, 83936, Note_on_c, 0, 67, 100
2, 83936, Note_off_c, 0, 56, 64
2, 83936, Note_off_c, 0, 46, 64
2, 83936, Note_on_c, 0, 46, 100
2, 83936, Note_off_c, 0, 58, 64
2, 83936, Note_on_c, 0, 58, 100
2, 84064, Note_off_c, 0, 46, 64
2, 84064, Note_on_c, 0, 46, 100
2, 84064, Note_off_c, 0, 46, 64
2, 84064, Note_on_c, 0, 46, 100
2, 84064, Note_off_c, 0, 73, 64
2, 84064, Note_on_c, 0, 73, 100
2, 84128, Note_off_c, 0, 73, 64
2, 84192, Note_off_c, 0, 67, 64
2, 84192, Note_off_c, 0, 47, 64
2, 84192, Note_off_c, 0, 77, 64
2, 84192, Note_off_c, 0, 46, 64
2, 84192, Note_on_c, 0, 46, 100
2, 84192, Note_off_c, 0, 75, 64
2, 84192, Note_on_c, 0, 75, 100
2, 84320, Note_off_c, 0, 70, 64
2, 84448, Note_off_c, 0, 60, 64
2, 84448, Note_on_c, 0, 60, 100
2, 84448, Note_off_c, 0, 48, 64
2, 84448, Note_off_c, 0, 36, 64
2, 84448, Note_off_c, 0, 67, 64
2, 84448, Note_on_c, 0, 67, 100
2, 84448, Note_off_c, 0, 75, 64
2, 84576, Note_off_c, 0, 67, 64
2, 84704, Note_on_c, 0, 36, 100
2, 84704, Note_on_c, 0, 48, 100
2, 84704, Note_off_c, 0, 82, 64
2, 84704, Note_on_c, 0, 82, 100
2, 84704, Note_on_c, 0, 66, 100
2, 84704, Note_on_c, 0, 70, 100
2, 84704, Note_off_c, 0, 63, 64
2, 84704, Note_on_c, 0, 63, 100
2, 84704, Note_off_c, 0, 72, 64
2, 84704, Note_on_c, 0, 72, 100
2, 84960, Note_off_c, 0, 63, 64
2, 84960, Note_off_c, 0, 48, 64
2, 84960, Note_off_c, 0, 66, 64
2, 84960, Note_off_c, 0, 72, 64
2, 84960, Note_on_c, 0, 50, 100
2, 84960, Note_off_c, 0, 82, 64
2, 84960, Note_on_c, 0, 82, 100
2, 84960, Note_on_c, 0, 66, 100
2, 84960, Note_off_c, 0, 66, 64
2, 84960, Note_off_c, 0, 51, 64
2, 84960, Note_on_c, 0, 51, 100
2, 84960, Note_off_c, 0, 61, 64
2, 84960, Note_on_c, 0, 61, 100
2, 85088, Note_off_c, 0, 82, 64
2, 85088, Note_off_c, 0, 78, 64
2, 85216, Note_off_c, 0, 70, 64
2, 85216, Note_off_c, 0, 66, 64
2, 85216, Note_off_c, 0, 61, 64
2, 85216, Note_on_c, 0, 80, 100
2, 85216, Note_on_c, 0, 78, 100
2, 85216, Note_on_c, 0, 66, 100
2, 85216, Note_on_c, 0, 61, 100
2, 85216, Note_off_c, 0, 73, 64
2, 85216, Note_on_c, 0, 73, 100
2, 85216, Note_off_c, 0, 56, 64
2, 85216, Note_on_c, 0, 56, 100
2, 85280, Note_off_c, 0, 66, 64
2, 85344, Note_off_c, 0, 66, 64
2, 85344, Note_on_c, 0, 66, 100
2, 85344, Note_off_c, 0, 73, 64
2, 85472, Note_off_c, 0, 54, 64
2, 85472, Note_off_c, 0, 51, 64
2, 85472, Note_off_c, 0, 78, 64
2, 85472, Note_off_c, 0, 66, 64
2, 85472, Note_on_c, 0, 66, 100
2, 85472, Note_off_c, 0, 63, 64
2, 85472, Note_on_c, 0, 63, 100
2, 85472, Note_off_c, 0, 61, 64
2, 85472, Note_on_c, 0, 73, 100
2, 85472, Note_off_c, 0, 58, 64
2, 85472, Note_off_c, 0, 56, 64
2, 85472, Note_on_c, 0, 61, 100
2, 85472, Note_on_c, 0, 51, 100
2, 85600, Note_off_c, 0, 73, 64
2, 85600, Note_off_c, 0, 66, 64
2, 85600, Note_off_c, 0, 63, 64
2, 85600, Note_on_c, 0, 63, 100
2, 85600, Note_off_c, 0, 68, 64
2, 85600, Note_on_c, 0, 68, 100
2, 85600, Note_on_c, 0, 66, 100
2, 85600, Note_off_c, 0, 66, 64
2, 85600, Note_on_c, 0, 54, 100
2, 85600, Note_off_c, 0, 51, 64
2, 85728, Note_off_c, 0, 68, 64
2, 85728, Note_on_c, 0, 51, 100
2, 85728, Note_on_c, 0, 59, 100
2, 85728, Note_on_c, 0, 66, 100
2, 85728, Note_off_c, 0, 64, 64
2, 85728, Note_off_c, 0, 61, 64
2, 85728, Note_off_c, 0, 49, 64
2, 85728, Note_on_c, 0, 49, 100
2, 85728, Note_on_c, 0, 61, 100
2, 85728, Note_off_c, 0, 61, 64
2, 85856, Note_off_c, 0, 66, 64
2, 85856, Note_on_c, 0, 66, 100
2, 85856, Note_off_c, 0, 66, 64
2, 85856, Note_off_c, 0, 61, 64
2, 85856, Note_on_c, 0, 61, 100
2, 85984, Note_off_c, 0, 49, 64
2, 85984, Note_off_c, 0, 61, 64
2, 85984, Note_on_c, 0, 64, 100
2, 85984, Note_off_c, 0, 47, 64
2, 85984, Note_on_c, 0, 47, 100
2, 85984, Note_on_c, 0, 71, 100
2, 85984, Note_off_c, 0, 59, 64
2, 85984, Note_on_c, 0, 59, 100
2, 86112, Note_off_c, 0, 71, 64
2, 86112, Note_off_c, 0, 66, 64
2, 86112, Note_on_c, 0, 66, 100
2, 86240, Note_off_c, 0, 47, 64
2, 86240, Note_off_c, 0, 66, 64
2, 86240, Note_on_c, 0, 66, 100
2, 86240, Note_off_c, 0, 66, 64
2, 86240, Note_off_c, 0, 59, 64
2, 86240, Note_off_c, 0, 62, 64
2, 86240, Note_on_c, 0, 62, 100
2, 86240, Note_off_c, 0, 50, 64
2, 86240, Note_on_c, 0, 50, 100
2, 86240, Note_off_c, 0, 71, 64
2, 86240, Note_on_c, 0, 71, 100
2, 86240, Note_on_c, 0, 73, 100
2, 86240, Note_on_c, 0, 69, 100
2, 86304, Note_off_c, 0, 73, 64
2, 86304, Note_off_c, 0, 76, 64
2, 86304, Note_on_c, 0, 76, 100
2, 86368, Note_off_c, 0, 71, 64
2, 86368, Note_off_c, 0, 69, 64
2, 86368, Note_on_c, 0, 69, 100
2, 86432, Note_on_c, 0, 66, 100
2, 86496, Note_off_c, 0, 68, 64
2, 86496, Note_on_c, 0, 68, 100
2, 86496, Note_off_c, 0, 62, 64
2, 86496, Note_off_c, 0, 64, 64
2, 86496, Note_on_c, 0, 64, 100
2, 86496, Note_off_c, 0, 76, 64
2, 86496, Note_off_c, 0, 78, 64
2, 86496, Note_on_c, 0, 78, 100
2, 86496, Note_off_c, 0, 74, 64
2, 86496, Note_on_c, 0, 74, 100
2, 86496, Note_on_c, 0, 61, 100
2, 86624, Note_off_c, 0, 78, 64
2, 86624, Note_on_c, 0, 78, 100
2, 86688, Note_off_c, 0, 50, 64
2, 86688, Note_off_c, 0, 71, 64
2, 86688, Note_on_c, 0, 71, 100
2, 86752, Note_off_c, 0, 74, 64
2, 86752, Note_off_c, 0, 78, 64
2, 86752, Note_off_c, 0, 64, 64
2, 86752, Note_on_c, 0, 74, 100
2, 86752, Note_off_c, 0, 66, 64
2, 86752, Note_on_c, 0, 66, 100
2, 86752, Note_on_c, 0, 78, 100
2, 86752, Note_on_c, 0, 73, 100
2, 86752, Note_off_c, 0, 73, 64
2, 86752, Note_on_c, 0, 70, 100
2, 86752, Note_on_c, 0, 73, 100
2, 86752, Note_off_c, 0, 76, 64
2, 86752, Note_on_c, 0, 76, 100
2, 86880, Note_off_c, 0, 78, 64
2, 86880, Note_on_c, 0, 78, 100
2, 86880, Note_off_c, 0, 66, 64
2, 86880, Note_off_c, 0, 73, 64
2, 86880, Note_on_c, 0, 73, 100
2, 87008, Note_off_c, 0, 73, 64
2, 87008, Note_on_c, 0, 66, 100
2, 87008, Note_off_c, 0, 74, 64
2, 87008, Note_off_c, 0, 59, 64
2, 87008, Note_on_c, 0, 59, 100
2, 87008, Note_off_c, 0, 78, 64
2, 87008, Note_on_c, 0, 78, 100
2, 87008, Note_on_c, 0, 74, 100
2, 87008, Note_off_c, 0, 74, 64
2, 87008, Note_off_c, 0, 71, 64
2, 87008, Note_on_c, 0, 71, 100
2, 87008, Note_off_c, 0, 69, 64
2, 87008, Note_on_c, 0, 69, 100
2, 87136, Note_on_c, 0, 74, 100
2, 87136, Note_off_c, 0, 71, 64
2, 87136, Note_off_c, 0, 73, 64
2, 87136, Note_on_c, 0, 73, 100
2, 87200, Note_on_c, 0, 71, 100
2, 87264, Note_off_c, 0, 66, 64
2, 87264, Note_off_c, 0, 61, 64
2, 87264, Note_off_c, 0, 78, 64
2, 87264, Note_on_c, 0, 78, 100
2, 87264, Note_off_c, 0, 73, 64
2, 87264, Note_off_c, 0, 74, 64
2, 87264, Note_on_c, 0, 74, 100
2, 87264, Note_off_c, 0, 71, 64
2, 87264, Note_on_c, 0, 71, 100
2, 87328, Note_off_c, 0, 74, 64
2, 87328, Note_off_c, 0, 73, 64
2, 87328, Note_on_c, 0, 73, 100
2, 87392, Note_off_c, 0, 71, 64
2, 87392, Note_off_c, 0, 78, 64
2, 87392, Note_on_c, 0, 78, 100
2, 87392, Note_on_c, 0, 66, 100
2, 87392, Note_off_c, 0, 62, 64
2, 87392, Note_on_c, 0, 62, 100
2, 87456, Note_off_c, 0, 73, 64
2, 87520, Note_off_c, 0, 78, 64
2, 87520, Note_off_c, 0, 74, 64
2, 87520, Note_on_c, 0, 74, 100
2, 87520, Note_off_c, 0, 66, 64
2, 87520, Note_on_c, 0, 66, 100
2, 87520, Note_off_c, 0, 71, 64
2, 87520, Note_on_c, 0, 71, 100
2, 87520, Note_off_c, 0, 62, 64
2, 87520, Note_on_c, 0, 62, 100
2, 87648, Note_off_c, 0, 78, 64
2, 87648, Note_on_c, 0, 78, 100
2, 87712, Note_off_c, 0, 74, 64
2, 87712, Note_off_c, 0, 62, 64
2, 87776, Note_off_c, 0, 71, 64
2, 87776, Note_off_c, 0, 66, 64
2, 87776, Note_off_c, 0, 64, 64
2, 87776, Note_on_c, 0, 64, 100
2, 87776, Note_off_c, 0, 61, 64
2, 87776, Note_on_c, 0, 61, 100
2, 87776, Note_off_c, 0, 56, 64
2, 87776, Note_on_c, 0, 56, 100
2, 87776, Note_off_c, 0, 76, 64
2, 87776, Note_off_c, 0, 80, 64
2, 87776, Note_on_c, 0, 80, 100
2, 87904, Note_off_c, 0, 80, 64
2, 87904, Note_off_c, 0, 81, 64
2, 87904, Note_on_c, 0, 81, 100
2, 87968, Note_off_c, 0, 64, 64
2, 87968, Note_off_c, 0, 61, 64
2, 88032, Note_off_c, 0, 56, 64
2, 88032, Note_off_c, 0, 81, 64
2, 88032, Note_on_c, 0, 81, 100
2, 88032, Note_on_c, 0, 76, 100
2, 88032, Note_off_c, 0, 72, 64
2, 88032, Note_on_c, 0, 72, 100
2, 88032, Note_off_c, 0, 66, 64
2, 88032, Note_on_c, 0, 66, 100
2, 88032, Note_off_c, 0, 57, 64
2, 88032, Note_on_c, 0, 57, 100
2, 88032, Note_off_c, 0, 69, 64
2, 88160, Note_off_c, 0, 57, 64
2, 88160, Note_off_c, 0, 56, 64
2, 88160, Note_on_c, 0, 56, 100
2, 88160, Note_off_c, 0, 69, 64
2, 88160, Note_on_c, 0, 69, 100
2, 88224, Note_off_c, 0, 66, 64
2, 88288, Note_off_c, 0, 56, 64
2, 88288, Note_on_c, 0, 56, 100
2, 88288, Note_off_c, 0, 76, 64
2, 88288, Note_on_c, 0, 83, 100
2, 88288, Note_off_c, 0, 59, 64
2, 88288, Note_on_c, 0, 59, 100
2, 88288, Note_off_c, 0, 56, 64
2, 88288, Note_off_c, 0, 73, 64
2, 88288, Note_on_c, 0, 73, 100
2, 88288, Note_on_c, 0, 76, 100
2, 88416, Note_off_c, 0, 72, 64
2, 88416, Note_on_c, 0, 56, 100
2, 88416, Note_off_c, 0, 76, 64
2, 88416, Note_off_c, 0, 59, 64
2, 88416, Note_on_c, 0, 59, 100
2, 88480, Note_off_c, 0, 69, 64
2, 88480, Note_off_c, 0, 73, 64
2, 88480, Note_off_c, 0, 68, 64
2, 88480, Note_off_c, 0, 56, 64
2, 88544, Note_off_c, 0, 59, 64
2, 88544, Note_on_c, 0, 61, 100
2, 88544, Note_on_c, 0, 47, 100
2, 88544, Note_on_c, 0, 69, 100
2, 88544, Note_off_c, 0, 81, 64
2, 88544, Note_off_c, 0, 78, 64
2, 88672, Note_on_c, 0, 81, 100
2, 88672, Note_on_c, 0, 72, 100
2, 88672, Note_off_c, 0, 80, 64
2, 88672, Note_on_c, 0, 80, 100
2, 88672, Note_on_c, 0, 76, 100
2, 88736, Note_off_c, 0, 47, 64
2, 88736, Note_on_c, 0, 52, 100
2, 88800, Note_off_c, 0, 49, 64
2, 88800, Note_on_c, 0, 49, 100
2, 88800, Note_on_c, 0, 78, 100
2, 88800, Note_off_c, 0, 76, 64
2, 88800, Note_on_c, 0, 59, 100
2, 88800, Note_off_c, 0, 80, 64
2, 88800, Note_on_c, 0, 80, 100
2, 88800, Note_on_c, 0, 73, 100
2, 88800, Note_off_c, 0, 69, 64
2, 88800, Note_on_c, 0, 69, 100
2, 88864, Note_off_c, 0, 59, 64
2, 88928, Note_off_c, 0, 80, 64
2, 88928, Note_off_c, 0, 76, 64
2, 88928, Note_on_c, 0, 76, 100
2, 88928, Note_off_c, 0, 73, 64
2, 88928, Note_on_c, 0, 73, 100
2, 88928, Note_off_c, 0, 75, 64
2, 88928, Note_on_c, 0, 75, 100
2, 88992, Note_off_c, 0, 73, 64
2, 89056, Note_off_c, 0, 75, 64
2, 89056, Note_on_c, 0, 59, 100
2, 89056, Note_off_c, 0, 69, 64
2, 89056, Note_off_c, 0, 71, 64
2, 89056, Note_on_c, 0, 71, 100
2, 89056, Note_off_c, 0, 52, 64
2, 89120, Note_off_c, 0, 59, 64
2, 89120, Note_on_c, 0, 59, 100
2, 89184, Note_off_c, 0, 59, 64
2, 89184, Note_off_c, 0, 71, 64
2, 89184, Note_on_c, 0, 71, 100
2, 89184, Note_off_c, 0, 68, 64
2, 89184, Note_on_c, 0, 68, 100
2, 89248, Note_on_c, 0, 52, 100
2, 89312, Note_off_c, 0, 68, 64
2, 89312, Note_off_c, 0, 71, 64
2, 89312, Note_off_c, 0, 76, 64
2, 89312, Note_on_c, 0, 76, 100
2, 89312, Note_off_c, 0, 73, 64
2, 89312, Note_on_c, 0, 73, 100
2, 89312, Note_off_c, 0, 40, 64
2, 89312, Note_on_c, 0, 40, 100
2, 89312, Note_on_c, 0, 68, 100
2, 89312, Note_off_c, 0, 68, 64
2, 89440, Note_off_c, 0, 73, 64
2, 89440, Note_off_c, 0, 68, 64
2, 89440, Note_on_c, 0, 68, 100
2, 89440, Note_off_c, 0, 76, 64
2, 89440, Note_on_c, 0, 76, 100
2, 89440, Note_off_c, 0, 40, 64
2, 89440, Note_off_c, 0, 70, 64
2, 89440, Note_on_c, 0, 70, 100
2, 89568, Note_off_c, 0, 76, 64
2, 89568, Note_on_c, 0, 40, 100
2, 89568, Note_off_c, 0, 73, 64
2, 89568, Note_on_c, 0, 73, 100
2, 89568, Note_off_c, 0, 68, 64
2, 89568, Note_off_c, 0, 69, 64
2, 89568, Note_on_c, 0, 69, 100
2, 89568, Note_off_c, 0, 64, 64
2, 89568, Note_on_c, 0, 64, 100
2, 89568, Note_off_c, 0, 40, 64
2, 89568, Note_on_c, 0, 40, 100
2, 89696, Note_off_c, 0, 40, 64
2, 89696, Note_off_c, 0, 44, 64
2, 89696, Note_on_c, 0, 44, 100
2, 89696, Note_off_c, 0, 73, 64
2, 89696, Note_off_c, 0, 64, 64
2, 89696, Note_off_c, 0, 63, 64
2, 89696, Note_on_c, 0, 63, 100
2, 89824, Note_off_c, 0, 44, 64
2, 89824, Note_on_c, 0, 68, 100
2, 89824, Note_off_c, 0, 69, 64
2, 89824, Note_off_c, 0, 51, 64
2, 89824, Note_on_c, 0, 51, 100
2, 89824, Note_off_c, 0, 63, 64
2, 89824, Note_on_c, 0, 63, 100
2, 89824, Note_off_c, 0, 51, 64
2, 89824, Note_off_c, 0, 54, 64
2, 89824, Note_on_c, 0, 54, 100
2, 89824, Note_on_c, 0, 69, 100
2, 89824, Note_off_c, 0, 69, 64
2, 89824, Note_off_c, 0, 63, 64
2, 89952, Note_off_c, 0, 54, 64
2, 89952, Note_on_c, 0, 54, 100
2, 89952, Note_on_c, 0, 42, 100
2, 89952, Note_off_c, 0, 42, 64
2, 89952, Note_on_c, 0, 42, 100
2, 89952, Note_off_c, 0, 42, 64
2, 89952, Note_off_c, 0, 75, 64
2, 89952, Note_on_c, 0, 75, 100
2, 89952, Note_on_c, 0, 69, 100
2, 90080, Note_off_c, 0, 54, 64
2, 90080, Note_on_c, 0, 42, 100
2, 90080, Note_off_c, 0, 75, 64
2, 90080, Note_on_c, 0, 75, 100
2, 90080, Note_off_c, 0, 75, 64
2, 90080, Note_off_c, 0, 70, 64
2, 90080, Note_off_c, 0, 71, 64
2, 90080, Note_on_c, 0, 71, 100
2, 90080, Note_off_c, 0, 44, 64
2, 90080, Note_on_c, 0, 44, 100
2, 90080, Note_on_c, 0, 51, 100
2, 90080, Note_off_c, 0, 51, 64
2, 90080, Note_on_c, 0, 51, 100
2, 90208, Note_off_c, 0, 51, 64
2, 90208, Note_on_c, 0, 40, 100
2, 90208, Note_off_c, 0, 56, 64
2, 90208, Note_on_c, 0, 56, 100
2, 90208, Note_off_c, 0, 71, 64
2, 90208, Note_off_c, 0, 78, 64
2, 90208, Note_on_c, 0, 78, 100
2, 90336, Note_off_c, 0, 56, 64
2, 90336, Note_off_c, 0, 64, 64
2, 90336, Note_on_c, 0, 64, 100
2, 90336, Note_off_c, 0, 78, 64
2, 90336, Note_on_c, 0, 78, 100
2, 90336, Note_on_c, 0, 57, 100
2, 90336, Note_off_c, 0, 57, 64
2, 90336, Note_off_c, 0, 51, 64
2, 90336, Note_on_c, 0, 51, 100
2, 90336, Note_off_c, 0, 72, 64
2, 90336, Note_on_c, 0, 72, 100
2, 90336, Note_on_c, 0, 57, 100
2, 90336, Note_off_c, 0, 57, 64
2, 90464, Note_on_c, 0, 57, 100
2, 90464, Note_off_c, 0, 72, 64
2, 90464, Note_on_c, 0, 54, 100
2, 90464, Note_off_c, 0, 71, 64
2, 90464, Note_on_c, 0, 71, 100
2, 90464, Note_off_c, 0, 78, 64
2, 90464, Note_off_c, 0, 51, 64
2, 90464, Note_off_c, 0, 63, 64
2, 90464, Note_on_c, 0, 63, 100
2, 90592, Note_on_c, 0, 51, 100
2, 90592, Note_off_c, 0, 71, 64
2, 90592, Note_off_c, 0, 54, 64
2, 90592, Note_off_c, 0, 69, 64
2, 90592, Note_on_c, 0, 69, 100
2, 90592, Note_off_c, 0, 63, 64
2, 90592, Note_on_c, 0, 63, 100
2, 90592, Note_on_c, 0, 54, 100
2, 90592, Note_off_c, 0, 54, 64
2, 90720, Note_on_c, 0, 54, 100
2, 90784, Note_off_c, 0, 63, 64
2, 90784, Note_off_c, 0, 61, 64
2, 90784, Note_on_c, 0, 61, 100
2, 90848, Note_off_c, 0, 54, 64
2, 90848, Note_on_c, 0, 54, 100
2, 90848, Note_off_c, 0, 51, 64
2, 90848, Note_on_c, 0, 51, 100
2, 90848, Note_on_c, 0, 58, 100
2, 90848, Note_off_c, 0, 61, 64
2, 90848, Note_off_c, 0, 73, 64
2, 90848, Note_on_c, 0, 73, 100
2, 90848, Note_off_c, 0, 78, 64
2, 90848, Note_on_c, 0, 78, 100
2, 90912, Note_off_c, 0, 57, 64
2, 90912, Note_on_c, 0, 57, 100
2, 90912, Note_off_c, 0, 58, 64
2, 90912, Note_on_c, 0, 58, 100
2, 90912, Note_off_c, 0, 73, 64
2, 90976, Note_off_c, 0, 78, 64
2, 90976, Note_on_c, 0, 78, 100
2, 90976, Note_off_c, 0, 49, 64
2, 90976, Note_on_c, 0, 49, 100
2, 91040, Note_on_c, 0, 70, 100
2, 91040, Note_off_c, 0, 78, 64
2, 91040, Note_on_c, 0, 78, 100
2, 91040, Note_on_c, 0, 61, 100
2, 91040, Note_off_c, 0, 58, 64
2, 91040, Note_off_c, 0, 54, 64
2, 91104, Note_off_c, 0, 49, 64
2, 91104, Note_off_c, 0, 78, 64
2, 91104, Note_on_c, 0, 54, 100
2, 91104, Note_off_c, 0, 81, 64
2, 91104, Note_on_c, 0, 81, 100
2, 91104, Note_off_c, 0, 81, 64
2, 91104, Note_off_c, 0, 54, 64
2, 91104, Note_on_c, 0, 54, 100
2, 91104, Note_off_c, 0, 42, 64
2, 91104, Note_on_c, 0, 66, 100
2, 91104, Note_off_c, 0, 61, 64
2, 91104, Note_on_c, 0, 61, 100
2, 91104, Note_off_c, 0, 57, 64
2, 91104, Note_on_c, 0, 57, 100
2, 91168, Note_off_c, 0, 42, 64
2, 91168, Note_on_c, 0, 42, 100
2, 91232, Note_off_c, 0, 57, 64
2, 91232, Note_off_c, 0, 54, 64
2, 91232, Note_on_c, 0, 54, 100
2, 91232, Note_off_c, 0, 79, 64
2, 91232, Note_off_c, 0, 82, 64
2, 91232, Note_on_c, 0, 82, 100
2, 91360, Note_off_c, 0, 54, 64
2, 91360, Note_off_c, 0, 57, 64
2, 91360, Note_on_c, 0, 57, 100
2, 91360, Note_on_c, 0, 79, 100
2, 91360, Note_on_c, 0, 73, 100
2, 91360, Note_off_c, 0, 82, 64
2, 91360, Note_off_c, 0, 46, 64
2, 91360, Note_on_c, 0, 46, 100
2, 91360, Note_off_c, 0, 73, 64
2, 91360, Note_on_c, 0, 73, 100
2, 91360, Note_off_c, 0, 81, 64
2, 91360, Note_on_c, 0, 81, 100
2, 91360, Note_on_c, 0, 54, 100
2, 91360, Note_off_c, 0, 54, 64
2, 91488, Note_on_c, 0, 49, 100
2, 91488, Note_off_c, 0, 79, 64
2, 91488, Note_off_c, 0, 78, 64
2, 91488, Note_on_c, 0, 78, 100
2, 91488, Note_on_c, 0, 58, 100
2, 91488, Note_off_c, 0, 46, 64
2, 91488, Note_off_c, 0, 61, 64
2, 91488, Note_on_c, 0, 61, 100
2, 91616, Note_off_c, 0, 73, 64
2, 91616, Note_off_c, 0, 57, 64
2, 91616, Note_off_c, 0, 78, 64
2, 91616, Note_off_c, 0, 58, 64
2, 91616, Note_on_c, 0, 54, 100
2, 91616, Note_on_c, 0, 78, 100
2, 91616, Note_off_c, 0, 76, 64
2, 91616, Note_on_c, 0, 76, 100
2, 91616, Note_off_c, 0, 71, 64
2, 91616, Note_on_c, 0, 71, 100
2, 91616, Note_on_c, 0, 67, 100
2, 91744, Note_off_c, 0, 76, 64
2, 91744, Note_on_c, 0, 73, 100
2, 91744, Note_off_c, 0, 78, 64
2, 91744, Note_on_c, 0, 78, 100
2, 91744, Note_off_c, 0, 69, 64
2, 91744, Note_on_c, 0, 69, 100
2, 91744, Note_off_c, 0, 62, 64
2, 91744, Note_on_c, 0, 62, 100
2, 91744, Note_on_c, 0, 50, 100
2, 91808, Note_off_c, 0, 67, 64
2, 91872, Note_off_c, 0, 62, 64
2, 91872, Note_off_c, 0, 78, 64
2, 91872, Note_off_c, 0, 79, 64
2, 91872, Note_off_c, 0, 69, 64
2, 91872, Note_on_c, 0, 69, 100
2, 91872, Note_off_c, 0, 74, 64
2, 91872, Note_on_c, 0, 74, 100
2, 91872, Note_off_c, 0, 71, 64
2, 91872, Note_on_c, 0, 71, 100
2, 91872, Note_off_c, 0, 61, 64
2, 91872, Note_on_c, 0, 61, 100
2, 91872, Note_on_c, 0, 79, 100
2, 91872, Note_off_c, 0, 64, 64
2, 91872, Note_on_c, 0, 64, 100
2, 91936, Note_off_c, 0, 78, 64
2, 91936, Note_on_c, 0, 78, 100
2, 91936, Note_off_c, 0, 76, 64
2, 91936, Note_on_c, 0, 76, 100
2, 91936, Note_off_c, 0, 73, 64
2, 91936, Note_on_c, 0, 73, 100
2, 91936, Note_off_c, 0, 73, 64
2, 91936, Note_on_c, 0, 73, 100
2, 92064, Note_off_c, 0, 74, 64
2, 92064, Note_off_c, 0, 71, 64
2, 92064, Note_on_c, 0, 71, 100
2, 92064, Note_off_c, 0, 64, 64
2, 92064, Note_off_c, 0, 62, 64
2, 92064, Note_on_c, 0, 62, 100
2, 92064, Note_off_c, 0, 61, 64
2, 92064, Note_off_c, 0, 50, 64
2, 92128, Note_off_c, 0, 78, 64
2, 92128, Note_off_c, 0, 62, 64
2, 92128, Note_off_c, 0, 76, 64
2, 92128, Note_on_c, 0, 76, 100
2, 92128, Note_off_c, 0, 71, 64
2, 92128, Note_on_c, 0, 59, 100
2, 92128, Note_off_c, 0, 73, 64
2, 92128, Note_on_c, 0, 73, 100
2, 92128, Note_off_c, 0, 67, 64
2, 92128, Note_on_c, 0, 67, 100
2, 92192, Note_off_c, 0, 76, 64
2, 92192, Note_on_c, 0, 76, 100
2, 92192, Note_off_c, 0, 76, 64
2, 92384, Note_off_c, 0, 76, 64
2, 92384, Note_on_c, 0, 76, 100
2, 92384, Note_off_c, 0, 74, 64
2, 92384, Note_on_c, 0, 74, 100
2, 92384, Note_off_c, 0, 67, 64
2, 92384, Note_on_c, 0, 71, 100
2, 92384, Note_off_c, 0, 73, 64
2, 92384, Note_off_c, 0, 79, 64
2, 92384, Note_on_c, 0, 79, 100
2, 92384, Note_on_c, 0, 78, 100
2, 92384, Note_off_c, 0, 66, 64
2, 92384, Note_off_c, 0, 62, 64
2, 92384, Note_on_c, 0, 62, 100
2, 92384, Note_off_c, 0, 61, 64
2, 92384, Note_on_c, 0, 61, 100
2, 92512, Note_on_c, 0, 66, 100
2, 92512, Note_off_c, 0, 62, 64
2, 92512, Note_on_c, 0, 62, 100
2, 92576, Note_off_c, 0, 71, 64
2, 92576, Note_off_c, 0, 62, 64
2, 92576, Note_off_c, 0, 59, 64
2, 92576, Note_on_c, 0, 59, 100
2, 92576, Note_off_c, 0, 79, 64
2, 92576, Note_off_c, 0, 76, 64
2, 92576, Note_off_c, 0, 78, 64
2, 92576, Note_on_c, 0, 77, 100
2, 92640, Note_off_c, 0, 74, 64
2, 92640, Note_on_c, 0, 74, 100
2, 92640, Note_off_c, 0, 61, 64
2, 92640, Note_on_c, 0, 61, 100
2, 92640, Note_off_c, 0, 83, 64
2, 92640, Note_on_c, 0, 83, 100
2, 92640, Note_off_c, 0, 78, 64
2, 92640, Note_off_c, 0, 77, 64
2, 92640, Note_on_c, 0, 73, 100
2, 92640, Note_on_c, 0, 71, 100
2, 92640, Note_off_c, 0, 71, 64
2, 92640, Note_off_c, 0, 74, 64
2, 92640, Note_off_c, 0, 65, 64
2, 92640, Note_on_c, 0, 65, 100
2, 92640, Note_on_c, 0, 71, 100
2, 92640, Note_on_c, 0, 78, 100
2, 92768, Note_on_c, 0, 74, 100
2, 92768, Note_on_c, 0, 82, 100
2, 92768, Note_off_c, 0, 78, 64
2, 92896, Note_on_c, 0, 78, 100
2, 92896, Note_off_c, 0, 71, 64
2, 92896, Note_off_c, 0, 65, 64
2, 92896, Note_off_c, 0, 73, 64
2, 92896, Note_on_c, 0, 73, 100
2, 92896, Note_off_c, 0, 58, 64
2, 92896, Note_on_c, 0, 58, 100
2, 92896, Note_on_c, 0, 65, 100
2, 92896, Note_off_c, 0, 65, 64
2, 93024, Note_on_c, 0, 64, 100
2, 93024, Note_off_c, 0, 73, 64
2, 93024, Note_off_c, 0, 58, 64
2, 93024, Note_on_c, 0, 65, 100
2, 93024, Note_off_c, 0, 82, 64
2, 93024, Note_on_c, 0, 82, 100
2, 93024, Note_off_c, 0, 61, 64
2, 93024, Note_on_c, 0, 61, 100
2, 93024, Note_off_c, 0, 56, 64
2, 93024, Note_on_c, 0, 56, 100
2, 93152, Note_off_c, 0, 82, 64
2, 93152, Note_off_c, 0, 61, 64
2, 93152, Note_off_c, 0, 64, 64
2, 93152, Note_off_c, 0, 56, 64
2, 93152, Note_off_c, 0, 73, 64
2, 93152, Note_on_c, 0, 73, 100
2, 93152, Note_on_c, 0, 64, 100
2, 93152, Note_off_c, 0, 64, 64
2, 93280, Note_on_c, 0, 64, 100
2, 93280, Note_off_c, 0, 74, 64
2, 93280, Note_on_c, 0, 74, 100
2, 93280, Note_off_c, 0, 66, 64
2, 93280, Note_on_c, 0, 66, 100
2, 93408, Note_off_c, 0, 74, 64
2, 93408, Note_off_c, 0, 66, 64
2, 93408, Note_off_c, 0, 58, 64
2, 93408, Note_on_c, 0, 58, 100
2, 93408, Note_off_c, 0, 78, 64
2, 93408, Note_on_c, 0, 78, 100
2, 93408, Note_off_c, 0, 71, 64
2, 93408, Note_on_c, 0, 71, 100
2, 93536, Note_off_c, 0, 78, 64
2, 93536, Note_off_c, 0, 80, 64
2, 93536, Note_on_c, 0, 80, 100
2, 93664, Note_off_c, 0, 80, 64
2, 93664, Note_on_c, 0, 61, 100
2, 93664, Note_off_c, 0, 71, 64
2, 93664, Note_on_c, 0, 56, 100
2, 93664, Note_on_c, 0, 71, 100
2, 93664, Note_off_c, 0, 78, 64
2, 93664, Note_on_c, 0, 78, 100
2, 93664, Note_off_c, 0, 59, 64
2, 93664, Note_on_c, 0, 59, 100
2, 93792, Note_off_c, 0, 56, 64
2, 93792, Note_off_c, 0, 57, 64
2, 93792, Note_on_c, 0, 57, 100
2, 93920, Note_off_c, 0, 78, 64
2, 93920, Note_off_c, 0, 57, 64
2, 93920, Note_off_c, 0, 56, 64
2, 93920, Note_on_c, 0, 56, 100
2, 93920, Note_off_c, 0, 81, 64
2, 93920, Note_on_c, 0, 81, 100
2, 93920, Note_on_c, 0, 80, 100
2, 93920, Note_off_c, 0, 73, 64
2, 93920, Note_on_c, 0, 73, 100
2, 93920, Note_off_c, 0, 59, 64
2, 93920, Note_on_c, 0, 59, 100
2, 93920, Note_off_c, 0, 54, 64
2, 93920, Note_on_c, 0, 54, 100
2, 93920, Note_off_c, 0, 71, 64
2, 94048, Note_off_c, 0, 80, 64
2, 94048, Note_off_c, 0, 78, 64
2, 94048, Note_on_c, 0, 78, 100
2, 94176, Note_off_c, 0, 78, 64
2, 94176, Note_off_c, 0, 54, 64
2, 94176, Note_off_c, 0, 80, 64
2, 94176, Note_on_c, 0, 80, 100
2, 94176, Note_off_c, 0, 73, 64
2, 94176, Note_on_c, 0, 73, 100
2, 94176, Note_off_c, 0, 49, 64
2, 94176, Note_on_c, 0, 49, 100
2, 94176, Note_off_c, 0, 61, 64
2, 94176, Note_on_c, 0, 61, 100
2, 94304, Note_off_c, 0, 49, 64
2, 94304, Note_off_c, 0, 61, 64
2, 94304, Note_on_c, 0, 49, 100
2, 94304, Note_off_c, 0, 49, 64
2, 94304, Note_off_c, 0, 73, 64
2, 94304, Note_off_c, 0, 81, 64
2, 94304, Note_on_c, 0, 81, 100
2, 94432, Note_on_c, 0, 49, 100
2, 94432, Note_off_c, 0, 81, 64
2, 94432, Note_off_c, 0, 83, 64
2, 94432, Note_on_c, 0, 83, 100
2, 94432, Note_off_c, 0, 47, 64
2, 94432, Note_on_c, 0, 47, 100
2, 94432, Note_on_c, 0, 81, 100
2, 94432, Note_off_c, 0, 81, 64
2, 94560, Note_off_c, 0, 83, 64
2, 94560, Note_off_c, 0, 78, 64
2, 94560, Note_on_c, 0, 78, 100
2, 94688, Note_off_c, 0, 78, 64
2, 94688, Note_off_c, 0, 83, 64
2, 94688, Note_on_c, 0, 83, 100
2, 94816, Note_off_c, 0, 86, 64
2, 94816, Note_off_c, 0, 81, 64
2, 94816, Note_on_c, 0, 81, 100
2, 94880, Note_on_c, 0, 71, 100
2, 94944, Note_off_c, 0, 81, 64
2, 94944, Note_on_c, 0, 78, 100
2, 94944, Note_on_c, 0, 84, 100
2, 94944, Note_off_c, 0, 66, 64
2, 94944, Note_on_c, 0, 66, 100
2, 94944, Note_off_c, 0, 68, 64
2, 94944, Note_on_c, 0, 68, 100
2, 94944, Note_off_c, 0, 74, 64
2, 94944, Note_on_c, 0, 74, 100
2, 95072, Note_off_c, 0, 69, 64
2, 95072, Note_on_c, 0, 69, 100
2, 95200, Note_off_c, 0, 84, 64
2, 95200, Note_off_c, 0, 74, 64
2, 95200, Note_off_c, 0, 69, 64
2, 95200, Note_off_c, 0, 66, 64
2, 95200, Note_off_c, 0, 83, 64
2, 95200, Note_on_c, 0, 83, 100
2, 95200, Note_on_c, 0, 69, 100
2, 95200, Note_off_c, 0, 47, 64
2, 95200, Note_off_c, 0, 80, 64
2, 95200, Note_on_c, 0, 72, 100
2, 95200, Note_off_c, 0, 75, 64
2, 95200, Note_on_c, 0, 75, 100
2, 95328, Note_off_c, 0, 83, 64
2, 95328, Note_off_c, 0, 81, 64
2, 95328, Note_on_c, 0, 81, 100
2, 95456, Note_off_c, 0, 81, 64
2, 95456, Note_off_c, 0, 76, 64
2, 95456, Note_on_c, 0, 76, 100
2, 95456, Note_off_c, 0, 71, 64
2, 95456, Note_on_c, 0, 71, 100
2, 95456, Note_off_c, 0, 72, 64
2, 95456, Note_on_c, 0, 72, 100
2, 95584, Note_off_c, 0, 71, 64
2, 95584, Note_off_c, 0, 72, 64
2, 95584, Note_on_c, 0, 72, 100
2, 95712, Note_off_c, 0, 76, 64
2, 95712, Note_off_c, 0, 72, 64
2, 95712, Note_off_c, 0, 69, 64
2, 95712, Note_on_c, 0, 69, 100
2, 95712, Note_off_c, 0, 47, 64
2, 95712, Note_on_c, 0, 47, 100
2, 95712, Note_on_c, 0, 71, 100
2, 95840, Note_off_c, 0, 69, 64
2, 95840, Note_off_c, 0, 76, 64
2, 95840, Note_on_c, 0, 76, 100
2, 95904, Note_off_c, 0, 76, 64
2, 95968, Note_off_c, 0, 60, 64
2, 95968, Note_on_c, 0, 60, 100
2, 95968, Note_off_c, 0, 76, 64
2, 95968, Note_on_c, 0, 76, 100
2, 96096, Note_off_c, 0, 76, 64
2, 96096, Note_off_c, 0, 71, 64
2, 96096, Note_on_c, 0, 71, 100
2, 96224, Note_on_c, 0, 48, 100
2, 96224, Note_off_c, 0, 71, 64
2, 96224, Note_off_c, 0, 52, 64
2, 96224, Note_off_c, 0, 76, 64
2, 96224, Note_on_c, 0, 76, 100
2, 96224, Note_off_c, 0, 57, 64
2, 96224, Note_on_c, 0, 57, 100
2, 96224, Note_off_c, 0, 69, 64
2, 96224, Note_on_c, 0, 69, 100
2, 96352, Note_off_c, 0, 76, 64
2, 96352, Note_off_c, 0, 74, 64
2, 96352, Note_on_c, 0, 74, 100
2, 96416, Note_off_c, 0, 69, 64
2, 96416, Note_off_c, 0, 57, 64
2, 96480, Note_on_c, 0, 52, 100
2, 96480, Note_off_c, 0, 74, 64
2, 96480, Note_off_c, 0, 72, 64
2, 96480, Note_on_c, 0, 72, 100
2, 96480, Note_on_c, 0, 53, 100
2, 96480, Note_off_c, 0, 53, 64
2, 96480, Note_on_c, 0, 69, 100
2, 96480, Note_on_c, 0, 53, 100
2, 96608, Note_off_c, 0, 72, 64
2, 96608, Note_off_c, 0, 71, 64
2, 96608, Note_on_c, 0, 71, 100
2, 96736, Note_off_c, 0, 71, 64
2, 96736, Note_off_c, 0, 69, 64
2, 96736, Note_off_c, 0, 72, 64
2, 96736, Note_on_c, 0, 72, 100
2, 96736, Note_off_c, 0, 53, 64
2, 96736, Note_on_c, 0, 53, 100
2, 96736, Note_on_c, 0, 69, 100
2, 96736, Note_off_c, 0, 65, 64
2, 96736, Note_off_c, 0, 53, 64
2, 96736, Note_off_c, 0, 62, 64
2, 96736, Note_on_c, 0, 62, 100
2, 96864, Note_off_c, 0, 72, 64
2, 96864, Note_off_c, 0, 71, 64
2, 96864, Note_on_c, 0, 71, 100
2, 96992, Note_off_c, 0, 71, 64
2, 96992, Note_on_c, 0, 65, 100
2, 96992, Note_off_c, 0, 62, 64
2, 96992, Note_on_c, 0, 53, 100
2, 96992, Note_on_c, 0, 71, 100
2, 96992, Note_off_c, 0, 72, 64
2, 96992, Note_on_c, 0, 72, 100
2, 96992, Note_off_c, 0, 52, 64
2, 96992, Note_on_c, 0, 52, 100
2, 96992, Note_off_c, 0, 64, 64
2, 96992, Note_off_c, 0, 69, 64
2, 96992, Note_on_c, 0, 69, 100
2, 97120, Note_off_c, 0, 71, 64
2, 97120, Note_off_c, 0, 69, 64
2, 97120, Note_off_c, 0, 72, 64
2, 97120, Note_on_c, 0, 72, 100
2, 97120, Note_off_c, 0, 76, 64
2, 97120, Note_on_c, 0, 76, 100
2, 97248, Note_off_c, 0, 72, 64
2, 97248, Note_on_c, 0, 69, 100
2, 97248, Note_off_c, 0, 53, 64
2, 97248, Note_off_c, 0, 65, 64
2, 97248, Note_off_c, 0, 71, 64
2, 97248, Note_on_c, 0, 71, 100
2, 97248, Note_off_c, 0, 52, 64
2, 97248, Note_on_c, 0, 52, 100
2, 97248, Note_off_c, 0, 74, 64
2, 97248, Note_on_c, 0, 74, 100
2, 97248, Note_off_c, 0, 52, 64
2, 97376, Note_off_c, 0, 74, 64
2, 97376, Note_off_c, 0, 71, 64
2, 97376, Note_off_c, 0, 76, 64
2, 97376, Note_on_c, 0, 76, 100
2, 97376, Note_on_c, 0, 67, 100
2, 97376, Note_off_c, 0, 72, 64
2, 97376, Note_on_c, 0, 72, 100
2, 97504, Note_off_c, 0, 76, 64
2, 97504, Note_off_c, 0, 72, 64
2, 97504, Note_on_c, 0, 65, 100
2, 97504, Note_off_c, 0, 67, 64
2, 97504, Note_on_c, 0, 77, 100
2, 97504, Note_off_c, 0, 77, 64
2, 97504, Note_on_c, 0, 77, 100
2, 97504, Note_off_c, 0, 68, 64
2, 97504, Note_on_c, 0, 68, 100
2, 97504, Note_on_c, 0, 50, 100
2, 97504, Note_off_c, 0, 38, 64
2, 97504, Note_on_c, 0, 38, 100
2, 97504, Note_off_c, 0, 74, 64
2, 97504, Note_on_c, 0, 74, 100
2, 97504, Note_off_c, 0, 64, 64
2, 97504, Note_on_c, 0, 64, 100
2, 97632, Note_off_c, 0, 74, 64
2, 97632, Note_off_c, 0, 64, 64
2, 97632, Note_off_c, 0, 77, 64
2, 97632, Note_off_c, 0, 68, 64
2, 97632, Note_off_c, 0, 71, 64
2, 97632, Note_on_c, 0, 71, 100
2, 97632, Note_off_c, 0, 76, 64
2, 97632, Note_on_c, 0, 76, 100
2, 97760, Note_off_c, 0, 76, 64
2, 97760, Note_off_c, 0, 71, 64
2, 97760, Note_on_c, 0, 68, 100
2, 97760, Note_off_c, 0, 50, 64
2, 97760, Note_off_c, 0, 38, 64
2, 97760, Note_off_c, 0, 77, 64
2, 97760, Note_on_c, 0, 77, 100
2, 97760, Note_off_c, 0, 68, 64
2, 97760, Note_on_c, 0, 68, 100
2, 97760, Note_off_c, 0, 74, 64
2, 97760, Note_on_c, 0, 74, 100
2, 97760, Note_off_c, 0, 44, 64
2, 97760, Note_on_c, 0, 44, 100
2, 97760, Note_on_c, 0, 71, 100
2, 97888, Note_off_c, 0, 68, 64
2, 97888, Note_on_c, 0, 68, 100
2, 97888, Note_off_c, 0, 76, 64
2, 97888, Note_on_c, 0, 76, 100
2, 97888, Note_off_c, 0, 72, 64
2, 97888, Note_on_c, 0, 72, 100
2, 98016, Note_off_c, 0, 76, 64
2, 98016, Note_off_c, 0, 44, 64
2, 98016, Note_off_c, 0, 72, 64
2, 98016, Note_off_c, 0, 68, 64
2, 98016, Note_off_c, 0, 74, 64
2, 98016, Note_off_c, 0, 77, 64
2, 98016, Note_on_c, 0, 77, 100
2, 98016, Note_on_c, 0, 74, 100
2, 98016, Note_off_c, 0, 65, 64
2, 98016, Note_on_c, 0, 65, 100
2, 98016, Note_on_c, 0, 50, 100
2, 98016, Note_off_c, 0, 38, 64
2, 98016, Note_on_c, 0, 38, 100
2, 98016, Note_off_c, 0, 69, 64
2, 98016, Note_on_c, 0, 69, 100
2, 98144, Note_off_c, 0, 77, 64
2, 98144, Note_off_c, 0, 72, 64
2, 98144, Note_on_c, 0, 72, 100
2, 98144, Note_off_c, 0, 74, 64
2, 98144, Note_on_c, 0, 74, 100
2, 98272, Note_off_c, 0, 38, 64
2, 98272, Note_off_c, 0, 50, 64
2, 98272, Note_off_c, 0, 69, 64
2, 98272, Note_off_c, 0, 65, 64
2, 98272, Note_off_c, 0, 74, 64
2, 98272, Note_off_c, 0, 72, 64
2, 98272, Note_on_c, 0, 72, 100
2, 98272, Note_on_c, 0, 64, 100
2, 98272, Note_on_c, 0, 52, 100
2, 98272, Note_off_c, 0, 52, 64
2, 98272, Note_off_c, 0, 40, 64
2, 98272, Note_on_c, 0, 40, 100
2, 98272, Note_off_c, 0, 67, 64
2, 98272, Note_on_c, 0, 67, 100
2, 98272, Note_on_c, 0, 52, 100
2, 98400, Note_on_c, 0, 76, 100
2, 98400, Note_off_c, 0, 72, 64
2, 98400, Note_on_c, 0, 72, 100
2, 98400, Note_off_c, 0, 69, 64
2, 98400, Note_on_c, 0, 69, 100
2, 98528, Note_off_c, 0, 52, 64
2, 98528, Note_off_c, 0, 40, 64
2, 98528, Note_off_c, 0, 69, 64
2, 98528, Note_off_c, 0, 67, 64
2, 98528, Note_off_c, 0, 72, 64
2, 98528, Note_off_c, 0, 64, 64
2, 98528, Note_off_c, 0, 76, 64
2, 98528, Note_off_c, 0, 60, 64
2, 98528, Note_on_c, 0, 60, 100
2, 98528, Note_off_c, 0, 43, 64
2, 98528, Note_off_c, 0, 59, 64
2, 98528, Note_on_c, 0, 41, 100
2, 98528, Note_off_c, 0, 62, 64
2, 98528, Note_on_c, 0, 62, 100
2, 98528, Note_off_c, 0, 79, 64
2, 98528, Note_on_c, 0, 79, 100
2, 98528, Note_on_c, 0, 67, 100
2, 98528, Note_on_c, 0, 43, 100
2, 98528, Note_on_c, 0, 64, 100
2, 98528, Note_off_c, 0, 64, 64
2, 98656, Note_off_c, 0, 74, 64
2, 98656, Note_on_c, 0, 74, 100
2, 98656, Note_on_c, 0, 65, 100
2, 98656, Note_on_c, 0, 77, 100
2, 98720, Note_off_c, 0, 67, 64
2, 98720, Note_off_c, 0, 62, 64
2, 98784, Note_off_c, 0, 79, 64
2, 98784, Note_off_c, 0, 60, 64
2, 98784, Note_off_c, 0, 36, 64
2, 98848, Note_off_c, 0, 74, 64
2, 98848, Note_off_c, 0, 64, 64
2, 98848, Note_on_c, 0, 64, 100
2, 98848, Note_off_c, 0, 76, 64
2, 98848, Note_on_c, 0, 76, 100
2, 98848, Note_off_c, 0, 60, 64
2, 98848, Note_on_c, 0, 60, 100
2, 98976, Note_on_c, 0, 59, 100
2, 98976, Note_on_c, 0, 36, 100
2, 98976, Note_off_c, 0, 76, 64
2, 98976, Note_off_c, 0, 64, 64
2, 98976, Note_off_c, 0, 48, 64
2, 98976, Note_on_c, 0, 76, 100
2, 98976, Note_off_c, 0, 36, 64
2, 98976, Note_off_c, 0, 76, 64
2, 98976, Note_on_c, 0, 64, 100
2, 98976, Note_off_c, 0, 60, 64
2, 98976, Note_on_c, 0, 48, 100
2, 98976, Note_on_c, 0, 40, 100
2, 98976, Note_on_c, 0, 84, 100
2, 98976, Note_on_c, 0, 36, 100
2, 99232, Note_off_c, 0, 78, 64
2, 99232, Note_off_c, 0, 76, 64
2, 99232, Note_on_c, 0, 72, 100
2, 99232, Note_on_c, 0, 76, 100
2, 99232, Note_off_c, 0, 64, 64
2, 99232, Note_on_c, 0, 67, 100
2, 99232, Note_on_c, 0, 60, 100
2, 99232, Note_on_c, 0, 52, 100
2, 99232, Note_off_c, 0, 36, 64
2, 99360, Note_on_c, 0, 79, 100
2, 99360, Note_off_c, 0, 76, 64
2, 99360, Note_on_c, 0, 64, 100
2, 99424, Note_off_c, 0, 76, 64
2, 99424, Note_on_c, 0, 76, 100
2, 99424, Note_off_c, 0, 72, 64
2, 99424, Note_off_c, 0, 64, 64
2, 99424, Note_on_c, 0, 72, 100
2, 99424, Note_off_c, 0, 36, 64
2, 99424, Note_on_c, 0, 36, 100
2, 99424, Note_off_c, 0, 45, 64
2, 99424, Note_off_c, 0, 33, 64
2, 99424, Note_on_c, 0, 64, 100
2, 99424, Note_on_c, 0, 45, 100
2, 99424, Note_off_c, 0, 67, 64
2, 99488, Note_off_c, 0, 64, 64
2, 99488, Note_off_c, 0, 65, 64
2, 99488, Note_on_c, 0, 65, 100
2, 99488, Note_off_c, 0, 38, 64
2, 99488, Note_on_c, 0, 38, 100
2, 99552, Note_off_c, 0, 79, 64
2, 99552, Note_on_c, 0, 67, 100
2, 99616, Note_off_c, 0, 65, 64
2, 99616, Note_off_c, 0, 79, 64
2, 99616, Note_on_c, 0, 79, 100
2, 99616, Note_off_c, 0, 71, 64
2, 99616, Note_on_c, 0, 65, 100
2, 99680, Note_off_c, 0, 65, 64
2, 99680, Note_on_c, 0, 71, 100
2, 99680, Note_on_c, 0, 65, 100
2, 99680, Note_off_c, 0, 38, 64
2, 99680, Note_on_c, 0, 62, 100
2, 99744, Note_off_c, 0, 62, 64
2, 99744, Note_off_c, 0, 65, 64
2, 99744, Note_off_c, 0, 67, 64
2, 99744, Note_off_c, 0, 72, 64
2, 99744, Note_on_c, 0, 72, 100
2, 99744, Note_on_c, 0, 67, 100
2, 99744, Note_on_c, 0, 64, 100
2, 99744, Note_off_c, 0, 60, 64
2, 99744, Note_off_c, 0, 48, 64
2, 99744, Note_on_c, 0, 48, 100
2, 99744, Note_off_c, 0, 36, 64
2, 99744, Note_on_c, 0, 36, 100
2, 99744, Note_off_c, 0, 67, 64
2, 99744, Note_on_c, 0, 60, 100
2, 99744, Note_off_c, 0, 60, 64
2, 99744, Note_off_c, 0, 64, 64
2, 99744, Note_on_c, 0, 64, 100
2, 100000, Note_off_c, 0, 71, 64
2, 100000, Note_on_c, 0, 67, 100
2, 100000, Note_off_c, 0, 64, 64
2, 100000, Note_off_c, 0, 72, 64
2, 100000, Note_off_c, 0, 67, 64
2, 100000, Note_off_c, 0, 60, 64
2, 100000, Note_on_c, 0, 60, 100
2, 100000, Note_off_c, 0, 48, 64
2, 100000, Note_off_c, 0, 36, 64
2, 100000, Note_off_c, 0, 79, 64
2, 100000, Note_off_c, 0, 76, 64
2, 100000, Note_on_c, 0, 67, 100
2, 100000, Note_on_c, 0, 79, 100
2, 100000, Note_on_c, 0, 76, 100
2, 100064, Note_off_c, 0, 79, 64
2, 100128, Note_off_c, 0, 76, 64
2, 100192, Note_off_c, 0, 70, 64
2, 100192, Note_on_c, 0, 70, 100
2, 100256, Note_off_c, 0, 67, 64
2, 100256, Note_off_c, 0, 60, 64
2, 100256, Note_on_c, 0, 79, 100
2, 100256, Note_off_c, 0, 77, 64
2, 100256, Note_on_c, 0, 77, 100
2, 100256, Note_on_c, 0, 64, 100
2, 100256, Note_on_c, 0, 72, 100
2, 100256, Note_on_c, 0, 48, 100
2, 100256, Note_on_c, 0, 55, 100
2, 100320, Note_off_c, 0, 79, 64
2, 100320, Note_on_c, 0, 76, 100
2, 100448, Note_off_c, 0, 72, 64
2, 100448, Note_on_c, 0, 72, 100
2, 100448, Note_off_c, 0, 76, 64
2, 100448, Note_on_c, 0, 76, 100
2, 100448, Note_off_c, 0, 64, 64
2, 100448, Note_off_c, 0, 67, 64
2, 100448, Note_off_c, 0, 55, 64
2, 100448, Note_on_c, 0, 36, 100
2, 100448, Note_on_c, 0, 67, 100
2, 100512, Note_off_c, 0, 76, 64
2, 100512, Note_off_c, 0, 72, 64
2, 100576, Note_off_c, 0, 69, 64
2, 100576, Note_on_c, 0, 69, 100
2, 100576, Note_off_c, 0, 48, 64
2, 100768, Note_on_c, 0, 72, 100
2, 100768, Note_off_c, 0, 69, 64
2, 100768, Note_off_c, 0, 67, 64
2, 100768, Note_off_c, 0, 52, 64
2, 100768, Note_off_c, 0, 40, 64
2, 100768, Note_off_c, 0, 76, 64
2, 100768, Note_on_c, 0, 76, 100
2, 100768, Note_on_c, 0, 48, 100
2, 101280, Note_off_c, 0, 72, 64
2, 101344, Note_off_c, 0, 76, 64
2, 101344, Note_on_c, 0, 67, 100
2, 101344, Note_on_c, 0, 52, 100
2, 101344, Note_off_c, 0, 36, 64
2, 101344, Note_off_c, 0, 48, 64
2, 101664, Note_off_c, 0, 45, 64
2, 101664, Note_off_c, 0, 70, 64
2, 101664, Note_on_c, 0, 48, 100
2, 101664, Note_on_c, 0, 36, 100
2, 101856, Note_on_c, 0, 70, 100
2, 101856, Note_off_c, 0, 58, 64
2, 101856, Note_on_c, 0, 64, 100
2, 101856, Note_on_c, 0, 72, 100
2, 101856, Note_off_c, 0, 48, 64
2, 101856, Note_on_c, 0, 50, 100
2, 101856, Note_on_c, 0, 76, 100
2, 101984, Note_off_c, 0, 72, 64
2, 101984, Note_off_c, 0, 70, 64
2, 102112, Note_off_c, 0, 70, 64
2, 102112, Note_off_c, 0, 50, 64
2, 102112, Note_off_c, 0, 64, 64
2, 102112, Note_on_c, 0, 55, 100
2, 102112, Note_on_c, 0, 70, 100
2, 102112, Note_on_c, 0, 72, 100
2, 102112, Note_on_c, 0, 58, 100
2, 102112, Note_on_c, 0, 48, 100
2, 102112, Note_on_c, 0, 62, 100
2, 102240, Note_off_c, 0, 70, 64
2, 102240, Note_off_c, 0, 72, 64
2, 102240, Note_on_c, 0, 74, 100
2, 102368, Note_off_c, 0, 55, 64
2, 102368, Note_on_c, 0, 55, 100
2, 102368, Note_off_c, 0, 58, 64
2, 102368, Note_off_c, 0, 64, 64
2, 102368, Note_on_c, 0, 64, 100
2, 102368, Note_off_c, 0, 48, 64
2, 102368, Note_on_c, 0, 48, 100
2, 102368, Note_on_c, 0, 60, 100
2, 102368, Note_off_c, 0, 55, 64
2, 102368, Note_off_c, 0, 74, 64
2, 102368, Note_on_c, 0, 72, 100
2, 102496, Note_off_c, 0, 72, 64
2, 102496, Note_off_c, 0, 67, 64
2, 102560, Note_off_c, 0, 67, 64
2, 102560, Note_off_c, 0, 48, 64
2, 102560, Note_off_c, 0, 60, 64
2, 102560, Note_on_c, 0, 67, 100
2, 102624, Note_off_c, 0, 64, 64
2, 102624, Note_on_c, 0, 57, 100
2, 102624, Note_on_c, 0, 69, 100
2, 102624, Note_on_c, 0, 61, 100
2, 102624, Note_on_c, 0, 46, 100
2, 102624, Note_off_c, 0, 76, 64
2, 102624, Note_off_c, 0, 49, 64
2, 102880, Note_on_c, 0, 76, 100
2, 102880, Note_off_c, 0, 61, 64
2, 102880, Note_off_c, 0, 55, 64
2, 102880, Note_off_c, 0, 46, 64
2, 102880, Note_on_c, 0, 72, 100
2, 102880, Note_off_c, 0, 45, 64
2, 102880, Note_off_c, 0, 57, 64
2, 102880, Note_on_c, 0, 55, 100
2, 102880, Note_on_c, 0, 45, 100
2, 103136, Note_on_c, 0, 57, 100
2, 103136, Note_off_c, 0, 72, 64
2, 103136, Note_off_c, 0, 55, 64
2, 103136, Note_off_c, 0, 70, 64
2, 103136, Note_on_c, 0, 40, 100
2, 103136, Note_on_c, 0, 70, 100
2, 103136, Note_on_c, 0, 61, 100
2, 103136, Note_on_c, 0, 49, 100
2, 103136, Note_off_c, 0, 69, 64
2, 103392, Note_off_c, 0, 61, 64
2, 103392, Note_on_c, 0, 69, 100
2, 103392, Note_on_c, 0, 58, 100
2, 103456, Note_off_c, 0, 69, 64
2, 103456, Note_on_c, 0, 69, 100
2, 103456, Note_off_c, 0, 62, 64
2, 103456, Note_off_c, 0, 70, 64
2, 103456, Note_off_c, 0, 57, 64
2, 103520, Note_on_c, 0, 62, 100
2, 103520, Note_off_c, 0, 67, 64
2, 103648, Note_on_c, 0, 67, 100
2, 103648, Note_off_c, 0, 57, 64
2, 103648, Note_off_c, 0, 69, 64
2, 103648, Note_off_c, 0, 58, 64
2, 103648, Note_off_c, 0, 49, 64
2, 103648, Note_off_c, 0, 64, 64
2, 103648, Note_on_c, 0, 57, 100
2, 103648, Note_off_c, 0, 37, 64
2, 103648, Note_on_c, 0, 61, 100
2, 103648, Note_on_c, 0, 64, 100
2, 103648, Note_off_c, 0, 52, 64
2, 103904, Note_on_c, 0, 52, 100
2, 103904, Note_off_c, 0, 57, 64
2, 103904, Note_off_c, 0, 64, 64
2, 103904, Note_off_c, 0, 61, 64
2, 103904, Note_off_c, 0, 69, 64
2, 103904, Note_on_c, 0, 69, 100
2, 103904, Note_on_c, 0, 61, 100
2, 103904, Note_on_c, 0, 48, 100
2, 103904, Note_on_c, 0, 49, 100
2, 103904, Note_on_c, 0, 37, 100
2, 104160, Note_off_c, 0, 49, 64
2, 104160, Note_off_c, 0, 76, 64
2, 104160, Note_off_c, 0, 37, 64
2, 104160, Note_on_c, 0, 76, 100
2, 104160, Note_off_c, 0, 61, 64
2, 104160, Note_off_c, 0, 69, 64
2, 104160, Note_on_c, 0, 64, 100
2, 104160, Note_on_c, 0, 49, 100
2, 104288, Note_on_c, 0, 57, 100
2, 104416, Note_off_c, 0, 49, 64
2, 104416, Note_on_c, 0, 50, 100
2, 104544, Note_off_c, 0, 50, 64
2, 104672, Note_off_c, 0, 76, 64
2, 104672, Note_off_c, 0, 45, 64
2, 104672, Note_on_c, 0, 45, 100
2, 104672, Note_off_c, 0, 64, 64
2, 104672, Note_on_c, 0, 73, 100
2, 104672, Note_off_c, 0, 57, 64
2, 104672, Note_on_c, 0, 33, 100
2, 104672, Note_off_c, 0, 45, 64
2, 104928, Note_off_c, 0, 33, 64
2, 104928, Note_off_c, 0, 45, 64
2, 104928, Note_on_c, 0, 33, 100
2, 104928, Note_on_c, 0, 79, 100
2, 104928, Note_on_c, 0, 76, 100
2, 104928, Note_on_c, 0, 45, 100
2, 104928, Note_off_c, 0, 33, 64
2, 105184, Note_off_c, 0, 73, 64
2, 105184, Note_on_c, 0, 71, 100
2, 105184, Note_on_c, 0, 55, 100
2, 105184, Note_on_c, 0, 57, 100
2, 105184, Note_off_c, 0, 43, 64
2, 105184, Note_off_c, 0, 79, 64
2, 105184, Note_off_c, 0, 76, 64
2, 105184, Note_off_c, 0, 59, 64
2, 105184, Note_off_c, 0, 77, 64
2, 105184, Note_on_c, 0, 59, 100
2, 105312, Note_off_c, 0, 59, 64
2, 105312, Note_on_c, 0, 59, 100
2, 105376, Note_off_c, 0, 55, 64
2, 105376, Note_off_c, 0, 59, 64
2, 105376, Note_off_c, 0, 62, 64
2, 105440, Note_off_c, 0, 64, 64
2, 105440, Note_on_c, 0, 79, 100
2, 105440, Note_off_c, 0, 79, 64
2, 105440, Note_on_c, 0, 79, 100
2, 105440, Note_off_c, 0, 71, 64
2, 105440, Note_on_c, 0, 64, 100
2, 105440, Note_on_c, 0, 77, 100
2, 105440, Note_on_c, 0, 76, 100
2, 105440, Note_on_c, 0, 59, 100
2, 105440, Note_on_c, 0, 44, 100
2, 105440, Note_on_c, 0, 43, 100
2, 106016, Note_off_c, 0, 76, 64
2, 106016, Note_off_c, 0, 59, 64
2, 106016, Note_off_c, 0, 44, 64
2, 106080, Note_off_c, 0, 64, 64
2, 106080, Note_on_c, 0, 64, 100
2, 106272, Note_off_c, 0, 64, 64
2, 106272, Note_on_c, 0, 64, 100
2, 106272, Note_off_c, 0, 60, 64
2, 106272, Note_on_c, 0, 60, 100
2, 106272, Note_off_c, 0, 33, 64
2, 106272, Note_on_c, 0, 33, 100
2, 106272, Note_off_c, 0, 45, 64
2, 106272, Note_on_c, 0, 45, 100
2, 106528, Note_on_c, 0, 69, 100
2, 106528, Note_off_c, 0, 40, 64
2, 106528, Note_off_c, 0, 33, 64
2, 106528, Note_off_c, 0, 45, 64
2, 106528, Note_on_c, 0, 45, 100
2, 106528, Note_on_c, 0, 33, 100
2, 106784, Note_off_c, 0, 69, 64
2, 106784, Note_off_c, 0, 33, 64
2, 106784, Note_off_c, 0, 64, 64
2, 106784, Note_off_c, 0, 57, 64
2, 106784, Note_off_c, 0, 65, 64
2, 106784, Note_on_c, 0, 65, 100
2, 106784, Note_off_c, 0, 47, 64
2, 106784, Note_on_c, 0, 62, 100
2, 106784, Note_on_c, 0, 57, 100
2, 106784, Note_off_c, 0, 45, 64
2, 106784, Note_on_c, 0, 49, 100
2, 106784, Note_on_c, 0, 37, 100
2, 106784, Note_on_c, 0, 47, 100
2, 106784, Note_on_c, 0, 33, 100
2, 107040, Note_off_c, 0, 65, 64
2, 107040, Note_off_c, 0, 57, 64
2, 107040, Note_off_c, 0, 35, 64
2, 107040, Note_off_c, 0, 47, 64
2, 107040, Note_off_c, 0, 62, 64
2, 107040, Note_on_c, 0, 59, 100
2, 107040, Note_off_c, 0, 56, 64
2, 107040, Note_on_c, 0, 47, 100
2, 107040, Note_on_c, 0, 35, 100
2, 107040, Note_off_c, 0, 47, 64
2, 107168, Note_off_c, 0, 35, 64
2, 107168, Note_off_c, 0, 56, 64
2, 107168, Note_on_c, 0, 56, 100
2, 107328, Note_off_c, 0, 59, 64
2, 107328, Note_off_c, 0, 56, 64
2, 107328, Note_off_c, 0, 49, 64
2, 107328, Note_off_c, 0, 54, 64
2, 107328, Note_on_c, 0, 54, 100
2, 107328, Note_off_c, 0, 62, 64
2, 107328, Note_on_c, 0, 62, 100
2, 107584, Note_on_c, 0, 59, 100
2, 107584, Note_off_c, 0, 61, 64
2, 107584, Note_on_c, 0, 61, 100
2, 107840, Note_off_c, 0, 61, 64
2, 107840, Note_off_c, 0, 71, 64
2, 107840, Note_on_c, 0, 71, 100
2, 107840, Note_off_c, 0, 66, 64
2, 107840, Note_on_c, 0, 66, 100
2, 107840, Note_on_c, 0, 74, 100
2, 107840, Note_off_c, 0, 62, 64
2, 107840, Note_on_c, 0, 62, 100
2, 108096, Note_off_c, 0, 62, 64
2, 108096, Note_off_c, 0, 71, 64
2, 108096, Note_off_c, 0, 74, 64
2, 108096, Note_on_c, 0, 71, 100
2, 108096, Note_off_c, 0, 63, 64
2, 108096, Note_on_c, 0, 63, 100
2, 108096, Note_on_c, 0, 68, 100
2, 108096, Note_on_c, 0, 56, 100
2, 108224, Note_off_c, 0, 63, 64
2, 108224, Note_off_c, 0, 66, 64
2, 108352, Note_off_c, 0, 68, 64
2, 108352, Note_on_c, 0, 66, 100
2, 108352, Note_off_c, 0, 75, 64
2, 108352, Note_on_c, 0, 74, 100
2, 108352, Note_off_c, 0, 71, 64
2, 108352, Note_on_c, 0, 68, 100
2, 108352, Note_off_c, 0, 68, 64
2, 108352, Note_off_c, 0, 59, 64
2, 108352, Note_on_c, 0, 59, 100
2, 108352, Note_off_c, 0, 56, 64
2, 108352, Note_on_c, 0, 56, 100
2, 108608, Note_off_c, 0, 74, 64
2, 108608, Note_off_c, 0, 66, 64
2, 108608, Note_off_c, 0, 67, 64
2, 108608, Note_on_c, 0, 74, 100
2, 108608, Note_on_c, 0, 68, 100
2, 108608, Note_on_c, 0, 72, 100
2, 108736, Note_off_c, 0, 72, 64
2, 108736, Note_off_c, 0, 71, 64
2, 108736, Note_on_c, 0, 71, 100
2, 108800, Note_off_c, 0, 59, 64
2, 108800, Note_off_c, 0, 56, 64
2, 108864, Note_off_c, 0, 71, 64
2, 108864, Note_off_c, 0, 74, 64
2, 108864, Note_off_c, 0, 68, 64
2, 108864, Note_on_c, 0, 68, 100
2, 108864, Note_off_c, 0, 68, 64
2, 108864, Note_off_c, 0, 54, 64
2, 108864, Note_on_c, 0, 54, 100
2, 108864, Note_off_c, 0, 59, 64
2, 108864, Note_on_c, 0, 59, 100
2, 109120, Note_on_c, 0, 68, 100
2, 109120, Note_on_c, 0, 74, 100
2, 109120, Note_off_c, 0, 59, 64
2, 109120, Note_off_c, 0, 71, 64
2, 109120, Note_on_c, 0, 71, 100
2, 109312, Note_off_c, 0, 71, 64
2, 109376, Note_on_c, 0, 71, 100
2, 109376, Note_off_c, 0, 54, 64
2, 109376, Note_off_c, 0, 72, 64
2, 109376, Note_on_c, 0, 72, 100
2, 109376, Note_off_c, 0, 69, 64
2, 109376, Note_on_c, 0, 69, 100
2, 109376, Note_off_c, 0, 39, 64
2, 109376, Note_on_c, 0, 59, 100
2, 109632, Note_off_c, 0, 72, 64
2, 109632, Note_on_c, 0, 63, 100
2, 109632, Note_off_c, 0, 69, 64
2, 109632, Note_off_c, 0, 39, 64
2, 109632, Note_off_c, 0, 71, 64
2, 109632, Note_off_c, 0, 51, 64
2, 109632, Note_on_c, 0, 51, 100
2, 109632, Note_on_c, 0, 39, 100
2, 109888, Note_off_c, 0, 71, 64
2, 109888, Note_on_c, 0, 71, 100
2, 109888, Note_off_c, 0, 51, 64
2, 109888, Note_off_c, 0, 39, 64
2, 109888, Note_on_c, 0, 51, 100
2, 109888, Note_off_c, 0, 51, 64
2, 109888, Note_on_c, 0, 39, 100
2, 109888, Note_off_c, 0, 59, 64
2, 109888, Note_on_c, 0, 59, 100
2, 109888, Note_off_c, 0, 59, 64
2, 110016, Note_off_c, 0, 71, 64
2, 110144, Note_off_c, 0, 59, 64
2, 110144, Note_on_c, 0, 51, 100
2, 110144, Note_off_c, 0, 39, 64
2, 110144, Note_off_c, 0, 51, 64
2, 110144, Note_on_c, 0, 71, 100
2, 110144, Note_off_c, 0, 66, 64
2, 110144, Note_on_c, 0, 66, 100
2, 110144, Note_on_c, 0, 50, 100
2, 110144, Note_on_c, 0, 59, 100
2, 110144, Note_on_c, 0, 51, 100
2, 110272, Note_off_c, 0, 59, 64
2, 110272, Note_on_c, 0, 59, 100
2, 110336, Note_off_c, 0, 66, 64
2, 110336, Note_off_c, 0, 68, 64
2, 110336, Note_on_c, 0, 68, 100
2, 110400, Note_off_c, 0, 59, 64
2, 110400, Note_off_c, 0, 51, 64
2, 110400, Note_on_c, 0, 38, 100
2, 110400, Note_off_c, 0, 71, 64
2, 110400, Note_off_c, 0, 68, 64
2, 110400, Note_on_c, 0, 59, 100
2, 110400, Note_off_c, 0, 63, 64
2, 110400, Note_on_c, 0, 63, 100
2, 110656, Note_off_c, 0, 63, 64
2, 110656, Note_off_c, 0, 71, 64
2, 110656, Note_on_c, 0, 71, 100
2, 110656, Note_on_c, 0, 62, 100
2, 110656, Note_on_c, 0, 68, 100
2, 110656, Note_on_c, 0, 61, 100
2, 110784, Note_off_c, 0, 50, 64
2, 110784, Note_on_c, 0, 69, 100
2, 110848, Note_off_c, 0, 71, 64
2, 110848, Note_off_c, 0, 59, 64
2, 110848, Note_off_c, 0, 62, 64
2, 110912, Note_off_c, 0, 68, 64
2, 110912, Note_on_c, 0, 59, 100
2, 110912, Note_off_c, 0, 52, 64
2, 110912, Note_on_c, 0, 71, 100
2, 110912, Note_on_c, 0, 68, 100
2, 110912, Note_on_c, 0, 52, 100
2, 111168, Note_off_c, 0, 68, 64
2, 111168, Note_on_c, 0, 68, 100
2, 111168, Note_off_c, 0, 61, 64
2, 111232, Note_off_c, 0, 71, 64
2, 111232, Note_off_c, 0, 52, 64
2, 111296, Note_off_c, 0, 68, 64
2, 111424, Note_off_c, 0, 64, 64
2, 111424, Note_on_c, 0, 61, 100
2, 111424, Note_on_c, 0, 64, 100
2, 111424, Note_on_c, 0, 49, 100
2, 111680, Note_off_c, 0, 64, 64
2, 111680, Note_off_c, 0, 61, 64
2, 111680, Note_off_c, 0, 49, 64
2, 111936, Note_off_c, 0, 64, 64
2, 111936, Note_on_c, 0, 64, 100
2, 111936, Note_on_c, 0, 73, 100
2, 111936, Note_on_c, 0, 52, 100
2, 111936, Note_on_c, 0, 40, 100
2, 112192, Note_off_c, 0, 52, 64
2, 112192, Note_off_c, 0, 64, 64
2, 112320, Note_off_c, 0, 73, 64
2, 112320, Note_on_c, 0, 64, 100
2, 112448, Note_off_c, 0, 64, 64
2, 112448, Note_on_c, 0, 45, 100
2, 112704, Note_on_c, 0, 76, 100
2, 112704, Note_on_c, 0, 73, 100
2, 112704, Note_on_c, 0, 71, 100
2, 112704, Note_on_c, 0, 61, 100
2, 112704, Note_off_c, 0, 55, 64
2, 112704, Note_on_c, 0, 55, 100
2, 112704, Note_off_c, 0, 43, 64
2, 112704, Note_on_c, 0, 43, 100
2, 112960, Note_off_c, 0, 73, 64
2, 112960, Note_off_c, 0, 71, 64
2, 112960, Note_off_c, 0, 76, 64
2, 112960, Note_off_c, 0, 61, 64
2, 112960, Note_on_c, 0, 76, 100
2, 113152, Note_off_c, 0, 76, 64
2, 113216, Note_off_c, 0, 55, 64
2, 113216, Note_on_c, 0, 52, 100
2, 113216, Note_off_c, 0, 37, 64
2, 113216, Note_off_c, 0, 76, 64
2, 113216, Note_on_c, 0, 76, 100
2, 113216, Note_off_c, 0, 71, 64
2, 113216, Note_on_c, 0, 71, 100
2, 113216, Note_off_c, 0, 43, 64
2, 113216, Note_on_c, 0, 55, 100
2, 113216, Note_on_c, 0, 67, 100
2, 113216, Note_off_c, 0, 55, 64
2, 113216, Note_on_c, 0, 43, 100
2, 113280, Note_off_c, 0, 76, 64
2, 113280, Note_off_c, 0, 71, 64
2, 113344, Note_off_c, 0, 73, 64
2, 113344, Note_on_c, 0, 73, 100
2, 113408, Note_on_c, 0, 55, 100
2, 113408, Note_on_c, 0, 49, 100
2, 113408, Note_on_c, 0, 75, 100
2, 113408, Note_off_c, 0, 73, 64
2, 113472, Note_off_c, 0, 75, 64
2, 113472, Note_on_c, 0, 72, 100
2, 113472, Note_off_c, 0, 69, 64
2, 113472, Note_on_c, 0, 69, 100
2, 113472, Note_off_c, 0, 42, 64
2, 113472, Note_off_c, 0, 54, 64
2, 113472, Note_on_c, 0, 54, 100
2, 113472, Note_on_c, 0, 42, 100
2, 113536, Note_off_c, 0, 75, 64
2, 113536, Note_on_c, 0, 75, 100
2, 113600, Note_off_c, 0, 75, 64
2, 113728, Note_off_c, 0, 54, 64
2, 113728, Note_off_c, 0, 67, 64
2, 113728, Note_off_c, 0, 42, 64
2, 113728, Note_on_c, 0, 76, 100
2, 113728, Note_on_c, 0, 64, 100
2, 113728, Note_off_c, 0, 40, 64
2, 113728, Note_on_c, 0, 61, 100
2, 113728, Note_on_c, 0, 40, 100
2, 113856, Note_off_c, 0, 61, 64
2, 113920, Note_off_c, 0, 64, 64
2, 113920, Note_off_c, 0, 59, 64
2, 113984, Note_off_c, 0, 40, 64
2, 113984, Note_off_c, 0, 76, 64
2, 113984, Note_on_c, 0, 59, 100
2, 113984, Note_off_c, 0, 75, 64
2, 113984, Note_on_c, 0, 75, 100
2, 113984, Note_on_c, 0, 61, 100
2, 113984, Note_off_c, 0, 52, 64
2, 113984, Note_on_c, 0, 39, 100
2, 114112, Note_off_c, 0, 75, 64
2, 114112, Note_on_c, 0, 73, 100
2, 114240, Note_off_c, 0, 73, 64
2, 114240, Note_off_c, 0, 61, 64
2, 114240, Note_on_c, 0, 40, 100
2, 114240, Note_on_c, 0, 52, 100
2, 114240, Note_on_c, 0, 37, 100
2, 114240, Note_on_c, 0, 73, 100
2, 114240, Note_on_c, 0, 66, 100
2, 114240, Note_on_c, 0, 63, 100
2, 114368, Note_off_c, 0, 73, 64
2, 114368, Note_off_c, 0, 63, 64
2, 114368, Note_off_c, 0, 75, 64
2, 114368, Note_on_c, 0, 75, 100
2, 114368, Note_on_c, 0, 61, 100
2, 114496, Note_off_c, 0, 66, 64
2, 114496, Note_off_c, 0, 75, 64
2, 114496, Note_off_c, 0, 61, 64
2, 114496, Note_on_c, 0, 66, 100
2, 114496, Note_on_c, 0, 76, 100
2, 114496, Note_on_c, 0, 61, 100
2, 114624, Note_on_c, 0, 63, 100
2, 114880, Note_off_c, 0, 63, 64
2, 114880, Note_off_c, 0, 61, 64
2, 114880, Note_off_c, 0, 66, 64
2, 114880, Note_on_c, 0, 67, 100
2, 115008, Note_off_c, 0, 60, 64
2, 115008, Note_on_c, 0, 61, 100
2, 115008, Note_off_c, 0, 67, 64
2, 115008, Note_off_c, 0, 63, 64
2, 115008, Note_on_c, 0, 63, 100
2, 115008, Note_off_c, 0, 43, 64
2, 115136, Note_on_c, 0, 64, 100
2, 115136, Note_off_c, 0, 60, 64
2, 115136, Note_on_c, 0, 60, 100
2, 115264, Note_on_c, 0, 67, 100
2, 115264, Note_off_c, 0, 60, 64
2, 115264, Note_on_c, 0, 60, 100
2, 115264, Note_off_c, 0, 64, 64
2, 115264, Note_on_c, 0, 64, 100
2, 115264, Note_off_c, 0, 60, 64
2, 115392, Note_off_c, 0, 64, 64
2, 115392, Note_off_c, 0, 67, 64
2, 115520, Note_on_c, 0, 67, 100
2, 115520, Note_off_c, 0, 61, 64
2, 115520, Note_on_c, 0, 66, 100
2, 115648, Note_off_c, 0, 66, 64
2, 115648, Note_off_c, 0, 67, 64
2, 115776, Note_on_c, 0, 43, 100
2, 115776, Note_off_c, 0, 67, 64
2, 115776, Note_on_c, 0, 67, 100
2, 115776, Note_off_c, 0, 49, 64
2, 115776, Note_off_c, 0, 37, 64
2, 115904, Note_off_c, 0, 67, 64
2, 115904, Note_on_c, 0, 66, 100
2, 116032, Note_off_c, 0, 66, 64
2, 116032, Note_off_c, 0, 37, 64
2, 116032, Note_off_c, 0, 49, 64
2, 116032, Note_on_c, 0, 57, 100
2, 116032, Note_on_c, 0, 49, 100
2, 116032, Note_on_c, 0, 37, 100
2, 116160, Note_on_c, 0, 54, 100
2, 116160, Note_off_c, 0, 57, 64
2, 116224, Note_off_c, 0, 49, 64
2, 116224, Note_off_c, 0, 37, 64
2, 116224, Note_off_c, 0, 54, 64
2, 116288, Note_on_c, 0, 66, 100
2, 116288, Note_on_c, 0, 57, 100
2, 116288, Note_off_c, 0, 45, 64
2, 116288, Note_off_c, 0, 33, 64
2, 116416, Note_off_c, 0, 66, 64
2, 116416, Note_on_c, 0, 67, 100
2, 116544, Note_off_c, 0, 67, 64
2, 116544, Note_on_c, 0, 64, 100
2, 116544, Note_on_c, 0, 45, 100
2, 116672, Note_off_c, 0, 66, 64
2, 116672, Note_on_c, 0, 66, 100
2, 116800, Note_off_c, 0, 64, 64
2, 116800, Note_off_c, 0, 66, 64
2, 116800, Note_off_c, 0, 45, 64
2, 116800, Note_on_c, 0, 33, 100
2, 116800, Note_off_c, 0, 36, 64
2, 116928, Note_on_c, 0, 66, 100
2, 116928, Note_on_c, 0, 67, 100
2, 117056, Note_off_c, 0, 67, 64
2, 117056, Note_off_c, 0, 57, 64
2, 117056, Note_off_c, 0, 66, 64
2, 117056, Note_off_c, 0, 74, 64
2, 117184, Note_on_c, 0, 66, 100
2, 117184, Note_on_c, 0, 67, 100
2, 117312, Note_on_c, 0, 74, 100
2, 117312, Note_off_c, 0, 57, 64
2, 117312, Note_off_c, 0, 76, 64
2, 117312, Note_off_c, 0, 67, 64
2, 117312, Note_on_c, 0, 71, 100
2, 117312, Note_on_c, 0, 57, 100
2, 117312, Note_on_c, 0, 45, 100
2, 117312, Note_off_c, 0, 33, 64
2, 117440, Note_on_c, 0, 76, 100
2, 117440, Note_off_c, 0, 74, 64
2, 117568, Note_on_c, 0, 74, 100
2, 117568, Note_off_c, 0, 57, 64
2, 117568, Note_off_c, 0, 71, 64
2, 117696, Note_off_c, 0, 71, 64
2, 117696, Note_on_c, 0, 71, 100
2, 117824, Note_off_c, 0, 71, 64
2, 117824, Note_off_c, 0, 72, 64
2, 117824, Note_off_c, 0, 48, 64
2, 117824, Note_off_c, 0, 45, 64
2, 117824, Note_on_c, 0, 33, 100
2, 117824, Note_on_c, 0, 45, 100
2, 117952, Note_on_c, 0, 72, 100
2, 117952, Note_on_c, 0, 71, 100
2, 118080, Note_off_c, 0, 71, 64
2, 118080, Note_off_c, 0, 72, 64
2, 118208, Note_off_c, 0, 72, 64
2, 118208, Note_on_c, 0, 75, 100
2, 118208, Note_on_c, 0, 72, 100
2, 118208, Note_off_c, 0, 69, 64
2, 118336, Note_on_c, 0, 69, 100
2, 118336, Note_off_c, 0, 75, 64
2, 118336, Note_off_c, 0, 72, 64
2, 118464, Note_on_c, 0, 72, 100
2, 118464, Note_on_c, 0, 75, 100
2, 118592, Note_off_c, 0, 75, 64
2, 118592, Note_off_c, 0, 45, 64
2, 118720, Note_off_c, 0, 72, 64
2, 118720, Note_on_c, 0, 72, 100
2, 118848, Note_off_c, 0, 72, 64
2, 118848, Note_off_c, 0, 66, 64
2, 118848, Note_on_c, 0, 60, 100
2, 118848, Note_on_c, 0, 71, 100
2, 118976, Note_off_c, 0, 71, 64
2, 118976, Note_on_c, 0, 72, 100
2, 119104, Note_off_c, 0, 72, 64
2, 119104, Note_on_c, 0, 66, 100
2, 119104, Note_on_c, 0, 67, 100
2, 119104, Note_off_c, 0, 60, 64
2, 119104, Note_on_c, 0, 71, 100
2, 119232, Note_off_c, 0, 67, 64
2, 119232, Note_off_c, 0, 66, 64
2, 119360, Note_off_c, 0, 71, 64
2, 119360, Note_on_c, 0, 66, 100
2, 119360, Note_off_c, 0, 69, 64
2, 119360, Note_off_c, 0, 74, 64
2, 119360, Note_on_c, 0, 69, 100
2, 119488, Note_on_c, 0, 74, 100
2, 119488, Note_off_c, 0, 66, 64
2, 119488, Note_on_c, 0, 75, 100
2, 119616, Note_off_c, 0, 75, 64
2, 119616, Note_on_c, 0, 66, 100
2, 119616, Note_off_c, 0, 69, 64
2, 119616, Note_on_c, 0, 71, 100
2, 119744, Note_off_c, 0, 71, 64
2, 119744, Note_on_c, 0, 69, 100
2, 119872, Note_off_c, 0, 74, 64
2, 119872, Note_on_c, 0, 75, 100
2, 119872, Note_on_c, 0, 71, 100
2, 119872, Note_off_c, 0, 69, 64
2, 120000, Note_off_c, 0, 71, 64
2, 120000, Note_off_c, 0, 66, 64
2, 120128, Note_on_c, 0, 74, 100
2, 120128, Note_off_c, 0, 71, 64
2, 120128, Note_on_c, 0, 71, 100
2, 120128, Note_on_c, 0, 67, 100
2, 120128, Note_off_c, 0, 75, 64
2, 120128, Note_off_c, 0, 55, 64
2, 120128, Note_on_c, 0, 36, 100
2, 120128, Note_off_c, 0, 43, 64
2, 120256, Note_off_c, 0, 66, 64
2, 120256, Note_off_c, 0, 67, 64
2, 120256, Note_on_c, 0, 66, 100
2, 120384, Note_off_c, 0, 71, 64
2, 120384, Note_on_c, 0, 73, 100
2, 120384, Note_on_c, 0, 55, 100
2, 120384, Note_off_c, 0, 54, 64
2, 120384, Note_on_c, 0, 54, 100
2, 120384, Note_on_c, 0, 43, 100
2, 120512, Note_on_c, 0, 75, 100
2, 120512, Note_off_c, 0, 73, 64
2, 120512, Note_on_c, 0, 73, 100
2, 120512, Note_on_c, 0, 61, 100
2, 120640, Note_off_c, 0, 73, 64
2, 120640, Note_off_c, 0, 66, 64
2, 120640, Note_off_c, 0, 69, 64
2, 120640, Note_off_c, 0, 67, 64
2, 120640, Note_off_c, 0, 75, 64
2, 120640, Note_on_c, 0, 60, 100
2, 120640, Note_on_c, 0, 69, 100
2, 120640, Note_on_c, 0, 67, 100
2, 120768, Note_off_c, 0, 68, 64
2, 120768, Note_on_c, 0, 68, 100
2, 120768, Note_off_c, 0, 67, 64
2, 120896, Note_off_c, 0, 68, 64
2, 120896, Note_on_c, 0, 67, 100
2, 120896, Note_on_c, 0, 66, 100
2, 120896, Note_on_c, 0, 75, 100
2, 120896, Note_off_c, 0, 43, 64
2, 120896, Note_on_c, 0, 44, 100
2, 121152, Note_off_c, 0, 66, 64
2, 121152, Note_on_c, 0, 68, 100
2, 121152, Note_off_c, 0, 44, 64
2, 121152, Note_on_c, 0, 44, 100
2, 121152, Note_on_c, 0, 35, 100
2, 121280, Note_off_c, 0, 68, 64
2, 121280, Note_off_c, 0, 63, 64
2, 121408, Note_on_c, 0, 64, 100
2, 121408, Note_off_c, 0, 66, 64
2, 121408, Note_on_c, 0, 66, 100
2, 121664, Note_off_c, 0, 66, 64
2, 121664, Note_on_c, 0, 83, 100
2, 121664, Note_off_c, 0, 69, 64
2, 121664, Note_off_c, 0, 61, 64
2, 121792, Note_on_c, 0, 69, 100
2, 121856, Note_off_c, 0, 69, 64
2, 121920, Note_off_c, 0, 57, 64
2, 121920, Note_on_c, 0, 61, 100
2, 121920, Note_on_c, 0, 57, 100
2, 121920, Note_off_c, 0, 67, 64
2, 121920, Note_on_c, 0, 66, 100
2, 121920, Note_off_c, 0, 64, 64
2, 121984, Note_on_c, 0, 45, 100
2, 121984, Note_off_c, 0, 33, 64
2, 121984, Note_on_c, 0, 64, 100
2, 122048, Note_off_c, 0, 67, 64
2, 122048, Note_on_c, 0, 67, 100
2, 122112, Note_off_c, 0, 71, 64
2, 122112, Note_on_c, 0, 71, 100
2, 122112, Note_off_c, 0, 64, 64
2, 122176, Note_off_c, 0, 67, 64
2, 122176, Note_off_c, 0, 64, 64
2, 122176, Note_off_c, 0, 59, 64
2, 122176, Note_on_c, 0, 64, 100
2, 122240, Note_off_c, 0, 64, 64
2, 122304, Note_on_c, 0, 64, 100
2, 122304, Note_off_c, 0, 66, 64
2, 122304, Note_on_c, 0, 62, 100
2, 122432, Note_off_c, 0, 62, 64
2, 122432, Note_off_c, 0, 61, 64
2, 122432, Note_on_c, 0, 59, 100
2, 122432, Note_off_c, 0, 64, 64
2, 122496, Note_on_c, 0, 66, 100
2, 122496, Note_on_c, 0, 64, 100
2, 122560, Note_off_c, 0, 66, 64
2, 122560, Note_on_c, 0, 66, 100
2, 122688, Note_off_c, 0, 59, 64
2, 122688, Note_on_c, 0, 61, 100
2, 122688, Note_on_c, 0, 33, 100
2, 122816, Note_off_c, 0, 66, 64
2, 122816, Note_off_c, 0, 64, 64
2, 122944, Note_on_c, 0, 63, 100
2, 122944, Note_on_c, 0, 64, 100
2, 123072, Note_off_c, 0, 64, 64
2, 123072, Note_on_c, 0, 68, 100
2, 123200, Note_off_c, 0, 68, 64
2, 123200, Note_off_c, 0, 71, 64
2, 123328, Note_on_c, 0, 71, 100
2, 123328, Note_on_c, 0, 69, 100
2, 123456, Note_off_c, 0, 69, 64
2, 123456, Note_off_c, 0, 61, 64
2, 123456, Note_on_c, 0, 59, 100
2, 123456, Note_on_c, 0, 64, 100
2, 123712, Note_off_c, 0, 64, 64
2, 123712, Note_on_c, 0, 61, 100
2, 123712, Note_off_c, 0, 59, 64
2, 123712, Note_off_c, 0, 57, 64
2, 123968, Note_on_c, 0, 57, 100
2, 123968, Note_on_c, 0, 80, 100
2, 123968, Note_on_c, 0, 59, 100
2, 123968, Note_on_c, 0, 56, 100
2, 123968, Note_on_c, 0, 37, 100
2, 124224, Note_off_c, 0, 80, 64
2, 124224, Note_off_c, 0, 59, 64
2, 124224, Note_off_c, 0, 61, 64
2, 124224, Note_off_c, 0, 56, 64
2, 124224, Note_on_c, 0, 56, 100
2, 124224, Note_off_c, 0, 37, 64
2, 124480, Note_on_c, 0, 61, 100
2, 124480, Note_off_c, 0, 56, 64
2, 124480, Note_off_c, 0, 57, 64
2, 124480, Note_on_c, 0, 57, 100
2, 124736, Note_off_c, 0, 76, 64
2, 124736, Note_on_c, 0, 76, 100
2, 124736, Note_off_c, 0, 57, 64
2, 124736, Note_on_c, 0, 56, 100
2, 124992, Note_off_c, 0, 56, 64
2, 124992, Note_off_c, 0, 76, 64
2, 124992, Note_off_c, 0, 74, 64
2, 124992, Note_on_c, 0, 59, 100
2, 125056, Note_on_c, 0, 74, 100
2, 125056, Note_on_c, 0, 73, 100
2, 125184, Note_off_c, 0, 73, 64
2, 125184, Note_off_c, 0, 71, 64
2, 125184, Note_on_c, 0, 71, 100
2, 125312, Note_off_c, 0, 71, 64
2, 125312, Note_off_c, 0, 64, 64
2, 125312, Note_off_c, 0, 61, 64
2, 125312, Note_on_c, 0, 64, 100
2, 125568, Note_off_c, 0, 66, 64
2, 125568, Note_on_c, 0, 66, 100
2, 125568, Note_off_c, 0, 59, 64
2, 125568, Note_off_c, 0, 54, 64
2, 125824, Note_off_c, 0, 64, 64
2, 125824, Note_on_c, 0, 68, 100
2, 125824, Note_on_c, 0, 59, 100
2, 125824, Note_on_c, 0, 56, 100
2, 125824, Note_off_c, 0, 52, 64
2, 125824, Note_on_c, 0, 71, 100
2, 125824, Note_on_c, 0, 52, 100
2, 126080, Note_off_c, 0, 66, 64
2, 126080, Note_on_c, 0, 66, 100
2, 126080, Note_off_c, 0, 68, 64
2, 126080, Note_off_c, 0, 78, 64
2, 126080, Note_on_c, 0, 78, 100
2, 126080, Note_on_c, 0, 49, 100
2, 126208, Note_on_c, 0, 73, 100
2, 126208, Note_off_c, 0, 71, 64
2, 126208, Note_on_c, 0, 68, 100
2, 126336, Note_off_c, 0, 71, 64
2, 126336, Note_off_c, 0, 73, 64
2, 126336, Note_on_c, 0, 71, 100
2, 126336, Note_off_c, 0, 68, 64
2, 126336, Note_on_c, 0, 70, 100
2, 126336, Note_off_c, 0, 66, 64
2, 126336, Note_off_c, 0, 56, 64
2, 126336, Note_off_c, 0, 49, 64
2, 126336, Note_on_c, 0, 76, 100
2, 126336, Note_on_c, 0, 49, 100
2, 126592, Note_off_c, 0, 71, 64
2, 126592, Note_on_c, 0, 66, 100
2, 126592, Note_off_c, 0, 76, 64
2, 126592, Note_on_c, 0, 68, 100
2, 126592, Note_off_c, 0, 74, 64
2, 126592, Note_on_c, 0, 73, 100
2, 126592, Note_on_c, 0, 76, 100
2, 126720, Note_off_c, 0, 74, 64
2, 126720, Note_off_c, 0, 78, 64
2, 126720, Note_off_c, 0, 68, 64
2, 126720, Note_on_c, 0, 74, 100
2, 126720, Note_off_c, 0, 73, 64
2, 126720, Note_off_c, 0, 70, 64
2, 126720, Note_off_c, 0, 66, 64
2, 126720, Note_off_c, 0, 59, 64
2, 126720, Note_off_c, 0, 76, 64
2, 126848, Note_off_c, 0, 59, 64
2, 126848, Note_on_c, 0, 66, 100
2, 126848, Note_on_c, 0, 73, 100
2, 126848, Note_on_c, 0, 76, 100
2, 126848, Note_off_c, 0, 71, 64
2, 126848, Note_off_c, 0, 70, 64
2, 126848, Note_off_c, 0, 68, 64
2, 126848, Note_off_c, 0, 73, 64
2, 126848, Note_on_c, 0, 73, 100
2, 126848, Note_off_c, 0, 62, 64
2, 126848, Note_on_c, 0, 71, 100
2, 126848, Note_on_c, 0, 70, 100
2, 126848, Note_on_c, 0, 54, 100
2, 126848, Note_off_c, 0, 74, 64
2, 126848, Note_on_c, 0, 68, 100
2, 126848, Note_on_c, 0, 62, 100
2, 126848, Note_on_c, 0, 59, 100
2, 126848, Note_on_c, 0, 64, 100
2, 126848, Note_off_c, 0, 73, 64
2, 126848, Note_off_c, 0, 49, 64
2, 127104, Note_off_c, 0, 64, 64
2, 127104, Note_on_c, 0, 73, 100
2, 127104, Note_on_c, 0, 69, 100
2, 127104, Note_on_c, 0, 64, 100
2, 127360, Note_off_c, 0, 73, 64
2, 127360, Note_off_c, 0, 76, 64
2, 127360, Note_off_c, 0, 69, 64
2, 127360, Note_on_c, 0, 69, 100
2, 127360, Note_on_c, 0, 76, 100
2, 127360, Note_off_c, 0, 76, 64
2, 127360, Note_on_c, 0, 73, 100
2, 127360, Note_off_c, 0, 69, 64
2, 127360, Note_off_c, 0, 61, 64
2, 127360, Note_off_c, 0, 73, 64
2, 127360, Note_on_c, 0, 69, 100
2, 127360, Note_on_c, 0, 61, 100
2, 127360, Note_off_c, 0, 57, 64
2, 127360, Note_on_c, 0, 57, 100
2, 127360, Note_off_c, 0, 54, 64
2, 127360, Note_off_c, 0, 64, 64
2, 127488, Note_on_c, 0, 76, 100
2, 127488, Note_on_c, 0, 73, 100
2, 127616, Note_off_c, 0, 79, 64
2, 127616, Note_off_c, 0, 76, 64
2, 127616, Note_on_c, 0, 79, 100
2, 127616, Note_off_c, 0, 69, 64
2, 127616, Note_off_c, 0, 57, 64
2, 127616, Note_off_c, 0, 73, 64
2, 127616, Note_on_c, 0, 73, 100
2, 127616, Note_off_c, 0, 66, 64
2, 127616, Note_on_c, 0, 57, 100
2, 127744, Note_off_c, 0, 78, 64
2, 127744, Note_off_c, 0, 73, 64
2, 127744, Note_on_c, 0, 74, 100
2, 127744, Note_on_c, 0, 78, 100
2, 127744, Note_off_c, 0, 69, 64
2, 127744, Note_on_c, 0, 69, 100
2, 127872, Note_off_c, 0, 69, 64
2, 127872, Note_on_c, 0, 66, 100
2, 127936, Note_off_c, 0, 74, 64
2, 127936, Note_on_c, 0, 69, 100
2, 127936, Note_off_c, 0, 61, 64
2, 127936, Note_off_c, 0, 66, 64
2, 127936, Note_off_c, 0, 71, 64
2, 127936, Note_on_c, 0, 76, 100
2, 127936, Note_off_c, 0, 76, 64
2, 127936, Note_off_c, 0, 78, 64
2, 127936, Note_on_c, 0, 74, 100
2, 127936, Note_on_c, 0, 71, 100
2, 127936, Note_on_c, 0, 76, 100
2, 127936, Note_off_c, 0, 73, 64
2, 127936, Note_on_c, 0, 73, 100
2, 127936, Note_off_c, 0, 71, 64
2, 127936, Note_on_c, 0, 71, 100
2, 128064, Note_on_c, 0, 78, 100
2, 128064, Note_off_c, 0, 79, 64
2, 128064, Note_on_c, 0, 79, 100
2, 128064, Note_off_c, 0, 71, 64
2, 128064, Note_on_c, 0, 66, 100
2, 128064, Note_off_c, 0, 66, 64
2, 128064, Note_on_c, 0, 66, 100
2, 128192, Note_off_c, 0, 62, 64
2, 128192, Note_on_c, 0, 62, 100
2, 128192, Note_off_c, 0, 78, 64
2, 128192, Note_off_c, 0, 74, 64
2, 128192, Note_on_c, 0, 61, 100
2, 128320, Note_off_c, 0, 74, 64
2, 128320, Note_off_c, 0, 76, 64
2, 128320, Note_off_c, 0, 71, 64
2, 128320, Note_off_c, 0, 79, 64
2, 128320, Note_on_c, 0, 79, 100
2, 128320, Note_on_c, 0, 74, 100
2, 128320, Note_on_c, 0, 71, 100
2, 128448, Note_off_c, 0, 79, 64
2, 128448, Note_on_c, 0, 79, 100
2, 128448, Note_off_c, 0, 61, 64
2, 128448, Note_off_c, 0, 76, 64
2, 128448, Note_off_c, 0, 71, 64
2, 128448, Note_on_c, 0, 76, 100
2, 128448, Note_off_c, 0, 62, 64
2, 128448, Note_on_c, 0, 61, 100
2, 128448, Note_off_c, 0, 57, 64
2, 128704, Note_off_c, 0, 61, 64
2, 128704, Note_off_c, 0, 66, 64
2, 128704, Note_on_c, 0, 57, 100
2, 128704, Note_on_c, 0, 66, 100
2, 128704, Note_on_c, 0, 62, 100
2, 128704, Note_on_c, 0, 61, 100
2, 128832, Note_off_c, 0, 73, 64
2, 128832, Note_off_c, 0, 76, 64
2, 128832, Note_off_c, 0, 79, 64
2, 128832, Note_on_c, 0, 73, 100
2, 128832, Note_off_c, 0, 74, 64
2, 128832, Note_on_c, 0, 74, 100
2, 128832, Note_off_c, 0, 61, 64
2, 128832, Note_off_c, 0, 62, 64
2, 128960, Note_on_c, 0, 76, 100
2, 128960, Note_off_c, 0, 78, 64
2, 128960, Note_on_c, 0, 78, 100
2, 128960, Note_off_c, 0, 74, 64
2, 128960, Note_off_c, 0, 62, 64
2, 128960, Note_on_c, 0, 61, 100
2, 128960, Note_off_c, 0, 69, 64
2, 128960, Note_on_c, 0, 69, 100
2, 128960, Note_off_c, 0, 66, 64
2, 128960, Note_on_c, 0, 62, 100
2, 129088, Note_off_c, 0, 71, 64
2, 129088, Note_on_c, 0, 71, 100
2, 129216, Note_off_c, 0, 71, 64
2, 129216, Note_off_c, 0, 73, 64
2, 129216, Note_on_c, 0, 64, 100
2, 129216, Note_on_c, 0, 66, 100
2, 129216, Note_off_c, 0, 66, 64
2, 129216, Note_on_c, 0, 66, 100
2, 129216, Note_off_c, 0, 61, 64
2, 129216, Note_off_c, 0, 69, 64
2, 129216, Note_on_c, 0, 71, 100
2, 129216, Note_off_c, 0, 62, 64
2, 129216, Note_off_c, 0, 57, 64
2, 129216, Note_off_c, 0, 71, 64
2, 129216, Note_on_c, 0, 69, 100
2, 129344, Note_off_c, 0, 66, 64
2, 129344, Note_on_c, 0, 67, 100
2, 129472, Note_off_c, 0, 64, 64
2, 129472, Note_off_c, 0, 62, 64
2, 129472, Note_on_c, 0, 62, 100
2, 129472, Note_off_c, 0, 66, 64
2, 129472, Note_on_c, 0, 66, 100
2, 129472, Note_off_c, 0, 67, 64
2, 129472, Note_on_c, 0, 72, 100
2, 129472, Note_on_c, 0, 71, 100
2, 129728, Note_on_c, 0, 64, 100
2, 129728, Note_off_c, 0, 66, 64
2, 129856, Note_off_c, 0, 69, 64
2, 129856, Note_off_c, 0, 71, 64
2, 129856, Note_on_c, 0, 71, 100
2, 129856, Note_on_c, 0, 67, 100
2, 129856, Note_off_c, 0, 64, 64
2, 129856, Note_on_c, 0, 57, 100
2, 129856, Note_off_c, 0, 62, 64
2, 129984, Note_off_c, 0, 67, 64
2, 129984, Note_off_c, 0, 69, 64
2, 129984, Note_on_c, 0, 69, 100
2, 129984, Note_on_c, 0, 64, 100
2, 129984, Note_off_c, 0, 64, 64
2, 129984, Note_on_c, 0, 64, 100
2, 130240, Note_off_c, 0, 59, 64
2, 130240, Note_on_c, 0, 59, 100
2, 130240, Note_off_c, 0, 76, 64
2, 130240, Note_on_c, 0, 76, 100
2, 130240, Note_off_c, 0, 76, 64
2, 130368, Note_off_c, 0, 69, 64
2, 130368, Note_on_c, 0, 74, 100
2, 130368, Note_on_c, 0, 69, 100
2, 130368, Note_off_c, 0, 71, 64
2, 130496, Note_off_c, 0, 59, 64
2, 130496, Note_off_c, 0, 57, 64
2, 130496, Note_on_c, 0, 57, 100
2, 130496, Note_on_c, 0, 62, 100
2, 130496, Note_off_c, 0, 74, 64
2, 130496, Note_on_c, 0, 76, 100
2, 130496, Note_on_c, 0, 71, 100
2, 130496, Note_on_c, 0, 67, 100
2, 130496, Note_off_c, 0, 69, 64
2, 130496, Note_off_c, 0, 64, 64
2, 130752, Note_off_c, 0, 62, 64
2, 130752, Note_off_c, 0, 57, 64
2, 130752, Note_on_c, 0, 59, 100
2, 130880, Note_off_c, 0, 67, 64
2, 130880, Note_on_c, 0, 67, 100
2, 131008, Note_off_c, 0, 76, 64
2, 131008, Note_off_c, 0, 67, 64
2, 131008, Note_off_c, 0, 62, 64
2, 131008, Note_off_c, 0, 59, 64
2, 131008, Note_on_c, 0, 64, 100
2, 131008, Note_on_c, 0, 67, 100
2, 131008, Note_off_c, 0, 67, 64
2, 131008, Note_on_c, 0, 57, 100
2, 131008, Note_on_c, 0, 62, 100
2, 131136, Note_on_c, 0, 69, 100
2, 131136, Note_off_c, 0, 71, 64
2, 131136, Note_on_c, 0, 67, 100
2, 131264, Note_off_c, 0, 57, 64
2, 131264, Note_on_c, 0, 57, 100
2, 131264, Note_off_c, 0, 76, 64
2, 131264, Note_on_c, 0, 76, 100
2, 131264, Note_on_c, 0, 73, 100
2, 131264, Note_off_c, 0, 67, 64
2, 131264, Note_off_c, 0, 64, 64
2, 131392, Note_on_c, 0, 64, 100
2, 131392, Note_off_c, 0, 62, 64
2, 131392, Note_off_c, 0, 55, 64
2, 131392, Note_off_c, 0, 57, 64
2, 131392, Note_on_c, 0, 54, 100
2, 131392, Note_off_c, 0, 54, 64
2, 131392, Note_on_c, 0, 54, 100
2, 131392, Note_on_c, 0, 55, 100
2, 131520, Note_off_c, 0, 72, 64
2, 131520, Note_on_c, 0, 72, 100
2, 131520, Note_off_c, 0, 64, 64
2, 131520, Note_on_c, 0, 64, 100
2, 131520, Note_on_c, 0, 62, 100
2, 131520, Note_off_c, 0, 62, 64
2, 131520, Note_on_c, 0, 57, 100
2, 131520, Note_off_c, 0, 54, 64
2, 131520, Note_off_c, 0, 55, 64
2, 131520, Note_off_c, 0, 72, 64
2, 131520, Note_on_c, 0, 62, 100
2, 131520, Note_on_c, 0, 50, 100
2, 131520, Note_off_c, 0, 76, 64
2, 131520, Note_off_c, 0, 69, 64
2, 131520, Note_off_c, 0, 67, 64
2, 131520, Note_on_c, 0, 67, 100
2, 131776, Note_on_c, 0, 76, 100
2, 131776, Note_off_c, 0, 72, 64
2, 131776, Note_on_c, 0, 72, 100
2, 131776, Note_off_c, 0, 50, 64
2, 131776, Note_off_c, 0, 57, 64
2, 131776, Note_off_c, 0, 45, 64
2, 131776, Note_off_c, 0, 74, 64
2, 131776, Note_on_c, 0, 74, 100
2, 131776, Note_on_c, 0, 69, 100
2, 131904, Note_off_c, 0, 72, 64
2, 131904, Note_off_c, 0, 69, 64
2, 132032, Note_off_c, 0, 72, 64
2, 132032, Note_on_c, 0, 72, 100
2, 132032, Note_on_c, 0, 45, 100
2, 132032, Note_on_c, 0, 47, 100
2, 132032, Note_on_c, 0, 57, 100
2, 132032, Note_off_c, 0, 76, 64
2, 132032, Note_on_c, 0, 69, 100
2, 132032, Note_off_c, 0, 74, 64
2, 132160, Note_off_c, 0, 75, 64
2, 132160, Note_on_c, 0, 59, 100
2, 132160, Note_off_c, 0, 72, 64
2, 132160, Note_on_c, 0, 74, 100
2, 132288, Note_off_c, 0, 47, 64
2, 132288, Note_off_c, 0, 45, 64
2, 132288, Note_off_c, 0, 74, 64
2, 132288, Note_on_c, 0, 75, 100
2, 132288, Note_on_c, 0, 72, 100
2, 132288, Note_on_c, 0, 71, 100
2, 132288, Note_on_c, 0, 66, 100
2, 132288, Note_off_c, 0, 63, 64
2, 132288, Note_on_c, 0, 63, 100
2, 132288, Note_off_c, 0, 59, 64
2, 132288, Note_off_c, 0, 60, 64
2, 132288, Note_off_c, 0, 57, 64
2, 132288, Note_on_c, 0, 57, 100
2, 132416, Note_off_c, 0, 71, 64
2, 132416, Note_off_c, 0, 72, 64
2, 132544, Note_off_c, 0, 66, 64
2, 132544, Note_off_c, 0, 62, 64
2, 132544, Note_off_c, 0, 57, 64
2, 132544, Note_on_c, 0, 62, 100
2, 132544, Note_off_c, 0, 62, 64
2, 132544, Note_on_c, 0, 42, 100
2, 132544, Note_on_c, 0, 43, 100
2, 132544, Note_on_c, 0, 57, 100
2, 132544, Note_on_c, 0, 72, 100
2, 132672, Note_off_c, 0, 72, 64
2, 132800, Note_on_c, 0, 72, 100
2, 132800, Note_off_c, 0, 75, 64
2, 132800, Note_on_c, 0, 62, 100
2, 132800, Note_off_c, 0, 60, 64
2, 132800, Note_on_c, 0, 60, 100
2, 132928, Note_on_c, 0, 75, 100
2, 132928, Note_off_c, 0, 69, 64
2, 132928, Note_on_c, 0, 69, 100
2, 133056, Note_off_c, 0, 60, 64
2, 133056, Note_off_c, 0, 62, 64
2, 133056, Note_on_c, 0, 60, 100
2, 133056, Note_on_c, 0, 71, 100
2, 133056, Note_off_c, 0, 43, 64
2, 133056, Note_on_c, 0, 55, 100
2, 133056, Note_on_c, 0, 43, 100
2, 133056, Note_off_c, 0, 70, 64
2, 133056, Note_on_c, 0, 70, 100
2, 133056, Note_on_c, 0, 81, 100
2, 133056, Note_on_c, 0, 79, 100
2, 133056, Note_on_c, 0, 62, 100
2, 133056, Note_off_c, 0, 63, 64
2, 133312, Note_off_c, 0, 81, 64
2, 133312, Note_on_c, 0, 82, 100
2, 133312, Note_off_c, 0, 62, 64
2, 133312, Note_on_c, 0, 63, 100
2, 133312, Note_off_c, 0, 60, 64
2, 133312, Note_off_c, 0, 72, 64
2, 133312, Note_off_c, 0, 69, 64
2, 133312, Note_on_c, 0, 69, 100
2, 133312, Note_on_c, 0, 62, 100
2, 133440, Note_off_c, 0, 46, 64
2, 133440, Note_on_c, 0, 46, 100
2, 133440, Note_off_c, 0, 69, 64
2, 133440, Note_off_c, 0, 79, 64
2, 133440, Note_off_c, 0, 75, 64
2, 133440, Note_off_c, 0, 63, 64
2, 133440, Note_on_c, 0, 66, 100
2, 133440, Note_off_c, 0, 74, 64
2, 133440, Note_on_c, 0, 74, 100
2, 133568, Note_off_c, 0, 63, 64
2, 133568, Note_on_c, 0, 48, 100
2, 133568, Note_on_c, 0, 45, 100
2, 133568, Note_off_c, 0, 46, 64
2, 133568, Note_off_c, 0, 36, 64
2, 133568, Note_off_c, 0, 62, 64
2, 133568, Note_off_c, 0, 67, 64
2, 133568, Note_off_c, 0, 70, 64
2, 133568, Note_off_c, 0, 66, 64
2, 133568, Note_on_c, 0, 72, 100
2, 133568, Note_on_c, 0, 81, 100
2, 133568, Note_on_c, 0, 63, 100
2, 133568, Note_on_c, 0, 70, 100
2, 133568, Note_off_c, 0, 74, 64
2, 133824, Note_off_c, 0, 72, 64
2, 133824, Note_on_c, 0, 66, 100
2, 133824, Note_on_c, 0, 62, 100
2, 133824, Note_on_c, 0, 67, 100
2, 133824, Note_off_c, 0, 78, 64
2, 133824, Note_on_c, 0, 75, 100
2, 134016, Note_off_c, 0, 81, 64
2, 134016, Note_on_c, 0, 79, 100
2, 134080, Note_off_c, 0, 78, 64
2, 134080, Note_off_c, 0, 79, 64
2, 134080, Note_on_c, 0, 79, 100
2, 134080, Note_off_c, 0, 70, 64
2, 134080, Note_off_c, 0, 69, 64
2, 134080, Note_on_c, 0, 74, 100
2, 134080, Note_on_c, 0, 72, 100
2, 134080, Note_on_c, 0, 78, 100
2, 134080, Note_off_c, 0, 64, 64
2, 134080, Note_on_c, 0, 69, 100
2, 134080, Note_off_c, 0, 48, 64
2, 134080, Note_on_c, 0, 46, 100
2, 134080, Note_on_c, 0, 34, 100
2, 134208, Note_off_c, 0, 69, 64
2, 134208, Note_off_c, 0, 74, 64
2, 134336, Note_off_c, 0, 77, 64
2, 134336, Note_on_c, 0, 77, 100
2, 134336, Note_off_c, 0, 69, 64
2, 134336, Note_on_c, 0, 69, 100
2, 134336, Note_off_c, 0, 67, 64
2, 134592, Note_on_c, 0, 70, 100
2, 134592, Note_on_c, 0, 67, 100
2, 134592, Note_off_c, 0, 77, 64
2, 134592, Note_on_c, 0, 74, 100
2, 134592, Note_off_c, 0, 72, 64
2, 134592, Note_off_c, 0, 76, 64
2, 134592, Note_on_c, 0, 76, 100
2, 134592, Note_off_c, 0, 67, 64
2, 134592, Note_off_c, 0, 69, 64
2, 134592, Note_on_c, 0, 72, 100
2, 134592, Note_on_c, 0, 67, 100
2, 134592, Note_off_c, 0, 67, 64
2, 134720, Note_off_c, 0, 72, 64
2, 134720, Note_off_c, 0, 76, 64
2, 134720, Note_off_c, 0, 70, 64
2, 134720, Note_on_c, 0, 72, 100
2, 134720, Note_on_c, 0, 69, 100
2, 134848, Note_off_c, 0, 70, 64
2, 134848, Note_on_c, 0, 67, 100
2, 134848, Note_off_c, 0, 62, 64
2, 134848, Note_on_c, 0, 70, 100
2, 134848, Note_off_c, 0, 69, 64
2, 134848, Note_on_c, 0, 69, 100
2, 134848, Note_off_c, 0, 74, 64
2, 134976, Note_off_c, 0, 79, 64
2, 134976, Note_on_c, 0, 77, 100
2, 134976, Note_off_c, 0, 67, 64
2, 135104, Note_off_c, 0, 79, 64
2, 135104, Note_off_c, 0, 76, 64
2, 135104, Note_off_c, 0, 77, 64
2, 135104, Note_on_c, 0, 67, 100
2, 135104, Note_off_c, 0, 70, 64
2, 135104, Note_on_c, 0, 65, 100
2, 135104, Note_off_c, 0, 69, 64
2, 135104, Note_off_c, 0, 60, 64
2, 135104, Note_on_c, 0, 60, 100
2, 135104, Note_off_c, 0, 43, 64
2, 135104, Note_off_c, 0, 45, 64
2, 135104, Note_on_c, 0, 79, 100
2, 135104, Note_on_c, 0, 69, 100
2, 135104, Note_on_c, 0, 70, 100
2, 135104, Note_off_c, 0, 72, 64
2, 135104, Note_on_c, 0, 72, 100
2, 135104, Note_on_c, 0, 77, 100
2, 135104, Note_on_c, 0, 81, 100
2, 135104, Note_on_c, 0, 76, 100
2, 135168, Note_off_c, 0, 79, 64
2, 135168, Note_off_c, 0, 77, 64
2, 135168, Note_off_c, 0, 81, 64
2, 135168, Note_on_c, 0, 81, 100
2, 135168, Note_on_c, 0, 74, 100
2, 135232, Note_off_c, 0, 74, 64
2, 135232, Note_off_c, 0, 76, 64
2, 135232, Note_off_c, 0, 77, 64
2, 135232, Note_on_c, 0, 79, 100
2, 135232, Note_on_c, 0, 77, 100
2, 135296, Note_off_c, 0, 77, 64
2, 135296, Note_off_c, 0, 79, 64
2, 135296, Note_on_c, 0, 76, 100
2, 135296, Note_on_c, 0, 74, 100
2, 135360, Note_off_c, 0, 74, 64
2, 135360, Note_off_c, 0, 77, 64
2, 135360, Note_off_c, 0, 81, 64
2, 135360, Note_on_c, 0, 81, 100
2, 135360, Note_on_c, 0, 74, 100
2, 135360, Note_off_c, 0, 76, 64
2, 135360, Note_on_c, 0, 77, 100
2, 135360, Note_off_c, 0, 72, 64
2, 135360, Note_off_c, 0, 74, 64
2, 135520, Note_on_c, 0, 74, 100
2, 135520, Note_off_c, 0, 81, 64
2, 135520, Note_off_c, 0, 69, 64
2, 135520, Note_off_c, 0, 77, 64
2, 135520, Note_off_c, 0, 65, 64
2, 135520, Note_on_c, 0, 65, 100
2, 135584, Note_on_c, 0, 77, 100
2, 135648, Note_on_c, 0, 76, 100
2, 135648, Note_off_c, 0, 76, 64
2, 135648, Note_off_c, 0, 69, 64
2, 135648, Note_off_c, 0, 65, 64
2, 135648, Note_on_c, 0, 65, 100
2, 135648, Note_off_c, 0, 60, 64
2, 135648, Note_on_c, 0, 60, 100
2, 135648, Note_on_c, 0, 76, 100
2, 135648, Note_off_c, 0, 76, 64
2, 135648, Note_off_c, 0, 77, 64
2, 135648, Note_on_c, 0, 69, 100
2, 135648, Note_on_c, 0, 72, 100
2, 135712, Note_off_c, 0, 72, 64
2, 135712, Note_off_c, 0, 70, 64
2, 135712, Note_on_c, 0, 70, 100
2, 135712, Note_off_c, 0, 74, 64
2, 135776, Note_off_c, 0, 65, 64
2, 135776, Note_on_c, 0, 77, 100
2, 135776, Note_on_c, 0, 72, 100
2, 135776, Note_on_c, 0, 81, 100
2, 135776, Note_off_c, 0, 72, 64
2, 135776, Note_off_c, 0, 81, 64
2, 135776, Note_off_c, 0, 70, 64
2, 135776, Note_on_c, 0, 74, 100
2, 135776, Note_on_c, 0, 72, 100
2, 135776, Note_off_c, 0, 72, 64
2, 135776, Note_on_c, 0, 81, 100
2, 135776, Note_off_c, 0, 67, 64
2, 135776, Note_on_c, 0, 79, 100
2, 135840, Note_off_c, 0, 79, 64
2, 135840, Note_off_c, 0, 81, 64
2, 135904, Note_off_c, 0, 77, 64
2, 135904, Note_off_c, 0, 74, 64
2, 135904, Note_on_c, 0, 67, 100
2, 135904, Note_off_c, 0, 69, 64
2, 135904, Note_on_c, 0, 72, 100
2, 135904, Note_on_c, 0, 76, 100
2, 135904, Note_on_c, 0, 69, 100
2, 135904, Note_off_c, 0, 65, 64
2, 135904, Note_on_c, 0, 65, 100
2, 136032, Note_off_c, 0, 76, 64
2, 136096, Note_off_c, 0, 79, 64
2, 136096, Note_on_c, 0, 79, 100
2, 136160, Note_off_c, 0, 72, 64
2, 136160, Note_on_c, 0, 64, 100
2, 136160, Note_on_c, 0, 76, 100
2, 136160, Note_off_c, 0, 84, 64
2, 136160, Note_on_c, 0, 77, 100
2, 136160, Note_off_c, 0, 79, 64
2, 136224, Note_off_c, 0, 72, 64
2, 136224, Note_off_c, 0, 76, 64
2, 136224, Note_off_c, 0, 70, 64
2, 136224, Note_on_c, 0, 70, 100
2, 136224, Note_off_c, 0, 67, 64
2, 136224, Note_on_c, 0, 67, 100
2, 136224, Note_off_c, 0, 79, 64
2, 136224, Note_on_c, 0, 81, 100
2, 136224, Note_on_c, 0, 79, 100
2, 136224, Note_on_c, 0, 72, 100
2, 136224, Note_off_c, 0, 82, 64
2, 136288, Note_off_c, 0, 72, 64
2, 136288, Note_off_c, 0, 81, 64
2, 136352, Note_off_c, 0, 72, 64
2, 136352, Note_off_c, 0, 70, 64
2, 136352, Note_on_c, 0, 76, 100
2, 136352, Note_off_c, 0, 74, 64
2, 136352, Note_on_c, 0, 74, 100
2, 136352, Note_on_c, 0, 72, 100
2, 136352, Note_off_c, 0, 67, 64
2, 136352, Note_on_c, 0, 67, 100
2, 136480, Note_off_c, 0, 60, 64
2, 136480, Note_off_c, 0, 64, 64
2, 136480, Note_off_c, 0, 72, 64
2, 136480, Note_on_c, 0, 45, 100
2, 136480, Note_off_c, 0, 33, 64
2, 136480, Note_on_c, 0, 72, 100
2, 136480, Note_on_c, 0, 64, 100
2, 136480, Note_off_c, 0, 69, 64
2, 136480, Note_off_c, 0, 64, 64
2, 136480, Note_on_c, 0, 60, 100
2, 136480, Note_off_c, 0, 72, 64
2, 136480, Note_off_c, 0, 76, 64
2, 136480, Note_on_c, 0, 76, 100
2, 136480, Note_off_c, 0, 76, 64
2, 136480, Note_off_c, 0, 73, 64
2, 136608, Note_on_c, 0, 73, 100
2, 136608, Note_off_c, 0, 73, 64
2, 136608, Note_off_c, 0, 60, 64
2, 136608, Note_on_c, 0, 73, 100
2, 136608, Note_on_c, 0, 69, 100
2, 136608, Note_on_c, 0, 70, 100
2, 136672, Note_off_c, 0, 69, 64
2, 136672, Note_on_c, 0, 64, 100
2, 136672, Note_off_c, 0, 70, 64
2, 136736, Note_off_c, 0, 73, 64
2, 136736, Note_off_c, 0, 69, 64
2, 136736, Note_on_c, 0, 70, 100
2, 136736, Note_on_c, 0, 69, 100
2, 136736, Note_off_c, 0, 67, 64
2, 136736, Note_on_c, 0, 67, 100
2, 136736, Note_off_c, 0, 77, 64
2, 136736, Note_on_c, 0, 76, 100
2, 136736, Note_off_c, 0, 74, 64
2, 136736, Note_off_c, 0, 65, 64
2, 136736, Note_on_c, 0, 65, 100
2, 136800, Note_off_c, 0, 69, 64
2, 136864, Note_off_c, 0, 66, 64
2, 136864, Note_on_c, 0, 66, 100
2, 136864, Note_off_c, 0, 70, 64
2, 136864, Note_on_c, 0, 69, 100
2, 136864, Note_off_c, 0, 66, 64
2, 136864, Note_off_c, 0, 64, 64
2, 136864, Note_on_c, 0, 66, 100
2, 136992, Note_on_c, 0, 74, 100
2, 136992, Note_on_c, 0, 73, 100
2, 136992, Note_off_c, 0, 69, 64
2, 136992, Note_on_c, 0, 70, 100
2, 136992, Note_off_c, 0, 66, 64
2, 136992, Note_on_c, 0, 66, 100
2, 137056, Note_on_c, 0, 69, 100
2, 137056, Note_on_c, 0, 64, 100
2, 137056, Note_off_c, 0, 66, 64
2, 137120, Note_off_c, 0, 73, 64
2, 137120, Note_off_c, 0, 74, 64
2, 137120, Note_off_c, 0, 76, 64
2, 137120, Note_off_c, 0, 70, 64
2, 137120, Note_on_c, 0, 70, 100
2, 137120, Note_off_c, 0, 69, 64
2, 137120, Note_on_c, 0, 74, 100
2, 137120, Note_off_c, 0, 74, 64
2, 137248, Note_on_c, 0, 73, 100
2, 137248, Note_off_c, 0, 73, 64
2, 137248, Note_on_c, 0, 73, 100
2, 137248, Note_off_c, 0, 69, 64
2, 137248, Note_on_c, 0, 69, 100
2, 137376, Note_off_c, 0, 69, 64
2, 137376, Note_off_c, 0, 74, 64
2, 137376, Note_on_c, 0, 74, 100
2, 137376, Note_off_c, 0, 73, 64
2, 137376, Note_off_c, 0, 65, 64
2, 137376, Note_on_c, 0, 65, 100
2, 137504, Note_off_c, 0, 74, 64
2, 137504, Note_off_c, 0, 65, 64
2, 137504, Note_on_c, 0, 69, 100
2, 137504, Note_off_c, 0, 73, 64
2, 137504, Note_on_c, 0, 73, 100
2, 137504, Note_on_c, 0, 74, 100
2, 137504, Note_on_c, 0, 65, 100
2, 137504, Note_off_c, 0, 65, 64
2, 137504, Note_on_c, 0, 65, 100
2, 137632, Note_off_c, 0, 74, 64
2, 137632, Note_on_c, 0, 62, 100
2, 137632, Note_off_c, 0, 65, 64
2, 137632, Note_on_c, 0, 65, 100
2, 137632, Note_off_c, 0, 69, 64
2, 137632, Note_off_c, 0, 62, 64
2, 137632, Note_on_c, 0, 62, 100
2, 137632, Note_off_c, 0, 73, 64
2, 137696, Note_on_c, 0, 61, 100
2, 137760, Note_off_c, 0, 65, 64
2, 137760, Note_on_c, 0, 58, 100
2, 137760, Note_off_c, 0, 62, 64
2, 137760, Note_on_c, 0, 69, 100
2, 137760, Note_on_c, 0, 65, 100
2, 137760, Note_off_c, 0, 74, 64
2, 137760, Note_on_c, 0, 74, 100
2, 137888, Note_off_c, 0, 62, 64
2, 137888, Note_on_c, 0, 62, 100
2, 137888, Note_off_c, 0, 70, 64
2, 137888, Note_on_c, 0, 70, 100
2, 137888, Note_off_c, 0, 67, 64
2, 137888, Note_on_c, 0, 67, 100
2, 138016, Note_on_c, 0, 77, 100
2, 138016, Note_off_c, 0, 67, 64
2, 138016, Note_off_c, 0, 79, 64
2, 138016, Note_off_c, 0, 64, 64
2, 138016, Note_on_c, 0, 64, 100
2, 138016, Note_off_c, 0, 65, 64
2, 138016, Note_on_c, 0, 79, 100
2, 138016, Note_off_c, 0, 61, 64
2, 138016, Note_off_c, 0, 58, 64
2, 138144, Note_off_c, 0, 74, 64
2, 138144, Note_on_c, 0, 65, 100
2, 138144, Note_off_c, 0, 67, 64
2, 138144, Note_on_c, 0, 67, 100
2, 138144, Note_on_c, 0, 61, 100
2, 138144, Note_off_c, 0, 62, 64
2, 138144, Note_on_c, 0, 62, 100
2, 138144, Note_on_c, 0, 58, 100
2, 138144, Note_off_c, 0, 57, 64
2, 138144, Note_on_c, 0, 57, 100
2, 138272, Note_off_c, 0, 57, 64
2, 138272, Note_off_c, 0, 62, 64
2, 138272, Note_off_c, 0, 69, 64
2, 138272, Note_on_c, 0, 69, 100
2, 138272, Note_off_c, 0, 67, 64
2, 138272, Note_on_c, 0, 62, 100
2, 138272, Note_off_c, 0, 61, 64
2, 138272, Note_on_c, 0, 61, 100
2, 138272, Note_off_c, 0, 77, 64
2, 138272, Note_on_c, 0, 77, 100
2, 138400, Note_off_c, 0, 61, 64
2, 138400, Note_off_c, 0, 57, 64
2, 138400, Note_on_c, 0, 57, 100
2, 138400, Note_on_c, 0, 76, 100
2, 138400, Note_off_c, 0, 73, 64
2, 138400, Note_on_c, 0, 73, 100
2, 138400, Note_on_c, 0, 74, 100
2, 138528, Note_off_c, 0, 73, 64
2, 138528, Note_off_c, 0, 57, 64
2, 138528, Note_on_c, 0, 53, 100
2, 138528, Note_off_c, 0, 74, 64
2, 138528, Note_off_c, 0, 64, 64
2, 138528, Note_off_c, 0, 67, 64
2, 138528, Note_on_c, 0, 67, 100
2, 138528, Note_off_c, 0, 76, 64
2, 138528, Note_off_c, 0, 70, 64
2, 138528, Note_on_c, 0, 74, 100
2, 138656, Note_on_c, 0, 54, 100
2, 138656, Note_on_c, 0, 57, 100
2, 138656, Note_on_c, 0, 64, 100
2, 138656, Note_off_c, 0, 67, 64
2, 138656, Note_off_c, 0, 64, 64
2, 138656, Note_on_c, 0, 64, 100
2, 138784, Note_off_c, 0, 57, 64
2, 138784, Note_on_c, 0, 57, 100
2, 138784, Note_off_c, 0, 65, 64
2, 138784, Note_on_c, 0, 65, 100
2, 138784, Note_on_c, 0, 67, 100
2, 138784, Note_off_c, 0, 69, 64
2, 138912, Note_off_c, 0, 57, 64
2, 138912, Note_off_c, 0, 58, 64
2, 138912, Note_on_c, 0, 58, 100
2, 139040, Note_off_c, 0, 58, 64
2, 139040, Note_on_c, 0, 58, 100
2, 139040, Note_off_c, 0, 74, 64
2, 139040, Note_on_c, 0, 74, 100
2, 139040, Note_off_c, 0, 77, 64
2, 139040, Note_off_c, 0, 65, 64
2, 139040, Note_on_c, 0, 65, 100
2, 139040, Note_on_c, 0, 70, 100
2, 139040, Note_off_c, 0, 69, 64
2, 139040, Note_on_c, 0, 69, 100
2, 139040, Note_on_c, 0, 77, 100
2, 139040, Note_off_c, 0, 77, 64
2, 139040, Note_off_c, 0, 62, 64
2, 139040, Note_on_c, 0, 62, 100
2, 139168, Note_off_c, 0, 65, 64
2, 139168, Note_on_c, 0, 65, 100
2, 139168, Note_off_c, 0, 58, 64
2, 139168, Note_off_c, 0, 57, 64
2, 139168, Note_on_c, 0, 57, 100
2, 139296, Note_off_c, 0, 57, 64
2, 139296, Note_off_c, 0, 74, 64
2, 139296, Note_off_c, 0, 76, 64
2, 139296, Note_on_c, 0, 76, 100
2, 139296, Note_off_c, 0, 58, 64
2, 139296, Note_on_c, 0, 58, 100
2, 139296, Note_off_c, 0, 69, 64
2, 139296, Note_off_c, 0, 77, 64
2, 139296, Note_on_c, 0, 77, 100
2, 139296, Note_on_c, 0, 57, 100
2, 139296, Note_on_c, 0, 69, 100
2, 139424, Note_off_c, 0, 57, 64
2, 139424, Note_off_c, 0, 52, 64
2, 139424, Note_on_c, 0, 52, 100
2, 139552, Note_off_c, 0, 52, 64
2, 139552, Note_off_c, 0, 76, 64
2, 139552, Note_on_c, 0, 57, 100
2, 139552, Note_off_c, 0, 62, 64
2, 139552, Note_off_c, 0, 65, 64
2, 139552, Note_on_c, 0, 65, 100
2, 139552, Note_off_c, 0, 69, 64
2, 139552, Note_on_c, 0, 69, 100
2, 139552, Note_off_c, 0, 81, 64
2, 139552, Note_on_c, 0, 81, 100
2, 139680, Note_off_c, 0, 58, 64
2, 139680, Note_off_c, 0, 57, 64
2, 139680, Note_on_c, 0, 57, 100
2, 139680, Note_off_c, 0, 62, 64
2, 139680, Note_on_c, 0, 62, 100
2, 139680, Note_off_c, 0, 65, 64
2, 139680, Note_off_c, 0, 69, 64
2, 139808, Note_off_c, 0, 57, 64
2, 139808, Note_off_c, 0, 53, 64
2, 139808, Note_on_c, 0, 53, 100
2, 139808, Note_off_c, 0, 62, 64
2, 139808, Note_off_c, 0, 64, 64
2, 139808, Note_on_c, 0, 57, 100
2, 139808, Note_off_c, 0, 57, 64
2, 139808, Note_off_c, 0, 77, 64
2, 139808, Note_on_c, 0, 77, 100
2, 139808, Note_on_c, 0, 57, 100
2, 139808, Note_off_c, 0, 57, 64
2, 139936, Note_on_c, 0, 57, 100
2, 139936, Note_off_c, 0, 58, 64
2, 139936, Note_on_c, 0, 58, 100
2, 140064, Note_off_c, 0, 53, 64
2, 140064, Note_off_c, 0, 79, 64
2, 140064, Note_on_c, 0, 79, 100
2, 140064, Note_off_c, 0, 52, 64
2, 140064, Note_on_c, 0, 52, 100
2, 140064, Note_on_c, 0, 64, 100
2, 140064, Note_off_c, 0, 64, 64
2, 140064, Note_on_c, 0, 64, 100
2, 140192, Note_off_c, 0, 77, 64
2, 140192, Note_off_c, 0, 79, 64
2, 140192, Note_off_c, 0, 58, 64
2, 140192, Note_off_c, 0, 52, 64
2, 140192, Note_on_c, 0, 65, 100
2, 140192, Note_off_c, 0, 53, 64
2, 140192, Note_on_c, 0, 53, 100
2, 140192, Note_on_c, 0, 69, 100
2, 140192, Note_off_c, 0, 60, 64
2, 140192, Note_on_c, 0, 60, 100
2, 140320, Note_off_c, 0, 69, 64
2, 140320, Note_off_c, 0, 67, 64
2, 140320, Note_on_c, 0, 67, 100
2, 140320, Note_off_c, 0, 53, 64
2, 140320, Note_on_c, 0, 53, 100
2, 140320, Note_off_c, 0, 52, 64
2, 140320, Note_on_c, 0, 52, 100
2, 140320, Note_off_c, 0, 55, 64
2, 140320, Note_on_c, 0, 55, 100
2, 140320, Note_on_c, 0, 79, 100
2, 140320, Note_off_c, 0, 65, 64
2, 140320, Note_off_c, 0, 59, 64
2, 140320, Note_on_c, 0, 59, 100
2, 140448, Note_off_c, 0, 79, 64
2, 140448, Note_off_c, 0, 57, 64
2, 140448, Note_on_c, 0, 57, 100
2, 140448, Note_off_c, 0, 55, 64
2, 140448, Note_off_c, 0, 53, 64
2, 140448, Note_on_c, 0, 65, 100
2, 140448, Note_off_c, 0, 59, 64
2, 140448, Note_on_c, 0, 59, 100
2, 140576, Note_off_c, 0, 52, 64
2, 140576, Note_off_c, 0, 53, 64
2, 140576, Note_on_c, 0, 53, 100
2, 140576, Note_off_c, 0, 67, 64
2, 140576, Note_off_c, 0, 65, 64
2, 140576, Note_on_c, 0, 65, 100
2, 140576, Note_off_c, 0, 60, 64
2, 140576, Note_on_c, 0, 60, 100
2, 140576, Note_off_c, 0, 57, 64
2, 140576, Note_on_c, 0, 57, 100
2, 140704, Note_off_c, 0, 65, 64
2, 140704, Note_off_c, 0, 60, 64
2, 140704, Note_off_c, 0, 57, 64
2, 140704, Note_off_c, 0, 59, 64
2, 140704, Note_on_c, 0, 59, 100
2, 140832, Note_off_c, 0, 53, 64
2, 140832, Note_off_c, 0, 59, 64
2, 140832, Note_off_c, 0, 69, 64
2, 140832, Note_on_c, 0, 69, 100
2, 140832, Note_off_c, 0, 65, 64
2, 140832, Note_on_c, 0, 65, 100
2, 140832, Note_on_c, 0, 50, 100
2, 140832, Note_off_c, 0, 50, 64
2, 140832, Note_on_c, 0, 50, 100
2, 140960, Note_off_c, 0, 50, 64
2, 140960, Note_off_c, 0, 48, 64
2, 140960, Note_on_c, 0, 48, 100
2, 140960, Note_off_c, 0, 65, 64
2, 140960, Note_on_c, 0, 65, 100
2, 140960, Note_off_c, 0, 64, 64
2, 140960, Note_on_c, 0, 64, 100
2, 141024, Note_on_c, 0, 47, 100
2, 141088, Note_off_c, 0, 48, 64
2, 141088, Note_on_c, 0, 48, 100
2, 141088, Note_off_c, 0, 64, 64
2, 141088, Note_off_c, 0, 74, 64
2, 141088, Note_on_c, 0, 74, 100
2, 141088, Note_off_c, 0, 69, 64
2, 141088, Note_off_c, 0, 67, 64
2, 141088, Note_on_c, 0, 67, 100
2, 141216, Note_off_c, 0, 48, 64
2, 141216, Note_on_c, 0, 52, 100
2, 141216, Note_off_c, 0, 67, 64
2, 141216, Note_off_c, 0, 65, 64
2, 141216, Note_off_c, 0, 74, 64
2, 141344, Note_off_c, 0, 52, 64
2, 141344, Note_off_c, 0, 53, 64
2, 141344, Note_on_c, 0, 53, 100
2, 141344, Note_off_c, 0, 69, 64
2, 141344, Note_on_c, 0, 69, 100
2, 141472, Note_off_c, 0, 53, 64
2, 141472, Note_on_c, 0, 52, 100
2, 141472, Note_off_c, 0, 52, 64
2, 141472, Note_off_c, 0, 69, 64
2, 141472, Note_off_c, 0, 67, 64
2, 141472, Note_on_c, 0, 67, 100
2, 141472, Note_on_c, 0, 52, 100
2, 141600, Note_off_c, 0, 52, 64
2, 141600, Note_off_c, 0, 67, 64
2, 141600, Note_on_c, 0, 67, 100
2, 141600, Note_off_c, 0, 49, 64
2, 141600, Note_on_c, 0, 49, 100
2, 141600, Note_off_c, 0, 43, 64
2, 141600, Note_on_c, 0, 43, 100
2, 141600, Note_off_c, 0, 67, 64
2, 141728, Note_off_c, 0, 43, 64
2, 141728, Note_off_c, 0, 41, 64
2, 141728, Note_on_c, 0, 41, 100
2, 141728, Note_off_c, 0, 77, 64
2, 141728, Note_on_c, 0, 77, 100
2, 141856, Note_off_c, 0, 43, 64
2, 141856, Note_on_c, 0, 43, 100
2, 141856, Note_off_c, 0, 70, 64
2, 141856, Note_off_c, 0, 77, 64
2, 141856, Note_on_c, 0, 77, 100
2, 141856, Note_off_c, 0, 74, 64
2, 141856, Note_on_c, 0, 74, 100
2, 141984, Note_off_c, 0, 77, 64
2, 141984, Note_off_c, 0, 74, 64
2, 141984, Note_off_c, 0, 41, 64
2, 141984, Note_off_c, 0, 43, 64
2, 141984, Note_off_c, 0, 86, 64
2, 141984, Note_on_c, 0, 86, 100
2, 141984, Note_on_c, 0, 74, 100
2, 141984, Note_off_c, 0, 74, 64
2, 141984, Note_off_c, 0, 46, 64
2, 141984, Note_on_c, 0, 46, 100
2, 142112, Note_off_c, 0, 53, 64
2, 142112, Note_on_c, 0, 53, 100
2, 142112, Note_off_c, 0, 74, 64
2, 142112, Note_on_c, 0, 74, 100
2, 142112, Note_off_c, 0, 76, 64
2, 142112, Note_on_c, 0, 76, 100
2, 142112, Note_on_c, 0, 65, 100
2, 142112, Note_on_c, 0, 67, 100
2, 142240, Note_off_c, 0, 46, 64
2, 142240, Note_off_c, 0, 53, 64
2, 142240, Note_off_c, 0, 84, 64
2, 142240, Note_on_c, 0, 84, 100
2, 142240, Note_off_c, 0, 86, 64
2, 142240, Note_on_c, 0, 86, 100
2, 142240, Note_on_c, 0, 41, 100
2, 142368, Note_off_c, 0, 41, 64
2, 142368, Note_off_c, 0, 45, 64
2, 142368, Note_on_c, 0, 45, 100
2, 142368, Note_on_c, 0, 53, 100
2, 142368, Note_off_c, 0, 65, 64
2, 142368, Note_off_c, 0, 64, 64
2, 142368, Note_on_c, 0, 64, 100
2, 142496, Note_off_c, 0, 45, 64
2, 142496, Note_off_c, 0, 84, 64
2, 142496, Note_off_c, 0, 88, 64
2, 142496, Note_on_c, 0, 88, 100
2, 142496, Note_off_c, 0, 79, 64
2, 142496, Note_on_c, 0, 79, 100
2, 142496, Note_off_c, 0, 67, 64
2, 142496, Note_on_c, 0, 67, 100
2, 142560, Note_off_c, 0, 67, 64
2, 142560, Note_on_c, 0, 77, 100
2, 142560, Note_on_c, 0, 65, 100
2, 142624, Note_on_c, 0, 45, 100
2, 142624, Note_off_c, 0, 38, 64
2, 142688, Note_off_c, 0, 67, 64
2, 142688, Note_on_c, 0, 67, 100
2, 142688, Note_off_c, 0, 81, 64
2, 142688, Note_on_c, 0, 81, 100
2, 142688, Note_off_c, 0, 76, 64
2, 142688, Note_off_c, 0, 75, 64
2, 142752, Note_on_c, 0, 84, 100
2, 142752, Note_off_c, 0, 82, 64
2, 142752, Note_on_c, 0, 82, 100
2, 142752, Note_on_c, 0, 55, 100
2, 142752, Note_on_c, 0, 76, 100
2, 142752, Note_on_c, 0, 36, 100
2, 142816, Note_off_c, 0, 77, 64
2, 142816, Note_off_c, 0, 86, 64
2, 142816, Note_on_c, 0, 86, 100
2, 142816, Note_off_c, 0, 81, 64
2, 142816, Note_on_c, 0, 81, 100
2, 142816, Note_off_c, 0, 55, 64
2, 142816, Note_off_c, 0, 65, 64
2, 142816, Note_off_c, 0, 70, 64
2, 142816, Note_on_c, 0, 70, 100
2, 142880, Note_off_c, 0, 81, 64
2, 142880, Note_on_c, 0, 77, 100
2, 142880, Note_off_c, 0, 86, 64
2, 142880, Note_off_c, 0, 76, 64
2, 142944, Note_on_c, 0, 86, 100
2, 142944, Note_off_c, 0, 74, 64
2, 142944, Note_off_c, 0, 70, 64
2, 142944, Note_on_c, 0, 70, 100
2, 142944, Note_off_c, 0, 43, 64
2, 142944, Note_off_c, 0, 82, 64
2, 142944, Note_off_c, 0, 64, 64
2, 142944, Note_on_c, 0, 64, 100
2, 142944, Note_on_c, 0, 43, 100
2, 142944, Note_on_c, 0, 82, 100
2, 142944, Note_on_c, 0, 76, 100
2, 142944, Note_on_c, 0, 74, 100
2, 143072, Note_off_c, 0, 76, 64
2, 143072, Note_off_c, 0, 81, 64
2, 143072, Note_on_c, 0, 81, 100
2, 143072, Note_on_c, 0, 69, 100
2, 143072, Note_off_c, 0, 67, 64
2, 143072, Note_on_c, 0, 67, 100
2, 143072, Note_off_c, 0, 43, 64
2, 143072, Note_off_c, 0, 48, 64
2, 143072, Note_on_c, 0, 48, 100
2, 143072, Note_off_c, 0, 77, 64
2, 143072, Note_on_c, 0, 77, 100
2, 143072, Note_on_c, 0, 65, 100
2, 143072, Note_off_c, 0, 67, 64
2, 143072, Note_off_c, 0, 74, 64
2, 143072, Note_on_c, 0, 74, 100
2, 143072, Note_on_c, 0, 72, 100
2, 143200, Note_off_c, 0, 48, 64
2, 143200, Note_off_c, 0, 74, 64
2, 143200, Note_on_c, 0, 74, 100
2, 143200, Note_off_c, 0, 46, 64
2, 143200, Note_on_c, 0, 46, 100
2, 143200, Note_off_c, 0, 53, 64
2, 143200, Note_on_c, 0, 53, 100
2, 143200, Note_off_c, 0, 82, 64
2, 143200, Note_on_c, 0, 82, 100
2, 143328, Note_off_c, 0, 45, 64
2, 143328, Note_on_c, 0, 45, 100
2, 143392, Note_off_c, 0, 53, 64
2, 143392, Note_off_c, 0, 52, 64
2, 143392, Note_on_c, 0, 52, 100
2, 143456, Note_off_c, 0, 81, 64
2, 143456, Note_off_c, 0, 77, 64
2, 143456, Note_off_c, 0, 74, 64
2, 143456, Note_off_c, 0, 76, 64
2, 143456, Note_on_c, 0, 76, 100
2, 143456, Note_off_c, 0, 40, 64
2, 143456, Note_on_c, 0, 40, 100
2, 143456, Note_off_c, 0, 52, 64
2, 143456, Note_on_c, 0, 52, 100
2, 143584, Note_off_c, 0, 40, 64
2, 143584, Note_off_c, 0, 52, 64
2, 143584, Note_on_c, 0, 40, 100
2, 143584, Note_off_c, 0, 76, 64
2, 143584, Note_off_c, 0, 84, 64
2, 143584, Note_on_c, 0, 84, 100
2, 143584, Note_on_c, 0, 76, 100
2, 143584, Note_off_c, 0, 67, 64
2, 143584, Note_on_c, 0, 67, 100
2, 143584, Note_off_c, 0, 65, 64
2, 143584, Note_on_c, 0, 65, 100
2, 143712, Note_on_c, 0, 38, 100
2, 143712, Note_off_c, 0, 84, 64
2, 143712, Note_on_c, 0, 84, 100
2, 143712, Note_on_c, 0, 50, 100
2, 143712, Note_off_c, 0, 50, 64
2, 143712, Note_on_c, 0, 50, 100
2, 143712, Note_off_c, 0, 76, 64
2, 143712, Note_on_c, 0, 76, 100
2, 143840, Note_off_c, 0, 50, 64
2, 143840, Note_off_c, 0, 48, 64
2, 143840, Note_on_c, 0, 48, 100
2, 143840, Note_on_c, 0, 77, 100
2, 143840, Note_off_c, 0, 76, 64
2, 143840, Note_off_c, 0, 82, 64
2, 143840, Note_on_c, 0, 82, 100
2, 143840, Note_off_c, 0, 67, 64
2, 143840, Note_off_c, 0, 64, 64
2, 143840, Note_on_c, 0, 64, 100
2, 143968, Note_off_c, 0, 48, 64
2, 143968, Note_off_c, 0, 79, 64
2, 143968, Note_off_c, 0, 76, 64
2, 143968, Note_on_c, 0, 81, 100
2, 143968, Note_off_c, 0, 45, 64
2, 143968, Note_off_c, 0, 50, 64
2, 143968, Note_off_c, 0, 69, 64
2, 143968, Note_on_c, 0, 76, 100
2, 143968, Note_off_c, 0, 74, 64
2, 143968, Note_on_c, 0, 50, 100
2, 143968, Note_off_c, 0, 38, 64
2, 143968, Note_off_c, 0, 67, 64
2, 143968, Note_on_c, 0, 67, 100
2, 143968, Note_off_c, 0, 64, 64
2, 143968, Note_on_c, 0, 64, 100
2, 143968, Note_off_c, 0, 65, 64
2, 143968, Note_on_c, 0, 65, 100
2, 143968, Note_on_c, 0, 74, 100
2, 144096, Note_off_c, 0, 67, 64
2, 144096, Note_off_c, 0, 66, 64
2, 144096, Note_on_c, 0, 66, 100
2, 144096, Note_off_c, 0, 50, 64
2, 144096, Note_on_c, 0, 50, 100
2, 144096, Note_on_c, 0, 38, 100
2, 144096, Note_off_c, 0, 81, 64
2, 144096, Note_off_c, 0, 76, 64
2, 144096, Note_on_c, 0, 76, 100
2, 144096, Note_on_c, 0, 81, 100
2, 144224, Note_off_c, 0, 81, 64
2, 144224, Note_on_c, 0, 80, 100
2, 144224, Note_off_c, 0, 80, 64
2, 144224, Note_off_c, 0, 50, 64
2, 144224, Note_on_c, 0, 50, 100
2, 144224, Note_off_c, 0, 76, 64
2, 144224, Note_on_c, 0, 80, 100
2, 144224, Note_off_c, 0, 74, 64
2, 144224, Note_on_c, 0, 74, 100
2, 144224, Note_off_c, 0, 38, 64
2, 144352, Note_on_c, 0, 81, 100
2, 144352, Note_off_c, 0, 81, 64
2, 144352, Note_off_c, 0, 80, 64
2, 144352, Note_on_c, 0, 80, 100
2, 144352, Note_on_c, 0, 81, 100
2, 144352, Note_off_c, 0, 80, 64
2, 144352, Note_on_c, 0, 80, 100
2, 144352, Note_off_c, 0, 74, 64
2, 144352, Note_off_c, 0, 66, 64
2, 144352, Note_off_c, 0, 68, 64
2, 144352, Note_off_c, 0, 64, 64
2, 144480, Note_off_c, 0, 80, 64
2, 144480, Note_off_c, 0, 78, 64
2, 144480, Note_on_c, 0, 78, 100
2, 144480, Note_off_c, 0, 50, 64
2, 144480, Note_on_c, 0, 50, 100
2, 144480, Note_on_c, 0, 68, 100
2, 144480, Note_off_c, 0, 64, 64
2, 144480, Note_on_c, 0, 64, 100
2, 144480, Note_off_c, 0, 74, 64
2, 144480, Note_on_c, 0, 74, 100
2, 144480, Note_off_c, 0, 69, 64
2, 144480, Note_on_c, 0, 69, 100
2, 144608, Note_off_c, 0, 78, 64
2, 144608, Note_off_c, 0, 68, 64
2, 144608, Note_off_c, 0, 74, 64
2, 144608, Note_off_c, 0, 69, 64
2, 144608, Note_off_c, 0, 50, 64
2, 144608, Note_on_c, 0, 68, 100
2, 144608, Note_off_c, 0, 68, 64
2, 144608, Note_off_c, 0, 64, 64
2, 144608, Note_off_c, 0, 71, 64
2, 144608, Note_on_c, 0, 71, 100
2, 144608, Note_off_c, 0, 62, 64
2, 144608, Note_on_c, 0, 62, 100
2, 144736, Note_off_c, 0, 71, 64
2, 144736, Note_on_c, 0, 69, 100
2, 144736, Note_off_c, 0, 69, 64
2, 144736, Note_off_c, 0, 62, 64
2, 144736, Note_off_c, 0, 47, 64
2, 144736, Note_on_c, 0, 47, 100
2, 144736, Note_on_c, 0, 69, 100
2, 144736, Note_off_c, 0, 68, 64
2, 144736, Note_on_c, 0, 68, 100
2, 144864, Note_off_c, 0, 69, 64
2, 144864, Note_on_c, 0, 69, 100
2, 144864, Note_off_c, 0, 69, 64
2, 144864, Note_off_c, 0, 64, 64
2, 144864, Note_on_c, 0, 64, 100
2, 144992, Note_off_c, 0, 47, 64
2, 144992, Note_off_c, 0, 68, 64
2, 144992, Note_off_c, 0, 64, 64
2, 144992, Note_off_c, 0, 69, 64
2, 144992, Note_on_c, 0, 69, 100
2, 144992, Note_on_c, 0, 64, 100
2, 144992, Note_off_c, 0, 62, 64
2, 144992, Note_on_c, 0, 62, 100
2, 145120, Note_off_c, 0, 64, 64
2, 145120, Note_on_c, 0, 64, 100
2, 145120, Note_off_c, 0, 69, 64
2, 145120, Note_on_c, 0, 68, 100
2, 145120, Note_off_c, 0, 62, 64
2, 145120, Note_off_c, 0, 71, 64
2, 145120, Note_on_c, 0, 71, 100
2, 145248, Note_off_c, 0, 64, 64
2, 145248, Note_on_c, 0, 59, 100
2, 145248, Note_on_c, 0, 62, 100
2, 145248, Note_off_c, 0, 74, 64
2, 145248, Note_on_c, 0, 74, 100
2, 145248, Note_off_c, 0, 68, 64
2, 145248, Note_off_c, 0, 71, 64
2, 145248, Note_on_c, 0, 71, 100
2, 145248, Note_on_c, 0, 68, 100
2, 145376, Note_off_c, 0, 68, 64
2, 145376, Note_on_c, 0, 68, 100
2, 145376, Note_off_c, 0, 68, 64
2, 145376, Note_off_c, 0, 59, 64
2, 145376, Note_on_c, 0, 59, 100
2, 145376, Note_off_c, 0, 64, 64
2, 145376, Note_on_c, 0, 64, 100
2, 145504, Note_off_c, 0, 64, 64
2, 145504, Note_off_c, 0, 62, 64
2, 145504, Note_off_c, 0, 74, 64
2, 145504, Note_on_c, 0, 68, 100
2, 145504, Note_off_c, 0, 71, 64
2, 145504, Note_on_c, 0, 71, 100
2, 145504, Note_off_c, 0, 59, 64
2, 145504, Note_on_c, 0, 59, 100
2, 145504, Note_on_c, 0, 64, 100
2, 145504, Note_off_c, 0, 64, 64
2, 145632, Note_off_c, 0, 83, 64
2, 145632, Note_off_c, 0, 81, 64
2, 145632, Note_on_c, 0, 81, 100
2, 145760, Note_off_c, 0, 81, 64
2, 145760, Note_on_c, 0, 81, 100
2, 145760, Note_on_c, 0, 64, 100
2, 145760, Note_on_c, 0, 69, 100
2, 145760, Note_on_c, 0, 83, 100
2, 145888, Note_off_c, 0, 68, 64
2, 145888, Note_off_c, 0, 69, 64
2, 145888, Note_on_c, 0, 69, 100
2, 145952, Note_on_c, 0, 80, 100
2, 146016, Note_off_c, 0, 59, 64
2, 146016, Note_off_c, 0, 69, 64
2, 146016, Note_on_c, 0, 68, 100
2, 146016, Note_off_c, 0, 52, 64
2, 146016, Note_on_c, 0, 52, 100
2, 146016, Note_off_c, 0, 77, 64
2, 146016, Note_on_c, 0, 77, 100
2, 146016, Note_on_c, 0, 69, 100
2, 146016, Note_off_c, 0, 71, 64
2, 146144, Note_off_c, 0, 68, 64
2, 146144, Note_off_c, 0, 77, 64
2, 146144, Note_on_c, 0, 77, 100
2, 146144, Note_on_c, 0, 68, 100
2, 146144, Note_off_c, 0, 68, 64
2, 146272, Note_off_c, 0, 52, 64
2, 146272, Note_off_c, 0, 71, 64
2, 146272, Note_off_c, 0, 65, 64
2, 146272, Note_on_c, 0, 68, 100
2, 146272, Note_off_c, 0, 81, 64
2, 146272, Note_on_c, 0, 81, 100
2, 146272, Note_off_c, 0, 77, 64
2, 146272, Note_on_c, 0, 53, 100
2, 146272, Note_on_c, 0, 71, 100
2, 146272, Note_on_c, 0, 77, 100
2, 146272, Note_off_c, 0, 80, 64
2, 146272, Note_on_c, 0, 80, 100
2, 146400, Note_off_c, 0, 80, 64
2, 146400, Note_off_c, 0, 81, 64
2, 146400, Note_on_c, 0, 81, 100
2, 146528, Note_off_c, 0, 69, 64
2, 146528, Note_off_c, 0, 53, 64
2, 146528, Note_on_c, 0, 80, 100
2, 146528, Note_off_c, 0, 68, 64
2, 146528, Note_on_c, 0, 68, 100
2, 146528, Note_off_c, 0, 48, 64
2, 146528, Note_on_c, 0, 48, 100
2, 146528, Note_off_c, 0, 77, 64
2, 146528, Note_on_c, 0, 77, 100
2, 146528, Note_off_c, 0, 74, 64
2, 146528, Note_on_c, 0, 74, 100
2, 146656, Note_off_c, 0, 77, 64
2, 146656, Note_off_c, 0, 74, 64
2, 146656, Note_off_c, 0, 68, 64
2, 146656, Note_on_c, 0, 74, 100
2, 146656, Note_off_c, 0, 71, 64
2, 146656, Note_on_c, 0, 71, 100
2, 146784, Note_off_c, 0, 48, 64
2, 146784, Note_off_c, 0, 72, 64
2, 146784, Note_on_c, 0, 72, 100
2, 146784, Note_off_c, 0, 71, 64
2, 146784, Note_on_c, 0, 68, 100
2, 146784, Note_on_c, 0, 69, 100
2, 146784, Note_off_c, 0, 81, 64
2, 146784, Note_on_c, 0, 48, 100
2, 146784, Note_off_c, 0, 48, 64
2, 146784, Note_off_c, 0, 72, 64
2, 146784, Note_off_c, 0, 64, 64
2, 146784, Note_off_c, 0, 65, 64
2, 146784, Note_on_c, 0, 65, 100
2, 146784, Note_off_c, 0, 60, 64
2, 146784, Note_on_c, 0, 60, 100
2, 146912, Note_off_c, 0, 69, 64
2, 146912, Note_off_c, 0, 60, 64
2, 146912, Note_off_c, 0, 65, 64
2, 146912, Note_on_c, 0, 65, 100
2, 147040, Note_on_c, 0, 72, 100
2, 147040, Note_off_c, 0, 65, 64
2, 147040, Note_on_c, 0, 52, 100
2, 147040, Note_off_c, 0, 74, 64
2, 147040, Note_on_c, 0, 74, 100
2, 147040, Note_on_c, 0, 65, 100
2, 147040, Note_off_c, 0, 65, 64
2, 147168, Note_off_c, 0, 74, 64
2, 147168, Note_off_c, 0, 76, 64
2, 147168, Note_on_c, 0, 76, 100
2, 147296, Note_off_c, 0, 76, 64
2, 147296, Note_on_c, 0, 48, 100
2, 147296, Note_on_c, 0, 65, 100
2, 147296, Note_off_c, 0, 68, 64
2, 147296, Note_on_c, 0, 74, 100
2, 147296, Note_off_c, 0, 74, 64
2, 147296, Note_off_c, 0, 53, 64
2, 147296, Note_on_c, 0, 53, 100
2, 147296, Note_on_c, 0, 74, 100
2, 147296, Note_off_c, 0, 41, 64
2, 147296, Note_on_c, 0, 41, 100
2, 147296, Note_off_c, 0, 69, 64
2, 147296, Note_on_c, 0, 69, 100
2, 147424, Note_off_c, 0, 75, 64
2, 147424, Note_on_c, 0, 75, 100
2, 147424, Note_off_c, 0, 76, 64
2, 147424, Note_on_c, 0, 76, 100
2, 147424, Note_off_c, 0, 71, 64
2, 147424, Note_on_c, 0, 71, 100
2, 147552, Note_off_c, 0, 53, 64
2, 147552, Note_off_c, 0, 44, 64
2, 147552, Note_off_c, 0, 71, 64
2, 147552, Note_on_c, 0, 47, 100
2, 147552, Note_off_c, 0, 65, 64
2, 147552, Note_on_c, 0, 65, 100
2, 147552, Note_off_c, 0, 76, 64
2, 147552, Note_off_c, 0, 81, 64
2, 147552, Note_on_c, 0, 81, 100
2, 147552, Note_off_c, 0, 74, 64
2, 147552, Note_on_c, 0, 74, 100
2, 147552, Note_on_c, 0, 77, 100
2, 147680, Note_off_c, 0, 65, 64
2, 147680, Note_off_c, 0, 69, 64
2, 147680, Note_on_c, 0, 65, 100
2, 147680, Note_off_c, 0, 65, 64
2, 147680, Note_on_c, 0, 50, 100
2, 147680, Note_off_c, 0, 74, 64
2, 147808, Note_off_c, 0, 47, 64
2, 147808, Note_on_c, 0, 69, 100
2, 147808, Note_on_c, 0, 65, 100
2, 147808, Note_on_c, 0, 68, 100
2, 147808, Note_on_c, 0, 47, 100
2, 147808, Note_off_c, 0, 47, 64
2, 147808, Note_off_c, 0, 81, 64
2, 147808, Note_on_c, 0, 45, 100
2, 147808, Note_off_c, 0, 80, 64
2, 147808, Note_on_c, 0, 80, 100
2, 147808, Note_off_c, 0, 75, 64
2, 147808, Note_on_c, 0, 75, 100
2, 147808, Note_off_c, 0, 75, 64
2, 147808, Note_off_c, 0, 63, 64
2, 147808, Note_off_c, 0, 71, 64
2, 147808, Note_on_c, 0, 71, 100
2, 147808, Note_off_c, 0, 65, 64
2, 147808, Note_on_c, 0, 65, 100
2, 147936, Note_on_c, 0, 79, 100
2, 147936, Note_off_c, 0, 77, 64
2, 147936, Note_on_c, 0, 77, 100
2, 148064, Note_off_c, 0, 45, 64
2, 148064, Note_on_c, 0, 78, 100
2, 148064, Note_on_c, 0, 47, 100
2, 148064, Note_on_c, 0, 75, 100
2, 148064, Note_off_c, 0, 69, 64
2, 148064, Note_on_c, 0, 69, 100
2, 148064, Note_off_c, 0, 65, 64
2, 148064, Note_off_c, 0, 69, 64
2, 148064, Note_off_c, 0, 63, 64
2, 148064, Note_on_c, 0, 63, 100
2, 148064, Note_off_c, 0, 67, 64
2, 148064, Note_on_c, 0, 67, 100
2, 148192, Note_off_c, 0, 35, 64
2, 148192, Note_off_c, 0, 47, 64
2, 148192, Note_on_c, 0, 47, 100
2, 148192, Note_off_c, 0, 46, 64
2, 148192, Note_off_c, 0, 66, 64
2, 148192, Note_on_c, 0, 66, 100
2, 148192, Note_off_c, 0, 63, 64
2, 148192, Note_on_c, 0, 63, 100
2, 148192, Note_off_c, 0, 75, 64
2, 148192, Note_on_c, 0, 75, 100
2, 148320, Note_off_c, 0, 75, 64
2, 148320, Note_off_c, 0, 66, 64
2, 148320, Note_on_c, 0, 46, 100
2, 148320, Note_on_c, 0, 69, 100
2, 148320, Note_off_c, 0, 34, 64
2, 148320, Note_off_c, 0, 67, 64
2, 148320, Note_off_c, 0, 63, 64
2, 148320, Note_off_c, 0, 72, 64
2, 148320, Note_on_c, 0, 34, 100
2, 148320, Note_on_c, 0, 33, 100
2, 148320, Note_on_c, 0, 65, 100
2, 148320, Note_off_c, 0, 65, 64
2, 148320, Note_off_c, 0, 46, 64
2, 148320, Note_on_c, 0, 46, 100
2, 148320, Note_on_c, 0, 65, 100
2, 148320, Note_on_c, 0, 67, 100
2, 148320, Note_off_c, 0, 67, 64
2, 148320, Note_off_c, 0, 41, 64
2, 148320, Note_off_c, 0, 65, 64
2, 148320, Note_off_c, 0, 70, 64
2, 148320, Note_on_c, 0, 74, 100
2, 148448, Note_off_c, 0, 74, 64
2, 148448, Note_on_c, 0, 74, 100
2, 148448, Note_off_c, 0, 74, 64
2, 148448, Note_off_c, 0, 75, 64
2, 148448, Note_on_c, 0, 75, 100
2, 148576, Note_off_c, 0, 46, 64
2, 148576, Note_on_c, 0, 41, 100
2, 148576, Note_off_c, 0, 75, 64
2, 148576, Note_on_c, 0, 75, 100
2, 148576, Note_off_c, 0, 75, 64
2, 148576, Note_off_c, 0, 43, 64
2, 148576, Note_on_c, 0, 43, 100
2, 148576, Note_off_c, 0, 65, 64
2, 148576, Note_on_c, 0, 65, 100
2, 148576, Note_on_c, 0, 67, 100
2, 148576, Note_off_c, 0, 67, 64
2, 148576, Note_on_c, 0, 67, 100
2, 148576, Note_on_c, 0, 70, 100
2, 148576, Note_on_c, 0, 51, 100
2, 148576, Note_off_c, 0, 39, 64
2, 148576, Note_on_c, 0, 39, 100
2, 148576, Note_off_c, 0, 51, 64
2, 148576, Note_on_c, 0, 51, 100
2, 148576, Note_on_c, 0, 58, 100
2, 148704, Note_off_c, 0, 67, 64
2, 148704, Note_on_c, 0, 63, 100
2, 148704, Note_off_c, 0, 70, 64
2, 148768, Note_off_c, 0, 65, 64
2, 148832, Note_off_c, 0, 51, 64
2, 148832, Note_off_c, 0, 39, 64
2, 148832, Note_off_c, 0, 65, 64
2, 148832, Note_on_c, 0, 65, 100
2, 148832, Note_on_c, 0, 67, 100
2, 148832, Note_off_c, 0, 70, 64
2, 148832, Note_off_c, 0, 46, 64
2, 148832, Note_on_c, 0, 46, 100
2, 148832, Note_off_c, 0, 58, 64
2, 148832, Note_on_c, 0, 60, 100
2, 148832, Note_on_c, 0, 70, 100
2, 148960, Note_off_c, 0, 70, 64
2, 148960, Note_on_c, 0, 73, 100
2, 148960, Note_off_c, 0, 73, 64
2, 148960, Note_off_c, 0, 49, 64
2, 148960, Note_on_c, 0, 73, 100
2, 148960, Note_on_c, 0, 70, 100
2, 148960, Note_off_c, 0, 70, 64
2, 149024, Note_off_c, 0, 75, 64
2, 149024, Note_on_c, 0, 75, 100
2, 149088, Note_off_c, 0, 46, 64
2, 149088, Note_on_c, 0, 46, 100
2, 149088, Note_off_c, 0, 65, 64
2, 149088, Note_on_c, 0, 65, 100
2, 149088, Note_off_c, 0, 65, 64
2, 149088, Note_off_c, 0, 60, 64
2, 149088, Note_off_c, 0, 46, 64
2, 149088, Note_on_c, 0, 70, 100
2, 149088, Note_off_c, 0, 75, 64
2, 149088, Note_off_c, 0, 67, 64
2, 149088, Note_on_c, 0, 67, 100
2, 149088, Note_on_c, 0, 60, 100
2, 149088, Note_off_c, 0, 60, 64
2, 149088, Note_off_c, 0, 48, 64
2, 149088, Note_on_c, 0, 48, 100
2, 149216, Note_off_c, 0, 46, 64
2, 149216, Note_off_c, 0, 67, 64
2, 149216, Note_on_c, 0, 46, 100
2, 149216, Note_on_c, 0, 65, 100
2, 149216, Note_on_c, 0, 60, 100
2, 149216, Note_on_c, 0, 58, 100
2, 149216, Note_off_c, 0, 63, 64
2, 149216, Note_off_c, 0, 77, 64
2, 149216, Note_on_c, 0, 77, 100
2, 149344, Note_off_c, 0, 46, 64
2, 149344, Note_off_c, 0, 58, 64
2, 149344, Note_on_c, 0, 46, 100
2, 149344, Note_off_c, 0, 46, 64
2, 149344, Note_on_c, 0, 75, 100
2, 149344, Note_off_c, 0, 65, 64
2, 149344, Note_off_c, 0, 77, 64
2, 149344, Note_off_c, 0, 69, 64
2, 149344, Note_on_c, 0, 63, 100
2, 149344, Note_off_c, 0, 57, 64
2, 149344, Note_on_c, 0, 57, 100
2, 149344, Note_on_c, 0, 72, 100
2, 149344, Note_on_c, 0, 69, 100
2, 149344, Note_on_c, 0, 77, 100
2, 149344, Note_off_c, 0, 75, 64
2, 149344, Note_on_c, 0, 75, 100
2, 149344, Note_off_c, 0, 45, 64
2, 149344, Note_on_c, 0, 45, 100
2, 149344, Note_off_c, 0, 75, 64
2, 149344, Note_off_c, 0, 61, 64
2, 149344, Note_on_c, 0, 61, 100
2, 149472, Note_off_c, 0, 45, 64
2, 149472, Note_off_c, 0, 48, 64
2, 149472, Note_on_c, 0, 45, 100
2, 149472, Note_off_c, 0, 57, 64
2, 149472, Note_off_c, 0, 61, 64
2, 149600, Note_on_c, 0, 46, 100
2, 149600, Note_on_c, 0, 51, 100
2, 149600, Note_off_c, 0, 41, 64
2, 149600, Note_on_c, 0, 65, 100
2, 149600, Note_on_c, 0, 41, 100
2, 149600, Note_off_c, 0, 53, 64
2, 149600, Note_on_c, 0, 53, 100
2, 149600, Note_on_c, 0, 57, 100
2, 149600, Note_off_c, 0, 51, 64
2, 149600, Note_on_c, 0, 51, 100
2, 149600, Note_off_c, 0, 60, 64
2, 149600, Note_off_c, 0, 69, 64
2, 149600, Note_on_c, 0, 69, 100
2, 149600, Note_off_c, 0, 63, 64
2, 149600, Note_on_c, 0, 63, 100
2, 149728, Note_on_c, 0, 75, 100
2, 149728, Note_off_c, 0, 41, 64
2, 149728, Note_on_c, 0, 60, 100
2, 149728, Note_off_c, 0, 51, 64
2, 149728, Note_off_c, 0, 69, 64
2, 149728, Note_on_c, 0, 69, 100
2, 149728, Note_off_c, 0, 54, 64
2, 149728, Note_off_c, 0, 77, 64
2, 149728, Note_off_c, 0, 78, 64
2, 149728, Note_off_c, 0, 63, 64
2, 149728, Note_off_c, 0, 65, 64
2, 149728, Note_on_c, 0, 54, 100
2, 149728, Note_on_c, 0, 63, 100
2, 149728, Note_off_c, 0, 63, 64
2, 149728, Note_off_c, 0, 54, 64
2, 149728, Note_off_c, 0, 69, 64
2, 149728, Note_off_c, 0, 42, 64
2, 149728, Note_on_c, 0, 42, 100
2, 149792, Note_on_c, 0, 78, 100
2, 149856, Note_on_c, 0, 77, 100
2, 149856, Note_on_c, 0, 63, 100
2, 149856, Note_off_c, 0, 54, 64
2, 149856, Note_off_c, 0, 42, 64
2, 149856, Note_off_c, 0, 60, 64
2, 149856, Note_off_c, 0, 48, 64
2, 149856, Note_on_c, 0, 54, 100
2, 149856, Note_off_c, 0, 75, 64
2, 149856, Note_on_c, 0, 75, 100
2, 149856, Note_off_c, 0, 66, 64
2, 149856, Note_on_c, 0, 66, 100
2, 149856, Note_off_c, 0, 33, 64
2, 149856, Note_on_c, 0, 65, 100
2, 149856, Note_on_c, 0, 60, 100
2, 149856, Note_off_c, 0, 57, 64
2, 149856, Note_off_c, 0, 72, 64
2, 149856, Note_on_c, 0, 48, 100
2, 149984, Note_off_c, 0, 48, 64
2, 149984, Note_off_c, 0, 60, 64
2, 149984, Note_off_c, 0, 65, 64
2, 149984, Note_off_c, 0, 53, 64
2, 149984, Note_on_c, 0, 53, 100
2, 149984, Note_on_c, 0, 41, 100
2, 149984, Note_off_c, 0, 69, 64
2, 149984, Note_on_c, 0, 69, 100
2, 149984, Note_off_c, 0, 53, 64
2, 150112, Note_off_c, 0, 41, 64
2, 150112, Note_off_c, 0, 69, 64
2, 150112, Note_on_c, 0, 53, 100
2, 150112, Note_on_c, 0, 57, 100
2, 150112, Note_off_c, 0, 76, 64
2, 150112, Note_off_c, 0, 48, 64
2, 150112, Note_on_c, 0, 76, 100
2, 150112, Note_on_c, 0, 60, 100
2, 150112, Note_off_c, 0, 60, 64
2, 150112, Note_on_c, 0, 48, 100
2, 150112, Note_on_c, 0, 60, 100
2, 150112, Note_on_c, 0, 72, 100
2, 150112, Note_off_c, 0, 36, 64
2, 150112, Note_on_c, 0, 36, 100
2, 150240, Note_off_c, 0, 76, 64
2, 150240, Note_off_c, 0, 60, 64
2, 150240, Note_off_c, 0, 72, 64
2, 150240, Note_on_c, 0, 72, 100
2, 150240, Note_on_c, 0, 56, 100
2, 150240, Note_off_c, 0, 77, 64
2, 150240, Note_on_c, 0, 77, 100
2, 150240, Note_off_c, 0, 57, 64
2, 150240, Note_on_c, 0, 57, 100
2, 150368, Note_off_c, 0, 48, 64
2, 150368, Note_off_c, 0, 36, 64
2, 150368, Note_off_c, 0, 57, 64
2, 150368, Note_off_c, 0, 56, 64
2, 150368, Note_off_c, 0, 72, 64
2, 150368, Note_off_c, 0, 44, 64
2, 150368, Note_on_c, 0, 44, 100
2, 150368, Note_off_c, 0, 77, 64
2, 150368, Note_on_c, 0, 74, 100
2, 150368, Note_on_c, 0, 56, 100
2, 150496, Note_off_c, 0, 74, 64
2, 150496, Note_off_c, 0, 44, 64
2, 150496, Note_off_c, 0, 80, 64
2, 150496, Note_on_c, 0, 80, 100
2, 150496, Note_off_c, 0, 48, 64
2, 150496, Note_on_c, 0, 48, 100
2, 150496, Note_off_c, 0, 80, 64
2, 150496, Note_off_c, 0, 79, 64
2, 150496, Note_off_c, 0, 77, 64
2, 150496, Note_on_c, 0, 77, 100
2, 150624, Note_off_c, 0, 77, 64
2, 150624, Note_off_c, 0, 48, 64
2, 150624, Note_on_c, 0, 79, 100
2, 150624, Note_on_c, 0, 39, 100
2, 150624, Note_on_c, 0, 77, 100
2, 150624, Note_off_c, 0, 77, 64
2, 150624, Note_on_c, 0, 77, 100
2, 150624, Note_off_c, 0, 50, 64
2, 150624, Note_on_c, 0, 50, 100
2, 150624, Note_on_c, 0, 74, 100
2, 150624, Note_on_c, 0, 65, 100
2, 150624, Note_off_c, 0, 47, 64
2, 150624, Note_on_c, 0, 47, 100
2, 150624, Note_off_c, 0, 35, 64
2, 150624, Note_on_c, 0, 35, 100
2, 150752, Note_off_c, 0, 74, 64
2, 150752, Note_off_c, 0, 53, 64
2, 150752, Note_on_c, 0, 38, 100
2, 150752, Note_off_c, 0, 47, 64
2, 150752, Note_off_c, 0, 75, 64
2, 150752, Note_on_c, 0, 75, 100
2, 150752, Note_off_c, 0, 75, 64
2, 150752, Note_off_c, 0, 68, 64
2, 150752, Note_on_c, 0, 68, 100
2, 150752, Note_off_c, 0, 63, 64
2, 150752, Note_off_c, 0, 60, 64
2, 150752, Note_on_c, 0, 60, 100
2, 150752, Note_off_c, 0, 48, 64
2, 150752, Note_on_c, 0, 48, 100
2, 150752, Note_on_c, 0, 36, 100
2, 150752, Note_off_c, 0, 36, 64
2, 150752, Note_on_c, 0, 36, 100
2, 150880, Note_off_c, 0, 48, 64
2, 150880, Note_off_c, 0, 60, 64
2, 150880, Note_on_c, 0, 53, 100
2, 150880, Note_off_c, 0, 65, 64
2, 150880, Note_off_c, 0, 75, 64
2, 150880, Note_on_c, 0, 72, 100
2, 150880, Note_off_c, 0, 63, 64
2, 150880, Note_off_c, 0, 56, 64
2, 150880, Note_on_c, 0, 56, 100
2, 150880, Note_off_c, 0, 44, 64
2, 150880, Note_on_c, 0, 44, 100
2, 150880, Note_on_c, 0, 75, 100
2, 150880, Note_on_c, 0, 63, 100
2, 150880, Note_on_c, 0, 62, 100
2, 150880, Note_off_c, 0, 84, 64
2, 150880, Note_on_c, 0, 84, 100
2, 150880, Note_off_c, 0, 68, 64
2, 151008, Note_off_c, 0, 44, 64
2, 151008, Note_off_c, 0, 72, 64
2, 151008, Note_on_c, 0, 44, 100
2, 151008, Note_off_c, 0, 53, 64
2, 151008, Note_on_c, 0, 68, 100
2, 151008, Note_on_c, 0, 58, 100
2, 151008, Note_off_c, 0, 46, 64
2, 151008, Note_on_c, 0, 46, 100
2, 151008, Note_off_c, 0, 34, 64
2, 151008, Note_on_c, 0, 67, 100
2, 151008, Note_off_c, 0, 58, 64
2, 151008, Note_on_c, 0, 58, 100
2, 151008, Note_off_c, 0, 75, 64
2, 151008, Note_on_c, 0, 75, 100
2, 151008, Note_off_c, 0, 44, 64
2, 151008, Note_off_c, 0, 56, 64
2, 151136, Note_on_c, 0, 44, 100
2, 151136, Note_off_c, 0, 75, 64
2, 151136, Note_off_c, 0, 46, 64
2, 151136, Note_on_c, 0, 46, 100
2, 151136, Note_off_c, 0, 86, 64
2, 151136, Note_off_c, 0, 84, 64
2, 151136, Note_off_c, 0, 77, 64
2, 151136, Note_on_c, 0, 77, 100
2, 151136, Note_off_c, 0, 48, 64
2, 151136, Note_on_c, 0, 48, 100
2, 151264, Note_on_c, 0, 84, 100
2, 151264, Note_off_c, 0, 67, 64
2, 151264, Note_off_c, 0, 82, 64
2, 151264, Note_on_c, 0, 82, 100
2, 151264, Note_off_c, 0, 46, 64
2, 151264, Note_off_c, 0, 65, 64
2, 151264, Note_on_c, 0, 65, 100
2, 151264, Note_off_c, 0, 82, 64
2, 151264, Note_off_c, 0, 80, 64
2, 151264, Note_on_c, 0, 80, 100
2, 151392, Note_off_c, 0, 82, 64
2, 151392, Note_off_c, 0, 80, 64
2, 151392, Note_off_c, 0, 48, 64
2, 151392, Note_on_c, 0, 80, 100
2, 151392, Note_on_c, 0, 60, 100
2, 151392, Note_off_c, 0, 72, 64
2, 151392, Note_on_c, 0, 72, 100
2, 151392, Note_off_c, 0, 55, 64
2, 151392, Note_on_c, 0, 55, 100
2, 151392, Note_on_c, 0, 74, 100
2, 151392, Note_on_c, 0, 82, 100
2, 151392, Note_off_c, 0, 43, 64
2, 151392, Note_on_c, 0, 56, 100
2, 151392, Note_on_c, 0, 67, 100
2, 151392, Note_off_c, 0, 62, 64
2, 151392, Note_on_c, 0, 62, 100
2, 151392, Note_off_c, 0, 67, 64
2, 151392, Note_on_c, 0, 67, 100
2, 151520, Note_off_c, 0, 82, 64
2, 151520, Note_off_c, 0, 74, 64
2, 151520, Note_off_c, 0, 75, 64
2, 151520, Note_on_c, 0, 75, 100
2, 151584, Note_off_c, 0, 75, 64
2, 151584, Note_off_c, 0, 67, 64
2, 151584, Note_on_c, 0, 43, 100
2, 151648, Note_off_c, 0, 72, 64
2, 151648, Note_off_c, 0, 80, 64
2, 151648, Note_on_c, 0, 80, 100
2, 151648, Note_off_c, 0, 74, 64
2, 151648, Note_on_c, 0, 74, 100
2, 151648, Note_on_c, 0, 72, 100
2, 151648, Note_on_c, 0, 67, 100
2, 151648, Note_off_c, 0, 55, 64
2, 151648, Note_off_c, 0, 70, 64
2, 151648, Note_off_c, 0, 63, 64
2, 151648, Note_on_c, 0, 63, 100
2, 151648, Note_on_c, 0, 51, 100
2, 151648, Note_off_c, 0, 48, 64
2, 151648, Note_on_c, 0, 48, 100
2, 151648, Note_off_c, 0, 72, 64
2, 151648, Note_on_c, 0, 55, 100
2, 151648, Note_off_c, 0, 55, 64
2, 151712, Note_off_c, 0, 77, 64
2, 151712, Note_off_c, 0, 75, 64
2, 151712, Note_on_c, 0, 75, 100
2, 151712, Note_off_c, 0, 67, 64
2, 151712, Note_on_c, 0, 67, 100
2, 151712, Note_off_c, 0, 58, 64
2, 151712, Note_off_c, 0, 55, 64
2, 151712, Note_on_c, 0, 55, 100
2, 151776, Note_off_c, 0, 75, 64
2, 151776, Note_on_c, 0, 75, 100
2, 151776, Note_off_c, 0, 55, 64
2, 151776, Note_on_c, 0, 55, 100
2, 151776, Note_off_c, 0, 60, 64
2, 151776, Note_off_c, 0, 73, 64
2, 151776, Note_on_c, 0, 73, 100
2, 151776, Note_off_c, 0, 67, 64
2, 151776, Note_off_c, 0, 65, 64
2, 151776, Note_off_c, 0, 70, 64
2, 151776, Note_on_c, 0, 70, 100
2, 151904, Note_on_c, 0, 77, 100
2, 151904, Note_off_c, 0, 63, 64
2, 151904, Note_on_c, 0, 72, 100
2, 151904, Note_off_c, 0, 55, 64
2, 151904, Note_off_c, 0, 56, 64
2, 151904, Note_on_c, 0, 56, 100
2, 151904, Note_off_c, 0, 72, 64
2, 151904, Note_off_c, 0, 80, 64
2, 151904, Note_on_c, 0, 72, 100
2, 151904, Note_off_c, 0, 73, 64
2, 152032, Note_on_c, 0, 73, 100
2, 152032, Note_off_c, 0, 70, 64
2, 152032, Note_on_c, 0, 70, 100
2, 152032, Note_off_c, 0, 72, 64
2, 152032, Note_on_c, 0, 72, 100
2, 152032, Note_off_c, 0, 51, 64
2, 152160, Note_on_c, 0, 80, 100
2, 152160, Note_off_c, 0, 73, 64
2, 152160, Note_off_c, 0, 75, 64
2, 152160, Note_on_c, 0, 51, 100
2, 152160, Note_on_c, 0, 60, 100
2, 152160, Note_off_c, 0, 72, 64
2, 152160, Note_on_c, 0, 72, 100
2, 152160, Note_off_c, 0, 53, 64
2, 152160, Note_on_c, 0, 53, 100
2, 152160, Note_off_c, 0, 70, 64
2, 152160, Note_on_c, 0, 70, 100
2, 152160, Note_off_c, 0, 79, 64
2, 152160, Note_on_c, 0, 79, 100
2, 152288, Note_off_c, 0, 70, 64
2, 152288, Note_off_c, 0, 72, 64
2, 152288, Note_on_c, 0, 75, 100
2, 152288, Note_on_c, 0, 70, 100
2, 152352, Note_off_c, 0, 75, 64
2, 152416, Note_off_c, 0, 53, 64
2, 152416, Note_off_c, 0, 77, 64
2, 152416, Note_off_c, 0, 60, 64
2, 152416, Note_on_c, 0, 73, 100
2, 152416, Note_on_c, 0, 72, 100
2, 152416, Note_off_c, 0, 61, 64
2, 152416, Note_on_c, 0, 61, 100
2, 152416, Note_off_c, 0, 79, 64
2, 152416, Note_off_c, 0, 80, 64
2, 152416, Note_on_c, 0, 77, 100
2, 152416, Note_off_c, 0, 77, 64
2, 152544, Note_off_c, 0, 72, 64
2, 152544, Note_on_c, 0, 72, 100
2, 152544, Note_off_c, 0, 80, 64
2, 152544, Note_on_c, 0, 80, 100
2, 152544, Note_on_c, 0, 75, 100
2, 152544, Note_off_c, 0, 75, 64
2, 152544, Note_off_c, 0, 72, 64
2, 152544, Note_off_c, 0, 73, 64
2, 152544, Note_on_c, 0, 75, 100
2, 152544, Note_off_c, 0, 75, 64
2, 152544, Note_off_c, 0, 61, 64
2, 152544, Note_on_c, 0, 61, 100
2, 152544, Note_off_c, 0, 68, 64
2, 152608, Note_on_c, 0, 60, 100
2, 152608, Note_on_c, 0, 73, 100
2, 152608, Note_on_c, 0, 75, 100
2, 152608, Note_off_c, 0, 80, 64
2, 152672, Note_off_c, 0, 75, 64
2, 152672, Note_off_c, 0, 61, 64
2, 152672, Note_on_c, 0, 49, 100
2, 152672, Note_on_c, 0, 80, 100
2, 152672, Note_off_c, 0, 80, 64
2, 152672, Note_off_c, 0, 73, 64
2, 152672, Note_on_c, 0, 73, 100
2, 152672, Note_off_c, 0, 73, 64
2, 152672, Note_on_c, 0, 80, 100
2, 152800, Note_on_c, 0, 68, 100
2, 152800, Note_on_c, 0, 73, 100
2, 152800, Note_off_c, 0, 75, 64
2, 152800, Note_on_c, 0, 75, 100
2, 152800, Note_off_c, 0, 72, 64
2, 152800, Note_on_c, 0, 72, 100
2, 152864, Note_on_c, 0, 61, 100
2, 152928, Note_off_c, 0, 60, 64
2, 152928, Note_off_c, 0, 75, 64
2, 152928, Note_off_c, 0, 73, 64
2, 152928, Note_off_c, 0, 48, 64
2, 152928, Note_off_c, 0, 80, 64
2, 152928, Note_on_c, 0, 80, 100
2, 152928, Note_off_c, 0, 72, 64
2, 152928, Note_off_c, 0, 68, 64
2, 152928, Note_on_c, 0, 68, 100
2, 152928, Note_on_c, 0, 73, 100
2, 152928, Note_off_c, 0, 73, 64
2, 152928, Note_off_c, 0, 64, 64
2, 152928, Note_on_c, 0, 64, 100
2, 152928, Note_off_c, 0, 36, 64
2, 152928, Note_off_c, 0, 68, 64
2, 152928, Note_on_c, 0, 60, 100
2, 152928, Note_off_c, 0, 51, 64
2, 152928, Note_on_c, 0, 51, 100
2, 153056, Note_off_c, 0, 72, 64
2, 153056, Note_on_c, 0, 63, 100
2, 153056, Note_on_c, 0, 79, 100
2, 153056, Note_on_c, 0, 72, 100
2, 153056, Note_off_c, 0, 70, 64
2, 153056, Note_on_c, 0, 70, 100
2, 153120, Note_off_c, 0, 72, 64
2, 153120, Note_off_c, 0, 70, 64
2, 153184, Note_off_c, 0, 69, 64
2, 153184, Note_on_c, 0, 69, 100
2, 153184, Note_off_c, 0, 60, 64
2, 153184, Note_on_c, 0, 60, 100
2, 153184, Note_off_c, 0, 51, 64
2, 153184, Note_off_c, 0, 70, 64
2, 153184, Note_on_c, 0, 70, 100
2, 153184, Note_off_c, 0, 64, 64
2, 153184, Note_on_c, 0, 64, 100
2, 153312, Note_off_c, 0, 60, 64
2, 153312, Note_off_c, 0, 70, 64
2, 153312, Note_on_c, 0, 72, 100
2, 153312, Note_off_c, 0, 72, 64
2, 153312, Note_on_c, 0, 72, 100
2, 153312, Note_off_c, 0, 69, 64
2, 153312, Note_on_c, 0, 69, 100
2, 153312, Note_on_c, 0, 48, 100
2, 153312, Note_off_c, 0, 49, 64
2, 153312, Note_on_c, 0, 58, 100
2, 153312, Note_off_c, 0, 65, 64
2, 153312, Note_on_c, 0, 65, 100
2, 153312, Note_off_c, 0, 61, 64
2, 153312, Note_on_c, 0, 61, 100
2, 153440, Note_off_c, 0, 48, 64
2, 153440, Note_off_c, 0, 72, 64
2, 153440, Note_off_c, 0, 65, 64
2, 153440, Note_off_c, 0, 61, 64
2, 153440, Note_off_c, 0, 69, 64
2, 153440, Note_off_c, 0, 63, 64
2, 153440, Note_on_c, 0, 63, 100
2, 153440, Note_off_c, 0, 57, 64
2, 153440, Note_on_c, 0, 57, 100
2, 153440, Note_off_c, 0, 67, 64
2, 153440, Note_on_c, 0, 67, 100
2, 153440, Note_off_c, 0, 74, 64
2, 153440, Note_on_c, 0, 74, 100
2, 153568, Note_off_c, 0, 67, 64
2, 153568, Note_off_c, 0, 65, 64
2, 153568, Note_on_c, 0, 65, 100
2, 153696, Note_off_c, 0, 74, 64
2, 153696, Note_off_c, 0, 57, 64
2, 153696, Note_on_c, 0, 60, 100
2, 153696, Note_off_c, 0, 72, 64
2, 153696, Note_on_c, 0, 72, 100
2, 153696, Note_off_c, 0, 64, 64
2, 153696, Note_on_c, 0, 64, 100
2, 153696, Note_off_c, 0, 58, 64
2, 153696, Note_on_c, 0, 58, 100
2, 153696, Note_off_c, 0, 67, 64
2, 153696, Note_on_c, 0, 67, 100
2, 153824, Note_off_c, 0, 72, 64
2, 153824, Note_off_c, 0, 67, 64
2, 153824, Note_off_c, 0, 65, 64
2, 153952, Note_off_c, 0, 58, 64
2, 153952, Note_off_c, 0, 69, 64
2, 153952, Note_on_c, 0, 69, 100
2, 153952, Note_off_c, 0, 65, 64
2, 153952, Note_on_c, 0, 65, 100
2, 153952, Note_on_c, 0, 58, 100
2, 153952, Note_off_c, 0, 60, 64
2, 153952, Note_on_c, 0, 60, 100
2, 153952, Note_off_c, 0, 60, 64
2, 154080, Note_off_c, 0, 69, 64
2, 154080, Note_off_c, 0, 65, 64
2, 154080, Note_off_c, 0, 67, 64
2, 154080, Note_on_c, 0, 67, 100
2, 154080, Note_off_c, 0, 70, 64
2, 154080, Note_on_c, 0, 70, 100
2, 154208, Note_off_c, 0, 58, 64
2, 154208, Note_off_c, 0, 67, 64
2, 154208, Note_off_c, 0, 70, 64
2, 154208, Note_on_c, 0, 65, 100
2, 154208, Note_on_c, 0, 57, 100
2, 154208, Note_off_c, 0, 69, 64
2, 154208, Note_on_c, 0, 69, 100
2, 154208, Note_off_c, 0, 60, 64
2, 154208, Note_on_c, 0, 60, 100
2, 154208, Note_off_c, 0, 72, 64
2, 154208, Note_on_c, 0, 72, 100
2, 154208, Note_off_c, 0, 65, 64
2, 154208, Note_on_c, 0, 65, 100
2, 154336, Note_off_c, 0, 60, 64
2, 154336, Note_off_c, 0, 72, 64
2, 154336, Note_off_c, 0, 70, 64
2, 154336, Note_on_c, 0, 70, 100
2, 154336, Note_off_c, 0, 65, 64
2, 154336, Note_on_c, 0, 72, 100
2, 154336, Note_off_c, 0, 67, 64
2, 154336, Note_on_c, 0, 67, 100
2, 154464, Note_off_c, 0, 67, 64
2, 154464, Note_on_c, 0, 60, 100
2, 154464, Note_off_c, 0, 57, 64
2, 154464, Note_off_c, 0, 69, 64
2, 154464, Note_off_c, 0, 53, 64
2, 154464, Note_on_c, 0, 53, 100
2, 154464, Note_on_c, 0, 65, 100
2, 154464, Note_off_c, 0, 65, 64
2, 154464, Note_on_c, 0, 65, 100
2, 154464, Note_off_c, 0, 58, 64
2, 154464, Note_on_c, 0, 58, 100
2, 154464, Note_off_c, 0, 72, 64
2, 154592, Note_on_c, 0, 72, 100
2, 154592, Note_off_c, 0, 70, 64
2, 154592, Note_off_c, 0, 69, 64
2, 154592, Note_on_c, 0, 69, 100
2, 154592, Note_off_c, 0, 60, 64
2, 154592, Note_on_c, 0, 60, 100
2, 154720, Note_off_c, 0, 72, 64
2, 154720, Note_off_c, 0, 53, 64
2, 154720, Note_off_c, 0, 60, 64
2, 154720, Note_off_c, 0, 69, 64
2, 154720, Note_off_c, 0, 65, 64
2, 154720, Note_on_c, 0, 60, 100
2, 154720, Note_off_c, 0, 63, 64
2, 154720, Note_off_c, 0, 60, 64
2, 154720, Note_off_c, 0, 74, 64
2, 154720, Note_on_c, 0, 74, 100
2, 154720, Note_on_c, 0, 69, 100
2, 154848, Note_off_c, 0, 72, 64
2, 154848, Note_on_c, 0, 72, 100
2, 154848, Note_off_c, 0, 63, 64
2, 154848, Note_on_c, 0, 63, 100
2, 154848, Note_on_c, 0, 60, 100
2, 154912, Note_off_c, 0, 74, 64
2, 154976, Note_off_c, 0, 63, 64
2, 154976, Note_off_c, 0, 67, 64
2, 154976, Note_on_c, 0, 67, 100
2, 154976, Note_off_c, 0, 71, 64
2, 154976, Note_on_c, 0, 71, 100
2, 154976, Note_on_c, 0, 74, 100
2, 154976, Note_off_c, 0, 59, 64
2, 154976, Note_on_c, 0, 59, 100
2, 155104, Note_off_c, 0, 74, 64
2, 155104, Note_off_c, 0, 59, 64
2, 155104, Note_off_c, 0, 71, 64
2, 155104, Note_off_c, 0, 67, 64
2, 155104, Note_off_c, 0, 60, 64
2, 155104, Note_on_c, 0, 71, 100
2, 155104, Note_off_c, 0, 51, 64
2, 155104, Note_on_c, 0, 51, 100
2, 155232, Note_on_c, 0, 60, 100
2, 155232, Note_off_c, 0, 71, 64
2, 155232, Note_off_c, 0, 51, 64
2, 155232, Note_off_c, 0, 79, 64
2, 155232, Note_on_c, 0, 59, 100
2, 155232, Note_off_c, 0, 74, 64
2, 155232, Note_on_c, 0, 74, 100
2, 155232, Note_off_c, 0, 59, 64
2, 155232, Note_on_c, 0, 59, 100
2, 155232, Note_on_c, 0, 67, 100
2, 155232, Note_off_c, 0, 62, 64
2, 155232, Note_on_c, 0, 65, 100
2, 155360, Note_off_c, 0, 59, 64
2, 155360, Note_off_c, 0, 74, 64
2, 155360, Note_on_c, 0, 59, 100
2, 155360, Note_off_c, 0, 79, 64
2, 155360, Note_on_c, 0, 79, 100
2, 155360, Note_on_c, 0, 62, 100
2, 155488, Note_off_c, 0, 79, 64
2, 155488, Note_off_c, 0, 62, 64
2, 155488, Note_off_c, 0, 67, 64
2, 155488, Note_off_c, 0, 59, 64
2, 155488, Note_on_c, 0, 75, 100
2, 155488, Note_off_c, 0, 72, 64
2, 155488, Note_off_c, 0, 55, 64
2, 155488, Note_on_c, 0, 55, 100
2, 155488, Note_on_c, 0, 72, 100
2, 155488, Note_off_c, 0, 72, 64
2, 155488, Note_on_c, 0, 51, 100
2, 155488, Note_on_c, 0, 67, 100
2, 155488, Note_off_c, 0, 67, 64
2, 155488, Note_on_c, 0, 62, 100
2, 155616, Note_on_c, 0, 72, 100
2, 155616, Note_off_c, 0, 65, 64
2, 155616, Note_off_c, 0, 55, 64
2, 155616, Note_on_c, 0, 71, 100
2, 155616, Note_off_c, 0, 62, 64
2, 155616, Note_off_c, 0, 74, 64
2, 155616, Note_on_c, 0, 74, 100
2, 155744, Note_off_c, 0, 71, 64
2, 155744, Note_off_c, 0, 51, 64
2, 155744, Note_off_c, 0, 74, 64
2, 155744, Note_on_c, 0, 62, 100
2, 155744, Note_on_c, 0, 67, 100
2, 155744, Note_off_c, 0, 55, 64
2, 155744, Note_on_c, 0, 55, 100
2, 155744, Note_off_c, 0, 72, 64
2, 155744, Note_on_c, 0, 72, 100
2, 155872, Note_off_c, 0, 72, 64
2, 155872, Note_off_c, 0, 67, 64
2, 155872, Note_off_c, 0, 74, 64
2, 155872, Note_on_c, 0, 74, 100
2, 155872, Note_off_c, 0, 55, 64
2, 155872, Note_on_c, 0, 55, 100
2, 155872, Note_on_c, 0, 67, 100
2, 156000, Note_off_c, 0, 67, 64
2, 156000, Note_off_c, 0, 55, 64
2, 156000, Note_off_c, 0, 74, 64
2, 156000, Note_on_c, 0, 67, 100
2, 156000, Note_off_c, 0, 43, 64
2, 156000, Note_on_c, 0, 43, 100
2, 156000, Note_off_c, 0, 75, 64
2, 156000, Note_on_c, 0, 75, 100
2, 156000, Note_on_c, 0, 51, 100
2, 156000, Note_off_c, 0, 60, 64
2, 156000, Note_on_c, 0, 55, 100
2, 156000, Note_off_c, 0, 55, 64
2, 156000, Note_on_c, 0, 60, 100
2, 156128, Note_on_c, 0, 72, 100
2, 156128, Note_on_c, 0, 55, 100
2, 156128, Note_off_c, 0, 51, 64
2, 156128, Note_on_c, 0, 51, 100
2, 156128, Note_on_c, 0, 71, 100
2, 156128, Note_off_c, 0, 43, 64
2, 156128, Note_off_c, 0, 74, 64
2, 156128, Note_on_c, 0, 74, 100
2, 156128, Note_off_c, 0, 67, 64
2, 156128, Note_off_c, 0, 72, 64
2, 156128, Note_on_c, 0, 72, 100
2, 156256, Note_off_c, 0, 72, 64
2, 156256, Note_off_c, 0, 74, 64
2, 156256, Note_off_c, 0, 71, 64
2, 156256, Note_off_c, 0, 51, 64
2, 156256, Note_on_c, 0, 67, 100
2, 156256, Note_off_c, 0, 55, 64
2, 156256, Note_on_c, 0, 43, 100
2, 156256, Note_on_c, 0, 72, 100
2, 156256, Note_off_c, 0, 72, 64
2, 156256, Note_off_c, 0, 68, 64
2, 156256, Note_on_c, 0, 68, 100
2, 156384, Note_on_c, 0, 72, 100
2, 156384, Note_off_c, 0, 68, 64
2, 156384, Note_on_c, 0, 55, 100
2, 156384, Note_off_c, 0, 60, 64
2, 156384, Note_on_c, 0, 68, 100
2, 156384, Note_off_c, 0, 68, 64
2, 156384, Note_on_c, 0, 68, 100
2, 156384, Note_off_c, 0, 53, 64
2, 156384, Note_on_c, 0, 53, 100
2, 156384, Note_off_c, 0, 74, 64
2, 156384, Note_on_c, 0, 74, 100
2, 156512, Note_off_c, 0, 68, 64
2, 156512, Note_off_c, 0, 53, 64
2, 156512, Note_on_c, 0, 60, 100
2, 156512, Note_off_c, 0, 74, 64
2, 156512, Note_on_c, 0, 41, 100
2, 156512, Note_off_c, 0, 71, 64
2, 156512, Note_on_c, 0, 71, 100
2, 156512, Note_on_c, 0, 68, 100
2, 156512, Note_off_c, 0, 68, 64
2, 156640, Note_on_c, 0, 68, 100
2, 156640, Note_off_c, 0, 71, 64
2, 156640, Note_off_c, 0, 66, 64
2, 156640, Note_on_c, 0, 66, 100
2, 156640, Note_off_c, 0, 60, 64
2, 156640, Note_on_c, 0, 60, 100
2, 156768, Note_off_c, 0, 66, 64
2, 156768, Note_off_c, 0, 60, 64
2, 156768, Note_off_c, 0, 68, 64
2, 156768, Note_on_c, 0, 68, 100
2, 156768, Note_off_c, 0, 63, 64
2, 156768, Note_on_c, 0, 63, 100
2, 156768, Note_off_c, 0, 44, 64
2, 156768, Note_on_c, 0, 44, 100
2, 156768, Note_off_c, 0, 72, 64
2, 156768, Note_on_c, 0, 72, 100
2, 156768, Note_off_c, 0, 44, 64
2, 156896, Note_off_c, 0, 72, 64
2, 156896, Note_off_c, 0, 71, 64
2, 156896, Note_on_c, 0, 71, 100
2, 157024, Note_on_c, 0, 44, 100
2, 157024, Note_off_c, 0, 62, 64
2, 157024, Note_off_c, 0, 71, 64
2, 157024, Note_off_c, 0, 63, 64
2, 157024, Note_on_c, 0, 62, 100
2, 157024, Note_off_c, 0, 62, 64
2, 157024, Note_off_c, 0, 67, 64
2, 157024, Note_on_c, 0, 67, 100
2, 157024, Note_off_c, 0, 50, 64
2, 157024, Note_on_c, 0, 50, 100
2, 157024, Note_off_c, 0, 38, 64
2, 157024, Note_on_c, 0, 38, 100
2, 157152, Note_off_c, 0, 68, 64
2, 157152, Note_off_c, 0, 67, 64
2, 157152, Note_off_c, 0, 62, 64
2, 157152, Note_on_c, 0, 62, 100
2, 157152, Note_off_c, 0, 63, 64
2, 157152, Note_on_c, 0, 63, 100
2, 157280, Note_off_c, 0, 50, 64
2, 157280, Note_off_c, 0, 38, 64
2, 157280, Note_on_c, 0, 68, 100
2, 157280, Note_off_c, 0, 63, 64
2, 157280, Note_off_c, 0, 62, 64
2, 157280, Note_on_c, 0, 65, 100
2, 157280, Note_on_c, 0, 36, 100
2, 157280, Note_on_c, 0, 60, 100
2, 157280, Note_off_c, 0, 60, 64
2, 157280, Note_on_c, 0, 60, 100
2, 157408, Note_off_c, 0, 60, 64
2, 157408, Note_off_c, 0, 65, 64
2, 157408, Note_on_c, 0, 65, 100
2, 157408, Note_off_c, 0, 63, 64
2, 157408, Note_on_c, 0, 63, 100
2, 157536, Note_off_c, 0, 65, 64
2, 157536, Note_off_c, 0, 63, 64
2, 157536, Note_off_c, 0, 36, 64
2, 157536, Note_off_c, 0, 60, 64
2, 157536, Note_on_c, 0, 60, 100
2, 157536, Note_off_c, 0, 51, 64
2, 157536, Note_on_c, 0, 51, 100
2, 157536, Note_off_c, 0, 68, 64
2, 157536, Note_on_c, 0, 68, 100
2, 157536, Note_off_c, 0, 68, 64
2, 157536, Note_on_c, 0, 68, 100
2, 157664, Note_off_c, 0, 60, 64
2, 157664, Note_off_c, 0, 68, 64
2, 157664, Note_on_c, 0, 68, 100
2, 157792, Note_off_c, 0, 51, 64
2, 157792, Note_off_c, 0, 68, 64
2, 157792, Note_off_c, 0, 65, 64
2, 157792, Note_on_c, 0, 65, 100
2, 157792, Note_off_c, 0, 48, 64
2, 157792, Note_on_c, 0, 48, 100
2, 157792, Note_off_c, 0, 75, 64
2, 157792, Note_on_c, 0, 75, 100
2, 157792, Note_off_c, 0, 77, 64
2, 157792, Note_on_c, 0, 77, 100
2, 157792, Note_on_c, 0, 53, 100
2, 157792, Note_off_c, 0, 56, 64
2, 157920, Note_on_c, 0, 68, 100
2, 157920, Note_off_c, 0, 65, 64
2, 157920, Note_off_c, 0, 63, 64
2, 157920, Note_on_c, 0, 63, 100
2, 158048, Note_on_c, 0, 65, 100
2, 158048, Note_off_c, 0, 75, 64
2, 158048, Note_off_c, 0, 68, 64
2, 158048, Note_on_c, 0, 56, 100
2, 158048, Note_off_c, 0, 77, 64
2, 158048, Note_off_c, 0, 48, 64
2, 158048, Note_on_c, 0, 68, 100
2, 158048, Note_off_c, 0, 63, 64
2, 158048, Note_on_c, 0, 77, 100
2, 158048, Note_off_c, 0, 77, 64
2, 158048, Note_off_c, 0, 65, 64
2, 158048, Note_on_c, 0, 65, 100
2, 158048, Note_off_c, 0, 50, 64
2, 158048, Note_on_c, 0, 50, 100
2, 158048, Note_off_c, 0, 74, 64
2, 158048, Note_on_c, 0, 74, 100
2, 158176, Note_off_c, 0, 62, 64
2, 158176, Note_on_c, 0, 62, 100
2, 158240, Note_on_c, 0, 77, 100
2, 158240, Note_on_c, 0, 63, 100
2, 158304, Note_off_c, 0, 50, 64
2, 158304, Note_off_c, 0, 74, 64
2, 158304, Note_off_c, 0, 75, 64
2, 158304, Note_on_c, 0, 75, 100
2, 158304, Note_off_c, 0, 65, 64
2, 158304, Note_on_c, 0, 65, 100
2, 158304, Note_off_c, 0, 72, 64
2, 158304, Note_on_c, 0, 72, 100
2, 158304, Note_off_c, 0, 68, 64
2, 158304, Note_on_c, 0, 68, 100
2, 158432, Note_off_c, 0, 72, 64
2, 158432, Note_off_c, 0, 77, 64
2, 158432, Note_on_c, 0, 77, 100
2, 158560, Note_off_c, 0, 77, 64
2, 158560, Note_on_c, 0, 77, 100
2, 158560, Note_off_c, 0, 67, 64
2, 158560, Note_on_c, 0, 67, 100
2, 158560, Note_off_c, 0, 62, 64
2, 158560, Note_off_c, 0, 63, 64
2, 158560, Note_off_c, 0, 51, 64
2, 158560, Note_on_c, 0, 51, 100
2, 158560, Note_off_c, 0, 72, 64
2, 158560, Note_on_c, 0, 72, 100
2, 158560, Note_off_c, 0, 68, 64
2, 158560, Note_on_c, 0, 68, 100
2, 158560, Note_off_c, 0, 65, 64
2, 158560, Note_on_c, 0, 65, 100
2, 158560, Note_on_c, 0, 46, 100
2, 158560, Note_on_c, 0, 47, 100
2, 158560, Note_off_c, 0, 60, 64
2, 158560, Note_on_c, 0, 60, 100
2, 158688, Note_off_c, 0, 72, 64
2, 158688, Note_on_c, 0, 63, 100
2, 158688, Note_off_c, 0, 75, 64
2, 158688, Note_on_c, 0, 75, 100
2, 158688, Note_off_c, 0, 60, 64
2, 158688, Note_on_c, 0, 60, 100
2, 158816, Note_off_c, 0, 75, 64
2, 158816, Note_off_c, 0, 68, 64
2, 158816, Note_off_c, 0, 60, 64
2, 158816, Note_on_c, 0, 68, 100
2, 158816, Note_off_c, 0, 65, 64
2, 158816, Note_on_c, 0, 75, 100
2, 158816, Note_off_c, 0, 63, 64
2, 158816, Note_off_c, 0, 74, 64
2, 158816, Note_on_c, 0, 74, 100
2, 158816, Note_off_c, 0, 67, 64
2, 158816, Note_on_c, 0, 67, 100
2, 158816, Note_off_c, 0, 46, 64
2, 158816, Note_on_c, 0, 46, 100
2, 159008, Note_on_c, 0, 63, 100
2, 159008, Note_off_c, 0, 58, 64
2, 159072, Note_off_c, 0, 74, 64
2, 159072, Note_off_c, 0, 67, 64
2, 159072, Note_on_c, 0, 65, 100
2, 159072, Note_off_c, 0, 65, 64
2, 159072, Note_on_c, 0, 50, 100
2, 159072, Note_off_c, 0, 63, 64
2, 159072, Note_on_c, 0, 70, 100
2, 159072, Note_off_c, 0, 75, 64
2, 159072, Note_on_c, 0, 65, 100
2, 159072, Note_off_c, 0, 65, 64
2, 159200, Note_off_c, 0, 46, 64
2, 159200, Note_on_c, 0, 46, 100
2, 159200, Note_on_c, 0, 63, 100
2, 159200, Note_on_c, 0, 60, 100
2, 159200, Note_off_c, 0, 60, 64
2, 159200, Note_off_c, 0, 63, 64
2, 159200, Note_on_c, 0, 63, 100
2, 159200, Note_off_c, 0, 48, 64
2, 159200, Note_on_c, 0, 48, 100
2, 159200, Note_off_c, 0, 69, 64
2, 159200, Note_on_c, 0, 60, 100
2, 159200, Note_off_c, 0, 63, 64
2, 159200, Note_on_c, 0, 75, 100
2, 159328, Note_on_c, 0, 69, 100
2, 159328, Note_on_c, 0, 63, 100
2, 159328, Note_off_c, 0, 60, 64
2, 159328, Note_off_c, 0, 48, 64
2, 159328, Note_off_c, 0, 70, 64
2, 159328, Note_off_c, 0, 65, 64
2, 159328, Note_on_c, 0, 65, 100
2, 159328, Note_on_c, 0, 70, 100
2, 159328, Note_off_c, 0, 70, 64
2, 159328, Note_on_c, 0, 74, 100
2, 159328, Note_off_c, 0, 74, 64
2, 159328, Note_off_c, 0, 58, 64
2, 159328, Note_off_c, 0, 46, 64
2, 159328, Note_on_c, 0, 46, 100
2, 159328, Note_on_c, 0, 58, 100
2, 159328, Note_off_c, 0, 47, 64
2, 159328, Note_on_c, 0, 74, 100
2, 159456, Note_on_c, 0, 59, 100
2, 159456, Note_off_c, 0, 57, 64
2, 159456, Note_on_c, 0, 57, 100
2, 159584, Note_off_c, 0, 57, 64
2, 159584, Note_off_c, 0, 77, 64
2, 159584, Note_off_c, 0, 69, 64
2, 159584, Note_off_c, 0, 74, 64
2, 159584, Note_off_c, 0, 65, 64
2, 159584, Note_on_c, 0, 47, 100
2, 159584, Note_off_c, 0, 53, 64
2, 159584, Note_on_c, 0, 69, 100
2, 159584, Note_on_c, 0, 65, 100
2, 159584, Note_off_c, 0, 65, 64
2, 159584, Note_off_c, 0, 69, 64
2, 159712, Note_on_c, 0, 69, 100
2, 159712, Note_off_c, 0, 65, 64
2, 159712, Note_on_c, 0, 65, 100
2, 159840, Note_off_c, 0, 65, 64
2, 159840, Note_off_c, 0, 50, 64
2, 159840, Note_off_c, 0, 67, 64
2, 159840, Note_on_c, 0, 67, 100
2, 159840, Note_off_c, 0, 62, 64
2, 159840, Note_on_c, 0, 62, 100
2, 159840, Note_off_c, 0, 59, 64
2, 159840, Note_on_c, 0, 59, 100
2, 159968, Note_off_c, 0, 67, 64
2, 159968, Note_off_c, 0, 63, 64
2, 159968, Note_on_c, 0, 63, 100
2, 159968, Note_off_c, 0, 65, 64
2, 159968, Note_on_c, 0, 65, 100
2, 160096, Note_off_c, 0, 59, 64
2, 160096, Note_on_c, 0, 72, 100
2, 160096, Note_off_c, 0, 65, 64
2, 160096, Note_off_c, 0, 62, 64
2, 160096, Note_off_c, 0, 63, 64
2, 160096, Note_on_c, 0, 63, 100
2, 160096, Note_off_c, 0, 45, 64
2, 160096, Note_on_c, 0, 60, 100
2, 160096, Note_off_c, 0, 60, 64
2, 160096, Note_off_c, 0, 63, 64
2, 160096, Note_on_c, 0, 60, 100
2, 160096, Note_off_c, 0, 55, 64
2, 160096, Note_on_c, 0, 55, 100
2, 160096, Note_off_c, 0, 67, 64
2, 160096, Note_on_c, 0, 67, 100
2, 160096, Note_off_c, 0, 51, 64
2, 160096, Note_on_c, 0, 51, 100
2, 160224, Note_off_c, 0, 72, 64
2, 160224, Note_on_c, 0, 63, 100
2, 160224, Note_off_c, 0, 77, 64
2, 160224, Note_on_c, 0, 77, 100
2, 160224, Note_off_c, 0, 60, 64
2, 160224, Note_on_c, 0, 60, 100
2, 160352, Note_off_c, 0, 77, 64
2, 160352, Note_on_c, 0, 65, 100
2, 160352, Note_off_c, 0, 67, 64
2, 160352, Note_off_c, 0, 60, 64
2, 160352, Note_on_c, 0, 57, 100
2, 160352, Note_off_c, 0, 75, 64
2, 160352, Note_off_c, 0, 39, 64
2, 160352, Note_off_c, 0, 48, 64
2, 160352, Note_on_c, 0, 48, 100
2, 160352, Note_on_c, 0, 77, 100
2, 160352, Note_on_c, 0, 75, 100
2, 160352, Note_off_c, 0, 63, 64
2, 160352, Note_on_c, 0, 60, 100
2, 160480, Note_off_c, 0, 77, 64
2, 160480, Note_off_c, 0, 75, 64
2, 160480, Note_off_c, 0, 72, 64
2, 160480, Note_on_c, 0, 72, 100
2, 160480, Note_on_c, 0, 70, 100
2, 160480, Note_on_c, 0, 67, 100
2, 160608, Note_off_c, 0, 67, 64
2, 160608, Note_off_c, 0, 57, 64
2, 160608, Note_off_c, 0, 72, 64
2, 160608, Note_off_c, 0, 70, 64
2, 160608, Note_off_c, 0, 65, 64
2, 160608, Note_off_c, 0, 58, 64
2, 160608, Note_on_c, 0, 77, 100
2, 160608, Note_off_c, 0, 48, 64
2, 160608, Note_on_c, 0, 65, 100
2, 160608, Note_off_c, 0, 63, 64
2, 160608, Note_on_c, 0, 63, 100
2, 160608, Note_on_c, 0, 48, 100
2, 160608, Note_off_c, 0, 48, 64
2, 160608, Note_on_c, 0, 72, 100
2, 160608, Note_on_c, 0, 75, 100
2, 160608, Note_off_c, 0, 69, 64
2, 160608, Note_on_c, 0, 69, 100
2, 160608, Note_on_c, 0, 70, 100
2, 160608, Note_off_c, 0, 55, 64
2, 160608, Note_off_c, 0, 36, 64
2, 160608, Note_on_c, 0, 36, 100
2, 160736, Note_off_c, 0, 75, 64
2, 160736, Note_on_c, 0, 75, 100
2, 160736, Note_off_c, 0, 74, 64
2, 160736, Note_on_c, 0, 74, 100
2, 160864, Note_off_c, 0, 46, 64
2, 160864, Note_off_c, 0, 74, 64
2, 160864, Note_off_c, 0, 65, 64
2, 160864, Note_on_c, 0, 48, 100
2, 160864, Note_on_c, 0, 34, 100
2, 160864, Note_off_c, 0, 70, 64
2, 160864, Note_off_c, 0, 60, 64
2, 160864, Note_off_c, 0, 69, 64
2, 160864, Note_off_c, 0, 51, 64
2, 160864, Note_on_c, 0, 51, 100
2, 160864, Note_on_c, 0, 39, 100
2, 160992, Note_on_c, 0, 50, 100
2, 160992, Note_off_c, 0, 51, 64
2, 160992, Note_on_c, 0, 51, 100
2, 160992, Note_off_c, 0, 39, 64
2, 160992, Note_off_c, 0, 36, 64
2, 160992, Note_off_c, 0, 51, 64
2, 161120, Note_off_c, 0, 77, 64
2, 161120, Note_on_c, 0, 60, 100
2, 161120, Note_on_c, 0, 69, 100
2, 161120, Note_off_c, 0, 51, 64
2, 161120, Note_off_c, 0, 75, 64
2, 161120, Note_on_c, 0, 65, 100
2, 161120, Note_off_c, 0, 65, 64
2, 161120, Note_off_c, 0, 60, 64
2, 161120, Note_on_c, 0, 60, 100
2, 161120, Note_off_c, 0, 69, 64
2, 161120, Note_on_c, 0, 69, 100
2, 161120, Note_off_c, 0, 63, 64
2, 161120, Note_on_c, 0, 63, 100
2, 161120, Note_off_c, 0, 48, 64
2, 161120, Note_off_c, 0, 41, 64
2, 161120, Note_on_c, 0, 65, 100
2, 161120, Note_on_c, 0, 74, 100
2, 161120, Note_on_c, 0, 51, 100
2, 161248, Note_off_c, 0, 68, 64
2, 161248, Note_on_c, 0, 62, 100
2, 161248, Note_off_c, 0, 65, 64
2, 161248, Note_off_c, 0, 70, 64
2, 161248, Note_on_c, 0, 70, 100
2, 161248, Note_on_c, 0, 67, 100
2, 161376, Note_off_c, 0, 70, 64
2, 161376, Note_off_c, 0, 62, 64
2, 161376, Note_off_c, 0, 74, 64
2, 161376, Note_off_c, 0, 72, 64
2, 161376, Note_on_c, 0, 39, 100
2, 161376, Note_off_c, 0, 60, 64
2, 161504, Note_on_c, 0, 70, 100
2, 161504, Note_off_c, 0, 51, 64
2, 161504, Note_off_c, 0, 36, 64
2, 161504, Note_off_c, 0, 72, 64
2, 161504, Note_on_c, 0, 75, 100
2, 161504, Note_off_c, 0, 67, 64
2, 161504, Note_off_c, 0, 60, 64
2, 161504, Note_on_c, 0, 36, 100
2, 161504, Note_on_c, 0, 72, 100
2, 161504, Note_on_c, 0, 60, 100
2, 161504, Note_on_c, 0, 51, 100
2, 161504, Note_off_c, 0, 52, 64
2, 161632, Note_off_c, 0, 72, 64
2, 161632, Note_on_c, 0, 67, 100
2, 161632, Note_off_c, 0, 70, 64
2, 161632, Note_off_c, 0, 60, 64
2, 161632, Note_off_c, 0, 77, 64
2, 161632, Note_off_c, 0, 67, 64
2, 161632, Note_on_c, 0, 68, 100
2, 161632, Note_on_c, 0, 77, 100
2, 161632, Note_on_c, 0, 67, 100
2, 161632, Note_on_c, 0, 74, 100
2, 161632, Note_off_c, 0, 65, 64
2, 161632, Note_on_c, 0, 65, 100
2, 161760, Note_off_c, 0, 68, 64
2, 161760, Note_off_c, 0, 65, 64
2, 161760, Note_on_c, 0, 65, 100
2, 161760, Note_off_c, 0, 74, 64
2, 161760, Note_off_c, 0, 80, 64
2, 161760, Note_off_c, 0, 67, 64
2, 161760, Note_off_c, 0, 65, 64
2, 161888, Note_off_c, 0, 77, 64
2, 161888, Note_on_c, 0, 80, 100
2, 161888, Note_on_c, 0, 67, 100
2, 161888, Note_on_c, 0, 65, 100
2, 161888, Note_off_c, 0, 68, 64
2, 161888, Note_off_c, 0, 74, 64
2, 161888, Note_on_c, 0, 74, 100
2, 161888, Note_on_c, 0, 68, 100
2, 161888, Note_off_c, 0, 65, 64
2, 161888, Note_on_c, 0, 65, 100
2, 161888, Note_off_c, 0, 50, 64
2, 161888, Note_on_c, 0, 50, 100
2, 162016, Note_off_c, 0, 67, 64
2, 162016, Note_on_c, 0, 67, 100
2, 162016, Note_off_c, 0, 65, 64
2, 162016, Note_off_c, 0, 68, 64
2, 162144, Note_on_c, 0, 68, 100
2, 162144, Note_off_c, 0, 74, 64
2, 162144, Note_off_c, 0, 80, 64
2, 162144, Note_off_c, 0, 67, 64
2, 162144, Note_off_c, 0, 50, 64
2, 162144, Note_on_c, 0, 67, 100
2, 162144, Note_off_c, 0, 65, 64
2, 162144, Note_on_c, 0, 65, 100
2, 162144, Note_off_c, 0, 36, 64
2, 162144, Note_on_c, 0, 36, 100
2, 162144, Note_on_c, 0, 48, 100
2, 162272, Note_off_c, 0, 67, 64
2, 162272, Note_off_c, 0, 63, 64
2, 162272, Note_on_c, 0, 63, 100
2, 162272, Note_on_c, 0, 60, 100
2, 162272, Note_off_c, 0, 65, 64
2, 162272, Note_on_c, 0, 65, 100
2, 162400, Note_off_c, 0, 60, 64
2, 162400, Note_off_c, 0, 65, 64
2, 162400, Note_off_c, 0, 68, 64
2, 162400, Note_off_c, 0, 75, 64
2, 162400, Note_on_c, 0, 67, 100
2, 162400, Note_off_c, 0, 48, 64
2, 162400, Note_off_c, 0, 36, 64
2, 162400, Note_on_c, 0, 60, 100
2, 162400, Note_on_c, 0, 55, 100
2, 162400, Note_on_c, 0, 36, 100
2, 162400, Note_on_c, 0, 75, 100
2, 162400, Note_off_c, 0, 51, 64
2, 162528, Note_off_c, 0, 79, 64
2, 162528, Note_on_c, 0, 79, 100
2, 162528, Note_on_c, 0, 76, 100
2, 162656, Note_off_c, 0, 67, 64
2, 162656, Note_off_c, 0, 60, 64
2, 162656, Note_off_c, 0, 36, 64
2, 162656, Note_on_c, 0, 51, 100
2, 162656, Note_off_c, 0, 72, 64
2, 162656, Note_on_c, 0, 72, 100
2, 162656, Note_off_c, 0, 76, 64
2, 162656, Note_off_c, 0, 79, 64
2, 162656, Note_on_c, 0, 36, 100
2, 162656, Note_off_c, 0, 84, 64
2, 162656, Note_on_c, 0, 48, 100
2, 162656, Note_off_c, 0, 55, 64
2, 162784, Note_on_c, 0, 76, 100
2, 162784, Note_on_c, 0, 84, 100
2, 162784, Note_off_c, 0, 75, 64
2, 162912, Note_off_c, 0, 84, 64
2, 162912, Note_off_c, 0, 72, 64
2, 162912, Note_on_c, 0, 79, 100
2, 162912, Note_off_c, 0, 36, 64
2, 162912, Note_off_c, 0, 48, 64
2, 162912, Note_on_c, 0, 75, 100
2, 162912, Note_off_c, 0, 74, 64
2, 162912, Note_on_c, 0, 74, 100
2, 162912, Note_on_c, 0, 70, 100
2, 162912, Note_on_c, 0, 55, 100
2, 162912, Note_on_c, 0, 46, 100
2, 162912, Note_off_c, 0, 34, 64
2, 163040, Note_off_c, 0, 55, 64
2, 163040, Note_on_c, 0, 55, 100
2, 163040, Note_off_c, 0, 46, 64
2, 163040, Note_on_c, 0, 34, 100
2, 163040, Note_on_c, 0, 46, 100
2, 163040, Note_on_c, 0, 48, 100
2, 163232, Note_off_c, 0, 48, 64
2, 163232, Note_off_c, 0, 46, 64
2, 163232, Note_off_c, 0, 34, 64
2, 163232, Note_off_c, 0, 74, 64
2, 163232, Note_off_c, 0, 70, 64
2, 163232, Note_on_c, 0, 53, 100
2, 163232, Note_on_c, 0, 72, 100
2, 163232, Note_on_c, 0, 46, 100
2, 163232, Note_on_c, 0, 48, 100
2, 163232, Note_on_c, 0, 34, 100
2, 163360, Note_on_c, 0, 71, 100
2, 163488, Note_on_c, 0, 84, 100
2, 163488, Note_off_c, 0, 75, 64
2, 163488, Note_off_c, 0, 69, 64
2, 163488, Note_off_c, 0, 72, 64
2, 163488, Note_off_c, 0, 48, 64
2, 163488, Note_on_c, 0, 77, 100
2, 163488, Note_on_c, 0, 69, 100
2, 163488, Note_off_c, 0, 78, 64
2, 163488, Note_on_c, 0, 78, 100
2, 163488, Note_off_c, 0, 50, 64
2, 163488, Note_on_c, 0, 38, 100
2, 163488, Note_off_c, 0, 54, 64
2, 163488, Note_on_c, 0, 50, 100
2, 163616, Note_off_c, 0, 78, 64
2, 163616, Note_off_c, 0, 71, 64
2, 163616, Note_on_c, 0, 72, 100
2, 163616, Note_off_c, 0, 75, 64
2, 163616, Note_on_c, 0, 75, 100
2, 163744, Note_off_c, 0, 38, 64
2, 163744, Note_on_c, 0, 54, 100
2, 163744, Note_off_c, 0, 72, 64
2, 163744, Note_off_c, 0, 46, 64
2, 163744, Note_off_c, 0, 34, 64
2, 163744, Note_on_c, 0, 46, 100
2, 163872, Note_off_c, 0, 46, 64
2, 163872, Note_off_c, 0, 75, 64
2, 163872, Note_off_c, 0, 63, 64
2, 163872, Note_off_c, 0, 51, 64
2, 163872, Note_off_c, 0, 39, 64
2, 163872, Note_on_c, 0, 51, 100
2, 164000, Note_off_c, 0, 69, 64
2, 164000, Note_on_c, 0, 63, 100
2, 164000, Note_on_c, 0, 39, 100
2, 164000, Note_off_c, 0, 51, 64
2, 164000, Note_on_c, 0, 69, 100
2, 164000, Note_off_c, 0, 70, 64
2, 164000, Note_on_c, 0, 70, 100
2, 164000, Note_off_c, 0, 53, 64
2, 164000, Note_on_c, 0, 53, 100
2, 164000, Note_on_c, 0, 41, 100
2, 164000, Note_on_c, 0, 73, 100
2, 164128, Note_off_c, 0, 57, 64
2, 164128, Note_on_c, 0, 57, 100
2, 164256, Note_off_c, 0, 53, 64
2, 164256, Note_off_c, 0, 57, 64
2, 164256, Note_off_c, 0, 41, 64
2, 164256, Note_off_c, 0, 73, 64
2, 164256, Note_on_c, 0, 53, 100
2, 164256, Note_off_c, 0, 70, 64
2, 164256, Note_on_c, 0, 41, 100
2, 164256, Note_on_c, 0, 58, 100
2, 164256, Note_off_c, 0, 53, 64
2, 164384, Note_on_c, 0, 61, 100
2, 164384, Note_off_c, 0, 58, 64
2, 164384, Note_on_c, 0, 58, 100
2, 164512, Note_off_c, 0, 41, 64
2, 164512, Note_off_c, 0, 58, 64
2, 164512, Note_on_c, 0, 53, 100
2, 164512, Note_off_c, 0, 69, 64
2, 164512, Note_on_c, 0, 73, 100
2, 164512, Note_on_c, 0, 58, 100
2, 164512, Note_on_c, 0, 48, 100
2, 164512, Note_on_c, 0, 36, 100
2, 164512, Note_on_c, 0, 75, 100
2, 164512, Note_off_c, 0, 70, 64
2, 164512, Note_on_c, 0, 70, 100
2, 164640, Note_off_c, 0, 70, 64
2, 164640, Note_on_c, 0, 70, 100
2, 164768, Note_off_c, 0, 75, 64
2, 164768, Note_off_c, 0, 61, 64
2, 164768, Note_on_c, 0, 49, 100
2, 164768, Note_off_c, 0, 70, 64
2, 164768, Note_on_c, 0, 70, 100
2, 164768, Note_off_c, 0, 58, 64
2, 164768, Note_on_c, 0, 46, 100
2, 164768, Note_on_c, 0, 34, 100
2, 164768, Note_on_c, 0, 65, 100
2, 164896, Note_on_c, 0, 78, 100
2, 164896, Note_off_c, 0, 76, 64
2, 164896, Note_on_c, 0, 76, 100
2, 165024, Note_on_c, 0, 58, 100
2, 165024, Note_off_c, 0, 46, 64
2, 165024, Note_off_c, 0, 65, 64
2, 165024, Note_off_c, 0, 76, 64
2, 165024, Note_on_c, 0, 69, 100
2, 165024, Note_on_c, 0, 45, 100
2, 165024, Note_on_c, 0, 33, 100
2, 165024, Note_on_c, 0, 81, 100
2, 165024, Note_on_c, 0, 75, 100
2, 165152, Note_off_c, 0, 81, 64
2, 165152, Note_on_c, 0, 81, 100
2, 165280, Note_off_c, 0, 33, 64
2, 165280, Note_off_c, 0, 45, 64
2, 165280, Note_off_c, 0, 81, 64
2, 165280, Note_off_c, 0, 75, 64
2, 165280, Note_on_c, 0, 74, 100
2, 165280, Note_on_c, 0, 57, 100
2, 165280, Note_on_c, 0, 46, 100
2, 165280, Note_on_c, 0, 81, 100
2, 165280, Note_off_c, 0, 58, 64
2, 165408, Note_off_c, 0, 81, 64
2, 165408, Note_off_c, 0, 77, 64
2, 165408, Note_off_c, 0, 74, 64
2, 165408, Note_on_c, 0, 75, 100
2, 165536, Note_off_c, 0, 69, 64
2, 165536, Note_off_c, 0, 57, 64
2, 165536, Note_off_c, 0, 46, 64
2, 165536, Note_on_c, 0, 74, 100
2, 165536, Note_on_c, 0, 58, 100
2, 165536, Note_off_c, 0, 76, 64
2, 165536, Note_on_c, 0, 57, 100
2, 165536, Note_on_c, 0, 76, 100
2, 165536, Note_off_c, 0, 73, 64
2, 165536, Note_on_c, 0, 45, 100
2, 165536, Note_off_c, 0, 57, 64
2, 165664, Note_off_c, 0, 76, 64
2, 165792, Note_on_c, 0, 46, 100
2, 165792, Note_off_c, 0, 45, 64
2, 165792, Note_on_c, 0, 57, 100
2, 165792, Note_on_c, 0, 72, 100
2, 165920, Note_off_c, 0, 70, 64
2, 165920, Note_on_c, 0, 70, 100
2, 166048, Note_on_c, 0, 65, 100
2, 166048, Note_on_c, 0, 69, 100
2, 166048, Note_off_c, 0, 46, 64
2, 166048, Note_on_c, 0, 67, 100
2, 166048, Note_off_c, 0, 60, 64
2, 166048, Note_off_c, 0, 75, 64
2, 166048, Note_on_c, 0, 73, 100
2, 166048, Note_on_c, 0, 76, 100
2, 166048, Note_on_c, 0, 46, 100
2, 166048, Note_on_c, 0, 60, 100
2, 166176, Note_off_c, 0, 76, 64
2, 166176, Note_off_c, 0, 60, 64
2, 166176, Note_on_c, 0, 60, 100
2, 166176, Note_on_c, 0, 77, 100
2, 166304, Note_off_c, 0, 46, 64
2, 166304, Note_off_c, 0, 34, 64
2, 166304, Note_off_c, 0, 70, 64
2, 166304, Note_off_c, 0, 60, 64
2, 166304, Note_off_c, 0, 67, 64
2, 166304, Note_on_c, 0, 46, 100
2, 166304, Note_off_c, 0, 73, 64
2, 166304, Note_off_c, 0, 46, 64
2, 166304, Note_off_c, 0, 74, 64
2, 166304, Note_on_c, 0, 74, 100
2, 166304, Note_off_c, 0, 65, 64
2, 166304, Note_on_c, 0, 34, 100
2, 166304, Note_on_c, 0, 70, 100
2, 166432, Note_off_c, 0, 73, 64
2, 166432, Note_on_c, 0, 73, 100
2, 166560, Note_on_c, 0, 46, 100
2, 166560, Note_on_c, 0, 37, 100
2, 166560, Note_off_c, 0, 73, 64
2, 166560, Note_off_c, 0, 70, 64
2, 166560, Note_on_c, 0, 65, 100
2, 166560, Note_on_c, 0, 70, 100
2, 166560, Note_off_c, 0, 43, 64
2, 166560, Note_off_c, 0, 55, 64
2, 166560, Note_off_c, 0, 70, 64
2, 166560, Note_on_c, 0, 67, 100
2, 166560, Note_on_c, 0, 61, 100
2, 166688, Note_off_c, 0, 69, 64
2, 166688, Note_on_c, 0, 70, 100
2, 166688, Note_on_c, 0, 73, 100
2, 166688, Note_off_c, 0, 65, 64
2, 166816, Note_off_c, 0, 61, 64
2, 166816, Note_on_c, 0, 76, 100
2, 166816, Note_on_c, 0, 43, 100
2, 166816, Note_on_c, 0, 69, 100
2, 166816, Note_off_c, 0, 53, 64
2, 166816, Note_off_c, 0, 41, 64
2, 166816, Note_on_c, 0, 41, 100
2, 166816, Note_on_c, 0, 55, 100
2, 166816, Note_off_c, 0, 74, 64
2, 166944, Note_on_c, 0, 74, 100
2, 166944, Note_off_c, 0, 76, 64
2, 166944, Note_off_c, 0, 55, 64
2, 166944, Note_on_c, 0, 76, 100
2, 167072, Note_on_c, 0, 53, 100
2, 167072, Note_off_c, 0, 41, 64
2, 167072, Note_off_c, 0, 73, 64
2, 167072, Note_off_c, 0, 77, 64
2, 167072, Note_on_c, 0, 65, 100
2, 167072, Note_off_c, 0, 69, 64
2, 167072, Note_on_c, 0, 69, 100
2, 167072, Note_on_c, 0, 61, 100
2, 167072, Note_off_c, 0, 45, 64
2, 167072, Note_on_c, 0, 33, 100
2, 167072, Note_on_c, 0, 45, 100
2, 167200, Note_on_c, 0, 77, 100
2, 167200, Note_off_c, 0, 74, 64
2, 167200, Note_on_c, 0, 74, 100
2, 167328, Note_off_c, 0, 61, 64
2, 167328, Note_off_c, 0, 33, 64
2, 167328, Note_off_c, 0, 45, 64
2, 167328, Note_off_c, 0, 74, 64
2, 167328, Note_off_c, 0, 69, 64
2, 167328, Note_off_c, 0, 79, 64
2, 167328, Note_on_c, 0, 61, 100
2, 167328, Note_off_c, 0, 49, 64
2, 167328, Note_off_c, 0, 64, 64
2, 167328, Note_on_c, 0, 73, 100
2, 167328, Note_on_c, 0, 69, 100
2, 167456, Note_on_c, 0, 79, 100
2, 167456, Note_off_c, 0, 69, 64
2, 167456, Note_off_c, 0, 73, 64
2, 167456, Note_off_c, 0, 77, 64
2, 167456, Note_on_c, 0, 69, 100
2, 167584, Note_on_c, 0, 49, 100
2, 167584, Note_off_c, 0, 61, 64
2, 167584, Note_off_c, 0, 65, 64
2, 167584, Note_off_c, 0, 49, 64
2, 167584, Note_on_c, 0, 77, 100
2, 167584, Note_on_c, 0, 73, 100
2, 167584, Note_off_c, 0, 69, 64
2, 167584, Note_off_c, 0, 76, 64
2, 167584, Note_on_c, 0, 69, 100
2, 167584, Note_on_c, 0, 65, 100
2, 167584, Note_on_c, 0, 49, 100
2, 167584, Note_off_c, 0, 37, 64
2, 167584, Note_off_c, 0, 49, 64
2, 167712, Note_off_c, 0, 74, 64
2, 167712, Note_on_c, 0, 74, 100
2, 167776, Note_off_c, 0, 65, 64
2, 167840, Note_off_c, 0, 76, 64
2, 167840, Note_off_c, 0, 69, 64
2, 167840, Note_on_c, 0, 37, 100
2, 167840, Note_on_c, 0, 49, 100
2, 167840, Note_on_c, 0, 76, 100
2, 167840, Note_off_c, 0, 70, 64
2, 167840, Note_on_c, 0, 70, 100
2, 167840, Note_off_c, 0, 50, 64
2, 167840, Note_on_c, 0, 38, 100
2, 167840, Note_off_c, 0, 54, 64
2, 167840, Note_on_c, 0, 54, 100
2, 167840, Note_on_c, 0, 64, 100
2, 167968, Note_off_c, 0, 64, 64
2, 167968, Note_off_c, 0, 70, 64
2, 167968, Note_on_c, 0, 64, 100
2, 167968, Note_off_c, 0, 74, 64
2, 167968, Note_on_c, 0, 74, 100
2, 168096, Note_on_c, 0, 50, 100
2, 168096, Note_off_c, 0, 38, 64
2, 168096, Note_off_c, 0, 37, 64
2, 168096, Note_off_c, 0, 74, 64
2, 168096, Note_off_c, 0, 62, 64
2, 168096, Note_on_c, 0, 62, 100
2, 168096, Note_off_c, 0, 54, 64
2, 168096, Note_on_c, 0, 54, 100
2, 168096, Note_off_c, 0, 54, 64
2, 168096, Note_off_c, 0, 57, 64
2, 168096, Note_on_c, 0, 74, 100
2, 168096, Note_off_c, 0, 76, 64
2, 168096, Note_on_c, 0, 76, 100
2, 168096, Note_off_c, 0, 49, 64
2, 168096, Note_on_c, 0, 49, 100
2, 168224, Note_off_c, 0, 76, 64
2, 168224, Note_on_c, 0, 69, 100
2, 168352, Note_on_c, 0, 57, 100
2, 168352, Note_off_c, 0, 73, 64
2, 168352, Note_off_c, 0, 69, 64
2, 168352, Note_off_c, 0, 62, 64
2, 168352, Note_off_c, 0, 49, 64
2, 168352, Note_on_c, 0, 73, 100
2, 168352, Note_off_c, 0, 66, 64
2, 168352, Note_on_c, 0, 66, 100
2, 168352, Note_off_c, 0, 74, 64
2, 168352, Note_on_c, 0, 45, 100
2, 168352, Note_on_c, 0, 74, 100
2, 168352, Note_on_c, 0, 69, 100
2, 168352, Note_off_c, 0, 78, 64
2, 168352, Note_on_c, 0, 62, 100
2, 168352, Note_on_c, 0, 54, 100
2, 168480, Note_off_c, 0, 69, 64
2, 168480, Note_off_c, 0, 54, 64
2, 168480, Note_off_c, 0, 74, 64
2, 168480, Note_off_c, 0, 66, 64
2, 168480, Note_off_c, 0, 58, 64
2, 168608, Note_off_c, 0, 74, 64
2, 168608, Note_off_c, 0, 62, 64
2, 168608, Note_off_c, 0, 66, 64
2, 168608, Note_off_c, 0, 58, 64
2, 168608, Note_on_c, 0, 38, 100
2, 168608, Note_on_c, 0, 78, 100
2, 168608, Note_on_c, 0, 74, 100
2, 168608, Note_on_c, 0, 70, 100
2, 168608, Note_on_c, 0, 66, 100
2, 168608, Note_on_c, 0, 58, 100
2, 168608, Note_off_c, 0, 46, 64
2, 168608, Note_on_c, 0, 59, 100
2, 168736, Note_off_c, 0, 74, 64
2, 168736, Note_off_c, 0, 66, 64
2, 168736, Note_on_c, 0, 69, 100
2, 168736, Note_off_c, 0, 72, 64
2, 168736, Note_off_c, 0, 75, 64
2, 168736, Note_on_c, 0, 75, 100
2, 168800, Note_off_c, 0, 47, 64
2, 168800, Note_on_c, 0, 72, 100
2, 168864, Note_on_c, 0, 47, 100
2, 168864, Note_off_c, 0, 59, 64
2, 168864, Note_off_c, 0, 45, 64
2, 168864, Note_off_c, 0, 72, 64
2, 168864, Note_off_c, 0, 77, 64
2, 168864, Note_on_c, 0, 66, 100
2, 168864, Note_off_c, 0, 75, 64
2, 168864, Note_off_c, 0, 57, 64
2, 168864, Note_on_c, 0, 57, 100
2, 168864, Note_on_c, 0, 77, 100
2, 168992, Note_off_c, 0, 77, 64
2, 168992, Note_off_c, 0, 75, 64
2, 168992, Note_on_c, 0, 75, 100
2, 169120, Note_off_c, 0, 75, 64
2, 169120, Note_off_c, 0, 72, 64
2, 169120, Note_off_c, 0, 66, 64
2, 169120, Note_on_c, 0, 45, 100
2, 169120, Note_off_c, 0, 45, 64
2, 169120, Note_off_c, 0, 57, 64
2, 169120, Note_on_c, 0, 72, 100
2, 169120, Note_off_c, 0, 60, 64
2, 169120, Note_on_c, 0, 57, 100
2, 169120, Note_on_c, 0, 45, 100
2, 169120, Note_off_c, 0, 78, 64
2, 169120, Note_on_c, 0, 60, 100
2, 169248, Note_off_c, 0, 77, 64
2, 169248, Note_off_c, 0, 69, 64
2, 169248, Note_off_c, 0, 72, 64
2, 169248, Note_on_c, 0, 77, 100
2, 169312, Note_off_c, 0, 57, 64
2, 169312, Note_off_c, 0, 45, 64
2, 169312, Note_on_c, 0, 72, 100
2, 169376, Note_off_c, 0, 60, 64
2, 169376, Note_on_c, 0, 45, 100
2, 169376, Note_on_c, 0, 33, 100
2, 169376, Note_off_c, 0, 78, 64
2, 169376, Note_on_c, 0, 78, 100
2, 169376, Note_off_c, 0, 72, 64
2, 169376, Note_off_c, 0, 38, 64
2, 169376, Note_on_c, 0, 74, 100
2, 169376, Note_off_c, 0, 50, 64
2, 169504, Note_off_c, 0, 78, 64
2, 169504, Note_off_c, 0, 72, 64
2, 169504, Note_off_c, 0, 79, 64
2, 169504, Note_on_c, 0, 78, 100
2, 169504, Note_off_c, 0, 74, 64
2, 169504, Note_on_c, 0, 74, 100
2, 169504, Note_off_c, 0, 74, 64
2, 169504, Note_on_c, 0, 69, 100
2, 169504, Note_on_c, 0, 72, 100
2, 169632, Note_off_c, 0, 38, 64
2, 169632, Note_on_c, 0, 50, 100
2, 169632, Note_off_c, 0, 72, 64
2, 169632, Note_off_c, 0, 78, 64
2, 169632, Note_off_c, 0, 74, 64
2, 169632, Note_off_c, 0, 69, 64
2, 169632, Note_on_c, 0, 74, 100
2, 169632, Note_off_c, 0, 67, 64
2, 169632, Note_off_c, 0, 79, 64
2, 169632, Note_on_c, 0, 62, 100
2, 169632, Note_on_c, 0, 38, 100
2, 169632, Note_on_c, 0, 79, 100
2, 169760, Note_off_c, 0, 79, 64
2, 169760, Note_off_c, 0, 58, 64
2, 169760, Note_on_c, 0, 67, 100
2, 169760, Note_off_c, 0, 62, 64
2, 169824, Note_off_c, 0, 74, 64
2, 169888, Note_off_c, 0, 38, 64
2, 169888, Note_off_c, 0, 67, 64
2, 169888, Note_off_c, 0, 58, 64
2, 169888, Note_on_c, 0, 58, 100
2, 170016, Note_off_c, 0, 58, 64
2, 170080, Note_on_c, 0, 62, 100
2, 170080, Note_on_c, 0, 38, 100
2, 170080, Note_off_c, 0, 69, 64
2, 170080, Note_on_c, 0, 67, 100
2, 170080, Note_off_c, 0, 60, 64
2, 170080, Note_on_c, 0, 60, 100
2, 170080, Note_on_c, 0, 69, 100
2, 170144, Note_off_c, 0, 45, 64
2, 170144, Note_off_c, 0, 60, 64
2, 170144, Note_off_c, 0, 67, 64
2, 170208, Note_off_c, 0, 63, 64
2, 170208, Note_off_c, 0, 72, 64
2, 170208, Note_on_c, 0, 72, 100
2, 170208, Note_off_c, 0, 57, 64
2, 170208, Note_on_c, 0, 60, 100
2, 170208, Note_off_c, 0, 66, 64
2, 170208, Note_off_c, 0, 69, 64
2, 170208, Note_on_c, 0, 66, 100
2, 170208, Note_on_c, 0, 63, 100
2, 170208, Note_on_c, 0, 57, 100
2, 170336, Note_on_c, 0, 69, 100
2, 170336, Note_off_c, 0, 63, 64
2, 170336, Note_off_c, 0, 66, 64
2, 170336, Note_off_c, 0, 60, 64
2, 170336, Note_on_c, 0, 67, 100
2, 170336, Note_on_c, 0, 75, 100
2, 170464, Note_off_c, 0, 57, 64
2, 170464, Note_off_c, 0, 67, 64
2, 170464, Note_off_c, 0, 58, 64
2, 170464, Note_on_c, 0, 58, 100
2, 170464, Note_off_c, 0, 69, 64
2, 170464, Note_off_c, 0, 72, 64
2, 170464, Note_on_c, 0, 69, 100
2, 170464, Note_on_c, 0, 55, 100
2, 170464, Note_on_c, 0, 60, 100
2, 170592, Note_off_c, 0, 69, 64
2, 170592, Note_off_c, 0, 58, 64
2, 170592, Note_off_c, 0, 60, 64
2, 170592, Note_off_c, 0, 55, 64
2, 170592, Note_on_c, 0, 69, 100
2, 170592, Note_on_c, 0, 67, 100
2, 170720, Note_off_c, 0, 69, 64
2, 170720, Note_on_c, 0, 60, 100
2, 170720, Note_off_c, 0, 67, 64
2, 170720, Note_on_c, 0, 58, 100
2, 170720, Note_off_c, 0, 70, 64
2, 170720, Note_off_c, 0, 54, 64
2, 170720, Note_on_c, 0, 54, 100
2, 170720, Note_on_c, 0, 69, 100
2, 170848, Note_off_c, 0, 69, 64
2, 170848, Note_on_c, 0, 66, 100
2, 170976, Note_on_c, 0, 78, 100
2, 170976, Note_off_c, 0, 66, 64
2, 171040, Note_on_c, 0, 72, 100
2, 171040, Note_off_c, 0, 75, 64
2, 171040, Note_on_c, 0, 75, 100
2, 171104, Note_off_c, 0, 75, 64
2, 171168, Note_on_c, 0, 66, 100
2, 171232, Note_on_c, 0, 70, 100
2, 171232, Note_off_c, 0, 50, 64
2, 171232, Note_on_c, 0, 63, 100
2, 171232, Note_off_c, 0, 66, 64
2, 171232, Note_on_c, 0, 69, 100
2, 171232, Note_off_c, 0, 62, 64
2, 171232, Note_on_c, 0, 62, 100
2, 171488, Note_on_c, 0, 66, 100
2, 171488, Note_off_c, 0, 63, 64
2, 171488, Note_on_c, 0, 74, 100
2, 171488, Note_off_c, 0, 70, 64
2, 171616, Note_off_c, 0, 74, 64
2, 171616, Note_off_c, 0, 62, 64
2, 171616, Note_off_c, 0, 63, 64
2, 171616, Note_on_c, 0, 63, 100
2, 171616, Note_off_c, 0, 69, 64
2, 171744, Note_off_c, 0, 63, 64
2, 171744, Note_off_c, 0, 69, 64
2, 171744, Note_on_c, 0, 62, 100
2, 171744, Note_on_c, 0, 63, 100
2, 171744, Note_on_c, 0, 74, 100
2, 171744, Note_on_c, 0, 69, 100
2, 171744, Note_on_c, 0, 70, 100
2, 171744, Note_off_c, 0, 66, 64
2, 171808, Note_off_c, 0, 62, 64
2, 171808, Note_off_c, 0, 63, 64
2, 171808, Note_off_c, 0, 58, 64
2, 171872, Note_off_c, 0, 74, 64
2, 171872, Note_off_c, 0, 72, 64
2, 171872, Note_on_c, 0, 72, 100
2, 171936, Note_on_c, 0, 74, 100
2, 171936, Note_off_c, 0, 72, 64
2, 172000, Note_off_c, 0, 74, 64
2, 172000, Note_on_c, 0, 75, 100
2, 172000, Note_on_c, 0, 74, 100
2, 172000, Note_off_c, 0, 70, 64
2, 172000, Note_off_c, 0, 77, 64
2, 172000, Note_on_c, 0, 65, 100
2, 172000, Note_off_c, 0, 69, 64
2, 172064, Note_off_c, 0, 74, 64
2, 172064, Note_off_c, 0, 72, 64
2, 172064, Note_on_c, 0, 72, 100
2, 172128, Note_on_c, 0, 70, 100
2, 172128, Note_on_c, 0, 69, 100
2, 172128, Note_on_c, 0, 66, 100
2, 172128, Note_off_c, 0, 60, 64
2, 172128, Note_on_c, 0, 58, 100
2, 172128, Note_off_c, 0, 65, 64
2, 172128, Note_on_c, 0, 74, 100
2, 172128, Note_off_c, 0, 67, 64
2, 172128, Note_on_c, 0, 67, 100
2, 172192, Note_off_c, 0, 78, 64
2, 172192, Note_on_c, 0, 77, 100
2, 172256, Note_off_c, 0, 74, 64
2, 172256, Note_on_c, 0, 74, 100
2, 172256, Note_on_c, 0, 60, 100
2, 172256, Note_on_c, 0, 50, 100
2, 172320, Note_off_c, 0, 72, 64
2, 172320, Note_on_c, 0, 72, 100
2, 172320, Note_off_c, 0, 60, 64
2, 172320, Note_on_c, 0, 60, 100
2, 172320, Note_off_c, 0, 72, 64
2, 172320, Note_off_c, 0, 70, 64
2, 172320, Note_off_c, 0, 67, 64
2, 172384, Note_on_c, 0, 70, 100
2, 172384, Note_off_c, 0, 60, 64
2, 172384, Note_off_c, 0, 69, 64
2, 172384, Note_on_c, 0, 69, 100
2, 172384, Note_on_c, 0, 72, 100
2, 172384, Note_off_c, 0, 72, 64
2, 172384, Note_on_c, 0, 72, 100
2, 172384, Note_on_c, 0, 60, 100
2, 172384, Note_off_c, 0, 67, 64
2, 172384, Note_on_c, 0, 67, 100
2, 172384, Note_off_c, 0, 69, 64
2, 172448, Note_off_c, 0, 65, 64
2, 172448, Note_on_c, 0, 65, 100
2, 172512, Note_off_c, 0, 58, 64
2, 172512, Note_off_c, 0, 60, 64
2, 172576, Note_on_c, 0, 69, 100
2, 172576, Note_off_c, 0, 62, 64
2, 172576, Note_on_c, 0, 62, 100
2, 172576, Note_off_c, 0, 70, 64
2, 172576, Note_on_c, 0, 70, 100
2, 172576, Note_on_c, 0, 60, 100
2, 172640, Note_off_c, 0, 62, 64
2, 172640, Note_on_c, 0, 58, 100
2, 172640, Note_off_c, 0, 70, 64
2, 172640, Note_off_c, 0, 55, 64
2, 172640, Note_on_c, 0, 55, 100
2, 172704, Note_off_c, 0, 55, 64
2, 172704, Note_off_c, 0, 60, 64
2, 172704, Note_on_c, 0, 70, 100
2, 172704, Note_off_c, 0, 65, 64
2, 172704, Note_on_c, 0, 65, 100
2, 172704, Note_off_c, 0, 72, 64
2, 172704, Note_off_c, 0, 57, 64
2, 172704, Note_on_c, 0, 57, 100
2, 172704, Note_off_c, 0, 74, 64
2, 172704, Note_off_c, 0, 63, 64
2, 172704, Note_on_c, 0, 63, 100
2, 172768, Note_off_c, 0, 65, 64
2, 172768, Note_on_c, 0, 74, 100
2, 172768, Note_off_c, 0, 57, 64
2, 172768, Note_off_c, 0, 63, 64
2, 172832, Note_off_c, 0, 72, 64
2, 172832, Note_on_c, 0, 72, 100
2, 172832, Note_off_c, 0, 57, 64
2, 172832, Note_on_c, 0, 60, 100
2, 172832, Note_off_c, 0, 77, 64
2, 172832, Note_on_c, 0, 77, 100
2, 172832, Note_on_c, 0, 57, 100
2, 172896, Note_off_c, 0, 72, 64
2, 172896, Note_on_c, 0, 63, 100
2, 172896, Note_off_c, 0, 57, 64
2, 172896, Note_on_c, 0, 79, 100
2, 172960, Note_off_c, 0, 77, 64
2, 172960, Note_off_c, 0, 72, 64
2, 172960, Note_off_c, 0, 81, 64
2, 172960, Note_on_c, 0, 81, 100
2, 172960, Note_on_c, 0, 72, 100
2, 172960, Note_off_c, 0, 53, 64
2, 172960, Note_on_c, 0, 55, 100
2, 172960, Note_on_c, 0, 62, 100
2, 173024, Note_off_c, 0, 81, 64
2, 173024, Note_off_c, 0, 79, 64
2, 173024, Note_on_c, 0, 79, 100
2, 173088, Note_off_c, 0, 62, 64
2, 173088, Note_off_c, 0, 77, 64
2, 173088, Note_on_c, 0, 77, 100
2, 173088, Note_off_c, 0, 55, 64
2, 173088, Note_off_c, 0, 79, 64
2, 173088, Note_off_c, 0, 75, 64
2, 173088, Note_off_c, 0, 74, 64
2, 173152, Note_off_c, 0, 55, 64
2, 173152, Note_off_c, 0, 81, 64
2, 173152, Note_on_c, 0, 81, 100
2, 173152, Note_off_c, 0, 77, 64
2, 173152, Note_on_c, 0, 74, 100
2, 173152, Note_on_c, 0, 55, 100
2, 173216, Note_off_c, 0, 36, 64
2, 173216, Note_off_c, 0, 81, 64
2, 173216, Note_off_c, 0, 69, 64
2, 173216, Note_off_c, 0, 53, 64
2, 173216, Note_on_c, 0, 81, 100
2, 173216, Note_on_c, 0, 53, 100
2, 173216, Note_off_c, 0, 79, 64
2, 173216, Note_on_c, 0, 79, 100
2, 173216, Note_on_c, 0, 69, 100
2, 173280, Note_off_c, 0, 79, 64
2, 173280, Note_on_c, 0, 79, 100
2, 173344, Note_off_c, 0, 53, 64
2, 173344, Note_off_c, 0, 60, 64
2, 173344, Note_on_c, 0, 60, 100
2, 173344, Note_off_c, 0, 77, 64
2, 173344, Note_on_c, 0, 77, 100
2, 173344, Note_off_c, 0, 74, 64
2, 173344, Note_on_c, 0, 74, 100
2, 173344, Note_off_c, 0, 38, 64
2, 173344, Note_on_c, 0, 38, 100
2, 173472, Note_off_c, 0, 55, 64
2, 173472, Note_off_c, 0, 77, 64
2, 173472, Note_off_c, 0, 74, 64
2, 173472, Note_off_c, 0, 50, 64
2, 173472, Note_off_c, 0, 67, 64
2, 173472, Note_on_c, 0, 67, 100
2, 173472, Note_on_c, 0, 76, 100
2, 173472, Note_off_c, 0, 76, 64
2, 173472, Note_on_c, 0, 55, 100
2, 173472, Note_on_c, 0, 76, 100
2, 173472, Note_off_c, 0, 76, 64
2, 173472, Note_on_c, 0, 76, 100
2, 173600, Note_off_c, 0, 67, 64
2, 173600, Note_off_c, 0, 76, 64
2, 173600, Note_off_c, 0, 69, 64
2, 173600, Note_on_c, 0, 69, 100
2, 173664, Note_off_c, 0, 55, 64
2, 173728, Note_off_c, 0, 38, 64
2, 173728, Note_off_c, 0, 77, 64
2, 173728, Note_on_c, 0, 77, 100
2, 173728, Note_off_c, 0, 60, 64
2, 173728, Note_on_c, 0, 60, 100
2, 173728, Note_off_c, 0, 69, 64
2, 173728, Note_off_c, 0, 57, 64
2, 173728, Note_on_c, 0, 57, 100
2, 173728, Note_on_c, 0, 38, 100
2, 173728, Note_off_c, 0, 38, 64
2, 173728, Note_off_c, 0, 75, 64
2, 173728, Note_on_c, 0, 75, 100
2, 173728, Note_off_c, 0, 72, 64
2, 173728, Note_on_c, 0, 72, 100
2, 173792, Note_on_c, 0, 69, 100
2, 173856, Note_off_c, 0, 72, 64
2, 173856, Note_off_c, 0, 39, 64
2, 173856, Note_off_c, 0, 60, 64
2, 173856, Note_on_c, 0, 38, 100
2, 173856, Note_off_c, 0, 63, 64
2, 173856, Note_off_c, 0, 65, 64
2, 173856, Note_off_c, 0, 77, 64
2, 173856, Note_on_c, 0, 62, 100
2, 173856, Note_on_c, 0, 65, 100
2, 173856, Note_off_c, 0, 57, 64
2, 173984, Note_off_c, 0, 70, 64
2, 173984, Note_on_c, 0, 63, 100
2, 173984, Note_off_c, 0, 65, 64
2, 174048, Note_off_c, 0, 69, 64
2, 174048, Note_on_c, 0, 69, 100
2, 174048, Note_off_c, 0, 62, 64
2, 174048, Note_on_c, 0, 65, 100
2, 174048, Note_on_c, 0, 39, 100
2, 174048, Note_off_c, 0, 60, 64
2, 174048, Note_on_c, 0, 60, 100
2, 174048, Note_off_c, 0, 74, 64
2, 174048, Note_on_c, 0, 74, 100
2, 174176, Note_off_c, 0, 60, 64
2, 174176, Note_off_c, 0, 74, 64
2, 174176, Note_on_c, 0, 72, 100
2, 174176, Note_off_c, 0, 77, 64
2, 174176, Note_on_c, 0, 77, 100
2, 174176, Note_off_c, 0, 62, 64
2, 174176, Note_on_c, 0, 60, 100
2, 174176, Note_off_c, 0, 79, 64
2, 174176, Note_on_c, 0, 79, 100
2, 174176, Note_on_c, 0, 70, 100
2, 174176, Note_off_c, 0, 75, 64
2, 174176, Note_on_c, 0, 62, 100
2, 174304, Note_off_c, 0, 79, 64
2, 174304, Note_off_c, 0, 70, 64
2, 174304, Note_off_c, 0, 60, 64
2, 174304, Note_off_c, 0, 77, 64
2, 174304, Note_off_c, 0, 62, 64
2, 174304, Note_on_c, 0, 75, 100
2, 174304, Note_off_c, 0, 38, 64
2, 174304, Note_off_c, 0, 72, 64
2, 174304, Note_on_c, 0, 70, 100
2, 174304, Note_off_c, 0, 58, 64
2, 174304, Note_off_c, 0, 69, 64
2, 174304, Note_off_c, 0, 81, 64
2, 174304, Note_on_c, 0, 72, 100
2, 174432, Note_on_c, 0, 58, 100
2, 174432, Note_off_c, 0, 57, 64
2, 174432, Note_on_c, 0, 57, 100
2, 174432, Note_off_c, 0, 60, 64
2, 174432, Note_on_c, 0, 60, 100
2, 174560, Note_off_c, 0, 58, 64
2, 174560, Note_off_c, 0, 77, 64
2, 174560, Note_off_c, 0, 60, 64
2, 174560, Note_off_c, 0, 57, 64
2, 174560, Note_on_c, 0, 60, 100
2, 174560, Note_off_c, 0, 60, 64
2, 174560, Note_off_c, 0, 75, 64
2, 174560, Note_on_c, 0, 75, 100
2, 174560, Note_on_c, 0, 69, 100
2, 174560, Note_off_c, 0, 65, 64
2, 174560, Note_on_c, 0, 53, 100
2, 174560, Note_on_c, 0, 77, 100
2, 174560, Note_off_c, 0, 72, 64
2, 174624, Note_on_c, 0, 58, 100
2, 174688, Note_off_c, 0, 53, 64
2, 174688, Note_off_c, 0, 51, 64
2, 174688, Note_on_c, 0, 51, 100
2, 174688, Note_on_c, 0, 67, 100
2, 174688, Note_on_c, 0, 46, 100
2, 174816, Note_off_c, 0, 48, 64
2, 174816, Note_on_c, 0, 72, 100
2, 174816, Note_on_c, 0, 65, 100
2, 174816, Note_on_c, 0, 48, 100
2, 174816, Note_off_c, 0, 69, 64
2, 174816, Note_on_c, 0, 53, 100
2, 174816, Note_on_c, 0, 69, 100
2, 174816, Note_off_c, 0, 53, 64
2, 174816, Note_off_c, 0, 57, 64
2, 174816, Note_on_c, 0, 53, 100
2, 174816, Note_off_c, 0, 67, 64
2, 174816, Note_off_c, 0, 69, 64
2, 174816, Note_off_c, 0, 63, 64
2, 174816, Note_on_c, 0, 57, 100
2, 174976, Note_off_c, 0, 53, 64
2, 174976, Note_on_c, 0, 69, 100
2, 174976, Note_on_c, 0, 67, 100
2, 175040, Note_off_c, 0, 46, 64
2, 175040, Note_off_c, 0, 70, 64
2, 175040, Note_on_c, 0, 63, 100
2, 175040, Note_off_c, 0, 75, 64
2, 175040, Note_off_c, 0, 67, 64
2, 175104, Note_on_c, 0, 53, 100
2, 175104, Note_off_c, 0, 46, 64
2, 175104, Note_on_c, 0, 46, 100
2, 175104, Note_on_c, 0, 67, 100
2, 175104, Note_off_c, 0, 65, 64
2, 175104, Note_on_c, 0, 60, 100
2, 175104, Note_on_c, 0, 65, 100
2, 175104, Note_off_c, 0, 65, 64
2, 175104, Note_off_c, 0, 72, 64
2, 175104, Note_on_c, 0, 72, 100
2, 175104, Note_off_c, 0, 72, 64
2, 175296, Note_on_c, 0, 72, 100
2, 175296, Note_off_c, 0, 53, 64
2, 175296, Note_off_c, 0, 66, 64
2, 175360, Note_off_c, 0, 46, 64
2, 175360, Note_off_c, 0, 63, 64
2, 175360, Note_off_c, 0, 60, 64
2, 175360, Note_off_c, 0, 48, 64
2, 175360, Note_on_c, 0, 66, 100
2, 175360, Note_off_c, 0, 70, 64
2, 175360, Note_on_c, 0, 70, 100
2, 175360, Note_off_c, 0, 67, 64
2, 175360, Note_on_c, 0, 75, 100
2, 175360, Note_off_c, 0, 72, 64
2, 175360, Note_on_c, 0, 48, 100
2, 175360, Note_on_c, 0, 63, 100
2, 175360, Note_off_c, 0, 63, 64
2, 175360, Note_on_c, 0, 67, 100
2, 175424, Note_on_c, 0, 36, 100
2, 175424, Note_off_c, 0, 70, 64
2, 175424, Note_off_c, 0, 77, 64
2, 175424, Note_on_c, 0, 72, 100
2, 175424, Note_on_c, 0, 63, 100
2, 175424, Note_off_c, 0, 48, 64
2, 175424, Note_off_c, 0, 45, 64
2, 175424, Note_on_c, 0, 45, 100
2, 175424, Note_off_c, 0, 33, 64
2, 175424, Note_off_c, 0, 58, 64
2, 175488, Note_off_c, 0, 65, 64
2, 175488, Note_on_c, 0, 46, 100
2, 175488, Note_off_c, 0, 34, 64
2, 175488, Note_on_c, 0, 65, 100
2, 175488, Note_off_c, 0, 46, 64
2, 175488, Note_on_c, 0, 62, 100
2, 175488, Note_on_c, 0, 58, 100
2, 175488, Note_on_c, 0, 46, 100
2, 175488, Note_off_c, 0, 66, 64
2, 175488, Note_off_c, 0, 67, 64
2, 175488, Note_on_c, 0, 67, 100
2, 175488, Note_on_c, 0, 74, 100
2, 175488, Note_on_c, 0, 82, 100
2, 175552, Note_off_c, 0, 58, 64
2, 175552, Note_off_c, 0, 63, 64
2, 175552, Note_on_c, 0, 63, 100
2, 175616, Note_off_c, 0, 45, 64
2, 175616, Note_off_c, 0, 46, 64
2, 175680, Note_off_c, 0, 43, 64
2, 175680, Note_on_c, 0, 43, 100
2, 175744, Note_on_c, 0, 46, 100
2, 175744, Note_off_c, 0, 43, 64
2, 175808, Note_on_c, 0, 43, 100
2, 175808, Note_on_c, 0, 55, 100
2, 175808, Note_off_c, 0, 45, 64
2, 175808, Note_on_c, 0, 45, 100
2, 175808, Note_off_c, 0, 65, 64
2, 175808, Note_off_c, 0, 57, 64
2, 175872, Note_off_c, 0, 63, 64
2, 175872, Note_on_c, 0, 63, 100
2, 175872, Note_off_c, 0, 48, 64
2, 175872, Note_on_c, 0, 48, 100
2, 175872, Note_on_c, 0, 57, 100
2, 175872, Note_on_c, 0, 58, 100
2, 175936, Note_off_c, 0, 74, 64
2, 175936, Note_off_c, 0, 55, 64
2, 175936, Note_off_c, 0, 45, 64
2, 175936, Note_off_c, 0, 48, 64
2, 175936, Note_off_c, 0, 46, 64
2, 175936, Note_off_c, 0, 63, 64
2, 175936, Note_off_c, 0, 58, 64
2, 175936, Note_off_c, 0, 72, 64
2, 175936, Note_off_c, 0, 57, 64
2, 176000, Note_on_c, 0, 66, 100
2, 176000, Note_off_c, 0, 69, 64
2, 176000, Note_on_c, 0, 46, 100
2, 176000, Note_on_c, 0, 69, 100
2, 176000, Note_on_c, 0, 57, 100
2, 176000, Note_on_c, 0, 60, 100
2, 176064, Note_off_c, 0, 46, 64
2, 176064, Note_on_c, 0, 45, 100
2, 176064, Note_off_c, 0, 60, 64
2, 176192, Note_off_c, 0, 66, 64
2, 176192, Note_off_c, 0, 62, 64
2, 176192, Note_off_c, 0, 45, 64
2, 176192, Note_on_c, 0, 60, 100
2, 176192, Note_off_c, 0, 57, 64
2, 176192, Note_on_c, 0, 46, 100
2, 176192, Note_on_c, 0, 45, 100
2, 176192, Note_off_c, 0, 69, 64
2, 176192, Note_off_c, 0, 63, 64
2, 176192, Note_on_c, 0, 63, 100
2, 176192, Note_off_c, 0, 55, 64
2, 176192, Note_on_c, 0, 55, 100
2, 176192, Note_on_c, 0, 72, 100
2, 176320, Note_off_c, 0, 45, 64
2, 176320, Note_off_c, 0, 63, 64
2, 176320, Note_off_c, 0, 46, 64
2, 176320, Note_on_c, 0, 62, 100
2, 176320, Note_off_c, 0, 55, 64
2, 176320, Note_off_c, 0, 43, 64
2, 176320, Note_off_c, 0, 72, 64
2, 176320, Note_off_c, 0, 70, 64
2, 176320, Note_on_c, 0, 70, 100
2, 176320, Note_on_c, 0, 63, 100
2, 176320, Note_on_c, 0, 43, 100
2, 176320, Note_on_c, 0, 69, 100
2, 176384, Note_off_c, 0, 63, 64
2, 176384, Note_on_c, 0, 72, 100
2, 176384, Note_off_c, 0, 70, 64
2, 176384, Note_on_c, 0, 46, 100
2, 176384, Note_on_c, 0, 63, 100
2, 176384, Note_off_c, 0, 67, 64
2, 176448, Note_off_c, 0, 70, 64
2, 176448, Note_on_c, 0, 70, 100
2, 176448, Note_off_c, 0, 63, 64
2, 176448, Note_off_c, 0, 48, 64
2, 176448, Note_off_c, 0, 60, 64
2, 176448, Note_off_c, 0, 69, 64
2, 176448, Note_on_c, 0, 69, 100
2, 176448, Note_off_c, 0, 57, 64
2, 176448, Note_on_c, 0, 57, 100
2, 176448, Note_on_c, 0, 67, 100
2, 176448, Note_on_c, 0, 48, 100
2, 176704, Note_off_c, 0, 57, 64
2, 176704, Note_off_c, 0, 48, 64
2, 176704, Note_off_c, 0, 70, 64
2, 176704, Note_on_c, 0, 63, 100
2, 176704, Note_on_c, 0, 70, 100
2, 176832, Note_off_c, 0, 72, 64
2, 176832, Note_off_c, 0, 70, 64
2, 176896, Note_off_c, 0, 69, 64
2, 176896, Note_off_c, 0, 54, 64
2, 176960, Note_on_c, 0, 55, 100
2, 176960, Note_off_c, 0, 70, 64
2, 176960, Note_off_c, 0, 72, 64
2, 176960, Note_off_c, 0, 67, 64
2, 176960, Note_off_c, 0, 55, 64
2, 176960, Note_on_c, 0, 70, 100
2, 176960, Note_off_c, 0, 63, 64
2, 176960, Note_off_c, 0, 48, 64
2, 176960, Note_on_c, 0, 48, 100
2, 176960, Note_off_c, 0, 75, 64
2, 176960, Note_on_c, 0, 72, 100
2, 176960, Note_on_c, 0, 55, 100
2, 177088, Note_off_c, 0, 58, 64
2, 177088, Note_on_c, 0, 58, 100
2, 177088, Note_off_c, 0, 72, 64
2, 177088, Note_off_c, 0, 70, 64
2, 177088, Note_off_c, 0, 67, 64
2, 177088, Note_on_c, 0, 67, 100
2, 177216, Note_off_c, 0, 48, 64
2, 177216, Note_off_c, 0, 51, 64
2, 177216, Note_on_c, 0, 63, 100
2, 177216, Note_off_c, 0, 58, 64
2, 177216, Note_on_c, 0, 70, 100
2, 177216, Note_off_c, 0, 67, 64
2, 177216, Note_on_c, 0, 57, 100
2, 177216, Note_on_c, 0, 69, 100
2, 177216, Note_off_c, 0, 78, 64
2, 177216, Note_on_c, 0, 78, 100
2, 177216, Note_on_c, 0, 51, 100
2, 177216, Note_on_c, 0, 50, 100
2, 177344, Note_off_c, 0, 69, 64
2, 177344, Note_off_c, 0, 51, 64
2, 177344, Note_off_c, 0, 75, 64
2, 177344, Note_on_c, 0, 75, 100
2, 177344, Note_on_c, 0, 58, 100
2, 177472, Note_off_c, 0, 51, 64
2, 177472, Note_off_c, 0, 75, 64
2, 177472, Note_off_c, 0, 58, 64
2, 177472, Note_off_c, 0, 50, 64
2, 177472, Note_off_c, 0, 78, 64
2, 177472, Note_on_c, 0, 79, 100
2, 177472, Note_off_c, 0, 70, 64
2, 177472, Note_on_c, 0, 69, 100
2, 177472, Note_on_c, 0, 51, 100
2, 177600, Note_on_c, 0, 78, 100
2, 177600, Note_off_c, 0, 79, 64
2, 177600, Note_off_c, 0, 69, 64
2, 177600, Note_on_c, 0, 79, 100
2, 177600, Note_off_c, 0, 79, 64
2, 177600, Note_off_c, 0, 75, 64
2, 177600, Note_on_c, 0, 75, 100
2, 177600, Note_on_c, 0, 70, 100
2, 177728, Note_on_c, 0, 67, 100
2, 177728, Note_off_c, 0, 51, 64
2, 177728, Note_on_c, 0, 79, 100
2, 177728, Note_off_c, 0, 78, 64
2, 177728, Note_on_c, 0, 81, 100
2, 177728, Note_on_c, 0, 69, 100
2, 177728, Note_off_c, 0, 82, 64
2, 177728, Note_on_c, 0, 66, 100
2, 177728, Note_on_c, 0, 50, 100
2, 177728, Note_off_c, 0, 81, 64
2, 177728, Note_on_c, 0, 81, 100
2, 177728, Note_on_c, 0, 78, 100
2, 177856, Note_off_c, 0, 69, 64
2, 177856, Note_off_c, 0, 70, 64
2, 177856, Note_on_c, 0, 70, 100
2, 177856, Note_off_c, 0, 79, 64
2, 177856, Note_off_c, 0, 81, 64
2, 177984, Note_off_c, 0, 50, 64
2, 177984, Note_on_c, 0, 81, 100
2, 177984, Note_off_c, 0, 66, 64
2, 177984, Note_off_c, 0, 62, 64
2, 177984, Note_on_c, 0, 62, 100
2, 177984, Note_off_c, 0, 78, 64
2, 177984, Note_off_c, 0, 74, 64
2, 177984, Note_off_c, 0, 70, 64
2, 177984, Note_off_c, 0, 55, 64
2, 177984, Note_on_c, 0, 55, 100
2, 177984, Note_off_c, 0, 67, 64
2, 177984, Note_on_c, 0, 67, 100
2, 177984, Note_on_c, 0, 74, 100
2, 178112, Note_on_c, 0, 70, 100
2, 178112, Note_off_c, 0, 66, 64
2, 178112, Note_on_c, 0, 66, 100
2, 178112, Note_off_c, 0, 67, 64
2, 178112, Note_on_c, 0, 67, 100
2, 178240, Note_off_c, 0, 66, 64
2, 178240, Note_off_c, 0, 70, 64
2, 178240, Note_off_c, 0, 74, 64
2, 178240, Note_off_c, 0, 55, 64
2, 178240, Note_off_c, 0, 67, 64
2, 178240, Note_on_c, 0, 74, 100
2, 178240, Note_off_c, 0, 57, 64
2, 178240, Note_on_c, 0, 57, 100
2, 178368, Note_off_c, 0, 57, 64
2, 178368, Note_on_c, 0, 58, 100
2, 178368, Note_on_c, 0, 67, 100
2, 178368, Note_on_c, 0, 70, 100
2, 178496, Note_off_c, 0, 67, 64
2, 178496, Note_off_c, 0, 74, 64
2, 178496, Note_off_c, 0, 58, 64
2, 178496, Note_on_c, 0, 66, 100
2, 178496, Note_off_c, 0, 57, 64
2, 178496, Note_on_c, 0, 57, 100
2, 178496, Note_off_c, 0, 72, 64
2, 178496, Note_on_c, 0, 72, 100
2, 178496, Note_on_c, 0, 69, 100
2, 178496, Note_on_c, 0, 67, 100
2, 178624, Note_off_c, 0, 66, 64
2, 178624, Note_off_c, 0, 57, 64
2, 178624, Note_off_c, 0, 69, 64
2, 178624, Note_off_c, 0, 75, 64
2, 178624, Note_on_c, 0, 66, 100
2, 178624, Note_off_c, 0, 55, 64
2, 178624, Note_on_c, 0, 55, 100
2, 178624, Note_off_c, 0, 72, 64
2, 178752, Note_off_c, 0, 66, 64
2, 178752, Note_off_c, 0, 57, 64
2, 178752, Note_on_c, 0, 75, 100
2, 178752, Note_on_c, 0, 57, 100
2, 178752, Note_on_c, 0, 77, 100
2, 178752, Note_on_c, 0, 74, 100
2, 178752, Note_on_c, 0, 58, 100
2, 178752, Note_off_c, 0, 67, 64
2, 178752, Note_on_c, 0, 67, 100
2, 178752, Note_off_c, 0, 55, 64
2, 178880, Note_off_c, 0, 74, 64
2, 178880, Note_off_c, 0, 69, 64
2, 178880, Note_on_c, 0, 69, 100
2, 178880, Note_off_c, 0, 77, 64
2, 178880, Note_off_c, 0, 70, 64
2, 178880, Note_on_c, 0, 70, 100
2, 179008, Note_off_c, 0, 58, 64
2, 179008, Note_off_c, 0, 67, 64
2, 179008, Note_off_c, 0, 55, 64
2, 179008, Note_off_c, 0, 69, 64
2, 179008, Note_off_c, 0, 70, 64
2, 179008, Note_on_c, 0, 55, 100
2, 179008, Note_off_c, 0, 75, 64
2, 179008, Note_on_c, 0, 61, 100
2, 179008, Note_on_c, 0, 75, 100
2, 179008, Note_off_c, 0, 73, 64
2, 179008, Note_on_c, 0, 73, 100
2, 179008, Note_off_c, 0, 73, 64
2, 179008, Note_off_c, 0, 57, 64
2, 179136, Note_on_c, 0, 73, 100
2, 179136, Note_off_c, 0, 75, 64
2, 179136, Note_on_c, 0, 75, 100
2, 179264, Note_off_c, 0, 75, 64
2, 179264, Note_off_c, 0, 55, 64
2, 179264, Note_off_c, 0, 53, 64
2, 179264, Note_off_c, 0, 76, 64
2, 179264, Note_on_c, 0, 76, 100
2, 179264, Note_off_c, 0, 61, 64
2, 179264, Note_on_c, 0, 53, 100
2, 179264, Note_off_c, 0, 69, 64
2, 179264, Note_on_c, 0, 69, 100
2, 179264, Note_on_c, 0, 57, 100
2, 179264, Note_on_c, 0, 55, 100
2, 179264, Note_on_c, 0, 58, 100
2, 179264, Note_on_c, 0, 61, 100
2, 179264, Note_off_c, 0, 77, 64
2, 179264, Note_on_c, 0, 77, 100
2, 179264, Note_on_c, 0, 82, 100
2, 179392, Note_off_c, 0, 77, 64
2, 179392, Note_off_c, 0, 74, 64
2, 179392, Note_on_c, 0, 74, 100
2, 179392, Note_off_c, 0, 70, 64
2, 179392, Note_on_c, 0, 70, 100
2, 179392, Note_off_c, 0, 69, 64
2, 179392, Note_on_c, 0, 69, 100
2, 179520, Note_off_c, 0, 55, 64
2, 179520, Note_off_c, 0, 70, 64
2, 179520, Note_off_c, 0, 74, 64
2, 179520, Note_on_c, 0, 77, 100
2, 179520, Note_on_c, 0, 70, 100
2, 179520, Note_off_c, 0, 73, 64
2, 179520, Note_on_c, 0, 73, 100
2, 179520, Note_off_c, 0, 70, 64
2, 179520, Note_off_c, 0, 69, 64
2, 179520, Note_on_c, 0, 69, 100
2, 179520, Note_off_c, 0, 76, 64
2, 179520, Note_on_c, 0, 76, 100
2, 179520, Note_off_c, 0, 61, 64
2, 179520, Note_on_c, 0, 61, 100
2, 179712, Note_off_c, 0, 77, 64
2, 179712, Note_off_c, 0, 73, 64
2, 179712, Note_off_c, 0, 76, 64
2, 179776, Note_off_c, 0, 69, 64
2, 179776, Note_off_c, 0, 61, 64
2, 179776, Note_on_c, 0, 69, 100
2, 179776, Note_off_c, 0, 69, 64
2, 179776, Note_on_c, 0, 73, 100
2, 179776, Note_on_c, 0, 52, 100
2, 179776, Note_on_c, 0, 65, 100
2, 179776, Note_off_c, 0, 53, 64
2, 179776, Note_off_c, 0, 77, 64
2, 179776, Note_on_c, 0, 77, 100
2, 179776, Note_on_c, 0, 53, 100
2, 179968, Note_off_c, 0, 77, 64
2, 179968, Note_off_c, 0, 73, 64
2, 179968, Note_off_c, 0, 76, 64
2, 179968, Note_on_c, 0, 76, 100
2, 179968, Note_on_c, 0, 69, 100
2, 179968, Note_off_c, 0, 65, 64
2, 180032, Note_off_c, 0, 76, 64
2, 180032, Note_off_c, 0, 74, 64
2, 180032, Note_on_c, 0, 74, 100
2, 180032, Note_off_c, 0, 71, 64
2, 180032, Note_on_c, 0, 71, 100
2, 180032, Note_off_c, 0, 56, 64
2, 180032, Note_on_c, 0, 65, 100
2, 180032, Note_off_c, 0, 64, 64
2, 180032, Note_off_c, 0, 68, 64
2, 180032, Note_on_c, 0, 68, 100
2, 180160, Note_off_c, 0, 74, 64
2, 180160, Note_off_c, 0, 76, 64
2, 180160, Note_on_c, 0, 76, 100
2, 180160, Note_off_c, 0, 73, 64
2, 180160, Note_on_c, 0, 73, 100
2, 180288, Note_off_c, 0, 61, 64
2, 180288, Note_on_c, 0, 64, 100
2, 180288, Note_on_c, 0, 77, 100
2, 180288, Note_off_c, 0, 77, 64
2, 180288, Note_on_c, 0, 77, 100
2, 180288, Note_off_c, 0, 71, 64
2, 180288, Note_off_c, 0, 76, 64
2, 180288, Note_on_c, 0, 61, 100
2, 180288, Note_off_c, 0, 68, 64
2, 180288, Note_off_c, 0, 65, 64
2, 180288, Note_off_c, 0, 73, 64
2, 180288, Note_on_c, 0, 73, 100
2, 180288, Note_off_c, 0, 69, 64
2, 180288, Note_on_c, 0, 69, 100
2, 180288, Note_off_c, 0, 53, 64
2, 180416, Note_off_c, 0, 74, 64
2, 180416, Note_on_c, 0, 74, 100
2, 180480, Note_off_c, 0, 73, 64
2, 180480, Note_on_c, 0, 73, 100
2, 180544, Note_off_c, 0, 74, 64
2, 180544, Note_off_c, 0, 73, 64
2, 180544, Note_on_c, 0, 74, 100
2, 180544, Note_off_c, 0, 77, 64
2, 180544, Note_on_c, 0, 77, 100
2, 180544, Note_off_c, 0, 69, 64
2, 180544, Note_on_c, 0, 69, 100
2, 180544, Note_off_c, 0, 64, 64
2, 180544, Note_on_c, 0, 65, 100
2, 180544, Note_off_c, 0, 68, 64
2, 180544, Note_on_c, 0, 68, 100
2, 180544, Note_on_c, 0, 56, 100
2, 180544, Note_off_c, 0, 52, 64
2, 180672, Note_off_c, 0, 74, 64
2, 180672, Note_off_c, 0, 73, 64
2, 180672, Note_on_c, 0, 73, 100
2, 180672, Note_off_c, 0, 68, 64
2, 180672, Note_on_c, 0, 68, 100
2, 180800, Note_off_c, 0, 68, 64
2, 180800, Note_off_c, 0, 74, 64
2, 180800, Note_off_c, 0, 73, 64
2, 180800, Note_off_c, 0, 77, 64
2, 180800, Note_on_c, 0, 73, 100
2, 180800, Note_on_c, 0, 68, 100
2, 180800, Note_off_c, 0, 68, 64
2, 180800, Note_on_c, 0, 66, 100
2, 180800, Note_on_c, 0, 64, 100
2, 180800, Note_off_c, 0, 56, 64
2, 180800, Note_on_c, 0, 56, 100
2, 180800, Note_on_c, 0, 74, 100
2, 180800, Note_off_c, 0, 56, 64
2, 180800, Note_off_c, 0, 71, 64
2, 180800, Note_on_c, 0, 71, 100
2, 180800, Note_on_c, 0, 52, 100
2, 180928, Note_off_c, 0, 68, 64
2, 180928, Note_on_c, 0, 68, 100
2, 180928, Note_off_c, 0, 73, 64
2, 180928, Note_on_c, 0, 73, 100
2, 180928, Note_off_c, 0, 71, 64
2, 180928, Note_off_c, 0, 66, 64
2, 180928, Note_on_c, 0, 66, 100
2, 180928, Note_off_c, 0, 66, 64
2, 181056, Note_off_c, 0, 76, 64
2, 181056, Note_on_c, 0, 76, 100
2, 181056, Note_off_c, 0, 73, 64
2, 181056, Note_off_c, 0, 71, 64
2, 181056, Note_on_c, 0, 71, 100
2, 181056, Note_off_c, 0, 68, 64
2, 181056, Note_off_c, 0, 65, 64
2, 181056, Note_on_c, 0, 77, 100
2, 181056, Note_off_c, 0, 74, 64
2, 181056, Note_on_c, 0, 56, 100
2, 181056, Note_off_c, 0, 56, 64
2, 181056, Note_on_c, 0, 68, 100
2, 181056, Note_on_c, 0, 65, 100
2, 181056, Note_on_c, 0, 56, 100
2, 181056, Note_off_c, 0, 61, 64
2, 181056, Note_on_c, 0, 61, 100
2, 181056, Note_off_c, 0, 62, 64
2, 181056, Note_on_c, 0, 62, 100
2, 181312, Note_off_c, 0, 77, 64
2, 181312, Note_off_c, 0, 73, 64
2, 181312, Note_on_c, 0, 73, 100
2, 181312, Note_off_c, 0, 69, 64
2, 181312, Note_off_c, 0, 65, 64
2, 181312, Note_on_c, 0, 65, 100
2, 181312, Note_off_c, 0, 62, 64
2, 181312, Note_off_c, 0, 56, 64
2, 181312, Note_off_c, 0, 71, 64
2, 181312, Note_off_c, 0, 68, 64
2, 181312, Note_off_c, 0, 61, 64
2, 181312, Note_off_c, 0, 65, 64
2, 181312, Note_on_c, 0, 77, 100
2, 181440, Note_off_c, 0, 77, 64
2, 181440, Note_off_c, 0, 71, 64
2, 181440, Note_on_c, 0, 71, 100
2, 181568, Note_on_c, 0, 56, 100
2, 181568, Note_on_c, 0, 68, 100
2, 181568, Note_off_c, 0, 65, 64
2, 181568, Note_on_c, 0, 65, 100
2, 181568, Note_off_c, 0, 73, 64
2, 181568, Note_on_c, 0, 73, 100
2, 181568, Note_off_c, 0, 69, 64
2, 181568, Note_on_c, 0, 69, 100
2, 181568, Note_off_c, 0, 61, 64
2, 181568, Note_on_c, 0, 61, 100
2, 181824, Note_off_c, 0, 69, 64
2, 181824, Note_on_c, 0, 77, 100
2, 181824, Note_off_c, 0, 73, 64
2, 181824, Note_off_c, 0, 61, 64
2, 181824, Note_on_c, 0, 61, 100
2, 181824, Note_on_c, 0, 59, 100
2, 181824, Note_off_c, 0, 76, 64
2, 181824, Note_on_c, 0, 76, 100
2, 181824, Note_off_c, 0, 68, 64
2, 181824, Note_off_c, 0, 66, 64
2, 181824, Note_on_c, 0, 66, 100
2, 181824, Note_off_c, 0, 61, 64
2, 181952, Note_off_c, 0, 71, 64
2, 181952, Note_off_c, 0, 66, 64
2, 181952, Note_on_c, 0, 66, 100
2, 181952, Note_on_c, 0, 61, 100
2, 181952, Note_off_c, 0, 76, 64
2, 181952, Note_off_c, 0, 73, 64
2, 181952, Note_on_c, 0, 73, 100
2, 181952, Note_off_c, 0, 59, 64
2, 181952, Note_on_c, 0, 59, 100
2, 182080, Note_off_c, 0, 66, 64
2, 182080, Note_on_c, 0, 66, 100
2, 182080, Note_off_c, 0, 59, 64
2, 182080, Note_off_c, 0, 73, 64
2, 182080, Note_off_c, 0, 66, 64
2, 182080, Note_off_c, 0, 74, 64
2, 182080, Note_on_c, 0, 74, 100
2, 182080, Note_on_c, 0, 59, 100
2, 182080, Note_off_c, 0, 59, 64
2, 182208, Note_off_c, 0, 74, 64
2, 182208, Note_on_c, 0, 78, 100
2, 182208, Note_off_c, 0, 78, 64
2, 182208, Note_on_c, 0, 78, 100
2, 182208, Note_off_c, 0, 76, 64
2, 182208, Note_on_c, 0, 76, 100
2, 182336, Note_on_c, 0, 59, 100
2, 182336, Note_off_c, 0, 76, 64
2, 182336, Note_off_c, 0, 78, 64
2, 182336, Note_off_c, 0, 66, 64
2, 182336, Note_on_c, 0, 66, 100
2, 182336, Note_off_c, 0, 71, 64
2, 182336, Note_on_c, 0, 71, 100
2, 182336, Note_off_c, 0, 73, 64
2, 182336, Note_on_c, 0, 73, 100
2, 182336, Note_off_c, 0, 74, 64
2, 182336, Note_on_c, 0, 74, 100
2, 182336, Note_on_c, 0, 62, 100
2, 182336, Note_off_c, 0, 64, 64
2, 182336, Note_on_c, 0, 64, 100
2, 182464, Note_off_c, 0, 74, 64
2, 182464, Note_off_c, 0, 73, 64
2, 182464, Note_on_c, 0, 73, 100
2, 182464, Note_off_c, 0, 71, 64
2, 182464, Note_on_c, 0, 71, 100
2, 182464, Note_off_c, 0, 64, 64
2, 182464, Note_off_c, 0, 62, 64
2, 182464, Note_on_c, 0, 62, 100
2, 182592, Note_on_c, 0, 74, 100
2, 182592, Note_off_c, 0, 73, 64
2, 182592, Note_off_c, 0, 74, 64
2, 182592, Note_off_c, 0, 66, 64
2, 182592, Note_on_c, 0, 66, 100
2, 182592, Note_on_c, 0, 73, 100
2, 182592, Note_off_c, 0, 73, 64
2, 182592, Note_on_c, 0, 74, 100
2, 182592, Note_off_c, 0, 71, 64
2, 182592, Note_off_c, 0, 65, 64
2, 182592, Note_on_c, 0, 65, 100
2, 182592, Note_off_c, 0, 56, 64
2, 182592, Note_on_c, 0, 56, 100
2, 182592, Note_off_c, 0, 64, 64
2, 182592, Note_on_c, 0, 64, 100
2, 182592, Note_off_c, 0, 56, 64
2, 182592, Note_on_c, 0, 56, 100
2, 182720, Note_on_c, 0, 73, 100
2, 182720, Note_off_c, 0, 74, 64
2, 182720, Note_on_c, 0, 74, 100
2, 182848, Note_off_c, 0, 74, 64
2, 182848, Note_off_c, 0, 64, 64
2, 182848, Note_off_c, 0, 62, 64
2, 182848, Note_off_c, 0, 56, 64
2, 182848, Note_on_c, 0, 71, 100
2, 182848, Note_off_c, 0, 61, 64
2, 182848, Note_on_c, 0, 61, 100
2, 182848, Note_off_c, 0, 73, 64
2, 182848, Note_on_c, 0, 73, 100
2, 182848, Note_on_c, 0, 56, 100
2, 182848, Note_off_c, 0, 57, 64
2, 182848, Note_on_c, 0, 57, 100
2, 182848, Note_off_c, 0, 61, 64
2, 182976, Note_on_c, 0, 72, 100
2, 182976, Note_off_c, 0, 64, 64
2, 182976, Note_on_c, 0, 64, 100
2, 182976, Note_off_c, 0, 56, 64
2, 182976, Note_on_c, 0, 76, 100
2, 183104, Note_off_c, 0, 57, 64
2, 183104, Note_off_c, 0, 72, 64
2, 183104, Note_off_c, 0, 64, 64
2, 183104, Note_on_c, 0, 56, 100
2, 183104, Note_off_c, 0, 56, 64
2, 183104, Note_on_c, 0, 56, 100
2, 183104, Note_off_c, 0, 73, 64
2, 183104, Note_on_c, 0, 73, 100
2, 183104, Note_off_c, 0, 76, 64
2, 183104, Note_on_c, 0, 76, 100
2, 183232, Note_off_c, 0, 73, 64
2, 183232, Note_off_c, 0, 71, 64
2, 183232, Note_on_c, 0, 71, 100
2, 183360, Note_off_c, 0, 56, 64
2, 183360, Note_off_c, 0, 71, 64
2, 183360, Note_off_c, 0, 76, 64
2, 183360, Note_off_c, 0, 57, 64
2, 183360, Note_on_c, 0, 57, 100
2, 183360, Note_on_c, 0, 76, 100
2, 183360, Note_off_c, 0, 73, 64
2, 183360, Note_on_c, 0, 73, 100
2, 183360, Note_off_c, 0, 54, 64
2, 183360, Note_on_c, 0, 54, 100
2, 183488, Note_off_c, 0, 73, 64
2, 183488, Note_on_c, 0, 73, 100
2, 183488, Note_off_c, 0, 76, 64
2, 183616, Note_off_c, 0, 54, 64
2, 183616, Note_on_c, 0, 76, 100
2, 183616, Note_off_c, 0, 73, 64
2, 183616, Note_off_c, 0, 57, 64
2, 183616, Note_on_c, 0, 57, 100
2, 183616, Note_off_c, 0, 59, 64
2, 183616, Note_on_c, 0, 59, 100
2, 183616, Note_off_c, 0, 78, 64
2, 183616, Note_on_c, 0, 78, 100
2, 183616, Note_off_c, 0, 71, 64
2, 183616, Note_on_c, 0, 71, 100
2, 183744, Note_off_c, 0, 74, 64
2, 183744, Note_on_c, 0, 74, 100
2, 183808, Note_off_c, 0, 59, 64
2, 183872, Note_off_c, 0, 74, 64
2, 183872, Note_off_c, 0, 78, 64
2, 183872, Note_off_c, 0, 57, 64
2, 183872, Note_on_c, 0, 57, 100
2, 183872, Note_off_c, 0, 71, 64
2, 183872, Note_off_c, 0, 59, 64
2, 183872, Note_on_c, 0, 59, 100
2, 183936, Note_off_c, 0, 76, 64
2, 183936, Note_on_c, 0, 76, 100
2, 184000, Note_off_c, 0, 71, 64
2, 184000, Note_on_c, 0, 71, 100
2, 184000, Note_off_c, 0, 74, 64
2, 184000, Note_on_c, 0, 74, 100
2, 184064, Note_off_c, 0, 76, 64
2, 184128, Note_off_c, 0, 57, 64
2, 184128, Note_on_c, 0, 78, 100
2, 184128, Note_off_c, 0, 74, 64
2, 184128, Note_off_c, 0, 71, 64
2, 184128, Note_off_c, 0, 56, 64
2, 184128, Note_on_c, 0, 56, 100
2, 184128, Note_on_c, 0, 76, 100
2, 184128, Note_off_c, 0, 76, 64
2, 184128, Note_on_c, 0, 76, 100
2, 184256, Note_on_c, 0, 71, 100
2, 184256, Note_off_c, 0, 78, 64
2, 184256, Note_on_c, 0, 78, 100
2, 184384, Note_off_c, 0, 59, 64
2, 184384, Note_on_c, 0, 61, 100
2, 184384, Note_off_c, 0, 71, 64
2, 184384, Note_off_c, 0, 73, 64
2, 184384, Note_on_c, 0, 73, 100
2, 184512, Note_off_c, 0, 78, 64
2, 184512, Note_off_c, 0, 73, 64
2, 184512, Note_on_c, 0, 73, 100
2, 184640, Note_off_c, 0, 61, 64
2, 184640, Note_off_c, 0, 73, 64
2, 184640, Note_off_c, 0, 56, 64
2, 184640, Note_off_c, 0, 76, 64
2, 184640, Note_on_c, 0, 76, 100
2, 184640, Note_on_c, 0, 56, 100
2, 184640, Note_off_c, 0, 44, 64
2, 184640, Note_off_c, 0, 71, 64
2, 184640, Note_on_c, 0, 71, 100
2, 184640, Note_off_c, 0, 56, 64
2, 184768, Note_off_c, 0, 76, 64
2, 184768, Note_off_c, 0, 73, 64
2, 184768, Note_on_c, 0, 73, 100
2, 184832, Note_off_c, 0, 73, 64
2, 184896, Note_on_c, 0, 56, 100
2, 184896, Note_on_c, 0, 44, 100
2, 184896, Note_off_c, 0, 71, 64
2, 184896, Note_on_c, 0, 71, 100
2, 184896, Note_off_c, 0, 56, 64
2, 184896, Note_on_c, 0, 56, 100
2, 184896, Note_off_c, 0, 72, 64
2, 184896, Note_on_c, 0, 72, 100
2, 184896, Note_off_c, 0, 75, 64
2, 184896, Note_on_c, 0, 75, 100
2, 185024, Note_off_c, 0, 72, 64
2, 185024, Note_off_c, 0, 71, 64
2, 185024, Note_on_c, 0, 71, 100
2, 185152, Note_off_c, 0, 56, 64
2, 185152, Note_off_c, 0, 71, 64
2, 185152, Note_on_c, 0, 80, 100
2, 185152, Note_off_c, 0, 80, 64
2, 185152, Note_on_c, 0, 56, 100
2, 185152, Note_off_c, 0, 44, 64
2, 185152, Note_on_c, 0, 80, 100
2, 185152, Note_off_c, 0, 73, 64
2, 185152, Note_on_c, 0, 73, 100
2, 185280, Note_off_c, 0, 73, 64
2, 185280, Note_off_c, 0, 71, 64
2, 185280, Note_on_c, 0, 71, 100
2, 185408, Note_on_c, 0, 44, 100
2, 185408, Note_off_c, 0, 81, 64
2, 185408, Note_on_c, 0, 81, 100
2, 185408, Note_off_c, 0, 80, 64
2, 185408, Note_off_c, 0, 73, 64
2, 185408, Note_on_c, 0, 73, 100
2, 185408, Note_off_c, 0, 53, 64
2, 185408, Note_on_c, 0, 53, 100
2, 185408, Note_off_c, 0, 68, 64
2, 185408, Note_on_c, 0, 68, 100
2, 185536, Note_off_c, 0, 68, 64
2, 185536, Note_off_c, 0, 71, 64
2, 185536, Note_on_c, 0, 71, 100
2, 185536, Note_off_c, 0, 73, 64
2, 185664, Note_off_c, 0, 53, 64
2, 185664, Note_off_c, 0, 71, 64
2, 185664, Note_off_c, 0, 74, 64
2, 185664, Note_on_c, 0, 74, 100
2, 185664, Note_on_c, 0, 53, 100
2, 185664, Note_off_c, 0, 53, 64
2, 185664, Note_off_c, 0, 69, 64
2, 185664, Note_on_c, 0, 69, 100
2, 185664, Note_off_c, 0, 44, 64
2, 185664, Note_on_c, 0, 44, 100
2, 185792, Note_off_c, 0, 44, 64
2, 185792, Note_on_c, 0, 68, 100
2, 185792, Note_off_c, 0, 56, 64
2, 185792, Note_on_c, 0, 56, 100
2, 185792, Note_off_c, 0, 43, 64
2, 185792, Note_on_c, 0, 55, 100
2, 185952, Note_off_c, 0, 55, 64
2, 185952, Note_off_c, 0, 49, 64
2, 185952, Note_on_c, 0, 49, 100
2, 185952, Note_off_c, 0, 73, 64
2, 185952, Note_on_c, 0, 73, 100
2, 186016, Note_off_c, 0, 74, 64
2, 186016, Note_on_c, 0, 74, 100
2, 186080, Note_on_c, 0, 43, 100
2, 186080, Note_off_c, 0, 51, 64
2, 186080, Note_on_c, 0, 51, 100
2, 186080, Note_off_c, 0, 73, 64
2, 186080, Note_on_c, 0, 73, 100
2, 186080, Note_off_c, 0, 75, 64
2, 186080, Note_on_c, 0, 75, 100
2, 186144, Note_off_c, 0, 75, 64
2, 186144, Note_on_c, 0, 75, 100
2, 186208, Note_off_c, 0, 75, 64
2, 186208, Note_off_c, 0, 79, 64
2, 186208, Note_on_c, 0, 79, 100
2, 186208, Note_off_c, 0, 49, 64
2, 186208, Note_off_c, 0, 73, 64
2, 186208, Note_on_c, 0, 49, 100
2, 186208, Note_on_c, 0, 54, 100
2, 186208, Note_off_c, 0, 51, 64
2, 186208, Note_off_c, 0, 63, 64
2, 186208, Note_on_c, 0, 63, 100
2, 186272, Note_off_c, 0, 79, 64
2, 186272, Note_off_c, 0, 78, 64
2, 186272, Note_on_c, 0, 78, 100
2, 186336, Note_on_c, 0, 51, 100
2, 186336, Note_off_c, 0, 78, 64
2, 186336, Note_off_c, 0, 54, 64
2, 186336, Note_off_c, 0, 51, 64
2, 186336, Note_on_c, 0, 78, 100
2, 186336, Note_off_c, 0, 78, 64
2, 186336, Note_on_c, 0, 51, 100
2, 186336, Note_off_c, 0, 51, 64
2, 186336, Note_off_c, 0, 72, 64
2, 186336, Note_on_c, 0, 72, 100
2, 186400, Note_off_c, 0, 75, 64
2, 186400, Note_on_c, 0, 75, 100
2, 186464, Note_on_c, 0, 76, 100
2, 186464, Note_on_c, 0, 51, 100
2, 186464, Note_off_c, 0, 72, 64
2, 186464, Note_on_c, 0, 73, 100
2, 186464, Note_off_c, 0, 75, 64
2, 186464, Note_off_c, 0, 49, 64
2, 186464, Note_on_c, 0, 49, 100
2, 186464, Note_off_c, 0, 69, 64
2, 186464, Note_off_c, 0, 81, 64
2, 186464, Note_on_c, 0, 78, 100
2, 186464, Note_on_c, 0, 75, 100
2, 186464, Note_off_c, 0, 75, 64
2, 186464, Note_off_c, 0, 54, 64
2, 186464, Note_on_c, 0, 54, 100
2, 186528, Note_off_c, 0, 81, 64
2, 186528, Note_on_c, 0, 81, 100
2, 186592, Note_off_c, 0, 78, 64
2, 186592, Note_on_c, 0, 78, 100
2, 186592, Note_off_c, 0, 75, 64
2, 186592, Note_on_c, 0, 75, 100
2, 186656, Note_off_c, 0, 54, 64
2, 186656, Note_on_c, 0, 54, 100
2, 186656, Note_off_c, 0, 47, 64
2, 186720, Note_off_c, 0, 54, 64
2, 186720, Note_off_c, 0, 75, 64
2, 186720, Note_off_c, 0, 73, 64
2, 186720, Note_on_c, 0, 69, 100
2, 186720, Note_off_c, 0, 45, 64
2, 186720, Note_on_c, 0, 45, 100
2, 186720, Note_off_c, 0, 52, 64
2, 186720, Note_off_c, 0, 49, 64
2, 186720, Note_off_c, 0, 78, 64
2, 186720, Note_on_c, 0, 78, 100
2, 186720, Note_off_c, 0, 35, 64
2, 186720, Note_on_c, 0, 35, 100
2, 186720, Note_on_c, 0, 59, 100
2, 186784, Note_off_c, 0, 78, 64
2, 186848, Note_on_c, 0, 73, 100
2, 186912, Note_off_c, 0, 45, 64
2, 186912, Note_off_c, 0, 73, 64
2, 186976, Note_off_c, 0, 59, 64
2, 186976, Note_off_c, 0, 71, 64
2, 186976, Note_off_c, 0, 64, 64
2, 186976, Note_on_c, 0, 61, 100
2, 186976, Note_off_c, 0, 49, 64
2, 186976, Note_on_c, 0, 37, 100
2, 186976, Note_off_c, 0, 37, 64
2, 186976, Note_on_c, 0, 37, 100
2, 186976, Note_on_c, 0, 71, 100
2, 186976, Note_off_c, 0, 76, 64
2, 186976, Note_on_c, 0, 76, 100
2, 186976, Note_on_c, 0, 49, 100
2, 186976, Note_on_c, 0, 64, 100
2, 187104, Note_off_c, 0, 49, 64
2, 187104, Note_off_c, 0, 52, 64
2, 187104, Note_on_c, 0, 52, 100
2, 187232, Note_off_c, 0, 76, 64
2, 187232, Note_on_c, 0, 76, 100
2, 187232, Note_off_c, 0, 73, 64
2, 187232, Note_on_c, 0, 73, 100
2, 187232, Note_off_c, 0, 52, 64
2, 187360, Note_off_c, 0, 76, 64
2, 187360, Note_on_c, 0, 76, 100
2, 187360, Note_off_c, 0, 73, 64
2, 187424, Note_off_c, 0, 64, 64
2, 187488, Note_off_c, 0, 64, 64
2, 187488, Note_on_c, 0, 64, 100
2, 187616, Note_off_c, 0, 64, 64
2, 187616, Note_off_c, 0, 73, 64
2, 187616, Note_on_c, 0, 73, 100
2, 187616, Note_off_c, 0, 66, 64
2, 187616, Note_on_c, 0, 66, 100
2, 187680, Note_on_c, 0, 57, 100
2, 187744, Note_off_c, 0, 61, 64
2, 187744, Note_on_c, 0, 61, 100
2, 187744, Note_off_c, 0, 73, 64
2, 187744, Note_on_c, 0, 64, 100
2, 187744, Note_off_c, 0, 76, 64
2, 187744, Note_on_c, 0, 76, 100
2, 187744, Note_off_c, 0, 63, 64
2, 187744, Note_off_c, 0, 56, 64
2, 187744, Note_on_c, 0, 56, 100
2, 187872, Note_off_c, 0, 73, 64
2, 187872, Note_on_c, 0, 73, 100
2, 187936, Note_off_c, 0, 62, 64
2, 187936, Note_on_c, 0, 62, 100
2, 187936, Note_off_c, 0, 56, 64
2, 187936, Note_on_c, 0, 56, 100
2, 188000, Note_off_c, 0, 71, 64
2, 188000, Note_on_c, 0, 71, 100
2, 188000, Note_off_c, 0, 76, 64
2, 188000, Note_off_c, 0, 74, 64
2, 188000, Note_on_c, 0, 74, 100
2, 188064, Note_off_c, 0, 74, 64
2, 188064, Note_on_c, 0, 74, 100
2, 188064, Note_off_c, 0, 73, 64
2, 188064, Note_on_c, 0, 73, 100
2, 188128, Note_off_c, 0, 71, 64
2, 188128, Note_on_c, 0, 71, 100
2, 188192, Note_off_c, 0, 73, 64
2, 188192, Note_on_c, 0, 73, 100
2, 188256, Note_on_c, 0, 72, 100
2, 188256, Note_off_c, 0, 61, 64
2, 188256, Note_off_c, 0, 60, 64
2, 188256, Note_off_c, 0, 75, 64
2, 188256, Note_on_c, 0, 75, 100
2, 188256, Note_off_c, 0, 51, 64
2, 188256, Note_on_c, 0, 60, 100
2, 188256, Note_off_c, 0, 69, 64
2, 188256, Note_on_c, 0, 69, 100
2, 188384, Note_off_c, 0, 75, 64
2, 188384, Note_on_c, 0, 75, 100
2, 188448, Note_off_c, 0, 75, 64
2, 188448, Note_off_c, 0, 69, 64
2, 188448, Note_off_c, 0, 66, 64
2, 188512, Note_off_c, 0, 60, 64
2, 188512, Note_on_c, 0, 60, 100
2, 188512, Note_off_c, 0, 75, 64
2, 188512, Note_on_c, 0, 75, 100
2, 188512, Note_off_c, 0, 69, 64
2, 188512, Note_on_c, 0, 69, 100
2, 188640, Note_off_c, 0, 75, 64
2, 188640, Note_off_c, 0, 60, 64
2, 188640, Note_on_c, 0, 75, 100
2, 188640, Note_off_c, 0, 75, 64
2, 188640, Note_on_c, 0, 59, 100
2, 188704, Note_on_c, 0, 75, 100
2, 188704, Note_off_c, 0, 76, 64
2, 188704, Note_on_c, 0, 76, 100
2, 188768, Note_off_c, 0, 71, 64
2, 188768, Note_off_c, 0, 76, 64
2, 188768, Note_off_c, 0, 69, 64
2, 188768, Note_off_c, 0, 59, 64
2, 188768, Note_on_c, 0, 59, 100
2, 188768, Note_on_c, 0, 66, 100
2, 188768, Note_off_c, 0, 59, 64
2, 188768, Note_off_c, 0, 56, 64
2, 188768, Note_on_c, 0, 67, 100
2, 188832, Note_off_c, 0, 75, 64
2, 188832, Note_on_c, 0, 75, 100
2, 188896, Note_off_c, 0, 71, 64
2, 188896, Note_on_c, 0, 71, 100
2, 188960, Note_off_c, 0, 75, 64
2, 188960, Note_off_c, 0, 71, 64
2, 188960, Note_off_c, 0, 67, 64
2, 189024, Note_on_c, 0, 59, 100
2, 189024, Note_off_c, 0, 66, 64
2, 189024, Note_on_c, 0, 66, 100
2, 189024, Note_off_c, 0, 63, 64
2, 189024, Note_on_c, 0, 63, 100
2, 189024, Note_off_c, 0, 75, 64
2, 189024, Note_on_c, 0, 75, 100
2, 189152, Note_off_c, 0, 64, 64
2, 189152, Note_off_c, 0, 63, 64
2, 189152, Note_on_c, 0, 64, 100
2, 189216, Note_on_c, 0, 71, 100
2, 189280, Note_on_c, 0, 63, 100
2, 189280, Note_off_c, 0, 71, 64
2, 189280, Note_on_c, 0, 71, 100
2, 189280, Note_off_c, 0, 71, 64
2, 189280, Note_off_c, 0, 64, 64
2, 189280, Note_on_c, 0, 64, 100
2, 189280, Note_off_c, 0, 56, 64
2, 189280, Note_on_c, 0, 56, 100
2, 189280, Note_off_c, 0, 64, 64
2, 189344, Note_off_c, 0, 56, 64
2, 189408, Note_off_c, 0, 63, 64
2, 189408, Note_on_c, 0, 71, 100
2, 189408, Note_off_c, 0, 71, 64
2, 189408, Note_on_c, 0, 71, 100
2, 189408, Note_off_c, 0, 56, 64
2, 189408, Note_on_c, 0, 56, 100
2, 189536, Note_off_c, 0, 71, 64
2, 189536, Note_off_c, 0, 56, 64
2, 189536, Note_off_c, 0, 59, 64
2, 189536, Note_on_c, 0, 59, 100
2, 189536, Note_off_c, 0, 72, 64
2, 189536, Note_on_c, 0, 72, 100
2, 189600, Note_off_c, 0, 75, 64
2, 189600, Note_on_c, 0, 75, 100
2, 189664, Note_off_c, 0, 76, 64
2, 189664, Note_on_c, 0, 76, 100
2, 189664, Note_off_c, 0, 72, 64
2, 189664, Note_on_c, 0, 72, 100
2, 189792, Note_off_c, 0, 75, 64
2, 189792, Note_on_c, 0, 75, 100
2, 189792, Note_off_c, 0, 59, 64
2, 189792, Note_off_c, 0, 76, 64
2, 189792, Note_off_c, 0, 72, 64
2, 189792, Note_on_c, 0, 72, 100
2, 189792, Note_off_c, 0, 60, 64
2, 189792, Note_on_c, 0, 60, 100
2, 189920, Note_off_c, 0, 75, 64
2, 189920, Note_off_c, 0, 76, 64
2, 189920, Note_on_c, 0, 76, 100
2, 189920, Note_off_c, 0, 72, 64
2, 189920, Note_on_c, 0, 72, 100
2, 189984, Note_off_c, 0, 60, 64
2, 190048, Note_off_c, 0, 72, 64
2, 190048, Note_off_c, 0, 76, 64
2, 190048, Note_off_c, 0, 63, 64
2, 190048, Note_on_c, 0, 63, 100
2, 190048, Note_off_c, 0, 71, 64
2, 190048, Note_on_c, 0, 71, 100
2, 190176, Note_off_c, 0, 71, 64
2, 190176, Note_off_c, 0, 69, 64
2, 190176, Note_on_c, 0, 69, 100
2, 190240, Note_off_c, 0, 69, 64
2, 190240, Note_off_c, 0, 63, 64
2, 190304, Note_off_c, 0, 72, 64
2, 190304, Note_on_c, 0, 72, 100
2, 190304, Note_on_c, 0, 60, 100
2, 190304, Note_off_c, 0, 63, 64
2, 190304, Note_on_c, 0, 63, 100
2, 190368, Note_off_c, 0, 60, 64
2, 190432, Note_off_c, 0, 63, 64
2, 190432, Note_off_c, 0, 70, 64
2, 190432, Note_on_c, 0, 70, 100
2, 190496, Note_off_c, 0, 70, 64
2, 190560, Note_off_c, 0, 72, 64
2, 190560, Note_on_c, 0, 72, 100
2, 190560, Note_off_c, 0, 72, 64
2, 190560, Note_off_c, 0, 62, 64
2, 190560, Note_on_c, 0, 62, 100
2, 190560, Note_off_c, 0, 74, 64
2, 190560, Note_on_c, 0, 74, 100
2, 190560, Note_off_c, 0, 70, 64
2, 190560, Note_on_c, 0, 70, 100
2, 190688, Note_off_c, 0, 70, 64
2, 190688, Note_off_c, 0, 69, 64
2, 190688, Note_on_c, 0, 69, 100
2, 190752, Note_off_c, 0, 62, 64
2, 190816, Note_off_c, 0, 69, 64
2, 190816, Note_on_c, 0, 70, 100
2, 190816, Note_on_c, 0, 72, 100
2, 190816, Note_off_c, 0, 73, 64
2, 190816, Note_off_c, 0, 64, 64
2, 190816, Note_on_c, 0, 64, 100
2, 190816, Note_off_c, 0, 67, 64
2, 190816, Note_on_c, 0, 67, 100
2, 190944, Note_off_c, 0, 70, 64
2, 190944, Note_off_c, 0, 74, 64
2, 190944, Note_off_c, 0, 73, 64
2, 190944, Note_on_c, 0, 73, 100
2, 190944, Note_off_c, 0, 64, 64
2, 190944, Note_on_c, 0, 64, 100
2, 191008, Note_off_c, 0, 64, 64
2, 191072, Note_off_c, 0, 67, 64
2, 191072, Note_off_c, 0, 73, 64
2, 191072, Note_on_c, 0, 73, 100
2, 191072, Note_off_c, 0, 57, 64
2, 191072, Note_on_c, 0, 57, 100
2, 191072, Note_off_c, 0, 65, 64
2, 191072, Note_on_c, 0, 65, 100
2, 191200, Note_off_c, 0, 73, 64
2, 191200, Note_on_c, 0, 64, 100
2, 191200, Note_off_c, 0, 65, 64
2, 191200, Note_off_c, 0, 74, 64
2, 191200, Note_on_c, 0, 74, 100
2, 191264, Note_off_c, 0, 57, 64
2, 191328, Note_on_c, 0, 65, 100
2, 191328, Note_off_c, 0, 62, 64
2, 191328, Note_on_c, 0, 62, 100
2, 191328, Note_off_c, 0, 69, 64
2, 191328, Note_on_c, 0, 69, 100
2, 191456, Note_off_c, 0, 74, 64
2, 191456, Note_off_c, 0, 62, 64
2, 191456, Note_off_c, 0, 69, 64
2, 191584, Note_off_c, 0, 69, 64
2, 191584, Note_on_c, 0, 69, 100
2, 191584, Note_off_c, 0, 61, 64
2, 191584, Note_on_c, 0, 61, 100
2, 191584, Note_off_c, 0, 40, 64
2, 191584, Note_on_c, 0, 40, 100
2, 191584, Note_off_c, 0, 57, 64
2, 191584, Note_on_c, 0, 57, 100
2, 191712, Note_off_c, 0, 69, 64
2, 191712, Note_off_c, 0, 61, 64
2, 191712, Note_off_c, 0, 67, 64
2, 191712, Note_on_c, 0, 67, 100
2, 191712, Note_off_c, 0, 59, 64
2, 191712, Note_on_c, 0, 59, 100
2, 191776, Note_off_c, 0, 57, 64
2, 191840, Note_off_c, 0, 67, 64
2, 191840, Note_off_c, 0, 59, 64
2, 191840, Note_off_c, 0, 52, 64
2, 191840, Note_on_c, 0, 52, 100
2, 191840, Note_off_c, 0, 68, 64
2, 191840, Note_on_c, 0, 68, 100
2, 191968, Note_off_c, 0, 68, 64
2, 191968, Note_off_c, 0, 69, 64
2, 191968, Note_on_c, 0, 69, 100
2, 192032, Note_off_c, 0, 40, 64
2, 192096, Note_off_c, 0, 69, 64
2, 192096, Note_off_c, 0, 52, 64
2, 192096, Note_off_c, 0, 68, 64
2, 192096, Note_on_c, 0, 68, 100
2, 192096, Note_on_c, 0, 53, 100
2, 192096, Note_off_c, 0, 40, 64
2, 192096, Note_on_c, 0, 40, 100
2, 192224, Note_off_c, 0, 68, 64
2, 192224, Note_off_c, 0, 53, 64
2, 192224, Note_on_c, 0, 52, 100
2, 192352, Note_off_c, 0, 52, 64
2, 192352, Note_on_c, 0, 52, 100
2, 192352, Note_off_c, 0, 40, 64
2, 192352, Note_on_c, 0, 40, 100
2, 192416, Note_off_c, 0, 74, 64
2, 192416, Note_on_c, 0, 74, 100
2, 192480, Note_off_c, 0, 52, 64
2, 192544, Note_off_c, 0, 62, 64
2, 192544, Note_on_c, 0, 62, 100
2, 192608, Note_off_c, 0, 40, 64
2, 192608, Note_off_c, 0, 74, 64
2, 192608, Note_off_c, 0, 65, 64
2, 192608, Note_on_c, 0, 65, 100
2, 192608, Note_off_c, 0, 38, 64
2, 192608, Note_on_c, 0, 38, 100
2, 192672, Note_off_c, 0, 64, 64
2, 192672, Note_on_c, 0, 64, 100
2, 192736, Note_off_c, 0, 64, 64
2, 192736, Note_off_c, 0, 65, 64
2, 192736, Note_on_c, 0, 65, 100
2, 192800, Note_on_c, 0, 50, 100
2, 192800, Note_off_c, 0, 38, 64
2, 192864, Note_off_c, 0, 50, 64
2, 192864, Note_on_c, 0, 50, 100
2, 192864, Note_off_c, 0, 62, 64
2, 192864, Note_on_c, 0, 62, 100
2, 192928, Note_off_c, 0, 65, 64
2, 192928, Note_on_c, 0, 65, 100
2, 192992, Note_off_c, 0, 62, 64
2, 192992, Note_on_c, 0, 62, 100
2, 192992, Note_off_c, 0, 50, 64
2, 192992, Note_on_c, 0, 50, 100
2, 193056, Note_off_c, 0, 50, 64
2, 193056, Note_on_c, 0, 50, 100
2, 193120, Note_off_c, 0, 62, 64
2, 193120, Note_off_c, 0, 61, 64
2, 193120, Note_on_c, 0, 61, 100
2, 193120, Note_on_c, 0, 64, 100
2, 193120, Note_on_c, 0, 52, 100
2, 193184, Note_off_c, 0, 61, 64
2, 193184, Note_off_c, 0, 57, 64
2, 193184, Note_on_c, 0, 57, 100
2, 193248, Note_off_c, 0, 57, 64
2, 193248, Note_on_c, 0, 57, 100
2, 193248, Note_off_c, 0, 52, 64
2, 193312, Note_off_c, 0, 50, 64
2, 193312, Note_on_c, 0, 52, 100
2, 193376, Note_off_c, 0, 50, 64
2, 193376, Note_on_c, 0, 50, 100
2, 193376, Note_off_c, 0, 57, 64
2, 193440, Note_off_c, 0, 46, 64
2, 193440, Note_on_c, 0, 46, 100
2, 193504, Note_off_c, 0, 41, 64
2, 193504, Note_on_c, 0, 41, 100
2, 193504, Note_off_c, 0, 53, 64
2, 193504, Note_on_c, 0, 53, 100
2, 193568, Note_off_c, 0, 53, 64
2, 193568, Note_off_c, 0, 41, 64
2, 193632, Note_off_c, 0, 49, 64
2, 193632, Note_on_c, 0, 49, 100
2, 193696, Note_off_c, 0, 69, 64
2, 193696, Note_on_c, 0, 69, 100
2, 193696, Note_off_c, 0, 53, 64
2, 193696, Note_on_c, 0, 53, 100
2, 193760, Note_off_c, 0, 50, 64
2, 193760, Note_on_c, 0, 50, 100
2, 193760, Note_off_c, 0, 49, 64
2, 193824, Note_off_c, 0, 69, 64
2, 193824, Note_off_c, 0, 53, 64
2, 193824, Note_on_c, 0, 56, 100
2, 193824, Note_off_c, 0, 74, 64
2, 193824, Note_on_c, 0, 74, 100
2, 193824, Note_off_c, 0, 59, 64
2, 193824, Note_on_c, 0, 59, 100
2, 193824, Note_off_c, 0, 47, 64
2, 193824, Note_on_c, 0, 47, 100
2, 193824, Note_off_c, 0, 68, 64
2, 193824, Note_on_c, 0, 68, 100
2, 193888, Note_off_c, 0, 77, 64
2, 193888, Note_on_c, 0, 77, 100
2, 193952, Note_off_c, 0, 47, 64
2, 193952, Note_off_c, 0, 65, 64
2, 193952, Note_on_c, 0, 65, 100
2, 193952, Note_off_c, 0, 50, 64
2, 193952, Note_on_c, 0, 50, 100
2, 193952, Note_off_c, 0, 59, 64
2, 194016, Note_off_c, 0, 50, 64
2, 194016, Note_on_c, 0, 50, 100
2, 194080, Note_off_c, 0, 74, 64
2, 194080, Note_off_c, 0, 49, 64
2, 194080, Note_on_c, 0, 49, 100
2, 194080, Note_off_c, 0, 65, 64
2, 194080, Note_off_c, 0, 71, 64
2, 194080, Note_on_c, 0, 71, 100
2, 194080, Note_off_c, 0, 56, 64
2, 194080, Note_on_c, 0, 53, 100
2, 194144, Note_off_c, 0, 71, 64
2, 194144, Note_off_c, 0, 68, 64
2, 194144, Note_on_c, 0, 68, 100
2, 194208, Note_off_c, 0, 49, 64
2, 194208, Note_on_c, 0, 49, 100
2, 194208, Note_off_c, 0, 53, 64
2, 194208, Note_off_c, 0, 68, 64
2, 194208, Note_on_c, 0, 71, 100
2, 194208, Note_off_c, 0, 77, 64
2, 194208, Note_on_c, 0, 77, 100
2, 194208, Note_off_c, 0, 69, 64
2, 194208, Note_on_c, 0, 69, 100
2, 194208, Note_off_c, 0, 61, 64
2, 194208, Note_on_c, 0, 61, 100
2, 194208, Note_off_c, 0, 77, 64
2, 194208, Note_on_c, 0, 77, 100
2, 194336, Note_off_c, 0, 77, 64
2, 194336, Note_on_c, 0, 77, 100
2, 194336, Note_on_c, 0, 57, 100
2, 194336, Note_off_c, 0, 57, 64
2, 194336, Note_off_c, 0, 49, 64
2, 194336, Note_on_c, 0, 49, 100
2, 194336, Note_off_c, 0, 61, 64
2, 194336, Note_on_c, 0, 57, 100
2, 194336, Note_off_c, 0, 69, 64
2, 194464, Note_on_c, 0, 69, 100
2, 194464, Note_off_c, 0, 49, 64
2, 194464, Note_off_c, 0, 61, 64
2, 194464, Note_on_c, 0, 61, 100
2, 194464, Note_off_c, 0, 71, 64
2, 194464, Note_on_c, 0, 71, 100
2, 194464, Note_off_c, 0, 77, 64
2, 194464, Note_on_c, 0, 77, 100
2, 194464, Note_off_c, 0, 77, 64
2, 194464, Note_off_c, 0, 65, 64
2, 194464, Note_on_c, 0, 65, 100
2, 194464, Note_off_c, 0, 47, 64
2, 194464, Note_on_c, 0, 47, 100
2, 194592, Note_on_c, 0, 68, 100
2, 194592, Note_on_c, 0, 59, 100
2, 194592, Note_off_c, 0, 65, 64
2, 194592, Note_on_c, 0, 65, 100
2, 194656, Note_on_c, 0, 77, 100
2, 194656, Note_off_c, 0, 71, 64
2, 194656, Note_off_c, 0, 64, 64
2, 194656, Note_on_c, 0, 49, 100
2, 194720, Note_off_c, 0, 65, 64
2, 194720, Note_on_c, 0, 65, 100
2, 194720, Note_off_c, 0, 61, 64
2, 194720, Note_on_c, 0, 61, 100
2, 194720, Note_off_c, 0, 64, 64
2, 194720, Note_on_c, 0, 64, 100
2, 194720, Note_off_c, 0, 61, 64
2, 194720, Note_off_c, 0, 58, 64
2, 194720, Note_on_c, 0, 58, 100
2, 194848, Note_off_c, 0, 64, 64
2, 194848, Note_off_c, 0, 70, 64
2, 194848, Note_on_c, 0, 70, 100
2, 194848, Note_off_c, 0, 61, 64
2, 194848, Note_on_c, 0, 61, 100
2, 194976, Note_off_c, 0, 61, 64
2, 194976, Note_off_c, 0, 70, 64
2, 194976, Note_off_c, 0, 77, 64
2, 194976, Note_on_c, 0, 77, 100
2, 194976, Note_off_c, 0, 74, 64
2, 194976, Note_on_c, 0, 74, 100
2, 194976, Note_off_c, 0, 62, 64
2, 194976, Note_on_c, 0, 62, 100
2, 194976, Note_off_c, 0, 59, 64
2, 194976, Note_on_c, 0, 59, 100
2, 194976, Note_off_c, 0, 50, 64
2, 194976, Note_on_c, 0, 50, 100
2, 194976, Note_off_c, 0, 65, 64
2, 194976, Note_off_c, 0, 71, 64
2, 194976, Note_on_c, 0, 71, 100
2, 195104, Note_off_c, 0, 71, 64
2, 195104, Note_on_c, 0, 65, 100
2, 195104, Note_off_c, 0, 68, 64
2, 195104, Note_off_c, 0, 59, 64
2, 195104, Note_off_c, 0, 50, 64
2, 195104, Note_off_c, 0, 74, 64
2, 195104, Note_on_c, 0, 68, 100
2, 195168, Note_off_c, 0, 77, 64
2, 195168, Note_off_c, 0, 68, 64
2, 195168, Note_on_c, 0, 77, 100
2, 195168, Note_off_c, 0, 62, 64
2, 195232, Note_off_c, 0, 77, 64
2, 195232, Note_off_c, 0, 69, 64
2, 195232, Note_on_c, 0, 69, 100
2, 195232, Note_on_c, 0, 59, 100
2, 195232, Note_off_c, 0, 57, 64
2, 195296, Note_off_c, 0, 77, 64
2, 195296, Note_on_c, 0, 77, 100
2, 195360, Note_off_c, 0, 77, 64
2, 195360, Note_on_c, 0, 57, 100
2, 195360, Note_off_c, 0, 74, 64
2, 195360, Note_on_c, 0, 74, 100
2, 195360, Note_off_c, 0, 59, 64
2, 195360, Note_on_c, 0, 59, 100
2, 195424, Note_off_c, 0, 74, 64
2, 195488, Note_on_c, 0, 74, 100
2, 195488, Note_on_c, 0, 68, 100
2, 195488, Note_off_c, 0, 59, 64
2, 195488, Note_off_c, 0, 77, 64
2, 195488, Note_off_c, 0, 53, 64
2, 195488, Note_on_c, 0, 53, 100
2, 195488, Note_off_c, 0, 69, 64
2, 195488, Note_on_c, 0, 69, 100
2, 195488, Note_off_c, 0, 57, 64
2, 195488, Note_on_c, 0, 57, 100
2, 195488, Note_on_c, 0, 77, 100
2, 195616, Note_off_c, 0, 77, 64
2, 195616, Note_on_c, 0, 77, 100
2, 195616, Note_on_c, 0, 80, 100
2, 195680, Note_off_c, 0, 53, 64
2, 195744, Note_off_c, 0, 77, 64
2, 195744, Note_off_c, 0, 69, 64
2, 195744, Note_on_c, 0, 75, 100
2, 195744, Note_off_c, 0, 57, 64
2, 195744, Note_off_c, 0, 80, 64
2, 195744, Note_on_c, 0, 80, 100
2, 195744, Note_off_c, 0, 59, 64
2, 195744, Note_on_c, 0, 59, 100
2, 195744, Note_off_c, 0, 71, 64
2, 195744, Note_on_c, 0, 71, 100
2, 195744, Note_off_c, 0, 65, 64
2, 195808, Note_off_c, 0, 75, 64
2, 195808, Note_off_c, 0, 71, 64
2, 195808, Note_off_c, 0, 74, 64
2, 195808, Note_off_c, 0, 80, 64
2, 195808, Note_on_c, 0, 80, 100
2, 195872, Note_on_c, 0, 74, 100
2, 195872, Note_off_c, 0, 72, 64
2, 195872, Note_on_c, 0, 72, 100
2, 195872, Note_off_c, 0, 71, 64
2, 195872, Note_on_c, 0, 71, 100
2, 195936, Note_off_c, 0, 80, 64
2, 195936, Note_off_c, 0, 72, 64
2, 196000, Note_off_c, 0, 59, 64
2, 196000, Note_off_c, 0, 71, 64
2, 196000, Note_off_c, 0, 65, 64
2, 196000, Note_on_c, 0, 71, 100
2, 196000, Note_off_c, 0, 74, 64
2, 196000, Note_on_c, 0, 74, 100
2, 196000, Note_off_c, 0, 50, 64
2, 196000, Note_on_c, 0, 50, 100
2, 196000, Note_off_c, 0, 79, 64
2, 196000, Note_on_c, 0, 79, 100
2, 196000, Note_on_c, 0, 65, 100
2, 196000, Note_off_c, 0, 62, 64
2, 196000, Note_on_c, 0, 62, 100
2, 196064, Note_off_c, 0, 79, 64
2, 196064, Note_off_c, 0, 69, 64
2, 196064, Note_on_c, 0, 69, 100
2, 196064, Note_off_c, 0, 62, 64
2, 196064, Note_off_c, 0, 74, 64
2, 196128, Note_off_c, 0, 65, 64
2, 196128, Note_on_c, 0, 65, 100
2, 196128, Note_on_c, 0, 53, 100
2, 196128, Note_off_c, 0, 69, 64
2, 196128, Note_off_c, 0, 75, 64
2, 196128, Note_on_c, 0, 75, 100
2, 196128, Note_off_c, 0, 57, 64
2, 196128, Note_on_c, 0, 57, 100
2, 196192, Note_off_c, 0, 77, 64
2, 196192, Note_on_c, 0, 77, 100
2, 196256, Note_off_c, 0, 75, 64
2, 196256, Note_on_c, 0, 75, 100
2, 196256, Note_off_c, 0, 75, 64
2, 196256, Note_off_c, 0, 69, 64
2, 196256, Note_off_c, 0, 65, 64
2, 196256, Note_off_c, 0, 57, 64
2, 196256, Note_on_c, 0, 72, 100
2, 196256, Note_off_c, 0, 53, 64
2, 196256, Note_on_c, 0, 57, 100
2, 196256, Note_on_c, 0, 69, 100
2, 196256, Note_off_c, 0, 38, 64
2, 196256, Note_on_c, 0, 38, 100
2, 196256, Note_off_c, 0, 50, 64
2, 196256, Note_off_c, 0, 60, 64
2, 196256, Note_on_c, 0, 60, 100
2, 196256, Note_off_c, 0, 57, 64
2, 196384, Note_off_c, 0, 74, 64
2, 196384, Note_on_c, 0, 74, 100
2, 196384, Note_off_c, 0, 69, 64
2, 196384, Note_off_c, 0, 76, 64
2, 196384, Note_on_c, 0, 76, 100
2, 196384, Note_off_c, 0, 79, 64
2, 196384, Note_on_c, 0, 79, 100
2, 196448, Note_off_c, 0, 79, 64
2, 196448, Note_off_c, 0, 38, 64
2, 196512, Note_off_c, 0, 76, 64
2, 196512, Note_off_c, 0, 60, 64
2, 196512, Note_off_c, 0, 73, 64
2, 196512, Note_on_c, 0, 73, 100
2, 196512, Note_off_c, 0, 82, 64
2, 196512, Note_on_c, 0, 82, 100
2, 196512, Note_off_c, 0, 81, 64
2, 196512, Note_on_c, 0, 81, 100
2, 196640, Note_off_c, 0, 71, 64
2, 196640, Note_off_c, 0, 73, 64
2, 196640, Note_on_c, 0, 73, 100
2, 196640, Note_off_c, 0, 73, 64
2, 196704, Note_off_c, 0, 67, 64
2, 196704, Note_on_c, 0, 67, 100
2, 196768, Note_on_c, 0, 73, 100
2, 196768, Note_off_c, 0, 82, 64
2, 196768, Note_off_c, 0, 81, 64
2, 196768, Note_on_c, 0, 81, 100
2, 196768, Note_off_c, 0, 67, 64
2, 196768, Note_on_c, 0, 67, 100
2, 196768, Note_off_c, 0, 65, 64
2, 196768, Note_on_c, 0, 65, 100
2, 196896, Note_off_c, 0, 65, 64
2, 196896, Note_off_c, 0, 70, 64
2, 196896, Note_on_c, 0, 70, 100
2, 196960, Note_off_c, 0, 67, 64
2, 196960, Note_off_c, 0, 58, 64
2, 197024, Note_on_c, 0, 82, 100
2, 197024, Note_off_c, 0, 70, 64
2, 197024, Note_on_c, 0, 67, 100
2, 197024, Note_off_c, 0, 65, 64
2, 197024, Note_on_c, 0, 65, 100
2, 197024, Note_off_c, 0, 61, 64
2, 197024, Note_on_c, 0, 61, 100
2, 197152, Note_on_c, 0, 70, 100
2, 197152, Note_off_c, 0, 76, 64
2, 197152, Note_on_c, 0, 76, 100
2, 197216, Note_off_c, 0, 76, 64
2, 197216, Note_off_c, 0, 73, 64
2, 197216, Note_on_c, 0, 73, 100
2, 197280, Note_off_c, 0, 76, 64
2, 197280, Note_off_c, 0, 73, 64
2, 197280, Note_off_c, 0, 72, 64
2, 197280, Note_off_c, 0, 65, 64
2, 197280, Note_off_c, 0, 67, 64
2, 197280, Note_on_c, 0, 67, 100
2, 197280, Note_on_c, 0, 76, 100
2, 197280, Note_on_c, 0, 72, 100
2, 197280, Note_off_c, 0, 72, 64
2, 197280, Note_on_c, 0, 64, 100
2, 197280, Note_off_c, 0, 67, 64
2, 197408, Note_on_c, 0, 72, 100
2, 197408, Note_off_c, 0, 75, 64
2, 197408, Note_on_c, 0, 75, 100
2, 197472, Note_on_c, 0, 67, 100
2, 197536, Note_off_c, 0, 76, 64
2, 197536, Note_on_c, 0, 76, 100
2, 197536, Note_off_c, 0, 70, 64
2, 197536, Note_on_c, 0, 70, 100
2, 197536, Note_off_c, 0, 68, 64
2, 197536, Note_on_c, 0, 68, 100
2, 197536, Note_off_c, 0, 60, 64
2, 197536, Note_on_c, 0, 60, 100
2, 197536, Note_off_c, 0, 36, 64
2, 197536, Note_on_c, 0, 36, 100
2, 197536, Note_off_c, 0, 36, 64
2, 197536, Note_on_c, 0, 36, 100
2, 197664, Note_off_c, 0, 70, 64
2, 197664, Note_off_c, 0, 75, 64
2, 197664, Note_on_c, 0, 75, 100
2, 197664, Note_off_c, 0, 72, 64
2, 197664, Note_on_c, 0, 72, 100
2, 197728, Note_off_c, 0, 74, 64
2, 197728, Note_on_c, 0, 74, 100
2, 197792, Note_off_c, 0, 60, 64
2, 197792, Note_off_c, 0, 72, 64
2, 197792, Note_off_c, 0, 68, 64
2, 197792, Note_off_c, 0, 75, 64
2, 197792, Note_on_c, 0, 75, 100
2, 197792, Note_on_c, 0, 68, 100
2, 197792, Note_off_c, 0, 68, 64
2, 197792, Note_on_c, 0, 68, 100
2, 197792, Note_off_c, 0, 36, 64
2, 197792, Note_on_c, 0, 36, 100
2, 197792, Note_on_c, 0, 48, 100
2, 197792, Note_off_c, 0, 48, 64
2, 197792, Note_on_c, 0, 48, 100
2, 197792, Note_off_c, 0, 84, 64
2, 197792, Note_on_c, 0, 84, 100
2, 197920, Note_off_c, 0, 72, 64
2, 197920, Note_on_c, 0, 72, 100
2, 198048, Note_on_c, 0, 65, 100
2, 198048, Note_off_c, 0, 65, 64
2, 198048, Note_off_c, 0, 48, 64
2, 198048, Note_off_c, 0, 36, 64
2, 198048, Note_off_c, 0, 68, 64
2, 198048, Note_on_c, 0, 65, 100
2, 198048, Note_off_c, 0, 39, 64
2, 198048, Note_on_c, 0, 39, 100
2, 198048, Note_off_c, 0, 39, 64
2, 198048, Note_on_c, 0, 51, 100
2, 198176, Note_off_c, 0, 72, 64
2, 198176, Note_off_c, 0, 75, 64
2, 198176, Note_on_c, 0, 75, 100
2, 198304, Note_off_c, 0, 75, 64
2, 198304, Note_off_c, 0, 60, 64
2, 198304, Note_on_c, 0, 60, 100
2, 198304, Note_on_c, 0, 80, 100
2, 198304, Note_off_c, 0, 80, 64
2, 198304, Note_on_c, 0, 80, 100
2, 198368, Note_on_c, 0, 39, 100
2, 198432, Note_off_c, 0, 51, 64
2, 198432, Note_on_c, 0, 51, 100
2, 198432, Note_on_c, 0, 50, 100
2, 198432, Note_off_c, 0, 56, 64
2, 198432, Note_on_c, 0, 56, 100
2, 198432, Note_off_c, 0, 60, 64
2, 198432, Note_on_c, 0, 60, 100
2, 198432, Note_off_c, 0, 80, 64
2, 198432, Note_on_c, 0, 80, 100
2, 198432, Note_off_c, 0, 80, 64
2, 198432, Note_on_c, 0, 79, 100
2, 198432, Note_off_c, 0, 67, 64
2, 198496, Note_off_c, 0, 53, 64
2, 198496, Note_on_c, 0, 53, 100
2, 198496, Note_on_c, 0, 48, 100
2, 198496, Note_off_c, 0, 79, 64
2, 198496, Note_on_c, 0, 36, 100
2, 198560, Note_off_c, 0, 53, 64
2, 198560, Note_off_c, 0, 79, 64
2, 198560, Note_off_c, 0, 80, 64
2, 198560, Note_on_c, 0, 80, 100
2, 198560, Note_off_c, 0, 50, 64
2, 198560, Note_on_c, 0, 50, 100
2, 198560, Note_off_c, 0, 51, 64
2, 198560, Note_on_c, 0, 51, 100
2, 198560, Note_on_c, 0, 79, 100
2, 198560, Note_on_c, 0, 67, 100
2, 198688, Note_off_c, 0, 60, 64
2, 198688, Note_off_c, 0, 51, 64
2, 198688, Note_off_c, 0, 50, 64
2, 198688, Note_on_c, 0, 50, 100
2, 198688, Note_off_c, 0, 47, 64
2, 198688, Note_on_c, 0, 47, 100
2, 198752, Note_off_c, 0, 50, 64
2, 198752, Note_off_c, 0, 51, 64
2, 198752, Note_on_c, 0, 51, 100
2, 198816, Note_off_c, 0, 83, 64
2, 198816, Note_on_c, 0, 78, 100
2, 198816, Note_off_c, 0, 50, 64
2, 198816, Note_on_c, 0, 50, 100
2, 198816, Note_off_c, 0, 77, 64
2, 198816, Note_off_c, 0, 48, 64
2, 198816, Note_on_c, 0, 55, 100
2, 198816, Note_off_c, 0, 51, 64
2, 198816, Note_on_c, 0, 51, 100
2, 198944, Note_on_c, 0, 53, 100
2, 198944, Note_off_c, 0, 50, 64
2, 198944, Note_on_c, 0, 50, 100
2, 199008, Note_off_c, 0, 77, 64
2, 199008, Note_on_c, 0, 77, 100
2, 199008, Note_off_c, 0, 84, 64
2, 199008, Note_off_c, 0, 55, 64
2, 199008, Note_off_c, 0, 51, 64
2, 199008, Note_off_c, 0, 50, 64
2, 199072, Note_on_c, 0, 84, 100
2, 199072, Note_off_c, 0, 75, 64
2, 199072, Note_on_c, 0, 75, 100
2, 199072, Note_on_c, 0, 72, 100
2, 199072, Note_off_c, 0, 65, 64
2, 199072, Note_off_c, 0, 67, 64
2, 199072, Note_on_c, 0, 67, 100
2, 199072, Note_off_c, 0, 50, 64
2, 199072, Note_on_c, 0, 50, 100
2, 199072, Note_off_c, 0, 67, 64
2, 199072, Note_off_c, 0, 48, 64
2, 199072, Note_on_c, 0, 48, 100
2, 199136, Note_off_c, 0, 72, 64
2, 199200, Note_off_c, 0, 50, 64
2, 199200, Note_on_c, 0, 50, 100
2, 199200, Note_off_c, 0, 50, 64
2, 199264, Note_off_c, 0, 74, 64
2, 199264, Note_on_c, 0, 74, 100
2, 199264, Note_on_c, 0, 65, 100
2, 199264, Note_on_c, 0, 50, 100
2, 199264, Note_on_c, 0, 51, 100
2, 199328, Note_off_c, 0, 82, 64
2, 199328, Note_off_c, 0, 72, 64
2, 199328, Note_on_c, 0, 72, 100
2, 199328, Note_off_c, 0, 65, 64
2, 199328, Note_on_c, 0, 65, 100
2, 199328, Note_off_c, 0, 81, 64
2, 199328, Note_on_c, 0, 81, 100
2, 199328, Note_off_c, 0, 74, 64
2, 199328, Note_off_c, 0, 51, 64
2, 199328, Note_on_c, 0, 51, 100
2, 199456, Note_on_c, 0, 82, 100
2, 199456, Note_off_c, 0, 81, 64
2, 199456, Note_on_c, 0, 81, 100
2, 199520, Note_off_c, 0, 81, 64
2, 199520, Note_off_c, 0, 80, 64
2, 199520, Note_off_c, 0, 65, 64
2, 199520, Note_off_c, 0, 51, 64
2, 199584, Note_off_c, 0, 81, 64
2, 199584, Note_on_c, 0, 81, 100
2, 199584, Note_off_c, 0, 77, 64
2, 199584, Note_on_c, 0, 77, 100
2, 199584, Note_off_c, 0, 69, 64
2, 199584, Note_on_c, 0, 69, 100
2, 199584, Note_off_c, 0, 63, 64
2, 199584, Note_on_c, 0, 63, 100
2, 199584, Note_off_c, 0, 60, 64
2, 199584, Note_on_c, 0, 60, 100
2, 199584, Note_off_c, 0, 48, 64
2, 199776, Note_off_c, 0, 69, 64
2, 199776, Note_off_c, 0, 77, 64
2, 199776, Note_on_c, 0, 65, 100
2, 199776, Note_on_c, 0, 48, 100
2, 199776, Note_off_c, 0, 60, 64
2, 199840, Note_on_c, 0, 77, 100
2, 199840, Note_off_c, 0, 81, 64
2, 199840, Note_on_c, 0, 81, 100
2, 199840, Note_off_c, 0, 75, 64
2, 199840, Note_on_c, 0, 75, 100
2, 199840, Note_off_c, 0, 69, 64
2, 199840, Note_on_c, 0, 69, 100
2, 199840, Note_off_c, 0, 63, 64
2, 199840, Note_off_c, 0, 48, 64
2, 199840, Note_on_c, 0, 48, 100
2, 199904, Note_off_c, 0, 75, 64
2, 199904, Note_on_c, 0, 75, 100
2, 199968, Note_off_c, 0, 75, 64
2, 199968, Note_on_c, 0, 75, 100
2, 199968, Note_off_c, 0, 81, 64
2, 199968, Note_off_c, 0, 77, 64
2, 200032, Note_off_c, 0, 75, 64
2, 200032, Note_off_c, 0, 72, 64
2, 200032, Note_on_c, 0, 72, 100
2, 200096, Note_on_c, 0, 75, 100
2, 200096, Note_off_c, 0, 75, 64
2, 200096, Note_off_c, 0, 72, 64
2, 200096, Note_off_c, 0, 48, 64
2, 200096, Note_on_c, 0, 75, 100
2, 200096, Note_off_c, 0, 74, 64
2, 200096, Note_on_c, 0, 74, 100
2, 200096, Note_off_c, 0, 65, 64
2, 200096, Note_on_c, 0, 65, 100
2, 200096, Note_off_c, 0, 60, 64
2, 200096, Note_on_c, 0, 60, 100
2, 200096, Note_off_c, 0, 53, 64
2, 200096, Note_on_c, 0, 53, 100
2, 200288, Note_on_c, 0, 77, 100
2, 200288, Note_off_c, 0, 53, 64
2, 200352, Note_off_c, 0, 77, 64
2, 200352, Note_on_c, 0, 77, 100
2, 200352, Note_off_c, 0, 60, 64
2, 200352, Note_on_c, 0, 62, 100
2, 200352, Note_off_c, 0, 62, 64
2, 200352, Note_on_c, 0, 62, 100
2, 200352, Note_on_c, 0, 63, 100
2, 200352, Note_off_c, 0, 70, 64
2, 200352, Note_on_c, 0, 70, 100
2, 200352, Note_off_c, 0, 68, 64
2, 200352, Note_on_c, 0, 68, 100
2, 200416, Note_off_c, 0, 65, 64
2, 200416, Note_off_c, 0, 75, 64
2, 200416, Note_on_c, 0, 75, 100
2, 200480, Note_off_c, 0, 74, 64
2, 200480, Note_on_c, 0, 74, 100
2, 200480, Note_off_c, 0, 68, 64
2, 200480, Note_on_c, 0, 68, 100
2, 200480, Note_off_c, 0, 70, 64
2, 200480, Note_on_c, 0, 70, 100
2, 200544, Note_off_c, 0, 70, 64
2, 200544, Note_off_c, 0, 72, 64
2, 200544, Note_on_c, 0, 72, 100
2, 200608, Note_off_c, 0, 75, 64
2, 200608, Note_on_c, 0, 75, 100
2, 200608, Note_off_c, 0, 72, 64
2, 200608, Note_off_c, 0, 70, 64
2, 200608, Note_on_c, 0, 70, 100
2, 200608, Note_off_c, 0, 68, 64
2, 200608, Note_on_c, 0, 68, 100
2, 200608, Note_off_c, 0, 60, 64
2, 200608, Note_on_c, 0, 60, 100
2, 200608, Note_on_c, 0, 53, 100
2, 200608, Note_off_c, 0, 53, 64
2, 200608, Note_on_c, 0, 53, 100
2, 200672, Note_off_c, 0, 68, 64
2, 200672, Note_on_c, 0, 68, 100
2, 200672, Note_off_c, 0, 70, 64
2, 200736, Note_off_c, 0, 77, 64
2, 200736, Note_off_c, 0, 68, 64
2, 200736, Note_on_c, 0, 68, 100
2, 200800, Note_off_c, 0, 68, 64
2, 200800, Note_off_c, 0, 65, 64
2, 200800, Note_on_c, 0, 65, 100
2, 200800, Note_on_c, 0, 70, 100
2, 200864, Note_off_c, 0, 77, 64
2, 200864, Note_off_c, 0, 60, 64
2, 200864, Note_off_c, 0, 53, 64
2, 200864, Note_off_c, 0, 80, 64
2, 200864, Note_on_c, 0, 80, 100
2, 200864, Note_off_c, 0, 65, 64
2, 200864, Note_on_c, 0, 65, 100
2, 200864, Note_on_c, 0, 77, 100
2, 200864, Note_off_c, 0, 75, 64
2, 200864, Note_off_c, 0, 70, 64
2, 200864, Note_off_c, 0, 50, 64
2, 200864, Note_on_c, 0, 50, 100
2, 200864, Note_off_c, 0, 79, 64
2, 200928, Note_off_c, 0, 68, 64
2, 200928, Note_on_c, 0, 68, 100
2, 200992, Note_off_c, 0, 69, 64
2, 200992, Note_on_c, 0, 69, 100
2, 200992, Note_off_c, 0, 66, 64
2, 200992, Note_on_c, 0, 66, 100
2, 201056, Note_off_c, 0, 82, 64
2, 201056, Note_on_c, 0, 82, 100
2, 201056, Note_off_c, 0, 66, 64
2, 201056, Note_off_c, 0, 50, 64
2, 201120, Note_off_c, 0, 69, 64
2, 201120, Note_on_c, 0, 69, 100
2, 201120, Note_off_c, 0, 65, 64
2, 201120, Note_on_c, 0, 65, 100
2, 201120, Note_off_c, 0, 48, 64
2, 201120, Note_on_c, 0, 48, 100
2, 201184, Note_off_c, 0, 69, 64
2, 201184, Note_on_c, 0, 69, 100
2, 201248, Note_off_c, 0, 70, 64
2, 201248, Note_on_c, 0, 70, 100
2, 201312, Note_off_c, 0, 70, 64
2, 201312, Note_off_c, 0, 65, 64
2, 201312, Note_off_c, 0, 48, 64
2, 201376, Note_off_c, 0, 69, 64
2, 201376, Note_off_c, 0, 72, 64
2, 201376, Note_on_c, 0, 72, 100
2, 201376, Note_off_c, 0, 51, 64
2, 201376, Note_on_c, 0, 51, 100
2, 201376, Note_off_c, 0, 70, 64
2, 201376, Note_on_c, 0, 70, 100
2, 201440, Note_off_c, 0, 72, 64
2, 201440, Note_on_c, 0, 72, 100
2, 201440, Note_off_c, 0, 70, 64
2, 201440, Note_on_c, 0, 70, 100
2, 201504, Note_off_c, 0, 70, 64
2, 201504, Note_off_c, 0, 72, 64
2, 201504, Note_on_c, 0, 72, 100
2, 201568, Note_off_c, 0, 78, 64
2, 201568, Note_off_c, 0, 51, 64
2, 201568, Note_off_c, 0, 72, 64
2, 201568, Note_on_c, 0, 70, 100
2, 201632, Note_off_c, 0, 79, 64
2, 201632, Note_on_c, 0, 79, 100
2, 201632, Note_off_c, 0, 70, 64
2, 201632, Note_on_c, 0, 70, 100
2, 201632, Note_off_c, 0, 43, 64
2, 201632, Note_on_c, 0, 43, 100
2, 201632, Note_on_c, 0, 78, 100
2, 201632, Note_on_c, 0, 75, 100
2, 201632, Note_off_c, 0, 70, 64
2, 201632, Note_on_c, 0, 55, 100
2, 201632, Note_off_c, 0, 43, 64
2, 201696, Note_off_c, 0, 78, 64
2, 201696, Note_off_c, 0, 75, 64
2, 201760, Note_off_c, 0, 79, 64
2, 201760, Note_on_c, 0, 79, 100
2, 201760, Note_off_c, 0, 46, 64
2, 201760, Note_on_c, 0, 46, 100
2, 201824, Note_on_c, 0, 75, 100
2, 201824, Note_on_c, 0, 70, 100
2, 201888, Note_off_c, 0, 79, 64
2, 201888, Note_on_c, 0, 43, 100
2, 201888, Note_on_c, 0, 78, 100
2, 201888, Note_off_c, 0, 77, 64
2, 201888, Note_off_c, 0, 70, 64
2, 201888, Note_on_c, 0, 70, 100
2, 201888, Note_off_c, 0, 50, 64
2, 201888, Note_on_c, 0, 50, 100
2, 201888, Note_off_c, 0, 75, 64
2, 201888, Note_on_c, 0, 75, 100
2, 201952, Note_off_c, 0, 72, 64
2, 201952, Note_on_c, 0, 72, 100
2, 202016, Note_on_c, 0, 77, 100
2, 202016, Note_off_c, 0, 75, 64
2, 202016, Note_off_c, 0, 74, 64
2, 202016, Note_on_c, 0, 74, 100
2, 202080, Note_on_c, 0, 75, 100
2, 202080, Note_off_c, 0, 72, 64
2, 202080, Note_off_c, 0, 50, 64
2, 202144, Note_on_c, 0, 72, 100
2, 202144, Note_off_c, 0, 45, 64
2, 202144, Note_off_c, 0, 75, 64
2, 202144, Note_on_c, 0, 75, 100
2, 202144, Note_off_c, 0, 79, 64
2, 202144, Note_on_c, 0, 79, 100
2, 202144, Note_on_c, 0, 45, 100
2, 202144, Note_off_c, 0, 69, 64
2, 202144, Note_on_c, 0, 69, 100
2, 202144, Note_off_c, 0, 63, 64
2, 202144, Note_off_c, 0, 46, 64
2, 202208, Note_off_c, 0, 81, 64
2, 202208, Note_on_c, 0, 81, 100
2, 202208, Note_off_c, 0, 79, 64
2, 202208, Note_on_c, 0, 79, 100
2, 202272, Note_off_c, 0, 75, 64
2, 202272, Note_off_c, 0, 79, 64
2, 202272, Note_on_c, 0, 79, 100
2, 202336, Note_off_c, 0, 69, 64
2, 202336, Note_off_c, 0, 70, 64
2, 202336, Note_on_c, 0, 70, 100
2, 202336, Note_on_c, 0, 63, 100
2, 202400, Note_off_c, 0, 79, 64
2, 202400, Note_off_c, 0, 69, 64
2, 202400, Note_on_c, 0, 69, 100
2, 202400, Note_on_c, 0, 46, 100
2, 202400, Note_off_c, 0, 45, 64
2, 202400, Note_on_c, 0, 45, 100
2, 202400, Note_off_c, 0, 57, 64
2, 202400, Note_on_c, 0, 57, 100
2, 202464, Note_off_c, 0, 81, 64
2, 202464, Note_off_c, 0, 79, 64
2, 202464, Note_on_c, 0, 79, 100
2, 202528, Note_off_c, 0, 79, 64
2, 202528, Note_on_c, 0, 79, 100
2, 202592, Note_off_c, 0, 74, 64
2, 202592, Note_off_c, 0, 69, 64
2, 202592, Note_on_c, 0, 69, 100
2, 202592, Note_off_c, 0, 45, 64
2, 202592, Note_off_c, 0, 57, 64
2, 202592, Note_on_c, 0, 57, 100
2, 202656, Note_off_c, 0, 78, 64
2, 202656, Note_off_c, 0, 74, 64
2, 202656, Note_on_c, 0, 74, 100
2, 202656, Note_off_c, 0, 72, 64
2, 202656, Note_on_c, 0, 72, 100
2, 202656, Note_off_c, 0, 65, 64
2, 202656, Note_on_c, 0, 65, 100
2, 202656, Note_off_c, 0, 67, 64
2, 202656, Note_on_c, 0, 67, 100
2, 202656, Note_off_c, 0, 60, 64
2, 202656, Note_on_c, 0, 60, 100
2, 202656, Note_off_c, 0, 57, 64
2, 202656, Note_on_c, 0, 57, 100
2, 202656, Note_off_c, 0, 45, 64
2, 202656, Note_on_c, 0, 45, 100
2, 202720, Note_off_c, 0, 74, 64
2, 202720, Note_on_c, 0, 74, 100
2, 202720, Note_off_c, 0, 72, 64
2, 202720, Note_on_c, 0, 72, 100
2, 202784, Note_off_c, 0, 72, 64
2, 202784, Note_on_c, 0, 72, 100
2, 202784, Note_off_c, 0, 63, 64
2, 202784, Note_on_c, 0, 63, 100
2, 202848, Note_off_c, 0, 57, 64
2, 202848, Note_off_c, 0, 45, 64
2, 202848, Note_off_c, 0, 77, 64
2, 202848, Note_on_c, 0, 77, 100
2, 202848, Note_on_c, 0, 45, 100
2, 202848, Note_off_c, 0, 45, 64
2, 202912, Note_off_c, 0, 72, 64
2, 202912, Note_on_c, 0, 72, 100
2, 202912, Note_off_c, 0, 70, 64
2, 202912, Note_on_c, 0, 70, 100
2, 202912, Note_off_c, 0, 64, 64
2, 202912, Note_on_c, 0, 64, 100
2, 202976, Note_off_c, 0, 60, 64
2, 202976, Note_on_c, 0, 60, 100
2, 202976, Note_off_c, 0, 69, 64
2, 202976, Note_on_c, 0, 69, 100
2, 202976, Note_on_c, 0, 58, 100
2, 202976, Note_on_c, 0, 57, 100
2, 203040, Note_off_c, 0, 72, 64
2, 203040, Note_off_c, 0, 67, 64
2, 203040, Note_on_c, 0, 67, 100
2, 203040, Note_off_c, 0, 70, 64
2, 203040, Note_on_c, 0, 70, 100
2, 203040, Note_off_c, 0, 64, 64
2, 203040, Note_on_c, 0, 64, 100
2, 203040, Note_off_c, 0, 57, 64
2, 203040, Note_off_c, 0, 58, 64
2, 203040, Note_on_c, 0, 58, 100
2, 203104, Note_on_c, 0, 45, 100
2, 203104, Note_off_c, 0, 70, 64
2, 203104, Note_on_c, 0, 70, 100
2, 203104, Note_off_c, 0, 69, 64
2, 203104, Note_on_c, 0, 69, 100
2, 203104, Note_off_c, 0, 65, 64
2, 203104, Note_on_c, 0, 65, 100
2, 203104, Note_off_c, 0, 65, 64
2, 203104, Note_on_c, 0, 65, 100
2, 203168, Note_off_c, 0, 58, 64
2, 203168, Note_off_c, 0, 62, 64
2, 203168, Note_on_c, 0, 62, 100
2, 203168, Note_off_c, 0, 70, 64
2, 203168, Note_on_c, 0, 70, 100
2, 203168, Note_off_c, 0, 72, 64
2, 203168, Note_on_c, 0, 72, 100
2, 203168, Note_off_c, 0, 50, 64
2, 203168, Note_on_c, 0, 50, 100
2, 203168, Note_off_c, 0, 67, 64
2, 203168, Note_on_c, 0, 67, 100
2, 203168, Note_off_c, 0, 52, 64
2, 203168, Note_on_c, 0, 52, 100
2, 203232, Note_off_c, 0, 69, 64
2, 203232, Note_on_c, 0, 69, 100
2, 203232, Note_off_c, 0, 72, 64
2, 203232, Note_on_c, 0, 72, 100
2, 203296, Note_off_c, 0, 67, 64
2, 203296, Note_on_c, 0, 67, 100
2, 203296, Note_off_c, 0, 65, 64
2, 203296, Note_on_c, 0, 65, 100
2, 203296, Note_off_c, 0, 69, 64
2, 203296, Note_on_c, 0, 69, 100
2, 203296, Note_off_c, 0, 64, 64
2, 203296, Note_off_c, 0, 62, 64
2, 203296, Note_on_c, 0, 62, 100
2, 203296, Note_off_c, 0, 52, 64
2, 203360, Note_off_c, 0, 69, 64
2, 203360, Note_off_c, 0, 66, 64
2, 203360, Note_on_c, 0, 66, 100
2, 203360, Note_off_c, 0, 70, 64
2, 203360, Note_on_c, 0, 70, 100
2, 203360, Note_off_c, 0, 67, 64
2, 203360, Note_on_c, 0, 67, 100
2, 203424, Note_off_c, 0, 70, 64
2, 203424, Note_off_c, 0, 67, 64
2, 203424, Note_on_c, 0, 67, 100
2, 203424, Note_off_c, 0, 50, 64
2, 203424, Note_off_c, 0, 69, 64
2, 203424, Note_on_c, 0, 69, 100
2, 203424, Note_off_c, 0, 62, 64
2, 203424, Note_off_c, 0, 48, 64
2, 203424, Note_on_c, 0, 48, 100
2, 203488, Note_off_c, 0, 67, 64
2, 203488, Note_off_c, 0, 70, 64
2, 203488, Note_on_c, 0, 70, 100
2, 203552, Note_off_c, 0, 69, 64
2, 203552, Note_off_c, 0, 65, 64
2, 203552, Note_on_c, 0, 65, 100
2, 203552, Note_off_c, 0, 70, 64
2, 203552, Note_off_c, 0, 48, 64
2, 203552, Note_off_c, 0, 67, 64
2, 203552, Note_on_c, 0, 67, 100
2, 203552, Note_off_c, 0, 62, 64
2, 203552, Note_on_c, 0, 62, 100
2, 203616, Note_off_c, 0, 67, 64
2, 203616, Note_on_c, 0, 70, 100
2, 203616, Note_off_c, 0, 70, 64
2, 203616, Note_off_c, 0, 65, 64
2, 203616, Note_on_c, 0, 65, 100
2, 203616, Note_off_c, 0, 62, 64
2, 203616, Note_on_c, 0, 62, 100
2, 203616, Note_on_c, 0, 70, 100
2, 203616, Note_off_c, 0, 70, 64
2, 203680, Note_off_c, 0, 65, 64
2, 203680, Note_off_c, 0, 70, 64
2, 203680, Note_on_c, 0, 70, 100
2, 203680, Note_on_c, 0, 65, 100
2, 203680, Note_off_c, 0, 65, 64
2, 203680, Note_off_c, 0, 62, 64
2, 203680, Note_on_c, 0, 62, 100
2, 203744, Note_off_c, 0, 70, 64
2, 203744, Note_on_c, 0, 70, 100
2, 203744, Note_off_c, 0, 64, 64
2, 203744, Note_on_c, 0, 64, 100
2, 203872, Note_off_c, 0, 64, 64
2, 203872, Note_off_c, 0, 62, 64
2, 203872, Note_on_c, 0, 62, 100
2, 203872, Note_off_c, 0, 57, 64
2, 203872, Note_on_c, 0, 57, 100
2, 203936, Note_off_c, 0, 62, 64
2, 203936, Note_on_c, 0, 62, 100
2, 203936, Note_off_c, 0, 57, 64
2, 203936, Note_off_c, 0, 62, 64
2, 203936, Note_off_c, 0, 58, 64
2, 203936, Note_on_c, 0, 58, 100
2, 203936, Note_off_c, 0, 50, 64
2, 203936, Note_on_c, 0, 50, 100
2, 204128, Note_off_c, 0, 67, 64
2, 204128, Note_on_c, 0, 67, 100
2, 204128, Note_off_c, 0, 65, 64
2, 204128, Note_on_c, 0, 65, 100
2, 204192, Note_off_c, 0, 50, 64
2, 204192, Note_on_c, 0, 50, 100
2, 204192, Note_off_c, 0, 60, 64
2, 204256, Note_off_c, 0, 50, 64
2, 204320, Note_off_c, 0, 70, 64
2, 204320, Note_off_c, 0, 67, 64
2, 204320, Note_on_c, 0, 64, 100
2, 204320, Note_on_c, 0, 70, 100
2, 204320, Note_off_c, 0, 55, 64
2, 204320, Note_on_c, 0, 55, 100
2, 204320, Note_off_c, 0, 53, 64
2, 204320, Note_on_c, 0, 53, 100
2, 204320, Note_on_c, 0, 60, 100
2, 204320, Note_off_c, 0, 48, 64
2, 204320, Note_on_c, 0, 48, 100
2, 204384, Note_off_c, 0, 52, 64
2, 204384, Note_on_c, 0, 52, 100
2, 204384, Note_off_c, 0, 53, 64
2, 204512, Note_off_c, 0, 55, 64
2, 204512, Note_on_c, 0, 55, 100
2, 204512, Note_off_c, 0, 52, 64
2, 204512, Note_off_c, 0, 50, 64
2, 204512, Note_on_c, 0, 50, 100
2, 204576, Note_off_c, 0, 53, 64
2, 204576, Note_on_c, 0, 53, 100
2, 204640, Note_off_c, 0, 70, 64
2, 204640, Note_off_c, 0, 69, 64
2, 204640, Note_on_c, 0, 69, 100
2, 204640, Note_off_c, 0, 65, 64
2, 204640, Note_on_c, 0, 65, 100
2, 204640, Note_off_c, 0, 53, 64
2, 204640, Note_off_c, 0, 48, 64
2, 204640, Note_on_c, 0, 48, 100
2, 204768, Note_off_c, 0, 69, 64
2, 204768, Note_off_c, 0, 65, 64
2, 204768, Note_off_c, 0, 48, 64
2, 204768, Note_off_c, 0, 77, 64
2, 204768, Note_on_c, 0, 77, 100
2, 204768, Note_off_c, 0, 50, 64
2, 204768, Note_on_c, 0, 50, 100
2, 204896, Note_off_c, 0, 77, 64
2, 204896, Note_off_c, 0, 76, 64
2, 204896, Note_on_c, 0, 76, 100
2, 205024, Note_off_c, 0, 76, 64
2, 205024, Note_off_c, 0, 77, 64
2, 205024, Note_on_c, 0, 77, 100
2, 205024, Note_off_c, 0, 50, 64
2, 205024, Note_on_c, 0, 50, 100
2, 205152, Note_off_c, 0, 77, 64
2, 205152, Note_off_c, 0, 79, 64
2, 205152, Note_on_c, 0, 79, 100
2, 205152, Note_off_c, 0, 50, 64
2, 205152, Note_off_c, 0, 52, 64
2, 205152, Note_on_c, 0, 52, 100
2, 205280, Note_off_c, 0, 79, 64
2, 205280, Note_off_c, 0, 72, 64
2, 205280, Note_on_c, 0, 72, 100
2, 205280, Note_off_c, 0, 72, 64
2, 205280, Note_off_c, 0, 52, 64
2, 205280, Note_off_c, 0, 53, 64
2, 205280, Note_on_c, 0, 53, 100
2, 205536, Note_off_c, 0, 53, 64
2, 205536, Note_off_c, 0, 55, 64
2, 205536, Note_on_c, 0, 55, 100
2, 205664, Note_off_c, 0, 55, 64
2, 205664, Note_off_c, 0, 53, 64
2, 205664, Note_on_c, 0, 53, 100
2, 205792, Note_off_c, 0, 53, 64
2, 205792, Note_off_c, 0, 52, 64
2, 205792, Note_on_c, 0, 52, 100
2, 205920, Note_off_c, 0, 52, 64
2, 205920, Note_off_c, 0, 53, 64
2, 205920, Note_on_c, 0, 53, 100
2, 206048, Note_off_c, 0, 53, 64
2, 206048, Note_off_c, 0, 60, 64
2, 206048, Note_on_c, 0, 60, 100
2, 206176, Note_off_c, 0, 60, 64
2, 206304, Note_off_c, 0, 72, 64
2, 206304, Note_on_c, 0, 72, 100
2, 206304, Note_off_c, 0, 60, 64
2, 206304, Note_on_c, 0, 60, 100
2, 206304, Note_off_c, 0, 58, 64
2, 206432, Note_off_c, 0, 72, 64
2, 206432, Note_off_c, 0, 70, 64
2, 206432, Note_on_c, 0, 70, 100
2, 206560, Note_off_c, 0, 70, 64
2, 206560, Note_off_c, 0, 69, 64
2, 206560, Note_on_c, 0, 69, 100
2, 206560, Note_off_c, 0, 60, 64
2, 206688, Note_off_c, 0, 69, 64
2, 206688, Note_off_c, 0, 70, 64
2, 206688, Note_on_c, 0, 70, 100
2, 206816, Note_off_c, 0, 70, 64
2, 206816, Note_on_c, 0, 70, 100
2, 206816, Note_off_c, 0, 70, 64
2, 206816, Note_off_c, 0, 55, 64
2, 206816, Note_on_c, 0, 55, 100
2, 206944, Note_on_c, 0, 70, 100
2, 206944, Note_off_c, 0, 69, 64
2, 206944, Note_on_c, 0, 69, 100
2, 207072, Note_off_c, 0, 69, 64
2, 207072, Note_off_c, 0, 67, 64
2, 207072, Note_on_c, 0, 67, 100
2, 207328, Note_off_c, 0, 67, 64
2, 207328, Note_off_c, 0, 65, 64
2, 207328, Note_on_c, 0, 65, 100
2, 207328, Note_off_c, 0, 55, 64
2, 207328, Note_off_c, 0, 53, 64
2, 207328, Note_on_c, 0, 53, 100
2, 207584, Note_off_c, 0, 53, 64
2, 207584, Note_off_c, 0, 64, 64
2, 207584, Note_on_c, 0, 64, 100
2, 207712, Note_off_c, 0, 65, 64
2, 207712, Note_off_c, 0, 70, 64
2, 207712, Note_on_c, 0, 70, 100
2, 207840, Note_off_c, 0, 70, 64
2, 207840, Note_off_c, 0, 79, 64
2, 207840, Note_on_c, 0, 79, 100
2, 207840, Note_off_c, 0, 64, 64
2, 207840, Note_on_c, 0, 64, 100
2, 208096, Note_off_c, 0, 79, 64
2, 208096, Note_off_c, 0, 81, 64
2, 208096, Note_on_c, 0, 81, 100
2, 208096, Note_off_c, 0, 64, 64
2, 208096, Note_off_c, 0, 65, 64
2, 208096, Note_on_c, 0, 65, 100
2, 208352, Note_off_c, 0, 81, 64
2, 208352, Note_off_c, 0, 79, 64
2, 208352, Note_on_c, 0, 79, 100
2, 208352, Note_off_c, 0, 65, 64
2, 208352, Note_on_c, 0, 70, 100
2, 208352, Note_on_c, 0, 53, 100
2, 208352, Note_on_c, 0, 38, 100
2, 208352, Note_on_c, 0, 50, 100
2, 208608, Note_off_c, 0, 81, 64
2, 208608, Note_on_c, 0, 81, 100
2, 208608, Note_off_c, 0, 38, 64
2, 208608, Note_off_c, 0, 50, 64
2, 208608, Note_off_c, 0, 55, 64
2, 208608, Note_on_c, 0, 55, 100
2, 208736, Note_off_c, 0, 55, 64
2, 208736, Note_off_c, 0, 53, 64
2, 208736, Note_on_c, 0, 53, 100
2, 208864, Note_off_c, 0, 53, 64
2, 208864, Note_off_c, 0, 55, 64
2, 208864, Note_on_c, 0, 55, 100
2, 208992, Note_off_c, 0, 55, 64
2, 208992, Note_off_c, 0, 57, 64
2, 208992, Note_on_c, 0, 57, 100
2, 209120, Note_off_c, 0, 57, 64
2, 209120, Note_off_c, 0, 74, 64
2, 209120, Note_on_c, 0, 74, 100
2, 209120, Note_off_c, 0, 58, 64
2, 209120, Note_on_c, 0, 58, 100
2, 209248, Note_off_c, 0, 58, 64
2, 209248, Note_off_c, 0, 60, 64
2, 209248, Note_on_c, 0, 60, 100
2, 209312, Note_off_c, 0, 74, 64
2, 209312, Note_off_c, 0, 80, 64
2, 209312, Note_on_c, 0, 80, 100
2, 209376, Note_off_c, 0, 60, 64
2, 209376, Note_off_c, 0, 62, 64
2, 209376, Note_on_c, 0, 62, 100
2, 209568, Note_off_c, 0, 62, 64
2, 209568, Note_on_c, 0, 62, 100
2, 209760, Note_off_c, 0, 81, 64
2, 209760, Note_off_c, 0, 80, 64
2, 209760, Note_on_c, 0, 80, 100
2, 209760, Note_off_c, 0, 62, 64
2, 209760, Note_off_c, 0, 65, 64
2, 209760, Note_on_c, 0, 65, 100
2, 209824, Note_off_c, 0, 80, 64
2, 209824, Note_off_c, 0, 77, 64
2, 209824, Note_on_c, 0, 77, 100
2, 209952, Note_off_c, 0, 77, 64
2, 209952, Note_off_c, 0, 80, 64
2, 209952, Note_on_c, 0, 80, 100
2, 209952, Note_off_c, 0, 65, 64
2, 209952, Note_off_c, 0, 64, 64
2, 209952, Note_on_c, 0, 64, 100
2, 210016, Note_off_c, 0, 80, 64
2, 210016, Note_off_c, 0, 81, 64
2, 210016, Note_on_c, 0, 81, 100
2, 210016, Note_off_c, 0, 64, 64
2, 210016, Note_off_c, 0, 65, 64
2, 210016, Note_on_c, 0, 65, 100
2, 210080, Note_off_c, 0, 81, 64
2, 210080, Note_off_c, 0, 80, 64
2, 210080, Note_on_c, 0, 80, 100
2, 210144, Note_off_c, 0, 80, 64
2, 210144, Note_off_c, 0, 77, 64
2, 210144, Note_on_c, 0, 77, 100
2, 210208, Note_off_c, 0, 77, 64
2, 210208, Note_off_c, 0, 76, 64
2, 210208, Note_on_c, 0, 76, 100
2, 210272, Note_off_c, 0, 76, 64
2, 210272, Note_off_c, 0, 74, 64
2, 210272, Note_on_c, 0, 74, 100
2, 210272, Note_off_c, 0, 65, 64
2, 210272, Note_off_c, 0, 71, 64
2, 210272, Note_on_c, 0, 71, 100
2, 210272, Note_off_c, 0, 62, 64
2, 210272, Note_on_c, 0, 62, 100
2, 210400, Note_off_c, 0, 74, 64
2, 210400, Note_off_c, 0, 76, 64
2, 210400, Note_on_c, 0, 76, 100
2, 210400, Note_off_c, 0, 71, 64
2, 210400, Note_off_c, 0, 72, 64
2, 210400, Note_on_c, 0, 72, 100
2, 210464, Note_off_c, 0, 76, 64
2, 210464, Note_off_c, 0, 77, 64
2, 210464, Note_on_c, 0, 77, 100
2, 210528, Note_off_c, 0, 72, 64
2, 210528, Note_on_c, 0, 74, 100
2, 210528, Note_off_c, 0, 77, 64
2, 210528, Note_off_c, 0, 62, 64
2, 210528, Note_off_c, 0, 60, 64
2, 210528, Note_on_c, 0, 60, 100
2, 210592, Note_off_c, 0, 60, 64
2, 210592, Note_off_c, 0, 62, 64
2, 210592, Note_on_c, 0, 62, 100
2, 210656, Note_off_c, 0, 62, 64
2, 210656, Note_off_c, 0, 64, 64
2, 210656, Note_on_c, 0, 64, 100
2, 210656, Note_off_c, 0, 60, 64
2, 210656, Note_on_c, 0, 60, 100
2, 210720, Note_off_c, 0, 60, 64
2, 210720, Note_off_c, 0, 59, 64
2, 210720, Note_on_c, 0, 59, 100
2, 210784, Note_on_c, 0, 58, 100
2, 210784, Note_off_c, 0, 52, 64
2, 210784, Note_on_c, 0, 52, 100
2, 210848, Note_off_c, 0, 52, 64
2, 210848, Note_off_c, 0, 55, 64
2, 210848, Note_on_c, 0, 55, 100
2, 211040, Note_on_c, 0, 53, 100
2, 211040, Note_off_c, 0, 53, 64
2, 211040, Note_on_c, 0, 53, 100
2, 211360, Note_off_c, 0, 53, 64
2, 211360, Note_on_c, 0, 53, 100
2, 211360, Note_off_c, 0, 53, 64
2, 211680, Note_off_c, 0, 55, 64
2, 211680, Note_off_c, 0, 53, 64
2, 211680, Note_on_c, 0, 53, 100
2, 211872, Note_off_c, 0, 59, 64
2, 211872, Note_off_c, 0, 62, 64
2, 211872, Note_on_c, 0, 62, 100
2, 212256, Note_off_c, 0, 53, 64
2, 212256, Note_off_c, 0, 52, 64
2, 212256, Note_on_c, 0, 52, 100
2, 212512, Note_off_c, 0, 52, 64
2, 212512, Note_off_c, 0, 53, 64
2, 212512, Note_on_c, 0, 53, 100
2, 212832, Note_off_c, 0, 53, 64
2, 212832, Note_off_c, 0, 52, 64
2, 212832, Note_on_c, 0, 52, 100
2, 213216, Note_off_c, 0, 52, 64
2, 213216, Note_off_c, 0, 53, 64
2, 213216, Note_on_c, 0, 53, 100
2, 213408, Note_off_c, 0, 62, 64
2, 213408, Note_off_c, 0, 64, 64
2, 213408, Note_on_c, 0, 64, 100
2, 213728, Note_off_c, 0, 53, 64
2, 213728, Note_off_c, 0, 52, 64
2, 213728, Note_on_c, 0, 52, 100
2, 213920, Note_off_c, 0, 52, 64
2, 213920, Note_off_c, 0, 53, 64
2, 213920, Note_on_c, 0, 53, 100
2, 214176, Note_off_c, 0, 53, 64
2, 214176, Note_off_c, 0, 52, 64
2, 214176, Note_on_c, 0, 52, 100
2, 214368, Note_off_c, 0, 52, 64
2, 214368, Note_off_c, 0, 60, 64
2, 214368, Note_on_c, 0, 60, 100
2, 214560, Note_off_c, 0, 65, 64
2, 214560, Note_on_c, 0, 65, 100
2, 214560, Note_off_c, 0, 62, 64
2, 214560, Note_on_c, 0, 62, 100
2, 214560, Note_off_c, 0, 60, 64
2, 214560, Note_off_c, 0, 50, 64
2, 214560, Note_on_c, 0, 50, 100
2, 214752, Note_off_c, 0, 50, 64
2, 214752, Note_off_c, 0, 52, 64
2, 214752, Note_on_c, 0, 52, 100
2, 214944, Note_off_c, 0, 52, 64
2, 214944, Note_off_c, 0, 55, 64
2, 214944, Note_on_c, 0, 55, 100
2, 215264, Note_off_c, 0, 62, 64
2, 215264, Note_on_c, 0, 76, 100
2, 215264, Note_on_c, 0, 67, 100
2, 215264, Note_off_c, 0, 55, 64
2, 215264, Note_on_c, 0, 55, 100
2, 215584, Note_off_c, 0, 55, 64
2, 215584, Note_on_c, 0, 55, 100
2, 215776, Note_off_c, 0, 55, 64
2, 215776, Note_off_c, 0, 50, 64
2, 215776, Note_on_c, 0, 50, 100
2, 215968, Note_off_c, 0, 67, 64
2, 215968, Note_off_c, 0, 76, 64
2, 215968, Note_on_c, 0, 76, 100
2, 215968, Note_on_c, 0, 52, 100
2, 215968, Note_off_c, 0, 50, 64
2, 215968, Note_on_c, 0, 50, 100
2, 216288, Note_off_c, 0, 76, 64
2, 216288, Note_on_c, 0, 76, 100
2, 216288, Note_off_c, 0, 67, 64
2, 216288, Note_on_c, 0, 67, 100
2, 216288, Note_off_c, 0, 72, 64
2, 216288, Note_on_c, 0, 72, 100
2, 216288, Note_off_c, 0, 52, 64
2, 216288, Note_off_c, 0, 50, 64
2, 216288, Note_on_c, 0, 50, 100
2, 216288, Note_on_c, 0, 48, 100
2, 216288, Note_off_c, 0, 50, 64
2, 216608, Note_off_c, 0, 74, 64
2, 216608, Note_off_c, 0, 76, 64
2, 216608, Note_off_c, 0, 67, 64
2, 216800, Note_off_c, 0, 72, 64
2, 216800, Note_off_c, 0, 69, 64
2, 216800, Note_on_c, 0, 69, 100
2, 216800, Note_on_c, 0, 67, 100
2, 216800, Note_on_c, 0, 50, 100
2, 216800, Note_off_c, 0, 48, 64
2, 216800, Note_on_c, 0, 48, 100
2, 217312, Note_off_c, 0, 64, 64
2, 217312, Note_on_c, 0, 64, 100
2, 217312, Note_off_c, 0, 48, 64
2, 217312, Note_off_c, 0, 50, 64
2, 217312, Note_on_c, 0, 50, 100
2, 217504, Note_off_c, 0, 50, 64
2, 217504, Note_off_c, 0, 52, 64
2, 217504, Note_on_c, 0, 52, 100
2, 217632, Note_off_c, 0, 67, 64
2, 217632, Note_off_c, 0, 52, 64
2, 217632, Note_off_c, 0, 48, 64
2, 217632, Note_on_c, 0, 48, 100
2, 217760, Note_off_c, 0, 48, 64
2, 217760, Note_off_c, 0, 50, 64
2, 217760, Note_on_c, 0, 50, 100
2, 217824, Note_on_c, 0, 67, 100
2, 217824, Note_off_c, 0, 69, 64
2, 217824, Note_off_c, 0, 64, 64
2, 217824, Note_off_c, 0, 65, 64
2, 217824, Note_on_c, 0, 65, 100
2, 217824, Note_off_c, 0, 59, 64
2, 217824, Note_on_c, 0, 59, 100
2, 217824, Note_off_c, 0, 50, 64
2, 217824, Note_on_c, 0, 57, 100
2, 218016, Note_off_c, 0, 59, 64
2, 218016, Note_off_c, 0, 57, 64
2, 218016, Note_on_c, 0, 57, 100
2, 218272, Note_on_c, 0, 64, 100
2, 218272, Note_off_c, 0, 65, 64
2, 218272, Note_on_c, 0, 65, 100
2, 218272, Note_off_c, 0, 57, 64
2, 218272, Note_off_c, 0, 55, 64
2, 218272, Note_on_c, 0, 55, 100
2, 218528, Note_off_c, 0, 64, 64
2, 218528, Note_off_c, 0, 65, 64
2, 218528, Note_on_c, 0, 65, 100
2, 218528, Note_off_c, 0, 55, 64
2, 218784, Note_off_c, 0, 65, 64
2, 218784, Note_off_c, 0, 64, 64
2, 218784, Note_on_c, 0, 64, 100
2, 218784, Note_off_c, 0, 57, 64
2, 218784, Note_on_c, 0, 57, 100
2, 219040, Note_off_c, 0, 64, 64
2, 219040, Note_off_c, 0, 65, 64
2, 219040, Note_on_c, 0, 65, 100
2, 219296, Note_off_c, 0, 65, 64
2, 219296, Note_off_c, 0, 64, 64
2, 219296, Note_on_c, 0, 64, 100
2, 219296, Note_off_c, 0, 57, 64
2, 219296, Note_off_c, 0, 56, 64
2, 219296, Note_on_c, 0, 56, 100
2, 219552, Note_on_c, 0, 53, 100
2, 219552, Note_off_c, 0, 56, 64
2, 219552, Note_on_c, 0, 56, 100
2, 219808, Note_off_c, 0, 64, 64
2, 219808, Note_off_c, 0, 65, 64
2, 219808, Note_on_c, 0, 65, 100
2, 219808, Note_off_c, 0, 57, 64
2, 219808, Note_on_c, 0, 57, 100
2, 219808, Note_off_c, 0, 56, 64
2, 220064, Note_off_c, 0, 65, 64
2, 220064, Note_off_c, 0, 64, 64
2, 220064, Note_on_c, 0, 64, 100
2, 220320, Note_off_c, 0, 64, 64
2, 220320, Note_off_c, 0, 57, 64
2, 220320, Note_on_c, 0, 57, 100
2, 220576, Note_off_c, 0, 57, 64
2, 220576, Note_off_c, 0, 71, 64
2, 220576, Note_on_c, 0, 71, 100
2, 220576, Note_on_c, 0, 57, 100
2, 220576, Note_off_c, 0, 56, 64
2, 220576, Note_on_c, 0, 56, 100
2, 220832, Note_off_c, 0, 71, 64
2, 220832, Note_off_c, 0, 72, 64
2, 220832, Note_on_c, 0, 72, 100
2, 220832, Note_off_c, 0, 57, 64
2, 220832, Note_off_c, 0, 56, 64
2, 220832, Note_on_c, 0, 56, 100
2, 221088, Note_off_c, 0, 56, 64
2, 221088, Note_off_c, 0, 55, 64
2, 221088, Note_on_c, 0, 55, 100
2, 221344, Note_on_c, 0, 73, 100
2, 221344, Note_off_c, 0, 72, 64
2, 221344, Note_on_c, 0, 72, 100
2, 221344, Note_off_c, 0, 55, 64
2, 221344, Note_off_c, 0, 54, 64
2, 221344, Note_on_c, 0, 54, 100
2, 221600, Note_off_c, 0, 54, 64
2, 221600, Note_off_c, 0, 55, 64
2, 221600, Note_on_c, 0, 55, 100
2, 221728, Note_off_c, 0, 55, 64
2, 221728, Note_off_c, 0, 57, 64
2, 221728, Note_on_c, 0, 57, 100
2, 221856, Note_off_c, 0, 73, 64
2, 221856, Note_off_c, 0, 74, 64
2, 221856, Note_on_c, 0, 74, 100
2, 221984, Note_off_c, 0, 57, 64
2, 221984, Note_off_c, 0, 59, 64
2, 221984, Note_on_c, 0, 59, 100
2, 222112, Note_off_c, 0, 59, 64
2, 222112, Note_off_c, 0, 57, 64
2, 222112, Note_on_c, 0, 57, 100
2, 222240, Note_off_c, 0, 57, 64
2, 222240, Note_off_c, 0, 59, 64
2, 222240, Note_on_c, 0, 59, 100
2, 222368, Note_off_c, 0, 74, 64
2, 222368, Note_off_c, 0, 75, 64
2, 222368, Note_on_c, 0, 75, 100
2, 222368, Note_off_c, 0, 59, 64
2, 222368, Note_off_c, 0, 60, 64
2, 222368, Note_on_c, 0, 60, 100
2, 222624, Note_off_c, 0, 75, 64
2, 222624, Note_off_c, 0, 60, 64
2, 222624, Note_on_c, 0, 60, 100
2, 222624, Note_on_c, 0, 75, 100
2, 222624, Note_off_c, 0, 59, 64
2, 222624, Note_on_c, 0, 59, 100
2, 222880, Note_off_c, 0, 59, 64
2, 223008, Note_off_c, 0, 71, 64
2, 223008, Note_on_c, 0, 71, 100
2, 223008, Note_off_c, 0, 75, 64
2, 223136, Note_off_c, 0, 75, 64
2, 223136, Note_on_c, 0, 75, 100
2, 223136, Note_off_c, 0, 71, 64
2, 223264, Note_off_c, 0, 75, 64
2, 223264, Note_off_c, 0, 71, 64
2, 223264, Note_on_c, 0, 71, 100
2, 223392, Note_off_c, 0, 71, 64
2, 223392, Note_off_c, 0, 69, 64
2, 223392, Note_on_c, 0, 69, 100
2, 223520, Note_off_c, 0, 69, 64
2, 223520, Note_off_c, 0, 66, 64
2, 223520, Note_on_c, 0, 66, 100
2, 223648, Note_off_c, 0, 66, 64
2, 223648, Note_off_c, 0, 75, 64
2, 223648, Note_on_c, 0, 75, 100
2, 223776, Note_off_c, 0, 75, 64
2, 223776, Note_off_c, 0, 73, 64
2, 223776, Note_on_c, 0, 73, 100
2, 223904, Note_off_c, 0, 73, 64
2, 223904, Note_off_c, 0, 72, 64
2, 223904, Note_on_c, 0, 72, 100
2, 224032, Note_off_c, 0, 72, 64
2, 224032, Note_off_c, 0, 71, 64
2, 224032, Note_on_c, 0, 71, 100
2, 224160, Note_off_c, 0, 71, 64
2, 224160, Note_off_c, 0, 69, 64
2, 224160, Note_on_c, 0, 69, 100
2, 224288, Note_off_c, 0, 69, 64
2, 224288, Note_off_c, 0, 78, 64
2, 224288, Note_on_c, 0, 78, 100
2, 224416, Note_off_c, 0, 78, 64
2, 224416, Note_off_c, 0, 79, 64
2, 224416, Note_on_c, 0, 79, 100
2, 224544, Note_off_c, 0, 79, 64
2, 224544, Note_off_c, 0, 75, 64
2, 224544, Note_on_c, 0, 75, 100
2, 224672, Note_off_c, 0, 75, 64
2, 224672, Note_off_c, 0, 76, 64
2, 224672, Note_on_c, 0, 76, 100
2, 224672, Note_off_c, 0, 55, 64
2, 224672, Note_on_c, 0, 55, 100
2, 224800, Note_off_c, 0, 76, 64
2, 224800, Note_off_c, 0, 73, 64
2, 224800, Note_on_c, 0, 73, 100
2, 224928, Note_off_c, 0, 73, 64
2, 224928, Note_off_c, 0, 71, 64
2, 224928, Note_on_c, 0, 71, 100
2, 224928, Note_off_c, 0, 55, 64
2, 224928, Note_on_c, 0, 55, 100
2, 224928, Note_off_c, 0, 55, 64
2, 225056, Note_off_c, 0, 71, 64
2, 225056, Note_off_c, 0, 69, 64
2, 225056, Note_on_c, 0, 69, 100
2, 225184, Note_off_c, 0, 69, 64
2, 225184, Note_off_c, 0, 71, 64
2, 225184, Note_on_c, 0, 71, 100
2, 225184, Note_on_c, 0, 55, 100
2, 225184, Note_off_c, 0, 54, 64
2, 225184, Note_on_c, 0, 54, 100
2, 225440, Note_off_c, 0, 71, 64
2, 225440, Note_on_c, 0, 71, 100
2, 225440, Note_off_c, 0, 69, 64
2, 225440, Note_on_c, 0, 69, 100
2, 225568, Note_off_c, 0, 71, 64
2, 225568, Note_off_c, 0, 69, 64
2, 225568, Note_on_c, 0, 69, 100
2, 225696, Note_off_c, 0, 69, 64
2, 225696, Note_on_c, 0, 69, 100
2, 225824, Note_off_c, 0, 69, 64
2, 225824, Note_off_c, 0, 67, 64
2, 225824, Note_on_c, 0, 67, 100
2, 225824, Note_off_c, 0, 54, 64
2, 225824, Note_off_c, 0, 59, 64
2, 225824, Note_on_c, 0, 59, 100
2, 225952, Note_off_c, 0, 67, 64
2, 225952, Note_off_c, 0, 66, 64
2, 225952, Note_on_c, 0, 66, 100
2, 225952, Note_off_c, 0, 59, 64
2, 226080, Note_off_c, 0, 66, 64
2, 226080, Note_off_c, 0, 64, 64
2, 226080, Note_on_c, 0, 64, 100
2, 226208, Note_off_c, 0, 64, 64
2, 226208, Note_off_c, 0, 66, 64
2, 226208, Note_on_c, 0, 66, 100
2, 226208, Note_on_c, 0, 54, 100
2, 226336, Note_off_c, 0, 66, 64
2, 226336, Note_off_c, 0, 67, 64
2, 226336, Note_on_c, 0, 67, 100
2, 226464, Note_off_c, 0, 67, 64
2, 226464, Note_off_c, 0, 59, 64
2, 226464, Note_on_c, 0, 59, 100
2, 226592, Note_off_c, 0, 59, 64
2, 226592, Note_off_c, 0, 61, 64
2, 226592, Note_on_c, 0, 61, 100
2, 226720, Note_off_c, 0, 61, 64
2, 226720, Note_off_c, 0, 62, 64
2, 226720, Note_on_c, 0, 62, 100
2, 226848, Note_off_c, 0, 62, 64
2, 226848, Note_off_c, 0, 54, 64
2, 226848, Note_on_c, 0, 54, 100
2, 226976, Note_off_c, 0, 54, 64
2, 226976, Note_off_c, 0, 52, 64
2, 226976, Note_on_c, 0, 52, 100
2, 227104, Note_off_c, 0, 52, 64
2, 227104, Note_on_c, 0, 52, 100
2, 227104, Note_off_c, 0, 52, 64
2, 227232, Note_off_c, 0, 64, 64
2, 227232, Note_on_c, 0, 64, 100
2, 227232, Note_on_c, 0, 52, 100
2, 227232, Note_off_c, 0, 49, 64
2, 227232, Note_on_c, 0, 49, 100
2, 227360, Note_off_c, 0, 49, 64
2, 227360, Note_off_c, 0, 54, 64
2, 227360, Note_on_c, 0, 54, 100
2, 227488, Note_off_c, 0, 54, 64
2, 227488, Note_off_c, 0, 64, 64
2, 227488, Note_on_c, 0, 64, 100
2, 227616, Note_off_c, 0, 64, 64
2, 227616, Note_off_c, 0, 62, 64
2, 227616, Note_on_c, 0, 62, 100
2, 227744, Note_off_c, 0, 62, 64
2, 227744, Note_off_c, 0, 64, 64
2, 227744, Note_on_c, 0, 64, 100
2, 227744, Note_off_c, 0, 45, 64
2, 227744, Note_on_c, 0, 45, 100
2, 227872, Note_off_c, 0, 64, 64
2, 227872, Note_off_c, 0, 69, 64
2, 227872, Note_on_c, 0, 69, 100
2, 228000, Note_off_c, 0, 69, 64
2, 228000, Note_off_c, 0, 73, 64
2, 228000, Note_on_c, 0, 73, 100
2, 228000, Note_off_c, 0, 45, 64
2, 228128, Note_off_c, 0, 73, 64
2, 228128, Note_off_c, 0, 57, 64
2, 228128, Note_on_c, 0, 57, 100
2, 228256, Note_off_c, 0, 57, 64
2, 228256, Note_off_c, 0, 55, 64
2, 228256, Note_on_c, 0, 55, 100
2, 228384, Note_off_c, 0, 55, 64
2, 228384, Note_off_c, 0, 64, 64
2, 228384, Note_on_c, 0, 64, 100
2, 228512, Note_off_c, 0, 64, 64
2, 228512, Note_off_c, 0, 62, 64
2, 228512, Note_on_c, 0, 62, 100
2, 228512, Note_off_c, 0, 43, 64
2, 228640, Note_off_c, 0, 62, 64
2, 228640, Note_off_c, 0, 60, 64
2, 228640, Note_on_c, 0, 60, 100
2, 228768, Note_off_c, 0, 60, 64
2, 228768, Note_off_c, 0, 62, 64
2, 228768, Note_on_c, 0, 62, 100
2, 228896, Note_off_c, 0, 62, 64
2, 228896, Note_off_c, 0, 54, 64
2, 228896, Note_on_c, 0, 54, 100
2, 229024, Note_on_c, 0, 42, 100
2, 229024, Note_off_c, 0, 43, 64
2, 229024, Note_on_c, 0, 43, 100
2, 229152, Note_off_c, 0, 53, 64
2, 229152, Note_off_c, 0, 59, 64
2, 229152, Note_on_c, 0, 59, 100
2, 229280, Note_off_c, 0, 59, 64
2, 229280, Note_off_c, 0, 57, 64
2, 229280, Note_on_c, 0, 57, 100
2, 229408, Note_off_c, 0, 57, 64
2, 229408, Note_off_c, 0, 55, 64
2, 229408, Note_on_c, 0, 55, 100
2, 229536, Note_off_c, 0, 55, 64
2, 229536, Note_off_c, 0, 43, 64
2, 229664, Note_on_c, 0, 67, 100
2, 229664, Note_on_c, 0, 66, 100
2, 229792, Note_off_c, 0, 66, 64
2, 229792, Note_off_c, 0, 67, 64
2, 229792, Note_on_c, 0, 67, 100
2, 229920, Note_off_c, 0, 67, 64
2, 229920, Note_off_c, 0, 69, 64
2, 229920, Note_on_c, 0, 69, 100
2, 230048, Note_off_c, 0, 69, 64
2, 230048, Note_off_c, 0, 67, 64
2, 230048, Note_on_c, 0, 67, 100
2, 230176, Note_off_c, 0, 67, 64
2, 230176, Note_off_c, 0, 79, 64
2, 230176, Note_on_c, 0, 79, 100
2, 230176, Note_off_c, 0, 51, 64
2, 230176, Note_on_c, 0, 51, 100
2, 230304, Note_off_c, 0, 79, 64
2, 230304, Note_off_c, 0, 83, 64
2, 230304, Note_on_c, 0, 83, 100
2, 230304, Note_off_c, 0, 51, 64
2, 230304, Note_off_c, 0, 50, 64
2, 230304, Note_on_c, 0, 50, 100
2, 230432, Note_off_c, 0, 83, 64
2, 230432, Note_on_c, 0, 78, 100
2, 230432, Note_off_c, 0, 50, 64
2, 230432, Note_on_c, 0, 50, 100
2, 230560, Note_off_c, 0, 78, 64
2, 230560, Note_off_c, 0, 83, 64
2, 230560, Note_on_c, 0, 83, 100
2, 230688, Note_off_c, 0, 83, 64
2, 230688, Note_off_c, 0, 81, 64
2, 230688, Note_on_c, 0, 81, 100
2, 230688, Note_off_c, 0, 50, 64
2, 230688, Note_on_c, 0, 50, 100
2, 230816, Note_off_c, 0, 81, 64
2, 230816, Note_off_c, 0, 74, 64
2, 230816, Note_on_c, 0, 74, 100
2, 230944, Note_off_c, 0, 74, 64
2, 230944, Note_off_c, 0, 73, 64
2, 230944, Note_on_c, 0, 73, 100
2, 230944, Note_off_c, 0, 50, 64
2, 230944, Note_off_c, 0, 49, 64
2, 230944, Note_on_c, 0, 49, 100
2, 231072, Note_off_c, 0, 73, 64
2, 231072, Note_off_c, 0, 74, 64
2, 231072, Note_on_c, 0, 74, 100
2, 231072, Note_off_c, 0, 49, 64
2, 231072, Note_off_c, 0, 47, 64
2, 231072, Note_on_c, 0, 47, 100
2, 231200, Note_off_c, 0, 74, 64
2, 231200, Note_off_c, 0, 76, 64
2, 231200, Note_on_c, 0, 76, 100
2, 231200, Note_off_c, 0, 47, 64
2, 231200, Note_on_c, 0, 41, 100
2, 231328, Note_off_c, 0, 76, 64
2, 231328, Note_off_c, 0, 74, 64
2, 231328, Note_on_c, 0, 74, 100
2, 231328, Note_off_c, 0, 41, 64
2, 231328, Note_on_c, 0, 40, 100
2, 231456, Note_off_c, 0, 74, 64
2, 231456, Note_off_c, 0, 76, 64
2, 231456, Note_on_c, 0, 76, 100
2, 231584, Note_off_c, 0, 76, 64
2, 231584, Note_off_c, 0, 74, 64
2, 231584, Note_on_c, 0, 74, 100
2, 231584, Note_off_c, 0, 40, 64
2, 231584, Note_off_c, 0, 52, 64
2, 231584, Note_on_c, 0, 52, 100
2, 231712, Note_off_c, 0, 74, 64
2, 231712, Note_off_c, 0, 73, 64
2, 231712, Note_on_c, 0, 73, 100
2, 231712, Note_off_c, 0, 52, 64
2, 231712, Note_off_c, 0, 45, 64
2, 231712, Note_on_c, 0, 45, 100
2, 231776, Note_on_c, 0, 57, 100
2, 231776, Note_on_c, 0, 47, 100
2, 231776, Note_off_c, 0, 45, 64
2, 231840, Note_off_c, 0, 73, 64
2, 231840, Note_off_c, 0, 74, 64
2, 231840, Note_on_c, 0, 74, 100
2, 232032, Note_off_c, 0, 45, 64
2, 232032, Note_on_c, 0, 45, 100
2, 232224, Note_off_c, 0, 45, 64
2, 232224, Note_off_c, 0, 52, 64
2, 232224, Note_on_c, 0, 52, 100
2, 232288, Note_off_c, 0, 52, 64
2, 232288, Note_off_c, 0, 53, 64
2, 232288, Note_on_c, 0, 53, 100
2, 232352, Note_off_c, 0, 53, 64
2, 232352, Note_off_c, 0, 52, 64
2, 232352, Note_on_c, 0, 52, 100
2, 232480, Note_off_c, 0, 52, 64
2, 232480, Note_off_c, 0, 50, 64
2, 232480, Note_on_c, 0, 50, 100
2, 232544, Note_off_c, 0, 50, 64
2, 232544, Note_off_c, 0, 52, 64
2, 232544, Note_on_c, 0, 52, 100
2, 232608, Note_off_c, 0, 52, 64
2, 232608, Note_off_c, 0, 50, 64
2, 232608, Note_on_c, 0, 50, 100
2, 232736, Note_off_c, 0, 50, 64
2, 232736, Note_off_c, 0, 52, 64
2, 232736, Note_on_c, 0, 52, 100
2, 232864, Note_off_c, 0, 74, 64
2, 232864, Note_off_c, 0, 62, 64
2, 232864, Note_on_c, 0, 62, 100
2, 232864, Note_off_c, 0, 57, 64
2, 232864, Note_on_c, 0, 57, 100
2, 232928, Note_on_c, 0, 50, 100
2, 232928, Note_off_c, 0, 52, 64
2, 232992, Note_off_c, 0, 57, 64
2, 232992, Note_off_c, 0, 55, 64
2, 232992, Note_on_c, 0, 55, 100
2, 233056, Note_off_c, 0, 62, 64
2, 233056, Note_off_c, 0, 67, 64
2, 233056, Note_on_c, 0, 67, 100
2, 233120, Note_off_c, 0, 55, 64
2, 233120, Note_off_c, 0, 53, 64
2, 233120, Note_on_c, 0, 53, 100
2, 233184, Note_off_c, 0, 67, 64
2, 233184, Note_off_c, 0, 69, 64
2, 233184, Note_on_c, 0, 69, 100
2, 233312, Note_off_c, 0, 69, 64
2, 233312, Note_on_c, 0, 74, 100
2, 233312, Note_on_c, 0, 65, 100
2, 233376, Note_off_c, 0, 53, 64
2, 233440, Note_off_c, 0, 65, 64
2, 233440, Note_on_c, 0, 65, 100
2, 233440, Note_off_c, 0, 57, 64
2, 233440, Note_on_c, 0, 57, 100
2, 233504, Note_off_c, 0, 65, 64
2, 233504, Note_off_c, 0, 67, 64
2, 233504, Note_on_c, 0, 67, 100
2, 233696, Note_off_c, 0, 67, 64
2, 233696, Note_off_c, 0, 64, 64
2, 233696, Note_on_c, 0, 64, 100
2, 233696, Note_off_c, 0, 57, 64
2, 233696, Note_off_c, 0, 55, 64
2, 233696, Note_on_c, 0, 55, 100
2, 233888, Note_off_c, 0, 74, 64
2, 233888, Note_off_c, 0, 72, 64
2, 233888, Note_on_c, 0, 72, 100
2, 233888, Note_off_c, 0, 64, 64
2, 233888, Note_off_c, 0, 65, 64
2, 233888, Note_on_c, 0, 65, 100
2, 234016, Note_off_c, 0, 72, 64
2, 234016, Note_off_c, 0, 74, 64
2, 234016, Note_on_c, 0, 74, 100
2, 234016, Note_off_c, 0, 65, 64
2, 234016, Note_off_c, 0, 55, 64
2, 234016, Note_off_c, 0, 62, 64
2, 234016, Note_on_c, 0, 62, 100
2, 234144, Note_off_c, 0, 74, 64
2, 234144, Note_off_c, 0, 72, 64
2, 234144, Note_on_c, 0, 72, 100
2, 234144, Note_off_c, 0, 62, 64
2, 234144, Note_off_c, 0, 64, 64
2, 234144, Note_on_c, 0, 64, 100
2, 234208, Note_off_c, 0, 72, 64
2, 234208, Note_off_c, 0, 74, 64
2, 234208, Note_on_c, 0, 74, 100
2, 234272, Note_off_c, 0, 74, 64
2, 234272, Note_off_c, 0, 72, 64
2, 234272, Note_on_c, 0, 72, 100
2, 234272, Note_off_c, 0, 67, 64
2, 234272, Note_on_c, 0, 67, 100
2, 234336, Note_off_c, 0, 64, 64
2, 234336, Note_off_c, 0, 62, 64
2, 234336, Note_on_c, 0, 62, 100
2, 234400, Note_off_c, 0, 67, 64
2, 234400, Note_off_c, 0, 65, 64
2, 234400, Note_on_c, 0, 65, 100
2, 234400, Note_off_c, 0, 62, 64
2, 234400, Note_on_c, 0, 59, 100
2, 234400, Note_on_c, 0, 55, 100
2, 234400, Note_off_c, 0, 55, 64
2, 234400, Note_on_c, 0, 57, 100
2, 234400, Note_on_c, 0, 55, 100
2, 234464, Note_off_c, 0, 65, 64
2, 234464, Note_off_c, 0, 64, 64
2, 234464, Note_on_c, 0, 64, 100
2, 234464, Note_off_c, 0, 74, 64
2, 234464, Note_on_c, 0, 74, 100
2, 234528, Note_off_c, 0, 74, 64
2, 234528, Note_off_c, 0, 72, 64
2, 234528, Note_on_c, 0, 72, 100
2, 234528, Note_off_c, 0, 64, 64
2, 234528, Note_on_c, 0, 64, 100
2, 234528, Note_on_c, 0, 66, 100
2, 234528, Note_off_c, 0, 69, 64
2, 234528, Note_on_c, 0, 69, 100
2, 234528, Note_on_c, 0, 74, 100
2, 234528, Note_off_c, 0, 74, 64
2, 234528, Note_off_c, 0, 57, 64
2, 234528, Note_off_c, 0, 55, 64
2, 234592, Note_off_c, 0, 59, 64
2, 234592, Note_off_c, 0, 57, 64
2, 234592, Note_on_c, 0, 57, 100
2, 234976, Note_off_c, 0, 72, 64
2, 234976, Note_off_c, 0, 57, 64
2, 235040, Note_off_c, 0, 74, 64
2, 235040, Note_on_c, 0, 74, 100
2, 235040, Note_off_c, 0, 55, 64
2, 235040, Note_on_c, 0, 55, 100
2, 235040, Note_off_c, 0, 71, 64
2, 235040, Note_on_c, 0, 71, 100
2, 235232, Note_off_c, 0, 69, 64
2, 235232, Note_off_c, 0, 71, 64
2, 235296, Note_off_c, 0, 55, 64
2, 235296, Note_off_c, 0, 74, 64
2, 235296, Note_off_c, 0, 76, 64
2, 235296, Note_on_c, 0, 76, 100
2, 235296, Note_off_c, 0, 71, 64
2, 235296, Note_on_c, 0, 71, 100
2, 235488, Note_off_c, 0, 59, 64
2, 235488, Note_on_c, 0, 59, 100
2, 235616, Note_off_c, 0, 64, 64
2, 235616, Note_on_c, 0, 64, 100
2, 235680, Note_off_c, 0, 59, 64
2, 235744, Note_off_c, 0, 71, 64
2, 235744, Note_off_c, 0, 69, 64
2, 235744, Note_on_c, 0, 69, 100
2, 235744, Note_off_c, 0, 60, 64
2, 235744, Note_on_c, 0, 60, 100
2, 235808, Note_off_c, 0, 76, 64
2, 235808, Note_off_c, 0, 69, 64
2, 235808, Note_off_c, 0, 71, 64
2, 235808, Note_on_c, 0, 71, 100
2, 235872, Note_off_c, 0, 60, 64
2, 235872, Note_off_c, 0, 59, 64
2, 235872, Note_on_c, 0, 59, 100
2, 236000, Note_off_c, 0, 59, 64
2, 236000, Note_on_c, 0, 57, 100
2, 236000, Note_off_c, 0, 57, 64
2, 236000, Note_off_c, 0, 60, 64
2, 236000, Note_on_c, 0, 60, 100
2, 236000, Note_on_c, 0, 57, 100
2, 236128, Note_off_c, 0, 60, 64
2, 236128, Note_off_c, 0, 55, 64
2, 236128, Note_on_c, 0, 55, 100
2, 236256, Note_off_c, 0, 55, 64
2, 236256, Note_off_c, 0, 57, 64
2, 236256, Note_on_c, 0, 57, 100
2, 236256, Note_off_c, 0, 54, 64
2, 236256, Note_on_c, 0, 54, 100
2, 236320, Note_on_c, 0, 55, 100
2, 236320, Note_off_c, 0, 52, 64
2, 236320, Note_on_c, 0, 52, 100
2, 236384, Note_off_c, 0, 55, 64
2, 236384, Note_off_c, 0, 54, 64
2, 236384, Note_on_c, 0, 54, 100
2, 236448, Note_off_c, 0, 59, 64
2, 236448, Note_on_c, 0, 59, 100
2, 236448, Note_off_c, 0, 52, 64
2, 236448, Note_on_c, 0, 52, 100
2, 236512, Note_off_c, 0, 54, 64
2, 236512, Note_on_c, 0, 54, 100
2, 236512, Note_off_c, 0, 64, 64
2, 236512, Note_on_c, 0, 64, 100
2, 236512, Note_off_c, 0, 57, 64
2, 236512, Note_off_c, 0, 52, 64
2, 236576, Note_on_c, 0, 60, 100
2, 236576, Note_on_c, 0, 55, 100
2, 236576, Note_on_c, 0, 57, 100
2, 236640, Note_off_c, 0, 55, 64
2, 236640, Note_off_c, 0, 54, 64
2, 236640, Note_on_c, 0, 54, 100
2, 236640, Note_off_c, 0, 54, 64
2, 236704, Note_off_c, 0, 59, 64
2, 236704, Note_on_c, 0, 59, 100
2, 236768, Note_on_c, 0, 54, 100
2, 236768, Note_off_c, 0, 54, 64
2, 236768, Note_on_c, 0, 54, 100
2, 236832, Note_off_c, 0, 59, 64
2, 236832, Note_off_c, 0, 55, 64
2, 236832, Note_on_c, 0, 55, 100
2, 236896, Note_off_c, 0, 54, 64
2, 236896, Note_off_c, 0, 55, 64
2, 236896, Note_off_c, 0, 59, 64
2, 236896, Note_on_c, 0, 59, 100
2, 236896, Note_off_c, 0, 52, 64
2, 236896, Note_on_c, 0, 52, 100
2, 237024, Note_off_c, 0, 52, 64
2, 237024, Note_off_c, 0, 55, 64
2, 237024, Note_on_c, 0, 55, 100
2, 237088, Note_off_c, 0, 57, 64
2, 237088, Note_on_c, 0, 57, 100
2, 237088, Note_off_c, 0, 59, 64
2, 237088, Note_off_c, 0, 36, 64
2, 237088, Note_off_c, 0, 60, 64
2, 237088, Note_on_c, 0, 60, 100
2, 237152, Note_off_c, 0, 55, 64
2, 237152, Note_on_c, 0, 55, 100
2, 237280, Note_off_c, 0, 57, 64
2, 237280, Note_on_c, 0, 57, 100
2, 237344, Note_off_c, 0, 55, 64
2, 237344, Note_off_c, 0, 54, 64
2, 237344, Note_on_c, 0, 54, 100
2, 237408, Note_off_c, 0, 54, 64
2, 237408, Note_off_c, 0, 55, 64
2, 237408, Note_on_c, 0, 55, 100
2, 237472, Note_off_c, 0, 76, 64
2, 237472, Note_on_c, 0, 76, 100
2, 237536, Note_off_c, 0, 55, 64
2, 237536, Note_off_c, 0, 64, 64
2, 237536, Note_off_c, 0, 76, 64
2, 237536, Note_on_c, 0, 76, 100
2, 237600, Note_off_c, 0, 71, 64
2, 237600, Note_on_c, 0, 71, 100
2, 237664, Note_off_c, 0, 76, 64
2, 237664, Note_on_c, 0, 76, 100
2, 237664, Note_on_c, 0, 64, 100
2, 237664, Note_off_c, 0, 60, 64
2, 237664, Note_on_c, 0, 60, 100
2, 237792, Note_off_c, 0, 60, 64
2, 237792, Note_off_c, 0, 59, 64
2, 237792, Note_on_c, 0, 59, 100
2, 237856, Note_off_c, 0, 76, 64
2, 237856, Note_off_c, 0, 71, 64
2, 237856, Note_off_c, 0, 59, 64
2, 237920, Note_off_c, 0, 76, 64
2, 237920, Note_on_c, 0, 76, 100
2, 237920, Note_off_c, 0, 55, 64
2, 237920, Note_on_c, 0, 55, 100
2, 238048, Note_off_c, 0, 76, 64
2, 238048, Note_off_c, 0, 78, 64
2, 238048, Note_on_c, 0, 78, 100
2, 238112, Note_off_c, 0, 59, 64
2, 238112, Note_on_c, 0, 59, 100
2, 238176, Note_off_c, 0, 55, 64
2, 238176, Note_off_c, 0, 54, 64
2, 238176, Note_on_c, 0, 54, 100
2, 238240, Note_off_c, 0, 78, 64
2, 238240, Note_off_c, 0, 79, 64
2, 238240, Note_on_c, 0, 79, 100
2, 238368, Note_off_c, 0, 59, 64
2, 238368, Note_on_c, 0, 59, 100
2, 238432, Note_off_c, 0, 54, 64
2, 238432, Note_off_c, 0, 52, 64
2, 238432, Note_on_c, 0, 52, 100
2, 238560, Note_off_c, 0, 52, 64
2, 238624, Note_off_c, 0, 79, 64
2, 238624, Note_off_c, 0, 78, 64
2, 238624, Note_on_c, 0, 78, 100
2, 238624, Note_off_c, 0, 59, 64
2, 238624, Note_off_c, 0, 39, 64
2, 238688, Note_off_c, 0, 59, 64
2, 238688, Note_on_c, 0, 59, 100
2, 238816, Note_off_c, 0, 59, 64
2, 238816, Note_off_c, 0, 69, 64
2, 238816, Note_on_c, 0, 69, 100
2, 238880, Note_off_c, 0, 78, 64
2, 238880, Note_off_c, 0, 76, 64
2, 238880, Note_on_c, 0, 76, 100
2, 238944, Note_off_c, 0, 69, 64
2, 238944, Note_off_c, 0, 71, 64
2, 238944, Note_on_c, 0, 71, 100
2, 239072, Note_off_c, 0, 76, 64
2, 239072, Note_off_c, 0, 79, 64
2, 239072, Note_on_c, 0, 79, 100
2, 239136, Note_off_c, 0, 71, 64
2, 239136, Note_off_c, 0, 79, 64
2, 239136, Note_on_c, 0, 76, 100
2, 239200, Note_on_c, 0, 71, 100
2, 239200, Note_off_c, 0, 73, 64
2, 239200, Note_on_c, 0, 73, 100
2, 239328, Note_off_c, 0, 73, 64
2, 239328, Note_off_c, 0, 76, 64
2, 239328, Note_on_c, 0, 76, 100
2, 239456, Note_off_c, 0, 76, 64
2, 239456, Note_on_c, 0, 76, 100
2, 239456, Note_off_c, 0, 74, 64
2, 239456, Note_on_c, 0, 74, 100
2, 239584, Note_off_c, 0, 74, 64
2, 239584, Note_off_c, 0, 76, 64
2, 239712, Note_on_c, 0, 40, 100
2, 239712, Note_off_c, 0, 73, 64
2, 239712, Note_on_c, 0, 73, 100
2, 239840, Note_off_c, 0, 73, 64
2, 239840, Note_off_c, 0, 71, 64
2, 239840, Note_on_c, 0, 71, 100
2, 239968, Note_off_c, 0, 71, 64
2, 239968, Note_off_c, 0, 64, 64
2, 239968, Note_on_c, 0, 64, 100
2, 240096, Note_off_c, 0, 64, 64
2, 240096, Note_off_c, 0, 66, 64
2, 240096, Note_on_c, 0, 66, 100
2, 240160, Note_off_c, 0, 66, 64
2, 240224, Note_off_c, 0, 76, 64
2, 240224, Note_on_c, 0, 76, 100
2, 240224, Note_off_c, 0, 71, 64
2, 240224, Note_on_c, 0, 71, 100
2, 240224, Note_off_c, 0, 40, 64
2, 240224, Note_on_c, 0, 40, 100
2, 240352, Note_off_c, 0, 71, 64
2, 240352, Note_off_c, 0, 73, 64
2, 240352, Note_on_c, 0, 73, 100
2, 240416, Note_off_c, 0, 76, 64
2, 240480, Note_off_c, 0, 76, 64
2, 240480, Note_on_c, 0, 76, 100
2, 240480, Note_off_c, 0, 64, 64
2, 240480, Note_on_c, 0, 64, 100
2, 240480, Note_off_c, 0, 40, 64
2, 240608, Note_off_c, 0, 73, 64
2, 240608, Note_off_c, 0, 76, 64
2, 240608, Note_on_c, 0, 76, 100
2, 240608, Note_off_c, 0, 71, 64
2, 240608, Note_on_c, 0, 71, 100
2, 240608, Note_off_c, 0, 64, 64
2, 240736, Note_off_c, 0, 71, 64
2, 240736, Note_off_c, 0, 76, 64
2, 240736, Note_on_c, 0, 76, 100
2, 240736, Note_off_c, 0, 73, 64
2, 240736, Note_on_c, 0, 73, 100
2, 240736, Note_off_c, 0, 40, 64
2, 240736, Note_on_c, 0, 40, 100
2, 240864, Note_off_c, 0, 73, 64
2, 240864, Note_off_c, 0, 71, 64
2, 240864, Note_on_c, 0, 71, 100
2, 240992, Note_off_c, 0, 71, 64
2, 240992, Note_off_c, 0, 73, 64
2, 240992, Note_on_c, 0, 73, 100
2, 240992, Note_on_c, 0, 52, 100
2, 240992, Note_off_c, 0, 64, 64
2, 240992, Note_on_c, 0, 64, 100
2, 241120, Note_off_c, 0, 73, 64
2, 241120, Note_off_c, 0, 71, 64
2, 241120, Note_on_c, 0, 71, 100
2, 241248, Note_off_c, 0, 71, 64
2, 241248, Note_off_c, 0, 64, 64
2, 241248, Note_off_c, 0, 76, 64
2, 241248, Note_on_c, 0, 76, 100
2, 241248, Note_off_c, 0, 73, 64
2, 241248, Note_on_c, 0, 73, 100
2, 241376, Note_off_c, 0, 76, 64
2, 241376, Note_off_c, 0, 73, 64
2, 241376, Note_on_c, 0, 73, 100
2, 241440, Note_off_c, 0, 70, 64
2, 241504, Note_off_c, 0, 73, 64
2, 241504, Note_on_c, 0, 78, 100
2, 241504, Note_off_c, 0, 76, 64
2, 241504, Note_on_c, 0, 76, 100
2, 241504, Note_off_c, 0, 40, 64
2, 241504, Note_on_c, 0, 40, 100
2, 241632, Note_off_c, 0, 76, 64
2, 241632, Note_off_c, 0, 70, 64
2, 241632, Note_on_c, 0, 70, 100
2, 241696, Note_off_c, 0, 52, 64
2, 241760, Note_off_c, 0, 40, 64
2, 241760, Note_off_c, 0, 64, 64
2, 241760, Note_on_c, 0, 64, 100
2, 241760, Note_off_c, 0, 49, 64
2, 241760, Note_on_c, 0, 49, 100
2, 241888, Note_off_c, 0, 71, 64
2, 241888, Note_on_c, 0, 71, 100
2, 241952, Note_off_c, 0, 64, 64
2, 242016, Note_off_c, 0, 49, 64
2, 242016, Note_off_c, 0, 70, 64
2, 242016, Note_on_c, 0, 70, 100
2, 242016, Note_on_c, 0, 64, 100
2, 242144, Note_off_c, 0, 64, 64
2, 242144, Note_off_c, 0, 70, 64
2, 242144, Note_on_c, 0, 70, 100
2, 242208, Note_off_c, 0, 70, 64
2, 242208, Note_off_c, 0, 71, 64
2, 242272, Note_off_c, 0, 73, 64
2, 242272, Note_on_c, 0, 73, 100
2, 242272, Note_off_c, 0, 69, 64
2, 242272, Note_on_c, 0, 69, 100
2, 242272, Note_off_c, 0, 49, 64
2, 242272, Note_on_c, 0, 49, 100
2, 242400, Note_off_c, 0, 73, 64
2, 242400, Note_off_c, 0, 69, 64
2, 242400, Note_off_c, 0, 71, 64
2, 242400, Note_on_c, 0, 71, 100
2, 242464, Note_on_c, 0, 48, 100
2, 242528, Note_off_c, 0, 71, 64
2, 242528, Note_on_c, 0, 71, 100
2, 242528, Note_off_c, 0, 60, 64
2, 242528, Note_on_c, 0, 60, 100
2, 242528, Note_off_c, 0, 50, 64
2, 242528, Note_on_c, 0, 50, 100
2, 242656, Note_off_c, 0, 76, 64
2, 242656, Note_on_c, 0, 76, 100
2, 242784, Note_off_c, 0, 76, 64
2, 242784, Note_off_c, 0, 50, 64
2, 242784, Note_off_c, 0, 74, 64
2, 242784, Note_on_c, 0, 74, 100
2, 242848, Note_off_c, 0, 66, 64
2, 242848, Note_on_c, 0, 66, 100
2, 242912, Note_off_c, 0, 74, 64
2, 242976, Note_off_c, 0, 66, 64
2, 243040, Note_off_c, 0, 71, 64
2, 243040, Note_on_c, 0, 71, 100
2, 243168, Note_off_c, 0, 71, 64
2, 243168, Note_off_c, 0, 67, 64
2, 243168, Note_on_c, 0, 67, 100
2, 243232, Note_off_c, 0, 66, 64
2, 243232, Note_on_c, 0, 66, 100
2, 243296, Note_off_c, 0, 67, 64
2, 243296, Note_on_c, 0, 67, 100
2, 243296, Note_off_c, 0, 71, 64
2, 243296, Note_on_c, 0, 71, 100
2, 243296, Note_off_c, 0, 62, 64
2, 243296, Note_on_c, 0, 62, 100
2, 243360, Note_off_c, 0, 69, 64
2, 243360, Note_on_c, 0, 69, 100
2, 243424, Note_off_c, 0, 67, 64
2, 243424, Note_on_c, 0, 67, 100
2, 243424, Note_off_c, 0, 63, 64
2, 243488, Note_off_c, 0, 67, 64
2, 243552, Note_off_c, 0, 69, 64
2, 243552, Note_on_c, 0, 69, 100
2, 243616, Note_off_c, 0, 75, 64
2, 243616, Note_on_c, 0, 75, 100
2, 243680, Note_off_c, 0, 69, 64
2, 243680, Note_off_c, 0, 76, 64
2, 243680, Note_on_c, 0, 76, 100
2, 243744, Note_off_c, 0, 62, 64
2, 243808, Note_off_c, 0, 75, 64
2, 243808, Note_off_c, 0, 76, 64
2, 243808, Note_off_c, 0, 60, 64
2, 243872, Note_on_c, 0, 60, 100
2, 243936, Note_off_c, 0, 59, 64
2, 243936, Note_on_c, 0, 59, 100
2, 244064, Note_on_c, 0, 76, 100
2, 244064, Note_off_c, 0, 74, 64
2, 244064, Note_on_c, 0, 74, 100
2, 244128, Note_on_c, 0, 75, 100
2, 244128, Note_off_c, 0, 74, 64
2, 244192, Note_off_c, 0, 59, 64
2, 244192, Note_off_c, 0, 64, 64
2, 244192, Note_on_c, 0, 64, 100
2, 244320, Note_off_c, 0, 64, 64
2, 244320, Note_off_c, 0, 66, 64
2, 244320, Note_on_c, 0, 66, 100
2, 244384, Note_off_c, 0, 67, 64
2, 244384, Note_on_c, 0, 67, 100
2, 244448, Note_off_c, 0, 66, 64
2, 244448, Note_off_c, 0, 67, 64
2, 244448, Note_on_c, 0, 67, 100
2, 244704, Note_off_c, 0, 74, 64
2, 244704, Note_on_c, 0, 74, 100
2, 244704, Note_on_c, 0, 55, 100
2, 244768, Note_off_c, 0, 67, 64
2, 244832, Note_off_c, 0, 74, 64
2, 244832, Note_off_c, 0, 55, 64
2, 244832, Note_on_c, 0, 55, 100
2, 244832, Note_on_c, 0, 62, 100
2, 244896, Note_off_c, 0, 55, 64
2, 244896, Note_off_c, 0, 71, 64
2, 244896, Note_on_c, 0, 71, 100
2, 244960, Note_off_c, 0, 71, 64
2, 244960, Note_off_c, 0, 62, 64
2, 244960, Note_on_c, 0, 74, 100
2, 244960, Note_off_c, 0, 67, 64
2, 244960, Note_on_c, 0, 67, 100
2, 245024, Note_off_c, 0, 74, 64
2, 245024, Note_off_c, 0, 67, 64
2, 245088, Note_off_c, 0, 69, 64
2, 245088, Note_on_c, 0, 69, 100
2, 245088, Note_off_c, 0, 74, 64
2, 245088, Note_on_c, 0, 74, 100
2, 245152, Note_off_c, 0, 74, 64
2, 245152, Note_on_c, 0, 74, 100
2, 245152, Note_off_c, 0, 69, 64
2, 245152, Note_on_c, 0, 69, 100
2, 245216, Note_off_c, 0, 74, 64
2, 245216, Note_on_c, 0, 74, 100
2, 245216, Note_off_c, 0, 66, 64
2, 245216, Note_on_c, 0, 66, 100
2, 245216, Note_off_c, 0, 71, 64
2, 245216, Note_on_c, 0, 71, 100
2, 245280, Note_off_c, 0, 74, 64
2, 245280, Note_on_c, 0, 74, 100
2, 245280, Note_off_c, 0, 76, 64
2, 245280, Note_on_c, 0, 76, 100
2, 245280, Note_off_c, 0, 68, 64
2, 245280, Note_on_c, 0, 68, 100
2, 245344, Note_off_c, 0, 76, 64
2, 245344, Note_on_c, 0, 76, 100
2, 245408, Note_off_c, 0, 74, 64
2, 245408, Note_on_c, 0, 74, 100
2, 245472, Note_off_c, 0, 69, 64
2, 245472, Note_on_c, 0, 69, 100
2, 245472, Note_off_c, 0, 66, 64
2, 245536, Note_off_c, 0, 68, 64
2, 245536, Note_on_c, 0, 68, 100
2, 245536, Note_off_c, 0, 74, 64
2, 245536, Note_on_c, 0, 38, 100
2, 245536, Note_on_c, 0, 50, 100
2, 245536, Note_off_c, 0, 69, 64
2, 245536, Note_on_c, 0, 69, 100
2, 245664, Note_off_c, 0, 69, 64
2, 245664, Note_on_c, 0, 81, 100
2, 245664, Note_off_c, 0, 78, 64
2, 245664, Note_on_c, 0, 78, 100
2, 245664, Note_off_c, 0, 66, 64
2, 245664, Note_on_c, 0, 66, 100
2, 245792, Note_off_c, 0, 66, 64
2, 245792, Note_off_c, 0, 38, 64
2, 245792, Note_on_c, 0, 69, 100
2, 245792, Note_off_c, 0, 68, 64
2, 245920, Note_on_c, 0, 68, 100
2, 245920, Note_off_c, 0, 71, 64
2, 245920, Note_on_c, 0, 71, 100
2, 246048, Note_off_c, 0, 71, 64
2, 246048, Note_off_c, 0, 73, 64
2, 246048, Note_on_c, 0, 73, 100
2, 246048, Note_off_c, 0, 81, 64
2, 246048, Note_off_c, 0, 78, 64
2, 246048, Note_off_c, 0, 76, 64
2, 246176, Note_on_c, 0, 85, 100
2, 246176, Note_off_c, 0, 73, 64
2, 246176, Note_off_c, 0, 76, 64
2, 246176, Note_on_c, 0, 76, 100
2, 246176, Note_off_c, 0, 69, 64
2, 246304, Note_on_c, 0, 69, 100
2, 246304, Note_off_c, 0, 76, 64
2, 246304, Note_off_c, 0, 78, 64
2, 246304, Note_on_c, 0, 78, 100
2, 246304, Note_off_c, 0, 71, 64
2, 246304, Note_on_c, 0, 71, 100
2, 246496, Note_off_c, 0, 78, 64
2, 246496, Note_off_c, 0, 71, 64
2, 246560, Note_off_c, 0, 76, 64
2, 246560, Note_on_c, 0, 76, 100
2, 246560, Note_on_c, 0, 78, 100
2, 246560, Note_off_c, 0, 75, 64
2, 246560, Note_off_c, 0, 72, 64
2, 246560, Note_on_c, 0, 72, 100
2, 246560, Note_off_c, 0, 69, 64
2, 246560, Note_on_c, 0, 69, 100
2, 246688, Note_off_c, 0, 78, 64
2, 246688, Note_off_c, 0, 75, 64
2, 246688, Note_on_c, 0, 75, 100
2, 246816, Note_off_c, 0, 72, 64
2, 246816, Note_off_c, 0, 69, 64
2, 246816, Note_on_c, 0, 69, 100
2, 246816, Note_off_c, 0, 76, 64
2, 246816, Note_on_c, 0, 73, 100
2, 246944, Note_off_c, 0, 73, 64
2, 246944, Note_off_c, 0, 76, 64
2, 246944, Note_on_c, 0, 76, 100
2, 247008, Note_off_c, 0, 69, 64
2, 247072, Note_off_c, 0, 76, 64
2, 247072, Note_off_c, 0, 69, 64
2, 247072, Note_on_c, 0, 69, 100
2, 247072, Note_off_c, 0, 78, 64
2, 247072, Note_on_c, 0, 78, 100
2, 247072, Note_on_c, 0, 72, 100
2, 247072, Note_off_c, 0, 45, 64
2, 247072, Note_on_c, 0, 45, 100
2, 247200, Note_on_c, 0, 81, 100
2, 247200, Note_off_c, 0, 78, 64
2, 247200, Note_off_c, 0, 76, 64
2, 247200, Note_on_c, 0, 76, 100
2, 247200, Note_off_c, 0, 75, 64
2, 247200, Note_off_c, 0, 69, 64
2, 247328, Note_on_c, 0, 75, 100
2, 247328, Note_off_c, 0, 76, 64
2, 247328, Note_off_c, 0, 81, 64
2, 247328, Note_on_c, 0, 76, 100
2, 247328, Note_off_c, 0, 76, 64
2, 247456, Note_on_c, 0, 76, 100
2, 247456, Note_off_c, 0, 69, 64
2, 247456, Note_on_c, 0, 69, 100
2, 247584, Note_off_c, 0, 69, 64
2, 247584, Note_off_c, 0, 75, 64
2, 247584, Note_off_c, 0, 78, 64
2, 247584, Note_on_c, 0, 78, 100
2, 247584, Note_on_c, 0, 69, 100
2, 247584, Note_off_c, 0, 69, 64
2, 247712, Note_on_c, 0, 75, 100
2, 247712, Note_on_c, 0, 69, 100
2, 247712, Note_off_c, 0, 78, 64
2, 247712, Note_on_c, 0, 78, 100
2, 247840, Note_off_c, 0, 78, 64
2, 247840, Note_off_c, 0, 75, 64
2, 247840, Note_off_c, 0, 45, 64
2, 247840, Note_on_c, 0, 78, 100
2, 247840, Note_off_c, 0, 78, 64
2, 247840, Note_off_c, 0, 51, 64
2, 247840, Note_on_c, 0, 51, 100
2, 247968, Note_on_c, 0, 78, 100
2, 247968, Note_off_c, 0, 75, 64
2, 247968, Note_on_c, 0, 75, 100
2, 248032, Note_off_c, 0, 72, 64
2, 248032, Note_on_c, 0, 52, 100
2, 248096, Note_off_c, 0, 73, 64
2, 248096, Note_on_c, 0, 73, 100
2, 248096, Note_off_c, 0, 64, 64
2, 248096, Note_on_c, 0, 64, 100
2, 248096, Note_off_c, 0, 57, 64
2, 248096, Note_on_c, 0, 57, 100
2, 248352, Note_off_c, 0, 57, 64
2, 248352, Note_on_c, 0, 72, 100
2, 248352, Note_off_c, 0, 64, 64
2, 248352, Note_on_c, 0, 57, 100
2, 248352, Note_off_c, 0, 57, 64
2, 248352, Note_on_c, 0, 66, 100
2, 248352, Note_on_c, 0, 63, 100
2, 248352, Note_off_c, 0, 48, 64
2, 248352, Note_on_c, 0, 48, 100
2, 248480, Note_off_c, 0, 63, 64
2, 248480, Note_off_c, 0, 57, 64
2, 248480, Note_on_c, 0, 57, 100
2, 248608, Note_off_c, 0, 57, 64
2, 248608, Note_off_c, 0, 48, 64
2, 248608, Note_off_c, 0, 60, 64
2, 248608, Note_on_c, 0, 60, 100
2, 248736, Note_off_c, 0, 60, 64
2, 248736, Note_off_c, 0, 59, 64
2, 248736, Note_on_c, 0, 59, 100
2, 248864, Note_off_c, 0, 59, 64
2, 248864, Note_off_c, 0, 66, 64
2, 248864, Note_off_c, 0, 57, 64
2, 248864, Note_on_c, 0, 57, 100
2, 248864, Note_off_c, 0, 72, 64
2, 248864, Note_on_c, 0, 72, 100
2, 248992, Note_off_c, 0, 69, 64
2, 248992, Note_on_c, 0, 69, 100
2, 249120, Note_off_c, 0, 72, 64
2, 249120, Note_off_c, 0, 69, 64
2, 249120, Note_off_c, 0, 57, 64
2, 249120, Note_off_c, 0, 59, 64
2, 249120, Note_on_c, 0, 59, 100
2, 249120, Note_off_c, 0, 71, 64
2, 249120, Note_on_c, 0, 71, 100
2, 249248, Note_off_c, 0, 71, 64
2, 249248, Note_off_c, 0, 69, 64
2, 249248, Note_on_c, 0, 69, 100
2, 249312, Note_on_c, 0, 74, 100
2, 249312, Note_off_c, 0, 59, 64
2, 249376, Note_off_c, 0, 69, 64
2, 249376, Note_off_c, 0, 74, 64
2, 249376, Note_off_c, 0, 68, 64
2, 249376, Note_on_c, 0, 68, 100
2, 249376, Note_off_c, 0, 59, 64
2, 249376, Note_on_c, 0, 59, 100
2, 249632, Note_off_c, 0, 59, 64
2, 249632, Note_off_c, 0, 68, 64
2, 249632, Note_off_c, 0, 71, 64
2, 249632, Note_on_c, 0, 71, 100
2, 249632, Note_off_c, 0, 66, 64
2, 249632, Note_on_c, 0, 66, 100
2, 249760, Note_off_c, 0, 66, 64
2, 249760, Note_off_c, 0, 67, 64
2, 249760, Note_on_c, 0, 67, 100
2, 249760, Note_off_c, 0, 71, 64
2, 249888, Note_off_c, 0, 67, 64
2, 249888, Note_off_c, 0, 69, 64
2, 249888, Note_on_c, 0, 69, 100
2, 250016, Note_off_c, 0, 69, 64
2, 250016, Note_off_c, 0, 71, 64
2, 250016, Note_on_c, 0, 71, 100
2, 250080, Note_off_c, 0, 74, 64
2, 250080, Note_on_c, 0, 74, 100
2, 250144, Note_off_c, 0, 71, 64
2, 250144, Note_off_c, 0, 72, 64
2, 250144, Note_on_c, 0, 72, 100
2, 250144, Note_off_c, 0, 66, 64
2, 250144, Note_on_c, 0, 66, 100
2, 250272, Note_off_c, 0, 71, 64
2, 250272, Note_on_c, 0, 71, 100
2, 250272, Note_off_c, 0, 66, 64
2, 250400, Note_off_c, 0, 66, 64
2, 250400, Note_on_c, 0, 66, 100
2, 250400, Note_off_c, 0, 64, 64
2, 250400, Note_on_c, 0, 64, 100
2, 250528, Note_off_c, 0, 66, 64
2, 250528, Note_off_c, 0, 64, 64
2, 250528, Note_on_c, 0, 64, 100
2, 250656, Note_off_c, 0, 64, 64
2, 250656, Note_off_c, 0, 72, 64
2, 250656, Note_off_c, 0, 71, 64
2, 250656, Note_on_c, 0, 71, 100
2, 250784, Note_off_c, 0, 71, 64
2, 250784, Note_off_c, 0, 76, 64
2, 250784, Note_on_c, 0, 76, 100
2, 250912, Note_off_c, 0, 76, 64
2, 250912, Note_off_c, 0, 72, 64
2, 250912, Note_on_c, 0, 72, 100
2, 250912, Note_off_c, 0, 69, 64
2, 250912, Note_on_c, 0, 69, 100
2, 251040, Note_off_c, 0, 72, 64
2, 251040, Note_on_c, 0, 72, 100
2, 251040, Note_off_c, 0, 72, 64
2, 251168, Note_off_c, 0, 69, 64
2, 251168, Note_off_c, 0, 72, 64
2, 251168, Note_on_c, 0, 72, 100
2, 251168, Note_on_c, 0, 69, 100
2, 251168, Note_off_c, 0, 69, 64
2, 251296, Note_off_c, 0, 72, 64
2, 251296, Note_off_c, 0, 76, 64
2, 251296, Note_on_c, 0, 76, 100
2, 251424, Note_off_c, 0, 76, 64
2, 251424, Note_off_c, 0, 75, 64
2, 251424, Note_on_c, 0, 75, 100
2, 251424, Note_off_c, 0, 69, 64
2, 251424, Note_on_c, 0, 69, 100
2, 251552, Note_off_c, 0, 75, 64
2, 251552, Note_off_c, 0, 78, 64
2, 251552, Note_on_c, 0, 78, 100
2, 251680, Note_off_c, 0, 78, 64
2, 251680, Note_off_c, 0, 69, 64
2, 251680, Note_on_c, 0, 69, 100
2, 251680, Note_off_c, 0, 69, 64
2, 251808, Note_on_c, 0, 69, 100
2, 251808, Note_off_c, 0, 71, 64
2, 251808, Note_on_c, 0, 71, 100
2, 251936, Note_off_c, 0, 71, 64
2, 251936, Note_on_c, 0, 71, 100
2, 251936, Note_off_c, 0, 69, 64
2, 251936, Note_on_c, 0, 69, 100
2, 251936, Note_off_c, 0, 54, 64
2, 251936, Note_on_c, 0, 54, 100
2, 252064, Note_off_c, 0, 69, 64
2, 252064, Note_off_c, 0, 71, 64
2, 252064, Note_on_c, 0, 71, 100
2, 252192, Note_off_c, 0, 54, 64
2, 252192, Note_on_c, 0, 54, 100
2, 252192, Note_off_c, 0, 54, 64
2, 252192, Note_on_c, 0, 54, 100
2, 252192, Note_off_c, 0, 57, 64
2, 252192, Note_on_c, 0, 57, 100
2, 252320, Note_on_c, 0, 72, 100
2, 252320, Note_off_c, 0, 71, 64
2, 252320, Note_on_c, 0, 71, 100
2, 252448, Note_off_c, 0, 72, 64
2, 252448, Note_off_c, 0, 54, 64
2, 252448, Note_off_c, 0, 57, 64
2, 252448, Note_off_c, 0, 71, 64
2, 252448, Note_off_c, 0, 69, 64
2, 252448, Note_on_c, 0, 69, 100
2, 252448, Note_off_c, 0, 45, 64
2, 252448, Note_on_c, 0, 45, 100
2, 252576, Note_off_c, 0, 69, 64
2, 252576, Note_off_c, 0, 72, 64
2, 252576, Note_on_c, 0, 72, 100
2, 252704, Note_off_c, 0, 72, 64
2, 252704, Note_off_c, 0, 45, 64
2, 252704, Note_off_c, 0, 73, 64
2, 252704, Note_on_c, 0, 73, 100
2, 252704, Note_on_c, 0, 45, 100
2, 252704, Note_off_c, 0, 45, 64
2, 252832, Note_off_c, 0, 73, 64
2, 252832, Note_off_c, 0, 71, 64
2, 252832, Note_on_c, 0, 71, 100
2, 252960, Note_off_c, 0, 71, 64
2, 252960, Note_off_c, 0, 69, 64
2, 252960, Note_on_c, 0, 69, 100
2, 252960, Note_on_c, 0, 44, 100
2, 253088, Note_off_c, 0, 69, 64
2, 253088, Note_on_c, 0, 81, 100
2, 253088, Note_on_c, 0, 80, 100
2, 253216, Note_off_c, 0, 80, 64
2, 253216, Note_off_c, 0, 81, 64
2, 253216, Note_off_c, 0, 69, 64
2, 253216, Note_on_c, 0, 69, 100
2, 253344, Note_off_c, 0, 69, 64
2, 253344, Note_on_c, 0, 81, 100
2, 253472, Note_off_c, 0, 81, 64
2, 253472, Note_off_c, 0, 80, 64
2, 253472, Note_on_c, 0, 80, 100
2, 253472, Note_off_c, 0, 49, 64
2, 253472, Note_on_c, 0, 49, 100
2, 253472, Note_off_c, 0, 52, 64
2, 253472, Note_on_c, 0, 52, 100
2, 253600, Note_off_c, 0, 80, 64
2, 253600, Note_off_c, 0, 78, 64
2, 253600, Note_on_c, 0, 78, 100
2, 253728, Note_off_c, 0, 78, 64
2, 253728, Note_off_c, 0, 49, 64
2, 253728, Note_off_c, 0, 81, 64
2, 253728, Note_on_c, 0, 81, 100
2, 253856, Note_off_c, 0, 79, 64
2, 253856, Note_on_c, 0, 79, 100
2, 253984, Note_off_c, 0, 79, 64
2, 253984, Note_off_c, 0, 81, 64
2, 253984, Note_on_c, 0, 81, 100
2, 254112, Note_off_c, 0, 81, 64
2, 254112, Note_on_c, 0, 81, 100
2, 254240, Note_off_c, 0, 81, 64
2, 254240, Note_off_c, 0, 76, 64
2, 254240, Note_on_c, 0, 76, 100
2, 254240, Note_off_c, 0, 49, 64
2, 254240, Note_on_c, 0, 49, 100
2, 254368, Note_off_c, 0, 76, 64
2, 254368, Note_off_c, 0, 81, 64
2, 254368, Note_on_c, 0, 81, 100
2, 254496, Note_off_c, 0, 81, 64
2, 254496, Note_off_c, 0, 49, 64
2, 254496, Note_on_c, 0, 83, 100
2, 254496, Note_off_c, 0, 83, 64
2, 254496, Note_on_c, 0, 83, 100
2, 254624, Note_off_c, 0, 83, 64
2, 254624, Note_off_c, 0, 79, 64
2, 254624, Note_on_c, 0, 79, 100
2, 254624, Note_off_c, 0, 51, 64
2, 254624, Note_on_c, 0, 51, 100
2, 254752, Note_off_c, 0, 79, 64
2, 254752, Note_off_c, 0, 51, 64
2, 254752, Note_off_c, 0, 75, 64
2, 254752, Note_on_c, 0, 75, 100
2, 254752, Note_off_c, 0, 47, 64
2, 254752, Note_on_c, 0, 47, 100
2, 254752, Note_on_c, 0, 59, 100
2, 254880, Note_off_c, 0, 75, 64
2, 254880, Note_off_c, 0, 47, 64
2, 254880, Note_off_c, 0, 76, 64
2, 254880, Note_on_c, 0, 76, 100
2, 254880, Note_off_c, 0, 55, 64
2, 254880, Note_on_c, 0, 55, 100
2, 255008, Note_off_c, 0, 76, 64
2, 255008, Note_off_c, 0, 55, 64
2, 255008, Note_off_c, 0, 53, 64
2, 255008, Note_on_c, 0, 53, 100
2, 255008, Note_off_c, 0, 77, 64
2, 255008, Note_on_c, 0, 77, 100
2, 255136, Note_off_c, 0, 77, 64
2, 255136, Note_off_c, 0, 53, 64
2, 255136, Note_off_c, 0, 74, 64
2, 255136, Note_on_c, 0, 74, 100
2, 255136, Note_off_c, 0, 50, 64
2, 255136, Note_on_c, 0, 50, 100
2, 255264, Note_off_c, 0, 74, 64
2, 255264, Note_off_c, 0, 65, 64
2, 255264, Note_on_c, 0, 65, 100
2, 255264, Note_off_c, 0, 59, 64
2, 255264, Note_off_c, 0, 50, 64
2, 255392, Note_off_c, 0, 65, 64
2, 255392, Note_off_c, 0, 47, 64
2, 255392, Note_on_c, 0, 47, 100
2, 255520, Note_off_c, 0, 47, 64
2, 255520, Note_off_c, 0, 45, 64
2, 255520, Note_on_c, 0, 45, 100
2, 255648, Note_off_c, 0, 45, 64
2, 255648, Note_off_c, 0, 47, 64
2, 255648, Note_on_c, 0, 47, 100
2, 255776, Note_off_c, 0, 47, 64
2, 255776, Note_off_c, 0, 50, 64
2, 255776, Note_on_c, 0, 50, 100
2, 255904, Note_off_c, 0, 50, 64
2, 255904, Note_off_c, 0, 53, 64
2, 255904, Note_on_c, 0, 53, 100
2, 256032, Note_off_c, 0, 53, 64
2, 256032, Note_off_c, 0, 50, 64
2, 256032, Note_on_c, 0, 50, 100
2, 256160, Note_off_c, 0, 50, 64
2, 256160, Note_off_c, 0, 47, 64
2, 256160, Note_on_c, 0, 47, 100
2, 256288, Note_off_c, 0, 47, 64
2, 256288, Note_off_c, 0, 45, 64
2, 256288, Note_on_c, 0, 45, 100
2, 256416, Note_off_c, 0, 45, 64
2, 256416, Note_off_c, 0, 50, 64
2, 256416, Note_on_c, 0, 50, 100
2, 256544, Note_off_c, 0, 50, 64
2, 256544, Note_off_c, 0, 48, 64
2, 256544, Note_on_c, 0, 48, 100
2, 256672, Note_off_c, 0, 48, 64
2, 256672, Note_off_c, 0, 47, 64
2, 256672, Note_on_c, 0, 47, 100
2, 256800, Note_off_c, 0, 47, 64
2, 256800, Note_off_c, 0, 49, 64
2, 256800, Note_on_c, 0, 49, 100
2, 256928, Note_off_c, 0, 49, 64
2, 256928, Note_off_c, 0, 45, 64
2, 256928, Note_on_c, 0, 45, 100
2, 257056, Note_off_c, 0, 45, 64
2, 257056, Note_off_c, 0, 44, 64
2, 257056, Note_on_c, 0, 44, 100
2, 257184, Note_off_c, 0, 44, 64
2, 257184, Note_off_c, 0, 52, 64
2, 257184, Note_on_c, 0, 52, 100
2, 257312, Note_off_c, 0, 52, 64
2, 257312, Note_off_c, 0, 59, 64
2, 257312, Note_on_c, 0, 59, 100
2, 257440, Note_off_c, 0, 59, 64
2, 257440, Note_off_c, 0, 64, 64
2, 257440, Note_on_c, 0, 64, 100
2, 257568, Note_off_c, 0, 64, 64
2, 257568, Note_off_c, 0, 57, 64
2, 257568, Note_on_c, 0, 57, 100
2, 257696, Note_off_c, 0, 57, 64
2, 257696, Note_off_c, 0, 56, 64
2, 257696, Note_on_c, 0, 56, 100
2, 257824, Note_off_c, 0, 56, 64
2, 257824, Note_off_c, 0, 54, 64
2, 257824, Note_on_c, 0, 54, 100
2, 257952, Note_off_c, 0, 54, 64
2, 257952, Note_on_c, 0, 57, 100
2, 257952, Note_on_c, 0, 66, 100
2, 258080, Note_off_c, 0, 57, 64
2, 258080, Note_off_c, 0, 59, 64
2, 258080, Note_on_c, 0, 59, 100
2, 258208, Note_off_c, 0, 59, 64
2, 258208, Note_off_c, 0, 57, 64
2, 258208, Note_on_c, 0, 57, 100
2, 258336, Note_off_c, 0, 57, 64
2, 258336, Note_off_c, 0, 56, 64
2, 258336, Note_on_c, 0, 56, 100
2, 258464, Note_off_c, 0, 56, 64
2, 258464, Note_off_c, 0, 54, 64
2, 258464, Note_on_c, 0, 54, 100
2, 258592, Note_off_c, 0, 54, 64
2, 258592, Note_off_c, 0, 57, 64
2, 258592, Note_on_c, 0, 57, 100
2, 258720, Note_off_c, 0, 57, 64
2, 258720, Note_off_c, 0, 64, 64
2, 258720, Note_on_c, 0, 64, 100
2, 258848, Note_off_c, 0, 64, 64
2, 258848, Note_off_c, 0, 61, 64
2, 258848, Note_on_c, 0, 61, 100
2, 258976, Note_off_c, 0, 61, 64
2, 258976, Note_off_c, 0, 59, 64
2, 258976, Note_on_c, 0, 59, 100
2, 259104, Note_off_c, 0, 59, 64
2, 259104, Note_off_c, 0, 57, 64
2, 259104, Note_on_c, 0, 57, 100
2, 259232, Note_off_c, 0, 62, 64
2, 259232, Note_on_c, 0, 62, 100
2, 259296, Note_off_c, 0, 57, 64
2, 259360, Note_off_c, 0, 62, 64
2, 259360, Note_off_c, 0, 61, 64
2, 259360, Note_on_c, 0, 61, 100
2, 259360, Note_off_c, 0, 52, 64
2, 259360, Note_on_c, 0, 52, 100
2, 259488, Note_off_c, 0, 61, 64
2, 259488, Note_off_c, 0, 60, 64
2, 259488, Note_on_c, 0, 60, 100
2, 259552, Note_off_c, 0, 52, 64
2, 259616, Note_off_c, 0, 60, 64
2, 259616, Note_off_c, 0, 62, 64
2, 259616, Note_on_c, 0, 62, 100
2, 259616, Note_off_c, 0, 59, 64
2, 259616, Note_on_c, 0, 59, 100
2, 259744, Note_off_c, 0, 62, 64
2, 259744, Note_off_c, 0, 59, 64
2, 259744, Note_off_c, 0, 69, 64
2, 259744, Note_on_c, 0, 69, 100
2, 259744, Note_off_c, 0, 60, 64
2, 259744, Note_on_c, 0, 60, 100
2, 259872, Note_off_c, 0, 69, 64
2, 259872, Note_off_c, 0, 60, 64
2, 259872, Note_off_c, 0, 71, 64
2, 259872, Note_on_c, 0, 71, 100
2, 259872, Note_off_c, 0, 59, 64
2, 259872, Note_on_c, 0, 59, 100
2, 260000, Note_off_c, 0, 59, 64
2, 260000, Note_off_c, 0, 57, 64
2, 260000, Note_on_c, 0, 57, 100
2, 260128, Note_off_c, 0, 71, 64
2, 260128, Note_off_c, 0, 57, 64
2, 260128, Note_off_c, 0, 58, 64
2, 260128, Note_on_c, 0, 58, 100
2, 260128, Note_off_c, 0, 64, 64
2, 260128, Note_on_c, 0, 64, 100
2, 260256, Note_off_c, 0, 64, 64
2, 260256, Note_off_c, 0, 66, 64
2, 260256, Note_on_c, 0, 66, 100
2, 260384, Note_off_c, 0, 66, 64
2, 260384, Note_off_c, 0, 70, 64
2, 260384, Note_on_c, 0, 70, 100
2, 260384, Note_on_c, 0, 61, 100
2, 260384, Note_off_c, 0, 58, 64
2, 260384, Note_on_c, 0, 58, 100
2, 260512, Note_off_c, 0, 58, 64
2, 260512, Note_off_c, 0, 70, 64
2, 260512, Note_on_c, 0, 70, 100
2, 260512, Note_off_c, 0, 61, 64
2, 260512, Note_on_c, 0, 61, 100
2, 260640, Note_off_c, 0, 70, 64
2, 260640, Note_off_c, 0, 61, 64
2, 260640, Note_off_c, 0, 66, 64
2, 260640, Note_on_c, 0, 66, 100
2, 260640, Note_off_c, 0, 59, 64
2, 260640, Note_on_c, 0, 59, 100
2, 260768, Note_off_c, 0, 66, 64
2, 260768, Note_off_c, 0, 59, 64
2, 260768, Note_on_c, 0, 59, 100
2, 260768, Note_off_c, 0, 71, 64
2, 260768, Note_on_c, 0, 71, 100
2, 260896, Note_off_c, 0, 71, 64
2, 260896, Note_off_c, 0, 59, 64
2, 260896, Note_off_c, 0, 74, 64
2, 260896, Note_on_c, 0, 74, 100
2, 260896, Note_off_c, 0, 54, 64
2, 260896, Note_on_c, 0, 54, 100
2, 261024, Note_off_c, 0, 74, 64
2, 261024, Note_off_c, 0, 66, 64
2, 261024, Note_on_c, 0, 66, 100
2, 261024, Note_off_c, 0, 54, 64
2, 261152, Note_off_c, 0, 71, 64
2, 261152, Note_on_c, 0, 71, 100
2, 261152, Note_off_c, 0, 66, 64
2, 261152, Note_off_c, 0, 62, 64
2, 261152, Note_on_c, 0, 62, 100
2, 261152, Note_on_c, 0, 55, 100
2, 261152, Note_on_c, 0, 70, 100
2, 261280, Note_off_c, 0, 70, 64
2, 261280, Note_off_c, 0, 71, 64
2, 261280, Note_on_c, 0, 71, 100
2, 261408, Note_off_c, 0, 71, 64
2, 261408, Note_off_c, 0, 62, 64
2, 261408, Note_off_c, 0, 55, 64
2, 261408, Note_on_c, 0, 73, 100
2, 261408, Note_off_c, 0, 66, 64
2, 261408, Note_on_c, 0, 66, 100
2, 261536, Note_off_c, 0, 73, 64
2, 261536, Note_on_c, 0, 73, 100
2, 261536, Note_off_c, 0, 71, 64
2, 261536, Note_on_c, 0, 71, 100
2, 261664, Note_off_c, 0, 66, 64
2, 261664, Note_off_c, 0, 50, 64
2, 261664, Note_on_c, 0, 50, 100
2, 261728, Note_off_c, 0, 69, 64
2, 261728, Note_on_c, 0, 69, 100
2, 261792, Note_off_c, 0, 71, 64
2, 261792, Note_off_c, 0, 73, 64
2, 261792, Note_on_c, 0, 73, 100
2, 261856, Note_off_c, 0, 74, 64
2, 261856, Note_on_c, 0, 74, 100
2, 261920, Note_off_c, 0, 74, 64
2, 261920, Note_on_c, 0, 74, 100
2, 261984, Note_off_c, 0, 69, 64
2, 261984, Note_off_c, 0, 73, 64
2, 261984, Note_on_c, 0, 73, 100
2, 262048, Note_off_c, 0, 74, 64
2, 262048, Note_on_c, 0, 74, 100
2, 262112, Note_off_c, 0, 50, 64
2, 262112, Note_off_c, 0, 74, 64
2, 262112, Note_off_c, 0, 73, 64
2, 262112, Note_on_c, 0, 73, 100
2, 262176, Note_off_c, 0, 74, 64
2, 262176, Note_on_c, 0, 74, 100
2, 262240, Note_off_c, 0, 73, 64
2, 262240, Note_on_c, 0, 73, 100
2, 262304, Note_off_c, 0, 74, 64
2, 262304, Note_on_c, 0, 74, 100
2, 262304, Note_off_c, 0, 73, 64
2, 262304, Note_on_c, 0, 73, 100
2, 262368, Note_off_c, 0, 74, 64
2, 262432, Note_off_c, 0, 73, 64
2, 262432, Note_on_c, 0, 73, 100
2, 262432, Note_off_c, 0, 74, 64
2, 262432, Note_on_c, 0, 74, 100
2, 262496, Note_off_c, 0, 73, 64
2, 262496, Note_on_c, 0, 73, 100
2, 262560, Note_off_c, 0, 74, 64
2, 262560, Note_on_c, 0, 74, 100
2, 262560, Note_off_c, 0, 66, 64
2, 262560, Note_on_c, 0, 66, 100
2, 262688, Note_off_c, 0, 74, 64
2, 262688, Note_on_c, 0, 74, 100
2, 262688, Note_off_c, 0, 66, 64
2, 262688, Note_on_c, 0, 61, 100
2, 262688, Note_on_c, 0, 83, 100
2, 262816, Note_off_c, 0, 74, 64
2, 262816, Note_off_c, 0, 76, 64
2, 262816, Note_on_c, 0, 76, 100
2, 262816, Note_off_c, 0, 61, 64
2, 262816, Note_on_c, 0, 61, 100
2, 262880, Note_off_c, 0, 61, 64
2, 262944, Note_off_c, 0, 66, 64
2, 262944, Note_off_c, 0, 74, 64
2, 262944, Note_on_c, 0, 74, 100
2, 262944, Note_off_c, 0, 76, 64
2, 262944, Note_on_c, 0, 66, 100
2, 262944, Note_off_c, 0, 62, 64
2, 262944, Note_on_c, 0, 62, 100
2, 263008, Note_off_c, 0, 62, 64
2, 263072, Note_off_c, 0, 74, 64
2, 263072, Note_on_c, 0, 74, 100
2, 263072, Note_off_c, 0, 71, 64
2, 263072, Note_on_c, 0, 71, 100
2, 263072, Note_off_c, 0, 59, 64
2, 263072, Note_on_c, 0, 59, 100
2, 263200, Note_off_c, 0, 71, 64
2, 263200, Note_off_c, 0, 59, 64
2, 263200, Note_on_c, 0, 71, 100
2, 263200, Note_off_c, 0, 74, 64
2, 263200, Note_off_c, 0, 76, 64
2, 263200, Note_on_c, 0, 76, 100
2, 263200, Note_off_c, 0, 73, 64
2, 263200, Note_on_c, 0, 73, 100
2, 263200, Note_off_c, 0, 57, 64
2, 263200, Note_on_c, 0, 57, 100
2, 263328, Note_off_c, 0, 76, 64
2, 263328, Note_off_c, 0, 62, 64
2, 263328, Note_on_c, 0, 62, 100
2, 263328, Note_off_c, 0, 71, 64
2, 263328, Note_off_c, 0, 73, 64
2, 263328, Note_on_c, 0, 69, 100
2, 263456, Note_off_c, 0, 57, 64
2, 263456, Note_off_c, 0, 74, 64
2, 263456, Note_on_c, 0, 74, 100
2, 263456, Note_off_c, 0, 59, 64
2, 263456, Note_on_c, 0, 59, 100
2, 263584, Note_off_c, 0, 62, 64
2, 263584, Note_off_c, 0, 59, 64
2, 263584, Note_on_c, 0, 71, 100
2, 263584, Note_off_c, 0, 74, 64
2, 263648, Note_off_c, 0, 69, 64
2, 263712, Note_off_c, 0, 74, 64
2, 263712, Note_on_c, 0, 74, 100
2, 263712, Note_off_c, 0, 69, 64
2, 263712, Note_on_c, 0, 69, 100
2, 263776, Note_off_c, 0, 74, 64
2, 263776, Note_off_c, 0, 71, 64
2, 263776, Note_on_c, 0, 71, 100
2, 263840, Note_off_c, 0, 69, 64
2, 263904, Note_off_c, 0, 71, 64
2, 263968, Note_off_c, 0, 69, 64
2, 263968, Note_on_c, 0, 69, 100
2, 263968, Note_off_c, 0, 62, 64
2, 263968, Note_on_c, 0, 62, 100
2, 264032, Note_off_c, 0, 69, 64
2, 264032, Note_on_c, 0, 69, 100
2, 264096, Note_off_c, 0, 69, 64
2, 264160, Note_off_c, 0, 62, 64
2, 264224, Note_off_c, 0, 67, 64
2, 264224, Note_on_c, 0, 67, 100
2, 264288, Note_off_c, 0, 67, 64
2, 264288, Note_off_c, 0, 69, 64
2, 264288, Note_on_c, 0, 69, 100
2, 264352, Note_on_c, 0, 67, 100
2, 264352, Note_off_c, 0, 67, 64
2, 264352, Note_on_c, 0, 67, 100
2, 264480, Note_off_c, 0, 66, 64
2, 264480, Note_on_c, 0, 66, 100
2, 264480, Note_off_c, 0, 62, 64
2, 264480, Note_on_c, 0, 62, 100
2, 264544, Note_off_c, 0, 67, 64
2, 264544, Note_off_c, 0, 66, 64
2, 264608, Note_off_c, 0, 62, 64
2, 264608, Note_off_c, 0, 66, 64
2, 264608, Note_on_c, 0, 66, 100
2, 264608, Note_on_c, 0, 57, 100
2, 264608, Note_on_c, 0, 62, 100
2, 264736, Note_off_c, 0, 66, 64
2, 264736, Note_off_c, 0, 74, 64
2, 264736, Note_on_c, 0, 74, 100
2, 264736, Note_off_c, 0, 62, 64
2, 264736, Note_on_c, 0, 62, 100
2, 264800, Note_off_c, 0, 62, 64
2, 264864, Note_off_c, 0, 57, 64
2, 264864, Note_on_c, 0, 57, 100
2, 264864, Note_off_c, 0, 74, 64
2, 264864, Note_off_c, 0, 73, 64
2, 264864, Note_on_c, 0, 73, 100
2, 264928, Note_off_c, 0, 57, 64
2, 264928, Note_on_c, 0, 74, 100
2, 264992, Note_off_c, 0, 74, 64
2, 264992, Note_off_c, 0, 73, 64
2, 264992, Note_off_c, 0, 55, 64
2, 264992, Note_on_c, 0, 55, 100
2, 265056, Note_off_c, 0, 59, 64
2, 265056, Note_on_c, 0, 59, 100
2, 265120, Note_off_c, 0, 55, 64
2, 265120, Note_on_c, 0, 73, 100
2, 265120, Note_on_c, 0, 74, 100
2, 265120, Note_off_c, 0, 59, 64
2, 265120, Note_on_c, 0, 55, 100
2, 265184, Note_off_c, 0, 54, 64
2, 265184, Note_off_c, 0, 71, 64
2, 265184, Note_on_c, 0, 71, 100
2, 265184, Note_on_c, 0, 54, 100
2, 265184, Note_off_c, 0, 74, 64
2, 265184, Note_off_c, 0, 75, 64
2, 265184, Note_on_c, 0, 75, 100
2, 265248, Note_off_c, 0, 55, 64
2, 265248, Note_off_c, 0, 76, 64
2, 265248, Note_on_c, 0, 76, 100
2, 265248, Note_off_c, 0, 72, 64
2, 265248, Note_on_c, 0, 72, 100
2, 265248, Note_on_c, 0, 55, 100
2, 265248, Note_off_c, 0, 55, 64
2, 265376, Note_off_c, 0, 71, 64
2, 265376, Note_on_c, 0, 55, 100
2, 265376, Note_off_c, 0, 76, 64
2, 265376, Note_on_c, 0, 67, 100
2, 265376, Note_off_c, 0, 52, 64
2, 265376, Note_on_c, 0, 52, 100
2, 265440, Note_off_c, 0, 67, 64
2, 265504, Note_off_c, 0, 72, 64
2, 265504, Note_off_c, 0, 52, 64
2, 265504, Note_on_c, 0, 71, 100
2, 265504, Note_off_c, 0, 55, 64
2, 265504, Note_off_c, 0, 62, 64
2, 265504, Note_on_c, 0, 62, 100
2, 265504, Note_on_c, 0, 67, 100
2, 265504, Note_on_c, 0, 76, 100
2, 265504, Note_on_c, 0, 72, 100
2, 265504, Note_off_c, 0, 72, 64
2, 265568, Note_off_c, 0, 76, 64
2, 265632, Note_off_c, 0, 88, 64
2, 265632, Note_off_c, 0, 72, 64
2, 265632, Note_on_c, 0, 72, 100
2, 265632, Note_off_c, 0, 62, 64
2, 265632, Note_off_c, 0, 60, 64
2, 265632, Note_on_c, 0, 60, 100
2, 265632, Note_on_c, 0, 57, 100
2, 265632, Note_on_c, 0, 63, 100
2, 265632, Note_off_c, 0, 57, 64
2, 265632, Note_on_c, 0, 57, 100
2, 265760, Note_off_c, 0, 63, 64
2, 265760, Note_off_c, 0, 66, 64
2, 265760, Note_on_c, 0, 66, 100
2, 265760, Note_off_c, 0, 57, 64
2, 265760, Note_off_c, 0, 54, 64
2, 265760, Note_on_c, 0, 54, 100
2, 265760, Note_on_c, 0, 57, 100
2, 265760, Note_on_c, 0, 63, 100
2, 265760, Note_off_c, 0, 63, 64
2, 265760, Note_off_c, 0, 57, 64
2, 265760, Note_off_c, 0, 60, 64
2, 265888, Note_off_c, 0, 66, 64
2, 265888, Note_on_c, 0, 63, 100
2, 265888, Note_on_c, 0, 57, 100
2, 265952, Note_on_c, 0, 60, 100
2, 266016, Note_off_c, 0, 69, 64
2, 266016, Note_on_c, 0, 69, 100
2, 266016, Note_off_c, 0, 54, 64
2, 266016, Note_on_c, 0, 54, 100
2, 266016, Note_off_c, 0, 66, 64
2, 266016, Note_on_c, 0, 66, 100
2, 266016, Note_off_c, 0, 72, 64
2, 266016, Note_off_c, 0, 55, 64
2, 266016, Note_on_c, 0, 55, 100
2, 266016, Note_off_c, 0, 71, 64
2, 266016, Note_on_c, 0, 71, 100
2, 266080, Note_off_c, 0, 74, 64
2, 266080, Note_on_c, 0, 74, 100
2, 266144, Note_off_c, 0, 64, 64
2, 266144, Note_on_c, 0, 64, 100
2, 266144, Note_off_c, 0, 54, 64
2, 266144, Note_off_c, 0, 69, 64
2, 266144, Note_off_c, 0, 66, 64
2, 266144, Note_on_c, 0, 66, 100
2, 266144, Note_off_c, 0, 78, 64
2, 266144, Note_on_c, 0, 78, 100
2, 266144, Note_off_c, 0, 74, 64
2, 266208, Note_off_c, 0, 66, 64
2, 266208, Note_off_c, 0, 62, 64
2, 266208, Note_on_c, 0, 62, 100
2, 266272, Note_on_c, 0, 70, 100
2, 266272, Note_off_c, 0, 64, 64
2, 266272, Note_on_c, 0, 64, 100
2, 266272, Note_off_c, 0, 55, 64
2, 266272, Note_on_c, 0, 55, 100
2, 266272, Note_off_c, 0, 70, 64
2, 266272, Note_on_c, 0, 70, 100
2, 266272, Note_off_c, 0, 74, 64
2, 266272, Note_on_c, 0, 74, 100
2, 266400, Note_off_c, 0, 70, 64
2, 266400, Note_off_c, 0, 74, 64
2, 266400, Note_off_c, 0, 64, 64
2, 266400, Note_off_c, 0, 55, 64
2, 266400, Note_off_c, 0, 69, 64
2, 266400, Note_on_c, 0, 69, 100
2, 266400, Note_off_c, 0, 60, 64
2, 266400, Note_off_c, 0, 57, 64
2, 266528, Note_on_c, 0, 60, 100
2, 266528, Note_off_c, 0, 69, 64
2, 266528, Note_off_c, 0, 71, 64
2, 266528, Note_on_c, 0, 71, 100
2, 266528, Note_off_c, 0, 62, 64
2, 266528, Note_on_c, 0, 62, 100
2, 266528, Note_off_c, 0, 57, 64
2, 266528, Note_on_c, 0, 57, 100
2, 266528, Note_on_c, 0, 66, 100
2, 266528, Note_off_c, 0, 67, 64
2, 266528, Note_on_c, 0, 67, 100
2, 266656, Note_off_c, 0, 71, 64
2, 266656, Note_off_c, 0, 57, 64
2, 266656, Note_off_c, 0, 72, 64
2, 266656, Note_on_c, 0, 72, 100
2, 266656, Note_off_c, 0, 62, 64
2, 266656, Note_on_c, 0, 57, 100
2, 266656, Note_off_c, 0, 57, 64
2, 266656, Note_off_c, 0, 66, 64
2, 266656, Note_off_c, 0, 65, 64
2, 266656, Note_on_c, 0, 65, 100
2, 266656, Note_off_c, 0, 67, 64
2, 266784, Note_off_c, 0, 57, 64
2, 266784, Note_off_c, 0, 65, 64
2, 266784, Note_off_c, 0, 55, 64
2, 266784, Note_off_c, 0, 72, 64
2, 266784, Note_on_c, 0, 69, 100
2, 266784, Note_on_c, 0, 55, 100
2, 266784, Note_on_c, 0, 57, 100
2, 266784, Note_on_c, 0, 67, 100
2, 266784, Note_on_c, 0, 74, 100
2, 266784, Note_off_c, 0, 71, 64
2, 266784, Note_on_c, 0, 71, 100
2, 266784, Note_on_c, 0, 43, 100
2, 266848, Note_off_c, 0, 64, 64
2, 266848, Note_on_c, 0, 64, 100
2, 266912, Note_off_c, 0, 55, 64
2, 266912, Note_on_c, 0, 55, 100
2, 266912, Note_off_c, 0, 71, 64
2, 266912, Note_off_c, 0, 43, 64
2, 266912, Note_on_c, 0, 45, 100
2, 266912, Note_off_c, 0, 65, 64
2, 266912, Note_on_c, 0, 65, 100
2, 266976, Note_off_c, 0, 74, 64
2, 266976, Note_on_c, 0, 74, 100
2, 267040, Note_off_c, 0, 55, 64
2, 267040, Note_off_c, 0, 45, 64
2, 267040, Note_off_c, 0, 76, 64
2, 267040, Note_on_c, 0, 76, 100
2, 267040, Note_off_c, 0, 74, 64
2, 267040, Note_on_c, 0, 50, 100
2, 267040, Note_off_c, 0, 50, 64
2, 267040, Note_on_c, 0, 50, 100
2, 267040, Note_on_c, 0, 71, 100
2, 267040, Note_off_c, 0, 69, 64
2, 267040, Note_on_c, 0, 69, 100
2, 267040, Note_off_c, 0, 62, 64
2, 267040, Note_on_c, 0, 62, 100
2, 267168, Note_on_c, 0, 59, 100
2, 267168, Note_off_c, 0, 50, 64
2, 267168, Note_off_c, 0, 76, 64
2, 267168, Note_on_c, 0, 47, 100
2, 267168, Note_on_c, 0, 79, 100
2, 267168, Note_on_c, 0, 48, 100
2, 267168, Note_off_c, 0, 69, 64
2, 267168, Note_off_c, 0, 64, 64
2, 267168, Note_off_c, 0, 48, 64
2, 267168, Note_off_c, 0, 60, 64
2, 267168, Note_on_c, 0, 60, 100
2, 267168, Note_on_c, 0, 48, 100
2, 267168, Note_on_c, 0, 69, 100
2, 267168, Note_off_c, 0, 62, 64
2, 267168, Note_off_c, 0, 77, 64
2, 267168, Note_on_c, 0, 77, 100
2, 267296, Note_off_c, 0, 79, 64
2, 267296, Note_on_c, 0, 72, 100
2, 267296, Note_on_c, 0, 81, 100
2, 267296, Note_off_c, 0, 77, 64
2, 267360, Note_off_c, 0, 69, 64
2, 267360, Note_on_c, 0, 64, 100
2, 267360, Note_on_c, 0, 77, 100
2, 267424, Note_off_c, 0, 71, 64
2, 267424, Note_off_c, 0, 60, 64
2, 267424, Note_off_c, 0, 76, 64
2, 267424, Note_on_c, 0, 76, 100
2, 267488, Note_off_c, 0, 48, 64
2, 267488, Note_off_c, 0, 81, 64
2, 267488, Note_on_c, 0, 81, 100
2, 267488, Note_off_c, 0, 81, 64
2, 267488, Note_off_c, 0, 76, 64
2, 267488, Note_off_c, 0, 74, 64
2, 267488, Note_on_c, 0, 74, 100
2, 267488, Note_off_c, 0, 47, 64
2, 267488, Note_on_c, 0, 47, 100
2, 267488, Note_off_c, 0, 77, 64
2, 267488, Note_on_c, 0, 77, 100
2, 267552, Note_off_c, 0, 77, 64
2, 267552, Note_off_c, 0, 83, 64
2, 267552, Note_off_c, 0, 84, 64
2, 267552, Note_on_c, 0, 84, 100
2, 267552, Note_off_c, 0, 81, 64
2, 267552, Note_on_c, 0, 81, 100
2, 267616, Note_off_c, 0, 79, 64
2, 267616, Note_on_c, 0, 79, 100
2, 267616, Note_on_c, 0, 77, 100
2, 267616, Note_off_c, 0, 74, 64
2, 267680, Note_off_c, 0, 79, 64
2, 267680, Note_off_c, 0, 84, 64
2, 267680, Note_off_c, 0, 86, 64
2, 267680, Note_on_c, 0, 86, 100
2, 267680, Note_off_c, 0, 81, 64
2, 267680, Note_off_c, 0, 77, 64
2, 267744, Note_on_c, 0, 74, 100
2, 267744, Note_on_c, 0, 77, 100
2, 267744, Note_off_c, 0, 76, 64
2, 267744, Note_on_c, 0, 76, 100
2, 267744, Note_off_c, 0, 72, 64
2, 267744, Note_on_c, 0, 72, 100
2, 267808, Note_off_c, 0, 77, 64
2, 267808, Note_on_c, 0, 77, 100
2, 267808, Note_off_c, 0, 84, 64
2, 267808, Note_on_c, 0, 84, 100
2, 267872, Note_off_c, 0, 81, 64
2, 267872, Note_off_c, 0, 77, 64
2, 267872, Note_off_c, 0, 86, 64
2, 267872, Note_on_c, 0, 86, 100
2, 267872, Note_on_c, 0, 81, 100
2, 267936, Note_off_c, 0, 76, 64
2, 267936, Note_on_c, 0, 76, 100
2, 268064, Note_on_c, 0, 83, 100
2, 268064, Note_off_c, 0, 86, 64
2, 268064, Note_off_c, 0, 81, 64
2, 268064, Note_on_c, 0, 81, 100
2, 268128, Note_on_c, 0, 77, 100
2, 268128, Note_off_c, 0, 47, 64
2, 268192, Note_off_c, 0, 60, 64
2, 268192, Note_on_c, 0, 60, 100
2, 268192, Note_off_c, 0, 81, 64
2, 268192, Note_off_c, 0, 48, 64
2, 268192, Note_on_c, 0, 48, 100
2, 268192, Note_off_c, 0, 74, 64
2, 268192, Note_on_c, 0, 74, 100
2, 268192, Note_off_c, 0, 71, 64
2, 268192, Note_on_c, 0, 71, 100
2, 268192, Note_on_c, 0, 81, 100
2, 268192, Note_off_c, 0, 81, 64
2, 268192, Note_off_c, 0, 74, 64
2, 268192, Note_off_c, 0, 65, 64
2, 268192, Note_off_c, 0, 76, 64
2, 268192, Note_on_c, 0, 76, 100
2, 268192, Note_on_c, 0, 65, 100
2, 268192, Note_off_c, 0, 59, 64
2, 268192, Note_off_c, 0, 83, 64
2, 268320, Note_off_c, 0, 60, 64
2, 268320, Note_on_c, 0, 81, 100
2, 268320, Note_off_c, 0, 71, 64
2, 268320, Note_off_c, 0, 65, 64
2, 268320, Note_off_c, 0, 76, 64
2, 268320, Note_on_c, 0, 47, 100
2, 268320, Note_off_c, 0, 59, 64
2, 268320, Note_on_c, 0, 59, 100
2, 268320, Note_off_c, 0, 47, 64
2, 268320, Note_on_c, 0, 47, 100
2, 268320, Note_on_c, 0, 71, 100
2, 268320, Note_off_c, 0, 67, 64
2, 268320, Note_on_c, 0, 67, 100
2, 268448, Note_off_c, 0, 71, 64
2, 268448, Note_off_c, 0, 67, 64
2, 268448, Note_on_c, 0, 65, 100
2, 268576, Note_off_c, 0, 59, 64
2, 268576, Note_off_c, 0, 65, 64
2, 268576, Note_on_c, 0, 76, 100
2, 268576, Note_off_c, 0, 67, 64
2, 268576, Note_off_c, 0, 76, 64
2, 268576, Note_off_c, 0, 64, 64
2, 268576, Note_on_c, 0, 64, 100
2, 268576, Note_off_c, 0, 48, 64
2, 268576, Note_on_c, 0, 48, 100
2, 268576, Note_on_c, 0, 76, 100
2, 268576, Note_off_c, 0, 72, 64
2, 268576, Note_on_c, 0, 67, 100
2, 268576, Note_on_c, 0, 72, 100
2, 268576, Note_on_c, 0, 55, 100
2, 268576, Note_on_c, 0, 79, 100
2, 268576, Note_off_c, 0, 52, 64
2, 268576, Note_on_c, 0, 52, 100
2, 268640, Note_off_c, 0, 64, 64
2, 268640, Note_off_c, 0, 76, 64
2, 268640, Note_off_c, 0, 67, 64
2, 268640, Note_on_c, 0, 67, 100
2, 268704, Note_off_c, 0, 55, 64
2, 268704, Note_off_c, 0, 72, 64
2, 268704, Note_on_c, 0, 72, 100
2, 268704, Note_off_c, 0, 64, 64
2, 268704, Note_on_c, 0, 64, 100
2, 268704, Note_off_c, 0, 48, 64
2, 268704, Note_on_c, 0, 48, 100
2, 268704, Note_off_c, 0, 67, 64
2, 268704, Note_on_c, 0, 67, 100
2, 268704, Note_off_c, 0, 59, 64
2, 268704, Note_on_c, 0, 59, 100
2, 268704, Note_on_c, 0, 55, 100
2, 268704, Note_off_c, 0, 55, 64
2, 268768, Note_off_c, 0, 79, 64
2, 268768, Note_on_c, 0, 55, 100
2, 268768, Note_off_c, 0, 72, 64
2, 268832, Note_off_c, 0, 64, 64
2, 268832, Note_off_c, 0, 48, 64
2, 268832, Note_on_c, 0, 60, 100
2, 268832, Note_off_c, 0, 55, 64
2, 268832, Note_off_c, 0, 67, 64
2, 268832, Note_off_c, 0, 52, 64
2, 268832, Note_off_c, 0, 40, 64
2, 268832, Note_on_c, 0, 40, 100
2, 268832, Note_off_c, 0, 66, 64
2, 268832, Note_on_c, 0, 66, 100
2, 268832, Note_off_c, 0, 72, 64
2, 268832, Note_on_c, 0, 72, 100
2, 268832, Note_off_c, 0, 59, 64
2, 268832, Note_on_c, 0, 59, 100
2, 268832, Note_on_c, 0, 50, 100
2, 268960, Note_off_c, 0, 66, 64
2, 268960, Note_off_c, 0, 64, 64
2, 268960, Note_on_c, 0, 64, 100
2, 269024, Note_on_c, 0, 62, 100
2, 269024, Note_off_c, 0, 59, 64
2, 269024, Note_off_c, 0, 50, 64
2, 269024, Note_on_c, 0, 52, 100
2, 269088, Note_on_c, 0, 67, 100
2, 269088, Note_off_c, 0, 72, 64
2, 269088, Note_off_c, 0, 64, 64
2, 269088, Note_off_c, 0, 60, 64
2, 269088, Note_on_c, 0, 60, 100
2, 269088, Note_off_c, 0, 40, 64
2, 269088, Note_on_c, 0, 40, 100
2, 269088, Note_off_c, 0, 40, 64
2, 269344, Note_off_c, 0, 60, 64
2, 269344, Note_off_c, 0, 72, 64
2, 269344, Note_on_c, 0, 72, 100
2, 269344, Note_off_c, 0, 67, 64
2, 269344, Note_on_c, 0, 67, 100
2, 269344, Note_on_c, 0, 60, 100
2, 269344, Note_off_c, 0, 60, 64
2, 269344, Note_off_c, 0, 40, 64
2, 269344, Note_on_c, 0, 40, 100
2, 269536, Note_off_c, 0, 67, 64
2, 269536, Note_on_c, 0, 59, 100
2, 269536, Note_on_c, 0, 55, 100
2, 269536, Note_off_c, 0, 40, 64
2, 269600, Note_off_c, 0, 66, 64
2, 269600, Note_on_c, 0, 66, 100
2, 269600, Note_off_c, 0, 62, 64
2, 269600, Note_on_c, 0, 62, 100
2, 269600, Note_on_c, 0, 50, 100
2, 269600, Note_off_c, 0, 50, 64
2, 269600, Note_on_c, 0, 50, 100
2, 269600, Note_off_c, 0, 50, 64
2, 269728, Note_off_c, 0, 66, 64
2, 269728, Note_off_c, 0, 60, 64
2, 269728, Note_on_c, 0, 60, 100
2, 269728, Note_off_c, 0, 69, 64
2, 269728, Note_on_c, 0, 69, 100
2, 269728, Note_on_c, 0, 50, 100
2, 269792, Note_on_c, 0, 70, 100
2, 269792, Note_off_c, 0, 69, 64
2, 269856, Note_off_c, 0, 62, 64
2, 269856, Note_off_c, 0, 60, 64
2, 269856, Note_off_c, 0, 57, 64
2, 269856, Note_on_c, 0, 57, 100
2, 269856, Note_off_c, 0, 57, 64
2, 269856, Note_off_c, 0, 50, 64
2, 269856, Note_on_c, 0, 50, 100
2, 269856, Note_on_c, 0, 62, 100
2, 269856, Note_off_c, 0, 55, 64
2, 269856, Note_on_c, 0, 55, 100
2, 270112, Note_off_c, 0, 69, 64
2, 270112, Note_on_c, 0, 69, 100
2, 270112, Note_on_c, 0, 54, 100
2, 270112, Note_on_c, 0, 60, 100
2, 270112, Note_on_c, 0, 48, 100
2, 270112, Note_off_c, 0, 55, 64
2, 270112, Note_off_c, 0, 57, 64
2, 270112, Note_on_c, 0, 57, 100
2, 270368, Note_off_c, 0, 69, 64
2, 270368, Note_off_c, 0, 62, 64
2, 270368, Note_on_c, 0, 55, 100
2, 270368, Note_off_c, 0, 48, 64
2, 270368, Note_off_c, 0, 67, 64
2, 270368, Note_on_c, 0, 67, 100
2, 270368, Note_on_c, 0, 64, 100
2, 270368, Note_off_c, 0, 57, 64
2, 270368, Note_off_c, 0, 55, 64
2, 270368, Note_off_c, 0, 72, 64
2, 270368, Note_off_c, 0, 74, 64
2, 270368, Note_on_c, 0, 55, 100
2, 270368, Note_off_c, 0, 50, 64
2, 270368, Note_on_c, 0, 50, 100
2, 270368, Note_on_c, 0, 74, 100
2, 270368, Note_on_c, 0, 62, 100
2, 270368, Note_off_c, 0, 62, 64
2, 270560, Note_off_c, 0, 64, 64
2, 270560, Note_on_c, 0, 64, 100
2, 270560, Note_on_c, 0, 62, 100
2, 270560, Note_off_c, 0, 50, 64
2, 270624, Note_off_c, 0, 64, 64
2, 270624, Note_off_c, 0, 67, 64
2, 270624, Note_off_c, 0, 48, 64
2, 270624, Note_on_c, 0, 64, 100
2, 270624, Note_on_c, 0, 69, 100
2, 270624, Note_on_c, 0, 57, 100
2, 270624, Note_off_c, 0, 55, 64
2, 270624, Note_on_c, 0, 48, 100
2, 270752, Note_off_c, 0, 64, 64
2, 270752, Note_on_c, 0, 55, 100
2, 270752, Note_off_c, 0, 52, 64
2, 270752, Note_off_c, 0, 48, 64
2, 270752, Note_off_c, 0, 59, 64
2, 270752, Note_on_c, 0, 59, 100
2, 270752, Note_on_c, 0, 50, 100
2, 270752, Note_on_c, 0, 65, 100
2, 270752, Note_on_c, 0, 66, 100
2, 270752, Note_off_c, 0, 62, 64
2, 270752, Note_off_c, 0, 50, 64
2, 270752, Note_on_c, 0, 50, 100
2, 271136, Note_off_c, 0, 59, 64
2, 271136, Note_off_c, 0, 57, 64
2, 271136, Note_on_c, 0, 57, 100
2, 271136, Note_off_c, 0, 66, 64
2, 271136, Note_off_c, 0, 67, 64
2, 271136, Note_on_c, 0, 67, 100
2, 271136, Note_off_c, 0, 60, 64
2, 271136, Note_off_c, 0, 57, 64
2, 271136, Note_off_c, 0, 50, 64
2, 271136, Note_on_c, 0, 50, 100
2, 271264, Note_on_c, 0, 62, 100
2, 271264, Note_off_c, 0, 50, 64
2, 271264, Note_off_c, 0, 67, 64
2, 271264, Note_off_c, 0, 48, 64
2, 271264, Note_on_c, 0, 48, 100
2, 271264, Note_off_c, 0, 64, 64
2, 271264, Note_on_c, 0, 64, 100
2, 271392, Note_off_c, 0, 64, 64
2, 271392, Note_off_c, 0, 48, 64
2, 271392, Note_off_c, 0, 62, 64
2, 271392, Note_on_c, 0, 67, 100
2, 271392, Note_off_c, 0, 72, 64
2, 271392, Note_on_c, 0, 72, 100
2, 271392, Note_off_c, 0, 50, 64
2, 271392, Note_on_c, 0, 50, 100
2, 271392, Note_off_c, 0, 60, 64
2, 271392, Note_on_c, 0, 60, 100
2, 271392, Note_off_c, 0, 55, 64
2, 271392, Note_on_c, 0, 55, 100
2, 271520, Note_off_c, 0, 72, 64
2, 271520, Note_off_c, 0, 55, 64
2, 271584, Note_off_c, 0, 74, 64
2, 271584, Note_on_c, 0, 74, 100
2, 271584, Note_off_c, 0, 60, 64
2, 271648, Note_off_c, 0, 50, 64
2, 271648, Note_off_c, 0, 62, 64
2, 271648, Note_on_c, 0, 62, 100
2, 271648, Note_off_c, 0, 59, 64
2, 271648, Note_on_c, 0, 59, 100
2, 271648, Note_off_c, 0, 67, 64
2, 271648, Note_on_c, 0, 67, 100
2, 271648, Note_off_c, 0, 52, 64
2, 271648, Note_on_c, 0, 52, 100
2, 271648, Note_off_c, 0, 60, 64
2, 271648, Note_on_c, 0, 60, 100
2, 271712, Note_off_c, 0, 74, 64
2, 271712, Note_off_c, 0, 62, 64
2, 271712, Note_on_c, 0, 62, 100
2, 271712, Note_off_c, 0, 60, 64
2, 271712, Note_off_c, 0, 52, 64
2, 271712, Note_off_c, 0, 59, 64
2, 271712, Note_on_c, 0, 59, 100
2, 271776, Note_off_c, 0, 67, 64
2, 271776, Note_off_c, 0, 69, 64
2, 271776, Note_on_c, 0, 69, 100
2, 271904, Note_off_c, 0, 69, 64
2, 271904, Note_off_c, 0, 67, 64
2, 271904, Note_on_c, 0, 67, 100
2, 271904, Note_off_c, 0, 59, 64
2, 271904, Note_off_c, 0, 62, 64
2, 271904, Note_on_c, 0, 50, 100
2, 271904, Note_off_c, 0, 50, 64
2, 271904, Note_on_c, 0, 50, 100
2, 271968, Note_off_c, 0, 74, 64
2, 271968, Note_on_c, 0, 74, 100
2, 271968, Note_off_c, 0, 67, 64
2, 271968, Note_on_c, 0, 62, 100
2, 272032, Note_on_c, 0, 67, 100
2, 272032, Note_off_c, 0, 67, 64
2, 272032, Note_off_c, 0, 50, 64
2, 272032, Note_on_c, 0, 67, 100
2, 272032, Note_off_c, 0, 62, 64
2, 272032, Note_off_c, 0, 60, 64
2, 272032, Note_on_c, 0, 60, 100
2, 272032, Note_off_c, 0, 52, 64
2, 272032, Note_on_c, 0, 52, 100
2, 272032, Note_off_c, 0, 69, 64
2, 272032, Note_on_c, 0, 69, 100
2, 272160, Note_off_c, 0, 52, 64
2, 272160, Note_off_c, 0, 60, 64
2, 272160, Note_off_c, 0, 69, 64
2, 272160, Note_on_c, 0, 50, 100
2, 272160, Note_off_c, 0, 50, 64
2, 272160, Note_off_c, 0, 67, 64
2, 272160, Note_on_c, 0, 62, 100
2, 272160, Note_on_c, 0, 50, 100
2, 272160, Note_on_c, 0, 52, 100
2, 272160, Note_off_c, 0, 52, 64
2, 272224, Note_off_c, 0, 66, 64
2, 272224, Note_on_c, 0, 66, 100
2, 272224, Note_on_c, 0, 52, 100
2, 272224, Note_off_c, 0, 50, 64
2, 272224, Note_on_c, 0, 50, 100
2, 272224, Note_off_c, 0, 78, 64
2, 272224, Note_on_c, 0, 78, 100
2, 272224, Note_off_c, 0, 62, 64
2, 272224, Note_on_c, 0, 62, 100
2, 272288, Note_off_c, 0, 62, 64
2, 272288, Note_off_c, 0, 66, 64
2, 272288, Note_on_c, 0, 62, 100
2, 272288, Note_off_c, 0, 52, 64
2, 272288, Note_on_c, 0, 52, 100
2, 272288, Note_off_c, 0, 78, 64
2, 272288, Note_off_c, 0, 74, 64
2, 272288, Note_off_c, 0, 67, 64
2, 272288, Note_on_c, 0, 67, 100
2, 272288, Note_off_c, 0, 52, 64
2, 272288, Note_on_c, 0, 52, 100
2, 272352, Note_on_c, 0, 74, 100
2, 272352, Note_on_c, 0, 76, 100
2, 272416, Note_off_c, 0, 74, 64
2, 272416, Note_on_c, 0, 74, 100
2, 272416, Note_off_c, 0, 78, 64
2, 272416, Note_on_c, 0, 78, 100
2, 272416, Note_off_c, 0, 76, 64
2, 272416, Note_on_c, 0, 76, 100
2, 272544, Note_off_c, 0, 76, 64
2, 272544, Note_off_c, 0, 74, 64
2, 272544, Note_on_c, 0, 74, 100
2, 272608, Note_off_c, 0, 67, 64
2, 272608, Note_off_c, 0, 52, 64
2, 272608, Note_off_c, 0, 74, 64
2, 272608, Note_off_c, 0, 50, 64
2, 272608, Note_on_c, 0, 50, 100
2, 272672, Note_off_c, 0, 78, 64
2, 272672, Note_on_c, 0, 78, 100
2, 272672, Note_off_c, 0, 69, 64
2, 272672, Note_on_c, 0, 69, 100
2, 272672, Note_off_c, 0, 62, 64
2, 272672, Note_on_c, 0, 62, 100
2, 272800, Note_off_c, 0, 62, 64
2, 272800, Note_off_c, 0, 50, 64
2, 272864, Note_off_c, 0, 78, 64
2, 272864, Note_on_c, 0, 78, 100
2, 272864, Note_off_c, 0, 69, 64
2, 272864, Note_on_c, 0, 51, 100
2, 272864, Note_off_c, 0, 51, 64
2, 272864, Note_on_c, 0, 51, 100
2, 272992, Note_off_c, 0, 78, 64
2, 272992, Note_off_c, 0, 66, 64
2, 272992, Note_on_c, 0, 66, 100
2, 273120, Note_on_c, 0, 74, 100
2, 273120, Note_off_c, 0, 66, 64
2, 273120, Note_on_c, 0, 52, 100
2, 273120, Note_off_c, 0, 76, 64
2, 273120, Note_on_c, 0, 76, 100
2, 273120, Note_off_c, 0, 67, 64
2, 273120, Note_on_c, 0, 67, 100
2, 273120, Note_on_c, 0, 57, 100
2, 273120, Note_off_c, 0, 59, 64
2, 273120, Note_on_c, 0, 59, 100
2, 273248, Note_off_c, 0, 76, 64
2, 273248, Note_off_c, 0, 66, 64
2, 273248, Note_on_c, 0, 66, 100
2, 273312, Note_on_c, 0, 76, 100
2, 273312, Note_off_c, 0, 67, 64
2, 273376, Note_off_c, 0, 59, 64
2, 273376, Note_off_c, 0, 76, 64
2, 273376, Note_on_c, 0, 76, 100
2, 273376, Note_off_c, 0, 66, 64
2, 273376, Note_on_c, 0, 67, 100
2, 273376, Note_off_c, 0, 74, 64
2, 273376, Note_on_c, 0, 74, 100
2, 273376, Note_off_c, 0, 71, 64
2, 273376, Note_on_c, 0, 71, 100
2, 273376, Note_off_c, 0, 57, 64
2, 273376, Note_on_c, 0, 57, 100
2, 273504, Note_off_c, 0, 74, 64
2, 273504, Note_off_c, 0, 71, 64
2, 273504, Note_off_c, 0, 73, 64
2, 273504, Note_on_c, 0, 73, 100
2, 273504, Note_on_c, 0, 64, 100
2, 273568, Note_off_c, 0, 74, 64
2, 273568, Note_on_c, 0, 74, 100
2, 273632, Note_off_c, 0, 76, 64
2, 273632, Note_off_c, 0, 73, 64
2, 273632, Note_off_c, 0, 64, 64
2, 273632, Note_on_c, 0, 73, 100
2, 273632, Note_on_c, 0, 76, 100
2, 273632, Note_on_c, 0, 64, 100
2, 273632, Note_off_c, 0, 61, 64
2, 273632, Note_on_c, 0, 61, 100
2, 273696, Note_off_c, 0, 57, 64
2, 273760, Note_off_c, 0, 64, 64
2, 273760, Note_on_c, 0, 64, 100
2, 273760, Note_off_c, 0, 66, 64
2, 273760, Note_on_c, 0, 66, 100
2, 273760, Note_off_c, 0, 61, 64
2, 273760, Note_off_c, 0, 57, 64
2, 273760, Note_on_c, 0, 57, 100
2, 273760, Note_off_c, 0, 76, 64
2, 273824, Note_off_c, 0, 74, 64
2, 273824, Note_on_c, 0, 74, 100
2, 273888, Note_off_c, 0, 74, 64
2, 273888, Note_off_c, 0, 73, 64
2, 273888, Note_on_c, 0, 73, 100
2, 273888, Note_off_c, 0, 66, 64
2, 273888, Note_off_c, 0, 54, 64
2, 273888, Note_on_c, 0, 54, 100
2, 273952, Note_off_c, 0, 74, 64
2, 273952, Note_on_c, 0, 74, 100
2, 273952, Note_off_c, 0, 71, 64
2, 273952, Note_on_c, 0, 71, 100
2, 274016, Note_off_c, 0, 71, 64
2, 274016, Note_on_c, 0, 71, 100
2, 274016, Note_off_c, 0, 66, 64
2, 274016, Note_on_c, 0, 66, 100
2, 274080, Note_on_c, 0, 53, 100
2, 274080, Note_off_c, 0, 66, 64
2, 274144, Note_off_c, 0, 69, 64
2, 274144, Note_on_c, 0, 69, 100
2, 274144, Note_off_c, 0, 62, 64
2, 274144, Note_on_c, 0, 62, 100
2, 274144, Note_off_c, 0, 71, 64
2, 274144, Note_on_c, 0, 71, 100
2, 274144, Note_off_c, 0, 40, 64
2, 274144, Note_on_c, 0, 40, 100
2, 274208, Note_off_c, 0, 74, 64
2, 274208, Note_off_c, 0, 71, 64
2, 274208, Note_on_c, 0, 74, 100
2, 274272, Note_on_c, 0, 68, 100
2, 274272, Note_off_c, 0, 64, 64
2, 274272, Note_on_c, 0, 64, 100
2, 274336, Note_off_c, 0, 71, 64
2, 274336, Note_off_c, 0, 74, 64
2, 274336, Note_on_c, 0, 71, 100
2, 274336, Note_off_c, 0, 64, 64
2, 274400, Note_off_c, 0, 71, 64
2, 274400, Note_on_c, 0, 71, 100
2, 274400, Note_off_c, 0, 68, 64
2, 274400, Note_on_c, 0, 68, 100
2, 274464, Note_off_c, 0, 64, 64
2, 274464, Note_on_c, 0, 64, 100
2, 274528, Note_off_c, 0, 62, 64
2, 274528, Note_off_c, 0, 59, 64
2, 274528, Note_on_c, 0, 59, 100
2, 274592, Note_off_c, 0, 68, 64
2, 274592, Note_on_c, 0, 68, 100
2, 274592, Note_off_c, 0, 59, 64
2, 274592, Note_off_c, 0, 52, 64
2, 274592, Note_on_c, 0, 45, 100
2, 274592, Note_off_c, 0, 76, 64
2, 274592, Note_on_c, 0, 76, 100
2, 274592, Note_off_c, 0, 74, 64
2, 274592, Note_on_c, 0, 74, 100
2, 274720, Note_off_c, 0, 74, 64
2, 274720, Note_off_c, 0, 71, 64
2, 274784, Note_off_c, 0, 69, 64
2, 274784, Note_on_c, 0, 69, 100
2, 274784, Note_off_c, 0, 57, 64
2, 274784, Note_on_c, 0, 57, 100
2, 274848, Note_off_c, 0, 76, 64
2, 274912, Note_off_c, 0, 69, 64
2, 274912, Note_on_c, 0, 69, 100
2, 274912, Note_off_c, 0, 57, 64
2, 274912, Note_on_c, 0, 57, 100
2, 275040, Note_off_c, 0, 81, 64
2, 275040, Note_on_c, 0, 81, 100
2, 275040, Note_off_c, 0, 57, 64
2, 275040, Note_on_c, 0, 57, 100
2, 275040, Note_off_c, 0, 69, 64
2, 275104, Note_on_c, 0, 69, 100
2, 275104, Note_off_c, 0, 72, 64
2, 275104, Note_on_c, 0, 72, 100
2, 275168, Note_off_c, 0, 73, 64
2, 275168, Note_off_c, 0, 83, 64
2, 275168, Note_on_c, 0, 83, 100
2, 275232, Note_off_c, 0, 63, 64
2, 275232, Note_off_c, 0, 57, 64
2, 275296, Note_off_c, 0, 61, 64
2, 275296, Note_on_c, 0, 61, 100
2, 275296, Note_on_c, 0, 59, 100
2, 275296, Note_on_c, 0, 57, 100
2, 275296, Note_off_c, 0, 45, 64
2, 275360, Note_off_c, 0, 75, 64
2, 275360, Note_on_c, 0, 60, 100
2, 275424, Note_off_c, 0, 76, 64
2, 275424, Note_on_c, 0, 76, 100
2, 275424, Note_off_c, 0, 61, 64
2, 275424, Note_on_c, 0, 61, 100
2, 275488, Note_off_c, 0, 57, 64
2, 275488, Note_off_c, 0, 64, 64
2, 275552, Note_off_c, 0, 61, 64
2, 275552, Note_off_c, 0, 64, 64
2, 275552, Note_on_c, 0, 64, 100
2, 275552, Note_off_c, 0, 60, 64
2, 275552, Note_on_c, 0, 45, 100
2, 275616, Note_off_c, 0, 64, 64
2, 275616, Note_on_c, 0, 64, 100
2, 275616, Note_on_c, 0, 60, 100
2, 275616, Note_off_c, 0, 64, 64
2, 275616, Note_on_c, 0, 64, 100
2, 275680, Note_off_c, 0, 64, 64
2, 275680, Note_on_c, 0, 64, 100
2, 275680, Note_off_c, 0, 62, 64
2, 275680, Note_on_c, 0, 62, 100
2, 275680, Note_off_c, 0, 78, 64
2, 275680, Note_on_c, 0, 78, 100
2, 275680, Note_off_c, 0, 84, 64
2, 275680, Note_off_c, 0, 86, 64
2, 275680, Note_on_c, 0, 86, 100
2, 275680, Note_off_c, 0, 83, 64
2, 275744, Note_on_c, 0, 84, 100
2, 275744, Note_off_c, 0, 83, 64
2, 275744, Note_on_c, 0, 83, 100
2, 275808, Note_off_c, 0, 62, 64
2, 275808, Note_off_c, 0, 83, 64
2, 275808, Note_on_c, 0, 83, 100
2, 275808, Note_off_c, 0, 74, 64
2, 275808, Note_on_c, 0, 74, 100
2, 275808, Note_on_c, 0, 66, 100
2, 275808, Note_off_c, 0, 66, 64
2, 275808, Note_on_c, 0, 66, 100
2, 275808, Note_off_c, 0, 67, 64
2, 275808, Note_on_c, 0, 67, 100
2, 275808, Note_off_c, 0, 40, 64
2, 275808, Note_on_c, 0, 40, 100
2, 275872, Note_off_c, 0, 66, 64
2, 275872, Note_off_c, 0, 67, 64
2, 275872, Note_off_c, 0, 60, 64
2, 275872, Note_on_c, 0, 60, 100
2, 275936, Note_off_c, 0, 59, 64
2, 275936, Note_off_c, 0, 60, 64
2, 275936, Note_on_c, 0, 55, 100
2, 276000, Note_off_c, 0, 81, 64
2, 276000, Note_on_c, 0, 81, 100
2, 276064, Note_off_c, 0, 74, 64
2, 276064, Note_on_c, 0, 60, 100
2, 276064, Note_off_c, 0, 55, 64
2, 276064, Note_off_c, 0, 64, 64
2, 276064, Note_on_c, 0, 64, 100
2, 276064, Note_off_c, 0, 81, 64
2, 276064, Note_off_c, 0, 79, 64
2, 276064, Note_on_c, 0, 79, 100
2, 276064, Note_off_c, 0, 59, 64
2, 276064, Note_on_c, 0, 59, 100
2, 276128, Note_off_c, 0, 81, 64
2, 276128, Note_on_c, 0, 81, 100
2, 276192, Note_off_c, 0, 40, 64
2, 276192, Note_off_c, 0, 55, 64
2, 276192, Note_on_c, 0, 55, 100
2, 276192, Note_off_c, 0, 83, 64
2, 276192, Note_off_c, 0, 79, 64
2, 276192, Note_on_c, 0, 79, 100
2, 276192, Note_off_c, 0, 81, 64
2, 276192, Note_on_c, 0, 81, 100
2, 276192, Note_off_c, 0, 81, 64
2, 276192, Note_on_c, 0, 81, 100
2, 276256, Note_off_c, 0, 76, 64
2, 276256, Note_on_c, 0, 76, 100
2, 276256, Note_off_c, 0, 55, 64
2, 276256, Note_off_c, 0, 64, 64
2, 276256, Note_on_c, 0, 64, 100
2, 276320, Note_off_c, 0, 64, 64
2, 276320, Note_off_c, 0, 66, 64
2, 276320, Note_on_c, 0, 66, 100
2, 276320, Note_on_c, 0, 64, 100
2, 276320, Note_off_c, 0, 57, 64
2, 276320, Note_on_c, 0, 57, 100
2, 276320, Note_off_c, 0, 81, 64
2, 276320, Note_on_c, 0, 81, 100
2, 276320, Note_off_c, 0, 79, 64
2, 276320, Note_off_c, 0, 64, 64
2, 276320, Note_off_c, 0, 59, 64
2, 276320, Note_on_c, 0, 59, 100
2, 276384, Note_off_c, 0, 57, 64
2, 276384, Note_on_c, 0, 57, 100
2, 276448, Note_off_c, 0, 57, 64
2, 276448, Note_on_c, 0, 64, 100
2, 276448, Note_on_c, 0, 62, 100
2, 276448, Note_off_c, 0, 59, 64
2, 276448, Note_on_c, 0, 59, 100
2, 276448, Note_off_c, 0, 59, 64
2, 276448, Note_off_c, 0, 47, 64
2, 276448, Note_on_c, 0, 47, 100
2, 276576, Note_on_c, 0, 57, 100
2, 276576, Note_off_c, 0, 60, 64
2, 276576, Note_on_c, 0, 60, 100
2, 276576, Note_off_c, 0, 62, 64
2, 276576, Note_off_c, 0, 66, 64
2, 276640, Note_off_c, 0, 45, 64
2, 276640, Note_on_c, 0, 45, 100
2, 276704, Note_off_c, 0, 55, 64
2, 276704, Note_on_c, 0, 55, 100
2, 276704, Note_on_c, 0, 48, 100
2, 276896, Note_off_c, 0, 60, 64
2, 276896, Note_off_c, 0, 55, 64
2, 276896, Note_off_c, 0, 48, 64
2, 276896, Note_off_c, 0, 59, 64
2, 276896, Note_on_c, 0, 59, 100
2, 276960, Note_off_c, 0, 54, 64
2, 276960, Note_on_c, 0, 54, 100
2, 276960, Note_off_c, 0, 59, 64
2, 277024, Note_off_c, 0, 54, 64
2, 277024, Note_on_c, 0, 54, 100
2, 277088, Note_off_c, 0, 45, 64
2, 277088, Note_on_c, 0, 45, 100
2, 277088, Note_off_c, 0, 57, 64
2, 277088, Note_on_c, 0, 57, 100
2, 277152, Note_off_c, 0, 45, 64
2, 277152, Note_off_c, 0, 47, 64
2, 277152, Note_on_c, 0, 55, 100
2, 277152, Note_off_c, 0, 57, 64
2, 277152, Note_off_c, 0, 54, 64
2, 277152, Note_on_c, 0, 38, 100
2, 277152, Note_off_c, 0, 64, 64
2, 277152, Note_on_c, 0, 64, 100
2, 277152, Note_off_c, 0, 35, 64
2, 277280, Note_off_c, 0, 64, 64
2, 277280, Note_off_c, 0, 66, 64
2, 277280, Note_on_c, 0, 66, 100
2, 277344, Note_on_c, 0, 54, 100
2, 277344, Note_on_c, 0, 47, 100
2, 277344, Note_on_c, 0, 35, 100
2, 277408, Note_off_c, 0, 66, 64
2, 277408, Note_off_c, 0, 71, 64
2, 277408, Note_on_c, 0, 71, 100
2, 277408, Note_off_c, 0, 35, 64
2, 277408, Note_off_c, 0, 63, 64
2, 277408, Note_on_c, 0, 63, 100
2, 277408, Note_off_c, 0, 55, 64
2, 277408, Note_on_c, 0, 55, 100
2, 277472, Note_off_c, 0, 54, 64
2, 277536, Note_off_c, 0, 55, 64
2, 277536, Note_off_c, 0, 56, 64
2, 277536, Note_on_c, 0, 56, 100
2, 277536, Note_on_c, 0, 35, 100
2, 277536, Note_off_c, 0, 71, 64
2, 277536, Note_off_c, 0, 63, 64
2, 277600, Note_off_c, 0, 56, 64
2, 277600, Note_off_c, 0, 57, 64
2, 277600, Note_on_c, 0, 57, 100
2, 277664, Note_off_c, 0, 57, 64
2, 277664, Note_off_c, 0, 55, 64
2, 277664, Note_on_c, 0, 55, 100
2, 277664, Note_on_c, 0, 63, 100
2, 277664, Note_on_c, 0, 64, 100
2, 277664, Note_on_c, 0, 52, 100
2, 277728, Note_off_c, 0, 64, 64
2, 277728, Note_off_c, 0, 59, 64
2, 277728, Note_off_c, 0, 55, 64
2, 277728, Note_off_c, 0, 57, 64
2, 277728, Note_on_c, 0, 57, 100
2, 277728, Note_on_c, 0, 59, 100
2, 277792, Note_off_c, 0, 57, 64
2, 277792, Note_off_c, 0, 55, 64
2, 277792, Note_on_c, 0, 55, 100
2, 277856, Note_off_c, 0, 59, 64
2, 277856, Note_off_c, 0, 55, 64
2, 277856, Note_off_c, 0, 52, 64
2, 277856, Note_on_c, 0, 52, 100
2, 277856, Note_on_c, 0, 64, 100
2, 277856, Note_off_c, 0, 37, 64
2, 277856, Note_on_c, 0, 37, 100
2, 277920, Note_off_c, 0, 52, 64
2, 277920, Note_off_c, 0, 61, 64
2, 277920, Note_on_c, 0, 61, 100
2, 277984, Note_off_c, 0, 64, 64
2, 277984, Note_on_c, 0, 64, 100
2, 278048, Note_off_c, 0, 67, 64
2, 278048, Note_on_c, 0, 67, 100
2, 278176, Note_on_c, 0, 49, 100
2, 278176, Note_on_c, 0, 52, 100
2, 278176, Note_off_c, 0, 64, 64
2, 278176, Note_off_c, 0, 67, 64
2, 278176, Note_on_c, 0, 67, 100
2, 278304, Note_off_c, 0, 67, 64
2, 278304, Note_off_c, 0, 66, 64
2, 278304, Note_on_c, 0, 66, 100
2, 278368, Note_on_c, 0, 67, 100
2, 278368, Note_off_c, 0, 69, 64
2, 278432, Note_on_c, 0, 69, 100
2, 278432, Note_on_c, 0, 59, 100
2, 278432, Note_off_c, 0, 52, 64
2, 278432, Note_on_c, 0, 52, 100
2, 278432, Note_off_c, 0, 67, 64
2, 278432, Note_on_c, 0, 67, 100
2, 278432, Note_off_c, 0, 64, 64
2, 278432, Note_on_c, 0, 64, 100
2, 278432, Note_off_c, 0, 83, 64
2, 278432, Note_on_c, 0, 83, 100
2, 278432, Note_off_c, 0, 76, 64
2, 278560, Note_off_c, 0, 67, 64
2, 278560, Note_off_c, 0, 64, 64
2, 278560, Note_on_c, 0, 64, 100
2, 278624, Note_off_c, 0, 66, 64
2, 278624, Note_on_c, 0, 66, 100
2, 278624, Note_on_c, 0, 67, 100
2, 278688, Note_off_c, 0, 67, 64
2, 278688, Note_off_c, 0, 64, 64
2, 278688, Note_on_c, 0, 64, 100
2, 278688, Note_off_c, 0, 59, 64
2, 278688, Note_on_c, 0, 59, 100
2, 278816, Note_on_c, 0, 67, 100
2, 278816, Note_off_c, 0, 64, 64
2, 278816, Note_on_c, 0, 64, 100
2, 278880, Note_on_c, 0, 57, 100
2, 278944, Note_off_c, 0, 64, 64
2, 278944, Note_off_c, 0, 59, 64
2, 278944, Note_on_c, 0, 59, 100
2, 278944, Note_off_c, 0, 67, 64
2, 278944, Note_off_c, 0, 57, 64
2, 278944, Note_on_c, 0, 57, 100
2, 279200, Note_off_c, 0, 67, 64
2, 279200, Note_on_c, 0, 67, 100
2, 279200, Note_off_c, 0, 59, 64
2, 279200, Note_off_c, 0, 57, 64
2, 279328, Note_off_c, 0, 57, 64
2, 279328, Note_on_c, 0, 57, 100
2, 279328, Note_off_c, 0, 55, 64
2, 279328, Note_on_c, 0, 55, 100
2, 279328, Note_off_c, 0, 50, 64
2, 279328, Note_on_c, 0, 50, 100
2, 279456, Note_off_c, 0, 67, 64
2, 279456, Note_off_c, 0, 55, 64
2, 279456, Note_off_c, 0, 50, 64
2, 279456, Note_off_c, 0, 47, 64
2, 279456, Note_off_c, 0, 76, 64
2, 279456, Note_on_c, 0, 76, 100
2, 279456, Note_off_c, 0, 72, 64
2, 279456, Note_on_c, 0, 72, 100
2, 279456, Note_off_c, 0, 42, 64
2, 279456, Note_off_c, 0, 66, 64
2, 279456, Note_off_c, 0, 57, 64
2, 279456, Note_on_c, 0, 57, 100
2, 279456, Note_off_c, 0, 54, 64
2, 279456, Note_on_c, 0, 54, 100
2, 279712, Note_off_c, 0, 72, 64
2, 279712, Note_off_c, 0, 57, 64
2, 279712, Note_off_c, 0, 66, 64
2, 279712, Note_on_c, 0, 66, 100
2, 279712, Note_off_c, 0, 54, 64
2, 279712, Note_off_c, 0, 69, 64
2, 279712, Note_on_c, 0, 69, 100
2, 279712, Note_off_c, 0, 64, 64
2, 279712, Note_on_c, 0, 64, 100
2, 279712, Note_off_c, 0, 45, 64
2, 279712, Note_on_c, 0, 45, 100
2, 279840, Note_off_c, 0, 64, 64
2, 279840, Note_off_c, 0, 66, 64
2, 279840, Note_on_c, 0, 66, 100
2, 279968, Note_off_c, 0, 76, 64
2, 279968, Note_off_c, 0, 69, 64
2, 279968, Note_off_c, 0, 66, 64
2, 279968, Note_off_c, 0, 45, 64
2, 279968, Note_off_c, 0, 73, 64
2, 279968, Note_on_c, 0, 73, 100
2, 279968, Note_off_c, 0, 81, 64
2, 279968, Note_on_c, 0, 81, 100
2, 279968, Note_off_c, 0, 49, 64
2, 279968, Note_on_c, 0, 49, 100
2, 279968, Note_on_c, 0, 76, 100
2, 279968, Note_off_c, 0, 76, 64
2, 279968, Note_off_c, 0, 64, 64
2, 279968, Note_on_c, 0, 64, 100
2, 279968, Note_off_c, 0, 57, 64
2, 279968, Note_on_c, 0, 57, 100
2, 279968, Note_off_c, 0, 61, 64
2, 279968, Note_on_c, 0, 61, 100
2, 280096, Note_off_c, 0, 49, 64
2, 280096, Note_on_c, 0, 49, 100
2, 280096, Note_off_c, 0, 61, 64
2, 280096, Note_off_c, 0, 49, 64
2, 280224, Note_off_c, 0, 81, 64
2, 280224, Note_on_c, 0, 76, 100
2, 280224, Note_on_c, 0, 81, 100
2, 280224, Note_off_c, 0, 57, 64
2, 280224, Note_on_c, 0, 54, 100
2, 280288, Note_off_c, 0, 64, 64
2, 280288, Note_off_c, 0, 61, 64
2, 280288, Note_on_c, 0, 61, 100
2, 280352, Note_off_c, 0, 54, 64
2, 280352, Note_on_c, 0, 54, 100
2, 280416, Note_off_c, 0, 81, 64
2, 280416, Note_off_c, 0, 78, 64
2, 280416, Note_on_c, 0, 78, 100
2, 280416, Note_off_c, 0, 61, 64
2, 280416, Note_off_c, 0, 54, 64
2, 280480, Note_off_c, 0, 73, 64
2, 280480, Note_off_c, 0, 78, 64
2, 280480, Note_on_c, 0, 78, 100
2, 280480, Note_off_c, 0, 76, 64
2, 280480, Note_on_c, 0, 76, 100
2, 280480, Note_off_c, 0, 74, 64
2, 280480, Note_on_c, 0, 74, 100
2, 280480, Note_off_c, 0, 69, 64
2, 280480, Note_on_c, 0, 69, 100
2, 280480, Note_off_c, 0, 57, 64
2, 280480, Note_on_c, 0, 57, 100
2, 280480, Note_off_c, 0, 54, 64
2, 280480, Note_on_c, 0, 54, 100
2, 280672, Note_off_c, 0, 78, 64
2, 280672, Note_off_c, 0, 69, 64
2, 280672, Note_off_c, 0, 54, 64
2, 280672, Note_off_c, 0, 74, 64
2, 280672, Note_off_c, 0, 76, 64
2, 280672, Note_on_c, 0, 76, 100
2, 280672, Note_off_c, 0, 57, 64
2, 280672, Note_on_c, 0, 57, 100
2, 280672, Note_off_c, 0, 45, 64
2, 280672, Note_on_c, 0, 45, 100
2, 280800, Note_on_c, 0, 40, 100
2, 280800, Note_off_c, 0, 45, 64
2, 280800, Note_on_c, 0, 45, 100
2, 280928, Note_off_c, 0, 76, 64
2, 280928, Note_on_c, 0, 74, 100
2, 280928, Note_off_c, 0, 71, 64
2, 280928, Note_on_c, 0, 71, 100
2, 280928, Note_off_c, 0, 78, 64
2, 280928, Note_on_c, 0, 78, 100
2, 280928, Note_off_c, 0, 57, 64
2, 280928, Note_off_c, 0, 61, 64
2, 280928, Note_on_c, 0, 61, 100
2, 280928, Note_off_c, 0, 45, 64
2, 280928, Note_on_c, 0, 45, 100
2, 281312, Note_off_c, 0, 78, 64
2, 281312, Note_on_c, 0, 78, 100
2, 281312, Note_off_c, 0, 74, 64
2, 281312, Note_off_c, 0, 71, 64
2, 281312, Note_off_c, 0, 73, 64
2, 281312, Note_on_c, 0, 73, 100
2, 281312, Note_off_c, 0, 61, 64
2, 281312, Note_off_c, 0, 45, 64
2, 281312, Note_on_c, 0, 54, 100
2, 281440, Note_off_c, 0, 78, 64
2, 281440, Note_off_c, 0, 73, 64
2, 281440, Note_off_c, 0, 74, 64
2, 281440, Note_on_c, 0, 74, 100
2, 281440, Note_off_c, 0, 71, 64
2, 281440, Note_on_c, 0, 71, 100
2, 281440, Note_off_c, 0, 56, 64
2, 281440, Note_on_c, 0, 56, 100
2, 281440, Note_off_c, 0, 68, 64
2, 281440, Note_on_c, 0, 68, 100
2, 281440, Note_off_c, 0, 59, 64
2, 281440, Note_on_c, 0, 59, 100
2, 281504, Note_off_c, 0, 78, 64
2, 281504, Note_on_c, 0, 78, 100
2, 281568, Note_off_c, 0, 71, 64
2, 281568, Note_off_c, 0, 56, 64
2, 281568, Note_off_c, 0, 59, 64
2, 281568, Note_on_c, 0, 61, 100
2, 281568, Note_off_c, 0, 74, 64
2, 281568, Note_on_c, 0, 74, 100
2, 281632, Note_off_c, 0, 76, 64
2, 281632, Note_on_c, 0, 76, 100
2, 281632, Note_off_c, 0, 74, 64
2, 281696, Note_off_c, 0, 68, 64
2, 281696, Note_on_c, 0, 73, 100
2, 281696, Note_off_c, 0, 74, 64
2, 281696, Note_on_c, 0, 74, 100
2, 281696, Note_off_c, 0, 78, 64
2, 281696, Note_on_c, 0, 78, 100
2, 281696, Note_off_c, 0, 69, 64
2, 281696, Note_on_c, 0, 69, 100
2, 281696, Note_off_c, 0, 57, 64
2, 281696, Note_on_c, 0, 57, 100
2, 281696, Note_off_c, 0, 54, 64
2, 281696, Note_on_c, 0, 54, 100
2, 281696, Note_off_c, 0, 54, 64
2, 281824, Note_off_c, 0, 73, 64
2, 281824, Note_off_c, 0, 69, 64
2, 281824, Note_off_c, 0, 74, 64
2, 281824, Note_on_c, 0, 74, 100
2, 281824, Note_off_c, 0, 78, 64
2, 281952, Note_on_c, 0, 81, 100
2, 281952, Note_on_c, 0, 69, 100
2, 281952, Note_off_c, 0, 74, 64
2, 281952, Note_on_c, 0, 54, 100
2, 281952, Note_on_c, 0, 66, 100
2, 281952, Note_off_c, 0, 61, 64
2, 281952, Note_off_c, 0, 78, 64
2, 281952, Note_on_c, 0, 78, 100
2, 281952, Note_off_c, 0, 57, 64
2, 281952, Note_on_c, 0, 57, 100
2, 281952, Note_off_c, 0, 50, 64
2, 281952, Note_on_c, 0, 50, 100
2, 282208, Note_off_c, 0, 81, 64
2, 282208, Note_off_c, 0, 69, 64
2, 282208, Note_off_c, 0, 66, 64
2, 282208, Note_on_c, 0, 69, 100
2, 282208, Note_on_c, 0, 81, 100
2, 282208, Note_off_c, 0, 83, 64
2, 282208, Note_off_c, 0, 78, 64
2, 282208, Note_on_c, 0, 78, 100
2, 282272, Note_off_c, 0, 50, 64
2, 282336, Note_off_c, 0, 81, 64
2, 282336, Note_on_c, 0, 81, 100
2, 282336, Note_off_c, 0, 81, 64
2, 282464, Note_on_c, 0, 81, 100
2, 282464, Note_off_c, 0, 78, 64
2, 282464, Note_on_c, 0, 78, 100
2, 282464, Note_off_c, 0, 78, 64
2, 282464, Note_off_c, 0, 69, 64
2, 282464, Note_off_c, 0, 57, 64
2, 282464, Note_off_c, 0, 50, 64
2, 282464, Note_on_c, 0, 50, 100
2, 282464, Note_off_c, 0, 71, 64
2, 282464, Note_on_c, 0, 71, 100
2, 282528, Note_on_c, 0, 69, 100
2, 282528, Note_off_c, 0, 81, 64
2, 282528, Note_off_c, 0, 78, 64
2, 282528, Note_on_c, 0, 78, 100
2, 282592, Note_off_c, 0, 78, 64
2, 282592, Note_on_c, 0, 78, 100
2, 282720, Note_off_c, 0, 71, 64
2, 282720, Note_off_c, 0, 78, 64
2, 282720, Note_off_c, 0, 66, 64
2, 282720, Note_on_c, 0, 66, 100
2, 282720, Note_off_c, 0, 62, 64
2, 282720, Note_on_c, 0, 62, 100
2, 282720, Note_off_c, 0, 38, 64
2, 282720, Note_off_c, 0, 50, 64
2, 282720, Note_on_c, 0, 50, 100
2, 282720, Note_on_c, 0, 47, 100
2, 282720, Note_off_c, 0, 69, 64
2, 282720, Note_on_c, 0, 69, 100
2, 282784, Note_off_c, 0, 54, 64
2, 282784, Note_off_c, 0, 66, 64
2, 282848, Note_on_c, 0, 54, 100
2, 282848, Note_off_c, 0, 59, 64
2, 282848, Note_on_c, 0, 59, 100
2, 282912, Note_off_c, 0, 62, 64
2, 282912, Note_off_c, 0, 59, 64
2, 282912, Note_on_c, 0, 57, 100
2, 282912, Note_off_c, 0, 50, 64
2, 282976, Note_off_c, 0, 57, 64
2, 282976, Note_on_c, 0, 71, 100
2, 282976, Note_off_c, 0, 71, 64
2, 282976, Note_off_c, 0, 69, 64
2, 282976, Note_on_c, 0, 66, 100
2, 282976, Note_off_c, 0, 63, 64
2, 282976, Note_on_c, 0, 57, 100
2, 282976, Note_off_c, 0, 66, 64
2, 282976, Note_on_c, 0, 66, 100
2, 282976, Note_off_c, 0, 57, 64
2, 282976, Note_off_c, 0, 49, 64
2, 282976, Note_on_c, 0, 49, 100
2, 282976, Note_off_c, 0, 78, 64
2, 282976, Note_on_c, 0, 78, 100
2, 282976, Note_off_c, 0, 74, 64
2, 282976, Note_on_c, 0, 74, 100
2, 282976, Note_on_c, 0, 71, 100
2, 282976, Note_on_c, 0, 57, 100
2, 282976, Note_off_c, 0, 56, 64
2, 282976, Note_on_c, 0, 56, 100
2, 283040, Note_off_c, 0, 45, 64
2, 283040, Note_on_c, 0, 45, 100
2, 283104, Note_off_c, 0, 78, 64
2, 283104, Note_off_c, 0, 51, 64
2, 283104, Note_on_c, 0, 51, 100
2, 283168, Note_off_c, 0, 74, 64
2, 283232, Note_off_c, 0, 71, 64
2, 283232, Note_on_c, 0, 71, 100
2, 283232, Note_off_c, 0, 78, 64
2, 283232, Note_on_c, 0, 78, 100
2, 283232, Note_off_c, 0, 51, 64
2, 283232, Note_on_c, 0, 51, 100
2, 283232, Note_off_c, 0, 51, 64
2, 283296, Note_on_c, 0, 63, 100
2, 283296, Note_on_c, 0, 51, 100
2, 283296, Note_off_c, 0, 66, 64
2, 283360, Note_off_c, 0, 78, 64
2, 283360, Note_on_c, 0, 66, 100
2, 283360, Note_off_c, 0, 66, 64
2, 283360, Note_on_c, 0, 66, 100
2, 283360, Note_off_c, 0, 59, 64
2, 283360, Note_on_c, 0, 59, 100
2, 283360, Note_off_c, 0, 51, 64
2, 283360, Note_on_c, 0, 51, 100
2, 283360, Note_off_c, 0, 52, 64
2, 283360, Note_on_c, 0, 73, 100
2, 283360, Note_on_c, 0, 69, 100
2, 283360, Note_off_c, 0, 54, 64
2, 283488, Note_on_c, 0, 52, 100
2, 283552, Note_off_c, 0, 52, 64
2, 283552, Note_on_c, 0, 52, 100
2, 283552, Note_off_c, 0, 59, 64
2, 283616, Note_off_c, 0, 66, 64
2, 283616, Note_on_c, 0, 66, 100
2, 283616, Note_on_c, 0, 54, 100
2, 283680, Note_off_c, 0, 59, 64
2, 283680, Note_on_c, 0, 59, 100
2, 283680, Note_off_c, 0, 54, 64
2, 283744, Note_off_c, 0, 56, 64
2, 283744, Note_on_c, 0, 56, 100
2, 283808, Note_off_c, 0, 66, 64
2, 283808, Note_off_c, 0, 59, 64
2, 283808, Note_off_c, 0, 56, 64
2, 283808, Note_off_c, 0, 71, 64
2, 283808, Note_on_c, 0, 71, 100
2, 283808, Note_off_c, 0, 69, 64
2, 283808, Note_on_c, 0, 56, 100
2, 283872, Note_off_c, 0, 78, 64
2, 283872, Note_on_c, 0, 78, 100
2, 283936, Note_off_c, 0, 52, 64
2, 283936, Note_on_c, 0, 52, 100
2, 283936, Note_off_c, 0, 50, 64
2, 283936, Note_on_c, 0, 50, 100
2, 284000, Note_off_c, 0, 50, 64
2, 284000, Note_on_c, 0, 50, 100
2, 284064, Note_off_c, 0, 52, 64
2, 284064, Note_off_c, 0, 49, 64
2, 284064, Note_on_c, 0, 49, 100
2, 284128, Note_off_c, 0, 47, 64
2, 284128, Note_on_c, 0, 47, 100
2, 284192, Note_off_c, 0, 47, 64
2, 284192, Note_off_c, 0, 49, 64
2, 284192, Note_on_c, 0, 52, 100
2, 284256, Note_off_c, 0, 49, 64
2, 284256, Note_on_c, 0, 49, 100
2, 284320, Note_off_c, 0, 49, 64
2, 284320, Note_off_c, 0, 47, 64
2, 284320, Note_on_c, 0, 47, 100
2, 284320, Note_on_c, 0, 68, 100
2, 284320, Note_off_c, 0, 69, 64
2, 284320, Note_on_c, 0, 69, 100
2, 284384, Note_off_c, 0, 47, 64
2, 284384, Note_off_c, 0, 45, 64
2, 284384, Note_on_c, 0, 45, 100
2, 284448, Note_off_c, 0, 78, 64
2, 284448, Note_on_c, 0, 81, 100
2, 284448, Note_on_c, 0, 54, 100
2, 284448, Note_off_c, 0, 54, 64
2, 284448, Note_on_c, 0, 74, 100
2, 284448, Note_off_c, 0, 74, 64
2, 284448, Note_on_c, 0, 74, 100
2, 284448, Note_off_c, 0, 83, 64
2, 284448, Note_on_c, 0, 83, 100
2, 284448, Note_off_c, 0, 66, 64
2, 284448, Note_on_c, 0, 66, 100
2, 284448, Note_on_c, 0, 54, 100
2, 284448, Note_off_c, 0, 45, 64
2, 284448, Note_on_c, 0, 45, 100
2, 284448, Note_on_c, 0, 38, 100
2, 284448, Note_off_c, 0, 38, 64
2, 284448, Note_off_c, 0, 47, 64
2, 284448, Note_on_c, 0, 47, 100
2, 284448, Note_on_c, 0, 38, 100
2, 284576, Note_off_c, 0, 54, 64
2, 284576, Note_off_c, 0, 49, 64
2, 284576, Note_off_c, 0, 66, 64
2, 284576, Note_off_c, 0, 47, 64
2, 284576, Note_on_c, 0, 47, 100
2, 284576, Note_off_c, 0, 81, 64
2, 284576, Note_off_c, 0, 80, 64
2, 284576, Note_on_c, 0, 80, 100
2, 284576, Note_on_c, 0, 49, 100
2, 284576, Note_off_c, 0, 64, 64
2, 284576, Note_on_c, 0, 64, 100
2, 284576, Note_on_c, 0, 54, 100
2, 284640, Note_off_c, 0, 80, 64
2, 284640, Note_on_c, 0, 80, 100
2, 284704, Note_off_c, 0, 52, 64
2, 284704, Note_off_c, 0, 81, 64
2, 284704, Note_on_c, 0, 81, 100
2, 284704, Note_on_c, 0, 52, 100
2, 284704, Note_off_c, 0, 49, 64
2, 284704, Note_off_c, 0, 64, 64
2, 284704, Note_on_c, 0, 64, 100
2, 284704, Note_on_c, 0, 62, 100
2, 284704, Note_off_c, 0, 61, 64
2, 284704, Note_on_c, 0, 61, 100
2, 284704, Note_off_c, 0, 68, 64
2, 284768, Note_off_c, 0, 79, 64
2, 284768, Note_on_c, 0, 79, 100
2, 284832, Note_off_c, 0, 76, 64
2, 284832, Note_on_c, 0, 76, 100
2, 284832, Note_on_c, 0, 49, 100
2, 284832, Note_off_c, 0, 49, 64
2, 284832, Note_on_c, 0, 49, 100
2, 284896, Note_off_c, 0, 64, 64
2, 284896, Note_off_c, 0, 76, 64
2, 284896, Note_on_c, 0, 76, 100
2, 284960, Note_off_c, 0, 61, 64
2, 284960, Note_on_c, 0, 61, 100
2, 284960, Note_off_c, 0, 62, 64
2, 284960, Note_on_c, 0, 62, 100
2, 284960, Note_off_c, 0, 38, 64
2, 285024, Note_off_c, 0, 76, 64
2, 285024, Note_off_c, 0, 79, 64
2, 285024, Note_on_c, 0, 79, 100
2, 285088, Note_off_c, 0, 79, 64
2, 285088, Note_off_c, 0, 78, 64
2, 285088, Note_on_c, 0, 78, 100
2, 285088, Note_off_c, 0, 62, 64
2, 285088, Note_on_c, 0, 62, 100
2, 285088, Note_off_c, 0, 61, 64
2, 285152, Note_off_c, 0, 50, 64
2, 285152, Note_off_c, 0, 69, 64
2, 285152, Note_on_c, 0, 69, 100
2, 285152, Note_off_c, 0, 61, 64
2, 285152, Note_on_c, 0, 61, 100
2, 285152, Note_off_c, 0, 45, 64
2, 285152, Note_off_c, 0, 49, 64
2, 285152, Note_off_c, 0, 52, 64
2, 285152, Note_off_c, 0, 78, 64
2, 285152, Note_off_c, 0, 76, 64
2, 285152, Note_on_c, 0, 76, 100
2, 285152, Note_on_c, 0, 49, 100
2, 285152, Note_on_c, 0, 52, 100
2, 285216, Note_off_c, 0, 49, 64
2, 285216, Note_off_c, 0, 54, 64
2, 285216, Note_on_c, 0, 54, 100
2, 285216, Note_off_c, 0, 61, 64
2, 285216, Note_off_c, 0, 62, 64
2, 285216, Note_on_c, 0, 62, 100
2, 285280, Note_off_c, 0, 47, 64
2, 285280, Note_on_c, 0, 47, 100
2, 285344, Note_off_c, 0, 54, 64
2, 285344, Note_on_c, 0, 54, 100
2, 285344, Note_off_c, 0, 54, 64
2, 285344, Note_off_c, 0, 76, 64
2, 285344, Note_off_c, 0, 74, 64
2, 285344, Note_off_c, 0, 69, 64
2, 285344, Note_on_c, 0, 69, 100
2, 285344, Note_on_c, 0, 54, 100
2, 285344, Note_on_c, 0, 50, 100
2, 285344, Note_on_c, 0, 74, 100
2, 285344, Note_off_c, 0, 69, 64
2, 285344, Note_off_c, 0, 55, 64
2, 285344, Note_on_c, 0, 55, 100
2, 285408, Note_off_c, 0, 74, 64
2, 285408, Note_on_c, 0, 74, 100
2, 285408, Note_off_c, 0, 50, 64
2, 285408, Note_off_c, 0, 62, 64
2, 285408, Note_off_c, 0, 47, 64
2, 285408, Note_on_c, 0, 47, 100
2, 285472, Note_off_c, 0, 76, 64
2, 285472, Note_on_c, 0, 76, 100
2, 285472, Note_off_c, 0, 55, 64
2, 285472, Note_off_c, 0, 74, 64
2, 285472, Note_off_c, 0, 69, 64
2, 285472, Note_on_c, 0, 69, 100
2, 285472, Note_off_c, 0, 47, 64
2, 285472, Note_off_c, 0, 49, 64
2, 285472, Note_on_c, 0, 49, 100
2, 285472, Note_off_c, 0, 64, 64
2, 285472, Note_on_c, 0, 64, 100
2, 285472, Note_off_c, 0, 57, 64
2, 285472, Note_on_c, 0, 57, 100
2, 285536, Note_off_c, 0, 57, 64
2, 285536, Note_on_c, 0, 57, 100
2, 285600, Note_off_c, 0, 76, 64
2, 285600, Note_on_c, 0, 74, 100
2, 285600, Note_off_c, 0, 57, 64
2, 285600, Note_off_c, 0, 49, 64
2, 285600, Note_on_c, 0, 57, 100
2, 285600, Note_on_c, 0, 76, 100
2, 285600, Note_off_c, 0, 64, 64
2, 285600, Note_on_c, 0, 64, 100
2, 285600, Note_off_c, 0, 64, 64
2, 285600, Note_off_c, 0, 61, 64
2, 285600, Note_on_c, 0, 61, 100
2, 285600, Note_on_c, 0, 55, 100
2, 285600, Note_off_c, 0, 55, 64
2, 285600, Note_on_c, 0, 55, 100
2, 285600, Note_off_c, 0, 67, 64
2, 285600, Note_on_c, 0, 67, 100
2, 285664, Note_off_c, 0, 67, 64
2, 285728, Note_on_c, 0, 64, 100
2, 285728, Note_off_c, 0, 69, 64
2, 285728, Note_off_c, 0, 57, 64
2, 285728, Note_off_c, 0, 55, 64
2, 285728, Note_off_c, 0, 54, 64
2, 285728, Note_on_c, 0, 69, 100
2, 285728, Note_off_c, 0, 61, 64
2, 285728, Note_on_c, 0, 66, 100
2, 285728, Note_off_c, 0, 76, 64
2, 285728, Note_off_c, 0, 81, 64
2, 285728, Note_on_c, 0, 81, 100
2, 285856, Note_off_c, 0, 81, 64
2, 285856, Note_off_c, 0, 76, 64
2, 285856, Note_on_c, 0, 76, 100
2, 285856, Note_on_c, 0, 54, 100
2, 285856, Note_off_c, 0, 55, 64
2, 285856, Note_on_c, 0, 55, 100
2, 285856, Note_off_c, 0, 66, 64
2, 285920, Note_off_c, 0, 76, 64
2, 285920, Note_off_c, 0, 64, 64
2, 285920, Note_on_c, 0, 64, 100
2, 285984, Note_off_c, 0, 55, 64
2, 285984, Note_off_c, 0, 54, 64
2, 285984, Note_on_c, 0, 54, 100
2, 285984, Note_on_c, 0, 66, 100
2, 285984, Note_on_c, 0, 78, 100
2, 285984, Note_off_c, 0, 69, 64
2, 285984, Note_on_c, 0, 69, 100
2, 285984, Note_off_c, 0, 64, 64
2, 285984, Note_off_c, 0, 73, 64
2, 285984, Note_on_c, 0, 73, 100
2, 285984, Note_off_c, 0, 53, 64
2, 286112, Note_off_c, 0, 78, 64
2, 286112, Note_off_c, 0, 73, 64
2, 286112, Note_off_c, 0, 74, 64
2, 286112, Note_on_c, 0, 74, 100
2, 286112, Note_off_c, 0, 69, 64
2, 286112, Note_on_c, 0, 69, 100
2, 286240, Note_off_c, 0, 74, 64
2, 286240, Note_off_c, 0, 76, 64
2, 286240, Note_on_c, 0, 76, 100
2, 286368, Note_off_c, 0, 76, 64
2, 286368, Note_off_c, 0, 74, 64
2, 286368, Note_on_c, 0, 74, 100
2, 286368, Note_off_c, 0, 69, 64
2, 286368, Note_off_c, 0, 66, 64
2, 286496, Note_on_c, 0, 69, 100
2, 286496, Note_off_c, 0, 68, 64
2, 286496, Note_on_c, 0, 68, 100
2, 286496, Note_off_c, 0, 74, 64
2, 286496, Note_off_c, 0, 73, 64
2, 286496, Note_on_c, 0, 73, 100
2, 286496, Note_off_c, 0, 56, 64
2, 286496, Note_on_c, 0, 56, 100
2, 286624, Note_off_c, 0, 68, 64
2, 286624, Note_off_c, 0, 66, 64
2, 286624, Note_on_c, 0, 66, 100
2, 286624, Note_off_c, 0, 73, 64
2, 286624, Note_off_c, 0, 74, 64
2, 286624, Note_on_c, 0, 74, 100
2, 286624, Note_off_c, 0, 54, 64
2, 286752, Note_off_c, 0, 74, 64
2, 286752, Note_on_c, 0, 74, 100
2, 286752, Note_off_c, 0, 66, 64
2, 286752, Note_off_c, 0, 64, 64
2, 286752, Note_on_c, 0, 64, 100
2, 286752, Note_off_c, 0, 68, 64
2, 286752, Note_on_c, 0, 68, 100
2, 286752, Note_off_c, 0, 52, 64
2, 286752, Note_on_c, 0, 52, 100
2, 286752, Note_off_c, 0, 59, 64
2, 286752, Note_on_c, 0, 59, 100
2, 286752, Note_off_c, 0, 56, 64
2, 286752, Note_on_c, 0, 56, 100
2, 286752, Note_on_c, 0, 61, 100
2, 286752, Note_off_c, 0, 52, 64
2, 286880, Note_off_c, 0, 74, 64
2, 286880, Note_off_c, 0, 68, 64
2, 286880, Note_on_c, 0, 68, 100
2, 286880, Note_off_c, 0, 64, 64
2, 286880, Note_off_c, 0, 62, 64
2, 286880, Note_on_c, 0, 62, 100
2, 287008, Note_off_c, 0, 68, 64
2, 287008, Note_off_c, 0, 69, 64
2, 287008, Note_on_c, 0, 69, 100
2, 287008, Note_off_c, 0, 73, 64
2, 287008, Note_on_c, 0, 73, 100
2, 287008, Note_on_c, 0, 64, 100
2, 287008, Note_off_c, 0, 62, 64
2, 287008, Note_off_c, 0, 61, 64
2, 287008, Note_on_c, 0, 61, 100
2, 287008, Note_off_c, 0, 59, 64
2, 287008, Note_on_c, 0, 57, 100
2, 287136, Note_off_c, 0, 73, 64
2, 287136, Note_on_c, 0, 73, 100
2, 287136, Note_off_c, 0, 69, 64
2, 287136, Note_on_c, 0, 69, 100
2, 287136, Note_off_c, 0, 61, 64
2, 287136, Note_on_c, 0, 61, 100
2, 287264, Note_off_c, 0, 68, 64
2, 287264, Note_off_c, 0, 64, 64
2, 287264, Note_on_c, 0, 64, 100
2, 287264, Note_on_c, 0, 59, 100
2, 287264, Note_on_c, 0, 68, 100
2, 287264, Note_off_c, 0, 73, 64
2, 287264, Note_on_c, 0, 73, 100
2, 287264, Note_off_c, 0, 57, 64
2, 287264, Note_off_c, 0, 52, 64
2, 287264, Note_on_c, 0, 52, 100
2, 287264, Note_off_c, 0, 69, 64
2, 287264, Note_off_c, 0, 71, 64
2, 287264, Note_on_c, 0, 71, 100
2, 287392, Note_off_c, 0, 64, 64
2, 287392, Note_on_c, 0, 72, 100
2, 287392, Note_off_c, 0, 71, 64
2, 287392, Note_off_c, 0, 52, 64
2, 287392, Note_off_c, 0, 59, 64
2, 287392, Note_on_c, 0, 59, 100
2, 287520, Note_off_c, 0, 71, 64
2, 287520, Note_on_c, 0, 71, 100
2, 287520, Note_off_c, 0, 68, 64
2, 287520, Note_on_c, 0, 64, 100
2, 287520, Note_off_c, 0, 66, 64
2, 287520, Note_on_c, 0, 66, 100
2, 287520, Note_off_c, 0, 59, 64
2, 287520, Note_off_c, 0, 61, 64
2, 287520, Note_on_c, 0, 61, 100
2, 287520, Note_on_c, 0, 68, 100
2, 287648, Note_off_c, 0, 68, 64
2, 287648, Note_on_c, 0, 68, 100
2, 287648, Note_off_c, 0, 66, 64
2, 287712, Note_off_c, 0, 63, 64
2, 287712, Note_on_c, 0, 36, 100
2, 287776, Note_off_c, 0, 68, 64
2, 287776, Note_on_c, 0, 68, 100
2, 287776, Note_off_c, 0, 63, 64
2, 287776, Note_on_c, 0, 63, 100
2, 287776, Note_off_c, 0, 59, 64
2, 287776, Note_on_c, 0, 59, 100
2, 287776, Note_off_c, 0, 52, 64
2, 287776, Note_on_c, 0, 52, 100
2, 287904, Note_on_c, 0, 75, 100
2, 287904, Note_off_c, 0, 75, 64
2, 287904, Note_on_c, 0, 75, 100
2, 287904, Note_off_c, 0, 61, 64
2, 287904, Note_on_c, 0, 61, 100
2, 288032, Note_off_c, 0, 75, 64
2, 288032, Note_off_c, 0, 73, 64
2, 288032, Note_on_c, 0, 73, 100
2, 288032, Note_off_c, 0, 71, 64
2, 288032, Note_off_c, 0, 68, 64
2, 288160, Note_off_c, 0, 73, 64
2, 288160, Note_off_c, 0, 66, 64
2, 288160, Note_on_c, 0, 66, 100
2, 288224, Note_on_c, 0, 71, 100
2, 288288, Note_off_c, 0, 66, 64
2, 288288, Note_off_c, 0, 68, 64
2, 288288, Note_on_c, 0, 68, 100
2, 288288, Note_off_c, 0, 59, 64
2, 288288, Note_on_c, 0, 59, 100
2, 288416, Note_off_c, 0, 68, 64
2, 288416, Note_on_c, 0, 68, 100
2, 288416, Note_off_c, 0, 68, 64
2, 288544, Note_on_c, 0, 68, 100
2, 288544, Note_off_c, 0, 71, 64
2, 288544, Note_on_c, 0, 71, 100
2, 288672, Note_off_c, 0, 74, 64
2, 288672, Note_on_c, 0, 74, 100
2, 288672, Note_off_c, 0, 71, 64
2, 288672, Note_on_c, 0, 71, 100
2, 288672, Note_off_c, 0, 67, 64
2, 288672, Note_on_c, 0, 67, 100
2, 288736, Note_off_c, 0, 59, 64
2, 288800, Note_off_c, 0, 52, 64
2, 288800, Note_on_c, 0, 47, 100
2, 288800, Note_off_c, 0, 74, 64
2, 288800, Note_off_c, 0, 76, 64
2, 288800, Note_on_c, 0, 76, 100
2, 288800, Note_off_c, 0, 67, 64
2, 288800, Note_off_c, 0, 72, 64
2, 288800, Note_on_c, 0, 72, 100
2, 288864, Note_on_c, 0, 48, 100
2, 288864, Note_on_c, 0, 45, 100
2, 288928, Note_off_c, 0, 76, 64
2, 288928, Note_off_c, 0, 74, 64
2, 288928, Note_on_c, 0, 74, 100
2, 289056, Note_off_c, 0, 47, 64
2, 289056, Note_off_c, 0, 45, 64
2, 289056, Note_on_c, 0, 45, 100
2, 289056, Note_off_c, 0, 74, 64
2, 289056, Note_off_c, 0, 72, 64
2, 289056, Note_on_c, 0, 72, 100
2, 289184, Note_off_c, 0, 45, 64
2, 289184, Note_off_c, 0, 47, 64
2, 289184, Note_on_c, 0, 47, 100
2, 289184, Note_off_c, 0, 71, 64
2, 289184, Note_on_c, 0, 71, 100
2, 289312, Note_off_c, 0, 71, 64
2, 289312, Note_on_c, 0, 74, 100
2, 289312, Note_off_c, 0, 72, 64
2, 289312, Note_on_c, 0, 72, 100
2, 289312, Note_on_c, 0, 62, 100
2, 289312, Note_off_c, 0, 62, 64
2, 289312, Note_off_c, 0, 47, 64
2, 289312, Note_off_c, 0, 45, 64
2, 289312, Note_on_c, 0, 45, 100
2, 289312, Note_on_c, 0, 62, 100
2, 289440, Note_off_c, 0, 62, 64
2, 289440, Note_on_c, 0, 62, 100
2, 289568, Note_off_c, 0, 74, 64
2, 289568, Note_off_c, 0, 72, 64
2, 289568, Note_on_c, 0, 72, 100
2, 289568, Note_off_c, 0, 62, 64
2, 289568, Note_off_c, 0, 64, 64
2, 289568, Note_on_c, 0, 64, 100
2, 289696, Note_off_c, 0, 64, 64
2, 289696, Note_off_c, 0, 62, 64
2, 289696, Note_on_c, 0, 62, 100
2, 289824, Note_off_c, 0, 62, 64
2, 289824, Note_off_c, 0, 64, 64
2, 289824, Note_on_c, 0, 64, 100
2, 289824, Note_off_c, 0, 45, 64
2, 289824, Note_off_c, 0, 72, 64
2, 289824, Note_on_c, 0, 72, 100
2, 289952, Note_off_c, 0, 64, 64
2, 289952, Note_off_c, 0, 72, 64
2, 289952, Note_on_c, 0, 72, 100
2, 290080, Note_off_c, 0, 72, 64
2, 290080, Note_off_c, 0, 71, 64
2, 290080, Note_on_c, 0, 71, 100
2, 290080, Note_off_c, 0, 55, 64
2, 290080, Note_on_c, 0, 55, 100
2, 290208, Note_off_c, 0, 71, 64
2, 290208, Note_off_c, 0, 64, 64
2, 290208, Note_on_c, 0, 64, 100
2, 290336, Note_off_c, 0, 64, 64
2, 290336, Note_off_c, 0, 54, 64
2, 290336, Note_on_c, 0, 54, 100
2, 290336, Note_off_c, 0, 66, 64
2, 290336, Note_on_c, 0, 66, 100
2, 290336, Note_off_c, 0, 51, 64
2, 290464, Note_off_c, 0, 79, 64
2, 290464, Note_on_c, 0, 79, 100
2, 290592, Note_off_c, 0, 55, 64
2, 290592, Note_off_c, 0, 54, 64
2, 290592, Note_off_c, 0, 79, 64
2, 290592, Note_off_c, 0, 71, 64
2, 290592, Note_on_c, 0, 71, 100
2, 290592, Note_off_c, 0, 52, 64
2, 290592, Note_on_c, 0, 52, 100
2, 290720, Note_off_c, 0, 71, 64
2, 290720, Note_off_c, 0, 72, 64
2, 290720, Note_on_c, 0, 72, 100
2, 290848, Note_off_c, 0, 72, 64
2, 290848, Note_off_c, 0, 78, 64
2, 290848, Note_on_c, 0, 78, 100
2, 290848, Note_on_c, 0, 72, 100
2, 290848, Note_off_c, 0, 66, 64
2, 290848, Note_off_c, 0, 38, 64
2, 290848, Note_on_c, 0, 38, 100
2, 290848, Note_off_c, 0, 40, 64
2, 290848, Note_off_c, 0, 67, 64
2, 290848, Note_on_c, 0, 67, 100
2, 290976, Note_off_c, 0, 67, 64
2, 290976, Note_off_c, 0, 66, 64
2, 290976, Note_on_c, 0, 66, 100
2, 291104, Note_off_c, 0, 78, 64
2, 291104, Note_off_c, 0, 38, 64
2, 291104, Note_off_c, 0, 71, 64
2, 291104, Note_on_c, 0, 71, 100
2, 291104, Note_off_c, 0, 66, 64
2, 291104, Note_on_c, 0, 50, 100
2, 291104, Note_off_c, 0, 62, 64
2, 291104, Note_on_c, 0, 62, 100
2, 291232, Note_off_c, 0, 71, 64
2, 291232, Note_off_c, 0, 62, 64
2, 291232, Note_on_c, 0, 79, 100
2, 291232, Note_off_c, 0, 52, 64
2, 291232, Note_off_c, 0, 64, 64
2, 291232, Note_on_c, 0, 64, 100
2, 291232, Note_off_c, 0, 69, 64
2, 291232, Note_on_c, 0, 69, 100
2, 291360, Note_off_c, 0, 64, 64
2, 291360, Note_off_c, 0, 69, 64
2, 291360, Note_off_c, 0, 67, 64
2, 291360, Note_on_c, 0, 67, 100
2, 291360, Note_off_c, 0, 50, 64
2, 291360, Note_on_c, 0, 50, 100
2, 291360, Note_on_c, 0, 52, 100
2, 291360, Note_off_c, 0, 79, 64
2, 291360, Note_on_c, 0, 76, 100
2, 291488, Note_off_c, 0, 76, 64
2, 291488, Note_off_c, 0, 67, 64
2, 291488, Note_off_c, 0, 71, 64
2, 291488, Note_on_c, 0, 71, 100
2, 291616, Note_off_c, 0, 71, 64
2, 291616, Note_off_c, 0, 52, 64
2, 291616, Note_off_c, 0, 50, 64
2, 291616, Note_off_c, 0, 83, 64
2, 291616, Note_on_c, 0, 83, 100
2, 291616, Note_off_c, 0, 79, 64
2, 291616, Note_on_c, 0, 79, 100
2, 291744, Note_off_c, 0, 83, 64
2, 291744, Note_off_c, 0, 79, 64
2, 291744, Note_on_c, 0, 55, 100
2, 291872, Note_off_c, 0, 83, 64
2, 291872, Note_off_c, 0, 86, 64
2, 291872, Note_on_c, 0, 83, 100
2, 291872, Note_off_c, 0, 54, 64
2, 291872, Note_on_c, 0, 54, 100
2, 292000, Note_off_c, 0, 83, 64
2, 292000, Note_off_c, 0, 84, 64
2, 292000, Note_on_c, 0, 84, 100
2, 292000, Note_off_c, 0, 79, 64
2, 292000, Note_on_c, 0, 79, 100
2, 292064, Note_off_c, 0, 54, 64
2, 292128, Note_off_c, 0, 84, 64
2, 292128, Note_off_c, 0, 74, 64
2, 292128, Note_on_c, 0, 74, 100
2, 292128, Note_off_c, 0, 55, 64
2, 292128, Note_off_c, 0, 50, 64
2, 292128, Note_on_c, 0, 50, 100
2, 292128, Note_off_c, 0, 80, 64
2, 292128, Note_on_c, 0, 80, 100
2, 292256, Note_off_c, 0, 80, 64
2, 292256, Note_on_c, 0, 80, 100
2, 292256, Note_on_c, 0, 83, 100
2, 292384, Note_off_c, 0, 80, 64
2, 292384, Note_off_c, 0, 71, 64
2, 292384, Note_on_c, 0, 71, 100
2, 292384, Note_off_c, 0, 50, 64
2, 292384, Note_off_c, 0, 76, 64
2, 292384, Note_on_c, 0, 76, 100
2, 292384, Note_off_c, 0, 72, 64
2, 292384, Note_on_c, 0, 52, 100
2, 292384, Note_on_c, 0, 50, 100
2, 292384, Note_off_c, 0, 50, 64
2, 292512, Note_off_c, 0, 77, 64
2, 292512, Note_on_c, 0, 77, 100
2, 292576, Note_off_c, 0, 77, 64
2, 292576, Note_off_c, 0, 76, 64
2, 292576, Note_on_c, 0, 76, 100
2, 292640, Note_off_c, 0, 71, 64
2, 292640, Note_off_c, 0, 74, 64
2, 292640, Note_on_c, 0, 74, 100
2, 292640, Note_off_c, 0, 76, 64
2, 292640, Note_off_c, 0, 74, 64
2, 292640, Note_off_c, 0, 62, 64
2, 292640, Note_on_c, 0, 62, 100
2, 292640, Note_off_c, 0, 68, 64
2, 292640, Note_on_c, 0, 68, 100
2, 292896, Note_off_c, 0, 52, 64
2, 292896, Note_off_c, 0, 50, 64
2, 292896, Note_on_c, 0, 50, 100
2, 292896, Note_on_c, 0, 74, 100
2, 292896, Note_on_c, 0, 75, 100
2, 292896, Note_off_c, 0, 68, 64
2, 293024, Note_off_c, 0, 75, 64
2, 293024, Note_off_c, 0, 72, 64
2, 293024, Note_on_c, 0, 72, 100
2, 293088, Note_off_c, 0, 50, 64
2, 293088, Note_off_c, 0, 48, 64
2, 293088, Note_off_c, 0, 72, 64
2, 293152, Note_on_c, 0, 48, 100
2, 293152, Note_off_c, 0, 48, 64
2, 293152, Note_on_c, 0, 48, 100
2, 293408, Note_off_c, 0, 75, 64
2, 293408, Note_on_c, 0, 75, 100
2, 293408, Note_off_c, 0, 62, 64
2, 293408, Note_on_c, 0, 68, 100
2, 293408, Note_off_c, 0, 48, 64
2, 293408, Note_on_c, 0, 72, 100
2, 293664, Note_off_c, 0, 72, 64
2, 293664, Note_off_c, 0, 68, 64
2, 293664, Note_on_c, 0, 68, 100
2, 293664, Note_off_c, 0, 68, 64
2, 293664, Note_off_c, 0, 62, 64
2, 293664, Note_on_c, 0, 62, 100
2, 293664, Note_on_c, 0, 47, 100
2, 293664, Note_on_c, 0, 48, 100
2, 293664, Note_on_c, 0, 44, 100
2, 293792, Note_on_c, 0, 68, 100
2, 293792, Note_off_c, 0, 66, 64
2, 293792, Note_on_c, 0, 66, 100
2, 293920, Note_off_c, 0, 62, 64
2, 293920, Note_on_c, 0, 62, 100
2, 293920, Note_off_c, 0, 66, 64
2, 294048, Note_off_c, 0, 62, 64
2, 294048, Note_off_c, 0, 60, 64
2, 294048, Note_on_c, 0, 60, 100
2, 294176, Note_off_c, 0, 60, 64
2, 294176, Note_off_c, 0, 48, 64
2, 294176, Note_off_c, 0, 45, 64
2, 294176, Note_on_c, 0, 45, 100
2, 294176, Note_on_c, 0, 62, 100
2, 294176, Note_off_c, 0, 63, 64
2, 294176, Note_on_c, 0, 66, 100
2, 294176, Note_off_c, 0, 66, 64
2, 294176, Note_on_c, 0, 66, 100
2, 294176, Note_off_c, 0, 65, 64
2, 294304, Note_off_c, 0, 66, 64
2, 294304, Note_on_c, 0, 63, 100
2, 294304, Note_off_c, 0, 62, 64
2, 294304, Note_on_c, 0, 62, 100
2, 294304, Note_off_c, 0, 45, 64
2, 294432, Note_off_c, 0, 62, 64
2, 294432, Note_on_c, 0, 65, 100
2, 294432, Note_off_c, 0, 63, 64
2, 294432, Note_on_c, 0, 63, 100
2, 294432, Note_off_c, 0, 43, 64
2, 294432, Note_on_c, 0, 43, 100
2, 294432, Note_off_c, 0, 59, 64
2, 294432, Note_on_c, 0, 59, 100
2, 294560, Note_off_c, 0, 63, 64
2, 294560, Note_off_c, 0, 59, 64
2, 294560, Note_on_c, 0, 63, 100
2, 294560, Note_off_c, 0, 63, 64
2, 294560, Note_off_c, 0, 60, 64
2, 294560, Note_on_c, 0, 60, 100
2, 294688, Note_on_c, 0, 48, 100
2, 294688, Note_on_c, 0, 63, 100
2, 294688, Note_off_c, 0, 60, 64
2, 294688, Note_off_c, 0, 68, 64
2, 294688, Note_on_c, 0, 59, 100
2, 294688, Note_on_c, 0, 62, 100
2, 294688, Note_off_c, 0, 41, 64
2, 294688, Note_on_c, 0, 41, 100
2, 294816, Note_off_c, 0, 62, 64
2, 294816, Note_on_c, 0, 68, 100
2, 294816, Note_off_c, 0, 60, 64
2, 294816, Note_on_c, 0, 60, 100
2, 294816, Note_off_c, 0, 64, 64
2, 294816, Note_on_c, 0, 64, 100
2, 294816, Note_off_c, 0, 59, 64
2, 294944, Note_off_c, 0, 64, 64
2, 294944, Note_off_c, 0, 60, 64
2, 294944, Note_on_c, 0, 60, 100
2, 294944, Note_off_c, 0, 59, 64
2, 294944, Note_on_c, 0, 59, 100
2, 294944, Note_off_c, 0, 67, 64
2, 294944, Note_on_c, 0, 67, 100
2, 295072, Note_off_c, 0, 68, 64
2, 295072, Note_off_c, 0, 69, 64
2, 295072, Note_on_c, 0, 69, 100
2, 295136, Note_off_c, 0, 69, 64
2, 295200, Note_off_c, 0, 60, 64
2, 295200, Note_on_c, 0, 55, 100
2, 295200, Note_off_c, 0, 67, 64
2, 295200, Note_off_c, 0, 71, 64
2, 295200, Note_on_c, 0, 71, 100
2, 295200, Note_on_c, 0, 45, 100
2, 295200, Note_off_c, 0, 65, 64
2, 295200, Note_on_c, 0, 65, 100
2, 295200, Note_off_c, 0, 43, 64
2, 295200, Note_on_c, 0, 43, 100
2, 295200, Note_off_c, 0, 43, 64
2, 295200, Note_off_c, 0, 55, 64
2, 295200, Note_on_c, 0, 55, 100
2, 295328, Note_off_c, 0, 71, 64
2, 295328, Note_off_c, 0, 65, 64
2, 295328, Note_off_c, 0, 67, 64
2, 295328, Note_on_c, 0, 67, 100
2, 295392, Note_on_c, 0, 62, 100
2, 295456, Note_off_c, 0, 67, 64
2, 295456, Note_on_c, 0, 71, 100
2, 295456, Note_off_c, 0, 65, 64
2, 295456, Note_on_c, 0, 65, 100
2, 295456, Note_off_c, 0, 62, 64
2, 295456, Note_off_c, 0, 72, 64
2, 295456, Note_on_c, 0, 72, 100
2, 295456, Note_off_c, 0, 55, 64
2, 295456, Note_off_c, 0, 61, 64
2, 295456, Note_on_c, 0, 61, 100
2, 295584, Note_on_c, 0, 73, 100
2, 295648, Note_on_c, 0, 64, 100
2, 295648, Note_off_c, 0, 71, 64
2, 295648, Note_on_c, 0, 71, 100
2, 295648, Note_off_c, 0, 61, 64
2, 295712, Note_on_c, 0, 61, 100
2, 295712, Note_off_c, 0, 71, 64
2, 295712, Note_off_c, 0, 62, 64
2, 295712, Note_on_c, 0, 62, 100
2, 295712, Note_off_c, 0, 65, 64
2, 295712, Note_on_c, 0, 43, 100
2, 295712, Note_on_c, 0, 40, 100
2, 295712, Note_off_c, 0, 40, 64
2, 295712, Note_on_c, 0, 40, 100
2, 295712, Note_on_c, 0, 60, 100
2, 295712, Note_on_c, 0, 55, 100
2, 295712, Note_on_c, 0, 57, 100
2, 295776, Note_off_c, 0, 62, 64
2, 295776, Note_on_c, 0, 62, 100
2, 295840, Note_off_c, 0, 40, 64
2, 295840, Note_off_c, 0, 62, 64
2, 295840, Note_on_c, 0, 67, 100
2, 295840, Note_off_c, 0, 67, 64
2, 295840, Note_on_c, 0, 52, 100
2, 295840, Note_off_c, 0, 52, 64
2, 295840, Note_off_c, 0, 60, 64
2, 295840, Note_on_c, 0, 60, 100
2, 295840, Note_off_c, 0, 72, 64
2, 295840, Note_on_c, 0, 72, 100
2, 295840, Note_off_c, 0, 64, 64
2, 295840, Note_on_c, 0, 64, 100
2, 295840, Note_on_c, 0, 67, 100
2, 295840, Note_off_c, 0, 36, 64
2, 295840, Note_on_c, 0, 40, 100
2, 295840, Note_on_c, 0, 52, 100
2, 295840, Note_off_c, 0, 64, 64
2, 295968, Note_off_c, 0, 69, 64
2, 295968, Note_on_c, 0, 69, 100
2, 295968, Note_off_c, 0, 60, 64
2, 295968, Note_on_c, 0, 60, 100
2, 295968, Note_off_c, 0, 64, 64
2, 295968, Note_on_c, 0, 64, 100
2, 295968, Note_off_c, 0, 72, 64
2, 295968, Note_on_c, 0, 72, 100
2, 296096, Note_off_c, 0, 72, 64
2, 296160, Note_on_c, 0, 36, 100
2, 296224, Note_off_c, 0, 40, 64
2, 296224, Note_off_c, 0, 69, 64
2, 296224, Note_off_c, 0, 57, 64
2, 296224, Note_off_c, 0, 64, 64
2, 296224, Note_off_c, 0, 60, 64
2, 296224, Note_off_c, 0, 52, 64
2, 296224, Note_on_c, 0, 52, 100
2, 296224, Note_off_c, 0, 62, 64
2, 296224, Note_on_c, 0, 62, 100
2, 296224, Note_off_c, 0, 38, 64
2, 296224, Note_on_c, 0, 38, 100
2, 296224, Note_on_c, 0, 57, 100
2, 296224, Note_on_c, 0, 60, 100
2, 296352, Note_off_c, 0, 45, 64
2, 296352, Note_off_c, 0, 62, 64
2, 296352, Note_off_c, 0, 52, 64
2, 296352, Note_off_c, 0, 64, 64
2, 296352, Note_on_c, 0, 64, 100
2, 296352, Note_off_c, 0, 60, 64
2, 296352, Note_on_c, 0, 60, 100
2, 296352, Note_off_c, 0, 57, 64
2, 296352, Note_on_c, 0, 57, 100
2, 296352, Note_off_c, 0, 55, 64
2, 296352, Note_on_c, 0, 55, 100
2, 296352, Note_off_c, 0, 67, 64
2, 296352, Note_on_c, 0, 67, 100
2, 296480, Note_off_c, 0, 67, 64
2, 296480, Note_off_c, 0, 57, 64
2, 296480, Note_off_c, 0, 60, 64
2, 296480, Note_off_c, 0, 55, 64
2, 296480, Note_off_c, 0, 64, 64
2, 296480, Note_on_c, 0, 52, 100
2, 296480, Note_on_c, 0, 57, 100
2, 296480, Note_off_c, 0, 57, 64
2, 296480, Note_off_c, 0, 41, 64
2, 296480, Note_on_c, 0, 53, 100
2, 296480, Note_on_c, 0, 69, 100
2, 296480, Note_off_c, 0, 65, 64
2, 296480, Note_on_c, 0, 65, 100
2, 296480, Note_on_c, 0, 41, 100
2, 296480, Note_off_c, 0, 41, 64
2, 296608, Note_off_c, 0, 69, 64
2, 296608, Note_off_c, 0, 60, 64
2, 296608, Note_on_c, 0, 60, 100
2, 296736, Note_off_c, 0, 65, 64
2, 296736, Note_off_c, 0, 60, 64
2, 296736, Note_off_c, 0, 57, 64
2, 296736, Note_on_c, 0, 57, 100
2, 296736, Note_off_c, 0, 41, 64
2, 296736, Note_on_c, 0, 41, 100
2, 296736, Note_off_c, 0, 64, 64
2, 296736, Note_on_c, 0, 64, 100
2, 296736, Note_off_c, 0, 59, 64
2, 296736, Note_on_c, 0, 59, 100
2, 296736, Note_on_c, 0, 67, 100
2, 296736, Note_off_c, 0, 52, 64
2, 296736, Note_on_c, 0, 52, 100
2, 296736, Note_off_c, 0, 53, 64
2, 296736, Note_off_c, 0, 59, 64
2, 296864, Note_off_c, 0, 67, 64
2, 296864, Note_off_c, 0, 65, 64
2, 296864, Note_on_c, 0, 65, 100
2, 296864, Note_off_c, 0, 64, 64
2, 296992, Note_on_c, 0, 59, 100
2, 296992, Note_off_c, 0, 64, 64
2, 296992, Note_off_c, 0, 65, 64
2, 296992, Note_off_c, 0, 52, 64
2, 296992, Note_off_c, 0, 57, 64
2, 296992, Note_on_c, 0, 53, 100
2, 296992, Note_off_c, 0, 53, 64
2, 296992, Note_on_c, 0, 53, 100
2, 296992, Note_on_c, 0, 68, 100
2, 296992, Note_off_c, 0, 68, 64
2, 296992, Note_on_c, 0, 68, 100
2, 296992, Note_on_c, 0, 64, 100
2, 297120, Note_off_c, 0, 65, 64
2, 297120, Note_off_c, 0, 68, 64
2, 297120, Note_off_c, 0, 74, 64
2, 297120, Note_on_c, 0, 74, 100
2, 297120, Note_off_c, 0, 64, 64
2, 297120, Note_on_c, 0, 65, 100
2, 297248, Note_off_c, 0, 74, 64
2, 297248, Note_off_c, 0, 65, 64
2, 297248, Note_off_c, 0, 53, 64
2, 297248, Note_off_c, 0, 68, 64
2, 297248, Note_off_c, 0, 77, 64
2, 297248, Note_on_c, 0, 77, 100
2, 297248, Note_on_c, 0, 74, 100
2, 297248, Note_off_c, 0, 74, 64
2, 297248, Note_off_c, 0, 44, 64
2, 297248, Note_off_c, 0, 47, 64
2, 297248, Note_on_c, 0, 68, 100
2, 297376, Note_off_c, 0, 74, 64
2, 297376, Note_off_c, 0, 68, 64
2, 297376, Note_on_c, 0, 74, 100
2, 297376, Note_off_c, 0, 77, 64
2, 297376, Note_off_c, 0, 69, 64
2, 297376, Note_on_c, 0, 69, 100
2, 297504, Note_on_c, 0, 77, 100
2, 297504, Note_off_c, 0, 74, 64
2, 297504, Note_off_c, 0, 69, 64
2, 297504, Note_off_c, 0, 35, 64
2, 297504, Note_on_c, 0, 47, 100
2, 297504, Note_on_c, 0, 69, 100
2, 297504, Note_off_c, 0, 76, 64
2, 297504, Note_on_c, 0, 76, 100
2, 297504, Note_off_c, 0, 65, 64
2, 297504, Note_on_c, 0, 65, 100
2, 297504, Note_off_c, 0, 45, 64
2, 297504, Note_off_c, 0, 57, 64
2, 297504, Note_on_c, 0, 57, 100
2, 297504, Note_on_c, 0, 45, 100
2, 297504, Note_on_c, 0, 49, 100
2, 297504, Note_off_c, 0, 37, 64
2, 297632, Note_off_c, 0, 69, 64
2, 297632, Note_off_c, 0, 57, 64
2, 297632, Note_on_c, 0, 57, 100
2, 297632, Note_off_c, 0, 77, 64
2, 297632, Note_on_c, 0, 68, 100
2, 297632, Note_off_c, 0, 62, 64
2, 297632, Note_on_c, 0, 62, 100
2, 297632, Note_on_c, 0, 77, 100
2, 297632, Note_off_c, 0, 77, 64
2, 297760, Note_on_c, 0, 81, 100
2, 297760, Note_on_c, 0, 69, 100
2, 297760, Note_off_c, 0, 37, 64
2, 297760, Note_on_c, 0, 80, 100
2, 297760, Note_on_c, 0, 37, 100
2, 297760, Note_off_c, 0, 49, 64
2, 297760, Note_off_c, 0, 62, 64
2, 297760, Note_off_c, 0, 76, 64
2, 297760, Note_on_c, 0, 77, 100
2, 297760, Note_off_c, 0, 65, 64
2, 297760, Note_on_c, 0, 49, 100
2, 297760, Note_off_c, 0, 61, 64
2, 297760, Note_on_c, 0, 61, 100
2, 297760, Note_off_c, 0, 57, 64
2, 297760, Note_on_c, 0, 57, 100
2, 297760, Note_off_c, 0, 33, 64
2, 297760, Note_on_c, 0, 33, 100
2, 297760, Note_off_c, 0, 45, 64
2, 297760, Note_on_c, 0, 45, 100
2, 297888, Note_off_c, 0, 57, 64
2, 297888, Note_on_c, 0, 58, 100
2, 298016, Note_off_c, 0, 56, 64
2, 298016, Note_off_c, 0, 57, 64
2, 298016, Note_off_c, 0, 49, 64
2, 298016, Note_off_c, 0, 38, 64
2, 298016, Note_on_c, 0, 57, 100
2, 298016, Note_on_c, 0, 50, 100
2, 298016, Note_on_c, 0, 38, 100
2, 298144, Note_off_c, 0, 77, 64
2, 298144, Note_off_c, 0, 61, 64
2, 298144, Note_on_c, 0, 61, 100
2, 298144, Note_off_c, 0, 76, 64
2, 298144, Note_on_c, 0, 76, 100
2, 298144, Note_off_c, 0, 57, 64
2, 298144, Note_on_c, 0, 57, 100
2, 298272, Note_off_c, 0, 61, 64
2, 298272, Note_off_c, 0, 57, 64
2, 298272, Note_off_c, 0, 38, 64
2, 298272, Note_off_c, 0, 76, 64
2, 298272, Note_off_c, 0, 77, 64
2, 298272, Note_on_c, 0, 77, 100
2, 298272, Note_on_c, 0, 62, 100
2, 298272, Note_on_c, 0, 74, 100
2, 298272, Note_off_c, 0, 50, 64
2, 298272, Note_off_c, 0, 62, 64
2, 298272, Note_on_c, 0, 62, 100
2, 298400, Note_off_c, 0, 74, 64
2, 298400, Note_off_c, 0, 62, 64
2, 298400, Note_on_c, 0, 74, 100
2, 298400, Note_off_c, 0, 76, 64
2, 298400, Note_on_c, 0, 76, 100
2, 298400, Note_off_c, 0, 77, 64
2, 298528, Note_off_c, 0, 76, 64
2, 298528, Note_off_c, 0, 74, 64
2, 298528, Note_on_c, 0, 62, 100
2, 298528, Note_off_c, 0, 77, 64
2, 298528, Note_on_c, 0, 77, 100
2, 298528, Note_off_c, 0, 80, 64
2, 298528, Note_on_c, 0, 80, 100
2, 298528, Note_off_c, 0, 80, 64
2, 298656, Note_on_c, 0, 80, 100
2, 298656, Note_off_c, 0, 76, 64
2, 298656, Note_on_c, 0, 76, 100
2, 298784, Note_on_c, 0, 50, 100
2, 298784, Note_off_c, 0, 86, 64
2, 298784, Note_on_c, 0, 86, 100
2, 298784, Note_off_c, 0, 77, 64
2, 298784, Note_off_c, 0, 76, 64
2, 298784, Note_off_c, 0, 62, 64
2, 298784, Note_on_c, 0, 62, 100
2, 298784, Note_off_c, 0, 65, 64
2, 298784, Note_on_c, 0, 65, 100
2, 298784, Note_off_c, 0, 47, 64
2, 298784, Note_on_c, 0, 47, 100
2, 298912, Note_off_c, 0, 65, 64
2, 298912, Note_off_c, 0, 47, 64
2, 298912, Note_off_c, 0, 64, 64
2, 298912, Note_on_c, 0, 64, 100
2, 298912, Note_off_c, 0, 52, 64
2, 298912, Note_on_c, 0, 52, 100
2, 299040, Note_off_c, 0, 64, 64
2, 299040, Note_off_c, 0, 86, 64
2, 299040, Note_off_c, 0, 62, 64
2, 299040, Note_off_c, 0, 52, 64
2, 299040, Note_off_c, 0, 59, 64
2, 299040, Note_on_c, 0, 59, 100
2, 299040, Note_off_c, 0, 74, 64
2, 299040, Note_on_c, 0, 74, 100
2, 299040, Note_off_c, 0, 65, 64
2, 299040, Note_on_c, 0, 65, 100
2, 299168, Note_off_c, 0, 65, 64
2, 299168, Note_off_c, 0, 59, 64
2, 299232, Note_off_c, 0, 64, 64
2, 299232, Note_on_c, 0, 64, 100
2, 299232, Note_off_c, 0, 57, 64
2, 299232, Note_on_c, 0, 57, 100
2, 299296, Note_off_c, 0, 48, 64
2, 299296, Note_off_c, 0, 64, 64
2, 299296, Note_off_c, 0, 57, 64
2, 299296, Note_on_c, 0, 57, 100
2, 299360, Note_off_c, 0, 74, 64
2, 299360, Note_off_c, 0, 71, 64
2, 299360, Note_on_c, 0, 71, 100
2, 299360, Note_off_c, 0, 67, 64
2, 299360, Note_on_c, 0, 67, 100
2, 299488, Note_off_c, 0, 67, 64
2, 299488, Note_off_c, 0, 71, 64
2, 299488, Note_off_c, 0, 57, 64
2, 299488, Note_off_c, 0, 55, 64
2, 299488, Note_on_c, 0, 55, 100
2, 299488, Note_off_c, 0, 69, 64
2, 299488, Note_on_c, 0, 69, 100
2, 299488, Note_on_c, 0, 71, 100
2, 299488, Note_off_c, 0, 50, 64
2, 299488, Note_on_c, 0, 50, 100
2, 299616, Note_off_c, 0, 69, 64
2, 299616, Note_off_c, 0, 50, 64
2, 299616, Note_off_c, 0, 60, 64
2, 299616, Note_on_c, 0, 61, 100
2, 299616, Note_on_c, 0, 60, 100
2, 299616, Note_off_c, 0, 67, 64
2, 299616, Note_on_c, 0, 67, 100
2, 299616, Note_off_c, 0, 52, 64
2, 299616, Note_on_c, 0, 52, 100
2, 299616, Note_off_c, 0, 76, 64
2, 299616, Note_on_c, 0, 76, 100
2, 299616, Note_off_c, 0, 64, 64
2, 299616, Note_on_c, 0, 64, 100
2, 299744, Note_off_c, 0, 52, 64
2, 299744, Note_off_c, 0, 55, 64
2, 299744, Note_off_c, 0, 61, 64
2, 299744, Note_off_c, 0, 79, 64
2, 299744, Note_off_c, 0, 83, 64
2, 299744, Note_off_c, 0, 59, 64
2, 299744, Note_on_c, 0, 59, 100
2, 299744, Note_off_c, 0, 47, 64
2, 299744, Note_on_c, 0, 47, 100
2, 299872, Note_off_c, 0, 59, 64
2, 299872, Note_on_c, 0, 49, 100
2, 299872, Note_off_c, 0, 64, 64
2, 299872, Note_on_c, 0, 61, 100
2, 299872, Note_on_c, 0, 55, 100
2, 299872, Note_off_c, 0, 53, 64
2, 299872, Note_on_c, 0, 53, 100
2, 299872, Note_off_c, 0, 62, 64
2, 299872, Note_on_c, 0, 62, 100
2, 300000, Note_off_c, 0, 53, 64
2, 300000, Note_off_c, 0, 61, 64
2, 300000, Note_on_c, 0, 61, 100
2, 300000, Note_off_c, 0, 67, 64
2, 300000, Note_off_c, 0, 62, 64
2, 300000, Note_on_c, 0, 53, 100
2, 300000, Note_off_c, 0, 53, 64
2, 300128, Note_on_c, 0, 53, 100
2, 300128, Note_on_c, 0, 59, 100
2, 300128, Note_off_c, 0, 61, 64
2, 300128, Note_on_c, 0, 61, 100
2, 300128, Note_off_c, 0, 55, 64
2, 300128, Note_on_c, 0, 55, 100
2, 300128, Note_off_c, 0, 52, 64
2, 300128, Note_on_c, 0, 52, 100
2, 300128, Note_off_c, 0, 60, 64
2, 300128, Note_off_c, 0, 45, 64
2, 300128, Note_on_c, 0, 45, 100
2, 300256, Note_off_c, 0, 61, 64
2, 300256, Note_on_c, 0, 40, 100
2, 300256, Note_off_c, 0, 52, 64
2, 300256, Note_off_c, 0, 47, 64
2, 300256, Note_on_c, 0, 47, 100
2, 300256, Note_off_c, 0, 55, 64
2, 300256, Note_on_c, 0, 57, 100
2, 300256, Note_off_c, 0, 53, 64
2, 300256, Note_on_c, 0, 53, 100
2, 300384, Note_off_c, 0, 47, 64
2, 300384, Note_off_c, 0, 53, 64
2, 300384, Note_off_c, 0, 45, 64
2, 300384, Note_off_c, 0, 49, 64
2, 300384, Note_off_c, 0, 52, 64
2, 300384, Note_on_c, 0, 52, 100
2, 300512, Note_on_c, 0, 48, 100
2, 300512, Note_on_c, 0, 45, 100
2, 300512, Note_off_c, 0, 57, 64
2, 300512, Note_on_c, 0, 49, 100
2, 300512, Note_off_c, 0, 52, 64
2, 300512, Note_off_c, 0, 53, 64
2, 300512, Note_on_c, 0, 53, 100
2, 300512, Note_on_c, 0, 52, 100
2, 300512, Note_off_c, 0, 45, 64
2, 300512, Note_on_c, 0, 45, 100
2, 300512, Note_off_c, 0, 76, 64
2, 300512, Note_on_c, 0, 76, 100
2, 300512, Note_off_c, 0, 67, 64
2, 300512, Note_on_c, 0, 67, 100
2, 300704, Note_off_c, 0, 76, 64
2, 300704, Note_off_c, 0, 67, 64
2, 300704, Note_off_c, 0, 49, 64
2, 300704, Note_off_c, 0, 45, 64
2, 300704, Note_off_c, 0, 53, 64
2, 300704, Note_off_c, 0, 46, 64
2, 300704, Note_on_c, 0, 46, 100
2, 300704, Note_off_c, 0, 65, 64
2, 300704, Note_on_c, 0, 65, 100
2, 300704, Note_off_c, 0, 81, 64
2, 300704, Note_on_c, 0, 81, 100
2, 300704, Note_on_c, 0, 45, 100
2, 300704, Note_on_c, 0, 64, 100
2, 300704, Note_off_c, 0, 73, 64
2, 300704, Note_off_c, 0, 57, 64
2, 300704, Note_on_c, 0, 57, 100
2, 300704, Note_off_c, 0, 45, 64
2, 300832, Note_off_c, 0, 57, 64
2, 300832, Note_on_c, 0, 57, 100
2, 300832, Note_on_c, 0, 73, 100
2, 300832, Note_on_c, 0, 76, 100
2, 300832, Note_on_c, 0, 67, 100
2, 300832, Note_off_c, 0, 58, 64
2, 300832, Note_off_c, 0, 52, 64
2, 300832, Note_off_c, 0, 64, 64
2, 300832, Note_on_c, 0, 49, 100
2, 300832, Note_off_c, 0, 46, 64
2, 300960, Note_off_c, 0, 76, 64
2, 300960, Note_off_c, 0, 57, 64
2, 300960, Note_off_c, 0, 67, 64
2, 300960, Note_off_c, 0, 69, 64
2, 300960, Note_on_c, 0, 69, 100
2, 300960, Note_off_c, 0, 81, 64
2, 300960, Note_on_c, 0, 77, 100
2, 300960, Note_off_c, 0, 65, 64
2, 300960, Note_on_c, 0, 64, 100
2, 300960, Note_on_c, 0, 57, 100
2, 300960, Note_off_c, 0, 57, 64
2, 300960, Note_off_c, 0, 58, 64
2, 300960, Note_on_c, 0, 58, 100
2, 300960, Note_on_c, 0, 46, 100
2, 300960, Note_off_c, 0, 49, 64
2, 300960, Note_on_c, 0, 49, 100
2, 301088, Note_off_c, 0, 69, 64
2, 301088, Note_off_c, 0, 82, 64
2, 301088, Note_on_c, 0, 65, 100
2, 301152, Note_off_c, 0, 81, 64
2, 301152, Note_on_c, 0, 81, 100
2, 301152, Note_on_c, 0, 79, 100
2, 301152, Note_off_c, 0, 65, 64
2, 301152, Note_off_c, 0, 49, 64
2, 301216, Note_off_c, 0, 64, 64
2, 301216, Note_on_c, 0, 69, 100
2, 301216, Note_off_c, 0, 77, 64
2, 301216, Note_off_c, 0, 79, 64
2, 301216, Note_off_c, 0, 70, 64
2, 301216, Note_off_c, 0, 67, 64
2, 301216, Note_on_c, 0, 67, 100
2, 301216, Note_off_c, 0, 62, 64
2, 301216, Note_on_c, 0, 62, 100
2, 301216, Note_off_c, 0, 58, 64
2, 301216, Note_on_c, 0, 58, 100
2, 301344, Note_off_c, 0, 67, 64
2, 301344, Note_off_c, 0, 62, 64
2, 301344, Note_on_c, 0, 64, 100
2, 301344, Note_off_c, 0, 64, 64
2, 301344, Note_on_c, 0, 64, 100
2, 301344, Note_off_c, 0, 61, 64
2, 301344, Note_on_c, 0, 61, 100
2, 301472, Note_on_c, 0, 70, 100
2, 301472, Note_off_c, 0, 61, 64
2, 301472, Note_on_c, 0, 76, 100
2, 301472, Note_off_c, 0, 81, 64
2, 301472, Note_on_c, 0, 61, 100
2, 301472, Note_off_c, 0, 61, 64
2, 301472, Note_on_c, 0, 81, 100
2, 301472, Note_off_c, 0, 81, 64
2, 301472, Note_off_c, 0, 57, 64
2, 301472, Note_on_c, 0, 57, 100
2, 301472, Note_on_c, 0, 61, 100
2, 301536, Note_off_c, 0, 76, 64
2, 301536, Note_on_c, 0, 76, 100
2, 301600, Note_off_c, 0, 76, 64
2, 301600, Note_on_c, 0, 82, 100
2, 301600, Note_off_c, 0, 73, 64
2, 301600, Note_on_c, 0, 73, 100
2, 301600, Note_off_c, 0, 70, 64
2, 301600, Note_on_c, 0, 76, 100
2, 301600, Note_off_c, 0, 64, 64
2, 301600, Note_on_c, 0, 64, 100
2, 301600, Note_off_c, 0, 58, 64
2, 301600, Note_on_c, 0, 58, 100
2, 301728, Note_off_c, 0, 73, 64
2, 301728, Note_off_c, 0, 64, 64
2, 301728, Note_on_c, 0, 64, 100
2, 301728, Note_off_c, 0, 58, 64
2, 301728, Note_off_c, 0, 57, 64
2, 301728, Note_on_c, 0, 57, 100
2, 301728, Note_off_c, 0, 57, 64
2, 301728, Note_off_c, 0, 81, 64
2, 301728, Note_on_c, 0, 81, 100
2, 301728, Note_off_c, 0, 77, 64
2, 301728, Note_on_c, 0, 77, 100
2, 301728, Note_off_c, 0, 74, 64
2, 301728, Note_on_c, 0, 74, 100
2, 301728, Note_on_c, 0, 57, 100
2, 301728, Note_off_c, 0, 57, 64
2, 301728, Note_off_c, 0, 41, 64
2, 301728, Note_on_c, 0, 41, 100
2, 301856, Note_on_c, 0, 57, 100
2, 301856, Note_off_c, 0, 81, 64
2, 301856, Note_off_c, 0, 77, 64
2, 301856, Note_off_c, 0, 74, 64
2, 301856, Note_on_c, 0, 62, 100
2, 301856, Note_on_c, 0, 77, 100
2, 301856, Note_off_c, 0, 77, 64
2, 301856, Note_off_c, 0, 69, 64
2, 301984, Note_on_c, 0, 77, 100
2, 301984, Note_off_c, 0, 41, 64
2, 301984, Note_on_c, 0, 69, 100
2, 301984, Note_off_c, 0, 62, 64
2, 301984, Note_off_c, 0, 45, 64
2, 301984, Note_on_c, 0, 45, 100
2, 301984, Note_off_c, 0, 77, 64
2, 301984, Note_on_c, 0, 77, 100
2, 301984, Note_on_c, 0, 53, 100
2, 301984, Note_off_c, 0, 57, 64
2, 301984, Note_on_c, 0, 65, 100
2, 301984, Note_on_c, 0, 62, 100
2, 301984, Note_off_c, 0, 62, 64
2, 301984, Note_on_c, 0, 57, 100
2, 301984, Note_off_c, 0, 60, 64
2, 301984, Note_on_c, 0, 60, 100
2, 301984, Note_on_c, 0, 70, 100
2, 301984, Note_off_c, 0, 69, 64
2, 301984, Note_on_c, 0, 69, 100
2, 302112, Note_off_c, 0, 77, 64
2, 302112, Note_on_c, 0, 77, 100
2, 302112, Note_off_c, 0, 74, 64
2, 302112, Note_on_c, 0, 74, 100
2, 302112, Note_on_c, 0, 81, 100
2, 302176, Note_on_c, 0, 62, 100
2, 302240, Note_off_c, 0, 57, 64
2, 302240, Note_off_c, 0, 53, 64
2, 302240, Note_off_c, 0, 74, 64
2, 302240, Note_on_c, 0, 57, 100
2, 302240, Note_off_c, 0, 82, 64
2, 302240, Note_on_c, 0, 82, 100
2, 302240, Note_off_c, 0, 81, 64
2, 302240, Note_off_c, 0, 69, 64
2, 302240, Note_on_c, 0, 74, 100
2, 302240, Note_off_c, 0, 74, 64
2, 302240, Note_off_c, 0, 64, 64
2, 302240, Note_on_c, 0, 50, 100
2, 302240, Note_on_c, 0, 41, 100
2, 302240, Note_on_c, 0, 64, 100
2, 302240, Note_off_c, 0, 61, 64
2, 302240, Note_on_c, 0, 61, 100
2, 302368, Note_on_c, 0, 74, 100
2, 302368, Note_off_c, 0, 65, 64
2, 302368, Note_on_c, 0, 65, 100
2, 302368, Note_off_c, 0, 61, 64
2, 302368, Note_off_c, 0, 64, 64
2, 302368, Note_on_c, 0, 64, 100
2, 302368, Note_on_c, 0, 61, 100
2, 302368, Note_off_c, 0, 81, 64
2, 302368, Note_on_c, 0, 81, 100
2, 302368, Note_off_c, 0, 73, 64
2, 302368, Note_on_c, 0, 73, 100
2, 302432, Note_off_c, 0, 41, 64
2, 302496, Note_off_c, 0, 81, 64
2, 302496, Note_off_c, 0, 65, 64
2, 302496, Note_on_c, 0, 65, 100
2, 302496, Note_on_c, 0, 53, 100
2, 302496, Note_off_c, 0, 61, 64
2, 302496, Note_off_c, 0, 73, 64
2, 302496, Note_off_c, 0, 60, 64
2, 302496, Note_on_c, 0, 69, 100
2, 302496, Note_off_c, 0, 69, 64
2, 302496, Note_on_c, 0, 69, 100
2, 302624, Note_off_c, 0, 65, 64
2, 302624, Note_off_c, 0, 69, 64
2, 302624, Note_on_c, 0, 81, 100
2, 302816, Note_off_c, 0, 69, 64
2, 302816, Note_on_c, 0, 69, 100
2, 302816, Note_off_c, 0, 79, 64
2, 302816, Note_off_c, 0, 64, 64
2, 302816, Note_on_c, 0, 79, 100
2, 302816, Note_off_c, 0, 76, 64
2, 302816, Note_on_c, 0, 76, 100
2, 302816, Note_on_c, 0, 64, 100
2, 302816, Note_off_c, 0, 64, 64
2, 302816, Note_off_c, 0, 61, 64
2, 302816, Note_on_c, 0, 61, 100
2, 302816, Note_off_c, 0, 57, 64
2, 302816, Note_on_c, 0, 57, 100
2, 302944, Note_off_c, 0, 76, 64
2, 302944, Note_on_c, 0, 64, 100
2, 302944, Note_off_c, 0, 61, 64
2, 302944, Note_off_c, 0, 57, 64
2, 302944, Note_off_c, 0, 79, 64
2, 302944, Note_off_c, 0, 73, 64
2, 302944, Note_on_c, 0, 73, 100
2, 302944, Note_off_c, 0, 64, 64
2, 302944, Note_on_c, 0, 64, 100
2, 302944, Note_on_c, 0, 57, 100
2, 302944, Note_off_c, 0, 57, 64
2, 303072, Note_off_c, 0, 73, 64
2, 303072, Note_off_c, 0, 64, 64
2, 303072, Note_on_c, 0, 57, 100
2, 303072, Note_off_c, 0, 69, 64
2, 305824, Note_off_c, 0, 81, 64
2, 305824, Note_off_c, 0, 74, 64
2, 305824, Note_off_c, 0, 50, 64
2, 305824, Note_on_c, 0, 50, 100
2, 305824, Note_on_c, 0, 81, 100
2, 305824, Note_off_c, 0, 81, 64
2, 305824, Note_off_c, 0, 76, 64
2, 305824, Note_on_c, 0, 76, 100
2, 306016, Note_off_c, 0, 80, 64
2, 306016, Note_off_c, 0, 81, 64
2, 306016, Note_on_c, 0, 81, 100
2, 306272, Note_off_c, 0, 81, 64
2, 306272, Note_on_c, 0, 80, 100
2, 306272, Note_on_c, 0, 79, 100
2, 306272, Note_off_c, 0, 76, 64
2, 306272, Note_on_c, 0, 76, 100
2, 306528, Note_off_c, 0, 79, 64
2, 306528, Note_off_c, 0, 81, 64
2, 306528, Note_on_c, 0, 81, 100
2, 306528, Note_off_c, 0, 76, 64
2, 306784, Note_off_c, 0, 79, 64
2, 306784, Note_on_c, 0, 79, 100
2, 306784, Note_off_c, 0, 73, 64
2, 306784, Note_on_c, 0, 73, 100
2, 306784, Note_off_c, 0, 64, 64
2, 306784, Note_on_c, 0, 64, 100
2, 306784, Note_off_c, 0, 81, 64
2, 306784, Note_on_c, 0, 81, 100
2, 306976, Note_off_c, 0, 81, 64
2, 306976, Note_off_c, 0, 73, 64
2, 306976, Note_off_c, 0, 64, 64
2, 306976, Note_on_c, 0, 61, 100
2, 307040, Note_off_c, 0, 74, 64
2, 307040, Note_on_c, 0, 74, 100
2, 307040, Note_off_c, 0, 77, 64
2, 307040, Note_on_c, 0, 77, 100
2, 307040, Note_off_c, 0, 69, 64
2, 307040, Note_on_c, 0, 69, 100
2, 307296, Note_off_c, 0, 77, 64
2, 307296, Note_off_c, 0, 74, 64
2, 307296, Note_on_c, 0, 74, 100
2, 307296, Note_off_c, 0, 76, 64
2, 307296, Note_on_c, 0, 76, 100
2, 307552, Note_off_c, 0, 76, 64
2, 307552, Note_off_c, 0, 73, 64
2, 307552, Note_on_c, 0, 73, 100
2, 307872, Note_off_c, 0, 74, 64
2, 307872, Note_off_c, 0, 69, 64
2, 307872, Note_on_c, 0, 65, 100
2, 308064, Note_off_c, 0, 73, 64
2, 308064, Note_off_c, 0, 76, 64
2, 308064, Note_on_c, 0, 76, 100
2, 308064, Note_off_c, 0, 69, 64
2, 308064, Note_on_c, 0, 69, 100
2, 308384, Note_off_c, 0, 50, 64
2, 308576, Note_off_c, 0, 69, 64
2, 308576, Note_off_c, 0, 76, 64
2, 308576, Note_on_c, 0, 76, 100
2, 308576, Note_off_c, 0, 64, 64
2, 308576, Note_on_c, 0, 64, 100
2, 308576, Note_off_c, 0, 45, 64
2, 308576, Note_on_c, 0, 45, 100
2, 308576, Note_off_c, 0, 76, 64
2, 308576, Note_on_c, 0, 76, 100
2, 308576, Note_off_c, 0, 73, 64
2, 308576, Note_on_c, 0, 73, 100
2, 308576, Note_off_c, 0, 57, 64
2, 308576, Note_on_c, 0, 57, 100
2, 308576, Note_off_c, 0, 57, 64
2, 308576, Note_off_c, 0, 61, 64
2, 309024, Note_off_c, 0, 64, 64
2, 309024, Note_off_c, 0, 76, 64
2, 309024, Note_on_c, 0, 64, 100
2, 309024, Note_off_c, 0, 45, 64
2, 309088, Note_on_c, 0, 57, 100
2, 309088, Note_off_c, 0, 45, 64
2, 309088, Note_on_c, 0, 45, 100
2, 309088, Note_off_c, 0, 74, 64
2, 309088, Note_on_c, 0, 74, 100
2, 309088, Note_off_c, 0, 64, 64
2, 309088, Note_on_c, 0, 64, 100
2, 309088, Note_off_c, 0, 58, 64
2, 309088, Note_on_c, 0, 58, 100
2, 309088, Note_off_c, 0, 57, 64
2, 309088, Note_on_c, 0, 57, 100
2, 309088, Note_off_c, 0, 61, 64
2, 309088, Note_on_c, 0, 61, 100
2, 309344, Note_off_c, 0, 61, 64
2, 309344, Note_off_c, 0, 62, 64
2, 309344, Note_on_c, 0, 62, 100
2, 309536, Note_off_c, 0, 45, 64
2, 309536, Note_off_c, 0, 64, 64
2, 309536, Note_off_c, 0, 57, 64
2, 309600, Note_off_c, 0, 62, 64
2, 309600, Note_off_c, 0, 61, 64
2, 309600, Note_on_c, 0, 61, 100
2, 309600, Note_off_c, 0, 58, 64
2, 309600, Note_on_c, 0, 56, 100
2, 309600, Note_on_c, 0, 57, 100
2, 309600, Note_off_c, 0, 53, 64
2, 309600, Note_off_c, 0, 69, 64
2, 309600, Note_on_c, 0, 69, 100
2, 309600, Note_on_c, 0, 53, 100
2, 309600, Note_on_c, 0, 45, 100
2, 309600, Note_off_c, 0, 45, 64
2, 309600, Note_on_c, 0, 45, 100
2, 310112, Note_off_c, 0, 69, 64
2, 310112, Note_on_c, 0, 69, 100
2, 310624, Note_off_c, 0, 74, 64
2, 310624, Note_off_c, 0, 70, 64
2, 310624, Note_on_c, 0, 70, 100
2, 310624, Note_off_c, 0, 61, 64
2, 310624, Note_off_c, 0, 40, 64
2, 310624, Note_on_c, 0, 61, 100
2, 310624, Note_on_c, 0, 52, 100
2, 310624, Note_on_c, 0, 58, 100
2, 311072, Note_off_c, 0, 69, 64
2, 311136, Note_off_c, 0, 70, 64
2, 311136, Note_off_c, 0, 69, 64
2, 311136, Note_on_c, 0, 69, 100
2, 311392, Note_off_c, 0, 69, 64
2, 311392, Note_on_c, 0, 70, 100
2, 311904, Note_on_c, 0, 64, 100
2, 311904, Note_off_c, 0, 65, 64
2, 311904, Note_on_c, 0, 65, 100
2, 311904, Note_off_c, 0, 62, 64
2, 311904, Note_on_c, 0, 62, 100
2, 311904, Note_off_c, 0, 61, 64
2, 311904, Note_off_c, 0, 57, 64
2, 311904, Note_on_c, 0, 57, 100
2, 311904, Note_off_c, 0, 49, 64
2, 311904, Note_on_c, 0, 49, 100
2, 312096, Note_off_c, 0, 64, 64
2, 312096, Note_off_c, 0, 62, 64
2, 312096, Note_off_c, 0, 65, 64
2, 312096, Note_on_c, 0, 65, 100
2, 312352, Note_on_c, 0, 62, 100
2, 312352, Note_off_c, 0, 65, 64
2, 312352, Note_off_c, 0, 57, 64
2, 312352, Note_on_c, 0, 55, 100
2, 312352, Note_off_c, 0, 49, 64
2, 312352, Note_on_c, 0, 49, 100
2, 312352, Note_off_c, 0, 49, 64
2, 312352, Note_on_c, 0, 49, 100
2, 312864, Note_on_c, 0, 64, 100
2, 312864, Note_off_c, 0, 65, 64
2, 312864, Note_on_c, 0, 65, 100
2, 312864, Note_off_c, 0, 55, 64
2, 312864, Note_on_c, 0, 57, 100
2, 312864, Note_off_c, 0, 49, 64
2, 312864, Note_on_c, 0, 50, 100
2, 312864, Note_off_c, 0, 50, 64
2, 312864, Note_on_c, 0, 50, 100
2, 313440, Note_off_c, 0, 65, 64
2, 313440, Note_off_c, 0, 57, 64
2, 313440, Note_off_c, 0, 50, 64
2, 313440, Note_off_c, 0, 62, 64
2, 313440, Note_on_c, 0, 62, 100
2, 313440, Note_on_c, 0, 50, 100
2, 313440, Note_off_c, 0, 53, 64
2, 313440, Note_on_c, 0, 53, 100
2, 313888, Note_off_c, 0, 62, 64
2, 313888, Note_off_c, 0, 53, 64
2, 313888, Note_off_c, 0, 64, 64
2, 313888, Note_on_c, 0, 64, 100
2, 313888, Note_on_c, 0, 55, 100
2, 313888, Note_off_c, 0, 49, 64
2, 313888, Note_on_c, 0, 49, 100
2, 314144, Note_off_c, 0, 64, 64
2, 314144, Note_off_c, 0, 69, 64
2, 314144, Note_on_c, 0, 69, 100
2, 314400, Note_on_c, 0, 65, 100
2, 314400, Note_off_c, 0, 69, 64
2, 314400, Note_off_c, 0, 67, 64
2, 314400, Note_on_c, 0, 67, 100
2, 314656, Note_off_c, 0, 67, 64
2, 314656, Note_off_c, 0, 65, 64
2, 314656, Note_on_c, 0, 65, 100
2, 314912, Note_off_c, 0, 65, 64
2, 314912, Note_off_c, 0, 64, 64
2, 314912, Note_on_c, 0, 64, 100
2, 314912, Note_off_c, 0, 57, 64
2, 314912, Note_on_c, 0, 57, 100
2, 314912, Note_off_c, 0, 49, 64
2, 314912, Note_on_c, 0, 49, 100
2, 315104, Note_off_c, 0, 64, 64
2, 315104, Note_off_c, 0, 69, 64
2, 315104, Note_on_c, 0, 69, 100
2, 315168, Note_off_c, 0, 57, 64
2, 315168, Note_off_c, 0, 64, 64
2, 315168, Note_on_c, 0, 64, 100
2, 315424, Note_off_c, 0, 69, 64
2, 315424, Note_off_c, 0, 64, 64
2, 315424, Note_off_c, 0, 67, 64
2, 315424, Note_on_c, 0, 67, 100
2, 315424, Note_off_c, 0, 52, 64
2, 315616, Note_off_c, 0, 67, 64
2, 315616, Note_on_c, 0, 66, 100
2, 315680, Note_off_c, 0, 66, 64
2, 315680, Note_off_c, 0, 64, 64
2, 315680, Note_on_c, 0, 64, 100
2, 315680, Note_off_c, 0, 49, 64
2, 315680, Note_off_c, 0, 50, 64
2, 315680, Note_on_c, 0, 50, 100
2, 315936, Note_off_c, 0, 64, 64
2, 315936, Note_off_c, 0, 62, 64
2, 315936, Note_on_c, 0, 62, 100
2, 316192, Note_off_c, 0, 62, 64
2, 316192, Note_off_c, 0, 61, 64
2, 316192, Note_on_c, 0, 61, 100
2, 316192, Note_off_c, 0, 50, 64
2, 316192, Note_off_c, 0, 45, 64
2, 316192, Note_on_c, 0, 45, 100
2, 316704, Note_off_c, 0, 61, 64
2, 316704, Note_off_c, 0, 62, 64
2, 316704, Note_on_c, 0, 62, 100
2, 316704, Note_off_c, 0, 45, 64
2, 316704, Note_off_c, 0, 47, 64
2, 316704, Note_on_c, 0, 47, 100
2, 316960, Note_off_c, 0, 47, 64
2, 316960, Note_off_c, 0, 48, 64
2, 316960, Note_on_c, 0, 48, 100
2, 317216, Note_off_c, 0, 62, 64
2, 317216, Note_off_c, 0, 57, 64
2, 317216, Note_on_c, 0, 57, 100
2, 317216, Note_off_c, 0, 48, 64
2, 317728, Note_off_c, 0, 59, 64
2, 317728, Note_on_c, 0, 59, 100
2, 318240, Note_off_c, 0, 59, 64
2, 318240, Note_off_c, 0, 67, 64
2, 318240, Note_on_c, 0, 67, 100
2, 318240, Note_off_c, 0, 57, 64
2, 318240, Note_on_c, 0, 57, 100
2, 318240, Note_off_c, 0, 62, 64
2, 318240, Note_on_c, 0, 62, 100
2, 318240, Note_off_c, 0, 50, 64
2, 318240, Note_on_c, 0, 50, 100
2, 318560, Note_off_c, 0, 50, 64
2, 318752, Note_off_c, 0, 57, 64
2, 318752, Note_on_c, 0, 57, 100
2, 318752, Note_off_c, 0, 50, 64
2, 318752, Note_on_c, 0, 50, 100
2, 318752, Note_off_c, 0, 62, 64
2, 318752, Note_on_c, 0, 62, 100
2, 318752, Note_off_c, 0, 57, 64
2, 318752, Note_on_c, 0, 57, 100
2, 318752, Note_off_c, 0, 66, 64
2, 318752, Note_on_c, 0, 66, 100
2, 318752, Note_off_c, 0, 67, 64
2, 319072, Note_off_c, 0, 57, 64
2, 319072, Note_off_c, 0, 50, 64
2, 319072, Note_off_c, 0, 66, 64
2, 319072, Note_off_c, 0, 62, 64
2, 319072, Note_on_c, 0, 54, 100
2, 319072, Note_off_c, 0, 55, 64
2, 319072, Note_on_c, 0, 55, 100
2, 319264, Note_off_c, 0, 55, 64
2, 319264, Note_off_c, 0, 57, 64
2, 319264, Note_on_c, 0, 57, 100
2, 319264, Note_off_c, 0, 54, 64
2, 319264, Note_on_c, 0, 54, 100
2, 319776, Note_off_c, 0, 57, 64
2, 319776, Note_off_c, 0, 54, 64
2, 319776, Note_off_c, 0, 52, 64
2, 319776, Note_on_c, 0, 52, 100
2, 319776, Note_off_c, 0, 55, 64
2, 319776, Note_on_c, 0, 55, 100
2, 319776, Note_on_c, 0, 57, 100
2, 319776, Note_off_c, 0, 57, 64
2, 320288, Note_on_c, 0, 57, 100
2, 320288, Note_off_c, 0, 55, 64
2, 320288, Note_off_c, 0, 52, 64
2, 320288, Note_on_c, 0, 52, 100
2, 320288, Note_on_c, 0, 54, 100
2, 320288, Note_on_c, 0, 50, 100
2, 320288, Note_off_c, 0, 67, 64
2, 320288, Note_on_c, 0, 67, 100
2, 320288, Note_off_c, 0, 52, 64
2, 320288, Note_on_c, 0, 52, 100
2, 320608, Note_off_c, 0, 54, 64
2, 320608, Note_on_c, 0, 54, 100
2, 320800, Note_off_c, 0, 54, 64
2, 320800, Note_off_c, 0, 50, 64
2, 320800, Note_off_c, 0, 67, 64
2, 320800, Note_on_c, 0, 67, 100
2, 320800, Note_off_c, 0, 52, 64
2, 320800, Note_on_c, 0, 52, 100
2, 320992, Note_off_c, 0, 52, 64
2, 320992, Note_off_c, 0, 50, 64
2, 320992, Note_on_c, 0, 50, 100
2, 321120, Note_off_c, 0, 50, 64
2, 321120, Note_on_c, 0, 50, 100
2, 321248, Note_off_c, 0, 50, 64
2, 321248, Note_off_c, 0, 52, 64
2, 321248, Note_on_c, 0, 52, 100
2, 321376, Note_off_c, 0, 67, 64
2, 321376, Note_off_c, 0, 66, 64
2, 321376, Note_on_c, 0, 66, 100
2, 321376, Note_off_c, 0, 52, 64
2, 321376, Note_off_c, 0, 50, 64
2, 321376, Note_on_c, 0, 50, 100
2, 321440, Note_off_c, 0, 50, 64
2, 321440, Note_on_c, 0, 50, 100
2, 321568, Note_off_c, 0, 50, 64
2, 321568, Note_on_c, 0, 50, 100
2, 321632, Note_off_c, 0, 66, 64
2, 321632, Note_off_c, 0, 50, 64
2, 321632, Note_on_c, 0, 62, 100
2, 321632, Note_off_c, 0, 67, 64
2, 321632, Note_on_c, 0, 67, 100
2, 321632, Note_off_c, 0, 48, 64
2, 321632, Note_on_c, 0, 48, 100
2, 322016, Note_off_c, 0, 67, 64
2, 322016, Note_off_c, 0, 62, 64
2, 322016, Note_off_c, 0, 48, 64
2, 322016, Note_off_c, 0, 47, 64
2, 322016, Note_on_c, 0, 47, 100
2, 322016, Note_on_c, 0, 62, 100
2, 322016, Note_off_c, 0, 62, 64
2, 322144, Note_off_c, 0, 62, 64
2, 322144, Note_on_c, 0, 62, 100
2, 322144, Note_on_c, 0, 48, 100
2, 322144, Note_off_c, 0, 47, 64
2, 322144, Note_on_c, 0, 60, 100
2, 322144, Note_off_c, 0, 67, 64
2, 322144, Note_on_c, 0, 67, 100
2, 322400, Note_off_c, 0, 67, 64
2, 322400, Note_on_c, 0, 47, 100
2, 322400, Note_on_c, 0, 59, 100
2, 322400, Note_off_c, 0, 62, 64
2, 322400, Note_off_c, 0, 50, 64
2, 322400, Note_on_c, 0, 50, 100
2, 322592, Note_on_c, 0, 62, 100
2, 322592, Note_off_c, 0, 59, 64
2, 322592, Note_on_c, 0, 59, 100
2, 322656, Note_off_c, 0, 50, 64
2, 322656, Note_off_c, 0, 62, 64
2, 322656, Note_on_c, 0, 50, 100
2, 322656, Note_off_c, 0, 60, 64
2, 322656, Note_on_c, 0, 60, 100
2, 322656, Note_off_c, 0, 50, 64
2, 322656, Note_off_c, 0, 59, 64
2, 322720, Note_off_c, 0, 60, 64
2, 322720, Note_on_c, 0, 59, 100
2, 322720, Note_on_c, 0, 62, 100
2, 322912, Note_off_c, 0, 62, 64
2, 322912, Note_off_c, 0, 69, 64
2, 322912, Note_on_c, 0, 69, 100
2, 322912, Note_off_c, 0, 60, 64
2, 322912, Note_on_c, 0, 60, 100
2, 322976, Note_off_c, 0, 69, 64
2, 322976, Note_off_c, 0, 60, 64
2, 323168, Note_off_c, 0, 67, 64
2, 323168, Note_on_c, 0, 67, 100
2, 323168, Note_off_c, 0, 64, 64
2, 323168, Note_on_c, 0, 64, 100
2, 323168, Note_off_c, 0, 57, 64
2, 323168, Note_on_c, 0, 57, 100
2, 323232, Note_off_c, 0, 57, 64
2, 323232, Note_off_c, 0, 62, 64
2, 323232, Note_on_c, 0, 62, 100
2, 323424, Note_off_c, 0, 67, 64
2, 323424, Note_off_c, 0, 64, 64
2, 323424, Note_off_c, 0, 62, 64
2, 323424, Note_off_c, 0, 55, 64
2, 323424, Note_on_c, 0, 55, 100
2, 323488, Note_off_c, 0, 43, 64
2, 323488, Note_on_c, 0, 43, 100
2, 323616, Note_off_c, 0, 55, 64
2, 323616, Note_off_c, 0, 54, 64
2, 323616, Note_on_c, 0, 54, 100
2, 323744, Note_off_c, 0, 54, 64
2, 323744, Note_off_c, 0, 55, 64
2, 323744, Note_on_c, 0, 55, 100
2, 323936, Note_off_c, 0, 55, 64
2, 323936, Note_on_c, 0, 62, 100
2, 323936, Note_off_c, 0, 54, 64
2, 323936, Note_on_c, 0, 54, 100
2, 323936, Note_off_c, 0, 43, 64
2, 323936, Note_on_c, 0, 45, 100
2, 324000, Note_off_c, 0, 66, 64
2, 324000, Note_on_c, 0, 66, 100
2, 324000, Note_off_c, 0, 62, 64
2, 324000, Note_on_c, 0, 62, 100
2, 324000, Note_off_c, 0, 57, 64
2, 324000, Note_on_c, 0, 57, 100
2, 324064, Note_off_c, 0, 45, 64
2, 324192, Note_on_c, 0, 45, 100
2, 324192, Note_on_c, 0, 50, 100
2, 324192, Note_off_c, 0, 62, 64
2, 324192, Note_off_c, 0, 57, 64
2, 324256, Note_off_c, 0, 66, 64
2, 324256, Note_off_c, 0, 50, 64
2, 324256, Note_off_c, 0, 71, 64
2, 324256, Note_on_c, 0, 71, 100
2, 324256, Note_off_c, 0, 45, 64
2, 324256, Note_on_c, 0, 43, 100
2, 324256, Note_off_c, 0, 54, 64
2, 324256, Note_off_c, 0, 55, 64
2, 324256, Note_on_c, 0, 55, 100
2, 324384, Note_off_c, 0, 43, 64
2, 324384, Note_off_c, 0, 54, 64
2, 324384, Note_on_c, 0, 54, 100
2, 324448, Note_off_c, 0, 55, 64
2, 324512, Note_off_c, 0, 54, 64
2, 324512, Note_on_c, 0, 54, 100
2, 324512, Note_off_c, 0, 54, 64
2, 324512, Note_off_c, 0, 55, 64
2, 324512, Note_on_c, 0, 55, 100
2, 324640, Note_off_c, 0, 55, 64
2, 324640, Note_off_c, 0, 54, 64
2, 324640, Note_on_c, 0, 54, 100
2, 324704, Note_off_c, 0, 71, 64
2, 324704, Note_on_c, 0, 55, 100
2, 324768, Note_off_c, 0, 54, 64
2, 324768, Note_off_c, 0, 55, 64
2, 324768, Note_on_c, 0, 55, 100
2, 324768, Note_off_c, 0, 47, 64
2, 324768, Note_on_c, 0, 47, 100
2, 324768, Note_off_c, 0, 71, 64
2, 324768, Note_on_c, 0, 71, 100
2, 324768, Note_off_c, 0, 59, 64
2, 324768, Note_off_c, 0, 52, 64
2, 324768, Note_on_c, 0, 52, 100
2, 325024, Note_off_c, 0, 52, 64
2, 325024, Note_off_c, 0, 54, 64
2, 325024, Note_on_c, 0, 54, 100
2, 325280, Note_off_c, 0, 75, 64
2, 325280, Note_off_c, 0, 55, 64
2, 325280, Note_off_c, 0, 54, 64
2, 325280, Note_off_c, 0, 71, 64
2, 325280, Note_on_c, 0, 59, 100
2, 325280, Note_on_c, 0, 75, 100
2, 325280, Note_off_c, 0, 75, 64
2, 325280, Note_off_c, 0, 66, 64
2, 325280, Note_on_c, 0, 66, 100
2, 325280, Note_on_c, 0, 42, 100
2, 325280, Note_off_c, 0, 47, 64
2, 325280, Note_on_c, 0, 47, 100
2, 325536, Note_off_c, 0, 66, 64
2, 325536, Note_on_c, 0, 75, 100
2, 325536, Note_off_c, 0, 78, 64
2, 325536, Note_on_c, 0, 78, 100
2, 325536, Note_off_c, 0, 71, 64
2, 325536, Note_on_c, 0, 71, 100
2, 325792, Note_off_c, 0, 71, 64
2, 325792, Note_off_c, 0, 78, 64
2, 325792, Note_off_c, 0, 47, 64
2, 325792, Note_off_c, 0, 39, 64
2, 325792, Note_on_c, 0, 39, 100
2, 325792, Note_off_c, 0, 76, 64
2, 325792, Note_on_c, 0, 76, 100
2, 325792, Note_off_c, 0, 59, 64
2, 325792, Note_on_c, 0, 59, 100
2, 326048, Note_off_c, 0, 71, 64
2, 326048, Note_on_c, 0, 71, 100
2, 326176, Note_on_c, 0, 52, 100
2, 326176, Note_off_c, 0, 59, 64
2, 326176, Note_off_c, 0, 76, 64
2, 326176, Note_off_c, 0, 71, 64
2, 326304, Note_off_c, 0, 51, 64
2, 326304, Note_on_c, 0, 51, 100
2, 326304, Note_on_c, 0, 40, 100
2, 326304, Note_off_c, 0, 40, 64
2, 326304, Note_on_c, 0, 40, 100
2, 326560, Note_off_c, 0, 61, 64
2, 326560, Note_on_c, 0, 61, 100
2, 326688, Note_off_c, 0, 61, 64
2, 326688, Note_off_c, 0, 63, 64
2, 326688, Note_on_c, 0, 63, 100
2, 326816, Note_off_c, 0, 63, 64
2, 326816, Note_off_c, 0, 52, 64
2, 326816, Note_on_c, 0, 63, 100
2, 326816, Note_off_c, 0, 63, 64
2, 326816, Note_on_c, 0, 64, 100
2, 326816, Note_off_c, 0, 48, 64
2, 326816, Note_off_c, 0, 39, 64
2, 327328, Note_off_c, 0, 68, 64
2, 327328, Note_on_c, 0, 68, 100
2, 327328, Note_off_c, 0, 52, 64
2, 327328, Note_on_c, 0, 52, 100
2, 327328, Note_off_c, 0, 64, 64
2, 327328, Note_off_c, 0, 59, 64
2, 327328, Note_on_c, 0, 59, 100
2, 327328, Note_off_c, 0, 40, 64
2, 327328, Note_on_c, 0, 40, 100
2, 327456, Note_off_c, 0, 68, 64
2, 327456, Note_off_c, 0, 59, 64
2, 327456, Note_on_c, 0, 59, 100
2, 327584, Note_off_c, 0, 64, 64
2, 327584, Note_on_c, 0, 64, 100
2, 327584, Note_off_c, 0, 59, 64
2, 327584, Note_on_c, 0, 44, 100
2, 327584, Note_off_c, 0, 56, 64
2, 327584, Note_on_c, 0, 56, 100
2, 327712, Note_off_c, 0, 64, 64
2, 327712, Note_off_c, 0, 66, 64
2, 327712, Note_on_c, 0, 66, 100
2, 327840, Note_off_c, 0, 66, 64
2, 327840, Note_off_c, 0, 56, 64
2, 327840, Note_off_c, 0, 52, 64
2, 327840, Note_off_c, 0, 44, 64
2, 327840, Note_off_c, 0, 64, 64
2, 327840, Note_on_c, 0, 64, 100
2, 327840, Note_off_c, 0, 68, 64
2, 327840, Note_on_c, 0, 68, 100
2, 328096, Note_off_c, 0, 64, 64
2, 328096, Note_off_c, 0, 67, 64
2, 328096, Note_on_c, 0, 67, 100
2, 328224, Note_off_c, 0, 67, 64
2, 328224, Note_off_c, 0, 68, 64
2, 328288, Note_off_c, 0, 66, 64
2, 328288, Note_on_c, 0, 66, 100
2, 328352, Note_off_c, 0, 68, 64
2, 328352, Note_on_c, 0, 68, 100
2, 328352, Note_off_c, 0, 64, 64
2, 328352, Note_on_c, 0, 64, 100
2, 328608, Note_off_c, 0, 64, 64
2, 328608, Note_off_c, 0, 68, 64
2, 328608, Note_on_c, 0, 68, 100
2, 328736, Note_off_c, 0, 68, 64
2, 328736, Note_off_c, 0, 71, 64
2, 328736, Note_on_c, 0, 71, 100
2, 328864, Note_off_c, 0, 71, 64
2, 328864, Note_off_c, 0, 72, 64
2, 328864, Note_on_c, 0, 72, 100
2, 328992, Note_off_c, 0, 72, 64
2, 328992, Note_off_c, 0, 71, 64
2, 328992, Note_on_c, 0, 71, 100
2, 329120, Note_off_c, 0, 71, 64
2, 329120, Note_off_c, 0, 72, 64
2, 329120, Note_on_c, 0, 72, 100
2, 329248, Note_off_c, 0, 75, 64
2, 329248, Note_off_c, 0, 72, 64
2, 329248, Note_on_c, 0, 72, 100
2, 329376, Note_off_c, 0, 72, 64
2, 329376, Note_off_c, 0, 76, 64
2, 329376, Note_on_c, 0, 76, 100
2, 329376, Note_off_c, 0, 71, 64
2, 329376, Note_on_c, 0, 71, 100
2, 329504, Note_off_c, 0, 71, 64
2, 329504, Note_off_c, 0, 69, 64
2, 329504, Note_on_c, 0, 69, 100
2, 329632, Note_off_c, 0, 69, 64
2, 329632, Note_off_c, 0, 67, 64
2, 329632, Note_on_c, 0, 67, 100
2, 329760, Note_off_c, 0, 76, 64
2, 329760, Note_on_c, 0, 76, 100
2, 329760, Note_off_c, 0, 84, 64
2, 329760, Note_on_c, 0, 84, 100
2, 329760, Note_off_c, 0, 75, 64
2, 329760, Note_on_c, 0, 75, 100
2, 329888, Note_off_c, 0, 84, 64
2, 329888, Note_off_c, 0, 76, 64
2, 329888, Note_off_c, 0, 75, 64
2, 329888, Note_on_c, 0, 75, 100
2, 329888, Note_off_c, 0, 67, 64
2, 329888, Note_off_c, 0, 66, 64
2, 329888, Note_on_c, 0, 66, 100
2, 330016, Note_off_c, 0, 66, 64
2, 330016, Note_off_c, 0, 75, 64
2, 330016, Note_on_c, 0, 75, 100
2, 330144, Note_off_c, 0, 75, 64
2, 330144, Note_off_c, 0, 74, 64
2, 330144, Note_on_c, 0, 74, 100
2, 330272, Note_off_c, 0, 74, 64
2, 330272, Note_off_c, 0, 78, 64
2, 330272, Note_on_c, 0, 78, 100
2, 330272, Note_off_c, 0, 69, 64
2, 330272, Note_on_c, 0, 69, 100
2, 330400, Note_off_c, 0, 69, 64
2, 330400, Note_off_c, 0, 78, 64
2, 330400, Note_on_c, 0, 78, 100
2, 330400, Note_off_c, 0, 78, 64
2, 330400, Note_off_c, 0, 74, 64
2, 330400, Note_on_c, 0, 74, 100
2, 330528, Note_off_c, 0, 74, 64
2, 330528, Note_off_c, 0, 84, 64
2, 330528, Note_on_c, 0, 84, 100
2, 330528, Note_on_c, 0, 81, 100
2, 330528, Note_on_c, 0, 69, 100
2, 330656, Note_off_c, 0, 69, 64
2, 330656, Note_off_c, 0, 84, 64
2, 330656, Note_on_c, 0, 83, 100
2, 330656, Note_off_c, 0, 83, 64
2, 330656, Note_on_c, 0, 83, 100
2, 330656, Note_off_c, 0, 64, 64
2, 330656, Note_on_c, 0, 64, 100
2, 330784, Note_off_c, 0, 83, 64
2, 330784, Note_off_c, 0, 81, 64
2, 330784, Note_on_c, 0, 81, 100
2, 330912, Note_off_c, 0, 81, 64
2, 330912, Note_off_c, 0, 74, 64
2, 330912, Note_on_c, 0, 74, 100
2, 330912, Note_off_c, 0, 64, 64
2, 331040, Note_off_c, 0, 66, 64
2, 331040, Note_on_c, 0, 66, 100
2, 331168, Note_off_c, 0, 74, 64
2, 331168, Note_off_c, 0, 66, 64
2, 331168, Note_off_c, 0, 78, 64
2, 331168, Note_on_c, 0, 78, 100
2, 331168, Note_off_c, 0, 48, 64
2, 331168, Note_on_c, 0, 48, 100
2, 331296, Note_off_c, 0, 78, 64
2, 331296, Note_off_c, 0, 48, 64
2, 331296, Note_off_c, 0, 66, 64
2, 331296, Note_on_c, 0, 66, 100
2, 331296, Note_on_c, 0, 75, 100
2, 331296, Note_off_c, 0, 75, 64
2, 331296, Note_off_c, 0, 45, 64
2, 331296, Note_on_c, 0, 45, 100
2, 331296, Note_on_c, 0, 75, 100
2, 331296, Note_off_c, 0, 75, 64
2, 331296, Note_off_c, 0, 42, 64
2, 331296, Note_on_c, 0, 42, 100
2, 331296, Note_off_c, 0, 60, 64
2, 331296, Note_on_c, 0, 60, 100
2, 331424, Note_on_c, 0, 48, 100
2, 331424, Note_off_c, 0, 66, 64
2, 331424, Note_on_c, 0, 75, 100
2, 331424, Note_off_c, 0, 67, 64
2, 331424, Note_on_c, 0, 67, 100
2, 331424, Note_off_c, 0, 60, 64
2, 331424, Note_on_c, 0, 60, 100
2, 331424, Note_off_c, 0, 78, 64
2, 331424, Note_on_c, 0, 78, 100
2, 331424, Note_off_c, 0, 45, 64
2, 331424, Note_on_c, 0, 45, 100
2, 331424, Note_on_c, 0, 69, 100
2, 331424, Note_off_c, 0, 69, 64
2, 331424, Note_off_c, 0, 72, 64
2, 331424, Note_on_c, 0, 72, 100
2, 331424, Note_on_c, 0, 69, 100
2, 331424, Note_off_c, 0, 69, 64
2, 331552, Note_on_c, 0, 69, 100
2, 331552, Note_off_c, 0, 45, 64
2, 331552, Note_off_c, 0, 67, 64
2, 331552, Note_on_c, 0, 67, 100
2, 331552, Note_off_c, 0, 60, 64
2, 331552, Note_on_c, 0, 60, 100
2, 331552, Note_off_c, 0, 67, 64
2, 331552, Note_on_c, 0, 55, 100
2, 331680, Note_off_c, 0, 72, 64
2, 331680, Note_off_c, 0, 70, 64
2, 331680, Note_off_c, 0, 60, 64
2, 331680, Note_on_c, 0, 43, 100
2, 331680, Note_on_c, 0, 74, 100
2, 331680, Note_off_c, 0, 79, 64
2, 331680, Note_on_c, 0, 79, 100
2, 331680, Note_on_c, 0, 60, 100
2, 331680, Note_off_c, 0, 60, 64
2, 331808, Note_on_c, 0, 60, 100
2, 331808, Note_off_c, 0, 74, 64
2, 331808, Note_off_c, 0, 72, 64
2, 331808, Note_on_c, 0, 72, 100
2, 331808, Note_off_c, 0, 57, 64
2, 331808, Note_on_c, 0, 57, 100
2, 331936, Note_off_c, 0, 79, 64
2, 331936, Note_off_c, 0, 72, 64
2, 331936, Note_off_c, 0, 57, 64
2, 331936, Note_on_c, 0, 74, 100
2, 331936, Note_off_c, 0, 74, 64
2, 331936, Note_on_c, 0, 67, 100
2, 331936, Note_off_c, 0, 55, 64
2, 331936, Note_on_c, 0, 55, 100
2, 331936, Note_off_c, 0, 71, 64
2, 331936, Note_on_c, 0, 71, 100
2, 331936, Note_on_c, 0, 77, 100
2, 331936, Note_on_c, 0, 74, 100
2, 332064, Note_off_c, 0, 74, 64
2, 332064, Note_off_c, 0, 71, 64
2, 332064, Note_off_c, 0, 72, 64
2, 332064, Note_on_c, 0, 72, 100
2, 332192, Note_off_c, 0, 74, 64
2, 332192, Note_off_c, 0, 72, 64
2, 332192, Note_off_c, 0, 67, 64
2, 332192, Note_off_c, 0, 55, 64
2, 332192, Note_off_c, 0, 77, 64
2, 332192, Note_on_c, 0, 67, 100
2, 332192, Note_on_c, 0, 74, 100
2, 332192, Note_on_c, 0, 72, 100
2, 332320, Note_off_c, 0, 72, 64
2, 332320, Note_off_c, 0, 74, 64
2, 332320, Note_on_c, 0, 74, 100
2, 332320, Note_off_c, 0, 67, 64
2, 332320, Note_on_c, 0, 68, 100
2, 332448, Note_off_c, 0, 74, 64
2, 332448, Note_on_c, 0, 65, 100
2, 332448, Note_off_c, 0, 68, 64
2, 332448, Note_off_c, 0, 69, 64
2, 332448, Note_on_c, 0, 69, 100
2, 332448, Note_off_c, 0, 72, 64
2, 332448, Note_on_c, 0, 72, 100
2, 332576, Note_off_c, 0, 72, 64
2, 332576, Note_off_c, 0, 69, 64
2, 332576, Note_off_c, 0, 71, 64
2, 332576, Note_on_c, 0, 71, 100
2, 332704, Note_off_c, 0, 71, 64
2, 332704, Note_on_c, 0, 63, 100
2, 332704, Note_off_c, 0, 72, 64
2, 332704, Note_on_c, 0, 72, 100
2, 332704, Note_off_c, 0, 62, 64
2, 332704, Note_on_c, 0, 62, 100
2, 332704, Note_off_c, 0, 69, 64
2, 332704, Note_on_c, 0, 69, 100
2, 332704, Note_off_c, 0, 57, 64
2, 332704, Note_on_c, 0, 57, 100
2, 332704, Note_off_c, 0, 74, 64
2, 332704, Note_on_c, 0, 74, 100
2, 332832, Note_off_c, 0, 74, 64
2, 332832, Note_off_c, 0, 72, 64
2, 332832, Note_on_c, 0, 72, 100
2, 332896, Note_off_c, 0, 69, 64
2, 332960, Note_off_c, 0, 72, 64
2, 332960, Note_off_c, 0, 69, 64
2, 332960, Note_on_c, 0, 69, 100
2, 332960, Note_off_c, 0, 53, 64
2, 332960, Note_on_c, 0, 53, 100
2, 332960, Note_on_c, 0, 52, 100
2, 332960, Note_on_c, 0, 72, 100
2, 333088, Note_off_c, 0, 72, 64
2, 333088, Note_off_c, 0, 71, 64
2, 333088, Note_on_c, 0, 71, 100
2, 333088, Note_off_c, 0, 74, 64
2, 333088, Note_on_c, 0, 74, 100
2, 333216, Note_off_c, 0, 57, 64
2, 333216, Note_off_c, 0, 71, 64
2, 333216, Note_off_c, 0, 53, 64
2, 333216, Note_off_c, 0, 74, 64
2, 333216, Note_off_c, 0, 52, 64
2, 333216, Note_off_c, 0, 72, 64
2, 333216, Note_on_c, 0, 72, 100
2, 333216, Note_off_c, 0, 65, 64
2, 333216, Note_on_c, 0, 65, 100
2, 333216, Note_on_c, 0, 52, 100
2, 333216, Note_off_c, 0, 52, 64
2, 333216, Note_on_c, 0, 71, 100
2, 333344, Note_off_c, 0, 71, 64
2, 333344, Note_on_c, 0, 52, 100
2, 333344, Note_off_c, 0, 69, 64
2, 333344, Note_on_c, 0, 69, 100
2, 333344, Note_off_c, 0, 40, 64
2, 333472, Note_off_c, 0, 69, 64
2, 333472, Note_on_c, 0, 41, 100
2, 333472, Note_off_c, 0, 71, 64
2, 333472, Note_on_c, 0, 71, 100
2, 333472, Note_off_c, 0, 65, 64
2, 333472, Note_off_c, 0, 76, 64
2, 333472, Note_on_c, 0, 76, 100
2, 333472, Note_off_c, 0, 72, 64
2, 333472, Note_on_c, 0, 72, 100
2, 333600, Note_off_c, 0, 71, 64
2, 333600, Note_off_c, 0, 74, 64
2, 333600, Note_on_c, 0, 74, 100
2, 333600, Note_off_c, 0, 72, 64
2, 333600, Note_on_c, 0, 72, 100
2, 333728, Note_off_c, 0, 76, 64
2, 333728, Note_off_c, 0, 72, 64
2, 333728, Note_off_c, 0, 52, 64
2, 333728, Note_off_c, 0, 71, 64
2, 333728, Note_on_c, 0, 71, 100
2, 333728, Note_off_c, 0, 55, 64
2, 333728, Note_on_c, 0, 55, 100
2, 333728, Note_off_c, 0, 74, 64
2, 333728, Note_on_c, 0, 77, 100
2, 333856, Note_off_c, 0, 76, 64
2, 333856, Note_on_c, 0, 76, 100
2, 333856, Note_off_c, 0, 77, 64
2, 333856, Note_on_c, 0, 77, 100
2, 333856, Note_off_c, 0, 74, 64
2, 333856, Note_on_c, 0, 74, 100
2, 333984, Note_off_c, 0, 76, 64
2, 333984, Note_off_c, 0, 74, 64
2, 333984, Note_off_c, 0, 71, 64
2, 333984, Note_off_c, 0, 55, 64
2, 333984, Note_on_c, 0, 52, 100
2, 333984, Note_off_c, 0, 72, 64
2, 333984, Note_on_c, 0, 72, 100
2, 333984, Note_off_c, 0, 77, 64
2, 334112, Note_off_c, 0, 72, 64
2, 334112, Note_on_c, 0, 77, 100
2, 334112, Note_off_c, 0, 77, 64
2, 334112, Note_on_c, 0, 77, 100
2, 334112, Note_off_c, 0, 74, 64
2, 334112, Note_on_c, 0, 74, 100
2, 334240, Note_off_c, 0, 77, 64
2, 334240, Note_off_c, 0, 55, 64
2, 334240, Note_off_c, 0, 79, 64
2, 334240, Note_on_c, 0, 55, 100
2, 334240, Note_off_c, 0, 74, 64
2, 334240, Note_on_c, 0, 79, 100
2, 334240, Note_off_c, 0, 71, 64
2, 334240, Note_on_c, 0, 71, 100
2, 334368, Note_off_c, 0, 79, 64
2, 334368, Note_off_c, 0, 55, 64
2, 334368, Note_off_c, 0, 71, 64
2, 334368, Note_on_c, 0, 59, 100
2, 334368, Note_off_c, 0, 74, 64
2, 334368, Note_on_c, 0, 74, 100
2, 334368, Note_off_c, 0, 77, 64
2, 334368, Note_on_c, 0, 77, 100
2, 334368, Note_off_c, 0, 69, 64
2, 334368, Note_on_c, 0, 69, 100
2, 334496, Note_off_c, 0, 59, 64
2, 334496, Note_off_c, 0, 77, 64
2, 334496, Note_off_c, 0, 69, 64
2, 334496, Note_off_c, 0, 74, 64
2, 334496, Note_off_c, 0, 57, 64
2, 334496, Note_on_c, 0, 57, 100
2, 334496, Note_on_c, 0, 55, 100
2, 334496, Note_on_c, 0, 84, 100
2, 334496, Note_off_c, 0, 76, 64
2, 334496, Note_on_c, 0, 76, 100
2, 334496, Note_off_c, 0, 60, 64
2, 334496, Note_on_c, 0, 60, 100
2, 334624, Note_off_c, 0, 84, 64
2, 334624, Note_off_c, 0, 76, 64
2, 334624, Note_off_c, 0, 81, 64
2, 334624, Note_on_c, 0, 81, 100
2, 334752, Note_off_c, 0, 60, 64
2, 334752, Note_off_c, 0, 57, 64
2, 334752, Note_off_c, 0, 81, 64
2, 334752, Note_on_c, 0, 79, 100
2, 334752, Note_off_c, 0, 77, 64
2, 334752, Note_on_c, 0, 77, 100
2, 334752, Note_off_c, 0, 62, 64
2, 334816, Note_off_c, 0, 55, 64
2, 334816, Note_on_c, 0, 62, 100
2, 334880, Note_off_c, 0, 79, 64
2, 334880, Note_off_c, 0, 76, 64
2, 334880, Note_on_c, 0, 76, 100
2, 334880, Note_on_c, 0, 67, 100
2, 334880, Note_off_c, 0, 67, 64
2, 334880, Note_on_c, 0, 67, 100
2, 335008, Note_off_c, 0, 77, 64
2, 335008, Note_off_c, 0, 67, 64
2, 335008, Note_on_c, 0, 55, 100
2, 335008, Note_off_c, 0, 76, 64
2, 335008, Note_on_c, 0, 67, 100
2, 335008, Note_off_c, 0, 55, 64
2, 335008, Note_on_c, 0, 55, 100
2, 335008, Note_off_c, 0, 71, 64
2, 335008, Note_on_c, 0, 71, 100
2, 335008, Note_off_c, 0, 67, 64
2, 335264, Note_on_c, 0, 67, 100
2, 335264, Note_off_c, 0, 55, 64
2, 335264, Note_off_c, 0, 74, 64
2, 335264, Note_on_c, 0, 74, 100
2, 335264, Note_off_c, 0, 71, 64
2, 335264, Note_off_c, 0, 65, 64
2, 335264, Note_on_c, 0, 65, 100
2, 335264, Note_off_c, 0, 47, 64
2, 335264, Note_on_c, 0, 47, 100
2, 335392, Note_off_c, 0, 74, 64
2, 335392, Note_off_c, 0, 65, 64
2, 335392, Note_on_c, 0, 55, 100
2, 335392, Note_off_c, 0, 47, 64
2, 335392, Note_off_c, 0, 76, 64
2, 335392, Note_on_c, 0, 76, 100
2, 335392, Note_on_c, 0, 65, 100
2, 335392, Note_off_c, 0, 71, 64
2, 335392, Note_on_c, 0, 71, 100
2, 335392, Note_off_c, 0, 67, 64
2, 335392, Note_on_c, 0, 67, 100
2, 335392, Note_off_c, 0, 43, 64
2, 335392, Note_on_c, 0, 43, 100
2, 335392, Note_off_c, 0, 77, 64
2, 335392, Note_on_c, 0, 77, 100
2, 335392, Note_off_c, 0, 59, 64
2, 335392, Note_on_c, 0, 59, 100
2, 335392, Note_off_c, 0, 50, 64
2, 335392, Note_on_c, 0, 50, 100
2, 335392, Note_on_c, 0, 38, 100
2, 335584, Note_off_c, 0, 71, 64
2, 335584, Note_off_c, 0, 50, 64
2, 335584, Note_off_c, 0, 77, 64
2, 335584, Note_off_c, 0, 76, 64
2, 335584, Note_off_c, 0, 43, 64
2, 335584, Note_off_c, 0, 52, 64
2, 335584, Note_on_c, 0, 52, 100
2, 335584, Note_on_c, 0, 76, 100
2, 335584, Note_off_c, 0, 76, 64
2, 335584, Note_off_c, 0, 67, 64
2, 335584, Note_on_c, 0, 67, 100
2, 335584, Note_off_c, 0, 55, 64
2, 335584, Note_on_c, 0, 55, 100
2, 335712, Note_off_c, 0, 52, 64
2, 335712, Note_off_c, 0, 55, 64
2, 335712, Note_off_c, 0, 67, 64
2, 335712, Note_off_c, 0, 43, 64
2, 335712, Note_on_c, 0, 43, 100
2, 335712, Note_off_c, 0, 59, 64
2, 335712, Note_on_c, 0, 60, 100
2, 335712, Note_on_c, 0, 55, 100
2, 335712, Note_off_c, 0, 55, 64
2, 335712, Note_on_c, 0, 76, 100
2, 335840, Note_off_c, 0, 76, 64
2, 335840, Note_off_c, 0, 60, 64
2, 335840, Note_on_c, 0, 55, 100
2, 335840, Note_off_c, 0, 43, 64
2, 335840, Note_off_c, 0, 71, 64
2, 335840, Note_on_c, 0, 71, 100
2, 335840, Note_off_c, 0, 55, 64
2, 335840, Note_on_c, 0, 55, 100
2, 335840, Note_on_c, 0, 43, 100
2, 335840, Note_off_c, 0, 62, 64
2, 335840, Note_on_c, 0, 62, 100
2, 335968, Note_off_c, 0, 71, 64
2, 335968, Note_off_c, 0, 55, 64
2, 335968, Note_off_c, 0, 62, 64
2, 335968, Note_off_c, 0, 45, 64
2, 335968, Note_off_c, 0, 43, 64
2, 335968, Note_on_c, 0, 67, 100
2, 335968, Note_off_c, 0, 76, 64
2, 335968, Note_on_c, 0, 76, 100
2, 335968, Note_off_c, 0, 72, 64
2, 335968, Note_on_c, 0, 72, 100
2, 335968, Note_off_c, 0, 57, 64
2, 335968, Note_on_c, 0, 57, 100
2, 335968, Note_on_c, 0, 45, 100
2, 335968, Note_off_c, 0, 64, 64
2, 335968, Note_on_c, 0, 64, 100
2, 336096, Note_off_c, 0, 67, 64
2, 336096, Note_on_c, 0, 71, 100
2, 336096, Note_off_c, 0, 64, 64
2, 336096, Note_off_c, 0, 48, 64
2, 336096, Note_off_c, 0, 57, 64
2, 336096, Note_off_c, 0, 76, 64
2, 336096, Note_on_c, 0, 76, 100
2, 336096, Note_off_c, 0, 76, 64
2, 336096, Note_off_c, 0, 72, 64
2, 336096, Note_on_c, 0, 72, 100
2, 336096, Note_off_c, 0, 45, 64
2, 336096, Note_on_c, 0, 45, 100
2, 336096, Note_off_c, 0, 69, 64
2, 336096, Note_on_c, 0, 69, 100
2, 336096, Note_on_c, 0, 64, 100
2, 336096, Note_off_c, 0, 64, 64
2, 336224, Note_on_c, 0, 76, 100
2, 336224, Note_off_c, 0, 76, 64
2, 336224, Note_on_c, 0, 76, 100
2, 336288, Note_off_c, 0, 74, 64
2, 336288, Note_on_c, 0, 74, 100
2, 336352, Note_off_c, 0, 64, 64
2, 336352, Note_off_c, 0, 74, 64
2, 336352, Note_off_c, 0, 45, 64
2, 336352, Note_off_c, 0, 76, 64
2, 336352, Note_off_c, 0, 72, 64
2, 336352, Note_off_c, 0, 69, 64
2, 336352, Note_on_c, 0, 45, 100
2, 336352, Note_off_c, 0, 45, 64
2, 336352, Note_on_c, 0, 76, 100
2, 336352, Note_off_c, 0, 76, 64
2, 336352, Note_off_c, 0, 67, 64
2, 336352, Note_on_c, 0, 67, 100
2, 336352, Note_on_c, 0, 64, 100
2, 336480, Note_on_c, 0, 76, 100
2, 336480, Note_on_c, 0, 40, 100
2, 336480, Note_off_c, 0, 69, 64
2, 336480, Note_on_c, 0, 69, 100
2, 336480, Note_on_c, 0, 60, 100
2, 336480, Note_off_c, 0, 60, 64
2, 336480, Note_off_c, 0, 67, 64
2, 336480, Note_on_c, 0, 67, 100
2, 336480, Note_off_c, 0, 52, 64
2, 336480, Note_on_c, 0, 52, 100
2, 336480, Note_off_c, 0, 51, 64
2, 336480, Note_on_c, 0, 60, 100
2, 336480, Note_off_c, 0, 67, 64
2, 336480, Note_on_c, 0, 55, 100
2, 336608, Note_on_c, 0, 59, 100
2, 336608, Note_off_c, 0, 69, 64
2, 336608, Note_on_c, 0, 67, 100
2, 336608, Note_off_c, 0, 55, 64
2, 336608, Note_on_c, 0, 84, 100
2, 336608, Note_off_c, 0, 62, 64
2, 336608, Note_on_c, 0, 62, 100
2, 336608, Note_off_c, 0, 50, 64
2, 336608, Note_on_c, 0, 50, 100
2, 336608, Note_off_c, 0, 72, 64
2, 336608, Note_on_c, 0, 72, 100
2, 336736, Note_off_c, 0, 50, 64
2, 336736, Note_off_c, 0, 63, 64
2, 336736, Note_off_c, 0, 72, 64
2, 336736, Note_off_c, 0, 62, 64
2, 336736, Note_off_c, 0, 67, 64
2, 336736, Note_on_c, 0, 50, 100
2, 336736, Note_off_c, 0, 48, 64
2, 336736, Note_on_c, 0, 48, 100
2, 336736, Note_off_c, 0, 66, 64
2, 336736, Note_on_c, 0, 66, 100
2, 336736, Note_off_c, 0, 78, 64
2, 336736, Note_on_c, 0, 77, 100
2, 336864, Note_off_c, 0, 77, 64
2, 336864, Note_off_c, 0, 48, 64
2, 336864, Note_off_c, 0, 66, 64
2, 336864, Note_off_c, 0, 50, 64
2, 336864, Note_on_c, 0, 50, 100
2, 336864, Note_off_c, 0, 50, 64
2, 336864, Note_on_c, 0, 66, 100
2, 336864, Note_on_c, 0, 62, 100
2, 336864, Note_off_c, 0, 62, 64
2, 336864, Note_on_c, 0, 62, 100
2, 336864, Note_on_c, 0, 67, 100
2, 336864, Note_off_c, 0, 69, 64
2, 336864, Note_on_c, 0, 69, 100
2, 336992, Note_off_c, 0, 69, 64
2, 336992, Note_off_c, 0, 66, 64
2, 336992, Note_off_c, 0, 62, 64
2, 336992, Note_off_c, 0, 74, 64
2, 336992, Note_on_c, 0, 74, 100
2, 336992, Note_on_c, 0, 50, 100
2, 336992, Note_on_c, 0, 66, 100
2, 337120, Note_off_c, 0, 74, 64
2, 337120, Note_on_c, 0, 62, 100
2, 337120, Note_off_c, 0, 66, 64
2, 337120, Note_on_c, 0, 78, 100
2, 337120, Note_on_c, 0, 69, 100
2, 337120, Note_on_c, 0, 74, 100
2, 337120, Note_off_c, 0, 75, 64
2, 337120, Note_off_c, 0, 36, 64
2, 337120, Note_off_c, 0, 60, 64
2, 337120, Note_on_c, 0, 60, 100
2, 337120, Note_off_c, 0, 48, 64
2, 337120, Note_on_c, 0, 48, 100
2, 337248, Note_on_c, 0, 75, 100
2, 337248, Note_off_c, 0, 60, 64
2, 337248, Note_off_c, 0, 72, 64
2, 337248, Note_on_c, 0, 72, 100
2, 337248, Note_off_c, 0, 48, 64
2, 337248, Note_off_c, 0, 75, 64
2, 337248, Note_on_c, 0, 75, 100
2, 337248, Note_off_c, 0, 63, 64
2, 337248, Note_on_c, 0, 63, 100
2, 337248, Note_on_c, 0, 48, 100
2, 337376, Note_off_c, 0, 48, 64
2, 337376, Note_off_c, 0, 63, 64
2, 337376, Note_off_c, 0, 69, 64
2, 337376, Note_off_c, 0, 72, 64
2, 337376, Note_off_c, 0, 78, 64
2, 337376, Note_on_c, 0, 78, 100
2, 337376, Note_on_c, 0, 63, 100
2, 337376, Note_off_c, 0, 63, 64
2, 337376, Note_off_c, 0, 51, 64
2, 337376, Note_on_c, 0, 51, 100
2, 337504, Note_on_c, 0, 63, 100
2, 337504, Note_off_c, 0, 78, 64
2, 337504, Note_on_c, 0, 78, 100
2, 337504, Note_off_c, 0, 51, 64
2, 337632, Note_off_c, 0, 78, 64
2, 337632, Note_off_c, 0, 63, 64
2, 337632, Note_on_c, 0, 63, 100
2, 337632, Note_on_c, 0, 78, 100
2, 337632, Note_off_c, 0, 78, 64
2, 337632, Note_on_c, 0, 57, 100
2, 337632, Note_off_c, 0, 57, 64
2, 337632, Note_on_c, 0, 57, 100
2, 337632, Note_on_c, 0, 51, 100
2, 337760, Note_on_c, 0, 78, 100
2, 337760, Note_off_c, 0, 63, 64
2, 337760, Note_on_c, 0, 63, 100
2, 337760, Note_off_c, 0, 75, 64
2, 337760, Note_off_c, 0, 57, 64
2, 337760, Note_on_c, 0, 57, 100
2, 337888, Note_off_c, 0, 63, 64
2, 337888, Note_off_c, 0, 57, 64
2, 337888, Note_on_c, 0, 54, 100
2, 337888, Note_off_c, 0, 78, 64
2, 337888, Note_on_c, 0, 75, 100
2, 337888, Note_off_c, 0, 59, 64
2, 337888, Note_on_c, 0, 59, 100
2, 337888, Note_off_c, 0, 51, 64
2, 337888, Note_on_c, 0, 51, 100
2, 337888, Note_off_c, 0, 71, 64
2, 337888, Note_on_c, 0, 71, 100
2, 338016, Note_on_c, 0, 78, 100
2, 338016, Note_off_c, 0, 51, 64
2, 338016, Note_off_c, 0, 79, 64
2, 338016, Note_on_c, 0, 79, 100
2, 338016, Note_off_c, 0, 76, 64
2, 338016, Note_on_c, 0, 76, 100
2, 338016, Note_off_c, 0, 57, 64
2, 338016, Note_on_c, 0, 57, 100
2, 338016, Note_off_c, 0, 45, 64
2, 338016, Note_on_c, 0, 45, 100
2, 338144, Note_off_c, 0, 71, 64
2, 338144, Note_off_c, 0, 75, 64
2, 338144, Note_off_c, 0, 76, 64
2, 338144, Note_off_c, 0, 57, 64
2, 338144, Note_off_c, 0, 45, 64
2, 338144, Note_off_c, 0, 79, 64
2, 338144, Note_on_c, 0, 57, 100
2, 338144, Note_on_c, 0, 75, 100
2, 338144, Note_off_c, 0, 73, 64
2, 338144, Note_on_c, 0, 73, 100
2, 338144, Note_off_c, 0, 57, 64
2, 338144, Note_off_c, 0, 59, 64
2, 338144, Note_on_c, 0, 59, 100
2, 338144, Note_off_c, 0, 78, 64
2, 338144, Note_on_c, 0, 78, 100
2, 338144, Note_off_c, 0, 75, 64
2, 338272, Note_off_c, 0, 78, 64
2, 338272, Note_on_c, 0, 79, 100
2, 338272, Note_off_c, 0, 76, 64
2, 338272, Note_on_c, 0, 76, 100
2, 338272, Note_off_c, 0, 73, 64
2, 338272, Note_on_c, 0, 73, 100
2, 338336, Note_on_c, 0, 61, 100
2, 338400, Note_on_c, 0, 75, 100
2, 338400, Note_off_c, 0, 76, 64
2, 338400, Note_off_c, 0, 55, 64
2, 338400, Note_off_c, 0, 71, 64
2, 338400, Note_on_c, 0, 71, 100
2, 338400, Note_off_c, 0, 61, 64
2, 338400, Note_on_c, 0, 55, 100
2, 338400, Note_off_c, 0, 78, 64
2, 338400, Note_on_c, 0, 78, 100
2, 338400, Note_off_c, 0, 64, 64
2, 338400, Note_on_c, 0, 64, 100
2, 338464, Note_on_c, 0, 76, 100
2, 338464, Note_off_c, 0, 76, 64
2, 338464, Note_off_c, 0, 75, 64
2, 338464, Note_off_c, 0, 55, 64
2, 338464, Note_off_c, 0, 64, 64
2, 338464, Note_on_c, 0, 76, 100
2, 338464, Note_off_c, 0, 76, 64
2, 338464, Note_off_c, 0, 73, 64
2, 338464, Note_on_c, 0, 73, 100
2, 338464, Note_on_c, 0, 55, 100
2, 338528, Note_off_c, 0, 78, 64
2, 338528, Note_on_c, 0, 75, 100
2, 338528, Note_off_c, 0, 75, 64
2, 338528, Note_off_c, 0, 76, 64
2, 338528, Note_on_c, 0, 76, 100
2, 338528, Note_on_c, 0, 75, 100
2, 338528, Note_off_c, 0, 75, 64
2, 338592, Note_on_c, 0, 78, 100
2, 338656, Note_off_c, 0, 76, 64
2, 338656, Note_off_c, 0, 75, 64
2, 338656, Note_on_c, 0, 75, 100
2, 338656, Note_off_c, 0, 71, 64
2, 338656, Note_on_c, 0, 63, 100
2, 338656, Note_off_c, 0, 78, 64
2, 338656, Note_on_c, 0, 78, 100
2, 338656, Note_off_c, 0, 73, 64
2, 338656, Note_on_c, 0, 73, 100
2, 338656, Note_off_c, 0, 55, 64
2, 338720, Note_off_c, 0, 54, 64
2, 338720, Note_on_c, 0, 54, 100
2, 338784, Note_off_c, 0, 75, 64
2, 338784, Note_off_c, 0, 78, 64
2, 338784, Note_off_c, 0, 73, 64
2, 338784, Note_on_c, 0, 73, 100
2, 338848, Note_on_c, 0, 66, 100
2, 338848, Note_off_c, 0, 54, 64
2, 338848, Note_off_c, 0, 73, 64
2, 338912, Note_off_c, 0, 76, 64
2, 338912, Note_on_c, 0, 76, 100
2, 338912, Note_off_c, 0, 64, 64
2, 338912, Note_on_c, 0, 64, 100
2, 338912, Note_off_c, 0, 47, 64
2, 338912, Note_on_c, 0, 47, 100
2, 338912, Note_off_c, 0, 67, 64
2, 338912, Note_on_c, 0, 67, 100
2, 338912, Note_off_c, 0, 58, 64
2, 338912, Note_on_c, 0, 58, 100
2, 339040, Note_off_c, 0, 64, 64
2, 339040, Note_off_c, 0, 76, 64
2, 339040, Note_off_c, 0, 75, 64
2, 339040, Note_on_c, 0, 75, 100
2, 339040, Note_on_c, 0, 60, 100
2, 339040, Note_on_c, 0, 61, 100
2, 339104, Note_off_c, 0, 67, 64
2, 339104, Note_off_c, 0, 75, 64
2, 339104, Note_off_c, 0, 61, 64
2, 339104, Note_off_c, 0, 46, 64
2, 339168, Note_on_c, 0, 46, 100
2, 339168, Note_off_c, 0, 75, 64
2, 339168, Note_on_c, 0, 75, 100
2, 339168, Note_off_c, 0, 76, 64
2, 339168, Note_on_c, 0, 76, 100
2, 339168, Note_off_c, 0, 70, 64
2, 339168, Note_on_c, 0, 70, 100
2, 339168, Note_off_c, 0, 58, 64
2, 339168, Note_on_c, 0, 58, 100
2, 339168, Note_off_c, 0, 46, 64
2, 339168, Note_on_c, 0, 46, 100
2, 339296, Note_off_c, 0, 75, 64
2, 339296, Note_off_c, 0, 76, 64
2, 339296, Note_on_c, 0, 76, 100
2, 339296, Note_off_c, 0, 67, 64
2, 339296, Note_on_c, 0, 67, 100
2, 339296, Note_on_c, 0, 78, 100
2, 339296, Note_on_c, 0, 75, 100
2, 339296, Note_off_c, 0, 75, 64
2, 339424, Note_off_c, 0, 46, 64
2, 339424, Note_off_c, 0, 58, 64
2, 339424, Note_off_c, 0, 76, 64
2, 339424, Note_on_c, 0, 75, 100
2, 339424, Note_off_c, 0, 75, 64
2, 339424, Note_off_c, 0, 78, 64
2, 339424, Note_on_c, 0, 78, 100
2, 339424, Note_on_c, 0, 75, 100
2, 339424, Note_off_c, 0, 67, 64
2, 339424, Note_off_c, 0, 54, 64
2, 339424, Note_on_c, 0, 54, 100
2, 339424, Note_off_c, 0, 42, 64
2, 339424, Note_on_c, 0, 42, 100
2, 339424, Note_off_c, 0, 57, 64
2, 339424, Note_on_c, 0, 57, 100
2, 339552, Note_off_c, 0, 57, 64
2, 339552, Note_off_c, 0, 54, 64
2, 339552, Note_off_c, 0, 78, 64
2, 339552, Note_off_c, 0, 69, 64
2, 339552, Note_on_c, 0, 69, 100
2, 339616, Note_off_c, 0, 75, 64
2, 339616, Note_off_c, 0, 42, 64
2, 339616, Note_off_c, 0, 69, 64
2, 339680, Note_on_c, 0, 75, 100
2, 339680, Note_off_c, 0, 75, 64
2, 339680, Note_on_c, 0, 78, 100
2, 339680, Note_off_c, 0, 78, 64
2, 339680, Note_on_c, 0, 78, 100
2, 339680, Note_on_c, 0, 75, 100
2, 339680, Note_off_c, 0, 72, 64
2, 339680, Note_on_c, 0, 72, 100
2, 339680, Note_off_c, 0, 57, 64
2, 339680, Note_on_c, 0, 57, 100
2, 339680, Note_on_c, 0, 51, 100
2, 339680, Note_off_c, 0, 67, 64
2, 339680, Note_on_c, 0, 67, 100
2, 339680, Note_on_c, 0, 45, 100
2, 339680, Note_off_c, 0, 45, 64
2, 339680, Note_on_c, 0, 45, 100
2, 339808, Note_off_c, 0, 78, 64
2, 339808, Note_off_c, 0, 69, 64
2, 339808, Note_on_c, 0, 69, 100
2, 339872, Note_on_c, 0, 73, 100
2, 339872, Note_off_c, 0, 67, 64
2, 339936, Note_off_c, 0, 57, 64
2, 339936, Note_off_c, 0, 75, 64
2, 339936, Note_on_c, 0, 54, 100
2, 339936, Note_off_c, 0, 54, 64
2, 339936, Note_off_c, 0, 69, 64
2, 339936, Note_on_c, 0, 69, 100
2, 339936, Note_off_c, 0, 69, 64
2, 339936, Note_off_c, 0, 59, 64
2, 339936, Note_on_c, 0, 59, 100
2, 339936, Note_on_c, 0, 75, 100
2, 339936, Note_off_c, 0, 75, 64
2, 339936, Note_on_c, 0, 54, 100
2, 339936, Note_off_c, 0, 54, 64
2, 340000, Note_on_c, 0, 42, 100
2, 340000, Note_off_c, 0, 47, 64
2, 340064, Note_on_c, 0, 75, 100
2, 340064, Note_off_c, 0, 59, 64
2, 340064, Note_on_c, 0, 81, 100
2, 340064, Note_off_c, 0, 81, 64
2, 340064, Note_on_c, 0, 81, 100
2, 340064, Note_off_c, 0, 57, 64
2, 340064, Note_on_c, 0, 57, 100
2, 340192, Note_off_c, 0, 81, 64
2, 340192, Note_off_c, 0, 57, 64
2, 340192, Note_on_c, 0, 69, 100
2, 340192, Note_on_c, 0, 54, 100
2, 340192, Note_off_c, 0, 78, 64
2, 340192, Note_on_c, 0, 78, 100
2, 340192, Note_off_c, 0, 86, 64
2, 340192, Note_on_c, 0, 86, 100
2, 340192, Note_off_c, 0, 47, 64
2, 340192, Note_on_c, 0, 47, 100
2, 340320, Note_off_c, 0, 47, 64
2, 340320, Note_on_c, 0, 35, 100
2, 340320, Note_off_c, 0, 35, 64
2, 340320, Note_off_c, 0, 78, 64
2, 340320, Note_off_c, 0, 75, 64
2, 340320, Note_on_c, 0, 75, 100
2, 340320, Note_off_c, 0, 51, 64
2, 340320, Note_off_c, 0, 59, 64
2, 340320, Note_on_c, 0, 59, 100
2, 340320, Note_on_c, 0, 35, 100
2, 340320, Note_off_c, 0, 35, 64
2, 340448, Note_on_c, 0, 35, 100
2, 340448, Note_off_c, 0, 59, 64
2, 340448, Note_on_c, 0, 51, 100
2, 340448, Note_off_c, 0, 88, 64
2, 340448, Note_off_c, 0, 85, 64
2, 340448, Note_on_c, 0, 88, 100
2, 340448, Note_on_c, 0, 85, 100
2, 340448, Note_off_c, 0, 85, 64
2, 340448, Note_on_c, 0, 85, 100
2, 340448, Note_off_c, 0, 45, 64
2, 340448, Note_on_c, 0, 45, 100
2, 340448, Note_off_c, 0, 72, 64
2, 340448, Note_off_c, 0, 73, 64
2, 340448, Note_on_c, 0, 78, 100
2, 340448, Note_on_c, 0, 81, 100
2, 340448, Note_off_c, 0, 54, 64
2, 340448, Note_on_c, 0, 54, 100
2, 340448, Note_off_c, 0, 54, 64
2, 340448, Note_off_c, 0, 76, 64
2, 340448, Note_on_c, 0, 76, 100
2, 340448, Note_off_c, 0, 45, 64
2, 340576, Note_off_c, 0, 81, 64
2, 340576, Note_off_c, 0, 76, 64
2, 340576, Note_on_c, 0, 76, 100
2, 340704, Note_off_c, 0, 76, 64
2, 340704, Note_on_c, 0, 81, 100
2, 340704, Note_off_c, 0, 86, 64
2, 340832, Note_on_c, 0, 73, 100
2, 340832, Note_on_c, 0, 54, 100
2, 340832, Note_off_c, 0, 78, 64
2, 340832, Note_on_c, 0, 45, 100
2, 340832, Note_off_c, 0, 81, 64
2, 340832, Note_off_c, 0, 88, 64
2, 340832, Note_on_c, 0, 81, 100
2, 340832, Note_off_c, 0, 76, 64
2, 340832, Note_on_c, 0, 76, 100
2, 340832, Note_off_c, 0, 69, 64
2, 340832, Note_off_c, 0, 40, 64
2, 340832, Note_on_c, 0, 48, 100
2, 340832, Note_off_c, 0, 52, 64
2, 340896, Note_on_c, 0, 69, 100
2, 340960, Note_off_c, 0, 76, 64
2, 340960, Note_on_c, 0, 76, 100
2, 340960, Note_off_c, 0, 52, 64
2, 340960, Note_on_c, 0, 52, 100
2, 340960, Note_off_c, 0, 48, 64
2, 340960, Note_off_c, 0, 79, 64
2, 340960, Note_on_c, 0, 79, 100
2, 340960, Note_off_c, 0, 76, 64
2, 340960, Note_off_c, 0, 67, 64
2, 340960, Note_on_c, 0, 67, 100
2, 341088, Note_off_c, 0, 84, 64
2, 341088, Note_on_c, 0, 84, 100
2, 341088, Note_on_c, 0, 86, 100
2, 341088, Note_off_c, 0, 86, 64
2, 341088, Note_on_c, 0, 86, 100
2, 341152, Note_on_c, 0, 76, 100
2, 341152, Note_on_c, 0, 40, 100
2, 341152, Note_off_c, 0, 84, 64
2, 341216, Note_off_c, 0, 67, 64
2, 341216, Note_off_c, 0, 74, 64
2, 341216, Note_on_c, 0, 74, 100
2, 341216, Note_off_c, 0, 79, 64
2, 341216, Note_on_c, 0, 79, 100
2, 341216, Note_off_c, 0, 78, 64
2, 341216, Note_on_c, 0, 78, 100
2, 341216, Note_off_c, 0, 50, 64
2, 341216, Note_on_c, 0, 50, 100
2, 341216, Note_on_c, 0, 43, 100
2, 341344, Note_off_c, 0, 78, 64
2, 341344, Note_off_c, 0, 81, 64
2, 341344, Note_on_c, 0, 81, 100
2, 341472, Note_off_c, 0, 81, 64
2, 341472, Note_off_c, 0, 76, 64
2, 341472, Note_off_c, 0, 74, 64
2, 341472, Note_off_c, 0, 42, 64
2, 341472, Note_off_c, 0, 82, 64
2, 341472, Note_on_c, 0, 82, 100
2, 341472, Note_on_c, 0, 74, 100
2, 341472, Note_off_c, 0, 74, 64
2, 341472, Note_off_c, 0, 50, 64
2, 341472, Note_off_c, 0, 54, 64
2, 341472, Note_on_c, 0, 54, 100
2, 341600, Note_off_c, 0, 82, 64
2, 341600, Note_on_c, 0, 76, 100
2, 341600, Note_off_c, 0, 74, 64
2, 341600, Note_on_c, 0, 74, 100
2, 341600, Note_off_c, 0, 66, 64
2, 341664, Note_off_c, 0, 54, 64
2, 341728, Note_on_c, 0, 66, 100
2, 341728, Note_off_c, 0, 76, 64
2, 341728, Note_on_c, 0, 76, 100
2, 341728, Note_off_c, 0, 55, 64
2, 341728, Note_on_c, 0, 55, 100
2, 341728, Note_off_c, 0, 52, 64
2, 341728, Note_on_c, 0, 52, 100
2, 341792, Note_off_c, 0, 74, 64
2, 341792, Note_off_c, 0, 76, 64
2, 341856, Note_off_c, 0, 74, 64
2, 341856, Note_on_c, 0, 74, 100
2, 341920, Note_on_c, 0, 76, 100
2, 341984, Note_off_c, 0, 55, 64
2, 341984, Note_off_c, 0, 74, 64
2, 341984, Note_on_c, 0, 67, 100
2, 341984, Note_off_c, 0, 52, 64
2, 341984, Note_off_c, 0, 69, 64
2, 341984, Note_on_c, 0, 69, 100
2, 341984, Note_off_c, 0, 50, 64
2, 341984, Note_on_c, 0, 50, 100
2, 341984, Note_on_c, 0, 49, 100
2, 342112, Note_off_c, 0, 76, 64
2, 342112, Note_on_c, 0, 76, 100
2, 342240, Note_off_c, 0, 67, 64
2, 342240, Note_off_c, 0, 69, 64
2, 342240, Note_on_c, 0, 69, 100
2, 342368, Note_off_c, 0, 76, 64
2, 342368, Note_off_c, 0, 67, 64
2, 342368, Note_on_c, 0, 67, 100
2, 342432, Note_off_c, 0, 69, 64
2, 342432, Note_off_c, 0, 67, 64
2, 342432, Note_off_c, 0, 50, 64
2, 342496, Note_off_c, 0, 76, 64
2, 342496, Note_on_c, 0, 76, 100
2, 342496, Note_off_c, 0, 66, 64
2, 342496, Note_on_c, 0, 66, 100
2, 342496, Note_on_c, 0, 50, 100
2, 342624, Note_off_c, 0, 76, 64
2, 342624, Note_off_c, 0, 66, 64
2, 342624, Note_off_c, 0, 69, 64
2, 342624, Note_on_c, 0, 69, 100
2, 342752, Note_off_c, 0, 69, 64
2, 342752, Note_off_c, 0, 78, 64
2, 342752, Note_on_c, 0, 78, 100
2, 342880, Note_off_c, 0, 78, 64
2, 342880, Note_off_c, 0, 79, 64
2, 342880, Note_on_c, 0, 79, 100
2, 343008, Note_off_c, 0, 79, 64
2, 343008, Note_off_c, 0, 81, 64
2, 343008, Note_on_c, 0, 81, 100
2, 343136, Note_off_c, 0, 81, 64
2, 343136, Note_off_c, 0, 78, 64
2, 343136, Note_on_c, 0, 78, 100
2, 343264, Note_off_c, 0, 78, 64
2, 343264, Note_off_c, 0, 50, 64
2, 343264, Note_off_c, 0, 76, 64
2, 343264, Note_on_c, 0, 76, 100
2, 343264, Note_off_c, 0, 45, 64
2, 343264, Note_on_c, 0, 45, 100
2, 343392, Note_off_c, 0, 76, 64
2, 343392, Note_off_c, 0, 74, 64
2, 343392, Note_on_c, 0, 74, 100
2, 343520, Note_off_c, 0, 74, 64
2, 343520, Note_on_c, 0, 74, 100
2, 343520, Note_off_c, 0, 69, 64
2, 343520, Note_on_c, 0, 69, 100
2, 343648, Note_off_c, 0, 69, 64
2, 343648, Note_off_c, 0, 66, 64
2, 343648, Note_on_c, 0, 66, 100
2, 343776, Note_off_c, 0, 66, 64
2, 343776, Note_off_c, 0, 57, 64
2, 343776, Note_off_c, 0, 67, 64
2, 343776, Note_on_c, 0, 67, 100
2, 343776, Note_on_c, 0, 57, 100
2, 343904, Note_off_c, 0, 67, 64
2, 343904, Note_off_c, 0, 66, 64
2, 343904, Note_on_c, 0, 66, 100
2, 344032, Note_off_c, 0, 66, 64
2, 344032, Note_off_c, 0, 45, 64
2, 344032, Note_off_c, 0, 74, 64
2, 344032, Note_on_c, 0, 67, 100
2, 344032, Note_off_c, 0, 43, 64
2, 344032, Note_on_c, 0, 43, 100
2, 344160, Note_off_c, 0, 74, 64
2, 344160, Note_on_c, 0, 74, 100
2, 344288, Note_off_c, 0, 74, 64
2, 344288, Note_off_c, 0, 43, 64
2, 344288, Note_off_c, 0, 67, 64
2, 344288, Note_on_c, 0, 43, 100
2, 344288, Note_off_c, 0, 73, 64
2, 344288, Note_on_c, 0, 73, 100
2, 344288, Note_off_c, 0, 45, 64
2, 344288, Note_on_c, 0, 45, 100
2, 344416, Note_off_c, 0, 73, 64
2, 344416, Note_off_c, 0, 71, 64
2, 344416, Note_on_c, 0, 71, 100
2, 344544, Note_off_c, 0, 71, 64
2, 344544, Note_off_c, 0, 73, 64
2, 344544, Note_on_c, 0, 73, 100
2, 344544, Note_off_c, 0, 45, 64
2, 344544, Note_on_c, 0, 45, 100
2, 344544, Note_off_c, 0, 45, 64
2, 344544, Note_on_c, 0, 45, 100
2, 344672, Note_off_c, 0, 73, 64
2, 344672, Note_off_c, 0, 74, 64
2, 344672, Note_on_c, 0, 74, 100
2, 344736, Note_off_c, 0, 45, 64
2, 344800, Note_off_c, 0, 74, 64
2, 344800, Note_on_c, 0, 74, 100
2, 344800, Note_off_c, 0, 76, 64
2, 344800, Note_on_c, 0, 76, 100
2, 344800, Note_off_c, 0, 43, 64
2, 344800, Note_on_c, 0, 43, 100
2, 344928, Note_off_c, 0, 76, 64
2, 344928, Note_off_c, 0, 74, 64
2, 344928, Note_on_c, 0, 74, 100
2, 345056, Note_off_c, 0, 74, 64
2, 345056, Note_off_c, 0, 79, 64
2, 345056, Note_on_c, 0, 79, 100
2, 345184, Note_off_c, 0, 79, 64
2, 345184, Note_off_c, 0, 81, 64
2, 345184, Note_on_c, 0, 81, 100
2, 345312, Note_off_c, 0, 43, 64
2, 345312, Note_off_c, 0, 42, 64
2, 345312, Note_on_c, 0, 42, 100
2, 345312, Note_off_c, 0, 79, 64
2, 345312, Note_on_c, 0, 79, 100
2, 345440, Note_off_c, 0, 81, 64
2, 345440, Note_off_c, 0, 79, 64
2, 345440, Note_on_c, 0, 79, 100
2, 345568, Note_off_c, 0, 79, 64
2, 345568, Note_off_c, 0, 77, 64
2, 345568, Note_on_c, 0, 77, 100
2, 345696, Note_off_c, 0, 77, 64
2, 345696, Note_on_c, 0, 81, 100
2, 345824, Note_off_c, 0, 81, 64
2, 345824, Note_off_c, 0, 83, 64
2, 345824, Note_on_c, 0, 83, 100
2, 345824, Note_off_c, 0, 43, 64
2, 345824, Note_on_c, 0, 43, 100
2, 345824, Note_off_c, 0, 79, 64
2, 345824, Note_on_c, 0, 79, 100
2, 345952, Note_on_c, 0, 81, 100
2, 345952, Note_off_c, 0, 83, 64
2, 345952, Note_on_c, 0, 83, 100
2, 346080, Note_off_c, 0, 43, 64
2, 346080, Note_off_c, 0, 50, 64
2, 346080, Note_on_c, 0, 50, 100
2, 346208, Note_off_c, 0, 83, 64
2, 346208, Note_off_c, 0, 84, 64
2, 346208, Note_on_c, 0, 84, 100
2, 346336, Note_off_c, 0, 84, 64
2, 346336, Note_off_c, 0, 69, 64
2, 346336, Note_on_c, 0, 69, 100
2, 346464, Note_off_c, 0, 69, 64
2, 346464, Note_off_c, 0, 73, 64
2, 346464, Note_on_c, 0, 73, 100
2, 346592, Note_off_c, 0, 73, 64
2, 346592, Note_off_c, 0, 50, 64
2, 346592, Note_off_c, 0, 74, 64
2, 346592, Note_on_c, 0, 74, 100
2, 346720, Note_off_c, 0, 74, 64
2, 346720, Note_on_c, 0, 74, 100
2, 346848, Note_off_c, 0, 74, 64
2, 346848, Note_on_c, 0, 74, 100
2, 346848, Note_on_c, 0, 55, 100
2, 346848, Note_off_c, 0, 78, 64
2, 346848, Note_on_c, 0, 78, 100
2, 346976, Note_off_c, 0, 55, 64
2, 346976, Note_on_c, 0, 55, 100
2, 346976, Note_off_c, 0, 55, 64
2, 347104, Note_on_c, 0, 55, 100
2, 347104, Note_off_c, 0, 74, 64
2, 347104, Note_off_c, 0, 78, 64
2, 347232, Note_on_c, 0, 78, 100
2, 347232, Note_off_c, 0, 79, 64
2, 347232, Note_on_c, 0, 79, 100
2, 347360, Note_off_c, 0, 79, 64
2, 347360, Note_off_c, 0, 78, 64
2, 347360, Note_on_c, 0, 78, 100
2, 347488, Note_off_c, 0, 78, 64
2, 347488, Note_off_c, 0, 79, 64
2, 347488, Note_on_c, 0, 79, 100
2, 347616, Note_off_c, 0, 79, 64
2, 347616, Note_off_c, 0, 78, 64
2, 347616, Note_on_c, 0, 78, 100
2, 347616, Note_off_c, 0, 74, 64
2, 347616, Note_on_c, 0, 74, 100
2, 347744, Note_off_c, 0, 78, 64
2, 347744, Note_off_c, 0, 74, 64
2, 347744, Note_on_c, 0, 74, 100
2, 347872, Note_off_c, 0, 74, 64
2, 348128, Note_off_c, 0, 76, 64
2, 348128, Note_on_c, 0, 76, 100
2, 348128, Note_off_c, 0, 68, 64
2, 348128, Note_on_c, 0, 68, 100
2, 348256, Note_off_c, 0, 68, 64
2, 348256, Note_off_c, 0, 71, 64
2, 348256, Note_on_c, 0, 71, 100
2, 348384, Note_off_c, 0, 71, 64
2, 348384, Note_off_c, 0, 76, 64
2, 348384, Note_on_c, 0, 68, 100
2, 348512, Note_on_c, 0, 76, 100
2, 348512, Note_off_c, 0, 72, 64
2, 348512, Note_on_c, 0, 72, 100
2, 348640, Note_off_c, 0, 72, 64
2, 348640, Note_off_c, 0, 69, 64
2, 348640, Note_on_c, 0, 69, 100
2, 348768, Note_off_c, 0, 56, 64
2, 348768, Note_on_c, 0, 56, 100
2, 348768, Note_off_c, 0, 81, 64
2, 348768, Note_on_c, 0, 81, 100
2, 348768, Note_on_c, 0, 78, 100
2, 348896, Note_off_c, 0, 56, 64
2, 348896, Note_on_c, 0, 54, 100
2, 349024, Note_off_c, 0, 54, 64
2, 349024, Note_off_c, 0, 52, 64
2, 349024, Note_on_c, 0, 52, 100
2, 349152, Note_off_c, 0, 52, 64
2, 349152, Note_off_c, 0, 56, 64
2, 349152, Note_on_c, 0, 56, 100
2, 349280, Note_off_c, 0, 56, 64
2, 349280, Note_off_c, 0, 52, 64
2, 349280, Note_on_c, 0, 52, 100
2, 349408, Note_off_c, 0, 52, 64
2, 349408, Note_off_c, 0, 56, 64
2, 349408, Note_on_c, 0, 56, 100
2, 349536, Note_off_c, 0, 56, 64
2, 349536, Note_off_c, 0, 57, 64
2, 349536, Note_on_c, 0, 57, 100
2, 349664, Note_off_c, 0, 57, 64
2, 349664, Note_off_c, 0, 56, 64
2, 349664, Note_on_c, 0, 56, 100
2, 349792, Note_off_c, 0, 56, 64
2, 349792, Note_off_c, 0, 57, 64
2, 349792, Note_on_c, 0, 57, 100
2, 349920, Note_off_c, 0, 57, 64
2, 349920, Note_off_c, 0, 60, 64
2, 349920, Note_on_c, 0, 60, 100
2, 350048, Note_off_c, 0, 60, 64
2, 350048, Note_off_c, 0, 64, 64
2, 350048, Note_on_c, 0, 64, 100
2, 350176, Note_off_c, 0, 64, 64
2, 350176, Note_off_c, 0, 71, 64
2, 350176, Note_on_c, 0, 71, 100
2, 350304, Note_off_c, 0, 71, 64
2, 350304, Note_off_c, 0, 68, 64
2, 350304, Note_on_c, 0, 68, 100
2, 350432, Note_off_c, 0, 68, 64
2, 350432, Note_off_c, 0, 66, 64
2, 350432, Note_on_c, 0, 66, 100
2, 350560, Note_off_c, 0, 66, 64
2, 350560, Note_off_c, 0, 68, 64
2, 350560, Note_on_c, 0, 68, 100
2, 350688, Note_on_c, 0, 77, 100
2, 350688, Note_off_c, 0, 68, 64
2, 350688, Note_on_c, 0, 68, 100
2, 350816, Note_off_c, 0, 68, 64
2, 350816, Note_off_c, 0, 71, 64
2, 350816, Note_on_c, 0, 71, 100
2, 350944, Note_off_c, 0, 71, 64
2, 350944, Note_off_c, 0, 73, 64
2, 350944, Note_on_c, 0, 73, 100
2, 351072, Note_off_c, 0, 73, 64
2, 351072, Note_off_c, 0, 71, 64
2, 351072, Note_on_c, 0, 71, 100
2, 351200, Note_off_c, 0, 71, 64
2, 351200, Note_off_c, 0, 73, 64
2, 351200, Note_on_c, 0, 73, 100
2, 351328, Note_off_c, 0, 73, 64
2, 351456, Note_off_c, 0, 77, 64
2, 351456, Note_on_c, 0, 77, 100
2, 351584, Note_off_c, 0, 77, 64
2, 351584, Note_off_c, 0, 78, 64
2, 351584, Note_on_c, 0, 78, 100
2, 351712, Note_off_c, 0, 78, 64
2, 351712, Note_off_c, 0, 75, 64
2, 351712, Note_on_c, 0, 75, 100
2, 351840, Note_off_c, 0, 75, 64
2, 351840, Note_off_c, 0, 74, 64
2, 351840, Note_on_c, 0, 74, 100
2, 351968, Note_off_c, 0, 74, 64
2, 351968, Note_off_c, 0, 73, 64
2, 351968, Note_on_c, 0, 73, 100
2, 352096, Note_off_c, 0, 73, 64
2, 352096, Note_off_c, 0, 78, 64
2, 352096, Note_on_c, 0, 78, 100
2, 352224, Note_off_c, 0, 78, 64
2, 352224, Note_off_c, 0, 75, 64
2, 352224, Note_on_c, 0, 75, 100
2, 352352, Note_on_c, 0, 83, 100
2, 352352, Note_off_c, 0, 75, 64
2, 352352, Note_on_c, 0, 73, 100
2, 352480, Note_off_c, 0, 83, 64
2, 352480, Note_off_c, 0, 73, 64
2, 352480, Note_on_c, 0, 73, 100
2, 352480, Note_off_c, 0, 80, 64
2, 352480, Note_on_c, 0, 80, 100
2, 352608, Note_off_c, 0, 80, 64
2, 352608, Note_off_c, 0, 76, 64
2, 352608, Note_on_c, 0, 76, 100
2, 352736, Note_off_c, 0, 76, 64
2, 352736, Note_on_c, 0, 72, 100
2, 352736, Note_off_c, 0, 73, 64
2, 352736, Note_off_c, 0, 80, 64
2, 352736, Note_on_c, 0, 80, 100
2, 352864, Note_on_c, 0, 73, 100
2, 352864, Note_off_c, 0, 73, 64
2, 352864, Note_on_c, 0, 73, 100
2, 352992, Note_off_c, 0, 80, 64
2, 352992, Note_off_c, 0, 78, 64
2, 352992, Note_on_c, 0, 78, 100
2, 352992, Note_off_c, 0, 73, 64
2, 352992, Note_on_c, 0, 73, 100
2, 353120, Note_off_c, 0, 72, 64
2, 353120, Note_off_c, 0, 73, 64
2, 353120, Note_on_c, 0, 73, 100
2, 353248, Note_on_c, 0, 72, 100
2, 353248, Note_off_c, 0, 81, 64
2, 353248, Note_on_c, 0, 81, 100
2, 353376, Note_off_c, 0, 78, 64
2, 353376, Note_off_c, 0, 76, 64
2, 353376, Note_on_c, 0, 76, 100
2, 353504, Note_off_c, 0, 76, 64
2, 353504, Note_off_c, 0, 81, 64
2, 353504, Note_on_c, 0, 81, 100
2, 353632, Note_off_c, 0, 81, 64
2, 353632, Note_off_c, 0, 71, 64
2, 353632, Note_on_c, 0, 71, 100
2, 353760, Note_off_c, 0, 71, 64
2, 353760, Note_off_c, 0, 75, 64
2, 353760, Note_on_c, 0, 75, 100
2, 353888, Note_off_c, 0, 75, 64
2, 353888, Note_off_c, 0, 76, 64
2, 353888, Note_on_c, 0, 76, 100
2, 354016, Note_off_c, 0, 76, 64
2, 354016, Note_off_c, 0, 81, 64
2, 354016, Note_on_c, 0, 81, 100
2, 354144, Note_off_c, 0, 81, 64
2, 354144, Note_off_c, 0, 80, 64
2, 354144, Note_on_c, 0, 80, 100
2, 354272, Note_off_c, 0, 80, 64
2, 354272, Note_off_c, 0, 78, 64
2, 354272, Note_on_c, 0, 78, 100
2, 354400, Note_off_c, 0, 78, 64
2, 354400, Note_off_c, 0, 75, 64
2, 354400, Note_on_c, 0, 75, 100
2, 354528, Note_off_c, 0, 75, 64
2, 354528, Note_off_c, 0, 73, 64
2, 354528, Note_on_c, 0, 73, 100
2, 354528, Note_off_c, 0, 56, 64
2, 354528, Note_on_c, 0, 56, 100
2, 354656, Note_off_c, 0, 73, 64
2, 354656, Note_off_c, 0, 71, 64
2, 354656, Note_on_c, 0, 71, 100
2, 354784, Note_off_c, 0, 71, 64
2, 354784, Note_off_c, 0, 56, 64
2, 354784, Note_off_c, 0, 73, 64
2, 354784, Note_on_c, 0, 73, 100
2, 354784, Note_off_c, 0, 57, 64
2, 354784, Note_on_c, 0, 57, 100
2, 354912, Note_off_c, 0, 73, 64
2, 354912, Note_off_c, 0, 71, 64
2, 354912, Note_on_c, 0, 71, 100
2, 355040, Note_off_c, 0, 71, 64
2, 355040, Note_off_c, 0, 57, 64
2, 355040, Note_on_c, 0, 71, 100
2, 355168, Note_off_c, 0, 71, 64
2, 355168, Note_off_c, 0, 69, 64
2, 355168, Note_on_c, 0, 69, 100
2, 355296, Note_off_c, 0, 69, 64
2, 355296, Note_off_c, 0, 76, 64
2, 355296, Note_on_c, 0, 76, 100
2, 355424, Note_off_c, 0, 76, 64
2, 355424, Note_off_c, 0, 73, 64
2, 355424, Note_on_c, 0, 73, 100
2, 355552, Note_off_c, 0, 73, 64
2, 355552, Note_off_c, 0, 78, 64
2, 355552, Note_on_c, 0, 78, 100
2, 355552, Note_off_c, 0, 69, 64
2, 355552, Note_on_c, 0, 69, 100
2, 355616, Note_off_c, 0, 78, 64
2, 355616, Note_off_c, 0, 76, 64
2, 355616, Note_on_c, 0, 76, 100
2, 355680, Note_off_c, 0, 76, 64
2, 355680, Note_on_c, 0, 75, 100
2, 355680, Note_off_c, 0, 75, 64
2, 355680, Note_on_c, 0, 75, 100
2, 355680, Note_off_c, 0, 75, 64
2, 355808, Note_off_c, 0, 76, 64
2, 355808, Note_on_c, 0, 76, 100
2, 355808, Note_off_c, 0, 75, 64
2, 355808, Note_on_c, 0, 75, 100
2, 355808, Note_off_c, 0, 59, 64
2, 355808, Note_on_c, 0, 59, 100
2, 355936, Note_off_c, 0, 76, 64
2, 355936, Note_off_c, 0, 75, 64
2, 355936, Note_off_c, 0, 73, 64
2, 355936, Note_on_c, 0, 73, 100
2, 356064, Note_off_c, 0, 59, 64
2, 356064, Note_off_c, 0, 73, 64
2, 356064, Note_off_c, 0, 76, 64
2, 356064, Note_on_c, 0, 76, 100
2, 356064, Note_off_c, 0, 61, 64
2, 356064, Note_on_c, 0, 61, 100
2, 356192, Note_off_c, 0, 76, 64
2, 356192, Note_off_c, 0, 78, 64
2, 356192, Note_on_c, 0, 78, 100
2, 356320, Note_off_c, 0, 78, 64
2, 356320, Note_off_c, 0, 69, 64
2, 356320, Note_off_c, 0, 76, 64
2, 356320, Note_on_c, 0, 76, 100
2, 356320, Note_off_c, 0, 61, 64
2, 356320, Note_off_c, 0, 63, 64
2, 356320, Note_on_c, 0, 61, 100
2, 356448, Note_off_c, 0, 61, 64
2, 356448, Note_off_c, 0, 59, 64
2, 356448, Note_on_c, 0, 59, 100
2, 356576, Note_off_c, 0, 76, 64
2, 356576, Note_off_c, 0, 59, 64
2, 356576, Note_on_c, 0, 63, 100
2, 356576, Note_off_c, 0, 75, 64
2, 356576, Note_on_c, 0, 75, 100
2, 356576, Note_on_c, 0, 78, 100
2, 356576, Note_on_c, 0, 59, 100
2, 356576, Note_off_c, 0, 59, 64
2, 356704, Note_on_c, 0, 59, 100
2, 356704, Note_off_c, 0, 75, 64
2, 356704, Note_on_c, 0, 75, 100
2, 356832, Note_off_c, 0, 78, 64
2, 356832, Note_off_c, 0, 75, 64
2, 356832, Note_on_c, 0, 75, 100
2, 356832, Note_off_c, 0, 75, 64
2, 356832, Note_on_c, 0, 75, 100
2, 356832, Note_off_c, 0, 59, 64
2, 356832, Note_on_c, 0, 59, 100
2, 356960, Note_off_c, 0, 73, 64
2, 356960, Note_on_c, 0, 73, 100
2, 357024, Note_off_c, 0, 72, 64
2, 357088, Note_on_c, 0, 61, 100
2, 357088, Note_off_c, 0, 76, 64
2, 357088, Note_on_c, 0, 76, 100
2, 357088, Note_off_c, 0, 52, 64
2, 357088, Note_on_c, 0, 52, 100
2, 357216, Note_off_c, 0, 76, 64
2, 357216, Note_off_c, 0, 68, 64
2, 357216, Note_on_c, 0, 68, 100
2, 357344, Note_off_c, 0, 68, 64
2, 357344, Note_on_c, 0, 56, 100
2, 357344, Note_off_c, 0, 59, 64
2, 357344, Note_on_c, 0, 59, 100
2, 357344, Note_off_c, 0, 66, 64
2, 357344, Note_on_c, 0, 66, 100
2, 357344, Note_off_c, 0, 51, 64
2, 357344, Note_on_c, 0, 51, 100
2, 357472, Note_off_c, 0, 51, 64
2, 357472, Note_off_c, 0, 52, 64
2, 357472, Note_on_c, 0, 52, 100
2, 357600, Note_off_c, 0, 52, 64
2, 357600, Note_off_c, 0, 54, 64
2, 357600, Note_on_c, 0, 54, 100
2, 357664, Note_off_c, 0, 66, 64
2, 357664, Note_off_c, 0, 59, 64
2, 357728, Note_off_c, 0, 54, 64
2, 357728, Note_on_c, 0, 54, 100
2, 357728, Note_off_c, 0, 51, 64
2, 357728, Note_on_c, 0, 51, 100
2, 357856, Note_off_c, 0, 51, 64
2, 357856, Note_off_c, 0, 54, 64
2, 357856, Note_on_c, 0, 53, 100
2, 357856, Note_off_c, 0, 69, 64
2, 357856, Note_on_c, 0, 69, 100
2, 357984, Note_on_c, 0, 54, 100
2, 357984, Note_off_c, 0, 49, 64
2, 357984, Note_on_c, 0, 49, 100
2, 358112, Note_off_c, 0, 49, 64
2, 358112, Note_off_c, 0, 69, 64
2, 358112, Note_off_c, 0, 66, 64
2, 358112, Note_on_c, 0, 66, 100
2, 358112, Note_on_c, 0, 49, 100
2, 358112, Note_off_c, 0, 49, 64
2, 358240, Note_on_c, 0, 49, 100
2, 358240, Note_off_c, 0, 57, 64
2, 358240, Note_on_c, 0, 57, 100
2, 358368, Note_off_c, 0, 66, 64
2, 358368, Note_off_c, 0, 57, 64
2, 358368, Note_off_c, 0, 50, 64
2, 358368, Note_on_c, 0, 50, 100
2, 358496, Note_off_c, 0, 50, 64
2, 358496, Note_off_c, 0, 49, 64
2, 358496, Note_on_c, 0, 49, 100
2, 358624, Note_off_c, 0, 49, 64
2, 358624, Note_off_c, 0, 57, 64
2, 358624, Note_on_c, 0, 57, 100
2, 358752, Note_off_c, 0, 57, 64
2, 358752, Note_off_c, 0, 54, 64
2, 358752, Note_on_c, 0, 54, 100
2, 358880, Note_off_c, 0, 54, 64
2, 358880, Note_on_c, 0, 54, 100
2, 358880, Note_off_c, 0, 56, 64
2, 359008, Note_on_c, 0, 56, 100
2, 359008, Note_off_c, 0, 54, 64
2, 359008, Note_on_c, 0, 54, 100
2, 359136, Note_off_c, 0, 54, 64
2, 359136, Note_off_c, 0, 70, 64
2, 359136, Note_on_c, 0, 70, 100
2, 359264, Note_off_c, 0, 66, 64
2, 359264, Note_on_c, 0, 66, 100
2, 359392, Note_off_c, 0, 70, 64
2, 359392, Note_off_c, 0, 66, 64
2, 359392, Note_off_c, 0, 65, 64
2, 359520, Note_on_c, 0, 65, 100
2, 359520, Note_off_c, 0, 62, 64
2, 359520, Note_on_c, 0, 62, 100
2, 359648, Note_off_c, 0, 62, 64
2, 359648, Note_off_c, 0, 58, 64
2, 359648, Note_on_c, 0, 58, 100
2, 359776, Note_off_c, 0, 58, 64
2, 359776, Note_off_c, 0, 57, 64
2, 359776, Note_on_c, 0, 57, 100
2, 359904, Note_off_c, 0, 57, 64
2, 359904, Note_off_c, 0, 66, 64
2, 359904, Note_on_c, 0, 66, 100
2, 360032, Note_off_c, 0, 66, 64
2, 360032, Note_off_c, 0, 57, 64
2, 360032, Note_on_c, 0, 57, 100
2, 360160, Note_off_c, 0, 57, 64
2, 360160, Note_off_c, 0, 58, 64
2, 360160, Note_on_c, 0, 58, 100
2, 360288, Note_off_c, 0, 58, 64
2, 360288, Note_off_c, 0, 73, 64
2, 360288, Note_on_c, 0, 73, 100
2, 360416, Note_off_c, 0, 73, 64
2, 360416, Note_off_c, 0, 74, 64
2, 360416, Note_on_c, 0, 74, 100
2, 360544, Note_off_c, 0, 74, 64
2, 360544, Note_off_c, 0, 73, 64
2, 360544, Note_on_c, 0, 73, 100
2, 360672, Note_off_c, 0, 73, 64
2, 360672, Note_off_c, 0, 74, 64
2, 360672, Note_on_c, 0, 74, 100
2, 360800, Note_off_c, 0, 74, 64
2, 360800, Note_off_c, 0, 67, 64
2, 360800, Note_on_c, 0, 67, 100
2, 360928, Note_off_c, 0, 67, 64
2, 360928, Note_off_c, 0, 71, 64
2, 360928, Note_on_c, 0, 71, 100
2, 361056, Note_off_c, 0, 71, 64
2, 361056, Note_off_c, 0, 70, 64
2, 361056, Note_on_c, 0, 70, 100
2, 361184, Note_off_c, 0, 70, 64
2, 361184, Note_on_c, 0, 70, 100
2, 361248, Note_on_c, 0, 51, 100
2, 361312, Note_off_c, 0, 70, 64
2, 361312, Note_off_c, 0, 49, 64
2, 361312, Note_on_c, 0, 49, 100
2, 361440, Note_off_c, 0, 49, 64
2, 361440, Note_on_c, 0, 49, 100
2, 361568, Note_off_c, 0, 49, 64
2, 361568, Note_off_c, 0, 51, 64
2, 361568, Note_on_c, 0, 51, 100
2, 361696, Note_off_c, 0, 51, 64
2, 361696, Note_off_c, 0, 55, 64
2, 361696, Note_on_c, 0, 55, 100
2, 361824, Note_off_c, 0, 55, 64
2, 361824, Note_on_c, 0, 55, 100
2, 361952, Note_off_c, 0, 57, 64
2, 361952, Note_on_c, 0, 57, 100
2, 361952, Note_off_c, 0, 55, 64
2, 361952, Note_on_c, 0, 55, 100
2, 362080, Note_off_c, 0, 57, 64
2, 362080, Note_on_c, 0, 60, 100
2, 362080, Note_off_c, 0, 61, 64
2, 362208, Note_off_c, 0, 60, 64
2, 362208, Note_off_c, 0, 55, 64
2, 362208, Note_off_c, 0, 54, 64
2, 362208, Note_on_c, 0, 54, 100
2, 362336, Note_off_c, 0, 54, 64
2, 362336, Note_off_c, 0, 57, 64
2, 362336, Note_on_c, 0, 57, 100
2, 362464, Note_off_c, 0, 57, 64
2, 362464, Note_on_c, 0, 66, 100
2, 362464, Note_off_c, 0, 54, 64
2, 362464, Note_on_c, 0, 54, 100
2, 362592, Note_off_c, 0, 54, 64
2, 362592, Note_off_c, 0, 52, 64
2, 362592, Note_on_c, 0, 52, 100
2, 362720, Note_off_c, 0, 52, 64
2, 362720, Note_off_c, 0, 50, 64
2, 362720, Note_on_c, 0, 50, 100
2, 362848, Note_off_c, 0, 50, 64
2, 362848, Note_off_c, 0, 49, 64
2, 362848, Note_on_c, 0, 49, 100
2, 362976, Note_off_c, 0, 49, 64
2, 362976, Note_off_c, 0, 66, 64
2, 362976, Note_on_c, 0, 66, 100
2, 362976, Note_off_c, 0, 50, 64
2, 362976, Note_on_c, 0, 50, 100
2, 363104, Note_off_c, 0, 50, 64
2, 363104, Note_off_c, 0, 49, 64
2, 363104, Note_on_c, 0, 49, 100
2, 363232, Note_off_c, 0, 49, 64
2, 363232, Note_off_c, 0, 50, 64
2, 363232, Note_on_c, 0, 50, 100
2, 363360, Note_off_c, 0, 66, 64
2, 363360, Note_off_c, 0, 67, 64
2, 363360, Note_on_c, 0, 67, 100
2, 363488, Note_off_c, 0, 50, 64
2, 363488, Note_off_c, 0, 67, 64
2, 363488, Note_off_c, 0, 62, 64
2, 363488, Note_on_c, 0, 62, 100
2, 363488, Note_off_c, 0, 52, 64
2, 363488, Note_on_c, 0, 52, 100
2, 363616, Note_off_c, 0, 66, 64
2, 363616, Note_on_c, 0, 66, 100
2, 363744, Note_off_c, 0, 66, 64
2, 363744, Note_off_c, 0, 62, 64
2, 363744, Note_off_c, 0, 67, 64
2, 363744, Note_on_c, 0, 67, 100
2, 363744, Note_off_c, 0, 57, 64
2, 363744, Note_on_c, 0, 57, 100
2, 363872, Note_off_c, 0, 67, 64
2, 363872, Note_off_c, 0, 69, 64
2, 363872, Note_on_c, 0, 69, 100
2, 364000, Note_off_c, 0, 57, 64
2, 364000, Note_off_c, 0, 69, 64
2, 364000, Note_off_c, 0, 52, 64
2, 364000, Note_off_c, 0, 73, 64
2, 364000, Note_on_c, 0, 73, 100
2, 364000, Note_on_c, 0, 57, 100
2, 364128, Note_off_c, 0, 73, 64
2, 364128, Note_off_c, 0, 71, 64
2, 364128, Note_on_c, 0, 71, 100
2, 364256, Note_off_c, 0, 71, 64
2, 364256, Note_off_c, 0, 57, 64
2, 364256, Note_off_c, 0, 73, 64
2, 364256, Note_on_c, 0, 73, 100
2, 364256, Note_on_c, 0, 57, 100
2, 364256, Note_off_c, 0, 57, 64
2, 364384, Note_off_c, 0, 73, 64
2, 364384, Note_off_c, 0, 74, 64
2, 364384, Note_on_c, 0, 74, 100
2, 364448, Note_on_c, 0, 57, 100
2, 364512, Note_off_c, 0, 74, 64
2, 364512, Note_off_c, 0, 76, 64
2, 364512, Note_on_c, 0, 76, 100
2, 364512, Note_off_c, 0, 55, 64
2, 364512, Note_on_c, 0, 55, 100
2, 364640, Note_off_c, 0, 76, 64
2, 364640, Note_off_c, 0, 74, 64
2, 364640, Note_on_c, 0, 74, 100
2, 364704, Note_off_c, 0, 55, 64
2, 364704, Note_on_c, 0, 55, 100
2, 364768, Note_off_c, 0, 74, 64
2, 364768, Note_off_c, 0, 73, 64
2, 364768, Note_on_c, 0, 73, 100
2, 364768, Note_off_c, 0, 57, 64
2, 364768, Note_on_c, 0, 57, 100
2, 364896, Note_off_c, 0, 73, 64
2, 364896, Note_off_c, 0, 78, 64
2, 364896, Note_on_c, 0, 78, 100
2, 365024, Note_on_c, 0, 76, 100
2, 365024, Note_off_c, 0, 78, 64
2, 365024, Note_off_c, 0, 57, 64
2, 365024, Note_on_c, 0, 59, 100
2, 365024, Note_on_c, 0, 74, 100
2, 365152, Note_off_c, 0, 74, 64
2, 365152, Note_off_c, 0, 73, 64
2, 365152, Note_on_c, 0, 73, 100
2, 365280, Note_off_c, 0, 73, 64
2, 365280, Note_off_c, 0, 59, 64
2, 365280, Note_off_c, 0, 76, 64
2, 365280, Note_on_c, 0, 76, 100
2, 365280, Note_off_c, 0, 55, 64
2, 365280, Note_on_c, 0, 55, 100
2, 365408, Note_off_c, 0, 76, 64
2, 365408, Note_off_c, 0, 74, 64
2, 365408, Note_on_c, 0, 74, 100
2, 365472, Note_off_c, 0, 55, 64
2, 365536, Note_off_c, 0, 74, 64
2, 365536, Note_off_c, 0, 73, 64
2, 365536, Note_on_c, 0, 73, 100
2, 365664, Note_off_c, 0, 73, 64
2, 365664, Note_off_c, 0, 76, 64
2, 365664, Note_on_c, 0, 76, 100
2, 365792, Note_off_c, 0, 76, 64
2, 365792, Note_off_c, 0, 74, 64
2, 365792, Note_on_c, 0, 74, 100
2, 365920, Note_off_c, 0, 74, 64
2, 365920, Note_off_c, 0, 71, 64
2, 365920, Note_on_c, 0, 71, 100
2, 366048, Note_off_c, 0, 71, 64
2, 366048, Note_off_c, 0, 69, 64
2, 366048, Note_on_c, 0, 69, 100
2, 366176, Note_off_c, 0, 69, 64
2, 366176, Note_off_c, 0, 71, 64
2, 366176, Note_on_c, 0, 71, 100
2, 366304, Note_off_c, 0, 71, 64
2, 366304, Note_off_c, 0, 73, 64
2, 366304, Note_on_c, 0, 73, 100
2, 366304, Note_off_c, 0, 52, 64
2, 366304, Note_on_c, 0, 52, 100
2, 366432, Note_off_c, 0, 73, 64
2, 366432, Note_off_c, 0, 76, 64
2, 366432, Note_on_c, 0, 76, 100
2, 366560, Note_off_c, 0, 76, 64
2, 366560, Note_off_c, 0, 52, 64
2, 366560, Note_off_c, 0, 79, 64
2, 366560, Note_on_c, 0, 79, 100
2, 366560, Note_on_c, 0, 52, 100
2, 366560, Note_off_c, 0, 52, 64
2, 366688, Note_off_c, 0, 79, 64
2, 366688, Note_on_c, 0, 52, 100
2, 366688, Note_off_c, 0, 78, 64
2, 366688, Note_on_c, 0, 78, 100
2, 366688, Note_off_c, 0, 50, 64
2, 366688, Note_on_c, 0, 50, 100
2, 366816, Note_off_c, 0, 78, 64
2, 366816, Note_off_c, 0, 50, 64
2, 366816, Note_off_c, 0, 79, 64
2, 366816, Note_on_c, 0, 79, 100
2, 366816, Note_off_c, 0, 52, 64
2, 366816, Note_on_c, 0, 52, 100
2, 366944, Note_off_c, 0, 79, 64
2, 366944, Note_off_c, 0, 78, 64
2, 366944, Note_on_c, 0, 78, 100
2, 367072, Note_off_c, 0, 52, 64
2, 367072, Note_off_c, 0, 78, 64
2, 367072, Note_off_c, 0, 79, 64
2, 367072, Note_on_c, 0, 79, 100
2, 367072, Note_on_c, 0, 52, 100
2, 367200, Note_off_c, 0, 79, 64
2, 367200, Note_off_c, 0, 76, 64
2, 367200, Note_on_c, 0, 76, 100
2, 367328, Note_off_c, 0, 76, 64
2, 367328, Note_off_c, 0, 52, 64
2, 367328, Note_on_c, 0, 76, 100
2, 367328, Note_off_c, 0, 76, 64
2, 367328, Note_off_c, 0, 49, 64
2, 367328, Note_on_c, 0, 49, 100
2, 367456, Note_off_c, 0, 73, 64
2, 367456, Note_on_c, 0, 73, 100
2, 367584, Note_off_c, 0, 73, 64
2, 367584, Note_off_c, 0, 49, 64
2, 367584, Note_off_c, 0, 74, 64
2, 367584, Note_on_c, 0, 74, 100
2, 367584, Note_off_c, 0, 47, 64
2, 367584, Note_on_c, 0, 47, 100
2, 367712, Note_off_c, 0, 74, 64
2, 367712, Note_off_c, 0, 78, 64
2, 367712, Note_on_c, 0, 78, 100
2, 367840, Note_off_c, 0, 47, 64
2, 367840, Note_off_c, 0, 76, 64
2, 367840, Note_on_c, 0, 76, 100
2, 367840, Note_on_c, 0, 47, 100
2, 367840, Note_on_c, 0, 49, 100
2, 367968, Note_off_c, 0, 78, 64
2, 367968, Note_off_c, 0, 76, 64
2, 367968, Note_on_c, 0, 76, 100
2, 368032, Note_off_c, 0, 49, 64
2, 368096, Note_off_c, 0, 76, 64
2, 368096, Note_off_c, 0, 74, 64
2, 368096, Note_on_c, 0, 74, 100
2, 368096, Note_off_c, 0, 47, 64
2, 368096, Note_on_c, 0, 47, 100
2, 368224, Note_off_c, 0, 74, 64
2, 368224, Note_off_c, 0, 76, 64
2, 368224, Note_on_c, 0, 76, 100
2, 368352, Note_off_c, 0, 76, 64
2, 368352, Note_off_c, 0, 47, 64
2, 368352, Note_off_c, 0, 78, 64
2, 368352, Note_on_c, 0, 78, 100
2, 368352, Note_off_c, 0, 57, 64
2, 368352, Note_on_c, 0, 57, 100
2, 368480, Note_off_c, 0, 78, 64
2, 368480, Note_off_c, 0, 76, 64
2, 368480, Note_on_c, 0, 76, 100
2, 368608, Note_off_c, 0, 76, 64
2, 368608, Note_off_c, 0, 73, 64
2, 368608, Note_on_c, 0, 73, 100
2, 368608, Note_off_c, 0, 57, 64
2, 368608, Note_on_c, 0, 57, 100
2, 368736, Note_off_c, 0, 73, 64
2, 368736, Note_off_c, 0, 74, 64
2, 368736, Note_on_c, 0, 74, 100
2, 368864, Note_off_c, 0, 74, 64
2, 368864, Note_off_c, 0, 57, 64
2, 368864, Note_off_c, 0, 76, 64
2, 368864, Note_on_c, 0, 76, 100
2, 368864, Note_off_c, 0, 59, 64
2, 368864, Note_on_c, 0, 59, 100
2, 368992, Note_off_c, 0, 76, 64
2, 368992, Note_off_c, 0, 78, 64
2, 368992, Note_on_c, 0, 78, 100
2, 369056, Note_off_c, 0, 59, 64
2, 369120, Note_off_c, 0, 78, 64
2, 369120, Note_off_c, 0, 81, 64
2, 369120, Note_on_c, 0, 81, 100
2, 369120, Note_off_c, 0, 57, 64
2, 369120, Note_on_c, 0, 57, 100
2, 369248, Note_off_c, 0, 81, 64
2, 369248, Note_off_c, 0, 83, 64
2, 369248, Note_on_c, 0, 83, 100
2, 369376, Note_off_c, 0, 83, 64
2, 369376, Note_off_c, 0, 61, 64
2, 369376, Note_on_c, 0, 61, 100
2, 369376, Note_on_c, 0, 83, 100
2, 369376, Note_off_c, 0, 83, 64
2, 369504, Note_on_c, 0, 83, 100
2, 369504, Note_off_c, 0, 81, 64
2, 369504, Note_on_c, 0, 81, 100
2, 369632, Note_off_c, 0, 57, 64
2, 369632, Note_off_c, 0, 81, 64
2, 369632, Note_on_c, 0, 81, 100
2, 369760, Note_off_c, 0, 81, 64
2, 369760, Note_off_c, 0, 83, 64
2, 369760, Note_on_c, 0, 83, 100
2, 369888, Note_off_c, 0, 83, 64
2, 369888, Note_off_c, 0, 61, 64
2, 369888, Note_on_c, 0, 61, 100
2, 369888, Note_on_c, 0, 80, 100
2, 369888, Note_on_c, 0, 76, 100
2, 369888, Note_on_c, 0, 54, 100
2, 370016, Note_off_c, 0, 76, 64
2, 370016, Note_off_c, 0, 80, 64
2, 370016, Note_on_c, 0, 80, 100
2, 370144, Note_off_c, 0, 80, 64
2, 370144, Note_on_c, 0, 59, 100
2, 370144, Note_off_c, 0, 78, 64
2, 370144, Note_on_c, 0, 78, 100
2, 370144, Note_off_c, 0, 57, 64
2, 370144, Note_on_c, 0, 57, 100
2, 370272, Note_off_c, 0, 78, 64
2, 370272, Note_off_c, 0, 76, 64
2, 370272, Note_on_c, 0, 76, 100
2, 370400, Note_off_c, 0, 76, 64
2, 370400, Note_off_c, 0, 54, 64
2, 370400, Note_on_c, 0, 76, 100
2, 370400, Note_off_c, 0, 76, 64
2, 370400, Note_on_c, 0, 54, 100
2, 370400, Note_off_c, 0, 57, 64
2, 370400, Note_off_c, 0, 61, 64
2, 370400, Note_on_c, 0, 61, 100
2, 370656, Note_off_c, 0, 61, 64
2, 370656, Note_on_c, 0, 76, 100
2, 370656, Note_off_c, 0, 73, 64
2, 370656, Note_on_c, 0, 73, 100
2, 370656, Note_on_c, 0, 69, 100
2, 370656, Note_off_c, 0, 54, 64
2, 370656, Note_on_c, 0, 54, 100
2, 370784, Note_off_c, 0, 73, 64
2, 370784, Note_off_c, 0, 69, 64
2, 370784, Note_off_c, 0, 71, 64
2, 370784, Note_on_c, 0, 71, 100
2, 370784, Note_off_c, 0, 54, 64
2, 370912, Note_off_c, 0, 71, 64
2, 370912, Note_off_c, 0, 68, 64
2, 370912, Note_on_c, 0, 68, 100
2, 370912, Note_off_c, 0, 50, 64
2, 370912, Note_on_c, 0, 50, 100
2, 370912, Note_off_c, 0, 38, 64
2, 371040, Note_off_c, 0, 68, 64
2, 371040, Note_off_c, 0, 69, 64
2, 371040, Note_on_c, 0, 69, 100
2, 371168, Note_off_c, 0, 50, 64
2, 371168, Note_off_c, 0, 52, 64
2, 371168, Note_on_c, 0, 52, 100
2, 371168, Note_on_c, 0, 68, 100
2, 371168, Note_off_c, 0, 40, 64
2, 371168, Note_on_c, 0, 40, 100
2, 371296, Note_off_c, 0, 40, 64
2, 371296, Note_off_c, 0, 47, 64
2, 371296, Note_on_c, 0, 47, 100
2, 371424, Note_on_c, 0, 49, 100
2, 371424, Note_off_c, 0, 57, 64
2, 371424, Note_on_c, 0, 57, 100
2, 371424, Note_off_c, 0, 47, 64
2, 371424, Note_off_c, 0, 45, 64
2, 371424, Note_on_c, 0, 45, 100
2, 371552, Note_off_c, 0, 45, 64
2, 371552, Note_off_c, 0, 57, 64
2, 371552, Note_on_c, 0, 57, 100
2, 371680, Note_off_c, 0, 57, 64
2, 371680, Note_off_c, 0, 59, 64
2, 371680, Note_on_c, 0, 47, 100
2, 371680, Note_off_c, 0, 47, 64
2, 371680, Note_on_c, 0, 59, 100
2, 371680, Note_on_c, 0, 47, 100
2, 371808, Note_on_c, 0, 54, 100
2, 371808, Note_off_c, 0, 56, 64
2, 371808, Note_on_c, 0, 56, 100
2, 371936, Note_off_c, 0, 54, 64
2, 371936, Note_off_c, 0, 59, 64
2, 371936, Note_off_c, 0, 57, 64
2, 371936, Note_on_c, 0, 57, 100
2, 372064, Note_off_c, 0, 57, 64
2, 372064, Note_off_c, 0, 56, 64
2, 372064, Note_on_c, 0, 56, 100
2, 372192, Note_on_c, 0, 54, 100
2, 372192, Note_off_c, 0, 57, 64
2, 372192, Note_on_c, 0, 57, 100
2, 372192, Note_off_c, 0, 54, 64
2, 372192, Note_on_c, 0, 54, 100
2, 372320, Note_off_c, 0, 54, 64
2, 372320, Note_off_c, 0, 57, 64
2, 372320, Note_off_c, 0, 59, 64
2, 372320, Note_on_c, 0, 59, 100
2, 372320, Note_on_c, 0, 54, 100
2, 372320, Note_off_c, 0, 54, 64
2, 372448, Note_on_c, 0, 61, 100
2, 372448, Note_off_c, 0, 59, 64
2, 372448, Note_on_c, 0, 59, 100
2, 372576, Note_off_c, 0, 59, 64
2, 372576, Note_off_c, 0, 57, 64
2, 372576, Note_on_c, 0, 57, 100
2, 372704, Note_off_c, 0, 57, 64
2, 372704, Note_off_c, 0, 56, 64
2, 372704, Note_on_c, 0, 56, 100
2, 372704, Note_off_c, 0, 52, 64
2, 372704, Note_on_c, 0, 52, 100
2, 372832, Note_off_c, 0, 52, 64
2, 372832, Note_off_c, 0, 53, 64
2, 372832, Note_on_c, 0, 53, 100
2, 372960, Note_off_c, 0, 53, 64
2, 372960, Note_off_c, 0, 57, 64
2, 372960, Note_on_c, 0, 57, 100
2, 373088, Note_off_c, 0, 57, 64
2, 373088, Note_off_c, 0, 59, 64
2, 373088, Note_on_c, 0, 59, 100
2, 373216, Note_off_c, 0, 59, 64
2, 373216, Note_off_c, 0, 66, 64
2, 373216, Note_on_c, 0, 66, 100
2, 373216, Note_off_c, 0, 57, 64
2, 373216, Note_on_c, 0, 57, 100
2, 373344, Note_off_c, 0, 66, 64
2, 373344, Note_off_c, 0, 68, 64
2, 373344, Note_on_c, 0, 68, 100
2, 373472, Note_off_c, 0, 68, 64
2, 373472, Note_off_c, 0, 65, 64
2, 373472, Note_on_c, 0, 65, 100
2, 373472, Note_off_c, 0, 57, 64
2, 373472, Note_off_c, 0, 56, 64
2, 373472, Note_on_c, 0, 56, 100
2, 373600, Note_off_c, 0, 65, 64
2, 373600, Note_off_c, 0, 68, 64
2, 373600, Note_on_c, 0, 68, 100
2, 373728, Note_off_c, 0, 68, 64
2, 373728, Note_off_c, 0, 56, 64
2, 373728, Note_on_c, 0, 56, 100
2, 373728, Note_off_c, 0, 73, 64
2, 373728, Note_on_c, 0, 73, 100
2, 373728, Note_off_c, 0, 56, 64
2, 373856, Note_off_c, 0, 73, 64
2, 373856, Note_on_c, 0, 73, 100
2, 373856, Note_off_c, 0, 73, 64
2, 373984, Note_on_c, 0, 73, 100
2, 373984, Note_on_c, 0, 56, 100
2, 373984, Note_off_c, 0, 65, 64
2, 373984, Note_on_c, 0, 65, 100
2, 373984, Note_off_c, 0, 56, 64
2, 373984, Note_on_c, 0, 56, 100
2, 374112, Note_off_c, 0, 65, 64
2, 374112, Note_off_c, 0, 57, 64
2, 374112, Note_on_c, 0, 57, 100
2, 374240, Note_off_c, 0, 57, 64
2, 374240, Note_off_c, 0, 56, 64
2, 374240, Note_on_c, 0, 56, 100
2, 374368, Note_off_c, 0, 56, 64
2, 374368, Note_off_c, 0, 61, 64
2, 374368, Note_on_c, 0, 61, 100
2, 374496, Note_off_c, 0, 61, 64
2, 374496, Note_off_c, 0, 57, 64
2, 374496, Note_on_c, 0, 57, 100
2, 374624, Note_off_c, 0, 57, 64
2, 374624, Note_off_c, 0, 56, 64
2, 374624, Note_on_c, 0, 56, 100
2, 374752, Note_off_c, 0, 56, 64
2, 374752, Note_off_c, 0, 54, 64
2, 374752, Note_on_c, 0, 54, 100
2, 374880, Note_off_c, 0, 54, 64
2, 374880, Note_off_c, 0, 56, 64
2, 374880, Note_on_c, 0, 56, 100
2, 375008, Note_off_c, 0, 56, 64
2, 375008, Note_on_c, 0, 56, 100
2, 375008, Note_off_c, 0, 54, 64
2, 375008, Note_on_c, 0, 54, 100
2, 375136, Note_off_c, 0, 54, 64
2, 375136, Note_off_c, 0, 57, 64
2, 375136, Note_on_c, 0, 57, 100
2, 375264, Note_off_c, 0, 57, 64
2, 375264, Note_off_c, 0, 56, 64
2, 375264, Note_on_c, 0, 56, 100
2, 375264, Note_off_c, 0, 49, 64
2, 375264, Note_on_c, 0, 49, 100
2, 375392, Note_off_c, 0, 56, 64
2, 375392, Note_off_c, 0, 58, 64
2, 375392, Note_on_c, 0, 58, 100
2, 375520, Note_off_c, 0, 58, 64
2, 375520, Note_off_c, 0, 49, 64
2, 375520, Note_off_c, 0, 61, 64
2, 375520, Note_on_c, 0, 61, 100
2, 375648, Note_off_c, 0, 61, 64
2, 375648, Note_off_c, 0, 72, 64
2, 375648, Note_on_c, 0, 72, 100
2, 375776, Note_off_c, 0, 73, 64
2, 375776, Note_off_c, 0, 72, 64
2, 375776, Note_on_c, 0, 72, 100
2, 375776, Note_off_c, 0, 61, 64
2, 375776, Note_on_c, 0, 61, 100
2, 375904, Note_off_c, 0, 72, 64
2, 375904, Note_off_c, 0, 69, 64
2, 375904, Note_on_c, 0, 69, 100
2, 376032, Note_off_c, 0, 69, 64
2, 376032, Note_on_c, 0, 60, 100
2, 376032, Note_off_c, 0, 61, 64
2, 376032, Note_on_c, 0, 61, 100
2, 376032, Note_off_c, 0, 65, 64
2, 376032, Note_on_c, 0, 65, 100
2, 376160, Note_off_c, 0, 61, 64
2, 376160, Note_off_c, 0, 58, 64
2, 376160, Note_on_c, 0, 58, 100
2, 376288, Note_off_c, 0, 58, 64
2, 376288, Note_off_c, 0, 65, 64
2, 376288, Note_off_c, 0, 61, 64
2, 376288, Note_on_c, 0, 61, 100
2, 376288, Note_on_c, 0, 56, 100
2, 376288, Note_on_c, 0, 53, 100
2, 376416, Note_off_c, 0, 53, 64
2, 376416, Note_off_c, 0, 56, 64
2, 376416, Note_on_c, 0, 56, 100
2, 376544, Note_off_c, 0, 56, 64
2, 376544, Note_off_c, 0, 57, 64
2, 376544, Note_on_c, 0, 57, 100
2, 376544, Note_on_c, 0, 52, 100
2, 376672, Note_off_c, 0, 57, 64
2, 376672, Note_off_c, 0, 64, 64
2, 376672, Note_on_c, 0, 64, 100
2, 376800, Note_on_c, 0, 54, 100
2, 376800, Note_off_c, 0, 52, 64
2, 376800, Note_on_c, 0, 51, 100
2, 376800, Note_on_c, 0, 56, 100
2, 376800, Note_off_c, 0, 58, 64
2, 376800, Note_on_c, 0, 58, 100
2, 376928, Note_off_c, 0, 58, 64
2, 376928, Note_on_c, 0, 59, 100
2, 377056, Note_off_c, 0, 63, 64
2, 377056, Note_on_c, 0, 52, 100
2, 377056, Note_off_c, 0, 59, 64
2, 377056, Note_on_c, 0, 59, 100
2, 377056, Note_off_c, 0, 56, 64
2, 377056, Note_on_c, 0, 56, 100
2, 377184, Note_off_c, 0, 59, 64
2, 377184, Note_off_c, 0, 57, 64
2, 377184, Note_on_c, 0, 57, 100
2, 377312, Note_off_c, 0, 56, 64
2, 377312, Note_off_c, 0, 57, 64
2, 377312, Note_off_c, 0, 69, 64
2, 377312, Note_on_c, 0, 69, 100
2, 377312, Note_off_c, 0, 54, 64
2, 377312, Note_on_c, 0, 54, 100
2, 377440, Note_off_c, 0, 54, 64
2, 377440, Note_off_c, 0, 49, 64
2, 377440, Note_on_c, 0, 49, 100
2, 377568, Note_off_c, 0, 49, 64
2, 377568, Note_off_c, 0, 69, 64
2, 377568, Note_off_c, 0, 76, 64
2, 377568, Note_on_c, 0, 76, 100
2, 377568, Note_on_c, 0, 49, 100
2, 377568, Note_off_c, 0, 49, 64
2, 377696, Note_on_c, 0, 49, 100
2, 377696, Note_off_c, 0, 47, 64
2, 377696, Note_on_c, 0, 47, 100
2, 377824, Note_off_c, 0, 47, 64
2, 377824, Note_off_c, 0, 49, 64
2, 377824, Note_on_c, 0, 49, 100
2, 377952, Note_off_c, 0, 76, 64
2, 377952, Note_off_c, 0, 74, 64
2, 377952, Note_on_c, 0, 74, 100
2, 377952, Note_on_c, 0, 47, 100
2, 378080, Note_off_c, 0, 74, 64
2, 378080, Note_off_c, 0, 73, 64
2, 378080, Note_on_c, 0, 73, 100
2, 378208, Note_on_c, 0, 76, 100
2, 378208, Note_off_c, 0, 76, 64
2, 378208, Note_on_c, 0, 76, 100
2, 378336, Note_off_c, 0, 76, 64
2, 378336, Note_off_c, 0, 73, 64
2, 378336, Note_off_c, 0, 71, 64
2, 378336, Note_on_c, 0, 71, 100
2, 378464, Note_off_c, 0, 71, 64
2, 378464, Note_off_c, 0, 69, 64
2, 378464, Note_on_c, 0, 69, 100
2, 378592, Note_off_c, 0, 69, 64
2, 378592, Note_off_c, 0, 71, 64
2, 378592, Note_on_c, 0, 71, 100
2, 378720, Note_off_c, 0, 71, 64
2, 378720, Note_off_c, 0, 68, 64
2, 378720, Note_on_c, 0, 68, 100
2, 378848, Note_off_c, 0, 68, 64
2, 378848, Note_off_c, 0, 67, 64
2, 378848, Note_on_c, 0, 67, 100
2, 378976, Note_off_c, 0, 67, 64
2, 378976, Note_off_c, 0, 74, 64
2, 378976, Note_on_c, 0, 74, 100
2, 379104, Note_off_c, 0, 74, 64
2, 379104, Note_off_c, 0, 73, 64
2, 379104, Note_on_c, 0, 73, 100
2, 379232, Note_off_c, 0, 73, 64
2, 379232, Note_off_c, 0, 71, 64
2, 379232, Note_on_c, 0, 71, 100
2, 379360, Note_off_c, 0, 71, 64
2, 379360, Note_off_c, 0, 55, 64
2, 379360, Note_on_c, 0, 55, 100
2, 379488, Note_off_c, 0, 55, 64
2, 379488, Note_off_c, 0, 68, 64
2, 379488, Note_on_c, 0, 68, 100
2, 379552, Note_off_c, 0, 68, 64
2, 379616, Note_off_c, 0, 68, 64
2, 379616, Note_on_c, 0, 68, 100
2, 379744, Note_off_c, 0, 68, 64
2, 379744, Note_off_c, 0, 67, 64
2, 379744, Note_on_c, 0, 67, 100
2, 379872, Note_off_c, 0, 67, 64
2, 379872, Note_off_c, 0, 73, 64
2, 379872, Note_on_c, 0, 73, 100
2, 380000, Note_off_c, 0, 73, 64
2, 380000, Note_off_c, 0, 74, 64
2, 380000, Note_on_c, 0, 74, 100
2, 380128, Note_off_c, 0, 74, 64
2, 380128, Note_off_c, 0, 71, 64
2, 380128, Note_on_c, 0, 71, 100
2, 380128, Note_on_c, 0, 44, 100
2, 380256, Note_off_c, 0, 71, 64
2, 380256, Note_off_c, 0, 44, 64
2, 380256, Note_on_c, 0, 44, 100
2, 380256, Note_off_c, 0, 44, 64
2, 380320, Note_on_c, 0, 43, 100
2, 380384, Note_off_c, 0, 42, 64
2, 380384, Note_on_c, 0, 42, 100
2, 380384, Note_on_c, 0, 44, 100
2, 380512, Note_off_c, 0, 44, 64
2, 380512, Note_off_c, 0, 47, 64
2, 380512, Note_on_c, 0, 47, 100
2, 380640, Note_off_c, 0, 47, 64
2, 380640, Note_off_c, 0, 49, 64
2, 380640, Note_on_c, 0, 49, 100
2, 380768, Note_off_c, 0, 49, 64
2, 380768, Note_off_c, 0, 50, 64
2, 380768, Note_on_c, 0, 50, 100
2, 380896, Note_off_c, 0, 50, 64
2, 380896, Note_off_c, 0, 49, 64
2, 380896, Note_on_c, 0, 49, 100
2, 381024, Note_off_c, 0, 49, 64
2, 381024, Note_off_c, 0, 47, 64
2, 381024, Note_on_c, 0, 47, 100
2, 381152, Note_off_c, 0, 47, 64
2, 381152, Note_off_c, 0, 46, 64
2, 381152, Note_on_c, 0, 46, 100
2, 381280, Note_off_c, 0, 46, 64
2, 381280, Note_off_c, 0, 47, 64
2, 381280, Note_on_c, 0, 47, 100
2, 381408, Note_off_c, 0, 47, 64
2, 381408, Note_on_c, 0, 47, 100
2, 381408, Note_off_c, 0, 47, 64
2, 381536, Note_off_c, 0, 47, 64
2, 381536, Note_on_c, 0, 47, 100
2, 381664, Note_off_c, 0, 47, 64
2, 381664, Note_off_c, 0, 51, 64
2, 381664, Note_on_c, 0, 51, 100
2, 381792, Note_off_c, 0, 51, 64
2, 381792, Note_off_c, 0, 50, 64
2, 381792, Note_on_c, 0, 50, 100
2, 381920, Note_off_c, 0, 50, 64
2, 381920, Note_off_c, 0, 47, 64
2, 381920, Note_on_c, 0, 47, 100
2, 382048, Note_off_c, 0, 47, 64
2, 382048, Note_on_c, 0, 47, 100
2, 382048, Note_off_c, 0, 47, 64
2, 382176, Note_on_c, 0, 47, 100
2, 382176, Note_on_c, 0, 51, 100
2, 382176, Note_off_c, 0, 52, 64
2, 382176, Note_on_c, 0, 52, 100
2, 382304, Note_off_c, 0, 52, 64
2, 382304, Note_off_c, 0, 49, 64
2, 382304, Note_on_c, 0, 49, 100
2, 382432, Note_off_c, 0, 49, 64
2, 382432, Note_off_c, 0, 54, 64
2, 382432, Note_on_c, 0, 54, 100
2, 382560, Note_off_c, 0, 54, 64
2, 382560, Note_off_c, 0, 52, 64
2, 382560, Note_on_c, 0, 52, 100
2, 382688, Note_off_c, 0, 52, 64
2, 382688, Note_off_c, 0, 54, 64
2, 382688, Note_on_c, 0, 54, 100
2, 382816, Note_off_c, 0, 54, 64
2, 382816, Note_off_c, 0, 56, 64
2, 382816, Note_on_c, 0, 56, 100
2, 382944, Note_off_c, 0, 56, 64
2, 382944, Note_off_c, 0, 54, 64
2, 382944, Note_on_c, 0, 54, 100
2, 383072, Note_off_c, 0, 54, 64
2, 383072, Note_off_c, 0, 56, 64
2, 383072, Note_on_c, 0, 56, 100
2, 383200, Note_off_c, 0, 56, 64
2, 383200, Note_off_c, 0, 66, 64
2, 383200, Note_on_c, 0, 66, 100
2, 383200, Note_on_c, 0, 54, 100
2, 383200, Note_on_c, 0, 53, 100
2, 383328, Note_off_c, 0, 54, 64
2, 383328, Note_off_c, 0, 59, 64
2, 383328, Note_on_c, 0, 59, 100
2, 383456, Note_off_c, 0, 59, 64
2, 383456, Note_off_c, 0, 66, 64
2, 383456, Note_off_c, 0, 51, 64
2, 383456, Note_on_c, 0, 51, 100
2, 383584, Note_off_c, 0, 51, 64
2, 383584, Note_off_c, 0, 56, 64
2, 383584, Note_on_c, 0, 56, 100
2, 383712, Note_off_c, 0, 56, 64
2, 383712, Note_off_c, 0, 54, 64
2, 383712, Note_on_c, 0, 54, 100
2, 383840, Note_off_c, 0, 54, 64
2, 383840, Note_off_c, 0, 64, 64
2, 383840, Note_on_c, 0, 64, 100
2, 383968, Note_off_c, 0, 64, 64
2, 383968, Note_on_c, 0, 56, 100
2, 383968, Note_off_c, 0, 56, 64
2, 383968, Note_on_c, 0, 56, 100
2, 383968, Note_off_c, 0, 44, 64
2, 383968, Note_on_c, 0, 44, 100
2, 384096, Note_off_c, 0, 56, 64
2, 384096, Note_off_c, 0, 54, 64
2, 384096, Note_on_c, 0, 54, 100
2, 384224, Note_off_c, 0, 54, 64
2, 384224, Note_off_c, 0, 57, 64
2, 384224, Note_on_c, 0, 57, 100
2, 384352, Note_off_c, 0, 57, 64
2, 384352, Note_off_c, 0, 56, 64
2, 384352, Note_on_c, 0, 56, 100
2, 384480, Note_off_c, 0, 56, 64
2, 384480, Note_off_c, 0, 59, 64
2, 384480, Note_on_c, 0, 59, 100
2, 384480, Note_off_c, 0, 44, 64
2, 384480, Note_on_c, 0, 44, 100
2, 384608, Note_off_c, 0, 59, 64
2, 384608, Note_off_c, 0, 61, 64
2, 384608, Note_on_c, 0, 61, 100
2, 384736, Note_off_c, 0, 61, 64
2, 384736, Note_off_c, 0, 64, 64
2, 384736, Note_on_c, 0, 64, 100
2, 384736, Note_on_c, 0, 40, 100
2, 384736, Note_off_c, 0, 42, 64
2, 384736, Note_on_c, 0, 42, 100
2, 384864, Note_off_c, 0, 64, 64
2, 384864, Note_off_c, 0, 66, 64
2, 384864, Note_on_c, 0, 66, 100
2, 384992, Note_off_c, 0, 66, 64
2, 384992, Note_off_c, 0, 68, 64
2, 384992, Note_on_c, 0, 68, 100
2, 385120, Note_off_c, 0, 68, 64
2, 385120, Note_off_c, 0, 64, 64
2, 385120, Note_on_c, 0, 64, 100
2, 385248, Note_off_c, 0, 64, 64
2, 385248, Note_off_c, 0, 42, 64
2, 385248, Note_off_c, 0, 66, 64
2, 385248, Note_on_c, 0, 66, 100
2, 385248, Note_off_c, 0, 62, 64
2, 385248, Note_on_c, 0, 62, 100
2, 385248, Note_on_c, 0, 42, 100
2, 385248, Note_off_c, 0, 42, 64
2, 385376, Note_off_c, 0, 66, 64
2, 385376, Note_off_c, 0, 69, 64
2, 385376, Note_on_c, 0, 69, 100
2, 385504, Note_off_c, 0, 69, 64
2, 385504, Note_off_c, 0, 62, 64
2, 385504, Note_on_c, 0, 62, 100
2, 385504, Note_on_c, 0, 69, 100
2, 385504, Note_off_c, 0, 71, 64
2, 385504, Note_on_c, 0, 71, 100
2, 385632, Note_off_c, 0, 71, 64
2, 385632, Note_off_c, 0, 69, 64
2, 385632, Note_on_c, 0, 69, 100
2, 385760, Note_off_c, 0, 69, 64
2, 385760, Note_on_c, 0, 42, 100
2, 385760, Note_off_c, 0, 62, 64
2, 385760, Note_off_c, 0, 79, 64
2, 385760, Note_on_c, 0, 79, 100
2, 385760, Note_on_c, 0, 62, 100
2, 385760, Note_off_c, 0, 62, 64
2, 385760, Note_on_c, 0, 50, 100
2, 385888, Note_off_c, 0, 79, 64
2, 385888, Note_off_c, 0, 73, 64
2, 385888, Note_on_c, 0, 73, 100
2, 386016, Note_off_c, 0, 73, 64
2, 386016, Note_on_c, 0, 62, 100
2, 386016, Note_off_c, 0, 66, 64
2, 386016, Note_on_c, 0, 66, 100
2, 386016, Note_off_c, 0, 74, 64
2, 386016, Note_on_c, 0, 74, 100
2, 386144, Note_off_c, 0, 66, 64
2, 386144, Note_off_c, 0, 62, 64
2, 386144, Note_on_c, 0, 62, 100
2, 386208, Note_off_c, 0, 74, 64
2, 386272, Note_off_c, 0, 62, 64
2, 386272, Note_on_c, 0, 54, 100
2, 386272, Note_off_c, 0, 55, 64
2, 386272, Note_off_c, 0, 79, 64
2, 386272, Note_on_c, 0, 79, 100
2, 386272, Note_on_c, 0, 55, 100
2, 386400, Note_off_c, 0, 79, 64
2, 386400, Note_off_c, 0, 54, 64
2, 386464, Note_off_c, 0, 79, 64
2, 386464, Note_on_c, 0, 79, 100
2, 386464, Note_off_c, 0, 55, 64
2, 386464, Note_on_c, 0, 52, 100
2, 386528, Note_off_c, 0, 81, 64
2, 386528, Note_on_c, 0, 81, 100
2, 386528, Note_off_c, 0, 52, 64
2, 386528, Note_off_c, 0, 54, 64
2, 386528, Note_on_c, 0, 54, 100
2, 386656, Note_off_c, 0, 81, 64
2, 386656, Note_off_c, 0, 76, 64
2, 386656, Note_on_c, 0, 76, 100
2, 386784, Note_off_c, 0, 76, 64
2, 386784, Note_off_c, 0, 54, 64
2, 386848, Note_on_c, 0, 81, 100
2, 386848, Note_off_c, 0, 81, 64
2, 386848, Note_on_c, 0, 81, 100
2, 386848, Note_off_c, 0, 81, 64
2, 386848, Note_off_c, 0, 61, 64
2, 386848, Note_on_c, 0, 61, 100
2, 386848, Note_off_c, 0, 59, 64
2, 386848, Note_on_c, 0, 59, 100
2, 386848, Note_on_c, 0, 81, 100
2, 386848, Note_on_c, 0, 78, 100
2, 386976, Note_off_c, 0, 85, 64
2, 386976, Note_on_c, 0, 83, 100
2, 386976, Note_off_c, 0, 80, 64
2, 386976, Note_on_c, 0, 80, 100
2, 387040, Note_off_c, 0, 61, 64
2, 387040, Note_on_c, 0, 61, 100
2, 387040, Note_off_c, 0, 59, 64
2, 387040, Note_off_c, 0, 83, 64
2, 387040, Note_off_c, 0, 80, 64
2, 387040, Note_on_c, 0, 80, 100
2, 387040, Note_off_c, 0, 81, 64
2, 387040, Note_on_c, 0, 81, 100
2, 387040, Note_off_c, 0, 76, 64
2, 387040, Note_on_c, 0, 76, 100
2, 387104, Note_off_c, 0, 81, 64
2, 387104, Note_on_c, 0, 81, 100
2, 387104, Note_off_c, 0, 76, 64
2, 387104, Note_on_c, 0, 76, 100
2, 387104, Note_off_c, 0, 71, 64
2, 387104, Note_on_c, 0, 71, 100
2, 387232, Note_off_c, 0, 76, 64
2, 387232, Note_off_c, 0, 80, 64
2, 387232, Note_on_c, 0, 80, 100
2, 387232, Note_off_c, 0, 71, 64
2, 387232, Note_off_c, 0, 57, 64
2, 387232, Note_on_c, 0, 57, 100
2, 387296, Note_on_c, 0, 83, 100
2, 387296, Note_off_c, 0, 80, 64
2, 387296, Note_off_c, 0, 73, 64
2, 387296, Note_on_c, 0, 73, 100
2, 387296, Note_off_c, 0, 83, 64
2, 387296, Note_on_c, 0, 83, 100
2, 387360, Note_off_c, 0, 73, 64
2, 387360, Note_on_c, 0, 73, 100
2, 387360, Note_off_c, 0, 57, 64
2, 387360, Note_on_c, 0, 57, 100
2, 387360, Note_off_c, 0, 81, 64
2, 387360, Note_on_c, 0, 81, 100
2, 387360, Note_off_c, 0, 81, 64
2, 387360, Note_off_c, 0, 57, 64
2, 387424, Note_off_c, 0, 83, 64
2, 387424, Note_on_c, 0, 83, 100
2, 387424, Note_off_c, 0, 73, 64
2, 387424, Note_on_c, 0, 73, 100
2, 387424, Note_off_c, 0, 71, 64
2, 387424, Note_on_c, 0, 71, 100
2, 387488, Note_off_c, 0, 73, 64
2, 387488, Note_off_c, 0, 56, 64
2, 387488, Note_on_c, 0, 56, 100
2, 387488, Note_off_c, 0, 71, 64
2, 387488, Note_on_c, 0, 71, 100
2, 387488, Note_off_c, 0, 57, 64
2, 387488, Note_on_c, 0, 57, 100
2, 387552, Note_on_c, 0, 81, 100
2, 387552, Note_on_c, 0, 69, 100
2, 387616, Note_off_c, 0, 71, 64
2, 387616, Note_on_c, 0, 68, 100
2, 387616, Note_off_c, 0, 56, 64
2, 387616, Note_on_c, 0, 56, 100
2, 387616, Note_off_c, 0, 64, 64
2, 387616, Note_on_c, 0, 64, 100
2, 387680, Note_off_c, 0, 81, 64
2, 387680, Note_off_c, 0, 57, 64
2, 387680, Note_on_c, 0, 76, 100
2, 387744, Note_off_c, 0, 76, 64
2, 387744, Note_on_c, 0, 76, 100
2, 387744, Note_off_c, 0, 56, 64
2, 387744, Note_on_c, 0, 56, 100
2, 387744, Note_off_c, 0, 64, 64
2, 387808, Note_off_c, 0, 80, 64
2, 387808, Note_on_c, 0, 80, 100
2, 387808, Note_off_c, 0, 74, 64
2, 387808, Note_on_c, 0, 74, 100
2, 387872, Note_off_c, 0, 80, 64
2, 387872, Note_on_c, 0, 64, 100
2, 387872, Note_off_c, 0, 74, 64
2, 387872, Note_off_c, 0, 56, 64
2, 387872, Note_off_c, 0, 76, 64
2, 387872, Note_off_c, 0, 71, 64
2, 387872, Note_on_c, 0, 71, 100
2, 388000, Note_off_c, 0, 71, 64
2, 388000, Note_off_c, 0, 73, 64
2, 388000, Note_on_c, 0, 73, 100
2, 388064, Note_off_c, 0, 73, 64
2, 388064, Note_off_c, 0, 68, 64
2, 388064, Note_on_c, 0, 56, 100
2, 388064, Note_off_c, 0, 76, 64
2, 388064, Note_on_c, 0, 76, 100
2, 388128, Note_off_c, 0, 68, 64
2, 388128, Note_on_c, 0, 68, 100
2, 388128, Note_off_c, 0, 64, 64
2, 388128, Note_on_c, 0, 64, 100
2, 388128, Note_off_c, 0, 74, 64
2, 388128, Note_on_c, 0, 74, 100
2, 388128, Note_off_c, 0, 47, 64
2, 388128, Note_on_c, 0, 47, 100
2, 388128, Note_off_c, 0, 47, 64
2, 388128, Note_on_c, 0, 49, 100
2, 388192, Note_off_c, 0, 76, 64
2, 388192, Note_on_c, 0, 76, 100
2, 388256, Note_off_c, 0, 74, 64
2, 388256, Note_on_c, 0, 74, 100
2, 388256, Note_off_c, 0, 76, 64
2, 388256, Note_on_c, 0, 76, 100
2, 388320, Note_off_c, 0, 79, 64
2, 388320, Note_on_c, 0, 79, 100
2, 388320, Note_off_c, 0, 74, 64
2, 388320, Note_off_c, 0, 64, 64
2, 388384, Note_off_c, 0, 79, 64
2, 388384, Note_off_c, 0, 76, 64
2, 388384, Note_on_c, 0, 79, 100
2, 388384, Note_off_c, 0, 79, 64
2, 388384, Note_off_c, 0, 71, 64
2, 388384, Note_on_c, 0, 71, 100
2, 388512, Note_on_c, 0, 79, 100
2, 388512, Note_off_c, 0, 76, 64
2, 388512, Note_on_c, 0, 76, 100
2, 388576, Note_on_c, 0, 47, 100
2, 388576, Note_off_c, 0, 49, 64
2, 388576, Note_on_c, 0, 49, 100
2, 388640, Note_off_c, 0, 76, 64
2, 388640, Note_off_c, 0, 71, 64
2, 388640, Note_off_c, 0, 85, 64
2, 388640, Note_on_c, 0, 85, 100
2, 388640, Note_off_c, 0, 69, 64
2, 388640, Note_on_c, 0, 69, 100
2, 388640, Note_off_c, 0, 49, 64
2, 388640, Note_on_c, 0, 49, 100
2, 388640, Note_off_c, 0, 49, 64
2, 388768, Note_off_c, 0, 86, 64
2, 388768, Note_on_c, 0, 86, 100
2, 388832, Note_on_c, 0, 76, 100
2, 388896, Note_on_c, 0, 81, 100
2, 388896, Note_off_c, 0, 48, 64
2, 388896, Note_off_c, 0, 69, 64
2, 388896, Note_off_c, 0, 64, 64
2, 388896, Note_on_c, 0, 64, 100
2, 388896, Note_on_c, 0, 48, 100
2, 388896, Note_off_c, 0, 33, 64
2, 388896, Note_off_c, 0, 78, 64
2, 388896, Note_off_c, 0, 57, 64
2, 388896, Note_on_c, 0, 57, 100
2, 389024, Note_off_c, 0, 64, 64
2, 389024, Note_off_c, 0, 57, 64
2, 389024, Note_off_c, 0, 81, 64
2, 389024, Note_off_c, 0, 48, 64
2, 389024, Note_on_c, 0, 72, 100
2, 389024, Note_on_c, 0, 64, 100
2, 389024, Note_off_c, 0, 36, 64
2, 389024, Note_on_c, 0, 36, 100
2, 389152, Note_off_c, 0, 69, 64
2, 389152, Note_on_c, 0, 69, 100
2, 389152, Note_off_c, 0, 79, 64
2, 389152, Note_on_c, 0, 79, 100
2, 389152, Note_off_c, 0, 64, 64
2, 389152, Note_off_c, 0, 66, 64
2, 389152, Note_on_c, 0, 66, 100
2, 389280, Note_off_c, 0, 79, 64
2, 389280, Note_off_c, 0, 76, 64
2, 389280, Note_on_c, 0, 76, 100
2, 389408, Note_off_c, 0, 69, 64
2, 389408, Note_off_c, 0, 66, 64
2, 389408, Note_off_c, 0, 67, 64
2, 389408, Note_on_c, 0, 48, 100
2, 389408, Note_off_c, 0, 43, 64
2, 389408, Note_off_c, 0, 76, 64
2, 389408, Note_on_c, 0, 67, 100
2, 389408, Note_on_c, 0, 69, 100
2, 389536, Note_off_c, 0, 69, 64
2, 389536, Note_off_c, 0, 67, 64
2, 389536, Note_on_c, 0, 67, 100
2, 389664, Note_off_c, 0, 67, 64
2, 389664, Note_off_c, 0, 72, 64
2, 389664, Note_on_c, 0, 72, 100
2, 389664, Note_off_c, 0, 76, 64
2, 389664, Note_on_c, 0, 76, 100
2, 389664, Note_on_c, 0, 67, 100
2, 389664, Note_off_c, 0, 43, 64
2, 389664, Note_on_c, 0, 43, 100
2, 389664, Note_off_c, 0, 72, 64
2, 389792, Note_off_c, 0, 67, 64
2, 389792, Note_on_c, 0, 52, 100
2, 389792, Note_off_c, 0, 72, 64
2, 389792, Note_on_c, 0, 72, 100
2, 389792, Note_off_c, 0, 48, 64
2, 389792, Note_off_c, 0, 60, 64
2, 389792, Note_on_c, 0, 48, 100
2, 389792, Note_off_c, 0, 52, 64
2, 389792, Note_on_c, 0, 52, 100
2, 389920, Note_off_c, 0, 72, 64
2, 389920, Note_off_c, 0, 76, 64
2, 389920, Note_on_c, 0, 60, 100
2, 389920, Note_on_c, 0, 79, 100
2, 389920, Note_off_c, 0, 48, 64
2, 389920, Note_off_c, 0, 64, 64
2, 389920, Note_on_c, 0, 64, 100
2, 389920, Note_off_c, 0, 36, 64
2, 389920, Note_off_c, 0, 52, 64
2, 390048, Note_off_c, 0, 64, 64
2, 390048, Note_on_c, 0, 67, 100
2, 390048, Note_off_c, 0, 79, 64
2, 390048, Note_off_c, 0, 76, 64
2, 390048, Note_on_c, 0, 76, 100
2, 390048, Note_off_c, 0, 71, 64
2, 390048, Note_on_c, 0, 71, 100
2, 390048, Note_off_c, 0, 72, 64
2, 390048, Note_on_c, 0, 72, 100
2, 390048, Note_off_c, 0, 43, 64
2, 390048, Note_on_c, 0, 36, 100
2, 390176, Note_off_c, 0, 71, 64
2, 390176, Note_off_c, 0, 72, 64
2, 390176, Note_on_c, 0, 55, 100
2, 390176, Note_on_c, 0, 43, 100
2, 390176, Note_off_c, 0, 76, 64
2, 390176, Note_off_c, 0, 75, 64
2, 390176, Note_on_c, 0, 75, 100
2, 390176, Note_off_c, 0, 77, 64
2, 390176, Note_on_c, 0, 77, 100
2, 390176, Note_off_c, 0, 43, 64
2, 390176, Note_on_c, 0, 43, 100
2, 390304, Note_off_c, 0, 77, 64
2, 390304, Note_off_c, 0, 43, 64
2, 390304, Note_off_c, 0, 79, 64
2, 390304, Note_on_c, 0, 79, 100
2, 390304, Note_off_c, 0, 75, 64
2, 390304, Note_on_c, 0, 75, 100
2, 390304, Note_off_c, 0, 74, 64
2, 390304, Note_on_c, 0, 74, 100
2, 390304, Note_off_c, 0, 48, 64
2, 390304, Note_on_c, 0, 48, 100
2, 390304, Note_off_c, 0, 36, 64
2, 390304, Note_on_c, 0, 36, 100
2, 390432, Note_off_c, 0, 79, 64
2, 390432, Note_off_c, 0, 36, 64
2, 390432, Note_on_c, 0, 36, 100
2, 390432, Note_off_c, 0, 74, 64
2, 390432, Note_on_c, 0, 79, 100
2, 390432, Note_off_c, 0, 48, 64
2, 390432, Note_off_c, 0, 77, 64
2, 390432, Note_on_c, 0, 77, 100
2, 390432, Note_off_c, 0, 41, 64
2, 390432, Note_on_c, 0, 41, 100
2, 390432, Note_off_c, 0, 72, 64
2, 390432, Note_on_c, 0, 72, 100
2, 390560, Note_off_c, 0, 77, 64
2, 390560, Note_on_c, 0, 77, 100
2, 390560, Note_off_c, 0, 77, 64
2, 390560, Note_on_c, 0, 74, 100
2, 390560, Note_off_c, 0, 72, 64
2, 390560, Note_on_c, 0, 72, 100
2, 390688, Note_off_c, 0, 72, 64
2, 390688, Note_off_c, 0, 41, 64
2, 390688, Note_off_c, 0, 79, 64
2, 390688, Note_off_c, 0, 77, 64
2, 390688, Note_on_c, 0, 77, 100
2, 390688, Note_off_c, 0, 74, 64
2, 390688, Note_on_c, 0, 74, 100
2, 390688, Note_off_c, 0, 55, 64
2, 390688, Note_on_c, 0, 55, 100
2, 390688, Note_on_c, 0, 79, 100
2, 390688, Note_off_c, 0, 79, 64
2, 390688, Note_off_c, 0, 43, 64
2, 390688, Note_on_c, 0, 43, 100
2, 390816, Note_on_c, 0, 79, 100
2, 390816, Note_off_c, 0, 74, 64
2, 390816, Note_off_c, 0, 75, 64
2, 390816, Note_off_c, 0, 77, 64
2, 390816, Note_on_c, 0, 74, 100
2, 390816, Note_off_c, 0, 55, 64
2, 390816, Note_off_c, 0, 43, 64
2, 390944, Note_on_c, 0, 77, 100
2, 390944, Note_off_c, 0, 74, 64
2, 390944, Note_on_c, 0, 75, 100
2, 390944, Note_on_c, 0, 55, 100
2, 390944, Note_off_c, 0, 55, 64
2, 390944, Note_off_c, 0, 43, 64
2, 390944, Note_off_c, 0, 79, 64
2, 390944, Note_on_c, 0, 55, 100
2, 390944, Note_off_c, 0, 55, 64
2, 390944, Note_on_c, 0, 43, 100
2, 391072, Note_on_c, 0, 79, 100
2, 391072, Note_on_c, 0, 55, 100
2, 391072, Note_off_c, 0, 77, 64
2, 391072, Note_on_c, 0, 77, 100
2, 391072, Note_off_c, 0, 53, 64
2, 391072, Note_on_c, 0, 53, 100
2, 391200, Note_off_c, 0, 77, 64
2, 391200, Note_off_c, 0, 53, 64
2, 391200, Note_on_c, 0, 77, 100
2, 391200, Note_off_c, 0, 75, 64
2, 391200, Note_on_c, 0, 75, 100
2, 391200, Note_off_c, 0, 72, 64
2, 391200, Note_on_c, 0, 72, 100
2, 391200, Note_off_c, 0, 48, 64
2, 391200, Note_on_c, 0, 48, 100
2, 391328, Note_off_c, 0, 75, 64
2, 391328, Note_off_c, 0, 72, 64
2, 391328, Note_on_c, 0, 75, 100
2, 391456, Note_off_c, 0, 48, 64
2, 391456, Note_off_c, 0, 75, 64
2, 391456, Note_off_c, 0, 79, 64
2, 391456, Note_off_c, 0, 72, 64
2, 391456, Note_on_c, 0, 48, 100
2, 391456, Note_off_c, 0, 48, 64
2, 391456, Note_on_c, 0, 72, 100
2, 391456, Note_on_c, 0, 79, 100
2, 391456, Note_off_c, 0, 69, 64
2, 391456, Note_on_c, 0, 69, 100
2, 391456, Note_off_c, 0, 60, 64
2, 391456, Note_on_c, 0, 48, 100
2, 391456, Note_off_c, 0, 36, 64
2, 391456, Note_on_c, 0, 36, 100
2, 391584, Note_on_c, 0, 75, 100
2, 391584, Note_off_c, 0, 76, 64
2, 391584, Note_on_c, 0, 76, 100
2, 391712, Note_off_c, 0, 48, 64
2, 391712, Note_off_c, 0, 36, 64
2, 391712, Note_off_c, 0, 76, 64
2, 391712, Note_off_c, 0, 69, 64
2, 391712, Note_on_c, 0, 36, 100
2, 391712, Note_off_c, 0, 82, 64
2, 391712, Note_on_c, 0, 82, 100
2, 391712, Note_off_c, 0, 41, 64
2, 391712, Note_on_c, 0, 41, 100
2, 391840, Note_off_c, 0, 82, 64
2, 391840, Note_on_c, 0, 76, 100
2, 391840, Note_off_c, 0, 67, 64
2, 391968, Note_off_c, 0, 76, 64
2, 391968, Note_off_c, 0, 41, 64
2, 391968, Note_on_c, 0, 67, 100
2, 391968, Note_on_c, 0, 60, 100
2, 391968, Note_off_c, 0, 84, 64
2, 391968, Note_on_c, 0, 84, 100
2, 391968, Note_off_c, 0, 40, 64
2, 391968, Note_on_c, 0, 40, 100
2, 391968, Note_off_c, 0, 68, 64
2, 391968, Note_on_c, 0, 68, 100
2, 391968, Note_on_c, 0, 52, 100
2, 392096, Note_off_c, 0, 68, 64
2, 392096, Note_off_c, 0, 84, 64
2, 392096, Note_off_c, 0, 80, 64
2, 392096, Note_on_c, 0, 80, 100
2, 392224, Note_on_c, 0, 41, 100
2, 392224, Note_off_c, 0, 68, 64
2, 392224, Note_off_c, 0, 40, 64
2, 392224, Note_on_c, 0, 82, 100
2, 392224, Note_off_c, 0, 80, 64
2, 392224, Note_on_c, 0, 80, 100
2, 392224, Note_off_c, 0, 76, 64
2, 392224, Note_on_c, 0, 76, 100
2, 392224, Note_off_c, 0, 80, 64
2, 392224, Note_on_c, 0, 68, 100
2, 392224, Note_off_c, 0, 44, 64
2, 392224, Note_off_c, 0, 77, 64
2, 392224, Note_on_c, 0, 77, 100
2, 392224, Note_on_c, 0, 44, 100
2, 392288, Note_off_c, 0, 76, 64
2, 392288, Note_off_c, 0, 77, 64
2, 392352, Note_on_c, 0, 77, 100
2, 392352, Note_on_c, 0, 80, 100
2, 392352, Note_on_c, 0, 76, 100
2, 392480, Note_off_c, 0, 44, 64
2, 392480, Note_off_c, 0, 68, 64
2, 392480, Note_off_c, 0, 80, 64
2, 392480, Note_off_c, 0, 76, 64
2, 392480, Note_off_c, 0, 77, 64
2, 392480, Note_off_c, 0, 47, 64
2, 392480, Note_off_c, 0, 35, 64
2, 392608, Note_off_c, 0, 75, 64
2, 392608, Note_on_c, 0, 47, 100
2, 392608, Note_on_c, 0, 35, 100
2, 392608, Note_on_c, 0, 77, 100
2, 392608, Note_off_c, 0, 49, 64
2, 392608, Note_off_c, 0, 37, 64
2, 392608, Note_on_c, 0, 81, 100
2, 392608, Note_on_c, 0, 49, 100
2, 392736, Note_on_c, 0, 37, 100
2, 392736, Note_off_c, 0, 49, 64
2, 392736, Note_off_c, 0, 81, 64
2, 392736, Note_off_c, 0, 83, 64
2, 392736, Note_off_c, 0, 77, 64
2, 392736, Note_off_c, 0, 62, 64
2, 392736, Note_off_c, 0, 50, 64
2, 392736, Note_on_c, 0, 38, 100
2, 392736, Note_on_c, 0, 62, 100
2, 392864, Note_off_c, 0, 76, 64
2, 392864, Note_on_c, 0, 77, 100
2, 392864, Note_on_c, 0, 76, 100
2, 392992, Note_on_c, 0, 50, 100
2, 392992, Note_off_c, 0, 38, 64
2, 392992, Note_off_c, 0, 62, 64
2, 392992, Note_off_c, 0, 76, 64
2, 392992, Note_off_c, 0, 77, 64
2, 392992, Note_on_c, 0, 68, 100
2, 392992, Note_on_c, 0, 71, 100
2, 393120, Note_off_c, 0, 71, 64
2, 393248, Note_on_c, 0, 77, 100
2, 393248, Note_off_c, 0, 68, 64
2, 393248, Note_on_c, 0, 71, 100
2, 393248, Note_on_c, 0, 68, 100
2, 393248, Note_on_c, 0, 76, 100
2, 393248, Note_off_c, 0, 52, 64
2, 393248, Note_on_c, 0, 74, 100
2, 393376, Note_off_c, 0, 68, 64
2, 393376, Note_off_c, 0, 74, 64
2, 393376, Note_off_c, 0, 77, 64
2, 393376, Note_on_c, 0, 68, 100
2, 393376, Note_off_c, 0, 71, 64
2, 393504, Note_on_c, 0, 52, 100
2, 393504, Note_off_c, 0, 68, 64
2, 393504, Note_on_c, 0, 74, 100
2, 393504, Note_on_c, 0, 71, 100
2, 393504, Note_off_c, 0, 76, 64
2, 393504, Note_on_c, 0, 77, 100
2, 393504, Note_on_c, 0, 68, 100
2, 393504, Note_off_c, 0, 68, 64
2, 393504, Note_on_c, 0, 76, 100
2, 393760, Note_off_c, 0, 76, 64
2, 393760, Note_off_c, 0, 74, 64
2, 393760, Note_off_c, 0, 71, 64
2, 393760, Note_on_c, 0, 68, 100
2, 393760, Note_off_c, 0, 77, 64
2, 393888, Note_off_c, 0, 76, 64
2, 393888, Note_on_c, 0, 76, 100
2, 394016, Note_off_c, 0, 80, 64
2, 394016, Note_on_c, 0, 80, 100
2, 394016, Note_off_c, 0, 76, 64
2, 394016, Note_on_c, 0, 65, 100
2, 394144, Note_on_c, 0, 76, 100
2, 394144, Note_off_c, 0, 68, 64
2, 394272, Note_off_c, 0, 72, 64
2, 394272, Note_off_c, 0, 80, 64
2, 394272, Note_on_c, 0, 68, 100
2, 394272, Note_off_c, 0, 64, 64
2, 394272, Note_on_c, 0, 72, 100
2, 394272, Note_off_c, 0, 72, 64
2, 394272, Note_on_c, 0, 64, 100
2, 394400, Note_on_c, 0, 80, 100
2, 394400, Note_on_c, 0, 72, 100
2, 394400, Note_on_c, 0, 77, 100
2, 394528, Note_off_c, 0, 77, 64
2, 394528, Note_off_c, 0, 80, 64
2, 394528, Note_off_c, 0, 68, 64
2, 394528, Note_off_c, 0, 72, 64
2, 394528, Note_on_c, 0, 80, 100
2, 394528, Note_off_c, 0, 60, 64
2, 394528, Note_on_c, 0, 48, 100
2, 394656, Note_off_c, 0, 80, 64
2, 394656, Note_on_c, 0, 72, 100
2, 394784, Note_on_c, 0, 60, 100
2, 394784, Note_off_c, 0, 48, 64
2, 394784, Note_off_c, 0, 72, 64
2, 394784, Note_off_c, 0, 65, 64
2, 394784, Note_off_c, 0, 68, 64
2, 394784, Note_on_c, 0, 68, 100
2, 394784, Note_on_c, 0, 72, 100
2, 394784, Note_off_c, 0, 36, 64
2, 394912, Note_off_c, 0, 68, 64
2, 394912, Note_on_c, 0, 84, 100
2, 395040, Note_off_c, 0, 60, 64
2, 395040, Note_off_c, 0, 72, 64
2, 395040, Note_off_c, 0, 77, 64
2, 395040, Note_on_c, 0, 77, 100
2, 395040, Note_on_c, 0, 68, 100
2, 395040, Note_off_c, 0, 76, 64
2, 395040, Note_on_c, 0, 65, 100
2, 395168, Note_on_c, 0, 76, 100
2, 395168, Note_on_c, 0, 72, 100
2, 395168, Note_on_c, 0, 69, 100
2, 395296, Note_off_c, 0, 77, 64
2, 395296, Note_off_c, 0, 69, 64
2, 395296, Note_off_c, 0, 60, 64
2, 395296, Note_off_c, 0, 86, 64
2, 395296, Note_off_c, 0, 84, 64
2, 395296, Note_on_c, 0, 77, 100
2, 395296, Note_on_c, 0, 69, 100
2, 395296, Note_off_c, 0, 65, 64
2, 395296, Note_on_c, 0, 65, 100
2, 395296, Note_off_c, 0, 72, 64
2, 395296, Note_on_c, 0, 60, 100
2, 395296, Note_on_c, 0, 57, 100
2, 395296, Note_on_c, 0, 84, 100
2, 395424, Note_off_c, 0, 57, 64
2, 395424, Note_off_c, 0, 60, 64
2, 395552, Note_off_c, 0, 69, 64
2, 395552, Note_off_c, 0, 65, 64
2, 395552, Note_off_c, 0, 60, 64
2, 395552, Note_on_c, 0, 60, 100
2, 395552, Note_on_c, 0, 81, 100
2, 395552, Note_off_c, 0, 82, 64
2, 395552, Note_on_c, 0, 82, 100
2, 395552, Note_off_c, 0, 70, 64
2, 395552, Note_on_c, 0, 73, 100
2, 395552, Note_off_c, 0, 55, 64
2, 395552, Note_off_c, 0, 43, 64
2, 395552, Note_on_c, 0, 70, 100
2, 395680, Note_off_c, 0, 70, 64
2, 395680, Note_off_c, 0, 73, 64
2, 395808, Note_off_c, 0, 84, 64
2, 395808, Note_on_c, 0, 43, 100
2, 395808, Note_on_c, 0, 40, 100
2, 395808, Note_off_c, 0, 41, 64
2, 395808, Note_on_c, 0, 84, 100
2, 395808, Note_off_c, 0, 82, 64
2, 395808, Note_off_c, 0, 52, 64
2, 395936, Note_off_c, 0, 79, 64
2, 395936, Note_on_c, 0, 82, 100
2, 396064, Note_on_c, 0, 52, 100
2, 396064, Note_off_c, 0, 40, 64
2, 396064, Note_on_c, 0, 72, 100
2, 396064, Note_off_c, 0, 55, 64
2, 396064, Note_off_c, 0, 76, 64
2, 396064, Note_off_c, 0, 70, 64
2, 396064, Note_on_c, 0, 40, 100
2, 396064, Note_on_c, 0, 70, 100
2, 396064, Note_on_c, 0, 55, 100
2, 396192, Note_off_c, 0, 82, 64
2, 396192, Note_off_c, 0, 55, 64
2, 396320, Note_off_c, 0, 40, 64
2, 396320, Note_off_c, 0, 60, 64
2, 396320, Note_off_c, 0, 52, 64
2, 396320, Note_on_c, 0, 82, 100
2, 396320, Note_on_c, 0, 76, 100
2, 396320, Note_on_c, 0, 60, 100
2, 396320, Note_off_c, 0, 72, 64
2, 396448, Note_off_c, 0, 76, 64
2, 396448, Note_on_c, 0, 72, 100
2, 396448, Note_on_c, 0, 76, 100
2, 396448, Note_off_c, 0, 60, 64
2, 396576, Note_on_c, 0, 52, 100
2, 396576, Note_off_c, 0, 76, 64
2, 396576, Note_on_c, 0, 76, 100
2, 396576, Note_off_c, 0, 64, 64
2, 396576, Note_on_c, 0, 79, 100
2, 396576, Note_off_c, 0, 67, 64
2, 396576, Note_off_c, 0, 72, 64
2, 396576, Note_off_c, 0, 50, 64
2, 396704, Note_off_c, 0, 79, 64
2, 396704, Note_off_c, 0, 52, 64
2, 396704, Note_on_c, 0, 67, 100
2, 396704, Note_on_c, 0, 64, 100
2, 396704, Note_off_c, 0, 76, 64
2, 396704, Note_off_c, 0, 70, 64
2, 396832, Note_off_c, 0, 67, 64
2, 396832, Note_off_c, 0, 70, 64
2, 396832, Note_on_c, 0, 70, 100
2, 396832, Note_on_c, 0, 50, 100
2, 396832, Note_off_c, 0, 72, 64
2, 396832, Note_off_c, 0, 79, 64
2, 396832, Note_off_c, 0, 52, 64
2, 396832, Note_on_c, 0, 72, 100
2, 396832, Note_on_c, 0, 79, 100
2, 396832, Note_on_c, 0, 52, 100
2, 396960, Note_off_c, 0, 79, 64
2, 396960, Note_off_c, 0, 72, 64
2, 396960, Note_on_c, 0, 79, 100
2, 396960, Note_on_c, 0, 76, 100
2, 397088, Note_on_c, 0, 72, 100
2, 397088, Note_off_c, 0, 72, 64
2, 397088, Note_off_c, 0, 52, 64
2, 397088, Note_off_c, 0, 76, 64
2, 397088, Note_off_c, 0, 79, 64
2, 397088, Note_on_c, 0, 67, 100
2, 397088, Note_off_c, 0, 48, 64
2, 397088, Note_on_c, 0, 72, 100
2, 397088, Note_off_c, 0, 64, 64
2, 397088, Note_on_c, 0, 36, 100
2, 397088, Note_on_c, 0, 64, 100
2, 397088, Note_on_c, 0, 48, 100
2, 397088, Note_on_c, 0, 60, 100
2, 397248, Note_off_c, 0, 67, 64
2, 397312, Note_off_c, 0, 64, 64
2, 397376, Note_on_c, 0, 67, 100
2, 397376, Note_on_c, 0, 79, 100
2, 397376, Note_off_c, 0, 72, 64
2, 397376, Note_on_c, 0, 72, 100
2, 397376, Note_on_c, 0, 76, 100
2, 397376, Note_on_c, 0, 58, 100
2, 397376, Note_on_c, 0, 52, 100
2, 397504, Note_off_c, 0, 79, 64
2, 397504, Note_off_c, 0, 76, 64
2, 397504, Note_off_c, 0, 60, 64
2, 397504, Note_off_c, 0, 72, 64
2, 397504, Note_off_c, 0, 48, 64
2, 397504, Note_off_c, 0, 36, 64
2, 397504, Note_off_c, 0, 70, 64
2, 397504, Note_off_c, 0, 66, 64
2, 397504, Note_on_c, 0, 66, 100
2, 397504, Note_off_c, 0, 42, 64
2, 397504, Note_on_c, 0, 42, 100
2, 397504, Note_on_c, 0, 75, 100
2, 397504, Note_on_c, 0, 60, 100
2, 397632, Note_off_c, 0, 43, 64
2, 397632, Note_on_c, 0, 70, 100
2, 397632, Note_off_c, 0, 72, 64
2, 397632, Note_off_c, 0, 60, 64
2, 397632, Note_off_c, 0, 66, 64
2, 397632, Note_off_c, 0, 50, 64
2, 397632, Note_on_c, 0, 66, 100
2, 397632, Note_off_c, 0, 67, 64
2, 397632, Note_off_c, 0, 76, 64
2, 397632, Note_on_c, 0, 72, 100
2, 397632, Note_off_c, 0, 48, 64
2, 397632, Note_on_c, 0, 64, 100
2, 397632, Note_on_c, 0, 48, 100
2, 397632, Note_on_c, 0, 36, 100
2, 397632, Note_on_c, 0, 76, 100
2, 398400, Note_off_c, 0, 66, 64
2, 398400, Note_on_c, 0, 60, 100
2, 398400, Note_on_c, 0, 67, 100
2, 398400, Note_off_c, 0, 48, 64
2, 398464, Note_off_c, 0, 64, 64
2, 398464, Note_off_c, 0, 72, 64
2, 398464, Note_on_c, 0, 64, 100
2, 398464, Note_on_c, 0, 62, 100
2, 398464, Note_on_c, 0, 46, 100
2, 398464, Note_on_c, 0, 34, 100
2, 398464, Note_off_c, 0, 58, 64
2, 398464, Note_on_c, 0, 69, 100
2, 398464, Note_on_c, 0, 58, 100
2, 398464, Note_on_c, 0, 72, 100
2, 398464, Note_on_c, 0, 57, 100
2, 398528, Note_off_c, 0, 46, 64
2, 398528, Note_off_c, 0, 69, 64
2, 398528, Note_off_c, 0, 57, 64
2, 398528, Note_off_c, 0, 50, 64
2, 398528, Note_on_c, 0, 50, 100
2, 398528, Note_on_c, 0, 38, 100
2, 398784, Note_off_c, 0, 72, 64
2, 398784, Note_on_c, 0, 69, 100
2, 398784, Note_on_c, 0, 66, 100
2, 398784, Note_off_c, 0, 62, 64
2, 398784, Note_on_c, 0, 57, 100
2, 398784, Note_off_c, 0, 38, 64
2, 398784, Note_off_c, 0, 58, 64
2, 398784, Note_off_c, 0, 50, 64
2, 398784, Note_off_c, 0, 70, 64
2, 398784, Note_on_c, 0, 71, 100
2, 398784, Note_off_c, 0, 55, 64
2, 398784, Note_on_c, 0, 43, 100
2, 398784, Note_on_c, 0, 55, 100
2, 399104, Note_off_c, 0, 71, 64
2, 399168, Note_on_c, 0, 62, 100
2, 399168, Note_off_c, 0, 67, 64
2, 399168, Note_on_c, 0, 67, 100
2, 399168, Note_off_c, 0, 55, 64
2, 399168, Note_off_c, 0, 43, 64
2, 399168, Note_on_c, 0, 55, 100
2, 399168, Note_on_c, 0, 59, 100
2, 399168, Note_on_c, 0, 63, 100
2, 399168, Note_on_c, 0, 44, 100
2, 400448, Note_off_c, 0, 67, 64
2, 400512, Note_off_c, 0, 59, 64
2, 400512, Note_on_c, 0, 43, 100
2, 400512, Note_off_c, 0, 47, 64
2, 400640, Note_on_c, 0, 47, 100
2, 400640, Note_on_c, 0, 39, 100
2, 400704, Note_off_c, 0, 39, 64
2, 400704, Note_on_c, 0, 41, 100
2, 402048, Note_on_c, 0, 65, 100
2, 402048, Note_off_c, 0, 75, 64
2, 402048, Note_off_c, 0, 41, 64
2, 402048, Note_on_c, 0, 72, 100
2, 402048, Note_on_c, 0, 53, 100
2, 402048, Note_off_c, 0, 44, 64
2, 402240, Note_off_c, 0, 72, 64
2, 402240, Note_off_c, 0, 65, 64
2, 402240, Note_off_c, 0, 53, 64
2, 402240, Note_on_c, 0, 70, 100
2, 402240, Note_off_c, 0, 70, 64
2, 402240, Note_off_c, 0, 63, 64
2, 402240, Note_on_c, 0, 63, 100
2, 402240, Note_on_c, 0, 70, 100
2, 402240, Note_off_c, 0, 46, 64
2, 402240, Note_on_c, 0, 53, 100
2, 402240, Note_on_c, 0, 46, 100
2, 402240, Note_on_c, 0, 41, 100
2, 402240, Note_off_c, 0, 34, 64
2, 402432, Note_off_c, 0, 63, 64
2, 402432, Note_off_c, 0, 70, 64
2, 402432, Note_off_c, 0, 53, 64
2, 402496, Note_on_c, 0, 71, 100
2, 402560, Note_off_c, 0, 71, 64
2, 402624, Note_on_c, 0, 75, 100
2, 402688, Note_off_c, 0, 75, 64
2, 404864, Note_on_c, 0, 75, 100
2, 404864, Note_on_c, 0, 70, 100
2, 404864, Note_off_c, 0, 41, 64
2, 404928, Note_off_c, 0, 70, 64
2, 404928, Note_off_c, 0, 68, 64
2, 405056, Note_off_c, 0, 68, 64
2, 405056, Note_off_c, 0, 56, 64
2, 405056, Note_on_c, 0, 56, 100
2, 405056, Note_on_c, 0, 65, 100
2, 405056, Note_on_c, 0, 68, 100
2, 405248, Note_off_c, 0, 68, 64
2, 405248, Note_off_c, 0, 65, 64
2, 405248, Note_off_c, 0, 63, 64
2, 405248, Note_on_c, 0, 63, 100
2, 405440, Note_on_c, 0, 68, 100
2, 405440, Note_off_c, 0, 63, 64
2, 405440, Note_on_c, 0, 65, 100
2, 405632, Note_off_c, 0, 68, 64
2, 405632, Note_on_c, 0, 68, 100
2, 405632, Note_on_c, 0, 63, 100
2, 405632, Note_off_c, 0, 62, 64
2, 405632, Note_on_c, 0, 53, 100
2, 405632, Note_off_c, 0, 41, 64
2, 405632, Note_on_c, 0, 41, 100
2, 405824, Note_off_c, 0, 65, 64
2, 405824, Note_off_c, 0, 68, 64
2, 405824, Note_on_c, 0, 62, 100
2, 405952, Note_off_c, 0, 53, 64
2, 405952, Note_on_c, 0, 68, 100
2, 405952, Note_off_c, 0, 41, 64
2, 405952, Note_on_c, 0, 53, 100
2, 405952, Note_on_c, 0, 41, 100
2, 406144, Note_off_c, 0, 68, 64
2, 406144, Note_off_c, 0, 41, 64
2, 406144, Note_off_c, 0, 53, 64
2, 406144, Note_on_c, 0, 58, 100
2, 406144, Note_off_c, 0, 56, 64
2, 406400, Note_off_c, 0, 55, 64
2, 406400, Note_off_c, 0, 58, 64
2, 406400, Note_off_c, 0, 51, 64
2, 406400, Note_on_c, 0, 51, 100
2, 406400, Note_on_c, 0, 39, 100
2, 406400, Note_on_c, 0, 58, 100
2, 406400, Note_on_c, 0, 56, 100
2, 406400, Note_on_c, 0, 50, 100
2, 406400, Note_off_c, 0, 38, 64
2, 406400, Note_on_c, 0, 38, 100
2, 406656, Note_on_c, 0, 65, 100
2, 406784, Note_off_c, 0, 65, 64
2, 406784, Note_off_c, 0, 58, 64
2, 406784, Note_off_c, 0, 51, 64
2, 406784, Note_off_c, 0, 50, 64
2, 406784, Note_off_c, 0, 39, 64
2, 406784, Note_on_c, 0, 51, 100
2, 406784, Note_off_c, 0, 56, 64
2, 406912, Note_on_c, 0, 56, 100
2, 406912, Note_on_c, 0, 55, 100
2, 406912, Note_off_c, 0, 51, 64
2, 406912, Note_off_c, 0, 60, 64
2, 406912, Note_on_c, 0, 51, 100
2, 406912, Note_on_c, 0, 39, 100
2, 406912, Note_on_c, 0, 60, 100
2, 406912, Note_on_c, 0, 44, 100
2, 407040, Note_off_c, 0, 51, 64
2, 407040, Note_off_c, 0, 39, 64
2, 407168, Note_off_c, 0, 60, 64
2, 407168, Note_on_c, 0, 58, 100
2, 407296, Note_off_c, 0, 58, 64
2, 407296, Note_on_c, 0, 51, 100
2, 407296, Note_off_c, 0, 51, 64
2, 407296, Note_on_c, 0, 39, 100
2, 407296, Note_off_c, 0, 61, 64
2, 407296, Note_on_c, 0, 61, 100
2, 407296, Note_on_c, 0, 51, 100
2, 407424, Note_off_c, 0, 61, 64
2, 407424, Note_on_c, 0, 58, 100
2, 407808, Note_off_c, 0, 58, 64
2, 407808, Note_on_c, 0, 70, 100
2, 407808, Note_off_c, 0, 55, 64
2, 407936, Note_off_c, 0, 70, 64
2, 408064, Note_off_c, 0, 75, 64
2, 408064, Note_on_c, 0, 70, 100
2, 408064, Note_on_c, 0, 55, 100
2, 408064, Note_on_c, 0, 68, 100
2, 408064, Note_off_c, 0, 51, 64
2, 408064, Note_off_c, 0, 39, 64
2, 408064, Note_on_c, 0, 72, 100
2, 408192, Note_off_c, 0, 72, 64
2, 408192, Note_on_c, 0, 71, 100
2, 408192, Note_off_c, 0, 70, 64
2, 408192, Note_off_c, 0, 68, 64
2, 408320, Note_on_c, 0, 68, 100
2, 408320, Note_on_c, 0, 51, 100
2, 408320, Note_off_c, 0, 70, 64
2, 408320, Note_on_c, 0, 70, 100
2, 408320, Note_on_c, 0, 67, 100
2, 408320, Note_on_c, 0, 58, 100
2, 408320, Note_off_c, 0, 45, 64
2, 408320, Note_off_c, 0, 33, 64
2, 408320, Note_on_c, 0, 33, 100
2, 408320, Note_on_c, 0, 45, 100
2, 408576, Note_off_c, 0, 67, 64
2, 408576, Note_off_c, 0, 57, 64
2, 408832, Note_off_c, 0, 70, 64
2, 408832, Note_on_c, 0, 61, 100
2, 408832, Note_off_c, 0, 33, 64
2, 408832, Note_on_c, 0, 49, 100
2, 408832, Note_off_c, 0, 45, 64
2, 408832, Note_off_c, 0, 51, 64
2, 408832, Note_off_c, 0, 37, 64
2, 408832, Note_on_c, 0, 39, 100
2, 409088, Note_off_c, 0, 38, 64
2, 409088, Note_on_c, 0, 51, 100
2, 409088, Note_on_c, 0, 37, 100
2, 409344, Note_off_c, 0, 52, 64
2, 409344, Note_off_c, 0, 61, 64
2, 409344, Note_off_c, 0, 58, 64
2, 409344, Note_on_c, 0, 65, 100
2, 409472, Note_off_c, 0, 37, 64
2, 409472, Note_off_c, 0, 41, 64
2, 409472, Note_on_c, 0, 41, 100
2, 409600, Note_on_c, 0, 61, 100
2, 409600, Note_off_c, 0, 41, 64
2, 409600, Note_on_c, 0, 58, 100
2, 409600, Note_off_c, 0, 46, 64
2, 409600, Note_on_c, 0, 34, 100
2, 409600, Note_on_c, 0, 46, 100
2, 409984, Note_off_c, 0, 34, 64
2, 409984, Note_off_c, 0, 46, 64
2, 409984, Note_off_c, 0, 65, 64
2, 409984, Note_off_c, 0, 58, 64
2, 410176, Note_on_c, 0, 58, 100
2, 410176, Note_off_c, 0, 58, 64
2, 410176, Note_off_c, 0, 76, 64
2, 410176, Note_on_c, 0, 58, 100
2, 410176, Note_on_c, 0, 46, 100
2, 410304, Note_off_c, 0, 58, 64
2, 410304, Note_on_c, 0, 76, 100
2, 410304, Note_off_c, 0, 46, 64
2, 410304, Note_on_c, 0, 70, 100
2, 410432, Note_off_c, 0, 70, 64
2, 410432, Note_off_c, 0, 73, 64
2, 410432, Note_on_c, 0, 73, 100
2, 410432, Note_on_c, 0, 65, 100
2, 410432, Note_off_c, 0, 68, 64
2, 410432, Note_off_c, 0, 49, 64
2, 410560, Note_off_c, 0, 73, 64
2, 410560, Note_on_c, 0, 68, 100
2, 410688, Note_off_c, 0, 65, 64
2, 410688, Note_on_c, 0, 49, 100
2, 410688, Note_off_c, 0, 68, 64
2, 410688, Note_off_c, 0, 76, 64
2, 410688, Note_on_c, 0, 48, 100
2, 410944, Note_on_c, 0, 68, 100
2, 410944, Note_off_c, 0, 48, 64
2, 410944, Note_on_c, 0, 76, 100
2, 410944, Note_on_c, 0, 60, 100
2, 410944, Note_on_c, 0, 78, 100
2, 410944, Note_on_c, 0, 48, 100
2, 411200, Note_off_c, 0, 60, 64
2, 411200, Note_off_c, 0, 78, 64
2, 411200, Note_off_c, 0, 48, 64
2, 411200, Note_off_c, 0, 68, 64
2, 411200, Note_on_c, 0, 60, 100
2, 411200, Note_off_c, 0, 69, 64
2, 411200, Note_on_c, 0, 69, 100
2, 411200, Note_on_c, 0, 54, 100
2, 411456, Note_off_c, 0, 60, 64
2, 411456, Note_off_c, 0, 69, 64
2, 411456, Note_on_c, 0, 68, 100
2, 411456, Note_on_c, 0, 69, 100
2, 411456, Note_on_c, 0, 60, 100
2, 411456, Note_off_c, 0, 54, 64
2, 411712, Note_off_c, 0, 76, 64
2, 411712, Note_off_c, 0, 60, 64
2, 411712, Note_off_c, 0, 56, 64
2, 411712, Note_off_c, 0, 68, 64
2, 411712, Note_off_c, 0, 71, 64
2, 411712, Note_on_c, 0, 59, 100
2, 411712, Note_off_c, 0, 52, 64
2, 411712, Note_on_c, 0, 52, 100
2, 411712, Note_on_c, 0, 40, 100
2, 412160, Note_on_c, 0, 71, 100
2, 412160, Note_off_c, 0, 59, 64
2, 412160, Note_off_c, 0, 52, 64
2, 412160, Note_off_c, 0, 40, 64
2, 412160, Note_off_c, 0, 44, 64
2, 412288, Note_on_c, 0, 44, 100
2, 412288, Note_off_c, 0, 42, 64
2, 412288, Note_on_c, 0, 42, 100
2, 412480, Note_off_c, 0, 42, 64
2, 412480, Note_on_c, 0, 54, 100
2, 412480, Note_on_c, 0, 42, 100
2, 412800, Note_off_c, 0, 54, 64
2, 412800, Note_on_c, 0, 68, 100
2, 412800, Note_off_c, 0, 44, 64
2, 412928, Note_on_c, 0, 44, 100
2, 413056, Note_on_c, 0, 56, 100
2, 413056, Note_off_c, 0, 56, 64
2, 413056, Note_on_c, 0, 80, 100
2, 413056, Note_off_c, 0, 71, 64
2, 413056, Note_on_c, 0, 56, 100
2, 413056, Note_off_c, 0, 43, 64
2, 413376, Note_on_c, 0, 71, 100
2, 413376, Note_off_c, 0, 44, 64
2, 413376, Note_off_c, 0, 55, 64
2, 413376, Note_off_c, 0, 80, 64
2, 413376, Note_off_c, 0, 53, 64
2, 413376, Note_on_c, 0, 41, 100
2, 413376, Note_on_c, 0, 53, 100
2, 413504, Note_off_c, 0, 41, 64
2, 413504, Note_off_c, 0, 56, 64
2, 413504, Note_off_c, 0, 51, 64
2, 413632, Note_on_c, 0, 51, 100
2, 413632, Note_off_c, 0, 56, 64
2, 413632, Note_on_c, 0, 56, 100
2, 413632, Note_on_c, 0, 59, 100
2, 413760, Note_off_c, 0, 59, 64
2, 413760, Note_off_c, 0, 56, 64
2, 413888, Note_off_c, 0, 55, 64
2, 413888, Note_on_c, 0, 55, 100
2, 413888, Note_off_c, 0, 43, 64
2, 413888, Note_on_c, 0, 43, 100
2, 414144, Note_on_c, 0, 79, 100
2, 414144, Note_off_c, 0, 63, 64
2, 414464, Note_off_c, 0, 55, 64
2, 414464, Note_off_c, 0, 43, 64
2, 414464, Note_on_c, 0, 43, 100
2, 414592, Note_off_c, 0, 43, 64
2, 414720, Note_off_c, 0, 55, 64
2, 414720, Note_on_c, 0, 55, 100
2, 414976, Note_off_c, 0, 62, 64
2, 414976, Note_on_c, 0, 63, 100
2, 414976, Note_off_c, 0, 55, 64
2, 414976, Note_on_c, 0, 55, 100
2, 415232, Note_off_c, 0, 55, 64
2, 415232, Note_on_c, 0, 62, 100
2, 415232, Note_on_c, 0, 56, 100
2, 415232, Note_on_c, 0, 43, 100
2, 415360, Note_off_c, 0, 56, 64
2, 415488, Note_off_c, 0, 43, 64
2, 415488, Note_off_c, 0, 53, 64
2, 415488, Note_on_c, 0, 53, 100
2, 415488, Note_off_c, 0, 55, 64
2, 415488, Note_on_c, 0, 55, 100
2, 415744, Note_on_c, 0, 56, 100
2, 415744, Note_off_c, 0, 55, 64
2, 416000, Note_on_c, 0, 55, 100
2, 416000, Note_off_c, 0, 56, 64
2, 416000, Note_off_c, 0, 51, 64
2, 416000, Note_on_c, 0, 56, 100
2, 416000, Note_off_c, 0, 71, 64
2, 416256, Note_on_c, 0, 51, 100
2, 416256, Note_off_c, 0, 50, 64
2, 416256, Note_on_c, 0, 50, 100
2, 416384, Note_off_c, 0, 50, 64
2, 416384, Note_off_c, 0, 54, 64
2, 416384, Note_on_c, 0, 54, 100
2, 416512, Note_off_c, 0, 56, 64
2, 416512, Note_on_c, 0, 83, 100
2, 416512, Note_on_c, 0, 71, 100
2, 416512, Note_on_c, 0, 56, 100
2, 416512, Note_off_c, 0, 56, 64
2, 416512, Note_off_c, 0, 47, 64
2, 416768, Note_on_c, 0, 47, 100
2, 416768, Note_on_c, 0, 45, 100
2, 417024, Note_off_c, 0, 45, 64
2, 417024, Note_off_c, 0, 53, 64
2, 417024, Note_off_c, 0, 54, 64
2, 417024, Note_off_c, 0, 74, 64
2, 417024, Note_on_c, 0, 74, 100
2, 417088, Note_off_c, 0, 74, 64
2, 417152, Note_off_c, 0, 59, 64
2, 417152, Note_on_c, 0, 59, 100
2, 417152, Note_off_c, 0, 81, 64
2, 417152, Note_on_c, 0, 81, 100
2, 417280, Note_off_c, 0, 59, 64
2, 417280, Note_off_c, 0, 57, 64
2, 417280, Note_on_c, 0, 57, 100
2, 417408, Note_on_c, 0, 54, 100
2, 417408, Note_off_c, 0, 57, 64
2, 417536, Note_off_c, 0, 57, 64
2, 417536, Note_on_c, 0, 57, 100
2, 417664, Note_off_c, 0, 57, 64
2, 417664, Note_off_c, 0, 59, 64
2, 417664, Note_on_c, 0, 59, 100
2, 417792, Note_off_c, 0, 61, 64
2, 417792, Note_off_c, 0, 57, 64
2, 417792, Note_on_c, 0, 57, 100
2, 417856, Note_off_c, 0, 59, 64
2, 417856, Note_on_c, 0, 59, 100
2, 417920, Note_off_c, 0, 59, 64
2, 417920, Note_on_c, 0, 59, 100
2, 417920, Note_off_c, 0, 57, 64
2, 417920, Note_off_c, 0, 62, 64
2, 418048, Note_off_c, 0, 59, 64
2, 418048, Note_off_c, 0, 61, 64
2, 418048, Note_on_c, 0, 61, 100
2, 418240, Note_on_c, 0, 59, 100
2, 418240, Note_off_c, 0, 61, 64
2, 418240, Note_on_c, 0, 61, 100
2, 418304, Note_off_c, 0, 81, 64
2, 418304, Note_on_c, 0, 81, 100
2, 418368, Note_off_c, 0, 61, 64
2, 418368, Note_on_c, 0, 62, 100
2, 418368, Note_off_c, 0, 59, 64
2, 418368, Note_on_c, 0, 59, 100
2, 418368, Note_off_c, 0, 64, 64
2, 418368, Note_on_c, 0, 64, 100
2, 418432, Note_off_c, 0, 81, 64
2, 418432, Note_on_c, 0, 81, 100
2, 418432, Note_off_c, 0, 83, 64
2, 418496, Note_off_c, 0, 82, 64
2, 418496, Note_on_c, 0, 82, 100
2, 418624, Note_on_c, 0, 83, 100
2, 418624, Note_off_c, 0, 74, 64
2, 418624, Note_on_c, 0, 74, 100
2, 418624, Note_off_c, 0, 64, 64
2, 418688, Note_on_c, 0, 61, 100
2, 418688, Note_off_c, 0, 73, 64
2, 418688, Note_on_c, 0, 73, 100
2, 418688, Note_off_c, 0, 57, 64
2, 418688, Note_on_c, 0, 57, 100
2, 418688, Note_off_c, 0, 84, 64
2, 418688, Note_on_c, 0, 84, 100
2, 418688, Note_off_c, 0, 81, 64
2, 418688, Note_on_c, 0, 81, 100
2, 418752, Note_off_c, 0, 62, 64
2, 418752, Note_on_c, 0, 62, 100
2, 418752, Note_off_c, 0, 66, 64
2, 418752, Note_on_c, 0, 66, 100
2, 418752, Note_off_c, 0, 81, 64
2, 418752, Note_off_c, 0, 73, 64
2, 418816, Note_off_c, 0, 74, 64
2, 418816, Note_off_c, 0, 81, 64
2, 418816, Note_on_c, 0, 81, 100
2, 418944, Note_off_c, 0, 81, 64
2, 418944, Note_on_c, 0, 81, 100
2, 419008, Note_on_c, 0, 74, 100
2, 419008, Note_off_c, 0, 66, 64
2, 419008, Note_off_c, 0, 57, 64
2, 419008, Note_off_c, 0, 78, 64
2, 419008, Note_on_c, 0, 78, 100
2, 419008, Note_off_c, 0, 62, 64
2, 419008, Note_on_c, 0, 62, 100
2, 419136, Note_off_c, 0, 78, 64
2, 419136, Note_off_c, 0, 74, 64
2, 419136, Note_on_c, 0, 74, 100
2, 419200, Note_off_c, 0, 81, 64
2, 419200, Note_off_c, 0, 69, 64
2, 419264, Note_off_c, 0, 74, 64
2, 419264, Note_on_c, 0, 69, 100
2, 419264, Note_off_c, 0, 69, 64
2, 419264, Note_on_c, 0, 69, 100
2, 419392, Note_off_c, 0, 78, 64
2, 419392, Note_on_c, 0, 78, 100
2, 419392, Note_on_c, 0, 74, 100
2, 419456, Note_off_c, 0, 69, 64
2, 419456, Note_off_c, 0, 62, 64
2, 419456, Note_on_c, 0, 86, 100
2, 419456, Note_off_c, 0, 86, 64
2, 419456, Note_on_c, 0, 86, 100
2, 419456, Note_off_c, 0, 83, 64
2, 419520, Note_off_c, 0, 74, 64
2, 419520, Note_off_c, 0, 86, 64
2, 419520, Note_on_c, 0, 86, 100
2, 419520, Note_off_c, 0, 78, 64
2, 419520, Note_on_c, 0, 78, 100
2, 419648, Note_off_c, 0, 86, 64
2, 419648, Note_on_c, 0, 86, 100
2, 419712, Note_off_c, 0, 84, 64
2, 419712, Note_off_c, 0, 36, 64
2, 419712, Note_off_c, 0, 83, 64
2, 419712, Note_on_c, 0, 83, 100
2, 419776, Note_off_c, 0, 71, 64
2, 419776, Note_on_c, 0, 71, 100
2, 419904, Note_off_c, 0, 71, 64
2, 419968, Note_off_c, 0, 72, 64
2, 419968, Note_on_c, 0, 72, 100
2, 419968, Note_off_c, 0, 66, 64
2, 419968, Note_on_c, 0, 66, 100
2, 420096, Note_off_c, 0, 83, 64
2, 420096, Note_on_c, 0, 71, 100
2, 420096, Note_off_c, 0, 66, 64
2, 420224, Note_off_c, 0, 72, 64
2, 420224, Note_off_c, 0, 74, 64
2, 420224, Note_on_c, 0, 74, 100
2, 420288, Note_off_c, 0, 74, 64
2, 420352, Note_off_c, 0, 72, 64
2, 420352, Note_on_c, 0, 72, 100
2, 420416, Note_off_c, 0, 74, 64
2, 420416, Note_on_c, 0, 74, 100
2, 420480, Note_on_c, 0, 70, 100
2, 420480, Note_off_c, 0, 84, 64
2, 420480, Note_on_c, 0, 84, 100
2, 420608, Note_off_c, 0, 72, 64
2, 420608, Note_off_c, 0, 74, 64
2, 420608, Note_on_c, 0, 74, 100
2, 420672, Note_off_c, 0, 78, 64
2, 420736, Note_off_c, 0, 81, 64
2, 420736, Note_on_c, 0, 81, 100
2, 420736, Note_off_c, 0, 74, 64
2, 420736, Note_off_c, 0, 72, 64
2, 420736, Note_on_c, 0, 72, 100
2, 420736, Note_off_c, 0, 78, 64
2, 420736, Note_on_c, 0, 78, 100
2, 420800, Note_off_c, 0, 81, 64
2, 420800, Note_on_c, 0, 81, 100
2, 420864, Note_off_c, 0, 78, 64
2, 420864, Note_off_c, 0, 79, 64
2, 420864, Note_on_c, 0, 79, 100
2, 420928, Note_off_c, 0, 72, 64
2, 420992, Note_off_c, 0, 69, 64
2, 420992, Note_on_c, 0, 69, 100
2, 421056, Note_off_c, 0, 79, 64
2, 421120, Note_off_c, 0, 69, 64
2, 421120, Note_on_c, 0, 69, 100
2, 421184, Note_off_c, 0, 69, 64
2, 421248, Note_off_c, 0, 72, 64
2, 421248, Note_on_c, 0, 72, 100
2, 421248, Note_off_c, 0, 66, 64
2, 421248, Note_on_c, 0, 66, 100
2, 421312, Note_off_c, 0, 72, 64
2, 421312, Note_off_c, 0, 66, 64
2, 421376, Note_off_c, 0, 74, 64
2, 421376, Note_on_c, 0, 74, 100
2, 421504, Note_off_c, 0, 74, 64
2, 421504, Note_on_c, 0, 74, 100
2, 421568, Note_off_c, 0, 69, 64
2, 421568, Note_on_c, 0, 69, 100
2, 421632, Note_off_c, 0, 66, 64
2, 421632, Note_on_c, 0, 66, 100
2, 421632, Note_off_c, 0, 74, 64
2, 421632, Note_off_c, 0, 71, 64
2, 421632, Note_on_c, 0, 71, 100
2, 421760, Note_off_c, 0, 69, 64
2, 421760, Note_on_c, 0, 74, 100
2, 421760, Note_off_c, 0, 71, 64
2, 421824, Note_on_c, 0, 71, 100
2, 421888, Note_off_c, 0, 69, 64
2, 421888, Note_on_c, 0, 69, 100
2, 421952, Note_off_c, 0, 74, 64
2, 422016, Note_off_c, 0, 69, 64
2, 422016, Note_on_c, 0, 69, 100
2, 422016, Note_off_c, 0, 66, 64
2, 422016, Note_on_c, 0, 66, 100
2, 422080, Note_off_c, 0, 67, 64
2, 422080, Note_on_c, 0, 67, 100
2, 422144, Note_off_c, 0, 66, 64
2, 422144, Note_off_c, 0, 67, 64
2, 422144, Note_on_c, 0, 67, 100
2, 422208, Note_off_c, 0, 69, 64
2, 422272, Note_off_c, 0, 67, 64
2, 422272, Note_on_c, 0, 67, 100
2, 422336, Note_on_c, 0, 69, 100
2, 422400, Note_off_c, 0, 67, 64
2, 422400, Note_on_c, 0, 76, 100
2, 422400, Note_off_c, 0, 69, 64
2, 422464, Note_off_c, 0, 64, 64
2, 422464, Note_on_c, 0, 64, 100
2, 422528, Note_off_c, 0, 67, 64
2, 422528, Note_on_c, 0, 67, 100
2, 422592, Note_off_c, 0, 64, 64
2, 422656, Note_off_c, 0, 69, 64
2, 422656, Note_on_c, 0, 69, 100
2, 422720, Note_off_c, 0, 71, 64
2, 422720, Note_on_c, 0, 71, 100
2, 422784, Note_off_c, 0, 69, 64
2, 422784, Note_on_c, 0, 69, 100
2, 422848, Note_off_c, 0, 67, 64
2, 422912, Note_off_c, 0, 67, 64
2, 422912, Note_on_c, 0, 67, 100
2, 422912, Note_off_c, 0, 66, 64
2, 422912, Note_on_c, 0, 66, 100
2, 422976, Note_off_c, 0, 76, 64
2, 423040, Note_off_c, 0, 66, 64
2, 423040, Note_off_c, 0, 76, 64
2, 423040, Note_on_c, 0, 76, 100
2, 423104, Note_off_c, 0, 66, 64
2, 423104, Note_on_c, 0, 66, 100
2, 423168, Note_off_c, 0, 67, 64
2, 423168, Note_on_c, 0, 67, 100
2, 423232, Note_off_c, 0, 67, 64
2, 423232, Note_off_c, 0, 66, 64
2, 423296, Note_off_c, 0, 76, 64
2, 423360, Note_on_c, 0, 66, 100
2, 423360, Note_off_c, 0, 63, 64
2, 423360, Note_on_c, 0, 63, 100
2, 423488, Note_off_c, 0, 78, 64
2, 423488, Note_on_c, 0, 78, 100
2, 423616, Note_off_c, 0, 63, 64
2, 423616, Note_on_c, 0, 67, 100
2, 423616, Note_off_c, 0, 78, 64
2, 423744, Note_off_c, 0, 67, 64
2, 423744, Note_off_c, 0, 64, 64
2, 423744, Note_on_c, 0, 64, 100
2, 423808, Note_off_c, 0, 57, 64
2, 423808, Note_on_c, 0, 57, 100
2, 423872, Note_off_c, 0, 57, 64
2, 423872, Note_on_c, 0, 67, 100
2, 423872, Note_off_c, 0, 66, 64
2, 423872, Note_on_c, 0, 66, 100
2, 423872, Note_off_c, 0, 62, 64
2, 423872, Note_on_c, 0, 62, 100
2, 424000, Note_off_c, 0, 62, 64
2, 424000, Note_off_c, 0, 57, 64
2, 424000, Note_on_c, 0, 57, 100
2, 424064, Note_off_c, 0, 66, 64
2, 424064, Note_off_c, 0, 57, 64
2, 424064, Note_on_c, 0, 66, 100
2, 424128, Note_off_c, 0, 67, 64
2, 424128, Note_on_c, 0, 67, 100
2, 424128, Note_off_c, 0, 59, 64
2, 424128, Note_on_c, 0, 59, 100
2, 424128, Note_off_c, 0, 64, 64
2, 424128, Note_on_c, 0, 64, 100
2, 424192, Note_off_c, 0, 69, 64
2, 424192, Note_on_c, 0, 69, 100
2, 424256, Note_off_c, 0, 59, 64
2, 424256, Note_off_c, 0, 66, 64
2, 424256, Note_on_c, 0, 66, 100
2, 424256, Note_off_c, 0, 62, 64
2, 424256, Note_on_c, 0, 62, 100
2, 424384, Note_off_c, 0, 69, 64
2, 424384, Note_off_c, 0, 67, 64
2, 424384, Note_on_c, 0, 67, 100
2, 424384, Note_off_c, 0, 66, 64
2, 424384, Note_off_c, 0, 62, 64
2, 424448, Note_off_c, 0, 67, 64
2, 424448, Note_off_c, 0, 66, 64
2, 424448, Note_on_c, 0, 66, 100
2, 424512, Note_off_c, 0, 67, 64
2, 424512, Note_on_c, 0, 67, 100
2, 424512, Note_off_c, 0, 71, 64
2, 424512, Note_on_c, 0, 71, 100
2, 424512, Note_off_c, 0, 62, 64
2, 424512, Note_on_c, 0, 62, 100
2, 424640, Note_off_c, 0, 71, 64
2, 424640, Note_off_c, 0, 67, 64
2, 424640, Note_off_c, 0, 69, 64
2, 424640, Note_on_c, 0, 69, 100
2, 424640, Note_off_c, 0, 66, 64
2, 424640, Note_on_c, 0, 66, 100
2, 424704, Note_off_c, 0, 62, 64
2, 424768, Note_off_c, 0, 69, 64
2, 424768, Note_on_c, 0, 69, 100
2, 424768, Note_off_c, 0, 67, 64
2, 424768, Note_on_c, 0, 67, 100
2, 424768, Note_off_c, 0, 62, 64
2, 424768, Note_on_c, 0, 62, 100
2, 424832, Note_off_c, 0, 64, 64
2, 424832, Note_on_c, 0, 64, 100
2, 424896, Note_off_c, 0, 69, 64
2, 424896, Note_on_c, 0, 69, 100
2, 424960, Note_off_c, 0, 67, 64
2, 424960, Note_off_c, 0, 69, 64
2, 425024, Note_off_c, 0, 64, 64
2, 425024, Note_off_c, 0, 62, 64
2, 425024, Note_on_c, 0, 62, 100
2, 425088, Note_on_c, 0, 64, 100
2, 425088, Note_off_c, 0, 62, 64
2, 425152, Note_off_c, 0, 76, 64
2, 425152, Note_on_c, 0, 76, 100
2, 425152, Note_off_c, 0, 74, 64
2, 425152, Note_on_c, 0, 74, 100
2, 425152, Note_off_c, 0, 71, 64
2, 425152, Note_on_c, 0, 71, 100
2, 425152, Note_off_c, 0, 66, 64
2, 425152, Note_on_c, 0, 66, 100
2, 425216, Note_off_c, 0, 76, 64
2, 425216, Note_on_c, 0, 76, 100
2, 425280, Note_off_c, 0, 76, 64
2, 425280, Note_on_c, 0, 76, 100
2, 425280, Note_off_c, 0, 73, 64
2, 425280, Note_on_c, 0, 73, 100
2, 425280, Note_off_c, 0, 74, 64
2, 425280, Note_on_c, 0, 74, 100
2, 425344, Note_off_c, 0, 74, 64
2, 425344, Note_on_c, 0, 74, 100
2, 425344, Note_off_c, 0, 66, 64
2, 425344, Note_on_c, 0, 66, 100
2, 425408, Note_off_c, 0, 76, 64
2, 425408, Note_on_c, 0, 76, 100
2, 425408, Note_off_c, 0, 73, 64
2, 425408, Note_on_c, 0, 73, 100
2, 425408, Note_off_c, 0, 76, 64
2, 425408, Note_on_c, 0, 76, 100
2, 425408, Note_off_c, 0, 57, 64
2, 425408, Note_on_c, 0, 57, 100
2, 425472, Note_off_c, 0, 59, 64
2, 425472, Note_on_c, 0, 59, 100
2, 425472, Note_off_c, 0, 57, 64
2, 425472, Note_off_c, 0, 73, 64
2, 425536, Note_off_c, 0, 74, 64
2, 425536, Note_on_c, 0, 74, 100
2, 425536, Note_off_c, 0, 59, 64
2, 425536, Note_on_c, 0, 59, 100
2, 425664, Note_off_c, 0, 61, 64
2, 425664, Note_on_c, 0, 61, 100
2, 425664, Note_off_c, 0, 59, 64
2, 425664, Note_on_c, 0, 56, 100
2, 425664, Note_off_c, 0, 76, 64
2, 425664, Note_off_c, 0, 74, 64
2, 425664, Note_off_c, 0, 71, 64
2, 425664, Note_on_c, 0, 71, 100
2, 425792, Note_on_c, 0, 74, 100
2, 425792, Note_off_c, 0, 71, 64
2, 425792, Note_on_c, 0, 59, 100
2, 425792, Note_off_c, 0, 54, 64
2, 425792, Note_off_c, 0, 78, 64
2, 425792, Note_on_c, 0, 78, 100
2, 425792, Note_on_c, 0, 57, 100
2, 425856, Note_off_c, 0, 78, 64
2, 425920, Note_off_c, 0, 80, 64
2, 425920, Note_on_c, 0, 80, 100
2, 425920, Note_off_c, 0, 64, 64
2, 425920, Note_on_c, 0, 64, 100
2, 425920, Note_off_c, 0, 61, 64
2, 425920, Note_on_c, 0, 61, 100
2, 425920, Note_off_c, 0, 74, 64
2, 425920, Note_on_c, 0, 74, 100
2, 426048, Note_off_c, 0, 64, 64
2, 426048, Note_off_c, 0, 66, 64
2, 426048, Note_on_c, 0, 66, 100
2, 426112, Note_off_c, 0, 68, 64
2, 426112, Note_off_c, 0, 80, 64
2, 426112, Note_off_c, 0, 61, 64
2, 426176, Note_off_c, 0, 74, 64
2, 426176, Note_on_c, 0, 68, 100
2, 426176, Note_on_c, 0, 83, 100
2, 426176, Note_off_c, 0, 78, 64
2, 426176, Note_on_c, 0, 78, 100
2, 426176, Note_off_c, 0, 73, 64
2, 426176, Note_on_c, 0, 73, 100
2, 426176, Note_off_c, 0, 68, 64
2, 426176, Note_on_c, 0, 68, 100
2, 426176, Note_off_c, 0, 66, 64
2, 426176, Note_on_c, 0, 66, 100
2, 426304, Note_off_c, 0, 66, 64
2, 426304, Note_off_c, 0, 68, 64
2, 426304, Note_on_c, 0, 62, 100
2, 426304, Note_on_c, 0, 66, 100
2, 426304, Note_off_c, 0, 71, 64
2, 426304, Note_on_c, 0, 71, 100
2, 426432, Note_off_c, 0, 73, 64
2, 426432, Note_off_c, 0, 62, 64
2, 426432, Note_off_c, 0, 86, 64
2, 426432, Note_off_c, 0, 66, 64
2, 426432, Note_off_c, 0, 71, 64
2, 426432, Note_on_c, 0, 73, 100
2, 426432, Note_off_c, 0, 73, 64
2, 426432, Note_off_c, 0, 74, 64
2, 426432, Note_on_c, 0, 74, 100
2, 426560, Note_off_c, 0, 74, 64
2, 426560, Note_off_c, 0, 73, 64
2, 426560, Note_on_c, 0, 73, 100
2, 426560, Note_on_c, 0, 66, 100
2, 426560, Note_on_c, 0, 69, 100
2, 426560, Note_off_c, 0, 81, 64
2, 426560, Note_off_c, 0, 78, 64
2, 426688, Note_off_c, 0, 69, 64
2, 426688, Note_off_c, 0, 66, 64
2, 426688, Note_off_c, 0, 73, 64
2, 426688, Note_off_c, 0, 74, 64
2, 426688, Note_on_c, 0, 74, 100
2, 426752, Note_off_c, 0, 59, 64
2, 426752, Note_on_c, 0, 59, 100
2, 426816, Note_on_c, 0, 78, 100
2, 426816, Note_off_c, 0, 73, 64
2, 426816, Note_on_c, 0, 73, 100
2, 426880, Note_off_c, 0, 74, 64
2, 426944, Note_off_c, 0, 73, 64
2, 426944, Note_on_c, 0, 73, 100
2, 426944, Note_off_c, 0, 76, 64
2, 426944, Note_on_c, 0, 76, 100
2, 426944, Note_off_c, 0, 73, 64
2, 426944, Note_on_c, 0, 73, 100
2, 426944, Note_off_c, 0, 66, 64
2, 426944, Note_on_c, 0, 66, 100
2, 426944, Note_off_c, 0, 61, 64
2, 426944, Note_on_c, 0, 61, 100
2, 427072, Note_off_c, 0, 76, 64
2, 427072, Note_off_c, 0, 66, 64
2, 427072, Note_off_c, 0, 73, 64
2, 427072, Note_off_c, 0, 74, 64
2, 427072, Note_on_c, 0, 74, 100
2, 427072, Note_off_c, 0, 71, 64
2, 427072, Note_on_c, 0, 71, 100
2, 427200, Note_off_c, 0, 74, 64
2, 427200, Note_off_c, 0, 71, 64
2, 427200, Note_off_c, 0, 59, 64
2, 427200, Note_on_c, 0, 74, 100
2, 427200, Note_off_c, 0, 74, 64
2, 427200, Note_off_c, 0, 68, 64
2, 427200, Note_on_c, 0, 68, 100
2, 427200, Note_off_c, 0, 62, 64
2, 427200, Note_on_c, 0, 62, 100
2, 427200, Note_on_c, 0, 71, 100
2, 427328, Note_off_c, 0, 71, 64
2, 427328, Note_off_c, 0, 68, 64
2, 427328, Note_off_c, 0, 62, 64
2, 427328, Note_on_c, 0, 74, 100
2, 427328, Note_off_c, 0, 73, 64
2, 427328, Note_on_c, 0, 73, 100
2, 427328, Note_on_c, 0, 66, 100
2, 427392, Note_off_c, 0, 74, 64
2, 427392, Note_off_c, 0, 66, 64
2, 427456, Note_off_c, 0, 73, 64
2, 427456, Note_off_c, 0, 74, 64
2, 427456, Note_on_c, 0, 74, 100
2, 427456, Note_off_c, 0, 57, 64
2, 427456, Note_on_c, 0, 57, 100
2, 427584, Note_off_c, 0, 74, 64
2, 427584, Note_off_c, 0, 57, 64
2, 427584, Note_off_c, 0, 78, 64
2, 427584, Note_on_c, 0, 78, 100
2, 427584, Note_off_c, 0, 62, 64
2, 427584, Note_on_c, 0, 62, 100
2, 427712, Note_off_c, 0, 78, 64
2, 427712, Note_off_c, 0, 62, 64
2, 427712, Note_on_c, 0, 62, 100
2, 427712, Note_off_c, 0, 62, 64
2, 427712, Note_on_c, 0, 57, 100
2, 427712, Note_on_c, 0, 45, 100
2, 427712, Note_off_c, 0, 73, 64
2, 427712, Note_on_c, 0, 73, 100
2, 427840, Note_off_c, 0, 73, 64
2, 427840, Note_on_c, 0, 62, 100
2, 427840, Note_off_c, 0, 74, 64
2, 427840, Note_on_c, 0, 74, 100
2, 427840, Note_off_c, 0, 66, 64
2, 427840, Note_on_c, 0, 66, 100
2, 427904, Note_off_c, 0, 74, 64
2, 427904, Note_off_c, 0, 45, 64
2, 427968, Note_off_c, 0, 66, 64
2, 427968, Note_off_c, 0, 74, 64
2, 427968, Note_on_c, 0, 74, 100
2, 427968, Note_off_c, 0, 68, 64
2, 427968, Note_on_c, 0, 68, 100
2, 427968, Note_off_c, 0, 57, 64
2, 427968, Note_on_c, 0, 57, 100
2, 427968, Note_off_c, 0, 59, 64
2, 427968, Note_on_c, 0, 59, 100
2, 428096, Note_off_c, 0, 57, 64
2, 428096, Note_off_c, 0, 59, 64
2, 428096, Note_on_c, 0, 59, 100
2, 428096, Note_off_c, 0, 68, 64
2, 428096, Note_off_c, 0, 74, 64
2, 428096, Note_off_c, 0, 71, 64
2, 428096, Note_on_c, 0, 71, 100
2, 428096, Note_off_c, 0, 59, 64
2, 428160, Note_off_c, 0, 76, 64
2, 428160, Note_on_c, 0, 76, 100
2, 428224, Note_off_c, 0, 71, 64
2, 428224, Note_on_c, 0, 68, 100
2, 428224, Note_off_c, 0, 59, 64
2, 428224, Note_on_c, 0, 59, 100
2, 428224, Note_off_c, 0, 56, 64
2, 428224, Note_on_c, 0, 56, 100
2, 428352, Note_off_c, 0, 56, 64
2, 428352, Note_off_c, 0, 59, 64
2, 428352, Note_on_c, 0, 59, 100
2, 428352, Note_off_c, 0, 76, 64
2, 428352, Note_off_c, 0, 74, 64
2, 428352, Note_on_c, 0, 74, 100
2, 428480, Note_off_c, 0, 74, 64
2, 428480, Note_off_c, 0, 59, 64
2, 428480, Note_off_c, 0, 71, 64
2, 428480, Note_on_c, 0, 71, 100
2, 428480, Note_off_c, 0, 76, 64
2, 428480, Note_on_c, 0, 76, 100
2, 428480, Note_off_c, 0, 57, 64
2, 428480, Note_on_c, 0, 57, 100
2, 428480, Note_off_c, 0, 68, 64
2, 428480, Note_on_c, 0, 68, 100
2, 428608, Note_off_c, 0, 76, 64
2, 428608, Note_off_c, 0, 57, 64
2, 428608, Note_off_c, 0, 71, 64
2, 428608, Note_on_c, 0, 74, 100
2, 428608, Note_off_c, 0, 56, 64
2, 428608, Note_on_c, 0, 56, 100
2, 428736, Note_off_c, 0, 74, 64
2, 428736, Note_off_c, 0, 56, 64
2, 428736, Note_off_c, 0, 83, 64
2, 428736, Note_on_c, 0, 83, 100
2, 428736, Note_off_c, 0, 61, 64
2, 428736, Note_on_c, 0, 61, 100
2, 428736, Note_on_c, 0, 56, 100
2, 428736, Note_off_c, 0, 56, 64
2, 428864, Note_off_c, 0, 68, 64
2, 428864, Note_off_c, 0, 61, 64
2, 428864, Note_off_c, 0, 69, 64
2, 428864, Note_on_c, 0, 69, 100
2, 428864, Note_on_c, 0, 57, 100
2, 428864, Note_off_c, 0, 56, 64
2, 428864, Note_on_c, 0, 56, 100
2, 428992, Note_off_c, 0, 56, 64
2, 428992, Note_off_c, 0, 69, 64
2, 428992, Note_on_c, 0, 69, 100
2, 428992, Note_off_c, 0, 81, 64
2, 428992, Note_on_c, 0, 81, 100
2, 428992, Note_off_c, 0, 71, 64
2, 428992, Note_on_c, 0, 71, 100
2, 428992, Note_off_c, 0, 54, 64
2, 428992, Note_on_c, 0, 54, 100
2, 428992, Note_off_c, 0, 62, 64
2, 428992, Note_on_c, 0, 62, 100
2, 429120, Note_off_c, 0, 69, 64
2, 429120, Note_off_c, 0, 62, 64
2, 429120, Note_off_c, 0, 71, 64
2, 429120, Note_on_c, 0, 71, 100
2, 429120, Note_on_c, 0, 56, 100
2, 429120, Note_off_c, 0, 68, 64
2, 429120, Note_on_c, 0, 68, 100
2, 429120, Note_off_c, 0, 61, 64
2, 429120, Note_on_c, 0, 61, 100
2, 429184, Note_off_c, 0, 78, 64
2, 429184, Note_on_c, 0, 78, 100
2, 429248, Note_off_c, 0, 61, 64
2, 429248, Note_off_c, 0, 54, 64
2, 429248, Note_on_c, 0, 69, 100
2, 429248, Note_off_c, 0, 71, 64
2, 429248, Note_off_c, 0, 66, 64
2, 429248, Note_on_c, 0, 66, 100
2, 429248, Note_on_c, 0, 54, 100
2, 429248, Note_off_c, 0, 54, 64
2, 429248, Note_off_c, 0, 78, 64
2, 429248, Note_on_c, 0, 78, 100
2, 429376, Note_off_c, 0, 66, 64
2, 429376, Note_on_c, 0, 54, 100
2, 429376, Note_off_c, 0, 64, 64
2, 429376, Note_on_c, 0, 64, 100
2, 429376, Note_off_c, 0, 68, 64
2, 429376, Note_on_c, 0, 68, 100
2, 429504, Note_off_c, 0, 78, 64
2, 429504, Note_off_c, 0, 68, 64
2, 429504, Note_off_c, 0, 64, 64
2, 429504, Note_off_c, 0, 76, 64
2, 429504, Note_on_c, 0, 76, 100
2, 429504, Note_on_c, 0, 80, 100
2, 429504, Note_off_c, 0, 71, 64
2, 429504, Note_on_c, 0, 71, 100
2, 429504, Note_on_c, 0, 68, 100
2, 429504, Note_off_c, 0, 68, 64
2, 429632, Note_off_c, 0, 71, 64
2, 429632, Note_off_c, 0, 68, 64
2, 429632, Note_on_c, 0, 68, 100
2, 429696, Note_off_c, 0, 76, 64
2, 429760, Note_off_c, 0, 68, 64
2, 429760, Note_off_c, 0, 62, 64
2, 429760, Note_on_c, 0, 62, 100
2, 429760, Note_off_c, 0, 74, 64
2, 429760, Note_on_c, 0, 74, 100
2, 429888, Note_off_c, 0, 83, 64
2, 429888, Note_on_c, 0, 83, 100
2, 429888, Note_off_c, 0, 71, 64
2, 429888, Note_on_c, 0, 71, 100
2, 429888, Note_off_c, 0, 76, 64
2, 429888, Note_on_c, 0, 76, 100
2, 430016, Note_off_c, 0, 76, 64
2, 430016, Note_on_c, 0, 76, 100
2, 430016, Note_off_c, 0, 71, 64
2, 430016, Note_off_c, 0, 74, 64
2, 430016, Note_on_c, 0, 71, 100
2, 430016, Note_off_c, 0, 83, 64
2, 430016, Note_on_c, 0, 59, 100
2, 430016, Note_on_c, 0, 74, 100
2, 430144, Note_off_c, 0, 76, 64
2, 430144, Note_off_c, 0, 78, 64
2, 430144, Note_on_c, 0, 78, 100
2, 430208, Note_off_c, 0, 62, 64
2, 430272, Note_off_c, 0, 78, 64
2, 430272, Note_off_c, 0, 74, 64
2, 430272, Note_off_c, 0, 59, 64
2, 430272, Note_off_c, 0, 76, 64
2, 430272, Note_on_c, 0, 76, 100
2, 430272, Note_off_c, 0, 83, 64
2, 430272, Note_off_c, 0, 68, 64
2, 430272, Note_on_c, 0, 68, 100
2, 430272, Note_on_c, 0, 83, 100
2, 430400, Note_off_c, 0, 83, 64
2, 430400, Note_off_c, 0, 78, 64
2, 430400, Note_on_c, 0, 78, 100
2, 430400, Note_off_c, 0, 71, 64
2, 430400, Note_on_c, 0, 71, 100
2, 430464, Note_off_c, 0, 76, 64
2, 430528, Note_off_c, 0, 71, 64
2, 430528, Note_off_c, 0, 78, 64
2, 430528, Note_off_c, 0, 68, 64
2, 430528, Note_on_c, 0, 68, 100
2, 430528, Note_off_c, 0, 68, 64
2, 430528, Note_off_c, 0, 64, 64
2, 430528, Note_on_c, 0, 64, 100
2, 430528, Note_on_c, 0, 78, 100
2, 430528, Note_off_c, 0, 78, 64
2, 430656, Note_off_c, 0, 64, 64
2, 430656, Note_off_c, 0, 66, 64
2, 430656, Note_on_c, 0, 66, 100
2, 430784, Note_on_c, 0, 68, 100
2, 430784, Note_off_c, 0, 66, 64
2, 430784, Note_off_c, 0, 80, 64
2, 430784, Note_on_c, 0, 80, 100
2, 430784, Note_off_c, 0, 80, 64
2, 430784, Note_off_c, 0, 78, 64
2, 430784, Note_on_c, 0, 78, 100
2, 430784, Note_off_c, 0, 71, 64
2, 430784, Note_on_c, 0, 71, 100
2, 430784, Note_off_c, 0, 63, 64
2, 430784, Note_on_c, 0, 63, 100
2, 430912, Note_on_c, 0, 80, 100
2, 430912, Note_off_c, 0, 78, 64
2, 430912, Note_on_c, 0, 78, 100
2, 430976, Note_off_c, 0, 77, 64
2, 431040, Note_off_c, 0, 78, 64
2, 431040, Note_off_c, 0, 71, 64
2, 431040, Note_off_c, 0, 69, 64
2, 431040, Note_on_c, 0, 69, 100
2, 431040, Note_off_c, 0, 63, 64
2, 431040, Note_on_c, 0, 63, 100
2, 431040, Note_off_c, 0, 65, 64
2, 431040, Note_on_c, 0, 65, 100
2, 431040, Note_off_c, 0, 57, 64
2, 431040, Note_on_c, 0, 57, 100
2, 431040, Note_off_c, 0, 61, 64
2, 431040, Note_on_c, 0, 61, 100
2, 431040, Note_on_c, 0, 77, 100
2, 431040, Note_off_c, 0, 81, 64
2, 431040, Note_on_c, 0, 81, 100
2, 431168, Note_on_c, 0, 78, 100
2, 431168, Note_off_c, 0, 68, 64
2, 431168, Note_off_c, 0, 69, 64
2, 431168, Note_off_c, 0, 81, 64
2, 431168, Note_on_c, 0, 81, 100
2, 431232, Note_off_c, 0, 57, 64
2, 431296, Note_on_c, 0, 69, 100
2, 431296, Note_off_c, 0, 77, 64
2, 431296, Note_off_c, 0, 81, 64
2, 431296, Note_on_c, 0, 81, 100
2, 431296, Note_on_c, 0, 73, 100
2, 431296, Note_off_c, 0, 73, 64
2, 431296, Note_on_c, 0, 73, 100
2, 431296, Note_off_c, 0, 61, 64
2, 431296, Note_on_c, 0, 61, 100
2, 431296, Note_off_c, 0, 64, 64
2, 431296, Note_on_c, 0, 64, 100
2, 431424, Note_off_c, 0, 73, 64
2, 431424, Note_on_c, 0, 68, 100
2, 431424, Note_off_c, 0, 68, 64
2, 431424, Note_on_c, 0, 73, 100
2, 431424, Note_off_c, 0, 73, 64
2, 431424, Note_on_c, 0, 68, 100
2, 431424, Note_off_c, 0, 65, 64
2, 431424, Note_off_c, 0, 69, 64
2, 431424, Note_on_c, 0, 77, 100
2, 431424, Note_off_c, 0, 81, 64
2, 431488, Note_off_c, 0, 80, 64
2, 431552, Note_on_c, 0, 73, 100
2, 431552, Note_off_c, 0, 61, 64
2, 431552, Note_on_c, 0, 81, 100
2, 431552, Note_off_c, 0, 74, 64
2, 431552, Note_on_c, 0, 74, 100
2, 431552, Note_off_c, 0, 50, 64
2, 431552, Note_on_c, 0, 50, 100
2, 431552, Note_off_c, 0, 77, 64
2, 431552, Note_off_c, 0, 78, 64
2, 431552, Note_off_c, 0, 58, 64
2, 431552, Note_on_c, 0, 58, 100
2, 431552, Note_off_c, 0, 70, 64
2, 431552, Note_on_c, 0, 70, 100
2, 431680, Note_on_c, 0, 78, 100
2, 431680, Note_off_c, 0, 74, 64
2, 431680, Note_off_c, 0, 73, 64
2, 431680, Note_on_c, 0, 73, 100
2, 431744, Note_off_c, 0, 50, 64
2, 431808, Note_off_c, 0, 73, 64
2, 431808, Note_on_c, 0, 59, 100
2, 431808, Note_off_c, 0, 74, 64
2, 431808, Note_on_c, 0, 74, 100
2, 431808, Note_off_c, 0, 59, 64
2, 431808, Note_on_c, 0, 59, 100
2, 431808, Note_off_c, 0, 76, 64
2, 431808, Note_on_c, 0, 76, 100
2, 431808, Note_off_c, 0, 71, 64
2, 431808, Note_on_c, 0, 71, 100
2, 431936, Note_off_c, 0, 74, 64
2, 431936, Note_off_c, 0, 76, 64
2, 431936, Note_on_c, 0, 76, 100
2, 431936, Note_off_c, 0, 71, 64
2, 431936, Note_off_c, 0, 78, 64
2, 431936, Note_on_c, 0, 78, 100
2, 432000, Note_off_c, 0, 59, 64
2, 432000, Note_off_c, 0, 76, 64
2, 432064, Note_off_c, 0, 78, 64
2, 432064, Note_on_c, 0, 71, 100
2, 432064, Note_on_c, 0, 74, 100
2, 432064, Note_off_c, 0, 58, 64
2, 432064, Note_on_c, 0, 58, 100
2, 432064, Note_off_c, 0, 66, 64
2, 432064, Note_on_c, 0, 66, 100
2, 432192, Note_on_c, 0, 75, 100
2, 432192, Note_off_c, 0, 77, 64
2, 432192, Note_on_c, 0, 77, 100
2, 432192, Note_off_c, 0, 74, 64
2, 432192, Note_off_c, 0, 75, 64
2, 432192, Note_on_c, 0, 75, 100
2, 432192, Note_on_c, 0, 65, 100
2, 432192, Note_off_c, 0, 66, 64
2, 432256, Note_off_c, 0, 75, 64
2, 432320, Note_on_c, 0, 69, 100
2, 432320, Note_off_c, 0, 69, 64
2, 432320, Note_off_c, 0, 57, 64
2, 432320, Note_on_c, 0, 57, 100
2, 432320, Note_on_c, 0, 73, 100
2, 432320, Note_off_c, 0, 73, 64
2, 432320, Note_on_c, 0, 73, 100
2, 432320, Note_off_c, 0, 73, 64
2, 432320, Note_on_c, 0, 69, 100
2, 432320, Note_off_c, 0, 69, 64
2, 432320, Note_on_c, 0, 66, 100
2, 432448, Note_on_c, 0, 73, 100
2, 432448, Note_off_c, 0, 68, 64
2, 432448, Note_on_c, 0, 68, 100
2, 432512, Note_off_c, 0, 69, 64
2, 432512, Note_on_c, 0, 69, 100
2, 432576, Note_off_c, 0, 57, 64
2, 432576, Note_off_c, 0, 69, 64
2, 432576, Note_off_c, 0, 58, 64
2, 432576, Note_on_c, 0, 58, 100
2, 432576, Note_on_c, 0, 69, 100
2, 432576, Note_off_c, 0, 69, 64
2, 432576, Note_off_c, 0, 66, 64
2, 432576, Note_on_c, 0, 66, 100
2, 432704, Note_off_c, 0, 68, 64
2, 432704, Note_off_c, 0, 70, 64
2, 432704, Note_on_c, 0, 70, 100
2, 432768, Note_off_c, 0, 58, 64
2, 432832, Note_off_c, 0, 70, 64
2, 432832, Note_off_c, 0, 66, 64
2, 432832, Note_on_c, 0, 66, 100
2, 432832, Note_off_c, 0, 54, 64
2, 432832, Note_on_c, 0, 54, 100
2, 432832, Note_off_c, 0, 69, 64
2, 432832, Note_on_c, 0, 69, 100
2, 432832, Note_off_c, 0, 73, 64
2, 432960, Note_off_c, 0, 77, 64
2, 432960, Note_on_c, 0, 78, 100
2, 432960, Note_on_c, 0, 53, 100
2, 432960, Note_on_c, 0, 73, 100
2, 432960, Note_off_c, 0, 69, 64
2, 433024, Note_off_c, 0, 66, 64
2, 433024, Note_on_c, 0, 66, 100
2, 433024, Note_off_c, 0, 66, 64
2, 433024, Note_on_c, 0, 57, 100
2, 433024, Note_off_c, 0, 57, 64
2, 433024, Note_on_c, 0, 57, 100
2, 433024, Note_off_c, 0, 78, 64
2, 433024, Note_off_c, 0, 74, 64
2, 433024, Note_on_c, 0, 74, 100
2, 433088, Note_off_c, 0, 54, 64
2, 433088, Note_on_c, 0, 54, 100
2, 433088, Note_off_c, 0, 66, 64
2, 433088, Note_on_c, 0, 66, 100
2, 433088, Note_off_c, 0, 62, 64
2, 433088, Note_on_c, 0, 62, 100
2, 433088, Note_off_c, 0, 81, 64
2, 433088, Note_on_c, 0, 81, 100
2, 433088, Note_on_c, 0, 78, 100
2, 433216, Note_off_c, 0, 66, 64
2, 433216, Note_off_c, 0, 57, 64
2, 433216, Note_off_c, 0, 81, 64
2, 433280, Note_off_c, 0, 78, 64
2, 433280, Note_on_c, 0, 69, 100
2, 433280, Note_off_c, 0, 62, 64
2, 433280, Note_off_c, 0, 54, 64
2, 433344, Note_off_c, 0, 74, 64
2, 433344, Note_off_c, 0, 69, 64
2, 433344, Note_off_c, 0, 54, 64
2, 433344, Note_on_c, 0, 54, 100
2, 433344, Note_off_c, 0, 65, 64
2, 433344, Note_on_c, 0, 66, 100
2, 433344, Note_on_c, 0, 78, 100
2, 433344, Note_on_c, 0, 69, 100
2, 433344, Note_off_c, 0, 69, 64
2, 433344, Note_off_c, 0, 61, 64
2, 433344, Note_on_c, 0, 61, 100
2, 433344, Note_on_c, 0, 68, 100
2, 433408, Note_on_c, 0, 77, 100
2, 433408, Note_off_c, 0, 73, 64
2, 433408, Note_on_c, 0, 73, 100
2, 433472, Note_off_c, 0, 73, 64
2, 433472, Note_off_c, 0, 68, 64
2, 433472, Note_off_c, 0, 66, 64
2, 433472, Note_off_c, 0, 78, 64
2, 433472, Note_off_c, 0, 69, 64
2, 433472, Note_on_c, 0, 69, 100
2, 433536, Note_on_c, 0, 70, 100
2, 433536, Note_off_c, 0, 74, 64
2, 433536, Note_on_c, 0, 74, 100
2, 433536, Note_off_c, 0, 69, 64
2, 433536, Note_on_c, 0, 66, 100
2, 433536, Note_off_c, 0, 61, 64
2, 433536, Note_on_c, 0, 57, 100
2, 433600, Note_off_c, 0, 54, 64
2, 433600, Note_off_c, 0, 70, 64
2, 433600, Note_on_c, 0, 69, 100
2, 433600, Note_off_c, 0, 77, 64
2, 433600, Note_on_c, 0, 78, 100
2, 433600, Note_on_c, 0, 70, 100
2, 433600, Note_on_c, 0, 62, 100
2, 433600, Note_off_c, 0, 62, 64
2, 433600, Note_off_c, 0, 66, 64
2, 433600, Note_on_c, 0, 66, 100
2, 433600, Note_on_c, 0, 62, 100
2, 433600, Note_off_c, 0, 74, 64
2, 433600, Note_on_c, 0, 74, 100
2, 433792, Note_off_c, 0, 74, 64
2, 433792, Note_off_c, 0, 70, 64
2, 433792, Note_off_c, 0, 66, 64
2, 433792, Note_on_c, 0, 50, 100
2, 433856, Note_off_c, 0, 69, 64
2, 433856, Note_on_c, 0, 66, 100
2, 433856, Note_off_c, 0, 62, 64
2, 433856, Note_off_c, 0, 64, 64
2, 433856, Note_on_c, 0, 64, 100
2, 433856, Note_off_c, 0, 50, 64
2, 433856, Note_off_c, 0, 78, 64
2, 433856, Note_on_c, 0, 81, 100
2, 433856, Note_off_c, 0, 81, 64
2, 433856, Note_on_c, 0, 78, 100
2, 433856, Note_on_c, 0, 81, 100
2, 433984, Note_off_c, 0, 66, 64
2, 433984, Note_off_c, 0, 64, 64
2, 433984, Note_on_c, 0, 64, 100
2, 434048, Note_off_c, 0, 84, 64
2, 434048, Note_on_c, 0, 50, 100
2, 434048, Note_on_c, 0, 62, 100
2, 434112, Note_off_c, 0, 64, 64
2, 434112, Note_off_c, 0, 69, 64
2, 434112, Note_on_c, 0, 77, 100
2, 434112, Note_on_c, 0, 74, 100
2, 434112, Note_on_c, 0, 69, 100
2, 434112, Note_on_c, 0, 65, 100
2, 434112, Note_off_c, 0, 65, 64
2, 434112, Note_on_c, 0, 65, 100
2, 434112, Note_off_c, 0, 62, 64
2, 434112, Note_on_c, 0, 62, 100
2, 434112, Note_off_c, 0, 57, 64
2, 434112, Note_on_c, 0, 57, 100
2, 434112, Note_off_c, 0, 72, 64
2, 434112, Note_on_c, 0, 72, 100
2, 434240, Note_off_c, 0, 72, 64
2, 434240, Note_on_c, 0, 72, 100
2, 434240, Note_off_c, 0, 69, 64
2, 434240, Note_off_c, 0, 65, 64
2, 434240, Note_off_c, 0, 74, 64
2, 434240, Note_on_c, 0, 74, 100
2, 434368, Note_off_c, 0, 81, 64
2, 434368, Note_off_c, 0, 57, 64
2, 434368, Note_off_c, 0, 62, 64
2, 434368, Note_on_c, 0, 60, 100
2, 434368, Note_off_c, 0, 60, 64
2, 434368, Note_off_c, 0, 79, 64
2, 434368, Note_on_c, 0, 79, 100
2, 434368, Note_on_c, 0, 65, 100
2, 434368, Note_off_c, 0, 48, 64
2, 434368, Note_on_c, 0, 48, 100
2, 434368, Note_on_c, 0, 60, 100
2, 434368, Note_off_c, 0, 69, 64
2, 434368, Note_off_c, 0, 77, 64
2, 434368, Note_on_c, 0, 77, 100
2, 434368, Note_off_c, 0, 72, 64
2, 434368, Note_on_c, 0, 72, 100
2, 434368, Note_on_c, 0, 69, 100
2, 434368, Note_on_c, 0, 67, 100
2, 434368, Note_on_c, 0, 76, 100
2, 434368, Note_on_c, 0, 64, 100
2, 434624, Note_off_c, 0, 69, 64
2, 434624, Note_off_c, 0, 77, 64
2, 434624, Note_on_c, 0, 77, 100
2, 434624, Note_off_c, 0, 64, 64
2, 434624, Note_on_c, 0, 70, 100
2, 434624, Note_off_c, 0, 76, 64
2, 434624, Note_off_c, 0, 48, 64
2, 434624, Note_off_c, 0, 60, 64
2, 434624, Note_on_c, 0, 60, 100
2, 434624, Note_on_c, 0, 52, 100
2, 434624, Note_off_c, 0, 67, 64
2, 434624, Note_off_c, 0, 50, 64
2, 434624, Note_off_c, 0, 65, 64
2, 434624, Note_on_c, 0, 50, 100
2, 434624, Note_off_c, 0, 62, 64
2, 434624, Note_on_c, 0, 62, 100
2, 434752, Note_off_c, 0, 77, 64
2, 434752, Note_off_c, 0, 79, 64
2, 434752, Note_on_c, 0, 79, 100
2, 434752, Note_off_c, 0, 70, 64
2, 434752, Note_on_c, 0, 70, 100
2, 434752, Note_off_c, 0, 70, 64
2, 434752, Note_off_c, 0, 79, 64
2, 434816, Note_on_c, 0, 77, 100
2, 434816, Note_off_c, 0, 60, 64
2, 434816, Note_off_c, 0, 55, 64
2, 434816, Note_off_c, 0, 50, 64
2, 434880, Note_off_c, 0, 77, 64
2, 434880, Note_on_c, 0, 79, 100
2, 434880, Note_off_c, 0, 62, 64
2, 434880, Note_off_c, 0, 58, 64
2, 434880, Note_off_c, 0, 52, 64
2, 434880, Note_on_c, 0, 64, 100
2, 434880, Note_off_c, 0, 67, 64
2, 434880, Note_on_c, 0, 67, 100
2, 434880, Note_off_c, 0, 74, 64
2, 434880, Note_on_c, 0, 74, 100
2, 434880, Note_on_c, 0, 58, 100
2, 434880, Note_off_c, 0, 57, 64
2, 434880, Note_on_c, 0, 57, 100
2, 434880, Note_on_c, 0, 77, 100
2, 434880, Note_off_c, 0, 79, 64
2, 434880, Note_on_c, 0, 79, 100
2, 435072, Note_on_c, 0, 70, 100
2, 435072, Note_off_c, 0, 67, 64
2, 435072, Note_off_c, 0, 79, 64
2, 435136, Note_off_c, 0, 69, 64
2, 435136, Note_on_c, 0, 69, 100
2, 435136, Note_off_c, 0, 58, 64
2, 435136, Note_off_c, 0, 77, 64
2, 435136, Note_on_c, 0, 77, 100
2, 435136, Note_off_c, 0, 65, 64
2, 435136, Note_off_c, 0, 57, 64
2, 435136, Note_on_c, 0, 57, 100
2, 435136, Note_off_c, 0, 64, 64
2, 435136, Note_on_c, 0, 55, 100
2, 435136, Note_off_c, 0, 60, 64
2, 435136, Note_on_c, 0, 60, 100
2, 435136, Note_off_c, 0, 72, 64
2, 435136, Note_on_c, 0, 72, 100
2, 435136, Note_on_c, 0, 65, 100
2, 435392, Note_off_c, 0, 60, 64
2, 435392, Note_off_c, 0, 77, 64
2, 435392, Note_off_c, 0, 74, 64
2, 435392, Note_off_c, 0, 72, 64
2, 435392, Note_off_c, 0, 57, 64
2, 435392, Note_off_c, 0, 69, 64
2, 435392, Note_on_c, 0, 77, 100
2, 435392, Note_on_c, 0, 74, 100
2, 435392, Note_off_c, 0, 71, 64
2, 435392, Note_on_c, 0, 71, 100
2, 435392, Note_off_c, 0, 77, 64
2, 435392, Note_off_c, 0, 62, 64
2, 435392, Note_on_c, 0, 62, 100
2, 435392, Note_off_c, 0, 55, 64
2, 435392, Note_on_c, 0, 59, 100
2, 435392, Note_off_c, 0, 59, 64
2, 435392, Note_on_c, 0, 59, 100
2, 435520, Note_off_c, 0, 62, 64
2, 435520, Note_off_c, 0, 67, 64
2, 435520, Note_on_c, 0, 67, 100
2, 435520, Note_off_c, 0, 71, 64
2, 435520, Note_on_c, 0, 71, 100
2, 435584, Note_off_c, 0, 74, 64
2, 435584, Note_off_c, 0, 59, 64
2, 435648, Note_on_c, 0, 55, 100
2, 435648, Note_off_c, 0, 77, 64
2, 435648, Note_on_c, 0, 77, 100
2, 435648, Note_off_c, 0, 71, 64
2, 435648, Note_off_c, 0, 67, 64
2, 435648, Note_on_c, 0, 67, 100
2, 435648, Note_off_c, 0, 60, 64
2, 435648, Note_on_c, 0, 60, 100
2, 435648, Note_off_c, 0, 65, 64
2, 435648, Note_on_c, 0, 65, 100
2, 435648, Note_off_c, 0, 74, 64
2, 435648, Note_on_c, 0, 74, 100
2, 435776, Note_off_c, 0, 74, 64
2, 435776, Note_off_c, 0, 65, 64
2, 435776, Note_off_c, 0, 77, 64
2, 435776, Note_off_c, 0, 72, 64
2, 435776, Note_on_c, 0, 72, 100
2, 435776, Note_off_c, 0, 60, 64
2, 435776, Note_on_c, 0, 60, 100
2, 435904, Note_off_c, 0, 72, 64
2, 435904, Note_on_c, 0, 36, 100
2, 435904, Note_off_c, 0, 60, 64
2, 435904, Note_off_c, 0, 67, 64
2, 435904, Note_on_c, 0, 67, 100
2, 435904, Note_on_c, 0, 59, 100
2, 435904, Note_off_c, 0, 83, 64
2, 435904, Note_off_c, 0, 55, 64
2, 435904, Note_on_c, 0, 83, 100
2, 435904, Note_off_c, 0, 77, 64
2, 435904, Note_on_c, 0, 77, 100
2, 436160, Note_off_c, 0, 83, 64
2, 436160, Note_off_c, 0, 67, 64
2, 436160, Note_on_c, 0, 55, 100
2, 436160, Note_on_c, 0, 86, 100
2, 436160, Note_off_c, 0, 74, 64
2, 436160, Note_on_c, 0, 74, 100
2, 436288, Note_off_c, 0, 74, 64
2, 436288, Note_on_c, 0, 83, 100
2, 436288, Note_off_c, 0, 84, 64
2, 436288, Note_on_c, 0, 84, 100
2, 436288, Note_off_c, 0, 76, 64
2, 436288, Note_on_c, 0, 76, 100
2, 436288, Note_off_c, 0, 77, 64
2, 436416, Note_off_c, 0, 55, 64
2, 436416, Note_off_c, 0, 84, 64
2, 436416, Note_off_c, 0, 76, 64
2, 436416, Note_on_c, 0, 60, 100
2, 436416, Note_on_c, 0, 79, 100
2, 436416, Note_off_c, 0, 71, 64
2, 436416, Note_on_c, 0, 71, 100
2, 436416, Note_off_c, 0, 59, 64
2, 436416, Note_on_c, 0, 55, 100
2, 436416, Note_off_c, 0, 55, 64
2, 436416, Note_off_c, 0, 83, 64
2, 436416, Note_off_c, 0, 74, 64
2, 436416, Note_on_c, 0, 74, 100
2, 436544, Note_off_c, 0, 71, 64
2, 436544, Note_on_c, 0, 59, 100
2, 436544, Note_off_c, 0, 65, 64
2, 436544, Note_on_c, 0, 65, 100
2, 436544, Note_off_c, 0, 62, 64
2, 436544, Note_on_c, 0, 62, 100
2, 436672, Note_off_c, 0, 55, 64
2, 436672, Note_off_c, 0, 65, 64
2, 436672, Note_on_c, 0, 55, 100
2, 436672, Note_off_c, 0, 74, 64
2, 436672, Note_off_c, 0, 62, 64
2, 436672, Note_off_c, 0, 59, 64
2, 436672, Note_off_c, 0, 64, 64
2, 436672, Note_on_c, 0, 64, 100
2, 436672, Note_off_c, 0, 67, 64
2, 436672, Note_on_c, 0, 67, 100
2, 436672, Note_on_c, 0, 83, 100
2, 436672, Note_off_c, 0, 79, 64
2, 436672, Note_on_c, 0, 79, 100
2, 436672, Note_off_c, 0, 71, 64
2, 436672, Note_on_c, 0, 71, 100
2, 436672, Note_off_c, 0, 78, 64
2, 436800, Note_off_c, 0, 79, 64
2, 436800, Note_off_c, 0, 67, 64
2, 436800, Note_off_c, 0, 64, 64
2, 436800, Note_off_c, 0, 60, 64
2, 436928, Note_off_c, 0, 55, 64
2, 436928, Note_on_c, 0, 78, 100
2, 436928, Note_off_c, 0, 71, 64
2, 436928, Note_on_c, 0, 64, 100
2, 436928, Note_off_c, 0, 72, 64
2, 436928, Note_on_c, 0, 72, 100
2, 436928, Note_on_c, 0, 66, 100
2, 436928, Note_off_c, 0, 36, 64
2, 436928, Note_off_c, 0, 62, 64
2, 436928, Note_on_c, 0, 62, 100
2, 436928, Note_on_c, 0, 67, 100
2, 437056, Note_off_c, 0, 72, 64
2, 437056, Note_on_c, 0, 52, 100
2, 437056, Note_off_c, 0, 66, 64
2, 437056, Note_on_c, 0, 72, 100
2, 437056, Note_off_c, 0, 72, 64
2, 437056, Note_on_c, 0, 57, 100
2, 437056, Note_off_c, 0, 57, 64
2, 437056, Note_on_c, 0, 57, 100
2, 437056, Note_off_c, 0, 69, 64
2, 437056, Note_on_c, 0, 69, 100
2, 437184, Note_off_c, 0, 57, 64
2, 437184, Note_off_c, 0, 52, 64
2, 437184, Note_off_c, 0, 67, 64
2, 437184, Note_on_c, 0, 67, 100
2, 437184, Note_on_c, 0, 52, 100
2, 437184, Note_off_c, 0, 72, 64
2, 437184, Note_off_c, 0, 52, 64
2, 437184, Note_on_c, 0, 54, 100
2, 437184, Note_off_c, 0, 78, 64
2, 437184, Note_on_c, 0, 72, 100
2, 437184, Note_off_c, 0, 69, 64
2, 437184, Note_on_c, 0, 78, 100
2, 437312, Note_off_c, 0, 78, 64
2, 437312, Note_on_c, 0, 69, 100
2, 437312, Note_on_c, 0, 55, 100
2, 437312, Note_off_c, 0, 67, 64
2, 437312, Note_off_c, 0, 76, 64
2, 437312, Note_on_c, 0, 76, 100
2, 437440, Note_on_c, 0, 52, 100
2, 437440, Note_off_c, 0, 72, 64
2, 437440, Note_off_c, 0, 76, 64
2, 437440, Note_off_c, 0, 55, 64
2, 437440, Note_on_c, 0, 79, 100
2, 437440, Note_off_c, 0, 52, 64
2, 437440, Note_on_c, 0, 52, 100
2, 437440, Note_off_c, 0, 74, 64
2, 437440, Note_off_c, 0, 79, 64
2, 437440, Note_on_c, 0, 79, 100
2, 437440, Note_on_c, 0, 74, 100
2, 437440, Note_off_c, 0, 64, 64
2, 437440, Note_on_c, 0, 66, 100
2, 437632, Note_off_c, 0, 79, 64
2, 437632, Note_on_c, 0, 79, 100
2, 437632, Note_on_c, 0, 72, 100
2, 437632, Note_off_c, 0, 66, 64
2, 437632, Note_on_c, 0, 64, 100
2, 437696, Note_off_c, 0, 74, 64
2, 437696, Note_off_c, 0, 79, 64
2, 437696, Note_off_c, 0, 83, 64
2, 437696, Note_off_c, 0, 76, 64
2, 437696, Note_on_c, 0, 76, 100
2, 437696, Note_on_c, 0, 74, 100
2, 437696, Note_off_c, 0, 74, 64
2, 437696, Note_on_c, 0, 67, 100
2, 437696, Note_off_c, 0, 67, 64
2, 437696, Note_on_c, 0, 67, 100
2, 437696, Note_off_c, 0, 67, 64
2, 437824, Note_off_c, 0, 72, 64
2, 437824, Note_off_c, 0, 52, 64
2, 437824, Note_on_c, 0, 72, 100
2, 437888, Note_off_c, 0, 74, 64
2, 437888, Note_off_c, 0, 76, 64
2, 437888, Note_off_c, 0, 69, 64
2, 437888, Note_on_c, 0, 69, 100
2, 437888, Note_off_c, 0, 52, 64
2, 437888, Note_on_c, 0, 52, 100
2, 437888, Note_off_c, 0, 84, 64
2, 437888, Note_on_c, 0, 84, 100
2, 437888, Note_on_c, 0, 74, 100
2, 437952, Note_on_c, 0, 67, 100
2, 437952, Note_off_c, 0, 71, 64
2, 437952, Note_on_c, 0, 71, 100
2, 438016, Note_off_c, 0, 74, 64
2, 438016, Note_on_c, 0, 74, 100
2, 438016, Note_off_c, 0, 72, 64
2, 438016, Note_on_c, 0, 72, 100
2, 438016, Note_off_c, 0, 72, 64
2, 438144, Note_off_c, 0, 71, 64
2, 438144, Note_off_c, 0, 52, 64
2, 438144, Note_off_c, 0, 69, 64
2, 438144, Note_off_c, 0, 74, 64
2, 438144, Note_on_c, 0, 71, 100
2, 438144, Note_off_c, 0, 67, 64
2, 438144, Note_on_c, 0, 67, 100
2, 438144, Note_on_c, 0, 72, 100
2, 438144, Note_off_c, 0, 72, 64
2, 438144, Note_off_c, 0, 62, 64
2, 438144, Note_on_c, 0, 62, 100
2, 438144, Note_on_c, 0, 52, 100
2, 438144, Note_on_c, 0, 72, 100
2, 438144, Note_off_c, 0, 84, 64
2, 438144, Note_off_c, 0, 64, 64
2, 438144, Note_off_c, 0, 79, 64
2, 438144, Note_on_c, 0, 79, 100
2, 438144, Note_on_c, 0, 76, 100
2, 438144, Note_off_c, 0, 67, 64
2, 438528, Note_off_c, 0, 62, 64
2, 438528, Note_off_c, 0, 67, 64
2, 438528, Note_off_c, 0, 72, 64
2, 438528, Note_on_c, 0, 67, 100
2, 438528, Note_off_c, 0, 64, 64
2, 438528, Note_off_c, 0, 79, 64
2, 438528, Note_on_c, 0, 43, 100
2, 438528, Note_off_c, 0, 71, 64
2, 438528, Note_on_c, 0, 64, 100
2, 438528, Note_off_c, 0, 60, 64
2, 438528, Note_on_c, 0, 60, 100
2, 438528, Note_off_c, 0, 55, 64
2, 438528, Note_on_c, 0, 55, 100
2, 438528, Note_off_c, 0, 78, 64
2, 438528, Note_on_c, 0, 78, 100
2, 438528, Note_on_c, 0, 72, 100
2, 438528, Note_off_c, 0, 72, 64
2, 438784, Note_off_c, 0, 71, 64
2, 438784, Note_off_c, 0, 76, 64
2, 438784, Note_on_c, 0, 71, 100
2, 438912, Note_off_c, 0, 52, 64
2, 438912, Note_off_c, 0, 72, 64
2, 438912, Note_off_c, 0, 43, 64
2, 438912, Note_off_c, 0, 67, 64
2, 438912, Note_on_c, 0, 74, 100
2, 438912, Note_off_c, 0, 71, 64
2, 438912, Note_off_c, 0, 55, 64
2, 438912, Note_off_c, 0, 79, 64
2, 438912, Note_on_c, 0, 43, 100
2, 438912, Note_on_c, 0, 79, 100
2, 438912, Note_off_c, 0, 59, 64
2, 438912, Note_on_c, 0, 59, 100
2, 438912, Note_off_c, 0, 64, 64
2, 438912, Note_on_c, 0, 72, 100
2, 438976, Note_off_c, 0, 74, 64
2, 438976, Note_on_c, 0, 67, 100
2, 438976, Note_off_c, 0, 72, 64
2, 438976, Note_off_c, 0, 47, 64
2, 439040, Note_off_c, 0, 40, 64
2, 439040, Note_off_c, 0, 74, 64
2, 439040, Note_on_c, 0, 40, 100
2, 439040, Note_off_c, 0, 44, 64
2, 439040, Note_on_c, 0, 74, 100
2, 439040, Note_off_c, 0, 64, 64
2, 439040, Note_on_c, 0, 64, 100
2, 439040, Note_off_c, 0, 66, 64
2, 439040, Note_on_c, 0, 66, 100
2, 439040, Note_off_c, 0, 59, 64
2, 439040, Note_off_c, 0, 56, 64
2, 439040, Note_on_c, 0, 56, 100
2, 439040, Note_on_c, 0, 44, 100
2, 439040, Note_on_c, 0, 72, 100
2, 439040, Note_off_c, 0, 71, 64
2, 439040, Note_on_c, 0, 71, 100
2, 439360, Note_off_c, 0, 56, 64
2, 439360, Note_off_c, 0, 74, 64
2, 439424, Note_off_c, 0, 64, 64
2, 439424, Note_on_c, 0, 56, 100
2, 439424, Note_off_c, 0, 44, 64
2, 439424, Note_off_c, 0, 71, 64
2, 439424, Note_on_c, 0, 80, 100
2, 439552, Note_off_c, 0, 44, 64
2, 439552, Note_on_c, 0, 44, 100
2, 439552, Note_off_c, 0, 71, 64
2, 439552, Note_on_c, 0, 71, 100
2, 439744, Note_off_c, 0, 44, 64
2, 439808, Note_on_c, 0, 59, 100
2, 439808, Note_off_c, 0, 56, 64
2, 439936, Note_on_c, 0, 56, 100
2, 440000, Note_off_c, 0, 71, 64
2, 440000, Note_off_c, 0, 56, 64
2, 440000, Note_on_c, 0, 56, 100
2, 440000, Note_off_c, 0, 44, 64
2, 440000, Note_on_c, 0, 74, 100
2, 440000, Note_on_c, 0, 75, 100
2, 440000, Note_on_c, 0, 44, 100
2, 440064, Note_off_c, 0, 74, 64
2, 440064, Note_on_c, 0, 68, 100
2, 440064, Note_off_c, 0, 66, 64
2, 440064, Note_on_c, 0, 66, 100
2, 440064, Note_off_c, 0, 63, 64
2, 440192, Note_off_c, 0, 75, 64
2, 440192, Note_off_c, 0, 44, 64
2, 440192, Note_on_c, 0, 74, 100
2, 440192, Note_off_c, 0, 56, 64
2, 440192, Note_off_c, 0, 73, 64
2, 440192, Note_on_c, 0, 73, 100
2, 440192, Note_on_c, 0, 75, 100
2, 440256, Note_on_c, 0, 65, 100
2, 440256, Note_on_c, 0, 56, 100
2, 440256, Note_off_c, 0, 68, 64
2, 440256, Note_off_c, 0, 72, 64
2, 440256, Note_on_c, 0, 72, 100
2, 440256, Note_on_c, 0, 68, 100
2, 440256, Note_off_c, 0, 69, 64
2, 440256, Note_on_c, 0, 69, 100
2, 440256, Note_off_c, 0, 54, 64
2, 440256, Note_off_c, 0, 42, 64
2, 440256, Note_off_c, 0, 73, 64
2, 440256, Note_on_c, 0, 61, 100
2, 440320, Note_off_c, 0, 65, 64
2, 440320, Note_on_c, 0, 64, 100
2, 440384, Note_off_c, 0, 69, 64
2, 440384, Note_off_c, 0, 71, 64
2, 440384, Note_on_c, 0, 71, 100
2, 440384, Note_off_c, 0, 68, 64
2, 440384, Note_on_c, 0, 69, 100
2, 440384, Note_off_c, 0, 73, 64
2, 440384, Note_on_c, 0, 73, 100
2, 440448, Note_off_c, 0, 65, 64
2, 440448, Note_on_c, 0, 65, 100
2, 440448, Note_on_c, 0, 57, 100
2, 440448, Note_on_c, 0, 42, 100
2, 440448, Note_off_c, 0, 42, 64
2, 440448, Note_on_c, 0, 42, 100
2, 440448, Note_on_c, 0, 54, 100
2, 440448, Note_off_c, 0, 73, 64
2, 440512, Note_off_c, 0, 61, 64
2, 440512, Note_off_c, 0, 42, 64
2, 440512, Note_on_c, 0, 42, 100
2, 440512, Note_off_c, 0, 71, 64
2, 440512, Note_off_c, 0, 65, 64
2, 440512, Note_on_c, 0, 65, 100
2, 440576, Note_off_c, 0, 69, 64
2, 440576, Note_on_c, 0, 69, 100
2, 440576, Note_off_c, 0, 57, 64
2, 440640, Note_off_c, 0, 54, 64
2, 440640, Note_off_c, 0, 69, 64
2, 440640, Note_off_c, 0, 42, 64
2, 440640, Note_on_c, 0, 69, 100
2, 440640, Note_on_c, 0, 54, 100
2, 440640, Note_off_c, 0, 57, 64
2, 440640, Note_off_c, 0, 66, 64
2, 440640, Note_on_c, 0, 66, 100
2, 440640, Note_on_c, 0, 71, 100
2, 440640, Note_on_c, 0, 73, 100
2, 440640, Note_off_c, 0, 72, 64
2, 440640, Note_on_c, 0, 57, 100
2, 440640, Note_on_c, 0, 61, 100
2, 440704, Note_off_c, 0, 56, 64
2, 440768, Note_on_c, 0, 56, 100
2, 440768, Note_off_c, 0, 66, 64
2, 440768, Note_off_c, 0, 65, 64
2, 440768, Note_on_c, 0, 65, 100
2, 440768, Note_on_c, 0, 72, 100
2, 440768, Note_off_c, 0, 72, 64
2, 440768, Note_on_c, 0, 72, 100
2, 440896, Note_on_c, 0, 66, 100
2, 440896, Note_off_c, 0, 60, 64
2, 440896, Note_on_c, 0, 60, 100
2, 440896, Note_off_c, 0, 72, 64
2, 440960, Note_on_c, 0, 44, 100
2, 440960, Note_on_c, 0, 68, 100
2, 440960, Note_off_c, 0, 69, 64
2, 440960, Note_on_c, 0, 69, 100
2, 440960, Note_off_c, 0, 57, 64
2, 440960, Note_off_c, 0, 61, 64
2, 440960, Note_on_c, 0, 61, 100
2, 440960, Note_off_c, 0, 64, 64
2, 440960, Note_on_c, 0, 64, 100
2, 440960, Note_off_c, 0, 69, 64
2, 441024, Note_off_c, 0, 68, 64
2, 441088, Note_off_c, 0, 72, 64
2, 441088, Note_on_c, 0, 72, 100
2, 441152, Note_off_c, 0, 72, 64
2, 441216, Note_off_c, 0, 68, 64
2, 441216, Note_off_c, 0, 44, 64
2, 441216, Note_off_c, 0, 73, 64
2, 441216, Note_off_c, 0, 64, 64
2, 441216, Note_off_c, 0, 57, 64
2, 441216, Note_on_c, 0, 57, 100
2, 441216, Note_off_c, 0, 74, 64
2, 441216, Note_on_c, 0, 68, 100
2, 441216, Note_on_c, 0, 74, 100
2, 441216, Note_on_c, 0, 45, 100
2, 441216, Note_off_c, 0, 59, 64
2, 441216, Note_on_c, 0, 59, 100
2, 441216, Note_off_c, 0, 74, 64
2, 441280, Note_off_c, 0, 45, 64
2, 441280, Note_off_c, 0, 57, 64
2, 441280, Note_off_c, 0, 56, 64
2, 441344, Note_off_c, 0, 69, 64
2, 441344, Note_on_c, 0, 69, 100
2, 441344, Note_on_c, 0, 64, 100
2, 441344, Note_off_c, 0, 64, 64
2, 441344, Note_off_c, 0, 71, 64
2, 441344, Note_on_c, 0, 71, 100
2, 441344, Note_on_c, 0, 72, 100
2, 441344, Note_on_c, 0, 64, 100
2, 441408, Note_off_c, 0, 71, 64
2, 441408, Note_on_c, 0, 71, 100
2, 441408, Note_off_c, 0, 69, 64
2, 441408, Note_off_c, 0, 71, 64
2, 441536, Note_off_c, 0, 61, 64
2, 441536, Note_off_c, 0, 57, 64
2, 441536, Note_on_c, 0, 57, 100
2, 441536, Note_on_c, 0, 45, 100
2, 441536, Note_off_c, 0, 73, 64
2, 441536, Note_on_c, 0, 73, 100
2, 441536, Note_on_c, 0, 52, 100
2, 441536, Note_off_c, 0, 64, 64
2, 441536, Note_off_c, 0, 71, 64
2, 441536, Note_on_c, 0, 71, 100
2, 441536, Note_off_c, 0, 56, 64
2, 441536, Note_on_c, 0, 56, 100
2, 441536, Note_on_c, 0, 64, 100
2, 441536, Note_off_c, 0, 64, 64
2, 441664, Note_off_c, 0, 73, 64
2, 441664, Note_on_c, 0, 73, 100
2, 441728, Note_off_c, 0, 71, 64
2, 441728, Note_off_c, 0, 56, 64
2, 441792, Note_on_c, 0, 71, 100
2, 441792, Note_off_c, 0, 71, 64
2, 441792, Note_on_c, 0, 64, 100
2, 441792, Note_off_c, 0, 73, 64
2, 441792, Note_off_c, 0, 74, 64
2, 441792, Note_on_c, 0, 74, 100
2, 441792, Note_on_c, 0, 71, 100
2, 441792, Note_off_c, 0, 68, 64
2, 441920, Note_off_c, 0, 69, 64
2, 441920, Note_on_c, 0, 69, 100
2, 441920, Note_off_c, 0, 71, 64
2, 441984, Note_off_c, 0, 74, 64
2, 441984, Note_off_c, 0, 52, 64
2, 441984, Note_off_c, 0, 45, 64
2, 442048, Note_on_c, 0, 71, 100
2, 442048, Note_off_c, 0, 69, 64
2, 442048, Note_off_c, 0, 45, 64
2, 442048, Note_on_c, 0, 45, 100
2, 442048, Note_off_c, 0, 33, 64
2, 442048, Note_on_c, 0, 33, 100
2, 442048, Note_off_c, 0, 68, 64
2, 442048, Note_on_c, 0, 68, 100
2, 442048, Note_off_c, 0, 73, 64
2, 442048, Note_on_c, 0, 73, 100
2, 442176, Note_off_c, 0, 71, 64
2, 442240, Note_off_c, 0, 74, 64
2, 442240, Note_on_c, 0, 74, 100
2, 442240, Note_on_c, 0, 38, 100
2, 442240, Note_off_c, 0, 68, 64
2, 442240, Note_on_c, 0, 69, 100
2, 442240, Note_off_c, 0, 73, 64
2, 442240, Note_off_c, 0, 64, 64
2, 442240, Note_on_c, 0, 64, 100
2, 442240, Note_on_c, 0, 71, 100
2, 442368, Note_off_c, 0, 74, 64
2, 442368, Note_off_c, 0, 45, 64
2, 442368, Note_off_c, 0, 73, 64
2, 442368, Note_on_c, 0, 73, 100
2, 442368, Note_off_c, 0, 69, 64
2, 442368, Note_off_c, 0, 68, 64
2, 442368, Note_on_c, 0, 68, 100
2, 442368, Note_on_c, 0, 74, 100
2, 442368, Note_off_c, 0, 74, 64
2, 442432, Note_off_c, 0, 73, 64
2, 442496, Note_on_c, 0, 74, 100
2, 442496, Note_off_c, 0, 65, 64
2, 442496, Note_on_c, 0, 65, 100
2, 442496, Note_off_c, 0, 66, 64
2, 442496, Note_on_c, 0, 69, 100
2, 442496, Note_off_c, 0, 81, 64
2, 442496, Note_on_c, 0, 81, 100
2, 442496, Note_off_c, 0, 73, 64
2, 442496, Note_on_c, 0, 73, 100
2, 442624, Note_off_c, 0, 73, 64
2, 442624, Note_on_c, 0, 66, 100
2, 442624, Note_off_c, 0, 69, 64
2, 442624, Note_off_c, 0, 65, 64
2, 442624, Note_on_c, 0, 73, 100
2, 442624, Note_off_c, 0, 64, 64
2, 442624, Note_on_c, 0, 64, 100
2, 442688, Note_off_c, 0, 81, 64
2, 442688, Note_off_c, 0, 69, 64
2, 442688, Note_on_c, 0, 69, 100
2, 442688, Note_off_c, 0, 73, 64
2, 442688, Note_on_c, 0, 73, 100
2, 442752, Note_off_c, 0, 69, 64
2, 442752, Note_off_c, 0, 64, 64
2, 442752, Note_off_c, 0, 76, 64
2, 442752, Note_on_c, 0, 76, 100
2, 442880, Note_off_c, 0, 66, 64
2, 442880, Note_on_c, 0, 66, 100
2, 442880, Note_off_c, 0, 73, 64
2, 442880, Note_off_c, 0, 76, 64
2, 442880, Note_on_c, 0, 64, 100
2, 442944, Note_off_c, 0, 81, 64
2, 442944, Note_on_c, 0, 81, 100
2, 442944, Note_off_c, 0, 76, 64
2, 442944, Note_on_c, 0, 76, 100
2, 442944, Note_off_c, 0, 73, 64
2, 442944, Note_on_c, 0, 73, 100
2, 443008, Note_off_c, 0, 76, 64
2, 443072, Note_off_c, 0, 81, 64
2, 443072, Note_on_c, 0, 81, 100
2, 443072, Note_on_c, 0, 76, 100
2, 443072, Note_on_c, 0, 83, 100
2, 443072, Note_off_c, 0, 66, 64
2, 443072, Note_off_c, 0, 73, 64
2, 443072, Note_on_c, 0, 73, 100
2, 443072, Note_off_c, 0, 74, 64
2, 443072, Note_on_c, 0, 74, 100
2, 443072, Note_on_c, 0, 66, 100
2, 443072, Note_off_c, 0, 66, 64
2, 443136, Note_off_c, 0, 83, 64
2, 443136, Note_on_c, 0, 69, 100
2, 443136, Note_on_c, 0, 66, 100
2, 443200, Note_off_c, 0, 81, 64
2, 443200, Note_off_c, 0, 73, 64
2, 443200, Note_on_c, 0, 73, 100
2, 443200, Note_on_c, 0, 81, 100
2, 443200, Note_off_c, 0, 81, 64
2, 443200, Note_off_c, 0, 74, 64
2, 443200, Note_on_c, 0, 74, 100
2, 443456, Note_off_c, 0, 76, 64
2, 443456, Note_on_c, 0, 81, 100
2, 443456, Note_off_c, 0, 73, 64
2, 443456, Note_on_c, 0, 73, 100
2, 443456, Note_off_c, 0, 74, 64
2, 443456, Note_off_c, 0, 69, 64
2, 443456, Note_on_c, 0, 69, 100
2, 443456, Note_off_c, 0, 81, 64
2, 443456, Note_on_c, 0, 81, 100
2, 443648, Note_off_c, 0, 69, 64
2, 443712, Note_off_c, 0, 79, 64
2, 443712, Note_off_c, 0, 73, 64
2, 443712, Note_off_c, 0, 76, 64
2, 443712, Note_on_c, 0, 76, 100
2, 443712, Note_off_c, 0, 69, 64
2, 443712, Note_on_c, 0, 69, 100
2, 443840, Note_off_c, 0, 69, 64
2, 443904, Note_off_c, 0, 76, 64
2, 443904, Note_on_c, 0, 73, 100
2, 443968, Note_off_c, 0, 67, 64
2, 443968, Note_on_c, 0, 67, 100
2, 443968, Note_off_c, 0, 73, 64
2, 443968, Note_on_c, 0, 76, 100
2, 443968, Note_off_c, 0, 76, 64
2, 443968, Note_on_c, 0, 76, 100
2, 443968, Note_on_c, 0, 73, 100
2, 443968, Note_off_c, 0, 73, 64
2, 444032, Note_on_c, 0, 73, 100
2, 444096, Note_off_c, 0, 67, 64
2, 444160, Note_off_c, 0, 76, 64
2, 444160, Note_off_c, 0, 69, 64
2, 444160, Note_on_c, 0, 69, 100
2, 444224, Note_off_c, 0, 78, 64
2, 444224, Note_on_c, 0, 78, 100
2, 444224, Note_off_c, 0, 78, 64
2, 444224, Note_off_c, 0, 69, 64
2, 444224, Note_on_c, 0, 69, 100
2, 444224, Note_off_c, 0, 74, 64
2, 444224, Note_on_c, 0, 74, 100
2, 444352, Note_off_c, 0, 69, 64
2, 444416, Note_off_c, 0, 67, 64
2, 444416, Note_on_c, 0, 67, 100
2, 444480, Note_on_c, 0, 78, 100
2, 444480, Note_off_c, 0, 74, 64
2, 444480, Note_off_c, 0, 67, 64
2, 444544, Note_on_c, 0, 76, 100
2, 444544, Note_off_c, 0, 79, 64
2, 444544, Note_on_c, 0, 79, 100
2, 444672, Note_off_c, 0, 76, 64
2, 444736, Note_off_c, 0, 79, 64
2, 444736, Note_on_c, 0, 76, 100
2, 444800, Note_off_c, 0, 74, 64
2, 444800, Note_on_c, 0, 74, 100
2, 444800, Note_off_c, 0, 69, 64
2, 444800, Note_on_c, 0, 69, 100
2, 444800, Note_off_c, 0, 66, 64
2, 444800, Note_on_c, 0, 66, 100
2, 444928, Note_off_c, 0, 74, 64
2, 444928, Note_off_c, 0, 73, 64
2, 444928, Note_on_c, 0, 73, 100
2, 444992, Note_off_c, 0, 69, 64
2, 445056, Note_off_c, 0, 73, 64
2, 445056, Note_on_c, 0, 73, 100
2, 445056, Note_off_c, 0, 73, 64
2, 445056, Note_off_c, 0, 69, 64
2, 445056, Note_on_c, 0, 69, 100
2, 445248, Note_off_c, 0, 69, 64
2, 445248, Note_off_c, 0, 70, 64
2, 445248, Note_off_c, 0, 66, 64
2, 445312, Note_on_c, 0, 70, 100
2, 445312, Note_on_c, 0, 73, 100
2, 445312, Note_off_c, 0, 79, 64
2, 445312, Note_on_c, 0, 79, 100
2, 445312, Note_off_c, 0, 76, 64
2, 445312, Note_on_c, 0, 76, 100
2, 445312, Note_off_c, 0, 54, 64
2, 445312, Note_on_c, 0, 54, 100
2, 445568, Note_off_c, 0, 79, 64
2, 445568, Note_off_c, 0, 76, 64
2, 445568, Note_off_c, 0, 73, 64
2, 445568, Note_on_c, 0, 73, 100
2, 445568, Note_off_c, 0, 69, 64
2, 445568, Note_on_c, 0, 69, 100
2, 445696, Note_off_c, 0, 54, 64
2, 445760, Note_off_c, 0, 69, 64
2, 445760, Note_on_c, 0, 69, 100
2, 445760, Note_on_c, 0, 54, 100
2, 445824, Note_off_c, 0, 69, 64
2, 445824, Note_off_c, 0, 73, 64
2, 445824, Note_on_c, 0, 73, 100
2, 445824, Note_off_c, 0, 73, 64
2, 445824, Note_off_c, 0, 71, 64
2, 445824, Note_on_c, 0, 71, 100
2, 445824, Note_off_c, 0, 81, 64
2, 445824, Note_on_c, 0, 81, 100
2, 445824, Note_off_c, 0, 54, 64
2, 445824, Note_on_c, 0, 54, 100
2, 445824, Note_on_c, 0, 50, 100
2, 445952, Note_off_c, 0, 81, 64
2, 445952, Note_off_c, 0, 73, 64
2, 445952, Note_on_c, 0, 73, 100
2, 445952, Note_off_c, 0, 54, 64
2, 445952, Note_off_c, 0, 52, 64
2, 445952, Note_on_c, 0, 52, 100
2, 445952, Note_off_c, 0, 71, 64
2, 445952, Note_off_c, 0, 74, 64
2, 445952, Note_on_c, 0, 74, 100
2, 446080, Note_off_c, 0, 52, 64
2, 446080, Note_off_c, 0, 73, 64
2, 446080, Note_off_c, 0, 50, 64
2, 446080, Note_off_c, 0, 71, 64
2, 446080, Note_on_c, 0, 71, 100
2, 446080, Note_off_c, 0, 47, 64
2, 446080, Note_on_c, 0, 47, 100
2, 446080, Note_on_c, 0, 50, 100
2, 446080, Note_off_c, 0, 74, 64
2, 446208, Note_on_c, 0, 54, 100
2, 446208, Note_off_c, 0, 47, 64
2, 446208, Note_off_c, 0, 50, 64
2, 446336, Note_off_c, 0, 71, 64
2, 446336, Note_on_c, 0, 45, 100
2, 446336, Note_on_c, 0, 50, 100
2, 446336, Note_off_c, 0, 50, 64
2, 446336, Note_on_c, 0, 50, 100
2, 446336, Note_on_c, 0, 42, 100
2, 446464, Note_off_c, 0, 50, 64
2, 446464, Note_off_c, 0, 45, 64
2, 446464, Note_off_c, 0, 52, 64
2, 446464, Note_on_c, 0, 52, 100
2, 446592, Note_off_c, 0, 52, 64
2, 446592, Note_on_c, 0, 50, 100
2, 446592, Note_off_c, 0, 50, 64
2, 446592, Note_off_c, 0, 57, 64
2, 446592, Note_on_c, 0, 57, 100
2, 446592, Note_off_c, 0, 42, 64
2, 446592, Note_off_c, 0, 54, 64
2, 446592, Note_on_c, 0, 54, 100
2, 446592, Note_on_c, 0, 50, 100
2, 446720, Note_off_c, 0, 54, 64
2, 446720, Note_off_c, 0, 52, 64
2, 446720, Note_on_c, 0, 52, 100
2, 446848, Note_off_c, 0, 57, 64
2, 446848, Note_off_c, 0, 52, 64
2, 446848, Note_off_c, 0, 38, 64
2, 446848, Note_off_c, 0, 50, 64
2, 446848, Note_on_c, 0, 50, 100
2, 446976, Note_off_c, 0, 50, 64
2, 447104, Note_on_c, 0, 74, 100
2, 447104, Note_off_c, 0, 76, 64
2, 447104, Note_on_c, 0, 76, 100
2, 447104, Note_off_c, 0, 69, 64
2, 447104, Note_on_c, 0, 69, 100
2, 447104, Note_off_c, 0, 47, 64
2, 447104, Note_on_c, 0, 47, 100
2, 447232, Note_off_c, 0, 47, 64
2, 447232, Note_off_c, 0, 50, 64
2, 447232, Note_on_c, 0, 50, 100
2, 447360, Note_off_c, 0, 50, 64
2, 447360, Note_off_c, 0, 76, 64
2, 447360, Note_off_c, 0, 69, 64
2, 447360, Note_on_c, 0, 73, 100
2, 447360, Note_off_c, 0, 72, 64
2, 447360, Note_off_c, 0, 52, 64
2, 447360, Note_on_c, 0, 52, 100
2, 447488, Note_off_c, 0, 55, 64
2, 447488, Note_on_c, 0, 55, 100
2, 447616, Note_off_c, 0, 52, 64
2, 447616, Note_off_c, 0, 45, 64
2, 447616, Note_on_c, 0, 45, 100
2, 447616, Note_off_c, 0, 53, 64
2, 447616, Note_on_c, 0, 53, 100
2, 447616, Note_off_c, 0, 60, 64
2, 447616, Note_on_c, 0, 60, 100
2, 447808, Note_off_c, 0, 55, 64
2, 447808, Note_off_c, 0, 40, 64
2, 447808, Note_off_c, 0, 67, 64
2, 447808, Note_on_c, 0, 67, 100
2, 447808, Note_on_c, 0, 72, 100
2, 447808, Note_off_c, 0, 53, 64
2, 447872, Note_off_c, 0, 60, 64
2, 447872, Note_off_c, 0, 40, 64
2, 447872, Note_on_c, 0, 40, 100
2, 447872, Note_off_c, 0, 38, 64
2, 447872, Note_on_c, 0, 38, 100
2, 447872, Note_on_c, 0, 50, 100
2, 447872, Note_off_c, 0, 62, 64
2, 447872, Note_on_c, 0, 62, 100
2, 447872, Note_off_c, 0, 59, 64
2, 447872, Note_on_c, 0, 59, 100
2, 447936, Note_on_c, 0, 47, 100
2, 447936, Note_off_c, 0, 47, 64
2, 447936, Note_off_c, 0, 35, 64
2, 447936, Note_on_c, 0, 47, 100
2, 447936, Note_off_c, 0, 50, 64
2, 447936, Note_off_c, 0, 38, 64
2, 448000, Note_off_c, 0, 64, 64
2, 448000, Note_on_c, 0, 64, 100
2, 448000, Note_off_c, 0, 62, 64
2, 448192, Note_off_c, 0, 64, 64
2, 448192, Note_off_c, 0, 61, 64
2, 448192, Note_on_c, 0, 61, 100
2, 448832, Note_off_c, 0, 47, 64
2, 448960, Note_on_c, 0, 50, 100
2, 448960, Note_on_c, 0, 38, 100
2, 448960, Note_off_c, 0, 61, 64
2, 448960, Note_on_c, 0, 61, 100
2, 448960, Note_on_c, 0, 47, 100
2, 449600, Note_off_c, 0, 61, 64
2, 449600, Note_off_c, 0, 47, 64
2, 449600, Note_on_c, 0, 35, 100
2, 449600, Note_off_c, 0, 45, 64
2, 449600, Note_on_c, 0, 45, 100
2, 449600, Note_on_c, 0, 47, 100
2, 449600, Note_on_c, 0, 37, 100
2, 449792, Note_off_c, 0, 47, 64
2, 449792, Note_off_c, 0, 37, 64
2, 449984, Note_on_c, 0, 57, 100
2, 449984, Note_off_c, 0, 52, 64
2, 449984, Note_on_c, 0, 52, 100
2, 450112, Note_off_c, 0, 57, 64
2, 450112, Note_off_c, 0, 52, 64
2, 450240, Note_off_c, 0, 61, 64
2, 450240, Note_on_c, 0, 61, 100
2, 450560, Note_off_c, 0, 61, 64
2, 450560, Note_off_c, 0, 57, 64
2, 450560, Note_on_c, 0, 57, 100
2, 450816, Note_off_c, 0, 57, 64
2, 450816, Note_off_c, 0, 52, 64
2, 450816, Note_on_c, 0, 52, 100
2, 451008, Note_off_c, 0, 62, 64
2, 451008, Note_on_c, 0, 62, 100
2, 451648, Note_off_c, 0, 74, 64
2, 451648, Note_off_c, 0, 64, 64
2, 451648, Note_on_c, 0, 64, 100
2, 451648, Note_on_c, 0, 65, 100
2, 451648, Note_on_c, 0, 69, 100
2, 451648, Note_off_c, 0, 73, 64
2, 451712, Note_off_c, 0, 69, 64
2, 451712, Note_on_c, 0, 73, 100
2, 451712, Note_on_c, 0, 74, 100
2, 451776, Note_off_c, 0, 65, 64
2, 451776, Note_off_c, 0, 64, 64
2, 451776, Note_on_c, 0, 64, 100
2, 451904, Note_off_c, 0, 65, 64
2, 451904, Note_on_c, 0, 65, 100
2, 451904, Note_off_c, 0, 52, 64
2, 451904, Note_off_c, 0, 50, 64
2, 451904, Note_on_c, 0, 50, 100
2, 452096, Note_off_c, 0, 64, 64
2, 452096, Note_off_c, 0, 62, 64
2, 452096, Note_off_c, 0, 38, 64
2, 452096, Note_off_c, 0, 50, 64
2, 452096, Note_on_c, 0, 64, 100
2, 452160, Note_off_c, 0, 65, 64
2, 452160, Note_on_c, 0, 65, 100
2, 452224, Note_off_c, 0, 65, 64
2, 452224, Note_on_c, 0, 65, 100
2, 452224, Note_off_c, 0, 68, 64
2, 452224, Note_off_c, 0, 69, 64
2, 452224, Note_on_c, 0, 69, 100
2, 452416, Note_off_c, 0, 65, 64
2, 452416, Note_on_c, 0, 65, 100
2, 452416, Note_off_c, 0, 69, 64
2, 452416, Note_off_c, 0, 72, 64
2, 452416, Note_on_c, 0, 72, 100
2, 452800, Note_off_c, 0, 74, 64
2, 452800, Note_off_c, 0, 72, 64
2, 453376, Note_off_c, 0, 65, 64
2, 453376, Note_off_c, 0, 64, 64
2, 453376, Note_on_c, 0, 64, 100
2, 453376, Note_on_c, 0, 60, 100
2, 453568, Note_on_c, 0, 65, 100
2, 453568, Note_off_c, 0, 60, 64
2, 453568, Note_on_c, 0, 62, 100
2, 453632, Note_off_c, 0, 69, 64
2, 453632, Note_on_c, 0, 69, 100
2, 453696, Note_on_c, 0, 74, 100
2, 453696, Note_off_c, 0, 76, 64
2, 453696, Note_on_c, 0, 76, 100
2, 453824, Note_off_c, 0, 77, 64
2, 453824, Note_on_c, 0, 77, 100
2, 453824, Note_off_c, 0, 65, 64
2, 453824, Note_on_c, 0, 65, 100
2, 453888, Note_off_c, 0, 77, 64
2, 453952, Note_off_c, 0, 76, 64
2, 453952, Note_on_c, 0, 76, 100
2, 453952, Note_off_c, 0, 77, 64
2, 453952, Note_on_c, 0, 77, 100
2, 454016, Note_off_c, 0, 74, 64
2, 454016, Note_on_c, 0, 74, 100
2, 454016, Note_on_c, 0, 38, 100
2, 454080, Note_off_c, 0, 76, 64
2, 454080, Note_on_c, 0, 76, 100
2, 454144, Note_off_c, 0, 74, 64
2, 454208, Note_off_c, 0, 76, 64
2, 454208, Note_on_c, 0, 76, 100
2, 454272, Note_off_c, 0, 81, 64
2, 454272, Note_on_c, 0, 81, 100
2, 454336, Note_off_c, 0, 76, 64
2, 454336, Note_on_c, 0, 76, 100
2, 454400, Note_on_c, 0, 84, 100
2, 454464, Note_off_c, 0, 76, 64
2, 454464, Note_off_c, 0, 84, 64
2, 454464, Note_off_c, 0, 45, 64
2, 454464, Note_on_c, 0, 45, 100
2, 454528, Note_on_c, 0, 84, 100
2, 454528, Note_off_c, 0, 67, 64
2, 454592, Note_on_c, 0, 67, 100
2, 454592, Note_off_c, 0, 69, 64
2, 454592, Note_on_c, 0, 69, 100
2, 454720, Note_off_c, 0, 69, 64
2, 454720, Note_off_c, 0, 72, 64
2, 454720, Note_on_c, 0, 72, 100
2, 454784, Note_off_c, 0, 45, 64
2, 454848, Note_off_c, 0, 76, 64
2, 454848, Note_on_c, 0, 76, 100
2, 454848, Note_off_c, 0, 60, 64
2, 454848, Note_on_c, 0, 60, 100
2, 454848, Note_off_c, 0, 72, 64
2, 454848, Note_on_c, 0, 72, 100
2, 454912, Note_off_c, 0, 76, 64
2, 454912, Note_on_c, 0, 76, 100
2, 454976, Note_off_c, 0, 70, 64
2, 454976, Note_on_c, 0, 70, 100
2, 455040, Note_off_c, 0, 72, 64
2, 455040, Note_on_c, 0, 72, 100
2, 455040, Note_off_c, 0, 60, 64
2, 455040, Note_on_c, 0, 58, 100
2, 455104, Note_off_c, 0, 58, 64
2, 455104, Note_off_c, 0, 69, 64
2, 455104, Note_on_c, 0, 69, 100
2, 455104, Note_off_c, 0, 60, 64
2, 455104, Note_on_c, 0, 60, 100
2, 455168, Note_off_c, 0, 65, 64
2, 455168, Note_on_c, 0, 65, 100
2, 455232, Note_off_c, 0, 69, 64
2, 455232, Note_on_c, 0, 69, 100
2, 455296, Note_off_c, 0, 69, 64
2, 455296, Note_off_c, 0, 60, 64
2, 455296, Note_off_c, 0, 58, 64
2, 455296, Note_on_c, 0, 58, 100
2, 455296, Note_off_c, 0, 65, 64
2, 455296, Note_on_c, 0, 65, 100
2, 455360, Note_off_c, 0, 58, 64
2, 455360, Note_on_c, 0, 58, 100
2, 455424, Note_on_c, 0, 63, 100
2, 455424, Note_off_c, 0, 63, 64
2, 455424, Note_on_c, 0, 63, 100
2, 455488, Note_off_c, 0, 58, 64
2, 455488, Note_on_c, 0, 58, 100
2, 455488, Note_on_c, 0, 60, 100
2, 455552, Note_off_c, 0, 60, 64
2, 455552, Note_on_c, 0, 60, 100
2, 455552, Note_off_c, 0, 48, 64
2, 455552, Note_on_c, 0, 48, 100
2, 455616, Note_off_c, 0, 65, 64
2, 455616, Note_on_c, 0, 65, 100
2, 455680, Note_off_c, 0, 62, 64
2, 455680, Note_on_c, 0, 62, 100
2, 455680, Note_off_c, 0, 64, 64
2, 455680, Note_on_c, 0, 64, 100
2, 455680, Note_off_c, 0, 58, 64
2, 455680, Note_on_c, 0, 58, 100
2, 455680, Note_off_c, 0, 49, 64
2, 455680, Note_on_c, 0, 49, 100
2, 455744, Note_on_c, 0, 57, 100
2, 455744, Note_off_c, 0, 67, 64
2, 455744, Note_on_c, 0, 67, 100
2, 455808, Note_off_c, 0, 49, 64
2, 455808, Note_off_c, 0, 67, 64
2, 455808, Note_off_c, 0, 69, 64
2, 455808, Note_on_c, 0, 69, 100
2, 455808, Note_off_c, 0, 57, 64
2, 455808, Note_on_c, 0, 49, 100
2, 455872, Note_off_c, 0, 49, 64
2, 455872, Note_on_c, 0, 49, 100
2, 455936, Note_off_c, 0, 77, 64
2, 455936, Note_on_c, 0, 77, 100
2, 455936, Note_off_c, 0, 58, 64
2, 455936, Note_on_c, 0, 58, 100
2, 455936, Note_off_c, 0, 65, 64
2, 455936, Note_off_c, 0, 69, 64
2, 455936, Note_on_c, 0, 69, 100
2, 455936, Note_off_c, 0, 49, 64
2, 455936, Note_off_c, 0, 50, 64
2, 455936, Note_on_c, 0, 50, 100
2, 456000, Note_off_c, 0, 58, 64
2, 456000, Note_off_c, 0, 46, 64
2, 456000, Note_off_c, 0, 61, 64
2, 456000, Note_on_c, 0, 61, 100
2, 456000, Note_on_c, 0, 46, 100
2, 456000, Note_on_c, 0, 45, 100
2, 456000, Note_off_c, 0, 69, 64
2, 456960, Note_on_c, 0, 41, 100
2, 456960, Note_off_c, 0, 76, 64
2, 456960, Note_on_c, 0, 76, 100
2, 456960, Note_off_c, 0, 49, 64
2, 456960, Note_on_c, 0, 49, 100
2, 457088, Note_off_c, 0, 49, 64
2, 457088, Note_off_c, 0, 45, 64
2, 457088, Note_on_c, 0, 45, 100
2, 457152, Note_off_c, 0, 76, 64
2, 457152, Note_off_c, 0, 74, 64
2, 457152, Note_on_c, 0, 74, 100
2, 457152, Note_off_c, 0, 45, 64
2, 457152, Note_off_c, 0, 47, 64
2, 457152, Note_on_c, 0, 47, 100
2, 457280, Note_off_c, 0, 74, 64
2, 457280, Note_off_c, 0, 73, 64
2, 457280, Note_on_c, 0, 69, 100
2, 457280, Note_off_c, 0, 50, 64
2, 457280, Note_off_c, 0, 49, 64
2, 457280, Note_on_c, 0, 49, 100
2, 457344, Note_off_c, 0, 49, 64
2, 457344, Note_off_c, 0, 50, 64
2, 457344, Note_on_c, 0, 50, 100
2, 457408, Note_off_c, 0, 50, 64
2, 457408, Note_off_c, 0, 49, 64
2, 457408, Note_on_c, 0, 49, 100
2, 457536, Note_on_c, 0, 73, 100
2, 457536, Note_off_c, 0, 57, 64
2, 457536, Note_on_c, 0, 57, 100
2, 457536, Note_off_c, 0, 76, 64
2, 457536, Note_on_c, 0, 76, 100
2, 457536, Note_off_c, 0, 69, 64
2, 457536, Note_on_c, 0, 69, 100
2, 457536, Note_off_c, 0, 77, 64
2, 457536, Note_on_c, 0, 77, 100
2, 457536, Note_off_c, 0, 49, 64
2, 457536, Note_on_c, 0, 49, 100
2, 457664, Note_off_c, 0, 76, 64
2, 457664, Note_off_c, 0, 77, 64
2, 457664, Note_off_c, 0, 81, 64
2, 457664, Note_off_c, 0, 49, 64
2, 457664, Note_off_c, 0, 57, 64
2, 457664, Note_off_c, 0, 80, 64
2, 457664, Note_on_c, 0, 80, 100
2, 457664, Note_off_c, 0, 73, 64
2, 457664, Note_on_c, 0, 73, 100
2, 457664, Note_off_c, 0, 45, 64
2, 457664, Note_on_c, 0, 45, 100
2, 457920, Note_off_c, 0, 64, 64
2, 457920, Note_on_c, 0, 64, 100
2, 457920, Note_off_c, 0, 80, 64
2, 457920, Note_off_c, 0, 45, 64
2, 457984, Note_off_c, 0, 73, 64
2, 457984, Note_off_c, 0, 74, 64
2, 457984, Note_on_c, 0, 74, 100
2, 457984, Note_off_c, 0, 65, 64
2, 457984, Note_on_c, 0, 65, 100
2, 458112, Note_on_c, 0, 81, 100
2, 458112, Note_off_c, 0, 74, 64
2, 458112, Note_off_c, 0, 77, 64
2, 458112, Note_on_c, 0, 77, 100
2, 458112, Note_off_c, 0, 76, 64
2, 458112, Note_on_c, 0, 76, 100
2, 458240, Note_off_c, 0, 64, 64
2, 458240, Note_off_c, 0, 57, 64
2, 458240, Note_on_c, 0, 57, 100
2, 458368, Note_off_c, 0, 76, 64
2, 458368, Note_off_c, 0, 69, 64
2, 458368, Note_off_c, 0, 81, 64
2, 458368, Note_off_c, 0, 65, 64
2, 458368, Note_off_c, 0, 77, 64
2, 458368, Note_off_c, 0, 74, 64
2, 458368, Note_on_c, 0, 74, 100
2, 458368, Note_off_c, 0, 57, 64
2, 458368, Note_on_c, 0, 69, 100
2, 458368, Note_off_c, 0, 69, 64
2, 458368, Note_off_c, 0, 45, 64
2, 458368, Note_on_c, 0, 45, 100
2, 458880, Note_on_c, 0, 77, 100
2, 458880, Note_on_c, 0, 69, 100
2, 458880, Note_off_c, 0, 71, 64
2, 458880, Note_on_c, 0, 71, 100
2, 458880, Note_on_c, 0, 57, 100
2, 458880, Note_off_c, 0, 45, 64
2, 458944, Note_off_c, 0, 65, 64
2, 458944, Note_on_c, 0, 65, 100
2, 458944, Note_off_c, 0, 45, 64
2, 458944, Note_on_c, 0, 45, 100
2, 459328, Note_off_c, 0, 74, 64
2, 459328, Note_off_c, 0, 71, 64
2, 459328, Note_off_c, 0, 65, 64
2, 459456, Note_off_c, 0, 45, 64
2, 459456, Note_on_c, 0, 45, 100
2, 459456, Note_off_c, 0, 45, 64
2, 459584, Note_off_c, 0, 77, 64
2, 459584, Note_on_c, 0, 77, 100
2, 459584, Note_off_c, 0, 77, 64
2, 459584, Note_off_c, 0, 69, 64
2, 459584, Note_on_c, 0, 69, 100
2, 459584, Note_off_c, 0, 45, 64
2, 459584, Note_on_c, 0, 45, 100
2, 459584, Note_off_c, 0, 57, 64
2, 459584, Note_on_c, 0, 57, 100
2, 459584, Note_off_c, 0, 50, 64
2, 459584, Note_on_c, 0, 50, 100
2, 459648, Note_off_c, 0, 69, 64
2, 459648, Note_off_c, 0, 77, 64
2, 459648, Note_on_c, 0, 77, 100
2, 459712, Note_off_c, 0, 77, 64
2, 459712, Note_on_c, 0, 69, 100
2, 459712, Note_off_c, 0, 69, 64
2, 459712, Note_off_c, 0, 57, 64
2, 459712, Note_on_c, 0, 69, 100
2, 459776, Note_on_c, 0, 53, 100
2, 459776, Note_off_c, 0, 50, 64
2, 459840, Note_off_c, 0, 69, 64
2, 459840, Note_off_c, 0, 74, 64
2, 459840, Note_on_c, 0, 74, 100
2, 459840, Note_on_c, 0, 50, 100
2, 460032, Note_off_c, 0, 69, 64
2, 460032, Note_on_c, 0, 69, 100
2, 460160, Note_off_c, 0, 69, 64
2, 460160, Note_off_c, 0, 53, 64
2, 460160, Note_on_c, 0, 53, 100
2, 460224, Note_off_c, 0, 74, 64
2, 460224, Note_on_c, 0, 74, 100
2, 460352, Note_off_c, 0, 74, 64
2, 460352, Note_off_c, 0, 76, 64
2, 460352, Note_on_c, 0, 76, 100
2, 460352, Note_off_c, 0, 62, 64
2, 460352, Note_on_c, 0, 62, 100
2, 460544, Note_off_c, 0, 62, 64
2, 460544, Note_off_c, 0, 76, 64
2, 460544, Note_off_c, 0, 69, 64
2, 460544, Note_on_c, 0, 69, 100
2, 460544, Note_on_c, 0, 62, 100
2, 460672, Note_off_c, 0, 69, 64
2, 461312, Note_off_c, 0, 62, 64
2, 461312, Note_off_c, 0, 53, 64
2, 461312, Note_on_c, 0, 56, 100
2, 461312, Note_off_c, 0, 84, 64
2, 461312, Note_on_c, 0, 84, 100
2, 461312, Note_on_c, 0, 76, 100
2, 461312, Note_off_c, 0, 77, 64
2, 461312, Note_on_c, 0, 77, 100
2, 461312, Note_on_c, 0, 74, 100
2, 461312, Note_off_c, 0, 83, 64
2, 461312, Note_on_c, 0, 83, 100
2, 461696, Note_off_c, 0, 83, 64
2, 461696, Note_off_c, 0, 77, 64
2, 461696, Note_off_c, 0, 56, 64
2, 461696, Note_off_c, 0, 76, 64
2, 461696, Note_off_c, 0, 74, 64
2, 461696, Note_on_c, 0, 83, 100
2, 461696, Note_off_c, 0, 83, 64
2, 462016, Note_on_c, 0, 83, 100
2, 462016, Note_off_c, 0, 62, 64
2, 462016, Note_on_c, 0, 62, 100
2, 462720, Note_on_c, 0, 74, 100
2, 462720, Note_off_c, 0, 83, 64
2, 462720, Note_on_c, 0, 83, 100
2, 462912, Note_off_c, 0, 62, 64
2, 462912, Note_on_c, 0, 53, 100
2, 462912, Note_off_c, 0, 74, 64
2, 462912, Note_off_c, 0, 83, 64
2, 462912, Note_on_c, 0, 83, 100
2, 462912, Note_off_c, 0, 83, 64
2, 462912, Note_on_c, 0, 83, 100
2, 462912, Note_on_c, 0, 74, 100
2, 462912, Note_off_c, 0, 74, 64
2, 463104, Note_off_c, 0, 83, 64
2, 463104, Note_off_c, 0, 84, 64
2, 463104, Note_on_c, 0, 84, 100
2, 463296, Note_off_c, 0, 86, 64
2, 463296, Note_on_c, 0, 74, 100
2, 463296, Note_on_c, 0, 83, 100
2, 463296, Note_off_c, 0, 77, 64
2, 463296, Note_on_c, 0, 77, 100
2, 463296, Note_off_c, 0, 83, 64
2, 463296, Note_on_c, 0, 83, 100
2, 463488, Note_off_c, 0, 56, 64
2, 463488, Note_on_c, 0, 56, 100
2, 463552, Note_off_c, 0, 84, 64
2, 463552, Note_on_c, 0, 84, 100
2, 463680, Note_off_c, 0, 77, 64
2, 463680, Note_off_c, 0, 74, 64
2, 463680, Note_off_c, 0, 86, 64
2, 463680, Note_on_c, 0, 86, 100
2, 463680, Note_on_c, 0, 57, 100
2, 463680, Note_off_c, 0, 59, 64
2, 463680, Note_on_c, 0, 59, 100
2, 463872, Note_off_c, 0, 86, 64
2, 463872, Note_off_c, 0, 59, 64
2, 463872, Note_off_c, 0, 57, 64
2, 463936, Note_off_c, 0, 84, 64
2, 463936, Note_on_c, 0, 84, 100
2, 463936, Note_off_c, 0, 81, 64
2, 463936, Note_on_c, 0, 81, 100
2, 464064, Note_off_c, 0, 81, 64
2, 464064, Note_off_c, 0, 83, 64
2, 464064, Note_on_c, 0, 83, 100
2, 464128, Note_off_c, 0, 57, 64
2, 464128, Note_on_c, 0, 57, 100
2, 464128, Note_off_c, 0, 84, 64
2, 464128, Note_on_c, 0, 84, 100
2, 464192, Note_off_c, 0, 83, 64
2, 464192, Note_on_c, 0, 83, 100
2, 464192, Note_off_c, 0, 71, 64
2, 464192, Note_on_c, 0, 71, 100
2, 464192, Note_off_c, 0, 74, 64
2, 464192, Note_on_c, 0, 74, 100
2, 464192, Note_off_c, 0, 57, 64
2, 464192, Note_off_c, 0, 56, 64
2, 464192, Note_on_c, 0, 56, 100
2, 464384, Note_off_c, 0, 56, 64
2, 464384, Note_off_c, 0, 83, 64
2, 464384, Note_off_c, 0, 74, 64
2, 464384, Note_on_c, 0, 83, 100
2, 464384, Note_off_c, 0, 83, 64
2, 464384, Note_on_c, 0, 74, 100
2, 464384, Note_off_c, 0, 74, 64
2, 464384, Note_off_c, 0, 71, 64
2, 464384, Note_on_c, 0, 71, 100
2, 464576, Note_off_c, 0, 72, 64
2, 464576, Note_on_c, 0, 72, 100
2, 464576, Note_on_c, 0, 74, 100
2, 464576, Note_on_c, 0, 68, 100
2, 464576, Note_off_c, 0, 71, 64
2, 464768, Note_off_c, 0, 71, 64
2, 464768, Note_off_c, 0, 68, 64
2, 464768, Note_on_c, 0, 86, 100
2, 464768, Note_off_c, 0, 74, 64
2, 464768, Note_on_c, 0, 71, 100
2, 464832, Note_off_c, 0, 71, 64
2, 464832, Note_off_c, 0, 72, 64
2, 464832, Note_off_c, 0, 84, 64
2, 464832, Note_on_c, 0, 84, 100
2, 464832, Note_off_c, 0, 68, 64
2, 464832, Note_on_c, 0, 68, 100
2, 465024, Note_on_c, 0, 74, 100
2, 465024, Note_on_c, 0, 83, 100
2, 465024, Note_off_c, 0, 76, 64
2, 465024, Note_on_c, 0, 76, 100
2, 465024, Note_off_c, 0, 68, 64
2, 465024, Note_on_c, 0, 68, 100
2, 465216, Note_off_c, 0, 76, 64
2, 465216, Note_off_c, 0, 68, 64
2, 465216, Note_off_c, 0, 74, 64
2, 465280, Note_off_c, 0, 65, 64
2, 465280, Note_on_c, 0, 65, 100
2, 465280, Note_off_c, 0, 71, 64
2, 465280, Note_on_c, 0, 71, 100
2, 465280, Note_on_c, 0, 36, 100
2, 465536, Note_off_c, 0, 65, 64
2, 465536, Note_off_c, 0, 60, 64
2, 465536, Note_on_c, 0, 60, 100
2, 465792, Note_off_c, 0, 80, 64
2, 465792, Note_on_c, 0, 80, 100
2, 465792, Note_off_c, 0, 60, 64
2, 465792, Note_on_c, 0, 60, 100
2, 466048, Note_off_c, 0, 80, 64
2, 466048, Note_on_c, 0, 80, 100
2, 466048, Note_on_c, 0, 74, 100
2, 466560, Note_off_c, 0, 80, 64
2, 466560, Note_off_c, 0, 77, 64
2, 466560, Note_on_c, 0, 77, 100
2, 466560, Note_off_c, 0, 71, 64
2, 466560, Note_on_c, 0, 71, 100
2, 466560, Note_off_c, 0, 60, 64
2, 466816, Note_off_c, 0, 84, 64
2, 466816, Note_off_c, 0, 79, 64
2, 466816, Note_on_c, 0, 79, 100
2, 467072, Note_off_c, 0, 79, 64
2, 467072, Note_on_c, 0, 80, 100
2, 467072, Note_off_c, 0, 77, 64
2, 467072, Note_on_c, 0, 77, 100
2, 467200, Note_off_c, 0, 80, 64
2, 467200, Note_off_c, 0, 84, 64
2, 467200, Note_on_c, 0, 84, 100
2, 467328, Note_off_c, 0, 84, 64
2, 467328, Note_off_c, 0, 82, 64
2, 467328, Note_on_c, 0, 82, 100
2, 467520, Note_on_c, 0, 80, 100
2, 467520, Note_off_c, 0, 82, 64
2, 467584, Note_off_c, 0, 78, 64
2, 467584, Note_on_c, 0, 78, 100
2, 467584, Note_off_c, 0, 74, 64
2, 467584, Note_on_c, 0, 74, 100
2, 467648, Note_off_c, 0, 80, 64
2, 467648, Note_on_c, 0, 80, 100
2, 467840, Note_off_c, 0, 80, 64
2, 467840, Note_off_c, 0, 78, 64
2, 467840, Note_off_c, 0, 82, 64
2, 467840, Note_on_c, 0, 82, 100
2, 467840, Note_off_c, 0, 75, 64
2, 467840, Note_on_c, 0, 80, 100
2, 467840, Note_off_c, 0, 80, 64
2, 467840, Note_off_c, 0, 63, 64
2, 467840, Note_on_c, 0, 63, 100
2, 468032, Note_on_c, 0, 80, 100
2, 468032, Note_off_c, 0, 74, 64
2, 468096, Note_off_c, 0, 75, 64
2, 468096, Note_on_c, 0, 75, 100
2, 468352, Note_off_c, 0, 75, 64
2, 468352, Note_off_c, 0, 84, 64
2, 468352, Note_on_c, 0, 84, 100
2, 468352, Note_off_c, 0, 63, 64
2, 468352, Note_off_c, 0, 60, 64
2, 468352, Note_on_c, 0, 60, 100
2, 468608, Note_off_c, 0, 84, 64
2, 468608, Note_off_c, 0, 82, 64
2, 468608, Note_on_c, 0, 82, 100
2, 468800, Note_off_c, 0, 82, 64
2, 468800, Note_off_c, 0, 60, 64
2, 468800, Note_off_c, 0, 46, 64
2, 468864, Note_on_c, 0, 82, 100
2, 468864, Note_off_c, 0, 81, 64
2, 468864, Note_on_c, 0, 81, 100
2, 468864, Note_off_c, 0, 72, 64
2, 468864, Note_on_c, 0, 72, 100
2, 468864, Note_off_c, 0, 45, 64
2, 468864, Note_on_c, 0, 45, 100
2, 469056, Note_on_c, 0, 69, 100
2, 469120, Note_off_c, 0, 72, 64
2, 469376, Note_off_c, 0, 41, 64
2, 469376, Note_on_c, 0, 41, 100
2, 469824, Note_off_c, 0, 80, 64
2, 469888, Note_off_c, 0, 77, 64
2, 469888, Note_on_c, 0, 77, 100
2, 470080, Note_off_c, 0, 77, 64
2, 470144, Note_off_c, 0, 79, 64
2, 470144, Note_on_c, 0, 79, 100
2, 470336, Note_off_c, 0, 79, 64
2, 470400, Note_off_c, 0, 69, 64
2, 470400, Note_off_c, 0, 74, 64
2, 470400, Note_on_c, 0, 74, 100
2, 470400, Note_off_c, 0, 53, 64
2, 470400, Note_on_c, 0, 53, 100
2, 470592, Note_off_c, 0, 53, 64
2, 470656, Note_off_c, 0, 74, 64
2, 470656, Note_off_c, 0, 81, 64
2, 470656, Note_off_c, 0, 72, 64
2, 470656, Note_on_c, 0, 72, 100
2, 470656, Note_off_c, 0, 43, 64
2, 470656, Note_on_c, 0, 43, 100
2, 470912, Note_off_c, 0, 72, 64
2, 470912, Note_off_c, 0, 74, 64
2, 470912, Note_on_c, 0, 74, 100
2, 471168, Note_off_c, 0, 63, 64
2, 471168, Note_on_c, 0, 63, 100
2, 471168, Note_off_c, 0, 67, 64
2, 471168, Note_on_c, 0, 67, 100
2, 471360, Note_off_c, 0, 74, 64
2, 471360, Note_off_c, 0, 43, 64
2, 471360, Note_off_c, 0, 67, 64
2, 471360, Note_off_c, 0, 63, 64
2, 471424, Note_off_c, 0, 72, 64
2, 471424, Note_on_c, 0, 72, 100
2, 471424, Note_off_c, 0, 70, 64
2, 471424, Note_on_c, 0, 70, 100
2, 471616, Note_off_c, 0, 70, 64
2, 471616, Note_off_c, 0, 72, 64
2, 471680, Note_off_c, 0, 74, 64
2, 471680, Note_on_c, 0, 74, 100
2, 471680, Note_off_c, 0, 69, 64
2, 471680, Note_on_c, 0, 69, 100
2, 471872, Note_off_c, 0, 74, 64
2, 471872, Note_off_c, 0, 69, 64
2, 471936, Note_off_c, 0, 71, 64
2, 471936, Note_on_c, 0, 71, 100
2, 471936, Note_off_c, 0, 72, 64
2, 471936, Note_on_c, 0, 72, 100
2, 472128, Note_off_c, 0, 71, 64
2, 472192, Note_off_c, 0, 72, 64
2, 472192, Note_on_c, 0, 72, 100
2, 472384, Note_off_c, 0, 72, 64
2, 472384, Note_on_c, 0, 74, 100
2, 472448, Note_off_c, 0, 72, 64
2, 472448, Note_on_c, 0, 72, 100
2, 472448, Note_off_c, 0, 69, 64
2, 472448, Note_on_c, 0, 69, 100
2, 472448, Note_off_c, 0, 57, 64
2, 472448, Note_on_c, 0, 57, 100
2, 472640, Note_off_c, 0, 72, 64
2, 472640, Note_off_c, 0, 57, 64
2, 472704, Note_off_c, 0, 69, 64
2, 472704, Note_off_c, 0, 65, 64
2, 472704, Note_on_c, 0, 65, 100
2, 472704, Note_off_c, 0, 50, 64
2, 472704, Note_on_c, 0, 50, 100
2, 472896, Note_off_c, 0, 65, 64
2, 472896, Note_off_c, 0, 50, 64
2, 472960, Note_off_c, 0, 67, 64
2, 472960, Note_on_c, 0, 67, 100
2, 472960, Note_on_c, 0, 62, 100
2, 472960, Note_off_c, 0, 50, 64
2, 472960, Note_on_c, 0, 50, 100
2, 472960, Note_on_c, 0, 79, 100
2, 472960, Note_off_c, 0, 77, 64
2, 472960, Note_on_c, 0, 77, 100
2, 473408, Note_off_c, 0, 50, 64
2, 473408, Note_off_c, 0, 77, 64
2, 473472, Note_off_c, 0, 79, 64
2, 473472, Note_on_c, 0, 79, 100
2, 473472, Note_off_c, 0, 51, 64
2, 473472, Note_on_c, 0, 51, 100
2, 473472, Note_off_c, 0, 67, 64
2, 473472, Note_on_c, 0, 67, 100
2, 473472, Note_off_c, 0, 63, 64
2, 473472, Note_on_c, 0, 63, 100
2, 473472, Note_off_c, 0, 70, 64
2, 473472, Note_on_c, 0, 70, 100
2, 473664, Note_off_c, 0, 70, 64
2, 473664, Note_off_c, 0, 63, 64
2, 473664, Note_off_c, 0, 67, 64
2, 473664, Note_off_c, 0, 51, 64
2, 473664, Note_on_c, 0, 65, 100
2, 473728, Note_off_c, 0, 65, 64
2, 473728, Note_on_c, 0, 77, 100
2, 473728, Note_on_c, 0, 81, 100
2, 473728, Note_off_c, 0, 69, 64
2, 473728, Note_on_c, 0, 69, 100
2, 473728, Note_off_c, 0, 53, 64
2, 473728, Note_on_c, 0, 53, 100
2, 473728, Note_off_c, 0, 62, 64
2, 473728, Note_on_c, 0, 62, 100
2, 473728, Note_off_c, 0, 62, 64
2, 473728, Note_off_c, 0, 70, 64
2, 473728, Note_on_c, 0, 70, 100
2, 473728, Note_off_c, 0, 74, 64
2, 473728, Note_on_c, 0, 74, 100
2, 473728, Note_on_c, 0, 65, 100
2, 473920, Note_off_c, 0, 70, 64
2, 473920, Note_off_c, 0, 69, 64
2, 473920, Note_off_c, 0, 65, 64
2, 473920, Note_off_c, 0, 53, 64
2, 473920, Note_on_c, 0, 58, 100
2, 473984, Note_off_c, 0, 74, 64
2, 473984, Note_on_c, 0, 74, 100
2, 473984, Note_off_c, 0, 65, 64
2, 473984, Note_on_c, 0, 65, 100
2, 473984, Note_off_c, 0, 58, 64
2, 473984, Note_on_c, 0, 58, 100
2, 473984, Note_off_c, 0, 50, 64
2, 473984, Note_on_c, 0, 50, 100
2, 473984, Note_off_c, 0, 77, 64
2, 473984, Note_off_c, 0, 69, 64
2, 473984, Note_on_c, 0, 69, 100
2, 474176, Note_on_c, 0, 63, 100
2, 474176, Note_off_c, 0, 58, 64
2, 474240, Note_on_c, 0, 77, 100
2, 474240, Note_off_c, 0, 69, 64
2, 474240, Note_off_c, 0, 74, 64
2, 474240, Note_on_c, 0, 74, 100
2, 474240, Note_off_c, 0, 50, 64
2, 474240, Note_on_c, 0, 50, 100
2, 474240, Note_on_c, 0, 69, 100
2, 474240, Note_off_c, 0, 69, 64
2, 474240, Note_off_c, 0, 62, 64
2, 474240, Note_on_c, 0, 62, 100
2, 474432, Note_off_c, 0, 77, 64
2, 474432, Note_off_c, 0, 74, 64
2, 474432, Note_on_c, 0, 69, 100
2, 474432, Note_off_c, 0, 50, 64
2, 474496, Note_off_c, 0, 62, 64
2, 474496, Note_off_c, 0, 77, 64
2, 474496, Note_on_c, 0, 77, 100
2, 474496, Note_off_c, 0, 81, 64
2, 474496, Note_off_c, 0, 82, 64
2, 474496, Note_on_c, 0, 82, 100
2, 474496, Note_on_c, 0, 62, 100
2, 474496, Note_off_c, 0, 62, 64
2, 474496, Note_on_c, 0, 46, 100
2, 474496, Note_on_c, 0, 70, 100
2, 474496, Note_on_c, 0, 74, 100
2, 474688, Note_off_c, 0, 82, 64
2, 474688, Note_off_c, 0, 70, 64
2, 474752, Note_off_c, 0, 74, 64
2, 474752, Note_on_c, 0, 74, 100
2, 474752, Note_off_c, 0, 62, 64
2, 474752, Note_on_c, 0, 62, 100
2, 474944, Note_off_c, 0, 77, 64
2, 474944, Note_off_c, 0, 74, 64
2, 474944, Note_off_c, 0, 62, 64
2, 474944, Note_off_c, 0, 46, 64
2, 475008, Note_on_c, 0, 82, 100
2, 475008, Note_off_c, 0, 79, 64
2, 475008, Note_on_c, 0, 79, 100
2, 475008, Note_off_c, 0, 74, 64
2, 475008, Note_on_c, 0, 74, 100
2, 475008, Note_off_c, 0, 67, 64
2, 475008, Note_on_c, 0, 67, 100
2, 475008, Note_off_c, 0, 58, 64
2, 475008, Note_on_c, 0, 58, 100
2, 475008, Note_off_c, 0, 75, 64
2, 475008, Note_on_c, 0, 75, 100
2, 475008, Note_off_c, 0, 70, 64
2, 475008, Note_on_c, 0, 70, 100
2, 475200, Note_off_c, 0, 79, 64
2, 475200, Note_off_c, 0, 58, 64
2, 475264, Note_off_c, 0, 70, 64
2, 475264, Note_off_c, 0, 67, 64
2, 475264, Note_off_c, 0, 74, 64
2, 475264, Note_on_c, 0, 74, 100
2, 475264, Note_off_c, 0, 57, 64
2, 475264, Note_on_c, 0, 57, 100
2, 475264, Note_off_c, 0, 74, 64
2, 475264, Note_off_c, 0, 72, 64
2, 475264, Note_on_c, 0, 72, 100
2, 475264, Note_off_c, 0, 69, 64
2, 475264, Note_on_c, 0, 69, 100
2, 475328, Note_off_c, 0, 72, 64
2, 475328, Note_off_c, 0, 57, 64
2, 475328, Note_on_c, 0, 58, 100
2, 475456, Note_on_c, 0, 74, 100
2, 475456, Note_off_c, 0, 75, 64
2, 475456, Note_off_c, 0, 69, 64
2, 475456, Note_off_c, 0, 58, 64
2, 475520, Note_on_c, 0, 75, 100
2, 475520, Note_off_c, 0, 77, 64
2, 475520, Note_on_c, 0, 77, 100
2, 475520, Note_off_c, 0, 70, 64
2, 475520, Note_on_c, 0, 70, 100
2, 475520, Note_on_c, 0, 67, 100
2, 475520, Note_off_c, 0, 46, 64
2, 475520, Note_on_c, 0, 46, 100
2, 475520, Note_off_c, 0, 65, 64
2, 475520, Note_on_c, 0, 65, 100
2, 475712, Note_off_c, 0, 77, 64
2, 475712, Note_on_c, 0, 69, 100
2, 475712, Note_off_c, 0, 67, 64
2, 475712, Note_on_c, 0, 67, 100
2, 475776, Note_off_c, 0, 79, 64
2, 475776, Note_on_c, 0, 79, 100
2, 475776, Note_off_c, 0, 46, 64
2, 475776, Note_on_c, 0, 46, 100
2, 475776, Note_off_c, 0, 65, 64
2, 475776, Note_off_c, 0, 63, 64
2, 475776, Note_on_c, 0, 63, 100
2, 475776, Note_off_c, 0, 72, 64
2, 475776, Note_on_c, 0, 72, 100
2, 475904, Note_off_c, 0, 75, 64
2, 475904, Note_on_c, 0, 75, 100
2, 475904, Note_on_c, 0, 73, 100
2, 475968, Note_off_c, 0, 67, 64
2, 475968, Note_off_c, 0, 73, 64
2, 475968, Note_off_c, 0, 72, 64
2, 476032, Note_on_c, 0, 81, 100
2, 476032, Note_off_c, 0, 75, 64
2, 476032, Note_on_c, 0, 75, 100
2, 476032, Note_on_c, 0, 72, 100
2, 476032, Note_on_c, 0, 73, 100
2, 476096, Note_off_c, 0, 75, 64
2, 476096, Note_off_c, 0, 74, 64
2, 476096, Note_on_c, 0, 74, 100
2, 476096, Note_off_c, 0, 74, 64
2, 476096, Note_on_c, 0, 75, 100
2, 476096, Note_off_c, 0, 75, 64
2, 476288, Note_off_c, 0, 79, 64
2, 476288, Note_on_c, 0, 75, 100
2, 476288, Note_off_c, 0, 74, 64
2, 476288, Note_off_c, 0, 78, 64
2, 476288, Note_on_c, 0, 78, 100
2, 476288, Note_off_c, 0, 69, 64
2, 476288, Note_on_c, 0, 69, 100
2, 476288, Note_off_c, 0, 63, 64
2, 476288, Note_off_c, 0, 67, 64
2, 476288, Note_on_c, 0, 67, 100
2, 476288, Note_off_c, 0, 43, 64
2, 476288, Note_on_c, 0, 43, 100
2, 476288, Note_on_c, 0, 74, 100
2, 476288, Note_off_c, 0, 70, 64
2, 476288, Note_off_c, 0, 62, 64
2, 476288, Note_on_c, 0, 62, 100
2, 476288, Note_off_c, 0, 61, 64
2, 476352, Note_on_c, 0, 77, 100
2, 476352, Note_off_c, 0, 79, 64
2, 476352, Note_on_c, 0, 79, 100
2, 476416, Note_off_c, 0, 79, 64
2, 476416, Note_on_c, 0, 79, 100
2, 476416, Note_off_c, 0, 79, 64
2, 476416, Note_off_c, 0, 77, 64
2, 476416, Note_on_c, 0, 77, 100
2, 476608, Note_off_c, 0, 77, 64
2, 476608, Note_off_c, 0, 74, 64
2, 476608, Note_on_c, 0, 74, 100
2, 476608, Note_off_c, 0, 43, 64
2, 476608, Note_off_c, 0, 45, 64
2, 476608, Note_on_c, 0, 45, 100
2, 476608, Note_off_c, 0, 67, 64
2, 476608, Note_off_c, 0, 73, 64
2, 476608, Note_on_c, 0, 73, 100
2, 476608, Note_off_c, 0, 62, 64
2, 476608, Note_on_c, 0, 61, 100
2, 476608, Note_off_c, 0, 69, 64
2, 476608, Note_on_c, 0, 69, 100
2, 476800, Note_off_c, 0, 73, 64
2, 476800, Note_off_c, 0, 45, 64
2, 476864, Note_off_c, 0, 74, 64
2, 476864, Note_on_c, 0, 74, 100
2, 476864, Note_off_c, 0, 69, 64
2, 476864, Note_off_c, 0, 65, 64
2, 476864, Note_on_c, 0, 65, 100
2, 476864, Note_off_c, 0, 41, 64
2, 476864, Note_on_c, 0, 41, 100
2, 476864, Note_off_c, 0, 57, 64
2, 476864, Note_on_c, 0, 57, 100
2, 476864, Note_off_c, 0, 61, 64
2, 476864, Note_on_c, 0, 61, 100
2, 476864, Note_off_c, 0, 61, 64
2, 476864, Note_off_c, 0, 73, 64
2, 476864, Note_on_c, 0, 73, 100
2, 477056, Note_off_c, 0, 65, 64
2, 477056, Note_off_c, 0, 73, 64
2, 477056, Note_on_c, 0, 69, 100
2, 477056, Note_off_c, 0, 57, 64
2, 477120, Note_off_c, 0, 74, 64
2, 477120, Note_off_c, 0, 41, 64
2, 477120, Note_off_c, 0, 69, 64
2, 477120, Note_on_c, 0, 69, 100
2, 477120, Note_off_c, 0, 57, 64
2, 477120, Note_on_c, 0, 57, 100
2, 477120, Note_off_c, 0, 53, 64
2, 477120, Note_on_c, 0, 53, 100
2, 477120, Note_off_c, 0, 64, 64
2, 477120, Note_on_c, 0, 64, 100
2, 477120, Note_on_c, 0, 65, 100
2, 477120, Note_on_c, 0, 41, 100
2, 477120, Note_off_c, 0, 69, 64
2, 477120, Note_on_c, 0, 69, 100
2, 477312, Note_off_c, 0, 53, 64
2, 477312, Note_off_c, 0, 69, 64
2, 477312, Note_off_c, 0, 65, 64
2, 477312, Note_off_c, 0, 57, 64
2, 477376, Note_off_c, 0, 41, 64
2, 477376, Note_off_c, 0, 62, 64
2, 477376, Note_on_c, 0, 62, 100
2, 477376, Note_off_c, 0, 69, 64
2, 477376, Note_on_c, 0, 69, 100
2, 477376, Note_off_c, 0, 54, 64
2, 477376, Note_on_c, 0, 54, 100
2, 477376, Note_on_c, 0, 45, 100
2, 477376, Note_on_c, 0, 50, 100
2, 477376, Note_off_c, 0, 74, 64
2, 477376, Note_on_c, 0, 74, 100
2, 477376, Note_on_c, 0, 66, 100
2, 477376, Note_off_c, 0, 61, 64
2, 477376, Note_on_c, 0, 61, 100
2, 477440, Note_off_c, 0, 73, 64
2, 477440, Note_on_c, 0, 73, 100
2, 477504, Note_off_c, 0, 76, 64
2, 477504, Note_on_c, 0, 76, 100
2, 477504, Note_off_c, 0, 73, 64
2, 477504, Note_off_c, 0, 74, 64
2, 477504, Note_on_c, 0, 74, 100
2, 477568, Note_off_c, 0, 78, 64
2, 477568, Note_on_c, 0, 78, 100
2, 477632, Note_off_c, 0, 74, 64
2, 477632, Note_off_c, 0, 69, 64
2, 477632, Note_off_c, 0, 54, 64
2, 477632, Note_off_c, 0, 78, 64
2, 477632, Note_on_c, 0, 74, 100
2, 477632, Note_off_c, 0, 62, 64
2, 477696, Note_off_c, 0, 73, 64
2, 477696, Note_on_c, 0, 73, 100
2, 477696, Note_on_c, 0, 70, 100
2, 477696, Note_off_c, 0, 61, 64
2, 477696, Note_off_c, 0, 67, 64
2, 477696, Note_on_c, 0, 67, 100
2, 477696, Note_on_c, 0, 62, 100
2, 477760, Note_off_c, 0, 66, 64
2, 477760, Note_off_c, 0, 67, 64
2, 477760, Note_off_c, 0, 64, 64
2, 477760, Note_on_c, 0, 64, 100
2, 477824, Note_off_c, 0, 73, 64
2, 477824, Note_on_c, 0, 66, 100
2, 477888, Note_off_c, 0, 67, 64
2, 477888, Note_on_c, 0, 67, 100
2, 477888, Note_off_c, 0, 64, 64
2, 477888, Note_on_c, 0, 64, 100
2, 477888, Note_off_c, 0, 66, 64
2, 478016, Note_off_c, 0, 73, 64
2, 478016, Note_on_c, 0, 73, 100
2, 478016, Note_on_c, 0, 66, 100
2, 478016, Note_off_c, 0, 64, 64
2, 478080, Note_off_c, 0, 64, 64
2, 478080, Note_on_c, 0, 64, 100
2, 478144, Note_off_c, 0, 73, 64
2, 478144, Note_on_c, 0, 69, 100
2, 478144, Note_off_c, 0, 81, 64
2, 478144, Note_off_c, 0, 74, 64
2, 478144, Note_on_c, 0, 74, 100
2, 478144, Note_off_c, 0, 66, 64
2, 478144, Note_on_c, 0, 66, 100
2, 478144, Note_off_c, 0, 66, 64
2, 478208, Note_off_c, 0, 76, 64
2, 478208, Note_on_c, 0, 76, 100
2, 478208, Note_off_c, 0, 74, 64
2, 478208, Note_on_c, 0, 66, 100
2, 478336, Note_off_c, 0, 70, 64
2, 478336, Note_off_c, 0, 69, 64
2, 478336, Note_off_c, 0, 38, 64
2, 478336, Note_off_c, 0, 66, 64
2, 478400, Note_off_c, 0, 62, 64
2, 478400, Note_on_c, 0, 38, 100
2, 478400, Note_off_c, 0, 78, 64
2, 478400, Note_off_c, 0, 74, 64
2, 478400, Note_off_c, 0, 67, 64
2, 478400, Note_on_c, 0, 67, 100
2, 478400, Note_on_c, 0, 49, 100
2, 478400, Note_off_c, 0, 37, 64
2, 478400, Note_on_c, 0, 37, 100
2, 478400, Note_off_c, 0, 49, 64
2, 478400, Note_on_c, 0, 49, 100
2, 478400, Note_on_c, 0, 78, 100
2, 478400, Note_on_c, 0, 74, 100
2, 478592, Note_off_c, 0, 49, 64
2, 478656, Note_off_c, 0, 78, 64
2, 478656, Note_off_c, 0, 37, 64
2, 478656, Note_off_c, 0, 73, 64
2, 478656, Note_on_c, 0, 73, 100
2, 478656, Note_on_c, 0, 49, 100
2, 478656, Note_on_c, 0, 37, 100
2, 478656, Note_on_c, 0, 78, 100
2, 478656, Note_off_c, 0, 78, 64
2, 478656, Note_off_c, 0, 69, 64
2, 478656, Note_on_c, 0, 69, 100
2, 478656, Note_on_c, 0, 66, 100
2, 478656, Note_on_c, 0, 62, 100
2, 478656, Note_off_c, 0, 62, 64
2, 478656, Note_on_c, 0, 62, 100
2, 478720, Note_off_c, 0, 49, 64
2, 478720, Note_off_c, 0, 48, 64
2, 478720, Note_off_c, 0, 50, 64
2, 478784, Note_on_c, 0, 78, 100
2, 478784, Note_off_c, 0, 66, 64
2, 478784, Note_off_c, 0, 67, 64
2, 478784, Note_on_c, 0, 67, 100
2, 478784, Note_off_c, 0, 74, 64
2, 478784, Note_on_c, 0, 74, 100
2, 478784, Note_off_c, 0, 76, 64
2, 478784, Note_on_c, 0, 76, 100
2, 478784, Note_on_c, 0, 68, 100
2, 478784, Note_off_c, 0, 68, 64
2, 478784, Note_off_c, 0, 64, 64
2, 478784, Note_on_c, 0, 64, 100
2, 478784, Note_on_c, 0, 68, 100
2, 478784, Note_off_c, 0, 67, 64
2, 478848, Note_off_c, 0, 74, 64
2, 478848, Note_on_c, 0, 74, 100
2, 478848, Note_off_c, 0, 78, 64
2, 478912, Note_off_c, 0, 76, 64
2, 478912, Note_off_c, 0, 78, 64
2, 478912, Note_off_c, 0, 74, 64
2, 478912, Note_on_c, 0, 50, 100
2, 478912, Note_on_c, 0, 54, 100
2, 478912, Note_off_c, 0, 71, 64
2, 478912, Note_on_c, 0, 71, 100
2, 478912, Note_on_c, 0, 76, 100
2, 478912, Note_off_c, 0, 73, 64
2, 478912, Note_on_c, 0, 73, 100
2, 478912, Note_on_c, 0, 78, 100
2, 478976, Note_on_c, 0, 55, 100
2, 479040, Note_off_c, 0, 55, 64
2, 479040, Note_off_c, 0, 47, 64
2, 479040, Note_on_c, 0, 47, 100
2, 479040, Note_off_c, 0, 76, 64
2, 479040, Note_off_c, 0, 47, 64
2, 479040, Note_on_c, 0, 74, 100
2, 479040, Note_off_c, 0, 74, 64
2, 479040, Note_on_c, 0, 74, 100
2, 479040, Note_off_c, 0, 74, 64
2, 479040, Note_off_c, 0, 73, 64
2, 479040, Note_on_c, 0, 73, 100
2, 479040, Note_off_c, 0, 71, 64
2, 479040, Note_on_c, 0, 71, 100
2, 479104, Note_off_c, 0, 47, 64
2, 479104, Note_on_c, 0, 47, 100
2, 479168, Note_off_c, 0, 47, 64
2, 479168, Note_on_c, 0, 76, 100
2, 479168, Note_on_c, 0, 74, 100
2, 479168, Note_off_c, 0, 64, 64
2, 479168, Note_off_c, 0, 71, 64
2, 479168, Note_on_c, 0, 70, 100
2, 479168, Note_on_c, 0, 49, 100
2, 479168, Note_off_c, 0, 49, 64
2, 479168, Note_on_c, 0, 49, 100
2, 479168, Note_off_c, 0, 73, 64
2, 479168, Note_on_c, 0, 73, 100
2, 479168, Note_on_c, 0, 64, 100
2, 479232, Note_on_c, 0, 66, 100
2, 479232, Note_off_c, 0, 66, 64
2, 479232, Note_on_c, 0, 66, 100
2, 479296, Note_off_c, 0, 73, 64
2, 479296, Note_off_c, 0, 49, 64
2, 479296, Note_off_c, 0, 70, 64
2, 479296, Note_off_c, 0, 64, 64
2, 479296, Note_on_c, 0, 64, 100
2, 479296, Note_off_c, 0, 76, 64
2, 479296, Note_on_c, 0, 70, 100
2, 479296, Note_off_c, 0, 70, 64
2, 479296, Note_off_c, 0, 55, 64
2, 479296, Note_on_c, 0, 55, 100
2, 479296, Note_on_c, 0, 61, 100
2, 479296, Note_off_c, 0, 59, 64
2, 479296, Note_on_c, 0, 59, 100
2, 479296, Note_off_c, 0, 47, 64
2, 479296, Note_on_c, 0, 47, 100
2, 479424, Note_on_c, 0, 49, 100
2, 479424, Note_off_c, 0, 61, 64
2, 479424, Note_off_c, 0, 64, 64
2, 479424, Note_off_c, 0, 54, 64
2, 479424, Note_on_c, 0, 54, 100
2, 479424, Note_off_c, 0, 42, 64
2, 479424, Note_on_c, 0, 42, 100
2, 479424, Note_on_c, 0, 70, 100
2, 479424, Note_on_c, 0, 64, 100
2, 479424, Note_off_c, 0, 64, 64
2, 479424, Note_off_c, 0, 73, 64
2, 479424, Note_on_c, 0, 73, 100
2, 479552, Note_off_c, 0, 54, 64
2, 479552, Note_off_c, 0, 73, 64
2, 479552, Note_off_c, 0, 70, 64
2, 479552, Note_off_c, 0, 66, 64
2, 479552, Note_on_c, 0, 54, 100
2, 479552, Note_off_c, 0, 76, 64
2, 479552, Note_on_c, 0, 76, 100
2, 479552, Note_off_c, 0, 71, 64
2, 479552, Note_on_c, 0, 71, 100
2, 479552, Note_off_c, 0, 64, 64
2, 479552, Note_on_c, 0, 64, 100
2, 479552, Note_off_c, 0, 55, 64
2, 479552, Note_off_c, 0, 49, 64
2, 479552, Note_on_c, 0, 49, 100
2, 479680, Note_off_c, 0, 64, 64
2, 479680, Note_off_c, 0, 76, 64
2, 479680, Note_off_c, 0, 78, 64
2, 479680, Note_on_c, 0, 78, 100
2, 479680, Note_off_c, 0, 74, 64
2, 479680, Note_on_c, 0, 74, 100
2, 479680, Note_off_c, 0, 71, 64
2, 479680, Note_on_c, 0, 66, 100
2, 479680, Note_off_c, 0, 69, 64
2, 479680, Note_on_c, 0, 69, 100
2, 479808, Note_off_c, 0, 74, 64
2, 479808, Note_off_c, 0, 54, 64
2, 479808, Note_off_c, 0, 50, 64
2, 479808, Note_off_c, 0, 78, 64
2, 479808, Note_off_c, 0, 76, 64
2, 479808, Note_on_c, 0, 76, 100
2, 479808, Note_off_c, 0, 45, 64
2, 479808, Note_on_c, 0, 73, 100
2, 479808, Note_off_c, 0, 73, 64
2, 479808, Note_on_c, 0, 73, 100
2, 479808, Note_off_c, 0, 69, 64
2, 479808, Note_on_c, 0, 69, 100
2, 479808, Note_off_c, 0, 69, 64
2, 479808, Note_off_c, 0, 66, 64
2, 479808, Note_off_c, 0, 57, 64
2, 479808, Note_on_c, 0, 57, 100
2, 479936, Note_off_c, 0, 76, 64
2, 479936, Note_off_c, 0, 69, 64
2, 479936, Note_on_c, 0, 66, 100
2, 479936, Note_off_c, 0, 73, 64
2, 479936, Note_off_c, 0, 79, 64
2, 479936, Note_on_c, 0, 79, 100
2, 479936, Note_on_c, 0, 69, 100
2, 479936, Note_on_c, 0, 74, 100
2, 479936, Note_off_c, 0, 74, 64
2, 479936, Note_on_c, 0, 74, 100
2, 479936, Note_off_c, 0, 71, 64
2, 479936, Note_on_c, 0, 71, 100
2, 480064, Note_off_c, 0, 79, 64
2, 480064, Note_off_c, 0, 74, 64
2, 480064, Note_off_c, 0, 71, 64
2, 480064, Note_off_c, 0, 69, 64
2, 480064, Note_off_c, 0, 57, 64
2, 480064, Note_on_c, 0, 69, 100
2, 480064, Note_off_c, 0, 69, 64
2, 480192, Note_off_c, 0, 66, 64
2, 480192, Note_on_c, 0, 66, 100
2, 480192, Note_off_c, 0, 47, 64
2, 480192, Note_off_c, 0, 61, 64
2, 480192, Note_on_c, 0, 61, 100
2, 480192, Note_off_c, 0, 71, 64
2, 480192, Note_on_c, 0, 71, 100
2, 480192, Note_off_c, 0, 64, 64
2, 480192, Note_on_c, 0, 64, 100
2, 480192, Note_on_c, 0, 74, 100
2, 480192, Note_off_c, 0, 74, 64
2, 480192, Note_off_c, 0, 59, 64
2, 480192, Note_off_c, 0, 62, 64
2, 480192, Note_off_c, 0, 38, 64
2, 480192, Note_on_c, 0, 38, 100
2, 480192, Note_off_c, 0, 38, 64
2, 480192, Note_on_c, 0, 81, 100
2, 480192, Note_off_c, 0, 76, 64
2, 480192, Note_on_c, 0, 76, 100
2, 480192, Note_on_c, 0, 74, 100
2, 480192, Note_off_c, 0, 66, 64
2, 481344, Note_off_c, 0, 76, 64
2, 481344, Note_on_c, 0, 69, 100
2, 481344, Note_on_c, 0, 38, 100
2, 481344, Note_off_c, 0, 64, 64
2, 481344, Note_on_c, 0, 59, 100
2, 481344, Note_on_c, 0, 57, 100
2, 481344, Note_off_c, 0, 57, 64
2, 481344, Note_off_c, 0, 74, 64
2, 481344, Note_off_c, 0, 78, 64
2, 481344, Note_on_c, 0, 78, 100
2, 481344, Note_off_c, 0, 62, 64
2, 481344, Note_on_c, 0, 74, 100
2, 481344, Note_off_c, 0, 69, 64
2, 481344, Note_on_c, 0, 69, 100
2, 481344, Note_off_c, 0, 42, 64
2, 481344, Note_off_c, 0, 54, 64
2, 481344, Note_on_c, 0, 54, 100
2, 481344, Note_off_c, 0, 71, 64
2, 481344, Note_on_c, 0, 62, 100
2, 481344, Note_on_c, 0, 57, 100
2, 481728, Note_off_c, 0, 69, 64
2, 481728, Note_off_c, 0, 74, 64
2, 481728, Note_off_c, 0, 78, 64
2, 481728, Note_off_c, 0, 71, 64
2, 481728, Note_on_c, 0, 71, 100
2, 481728, Note_off_c, 0, 76, 64
2, 481728, Note_on_c, 0, 76, 100
2, 481792, Note_off_c, 0, 54, 64
2, 481792, Note_on_c, 0, 54, 100
2, 481792, Note_off_c, 0, 54, 64
2, 481856, Note_off_c, 0, 76, 64
2, 481856, Note_off_c, 0, 74, 64
2, 481856, Note_on_c, 0, 74, 100
2, 481856, Note_on_c, 0, 42, 100
2, 481856, Note_off_c, 0, 47, 64
2, 481856, Note_on_c, 0, 47, 100
2, 482176, Note_off_c, 0, 74, 64
2, 482560, Note_off_c, 0, 71, 64
2, 482560, Note_on_c, 0, 69, 100
2, 482816, Note_off_c, 0, 69, 64
2, 482816, Note_off_c, 0, 66, 64
2, 482816, Note_on_c, 0, 66, 100
2, 482944, Note_off_c, 0, 66, 64
2, 482944, Note_off_c, 0, 40, 64
2, 482944, Note_off_c, 0, 49, 64
2, 482944, Note_on_c, 0, 49, 100
2, 482944, Note_on_c, 0, 64, 100
2, 482944, Note_off_c, 0, 64, 64
2, 482944, Note_on_c, 0, 64, 100
2, 482944, Note_off_c, 0, 59, 64
2, 482944, Note_on_c, 0, 59, 100
2, 483072, Note_off_c, 0, 62, 64
2, 483072, Note_on_c, 0, 71, 100
2, 483072, Note_off_c, 0, 64, 64
2, 483456, Note_on_c, 0, 62, 100
2, 483840, Note_off_c, 0, 59, 64
2, 483840, Note_on_c, 0, 69, 100
2, 484352, Note_off_c, 0, 69, 64
2, 484352, Note_off_c, 0, 66, 64
2, 484352, Note_on_c, 0, 66, 100
2, 484672, Note_off_c, 0, 66, 64
2, 484672, Note_off_c, 0, 57, 64
2, 484672, Note_on_c, 0, 57, 100
2, 484672, Note_on_c, 0, 66, 100
2, 485440, Note_off_c, 0, 66, 64
2, 485632, Note_off_c, 0, 76, 64
2, 485632, Note_on_c, 0, 76, 100
2, 485760, Note_off_c, 0, 57, 64
2, 485760, Note_off_c, 0, 54, 64
2, 485760, Note_on_c, 0, 54, 100
2, 486144, Note_off_c, 0, 54, 64
2, 486144, Note_off_c, 0, 55, 64
2, 486144, Note_on_c, 0, 55, 100
2, 486592, Note_off_c, 0, 55, 64
2, 486976, Note_on_c, 0, 40, 100
2, 486976, Note_off_c, 0, 52, 64
2, 486976, Note_on_c, 0, 52, 100
2, 487296, Note_off_c, 0, 52, 64
2, 487744, Note_off_c, 0, 69, 64
2, 487744, Note_on_c, 0, 69, 100
2, 487872, Note_off_c, 0, 69, 64
2, 487872, Note_on_c, 0, 45, 100
2, 487872, Note_off_c, 0, 81, 64
2, 487872, Note_on_c, 0, 81, 100
2, 488000, Note_off_c, 0, 57, 64
2, 488000, Note_on_c, 0, 57, 100
2, 488000, Note_off_c, 0, 42, 64
2, 488128, Note_off_c, 0, 74, 64
2, 488128, Note_on_c, 0, 74, 100
2, 488128, Note_off_c, 0, 62, 64
2, 488128, Note_on_c, 0, 62, 100
2, 488256, Note_off_c, 0, 57, 64
2, 488256, Note_off_c, 0, 61, 64
2, 488256, Note_off_c, 0, 42, 64
2, 488256, Note_on_c, 0, 42, 100
2, 488256, Note_off_c, 0, 54, 64
2, 488256, Note_on_c, 0, 54, 100
2, 488384, Note_off_c, 0, 74, 64
2, 488384, Note_off_c, 0, 73, 64
2, 488384, Note_on_c, 0, 73, 100
2, 488512, Note_off_c, 0, 73, 64
2, 488512, Note_on_c, 0, 73, 100
2, 488512, Note_off_c, 0, 71, 64
2, 488512, Note_on_c, 0, 71, 100
2, 488640, Note_off_c, 0, 71, 64
2, 488640, Note_off_c, 0, 42, 64
2, 488640, Note_on_c, 0, 43, 100
2, 488640, Note_off_c, 0, 83, 64
2, 488640, Note_on_c, 0, 83, 100
2, 488768, Note_off_c, 0, 83, 64
2, 488768, Note_on_c, 0, 83, 100
2, 488896, Note_on_c, 0, 42, 100
2, 488896, Note_off_c, 0, 54, 64
2, 488896, Note_on_c, 0, 54, 100
2, 488896, Note_off_c, 0, 42, 64
2, 488896, Note_on_c, 0, 42, 100
2, 489024, Note_off_c, 0, 62, 64
2, 489024, Note_off_c, 0, 42, 64
2, 489024, Note_off_c, 0, 54, 64
2, 489024, Note_off_c, 0, 59, 64
2, 489024, Note_on_c, 0, 59, 100
2, 489024, Note_off_c, 0, 76, 64
2, 489024, Note_on_c, 0, 76, 100
2, 489024, Note_off_c, 0, 55, 64
2, 489024, Note_on_c, 0, 55, 100
2, 489280, Note_on_c, 0, 62, 100
2, 489280, Note_off_c, 0, 66, 64
2, 489280, Note_on_c, 0, 66, 100
2, 489408, Note_off_c, 0, 66, 64
2, 489408, Note_off_c, 0, 54, 64
2, 489408, Note_on_c, 0, 54, 100
2, 489408, Note_off_c, 0, 69, 64
2, 489408, Note_on_c, 0, 69, 100
2, 489536, Note_off_c, 0, 59, 64
2, 489536, Note_off_c, 0, 76, 64
2, 489536, Note_off_c, 0, 55, 64
2, 489536, Note_off_c, 0, 71, 64
2, 489536, Note_on_c, 0, 71, 100
2, 489536, Note_off_c, 0, 54, 64
2, 489536, Note_on_c, 0, 54, 100
2, 489536, Note_off_c, 0, 79, 64
2, 489536, Note_on_c, 0, 79, 100
2, 489536, Note_on_c, 0, 59, 100
2, 489792, Note_off_c, 0, 79, 64
2, 489792, Note_off_c, 0, 69, 64
2, 489792, Note_off_c, 0, 62, 64
2, 489792, Note_off_c, 0, 54, 64
2, 489792, Note_off_c, 0, 71, 64
2, 489792, Note_on_c, 0, 54, 100
2, 489792, Note_on_c, 0, 62, 100
2, 489792, Note_off_c, 0, 68, 64
2, 489792, Note_off_c, 0, 62, 64
2, 489792, Note_off_c, 0, 56, 64
2, 489792, Note_on_c, 0, 56, 100
2, 489920, Note_on_c, 0, 69, 100
2, 489920, Note_off_c, 0, 59, 64
2, 489920, Note_on_c, 0, 68, 100
2, 489920, Note_off_c, 0, 52, 64
2, 489920, Note_on_c, 0, 52, 100
2, 490048, Note_off_c, 0, 68, 64
2, 490048, Note_off_c, 0, 52, 64
2, 490048, Note_off_c, 0, 69, 64
2, 490048, Note_on_c, 0, 69, 100
2, 490176, Note_on_c, 0, 71, 100
2, 490176, Note_off_c, 0, 69, 64
2, 490176, Note_on_c, 0, 69, 100
2, 490432, Note_off_c, 0, 69, 64
2, 490432, Note_off_c, 0, 57, 64
2, 490432, Note_on_c, 0, 57, 100
2, 490432, Note_off_c, 0, 73, 64
2, 490432, Note_on_c, 0, 73, 100
2, 490432, Note_off_c, 0, 71, 64
2, 490432, Note_off_c, 0, 64, 64
2, 490432, Note_on_c, 0, 64, 100
2, 490560, Note_off_c, 0, 64, 64
2, 490560, Note_off_c, 0, 73, 64
2, 490560, Note_on_c, 0, 71, 100
2, 490560, Note_off_c, 0, 67, 64
2, 490560, Note_on_c, 0, 67, 100
2, 490560, Note_on_c, 0, 74, 100
2, 490560, Note_off_c, 0, 62, 64
2, 490560, Note_on_c, 0, 62, 100
2, 490688, Note_on_c, 0, 65, 100
2, 490688, Note_off_c, 0, 74, 64
2, 490688, Note_off_c, 0, 57, 64
2, 490688, Note_off_c, 0, 71, 64
2, 490688, Note_off_c, 0, 77, 64
2, 490688, Note_on_c, 0, 77, 100
2, 490688, Note_off_c, 0, 61, 64
2, 490688, Note_on_c, 0, 61, 100
2, 490816, Note_off_c, 0, 77, 64
2, 490816, Note_off_c, 0, 76, 64
2, 490816, Note_on_c, 0, 76, 100
2, 490944, Note_off_c, 0, 61, 64
2, 490944, Note_off_c, 0, 76, 64
2, 490944, Note_on_c, 0, 76, 100
2, 491072, Note_off_c, 0, 76, 64
2, 491072, Note_off_c, 0, 67, 64
2, 491072, Note_on_c, 0, 71, 100
2, 491072, Note_off_c, 0, 77, 64
2, 491072, Note_on_c, 0, 77, 100
2, 491200, Note_off_c, 0, 77, 64
2, 491200, Note_on_c, 0, 57, 100
2, 491200, Note_on_c, 0, 76, 100
2, 491200, Note_off_c, 0, 54, 64
2, 491200, Note_off_c, 0, 73, 64
2, 491200, Note_on_c, 0, 73, 100
2, 491200, Note_off_c, 0, 61, 64
2, 491200, Note_on_c, 0, 61, 100
2, 491328, Note_off_c, 0, 61, 64
2, 491328, Note_off_c, 0, 62, 64
2, 491328, Note_on_c, 0, 62, 100
2, 491456, Note_off_c, 0, 71, 64
2, 491456, Note_on_c, 0, 54, 100
2, 491456, Note_off_c, 0, 57, 64
2, 491456, Note_on_c, 0, 71, 100
2, 491456, Note_on_c, 0, 57, 100
2, 491456, Note_off_c, 0, 62, 64
2, 491456, Note_on_c, 0, 62, 100
2, 491456, Note_off_c, 0, 50, 64
2, 491456, Note_on_c, 0, 50, 100
2, 491712, Note_off_c, 0, 57, 64
2, 491712, Note_off_c, 0, 50, 64
2, 491712, Note_off_c, 0, 54, 64
2, 491712, Note_on_c, 0, 54, 100
2, 491840, Note_off_c, 0, 54, 64
2, 491840, Note_on_c, 0, 54, 100
2, 491840, Note_off_c, 0, 54, 64
2, 491968, Note_on_c, 0, 54, 100
2, 491968, Note_off_c, 0, 62, 64
2, 491968, Note_off_c, 0, 55, 64
2, 491968, Note_on_c, 0, 55, 100
2, 492096, Note_off_c, 0, 55, 64
2, 492096, Note_off_c, 0, 54, 64
2, 492096, Note_on_c, 0, 54, 100
2, 492224, Note_off_c, 0, 54, 64
2, 492224, Note_off_c, 0, 83, 64
2, 492224, Note_off_c, 0, 76, 64
2, 492224, Note_off_c, 0, 52, 64
2, 492224, Note_on_c, 0, 52, 100
2, 492480, Note_on_c, 0, 67, 100
2, 492480, Note_off_c, 0, 52, 64
2, 492480, Note_on_c, 0, 54, 100
2, 492480, Note_off_c, 0, 73, 64
2, 492480, Note_off_c, 0, 71, 64
2, 492480, Note_on_c, 0, 71, 100
2, 492480, Note_off_c, 0, 55, 64
2, 492480, Note_on_c, 0, 55, 100
2, 492736, Note_off_c, 0, 55, 64
2, 492736, Note_off_c, 0, 49, 64
2, 492736, Note_off_c, 0, 42, 64
2, 492736, Note_on_c, 0, 42, 100
2, 492992, Note_off_c, 0, 42, 64
2, 492992, Note_off_c, 0, 54, 64
2, 492992, Note_on_c, 0, 54, 100
2, 493120, Note_off_c, 0, 71, 64
2, 493120, Note_off_c, 0, 74, 64
2, 493120, Note_on_c, 0, 74, 100
2, 493248, Note_off_c, 0, 74, 64
2, 493248, Note_off_c, 0, 71, 64
2, 493248, Note_on_c, 0, 71, 100
2, 493248, Note_off_c, 0, 67, 64
2, 493248, Note_on_c, 0, 67, 100
2, 493248, Note_off_c, 0, 43, 64
2, 493248, Note_on_c, 0, 43, 100
2, 493248, Note_off_c, 0, 64, 64
2, 493248, Note_on_c, 0, 64, 100
2, 493376, Note_off_c, 0, 71, 64
2, 493376, Note_off_c, 0, 67, 64
2, 493376, Note_off_c, 0, 66, 64
2, 493376, Note_on_c, 0, 66, 100
2, 493504, Note_off_c, 0, 66, 64
2, 493504, Note_off_c, 0, 64, 64
2, 493504, Note_on_c, 0, 64, 100
2, 493504, Note_off_c, 0, 43, 64
2, 493504, Note_off_c, 0, 78, 64
2, 493504, Note_on_c, 0, 78, 100
2, 493504, Note_off_c, 0, 59, 64
2, 493504, Note_on_c, 0, 59, 100
2, 493760, Note_off_c, 0, 59, 64
2, 493760, Note_on_c, 0, 59, 100
2, 493760, Note_off_c, 0, 59, 64
2, 493888, Note_on_c, 0, 59, 100
2, 493888, Note_off_c, 0, 64, 64
2, 493888, Note_off_c, 0, 54, 64
2, 494016, Note_off_c, 0, 78, 64
2, 494016, Note_off_c, 0, 76, 64
2, 494016, Note_on_c, 0, 76, 100
2, 494016, Note_on_c, 0, 71, 100
2, 494016, Note_off_c, 0, 67, 64
2, 494016, Note_on_c, 0, 67, 100
2, 494016, Note_off_c, 0, 55, 64
2, 494016, Note_on_c, 0, 55, 100
2, 494016, Note_off_c, 0, 71, 64
2, 494016, Note_on_c, 0, 71, 100
2, 494016, Note_off_c, 0, 64, 64
2, 494016, Note_on_c, 0, 64, 100
2, 494016, Note_off_c, 0, 52, 64
2, 494016, Note_on_c, 0, 52, 100
2, 494144, Note_off_c, 0, 76, 64
2, 494144, Note_off_c, 0, 71, 64
2, 494144, Note_on_c, 0, 71, 100
2, 494272, Note_off_c, 0, 71, 64
2, 494272, Note_off_c, 0, 55, 64
2, 494272, Note_off_c, 0, 64, 64
2, 494272, Note_off_c, 0, 67, 64
2, 494272, Note_off_c, 0, 52, 64
2, 494400, Note_off_c, 0, 76, 64
2, 494400, Note_on_c, 0, 76, 100
2, 494400, Note_off_c, 0, 79, 64
2, 494400, Note_on_c, 0, 79, 100
2, 494400, Note_on_c, 0, 64, 100
2, 494400, Note_off_c, 0, 67, 64
2, 494400, Note_on_c, 0, 67, 100
2, 494528, Note_off_c, 0, 79, 64
2, 494528, Note_off_c, 0, 67, 64
2, 494528, Note_off_c, 0, 76, 64
2, 494528, Note_off_c, 0, 64, 64
2, 494528, Note_off_c, 0, 78, 64
2, 494528, Note_on_c, 0, 78, 100
2, 494528, Note_off_c, 0, 50, 64
2, 494528, Note_on_c, 0, 50, 100
2, 494528, Note_off_c, 0, 62, 64
2, 494528, Note_on_c, 0, 62, 100
2, 494656, Note_off_c, 0, 78, 64
2, 494656, Note_off_c, 0, 79, 64
2, 494656, Note_on_c, 0, 79, 100
2, 494784, Note_off_c, 0, 50, 64
2, 494784, Note_off_c, 0, 62, 64
2, 494784, Note_off_c, 0, 79, 64
2, 494784, Note_off_c, 0, 81, 64
2, 494784, Note_on_c, 0, 81, 100
2, 494784, Note_off_c, 0, 52, 64
2, 494784, Note_on_c, 0, 52, 100
2, 494912, Note_off_c, 0, 81, 64
2, 494912, Note_off_c, 0, 79, 64
2, 494912, Note_on_c, 0, 79, 100
2, 495040, Note_off_c, 0, 79, 64
2, 495040, Note_off_c, 0, 52, 64
2, 495040, Note_on_c, 0, 78, 100
2, 495040, Note_on_c, 0, 79, 100
2, 495040, Note_on_c, 0, 62, 100
2, 495040, Note_off_c, 0, 62, 64
2, 495040, Note_on_c, 0, 62, 100
2, 495168, Note_off_c, 0, 78, 64
2, 495168, Note_off_c, 0, 76, 64
2, 495168, Note_on_c, 0, 76, 100
2, 495296, Note_off_c, 0, 76, 64
2, 495296, Note_off_c, 0, 62, 64
2, 495296, Note_off_c, 0, 78, 64
2, 495296, Note_on_c, 0, 78, 100
2, 495296, Note_on_c, 0, 62, 100
2, 495296, Note_off_c, 0, 62, 64
2, 495296, Note_off_c, 0, 50, 64
2, 495296, Note_on_c, 0, 50, 100
2, 495296, Note_off_c, 0, 69, 64
2, 495296, Note_on_c, 0, 69, 100
2, 495424, Note_off_c, 0, 78, 64
2, 495424, Note_off_c, 0, 79, 64
2, 495424, Note_on_c, 0, 79, 100
2, 495552, Note_off_c, 0, 79, 64
2, 495552, Note_off_c, 0, 69, 64
2, 495552, Note_on_c, 0, 62, 100
2, 495552, Note_off_c, 0, 50, 64
2, 495552, Note_off_c, 0, 78, 64
2, 495552, Note_on_c, 0, 78, 100
2, 495552, Note_on_c, 0, 69, 100
2, 495552, Note_off_c, 0, 69, 64
2, 495552, Note_off_c, 0, 45, 64
2, 495552, Note_on_c, 0, 45, 100
2, 495552, Note_off_c, 0, 66, 64
2, 495552, Note_on_c, 0, 66, 100
2, 495552, Note_off_c, 0, 62, 64
2, 495552, Note_on_c, 0, 62, 100
2, 495680, Note_on_c, 0, 69, 100
2, 495680, Note_off_c, 0, 78, 64
2, 495680, Note_off_c, 0, 79, 64
2, 495680, Note_on_c, 0, 79, 100
2, 495808, Note_off_c, 0, 79, 64
2, 495808, Note_off_c, 0, 45, 64
2, 495808, Note_off_c, 0, 66, 64
2, 495808, Note_off_c, 0, 62, 64
2, 495808, Note_off_c, 0, 81, 64
2, 495808, Note_on_c, 0, 81, 100
2, 495808, Note_off_c, 0, 59, 64
2, 495808, Note_on_c, 0, 59, 100
2, 495808, Note_off_c, 0, 74, 64
2, 495808, Note_on_c, 0, 74, 100
2, 495808, Note_off_c, 0, 54, 64
2, 495808, Note_on_c, 0, 54, 100
2, 495936, Note_off_c, 0, 74, 64
2, 495936, Note_off_c, 0, 81, 64
2, 495936, Note_on_c, 0, 81, 100
2, 496064, Note_off_c, 0, 81, 64
2, 496064, Note_off_c, 0, 59, 64
2, 496064, Note_off_c, 0, 54, 64
2, 496064, Note_off_c, 0, 79, 64
2, 496064, Note_on_c, 0, 79, 100
2, 496064, Note_off_c, 0, 76, 64
2, 496064, Note_on_c, 0, 76, 100
2, 496064, Note_off_c, 0, 55, 64
2, 496064, Note_on_c, 0, 55, 100
2, 496064, Note_off_c, 0, 61, 64
2, 496064, Note_on_c, 0, 61, 100
2, 496192, Note_off_c, 0, 76, 64
2, 496192, Note_off_c, 0, 79, 64
2, 496192, Note_on_c, 0, 79, 100
2, 496320, Note_off_c, 0, 61, 64
2, 496320, Note_off_c, 0, 55, 64
2, 496320, Note_off_c, 0, 79, 64
2, 496320, Note_off_c, 0, 78, 64
2, 496320, Note_on_c, 0, 78, 100
2, 496320, Note_off_c, 0, 76, 64
2, 496320, Note_on_c, 0, 76, 100
2, 496320, Note_on_c, 0, 74, 100
2, 496320, Note_off_c, 0, 45, 64
2, 496320, Note_on_c, 0, 45, 100
2, 496320, Note_on_c, 0, 73, 100
2, 496320, Note_off_c, 0, 73, 64
2, 496320, Note_on_c, 0, 73, 100
2, 496320, Note_off_c, 0, 73, 64
2, 496448, Note_off_c, 0, 78, 64
2, 496448, Note_off_c, 0, 76, 64
2, 496448, Note_on_c, 0, 73, 100
2, 496576, Note_on_c, 0, 76, 100
2, 496576, Note_on_c, 0, 57, 100
2, 496576, Note_off_c, 0, 45, 64
2, 496576, Note_off_c, 0, 74, 64
2, 496576, Note_on_c, 0, 74, 100
2, 496576, Note_off_c, 0, 66, 64
2, 496576, Note_on_c, 0, 66, 100
2, 496576, Note_on_c, 0, 45, 100
2, 496576, Note_off_c, 0, 55, 64
2, 496576, Note_on_c, 0, 55, 100
2, 496704, Note_off_c, 0, 74, 64
2, 496704, Note_on_c, 0, 74, 100
2, 496704, Note_off_c, 0, 73, 64
2, 496704, Note_on_c, 0, 73, 100
2, 496832, Note_off_c, 0, 66, 64
2, 496832, Note_off_c, 0, 73, 64
2, 496832, Note_off_c, 0, 74, 64
2, 496832, Note_off_c, 0, 40, 64
2, 496832, Note_on_c, 0, 74, 100
2, 496832, Note_off_c, 0, 55, 64
2, 496832, Note_on_c, 0, 55, 100
2, 496832, Note_off_c, 0, 57, 64
2, 496832, Note_on_c, 0, 57, 100
2, 496832, Note_off_c, 0, 50, 64
2, 496832, Note_on_c, 0, 50, 100
2, 496960, Note_off_c, 0, 74, 64
2, 496960, Note_off_c, 0, 76, 64
2, 496960, Note_on_c, 0, 76, 100
2, 497088, Note_off_c, 0, 76, 64
2, 497088, Note_off_c, 0, 57, 64
2, 497088, Note_off_c, 0, 55, 64
2, 497088, Note_on_c, 0, 55, 100
2, 497088, Note_off_c, 0, 64, 64
2, 497088, Note_on_c, 0, 64, 100
2, 497088, Note_off_c, 0, 74, 64
2, 497088, Note_on_c, 0, 74, 100
2, 497216, Note_off_c, 0, 74, 64
2, 497216, Note_off_c, 0, 64, 64
2, 497344, Note_off_c, 0, 64, 64
2, 497344, Note_on_c, 0, 64, 100
2, 497344, Note_off_c, 0, 55, 64
2, 497344, Note_on_c, 0, 55, 100
2, 497344, Note_off_c, 0, 50, 64
2, 497344, Note_off_c, 0, 43, 64
2, 497344, Note_on_c, 0, 43, 100
2, 497472, Note_off_c, 0, 64, 64
2, 497472, Note_off_c, 0, 62, 64
2, 497472, Note_on_c, 0, 62, 100
2, 497600, Note_off_c, 0, 62, 64
2, 497600, Note_off_c, 0, 55, 64
2, 497600, Note_on_c, 0, 54, 100
2, 497600, Note_off_c, 0, 43, 64
2, 497600, Note_on_c, 0, 43, 100
2, 497600, Note_off_c, 0, 49, 64
2, 497600, Note_on_c, 0, 49, 100
2, 497600, Note_off_c, 0, 61, 64
2, 497600, Note_on_c, 0, 61, 100
2, 497728, Note_off_c, 0, 61, 64
2, 497728, Note_off_c, 0, 69, 64
2, 497728, Note_on_c, 0, 69, 100
2, 497856, Note_off_c, 0, 69, 64
2, 497856, Note_off_c, 0, 66, 64
2, 497856, Note_on_c, 0, 66, 100
2, 497856, Note_on_c, 0, 63, 100
2, 497856, Note_on_c, 0, 64, 100
2, 497984, Note_off_c, 0, 64, 64
2, 497984, Note_off_c, 0, 66, 64
2, 497984, Note_on_c, 0, 61, 100
2, 498048, Note_on_c, 0, 66, 100
2, 498112, Note_off_c, 0, 69, 64
2, 498112, Note_on_c, 0, 69, 100
2, 498112, Note_off_c, 0, 61, 64
2, 498112, Note_on_c, 0, 61, 100
2, 498112, Note_off_c, 0, 49, 64
2, 498112, Note_off_c, 0, 61, 64
2, 498112, Note_off_c, 0, 45, 64
2, 498112, Note_on_c, 0, 45, 100
2, 498112, Note_off_c, 0, 33, 64
2, 498112, Note_off_c, 0, 67, 64
2, 498112, Note_on_c, 0, 67, 100
2, 498240, Note_off_c, 0, 67, 64
2, 498240, Note_off_c, 0, 69, 64
2, 498240, Note_on_c, 0, 69, 100
2, 498368, Note_off_c, 0, 69, 64
2, 498368, Note_on_c, 0, 61, 100
2, 498368, Note_off_c, 0, 62, 64
2, 498368, Note_on_c, 0, 62, 100
2, 498368, Note_off_c, 0, 66, 64
2, 498368, Note_on_c, 0, 66, 100
2, 498496, Note_off_c, 0, 62, 64
2, 498496, Note_off_c, 0, 66, 64
2, 498496, Note_on_c, 0, 66, 100
2, 498624, Note_off_c, 0, 66, 64
2, 498624, Note_off_c, 0, 64, 64
2, 498624, Note_on_c, 0, 64, 100
2, 498752, Note_off_c, 0, 64, 64
2, 498752, Note_off_c, 0, 69, 64
2, 498752, Note_on_c, 0, 69, 100
2, 498880, Note_off_c, 0, 69, 64
2, 498880, Note_off_c, 0, 64, 64
2, 498880, Note_on_c, 0, 64, 100
2, 498880, Note_off_c, 0, 45, 64
2, 498880, Note_off_c, 0, 49, 64
2, 498880, Note_on_c, 0, 49, 100
2, 498880, Note_off_c, 0, 61, 64
2, 498880, Note_on_c, 0, 61, 100
2, 499008, Note_off_c, 0, 64, 64
2, 499008, Note_off_c, 0, 62, 64
2, 499008, Note_on_c, 0, 62, 100
2, 499136, Note_off_c, 0, 62, 64
2, 499136, Note_off_c, 0, 61, 64
2, 499136, Note_on_c, 0, 61, 100
2, 499136, Note_off_c, 0, 61, 64
2, 499264, Note_on_c, 0, 61, 100
2, 499264, Note_off_c, 0, 62, 64
2, 499264, Note_on_c, 0, 62, 100
2, 499392, Note_off_c, 0, 62, 64
2, 499392, Note_off_c, 0, 64, 64
2, 499392, Note_on_c, 0, 64, 100
2, 499520, Note_off_c, 0, 64, 64
2, 499520, Note_off_c, 0, 66, 64
2, 499520, Note_on_c, 0, 66, 100
2, 499648, Note_off_c, 0, 66, 64
2, 499648, Note_off_c, 0, 67, 64
2, 499648, Note_on_c, 0, 67, 100
2, 499776, Note_off_c, 0, 67, 64
2, 499776, Note_off_c, 0, 66, 64
2, 499776, Note_on_c, 0, 66, 100
2, 499904, Note_off_c, 0, 66, 64
2, 499904, Note_off_c, 0, 67, 64
2, 499904, Note_on_c, 0, 67, 100
2, 500032, Note_off_c, 0, 67, 64
2, 500032, Note_off_c, 0, 69, 64
2, 500032, Note_on_c, 0, 69, 100
2, 500160, Note_off_c, 0, 69, 64
2, 500160, Note_off_c, 0, 67, 64
2, 500160, Note_on_c, 0, 67, 100
2, 500160, Note_off_c, 0, 47, 64
2, 500160, Note_off_c, 0, 49, 64
2, 500160, Note_on_c, 0, 49, 100
2, 500288, Note_off_c, 0, 67, 64
2, 500288, Note_off_c, 0, 71, 64
2, 500288, Note_on_c, 0, 71, 100
2, 500416, Note_off_c, 0, 71, 64
2, 500416, Note_off_c, 0, 67, 64
2, 500416, Note_on_c, 0, 67, 100
2, 500544, Note_off_c, 0, 67, 64
2, 500544, Note_off_c, 0, 71, 64
2, 500544, Note_on_c, 0, 71, 100
2, 500672, Note_off_c, 0, 71, 64
2, 500672, Note_off_c, 0, 62, 64
2, 500672, Note_on_c, 0, 62, 100
2, 500672, Note_off_c, 0, 37, 64
2, 500672, Note_on_c, 0, 37, 100
2, 500672, Note_off_c, 0, 49, 64
2, 500672, Note_on_c, 0, 49, 100
2, 500672, Note_off_c, 0, 50, 64
2, 500672, Note_on_c, 0, 50, 100
2, 500800, Note_off_c, 0, 62, 64
2, 500800, Note_off_c, 0, 67, 64
2, 500800, Note_on_c, 0, 67, 100
2, 500928, Note_off_c, 0, 67, 64
2, 500928, Note_off_c, 0, 66, 64
2, 500928, Note_on_c, 0, 66, 100
2, 500928, Note_off_c, 0, 57, 64
2, 500928, Note_on_c, 0, 57, 100
2, 501056, Note_off_c, 0, 66, 64
2, 501056, Note_off_c, 0, 67, 64
2, 501056, Note_on_c, 0, 67, 100
2, 501184, Note_off_c, 0, 67, 64
2, 501184, Note_off_c, 0, 57, 64
2, 501184, Note_off_c, 0, 50, 64
2, 501184, Note_on_c, 0, 50, 100
2, 501184, Note_off_c, 0, 47, 64
2, 501184, Note_on_c, 0, 47, 100
2, 501184, Note_off_c, 0, 35, 64
2, 501184, Note_on_c, 0, 35, 100
2, 501312, Note_off_c, 0, 47, 64
2, 501312, Note_off_c, 0, 50, 64
2, 501312, Note_on_c, 0, 50, 100
2, 501312, Note_off_c, 0, 35, 64
2, 501312, Note_on_c, 0, 35, 100
2, 501440, Note_off_c, 0, 50, 64
2, 501440, Note_off_c, 0, 43, 64
2, 501440, Note_on_c, 0, 43, 100
2, 501440, Note_off_c, 0, 43, 64
2, 501568, Note_off_c, 0, 71, 64
2, 501568, Note_on_c, 0, 71, 100
2, 501696, Note_off_c, 0, 71, 64
2, 501696, Note_off_c, 0, 67, 64
2, 501696, Note_on_c, 0, 67, 100
2, 501824, Note_off_c, 0, 67, 64
2, 501824, Note_off_c, 0, 66, 64
2, 501824, Note_on_c, 0, 66, 100
2, 501952, Note_off_c, 0, 66, 64
2, 501952, Note_off_c, 0, 64, 64
2, 501952, Note_on_c, 0, 64, 100
2, 501952, Note_on_c, 0, 43, 100
2, 501952, Note_off_c, 0, 52, 64
2, 501952, Note_on_c, 0, 52, 100
2, 502080, Note_off_c, 0, 64, 64
2, 502080, Note_off_c, 0, 66, 64
2, 502080, Note_on_c, 0, 66, 100
2, 502208, Note_off_c, 0, 66, 64
2, 502208, Note_off_c, 0, 67, 64
2, 502208, Note_on_c, 0, 67, 100
2, 502208, Note_off_c, 0, 52, 64
2, 502208, Note_off_c, 0, 51, 64
2, 502208, Note_on_c, 0, 51, 100
2, 502336, Note_off_c, 0, 67, 64
2, 502336, Note_on_c, 0, 52, 100
2, 502336, Note_off_c, 0, 49, 64
2, 502464, Note_on_c, 0, 49, 100
2, 502464, Note_off_c, 0, 51, 64
2, 502464, Note_on_c, 0, 51, 100
2, 502592, Note_off_c, 0, 51, 64
2, 502592, Note_off_c, 0, 59, 64
2, 502592, Note_on_c, 0, 59, 100
2, 502720, Note_off_c, 0, 59, 64
2, 502720, Note_on_c, 0, 51, 100
2, 502720, Note_off_c, 0, 51, 64
2, 502720, Note_on_c, 0, 51, 100
2, 502720, Note_on_c, 0, 47, 100
2, 502848, Note_off_c, 0, 75, 64
2, 502848, Note_on_c, 0, 75, 100
2, 502848, Note_off_c, 0, 75, 64
2, 502976, Note_on_c, 0, 75, 100
2, 502976, Note_off_c, 0, 72, 64
2, 502976, Note_on_c, 0, 72, 100
2, 503104, Note_off_c, 0, 72, 64
2, 503104, Note_off_c, 0, 71, 64
2, 503104, Note_on_c, 0, 71, 100
2, 503232, Note_off_c, 0, 71, 64
2, 503232, Note_off_c, 0, 69, 64
2, 503232, Note_on_c, 0, 69, 100
2, 503232, Note_off_c, 0, 47, 64
2, 503232, Note_off_c, 0, 54, 64
2, 503232, Note_on_c, 0, 54, 100
2, 503360, Note_off_c, 0, 69, 64
2, 503360, Note_off_c, 0, 84, 64
2, 503360, Note_on_c, 0, 84, 100
2, 503488, Note_off_c, 0, 84, 64
2, 503488, Note_off_c, 0, 81, 64
2, 503488, Note_on_c, 0, 81, 100
2, 503488, Note_off_c, 0, 66, 64
2, 503488, Note_on_c, 0, 66, 100
2, 503616, Note_off_c, 0, 81, 64
2, 503616, Note_off_c, 0, 79, 64
2, 503616, Note_on_c, 0, 79, 100
2, 503744, Note_off_c, 0, 79, 64
2, 503744, Note_off_c, 0, 66, 64
2, 503744, Note_off_c, 0, 78, 64
2, 503744, Note_on_c, 0, 78, 100
2, 503744, Note_off_c, 0, 83, 64
2, 503744, Note_on_c, 0, 83, 100
2, 503744, Note_off_c, 0, 49, 64
2, 503744, Note_off_c, 0, 52, 64
2, 503744, Note_off_c, 0, 54, 64
2, 503872, Note_off_c, 0, 78, 64
2, 503872, Note_off_c, 0, 76, 64
2, 503872, Note_on_c, 0, 76, 100
2, 504000, Note_off_c, 0, 76, 64
2, 504000, Note_off_c, 0, 83, 64
2, 504000, Note_on_c, 0, 83, 100
2, 504128, Note_off_c, 0, 83, 64
2, 504128, Note_off_c, 0, 81, 64
2, 504128, Note_on_c, 0, 81, 100
2, 504256, Note_off_c, 0, 81, 64
2, 504256, Note_off_c, 0, 71, 64
2, 504256, Note_on_c, 0, 71, 100
2, 504256, Note_on_c, 0, 52, 100
2, 504256, Note_off_c, 0, 54, 64
2, 504256, Note_on_c, 0, 54, 100
2, 504256, Note_off_c, 0, 49, 64
2, 504256, Note_on_c, 0, 49, 100
2, 504384, Note_off_c, 0, 71, 64
2, 504384, Note_off_c, 0, 70, 64
2, 504384, Note_on_c, 0, 70, 100
2, 504512, Note_off_c, 0, 70, 64
2, 504512, Note_off_c, 0, 74, 64
2, 504512, Note_on_c, 0, 74, 100
2, 504640, Note_off_c, 0, 74, 64
2, 504640, Note_off_c, 0, 66, 64
2, 504640, Note_on_c, 0, 66, 100
2, 504768, Note_off_c, 0, 61, 64
2, 504768, Note_on_c, 0, 58, 100
2, 504768, Note_off_c, 0, 54, 64
2, 504768, Note_off_c, 0, 49, 64
2, 504768, Note_off_c, 0, 51, 64
2, 504768, Note_on_c, 0, 51, 100
2, 504896, Note_off_c, 0, 66, 64
2, 504896, Note_off_c, 0, 67, 64
2, 504896, Note_on_c, 0, 67, 100
2, 505024, Note_off_c, 0, 67, 64
2, 505024, Note_off_c, 0, 66, 64
2, 505024, Note_on_c, 0, 66, 100
2, 505152, Note_off_c, 0, 66, 64
2, 505152, Note_off_c, 0, 64, 64
2, 505152, Note_on_c, 0, 64, 100
2, 505280, Note_off_c, 0, 54, 64
2, 505280, Note_on_c, 0, 54, 100
2, 505280, Note_off_c, 0, 51, 64
2, 505280, Note_off_c, 0, 63, 64
2, 505280, Note_off_c, 0, 73, 64
2, 505280, Note_on_c, 0, 73, 100
2, 505280, Note_off_c, 0, 66, 64
2, 505280, Note_on_c, 0, 66, 100
2, 505280, Note_off_c, 0, 52, 64
2, 505280, Note_off_c, 0, 58, 64
2, 505280, Note_on_c, 0, 58, 100
2, 505280, Note_off_c, 0, 58, 64
2, 505408, Note_off_c, 0, 73, 64
2, 505408, Note_off_c, 0, 70, 64
2, 505408, Note_on_c, 0, 70, 100
2, 505536, Note_off_c, 0, 70, 64
2, 505536, Note_off_c, 0, 73, 64
2, 505536, Note_on_c, 0, 73, 100
2, 505664, Note_off_c, 0, 73, 64
2, 505664, Note_off_c, 0, 71, 64
2, 505664, Note_on_c, 0, 71, 100
2, 505792, Note_off_c, 0, 70, 64
2, 505792, Note_on_c, 0, 70, 100
2, 505792, Note_off_c, 0, 71, 64
2, 505792, Note_off_c, 0, 54, 64
2, 505792, Note_on_c, 0, 54, 100
2, 505792, Note_off_c, 0, 66, 64
2, 505792, Note_on_c, 0, 66, 100
2, 506048, Note_off_c, 0, 75, 64
2, 506048, Note_on_c, 0, 75, 100
2, 506048, Note_off_c, 0, 66, 64
2, 506048, Note_off_c, 0, 64, 64
2, 506048, Note_off_c, 0, 54, 64
2, 506048, Note_on_c, 0, 54, 100
2, 506176, Note_off_c, 0, 75, 64
2, 506176, Note_on_c, 0, 75, 100
2, 506176, Note_off_c, 0, 75, 64
2, 506304, Note_on_c, 0, 75, 100
2, 506304, Note_off_c, 0, 73, 64
2, 506304, Note_on_c, 0, 73, 100
2, 506304, Note_off_c, 0, 54, 64
2, 506304, Note_off_c, 0, 47, 64
2, 506304, Note_on_c, 0, 47, 100
2, 506432, Note_off_c, 0, 73, 64
2, 506432, Note_off_c, 0, 71, 64
2, 506432, Note_on_c, 0, 71, 100
2, 506560, Note_off_c, 0, 71, 64
2, 506560, Note_on_c, 0, 64, 100
2, 506560, Note_on_c, 0, 63, 100
2, 506688, Note_off_c, 0, 63, 64
2, 506688, Note_off_c, 0, 71, 64
2, 506688, Note_on_c, 0, 71, 100
2, 506816, Note_on_c, 0, 59, 100
2, 506816, Note_on_c, 0, 49, 100
2, 506816, Note_off_c, 0, 47, 64
2, 506816, Note_off_c, 0, 71, 64
2, 506816, Note_on_c, 0, 71, 100
2, 506816, Note_on_c, 0, 61, 100
2, 506816, Note_on_c, 0, 57, 100
2, 506944, Note_off_c, 0, 71, 64
2, 506944, Note_off_c, 0, 73, 64
2, 506944, Note_on_c, 0, 73, 100
2, 507072, Note_off_c, 0, 73, 64
2, 507072, Note_on_c, 0, 63, 100
2, 507072, Note_off_c, 0, 63, 64
2, 507072, Note_on_c, 0, 47, 100
2, 507072, Note_off_c, 0, 47, 64
2, 507072, Note_on_c, 0, 47, 100
2, 507072, Note_on_c, 0, 63, 100
2, 507200, Note_off_c, 0, 75, 64
2, 507200, Note_on_c, 0, 75, 100
2, 507200, Note_off_c, 0, 75, 64
2, 507328, Note_off_c, 0, 63, 64
2, 507328, Note_off_c, 0, 64, 64
2, 507328, Note_off_c, 0, 75, 64
2, 507328, Note_on_c, 0, 75, 100
2, 507328, Note_off_c, 0, 59, 64
2, 507328, Note_on_c, 0, 59, 100
2, 507328, Note_off_c, 0, 49, 64
2, 507328, Note_off_c, 0, 54, 64
2, 507328, Note_on_c, 0, 54, 100
2, 507328, Note_off_c, 0, 57, 64
2, 507456, Note_off_c, 0, 75, 64
2, 507456, Note_off_c, 0, 78, 64
2, 507456, Note_on_c, 0, 78, 100
2, 507584, Note_off_c, 0, 78, 64
2, 507584, Note_off_c, 0, 80, 64
2, 507584, Note_on_c, 0, 80, 100
2, 507712, Note_off_c, 0, 80, 64
2, 507712, Note_off_c, 0, 81, 64
2, 507712, Note_on_c, 0, 81, 100
2, 507840, Note_off_c, 0, 81, 64
2, 507840, Note_off_c, 0, 83, 64
2, 507840, Note_on_c, 0, 83, 100
2, 507840, Note_off_c, 0, 54, 64
2, 507840, Note_off_c, 0, 51, 64
2, 507840, Note_on_c, 0, 51, 100
2, 507840, Note_on_c, 0, 63, 100
2, 507840, Note_off_c, 0, 64, 64
2, 507840, Note_on_c, 0, 64, 100
2, 508096, Note_off_c, 0, 83, 64
2, 508096, Note_off_c, 0, 81, 64
2, 508096, Note_on_c, 0, 81, 100
2, 508096, Note_off_c, 0, 76, 64
2, 508096, Note_on_c, 0, 76, 100
2, 508096, Note_on_c, 0, 52, 100
2, 508096, Note_off_c, 0, 49, 64
2, 508096, Note_on_c, 0, 49, 100
2, 508224, Note_off_c, 0, 81, 64
2, 508224, Note_off_c, 0, 83, 64
2, 508224, Note_on_c, 0, 83, 100
2, 508352, Note_off_c, 0, 83, 64
2, 508352, Note_off_c, 0, 81, 64
2, 508352, Note_on_c, 0, 81, 100
2, 508352, Note_off_c, 0, 64, 64
2, 508352, Note_off_c, 0, 66, 64
2, 508352, Note_on_c, 0, 66, 100
2, 508352, Note_off_c, 0, 49, 64
2, 508480, Note_on_c, 0, 80, 100
2, 508480, Note_off_c, 0, 81, 64
2, 508480, Note_on_c, 0, 81, 100
2, 508544, Note_off_c, 0, 80, 64
2, 508608, Note_off_c, 0, 81, 64
2, 508608, Note_on_c, 0, 81, 100
2, 508608, Note_off_c, 0, 66, 64
2, 508608, Note_on_c, 0, 66, 100
2, 508608, Note_off_c, 0, 51, 64
2, 508608, Note_on_c, 0, 51, 100
2, 508608, Note_off_c, 0, 47, 64
2, 508608, Note_on_c, 0, 47, 100
2, 508608, Note_off_c, 0, 59, 64
2, 508608, Note_on_c, 0, 59, 100
2, 508736, Note_off_c, 0, 51, 64
2, 508736, Note_off_c, 0, 52, 64
2, 508736, Note_on_c, 0, 52, 100
2, 508864, Note_on_c, 0, 83, 100
2, 508864, Note_off_c, 0, 81, 64
2, 508864, Note_on_c, 0, 81, 100
2, 508864, Note_on_c, 0, 80, 100
2, 508864, Note_off_c, 0, 81, 64
2, 508864, Note_off_c, 0, 61, 64
2, 508864, Note_off_c, 0, 49, 64
2, 508864, Note_on_c, 0, 51, 100
2, 508864, Note_on_c, 0, 49, 100
2, 508992, Note_on_c, 0, 81, 100
2, 508992, Note_off_c, 0, 80, 64
2, 508992, Note_on_c, 0, 80, 100
2, 509120, Note_off_c, 0, 80, 64
2, 509120, Note_off_c, 0, 81, 64
2, 509120, Note_on_c, 0, 81, 100
2, 509376, Note_on_c, 0, 75, 100
2, 509376, Note_off_c, 0, 78, 64
2, 509376, Note_on_c, 0, 78, 100
2, 509376, Note_off_c, 0, 49, 64
2, 509376, Note_off_c, 0, 50, 64
2, 509376, Note_on_c, 0, 50, 100
2, 509504, Note_off_c, 0, 50, 64
2, 509504, Note_off_c, 0, 52, 64
2, 509504, Note_on_c, 0, 52, 100
2, 509632, Note_off_c, 0, 52, 64
2, 509632, Note_off_c, 0, 50, 64
2, 509632, Note_on_c, 0, 50, 100
2, 509760, Note_off_c, 0, 50, 64
2, 509760, Note_off_c, 0, 49, 64
2, 509760, Note_on_c, 0, 49, 100
2, 509888, Note_off_c, 0, 49, 64
2, 509888, Note_off_c, 0, 51, 64
2, 509888, Note_on_c, 0, 51, 100
2, 510016, Note_off_c, 0, 51, 64
2, 510016, Note_off_c, 0, 49, 64
2, 510016, Note_on_c, 0, 49, 100
2, 510144, Note_off_c, 0, 66, 64
2, 510144, Note_on_c, 0, 66, 100
2, 510144, Note_off_c, 0, 81, 64
2, 510144, Note_off_c, 0, 78, 64
2, 510144, Note_on_c, 0, 51, 100
2, 510144, Note_off_c, 0, 76, 64
2, 510144, Note_on_c, 0, 76, 100
2, 510144, Note_off_c, 0, 49, 64
2, 510144, Note_off_c, 0, 47, 64
2, 510144, Note_on_c, 0, 47, 100
2, 510272, Note_off_c, 0, 47, 64
2, 510272, Note_off_c, 0, 49, 64
2, 510272, Note_on_c, 0, 49, 100
2, 510400, Note_off_c, 0, 49, 64
2, 510400, Note_off_c, 0, 47, 64
2, 510400, Note_on_c, 0, 47, 100
2, 510528, Note_off_c, 0, 47, 64
2, 510528, Note_off_c, 0, 45, 64
2, 510528, Note_on_c, 0, 45, 100
2, 510656, Note_off_c, 0, 76, 64
2, 510656, Note_off_c, 0, 73, 64
2, 510656, Note_on_c, 0, 73, 100
2, 510656, Note_off_c, 0, 45, 64
2, 510656, Note_off_c, 0, 47, 64
2, 510656, Note_on_c, 0, 47, 100
2, 510784, Note_on_c, 0, 49, 100
2, 510784, Note_off_c, 0, 47, 64
2, 510912, Note_on_c, 0, 47, 100
2, 510912, Note_off_c, 0, 73, 64
2, 510912, Note_on_c, 0, 69, 100
2, 510912, Note_off_c, 0, 63, 64
2, 510912, Note_on_c, 0, 64, 100
2, 510912, Note_off_c, 0, 49, 64
2, 510912, Note_off_c, 0, 51, 64
2, 511040, Note_on_c, 0, 49, 100
2, 511040, Note_on_c, 0, 51, 100
2, 511168, Note_off_c, 0, 51, 64
2, 511168, Note_on_c, 0, 51, 100
2, 511168, Note_off_c, 0, 51, 64
2, 511296, Note_on_c, 0, 51, 100
2, 511296, Note_off_c, 0, 48, 64
2, 511296, Note_on_c, 0, 48, 100
2, 511424, Note_off_c, 0, 48, 64
2, 511424, Note_off_c, 0, 69, 64
2, 511424, Note_on_c, 0, 69, 100
2, 511424, Note_off_c, 0, 69, 64
2, 511424, Note_on_c, 0, 63, 100
2, 511424, Note_off_c, 0, 52, 64
2, 511424, Note_on_c, 0, 52, 100
2, 511552, Note_off_c, 0, 52, 64
2, 511552, Note_off_c, 0, 50, 64
2, 511552, Note_on_c, 0, 50, 100
2, 511680, Note_off_c, 0, 50, 64
2, 511680, Note_on_c, 0, 69, 100
2, 511680, Note_off_c, 0, 52, 64
2, 511680, Note_on_c, 0, 52, 100
2, 511680, Note_off_c, 0, 51, 64
2, 511680, Note_on_c, 0, 51, 100
2, 511808, Note_off_c, 0, 51, 64
2, 511808, Note_off_c, 0, 52, 64
2, 511808, Note_on_c, 0, 52, 100
2, 511936, Note_off_c, 0, 52, 64
2, 511936, Note_off_c, 0, 54, 64
2, 511936, Note_on_c, 0, 54, 100
2, 512064, Note_off_c, 0, 54, 64
2, 512064, Note_on_c, 0, 54, 100
2, 512064, Note_off_c, 0, 54, 64
2, 512064, Note_off_c, 0, 51, 64
2, 512064, Note_on_c, 0, 51, 100
2, 512192, Note_off_c, 0, 51, 64
2, 512192, Note_on_c, 0, 54, 100
2, 512192, Note_off_c, 0, 54, 64
2, 512192, Note_on_c, 0, 54, 100
2, 512192, Note_off_c, 0, 52, 64
2, 512192, Note_on_c, 0, 52, 100
2, 512448, Note_off_c, 0, 54, 64
2, 512448, Note_on_c, 0, 50, 100
2, 512448, Note_on_c, 0, 51, 100
2, 512576, Note_off_c, 0, 51, 64
2, 512576, Note_off_c, 0, 50, 64
2, 512576, Note_on_c, 0, 50, 100
2, 512704, Note_off_c, 0, 50, 64
2, 512704, Note_off_c, 0, 68, 64
2, 512704, Note_on_c, 0, 68, 100
2, 512704, Note_on_c, 0, 51, 100
2, 512704, Note_off_c, 0, 52, 64
2, 512704, Note_on_c, 0, 52, 100
2, 512768, Note_off_c, 0, 68, 64
2, 512768, Note_off_c, 0, 71, 64
2, 512768, Note_on_c, 0, 71, 100
2, 512832, Note_off_c, 0, 71, 64
2, 512832, Note_off_c, 0, 68, 64
2, 512832, Note_on_c, 0, 68, 100
2, 512832, Note_off_c, 0, 52, 64
2, 512832, Note_off_c, 0, 47, 64
2, 512832, Note_on_c, 0, 47, 100
2, 512960, Note_off_c, 0, 68, 64
2, 512960, Note_off_c, 0, 71, 64
2, 512960, Note_on_c, 0, 71, 100
2, 512960, Note_off_c, 0, 47, 64
2, 512960, Note_off_c, 0, 50, 64
2, 512960, Note_on_c, 0, 50, 100
2, 513024, Note_off_c, 0, 71, 64
2, 513024, Note_off_c, 0, 54, 64
2, 513024, Note_on_c, 0, 54, 100
2, 513088, Note_off_c, 0, 71, 64
2, 513088, Note_on_c, 0, 71, 100
2, 513088, Note_off_c, 0, 50, 64
2, 513088, Note_on_c, 0, 50, 100
2, 513216, Note_off_c, 0, 54, 64
2, 513216, Note_off_c, 0, 50, 64
2, 513216, Note_off_c, 0, 38, 64
2, 513216, Note_on_c, 0, 38, 100
2, 513216, Note_off_c, 0, 59, 64
2, 513216, Note_on_c, 0, 59, 100
2, 513216, Note_off_c, 0, 66, 64
2, 513216, Note_on_c, 0, 66, 100
2, 513216, Note_off_c, 0, 52, 64
2, 513216, Note_on_c, 0, 52, 100
2, 513344, Note_on_c, 0, 61, 100
2, 513344, Note_off_c, 0, 59, 64
2, 513344, Note_on_c, 0, 59, 100
2, 513344, Note_off_c, 0, 52, 64
2, 513472, Note_off_c, 0, 59, 64
2, 513472, Note_off_c, 0, 52, 64
2, 513472, Note_off_c, 0, 71, 64
2, 513472, Note_off_c, 0, 66, 64
2, 513472, Note_on_c, 0, 66, 100
2, 513472, Note_on_c, 0, 52, 100
2, 513472, Note_off_c, 0, 50, 64
2, 513472, Note_on_c, 0, 50, 100
2, 513472, Note_on_c, 0, 57, 100
2, 513472, Note_off_c, 0, 76, 64
2, 513472, Note_on_c, 0, 76, 100
2, 513600, Note_off_c, 0, 57, 64
2, 513600, Note_off_c, 0, 52, 64
2, 513600, Note_off_c, 0, 76, 64
2, 513600, Note_off_c, 0, 66, 64
2, 513600, Note_off_c, 0, 69, 64
2, 513600, Note_on_c, 0, 69, 100
2, 513600, Note_off_c, 0, 49, 64
2, 513600, Note_on_c, 0, 49, 100
2, 513600, Note_off_c, 0, 64, 64
2, 513600, Note_on_c, 0, 64, 100
2, 513600, Note_off_c, 0, 61, 64
2, 513600, Note_on_c, 0, 61, 100
2, 513728, Note_on_c, 0, 57, 100
2, 513728, Note_off_c, 0, 69, 64
2, 513728, Note_off_c, 0, 64, 64
2, 513728, Note_off_c, 0, 61, 64
2, 513728, Note_off_c, 0, 52, 64
2, 513728, Note_on_c, 0, 52, 100
2, 513728, Note_off_c, 0, 80, 64
2, 513728, Note_on_c, 0, 80, 100
2, 513728, Note_on_c, 0, 59, 100
2, 513728, Note_off_c, 0, 59, 64
2, 513728, Note_off_c, 0, 50, 64
2, 513728, Note_on_c, 0, 50, 100
2, 513728, Note_off_c, 0, 50, 64
2, 513728, Note_on_c, 0, 59, 100
2, 513728, Note_off_c, 0, 59, 64
2, 513728, Note_on_c, 0, 62, 100
2, 513728, Note_off_c, 0, 71, 64
2, 513728, Note_on_c, 0, 71, 100
2, 513856, Note_on_c, 0, 50, 100
2, 513856, Note_off_c, 0, 81, 64
2, 513856, Note_on_c, 0, 81, 100
2, 513856, Note_off_c, 0, 80, 64
2, 513856, Note_off_c, 0, 52, 64
2, 513856, Note_on_c, 0, 52, 100
2, 513984, Note_off_c, 0, 81, 64
2, 513984, Note_on_c, 0, 59, 100
2, 513984, Note_on_c, 0, 76, 100
2, 513984, Note_off_c, 0, 76, 64
2, 513984, Note_off_c, 0, 52, 64
2, 513984, Note_on_c, 0, 76, 100
2, 513984, Note_off_c, 0, 76, 64
2, 513984, Note_on_c, 0, 74, 100
2, 513984, Note_off_c, 0, 56, 64
2, 514112, Note_off_c, 0, 74, 64
2, 514112, Note_on_c, 0, 56, 100
2, 514112, Note_on_c, 0, 76, 100
2, 514112, Note_off_c, 0, 73, 64
2, 514112, Note_on_c, 0, 73, 100
2, 514112, Note_off_c, 0, 81, 64
2, 514112, Note_on_c, 0, 81, 100
2, 514112, Note_on_c, 0, 74, 100
2, 514112, Note_off_c, 0, 74, 64
2, 514240, Note_on_c, 0, 74, 100
2, 514240, Note_off_c, 0, 71, 64
2, 514240, Note_off_c, 0, 73, 64
2, 514304, Note_on_c, 0, 54, 100
2, 514304, Note_on_c, 0, 80, 100
2, 514304, Note_off_c, 0, 80, 64
2, 514304, Note_on_c, 0, 80, 100
2, 514304, Note_off_c, 0, 81, 64
2, 514304, Note_on_c, 0, 81, 100
2, 514304, Note_off_c, 0, 54, 64
2, 514304, Note_on_c, 0, 54, 100
2, 514304, Note_off_c, 0, 74, 64
2, 514304, Note_on_c, 0, 74, 100
2, 514304, Note_off_c, 0, 71, 64
2, 514304, Note_on_c, 0, 71, 100
2, 514368, Note_off_c, 0, 81, 64
2, 514368, Note_on_c, 0, 81, 100
2, 514368, Note_off_c, 0, 80, 64
2, 514368, Note_on_c, 0, 80, 100
2, 514432, Note_off_c, 0, 74, 64
2, 514432, Note_off_c, 0, 71, 64
2, 514432, Note_off_c, 0, 80, 64
2, 514432, Note_off_c, 0, 73, 64
2, 514432, Note_on_c, 0, 73, 100
2, 514432, Note_on_c, 0, 80, 100
2, 514432, Note_off_c, 0, 81, 64
2, 514432, Note_on_c, 0, 81, 100
2, 514496, Note_off_c, 0, 54, 64
2, 514496, Note_off_c, 0, 52, 64
2, 514496, Note_on_c, 0, 52, 100
2, 514496, Note_on_c, 0, 74, 100
2, 514560, Note_off_c, 0, 80, 64
2, 514560, Note_off_c, 0, 52, 64
2, 514560, Note_off_c, 0, 73, 64
2, 514560, Note_on_c, 0, 69, 100
2, 514560, Note_on_c, 0, 52, 100
2, 514560, Note_on_c, 0, 64, 100
2, 514560, Note_off_c, 0, 62, 64
2, 514560, Note_off_c, 0, 54, 64
2, 514560, Note_on_c, 0, 54, 100
2, 514688, Note_off_c, 0, 74, 64
2, 514688, Note_off_c, 0, 54, 64
2, 514688, Note_on_c, 0, 62, 100
2, 514688, Note_on_c, 0, 74, 100
2, 514688, Note_off_c, 0, 74, 64
2, 514688, Note_off_c, 0, 69, 64
2, 514688, Note_off_c, 0, 52, 64
2, 514688, Note_on_c, 0, 52, 100
2, 514688, Note_off_c, 0, 83, 64
2, 514688, Note_on_c, 0, 83, 100
2, 514688, Note_off_c, 0, 83, 64
2, 514688, Note_on_c, 0, 80, 100
2, 514688, Note_on_c, 0, 74, 100
2, 514688, Note_off_c, 0, 59, 64
2, 514688, Note_off_c, 0, 64, 64
2, 514688, Note_on_c, 0, 64, 100
2, 514816, Note_off_c, 0, 81, 64
2, 514816, Note_off_c, 0, 80, 64
2, 514816, Note_on_c, 0, 80, 100
2, 514816, Note_off_c, 0, 52, 64
2, 514816, Note_off_c, 0, 74, 64
2, 514816, Note_off_c, 0, 64, 64
2, 514816, Note_off_c, 0, 80, 64
2, 514816, Note_off_c, 0, 76, 64
2, 514816, Note_on_c, 0, 76, 100
2, 514816, Note_off_c, 0, 59, 64
2, 514816, Note_on_c, 0, 59, 100
2, 514816, Note_off_c, 0, 71, 64
2, 514816, Note_on_c, 0, 71, 100
2, 514816, Note_on_c, 0, 64, 100
2, 514816, Note_on_c, 0, 52, 100
2, 514816, Note_off_c, 0, 61, 64
2, 514816, Note_on_c, 0, 61, 100
2, 514944, Note_on_c, 0, 73, 100
2, 514944, Note_off_c, 0, 52, 64
2, 514944, Note_off_c, 0, 71, 64
2, 514944, Note_off_c, 0, 64, 64
2, 514944, Note_on_c, 0, 52, 100
2, 515072, Note_off_c, 0, 52, 64
2, 515072, Note_off_c, 0, 76, 64
2, 515072, Note_off_c, 0, 73, 64
2, 515072, Note_on_c, 0, 71, 100
2, 515072, Note_on_c, 0, 52, 100
2, 515072, Note_off_c, 0, 52, 64
2, 515072, Note_off_c, 0, 66, 64
2, 515072, Note_on_c, 0, 66, 100
2, 515072, Note_off_c, 0, 61, 64
2, 515072, Note_on_c, 0, 61, 100
2, 515200, Note_off_c, 0, 61, 64
2, 515200, Note_off_c, 0, 59, 64
2, 515200, Note_on_c, 0, 59, 100
2, 515264, Note_off_c, 0, 62, 64
2, 515264, Note_off_c, 0, 59, 64
2, 515264, Note_on_c, 0, 59, 100
2, 515264, Note_off_c, 0, 59, 64
2, 515264, Note_on_c, 0, 52, 100
2, 515328, Note_off_c, 0, 71, 64
2, 515328, Note_off_c, 0, 73, 64
2, 515328, Note_on_c, 0, 73, 100
2, 515328, Note_off_c, 0, 66, 64
2, 515328, Note_on_c, 0, 71, 100
2, 515328, Note_off_c, 0, 71, 64
2, 515328, Note_off_c, 0, 64, 64
2, 515328, Note_on_c, 0, 64, 100
2, 515328, Note_off_c, 0, 61, 64
2, 515328, Note_on_c, 0, 61, 100
2, 515328, Note_off_c, 0, 54, 64
2, 515328, Note_on_c, 0, 54, 100
2, 515456, Note_off_c, 0, 71, 64
2, 515456, Note_off_c, 0, 73, 64
2, 515456, Note_on_c, 0, 71, 100
2, 515456, Note_on_c, 0, 74, 100
2, 515520, Note_off_c, 0, 64, 64
2, 515520, Note_off_c, 0, 54, 64
2, 515520, Note_off_c, 0, 61, 64
2, 515584, Note_off_c, 0, 71, 64
2, 515584, Note_on_c, 0, 71, 100
2, 515584, Note_off_c, 0, 74, 64
2, 515584, Note_on_c, 0, 74, 100
2, 515584, Note_off_c, 0, 62, 64
2, 515584, Note_on_c, 0, 62, 100
2, 515584, Note_on_c, 0, 66, 100
2, 515584, Note_off_c, 0, 59, 64
2, 515584, Note_on_c, 0, 59, 100
2, 515584, Note_off_c, 0, 47, 64
2, 515584, Note_on_c, 0, 47, 100
2, 515712, Note_off_c, 0, 74, 64
2, 515712, Note_off_c, 0, 62, 64
2, 515712, Note_off_c, 0, 66, 64
2, 515712, Note_off_c, 0, 59, 64
2, 515712, Note_on_c, 0, 74, 100
2, 515712, Note_off_c, 0, 74, 64
2, 515776, Note_off_c, 0, 47, 64
2, 515840, Note_on_c, 0, 66, 100
2, 515840, Note_off_c, 0, 71, 64
2, 515840, Note_off_c, 0, 73, 64
2, 515840, Note_on_c, 0, 73, 100
2, 515840, Note_off_c, 0, 45, 64
2, 515840, Note_on_c, 0, 45, 100
2, 515840, Note_off_c, 0, 76, 64
2, 515840, Note_on_c, 0, 76, 100
2, 515840, Note_off_c, 0, 66, 64
2, 515840, Note_on_c, 0, 66, 100
2, 515840, Note_off_c, 0, 64, 64
2, 515840, Note_on_c, 0, 64, 100
2, 515840, Note_off_c, 0, 61, 64
2, 515840, Note_on_c, 0, 61, 100
2, 515968, Note_off_c, 0, 73, 64
2, 515968, Note_off_c, 0, 74, 64
2, 515968, Note_on_c, 0, 74, 100
2, 515968, Note_off_c, 0, 76, 64
2, 515968, Note_on_c, 0, 76, 100
2, 516032, Note_off_c, 0, 76, 64
2, 516032, Note_off_c, 0, 74, 64
2, 516032, Note_off_c, 0, 66, 64
2, 516032, Note_off_c, 0, 45, 64
2, 516096, Note_off_c, 0, 64, 64
2, 516096, Note_off_c, 0, 61, 64
2, 516096, Note_off_c, 0, 69, 64
2, 516096, Note_on_c, 0, 69, 100
2, 516096, Note_off_c, 0, 73, 64
2, 516096, Note_on_c, 0, 73, 100
2, 516096, Note_off_c, 0, 45, 64
2, 516096, Note_on_c, 0, 45, 100
2, 516096, Note_on_c, 0, 78, 100
2, 516096, Note_on_c, 0, 62, 100
2, 516096, Note_on_c, 0, 61, 100
2, 516160, Note_off_c, 0, 78, 64
2, 516160, Note_on_c, 0, 78, 100
2, 516160, Note_off_c, 0, 78, 64
2, 516224, Note_off_c, 0, 76, 64
2, 516224, Note_on_c, 0, 76, 100
2, 516224, Note_off_c, 0, 78, 64
2, 516224, Note_on_c, 0, 78, 100
2, 516288, Note_off_c, 0, 76, 64
2, 516288, Note_on_c, 0, 76, 100
2, 516288, Note_off_c, 0, 73, 64
2, 516288, Note_on_c, 0, 73, 100
2, 516352, Note_off_c, 0, 45, 64
2, 516352, Note_off_c, 0, 69, 64
2, 516352, Note_off_c, 0, 76, 64
2, 516352, Note_off_c, 0, 73, 64
2, 516352, Note_off_c, 0, 62, 64
2, 516352, Note_off_c, 0, 65, 64
2, 516352, Note_on_c, 0, 65, 100
2, 516352, Note_off_c, 0, 80, 64
2, 516352, Note_on_c, 0, 80, 100
2, 516352, Note_on_c, 0, 73, 100
2, 516352, Note_on_c, 0, 69, 100
2, 516352, Note_on_c, 0, 81, 100
2, 516352, Note_on_c, 0, 62, 100
2, 516416, Note_off_c, 0, 77, 64
2, 516416, Note_on_c, 0, 77, 100
2, 516416, Note_off_c, 0, 74, 64
2, 516416, Note_on_c, 0, 74, 100
2, 516480, Note_off_c, 0, 73, 64
2, 516480, Note_on_c, 0, 73, 100
2, 516480, Note_off_c, 0, 65, 64
2, 516480, Note_on_c, 0, 65, 100
2, 516544, Note_off_c, 0, 73, 64
2, 516544, Note_off_c, 0, 81, 64
2, 516608, Note_off_c, 0, 77, 64
2, 516608, Note_on_c, 0, 77, 100
2, 516608, Note_off_c, 0, 74, 64
2, 516608, Note_on_c, 0, 74, 100
2, 516608, Note_off_c, 0, 80, 64
2, 516608, Note_on_c, 0, 80, 100
2, 516608, Note_off_c, 0, 71, 64
2, 516608, Note_on_c, 0, 71, 100
2, 516608, Note_off_c, 0, 68, 64
2, 516608, Note_on_c, 0, 68, 100
2, 516608, Note_off_c, 0, 65, 64
2, 516608, Note_on_c, 0, 65, 100
2, 516672, Note_off_c, 0, 68, 64
2, 516672, Note_on_c, 0, 68, 100
2, 516672, Note_off_c, 0, 71, 64
2, 516736, Note_off_c, 0, 68, 64
2, 516736, Note_off_c, 0, 69, 64
2, 516736, Note_on_c, 0, 69, 100
2, 516800, Note_off_c, 0, 65, 64
2, 516800, Note_off_c, 0, 77, 64
2, 516800, Note_off_c, 0, 73, 64
2, 516800, Note_on_c, 0, 73, 100
2, 516800, Note_on_c, 0, 68, 100
2, 516800, Note_off_c, 0, 69, 64
2, 516800, Note_on_c, 0, 69, 100
2, 516864, Note_off_c, 0, 74, 64
2, 516864, Note_on_c, 0, 74, 100
2, 516864, Note_on_c, 0, 77, 100
2, 516864, Note_off_c, 0, 73, 64
2, 516864, Note_off_c, 0, 80, 64
2, 516864, Note_off_c, 0, 69, 64
2, 516864, Note_on_c, 0, 69, 100
2, 516928, Note_off_c, 0, 77, 64
2, 516928, Note_off_c, 0, 73, 64
2, 516928, Note_on_c, 0, 73, 100
2, 516992, Note_off_c, 0, 69, 64
2, 516992, Note_off_c, 0, 73, 64
2, 516992, Note_on_c, 0, 73, 100
2, 516992, Note_off_c, 0, 68, 64
2, 516992, Note_on_c, 0, 68, 100
2, 517056, Note_off_c, 0, 77, 64
2, 517056, Note_on_c, 0, 77, 100
2, 517056, Note_off_c, 0, 74, 64
2, 517056, Note_on_c, 0, 74, 100
2, 517120, Note_off_c, 0, 73, 64
2, 517120, Note_off_c, 0, 77, 64
2, 517120, Note_off_c, 0, 78, 64
2, 517120, Note_off_c, 0, 68, 64
2, 517120, Note_on_c, 0, 68, 100
2, 517120, Note_off_c, 0, 71, 64
2, 517120, Note_on_c, 0, 71, 100
2, 517120, Note_off_c, 0, 68, 64
2, 517120, Note_on_c, 0, 68, 100
2, 517184, Note_off_c, 0, 74, 64
2, 517184, Note_off_c, 0, 78, 64
2, 517184, Note_on_c, 0, 78, 100
2, 517248, Note_off_c, 0, 71, 64
2, 517248, Note_off_c, 0, 74, 64
2, 517248, Note_on_c, 0, 74, 100
2, 517248, Note_off_c, 0, 68, 64
2, 517248, Note_on_c, 0, 68, 100
2, 517312, Note_off_c, 0, 78, 64
2, 517312, Note_on_c, 0, 78, 100
2, 517312, Note_off_c, 0, 74, 64
2, 517376, Note_off_c, 0, 78, 64
2, 517376, Note_off_c, 0, 76, 64
2, 517376, Note_on_c, 0, 76, 100
2, 517376, Note_off_c, 0, 74, 64
2, 517376, Note_on_c, 0, 74, 100
2, 517376, Note_off_c, 0, 68, 64
2, 517376, Note_on_c, 0, 68, 100
2, 517376, Note_on_c, 0, 71, 100
2, 517440, Note_off_c, 0, 76, 64
2, 517440, Note_off_c, 0, 74, 64
2, 517440, Note_on_c, 0, 74, 100
2, 517504, Note_off_c, 0, 74, 64
2, 517504, Note_on_c, 0, 74, 100
2, 517504, Note_off_c, 0, 73, 64
2, 517504, Note_on_c, 0, 73, 100
2, 517504, Note_off_c, 0, 78, 64
2, 517504, Note_on_c, 0, 78, 100
2, 517568, Note_off_c, 0, 73, 64
2, 517568, Note_on_c, 0, 73, 100
2, 517568, Note_off_c, 0, 68, 64
2, 517568, Note_off_c, 0, 74, 64
2, 517568, Note_off_c, 0, 73, 64
2, 517568, Note_off_c, 0, 76, 64
2, 517568, Note_on_c, 0, 76, 100
2, 517632, Note_off_c, 0, 78, 64
2, 517632, Note_off_c, 0, 80, 64
2, 517632, Note_on_c, 0, 80, 100
2, 517632, Note_on_c, 0, 73, 100
2, 517632, Note_off_c, 0, 74, 64
2, 517632, Note_on_c, 0, 74, 100
2, 517632, Note_on_c, 0, 69, 100
2, 517632, Note_on_c, 0, 68, 100
2, 517632, Note_off_c, 0, 76, 64
2, 517632, Note_on_c, 0, 76, 100
2, 517696, Note_off_c, 0, 74, 64
2, 517696, Note_on_c, 0, 74, 100
2, 517760, Note_off_c, 0, 80, 64
2, 517760, Note_on_c, 0, 80, 100
2, 517760, Note_off_c, 0, 71, 64
2, 517760, Note_on_c, 0, 71, 100
2, 517824, Note_off_c, 0, 81, 64
2, 517824, Note_on_c, 0, 81, 100
2, 517888, Note_off_c, 0, 81, 64
2, 517888, Note_off_c, 0, 74, 64
2, 517888, Note_off_c, 0, 83, 64
2, 517888, Note_on_c, 0, 83, 100
2, 517888, Note_on_c, 0, 74, 100
2, 517888, Note_off_c, 0, 74, 64
2, 517888, Note_off_c, 0, 71, 64
2, 517888, Note_on_c, 0, 71, 100
2, 517888, Note_off_c, 0, 68, 64
2, 517888, Note_on_c, 0, 68, 100
2, 517952, Note_off_c, 0, 69, 64
2, 517952, Note_on_c, 0, 69, 100
2, 518016, Note_on_c, 0, 74, 100
2, 518016, Note_off_c, 0, 68, 64
2, 518016, Note_off_c, 0, 83, 64
2, 518016, Note_off_c, 0, 81, 64
2, 518016, Note_on_c, 0, 81, 100
2, 518016, Note_off_c, 0, 76, 64
2, 518016, Note_on_c, 0, 76, 100
2, 518080, Note_off_c, 0, 81, 64
2, 518080, Note_off_c, 0, 76, 64
2, 518080, Note_off_c, 0, 71, 64
2, 518080, Note_on_c, 0, 83, 100
2, 518080, Note_on_c, 0, 71, 100
2, 518080, Note_on_c, 0, 68, 100
2, 518144, Note_off_c, 0, 83, 64
2, 518144, Note_on_c, 0, 83, 100
2, 518144, Note_off_c, 0, 76, 64
2, 518144, Note_on_c, 0, 76, 100
2, 518144, Note_off_c, 0, 71, 64
2, 518144, Note_off_c, 0, 68, 64
2, 518144, Note_on_c, 0, 68, 100
2, 518208, Note_off_c, 0, 69, 64
2, 518208, Note_on_c, 0, 69, 100
2, 518208, Note_off_c, 0, 68, 64
2, 518208, Note_on_c, 0, 68, 100
2, 518208, Note_off_c, 0, 74, 64
2, 518208, Note_on_c, 0, 74, 100
2, 518272, Note_off_c, 0, 80, 64
2, 518272, Note_on_c, 0, 80, 100
2, 518272, Note_off_c, 0, 76, 64
2, 518272, Note_on_c, 0, 76, 100
2, 518272, Note_off_c, 0, 81, 64
2, 518272, Note_on_c, 0, 81, 100
2, 518336, Note_off_c, 0, 74, 64
2, 518336, Note_off_c, 0, 73, 64
2, 518336, Note_on_c, 0, 73, 100
2, 518400, Note_off_c, 0, 80, 64
2, 518400, Note_off_c, 0, 81, 64
2, 518400, Note_off_c, 0, 76, 64
2, 518400, Note_on_c, 0, 76, 100
2, 518400, Note_off_c, 0, 69, 64
2, 518400, Note_on_c, 0, 69, 100
2, 518400, Note_off_c, 0, 68, 64
2, 518400, Note_on_c, 0, 68, 100
2, 518464, Note_on_c, 0, 81, 100
2, 518464, Note_off_c, 0, 83, 64
2, 518464, Note_on_c, 0, 83, 100
2, 518528, Note_off_c, 0, 68, 64
2, 518528, Note_off_c, 0, 83, 64
2, 518528, Note_off_c, 0, 73, 64
2, 518528, Note_off_c, 0, 74, 64
2, 518528, Note_on_c, 0, 74, 100
2, 518528, Note_off_c, 0, 78, 64
2, 518528, Note_on_c, 0, 78, 100
2, 518592, Note_off_c, 0, 74, 64
2, 518592, Note_off_c, 0, 76, 64
2, 518592, Note_on_c, 0, 76, 100
2, 518656, Note_off_c, 0, 86, 64
2, 518656, Note_off_c, 0, 83, 64
2, 518656, Note_on_c, 0, 83, 100
2, 518656, Note_off_c, 0, 76, 64
2, 518656, Note_off_c, 0, 74, 64
2, 518656, Note_on_c, 0, 74, 100
2, 518656, Note_off_c, 0, 78, 64
2, 518656, Note_on_c, 0, 78, 100
2, 518720, Note_off_c, 0, 83, 64
2, 518720, Note_off_c, 0, 81, 64
2, 518720, Note_on_c, 0, 81, 100
2, 518784, Note_off_c, 0, 78, 64
2, 518784, Note_on_c, 0, 83, 100
2, 518784, Note_off_c, 0, 83, 64
2, 518784, Note_on_c, 0, 80, 100
2, 518784, Note_off_c, 0, 80, 64
2, 518784, Note_off_c, 0, 74, 64
2, 518784, Note_on_c, 0, 83, 100
2, 518784, Note_on_c, 0, 80, 100
2, 518784, Note_off_c, 0, 81, 64
2, 518784, Note_on_c, 0, 81, 100
2, 518784, Note_off_c, 0, 80, 64
2, 518784, Note_on_c, 0, 80, 100
2, 518848, Note_off_c, 0, 81, 64
2, 518848, Note_off_c, 0, 80, 64
2, 518912, Note_on_c, 0, 80, 100
2, 518912, Note_on_c, 0, 76, 100
2, 518912, Note_off_c, 0, 76, 64
2, 518912, Note_off_c, 0, 74, 64
2, 518912, Note_on_c, 0, 74, 100
2, 518912, Note_on_c, 0, 76, 100
2, 518912, Note_off_c, 0, 69, 64
2, 518912, Note_on_c, 0, 69, 100
2, 518976, Note_off_c, 0, 68, 64
2, 518976, Note_on_c, 0, 68, 100
2, 519040, Note_off_c, 0, 74, 64
2, 519040, Note_off_c, 0, 76, 64
2, 519040, Note_on_c, 0, 76, 100
2, 519104, Note_off_c, 0, 73, 64
2, 519104, Note_on_c, 0, 73, 100
2, 519168, Note_off_c, 0, 73, 64
2, 519168, Note_off_c, 0, 68, 64
2, 519168, Note_off_c, 0, 76, 64
2, 519168, Note_on_c, 0, 68, 100
2, 519168, Note_off_c, 0, 69, 64
2, 519168, Note_off_c, 0, 54, 64
2, 519168, Note_on_c, 0, 54, 100
2, 519232, Note_on_c, 0, 69, 100
2, 519296, Note_off_c, 0, 76, 64
2, 519296, Note_on_c, 0, 76, 100
2, 519360, Note_off_c, 0, 54, 64
2, 519360, Note_off_c, 0, 73, 64
2, 519360, Note_on_c, 0, 73, 100
2, 519424, Note_off_c, 0, 74, 64
2, 519424, Note_on_c, 0, 74, 100
2, 519424, Note_off_c, 0, 73, 64
2, 519424, Note_on_c, 0, 73, 100
2, 519488, Note_off_c, 0, 74, 64
2, 519552, Note_off_c, 0, 76, 64
2, 519552, Note_off_c, 0, 73, 64
2, 519552, Note_on_c, 0, 73, 100
2, 519616, Note_on_c, 0, 76, 100
2, 519680, Note_off_c, 0, 80, 64
2, 519680, Note_on_c, 0, 80, 100
2, 519680, Note_off_c, 0, 64, 64
2, 519680, Note_on_c, 0, 64, 100
2, 519680, Note_off_c, 0, 80, 64
2, 519744, Note_off_c, 0, 73, 64
2, 519744, Note_on_c, 0, 73, 100
2, 519744, Note_off_c, 0, 64, 64
2, 519872, Note_off_c, 0, 73, 64
2, 519872, Note_off_c, 0, 66, 64
2, 519872, Note_on_c, 0, 66, 100
2, 519936, Note_off_c, 0, 71, 64
2, 519936, Note_on_c, 0, 71, 100
2, 519936, Note_off_c, 0, 68, 64
2, 519936, Note_off_c, 0, 66, 64
2, 520000, Note_off_c, 0, 71, 64
2, 520000, Note_off_c, 0, 74, 64
2, 520000, Note_on_c, 0, 74, 100
2, 520000, Note_off_c, 0, 68, 64
2, 520000, Note_on_c, 0, 68, 100
2, 520064, Note_on_c, 0, 66, 100
2, 520064, Note_off_c, 0, 68, 64
2, 520128, Note_on_c, 0, 71, 100
2, 520128, Note_off_c, 0, 76, 64
2, 520128, Note_on_c, 0, 76, 100
2, 520128, Note_off_c, 0, 74, 64
2, 520128, Note_off_c, 0, 73, 64
2, 520128, Note_on_c, 0, 73, 100
2, 520128, Note_off_c, 0, 71, 64
2, 520128, Note_on_c, 0, 71, 100
2, 520256, Note_off_c, 0, 73, 64
2, 520256, Note_off_c, 0, 69, 64
2, 520256, Note_on_c, 0, 69, 100
2, 520320, Note_off_c, 0, 76, 64
2, 520320, Note_off_c, 0, 71, 64
2, 520384, Note_off_c, 0, 69, 64
2, 520384, Note_off_c, 0, 71, 64
2, 520384, Note_on_c, 0, 71, 100
2, 520512, Note_off_c, 0, 71, 64
2, 520512, Note_off_c, 0, 73, 64
2, 520512, Note_on_c, 0, 73, 100
2, 520576, Note_off_c, 0, 73, 64
2, 520640, Note_off_c, 0, 76, 64
2, 520640, Note_on_c, 0, 76, 100
2, 520640, Note_off_c, 0, 69, 64
2, 520640, Note_on_c, 0, 69, 100
2, 520640, Note_off_c, 0, 73, 64
2, 520640, Note_on_c, 0, 73, 100
2, 520768, Note_off_c, 0, 73, 64
2, 520768, Note_off_c, 0, 71, 64
2, 520768, Note_on_c, 0, 71, 100
2, 520832, Note_off_c, 0, 76, 64
2, 520832, Note_off_c, 0, 71, 64
2, 520896, Note_off_c, 0, 69, 64
2, 520896, Note_off_c, 0, 78, 64
2, 520896, Note_on_c, 0, 78, 100
2, 521024, Note_off_c, 0, 78, 64
2, 521024, Note_off_c, 0, 79, 64
2, 521024, Note_on_c, 0, 79, 100
2, 521152, Note_off_c, 0, 79, 64
2, 521152, Note_off_c, 0, 76, 64
2, 521152, Note_on_c, 0, 76, 100
2, 521152, Note_off_c, 0, 69, 64
2, 521152, Note_on_c, 0, 69, 100
2, 521280, Note_off_c, 0, 69, 64
2, 521280, Note_off_c, 0, 73, 64
2, 521280, Note_on_c, 0, 73, 100
2, 521408, Note_off_c, 0, 76, 64
2, 521408, Note_off_c, 0, 73, 64
2, 521408, Note_off_c, 0, 74, 64
2, 521408, Note_on_c, 0, 74, 100
2, 521536, Note_off_c, 0, 74, 64
2, 521536, Note_on_c, 0, 74, 100
2, 521536, Note_off_c, 0, 73, 64
2, 521536, Note_on_c, 0, 73, 100
2, 521536, Note_off_c, 0, 45, 64
2, 521536, Note_on_c, 0, 45, 100
2, 521600, Note_off_c, 0, 45, 64
2, 521664, Note_off_c, 0, 73, 64
2, 521664, Note_off_c, 0, 74, 64
2, 521664, Note_on_c, 0, 74, 100
2, 521664, Note_off_c, 0, 43, 64
2, 521664, Note_on_c, 0, 43, 100
2, 521792, Note_off_c, 0, 74, 64
2, 521792, Note_off_c, 0, 76, 64
2, 521792, Note_on_c, 0, 76, 100
2, 521856, Note_off_c, 0, 78, 64
2, 521856, Note_on_c, 0, 78, 100
2, 521920, Note_off_c, 0, 76, 64
2, 521920, Note_off_c, 0, 62, 64
2, 521920, Note_on_c, 0, 62, 100
2, 522048, Note_off_c, 0, 62, 64
2, 522048, Note_off_c, 0, 66, 64
2, 522048, Note_on_c, 0, 66, 100
2, 522176, Note_off_c, 0, 66, 64
2, 522176, Note_off_c, 0, 78, 64
2, 522176, Note_on_c, 0, 78, 100
2, 522304, Note_off_c, 0, 78, 64
2, 522304, Note_off_c, 0, 79, 64
2, 522304, Note_on_c, 0, 79, 100
2, 522432, Note_off_c, 0, 79, 64
2, 522432, Note_off_c, 0, 77, 64
2, 522432, Note_on_c, 0, 77, 100
2, 522560, Note_off_c, 0, 77, 64
2, 522560, Note_off_c, 0, 76, 64
2, 522560, Note_on_c, 0, 76, 100
2, 522688, Note_off_c, 0, 76, 64
2, 522688, Note_off_c, 0, 74, 64
2, 522688, Note_on_c, 0, 74, 100
2, 522816, Note_off_c, 0, 74, 64
2, 522816, Note_off_c, 0, 81, 64
2, 522816, Note_on_c, 0, 81, 100
2, 522944, Note_off_c, 0, 81, 64
2, 522944, Note_off_c, 0, 79, 64
2, 522944, Note_on_c, 0, 79, 100
2, 523072, Note_off_c, 0, 79, 64
2, 523072, Note_off_c, 0, 77, 64
2, 523072, Note_on_c, 0, 77, 100
2, 523200, Note_off_c, 0, 77, 64
2, 523200, Note_off_c, 0, 76, 64
2, 523200, Note_on_c, 0, 76, 100
2, 523200, Note_off_c, 0, 43, 64
2, 523200, Note_on_c, 0, 43, 100
2, 523328, Note_off_c, 0, 76, 64
2, 523328, Note_on_c, 0, 76, 100
2, 523328, Note_off_c, 0, 75, 64
2, 523456, Note_off_c, 0, 76, 64
2, 523456, Note_off_c, 0, 75, 64
2, 523456, Note_on_c, 0, 75, 100
2, 523456, Note_off_c, 0, 43, 64
2, 523456, Note_on_c, 0, 43, 100
2, 523520, Note_off_c, 0, 75, 64
2, 523520, Note_off_c, 0, 78, 64
2, 523520, Note_on_c, 0, 78, 100
2, 523584, Note_off_c, 0, 78, 64
2, 523584, Note_on_c, 0, 78, 100
2, 523712, Note_off_c, 0, 78, 64
2, 523712, Note_on_c, 0, 78, 100
2, 523712, Note_off_c, 0, 75, 64
2, 523712, Note_on_c, 0, 75, 100
2, 523712, Note_off_c, 0, 56, 64
2, 523712, Note_on_c, 0, 56, 100
2, 523840, Note_off_c, 0, 78, 64
2, 523840, Note_off_c, 0, 80, 64
2, 523840, Note_on_c, 0, 80, 100
2, 523904, Note_off_c, 0, 80, 64
2, 523968, Note_off_c, 0, 75, 64
2, 523968, Note_off_c, 0, 74, 64
2, 523968, Note_on_c, 0, 74, 100
2, 524096, Note_off_c, 0, 74, 64
2, 524096, Note_off_c, 0, 75, 64
2, 524096, Note_on_c, 0, 75, 100
2, 524224, Note_off_c, 0, 75, 64
2, 524224, Note_off_c, 0, 74, 64
2, 524224, Note_on_c, 0, 74, 100
2, 524224, Note_off_c, 0, 56, 64
2, 524224, Note_off_c, 0, 54, 64
2, 524224, Note_on_c, 0, 54, 100
2, 524352, Note_off_c, 0, 74, 64
2, 524352, Note_off_c, 0, 75, 64
2, 524352, Note_on_c, 0, 75, 100
2, 524352, Note_on_c, 0, 56, 100
2, 524352, Note_on_c, 0, 59, 100
2, 524416, Note_off_c, 0, 75, 64
2, 524480, Note_on_c, 0, 42, 100
2, 524480, Note_on_c, 0, 45, 100
2, 524480, Note_off_c, 0, 59, 64
2, 524480, Note_off_c, 0, 75, 64
2, 524480, Note_on_c, 0, 75, 100
2, 524480, Note_on_c, 0, 40, 100
2, 524480, Note_off_c, 0, 52, 64
2, 524480, Note_on_c, 0, 52, 100
2, 524608, Note_off_c, 0, 75, 64
2, 524608, Note_off_c, 0, 76, 64
2, 524608, Note_on_c, 0, 76, 100
2, 524736, Note_off_c, 0, 76, 64
2, 524736, Note_off_c, 0, 78, 64
2, 524736, Note_on_c, 0, 78, 100
2, 524864, Note_off_c, 0, 78, 64
2, 524864, Note_off_c, 0, 75, 64
2, 524864, Note_on_c, 0, 75, 100
2, 524864, Note_off_c, 0, 76, 64
2, 524864, Note_on_c, 0, 76, 100
2, 524992, Note_off_c, 0, 76, 64
2, 524992, Note_off_c, 0, 75, 64
2, 524992, Note_on_c, 0, 75, 100
2, 524992, Note_off_c, 0, 52, 64
2, 524992, Note_off_c, 0, 54, 64
2, 524992, Note_on_c, 0, 54, 100
2, 525120, Note_off_c, 0, 75, 64
2, 525120, Note_off_c, 0, 76, 64
2, 525120, Note_on_c, 0, 76, 100
2, 525248, Note_off_c, 0, 76, 64
2, 525248, Note_off_c, 0, 78, 64
2, 525248, Note_on_c, 0, 78, 100
2, 525248, Note_off_c, 0, 54, 64
2, 525248, Note_off_c, 0, 51, 64
2, 525248, Note_on_c, 0, 51, 100
2, 525376, Note_off_c, 0, 59, 64
2, 525376, Note_on_c, 0, 59, 100
2, 525504, Note_off_c, 0, 78, 64
2, 525504, Note_off_c, 0, 83, 64
2, 525504, Note_on_c, 0, 83, 100
2, 525504, Note_off_c, 0, 83, 64
2, 525504, Note_off_c, 0, 81, 64
2, 525504, Note_on_c, 0, 81, 100
2, 525504, Note_off_c, 0, 51, 64
2, 525504, Note_on_c, 0, 51, 100
2, 525632, Note_off_c, 0, 59, 64
2, 525632, Note_off_c, 0, 61, 64
2, 525632, Note_on_c, 0, 61, 100
2, 525760, Note_off_c, 0, 81, 64
2, 525760, Note_on_c, 0, 75, 100
2, 525760, Note_off_c, 0, 75, 64
2, 525760, Note_on_c, 0, 75, 100
2, 525760, Note_off_c, 0, 61, 64
2, 525760, Note_on_c, 0, 61, 100
2, 525760, Note_on_c, 0, 59, 100
2, 525760, Note_off_c, 0, 57, 64
2, 525760, Note_on_c, 0, 57, 100
2, 525760, Note_off_c, 0, 51, 64
2, 525760, Note_off_c, 0, 52, 64
2, 525760, Note_on_c, 0, 52, 100
2, 526016, Note_off_c, 0, 75, 64
2, 526016, Note_on_c, 0, 75, 100
2, 526016, Note_off_c, 0, 78, 64
2, 526016, Note_on_c, 0, 78, 100
2, 526016, Note_on_c, 0, 83, 100
2, 526016, Note_on_c, 0, 60, 100
2, 526016, Note_off_c, 0, 57, 64
2, 526016, Note_off_c, 0, 51, 64
2, 526016, Note_on_c, 0, 51, 100
2, 526144, Note_on_c, 0, 84, 100
2, 526144, Note_off_c, 0, 81, 64
2, 526144, Note_on_c, 0, 81, 100
2, 526272, Note_off_c, 0, 81, 64
2, 526272, Note_off_c, 0, 83, 64
2, 526272, Note_on_c, 0, 83, 100
2, 526272, Note_off_c, 0, 51, 64
2, 526272, Note_off_c, 0, 52, 64
2, 526272, Note_on_c, 0, 52, 100
2, 526400, Note_off_c, 0, 83, 64
2, 526400, Note_off_c, 0, 82, 64
2, 526400, Note_on_c, 0, 82, 100
2, 526528, Note_off_c, 0, 82, 64
2, 526528, Note_off_c, 0, 81, 64
2, 526528, Note_on_c, 0, 81, 100
2, 526528, Note_off_c, 0, 72, 64
2, 526528, Note_on_c, 0, 72, 100
2, 526656, Note_off_c, 0, 81, 64
2, 526656, Note_off_c, 0, 79, 64
2, 526656, Note_on_c, 0, 79, 100
2, 526656, Note_off_c, 0, 52, 64
2, 526656, Note_off_c, 0, 51, 64
2, 526656, Note_on_c, 0, 51, 100
2, 526784, Note_off_c, 0, 79, 64
2, 526784, Note_off_c, 0, 80, 64
2, 526784, Note_on_c, 0, 80, 100
2, 526784, Note_off_c, 0, 69, 64
2, 526784, Note_on_c, 0, 69, 100
2, 526784, Note_off_c, 0, 72, 64
2, 526784, Note_off_c, 0, 75, 64
2, 526784, Note_on_c, 0, 75, 100
2, 526784, Note_off_c, 0, 51, 64
2, 526784, Note_on_c, 0, 51, 100
2, 526912, Note_off_c, 0, 75, 64
2, 526912, Note_off_c, 0, 69, 64
2, 526912, Note_on_c, 0, 69, 100
2, 527040, Note_on_c, 0, 68, 100
2, 527040, Note_off_c, 0, 66, 64
2, 527040, Note_on_c, 0, 66, 100
2, 527168, Note_off_c, 0, 51, 64
2, 527168, Note_off_c, 0, 54, 64
2, 527168, Note_on_c, 0, 54, 100
2, 527296, Note_on_c, 0, 81, 100
2, 527296, Note_off_c, 0, 83, 64
2, 527296, Note_on_c, 0, 83, 100
2, 527296, Note_off_c, 0, 66, 64
2, 527296, Note_off_c, 0, 63, 64
2, 527296, Note_on_c, 0, 63, 100
2, 527296, Note_off_c, 0, 54, 64
2, 527296, Note_off_c, 0, 59, 64
2, 527296, Note_on_c, 0, 59, 100
2, 527552, Note_off_c, 0, 83, 64
2, 527552, Note_off_c, 0, 81, 64
2, 527552, Note_on_c, 0, 81, 100
2, 527552, Note_off_c, 0, 69, 64
2, 527552, Note_off_c, 0, 66, 64
2, 527552, Note_on_c, 0, 66, 100
2, 527808, Note_off_c, 0, 80, 64
2, 527808, Note_off_c, 0, 78, 64
2, 527808, Note_on_c, 0, 78, 100
2, 527808, Note_off_c, 0, 66, 64
2, 527808, Note_off_c, 0, 69, 64
2, 527808, Note_on_c, 0, 69, 100
2, 527808, Note_off_c, 0, 63, 64
2, 527808, Note_off_c, 0, 61, 64
2, 527936, Note_on_c, 0, 77, 100
2, 527936, Note_off_c, 0, 76, 64
2, 527936, Note_on_c, 0, 76, 100
2, 528064, Note_off_c, 0, 76, 64
2, 528064, Note_off_c, 0, 68, 64
2, 528064, Note_off_c, 0, 67, 64
2, 528064, Note_on_c, 0, 67, 100
2, 528064, Note_off_c, 0, 61, 64
2, 528064, Note_on_c, 0, 61, 100
2, 528064, Note_off_c, 0, 62, 64
2, 528064, Note_on_c, 0, 62, 100
2, 528064, Note_off_c, 0, 59, 64
2, 528192, Note_off_c, 0, 62, 64
2, 528192, Note_off_c, 0, 63, 64
2, 528192, Note_on_c, 0, 63, 100
2, 528320, Note_off_c, 0, 63, 64
2, 528320, Note_off_c, 0, 65, 64
2, 528320, Note_on_c, 0, 65, 100
2, 528448, Note_off_c, 0, 65, 64
2, 528448, Note_on_c, 0, 66, 100
2, 528448, Note_off_c, 0, 61, 64
2, 528448, Note_on_c, 0, 61, 100
2, 528576, Note_off_c, 0, 66, 64
2, 528576, Note_off_c, 0, 61, 64
2, 528576, Note_off_c, 0, 59, 64
2, 528576, Note_on_c, 0, 59, 100
2, 528704, Note_off_c, 0, 59, 64
2, 528704, Note_off_c, 0, 61, 64
2, 528704, Note_on_c, 0, 61, 100
2, 528832, Note_off_c, 0, 61, 64
2, 528832, Note_off_c, 0, 62, 64
2, 528832, Note_on_c, 0, 62, 100
2, 528960, Note_off_c, 0, 62, 64
2, 528960, Note_off_c, 0, 66, 64
2, 528960, Note_on_c, 0, 66, 100
2, 529088, Note_off_c, 0, 66, 64
2, 529088, Note_off_c, 0, 71, 64
2, 529088, Note_on_c, 0, 71, 100
2, 529344, Note_off_c, 0, 71, 64
2, 529344, Note_on_c, 0, 71, 100
2, 529344, Note_off_c, 0, 66, 64
2, 529344, Note_on_c, 0, 66, 100
2, 529472, Note_off_c, 0, 71, 64
2, 529472, Note_off_c, 0, 69, 64
2, 529472, Note_on_c, 0, 69, 100
2, 529600, Note_off_c, 0, 69, 64
2, 529600, Note_off_c, 0, 71, 64
2, 529600, Note_on_c, 0, 71, 100
2, 529600, Note_off_c, 0, 66, 64
2, 529600, Note_off_c, 0, 62, 64
2, 529600, Note_on_c, 0, 62, 100
2, 529728, Note_off_c, 0, 62, 64
2, 529728, Note_off_c, 0, 66, 64
2, 529728, Note_on_c, 0, 66, 100
2, 529856, Note_off_c, 0, 66, 64
2, 529856, Note_off_c, 0, 69, 64
2, 529856, Note_on_c, 0, 69, 100
2, 529856, Note_off_c, 0, 71, 64
2, 529856, Note_off_c, 0, 73, 64
2, 529856, Note_on_c, 0, 73, 100
2, 529984, Note_off_c, 0, 69, 64
2, 529984, Note_off_c, 0, 71, 64
2, 529984, Note_on_c, 0, 71, 100
2, 530112, Note_off_c, 0, 73, 64
2, 530112, Note_off_c, 0, 71, 64
2, 530112, Note_off_c, 0, 69, 64
2, 530112, Note_on_c, 0, 69, 100
2, 530112, Note_off_c, 0, 66, 64
2, 530112, Note_on_c, 0, 66, 100
2, 530240, Note_off_c, 0, 66, 64
2, 530240, Note_off_c, 0, 81, 64
2, 530240, Note_on_c, 0, 81, 100
2, 530368, Note_off_c, 0, 69, 64
2, 530368, Note_off_c, 0, 71, 64
2, 530368, Note_on_c, 0, 71, 100
2, 530368, Note_off_c, 0, 73, 64
2, 530368, Note_on_c, 0, 73, 100
2, 530496, Note_off_c, 0, 73, 64
2, 530496, Note_off_c, 0, 74, 64
2, 530496, Note_on_c, 0, 74, 100
2, 530624, Note_off_c, 0, 74, 64
2, 530624, Note_off_c, 0, 71, 64
2, 530624, Note_off_c, 0, 81, 64
2, 530624, Note_on_c, 0, 81, 100
2, 530752, Note_off_c, 0, 81, 64
2, 530752, Note_off_c, 0, 74, 64
2, 530752, Note_on_c, 0, 74, 100
2, 530880, Note_off_c, 0, 74, 64
2, 530880, Note_off_c, 0, 73, 64
2, 530880, Note_on_c, 0, 73, 100
2, 530880, Note_on_c, 0, 81, 100
2, 530880, Note_on_c, 0, 69, 100
2, 531008, Note_off_c, 0, 73, 64
2, 531008, Note_off_c, 0, 71, 64
2, 531008, Note_on_c, 0, 71, 100
2, 531136, Note_off_c, 0, 71, 64
2, 531136, Note_off_c, 0, 69, 64
2, 531136, Note_on_c, 0, 69, 100
2, 531136, Note_off_c, 0, 69, 64
2, 531136, Note_off_c, 0, 74, 64
2, 531136, Note_on_c, 0, 74, 100
2, 531264, Note_off_c, 0, 74, 64
2, 531264, Note_off_c, 0, 73, 64
2, 531264, Note_on_c, 0, 73, 100
2, 531392, Note_off_c, 0, 81, 64
2, 531392, Note_off_c, 0, 79, 64
2, 531392, Note_on_c, 0, 79, 100
2, 531392, Note_off_c, 0, 73, 64
2, 531392, Note_off_c, 0, 71, 64
2, 531392, Note_on_c, 0, 71, 100
2, 531520, Note_off_c, 0, 79, 64
2, 531520, Note_off_c, 0, 77, 64
2, 531520, Note_on_c, 0, 77, 100
2, 531648, Note_off_c, 0, 77, 64
2, 531648, Note_off_c, 0, 76, 64
2, 531648, Note_on_c, 0, 76, 100
2, 531648, Note_off_c, 0, 71, 64
2, 531648, Note_off_c, 0, 73, 64
2, 531648, Note_on_c, 0, 73, 100
2, 531776, Note_off_c, 0, 73, 64
2, 531776, Note_on_c, 0, 69, 100
2, 531776, Note_off_c, 0, 77, 64
2, 531776, Note_on_c, 0, 77, 100
2, 531776, Note_off_c, 0, 76, 64
2, 531776, Note_on_c, 0, 76, 100
2, 531904, Note_off_c, 0, 76, 64
2, 531904, Note_off_c, 0, 74, 64
2, 531904, Note_on_c, 0, 74, 100
2, 531904, Note_off_c, 0, 78, 64
2, 531904, Note_on_c, 0, 78, 100
2, 531904, Note_off_c, 0, 54, 64
2, 531904, Note_on_c, 0, 54, 100
2, 532032, Note_off_c, 0, 69, 64
2, 532032, Note_off_c, 0, 74, 64
2, 532032, Note_on_c, 0, 74, 100
2, 532160, Note_off_c, 0, 78, 64
2, 532160, Note_off_c, 0, 70, 64
2, 532160, Note_on_c, 0, 70, 100
2, 532160, Note_off_c, 0, 73, 64
2, 532160, Note_on_c, 0, 73, 100
2, 532160, Note_off_c, 0, 74, 64
2, 532288, Note_on_c, 0, 78, 100
2, 532288, Note_off_c, 0, 73, 64
2, 532288, Note_on_c, 0, 73, 100
2, 532416, Note_on_c, 0, 61, 100
2, 532416, Note_off_c, 0, 62, 64
2, 532416, Note_on_c, 0, 62, 100
2, 532416, Note_off_c, 0, 54, 64
2, 532416, Note_on_c, 0, 54, 100
2, 532416, Note_off_c, 0, 54, 64
2, 532672, Note_off_c, 0, 73, 64
2, 532672, Note_off_c, 0, 71, 64
2, 532672, Note_on_c, 0, 71, 100
2, 532672, Note_off_c, 0, 62, 64
2, 532672, Note_on_c, 0, 62, 100
2, 532800, Note_off_c, 0, 71, 64
2, 532800, Note_off_c, 0, 69, 64
2, 532800, Note_on_c, 0, 69, 100
2, 532928, Note_off_c, 0, 69, 64
2, 532928, Note_off_c, 0, 64, 64
2, 532928, Note_on_c, 0, 64, 100
2, 532928, Note_off_c, 0, 62, 64
2, 532928, Note_off_c, 0, 61, 64
2, 532928, Note_on_c, 0, 61, 100
2, 532928, Note_off_c, 0, 58, 64
2, 532928, Note_on_c, 0, 58, 100
2, 533056, Note_off_c, 0, 64, 64
2, 533056, Note_off_c, 0, 66, 64
2, 533056, Note_on_c, 0, 66, 100
2, 533184, Note_off_c, 0, 66, 64
2, 533184, Note_off_c, 0, 70, 64
2, 533184, Note_off_c, 0, 61, 64
2, 533184, Note_off_c, 0, 54, 64
2, 533184, Note_on_c, 0, 54, 100
2, 533184, Note_off_c, 0, 62, 64
2, 533184, Note_on_c, 0, 62, 100
2, 533312, Note_off_c, 0, 78, 64
2, 533312, Note_off_c, 0, 74, 64
2, 533312, Note_on_c, 0, 74, 100
2, 533440, Note_off_c, 0, 74, 64
2, 533440, Note_off_c, 0, 76, 64
2, 533440, Note_on_c, 0, 76, 100
2, 533440, Note_off_c, 0, 61, 64
2, 533440, Note_on_c, 0, 61, 100
2, 533568, Note_off_c, 0, 76, 64
2, 533568, Note_off_c, 0, 73, 64
2, 533568, Note_on_c, 0, 73, 100
2, 533696, Note_off_c, 0, 73, 64
2, 533696, Note_off_c, 0, 74, 64
2, 533696, Note_on_c, 0, 74, 100
2, 533824, Note_off_c, 0, 74, 64
2, 533824, Note_off_c, 0, 76, 64
2, 533824, Note_on_c, 0, 76, 100
2, 533952, Note_off_c, 0, 76, 64
2, 533952, Note_off_c, 0, 78, 64
2, 533952, Note_on_c, 0, 78, 100
2, 534080, Note_off_c, 0, 78, 64
2, 534080, Note_off_c, 0, 74, 64
2, 534080, Note_on_c, 0, 74, 100
2, 534208, Note_off_c, 0, 74, 64
2, 534208, Note_off_c, 0, 76, 64
2, 534208, Note_on_c, 0, 76, 100
2, 534208, Note_off_c, 0, 56, 64
2, 534208, Note_on_c, 0, 56, 100
2, 534208, Note_off_c, 0, 56, 64
2, 534336, Note_off_c, 0, 74, 64
2, 534336, Note_on_c, 0, 74, 100
2, 534336, Note_off_c, 0, 76, 64
2, 534464, Note_on_c, 0, 76, 100
2, 534464, Note_off_c, 0, 74, 64
2, 534464, Note_on_c, 0, 74, 100
2, 534464, Note_off_c, 0, 74, 64
2, 534464, Note_off_c, 0, 68, 64
2, 534464, Note_on_c, 0, 68, 100
2, 534592, Note_on_c, 0, 74, 100
2, 534592, Note_off_c, 0, 76, 64
2, 534592, Note_on_c, 0, 76, 100
2, 534720, Note_on_c, 0, 69, 100
2, 534720, Note_off_c, 0, 77, 64
2, 534720, Note_on_c, 0, 78, 100
2, 534720, Note_off_c, 0, 76, 64
2, 534720, Note_off_c, 0, 61, 64
2, 534720, Note_on_c, 0, 61, 100
2, 534848, Note_on_c, 0, 77, 100
2, 534848, Note_on_c, 0, 76, 100
2, 534848, Note_off_c, 0, 69, 64
2, 534848, Note_on_c, 0, 69, 100
2, 534912, Note_off_c, 0, 69, 64
2, 534976, Note_off_c, 0, 76, 64
2, 534976, Note_off_c, 0, 78, 64
2, 534976, Note_on_c, 0, 78, 100
2, 534976, Note_off_c, 0, 61, 64
2, 534976, Note_off_c, 0, 62, 64
2, 534976, Note_on_c, 0, 62, 100
2, 535232, Note_off_c, 0, 78, 64
2, 535232, Note_on_c, 0, 78, 100
2, 535232, Note_off_c, 0, 81, 64
2, 535232, Note_on_c, 0, 81, 100
2, 535232, Note_on_c, 0, 80, 100
2, 535296, Note_off_c, 0, 62, 64
2, 535360, Note_off_c, 0, 80, 64
2, 535360, Note_off_c, 0, 78, 64
2, 535424, Note_off_c, 0, 81, 64
2, 535424, Note_on_c, 0, 69, 100
2, 535488, Note_off_c, 0, 68, 64
2, 535488, Note_on_c, 0, 80, 100
2, 535488, Note_off_c, 0, 81, 64
2, 535488, Note_off_c, 0, 54, 64
2, 535488, Note_off_c, 0, 56, 64
2, 535488, Note_on_c, 0, 56, 100
2, 535488, Note_on_c, 0, 81, 100
2, 535488, Note_off_c, 0, 78, 64
2, 535488, Note_on_c, 0, 78, 100
2, 535680, Note_off_c, 0, 80, 64
2, 535680, Note_off_c, 0, 78, 64
2, 535680, Note_on_c, 0, 78, 100
2, 535744, Note_off_c, 0, 56, 64
2, 535744, Note_off_c, 0, 54, 64
2, 535744, Note_on_c, 0, 54, 100
2, 535744, Note_off_c, 0, 81, 64
2, 535744, Note_on_c, 0, 81, 100
2, 535808, Note_off_c, 0, 78, 64
2, 535808, Note_on_c, 0, 78, 100
2, 535808, Note_off_c, 0, 78, 64
2, 535936, Note_on_c, 0, 78, 100
2, 535936, Note_off_c, 0, 81, 64
2, 535936, Note_on_c, 0, 81, 100
2, 536000, Note_off_c, 0, 78, 64
2, 536000, Note_on_c, 0, 78, 100
2, 536000, Note_off_c, 0, 54, 64
2, 536000, Note_off_c, 0, 80, 64
2, 536000, Note_on_c, 0, 80, 100
2, 536000, Note_off_c, 0, 57, 64
2, 536000, Note_on_c, 0, 57, 100
2, 536256, Note_off_c, 0, 78, 64
2, 536256, Note_off_c, 0, 76, 64
2, 536256, Note_on_c, 0, 76, 100
2, 536256, Note_off_c, 0, 57, 64
2, 536256, Note_on_c, 0, 57, 100
2, 536256, Note_off_c, 0, 61, 64
2, 536256, Note_on_c, 0, 61, 100
2, 536320, Note_off_c, 0, 57, 64
2, 536320, Note_off_c, 0, 61, 64
2, 536320, Note_on_c, 0, 61, 100
2, 536384, Note_off_c, 0, 78, 64
2, 536384, Note_on_c, 0, 78, 100
2, 536384, Note_off_c, 0, 76, 64
2, 536384, Note_on_c, 0, 76, 100
2, 536512, Note_off_c, 0, 76, 64
2, 536512, Note_off_c, 0, 78, 64
2, 536512, Note_on_c, 0, 78, 100
2, 536512, Note_off_c, 0, 74, 64
2, 536512, Note_on_c, 0, 74, 100
2, 536512, Note_off_c, 0, 68, 64
2, 536512, Note_on_c, 0, 68, 100
2, 536512, Note_off_c, 0, 59, 64
2, 536512, Note_on_c, 0, 59, 100
2, 536704, Note_off_c, 0, 78, 64
2, 536704, Note_off_c, 0, 74, 64
2, 536704, Note_on_c, 0, 73, 100
2, 537024, Note_off_c, 0, 61, 64
2, 537024, Note_off_c, 0, 59, 64
2, 537024, Note_on_c, 0, 59, 100
2, 537024, Note_on_c, 0, 56, 100
2, 537024, Note_off_c, 0, 50, 64
2, 537024, Note_on_c, 0, 50, 100
2, 537024, Note_off_c, 0, 73, 64
2, 537024, Note_on_c, 0, 73, 100
2, 537152, Note_off_c, 0, 73, 64
2, 537152, Note_on_c, 0, 73, 100
2, 537152, Note_off_c, 0, 50, 64
2, 537216, Note_off_c, 0, 59, 64
2, 537216, Note_off_c, 0, 56, 64
2, 537216, Note_on_c, 0, 56, 100
2, 537728, Note_off_c, 0, 73, 64
2, 537728, Note_off_c, 0, 71, 64
2, 537728, Note_on_c, 0, 71, 100
2, 537728, Note_off_c, 0, 56, 64
2, 537728, Note_on_c, 0, 52, 100
2, 537728, Note_off_c, 0, 52, 64
2, 537728, Note_off_c, 0, 68, 64
2, 537728, Note_on_c, 0, 68, 100
2, 537728, Note_on_c, 0, 52, 100
2, 537728, Note_on_c, 0, 64, 100
2, 537728, Note_off_c, 0, 65, 64
2, 537728, Note_on_c, 0, 65, 100
2, 538048, Note_off_c, 0, 52, 64
2, 538240, Note_off_c, 0, 68, 64
2, 538240, Note_off_c, 0, 64, 64
2, 538240, Note_on_c, 0, 64, 100
2, 538240, Note_off_c, 0, 45, 64
2, 538240, Note_on_c, 0, 45, 100
2, 538240, Note_off_c, 0, 71, 64
2, 538240, Note_off_c, 0, 73, 64
2, 538240, Note_on_c, 0, 73, 100
2, 538240, Note_off_c, 0, 45, 64
2, 538240, Note_on_c, 0, 45, 100
2, 538752, Note_off_c, 0, 73, 64
2, 538752, Note_off_c, 0, 76, 64
2, 538752, Note_on_c, 0, 76, 100
2, 539008, Note_off_c, 0, 76, 64
2, 539008, Note_on_c, 0, 76, 100
2, 539008, Note_off_c, 0, 69, 64
2, 539008, Note_on_c, 0, 69, 100
2, 539008, Note_off_c, 0, 49, 64
2, 539008, Note_off_c, 0, 45, 64
2, 539008, Note_off_c, 0, 76, 64
2, 539008, Note_off_c, 0, 73, 64
2, 539008, Note_off_c, 0, 65, 64
2, 539008, Note_on_c, 0, 73, 100
2, 539008, Note_on_c, 0, 45, 100
2, 539008, Note_off_c, 0, 45, 64
2, 539264, Note_off_c, 0, 73, 64
2, 539264, Note_off_c, 0, 74, 64
2, 539264, Note_on_c, 0, 74, 100
2, 539264, Note_off_c, 0, 69, 64
2, 539264, Note_off_c, 0, 71, 64
2, 539264, Note_on_c, 0, 71, 100
2, 539264, Note_on_c, 0, 65, 100
2, 539264, Note_on_c, 0, 53, 100
2, 539264, Note_on_c, 0, 54, 100
2, 539264, Note_on_c, 0, 47, 100
2, 539264, Note_on_c, 0, 68, 100
2, 539264, Note_on_c, 0, 56, 100
2, 539776, Note_off_c, 0, 71, 64
2, 539776, Note_off_c, 0, 69, 64
2, 539776, Note_on_c, 0, 69, 100
2, 539776, Note_off_c, 0, 74, 64
2, 539776, Note_off_c, 0, 73, 64
2, 539776, Note_on_c, 0, 73, 100
2, 539840, Note_off_c, 0, 76, 64
2, 539840, Note_on_c, 0, 76, 100
2, 539840, Note_on_c, 0, 71, 100
2, 539840, Note_off_c, 0, 68, 64
2, 539840, Note_off_c, 0, 57, 64
2, 539840, Note_on_c, 0, 57, 100
2, 539840, Note_off_c, 0, 71, 64
2, 539840, Note_off_c, 0, 73, 64
2, 539840, Note_on_c, 0, 73, 100
2, 539840, Note_on_c, 0, 71, 100
2, 539840, Note_on_c, 0, 68, 100
2, 539840, Note_off_c, 0, 64, 64
2, 539904, Note_off_c, 0, 69, 64
2, 539904, Note_on_c, 0, 69, 100
2, 539904, Note_off_c, 0, 54, 64
2, 539904, Note_on_c, 0, 54, 100
2, 539904, Note_off_c, 0, 66, 64
2, 539904, Note_on_c, 0, 66, 100
2, 539904, Note_off_c, 0, 59, 64
2, 539904, Note_on_c, 0, 59, 100
2, 539968, Note_off_c, 0, 74, 64
2, 539968, Note_on_c, 0, 74, 100
2, 539968, Note_off_c, 0, 68, 64
2, 539968, Note_on_c, 0, 68, 100
2, 539968, Note_off_c, 0, 61, 64
2, 539968, Note_on_c, 0, 61, 100
2, 539968, Note_on_c, 0, 64, 100
2, 539968, Note_off_c, 0, 59, 64
2, 540032, Note_off_c, 0, 74, 64
2, 540032, Note_off_c, 0, 73, 64
2, 540032, Note_on_c, 0, 73, 100
2, 540032, Note_off_c, 0, 64, 64
2, 540032, Note_on_c, 0, 64, 100
2, 540032, Note_off_c, 0, 68, 64
2, 540032, Note_off_c, 0, 57, 64
2, 540032, Note_off_c, 0, 59, 64
2, 540032, Note_on_c, 0, 59, 100
2, 540032, Note_off_c, 0, 56, 64
2, 540032, Note_on_c, 0, 57, 100
2, 540032, Note_off_c, 0, 57, 64
2, 540096, Note_off_c, 0, 73, 64
2, 540096, Note_off_c, 0, 69, 64
2, 540096, Note_on_c, 0, 69, 100
2, 540160, Note_off_c, 0, 74, 64
2, 540160, Note_on_c, 0, 74, 100
2, 540160, Note_off_c, 0, 69, 64
2, 540160, Note_off_c, 0, 71, 64
2, 540160, Note_on_c, 0, 71, 100
2, 540160, Note_on_c, 0, 68, 100
2, 540160, Note_off_c, 0, 66, 64
2, 540160, Note_off_c, 0, 64, 64
2, 540160, Note_on_c, 0, 64, 100
2, 540160, Note_off_c, 0, 59, 64
2, 540160, Note_off_c, 0, 56, 64
2, 540160, Note_on_c, 0, 56, 100
2, 540160, Note_on_c, 0, 57, 100
2, 540224, Note_off_c, 0, 74, 64
2, 540224, Note_off_c, 0, 76, 64
2, 540224, Note_on_c, 0, 76, 100
2, 540288, Note_off_c, 0, 76, 64
2, 540288, Note_off_c, 0, 73, 64
2, 540288, Note_on_c, 0, 73, 100
2, 540288, Note_off_c, 0, 68, 64
2, 540288, Note_on_c, 0, 69, 100
2, 540288, Note_off_c, 0, 71, 64
2, 540288, Note_on_c, 0, 71, 100
2, 540288, Note_on_c, 0, 76, 100
2, 540288, Note_off_c, 0, 76, 64
2, 540288, Note_off_c, 0, 54, 64
2, 540288, Note_off_c, 0, 56, 64
2, 540288, Note_on_c, 0, 56, 100
2, 540352, Note_off_c, 0, 56, 64
2, 540352, Note_on_c, 0, 56, 100
2, 540352, Note_off_c, 0, 54, 64
2, 540352, Note_on_c, 0, 54, 100
2, 540352, Note_off_c, 0, 74, 64
2, 540352, Note_on_c, 0, 74, 100
2, 540352, Note_on_c, 0, 66, 100
2, 540352, Note_off_c, 0, 64, 64
2, 540416, Note_off_c, 0, 74, 64
2, 540416, Note_on_c, 0, 74, 100
2, 540416, Note_off_c, 0, 76, 64
2, 540416, Note_on_c, 0, 76, 100
2, 540416, Note_off_c, 0, 74, 64
2, 540416, Note_off_c, 0, 73, 64
2, 540416, Note_off_c, 0, 69, 64
2, 540416, Note_off_c, 0, 68, 64
2, 540416, Note_on_c, 0, 68, 100
2, 540416, Note_off_c, 0, 53, 64
2, 540416, Note_off_c, 0, 54, 64
2, 540416, Note_on_c, 0, 54, 100
2, 540480, Note_on_c, 0, 74, 100
2, 540480, Note_off_c, 0, 73, 64
2, 540480, Note_on_c, 0, 73, 100
2, 540544, Note_off_c, 0, 68, 64
2, 540544, Note_on_c, 0, 68, 100
2, 540544, Note_off_c, 0, 74, 64
2, 540544, Note_off_c, 0, 73, 64
2, 540544, Note_off_c, 0, 81, 64
2, 540544, Note_on_c, 0, 81, 100
2, 540544, Note_on_c, 0, 73, 100
2, 540544, Note_off_c, 0, 73, 64
2, 540544, Note_on_c, 0, 73, 100
2, 540544, Note_off_c, 0, 56, 64
2, 540544, Note_off_c, 0, 57, 64
2, 540544, Note_on_c, 0, 57, 100
2, 540544, Note_off_c, 0, 45, 64
2, 540544, Note_on_c, 0, 45, 100
2, 540800, Note_off_c, 0, 81, 64
2, 540800, Note_off_c, 0, 78, 64
2, 540800, Note_on_c, 0, 78, 100
2, 540800, Note_off_c, 0, 73, 64
2, 540800, Note_off_c, 0, 74, 64
2, 540800, Note_on_c, 0, 74, 100
2, 541312, Note_off_c, 0, 78, 64
2, 541312, Note_off_c, 0, 76, 64
2, 541312, Note_on_c, 0, 76, 100
2, 541312, Note_off_c, 0, 45, 64
2, 541312, Note_on_c, 0, 45, 100
2, 541632, Note_off_c, 0, 45, 64
2, 541696, Note_off_c, 0, 76, 64
2, 541696, Note_on_c, 0, 76, 100
2, 541696, Note_off_c, 0, 74, 64
2, 541696, Note_off_c, 0, 73, 64
2, 541696, Note_on_c, 0, 73, 100
2, 541824, Note_off_c, 0, 73, 64
2, 541824, Note_off_c, 0, 57, 64
2, 541824, Note_off_c, 0, 77, 64
2, 541824, Note_on_c, 0, 77, 100
2, 541824, Note_on_c, 0, 69, 100
2, 541824, Note_off_c, 0, 69, 64
2, 541824, Note_on_c, 0, 69, 100
2, 541824, Note_off_c, 0, 61, 64
2, 541824, Note_on_c, 0, 61, 100
2, 541824, Note_off_c, 0, 45, 64
2, 541824, Note_on_c, 0, 45, 100
2, 542080, Note_off_c, 0, 61, 64
2, 542080, Note_off_c, 0, 45, 64
2, 542080, Note_off_c, 0, 57, 64
2, 542080, Note_on_c, 0, 57, 100
2, 542080, Note_off_c, 0, 50, 64
2, 542080, Note_on_c, 0, 50, 100
2, 542080, Note_off_c, 0, 38, 64
2, 542080, Note_on_c, 0, 38, 100
2, 542208, Note_off_c, 0, 77, 64
2, 542208, Note_off_c, 0, 76, 64
2, 542208, Note_on_c, 0, 76, 100
2, 542208, Note_off_c, 0, 69, 64
2, 542208, Note_off_c, 0, 74, 64
2, 542208, Note_on_c, 0, 74, 100
2, 542336, Note_off_c, 0, 76, 64
2, 542336, Note_off_c, 0, 74, 64
2, 542336, Note_off_c, 0, 50, 64
2, 542336, Note_off_c, 0, 45, 64
2, 542336, Note_on_c, 0, 45, 100
2, 542336, Note_off_c, 0, 33, 64
2, 542336, Note_on_c, 0, 33, 100
2, 542336, Note_off_c, 0, 57, 64
2, 542336, Note_on_c, 0, 57, 100
2, 542464, Note_off_c, 0, 45, 64
2, 542528, Note_off_c, 0, 57, 64
2, 542528, Note_on_c, 0, 57, 100
2, 542656, Note_off_c, 0, 57, 64
2, 544000, Note_off_c, 0, 59, 64
2, 544000, Note_on_c, 0, 59, 100
2, 545344, Note_off_c, 0, 77, 64
2, 545344, Note_on_c, 0, 77, 100
2, 545344, Note_off_c, 0, 59, 64
2, 545344, Note_off_c, 0, 57, 64
2, 545344, Note_on_c, 0, 57, 100
2, 545344, Note_off_c, 0, 60, 64
2, 545344, Note_on_c, 0, 60, 100
2, 545664, Note_off_c, 0, 60, 64
2, 545664, Note_off_c, 0, 62, 64
2, 545664, Note_on_c, 0, 62, 100
2, 545664, Note_off_c, 0, 57, 64
2, 545664, Note_off_c, 0, 53, 64
2, 545664, Note_on_c, 0, 53, 100
2, 546112, Note_off_c, 0, 77, 64
2, 546112, Note_off_c, 0, 62, 64
2, 546112, Note_on_c, 0, 62, 100
2, 546112, Note_off_c, 0, 53, 64
2, 546112, Note_off_c, 0, 74, 64
2, 546112, Note_on_c, 0, 74, 100
2, 546112, Note_off_c, 0, 55, 64
2, 546112, Note_on_c, 0, 55, 100
2, 546304, Note_off_c, 0, 74, 64
2, 546304, Note_off_c, 0, 72, 64
2, 546304, Note_on_c, 0, 72, 100
2, 546304, Note_off_c, 0, 62, 64
2, 546304, Note_off_c, 0, 55, 64
2, 546304, Note_off_c, 0, 57, 64
2, 546304, Note_on_c, 0, 57, 100
2, 546304, Note_on_c, 0, 55, 100
2, 546304, Note_off_c, 0, 60, 64
2, 546304, Note_on_c, 0, 60, 100
2, 546560, Note_off_c, 0, 72, 64
2, 546560, Note_off_c, 0, 74, 64
2, 546560, Note_on_c, 0, 74, 100
2, 546880, Note_off_c, 0, 74, 64
2, 546880, Note_off_c, 0, 76, 64
2, 546880, Note_on_c, 0, 76, 100
2, 547072, Note_off_c, 0, 76, 64
2, 547072, Note_off_c, 0, 77, 64
2, 547072, Note_on_c, 0, 77, 100
2, 547072, Note_off_c, 0, 57, 64
2, 547072, Note_off_c, 0, 60, 64
2, 547072, Note_off_c, 0, 62, 64
2, 547072, Note_on_c, 0, 62, 100
2, 547072, Note_off_c, 0, 53, 64
2, 547072, Note_on_c, 0, 53, 100
2, 547456, Note_off_c, 0, 77, 64
2, 547456, Note_off_c, 0, 72, 64
2, 547456, Note_on_c, 0, 72, 100
2, 547584, Note_off_c, 0, 72, 64
2, 547584, Note_off_c, 0, 69, 64
2, 547584, Note_on_c, 0, 69, 100
2, 547584, Note_off_c, 0, 53, 64
2, 547584, Note_off_c, 0, 55, 64
2, 547584, Note_on_c, 0, 55, 100
2, 547904, Note_off_c, 0, 55, 64
2, 547904, Note_on_c, 0, 55, 100
2, 547904, Note_off_c, 0, 55, 64
2, 548032, Note_off_c, 0, 62, 64
2, 548032, Note_off_c, 0, 64, 64
2, 548032, Note_on_c, 0, 64, 100
2, 548096, Note_on_c, 0, 55, 100
2, 548096, Note_off_c, 0, 54, 64
2, 548096, Note_on_c, 0, 54, 100
2, 548160, Note_off_c, 0, 74, 64
2, 548160, Note_on_c, 0, 74, 100
2, 548160, Note_off_c, 0, 69, 64
2, 548224, Note_off_c, 0, 67, 64
2, 548224, Note_on_c, 0, 67, 100
2, 548288, Note_off_c, 0, 64, 64
2, 548288, Note_off_c, 0, 62, 64
2, 548288, Note_on_c, 0, 62, 100
2, 548288, Note_off_c, 0, 54, 64
2, 548288, Note_off_c, 0, 55, 64
2, 548288, Note_on_c, 0, 55, 100
2, 548352, Note_off_c, 0, 62, 64
2, 548352, Note_off_c, 0, 55, 64
2, 548352, Note_on_c, 0, 55, 100
2, 548544, Note_off_c, 0, 74, 64
2, 548544, Note_off_c, 0, 72, 64
2, 548544, Note_on_c, 0, 72, 100
2, 548736, Note_off_c, 0, 72, 64
2, 548736, Note_off_c, 0, 71, 64
2, 548736, Note_on_c, 0, 71, 100
2, 548992, Note_off_c, 0, 71, 64
2, 548992, Note_off_c, 0, 69, 64
2, 548992, Note_on_c, 0, 69, 100
2, 548992, Note_off_c, 0, 67, 64
2, 548992, Note_off_c, 0, 64, 64
2, 548992, Note_on_c, 0, 64, 100
2, 549184, Note_off_c, 0, 55, 64
2, 549184, Note_off_c, 0, 54, 64
2, 549184, Note_on_c, 0, 54, 100
2, 549440, Note_off_c, 0, 64, 64
2, 549440, Note_off_c, 0, 55, 64
2, 549440, Note_on_c, 0, 55, 100
2, 549632, Note_off_c, 0, 69, 64
2, 549632, Note_off_c, 0, 71, 64
2, 549632, Note_on_c, 0, 71, 100
2, 549632, Note_off_c, 0, 55, 64
2, 549632, Note_off_c, 0, 54, 64
2, 549632, Note_on_c, 0, 52, 100
2, 549760, Note_off_c, 0, 71, 64
2, 549760, Note_off_c, 0, 69, 64
2, 549760, Note_on_c, 0, 69, 100
2, 549952, Note_off_c, 0, 69, 64
2, 549952, Note_off_c, 0, 71, 64
2, 549952, Note_on_c, 0, 71, 100
2, 549952, Note_off_c, 0, 67, 64
2, 549952, Note_on_c, 0, 67, 100
2, 549952, Note_off_c, 0, 55, 64
2, 549952, Note_on_c, 0, 55, 100
2, 549952, Note_off_c, 0, 52, 64
2, 549952, Note_on_c, 0, 52, 100
2, 550272, Note_off_c, 0, 52, 64
2, 550272, Note_on_c, 0, 48, 100
2, 550272, Note_off_c, 0, 48, 64
2, 550272, Note_on_c, 0, 48, 100
2, 550272, Note_off_c, 0, 48, 64
2, 550464, Note_off_c, 0, 67, 64
2, 550464, Note_off_c, 0, 66, 64
2, 550464, Note_on_c, 0, 66, 100
2, 550464, Note_off_c, 0, 55, 64
2, 550464, Note_off_c, 0, 57, 64
2, 550464, Note_on_c, 0, 57, 100
2, 550784, Note_on_c, 0, 48, 100
2, 550976, Note_off_c, 0, 66, 64
2, 550976, Note_off_c, 0, 67, 64
2, 550976, Note_on_c, 0, 67, 100
2, 550976, Note_off_c, 0, 60, 64
2, 550976, Note_on_c, 0, 60, 100
2, 550976, Note_off_c, 0, 57, 64
2, 550976, Note_off_c, 0, 62, 64
2, 550976, Note_on_c, 0, 62, 100
2, 550976, Note_off_c, 0, 47, 64
2, 550976, Note_on_c, 0, 47, 100
2, 551296, Note_off_c, 0, 47, 64
2, 551488, Note_on_c, 0, 50, 100
2, 551488, Note_on_c, 0, 54, 100
2, 551488, Note_on_c, 0, 53, 100
2, 552000, Note_off_c, 0, 67, 64
2, 552000, Note_on_c, 0, 67, 100
2, 552000, Note_off_c, 0, 62, 64
2, 552000, Note_off_c, 0, 60, 64
2, 552000, Note_off_c, 0, 53, 64
2, 552000, Note_off_c, 0, 55, 64
2, 552000, Note_on_c, 0, 55, 100
2, 552512, Note_off_c, 0, 71, 64
2, 552512, Note_on_c, 0, 74, 100
2, 552512, Note_on_c, 0, 76, 100
2, 552512, Note_off_c, 0, 64, 64
2, 552512, Note_on_c, 0, 64, 100
2, 552512, Note_off_c, 0, 55, 64
2, 552512, Note_on_c, 0, 55, 100
2, 552512, Note_off_c, 0, 55, 64
2, 554560, Note_off_c, 0, 74, 64
2, 554560, Note_off_c, 0, 72, 64
2, 554560, Note_on_c, 0, 72, 100
2, 554560, Note_off_c, 0, 67, 64
2, 554560, Note_off_c, 0, 69, 64
2, 554560, Note_on_c, 0, 69, 100
2, 554560, Note_off_c, 0, 64, 64
2, 554560, Note_on_c, 0, 63, 100
2, 554560, Note_on_c, 0, 55, 100
2, 554560, Note_on_c, 0, 60, 100
2, 554560, Note_off_c, 0, 57, 64
2, 554560, Note_on_c, 0, 57, 100
2, 555072, Note_off_c, 0, 72, 64
2, 555072, Note_on_c, 0, 72, 100
2, 555072, Note_off_c, 0, 69, 64
2, 555072, Note_off_c, 0, 63, 64
2, 555072, Note_off_c, 0, 64, 64
2, 555072, Note_on_c, 0, 64, 100
2, 555072, Note_off_c, 0, 57, 64
2, 555072, Note_off_c, 0, 58, 64
2, 555072, Note_on_c, 0, 58, 100
2, 556096, Note_off_c, 0, 64, 64
2, 556096, Note_off_c, 0, 62, 64
2, 556096, Note_on_c, 0, 62, 100
2, 556096, Note_off_c, 0, 58, 64
2, 556096, Note_off_c, 0, 60, 64
2, 556096, Note_on_c, 0, 60, 100
2, 556096, Note_off_c, 0, 57, 64
2, 556096, Note_on_c, 0, 57, 100
2, 556608, Note_off_c, 0, 62, 64
2, 556608, Note_off_c, 0, 64, 64
2, 556608, Note_on_c, 0, 64, 100
2, 556608, Note_off_c, 0, 60, 64
2, 556608, Note_off_c, 0, 57, 64
2, 556608, Note_on_c, 0, 57, 100
2, 556608, Note_on_c, 0, 45, 100
2, 556608, Note_on_c, 0, 44, 100
2, 556864, Note_off_c, 0, 72, 64
2, 556864, Note_off_c, 0, 74, 64
2, 556864, Note_on_c, 0, 74, 100
2, 556864, Note_off_c, 0, 64, 64
2, 556864, Note_off_c, 0, 59, 64
2, 556864, Note_on_c, 0, 59, 100
2, 557120, Note_off_c, 0, 74, 64
2, 557120, Note_off_c, 0, 72, 64
2, 557120, Note_on_c, 0, 72, 100
2, 557120, Note_off_c, 0, 59, 64
2, 557120, Note_off_c, 0, 57, 64
2, 557120, Note_on_c, 0, 57, 100
2, 557120, Note_off_c, 0, 45, 64
2, 557120, Note_on_c, 0, 45, 100
2, 557120, Note_off_c, 0, 45, 64
2, 557376, Note_on_c, 0, 64, 100
2, 557376, Note_off_c, 0, 65, 64
2, 557376, Note_on_c, 0, 65, 100
2, 557632, Note_off_c, 0, 72, 64
2, 557632, Note_off_c, 0, 74, 64
2, 557632, Note_on_c, 0, 74, 100
2, 557632, Note_on_c, 0, 69, 100
2, 557632, Note_off_c, 0, 68, 64
2, 557632, Note_on_c, 0, 68, 100
2, 557632, Note_off_c, 0, 64, 64
2, 557632, Note_off_c, 0, 65, 64
2, 557632, Note_on_c, 0, 65, 100
2, 557632, Note_off_c, 0, 57, 64
2, 557632, Note_off_c, 0, 59, 64
2, 557632, Note_on_c, 0, 59, 100
2, 557632, Note_off_c, 0, 45, 64
2, 557632, Note_on_c, 0, 45, 100
2, 557632, Note_on_c, 0, 47, 100
2, 558528, Note_off_c, 0, 74, 64
2, 558528, Note_off_c, 0, 72, 64
2, 558528, Note_on_c, 0, 72, 100
2, 558528, Note_off_c, 0, 68, 64
2, 558528, Note_off_c, 0, 69, 64
2, 558528, Note_on_c, 0, 69, 100
2, 558528, Note_off_c, 0, 47, 64
2, 558528, Note_off_c, 0, 40, 64
2, 558528, Note_off_c, 0, 45, 64
2, 558720, Note_on_c, 0, 74, 100
2, 558720, Note_off_c, 0, 72, 64
2, 558720, Note_off_c, 0, 69, 64
2, 558720, Note_on_c, 0, 69, 100
2, 558720, Note_off_c, 0, 65, 64
2, 558720, Note_on_c, 0, 65, 100
2, 558720, Note_off_c, 0, 59, 64
2, 558720, Note_off_c, 0, 57, 64
2, 558720, Note_on_c, 0, 57, 100
2, 558784, Note_on_c, 0, 45, 100
2, 558784, Note_off_c, 0, 45, 64
2, 558784, Note_on_c, 0, 45, 100
2, 559232, Note_off_c, 0, 65, 64
2, 559232, Note_on_c, 0, 62, 100
2, 559232, Note_off_c, 0, 60, 64
2, 559232, Note_on_c, 0, 60, 100
2, 559552, Note_off_c, 0, 45, 64
2, 559744, Note_off_c, 0, 62, 64
2, 559744, Note_off_c, 0, 59, 64
2, 559744, Note_off_c, 0, 57, 64
2, 559744, Note_on_c, 0, 59, 100
2, 559744, Note_off_c, 0, 55, 64
2, 559744, Note_off_c, 0, 43, 64
2, 560256, Note_on_c, 0, 55, 100
2, 560256, Note_off_c, 0, 43, 64
2, 560256, Note_on_c, 0, 43, 100
2, 560768, Note_off_c, 0, 60, 64
2, 560768, Note_off_c, 0, 62, 64
2, 560768, Note_on_c, 0, 62, 100
2, 560768, Note_on_c, 0, 60, 100
2, 560768, Note_off_c, 0, 59, 64
2, 560768, Note_off_c, 0, 55, 64
2, 560768, Note_off_c, 0, 48, 64
2, 560768, Note_off_c, 0, 43, 64
2, 560768, Note_on_c, 0, 43, 100
2, 561664, Note_off_c, 0, 62, 64
2, 561664, Note_on_c, 0, 64, 100
2, 561792, Note_off_c, 0, 64, 64
2, 561792, Note_off_c, 0, 62, 64
2, 561792, Note_on_c, 0, 62, 100
2, 562560, Note_off_c, 0, 62, 64
2, 562560, Note_on_c, 0, 62, 100
2, 562816, Note_off_c, 0, 62, 64
2, 562816, Note_off_c, 0, 64, 64
2, 562816, Note_on_c, 0, 64, 100
2, 568256, Note_on_c, 0, 66, 100
2, 568256, Note_off_c, 0, 62, 64
2, 568256, Note_on_c, 0, 62, 100
2, 568256, Note_on_c, 0, 59, 100
2, 568512, Note_off_c, 0, 66, 64
2, 568512, Note_on_c, 0, 68, 100
2, 568768, Note_off_c, 0, 68, 64
2, 568768, Note_off_c, 0, 69, 64
2, 568768, Note_off_c, 0, 62, 64
2, 568768, Note_off_c, 0, 64, 64
2, 568768, Note_off_c, 0, 59, 64
2, 568768, Note_on_c, 0, 61, 100
2, 569024, Note_on_c, 0, 57, 100
2, 569024, Note_on_c, 0, 56, 100
2, 569280, Note_on_c, 0, 69, 100
2, 569280, Note_on_c, 0, 71, 100
2, 569280, Note_on_c, 0, 64, 100
2, 569280, Note_on_c, 0, 62, 100
2, 569280, Note_off_c, 0, 61, 64
2, 569280, Note_off_c, 0, 56, 64
2, 569280, Note_off_c, 0, 57, 64
2, 569280, Note_on_c, 0, 52, 100
2, 569536, Note_off_c, 0, 71, 64
2, 569536, Note_off_c, 0, 69, 64
2, 569536, Note_off_c, 0, 62, 64
2, 569536, Note_on_c, 0, 61, 100
2, 569792, Note_on_c, 0, 69, 100
2, 569792, Note_on_c, 0, 66, 100
2, 569792, Note_off_c, 0, 61, 64
2, 569792, Note_on_c, 0, 61, 100
2, 569792, Note_on_c, 0, 59, 100
2, 569792, Note_off_c, 0, 51, 64
2, 569792, Note_on_c, 0, 56, 100
2, 569792, Note_on_c, 0, 51, 100
2, 570304, Note_off_c, 0, 66, 64
2, 570304, Note_on_c, 0, 66, 100
2, 570304, Note_off_c, 0, 56, 64
2, 570304, Note_off_c, 0, 51, 64
2, 570304, Note_on_c, 0, 49, 100
2, 570560, Note_off_c, 0, 49, 64
2, 570560, Note_on_c, 0, 51, 100
2, 570816, Note_off_c, 0, 66, 64
2, 570816, Note_on_c, 0, 68, 100
2, 570816, Note_off_c, 0, 51, 64
2, 570816, Note_off_c, 0, 59, 64
2, 571072, Note_on_c, 0, 66, 100
2, 571072, Note_off_c, 0, 68, 64
2, 571072, Note_on_c, 0, 51, 100
2, 571072, Note_off_c, 0, 52, 64
2, 571328, Note_on_c, 0, 68, 100
2, 571328, Note_off_c, 0, 66, 64
2, 571328, Note_off_c, 0, 64, 64
2, 571328, Note_on_c, 0, 63, 100
2, 571328, Note_on_c, 0, 52, 100
2, 571328, Note_off_c, 0, 51, 64
2, 571584, Note_on_c, 0, 66, 100
2, 571584, Note_off_c, 0, 68, 64
2, 571584, Note_on_c, 0, 59, 100
2, 571584, Note_on_c, 0, 64, 100
2, 571584, Note_off_c, 0, 63, 64
2, 571584, Note_on_c, 0, 51, 100
2, 571584, Note_off_c, 0, 52, 64
2, 571840, Note_on_c, 0, 68, 100
2, 571840, Note_off_c, 0, 66, 64
2, 571840, Note_off_c, 0, 64, 64
2, 571840, Note_off_c, 0, 51, 64
2, 571840, Note_on_c, 0, 51, 100
2, 572096, Note_on_c, 0, 66, 100
2, 572096, Note_on_c, 0, 64, 100
2, 572224, Note_off_c, 0, 64, 64
2, 572224, Note_on_c, 0, 63, 100
2, 572352, Note_off_c, 0, 66, 64
2, 572352, Note_on_c, 0, 70, 100
2, 572352, Note_off_c, 0, 63, 64
2, 572352, Note_on_c, 0, 62, 100
2, 572352, Note_off_c, 0, 51, 64
2, 572352, Note_on_c, 0, 49, 100
2, 572608, Note_off_c, 0, 66, 64
2, 572608, Note_on_c, 0, 66, 100
2, 572608, Note_off_c, 0, 49, 64
2, 572608, Note_off_c, 0, 42, 64
2, 572864, Note_off_c, 0, 66, 64
2, 572864, Note_off_c, 0, 68, 64
2, 572864, Note_off_c, 0, 62, 64
2, 572864, Note_off_c, 0, 61, 64
2, 572864, Note_on_c, 0, 42, 100
2, 572864, Note_off_c, 0, 44, 64
2, 573120, Note_on_c, 0, 61, 100
2, 573120, Note_off_c, 0, 59, 64
2, 573120, Note_off_c, 0, 44, 64
2, 573120, Note_on_c, 0, 44, 100
2, 573376, Note_on_c, 0, 68, 100
2, 573376, Note_on_c, 0, 66, 100
2, 573376, Note_off_c, 0, 59, 64
2, 573376, Note_off_c, 0, 61, 64
2, 573376, Note_on_c, 0, 61, 100
2, 573376, Note_on_c, 0, 59, 100
2, 573376, Note_off_c, 0, 44, 64
2, 573376, Note_off_c, 0, 54, 64
2, 573376, Note_off_c, 0, 42, 64
2, 573632, Note_on_c, 0, 54, 100
2, 573632, Note_on_c, 0, 56, 100
2, 573888, Note_off_c, 0, 66, 64
2, 573888, Note_on_c, 0, 66, 100
2, 573888, Note_off_c, 0, 59, 64
2, 573888, Note_on_c, 0, 59, 100
2, 574144, Note_off_c, 0, 66, 64
2, 574144, Note_on_c, 0, 71, 100
2, 574144, Note_off_c, 0, 59, 64
2, 574144, Note_on_c, 0, 62, 100
2, 574400, Note_off_c, 0, 62, 64
2, 574400, Note_on_c, 0, 63, 100
2, 574400, Note_off_c, 0, 54, 64
2, 574400, Note_on_c, 0, 59, 100
2, 574400, Note_on_c, 0, 41, 100
2, 574400, Note_off_c, 0, 46, 64
2, 574656, Note_on_c, 0, 58, 100
2, 574656, Note_off_c, 0, 56, 64
2, 574912, Note_off_c, 0, 63, 64
2, 574912, Note_off_c, 0, 61, 64
2, 574912, Note_on_c, 0, 56, 100
2, 574912, Note_off_c, 0, 58, 64
2, 574912, Note_off_c, 0, 46, 64
2, 574912, Note_on_c, 0, 46, 100
2, 574912, Note_on_c, 0, 34, 100
2, 575168, Note_on_c, 0, 49, 100
2, 575168, Note_on_c, 0, 51, 100
2, 575296, Note_off_c, 0, 51, 64
2, 575296, Note_off_c, 0, 52, 64
2, 575296, Note_off_c, 0, 37, 64
2, 575296, Note_on_c, 0, 52, 100
2, 575424, Note_on_c, 0, 64, 100
2, 575424, Note_on_c, 0, 73, 100
2, 575424, Note_off_c, 0, 73, 64
2, 575424, Note_on_c, 0, 73, 100
2, 575424, Note_off_c, 0, 71, 64
2, 575424, Note_off_c, 0, 70, 64
2, 575424, Note_off_c, 0, 59, 64
2, 575424, Note_on_c, 0, 59, 100
2, 575424, Note_off_c, 0, 56, 64
2, 575424, Note_on_c, 0, 54, 100
2, 575424, Note_off_c, 0, 49, 64
2, 575424, Note_on_c, 0, 51, 100
2, 575936, Note_on_c, 0, 49, 100
2, 575936, Note_off_c, 0, 51, 64
2, 576192, Note_off_c, 0, 51, 64
2, 576192, Note_off_c, 0, 59, 64
2, 576192, Note_on_c, 0, 58, 100
2, 576192, Note_off_c, 0, 52, 64
2, 576192, Note_on_c, 0, 51, 100
2, 576192, Note_off_c, 0, 46, 64
2, 576448, Note_off_c, 0, 64, 64
2, 576448, Note_on_c, 0, 63, 100
2, 576448, Note_off_c, 0, 58, 64
2, 576448, Note_on_c, 0, 56, 100
2, 576448, Note_off_c, 0, 54, 64
2, 576448, Note_off_c, 0, 49, 64
2, 576448, Note_on_c, 0, 46, 100
2, 576704, Note_off_c, 0, 63, 64
2, 576704, Note_on_c, 0, 63, 100
2, 576832, Note_off_c, 0, 56, 64
2, 576832, Note_on_c, 0, 64, 100
2, 576832, Note_on_c, 0, 59, 100
2, 576832, Note_on_c, 0, 58, 100
2, 576960, Note_off_c, 0, 64, 64
2, 576960, Note_on_c, 0, 66, 100
2, 576960, Note_off_c, 0, 58, 64
2, 576960, Note_on_c, 0, 58, 100
2, 576960, Note_on_c, 0, 47, 100
2, 576960, Note_off_c, 0, 46, 64
2, 577216, Note_off_c, 0, 66, 64
2, 577216, Note_off_c, 0, 68, 64
2, 577216, Note_off_c, 0, 59, 64
2, 577216, Note_on_c, 0, 59, 100
2, 577216, Note_off_c, 0, 47, 64
2, 577216, Note_on_c, 0, 49, 100
2, 577216, Note_on_c, 0, 47, 100
2, 577472, Note_on_c, 0, 68, 100
2, 577472, Note_on_c, 0, 67, 100
2, 577472, Note_off_c, 0, 59, 64
2, 577472, Note_on_c, 0, 59, 100
2, 577472, Note_off_c, 0, 46, 64
2, 577472, Note_off_c, 0, 47, 64
2, 577472, Note_on_c, 0, 46, 100
2, 577728, Note_off_c, 0, 58, 64
2, 577728, Note_on_c, 0, 61, 100
2, 577984, Note_off_c, 0, 67, 64
2, 577984, Note_on_c, 0, 66, 100
2, 577984, Note_off_c, 0, 61, 64
2, 577984, Note_on_c, 0, 62, 100
2, 577984, Note_off_c, 0, 46, 64
2, 577984, Note_on_c, 0, 44, 100
2, 577984, Note_on_c, 0, 42, 100
2, 578240, Note_off_c, 0, 66, 64
2, 578240, Note_off_c, 0, 63, 64
2, 578240, Note_off_c, 0, 62, 64
2, 578240, Note_on_c, 0, 58, 100
2, 578240, Note_off_c, 0, 54, 64
2, 578240, Note_on_c, 0, 56, 100
2, 578240, Note_on_c, 0, 54, 100
2, 578496, Note_on_c, 0, 63, 100
2, 578496, Note_on_c, 0, 64, 100
2, 578496, Note_off_c, 0, 58, 64
2, 578496, Note_on_c, 0, 58, 100
2, 578496, Note_off_c, 0, 54, 64
2, 578496, Note_off_c, 0, 58, 64
2, 578496, Note_off_c, 0, 42, 64
2, 578496, Note_on_c, 0, 46, 100
2, 578752, Note_on_c, 0, 58, 100
2, 578752, Note_off_c, 0, 52, 64
2, 578752, Note_on_c, 0, 52, 100
2, 578752, Note_on_c, 0, 54, 100
2, 579008, Note_on_c, 0, 70, 100
2, 579008, Note_on_c, 0, 71, 100
2, 579008, Note_off_c, 0, 64, 64
2, 579008, Note_on_c, 0, 64, 100
2, 579008, Note_off_c, 0, 56, 64
2, 579008, Note_off_c, 0, 54, 64
2, 579008, Note_on_c, 0, 56, 100
2, 579008, Note_off_c, 0, 52, 64
2, 579520, Note_off_c, 0, 71, 64
2, 579520, Note_off_c, 0, 73, 64
2, 579520, Note_off_c, 0, 64, 64
2, 579520, Note_on_c, 0, 66, 100
2, 579520, Note_off_c, 0, 56, 64
2, 579520, Note_off_c, 0, 59, 64
2, 579520, Note_on_c, 0, 52, 100
2, 579520, Note_on_c, 0, 47, 100
2, 579776, Note_off_c, 0, 66, 64
2, 579776, Note_on_c, 0, 67, 100
2, 580544, Note_on_c, 0, 73, 100
2, 580544, Note_off_c, 0, 74, 64
2, 580544, Note_off_c, 0, 67, 64
2, 580544, Note_off_c, 0, 68, 64
2, 580544, Note_on_c, 0, 59, 100
2, 580544, Note_off_c, 0, 58, 64
2, 580544, Note_off_c, 0, 46, 64
2, 580544, Note_off_c, 0, 52, 64
2, 580800, Note_off_c, 0, 59, 64
2, 580800, Note_on_c, 0, 59, 100
2, 581056, Note_on_c, 0, 74, 100
2, 581056, Note_off_c, 0, 73, 64
2, 581056, Note_on_c, 0, 68, 100
2, 581056, Note_on_c, 0, 67, 100
2, 581056, Note_off_c, 0, 59, 64
2, 581056, Note_on_c, 0, 58, 100
2, 581312, Note_off_c, 0, 58, 64
2, 581312, Note_off_c, 0, 51, 64
2, 581568, Note_on_c, 0, 73, 100
2, 581568, Note_on_c, 0, 72, 100
2, 581568, Note_off_c, 0, 67, 64
2, 581568, Note_on_c, 0, 66, 100
2, 581568, Note_on_c, 0, 51, 100
2, 581568, Note_on_c, 0, 54, 100
2, 582080, Note_off_c, 0, 72, 64
2, 582080, Note_on_c, 0, 71, 100
2, 582080, Note_off_c, 0, 66, 64
2, 582080, Note_on_c, 0, 62, 100
2, 582080, Note_off_c, 0, 54, 64
2, 582080, Note_on_c, 0, 55, 100
2, 582336, Note_off_c, 0, 55, 64
2, 582336, Note_on_c, 0, 53, 100
2, 582592, Note_off_c, 0, 69, 64
2, 582592, Note_off_c, 0, 71, 64
2, 582592, Note_off_c, 0, 62, 64
2, 582592, Note_on_c, 0, 62, 100
2, 582592, Note_on_c, 0, 59, 100
2, 582592, Note_off_c, 0, 53, 64
2, 582592, Note_on_c, 0, 54, 100
2, 583104, Note_on_c, 0, 71, 100
2, 583104, Note_on_c, 0, 72, 100
2, 583104, Note_off_c, 0, 62, 64
2, 583104, Note_on_c, 0, 64, 100
2, 583104, Note_off_c, 0, 59, 64
2, 583104, Note_on_c, 0, 57, 100
2, 583104, Note_on_c, 0, 53, 100
2, 583104, Note_on_c, 0, 52, 100
2, 583232, Note_off_c, 0, 52, 64
2, 583232, Note_off_c, 0, 50, 64
2, 583360, Note_off_c, 0, 57, 64
2, 583360, Note_on_c, 0, 55, 100
2, 583360, Note_on_c, 0, 50, 100
2, 583360, Note_on_c, 0, 48, 100
2, 583488, Note_off_c, 0, 57, 64
2, 583488, Note_on_c, 0, 57, 100
2, 583616, Note_off_c, 0, 59, 64
2, 583616, Note_on_c, 0, 59, 100
2, 583616, Note_off_c, 0, 55, 64
2, 583616, Note_off_c, 0, 53, 64
2, 583744, Note_on_c, 0, 55, 100
2, 583744, Note_off_c, 0, 57, 64
2, 583872, Note_off_c, 0, 59, 64
2, 583872, Note_off_c, 0, 48, 64
2, 583872, Note_on_c, 0, 48, 100
2, 584128, Note_off_c, 0, 72, 64
2, 584128, Note_off_c, 0, 71, 64
2, 584128, Note_off_c, 0, 60, 64
2, 584128, Note_on_c, 0, 59, 100
2, 584128, Note_off_c, 0, 55, 64
2, 584128, Note_on_c, 0, 53, 100
2, 584128, Note_on_c, 0, 52, 100
2, 584128, Note_off_c, 0, 43, 64
2, 584384, Note_off_c, 0, 59, 64
2, 584384, Note_on_c, 0, 60, 100
2, 584384, Note_on_c, 0, 55, 100
2, 584384, Note_off_c, 0, 53, 64
2, 584640, Note_on_c, 0, 71, 100
2, 584640, Note_on_c, 0, 72, 100
2, 584640, Note_off_c, 0, 60, 64
2, 584640, Note_on_c, 0, 60, 100
2, 584640, Note_on_c, 0, 53, 100
2, 584640, Note_off_c, 0, 55, 64
2, 584896, Note_off_c, 0, 72, 64
2, 584896, Note_on_c, 0, 67, 100
2, 584896, Note_on_c, 0, 65, 100
2, 584896, Note_off_c, 0, 60, 64
2, 584896, Note_on_c, 0, 55, 100
2, 584896, Note_off_c, 0, 53, 64
2, 585152, Note_off_c, 0, 65, 64
2, 585152, Note_off_c, 0, 63, 64
2, 585152, Note_on_c, 0, 59, 100
2, 585152, Note_on_c, 0, 60, 100
2, 585152, Note_on_c, 0, 53, 100
2, 585152, Note_off_c, 0, 51, 64
2, 585408, Note_on_c, 0, 63, 100
2, 585408, Note_on_c, 0, 62, 100
2, 585408, Note_off_c, 0, 60, 64
2, 585408, Note_off_c, 0, 59, 64
2, 585408, Note_on_c, 0, 51, 100
2, 585408, Note_off_c, 0, 53, 64
2, 585664, Note_off_c, 0, 67, 64
2, 585664, Note_on_c, 0, 67, 100
2, 585664, Note_off_c, 0, 62, 64
2, 585664, Note_on_c, 0, 62, 100
2, 585664, Note_off_c, 0, 59, 64
2, 585664, Note_on_c, 0, 59, 100
2, 585664, Note_on_c, 0, 53, 100
2, 585664, Note_off_c, 0, 55, 64
2, 585664, Note_on_c, 0, 55, 100
2, 585920, Note_off_c, 0, 62, 64
2, 585920, Note_off_c, 0, 63, 64
2, 585920, Note_off_c, 0, 59, 64
2, 585920, Note_on_c, 0, 60, 100
2, 586176, Note_on_c, 0, 63, 100
2, 586176, Note_off_c, 0, 74, 64
2, 586176, Note_off_c, 0, 67, 64
2, 586176, Note_on_c, 0, 65, 100
2, 586176, Note_off_c, 0, 60, 64
2, 586176, Note_on_c, 0, 60, 100
2, 586176, Note_off_c, 0, 55, 64
2, 586176, Note_off_c, 0, 53, 64
2, 586432, Note_off_c, 0, 60, 64
2, 586432, Note_on_c, 0, 62, 100
2, 586688, Note_on_c, 0, 74, 100
2, 586688, Note_on_c, 0, 67, 100
2, 586688, Note_off_c, 0, 65, 64
2, 586688, Note_on_c, 0, 65, 100
2, 586688, Note_off_c, 0, 62, 64
2, 586688, Note_on_c, 0, 56, 100
2, 586688, Note_off_c, 0, 51, 64
2, 586688, Note_on_c, 0, 53, 100
2, 586688, Note_on_c, 0, 51, 100
2, 587200, Note_off_c, 0, 67, 64
2, 587200, Note_off_c, 0, 65, 64
2, 587200, Note_on_c, 0, 55, 100
2, 587200, Note_off_c, 0, 56, 64
2, 587200, Note_off_c, 0, 51, 64
2, 587456, Note_off_c, 0, 63, 64
2, 587456, Note_on_c, 0, 62, 100
2, 587712, Note_on_c, 0, 65, 100
2, 587712, Note_on_c, 0, 69, 100
2, 587712, Note_off_c, 0, 62, 64
2, 587712, Note_on_c, 0, 63, 100
2, 587712, Note_on_c, 0, 60, 100
2, 587712, Note_on_c, 0, 57, 100
2, 587712, Note_off_c, 0, 53, 64
2, 587712, Note_on_c, 0, 53, 100
2, 587712, Note_on_c, 0, 51, 100
2, 588224, Note_off_c, 0, 69, 64
2, 588224, Note_off_c, 0, 71, 64
2, 588224, Note_off_c, 0, 60, 64
2, 588224, Note_off_c, 0, 65, 64
2, 588224, Note_on_c, 0, 65, 100
2, 588224, Note_off_c, 0, 53, 64
2, 588224, Note_off_c, 0, 51, 64
2, 588224, Note_off_c, 0, 57, 64
2, 588224, Note_on_c, 0, 60, 100
2, 588224, Note_on_c, 0, 59, 100
2, 588480, Note_off_c, 0, 47, 64
2, 588480, Note_off_c, 0, 48, 64
2, 588480, Note_on_c, 0, 47, 100
2, 588736, Note_on_c, 0, 71, 100
2, 588736, Note_on_c, 0, 69, 100
2, 588736, Note_off_c, 0, 65, 64
2, 588736, Note_off_c, 0, 63, 64
2, 588736, Note_off_c, 0, 60, 64
2, 588736, Note_on_c, 0, 60, 100
2, 588736, Note_on_c, 0, 48, 100
2, 588736, Note_off_c, 0, 47, 64
2, 588736, Note_off_c, 0, 60, 64
2, 588736, Note_on_c, 0, 53, 100
2, 588992, Note_on_c, 0, 47, 100
2, 588992, Note_on_c, 0, 45, 100
2, 588992, Note_on_c, 0, 65, 100
2, 588992, Note_on_c, 0, 62, 100
2, 589248, Note_off_c, 0, 69, 64
2, 589248, Note_on_c, 0, 67, 100
2, 589248, Note_off_c, 0, 62, 64
2, 589248, Note_on_c, 0, 62, 100
2, 589248, Note_off_c, 0, 59, 64
2, 589248, Note_on_c, 0, 59, 100
2, 589248, Note_off_c, 0, 55, 64
2, 589248, Note_on_c, 0, 55, 100
2, 589504, Note_off_c, 0, 47, 64
2, 589504, Note_off_c, 0, 44, 64
2, 589504, Note_on_c, 0, 43, 100
2, 589760, Note_off_c, 0, 62, 64
2, 589760, Note_on_c, 0, 63, 100
2, 589760, Note_off_c, 0, 60, 64
2, 589760, Note_on_c, 0, 60, 100
2, 589760, Note_off_c, 0, 48, 64
2, 589760, Note_off_c, 0, 51, 64
2, 589760, Note_off_c, 0, 67, 64
2, 589760, Note_on_c, 0, 69, 100
2, 589760, Note_on_c, 0, 51, 100
2, 590016, Note_off_c, 0, 69, 64
2, 590016, Note_off_c, 0, 71, 64
2, 590272, Note_on_c, 0, 71, 100
2, 590272, Note_on_c, 0, 69, 100
2, 590272, Note_off_c, 0, 72, 64
2, 590272, Note_on_c, 0, 72, 100
2, 590272, Note_off_c, 0, 60, 64
2, 590272, Note_on_c, 0, 60, 100
2, 590272, Note_off_c, 0, 55, 64
2, 590272, Note_on_c, 0, 48, 100
2, 590272, Note_on_c, 0, 47, 100
2, 590528, Note_off_c, 0, 63, 64
2, 590528, Note_on_c, 0, 62, 100
2, 590528, Note_off_c, 0, 45, 64
2, 590528, Note_off_c, 0, 47, 64
2, 590784, Note_off_c, 0, 72, 64
2, 590784, Note_off_c, 0, 71, 64
2, 590784, Note_off_c, 0, 62, 64
2, 590784, Note_on_c, 0, 63, 100
2, 590784, Note_off_c, 0, 48, 64
2, 590784, Note_on_c, 0, 45, 100
2, 590784, Note_off_c, 0, 43, 64
2, 590784, Note_on_c, 0, 44, 100
2, 590784, Note_off_c, 0, 68, 64
2, 592832, Note_off_c, 0, 71, 64
2, 592832, Note_off_c, 0, 64, 64
2, 592832, Note_on_c, 0, 64, 100
2, 592832, Note_off_c, 0, 56, 64
2, 592832, Note_off_c, 0, 44, 64
2, 592832, Note_on_c, 0, 71, 100
2, 592832, Note_on_c, 0, 68, 100
2, 592832, Note_on_c, 0, 56, 100
2, 593088, Note_off_c, 0, 71, 64
2, 593088, Note_on_c, 0, 67, 100
2, 593088, Note_off_c, 0, 64, 64
2, 593088, Note_on_c, 0, 64, 100
2, 593088, Note_off_c, 0, 45, 64
2, 593088, Note_off_c, 0, 52, 64
2, 593088, Note_off_c, 0, 51, 64
2, 593344, Note_off_c, 0, 64, 64
2, 593344, Note_off_c, 0, 60, 64
2, 593344, Note_on_c, 0, 52, 100
2, 593344, Note_off_c, 0, 45, 64
2, 593344, Note_on_c, 0, 47, 100
2, 593344, Note_off_c, 0, 76, 64
2, 593344, Note_on_c, 0, 76, 100
2, 593344, Note_off_c, 0, 69, 64
2, 593344, Note_off_c, 0, 67, 64
2, 593344, Note_on_c, 0, 60, 100
2, 593344, Note_on_c, 0, 64, 100
2, 593344, Note_on_c, 0, 45, 100
2, 593344, Note_on_c, 0, 48, 100
2, 593856, Note_off_c, 0, 76, 64
2, 593856, Note_off_c, 0, 67, 64
2, 593856, Note_on_c, 0, 67, 100
2, 593856, Note_off_c, 0, 64, 64
2, 593856, Note_on_c, 0, 64, 100
2, 593856, Note_off_c, 0, 48, 64
2, 593856, Note_off_c, 0, 47, 64
2, 593856, Note_on_c, 0, 76, 100
2, 593856, Note_off_c, 0, 76, 64
2, 593856, Note_on_c, 0, 48, 100
2, 594112, Note_off_c, 0, 67, 64
2, 594112, Note_on_c, 0, 67, 100
2, 594112, Note_off_c, 0, 64, 64
2, 594112, Note_on_c, 0, 62, 100
2, 594112, Note_on_c, 0, 47, 100
2, 594112, Note_off_c, 0, 55, 64
2, 594112, Note_on_c, 0, 55, 100
2, 594368, Note_on_c, 0, 71, 100
2, 594368, Note_on_c, 0, 69, 100
2, 594368, Note_off_c, 0, 62, 64
2, 594368, Note_on_c, 0, 62, 100
2, 594368, Note_off_c, 0, 48, 64
2, 594368, Note_off_c, 0, 50, 64
2, 594368, Note_on_c, 0, 66, 100
2, 594368, Note_off_c, 0, 67, 64
2, 594368, Note_off_c, 0, 62, 64
2, 594368, Note_off_c, 0, 59, 64
2, 594368, Note_on_c, 0, 50, 100
2, 594368, Note_on_c, 0, 43, 100
2, 594880, Note_off_c, 0, 71, 64
2, 594880, Note_on_c, 0, 71, 100
2, 594880, Note_off_c, 0, 66, 64
2, 594880, Note_on_c, 0, 64, 100
2, 594880, Note_on_c, 0, 62, 100
2, 594880, Note_off_c, 0, 54, 64
2, 594880, Note_on_c, 0, 59, 100
2, 594880, Note_off_c, 0, 55, 64
2, 594880, Note_off_c, 0, 43, 64
2, 594880, Note_off_c, 0, 50, 64
2, 595136, Note_on_c, 0, 67, 100
2, 595136, Note_on_c, 0, 66, 100
2, 595136, Note_off_c, 0, 64, 64
2, 595136, Note_off_c, 0, 62, 64
2, 595392, Note_off_c, 0, 67, 64
2, 595392, Note_on_c, 0, 64, 100
2, 595392, Note_on_c, 0, 55, 100
2, 595392, Note_on_c, 0, 54, 100
2, 595392, Note_off_c, 0, 52, 64
2, 595392, Note_on_c, 0, 50, 100
2, 595392, Note_on_c, 0, 48, 100
2, 595648, Note_off_c, 0, 66, 64
2, 595648, Note_off_c, 0, 64, 64
2, 595648, Note_on_c, 0, 64, 100
2, 595648, Note_on_c, 0, 57, 100
2, 595648, Note_off_c, 0, 55, 64
2, 595904, Note_off_c, 0, 71, 64
2, 595904, Note_on_c, 0, 71, 100
2, 595904, Note_off_c, 0, 67, 64
2, 595904, Note_on_c, 0, 67, 100
2, 595904, Note_on_c, 0, 62, 100
2, 595904, Note_off_c, 0, 57, 64
2, 595904, Note_on_c, 0, 52, 100
2, 596416, Note_off_c, 0, 67, 64
2, 596416, Note_off_c, 0, 69, 64
2, 596416, Note_off_c, 0, 71, 64
2, 596416, Note_off_c, 0, 66, 64
2, 596416, Note_on_c, 0, 66, 100
2, 596416, Note_on_c, 0, 67, 100
2, 596416, Note_off_c, 0, 62, 64
2, 596416, Note_on_c, 0, 61, 100
2, 596416, Note_off_c, 0, 50, 64
2, 596416, Note_off_c, 0, 52, 64
2, 596416, Note_on_c, 0, 50, 100
2, 596416, Note_on_c, 0, 55, 100
2, 596416, Note_off_c, 0, 47, 64
2, 596800, Note_off_c, 0, 66, 64
2, 596800, Note_off_c, 0, 64, 64
2, 596928, Note_on_c, 0, 69, 100
2, 596928, Note_off_c, 0, 64, 64
2, 596928, Note_off_c, 0, 67, 64
2, 596928, Note_off_c, 0, 61, 64
2, 596928, Note_on_c, 0, 62, 100
2, 596928, Note_on_c, 0, 64, 100
2, 596928, Note_off_c, 0, 50, 64
2, 596928, Note_off_c, 0, 55, 64
2, 596928, Note_on_c, 0, 50, 100
2, 596928, Note_on_c, 0, 55, 100
2, 596928, Note_off_c, 0, 50, 64
2, 597184, Note_off_c, 0, 62, 64
2, 597184, Note_off_c, 0, 60, 64
2, 597184, Note_on_c, 0, 50, 100
2, 597184, Note_on_c, 0, 52, 100
2, 597440, Note_off_c, 0, 64, 64
2, 597440, Note_on_c, 0, 66, 100
2, 597440, Note_on_c, 0, 62, 100
2, 597440, Note_on_c, 0, 60, 100
2, 597440, Note_off_c, 0, 57, 64
2, 597440, Note_on_c, 0, 57, 100
2, 597440, Note_off_c, 0, 50, 64
2, 597440, Note_off_c, 0, 48, 64
2, 597696, Note_off_c, 0, 66, 64
2, 597696, Note_on_c, 0, 64, 100
2, 597696, Note_off_c, 0, 62, 64
2, 597696, Note_off_c, 0, 57, 64
2, 597696, Note_off_c, 0, 55, 64
2, 597824, Note_on_c, 0, 62, 100
2, 597824, Note_off_c, 0, 59, 64
2, 597824, Note_off_c, 0, 60, 64
2, 597824, Note_off_c, 0, 64, 64
2, 597952, Note_on_c, 0, 64, 100
2, 597952, Note_on_c, 0, 66, 100
2, 597952, Note_on_c, 0, 59, 100
2, 597952, Note_off_c, 0, 62, 64
2, 597952, Note_off_c, 0, 48, 64
2, 597952, Note_off_c, 0, 50, 64
2, 597952, Note_on_c, 0, 48, 100
2, 597952, Note_on_c, 0, 50, 100
2, 598208, Note_off_c, 0, 65, 64
2, 598208, Note_on_c, 0, 62, 100
2, 598208, Note_on_c, 0, 60, 100
2, 598336, Note_off_c, 0, 66, 64
2, 598336, Note_on_c, 0, 67, 100
2, 598336, Note_off_c, 0, 62, 64
2, 598336, Note_off_c, 0, 60, 64
2, 598336, Note_off_c, 0, 57, 64
2, 598336, Note_on_c, 0, 57, 100
2, 598336, Note_on_c, 0, 55, 100
2, 598336, Note_off_c, 0, 52, 64
2, 598336, Note_off_c, 0, 50, 64
2, 598336, Note_off_c, 0, 48, 64
2, 598464, Note_off_c, 0, 67, 64
2, 598464, Note_off_c, 0, 69, 64
2, 598464, Note_on_c, 0, 62, 100
2, 598464, Note_off_c, 0, 60, 64
2, 598464, Note_on_c, 0, 60, 100
2, 598464, Note_off_c, 0, 57, 64
2, 598464, Note_off_c, 0, 55, 64
2, 598464, Note_on_c, 0, 57, 100
2, 598464, Note_off_c, 0, 50, 64
2, 598464, Note_on_c, 0, 50, 100
2, 598976, Note_on_c, 0, 69, 100
2, 598976, Note_on_c, 0, 67, 100
2, 598976, Note_off_c, 0, 62, 64
2, 598976, Note_on_c, 0, 62, 100
2, 598976, Note_off_c, 0, 60, 64
2, 598976, Note_on_c, 0, 60, 100
2, 598976, Note_off_c, 0, 57, 64
2, 598976, Note_off_c, 0, 50, 64
2, 598976, Note_off_c, 0, 48, 64
2, 598976, Note_on_c, 0, 50, 100
2, 598976, Note_on_c, 0, 48, 100
2, 598976, Note_off_c, 0, 38, 64
2, 599232, Note_off_c, 0, 50, 64
2, 599232, Note_off_c, 0, 48, 64
2, 599232, Note_on_c, 0, 38, 100
2, 599232, Note_off_c, 0, 45, 64
2, 599488, Note_off_c, 0, 67, 64
2, 599488, Note_off_c, 0, 64, 64
2, 599488, Note_off_c, 0, 62, 64
2, 599488, Note_off_c, 0, 60, 64
2, 599488, Note_on_c, 0, 52, 100
2, 599488, Note_on_c, 0, 57, 100
2, 599488, Note_on_c, 0, 45, 100
2, 599488, Note_off_c, 0, 43, 64
2, 599488, Note_off_c, 0, 36, 64
2, 599488, Note_on_c, 0, 43, 100
2, 600000, Note_off_c, 0, 74, 64
2, 600000, Note_on_c, 0, 72, 100
2, 600000, Note_off_c, 0, 67, 64
2, 600000, Note_on_c, 0, 67, 100
2, 600000, Note_on_c, 0, 62, 100
2, 600000, Note_on_c, 0, 64, 100
2, 600000, Note_on_c, 0, 55, 100
2, 600000, Note_off_c, 0, 52, 64
2, 600000, Note_off_c, 0, 43, 64
2, 600000, Note_on_c, 0, 48, 100
2, 600000, Note_on_c, 0, 43, 100
2, 600256, Note_off_c, 0, 48, 64
2, 600256, Note_on_c, 0, 50, 100
2, 600512, Note_off_c, 0, 72, 64
2, 600512, Note_on_c, 0, 71, 100
2, 600512, Note_off_c, 0, 67, 64
2, 600512, Note_on_c, 0, 67, 100
2, 600512, Note_off_c, 0, 64, 64
2, 600512, Note_off_c, 0, 62, 64
2, 600512, Note_off_c, 0, 50, 64
2, 600512, Note_off_c, 0, 55, 64
2, 600512, Note_on_c, 0, 50, 100
2, 600512, Note_off_c, 0, 43, 64
2, 600512, Note_off_c, 0, 38, 64
2, 600512, Note_on_c, 0, 79, 100
2, 600768, Note_off_c, 0, 50, 64
2, 600768, Note_on_c, 0, 48, 100
2, 600768, Note_on_c, 0, 43, 100
2, 601024, Note_off_c, 0, 71, 64
2, 601024, Note_on_c, 0, 72, 100
2, 601024, Note_off_c, 0, 67, 64
2, 601024, Note_off_c, 0, 69, 64
2, 601024, Note_on_c, 0, 62, 100
2, 601024, Note_on_c, 0, 64, 100
2, 601024, Note_off_c, 0, 43, 64
2, 601024, Note_off_c, 0, 45, 64
2, 601024, Note_on_c, 0, 40, 100
2, 601024, Note_on_c, 0, 45, 100
2, 601024, Note_off_c, 0, 36, 64
2, 601024, Note_on_c, 0, 36, 100
2, 601280, Note_off_c, 0, 64, 64
2, 601280, Note_on_c, 0, 60, 100
2, 601536, Note_off_c, 0, 69, 64
2, 601536, Note_on_c, 0, 69, 100
2, 601536, Note_off_c, 0, 60, 64
2, 601536, Note_off_c, 0, 62, 64
2, 601536, Note_off_c, 0, 45, 64
2, 601536, Note_on_c, 0, 47, 100
2, 601536, Note_off_c, 0, 36, 64
2, 601536, Note_off_c, 0, 35, 64
2, 601536, Note_off_c, 0, 33, 64
2, 601792, Note_off_c, 0, 69, 64
2, 601792, Note_on_c, 0, 71, 100
2, 601792, Note_on_c, 0, 62, 100
2, 601792, Note_on_c, 0, 64, 100
2, 602048, Note_off_c, 0, 71, 64
2, 602048, Note_on_c, 0, 69, 100
2, 602048, Note_off_c, 0, 64, 64
2, 602048, Note_on_c, 0, 64, 100
2, 602048, Note_on_c, 0, 38, 100
2, 602048, Note_off_c, 0, 48, 64
2, 602304, Note_off_c, 0, 64, 64
2, 602304, Note_on_c, 0, 65, 100
2, 602560, Note_off_c, 0, 69, 64
2, 602560, Note_off_c, 0, 72, 64
2, 602560, Note_off_c, 0, 65, 64
2, 602560, Note_on_c, 0, 64, 100
2, 602560, Note_on_c, 0, 65, 100
2, 602560, Note_on_c, 0, 67, 100
2, 602560, Note_on_c, 0, 48, 100
2, 602560, Note_off_c, 0, 41, 64
2, 602560, Note_on_c, 0, 36, 100
2, 602816, Note_on_c, 0, 43, 100
2, 602816, Note_off_c, 0, 41, 64
2, 602816, Note_on_c, 0, 41, 100
2, 603328, Note_off_c, 0, 79, 64
2, 603328, Note_on_c, 0, 77, 100
2, 603328, Note_off_c, 0, 41, 64
2, 603328, Note_off_c, 0, 40, 64
2, 603584, Note_on_c, 0, 72, 100
2, 603584, Note_off_c, 0, 77, 64
2, 603584, Note_off_c, 0, 64, 64
2, 603584, Note_off_c, 0, 62, 64
2, 603584, Note_on_c, 0, 40, 100
2, 603584, Note_on_c, 0, 41, 100
2, 603840, Note_off_c, 0, 65, 64
2, 603840, Note_on_c, 0, 60, 100
2, 603840, Note_off_c, 0, 41, 64
2, 603840, Note_off_c, 0, 40, 64
2, 604096, Note_on_c, 0, 77, 100
2, 604096, Note_on_c, 0, 76, 100
2, 604096, Note_on_c, 0, 62, 100
2, 604096, Note_off_c, 0, 60, 64
2, 604096, Note_off_c, 0, 59, 64
2, 604096, Note_on_c, 0, 60, 100
2, 604096, Note_off_c, 0, 43, 64
2, 604096, Note_off_c, 0, 36, 64
2, 604352, Note_off_c, 0, 60, 64
2, 604352, Note_on_c, 0, 59, 100
2, 604352, Note_off_c, 0, 57, 64
2, 604640, Note_on_c, 0, 81, 100
2, 604640, Note_on_c, 0, 79, 100
2, 604640, Note_on_c, 0, 65, 100
2, 604640, Note_off_c, 0, 67, 64
2, 604640, Note_on_c, 0, 60, 100
2, 604640, Note_off_c, 0, 59, 64
2, 604640, Note_off_c, 0, 49, 64
2, 604640, Note_off_c, 0, 47, 64
2, 604640, Note_on_c, 0, 33, 100
2, 604640, Note_on_c, 0, 35, 100
2, 606432, Note_on_c, 0, 47, 100
2, 606432, Note_on_c, 0, 49, 100
2, 606432, Note_off_c, 0, 35, 64
2, 606432, Note_off_c, 0, 33, 64
2, 606688, Note_off_c, 0, 76, 64
2, 606688, Note_off_c, 0, 81, 64
2, 606688, Note_off_c, 0, 67, 64
2, 606688, Note_on_c, 0, 67, 100
2, 606688, Note_on_c, 0, 61, 100
2, 606688, Note_on_c, 0, 59, 100
2, 606688, Note_on_c, 0, 45, 100
2, 606688, Note_off_c, 0, 47, 64
2, 606688, Note_on_c, 0, 33, 100
2, 606688, Note_on_c, 0, 35, 100
2, 607968, Note_on_c, 0, 81, 100
2, 607968, Note_on_c, 0, 83, 100
2, 607968, Note_off_c, 0, 67, 64
2, 607968, Note_on_c, 0, 67, 100
2, 609504, Note_off_c, 0, 67, 64
2, 609504, Note_off_c, 0, 62, 64
2, 609504, Note_off_c, 0, 59, 64
2, 609504, Note_on_c, 0, 57, 100
2, 609504, Note_off_c, 0, 35, 64
2, 609504, Note_off_c, 0, 33, 64
2, 610528, Note_on_c, 0, 62, 100
2, 610528, Note_off_c, 0, 61, 64
2, 610528, Note_off_c, 0, 57, 64
2, 610528, Note_on_c, 0, 57, 100
2, 610784, Note_off_c, 0, 57, 64
2, 610784, Note_on_c, 0, 52, 100
2, 611040, Note_on_c, 0, 61, 100
2, 611040, Note_off_c, 0, 62, 64
2, 611040, Note_off_c, 0, 52, 64
2, 611040, Note_on_c, 0, 58, 100
2, 611296, Note_on_c, 0, 62, 100
2, 611296, Note_off_c, 0, 70, 64
2, 611552, Note_on_c, 0, 70, 100
2, 611552, Note_on_c, 0, 69, 100
2, 611552, Note_off_c, 0, 65, 64
2, 611552, Note_off_c, 0, 58, 64
2, 611552, Note_on_c, 0, 57, 100
2, 611808, Note_on_c, 0, 33, 100
2, 612064, Note_off_c, 0, 69, 64
2, 612064, Note_off_c, 0, 70, 64
2, 612064, Note_on_c, 0, 69, 100
2, 612064, Note_on_c, 0, 65, 100
2, 612064, Note_off_c, 0, 62, 64
2, 612064, Note_on_c, 0, 62, 100
2, 612064, Note_off_c, 0, 57, 64
2, 612064, Note_off_c, 0, 53, 64
2, 612064, Note_off_c, 0, 38, 64
2, 612064, Note_on_c, 0, 41, 100
2, 612320, Note_on_c, 0, 57, 100
2, 612320, Note_on_c, 0, 55, 100
2, 612576, Note_on_c, 0, 70, 100
2, 612576, Note_off_c, 0, 69, 64
2, 612576, Note_off_c, 0, 62, 64
2, 612576, Note_off_c, 0, 61, 64
2, 612576, Note_off_c, 0, 55, 64
2, 612576, Note_off_c, 0, 53, 64
2, 612576, Note_on_c, 0, 53, 100
2, 612576, Note_off_c, 0, 45, 64
2, 612576, Note_off_c, 0, 41, 64
2, 613600, Note_on_c, 0, 69, 100
2, 613600, Note_on_c, 0, 67, 100
2, 613600, Note_on_c, 0, 61, 100
2, 613600, Note_on_c, 0, 62, 100
2, 613600, Note_off_c, 0, 53, 64
2, 613600, Note_off_c, 0, 55, 64
2, 613600, Note_on_c, 0, 41, 100
2, 613600, Note_on_c, 0, 55, 100
2, 614112, Note_off_c, 0, 67, 64
2, 614112, Note_on_c, 0, 67, 100
2, 614112, Note_off_c, 0, 62, 64
2, 614112, Note_off_c, 0, 61, 64
2, 614112, Note_off_c, 0, 55, 64
2, 614112, Note_on_c, 0, 52, 100
2, 614112, Note_on_c, 0, 40, 100
2, 614112, Note_on_c, 0, 45, 100
2, 615136, Note_off_c, 0, 67, 64
2, 615136, Note_off_c, 0, 65, 64
2, 615136, Note_on_c, 0, 61, 100
2, 615136, Note_on_c, 0, 62, 100
2, 615136, Note_off_c, 0, 52, 64
2, 615136, Note_off_c, 0, 57, 64
2, 615136, Note_off_c, 0, 45, 64
2, 615136, Note_on_c, 0, 38, 100
2, 615648, Note_off_c, 0, 74, 64
2, 615648, Note_on_c, 0, 74, 100
2, 615648, Note_on_c, 0, 65, 100
2, 615648, Note_off_c, 0, 62, 64
2, 615648, Note_off_c, 0, 57, 64
2, 615648, Note_on_c, 0, 58, 100
2, 615648, Note_on_c, 0, 57, 100
2, 615648, Note_on_c, 0, 55, 100
2, 615648, Note_off_c, 0, 38, 64
2, 615648, Note_on_c, 0, 43, 100
2, 616160, Note_off_c, 0, 74, 64
2, 616160, Note_off_c, 0, 72, 64
2, 616160, Note_on_c, 0, 62, 100
2, 616160, Note_off_c, 0, 65, 64
2, 616160, Note_off_c, 0, 58, 64
2, 616160, Note_off_c, 0, 57, 64
2, 616160, Note_off_c, 0, 43, 64
2, 616160, Note_off_c, 0, 41, 64
2, 616416, Note_on_c, 0, 57, 100
2, 616416, Note_on_c, 0, 58, 100
2, 616672, Note_on_c, 0, 65, 100
2, 616672, Note_on_c, 0, 67, 100
2, 616672, Note_off_c, 0, 58, 64
2, 616672, Note_on_c, 0, 58, 100
2, 616928, Note_off_c, 0, 58, 64
2, 616928, Note_off_c, 0, 57, 64
2, 617184, Note_on_c, 0, 72, 100
2, 617184, Note_off_c, 0, 67, 64
2, 617184, Note_off_c, 0, 65, 64
2, 617440, Note_on_c, 0, 65, 100
2, 617440, Note_on_c, 0, 64, 100
2, 617696, Note_off_c, 0, 69, 64
2, 617696, Note_off_c, 0, 60, 64
2, 617696, Note_off_c, 0, 64, 64
2, 617696, Note_off_c, 0, 65, 64
2, 617696, Note_on_c, 0, 60, 100
2, 617696, Note_off_c, 0, 62, 64
2, 617696, Note_off_c, 0, 57, 64
2, 617696, Note_on_c, 0, 57, 100
2, 617696, Note_on_c, 0, 45, 100
2, 617696, Note_on_c, 0, 41, 100
2, 619232, Note_on_c, 0, 69, 100
2, 619232, Note_on_c, 0, 65, 100
2, 619232, Note_off_c, 0, 65, 64
2, 619232, Note_on_c, 0, 65, 100
2, 619232, Note_on_c, 0, 62, 100
2, 619232, Note_off_c, 0, 60, 64
2, 619232, Note_off_c, 0, 41, 64
2, 619232, Note_on_c, 0, 58, 100
2, 619232, Note_off_c, 0, 57, 64
2, 619744, Note_off_c, 0, 65, 64
2, 619744, Note_off_c, 0, 63, 64
2, 619744, Note_off_c, 0, 58, 64
2, 619744, Note_on_c, 0, 58, 100
2, 619744, Note_off_c, 0, 55, 64
2, 619744, Note_on_c, 0, 57, 100
2, 619744, Note_on_c, 0, 55, 100
2, 620000, Note_on_c, 0, 63, 100
2, 620000, Note_off_c, 0, 62, 64
2, 620000, Note_off_c, 0, 60, 64
2, 620000, Note_on_c, 0, 60, 100
2, 620256, Note_on_c, 0, 62, 100
2, 620256, Note_off_c, 0, 60, 64
2, 620256, Note_off_c, 0, 57, 64
2, 620256, Note_off_c, 0, 58, 64
2, 620256, Note_on_c, 0, 53, 100
2, 620256, Note_on_c, 0, 57, 100
2, 620768, Note_off_c, 0, 72, 64
2, 620768, Note_on_c, 0, 60, 100
2, 620768, Note_on_c, 0, 58, 100
2, 620768, Note_off_c, 0, 53, 64
2, 620768, Note_off_c, 0, 55, 64
2, 621024, Note_off_c, 0, 58, 64
2, 621024, Note_off_c, 0, 60, 64
2, 621280, Note_off_c, 0, 72, 64
2, 621280, Note_on_c, 0, 72, 100
2, 621280, Note_off_c, 0, 60, 64
2, 621280, Note_on_c, 0, 60, 100
2, 621280, Note_on_c, 0, 55, 100
2, 621280, Note_off_c, 0, 57, 64
2, 621536, Note_off_c, 0, 72, 64
2, 621536, Note_off_c, 0, 70, 64
2, 621792, Note_off_c, 0, 70, 64
2, 621792, Note_on_c, 0, 74, 100
2, 621792, Note_on_c, 0, 65, 100
2, 621792, Note_on_c, 0, 70, 100
2, 621792, Note_off_c, 0, 60, 64
2, 621792, Note_off_c, 0, 62, 64
2, 621792, Note_on_c, 0, 57, 100
2, 621792, Note_on_c, 0, 58, 100
2, 622304, Note_off_c, 0, 74, 64
2, 622304, Note_on_c, 0, 74, 100
2, 622304, Note_off_c, 0, 70, 64
2, 622304, Note_off_c, 0, 65, 64
2, 622304, Note_off_c, 0, 62, 64
2, 622304, Note_on_c, 0, 62, 100
2, 622304, Note_off_c, 0, 58, 64
2, 622304, Note_off_c, 0, 57, 64
2, 622560, Note_on_c, 0, 65, 100
2, 622560, Note_on_c, 0, 67, 100
2, 622816, Note_off_c, 0, 74, 64
2, 622816, Note_on_c, 0, 74, 100
2, 622816, Note_off_c, 0, 67, 64
2, 622816, Note_on_c, 0, 67, 100
2, 622816, Note_on_c, 0, 57, 100
2, 622816, Note_on_c, 0, 58, 100
2, 623072, Note_on_c, 0, 60, 100
2, 623072, Note_off_c, 0, 55, 64
2, 623328, Note_off_c, 0, 74, 64
2, 623328, Note_on_c, 0, 72, 100
2, 623328, Note_off_c, 0, 67, 64
2, 623328, Note_off_c, 0, 65, 64
2, 623328, Note_off_c, 0, 58, 64
2, 623328, Note_off_c, 0, 60, 64
2, 623328, Note_on_c, 0, 55, 100
2, 623328, Note_on_c, 0, 53, 100
2, 623840, Note_off_c, 0, 72, 64
2, 623840, Note_on_c, 0, 70, 100
2, 623840, Note_on_c, 0, 65, 100
2, 623840, Note_on_c, 0, 67, 100
2, 623840, Note_off_c, 0, 62, 64
2, 623840, Note_off_c, 0, 63, 64
2, 623840, Note_off_c, 0, 53, 64
2, 623840, Note_on_c, 0, 52, 100
2, 624096, Note_off_c, 0, 67, 64
2, 624096, Note_off_c, 0, 69, 64
2, 624352, Note_off_c, 0, 70, 64
2, 624352, Note_on_c, 0, 71, 100
2, 624352, Note_off_c, 0, 69, 64
2, 624352, Note_on_c, 0, 69, 100
2, 624352, Note_on_c, 0, 64, 100
2, 624352, Note_on_c, 0, 60, 100
2, 624352, Note_off_c, 0, 48, 64
2, 624352, Note_on_c, 0, 53, 100
2, 624608, Note_off_c, 0, 69, 64
2, 624608, Note_on_c, 0, 67, 100
2, 624864, Note_off_c, 0, 67, 64
2, 624864, Note_off_c, 0, 65, 64
2, 624864, Note_off_c, 0, 60, 64
2, 624864, Note_on_c, 0, 62, 100
2, 624864, Note_off_c, 0, 53, 64
2, 624864, Note_on_c, 0, 50, 100
2, 625120, Note_on_c, 0, 65, 100
2, 625120, Note_on_c, 0, 63, 100
2, 625120, Note_off_c, 0, 62, 64
2, 625120, Note_on_c, 0, 60, 100
2, 625376, Note_off_c, 0, 71, 64
2, 625376, Note_on_c, 0, 72, 100
2, 625376, Note_off_c, 0, 63, 64
2, 625376, Note_on_c, 0, 67, 100
2, 625376, Note_off_c, 0, 60, 64
2, 625376, Note_on_c, 0, 62, 100
2, 625504, Note_off_c, 0, 72, 64
2, 625504, Note_on_c, 0, 72, 100
2, 625632, Note_off_c, 0, 67, 64
2, 625632, Note_off_c, 0, 65, 64
2, 625760, Note_off_c, 0, 72, 64
2, 625760, Note_on_c, 0, 74, 100
2, 625888, Note_off_c, 0, 74, 64
2, 625888, Note_on_c, 0, 75, 100
2, 625888, Note_on_c, 0, 63, 100
2, 625888, Note_on_c, 0, 67, 100
2, 626016, Note_off_c, 0, 75, 64
2, 626144, Note_on_c, 0, 72, 100
2, 626144, Note_off_c, 0, 67, 64
2, 626144, Note_off_c, 0, 63, 64
2, 626144, Note_on_c, 0, 63, 100
2, 626400, Note_off_c, 0, 72, 64
2, 626400, Note_on_c, 0, 74, 100
2, 626400, Note_on_c, 0, 65, 100
2, 626400, Note_off_c, 0, 62, 64
2, 626656, Note_off_c, 0, 74, 64
2, 626656, Note_on_c, 0, 72, 100
2, 626656, Note_on_c, 0, 62, 100
2, 626656, Note_off_c, 0, 63, 64
2, 626912, Note_off_c, 0, 72, 64
2, 626912, Note_on_c, 0, 70, 100
2, 626912, Note_on_c, 0, 63, 100
2, 626912, Note_on_c, 0, 67, 100
2, 627168, Note_off_c, 0, 70, 64
2, 627168, Note_on_c, 0, 72, 100
2, 627168, Note_off_c, 0, 67, 64
2, 627168, Note_on_c, 0, 67, 100
2, 627168, Note_on_c, 0, 60, 100
2, 627424, Note_off_c, 0, 72, 64
2, 627424, Note_on_c, 0, 74, 100
2, 627424, Note_off_c, 0, 62, 64
2, 627424, Note_on_c, 0, 46, 100
2, 627680, Note_off_c, 0, 74, 64
2, 627680, Note_on_c, 0, 75, 100
2, 627680, Note_off_c, 0, 62, 64
2, 627680, Note_on_c, 0, 62, 100
2, 627936, Note_off_c, 0, 75, 64
2, 627936, Note_on_c, 0, 76, 100
2, 627936, Note_off_c, 0, 60, 64
2, 627936, Note_on_c, 0, 58, 100
2, 627936, Note_off_c, 0, 46, 64
2, 628192, Note_off_c, 0, 46, 64
2, 628192, Note_off_c, 0, 45, 64
2, 628192, Note_on_c, 0, 46, 100
2, 628448, Note_off_c, 0, 76, 64
2, 628448, Note_off_c, 0, 77, 64
2, 628448, Note_off_c, 0, 58, 64
2, 628448, Note_on_c, 0, 60, 100
2, 628448, Note_off_c, 0, 46, 64
2, 628448, Note_on_c, 0, 45, 100
2, 628704, Note_on_c, 0, 70, 100
2, 628704, Note_on_c, 0, 69, 100
2, 628704, Note_off_c, 0, 45, 64
2, 628704, Note_on_c, 0, 46, 100
2, 628960, Note_on_c, 0, 77, 100
2, 628960, Note_off_c, 0, 79, 64
2, 628960, Note_off_c, 0, 69, 64
2, 628960, Note_off_c, 0, 67, 64
2, 628960, Note_off_c, 0, 62, 64
2, 628960, Note_off_c, 0, 64, 64
2, 628960, Note_off_c, 0, 60, 64
2, 628960, Note_off_c, 0, 55, 64
2, 628960, Note_off_c, 0, 46, 64
2, 628960, Note_on_c, 0, 46, 100
2, 629216, Note_off_c, 0, 46, 64
2, 629216, Note_on_c, 0, 48, 100
2, 629472, Note_on_c, 0, 79, 100
2, 629472, Note_off_c, 0, 81, 64
2, 629472, Note_on_c, 0, 67, 100
2, 629472, Note_off_c, 0, 65, 64
2, 629472, Note_on_c, 0, 64, 100
2, 629472, Note_on_c, 0, 60, 100
2, 629472, Note_off_c, 0, 48, 64
2, 629472, Note_on_c, 0, 41, 100
2, 629472, Note_off_c, 0, 40, 64
2, 629728, Note_off_c, 0, 41, 64
2, 629728, Note_on_c, 0, 43, 100
2, 629984, Note_on_c, 0, 82, 100
2, 629984, Note_on_c, 0, 81, 100
2, 629984, Note_on_c, 0, 65, 100
2, 629984, Note_off_c, 0, 64, 64
2, 629984, Note_off_c, 0, 60, 64
2, 629984, Note_on_c, 0, 60, 100
2, 629984, Note_off_c, 0, 43, 64
2, 629984, Note_on_c, 0, 45, 100
2, 630496, Note_off_c, 0, 81, 64
2, 630496, Note_off_c, 0, 79, 64
2, 630496, Note_on_c, 0, 64, 100
2, 630496, Note_off_c, 0, 60, 64
2, 630496, Note_on_c, 0, 60, 100
2, 630496, Note_off_c, 0, 45, 64
2, 630496, Note_off_c, 0, 52, 64
2, 630752, Note_off_c, 0, 60, 64
2, 631008, Note_on_c, 0, 79, 100
2, 631008, Note_on_c, 0, 81, 100
2, 631008, Note_off_c, 0, 60, 64
2, 631008, Note_on_c, 0, 48, 100
2, 631008, Note_on_c, 0, 52, 100
2, 631008, Note_on_c, 0, 60, 100
2, 631264, Note_off_c, 0, 81, 64
2, 631264, Note_off_c, 0, 79, 64
2, 631264, Note_off_c, 0, 52, 64
2, 631520, Note_on_c, 0, 79, 100
2, 631520, Note_on_c, 0, 81, 100
2, 631520, Note_off_c, 0, 64, 64
2, 631520, Note_off_c, 0, 60, 64
2, 631520, Note_on_c, 0, 60, 100
2, 631520, Note_on_c, 0, 53, 100
2, 631520, Note_on_c, 0, 52, 100
2, 631776, Note_off_c, 0, 81, 64
2, 631776, Note_off_c, 0, 80, 64
2, 631776, Note_on_c, 0, 64, 100
2, 631776, Note_off_c, 0, 65, 64
2, 631776, Note_off_c, 0, 60, 64
2, 631776, Note_on_c, 0, 58, 100
2, 631904, Note_on_c, 0, 80, 100
2, 631904, Note_on_c, 0, 81, 100
2, 632032, Note_off_c, 0, 82, 64
2, 632032, Note_off_c, 0, 81, 64
2, 632032, Note_on_c, 0, 65, 100
2, 632032, Note_off_c, 0, 60, 64
2, 632032, Note_on_c, 0, 60, 100
2, 632032, Note_off_c, 0, 57, 64
2, 632032, Note_off_c, 0, 52, 64
2, 632032, Note_off_c, 0, 53, 64
2, 632288, Note_on_c, 0, 57, 100
2, 632288, Note_on_c, 0, 59, 100
2, 632416, Note_on_c, 0, 81, 100
2, 632416, Note_off_c, 0, 83, 64
2, 632544, Note_on_c, 0, 83, 100
2, 632544, Note_off_c, 0, 84, 64
2, 632544, Note_off_c, 0, 77, 64
2, 632800, Note_on_c, 0, 77, 100
2, 632800, Note_on_c, 0, 76, 100
2, 632800, Note_off_c, 0, 60, 64
2, 632800, Note_off_c, 0, 59, 64
2, 633056, Note_off_c, 0, 83, 64
2, 633056, Note_off_c, 0, 84, 64
2, 633056, Note_on_c, 0, 84, 100
2, 633056, Note_off_c, 0, 81, 64
2, 633056, Note_off_c, 0, 60, 64
2, 633056, Note_on_c, 0, 60, 100
2, 633184, Note_on_c, 0, 81, 100
2, 633184, Note_off_c, 0, 76, 64
2, 633312, Note_on_c, 0, 76, 100
2, 633312, Note_off_c, 0, 84, 64
2, 633440, Note_on_c, 0, 84, 100
2, 633440, Note_on_c, 0, 83, 100
2, 633568, Note_off_c, 0, 83, 64
2, 633568, Note_off_c, 0, 84, 64
2, 633568, Note_off_c, 0, 60, 64
2, 633568, Note_off_c, 0, 64, 64
2, 633568, Note_on_c, 0, 53, 100
2, 633568, Note_off_c, 0, 48, 64
2, 633696, Note_on_c, 0, 84, 100
2, 633696, Note_on_c, 0, 83, 100
2, 633824, Note_off_c, 0, 83, 64
2, 633824, Note_off_c, 0, 84, 64
2, 633952, Note_on_c, 0, 84, 100
2, 633952, Note_on_c, 0, 83, 100
2, 634080, Note_off_c, 0, 83, 64
2, 634080, Note_off_c, 0, 81, 64
2, 634080, Note_off_c, 0, 64, 64
2, 634080, Note_on_c, 0, 64, 100
2, 634208, Note_off_c, 0, 81, 64
2, 634208, Note_on_c, 0, 81, 100
2, 634336, Note_off_c, 0, 81, 64
2, 634336, Note_off_c, 0, 80, 64
2, 634464, Note_on_c, 0, 80, 100
2, 634464, Note_on_c, 0, 78, 100
2, 634592, Note_off_c, 0, 78, 64
2, 634592, Note_off_c, 0, 71, 64
2, 634592, Note_on_c, 0, 71, 100
2, 634592, Note_off_c, 0, 64, 64
2, 634720, Note_on_c, 0, 48, 100
2, 634720, Note_off_c, 0, 56, 64
2, 634848, Note_on_c, 0, 56, 100
2, 634848, Note_off_c, 0, 54, 64
2, 634976, Note_on_c, 0, 54, 100
2, 634976, Note_on_c, 0, 52, 100
2, 635104, Note_off_c, 0, 64, 64
2, 635104, Note_on_c, 0, 64, 100
2, 635104, Note_off_c, 0, 52, 64
2, 635104, Note_on_c, 0, 60, 100
2, 635232, Note_off_c, 0, 64, 64
2, 635232, Note_on_c, 0, 66, 100
2, 635360, Note_off_c, 0, 66, 64
2, 635360, Note_off_c, 0, 68, 64
2, 635360, Note_off_c, 0, 60, 64
2, 635360, Note_on_c, 0, 59, 100
2, 635488, Note_off_c, 0, 59, 64
2, 635488, Note_off_c, 0, 57, 64
2, 635488, Note_on_c, 0, 57, 100
2, 635488, Note_on_c, 0, 51, 100
2, 635616, Note_on_c, 0, 68, 100
2, 635616, Note_on_c, 0, 69, 100
2, 635744, Note_off_c, 0, 69, 64
2, 635744, Note_off_c, 0, 81, 64
2, 635744, Note_on_c, 0, 81, 100
2, 635872, Note_off_c, 0, 81, 64
2, 636000, Note_off_c, 0, 51, 64
2, 636000, Note_on_c, 0, 59, 100
2, 636128, Note_off_c, 0, 59, 64
2, 636128, Note_off_c, 0, 57, 64
2, 636256, Note_on_c, 0, 57, 100
2, 636256, Note_on_c, 0, 55, 100
2, 636384, Note_on_c, 0, 64, 100
2, 636384, Note_off_c, 0, 54, 64
2, 636384, Note_off_c, 0, 55, 64
2, 636640, Note_off_c, 0, 64, 64
2, 636640, Note_on_c, 0, 66, 100
2, 636640, Note_on_c, 0, 55, 100
2, 636640, Note_off_c, 0, 57, 64
2, 636768, Note_on_c, 0, 57, 100
2, 636768, Note_on_c, 0, 59, 100
2, 636896, Note_off_c, 0, 61, 64
2, 636896, Note_off_c, 0, 66, 64
2, 636896, Note_on_c, 0, 66, 100
2, 636896, Note_off_c, 0, 59, 64
2, 636896, Note_on_c, 0, 59, 100
2, 637152, Note_off_c, 0, 59, 64
2, 637152, Note_off_c, 0, 57, 64
2, 637408, Note_off_c, 0, 66, 64
2, 637408, Note_off_c, 0, 67, 64
2, 637408, Note_off_c, 0, 75, 64
2, 637408, Note_on_c, 0, 75, 100
2, 637408, Note_on_c, 0, 57, 100
2, 637408, Note_on_c, 0, 59, 100
2, 637664, Note_on_c, 0, 67, 100
2, 637664, Note_on_c, 0, 66, 100
2, 637664, Note_off_c, 0, 59, 64
2, 637664, Note_off_c, 0, 63, 64
2, 637920, Note_off_c, 0, 75, 64
2, 637920, Note_off_c, 0, 71, 64
2, 637920, Note_off_c, 0, 66, 64
2, 637920, Note_off_c, 0, 64, 64
2, 637920, Note_on_c, 0, 64, 100
2, 637920, Note_on_c, 0, 52, 100
2, 637920, Note_on_c, 0, 40, 100
2, 638944, Note_on_c, 0, 71, 100
2, 638944, Note_on_c, 0, 78, 100
2, 638944, Note_off_c, 0, 64, 64
2, 638944, Note_on_c, 0, 59, 100
2, 638944, Note_off_c, 0, 40, 64
2, 639456, Note_off_c, 0, 78, 64
2, 639456, Note_on_c, 0, 78, 100
2, 639456, Note_on_c, 0, 61, 100
2, 639456, Note_off_c, 0, 59, 64
2, 639968, Note_off_c, 0, 78, 64
2, 639968, Note_off_c, 0, 79, 64
2, 639968, Note_off_c, 0, 61, 64
2, 639968, Note_on_c, 0, 59, 100
2, 639968, Note_off_c, 0, 57, 64
2, 640224, Note_on_c, 0, 79, 100
2, 640224, Note_off_c, 0, 77, 64
2, 640480, Note_on_c, 0, 77, 100
2, 640480, Note_off_c, 0, 76, 64
2, 640736, Note_on_c, 0, 76, 100
2, 640736, Note_off_c, 0, 73, 64
2, 640992, Note_on_c, 0, 73, 100
2, 640992, Note_off_c, 0, 71, 64
2, 640992, Note_on_c, 0, 57, 100
2, 640992, Note_on_c, 0, 64, 100
2, 641248, Note_on_c, 0, 71, 100
2, 641248, Note_on_c, 0, 69, 100
2, 641504, Note_off_c, 0, 69, 64
2, 641504, Note_on_c, 0, 69, 100
2, 641504, Note_off_c, 0, 64, 64
2, 641504, Note_off_c, 0, 65, 64
2, 641504, Note_off_c, 0, 62, 64
2, 641504, Note_on_c, 0, 62, 100
2, 641760, Note_off_c, 0, 69, 64
2, 641760, Note_off_c, 0, 71, 64
2, 642016, Note_on_c, 0, 71, 100
2, 642016, Note_on_c, 0, 69, 100
2, 642016, Note_off_c, 0, 62, 64
2, 642016, Note_on_c, 0, 61, 100
2, 642016, Note_off_c, 0, 59, 64
2, 642016, Note_off_c, 0, 57, 64
2, 642272, Note_on_c, 0, 57, 100
2, 642272, Note_on_c, 0, 62, 100
2, 642528, Note_off_c, 0, 69, 64
2, 642528, Note_off_c, 0, 71, 64
2, 642528, Note_off_c, 0, 61, 64
2, 642528, Note_on_c, 0, 59, 100
2, 642784, Note_on_c, 0, 65, 100
2, 642784, Note_on_c, 0, 64, 100
2, 642784, Note_off_c, 0, 57, 64
2, 642784, Note_off_c, 0, 59, 64
2, 642784, Note_on_c, 0, 59, 100
2, 642784, Note_on_c, 0, 57, 100
2, 643040, Note_on_c, 0, 71, 100
2, 643040, Note_on_c, 0, 69, 100
2, 643040, Note_off_c, 0, 62, 64
2, 643040, Note_on_c, 0, 61, 100
2, 643040, Note_off_c, 0, 57, 64
2, 643040, Note_off_c, 0, 56, 64
2, 643040, Note_on_c, 0, 54, 100
2, 643040, Note_off_c, 0, 64, 64
2, 643040, Note_on_c, 0, 62, 100
2, 643552, Note_off_c, 0, 69, 64
2, 643552, Note_off_c, 0, 68, 64
2, 643552, Note_off_c, 0, 62, 64
2, 643552, Note_on_c, 0, 62, 100
2, 643552, Note_off_c, 0, 61, 64
2, 643552, Note_off_c, 0, 54, 64
2, 643552, Note_off_c, 0, 57, 64
2, 643552, Note_on_c, 0, 57, 100
2, 643552, Note_off_c, 0, 59, 64
2, 644064, Note_on_c, 0, 59, 100
2, 644064, Note_on_c, 0, 60, 100
2, 644064, Note_on_c, 0, 54, 100
2, 644064, Note_on_c, 0, 56, 100
2, 644576, Note_on_c, 0, 68, 100
2, 644576, Note_off_c, 0, 67, 64
2, 644576, Note_off_c, 0, 60, 64
2, 644576, Note_off_c, 0, 59, 64
2, 644576, Note_off_c, 0, 57, 64
2, 644576, Note_off_c, 0, 56, 64
2, 645088, Note_off_c, 0, 71, 64
2, 645088, Note_on_c, 0, 72, 100
2, 645088, Note_off_c, 0, 67, 64
2, 645088, Note_on_c, 0, 67, 100
2, 645088, Note_off_c, 0, 62, 64
2, 645088, Note_on_c, 0, 64, 100
2, 645088, Note_on_c, 0, 59, 100
2, 645088, Note_on_c, 0, 60, 100
2, 645088, Note_off_c, 0, 55, 64
2, 646112, Note_off_c, 0, 72, 64
2, 646112, Note_on_c, 0, 74, 100
2, 646112, Note_off_c, 0, 67, 64
2, 646112, Note_on_c, 0, 66, 100
2, 646112, Note_off_c, 0, 64, 64
2, 646112, Note_off_c, 0, 60, 64
2, 646112, Note_on_c, 0, 55, 100
2, 646112, Note_on_c, 0, 57, 100
2, 646624, Note_off_c, 0, 74, 64
2, 646624, Note_on_c, 0, 74, 100
2, 646624, Note_off_c, 0, 66, 64
2, 646624, Note_on_c, 0, 67, 100
2, 646624, Note_on_c, 0, 60, 100
2, 646624, Note_off_c, 0, 59, 64
2, 646624, Note_off_c, 0, 52, 64
2, 646624, Note_on_c, 0, 47, 100
2, 647136, Note_off_c, 0, 74, 64
2, 647136, Note_off_c, 0, 76, 64
2, 647136, Note_on_c, 0, 59, 100
2, 647136, Note_off_c, 0, 60, 64
2, 647136, Note_off_c, 0, 57, 64
2, 647136, Note_on_c, 0, 57, 100
2, 647136, Note_off_c, 0, 48, 64
2, 647136, Note_off_c, 0, 47, 64
2, 647648, Note_on_c, 0, 76, 100
2, 647648, Note_off_c, 0, 77, 64
2, 647648, Note_off_c, 0, 65, 64
2, 647648, Note_off_c, 0, 67, 64
2, 647648, Note_on_c, 0, 60, 100
2, 647648, Note_on_c, 0, 62, 100
2, 647648, Note_off_c, 0, 57, 64
2, 647648, Note_off_c, 0, 59, 64
2, 647648, Note_on_c, 0, 48, 100
2, 647648, Note_on_c, 0, 43, 100
2, 647904, Note_off_c, 0, 62, 64
2, 647904, Note_on_c, 0, 64, 100
2, 648160, Note_on_c, 0, 67, 100
2, 648160, Note_on_c, 0, 74, 100
2, 648160, Note_off_c, 0, 64, 64
2, 648160, Note_on_c, 0, 65, 100
2, 648160, Note_on_c, 0, 59, 100
2, 648160, Note_off_c, 0, 60, 64
2, 648160, Note_off_c, 0, 43, 64
2, 648160, Note_on_c, 0, 45, 100
2, 648416, Note_on_c, 0, 60, 100
2, 648416, Note_off_c, 0, 59, 64
2, 648672, Note_off_c, 0, 74, 64
2, 648672, Note_on_c, 0, 72, 100
2, 648672, Note_on_c, 0, 69, 100
2, 648672, Note_off_c, 0, 67, 64
2, 648672, Note_off_c, 0, 65, 64
2, 648672, Note_on_c, 0, 64, 100
2, 648672, Note_on_c, 0, 59, 100
2, 648672, Note_on_c, 0, 52, 100
2, 648672, Note_on_c, 0, 38, 100
2, 648672, Note_on_c, 0, 40, 100
2, 649184, Note_off_c, 0, 72, 64
2, 649184, Note_on_c, 0, 74, 100
2, 649184, Note_off_c, 0, 69, 64
2, 649184, Note_off_c, 0, 65, 64
2, 649184, Note_on_c, 0, 65, 100
2, 649184, Note_on_c, 0, 62, 100
2, 649184, Note_off_c, 0, 52, 64
2, 649184, Note_off_c, 0, 40, 64
2, 649184, Note_off_c, 0, 33, 64
2, 649440, Note_off_c, 0, 62, 64
2, 649440, Note_off_c, 0, 64, 64
2, 649440, Note_off_c, 0, 65, 64
2, 649440, Note_off_c, 0, 55, 64
2, 649568, Note_on_c, 0, 55, 100
2, 649568, Note_on_c, 0, 57, 100
2, 649696, Note_off_c, 0, 74, 64
2, 649696, Note_on_c, 0, 72, 100
2, 649696, Note_on_c, 0, 65, 100
2, 649696, Note_off_c, 0, 67, 64
2, 649696, Note_on_c, 0, 67, 100
2, 649696, Note_off_c, 0, 57, 64
2, 649696, Note_off_c, 0, 60, 64
2, 649696, Note_on_c, 0, 52, 100
2, 649696, Note_on_c, 0, 40, 100
2, 650240, Note_on_c, 0, 69, 100
2, 650240, Note_off_c, 0, 72, 64
2, 650240, Note_on_c, 0, 60, 100
2, 650240, Note_on_c, 0, 62, 100
2, 650240, Note_off_c, 0, 52, 64
2, 650240, Note_on_c, 0, 52, 100
2, 650240, Note_off_c, 0, 40, 64
2, 650240, Note_on_c, 0, 33, 100
2, 650496, Note_off_c, 0, 62, 64
2, 650496, Note_off_c, 0, 60, 64
2, 650624, Note_off_c, 0, 72, 64
2, 650624, Note_on_c, 0, 72, 100
2, 650624, Note_on_c, 0, 60, 100
2, 650624, Note_off_c, 0, 65, 64
2, 650752, Note_off_c, 0, 72, 64
2, 650752, Note_on_c, 0, 71, 100
2, 650752, Note_off_c, 0, 69, 64
2, 650752, Note_on_c, 0, 65, 100
2, 650752, Note_on_c, 0, 64, 100
2, 650752, Note_on_c, 0, 62, 100
2, 650752, Note_off_c, 0, 55, 64
2, 650752, Note_off_c, 0, 53, 64
2, 650752, Note_on_c, 0, 40, 100
2, 650752, Note_on_c, 0, 41, 100
2, 651264, Note_on_c, 0, 69, 100
2, 651264, Note_off_c, 0, 67, 64
2, 651264, Note_off_c, 0, 62, 64
2, 651264, Note_off_c, 0, 60, 64
2, 651264, Note_on_c, 0, 43, 100
2, 651264, Note_off_c, 0, 48, 64
2, 651520, Note_on_c, 0, 60, 100
2, 651520, Note_on_c, 0, 62, 100
2, 651776, Note_off_c, 0, 71, 64
2, 651776, Note_on_c, 0, 72, 100
2, 651776, Note_on_c, 0, 67, 100
2, 651776, Note_off_c, 0, 69, 64
2, 651776, Note_off_c, 0, 62, 64
2, 651776, Note_off_c, 0, 60, 64
2, 651776, Note_on_c, 0, 53, 100
2, 651776, Note_on_c, 0, 48, 100
2, 651776, Note_off_c, 0, 50, 64
2, 651776, Note_on_c, 0, 36, 100
2, 652032, Note_off_c, 0, 72, 64
2, 652032, Note_on_c, 0, 74, 100
2, 652032, Note_on_c, 0, 60, 100
2, 652032, Note_off_c, 0, 59, 64
2, 652160, Note_off_c, 0, 74, 64
2, 652160, Note_off_c, 0, 76, 64
2, 652160, Note_on_c, 0, 77, 100
2, 652160, Note_on_c, 0, 72, 100
2, 652160, Note_on_c, 0, 74, 100
2, 652288, Note_on_c, 0, 76, 100
2, 652288, Note_off_c, 0, 72, 64
2, 652288, Note_off_c, 0, 77, 64
2, 652288, Note_on_c, 0, 69, 100
2, 652288, Note_off_c, 0, 74, 64
2, 652288, Note_off_c, 0, 67, 64
2, 652288, Note_off_c, 0, 65, 64
2, 652288, Note_on_c, 0, 59, 100
2, 652288, Note_off_c, 0, 60, 64
2, 652288, Note_off_c, 0, 55, 64
2, 652288, Note_on_c, 0, 55, 100
2, 652288, Note_off_c, 0, 36, 64
2, 652288, Note_off_c, 0, 38, 64
2, 652544, Note_on_c, 0, 72, 100
2, 652544, Note_on_c, 0, 77, 100
2, 652544, Note_off_c, 0, 64, 64
2, 652544, Note_on_c, 0, 62, 100
2, 652672, Note_off_c, 0, 77, 64
2, 652672, Note_off_c, 0, 76, 64
2, 652672, Note_on_c, 0, 76, 100
2, 652672, Note_off_c, 0, 72, 64
2, 652672, Note_on_c, 0, 67, 100
2, 652672, Note_off_c, 0, 67, 64
2, 652672, Note_off_c, 0, 60, 64
2, 652672, Note_off_c, 0, 62, 64
2, 652672, Note_on_c, 0, 60, 100
2, 652672, Note_off_c, 0, 76, 64
2, 652672, Note_on_c, 0, 72, 100
2, 652672, Note_on_c, 0, 67, 100
2, 652672, Note_on_c, 0, 62, 100
2, 652672, Note_off_c, 0, 55, 64
2, 652672, Note_off_c, 0, 52, 64
2, 652672, Note_off_c, 0, 40, 64
2, 652672, Note_on_c, 0, 40, 100
2, 652800, Note_off_c, 0, 60, 64
2, 652800, Note_off_c, 0, 65, 64
2, 652800, Note_on_c, 0, 65, 100
2, 652800, Note_on_c, 0, 64, 100
2, 652800, Note_on_c, 0, 71, 100
2, 652800, Note_off_c, 0, 72, 64
2, 652800, Note_on_c, 0, 72, 100
2, 652800, Note_off_c, 0, 72, 64
2, 652800, Note_on_c, 0, 72, 100
2, 652800, Note_on_c, 0, 55, 100
2, 652800, Note_on_c, 0, 60, 100
2, 652800, Note_on_c, 0, 52, 100
2, 652800, Note_off_c, 0, 40, 64
2, 652800, Note_off_c, 0, 36, 64
2, 652800, Note_on_c, 0, 36, 100
2, 653056, Note_off_c, 0, 36, 64
2, 653056, Note_on_c, 0, 36, 100
2, 653056, Note_off_c, 0, 60, 64
2, 653056, Note_off_c, 0, 52, 64
2, 653312, Note_off_c, 0, 72, 64
2, 653312, Note_on_c, 0, 72, 100
2, 653312, Note_off_c, 0, 67, 64
2, 653312, Note_off_c, 0, 69, 64
2, 653312, Note_off_c, 0, 64, 64
2, 653312, Note_off_c, 0, 55, 64
2, 653312, Note_on_c, 0, 55, 100
2, 653312, Note_on_c, 0, 52, 100
2, 653568, Note_off_c, 0, 69, 64
2, 653568, Note_on_c, 0, 69, 100
2, 653568, Note_on_c, 0, 64, 100
2, 653568, Note_off_c, 0, 62, 64
2, 653568, Note_on_c, 0, 60, 100
2, 653568, Note_off_c, 0, 57, 64
2, 653568, Note_on_c, 0, 57, 100
2, 653568, Note_off_c, 0, 55, 64
2, 653824, Note_off_c, 0, 72, 64
2, 653824, Note_on_c, 0, 74, 100
2, 653824, Note_off_c, 0, 62, 64
2, 653824, Note_on_c, 0, 62, 100
2, 653824, Note_off_c, 0, 57, 64
2, 653824, Note_on_c, 0, 57, 100
2, 653824, Note_on_c, 0, 55, 100
2, 654080, Note_off_c, 0, 69, 64
2, 654080, Note_off_c, 0, 67, 64
2, 654080, Note_on_c, 0, 67, 100
2, 654080, Note_off_c, 0, 62, 64
2, 654080, Note_off_c, 0, 60, 64
2, 654080, Note_on_c, 0, 60, 100
2, 654080, Note_off_c, 0, 58, 64
2, 654080, Note_off_c, 0, 57, 64
2, 654080, Note_off_c, 0, 55, 64
2, 654336, Note_off_c, 0, 74, 64
2, 654336, Note_on_c, 0, 76, 100
2, 654336, Note_off_c, 0, 67, 64
2, 654336, Note_on_c, 0, 66, 100
2, 654336, Note_on_c, 0, 58, 100
2, 654336, Note_off_c, 0, 60, 64
2, 654336, Note_off_c, 0, 57, 64
2, 654336, Note_on_c, 0, 57, 100
2, 654592, Note_off_c, 0, 66, 64
2, 654592, Note_on_c, 0, 67, 100
2, 654592, Note_on_c, 0, 60, 100
2, 654592, Note_on_c, 0, 62, 100
2, 654592, Note_off_c, 0, 57, 64
2, 654592, Note_off_c, 0, 58, 64
2, 654592, Note_on_c, 0, 57, 100
2, 654592, Note_on_c, 0, 74, 100
2, 654720, Note_off_c, 0, 76, 64
2, 654720, Note_on_c, 0, 78, 100
2, 654848, Note_off_c, 0, 74, 64
2, 654848, Note_off_c, 0, 76, 64
2, 654848, Note_off_c, 0, 67, 64
2, 654848, Note_on_c, 0, 69, 100
2, 654848, Note_on_c, 0, 76, 100
2, 654848, Note_off_c, 0, 62, 64
2, 654848, Note_off_c, 0, 60, 64
2, 654848, Note_off_c, 0, 57, 64
2, 655104, Note_off_c, 0, 78, 64
2, 655104, Note_off_c, 0, 79, 64
2, 655104, Note_on_c, 0, 79, 100
2, 655104, Note_off_c, 0, 74, 64
2, 655104, Note_on_c, 0, 74, 100
2, 655104, Note_off_c, 0, 69, 64
2, 655104, Note_on_c, 0, 75, 100
2, 655360, Note_off_c, 0, 79, 64
2, 655360, Note_off_c, 0, 70, 64
2, 655360, Note_on_c, 0, 69, 100
2, 655360, Note_off_c, 0, 75, 64
2, 655360, Note_on_c, 0, 75, 100
2, 655360, Note_on_c, 0, 72, 100
2, 655360, Note_off_c, 0, 78, 64
2, 655360, Note_on_c, 0, 78, 100
2, 655360, Note_on_c, 0, 60, 100
2, 655360, Note_on_c, 0, 51, 100
2, 655616, Note_off_c, 0, 69, 64
2, 655616, Note_on_c, 0, 67, 100
2, 655616, Note_off_c, 0, 60, 64
2, 655616, Note_on_c, 0, 58, 100
2, 655872, Note_off_c, 0, 67, 64
2, 655872, Note_on_c, 0, 66, 100
2, 655872, Note_off_c, 0, 58, 64
2, 655872, Note_off_c, 0, 57, 64
2, 655872, Note_off_c, 0, 51, 64
2, 655872, Note_on_c, 0, 57, 100
2, 656128, Note_off_c, 0, 66, 64
2, 656128, Note_on_c, 0, 67, 100
2, 656128, Note_on_c, 0, 66, 100
2, 656384, Note_on_c, 0, 77, 100
2, 656384, Note_off_c, 0, 65, 64
2, 656384, Note_on_c, 0, 65, 100
2, 656384, Note_off_c, 0, 57, 64
2, 656384, Note_on_c, 0, 57, 100
2, 656384, Note_off_c, 0, 50, 64
2, 656384, Note_on_c, 0, 50, 100
2, 656384, Note_off_c, 0, 67, 64
2, 656384, Note_off_c, 0, 69, 64
2, 656384, Note_off_c, 0, 66, 64
2, 656384, Note_on_c, 0, 69, 100
2, 656640, Note_on_c, 0, 67, 100
2, 656640, Note_on_c, 0, 63, 100
2, 656640, Note_off_c, 0, 65, 64
2, 656896, Note_off_c, 0, 69, 64
2, 656896, Note_on_c, 0, 70, 100
2, 656896, Note_off_c, 0, 72, 64
2, 656896, Note_off_c, 0, 65, 64
2, 656896, Note_on_c, 0, 72, 100
2, 656896, Note_on_c, 0, 55, 100
2, 656896, Note_off_c, 0, 57, 64
2, 656896, Note_off_c, 0, 55, 64
2, 656896, Note_on_c, 0, 57, 100
2, 656896, Note_off_c, 0, 67, 64
2, 656896, Note_off_c, 0, 72, 64
2, 656896, Note_on_c, 0, 69, 100
2, 656896, Note_on_c, 0, 55, 100
2, 656896, Note_on_c, 0, 65, 100
2, 657152, Note_on_c, 0, 58, 100
2, 657408, Note_off_c, 0, 69, 64
2, 657408, Note_on_c, 0, 69, 100
2, 657408, Note_on_c, 0, 67, 100
2, 657408, Note_off_c, 0, 65, 64
2, 657408, Note_off_c, 0, 58, 64
2, 657408, Note_off_c, 0, 57, 64
2, 657408, Note_off_c, 0, 53, 64
2, 657408, Note_on_c, 0, 53, 100
2, 657408, Note_off_c, 0, 69, 64
2, 657408, Note_on_c, 0, 65, 100
2, 657408, Note_off_c, 0, 65, 64
2, 657408, Note_on_c, 0, 57, 100
2, 657408, Note_off_c, 0, 53, 64
2, 657408, Note_on_c, 0, 58, 100
2, 657664, Note_off_c, 0, 58, 64
2, 657920, Note_off_c, 0, 70, 64
2, 657920, Note_off_c, 0, 71, 64
2, 657920, Note_on_c, 0, 65, 100
2, 657920, Note_off_c, 0, 65, 64
2, 657920, Note_on_c, 0, 58, 100
2, 657920, Note_off_c, 0, 55, 64
2, 657920, Note_off_c, 0, 50, 64
2, 657920, Note_on_c, 0, 51, 100
2, 657920, Note_on_c, 0, 70, 100
2, 657920, Note_off_c, 0, 70, 64
2, 657920, Note_on_c, 0, 70, 100
2, 657920, Note_off_c, 0, 70, 64
2, 657920, Note_off_c, 0, 67, 64
2, 657920, Note_on_c, 0, 65, 100
2, 658176, Note_on_c, 0, 70, 100
2, 658176, Note_on_c, 0, 72, 100
2, 658176, Note_on_c, 0, 71, 100
2, 658176, Note_off_c, 0, 65, 64
2, 658176, Note_on_c, 0, 65, 100
2, 658176, Note_off_c, 0, 51, 64
2, 658176, Note_on_c, 0, 53, 100
2, 658176, Note_off_c, 0, 57, 64
2, 658432, Note_off_c, 0, 72, 64
2, 658432, Note_off_c, 0, 71, 64
2, 658432, Note_off_c, 0, 67, 64
2, 658432, Note_off_c, 0, 65, 64
2, 658432, Note_off_c, 0, 63, 64
2, 658432, Note_off_c, 0, 58, 64
2, 658432, Note_on_c, 0, 57, 100
2, 658432, Note_off_c, 0, 55, 64
2, 658432, Note_off_c, 0, 75, 64
2, 658432, Note_on_c, 0, 72, 100
2, 658432, Note_on_c, 0, 67, 100
2, 658432, Note_on_c, 0, 58, 100
2, 658432, Note_off_c, 0, 58, 64
2, 658432, Note_on_c, 0, 55, 100
2, 658560, Note_off_c, 0, 67, 64
2, 658560, Note_off_c, 0, 74, 64
2, 658560, Note_off_c, 0, 72, 64
2, 658560, Note_off_c, 0, 77, 64
2, 658560, Note_on_c, 0, 65, 100
2, 658560, Note_off_c, 0, 65, 64
2, 658560, Note_off_c, 0, 60, 64
2, 658560, Note_on_c, 0, 60, 100
2, 658560, Note_off_c, 0, 57, 64
2, 658560, Note_on_c, 0, 57, 100
2, 658560, Note_on_c, 0, 72, 100
2, 658560, Note_on_c, 0, 69, 100
2, 658560, Note_on_c, 0, 65, 100
2, 658560, Note_on_c, 0, 74, 100
2, 658560, Note_off_c, 0, 72, 64
2, 658688, Note_off_c, 0, 70, 64
2, 658688, Note_on_c, 0, 72, 100
2, 658688, Note_off_c, 0, 69, 64
2, 658688, Note_on_c, 0, 67, 100
2, 658688, Note_off_c, 0, 60, 64
2, 658688, Note_on_c, 0, 77, 100
2, 658688, Note_on_c, 0, 75, 100
2, 658688, Note_off_c, 0, 58, 64
2, 658688, Note_on_c, 0, 58, 100
2, 658688, Note_on_c, 0, 69, 100
2, 658688, Note_off_c, 0, 69, 64
2, 658816, Note_off_c, 0, 77, 64
2, 658816, Note_off_c, 0, 72, 64
2, 658816, Note_off_c, 0, 74, 64
2, 658816, Note_off_c, 0, 75, 64
2, 658816, Note_on_c, 0, 74, 100
2, 658816, Note_off_c, 0, 76, 64
2, 658816, Note_on_c, 0, 79, 100
2, 658816, Note_off_c, 0, 58, 64
2, 658816, Note_off_c, 0, 57, 64
2, 658816, Note_off_c, 0, 67, 64
2, 658816, Note_off_c, 0, 65, 64
2, 658944, Note_off_c, 0, 74, 64
2, 658944, Note_off_c, 0, 75, 64
2, 658944, Note_on_c, 0, 70, 100
2, 658944, Note_on_c, 0, 65, 100
2, 658944, Note_on_c, 0, 76, 100
2, 658944, Note_off_c, 0, 67, 64
2, 658944, Note_on_c, 0, 57, 100
2, 658944, Note_off_c, 0, 50, 64
2, 658944, Note_on_c, 0, 50, 100
2, 658944, Note_on_c, 0, 77, 100
2, 658944, Note_on_c, 0, 75, 100
2, 658944, Note_on_c, 0, 74, 100
2, 658944, Note_on_c, 0, 67, 100
2, 658944, Note_off_c, 0, 65, 64
2, 658944, Note_on_c, 0, 65, 100
2, 659328, Note_off_c, 0, 74, 64
2, 659328, Note_off_c, 0, 50, 64
2, 659328, Note_off_c, 0, 51, 64
2, 659328, Note_on_c, 0, 51, 100
2, 659328, Note_off_c, 0, 79, 64
2, 659328, Note_off_c, 0, 75, 64
2, 659328, Note_on_c, 0, 71, 100
2, 659328, Note_off_c, 0, 67, 64
2, 659328, Note_off_c, 0, 65, 64
2, 659328, Note_off_c, 0, 63, 64
2, 659328, Note_on_c, 0, 63, 100
2, 659328, Note_on_c, 0, 79, 100
2, 659328, Note_on_c, 0, 74, 100
2, 660096, Note_off_c, 0, 51, 64
2, 660096, Note_off_c, 0, 55, 64
2, 660096, Note_on_c, 0, 75, 100
2, 660096, Note_off_c, 0, 74, 64
2, 660096, Note_off_c, 0, 79, 64
2, 660096, Note_on_c, 0, 74, 100
2, 660096, Note_off_c, 0, 67, 64
2, 660096, Note_off_c, 0, 63, 64
2, 660096, Note_on_c, 0, 67, 100
2, 660096, Note_off_c, 0, 74, 64
2, 660096, Note_off_c, 0, 71, 64
2, 660096, Note_on_c, 0, 72, 100
2, 660352, Note_on_c, 0, 79, 100
2, 660352, Note_off_c, 0, 77, 64
2, 660352, Note_on_c, 0, 74, 100
2, 660352, Note_off_c, 0, 72, 64
2, 660480, Note_on_c, 0, 72, 100
2, 660480, Note_off_c, 0, 74, 64
2, 660480, Note_off_c, 0, 75, 64
2, 660608, Note_on_c, 0, 55, 100
2, 660608, Note_off_c, 0, 63, 64
2, 660608, Note_off_c, 0, 48, 64
2, 660608, Note_on_c, 0, 48, 100
2, 660608, Note_off_c, 0, 74, 64
2, 660608, Note_on_c, 0, 74, 100
2, 660608, Note_off_c, 0, 67, 64
2, 660608, Note_on_c, 0, 75, 100
2, 660608, Note_off_c, 0, 62, 64
2, 660608, Note_on_c, 0, 62, 100
2, 660608, Note_on_c, 0, 67, 100
2, 660608, Note_on_c, 0, 65, 100
2, 660608, Note_off_c, 0, 65, 64
2, 660608, Note_on_c, 0, 63, 100
2, 660608, Note_off_c, 0, 67, 64
2, 660608, Note_on_c, 0, 65, 100
2, 661120, Note_off_c, 0, 75, 64
2, 661120, Note_off_c, 0, 74, 64
2, 661120, Note_on_c, 0, 67, 100
2, 661120, Note_off_c, 0, 65, 64
2, 661120, Note_off_c, 0, 60, 64
2, 661120, Note_on_c, 0, 60, 100
2, 661120, Note_on_c, 0, 74, 100
2, 661120, Note_on_c, 0, 65, 100
2, 661120, Note_on_c, 0, 71, 100
2, 661120, Note_off_c, 0, 71, 64
2, 661120, Note_off_c, 0, 65, 64
2, 661120, Note_off_c, 0, 67, 64
2, 661120, Note_off_c, 0, 74, 64
2, 661120, Note_on_c, 0, 71, 100
2, 661120, Note_on_c, 0, 67, 100
2, 661120, Note_on_c, 0, 75, 100
2, 661120, Note_off_c, 0, 55, 64
2, 661120, Note_off_c, 0, 48, 64
2, 661120, Note_on_c, 0, 48, 100
2, 661120, Note_on_c, 0, 55, 100
2, 663744, Note_off_c, 0, 63, 64
2, 663744, Note_off_c, 0, 62, 64
2, 663744, Note_off_c, 0, 56, 64
2, 663744, Note_off_c, 0, 60, 64
2, 663744, Note_on_c, 0, 56, 100
2, 663744, Note_off_c, 0, 65, 64
2, 663744, Note_on_c, 0, 65, 100
2, 664256, Note_on_c, 0, 63, 100
2, 664256, Note_on_c, 0, 62, 100
2, 664256, Note_off_c, 0, 62, 64
2, 664256, Note_on_c, 0, 62, 100
2, 664256, Note_off_c, 0, 56, 64
2, 664256, Note_on_c, 0, 58, 100
2, 664256, Note_on_c, 0, 60, 100
2, 664256, Note_off_c, 0, 68, 64
2, 664512, Note_on_c, 0, 68, 100
2, 664512, Note_off_c, 0, 70, 64
2, 664768, Note_on_c, 0, 70, 100
2, 664768, Note_off_c, 0, 65, 64
2, 664768, Note_off_c, 0, 60, 64
2, 664768, Note_off_c, 0, 64, 64
2, 664768, Note_off_c, 0, 62, 64
2, 664768, Note_off_c, 0, 67, 64
2, 664768, Note_on_c, 0, 56, 100
2, 664768, Note_off_c, 0, 72, 64
2, 664768, Note_off_c, 0, 71, 64
2, 664768, Note_on_c, 0, 71, 100
2, 664768, Note_on_c, 0, 67, 100
2, 665280, Note_off_c, 0, 72, 64
2, 665280, Note_on_c, 0, 65, 100
2, 665280, Note_off_c, 0, 62, 64
2, 665280, Note_on_c, 0, 62, 100
2, 665280, Note_off_c, 0, 65, 64
2, 665280, Note_on_c, 0, 65, 100
2, 665280, Note_off_c, 0, 57, 64
2, 665280, Note_on_c, 0, 57, 100
2, 665280, Note_on_c, 0, 72, 100
2, 665280, Note_off_c, 0, 67, 64
2, 665280, Note_off_c, 0, 57, 64
2, 665536, Note_off_c, 0, 65, 64
2, 665536, Note_off_c, 0, 72, 64
2, 665536, Note_on_c, 0, 72, 100
2, 665536, Note_off_c, 0, 71, 64
2, 665792, Note_on_c, 0, 71, 100
2, 665792, Note_off_c, 0, 72, 64
2, 665792, Note_on_c, 0, 69, 100
2, 665792, Note_on_c, 0, 64, 100
2, 665792, Note_off_c, 0, 62, 64
2, 665792, Note_off_c, 0, 60, 64
2, 665792, Note_on_c, 0, 60, 100
2, 666048, Note_on_c, 0, 72, 100
2, 666048, Note_on_c, 0, 67, 100
2, 666048, Note_off_c, 0, 64, 64
2, 666048, Note_on_c, 0, 64, 100
2, 666304, Note_off_c, 0, 72, 64
2, 666304, Note_on_c, 0, 74, 100
2, 666304, Note_off_c, 0, 67, 64
2, 666304, Note_off_c, 0, 65, 64
2, 666304, Note_on_c, 0, 65, 100
2, 666304, Note_off_c, 0, 60, 64
2, 666304, Note_on_c, 0, 60, 100
2, 666304, Note_on_c, 0, 57, 100
2, 666304, Note_off_c, 0, 76, 64
2, 666304, Note_on_c, 0, 72, 100
2, 666304, Note_off_c, 0, 69, 64
2, 666304, Note_on_c, 0, 69, 100
2, 666560, Note_off_c, 0, 60, 64
2, 666560, Note_on_c, 0, 60, 100
2, 666560, Note_off_c, 0, 57, 64
2, 666560, Note_off_c, 0, 69, 64
2, 666560, Note_on_c, 0, 69, 100
2, 666816, Note_off_c, 0, 69, 64
2, 666816, Note_on_c, 0, 67, 100
2, 666816, Note_off_c, 0, 60, 64
2, 666816, Note_off_c, 0, 62, 64
2, 666816, Note_on_c, 0, 62, 100
2, 666816, Note_on_c, 0, 57, 100
2, 666816, Note_off_c, 0, 58, 64
2, 666816, Note_on_c, 0, 77, 100
2, 666816, Note_off_c, 0, 74, 64
2, 666816, Note_off_c, 0, 72, 64
2, 666816, Note_off_c, 0, 70, 64
2, 666816, Note_on_c, 0, 72, 100
2, 667328, Note_off_c, 0, 74, 64
2, 667328, Note_off_c, 0, 67, 64
2, 667328, Note_off_c, 0, 65, 64
2, 667328, Note_off_c, 0, 62, 64
2, 667328, Note_on_c, 0, 62, 100
2, 667328, Note_on_c, 0, 58, 100
2, 667328, Note_off_c, 0, 59, 64
2, 667328, Note_on_c, 0, 74, 100
2, 667328, Note_off_c, 0, 72, 64
2, 667328, Note_off_c, 0, 71, 64
2, 667328, Note_on_c, 0, 69, 100
2, 667584, Note_on_c, 0, 72, 100
2, 667584, Note_off_c, 0, 74, 64
2, 667584, Note_on_c, 0, 74, 100
2, 667584, Note_off_c, 0, 67, 64
2, 667584, Note_on_c, 0, 67, 100
2, 667840, Note_on_c, 0, 71, 100
2, 667840, Note_off_c, 0, 74, 64
2, 667840, Note_off_c, 0, 67, 64
2, 667840, Note_on_c, 0, 67, 100
2, 667840, Note_off_c, 0, 62, 64
2, 667840, Note_on_c, 0, 59, 100
2, 668096, Note_on_c, 0, 74, 100
2, 668096, Note_off_c, 0, 72, 64
2, 668096, Note_off_c, 0, 59, 64
2, 668096, Note_off_c, 0, 60, 64
2, 668096, Note_on_c, 0, 60, 100
2, 668352, Note_off_c, 0, 69, 64
2, 668352, Note_off_c, 0, 67, 64
2, 668352, Note_on_c, 0, 67, 100
2, 668352, Note_on_c, 0, 65, 100
2, 668352, Note_off_c, 0, 64, 64
2, 668352, Note_off_c, 0, 60, 64
2, 668352, Note_on_c, 0, 60, 100
2, 668352, Note_off_c, 0, 48, 64
2, 668352, Note_on_c, 0, 72, 100
2, 668352, Note_off_c, 0, 72, 64
2, 668352, Note_off_c, 0, 74, 64
2, 668352, Note_off_c, 0, 76, 64
2, 668352, Note_on_c, 0, 76, 100
2, 668352, Note_on_c, 0, 72, 100
2, 668608, Note_on_c, 0, 74, 100
2, 668608, Note_off_c, 0, 72, 64
2, 668608, Note_on_c, 0, 72, 100
2, 668608, Note_off_c, 0, 69, 64
2, 668608, Note_on_c, 0, 69, 100
2, 668736, Note_off_c, 0, 72, 64
2, 668864, Note_off_c, 0, 69, 64
2, 668864, Note_on_c, 0, 64, 100
2, 668864, Note_on_c, 0, 69, 100
2, 668864, Note_off_c, 0, 60, 64
2, 668864, Note_on_c, 0, 60, 100
2, 668864, Note_off_c, 0, 48, 64
2, 668864, Note_on_c, 0, 48, 100
2, 668864, Note_on_c, 0, 72, 100
2, 668864, Note_off_c, 0, 69, 64
2, 668864, Note_off_c, 0, 74, 64
2, 668864, Note_off_c, 0, 65, 64
2, 668864, Note_on_c, 0, 65, 100
2, 668928, Note_off_c, 0, 72, 64
2, 668928, Note_off_c, 0, 74, 64
2, 668928, Note_on_c, 0, 74, 100
2, 668992, Note_off_c, 0, 74, 64
2, 668992, Note_on_c, 0, 72, 100
2, 668992, Note_off_c, 0, 67, 64
2, 668992, Note_on_c, 0, 67, 100
2, 668992, Note_on_c, 0, 74, 100
2, 669120, Note_off_c, 0, 74, 64
2, 669120, Note_off_c, 0, 72, 64
2, 669120, Note_on_c, 0, 69, 100
2, 669120, Note_off_c, 0, 64, 64
2, 669120, Note_off_c, 0, 48, 64
2, 669120, Note_off_c, 0, 65, 64
2, 669120, Note_on_c, 0, 65, 100
2, 669120, Note_off_c, 0, 67, 64
2, 669120, Note_off_c, 0, 60, 64
2, 669120, Note_on_c, 0, 64, 100
2, 669120, Note_on_c, 0, 60, 100
2, 669120, Note_on_c, 0, 62, 100
2, 669248, Note_off_c, 0, 65, 64
2, 669248, Note_off_c, 0, 60, 64
2, 669248, Note_off_c, 0, 62, 64
2, 669248, Note_on_c, 0, 60, 100
2, 669376, Note_off_c, 0, 57, 64
2, 669376, Note_off_c, 0, 52, 64
2, 669376, Note_on_c, 0, 52, 100
2, 669376, Note_off_c, 0, 45, 64
2, 669376, Note_off_c, 0, 69, 64
2, 669376, Note_on_c, 0, 67, 100
2, 669376, Note_on_c, 0, 62, 100
2, 669376, Note_off_c, 0, 64, 64
2, 669376, Note_off_c, 0, 60, 64
2, 669632, Note_off_c, 0, 69, 64
2, 669632, Note_on_c, 0, 69, 100
2, 669632, Note_off_c, 0, 65, 64
2, 669632, Note_on_c, 0, 65, 100
2, 669760, Note_off_c, 0, 65, 64
2, 669760, Note_on_c, 0, 64, 100
2, 669760, Note_off_c, 0, 67, 64
2, 669760, Note_on_c, 0, 67, 100
2, 669760, Note_off_c, 0, 62, 64
2, 669760, Note_off_c, 0, 60, 64
2, 669760, Note_on_c, 0, 60, 100
2, 669888, Note_on_c, 0, 45, 100
2, 669888, Note_on_c, 0, 57, 100
2, 669888, Note_off_c, 0, 60, 64
2, 669888, Note_off_c, 0, 53, 64
2, 669888, Note_off_c, 0, 69, 64
2, 669888, Note_off_c, 0, 67, 64
2, 669888, Note_off_c, 0, 64, 64
2, 669888, Note_on_c, 0, 67, 100
2, 669888, Note_off_c, 0, 62, 64
2, 669888, Note_on_c, 0, 62, 100
2, 670144, Note_off_c, 0, 53, 64
2, 670144, Note_on_c, 0, 50, 100
2, 670144, Note_off_c, 0, 79, 64
2, 670144, Note_on_c, 0, 79, 100
2, 670144, Note_off_c, 0, 57, 64
2, 670144, Note_on_c, 0, 53, 100
2, 670400, Note_off_c, 0, 67, 64
2, 670400, Note_on_c, 0, 67, 100
2, 670528, Note_off_c, 0, 50, 64
2, 670528, Note_off_c, 0, 52, 64
2, 670656, Note_on_c, 0, 52, 100
2, 670656, Note_off_c, 0, 50, 64
2, 670656, Note_on_c, 0, 50, 100
2, 670656, Note_on_c, 0, 81, 100
2, 670656, Note_off_c, 0, 80, 64
2, 670656, Note_off_c, 0, 62, 64
2, 670656, Note_on_c, 0, 64, 100
2, 670656, Note_off_c, 0, 60, 64
2, 670656, Note_on_c, 0, 59, 100
2, 670656, Note_on_c, 0, 60, 100
2, 670784, Note_off_c, 0, 81, 64
2, 670784, Note_on_c, 0, 80, 100
2, 670912, Note_off_c, 0, 64, 64
2, 670912, Note_on_c, 0, 62, 100
2, 671040, Note_off_c, 0, 60, 64
2, 671040, Note_on_c, 0, 60, 100
2, 671040, Note_off_c, 0, 62, 64
2, 671040, Note_off_c, 0, 57, 64
2, 671040, Note_on_c, 0, 57, 100
2, 671040, Note_off_c, 0, 56, 64
2, 671040, Note_on_c, 0, 48, 100
2, 671040, Note_off_c, 0, 80, 64
2, 671040, Note_on_c, 0, 83, 100
2, 671168, Note_off_c, 0, 67, 64
2, 671168, Note_off_c, 0, 52, 64
2, 671168, Note_on_c, 0, 56, 100
2, 671168, Note_off_c, 0, 48, 64
2, 671168, Note_off_c, 0, 45, 64
2, 671168, Note_on_c, 0, 40, 100
2, 671168, Note_off_c, 0, 60, 64
2, 671168, Note_on_c, 0, 60, 100
2, 671168, Note_on_c, 0, 62, 100
2, 671424, Note_on_c, 0, 48, 100
2, 671552, Note_off_c, 0, 60, 64
2, 671680, Note_off_c, 0, 82, 64
2, 671680, Note_on_c, 0, 81, 100
2, 671680, Note_on_c, 0, 82, 100
2, 671680, Note_on_c, 0, 74, 100
2, 671680, Note_off_c, 0, 81, 64
2, 671680, Note_off_c, 0, 80, 64
2, 671680, Note_off_c, 0, 57, 64
2, 671680, Note_on_c, 0, 64, 100
2, 671680, Note_on_c, 0, 57, 100
2, 671680, Note_on_c, 0, 60, 100
2, 671680, Note_on_c, 0, 52, 100
2, 671680, Note_off_c, 0, 48, 64
2, 671680, Note_on_c, 0, 80, 100
2, 671680, Note_on_c, 0, 81, 100
2, 673216, Note_off_c, 0, 81, 64
2, 673216, Note_off_c, 0, 74, 64
2, 673216, Note_on_c, 0, 67, 100
2, 673216, Note_off_c, 0, 64, 64
2, 673216, Note_on_c, 0, 64, 100
2, 673216, Note_off_c, 0, 60, 64
2, 673216, Note_off_c, 0, 52, 64
2, 673216, Note_off_c, 0, 57, 64
2, 673216, Note_off_c, 0, 58, 64
2, 673216, Note_on_c, 0, 58, 100
2, 673728, Note_on_c, 0, 74, 100
2, 673728, Note_off_c, 0, 67, 64
2, 673728, Note_off_c, 0, 64, 64
2, 673728, Note_on_c, 0, 57, 100
2, 673728, Note_off_c, 0, 58, 64
2, 673728, Note_on_c, 0, 45, 100
2, 673728, Note_on_c, 0, 52, 100
2, 673728, Note_off_c, 0, 40, 64
2, 673728, Note_on_c, 0, 48, 100
2, 674240, Note_off_c, 0, 84, 64
2, 674240, Note_on_c, 0, 84, 100
2, 674240, Note_off_c, 0, 69, 64
2, 674240, Note_on_c, 0, 69, 100
2, 674240, Note_off_c, 0, 50, 64
2, 674240, Note_on_c, 0, 58, 100
2, 674240, Note_on_c, 0, 50, 100
2, 674240, Note_off_c, 0, 52, 64
2, 675008, Note_on_c, 0, 86, 100
2, 675008, Note_off_c, 0, 84, 64
2, 675008, Note_off_c, 0, 69, 64
2, 675008, Note_on_c, 0, 60, 100
2, 675264, Note_on_c, 0, 84, 100
2, 675264, Note_off_c, 0, 76, 64
2, 675264, Note_on_c, 0, 70, 100
2, 675264, Note_on_c, 0, 72, 100
2, 675264, Note_off_c, 0, 55, 64
2, 675264, Note_off_c, 0, 45, 64
2, 675264, Note_off_c, 0, 50, 64
2, 675264, Note_on_c, 0, 38, 100
2, 675264, Note_off_c, 0, 86, 64
2, 675264, Note_on_c, 0, 86, 100
2, 675264, Note_off_c, 0, 60, 64
2, 675264, Note_off_c, 0, 57, 64
2, 675520, Note_off_c, 0, 84, 64
2, 675520, Note_off_c, 0, 82, 64
2, 675520, Note_off_c, 0, 70, 64
2, 675520, Note_on_c, 0, 76, 100
2, 675776, Note_on_c, 0, 82, 100
2, 675776, Note_off_c, 0, 76, 64
2, 675776, Note_off_c, 0, 70, 64
2, 675776, Note_off_c, 0, 72, 64
2, 675776, Note_on_c, 0, 70, 100
2, 675776, Note_on_c, 0, 67, 100
2, 675776, Note_on_c, 0, 60, 100
2, 675776, Note_on_c, 0, 64, 100
2, 675776, Note_on_c, 0, 52, 100
2, 675776, Note_off_c, 0, 48, 64
2, 675776, Note_on_c, 0, 40, 100
2, 675776, Note_on_c, 0, 45, 100
2, 676032, Note_off_c, 0, 67, 64
2, 676032, Note_off_c, 0, 70, 64
2, 676032, Note_off_c, 0, 64, 64
2, 676032, Note_off_c, 0, 62, 64
2, 676288, Note_on_c, 0, 76, 100
2, 676288, Note_off_c, 0, 76, 64
2, 676288, Note_on_c, 0, 62, 100
2, 676288, Note_off_c, 0, 60, 64
2, 676288, Note_on_c, 0, 60, 100
2, 676288, Note_off_c, 0, 58, 64
2, 676288, Note_off_c, 0, 45, 64
2, 676288, Note_on_c, 0, 48, 100
2, 676288, Note_on_c, 0, 45, 100
2, 676288, Note_on_c, 0, 55, 100
2, 676288, Note_off_c, 0, 45, 64
2, 676288, Note_on_c, 0, 84, 100
2, 676288, Note_on_c, 0, 76, 100
2, 676288, Note_on_c, 0, 72, 100
2, 676288, Note_on_c, 0, 70, 100
2, 676288, Note_off_c, 0, 69, 64
2, 676288, Note_off_c, 0, 60, 64
2, 676288, Note_on_c, 0, 58, 100
2, 676288, Note_on_c, 0, 69, 100
2, 676288, Note_on_c, 0, 67, 100
2, 676800, Note_off_c, 0, 76, 64
2, 676800, Note_off_c, 0, 72, 64
2, 676800, Note_off_c, 0, 67, 64
2, 676800, Note_on_c, 0, 65, 100
2, 676800, Note_on_c, 0, 60, 100
2, 676800, Note_off_c, 0, 60, 64
2, 676800, Note_on_c, 0, 60, 100
2, 676800, Note_on_c, 0, 57, 100
2, 676800, Note_off_c, 0, 57, 64
2, 676800, Note_on_c, 0, 57, 100
2, 676800, Note_on_c, 0, 72, 100
2, 676800, Note_off_c, 0, 69, 64
2, 676800, Note_off_c, 0, 58, 64
2, 676800, Note_off_c, 0, 60, 64
2, 677056, Note_off_c, 0, 77, 64
2, 677312, Note_on_c, 0, 77, 100
2, 677312, Note_off_c, 0, 82, 64
2, 677312, Note_off_c, 0, 81, 64
2, 677312, Note_on_c, 0, 81, 100
2, 677312, Note_off_c, 0, 65, 64
2, 677312, Note_on_c, 0, 64, 100
2, 677312, Note_on_c, 0, 60, 100
2, 677312, Note_off_c, 0, 53, 64
2, 677312, Note_off_c, 0, 57, 64
2, 677312, Note_on_c, 0, 57, 100
2, 677312, Note_on_c, 0, 58, 100
2, 677568, Note_on_c, 0, 65, 100
2, 677568, Note_off_c, 0, 64, 64
2, 677568, Note_off_c, 0, 60, 64
2, 677568, Note_off_c, 0, 58, 64
2, 677568, Note_on_c, 0, 53, 100
2, 677824, Note_off_c, 0, 82, 64
2, 677824, Note_off_c, 0, 81, 64
2, 677824, Note_on_c, 0, 82, 100
2, 677824, Note_on_c, 0, 81, 100
2, 677824, Note_on_c, 0, 58, 100
2, 677824, Note_on_c, 0, 60, 100
2, 677824, Note_off_c, 0, 57, 64
2, 677824, Note_on_c, 0, 57, 100
2, 677824, Note_off_c, 0, 53, 64
2, 677824, Note_on_c, 0, 50, 100
2, 677824, Note_off_c, 0, 72, 64
2, 677824, Note_on_c, 0, 72, 100
2, 678336, Note_on_c, 0, 69, 100
2, 678336, Note_off_c, 0, 62, 64
2, 678336, Note_on_c, 0, 62, 100
2, 678336, Note_on_c, 0, 46, 100
2, 678336, Note_on_c, 0, 45, 100
2, 678336, Note_on_c, 0, 64, 100
2, 678336, Note_off_c, 0, 57, 64
2, 678336, Note_off_c, 0, 60, 64
2, 678336, Note_off_c, 0, 73, 64
2, 678336, Note_off_c, 0, 65, 64
2, 678336, Note_off_c, 0, 81, 64
2, 678336, Note_on_c, 0, 81, 100
2, 678336, Note_on_c, 0, 57, 100
2, 678336, Note_on_c, 0, 65, 100
2, 678336, Note_on_c, 0, 61, 100
2, 678592, Note_off_c, 0, 61, 64
2, 678592, Note_off_c, 0, 62, 64
2, 678848, Note_off_c, 0, 69, 64
2, 678848, Note_off_c, 0, 64, 64
2, 678848, Note_off_c, 0, 62, 64
2, 678848, Note_off_c, 0, 61, 64
2, 678848, Note_on_c, 0, 62, 100
2, 678848, Note_on_c, 0, 61, 100
2, 678848, Note_off_c, 0, 58, 64
2, 678848, Note_on_c, 0, 58, 100
2, 679104, Note_off_c, 0, 81, 64
2, 679104, Note_on_c, 0, 81, 100
2, 679104, Note_off_c, 0, 62, 64
2, 679104, Note_on_c, 0, 69, 100
2, 679104, Note_off_c, 0, 58, 64
2, 679104, Note_off_c, 0, 50, 64
2, 679104, Note_off_c, 0, 52, 64
2, 679104, Note_off_c, 0, 41, 64
2, 679104, Note_on_c, 0, 52, 100
2, 679104, Note_off_c, 0, 61, 64
2, 679104, Note_on_c, 0, 61, 100
2, 679360, Note_off_c, 0, 81, 64
2, 679360, Note_off_c, 0, 72, 64
2, 679360, Note_off_c, 0, 76, 64
2, 679360, Note_off_c, 0, 65, 64
2, 679360, Note_on_c, 0, 65, 100
2, 679360, Note_on_c, 0, 60, 100
2, 679360, Note_off_c, 0, 61, 64
2, 679360, Note_off_c, 0, 57, 64
2, 679360, Note_on_c, 0, 57, 100
2, 679360, Note_off_c, 0, 52, 64
2, 679360, Note_on_c, 0, 53, 100
2, 679360, Note_off_c, 0, 45, 64
2, 679360, Note_on_c, 0, 81, 100
2, 679360, Note_on_c, 0, 72, 100
2, 679360, Note_off_c, 0, 77, 64
2, 679360, Note_on_c, 0, 77, 100
2, 679360, Note_on_c, 0, 76, 100
2, 679872, Note_off_c, 0, 61, 64
2, 679872, Note_on_c, 0, 62, 100
2, 679872, Note_off_c, 0, 62, 64
2, 679872, Note_off_c, 0, 57, 64
2, 679872, Note_off_c, 0, 53, 64
2, 679872, Note_on_c, 0, 50, 100
2, 679872, Note_off_c, 0, 79, 64
2, 679872, Note_off_c, 0, 82, 64
2, 679872, Note_off_c, 0, 81, 64
2, 679872, Note_off_c, 0, 77, 64
2, 679872, Note_off_c, 0, 76, 64
2, 679872, Note_off_c, 0, 69, 64
2, 679872, Note_on_c, 0, 64, 100
2, 679872, Note_on_c, 0, 62, 100
2, 679872, Note_on_c, 0, 61, 100
2, 679872, Note_off_c, 0, 65, 64
2, 679872, Note_off_c, 0, 70, 64
2, 679872, Note_on_c, 0, 57, 100
2, 680128, Note_off_c, 0, 79, 64
2, 680128, Note_on_c, 0, 76, 100
2, 680128, Note_on_c, 0, 79, 100
2, 680128, Note_on_c, 0, 77, 100
2, 680128, Note_off_c, 0, 74, 64
2, 680128, Note_on_c, 0, 74, 100
2, 680128, Note_on_c, 0, 81, 100
2, 680384, Note_off_c, 0, 79, 64
2, 680384, Note_off_c, 0, 76, 64
2, 680384, Note_off_c, 0, 74, 64
2, 680384, Note_on_c, 0, 73, 100
2, 680384, Note_off_c, 0, 62, 64
2, 680384, Note_off_c, 0, 61, 64
2, 680384, Note_on_c, 0, 58, 100
2, 680384, Note_off_c, 0, 53, 64
2, 680384, Note_on_c, 0, 53, 100
2, 680384, Note_on_c, 0, 74, 100
2, 680384, Note_on_c, 0, 79, 100
2, 680384, Note_off_c, 0, 79, 64
2, 680384, Note_on_c, 0, 65, 100
2, 680384, Note_on_c, 0, 61, 100
2, 680384, Note_off_c, 0, 70, 64
2, 680384, Note_on_c, 0, 70, 100
2, 680640, Note_off_c, 0, 50, 64
2, 680640, Note_on_c, 0, 50, 100
2, 680640, Note_on_c, 0, 79, 100
2, 680768, Note_off_c, 0, 73, 64
2, 680768, Note_on_c, 0, 76, 100
2, 680896, Note_on_c, 0, 73, 100
2, 680896, Note_on_c, 0, 69, 100
2, 680896, Note_off_c, 0, 58, 64
2, 680896, Note_off_c, 0, 50, 64
2, 680896, Note_off_c, 0, 53, 64
2, 680896, Note_off_c, 0, 60, 64
2, 680896, Note_off_c, 0, 62, 64
2, 680896, Note_off_c, 0, 81, 64
2, 680896, Note_off_c, 0, 76, 64
2, 680896, Note_off_c, 0, 72, 64
2, 680896, Note_off_c, 0, 70, 64
2, 680896, Note_off_c, 0, 65, 64
2, 680896, Note_on_c, 0, 62, 100
2, 681152, Note_off_c, 0, 69, 64
2, 681152, Note_on_c, 0, 70, 100
2, 681408, Note_off_c, 0, 74, 64
2, 681408, Note_off_c, 0, 77, 64
2, 681408, Note_off_c, 0, 64, 64
2, 681408, Note_off_c, 0, 65, 64
2, 681408, Note_on_c, 0, 58, 100
2, 681408, Note_off_c, 0, 57, 64
2, 681408, Note_on_c, 0, 57, 100
2, 681408, Note_on_c, 0, 69, 100
2, 681408, Note_on_c, 0, 74, 100
2, 681408, Note_on_c, 0, 65, 100
2, 681408, Note_off_c, 0, 67, 64
2, 681408, Note_on_c, 0, 77, 100
2, 681408, Note_off_c, 0, 72, 64
2, 681408, Note_on_c, 0, 72, 100
2, 681408, Note_on_c, 0, 67, 100
2, 681536, Note_off_c, 0, 65, 64
2, 681536, Note_off_c, 0, 67, 64
2, 681536, Note_on_c, 0, 64, 100
2, 681664, Note_off_c, 0, 77, 64
2, 681664, Note_off_c, 0, 79, 64
2, 681664, Note_off_c, 0, 58, 64
2, 681664, Note_off_c, 0, 64, 64
2, 681664, Note_on_c, 0, 64, 100
2, 681792, Note_on_c, 0, 79, 100
2, 681792, Note_off_c, 0, 70, 64
2, 681792, Note_off_c, 0, 69, 64
2, 681792, Note_off_c, 0, 60, 64
2, 681792, Note_on_c, 0, 65, 100
2, 681792, Note_on_c, 0, 60, 100
2, 681920, Note_off_c, 0, 77, 64
2, 681920, Note_on_c, 0, 76, 100
2, 681920, Note_off_c, 0, 67, 64
2, 681920, Note_off_c, 0, 72, 64
2, 681920, Note_off_c, 0, 65, 64
2, 681920, Note_on_c, 0, 69, 100
2, 681920, Note_on_c, 0, 58, 100
2, 681920, Note_off_c, 0, 57, 64
2, 681920, Note_on_c, 0, 77, 100
2, 681920, Note_on_c, 0, 72, 100
2, 681920, Note_on_c, 0, 67, 100
2, 682176, Note_off_c, 0, 65, 64
2, 682176, Note_on_c, 0, 50, 100
2, 682176, Note_off_c, 0, 67, 64
2, 682176, Note_on_c, 0, 65, 100
2, 682176, Note_on_c, 0, 57, 100
2, 682176, Note_off_c, 0, 69, 64
2, 682176, Note_off_c, 0, 58, 64
2, 682176, Note_off_c, 0, 77, 64
2, 682176, Note_off_c, 0, 72, 64
2, 682176, Note_off_c, 0, 46, 64
2, 682432, Note_on_c, 0, 72, 100
2, 682432, Note_on_c, 0, 67, 100
2, 682432, Note_off_c, 0, 65, 64
2, 682432, Note_on_c, 0, 58, 100
2, 682432, Note_off_c, 0, 57, 64
2, 682432, Note_on_c, 0, 46, 100
2, 682432, Note_off_c, 0, 48, 64
2, 682432, Note_on_c, 0, 65, 100
2, 682432, Note_off_c, 0, 65, 64
2, 682432, Note_off_c, 0, 50, 64
2, 682688, Note_on_c, 0, 77, 100
2, 682688, Note_off_c, 0, 79, 64
2, 683200, Note_on_c, 0, 79, 100
2, 683200, Note_off_c, 0, 76, 64
2, 683200, Note_on_c, 0, 70, 100
2, 683200, Note_off_c, 0, 67, 64
2, 683200, Note_on_c, 0, 65, 100
2, 683200, Note_off_c, 0, 64, 64
2, 683200, Note_off_c, 0, 60, 64
2, 683200, Note_on_c, 0, 57, 100
2, 683200, Note_off_c, 0, 57, 64
2, 683200, Note_on_c, 0, 57, 100
2, 683200, Note_on_c, 0, 69, 100
2, 683200, Note_on_c, 0, 76, 100
2, 683200, Note_off_c, 0, 77, 64
2, 683200, Note_on_c, 0, 67, 100
2, 683328, Note_off_c, 0, 76, 64
2, 683328, Note_on_c, 0, 77, 100
2, 683328, Note_on_c, 0, 76, 100
2, 683456, Note_off_c, 0, 64, 64
2, 683456, Note_off_c, 0, 65, 64
2, 683456, Note_on_c, 0, 48, 100
2, 683456, Note_off_c, 0, 77, 64
2, 683456, Note_off_c, 0, 74, 64
2, 683456, Note_on_c, 0, 74, 100
2, 683456, Note_off_c, 0, 72, 64
2, 683456, Note_off_c, 0, 67, 64
2, 683456, Note_off_c, 0, 60, 64
2, 683456, Note_on_c, 0, 64, 100
2, 683456, Note_on_c, 0, 60, 100
2, 683456, Note_off_c, 0, 57, 64
2, 683456, Note_on_c, 0, 57, 100
2, 685056, Note_off_c, 0, 72, 64
2, 685056, Note_off_c, 0, 76, 64
2, 685056, Note_on_c, 0, 76, 100
2, 685056, Note_on_c, 0, 72, 100
2, 685056, Note_off_c, 0, 69, 64
2, 685056, Note_off_c, 0, 67, 64
2, 685056, Note_off_c, 0, 60, 64
2, 685056, Note_off_c, 0, 57, 64
2, 685056, Note_on_c, 0, 67, 100
2, 685056, Note_off_c, 0, 64, 64
2, 685056, Note_off_c, 0, 58, 64
2, 685056, Note_on_c, 0, 57, 100
2, 685056, Note_off_c, 0, 57, 64
2, 685568, Note_on_c, 0, 57, 100
2, 685568, Note_on_c, 0, 58, 100
2, 685568, Note_off_c, 0, 72, 64
2, 685568, Note_off_c, 0, 77, 64
2, 685568, Note_on_c, 0, 77, 100
2, 685568, Note_off_c, 0, 76, 64
2, 685568, Note_off_c, 0, 69, 64
2, 685568, Note_on_c, 0, 69, 100
2, 685568, Note_on_c, 0, 72, 100
2, 685568, Note_off_c, 0, 65, 64
2, 685568, Note_on_c, 0, 65, 100
2, 685568, Note_off_c, 0, 57, 64
2, 685568, Note_on_c, 0, 50, 100
2, 685568, Note_on_c, 0, 57, 100
2, 685824, Note_off_c, 0, 70, 64
2, 685824, Note_on_c, 0, 64, 100
2, 685824, Note_off_c, 0, 65, 64
2, 685824, Note_off_c, 0, 58, 64
2, 685824, Note_on_c, 0, 60, 100
2, 685824, Note_off_c, 0, 55, 64
2, 685824, Note_off_c, 0, 69, 64
2, 685824, Note_on_c, 0, 69, 100
2, 685824, Note_off_c, 0, 57, 64
2, 685824, Note_on_c, 0, 57, 100
2, 685824, Note_off_c, 0, 72, 64
2, 685824, Note_on_c, 0, 70, 100
2, 686080, Note_off_c, 0, 76, 64
2, 686080, Note_on_c, 0, 76, 100
2, 686080, Note_off_c, 0, 70, 64
2, 686080, Note_off_c, 0, 60, 64
2, 686080, Note_on_c, 0, 58, 100
2, 686080, Note_on_c, 0, 55, 100
2, 686080, Note_off_c, 0, 55, 64
2, 686080, Note_off_c, 0, 67, 64
2, 686080, Note_off_c, 0, 69, 64
2, 686080, Note_off_c, 0, 64, 64
2, 686080, Note_off_c, 0, 57, 64
2, 686080, Note_on_c, 0, 55, 100
2, 686080, Note_on_c, 0, 57, 100
2, 686080, Note_on_c, 0, 41, 100
2, 686080, Note_off_c, 0, 74, 64
2, 686080, Note_on_c, 0, 72, 100
2, 686208, Note_off_c, 0, 76, 64
2, 686208, Note_off_c, 0, 72, 64
2, 686208, Note_on_c, 0, 74, 100
2, 686336, Note_off_c, 0, 58, 64
2, 686336, Note_off_c, 0, 57, 64
2, 686336, Note_on_c, 0, 72, 100
2, 686336, Note_on_c, 0, 69, 100
2, 686336, Note_on_c, 0, 57, 100
2, 686336, Note_on_c, 0, 64, 100
2, 686336, Note_off_c, 0, 55, 64
2, 686336, Note_off_c, 0, 62, 64
2, 686464, Note_off_c, 0, 76, 64
2, 686464, Note_on_c, 0, 76, 100
2, 686592, Note_off_c, 0, 74, 64
2, 686592, Note_on_c, 0, 65, 100
2, 686592, Note_off_c, 0, 62, 64
2, 686592, Note_off_c, 0, 69, 64
2, 686592, Note_off_c, 0, 64, 64
2, 686592, Note_on_c, 0, 62, 100
2, 686592, Note_on_c, 0, 60, 100
2, 686592, Note_off_c, 0, 55, 64
2, 686592, Note_on_c, 0, 55, 100
2, 686592, Note_off_c, 0, 72, 64
2, 686592, Note_on_c, 0, 72, 100
2, 686592, Note_off_c, 0, 72, 64
2, 686720, Note_on_c, 0, 64, 100
2, 686848, Note_off_c, 0, 76, 64
2, 686848, Note_on_c, 0, 76, 100
2, 686976, Note_off_c, 0, 60, 64
2, 686976, Note_off_c, 0, 57, 64
2, 686976, Note_on_c, 0, 57, 100
2, 686976, Note_off_c, 0, 41, 64
2, 686976, Note_off_c, 0, 55, 64
2, 686976, Note_on_c, 0, 82, 100
2, 686976, Note_on_c, 0, 72, 100
2, 686976, Note_off_c, 0, 64, 64
2, 686976, Note_off_c, 0, 62, 64
2, 686976, Note_off_c, 0, 58, 64
2, 686976, Note_on_c, 0, 58, 100
2, 687104, Note_off_c, 0, 65, 64
2, 687104, Note_on_c, 0, 65, 100
2, 687104, Note_off_c, 0, 57, 64
2, 687104, Note_off_c, 0, 41, 64
2, 687104, Note_off_c, 0, 82, 64
2, 687104, Note_off_c, 0, 81, 64
2, 687104, Note_on_c, 0, 81, 100
2, 687104, Note_off_c, 0, 79, 64
2, 687104, Note_off_c, 0, 65, 64
2, 687104, Note_on_c, 0, 60, 100
2, 687104, Note_off_c, 0, 60, 64
2, 687104, Note_off_c, 0, 62, 64
2, 687104, Note_on_c, 0, 57, 100
2, 687104, Note_off_c, 0, 57, 64
2, 687104, Note_on_c, 0, 60, 100
2, 687104, Note_on_c, 0, 53, 100
2, 687104, Note_on_c, 0, 62, 100
2, 687104, Note_off_c, 0, 60, 64
2, 687104, Note_off_c, 0, 72, 64
2, 687104, Note_on_c, 0, 72, 100
2, 687104, Note_on_c, 0, 69, 100
2, 687104, Note_on_c, 0, 41, 100
2, 687360, Note_off_c, 0, 41, 64
2, 687360, Note_off_c, 0, 53, 64
2, 687616, Note_off_c, 0, 72, 64
2, 687616, Note_on_c, 0, 72, 100
2, 687616, Note_off_c, 0, 69, 64
2, 687616, Note_on_c, 0, 60, 100
2, 687616, Note_on_c, 0, 69, 100
2, 687616, Note_on_c, 0, 57, 100
2, 687616, Note_off_c, 0, 53, 64
2, 687616, Note_on_c, 0, 53, 100
2, 687616, Note_off_c, 0, 41, 64
2, 687616, Note_on_c, 0, 41, 100
2, 687616, Note_off_c, 0, 72, 64
2, 687616, Note_on_c, 0, 72, 100
2, 687616, Note_off_c, 0, 60, 64
2, 687616, Note_on_c, 0, 60, 100
2, 687616, Note_on_c, 0, 65, 100
2, 687872, Note_off_c, 0, 81, 64
2, 687872, Note_off_c, 0, 77, 64
2, 687872, Note_off_c, 0, 72, 64
2, 687872, Note_off_c, 0, 71, 64
2, 688128, Note_off_c, 0, 77, 64
2, 688128, Note_on_c, 0, 77, 100
2, 688128, Note_off_c, 0, 71, 64
2, 688128, Note_off_c, 0, 69, 64
2, 688128, Note_on_c, 0, 69, 100
2, 688128, Note_on_c, 0, 71, 100
2, 688128, Note_off_c, 0, 65, 64
2, 688128, Note_off_c, 0, 62, 64
2, 688256, Note_off_c, 0, 71, 64
2, 688256, Note_on_c, 0, 79, 100
2, 688256, Note_off_c, 0, 77, 64
2, 688384, Note_on_c, 0, 65, 100
2, 688384, Note_off_c, 0, 60, 64
2, 688384, Note_on_c, 0, 60, 100
2, 688384, Note_off_c, 0, 41, 64
2, 688384, Note_off_c, 0, 53, 64
2, 688384, Note_off_c, 0, 65, 64
2, 688384, Note_on_c, 0, 65, 100
2, 688384, Note_off_c, 0, 50, 64
2, 688384, Note_on_c, 0, 62, 100
2, 688384, Note_off_c, 0, 65, 64
2, 688384, Note_off_c, 0, 69, 64
2, 688384, Note_on_c, 0, 71, 100
2, 688640, Note_on_c, 0, 65, 100
2, 688640, Note_off_c, 0, 67, 64
2, 688640, Note_off_c, 0, 71, 64
2, 688640, Note_off_c, 0, 52, 64
2, 688640, Note_on_c, 0, 50, 100
2, 688640, Note_on_c, 0, 52, 100
2, 688640, Note_on_c, 0, 72, 100
2, 688640, Note_off_c, 0, 72, 64
2, 688640, Note_on_c, 0, 72, 100
2, 688640, Note_on_c, 0, 67, 100
2, 688640, Note_on_c, 0, 64, 100
2, 688640, Note_off_c, 0, 60, 64
2, 688640, Note_off_c, 0, 57, 64
2, 688768, Note_off_c, 0, 72, 64
2, 688768, Note_on_c, 0, 71, 100
2, 688896, Note_off_c, 0, 71, 64
2, 688896, Note_off_c, 0, 60, 64
2, 688896, Note_on_c, 0, 57, 100
2, 688896, Note_on_c, 0, 60, 100
2, 688896, Note_off_c, 0, 52, 64
2, 688896, Note_off_c, 0, 57, 64
2, 688896, Note_off_c, 0, 65, 64
2, 688896, Note_on_c, 0, 72, 100
2, 688896, Note_on_c, 0, 74, 100
2, 688896, Note_off_c, 0, 69, 64
2, 688896, Note_on_c, 0, 65, 100
2, 688896, Note_off_c, 0, 64, 64
2, 688896, Note_on_c, 0, 57, 100
2, 688896, Note_on_c, 0, 55, 100
2, 688896, Note_off_c, 0, 57, 64
2, 688896, Note_on_c, 0, 77, 100
2, 688896, Note_on_c, 0, 69, 100
2, 689152, Note_on_c, 0, 57, 100
2, 689152, Note_off_c, 0, 59, 64
2, 689152, Note_on_c, 0, 59, 100
2, 689152, Note_off_c, 0, 67, 64
2, 689152, Note_on_c, 0, 67, 100
2, 689408, Note_off_c, 0, 72, 64
2, 689408, Note_off_c, 0, 74, 64
2, 689408, Note_off_c, 0, 67, 64
2, 689408, Note_off_c, 0, 69, 64
2, 689408, Note_off_c, 0, 55, 64
2, 689408, Note_off_c, 0, 60, 64
2, 689408, Note_off_c, 0, 59, 64
2, 689408, Note_on_c, 0, 60, 100
2, 689408, Note_on_c, 0, 53, 100
2, 689664, Note_on_c, 0, 69, 100
2, 689664, Note_off_c, 0, 62, 64
2, 689664, Note_on_c, 0, 62, 100
2, 689664, Note_off_c, 0, 59, 64
2, 689664, Note_on_c, 0, 59, 100
2, 689920, Note_off_c, 0, 69, 64
2, 689920, Note_on_c, 0, 64, 100
2, 689920, Note_off_c, 0, 62, 64
2, 689920, Note_off_c, 0, 60, 64
2, 689920, Note_on_c, 0, 60, 100
2, 689920, Note_off_c, 0, 55, 64
2, 689920, Note_on_c, 0, 55, 100
2, 689920, Note_off_c, 0, 59, 64
2, 689920, Note_on_c, 0, 72, 100
2, 689920, Note_on_c, 0, 71, 100
2, 690176, Note_on_c, 0, 69, 100
2, 690176, Note_off_c, 0, 71, 64
2, 690176, Note_off_c, 0, 62, 64
2, 690176, Note_on_c, 0, 62, 100
2, 690176, Note_off_c, 0, 55, 64
2, 690176, Note_off_c, 0, 53, 64
2, 690176, Note_off_c, 0, 48, 64
2, 690432, Note_on_c, 0, 71, 100
2, 690432, Note_off_c, 0, 67, 64
2, 690432, Note_on_c, 0, 59, 100
2, 690432, Note_off_c, 0, 60, 64
2, 690432, Note_off_c, 0, 48, 64
2, 690432, Note_on_c, 0, 53, 100
2, 690432, Note_on_c, 0, 47, 100
2, 690432, Note_on_c, 0, 48, 100
2, 690432, Note_off_c, 0, 62, 64
2, 690432, Note_on_c, 0, 67, 100
2, 690688, Note_off_c, 0, 67, 64
2, 690688, Note_off_c, 0, 69, 64
2, 690688, Note_on_c, 0, 69, 100
2, 690688, Note_on_c, 0, 67, 100
2, 690688, Note_off_c, 0, 48, 64
2, 690688, Note_off_c, 0, 53, 64
2, 690688, Note_on_c, 0, 55, 100
2, 690688, Note_on_c, 0, 60, 100
2, 690688, Note_on_c, 0, 62, 100
2, 690944, Note_off_c, 0, 69, 64
2, 690944, Note_off_c, 0, 67, 64
2, 690944, Note_off_c, 0, 62, 64
2, 690944, Note_off_c, 0, 64, 64
2, 690944, Note_off_c, 0, 59, 64
2, 690944, Note_off_c, 0, 55, 64
2, 690944, Note_off_c, 0, 47, 64
2, 690944, Note_off_c, 0, 57, 64
2, 691200, Note_on_c, 0, 57, 100
2, 691200, Note_off_c, 0, 52, 64
2, 691200, Note_on_c, 0, 52, 100
2, 691200, Note_off_c, 0, 48, 64
2, 691200, Note_on_c, 0, 48, 100
2, 691456, Note_on_c, 0, 64, 100
2, 691456, Note_off_c, 0, 65, 64
2, 691456, Note_off_c, 0, 60, 64
2, 691456, Note_on_c, 0, 59, 100
2, 691456, Note_off_c, 0, 48, 64
2, 691456, Note_on_c, 0, 48, 100
2, 691712, Note_on_c, 0, 65, 100
2, 691712, Note_off_c, 0, 64, 64
2, 691712, Note_off_c, 0, 52, 64
2, 691712, Note_off_c, 0, 48, 64
2, 691712, Note_on_c, 0, 47, 100
2, 691968, Note_on_c, 0, 67, 100
2, 691968, Note_on_c, 0, 69, 100
2, 691968, Note_on_c, 0, 64, 100
2, 691968, Note_off_c, 0, 64, 64
2, 691968, Note_on_c, 0, 60, 100
2, 691968, Note_off_c, 0, 60, 64
2, 691968, Note_off_c, 0, 48, 64
2, 691968, Note_off_c, 0, 45, 64
2, 691968, Note_on_c, 0, 64, 100
2, 691968, Note_on_c, 0, 60, 100
2, 691968, Note_on_c, 0, 45, 100
2, 691968, Note_on_c, 0, 48, 100
2, 692480, Note_off_c, 0, 67, 64
2, 692480, Note_off_c, 0, 69, 64
2, 692480, Note_off_c, 0, 64, 64
2, 692480, Note_on_c, 0, 67, 100
2, 692480, Note_off_c, 0, 60, 64
2, 692480, Note_on_c, 0, 60, 100
2, 692480, Note_off_c, 0, 48, 64
2, 692480, Note_off_c, 0, 45, 64
2, 692480, Note_on_c, 0, 69, 100
2, 692480, Note_off_c, 0, 67, 64
2, 692992, Note_off_c, 0, 64, 64
2, 692992, Note_on_c, 0, 64, 100
2, 692992, Note_off_c, 0, 45, 64
2, 692992, Note_on_c, 0, 45, 100
2, 692992, Note_off_c, 0, 60, 64
2, 692992, Note_on_c, 0, 60, 100
2, 692992, Note_off_c, 0, 57, 64
2, 692992, Note_on_c, 0, 57, 100
2, 693248, Note_off_c, 0, 60, 64
2, 693248, Note_on_c, 0, 62, 100
2, 693248, Note_off_c, 0, 57, 64
2, 693248, Note_on_c, 0, 57, 100
2, 693248, Note_on_c, 0, 67, 100
2, 693504, Note_off_c, 0, 67, 64
2, 693504, Note_off_c, 0, 62, 64
2, 693504, Note_off_c, 0, 64, 64
2, 693504, Note_on_c, 0, 60, 100
2, 693504, Note_off_c, 0, 57, 64
2, 693504, Note_off_c, 0, 45, 64
2, 693504, Note_on_c, 0, 48, 100
2, 693760, Note_off_c, 0, 60, 64
2, 693760, Note_on_c, 0, 52, 100
2, 693760, Note_on_c, 0, 60, 100
2, 693760, Note_on_c, 0, 64, 100
2, 693760, Note_on_c, 0, 57, 100
2, 693760, Note_on_c, 0, 45, 100
2, 693760, Note_off_c, 0, 48, 64
2, 693760, Note_on_c, 0, 48, 100
2, 693760, Note_off_c, 0, 65, 64
2, 693760, Note_on_c, 0, 65, 100
2, 694016, Note_off_c, 0, 69, 64
2, 694016, Note_off_c, 0, 67, 64
2, 694016, Note_off_c, 0, 65, 64
2, 694016, Note_off_c, 0, 64, 64
2, 694016, Note_off_c, 0, 57, 64
2, 694016, Note_off_c, 0, 60, 64
2, 694016, Note_on_c, 0, 60, 100
2, 694016, Note_off_c, 0, 48, 64
2, 694016, Note_on_c, 0, 69, 100
2, 694016, Note_on_c, 0, 67, 100
2, 694016, Note_off_c, 0, 60, 64
2, 694016, Note_on_c, 0, 62, 100
2, 694272, Note_off_c, 0, 62, 64
2, 694272, Note_on_c, 0, 64, 100
2, 694272, Note_off_c, 0, 65, 64
2, 694272, Note_on_c, 0, 65, 100
2, 694272, Note_on_c, 0, 60, 100
2, 694400, Note_off_c, 0, 60, 64
2, 694400, Note_off_c, 0, 59, 64
2, 694528, Note_off_c, 0, 64, 64
2, 694528, Note_off_c, 0, 67, 64
2, 694528, Note_off_c, 0, 65, 64
2, 694528, Note_on_c, 0, 60, 100
2, 694528, Note_on_c, 0, 59, 100
2, 694528, Note_on_c, 0, 57, 100
2, 694528, Note_on_c, 0, 65, 100
2, 694784, Note_off_c, 0, 65, 64
2, 694784, Note_on_c, 0, 67, 100
2, 694784, Note_off_c, 0, 60, 64
2, 694784, Note_on_c, 0, 64, 100
2, 695040, Note_off_c, 0, 67, 64
2, 695040, Note_off_c, 0, 62, 64
2, 695040, Note_off_c, 0, 64, 64
2, 695040, Note_on_c, 0, 62, 100
2, 695040, Note_off_c, 0, 57, 64
2, 695040, Note_on_c, 0, 55, 100
2, 695040, Note_on_c, 0, 66, 100
2, 695040, Note_on_c, 0, 67, 100
2, 695296, Note_off_c, 0, 66, 64
2, 695296, Note_on_c, 0, 64, 100
2, 695296, Note_on_c, 0, 60, 100
2, 695552, Note_off_c, 0, 62, 64
2, 695552, Note_on_c, 0, 62, 100
2, 695552, Note_off_c, 0, 60, 64
2, 695552, Note_off_c, 0, 57, 64
2, 695552, Note_on_c, 0, 57, 100
2, 695552, Note_off_c, 0, 54, 64
2, 695552, Note_off_c, 0, 67, 64
2, 695552, Note_on_c, 0, 54, 100
2, 695552, Note_off_c, 0, 65, 64
2, 695552, Note_on_c, 0, 65, 100
2, 695808, Note_off_c, 0, 55, 64
2, 695808, Note_on_c, 0, 53, 100
2, 695808, Note_off_c, 0, 52, 64
2, 696064, Note_off_c, 0, 64, 64
2, 696064, Note_off_c, 0, 62, 64
2, 696064, Note_on_c, 0, 62, 100
2, 696064, Note_off_c, 0, 53, 64
2, 696064, Note_off_c, 0, 58, 64
2, 696064, Note_off_c, 0, 52, 64
2, 696064, Note_off_c, 0, 50, 64
2, 696064, Note_on_c, 0, 52, 100
2, 696064, Note_on_c, 0, 50, 100
2, 696064, Note_on_c, 0, 58, 100
2, 696064, Note_off_c, 0, 57, 64
2, 696320, Note_on_c, 0, 64, 100
2, 696320, Note_off_c, 0, 65, 64
2, 696320, Note_on_c, 0, 65, 100
2, 696320, Note_on_c, 0, 67, 100
2, 696448, Note_off_c, 0, 62, 64
2, 696448, Note_off_c, 0, 64, 64
2, 696576, Note_off_c, 0, 65, 64
2, 696576, Note_off_c, 0, 60, 64
2, 696576, Note_off_c, 0, 57, 64
2, 696576, Note_on_c, 0, 57, 100
2, 696576, Note_off_c, 0, 50, 64
2, 696576, Note_off_c, 0, 49, 64
2, 696576, Note_on_c, 0, 65, 100
2, 696576, Note_off_c, 0, 64, 64
2, 696576, Note_off_c, 0, 67, 64
2, 696576, Note_on_c, 0, 55, 100
2, 696576, Note_on_c, 0, 48, 100
2, 696576, Note_on_c, 0, 60, 100
2, 696576, Note_on_c, 0, 64, 100
2, 696832, Note_off_c, 0, 57, 64
2, 696832, Note_off_c, 0, 55, 64
2, 697088, Note_off_c, 0, 55, 64
2, 697088, Note_off_c, 0, 61, 64
2, 697088, Note_off_c, 0, 64, 64
2, 697088, Note_off_c, 0, 65, 64
2, 697088, Note_on_c, 0, 57, 100
2, 697088, Note_off_c, 0, 57, 64
2, 697088, Note_on_c, 0, 53, 100
2, 697088, Note_on_c, 0, 57, 100
2, 697088, Note_on_c, 0, 55, 100
2, 697088, Note_on_c, 0, 49, 100
2, 697088, Note_on_c, 0, 50, 100
2, 697088, Note_off_c, 0, 69, 64
2, 697088, Note_on_c, 0, 69, 100
2, 697344, Note_off_c, 0, 58, 64
2, 697600, Note_on_c, 0, 65, 100
2, 697600, Note_off_c, 0, 62, 64
2, 697600, Note_off_c, 0, 50, 64
2, 697600, Note_off_c, 0, 57, 64
2, 697600, Note_off_c, 0, 52, 64
2, 697600, Note_on_c, 0, 50, 100
2, 697600, Note_on_c, 0, 58, 100
2, 697600, Note_off_c, 0, 69, 64
2, 697600, Note_on_c, 0, 57, 100
2, 697600, Note_off_c, 0, 65, 64
2, 697600, Note_on_c, 0, 62, 100
2, 697600, Note_on_c, 0, 61, 100
2, 697600, Note_on_c, 0, 65, 100
2, 697856, Note_on_c, 0, 52, 100
2, 697856, Note_off_c, 0, 53, 64
2, 697856, Note_off_c, 0, 55, 64
2, 697856, Note_off_c, 0, 57, 64
2, 697856, Note_on_c, 0, 64, 100
2, 698112, Note_off_c, 0, 65, 64
2, 698112, Note_off_c, 0, 62, 64
2, 698112, Note_on_c, 0, 57, 100
2, 698112, Note_off_c, 0, 58, 64
2, 698112, Note_on_c, 0, 53, 100
2, 698112, Note_on_c, 0, 55, 100
2, 698112, Note_off_c, 0, 61, 64
2, 698112, Note_off_c, 0, 64, 64
2, 698368, Note_off_c, 0, 57, 64
2, 698368, Note_on_c, 0, 57, 100
2, 698368, Note_on_c, 0, 58, 100
2, 698368, Note_off_c, 0, 50, 64
2, 698368, Note_off_c, 0, 55, 64
2, 698368, Note_on_c, 0, 55, 100
2, 698368, Note_on_c, 0, 67, 100
2, 698496, Note_on_c, 0, 69, 100
2, 698496, Note_off_c, 0, 67, 64
2, 698496, Note_on_c, 0, 65, 100
2, 698496, Note_off_c, 0, 62, 64
2, 698496, Note_off_c, 0, 55, 64
2, 698496, Note_on_c, 0, 64, 100
2, 698496, Note_on_c, 0, 62, 100
2, 698496, Note_off_c, 0, 52, 64
2, 698496, Note_on_c, 0, 50, 100
2, 698496, Note_off_c, 0, 57, 64
2, 698496, Note_off_c, 0, 53, 64
2, 698624, Note_off_c, 0, 65, 64
2, 698624, Note_off_c, 0, 69, 64
2, 698624, Note_off_c, 0, 62, 64
2, 698624, Note_off_c, 0, 58, 64
2, 698624, Note_on_c, 0, 52, 100
2, 698624, Note_on_c, 0, 69, 100
2, 698624, Note_off_c, 0, 57, 64
2, 698624, Note_off_c, 0, 67, 64
2, 698624, Note_on_c, 0, 65, 100
2, 698624, Note_off_c, 0, 65, 64
2, 698624, Note_off_c, 0, 53, 64
2, 698624, Note_on_c, 0, 53, 100
2, 698624, Note_on_c, 0, 67, 100
2, 698624, Note_on_c, 0, 57, 100
2, 698624, Note_on_c, 0, 62, 100
2, 698624, Note_off_c, 0, 69, 64
2, 698880, Note_on_c, 0, 65, 100
2, 698880, Note_off_c, 0, 67, 64
2, 699008, Note_off_c, 0, 53, 64
2, 699008, Note_off_c, 0, 62, 64
2, 699008, Note_off_c, 0, 65, 64
2, 699008, Note_on_c, 0, 69, 100
2, 699008, Note_on_c, 0, 65, 100
2, 699008, Note_on_c, 0, 67, 100
2, 699008, Note_off_c, 0, 65, 64
2, 699008, Note_off_c, 0, 57, 64
2, 699136, Note_off_c, 0, 67, 64
2, 699136, Note_off_c, 0, 69, 64
2, 699136, Note_on_c, 0, 65, 100
2, 699136, Note_off_c, 0, 65, 64
2, 699136, Note_on_c, 0, 57, 100
2, 699136, Note_off_c, 0, 50, 64
2, 699136, Note_on_c, 0, 65, 100
2, 699136, Note_on_c, 0, 62, 100
2, 699136, Note_off_c, 0, 65, 64
2, 699136, Note_on_c, 0, 58, 100
2, 699136, Note_on_c, 0, 69, 100
2, 699392, Note_off_c, 0, 62, 64
2, 699392, Note_off_c, 0, 58, 64
2, 699392, Note_on_c, 0, 58, 100
2, 699392, Note_on_c, 0, 50, 100
2, 699392, Note_off_c, 0, 52, 64
2, 699648, Note_on_c, 0, 65, 100
2, 699648, Note_on_c, 0, 52, 100
2, 699648, Note_off_c, 0, 53, 64
2, 699648, Note_on_c, 0, 53, 100
2, 699648, Note_off_c, 0, 69, 64
2, 699648, Note_off_c, 0, 67, 64
2, 699648, Note_on_c, 0, 67, 100
2, 699648, Note_off_c, 0, 58, 64
2, 699648, Note_on_c, 0, 61, 100
2, 699904, Note_on_c, 0, 69, 100
2, 699904, Note_off_c, 0, 65, 64
2, 699904, Note_off_c, 0, 61, 64
2, 699904, Note_on_c, 0, 58, 100
2, 700160, Note_off_c, 0, 69, 64
2, 700160, Note_on_c, 0, 65, 100
2, 700160, Note_off_c, 0, 67, 64
2, 700160, Note_on_c, 0, 61, 100
2, 700160, Note_on_c, 0, 62, 100
2, 700160, Note_off_c, 0, 57, 64
2, 700160, Note_off_c, 0, 53, 64
2, 700160, Note_off_c, 0, 50, 64
2, 700160, Note_on_c, 0, 50, 100
2, 700160, Note_on_c, 0, 69, 100
2, 700160, Note_off_c, 0, 69, 64
2, 700416, Note_on_c, 0, 69, 100
2, 700416, Note_off_c, 0, 65, 64
2, 700416, Note_on_c, 0, 65, 100
2, 700416, Note_off_c, 0, 58, 64
2, 700416, Note_on_c, 0, 58, 100
2, 700672, Note_off_c, 0, 69, 64
2, 700672, Note_off_c, 0, 62, 64
2, 700672, Note_on_c, 0, 62, 100
2, 700672, Note_off_c, 0, 58, 64
2, 700672, Note_on_c, 0, 57, 100
2, 700672, Note_off_c, 0, 57, 64
2, 700672, Note_off_c, 0, 49, 64
2, 700672, Note_off_c, 0, 46, 64
2, 700672, Note_on_c, 0, 53, 100
2, 700672, Note_off_c, 0, 65, 64
2, 700672, Note_on_c, 0, 69, 100
2, 700672, Note_off_c, 0, 62, 64
2, 700672, Note_off_c, 0, 61, 64
2, 700672, Note_on_c, 0, 58, 100
2, 700672, Note_on_c, 0, 57, 100
2, 700928, Note_off_c, 0, 62, 64
2, 700928, Note_on_c, 0, 62, 100
2, 701184, Note_off_c, 0, 65, 64
2, 701184, Note_off_c, 0, 62, 64
2, 701184, Note_off_c, 0, 58, 64
2, 701184, Note_off_c, 0, 57, 64
2, 701184, Note_off_c, 0, 53, 64
2, 701184, Note_on_c, 0, 53, 100
2, 701184, Note_off_c, 0, 50, 64
2, 701184, Note_on_c, 0, 46, 100
2, 701184, Note_on_c, 0, 65, 100
2, 701184, Note_on_c, 0, 58, 100
2, 701440, Note_on_c, 0, 81, 100
2, 701440, Note_on_c, 0, 82, 100
2, 701440, Note_off_c, 0, 65, 64
2, 701440, Note_off_c, 0, 64, 64
2, 701440, Note_on_c, 0, 62, 100
2, 701440, Note_off_c, 0, 57, 64
2, 701440, Note_on_c, 0, 57, 100
2, 701696, Note_off_c, 0, 69, 64
2, 701696, Note_off_c, 0, 62, 64
2, 701696, Note_off_c, 0, 61, 64
2, 701696, Note_off_c, 0, 57, 64
2, 701696, Note_on_c, 0, 50, 100
2, 701696, Note_off_c, 0, 65, 64
2, 701696, Note_on_c, 0, 65, 100
2, 701696, Note_on_c, 0, 61, 100
2, 701696, Note_on_c, 0, 62, 100
2, 701952, Note_off_c, 0, 50, 64
2, 701952, Note_off_c, 0, 52, 64
2, 701952, Note_on_c, 0, 50, 100
2, 701952, Note_on_c, 0, 49, 100
2, 701952, Note_on_c, 0, 57, 100
2, 701952, Note_on_c, 0, 52, 100
2, 702208, Note_off_c, 0, 82, 64
2, 702208, Note_off_c, 0, 81, 64
2, 702208, Note_on_c, 0, 67, 100
2, 702208, Note_on_c, 0, 64, 100
2, 702208, Note_off_c, 0, 62, 64
2, 702208, Note_on_c, 0, 62, 100
2, 702208, Note_off_c, 0, 57, 64
2, 702208, Note_off_c, 0, 50, 64
2, 702208, Note_off_c, 0, 52, 64
2, 702208, Note_off_c, 0, 46, 64
2, 702208, Note_off_c, 0, 45, 64
2, 702464, Note_off_c, 0, 62, 64
2, 702464, Note_off_c, 0, 60, 64
2, 702720, Note_on_c, 0, 81, 100
2, 702720, Note_off_c, 0, 79, 64
2, 702720, Note_off_c, 0, 67, 64
2, 702720, Note_off_c, 0, 65, 64
2, 702720, Note_off_c, 0, 60, 64
2, 702720, Note_on_c, 0, 60, 100
2, 702720, Note_on_c, 0, 45, 100
2, 702720, Note_on_c, 0, 52, 100
2, 702720, Note_off_c, 0, 36, 64
2, 702720, Note_off_c, 0, 38, 64
2, 702976, Note_on_c, 0, 79, 100
2, 702976, Note_off_c, 0, 81, 64
2, 703232, Note_off_c, 0, 81, 64
2, 703232, Note_off_c, 0, 82, 64
2, 703232, Note_on_c, 0, 62, 100
2, 703232, Note_off_c, 0, 62, 64
2, 703232, Note_off_c, 0, 58, 64
2, 703232, Note_off_c, 0, 53, 64
2, 703232, Note_off_c, 0, 60, 64
2, 703232, Note_on_c, 0, 60, 100
2, 703232, Note_off_c, 0, 52, 64
2, 703232, Note_on_c, 0, 53, 100
2, 703232, Note_on_c, 0, 36, 100
2, 703232, Note_on_c, 0, 38, 100
2, 703232, Note_on_c, 0, 82, 100
2, 703232, Note_on_c, 0, 81, 100
2, 703232, Note_on_c, 0, 62, 100
2, 703744, Note_off_c, 0, 81, 64
2, 703744, Note_off_c, 0, 82, 64
2, 703744, Note_on_c, 0, 67, 100
2, 703744, Note_off_c, 0, 67, 64
2, 703744, Note_off_c, 0, 62, 64
2, 703744, Note_off_c, 0, 58, 64
2, 703744, Note_on_c, 0, 58, 100
2, 703744, Note_on_c, 0, 55, 100
2, 703744, Note_off_c, 0, 55, 64
2, 703744, Note_on_c, 0, 55, 100
2, 703744, Note_off_c, 0, 45, 64
2, 703744, Note_off_c, 0, 86, 64
2, 703744, Note_off_c, 0, 84, 64
2, 703744, Note_on_c, 0, 67, 100
2, 703744, Note_on_c, 0, 69, 100
2, 704000, Note_on_c, 0, 86, 100
2, 704000, Note_on_c, 0, 81, 100
2, 704256, Note_off_c, 0, 69, 64
2, 704256, Note_off_c, 0, 67, 64
2, 704256, Note_off_c, 0, 60, 64
2, 704256, Note_off_c, 0, 58, 64
2, 704256, Note_on_c, 0, 82, 100
2, 704256, Note_off_c, 0, 81, 64
2, 704256, Note_off_c, 0, 72, 64
2, 704256, Note_on_c, 0, 74, 100
2, 704256, Note_on_c, 0, 72, 100
2, 704256, Note_on_c, 0, 69, 100
2, 704512, Note_off_c, 0, 79, 64
2, 704512, Note_off_c, 0, 77, 64
2, 704768, Note_off_c, 0, 69, 64
2, 704768, Note_on_c, 0, 67, 100
2, 704768, Note_on_c, 0, 79, 100
2, 704768, Note_on_c, 0, 77, 100
2, 704768, Note_off_c, 0, 76, 64
2, 704768, Note_on_c, 0, 60, 100
2, 704768, Note_on_c, 0, 62, 100
2, 704768, Note_on_c, 0, 57, 100
2, 704768, Note_on_c, 0, 58, 100
2, 705024, Note_off_c, 0, 79, 64
2, 705024, Note_on_c, 0, 79, 100
2, 705280, Note_on_c, 0, 81, 100
2, 705280, Note_off_c, 0, 82, 64
2, 705280, Note_off_c, 0, 81, 64
2, 705280, Note_off_c, 0, 79, 64
2, 705280, Note_on_c, 0, 79, 100
2, 705280, Note_on_c, 0, 81, 100
2, 705280, Note_off_c, 0, 58, 64
2, 705280, Note_off_c, 0, 62, 64
2, 705280, Note_on_c, 0, 62, 100
2, 705280, Note_off_c, 0, 60, 64
2, 705280, Note_off_c, 0, 81, 64
2, 705280, Note_off_c, 0, 72, 64
2, 705280, Note_on_c, 0, 72, 100
2, 705536, Note_off_c, 0, 72, 64
2, 705536, Note_off_c, 0, 77, 64
2, 705536, Note_on_c, 0, 65, 100
2, 705536, Note_off_c, 0, 64, 64
2, 705536, Note_off_c, 0, 67, 64
2, 705536, Note_off_c, 0, 60, 64
2, 705536, Note_on_c, 0, 60, 100
2, 705536, Note_off_c, 0, 48, 64
2, 705536, Note_on_c, 0, 76, 100
2, 705536, Note_on_c, 0, 77, 100
2, 705536, Note_off_c, 0, 79, 64
2, 705536, Note_on_c, 0, 81, 100
2, 705536, Note_off_c, 0, 69, 64
2, 705536, Note_on_c, 0, 69, 100
2, 705536, Note_on_c, 0, 67, 100
2, 705664, Note_off_c, 0, 77, 64
2, 705664, Note_off_c, 0, 81, 64
2, 705792, Note_off_c, 0, 76, 64
2, 705792, Note_on_c, 0, 79, 100
2, 705792, Note_off_c, 0, 69, 64
2, 705792, Note_off_c, 0, 67, 64
2, 705792, Note_off_c, 0, 64, 64
2, 705792, Note_on_c, 0, 64, 100
2, 705792, Note_off_c, 0, 48, 64
2, 705792, Note_on_c, 0, 48, 100
2, 705792, Note_off_c, 0, 60, 64
2, 705792, Note_on_c, 0, 60, 100
2, 705792, Note_on_c, 0, 77, 100
2, 705792, Note_off_c, 0, 77, 64
2, 705792, Note_on_c, 0, 77, 100
2, 705792, Note_off_c, 0, 72, 64
2, 705792, Note_on_c, 0, 69, 100
2, 705792, Note_on_c, 0, 72, 100
2, 705792, Note_off_c, 0, 60, 64
2, 705792, Note_on_c, 0, 60, 100
2, 706048, Note_off_c, 0, 69, 64
2, 706048, Note_on_c, 0, 69, 100
2, 706048, Note_off_c, 0, 65, 64
2, 706048, Note_on_c, 0, 65, 100
2, 706048, Note_off_c, 0, 60, 64
2, 706048, Note_on_c, 0, 60, 100
2, 706048, Note_on_c, 0, 76, 100
2, 706048, Note_off_c, 0, 70, 64
2, 706048, Note_on_c, 0, 70, 100
2, 706048, Note_off_c, 0, 64, 64
2, 706048, Note_off_c, 0, 62, 64
2, 706048, Note_on_c, 0, 58, 100
2, 706176, Note_off_c, 0, 77, 64
2, 706176, Note_on_c, 0, 77, 100
2, 706176, Note_off_c, 0, 79, 64
2, 706176, Note_off_c, 0, 62, 64
2, 706176, Note_on_c, 0, 62, 100
2, 706176, Note_off_c, 0, 72, 64
2, 706176, Note_off_c, 0, 70, 64
2, 706176, Note_off_c, 0, 69, 64
2, 706176, Note_off_c, 0, 67, 64
2, 706176, Note_on_c, 0, 67, 100
2, 706304, Note_on_c, 0, 79, 100
2, 706304, Note_off_c, 0, 77, 64
2, 706304, Note_on_c, 0, 72, 100
2, 706304, Note_off_c, 0, 72, 64
2, 706304, Note_off_c, 0, 62, 64
2, 706304, Note_off_c, 0, 67, 64
2, 706304, Note_on_c, 0, 67, 100
2, 706304, Note_off_c, 0, 60, 64
2, 706304, Note_on_c, 0, 64, 100
2, 706304, Note_off_c, 0, 65, 64
2, 706304, Note_on_c, 0, 72, 100
2, 706304, Note_on_c, 0, 69, 100
2, 706304, Note_on_c, 0, 70, 100
2, 706304, Note_off_c, 0, 72, 64
2, 706432, Note_on_c, 0, 72, 100
2, 706432, Note_off_c, 0, 76, 64
2, 706432, Note_on_c, 0, 76, 100
2, 706432, Note_off_c, 0, 77, 64
2, 706432, Note_on_c, 0, 77, 100
2, 706560, Note_off_c, 0, 69, 64
2, 706560, Note_off_c, 0, 72, 64
2, 706560, Note_off_c, 0, 57, 64
2, 706560, Note_off_c, 0, 48, 64
2, 706560, Note_off_c, 0, 77, 64
2, 706560, Note_on_c, 0, 77, 100
2, 706560, Note_off_c, 0, 77, 64
2, 706560, Note_on_c, 0, 69, 100
2, 706560, Note_on_c, 0, 65, 100
2, 706560, Note_off_c, 0, 76, 64
2, 706560, Note_off_c, 0, 74, 64
2, 706560, Note_on_c, 0, 72, 100
2, 706560, Note_off_c, 0, 67, 64
2, 706560, Note_on_c, 0, 62, 100
2, 706560, Note_on_c, 0, 60, 100
2, 706688, Note_off_c, 0, 74, 64
2, 706688, Note_on_c, 0, 74, 100
2, 706688, Note_on_c, 0, 77, 100
2, 706816, Note_off_c, 0, 65, 64
2, 706816, Note_off_c, 0, 60, 64
2, 706816, Note_off_c, 0, 62, 64
2, 706816, Note_on_c, 0, 57, 100
2, 706816, Note_on_c, 0, 62, 100
2, 706816, Note_off_c, 0, 79, 64
2, 706816, Note_on_c, 0, 79, 100
2, 706816, Note_off_c, 0, 69, 64
2, 706816, Note_off_c, 0, 74, 64
2, 706816, Note_off_c, 0, 71, 64
2, 706816, Note_on_c, 0, 69, 100
2, 706816, Note_off_c, 0, 77, 64
2, 706816, Note_off_c, 0, 64, 64
2, 706944, Note_on_c, 0, 71, 100
2, 706944, Note_on_c, 0, 74, 100
2, 706944, Note_off_c, 0, 69, 64
2, 706944, Note_on_c, 0, 67, 100
2, 707072, Note_off_c, 0, 45, 64
2, 707072, Note_on_c, 0, 45, 100
2, 707072, Note_off_c, 0, 79, 64
2, 707072, Note_off_c, 0, 77, 64
2, 707072, Note_on_c, 0, 77, 100
2, 707072, Note_on_c, 0, 76, 100
2, 707072, Note_off_c, 0, 62, 64
2, 707072, Note_on_c, 0, 62, 100
2, 707072, Note_off_c, 0, 67, 64
2, 707072, Note_on_c, 0, 69, 100
2, 707072, Note_off_c, 0, 62, 64
2, 707072, Note_off_c, 0, 60, 64
2, 707072, Note_on_c, 0, 60, 100
2, 707328, Note_off_c, 0, 76, 64
2, 707328, Note_on_c, 0, 76, 100
2, 707328, Note_off_c, 0, 71, 64
2, 707328, Note_off_c, 0, 69, 64
2, 707328, Note_off_c, 0, 60, 64
2, 707328, Note_off_c, 0, 45, 64
2, 707328, Note_on_c, 0, 45, 100
2, 707328, Note_on_c, 0, 69, 100
2, 707328, Note_off_c, 0, 67, 64
2, 707328, Note_off_c, 0, 61, 64
2, 707328, Note_on_c, 0, 61, 100
2, 707328, Note_off_c, 0, 77, 64
2, 707328, Note_off_c, 0, 76, 64
2, 707328, Note_off_c, 0, 69, 64
2, 707328, Note_on_c, 0, 67, 100
2, 707328, Note_off_c, 0, 57, 64
2, 707456, Note_on_c, 0, 69, 100
2, 707456, Note_off_c, 0, 67, 64
2, 707456, Note_on_c, 0, 67, 100
2, 707584, Note_on_c, 0, 76, 100
2, 707584, Note_off_c, 0, 76, 64
2, 707584, Note_off_c, 0, 69, 64
2, 707584, Note_off_c, 0, 67, 64
2, 707584, Note_on_c, 0, 65, 100
2, 707584, Note_off_c, 0, 65, 64
2, 707584, Note_off_c, 0, 61, 64
2, 707584, Note_on_c, 0, 61, 100
2, 707584, Note_off_c, 0, 45, 64
2, 707584, Note_off_c, 0, 47, 64
2, 707584, Note_on_c, 0, 71, 100
2, 707584, Note_on_c, 0, 76, 100
2, 707584, Note_on_c, 0, 67, 100
2, 707584, Note_on_c, 0, 64, 100
2, 707584, Note_on_c, 0, 65, 100
2, 707712, Note_off_c, 0, 74, 64
2, 707712, Note_on_c, 0, 74, 100
2, 707840, Note_off_c, 0, 45, 64
2, 707840, Note_on_c, 0, 45, 100
2, 707840, Note_off_c, 0, 73, 64
2, 707840, Note_on_c, 0, 73, 100
2, 707840, Note_off_c, 0, 73, 64
2, 707840, Note_off_c, 0, 67, 64
2, 707840, Note_off_c, 0, 64, 64
2, 707840, Note_on_c, 0, 64, 100
2, 707840, Note_on_c, 0, 67, 100
2, 707840, Note_off_c, 0, 67, 64
2, 707968, Note_on_c, 0, 73, 100
2, 707968, Note_off_c, 0, 74, 64
2, 707968, Note_off_c, 0, 65, 64
2, 707968, Note_off_c, 0, 64, 64
2, 708096, Note_off_c, 0, 71, 64
2, 708096, Note_off_c, 0, 69, 64
2, 708096, Note_on_c, 0, 64, 100
2, 708096, Note_off_c, 0, 64, 64
2, 708096, Note_on_c, 0, 60, 100
2, 708096, Note_off_c, 0, 60, 64
2, 708096, Note_off_c, 0, 72, 64
2, 708096, Note_on_c, 0, 69, 100
2, 708096, Note_on_c, 0, 64, 100
2, 708096, Note_off_c, 0, 65, 64
2, 708096, Note_on_c, 0, 65, 100
2, 708096, Note_on_c, 0, 60, 100
2, 708352, Note_off_c, 0, 65, 64
2, 708352, Note_off_c, 0, 63, 64
2, 708352, Note_on_c, 0, 63, 100
2, 708480, Note_off_c, 0, 63, 64
2, 708480, Note_on_c, 0, 65, 100
2, 708608, Note_off_c, 0, 65, 64
2, 708608, Note_off_c, 0, 39, 64
2, 708608, Note_on_c, 0, 63, 100
2, 708608, Note_off_c, 0, 67, 64
2, 708608, Note_on_c, 0, 67, 100
2, 708608, Note_off_c, 0, 60, 64
2, 708864, Note_off_c, 0, 69, 64
2, 708864, Note_off_c, 0, 67, 64
2, 708864, Note_on_c, 0, 69, 100
2, 708864, Note_on_c, 0, 60, 100
2, 708864, Note_on_c, 0, 57, 100
2, 708864, Note_off_c, 0, 45, 64
2, 708864, Note_on_c, 0, 45, 100
2, 708864, Note_off_c, 0, 65, 64
2, 708864, Note_on_c, 0, 65, 100
2, 708992, Note_off_c, 0, 57, 64
2, 708992, Note_off_c, 0, 60, 64
2, 709120, Note_off_c, 0, 58, 64
2, 709120, Note_off_c, 0, 60, 64
2, 709120, Note_on_c, 0, 72, 100
2, 709120, Note_on_c, 0, 60, 100
2, 709120, Note_off_c, 0, 65, 64
2, 709120, Note_on_c, 0, 65, 100
2, 709120, Note_on_c, 0, 62, 100
2, 709120, Note_off_c, 0, 69, 64
2, 709120, Note_off_c, 0, 63, 64
2, 709120, Note_off_c, 0, 62, 64
2, 709120, Note_on_c, 0, 62, 100
2, 709120, Note_on_c, 0, 67, 100
2, 709248, Note_off_c, 0, 67, 64
2, 709376, Note_off_c, 0, 45, 64
2, 709376, Note_off_c, 0, 33, 64
2, 709376, Note_on_c, 0, 69, 100
2, 709376, Note_off_c, 0, 65, 64
2, 709376, Note_on_c, 0, 65, 100
2, 709376, Note_on_c, 0, 63, 100
2, 709376, Note_off_c, 0, 62, 64
2, 709504, Note_off_c, 0, 69, 64
2, 709504, Note_on_c, 0, 67, 100
2, 709504, Note_off_c, 0, 72, 64
2, 709632, Note_off_c, 0, 70, 64
2, 709632, Note_off_c, 0, 67, 64
2, 709632, Note_off_c, 0, 60, 64
2, 709632, Note_off_c, 0, 62, 64
2, 709632, Note_on_c, 0, 57, 100
2, 709632, Note_off_c, 0, 65, 64
2, 709632, Note_on_c, 0, 62, 100
2, 709632, Note_off_c, 0, 63, 64
2, 709632, Note_on_c, 0, 69, 100
2, 709760, Note_on_c, 0, 70, 100
2, 709760, Note_off_c, 0, 72, 64
2, 709760, Note_on_c, 0, 72, 100
2, 709888, Note_off_c, 0, 62, 64
2, 709888, Note_on_c, 0, 63, 100
2, 709888, Note_off_c, 0, 57, 64
2, 709888, Note_on_c, 0, 58, 100
2, 709888, Note_on_c, 0, 45, 100
2, 709888, Note_on_c, 0, 46, 100
2, 709888, Note_off_c, 0, 72, 64
2, 709888, Note_on_c, 0, 65, 100
2, 709888, Note_off_c, 0, 69, 64
2, 709888, Note_on_c, 0, 69, 100
2, 709888, Note_on_c, 0, 72, 100
2, 709888, Note_off_c, 0, 60, 64
2, 709888, Note_on_c, 0, 62, 100
2, 709888, Note_on_c, 0, 60, 100
2, 710016, Note_off_c, 0, 77, 64
2, 710016, Note_on_c, 0, 77, 100
2, 710144, Note_off_c, 0, 77, 64
2, 710144, Note_off_c, 0, 75, 64
2, 710144, Note_on_c, 0, 77, 100
2, 710272, Note_off_c, 0, 77, 64
2, 710272, Note_off_c, 0, 76, 64
2, 710400, Note_off_c, 0, 69, 64
2, 710400, Note_on_c, 0, 48, 100
2, 710400, Note_off_c, 0, 45, 64
2, 710400, Note_off_c, 0, 46, 64
2, 710400, Note_off_c, 0, 77, 64
2, 710400, Note_on_c, 0, 69, 100
2, 710400, Note_on_c, 0, 77, 100
2, 710400, Note_on_c, 0, 79, 100
2, 710400, Note_on_c, 0, 76, 100
2, 710400, Note_off_c, 0, 65, 64
2, 710400, Note_off_c, 0, 69, 64
2, 710528, Note_off_c, 0, 77, 64
2, 710528, Note_off_c, 0, 79, 64
2, 710656, Note_off_c, 0, 77, 64
2, 710656, Note_off_c, 0, 76, 64
2, 710656, Note_on_c, 0, 77, 100
2, 710784, Note_on_c, 0, 76, 100
2, 710784, Note_off_c, 0, 77, 64
2, 710784, Note_on_c, 0, 77, 100
2, 710912, Note_off_c, 0, 72, 64
2, 710912, Note_on_c, 0, 67, 100
2, 710912, Note_off_c, 0, 69, 64
2, 710912, Note_off_c, 0, 48, 64
2, 710912, Note_on_c, 0, 46, 100
2, 710912, Note_off_c, 0, 45, 64
2, 710912, Note_on_c, 0, 48, 100
2, 710912, Note_off_c, 0, 77, 64
2, 710912, Note_off_c, 0, 78, 64
2, 710912, Note_on_c, 0, 78, 100
2, 710912, Note_on_c, 0, 45, 100
2, 710912, Note_on_c, 0, 57, 100
2, 710912, Note_on_c, 0, 69, 100
2, 710912, Note_off_c, 0, 62, 64
2, 710912, Note_off_c, 0, 60, 64
2, 711424, Note_off_c, 0, 45, 64
2, 711424, Note_off_c, 0, 81, 64
2, 711424, Note_on_c, 0, 81, 100
2, 711424, Note_on_c, 0, 84, 100
2, 711424, Note_on_c, 0, 62, 100
2, 711424, Note_on_c, 0, 60, 100
2, 711424, Note_off_c, 0, 57, 64
2, 711424, Note_on_c, 0, 57, 100
2, 711680, Note_off_c, 0, 81, 64
2, 711936, Note_on_c, 0, 45, 100
2, 711936, Note_off_c, 0, 48, 64
2, 711936, Note_on_c, 0, 77, 100
2, 711936, Note_on_c, 0, 81, 100
2, 711936, Note_off_c, 0, 69, 64
2, 711936, Note_on_c, 0, 72, 100
2, 711936, Note_off_c, 0, 62, 64
2, 711936, Note_off_c, 0, 60, 64
2, 711936, Note_on_c, 0, 62, 100
2, 711936, Note_off_c, 0, 62, 64
2, 711936, Note_on_c, 0, 65, 100
2, 711936, Note_on_c, 0, 69, 100
2, 711936, Note_off_c, 0, 70, 64
2, 711936, Note_off_c, 0, 57, 64
2, 712192, Note_on_c, 0, 75, 100
2, 712192, Note_off_c, 0, 72, 64
2, 712192, Note_on_c, 0, 72, 100
2, 712192, Note_on_c, 0, 74, 100
2, 712192, Note_off_c, 0, 65, 64
2, 712192, Note_on_c, 0, 65, 100
2, 712192, Note_on_c, 0, 60, 100
2, 712192, Note_on_c, 0, 62, 100
2, 712192, Note_on_c, 0, 57, 100
2, 712192, Note_off_c, 0, 57, 64
2, 712192, Note_on_c, 0, 50, 100
2, 712192, Note_off_c, 0, 78, 64
2, 712192, Note_on_c, 0, 78, 100
2, 712192, Note_off_c, 0, 72, 64
2, 712192, Note_off_c, 0, 69, 64
2, 712192, Note_on_c, 0, 69, 100
2, 712192, Note_on_c, 0, 57, 100
2, 712320, Note_off_c, 0, 74, 64
2, 712320, Note_on_c, 0, 72, 100
2, 712448, Note_off_c, 0, 69, 64
2, 712448, Note_off_c, 0, 66, 64
2, 712448, Note_off_c, 0, 57, 64
2, 712448, Note_off_c, 0, 62, 64
2, 712448, Note_on_c, 0, 74, 100
2, 712448, Note_off_c, 0, 72, 64
2, 712448, Note_on_c, 0, 66, 100
2, 712448, Note_off_c, 0, 65, 64
2, 712448, Note_off_c, 0, 63, 64
2, 712448, Note_on_c, 0, 57, 100
2, 712448, Note_off_c, 0, 50, 64
2, 712448, Note_off_c, 0, 60, 64
2, 712448, Note_off_c, 0, 57, 64
2, 712448, Note_on_c, 0, 57, 100
2, 712704, Note_off_c, 0, 66, 64
2, 712704, Note_off_c, 0, 58, 64
2, 712704, Note_off_c, 0, 57, 64
2, 712704, Note_on_c, 0, 63, 100
2, 712704, Note_on_c, 0, 72, 100
2, 712704, Note_off_c, 0, 69, 64
2, 712704, Note_on_c, 0, 69, 100
2, 712960, Note_off_c, 0, 69, 64
2, 712960, Note_off_c, 0, 67, 64
2, 713088, Note_off_c, 0, 74, 64
2, 713088, Note_on_c, 0, 74, 100
2, 713088, Note_off_c, 0, 65, 64
2, 713088, Note_on_c, 0, 65, 100
2, 713088, Note_off_c, 0, 62, 64
2, 713088, Note_on_c, 0, 62, 100
2, 713216, Note_off_c, 0, 74, 64
2, 713216, Note_on_c, 0, 74, 100
2, 713216, Note_off_c, 0, 62, 64
2, 713216, Note_on_c, 0, 62, 100
2, 713216, Note_on_c, 0, 70, 100
2, 713216, Note_off_c, 0, 69, 64
2, 713216, Note_on_c, 0, 69, 100
2, 713216, Note_off_c, 0, 74, 64
2, 713216, Note_off_c, 0, 65, 64
2, 713216, Note_on_c, 0, 65, 100
2, 713472, Note_off_c, 0, 67, 64
2, 713472, Note_off_c, 0, 62, 64
2, 713472, Note_off_c, 0, 65, 64
2, 713472, Note_off_c, 0, 63, 64
2, 713472, Note_on_c, 0, 63, 100
2, 713472, Note_off_c, 0, 60, 64
2, 713472, Note_on_c, 0, 60, 100
2, 713472, Note_on_c, 0, 67, 100
2, 713472, Note_off_c, 0, 69, 64
2, 713728, Note_off_c, 0, 70, 64
2, 713728, Note_off_c, 0, 69, 64
2, 713728, Note_off_c, 0, 67, 64
2, 713728, Note_off_c, 0, 65, 64
2, 713728, Note_off_c, 0, 60, 64
2, 713728, Note_on_c, 0, 60, 100
2, 713728, Note_off_c, 0, 53, 64
2, 713728, Note_off_c, 0, 46, 64
2, 713728, Note_off_c, 0, 75, 64
2, 713728, Note_on_c, 0, 75, 100
2, 713728, Note_off_c, 0, 77, 64
2, 713728, Note_on_c, 0, 70, 100
2, 713728, Note_on_c, 0, 69, 100
2, 713728, Note_on_c, 0, 65, 100
2, 713728, Note_on_c, 0, 58, 100
2, 713984, Note_on_c, 0, 53, 100
2, 713984, Note_off_c, 0, 48, 64
2, 713984, Note_on_c, 0, 46, 100
2, 713984, Note_off_c, 0, 74, 64
2, 713984, Note_on_c, 0, 74, 100
2, 713984, Note_off_c, 0, 58, 64
2, 713984, Note_on_c, 0, 47, 100
2, 713984, Note_on_c, 0, 48, 100
2, 713984, Note_off_c, 0, 69, 64
2, 713984, Note_off_c, 0, 65, 64
2, 713984, Note_on_c, 0, 65, 100
2, 713984, Note_off_c, 0, 60, 64
2, 713984, Note_off_c, 0, 62, 64
2, 713984, Note_on_c, 0, 62, 100
2, 714112, Note_off_c, 0, 74, 64
2, 714240, Note_off_c, 0, 74, 64
2, 714240, Note_off_c, 0, 65, 64
2, 714240, Note_on_c, 0, 65, 100
2, 714240, Note_off_c, 0, 65, 64
2, 714240, Note_off_c, 0, 63, 64
2, 714240, Note_off_c, 0, 59, 64
2, 714240, Note_off_c, 0, 48, 64
2, 714240, Note_off_c, 0, 47, 64
2, 714240, Note_on_c, 0, 74, 100
2, 714240, Note_off_c, 0, 72, 64
2, 714240, Note_off_c, 0, 69, 64
2, 714240, Note_on_c, 0, 69, 100
2, 714240, Note_on_c, 0, 60, 100
2, 714496, Note_off_c, 0, 65, 64
2, 714496, Note_off_c, 0, 67, 64
2, 714496, Note_off_c, 0, 60, 64
2, 714496, Note_on_c, 0, 60, 100
2, 714496, Note_off_c, 0, 62, 64
2, 714496, Note_on_c, 0, 48, 100
2, 714496, Note_off_c, 0, 50, 64
2, 714496, Note_on_c, 0, 50, 100
2, 714496, Note_on_c, 0, 67, 100
2, 714496, Note_off_c, 0, 72, 64
2, 714496, Note_on_c, 0, 72, 100
2, 714496, Note_off_c, 0, 70, 64
2, 714496, Note_off_c, 0, 69, 64
2, 714496, Note_on_c, 0, 65, 100
2, 714496, Note_on_c, 0, 70, 100
2, 714496, Note_off_c, 0, 74, 64
2, 714624, Note_off_c, 0, 75, 64
2, 714624, Note_on_c, 0, 75, 100
2, 714752, Note_off_c, 0, 70, 64
2, 714752, Note_off_c, 0, 74, 64
2, 714752, Note_on_c, 0, 58, 100
2, 714752, Note_off_c, 0, 46, 64
2, 714752, Note_on_c, 0, 51, 100
2, 714752, Note_off_c, 0, 72, 64
2, 714752, Note_on_c, 0, 74, 100
2, 714752, Note_on_c, 0, 63, 100
2, 714752, Note_off_c, 0, 65, 64
2, 714752, Note_on_c, 0, 65, 100
2, 714752, Note_on_c, 0, 70, 100
2, 714880, Note_off_c, 0, 70, 64
2, 714880, Note_off_c, 0, 67, 64
2, 715008, Note_on_c, 0, 62, 100
2, 715008, Note_off_c, 0, 60, 64
2, 715008, Note_off_c, 0, 51, 64
2, 715008, Note_off_c, 0, 50, 64
2, 715008, Note_on_c, 0, 70, 100
2, 715008, Note_off_c, 0, 62, 64
2, 715008, Note_on_c, 0, 60, 100
2, 715008, Note_off_c, 0, 65, 64
2, 715008, Note_on_c, 0, 67, 100
2, 715008, Note_off_c, 0, 69, 64
2, 715008, Note_on_c, 0, 69, 100
2, 715008, Note_on_c, 0, 50, 100
2, 715008, Note_off_c, 0, 60, 64
2, 715008, Note_on_c, 0, 62, 100
2, 715136, Note_on_c, 0, 65, 100
2, 715136, Note_off_c, 0, 70, 64
2, 715264, Note_on_c, 0, 70, 100
2, 715264, Note_off_c, 0, 75, 64
2, 715264, Note_off_c, 0, 67, 64
2, 715264, Note_on_c, 0, 60, 100
2, 715264, Note_on_c, 0, 66, 100
2, 715264, Note_off_c, 0, 62, 64
2, 715264, Note_off_c, 0, 45, 64
2, 715264, Note_off_c, 0, 60, 64
2, 715264, Note_on_c, 0, 60, 100
2, 715264, Note_off_c, 0, 72, 64
2, 715264, Note_on_c, 0, 77, 100
2, 715264, Note_off_c, 0, 74, 64
2, 715264, Note_on_c, 0, 72, 100
2, 715264, Note_off_c, 0, 65, 64
2, 715264, Note_on_c, 0, 65, 100
2, 715264, Note_on_c, 0, 74, 100
2, 715264, Note_off_c, 0, 60, 64
2, 715264, Note_on_c, 0, 62, 100
2, 715264, Note_off_c, 0, 69, 64
2, 715392, Note_off_c, 0, 58, 64
2, 715392, Note_on_c, 0, 60, 100
2, 715520, Note_off_c, 0, 66, 64
2, 715520, Note_off_c, 0, 84, 64
2, 715520, Note_on_c, 0, 69, 100
2, 715520, Note_off_c, 0, 72, 64
2, 715520, Note_off_c, 0, 62, 64
2, 715520, Note_off_c, 0, 67, 64
2, 715520, Note_off_c, 0, 65, 64
2, 715520, Note_on_c, 0, 65, 100
2, 715520, Note_off_c, 0, 60, 64
2, 715520, Note_on_c, 0, 58, 100
2, 715520, Note_off_c, 0, 74, 64
2, 715520, Note_on_c, 0, 67, 100
2, 715520, Note_on_c, 0, 72, 100
2, 715520, Note_on_c, 0, 74, 100
2, 715776, Note_off_c, 0, 74, 64
2, 715776, Note_off_c, 0, 65, 64
2, 715776, Note_on_c, 0, 65, 100
2, 715776, Note_off_c, 0, 58, 64
2, 715776, Note_on_c, 0, 58, 100
2, 715776, Note_off_c, 0, 75, 64
2, 715776, Note_on_c, 0, 75, 100
2, 715776, Note_off_c, 0, 72, 64
2, 715776, Note_off_c, 0, 69, 64
2, 715776, Note_on_c, 0, 72, 100
2, 715776, Note_off_c, 0, 67, 64
2, 715904, Note_off_c, 0, 70, 64
2, 715904, Note_on_c, 0, 69, 100
2, 715904, Note_off_c, 0, 58, 64
2, 715904, Note_on_c, 0, 58, 100
2, 715904, Note_off_c, 0, 62, 64
2, 715904, Note_on_c, 0, 62, 100
2, 715904, Note_on_c, 0, 67, 100
2, 715904, Note_off_c, 0, 63, 64
2, 715904, Note_on_c, 0, 63, 100
2, 716032, Note_off_c, 0, 58, 64
2, 716032, Note_off_c, 0, 70, 64
2, 716032, Note_off_c, 0, 62, 64
2, 716032, Note_on_c, 0, 60, 100
2, 716032, Note_off_c, 0, 65, 64
2, 716032, Note_on_c, 0, 65, 100
2, 716032, Note_off_c, 0, 67, 64
2, 716032, Note_off_c, 0, 69, 64
2, 716032, Note_on_c, 0, 67, 100
2, 716032, Note_off_c, 0, 77, 64
2, 716032, Note_on_c, 0, 70, 100
2, 716032, Note_off_c, 0, 63, 64
2, 716032, Note_on_c, 0, 62, 100
2, 716288, Note_off_c, 0, 70, 64
2, 716288, Note_on_c, 0, 63, 100
2, 716288, Note_off_c, 0, 67, 64
2, 716288, Note_off_c, 0, 62, 64
2, 716288, Note_on_c, 0, 58, 100
2, 716416, Note_on_c, 0, 70, 100
2, 716416, Note_off_c, 0, 72, 64
2, 716416, Note_off_c, 0, 65, 64
2, 716416, Note_on_c, 0, 67, 100
2, 716416, Note_on_c, 0, 62, 100
2, 716416, Note_off_c, 0, 58, 64
2, 716544, Note_on_c, 0, 58, 100
2, 716544, Note_off_c, 0, 62, 64
2, 716544, Note_on_c, 0, 65, 100
2, 716544, Note_off_c, 0, 69, 64
2, 716544, Note_off_c, 0, 67, 64
2, 716544, Note_on_c, 0, 62, 100
2, 716544, Note_on_c, 0, 72, 100
2, 716544, Note_off_c, 0, 70, 64
2, 716544, Note_on_c, 0, 69, 100
2, 716544, Note_off_c, 0, 62, 64
2, 716672, Note_off_c, 0, 67, 64
2, 716672, Note_on_c, 0, 79, 100
2, 716672, Note_off_c, 0, 70, 64
2, 716672, Note_on_c, 0, 70, 100
2, 716672, Note_on_c, 0, 67, 100
2, 716800, Note_off_c, 0, 79, 64
2, 716800, Note_off_c, 0, 69, 64
2, 716800, Note_off_c, 0, 67, 64
2, 716800, Note_off_c, 0, 58, 64
2, 716800, Note_off_c, 0, 65, 64
2, 716800, Note_on_c, 0, 65, 100
2, 716800, Note_on_c, 0, 69, 100
2, 716800, Note_on_c, 0, 62, 100
2, 716800, Note_off_c, 0, 53, 64
2, 716800, Note_off_c, 0, 75, 64
2, 716800, Note_on_c, 0, 77, 100
2, 716928, Note_off_c, 0, 77, 64
2, 716928, Note_off_c, 0, 76, 64
2, 716928, Note_off_c, 0, 79, 64
2, 716928, Note_on_c, 0, 79, 100
2, 717056, Note_on_c, 0, 41, 100
2, 717056, Note_off_c, 0, 55, 64
2, 717056, Note_off_c, 0, 43, 64
2, 717056, Note_on_c, 0, 75, 100
2, 717056, Note_off_c, 0, 69, 64
2, 717056, Note_on_c, 0, 77, 100
2, 717056, Note_off_c, 0, 79, 64
2, 717056, Note_on_c, 0, 74, 100
2, 717056, Note_on_c, 0, 71, 100
2, 717056, Note_off_c, 0, 70, 64
2, 717056, Note_off_c, 0, 65, 64
2, 717184, Note_off_c, 0, 74, 64
2, 717184, Note_off_c, 0, 72, 64
2, 717184, Note_on_c, 0, 76, 100
2, 717312, Note_on_c, 0, 70, 100
2, 717312, Note_off_c, 0, 69, 64
2, 717312, Note_off_c, 0, 79, 64
2, 717312, Note_on_c, 0, 79, 100
2, 717312, Note_off_c, 0, 75, 64
2, 717312, Note_on_c, 0, 75, 100
2, 717312, Note_off_c, 0, 72, 64
2, 717312, Note_on_c, 0, 72, 100
2, 717312, Note_on_c, 0, 69, 100
2, 717312, Note_off_c, 0, 60, 64
2, 717312, Note_off_c, 0, 63, 64
2, 717312, Note_on_c, 0, 63, 100
2, 717440, Note_off_c, 0, 72, 64
2, 717440, Note_on_c, 0, 67, 100
2, 717440, Note_off_c, 0, 79, 64
2, 717440, Note_off_c, 0, 77, 64
2, 717440, Note_on_c, 0, 77, 100
2, 717440, Note_off_c, 0, 63, 64
2, 717440, Note_on_c, 0, 63, 100
2, 717568, Note_off_c, 0, 79, 64
2, 717568, Note_on_c, 0, 79, 100
2, 717568, Note_off_c, 0, 75, 64
2, 717568, Note_on_c, 0, 75, 100
2, 717568, Note_off_c, 0, 63, 64
2, 717568, Note_off_c, 0, 67, 64
2, 717568, Note_on_c, 0, 63, 100
2, 717696, Note_off_c, 0, 65, 64
2, 717696, Note_on_c, 0, 65, 100
2, 717824, Note_off_c, 0, 77, 64
2, 717824, Note_on_c, 0, 77, 100
2, 717824, Note_off_c, 0, 77, 64
2, 717824, Note_off_c, 0, 63, 64
2, 717824, Note_off_c, 0, 65, 64
2, 717824, Note_off_c, 0, 76, 64
2, 717824, Note_on_c, 0, 72, 100
2, 717824, Note_on_c, 0, 67, 100
2, 717824, Note_on_c, 0, 63, 100
2, 717824, Note_off_c, 0, 60, 64
2, 717824, Note_on_c, 0, 60, 100
2, 718080, Note_on_c, 0, 65, 100
2, 718080, Note_off_c, 0, 65, 64
2, 718080, Note_on_c, 0, 65, 100
2, 718080, Note_off_c, 0, 62, 64
2, 718080, Note_on_c, 0, 62, 100
2, 718080, Note_off_c, 0, 62, 64
2, 718208, Note_off_c, 0, 70, 64
2, 718208, Note_on_c, 0, 70, 100
2, 718208, Note_off_c, 0, 79, 64
2, 718208, Note_on_c, 0, 77, 100
2, 718208, Note_on_c, 0, 79, 100
2, 718208, Note_off_c, 0, 55, 64
2, 718208, Note_on_c, 0, 55, 100
2, 718336, Note_off_c, 0, 79, 64
2, 718336, Note_off_c, 0, 80, 64
2, 718336, Note_on_c, 0, 62, 100
2, 718336, Note_off_c, 0, 63, 64
2, 718336, Note_off_c, 0, 70, 64
2, 718336, Note_off_c, 0, 60, 64
2, 718336, Note_off_c, 0, 53, 64
2, 718336, Note_off_c, 0, 56, 64
2, 718336, Note_on_c, 0, 80, 100
2, 718336, Note_on_c, 0, 53, 100
2, 718336, Note_on_c, 0, 51, 100
2, 718336, Note_on_c, 0, 60, 100
2, 718336, Note_on_c, 0, 79, 100
2, 718336, Note_off_c, 0, 77, 64
2, 718464, Note_off_c, 0, 75, 64
2, 718592, Note_off_c, 0, 53, 64
2, 718592, Note_off_c, 0, 41, 64
2, 718592, Note_on_c, 0, 41, 100
2, 718592, Note_on_c, 0, 53, 100
2, 718592, Note_off_c, 0, 48, 64
2, 718592, Note_off_c, 0, 80, 64
2, 718592, Note_on_c, 0, 77, 100
2, 718592, Note_off_c, 0, 60, 64
2, 718592, Note_on_c, 0, 60, 100
2, 718592, Note_off_c, 0, 64, 64
2, 718592, Note_off_c, 0, 72, 64
2, 718592, Note_off_c, 0, 68, 64
2, 718592, Note_off_c, 0, 65, 64
2, 718592, Note_off_c, 0, 60, 64
2, 718720, Note_on_c, 0, 80, 100
2, 718720, Note_off_c, 0, 77, 64
2, 718720, Note_on_c, 0, 65, 100
2, 718720, Note_on_c, 0, 63, 100
2, 718720, Note_on_c, 0, 60, 100
2, 718720, Note_off_c, 0, 51, 64
2, 718848, Note_off_c, 0, 63, 64
2, 718848, Note_on_c, 0, 68, 100
2, 718848, Note_off_c, 0, 62, 64
2, 718848, Note_off_c, 0, 60, 64
2, 718848, Note_on_c, 0, 60, 100
2, 718848, Note_on_c, 0, 62, 100
2, 718976, Note_off_c, 0, 62, 64
2, 719104, Note_off_c, 0, 60, 64
2, 719104, Note_on_c, 0, 60, 100
2, 719104, Note_on_c, 0, 72, 100
2, 719104, Note_on_c, 0, 75, 100
2, 719104, Note_off_c, 0, 79, 64
2, 719104, Note_on_c, 0, 79, 100
2, 719104, Note_off_c, 0, 67, 64
2, 719104, Note_on_c, 0, 67, 100
2, 719104, Note_off_c, 0, 60, 64
2, 719232, Note_on_c, 0, 70, 100
2, 719232, Note_on_c, 0, 60, 100
2, 719232, Note_on_c, 0, 58, 100
2, 719360, Note_off_c, 0, 79, 64
2, 719360, Note_off_c, 0, 60, 64
2, 719360, Note_off_c, 0, 63, 64
2, 719360, Note_off_c, 0, 72, 64
2, 719360, Note_off_c, 0, 70, 64
2, 719360, Note_on_c, 0, 70, 100
2, 719360, Note_on_c, 0, 51, 100
2, 719360, Note_on_c, 0, 48, 100
2, 719360, Note_on_c, 0, 60, 100
2, 719360, Note_off_c, 0, 58, 64
2, 719360, Note_on_c, 0, 63, 100
2, 719360, Note_on_c, 0, 72, 100
2, 719360, Note_off_c, 0, 67, 64
2, 719488, Note_off_c, 0, 70, 64
2, 719616, Note_off_c, 0, 75, 64
2, 719616, Note_off_c, 0, 74, 64
2, 719616, Note_on_c, 0, 58, 100
2, 719616, Note_off_c, 0, 58, 64
2, 719616, Note_on_c, 0, 56, 100
2, 719616, Note_on_c, 0, 58, 100
2, 719616, Note_on_c, 0, 74, 100
2, 719616, Note_off_c, 0, 72, 64
2, 719616, Note_on_c, 0, 70, 100
2, 719616, Note_off_c, 0, 67, 64
2, 719616, Note_on_c, 0, 67, 100
2, 719616, Note_on_c, 0, 62, 100
2, 719744, Note_off_c, 0, 70, 64
2, 719744, Note_off_c, 0, 67, 64
2, 719872, Note_off_c, 0, 56, 64
2, 719872, Note_on_c, 0, 44, 100
2, 719872, Note_on_c, 0, 67, 100
2, 719872, Note_on_c, 0, 39, 100
2, 719872, Note_on_c, 0, 56, 100
2, 719872, Note_on_c, 0, 70, 100
2, 719872, Note_off_c, 0, 72, 64
2, 719872, Note_on_c, 0, 72, 100
2, 719872, Note_on_c, 0, 75, 100
2, 719872, Note_off_c, 0, 62, 64
2, 720000, Note_off_c, 0, 70, 64
2, 720000, Note_off_c, 0, 65, 64
2, 720000, Note_off_c, 0, 56, 64
2, 720000, Note_off_c, 0, 50, 64
2, 720000, Note_off_c, 0, 44, 64
2, 720000, Note_off_c, 0, 53, 64
2, 720000, Note_off_c, 0, 46, 64
2, 720000, Note_off_c, 0, 34, 64
2, 720000, Note_on_c, 0, 46, 100
2, 720000, Note_off_c, 0, 51, 64
2, 720128, Note_off_c, 0, 75, 64
2, 720128, Note_off_c, 0, 74, 64
2, 720256, Note_off_c, 0, 74, 64
2, 720256, Note_off_c, 0, 72, 64
2, 720256, Note_on_c, 0, 50, 100
2, 720256, Note_off_c, 0, 53, 64
2, 720256, Note_on_c, 0, 53, 100
2, 720256, Note_off_c, 0, 38, 64
2, 720256, Note_off_c, 0, 39, 64
2, 720256, Note_off_c, 0, 79, 64
2, 720256, Note_on_c, 0, 79, 100
2, 720256, Note_on_c, 0, 74, 100
2, 720256, Note_on_c, 0, 77, 100
2, 720256, Note_off_c, 0, 57, 64
2, 720256, Note_off_c, 0, 60, 64
2, 720256, Note_off_c, 0, 58, 64
2, 720256, Note_on_c, 0, 57, 100
2, 720384, Note_off_c, 0, 79, 64
2, 720384, Note_on_c, 0, 82, 100
2, 720512, Note_off_c, 0, 70, 64
2, 720512, Note_off_c, 0, 63, 64
2, 720512, Note_on_c, 0, 58, 100
2, 720512, Note_on_c, 0, 38, 100
2, 720512, Note_on_c, 0, 51, 100
2, 720512, Note_on_c, 0, 70, 100
2, 720512, Note_on_c, 0, 63, 100
2, 720512, Note_off_c, 0, 65, 64
2, 720512, Note_off_c, 0, 72, 64
2, 720512, Note_on_c, 0, 65, 100
2, 720512, Note_on_c, 0, 72, 100
2, 720512, Note_on_c, 0, 62, 100
2, 720512, Note_off_c, 0, 67, 64
2, 720512, Note_off_c, 0, 69, 64
2, 720512, Note_off_c, 0, 57, 64
2, 720640, Note_off_c, 0, 62, 64
2, 720640, Note_off_c, 0, 58, 64
2, 720768, Note_on_c, 0, 58, 100
2, 720768, Note_off_c, 0, 60, 64
2, 720768, Note_on_c, 0, 75, 100
2, 720768, Note_off_c, 0, 74, 64
2, 720768, Note_on_c, 0, 74, 100
2, 720768, Note_on_c, 0, 57, 100
2, 720768, Note_off_c, 0, 51, 64
2, 720768, Note_off_c, 0, 50, 64
2, 720768, Note_on_c, 0, 60, 100
2, 720768, Note_on_c, 0, 67, 100
2, 720768, Note_off_c, 0, 65, 64
2, 720896, Note_off_c, 0, 81, 64
2, 720896, Note_off_c, 0, 75, 64
2, 720896, Note_on_c, 0, 75, 100
2, 721024, Note_off_c, 0, 72, 64
2, 721024, Note_on_c, 0, 72, 100
2, 721024, Note_off_c, 0, 74, 64
2, 721152, Note_on_c, 0, 74, 100
2, 721152, Note_on_c, 0, 69, 100
2, 721152, Note_off_c, 0, 70, 64
2, 721152, Note_off_c, 0, 72, 64
2, 721152, Note_off_c, 0, 62, 64
2, 721152, Note_on_c, 0, 62, 100
2, 721280, Note_off_c, 0, 70, 64
2, 721280, Note_off_c, 0, 65, 64
2, 721280, Note_off_c, 0, 63, 64
2, 721280, Note_off_c, 0, 57, 64
2, 721280, Note_off_c, 0, 50, 64
2, 721280, Note_off_c, 0, 62, 64
2, 721280, Note_on_c, 0, 70, 100
2, 721280, Note_off_c, 0, 69, 64
2, 721280, Note_on_c, 0, 65, 100
2, 721280, Note_on_c, 0, 62, 100
2, 721280, Note_on_c, 0, 50, 100
2, 721408, Note_off_c, 0, 72, 64
2, 721408, Note_on_c, 0, 72, 100
2, 721408, Note_off_c, 0, 70, 64
2, 721408, Note_on_c, 0, 70, 100
2, 721536, Note_off_c, 0, 65, 64
2, 721536, Note_off_c, 0, 50, 64
2, 721536, Note_off_c, 0, 57, 64
2, 721536, Note_on_c, 0, 57, 100
2, 721536, Note_off_c, 0, 72, 64
2, 721536, Note_on_c, 0, 65, 100
2, 721536, Note_on_c, 0, 50, 100
2, 721536, Note_off_c, 0, 53, 64
2, 721536, Note_off_c, 0, 50, 64
2, 721536, Note_off_c, 0, 62, 64
2, 721536, Note_off_c, 0, 38, 64
2, 721536, Note_off_c, 0, 60, 64
2, 721536, Note_off_c, 0, 69, 64
2, 721536, Note_on_c, 0, 69, 100
2, 721664, Note_off_c, 0, 70, 64
2, 721664, Note_on_c, 0, 60, 100
2, 721792, Note_on_c, 0, 70, 100
2, 721792, Note_off_c, 0, 69, 64
2, 721792, Note_off_c, 0, 65, 64
2, 721792, Note_off_c, 0, 63, 64
2, 721792, Note_on_c, 0, 63, 100
2, 721792, Note_on_c, 0, 62, 100
2, 721792, Note_off_c, 0, 60, 64
2, 721792, Note_on_c, 0, 51, 100
2, 721792, Note_off_c, 0, 58, 64
2, 721920, Note_off_c, 0, 69, 64
2, 721920, Note_on_c, 0, 69, 100
2, 722048, Note_off_c, 0, 62, 64
2, 722048, Note_on_c, 0, 62, 100
2, 722048, Note_off_c, 0, 72, 64
2, 722048, Note_off_c, 0, 75, 64
2, 722048, Note_on_c, 0, 72, 100
2, 722048, Note_off_c, 0, 69, 64
2, 722048, Note_off_c, 0, 70, 64
2, 722048, Note_off_c, 0, 57, 64
2, 722048, Note_on_c, 0, 65, 100
2, 722048, Note_off_c, 0, 53, 64
2, 722048, Note_off_c, 0, 60, 64
2, 722048, Note_on_c, 0, 38, 100
2, 722048, Note_on_c, 0, 53, 100
2, 722048, Note_on_c, 0, 60, 100
2, 722048, Note_off_c, 0, 51, 64
2, 722048, Note_on_c, 0, 39, 100
2, 722048, Note_on_c, 0, 69, 100
2, 722048, Note_off_c, 0, 67, 64
2, 722048, Note_on_c, 0, 67, 100
2, 722048, Note_off_c, 0, 63, 64
2, 722048, Note_on_c, 0, 63, 100
2, 722304, Note_off_c, 0, 69, 64
2, 722304, Note_off_c, 0, 77, 64
2, 722304, Note_off_c, 0, 65, 64
2, 722304, Note_on_c, 0, 66, 100
2, 722304, Note_on_c, 0, 56, 100
2, 722304, Note_off_c, 0, 50, 64
2, 722304, Note_off_c, 0, 70, 64
2, 722304, Note_on_c, 0, 50, 100
2, 722304, Note_off_c, 0, 39, 64
2, 722304, Note_on_c, 0, 70, 100
2, 722304, Note_on_c, 0, 75, 100
2, 722304, Note_on_c, 0, 69, 100
2, 722304, Note_on_c, 0, 57, 100
2, 722304, Note_off_c, 0, 62, 64
2, 722304, Note_off_c, 0, 74, 64
2, 722560, Note_off_c, 0, 74, 64
2, 722560, Note_on_c, 0, 45, 100
2, 722560, Note_off_c, 0, 38, 64
2, 722560, Note_off_c, 0, 67, 64
2, 722560, Note_off_c, 0, 72, 64
2, 722560, Note_on_c, 0, 65, 100
2, 722560, Note_off_c, 0, 65, 64
2, 722560, Note_on_c, 0, 38, 100
2, 722560, Note_off_c, 0, 60, 64
2, 722560, Note_on_c, 0, 58, 100
2, 722560, Note_on_c, 0, 72, 100
2, 722560, Note_off_c, 0, 70, 64
2, 722560, Note_on_c, 0, 65, 100
2, 722560, Note_on_c, 0, 74, 100
2, 722560, Note_on_c, 0, 67, 100
2, 722560, Note_off_c, 0, 38, 64
2, 722560, Note_off_c, 0, 62, 64
2, 722560, Note_off_c, 0, 67, 64
2, 722560, Note_on_c, 0, 62, 100
2, 722688, Note_on_c, 0, 67, 100
2, 722688, Note_off_c, 0, 72, 64
2, 722688, Note_off_c, 0, 63, 64
2, 722688, Note_off_c, 0, 65, 64
2, 722688, Note_on_c, 0, 60, 100
2, 722688, Note_off_c, 0, 69, 64
2, 722688, Note_on_c, 0, 63, 100
2, 722688, Note_off_c, 0, 75, 64
2, 722688, Note_on_c, 0, 72, 100
2, 722688, Note_on_c, 0, 70, 100
2, 722688, Note_on_c, 0, 69, 100
2, 722688, Note_off_c, 0, 62, 64
2, 722688, Note_on_c, 0, 62, 100
2, 722816, Note_off_c, 0, 72, 64
2, 722816, Note_off_c, 0, 74, 64
2, 722816, Note_off_c, 0, 67, 64
2, 722816, Note_on_c, 0, 65, 100
2, 722816, Note_off_c, 0, 62, 64
2, 722816, Note_off_c, 0, 79, 64
2, 722816, Note_off_c, 0, 60, 64
2, 722816, Note_off_c, 0, 69, 64
2, 722816, Note_off_c, 0, 70, 64
2, 722816, Note_on_c, 0, 60, 100
2, 722816, Note_on_c, 0, 74, 100
2, 722816, Note_on_c, 0, 67, 100
2, 722816, Note_off_c, 0, 60, 64
2, 722816, Note_off_c, 0, 38, 64
2, 722816, Note_on_c, 0, 38, 100
2, 722816, Note_on_c, 0, 79, 100
2, 722816, Note_on_c, 0, 75, 100
2, 722816, Note_on_c, 0, 62, 100
2, 722880, Note_off_c, 0, 74, 64
2, 722880, Note_off_c, 0, 69, 64
2, 722880, Note_on_c, 0, 69, 100
2, 722944, Note_off_c, 0, 79, 64
2, 722944, Note_off_c, 0, 75, 64
2, 722944, Note_on_c, 0, 75, 100
2, 722944, Note_on_c, 0, 79, 100
2, 723008, Note_off_c, 0, 79, 64
2, 723072, Note_off_c, 0, 70, 64
2, 723072, Note_off_c, 0, 67, 64
2, 723072, Note_off_c, 0, 65, 64
2, 723072, Note_off_c, 0, 63, 64
2, 723072, Note_on_c, 0, 63, 100
2, 723072, Note_off_c, 0, 62, 64
2, 723072, Note_on_c, 0, 72, 100
2, 723072, Note_on_c, 0, 70, 100
2, 723072, Note_on_c, 0, 79, 100
2, 723136, Note_on_c, 0, 60, 100
2, 723136, Note_off_c, 0, 58, 64
2, 723200, Note_on_c, 0, 64, 100
2, 723200, Note_on_c, 0, 65, 100
2, 723264, Note_on_c, 0, 62, 100
2, 723264, Note_off_c, 0, 70, 64
2, 723264, Note_on_c, 0, 67, 100
2, 723264, Note_off_c, 0, 64, 64
2, 723328, Note_off_c, 0, 65, 64
2, 723328, Note_off_c, 0, 69, 64
2, 723328, Note_off_c, 0, 72, 64
2, 723328, Note_on_c, 0, 72, 100
2, 723328, Note_off_c, 0, 72, 64
2, 723328, Note_on_c, 0, 65, 100
2, 723328, Note_on_c, 0, 69, 100
2, 723328, Note_off_c, 0, 60, 64
2, 723328, Note_off_c, 0, 67, 64
2, 723328, Note_on_c, 0, 67, 100
2, 723392, Note_off_c, 0, 65, 64
2, 723392, Note_off_c, 0, 71, 64
2, 723456, Note_off_c, 0, 70, 64
2, 723456, Note_off_c, 0, 71, 64
2, 723456, Note_on_c, 0, 70, 100
2, 723456, Note_on_c, 0, 71, 100
2, 723520, Note_off_c, 0, 72, 64
2, 723520, Note_on_c, 0, 64, 100
2, 723520, Note_on_c, 0, 72, 100
2, 723584, Note_off_c, 0, 69, 64
2, 723584, Note_on_c, 0, 69, 100
2, 723584, Note_off_c, 0, 72, 64
2, 723584, Note_off_c, 0, 64, 64
2, 723584, Note_on_c, 0, 64, 100
2, 723584, Note_on_c, 0, 60, 100
2, 723584, Note_off_c, 0, 69, 64
2, 723584, Note_on_c, 0, 72, 100
2, 723584, Note_off_c, 0, 72, 64
2, 723648, Note_on_c, 0, 69, 100
2, 723712, Note_off_c, 0, 72, 64
2, 723712, Note_on_c, 0, 72, 100
2, 723776, Note_off_c, 0, 72, 64
2, 723840, Note_on_c, 0, 72, 100
2, 723840, Note_off_c, 0, 64, 64
2, 723840, Note_off_c, 0, 65, 64
2, 723840, Note_off_c, 0, 72, 64
2, 723840, Note_on_c, 0, 65, 100
2, 723840, Note_off_c, 0, 60, 64
2, 723840, Note_on_c, 0, 60, 100
2, 723840, Note_off_c, 0, 67, 64
2, 723840, Note_on_c, 0, 67, 100
2, 723840, Note_on_c, 0, 72, 100
2, 723840, Note_off_c, 0, 60, 64
2, 723968, Note_off_c, 0, 65, 64
2, 723968, Note_on_c, 0, 60, 100
2, 724032, Note_on_c, 0, 65, 100
2, 724032, Note_off_c, 0, 67, 64
2, 724096, Note_off_c, 0, 72, 64
2, 724096, Note_off_c, 0, 65, 64
2, 724096, Note_on_c, 0, 67, 100
2, 724096, Note_off_c, 0, 67, 64
2, 724096, Note_on_c, 0, 67, 100
2, 724096, Note_off_c, 0, 60, 64
2, 724096, Note_on_c, 0, 64, 100
2, 724224, Note_off_c, 0, 64, 64
2, 724224, Note_on_c, 0, 65, 100
2, 724224, Note_on_c, 0, 72, 100
2, 724224, Note_off_c, 0, 67, 64
2, 724224, Note_on_c, 0, 67, 100
2, 724288, Note_on_c, 0, 60, 100
2, 724288, Note_on_c, 0, 58, 100
2, 724352, Note_off_c, 0, 65, 64
2, 724352, Note_off_c, 0, 67, 64
2, 724352, Note_off_c, 0, 60, 64
2, 724352, Note_on_c, 0, 60, 100
2, 724480, Note_off_c, 0, 60, 64
2, 724480, Note_off_c, 0, 58, 64
2, 724480, Note_on_c, 0, 58, 100
2, 724608, Note_off_c, 0, 74, 64
2, 724608, Note_off_c, 0, 72, 64
2, 724608, Note_on_c, 0, 65, 100
2, 724608, Note_off_c, 0, 65, 64
2, 724608, Note_off_c, 0, 58, 64
2, 724608, Note_off_c, 0, 38, 64
2, 724608, Note_on_c, 0, 38, 100
2, 724608, Note_on_c, 0, 58, 100
2, 724608, Note_off_c, 0, 57, 64
2, 724608, Note_on_c, 0, 57, 100
2, 724608, Note_on_c, 0, 74, 100
2, 724608, Note_on_c, 0, 65, 100
2, 724736, Note_off_c, 0, 65, 64
2, 724736, Note_on_c, 0, 72, 100
2, 724736, Note_off_c, 0, 74, 64
2, 724736, Note_on_c, 0, 74, 100
2, 724800, Note_off_c, 0, 72, 64
2, 724864, Note_off_c, 0, 57, 64
2, 724864, Note_on_c, 0, 72, 100
2, 724864, Note_on_c, 0, 57, 100
2, 724864, Note_off_c, 0, 70, 64
2, 724864, Note_on_c, 0, 70, 100
2, 724864, Note_off_c, 0, 67, 64
2, 724864, Note_on_c, 0, 60, 100
2, 724864, Note_off_c, 0, 74, 64
2, 724864, Note_on_c, 0, 67, 100
2, 724864, Note_on_c, 0, 65, 100
2, 724864, Note_on_c, 0, 77, 100
2, 724864, Note_off_c, 0, 38, 64
2, 724864, Note_off_c, 0, 45, 64
2, 724864, Note_on_c, 0, 34, 100
2, 724992, Note_off_c, 0, 74, 64
2, 724992, Note_on_c, 0, 74, 100
2, 724992, Note_off_c, 0, 77, 64
2, 725056, Note_on_c, 0, 33, 100
2, 725120, Note_off_c, 0, 33, 64
2, 725120, Note_on_c, 0, 33, 100
2, 725120, Note_off_c, 0, 74, 64
2, 725120, Note_on_c, 0, 45, 100
2, 725120, Note_on_c, 0, 77, 100
2, 725120, Note_off_c, 0, 65, 64
2, 725120, Note_off_c, 0, 72, 64
2, 725120, Note_on_c, 0, 72, 100
2, 725120, Note_off_c, 0, 60, 64
2, 725120, Note_off_c, 0, 62, 64
2, 725120, Note_on_c, 0, 62, 100
2, 725184, Note_off_c, 0, 72, 64
2, 725184, Note_off_c, 0, 74, 64
2, 725184, Note_on_c, 0, 74, 100
2, 725248, Note_off_c, 0, 74, 64
2, 725312, Note_off_c, 0, 69, 64
2, 725376, Note_off_c, 0, 77, 64
2, 725376, Note_on_c, 0, 69, 100
2, 725376, Note_on_c, 0, 60, 100
2, 725376, Note_off_c, 0, 62, 64
2, 725376, Note_on_c, 0, 62, 100
2, 725376, Note_on_c, 0, 77, 100
2, 725376, Note_on_c, 0, 65, 100
2, 725440, Note_off_c, 0, 62, 64
2, 725440, Note_off_c, 0, 55, 64
2, 725568, Note_off_c, 0, 77, 64
2, 725568, Note_on_c, 0, 62, 100
2, 725632, Note_on_c, 0, 77, 100
2, 725632, Note_off_c, 0, 62, 64
2, 725632, Note_off_c, 0, 60, 64
2, 725696, Note_on_c, 0, 60, 100
2, 725696, Note_on_c, 0, 55, 100
2, 725696, Note_off_c, 0, 45, 64
2, 725696, Note_off_c, 0, 33, 64
2, 725696, Note_on_c, 0, 62, 100
2, 725696, Note_off_c, 0, 77, 64
2, 725696, Note_on_c, 0, 43, 100
2, 725824, Note_off_c, 0, 65, 64
2, 725824, Note_on_c, 0, 65, 100
2, 725952, Note_off_c, 0, 65, 64
2, 725952, Note_off_c, 0, 43, 64
2, 725952, Note_off_c, 0, 67, 64
2, 725952, Note_off_c, 0, 64, 64
2, 725952, Note_on_c, 0, 64, 100
2, 725952, Note_off_c, 0, 72, 64
2, 725952, Note_on_c, 0, 76, 100
2, 725952, Note_on_c, 0, 67, 100
2, 725952, Note_off_c, 0, 60, 64
2, 725952, Note_off_c, 0, 40, 64
2, 725952, Note_off_c, 0, 67, 64
2, 725952, Note_on_c, 0, 72, 100
2, 725952, Note_on_c, 0, 40, 100
2, 726080, Note_off_c, 0, 72, 64
2, 726080, Note_off_c, 0, 76, 64
2, 726208, Note_off_c, 0, 64, 64
2, 726208, Note_off_c, 0, 60, 64
2, 726208, Note_on_c, 0, 60, 100
2, 726208, Note_off_c, 0, 72, 64
2, 726208, Note_on_c, 0, 72, 100
2, 726208, Note_on_c, 0, 52, 100
2, 726208, Note_off_c, 0, 69, 64
2, 726208, Note_on_c, 0, 64, 100
2, 726208, Note_on_c, 0, 67, 100
2, 726208, Note_off_c, 0, 64, 64
2, 726336, Note_on_c, 0, 69, 100
2, 726336, Note_off_c, 0, 65, 64
2, 726336, Note_on_c, 0, 65, 100
2, 726336, Note_off_c, 0, 40, 64
2, 726336, Note_off_c, 0, 67, 64
2, 726336, Note_on_c, 0, 67, 100
2, 726464, Note_off_c, 0, 62, 64
2, 726464, Note_off_c, 0, 65, 64
2, 726464, Note_on_c, 0, 62, 100
2, 726464, Note_off_c, 0, 60, 64
2, 726464, Note_off_c, 0, 64, 64
2, 726464, Note_on_c, 0, 64, 100
2, 726464, Note_on_c, 0, 60, 100
2, 726464, Note_on_c, 0, 76, 100
2, 726464, Note_off_c, 0, 67, 64
2, 726464, Note_off_c, 0, 48, 64
2, 726464, Note_off_c, 0, 36, 64
2, 726464, Note_off_c, 0, 72, 64
2, 726464, Note_on_c, 0, 72, 100
2, 726528, Note_off_c, 0, 74, 64
2, 726528, Note_on_c, 0, 74, 100
2, 726592, Note_off_c, 0, 76, 64
2, 726592, Note_on_c, 0, 76, 100
2, 726592, Note_off_c, 0, 74, 64
2, 726592, Note_on_c, 0, 74, 100
2, 726656, Note_off_c, 0, 74, 64
2, 726656, Note_on_c, 0, 74, 100
2, 726656, Note_off_c, 0, 76, 64
2, 726656, Note_off_c, 0, 64, 64
2, 726656, Note_on_c, 0, 48, 100
2, 726656, Note_on_c, 0, 36, 100
2, 726720, Note_off_c, 0, 60, 64
2, 726720, Note_on_c, 0, 60, 100
2, 726720, Note_on_c, 0, 76, 100
2, 726720, Note_off_c, 0, 69, 64
2, 726720, Note_on_c, 0, 69, 100
2, 726720, Note_off_c, 0, 62, 64
2, 726720, Note_off_c, 0, 77, 64
2, 726720, Note_on_c, 0, 77, 100
2, 726720, Note_off_c, 0, 50, 64
2, 726720, Note_on_c, 0, 38, 100
2, 726720, Note_off_c, 0, 74, 64
2, 726720, Note_on_c, 0, 50, 100
2, 726720, Note_off_c, 0, 72, 64
2, 726784, Note_off_c, 0, 77, 64
2, 726784, Note_on_c, 0, 77, 100
2, 726848, Note_off_c, 0, 72, 64
2, 726848, Note_on_c, 0, 72, 100
2, 726912, Note_off_c, 0, 72, 64
2, 726912, Note_off_c, 0, 38, 64
2, 726912, Note_off_c, 0, 50, 64
2, 726912, Note_off_c, 0, 60, 64
2, 726912, Note_on_c, 0, 38, 100
2, 726976, Note_on_c, 0, 72, 100
2, 726976, Note_on_c, 0, 74, 100
2, 726976, Note_off_c, 0, 69, 64
2, 726976, Note_on_c, 0, 65, 100
2, 726976, Note_off_c, 0, 74, 64
2, 726976, Note_off_c, 0, 67, 64
2, 726976, Note_on_c, 0, 67, 100
2, 726976, Note_off_c, 0, 50, 64
2, 726976, Note_off_c, 0, 38, 64
2, 726976, Note_on_c, 0, 74, 100
2, 726976, Note_on_c, 0, 50, 100
2, 727040, Note_on_c, 0, 64, 100
2, 727104, Note_off_c, 0, 65, 64
2, 727104, Note_off_c, 0, 62, 64
2, 727104, Note_on_c, 0, 62, 100
2, 727104, Note_off_c, 0, 67, 64
2, 727104, Note_off_c, 0, 74, 64
2, 727104, Note_on_c, 0, 74, 100
2, 727104, Note_on_c, 0, 67, 100
2, 727168, Note_on_c, 0, 65, 100
2, 727168, Note_off_c, 0, 62, 64
2, 727168, Note_off_c, 0, 38, 64
2, 727168, Note_on_c, 0, 38, 100
2, 727168, Note_off_c, 0, 74, 64
2, 727168, Note_off_c, 0, 50, 64
2, 727232, Note_off_c, 0, 67, 64
2, 727232, Note_off_c, 0, 64, 64
2, 727232, Note_on_c, 0, 64, 100
2, 727232, Note_on_c, 0, 60, 100
2, 727232, Note_off_c, 0, 36, 64
2, 727232, Note_off_c, 0, 79, 64
2, 727232, Note_off_c, 0, 70, 64
2, 727296, Note_on_c, 0, 79, 100
2, 727360, Note_off_c, 0, 77, 64
2, 727360, Note_on_c, 0, 77, 100
2, 727424, Note_off_c, 0, 79, 64
2, 727424, Note_off_c, 0, 60, 64
2, 727424, Note_on_c, 0, 36, 100
2, 727488, Note_on_c, 0, 79, 100
2, 727488, Note_off_c, 0, 64, 64
2, 727488, Note_off_c, 0, 77, 64
2, 727488, Note_off_c, 0, 58, 64
2, 727488, Note_on_c, 0, 64, 100
2, 727488, Note_on_c, 0, 40, 100
2, 727488, Note_on_c, 0, 84, 100
2, 727488, Note_off_c, 0, 65, 64
2, 727616, Note_on_c, 0, 60, 100
2, 727616, Note_off_c, 0, 82, 64
2, 727616, Note_on_c, 0, 65, 100
2, 727616, Note_off_c, 0, 52, 64
2, 727680, Note_on_c, 0, 58, 100
2, 727680, Note_on_c, 0, 67, 100
2, 727680, Note_off_c, 0, 40, 64
2, 727744, Note_off_c, 0, 70, 64
2, 727744, Note_on_c, 0, 70, 100
2, 727744, Note_off_c, 0, 67, 64
2, 727744, Note_off_c, 0, 55, 64
2, 727744, Note_off_c, 0, 43, 64
2, 727744, Note_off_c, 0, 65, 64
2, 727744, Note_on_c, 0, 43, 100
2, 727808, Note_on_c, 0, 62, 100
2, 727872, Note_on_c, 0, 65, 100
2, 727872, Note_off_c, 0, 62, 64
2, 727872, Note_on_c, 0, 74, 100
2, 727872, Note_off_c, 0, 67, 64
2, 727872, Note_on_c, 0, 67, 100
2, 727936, Note_off_c, 0, 74, 64
2, 728000, Note_off_c, 0, 67, 64
2, 728000, Note_off_c, 0, 36, 64
2, 728000, Note_off_c, 0, 60, 64
2, 728000, Note_off_c, 0, 62, 64
2, 728000, Note_off_c, 0, 43, 64
2, 728000, Note_off_c, 0, 79, 64
2, 728000, Note_off_c, 0, 70, 64
2, 728000, Note_off_c, 0, 72, 64
2, 728000, Note_on_c, 0, 70, 100
2, 728000, Note_on_c, 0, 62, 100
2, 728000, Note_on_c, 0, 55, 100
2, 728000, Note_on_c, 0, 72, 100
2, 728000, Note_on_c, 0, 43, 100
2, 728000, Note_off_c, 0, 72, 64
2, 728000, Note_off_c, 0, 46, 64
2, 728064, Note_off_c, 0, 55, 64
2, 728064, Note_off_c, 0, 53, 64
2, 728192, Note_off_c, 0, 70, 64
2, 728192, Note_on_c, 0, 72, 100
2, 728256, Note_on_c, 0, 79, 100
2, 728256, Note_off_c, 0, 63, 64
2, 728256, Note_off_c, 0, 43, 64
2, 728256, Note_on_c, 0, 77, 100
2, 728256, Note_off_c, 0, 70, 64
2, 728256, Note_off_c, 0, 58, 64
2, 728256, Note_off_c, 0, 53, 64
2, 728256, Note_off_c, 0, 74, 64
2, 728256, Note_on_c, 0, 74, 100
2, 728256, Note_on_c, 0, 70, 100
2, 728256, Note_off_c, 0, 62, 64
2, 728256, Note_on_c, 0, 53, 100
2, 728256, Note_on_c, 0, 43, 100
2, 728256, Note_on_c, 0, 58, 100
2, 728256, Note_off_c, 0, 41, 64
2, 728320, Note_off_c, 0, 75, 64
2, 728320, Note_on_c, 0, 75, 100
2, 728384, Note_off_c, 0, 74, 64
2, 728384, Note_off_c, 0, 75, 64
2, 728512, Note_on_c, 0, 74, 100
2, 728512, Note_off_c, 0, 65, 64
2, 728576, Note_off_c, 0, 53, 64
2, 728576, Note_on_c, 0, 41, 100
2, 728576, Note_off_c, 0, 70, 64
2, 728576, Note_on_c, 0, 70, 100
2, 728576, Note_off_c, 0, 62, 64
2, 728576, Note_on_c, 0, 62, 100
2, 728576, Note_on_c, 0, 51, 100
2, 728576, Note_on_c, 0, 39, 100
2, 728576, Note_off_c, 0, 70, 64
2, 728576, Note_off_c, 0, 79, 64
2, 728576, Note_off_c, 0, 43, 64
2, 728576, Note_on_c, 0, 55, 100
2, 728576, Note_on_c, 0, 46, 100
2, 728768, Note_on_c, 0, 70, 100
2, 728768, Note_on_c, 0, 75, 100
2, 728768, Note_off_c, 0, 58, 64
2, 728768, Note_on_c, 0, 50, 100
2, 728768, Note_on_c, 0, 43, 100
2, 728768, Note_off_c, 0, 79, 64
2, 728768, Note_on_c, 0, 79, 100
2, 728768, Note_on_c, 0, 58, 100
2, 728768, Note_off_c, 0, 46, 64
2, 728768, Note_off_c, 0, 62, 64
2, 728768, Note_off_c, 0, 58, 64
2, 728768, Note_on_c, 0, 67, 100
2, 728768, Note_on_c, 0, 46, 100
2, 728768, Note_off_c, 0, 34, 64
2, 728896, Note_off_c, 0, 79, 64
2, 728896, Note_off_c, 0, 70, 64
2, 728896, Note_on_c, 0, 70, 100
2, 728896, Note_on_c, 0, 58, 100
2, 728896, Note_off_c, 0, 67, 64
2, 728896, Note_on_c, 0, 62, 100
2, 728896, Note_off_c, 0, 46, 64
2, 728896, Note_off_c, 0, 70, 64
2, 728896, Note_off_c, 0, 74, 64
2, 728896, Note_on_c, 0, 46, 100
2, 728896, Note_on_c, 0, 34, 100
2, 728960, Note_off_c, 0, 75, 64
2, 729024, Note_on_c, 0, 74, 100
2, 729024, Note_off_c, 0, 34, 64
2, 729024, Note_off_c, 0, 46, 64
2, 729024, Note_on_c, 0, 79, 100
2, 729024, Note_off_c, 0, 75, 64
2, 729024, Note_on_c, 0, 46, 100
2, 729024, Note_off_c, 0, 72, 64
2, 729024, Note_on_c, 0, 75, 100
2, 729024, Note_on_c, 0, 67, 100
2, 729024, Note_on_c, 0, 34, 100
2, 729152, Note_off_c, 0, 74, 64
2, 729152, Note_off_c, 0, 75, 64
2, 729152, Note_off_c, 0, 79, 64
2, 729152, Note_on_c, 0, 70, 100
2, 729152, Note_on_c, 0, 79, 100
2, 729152, Note_off_c, 0, 78, 64
2, 729216, Note_on_c, 0, 75, 100
2, 729216, Note_off_c, 0, 67, 64
2, 729216, Note_off_c, 0, 34, 64
2, 729216, Note_off_c, 0, 46, 64
2, 729280, Note_on_c, 0, 78, 100
2, 729280, Note_on_c, 0, 74, 100
2, 729280, Note_off_c, 0, 79, 64
2, 729280, Note_on_c, 0, 45, 100
2, 729280, Note_off_c, 0, 75, 64
2, 729280, Note_on_c, 0, 67, 100
2, 729280, Note_on_c, 0, 46, 100
2, 729408, Note_off_c, 0, 74, 64
2, 729408, Note_on_c, 0, 72, 100
2, 729408, Note_off_c, 0, 70, 64
2, 729408, Note_on_c, 0, 70, 100
2, 729472, Note_off_c, 0, 77, 64
2, 729472, Note_off_c, 0, 46, 64
2, 729472, Note_on_c, 0, 74, 100
2, 729472, Note_off_c, 0, 67, 64
2, 729472, Note_off_c, 0, 45, 64
2, 729472, Note_on_c, 0, 65, 100
2, 729536, Note_off_c, 0, 72, 64
2, 729536, Note_off_c, 0, 74, 64
2, 729536, Note_on_c, 0, 77, 100
2, 729536, Note_off_c, 0, 65, 64
2, 729536, Note_off_c, 0, 53, 64
2, 729536, Note_off_c, 0, 41, 64
2, 729536, Note_on_c, 0, 69, 100
2, 729536, Note_on_c, 0, 53, 100
2, 729536, Note_on_c, 0, 41, 100
2, 729664, Note_off_c, 0, 77, 64
2, 729664, Note_on_c, 0, 72, 100
2, 729664, Note_on_c, 0, 74, 100
2, 729728, Note_off_c, 0, 60, 64
2, 729728, Note_off_c, 0, 57, 64
2, 729728, Note_off_c, 0, 41, 64
2, 729728, Note_on_c, 0, 60, 100
2, 729728, Note_off_c, 0, 72, 64
2, 729728, Note_off_c, 0, 69, 64
2, 729792, Note_on_c, 0, 69, 100
2, 729792, Note_off_c, 0, 41, 64
2, 729792, Note_on_c, 0, 41, 100
2, 729920, Note_off_c, 0, 69, 64
2, 729920, Note_off_c, 0, 74, 64
2, 729984, Note_on_c, 0, 57, 100
2, 729984, Note_on_c, 0, 77, 100
2, 729984, Note_off_c, 0, 41, 64
2, 730048, Note_off_c, 0, 62, 64
2, 730048, Note_off_c, 0, 70, 64
2, 730048, Note_off_c, 0, 77, 64
2, 730048, Note_on_c, 0, 69, 100
2, 730048, Note_on_c, 0, 65, 100
2, 730048, Note_off_c, 0, 57, 64
2, 730048, Note_off_c, 0, 53, 64
2, 730176, Note_off_c, 0, 69, 64
2, 730176, Note_off_c, 0, 72, 64
2, 730176, Note_on_c, 0, 57, 100
2, 730176, Note_on_c, 0, 72, 100
2, 730240, Note_off_c, 0, 65, 64
2, 730240, Note_on_c, 0, 70, 100
2, 730240, Note_on_c, 0, 53, 100
2, 730304, Note_off_c, 0, 70, 64
2, 730304, Note_off_c, 0, 62, 64
2, 730304, Note_on_c, 0, 62, 100
2, 730304, Note_off_c, 0, 72, 64
2, 730304, Note_off_c, 0, 53, 64
2, 730304, Note_on_c, 0, 69, 100
2, 730304, Note_on_c, 0, 53, 100
2, 730304, Note_on_c, 0, 41, 100
2, 730304, Note_off_c, 0, 53, 64
2, 730368, Note_off_c, 0, 62, 64
2, 730368, Note_off_c, 0, 58, 64
2, 730432, Note_on_c, 0, 62, 100
2, 730432, Note_off_c, 0, 69, 64
2, 730432, Note_on_c, 0, 70, 100
2, 730432, Note_on_c, 0, 67, 100
2, 730496, Note_on_c, 0, 69, 100
2, 730496, Note_off_c, 0, 62, 64
2, 730496, Note_off_c, 0, 41, 64
2, 730496, Note_on_c, 0, 53, 100
2, 730560, Note_off_c, 0, 69, 64
2, 730560, Note_off_c, 0, 70, 64
2, 730560, Note_on_c, 0, 70, 100
2, 730560, Note_on_c, 0, 58, 100
2, 730560, Note_on_c, 0, 62, 100
2, 730560, Note_on_c, 0, 69, 100
2, 730560, Note_on_c, 0, 41, 100
2, 730560, Note_on_c, 0, 65, 100
2, 730560, Note_off_c, 0, 60, 64
2, 730624, Note_off_c, 0, 70, 64
2, 730688, Note_on_c, 0, 70, 100
2, 730752, Note_off_c, 0, 65, 64
2, 730752, Note_off_c, 0, 41, 64
2, 730752, Note_off_c, 0, 70, 64
2, 730816, Note_off_c, 0, 60, 64
2, 730816, Note_on_c, 0, 65, 100
2, 730816, Note_off_c, 0, 62, 64
2, 730816, Note_off_c, 0, 69, 64
2, 730816, Note_on_c, 0, 60, 100
2, 730816, Note_off_c, 0, 48, 64
2, 730816, Note_off_c, 0, 65, 64
2, 730816, Note_on_c, 0, 65, 100
2, 730816, Note_on_c, 0, 62, 100
2, 730880, Note_on_c, 0, 69, 100
2, 730880, Note_on_c, 0, 70, 100
2, 730944, Note_off_c, 0, 70, 64
2, 730944, Note_on_c, 0, 70, 100
2, 731008, Note_off_c, 0, 70, 64
2, 731008, Note_on_c, 0, 48, 100
2, 731008, Note_off_c, 0, 60, 64
2, 731008, Note_on_c, 0, 77, 100
2, 731072, Note_off_c, 0, 72, 64
2, 731072, Note_off_c, 0, 65, 64
2, 731072, Note_on_c, 0, 65, 100
2, 731072, Note_off_c, 0, 65, 64
2, 731072, Note_off_c, 0, 57, 64
2, 731072, Note_on_c, 0, 57, 100
2, 731072, Note_off_c, 0, 38, 64
2, 731072, Note_on_c, 0, 72, 100
2, 731136, Note_off_c, 0, 67, 64
2, 731200, Note_on_c, 0, 67, 100
2, 731200, Note_off_c, 0, 72, 64
2, 731264, Note_off_c, 0, 74, 64
2, 731264, Note_on_c, 0, 74, 100
2, 731264, Note_off_c, 0, 57, 64
2, 731264, Note_on_c, 0, 45, 100
2, 731328, Note_on_c, 0, 65, 100
2, 731328, Note_off_c, 0, 72, 64
2, 731328, Note_off_c, 0, 57, 64
2, 731328, Note_on_c, 0, 72, 100
2, 731328, Note_on_c, 0, 57, 100
2, 731328, Note_off_c, 0, 67, 64
2, 731328, Note_off_c, 0, 58, 64
2, 731456, Note_off_c, 0, 72, 64
2, 731456, Note_on_c, 0, 72, 100
2, 731456, Note_on_c, 0, 70, 100
2, 731520, Note_off_c, 0, 57, 64
2, 731520, Note_on_c, 0, 57, 100
2, 731584, Note_off_c, 0, 65, 64
2, 731584, Note_off_c, 0, 77, 64
2, 731584, Note_off_c, 0, 69, 64
2, 731584, Note_off_c, 0, 72, 64
2, 731584, Note_off_c, 0, 57, 64
2, 731584, Note_on_c, 0, 57, 100
2, 731584, Note_on_c, 0, 72, 100
2, 731584, Note_on_c, 0, 58, 100
2, 731648, Note_off_c, 0, 72, 64
2, 731648, Note_on_c, 0, 63, 100
2, 731776, Note_on_c, 0, 69, 100
2, 731840, Note_on_c, 0, 65, 100
2, 731840, Note_off_c, 0, 58, 64
2, 731840, Note_on_c, 0, 82, 100
2, 731840, Note_on_c, 0, 81, 100
2, 731840, Note_off_c, 0, 65, 64
2, 731840, Note_off_c, 0, 57, 64
2, 731840, Note_off_c, 0, 53, 64
2, 731840, Note_on_c, 0, 65, 100
2, 731840, Note_on_c, 0, 57, 100
2, 731840, Note_off_c, 0, 50, 64
2, 731840, Note_on_c, 0, 58, 100
2, 731840, Note_on_c, 0, 60, 100
2, 731968, Note_off_c, 0, 81, 64
2, 731968, Note_on_c, 0, 79, 100
2, 732096, Note_on_c, 0, 53, 100
2, 732096, Note_on_c, 0, 50, 100
2, 732096, Note_off_c, 0, 79, 64
2, 732096, Note_off_c, 0, 63, 64
2, 732096, Note_on_c, 0, 79, 100
2, 732096, Note_off_c, 0, 60, 64
2, 732096, Note_off_c, 0, 55, 64
2, 732096, Note_off_c, 0, 57, 64
2, 732224, Note_off_c, 0, 74, 64
2, 732224, Note_off_c, 0, 58, 64
2, 732224, Note_on_c, 0, 57, 100
2, 732224, Note_on_c, 0, 72, 100
2, 732224, Note_on_c, 0, 63, 100
2, 732352, Note_on_c, 0, 55, 100
2, 732352, Note_on_c, 0, 74, 100
2, 732352, Note_off_c, 0, 72, 64
2, 732352, Note_off_c, 0, 57, 64
2, 732352, Note_off_c, 0, 70, 64
2, 732352, Note_off_c, 0, 53, 64
2, 732352, Note_off_c, 0, 65, 64
2, 732352, Note_off_c, 0, 63, 64
2, 732352, Note_on_c, 0, 57, 100
2, 732352, Note_on_c, 0, 41, 100
2, 732352, Note_on_c, 0, 65, 100
2, 732352, Note_on_c, 0, 53, 100
2, 732352, Note_off_c, 0, 53, 64
2, 732480, Note_on_c, 0, 70, 100
2, 732480, Note_off_c, 0, 69, 64
2, 732544, Note_on_c, 0, 69, 100
2, 732608, Note_off_c, 0, 41, 64
2, 732608, Note_off_c, 0, 69, 64
2, 732608, Note_off_c, 0, 57, 64
2, 732608, Note_on_c, 0, 53, 100
2, 732608, Note_off_c, 0, 72, 64
2, 732608, Note_off_c, 0, 65, 64
2, 732608, Note_off_c, 0, 53, 64
2, 732608, Note_on_c, 0, 41, 100
2, 732608, Note_on_c, 0, 81, 100
2, 732608, Note_on_c, 0, 72, 100
2, 732608, Note_on_c, 0, 53, 100
2, 732736, Note_off_c, 0, 81, 64
2, 732736, Note_on_c, 0, 75, 100
2, 732864, Note_off_c, 0, 53, 64
2, 732864, Note_off_c, 0, 41, 64
2, 732864, Note_off_c, 0, 72, 64
2, 732864, Note_off_c, 0, 65, 64
2, 732864, Note_on_c, 0, 65, 100
2, 732864, Note_on_c, 0, 41, 100
2, 732864, Note_on_c, 0, 53, 100
2, 732864, Note_off_c, 0, 84, 64
2, 732992, Note_on_c, 0, 81, 100
2, 733056, Note_off_c, 0, 81, 64
2, 733120, Note_on_c, 0, 81, 100
2, 733120, Note_on_c, 0, 84, 100
2, 733120, Note_off_c, 0, 41, 64
2, 733120, Note_off_c, 0, 53, 64
2, 733120, Note_off_c, 0, 81, 64
2, 733120, Note_off_c, 0, 65, 64
2, 733120, Note_on_c, 0, 63, 100
2, 733120, Note_on_c, 0, 41, 100
2, 733120, Note_on_c, 0, 81, 100
2, 733120, Note_on_c, 0, 53, 100
2, 733248, Note_on_c, 0, 65, 100
2, 733248, Note_off_c, 0, 81, 64
2, 733248, Note_off_c, 0, 75, 64
2, 733376, Note_off_c, 0, 53, 64
2, 733376, Note_off_c, 0, 41, 64
2, 733376, Note_off_c, 0, 78, 64
2, 733376, Note_on_c, 0, 46, 100
2, 733376, Note_off_c, 0, 75, 64
2, 733376, Note_on_c, 0, 58, 100
2, 733376, Note_off_c, 0, 66, 64
2, 733376, Note_on_c, 0, 67, 100
2, 733376, Note_on_c, 0, 75, 100
2, 733504, Note_on_c, 0, 78, 100
2, 733504, Note_off_c, 0, 75, 64
2, 733632, Note_off_c, 0, 46, 64
2, 733632, Note_off_c, 0, 58, 64
2, 733632, Note_off_c, 0, 70, 64
2, 733632, Note_off_c, 0, 45, 64
2, 733632, Note_on_c, 0, 60, 100
2, 733632, Note_off_c, 0, 67, 64
2, 733632, Note_off_c, 0, 78, 64
2, 733632, Note_on_c, 0, 57, 100
2, 733696, Note_on_c, 0, 45, 100
2, 733760, Note_off_c, 0, 60, 64
2, 733760, Note_on_c, 0, 58, 100
2, 733760, Note_off_c, 0, 74, 64
2, 733760, Note_on_c, 0, 78, 100
2, 733888, Note_on_c, 0, 74, 100
2, 733888, Note_off_c, 0, 60, 64
2, 733888, Note_on_c, 0, 67, 100
2, 733888, Note_on_c, 0, 66, 100
2, 733888, Note_on_c, 0, 60, 100
2, 733888, Note_off_c, 0, 78, 64
2, 733888, Note_on_c, 0, 78, 100
2, 733888, Note_on_c, 0, 69, 100
2, 733888, Note_off_c, 0, 72, 64
2, 733888, Note_off_c, 0, 50, 64
2, 733888, Note_on_c, 0, 72, 100
2, 733888, Note_on_c, 0, 38, 100
2, 734016, Note_off_c, 0, 78, 64
2, 734016, Note_off_c, 0, 72, 64
2, 734016, Note_off_c, 0, 74, 64
2, 734016, Note_off_c, 0, 62, 64
2, 734080, Note_off_c, 0, 66, 64
2, 734144, Note_on_c, 0, 74, 100
2, 734144, Note_off_c, 0, 72, 64
2, 734144, Note_off_c, 0, 38, 64
2, 734144, Note_on_c, 0, 72, 100
2, 734144, Note_off_c, 0, 60, 64
2, 734144, Note_off_c, 0, 58, 64
2, 734272, Note_on_c, 0, 58, 100
2, 734272, Note_off_c, 0, 57, 64
2, 734272, Note_on_c, 0, 62, 100
2, 734272, Note_off_c, 0, 72, 64
2, 734272, Note_off_c, 0, 69, 64
2, 734272, Note_on_c, 0, 69, 100
2, 734400, Note_on_c, 0, 50, 100
2, 734400, Note_off_c, 0, 38, 64
2, 734400, Note_off_c, 0, 67, 64
2, 734400, Note_off_c, 0, 50, 64
2, 734400, Note_on_c, 0, 50, 100
2, 734400, Note_on_c, 0, 67, 100
2, 734400, Note_on_c, 0, 66, 100
2, 734400, Note_off_c, 0, 67, 64
2, 734400, Note_off_c, 0, 69, 64
2, 734400, Note_off_c, 0, 62, 64
2, 734400, Note_on_c, 0, 62, 100
2, 734400, Note_on_c, 0, 57, 100
2, 734400, Note_on_c, 0, 38, 100
2, 734528, Note_off_c, 0, 58, 64
2, 734528, Note_off_c, 0, 57, 64
2, 734528, Note_on_c, 0, 57, 100
2, 734656, Note_off_c, 0, 58, 64
2, 734656, Note_off_c, 0, 50, 64
2, 734656, Note_off_c, 0, 57, 64
2, 734656, Note_off_c, 0, 66, 64
2, 734656, Note_on_c, 0, 69, 100
2, 734656, Note_on_c, 0, 67, 100
2, 734656, Note_off_c, 0, 62, 64
2, 734656, Note_on_c, 0, 62, 100
2, 734656, Note_off_c, 0, 70, 64
2, 734656, Note_off_c, 0, 60, 64
2, 734656, Note_on_c, 0, 36, 100
2, 734656, Note_off_c, 0, 38, 64
2, 734656, Note_on_c, 0, 70, 100
2, 734656, Note_on_c, 0, 60, 100
2, 734656, Note_on_c, 0, 58, 100
2, 734784, Note_off_c, 0, 70, 64
2, 734784, Note_off_c, 0, 74, 64
2, 734784, Note_on_c, 0, 74, 100
2, 734784, Note_off_c, 0, 67, 64
2, 734784, Note_on_c, 0, 66, 100
2, 734912, Note_on_c, 0, 38, 100
2, 734912, Note_off_c, 0, 74, 64
2, 734912, Note_on_c, 0, 67, 100
2, 734912, Note_off_c, 0, 60, 64
2, 735040, Note_off_c, 0, 66, 64
2, 735040, Note_off_c, 0, 67, 64
2, 735040, Note_off_c, 0, 69, 64
2, 735040, Note_off_c, 0, 74, 64
2, 735040, Note_on_c, 0, 57, 100
2, 735040, Note_on_c, 0, 60, 100
2, 735040, Note_off_c, 0, 38, 64
2, 735040, Note_on_c, 0, 74, 100
2, 735040, Note_on_c, 0, 38, 100
2, 735168, Note_on_c, 0, 69, 100
2, 735168, Note_off_c, 0, 57, 64
2, 735168, Note_off_c, 0, 60, 64
2, 735168, Note_on_c, 0, 67, 100
2, 735168, Note_off_c, 0, 62, 64
2, 735168, Note_off_c, 0, 58, 64
2, 735168, Note_off_c, 0, 74, 64
2, 735168, Note_on_c, 0, 50, 100
2, 735296, Note_on_c, 0, 74, 100
2, 735296, Note_off_c, 0, 67, 64
2, 735296, Note_off_c, 0, 69, 64
2, 735296, Note_on_c, 0, 69, 100
2, 735424, Note_on_c, 0, 58, 100
2, 735424, Note_on_c, 0, 52, 100
2, 735424, Note_off_c, 0, 38, 64
2, 735424, Note_off_c, 0, 69, 64
2, 735424, Note_on_c, 0, 38, 100
2, 735424, Note_on_c, 0, 67, 100
2, 735424, Note_off_c, 0, 50, 64
2, 735552, Note_off_c, 0, 73, 64
2, 735552, Note_on_c, 0, 69, 100
2, 735616, Note_on_c, 0, 73, 100
2, 735680, Note_off_c, 0, 38, 64
2, 735680, Note_off_c, 0, 67, 64
2, 735680, Note_off_c, 0, 50, 64
2, 735680, Note_on_c, 0, 70, 100
2, 735680, Note_on_c, 0, 67, 100
2, 735680, Note_off_c, 0, 61, 64
2, 735680, Note_on_c, 0, 50, 100
2, 735680, Note_on_c, 0, 38, 100
2, 735808, Note_off_c, 0, 70, 64
2, 735808, Note_on_c, 0, 61, 100
2, 735808, Note_off_c, 0, 69, 64
2, 735808, Note_on_c, 0, 62, 100
2, 735936, Note_off_c, 0, 69, 64
2, 735936, Note_off_c, 0, 62, 64
2, 735936, Note_off_c, 0, 67, 64
2, 735936, Note_off_c, 0, 38, 64
2, 735936, Note_off_c, 0, 50, 64
2, 735936, Note_on_c, 0, 69, 100
2, 735936, Note_on_c, 0, 62, 100
2, 736064, Note_off_c, 0, 69, 64
2, 736064, Note_on_c, 0, 67, 100
2, 736192, Note_off_c, 0, 62, 64
2, 736192, Note_off_c, 0, 61, 64
2, 736192, Note_off_c, 0, 67, 64
2, 736192, Note_off_c, 0, 66, 64
2, 736192, Note_on_c, 0, 66, 100
2, 736192, Note_on_c, 0, 69, 100
2, 736320, Note_off_c, 0, 66, 64
2, 736320, Note_off_c, 0, 69, 64
2, 736320, Note_on_c, 0, 69, 100
2, 736448, Note_on_c, 0, 61, 100
2, 736448, Note_off_c, 0, 69, 64
2, 736448, Note_on_c, 0, 66, 100
2, 736448, Note_on_c, 0, 69, 100
2, 736448, Note_on_c, 0, 62, 100
2, 736576, Note_off_c, 0, 66, 64
2, 736576, Note_off_c, 0, 69, 64
2, 736576, Note_on_c, 0, 67, 100
2, 736704, Note_off_c, 0, 67, 64
2, 736704, Note_off_c, 0, 62, 64
2, 736704, Note_on_c, 0, 66, 100
2, 736704, Note_on_c, 0, 69, 100
2, 736960, Note_off_c, 0, 69, 64
2, 736960, Note_off_c, 0, 66, 64
2, 736960, Note_on_c, 0, 66, 100
2, 736960, Note_on_c, 0, 69, 100
2, 736960, Note_on_c, 0, 62, 100
2, 736960, Note_on_c, 0, 50, 100
2, 736960, Note_on_c, 0, 38, 100
2, 736960, Note_off_c, 0, 69, 64
2, 737088, Note_on_c, 0, 69, 100
2, 737088, Note_on_c, 0, 70, 100
2, 737216, Note_off_c, 0, 38, 64
2, 737216, Note_off_c, 0, 50, 64
2, 737216, Note_off_c, 0, 70, 64
2, 737216, Note_off_c, 0, 62, 64
2, 737216, Note_off_c, 0, 66, 64
2, 737216, Note_off_c, 0, 69, 64
2, 737216, Note_on_c, 0, 62, 100
2, 737216, Note_off_c, 0, 58, 64
2, 737216, Note_on_c, 0, 50, 100
2, 737216, Note_on_c, 0, 70, 100
2, 737216, Note_off_c, 0, 70, 64
2, 737344, Note_off_c, 0, 70, 64
2, 737344, Note_on_c, 0, 70, 100
2, 737344, Note_on_c, 0, 72, 100
2, 737344, Note_on_c, 0, 69, 100
2, 737472, Note_on_c, 0, 66, 100
2, 737472, Note_off_c, 0, 69, 64
2, 737472, Note_off_c, 0, 50, 64
2, 737472, Note_off_c, 0, 72, 64
2, 737472, Note_off_c, 0, 70, 64
2, 737472, Note_off_c, 0, 58, 64
2, 737472, Note_on_c, 0, 67, 100
2, 737472, Note_off_c, 0, 62, 64
2, 737472, Note_on_c, 0, 58, 100
2, 737472, Note_off_c, 0, 43, 64
2, 737472, Note_off_c, 0, 55, 64
2, 737472, Note_on_c, 0, 55, 100
2, 737600, Note_off_c, 0, 79, 64
2, 737600, Note_off_c, 0, 55, 64
2, 737600, Note_off_c, 0, 58, 64
2, 737600, Note_on_c, 0, 81, 100
2, 737600, Note_on_c, 0, 43, 100
2, 737664, Note_off_c, 0, 67, 64
2, 737664, Note_off_c, 0, 84, 64
2, 737728, Note_off_c, 0, 67, 64
2, 737728, Note_on_c, 0, 67, 100
2, 737728, Note_off_c, 0, 60, 64
2, 737728, Note_on_c, 0, 60, 100
2, 737728, Note_off_c, 0, 75, 64
2, 737728, Note_on_c, 0, 75, 100
2, 737728, Note_on_c, 0, 72, 100
2, 737728, Note_on_c, 0, 69, 100
2, 737856, Note_off_c, 0, 67, 64
2, 737856, Note_on_c, 0, 67, 100
2, 737920, Note_off_c, 0, 69, 64
2, 737984, Note_off_c, 0, 67, 64
2, 737984, Note_off_c, 0, 63, 64
2, 737984, Note_on_c, 0, 63, 100
2, 737984, Note_on_c, 0, 55, 100
2, 737984, Note_on_c, 0, 79, 100
2, 737984, Note_on_c, 0, 58, 100
2, 737984, Note_off_c, 0, 72, 64
2, 737984, Note_on_c, 0, 67, 100
2, 737984, Note_off_c, 0, 67, 64
2, 737984, Note_off_c, 0, 63, 64
2, 738112, Note_on_c, 0, 67, 100
2, 738112, Note_off_c, 0, 66, 64
2, 738112, Note_on_c, 0, 63, 100
2, 738176, Note_on_c, 0, 66, 100
2, 738176, Note_off_c, 0, 67, 64
2, 738240, Note_on_c, 0, 67, 100
2, 738240, Note_off_c, 0, 55, 64
2, 738240, Note_off_c, 0, 63, 64
2, 738240, Note_on_c, 0, 62, 100
2, 738240, Note_off_c, 0, 58, 64
2, 738240, Note_off_c, 0, 81, 64
2, 738240, Note_off_c, 0, 66, 64
2, 738240, Note_on_c, 0, 72, 100
2, 738240, Note_off_c, 0, 57, 64
2, 738240, Note_on_c, 0, 57, 100
2, 738240, Note_on_c, 0, 42, 100
2, 738240, Note_on_c, 0, 58, 100
2, 738368, Note_on_c, 0, 78, 100
2, 738368, Note_on_c, 0, 81, 100
2, 738368, Note_off_c, 0, 72, 64
2, 738368, Note_off_c, 0, 62, 64
2, 738368, Note_on_c, 0, 62, 100
2, 738496, Note_off_c, 0, 81, 64
2, 738496, Note_on_c, 0, 66, 100
2, 738496, Note_off_c, 0, 42, 64
2, 738496, Note_off_c, 0, 58, 64
2, 738496, Note_off_c, 0, 57, 64
2, 738496, Note_on_c, 0, 55, 100
2, 738496, Note_on_c, 0, 81, 100
2, 738496, Note_off_c, 0, 81, 64
2, 738496, Note_off_c, 0, 45, 64
2, 738496, Note_off_c, 0, 79, 64
2, 738496, Note_off_c, 0, 64, 64
2, 738496, Note_on_c, 0, 64, 100
2, 738496, Note_off_c, 0, 62, 64
2, 738624, Note_off_c, 0, 78, 64
2, 738624, Note_off_c, 0, 76, 64
2, 738624, Note_on_c, 0, 76, 100
2, 738688, Note_on_c, 0, 79, 100
2, 738688, Note_on_c, 0, 81, 100
2, 738752, Note_off_c, 0, 81, 64
2, 738752, Note_off_c, 0, 76, 64
2, 738752, Note_off_c, 0, 64, 64
2, 738752, Note_off_c, 0, 55, 64
2, 738752, Note_on_c, 0, 45, 100
2, 738752, Note_off_c, 0, 57, 64
2, 738752, Note_on_c, 0, 57, 100
2, 738752, Note_off_c, 0, 78, 64
2, 738752, Note_on_c, 0, 78, 100
2, 738752, Note_on_c, 0, 69, 100
2, 738752, Note_off_c, 0, 62, 64
2, 738752, Note_on_c, 0, 62, 100
2, 738880, Note_on_c, 0, 76, 100
2, 738880, Note_off_c, 0, 57, 64
2, 738880, Note_on_c, 0, 77, 100
2, 738880, Note_off_c, 0, 79, 64
2, 739008, Note_on_c, 0, 79, 100
2, 739008, Note_off_c, 0, 69, 64
2, 739008, Note_off_c, 0, 62, 64
2, 739008, Note_off_c, 0, 79, 64
2, 739008, Note_on_c, 0, 70, 100
2, 739008, Note_on_c, 0, 62, 100
2, 739008, Note_on_c, 0, 55, 100
2, 739008, Note_on_c, 0, 79, 100
2, 739008, Note_on_c, 0, 58, 100
2, 739008, Note_off_c, 0, 67, 64
2, 739008, Note_on_c, 0, 67, 100
2, 739136, Note_off_c, 0, 79, 64
2, 739136, Note_off_c, 0, 78, 64
2, 739136, Note_on_c, 0, 78, 100
2, 739264, Note_off_c, 0, 62, 64
2, 739264, Note_off_c, 0, 55, 64
2, 739264, Note_on_c, 0, 79, 100
2, 739264, Note_off_c, 0, 67, 64
2, 739264, Note_off_c, 0, 58, 64
2, 739264, Note_on_c, 0, 81, 100
2, 739264, Note_off_c, 0, 76, 64
2, 739264, Note_off_c, 0, 60, 64
2, 739264, Note_on_c, 0, 60, 100
2, 739264, Note_off_c, 0, 82, 64
2, 739264, Note_on_c, 0, 55, 100
2, 739328, Note_on_c, 0, 76, 100
2, 739392, Note_off_c, 0, 79, 64
2, 739392, Note_off_c, 0, 60, 64
2, 739392, Note_on_c, 0, 67, 100
2, 739392, Note_off_c, 0, 74, 64
2, 739392, Note_on_c, 0, 74, 100
2, 739392, Note_on_c, 0, 57, 100
2, 739520, Note_on_c, 0, 79, 100
2, 739520, Note_off_c, 0, 57, 64
2, 739520, Note_off_c, 0, 55, 64
2, 739520, Note_off_c, 0, 74, 64
2, 739520, Note_off_c, 0, 81, 64
2, 739520, Note_off_c, 0, 54, 64
2, 739520, Note_on_c, 0, 50, 100
2, 739520, Note_off_c, 0, 67, 64
2, 739520, Note_off_c, 0, 66, 64
2, 739520, Note_on_c, 0, 62, 100
2, 739584, Note_off_c, 0, 62, 64
2, 739648, Note_off_c, 0, 81, 64
2, 739648, Note_on_c, 0, 66, 100
2, 739648, Note_on_c, 0, 62, 100
2, 739648, Note_on_c, 0, 69, 100
2, 739648, Note_on_c, 0, 67, 100
2, 739648, Note_on_c, 0, 81, 100
2, 739648, Note_off_c, 0, 72, 64
2, 739648, Note_on_c, 0, 72, 100
2, 739776, Note_off_c, 0, 81, 64
2, 739776, Note_off_c, 0, 50, 64
2, 739776, Note_off_c, 0, 72, 64
2, 739776, Note_off_c, 0, 69, 64
2, 739776, Note_off_c, 0, 62, 64
2, 739776, Note_off_c, 0, 67, 64
2, 739776, Note_off_c, 0, 60, 64
2, 739776, Note_on_c, 0, 81, 100
2, 739776, Note_on_c, 0, 54, 100
2, 739776, Note_on_c, 0, 62, 100
2, 739776, Note_off_c, 0, 65, 64
2, 739776, Note_off_c, 0, 74, 64
2, 739776, Note_on_c, 0, 74, 100
2, 739776, Note_on_c, 0, 60, 100
2, 739904, Note_off_c, 0, 77, 64
2, 739904, Note_on_c, 0, 77, 100
2, 739904, Note_off_c, 0, 74, 64
2, 739904, Note_off_c, 0, 62, 64
2, 739904, Note_off_c, 0, 81, 64
2, 739968, Note_on_c, 0, 58, 100
2, 740032, Note_off_c, 0, 65, 64
2, 740032, Note_on_c, 0, 74, 100
2, 740032, Note_on_c, 0, 69, 100
2, 740032, Note_off_c, 0, 72, 64
2, 740032, Note_on_c, 0, 72, 100
2, 740032, Note_on_c, 0, 62, 100
2, 740032, Note_on_c, 0, 38, 100
2, 740032, Note_on_c, 0, 65, 100
2, 740032, Note_on_c, 0, 67, 100
2, 740160, Note_off_c, 0, 77, 64
2, 740160, Note_off_c, 0, 74, 64
2, 740160, Note_off_c, 0, 72, 64
2, 740160, Note_off_c, 0, 69, 64
2, 740160, Note_on_c, 0, 69, 100
2, 740224, Note_on_c, 0, 74, 100
2, 740224, Note_off_c, 0, 67, 64
2, 740224, Note_on_c, 0, 72, 100
2, 740224, Note_off_c, 0, 38, 64
2, 740288, Note_off_c, 0, 69, 64
2, 740288, Note_off_c, 0, 65, 64
2, 740288, Note_on_c, 0, 50, 100
2, 740288, Note_off_c, 0, 74, 64
2, 740288, Note_on_c, 0, 74, 100
2, 740288, Note_on_c, 0, 65, 100
2, 740288, Note_off_c, 0, 65, 64
2, 740288, Note_off_c, 0, 67, 64
2, 740288, Note_on_c, 0, 67, 100
2, 740288, Note_on_c, 0, 38, 100
2, 740288, Note_off_c, 0, 81, 64
2, 740288, Note_on_c, 0, 81, 100
2, 740416, Note_on_c, 0, 65, 100
2, 740416, Note_off_c, 0, 67, 64
2, 740480, Note_off_c, 0, 81, 64
2, 740544, Note_on_c, 0, 82, 100
2, 740544, Note_off_c, 0, 82, 64
2, 740544, Note_off_c, 0, 86, 64
2, 740544, Note_on_c, 0, 82, 100
2, 740544, Note_off_c, 0, 67, 64
2, 740544, Note_on_c, 0, 67, 100
2, 740672, Note_off_c, 0, 82, 64
2, 740672, Note_off_c, 0, 86, 64
2, 740672, Note_on_c, 0, 86, 100
2, 740672, Note_off_c, 0, 70, 64
2, 740672, Note_off_c, 0, 71, 64
2, 740672, Note_on_c, 0, 71, 100
2, 740800, Note_off_c, 0, 55, 64
2, 740800, Note_off_c, 0, 38, 64
2, 740800, Note_on_c, 0, 70, 100
2, 740800, Note_on_c, 0, 55, 100
2, 740800, Note_off_c, 0, 86, 64
2, 740800, Note_off_c, 0, 74, 64
2, 740800, Note_off_c, 0, 67, 64
2, 740800, Note_on_c, 0, 67, 100
2, 740864, Note_on_c, 0, 86, 100
2, 740928, Note_off_c, 0, 65, 64
2, 740928, Note_on_c, 0, 65, 100
2, 740928, Note_on_c, 0, 53, 100
2, 740928, Note_off_c, 0, 45, 64
2, 740928, Note_off_c, 0, 86, 64
2, 741056, Note_off_c, 0, 84, 64
2, 741056, Note_on_c, 0, 84, 100
2, 741120, Note_off_c, 0, 84, 64
2, 741184, Note_on_c, 0, 84, 100
2, 741184, Note_on_c, 0, 86, 100
2, 741248, Note_off_c, 0, 86, 64
2, 741312, Note_off_c, 0, 75, 64
2, 741312, Note_off_c, 0, 81, 64
2, 741312, Note_on_c, 0, 45, 100
2, 741312, Note_off_c, 0, 72, 64
2, 741312, Note_off_c, 0, 53, 64
2, 741312, Note_off_c, 0, 41, 64
2, 741312, Note_on_c, 0, 81, 100
2, 741312, Note_on_c, 0, 57, 100
2, 741312, Note_off_c, 0, 79, 64
2, 741312, Note_on_c, 0, 53, 100
2, 741312, Note_on_c, 0, 41, 100
2, 741376, Note_off_c, 0, 65, 64
2, 741440, Note_off_c, 0, 70, 64
2, 741440, Note_on_c, 0, 72, 100
2, 741440, Note_on_c, 0, 74, 100
2, 741504, Note_on_c, 0, 70, 100
2, 741504, Note_off_c, 0, 84, 64
2, 741568, Note_off_c, 0, 57, 64
2, 741568, Note_off_c, 0, 74, 64
2, 741568, Note_on_c, 0, 65, 100
2, 741568, Note_off_c, 0, 82, 64
2, 741568, Note_off_c, 0, 51, 64
2, 741568, Note_off_c, 0, 72, 64
2, 741568, Note_on_c, 0, 82, 100
2, 741568, Note_on_c, 0, 51, 100
2, 741568, Note_off_c, 0, 39, 64
2, 741568, Note_off_c, 0, 67, 64
2, 741568, Note_on_c, 0, 39, 100
2, 741696, Note_off_c, 0, 70, 64
2, 741696, Note_on_c, 0, 69, 100
2, 741760, Note_off_c, 0, 39, 64
2, 741760, Note_off_c, 0, 51, 64
2, 741824, Note_on_c, 0, 70, 100
2, 741824, Note_off_c, 0, 51, 64
2, 741824, Note_on_c, 0, 72, 100
2, 741824, Note_off_c, 0, 39, 64
2, 741824, Note_off_c, 0, 65, 64
2, 741824, Note_off_c, 0, 69, 64
2, 741824, Note_on_c, 0, 63, 100
2, 741824, Note_on_c, 0, 57, 100
2, 741824, Note_on_c, 0, 39, 100
2, 741824, Note_on_c, 0, 51, 100
2, 741952, Note_on_c, 0, 65, 100
2, 741952, Note_off_c, 0, 67, 64
2, 741952, Note_on_c, 0, 67, 100
2, 742080, Note_off_c, 0, 51, 64
2, 742080, Note_off_c, 0, 39, 64
2, 742080, Note_off_c, 0, 67, 64
2, 742080, Note_off_c, 0, 57, 64
2, 742080, Note_on_c, 0, 69, 100
2, 742080, Note_off_c, 0, 65, 64
2, 742208, Note_on_c, 0, 57, 100
2, 742208, Note_off_c, 0, 58, 64
2, 742208, Note_off_c, 0, 72, 64
2, 742208, Note_off_c, 0, 63, 64
2, 742272, Note_off_c, 0, 69, 64
2, 742272, Note_off_c, 0, 57, 64
2, 742336, Note_on_c, 0, 58, 100
2, 742336, Note_on_c, 0, 63, 100
2, 742336, Note_on_c, 0, 77, 100
2, 742336, Note_off_c, 0, 70, 64
2, 742336, Note_on_c, 0, 51, 100
2, 742336, Note_off_c, 0, 39, 64
2, 742336, Note_on_c, 0, 75, 100
2, 742336, Note_on_c, 0, 57, 100
2, 742336, Note_on_c, 0, 38, 100
2, 742336, Note_on_c, 0, 39, 100
2, 742592, Note_off_c, 0, 75, 64
2, 742592, Note_off_c, 0, 51, 64
2, 742592, Note_off_c, 0, 39, 64
2, 742592, Note_off_c, 0, 38, 64
2, 742592, Note_off_c, 0, 57, 64
2, 742592, Note_on_c, 0, 75, 100
2, 742592, Note_off_c, 0, 50, 64
2, 742592, Note_on_c, 0, 38, 100
2, 742720, Note_off_c, 0, 70, 64
2, 742720, Note_on_c, 0, 65, 100
2, 742720, Note_on_c, 0, 70, 100
2, 742848, Note_off_c, 0, 38, 64
2, 742848, Note_on_c, 0, 50, 100
2, 742848, Note_on_c, 0, 46, 100
2, 742848, Note_off_c, 0, 45, 64
2, 742848, Note_on_c, 0, 33, 100
2, 742976, Note_off_c, 0, 78, 64
2, 742976, Note_on_c, 0, 74, 100
2, 743040, Note_off_c, 0, 74, 64
2, 743040, Note_on_c, 0, 34, 100
2, 743040, Note_off_c, 0, 46, 64
2, 743104, Note_on_c, 0, 39, 100
2, 743104, Note_off_c, 0, 75, 64
2, 743104, Note_on_c, 0, 42, 100
2, 743104, Note_off_c, 0, 57, 64
2, 743104, Note_on_c, 0, 72, 100
2, 743104, Note_on_c, 0, 51, 100
2, 743104, Note_off_c, 0, 58, 64
2, 743104, Note_on_c, 0, 57, 100
2, 743232, Note_off_c, 0, 72, 64
2, 743232, Note_off_c, 0, 70, 64
2, 743360, Note_on_c, 0, 70, 100
2, 743360, Note_off_c, 0, 57, 64
2, 743360, Note_off_c, 0, 42, 64
2, 743360, Note_off_c, 0, 51, 64
2, 743360, Note_off_c, 0, 69, 64
2, 743360, Note_on_c, 0, 69, 100
2, 743360, Note_on_c, 0, 51, 100
2, 743488, Note_off_c, 0, 69, 64
2, 743488, Note_off_c, 0, 65, 64
2, 743616, Note_off_c, 0, 51, 64
2, 743616, Note_on_c, 0, 42, 100
2, 743616, Note_on_c, 0, 69, 100
2, 743616, Note_on_c, 0, 65, 100
2, 743616, Note_off_c, 0, 50, 64
2, 743616, Note_on_c, 0, 38, 100
2, 743616, Note_on_c, 0, 74, 100
2, 743744, Note_off_c, 0, 69, 64
2, 743744, Note_off_c, 0, 74, 64
2, 743872, Note_on_c, 0, 50, 100
2, 743872, Note_off_c, 0, 38, 64
2, 743872, Note_off_c, 0, 74, 64
2, 743872, Note_on_c, 0, 74, 100
2, 743872, Note_on_c, 0, 46, 100
2, 744000, Note_off_c, 0, 74, 64
2, 744000, Note_off_c, 0, 69, 64
2, 744000, Note_on_c, 0, 69, 100
2, 744064, Note_off_c, 0, 65, 64
2, 744128, Note_off_c, 0, 69, 64
2, 744128, Note_off_c, 0, 46, 64
2, 744128, Note_off_c, 0, 74, 64
2, 744128, Note_on_c, 0, 65, 100
2, 744128, Note_on_c, 0, 72, 100
2, 744128, Note_off_c, 0, 60, 64
2, 744128, Note_off_c, 0, 41, 64
2, 744128, Note_on_c, 0, 74, 100
2, 744256, Note_off_c, 0, 72, 64
2, 744256, Note_off_c, 0, 70, 64
2, 744384, Note_on_c, 0, 60, 100
2, 744384, Note_on_c, 0, 70, 100
2, 744384, Note_off_c, 0, 65, 64
2, 744384, Note_off_c, 0, 41, 64
2, 744384, Note_on_c, 0, 72, 100
2, 744384, Note_on_c, 0, 65, 100
2, 744384, Note_on_c, 0, 41, 100
2, 744384, Note_off_c, 0, 65, 64
2, 744512, Note_off_c, 0, 72, 64
2, 744512, Note_on_c, 0, 65, 100
2, 744512, Note_off_c, 0, 74, 64
2, 744640, Note_off_c, 0, 41, 64
2, 744640, Note_on_c, 0, 41, 100
2, 744640, Note_on_c, 0, 74, 100
2, 744640, Note_on_c, 0, 72, 100
2, 744640, Note_off_c, 0, 65, 64
2, 744640, Note_on_c, 0, 69, 100
2, 744640, Note_on_c, 0, 65, 100
2, 744640, Note_off_c, 0, 53, 64
2, 744640, Note_off_c, 0, 41, 64
2, 744768, Note_off_c, 0, 72, 64
2, 744768, Note_off_c, 0, 69, 64
2, 744768, Note_on_c, 0, 72, 100
2, 744768, Note_off_c, 0, 70, 64
2, 744768, Note_off_c, 0, 65, 64
2, 744768, Note_on_c, 0, 65, 100
2, 744768, Note_on_c, 0, 69, 100
2, 744896, Note_off_c, 0, 65, 64
2, 744896, Note_off_c, 0, 69, 64
2, 744896, Note_on_c, 0, 41, 100
2, 744896, Note_on_c, 0, 53, 100
2, 744896, Note_on_c, 0, 69, 100
2, 744896, Note_off_c, 0, 72, 64
2, 744896, Note_on_c, 0, 72, 100
2, 744896, Note_off_c, 0, 50, 64
2, 744896, Note_off_c, 0, 71, 64
2, 744896, Note_on_c, 0, 71, 100
2, 744896, Note_off_c, 0, 62, 64
2, 744896, Note_on_c, 0, 62, 100
2, 744896, Note_off_c, 0, 55, 64
2, 745024, Note_off_c, 0, 50, 64
2, 745024, Note_on_c, 0, 55, 100
2, 745024, Note_on_c, 0, 50, 100
2, 745024, Note_off_c, 0, 72, 64
2, 745024, Note_off_c, 0, 71, 64
2, 745152, Note_off_c, 0, 71, 64
2, 745152, Note_off_c, 0, 62, 64
2, 745152, Note_on_c, 0, 72, 100
2, 745152, Note_on_c, 0, 79, 100
2, 745152, Note_off_c, 0, 60, 64
2, 745152, Note_off_c, 0, 50, 64
2, 745152, Note_off_c, 0, 77, 64
2, 745152, Note_on_c, 0, 71, 100
2, 745152, Note_on_c, 0, 60, 100
2, 745152, Note_off_c, 0, 69, 64
2, 745152, Note_on_c, 0, 69, 100
2, 745152, Note_off_c, 0, 48, 64
2, 745280, Note_off_c, 0, 69, 64
2, 745280, Note_off_c, 0, 60, 64
2, 745280, Note_on_c, 0, 69, 100
2, 745280, Note_off_c, 0, 48, 64
2, 745280, Note_off_c, 0, 63, 64
2, 745280, Note_on_c, 0, 64, 100
2, 745280, Note_on_c, 0, 60, 100
2, 745280, Note_on_c, 0, 48, 100
2, 745408, Note_off_c, 0, 48, 64
2, 745408, Note_off_c, 0, 60, 64
2, 745408, Note_on_c, 0, 60, 100
2, 745408, Note_off_c, 0, 69, 64
2, 745408, Note_on_c, 0, 48, 100
2, 745408, Note_off_c, 0, 70, 64
2, 745408, Note_on_c, 0, 70, 100
2, 745408, Note_off_c, 0, 62, 64
2, 745408, Note_on_c, 0, 46, 100
2, 745408, Note_on_c, 0, 77, 100
2, 745408, Note_on_c, 0, 62, 100
2, 745408, Note_off_c, 0, 79, 64
2, 745536, Note_off_c, 0, 55, 64
2, 745536, Note_on_c, 0, 55, 100
2, 745664, Note_off_c, 0, 55, 64
2, 745664, Note_off_c, 0, 57, 64
2, 745664, Note_off_c, 0, 60, 64
2, 745664, Note_on_c, 0, 57, 100
2, 745664, Note_off_c, 0, 62, 64
2, 745664, Note_off_c, 0, 70, 64
2, 745664, Note_on_c, 0, 60, 100
2, 745664, Note_off_c, 0, 76, 64
2, 745664, Note_off_c, 0, 46, 64
2, 745664, Note_on_c, 0, 70, 100
2, 745664, Note_off_c, 0, 60, 64
2, 745664, Note_on_c, 0, 69, 100
2, 745664, Note_off_c, 0, 36, 64
2, 745792, Note_off_c, 0, 69, 64
2, 745792, Note_off_c, 0, 60, 64
2, 745792, Note_on_c, 0, 60, 100
2, 745792, Note_off_c, 0, 57, 64
2, 745792, Note_on_c, 0, 55, 100
2, 745792, Note_off_c, 0, 74, 64
2, 745792, Note_on_c, 0, 74, 100
2, 745792, Note_off_c, 0, 81, 64
2, 745920, Note_on_c, 0, 36, 100
2, 745920, Note_off_c, 0, 60, 64
2, 745920, Note_on_c, 0, 76, 100
2, 745920, Note_off_c, 0, 55, 64
2, 745920, Note_on_c, 0, 81, 100
2, 745920, Note_on_c, 0, 60, 100
2, 745920, Note_off_c, 0, 74, 64
2, 745920, Note_off_c, 0, 60, 64
2, 745920, Note_on_c, 0, 57, 100
2, 745920, Note_off_c, 0, 53, 64
2, 745920, Note_on_c, 0, 53, 100
2, 745920, Note_off_c, 0, 52, 64
2, 745920, Note_on_c, 0, 50, 100
2, 746048, Note_off_c, 0, 50, 64
2, 746048, Note_off_c, 0, 52, 64
2, 746048, Note_on_c, 0, 52, 100
2, 746176, Note_on_c, 0, 60, 100
2, 746176, Note_off_c, 0, 52, 64
2, 746176, Note_on_c, 0, 52, 100
2, 746176, Note_off_c, 0, 76, 64
2, 746176, Note_on_c, 0, 69, 100
2, 746176, Note_off_c, 0, 53, 64
2, 746176, Note_off_c, 0, 48, 64
2, 746176, Note_on_c, 0, 48, 100
2, 746176, Note_off_c, 0, 81, 64
2, 746304, Note_off_c, 0, 52, 64
2, 746304, Note_on_c, 0, 55, 100
2, 746304, Note_off_c, 0, 60, 64
2, 746304, Note_on_c, 0, 76, 100
2, 746304, Note_off_c, 0, 43, 64
2, 746432, Note_on_c, 0, 79, 100
2, 746432, Note_off_c, 0, 57, 64
2, 746432, Note_off_c, 0, 48, 64
2, 746432, Note_off_c, 0, 76, 64
2, 746432, Note_on_c, 0, 57, 100
2, 746432, Note_on_c, 0, 40, 100
2, 746432, Note_off_c, 0, 41, 64
2, 746432, Note_on_c, 0, 60, 100
2, 746432, Note_off_c, 0, 55, 64
2, 746432, Note_on_c, 0, 43, 100
2, 746496, Note_off_c, 0, 69, 64
2, 746496, Note_off_c, 0, 67, 64
2, 746496, Note_on_c, 0, 67, 100
2, 746560, Note_on_c, 0, 81, 100
2, 746560, Note_on_c, 0, 76, 100
2, 746560, Note_on_c, 0, 88, 100
2, 746560, Note_off_c, 0, 67, 64
2, 746624, Note_off_c, 0, 76, 64
2, 746624, Note_off_c, 0, 72, 64
2, 746624, Note_on_c, 0, 69, 100
2, 746688, Note_off_c, 0, 69, 64
2, 746688, Note_off_c, 0, 79, 64
2, 746688, Note_on_c, 0, 79, 100
2, 746688, Note_off_c, 0, 71, 64
2, 746688, Note_off_c, 0, 43, 64
2, 746688, Note_on_c, 0, 74, 100
2, 746688, Note_on_c, 0, 72, 100
2, 746688, Note_on_c, 0, 71, 100
2, 746688, Note_off_c, 0, 55, 64
2, 746688, Note_on_c, 0, 55, 100
2, 746688, Note_on_c, 0, 43, 100
2, 746688, Note_on_c, 0, 62, 100
2, 746688, Note_off_c, 0, 71, 64
2, 746688, Note_off_c, 0, 64, 64
2, 746752, Note_off_c, 0, 74, 64
2, 746752, Note_off_c, 0, 79, 64
2, 746816, Note_on_c, 0, 71, 100
2, 746816, Note_on_c, 0, 64, 100
2, 746816, Note_off_c, 0, 62, 64
2, 746816, Note_on_c, 0, 67, 100
2, 746944, Note_off_c, 0, 67, 64
2, 746944, Note_off_c, 0, 64, 64
2, 746944, Note_on_c, 0, 64, 100
2, 746944, Note_off_c, 0, 43, 64
2, 746944, Note_off_c, 0, 72, 64
2, 746944, Note_on_c, 0, 72, 100
2, 746944, Note_on_c, 0, 76, 100
2, 746944, Note_on_c, 0, 43, 100
2, 746944, Note_on_c, 0, 79, 100
2, 747072, Note_off_c, 0, 79, 64
2, 747072, Note_off_c, 0, 76, 64
2, 747072, Note_on_c, 0, 79, 100
2, 747200, Note_off_c, 0, 71, 64
2, 747200, Note_off_c, 0, 43, 64
2, 747200, Note_off_c, 0, 79, 64
2, 747200, Note_off_c, 0, 67, 64
2, 747200, Note_on_c, 0, 69, 100
2, 747200, Note_off_c, 0, 76, 64
2, 747200, Note_on_c, 0, 67, 100
2, 747200, Note_off_c, 0, 64, 64
2, 747200, Note_on_c, 0, 43, 100
2, 747200, Note_off_c, 0, 43, 64
2, 747200, Note_on_c, 0, 74, 100
2, 747200, Note_on_c, 0, 76, 100
2, 747456, Note_off_c, 0, 67, 64
2, 747456, Note_off_c, 0, 74, 64
2, 747456, Note_off_c, 0, 40, 64
2, 747456, Note_on_c, 0, 64, 100
2, 747456, Note_off_c, 0, 64, 64
2, 747456, Note_on_c, 0, 64, 100
2, 747456, Note_off_c, 0, 76, 64
2, 747456, Note_on_c, 0, 79, 100
2, 747456, Note_off_c, 0, 72, 64
2, 747456, Note_on_c, 0, 72, 100
2, 747584, Note_on_c, 0, 76, 100
2, 747712, Note_off_c, 0, 64, 64
2, 747712, Note_off_c, 0, 33, 64
2, 747712, Note_off_c, 0, 72, 64
2, 747712, Note_on_c, 0, 72, 100
2, 747712, Note_off_c, 0, 69, 64
2, 747712, Note_off_c, 0, 48, 64
2, 747712, Note_off_c, 0, 79, 64
2, 747712, Note_on_c, 0, 48, 100
2, 747840, Note_on_c, 0, 69, 100
2, 747968, Note_off_c, 0, 48, 64
2, 747968, Note_off_c, 0, 71, 64
2, 747968, Note_on_c, 0, 71, 100
2, 747968, Note_off_c, 0, 79, 64
2, 747968, Note_off_c, 0, 47, 64
2, 747968, Note_on_c, 0, 35, 100
2, 747968, Note_on_c, 0, 79, 100
2, 747968, Note_on_c, 0, 47, 100
2, 748032, Note_off_c, 0, 71, 64
2, 748032, Note_off_c, 0, 72, 64
2, 748096, Note_on_c, 0, 72, 100
2, 748096, Note_off_c, 0, 69, 64
2, 748160, Note_off_c, 0, 81, 64
2, 748160, Note_on_c, 0, 69, 100
2, 748224, Note_off_c, 0, 72, 64
2, 748224, Note_off_c, 0, 35, 64
2, 748224, Note_off_c, 0, 47, 64
2, 748224, Note_on_c, 0, 81, 100
2, 748224, Note_off_c, 0, 81, 64
2, 748224, Note_on_c, 0, 72, 100
2, 748224, Note_on_c, 0, 48, 100
2, 748224, Note_on_c, 0, 33, 100
2, 748224, Note_on_c, 0, 81, 100
2, 748352, Note_off_c, 0, 72, 64
2, 748352, Note_off_c, 0, 76, 64
2, 748480, Note_off_c, 0, 48, 64
2, 748480, Note_off_c, 0, 36, 64
2, 748480, Note_off_c, 0, 69, 64
2, 748480, Note_on_c, 0, 69, 100
2, 748480, Note_on_c, 0, 76, 100
2, 748480, Note_off_c, 0, 52, 64
2, 748480, Note_on_c, 0, 52, 100
2, 748480, Note_off_c, 0, 81, 64
2, 748480, Note_on_c, 0, 81, 100
2, 748480, Note_off_c, 0, 78, 64
2, 748480, Note_on_c, 0, 78, 100
2, 748608, Note_off_c, 0, 78, 64
2, 748608, Note_off_c, 0, 76, 64
2, 748608, Note_on_c, 0, 76, 100
2, 748736, Note_off_c, 0, 52, 64
2, 748736, Note_off_c, 0, 76, 64
2, 748736, Note_on_c, 0, 78, 100
2, 748736, Note_on_c, 0, 86, 100
2, 748736, Note_on_c, 0, 76, 100
2, 748736, Note_off_c, 0, 77, 64
2, 748736, Note_off_c, 0, 57, 64
2, 748864, Note_on_c, 0, 77, 100
2, 748992, Note_on_c, 0, 57, 100
2, 748992, Note_on_c, 0, 45, 100
2, 748992, Note_off_c, 0, 76, 64
2, 748992, Note_off_c, 0, 81, 64
2, 748992, Note_on_c, 0, 65, 100
2, 749120, Note_off_c, 0, 79, 64
2, 749120, Note_off_c, 0, 77, 64
2, 749120, Note_off_c, 0, 69, 64
2, 749120, Note_on_c, 0, 69, 100
2, 749120, Note_off_c, 0, 69, 64
2, 749184, Note_on_c, 0, 77, 100
2, 749248, Note_off_c, 0, 45, 64
2, 749248, Note_on_c, 0, 69, 100
2, 749248, Note_off_c, 0, 65, 64
2, 749248, Note_off_c, 0, 77, 64
2, 749248, Note_on_c, 0, 77, 100
2, 749248, Note_off_c, 0, 53, 64
2, 749248, Note_on_c, 0, 62, 100
2, 749248, Note_on_c, 0, 41, 100
2, 749248, Note_off_c, 0, 60, 64
2, 749248, Note_on_c, 0, 74, 100
2, 749248, Note_on_c, 0, 53, 100
2, 749376, Note_off_c, 0, 62, 64
2, 749376, Note_off_c, 0, 74, 64
2, 749376, Note_on_c, 0, 60, 100
2, 749376, Note_on_c, 0, 74, 100
2, 749504, Note_on_c, 0, 65, 100
2, 749504, Note_off_c, 0, 41, 64
2, 749504, Note_off_c, 0, 53, 64
2, 749504, Note_on_c, 0, 76, 100
2, 749504, Note_off_c, 0, 76, 64
2, 749504, Note_off_c, 0, 52, 64
2, 749504, Note_on_c, 0, 52, 100
2, 749504, Note_on_c, 0, 40, 100
2, 749504, Note_off_c, 0, 67, 64
2, 749504, Note_on_c, 0, 67, 100
2, 749504, Note_off_c, 0, 64, 64
2, 749504, Note_on_c, 0, 64, 100
2, 749504, Note_off_c, 0, 55, 64
2, 749504, Note_on_c, 0, 55, 100
2, 749504, Note_off_c, 0, 70, 64
2, 749504, Note_on_c, 0, 76, 100
2, 749504, Note_off_c, 0, 60, 64
2, 749760, Note_off_c, 0, 76, 64
2, 749760, Note_off_c, 0, 52, 64
2, 749760, Note_on_c, 0, 52, 100
2, 749760, Note_off_c, 0, 40, 64
2, 749760, Note_off_c, 0, 67, 64
2, 749760, Note_off_c, 0, 74, 64
2, 749760, Note_off_c, 0, 64, 64
2, 749760, Note_on_c, 0, 48, 100
2, 749760, Note_on_c, 0, 72, 100
2, 749760, Note_off_c, 0, 55, 64
2, 749760, Note_on_c, 0, 40, 100
2, 749760, Note_on_c, 0, 67, 100
2, 749888, Note_on_c, 0, 60, 100
2, 749888, Note_off_c, 0, 72, 64
2, 750016, Note_off_c, 0, 40, 64
2, 750016, Note_off_c, 0, 67, 64
2, 750016, Note_off_c, 0, 72, 64
2, 750016, Note_off_c, 0, 52, 64
2, 750016, Note_off_c, 0, 74, 64
2, 750016, Note_off_c, 0, 43, 64
2, 750016, Note_on_c, 0, 74, 100
2, 750016, Note_off_c, 0, 65, 64
2, 750016, Note_on_c, 0, 72, 100
2, 750016, Note_on_c, 0, 43, 100
2, 750144, Note_off_c, 0, 65, 64
2, 750144, Note_on_c, 0, 65, 100
2, 750144, Note_off_c, 0, 69, 64
2, 750144, Note_on_c, 0, 69, 100
2, 750208, Note_off_c, 0, 69, 64
2, 750208, Note_on_c, 0, 70, 100
2, 750272, Note_off_c, 0, 43, 64
2, 750272, Note_off_c, 0, 70, 64
2, 750272, Note_off_c, 0, 72, 64
2, 750272, Note_on_c, 0, 64, 100
2, 750272, Note_on_c, 0, 36, 100
2, 750272, Note_on_c, 0, 72, 100
2, 750272, Note_off_c, 0, 71, 64
2, 750272, Note_off_c, 0, 62, 64
2, 750272, Note_on_c, 0, 71, 100
2, 750272, Note_off_c, 0, 65, 64
2, 750272, Note_on_c, 0, 45, 100
2, 750272, Note_off_c, 0, 74, 64
2, 750272, Note_on_c, 0, 55, 100
2, 750272, Note_on_c, 0, 43, 100
2, 750272, Note_on_c, 0, 62, 100
2, 750400, Note_on_c, 0, 74, 100
2, 750400, Note_off_c, 0, 62, 64
2, 750400, Note_off_c, 0, 72, 64
2, 750400, Note_on_c, 0, 72, 100
2, 750400, Note_off_c, 0, 72, 64
2, 750528, Note_off_c, 0, 55, 64
2, 750528, Note_on_c, 0, 72, 100
2, 750528, Note_off_c, 0, 43, 64
2, 750528, Note_off_c, 0, 74, 64
2, 750528, Note_on_c, 0, 62, 100
2, 750528, Note_on_c, 0, 65, 100
2, 750528, Note_off_c, 0, 38, 64
2, 750528, Note_on_c, 0, 38, 100
2, 750528, Note_on_c, 0, 50, 100
2, 750656, Note_off_c, 0, 62, 64
2, 750656, Note_off_c, 0, 72, 64
2, 750656, Note_on_c, 0, 72, 100
2, 750784, Note_off_c, 0, 38, 64
2, 750784, Note_off_c, 0, 74, 64
2, 750784, Note_off_c, 0, 50, 64
2, 750784, Note_off_c, 0, 72, 64
2, 750784, Note_off_c, 0, 65, 64
2, 750784, Note_on_c, 0, 41, 100
2, 750784, Note_on_c, 0, 74, 100
2, 750784, Note_on_c, 0, 50, 100
2, 750784, Note_off_c, 0, 77, 64
2, 750912, Note_off_c, 0, 74, 64
2, 750912, Note_on_c, 0, 65, 100
2, 750912, Note_off_c, 0, 72, 64
2, 750912, Note_on_c, 0, 72, 100
2, 751040, Note_on_c, 0, 38, 100
2, 751040, Note_off_c, 0, 50, 64
2, 751040, Note_off_c, 0, 72, 64
2, 751040, Note_off_c, 0, 36, 64
2, 751040, Note_on_c, 0, 84, 100
2, 751040, Note_off_c, 0, 64, 64
2, 751040, Note_on_c, 0, 62, 100
2, 751040, Note_off_c, 0, 82, 64
2, 751040, Note_on_c, 0, 52, 100
2, 751040, Note_off_c, 0, 86, 64
2, 751040, Note_on_c, 0, 82, 100
2, 751168, Note_off_c, 0, 70, 64
2, 751168, Note_on_c, 0, 70, 100
2, 751168, Note_on_c, 0, 64, 100
2, 751296, Note_off_c, 0, 64, 64
2, 751296, Note_off_c, 0, 52, 64
2, 751296, Note_off_c, 0, 62, 64
2, 751296, Note_off_c, 0, 60, 64
2, 751296, Note_off_c, 0, 70, 64
2, 751296, Note_off_c, 0, 82, 64
2, 751296, Note_on_c, 0, 76, 100
2, 751296, Note_on_c, 0, 70, 100
2, 751296, Note_on_c, 0, 60, 100
2, 751296, Note_on_c, 0, 69, 100
2, 751296, Note_off_c, 0, 73, 64
2, 751296, Note_on_c, 0, 40, 100
2, 751296, Note_off_c, 0, 57, 64
2, 751424, Note_off_c, 0, 60, 64
2, 751424, Note_off_c, 0, 61, 64
2, 751552, Note_off_c, 0, 69, 64
2, 751552, Note_on_c, 0, 73, 100
2, 751552, Note_on_c, 0, 60, 100
2, 751552, Note_on_c, 0, 57, 100
2, 751552, Note_on_c, 0, 77, 100
2, 751552, Note_off_c, 0, 76, 64
2, 751552, Note_on_c, 0, 76, 100
2, 751552, Note_on_c, 0, 69, 100
2, 751552, Note_on_c, 0, 64, 100
2, 751552, Note_off_c, 0, 40, 64
2, 751552, Note_on_c, 0, 81, 100
2, 751552, Note_off_c, 0, 41, 64
2, 751680, Note_off_c, 0, 64, 64
2, 751680, Note_off_c, 0, 69, 64
2, 751744, Note_off_c, 0, 81, 64
2, 751744, Note_off_c, 0, 76, 64
2, 751744, Note_on_c, 0, 41, 100
2, 751808, Note_off_c, 0, 73, 64
2, 751808, Note_off_c, 0, 79, 64
2, 751808, Note_on_c, 0, 82, 100
2, 751808, Note_on_c, 0, 79, 100
2, 751808, Note_off_c, 0, 55, 64
2, 751808, Note_on_c, 0, 43, 100
2, 751808, Note_on_c, 0, 64, 100
2, 751808, Note_on_c, 0, 55, 100
2, 751936, Note_off_c, 0, 82, 64
2, 751936, Note_on_c, 0, 76, 100
2, 751936, Note_off_c, 0, 73, 64
2, 751936, Note_on_c, 0, 82, 100
2, 751936, Note_on_c, 0, 73, 100
2, 752064, Note_off_c, 0, 82, 64
2, 752064, Note_off_c, 0, 64, 64
2, 752064, Note_off_c, 0, 43, 64
2, 752064, Note_off_c, 0, 76, 64
2, 752064, Note_off_c, 0, 73, 64
2, 752064, Note_on_c, 0, 73, 100
2, 752064, Note_on_c, 0, 69, 100
2, 752064, Note_off_c, 0, 45, 64
2, 752064, Note_off_c, 0, 33, 64
2, 752064, Note_on_c, 0, 58, 100
2, 752064, Note_on_c, 0, 45, 100
2, 752320, Note_on_c, 0, 67, 100
2, 752320, Note_off_c, 0, 73, 64
2, 752320, Note_off_c, 0, 58, 64
2, 752320, Note_off_c, 0, 57, 64
2, 752320, Note_off_c, 0, 33, 64
2, 752320, Note_off_c, 0, 45, 64
2, 752320, Note_on_c, 0, 57, 100
2, 752320, Note_on_c, 0, 45, 100
2, 752320, Note_on_c, 0, 33, 100
2, 752320, Note_off_c, 0, 79, 64
2, 752320, Note_on_c, 0, 46, 100
2, 752448, Note_on_c, 0, 79, 100
2, 752448, Note_on_c, 0, 76, 100
2, 752448, Note_off_c, 0, 34, 64
2, 752448, Note_on_c, 0, 58, 100
2, 752576, Note_off_c, 0, 58, 64
2, 752576, Note_off_c, 0, 33, 64
2, 752576, Note_off_c, 0, 76, 64
2, 752576, Note_off_c, 0, 46, 64
2, 752576, Note_off_c, 0, 67, 64
2, 752576, Note_off_c, 0, 65, 64
2, 752576, Note_off_c, 0, 57, 64
2, 752704, Note_on_c, 0, 67, 100
2, 752704, Note_on_c, 0, 65, 100
2, 752704, Note_off_c, 0, 60, 64
2, 752704, Note_on_c, 0, 64, 100
2, 752704, Note_on_c, 0, 60, 100
2, 752704, Note_off_c, 0, 69, 64
2, 752704, Note_on_c, 0, 69, 100
2, 752832, Note_off_c, 0, 74, 64
2, 752832, Note_on_c, 0, 74, 100
2, 752832, Note_off_c, 0, 69, 64
2, 752832, Note_off_c, 0, 64, 64
2, 752832, Note_on_c, 0, 58, 100
2, 752832, Note_on_c, 0, 57, 100
2, 752832, Note_off_c, 0, 53, 64
2, 752832, Note_off_c, 0, 41, 64
2, 752832, Note_on_c, 0, 69, 100
2, 752832, Note_on_c, 0, 53, 100
2, 752960, Note_off_c, 0, 69, 64
2, 752960, Note_on_c, 0, 72, 100
2, 752960, Note_on_c, 0, 64, 100
2, 753088, Note_off_c, 0, 64, 64
2, 753088, Note_off_c, 0, 70, 64
2, 753088, Note_off_c, 0, 72, 64
2, 753088, Note_on_c, 0, 69, 100
2, 753152, Note_on_c, 0, 70, 100
2, 753216, Note_off_c, 0, 70, 64
2, 753344, Note_off_c, 0, 53, 64
2, 753344, Note_on_c, 0, 41, 100
2, 753344, Note_on_c, 0, 53, 100
2, 753344, Note_on_c, 0, 72, 100
2, 753344, Note_off_c, 0, 69, 64
2, 753344, Note_off_c, 0, 57, 64
2, 753472, Note_on_c, 0, 70, 100
2, 753472, Note_off_c, 0, 72, 64
2, 753600, Note_on_c, 0, 72, 100
2, 753600, Note_off_c, 0, 69, 64
2, 753600, Note_on_c, 0, 57, 100
2, 753600, Note_on_c, 0, 69, 100
2, 753600, Note_off_c, 0, 60, 64
2, 753600, Note_off_c, 0, 70, 64
2, 753728, Note_on_c, 0, 70, 100
2, 753728, Note_on_c, 0, 60, 100
2, 753728, Note_off_c, 0, 69, 64
2, 753728, Note_off_c, 0, 72, 64
2, 753856, Note_off_c, 0, 60, 64
2, 753856, Note_off_c, 0, 53, 64
2, 753856, Note_off_c, 0, 70, 64
2, 753856, Note_on_c, 0, 69, 100
2, 753856, Note_off_c, 0, 55, 64
2, 753856, Note_off_c, 0, 48, 64
2, 753856, Note_on_c, 0, 60, 100
2, 753856, Note_off_c, 0, 67, 64
2, 753984, Note_off_c, 0, 72, 64
2, 753984, Note_off_c, 0, 70, 64
2, 753984, Note_on_c, 0, 64, 100
2, 753984, Note_on_c, 0, 55, 100
2, 753984, Note_off_c, 0, 57, 64
2, 753984, Note_on_c, 0, 70, 100
2, 753984, Note_on_c, 0, 67, 100
2, 753984, Note_on_c, 0, 72, 100
2, 753984, Note_off_c, 0, 58, 64
2, 754112, Note_off_c, 0, 60, 64
2, 754112, Note_on_c, 0, 52, 100
2, 754112, Note_on_c, 0, 48, 100
2, 754112, Note_off_c, 0, 70, 64
2, 754112, Note_off_c, 0, 57, 64
2, 754112, Note_on_c, 0, 57, 100
2, 754112, Note_off_c, 0, 55, 64
2, 754112, Note_off_c, 0, 48, 64
2, 754112, Note_on_c, 0, 48, 100
2, 754112, Note_on_c, 0, 36, 100
2, 754112, Note_off_c, 0, 72, 64
2, 754176, Note_on_c, 0, 72, 100
2, 754176, Note_off_c, 0, 72, 64
2, 754176, Note_on_c, 0, 72, 100
2, 754304, Note_off_c, 0, 72, 64
2, 754304, Note_off_c, 0, 64, 64
2, 754304, Note_on_c, 0, 64, 100
2, 754368, Note_off_c, 0, 57, 64
2, 754368, Note_on_c, 0, 57, 100
2, 754368, Note_on_c, 0, 55, 100
2, 754368, Note_off_c, 0, 48, 64
2, 754368, Note_off_c, 0, 36, 64
2, 754368, Note_off_c, 0, 57, 64
2, 754368, Note_off_c, 0, 72, 64
2, 754368, Note_on_c, 0, 72, 100
2, 754368, Note_on_c, 0, 58, 100
2, 754368, Note_off_c, 0, 38, 64
2, 754368, Note_on_c, 0, 62, 100
2, 754368, Note_on_c, 0, 53, 100
2, 754432, Note_off_c, 0, 62, 64
2, 754496, Note_off_c, 0, 70, 64
2, 754496, Note_on_c, 0, 70, 100
2, 754496, Note_off_c, 0, 67, 64
2, 754496, Note_on_c, 0, 67, 100
2, 754624, Note_off_c, 0, 67, 64
2, 754624, Note_off_c, 0, 58, 64
2, 754624, Note_on_c, 0, 57, 100
2, 754624, Note_off_c, 0, 57, 64
2, 754624, Note_off_c, 0, 65, 64
2, 754624, Note_on_c, 0, 57, 100
2, 754624, Note_off_c, 0, 53, 64
2, 754624, Note_off_c, 0, 72, 64
2, 754624, Note_on_c, 0, 65, 100
2, 754624, Note_on_c, 0, 38, 100
2, 754624, Note_off_c, 0, 74, 64
2, 754624, Note_off_c, 0, 70, 64
2, 754624, Note_off_c, 0, 55, 64
2, 754624, Note_on_c, 0, 67, 100
2, 754624, Note_off_c, 0, 64, 64
2, 754624, Note_off_c, 0, 52, 64
2, 754624, Note_on_c, 0, 52, 100
2, 754624, Note_on_c, 0, 40, 100
2, 754688, Note_off_c, 0, 69, 64
2, 754688, Note_on_c, 0, 69, 100
2, 754752, Note_on_c, 0, 70, 100
2, 754752, Note_off_c, 0, 67, 64
2, 754752, Note_on_c, 0, 74, 100
2, 754752, Note_off_c, 0, 65, 64
2, 754752, Note_on_c, 0, 64, 100
2, 754816, Note_off_c, 0, 69, 64
2, 754816, Note_off_c, 0, 40, 64
2, 754816, Note_on_c, 0, 65, 100
2, 754816, Note_off_c, 0, 52, 64
2, 754816, Note_on_c, 0, 55, 100
2, 754880, Note_on_c, 0, 67, 100
2, 754880, Note_off_c, 0, 62, 64
2, 754880, Note_off_c, 0, 65, 64
2, 754880, Note_off_c, 0, 69, 64
2, 754880, Note_off_c, 0, 74, 64
2, 754880, Note_on_c, 0, 74, 100
2, 754880, Note_off_c, 0, 53, 64
2, 754880, Note_on_c, 0, 53, 100
2, 754880, Note_on_c, 0, 62, 100
2, 754880, Note_off_c, 0, 41, 64
2, 754880, Note_on_c, 0, 69, 100
2, 754944, Note_off_c, 0, 62, 64
2, 754944, Note_on_c, 0, 65, 100
2, 755008, Note_off_c, 0, 69, 64
2, 755008, Note_off_c, 0, 74, 64
2, 755008, Note_on_c, 0, 74, 100
2, 755072, Note_on_c, 0, 69, 100
2, 755072, Note_off_c, 0, 53, 64
2, 755072, Note_on_c, 0, 41, 100
2, 755136, Note_off_c, 0, 74, 64
2, 755136, Note_off_c, 0, 52, 64
2, 755136, Note_off_c, 0, 79, 64
2, 755136, Note_off_c, 0, 40, 64
2, 755136, Note_off_c, 0, 67, 64
2, 755136, Note_on_c, 0, 59, 100
2, 755136, Note_off_c, 0, 55, 64
2, 755136, Note_on_c, 0, 62, 100
2, 755136, Note_on_c, 0, 67, 100
2, 755136, Note_on_c, 0, 52, 100
2, 755136, Note_on_c, 0, 40, 100
2, 755264, Note_on_c, 0, 79, 100
2, 755264, Note_off_c, 0, 81, 64
2, 755264, Note_on_c, 0, 81, 100
2, 755328, Note_on_c, 0, 55, 100
2, 755392, Note_off_c, 0, 81, 64
2, 755392, Note_off_c, 0, 67, 64
2, 755392, Note_off_c, 0, 40, 64
2, 755392, Note_off_c, 0, 52, 64
2, 755392, Note_off_c, 0, 59, 64
2, 755392, Note_on_c, 0, 60, 100
2, 755392, Note_off_c, 0, 79, 64
2, 755392, Note_on_c, 0, 79, 100
2, 755392, Note_on_c, 0, 52, 100
2, 755392, Note_off_c, 0, 52, 64
2, 755648, Note_off_c, 0, 60, 64
2, 755648, Note_on_c, 0, 52, 100
2, 755648, Note_off_c, 0, 55, 64
2, 755648, Note_off_c, 0, 79, 64
2, 755648, Note_on_c, 0, 81, 100
2, 755648, Note_on_c, 0, 60, 100
2, 755648, Note_off_c, 0, 38, 64
2, 755648, Note_off_c, 0, 62, 64
2, 755648, Note_off_c, 0, 60, 64
2, 755648, Note_off_c, 0, 45, 64
2, 755648, Note_on_c, 0, 55, 100
2, 755904, Note_off_c, 0, 81, 64
2, 755904, Note_off_c, 0, 60, 64
2, 755904, Note_on_c, 0, 62, 100
2, 755904, Note_off_c, 0, 84, 64
2, 755904, Note_off_c, 0, 83, 64
2, 755904, Note_on_c, 0, 67, 100
2, 755904, Note_on_c, 0, 60, 100
2, 756032, Note_off_c, 0, 67, 64
2, 756032, Note_off_c, 0, 60, 64
2, 756160, Note_off_c, 0, 86, 64
2, 756160, Note_on_c, 0, 86, 100
2, 756160, Note_on_c, 0, 67, 100
2, 756160, Note_off_c, 0, 74, 64
2, 756160, Note_on_c, 0, 74, 100
2, 756288, Note_off_c, 0, 86, 64
2, 756416, Note_off_c, 0, 74, 64
2, 756416, Note_off_c, 0, 67, 64
2, 756416, Note_on_c, 0, 59, 100
2, 756416, Note_on_c, 0, 45, 100
2, 756608, Note_off_c, 0, 45, 64
2, 756672, Note_off_c, 0, 69, 64
2, 756672, Note_on_c, 0, 45, 100
2, 756672, Note_on_c, 0, 47, 100
2, 756672, Note_off_c, 0, 52, 64
2, 756800, Note_on_c, 0, 69, 100
2, 756800, Note_off_c, 0, 65, 64
2, 756928, Note_on_c, 0, 83, 100
2, 756928, Note_on_c, 0, 65, 100
2, 756928, Note_on_c, 0, 81, 100
2, 756992, Note_off_c, 0, 62, 64
2, 756992, Note_on_c, 0, 52, 100
2, 756992, Note_on_c, 0, 40, 100
2, 757056, Note_off_c, 0, 64, 64
2, 757056, Note_on_c, 0, 64, 100
2, 757120, Note_on_c, 0, 62, 100
2, 757184, Note_off_c, 0, 81, 64
2, 757184, Note_on_c, 0, 74, 100
2, 757184, Note_off_c, 0, 65, 64
2, 757184, Note_on_c, 0, 65, 100
2, 757184, Note_off_c, 0, 57, 64
2, 757184, Note_off_c, 0, 41, 64
2, 757184, Note_on_c, 0, 57, 100
2, 757184, Note_on_c, 0, 67, 100
2, 757184, Note_on_c, 0, 53, 100
2, 757312, Note_off_c, 0, 67, 64
2, 757312, Note_off_c, 0, 71, 64
2, 757440, Note_on_c, 0, 71, 100
2, 757440, Note_off_c, 0, 74, 64
2, 757440, Note_on_c, 0, 72, 100
2, 757504, Note_off_c, 0, 65, 64
2, 757504, Note_off_c, 0, 53, 64
2, 757504, Note_on_c, 0, 41, 100
2, 757568, Note_off_c, 0, 72, 64
2, 757632, Note_on_c, 0, 65, 100
2, 757632, Note_off_c, 0, 71, 64
2, 757632, Note_on_c, 0, 71, 100
2, 757696, Note_off_c, 0, 65, 64
2, 757696, Note_off_c, 0, 53, 64
2, 757696, Note_on_c, 0, 53, 100
2, 757696, Note_off_c, 0, 71, 64
2, 757696, Note_off_c, 0, 69, 64
2, 757760, Note_on_c, 0, 69, 100
2, 757824, Note_on_c, 0, 71, 100
2, 757888, Note_off_c, 0, 71, 64
2, 757888, Note_on_c, 0, 74, 100
2, 757952, Note_on_c, 0, 71, 100
2, 757952, Note_off_c, 0, 74, 64
2, 758080, Note_off_c, 0, 71, 64
2, 758080, Note_off_c, 0, 69, 64
2, 758080, Note_on_c, 0, 69, 100
2, 758144, Note_on_c, 0, 67, 100
2, 758208, Note_off_c, 0, 57, 64
2, 758208, Note_on_c, 0, 72, 100
2, 758208, Note_on_c, 0, 73, 100
2, 758208, Note_on_c, 0, 61, 100
2, 758208, Note_off_c, 0, 69, 64
2, 758208, Note_on_c, 0, 69, 100
2, 758336, Note_on_c, 0, 57, 100
2, 758336, Note_off_c, 0, 59, 64
2, 758464, Note_off_c, 0, 61, 64
2, 758464, Note_off_c, 0, 53, 64
2, 758464, Note_off_c, 0, 74, 64
2, 758464, Note_on_c, 0, 74, 100
2, 758464, Note_off_c, 0, 69, 64
2, 758592, Note_on_c, 0, 53, 100
2, 758592, Note_on_c, 0, 59, 100
2, 758592, Note_on_c, 0, 50, 100
2, 758592, Note_off_c, 0, 62, 64
2, 758720, Note_off_c, 0, 50, 64
2, 758720, Note_off_c, 0, 59, 64
2, 758720, Note_on_c, 0, 62, 100
2, 758720, Note_off_c, 0, 57, 64
2, 758784, Note_on_c, 0, 57, 100
2, 758784, Note_off_c, 0, 55, 64
2, 758848, Note_on_c, 0, 55, 100
2, 758848, Note_off_c, 0, 57, 64
2, 758848, Note_on_c, 0, 57, 100
2, 758976, Note_off_c, 0, 57, 64
2, 758976, Note_off_c, 0, 55, 64
2, 758976, Note_on_c, 0, 55, 100
2, 759104, Note_on_c, 0, 59, 100
2, 759104, Note_off_c, 0, 55, 64
2, 759232, Note_off_c, 0, 59, 64
2, 759232, Note_on_c, 0, 61, 100
2, 759232, Note_off_c, 0, 74, 64
2, 759232, Note_off_c, 0, 77, 64
2, 759360, Note_on_c, 0, 77, 100
2, 759360, Note_on_c, 0, 81, 100
2, 759424, Note_off_c, 0, 61, 64
2, 759488, Note_off_c, 0, 81, 64
2, 759488, Note_on_c, 0, 55, 100
2, 759488, Note_off_c, 0, 76, 64
2, 759488, Note_on_c, 0, 76, 100
2, 759616, Note_off_c, 0, 76, 64
2, 759616, Note_off_c, 0, 74, 64
2, 759616, Note_on_c, 0, 74, 100
2, 759744, Note_off_c, 0, 74, 64
2, 759744, Note_off_c, 0, 76, 64
2, 759744, Note_on_c, 0, 76, 100
2, 759808, Note_off_c, 0, 55, 64
2, 759808, Note_off_c, 0, 57, 64
2, 759808, Note_on_c, 0, 57, 100
2, 759872, Note_off_c, 0, 76, 64
2, 759872, Note_off_c, 0, 73, 64
2, 759872, Note_on_c, 0, 73, 100
2, 760064, Note_off_c, 0, 57, 64
2, 760064, Note_off_c, 0, 61, 64
2, 760064, Note_on_c, 0, 61, 100
2, 760192, Note_off_c, 0, 73, 64
2, 760256, Note_off_c, 0, 64, 64
2, 760256, Note_on_c, 0, 64, 100
2, 760384, Note_off_c, 0, 64, 64
2, 760384, Note_off_c, 0, 61, 64
2, 760384, Note_on_c, 0, 61, 100
2, 760512, Note_off_c, 0, 61, 64
2, 760512, Note_off_c, 0, 62, 64
2, 760512, Note_on_c, 0, 62, 100
2, 760640, Note_off_c, 0, 62, 64
2, 760640, Note_off_c, 0, 61, 64
2, 760640, Note_on_c, 0, 61, 100
2, 760768, Note_off_c, 0, 61, 64
2, 760768, Note_off_c, 0, 62, 64
2, 760768, Note_on_c, 0, 62, 100
2, 760896, Note_off_c, 0, 62, 64
2, 760896, Note_off_c, 0, 64, 64
2, 760896, Note_on_c, 0, 64, 100
2, 761024, Note_off_c, 0, 64, 64
2, 761024, Note_off_c, 0, 62, 64
2, 761024, Note_on_c, 0, 62, 100
2, 761152, Note_off_c, 0, 62, 64
2, 761152, Note_off_c, 0, 64, 64
2, 761152, Note_on_c, 0, 64, 100
2, 761280, Note_off_c, 0, 64, 64
2, 761280, Note_off_c, 0, 65, 64
2, 761280, Note_on_c, 0, 65, 100
2, 761408, Note_off_c, 0, 65, 64
2, 761408, Note_off_c, 0, 69, 64
2, 761408, Note_on_c, 0, 69, 100
2, 761408, Note_off_c, 0, 62, 64
2, 761408, Note_on_c, 0, 62, 100
2, 761536, Note_off_c, 0, 62, 64
2, 761536, Note_off_c, 0, 65, 64
2, 761536, Note_on_c, 0, 65, 100
2, 761536, Note_off_c, 0, 45, 64
2, 761664, Note_off_c, 0, 64, 64
2, 761664, Note_on_c, 0, 64, 100
2, 761664, Note_on_c, 0, 45, 100
2, 761792, Note_off_c, 0, 69, 64
2, 761792, Note_off_c, 0, 71, 64
2, 761792, Note_on_c, 0, 71, 100
2, 761792, Note_off_c, 0, 65, 64
2, 761792, Note_off_c, 0, 44, 64
2, 761792, Note_on_c, 0, 44, 100
2, 761920, Note_off_c, 0, 71, 64
2, 761920, Note_off_c, 0, 73, 64
2, 761920, Note_on_c, 0, 73, 100
2, 762048, Note_off_c, 0, 73, 64
2, 762048, Note_on_c, 0, 73, 100
2, 762048, Note_off_c, 0, 80, 64
2, 762048, Note_off_c, 0, 77, 64
2, 762048, Note_on_c, 0, 77, 100
2, 762112, Note_on_c, 0, 80, 100
2, 762176, Note_off_c, 0, 73, 64
2, 762176, Note_on_c, 0, 73, 100
2, 762176, Note_off_c, 0, 44, 64
2, 762176, Note_on_c, 0, 44, 100
2, 762240, Note_off_c, 0, 73, 64
2, 762240, Note_off_c, 0, 68, 64
2, 762304, Note_off_c, 0, 44, 64
2, 762304, Note_on_c, 0, 69, 100
2, 762304, Note_off_c, 0, 61, 64
2, 762304, Note_on_c, 0, 61, 100
2, 762432, Note_on_c, 0, 65, 100
2, 762432, Note_off_c, 0, 61, 64
2, 762432, Note_on_c, 0, 61, 100
2, 762432, Note_off_c, 0, 69, 64
2, 762432, Note_on_c, 0, 69, 100
2, 762432, Note_off_c, 0, 49, 64
2, 762432, Note_on_c, 0, 49, 100
2, 762560, Note_off_c, 0, 61, 64
2, 762560, Note_off_c, 0, 49, 64
2, 762560, Note_off_c, 0, 43, 64
2, 762560, Note_on_c, 0, 43, 100
2, 762624, Note_off_c, 0, 47, 64
2, 762624, Note_on_c, 0, 50, 100
2, 762688, Note_on_c, 0, 47, 100
2, 762688, Note_off_c, 0, 49, 64
2, 762688, Note_on_c, 0, 49, 100
2, 762688, Note_on_c, 0, 61, 100
2, 762688, Note_off_c, 0, 64, 64
2, 762688, Note_on_c, 0, 64, 100
2, 762816, Note_off_c, 0, 64, 64
2, 762816, Note_off_c, 0, 69, 64
2, 762816, Note_off_c, 0, 57, 64
2, 762816, Note_on_c, 0, 57, 100
2, 762816, Note_on_c, 0, 48, 100
2, 762816, Note_on_c, 0, 69, 100
2, 762816, Note_off_c, 0, 69, 64
2, 762880, Note_on_c, 0, 69, 100
2, 762944, Note_off_c, 0, 57, 64
2, 762944, Note_off_c, 0, 64, 64
2, 762944, Note_on_c, 0, 64, 100
2, 762944, Note_off_c, 0, 45, 64
2, 762944, Note_on_c, 0, 45, 100
2, 762944, Note_off_c, 0, 59, 64
2, 762944, Note_on_c, 0, 59, 100
2, 763008, Note_on_c, 0, 57, 100
2, 763072, Note_off_c, 0, 61, 64
2, 763072, Note_on_c, 0, 61, 100
2, 763136, Note_off_c, 0, 45, 64
2, 763136, Note_off_c, 0, 64, 64
2, 763200, Note_off_c, 0, 69, 64
2, 763200, Note_on_c, 0, 69, 100
2, 763200, Note_on_c, 0, 73, 100
2, 763200, Note_off_c, 0, 64, 64
2, 763200, Note_on_c, 0, 64, 100
2, 763328, Note_off_c, 0, 69, 64
2, 763328, Note_off_c, 0, 64, 64
2, 763328, Note_off_c, 0, 65, 64
2, 763392, Note_off_c, 0, 73, 64
2, 763392, Note_on_c, 0, 65, 100
2, 763392, Note_on_c, 0, 69, 100
2, 763392, Note_off_c, 0, 57, 64
2, 763392, Note_on_c, 0, 74, 100
2, 763392, Note_off_c, 0, 47, 64
2, 763456, Note_off_c, 0, 74, 64
2, 763456, Note_on_c, 0, 74, 100
2, 763456, Note_off_c, 0, 65, 64
2, 763456, Note_on_c, 0, 65, 100
2, 763456, Note_off_c, 0, 59, 64
2, 763456, Note_on_c, 0, 59, 100
2, 763456, Note_off_c, 0, 47, 64
2, 763456, Note_on_c, 0, 47, 100
2, 763456, Note_off_c, 0, 69, 64
2, 763520, Note_off_c, 0, 74, 64
2, 763520, Note_on_c, 0, 74, 100
2, 763584, Note_off_c, 0, 73, 64
2, 763584, Note_on_c, 0, 73, 100
2, 763648, Note_off_c, 0, 74, 64
2, 763648, Note_on_c, 0, 74, 100
2, 763648, Note_off_c, 0, 74, 64
2, 763712, Note_off_c, 0, 59, 64
2, 763712, Note_off_c, 0, 47, 64
2, 763712, Note_off_c, 0, 73, 64
2, 763712, Note_on_c, 0, 64, 100
2, 763712, Note_on_c, 0, 68, 100
2, 763712, Note_off_c, 0, 56, 64
2, 763712, Note_on_c, 0, 56, 100
2, 763712, Note_off_c, 0, 65, 64
2, 763712, Note_off_c, 0, 57, 64
2, 763712, Note_on_c, 0, 57, 100
2, 763776, Note_off_c, 0, 73, 64
2, 763776, Note_on_c, 0, 73, 100
2, 763840, Note_off_c, 0, 71, 64
2, 763840, Note_on_c, 0, 71, 100
2, 763904, Note_off_c, 0, 73, 64
2, 763904, Note_on_c, 0, 73, 100
2, 763968, Note_off_c, 0, 74, 64
2, 763968, Note_on_c, 0, 74, 100
2, 764032, Note_off_c, 0, 73, 64
2, 764032, Note_off_c, 0, 74, 64
2, 764096, Note_on_c, 0, 74, 100
2, 764096, Note_off_c, 0, 76, 64
2, 764096, Note_on_c, 0, 76, 100
2, 764160, Note_off_c, 0, 76, 64
2, 764160, Note_off_c, 0, 69, 64
2, 764160, Note_on_c, 0, 69, 100
2, 764224, Note_off_c, 0, 74, 64
2, 764224, Note_on_c, 0, 74, 100
2, 764352, Note_off_c, 0, 74, 64
2, 764352, Note_off_c, 0, 76, 64
2, 764352, Note_on_c, 0, 76, 100
2, 764416, Note_off_c, 0, 77, 64
2, 764416, Note_on_c, 0, 77, 100
2, 764416, Note_on_c, 0, 65, 100
2, 764416, Note_off_c, 0, 56, 64
2, 764480, Note_off_c, 0, 65, 64
2, 764480, Note_on_c, 0, 65, 100
2, 764480, Note_off_c, 0, 45, 64
2, 764480, Note_on_c, 0, 45, 100
2, 764480, Note_off_c, 0, 76, 64
2, 764480, Note_off_c, 0, 61, 64
2, 764480, Note_on_c, 0, 61, 100
2, 764480, Note_off_c, 0, 69, 64
2, 764480, Note_on_c, 0, 69, 100
2, 764480, Note_off_c, 0, 70, 64
2, 764480, Note_on_c, 0, 70, 100
2, 764480, Note_off_c, 0, 73, 64
2, 764480, Note_on_c, 0, 73, 100
2, 764480, Note_off_c, 0, 69, 64
2, 764480, Note_off_c, 0, 61, 64
2, 764480, Note_off_c, 0, 57, 64
2, 764480, Note_off_c, 0, 58, 64
2, 764480, Note_on_c, 0, 58, 100
2, 764480, Note_on_c, 0, 57, 100
2, 764480, Note_off_c, 0, 57, 64
2, 764544, Note_off_c, 0, 76, 64
2, 764544, Note_on_c, 0, 76, 100
2, 764608, Note_off_c, 0, 76, 64
2, 764608, Note_on_c, 0, 76, 100
2, 764608, Note_off_c, 0, 73, 64
2, 764608, Note_on_c, 0, 73, 100
2, 764736, Note_off_c, 0, 76, 64
2, 764736, Note_off_c, 0, 73, 64
2, 764736, Note_off_c, 0, 65, 64
2, 764736, Note_on_c, 0, 65, 100
2, 764736, Note_off_c, 0, 45, 64
2, 764736, Note_on_c, 0, 57, 100
2, 764800, Note_on_c, 0, 73, 100
2, 764800, Note_off_c, 0, 70, 64
2, 764800, Note_off_c, 0, 55, 64
2, 764800, Note_on_c, 0, 55, 100
2, 764864, Note_off_c, 0, 77, 64
2, 764864, Note_off_c, 0, 74, 64
2, 764864, Note_on_c, 0, 74, 100
2, 764928, Note_off_c, 0, 76, 64
2, 764928, Note_on_c, 0, 76, 100
2, 764928, Note_off_c, 0, 69, 64
2, 764928, Note_on_c, 0, 69, 100
2, 764992, Note_off_c, 0, 74, 64
2, 764992, Note_off_c, 0, 69, 64
2, 765056, Note_off_c, 0, 76, 64
2, 765056, Note_on_c, 0, 76, 100
2, 765056, Note_off_c, 0, 76, 64
2, 765056, Note_off_c, 0, 49, 64
2, 765056, Note_on_c, 0, 49, 100
2, 765056, Note_off_c, 0, 55, 64
2, 765056, Note_on_c, 0, 55, 100
2, 765056, Note_on_c, 0, 69, 100
2, 765056, Note_off_c, 0, 67, 64
2, 765056, Note_on_c, 0, 67, 100
2, 765056, Note_off_c, 0, 71, 64
2, 765056, Note_on_c, 0, 71, 100
2, 765120, Note_on_c, 0, 76, 100
2, 765120, Note_off_c, 0, 77, 64
2, 765120, Note_on_c, 0, 77, 100
2, 765184, Note_off_c, 0, 74, 64
2, 765184, Note_on_c, 0, 74, 100
2, 765248, Note_off_c, 0, 71, 64
2, 765248, Note_off_c, 0, 50, 64
2, 765248, Note_off_c, 0, 74, 64
2, 765248, Note_off_c, 0, 76, 64
2, 765248, Note_off_c, 0, 53, 64
2, 765248, Note_on_c, 0, 53, 100
2, 765248, Note_off_c, 0, 55, 64
2, 765248, Note_on_c, 0, 55, 100
2, 765248, Note_off_c, 0, 69, 64
2, 765248, Note_on_c, 0, 69, 100
2, 765312, Note_off_c, 0, 74, 64
2, 765312, Note_on_c, 0, 74, 100
2, 765376, Note_off_c, 0, 76, 64
2, 765376, Note_off_c, 0, 74, 64
2, 765376, Note_off_c, 0, 69, 64
2, 765376, Note_on_c, 0, 76, 100
2, 765376, Note_off_c, 0, 67, 64
2, 765376, Note_off_c, 0, 65, 64
2, 765376, Note_on_c, 0, 65, 100
2, 765376, Note_off_c, 0, 55, 64
2, 765376, Note_on_c, 0, 74, 100
2, 765376, Note_off_c, 0, 77, 64
2, 765376, Note_off_c, 0, 59, 64
2, 765376, Note_on_c, 0, 59, 100
2, 765376, Note_on_c, 0, 77, 100
2, 765376, Note_off_c, 0, 74, 64
2, 765440, Note_off_c, 0, 73, 64
2, 765440, Note_on_c, 0, 73, 100
2, 765504, Note_off_c, 0, 74, 64
2, 765504, Note_on_c, 0, 74, 100
2, 765504, Note_off_c, 0, 73, 64
2, 765504, Note_on_c, 0, 73, 100
2, 765504, Note_off_c, 0, 73, 64
2, 765568, Note_off_c, 0, 74, 64
2, 765568, Note_on_c, 0, 74, 100
2, 765568, Note_on_c, 0, 73, 100
2, 765632, Note_off_c, 0, 59, 64
2, 765632, Note_off_c, 0, 62, 64
2, 765632, Note_on_c, 0, 62, 100
2, 765632, Note_off_c, 0, 64, 64
2, 765632, Note_on_c, 0, 64, 100
2, 765632, Note_off_c, 0, 61, 64
2, 765632, Note_on_c, 0, 61, 100
2, 765632, Note_off_c, 0, 57, 64
2, 765632, Note_on_c, 0, 57, 100
2, 765632, Note_off_c, 0, 74, 64
2, 765696, Note_off_c, 0, 73, 64
2, 765696, Note_on_c, 0, 73, 100
2, 765760, Note_off_c, 0, 61, 64
2, 765760, Note_on_c, 0, 81, 100
2, 765760, Note_off_c, 0, 81, 64
2, 765760, Note_off_c, 0, 73, 64
2, 765760, Note_off_c, 0, 64, 64
2, 765760, Note_on_c, 0, 64, 100
2, 765760, Note_on_c, 0, 61, 100
2, 765760, Note_off_c, 0, 62, 64
2, 765760, Note_on_c, 0, 62, 100
2, 765760, Note_off_c, 0, 65, 64
2, 765760, Note_off_c, 0, 57, 64
2, 765760, Note_on_c, 0, 81, 100
2, 765760, Note_off_c, 0, 81, 64
2, 765760, Note_on_c, 0, 57, 100
2, 765824, Note_off_c, 0, 69, 64
2, 765824, Note_on_c, 0, 69, 100
2, 765824, Note_on_c, 0, 65, 100
2, 765888, Note_off_c, 0, 62, 64
2, 765888, Note_off_c, 0, 69, 64
2, 765888, Note_on_c, 0, 81, 100
2, 765888, Note_off_c, 0, 65, 64
2, 765888, Note_on_c, 0, 65, 100
2, 765888, Note_on_c, 0, 69, 100
2, 765888, Note_off_c, 0, 61, 64
2, 765888, Note_on_c, 0, 61, 100
2, 765888, Note_off_c, 0, 76, 64
2, 765888, Note_on_c, 0, 76, 100
2, 765952, Note_on_c, 0, 82, 100
2, 765952, Note_off_c, 0, 81, 64
2, 765952, Note_on_c, 0, 81, 100
2, 765952, Note_off_c, 0, 81, 64
2, 766016, Note_off_c, 0, 82, 64
2, 766016, Note_on_c, 0, 82, 100
2, 766016, Note_off_c, 0, 81, 64
2, 766016, Note_on_c, 0, 81, 100
2, 766080, Note_off_c, 0, 76, 64
2, 766080, Note_off_c, 0, 74, 64
2, 766080, Note_on_c, 0, 74, 100
2, 766080, Note_off_c, 0, 65, 64
2, 766080, Note_on_c, 0, 65, 100
2, 766080, Note_off_c, 0, 57, 64
2, 766080, Note_off_c, 0, 82, 64
2, 766144, Note_off_c, 0, 81, 64
2, 766144, Note_on_c, 0, 81, 100
2, 766144, Note_off_c, 0, 45, 64
2, 766144, Note_on_c, 0, 45, 100
2, 766144, Note_off_c, 0, 61, 64
2, 766144, Note_off_c, 0, 64, 64
2, 766144, Note_on_c, 0, 64, 100
2, 766208, Note_off_c, 0, 69, 64
2, 766208, Note_on_c, 0, 69, 100
2, 766208, Note_on_c, 0, 61, 100
2, 766208, Note_off_c, 0, 58, 64
2, 766208, Note_on_c, 0, 58, 100
2, 766272, Note_off_c, 0, 61, 64
2, 766272, Note_off_c, 0, 62, 64
2, 766272, Note_on_c, 0, 62, 100
2, 766336, Note_off_c, 0, 64, 64
2, 766336, Note_off_c, 0, 58, 64
2, 766336, Note_off_c, 0, 57, 64
2, 766336, Note_off_c, 0, 69, 64
2, 766336, Note_on_c, 0, 61, 100
2, 766336, Note_on_c, 0, 57, 100
2, 766336, Note_off_c, 0, 45, 64
2, 766336, Note_on_c, 0, 70, 100
2, 766336, Note_on_c, 0, 73, 100
2, 766400, Note_off_c, 0, 77, 64
2, 766400, Note_off_c, 0, 79, 64
2, 766400, Note_on_c, 0, 79, 100
2, 766400, Note_off_c, 0, 57, 64
2, 766400, Note_on_c, 0, 57, 100
2, 766400, Note_off_c, 0, 62, 64
2, 766400, Note_off_c, 0, 73, 64
2, 766400, Note_off_c, 0, 69, 64
2, 766400, Note_on_c, 0, 69, 100
2, 766400, Note_on_c, 0, 73, 100
2, 766464, Note_off_c, 0, 81, 64
2, 766464, Note_on_c, 0, 77, 100
2, 766528, Note_off_c, 0, 82, 64
2, 766528, Note_on_c, 0, 82, 100
2, 766528, Note_off_c, 0, 57, 64
2, 766528, Note_off_c, 0, 58, 64
2, 766528, Note_on_c, 0, 67, 100
2, 766528, Note_off_c, 0, 67, 64
2, 766528, Note_on_c, 0, 62, 100
2, 766528, Note_on_c, 0, 58, 100
2, 766528, Note_off_c, 0, 76, 64
2, 766528, Note_on_c, 0, 76, 100
2, 766528, Note_off_c, 0, 73, 64
2, 766528, Note_on_c, 0, 73, 100
2, 766528, Note_on_c, 0, 67, 100
2, 766592, Note_off_c, 0, 81, 64
2, 766592, Note_on_c, 0, 81, 100
2, 766592, Note_off_c, 0, 82, 64
2, 766592, Note_off_c, 0, 76, 64
2, 766592, Note_off_c, 0, 73, 64
2, 766592, Note_on_c, 0, 82, 100
2, 766592, Note_off_c, 0, 69, 64
2, 766592, Note_off_c, 0, 77, 64
2, 766592, Note_on_c, 0, 77, 100
2, 766656, Note_off_c, 0, 81, 64
2, 766656, Note_off_c, 0, 61, 64
2, 766656, Note_on_c, 0, 61, 100
2, 766656, Note_off_c, 0, 79, 64
2, 766656, Note_on_c, 0, 79, 100
2, 766656, Note_off_c, 0, 69, 64
2, 766656, Note_on_c, 0, 69, 100
2, 766656, Note_on_c, 0, 76, 100
2, 766656, Note_on_c, 0, 81, 100
2, 766656, Note_off_c, 0, 73, 64
2, 766656, Note_on_c, 0, 73, 100
2, 766720, Note_off_c, 0, 58, 64
2, 766720, Note_on_c, 0, 58, 100
2, 766720, Note_off_c, 0, 74, 64
2, 766720, Note_on_c, 0, 74, 100
2, 766720, Note_off_c, 0, 73, 64
2, 766784, Note_off_c, 0, 81, 64
2, 766784, Note_off_c, 0, 69, 64
2, 766784, Note_off_c, 0, 70, 64
2, 766784, Note_off_c, 0, 76, 64
2, 766784, Note_off_c, 0, 79, 64
2, 766784, Note_on_c, 0, 79, 100
2, 766848, Note_on_c, 0, 70, 100
2, 766848, Note_off_c, 0, 67, 64
2, 766848, Note_on_c, 0, 67, 100
2, 766848, Note_off_c, 0, 79, 64
2, 766848, Note_off_c, 0, 76, 64
2, 766848, Note_off_c, 0, 70, 64
2, 766848, Note_on_c, 0, 70, 100
2, 766848, Note_on_c, 0, 76, 100
2, 766912, Note_off_c, 0, 74, 64
2, 766912, Note_off_c, 0, 62, 64
2, 766912, Note_on_c, 0, 62, 100
2, 766912, Note_on_c, 0, 74, 100
2, 766912, Note_off_c, 0, 74, 64
2, 766912, Note_off_c, 0, 67, 64
2, 766912, Note_off_c, 0, 61, 64
2, 766912, Note_off_c, 0, 58, 64
2, 766912, Note_off_c, 0, 65, 64
2, 766912, Note_on_c, 0, 69, 100
2, 766912, Note_off_c, 0, 73, 64
2, 766912, Note_on_c, 0, 73, 100
2, 767040, Note_off_c, 0, 65, 64
2, 767040, Note_off_c, 0, 62, 64
2, 767040, Note_on_c, 0, 58, 100
2, 767040, Note_on_c, 0, 57, 100
2, 767040, Note_off_c, 0, 73, 64
2, 767040, Note_off_c, 0, 69, 64
2, 767040, Note_on_c, 0, 69, 100
2, 767040, Note_on_c, 0, 65, 100
2, 767040, Note_on_c, 0, 62, 100
2, 767040, Note_on_c, 0, 74, 100
2, 767040, Note_off_c, 0, 81, 64
2, 767040, Note_on_c, 0, 81, 100
2, 767104, Note_off_c, 0, 76, 64
2, 767168, Note_off_c, 0, 57, 64
2, 767168, Note_off_c, 0, 85, 64
2, 767168, Note_off_c, 0, 81, 64
2, 767168, Note_off_c, 0, 77, 64
2, 767168, Note_off_c, 0, 74, 64
2, 767168, Note_off_c, 0, 79, 64
2, 767168, Note_on_c, 0, 79, 100
2, 767168, Note_off_c, 0, 76, 64
2, 767168, Note_on_c, 0, 76, 100
2, 767168, Note_on_c, 0, 73, 100
2, 767168, Note_off_c, 0, 69, 64
2, 767168, Note_on_c, 0, 69, 100
2, 767168, Note_off_c, 0, 70, 64
2, 767168, Note_on_c, 0, 61, 100
2, 767168, Note_off_c, 0, 64, 64
2, 767168, Note_on_c, 0, 64, 100
2, 767424, Note_off_c, 0, 64, 64
2, 767424, Note_on_c, 0, 74, 100
2, 767424, Note_on_c, 0, 77, 100
2, 767424, Note_off_c, 0, 76, 64
2, 767424, Note_on_c, 0, 76, 100
2, 767424, Note_off_c, 0, 69, 64
2, 767424, Note_on_c, 0, 69, 100
2, 767424, Note_off_c, 0, 58, 64
2, 767424, Note_off_c, 0, 61, 64
2, 767424, Note_off_c, 0, 65, 64
2, 767424, Note_on_c, 0, 65, 100
2, 767424, Note_off_c, 0, 53, 64
2, 767680, Note_off_c, 0, 79, 64
2, 767680, Note_on_c, 0, 79, 100
2, 767680, Note_on_c, 0, 61, 100
2, 767680, Note_off_c, 0, 61, 64
2, 767680, Note_on_c, 0, 61, 100
2, 767680, Note_off_c, 0, 76, 64
2, 767680, Note_on_c, 0, 76, 100
2, 767680, Note_off_c, 0, 69, 64
2, 767680, Note_on_c, 0, 69, 100
2, 767680, Note_off_c, 0, 57, 64
2, 767680, Note_on_c, 0, 57, 100
2, 767680, Note_off_c, 0, 65, 64
2, 767680, Note_on_c, 0, 65, 100
2, 767808, Note_off_c, 0, 79, 64
2, 767808, Note_off_c, 0, 77, 64
2, 767808, Note_on_c, 0, 77, 100
2, 767808, Note_off_c, 0, 69, 64
2, 767808, Note_on_c, 0, 69, 100
2, 767936, Note_off_c, 0, 76, 64
2, 767936, Note_on_c, 0, 76, 100
2, 767936, Note_off_c, 0, 77, 64
2, 767936, Note_off_c, 0, 85, 64
2, 767936, Note_on_c, 0, 85, 100
2, 767936, Note_off_c, 0, 69, 64
2, 767936, Note_on_c, 0, 69, 100
2, 767936, Note_on_c, 0, 64, 100
2, 767936, Note_off_c, 0, 65, 64
2, 767936, Note_off_c, 0, 61, 64
2, 767936, Note_off_c, 0, 57, 64
2, 767936, Note_on_c, 0, 57, 100
2, 767936, Note_off_c, 0, 74, 64
2, 768064, Note_off_c, 0, 64, 64
2, 768064, Note_off_c, 0, 62, 64
2, 768064, Note_on_c, 0, 62, 100
2, 768224, Note_off_c, 0, 57, 64
2, 768224, Note_off_c, 0, 56, 64
2, 768224, Note_on_c, 0, 56, 100
2, 768352, Note_on_c, 0, 53, 100
2, 768352, Note_off_c, 0, 57, 64
2, 768352, Note_on_c, 0, 57, 100
2, 768480, Note_off_c, 0, 62, 64
2, 768480, Note_off_c, 0, 55, 64
2, 768480, Note_on_c, 0, 55, 100
2, 768736, Note_off_c, 0, 57, 64
2, 768736, Note_on_c, 0, 65, 100
2, 768736, Note_off_c, 0, 55, 64
2, 768992, Note_off_c, 0, 64, 64
2, 768992, Note_on_c, 0, 64, 100
2, 768992, Note_off_c, 0, 84, 64
2, 768992, Note_on_c, 0, 84, 100
2, 768992, Note_on_c, 0, 74, 100
2, 768992, Note_off_c, 0, 76, 64
2, 768992, Note_on_c, 0, 76, 100
2, 769120, Note_off_c, 0, 64, 64
2, 769120, Note_off_c, 0, 55, 64
2, 769120, Note_on_c, 0, 55, 100
2, 769248, Note_off_c, 0, 55, 64
2, 769248, Note_on_c, 0, 57, 100
2, 769248, Note_off_c, 0, 76, 64
2, 769248, Note_on_c, 0, 86, 100
2, 769248, Note_off_c, 0, 53, 64
2, 769248, Note_on_c, 0, 77, 100
2, 769248, Note_on_c, 0, 79, 100
2, 769376, Note_on_c, 0, 81, 100
2, 769376, Note_off_c, 0, 77, 64
2, 769376, Note_on_c, 0, 77, 100
2, 769376, Note_off_c, 0, 86, 64
2, 769376, Note_off_c, 0, 79, 64
2, 769376, Note_on_c, 0, 79, 100
2, 769504, Note_off_c, 0, 79, 64
2, 769504, Note_off_c, 0, 77, 64
2, 769504, Note_on_c, 0, 77, 100
2, 769504, Note_off_c, 0, 86, 64
2, 769504, Note_on_c, 0, 79, 100
2, 769504, Note_off_c, 0, 71, 64
2, 769504, Note_on_c, 0, 71, 100
2, 769504, Note_off_c, 0, 74, 64
2, 769504, Note_on_c, 0, 74, 100
2, 769504, Note_on_c, 0, 55, 100
2, 769504, Note_off_c, 0, 55, 64
2, 769504, Note_off_c, 0, 57, 64
2, 769504, Note_on_c, 0, 55, 100
2, 769504, Note_on_c, 0, 86, 100
2, 769632, Note_off_c, 0, 55, 64
2, 769632, Note_on_c, 0, 53, 100
2, 769632, Note_off_c, 0, 81, 64
2, 769632, Note_off_c, 0, 77, 64
2, 769632, Note_off_c, 0, 72, 64
2, 769632, Note_on_c, 0, 72, 100
2, 769632, Note_off_c, 0, 79, 64
2, 769632, Note_on_c, 0, 81, 100
2, 769632, Note_off_c, 0, 81, 64
2, 769632, Note_off_c, 0, 74, 64
2, 769632, Note_on_c, 0, 81, 100
2, 769760, Note_off_c, 0, 74, 64
2, 769760, Note_on_c, 0, 74, 100
2, 769760, Note_on_c, 0, 50, 100
2, 769760, Note_off_c, 0, 84, 64
2, 769760, Note_on_c, 0, 84, 100
2, 769760, Note_off_c, 0, 86, 64
2, 769760, Note_off_c, 0, 83, 64
2, 769760, Note_on_c, 0, 83, 100
2, 770016, Note_off_c, 0, 83, 64
2, 770016, Note_off_c, 0, 80, 64
2, 770016, Note_on_c, 0, 86, 100
2, 770144, Note_on_c, 0, 83, 100
2, 770144, Note_off_c, 0, 84, 64
2, 770144, Note_on_c, 0, 84, 100
2, 770144, Note_off_c, 0, 80, 64
2, 770144, Note_on_c, 0, 80, 100
2, 770272, Note_off_c, 0, 84, 64
2, 770272, Note_off_c, 0, 83, 64
2, 770272, Note_off_c, 0, 80, 64
2, 770272, Note_on_c, 0, 80, 100
2, 770272, Note_off_c, 0, 73, 64
2, 770272, Note_on_c, 0, 73, 100
2, 770272, Note_off_c, 0, 80, 64
2, 770272, Note_off_c, 0, 75, 64
2, 770272, Note_on_c, 0, 75, 100
2, 770272, Note_off_c, 0, 73, 64
2, 770272, Note_off_c, 0, 71, 64
2, 770528, Note_off_c, 0, 80, 64
2, 770528, Note_on_c, 0, 79, 100
2, 770528, Note_off_c, 0, 79, 64
2, 770528, Note_on_c, 0, 71, 100
2, 770528, Note_off_c, 0, 71, 64
2, 770528, Note_on_c, 0, 80, 100
2, 770528, Note_on_c, 0, 76, 100
2, 770528, Note_on_c, 0, 71, 100
2, 770528, Note_on_c, 0, 79, 100
2, 770528, Note_off_c, 0, 79, 64
2, 770528, Note_off_c, 0, 67, 64
2, 770528, Note_on_c, 0, 67, 100
2, 770528, Note_on_c, 0, 47, 100
2, 770528, Note_off_c, 0, 47, 64
2, 770528, Note_on_c, 0, 47, 100
2, 770528, Note_on_c, 0, 46, 100
2, 770656, Note_off_c, 0, 82, 64
2, 770656, Note_off_c, 0, 76, 64
2, 770784, Note_off_c, 0, 80, 64
2, 770784, Note_off_c, 0, 79, 64
2, 770784, Note_on_c, 0, 79, 100
2, 770784, Note_off_c, 0, 73, 64
2, 770784, Note_on_c, 0, 73, 100
2, 770784, Note_off_c, 0, 71, 64
2, 770784, Note_on_c, 0, 71, 100
2, 770784, Note_off_c, 0, 64, 64
2, 770784, Note_on_c, 0, 64, 100
2, 771040, Note_off_c, 0, 64, 64
2, 771040, Note_off_c, 0, 67, 64
2, 771040, Note_on_c, 0, 67, 100
2, 771040, Note_off_c, 0, 73, 64
2, 771040, Note_off_c, 0, 75, 64
2, 771040, Note_on_c, 0, 82, 100
2, 771040, Note_off_c, 0, 80, 64
2, 771040, Note_on_c, 0, 80, 100
2, 771296, Note_off_c, 0, 46, 64
2, 771296, Note_off_c, 0, 44, 64
2, 771296, Note_on_c, 0, 44, 100
2, 771552, Note_off_c, 0, 43, 64
2, 771552, Note_off_c, 0, 44, 64
2, 771552, Note_on_c, 0, 44, 100
2, 771552, Note_off_c, 0, 67, 64
2, 771552, Note_off_c, 0, 74, 64
2, 771552, Note_on_c, 0, 74, 100
2, 771808, Note_off_c, 0, 82, 64
2, 771808, Note_on_c, 0, 82, 100
2, 771808, Note_off_c, 0, 80, 64
2, 771808, Note_off_c, 0, 74, 64
2, 771808, Note_on_c, 0, 75, 100
2, 771808, Note_off_c, 0, 79, 64
2, 771936, Note_off_c, 0, 82, 64
2, 771936, Note_off_c, 0, 71, 64
2, 771936, Note_on_c, 0, 71, 100
2, 772064, Note_on_c, 0, 70, 100
2, 772064, Note_off_c, 0, 44, 64
2, 772064, Note_on_c, 0, 44, 100
2, 772064, Note_off_c, 0, 44, 64
2, 772064, Note_off_c, 0, 71, 64
2, 772064, Note_on_c, 0, 77, 100
2, 772064, Note_off_c, 0, 75, 64
2, 772064, Note_on_c, 0, 75, 100
2, 772064, Note_off_c, 0, 72, 64
2, 772064, Note_on_c, 0, 72, 100
2, 772320, Note_off_c, 0, 75, 64
2, 772320, Note_on_c, 0, 79, 100
2, 772320, Note_off_c, 0, 72, 64
2, 772320, Note_on_c, 0, 74, 100
2, 772320, Note_off_c, 0, 67, 64
2, 772320, Note_on_c, 0, 67, 100
2, 772320, Note_off_c, 0, 65, 64
2, 772320, Note_on_c, 0, 63, 100
2, 772448, Note_off_c, 0, 63, 64
2, 772448, Note_off_c, 0, 58, 64
2, 772448, Note_on_c, 0, 58, 100
2, 772576, Note_off_c, 0, 58, 64
2, 772576, Note_off_c, 0, 48, 64
2, 772576, Note_off_c, 0, 50, 64
2, 772576, Note_on_c, 0, 50, 100
2, 772576, Note_on_c, 0, 51, 100
2, 772832, Note_off_c, 0, 41, 64
2, 772832, Note_off_c, 0, 43, 64
2, 772832, Note_on_c, 0, 43, 100
2, 772832, Note_off_c, 0, 82, 64
2, 772832, Note_on_c, 0, 82, 100
2, 772832, Note_off_c, 0, 78, 64
2, 772832, Note_off_c, 0, 77, 64
2, 772832, Note_on_c, 0, 55, 100
2, 772832, Note_off_c, 0, 55, 64
2, 772832, Note_on_c, 0, 55, 100
2, 772960, Note_off_c, 0, 82, 64
2, 772960, Note_off_c, 0, 83, 64
2, 772960, Note_on_c, 0, 83, 100
2, 772960, Note_off_c, 0, 74, 64
2, 772960, Note_on_c, 0, 74, 100
2, 772960, Note_off_c, 0, 74, 64
2, 773088, Note_off_c, 0, 43, 64
2, 773088, Note_on_c, 0, 43, 100
2, 773088, Note_off_c, 0, 43, 64
2, 773088, Note_off_c, 0, 53, 64
2, 773088, Note_off_c, 0, 55, 64
2, 773088, Note_on_c, 0, 59, 100
2, 773088, Note_off_c, 0, 77, 64
2, 773088, Note_on_c, 0, 77, 100
2, 773088, Note_off_c, 0, 83, 64
2, 773088, Note_off_c, 0, 79, 64
2, 773216, Note_on_c, 0, 82, 100
2, 773216, Note_off_c, 0, 71, 64
2, 773216, Note_on_c, 0, 71, 100
2, 773216, Note_off_c, 0, 67, 64
2, 773216, Note_on_c, 0, 67, 100
2, 773344, Note_off_c, 0, 67, 64
2, 773344, Note_on_c, 0, 67, 100
2, 773344, Note_off_c, 0, 75, 64
2, 773344, Note_on_c, 0, 75, 100
2, 773344, Note_off_c, 0, 67, 64
2, 773600, Note_off_c, 0, 75, 64
2, 773600, Note_on_c, 0, 75, 100
2, 773600, Note_off_c, 0, 74, 64
2, 773600, Note_on_c, 0, 74, 100
2, 773600, Note_off_c, 0, 77, 64
2, 773600, Note_on_c, 0, 77, 100
2, 773600, Note_on_c, 0, 43, 100
2, 773728, Note_off_c, 0, 77, 64
2, 773728, Note_off_c, 0, 79, 64
2, 773728, Note_on_c, 0, 79, 100
2, 773856, Note_off_c, 0, 79, 64
2, 773856, Note_off_c, 0, 72, 64
2, 773856, Note_on_c, 0, 67, 100
2, 773856, Note_on_c, 0, 55, 100
2, 773856, Note_off_c, 0, 59, 64
2, 773856, Note_on_c, 0, 65, 100
2, 773856, Note_on_c, 0, 77, 100
2, 773856, Note_off_c, 0, 74, 64
2, 773856, Note_on_c, 0, 74, 100
2, 773856, Note_off_c, 0, 71, 64
2, 773856, Note_off_c, 0, 75, 64
2, 773856, Note_on_c, 0, 72, 100
2, 773856, Note_on_c, 0, 79, 100
2, 773984, Note_off_c, 0, 55, 64
2, 774112, Note_off_c, 0, 55, 64
2, 774112, Note_on_c, 0, 55, 100
2, 774112, Note_off_c, 0, 77, 64
2, 774112, Note_off_c, 0, 74, 64
2, 774112, Note_on_c, 0, 74, 100
2, 774240, Note_on_c, 0, 75, 100
2, 774240, Note_off_c, 0, 74, 64
2, 774240, Note_off_c, 0, 79, 64
2, 774240, Note_on_c, 0, 79, 100
2, 774240, Note_on_c, 0, 63, 100
2, 774240, Note_off_c, 0, 63, 64
2, 774240, Note_on_c, 0, 63, 100
2, 774240, Note_off_c, 0, 79, 64
2, 774368, Note_off_c, 0, 55, 64
2, 774368, Note_off_c, 0, 63, 64
2, 774368, Note_on_c, 0, 74, 100
2, 774368, Note_off_c, 0, 77, 64
2, 774368, Note_on_c, 0, 77, 100
2, 774368, Note_off_c, 0, 74, 64
2, 774368, Note_on_c, 0, 74, 100
2, 774496, Note_off_c, 0, 72, 64
2, 774496, Note_off_c, 0, 77, 64
2, 774496, Note_off_c, 0, 71, 64
2, 774496, Note_on_c, 0, 71, 100
2, 774624, Note_off_c, 0, 74, 64
2, 774624, Note_off_c, 0, 71, 64
2, 774624, Note_off_c, 0, 65, 64
2, 774624, Note_on_c, 0, 62, 100
2, 774624, Note_on_c, 0, 55, 100
2, 774880, Note_on_c, 0, 77, 100
2, 774880, Note_on_c, 0, 74, 100
2, 774880, Note_off_c, 0, 71, 64
2, 774880, Note_off_c, 0, 65, 64
2, 774880, Note_on_c, 0, 65, 100
2, 774880, Note_off_c, 0, 62, 64
2, 774880, Note_on_c, 0, 60, 100
2, 774880, Note_on_c, 0, 80, 100
2, 774880, Note_on_c, 0, 71, 100
2, 774880, Note_off_c, 0, 72, 64
2, 774880, Note_on_c, 0, 72, 100
2, 775008, Note_off_c, 0, 65, 64
2, 775008, Note_on_c, 0, 65, 100
2, 775008, Note_off_c, 0, 63, 64
2, 775008, Note_on_c, 0, 63, 100
2, 775008, Note_on_c, 0, 62, 100
2, 775008, Note_off_c, 0, 71, 64
2, 775136, Note_off_c, 0, 60, 64
2, 775136, Note_on_c, 0, 59, 100
2, 775136, Note_off_c, 0, 65, 64
2, 775136, Note_off_c, 0, 72, 64
2, 775136, Note_off_c, 0, 74, 64
2, 775136, Note_off_c, 0, 71, 64
2, 775136, Note_on_c, 0, 71, 100
2, 775136, Note_off_c, 0, 67, 64
2, 775136, Note_on_c, 0, 67, 100
2, 775136, Note_off_c, 0, 62, 64
2, 775264, Note_off_c, 0, 80, 64
2, 775264, Note_off_c, 0, 67, 64
2, 775264, Note_on_c, 0, 67, 100
2, 775264, Note_off_c, 0, 59, 64
2, 775264, Note_on_c, 0, 59, 100
2, 775392, Note_off_c, 0, 79, 64
2, 775392, Note_on_c, 0, 79, 100
2, 775392, Note_on_c, 0, 74, 100
2, 775392, Note_off_c, 0, 72, 64
2, 775392, Note_on_c, 0, 72, 100
2, 775392, Note_off_c, 0, 67, 64
2, 775392, Note_on_c, 0, 67, 100
2, 775392, Note_on_c, 0, 58, 100
2, 775392, Note_off_c, 0, 63, 64
2, 775392, Note_on_c, 0, 62, 100
2, 775520, Note_off_c, 0, 72, 64
2, 775520, Note_off_c, 0, 67, 64
2, 775520, Note_on_c, 0, 67, 100
2, 775648, Note_off_c, 0, 79, 64
2, 775648, Note_off_c, 0, 77, 64
2, 775648, Note_on_c, 0, 77, 100
2, 775648, Note_off_c, 0, 62, 64
2, 775648, Note_on_c, 0, 63, 100
2, 775648, Note_off_c, 0, 63, 64
2, 775648, Note_on_c, 0, 63, 100
2, 775648, Note_on_c, 0, 72, 100
2, 775648, Note_off_c, 0, 72, 64
2, 775648, Note_on_c, 0, 72, 100
2, 775648, Note_off_c, 0, 67, 64
2, 775776, Note_off_c, 0, 77, 64
2, 775776, Note_off_c, 0, 79, 64
2, 775776, Note_on_c, 0, 79, 100
2, 775904, Note_off_c, 0, 72, 64
2, 775904, Note_off_c, 0, 57, 64
2, 775904, Note_on_c, 0, 57, 100
2, 775904, Note_off_c, 0, 79, 64
2, 775904, Note_on_c, 0, 79, 100
2, 775904, Note_off_c, 0, 69, 64
2, 775904, Note_on_c, 0, 69, 100
2, 776032, Note_off_c, 0, 79, 64
2, 776032, Note_off_c, 0, 77, 64
2, 776032, Note_on_c, 0, 77, 100
2, 776032, Note_off_c, 0, 69, 64
2, 776032, Note_on_c, 0, 69, 100
2, 776096, Note_off_c, 0, 77, 64
2, 776096, Note_on_c, 0, 77, 100
2, 776160, Note_off_c, 0, 77, 64
2, 776160, Note_on_c, 0, 77, 100
2, 776160, Note_off_c, 0, 69, 64
2, 776160, Note_on_c, 0, 65, 100
2, 776160, Note_off_c, 0, 63, 64
2, 776160, Note_off_c, 0, 62, 64
2, 776160, Note_on_c, 0, 62, 100
2, 776160, Note_off_c, 0, 57, 64
2, 776160, Note_on_c, 0, 63, 100
2, 776224, Note_on_c, 0, 78, 100
2, 776224, Note_off_c, 0, 79, 64
2, 776224, Note_on_c, 0, 79, 100
2, 776224, Note_off_c, 0, 67, 64
2, 776224, Note_on_c, 0, 67, 100
2, 776288, Note_off_c, 0, 63, 64
2, 776288, Note_off_c, 0, 70, 64
2, 776288, Note_on_c, 0, 70, 100
2, 776288, Note_off_c, 0, 62, 64
2, 776288, Note_on_c, 0, 62, 100
2, 776416, Note_off_c, 0, 79, 64
2, 776416, Note_off_c, 0, 77, 64
2, 776416, Note_off_c, 0, 75, 64
2, 776416, Note_on_c, 0, 75, 100
2, 776416, Note_off_c, 0, 71, 64
2, 776416, Note_on_c, 0, 71, 100
2, 776544, Note_off_c, 0, 82, 64
2, 776544, Note_off_c, 0, 81, 64
2, 776544, Note_on_c, 0, 81, 100
2, 776544, Note_off_c, 0, 63, 64
2, 776544, Note_on_c, 0, 63, 100
2, 776544, Note_off_c, 0, 62, 64
2, 776544, Note_off_c, 0, 65, 64
2, 776544, Note_on_c, 0, 65, 100
2, 776672, Note_off_c, 0, 81, 64
2, 776672, Note_off_c, 0, 75, 64
2, 776672, Note_on_c, 0, 75, 100
2, 776672, Note_off_c, 0, 65, 64
2, 776672, Note_off_c, 0, 67, 64
2, 776672, Note_on_c, 0, 67, 100
2, 776672, Note_off_c, 0, 71, 64
2, 776672, Note_off_c, 0, 75, 64
2, 776672, Note_on_c, 0, 75, 100
2, 776672, Note_on_c, 0, 69, 100
2, 776672, Note_off_c, 0, 67, 64
2, 776672, Note_on_c, 0, 67, 100
2, 776800, Note_off_c, 0, 67, 64
2, 776800, Note_off_c, 0, 69, 64
2, 776800, Note_on_c, 0, 69, 100
2, 776928, Note_off_c, 0, 75, 64
2, 776928, Note_on_c, 0, 75, 100
2, 776928, Note_off_c, 0, 75, 64
2, 776928, Note_on_c, 0, 75, 100
2, 776928, Note_off_c, 0, 69, 64
2, 776928, Note_off_c, 0, 67, 64
2, 776928, Note_on_c, 0, 67, 100
2, 776928, Note_off_c, 0, 65, 64
2, 776928, Note_on_c, 0, 65, 100
2, 777056, Note_on_c, 0, 77, 100
2, 777056, Note_off_c, 0, 77, 64
2, 777056, Note_on_c, 0, 77, 100
2, 777184, Note_off_c, 0, 77, 64
2, 777184, Note_off_c, 0, 75, 64
2, 777184, Note_on_c, 0, 75, 100
2, 777184, Note_off_c, 0, 67, 64
2, 777184, Note_off_c, 0, 65, 64
2, 777184, Note_on_c, 0, 65, 100
2, 777184, Note_off_c, 0, 65, 64
2, 777184, Note_off_c, 0, 63, 64
2, 777184, Note_on_c, 0, 63, 100
2, 777312, Note_off_c, 0, 75, 64
2, 777312, Note_off_c, 0, 77, 64
2, 777312, Note_on_c, 0, 77, 100
2, 777312, Note_on_c, 0, 65, 100
2, 777312, Note_off_c, 0, 58, 64
2, 777312, Note_on_c, 0, 58, 100
2, 777440, Note_off_c, 0, 77, 64
2, 777440, Note_on_c, 0, 79, 100
2, 777440, Note_off_c, 0, 79, 64
2, 777440, Note_off_c, 0, 63, 64
2, 777440, Note_on_c, 0, 63, 100
2, 777440, Note_off_c, 0, 63, 64
2, 777440, Note_off_c, 0, 58, 64
2, 777440, Note_on_c, 0, 79, 100
2, 777440, Note_off_c, 0, 79, 64
2, 777440, Note_off_c, 0, 72, 64
2, 777440, Note_on_c, 0, 72, 100
2, 777568, Note_on_c, 0, 79, 100
2, 777568, Note_off_c, 0, 77, 64
2, 777568, Note_on_c, 0, 77, 100
2, 777568, Note_off_c, 0, 55, 64
2, 777568, Note_on_c, 0, 55, 100
2, 777568, Note_on_c, 0, 63, 100
2, 777568, Note_off_c, 0, 62, 64
2, 777568, Note_on_c, 0, 62, 100
2, 777696, Note_off_c, 0, 77, 64
2, 777696, Note_on_c, 0, 77, 100
2, 777696, Note_off_c, 0, 55, 64
2, 777696, Note_off_c, 0, 53, 64
2, 777696, Note_on_c, 0, 53, 100
2, 777696, Note_off_c, 0, 82, 64
2, 777696, Note_on_c, 0, 82, 100
2, 777824, Note_off_c, 0, 82, 64
2, 777824, Note_off_c, 0, 84, 64
2, 777824, Note_on_c, 0, 84, 100
2, 777952, Note_off_c, 0, 84, 64
2, 777952, Note_on_c, 0, 84, 100
2, 777952, Note_off_c, 0, 77, 64
2, 777952, Note_off_c, 0, 65, 64
2, 777952, Note_off_c, 0, 62, 64
2, 777952, Note_on_c, 0, 62, 100
2, 777952, Note_off_c, 0, 53, 64
2, 777952, Note_on_c, 0, 65, 100
2, 777952, Note_off_c, 0, 65, 64
2, 778080, Note_off_c, 0, 62, 64
2, 778080, Note_on_c, 0, 65, 100
2, 778080, Note_off_c, 0, 77, 64
2, 778080, Note_on_c, 0, 77, 100
2, 778080, Note_off_c, 0, 75, 64
2, 778080, Note_on_c, 0, 75, 100
2, 778208, Note_off_c, 0, 84, 64
2, 778208, Note_off_c, 0, 72, 64
2, 778208, Note_on_c, 0, 72, 100
2, 778208, Note_off_c, 0, 53, 64
2, 778208, Note_on_c, 0, 53, 100
2, 778208, Note_off_c, 0, 50, 64
2, 778208, Note_off_c, 0, 82, 64
2, 778208, Note_on_c, 0, 82, 100
2, 778208, Note_off_c, 0, 67, 64
2, 778208, Note_on_c, 0, 67, 100
2, 778208, Note_off_c, 0, 65, 64
2, 778208, Note_on_c, 0, 65, 100
2, 778336, Note_off_c, 0, 82, 64
2, 778336, Note_off_c, 0, 77, 64
2, 778336, Note_on_c, 0, 77, 100
2, 778400, Note_off_c, 0, 57, 64
2, 778400, Note_on_c, 0, 57, 100
2, 778464, Note_on_c, 0, 84, 100
2, 778464, Note_off_c, 0, 81, 64
2, 778464, Note_on_c, 0, 81, 100
2, 778464, Note_on_c, 0, 55, 100
2, 778464, Note_off_c, 0, 55, 64
2, 778464, Note_off_c, 0, 65, 64
2, 778464, Note_off_c, 0, 72, 64
2, 778464, Note_off_c, 0, 69, 64
2, 778464, Note_on_c, 0, 69, 100
2, 778464, Note_on_c, 0, 55, 100
2, 778464, Note_off_c, 0, 57, 64
2, 778464, Note_off_c, 0, 74, 64
2, 778464, Note_on_c, 0, 74, 100
2, 778592, Note_off_c, 0, 84, 64
2, 778592, Note_off_c, 0, 81, 64
2, 778592, Note_off_c, 0, 79, 64
2, 778592, Note_on_c, 0, 79, 100
2, 778592, Note_off_c, 0, 70, 64
2, 778592, Note_on_c, 0, 70, 100
2, 778592, Note_off_c, 0, 72, 64
2, 778592, Note_on_c, 0, 72, 100
2, 778592, Note_off_c, 0, 77, 64
2, 778720, Note_off_c, 0, 72, 64
2, 778720, Note_off_c, 0, 67, 64
2, 778720, Note_on_c, 0, 67, 100
2, 778720, Note_off_c, 0, 70, 64
2, 778720, Note_on_c, 0, 70, 100
2, 778720, Note_on_c, 0, 81, 100
2, 778720, Note_off_c, 0, 79, 64
2, 778720, Note_on_c, 0, 79, 100
2, 778720, Note_off_c, 0, 74, 64
2, 778720, Note_off_c, 0, 82, 64
2, 778720, Note_on_c, 0, 82, 100
2, 778848, Note_off_c, 0, 67, 64
2, 778848, Note_off_c, 0, 58, 64
2, 778848, Note_on_c, 0, 58, 100
2, 778848, Note_off_c, 0, 81, 64
2, 778848, Note_on_c, 0, 81, 100
2, 778976, Note_off_c, 0, 81, 64
2, 778976, Note_on_c, 0, 84, 100
2, 778976, Note_off_c, 0, 82, 64
2, 778976, Note_on_c, 0, 82, 100
2, 778976, Note_on_c, 0, 81, 100
2, 778976, Note_off_c, 0, 81, 64
2, 778976, Note_off_c, 0, 70, 64
2, 778976, Note_off_c, 0, 69, 64
2, 778976, Note_on_c, 0, 69, 100
2, 778976, Note_off_c, 0, 55, 64
2, 778976, Note_on_c, 0, 55, 100
2, 778976, Note_on_c, 0, 60, 100
2, 778976, Note_off_c, 0, 65, 64
2, 778976, Note_on_c, 0, 65, 100
2, 779104, Note_off_c, 0, 69, 64
2, 779104, Note_off_c, 0, 55, 64
2, 779104, Note_off_c, 0, 84, 64
2, 779104, Note_off_c, 0, 82, 64
2, 779104, Note_off_c, 0, 79, 64
2, 779104, Note_on_c, 0, 79, 100
2, 779104, Note_on_c, 0, 71, 100
2, 779104, Note_on_c, 0, 70, 100
2, 779104, Note_off_c, 0, 60, 64
2, 779104, Note_off_c, 0, 65, 64
2, 779264, Note_off_c, 0, 43, 64
2, 779264, Note_on_c, 0, 41, 100
2, 779264, Note_off_c, 0, 82, 64
2, 779264, Note_on_c, 0, 82, 100
2, 779264, Note_off_c, 0, 77, 64
2, 779264, Note_on_c, 0, 77, 100
2, 779392, Note_off_c, 0, 82, 64
2, 779392, Note_on_c, 0, 82, 100
2, 779392, Note_off_c, 0, 70, 64
2, 779392, Note_on_c, 0, 70, 100
2, 779392, Note_off_c, 0, 79, 64
2, 779392, Note_on_c, 0, 79, 100
2, 779456, Note_off_c, 0, 82, 64
2, 779456, Note_on_c, 0, 82, 100
2, 779456, Note_off_c, 0, 70, 64
2, 779520, Note_off_c, 0, 82, 64
2, 779520, Note_off_c, 0, 81, 64
2, 779520, Note_on_c, 0, 81, 100
2, 779520, Note_off_c, 0, 79, 64
2, 779520, Note_off_c, 0, 77, 64
2, 779520, Note_on_c, 0, 77, 100
2, 779520, Note_on_c, 0, 70, 100
2, 779520, Note_off_c, 0, 71, 64
2, 779520, Note_off_c, 0, 41, 64
2, 779520, Note_on_c, 0, 45, 100
2, 779520, Note_on_c, 0, 69, 100
2, 779520, Note_on_c, 0, 65, 100
2, 779520, Note_off_c, 0, 62, 64
2, 779520, Note_on_c, 0, 62, 100
2, 779520, Note_off_c, 0, 60, 64
2, 779520, Note_on_c, 0, 60, 100
2, 779776, Note_off_c, 0, 77, 64
2, 779776, Note_off_c, 0, 69, 64
2, 779776, Note_on_c, 0, 69, 100
2, 779776, Note_off_c, 0, 39, 64
2, 779776, Note_off_c, 0, 41, 64
2, 779776, Note_on_c, 0, 41, 100
2, 779776, Note_on_c, 0, 84, 100
2, 779776, Note_off_c, 0, 81, 64
2, 779776, Note_on_c, 0, 77, 100
2, 779776, Note_on_c, 0, 74, 100
2, 779776, Note_off_c, 0, 62, 64
2, 779776, Note_on_c, 0, 62, 100
2, 779904, Note_off_c, 0, 69, 64
2, 779904, Note_off_c, 0, 70, 64
2, 779904, Note_on_c, 0, 70, 100
2, 779968, Note_off_c, 0, 62, 64
2, 780032, Note_off_c, 0, 70, 64
2, 780032, Note_off_c, 0, 60, 64
2, 780032, Note_on_c, 0, 60, 100
2, 780032, Note_off_c, 0, 63, 64
2, 780032, Note_on_c, 0, 63, 100
2, 780032, Note_off_c, 0, 82, 64
2, 780032, Note_on_c, 0, 82, 100
2, 780032, Note_on_c, 0, 39, 100
2, 780032, Note_off_c, 0, 38, 64
2, 780032, Note_on_c, 0, 38, 100
2, 780032, Note_off_c, 0, 63, 64
2, 780032, Note_on_c, 0, 70, 100
2, 780032, Note_off_c, 0, 74, 64
2, 780032, Note_on_c, 0, 74, 100
2, 780032, Note_off_c, 0, 72, 64
2, 780032, Note_on_c, 0, 72, 100
2, 780160, Note_on_c, 0, 63, 100
2, 780160, Note_off_c, 0, 65, 64
2, 780288, Note_off_c, 0, 72, 64
2, 780288, Note_off_c, 0, 60, 64
2, 780288, Note_off_c, 0, 70, 64
2, 780288, Note_off_c, 0, 82, 64
2, 780288, Note_off_c, 0, 74, 64
2, 780288, Note_on_c, 0, 74, 100
2, 780288, Note_off_c, 0, 65, 64
2, 780288, Note_on_c, 0, 65, 100
2, 780416, Note_off_c, 0, 65, 64
2, 780416, Note_off_c, 0, 67, 64
2, 780416, Note_on_c, 0, 67, 100
2, 780544, Note_on_c, 0, 50, 100
2, 780544, Note_off_c, 0, 74, 64
2, 780544, Note_off_c, 0, 67, 64
2, 780544, Note_on_c, 0, 70, 100
2, 780544, Note_off_c, 0, 51, 64
2, 780544, Note_on_c, 0, 51, 100
2, 780544, Note_on_c, 0, 67, 100
2, 780544, Note_on_c, 0, 79, 100
2, 780544, Note_off_c, 0, 82, 64
2, 780544, Note_on_c, 0, 82, 100
2, 780544, Note_off_c, 0, 75, 64
2, 780544, Note_on_c, 0, 75, 100
2, 780672, Note_off_c, 0, 79, 64
2, 780672, Note_off_c, 0, 77, 64
2, 780672, Note_on_c, 0, 77, 100
2, 780800, Note_off_c, 0, 79, 64
2, 780800, Note_on_c, 0, 79, 100
2, 780800, Note_on_c, 0, 65, 100
2, 780800, Note_off_c, 0, 63, 64
2, 780800, Note_off_c, 0, 51, 64
2, 780800, Note_off_c, 0, 77, 64
2, 780800, Note_on_c, 0, 77, 100
2, 780800, Note_on_c, 0, 60, 100
2, 780800, Note_off_c, 0, 48, 64
2, 780800, Note_on_c, 0, 48, 100
2, 780800, Note_off_c, 0, 50, 64
2, 780800, Note_off_c, 0, 67, 64
2, 780800, Note_off_c, 0, 46, 64
2, 780800, Note_on_c, 0, 46, 100
2, 780800, Note_off_c, 0, 70, 64
2, 780928, Note_off_c, 0, 65, 64
2, 780928, Note_off_c, 0, 63, 64
2, 780928, Note_on_c, 0, 63, 100
2, 780992, Note_on_c, 0, 50, 100
2, 780992, Note_off_c, 0, 63, 64
2, 781056, Note_off_c, 0, 46, 64
2, 781056, Note_on_c, 0, 34, 100
2, 781056, Note_off_c, 0, 48, 64
2, 781056, Note_off_c, 0, 75, 64
2, 781056, Note_on_c, 0, 63, 100
2, 781056, Note_off_c, 0, 63, 64
2, 781056, Note_off_c, 0, 67, 64
2, 781056, Note_on_c, 0, 67, 100
2, 781056, Note_on_c, 0, 63, 100
2, 781056, Note_off_c, 0, 60, 64
2, 781056, Note_on_c, 0, 60, 100
2, 781184, Note_off_c, 0, 67, 64
2, 781184, Note_off_c, 0, 65, 64
2, 781184, Note_on_c, 0, 65, 100
2, 781184, Note_off_c, 0, 60, 64
2, 781184, Note_off_c, 0, 75, 64
2, 781184, Note_on_c, 0, 75, 100
2, 781312, Note_on_c, 0, 48, 100
2, 781312, Note_off_c, 0, 46, 64
2, 781312, Note_off_c, 0, 75, 64
2, 781312, Note_on_c, 0, 46, 100
2, 781312, Note_off_c, 0, 58, 64
2, 781312, Note_off_c, 0, 65, 64
2, 781312, Note_off_c, 0, 60, 64
2, 781312, Note_on_c, 0, 60, 100
2, 781312, Note_on_c, 0, 75, 100
2, 781312, Note_off_c, 0, 75, 64
2, 781312, Note_off_c, 0, 63, 64
2, 781440, Note_on_c, 0, 65, 100
2, 781440, Note_off_c, 0, 77, 64
2, 781440, Note_on_c, 0, 77, 100
2, 781504, Note_on_c, 0, 58, 100
2, 781568, Note_off_c, 0, 46, 64
2, 781568, Note_off_c, 0, 77, 64
2, 781568, Note_on_c, 0, 75, 100
2, 781568, Note_on_c, 0, 46, 100
2, 781568, Note_off_c, 0, 46, 64
2, 781568, Note_on_c, 0, 63, 100
2, 781568, Note_off_c, 0, 67, 64
2, 781568, Note_on_c, 0, 67, 100
2, 781568, Note_on_c, 0, 61, 100
2, 781568, Note_off_c, 0, 60, 64
2, 781696, Note_off_c, 0, 75, 64
2, 781696, Note_on_c, 0, 75, 100
2, 781696, Note_off_c, 0, 75, 64
2, 781696, Note_on_c, 0, 60, 100
2, 781696, Note_off_c, 0, 48, 64
2, 781824, Note_on_c, 0, 75, 100
2, 781824, Note_off_c, 0, 46, 64
2, 781824, Note_on_c, 0, 46, 100
2, 781824, Note_off_c, 0, 67, 64
2, 781824, Note_on_c, 0, 67, 100
2, 781824, Note_off_c, 0, 60, 64
2, 781824, Note_off_c, 0, 61, 64
2, 781824, Note_off_c, 0, 75, 64
2, 781824, Note_on_c, 0, 75, 100
2, 781824, Note_off_c, 0, 58, 64
2, 781824, Note_on_c, 0, 60, 100
2, 781952, Note_off_c, 0, 75, 64
2, 781952, Note_off_c, 0, 67, 64
2, 781952, Note_on_c, 0, 67, 100
2, 781952, Note_off_c, 0, 60, 64
2, 782016, Note_on_c, 0, 75, 100
2, 782080, Note_off_c, 0, 73, 64
2, 782080, Note_on_c, 0, 72, 100
2, 782080, Note_off_c, 0, 46, 64
2, 782080, Note_on_c, 0, 46, 100
2, 782080, Note_on_c, 0, 73, 100
2, 782080, Note_off_c, 0, 75, 64
2, 782080, Note_on_c, 0, 75, 100
2, 782080, Note_off_c, 0, 67, 64
2, 782080, Note_off_c, 0, 66, 64
2, 782080, Note_on_c, 0, 66, 100
2, 782208, Note_off_c, 0, 75, 64
2, 782208, Note_off_c, 0, 73, 64
2, 782208, Note_on_c, 0, 73, 100
2, 782336, Note_off_c, 0, 46, 64
2, 782336, Note_off_c, 0, 73, 64
2, 782336, Note_off_c, 0, 75, 64
2, 782336, Note_on_c, 0, 75, 100
2, 782336, Note_on_c, 0, 44, 100
2, 782496, Note_on_c, 0, 43, 100
2, 782496, Note_off_c, 0, 66, 64
2, 782560, Note_off_c, 0, 78, 64
2, 782560, Note_on_c, 0, 78, 100
2, 782624, Note_off_c, 0, 75, 64
2, 782624, Note_off_c, 0, 44, 64
2, 782624, Note_on_c, 0, 44, 100
2, 782624, Note_on_c, 0, 75, 100
2, 782624, Note_off_c, 0, 75, 64
2, 782624, Note_off_c, 0, 82, 64
2, 782752, Note_on_c, 0, 75, 100
2, 782752, Note_on_c, 0, 46, 100
2, 782752, Note_off_c, 0, 84, 64
2, 782752, Note_on_c, 0, 82, 100
2, 782752, Note_on_c, 0, 36, 100
2, 782752, Note_off_c, 0, 60, 64
2, 782752, Note_on_c, 0, 60, 100
2, 782880, Note_on_c, 0, 84, 100
2, 782880, Note_off_c, 0, 84, 64
2, 782880, Note_off_c, 0, 82, 64
2, 782880, Note_on_c, 0, 82, 100
2, 782880, Note_off_c, 0, 60, 64
2, 782880, Note_on_c, 0, 84, 100
2, 782880, Note_off_c, 0, 84, 64
2, 782880, Note_off_c, 0, 75, 64
2, 782880, Note_on_c, 0, 75, 100
2, 782880, Note_on_c, 0, 48, 100
2, 782880, Note_off_c, 0, 36, 64
2, 782880, Note_on_c, 0, 36, 100
2, 783008, Note_off_c, 0, 48, 64
2, 783008, Note_off_c, 0, 36, 64
2, 783008, Note_off_c, 0, 79, 64
2, 783008, Note_off_c, 0, 58, 64
2, 783008, Note_on_c, 0, 58, 100
2, 783008, Note_off_c, 0, 44, 64
2, 783008, Note_on_c, 0, 44, 100
2, 783008, Note_off_c, 0, 75, 64
2, 783008, Note_off_c, 0, 72, 64
2, 783008, Note_on_c, 0, 72, 100
2, 783136, Note_off_c, 0, 44, 64
2, 783136, Note_off_c, 0, 46, 64
2, 783136, Note_on_c, 0, 75, 100
2, 783136, Note_on_c, 0, 84, 100
2, 783136, Note_off_c, 0, 80, 64
2, 783136, Note_on_c, 0, 80, 100
2, 783136, Note_off_c, 0, 68, 64
2, 783136, Note_on_c, 0, 68, 100
2, 783136, Note_off_c, 0, 58, 64
2, 783136, Note_on_c, 0, 58, 100
2, 783136, Note_off_c, 0, 73, 64
2, 783136, Note_on_c, 0, 73, 100
2, 783136, Note_off_c, 0, 72, 64
2, 783264, Note_on_c, 0, 46, 100
2, 783264, Note_off_c, 0, 82, 64
2, 783264, Note_off_c, 0, 80, 64
2, 783264, Note_on_c, 0, 80, 100
2, 783264, Note_off_c, 0, 75, 64
2, 783264, Note_on_c, 0, 75, 100
2, 783264, Note_on_c, 0, 72, 100
2, 783328, Note_off_c, 0, 58, 64
2, 783328, Note_on_c, 0, 67, 100
2, 783392, Note_off_c, 0, 44, 64
2, 783392, Note_on_c, 0, 44, 100
2, 783392, Note_off_c, 0, 68, 64
2, 783392, Note_off_c, 0, 67, 64
2, 783392, Note_off_c, 0, 63, 64
2, 783392, Note_on_c, 0, 64, 100
2, 783392, Note_on_c, 0, 58, 100
2, 783520, Note_on_c, 0, 82, 100
2, 783520, Note_off_c, 0, 72, 64
2, 783520, Note_off_c, 0, 64, 64
2, 783520, Note_on_c, 0, 67, 100
2, 783520, Note_on_c, 0, 72, 100
2, 783520, Note_off_c, 0, 72, 64
2, 783520, Note_off_c, 0, 44, 64
2, 783520, Note_on_c, 0, 44, 100
2, 783520, Note_on_c, 0, 72, 100
2, 783520, Note_off_c, 0, 80, 64
2, 783520, Note_on_c, 0, 60, 100
2, 783648, Note_off_c, 0, 44, 64
2, 783648, Note_off_c, 0, 82, 64
2, 783648, Note_on_c, 0, 70, 100
2, 783648, Note_off_c, 0, 48, 64
2, 783648, Note_off_c, 0, 72, 64
2, 783648, Note_on_c, 0, 72, 100
2, 783648, Note_off_c, 0, 68, 64
2, 783648, Note_on_c, 0, 68, 100
2, 783648, Note_off_c, 0, 43, 64
2, 783648, Note_on_c, 0, 43, 100
2, 783648, Note_on_c, 0, 48, 100
2, 783648, Note_off_c, 0, 77, 64
2, 783648, Note_on_c, 0, 77, 100
2, 783776, Note_off_c, 0, 60, 64
2, 783776, Note_off_c, 0, 55, 64
2, 783776, Note_off_c, 0, 43, 64
2, 783776, Note_off_c, 0, 68, 64
2, 783776, Note_on_c, 0, 44, 100
2, 783776, Note_off_c, 0, 77, 64
2, 783776, Note_off_c, 0, 72, 64
2, 783776, Note_off_c, 0, 41, 64
2, 783776, Note_off_c, 0, 57, 64
2, 783776, Note_on_c, 0, 57, 100
2, 783776, Note_off_c, 0, 63, 64
2, 783776, Note_on_c, 0, 63, 100
2, 783776, Note_on_c, 0, 77, 100
2, 783776, Note_on_c, 0, 60, 100
2, 783776, Note_on_c, 0, 55, 100
2, 783776, Note_off_c, 0, 45, 64
2, 783776, Note_on_c, 0, 45, 100
2, 783776, Note_on_c, 0, 72, 100
2, 783776, Note_off_c, 0, 72, 64
2, 783776, Note_off_c, 0, 60, 64
2, 783776, Note_on_c, 0, 60, 100
2, 783904, Note_off_c, 0, 77, 64
2, 783904, Note_on_c, 0, 72, 100
2, 783904, Note_off_c, 0, 65, 64
2, 783904, Note_off_c, 0, 60, 64
2, 783904, Note_on_c, 0, 43, 100
2, 783904, Note_off_c, 0, 75, 64
2, 783904, Note_off_c, 0, 67, 64
2, 783904, Note_on_c, 0, 67, 100
2, 783904, Note_off_c, 0, 51, 64
2, 783904, Note_on_c, 0, 51, 100
2, 783904, Note_on_c, 0, 75, 100
2, 783904, Note_off_c, 0, 75, 64
2, 783904, Note_off_c, 0, 58, 64
2, 783904, Note_on_c, 0, 58, 100
2, 784032, Note_on_c, 0, 75, 100
2, 784032, Note_off_c, 0, 58, 64
2, 784032, Note_off_c, 0, 72, 64
2, 784032, Note_on_c, 0, 72, 100
2, 784032, Note_off_c, 0, 67, 64
2, 784032, Note_on_c, 0, 60, 100
2, 784032, Note_off_c, 0, 57, 64
2, 784032, Note_on_c, 0, 57, 100
2, 784160, Note_off_c, 0, 72, 64
2, 784160, Note_off_c, 0, 60, 64
2, 784160, Note_off_c, 0, 57, 64
2, 784160, Note_off_c, 0, 51, 64
2, 784160, Note_off_c, 0, 69, 64
2, 784160, Note_on_c, 0, 69, 100
2, 784160, Note_off_c, 0, 65, 64
2, 784160, Note_on_c, 0, 65, 100
2, 784160, Note_off_c, 0, 50, 64
2, 784160, Note_on_c, 0, 50, 100
2, 784160, Note_on_c, 0, 72, 100
2, 784160, Note_on_c, 0, 74, 100
2, 784160, Note_on_c, 0, 62, 100
2, 784160, Note_off_c, 0, 50, 64
2, 784160, Note_off_c, 0, 53, 64
2, 784288, Note_off_c, 0, 74, 64
2, 784288, Note_off_c, 0, 72, 64
2, 784288, Note_off_c, 0, 65, 64
2, 784352, Note_on_c, 0, 72, 100
2, 784352, Note_off_c, 0, 62, 64
2, 784352, Note_on_c, 0, 50, 100
2, 784416, Note_off_c, 0, 38, 64
2, 784416, Note_on_c, 0, 38, 100
2, 784416, Note_off_c, 0, 72, 64
2, 784416, Note_off_c, 0, 50, 64
2, 784416, Note_on_c, 0, 50, 100
2, 784416, Note_on_c, 0, 74, 100
2, 784416, Note_off_c, 0, 69, 64
2, 784416, Note_off_c, 0, 67, 64
2, 784416, Note_on_c, 0, 67, 100
2, 784416, Note_off_c, 0, 58, 64
2, 784416, Note_on_c, 0, 58, 100
2, 784416, Note_off_c, 0, 63, 64
2, 784416, Note_off_c, 0, 51, 64
2, 784416, Note_on_c, 0, 51, 100
2, 784544, Note_off_c, 0, 58, 64
2, 784544, Note_on_c, 0, 53, 100
2, 784544, Note_on_c, 0, 69, 100
2, 784544, Note_off_c, 0, 67, 64
2, 784544, Note_off_c, 0, 72, 64
2, 784544, Note_on_c, 0, 72, 100
2, 784544, Note_off_c, 0, 57, 64
2, 784544, Note_on_c, 0, 57, 100
2, 784672, Note_off_c, 0, 53, 64
2, 784672, Note_on_c, 0, 53, 100
2, 784672, Note_off_c, 0, 72, 64
2, 784672, Note_off_c, 0, 57, 64
2, 784672, Note_off_c, 0, 77, 64
2, 784672, Note_on_c, 0, 77, 100
2, 784672, Note_on_c, 0, 58, 100
2, 784672, Note_off_c, 0, 74, 64
2, 784672, Note_on_c, 0, 68, 100
2, 784800, Note_off_c, 0, 53, 64
2, 784800, Note_off_c, 0, 68, 64
2, 784800, Note_off_c, 0, 57, 64
2, 784800, Note_off_c, 0, 77, 64
2, 784800, Note_off_c, 0, 69, 64
2, 784800, Note_on_c, 0, 69, 100
2, 784800, Note_on_c, 0, 57, 100
2, 784800, Note_off_c, 0, 74, 64
2, 784800, Note_on_c, 0, 74, 100
2, 784800, Note_on_c, 0, 65, 100
2, 784928, Note_off_c, 0, 77, 64
2, 784928, Note_off_c, 0, 57, 64
2, 784928, Note_on_c, 0, 77, 100
2, 784928, Note_off_c, 0, 74, 64
2, 784928, Note_off_c, 0, 69, 64
2, 784928, Note_off_c, 0, 65, 64
2, 784928, Note_off_c, 0, 58, 64
2, 784928, Note_on_c, 0, 60, 100
2, 784928, Note_off_c, 0, 75, 64
2, 784992, Note_off_c, 0, 77, 64
2, 785056, Note_off_c, 0, 51, 64
2, 785056, Note_off_c, 0, 39, 64
2, 785056, Note_off_c, 0, 58, 64
2, 785056, Note_on_c, 0, 58, 100
2, 785056, Note_off_c, 0, 65, 64
2, 785056, Note_on_c, 0, 65, 100
2, 785056, Note_off_c, 0, 63, 64
2, 785056, Note_off_c, 0, 70, 64
2, 785056, Note_on_c, 0, 75, 100
2, 785056, Note_on_c, 0, 63, 100
2, 785056, Note_off_c, 0, 60, 64
2, 785184, Note_on_c, 0, 51, 100
2, 785184, Note_off_c, 0, 58, 64
2, 785184, Note_off_c, 0, 63, 64
2, 785184, Note_off_c, 0, 50, 64
2, 785184, Note_off_c, 0, 38, 64
2, 785184, Note_on_c, 0, 38, 100
2, 785184, Note_on_c, 0, 50, 100
2, 785184, Note_off_c, 0, 75, 64
2, 785184, Note_on_c, 0, 75, 100
2, 785184, Note_off_c, 0, 38, 64
2, 785312, Note_off_c, 0, 50, 64
2, 785312, Note_on_c, 0, 70, 100
2, 785312, Note_off_c, 0, 65, 64
2, 785312, Note_on_c, 0, 65, 100
2, 785312, Note_on_c, 0, 63, 100
2, 785312, Note_off_c, 0, 75, 64
2, 785312, Note_on_c, 0, 36, 100
2, 785312, Note_off_c, 0, 72, 64
2, 785312, Note_on_c, 0, 72, 100
2, 785312, Note_off_c, 0, 48, 64
2, 785312, Note_on_c, 0, 48, 100
2, 785440, Note_off_c, 0, 36, 64
2, 785440, Note_off_c, 0, 65, 64
2, 785440, Note_off_c, 0, 72, 64
2, 785440, Note_on_c, 0, 35, 100
2, 785440, Note_off_c, 0, 47, 64
2, 785440, Note_off_c, 0, 71, 64
2, 785440, Note_on_c, 0, 71, 100
2, 785440, Note_on_c, 0, 50, 100
2, 785440, Note_on_c, 0, 62, 100
2, 785568, Note_off_c, 0, 50, 64
2, 785568, Note_off_c, 0, 71, 64
2, 785568, Note_on_c, 0, 65, 100
2, 785568, Note_on_c, 0, 67, 100
2, 785568, Note_off_c, 0, 62, 64
2, 785568, Note_off_c, 0, 51, 64
2, 785568, Note_on_c, 0, 50, 100
2, 785568, Note_off_c, 0, 65, 64
2, 785568, Note_on_c, 0, 65, 100
2, 785696, Note_on_c, 0, 51, 100
2, 785696, Note_off_c, 0, 50, 64
2, 785696, Note_off_c, 0, 65, 64
2, 785696, Note_on_c, 0, 65, 100
2, 785696, Note_off_c, 0, 65, 64
2, 785696, Note_on_c, 0, 77, 100
2, 785696, Note_on_c, 0, 50, 100
2, 785696, Note_on_c, 0, 65, 100
2, 785696, Note_on_c, 0, 62, 100
2, 785696, Note_off_c, 0, 65, 64
2, 785696, Note_off_c, 0, 69, 64
2, 785696, Note_on_c, 0, 69, 100
2, 785824, Note_off_c, 0, 50, 64
2, 785824, Note_on_c, 0, 50, 100
2, 785824, Note_off_c, 0, 50, 64
2, 785824, Note_on_c, 0, 33, 100
2, 785952, Note_off_c, 0, 77, 64
2, 785952, Note_on_c, 0, 65, 100
2, 785952, Note_off_c, 0, 69, 64
2, 785952, Note_on_c, 0, 50, 100
2, 785952, Note_off_c, 0, 62, 64
2, 785952, Note_on_c, 0, 62, 100
2, 785952, Note_on_c, 0, 66, 100
2, 785952, Note_off_c, 0, 67, 64
2, 785952, Note_on_c, 0, 67, 100
2, 785952, Note_off_c, 0, 72, 64
2, 785952, Note_off_c, 0, 60, 64
2, 785952, Note_off_c, 0, 48, 64
2, 785952, Note_off_c, 0, 36, 64
2, 785952, Note_on_c, 0, 75, 100
2, 785952, Note_on_c, 0, 48, 100
2, 785952, Note_on_c, 0, 36, 100
2, 785952, Note_on_c, 0, 72, 100
2, 785952, Note_on_c, 0, 60, 100
2, 786016, Note_off_c, 0, 66, 64
2, 786016, Note_off_c, 0, 63, 64
2, 786016, Note_on_c, 0, 63, 100
2, 786080, Note_off_c, 0, 67, 64
2, 786080, Note_off_c, 0, 66, 64
2, 786080, Note_off_c, 0, 63, 64
2, 786080, Note_off_c, 0, 60, 64
2, 786080, Note_off_c, 0, 75, 64
2, 786080, Note_off_c, 0, 62, 64
2, 786080, Note_on_c, 0, 62, 100
2, 786080, Note_off_c, 0, 62, 64
2, 786080, Note_off_c, 0, 72, 64
2, 786080, Note_on_c, 0, 66, 100
2, 786080, Note_on_c, 0, 67, 100
2, 786208, Note_off_c, 0, 36, 64
2, 786208, Note_on_c, 0, 63, 100
2, 786208, Note_off_c, 0, 66, 64
2, 786208, Note_on_c, 0, 60, 100
2, 786208, Note_off_c, 0, 60, 64
2, 786208, Note_off_c, 0, 48, 64
2, 786208, Note_off_c, 0, 67, 64
2, 786208, Note_on_c, 0, 67, 100
2, 786208, Note_off_c, 0, 62, 64
2, 786208, Note_off_c, 0, 55, 64
2, 786208, Note_off_c, 0, 43, 64
2, 786208, Note_on_c, 0, 43, 100
2, 786208, Note_on_c, 0, 75, 100
2, 786208, Note_on_c, 0, 60, 100
2, 786208, Note_off_c, 0, 67, 64
2, 786208, Note_on_c, 0, 62, 100
2, 786336, Note_off_c, 0, 62, 64
2, 786336, Note_off_c, 0, 60, 64
2, 786336, Note_on_c, 0, 55, 100
2, 786336, Note_off_c, 0, 54, 64
2, 786336, Note_on_c, 0, 54, 100
2, 786336, Note_off_c, 0, 75, 64
2, 786336, Note_on_c, 0, 75, 100
2, 786336, Note_off_c, 0, 72, 64
2, 786336, Note_on_c, 0, 72, 100
2, 786464, Note_off_c, 0, 55, 64
2, 786464, Note_off_c, 0, 43, 64
2, 786464, Note_off_c, 0, 72, 64
2, 786464, Note_off_c, 0, 54, 64
2, 786464, Note_off_c, 0, 42, 64
2, 786464, Note_off_c, 0, 62, 64
2, 786464, Note_on_c, 0, 62, 100
2, 786464, Note_off_c, 0, 50, 64
2, 786464, Note_on_c, 0, 50, 100
2, 786464, Note_on_c, 0, 66, 100
2, 786464, Note_off_c, 0, 65, 64
2, 786464, Note_on_c, 0, 65, 100
2, 786592, Note_on_c, 0, 67, 100
2, 786592, Note_off_c, 0, 66, 64
2, 786592, Note_off_c, 0, 65, 64
2, 786592, Note_off_c, 0, 62, 64
2, 786592, Note_on_c, 0, 62, 100
2, 786720, Note_off_c, 0, 67, 64
2, 786720, Note_off_c, 0, 62, 64
2, 786720, Note_on_c, 0, 67, 100
2, 786720, Note_off_c, 0, 50, 64
2, 786720, Note_on_c, 0, 38, 100
2, 786720, Note_on_c, 0, 55, 100
2, 786720, Note_off_c, 0, 63, 64
2, 786720, Note_on_c, 0, 60, 100
2, 786720, Note_off_c, 0, 74, 64
2, 786720, Note_on_c, 0, 74, 100
2, 786720, Note_off_c, 0, 67, 64
2, 786720, Note_off_c, 0, 46, 64
2, 786720, Note_on_c, 0, 46, 100
2, 786720, Note_on_c, 0, 36, 100
2, 786848, Note_on_c, 0, 79, 100
2, 786848, Note_on_c, 0, 63, 100
2, 786848, Note_on_c, 0, 62, 100
2, 786848, Note_off_c, 0, 74, 64
2, 786976, Note_off_c, 0, 46, 64
2, 786976, Note_off_c, 0, 34, 64
2, 786976, Note_off_c, 0, 60, 64
2, 786976, Note_off_c, 0, 62, 64
2, 786976, Note_on_c, 0, 46, 100
2, 786976, Note_on_c, 0, 74, 100
2, 786976, Note_off_c, 0, 79, 64
2, 786976, Note_on_c, 0, 62, 100
2, 786976, Note_off_c, 0, 46, 64
2, 786976, Note_on_c, 0, 46, 100
2, 786976, Note_on_c, 0, 34, 100
2, 787104, Note_off_c, 0, 74, 64
2, 787104, Note_off_c, 0, 62, 64
2, 787104, Note_on_c, 0, 62, 100
2, 787104, Note_off_c, 0, 70, 64
2, 787104, Note_on_c, 0, 58, 100
2, 787104, Note_on_c, 0, 69, 100
2, 787232, Note_off_c, 0, 46, 64
2, 787232, Note_off_c, 0, 34, 64
2, 787232, Note_on_c, 0, 70, 100
2, 787232, Note_on_c, 0, 46, 100
2, 787232, Note_on_c, 0, 74, 100
2, 787232, Note_off_c, 0, 58, 64
2, 787232, Note_off_c, 0, 62, 64
2, 787232, Note_on_c, 0, 43, 100
2, 787360, Note_on_c, 0, 62, 100
2, 787360, Note_off_c, 0, 69, 64
2, 787360, Note_off_c, 0, 74, 64
2, 787424, Note_on_c, 0, 69, 100
2, 787488, Note_off_c, 0, 43, 64
2, 787488, Note_on_c, 0, 72, 100
2, 787488, Note_off_c, 0, 70, 64
2, 787488, Note_off_c, 0, 46, 64
2, 787488, Note_on_c, 0, 74, 100
2, 787488, Note_off_c, 0, 62, 64
2, 787488, Note_on_c, 0, 46, 100
2, 787488, Note_on_c, 0, 34, 100
2, 787488, Note_on_c, 0, 67, 100
2, 787616, Note_off_c, 0, 46, 64
2, 787616, Note_on_c, 0, 50, 100
2, 787616, Note_off_c, 0, 72, 64
2, 787616, Note_off_c, 0, 69, 64
2, 787616, Note_off_c, 0, 50, 64
2, 787616, Note_on_c, 0, 62, 100
2, 787616, Note_off_c, 0, 67, 64
2, 787616, Note_off_c, 0, 74, 64
2, 787616, Note_on_c, 0, 60, 100
2, 787616, Note_off_c, 0, 38, 64
2, 787616, Note_on_c, 0, 72, 100
2, 787616, Note_off_c, 0, 75, 64
2, 787616, Note_on_c, 0, 38, 100
2, 787616, Note_on_c, 0, 50, 100
2, 787680, Note_off_c, 0, 78, 64
2, 787680, Note_on_c, 0, 74, 100
2, 787744, Note_off_c, 0, 60, 64
2, 787744, Note_off_c, 0, 69, 64
2, 787744, Note_off_c, 0, 50, 64
2, 787744, Note_off_c, 0, 72, 64
2, 787744, Note_off_c, 0, 38, 64
2, 787744, Note_off_c, 0, 74, 64
2, 787744, Note_on_c, 0, 69, 100
2, 787744, Note_on_c, 0, 74, 100
2, 787744, Note_on_c, 0, 66, 100
2, 787744, Note_on_c, 0, 70, 100
2, 787744, Note_on_c, 0, 50, 100
2, 787744, Note_on_c, 0, 38, 100
2, 787744, Note_off_c, 0, 62, 64
2, 787872, Note_off_c, 0, 38, 64
2, 787872, Note_off_c, 0, 50, 64
2, 787872, Note_on_c, 0, 38, 100
2, 787872, Note_off_c, 0, 66, 64
2, 787872, Note_on_c, 0, 62, 100
2, 787872, Note_on_c, 0, 50, 100
2, 787872, Note_off_c, 0, 38, 64
2, 787872, Note_on_c, 0, 67, 100
2, 787872, Note_off_c, 0, 70, 64
2, 788000, Note_off_c, 0, 70, 64
2, 788000, Note_off_c, 0, 62, 64
2, 788000, Note_off_c, 0, 67, 64
2, 788000, Note_on_c, 0, 70, 100
2, 788000, Note_off_c, 0, 50, 64
2, 788000, Note_off_c, 0, 38, 64
2, 788000, Note_off_c, 0, 74, 64
2, 788000, Note_off_c, 0, 71, 64
2, 788000, Note_on_c, 0, 38, 100
2, 788000, Note_on_c, 0, 71, 100
2, 788000, Note_on_c, 0, 50, 100
2, 788064, Note_off_c, 0, 71, 64
2, 788064, Note_off_c, 0, 38, 64
2, 788064, Note_off_c, 0, 50, 64
2, 788128, Note_off_c, 0, 74, 64
2, 788128, Note_on_c, 0, 74, 100
2, 788128, Note_on_c, 0, 72, 100
2, 788128, Note_off_c, 0, 72, 64
2, 788128, Note_off_c, 0, 45, 64
2, 788128, Note_off_c, 0, 33, 64
2, 788128, Note_off_c, 0, 69, 64
2, 788128, Note_on_c, 0, 72, 100
2, 788128, Note_on_c, 0, 45, 100
2, 788128, Note_off_c, 0, 57, 64
2, 788128, Note_on_c, 0, 57, 100
2, 788256, Note_off_c, 0, 74, 64
2, 788256, Note_off_c, 0, 45, 64
2, 788256, Note_off_c, 0, 72, 64
2, 788256, Note_on_c, 0, 69, 100
2, 788256, Note_off_c, 0, 57, 64
2, 788256, Note_on_c, 0, 57, 100
2, 788256, Note_on_c, 0, 72, 100
2, 788256, Note_off_c, 0, 71, 64
2, 788256, Note_on_c, 0, 71, 100
2, 788256, Note_off_c, 0, 55, 64
2, 788256, Note_on_c, 0, 55, 100
2, 788256, Note_on_c, 0, 45, 100
2, 788384, Note_off_c, 0, 71, 64
2, 788384, Note_off_c, 0, 57, 64
2, 788384, Note_off_c, 0, 55, 64
2, 788384, Note_off_c, 0, 72, 64
2, 788384, Note_off_c, 0, 45, 64
2, 788384, Note_off_c, 0, 69, 64
2, 788384, Note_on_c, 0, 69, 100
2, 788384, Note_off_c, 0, 59, 64
2, 788384, Note_on_c, 0, 55, 100
2, 788512, Note_off_c, 0, 69, 64
2, 788512, Note_off_c, 0, 55, 64
2, 788512, Note_on_c, 0, 59, 100
2, 788512, Note_on_c, 0, 62, 100
2, 788512, Note_off_c, 0, 74, 64
2, 788512, Note_off_c, 0, 47, 64
2, 788512, Note_on_c, 0, 47, 100
2, 788512, Note_on_c, 0, 67, 100
2, 788512, Note_off_c, 0, 62, 64
2, 788512, Note_on_c, 0, 62, 100
2, 788512, Note_on_c, 0, 74, 100
2, 788640, Note_off_c, 0, 67, 64
2, 788640, Note_on_c, 0, 71, 100
2, 788640, Note_on_c, 0, 67, 100
2, 788640, Note_off_c, 0, 62, 64
2, 788640, Note_off_c, 0, 72, 64
2, 788640, Note_on_c, 0, 72, 100
2, 788768, Note_off_c, 0, 67, 64
2, 788768, Note_off_c, 0, 59, 64
2, 788768, Note_off_c, 0, 47, 64
2, 788768, Note_off_c, 0, 72, 64
2, 788768, Note_off_c, 0, 62, 64
2, 788768, Note_on_c, 0, 62, 100
2, 788768, Note_off_c, 0, 79, 64
2, 788768, Note_on_c, 0, 79, 100
2, 788768, Note_off_c, 0, 48, 64
2, 788768, Note_on_c, 0, 48, 100
2, 788896, Note_on_c, 0, 67, 100
2, 788896, Note_off_c, 0, 71, 64
2, 788896, Note_on_c, 0, 71, 100
2, 789024, Note_off_c, 0, 74, 64
2, 789024, Note_off_c, 0, 71, 64
2, 789024, Note_on_c, 0, 59, 100
2, 789024, Note_off_c, 0, 62, 64
2, 789024, Note_off_c, 0, 48, 64
2, 789024, Note_on_c, 0, 60, 100
2, 789024, Note_on_c, 0, 64, 100
2, 789024, Note_on_c, 0, 72, 100
2, 789024, Note_off_c, 0, 67, 64
2, 789024, Note_on_c, 0, 48, 100
2, 789024, Note_off_c, 0, 48, 64
2, 789024, Note_off_c, 0, 36, 64
2, 789024, Note_on_c, 0, 36, 100
2, 789152, Note_on_c, 0, 74, 100
2, 789152, Note_off_c, 0, 59, 64
2, 789152, Note_on_c, 0, 59, 100
2, 789280, Note_on_c, 0, 48, 100
2, 789280, Note_off_c, 0, 36, 64
2, 789280, Note_off_c, 0, 60, 64
2, 789280, Note_off_c, 0, 72, 64
2, 789280, Note_off_c, 0, 74, 64
2, 789280, Note_off_c, 0, 59, 64
2, 789280, Note_off_c, 0, 47, 64
2, 789280, Note_off_c, 0, 35, 64
2, 789280, Note_on_c, 0, 47, 100
2, 789408, Note_on_c, 0, 74, 100
2, 789408, Note_on_c, 0, 76, 100
2, 789408, Note_on_c, 0, 72, 100
2, 789536, Note_off_c, 0, 76, 64
2, 789536, Note_off_c, 0, 64, 64
2, 789536, Note_on_c, 0, 35, 100
2, 789536, Note_on_c, 0, 76, 100
2, 789536, Note_off_c, 0, 47, 64
2, 789536, Note_on_c, 0, 67, 100
2, 789536, Note_on_c, 0, 59, 100
2, 789536, Note_on_c, 0, 60, 100
2, 789536, Note_off_c, 0, 76, 64
2, 789536, Note_on_c, 0, 71, 100
2, 789536, Note_off_c, 0, 48, 64
2, 789536, Note_on_c, 0, 48, 100
2, 789664, Note_on_c, 0, 76, 100
2, 789664, Note_off_c, 0, 71, 64
2, 789664, Note_off_c, 0, 74, 64
2, 789664, Note_on_c, 0, 62, 100
2, 789664, Note_on_c, 0, 77, 100
2, 789792, Note_off_c, 0, 48, 64
2, 789792, Note_off_c, 0, 59, 64
2, 789792, Note_on_c, 0, 36, 100
2, 789792, Note_on_c, 0, 74, 100
2, 789792, Note_off_c, 0, 67, 64
2, 789792, Note_off_c, 0, 77, 64
2, 789792, Note_off_c, 0, 60, 64
2, 789792, Note_on_c, 0, 60, 100
2, 789792, Note_on_c, 0, 48, 100
2, 789920, Note_on_c, 0, 71, 100
2, 789920, Note_off_c, 0, 62, 64
2, 789920, Note_on_c, 0, 77, 100
2, 790048, Note_off_c, 0, 48, 64
2, 790048, Note_off_c, 0, 36, 64
2, 790048, Note_off_c, 0, 60, 64
2, 790048, Note_on_c, 0, 62, 100
2, 790048, Note_off_c, 0, 72, 64
2, 790048, Note_off_c, 0, 77, 64
2, 790048, Note_off_c, 0, 71, 64
2, 790048, Note_on_c, 0, 65, 100
2, 790048, Note_off_c, 0, 50, 64
2, 790048, Note_on_c, 0, 72, 100
2, 790048, Note_on_c, 0, 50, 100
2, 790048, Note_on_c, 0, 38, 100
2, 790176, Note_off_c, 0, 65, 64
2, 790176, Note_off_c, 0, 62, 64
2, 790304, Note_off_c, 0, 38, 64
2, 790304, Note_off_c, 0, 50, 64
2, 790304, Note_on_c, 0, 65, 100
2, 790304, Note_off_c, 0, 10, 64
2, 790304, Note_on_c, 0, 10, 100
2, 790304, End_track
0, 0, End_of_file
