0, 0, Header, 1, 15, 240
1, 0, Start_track
1, 0, Time_signature, 3, 2, 24, 8
1, 0, Tempo, 495868
1, 0, Marker_t, "Menuet 1"
1, 35280, Tempo, 500000
1, 35280, Marker_t, "Menuet 2"
1, 69768, Tempo, 1052632
1, 69840, Tempo, 495868
1, 69840, Marker_t, "Menuet 1 Repeat"
1, 103164, Tempo, 545455
1, 103416, Tempo, 606061
1, 103596, Tempo, 1071429
1, 103680, Tempo, 495868
1, 103680, End_track
2, 0, Start_track
2, 0, Title_t, "Violin1"
2, 0, Program_c, 0, 40
2, 0, Control_c, 0, 7, 100
2, 711, Note_on_c, 0, 72, 89
2, 884, Note_off_c, 0, 72, 64
2, 952, Note_on_c, 0, 76, 87
2, 1029, Note_off_c, 0, 76, 64
2, 1065, Note_on_c, 0, 72, 82
2, 1138, Note_off_c, 0, 72, 64
2, 1189, Note_on_c, 0, 79, 91
2, 1302, Note_off_c, 0, 79, 64
2, 1428, Note_on_c, 0, 81, 85
2, 1573, Note_off_c, 0, 81, 64
2, 1679, Note_on_c, 0, 79, 87
2, 1790, Note_on_c, 0, 77, 64
2, 1802, Note_off_c, 0, 79, 64
2, 1837, Note_on_c, 0, 79, 76
2, 1838, Note_off_c, 0, 77, 64
2, 1880, Note_off_c, 0, 79, 64
2, 1881, Note_on_c, 0, 77, 62
2, 1914, Note_on_c, 0, 79, 68
2, 1943, Note_off_c, 0, 79, 64
2, 1967, Note_on_c, 0, 79, 74
2, 1971, Note_off_c, 0, 77, 64
2, 1997, Note_on_c, 0, 77, 66
2, 2020, Note_off_c, 0, 79, 64
2, 2036, Note_on_c, 0, 76, 66
2, 2044, Note_off_c, 0, 77, 64
2, 2080, Note_on_c, 0, 77, 68
2, 2099, Note_off_c, 0, 76, 64
2, 2142, Note_off_c, 0, 77, 64
2, 2145, Note_on_c, 0, 79, 87
2, 2317, Note_off_c, 0, 79, 64
2, 2391, Note_on_c, 0, 76, 87
2, 2474, Note_off_c, 0, 76, 64
2, 2509, Note_on_c, 0, 72, 76
2, 2577, Note_off_c, 0, 72, 64
2, 2624, Note_on_c, 0, 77, 87
2, 2771, Note_off_c, 0, 77, 64
2, 2877, Note_on_c, 0, 74, 87
2, 2966, Note_off_c, 0, 74, 64
2, 2990, Note_on_c, 0, 72, 72
2, 3093, Note_off_c, 0, 72, 64
2, 3114, Note_on_c, 0, 74, 85
2, 3214, Note_off_c, 0, 74, 64
2, 3233, Note_on_c, 0, 76, 80
2, 3327, Note_off_c, 0, 76, 64
2, 3361, Note_on_c, 0, 77, 87
2, 3459, Note_off_c, 0, 77, 64
2, 3485, Note_on_c, 0, 74, 76
2, 3571, Note_off_c, 0, 74, 64
2, 3607, Note_on_c, 0, 76, 87
2, 3755, Note_off_c, 0, 76, 64
2, 3833, Note_on_c, 0, 79, 89
2, 3912, Note_off_c, 0, 79, 64
2, 3948, Note_on_c, 0, 76, 80
2, 4034, Note_off_c, 0, 76, 64
2, 4073, Note_on_c, 0, 84, 95
2, 4170, Note_off_c, 0, 84, 64
2, 4308, Note_on_c, 0, 79, 89
2, 4366, Note_on_c, 0, 78, 89
2, 4392, Note_off_c, 0, 79, 64
2, 4509, Note_off_c, 0, 78, 64
2, 4549, Note_on_c, 0, 76, 80
2, 4662, Note_on_c, 0, 74, 66
2, 4677, Note_off_c, 0, 76, 64
2, 4741, Note_off_c, 0, 74, 64
2, 4786, Note_on_c, 0, 72, 85
2, 4903, Note_on_c, 0, 71, 56
2, 4908, Note_off_c, 0, 72, 64
2, 4983, Note_off_c, 0, 71, 64
2, 5037, Note_on_c, 0, 76, 87
2, 5154, Note_off_c, 0, 76, 64
2, 5270, Note_on_c, 0, 71, 76
2, 5370, Note_on_c, 0, 69, 51
2, 5377, Note_off_c, 0, 71, 64
2, 5412, Note_off_c, 0, 69, 64
2, 5413, Note_on_c, 0, 71, 72
2, 5451, Note_on_c, 0, 69, 66
2, 5454, Note_off_c, 0, 71, 64
2, 5484, Note_off_c, 0, 69, 64
2, 5484, Note_on_c, 0, 71, 68
2, 5510, Note_on_c, 0, 69, 74
2, 5526, Note_off_c, 0, 71, 64
2, 5617, Note_off_c, 0, 69, 64
2, 5623, Note_on_c, 0, 67, 82
2, 5706, Note_off_c, 0, 67, 64
2, 5764, Note_on_c, 0, 67, 74
2, 6283, Note_off_c, 0, 67, 64
2, 6475, Note_on_c, 0, 72, 82
2, 6659, Note_off_c, 0, 72, 64
2, 6712, Note_on_c, 0, 76, 82
2, 6796, Note_off_c, 0, 76, 64
2, 6832, Note_on_c, 0, 72, 78
2, 6912, Note_off_c, 0, 72, 64
2, 6957, Note_on_c, 0, 79, 87
2, 7081, Note_off_c, 0, 79, 64
2, 7203, Note_on_c, 0, 81, 89
2, 7332, Note_off_c, 0, 81, 64
2, 7444, Note_on_c, 0, 79, 82
2, 7552, Note_on_c, 0, 77, 72
2, 7565, Note_off_c, 0, 79, 64
2, 7599, Note_off_c, 0, 77, 64
2, 7600, Note_on_c, 0, 79, 66
2, 7639, Note_on_c, 0, 77, 72
2, 7640, Note_off_c, 0, 79, 64
2, 7675, Note_on_c, 0, 79, 68
2, 7685, Note_off_c, 0, 77, 64
2, 7703, Note_off_c, 0, 79, 64
2, 7705, Note_on_c, 0, 77, 52
2, 7730, Note_on_c, 0, 79, 72
2, 7732, Note_off_c, 0, 77, 64
2, 7761, Note_on_c, 0, 77, 66
2, 7783, Note_off_c, 0, 79, 64
2, 7797, Note_on_c, 0, 76, 72
2, 7807, Note_off_c, 0, 77, 64
2, 7843, Note_on_c, 0, 77, 68
2, 7859, Note_off_c, 0, 76, 64
2, 7892, Note_on_c, 0, 79, 78
2, 7895, Note_off_c, 0, 77, 64
2, 8089, Note_off_c, 0, 79, 64
2, 8154, Note_on_c, 0, 76, 85
2, 8241, Note_off_c, 0, 76, 64
2, 8272, Note_on_c, 0, 72, 72
2, 8354, Note_off_c, 0, 72, 64
2, 8392, Note_on_c, 0, 77, 87
2, 8522, Note_off_c, 0, 77, 64
2, 8639, Note_on_c, 0, 74, 85
2, 8732, Note_off_c, 0, 74, 64
2, 8752, Note_on_c, 0, 72, 66
2, 8859, Note_off_c, 0, 72, 64
2, 8878, Note_on_c, 0, 74, 80
2, 8982, Note_off_c, 0, 74, 64
2, 8995, Note_on_c, 0, 76, 80
2, 9088, Note_off_c, 0, 76, 64
2, 9108, Note_on_c, 0, 77, 87
2, 9211, Note_off_c, 0, 77, 64
2, 9237, Note_on_c, 0, 74, 72
2, 9309, Note_off_c, 0, 74, 64
2, 9366, Note_on_c, 0, 76, 93
2, 9516, Note_off_c, 0, 76, 64
2, 9597, Note_on_c, 0, 79, 87
2, 9687, Note_off_c, 0, 79, 64
2, 9713, Note_on_c, 0, 76, 80
2, 9814, Note_off_c, 0, 76, 64
2, 9843, Note_on_c, 0, 84, 89
2, 9951, Note_off_c, 0, 84, 64
2, 10081, Note_on_c, 0, 79, 82
2, 10143, Note_on_c, 0, 78, 74
2, 10167, Note_off_c, 0, 79, 64
2, 10277, Note_off_c, 0, 78, 64
2, 10316, Note_on_c, 0, 76, 80
2, 10420, Note_on_c, 0, 74, 74
2, 10430, Note_off_c, 0, 76, 64
2, 10508, Note_off_c, 0, 74, 64
2, 10542, Note_on_c, 0, 72, 87
2, 10652, Note_on_c, 0, 71, 61
2, 10668, Note_off_c, 0, 72, 64
2, 10741, Note_off_c, 0, 71, 64
2, 10780, Note_on_c, 0, 76, 91
2, 10912, Note_off_c, 0, 76, 64
2, 11023, Note_on_c, 0, 71, 78
2, 11128, Note_on_c, 0, 69, 58
2, 11133, Note_off_c, 0, 71, 64
2, 11172, Note_off_c, 0, 69, 64
2, 11174, Note_on_c, 0, 71, 76
2, 11207, Note_off_c, 0, 71, 64
2, 11207, Note_on_c, 0, 69, 80
2, 11242, Note_off_c, 0, 69, 64
2, 11245, Note_on_c, 0, 71, 80
2, 11272, Note_on_c, 0, 69, 80
2, 11289, Note_off_c, 0, 71, 64
2, 11381, Note_off_c, 0, 69, 64
2, 11382, Note_on_c, 0, 67, 76
2, 11461, Note_off_c, 0, 67, 64
2, 11515, Note_on_c, 0, 67, 85
2, 12043, Note_off_c, 0, 67, 64
2, 35267, Note_on_c, 0, 64, 54
2, 35362, Note_off_c, 0, 64, 64
2, 35508, Note_on_c, 0, 69, 58
2, 35729, Note_off_c, 0, 69, 64
2, 35732, Note_on_c, 0, 67, 31
2, 35839, Note_off_c, 0, 67, 64
2, 35975, Note_on_c, 0, 70, 59
2, 36231, Note_on_c, 0, 69, 34
2, 36233, Note_off_c, 0, 70, 64
2, 36333, Note_off_c, 0, 69, 64
2, 36459, Note_on_c, 0, 74, 57
2, 36554, Note_off_c, 0, 74, 64
2, 36698, Note_on_c, 0, 71, 66
2, 36951, Note_on_c, 0, 72, 45
2, 36956, Note_off_c, 0, 71, 64
2, 37061, Note_off_c, 0, 72, 64
2, 37198, Note_on_c, 0, 65, 51
2, 37306, Note_off_c, 0, 65, 64
2, 37415, Note_on_c, 0, 64, 57
2, 37514, Note_on_c, 0, 62, 41
2, 37517, Note_off_c, 0, 64, 64
2, 37555, Note_on_c, 0, 64, 57
2, 37556, Note_off_c, 0, 62, 64
2, 37600, Note_off_c, 0, 64, 64
2, 37600, Note_on_c, 0, 62, 57
2, 37630, Note_on_c, 0, 64, 58
2, 37631, Note_off_c, 0, 62, 64
2, 37666, Note_off_c, 0, 64, 64
2, 37667, Note_on_c, 0, 62, 52
2, 37683, Note_on_c, 0, 64, 60
2, 37690, Note_off_c, 0, 62, 64
2, 37712, Note_on_c, 0, 62, 52
2, 37728, Note_off_c, 0, 64, 64
2, 37868, Note_off_c, 0, 62, 64
2, 37894, Note_on_c, 0, 60, 53
2, 38033, Note_off_c, 0, 60, 64
2, 38165, Note_on_c, 0, 64, 47
2, 38247, Note_off_c, 0, 64, 64
2, 38386, Note_on_c, 0, 69, 58
2, 38620, Note_on_c, 0, 67, 41
2, 38630, Note_off_c, 0, 69, 64
2, 38722, Note_off_c, 0, 67, 64
2, 38861, Note_on_c, 0, 72, 58
2, 39103, Note_on_c, 0, 71, 35
2, 39123, Note_off_c, 0, 72, 64
2, 39198, Note_off_c, 0, 71, 64
2, 39338, Note_on_c, 0, 76, 53
2, 39470, Note_off_c, 0, 76, 64
2, 39584, Note_on_c, 0, 74, 50
2, 39702, Note_off_c, 0, 74, 64
2, 39815, Note_on_c, 0, 67, 46
2, 39937, Note_off_c, 0, 67, 64
2, 40064, Note_on_c, 0, 66, 45
2, 40177, Note_off_c, 0, 66, 64
2, 40310, Note_on_c, 0, 67, 43
2, 40834, Note_off_c, 0, 67, 64
2, 41029, Note_on_c, 0, 64, 53
2, 41138, Note_off_c, 0, 64, 64
2, 41271, Note_on_c, 0, 69, 57
2, 41484, Note_on_c, 0, 67, 41
2, 41494, Note_off_c, 0, 69, 64
2, 41603, Note_off_c, 0, 67, 64
2, 41744, Note_on_c, 0, 70, 57
2, 41979, Note_on_c, 0, 69, 45
2, 41994, Note_off_c, 0, 70, 64
2, 42112, Note_off_c, 0, 69, 64
2, 42232, Note_on_c, 0, 74, 56
2, 42323, Note_off_c, 0, 74, 64
2, 42468, Note_on_c, 0, 71, 57
2, 42701, Note_off_c, 0, 71, 64
2, 42715, Note_on_c, 0, 72, 27
2, 42820, Note_off_c, 0, 72, 64
2, 42947, Note_on_c, 0, 65, 37
2, 43072, Note_off_c, 0, 65, 64
2, 43176, Note_on_c, 0, 64, 53
2, 43269, Note_on_c, 0, 62, 46
2, 43273, Note_off_c, 0, 64, 64
2, 43316, Note_off_c, 0, 62, 64
2, 43316, Note_on_c, 0, 64, 56
2, 43358, Note_off_c, 0, 64, 64
2, 43358, Note_on_c, 0, 62, 57
2, 43391, Note_off_c, 0, 62, 64
2, 43391, Note_on_c, 0, 64, 57
2, 43430, Note_on_c, 0, 62, 58
2, 43449, Note_off_c, 0, 64, 64
2, 43610, Note_off_c, 0, 62, 64
2, 43663, Note_on_c, 0, 60, 53
2, 43777, Note_off_c, 0, 60, 64
2, 43918, Note_on_c, 0, 64, 44
2, 44015, Note_off_c, 0, 64, 64
2, 44147, Note_on_c, 0, 69, 61
2, 44374, Note_on_c, 0, 67, 42
2, 44387, Note_off_c, 0, 69, 64
2, 44487, Note_off_c, 0, 67, 64
2, 44616, Note_on_c, 0, 72, 57
2, 44850, Note_off_c, 0, 72, 64
2, 44851, Note_on_c, 0, 71, 45
2, 44976, Note_off_c, 0, 71, 64
2, 45101, Note_on_c, 0, 76, 48
2, 45199, Note_off_c, 0, 76, 64
2, 45348, Note_on_c, 0, 74, 57
2, 45448, Note_off_c, 0, 74, 64
2, 45579, Note_on_c, 0, 67, 47
2, 45682, Note_off_c, 0, 67, 64
2, 45824, Note_on_c, 0, 66, 44
2, 45918, Note_off_c, 0, 66, 64
2, 46066, Note_on_c, 0, 67, 43
2, 46573, Note_off_c, 0, 67, 64
2, 46789, Note_on_c, 0, 67, 53
2, 46895, Note_off_c, 0, 67, 64
2, 47030, Note_on_c, 0, 72, 53
2, 47263, Note_on_c, 0, 71, 37
2, 47268, Note_off_c, 0, 72, 64
2, 47359, Note_off_c, 0, 71, 64
2, 47509, Note_on_c, 0, 76, 58
2, 47750, Note_on_c, 0, 74, 42
2, 47759, Note_off_c, 0, 76, 64
2, 47851, Note_off_c, 0, 74, 64
2, 47984, Note_on_c, 0, 77, 47
2, 48077, Note_off_c, 0, 77, 64
2, 48226, Note_on_c, 0, 68, 55
2, 48461, Note_off_c, 0, 68, 64
2, 48461, Note_on_c, 0, 69, 47
2, 48578, Note_off_c, 0, 69, 64
2, 48711, Note_on_c, 0, 74, 47
2, 48827, Note_off_c, 0, 74, 64
2, 48941, Note_on_c, 0, 72, 42
2, 49051, Note_off_c, 0, 72, 64
2, 49058, Note_on_c, 0, 71, 30
2, 49097, Note_on_c, 0, 72, 55
2, 49101, Note_off_c, 0, 71, 64
2, 49134, Note_off_c, 0, 72, 64
2, 49137, Note_on_c, 0, 71, 57
2, 49165, Note_on_c, 0, 72, 57
2, 49169, Note_off_c, 0, 71, 64
2, 49202, Note_on_c, 0, 71, 59
2, 49217, Note_off_c, 0, 72, 64
2, 49368, Note_off_c, 0, 71, 64
2, 49407, Note_on_c, 0, 69, 47
2, 49520, Note_off_c, 0, 69, 64
2, 49663, Note_on_c, 0, 60, 38
2, 49774, Note_off_c, 0, 60, 64
2, 49910, Note_on_c, 0, 65, 52
2, 50125, Note_off_c, 0, 65, 64
2, 50132, Note_on_c, 0, 64, 37
2, 50238, Note_off_c, 0, 64, 64
2, 50375, Note_on_c, 0, 69, 56
2, 50597, Note_on_c, 0, 67, 43
2, 50608, Note_off_c, 0, 69, 64
2, 50716, Note_off_c, 0, 67, 64
2, 50868, Note_on_c, 0, 70, 52
2, 50964, Note_off_c, 0, 70, 64
2, 51119, Note_on_c, 0, 69, 56
2, 51336, Note_off_c, 0, 69, 64
2, 51341, Note_on_c, 0, 67, 52
2, 51455, Note_off_c, 0, 67, 64
2, 51580, Note_on_c, 0, 65, 35
2, 51685, Note_off_c, 0, 65, 64
2, 51812, Note_on_c, 0, 64, 41
2, 51958, Note_on_c, 0, 62, 35
2, 51962, Note_off_c, 0, 64, 64
2, 52000, Note_off_c, 0, 62, 64
2, 52000, Note_on_c, 0, 64, 57
2, 52039, Note_on_c, 0, 62, 59
2, 52043, Note_off_c, 0, 64, 64
2, 52075, Note_on_c, 0, 64, 53
2, 52123, Note_off_c, 0, 64, 64
2, 52351, Note_off_c, 0, 62, 64
2, 52560, Note_on_c, 0, 64, 43
2, 52641, Note_off_c, 0, 64, 64
2, 52782, Note_on_c, 0, 69, 57
2, 53016, Note_on_c, 0, 67, 51
2, 53018, Note_off_c, 0, 69, 64
2, 53103, Note_off_c, 0, 67, 64
2, 53266, Note_on_c, 0, 58, 47
2, 53501, Note_off_c, 0, 58, 64
2, 53512, Note_on_c, 0, 57, 41
2, 53595, Note_off_c, 0, 57, 64
2, 53744, Note_on_c, 0, 60, 55
2, 53832, Note_off_c, 0, 60, 64
2, 53993, Note_on_c, 0, 66, 53
2, 54114, Note_off_c, 0, 66, 64
2, 54240, Note_on_c, 0, 69, 63
2, 54456, Note_off_c, 0, 69, 64
2, 54457, Note_on_c, 0, 71, 49
2, 54555, Note_off_c, 0, 71, 64
2, 54697, Note_on_c, 0, 60, 48
2, 54943, Note_off_c, 0, 60, 64
2, 54943, Note_on_c, 0, 59, 52
2, 55041, Note_off_c, 0, 59, 64
2, 55177, Note_on_c, 0, 62, 49
2, 55280, Note_off_c, 0, 62, 64
2, 55435, Note_on_c, 0, 65, 46
2, 55534, Note_off_c, 0, 65, 64
2, 55674, Note_on_c, 0, 71, 62
2, 55897, Note_on_c, 0, 72, 40
2, 55901, Note_off_c, 0, 71, 64
2, 55999, Note_off_c, 0, 72, 64
2, 56134, Note_on_c, 0, 66, 57
2, 56364, Note_on_c, 0, 67, 43
2, 56373, Note_off_c, 0, 66, 64
2, 56462, Note_off_c, 0, 67, 64
2, 56628, Note_on_c, 0, 77, 58
2, 56702, Note_off_c, 0, 77, 64
2, 56864, Note_on_c, 0, 76, 52
2, 56954, Note_off_c, 0, 76, 64
2, 57108, Note_on_c, 0, 72, 43
2, 57202, Note_off_c, 0, 72, 64
2, 57340, Note_on_c, 0, 71, 43
2, 57443, Note_off_c, 0, 71, 64
2, 57587, Note_on_c, 0, 72, 43
2, 58075, Note_off_c, 0, 72, 64
2, 58302, Note_on_c, 0, 67, 40
2, 58408, Note_off_c, 0, 67, 64
2, 58553, Note_on_c, 0, 72, 47
2, 58772, Note_off_c, 0, 72, 64
2, 58773, Note_on_c, 0, 71, 37
2, 58865, Note_off_c, 0, 71, 64
2, 59022, Note_on_c, 0, 76, 60
2, 59256, Note_on_c, 0, 74, 39
2, 59280, Note_off_c, 0, 76, 64
2, 59359, Note_off_c, 0, 74, 64
2, 59503, Note_on_c, 0, 77, 47
2, 59597, Note_off_c, 0, 77, 64
2, 59743, Note_on_c, 0, 68, 57
2, 59984, Note_off_c, 0, 68, 64
2, 59984, Note_on_c, 0, 69, 53
2, 60072, Note_off_c, 0, 69, 64
2, 60230, Note_on_c, 0, 74, 58
2, 60349, Note_off_c, 0, 74, 64
2, 60471, Note_on_c, 0, 72, 45
2, 60566, Note_on_c, 0, 71, 48
2, 60576, Note_off_c, 0, 72, 64
2, 60613, Note_on_c, 0, 72, 60
2, 60617, Note_off_c, 0, 71, 64
2, 60654, Note_off_c, 0, 72, 64
2, 60656, Note_on_c, 0, 71, 58
2, 60690, Note_on_c, 0, 72, 61
2, 60695, Note_off_c, 0, 71, 64
2, 60726, Note_on_c, 0, 71, 53
2, 60746, Note_off_c, 0, 72, 64
2, 60906, Note_off_c, 0, 71, 64
2, 60937, Note_on_c, 0, 69, 47
2, 61048, Note_off_c, 0, 69, 64
2, 61184, Note_on_c, 0, 60, 47
2, 61296, Note_off_c, 0, 60, 64
2, 61435, Note_on_c, 0, 65, 55
2, 61663, Note_off_c, 0, 65, 64
2, 61667, Note_on_c, 0, 64, 28
2, 61781, Note_off_c, 0, 64, 64
2, 61894, Note_on_c, 0, 69, 60
2, 62118, Note_on_c, 0, 67, 29
2, 62127, Note_off_c, 0, 69, 64
2, 62244, Note_off_c, 0, 67, 64
2, 62375, Note_on_c, 0, 70, 52
2, 62496, Note_off_c, 0, 70, 64
2, 62625, Note_on_c, 0, 69, 53
2, 62840, Note_on_c, 0, 67, 36
2, 62863, Note_off_c, 0, 69, 64
2, 62950, Note_off_c, 0, 67, 64
2, 63096, Note_on_c, 0, 65, 53
2, 63219, Note_off_c, 0, 65, 64
2, 63343, Note_on_c, 0, 64, 53
2, 63473, Note_on_c, 0, 62, 35
2, 63483, Note_off_c, 0, 64, 64
2, 63518, Note_on_c, 0, 64, 56
2, 63519, Note_off_c, 0, 62, 64
2, 63558, Note_on_c, 0, 62, 53
2, 63621, Note_off_c, 0, 64, 64
2, 63871, Note_off_c, 0, 62, 64
2, 64061, Note_on_c, 0, 64, 49
2, 64160, Note_off_c, 0, 64, 64
2, 64307, Note_on_c, 0, 69, 53
2, 64531, Note_on_c, 0, 67, 27
2, 64543, Note_off_c, 0, 69, 64
2, 64629, Note_off_c, 0, 67, 64
2, 64778, Note_on_c, 0, 58, 53
2, 65020, Note_on_c, 0, 57, 35
2, 65028, Note_off_c, 0, 58, 64
2, 65117, Note_off_c, 0, 57, 64
2, 65260, Note_on_c, 0, 60, 52
2, 65350, Note_off_c, 0, 60, 64
2, 65502, Note_on_c, 0, 66, 52
2, 65627, Note_off_c, 0, 66, 64
2, 65761, Note_on_c, 0, 69, 60
2, 65980, Note_on_c, 0, 71, 36
2, 65996, Note_off_c, 0, 69, 64
2, 66088, Note_off_c, 0, 71, 64
2, 66219, Note_on_c, 0, 60, 53
2, 66473, Note_on_c, 0, 59, 39
2, 66484, Note_off_c, 0, 60, 64
2, 66573, Note_off_c, 0, 59, 64
2, 66712, Note_on_c, 0, 62, 52
2, 66815, Note_off_c, 0, 62, 64
2, 66964, Note_on_c, 0, 65, 39
2, 67058, Note_off_c, 0, 65, 64
2, 67187, Note_on_c, 0, 71, 60
2, 67418, Note_on_c, 0, 72, 37
2, 67433, Note_off_c, 0, 71, 64
2, 67523, Note_off_c, 0, 72, 64
2, 67651, Note_on_c, 0, 66, 55
2, 67898, Note_on_c, 0, 67, 53
2, 67905, Note_off_c, 0, 66, 64
2, 67996, Note_off_c, 0, 67, 64
2, 68149, Note_on_c, 0, 77, 59
2, 68237, Note_off_c, 0, 77, 64
2, 68386, Note_on_c, 0, 76, 50
2, 68477, Note_off_c, 0, 76, 64
2, 68618, Note_on_c, 0, 72, 43
2, 68712, Note_off_c, 0, 72, 64
2, 68855, Note_on_c, 0, 71, 44
2, 68962, Note_off_c, 0, 71, 64
2, 69113, Note_on_c, 0, 72, 39
2, 69607, Note_off_c, 0, 72, 64
2, 81362, Note_on_c, 0, 67, 72
2, 81487, Note_off_c, 0, 67, 64
2, 81593, Note_on_c, 0, 71, 80
2, 81668, Note_off_c, 0, 71, 64
2, 81703, Note_on_c, 0, 67, 70
2, 81774, Note_off_c, 0, 67, 64
2, 81829, Note_on_c, 0, 74, 87
2, 81933, Note_off_c, 0, 74, 64
2, 82071, Note_on_c, 0, 77, 82
2, 82190, Note_off_c, 0, 77, 64
2, 82304, Note_on_c, 0, 76, 76
2, 82411, Note_on_c, 0, 74, 63
2, 82428, Note_off_c, 0, 76, 64
2, 82459, Note_off_c, 0, 74, 64
2, 82459, Note_on_c, 0, 76, 63
2, 82499, Note_on_c, 0, 74, 66
2, 82501, Note_off_c, 0, 76, 64
2, 82535, Note_on_c, 0, 76, 70
2, 82538, Note_off_c, 0, 74, 64
2, 82570, Note_on_c, 0, 74, 70
2, 82571, Note_off_c, 0, 76, 64
2, 82600, Note_on_c, 0, 76, 64
2, 82604, Note_off_c, 0, 74, 64
2, 82626, Note_on_c, 0, 74, 57
2, 82644, Note_off_c, 0, 76, 64
2, 82653, Note_on_c, 0, 72, 64
2, 82668, Note_off_c, 0, 74, 64
2, 82706, Note_on_c, 0, 74, 59
2, 82729, Note_off_c, 0, 72, 64
2, 82764, Note_on_c, 0, 76, 64
2, 82770, Note_off_c, 0, 74, 64
2, 82914, Note_off_c, 0, 76, 64
2, 83023, Note_on_c, 0, 72, 76
2, 83093, Note_off_c, 0, 72, 64
2, 83134, Note_on_c, 0, 69, 64
2, 83210, Note_off_c, 0, 69, 64
2, 83261, Note_on_c, 0, 81, 85
2, 83368, Note_off_c, 0, 81, 64
2, 83505, Note_on_c, 0, 80, 98
2, 83617, Note_on_c, 0, 81, 82
2, 83647, Note_off_c, 0, 80, 64
2, 83737, Note_on_c, 0, 83, 70
2, 83758, Note_off_c, 0, 81, 64
2, 83799, Note_off_c, 0, 83, 64
2, 83860, Note_on_c, 0, 80, 64
2, 83915, Note_off_c, 0, 80, 64
2, 83984, Note_on_c, 0, 76, 76
2, 84052, Note_off_c, 0, 76, 64
2, 84103, Note_on_c, 0, 74, 66
2, 84172, Note_off_c, 0, 74, 64
2, 84239, Note_on_c, 0, 72, 82
2, 84370, Note_off_c, 0, 72, 64
2, 84470, Note_on_c, 0, 76, 76
2, 84550, Note_off_c, 0, 76, 64
2, 84577, Note_on_c, 0, 72, 66
2, 84634, Note_off_c, 0, 72, 64
2, 84702, Note_on_c, 0, 81, 80
2, 84796, Note_off_c, 0, 81, 64
2, 84938, Note_on_c, 0, 71, 74
2, 85036, Note_off_c, 0, 71, 64
2, 85060, Note_on_c, 0, 72, 80
2, 85133, Note_off_c, 0, 72, 64
2, 85184, Note_on_c, 0, 74, 78
2, 85468, Note_off_c, 0, 74, 64
2, 85543, Note_on_c, 0, 77, 82
2, 85613, Note_off_c, 0, 77, 64
2, 85667, Note_on_c, 0, 76, 78
2, 85844, Note_off_c, 0, 76, 64
2, 85910, Note_on_c, 0, 74, 76
2, 86015, Note_on_c, 0, 72, 64
2, 86021, Note_off_c, 0, 74, 64
2, 86087, Note_off_c, 0, 72, 64
2, 86134, Note_on_c, 0, 71, 68
2, 86250, Note_on_c, 0, 72, 72
2, 86261, Note_off_c, 0, 71, 64
2, 86344, Note_off_c, 0, 72, 64
2, 86392, Note_on_c, 0, 69, 66
2, 87007, Note_off_c, 0, 69, 64
2, 87119, Note_on_c, 0, 67, 82
2, 87240, Note_off_c, 0, 67, 64
2, 87348, Note_on_c, 0, 72, 80
2, 87419, Note_off_c, 0, 72, 64
2, 87458, Note_on_c, 0, 67, 62
2, 87536, Note_off_c, 0, 67, 64
2, 87587, Note_on_c, 0, 76, 89
2, 87695, Note_off_c, 0, 76, 64
2, 87825, Note_on_c, 0, 69, 78
2, 87926, Note_off_c, 0, 69, 64
2, 87944, Note_on_c, 0, 71, 82
2, 88019, Note_off_c, 0, 71, 64
2, 88058, Note_on_c, 0, 72, 82
2, 88165, Note_on_c, 0, 71, 58
2, 88183, Note_off_c, 0, 72, 64
2, 88213, Note_off_c, 0, 71, 64
2, 88218, Note_on_c, 0, 72, 60
2, 88252, Note_on_c, 0, 71, 66
2, 88256, Note_off_c, 0, 72, 64
2, 88289, Note_off_c, 0, 71, 64
2, 88292, Note_on_c, 0, 72, 80
2, 88322, Note_off_c, 0, 72, 64
2, 88322, Note_on_c, 0, 71, 64
2, 88348, Note_on_c, 0, 72, 76
2, 88355, Note_off_c, 0, 71, 64
2, 88379, Note_on_c, 0, 71, 68
2, 88396, Note_off_c, 0, 72, 64
2, 88418, Note_on_c, 0, 69, 66
2, 88423, Note_off_c, 0, 71, 64
2, 88459, Note_on_c, 0, 71, 74
2, 88486, Note_off_c, 0, 69, 64
2, 88523, Note_off_c, 0, 71, 64
2, 88523, Note_on_c, 0, 72, 85
2, 88676, Note_off_c, 0, 72, 64
2, 88789, Note_on_c, 0, 77, 85
2, 88871, Note_off_c, 0, 77, 64
2, 88898, Note_on_c, 0, 72, 64
2, 88980, Note_off_c, 0, 72, 64
2, 89024, Note_on_c, 0, 81, 95
2, 89129, Note_off_c, 0, 81, 64
2, 89262, Note_on_c, 0, 71, 80
2, 89356, Note_off_c, 0, 71, 64
2, 89381, Note_on_c, 0, 72, 82
2, 89457, Note_off_c, 0, 72, 64
2, 89497, Note_on_c, 0, 74, 80
2, 89602, Note_on_c, 0, 72, 60
2, 89615, Note_off_c, 0, 74, 64
2, 89647, Note_off_c, 0, 72, 64
2, 89652, Note_on_c, 0, 74, 63
2, 89689, Note_on_c, 0, 72, 62
2, 89692, Note_off_c, 0, 74, 64
2, 89724, Note_off_c, 0, 72, 64
2, 89725, Note_on_c, 0, 74, 64
2, 89755, Note_off_c, 0, 74, 64
2, 89755, Note_on_c, 0, 72, 60
2, 89778, Note_on_c, 0, 74, 60
2, 89781, Note_off_c, 0, 72, 64
2, 89807, Note_on_c, 0, 72, 66
2, 89828, Note_off_c, 0, 74, 64
2, 89853, Note_on_c, 0, 71, 70
2, 89854, Note_off_c, 0, 72, 64
2, 89889, Note_on_c, 0, 72, 64
2, 89920, Note_off_c, 0, 71, 64
2, 89958, Note_on_c, 0, 74, 66
2, 89961, Note_off_c, 0, 72, 64
2, 90127, Note_off_c, 0, 74, 64
2, 90213, Note_on_c, 0, 71, 72
2, 90306, Note_off_c, 0, 71, 64
2, 90325, Note_on_c, 0, 67, 64
2, 90415, Note_off_c, 0, 67, 64
2, 90455, Note_on_c, 0, 77, 95
2, 90579, Note_off_c, 0, 77, 64
2, 90707, Note_on_c, 0, 76, 80
2, 90830, Note_off_c, 0, 76, 64
2, 90955, Note_on_c, 0, 81, 87
2, 91064, Note_on_c, 0, 79, 85
2, 91068, Note_off_c, 0, 81, 64
2, 91176, Note_off_c, 0, 79, 64
2, 91189, Note_on_c, 0, 81, 91
2, 91298, Note_on_c, 0, 77, 82
2, 91299, Note_off_c, 0, 81, 64
2, 91395, Note_off_c, 0, 77, 64
2, 91424, Note_on_c, 0, 79, 95
2, 91508, Note_off_c, 0, 79, 64
2, 91668, Note_on_c, 0, 72, 82
2, 91756, Note_off_c, 0, 72, 64
2, 91909, Note_on_c, 0, 71, 82
2, 91997, Note_off_c, 0, 71, 64
2, 92161, Note_on_c, 0, 72, 80
2, 92685, Note_off_c, 0, 72, 64
2, 92877, Note_on_c, 0, 67, 82
2, 93002, Note_off_c, 0, 67, 64
2, 93116, Note_on_c, 0, 71, 78
2, 93190, Note_off_c, 0, 71, 64
2, 93228, Note_on_c, 0, 67, 68
2, 93295, Note_off_c, 0, 67, 64
2, 93353, Note_on_c, 0, 74, 89
2, 93450, Note_off_c, 0, 74, 64
2, 93592, Note_on_c, 0, 77, 91
2, 93702, Note_off_c, 0, 77, 64
2, 93829, Note_on_c, 0, 76, 80
2, 93919, Note_on_c, 0, 74, 70
2, 93936, Note_off_c, 0, 76, 64
2, 93968, Note_off_c, 0, 74, 64
2, 93969, Note_on_c, 0, 76, 70
2, 94007, Note_on_c, 0, 74, 66
2, 94011, Note_off_c, 0, 76, 64
2, 94042, Note_off_c, 0, 74, 64
2, 94045, Note_on_c, 0, 76, 66
2, 94072, Note_off_c, 0, 76, 64
2, 94072, Note_on_c, 0, 74, 64
2, 94104, Note_on_c, 0, 76, 64
2, 94108, Note_off_c, 0, 74, 64
2, 94132, Note_on_c, 0, 74, 70
2, 94155, Note_off_c, 0, 76, 64
2, 94183, Note_off_c, 0, 74, 64
2, 94183, Note_on_c, 0, 72, 74
2, 94233, Note_on_c, 0, 74, 62
2, 94256, Note_off_c, 0, 72, 64
2, 94306, Note_off_c, 0, 74, 64
2, 94311, Note_on_c, 0, 76, 80
2, 94452, Note_off_c, 0, 76, 64
2, 94550, Note_on_c, 0, 72, 82
2, 94627, Note_off_c, 0, 72, 64
2, 94659, Note_on_c, 0, 69, 62
2, 94735, Note_off_c, 0, 69, 64
2, 94790, Note_on_c, 0, 81, 85
2, 94903, Note_off_c, 0, 81, 64
2, 95030, Note_on_c, 0, 80, 87
2, 95152, Note_on_c, 0, 81, 82
2, 95177, Note_off_c, 0, 80, 64
2, 95265, Note_on_c, 0, 83, 85
2, 95275, Note_off_c, 0, 81, 64
2, 95326, Note_off_c, 0, 83, 64
2, 95385, Note_on_c, 0, 80, 68
2, 95445, Note_off_c, 0, 80, 64
2, 95510, Note_on_c, 0, 76, 68
2, 95569, Note_off_c, 0, 76, 64
2, 95624, Note_on_c, 0, 74, 68
2, 95697, Note_off_c, 0, 74, 64
2, 95753, Note_on_c, 0, 72, 78
2, 95889, Note_off_c, 0, 72, 64
2, 95994, Note_on_c, 0, 76, 82
2, 96099, Note_off_c, 0, 76, 64
2, 96100, Note_on_c, 0, 72, 68
2, 96162, Note_off_c, 0, 72, 64
2, 96240, Note_on_c, 0, 81, 93
2, 96335, Note_off_c, 0, 81, 64
2, 96475, Note_on_c, 0, 71, 80
2, 96576, Note_off_c, 0, 71, 64
2, 96591, Note_on_c, 0, 72, 80
2, 96663, Note_off_c, 0, 72, 64
2, 96706, Note_on_c, 0, 74, 82
2, 96988, Note_off_c, 0, 74, 64
2, 97064, Note_on_c, 0, 77, 80
2, 97136, Note_off_c, 0, 77, 64
2, 97187, Note_on_c, 0, 76, 78
2, 97350, Note_off_c, 0, 76, 64
2, 97428, Note_on_c, 0, 74, 82
2, 97534, Note_off_c, 0, 74, 64
2, 97534, Note_on_c, 0, 72, 66
2, 97628, Note_off_c, 0, 72, 64
2, 97652, Note_on_c, 0, 71, 78
2, 97772, Note_on_c, 0, 72, 68
2, 97773, Note_off_c, 0, 71, 64
2, 97871, Note_off_c, 0, 72, 64
2, 97905, Note_on_c, 0, 69, 66
2, 98488, Note_off_c, 0, 69, 64
2, 98623, Note_on_c, 0, 67, 76
2, 98764, Note_off_c, 0, 67, 64
2, 98877, Note_on_c, 0, 72, 80
2, 98953, Note_off_c, 0, 72, 64
2, 98991, Note_on_c, 0, 67, 63
2, 99084, Note_off_c, 0, 67, 64
2, 99111, Note_on_c, 0, 76, 87
2, 99226, Note_off_c, 0, 76, 64
2, 99350, Note_on_c, 0, 69, 80
2, 99445, Note_off_c, 0, 69, 64
2, 99464, Note_on_c, 0, 71, 85
2, 99541, Note_off_c, 0, 71, 64
2, 99576, Note_on_c, 0, 72, 80
2, 99678, Note_on_c, 0, 71, 48
2, 99690, Note_off_c, 0, 72, 64
2, 99719, Note_off_c, 0, 71, 64
2, 99722, Note_on_c, 0, 72, 62
2, 99762, Note_on_c, 0, 71, 60
2, 99765, Note_off_c, 0, 72, 64
2, 99799, Note_off_c, 0, 71, 64
2, 99801, Note_on_c, 0, 72, 66
2, 99827, Note_on_c, 0, 71, 59
2, 99828, Note_off_c, 0, 72, 64
2, 99856, Note_off_c, 0, 71, 64
2, 99862, Note_on_c, 0, 72, 68
2, 99887, Note_on_c, 0, 71, 66
2, 99909, Note_off_c, 0, 72, 64
2, 99940, Note_on_c, 0, 69, 70
2, 99941, Note_off_c, 0, 71, 64
2, 99980, Note_on_c, 0, 71, 68
2, 100012, Note_off_c, 0, 69, 64
2, 100051, Note_off_c, 0, 71, 64
2, 100054, Note_on_c, 0, 72, 80
2, 100202, Note_off_c, 0, 72, 64
2, 100313, Note_on_c, 0, 77, 82
2, 100383, Note_off_c, 0, 77, 64
2, 100422, Note_on_c, 0, 72, 68
2, 100507, Note_off_c, 0, 72, 64
2, 100543, Note_on_c, 0, 81, 91
2, 100655, Note_off_c, 0, 81, 64
2, 100783, Note_on_c, 0, 71, 82
2, 100875, Note_off_c, 0, 71, 64
2, 100898, Note_on_c, 0, 72, 87
2, 100979, Note_off_c, 0, 72, 64
2, 101019, Note_on_c, 0, 74, 80
2, 101097, Note_on_c, 0, 72, 61
2, 101108, Note_off_c, 0, 74, 64
2, 101144, Note_off_c, 0, 72, 64
2, 101147, Note_on_c, 0, 74, 68
2, 101184, Note_on_c, 0, 72, 64
2, 101190, Note_off_c, 0, 74, 64
2, 101222, Note_on_c, 0, 74, 68
2, 101226, Note_off_c, 0, 72, 64
2, 101252, Note_on_c, 0, 72, 58
2, 101253, Note_off_c, 0, 74, 64
2, 101280, Note_on_c, 0, 74, 68
2, 101285, Note_off_c, 0, 72, 64
2, 101312, Note_on_c, 0, 72, 68
2, 101356, Note_off_c, 0, 74, 64
2, 101374, Note_on_c, 0, 71, 60
2, 101395, Note_off_c, 0, 72, 64
2, 101430, Note_on_c, 0, 72, 64
2, 101461, Note_off_c, 0, 71, 64
2, 101502, Note_off_c, 0, 72, 64
2, 101503, Note_on_c, 0, 74, 85
2, 101649, Note_off_c, 0, 74, 64
2, 101750, Note_on_c, 0, 71, 80
2, 101827, Note_off_c, 0, 71, 64
2, 101855, Note_on_c, 0, 67, 70
2, 101937, Note_off_c, 0, 67, 64
2, 101976, Note_on_c, 0, 77, 95
2, 102101, Note_off_c, 0, 77, 64
2, 102226, Note_on_c, 0, 76, 72
2, 102363, Note_off_c, 0, 76, 64
2, 102479, Note_on_c, 0, 81, 89
2, 102586, Note_on_c, 0, 79, 82
2, 102592, Note_off_c, 0, 81, 64
2, 102686, Note_off_c, 0, 79, 64
2, 102711, Note_on_c, 0, 81, 87
2, 102812, Note_off_c, 0, 81, 64
2, 102824, Note_on_c, 0, 77, 85
2, 102909, Note_off_c, 0, 77, 64
2, 102944, Note_on_c, 0, 79, 85
2, 103033, Note_off_c, 0, 79, 64
2, 103198, Note_on_c, 0, 72, 82
2, 103278, Note_off_c, 0, 72, 64
2, 103434, Note_on_c, 0, 71, 80
2, 103531, Note_off_c, 0, 71, 64
2, 103687, Note_on_c, 0, 72, 85
2, 104187, Note_off_c, 0, 72, 64
2, 104187, End_track
3, 0, Start_track
3, 0, Title_t, "Violin2"
3, 0, Program_c, 1, 40
3, 0, Control_c, 1, 7, 100
3, 728, Note_on_c, 1, 67, 85
3, 834, Note_off_c, 1, 67, 64
3, 957, Note_on_c, 1, 72, 82
3, 1059, Note_off_c, 1, 72, 64
3, 1200, Note_on_c, 1, 72, 82
3, 1289, Note_off_c, 1, 72, 64
3, 1438, Note_on_c, 1, 72, 87
3, 1555, Note_off_c, 1, 72, 64
3, 1681, Note_on_c, 1, 69, 82
3, 1774, Note_off_c, 1, 69, 64
3, 1926, Note_on_c, 1, 69, 80
3, 2025, Note_off_c, 1, 69, 64
3, 2164, Note_on_c, 1, 74, 85
3, 2264, Note_off_c, 1, 74, 64
3, 2407, Note_on_c, 1, 72, 82
3, 2499, Note_off_c, 1, 72, 64
3, 2646, Note_on_c, 1, 74, 87
3, 2739, Note_off_c, 1, 74, 64
3, 2895, Note_on_c, 1, 71, 87
3, 2989, Note_off_c, 1, 71, 64
3, 3122, Note_on_c, 1, 74, 78
3, 3208, Note_off_c, 1, 74, 64
3, 3361, Note_on_c, 1, 71, 72
3, 3446, Note_off_c, 1, 71, 64
3, 3607, Note_on_c, 1, 72, 78
3, 3958, Note_off_c, 1, 72, 64
3, 4080, Note_on_c, 1, 76, 80
3, 4171, Note_off_c, 1, 76, 64
3, 4314, Note_on_c, 1, 74, 87
3, 4420, Note_off_c, 1, 74, 64
3, 4546, Note_on_c, 1, 69, 72
3, 4650, Note_off_c, 1, 69, 64
3, 4791, Note_on_c, 1, 67, 70
3, 4884, Note_off_c, 1, 67, 64
3, 5034, Note_on_c, 1, 67, 82
3, 5107, Note_off_c, 1, 67, 64
3, 5146, Note_on_c, 1, 69, 82
3, 5200, Note_off_c, 1, 69, 64
3, 5263, Note_on_c, 1, 67, 82
3, 5372, Note_on_c, 1, 66, 74
3, 5377, Note_off_c, 1, 67, 64
3, 5408, Note_off_c, 1, 66, 64
3, 5409, Note_on_c, 1, 67, 70
3, 5445, Note_on_c, 1, 66, 66
3, 5455, Note_off_c, 1, 67, 64
3, 5480, Note_on_c, 1, 67, 68
3, 5482, Note_off_c, 1, 66, 64
3, 5513, Note_on_c, 1, 66, 80
3, 5526, Note_off_c, 1, 67, 64
3, 5634, Note_off_c, 1, 66, 64
3, 5639, Note_on_c, 1, 62, 80
3, 5697, Note_off_c, 1, 62, 64
3, 5768, Note_on_c, 1, 62, 80
3, 6328, Note_off_c, 1, 62, 64
3, 6475, Note_on_c, 1, 67, 82
3, 6588, Note_off_c, 1, 67, 64
3, 6714, Note_on_c, 1, 72, 80
3, 6810, Note_off_c, 1, 72, 64
3, 6968, Note_on_c, 1, 72, 80
3, 7070, Note_off_c, 1, 72, 64
3, 7209, Note_on_c, 1, 72, 85
3, 7322, Note_off_c, 1, 72, 64
3, 7437, Note_on_c, 1, 69, 68
3, 7546, Note_off_c, 1, 69, 64
3, 7690, Note_on_c, 1, 69, 80
3, 7780, Note_off_c, 1, 69, 64
3, 7924, Note_on_c, 1, 74, 82
3, 8037, Note_off_c, 1, 74, 64
3, 8170, Note_on_c, 1, 72, 82
3, 8264, Note_off_c, 1, 72, 64
3, 8404, Note_on_c, 1, 74, 80
3, 8504, Note_off_c, 1, 74, 64
3, 8650, Note_on_c, 1, 71, 85
3, 8756, Note_off_c, 1, 71, 64
3, 8882, Note_on_c, 1, 74, 82
3, 8991, Note_off_c, 1, 74, 64
3, 9128, Note_on_c, 1, 71, 78
3, 9217, Note_off_c, 1, 71, 64
3, 9359, Note_on_c, 1, 72, 85
3, 9725, Note_off_c, 1, 72, 64
3, 9840, Note_on_c, 1, 76, 82
3, 9947, Note_off_c, 1, 76, 64
3, 10078, Note_on_c, 1, 74, 82
3, 10223, Note_off_c, 1, 74, 64
3, 10310, Note_on_c, 1, 69, 64
3, 10414, Note_off_c, 1, 69, 64
3, 10541, Note_on_c, 1, 67, 78
3, 10653, Note_off_c, 1, 67, 64
3, 10776, Note_on_c, 1, 67, 68
3, 10856, Note_off_c, 1, 67, 64
3, 10898, Note_on_c, 1, 69, 85
3, 10960, Note_off_c, 1, 69, 64
3, 11014, Note_on_c, 1, 67, 78
3, 11132, Note_on_c, 1, 66, 64
3, 11137, Note_off_c, 1, 67, 64
3, 11167, Note_on_c, 1, 67, 68
3, 11170, Note_off_c, 1, 66, 64
3, 11205, Note_on_c, 1, 66, 72
3, 11214, Note_off_c, 1, 67, 64
3, 11235, Note_on_c, 1, 67, 78
3, 11244, Note_off_c, 1, 66, 64
3, 11272, Note_on_c, 1, 66, 82
3, 11287, Note_off_c, 1, 67, 64
3, 11386, Note_off_c, 1, 66, 64
3, 11390, Note_on_c, 1, 62, 85
3, 11463, Note_off_c, 1, 62, 64
3, 11516, Note_on_c, 1, 62, 70
3, 12051, Note_off_c, 1, 62, 64
3, 35259, Note_on_c, 1, 60, 48
3, 35369, Note_off_c, 1, 60, 64
3, 35506, Note_on_c, 1, 65, 48
3, 35728, Note_on_c, 1, 64, 45
3, 35759, Note_off_c, 1, 65, 64
3, 35856, Note_off_c, 1, 64, 64
3, 35979, Note_on_c, 1, 67, 52
3, 36215, Note_on_c, 1, 65, 33
3, 36236, Note_off_c, 1, 67, 64
3, 36338, Note_off_c, 1, 65, 64
3, 36455, Note_on_c, 1, 69, 34
3, 36557, Note_off_c, 1, 69, 64
3, 36694, Note_on_c, 1, 67, 45
3, 37049, Note_off_c, 1, 67, 64
3, 37182, Note_on_c, 1, 60, 32
3, 37279, Note_off_c, 1, 60, 64
3, 37433, Note_on_c, 1, 60, 48
3, 37661, Note_on_c, 1, 59, 30
3, 37684, Note_off_c, 1, 60, 64
3, 37773, Note_off_c, 1, 59, 64
3, 37897, Note_on_c, 1, 55, 41
3, 37990, Note_off_c, 1, 55, 64
3, 38144, Note_on_c, 1, 60, 52
3, 38240, Note_off_c, 1, 60, 64
3, 38385, Note_on_c, 1, 64, 55
3, 38608, Note_on_c, 1, 62, 25
3, 38618, Note_off_c, 1, 64, 64
3, 38732, Note_off_c, 1, 62, 64
3, 38853, Note_on_c, 1, 66, 47
3, 39099, Note_on_c, 1, 67, 53
3, 39111, Note_off_c, 1, 66, 64
3, 39213, Note_off_c, 1, 67, 64
3, 39335, Note_on_c, 1, 72, 51
3, 39443, Note_off_c, 1, 72, 64
3, 39580, Note_on_c, 1, 71, 48
3, 39675, Note_off_c, 1, 71, 64
3, 39826, Note_on_c, 1, 62, 42
3, 39936, Note_off_c, 1, 62, 64
3, 40068, Note_on_c, 1, 62, 42
3, 40175, Note_off_c, 1, 62, 64
3, 40314, Note_on_c, 1, 62, 38
3, 40881, Note_off_c, 1, 62, 64
3, 41027, Note_on_c, 1, 60, 52
3, 41150, Note_off_c, 1, 60, 64
3, 41267, Note_on_c, 1, 65, 54
3, 41510, Note_on_c, 1, 64, 28
3, 41511, Note_off_c, 1, 65, 64
3, 41629, Note_off_c, 1, 64, 64
3, 41742, Note_on_c, 1, 67, 57
3, 41983, Note_on_c, 1, 65, 42
3, 41996, Note_off_c, 1, 67, 64
3, 42090, Note_off_c, 1, 65, 64
3, 42222, Note_on_c, 1, 69, 46
3, 42309, Note_off_c, 1, 69, 64
3, 42473, Note_on_c, 1, 67, 41
3, 42796, Note_off_c, 1, 67, 64
3, 42948, Note_on_c, 1, 60, 46
3, 43059, Note_off_c, 1, 60, 64
3, 43201, Note_on_c, 1, 60, 54
3, 43424, Note_on_c, 1, 59, 35
3, 43440, Note_off_c, 1, 60, 64
3, 43537, Note_off_c, 1, 59, 64
3, 43659, Note_on_c, 1, 55, 41
3, 43760, Note_off_c, 1, 55, 64
3, 43914, Note_on_c, 1, 60, 46
3, 44020, Note_off_c, 1, 60, 64
3, 44151, Note_on_c, 1, 64, 57
3, 44381, Note_off_c, 1, 64, 64
3, 44391, Note_on_c, 1, 62, 48
3, 44502, Note_off_c, 1, 62, 64
3, 44614, Note_on_c, 1, 66, 51
3, 44860, Note_on_c, 1, 67, 52
3, 44875, Note_off_c, 1, 66, 64
3, 44976, Note_off_c, 1, 67, 64
3, 45100, Note_on_c, 1, 72, 57
3, 45200, Note_off_c, 1, 72, 64
3, 45351, Note_on_c, 1, 71, 51
3, 45446, Note_off_c, 1, 71, 64
3, 45593, Note_on_c, 1, 62, 39
3, 45690, Note_off_c, 1, 62, 64
3, 45823, Note_on_c, 1, 62, 42
3, 45926, Note_off_c, 1, 62, 64
3, 46065, Note_on_c, 1, 62, 41
3, 46636, Note_off_c, 1, 62, 64
3, 46765, Note_on_c, 1, 62, 49
3, 46891, Note_off_c, 1, 62, 64
3, 47031, Note_on_c, 1, 64, 57
3, 47255, Note_off_c, 1, 64, 64
3, 47259, Note_on_c, 1, 62, 51
3, 47384, Note_off_c, 1, 62, 64
3, 47505, Note_on_c, 1, 71, 55
3, 47731, Note_on_c, 1, 68, 46
3, 47745, Note_off_c, 1, 71, 64
3, 47860, Note_off_c, 1, 68, 64
3, 47985, Note_on_c, 1, 69, 52
3, 48097, Note_off_c, 1, 69, 64
3, 48230, Note_on_c, 1, 65, 47
3, 48463, Note_on_c, 1, 64, 48
3, 48468, Note_off_c, 1, 65, 64
3, 48574, Note_off_c, 1, 64, 64
3, 48708, Note_on_c, 1, 69, 53
3, 48800, Note_off_c, 1, 69, 64
3, 48953, Note_on_c, 1, 69, 57
3, 49179, Note_on_c, 1, 68, 47
3, 49189, Note_off_c, 1, 69, 64
3, 49296, Note_off_c, 1, 68, 64
3, 49427, Note_on_c, 1, 64, 46
3, 49515, Note_off_c, 1, 64, 64
3, 49676, Note_on_c, 1, 57, 48
3, 49751, Note_off_c, 1, 57, 64
3, 49911, Note_on_c, 1, 60, 51
3, 50150, Note_on_c, 1, 64, 52
3, 50158, Note_off_c, 1, 60, 64
3, 50242, Note_off_c, 1, 64, 64
3, 50372, Note_on_c, 1, 65, 52
3, 50611, Note_off_c, 1, 65, 64
3, 50614, Note_on_c, 1, 58, 34
3, 50723, Note_off_c, 1, 58, 64
3, 50851, Note_on_c, 1, 60, 51
3, 50938, Note_off_c, 1, 60, 64
3, 51117, Note_on_c, 1, 60, 43
3, 51488, Note_off_c, 1, 60, 64
3, 51595, Note_on_c, 1, 60, 41
3, 51699, Note_off_c, 1, 60, 64
3, 51828, Note_on_c, 1, 59, 57
3, 52082, Note_on_c, 1, 60, 44
3, 52094, Note_off_c, 1, 59, 64
3, 52165, Note_off_c, 1, 60, 64
3, 52328, Note_on_c, 1, 62, 43
3, 52441, Note_off_c, 1, 62, 64
3, 52552, Note_on_c, 1, 60, 44
3, 52879, Note_off_c, 1, 60, 64
3, 53020, Note_on_c, 1, 60, 42
3, 53125, Note_off_c, 1, 60, 64
3, 53267, Note_on_c, 1, 64, 59
3, 53510, Note_off_c, 1, 64, 64
3, 53520, Note_on_c, 1, 65, 25
3, 53657, Note_off_c, 1, 65, 64
3, 54000, Note_on_c, 1, 62, 50
3, 54594, Note_off_c, 1, 62, 64
3, 54701, Note_on_c, 1, 66, 57
3, 54962, Note_on_c, 1, 67, 38
3, 54966, Note_off_c, 1, 66, 64
3, 55091, Note_off_c, 1, 67, 64
3, 55435, Note_on_c, 1, 62, 44
3, 55537, Note_off_c, 1, 62, 64
3, 55677, Note_on_c, 1, 65, 59
3, 55908, Note_on_c, 1, 67, 43
3, 55928, Note_off_c, 1, 65, 64
3, 56012, Note_off_c, 1, 67, 64
3, 56147, Note_on_c, 1, 60, 58
3, 56400, Note_on_c, 1, 62, 30
3, 56419, Note_off_c, 1, 60, 64
3, 56520, Note_off_c, 1, 62, 64
3, 56876, Note_on_c, 1, 60, 50
3, 56993, Note_off_c, 1, 60, 64
3, 57111, Note_on_c, 1, 67, 56
3, 57205, Note_off_c, 1, 67, 64
3, 57350, Note_on_c, 1, 67, 58
3, 57439, Note_off_c, 1, 67, 64
3, 57589, Note_on_c, 1, 67, 48
3, 58139, Note_off_c, 1, 67, 64
3, 58302, Note_on_c, 1, 62, 49
3, 58416, Note_off_c, 1, 62, 64
3, 58551, Note_on_c, 1, 64, 59
3, 58779, Note_off_c, 1, 64, 64
3, 58780, Note_on_c, 1, 62, 47
3, 58896, Note_off_c, 1, 62, 64
3, 59015, Note_on_c, 1, 71, 55
3, 59261, Note_on_c, 1, 68, 49
3, 59280, Note_off_c, 1, 71, 64
3, 59361, Note_off_c, 1, 68, 64
3, 59498, Note_on_c, 1, 69, 36
3, 59609, Note_off_c, 1, 69, 64
3, 59748, Note_on_c, 1, 65, 48
3, 59991, Note_on_c, 1, 64, 43
3, 59998, Note_off_c, 1, 65, 64
3, 60104, Note_off_c, 1, 64, 64
3, 60218, Note_on_c, 1, 69, 52
3, 60323, Note_off_c, 1, 69, 64
3, 60467, Note_on_c, 1, 69, 53
3, 60714, Note_on_c, 1, 68, 49
3, 60726, Note_off_c, 1, 69, 64
3, 60832, Note_off_c, 1, 68, 64
3, 60951, Note_on_c, 1, 64, 39
3, 61030, Note_off_c, 1, 64, 64
3, 61167, Note_on_c, 1, 57, 51
3, 61273, Note_off_c, 1, 57, 64
3, 61429, Note_on_c, 1, 60, 51
3, 61660, Note_on_c, 1, 64, 48
3, 61679, Note_off_c, 1, 60, 64
3, 61785, Note_off_c, 1, 64, 64
3, 61894, Note_on_c, 1, 65, 58
3, 62115, Note_off_c, 1, 65, 64
3, 62125, Note_on_c, 1, 58, 26
3, 62238, Note_off_c, 1, 58, 64
3, 62370, Note_on_c, 1, 60, 47
3, 62463, Note_off_c, 1, 60, 64
3, 62637, Note_on_c, 1, 60, 50
3, 62976, Note_off_c, 1, 60, 64
3, 63103, Note_on_c, 1, 60, 49
3, 63218, Note_off_c, 1, 60, 64
3, 63350, Note_on_c, 1, 59, 56
3, 63607, Note_on_c, 1, 60, 46
3, 63625, Note_off_c, 1, 59, 64
3, 63682, Note_off_c, 1, 60, 64
3, 63831, Note_on_c, 1, 62, 48
3, 63947, Note_off_c, 1, 62, 64
3, 64086, Note_on_c, 1, 60, 47
3, 64374, Note_off_c, 1, 60, 64
3, 64557, Note_on_c, 1, 60, 47
3, 64657, Note_off_c, 1, 60, 64
3, 64785, Note_on_c, 1, 64, 57
3, 65042, Note_on_c, 1, 65, 32
3, 65045, Note_off_c, 1, 64, 64
3, 65172, Note_off_c, 1, 65, 64
3, 65534, Note_on_c, 1, 62, 47
3, 66106, Note_off_c, 1, 62, 64
3, 66223, Note_on_c, 1, 66, 60
3, 66463, Note_on_c, 1, 67, 45
3, 66476, Note_off_c, 1, 66, 64
3, 66587, Note_off_c, 1, 67, 64
3, 66944, Note_on_c, 1, 62, 55
3, 67046, Note_off_c, 1, 62, 64
3, 67180, Note_on_c, 1, 65, 60
3, 67409, Note_on_c, 1, 67, 38
3, 67426, Note_off_c, 1, 65, 64
3, 67526, Note_off_c, 1, 67, 64
3, 67657, Note_on_c, 1, 60, 61
3, 67903, Note_on_c, 1, 62, 48
3, 67927, Note_off_c, 1, 60, 64
3, 68022, Note_off_c, 1, 62, 64
3, 68390, Note_on_c, 1, 60, 47
3, 68503, Note_off_c, 1, 60, 64
3, 68633, Note_on_c, 1, 67, 44
3, 68731, Note_off_c, 1, 67, 64
3, 68872, Note_on_c, 1, 67, 46
3, 68975, Note_off_c, 1, 67, 64
3, 69114, Note_on_c, 1, 67, 42
3, 69629, Note_off_c, 1, 67, 64
3, 81354, Note_on_c, 1, 62, 66
3, 81477, Note_off_c, 1, 62, 64
3, 81592, Note_on_c, 1, 67, 70
3, 81691, Note_off_c, 1, 67, 64
3, 81835, Note_on_c, 1, 67, 72
3, 81940, Note_off_c, 1, 67, 64
3, 82070, Note_on_c, 1, 71, 76
3, 82190, Note_off_c, 1, 71, 64
3, 82312, Note_on_c, 1, 72, 66
3, 82401, Note_on_c, 1, 71, 57
3, 82411, Note_off_c, 1, 72, 64
3, 82441, Note_off_c, 1, 71, 64
3, 82441, Note_on_c, 1, 72, 64
3, 82484, Note_on_c, 1, 71, 63
3, 82485, Note_off_c, 1, 72, 64
3, 82519, Note_on_c, 1, 72, 62
3, 82542, Note_off_c, 1, 72, 64
3, 82569, Note_off_c, 1, 71, 64
3, 82569, Note_on_c, 1, 72, 76
3, 82604, Note_on_c, 1, 71, 70
3, 82618, Note_off_c, 1, 72, 64
3, 82648, Note_on_c, 1, 69, 64
3, 82653, Note_off_c, 1, 71, 64
3, 82698, Note_on_c, 1, 71, 72
3, 82719, Note_off_c, 1, 69, 64
3, 82765, Note_off_c, 1, 71, 64
3, 82766, Note_on_c, 1, 72, 82
3, 82938, Note_off_c, 1, 72, 64
3, 83026, Note_on_c, 1, 72, 82
3, 83134, Note_off_c, 1, 72, 64
3, 83257, Note_on_c, 1, 71, 85
3, 83344, Note_off_c, 1, 71, 64
3, 83516, Note_on_c, 1, 71, 78
3, 83866, Note_off_c, 1, 71, 64
3, 83983, Note_on_c, 1, 68, 64
3, 84075, Note_off_c, 1, 68, 64
3, 84227, Note_on_c, 1, 69, 74
3, 84337, Note_off_c, 1, 69, 64
3, 84466, Note_on_c, 1, 72, 80
3, 84573, Note_off_c, 1, 72, 64
3, 84718, Note_on_c, 1, 69, 70
3, 84796, Note_off_c, 1, 69, 64
3, 84957, Note_on_c, 1, 69, 78
3, 85152, Note_off_c, 1, 69, 64
3, 85195, Note_on_c, 1, 68, 70
3, 85265, Note_off_c, 1, 68, 64
3, 85296, Note_on_c, 1, 69, 76
3, 85371, Note_off_c, 1, 69, 64
3, 85414, Note_on_c, 1, 71, 82
3, 85533, Note_off_c, 1, 71, 64
3, 85657, Note_on_c, 1, 72, 82
3, 85847, Note_off_c, 1, 72, 64
3, 85912, Note_on_c, 1, 71, 85
3, 85992, Note_off_c, 1, 71, 64
3, 86020, Note_on_c, 1, 69, 82
3, 86094, Note_off_c, 1, 69, 64
3, 86145, Note_on_c, 1, 68, 78
3, 86232, Note_off_c, 1, 68, 64
3, 86246, Note_on_c, 1, 69, 82
3, 86324, Note_off_c, 1, 69, 64
3, 86376, Note_on_c, 1, 64, 78
3, 86711, Note_off_c, 1, 64, 64
3, 86751, Note_on_c, 1, 65, 82
3, 86824, Note_off_c, 1, 65, 64
3, 86859, Note_on_c, 1, 67, 70
3, 86903, Note_on_c, 1, 65, 66
3, 86911, Note_off_c, 1, 67, 64
3, 86943, Note_on_c, 1, 67, 74
3, 86949, Note_off_c, 1, 65, 64
3, 86976, Note_off_c, 1, 67, 64
3, 86980, Note_on_c, 1, 65, 57
3, 87002, Note_on_c, 1, 67, 64
3, 87033, Note_off_c, 1, 67, 64
3, 87037, Note_on_c, 1, 64, 70
3, 87056, Note_off_c, 1, 65, 64
3, 87091, Note_on_c, 1, 65, 74
3, 87111, Note_off_c, 1, 64, 64
3, 87136, Note_on_c, 1, 67, 61
3, 87140, Note_off_c, 1, 65, 64
3, 87527, Note_off_c, 1, 67, 64
3, 87611, Note_on_c, 1, 67, 78
3, 87724, Note_off_c, 1, 67, 64
3, 87834, Note_on_c, 1, 65, 80
3, 87933, Note_off_c, 1, 65, 64
3, 88071, Note_on_c, 1, 67, 80
3, 88439, Note_off_c, 1, 67, 64
3, 88552, Note_on_c, 1, 67, 80
3, 88662, Note_off_c, 1, 67, 64
3, 88789, Note_on_c, 1, 72, 80
3, 88902, Note_off_c, 1, 72, 64
3, 89035, Note_on_c, 1, 69, 63
3, 89148, Note_off_c, 1, 69, 64
3, 89278, Note_on_c, 1, 67, 70
3, 89370, Note_off_c, 1, 67, 64
3, 89517, Note_on_c, 1, 67, 68
3, 89867, Note_off_c, 1, 67, 64
3, 89992, Note_on_c, 1, 67, 78
3, 90117, Note_off_c, 1, 67, 64
3, 90231, Note_on_c, 1, 71, 66
3, 90324, Note_off_c, 1, 71, 64
3, 90475, Note_on_c, 1, 74, 85
3, 90575, Note_off_c, 1, 74, 64
3, 90715, Note_on_c, 1, 72, 68
3, 90829, Note_off_c, 1, 72, 64
3, 90955, Note_on_c, 1, 72, 80
3, 91057, Note_off_c, 1, 72, 64
3, 91190, Note_on_c, 1, 74, 80
3, 91287, Note_off_c, 1, 74, 64
3, 91426, Note_on_c, 1, 72, 82
3, 91536, Note_off_c, 1, 72, 64
3, 91673, Note_on_c, 1, 69, 74
3, 91764, Note_off_c, 1, 69, 64
3, 91917, Note_on_c, 1, 67, 74
3, 92012, Note_off_c, 1, 67, 64
3, 92163, Note_on_c, 1, 67, 70
3, 92698, Note_off_c, 1, 67, 64
3, 92870, Note_on_c, 1, 62, 64
3, 92985, Note_off_c, 1, 62, 64
3, 93115, Note_on_c, 1, 67, 82
3, 93221, Note_off_c, 1, 67, 64
3, 93354, Note_on_c, 1, 67, 80
3, 93464, Note_off_c, 1, 67, 64
3, 93602, Note_on_c, 1, 71, 85
3, 93716, Note_off_c, 1, 71, 64
3, 93842, Note_on_c, 1, 72, 76
3, 93929, Note_on_c, 1, 71, 58
3, 93944, Note_off_c, 1, 72, 64
3, 93972, Note_off_c, 1, 71, 64
3, 93976, Note_on_c, 1, 72, 62
3, 94015, Note_on_c, 1, 71, 59
3, 94018, Note_off_c, 1, 72, 64
3, 94049, Note_on_c, 1, 72, 64
3, 94054, Note_off_c, 1, 71, 64
3, 94073, Note_on_c, 1, 71, 46
3, 94080, Note_off_c, 1, 72, 64
3, 94106, Note_on_c, 1, 72, 70
3, 94107, Note_off_c, 1, 71, 64
3, 94130, Note_on_c, 1, 71, 58
3, 94151, Note_off_c, 1, 72, 64
3, 94181, Note_off_c, 1, 71, 64
3, 94182, Note_on_c, 1, 69, 74
3, 94217, Note_on_c, 1, 71, 78
3, 94244, Note_off_c, 1, 69, 64
3, 94282, Note_off_c, 1, 71, 64
3, 94290, Note_on_c, 1, 72, 64
3, 94463, Note_off_c, 1, 72, 64
3, 94548, Note_on_c, 1, 72, 82
3, 94654, Note_off_c, 1, 72, 64
3, 94787, Note_on_c, 1, 71, 80
3, 94884, Note_off_c, 1, 71, 64
3, 95030, Note_on_c, 1, 71, 80
3, 95396, Note_off_c, 1, 71, 64
3, 95511, Note_on_c, 1, 68, 70
3, 95600, Note_off_c, 1, 68, 64
3, 95744, Note_on_c, 1, 69, 78
3, 95853, Note_off_c, 1, 69, 64
3, 95984, Note_on_c, 1, 72, 87
3, 96093, Note_off_c, 1, 72, 64
3, 96225, Note_on_c, 1, 69, 63
3, 96323, Note_off_c, 1, 69, 64
3, 96464, Note_on_c, 1, 69, 85
3, 96671, Note_off_c, 1, 69, 64
3, 96708, Note_on_c, 1, 68, 80
3, 96777, Note_off_c, 1, 68, 64
3, 96818, Note_on_c, 1, 69, 78
3, 96886, Note_off_c, 1, 69, 64
3, 96939, Note_on_c, 1, 71, 78
3, 97073, Note_off_c, 1, 71, 64
3, 97190, Note_on_c, 1, 72, 85
3, 97380, Note_off_c, 1, 72, 64
3, 97431, Note_on_c, 1, 71, 82
3, 97513, Note_off_c, 1, 71, 64
3, 97539, Note_on_c, 1, 69, 76
3, 97619, Note_off_c, 1, 69, 64
3, 97658, Note_on_c, 1, 68, 74
3, 97741, Note_off_c, 1, 68, 64
3, 97765, Note_on_c, 1, 69, 80
3, 97835, Note_off_c, 1, 69, 64
3, 97909, Note_on_c, 1, 64, 82
3, 98205, Note_off_c, 1, 64, 64
3, 98269, Note_on_c, 1, 65, 82
3, 98341, Note_off_c, 1, 65, 64
3, 98382, Note_on_c, 1, 67, 68
3, 98428, Note_on_c, 1, 65, 64
3, 98437, Note_off_c, 1, 67, 64
3, 98472, Note_on_c, 1, 67, 74
3, 98475, Note_off_c, 1, 65, 64
3, 98503, Note_on_c, 1, 65, 70
3, 98521, Note_off_c, 1, 67, 64
3, 98539, Note_on_c, 1, 64, 85
3, 98546, Note_off_c, 1, 65, 64
3, 98585, Note_on_c, 1, 65, 80
3, 98612, Note_off_c, 1, 64, 64
3, 98633, Note_on_c, 1, 67, 64
3, 98639, Note_off_c, 1, 65, 64
3, 99018, Note_off_c, 1, 67, 64
3, 99124, Note_on_c, 1, 67, 80
3, 99225, Note_off_c, 1, 67, 64
3, 99354, Note_on_c, 1, 65, 70
3, 99452, Note_off_c, 1, 65, 64
3, 99588, Note_on_c, 1, 67, 80
3, 99943, Note_off_c, 1, 67, 64
3, 100051, Note_on_c, 1, 67, 68
3, 100171, Note_off_c, 1, 67, 64
3, 100300, Note_on_c, 1, 72, 82
3, 100418, Note_off_c, 1, 72, 64
3, 100550, Note_on_c, 1, 69, 68
3, 100666, Note_off_c, 1, 69, 64
3, 100797, Note_on_c, 1, 67, 74
3, 100890, Note_off_c, 1, 67, 64
3, 101035, Note_on_c, 1, 67, 70
3, 101394, Note_off_c, 1, 67, 64
3, 101503, Note_on_c, 1, 67, 72
3, 101625, Note_off_c, 1, 67, 64
3, 101743, Note_on_c, 1, 71, 80
3, 101851, Note_off_c, 1, 71, 64
3, 101996, Note_on_c, 1, 74, 85
3, 102096, Note_off_c, 1, 74, 64
3, 102233, Note_on_c, 1, 72, 78
3, 102368, Note_off_c, 1, 72, 64
3, 102472, Note_on_c, 1, 72, 80
3, 102581, Note_off_c, 1, 72, 64
3, 102711, Note_on_c, 1, 74, 82
3, 102807, Note_off_c, 1, 74, 64
3, 102944, Note_on_c, 1, 72, 76
3, 103050, Note_off_c, 1, 72, 64
3, 103187, Note_on_c, 1, 69, 82
3, 103284, Note_off_c, 1, 69, 64
3, 103436, Note_on_c, 1, 67, 85
3, 103532, Note_off_c, 1, 67, 64
3, 103677, Note_on_c, 1, 67, 85
3, 104250, Note_off_c, 1, 67, 64
3, 104250, End_track
4, 0, Start_track
4, 0, Title_t, "Viola"
4, 0, Program_c, 2, 41
4, 0, Control_c, 2, 7, 100
4, 717, Note_on_c, 2, 64, 80
4, 842, Note_off_c, 2, 64, 64
4, 948, Note_on_c, 2, 67, 70
4, 1058, Note_off_c, 2, 67, 64
4, 1189, Note_on_c, 2, 67, 66
4, 1290, Note_off_c, 2, 67, 64
4, 1434, Note_on_c, 2, 65, 76
4, 1547, Note_off_c, 2, 65, 64
4, 1676, Note_on_c, 2, 60, 60
4, 1778, Note_off_c, 2, 60, 64
4, 1923, Note_on_c, 2, 65, 66
4, 2034, Note_off_c, 2, 65, 64
4, 2158, Note_on_c, 2, 62, 80
4, 2276, Note_off_c, 2, 62, 64
4, 2396, Note_on_c, 2, 67, 74
4, 2514, Note_off_c, 2, 67, 64
4, 2643, Note_on_c, 2, 69, 80
4, 2743, Note_off_c, 2, 69, 64
4, 2887, Note_on_c, 2, 67, 82
4, 3252, Note_off_c, 2, 67, 64
4, 3366, Note_on_c, 2, 67, 68
4, 3474, Note_off_c, 2, 67, 64
4, 3612, Note_on_c, 2, 67, 80
4, 3728, Note_off_c, 2, 67, 64
4, 3853, Note_on_c, 2, 64, 68
4, 3943, Note_off_c, 2, 64, 64
4, 4080, Note_on_c, 2, 69, 82
4, 4179, Note_off_c, 2, 69, 64
4, 4325, Note_on_c, 2, 69, 89
4, 4433, Note_off_c, 2, 69, 64
4, 4557, Note_on_c, 2, 66, 82
4, 4655, Note_off_c, 2, 66, 64
4, 4792, Note_on_c, 2, 62, 80
4, 4889, Note_off_c, 2, 62, 64
4, 5036, Note_on_c, 2, 60, 70
4, 5118, Note_off_c, 2, 60, 64
4, 5144, Note_on_c, 2, 59, 63
4, 5221, Note_off_c, 2, 59, 64
4, 5263, Note_on_c, 2, 60, 68
4, 5346, Note_off_c, 2, 60, 64
4, 5374, Note_on_c, 2, 57, 74
4, 5458, Note_off_c, 2, 57, 64
4, 5502, Note_on_c, 2, 62, 87
4, 5619, Note_off_c, 2, 62, 64
4, 5763, Note_on_c, 2, 59, 85
4, 6292, Note_off_c, 2, 59, 64
4, 6474, Note_on_c, 2, 64, 80
4, 6595, Note_off_c, 2, 64, 64
4, 6713, Note_on_c, 2, 67, 66
4, 6819, Note_off_c, 2, 67, 64
4, 6952, Note_on_c, 2, 67, 85
4, 7062, Note_off_c, 2, 67, 64
4, 7198, Note_on_c, 2, 65, 78
4, 7317, Note_off_c, 2, 65, 64
4, 7436, Note_on_c, 2, 60, 63
4, 7557, Note_off_c, 2, 60, 64
4, 7683, Note_on_c, 2, 65, 72
4, 7795, Note_off_c, 2, 65, 64
4, 7912, Note_on_c, 2, 62, 82
4, 8042, Note_off_c, 2, 62, 64
4, 8160, Note_on_c, 2, 67, 76
4, 8267, Note_off_c, 2, 67, 64
4, 8402, Note_on_c, 2, 69, 80
4, 8499, Note_off_c, 2, 69, 64
4, 8644, Note_on_c, 2, 67, 78
4, 9000, Note_off_c, 2, 67, 64
4, 9127, Note_on_c, 2, 67, 80
4, 9234, Note_off_c, 2, 67, 64
4, 9362, Note_on_c, 2, 67, 85
4, 9480, Note_off_c, 2, 67, 64
4, 9604, Note_on_c, 2, 64, 72
4, 9701, Note_off_c, 2, 64, 64
4, 9843, Note_on_c, 2, 69, 85
4, 9947, Note_off_c, 2, 69, 64
4, 10086, Note_on_c, 2, 69, 87
4, 10218, Note_off_c, 2, 69, 64
4, 10312, Note_on_c, 2, 66, 74
4, 10426, Note_off_c, 2, 66, 64
4, 10553, Note_on_c, 2, 62, 80
4, 10679, Note_off_c, 2, 62, 64
4, 10774, Note_on_c, 2, 60, 80
4, 10869, Note_off_c, 2, 60, 64
4, 10890, Note_on_c, 2, 59, 74
4, 10973, Note_off_c, 2, 59, 64
4, 11012, Note_on_c, 2, 60, 76
4, 11105, Note_off_c, 2, 60, 64
4, 11121, Note_on_c, 2, 57, 70
4, 11214, Note_off_c, 2, 57, 64
4, 11257, Note_on_c, 2, 62, 91
4, 11367, Note_off_c, 2, 62, 64
4, 11520, Note_on_c, 2, 59, 82
4, 12039, Note_off_c, 2, 59, 64
4, 35274, Note_on_c, 2, 55, 50
4, 35352, Note_off_c, 2, 55, 64
4, 35499, Note_on_c, 2, 60, 51
4, 35796, Note_off_c, 2, 60, 64
4, 35981, Note_on_c, 2, 64, 59
4, 36235, Note_on_c, 2, 60, 36
4, 36239, Note_off_c, 2, 64, 64
4, 36326, Note_off_c, 2, 60, 64
4, 36456, Note_on_c, 2, 65, 41
4, 36537, Note_off_c, 2, 65, 64
4, 36702, Note_on_c, 2, 62, 55
4, 36936, Note_off_c, 2, 62, 64
4, 36946, Note_on_c, 2, 64, 28
4, 37032, Note_off_c, 2, 64, 64
4, 37174, Note_on_c, 2, 65, 55
4, 37276, Note_off_c, 2, 65, 64
4, 37424, Note_on_c, 2, 57, 53
4, 37661, Note_on_c, 2, 55, 45
4, 37667, Note_off_c, 2, 57, 64
4, 37753, Note_off_c, 2, 55, 64
4, 37903, Note_on_c, 2, 52, 49
4, 37989, Note_off_c, 2, 52, 64
4, 38157, Note_on_c, 2, 55, 44
4, 38230, Note_off_c, 2, 55, 64
4, 38386, Note_on_c, 2, 57, 57
4, 38615, Note_off_c, 2, 57, 64
4, 38615, Note_on_c, 2, 59, 48
4, 38701, Note_off_c, 2, 59, 64
4, 38846, Note_on_c, 2, 60, 58
4, 39092, Note_on_c, 2, 62, 42
4, 39099, Note_off_c, 2, 60, 64
4, 39193, Note_off_c, 2, 62, 64
4, 39335, Note_on_c, 2, 57, 38
4, 39432, Note_off_c, 2, 57, 64
4, 39580, Note_on_c, 2, 59, 52
4, 39678, Note_off_c, 2, 59, 64
4, 39815, Note_on_c, 2, 59, 49
4, 39921, Note_off_c, 2, 59, 64
4, 40057, Note_on_c, 2, 57, 39
4, 40173, Note_off_c, 2, 57, 64
4, 40315, Note_on_c, 2, 59, 44
4, 40863, Note_off_c, 2, 59, 64
4, 41029, Note_on_c, 2, 55, 51
4, 41113, Note_off_c, 2, 55, 64
4, 41267, Note_on_c, 2, 60, 47
4, 41619, Note_off_c, 2, 60, 64
4, 41746, Note_on_c, 2, 64, 60
4, 41992, Note_off_c, 2, 64, 64
4, 41994, Note_on_c, 2, 60, 33
4, 42097, Note_off_c, 2, 60, 64
4, 42221, Note_on_c, 2, 65, 49
4, 42312, Note_off_c, 2, 65, 64
4, 42467, Note_on_c, 2, 62, 57
4, 42690, Note_on_c, 2, 64, 42
4, 42706, Note_off_c, 2, 62, 64
4, 42809, Note_off_c, 2, 64, 64
4, 42938, Note_on_c, 2, 65, 52
4, 43055, Note_off_c, 2, 65, 64
4, 43178, Note_on_c, 2, 57, 49
4, 43424, Note_on_c, 2, 55, 44
4, 43429, Note_off_c, 2, 57, 64
4, 43533, Note_off_c, 2, 55, 64
4, 43666, Note_on_c, 2, 52, 43
4, 43768, Note_off_c, 2, 52, 64
4, 43917, Note_on_c, 2, 55, 46
4, 44004, Note_off_c, 2, 55, 64
4, 44147, Note_on_c, 2, 57, 60
4, 44373, Note_off_c, 2, 57, 64
4, 44385, Note_on_c, 2, 59, 25
4, 44480, Note_off_c, 2, 59, 64
4, 44606, Note_on_c, 2, 60, 59
4, 44856, Note_on_c, 2, 62, 43
4, 44858, Note_off_c, 2, 60, 64
4, 44956, Note_off_c, 2, 62, 64
4, 45102, Note_on_c, 2, 57, 40
4, 45211, Note_off_c, 2, 57, 64
4, 45340, Note_on_c, 2, 59, 48
4, 45454, Note_off_c, 2, 59, 64
4, 45583, Note_on_c, 2, 59, 52
4, 45684, Note_off_c, 2, 59, 64
4, 45823, Note_on_c, 2, 57, 41
4, 45925, Note_off_c, 2, 57, 64
4, 46077, Note_on_c, 2, 59, 49
4, 46628, Note_off_c, 2, 59, 64
4, 46789, Note_on_c, 2, 59, 60
4, 46891, Note_off_c, 2, 59, 64
4, 47036, Note_on_c, 2, 55, 52
4, 47393, Note_off_c, 2, 55, 64
4, 47516, Note_on_c, 2, 59, 62
4, 47746, Note_off_c, 2, 59, 64
4, 47751, Note_on_c, 2, 62, 39
4, 47839, Note_off_c, 2, 62, 64
4, 47981, Note_on_c, 2, 60, 49
4, 48067, Note_off_c, 2, 60, 64
4, 48245, Note_on_c, 2, 59, 64
4, 48484, Note_off_c, 2, 59, 64
4, 48484, Note_on_c, 2, 60, 41
4, 48581, Note_off_c, 2, 60, 64
4, 48707, Note_on_c, 2, 57, 52
4, 48817, Note_off_c, 2, 57, 64
4, 48962, Note_on_c, 2, 65, 60
4, 49184, Note_off_c, 2, 65, 64
4, 49199, Note_on_c, 2, 64, 63
4, 49292, Note_off_c, 2, 64, 64
4, 49430, Note_on_c, 2, 60, 46
4, 49519, Note_off_c, 2, 60, 64
4, 49679, Note_on_c, 2, 60, 48
4, 50076, Note_off_c, 2, 60, 64
4, 50162, Note_on_c, 2, 58, 48
4, 50261, Note_off_c, 2, 58, 64
4, 50386, Note_on_c, 2, 60, 51
4, 50625, Note_on_c, 2, 62, 53
4, 50646, Note_off_c, 2, 60, 64
4, 50705, Note_off_c, 2, 62, 64
4, 50851, Note_on_c, 2, 67, 51
4, 50951, Note_off_c, 2, 67, 64
4, 51114, Note_on_c, 2, 65, 60
4, 51341, Note_on_c, 2, 55, 46
4, 51349, Note_off_c, 2, 65, 64
4, 51455, Note_off_c, 2, 55, 64
4, 51583, Note_on_c, 2, 57, 55
4, 51684, Note_off_c, 2, 57, 64
4, 51837, Note_on_c, 2, 55, 43
4, 52437, Note_off_c, 2, 55, 64
4, 52555, Note_on_c, 2, 55, 45
4, 52653, Note_off_c, 2, 55, 64
4, 52790, Note_on_c, 2, 53, 60
4, 53021, Note_off_c, 2, 53, 64
4, 53025, Note_on_c, 2, 58, 52
4, 53141, Note_off_c, 2, 58, 64
4, 53279, Note_on_c, 2, 55, 58
4, 53498, Note_on_c, 2, 57, 48
4, 53525, Note_off_c, 2, 55, 64
4, 53653, Note_off_c, 2, 57, 64
4, 53982, Note_on_c, 2, 60, 57
4, 54106, Note_off_c, 2, 60, 64
4, 54232, Note_on_c, 2, 54, 59
4, 54461, Note_on_c, 2, 55, 51
4, 54473, Note_off_c, 2, 54, 64
4, 54565, Note_off_c, 2, 55, 64
4, 54694, Note_on_c, 2, 57, 62
4, 54944, Note_on_c, 2, 59, 44
4, 54954, Note_off_c, 2, 57, 64
4, 55116, Note_off_c, 2, 59, 64
4, 55443, Note_on_c, 2, 59, 55
4, 55529, Note_off_c, 2, 59, 64
4, 55676, Note_on_c, 2, 62, 60
4, 55907, Note_off_c, 2, 62, 64
4, 55908, Note_on_c, 2, 55, 51
4, 56033, Note_off_c, 2, 55, 64
4, 56154, Note_on_c, 2, 57, 59
4, 56387, Note_off_c, 2, 57, 64
4, 56388, Note_on_c, 2, 55, 30
4, 56510, Note_off_c, 2, 55, 64
4, 56876, Note_on_c, 2, 55, 54
4, 56982, Note_off_c, 2, 55, 64
4, 57108, Note_on_c, 2, 64, 57
4, 57189, Note_off_c, 2, 64, 64
4, 57352, Note_on_c, 2, 62, 59
4, 57439, Note_off_c, 2, 62, 64
4, 57586, Note_on_c, 2, 64, 58
4, 58130, Note_off_c, 2, 64, 64
4, 58312, Note_on_c, 2, 59, 53
4, 58396, Note_off_c, 2, 59, 64
4, 58549, Note_on_c, 2, 55, 53
4, 58870, Note_off_c, 2, 55, 64
4, 59019, Note_on_c, 2, 59, 52
4, 59239, Note_on_c, 2, 62, 58
4, 59257, Note_off_c, 2, 59, 64
4, 59335, Note_off_c, 2, 62, 64
4, 59498, Note_on_c, 2, 60, 49
4, 59600, Note_off_c, 2, 60, 64
4, 59752, Note_on_c, 2, 59, 60
4, 59990, Note_on_c, 2, 60, 49
4, 60001, Note_off_c, 2, 59, 64
4, 60085, Note_off_c, 2, 60, 64
4, 60221, Note_on_c, 2, 57, 52
4, 60328, Note_off_c, 2, 57, 64
4, 60476, Note_on_c, 2, 65, 58
4, 60710, Note_off_c, 2, 65, 64
4, 60721, Note_on_c, 2, 64, 52
4, 60839, Note_off_c, 2, 64, 64
4, 60953, Note_on_c, 2, 60, 46
4, 61051, Note_off_c, 2, 60, 64
4, 61182, Note_on_c, 2, 60, 47
4, 61562, Note_off_c, 2, 60, 64
4, 61689, Note_on_c, 2, 58, 51
4, 61791, Note_off_c, 2, 58, 64
4, 61909, Note_on_c, 2, 60, 54
4, 62139, Note_on_c, 2, 62, 57
4, 62178, Note_off_c, 2, 60, 64
4, 62222, Note_off_c, 2, 62, 64
4, 62375, Note_on_c, 2, 67, 47
4, 62482, Note_off_c, 2, 67, 64
4, 62648, Note_on_c, 2, 65, 55
4, 62866, Note_off_c, 2, 65, 64
4, 62866, Note_on_c, 2, 55, 48
4, 62984, Note_off_c, 2, 55, 64
4, 63109, Note_on_c, 2, 57, 51
4, 63217, Note_off_c, 2, 57, 64
4, 63355, Note_on_c, 2, 55, 36
4, 63940, Note_off_c, 2, 55, 64
4, 64075, Note_on_c, 2, 55, 47
4, 64182, Note_off_c, 2, 55, 64
4, 64307, Note_on_c, 2, 53, 57
4, 64545, Note_off_c, 2, 53, 64
4, 64576, Note_on_c, 2, 58, 47
4, 64668, Note_off_c, 2, 58, 64
4, 64781, Note_on_c, 2, 55, 64
4, 65008, Note_on_c, 2, 57, 44
4, 65039, Note_off_c, 2, 55, 64
4, 65149, Note_off_c, 2, 57, 64
4, 65506, Note_on_c, 2, 60, 57
4, 65624, Note_off_c, 2, 60, 64
4, 65738, Note_on_c, 2, 54, 58
4, 65984, Note_on_c, 2, 55, 45
4, 65985, Note_off_c, 2, 54, 64
4, 66104, Note_off_c, 2, 55, 64
4, 66214, Note_on_c, 2, 57, 63
4, 66444, Note_on_c, 2, 59, 50
4, 66461, Note_off_c, 2, 57, 64
4, 66601, Note_off_c, 2, 59, 64
4, 66956, Note_on_c, 2, 59, 51
4, 67062, Note_off_c, 2, 59, 64
4, 67182, Note_on_c, 2, 62, 63
4, 67421, Note_on_c, 2, 55, 47
4, 67423, Note_off_c, 2, 62, 64
4, 67540, Note_off_c, 2, 55, 64
4, 67661, Note_on_c, 2, 57, 57
4, 67907, Note_on_c, 2, 55, 41
4, 67926, Note_off_c, 2, 57, 64
4, 68032, Note_off_c, 2, 55, 64
4, 68392, Note_on_c, 2, 55, 58
4, 68497, Note_off_c, 2, 55, 64
4, 68633, Note_on_c, 2, 64, 59
4, 68718, Note_off_c, 2, 64, 64
4, 68863, Note_on_c, 2, 62, 57
4, 68952, Note_off_c, 2, 62, 64
4, 69098, Note_on_c, 2, 64, 52
4, 69676, Note_off_c, 2, 64, 64
4, 81354, Note_on_c, 2, 59, 70
4, 81467, Note_off_c, 2, 59, 64
4, 81600, Note_on_c, 2, 62, 72
4, 81692, Note_off_c, 2, 62, 64
4, 81843, Note_on_c, 2, 62, 66
4, 81936, Note_off_c, 2, 62, 64
4, 82069, Note_on_c, 2, 62, 80
4, 82171, Note_off_c, 2, 62, 64
4, 82317, Note_on_c, 2, 68, 64
4, 82440, Note_off_c, 2, 68, 64
4, 82558, Note_on_c, 2, 71, 78
4, 82668, Note_off_c, 2, 71, 64
4, 82796, Note_on_c, 2, 69, 70
4, 82898, Note_off_c, 2, 69, 64
4, 83028, Note_on_c, 2, 69, 80
4, 83132, Note_off_c, 2, 69, 64
4, 83270, Note_on_c, 2, 65, 63
4, 83367, Note_off_c, 2, 65, 64
4, 83516, Note_on_c, 2, 64, 76
4, 83875, Note_off_c, 2, 64, 64
4, 83989, Note_on_c, 2, 64, 72
4, 84089, Note_off_c, 2, 64, 64
4, 84235, Note_on_c, 2, 64, 85
4, 84328, Note_off_c, 2, 64, 64
4, 84474, Note_on_c, 2, 69, 70
4, 84562, Note_off_c, 2, 69, 64
4, 84715, Note_on_c, 2, 64, 74
4, 84798, Note_off_c, 2, 64, 64
4, 84950, Note_on_c, 2, 65, 70
4, 85345, Note_off_c, 2, 65, 64
4, 85429, Note_on_c, 2, 64, 78
4, 85523, Note_off_c, 2, 64, 64
4, 85536, Note_on_c, 2, 62, 66
4, 85597, Note_off_c, 2, 62, 64
4, 85668, Note_on_c, 2, 69, 80
4, 85758, Note_off_c, 2, 69, 64
4, 85914, Note_on_c, 2, 65, 70
4, 86005, Note_off_c, 2, 65, 64
4, 86149, Note_on_c, 2, 59, 80
4, 86246, Note_off_c, 2, 59, 64
4, 86400, Note_on_c, 2, 60, 59
4, 86974, Note_off_c, 2, 60, 64
4, 87101, Note_on_c, 2, 60, 64
4, 87208, Note_off_c, 2, 60, 64
4, 87352, Note_on_c, 2, 64, 85
4, 87450, Note_off_c, 2, 64, 64
4, 87592, Note_on_c, 2, 60, 72
4, 87689, Note_off_c, 2, 60, 64
4, 87834, Note_on_c, 2, 60, 70
4, 87931, Note_off_c, 2, 60, 64
4, 88067, Note_on_c, 2, 62, 82
4, 88443, Note_off_c, 2, 62, 64
4, 88549, Note_on_c, 2, 64, 70
4, 88657, Note_off_c, 2, 64, 64
4, 88785, Note_on_c, 2, 60, 60
4, 88892, Note_off_c, 2, 60, 64
4, 89035, Note_on_c, 2, 62, 64
4, 89127, Note_off_c, 2, 62, 64
4, 89264, Note_on_c, 2, 62, 82
4, 89457, Note_off_c, 2, 62, 64
4, 89510, Note_on_c, 2, 60, 68
4, 89586, Note_off_c, 2, 60, 64
4, 89623, Note_on_c, 2, 59, 76
4, 89693, Note_off_c, 2, 59, 64
4, 89742, Note_on_c, 2, 60, 74
4, 89838, Note_off_c, 2, 60, 64
4, 89854, Note_on_c, 2, 57, 74
4, 89934, Note_off_c, 2, 57, 64
4, 89977, Note_on_c, 2, 59, 87
4, 90110, Note_off_c, 2, 59, 64
4, 90229, Note_on_c, 2, 62, 72
4, 90320, Note_off_c, 2, 62, 64
4, 90462, Note_on_c, 2, 67, 80
4, 90569, Note_off_c, 2, 67, 64
4, 90717, Note_on_c, 2, 67, 85
4, 90828, Note_off_c, 2, 67, 64
4, 90951, Note_on_c, 2, 65, 62
4, 91059, Note_off_c, 2, 65, 64
4, 91195, Note_on_c, 2, 65, 70
4, 91302, Note_off_c, 2, 65, 64
4, 91439, Note_on_c, 2, 64, 68
4, 91543, Note_off_c, 2, 64, 64
4, 91677, Note_on_c, 2, 64, 85
4, 91784, Note_off_c, 2, 64, 64
4, 91917, Note_on_c, 2, 62, 82
4, 92009, Note_off_c, 2, 62, 64
4, 92156, Note_on_c, 2, 64, 80
4, 92728, Note_off_c, 2, 64, 64
4, 92874, Note_on_c, 2, 59, 68
4, 92989, Note_off_c, 2, 59, 64
4, 93116, Note_on_c, 2, 62, 78
4, 93212, Note_off_c, 2, 62, 64
4, 93354, Note_on_c, 2, 62, 66
4, 93467, Note_off_c, 2, 62, 64
4, 93591, Note_on_c, 2, 62, 80
4, 93712, Note_off_c, 2, 62, 64
4, 93833, Note_on_c, 2, 68, 64
4, 93942, Note_off_c, 2, 68, 64
4, 94075, Note_on_c, 2, 71, 82
4, 94192, Note_off_c, 2, 71, 64
4, 94311, Note_on_c, 2, 69, 82
4, 94419, Note_off_c, 2, 69, 64
4, 94540, Note_on_c, 2, 69, 80
4, 94651, Note_off_c, 2, 69, 64
4, 94787, Note_on_c, 2, 65, 70
4, 94893, Note_off_c, 2, 65, 64
4, 95035, Note_on_c, 2, 64, 78
4, 95400, Note_off_c, 2, 64, 64
4, 95506, Note_on_c, 2, 64, 72
4, 95609, Note_off_c, 2, 64, 64
4, 95751, Note_on_c, 2, 64, 80
4, 95859, Note_off_c, 2, 64, 64
4, 95990, Note_on_c, 2, 69, 82
4, 96096, Note_off_c, 2, 69, 64
4, 96237, Note_on_c, 2, 64, 80
4, 96330, Note_off_c, 2, 64, 64
4, 96490, Note_on_c, 2, 65, 70
4, 96894, Note_off_c, 2, 65, 64
4, 96948, Note_on_c, 2, 64, 76
4, 97035, Note_off_c, 2, 64, 64
4, 97057, Note_on_c, 2, 62, 70
4, 97128, Note_off_c, 2, 62, 64
4, 97194, Note_on_c, 2, 69, 87
4, 97295, Note_off_c, 2, 69, 64
4, 97433, Note_on_c, 2, 65, 76
4, 97527, Note_off_c, 2, 65, 64
4, 97678, Note_on_c, 2, 59, 80
4, 97776, Note_off_c, 2, 59, 64
4, 97922, Note_on_c, 2, 60, 60
4, 98502, Note_off_c, 2, 60, 64
4, 98621, Note_on_c, 2, 60, 59
4, 98726, Note_off_c, 2, 60, 64
4, 98866, Note_on_c, 2, 64, 82
4, 98968, Note_off_c, 2, 64, 64
4, 99109, Note_on_c, 2, 60, 59
4, 99221, Note_off_c, 2, 60, 64
4, 99350, Note_on_c, 2, 60, 66
4, 99456, Note_off_c, 2, 60, 64
4, 99592, Note_on_c, 2, 62, 64
4, 99984, Note_off_c, 2, 62, 64
4, 100068, Note_on_c, 2, 64, 70
4, 100185, Note_off_c, 2, 64, 64
4, 100304, Note_on_c, 2, 60, 62
4, 100422, Note_off_c, 2, 60, 64
4, 100554, Note_on_c, 2, 62, 78
4, 100671, Note_off_c, 2, 62, 64
4, 100791, Note_on_c, 2, 62, 80
4, 100921, Note_off_c, 2, 62, 64
4, 101034, Note_on_c, 2, 60, 70
4, 101114, Note_off_c, 2, 60, 64
4, 101140, Note_on_c, 2, 59, 66
4, 101223, Note_off_c, 2, 59, 64
4, 101256, Note_on_c, 2, 60, 76
4, 101359, Note_off_c, 2, 60, 64
4, 101367, Note_on_c, 2, 57, 66
4, 101453, Note_off_c, 2, 57, 64
4, 101498, Note_on_c, 2, 59, 82
4, 101628, Note_off_c, 2, 59, 64
4, 101743, Note_on_c, 2, 62, 76
4, 101843, Note_off_c, 2, 62, 64
4, 101980, Note_on_c, 2, 67, 68
4, 102097, Note_off_c, 2, 67, 64
4, 102227, Note_on_c, 2, 67, 82
4, 102340, Note_off_c, 2, 67, 64
4, 102468, Note_on_c, 2, 65, 72
4, 102578, Note_off_c, 2, 65, 64
4, 102717, Note_on_c, 2, 65, 64
4, 102824, Note_off_c, 2, 65, 64
4, 102953, Note_on_c, 2, 64, 64
4, 103066, Note_off_c, 2, 64, 64
4, 103194, Note_on_c, 2, 64, 78
4, 103294, Note_off_c, 2, 64, 64
4, 103438, Note_on_c, 2, 62, 80
4, 103534, Note_off_c, 2, 62, 64
4, 103677, Note_on_c, 2, 64, 80
4, 104216, Note_off_c, 2, 64, 64
4, 104216, End_track
5, 0, Start_track
5, 0, Title_t, "Cello"
5, 0, Program_c, 3, 42
5, 0, Control_c, 3, 7, 100
5, 724, Note_on_c, 3, 60, 87
5, 825, Note_off_c, 3, 60, 64
5, 961, Note_on_c, 3, 48, 80
5, 1053, Note_off_c, 3, 48, 64
5, 1205, Note_on_c, 3, 52, 68
5, 1299, Note_off_c, 3, 52, 64
5, 1438, Note_on_c, 3, 53, 80
5, 1572, Note_off_c, 3, 53, 64
5, 1676, Note_on_c, 3, 57, 87
5, 1755, Note_off_c, 3, 57, 64
5, 1782, Note_on_c, 3, 53, 78
5, 1879, Note_off_c, 3, 53, 64
5, 1908, Note_on_c, 3, 62, 98
5, 2026, Note_off_c, 3, 62, 64
5, 2147, Note_on_c, 3, 59, 78
5, 2267, Note_off_c, 3, 59, 64
5, 2401, Note_on_c, 3, 60, 82
5, 2503, Note_off_c, 3, 60, 64
5, 2642, Note_on_c, 3, 53, 66
5, 2757, Note_off_c, 3, 53, 64
5, 2884, Note_on_c, 3, 55, 80
5, 3007, Note_off_c, 3, 55, 64
5, 3119, Note_on_c, 3, 59, 80
5, 3229, Note_off_c, 3, 59, 64
5, 3360, Note_on_c, 3, 55, 66
5, 3467, Note_off_c, 3, 55, 64
5, 3600, Note_on_c, 3, 60, 82
5, 3717, Note_off_c, 3, 60, 64
5, 3843, Note_on_c, 3, 59, 72
5, 3958, Note_off_c, 3, 59, 64
5, 4085, Note_on_c, 3, 57, 80
5, 4181, Note_off_c, 3, 57, 64
5, 4323, Note_on_c, 3, 50, 82
5, 4447, Note_off_c, 3, 50, 64
5, 4546, Note_on_c, 3, 54, 72
5, 4638, Note_off_c, 3, 54, 64
5, 4661, Note_on_c, 3, 50, 68
5, 4739, Note_off_c, 3, 50, 64
5, 4790, Note_on_c, 3, 55, 98
5, 4894, Note_off_c, 3, 55, 64
5, 5034, Note_on_c, 3, 48, 80
5, 5132, Note_off_c, 3, 48, 64
5, 5284, Note_on_c, 3, 50, 87
5, 5395, Note_off_c, 3, 50, 64
5, 5526, Note_on_c, 3, 38, 91
5, 5638, Note_off_c, 3, 38, 64
5, 5763, Note_on_c, 3, 43, 85
5, 5857, Note_off_c, 3, 43, 64
5, 5863, Note_on_c, 3, 50, 74
5, 5935, Note_off_c, 3, 50, 64
5, 5992, Note_on_c, 3, 55, 85
5, 6084, Note_off_c, 3, 55, 64
5, 6103, Note_on_c, 3, 57, 85
5, 6170, Note_off_c, 3, 57, 64
5, 6218, Note_on_c, 3, 55, 80
5, 6295, Note_off_c, 3, 55, 64
5, 6334, Note_on_c, 3, 53, 85
5, 6401, Note_off_c, 3, 53, 64
5, 6464, Note_on_c, 3, 52, 89
5, 6581, Note_off_c, 3, 52, 64
5, 6722, Note_on_c, 3, 48, 78
5, 6841, Note_off_c, 3, 48, 64
5, 6962, Note_on_c, 3, 52, 85
5, 7065, Note_off_c, 3, 52, 64
5, 7205, Note_on_c, 3, 53, 82
5, 7321, Note_off_c, 3, 53, 64
5, 7439, Note_on_c, 3, 57, 85
5, 7519, Note_off_c, 3, 57, 64
5, 7546, Note_on_c, 3, 53, 66
5, 7631, Note_off_c, 3, 53, 64
5, 7671, Note_on_c, 3, 62, 102
5, 7780, Note_off_c, 3, 62, 64
5, 7916, Note_on_c, 3, 59, 80
5, 8031, Note_off_c, 3, 59, 64
5, 8159, Note_on_c, 3, 60, 87
5, 8256, Note_off_c, 3, 60, 64
5, 8401, Note_on_c, 3, 53, 80
5, 8499, Note_off_c, 3, 53, 64
5, 8648, Note_on_c, 3, 55, 85
5, 8760, Note_off_c, 3, 55, 64
5, 8882, Note_on_c, 3, 59, 80
5, 8992, Note_off_c, 3, 59, 64
5, 9121, Note_on_c, 3, 55, 76
5, 9226, Note_off_c, 3, 55, 64
5, 9357, Note_on_c, 3, 60, 93
5, 9468, Note_off_c, 3, 60, 64
5, 9592, Note_on_c, 3, 59, 82
5, 9706, Note_off_c, 3, 59, 64
5, 9832, Note_on_c, 3, 57, 80
5, 9938, Note_off_c, 3, 57, 64
5, 10085, Note_on_c, 3, 50, 89
5, 10203, Note_off_c, 3, 50, 64
5, 10309, Note_on_c, 3, 54, 85
5, 10402, Note_off_c, 3, 54, 64
5, 10436, Note_on_c, 3, 50, 85
5, 10511, Note_off_c, 3, 50, 64
5, 10557, Note_on_c, 3, 55, 93
5, 10658, Note_off_c, 3, 55, 64
5, 10787, Note_on_c, 3, 48, 80
5, 10887, Note_off_c, 3, 48, 64
5, 11034, Note_on_c, 3, 50, 95
5, 11140, Note_off_c, 3, 50, 64
5, 11285, Note_on_c, 3, 38, 91
5, 11374, Note_off_c, 3, 38, 64
5, 11530, Note_on_c, 3, 43, 85
5, 11643, Note_off_c, 3, 43, 64
5, 11748, Note_on_c, 3, 47, 80
5, 11852, Note_off_c, 3, 47, 64
5, 11980, Note_on_c, 3, 50, 95
5, 12086, Note_off_c, 3, 50, 64
5, 35279, Note_on_c, 3, 48, 52
5, 35767, Note_off_c, 3, 48, 64
5, 35994, Note_on_c, 3, 48, 58
5, 36224, Note_on_c, 3, 53, 58
5, 36245, Note_off_c, 3, 48, 64
5, 36315, Note_off_c, 3, 53, 64
5, 36450, Note_on_c, 3, 50, 57
5, 36549, Note_off_c, 3, 50, 64
5, 36702, Note_on_c, 3, 55, 60
5, 36925, Note_on_c, 3, 52, 47
5, 36928, Note_off_c, 3, 55, 64
5, 37040, Note_off_c, 3, 52, 64
5, 37186, Note_on_c, 3, 57, 57
5, 37280, Note_off_c, 3, 57, 64
5, 37429, Note_on_c, 3, 53, 60
5, 37662, Note_on_c, 3, 55, 47
5, 37666, Note_off_c, 3, 53, 64
5, 37751, Note_off_c, 3, 55, 64
5, 37908, Note_on_c, 3, 48, 53
5, 38001, Note_off_c, 3, 48, 64
5, 38158, Note_on_c, 3, 60, 57
5, 38529, Note_off_c, 3, 60, 64
5, 38632, Note_on_c, 3, 59, 57
5, 38728, Note_off_c, 3, 59, 64
5, 38870, Note_on_c, 3, 57, 62
5, 39084, Note_on_c, 3, 55, 39
5, 39095, Note_off_c, 3, 57, 64
5, 39182, Note_off_c, 3, 55, 64
5, 39328, Note_on_c, 3, 54, 52
5, 39431, Note_off_c, 3, 54, 64
5, 39591, Note_on_c, 3, 55, 64
5, 39698, Note_off_c, 3, 55, 64
5, 39823, Note_on_c, 3, 47, 58
5, 39920, Note_off_c, 3, 47, 64
5, 40076, Note_on_c, 3, 50, 60
5, 40168, Note_off_c, 3, 50, 64
5, 40320, Note_on_c, 3, 43, 48
5, 40836, Note_off_c, 3, 43, 64
5, 41047, Note_on_c, 3, 48, 44
5, 41528, Note_off_c, 3, 48, 64
5, 41761, Note_on_c, 3, 48, 58
5, 41990, Note_on_c, 3, 53, 51
5, 42012, Note_off_c, 3, 48, 64
5, 42086, Note_off_c, 3, 53, 64
5, 42225, Note_on_c, 3, 50, 58
5, 42318, Note_off_c, 3, 50, 64
5, 42472, Note_on_c, 3, 55, 54
5, 42705, Note_off_c, 3, 55, 64
5, 42706, Note_on_c, 3, 52, 53
5, 42804, Note_off_c, 3, 52, 64
5, 42947, Note_on_c, 3, 57, 57
5, 43035, Note_off_c, 3, 57, 64
5, 43200, Note_on_c, 3, 53, 53
5, 43434, Note_off_c, 3, 53, 64
5, 43436, Note_on_c, 3, 55, 53
5, 43516, Note_off_c, 3, 55, 64
5, 43674, Note_on_c, 3, 48, 62
5, 43770, Note_off_c, 3, 48, 64
5, 43933, Note_on_c, 3, 60, 52
5, 44301, Note_off_c, 3, 60, 64
5, 44381, Note_on_c, 3, 59, 57
5, 44477, Note_off_c, 3, 59, 64
5, 44632, Note_on_c, 3, 57, 58
5, 44855, Note_on_c, 3, 55, 47
5, 44863, Note_off_c, 3, 57, 64
5, 44936, Note_off_c, 3, 55, 64
5, 45091, Note_on_c, 3, 54, 55
5, 45200, Note_off_c, 3, 54, 64
5, 45347, Note_on_c, 3, 55, 59
5, 45461, Note_off_c, 3, 55, 64
5, 45583, Note_on_c, 3, 47, 58
5, 45694, Note_off_c, 3, 47, 64
5, 45829, Note_on_c, 3, 50, 58
5, 45934, Note_off_c, 3, 50, 64
5, 46086, Note_on_c, 3, 43, 50
5, 46632, Note_off_c, 3, 43, 64
5, 46785, Note_on_c, 3, 43, 53
5, 47280, Note_off_c, 3, 43, 64
5, 47530, Note_on_c, 3, 44, 51
5, 47718, Note_off_c, 3, 44, 64
5, 47723, Note_on_c, 3, 47, 53
5, 47832, Note_off_c, 3, 47, 64
5, 47985, Note_on_c, 3, 45, 56
5, 48077, Note_off_c, 3, 45, 64
5, 48230, Note_on_c, 3, 50, 64
5, 48461, Note_off_c, 3, 50, 64
5, 48469, Note_on_c, 3, 48, 41
5, 48599, Note_off_c, 3, 48, 64
5, 48707, Note_on_c, 3, 53, 57
5, 48809, Note_off_c, 3, 53, 64
5, 48960, Note_on_c, 3, 50, 52
5, 49181, Note_off_c, 3, 50, 64
5, 49196, Note_on_c, 3, 52, 39
5, 49288, Note_off_c, 3, 52, 64
5, 49425, Note_on_c, 3, 45, 55
5, 49542, Note_off_c, 3, 45, 64
5, 49674, Note_on_c, 3, 57, 54
5, 50063, Note_off_c, 3, 57, 64
5, 50149, Note_on_c, 3, 55, 52
5, 50269, Note_off_c, 3, 55, 64
5, 50386, Note_on_c, 3, 53, 56
5, 50826, Note_off_c, 3, 53, 64
5, 50869, Note_on_c, 3, 52, 49
5, 50993, Note_off_c, 3, 52, 64
5, 51112, Note_on_c, 3, 53, 59
5, 51333, Note_off_c, 3, 53, 64
5, 51345, Note_on_c, 3, 52, 53
5, 51455, Note_off_c, 3, 52, 64
5, 51591, Note_on_c, 3, 50, 53
5, 51692, Note_off_c, 3, 50, 64
5, 51844, Note_on_c, 3, 43, 58
5, 52070, Note_off_c, 3, 43, 64
5, 52070, Note_on_c, 3, 48, 52
5, 52183, Note_off_c, 3, 48, 64
5, 52317, Note_on_c, 3, 47, 44
5, 52420, Note_off_c, 3, 47, 64
5, 52559, Note_on_c, 3, 48, 47
5, 52664, Note_off_c, 3, 48, 64
5, 52785, Note_on_c, 3, 50, 64
5, 53024, Note_on_c, 3, 52, 40
5, 53025, Note_off_c, 3, 50, 64
5, 53131, Note_off_c, 3, 52, 64
5, 53272, Note_on_c, 3, 41, 51
5, 53719, Note_off_c, 3, 41, 64
5, 54000, Note_on_c, 3, 57, 57
5, 54150, Note_off_c, 3, 57, 64
5, 54226, Note_on_c, 3, 54, 58
5, 54342, Note_off_c, 3, 54, 64
5, 54470, Note_on_c, 3, 50, 59
5, 54568, Note_off_c, 3, 50, 64
5, 54713, Note_on_c, 3, 43, 51
5, 55200, Note_off_c, 3, 43, 64
5, 55431, Note_on_c, 3, 55, 52
5, 55537, Note_off_c, 3, 55, 64
5, 55665, Note_on_c, 3, 50, 60
5, 55903, Note_off_c, 3, 50, 64
5, 55912, Note_on_c, 3, 52, 47
5, 56006, Note_off_c, 3, 52, 64
5, 56150, Note_on_c, 3, 45, 59
5, 56392, Note_on_c, 3, 47, 53
5, 56400, Note_off_c, 3, 45, 64
5, 56526, Note_off_c, 3, 47, 64
5, 56878, Note_on_c, 3, 48, 60
5, 56974, Note_off_c, 3, 48, 64
5, 57110, Note_on_c, 3, 40, 57
5, 57216, Note_off_c, 3, 40, 64
5, 57346, Note_on_c, 3, 43, 52
5, 57434, Note_off_c, 3, 43, 64
5, 57593, Note_on_c, 3, 36, 52
5, 58077, Note_off_c, 3, 36, 64
5, 58321, Note_on_c, 3, 43, 39
5, 58816, Note_off_c, 3, 43, 64
5, 59034, Note_on_c, 3, 44, 60
5, 59267, Note_on_c, 3, 47, 59
5, 59273, Note_off_c, 3, 44, 64
5, 59343, Note_off_c, 3, 47, 64
5, 59509, Note_on_c, 3, 45, 48
5, 59600, Note_off_c, 3, 45, 64
5, 59757, Note_on_c, 3, 50, 60
5, 59991, Note_on_c, 3, 48, 42
5, 60001, Note_off_c, 3, 50, 64
5, 60090, Note_off_c, 3, 48, 64
5, 60229, Note_on_c, 3, 53, 47
5, 60318, Note_off_c, 3, 53, 64
5, 60472, Note_on_c, 3, 50, 59
5, 60699, Note_on_c, 3, 52, 47
5, 60702, Note_off_c, 3, 50, 64
5, 60799, Note_off_c, 3, 52, 64
5, 60949, Note_on_c, 3, 45, 52
5, 61049, Note_off_c, 3, 45, 64
5, 61203, Note_on_c, 3, 57, 54
5, 61576, Note_off_c, 3, 57, 64
5, 61667, Note_on_c, 3, 55, 53
5, 61781, Note_off_c, 3, 55, 64
5, 61910, Note_on_c, 3, 53, 50
5, 62312, Note_off_c, 3, 53, 64
5, 62374, Note_on_c, 3, 52, 42
5, 62502, Note_off_c, 3, 52, 64
5, 62629, Note_on_c, 3, 53, 59
5, 62857, Note_on_c, 3, 52, 40
5, 62870, Note_off_c, 3, 53, 64
5, 62968, Note_off_c, 3, 52, 64
5, 63096, Note_on_c, 3, 50, 58
5, 63186, Note_off_c, 3, 50, 64
5, 63342, Note_on_c, 3, 43, 52
5, 63581, Note_on_c, 3, 48, 53
5, 63596, Note_off_c, 3, 43, 64
5, 63696, Note_off_c, 3, 48, 64
5, 63823, Note_on_c, 3, 47, 37
5, 63929, Note_off_c, 3, 47, 64
5, 64072, Note_on_c, 3, 48, 49
5, 64190, Note_off_c, 3, 48, 64
5, 64305, Note_on_c, 3, 50, 63
5, 64541, Note_off_c, 3, 50, 64
5, 64541, Note_on_c, 3, 52, 46
5, 64629, Note_off_c, 3, 52, 64
5, 64778, Note_on_c, 3, 41, 53
5, 65207, Note_off_c, 3, 41, 64
5, 65515, Note_on_c, 3, 57, 59
5, 65643, Note_off_c, 3, 57, 64
5, 65748, Note_on_c, 3, 54, 57
5, 65866, Note_off_c, 3, 54, 64
5, 65991, Note_on_c, 3, 50, 59
5, 66094, Note_off_c, 3, 50, 64
5, 66231, Note_on_c, 3, 43, 55
5, 66700, Note_off_c, 3, 43, 64
5, 66941, Note_on_c, 3, 55, 59
5, 67048, Note_off_c, 3, 55, 64
5, 67192, Note_on_c, 3, 50, 62
5, 67415, Note_off_c, 3, 50, 64
5, 67415, Note_on_c, 3, 52, 45
5, 67519, Note_off_c, 3, 52, 64
5, 67668, Note_on_c, 3, 45, 57
5, 67917, Note_on_c, 3, 47, 49
5, 67930, Note_off_c, 3, 45, 64
5, 68036, Note_off_c, 3, 47, 64
5, 68391, Note_on_c, 3, 48, 59
5, 68489, Note_off_c, 3, 48, 64
5, 68625, Note_on_c, 3, 40, 59
5, 68727, Note_off_c, 3, 40, 64
5, 68867, Note_on_c, 3, 43, 57
5, 68961, Note_off_c, 3, 43, 64
5, 69105, Note_on_c, 3, 36, 57
5, 69659, Note_off_c, 3, 36, 64
5, 81360, Note_on_c, 3, 55, 74
5, 81453, Note_off_c, 3, 55, 64
5, 81582, Note_on_c, 3, 50, 78
5, 81684, Note_off_c, 3, 50, 64
5, 81828, Note_on_c, 3, 47, 72
5, 81918, Note_off_c, 3, 47, 64
5, 82071, Note_on_c, 3, 44, 66
5, 82192, Note_off_c, 3, 44, 64
5, 82317, Note_on_c, 3, 47, 76
5, 82393, Note_off_c, 3, 47, 64
5, 82425, Note_on_c, 3, 44, 70
5, 82503, Note_off_c, 3, 44, 64
5, 82546, Note_on_c, 3, 52, 85
5, 82667, Note_off_c, 3, 52, 64
5, 82805, Note_on_c, 3, 48, 66
5, 82903, Note_off_c, 3, 48, 64
5, 83035, Note_on_c, 3, 53, 74
5, 83133, Note_off_c, 3, 53, 64
5, 83265, Note_on_c, 3, 50, 70
5, 83362, Note_off_c, 3, 50, 64
5, 83509, Note_on_c, 3, 52, 76
5, 83636, Note_off_c, 3, 52, 64
5, 83747, Note_on_c, 3, 56, 76
5, 83815, Note_off_c, 3, 56, 64
5, 83858, Note_on_c, 3, 52, 68
5, 83944, Note_off_c, 3, 52, 64
5, 83988, Note_on_c, 3, 64, 87
5, 84095, Note_off_c, 3, 64, 64
5, 84227, Note_on_c, 3, 57, 82
5, 84343, Note_off_c, 3, 57, 64
5, 84480, Note_on_c, 3, 45, 76
5, 84578, Note_off_c, 3, 45, 64
5, 84711, Note_on_c, 3, 48, 78
5, 84824, Note_off_c, 3, 48, 64
5, 84945, Note_on_c, 3, 50, 68
5, 85058, Note_off_c, 3, 50, 64
5, 85183, Note_on_c, 3, 53, 70
5, 85258, Note_off_c, 3, 53, 64
5, 85289, Note_on_c, 3, 50, 66
5, 85360, Note_off_c, 3, 50, 64
5, 85413, Note_on_c, 3, 56, 87
5, 85519, Note_off_c, 3, 56, 64
5, 85657, Note_on_c, 3, 57, 85
5, 85762, Note_off_c, 3, 57, 64
5, 85899, Note_on_c, 3, 50, 74
5, 86011, Note_off_c, 3, 50, 64
5, 86152, Note_on_c, 3, 52, 68
5, 86240, Note_off_c, 3, 52, 64
5, 86404, Note_on_c, 3, 45, 64
5, 86529, Note_off_c, 3, 45, 64
5, 86634, Note_on_c, 3, 48, 82
5, 86704, Note_off_c, 3, 48, 64
5, 86753, Note_on_c, 3, 45, 85
5, 86843, Note_off_c, 3, 45, 64
5, 86877, Note_on_c, 3, 53, 89
5, 86988, Note_off_c, 3, 53, 64
5, 87111, Note_on_c, 3, 52, 76
5, 87223, Note_off_c, 3, 52, 64
5, 87364, Note_on_c, 3, 48, 80
5, 87451, Note_off_c, 3, 48, 64
5, 87590, Note_on_c, 3, 60, 80
5, 87696, Note_off_c, 3, 60, 64
5, 87838, Note_on_c, 3, 53, 74
5, 87910, Note_off_c, 3, 53, 64
5, 87933, Note_on_c, 3, 52, 85
5, 88019, Note_off_c, 3, 52, 64
5, 88057, Note_on_c, 3, 53, 82
5, 88144, Note_off_c, 3, 53, 64
5, 88169, Note_on_c, 3, 50, 66
5, 88248, Note_off_c, 3, 50, 64
5, 88297, Note_on_c, 3, 55, 82
5, 88402, Note_off_c, 3, 55, 64
5, 88543, Note_on_c, 3, 52, 63
5, 88654, Note_off_c, 3, 52, 64
5, 88778, Note_on_c, 3, 57, 85
5, 88890, Note_off_c, 3, 57, 64
5, 89021, Note_on_c, 3, 53, 70
5, 89135, Note_off_c, 3, 53, 64
5, 89274, Note_on_c, 3, 55, 80
5, 89396, Note_off_c, 3, 55, 64
5, 89502, Note_on_c, 3, 64, 70
5, 89586, Note_off_c, 3, 64, 64
5, 89606, Note_on_c, 3, 62, 82
5, 89693, Note_off_c, 3, 62, 64
5, 89728, Note_on_c, 3, 64, 82
5, 89838, Note_off_c, 3, 64, 64
5, 89838, Note_on_c, 3, 60, 80
5, 89910, Note_off_c, 3, 60, 64
5, 89974, Note_on_c, 3, 59, 72
5, 90091, Note_off_c, 3, 59, 64
5, 90219, Note_on_c, 3, 55, 78
5, 90353, Note_off_c, 3, 55, 64
5, 90461, Note_on_c, 3, 59, 82
5, 90571, Note_off_c, 3, 59, 64
5, 90703, Note_on_c, 3, 48, 72
5, 90836, Note_off_c, 3, 48, 64
5, 90950, Note_on_c, 3, 53, 80
5, 91029, Note_off_c, 3, 53, 64
5, 91057, Note_on_c, 3, 50, 66
5, 91146, Note_off_c, 3, 50, 64
5, 91180, Note_on_c, 3, 59, 89
5, 91297, Note_off_c, 3, 59, 64
5, 91426, Note_on_c, 3, 52, 80
5, 91548, Note_off_c, 3, 52, 64
5, 91673, Note_on_c, 3, 53, 78
5, 91782, Note_off_c, 3, 53, 64
5, 91911, Note_on_c, 3, 55, 85
5, 92042, Note_off_c, 3, 55, 64
5, 92157, Note_on_c, 3, 48, 68
5, 92235, Note_off_c, 3, 48, 64
5, 92259, Note_on_c, 3, 47, 78
5, 92342, Note_off_c, 3, 47, 64
5, 92387, Note_on_c, 3, 48, 85
5, 92467, Note_off_c, 3, 48, 64
5, 92491, Note_on_c, 3, 50, 78
5, 92561, Note_off_c, 3, 50, 64
5, 92611, Note_on_c, 3, 52, 70
5, 92692, Note_off_c, 3, 52, 64
5, 92735, Note_on_c, 3, 53, 87
5, 92799, Note_off_c, 3, 53, 64
5, 92858, Note_on_c, 3, 55, 70
5, 92985, Note_off_c, 3, 55, 64
5, 93104, Note_on_c, 3, 50, 78
5, 93221, Note_off_c, 3, 50, 64
5, 93358, Note_on_c, 3, 47, 80
5, 93456, Note_off_c, 3, 47, 64
5, 93591, Note_on_c, 3, 44, 80
5, 93708, Note_off_c, 3, 44, 64
5, 93821, Note_on_c, 3, 47, 82
5, 93899, Note_off_c, 3, 47, 64
5, 93935, Note_on_c, 3, 44, 66
5, 94010, Note_off_c, 3, 44, 64
5, 94058, Note_on_c, 3, 52, 82
5, 94179, Note_off_c, 3, 52, 64
5, 94317, Note_on_c, 3, 48, 76
5, 94424, Note_off_c, 3, 48, 64
5, 94556, Note_on_c, 3, 53, 82
5, 94661, Note_off_c, 3, 53, 64
5, 94791, Note_on_c, 3, 50, 68
5, 94878, Note_off_c, 3, 50, 64
5, 95030, Note_on_c, 3, 52, 78
5, 95197, Note_off_c, 3, 52, 64
5, 95273, Note_on_c, 3, 56, 72
5, 95339, Note_off_c, 3, 56, 64
5, 95384, Note_on_c, 3, 52, 64
5, 95472, Note_off_c, 3, 52, 64
5, 95510, Note_on_c, 3, 64, 93
5, 95630, Note_off_c, 3, 64, 64
5, 95748, Note_on_c, 3, 57, 80
5, 95884, Note_off_c, 3, 57, 64
5, 95988, Note_on_c, 3, 45, 76
5, 96109, Note_off_c, 3, 45, 64
5, 96220, Note_on_c, 3, 48, 66
5, 96320, Note_off_c, 3, 48, 64
5, 96470, Note_on_c, 3, 50, 82
5, 96621, Note_off_c, 3, 50, 64
5, 96701, Note_on_c, 3, 53, 80
5, 96772, Note_off_c, 3, 53, 64
5, 96808, Note_on_c, 3, 50, 66
5, 96881, Note_off_c, 3, 50, 64
5, 96949, Note_on_c, 3, 56, 82
5, 97062, Note_off_c, 3, 56, 64
5, 97186, Note_on_c, 3, 57, 87
5, 97280, Note_off_c, 3, 57, 64
5, 97435, Note_on_c, 3, 50, 78
5, 97542, Note_off_c, 3, 50, 64
5, 97675, Note_on_c, 3, 52, 82
5, 97776, Note_off_c, 3, 52, 64
5, 97916, Note_on_c, 3, 45, 72
5, 98107, Note_off_c, 3, 45, 64
5, 98158, Note_on_c, 3, 48, 76
5, 98221, Note_off_c, 3, 48, 64
5, 98267, Note_on_c, 3, 45, 82
5, 98334, Note_off_c, 3, 45, 64
5, 98383, Note_on_c, 3, 53, 85
5, 98508, Note_off_c, 3, 53, 64
5, 98633, Note_on_c, 3, 52, 82
5, 98758, Note_off_c, 3, 52, 64
5, 98874, Note_on_c, 3, 48, 82
5, 98992, Note_off_c, 3, 48, 64
5, 99108, Note_on_c, 3, 60, 85
5, 99236, Note_off_c, 3, 60, 64
5, 99350, Note_on_c, 3, 53, 78
5, 99434, Note_off_c, 3, 53, 64
5, 99449, Note_on_c, 3, 52, 70
5, 99543, Note_off_c, 3, 52, 64
5, 99576, Note_on_c, 3, 53, 70
5, 99668, Note_off_c, 3, 53, 64
5, 99687, Note_on_c, 3, 50, 68
5, 99777, Note_off_c, 3, 50, 64
5, 99815, Note_on_c, 3, 55, 85
5, 99925, Note_off_c, 3, 55, 64
5, 100069, Note_on_c, 3, 52, 78
5, 100176, Note_off_c, 3, 52, 64
5, 100317, Note_on_c, 3, 57, 85
5, 100422, Note_off_c, 3, 57, 64
5, 100555, Note_on_c, 3, 53, 68
5, 100674, Note_off_c, 3, 53, 64
5, 100795, Note_on_c, 3, 55, 78
5, 100905, Note_off_c, 3, 55, 64
5, 101024, Note_on_c, 3, 64, 80
5, 101105, Note_off_c, 3, 64, 64
5, 101129, Note_on_c, 3, 62, 78
5, 101217, Note_off_c, 3, 62, 64
5, 101253, Note_on_c, 3, 64, 78
5, 101367, Note_on_c, 3, 60, 68
5, 101378, Note_off_c, 3, 64, 64
5, 101460, Note_off_c, 3, 60, 64
5, 101491, Note_on_c, 3, 59, 76
5, 101627, Note_off_c, 3, 59, 64
5, 101743, Note_on_c, 3, 55, 78
5, 101859, Note_off_c, 3, 55, 64
5, 101977, Note_on_c, 3, 59, 80
5, 102102, Note_off_c, 3, 59, 64
5, 102225, Note_on_c, 3, 48, 85
5, 102342, Note_off_c, 3, 48, 64
5, 102456, Note_on_c, 3, 53, 66
5, 102538, Note_off_c, 3, 53, 64
5, 102558, Note_on_c, 3, 50, 64
5, 102652, Note_off_c, 3, 50, 64
5, 102696, Note_on_c, 3, 59, 91
5, 102813, Note_off_c, 3, 59, 64
5, 102949, Note_on_c, 3, 52, 82
5, 103078, Note_off_c, 3, 52, 64
5, 103188, Note_on_c, 3, 53, 82
5, 103309, Note_off_c, 3, 53, 64
5, 103440, Note_on_c, 3, 55, 78
5, 103540, Note_off_c, 3, 55, 64
5, 103688, Note_on_c, 3, 48, 82
5, 104199, Note_off_c, 3, 48, 64
5, 104199, End_track
6, 0, Start_track
6, 0, Title_t, "Oboe1"
6, 0, Program_c, 4, 68
6, 0, Control_c, 4, 7, 100
6, 711, Note_on_c, 4, 72, 78
6, 845, Note_off_c, 4, 72, 64
6, 957, Note_on_c, 4, 76, 82
6, 1034, Note_off_c, 4, 76, 64
6, 1065, Note_on_c, 4, 72, 80
6, 1130, Note_off_c, 4, 72, 64
6, 1188, Note_on_c, 4, 79, 89
6, 1288, Note_off_c, 4, 79, 64
6, 1435, Note_on_c, 4, 81, 87
6, 1555, Note_off_c, 4, 81, 64
6, 1688, Note_on_c, 4, 79, 82
6, 1787, Note_on_c, 4, 77, 59
6, 1799, Note_off_c, 4, 79, 64
6, 1831, Note_on_c, 4, 79, 63
6, 1833, Note_off_c, 4, 77, 64
6, 1874, Note_on_c, 4, 77, 62
6, 1879, Note_off_c, 4, 79, 64
6, 1909, Note_on_c, 4, 79, 63
6, 1917, Note_off_c, 4, 77, 64
6, 1938, Note_on_c, 4, 77, 45
6, 1942, Note_off_c, 4, 79, 64
6, 1966, Note_on_c, 4, 79, 74
6, 1969, Note_off_c, 4, 77, 64
6, 2001, Note_on_c, 4, 77, 68
6, 2020, Note_off_c, 4, 79, 64
6, 2040, Note_on_c, 4, 76, 72
6, 2047, Note_off_c, 4, 77, 64
6, 2088, Note_on_c, 4, 77, 70
6, 2104, Note_off_c, 4, 76, 64
6, 2153, Note_on_c, 4, 79, 80
6, 2159, Note_off_c, 4, 77, 64
6, 2302, Note_off_c, 4, 79, 64
6, 2399, Note_on_c, 4, 76, 82
6, 2473, Note_off_c, 4, 76, 64
6, 2512, Note_on_c, 4, 72, 68
6, 2588, Note_off_c, 4, 72, 64
6, 2638, Note_on_c, 4, 77, 85
6, 2764, Note_off_c, 4, 77, 64
6, 2878, Note_on_c, 4, 74, 87
6, 2964, Note_off_c, 4, 74, 64
6, 2987, Note_on_c, 4, 72, 70
6, 3071, Note_off_c, 4, 72, 64
6, 3110, Note_on_c, 4, 74, 85
6, 3218, Note_off_c, 4, 74, 64
6, 3218, Note_on_c, 4, 76, 78
6, 3292, Note_off_c, 4, 76, 64
6, 3346, Note_on_c, 4, 77, 80
6, 3443, Note_off_c, 4, 77, 64
6, 3467, Note_on_c, 4, 74, 74
6, 3552, Note_off_c, 4, 74, 64
6, 3597, Note_on_c, 4, 76, 89
6, 3712, Note_off_c, 4, 76, 64
6, 3838, Note_on_c, 4, 79, 85
6, 3923, Note_off_c, 4, 79, 64
6, 3946, Note_on_c, 4, 76, 68
6, 4032, Note_off_c, 4, 76, 64
6, 4077, Note_on_c, 4, 84, 89
6, 4167, Note_off_c, 4, 84, 64
6, 4329, Note_on_c, 4, 79, 85
6, 4393, Note_on_c, 4, 78, 62
6, 4416, Note_off_c, 4, 79, 64
6, 4504, Note_off_c, 4, 78, 64
6, 4576, Note_on_c, 4, 76, 78
6, 4685, Note_on_c, 4, 74, 68
6, 4701, Note_off_c, 4, 76, 64
6, 4763, Note_off_c, 4, 74, 64
6, 4804, Note_on_c, 4, 72, 80
6, 4907, Note_on_c, 4, 71, 66
6, 4920, Note_off_c, 4, 72, 64
6, 4998, Note_off_c, 4, 71, 64
6, 5041, Note_on_c, 4, 76, 89
6, 5150, Note_off_c, 4, 76, 64
6, 5272, Note_on_c, 4, 71, 78
6, 5376, Note_on_c, 4, 69, 49
6, 5380, Note_off_c, 4, 71, 64
6, 5415, Note_on_c, 4, 71, 64
6, 5417, Note_off_c, 4, 69, 64
6, 5452, Note_off_c, 4, 71, 64
6, 5452, Note_on_c, 4, 69, 64
6, 5480, Note_off_c, 4, 69, 64
6, 5480, Note_on_c, 4, 71, 76
6, 5511, Note_on_c, 4, 69, 82
6, 5527, Note_off_c, 4, 71, 64
6, 5612, Note_off_c, 4, 69, 64
6, 5623, Note_on_c, 4, 67, 80
6, 5705, Note_off_c, 4, 67, 64
6, 5768, Note_on_c, 4, 67, 74
6, 6302, Note_off_c, 4, 67, 64
6, 6479, Note_on_c, 4, 72, 89
6, 6603, Note_off_c, 4, 72, 64
6, 6720, Note_on_c, 4, 76, 80
6, 6802, Note_off_c, 4, 76, 64
6, 6831, Note_on_c, 4, 72, 76
6, 6916, Note_off_c, 4, 72, 64
6, 6966, Note_on_c, 4, 79, 95
6, 7066, Note_off_c, 4, 79, 64
6, 7207, Note_on_c, 4, 81, 87
6, 7322, Note_off_c, 4, 81, 64
6, 7440, Note_on_c, 4, 79, 78
6, 7545, Note_on_c, 4, 77, 68
6, 7554, Note_off_c, 4, 79, 64
6, 7595, Note_off_c, 4, 77, 64
6, 7596, Note_on_c, 4, 79, 68
6, 7636, Note_on_c, 4, 77, 59
6, 7639, Note_off_c, 4, 79, 64
6, 7668, Note_on_c, 4, 79, 66
6, 7677, Note_off_c, 4, 77, 64
6, 7702, Note_off_c, 4, 79, 64
6, 7703, Note_on_c, 4, 77, 61
6, 7733, Note_on_c, 4, 79, 70
6, 7736, Note_off_c, 4, 77, 64
6, 7763, Note_on_c, 4, 77, 68
6, 7783, Note_off_c, 4, 79, 64
6, 7807, Note_on_c, 4, 76, 80
6, 7810, Note_off_c, 4, 77, 64
6, 7853, Note_on_c, 4, 77, 60
6, 7870, Note_off_c, 4, 76, 64
6, 7921, Note_off_c, 4, 77, 64
6, 7924, Note_on_c, 4, 79, 82
6, 8076, Note_off_c, 4, 79, 64
6, 8168, Note_on_c, 4, 76, 85
6, 8252, Note_off_c, 4, 76, 64
6, 8285, Note_on_c, 4, 72, 70
6, 8366, Note_off_c, 4, 72, 64
6, 8407, Note_on_c, 4, 77, 89
6, 8523, Note_off_c, 4, 77, 64
6, 8646, Note_on_c, 4, 74, 80
6, 8725, Note_off_c, 4, 74, 64
6, 8753, Note_on_c, 4, 72, 80
6, 8846, Note_off_c, 4, 72, 64
6, 8878, Note_on_c, 4, 74, 85
6, 8968, Note_off_c, 4, 74, 64
6, 8990, Note_on_c, 4, 76, 80
6, 9074, Note_off_c, 4, 76, 64
6, 9113, Note_on_c, 4, 77, 82
6, 9197, Note_off_c, 4, 77, 64
6, 9226, Note_on_c, 4, 74, 68
6, 9305, Note_off_c, 4, 74, 64
6, 9366, Note_on_c, 4, 76, 89
6, 9479, Note_off_c, 4, 76, 64
6, 9596, Note_on_c, 4, 79, 87
6, 9679, Note_off_c, 4, 79, 64
6, 9706, Note_on_c, 4, 76, 80
6, 9795, Note_off_c, 4, 76, 64
6, 9832, Note_on_c, 4, 84, 91
6, 9922, Note_off_c, 4, 84, 64
6, 10078, Note_on_c, 4, 79, 89
6, 10152, Note_on_c, 4, 78, 57
6, 10175, Note_off_c, 4, 79, 64
6, 10257, Note_off_c, 4, 78, 64
6, 10317, Note_on_c, 4, 76, 64
6, 10424, Note_on_c, 4, 74, 72
6, 10433, Note_off_c, 4, 76, 64
6, 10495, Note_off_c, 4, 74, 64
6, 10552, Note_on_c, 4, 72, 82
6, 10659, Note_on_c, 4, 71, 60
6, 10676, Note_off_c, 4, 72, 64
6, 10735, Note_off_c, 4, 71, 64
6, 10796, Note_on_c, 4, 76, 89
6, 10894, Note_off_c, 4, 76, 64
6, 11024, Note_on_c, 4, 71, 80
6, 11115, Note_on_c, 4, 69, 57
6, 11121, Note_off_c, 4, 71, 64
6, 11153, Note_off_c, 4, 69, 64
6, 11156, Note_on_c, 4, 71, 64
6, 11195, Note_on_c, 4, 69, 64
6, 11196, Note_off_c, 4, 71, 64
6, 11227, Note_on_c, 4, 71, 70
6, 11230, Note_off_c, 4, 69, 64
6, 11257, Note_on_c, 4, 69, 72
6, 11269, Note_off_c, 4, 71, 64
6, 11358, Note_off_c, 4, 69, 64
6, 11377, Note_on_c, 4, 67, 70
6, 11456, Note_off_c, 4, 67, 64
6, 11527, Note_on_c, 4, 67, 82
6, 12047, Note_off_c, 4, 67, 64
6, 81355, Note_on_c, 4, 67, 82
6, 81504, Note_off_c, 4, 67, 64
6, 81601, Note_on_c, 4, 71, 80
6, 81668, Note_off_c, 4, 71, 64
6, 81699, Note_on_c, 4, 67, 68
6, 81764, Note_off_c, 4, 67, 64
6, 81823, Note_on_c, 4, 74, 85
6, 81928, Note_off_c, 4, 74, 64
6, 82065, Note_on_c, 4, 77, 85
6, 82194, Note_off_c, 4, 77, 64
6, 82319, Note_on_c, 4, 76, 74
6, 82424, Note_on_c, 4, 74, 59
6, 82434, Note_off_c, 4, 76, 64
6, 82468, Note_off_c, 4, 74, 64
6, 82468, Note_on_c, 4, 76, 61
6, 82508, Note_on_c, 4, 74, 66
6, 82511, Note_off_c, 4, 76, 64
6, 82544, Note_off_c, 4, 74, 64
6, 82544, Note_on_c, 4, 76, 63
6, 82573, Note_off_c, 4, 76, 64
6, 82575, Note_on_c, 4, 74, 64
6, 82601, Note_on_c, 4, 76, 68
6, 82604, Note_off_c, 4, 74, 64
6, 82640, Note_on_c, 4, 74, 66
6, 82656, Note_off_c, 4, 76, 64
6, 82675, Note_on_c, 4, 72, 68
6, 82686, Note_off_c, 4, 74, 64
6, 82723, Note_on_c, 4, 74, 63
6, 82741, Note_off_c, 4, 72, 64
6, 82794, Note_on_c, 4, 76, 82
6, 82797, Note_off_c, 4, 74, 64
6, 82929, Note_off_c, 4, 76, 64
6, 83035, Note_on_c, 4, 72, 80
6, 83102, Note_off_c, 4, 72, 64
6, 83140, Note_on_c, 4, 69, 58
6, 83210, Note_off_c, 4, 69, 64
6, 83269, Note_on_c, 4, 81, 82
6, 83371, Note_off_c, 4, 81, 64
6, 83511, Note_on_c, 4, 80, 87
6, 83622, Note_on_c, 4, 81, 78
6, 83647, Note_off_c, 4, 80, 64
6, 83742, Note_on_c, 4, 83, 85
6, 83762, Note_off_c, 4, 81, 64
6, 83800, Note_off_c, 4, 83, 64
6, 83860, Note_on_c, 4, 80, 70
6, 83922, Note_off_c, 4, 80, 64
6, 83981, Note_on_c, 4, 76, 70
6, 84048, Note_off_c, 4, 76, 64
6, 84114, Note_on_c, 4, 74, 68
6, 84176, Note_off_c, 4, 74, 64
6, 84251, Note_on_c, 4, 72, 78
6, 84375, Note_off_c, 4, 72, 64
6, 84477, Note_on_c, 4, 76, 78
6, 84547, Note_off_c, 4, 76, 64
6, 84577, Note_on_c, 4, 72, 64
6, 84661, Note_off_c, 4, 72, 64
6, 84711, Note_on_c, 4, 81, 89
6, 84804, Note_off_c, 4, 81, 64
6, 84943, Note_on_c, 4, 71, 68
6, 85034, Note_off_c, 4, 71, 64
6, 85064, Note_on_c, 4, 72, 82
6, 85133, Note_off_c, 4, 72, 64
6, 85192, Note_on_c, 4, 74, 82
6, 85486, Note_off_c, 4, 74, 64
6, 85538, Note_on_c, 4, 77, 72
6, 85605, Note_off_c, 4, 77, 64
6, 85683, Note_on_c, 4, 76, 87
6, 85856, Note_off_c, 4, 76, 64
6, 85907, Note_on_c, 4, 74, 68
6, 86004, Note_off_c, 4, 74, 64
6, 86015, Note_on_c, 4, 72, 64
6, 86089, Note_off_c, 4, 72, 64
6, 86141, Note_on_c, 4, 71, 76
6, 86261, Note_off_c, 4, 71, 64
6, 86261, Note_on_c, 4, 72, 63
6, 86343, Note_off_c, 4, 72, 64
6, 86400, Note_on_c, 4, 69, 80
6, 87000, Note_off_c, 4, 69, 64
6, 87115, Note_on_c, 4, 67, 80
6, 87258, Note_off_c, 4, 67, 64
6, 87355, Note_on_c, 4, 72, 82
6, 87418, Note_off_c, 4, 72, 64
6, 87466, Note_on_c, 4, 67, 68
6, 87547, Note_off_c, 4, 67, 64
6, 87594, Note_on_c, 4, 76, 89
6, 87697, Note_off_c, 4, 76, 64
6, 87829, Note_on_c, 4, 69, 78
6, 87924, Note_off_c, 4, 69, 64
6, 87957, Note_on_c, 4, 71, 87
6, 88023, Note_off_c, 4, 71, 64
6, 88071, Note_on_c, 4, 72, 70
6, 88161, Note_on_c, 4, 71, 57
6, 88169, Note_off_c, 4, 72, 64
6, 88207, Note_off_c, 4, 71, 64
6, 88208, Note_on_c, 4, 72, 64
6, 88244, Note_on_c, 4, 71, 64
6, 88248, Note_off_c, 4, 72, 64
6, 88283, Note_on_c, 4, 72, 66
6, 88285, Note_off_c, 4, 71, 64
6, 88309, Note_off_c, 4, 72, 64
6, 88312, Note_on_c, 4, 71, 63
6, 88340, Note_off_c, 4, 71, 64
6, 88340, Note_on_c, 4, 72, 64
6, 88372, Note_on_c, 4, 71, 74
6, 88388, Note_off_c, 4, 72, 64
6, 88415, Note_on_c, 4, 69, 66
6, 88418, Note_off_c, 4, 71, 64
6, 88458, Note_on_c, 4, 71, 68
6, 88490, Note_off_c, 4, 69, 64
6, 88523, Note_off_c, 4, 71, 64
6, 88539, Note_on_c, 4, 72, 87
6, 88675, Note_off_c, 4, 72, 64
6, 88789, Note_on_c, 4, 77, 85
6, 88868, Note_off_c, 4, 77, 64
6, 88900, Note_on_c, 4, 72, 68
6, 88975, Note_off_c, 4, 72, 64
6, 89028, Note_on_c, 4, 81, 87
6, 89130, Note_off_c, 4, 81, 64
6, 89259, Note_on_c, 4, 71, 78
6, 89344, Note_off_c, 4, 71, 64
6, 89375, Note_on_c, 4, 72, 82
6, 89454, Note_off_c, 4, 72, 64
6, 89492, Note_on_c, 4, 74, 82
6, 89590, Note_on_c, 4, 72, 52
6, 89599, Note_off_c, 4, 74, 64
6, 89630, Note_off_c, 4, 72, 64
6, 89633, Note_on_c, 4, 74, 60
6, 89672, Note_on_c, 4, 72, 60
6, 89673, Note_off_c, 4, 74, 64
6, 89707, Note_off_c, 4, 72, 64
6, 89707, Note_on_c, 4, 74, 63
6, 89738, Note_off_c, 4, 74, 64
6, 89738, Note_on_c, 4, 72, 64
6, 89764, Note_off_c, 4, 72, 64
6, 89764, Note_on_c, 4, 74, 68
6, 89798, Note_on_c, 4, 72, 72
6, 89818, Note_off_c, 4, 74, 64
6, 89845, Note_off_c, 4, 72, 64
6, 89849, Note_on_c, 4, 71, 70
6, 89885, Note_on_c, 4, 72, 64
6, 89920, Note_off_c, 4, 71, 64
6, 89966, Note_off_c, 4, 72, 64
6, 89974, Note_on_c, 4, 74, 85
6, 90110, Note_off_c, 4, 74, 64
6, 90212, Note_on_c, 4, 71, 78
6, 90283, Note_off_c, 4, 71, 64
6, 90317, Note_on_c, 4, 67, 62
6, 90404, Note_off_c, 4, 67, 64
6, 90459, Note_on_c, 4, 77, 89
6, 90586, Note_off_c, 4, 77, 64
6, 90711, Note_on_c, 4, 76, 85
6, 90830, Note_off_c, 4, 76, 64
6, 90959, Note_on_c, 4, 81, 82
6, 91053, Note_off_c, 4, 81, 64
6, 91069, Note_on_c, 4, 79, 72
6, 91158, Note_off_c, 4, 79, 64
6, 91186, Note_on_c, 4, 81, 89
6, 91303, Note_off_c, 4, 81, 64
6, 91306, Note_on_c, 4, 77, 85
6, 91384, Note_off_c, 4, 77, 64
6, 91427, Note_on_c, 4, 79, 85
6, 91510, Note_off_c, 4, 79, 64
6, 91681, Note_on_c, 4, 72, 82
6, 91778, Note_off_c, 4, 72, 64
6, 91922, Note_on_c, 4, 71, 80
6, 92020, Note_off_c, 4, 71, 64
6, 92167, Note_on_c, 4, 72, 74
6, 92721, Note_off_c, 4, 72, 64
6, 92865, Note_on_c, 4, 67, 72
6, 93003, Note_off_c, 4, 67, 64
6, 93111, Note_on_c, 4, 71, 76
6, 93182, Note_off_c, 4, 71, 64
6, 93225, Note_on_c, 4, 67, 60
6, 93302, Note_off_c, 4, 67, 64
6, 93352, Note_on_c, 4, 74, 85
6, 93459, Note_off_c, 4, 74, 64
6, 93591, Note_on_c, 4, 77, 85
6, 93706, Note_off_c, 4, 77, 64
6, 93837, Note_on_c, 4, 76, 80
6, 93947, Note_on_c, 4, 74, 68
6, 93958, Note_off_c, 4, 76, 64
6, 93994, Note_off_c, 4, 74, 64
6, 93995, Note_on_c, 4, 76, 62
6, 94032, Note_on_c, 4, 74, 66
6, 94036, Note_off_c, 4, 76, 64
6, 94064, Note_on_c, 4, 76, 66
6, 94068, Note_off_c, 4, 74, 64
6, 94096, Note_off_c, 4, 76, 64
6, 94099, Note_on_c, 4, 74, 68
6, 94124, Note_off_c, 4, 74, 64
6, 94124, Note_on_c, 4, 76, 68
6, 94159, Note_on_c, 4, 74, 70
6, 94170, Note_off_c, 4, 76, 64
6, 94196, Note_on_c, 4, 72, 66
6, 94201, Note_off_c, 4, 74, 64
6, 94240, Note_on_c, 4, 74, 68
6, 94263, Note_off_c, 4, 72, 64
6, 94303, Note_off_c, 4, 74, 64
6, 94317, Note_on_c, 4, 76, 85
6, 94460, Note_off_c, 4, 76, 64
6, 94552, Note_on_c, 4, 72, 80
6, 94618, Note_off_c, 4, 72, 64
6, 94659, Note_on_c, 4, 69, 61
6, 94730, Note_off_c, 4, 69, 64
6, 94791, Note_on_c, 4, 81, 85
6, 94904, Note_off_c, 4, 81, 64
6, 95035, Note_on_c, 4, 80, 80
6, 95144, Note_on_c, 4, 81, 76
6, 95174, Note_off_c, 4, 80, 64
6, 95261, Note_on_c, 4, 83, 78
6, 95269, Note_off_c, 4, 81, 64
6, 95318, Note_off_c, 4, 83, 64
6, 95376, Note_on_c, 4, 80, 66
6, 95444, Note_off_c, 4, 80, 64
6, 95517, Note_on_c, 4, 76, 68
6, 95580, Note_off_c, 4, 76, 64
6, 95642, Note_on_c, 4, 74, 68
6, 95702, Note_off_c, 4, 74, 64
6, 95768, Note_on_c, 4, 72, 85
6, 95902, Note_off_c, 4, 72, 64
6, 95992, Note_on_c, 4, 76, 68
6, 96064, Note_off_c, 4, 76, 64
6, 96112, Note_on_c, 4, 72, 66
6, 96197, Note_off_c, 4, 72, 64
6, 96241, Note_on_c, 4, 81, 85
6, 96326, Note_off_c, 4, 81, 64
6, 96471, Note_on_c, 4, 71, 76
6, 96564, Note_off_c, 4, 71, 64
6, 96595, Note_on_c, 4, 72, 76
6, 96664, Note_off_c, 4, 72, 64
6, 96724, Note_on_c, 4, 74, 78
6, 96990, Note_off_c, 4, 74, 64
6, 97056, Note_on_c, 4, 77, 70
6, 97116, Note_off_c, 4, 77, 64
6, 97198, Note_on_c, 4, 76, 80
6, 97394, Note_off_c, 4, 76, 64
6, 97435, Note_on_c, 4, 74, 68
6, 97519, Note_off_c, 4, 74, 64
6, 97545, Note_on_c, 4, 72, 68
6, 97625, Note_off_c, 4, 72, 64
6, 97666, Note_on_c, 4, 71, 70
6, 97764, Note_off_c, 4, 71, 64
6, 97791, Note_on_c, 4, 72, 68
6, 97870, Note_off_c, 4, 72, 64
6, 97917, Note_on_c, 4, 69, 70
6, 98482, Note_off_c, 4, 69, 64
6, 98628, Note_on_c, 4, 67, 72
6, 98791, Note_off_c, 4, 67, 64
6, 98877, Note_on_c, 4, 72, 80
6, 98943, Note_off_c, 4, 72, 64
6, 98987, Note_on_c, 4, 67, 60
6, 99069, Note_off_c, 4, 67, 64
6, 99118, Note_on_c, 4, 76, 91
6, 99221, Note_off_c, 4, 76, 64
6, 99351, Note_on_c, 4, 69, 76
6, 99449, Note_off_c, 4, 69, 64
6, 99469, Note_on_c, 4, 71, 80
6, 99542, Note_off_c, 4, 71, 64
6, 99585, Note_on_c, 4, 72, 76
6, 99680, Note_on_c, 4, 71, 43
6, 99688, Note_off_c, 4, 72, 64
6, 99714, Note_on_c, 4, 72, 68
6, 99715, Note_off_c, 4, 71, 64
6, 99754, Note_on_c, 4, 71, 60
6, 99756, Note_off_c, 4, 72, 64
6, 99789, Note_off_c, 4, 71, 64
6, 99789, Note_on_c, 4, 72, 70
6, 99816, Note_on_c, 4, 71, 61
6, 99820, Note_off_c, 4, 72, 64
6, 99848, Note_off_c, 4, 71, 64
6, 99850, Note_on_c, 4, 72, 64
6, 99882, Note_on_c, 4, 71, 66
6, 99895, Note_off_c, 4, 72, 64
6, 99933, Note_off_c, 4, 71, 64
6, 99933, Note_on_c, 4, 69, 64
6, 99973, Note_on_c, 4, 71, 68
6, 100000, Note_off_c, 4, 69, 64
6, 100039, Note_off_c, 4, 71, 64
6, 100047, Note_on_c, 4, 72, 82
6, 100182, Note_off_c, 4, 72, 64
6, 100305, Note_on_c, 4, 77, 80
6, 100389, Note_off_c, 4, 77, 64
6, 100428, Note_on_c, 4, 72, 68
6, 100507, Note_off_c, 4, 72, 64
6, 100559, Note_on_c, 4, 81, 89
6, 100651, Note_off_c, 4, 81, 64
6, 100784, Note_on_c, 4, 71, 78
6, 100873, Note_off_c, 4, 71, 64
6, 100902, Note_on_c, 4, 72, 85
6, 100977, Note_off_c, 4, 72, 64
6, 101020, Note_on_c, 4, 74, 78
6, 101108, Note_on_c, 4, 72, 43
6, 101112, Note_off_c, 4, 74, 64
6, 101145, Note_on_c, 4, 74, 64
6, 101147, Note_off_c, 4, 72, 64
6, 101191, Note_on_c, 4, 72, 52
6, 101192, Note_off_c, 4, 74, 64
6, 101221, Note_off_c, 4, 72, 64
6, 101222, Note_on_c, 4, 74, 70
6, 101258, Note_on_c, 4, 72, 60
6, 101261, Note_off_c, 4, 74, 64
6, 101287, Note_on_c, 4, 74, 66
6, 101288, Note_off_c, 4, 72, 64
6, 101321, Note_on_c, 4, 72, 70
6, 101342, Note_off_c, 4, 74, 64
6, 101373, Note_off_c, 4, 72, 64
6, 101373, Note_on_c, 4, 71, 70
6, 101426, Note_on_c, 4, 72, 68
6, 101452, Note_off_c, 4, 71, 64
6, 101502, Note_off_c, 4, 72, 64
6, 101514, Note_on_c, 4, 74, 85
6, 101639, Note_off_c, 4, 74, 64
6, 101745, Note_on_c, 4, 71, 72
6, 101815, Note_off_c, 4, 71, 64
6, 101854, Note_on_c, 4, 67, 59
6, 101933, Note_off_c, 4, 67, 64
6, 101992, Note_on_c, 4, 77, 85
6, 102121, Note_off_c, 4, 77, 64
6, 102233, Note_on_c, 4, 76, 72
6, 102359, Note_off_c, 4, 76, 64
6, 102473, Note_on_c, 4, 81, 85
6, 102573, Note_off_c, 4, 81, 64
6, 102579, Note_on_c, 4, 79, 74
6, 102664, Note_off_c, 4, 79, 64
6, 102700, Note_on_c, 4, 81, 85
6, 102801, Note_off_c, 4, 81, 64
6, 102824, Note_on_c, 4, 77, 78
6, 102901, Note_off_c, 4, 77, 64
6, 102949, Note_on_c, 4, 79, 87
6, 103050, Note_off_c, 4, 79, 64
6, 103187, Note_on_c, 4, 72, 78
6, 103282, Note_off_c, 4, 72, 64
6, 103426, Note_on_c, 4, 71, 78
6, 103534, Note_off_c, 4, 71, 64
6, 103688, Note_on_c, 4, 72, 78
6, 104218, Note_off_c, 4, 72, 64
6, 104218, End_track
7, 0, Start_track
7, 0, Title_t, "Oboe2"
7, 0, Program_c, 5, 68
7, 0, Control_c, 5, 7, 100
7, 724, Note_on_c, 5, 72, 80
7, 860, Note_off_c, 5, 72, 64
7, 954, Note_on_c, 5, 76, 85
7, 1034, Note_off_c, 5, 76, 64
7, 1076, Note_on_c, 5, 72, 74
7, 1151, Note_off_c, 5, 72, 64
7, 1205, Note_on_c, 5, 79, 87
7, 1307, Note_off_c, 5, 79, 64
7, 1438, Note_on_c, 5, 81, 89
7, 1557, Note_off_c, 5, 81, 64
7, 1682, Note_on_c, 5, 79, 82
7, 1790, Note_on_c, 5, 77, 57
7, 1799, Note_off_c, 5, 79, 64
7, 1836, Note_off_c, 5, 77, 64
7, 1837, Note_on_c, 5, 79, 64
7, 1874, Note_on_c, 5, 77, 60
7, 1880, Note_off_c, 5, 79, 64
7, 1909, Note_on_c, 5, 79, 62
7, 1915, Note_off_c, 5, 77, 64
7, 1928, Note_on_c, 5, 77, 45
7, 1936, Note_off_c, 5, 79, 64
7, 1958, Note_on_c, 5, 79, 72
7, 1963, Note_off_c, 5, 77, 64
7, 1993, Note_on_c, 5, 77, 63
7, 2006, Note_off_c, 5, 79, 64
7, 2036, Note_on_c, 5, 76, 66
7, 2041, Note_off_c, 5, 77, 64
7, 2084, Note_on_c, 5, 77, 66
7, 2107, Note_off_c, 5, 76, 64
7, 2163, Note_off_c, 5, 77, 64
7, 2163, Note_on_c, 5, 79, 87
7, 2310, Note_off_c, 5, 79, 64
7, 2403, Note_on_c, 5, 76, 85
7, 2486, Note_off_c, 5, 76, 64
7, 2518, Note_on_c, 5, 72, 78
7, 2585, Note_off_c, 5, 72, 64
7, 2637, Note_on_c, 5, 77, 85
7, 2756, Note_off_c, 5, 77, 64
7, 2876, Note_on_c, 5, 74, 80
7, 2964, Note_off_c, 5, 74, 64
7, 2986, Note_on_c, 5, 72, 68
7, 3084, Note_off_c, 5, 72, 64
7, 3112, Note_on_c, 5, 74, 87
7, 3225, Note_off_c, 5, 74, 64
7, 3227, Note_on_c, 5, 76, 82
7, 3319, Note_off_c, 5, 76, 64
7, 3350, Note_on_c, 5, 77, 82
7, 3446, Note_off_c, 5, 77, 64
7, 3467, Note_on_c, 5, 74, 66
7, 3544, Note_off_c, 5, 74, 64
7, 3600, Note_on_c, 5, 76, 89
7, 3722, Note_off_c, 5, 76, 64
7, 3842, Note_on_c, 5, 79, 82
7, 3927, Note_off_c, 5, 79, 64
7, 3951, Note_on_c, 5, 76, 68
7, 4034, Note_off_c, 5, 76, 64
7, 4073, Note_on_c, 5, 84, 89
7, 4173, Note_off_c, 5, 84, 64
7, 4318, Note_on_c, 5, 79, 85
7, 4384, Note_on_c, 5, 78, 60
7, 4409, Note_off_c, 5, 79, 64
7, 4513, Note_off_c, 5, 78, 64
7, 4568, Note_on_c, 5, 76, 68
7, 4674, Note_on_c, 5, 74, 66
7, 4683, Note_off_c, 5, 76, 64
7, 4759, Note_off_c, 5, 74, 64
7, 4791, Note_on_c, 5, 72, 76
7, 4897, Note_on_c, 5, 71, 68
7, 4913, Note_off_c, 5, 72, 64
7, 4984, Note_off_c, 5, 71, 64
7, 5033, Note_on_c, 5, 76, 87
7, 5159, Note_off_c, 5, 76, 64
7, 5271, Note_on_c, 5, 71, 76
7, 5370, Note_on_c, 5, 69, 53
7, 5376, Note_off_c, 5, 71, 64
7, 5411, Note_off_c, 5, 69, 64
7, 5411, Note_on_c, 5, 71, 66
7, 5455, Note_on_c, 5, 69, 66
7, 5456, Note_off_c, 5, 71, 64
7, 5487, Note_on_c, 5, 71, 72
7, 5491, Note_off_c, 5, 69, 64
7, 5517, Note_on_c, 5, 69, 72
7, 5530, Note_off_c, 5, 71, 64
7, 5628, Note_off_c, 5, 69, 64
7, 5634, Note_on_c, 5, 67, 82
7, 5705, Note_off_c, 5, 67, 64
7, 5773, Note_on_c, 5, 67, 80
7, 6308, Note_off_c, 5, 67, 64
7, 6480, Note_on_c, 5, 72, 87
7, 6607, Note_off_c, 5, 72, 64
7, 6714, Note_on_c, 5, 76, 82
7, 6802, Note_off_c, 5, 76, 64
7, 6827, Note_on_c, 5, 72, 72
7, 6906, Note_off_c, 5, 72, 64
7, 6956, Note_on_c, 5, 79, 87
7, 7069, Note_off_c, 5, 79, 64
7, 7191, Note_on_c, 5, 81, 82
7, 7331, Note_off_c, 5, 81, 64
7, 7445, Note_on_c, 5, 79, 78
7, 7549, Note_on_c, 5, 77, 55
7, 7562, Note_off_c, 5, 79, 64
7, 7595, Note_on_c, 5, 79, 63
7, 7597, Note_off_c, 5, 77, 64
7, 7636, Note_on_c, 5, 77, 60
7, 7642, Note_off_c, 5, 79, 64
7, 7671, Note_off_c, 5, 77, 64
7, 7674, Note_on_c, 5, 79, 60
7, 7702, Note_on_c, 5, 77, 61
7, 7709, Note_off_c, 5, 79, 64
7, 7737, Note_off_c, 5, 77, 64
7, 7738, Note_on_c, 5, 79, 66
7, 7768, Note_on_c, 5, 77, 64
7, 7784, Note_off_c, 5, 79, 64
7, 7811, Note_on_c, 5, 76, 64
7, 7816, Note_off_c, 5, 77, 64
7, 7856, Note_on_c, 5, 77, 63
7, 7880, Note_off_c, 5, 76, 64
7, 7928, Note_off_c, 5, 77, 64
7, 7932, Note_on_c, 5, 79, 82
7, 8072, Note_off_c, 5, 79, 64
7, 8159, Note_on_c, 5, 76, 80
7, 8240, Note_off_c, 5, 76, 64
7, 8274, Note_on_c, 5, 72, 68
7, 8357, Note_off_c, 5, 72, 64
7, 8401, Note_on_c, 5, 77, 85
7, 8530, Note_off_c, 5, 77, 64
7, 8636, Note_on_c, 5, 74, 80
7, 8719, Note_off_c, 5, 74, 64
7, 8745, Note_on_c, 5, 72, 78
7, 8838, Note_off_c, 5, 72, 64
7, 8871, Note_on_c, 5, 74, 82
7, 8972, Note_off_c, 5, 74, 64
7, 8986, Note_on_c, 5, 76, 76
7, 9065, Note_off_c, 5, 76, 64
7, 9115, Note_on_c, 5, 77, 85
7, 9202, Note_off_c, 5, 77, 64
7, 9232, Note_on_c, 5, 74, 64
7, 9308, Note_off_c, 5, 74, 64
7, 9358, Note_on_c, 5, 76, 87
7, 9473, Note_off_c, 5, 76, 64
7, 9598, Note_on_c, 5, 79, 85
7, 9675, Note_off_c, 5, 79, 64
7, 9702, Note_on_c, 5, 76, 66
7, 9791, Note_off_c, 5, 76, 64
7, 9830, Note_on_c, 5, 84, 89
7, 9929, Note_off_c, 5, 84, 64
7, 10085, Note_on_c, 5, 79, 89
7, 10174, Note_on_c, 5, 78, 78
7, 10194, Note_off_c, 5, 79, 64
7, 10245, Note_off_c, 5, 78, 64
7, 10339, Note_on_c, 5, 76, 80
7, 10444, Note_on_c, 5, 74, 72
7, 10456, Note_off_c, 5, 76, 64
7, 10523, Note_off_c, 5, 74, 64
7, 10561, Note_on_c, 5, 72, 66
7, 10663, Note_on_c, 5, 71, 68
7, 10679, Note_off_c, 5, 72, 64
7, 10758, Note_off_c, 5, 71, 64
7, 10801, Note_on_c, 5, 76, 89
7, 10918, Note_off_c, 5, 76, 64
7, 11028, Note_on_c, 5, 71, 72
7, 11129, Note_on_c, 5, 69, 57
7, 11137, Note_off_c, 5, 71, 64
7, 11171, Note_off_c, 5, 69, 64
7, 11171, Note_on_c, 5, 71, 64
7, 11209, Note_on_c, 5, 69, 63
7, 11213, Note_off_c, 5, 71, 64
7, 11244, Note_off_c, 5, 69, 64
7, 11244, Note_on_c, 5, 71, 74
7, 11274, Note_on_c, 5, 69, 78
7, 11282, Note_off_c, 5, 71, 64
7, 11378, Note_off_c, 5, 69, 64
7, 11386, Note_on_c, 5, 67, 78
7, 11463, Note_off_c, 5, 67, 64
7, 11527, Note_on_c, 5, 67, 82
7, 12045, Note_off_c, 5, 67, 64
7, 81367, Note_on_c, 5, 67, 82
7, 81491, Note_off_c, 5, 67, 64
7, 81600, Note_on_c, 5, 71, 78
7, 81674, Note_off_c, 5, 71, 64
7, 81714, Note_on_c, 5, 67, 64
7, 81782, Note_off_c, 5, 67, 64
7, 81839, Note_on_c, 5, 74, 85
7, 81938, Note_off_c, 5, 74, 64
7, 82075, Note_on_c, 5, 77, 85
7, 82192, Note_off_c, 5, 77, 64
7, 82311, Note_on_c, 5, 76, 70
7, 82410, Note_on_c, 5, 74, 54
7, 82418, Note_off_c, 5, 76, 64
7, 82453, Note_off_c, 5, 74, 64
7, 82460, Note_on_c, 5, 76, 60
7, 82499, Note_off_c, 5, 76, 64
7, 82499, Note_on_c, 5, 74, 60
7, 82532, Note_on_c, 5, 76, 64
7, 82534, Note_off_c, 5, 74, 64
7, 82563, Note_off_c, 5, 76, 64
7, 82574, Note_on_c, 5, 74, 47
7, 82590, Note_off_c, 5, 74, 64
7, 82595, Note_on_c, 5, 76, 66
7, 82629, Note_on_c, 5, 74, 68
7, 82640, Note_off_c, 5, 76, 64
7, 82667, Note_off_c, 5, 74, 64
7, 82671, Note_on_c, 5, 72, 64
7, 82712, Note_on_c, 5, 74, 62
7, 82741, Note_off_c, 5, 72, 64
7, 82780, Note_off_c, 5, 74, 64
7, 82789, Note_on_c, 5, 76, 80
7, 82917, Note_off_c, 5, 76, 64
7, 83023, Note_on_c, 5, 72, 76
7, 83095, Note_off_c, 5, 72, 64
7, 83136, Note_on_c, 5, 69, 56
7, 83204, Note_off_c, 5, 69, 64
7, 83269, Note_on_c, 5, 81, 76
7, 83373, Note_off_c, 5, 81, 64
7, 83512, Note_on_c, 5, 80, 80
7, 83629, Note_on_c, 5, 81, 68
7, 83656, Note_off_c, 5, 80, 64
7, 83747, Note_on_c, 5, 83, 70
7, 83753, Note_off_c, 5, 81, 64
7, 83809, Note_off_c, 5, 83, 64
7, 83860, Note_on_c, 5, 80, 62
7, 83923, Note_off_c, 5, 80, 64
7, 83995, Note_on_c, 5, 76, 64
7, 84064, Note_off_c, 5, 76, 64
7, 84116, Note_on_c, 5, 74, 70
7, 84176, Note_off_c, 5, 74, 64
7, 84249, Note_on_c, 5, 72, 72
7, 84368, Note_off_c, 5, 72, 64
7, 84481, Note_on_c, 5, 76, 68
7, 84548, Note_off_c, 5, 76, 64
7, 84589, Note_on_c, 5, 72, 59
7, 84657, Note_off_c, 5, 72, 64
7, 84722, Note_on_c, 5, 81, 82
7, 84820, Note_off_c, 5, 81, 64
7, 84953, Note_on_c, 5, 71, 72
7, 85039, Note_off_c, 5, 71, 64
7, 85068, Note_on_c, 5, 72, 66
7, 85136, Note_off_c, 5, 72, 64
7, 85196, Note_on_c, 5, 74, 66
7, 85482, Note_off_c, 5, 74, 64
7, 85550, Note_on_c, 5, 77, 76
7, 85613, Note_off_c, 5, 77, 64
7, 85676, Note_on_c, 5, 76, 76
7, 85855, Note_off_c, 5, 76, 64
7, 85906, Note_on_c, 5, 74, 70
7, 86001, Note_off_c, 5, 74, 64
7, 86013, Note_on_c, 5, 72, 66
7, 86085, Note_off_c, 5, 72, 64
7, 86142, Note_on_c, 5, 71, 70
7, 86257, Note_off_c, 5, 71, 64
7, 86257, Note_on_c, 5, 72, 66
7, 86337, Note_off_c, 5, 72, 64
7, 86395, Note_on_c, 5, 69, 70
7, 87013, Note_off_c, 5, 69, 64
7, 87110, Note_on_c, 5, 67, 70
7, 87256, Note_off_c, 5, 67, 64
7, 87356, Note_on_c, 5, 72, 76
7, 87430, Note_off_c, 5, 72, 64
7, 87462, Note_on_c, 5, 67, 68
7, 87543, Note_off_c, 5, 67, 64
7, 87588, Note_on_c, 5, 76, 85
7, 87712, Note_off_c, 5, 76, 64
7, 87826, Note_on_c, 5, 69, 72
7, 87919, Note_off_c, 5, 69, 64
7, 87947, Note_on_c, 5, 71, 76
7, 88019, Note_off_c, 5, 71, 64
7, 88064, Note_on_c, 5, 72, 66
7, 88160, Note_on_c, 5, 71, 51
7, 88170, Note_off_c, 5, 72, 64
7, 88200, Note_off_c, 5, 71, 64
7, 88204, Note_on_c, 5, 72, 58
7, 88243, Note_off_c, 5, 72, 64
7, 88243, Note_on_c, 5, 71, 57
7, 88277, Note_off_c, 5, 71, 64
7, 88281, Note_on_c, 5, 72, 62
7, 88305, Note_off_c, 5, 72, 64
7, 88309, Note_on_c, 5, 71, 57
7, 88336, Note_off_c, 5, 71, 64
7, 88341, Note_on_c, 5, 72, 66
7, 88372, Note_on_c, 5, 71, 60
7, 88388, Note_off_c, 5, 72, 64
7, 88420, Note_off_c, 5, 71, 64
7, 88426, Note_on_c, 5, 69, 68
7, 88474, Note_on_c, 5, 71, 52
7, 88500, Note_off_c, 5, 69, 64
7, 88535, Note_off_c, 5, 71, 64
7, 88543, Note_on_c, 5, 72, 78
7, 88676, Note_off_c, 5, 72, 64
7, 88785, Note_on_c, 5, 77, 70
7, 88860, Note_off_c, 5, 77, 64
7, 88896, Note_on_c, 5, 72, 64
7, 88974, Note_off_c, 5, 72, 64
7, 89033, Note_on_c, 5, 81, 82
7, 89135, Note_off_c, 5, 81, 64
7, 89264, Note_on_c, 5, 71, 74
7, 89364, Note_off_c, 5, 71, 64
7, 89381, Note_on_c, 5, 72, 74
7, 89457, Note_off_c, 5, 72, 64
7, 89501, Note_on_c, 5, 74, 66
7, 89592, Note_on_c, 5, 72, 51
7, 89604, Note_off_c, 5, 74, 64
7, 89634, Note_off_c, 5, 72, 64
7, 89639, Note_on_c, 5, 74, 59
7, 89677, Note_off_c, 5, 74, 64
7, 89678, Note_on_c, 5, 72, 58
7, 89711, Note_off_c, 5, 72, 64
7, 89717, Note_on_c, 5, 74, 64
7, 89746, Note_off_c, 5, 74, 64
7, 89746, Note_on_c, 5, 72, 58
7, 89774, Note_off_c, 5, 72, 64
7, 89776, Note_on_c, 5, 74, 61
7, 89809, Note_on_c, 5, 72, 63
7, 89820, Note_off_c, 5, 74, 64
7, 89873, Note_on_c, 5, 71, 57
7, 89891, Note_off_c, 5, 72, 64
7, 89928, Note_on_c, 5, 72, 64
7, 89950, Note_off_c, 5, 71, 64
7, 89986, Note_off_c, 5, 72, 64
7, 89998, Note_on_c, 5, 74, 74
7, 90134, Note_off_c, 5, 74, 64
7, 90221, Note_on_c, 5, 71, 80
7, 90298, Note_off_c, 5, 71, 64
7, 90334, Note_on_c, 5, 67, 61
7, 90427, Note_off_c, 5, 67, 64
7, 90470, Note_on_c, 5, 77, 85
7, 90612, Note_off_c, 5, 77, 64
7, 90715, Note_on_c, 5, 76, 60
7, 90858, Note_off_c, 5, 76, 64
7, 90959, Note_on_c, 5, 81, 76
7, 91048, Note_off_c, 5, 81, 64
7, 91068, Note_on_c, 5, 79, 68
7, 91158, Note_off_c, 5, 79, 64
7, 91188, Note_on_c, 5, 81, 80
7, 91291, Note_off_c, 5, 81, 64
7, 91306, Note_on_c, 5, 77, 76
7, 91385, Note_off_c, 5, 77, 64
7, 91431, Note_on_c, 5, 79, 82
7, 91518, Note_off_c, 5, 79, 64
7, 91675, Note_on_c, 5, 72, 66
7, 91768, Note_off_c, 5, 72, 64
7, 91920, Note_on_c, 5, 71, 80
7, 92012, Note_off_c, 5, 71, 64
7, 92169, Note_on_c, 5, 72, 61
7, 92721, Note_off_c, 5, 72, 64
7, 92861, Note_on_c, 5, 67, 68
7, 92999, Note_off_c, 5, 67, 64
7, 93116, Note_on_c, 5, 71, 74
7, 93196, Note_off_c, 5, 71, 64
7, 93232, Note_on_c, 5, 67, 62
7, 93303, Note_off_c, 5, 67, 64
7, 93357, Note_on_c, 5, 74, 85
7, 93462, Note_off_c, 5, 74, 64
7, 93604, Note_on_c, 5, 77, 91
7, 93720, Note_off_c, 5, 77, 64
7, 93835, Note_on_c, 5, 76, 70
7, 93938, Note_on_c, 5, 74, 60
7, 93944, Note_off_c, 5, 76, 64
7, 93983, Note_off_c, 5, 74, 64
7, 93987, Note_on_c, 5, 76, 61
7, 94025, Note_on_c, 5, 74, 66
7, 94028, Note_off_c, 5, 76, 64
7, 94068, Note_off_c, 5, 74, 64
7, 94068, Note_on_c, 5, 76, 64
7, 94096, Note_on_c, 5, 74, 68
7, 94099, Note_off_c, 5, 76, 64
7, 94128, Note_off_c, 5, 74, 64
7, 94128, Note_on_c, 5, 76, 76
7, 94166, Note_on_c, 5, 74, 64
7, 94177, Note_off_c, 5, 76, 64
7, 94209, Note_on_c, 5, 72, 68
7, 94214, Note_off_c, 5, 74, 64
7, 94255, Note_on_c, 5, 74, 62
7, 94274, Note_off_c, 5, 72, 64
7, 94317, Note_off_c, 5, 74, 64
7, 94321, Note_on_c, 5, 76, 82
7, 94470, Note_off_c, 5, 76, 64
7, 94564, Note_on_c, 5, 72, 70
7, 94631, Note_off_c, 5, 72, 64
7, 94665, Note_on_c, 5, 69, 57
7, 94747, Note_off_c, 5, 69, 64
7, 94795, Note_on_c, 5, 81, 82
7, 94908, Note_off_c, 5, 81, 64
7, 95038, Note_on_c, 5, 80, 70
7, 95150, Note_on_c, 5, 81, 68
7, 95177, Note_off_c, 5, 80, 64
7, 95272, Note_on_c, 5, 83, 72
7, 95279, Note_off_c, 5, 81, 64
7, 95325, Note_off_c, 5, 83, 64
7, 95394, Note_on_c, 5, 80, 59
7, 95447, Note_off_c, 5, 80, 64
7, 95515, Note_on_c, 5, 76, 61
7, 95569, Note_off_c, 5, 76, 64
7, 95640, Note_on_c, 5, 74, 58
7, 95700, Note_off_c, 5, 74, 64
7, 95763, Note_on_c, 5, 72, 63
7, 95911, Note_off_c, 5, 72, 64
7, 95998, Note_on_c, 5, 76, 68
7, 96064, Note_off_c, 5, 76, 64
7, 96097, Note_on_c, 5, 72, 59
7, 96170, Note_off_c, 5, 72, 64
7, 96234, Note_on_c, 5, 81, 82
7, 96327, Note_off_c, 5, 81, 64
7, 96482, Note_on_c, 5, 71, 64
7, 96561, Note_off_c, 5, 71, 64
7, 96596, Note_on_c, 5, 72, 78
7, 96666, Note_off_c, 5, 72, 64
7, 96721, Note_on_c, 5, 74, 74
7, 97010, Note_off_c, 5, 74, 64
7, 97065, Note_on_c, 5, 77, 82
7, 97132, Note_off_c, 5, 77, 64
7, 97194, Note_on_c, 5, 76, 78
7, 97378, Note_off_c, 5, 76, 64
7, 97423, Note_on_c, 5, 74, 70
7, 97518, Note_off_c, 5, 74, 64
7, 97531, Note_on_c, 5, 72, 66
7, 97601, Note_off_c, 5, 72, 64
7, 97658, Note_on_c, 5, 71, 66
7, 97765, Note_off_c, 5, 71, 64
7, 97776, Note_on_c, 5, 72, 68
7, 97858, Note_off_c, 5, 72, 64
7, 97908, Note_on_c, 5, 69, 57
7, 98507, Note_off_c, 5, 69, 64
7, 98629, Note_on_c, 5, 67, 66
7, 98784, Note_off_c, 5, 67, 64
7, 98875, Note_on_c, 5, 72, 72
7, 98944, Note_off_c, 5, 72, 64
7, 98979, Note_on_c, 5, 67, 60
7, 99060, Note_off_c, 5, 67, 64
7, 99108, Note_on_c, 5, 76, 82
7, 99234, Note_off_c, 5, 76, 64
7, 99357, Note_on_c, 5, 69, 68
7, 99456, Note_off_c, 5, 69, 64
7, 99475, Note_on_c, 5, 71, 80
7, 99545, Note_off_c, 5, 71, 64
7, 99589, Note_on_c, 5, 72, 70
7, 99682, Note_on_c, 5, 71, 49
7, 99691, Note_off_c, 5, 72, 64
7, 99726, Note_off_c, 5, 71, 64
7, 99733, Note_on_c, 5, 72, 59
7, 99770, Note_on_c, 5, 71, 60
7, 99775, Note_off_c, 5, 72, 64
7, 99808, Note_off_c, 5, 71, 64
7, 99809, Note_on_c, 5, 72, 63
7, 99843, Note_on_c, 5, 71, 58
7, 99846, Note_off_c, 5, 72, 64
7, 99875, Note_off_c, 5, 71, 64
7, 99878, Note_on_c, 5, 72, 64
7, 99912, Note_on_c, 5, 71, 61
7, 99929, Note_off_c, 5, 72, 64
7, 99957, Note_off_c, 5, 71, 64
7, 99960, Note_on_c, 5, 69, 63
7, 100002, Note_on_c, 5, 71, 61
7, 100026, Note_off_c, 5, 69, 64
7, 100051, Note_off_c, 5, 71, 64
7, 100068, Note_on_c, 5, 72, 80
7, 100206, Note_off_c, 5, 72, 64
7, 100305, Note_on_c, 5, 77, 70
7, 100382, Note_off_c, 5, 77, 64
7, 100422, Note_on_c, 5, 72, 66
7, 100503, Note_off_c, 5, 72, 64
7, 100560, Note_on_c, 5, 81, 87
7, 100667, Note_off_c, 5, 81, 64
7, 100791, Note_on_c, 5, 71, 76
7, 100881, Note_off_c, 5, 71, 64
7, 100909, Note_on_c, 5, 72, 80
7, 100983, Note_off_c, 5, 72, 64
7, 101022, Note_on_c, 5, 74, 72
7, 101106, Note_on_c, 5, 72, 53
7, 101124, Note_off_c, 5, 74, 64
7, 101148, Note_off_c, 5, 72, 64
7, 101153, Note_on_c, 5, 74, 57
7, 101192, Note_off_c, 5, 74, 64
7, 101192, Note_on_c, 5, 72, 60
7, 101229, Note_off_c, 5, 72, 64
7, 101230, Note_on_c, 5, 74, 64
7, 101257, Note_off_c, 5, 74, 64
7, 101258, Note_on_c, 5, 72, 60
7, 101289, Note_off_c, 5, 72, 64
7, 101295, Note_on_c, 5, 74, 68
7, 101320, Note_on_c, 5, 72, 62
7, 101342, Note_off_c, 5, 74, 64
7, 101364, Note_off_c, 5, 72, 64
7, 101366, Note_on_c, 5, 71, 70
7, 101405, Note_on_c, 5, 72, 66
7, 101430, Note_off_c, 5, 71, 64
7, 101473, Note_off_c, 5, 72, 64
7, 101487, Note_on_c, 5, 74, 68
7, 101653, Note_off_c, 5, 74, 64
7, 101746, Note_on_c, 5, 71, 70
7, 101819, Note_off_c, 5, 71, 64
7, 101851, Note_on_c, 5, 67, 66
7, 101948, Note_off_c, 5, 67, 64
7, 101989, Note_on_c, 5, 77, 85
7, 102121, Note_off_c, 5, 77, 64
7, 102230, Note_on_c, 5, 76, 64
7, 102343, Note_off_c, 5, 76, 64
7, 102477, Note_on_c, 5, 81, 70
7, 102573, Note_off_c, 5, 81, 64
7, 102583, Note_on_c, 5, 79, 72
7, 102679, Note_off_c, 5, 79, 64
7, 102707, Note_on_c, 5, 81, 85
7, 102811, Note_off_c, 5, 81, 64
7, 102826, Note_on_c, 5, 77, 74
7, 102907, Note_off_c, 5, 77, 64
7, 102949, Note_on_c, 5, 79, 85
7, 103051, Note_off_c, 5, 79, 64
7, 103194, Note_on_c, 5, 72, 66
7, 103284, Note_off_c, 5, 72, 64
7, 103437, Note_on_c, 5, 71, 72
7, 103535, Note_off_c, 5, 71, 64
7, 103688, Note_on_c, 5, 72, 66
7, 104315, Note_off_c, 5, 72, 64
7, 104315, End_track
8, 0, Start_track
8, 0, Title_t, "Bassoon"
8, 0, Program_c, 6, 70
8, 0, Control_c, 6, 7, 100
8, 719, Note_on_c, 6, 60, 82
8, 817, Note_off_c, 6, 60, 64
8, 957, Note_on_c, 6, 48, 85
8, 1067, Note_off_c, 6, 48, 64
8, 1194, Note_on_c, 6, 52, 82
8, 1294, Note_off_c, 6, 52, 64
8, 1444, Note_on_c, 6, 53, 80
8, 1559, Note_off_c, 6, 53, 64
8, 1686, Note_on_c, 6, 57, 80
8, 1756, Note_off_c, 6, 57, 64
8, 1799, Note_on_c, 6, 53, 72
8, 1874, Note_off_c, 6, 53, 64
8, 1920, Note_on_c, 6, 62, 95
8, 2037, Note_off_c, 6, 62, 64
8, 2165, Note_on_c, 6, 59, 82
8, 2279, Note_off_c, 6, 59, 64
8, 2408, Note_on_c, 6, 60, 80
8, 2516, Note_off_c, 6, 60, 64
8, 2642, Note_on_c, 6, 53, 68
8, 2744, Note_off_c, 6, 53, 64
8, 2882, Note_on_c, 6, 55, 72
8, 2993, Note_off_c, 6, 55, 64
8, 3118, Note_on_c, 6, 59, 74
8, 3224, Note_off_c, 6, 59, 64
8, 3352, Note_on_c, 6, 55, 70
8, 3450, Note_off_c, 6, 55, 64
8, 3589, Note_on_c, 6, 60, 87
8, 3698, Note_off_c, 6, 60, 64
8, 3835, Note_on_c, 6, 59, 80
8, 3948, Note_off_c, 6, 59, 64
8, 4077, Note_on_c, 6, 57, 80
8, 4167, Note_off_c, 6, 57, 64
8, 4319, Note_on_c, 6, 50, 82
8, 4444, Note_off_c, 6, 50, 64
8, 4550, Note_on_c, 6, 54, 68
8, 4628, Note_off_c, 6, 54, 64
8, 4653, Note_on_c, 6, 50, 66
8, 4735, Note_off_c, 6, 50, 64
8, 4790, Note_on_c, 6, 55, 85
8, 4897, Note_off_c, 6, 55, 64
8, 5036, Note_on_c, 6, 48, 82
8, 5136, Note_off_c, 6, 48, 64
8, 5268, Note_on_c, 6, 50, 85
8, 5386, Note_off_c, 6, 50, 64
8, 5523, Note_on_c, 6, 38, 80
8, 5628, Note_off_c, 6, 38, 64
8, 5757, Note_on_c, 6, 43, 85
8, 5842, Note_off_c, 6, 43, 64
8, 5865, Note_on_c, 6, 50, 70
8, 5943, Note_off_c, 6, 50, 64
8, 5997, Note_on_c, 6, 55, 85
8, 6081, Note_off_c, 6, 55, 64
8, 6111, Note_on_c, 6, 57, 80
8, 6178, Note_off_c, 6, 57, 64
8, 6233, Note_on_c, 6, 55, 82
8, 6307, Note_off_c, 6, 55, 64
8, 6346, Note_on_c, 6, 53, 78
8, 6409, Note_off_c, 6, 53, 64
8, 6479, Note_on_c, 6, 52, 85
8, 6577, Note_off_c, 6, 52, 64
8, 6720, Note_on_c, 6, 48, 70
8, 6827, Note_off_c, 6, 48, 64
8, 6962, Note_on_c, 6, 52, 82
8, 7058, Note_off_c, 6, 52, 64
8, 7202, Note_on_c, 6, 53, 82
8, 7327, Note_off_c, 6, 53, 64
8, 7440, Note_on_c, 6, 57, 80
8, 7526, Note_off_c, 6, 57, 64
8, 7558, Note_on_c, 6, 53, 80
8, 7650, Note_off_c, 6, 53, 64
8, 7690, Note_on_c, 6, 62, 100
8, 7793, Note_off_c, 6, 62, 64
8, 7929, Note_on_c, 6, 59, 80
8, 8038, Note_off_c, 6, 59, 64
8, 8166, Note_on_c, 6, 60, 82
8, 8257, Note_off_c, 6, 60, 64
8, 8407, Note_on_c, 6, 53, 74
8, 8490, Note_off_c, 6, 53, 64
8, 8640, Note_on_c, 6, 55, 76
8, 8752, Note_off_c, 6, 55, 64
8, 8879, Note_on_c, 6, 59, 82
8, 8982, Note_off_c, 6, 59, 64
8, 9123, Note_on_c, 6, 55, 76
8, 9222, Note_off_c, 6, 55, 64
8, 9354, Note_on_c, 6, 60, 82
8, 9468, Note_off_c, 6, 60, 64
8, 9588, Note_on_c, 6, 59, 82
8, 9706, Note_off_c, 6, 59, 64
8, 9838, Note_on_c, 6, 57, 78
8, 9937, Note_off_c, 6, 57, 64
8, 10070, Note_on_c, 6, 50, 80
8, 10192, Note_off_c, 6, 50, 64
8, 10312, Note_on_c, 6, 54, 74
8, 10393, Note_off_c, 6, 54, 64
8, 10424, Note_on_c, 6, 50, 66
8, 10490, Note_off_c, 6, 50, 64
8, 10545, Note_on_c, 6, 55, 85
8, 10652, Note_off_c, 6, 55, 64
8, 10788, Note_on_c, 6, 48, 78
8, 10883, Note_off_c, 6, 48, 64
8, 11028, Note_on_c, 6, 50, 87
8, 11133, Note_off_c, 6, 50, 64
8, 11274, Note_on_c, 6, 38, 85
8, 11368, Note_off_c, 6, 38, 64
8, 11518, Note_on_c, 6, 43, 85
8, 11627, Note_off_c, 6, 43, 64
8, 11752, Note_on_c, 6, 47, 85
8, 11852, Note_off_c, 6, 47, 64
8, 11993, Note_on_c, 6, 50, 85
8, 12093, Note_off_c, 6, 50, 64
8, 81366, Note_on_c, 6, 55, 72
8, 81464, Note_off_c, 6, 55, 64
8, 81589, Note_on_c, 6, 50, 66
8, 81691, Note_off_c, 6, 50, 64
8, 81830, Note_on_c, 6, 47, 66
8, 81934, Note_off_c, 6, 47, 64
8, 82069, Note_on_c, 6, 44, 58
8, 82199, Note_off_c, 6, 44, 64
8, 82304, Note_on_c, 6, 47, 80
8, 82387, Note_off_c, 6, 47, 64
8, 82411, Note_on_c, 6, 44, 56
8, 82501, Note_off_c, 6, 44, 64
8, 82538, Note_on_c, 6, 52, 82
8, 82643, Note_off_c, 6, 52, 64
8, 82788, Note_on_c, 6, 48, 72
8, 82887, Note_off_c, 6, 48, 64
8, 83024, Note_on_c, 6, 53, 66
8, 83145, Note_off_c, 6, 53, 64
8, 83270, Note_on_c, 6, 50, 68
8, 83358, Note_off_c, 6, 50, 64
8, 83501, Note_on_c, 6, 52, 74
8, 83618, Note_off_c, 6, 52, 64
8, 83745, Note_on_c, 6, 56, 68
8, 83823, Note_off_c, 6, 56, 64
8, 83855, Note_on_c, 6, 52, 66
8, 83958, Note_off_c, 6, 52, 64
8, 83980, Note_on_c, 6, 64, 82
8, 84085, Note_off_c, 6, 64, 64
8, 84234, Note_on_c, 6, 57, 78
8, 84339, Note_off_c, 6, 57, 64
8, 84470, Note_on_c, 6, 45, 72
8, 84578, Note_off_c, 6, 45, 64
8, 84710, Note_on_c, 6, 48, 66
8, 84812, Note_off_c, 6, 48, 64
8, 84950, Note_on_c, 6, 50, 76
8, 85060, Note_off_c, 6, 50, 64
8, 85184, Note_on_c, 6, 53, 70
8, 85257, Note_off_c, 6, 53, 64
8, 85284, Note_on_c, 6, 50, 70
8, 85357, Note_off_c, 6, 50, 64
8, 85414, Note_on_c, 6, 56, 80
8, 85519, Note_off_c, 6, 56, 64
8, 85661, Note_on_c, 6, 57, 80
8, 85778, Note_off_c, 6, 57, 64
8, 85907, Note_on_c, 6, 50, 64
8, 86005, Note_off_c, 6, 50, 64
8, 86142, Note_on_c, 6, 52, 66
8, 86243, Note_off_c, 6, 52, 64
8, 86382, Note_on_c, 6, 45, 68
8, 86507, Note_off_c, 6, 45, 64
8, 86613, Note_on_c, 6, 48, 76
8, 86691, Note_off_c, 6, 48, 64
8, 86723, Note_on_c, 6, 45, 63
8, 86816, Note_off_c, 6, 45, 64
8, 86863, Note_on_c, 6, 53, 85
8, 86979, Note_off_c, 6, 53, 64
8, 87105, Note_on_c, 6, 52, 70
8, 87198, Note_off_c, 6, 52, 64
8, 87348, Note_on_c, 6, 48, 64
8, 87477, Note_off_c, 6, 48, 64
8, 87590, Note_on_c, 6, 60, 82
8, 87692, Note_off_c, 6, 60, 64
8, 87834, Note_on_c, 6, 53, 76
8, 87903, Note_off_c, 6, 53, 64
8, 87939, Note_on_c, 6, 52, 78
8, 88009, Note_off_c, 6, 52, 64
8, 88054, Note_on_c, 6, 53, 68
8, 88135, Note_off_c, 6, 53, 64
8, 88164, Note_on_c, 6, 50, 66
8, 88246, Note_off_c, 6, 50, 64
8, 88300, Note_on_c, 6, 55, 85
8, 88420, Note_off_c, 6, 55, 64
8, 88556, Note_on_c, 6, 52, 63
8, 88654, Note_off_c, 6, 52, 64
8, 88790, Note_on_c, 6, 57, 78
8, 88893, Note_off_c, 6, 57, 64
8, 89021, Note_on_c, 6, 53, 66
8, 89130, Note_off_c, 6, 53, 64
8, 89267, Note_on_c, 6, 55, 64
8, 89406, Note_off_c, 6, 55, 64
8, 89500, Note_on_c, 6, 64, 68
8, 89588, Note_off_c, 6, 64, 64
8, 89614, Note_on_c, 6, 62, 70
8, 89692, Note_off_c, 6, 62, 64
8, 89729, Note_on_c, 6, 64, 78
8, 89837, Note_off_c, 6, 64, 64
8, 89842, Note_on_c, 6, 60, 76
8, 89919, Note_off_c, 6, 60, 64
8, 89983, Note_on_c, 6, 59, 68
8, 90093, Note_off_c, 6, 59, 64
8, 90229, Note_on_c, 6, 55, 70
8, 90325, Note_off_c, 6, 55, 64
8, 90458, Note_on_c, 6, 59, 76
8, 90569, Note_off_c, 6, 59, 64
8, 90704, Note_on_c, 6, 48, 66
8, 90834, Note_off_c, 6, 48, 64
8, 90943, Note_on_c, 6, 53, 72
8, 91009, Note_off_c, 6, 53, 64
8, 91051, Note_on_c, 6, 50, 64
8, 91138, Note_off_c, 6, 50, 64
8, 91185, Note_on_c, 6, 59, 85
8, 91296, Note_off_c, 6, 59, 64
8, 91434, Note_on_c, 6, 52, 74
8, 91552, Note_off_c, 6, 52, 64
8, 91677, Note_on_c, 6, 53, 72
8, 91790, Note_off_c, 6, 53, 64
8, 91920, Note_on_c, 6, 55, 74
8, 92036, Note_off_c, 6, 55, 64
8, 92165, Note_on_c, 6, 48, 72
8, 92244, Note_off_c, 6, 48, 64
8, 92267, Note_on_c, 6, 47, 68
8, 92338, Note_off_c, 6, 47, 64
8, 92395, Note_on_c, 6, 48, 76
8, 92471, Note_off_c, 6, 48, 64
8, 92505, Note_on_c, 6, 50, 68
8, 92572, Note_off_c, 6, 50, 64
8, 92622, Note_on_c, 6, 52, 68
8, 92685, Note_off_c, 6, 52, 64
8, 92736, Note_on_c, 6, 53, 63
8, 92792, Note_off_c, 6, 53, 64
8, 92865, Note_on_c, 6, 55, 70
8, 92987, Note_off_c, 6, 55, 64
8, 93108, Note_on_c, 6, 50, 74
8, 93225, Note_off_c, 6, 50, 64
8, 93362, Note_on_c, 6, 47, 68
8, 93477, Note_off_c, 6, 47, 64
8, 93596, Note_on_c, 6, 44, 64
8, 93735, Note_off_c, 6, 44, 64
8, 93833, Note_on_c, 6, 47, 72
8, 93916, Note_off_c, 6, 47, 64
8, 93938, Note_on_c, 6, 44, 61
8, 94026, Note_off_c, 6, 44, 64
8, 94064, Note_on_c, 6, 52, 82
8, 94177, Note_off_c, 6, 52, 64
8, 94312, Note_on_c, 6, 48, 66
8, 94419, Note_off_c, 6, 48, 64
8, 94552, Note_on_c, 6, 53, 76
8, 94665, Note_off_c, 6, 53, 64
8, 94784, Note_on_c, 6, 50, 63
8, 94894, Note_off_c, 6, 50, 64
8, 95032, Note_on_c, 6, 52, 66
8, 95148, Note_off_c, 6, 52, 64
8, 95269, Note_on_c, 6, 56, 72
8, 95349, Note_off_c, 6, 56, 64
8, 95377, Note_on_c, 6, 52, 66
8, 95467, Note_off_c, 6, 52, 64
8, 95510, Note_on_c, 6, 64, 87
8, 95608, Note_off_c, 6, 64, 64
8, 95761, Note_on_c, 6, 57, 82
8, 95862, Note_off_c, 6, 57, 64
8, 95994, Note_on_c, 6, 45, 76
8, 96115, Note_off_c, 6, 45, 64
8, 96230, Note_on_c, 6, 48, 61
8, 96338, Note_off_c, 6, 48, 64
8, 96475, Note_on_c, 6, 50, 82
8, 96612, Note_off_c, 6, 50, 64
8, 96716, Note_on_c, 6, 53, 70
8, 96785, Note_off_c, 6, 53, 64
8, 96818, Note_on_c, 6, 50, 64
8, 96890, Note_off_c, 6, 50, 64
8, 96947, Note_on_c, 6, 56, 82
8, 97064, Note_off_c, 6, 56, 64
8, 97187, Note_on_c, 6, 57, 82
8, 97308, Note_off_c, 6, 57, 64
8, 97431, Note_on_c, 6, 50, 68
8, 97535, Note_off_c, 6, 50, 64
8, 97672, Note_on_c, 6, 52, 70
8, 97766, Note_off_c, 6, 52, 64
8, 97902, Note_on_c, 6, 45, 66
8, 98014, Note_off_c, 6, 45, 64
8, 98139, Note_on_c, 6, 48, 66
8, 98213, Note_off_c, 6, 48, 64
8, 98254, Note_on_c, 6, 45, 66
8, 98331, Note_off_c, 6, 45, 64
8, 98374, Note_on_c, 6, 53, 74
8, 98485, Note_off_c, 6, 53, 64
8, 98629, Note_on_c, 6, 52, 80
8, 98737, Note_off_c, 6, 52, 64
8, 98869, Note_on_c, 6, 48, 59
8, 98984, Note_off_c, 6, 48, 64
8, 99105, Note_on_c, 6, 60, 85
8, 99217, Note_off_c, 6, 60, 64
8, 99350, Note_on_c, 6, 53, 74
8, 99436, Note_off_c, 6, 53, 64
8, 99457, Note_on_c, 6, 52, 66
8, 99541, Note_off_c, 6, 52, 64
8, 99576, Note_on_c, 6, 53, 66
8, 99664, Note_off_c, 6, 53, 64
8, 99684, Note_on_c, 6, 50, 64
8, 99783, Note_off_c, 6, 50, 64
8, 99819, Note_on_c, 6, 55, 80
8, 99951, Note_off_c, 6, 55, 64
8, 100084, Note_on_c, 6, 52, 68
8, 100214, Note_off_c, 6, 52, 64
8, 100316, Note_on_c, 6, 57, 87
8, 100438, Note_off_c, 6, 57, 64
8, 100539, Note_on_c, 6, 53, 57
8, 100682, Note_off_c, 6, 53, 64
8, 100791, Note_on_c, 6, 55, 68
8, 100922, Note_off_c, 6, 55, 64
8, 101023, Note_on_c, 6, 64, 76
8, 101114, Note_off_c, 6, 64, 64
8, 101136, Note_on_c, 6, 62, 80
8, 101209, Note_off_c, 6, 62, 64
8, 101252, Note_on_c, 6, 64, 80
8, 101346, Note_off_c, 6, 64, 64
8, 101370, Note_on_c, 6, 60, 72
8, 101430, Note_off_c, 6, 60, 64
8, 101504, Note_on_c, 6, 59, 76
8, 101640, Note_off_c, 6, 59, 64
8, 101754, Note_on_c, 6, 55, 70
8, 101863, Note_off_c, 6, 55, 64
8, 102000, Note_on_c, 6, 59, 78
8, 102125, Note_off_c, 6, 59, 64
8, 102264, Note_on_c, 6, 47, 39
8, 102278, Note_on_c, 6, 48, 46
8, 102286, Note_off_c, 6, 47, 64
8, 102383, Note_off_c, 6, 48, 64
8, 102467, Note_on_c, 6, 53, 70
8, 102537, Note_off_c, 6, 53, 64
8, 102577, Note_on_c, 6, 50, 70
8, 102647, Note_off_c, 6, 50, 64
8, 102711, Note_on_c, 6, 59, 89
8, 102833, Note_off_c, 6, 59, 64
8, 102958, Note_on_c, 6, 52, 74
8, 103079, Note_off_c, 6, 52, 64
8, 103206, Note_on_c, 6, 53, 64
8, 103316, Note_off_c, 6, 53, 64
8, 103449, Note_on_c, 6, 55, 80
8, 103550, Note_off_c, 6, 55, 64
8, 103676, Note_on_c, 6, 48, 72
8, 104258, Note_off_c, 6, 48, 64
8, 104258, End_track
9, 0, Start_track
9, 0, Title_t, "Violin1"
9, 0, Program_c, 0, 40
9, 0, Control_c, 0, 7, 100
9, 12242, Note_on_c, 0, 67, 72
9, 12367, Note_off_c, 0, 67, 64
9, 12473, Note_on_c, 0, 71, 80
9, 12548, Note_off_c, 0, 71, 64
9, 12583, Note_on_c, 0, 67, 70
9, 12654, Note_off_c, 0, 67, 64
9, 12709, Note_on_c, 0, 74, 87
9, 12813, Note_off_c, 0, 74, 64
9, 12951, Note_on_c, 0, 77, 82
9, 13070, Note_off_c, 0, 77, 64
9, 13184, Note_on_c, 0, 76, 76
9, 13291, Note_on_c, 0, 74, 63
9, 13308, Note_off_c, 0, 76, 64
9, 13339, Note_off_c, 0, 74, 64
9, 13339, Note_on_c, 0, 76, 63
9, 13379, Note_on_c, 0, 74, 66
9, 13381, Note_off_c, 0, 76, 64
9, 13415, Note_on_c, 0, 76, 70
9, 13418, Note_off_c, 0, 74, 64
9, 13450, Note_on_c, 0, 74, 70
9, 13451, Note_off_c, 0, 76, 64
9, 13480, Note_on_c, 0, 76, 64
9, 13484, Note_off_c, 0, 74, 64
9, 13506, Note_on_c, 0, 74, 57
9, 13524, Note_off_c, 0, 76, 64
9, 13533, Note_on_c, 0, 72, 64
9, 13548, Note_off_c, 0, 74, 64
9, 13586, Note_on_c, 0, 74, 59
9, 13609, Note_off_c, 0, 72, 64
9, 13644, Note_on_c, 0, 76, 64
9, 13650, Note_off_c, 0, 74, 64
9, 13794, Note_off_c, 0, 76, 64
9, 13903, Note_on_c, 0, 72, 76
9, 13973, Note_off_c, 0, 72, 64
9, 14014, Note_on_c, 0, 69, 64
9, 14090, Note_off_c, 0, 69, 64
9, 14141, Note_on_c, 0, 81, 85
9, 14248, Note_off_c, 0, 81, 64
9, 14385, Note_on_c, 0, 80, 98
9, 14497, Note_on_c, 0, 81, 82
9, 14527, Note_off_c, 0, 80, 64
9, 14617, Note_on_c, 0, 83, 70
9, 14638, Note_off_c, 0, 81, 64
9, 14679, Note_off_c, 0, 83, 64
9, 14740, Note_on_c, 0, 80, 64
9, 14795, Note_off_c, 0, 80, 64
9, 14864, Note_on_c, 0, 76, 76
9, 14932, Note_off_c, 0, 76, 64
9, 14983, Note_on_c, 0, 74, 66
9, 15052, Note_off_c, 0, 74, 64
9, 15119, Note_on_c, 0, 72, 82
9, 15250, Note_off_c, 0, 72, 64
9, 15350, Note_on_c, 0, 76, 76
9, 15430, Note_off_c, 0, 76, 64
9, 15457, Note_on_c, 0, 72, 66
9, 15514, Note_off_c, 0, 72, 64
9, 15582, Note_on_c, 0, 81, 80
9, 15676, Note_off_c, 0, 81, 64
9, 15818, Note_on_c, 0, 71, 74
9, 15916, Note_off_c, 0, 71, 64
9, 15940, Note_on_c, 0, 72, 80
9, 16013, Note_off_c, 0, 72, 64
9, 16064, Note_on_c, 0, 74, 78
9, 16348, Note_off_c, 0, 74, 64
9, 16423, Note_on_c, 0, 77, 82
9, 16493, Note_off_c, 0, 77, 64
9, 16547, Note_on_c, 0, 76, 78
9, 16724, Note_off_c, 0, 76, 64
9, 16790, Note_on_c, 0, 74, 76
9, 16895, Note_on_c, 0, 72, 64
9, 16901, Note_off_c, 0, 74, 64
9, 16967, Note_off_c, 0, 72, 64
9, 17014, Note_on_c, 0, 71, 68
9, 17130, Note_on_c, 0, 72, 72
9, 17141, Note_off_c, 0, 71, 64
9, 17224, Note_off_c, 0, 72, 64
9, 17272, Note_on_c, 0, 69, 66
9, 17887, Note_off_c, 0, 69, 64
9, 17999, Note_on_c, 0, 67, 82
9, 18120, Note_off_c, 0, 67, 64
9, 18228, Note_on_c, 0, 72, 80
9, 18299, Note_off_c, 0, 72, 64
9, 18338, Note_on_c, 0, 67, 62
9, 18416, Note_off_c, 0, 67, 64
9, 18467, Note_on_c, 0, 76, 89
9, 18575, Note_off_c, 0, 76, 64
9, 18705, Note_on_c, 0, 69, 78
9, 18806, Note_off_c, 0, 69, 64
9, 18824, Note_on_c, 0, 71, 82
9, 18899, Note_off_c, 0, 71, 64
9, 18938, Note_on_c, 0, 72, 82
9, 19045, Note_on_c, 0, 71, 58
9, 19063, Note_off_c, 0, 72, 64
9, 19093, Note_off_c, 0, 71, 64
9, 19098, Note_on_c, 0, 72, 60
9, 19132, Note_on_c, 0, 71, 66
9, 19136, Note_off_c, 0, 72, 64
9, 19169, Note_off_c, 0, 71, 64
9, 19172, Note_on_c, 0, 72, 80
9, 19202, Note_off_c, 0, 72, 64
9, 19202, Note_on_c, 0, 71, 64
9, 19228, Note_on_c, 0, 72, 76
9, 19235, Note_off_c, 0, 71, 64
9, 19259, Note_on_c, 0, 71, 68
9, 19276, Note_off_c, 0, 72, 64
9, 19298, Note_on_c, 0, 69, 66
9, 19303, Note_off_c, 0, 71, 64
9, 19339, Note_on_c, 0, 71, 74
9, 19366, Note_off_c, 0, 69, 64
9, 19403, Note_off_c, 0, 71, 64
9, 19403, Note_on_c, 0, 72, 85
9, 19556, Note_off_c, 0, 72, 64
9, 19669, Note_on_c, 0, 77, 85
9, 19751, Note_off_c, 0, 77, 64
9, 19778, Note_on_c, 0, 72, 64
9, 19860, Note_off_c, 0, 72, 64
9, 19904, Note_on_c, 0, 81, 95
9, 20009, Note_off_c, 0, 81, 64
9, 20142, Note_on_c, 0, 71, 80
9, 20236, Note_off_c, 0, 71, 64
9, 20261, Note_on_c, 0, 72, 82
9, 20337, Note_off_c, 0, 72, 64
9, 20377, Note_on_c, 0, 74, 80
9, 20482, Note_on_c, 0, 72, 60
9, 20495, Note_off_c, 0, 74, 64
9, 20527, Note_off_c, 0, 72, 64
9, 20532, Note_on_c, 0, 74, 63
9, 20569, Note_on_c, 0, 72, 62
9, 20572, Note_off_c, 0, 74, 64
9, 20604, Note_off_c, 0, 72, 64
9, 20605, Note_on_c, 0, 74, 64
9, 20635, Note_off_c, 0, 74, 64
9, 20635, Note_on_c, 0, 72, 60
9, 20658, Note_on_c, 0, 74, 60
9, 20661, Note_off_c, 0, 72, 64
9, 20687, Note_on_c, 0, 72, 66
9, 20708, Note_off_c, 0, 74, 64
9, 20733, Note_on_c, 0, 71, 70
9, 20734, Note_off_c, 0, 72, 64
9, 20769, Note_on_c, 0, 72, 64
9, 20800, Note_off_c, 0, 71, 64
9, 20838, Note_on_c, 0, 74, 66
9, 20841, Note_off_c, 0, 72, 64
9, 21007, Note_off_c, 0, 74, 64
9, 21093, Note_on_c, 0, 71, 72
9, 21186, Note_off_c, 0, 71, 64
9, 21205, Note_on_c, 0, 67, 64
9, 21295, Note_off_c, 0, 67, 64
9, 21335, Note_on_c, 0, 77, 95
9, 21459, Note_off_c, 0, 77, 64
9, 21587, Note_on_c, 0, 76, 80
9, 21710, Note_off_c, 0, 76, 64
9, 21835, Note_on_c, 0, 81, 87
9, 21944, Note_on_c, 0, 79, 85
9, 21948, Note_off_c, 0, 81, 64
9, 22056, Note_off_c, 0, 79, 64
9, 22069, Note_on_c, 0, 81, 91
9, 22178, Note_on_c, 0, 77, 82
9, 22179, Note_off_c, 0, 81, 64
9, 22275, Note_off_c, 0, 77, 64
9, 22304, Note_on_c, 0, 79, 95
9, 22388, Note_off_c, 0, 79, 64
9, 22548, Note_on_c, 0, 72, 82
9, 22636, Note_off_c, 0, 72, 64
9, 22789, Note_on_c, 0, 71, 82
9, 22877, Note_off_c, 0, 71, 64
9, 23041, Note_on_c, 0, 72, 80
9, 23565, Note_off_c, 0, 72, 64
9, 23757, Note_on_c, 0, 67, 82
9, 23882, Note_off_c, 0, 67, 64
9, 23996, Note_on_c, 0, 71, 78
9, 24070, Note_off_c, 0, 71, 64
9, 24108, Note_on_c, 0, 67, 68
9, 24175, Note_off_c, 0, 67, 64
9, 24233, Note_on_c, 0, 74, 89
9, 24330, Note_off_c, 0, 74, 64
9, 24472, Note_on_c, 0, 77, 91
9, 24582, Note_off_c, 0, 77, 64
9, 24709, Note_on_c, 0, 76, 80
9, 24799, Note_on_c, 0, 74, 70
9, 24816, Note_off_c, 0, 76, 64
9, 24848, Note_off_c, 0, 74, 64
9, 24849, Note_on_c, 0, 76, 70
9, 24887, Note_on_c, 0, 74, 66
9, 24891, Note_off_c, 0, 76, 64
9, 24922, Note_off_c, 0, 74, 64
9, 24925, Note_on_c, 0, 76, 66
9, 24952, Note_off_c, 0, 76, 64
9, 24952, Note_on_c, 0, 74, 64
9, 24984, Note_on_c, 0, 76, 64
9, 24988, Note_off_c, 0, 74, 64
9, 25012, Note_on_c, 0, 74, 70
9, 25035, Note_off_c, 0, 76, 64
9, 25063, Note_off_c, 0, 74, 64
9, 25063, Note_on_c, 0, 72, 74
9, 25113, Note_on_c, 0, 74, 62
9, 25136, Note_off_c, 0, 72, 64
9, 25186, Note_off_c, 0, 74, 64
9, 25191, Note_on_c, 0, 76, 80
9, 25332, Note_off_c, 0, 76, 64
9, 25430, Note_on_c, 0, 72, 82
9, 25507, Note_off_c, 0, 72, 64
9, 25539, Note_on_c, 0, 69, 62
9, 25615, Note_off_c, 0, 69, 64
9, 25670, Note_on_c, 0, 81, 85
9, 25783, Note_off_c, 0, 81, 64
9, 25910, Note_on_c, 0, 80, 87
9, 26032, Note_on_c, 0, 81, 82
9, 26057, Note_off_c, 0, 80, 64
9, 26145, Note_on_c, 0, 83, 85
9, 26155, Note_off_c, 0, 81, 64
9, 26206, Note_off_c, 0, 83, 64
9, 26265, Note_on_c, 0, 80, 68
9, 26325, Note_off_c, 0, 80, 64
9, 26390, Note_on_c, 0, 76, 68
9, 26449, Note_off_c, 0, 76, 64
9, 26504, Note_on_c, 0, 74, 68
9, 26577, Note_off_c, 0, 74, 64
9, 26633, Note_on_c, 0, 72, 78
9, 26769, Note_off_c, 0, 72, 64
9, 26874, Note_on_c, 0, 76, 82
9, 26979, Note_off_c, 0, 76, 64
9, 26980, Note_on_c, 0, 72, 68
9, 27042, Note_off_c, 0, 72, 64
9, 27120, Note_on_c, 0, 81, 93
9, 27215, Note_off_c, 0, 81, 64
9, 27355, Note_on_c, 0, 71, 80
9, 27456, Note_off_c, 0, 71, 64
9, 27471, Note_on_c, 0, 72, 80
9, 27543, Note_off_c, 0, 72, 64
9, 27586, Note_on_c, 0, 74, 82
9, 27868, Note_off_c, 0, 74, 64
9, 27944, Note_on_c, 0, 77, 80
9, 28016, Note_off_c, 0, 77, 64
9, 28067, Note_on_c, 0, 76, 78
9, 28230, Note_off_c, 0, 76, 64
9, 28308, Note_on_c, 0, 74, 82
9, 28414, Note_off_c, 0, 74, 64
9, 28414, Note_on_c, 0, 72, 66
9, 28508, Note_off_c, 0, 72, 64
9, 28532, Note_on_c, 0, 71, 78
9, 28652, Note_on_c, 0, 72, 68
9, 28653, Note_off_c, 0, 71, 64
9, 28751, Note_off_c, 0, 72, 64
9, 28785, Note_on_c, 0, 69, 66
9, 29368, Note_off_c, 0, 69, 64
9, 29503, Note_on_c, 0, 67, 76
9, 29644, Note_off_c, 0, 67, 64
9, 29757, Note_on_c, 0, 72, 80
9, 29833, Note_off_c, 0, 72, 64
9, 29871, Note_on_c, 0, 67, 63
9, 29964, Note_off_c, 0, 67, 64
9, 29991, Note_on_c, 0, 76, 87
9, 30106, Note_off_c, 0, 76, 64
9, 30230, Note_on_c, 0, 69, 80
9, 30325, Note_off_c, 0, 69, 64
9, 30344, Note_on_c, 0, 71, 85
9, 30421, Note_off_c, 0, 71, 64
9, 30456, Note_on_c, 0, 72, 80
9, 30558, Note_on_c, 0, 71, 48
9, 30570, Note_off_c, 0, 72, 64
9, 30599, Note_off_c, 0, 71, 64
9, 30602, Note_on_c, 0, 72, 62
9, 30642, Note_on_c, 0, 71, 60
9, 30645, Note_off_c, 0, 72, 64
9, 30679, Note_off_c, 0, 71, 64
9, 30681, Note_on_c, 0, 72, 66
9, 30707, Note_on_c, 0, 71, 59
9, 30708, Note_off_c, 0, 72, 64
9, 30736, Note_off_c, 0, 71, 64
9, 30742, Note_on_c, 0, 72, 68
9, 30767, Note_on_c, 0, 71, 66
9, 30789, Note_off_c, 0, 72, 64
9, 30820, Note_on_c, 0, 69, 70
9, 30821, Note_off_c, 0, 71, 64
9, 30860, Note_on_c, 0, 71, 68
9, 30892, Note_off_c, 0, 69, 64
9, 30931, Note_off_c, 0, 71, 64
9, 30934, Note_on_c, 0, 72, 80
9, 31082, Note_off_c, 0, 72, 64
9, 31193, Note_on_c, 0, 77, 82
9, 31263, Note_off_c, 0, 77, 64
9, 31302, Note_on_c, 0, 72, 68
9, 31387, Note_off_c, 0, 72, 64
9, 31423, Note_on_c, 0, 81, 91
9, 31535, Note_off_c, 0, 81, 64
9, 31663, Note_on_c, 0, 71, 82
9, 31755, Note_off_c, 0, 71, 64
9, 31778, Note_on_c, 0, 72, 87
9, 31859, Note_off_c, 0, 72, 64
9, 31899, Note_on_c, 0, 74, 80
9, 31977, Note_on_c, 0, 72, 61
9, 31988, Note_off_c, 0, 74, 64
9, 32024, Note_off_c, 0, 72, 64
9, 32027, Note_on_c, 0, 74, 68
9, 32064, Note_on_c, 0, 72, 64
9, 32070, Note_off_c, 0, 74, 64
9, 32102, Note_on_c, 0, 74, 68
9, 32106, Note_off_c, 0, 72, 64
9, 32132, Note_on_c, 0, 72, 58
9, 32133, Note_off_c, 0, 74, 64
9, 32160, Note_on_c, 0, 74, 68
9, 32165, Note_off_c, 0, 72, 64
9, 32192, Note_on_c, 0, 72, 68
9, 32236, Note_off_c, 0, 74, 64
9, 32254, Note_on_c, 0, 71, 60
9, 32275, Note_off_c, 0, 72, 64
9, 32310, Note_on_c, 0, 72, 64
9, 32341, Note_off_c, 0, 71, 64
9, 32382, Note_off_c, 0, 72, 64
9, 32383, Note_on_c, 0, 74, 85
9, 32529, Note_off_c, 0, 74, 64
9, 32630, Note_on_c, 0, 71, 80
9, 32707, Note_off_c, 0, 71, 64
9, 32735, Note_on_c, 0, 67, 70
9, 32817, Note_off_c, 0, 67, 64
9, 32856, Note_on_c, 0, 77, 95
9, 32981, Note_off_c, 0, 77, 64
9, 33106, Note_on_c, 0, 76, 72
9, 33243, Note_off_c, 0, 76, 64
9, 33359, Note_on_c, 0, 81, 89
9, 33466, Note_on_c, 0, 79, 82
9, 33472, Note_off_c, 0, 81, 64
9, 33566, Note_off_c, 0, 79, 64
9, 33591, Note_on_c, 0, 81, 87
9, 33692, Note_off_c, 0, 81, 64
9, 33704, Note_on_c, 0, 77, 85
9, 33789, Note_off_c, 0, 77, 64
9, 33824, Note_on_c, 0, 79, 85
9, 33913, Note_off_c, 0, 79, 64
9, 34078, Note_on_c, 0, 72, 82
9, 34158, Note_off_c, 0, 72, 64
9, 34314, Note_on_c, 0, 71, 80
9, 34411, Note_off_c, 0, 71, 64
9, 34567, Note_on_c, 0, 72, 85
9, 35067, Note_off_c, 0, 72, 64
9, 69831, Note_on_c, 0, 72, 89
9, 70004, Note_off_c, 0, 72, 64
9, 70072, Note_on_c, 0, 76, 87
9, 70149, Note_off_c, 0, 76, 64
9, 70185, Note_on_c, 0, 72, 82
9, 70258, Note_off_c, 0, 72, 64
9, 70309, Note_on_c, 0, 79, 91
9, 70422, Note_off_c, 0, 79, 64
9, 70548, Note_on_c, 0, 81, 85
9, 70693, Note_off_c, 0, 81, 64
9, 70799, Note_on_c, 0, 79, 87
9, 70910, Note_on_c, 0, 77, 64
9, 70922, Note_off_c, 0, 79, 64
9, 70957, Note_on_c, 0, 79, 76
9, 70958, Note_off_c, 0, 77, 64
9, 71000, Note_off_c, 0, 79, 64
9, 71001, Note_on_c, 0, 77, 62
9, 71034, Note_on_c, 0, 79, 68
9, 71063, Note_off_c, 0, 79, 64
9, 71087, Note_on_c, 0, 79, 74
9, 71091, Note_off_c, 0, 77, 64
9, 71117, Note_on_c, 0, 77, 66
9, 71140, Note_off_c, 0, 79, 64
9, 71156, Note_on_c, 0, 76, 66
9, 71164, Note_off_c, 0, 77, 64
9, 71200, Note_on_c, 0, 77, 68
9, 71219, Note_off_c, 0, 76, 64
9, 71262, Note_off_c, 0, 77, 64
9, 71265, Note_on_c, 0, 79, 87
9, 71437, Note_off_c, 0, 79, 64
9, 71511, Note_on_c, 0, 76, 87
9, 71594, Note_off_c, 0, 76, 64
9, 71629, Note_on_c, 0, 72, 76
9, 71697, Note_off_c, 0, 72, 64
9, 71744, Note_on_c, 0, 77, 87
9, 71891, Note_off_c, 0, 77, 64
9, 71997, Note_on_c, 0, 74, 87
9, 72086, Note_off_c, 0, 74, 64
9, 72110, Note_on_c, 0, 72, 72
9, 72213, Note_off_c, 0, 72, 64
9, 72234, Note_on_c, 0, 74, 85
9, 72334, Note_off_c, 0, 74, 64
9, 72353, Note_on_c, 0, 76, 80
9, 72447, Note_off_c, 0, 76, 64
9, 72481, Note_on_c, 0, 77, 87
9, 72579, Note_off_c, 0, 77, 64
9, 72605, Note_on_c, 0, 74, 76
9, 72691, Note_off_c, 0, 74, 64
9, 72727, Note_on_c, 0, 76, 87
9, 72875, Note_off_c, 0, 76, 64
9, 72953, Note_on_c, 0, 79, 89
9, 73032, Note_off_c, 0, 79, 64
9, 73068, Note_on_c, 0, 76, 80
9, 73154, Note_off_c, 0, 76, 64
9, 73193, Note_on_c, 0, 84, 95
9, 73290, Note_off_c, 0, 84, 64
9, 73428, Note_on_c, 0, 79, 89
9, 73486, Note_on_c, 0, 78, 89
9, 73512, Note_off_c, 0, 79, 64
9, 73629, Note_off_c, 0, 78, 64
9, 73669, Note_on_c, 0, 76, 80
9, 73782, Note_on_c, 0, 74, 66
9, 73797, Note_off_c, 0, 76, 64
9, 73861, Note_off_c, 0, 74, 64
9, 73906, Note_on_c, 0, 72, 85
9, 74023, Note_on_c, 0, 71, 56
9, 74028, Note_off_c, 0, 72, 64
9, 74103, Note_off_c, 0, 71, 64
9, 74157, Note_on_c, 0, 76, 87
9, 74274, Note_off_c, 0, 76, 64
9, 74390, Note_on_c, 0, 71, 76
9, 74490, Note_on_c, 0, 69, 51
9, 74497, Note_off_c, 0, 71, 64
9, 74532, Note_off_c, 0, 69, 64
9, 74533, Note_on_c, 0, 71, 72
9, 74571, Note_on_c, 0, 69, 66
9, 74574, Note_off_c, 0, 71, 64
9, 74604, Note_off_c, 0, 69, 64
9, 74604, Note_on_c, 0, 71, 68
9, 74630, Note_on_c, 0, 69, 74
9, 74646, Note_off_c, 0, 71, 64
9, 74737, Note_off_c, 0, 69, 64
9, 74743, Note_on_c, 0, 67, 82
9, 74826, Note_off_c, 0, 67, 64
9, 74884, Note_on_c, 0, 67, 74
9, 75403, Note_off_c, 0, 67, 64
9, 75595, Note_on_c, 0, 72, 82
9, 75779, Note_off_c, 0, 72, 64
9, 75832, Note_on_c, 0, 76, 82
9, 75916, Note_off_c, 0, 76, 64
9, 75952, Note_on_c, 0, 72, 78
9, 76032, Note_off_c, 0, 72, 64
9, 76077, Note_on_c, 0, 79, 87
9, 76201, Note_off_c, 0, 79, 64
9, 76323, Note_on_c, 0, 81, 89
9, 76452, Note_off_c, 0, 81, 64
9, 76564, Note_on_c, 0, 79, 82
9, 76672, Note_on_c, 0, 77, 72
9, 76685, Note_off_c, 0, 79, 64
9, 76719, Note_off_c, 0, 77, 64
9, 76720, Note_on_c, 0, 79, 66
9, 76759, Note_on_c, 0, 77, 72
9, 76760, Note_off_c, 0, 79, 64
9, 76795, Note_on_c, 0, 79, 68
9, 76805, Note_off_c, 0, 77, 64
9, 76823, Note_off_c, 0, 79, 64
9, 76825, Note_on_c, 0, 77, 52
9, 76850, Note_on_c, 0, 79, 72
9, 76852, Note_off_c, 0, 77, 64
9, 76881, Note_on_c, 0, 77, 66
9, 76903, Note_off_c, 0, 79, 64
9, 76917, Note_on_c, 0, 76, 72
9, 76927, Note_off_c, 0, 77, 64
9, 76963, Note_on_c, 0, 77, 68
9, 76979, Note_off_c, 0, 76, 64
9, 77012, Note_on_c, 0, 79, 78
9, 77015, Note_off_c, 0, 77, 64
9, 77209, Note_off_c, 0, 79, 64
9, 77274, Note_on_c, 0, 76, 85
9, 77361, Note_off_c, 0, 76, 64
9, 77392, Note_on_c, 0, 72, 72
9, 77474, Note_off_c, 0, 72, 64
9, 77512, Note_on_c, 0, 77, 87
9, 77642, Note_off_c, 0, 77, 64
9, 77759, Note_on_c, 0, 74, 85
9, 77852, Note_off_c, 0, 74, 64
9, 77872, Note_on_c, 0, 72, 66
9, 77979, Note_off_c, 0, 72, 64
9, 77998, Note_on_c, 0, 74, 80
9, 78102, Note_off_c, 0, 74, 64
9, 78115, Note_on_c, 0, 76, 80
9, 78208, Note_off_c, 0, 76, 64
9, 78228, Note_on_c, 0, 77, 87
9, 78331, Note_off_c, 0, 77, 64
9, 78357, Note_on_c, 0, 74, 72
9, 78429, Note_off_c, 0, 74, 64
9, 78486, Note_on_c, 0, 76, 93
9, 78636, Note_off_c, 0, 76, 64
9, 78717, Note_on_c, 0, 79, 87
9, 78807, Note_off_c, 0, 79, 64
9, 78833, Note_on_c, 0, 76, 80
9, 78934, Note_off_c, 0, 76, 64
9, 78963, Note_on_c, 0, 84, 89
9, 79071, Note_off_c, 0, 84, 64
9, 79201, Note_on_c, 0, 79, 82
9, 79263, Note_on_c, 0, 78, 74
9, 79287, Note_off_c, 0, 79, 64
9, 79397, Note_off_c, 0, 78, 64
9, 79436, Note_on_c, 0, 76, 80
9, 79540, Note_on_c, 0, 74, 74
9, 79550, Note_off_c, 0, 76, 64
9, 79628, Note_off_c, 0, 74, 64
9, 79662, Note_on_c, 0, 72, 87
9, 79772, Note_on_c, 0, 71, 61
9, 79788, Note_off_c, 0, 72, 64
9, 79861, Note_off_c, 0, 71, 64
9, 79900, Note_on_c, 0, 76, 91
9, 80032, Note_off_c, 0, 76, 64
9, 80143, Note_on_c, 0, 71, 78
9, 80248, Note_on_c, 0, 69, 58
9, 80253, Note_off_c, 0, 71, 64
9, 80292, Note_off_c, 0, 69, 64
9, 80294, Note_on_c, 0, 71, 76
9, 80327, Note_off_c, 0, 71, 64
9, 80327, Note_on_c, 0, 69, 80
9, 80362, Note_off_c, 0, 69, 64
9, 80365, Note_on_c, 0, 71, 80
9, 80392, Note_on_c, 0, 69, 80
9, 80409, Note_off_c, 0, 71, 64
9, 80501, Note_off_c, 0, 69, 64
9, 80502, Note_on_c, 0, 67, 76
9, 80581, Note_off_c, 0, 67, 64
9, 80635, Note_on_c, 0, 67, 85
9, 81163, Note_off_c, 0, 67, 64
9, 81163, End_track
10, 0, Start_track
10, 0, Title_t, "Violin2"
10, 0, Program_c, 1, 40
10, 0, Control_c, 1, 7, 100
10, 12234, Note_on_c, 1, 62, 66
10, 12357, Note_off_c, 1, 62, 64
10, 12472, Note_on_c, 1, 67, 70
10, 12571, Note_off_c, 1, 67, 64
10, 12715, Note_on_c, 1, 67, 72
10, 12820, Note_off_c, 1, 67, 64
10, 12950, Note_on_c, 1, 71, 76
10, 13070, Note_off_c, 1, 71, 64
10, 13192, Note_on_c, 1, 72, 66
10, 13281, Note_on_c, 1, 71, 57
10, 13291, Note_off_c, 1, 72, 64
10, 13321, Note_off_c, 1, 71, 64
10, 13321, Note_on_c, 1, 72, 64
10, 13364, Note_on_c, 1, 71, 63
10, 13365, Note_off_c, 1, 72, 64
10, 13399, Note_on_c, 1, 72, 62
10, 13422, Note_off_c, 1, 72, 64
10, 13449, Note_off_c, 1, 71, 64
10, 13449, Note_on_c, 1, 72, 76
10, 13484, Note_on_c, 1, 71, 70
10, 13498, Note_off_c, 1, 72, 64
10, 13528, Note_on_c, 1, 69, 64
10, 13533, Note_off_c, 1, 71, 64
10, 13578, Note_on_c, 1, 71, 72
10, 13599, Note_off_c, 1, 69, 64
10, 13645, Note_off_c, 1, 71, 64
10, 13646, Note_on_c, 1, 72, 82
10, 13818, Note_off_c, 1, 72, 64
10, 13906, Note_on_c, 1, 72, 82
10, 14014, Note_off_c, 1, 72, 64
10, 14137, Note_on_c, 1, 71, 85
10, 14224, Note_off_c, 1, 71, 64
10, 14396, Note_on_c, 1, 71, 78
10, 14746, Note_off_c, 1, 71, 64
10, 14863, Note_on_c, 1, 68, 64
10, 14955, Note_off_c, 1, 68, 64
10, 15107, Note_on_c, 1, 69, 74
10, 15217, Note_off_c, 1, 69, 64
10, 15346, Note_on_c, 1, 72, 80
10, 15453, Note_off_c, 1, 72, 64
10, 15598, Note_on_c, 1, 69, 70
10, 15676, Note_off_c, 1, 69, 64
10, 15837, Note_on_c, 1, 69, 78
10, 16032, Note_off_c, 1, 69, 64
10, 16075, Note_on_c, 1, 68, 70
10, 16145, Note_off_c, 1, 68, 64
10, 16176, Note_on_c, 1, 69, 76
10, 16251, Note_off_c, 1, 69, 64
10, 16294, Note_on_c, 1, 71, 82
10, 16413, Note_off_c, 1, 71, 64
10, 16537, Note_on_c, 1, 72, 82
10, 16727, Note_off_c, 1, 72, 64
10, 16792, Note_on_c, 1, 71, 85
10, 16872, Note_off_c, 1, 71, 64
10, 16900, Note_on_c, 1, 69, 82
10, 16974, Note_off_c, 1, 69, 64
10, 17025, Note_on_c, 1, 68, 78
10, 17112, Note_off_c, 1, 68, 64
10, 17126, Note_on_c, 1, 69, 82
10, 17204, Note_off_c, 1, 69, 64
10, 17256, Note_on_c, 1, 64, 78
10, 17591, Note_off_c, 1, 64, 64
10, 17631, Note_on_c, 1, 65, 82
10, 17704, Note_off_c, 1, 65, 64
10, 17739, Note_on_c, 1, 67, 70
10, 17783, Note_on_c, 1, 65, 66
10, 17791, Note_off_c, 1, 67, 64
10, 17823, Note_on_c, 1, 67, 74
10, 17829, Note_off_c, 1, 65, 64
10, 17856, Note_off_c, 1, 67, 64
10, 17860, Note_on_c, 1, 65, 57
10, 17882, Note_on_c, 1, 67, 64
10, 17913, Note_off_c, 1, 67, 64
10, 17917, Note_on_c, 1, 64, 70
10, 17936, Note_off_c, 1, 65, 64
10, 17971, Note_on_c, 1, 65, 74
10, 17991, Note_off_c, 1, 64, 64
10, 18016, Note_on_c, 1, 67, 61
10, 18020, Note_off_c, 1, 65, 64
10, 18407, Note_off_c, 1, 67, 64
10, 18491, Note_on_c, 1, 67, 78
10, 18604, Note_off_c, 1, 67, 64
10, 18714, Note_on_c, 1, 65, 80
10, 18813, Note_off_c, 1, 65, 64
10, 18951, Note_on_c, 1, 67, 80
10, 19319, Note_off_c, 1, 67, 64
10, 19432, Note_on_c, 1, 67, 80
10, 19542, Note_off_c, 1, 67, 64
10, 19669, Note_on_c, 1, 72, 80
10, 19782, Note_off_c, 1, 72, 64
10, 19915, Note_on_c, 1, 69, 63
10, 20028, Note_off_c, 1, 69, 64
10, 20158, Note_on_c, 1, 67, 70
10, 20250, Note_off_c, 1, 67, 64
10, 20397, Note_on_c, 1, 67, 68
10, 20747, Note_off_c, 1, 67, 64
10, 20872, Note_on_c, 1, 67, 78
10, 20997, Note_off_c, 1, 67, 64
10, 21111, Note_on_c, 1, 71, 66
10, 21204, Note_off_c, 1, 71, 64
10, 21355, Note_on_c, 1, 74, 85
10, 21455, Note_off_c, 1, 74, 64
10, 21595, Note_on_c, 1, 72, 68
10, 21709, Note_off_c, 1, 72, 64
10, 21835, Note_on_c, 1, 72, 80
10, 21937, Note_off_c, 1, 72, 64
10, 22070, Note_on_c, 1, 74, 80
10, 22167, Note_off_c, 1, 74, 64
10, 22306, Note_on_c, 1, 72, 82
10, 22416, Note_off_c, 1, 72, 64
10, 22553, Note_on_c, 1, 69, 74
10, 22644, Note_off_c, 1, 69, 64
10, 22797, Note_on_c, 1, 67, 74
10, 22892, Note_off_c, 1, 67, 64
10, 23043, Note_on_c, 1, 67, 70
10, 23578, Note_off_c, 1, 67, 64
10, 23750, Note_on_c, 1, 62, 64
10, 23865, Note_off_c, 1, 62, 64
10, 23995, Note_on_c, 1, 67, 82
10, 24101, Note_off_c, 1, 67, 64
10, 24234, Note_on_c, 1, 67, 80
10, 24344, Note_off_c, 1, 67, 64
10, 24482, Note_on_c, 1, 71, 85
10, 24596, Note_off_c, 1, 71, 64
10, 24722, Note_on_c, 1, 72, 76
10, 24809, Note_on_c, 1, 71, 58
10, 24824, Note_off_c, 1, 72, 64
10, 24852, Note_off_c, 1, 71, 64
10, 24856, Note_on_c, 1, 72, 62
10, 24895, Note_on_c, 1, 71, 59
10, 24898, Note_off_c, 1, 72, 64
10, 24929, Note_on_c, 1, 72, 64
10, 24934, Note_off_c, 1, 71, 64
10, 24953, Note_on_c, 1, 71, 46
10, 24960, Note_off_c, 1, 72, 64
10, 24986, Note_on_c, 1, 72, 70
10, 24987, Note_off_c, 1, 71, 64
10, 25010, Note_on_c, 1, 71, 58
10, 25031, Note_off_c, 1, 72, 64
10, 25061, Note_off_c, 1, 71, 64
10, 25062, Note_on_c, 1, 69, 74
10, 25097, Note_on_c, 1, 71, 78
10, 25124, Note_off_c, 1, 69, 64
10, 25162, Note_off_c, 1, 71, 64
10, 25170, Note_on_c, 1, 72, 64
10, 25343, Note_off_c, 1, 72, 64
10, 25428, Note_on_c, 1, 72, 82
10, 25534, Note_off_c, 1, 72, 64
10, 25667, Note_on_c, 1, 71, 80
10, 25764, Note_off_c, 1, 71, 64
10, 25910, Note_on_c, 1, 71, 80
10, 26276, Note_off_c, 1, 71, 64
10, 26391, Note_on_c, 1, 68, 70
10, 26480, Note_off_c, 1, 68, 64
10, 26624, Note_on_c, 1, 69, 78
10, 26733, Note_off_c, 1, 69, 64
10, 26864, Note_on_c, 1, 72, 87
10, 26973, Note_off_c, 1, 72, 64
10, 27105, Note_on_c, 1, 69, 63
10, 27203, Note_off_c, 1, 69, 64
10, 27344, Note_on_c, 1, 69, 85
10, 27551, Note_off_c, 1, 69, 64
10, 27588, Note_on_c, 1, 68, 80
10, 27657, Note_off_c, 1, 68, 64
10, 27698, Note_on_c, 1, 69, 78
10, 27766, Note_off_c, 1, 69, 64
10, 27819, Note_on_c, 1, 71, 78
10, 27953, Note_off_c, 1, 71, 64
10, 28070, Note_on_c, 1, 72, 85
10, 28260, Note_off_c, 1, 72, 64
10, 28311, Note_on_c, 1, 71, 82
10, 28393, Note_off_c, 1, 71, 64
10, 28419, Note_on_c, 1, 69, 76
10, 28499, Note_off_c, 1, 69, 64
10, 28538, Note_on_c, 1, 68, 74
10, 28621, Note_off_c, 1, 68, 64
10, 28645, Note_on_c, 1, 69, 80
10, 28715, Note_off_c, 1, 69, 64
10, 28789, Note_on_c, 1, 64, 82
10, 29085, Note_off_c, 1, 64, 64
10, 29149, Note_on_c, 1, 65, 82
10, 29221, Note_off_c, 1, 65, 64
10, 29262, Note_on_c, 1, 67, 68
10, 29308, Note_on_c, 1, 65, 64
10, 29317, Note_off_c, 1, 67, 64
10, 29352, Note_on_c, 1, 67, 74
10, 29355, Note_off_c, 1, 65, 64
10, 29383, Note_on_c, 1, 65, 70
10, 29401, Note_off_c, 1, 67, 64
10, 29419, Note_on_c, 1, 64, 85
10, 29426, Note_off_c, 1, 65, 64
10, 29465, Note_on_c, 1, 65, 80
10, 29492, Note_off_c, 1, 64, 64
10, 29513, Note_on_c, 1, 67, 64
10, 29519, Note_off_c, 1, 65, 64
10, 29898, Note_off_c, 1, 67, 64
10, 30004, Note_on_c, 1, 67, 80
10, 30105, Note_off_c, 1, 67, 64
10, 30234, Note_on_c, 1, 65, 70
10, 30332, Note_off_c, 1, 65, 64
10, 30468, Note_on_c, 1, 67, 80
10, 30823, Note_off_c, 1, 67, 64
10, 30931, Note_on_c, 1, 67, 68
10, 31051, Note_off_c, 1, 67, 64
10, 31180, Note_on_c, 1, 72, 82
10, 31298, Note_off_c, 1, 72, 64
10, 31430, Note_on_c, 1, 69, 68
10, 31546, Note_off_c, 1, 69, 64
10, 31677, Note_on_c, 1, 67, 74
10, 31770, Note_off_c, 1, 67, 64
10, 31915, Note_on_c, 1, 67, 70
10, 32274, Note_off_c, 1, 67, 64
10, 32383, Note_on_c, 1, 67, 72
10, 32505, Note_off_c, 1, 67, 64
10, 32623, Note_on_c, 1, 71, 80
10, 32731, Note_off_c, 1, 71, 64
10, 32876, Note_on_c, 1, 74, 85
10, 32976, Note_off_c, 1, 74, 64
10, 33113, Note_on_c, 1, 72, 78
10, 33248, Note_off_c, 1, 72, 64
10, 33352, Note_on_c, 1, 72, 80
10, 33461, Note_off_c, 1, 72, 64
10, 33591, Note_on_c, 1, 74, 82
10, 33687, Note_off_c, 1, 74, 64
10, 33824, Note_on_c, 1, 72, 76
10, 33930, Note_off_c, 1, 72, 64
10, 34067, Note_on_c, 1, 69, 82
10, 34164, Note_off_c, 1, 69, 64
10, 34316, Note_on_c, 1, 67, 85
10, 34412, Note_off_c, 1, 67, 64
10, 34557, Note_on_c, 1, 67, 85
10, 35130, Note_off_c, 1, 67, 64
10, 69848, Note_on_c, 1, 67, 85
10, 69954, Note_off_c, 1, 67, 64
10, 70077, Note_on_c, 1, 72, 82
10, 70179, Note_off_c, 1, 72, 64
10, 70320, Note_on_c, 1, 72, 82
10, 70409, Note_off_c, 1, 72, 64
10, 70558, Note_on_c, 1, 72, 87
10, 70675, Note_off_c, 1, 72, 64
10, 70801, Note_on_c, 1, 69, 82
10, 70894, Note_off_c, 1, 69, 64
10, 71046, Note_on_c, 1, 69, 80
10, 71145, Note_off_c, 1, 69, 64
10, 71284, Note_on_c, 1, 74, 85
10, 71384, Note_off_c, 1, 74, 64
10, 71527, Note_on_c, 1, 72, 82
10, 71619, Note_off_c, 1, 72, 64
10, 71766, Note_on_c, 1, 74, 87
10, 71859, Note_off_c, 1, 74, 64
10, 72015, Note_on_c, 1, 71, 87
10, 72109, Note_off_c, 1, 71, 64
10, 72242, Note_on_c, 1, 74, 78
10, 72328, Note_off_c, 1, 74, 64
10, 72481, Note_on_c, 1, 71, 72
10, 72566, Note_off_c, 1, 71, 64
10, 72727, Note_on_c, 1, 72, 78
10, 73078, Note_off_c, 1, 72, 64
10, 73200, Note_on_c, 1, 76, 80
10, 73291, Note_off_c, 1, 76, 64
10, 73434, Note_on_c, 1, 74, 87
10, 73540, Note_off_c, 1, 74, 64
10, 73666, Note_on_c, 1, 69, 72
10, 73770, Note_off_c, 1, 69, 64
10, 73911, Note_on_c, 1, 67, 70
10, 74004, Note_off_c, 1, 67, 64
10, 74154, Note_on_c, 1, 67, 82
10, 74227, Note_off_c, 1, 67, 64
10, 74266, Note_on_c, 1, 69, 82
10, 74320, Note_off_c, 1, 69, 64
10, 74383, Note_on_c, 1, 67, 82
10, 74492, Note_on_c, 1, 66, 74
10, 74497, Note_off_c, 1, 67, 64
10, 74528, Note_off_c, 1, 66, 64
10, 74529, Note_on_c, 1, 67, 70
10, 74565, Note_on_c, 1, 66, 66
10, 74575, Note_off_c, 1, 67, 64
10, 74600, Note_on_c, 1, 67, 68
10, 74602, Note_off_c, 1, 66, 64
10, 74633, Note_on_c, 1, 66, 80
10, 74646, Note_off_c, 1, 67, 64
10, 74754, Note_off_c, 1, 66, 64
10, 74759, Note_on_c, 1, 62, 80
10, 74817, Note_off_c, 1, 62, 64
10, 74888, Note_on_c, 1, 62, 80
10, 75448, Note_off_c, 1, 62, 64
10, 75595, Note_on_c, 1, 67, 82
10, 75708, Note_off_c, 1, 67, 64
10, 75834, Note_on_c, 1, 72, 80
10, 75930, Note_off_c, 1, 72, 64
10, 76088, Note_on_c, 1, 72, 80
10, 76190, Note_off_c, 1, 72, 64
10, 76329, Note_on_c, 1, 72, 85
10, 76442, Note_off_c, 1, 72, 64
10, 76557, Note_on_c, 1, 69, 68
10, 76666, Note_off_c, 1, 69, 64
10, 76810, Note_on_c, 1, 69, 80
10, 76900, Note_off_c, 1, 69, 64
10, 77044, Note_on_c, 1, 74, 82
10, 77157, Note_off_c, 1, 74, 64
10, 77290, Note_on_c, 1, 72, 82
10, 77384, Note_off_c, 1, 72, 64
10, 77524, Note_on_c, 1, 74, 80
10, 77624, Note_off_c, 1, 74, 64
10, 77770, Note_on_c, 1, 71, 85
10, 77876, Note_off_c, 1, 71, 64
10, 78002, Note_on_c, 1, 74, 82
10, 78111, Note_off_c, 1, 74, 64
10, 78248, Note_on_c, 1, 71, 78
10, 78337, Note_off_c, 1, 71, 64
10, 78479, Note_on_c, 1, 72, 85
10, 78845, Note_off_c, 1, 72, 64
10, 78960, Note_on_c, 1, 76, 82
10, 79067, Note_off_c, 1, 76, 64
10, 79198, Note_on_c, 1, 74, 82
10, 79343, Note_off_c, 1, 74, 64
10, 79430, Note_on_c, 1, 69, 64
10, 79534, Note_off_c, 1, 69, 64
10, 79661, Note_on_c, 1, 67, 78
10, 79773, Note_off_c, 1, 67, 64
10, 79896, Note_on_c, 1, 67, 68
10, 79976, Note_off_c, 1, 67, 64
10, 80018, Note_on_c, 1, 69, 85
10, 80080, Note_off_c, 1, 69, 64
10, 80134, Note_on_c, 1, 67, 78
10, 80252, Note_on_c, 1, 66, 64
10, 80257, Note_off_c, 1, 67, 64
10, 80287, Note_on_c, 1, 67, 68
10, 80290, Note_off_c, 1, 66, 64
10, 80325, Note_on_c, 1, 66, 72
10, 80334, Note_off_c, 1, 67, 64
10, 80355, Note_on_c, 1, 67, 78
10, 80364, Note_off_c, 1, 66, 64
10, 80392, Note_on_c, 1, 66, 82
10, 80407, Note_off_c, 1, 67, 64
10, 80506, Note_off_c, 1, 66, 64
10, 80510, Note_on_c, 1, 62, 85
10, 80583, Note_off_c, 1, 62, 64
10, 80636, Note_on_c, 1, 62, 70
10, 81171, Note_off_c, 1, 62, 64
10, 81171, End_track
11, 0, Start_track
11, 0, Title_t, "Viola"
11, 0, Program_c, 2, 41
11, 0, Control_c, 2, 7, 100
11, 12234, Note_on_c, 2, 59, 70
11, 12347, Note_off_c, 2, 59, 64
11, 12480, Note_on_c, 2, 62, 72
11, 12572, Note_off_c, 2, 62, 64
11, 12723, Note_on_c, 2, 62, 66
11, 12816, Note_off_c, 2, 62, 64
11, 12949, Note_on_c, 2, 62, 80
11, 13051, Note_off_c, 2, 62, 64
11, 13197, Note_on_c, 2, 68, 64
11, 13320, Note_off_c, 2, 68, 64
11, 13438, Note_on_c, 2, 71, 78
11, 13548, Note_off_c, 2, 71, 64
11, 13676, Note_on_c, 2, 69, 70
11, 13778, Note_off_c, 2, 69, 64
11, 13908, Note_on_c, 2, 69, 80
11, 14012, Note_off_c, 2, 69, 64
11, 14150, Note_on_c, 2, 65, 63
11, 14247, Note_off_c, 2, 65, 64
11, 14396, Note_on_c, 2, 64, 76
11, 14755, Note_off_c, 2, 64, 64
11, 14869, Note_on_c, 2, 64, 72
11, 14969, Note_off_c, 2, 64, 64
11, 15115, Note_on_c, 2, 64, 85
11, 15208, Note_off_c, 2, 64, 64
11, 15354, Note_on_c, 2, 69, 70
11, 15442, Note_off_c, 2, 69, 64
11, 15595, Note_on_c, 2, 64, 74
11, 15678, Note_off_c, 2, 64, 64
11, 15830, Note_on_c, 2, 65, 70
11, 16225, Note_off_c, 2, 65, 64
11, 16309, Note_on_c, 2, 64, 78
11, 16403, Note_off_c, 2, 64, 64
11, 16416, Note_on_c, 2, 62, 66
11, 16477, Note_off_c, 2, 62, 64
11, 16548, Note_on_c, 2, 69, 80
11, 16638, Note_off_c, 2, 69, 64
11, 16794, Note_on_c, 2, 65, 70
11, 16885, Note_off_c, 2, 65, 64
11, 17029, Note_on_c, 2, 59, 80
11, 17126, Note_off_c, 2, 59, 64
11, 17280, Note_on_c, 2, 60, 59
11, 17854, Note_off_c, 2, 60, 64
11, 17981, Note_on_c, 2, 60, 64
11, 18088, Note_off_c, 2, 60, 64
11, 18232, Note_on_c, 2, 64, 85
11, 18330, Note_off_c, 2, 64, 64
11, 18472, Note_on_c, 2, 60, 72
11, 18569, Note_off_c, 2, 60, 64
11, 18714, Note_on_c, 2, 60, 70
11, 18811, Note_off_c, 2, 60, 64
11, 18947, Note_on_c, 2, 62, 82
11, 19323, Note_off_c, 2, 62, 64
11, 19429, Note_on_c, 2, 64, 70
11, 19537, Note_off_c, 2, 64, 64
11, 19665, Note_on_c, 2, 60, 60
11, 19772, Note_off_c, 2, 60, 64
11, 19915, Note_on_c, 2, 62, 64
11, 20007, Note_off_c, 2, 62, 64
11, 20144, Note_on_c, 2, 62, 82
11, 20337, Note_off_c, 2, 62, 64
11, 20390, Note_on_c, 2, 60, 68
11, 20466, Note_off_c, 2, 60, 64
11, 20503, Note_on_c, 2, 59, 76
11, 20573, Note_off_c, 2, 59, 64
11, 20622, Note_on_c, 2, 60, 74
11, 20718, Note_off_c, 2, 60, 64
11, 20734, Note_on_c, 2, 57, 74
11, 20814, Note_off_c, 2, 57, 64
11, 20857, Note_on_c, 2, 59, 87
11, 20990, Note_off_c, 2, 59, 64
11, 21109, Note_on_c, 2, 62, 72
11, 21200, Note_off_c, 2, 62, 64
11, 21342, Note_on_c, 2, 67, 80
11, 21449, Note_off_c, 2, 67, 64
11, 21597, Note_on_c, 2, 67, 85
11, 21708, Note_off_c, 2, 67, 64
11, 21831, Note_on_c, 2, 65, 62
11, 21939, Note_off_c, 2, 65, 64
11, 22075, Note_on_c, 2, 65, 70
11, 22182, Note_off_c, 2, 65, 64
11, 22319, Note_on_c, 2, 64, 68
11, 22423, Note_off_c, 2, 64, 64
11, 22557, Note_on_c, 2, 64, 85
11, 22664, Note_off_c, 2, 64, 64
11, 22797, Note_on_c, 2, 62, 82
11, 22889, Note_off_c, 2, 62, 64
11, 23036, Note_on_c, 2, 64, 80
11, 23608, Note_off_c, 2, 64, 64
11, 23754, Note_on_c, 2, 59, 68
11, 23869, Note_off_c, 2, 59, 64
11, 23996, Note_on_c, 2, 62, 78
11, 24092, Note_off_c, 2, 62, 64
11, 24234, Note_on_c, 2, 62, 66
11, 24347, Note_off_c, 2, 62, 64
11, 24471, Note_on_c, 2, 62, 80
11, 24592, Note_off_c, 2, 62, 64
11, 24713, Note_on_c, 2, 68, 64
11, 24822, Note_off_c, 2, 68, 64
11, 24955, Note_on_c, 2, 71, 82
11, 25072, Note_off_c, 2, 71, 64
11, 25191, Note_on_c, 2, 69, 82
11, 25299, Note_off_c, 2, 69, 64
11, 25420, Note_on_c, 2, 69, 80
11, 25531, Note_off_c, 2, 69, 64
11, 25667, Note_on_c, 2, 65, 70
11, 25773, Note_off_c, 2, 65, 64
11, 25915, Note_on_c, 2, 64, 78
11, 26280, Note_off_c, 2, 64, 64
11, 26386, Note_on_c, 2, 64, 72
11, 26489, Note_off_c, 2, 64, 64
11, 26631, Note_on_c, 2, 64, 80
11, 26739, Note_off_c, 2, 64, 64
11, 26870, Note_on_c, 2, 69, 82
11, 26976, Note_off_c, 2, 69, 64
11, 27117, Note_on_c, 2, 64, 80
11, 27210, Note_off_c, 2, 64, 64
11, 27370, Note_on_c, 2, 65, 70
11, 27774, Note_off_c, 2, 65, 64
11, 27828, Note_on_c, 2, 64, 76
11, 27915, Note_off_c, 2, 64, 64
11, 27937, Note_on_c, 2, 62, 70
11, 28008, Note_off_c, 2, 62, 64
11, 28074, Note_on_c, 2, 69, 87
11, 28175, Note_off_c, 2, 69, 64
11, 28313, Note_on_c, 2, 65, 76
11, 28407, Note_off_c, 2, 65, 64
11, 28558, Note_on_c, 2, 59, 80
11, 28656, Note_off_c, 2, 59, 64
11, 28802, Note_on_c, 2, 60, 60
11, 29382, Note_off_c, 2, 60, 64
11, 29501, Note_on_c, 2, 60, 59
11, 29606, Note_off_c, 2, 60, 64
11, 29746, Note_on_c, 2, 64, 82
11, 29848, Note_off_c, 2, 64, 64
11, 29989, Note_on_c, 2, 60, 59
11, 30101, Note_off_c, 2, 60, 64
11, 30230, Note_on_c, 2, 60, 66
11, 30336, Note_off_c, 2, 60, 64
11, 30472, Note_on_c, 2, 62, 64
11, 30864, Note_off_c, 2, 62, 64
11, 30948, Note_on_c, 2, 64, 70
11, 31065, Note_off_c, 2, 64, 64
11, 31184, Note_on_c, 2, 60, 62
11, 31302, Note_off_c, 2, 60, 64
11, 31434, Note_on_c, 2, 62, 78
11, 31551, Note_off_c, 2, 62, 64
11, 31671, Note_on_c, 2, 62, 80
11, 31801, Note_off_c, 2, 62, 64
11, 31914, Note_on_c, 2, 60, 70
11, 31994, Note_off_c, 2, 60, 64
11, 32020, Note_on_c, 2, 59, 66
11, 32103, Note_off_c, 2, 59, 64
11, 32136, Note_on_c, 2, 60, 76
11, 32239, Note_off_c, 2, 60, 64
11, 32247, Note_on_c, 2, 57, 66
11, 32333, Note_off_c, 2, 57, 64
11, 32378, Note_on_c, 2, 59, 82
11, 32508, Note_off_c, 2, 59, 64
11, 32623, Note_on_c, 2, 62, 76
11, 32723, Note_off_c, 2, 62, 64
11, 32860, Note_on_c, 2, 67, 68
11, 32977, Note_off_c, 2, 67, 64
11, 33107, Note_on_c, 2, 67, 82
11, 33220, Note_off_c, 2, 67, 64
11, 33348, Note_on_c, 2, 65, 72
11, 33458, Note_off_c, 2, 65, 64
11, 33597, Note_on_c, 2, 65, 64
11, 33704, Note_off_c, 2, 65, 64
11, 33833, Note_on_c, 2, 64, 64
11, 33946, Note_off_c, 2, 64, 64
11, 34074, Note_on_c, 2, 64, 78
11, 34174, Note_off_c, 2, 64, 64
11, 34318, Note_on_c, 2, 62, 80
11, 34414, Note_off_c, 2, 62, 64
11, 34557, Note_on_c, 2, 64, 80
11, 35096, Note_off_c, 2, 64, 64
11, 69837, Note_on_c, 2, 64, 80
11, 69962, Note_off_c, 2, 64, 64
11, 70068, Note_on_c, 2, 67, 70
11, 70178, Note_off_c, 2, 67, 64
11, 70309, Note_on_c, 2, 67, 66
11, 70410, Note_off_c, 2, 67, 64
11, 70554, Note_on_c, 2, 65, 76
11, 70667, Note_off_c, 2, 65, 64
11, 70796, Note_on_c, 2, 60, 60
11, 70898, Note_off_c, 2, 60, 64
11, 71043, Note_on_c, 2, 65, 66
11, 71154, Note_off_c, 2, 65, 64
11, 71278, Note_on_c, 2, 62, 80
11, 71396, Note_off_c, 2, 62, 64
11, 71516, Note_on_c, 2, 67, 74
11, 71634, Note_off_c, 2, 67, 64
11, 71763, Note_on_c, 2, 69, 80
11, 71863, Note_off_c, 2, 69, 64
11, 72007, Note_on_c, 2, 67, 82
11, 72372, Note_off_c, 2, 67, 64
11, 72486, Note_on_c, 2, 67, 68
11, 72594, Note_off_c, 2, 67, 64
11, 72732, Note_on_c, 2, 67, 80
11, 72848, Note_off_c, 2, 67, 64
11, 72973, Note_on_c, 2, 64, 68
11, 73063, Note_off_c, 2, 64, 64
11, 73200, Note_on_c, 2, 69, 82
11, 73299, Note_off_c, 2, 69, 64
11, 73445, Note_on_c, 2, 69, 89
11, 73553, Note_off_c, 2, 69, 64
11, 73677, Note_on_c, 2, 66, 82
11, 73775, Note_off_c, 2, 66, 64
11, 73912, Note_on_c, 2, 62, 80
11, 74009, Note_off_c, 2, 62, 64
11, 74156, Note_on_c, 2, 60, 70
11, 74238, Note_off_c, 2, 60, 64
11, 74264, Note_on_c, 2, 59, 63
11, 74341, Note_off_c, 2, 59, 64
11, 74383, Note_on_c, 2, 60, 68
11, 74466, Note_off_c, 2, 60, 64
11, 74494, Note_on_c, 2, 57, 74
11, 74578, Note_off_c, 2, 57, 64
11, 74622, Note_on_c, 2, 62, 87
11, 74739, Note_off_c, 2, 62, 64
11, 74883, Note_on_c, 2, 59, 85
11, 75412, Note_off_c, 2, 59, 64
11, 75594, Note_on_c, 2, 64, 80
11, 75715, Note_off_c, 2, 64, 64
11, 75833, Note_on_c, 2, 67, 66
11, 75939, Note_off_c, 2, 67, 64
11, 76072, Note_on_c, 2, 67, 85
11, 76182, Note_off_c, 2, 67, 64
11, 76318, Note_on_c, 2, 65, 78
11, 76437, Note_off_c, 2, 65, 64
11, 76556, Note_on_c, 2, 60, 63
11, 76677, Note_off_c, 2, 60, 64
11, 76803, Note_on_c, 2, 65, 72
11, 76915, Note_off_c, 2, 65, 64
11, 77032, Note_on_c, 2, 62, 82
11, 77162, Note_off_c, 2, 62, 64
11, 77280, Note_on_c, 2, 67, 76
11, 77387, Note_off_c, 2, 67, 64
11, 77522, Note_on_c, 2, 69, 80
11, 77619, Note_off_c, 2, 69, 64
11, 77764, Note_on_c, 2, 67, 78
11, 78120, Note_off_c, 2, 67, 64
11, 78247, Note_on_c, 2, 67, 80
11, 78354, Note_off_c, 2, 67, 64
11, 78482, Note_on_c, 2, 67, 85
11, 78600, Note_off_c, 2, 67, 64
11, 78724, Note_on_c, 2, 64, 72
11, 78821, Note_off_c, 2, 64, 64
11, 78963, Note_on_c, 2, 69, 85
11, 79067, Note_off_c, 2, 69, 64
11, 79206, Note_on_c, 2, 69, 87
11, 79338, Note_off_c, 2, 69, 64
11, 79432, Note_on_c, 2, 66, 74
11, 79546, Note_off_c, 2, 66, 64
11, 79673, Note_on_c, 2, 62, 80
11, 79799, Note_off_c, 2, 62, 64
11, 79894, Note_on_c, 2, 60, 80
11, 79989, Note_off_c, 2, 60, 64
11, 80010, Note_on_c, 2, 59, 74
11, 80093, Note_off_c, 2, 59, 64
11, 80132, Note_on_c, 2, 60, 76
11, 80225, Note_off_c, 2, 60, 64
11, 80241, Note_on_c, 2, 57, 70
11, 80334, Note_off_c, 2, 57, 64
11, 80377, Note_on_c, 2, 62, 91
11, 80487, Note_off_c, 2, 62, 64
11, 80640, Note_on_c, 2, 59, 82
11, 81159, Note_off_c, 2, 59, 64
11, 81159, End_track
12, 0, Start_track
12, 0, Title_t, "Cello"
12, 0, Program_c, 3, 42
12, 0, Control_c, 3, 7, 100
12, 12240, Note_on_c, 3, 55, 74
12, 12333, Note_off_c, 3, 55, 64
12, 12462, Note_on_c, 3, 50, 78
12, 12564, Note_off_c, 3, 50, 64
12, 12708, Note_on_c, 3, 47, 72
12, 12798, Note_off_c, 3, 47, 64
12, 12951, Note_on_c, 3, 44, 66
12, 13072, Note_off_c, 3, 44, 64
12, 13197, Note_on_c, 3, 47, 76
12, 13273, Note_off_c, 3, 47, 64
12, 13305, Note_on_c, 3, 44, 70
12, 13383, Note_off_c, 3, 44, 64
12, 13426, Note_on_c, 3, 52, 85
12, 13547, Note_off_c, 3, 52, 64
12, 13685, Note_on_c, 3, 48, 66
12, 13783, Note_off_c, 3, 48, 64
12, 13915, Note_on_c, 3, 53, 74
12, 14013, Note_off_c, 3, 53, 64
12, 14145, Note_on_c, 3, 50, 70
12, 14242, Note_off_c, 3, 50, 64
12, 14389, Note_on_c, 3, 52, 76
12, 14516, Note_off_c, 3, 52, 64
12, 14627, Note_on_c, 3, 56, 76
12, 14695, Note_off_c, 3, 56, 64
12, 14738, Note_on_c, 3, 52, 68
12, 14824, Note_off_c, 3, 52, 64
12, 14868, Note_on_c, 3, 64, 87
12, 14975, Note_off_c, 3, 64, 64
12, 15107, Note_on_c, 3, 57, 82
12, 15223, Note_off_c, 3, 57, 64
12, 15360, Note_on_c, 3, 45, 76
12, 15458, Note_off_c, 3, 45, 64
12, 15591, Note_on_c, 3, 48, 78
12, 15704, Note_off_c, 3, 48, 64
12, 15825, Note_on_c, 3, 50, 68
12, 15938, Note_off_c, 3, 50, 64
12, 16063, Note_on_c, 3, 53, 70
12, 16138, Note_off_c, 3, 53, 64
12, 16169, Note_on_c, 3, 50, 66
12, 16240, Note_off_c, 3, 50, 64
12, 16293, Note_on_c, 3, 56, 87
12, 16399, Note_off_c, 3, 56, 64
12, 16537, Note_on_c, 3, 57, 85
12, 16642, Note_off_c, 3, 57, 64
12, 16779, Note_on_c, 3, 50, 74
12, 16891, Note_off_c, 3, 50, 64
12, 17032, Note_on_c, 3, 52, 68
12, 17120, Note_off_c, 3, 52, 64
12, 17284, Note_on_c, 3, 45, 64
12, 17409, Note_off_c, 3, 45, 64
12, 17514, Note_on_c, 3, 48, 82
12, 17584, Note_off_c, 3, 48, 64
12, 17633, Note_on_c, 3, 45, 85
12, 17723, Note_off_c, 3, 45, 64
12, 17757, Note_on_c, 3, 53, 89
12, 17868, Note_off_c, 3, 53, 64
12, 17991, Note_on_c, 3, 52, 76
12, 18103, Note_off_c, 3, 52, 64
12, 18244, Note_on_c, 3, 48, 80
12, 18331, Note_off_c, 3, 48, 64
12, 18470, Note_on_c, 3, 60, 80
12, 18576, Note_off_c, 3, 60, 64
12, 18718, Note_on_c, 3, 53, 74
12, 18790, Note_off_c, 3, 53, 64
12, 18813, Note_on_c, 3, 52, 85
12, 18899, Note_off_c, 3, 52, 64
12, 18937, Note_on_c, 3, 53, 82
12, 19024, Note_off_c, 3, 53, 64
12, 19049, Note_on_c, 3, 50, 66
12, 19128, Note_off_c, 3, 50, 64
12, 19177, Note_on_c, 3, 55, 82
12, 19282, Note_off_c, 3, 55, 64
12, 19423, Note_on_c, 3, 52, 63
12, 19534, Note_off_c, 3, 52, 64
12, 19658, Note_on_c, 3, 57, 85
12, 19770, Note_off_c, 3, 57, 64
12, 19901, Note_on_c, 3, 53, 70
12, 20015, Note_off_c, 3, 53, 64
12, 20154, Note_on_c, 3, 55, 80
12, 20276, Note_off_c, 3, 55, 64
12, 20382, Note_on_c, 3, 64, 70
12, 20466, Note_off_c, 3, 64, 64
12, 20486, Note_on_c, 3, 62, 82
12, 20573, Note_off_c, 3, 62, 64
12, 20608, Note_on_c, 3, 64, 82
12, 20718, Note_off_c, 3, 64, 64
12, 20718, Note_on_c, 3, 60, 80
12, 20790, Note_off_c, 3, 60, 64
12, 20854, Note_on_c, 3, 59, 72
12, 20971, Note_off_c, 3, 59, 64
12, 21099, Note_on_c, 3, 55, 78
12, 21233, Note_off_c, 3, 55, 64
12, 21341, Note_on_c, 3, 59, 82
12, 21451, Note_off_c, 3, 59, 64
12, 21583, Note_on_c, 3, 48, 72
12, 21716, Note_off_c, 3, 48, 64
12, 21830, Note_on_c, 3, 53, 80
12, 21909, Note_off_c, 3, 53, 64
12, 21937, Note_on_c, 3, 50, 66
12, 22026, Note_off_c, 3, 50, 64
12, 22060, Note_on_c, 3, 59, 89
12, 22177, Note_off_c, 3, 59, 64
12, 22306, Note_on_c, 3, 52, 80
12, 22428, Note_off_c, 3, 52, 64
12, 22553, Note_on_c, 3, 53, 78
12, 22662, Note_off_c, 3, 53, 64
12, 22791, Note_on_c, 3, 55, 85
12, 22922, Note_off_c, 3, 55, 64
12, 23037, Note_on_c, 3, 48, 68
12, 23115, Note_off_c, 3, 48, 64
12, 23139, Note_on_c, 3, 47, 78
12, 23222, Note_off_c, 3, 47, 64
12, 23267, Note_on_c, 3, 48, 85
12, 23347, Note_off_c, 3, 48, 64
12, 23371, Note_on_c, 3, 50, 78
12, 23441, Note_off_c, 3, 50, 64
12, 23491, Note_on_c, 3, 52, 70
12, 23572, Note_off_c, 3, 52, 64
12, 23615, Note_on_c, 3, 53, 87
12, 23679, Note_off_c, 3, 53, 64
12, 23738, Note_on_c, 3, 55, 70
12, 23865, Note_off_c, 3, 55, 64
12, 23984, Note_on_c, 3, 50, 78
12, 24101, Note_off_c, 3, 50, 64
12, 24238, Note_on_c, 3, 47, 80
12, 24336, Note_off_c, 3, 47, 64
12, 24471, Note_on_c, 3, 44, 80
12, 24588, Note_off_c, 3, 44, 64
12, 24701, Note_on_c, 3, 47, 82
12, 24779, Note_off_c, 3, 47, 64
12, 24815, Note_on_c, 3, 44, 66
12, 24890, Note_off_c, 3, 44, 64
12, 24938, Note_on_c, 3, 52, 82
12, 25059, Note_off_c, 3, 52, 64
12, 25197, Note_on_c, 3, 48, 76
12, 25304, Note_off_c, 3, 48, 64
12, 25436, Note_on_c, 3, 53, 82
12, 25541, Note_off_c, 3, 53, 64
12, 25671, Note_on_c, 3, 50, 68
12, 25758, Note_off_c, 3, 50, 64
12, 25910, Note_on_c, 3, 52, 78
12, 26077, Note_off_c, 3, 52, 64
12, 26153, Note_on_c, 3, 56, 72
12, 26219, Note_off_c, 3, 56, 64
12, 26264, Note_on_c, 3, 52, 64
12, 26352, Note_off_c, 3, 52, 64
12, 26390, Note_on_c, 3, 64, 93
12, 26510, Note_off_c, 3, 64, 64
12, 26628, Note_on_c, 3, 57, 80
12, 26764, Note_off_c, 3, 57, 64
12, 26868, Note_on_c, 3, 45, 76
12, 26989, Note_off_c, 3, 45, 64
12, 27100, Note_on_c, 3, 48, 66
12, 27200, Note_off_c, 3, 48, 64
12, 27350, Note_on_c, 3, 50, 82
12, 27501, Note_off_c, 3, 50, 64
12, 27581, Note_on_c, 3, 53, 80
12, 27652, Note_off_c, 3, 53, 64
12, 27688, Note_on_c, 3, 50, 66
12, 27761, Note_off_c, 3, 50, 64
12, 27829, Note_on_c, 3, 56, 82
12, 27942, Note_off_c, 3, 56, 64
12, 28066, Note_on_c, 3, 57, 87
12, 28160, Note_off_c, 3, 57, 64
12, 28315, Note_on_c, 3, 50, 78
12, 28422, Note_off_c, 3, 50, 64
12, 28555, Note_on_c, 3, 52, 82
12, 28656, Note_off_c, 3, 52, 64
12, 28796, Note_on_c, 3, 45, 72
12, 28987, Note_off_c, 3, 45, 64
12, 29038, Note_on_c, 3, 48, 76
12, 29101, Note_off_c, 3, 48, 64
12, 29147, Note_on_c, 3, 45, 82
12, 29214, Note_off_c, 3, 45, 64
12, 29263, Note_on_c, 3, 53, 85
12, 29388, Note_off_c, 3, 53, 64
12, 29513, Note_on_c, 3, 52, 82
12, 29638, Note_off_c, 3, 52, 64
12, 29754, Note_on_c, 3, 48, 82
12, 29872, Note_off_c, 3, 48, 64
12, 29988, Note_on_c, 3, 60, 85
12, 30116, Note_off_c, 3, 60, 64
12, 30230, Note_on_c, 3, 53, 78
12, 30314, Note_off_c, 3, 53, 64
12, 30329, Note_on_c, 3, 52, 70
12, 30423, Note_off_c, 3, 52, 64
12, 30456, Note_on_c, 3, 53, 70
12, 30548, Note_off_c, 3, 53, 64
12, 30567, Note_on_c, 3, 50, 68
12, 30657, Note_off_c, 3, 50, 64
12, 30695, Note_on_c, 3, 55, 85
12, 30805, Note_off_c, 3, 55, 64
12, 30949, Note_on_c, 3, 52, 78
12, 31056, Note_off_c, 3, 52, 64
12, 31197, Note_on_c, 3, 57, 85
12, 31302, Note_off_c, 3, 57, 64
12, 31435, Note_on_c, 3, 53, 68
12, 31554, Note_off_c, 3, 53, 64
12, 31675, Note_on_c, 3, 55, 78
12, 31785, Note_off_c, 3, 55, 64
12, 31904, Note_on_c, 3, 64, 80
12, 31985, Note_off_c, 3, 64, 64
12, 32009, Note_on_c, 3, 62, 78
12, 32097, Note_off_c, 3, 62, 64
12, 32133, Note_on_c, 3, 64, 78
12, 32247, Note_on_c, 3, 60, 68
12, 32258, Note_off_c, 3, 64, 64
12, 32340, Note_off_c, 3, 60, 64
12, 32371, Note_on_c, 3, 59, 76
12, 32507, Note_off_c, 3, 59, 64
12, 32623, Note_on_c, 3, 55, 78
12, 32739, Note_off_c, 3, 55, 64
12, 32857, Note_on_c, 3, 59, 80
12, 32982, Note_off_c, 3, 59, 64
12, 33105, Note_on_c, 3, 48, 85
12, 33222, Note_off_c, 3, 48, 64
12, 33336, Note_on_c, 3, 53, 66
12, 33418, Note_off_c, 3, 53, 64
12, 33438, Note_on_c, 3, 50, 64
12, 33532, Note_off_c, 3, 50, 64
12, 33576, Note_on_c, 3, 59, 91
12, 33693, Note_off_c, 3, 59, 64
12, 33829, Note_on_c, 3, 52, 82
12, 33958, Note_off_c, 3, 52, 64
12, 34068, Note_on_c, 3, 53, 82
12, 34189, Note_off_c, 3, 53, 64
12, 34320, Note_on_c, 3, 55, 78
12, 34420, Note_off_c, 3, 55, 64
12, 34568, Note_on_c, 3, 48, 82
12, 35079, Note_off_c, 3, 48, 64
12, 69844, Note_on_c, 3, 60, 87
12, 69945, Note_off_c, 3, 60, 64
12, 70081, Note_on_c, 3, 48, 80
12, 70173, Note_off_c, 3, 48, 64
12, 70325, Note_on_c, 3, 52, 68
12, 70419, Note_off_c, 3, 52, 64
12, 70558, Note_on_c, 3, 53, 80
12, 70692, Note_off_c, 3, 53, 64
12, 70796, Note_on_c, 3, 57, 87
12, 70875, Note_off_c, 3, 57, 64
12, 70902, Note_on_c, 3, 53, 78
12, 70999, Note_off_c, 3, 53, 64
12, 71028, Note_on_c, 3, 62, 98
12, 71146, Note_off_c, 3, 62, 64
12, 71267, Note_on_c, 3, 59, 78
12, 71387, Note_off_c, 3, 59, 64
12, 71521, Note_on_c, 3, 60, 82
12, 71623, Note_off_c, 3, 60, 64
12, 71762, Note_on_c, 3, 53, 66
12, 71877, Note_off_c, 3, 53, 64
12, 72004, Note_on_c, 3, 55, 80
12, 72127, Note_off_c, 3, 55, 64
12, 72239, Note_on_c, 3, 59, 80
12, 72349, Note_off_c, 3, 59, 64
12, 72480, Note_on_c, 3, 55, 66
12, 72587, Note_off_c, 3, 55, 64
12, 72720, Note_on_c, 3, 60, 82
12, 72837, Note_off_c, 3, 60, 64
12, 72963, Note_on_c, 3, 59, 72
12, 73078, Note_off_c, 3, 59, 64
12, 73205, Note_on_c, 3, 57, 80
12, 73301, Note_off_c, 3, 57, 64
12, 73443, Note_on_c, 3, 50, 82
12, 73567, Note_off_c, 3, 50, 64
12, 73666, Note_on_c, 3, 54, 72
12, 73758, Note_off_c, 3, 54, 64
12, 73781, Note_on_c, 3, 50, 68
12, 73859, Note_off_c, 3, 50, 64
12, 73910, Note_on_c, 3, 55, 98
12, 74014, Note_off_c, 3, 55, 64
12, 74154, Note_on_c, 3, 48, 80
12, 74252, Note_off_c, 3, 48, 64
12, 74404, Note_on_c, 3, 50, 87
12, 74515, Note_off_c, 3, 50, 64
12, 74646, Note_on_c, 3, 38, 91
12, 74758, Note_off_c, 3, 38, 64
12, 74883, Note_on_c, 3, 43, 85
12, 74977, Note_off_c, 3, 43, 64
12, 74983, Note_on_c, 3, 50, 74
12, 75055, Note_off_c, 3, 50, 64
12, 75112, Note_on_c, 3, 55, 85
12, 75204, Note_off_c, 3, 55, 64
12, 75223, Note_on_c, 3, 57, 85
12, 75290, Note_off_c, 3, 57, 64
12, 75338, Note_on_c, 3, 55, 80
12, 75415, Note_off_c, 3, 55, 64
12, 75454, Note_on_c, 3, 53, 85
12, 75521, Note_off_c, 3, 53, 64
12, 75584, Note_on_c, 3, 52, 89
12, 75701, Note_off_c, 3, 52, 64
12, 75842, Note_on_c, 3, 48, 78
12, 75961, Note_off_c, 3, 48, 64
12, 76082, Note_on_c, 3, 52, 85
12, 76185, Note_off_c, 3, 52, 64
12, 76325, Note_on_c, 3, 53, 82
12, 76441, Note_off_c, 3, 53, 64
12, 76559, Note_on_c, 3, 57, 85
12, 76639, Note_off_c, 3, 57, 64
12, 76666, Note_on_c, 3, 53, 66
12, 76751, Note_off_c, 3, 53, 64
12, 76791, Note_on_c, 3, 62, 102
12, 76900, Note_off_c, 3, 62, 64
12, 77036, Note_on_c, 3, 59, 80
12, 77151, Note_off_c, 3, 59, 64
12, 77279, Note_on_c, 3, 60, 87
12, 77376, Note_off_c, 3, 60, 64
12, 77521, Note_on_c, 3, 53, 80
12, 77619, Note_off_c, 3, 53, 64
12, 77768, Note_on_c, 3, 55, 85
12, 77880, Note_off_c, 3, 55, 64
12, 78002, Note_on_c, 3, 59, 80
12, 78112, Note_off_c, 3, 59, 64
12, 78241, Note_on_c, 3, 55, 76
12, 78346, Note_off_c, 3, 55, 64
12, 78477, Note_on_c, 3, 60, 93
12, 78588, Note_off_c, 3, 60, 64
12, 78712, Note_on_c, 3, 59, 82
12, 78826, Note_off_c, 3, 59, 64
12, 78952, Note_on_c, 3, 57, 80
12, 79058, Note_off_c, 3, 57, 64
12, 79205, Note_on_c, 3, 50, 89
12, 79323, Note_off_c, 3, 50, 64
12, 79429, Note_on_c, 3, 54, 85
12, 79522, Note_off_c, 3, 54, 64
12, 79556, Note_on_c, 3, 50, 85
12, 79631, Note_off_c, 3, 50, 64
12, 79677, Note_on_c, 3, 55, 93
12, 79778, Note_off_c, 3, 55, 64
12, 79907, Note_on_c, 3, 48, 80
12, 80007, Note_off_c, 3, 48, 64
12, 80154, Note_on_c, 3, 50, 95
12, 80260, Note_off_c, 3, 50, 64
12, 80405, Note_on_c, 3, 38, 91
12, 80494, Note_off_c, 3, 38, 64
12, 80650, Note_on_c, 3, 43, 85
12, 80763, Note_off_c, 3, 43, 64
12, 80868, Note_on_c, 3, 47, 80
12, 80972, Note_off_c, 3, 47, 64
12, 81100, Note_on_c, 3, 50, 95
12, 81206, Note_off_c, 3, 50, 64
12, 81206, End_track
13, 0, Start_track
13, 0, Title_t, "Oboe1"
13, 0, Program_c, 4, 68
13, 0, Control_c, 4, 7, 100
13, 12235, Note_on_c, 4, 67, 82
13, 12384, Note_off_c, 4, 67, 64
13, 12481, Note_on_c, 4, 71, 80
13, 12548, Note_off_c, 4, 71, 64
13, 12579, Note_on_c, 4, 67, 68
13, 12644, Note_off_c, 4, 67, 64
13, 12703, Note_on_c, 4, 74, 85
13, 12808, Note_off_c, 4, 74, 64
13, 12945, Note_on_c, 4, 77, 85
13, 13074, Note_off_c, 4, 77, 64
13, 13199, Note_on_c, 4, 76, 74
13, 13304, Note_on_c, 4, 74, 59
13, 13314, Note_off_c, 4, 76, 64
13, 13348, Note_off_c, 4, 74, 64
13, 13348, Note_on_c, 4, 76, 61
13, 13388, Note_on_c, 4, 74, 66
13, 13391, Note_off_c, 4, 76, 64
13, 13424, Note_off_c, 4, 74, 64
13, 13424, Note_on_c, 4, 76, 63
13, 13453, Note_off_c, 4, 76, 64
13, 13455, Note_on_c, 4, 74, 64
13, 13481, Note_on_c, 4, 76, 68
13, 13484, Note_off_c, 4, 74, 64
13, 13520, Note_on_c, 4, 74, 66
13, 13536, Note_off_c, 4, 76, 64
13, 13555, Note_on_c, 4, 72, 68
13, 13566, Note_off_c, 4, 74, 64
13, 13603, Note_on_c, 4, 74, 63
13, 13621, Note_off_c, 4, 72, 64
13, 13674, Note_on_c, 4, 76, 82
13, 13677, Note_off_c, 4, 74, 64
13, 13809, Note_off_c, 4, 76, 64
13, 13915, Note_on_c, 4, 72, 80
13, 13982, Note_off_c, 4, 72, 64
13, 14020, Note_on_c, 4, 69, 58
13, 14090, Note_off_c, 4, 69, 64
13, 14149, Note_on_c, 4, 81, 82
13, 14251, Note_off_c, 4, 81, 64
13, 14391, Note_on_c, 4, 80, 87
13, 14502, Note_on_c, 4, 81, 78
13, 14527, Note_off_c, 4, 80, 64
13, 14622, Note_on_c, 4, 83, 85
13, 14642, Note_off_c, 4, 81, 64
13, 14680, Note_off_c, 4, 83, 64
13, 14740, Note_on_c, 4, 80, 70
13, 14802, Note_off_c, 4, 80, 64
13, 14861, Note_on_c, 4, 76, 70
13, 14928, Note_off_c, 4, 76, 64
13, 14994, Note_on_c, 4, 74, 68
13, 15056, Note_off_c, 4, 74, 64
13, 15131, Note_on_c, 4, 72, 78
13, 15255, Note_off_c, 4, 72, 64
13, 15357, Note_on_c, 4, 76, 78
13, 15427, Note_off_c, 4, 76, 64
13, 15457, Note_on_c, 4, 72, 64
13, 15541, Note_off_c, 4, 72, 64
13, 15591, Note_on_c, 4, 81, 89
13, 15684, Note_off_c, 4, 81, 64
13, 15823, Note_on_c, 4, 71, 68
13, 15914, Note_off_c, 4, 71, 64
13, 15944, Note_on_c, 4, 72, 82
13, 16013, Note_off_c, 4, 72, 64
13, 16072, Note_on_c, 4, 74, 82
13, 16366, Note_off_c, 4, 74, 64
13, 16418, Note_on_c, 4, 77, 72
13, 16485, Note_off_c, 4, 77, 64
13, 16563, Note_on_c, 4, 76, 87
13, 16736, Note_off_c, 4, 76, 64
13, 16787, Note_on_c, 4, 74, 68
13, 16884, Note_off_c, 4, 74, 64
13, 16895, Note_on_c, 4, 72, 64
13, 16969, Note_off_c, 4, 72, 64
13, 17021, Note_on_c, 4, 71, 76
13, 17141, Note_off_c, 4, 71, 64
13, 17141, Note_on_c, 4, 72, 63
13, 17223, Note_off_c, 4, 72, 64
13, 17280, Note_on_c, 4, 69, 80
13, 17880, Note_off_c, 4, 69, 64
13, 17995, Note_on_c, 4, 67, 80
13, 18138, Note_off_c, 4, 67, 64
13, 18235, Note_on_c, 4, 72, 82
13, 18298, Note_off_c, 4, 72, 64
13, 18346, Note_on_c, 4, 67, 68
13, 18427, Note_off_c, 4, 67, 64
13, 18474, Note_on_c, 4, 76, 89
13, 18577, Note_off_c, 4, 76, 64
13, 18709, Note_on_c, 4, 69, 78
13, 18804, Note_off_c, 4, 69, 64
13, 18837, Note_on_c, 4, 71, 87
13, 18903, Note_off_c, 4, 71, 64
13, 18951, Note_on_c, 4, 72, 70
13, 19041, Note_on_c, 4, 71, 57
13, 19049, Note_off_c, 4, 72, 64
13, 19087, Note_off_c, 4, 71, 64
13, 19088, Note_on_c, 4, 72, 64
13, 19124, Note_on_c, 4, 71, 64
13, 19128, Note_off_c, 4, 72, 64
13, 19163, Note_on_c, 4, 72, 66
13, 19165, Note_off_c, 4, 71, 64
13, 19189, Note_off_c, 4, 72, 64
13, 19192, Note_on_c, 4, 71, 63
13, 19220, Note_off_c, 4, 71, 64
13, 19220, Note_on_c, 4, 72, 64
13, 19252, Note_on_c, 4, 71, 74
13, 19268, Note_off_c, 4, 72, 64
13, 19295, Note_on_c, 4, 69, 66
13, 19298, Note_off_c, 4, 71, 64
13, 19338, Note_on_c, 4, 71, 68
13, 19370, Note_off_c, 4, 69, 64
13, 19403, Note_off_c, 4, 71, 64
13, 19419, Note_on_c, 4, 72, 87
13, 19555, Note_off_c, 4, 72, 64
13, 19669, Note_on_c, 4, 77, 85
13, 19748, Note_off_c, 4, 77, 64
13, 19780, Note_on_c, 4, 72, 68
13, 19855, Note_off_c, 4, 72, 64
13, 19908, Note_on_c, 4, 81, 87
13, 20010, Note_off_c, 4, 81, 64
13, 20139, Note_on_c, 4, 71, 78
13, 20224, Note_off_c, 4, 71, 64
13, 20255, Note_on_c, 4, 72, 82
13, 20334, Note_off_c, 4, 72, 64
13, 20372, Note_on_c, 4, 74, 82
13, 20470, Note_on_c, 4, 72, 52
13, 20479, Note_off_c, 4, 74, 64
13, 20510, Note_off_c, 4, 72, 64
13, 20513, Note_on_c, 4, 74, 60
13, 20552, Note_on_c, 4, 72, 60
13, 20553, Note_off_c, 4, 74, 64
13, 20587, Note_off_c, 4, 72, 64
13, 20587, Note_on_c, 4, 74, 63
13, 20618, Note_off_c, 4, 74, 64
13, 20618, Note_on_c, 4, 72, 64
13, 20644, Note_off_c, 4, 72, 64
13, 20644, Note_on_c, 4, 74, 68
13, 20678, Note_on_c, 4, 72, 72
13, 20698, Note_off_c, 4, 74, 64
13, 20725, Note_off_c, 4, 72, 64
13, 20729, Note_on_c, 4, 71, 70
13, 20765, Note_on_c, 4, 72, 64
13, 20800, Note_off_c, 4, 71, 64
13, 20846, Note_off_c, 4, 72, 64
13, 20854, Note_on_c, 4, 74, 85
13, 20990, Note_off_c, 4, 74, 64
13, 21092, Note_on_c, 4, 71, 78
13, 21163, Note_off_c, 4, 71, 64
13, 21197, Note_on_c, 4, 67, 62
13, 21284, Note_off_c, 4, 67, 64
13, 21339, Note_on_c, 4, 77, 89
13, 21466, Note_off_c, 4, 77, 64
13, 21591, Note_on_c, 4, 76, 85
13, 21710, Note_off_c, 4, 76, 64
13, 21839, Note_on_c, 4, 81, 82
13, 21933, Note_off_c, 4, 81, 64
13, 21949, Note_on_c, 4, 79, 72
13, 22038, Note_off_c, 4, 79, 64
13, 22066, Note_on_c, 4, 81, 89
13, 22183, Note_off_c, 4, 81, 64
13, 22186, Note_on_c, 4, 77, 85
13, 22264, Note_off_c, 4, 77, 64
13, 22307, Note_on_c, 4, 79, 85
13, 22390, Note_off_c, 4, 79, 64
13, 22561, Note_on_c, 4, 72, 82
13, 22658, Note_off_c, 4, 72, 64
13, 22802, Note_on_c, 4, 71, 80
13, 22900, Note_off_c, 4, 71, 64
13, 23047, Note_on_c, 4, 72, 74
13, 23601, Note_off_c, 4, 72, 64
13, 23745, Note_on_c, 4, 67, 72
13, 23883, Note_off_c, 4, 67, 64
13, 23991, Note_on_c, 4, 71, 76
13, 24062, Note_off_c, 4, 71, 64
13, 24105, Note_on_c, 4, 67, 60
13, 24182, Note_off_c, 4, 67, 64
13, 24232, Note_on_c, 4, 74, 85
13, 24339, Note_off_c, 4, 74, 64
13, 24471, Note_on_c, 4, 77, 85
13, 24586, Note_off_c, 4, 77, 64
13, 24717, Note_on_c, 4, 76, 80
13, 24827, Note_on_c, 4, 74, 68
13, 24838, Note_off_c, 4, 76, 64
13, 24874, Note_off_c, 4, 74, 64
13, 24875, Note_on_c, 4, 76, 62
13, 24912, Note_on_c, 4, 74, 66
13, 24916, Note_off_c, 4, 76, 64
13, 24944, Note_on_c, 4, 76, 66
13, 24948, Note_off_c, 4, 74, 64
13, 24976, Note_off_c, 4, 76, 64
13, 24979, Note_on_c, 4, 74, 68
13, 25004, Note_off_c, 4, 74, 64
13, 25004, Note_on_c, 4, 76, 68
13, 25039, Note_on_c, 4, 74, 70
13, 25050, Note_off_c, 4, 76, 64
13, 25076, Note_on_c, 4, 72, 66
13, 25081, Note_off_c, 4, 74, 64
13, 25120, Note_on_c, 4, 74, 68
13, 25143, Note_off_c, 4, 72, 64
13, 25183, Note_off_c, 4, 74, 64
13, 25197, Note_on_c, 4, 76, 85
13, 25340, Note_off_c, 4, 76, 64
13, 25432, Note_on_c, 4, 72, 80
13, 25498, Note_off_c, 4, 72, 64
13, 25539, Note_on_c, 4, 69, 61
13, 25610, Note_off_c, 4, 69, 64
13, 25671, Note_on_c, 4, 81, 85
13, 25784, Note_off_c, 4, 81, 64
13, 25915, Note_on_c, 4, 80, 80
13, 26024, Note_on_c, 4, 81, 76
13, 26054, Note_off_c, 4, 80, 64
13, 26141, Note_on_c, 4, 83, 78
13, 26149, Note_off_c, 4, 81, 64
13, 26198, Note_off_c, 4, 83, 64
13, 26256, Note_on_c, 4, 80, 66
13, 26324, Note_off_c, 4, 80, 64
13, 26397, Note_on_c, 4, 76, 68
13, 26460, Note_off_c, 4, 76, 64
13, 26522, Note_on_c, 4, 74, 68
13, 26582, Note_off_c, 4, 74, 64
13, 26648, Note_on_c, 4, 72, 85
13, 26782, Note_off_c, 4, 72, 64
13, 26872, Note_on_c, 4, 76, 68
13, 26944, Note_off_c, 4, 76, 64
13, 26992, Note_on_c, 4, 72, 66
13, 27077, Note_off_c, 4, 72, 64
13, 27121, Note_on_c, 4, 81, 85
13, 27206, Note_off_c, 4, 81, 64
13, 27351, Note_on_c, 4, 71, 76
13, 27444, Note_off_c, 4, 71, 64
13, 27475, Note_on_c, 4, 72, 76
13, 27544, Note_off_c, 4, 72, 64
13, 27604, Note_on_c, 4, 74, 78
13, 27870, Note_off_c, 4, 74, 64
13, 27936, Note_on_c, 4, 77, 70
13, 27996, Note_off_c, 4, 77, 64
13, 28078, Note_on_c, 4, 76, 80
13, 28274, Note_off_c, 4, 76, 64
13, 28315, Note_on_c, 4, 74, 68
13, 28399, Note_off_c, 4, 74, 64
13, 28425, Note_on_c, 4, 72, 68
13, 28505, Note_off_c, 4, 72, 64
13, 28546, Note_on_c, 4, 71, 70
13, 28644, Note_off_c, 4, 71, 64
13, 28671, Note_on_c, 4, 72, 68
13, 28750, Note_off_c, 4, 72, 64
13, 28797, Note_on_c, 4, 69, 70
13, 29362, Note_off_c, 4, 69, 64
13, 29508, Note_on_c, 4, 67, 72
13, 29671, Note_off_c, 4, 67, 64
13, 29757, Note_on_c, 4, 72, 80
13, 29823, Note_off_c, 4, 72, 64
13, 29867, Note_on_c, 4, 67, 60
13, 29949, Note_off_c, 4, 67, 64
13, 29998, Note_on_c, 4, 76, 91
13, 30101, Note_off_c, 4, 76, 64
13, 30231, Note_on_c, 4, 69, 76
13, 30329, Note_off_c, 4, 69, 64
13, 30349, Note_on_c, 4, 71, 80
13, 30422, Note_off_c, 4, 71, 64
13, 30465, Note_on_c, 4, 72, 76
13, 30560, Note_on_c, 4, 71, 43
13, 30568, Note_off_c, 4, 72, 64
13, 30594, Note_on_c, 4, 72, 68
13, 30595, Note_off_c, 4, 71, 64
13, 30634, Note_on_c, 4, 71, 60
13, 30636, Note_off_c, 4, 72, 64
13, 30669, Note_off_c, 4, 71, 64
13, 30669, Note_on_c, 4, 72, 70
13, 30696, Note_on_c, 4, 71, 61
13, 30700, Note_off_c, 4, 72, 64
13, 30728, Note_off_c, 4, 71, 64
13, 30730, Note_on_c, 4, 72, 64
13, 30762, Note_on_c, 4, 71, 66
13, 30775, Note_off_c, 4, 72, 64
13, 30813, Note_off_c, 4, 71, 64
13, 30813, Note_on_c, 4, 69, 64
13, 30853, Note_on_c, 4, 71, 68
13, 30880, Note_off_c, 4, 69, 64
13, 30919, Note_off_c, 4, 71, 64
13, 30927, Note_on_c, 4, 72, 82
13, 31062, Note_off_c, 4, 72, 64
13, 31185, Note_on_c, 4, 77, 80
13, 31269, Note_off_c, 4, 77, 64
13, 31308, Note_on_c, 4, 72, 68
13, 31387, Note_off_c, 4, 72, 64
13, 31439, Note_on_c, 4, 81, 89
13, 31531, Note_off_c, 4, 81, 64
13, 31664, Note_on_c, 4, 71, 78
13, 31753, Note_off_c, 4, 71, 64
13, 31782, Note_on_c, 4, 72, 85
13, 31857, Note_off_c, 4, 72, 64
13, 31900, Note_on_c, 4, 74, 78
13, 31988, Note_on_c, 4, 72, 43
13, 31992, Note_off_c, 4, 74, 64
13, 32025, Note_on_c, 4, 74, 64
13, 32027, Note_off_c, 4, 72, 64
13, 32071, Note_on_c, 4, 72, 52
13, 32072, Note_off_c, 4, 74, 64
13, 32101, Note_off_c, 4, 72, 64
13, 32102, Note_on_c, 4, 74, 70
13, 32138, Note_on_c, 4, 72, 60
13, 32141, Note_off_c, 4, 74, 64
13, 32167, Note_on_c, 4, 74, 66
13, 32168, Note_off_c, 4, 72, 64
13, 32201, Note_on_c, 4, 72, 70
13, 32222, Note_off_c, 4, 74, 64
13, 32253, Note_off_c, 4, 72, 64
13, 32253, Note_on_c, 4, 71, 70
13, 32306, Note_on_c, 4, 72, 68
13, 32332, Note_off_c, 4, 71, 64
13, 32382, Note_off_c, 4, 72, 64
13, 32394, Note_on_c, 4, 74, 85
13, 32519, Note_off_c, 4, 74, 64
13, 32625, Note_on_c, 4, 71, 72
13, 32695, Note_off_c, 4, 71, 64
13, 32734, Note_on_c, 4, 67, 59
13, 32813, Note_off_c, 4, 67, 64
13, 32872, Note_on_c, 4, 77, 85
13, 33001, Note_off_c, 4, 77, 64
13, 33113, Note_on_c, 4, 76, 72
13, 33239, Note_off_c, 4, 76, 64
13, 33353, Note_on_c, 4, 81, 85
13, 33453, Note_off_c, 4, 81, 64
13, 33459, Note_on_c, 4, 79, 74
13, 33544, Note_off_c, 4, 79, 64
13, 33580, Note_on_c, 4, 81, 85
13, 33681, Note_off_c, 4, 81, 64
13, 33704, Note_on_c, 4, 77, 78
13, 33781, Note_off_c, 4, 77, 64
13, 33829, Note_on_c, 4, 79, 87
13, 33930, Note_off_c, 4, 79, 64
13, 34067, Note_on_c, 4, 72, 78
13, 34162, Note_off_c, 4, 72, 64
13, 34306, Note_on_c, 4, 71, 78
13, 34414, Note_off_c, 4, 71, 64
13, 34568, Note_on_c, 4, 72, 78
13, 35098, Note_off_c, 4, 72, 64
13, 69831, Note_on_c, 4, 72, 78
13, 69965, Note_off_c, 4, 72, 64
13, 70077, Note_on_c, 4, 76, 82
13, 70154, Note_off_c, 4, 76, 64
13, 70185, Note_on_c, 4, 72, 80
13, 70250, Note_off_c, 4, 72, 64
13, 70308, Note_on_c, 4, 79, 89
13, 70408, Note_off_c, 4, 79, 64
13, 70555, Note_on_c, 4, 81, 87
13, 70675, Note_off_c, 4, 81, 64
13, 70808, Note_on_c, 4, 79, 82
13, 70907, Note_on_c, 4, 77, 59
13, 70919, Note_off_c, 4, 79, 64
13, 70951, Note_on_c, 4, 79, 63
13, 70953, Note_off_c, 4, 77, 64
13, 70994, Note_on_c, 4, 77, 62
13, 70999, Note_off_c, 4, 79, 64
13, 71029, Note_on_c, 4, 79, 63
13, 71037, Note_off_c, 4, 77, 64
13, 71058, Note_on_c, 4, 77, 45
13, 71062, Note_off_c, 4, 79, 64
13, 71086, Note_on_c, 4, 79, 74
13, 71089, Note_off_c, 4, 77, 64
13, 71121, Note_on_c, 4, 77, 68
13, 71140, Note_off_c, 4, 79, 64
13, 71160, Note_on_c, 4, 76, 72
13, 71167, Note_off_c, 4, 77, 64
13, 71208, Note_on_c, 4, 77, 70
13, 71224, Note_off_c, 4, 76, 64
13, 71273, Note_on_c, 4, 79, 80
13, 71279, Note_off_c, 4, 77, 64
13, 71422, Note_off_c, 4, 79, 64
13, 71519, Note_on_c, 4, 76, 82
13, 71593, Note_off_c, 4, 76, 64
13, 71632, Note_on_c, 4, 72, 68
13, 71708, Note_off_c, 4, 72, 64
13, 71758, Note_on_c, 4, 77, 85
13, 71884, Note_off_c, 4, 77, 64
13, 71998, Note_on_c, 4, 74, 87
13, 72084, Note_off_c, 4, 74, 64
13, 72107, Note_on_c, 4, 72, 70
13, 72191, Note_off_c, 4, 72, 64
13, 72230, Note_on_c, 4, 74, 85
13, 72338, Note_off_c, 4, 74, 64
13, 72338, Note_on_c, 4, 76, 78
13, 72412, Note_off_c, 4, 76, 64
13, 72466, Note_on_c, 4, 77, 80
13, 72563, Note_off_c, 4, 77, 64
13, 72587, Note_on_c, 4, 74, 74
13, 72672, Note_off_c, 4, 74, 64
13, 72717, Note_on_c, 4, 76, 89
13, 72832, Note_off_c, 4, 76, 64
13, 72958, Note_on_c, 4, 79, 85
13, 73043, Note_off_c, 4, 79, 64
13, 73066, Note_on_c, 4, 76, 68
13, 73152, Note_off_c, 4, 76, 64
13, 73197, Note_on_c, 4, 84, 89
13, 73287, Note_off_c, 4, 84, 64
13, 73449, Note_on_c, 4, 79, 85
13, 73513, Note_on_c, 4, 78, 62
13, 73536, Note_off_c, 4, 79, 64
13, 73624, Note_off_c, 4, 78, 64
13, 73696, Note_on_c, 4, 76, 78
13, 73805, Note_on_c, 4, 74, 68
13, 73821, Note_off_c, 4, 76, 64
13, 73883, Note_off_c, 4, 74, 64
13, 73924, Note_on_c, 4, 72, 80
13, 74027, Note_on_c, 4, 71, 66
13, 74040, Note_off_c, 4, 72, 64
13, 74118, Note_off_c, 4, 71, 64
13, 74161, Note_on_c, 4, 76, 89
13, 74270, Note_off_c, 4, 76, 64
13, 74392, Note_on_c, 4, 71, 78
13, 74496, Note_on_c, 4, 69, 49
13, 74500, Note_off_c, 4, 71, 64
13, 74535, Note_on_c, 4, 71, 64
13, 74537, Note_off_c, 4, 69, 64
13, 74572, Note_off_c, 4, 71, 64
13, 74572, Note_on_c, 4, 69, 64
13, 74600, Note_off_c, 4, 69, 64
13, 74600, Note_on_c, 4, 71, 76
13, 74631, Note_on_c, 4, 69, 82
13, 74647, Note_off_c, 4, 71, 64
13, 74732, Note_off_c, 4, 69, 64
13, 74743, Note_on_c, 4, 67, 80
13, 74825, Note_off_c, 4, 67, 64
13, 74888, Note_on_c, 4, 67, 74
13, 75422, Note_off_c, 4, 67, 64
13, 75599, Note_on_c, 4, 72, 89
13, 75723, Note_off_c, 4, 72, 64
13, 75840, Note_on_c, 4, 76, 80
13, 75922, Note_off_c, 4, 76, 64
13, 75951, Note_on_c, 4, 72, 76
13, 76036, Note_off_c, 4, 72, 64
13, 76086, Note_on_c, 4, 79, 95
13, 76186, Note_off_c, 4, 79, 64
13, 76327, Note_on_c, 4, 81, 87
13, 76442, Note_off_c, 4, 81, 64
13, 76560, Note_on_c, 4, 79, 78
13, 76665, Note_on_c, 4, 77, 68
13, 76674, Note_off_c, 4, 79, 64
13, 76715, Note_off_c, 4, 77, 64
13, 76716, Note_on_c, 4, 79, 68
13, 76756, Note_on_c, 4, 77, 59
13, 76759, Note_off_c, 4, 79, 64
13, 76788, Note_on_c, 4, 79, 66
13, 76797, Note_off_c, 4, 77, 64
13, 76822, Note_off_c, 4, 79, 64
13, 76823, Note_on_c, 4, 77, 61
13, 76853, Note_on_c, 4, 79, 70
13, 76856, Note_off_c, 4, 77, 64
13, 76883, Note_on_c, 4, 77, 68
13, 76903, Note_off_c, 4, 79, 64
13, 76927, Note_on_c, 4, 76, 80
13, 76930, Note_off_c, 4, 77, 64
13, 76973, Note_on_c, 4, 77, 60
13, 76990, Note_off_c, 4, 76, 64
13, 77041, Note_off_c, 4, 77, 64
13, 77044, Note_on_c, 4, 79, 82
13, 77196, Note_off_c, 4, 79, 64
13, 77288, Note_on_c, 4, 76, 85
13, 77372, Note_off_c, 4, 76, 64
13, 77405, Note_on_c, 4, 72, 70
13, 77486, Note_off_c, 4, 72, 64
13, 77527, Note_on_c, 4, 77, 89
13, 77643, Note_off_c, 4, 77, 64
13, 77766, Note_on_c, 4, 74, 80
13, 77845, Note_off_c, 4, 74, 64
13, 77873, Note_on_c, 4, 72, 80
13, 77966, Note_off_c, 4, 72, 64
13, 77998, Note_on_c, 4, 74, 85
13, 78088, Note_off_c, 4, 74, 64
13, 78110, Note_on_c, 4, 76, 80
13, 78194, Note_off_c, 4, 76, 64
13, 78233, Note_on_c, 4, 77, 82
13, 78317, Note_off_c, 4, 77, 64
13, 78346, Note_on_c, 4, 74, 68
13, 78425, Note_off_c, 4, 74, 64
13, 78486, Note_on_c, 4, 76, 89
13, 78599, Note_off_c, 4, 76, 64
13, 78716, Note_on_c, 4, 79, 87
13, 78799, Note_off_c, 4, 79, 64
13, 78826, Note_on_c, 4, 76, 80
13, 78915, Note_off_c, 4, 76, 64
13, 78952, Note_on_c, 4, 84, 91
13, 79042, Note_off_c, 4, 84, 64
13, 79198, Note_on_c, 4, 79, 89
13, 79272, Note_on_c, 4, 78, 57
13, 79295, Note_off_c, 4, 79, 64
13, 79377, Note_off_c, 4, 78, 64
13, 79437, Note_on_c, 4, 76, 64
13, 79544, Note_on_c, 4, 74, 72
13, 79553, Note_off_c, 4, 76, 64
13, 79615, Note_off_c, 4, 74, 64
13, 79672, Note_on_c, 4, 72, 82
13, 79779, Note_on_c, 4, 71, 60
13, 79796, Note_off_c, 4, 72, 64
13, 79855, Note_off_c, 4, 71, 64
13, 79916, Note_on_c, 4, 76, 89
13, 80014, Note_off_c, 4, 76, 64
13, 80144, Note_on_c, 4, 71, 80
13, 80235, Note_on_c, 4, 69, 57
13, 80241, Note_off_c, 4, 71, 64
13, 80273, Note_off_c, 4, 69, 64
13, 80276, Note_on_c, 4, 71, 64
13, 80315, Note_on_c, 4, 69, 64
13, 80316, Note_off_c, 4, 71, 64
13, 80347, Note_on_c, 4, 71, 70
13, 80350, Note_off_c, 4, 69, 64
13, 80377, Note_on_c, 4, 69, 72
13, 80389, Note_off_c, 4, 71, 64
13, 80478, Note_off_c, 4, 69, 64
13, 80497, Note_on_c, 4, 67, 70
13, 80576, Note_off_c, 4, 67, 64
13, 80647, Note_on_c, 4, 67, 82
13, 81167, Note_off_c, 4, 67, 64
13, 81167, End_track
14, 0, Start_track
14, 0, Title_t, "Oboe2"
14, 0, Program_c, 5, 68
14, 0, Control_c, 5, 7, 100
14, 12247, Note_on_c, 5, 67, 82
14, 12371, Note_off_c, 5, 67, 64
14, 12480, Note_on_c, 5, 71, 78
14, 12554, Note_off_c, 5, 71, 64
14, 12594, Note_on_c, 5, 67, 64
14, 12662, Note_off_c, 5, 67, 64
14, 12719, Note_on_c, 5, 74, 85
14, 12818, Note_off_c, 5, 74, 64
14, 12955, Note_on_c, 5, 77, 85
14, 13072, Note_off_c, 5, 77, 64
14, 13191, Note_on_c, 5, 76, 70
14, 13290, Note_on_c, 5, 74, 54
14, 13298, Note_off_c, 5, 76, 64
14, 13333, Note_off_c, 5, 74, 64
14, 13340, Note_on_c, 5, 76, 60
14, 13379, Note_off_c, 5, 76, 64
14, 13379, Note_on_c, 5, 74, 60
14, 13412, Note_on_c, 5, 76, 64
14, 13414, Note_off_c, 5, 74, 64
14, 13443, Note_off_c, 5, 76, 64
14, 13454, Note_on_c, 5, 74, 47
14, 13470, Note_off_c, 5, 74, 64
14, 13475, Note_on_c, 5, 76, 66
14, 13509, Note_on_c, 5, 74, 68
14, 13520, Note_off_c, 5, 76, 64
14, 13547, Note_off_c, 5, 74, 64
14, 13551, Note_on_c, 5, 72, 64
14, 13592, Note_on_c, 5, 74, 62
14, 13621, Note_off_c, 5, 72, 64
14, 13660, Note_off_c, 5, 74, 64
14, 13669, Note_on_c, 5, 76, 80
14, 13797, Note_off_c, 5, 76, 64
14, 13903, Note_on_c, 5, 72, 76
14, 13975, Note_off_c, 5, 72, 64
14, 14016, Note_on_c, 5, 69, 56
14, 14084, Note_off_c, 5, 69, 64
14, 14149, Note_on_c, 5, 81, 76
14, 14253, Note_off_c, 5, 81, 64
14, 14392, Note_on_c, 5, 80, 80
14, 14509, Note_on_c, 5, 81, 68
14, 14536, Note_off_c, 5, 80, 64
14, 14627, Note_on_c, 5, 83, 70
14, 14633, Note_off_c, 5, 81, 64
14, 14689, Note_off_c, 5, 83, 64
14, 14740, Note_on_c, 5, 80, 62
14, 14803, Note_off_c, 5, 80, 64
14, 14875, Note_on_c, 5, 76, 64
14, 14944, Note_off_c, 5, 76, 64
14, 14996, Note_on_c, 5, 74, 70
14, 15056, Note_off_c, 5, 74, 64
14, 15129, Note_on_c, 5, 72, 72
14, 15248, Note_off_c, 5, 72, 64
14, 15361, Note_on_c, 5, 76, 68
14, 15428, Note_off_c, 5, 76, 64
14, 15469, Note_on_c, 5, 72, 59
14, 15537, Note_off_c, 5, 72, 64
14, 15602, Note_on_c, 5, 81, 82
14, 15700, Note_off_c, 5, 81, 64
14, 15833, Note_on_c, 5, 71, 72
14, 15919, Note_off_c, 5, 71, 64
14, 15948, Note_on_c, 5, 72, 66
14, 16016, Note_off_c, 5, 72, 64
14, 16076, Note_on_c, 5, 74, 66
14, 16362, Note_off_c, 5, 74, 64
14, 16430, Note_on_c, 5, 77, 76
14, 16493, Note_off_c, 5, 77, 64
14, 16556, Note_on_c, 5, 76, 76
14, 16735, Note_off_c, 5, 76, 64
14, 16786, Note_on_c, 5, 74, 70
14, 16881, Note_off_c, 5, 74, 64
14, 16893, Note_on_c, 5, 72, 66
14, 16965, Note_off_c, 5, 72, 64
14, 17022, Note_on_c, 5, 71, 70
14, 17137, Note_off_c, 5, 71, 64
14, 17137, Note_on_c, 5, 72, 66
14, 17217, Note_off_c, 5, 72, 64
14, 17275, Note_on_c, 5, 69, 70
14, 17893, Note_off_c, 5, 69, 64
14, 17990, Note_on_c, 5, 67, 70
14, 18136, Note_off_c, 5, 67, 64
14, 18236, Note_on_c, 5, 72, 76
14, 18310, Note_off_c, 5, 72, 64
14, 18342, Note_on_c, 5, 67, 68
14, 18423, Note_off_c, 5, 67, 64
14, 18468, Note_on_c, 5, 76, 85
14, 18592, Note_off_c, 5, 76, 64
14, 18706, Note_on_c, 5, 69, 72
14, 18799, Note_off_c, 5, 69, 64
14, 18827, Note_on_c, 5, 71, 76
14, 18899, Note_off_c, 5, 71, 64
14, 18944, Note_on_c, 5, 72, 66
14, 19040, Note_on_c, 5, 71, 51
14, 19050, Note_off_c, 5, 72, 64
14, 19080, Note_off_c, 5, 71, 64
14, 19084, Note_on_c, 5, 72, 58
14, 19123, Note_off_c, 5, 72, 64
14, 19123, Note_on_c, 5, 71, 57
14, 19157, Note_off_c, 5, 71, 64
14, 19161, Note_on_c, 5, 72, 62
14, 19185, Note_off_c, 5, 72, 64
14, 19189, Note_on_c, 5, 71, 57
14, 19216, Note_off_c, 5, 71, 64
14, 19221, Note_on_c, 5, 72, 66
14, 19252, Note_on_c, 5, 71, 60
14, 19268, Note_off_c, 5, 72, 64
14, 19300, Note_off_c, 5, 71, 64
14, 19306, Note_on_c, 5, 69, 68
14, 19354, Note_on_c, 5, 71, 52
14, 19380, Note_off_c, 5, 69, 64
14, 19415, Note_off_c, 5, 71, 64
14, 19423, Note_on_c, 5, 72, 78
14, 19556, Note_off_c, 5, 72, 64
14, 19665, Note_on_c, 5, 77, 70
14, 19740, Note_off_c, 5, 77, 64
14, 19776, Note_on_c, 5, 72, 64
14, 19854, Note_off_c, 5, 72, 64
14, 19913, Note_on_c, 5, 81, 82
14, 20015, Note_off_c, 5, 81, 64
14, 20144, Note_on_c, 5, 71, 74
14, 20244, Note_off_c, 5, 71, 64
14, 20261, Note_on_c, 5, 72, 74
14, 20337, Note_off_c, 5, 72, 64
14, 20381, Note_on_c, 5, 74, 66
14, 20472, Note_on_c, 5, 72, 51
14, 20484, Note_off_c, 5, 74, 64
14, 20514, Note_off_c, 5, 72, 64
14, 20519, Note_on_c, 5, 74, 59
14, 20557, Note_off_c, 5, 74, 64
14, 20558, Note_on_c, 5, 72, 58
14, 20591, Note_off_c, 5, 72, 64
14, 20597, Note_on_c, 5, 74, 64
14, 20626, Note_off_c, 5, 74, 64
14, 20626, Note_on_c, 5, 72, 58
14, 20654, Note_off_c, 5, 72, 64
14, 20656, Note_on_c, 5, 74, 61
14, 20689, Note_on_c, 5, 72, 63
14, 20700, Note_off_c, 5, 74, 64
14, 20753, Note_on_c, 5, 71, 57
14, 20771, Note_off_c, 5, 72, 64
14, 20808, Note_on_c, 5, 72, 64
14, 20830, Note_off_c, 5, 71, 64
14, 20866, Note_off_c, 5, 72, 64
14, 20878, Note_on_c, 5, 74, 74
14, 21014, Note_off_c, 5, 74, 64
14, 21101, Note_on_c, 5, 71, 80
14, 21178, Note_off_c, 5, 71, 64
14, 21214, Note_on_c, 5, 67, 61
14, 21307, Note_off_c, 5, 67, 64
14, 21350, Note_on_c, 5, 77, 85
14, 21492, Note_off_c, 5, 77, 64
14, 21595, Note_on_c, 5, 76, 60
14, 21738, Note_off_c, 5, 76, 64
14, 21839, Note_on_c, 5, 81, 76
14, 21928, Note_off_c, 5, 81, 64
14, 21948, Note_on_c, 5, 79, 68
14, 22038, Note_off_c, 5, 79, 64
14, 22068, Note_on_c, 5, 81, 80
14, 22171, Note_off_c, 5, 81, 64
14, 22186, Note_on_c, 5, 77, 76
14, 22265, Note_off_c, 5, 77, 64
14, 22311, Note_on_c, 5, 79, 82
14, 22398, Note_off_c, 5, 79, 64
14, 22555, Note_on_c, 5, 72, 66
14, 22648, Note_off_c, 5, 72, 64
14, 22800, Note_on_c, 5, 71, 80
14, 22892, Note_off_c, 5, 71, 64
14, 23049, Note_on_c, 5, 72, 61
14, 23601, Note_off_c, 5, 72, 64
14, 23741, Note_on_c, 5, 67, 68
14, 23879, Note_off_c, 5, 67, 64
14, 23996, Note_on_c, 5, 71, 74
14, 24076, Note_off_c, 5, 71, 64
14, 24112, Note_on_c, 5, 67, 62
14, 24183, Note_off_c, 5, 67, 64
14, 24237, Note_on_c, 5, 74, 85
14, 24342, Note_off_c, 5, 74, 64
14, 24484, Note_on_c, 5, 77, 91
14, 24600, Note_off_c, 5, 77, 64
14, 24715, Note_on_c, 5, 76, 70
14, 24818, Note_on_c, 5, 74, 60
14, 24824, Note_off_c, 5, 76, 64
14, 24863, Note_off_c, 5, 74, 64
14, 24867, Note_on_c, 5, 76, 61
14, 24905, Note_on_c, 5, 74, 66
14, 24908, Note_off_c, 5, 76, 64
14, 24948, Note_off_c, 5, 74, 64
14, 24948, Note_on_c, 5, 76, 64
14, 24976, Note_on_c, 5, 74, 68
14, 24979, Note_off_c, 5, 76, 64
14, 25008, Note_off_c, 5, 74, 64
14, 25008, Note_on_c, 5, 76, 76
14, 25046, Note_on_c, 5, 74, 64
14, 25057, Note_off_c, 5, 76, 64
14, 25089, Note_on_c, 5, 72, 68
14, 25094, Note_off_c, 5, 74, 64
14, 25135, Note_on_c, 5, 74, 62
14, 25154, Note_off_c, 5, 72, 64
14, 25197, Note_off_c, 5, 74, 64
14, 25201, Note_on_c, 5, 76, 82
14, 25350, Note_off_c, 5, 76, 64
14, 25444, Note_on_c, 5, 72, 70
14, 25511, Note_off_c, 5, 72, 64
14, 25545, Note_on_c, 5, 69, 57
14, 25627, Note_off_c, 5, 69, 64
14, 25675, Note_on_c, 5, 81, 82
14, 25788, Note_off_c, 5, 81, 64
14, 25918, Note_on_c, 5, 80, 70
14, 26030, Note_on_c, 5, 81, 68
14, 26057, Note_off_c, 5, 80, 64
14, 26152, Note_on_c, 5, 83, 72
14, 26159, Note_off_c, 5, 81, 64
14, 26205, Note_off_c, 5, 83, 64
14, 26274, Note_on_c, 5, 80, 59
14, 26327, Note_off_c, 5, 80, 64
14, 26395, Note_on_c, 5, 76, 61
14, 26449, Note_off_c, 5, 76, 64
14, 26520, Note_on_c, 5, 74, 58
14, 26580, Note_off_c, 5, 74, 64
14, 26643, Note_on_c, 5, 72, 63
14, 26791, Note_off_c, 5, 72, 64
14, 26878, Note_on_c, 5, 76, 68
14, 26944, Note_off_c, 5, 76, 64
14, 26977, Note_on_c, 5, 72, 59
14, 27050, Note_off_c, 5, 72, 64
14, 27114, Note_on_c, 5, 81, 82
14, 27207, Note_off_c, 5, 81, 64
14, 27362, Note_on_c, 5, 71, 64
14, 27441, Note_off_c, 5, 71, 64
14, 27476, Note_on_c, 5, 72, 78
14, 27546, Note_off_c, 5, 72, 64
14, 27601, Note_on_c, 5, 74, 74
14, 27890, Note_off_c, 5, 74, 64
14, 27945, Note_on_c, 5, 77, 82
14, 28012, Note_off_c, 5, 77, 64
14, 28074, Note_on_c, 5, 76, 78
14, 28258, Note_off_c, 5, 76, 64
14, 28303, Note_on_c, 5, 74, 70
14, 28398, Note_off_c, 5, 74, 64
14, 28411, Note_on_c, 5, 72, 66
14, 28481, Note_off_c, 5, 72, 64
14, 28538, Note_on_c, 5, 71, 66
14, 28645, Note_off_c, 5, 71, 64
14, 28656, Note_on_c, 5, 72, 68
14, 28738, Note_off_c, 5, 72, 64
14, 28788, Note_on_c, 5, 69, 57
14, 29387, Note_off_c, 5, 69, 64
14, 29509, Note_on_c, 5, 67, 66
14, 29664, Note_off_c, 5, 67, 64
14, 29755, Note_on_c, 5, 72, 72
14, 29824, Note_off_c, 5, 72, 64
14, 29859, Note_on_c, 5, 67, 60
14, 29940, Note_off_c, 5, 67, 64
14, 29988, Note_on_c, 5, 76, 82
14, 30114, Note_off_c, 5, 76, 64
14, 30237, Note_on_c, 5, 69, 68
14, 30336, Note_off_c, 5, 69, 64
14, 30355, Note_on_c, 5, 71, 80
14, 30425, Note_off_c, 5, 71, 64
14, 30469, Note_on_c, 5, 72, 70
14, 30562, Note_on_c, 5, 71, 49
14, 30571, Note_off_c, 5, 72, 64
14, 30606, Note_off_c, 5, 71, 64
14, 30613, Note_on_c, 5, 72, 59
14, 30650, Note_on_c, 5, 71, 60
14, 30655, Note_off_c, 5, 72, 64
14, 30688, Note_off_c, 5, 71, 64
14, 30689, Note_on_c, 5, 72, 63
14, 30723, Note_on_c, 5, 71, 58
14, 30726, Note_off_c, 5, 72, 64
14, 30755, Note_off_c, 5, 71, 64
14, 30758, Note_on_c, 5, 72, 64
14, 30792, Note_on_c, 5, 71, 61
14, 30809, Note_off_c, 5, 72, 64
14, 30837, Note_off_c, 5, 71, 64
14, 30840, Note_on_c, 5, 69, 63
14, 30882, Note_on_c, 5, 71, 61
14, 30906, Note_off_c, 5, 69, 64
14, 30931, Note_off_c, 5, 71, 64
14, 30948, Note_on_c, 5, 72, 80
14, 31086, Note_off_c, 5, 72, 64
14, 31185, Note_on_c, 5, 77, 70
14, 31262, Note_off_c, 5, 77, 64
14, 31302, Note_on_c, 5, 72, 66
14, 31383, Note_off_c, 5, 72, 64
14, 31440, Note_on_c, 5, 81, 87
14, 31547, Note_off_c, 5, 81, 64
14, 31671, Note_on_c, 5, 71, 76
14, 31761, Note_off_c, 5, 71, 64
14, 31789, Note_on_c, 5, 72, 80
14, 31863, Note_off_c, 5, 72, 64
14, 31902, Note_on_c, 5, 74, 72
14, 31986, Note_on_c, 5, 72, 53
14, 32004, Note_off_c, 5, 74, 64
14, 32028, Note_off_c, 5, 72, 64
14, 32033, Note_on_c, 5, 74, 57
14, 32072, Note_off_c, 5, 74, 64
14, 32072, Note_on_c, 5, 72, 60
14, 32109, Note_off_c, 5, 72, 64
14, 32110, Note_on_c, 5, 74, 64
14, 32137, Note_off_c, 5, 74, 64
14, 32138, Note_on_c, 5, 72, 60
14, 32169, Note_off_c, 5, 72, 64
14, 32175, Note_on_c, 5, 74, 68
14, 32200, Note_on_c, 5, 72, 62
14, 32222, Note_off_c, 5, 74, 64
14, 32244, Note_off_c, 5, 72, 64
14, 32246, Note_on_c, 5, 71, 70
14, 32285, Note_on_c, 5, 72, 66
14, 32310, Note_off_c, 5, 71, 64
14, 32353, Note_off_c, 5, 72, 64
14, 32367, Note_on_c, 5, 74, 68
14, 32533, Note_off_c, 5, 74, 64
14, 32626, Note_on_c, 5, 71, 70
14, 32699, Note_off_c, 5, 71, 64
14, 32731, Note_on_c, 5, 67, 66
14, 32828, Note_off_c, 5, 67, 64
14, 32869, Note_on_c, 5, 77, 85
14, 33001, Note_off_c, 5, 77, 64
14, 33110, Note_on_c, 5, 76, 64
14, 33223, Note_off_c, 5, 76, 64
14, 33357, Note_on_c, 5, 81, 70
14, 33453, Note_off_c, 5, 81, 64
14, 33463, Note_on_c, 5, 79, 72
14, 33559, Note_off_c, 5, 79, 64
14, 33587, Note_on_c, 5, 81, 85
14, 33691, Note_off_c, 5, 81, 64
14, 33706, Note_on_c, 5, 77, 74
14, 33787, Note_off_c, 5, 77, 64
14, 33829, Note_on_c, 5, 79, 85
14, 33931, Note_off_c, 5, 79, 64
14, 34074, Note_on_c, 5, 72, 66
14, 34164, Note_off_c, 5, 72, 64
14, 34317, Note_on_c, 5, 71, 72
14, 34415, Note_off_c, 5, 71, 64
14, 34568, Note_on_c, 5, 72, 66
14, 35195, Note_off_c, 5, 72, 64
14, 69844, Note_on_c, 5, 72, 80
14, 69980, Note_off_c, 5, 72, 64
14, 70074, Note_on_c, 5, 76, 85
14, 70154, Note_off_c, 5, 76, 64
14, 70196, Note_on_c, 5, 72, 74
14, 70271, Note_off_c, 5, 72, 64
14, 70325, Note_on_c, 5, 79, 87
14, 70427, Note_off_c, 5, 79, 64
14, 70558, Note_on_c, 5, 81, 89
14, 70677, Note_off_c, 5, 81, 64
14, 70802, Note_on_c, 5, 79, 82
14, 70910, Note_on_c, 5, 77, 57
14, 70919, Note_off_c, 5, 79, 64
14, 70956, Note_off_c, 5, 77, 64
14, 70957, Note_on_c, 5, 79, 64
14, 70994, Note_on_c, 5, 77, 60
14, 71000, Note_off_c, 5, 79, 64
14, 71029, Note_on_c, 5, 79, 62
14, 71035, Note_off_c, 5, 77, 64
14, 71048, Note_on_c, 5, 77, 45
14, 71056, Note_off_c, 5, 79, 64
14, 71078, Note_on_c, 5, 79, 72
14, 71083, Note_off_c, 5, 77, 64
14, 71113, Note_on_c, 5, 77, 63
14, 71126, Note_off_c, 5, 79, 64
14, 71156, Note_on_c, 5, 76, 66
14, 71161, Note_off_c, 5, 77, 64
14, 71204, Note_on_c, 5, 77, 66
14, 71227, Note_off_c, 5, 76, 64
14, 71283, Note_off_c, 5, 77, 64
14, 71283, Note_on_c, 5, 79, 87
14, 71430, Note_off_c, 5, 79, 64
14, 71523, Note_on_c, 5, 76, 85
14, 71606, Note_off_c, 5, 76, 64
14, 71638, Note_on_c, 5, 72, 78
14, 71705, Note_off_c, 5, 72, 64
14, 71757, Note_on_c, 5, 77, 85
14, 71876, Note_off_c, 5, 77, 64
14, 71996, Note_on_c, 5, 74, 80
14, 72084, Note_off_c, 5, 74, 64
14, 72106, Note_on_c, 5, 72, 68
14, 72204, Note_off_c, 5, 72, 64
14, 72232, Note_on_c, 5, 74, 87
14, 72345, Note_off_c, 5, 74, 64
14, 72347, Note_on_c, 5, 76, 82
14, 72439, Note_off_c, 5, 76, 64
14, 72470, Note_on_c, 5, 77, 82
14, 72566, Note_off_c, 5, 77, 64
14, 72587, Note_on_c, 5, 74, 66
14, 72664, Note_off_c, 5, 74, 64
14, 72720, Note_on_c, 5, 76, 89
14, 72842, Note_off_c, 5, 76, 64
14, 72962, Note_on_c, 5, 79, 82
14, 73047, Note_off_c, 5, 79, 64
14, 73071, Note_on_c, 5, 76, 68
14, 73154, Note_off_c, 5, 76, 64
14, 73193, Note_on_c, 5, 84, 89
14, 73293, Note_off_c, 5, 84, 64
14, 73438, Note_on_c, 5, 79, 85
14, 73504, Note_on_c, 5, 78, 60
14, 73529, Note_off_c, 5, 79, 64
14, 73633, Note_off_c, 5, 78, 64
14, 73688, Note_on_c, 5, 76, 68
14, 73794, Note_on_c, 5, 74, 66
14, 73803, Note_off_c, 5, 76, 64
14, 73879, Note_off_c, 5, 74, 64
14, 73911, Note_on_c, 5, 72, 76
14, 74017, Note_on_c, 5, 71, 68
14, 74033, Note_off_c, 5, 72, 64
14, 74104, Note_off_c, 5, 71, 64
14, 74153, Note_on_c, 5, 76, 87
14, 74279, Note_off_c, 5, 76, 64
14, 74391, Note_on_c, 5, 71, 76
14, 74490, Note_on_c, 5, 69, 53
14, 74496, Note_off_c, 5, 71, 64
14, 74531, Note_off_c, 5, 69, 64
14, 74531, Note_on_c, 5, 71, 66
14, 74575, Note_on_c, 5, 69, 66
14, 74576, Note_off_c, 5, 71, 64
14, 74607, Note_on_c, 5, 71, 72
14, 74611, Note_off_c, 5, 69, 64
14, 74637, Note_on_c, 5, 69, 72
14, 74650, Note_off_c, 5, 71, 64
14, 74748, Note_off_c, 5, 69, 64
14, 74754, Note_on_c, 5, 67, 82
14, 74825, Note_off_c, 5, 67, 64
14, 74893, Note_on_c, 5, 67, 80
14, 75428, Note_off_c, 5, 67, 64
14, 75600, Note_on_c, 5, 72, 87
14, 75727, Note_off_c, 5, 72, 64
14, 75834, Note_on_c, 5, 76, 82
14, 75922, Note_off_c, 5, 76, 64
14, 75947, Note_on_c, 5, 72, 72
14, 76026, Note_off_c, 5, 72, 64
14, 76076, Note_on_c, 5, 79, 87
14, 76189, Note_off_c, 5, 79, 64
14, 76311, Note_on_c, 5, 81, 82
14, 76451, Note_off_c, 5, 81, 64
14, 76565, Note_on_c, 5, 79, 78
14, 76669, Note_on_c, 5, 77, 55
14, 76682, Note_off_c, 5, 79, 64
14, 76715, Note_on_c, 5, 79, 63
14, 76717, Note_off_c, 5, 77, 64
14, 76756, Note_on_c, 5, 77, 60
14, 76762, Note_off_c, 5, 79, 64
14, 76791, Note_off_c, 5, 77, 64
14, 76794, Note_on_c, 5, 79, 60
14, 76822, Note_on_c, 5, 77, 61
14, 76829, Note_off_c, 5, 79, 64
14, 76857, Note_off_c, 5, 77, 64
14, 76858, Note_on_c, 5, 79, 66
14, 76888, Note_on_c, 5, 77, 64
14, 76904, Note_off_c, 5, 79, 64
14, 76931, Note_on_c, 5, 76, 64
14, 76936, Note_off_c, 5, 77, 64
14, 76976, Note_on_c, 5, 77, 63
14, 77000, Note_off_c, 5, 76, 64
14, 77048, Note_off_c, 5, 77, 64
14, 77052, Note_on_c, 5, 79, 82
14, 77192, Note_off_c, 5, 79, 64
14, 77279, Note_on_c, 5, 76, 80
14, 77360, Note_off_c, 5, 76, 64
14, 77394, Note_on_c, 5, 72, 68
14, 77477, Note_off_c, 5, 72, 64
14, 77521, Note_on_c, 5, 77, 85
14, 77650, Note_off_c, 5, 77, 64
14, 77756, Note_on_c, 5, 74, 80
14, 77839, Note_off_c, 5, 74, 64
14, 77865, Note_on_c, 5, 72, 78
14, 77958, Note_off_c, 5, 72, 64
14, 77991, Note_on_c, 5, 74, 82
14, 78092, Note_off_c, 5, 74, 64
14, 78106, Note_on_c, 5, 76, 76
14, 78185, Note_off_c, 5, 76, 64
14, 78235, Note_on_c, 5, 77, 85
14, 78322, Note_off_c, 5, 77, 64
14, 78352, Note_on_c, 5, 74, 64
14, 78428, Note_off_c, 5, 74, 64
14, 78478, Note_on_c, 5, 76, 87
14, 78593, Note_off_c, 5, 76, 64
14, 78718, Note_on_c, 5, 79, 85
14, 78795, Note_off_c, 5, 79, 64
14, 78822, Note_on_c, 5, 76, 66
14, 78911, Note_off_c, 5, 76, 64
14, 78950, Note_on_c, 5, 84, 89
14, 79049, Note_off_c, 5, 84, 64
14, 79205, Note_on_c, 5, 79, 89
14, 79294, Note_on_c, 5, 78, 78
14, 79314, Note_off_c, 5, 79, 64
14, 79365, Note_off_c, 5, 78, 64
14, 79459, Note_on_c, 5, 76, 80
14, 79564, Note_on_c, 5, 74, 72
14, 79576, Note_off_c, 5, 76, 64
14, 79643, Note_off_c, 5, 74, 64
14, 79681, Note_on_c, 5, 72, 66
14, 79783, Note_on_c, 5, 71, 68
14, 79799, Note_off_c, 5, 72, 64
14, 79878, Note_off_c, 5, 71, 64
14, 79921, Note_on_c, 5, 76, 89
14, 80038, Note_off_c, 5, 76, 64
14, 80148, Note_on_c, 5, 71, 72
14, 80249, Note_on_c, 5, 69, 57
14, 80257, Note_off_c, 5, 71, 64
14, 80291, Note_off_c, 5, 69, 64
14, 80291, Note_on_c, 5, 71, 64
14, 80329, Note_on_c, 5, 69, 63
14, 80333, Note_off_c, 5, 71, 64
14, 80364, Note_off_c, 5, 69, 64
14, 80364, Note_on_c, 5, 71, 74
14, 80394, Note_on_c, 5, 69, 78
14, 80402, Note_off_c, 5, 71, 64
14, 80498, Note_off_c, 5, 69, 64
14, 80506, Note_on_c, 5, 67, 78
14, 80583, Note_off_c, 5, 67, 64
14, 80647, Note_on_c, 5, 67, 82
14, 81165, Note_off_c, 5, 67, 64
14, 81165, End_track
15, 0, Start_track
15, 0, Title_t, "Bassoon"
15, 0, Program_c, 6, 70
15, 0, Control_c, 6, 7, 100
15, 12246, Note_on_c, 6, 55, 72
15, 12344, Note_off_c, 6, 55, 64
15, 12469, Note_on_c, 6, 50, 66
15, 12571, Note_off_c, 6, 50, 64
15, 12710, Note_on_c, 6, 47, 66
15, 12814, Note_off_c, 6, 47, 64
15, 12949, Note_on_c, 6, 44, 58
15, 13079, Note_off_c, 6, 44, 64
15, 13184, Note_on_c, 6, 47, 80
15, 13267, Note_off_c, 6, 47, 64
15, 13291, Note_on_c, 6, 44, 56
15, 13381, Note_off_c, 6, 44, 64
15, 13418, Note_on_c, 6, 52, 82
15, 13523, Note_off_c, 6, 52, 64
15, 13668, Note_on_c, 6, 48, 72
15, 13767, Note_off_c, 6, 48, 64
15, 13904, Note_on_c, 6, 53, 66
15, 14025, Note_off_c, 6, 53, 64
15, 14150, Note_on_c, 6, 50, 68
15, 14238, Note_off_c, 6, 50, 64
15, 14381, Note_on_c, 6, 52, 74
15, 14498, Note_off_c, 6, 52, 64
15, 14625, Note_on_c, 6, 56, 68
15, 14703, Note_off_c, 6, 56, 64
15, 14735, Note_on_c, 6, 52, 66
15, 14838, Note_off_c, 6, 52, 64
15, 14860, Note_on_c, 6, 64, 82
15, 14965, Note_off_c, 6, 64, 64
15, 15114, Note_on_c, 6, 57, 78
15, 15219, Note_off_c, 6, 57, 64
15, 15350, Note_on_c, 6, 45, 72
15, 15458, Note_off_c, 6, 45, 64
15, 15590, Note_on_c, 6, 48, 66
15, 15692, Note_off_c, 6, 48, 64
15, 15830, Note_on_c, 6, 50, 76
15, 15940, Note_off_c, 6, 50, 64
15, 16064, Note_on_c, 6, 53, 70
15, 16137, Note_off_c, 6, 53, 64
15, 16164, Note_on_c, 6, 50, 70
15, 16237, Note_off_c, 6, 50, 64
15, 16294, Note_on_c, 6, 56, 80
15, 16399, Note_off_c, 6, 56, 64
15, 16541, Note_on_c, 6, 57, 80
15, 16658, Note_off_c, 6, 57, 64
15, 16787, Note_on_c, 6, 50, 64
15, 16885, Note_off_c, 6, 50, 64
15, 17022, Note_on_c, 6, 52, 66
15, 17123, Note_off_c, 6, 52, 64
15, 17262, Note_on_c, 6, 45, 68
15, 17387, Note_off_c, 6, 45, 64
15, 17493, Note_on_c, 6, 48, 76
15, 17571, Note_off_c, 6, 48, 64
15, 17603, Note_on_c, 6, 45, 63
15, 17696, Note_off_c, 6, 45, 64
15, 17743, Note_on_c, 6, 53, 85
15, 17859, Note_off_c, 6, 53, 64
15, 17985, Note_on_c, 6, 52, 70
15, 18078, Note_off_c, 6, 52, 64
15, 18228, Note_on_c, 6, 48, 64
15, 18357, Note_off_c, 6, 48, 64
15, 18470, Note_on_c, 6, 60, 82
15, 18572, Note_off_c, 6, 60, 64
15, 18714, Note_on_c, 6, 53, 76
15, 18783, Note_off_c, 6, 53, 64
15, 18819, Note_on_c, 6, 52, 78
15, 18889, Note_off_c, 6, 52, 64
15, 18934, Note_on_c, 6, 53, 68
15, 19015, Note_off_c, 6, 53, 64
15, 19044, Note_on_c, 6, 50, 66
15, 19126, Note_off_c, 6, 50, 64
15, 19180, Note_on_c, 6, 55, 85
15, 19300, Note_off_c, 6, 55, 64
15, 19436, Note_on_c, 6, 52, 63
15, 19534, Note_off_c, 6, 52, 64
15, 19670, Note_on_c, 6, 57, 78
15, 19773, Note_off_c, 6, 57, 64
15, 19901, Note_on_c, 6, 53, 66
15, 20010, Note_off_c, 6, 53, 64
15, 20147, Note_on_c, 6, 55, 64
15, 20286, Note_off_c, 6, 55, 64
15, 20380, Note_on_c, 6, 64, 68
15, 20468, Note_off_c, 6, 64, 64
15, 20494, Note_on_c, 6, 62, 70
15, 20572, Note_off_c, 6, 62, 64
15, 20609, Note_on_c, 6, 64, 78
15, 20717, Note_off_c, 6, 64, 64
15, 20722, Note_on_c, 6, 60, 76
15, 20799, Note_off_c, 6, 60, 64
15, 20863, Note_on_c, 6, 59, 68
15, 20973, Note_off_c, 6, 59, 64
15, 21109, Note_on_c, 6, 55, 70
15, 21205, Note_off_c, 6, 55, 64
15, 21338, Note_on_c, 6, 59, 76
15, 21449, Note_off_c, 6, 59, 64
15, 21584, Note_on_c, 6, 48, 66
15, 21714, Note_off_c, 6, 48, 64
15, 21823, Note_on_c, 6, 53, 72
15, 21889, Note_off_c, 6, 53, 64
15, 21931, Note_on_c, 6, 50, 64
15, 22018, Note_off_c, 6, 50, 64
15, 22065, Note_on_c, 6, 59, 85
15, 22176, Note_off_c, 6, 59, 64
15, 22314, Note_on_c, 6, 52, 74
15, 22432, Note_off_c, 6, 52, 64
15, 22557, Note_on_c, 6, 53, 72
15, 22670, Note_off_c, 6, 53, 64
15, 22800, Note_on_c, 6, 55, 74
15, 22916, Note_off_c, 6, 55, 64
15, 23045, Note_on_c, 6, 48, 72
15, 23124, Note_off_c, 6, 48, 64
15, 23147, Note_on_c, 6, 47, 68
15, 23218, Note_off_c, 6, 47, 64
15, 23275, Note_on_c, 6, 48, 76
15, 23351, Note_off_c, 6, 48, 64
15, 23385, Note_on_c, 6, 50, 68
15, 23452, Note_off_c, 6, 50, 64
15, 23502, Note_on_c, 6, 52, 68
15, 23565, Note_off_c, 6, 52, 64
15, 23616, Note_on_c, 6, 53, 63
15, 23672, Note_off_c, 6, 53, 64
15, 23745, Note_on_c, 6, 55, 70
15, 23867, Note_off_c, 6, 55, 64
15, 23988, Note_on_c, 6, 50, 74
15, 24105, Note_off_c, 6, 50, 64
15, 24242, Note_on_c, 6, 47, 68
15, 24357, Note_off_c, 6, 47, 64
15, 24476, Note_on_c, 6, 44, 64
15, 24615, Note_off_c, 6, 44, 64
15, 24713, Note_on_c, 6, 47, 72
15, 24796, Note_off_c, 6, 47, 64
15, 24818, Note_on_c, 6, 44, 61
15, 24906, Note_off_c, 6, 44, 64
15, 24944, Note_on_c, 6, 52, 82
15, 25057, Note_off_c, 6, 52, 64
15, 25192, Note_on_c, 6, 48, 66
15, 25299, Note_off_c, 6, 48, 64
15, 25432, Note_on_c, 6, 53, 76
15, 25545, Note_off_c, 6, 53, 64
15, 25664, Note_on_c, 6, 50, 63
15, 25774, Note_off_c, 6, 50, 64
15, 25912, Note_on_c, 6, 52, 66
15, 26028, Note_off_c, 6, 52, 64
15, 26149, Note_on_c, 6, 56, 72
15, 26229, Note_off_c, 6, 56, 64
15, 26257, Note_on_c, 6, 52, 66
15, 26347, Note_off_c, 6, 52, 64
15, 26390, Note_on_c, 6, 64, 87
15, 26488, Note_off_c, 6, 64, 64
15, 26641, Note_on_c, 6, 57, 82
15, 26742, Note_off_c, 6, 57, 64
15, 26874, Note_on_c, 6, 45, 76
15, 26995, Note_off_c, 6, 45, 64
15, 27110, Note_on_c, 6, 48, 61
15, 27218, Note_off_c, 6, 48, 64
15, 27355, Note_on_c, 6, 50, 82
15, 27492, Note_off_c, 6, 50, 64
15, 27596, Note_on_c, 6, 53, 70
15, 27665, Note_off_c, 6, 53, 64
15, 27698, Note_on_c, 6, 50, 64
15, 27770, Note_off_c, 6, 50, 64
15, 27827, Note_on_c, 6, 56, 82
15, 27944, Note_off_c, 6, 56, 64
15, 28067, Note_on_c, 6, 57, 82
15, 28188, Note_off_c, 6, 57, 64
15, 28311, Note_on_c, 6, 50, 68
15, 28415, Note_off_c, 6, 50, 64
15, 28552, Note_on_c, 6, 52, 70
15, 28646, Note_off_c, 6, 52, 64
15, 28782, Note_on_c, 6, 45, 66
15, 28894, Note_off_c, 6, 45, 64
15, 29019, Note_on_c, 6, 48, 66
15, 29093, Note_off_c, 6, 48, 64
15, 29134, Note_on_c, 6, 45, 66
15, 29211, Note_off_c, 6, 45, 64
15, 29254, Note_on_c, 6, 53, 74
15, 29365, Note_off_c, 6, 53, 64
15, 29509, Note_on_c, 6, 52, 80
15, 29617, Note_off_c, 6, 52, 64
15, 29749, Note_on_c, 6, 48, 59
15, 29864, Note_off_c, 6, 48, 64
15, 29985, Note_on_c, 6, 60, 85
15, 30097, Note_off_c, 6, 60, 64
15, 30230, Note_on_c, 6, 53, 74
15, 30316, Note_off_c, 6, 53, 64
15, 30337, Note_on_c, 6, 52, 66
15, 30421, Note_off_c, 6, 52, 64
15, 30456, Note_on_c, 6, 53, 66
15, 30544, Note_off_c, 6, 53, 64
15, 30564, Note_on_c, 6, 50, 64
15, 30663, Note_off_c, 6, 50, 64
15, 30699, Note_on_c, 6, 55, 80
15, 30831, Note_off_c, 6, 55, 64
15, 30964, Note_on_c, 6, 52, 68
15, 31094, Note_off_c, 6, 52, 64
15, 31196, Note_on_c, 6, 57, 87
15, 31318, Note_off_c, 6, 57, 64
15, 31419, Note_on_c, 6, 53, 57
15, 31562, Note_off_c, 6, 53, 64
15, 31671, Note_on_c, 6, 55, 68
15, 31802, Note_off_c, 6, 55, 64
15, 31903, Note_on_c, 6, 64, 76
15, 31994, Note_off_c, 6, 64, 64
15, 32016, Note_on_c, 6, 62, 80
15, 32089, Note_off_c, 6, 62, 64
15, 32132, Note_on_c, 6, 64, 80
15, 32226, Note_off_c, 6, 64, 64
15, 32250, Note_on_c, 6, 60, 72
15, 32310, Note_off_c, 6, 60, 64
15, 32384, Note_on_c, 6, 59, 76
15, 32520, Note_off_c, 6, 59, 64
15, 32634, Note_on_c, 6, 55, 70
15, 32743, Note_off_c, 6, 55, 64
15, 32880, Note_on_c, 6, 59, 78
15, 33005, Note_off_c, 6, 59, 64
15, 33144, Note_on_c, 6, 47, 39
15, 33158, Note_on_c, 6, 48, 46
15, 33166, Note_off_c, 6, 47, 64
15, 33263, Note_off_c, 6, 48, 64
15, 33347, Note_on_c, 6, 53, 70
15, 33417, Note_off_c, 6, 53, 64
15, 33457, Note_on_c, 6, 50, 70
15, 33527, Note_off_c, 6, 50, 64
15, 33591, Note_on_c, 6, 59, 89
15, 33713, Note_off_c, 6, 59, 64
15, 33838, Note_on_c, 6, 52, 74
15, 33959, Note_off_c, 6, 52, 64
15, 34086, Note_on_c, 6, 53, 64
15, 34196, Note_off_c, 6, 53, 64
15, 34329, Note_on_c, 6, 55, 80
15, 34430, Note_off_c, 6, 55, 64
15, 34556, Note_on_c, 6, 48, 72
15, 35138, Note_off_c, 6, 48, 64
15, 69839, Note_on_c, 6, 60, 82
15, 69937, Note_off_c, 6, 60, 64
15, 70077, Note_on_c, 6, 48, 85
15, 70187, Note_off_c, 6, 48, 64
15, 70314, Note_on_c, 6, 52, 82
15, 70414, Note_off_c, 6, 52, 64
15, 70564, Note_on_c, 6, 53, 80
15, 70679, Note_off_c, 6, 53, 64
15, 70806, Note_on_c, 6, 57, 80
15, 70876, Note_off_c, 6, 57, 64
15, 70919, Note_on_c, 6, 53, 72
15, 70994, Note_off_c, 6, 53, 64
15, 71040, Note_on_c, 6, 62, 95
15, 71157, Note_off_c, 6, 62, 64
15, 71285, Note_on_c, 6, 59, 82
15, 71399, Note_off_c, 6, 59, 64
15, 71528, Note_on_c, 6, 60, 80
15, 71636, Note_off_c, 6, 60, 64
15, 71762, Note_on_c, 6, 53, 68
15, 71864, Note_off_c, 6, 53, 64
15, 72002, Note_on_c, 6, 55, 72
15, 72113, Note_off_c, 6, 55, 64
15, 72238, Note_on_c, 6, 59, 74
15, 72344, Note_off_c, 6, 59, 64
15, 72472, Note_on_c, 6, 55, 70
15, 72570, Note_off_c, 6, 55, 64
15, 72709, Note_on_c, 6, 60, 87
15, 72818, Note_off_c, 6, 60, 64
15, 72955, Note_on_c, 6, 59, 80
15, 73068, Note_off_c, 6, 59, 64
15, 73197, Note_on_c, 6, 57, 80
15, 73287, Note_off_c, 6, 57, 64
15, 73439, Note_on_c, 6, 50, 82
15, 73564, Note_off_c, 6, 50, 64
15, 73670, Note_on_c, 6, 54, 68
15, 73748, Note_off_c, 6, 54, 64
15, 73773, Note_on_c, 6, 50, 66
15, 73855, Note_off_c, 6, 50, 64
15, 73910, Note_on_c, 6, 55, 85
15, 74017, Note_off_c, 6, 55, 64
15, 74156, Note_on_c, 6, 48, 82
15, 74256, Note_off_c, 6, 48, 64
15, 74388, Note_on_c, 6, 50, 85
15, 74506, Note_off_c, 6, 50, 64
15, 74643, Note_on_c, 6, 38, 80
15, 74748, Note_off_c, 6, 38, 64
15, 74877, Note_on_c, 6, 43, 85
15, 74962, Note_off_c, 6, 43, 64
15, 74985, Note_on_c, 6, 50, 70
15, 75063, Note_off_c, 6, 50, 64
15, 75117, Note_on_c, 6, 55, 85
15, 75201, Note_off_c, 6, 55, 64
15, 75231, Note_on_c, 6, 57, 80
15, 75298, Note_off_c, 6, 57, 64
15, 75353, Note_on_c, 6, 55, 82
15, 75427, Note_off_c, 6, 55, 64
15, 75466, Note_on_c, 6, 53, 78
15, 75529, Note_off_c, 6, 53, 64
15, 75599, Note_on_c, 6, 52, 85
15, 75697, Note_off_c, 6, 52, 64
15, 75840, Note_on_c, 6, 48, 70
15, 75947, Note_off_c, 6, 48, 64
15, 76082, Note_on_c, 6, 52, 82
15, 76178, Note_off_c, 6, 52, 64
15, 76322, Note_on_c, 6, 53, 82
15, 76447, Note_off_c, 6, 53, 64
15, 76560, Note_on_c, 6, 57, 80
15, 76646, Note_off_c, 6, 57, 64
15, 76678, Note_on_c, 6, 53, 80
15, 76770, Note_off_c, 6, 53, 64
15, 76810, Note_on_c, 6, 62, 100
15, 76913, Note_off_c, 6, 62, 64
15, 77049, Note_on_c, 6, 59, 80
15, 77158, Note_off_c, 6, 59, 64
15, 77286, Note_on_c, 6, 60, 82
15, 77377, Note_off_c, 6, 60, 64
15, 77527, Note_on_c, 6, 53, 74
15, 77610, Note_off_c, 6, 53, 64
15, 77760, Note_on_c, 6, 55, 76
15, 77872, Note_off_c, 6, 55, 64
15, 77999, Note_on_c, 6, 59, 82
15, 78102, Note_off_c, 6, 59, 64
15, 78243, Note_on_c, 6, 55, 76
15, 78342, Note_off_c, 6, 55, 64
15, 78474, Note_on_c, 6, 60, 82
15, 78588, Note_off_c, 6, 60, 64
15, 78708, Note_on_c, 6, 59, 82
15, 78826, Note_off_c, 6, 59, 64
15, 78958, Note_on_c, 6, 57, 78
15, 79057, Note_off_c, 6, 57, 64
15, 79190, Note_on_c, 6, 50, 80
15, 79312, Note_off_c, 6, 50, 64
15, 79432, Note_on_c, 6, 54, 74
15, 79513, Note_off_c, 6, 54, 64
15, 79544, Note_on_c, 6, 50, 66
15, 79610, Note_off_c, 6, 50, 64
15, 79665, Note_on_c, 6, 55, 85
15, 79772, Note_off_c, 6, 55, 64
15, 79908, Note_on_c, 6, 48, 78
15, 80003, Note_off_c, 6, 48, 64
15, 80148, Note_on_c, 6, 50, 87
15, 80253, Note_off_c, 6, 50, 64
15, 80394, Note_on_c, 6, 38, 85
15, 80488, Note_off_c, 6, 38, 64
15, 80638, Note_on_c, 6, 43, 85
15, 80747, Note_off_c, 6, 43, 64
15, 80872, Note_on_c, 6, 47, 85
15, 80972, Note_off_c, 6, 47, 64
15, 81113, Note_on_c, 6, 50, 85
15, 81213, Note_off_c, 6, 50, 64
15, 81213, End_track
0, 0, End_of_file
