0, 0, Header, 1, 17, 240
1, 0, Start_track
1, 0, Sequencer_specific, 10, 0, 0, 91, 35, 1, 0, 5, 6, 42, 0
1, 0, Title_t, "J. S. Bach - Orchestral Suite No.3 in D Major BWV1068"
1, 0, Instrument_name_t, "Conductor Track"
1, 0, SMPTE_offset, 96, 0, 3, 0, 0
1, 0, MIDI_port, 0
1, 0, Marker_t, "Originally Sequenced 28 Nov 1999"
1, 0, Tempo, 1200000
1, 0, Key_signature, 2, "major"
1, 0, Time_signature, 4, 2, 24, 8
1, 45120, Tempo, 517241
1, 124400, Tempo, 530973
1, 124440, Tempo, 560747
1, 124480, Tempo, 600000
1, 124520, Tempo, 638297
1, 124560, Tempo, 689655
1, 124800, Tempo, 1200000
1, 139200, Tempo, 517241
1, 218480, Tempo, 530973
1, 218520, Tempo, 560747
1, 218560, Tempo, 600000
1, 218600, Tempo, 638297
1, 218640, Tempo, 689655
1, 218880, Tempo, 1200000
1, 234240, Tempo, 1500000
1, 235200, Tempo, 1000000
1, 235200, End_track
2, 0, Start_track
2, 0, Title_t, "1st Movement - Overture"
2, 0, MIDI_port, 0
2, 0, End_track
3, 0, Start_track
3, 0, Title_t, "Sequenced by D. L. Viens 19 Jan 2001"
3, 0, MIDI_port, 0
3, 0, End_track
4, 0, Start_track
4, 0, Title_t, "dlviens@empire.net"
4, 0, MIDI_port, 0
4, 0, End_track
5, 0, Start_track
5, 0, MIDI_port, 0
5, 0, End_track
6, 0, Start_track
6, 0, Title_t, "Trumpet I in D"
6, 0, MIDI_port, 0
6, 0, Program_c, 0, 56
6, 0, Control_c, 0, 10, 54
6, 0, Control_c, 0, 11, 127
6, 0, Control_c, 0, 7, 96
6, 0, Note_on_c, 0, 81, 76
6, 119, Note_on_c, 0, 81, 0
6, 480, Note_on_c, 0, 81, 76
6, 599, Note_on_c, 0, 81, 0
6, 960, Note_on_c, 0, 83, 76
6, 1079, Note_on_c, 0, 83, 0
6, 1440, Note_on_c, 0, 79, 76
6, 1559, Note_on_c, 0, 79, 0
6, 2100, Note_on_c, 0, 79, 76
6, 2153, Note_on_c, 0, 79, 0
6, 2160, Note_on_c, 0, 79, 76
6, 2333, Note_on_c, 0, 79, 0
6, 2340, Note_on_c, 0, 76, 76
6, 2393, Note_on_c, 0, 76, 0
6, 2400, Note_on_c, 0, 76, 76
6, 2573, Note_on_c, 0, 76, 0
6, 2580, Note_on_c, 0, 81, 76
6, 2633, Note_on_c, 0, 81, 0
6, 2640, Note_on_c, 0, 81, 76
6, 2813, Note_on_c, 0, 81, 0
6, 2820, Note_on_c, 0, 76, 76
6, 2873, Note_on_c, 0, 76, 0
6, 2880, Note_on_c, 0, 78, 76
6, 3053, Note_on_c, 0, 78, 0
6, 3060, Note_on_c, 0, 81, 76
6, 3113, Note_on_c, 0, 81, 0
6, 3120, Note_on_c, 0, 81, 76
6, 3293, Note_on_c, 0, 81, 0
6, 3300, Note_on_c, 0, 78, 76
6, 3353, Note_on_c, 0, 78, 0
6, 3360, Note_on_c, 0, 78, 76
6, 3533, Note_on_c, 0, 78, 0
6, 3540, Note_on_c, 0, 74, 76
6, 3593, Note_on_c, 0, 74, 0
6, 3600, Note_on_c, 0, 74, 76
6, 3773, Note_on_c, 0, 74, 0
6, 3780, Note_on_c, 0, 69, 76
6, 3833, Note_on_c, 0, 69, 0
6, 3840, Note_on_c, 0, 69, 76
6, 4013, Note_on_c, 0, 69, 0
6, 4020, Note_on_c, 0, 69, 76
6, 4073, Note_on_c, 0, 69, 0
6, 4080, Note_on_c, 0, 69, 76
6, 4253, Note_on_c, 0, 69, 0
6, 4260, Note_on_c, 0, 66, 76
6, 4313, Note_on_c, 0, 66, 0
6, 4320, Note_on_c, 0, 62, 76
6, 4439, Note_on_c, 0, 62, 0
6, 16500, Note_on_c, 0, 85, 76
6, 16553, Note_on_c, 0, 85, 0
6, 16560, Note_on_c, 0, 85, 76
6, 16733, Note_on_c, 0, 85, 0
6, 16740, Note_on_c, 0, 81, 76
6, 16793, Note_on_c, 0, 81, 0
6, 16800, Note_on_c, 0, 81, 76
6, 16919, Note_on_c, 0, 81, 0
6, 17460, Note_on_c, 0, 86, 76
6, 17513, Note_on_c, 0, 86, 0
6, 17520, Note_on_c, 0, 86, 76
6, 17693, Note_on_c, 0, 86, 0
6, 17700, Note_on_c, 0, 81, 76
6, 17753, Note_on_c, 0, 81, 0
6, 17760, Note_on_c, 0, 81, 76
6, 17879, Note_on_c, 0, 81, 0
6, 19380, Note_on_c, 0, 76, 76
6, 19433, Note_on_c, 0, 76, 0
6, 19440, Note_on_c, 0, 76, 76
6, 19613, Note_on_c, 0, 76, 0
6, 19620, Note_on_c, 0, 81, 76
6, 19673, Note_on_c, 0, 81, 0
6, 19680, Note_on_c, 0, 81, 76
6, 19853, Note_on_c, 0, 81, 0
6, 19860, Note_on_c, 0, 81, 76
6, 19913, Note_on_c, 0, 81, 0
6, 19920, Note_on_c, 0, 79, 76
6, 20093, Note_on_c, 0, 79, 0
6, 20100, Note_on_c, 0, 81, 76
6, 20153, Note_on_c, 0, 81, 0
6, 20160, Note_on_c, 0, 78, 76
6, 20333, Note_on_c, 0, 78, 0
6, 20340, Note_on_c, 0, 79, 76
6, 20393, Note_on_c, 0, 79, 0
6, 20400, Note_on_c, 0, 81, 76
6, 20573, Note_on_c, 0, 81, 0
6, 20580, Note_on_c, 0, 83, 76
6, 20633, Note_on_c, 0, 83, 0
6, 20640, Note_on_c, 0, 76, 76
6, 20813, Note_on_c, 0, 76, 0
6, 20820, Note_on_c, 0, 81, 76
6, 20873, Note_on_c, 0, 81, 0
6, 20880, Note_on_c, 0, 74, 76
6, 21053, Note_on_c, 0, 74, 0
6, 21060, Note_on_c, 0, 81, 76
6, 21113, Note_on_c, 0, 81, 0
6, 21120, Note_on_c, 0, 69, 76
6, 21293, Note_on_c, 0, 69, 0
6, 21300, Note_on_c, 0, 81, 76
6, 21353, Note_on_c, 0, 81, 0
6, 21360, Note_on_c, 0, 79, 76
6, 21533, Note_on_c, 0, 79, 0
6, 21540, Note_on_c, 0, 81, 76
6, 21593, Note_on_c, 0, 81, 0
6, 21600, Note_on_c, 0, 78, 76
6, 21773, Note_on_c, 0, 78, 0
6, 21780, Note_on_c, 0, 81, 76
6, 21833, Note_on_c, 0, 81, 0
6, 21840, Note_on_c, 0, 86, 76
6, 22013, Note_on_c, 0, 86, 0
6, 22020, Note_on_c, 0, 83, 76
6, 22073, Note_on_c, 0, 83, 0
6, 22080, Note_on_c, 0, 85, 76
6, 22559, Note_on_c, 0, 85, 0
6, 23040, Note_on_c, 0, 81, 76
6, 23159, Note_on_c, 0, 81, 0
6, 23520, Note_on_c, 0, 81, 76
6, 23639, Note_on_c, 0, 81, 0
6, 24000, Note_on_c, 0, 83, 76
6, 24119, Note_on_c, 0, 83, 0
6, 24480, Note_on_c, 0, 79, 76
6, 24599, Note_on_c, 0, 79, 0
6, 25140, Note_on_c, 0, 79, 76
6, 25193, Note_on_c, 0, 79, 0
6, 25200, Note_on_c, 0, 79, 76
6, 25373, Note_on_c, 0, 79, 0
6, 25380, Note_on_c, 0, 76, 76
6, 25433, Note_on_c, 0, 76, 0
6, 25440, Note_on_c, 0, 76, 76
6, 25613, Note_on_c, 0, 76, 0
6, 25620, Note_on_c, 0, 81, 76
6, 25673, Note_on_c, 0, 81, 0
6, 25680, Note_on_c, 0, 81, 76
6, 25853, Note_on_c, 0, 81, 0
6, 25860, Note_on_c, 0, 76, 76
6, 25913, Note_on_c, 0, 76, 0
6, 25920, Note_on_c, 0, 78, 76
6, 26093, Note_on_c, 0, 78, 0
6, 26100, Note_on_c, 0, 81, 76
6, 26153, Note_on_c, 0, 81, 0
6, 26160, Note_on_c, 0, 81, 76
6, 26333, Note_on_c, 0, 81, 0
6, 26340, Note_on_c, 0, 78, 76
6, 26393, Note_on_c, 0, 78, 0
6, 26400, Note_on_c, 0, 78, 76
6, 26573, Note_on_c, 0, 78, 0
6, 26580, Note_on_c, 0, 74, 76
6, 26633, Note_on_c, 0, 74, 0
6, 26640, Note_on_c, 0, 74, 76
6, 26813, Note_on_c, 0, 74, 0
6, 26820, Note_on_c, 0, 69, 76
6, 26873, Note_on_c, 0, 69, 0
6, 26880, Note_on_c, 0, 69, 76
6, 27053, Note_on_c, 0, 69, 0
6, 27060, Note_on_c, 0, 69, 76
6, 27113, Note_on_c, 0, 69, 0
6, 27120, Note_on_c, 0, 69, 76
6, 27293, Note_on_c, 0, 69, 0
6, 27300, Note_on_c, 0, 66, 76
6, 27353, Note_on_c, 0, 66, 0
6, 27360, Note_on_c, 0, 62, 76
6, 27479, Note_on_c, 0, 62, 0
6, 39540, Note_on_c, 0, 85, 76
6, 39593, Note_on_c, 0, 85, 0
6, 39600, Note_on_c, 0, 85, 76
6, 39773, Note_on_c, 0, 85, 0
6, 39780, Note_on_c, 0, 81, 76
6, 39833, Note_on_c, 0, 81, 0
6, 39840, Note_on_c, 0, 81, 76
6, 39959, Note_on_c, 0, 81, 0
6, 40500, Note_on_c, 0, 86, 76
6, 40553, Note_on_c, 0, 86, 0
6, 40560, Note_on_c, 0, 86, 76
6, 40733, Note_on_c, 0, 86, 0
6, 40740, Note_on_c, 0, 81, 76
6, 40793, Note_on_c, 0, 81, 0
6, 40800, Note_on_c, 0, 81, 76
6, 40919, Note_on_c, 0, 81, 0
6, 42420, Note_on_c, 0, 76, 76
6, 42473, Note_on_c, 0, 76, 0
6, 42480, Note_on_c, 0, 76, 76
6, 42653, Note_on_c, 0, 76, 0
6, 42660, Note_on_c, 0, 81, 76
6, 42713, Note_on_c, 0, 81, 0
6, 42720, Note_on_c, 0, 81, 76
6, 42893, Note_on_c, 0, 81, 0
6, 42900, Note_on_c, 0, 81, 76
6, 42953, Note_on_c, 0, 81, 0
6, 42960, Note_on_c, 0, 79, 76
6, 43133, Note_on_c, 0, 79, 0
6, 43140, Note_on_c, 0, 81, 76
6, 43193, Note_on_c, 0, 81, 0
6, 43200, Note_on_c, 0, 78, 76
6, 43373, Note_on_c, 0, 78, 0
6, 43380, Note_on_c, 0, 79, 76
6, 43433, Note_on_c, 0, 79, 0
6, 43440, Note_on_c, 0, 81, 76
6, 43613, Note_on_c, 0, 81, 0
6, 43620, Note_on_c, 0, 83, 76
6, 43673, Note_on_c, 0, 83, 0
6, 43680, Note_on_c, 0, 76, 76
6, 43853, Note_on_c, 0, 76, 0
6, 43860, Note_on_c, 0, 81, 76
6, 43913, Note_on_c, 0, 81, 0
6, 43920, Note_on_c, 0, 74, 76
6, 44093, Note_on_c, 0, 74, 0
6, 44100, Note_on_c, 0, 81, 76
6, 44153, Note_on_c, 0, 81, 0
6, 44160, Note_on_c, 0, 69, 76
6, 44333, Note_on_c, 0, 69, 0
6, 44340, Note_on_c, 0, 81, 76
6, 44393, Note_on_c, 0, 81, 0
6, 44400, Note_on_c, 0, 79, 76
6, 44573, Note_on_c, 0, 79, 0
6, 44580, Note_on_c, 0, 81, 76
6, 44633, Note_on_c, 0, 81, 0
6, 44640, Note_on_c, 0, 78, 76
6, 44813, Note_on_c, 0, 78, 0
6, 44820, Note_on_c, 0, 81, 76
6, 44873, Note_on_c, 0, 81, 0
6, 44880, Note_on_c, 0, 86, 76
6, 45053, Note_on_c, 0, 86, 0
6, 45060, Note_on_c, 0, 83, 76
6, 45113, Note_on_c, 0, 83, 0
6, 45120, Note_on_c, 0, 85, 76
6, 45359, Note_on_c, 0, 85, 0
6, 51000, Note_on_c, 0, 74, 76
6, 51089, Note_on_c, 0, 74, 0
6, 51120, Note_on_c, 0, 74, 76
6, 51209, Note_on_c, 0, 74, 0
6, 51240, Note_on_c, 0, 74, 76
6, 51329, Note_on_c, 0, 74, 0
6, 51360, Note_on_c, 0, 74, 76
6, 51464, Note_on_c, 0, 74, 0
6, 51480, Note_on_c, 0, 78, 76
6, 51584, Note_on_c, 0, 78, 0
6, 51600, Note_on_c, 0, 78, 76
6, 51704, Note_on_c, 0, 78, 0
6, 51720, Note_on_c, 0, 81, 76
6, 51824, Note_on_c, 0, 81, 0
6, 51840, Note_on_c, 0, 79, 76
6, 51959, Note_on_c, 0, 79, 0
6, 52440, Note_on_c, 0, 76, 76
6, 52529, Note_on_c, 0, 76, 0
6, 52560, Note_on_c, 0, 76, 76
6, 52649, Note_on_c, 0, 76, 0
6, 52680, Note_on_c, 0, 76, 76
6, 52769, Note_on_c, 0, 76, 0
6, 52800, Note_on_c, 0, 76, 76
6, 52904, Note_on_c, 0, 76, 0
6, 52920, Note_on_c, 0, 80, 76
6, 53024, Note_on_c, 0, 80, 0
6, 53040, Note_on_c, 0, 80, 76
6, 53144, Note_on_c, 0, 80, 0
6, 53160, Note_on_c, 0, 83, 76
6, 53264, Note_on_c, 0, 83, 0
6, 53280, Note_on_c, 0, 81, 76
6, 53399, Note_on_c, 0, 81, 0
6, 55800, Note_on_c, 0, 74, 76
6, 55847, Note_on_c, 0, 74, 0
6, 55860, Note_on_c, 0, 76, 76
6, 55907, Note_on_c, 0, 76, 0
6, 55920, Note_on_c, 0, 78, 76
6, 56024, Note_on_c, 0, 78, 0
6, 56040, Note_on_c, 0, 78, 76
6, 56087, Note_on_c, 0, 78, 0
6, 56100, Note_on_c, 0, 79, 76
6, 56147, Note_on_c, 0, 79, 0
6, 56160, Note_on_c, 0, 81, 76
6, 56264, Note_on_c, 0, 81, 0
6, 56280, Note_on_c, 0, 78, 76
6, 56327, Note_on_c, 0, 78, 0
6, 56340, Note_on_c, 0, 79, 76
6, 56387, Note_on_c, 0, 79, 0
6, 56400, Note_on_c, 0, 81, 76
6, 56504, Note_on_c, 0, 81, 0
6, 56520, Note_on_c, 0, 81, 76
6, 56567, Note_on_c, 0, 81, 0
6, 56580, Note_on_c, 0, 83, 76
6, 56627, Note_on_c, 0, 83, 0
6, 56640, Note_on_c, 0, 84, 76
6, 56744, Note_on_c, 0, 84, 0
6, 56760, Note_on_c, 0, 84, 76
6, 56807, Note_on_c, 0, 84, 0
6, 56820, Note_on_c, 0, 83, 76
6, 56867, Note_on_c, 0, 83, 0
6, 56880, Note_on_c, 0, 84, 76
6, 56984, Note_on_c, 0, 84, 0
6, 57000, Note_on_c, 0, 86, 76
6, 57047, Note_on_c, 0, 86, 0
6, 57060, Note_on_c, 0, 84, 76
6, 57107, Note_on_c, 0, 84, 0
6, 57120, Note_on_c, 0, 83, 76
6, 57239, Note_on_c, 0, 83, 0
6, 57480, Note_on_c, 0, 83, 76
6, 57584, Note_on_c, 0, 83, 0
6, 57600, Note_on_c, 0, 81, 76
6, 57719, Note_on_c, 0, 81, 0
6, 57960, Note_on_c, 0, 81, 76
6, 58064, Note_on_c, 0, 81, 0
6, 58080, Note_on_c, 0, 79, 76
6, 58127, Note_on_c, 0, 79, 0
6, 58140, Note_on_c, 0, 78, 76
6, 58187, Note_on_c, 0, 78, 0
6, 58200, Note_on_c, 0, 76, 76
6, 58247, Note_on_c, 0, 76, 0
6, 58260, Note_on_c, 0, 79, 76
6, 58307, Note_on_c, 0, 79, 0
6, 58320, Note_on_c, 0, 78, 76
6, 58367, Note_on_c, 0, 78, 0
6, 58380, Note_on_c, 0, 76, 76
6, 58427, Note_on_c, 0, 76, 0
6, 58440, Note_on_c, 0, 74, 76
6, 58487, Note_on_c, 0, 74, 0
6, 58500, Note_on_c, 0, 78, 76
6, 58547, Note_on_c, 0, 78, 0
6, 58560, Note_on_c, 0, 76, 76
6, 58679, Note_on_c, 0, 76, 0
6, 59160, Note_on_c, 0, 69, 76
6, 59249, Note_on_c, 0, 69, 0
6, 59280, Note_on_c, 0, 69, 76
6, 59369, Note_on_c, 0, 69, 0
6, 59400, Note_on_c, 0, 69, 76
6, 59489, Note_on_c, 0, 69, 0
6, 59520, Note_on_c, 0, 69, 76
6, 59624, Note_on_c, 0, 69, 0
6, 59640, Note_on_c, 0, 76, 76
6, 59744, Note_on_c, 0, 76, 0
6, 59760, Note_on_c, 0, 76, 76
6, 59864, Note_on_c, 0, 76, 0
6, 59880, Note_on_c, 0, 81, 76
6, 59984, Note_on_c, 0, 81, 0
6, 60000, Note_on_c, 0, 81, 76
6, 60119, Note_on_c, 0, 81, 0
6, 60360, Note_on_c, 0, 83, 76
6, 60407, Note_on_c, 0, 83, 0
6, 60420, Note_on_c, 0, 81, 76
6, 60467, Note_on_c, 0, 81, 0
6, 60480, Note_on_c, 0, 79, 76
6, 60599, Note_on_c, 0, 79, 0
6, 60840, Note_on_c, 0, 81, 76
6, 60887, Note_on_c, 0, 81, 0
6, 60900, Note_on_c, 0, 79, 76
6, 60947, Note_on_c, 0, 79, 0
6, 60960, Note_on_c, 0, 78, 76
6, 61064, Note_on_c, 0, 78, 0
6, 61080, Note_on_c, 0, 81, 76
6, 61184, Note_on_c, 0, 81, 0
6, 61200, Note_on_c, 0, 83, 76
6, 61304, Note_on_c, 0, 83, 0
6, 61320, Note_on_c, 0, 79, 76
6, 61424, Note_on_c, 0, 79, 0
6, 61440, Note_on_c, 0, 85, 76
6, 61544, Note_on_c, 0, 85, 0
6, 61560, Note_on_c, 0, 81, 76
6, 61664, Note_on_c, 0, 81, 0
6, 61680, Note_on_c, 0, 86, 76
6, 61784, Note_on_c, 0, 86, 0
6, 61800, Note_on_c, 0, 79, 76
6, 61904, Note_on_c, 0, 79, 0
6, 61920, Note_on_c, 0, 78, 76
6, 62039, Note_on_c, 0, 78, 0
6, 62160, Note_on_c, 0, 76, 76
6, 62279, Note_on_c, 0, 76, 0
6, 62400, Note_on_c, 0, 74, 76
6, 62519, Note_on_c, 0, 74, 0
6, 70200, Note_on_c, 0, 66, 52
6, 70319, Note_on_c, 0, 66, 0
6, 70320, Note_on_c, 0, 66, 52
6, 70439, Note_on_c, 0, 66, 0
6, 70440, Note_on_c, 0, 66, 52
6, 70544, Note_on_c, 0, 66, 0
6, 70560, Note_on_c, 0, 66, 52
6, 70679, Note_on_c, 0, 66, 0
6, 70680, Note_on_c, 0, 66, 52
6, 70799, Note_on_c, 0, 66, 0
6, 70800, Note_on_c, 0, 66, 52
6, 70919, Note_on_c, 0, 66, 0
6, 70920, Note_on_c, 0, 66, 52
6, 71024, Note_on_c, 0, 66, 0
6, 71040, Note_on_c, 0, 66, 52
6, 71159, Note_on_c, 0, 66, 0
6, 71160, Note_on_c, 0, 66, 52
6, 71279, Note_on_c, 0, 66, 0
6, 71280, Note_on_c, 0, 66, 52
6, 71399, Note_on_c, 0, 66, 0
6, 71400, Note_on_c, 0, 66, 52
6, 71504, Note_on_c, 0, 66, 0
6, 71520, Note_on_c, 0, 66, 52
6, 71639, Note_on_c, 0, 66, 0
6, 74520, Note_on_c, 0, 69, 52
6, 74639, Note_on_c, 0, 69, 0
6, 74640, Note_on_c, 0, 69, 52
6, 74759, Note_on_c, 0, 69, 0
6, 74760, Note_on_c, 0, 69, 52
6, 74864, Note_on_c, 0, 69, 0
6, 74880, Note_on_c, 0, 69, 52
6, 74984, Note_on_c, 0, 69, 0
6, 75000, Note_on_c, 0, 69, 52
6, 75104, Note_on_c, 0, 69, 0
6, 75120, Note_on_c, 0, 69, 52
6, 75224, Note_on_c, 0, 69, 0
6, 75240, Note_on_c, 0, 69, 52
6, 75344, Note_on_c, 0, 69, 0
6, 75360, Note_on_c, 0, 69, 52
6, 75464, Note_on_c, 0, 69, 0
6, 75480, Note_on_c, 0, 76, 52
6, 75584, Note_on_c, 0, 76, 0
6, 75600, Note_on_c, 0, 81, 52
6, 75704, Note_on_c, 0, 81, 0
6, 75720, Note_on_c, 0, 76, 52
6, 75824, Note_on_c, 0, 76, 0
6, 75840, Note_on_c, 0, 78, 52
6, 75959, Note_on_c, 0, 78, 0
6, 77880, Note_on_c, 0, 76, 52
6, 77984, Note_on_c, 0, 76, 0
6, 78000, Note_on_c, 0, 81, 52
6, 78104, Note_on_c, 0, 81, 0
6, 78120, Note_on_c, 0, 76, 52
6, 78239, Note_on_c, 0, 76, 0
6, 78360, Note_on_c, 0, 76, 52
6, 78464, Note_on_c, 0, 76, 0
6, 78480, Note_on_c, 0, 79, 52
6, 78584, Note_on_c, 0, 79, 0
6, 78600, Note_on_c, 0, 76, 52
6, 78719, Note_on_c, 0, 76, 0
6, 78840, Note_on_c, 0, 76, 52
6, 78887, Note_on_c, 0, 76, 0
6, 78900, Note_on_c, 0, 74, 52
6, 78947, Note_on_c, 0, 74, 0
6, 78960, Note_on_c, 0, 76, 52
6, 79064, Note_on_c, 0, 76, 0
6, 79080, Note_on_c, 0, 78, 52
6, 79127, Note_on_c, 0, 78, 0
6, 79140, Note_on_c, 0, 76, 52
6, 79187, Note_on_c, 0, 76, 0
6, 79200, Note_on_c, 0, 74, 52
6, 79304, Note_on_c, 0, 74, 0
6, 79320, Note_on_c, 0, 78, 52
6, 79424, Note_on_c, 0, 78, 0
6, 79440, Note_on_c, 0, 83, 52
6, 79544, Note_on_c, 0, 83, 0
6, 79560, Note_on_c, 0, 78, 52
6, 79679, Note_on_c, 0, 78, 0
6, 79800, Note_on_c, 0, 78, 52
6, 79904, Note_on_c, 0, 78, 0
6, 79920, Note_on_c, 0, 81, 52
6, 80024, Note_on_c, 0, 81, 0
6, 80040, Note_on_c, 0, 78, 52
6, 80159, Note_on_c, 0, 78, 0
6, 80280, Note_on_c, 0, 78, 52
6, 80327, Note_on_c, 0, 78, 0
6, 80340, Note_on_c, 0, 76, 52
6, 80387, Note_on_c, 0, 76, 0
6, 80400, Note_on_c, 0, 78, 52
6, 80504, Note_on_c, 0, 78, 0
6, 80520, Note_on_c, 0, 80, 52
6, 80567, Note_on_c, 0, 80, 0
6, 80580, Note_on_c, 0, 78, 52
6, 80627, Note_on_c, 0, 78, 0
6, 80640, Note_on_c, 0, 76, 52
6, 80759, Note_on_c, 0, 76, 0
6, 80760, Note_on_c, 0, 76, 52
6, 80879, Note_on_c, 0, 76, 0
6, 80880, Note_on_c, 0, 76, 52
6, 80999, Note_on_c, 0, 76, 0
6, 81000, Note_on_c, 0, 76, 52
6, 81104, Note_on_c, 0, 76, 0
6, 81120, Note_on_c, 0, 76, 52
6, 81239, Note_on_c, 0, 76, 0
6, 81240, Note_on_c, 0, 76, 52
6, 81359, Note_on_c, 0, 76, 0
6, 81360, Note_on_c, 0, 76, 52
6, 81479, Note_on_c, 0, 76, 0
6, 81480, Note_on_c, 0, 76, 52
6, 81584, Note_on_c, 0, 76, 0
6, 81600, Note_on_c, 0, 76, 52
6, 81704, Note_on_c, 0, 76, 0
6, 81720, Note_on_c, 0, 83, 52
6, 81839, Note_on_c, 0, 83, 0
6, 81840, Note_on_c, 0, 80, 52
6, 81959, Note_on_c, 0, 80, 0
6, 81960, Note_on_c, 0, 83, 52
6, 82064, Note_on_c, 0, 83, 0
6, 82080, Note_on_c, 0, 85, 52
6, 82199, Note_on_c, 0, 85, 0
6, 86040, Note_on_c, 0, 78, 52
6, 86129, Note_on_c, 0, 78, 0
6, 86160, Note_on_c, 0, 78, 52
6, 86249, Note_on_c, 0, 78, 0
6, 86280, Note_on_c, 0, 78, 52
6, 86369, Note_on_c, 0, 78, 0
6, 86400, Note_on_c, 0, 78, 52
6, 86489, Note_on_c, 0, 78, 0
6, 86520, Note_on_c, 0, 78, 52
6, 86609, Note_on_c, 0, 78, 0
6, 86640, Note_on_c, 0, 78, 52
6, 86729, Note_on_c, 0, 78, 0
6, 86760, Note_on_c, 0, 78, 52
6, 86849, Note_on_c, 0, 78, 0
6, 86880, Note_on_c, 0, 78, 52
6, 86969, Note_on_c, 0, 78, 0
6, 87000, Note_on_c, 0, 78, 52
6, 87089, Note_on_c, 0, 78, 0
6, 87120, Note_on_c, 0, 78, 52
6, 87209, Note_on_c, 0, 78, 0
6, 87240, Note_on_c, 0, 78, 52
6, 87329, Note_on_c, 0, 78, 0
6, 87360, Note_on_c, 0, 83, 52
6, 87479, Note_on_c, 0, 83, 0
6, 97440, Note_on_c, 0, 76, 52
6, 97559, Note_on_c, 0, 76, 0
6, 97680, Note_on_c, 0, 78, 52
6, 97799, Note_on_c, 0, 78, 0
6, 97920, Note_on_c, 0, 79, 52
6, 98039, Note_on_c, 0, 79, 0
6, 98160, Note_on_c, 0, 78, 52
6, 98279, Note_on_c, 0, 78, 0
6, 98400, Note_on_c, 0, 76, 52
6, 98519, Note_on_c, 0, 76, 0
6, 98640, Note_on_c, 0, 81, 52
6, 98759, Note_on_c, 0, 81, 0
6, 98880, Note_on_c, 0, 78, 52
6, 98999, Note_on_c, 0, 78, 0
6, 99120, Note_on_c, 0, 80, 52
6, 99239, Note_on_c, 0, 80, 0
6, 99360, Note_on_c, 0, 81, 52
6, 99464, Note_on_c, 0, 81, 0
6, 99480, Note_on_c, 0, 69, 52
6, 99527, Note_on_c, 0, 69, 0
6, 99540, Note_on_c, 0, 69, 52
6, 99587, Note_on_c, 0, 69, 0
6, 99600, Note_on_c, 0, 69, 52
6, 99704, Note_on_c, 0, 69, 0
6, 99720, Note_on_c, 0, 69, 52
6, 99824, Note_on_c, 0, 69, 0
6, 99840, Note_on_c, 0, 69, 52
6, 99959, Note_on_c, 0, 69, 0
6, 102840, Note_on_c, 0, 69, 52
6, 102959, Note_on_c, 0, 69, 0
6, 102960, Note_on_c, 0, 69, 52
6, 103079, Note_on_c, 0, 69, 0
6, 103080, Note_on_c, 0, 69, 52
6, 103184, Note_on_c, 0, 69, 0
6, 103200, Note_on_c, 0, 69, 52
6, 103319, Note_on_c, 0, 69, 0
6, 103320, Note_on_c, 0, 69, 52
6, 103439, Note_on_c, 0, 69, 0
6, 103440, Note_on_c, 0, 69, 52
6, 103559, Note_on_c, 0, 69, 0
6, 103560, Note_on_c, 0, 69, 52
6, 103664, Note_on_c, 0, 69, 0
6, 103680, Note_on_c, 0, 69, 52
6, 103784, Note_on_c, 0, 69, 0
6, 103800, Note_on_c, 0, 76, 52
6, 103904, Note_on_c, 0, 76, 0
6, 103920, Note_on_c, 0, 76, 52
6, 104024, Note_on_c, 0, 76, 0
6, 104040, Note_on_c, 0, 81, 52
6, 104144, Note_on_c, 0, 81, 0
6, 104160, Note_on_c, 0, 78, 52
6, 104264, Note_on_c, 0, 78, 0
6, 104280, Note_on_c, 0, 66, 52
6, 104384, Note_on_c, 0, 66, 0
6, 104400, Note_on_c, 0, 66, 52
6, 104519, Note_on_c, 0, 66, 0
6, 104520, Note_on_c, 0, 69, 52
6, 104624, Note_on_c, 0, 69, 0
6, 104640, Note_on_c, 0, 69, 52
6, 104759, Note_on_c, 0, 69, 0
6, 104760, Note_on_c, 0, 74, 52
6, 104864, Note_on_c, 0, 74, 0
6, 104880, Note_on_c, 0, 74, 52
6, 104999, Note_on_c, 0, 74, 0
6, 105000, Note_on_c, 0, 78, 52
6, 105104, Note_on_c, 0, 78, 0
6, 105120, Note_on_c, 0, 78, 52
6, 105239, Note_on_c, 0, 78, 0
6, 105240, Note_on_c, 0, 81, 52
6, 105344, Note_on_c, 0, 81, 0
6, 105360, Note_on_c, 0, 81, 52
6, 105479, Note_on_c, 0, 81, 0
6, 105480, Note_on_c, 0, 86, 52
6, 105584, Note_on_c, 0, 86, 0
6, 105600, Note_on_c, 0, 86, 52
6, 105719, Note_on_c, 0, 86, 0
6, 107760, Note_on_c, 0, 81, 52
6, 107879, Note_on_c, 0, 81, 0
6, 108000, Note_on_c, 0, 81, 52
6, 108119, Note_on_c, 0, 81, 0
6, 108240, Note_on_c, 0, 76, 52
6, 108359, Note_on_c, 0, 76, 0
6, 108480, Note_on_c, 0, 76, 52
6, 108599, Note_on_c, 0, 76, 0
6, 108720, Note_on_c, 0, 79, 52
6, 108839, Note_on_c, 0, 79, 0
6, 108960, Note_on_c, 0, 78, 52
6, 109079, Note_on_c, 0, 78, 0
6, 109560, Note_on_c, 0, 62, 52
6, 109679, Note_on_c, 0, 62, 0
6, 109680, Note_on_c, 0, 62, 52
6, 109799, Note_on_c, 0, 62, 0
6, 109800, Note_on_c, 0, 62, 52
6, 109904, Note_on_c, 0, 62, 0
6, 109920, Note_on_c, 0, 62, 52
6, 110024, Note_on_c, 0, 62, 0
6, 110040, Note_on_c, 0, 81, 52
6, 110144, Note_on_c, 0, 81, 0
6, 110160, Note_on_c, 0, 86, 52
6, 110264, Note_on_c, 0, 86, 0
6, 110280, Note_on_c, 0, 81, 52
6, 110384, Note_on_c, 0, 81, 0
6, 110400, Note_on_c, 0, 83, 52
6, 110519, Note_on_c, 0, 83, 0
6, 113400, Note_on_c, 0, 74, 52
6, 113489, Note_on_c, 0, 74, 0
6, 113520, Note_on_c, 0, 74, 52
6, 113609, Note_on_c, 0, 74, 0
6, 113640, Note_on_c, 0, 74, 52
6, 113729, Note_on_c, 0, 74, 0
6, 113760, Note_on_c, 0, 74, 52
6, 113864, Note_on_c, 0, 74, 0
6, 113880, Note_on_c, 0, 78, 52
6, 113984, Note_on_c, 0, 78, 0
6, 114000, Note_on_c, 0, 78, 52
6, 114104, Note_on_c, 0, 78, 0
6, 114120, Note_on_c, 0, 81, 52
6, 114224, Note_on_c, 0, 81, 0
6, 114240, Note_on_c, 0, 79, 52
6, 114359, Note_on_c, 0, 79, 0
6, 114840, Note_on_c, 0, 76, 52
6, 114944, Note_on_c, 0, 76, 0
6, 114960, Note_on_c, 0, 76, 52
6, 115064, Note_on_c, 0, 76, 0
6, 115080, Note_on_c, 0, 76, 52
6, 115184, Note_on_c, 0, 76, 0
6, 115200, Note_on_c, 0, 76, 52
6, 115304, Note_on_c, 0, 76, 0
6, 115320, Note_on_c, 0, 80, 52
6, 115424, Note_on_c, 0, 80, 0
6, 115440, Note_on_c, 0, 80, 52
6, 115544, Note_on_c, 0, 80, 0
6, 115560, Note_on_c, 0, 83, 52
6, 115664, Note_on_c, 0, 83, 0
6, 115680, Note_on_c, 0, 81, 52
6, 115799, Note_on_c, 0, 81, 0
6, 118200, Note_on_c, 0, 74, 52
6, 118247, Note_on_c, 0, 74, 0
6, 118260, Note_on_c, 0, 76, 52
6, 118307, Note_on_c, 0, 76, 0
6, 118320, Note_on_c, 0, 78, 52
6, 118424, Note_on_c, 0, 78, 0
6, 118440, Note_on_c, 0, 78, 52
6, 118487, Note_on_c, 0, 78, 0
6, 118500, Note_on_c, 0, 79, 52
6, 118547, Note_on_c, 0, 79, 0
6, 118560, Note_on_c, 0, 81, 52
6, 118664, Note_on_c, 0, 81, 0
6, 118680, Note_on_c, 0, 78, 52
6, 118727, Note_on_c, 0, 78, 0
6, 118740, Note_on_c, 0, 79, 52
6, 118787, Note_on_c, 0, 79, 0
6, 118800, Note_on_c, 0, 81, 52
6, 118904, Note_on_c, 0, 81, 0
6, 118920, Note_on_c, 0, 81, 52
6, 118967, Note_on_c, 0, 81, 0
6, 118980, Note_on_c, 0, 83, 52
6, 119027, Note_on_c, 0, 83, 0
6, 119040, Note_on_c, 0, 84, 52
6, 119144, Note_on_c, 0, 84, 0
6, 119160, Note_on_c, 0, 84, 52
6, 119207, Note_on_c, 0, 84, 0
6, 119220, Note_on_c, 0, 83, 52
6, 119267, Note_on_c, 0, 83, 0
6, 119280, Note_on_c, 0, 84, 52
6, 119384, Note_on_c, 0, 84, 0
6, 119400, Note_on_c, 0, 86, 52
6, 119447, Note_on_c, 0, 86, 0
6, 119460, Note_on_c, 0, 84, 52
6, 119507, Note_on_c, 0, 84, 0
6, 119520, Note_on_c, 0, 83, 52
6, 119639, Note_on_c, 0, 83, 0
6, 119880, Note_on_c, 0, 83, 52
6, 119984, Note_on_c, 0, 83, 0
6, 120000, Note_on_c, 0, 81, 52
6, 120119, Note_on_c, 0, 81, 0
6, 120360, Note_on_c, 0, 81, 52
6, 120464, Note_on_c, 0, 81, 0
6, 120480, Note_on_c, 0, 79, 52
6, 120527, Note_on_c, 0, 79, 0
6, 120540, Note_on_c, 0, 78, 52
6, 120587, Note_on_c, 0, 78, 0
6, 120600, Note_on_c, 0, 76, 52
6, 120647, Note_on_c, 0, 76, 0
6, 120660, Note_on_c, 0, 79, 52
6, 120707, Note_on_c, 0, 79, 0
6, 120720, Note_on_c, 0, 78, 52
6, 120767, Note_on_c, 0, 78, 0
6, 120780, Note_on_c, 0, 76, 52
6, 120827, Note_on_c, 0, 76, 0
6, 120840, Note_on_c, 0, 74, 52
6, 120887, Note_on_c, 0, 74, 0
6, 120900, Note_on_c, 0, 78, 52
6, 120947, Note_on_c, 0, 78, 0
6, 120960, Note_on_c, 0, 76, 52
6, 121079, Note_on_c, 0, 76, 0
6, 121560, Note_on_c, 0, 69, 52
6, 121679, Note_on_c, 0, 69, 0
6, 121680, Note_on_c, 0, 69, 52
6, 121799, Note_on_c, 0, 69, 0
6, 121800, Note_on_c, 0, 69, 52
6, 121904, Note_on_c, 0, 69, 0
6, 121920, Note_on_c, 0, 69, 52
6, 122024, Note_on_c, 0, 69, 0
6, 122040, Note_on_c, 0, 76, 52
6, 122144, Note_on_c, 0, 76, 0
6, 122160, Note_on_c, 0, 76, 52
6, 122264, Note_on_c, 0, 76, 0
6, 122280, Note_on_c, 0, 81, 52
6, 122384, Note_on_c, 0, 81, 0
6, 122400, Note_on_c, 0, 81, 52
6, 122519, Note_on_c, 0, 81, 0
6, 122760, Note_on_c, 0, 83, 52
6, 122807, Note_on_c, 0, 83, 0
6, 122820, Note_on_c, 0, 81, 52
6, 122867, Note_on_c, 0, 81, 0
6, 122880, Note_on_c, 0, 79, 52
6, 122999, Note_on_c, 0, 79, 0
6, 123240, Note_on_c, 0, 81, 52
6, 123287, Note_on_c, 0, 81, 0
6, 123300, Note_on_c, 0, 79, 52
6, 123347, Note_on_c, 0, 79, 0
6, 123360, Note_on_c, 0, 78, 52
6, 123449, Note_on_c, 0, 78, 0
6, 123480, Note_on_c, 0, 81, 52
6, 123569, Note_on_c, 0, 81, 0
6, 123600, Note_on_c, 0, 83, 52
6, 123689, Note_on_c, 0, 83, 0
6, 123720, Note_on_c, 0, 79, 52
6, 123809, Note_on_c, 0, 79, 0
6, 123840, Note_on_c, 0, 85, 52
6, 123944, Note_on_c, 0, 85, 0
6, 123960, Note_on_c, 0, 81, 52
6, 124064, Note_on_c, 0, 81, 0
6, 124080, Note_on_c, 0, 86, 52
6, 124184, Note_on_c, 0, 86, 0
6, 124200, Note_on_c, 0, 79, 52
6, 124304, Note_on_c, 0, 79, 0
6, 124320, Note_on_c, 0, 78, 52
6, 124439, Note_on_c, 0, 78, 0
6, 124560, Note_on_c, 0, 76, 52
6, 124664, Note_on_c, 0, 76, 0
6, 124800, Note_on_c, 0, 74, 76
6, 124919, Note_on_c, 0, 74, 0
6, 125280, Note_on_c, 0, 78, 76
6, 125399, Note_on_c, 0, 78, 0
6, 125760, Note_on_c, 0, 81, 76
6, 125879, Note_on_c, 0, 81, 0
6, 126240, Note_on_c, 0, 86, 76
6, 126359, Note_on_c, 0, 86, 0
6, 126900, Note_on_c, 0, 81, 76
6, 126953, Note_on_c, 0, 81, 0
6, 126960, Note_on_c, 0, 81, 76
6, 127133, Note_on_c, 0, 81, 0
6, 127140, Note_on_c, 0, 81, 76
6, 127193, Note_on_c, 0, 81, 0
6, 127200, Note_on_c, 0, 86, 76
6, 127373, Note_on_c, 0, 86, 0
6, 127380, Note_on_c, 0, 81, 76
6, 127433, Note_on_c, 0, 81, 0
6, 127440, Note_on_c, 0, 83, 76
6, 127613, Note_on_c, 0, 83, 0
6, 127620, Note_on_c, 0, 84, 76
6, 127673, Note_on_c, 0, 84, 0
6, 127680, Note_on_c, 0, 83, 76
6, 127919, Note_on_c, 0, 83, 0
6, 135540, Note_on_c, 0, 74, 76
6, 135593, Note_on_c, 0, 74, 0
6, 135600, Note_on_c, 0, 74, 76
6, 135773, Note_on_c, 0, 74, 0
6, 135780, Note_on_c, 0, 78, 76
6, 135833, Note_on_c, 0, 78, 0
6, 135840, Note_on_c, 0, 78, 76
6, 136013, Note_on_c, 0, 78, 0
6, 136020, Note_on_c, 0, 81, 76
6, 136073, Note_on_c, 0, 81, 0
6, 136080, Note_on_c, 0, 81, 76
6, 136253, Note_on_c, 0, 81, 0
6, 136260, Note_on_c, 0, 83, 76
6, 136313, Note_on_c, 0, 83, 0
6, 136320, Note_on_c, 0, 83, 76
6, 136439, Note_on_c, 0, 83, 0
6, 136800, Note_on_c, 0, 79, 76
6, 136919, Note_on_c, 0, 79, 0
6, 137460, Note_on_c, 0, 76, 76
6, 137513, Note_on_c, 0, 76, 0
6, 137520, Note_on_c, 0, 76, 76
6, 137693, Note_on_c, 0, 76, 0
6, 137700, Note_on_c, 0, 81, 76
6, 137753, Note_on_c, 0, 81, 0
6, 137760, Note_on_c, 0, 81, 76
6, 137933, Note_on_c, 0, 81, 0
6, 137940, Note_on_c, 0, 83, 76
6, 137993, Note_on_c, 0, 83, 0
6, 138000, Note_on_c, 0, 79, 76
6, 138173, Note_on_c, 0, 79, 0
6, 138180, Note_on_c, 0, 81, 76
6, 138233, Note_on_c, 0, 81, 0
6, 138240, Note_on_c, 0, 78, 76
6, 138413, Note_on_c, 0, 78, 0
6, 138420, Note_on_c, 0, 79, 76
6, 138473, Note_on_c, 0, 79, 0
6, 138480, Note_on_c, 0, 78, 76
6, 138653, Note_on_c, 0, 78, 0
6, 138660, Note_on_c, 0, 76, 76
6, 138713, Note_on_c, 0, 76, 0
6, 138720, Note_on_c, 0, 76, 76
6, 139067, Note_on_c, 0, 76, 0
6, 139080, Note_on_c, 0, 74, 76
6, 139187, Note_on_c, 0, 74, 0
6, 139200, Note_on_c, 0, 74, 76
6, 139439, Note_on_c, 0, 74, 0
6, 145080, Note_on_c, 0, 74, 76
6, 145169, Note_on_c, 0, 74, 0
6, 145200, Note_on_c, 0, 74, 76
6, 145289, Note_on_c, 0, 74, 0
6, 145320, Note_on_c, 0, 74, 76
6, 145409, Note_on_c, 0, 74, 0
6, 145440, Note_on_c, 0, 74, 76
6, 145544, Note_on_c, 0, 74, 0
6, 145560, Note_on_c, 0, 78, 76
6, 145664, Note_on_c, 0, 78, 0
6, 145680, Note_on_c, 0, 78, 76
6, 145784, Note_on_c, 0, 78, 0
6, 145800, Note_on_c, 0, 81, 76
6, 145904, Note_on_c, 0, 81, 0
6, 145920, Note_on_c, 0, 79, 76
6, 146039, Note_on_c, 0, 79, 0
6, 146520, Note_on_c, 0, 76, 76
6, 146609, Note_on_c, 0, 76, 0
6, 146640, Note_on_c, 0, 76, 76
6, 146729, Note_on_c, 0, 76, 0
6, 146760, Note_on_c, 0, 76, 76
6, 146849, Note_on_c, 0, 76, 0
6, 146880, Note_on_c, 0, 76, 76
6, 146984, Note_on_c, 0, 76, 0
6, 147000, Note_on_c, 0, 80, 76
6, 147104, Note_on_c, 0, 80, 0
6, 147120, Note_on_c, 0, 80, 76
6, 147224, Note_on_c, 0, 80, 0
6, 147240, Note_on_c, 0, 83, 76
6, 147344, Note_on_c, 0, 83, 0
6, 147360, Note_on_c, 0, 81, 76
6, 147479, Note_on_c, 0, 81, 0
6, 149880, Note_on_c, 0, 74, 76
6, 149927, Note_on_c, 0, 74, 0
6, 149940, Note_on_c, 0, 76, 76
6, 149987, Note_on_c, 0, 76, 0
6, 150000, Note_on_c, 0, 78, 76
6, 150104, Note_on_c, 0, 78, 0
6, 150120, Note_on_c, 0, 78, 76
6, 150167, Note_on_c, 0, 78, 0
6, 150180, Note_on_c, 0, 79, 76
6, 150227, Note_on_c, 0, 79, 0
6, 150240, Note_on_c, 0, 81, 76
6, 150344, Note_on_c, 0, 81, 0
6, 150360, Note_on_c, 0, 78, 76
6, 150407, Note_on_c, 0, 78, 0
6, 150420, Note_on_c, 0, 79, 76
6, 150467, Note_on_c, 0, 79, 0
6, 150480, Note_on_c, 0, 81, 76
6, 150584, Note_on_c, 0, 81, 0
6, 150600, Note_on_c, 0, 81, 76
6, 150647, Note_on_c, 0, 81, 0
6, 150660, Note_on_c, 0, 83, 76
6, 150707, Note_on_c, 0, 83, 0
6, 150720, Note_on_c, 0, 84, 76
6, 150824, Note_on_c, 0, 84, 0
6, 150840, Note_on_c, 0, 84, 76
6, 150887, Note_on_c, 0, 84, 0
6, 150900, Note_on_c, 0, 83, 76
6, 150947, Note_on_c, 0, 83, 0
6, 150960, Note_on_c, 0, 84, 76
6, 151064, Note_on_c, 0, 84, 0
6, 151080, Note_on_c, 0, 86, 76
6, 151127, Note_on_c, 0, 86, 0
6, 151140, Note_on_c, 0, 84, 76
6, 151187, Note_on_c, 0, 84, 0
6, 151200, Note_on_c, 0, 83, 76
6, 151319, Note_on_c, 0, 83, 0
6, 151560, Note_on_c, 0, 83, 76
6, 151664, Note_on_c, 0, 83, 0
6, 151680, Note_on_c, 0, 81, 76
6, 151799, Note_on_c, 0, 81, 0
6, 152040, Note_on_c, 0, 81, 76
6, 152144, Note_on_c, 0, 81, 0
6, 152160, Note_on_c, 0, 79, 76
6, 152207, Note_on_c, 0, 79, 0
6, 152220, Note_on_c, 0, 78, 76
6, 152267, Note_on_c, 0, 78, 0
6, 152280, Note_on_c, 0, 76, 76
6, 152327, Note_on_c, 0, 76, 0
6, 152340, Note_on_c, 0, 79, 76
6, 152387, Note_on_c, 0, 79, 0
6, 152400, Note_on_c, 0, 78, 76
6, 152447, Note_on_c, 0, 78, 0
6, 152460, Note_on_c, 0, 76, 76
6, 152507, Note_on_c, 0, 76, 0
6, 152520, Note_on_c, 0, 74, 76
6, 152567, Note_on_c, 0, 74, 0
6, 152580, Note_on_c, 0, 78, 76
6, 152627, Note_on_c, 0, 78, 0
6, 152640, Note_on_c, 0, 76, 76
6, 152759, Note_on_c, 0, 76, 0
6, 153240, Note_on_c, 0, 69, 76
6, 153329, Note_on_c, 0, 69, 0
6, 153360, Note_on_c, 0, 69, 76
6, 153449, Note_on_c, 0, 69, 0
6, 153480, Note_on_c, 0, 69, 76
6, 153569, Note_on_c, 0, 69, 0
6, 153600, Note_on_c, 0, 69, 76
6, 153704, Note_on_c, 0, 69, 0
6, 153720, Note_on_c, 0, 76, 76
6, 153824, Note_on_c, 0, 76, 0
6, 153840, Note_on_c, 0, 76, 76
6, 153944, Note_on_c, 0, 76, 0
6, 153960, Note_on_c, 0, 81, 76
6, 154064, Note_on_c, 0, 81, 0
6, 154080, Note_on_c, 0, 81, 76
6, 154199, Note_on_c, 0, 81, 0
6, 154440, Note_on_c, 0, 83, 76
6, 154487, Note_on_c, 0, 83, 0
6, 154500, Note_on_c, 0, 81, 76
6, 154547, Note_on_c, 0, 81, 0
6, 154560, Note_on_c, 0, 79, 76
6, 154679, Note_on_c, 0, 79, 0
6, 154920, Note_on_c, 0, 81, 76
6, 154967, Note_on_c, 0, 81, 0
6, 154980, Note_on_c, 0, 79, 76
6, 155027, Note_on_c, 0, 79, 0
6, 155040, Note_on_c, 0, 78, 76
6, 155144, Note_on_c, 0, 78, 0
6, 155160, Note_on_c, 0, 81, 76
6, 155264, Note_on_c, 0, 81, 0
6, 155280, Note_on_c, 0, 83, 76
6, 155384, Note_on_c, 0, 83, 0
6, 155400, Note_on_c, 0, 79, 76
6, 155504, Note_on_c, 0, 79, 0
6, 155520, Note_on_c, 0, 85, 76
6, 155624, Note_on_c, 0, 85, 0
6, 155640, Note_on_c, 0, 81, 76
6, 155744, Note_on_c, 0, 81, 0
6, 155760, Note_on_c, 0, 86, 76
6, 155864, Note_on_c, 0, 86, 0
6, 155880, Note_on_c, 0, 79, 76
6, 155984, Note_on_c, 0, 79, 0
6, 156000, Note_on_c, 0, 78, 76
6, 156119, Note_on_c, 0, 78, 0
6, 156240, Note_on_c, 0, 76, 76
6, 156359, Note_on_c, 0, 76, 0
6, 156480, Note_on_c, 0, 74, 76
6, 156599, Note_on_c, 0, 74, 0
6, 164280, Note_on_c, 0, 66, 52
6, 164399, Note_on_c, 0, 66, 0
6, 164400, Note_on_c, 0, 66, 52
6, 164519, Note_on_c, 0, 66, 0
6, 164520, Note_on_c, 0, 66, 52
6, 164624, Note_on_c, 0, 66, 0
6, 164640, Note_on_c, 0, 66, 52
6, 164759, Note_on_c, 0, 66, 0
6, 164760, Note_on_c, 0, 66, 52
6, 164879, Note_on_c, 0, 66, 0
6, 164880, Note_on_c, 0, 66, 52
6, 164999, Note_on_c, 0, 66, 0
6, 165000, Note_on_c, 0, 66, 52
6, 165104, Note_on_c, 0, 66, 0
6, 165120, Note_on_c, 0, 66, 52
6, 165239, Note_on_c, 0, 66, 0
6, 165240, Note_on_c, 0, 66, 52
6, 165359, Note_on_c, 0, 66, 0
6, 165360, Note_on_c, 0, 66, 52
6, 165479, Note_on_c, 0, 66, 0
6, 165480, Note_on_c, 0, 66, 52
6, 165584, Note_on_c, 0, 66, 0
6, 165600, Note_on_c, 0, 66, 52
6, 165719, Note_on_c, 0, 66, 0
6, 168600, Note_on_c, 0, 69, 52
6, 168719, Note_on_c, 0, 69, 0
6, 168720, Note_on_c, 0, 69, 52
6, 168839, Note_on_c, 0, 69, 0
6, 168840, Note_on_c, 0, 69, 52
6, 168944, Note_on_c, 0, 69, 0
6, 168960, Note_on_c, 0, 69, 52
6, 169064, Note_on_c, 0, 69, 0
6, 169080, Note_on_c, 0, 69, 52
6, 169184, Note_on_c, 0, 69, 0
6, 169200, Note_on_c, 0, 69, 52
6, 169304, Note_on_c, 0, 69, 0
6, 169320, Note_on_c, 0, 69, 52
6, 169424, Note_on_c, 0, 69, 0
6, 169440, Note_on_c, 0, 69, 52
6, 169544, Note_on_c, 0, 69, 0
6, 169560, Note_on_c, 0, 76, 52
6, 169664, Note_on_c, 0, 76, 0
6, 169680, Note_on_c, 0, 81, 52
6, 169784, Note_on_c, 0, 81, 0
6, 169800, Note_on_c, 0, 76, 52
6, 169904, Note_on_c, 0, 76, 0
6, 169920, Note_on_c, 0, 78, 52
6, 170039, Note_on_c, 0, 78, 0
6, 171960, Note_on_c, 0, 76, 52
6, 172064, Note_on_c, 0, 76, 0
6, 172080, Note_on_c, 0, 81, 52
6, 172184, Note_on_c, 0, 81, 0
6, 172200, Note_on_c, 0, 76, 52
6, 172319, Note_on_c, 0, 76, 0
6, 172440, Note_on_c, 0, 76, 52
6, 172544, Note_on_c, 0, 76, 0
6, 172560, Note_on_c, 0, 79, 52
6, 172664, Note_on_c, 0, 79, 0
6, 172680, Note_on_c, 0, 76, 52
6, 172799, Note_on_c, 0, 76, 0
6, 172920, Note_on_c, 0, 76, 52
6, 172967, Note_on_c, 0, 76, 0
6, 172980, Note_on_c, 0, 74, 52
6, 173027, Note_on_c, 0, 74, 0
6, 173040, Note_on_c, 0, 76, 52
6, 173144, Note_on_c, 0, 76, 0
6, 173160, Note_on_c, 0, 78, 52
6, 173207, Note_on_c, 0, 78, 0
6, 173220, Note_on_c, 0, 76, 52
6, 173267, Note_on_c, 0, 76, 0
6, 173280, Note_on_c, 0, 74, 52
6, 173384, Note_on_c, 0, 74, 0
6, 173400, Note_on_c, 0, 78, 52
6, 173504, Note_on_c, 0, 78, 0
6, 173520, Note_on_c, 0, 83, 52
6, 173624, Note_on_c, 0, 83, 0
6, 173640, Note_on_c, 0, 78, 52
6, 173759, Note_on_c, 0, 78, 0
6, 173880, Note_on_c, 0, 78, 52
6, 173984, Note_on_c, 0, 78, 0
6, 174000, Note_on_c, 0, 81, 52
6, 174104, Note_on_c, 0, 81, 0
6, 174120, Note_on_c, 0, 78, 52
6, 174239, Note_on_c, 0, 78, 0
6, 174360, Note_on_c, 0, 78, 52
6, 174407, Note_on_c, 0, 78, 0
6, 174420, Note_on_c, 0, 76, 52
6, 174467, Note_on_c, 0, 76, 0
6, 174480, Note_on_c, 0, 78, 52
6, 174584, Note_on_c, 0, 78, 0
6, 174600, Note_on_c, 0, 80, 52
6, 174647, Note_on_c, 0, 80, 0
6, 174660, Note_on_c, 0, 78, 52
6, 174707, Note_on_c, 0, 78, 0
6, 174720, Note_on_c, 0, 76, 52
6, 174839, Note_on_c, 0, 76, 0
6, 174840, Note_on_c, 0, 76, 52
6, 174959, Note_on_c, 0, 76, 0
6, 174960, Note_on_c, 0, 76, 52
6, 175079, Note_on_c, 0, 76, 0
6, 175080, Note_on_c, 0, 76, 52
6, 175184, Note_on_c, 0, 76, 0
6, 175200, Note_on_c, 0, 76, 52
6, 175319, Note_on_c, 0, 76, 0
6, 175320, Note_on_c, 0, 76, 52
6, 175439, Note_on_c, 0, 76, 0
6, 175440, Note_on_c, 0, 76, 52
6, 175559, Note_on_c, 0, 76, 0
6, 175560, Note_on_c, 0, 76, 52
6, 175664, Note_on_c, 0, 76, 0
6, 175680, Note_on_c, 0, 76, 52
6, 175784, Note_on_c, 0, 76, 0
6, 175800, Note_on_c, 0, 83, 52
6, 175919, Note_on_c, 0, 83, 0
6, 175920, Note_on_c, 0, 80, 52
6, 176039, Note_on_c, 0, 80, 0
6, 176040, Note_on_c, 0, 83, 52
6, 176144, Note_on_c, 0, 83, 0
6, 176160, Note_on_c, 0, 85, 52
6, 176279, Note_on_c, 0, 85, 0
6, 180120, Note_on_c, 0, 78, 52
6, 180209, Note_on_c, 0, 78, 0
6, 180240, Note_on_c, 0, 78, 52
6, 180329, Note_on_c, 0, 78, 0
6, 180360, Note_on_c, 0, 78, 52
6, 180449, Note_on_c, 0, 78, 0
6, 180480, Note_on_c, 0, 78, 52
6, 180569, Note_on_c, 0, 78, 0
6, 180600, Note_on_c, 0, 78, 52
6, 180689, Note_on_c, 0, 78, 0
6, 180720, Note_on_c, 0, 78, 52
6, 180809, Note_on_c, 0, 78, 0
6, 180840, Note_on_c, 0, 78, 52
6, 180929, Note_on_c, 0, 78, 0
6, 180960, Note_on_c, 0, 78, 52
6, 181049, Note_on_c, 0, 78, 0
6, 181080, Note_on_c, 0, 78, 52
6, 181169, Note_on_c, 0, 78, 0
6, 181200, Note_on_c, 0, 78, 52
6, 181289, Note_on_c, 0, 78, 0
6, 181320, Note_on_c, 0, 78, 52
6, 181409, Note_on_c, 0, 78, 0
6, 181440, Note_on_c, 0, 83, 52
6, 181559, Note_on_c, 0, 83, 0
6, 191520, Note_on_c, 0, 76, 52
6, 191639, Note_on_c, 0, 76, 0
6, 191760, Note_on_c, 0, 78, 52
6, 191879, Note_on_c, 0, 78, 0
6, 192000, Note_on_c, 0, 79, 52
6, 192119, Note_on_c, 0, 79, 0
6, 192240, Note_on_c, 0, 78, 52
6, 192359, Note_on_c, 0, 78, 0
6, 192480, Note_on_c, 0, 76, 52
6, 192599, Note_on_c, 0, 76, 0
6, 192720, Note_on_c, 0, 81, 52
6, 192839, Note_on_c, 0, 81, 0
6, 192960, Note_on_c, 0, 78, 52
6, 193079, Note_on_c, 0, 78, 0
6, 193200, Note_on_c, 0, 80, 52
6, 193319, Note_on_c, 0, 80, 0
6, 193440, Note_on_c, 0, 81, 52
6, 193544, Note_on_c, 0, 81, 0
6, 193560, Note_on_c, 0, 69, 52
6, 193607, Note_on_c, 0, 69, 0
6, 193620, Note_on_c, 0, 69, 52
6, 193667, Note_on_c, 0, 69, 0
6, 193680, Note_on_c, 0, 69, 52
6, 193784, Note_on_c, 0, 69, 0
6, 193800, Note_on_c, 0, 69, 52
6, 193904, Note_on_c, 0, 69, 0
6, 193920, Note_on_c, 0, 69, 52
6, 194039, Note_on_c, 0, 69, 0
6, 196920, Note_on_c, 0, 69, 52
6, 197039, Note_on_c, 0, 69, 0
6, 197040, Note_on_c, 0, 69, 52
6, 197159, Note_on_c, 0, 69, 0
6, 197160, Note_on_c, 0, 69, 52
6, 197264, Note_on_c, 0, 69, 0
6, 197280, Note_on_c, 0, 69, 52
6, 197399, Note_on_c, 0, 69, 0
6, 197400, Note_on_c, 0, 69, 52
6, 197519, Note_on_c, 0, 69, 0
6, 197520, Note_on_c, 0, 69, 52
6, 197639, Note_on_c, 0, 69, 0
6, 197640, Note_on_c, 0, 69, 52
6, 197744, Note_on_c, 0, 69, 0
6, 197760, Note_on_c, 0, 69, 52
6, 197864, Note_on_c, 0, 69, 0
6, 197880, Note_on_c, 0, 76, 52
6, 197984, Note_on_c, 0, 76, 0
6, 198000, Note_on_c, 0, 76, 52
6, 198104, Note_on_c, 0, 76, 0
6, 198120, Note_on_c, 0, 81, 52
6, 198224, Note_on_c, 0, 81, 0
6, 198240, Note_on_c, 0, 78, 52
6, 198344, Note_on_c, 0, 78, 0
6, 198360, Note_on_c, 0, 66, 52
6, 198464, Note_on_c, 0, 66, 0
6, 198480, Note_on_c, 0, 66, 52
6, 198599, Note_on_c, 0, 66, 0
6, 198600, Note_on_c, 0, 69, 52
6, 198704, Note_on_c, 0, 69, 0
6, 198720, Note_on_c, 0, 69, 52
6, 198839, Note_on_c, 0, 69, 0
6, 198840, Note_on_c, 0, 74, 52
6, 198944, Note_on_c, 0, 74, 0
6, 198960, Note_on_c, 0, 74, 52
6, 199079, Note_on_c, 0, 74, 0
6, 199080, Note_on_c, 0, 78, 52
6, 199184, Note_on_c, 0, 78, 0
6, 199200, Note_on_c, 0, 78, 52
6, 199319, Note_on_c, 0, 78, 0
6, 199320, Note_on_c, 0, 81, 52
6, 199424, Note_on_c, 0, 81, 0
6, 199440, Note_on_c, 0, 81, 52
6, 199559, Note_on_c, 0, 81, 0
6, 199560, Note_on_c, 0, 86, 52
6, 199664, Note_on_c, 0, 86, 0
6, 199680, Note_on_c, 0, 86, 52
6, 199799, Note_on_c, 0, 86, 0
6, 201840, Note_on_c, 0, 81, 52
6, 201959, Note_on_c, 0, 81, 0
6, 202080, Note_on_c, 0, 81, 52
6, 202199, Note_on_c, 0, 81, 0
6, 202320, Note_on_c, 0, 76, 52
6, 202439, Note_on_c, 0, 76, 0
6, 202560, Note_on_c, 0, 76, 52
6, 202679, Note_on_c, 0, 76, 0
6, 202800, Note_on_c, 0, 79, 52
6, 202919, Note_on_c, 0, 79, 0
6, 203040, Note_on_c, 0, 78, 52
6, 203159, Note_on_c, 0, 78, 0
6, 203640, Note_on_c, 0, 62, 52
6, 203759, Note_on_c, 0, 62, 0
6, 203760, Note_on_c, 0, 62, 52
6, 203879, Note_on_c, 0, 62, 0
6, 203880, Note_on_c, 0, 62, 52
6, 203984, Note_on_c, 0, 62, 0
6, 204000, Note_on_c, 0, 62, 52
6, 204104, Note_on_c, 0, 62, 0
6, 204120, Note_on_c, 0, 81, 52
6, 204224, Note_on_c, 0, 81, 0
6, 204240, Note_on_c, 0, 86, 52
6, 204344, Note_on_c, 0, 86, 0
6, 204360, Note_on_c, 0, 81, 52
6, 204464, Note_on_c, 0, 81, 0
6, 204480, Note_on_c, 0, 83, 52
6, 204599, Note_on_c, 0, 83, 0
6, 207480, Note_on_c, 0, 74, 52
6, 207569, Note_on_c, 0, 74, 0
6, 207600, Note_on_c, 0, 74, 52
6, 207689, Note_on_c, 0, 74, 0
6, 207720, Note_on_c, 0, 74, 52
6, 207809, Note_on_c, 0, 74, 0
6, 207840, Note_on_c, 0, 74, 52
6, 207944, Note_on_c, 0, 74, 0
6, 207960, Note_on_c, 0, 78, 52
6, 208064, Note_on_c, 0, 78, 0
6, 208080, Note_on_c, 0, 78, 52
6, 208184, Note_on_c, 0, 78, 0
6, 208200, Note_on_c, 0, 81, 52
6, 208304, Note_on_c, 0, 81, 0
6, 208320, Note_on_c, 0, 79, 52
6, 208439, Note_on_c, 0, 79, 0
6, 208920, Note_on_c, 0, 76, 52
6, 209024, Note_on_c, 0, 76, 0
6, 209040, Note_on_c, 0, 76, 52
6, 209144, Note_on_c, 0, 76, 0
6, 209160, Note_on_c, 0, 76, 52
6, 209264, Note_on_c, 0, 76, 0
6, 209280, Note_on_c, 0, 76, 52
6, 209384, Note_on_c, 0, 76, 0
6, 209400, Note_on_c, 0, 80, 52
6, 209504, Note_on_c, 0, 80, 0
6, 209520, Note_on_c, 0, 80, 52
6, 209624, Note_on_c, 0, 80, 0
6, 209640, Note_on_c, 0, 83, 52
6, 209744, Note_on_c, 0, 83, 0
6, 209760, Note_on_c, 0, 81, 52
6, 209879, Note_on_c, 0, 81, 0
6, 212280, Note_on_c, 0, 74, 52
6, 212327, Note_on_c, 0, 74, 0
6, 212340, Note_on_c, 0, 76, 52
6, 212387, Note_on_c, 0, 76, 0
6, 212400, Note_on_c, 0, 78, 52
6, 212504, Note_on_c, 0, 78, 0
6, 212520, Note_on_c, 0, 78, 52
6, 212567, Note_on_c, 0, 78, 0
6, 212580, Note_on_c, 0, 79, 52
6, 212627, Note_on_c, 0, 79, 0
6, 212640, Note_on_c, 0, 81, 52
6, 212744, Note_on_c, 0, 81, 0
6, 212760, Note_on_c, 0, 78, 52
6, 212807, Note_on_c, 0, 78, 0
6, 212820, Note_on_c, 0, 79, 52
6, 212867, Note_on_c, 0, 79, 0
6, 212880, Note_on_c, 0, 81, 52
6, 212984, Note_on_c, 0, 81, 0
6, 213000, Note_on_c, 0, 81, 52
6, 213047, Note_on_c, 0, 81, 0
6, 213060, Note_on_c, 0, 83, 52
6, 213107, Note_on_c, 0, 83, 0
6, 213120, Note_on_c, 0, 84, 52
6, 213224, Note_on_c, 0, 84, 0
6, 213240, Note_on_c, 0, 84, 52
6, 213287, Note_on_c, 0, 84, 0
6, 213300, Note_on_c, 0, 83, 52
6, 213347, Note_on_c, 0, 83, 0
6, 213360, Note_on_c, 0, 84, 52
6, 213464, Note_on_c, 0, 84, 0
6, 213480, Note_on_c, 0, 86, 52
6, 213527, Note_on_c, 0, 86, 0
6, 213540, Note_on_c, 0, 84, 52
6, 213587, Note_on_c, 0, 84, 0
6, 213600, Note_on_c, 0, 83, 52
6, 213719, Note_on_c, 0, 83, 0
6, 213960, Note_on_c, 0, 83, 52
6, 214064, Note_on_c, 0, 83, 0
6, 214080, Note_on_c, 0, 81, 52
6, 214199, Note_on_c, 0, 81, 0
6, 214440, Note_on_c, 0, 81, 52
6, 214544, Note_on_c, 0, 81, 0
6, 214560, Note_on_c, 0, 79, 52
6, 214607, Note_on_c, 0, 79, 0
6, 214620, Note_on_c, 0, 78, 52
6, 214667, Note_on_c, 0, 78, 0
6, 214680, Note_on_c, 0, 76, 52
6, 214727, Note_on_c, 0, 76, 0
6, 214740, Note_on_c, 0, 79, 52
6, 214787, Note_on_c, 0, 79, 0
6, 214800, Note_on_c, 0, 78, 52
6, 214847, Note_on_c, 0, 78, 0
6, 214860, Note_on_c, 0, 76, 52
6, 214907, Note_on_c, 0, 76, 0
6, 214920, Note_on_c, 0, 74, 52
6, 214967, Note_on_c, 0, 74, 0
6, 214980, Note_on_c, 0, 78, 52
6, 215027, Note_on_c, 0, 78, 0
6, 215040, Note_on_c, 0, 76, 52
6, 215159, Note_on_c, 0, 76, 0
6, 215640, Note_on_c, 0, 69, 52
6, 215759, Note_on_c, 0, 69, 0
6, 215760, Note_on_c, 0, 69, 52
6, 215879, Note_on_c, 0, 69, 0
6, 215880, Note_on_c, 0, 69, 52
6, 215984, Note_on_c, 0, 69, 0
6, 216000, Note_on_c, 0, 69, 52
6, 216104, Note_on_c, 0, 69, 0
6, 216120, Note_on_c, 0, 76, 52
6, 216224, Note_on_c, 0, 76, 0
6, 216240, Note_on_c, 0, 76, 52
6, 216344, Note_on_c, 0, 76, 0
6, 216360, Note_on_c, 0, 81, 52
6, 216464, Note_on_c, 0, 81, 0
6, 216480, Note_on_c, 0, 81, 52
6, 216599, Note_on_c, 0, 81, 0
6, 216840, Note_on_c, 0, 83, 52
6, 216887, Note_on_c, 0, 83, 0
6, 216900, Note_on_c, 0, 81, 52
6, 216947, Note_on_c, 0, 81, 0
6, 216960, Note_on_c, 0, 79, 52
6, 217079, Note_on_c, 0, 79, 0
6, 217320, Note_on_c, 0, 81, 52
6, 217367, Note_on_c, 0, 81, 0
6, 217380, Note_on_c, 0, 79, 52
6, 217427, Note_on_c, 0, 79, 0
6, 217440, Note_on_c, 0, 78, 52
6, 217529, Note_on_c, 0, 78, 0
6, 217560, Note_on_c, 0, 81, 52
6, 217649, Note_on_c, 0, 81, 0
6, 217680, Note_on_c, 0, 83, 52
6, 217769, Note_on_c, 0, 83, 0
6, 217800, Note_on_c, 0, 79, 52
6, 217889, Note_on_c, 0, 79, 0
6, 217920, Note_on_c, 0, 85, 52
6, 218024, Note_on_c, 0, 85, 0
6, 218040, Note_on_c, 0, 81, 52
6, 218144, Note_on_c, 0, 81, 0
6, 218160, Note_on_c, 0, 86, 52
6, 218264, Note_on_c, 0, 86, 0
6, 218280, Note_on_c, 0, 79, 52
6, 218384, Note_on_c, 0, 79, 0
6, 218400, Note_on_c, 0, 78, 52
6, 218519, Note_on_c, 0, 78, 0
6, 218640, Note_on_c, 0, 76, 52
6, 218744, Note_on_c, 0, 76, 0
6, 218880, Note_on_c, 0, 74, 76
6, 218999, Note_on_c, 0, 74, 0
6, 219360, Note_on_c, 0, 78, 76
6, 219479, Note_on_c, 0, 78, 0
6, 219840, Note_on_c, 0, 81, 76
6, 219959, Note_on_c, 0, 81, 0
6, 220320, Note_on_c, 0, 86, 76
6, 220439, Note_on_c, 0, 86, 0
6, 220980, Note_on_c, 0, 81, 76
6, 221033, Note_on_c, 0, 81, 0
6, 221040, Note_on_c, 0, 81, 76
6, 221213, Note_on_c, 0, 81, 0
6, 221220, Note_on_c, 0, 81, 76
6, 221273, Note_on_c, 0, 81, 0
6, 221280, Note_on_c, 0, 86, 76
6, 221453, Note_on_c, 0, 86, 0
6, 221460, Note_on_c, 0, 81, 76
6, 221513, Note_on_c, 0, 81, 0
6, 221520, Note_on_c, 0, 83, 76
6, 221693, Note_on_c, 0, 83, 0
6, 221700, Note_on_c, 0, 84, 76
6, 221753, Note_on_c, 0, 84, 0
6, 221760, Note_on_c, 0, 83, 76
6, 221999, Note_on_c, 0, 83, 0
6, 229620, Note_on_c, 0, 74, 76
6, 229673, Note_on_c, 0, 74, 0
6, 229680, Note_on_c, 0, 74, 76
6, 229853, Note_on_c, 0, 74, 0
6, 229860, Note_on_c, 0, 78, 76
6, 229913, Note_on_c, 0, 78, 0
6, 229920, Note_on_c, 0, 78, 76
6, 230093, Note_on_c, 0, 78, 0
6, 230100, Note_on_c, 0, 81, 76
6, 230153, Note_on_c, 0, 81, 0
6, 230160, Note_on_c, 0, 81, 76
6, 230333, Note_on_c, 0, 81, 0
6, 230340, Note_on_c, 0, 83, 76
6, 230393, Note_on_c, 0, 83, 0
6, 230400, Note_on_c, 0, 83, 76
6, 230519, Note_on_c, 0, 83, 0
6, 230880, Note_on_c, 0, 79, 76
6, 230999, Note_on_c, 0, 79, 0
6, 231540, Note_on_c, 0, 76, 76
6, 231593, Note_on_c, 0, 76, 0
6, 231600, Note_on_c, 0, 76, 76
6, 231773, Note_on_c, 0, 76, 0
6, 231780, Note_on_c, 0, 81, 76
6, 231833, Note_on_c, 0, 81, 0
6, 231840, Note_on_c, 0, 81, 76
6, 232013, Note_on_c, 0, 81, 0
6, 232020, Note_on_c, 0, 83, 76
6, 232073, Note_on_c, 0, 83, 0
6, 232080, Note_on_c, 0, 79, 76
6, 232253, Note_on_c, 0, 79, 0
6, 232260, Note_on_c, 0, 81, 76
6, 232313, Note_on_c, 0, 81, 0
6, 232320, Note_on_c, 0, 78, 76
6, 232493, Note_on_c, 0, 78, 0
6, 232500, Note_on_c, 0, 79, 76
6, 232553, Note_on_c, 0, 79, 0
6, 232560, Note_on_c, 0, 78, 76
6, 232733, Note_on_c, 0, 78, 0
6, 232740, Note_on_c, 0, 76, 76
6, 232793, Note_on_c, 0, 76, 0
6, 232800, Note_on_c, 0, 76, 76
6, 233147, Note_on_c, 0, 76, 0
6, 233160, Note_on_c, 0, 74, 76
6, 233267, Note_on_c, 0, 74, 0
6, 233280, Note_on_c, 0, 74, 76
6, 234239, Note_on_c, 0, 74, 0
6, 234239, End_track
7, 0, Start_track
7, 0, Title_t, "Trumpet II in D"
7, 0, MIDI_port, 0
7, 0, Program_c, 1, 56
7, 0, Control_c, 1, 10, 64
7, 0, Control_c, 1, 11, 127
7, 0, Control_c, 1, 7, 96
7, 0, Note_on_c, 1, 78, 76
7, 119, Note_on_c, 1, 78, 0
7, 480, Note_on_c, 1, 78, 76
7, 599, Note_on_c, 1, 78, 0
7, 960, Note_on_c, 1, 79, 76
7, 1079, Note_on_c, 1, 79, 0
7, 1440, Note_on_c, 1, 76, 76
7, 1559, Note_on_c, 1, 76, 0
7, 2100, Note_on_c, 1, 76, 76
7, 2153, Note_on_c, 1, 76, 0
7, 2160, Note_on_c, 1, 76, 76
7, 2333, Note_on_c, 1, 76, 0
7, 2340, Note_on_c, 1, 81, 76
7, 2393, Note_on_c, 1, 81, 0
7, 2400, Note_on_c, 1, 81, 76
7, 2573, Note_on_c, 1, 81, 0
7, 2580, Note_on_c, 1, 76, 76
7, 2633, Note_on_c, 1, 76, 0
7, 2640, Note_on_c, 1, 76, 76
7, 2813, Note_on_c, 1, 76, 0
7, 2820, Note_on_c, 1, 76, 76
7, 2873, Note_on_c, 1, 76, 0
7, 2880, Note_on_c, 1, 74, 76
7, 3053, Note_on_c, 1, 74, 0
7, 3060, Note_on_c, 1, 78, 76
7, 3113, Note_on_c, 1, 78, 0
7, 3120, Note_on_c, 1, 78, 76
7, 3293, Note_on_c, 1, 78, 0
7, 3300, Note_on_c, 1, 74, 76
7, 3353, Note_on_c, 1, 74, 0
7, 3360, Note_on_c, 1, 74, 76
7, 3533, Note_on_c, 1, 74, 0
7, 3540, Note_on_c, 1, 69, 76
7, 3593, Note_on_c, 1, 69, 0
7, 3600, Note_on_c, 1, 69, 76
7, 3773, Note_on_c, 1, 69, 0
7, 3780, Note_on_c, 1, 66, 76
7, 3833, Note_on_c, 1, 66, 0
7, 3840, Note_on_c, 1, 66, 76
7, 4013, Note_on_c, 1, 66, 0
7, 4020, Note_on_c, 1, 69, 76
7, 4073, Note_on_c, 1, 69, 0
7, 4080, Note_on_c, 1, 69, 76
7, 4253, Note_on_c, 1, 69, 0
7, 4260, Note_on_c, 1, 66, 76
7, 4313, Note_on_c, 1, 66, 0
7, 4320, Note_on_c, 1, 62, 76
7, 4439, Note_on_c, 1, 62, 0
7, 16500, Note_on_c, 1, 81, 76
7, 16553, Note_on_c, 1, 81, 0
7, 16560, Note_on_c, 1, 81, 76
7, 16733, Note_on_c, 1, 81, 0
7, 16740, Note_on_c, 1, 76, 76
7, 16793, Note_on_c, 1, 76, 0
7, 16800, Note_on_c, 1, 76, 76
7, 16919, Note_on_c, 1, 76, 0
7, 17460, Note_on_c, 1, 78, 76
7, 17513, Note_on_c, 1, 78, 0
7, 17520, Note_on_c, 1, 78, 76
7, 17693, Note_on_c, 1, 78, 0
7, 17700, Note_on_c, 1, 74, 76
7, 17753, Note_on_c, 1, 74, 0
7, 17760, Note_on_c, 1, 74, 76
7, 17879, Note_on_c, 1, 74, 0
7, 19380, Note_on_c, 1, 69, 76
7, 19433, Note_on_c, 1, 69, 0
7, 19440, Note_on_c, 1, 69, 76
7, 19613, Note_on_c, 1, 69, 0
7, 19620, Note_on_c, 1, 76, 76
7, 19673, Note_on_c, 1, 76, 0
7, 19680, Note_on_c, 1, 76, 76
7, 19853, Note_on_c, 1, 76, 0
7, 19860, Note_on_c, 1, 78, 76
7, 19913, Note_on_c, 1, 78, 0
7, 19920, Note_on_c, 1, 78, 76
7, 20093, Note_on_c, 1, 78, 0
7, 20100, Note_on_c, 1, 76, 76
7, 20153, Note_on_c, 1, 76, 0
7, 20160, Note_on_c, 1, 69, 76
7, 20279, Note_on_c, 1, 69, 0
7, 20640, Note_on_c, 1, 69, 76
7, 20759, Note_on_c, 1, 69, 0
7, 21300, Note_on_c, 1, 76, 76
7, 21353, Note_on_c, 1, 76, 0
7, 21360, Note_on_c, 1, 76, 76
7, 21533, Note_on_c, 1, 76, 0
7, 21540, Note_on_c, 1, 76, 76
7, 21593, Note_on_c, 1, 76, 0
7, 21600, Note_on_c, 1, 74, 76
7, 21773, Note_on_c, 1, 74, 0
7, 21780, Note_on_c, 1, 78, 76
7, 21833, Note_on_c, 1, 78, 0
7, 21840, Note_on_c, 1, 81, 76
7, 22013, Note_on_c, 1, 81, 0
7, 22020, Note_on_c, 1, 80, 76
7, 22073, Note_on_c, 1, 80, 0
7, 22080, Note_on_c, 1, 81, 76
7, 22559, Note_on_c, 1, 81, 0
7, 23040, Note_on_c, 1, 78, 76
7, 23159, Note_on_c, 1, 78, 0
7, 23520, Note_on_c, 1, 78, 76
7, 23639, Note_on_c, 1, 78, 0
7, 24000, Note_on_c, 1, 79, 76
7, 24119, Note_on_c, 1, 79, 0
7, 24480, Note_on_c, 1, 76, 76
7, 24599, Note_on_c, 1, 76, 0
7, 25140, Note_on_c, 1, 76, 76
7, 25193, Note_on_c, 1, 76, 0
7, 25200, Note_on_c, 1, 76, 76
7, 25373, Note_on_c, 1, 76, 0
7, 25380, Note_on_c, 1, 81, 76
7, 25433, Note_on_c, 1, 81, 0
7, 25440, Note_on_c, 1, 81, 76
7, 25613, Note_on_c, 1, 81, 0
7, 25620, Note_on_c, 1, 76, 76
7, 25673, Note_on_c, 1, 76, 0
7, 25680, Note_on_c, 1, 76, 76
7, 25853, Note_on_c, 1, 76, 0
7, 25860, Note_on_c, 1, 76, 76
7, 25913, Note_on_c, 1, 76, 0
7, 25920, Note_on_c, 1, 74, 76
7, 26093, Note_on_c, 1, 74, 0
7, 26100, Note_on_c, 1, 78, 76
7, 26153, Note_on_c, 1, 78, 0
7, 26160, Note_on_c, 1, 78, 76
7, 26333, Note_on_c, 1, 78, 0
7, 26340, Note_on_c, 1, 74, 76
7, 26393, Note_on_c, 1, 74, 0
7, 26400, Note_on_c, 1, 74, 76
7, 26573, Note_on_c, 1, 74, 0
7, 26580, Note_on_c, 1, 69, 76
7, 26633, Note_on_c, 1, 69, 0
7, 26640, Note_on_c, 1, 69, 76
7, 26813, Note_on_c, 1, 69, 0
7, 26820, Note_on_c, 1, 66, 76
7, 26873, Note_on_c, 1, 66, 0
7, 26880, Note_on_c, 1, 66, 76
7, 27053, Note_on_c, 1, 66, 0
7, 27060, Note_on_c, 1, 69, 76
7, 27113, Note_on_c, 1, 69, 0
7, 27120, Note_on_c, 1, 69, 76
7, 27293, Note_on_c, 1, 69, 0
7, 27300, Note_on_c, 1, 66, 76
7, 27353, Note_on_c, 1, 66, 0
7, 27360, Note_on_c, 1, 62, 76
7, 27479, Note_on_c, 1, 62, 0
7, 39540, Note_on_c, 1, 81, 76
7, 39593, Note_on_c, 1, 81, 0
7, 39600, Note_on_c, 1, 81, 76
7, 39773, Note_on_c, 1, 81, 0
7, 39780, Note_on_c, 1, 76, 76
7, 39833, Note_on_c, 1, 76, 0
7, 39840, Note_on_c, 1, 76, 76
7, 39959, Note_on_c, 1, 76, 0
7, 40500, Note_on_c, 1, 78, 76
7, 40553, Note_on_c, 1, 78, 0
7, 40560, Note_on_c, 1, 78, 76
7, 40733, Note_on_c, 1, 78, 0
7, 40740, Note_on_c, 1, 74, 76
7, 40793, Note_on_c, 1, 74, 0
7, 40800, Note_on_c, 1, 74, 76
7, 40919, Note_on_c, 1, 74, 0
7, 42420, Note_on_c, 1, 69, 76
7, 42473, Note_on_c, 1, 69, 0
7, 42480, Note_on_c, 1, 69, 76
7, 42653, Note_on_c, 1, 69, 0
7, 42660, Note_on_c, 1, 76, 76
7, 42713, Note_on_c, 1, 76, 0
7, 42720, Note_on_c, 1, 76, 76
7, 42893, Note_on_c, 1, 76, 0
7, 42900, Note_on_c, 1, 78, 76
7, 42953, Note_on_c, 1, 78, 0
7, 42960, Note_on_c, 1, 78, 76
7, 43133, Note_on_c, 1, 78, 0
7, 43140, Note_on_c, 1, 76, 76
7, 43193, Note_on_c, 1, 76, 0
7, 43200, Note_on_c, 1, 69, 76
7, 43319, Note_on_c, 1, 69, 0
7, 43680, Note_on_c, 1, 69, 76
7, 43799, Note_on_c, 1, 69, 0
7, 44340, Note_on_c, 1, 76, 76
7, 44393, Note_on_c, 1, 76, 0
7, 44400, Note_on_c, 1, 76, 76
7, 44573, Note_on_c, 1, 76, 0
7, 44580, Note_on_c, 1, 76, 76
7, 44633, Note_on_c, 1, 76, 0
7, 44640, Note_on_c, 1, 74, 76
7, 44813, Note_on_c, 1, 74, 0
7, 44820, Note_on_c, 1, 78, 76
7, 44873, Note_on_c, 1, 78, 0
7, 44880, Note_on_c, 1, 81, 76
7, 45053, Note_on_c, 1, 81, 0
7, 45060, Note_on_c, 1, 80, 76
7, 45113, Note_on_c, 1, 80, 0
7, 45120, Note_on_c, 1, 81, 76
7, 45359, Note_on_c, 1, 81, 0
7, 51480, Note_on_c, 1, 74, 76
7, 51569, Note_on_c, 1, 74, 0
7, 51600, Note_on_c, 1, 74, 76
7, 51689, Note_on_c, 1, 74, 0
7, 51720, Note_on_c, 1, 74, 76
7, 51809, Note_on_c, 1, 74, 0
7, 51840, Note_on_c, 1, 74, 76
7, 51959, Note_on_c, 1, 74, 0
7, 52920, Note_on_c, 1, 76, 76
7, 53009, Note_on_c, 1, 76, 0
7, 53040, Note_on_c, 1, 76, 76
7, 53129, Note_on_c, 1, 76, 0
7, 53160, Note_on_c, 1, 76, 76
7, 53249, Note_on_c, 1, 76, 0
7, 53280, Note_on_c, 1, 76, 76
7, 53399, Note_on_c, 1, 76, 0
7, 55800, Note_on_c, 1, 62, 76
7, 55904, Note_on_c, 1, 62, 0
7, 55920, Note_on_c, 1, 62, 76
7, 56024, Note_on_c, 1, 62, 0
7, 56040, Note_on_c, 1, 62, 76
7, 56144, Note_on_c, 1, 62, 0
7, 56160, Note_on_c, 1, 62, 76
7, 56264, Note_on_c, 1, 62, 0
7, 56280, Note_on_c, 1, 62, 76
7, 56384, Note_on_c, 1, 62, 0
7, 56400, Note_on_c, 1, 62, 76
7, 56504, Note_on_c, 1, 62, 0
7, 56520, Note_on_c, 1, 62, 76
7, 56624, Note_on_c, 1, 62, 0
7, 56640, Note_on_c, 1, 62, 76
7, 56744, Note_on_c, 1, 62, 0
7, 56760, Note_on_c, 1, 78, 76
7, 56807, Note_on_c, 1, 78, 0
7, 56820, Note_on_c, 1, 79, 76
7, 56867, Note_on_c, 1, 79, 0
7, 56880, Note_on_c, 1, 81, 76
7, 56984, Note_on_c, 1, 81, 0
7, 57000, Note_on_c, 1, 83, 76
7, 57047, Note_on_c, 1, 83, 0
7, 57060, Note_on_c, 1, 81, 76
7, 57107, Note_on_c, 1, 81, 0
7, 57120, Note_on_c, 1, 79, 76
7, 57239, Note_on_c, 1, 79, 0
7, 57480, Note_on_c, 1, 79, 76
7, 57584, Note_on_c, 1, 79, 0
7, 57600, Note_on_c, 1, 78, 76
7, 57719, Note_on_c, 1, 78, 0
7, 57960, Note_on_c, 1, 78, 76
7, 58064, Note_on_c, 1, 78, 0
7, 58080, Note_on_c, 1, 76, 76
7, 58184, Note_on_c, 1, 76, 0
7, 58200, Note_on_c, 1, 81, 76
7, 58304, Note_on_c, 1, 81, 0
7, 58320, Note_on_c, 1, 81, 76
7, 58424, Note_on_c, 1, 81, 0
7, 58440, Note_on_c, 1, 81, 76
7, 58544, Note_on_c, 1, 81, 0
7, 58560, Note_on_c, 1, 81, 76
7, 58679, Note_on_c, 1, 81, 0
7, 59640, Note_on_c, 1, 69, 76
7, 59744, Note_on_c, 1, 69, 0
7, 59760, Note_on_c, 1, 69, 76
7, 59864, Note_on_c, 1, 69, 0
7, 59880, Note_on_c, 1, 76, 76
7, 59984, Note_on_c, 1, 76, 0
7, 60000, Note_on_c, 1, 78, 76
7, 60104, Note_on_c, 1, 78, 0
7, 60120, Note_on_c, 1, 81, 76
7, 60167, Note_on_c, 1, 81, 0
7, 60180, Note_on_c, 1, 79, 76
7, 60227, Note_on_c, 1, 79, 0
7, 60240, Note_on_c, 1, 78, 76
7, 60344, Note_on_c, 1, 78, 0
7, 60360, Note_on_c, 1, 74, 76
7, 60464, Note_on_c, 1, 74, 0
7, 60480, Note_on_c, 1, 76, 76
7, 60584, Note_on_c, 1, 76, 0
7, 60600, Note_on_c, 1, 79, 76
7, 60647, Note_on_c, 1, 79, 0
7, 60660, Note_on_c, 1, 78, 76
7, 60707, Note_on_c, 1, 78, 0
7, 60720, Note_on_c, 1, 76, 76
7, 60824, Note_on_c, 1, 76, 0
7, 60840, Note_on_c, 1, 69, 76
7, 60944, Note_on_c, 1, 69, 0
7, 60960, Note_on_c, 1, 69, 76
7, 61064, Note_on_c, 1, 69, 0
7, 61080, Note_on_c, 1, 74, 76
7, 61184, Note_on_c, 1, 74, 0
7, 61200, Note_on_c, 1, 74, 76
7, 61304, Note_on_c, 1, 74, 0
7, 61320, Note_on_c, 1, 76, 76
7, 61424, Note_on_c, 1, 76, 0
7, 61440, Note_on_c, 1, 69, 76
7, 61544, Note_on_c, 1, 69, 0
7, 61560, Note_on_c, 1, 76, 76
7, 61664, Note_on_c, 1, 76, 0
7, 61680, Note_on_c, 1, 78, 76
7, 61727, Note_on_c, 1, 78, 0
7, 61740, Note_on_c, 1, 76, 76
7, 61787, Note_on_c, 1, 76, 0
7, 61800, Note_on_c, 1, 78, 76
7, 61847, Note_on_c, 1, 78, 0
7, 61860, Note_on_c, 1, 79, 76
7, 61907, Note_on_c, 1, 79, 0
7, 61920, Note_on_c, 1, 81, 76
7, 62039, Note_on_c, 1, 81, 0
7, 62160, Note_on_c, 1, 79, 76
7, 62279, Note_on_c, 1, 79, 0
7, 62400, Note_on_c, 1, 78, 76
7, 62519, Note_on_c, 1, 78, 0
7, 70680, Note_on_c, 1, 66, 52
7, 70799, Note_on_c, 1, 66, 0
7, 70800, Note_on_c, 1, 66, 52
7, 70919, Note_on_c, 1, 66, 0
7, 70920, Note_on_c, 1, 66, 52
7, 71024, Note_on_c, 1, 66, 0
7, 71040, Note_on_c, 1, 66, 52
7, 71159, Note_on_c, 1, 66, 0
7, 71160, Note_on_c, 1, 66, 52
7, 71279, Note_on_c, 1, 66, 0
7, 71280, Note_on_c, 1, 66, 52
7, 71399, Note_on_c, 1, 66, 0
7, 71400, Note_on_c, 1, 66, 52
7, 71504, Note_on_c, 1, 66, 0
7, 71520, Note_on_c, 1, 66, 52
7, 71639, Note_on_c, 1, 66, 0
7, 75000, Note_on_c, 1, 69, 52
7, 75119, Note_on_c, 1, 69, 0
7, 75120, Note_on_c, 1, 69, 52
7, 75239, Note_on_c, 1, 69, 0
7, 75240, Note_on_c, 1, 69, 52
7, 75344, Note_on_c, 1, 69, 0
7, 75360, Note_on_c, 1, 69, 52
7, 75464, Note_on_c, 1, 69, 0
7, 75480, Note_on_c, 1, 69, 52
7, 75584, Note_on_c, 1, 69, 0
7, 75600, Note_on_c, 1, 76, 52
7, 75704, Note_on_c, 1, 76, 0
7, 75720, Note_on_c, 1, 69, 52
7, 75824, Note_on_c, 1, 69, 0
7, 75840, Note_on_c, 1, 69, 52
7, 75959, Note_on_c, 1, 69, 0
7, 78120, Note_on_c, 1, 76, 52
7, 78224, Note_on_c, 1, 76, 0
7, 78240, Note_on_c, 1, 79, 52
7, 78344, Note_on_c, 1, 79, 0
7, 78360, Note_on_c, 1, 76, 52
7, 78479, Note_on_c, 1, 76, 0
7, 78600, Note_on_c, 1, 76, 52
7, 78704, Note_on_c, 1, 76, 0
7, 78720, Note_on_c, 1, 81, 52
7, 78824, Note_on_c, 1, 81, 0
7, 78840, Note_on_c, 1, 69, 52
7, 78944, Note_on_c, 1, 69, 0
7, 78960, Note_on_c, 1, 69, 52
7, 79064, Note_on_c, 1, 69, 0
7, 79080, Note_on_c, 1, 69, 52
7, 79184, Note_on_c, 1, 69, 0
7, 79200, Note_on_c, 1, 69, 52
7, 79319, Note_on_c, 1, 69, 0
7, 79560, Note_on_c, 1, 78, 52
7, 79664, Note_on_c, 1, 78, 0
7, 79680, Note_on_c, 1, 81, 52
7, 79784, Note_on_c, 1, 81, 0
7, 79800, Note_on_c, 1, 78, 52
7, 79919, Note_on_c, 1, 78, 0
7, 80040, Note_on_c, 1, 78, 52
7, 80144, Note_on_c, 1, 78, 0
7, 80160, Note_on_c, 1, 83, 52
7, 80264, Note_on_c, 1, 83, 0
7, 80280, Note_on_c, 1, 78, 52
7, 80399, Note_on_c, 1, 78, 0
7, 81240, Note_on_c, 1, 76, 52
7, 81344, Note_on_c, 1, 76, 0
7, 81360, Note_on_c, 1, 76, 52
7, 81464, Note_on_c, 1, 76, 0
7, 81480, Note_on_c, 1, 76, 52
7, 81584, Note_on_c, 1, 76, 0
7, 81600, Note_on_c, 1, 76, 52
7, 81704, Note_on_c, 1, 76, 0
7, 81720, Note_on_c, 1, 80, 52
7, 81824, Note_on_c, 1, 80, 0
7, 81840, Note_on_c, 1, 83, 52
7, 81944, Note_on_c, 1, 83, 0
7, 81960, Note_on_c, 1, 80, 52
7, 82064, Note_on_c, 1, 80, 0
7, 82080, Note_on_c, 1, 76, 52
7, 82199, Note_on_c, 1, 76, 0
7, 86520, Note_on_c, 1, 78, 52
7, 86639, Note_on_c, 1, 78, 0
7, 86640, Note_on_c, 1, 78, 52
7, 86759, Note_on_c, 1, 78, 0
7, 86760, Note_on_c, 1, 78, 52
7, 86864, Note_on_c, 1, 78, 0
7, 86880, Note_on_c, 1, 78, 52
7, 86999, Note_on_c, 1, 78, 0
7, 87000, Note_on_c, 1, 78, 52
7, 87119, Note_on_c, 1, 78, 0
7, 87120, Note_on_c, 1, 78, 52
7, 87239, Note_on_c, 1, 78, 0
7, 87240, Note_on_c, 1, 78, 52
7, 87344, Note_on_c, 1, 78, 0
7, 87360, Note_on_c, 1, 78, 52
7, 87479, Note_on_c, 1, 78, 0
7, 97440, Note_on_c, 1, 81, 52
7, 97559, Note_on_c, 1, 81, 0
7, 97680, Note_on_c, 1, 74, 52
7, 97799, Note_on_c, 1, 74, 0
7, 97920, Note_on_c, 1, 76, 52
7, 98039, Note_on_c, 1, 76, 0
7, 98160, Note_on_c, 1, 74, 52
7, 98279, Note_on_c, 1, 74, 0
7, 98400, Note_on_c, 1, 81, 52
7, 98519, Note_on_c, 1, 81, 0
7, 98640, Note_on_c, 1, 76, 52
7, 98759, Note_on_c, 1, 76, 0
7, 98880, Note_on_c, 1, 74, 52
7, 98999, Note_on_c, 1, 74, 0
7, 99120, Note_on_c, 1, 74, 52
7, 99239, Note_on_c, 1, 74, 0
7, 99360, Note_on_c, 1, 76, 52
7, 99464, Note_on_c, 1, 76, 0
7, 99480, Note_on_c, 1, 69, 52
7, 99527, Note_on_c, 1, 69, 0
7, 99540, Note_on_c, 1, 69, 52
7, 99587, Note_on_c, 1, 69, 0
7, 99600, Note_on_c, 1, 69, 52
7, 99704, Note_on_c, 1, 69, 0
7, 99720, Note_on_c, 1, 69, 52
7, 99824, Note_on_c, 1, 69, 0
7, 99840, Note_on_c, 1, 69, 52
7, 99959, Note_on_c, 1, 69, 0
7, 103320, Note_on_c, 1, 69, 52
7, 103439, Note_on_c, 1, 69, 0
7, 103440, Note_on_c, 1, 69, 52
7, 103559, Note_on_c, 1, 69, 0
7, 103560, Note_on_c, 1, 69, 52
7, 103664, Note_on_c, 1, 69, 0
7, 103680, Note_on_c, 1, 69, 52
7, 103784, Note_on_c, 1, 69, 0
7, 103800, Note_on_c, 1, 69, 52
7, 103904, Note_on_c, 1, 69, 0
7, 103920, Note_on_c, 1, 69, 52
7, 104024, Note_on_c, 1, 69, 0
7, 104040, Note_on_c, 1, 76, 52
7, 104144, Note_on_c, 1, 76, 0
7, 104160, Note_on_c, 1, 74, 52
7, 104264, Note_on_c, 1, 74, 0
7, 104280, Note_on_c, 1, 62, 52
7, 104384, Note_on_c, 1, 62, 0
7, 104400, Note_on_c, 1, 62, 52
7, 104519, Note_on_c, 1, 62, 0
7, 104520, Note_on_c, 1, 66, 52
7, 104624, Note_on_c, 1, 66, 0
7, 104640, Note_on_c, 1, 66, 52
7, 104759, Note_on_c, 1, 66, 0
7, 104760, Note_on_c, 1, 69, 52
7, 104864, Note_on_c, 1, 69, 0
7, 104880, Note_on_c, 1, 69, 52
7, 104999, Note_on_c, 1, 69, 0
7, 105000, Note_on_c, 1, 74, 52
7, 105104, Note_on_c, 1, 74, 0
7, 105120, Note_on_c, 1, 74, 52
7, 105239, Note_on_c, 1, 74, 0
7, 105240, Note_on_c, 1, 78, 52
7, 105344, Note_on_c, 1, 78, 0
7, 105360, Note_on_c, 1, 78, 52
7, 105479, Note_on_c, 1, 78, 0
7, 105480, Note_on_c, 1, 81, 52
7, 105584, Note_on_c, 1, 81, 0
7, 105600, Note_on_c, 1, 83, 52
7, 105719, Note_on_c, 1, 83, 0
7, 107760, Note_on_c, 1, 76, 52
7, 107879, Note_on_c, 1, 76, 0
7, 108000, Note_on_c, 1, 76, 52
7, 108119, Note_on_c, 1, 76, 0
7, 108240, Note_on_c, 1, 81, 52
7, 108359, Note_on_c, 1, 81, 0
7, 108480, Note_on_c, 1, 81, 52
7, 108599, Note_on_c, 1, 81, 0
7, 108720, Note_on_c, 1, 76, 52
7, 108839, Note_on_c, 1, 76, 0
7, 108960, Note_on_c, 1, 74, 52
7, 109079, Note_on_c, 1, 74, 0
7, 109320, Note_on_c, 1, 62, 52
7, 109424, Note_on_c, 1, 62, 0
7, 109440, Note_on_c, 1, 62, 52
7, 109544, Note_on_c, 1, 62, 0
7, 109560, Note_on_c, 1, 62, 52
7, 109679, Note_on_c, 1, 62, 0
7, 109680, Note_on_c, 1, 62, 52
7, 109799, Note_on_c, 1, 62, 0
7, 109800, Note_on_c, 1, 62, 52
7, 109904, Note_on_c, 1, 62, 0
7, 109920, Note_on_c, 1, 62, 52
7, 110024, Note_on_c, 1, 62, 0
7, 110040, Note_on_c, 1, 78, 52
7, 110144, Note_on_c, 1, 78, 0
7, 110160, Note_on_c, 1, 74, 52
7, 110264, Note_on_c, 1, 74, 0
7, 110280, Note_on_c, 1, 78, 52
7, 110384, Note_on_c, 1, 78, 0
7, 110400, Note_on_c, 1, 79, 52
7, 110519, Note_on_c, 1, 79, 0
7, 113880, Note_on_c, 1, 74, 52
7, 113984, Note_on_c, 1, 74, 0
7, 114000, Note_on_c, 1, 74, 52
7, 114104, Note_on_c, 1, 74, 0
7, 114120, Note_on_c, 1, 74, 52
7, 114224, Note_on_c, 1, 74, 0
7, 114240, Note_on_c, 1, 74, 52
7, 114359, Note_on_c, 1, 74, 0
7, 115320, Note_on_c, 1, 76, 52
7, 115424, Note_on_c, 1, 76, 0
7, 115440, Note_on_c, 1, 76, 52
7, 115544, Note_on_c, 1, 76, 0
7, 115560, Note_on_c, 1, 76, 52
7, 115664, Note_on_c, 1, 76, 0
7, 115680, Note_on_c, 1, 76, 52
7, 115799, Note_on_c, 1, 76, 0
7, 118200, Note_on_c, 1, 62, 52
7, 118319, Note_on_c, 1, 62, 0
7, 118320, Note_on_c, 1, 62, 52
7, 118439, Note_on_c, 1, 62, 0
7, 118440, Note_on_c, 1, 62, 52
7, 118544, Note_on_c, 1, 62, 0
7, 118560, Note_on_c, 1, 62, 52
7, 118679, Note_on_c, 1, 62, 0
7, 118680, Note_on_c, 1, 62, 52
7, 118799, Note_on_c, 1, 62, 0
7, 118800, Note_on_c, 1, 62, 52
7, 118919, Note_on_c, 1, 62, 0
7, 118920, Note_on_c, 1, 62, 52
7, 119024, Note_on_c, 1, 62, 0
7, 119040, Note_on_c, 1, 62, 52
7, 119144, Note_on_c, 1, 62, 0
7, 119160, Note_on_c, 1, 78, 52
7, 119207, Note_on_c, 1, 78, 0
7, 119220, Note_on_c, 1, 79, 52
7, 119267, Note_on_c, 1, 79, 0
7, 119280, Note_on_c, 1, 81, 52
7, 119384, Note_on_c, 1, 81, 0
7, 119400, Note_on_c, 1, 83, 52
7, 119447, Note_on_c, 1, 83, 0
7, 119460, Note_on_c, 1, 81, 52
7, 119507, Note_on_c, 1, 81, 0
7, 119520, Note_on_c, 1, 79, 52
7, 119639, Note_on_c, 1, 79, 0
7, 119880, Note_on_c, 1, 79, 52
7, 119984, Note_on_c, 1, 79, 0
7, 120000, Note_on_c, 1, 78, 52
7, 120119, Note_on_c, 1, 78, 0
7, 120360, Note_on_c, 1, 78, 52
7, 120464, Note_on_c, 1, 78, 0
7, 120480, Note_on_c, 1, 76, 52
7, 120584, Note_on_c, 1, 76, 0
7, 120600, Note_on_c, 1, 81, 52
7, 120704, Note_on_c, 1, 81, 0
7, 120720, Note_on_c, 1, 81, 52
7, 120824, Note_on_c, 1, 81, 0
7, 120840, Note_on_c, 1, 81, 52
7, 120944, Note_on_c, 1, 81, 0
7, 120960, Note_on_c, 1, 81, 52
7, 121079, Note_on_c, 1, 81, 0
7, 122040, Note_on_c, 1, 69, 52
7, 122144, Note_on_c, 1, 69, 0
7, 122160, Note_on_c, 1, 69, 52
7, 122264, Note_on_c, 1, 69, 0
7, 122280, Note_on_c, 1, 76, 52
7, 122384, Note_on_c, 1, 76, 0
7, 122400, Note_on_c, 1, 78, 52
7, 122504, Note_on_c, 1, 78, 0
7, 122520, Note_on_c, 1, 81, 52
7, 122567, Note_on_c, 1, 81, 0
7, 122580, Note_on_c, 1, 79, 52
7, 122627, Note_on_c, 1, 79, 0
7, 122640, Note_on_c, 1, 78, 52
7, 122744, Note_on_c, 1, 78, 0
7, 122760, Note_on_c, 1, 74, 52
7, 122864, Note_on_c, 1, 74, 0
7, 122880, Note_on_c, 1, 76, 52
7, 122984, Note_on_c, 1, 76, 0
7, 123000, Note_on_c, 1, 79, 52
7, 123047, Note_on_c, 1, 79, 0
7, 123060, Note_on_c, 1, 78, 52
7, 123107, Note_on_c, 1, 78, 0
7, 123120, Note_on_c, 1, 76, 52
7, 123224, Note_on_c, 1, 76, 0
7, 123240, Note_on_c, 1, 69, 52
7, 123344, Note_on_c, 1, 69, 0
7, 123360, Note_on_c, 1, 69, 52
7, 123464, Note_on_c, 1, 69, 0
7, 123480, Note_on_c, 1, 74, 52
7, 123584, Note_on_c, 1, 74, 0
7, 123600, Note_on_c, 1, 74, 52
7, 123704, Note_on_c, 1, 74, 0
7, 123720, Note_on_c, 1, 76, 52
7, 123824, Note_on_c, 1, 76, 0
7, 123840, Note_on_c, 1, 69, 52
7, 123944, Note_on_c, 1, 69, 0
7, 123960, Note_on_c, 1, 76, 52
7, 124064, Note_on_c, 1, 76, 0
7, 124080, Note_on_c, 1, 78, 52
7, 124127, Note_on_c, 1, 78, 0
7, 124140, Note_on_c, 1, 76, 52
7, 124187, Note_on_c, 1, 76, 0
7, 124200, Note_on_c, 1, 78, 52
7, 124247, Note_on_c, 1, 78, 0
7, 124260, Note_on_c, 1, 79, 52
7, 124307, Note_on_c, 1, 79, 0
7, 124320, Note_on_c, 1, 81, 52
7, 124439, Note_on_c, 1, 81, 0
7, 124560, Note_on_c, 1, 79, 52
7, 124679, Note_on_c, 1, 79, 0
7, 124800, Note_on_c, 1, 78, 76
7, 124919, Note_on_c, 1, 78, 0
7, 125280, Note_on_c, 1, 74, 76
7, 125399, Note_on_c, 1, 74, 0
7, 125760, Note_on_c, 1, 78, 76
7, 125879, Note_on_c, 1, 78, 0
7, 126240, Note_on_c, 1, 81, 76
7, 126359, Note_on_c, 1, 81, 0
7, 126900, Note_on_c, 1, 78, 76
7, 126953, Note_on_c, 1, 78, 0
7, 126960, Note_on_c, 1, 78, 76
7, 127133, Note_on_c, 1, 78, 0
7, 127140, Note_on_c, 1, 81, 76
7, 127193, Note_on_c, 1, 81, 0
7, 127200, Note_on_c, 1, 79, 76
7, 127373, Note_on_c, 1, 79, 0
7, 127380, Note_on_c, 1, 79, 76
7, 127433, Note_on_c, 1, 79, 0
7, 127440, Note_on_c, 1, 79, 76
7, 127613, Note_on_c, 1, 79, 0
7, 127620, Note_on_c, 1, 79, 76
7, 127673, Note_on_c, 1, 79, 0
7, 127680, Note_on_c, 1, 79, 76
7, 127919, Note_on_c, 1, 79, 0
7, 135540, Note_on_c, 1, 69, 76
7, 135593, Note_on_c, 1, 69, 0
7, 135600, Note_on_c, 1, 69, 76
7, 135773, Note_on_c, 1, 69, 0
7, 135780, Note_on_c, 1, 74, 76
7, 135833, Note_on_c, 1, 74, 0
7, 135840, Note_on_c, 1, 74, 76
7, 136013, Note_on_c, 1, 74, 0
7, 136020, Note_on_c, 1, 78, 76
7, 136073, Note_on_c, 1, 78, 0
7, 136080, Note_on_c, 1, 78, 76
7, 136253, Note_on_c, 1, 78, 0
7, 136260, Note_on_c, 1, 79, 76
7, 136313, Note_on_c, 1, 79, 0
7, 136320, Note_on_c, 1, 79, 76
7, 136439, Note_on_c, 1, 79, 0
7, 136800, Note_on_c, 1, 83, 76
7, 136919, Note_on_c, 1, 83, 0
7, 137460, Note_on_c, 1, 69, 76
7, 137513, Note_on_c, 1, 69, 0
7, 137520, Note_on_c, 1, 69, 76
7, 137693, Note_on_c, 1, 69, 0
7, 137700, Note_on_c, 1, 76, 76
7, 137753, Note_on_c, 1, 76, 0
7, 137760, Note_on_c, 1, 76, 76
7, 137933, Note_on_c, 1, 76, 0
7, 137940, Note_on_c, 1, 78, 76
7, 137993, Note_on_c, 1, 78, 0
7, 138000, Note_on_c, 1, 78, 76
7, 138173, Note_on_c, 1, 78, 0
7, 138180, Note_on_c, 1, 76, 76
7, 138233, Note_on_c, 1, 76, 0
7, 138240, Note_on_c, 1, 74, 76
7, 138413, Note_on_c, 1, 74, 0
7, 138420, Note_on_c, 1, 69, 76
7, 138473, Note_on_c, 1, 69, 0
7, 138480, Note_on_c, 1, 74, 76
7, 138653, Note_on_c, 1, 74, 0
7, 138660, Note_on_c, 1, 69, 76
7, 138713, Note_on_c, 1, 69, 0
7, 138720, Note_on_c, 1, 69, 76
7, 138893, Note_on_c, 1, 69, 0
7, 138900, Note_on_c, 1, 66, 76
7, 138953, Note_on_c, 1, 66, 0
7, 138960, Note_on_c, 1, 69, 76
7, 139133, Note_on_c, 1, 69, 0
7, 139140, Note_on_c, 1, 69, 76
7, 139193, Note_on_c, 1, 69, 0
7, 139200, Note_on_c, 1, 66, 76
7, 139439, Note_on_c, 1, 66, 0
7, 145560, Note_on_c, 1, 74, 76
7, 145649, Note_on_c, 1, 74, 0
7, 145680, Note_on_c, 1, 74, 76
7, 145769, Note_on_c, 1, 74, 0
7, 145800, Note_on_c, 1, 74, 76
7, 145889, Note_on_c, 1, 74, 0
7, 145920, Note_on_c, 1, 74, 76
7, 146039, Note_on_c, 1, 74, 0
7, 147000, Note_on_c, 1, 76, 76
7, 147089, Note_on_c, 1, 76, 0
7, 147120, Note_on_c, 1, 76, 76
7, 147209, Note_on_c, 1, 76, 0
7, 147240, Note_on_c, 1, 76, 76
7, 147329, Note_on_c, 1, 76, 0
7, 147360, Note_on_c, 1, 76, 76
7, 147479, Note_on_c, 1, 76, 0
7, 149880, Note_on_c, 1, 62, 76
7, 149984, Note_on_c, 1, 62, 0
7, 150000, Note_on_c, 1, 62, 76
7, 150104, Note_on_c, 1, 62, 0
7, 150120, Note_on_c, 1, 62, 76
7, 150224, Note_on_c, 1, 62, 0
7, 150240, Note_on_c, 1, 62, 76
7, 150344, Note_on_c, 1, 62, 0
7, 150360, Note_on_c, 1, 62, 76
7, 150464, Note_on_c, 1, 62, 0
7, 150480, Note_on_c, 1, 62, 76
7, 150584, Note_on_c, 1, 62, 0
7, 150600, Note_on_c, 1, 62, 76
7, 150704, Note_on_c, 1, 62, 0
7, 150720, Note_on_c, 1, 62, 76
7, 150824, Note_on_c, 1, 62, 0
7, 150840, Note_on_c, 1, 78, 76
7, 150887, Note_on_c, 1, 78, 0
7, 150900, Note_on_c, 1, 79, 76
7, 150947, Note_on_c, 1, 79, 0
7, 150960, Note_on_c, 1, 81, 76
7, 151064, Note_on_c, 1, 81, 0
7, 151080, Note_on_c, 1, 83, 76
7, 151127, Note_on_c, 1, 83, 0
7, 151140, Note_on_c, 1, 81, 76
7, 151187, Note_on_c, 1, 81, 0
7, 151200, Note_on_c, 1, 79, 76
7, 151319, Note_on_c, 1, 79, 0
7, 151560, Note_on_c, 1, 79, 76
7, 151664, Note_on_c, 1, 79, 0
7, 151680, Note_on_c, 1, 78, 76
7, 151799, Note_on_c, 1, 78, 0
7, 152040, Note_on_c, 1, 78, 76
7, 152144, Note_on_c, 1, 78, 0
7, 152160, Note_on_c, 1, 76, 76
7, 152264, Note_on_c, 1, 76, 0
7, 152280, Note_on_c, 1, 81, 76
7, 152384, Note_on_c, 1, 81, 0
7, 152400, Note_on_c, 1, 81, 76
7, 152504, Note_on_c, 1, 81, 0
7, 152520, Note_on_c, 1, 81, 76
7, 152624, Note_on_c, 1, 81, 0
7, 152640, Note_on_c, 1, 81, 76
7, 152759, Note_on_c, 1, 81, 0
7, 153720, Note_on_c, 1, 69, 76
7, 153824, Note_on_c, 1, 69, 0
7, 153840, Note_on_c, 1, 69, 76
7, 153944, Note_on_c, 1, 69, 0
7, 153960, Note_on_c, 1, 76, 76
7, 154064, Note_on_c, 1, 76, 0
7, 154080, Note_on_c, 1, 78, 76
7, 154184, Note_on_c, 1, 78, 0
7, 154200, Note_on_c, 1, 81, 76
7, 154247, Note_on_c, 1, 81, 0
7, 154260, Note_on_c, 1, 79, 76
7, 154307, Note_on_c, 1, 79, 0
7, 154320, Note_on_c, 1, 78, 76
7, 154424, Note_on_c, 1, 78, 0
7, 154440, Note_on_c, 1, 74, 76
7, 154544, Note_on_c, 1, 74, 0
7, 154560, Note_on_c, 1, 76, 76
7, 154664, Note_on_c, 1, 76, 0
7, 154680, Note_on_c, 1, 79, 76
7, 154727, Note_on_c, 1, 79, 0
7, 154740, Note_on_c, 1, 78, 76
7, 154787, Note_on_c, 1, 78, 0
7, 154800, Note_on_c, 1, 76, 76
7, 154904, Note_on_c, 1, 76, 0
7, 154920, Note_on_c, 1, 69, 76
7, 155024, Note_on_c, 1, 69, 0
7, 155040, Note_on_c, 1, 69, 76
7, 155144, Note_on_c, 1, 69, 0
7, 155160, Note_on_c, 1, 74, 76
7, 155264, Note_on_c, 1, 74, 0
7, 155280, Note_on_c, 1, 74, 76
7, 155384, Note_on_c, 1, 74, 0
7, 155400, Note_on_c, 1, 76, 76
7, 155504, Note_on_c, 1, 76, 0
7, 155520, Note_on_c, 1, 69, 76
7, 155624, Note_on_c, 1, 69, 0
7, 155640, Note_on_c, 1, 76, 76
7, 155744, Note_on_c, 1, 76, 0
7, 155760, Note_on_c, 1, 78, 76
7, 155807, Note_on_c, 1, 78, 0
7, 155820, Note_on_c, 1, 76, 76
7, 155867, Note_on_c, 1, 76, 0
7, 155880, Note_on_c, 1, 78, 76
7, 155927, Note_on_c, 1, 78, 0
7, 155940, Note_on_c, 1, 79, 76
7, 155987, Note_on_c, 1, 79, 0
7, 156000, Note_on_c, 1, 81, 76
7, 156119, Note_on_c, 1, 81, 0
7, 156240, Note_on_c, 1, 79, 76
7, 156359, Note_on_c, 1, 79, 0
7, 156480, Note_on_c, 1, 78, 76
7, 156599, Note_on_c, 1, 78, 0
7, 164760, Note_on_c, 1, 66, 52
7, 164879, Note_on_c, 1, 66, 0
7, 164880, Note_on_c, 1, 66, 52
7, 164999, Note_on_c, 1, 66, 0
7, 165000, Note_on_c, 1, 66, 52
7, 165104, Note_on_c, 1, 66, 0
7, 165120, Note_on_c, 1, 66, 52
7, 165239, Note_on_c, 1, 66, 0
7, 165240, Note_on_c, 1, 66, 52
7, 165359, Note_on_c, 1, 66, 0
7, 165360, Note_on_c, 1, 66, 52
7, 165479, Note_on_c, 1, 66, 0
7, 165480, Note_on_c, 1, 66, 52
7, 165584, Note_on_c, 1, 66, 0
7, 165600, Note_on_c, 1, 66, 52
7, 165719, Note_on_c, 1, 66, 0
7, 169080, Note_on_c, 1, 69, 52
7, 169199, Note_on_c, 1, 69, 0
7, 169200, Note_on_c, 1, 69, 52
7, 169319, Note_on_c, 1, 69, 0
7, 169320, Note_on_c, 1, 69, 52
7, 169424, Note_on_c, 1, 69, 0
7, 169440, Note_on_c, 1, 69, 52
7, 169544, Note_on_c, 1, 69, 0
7, 169560, Note_on_c, 1, 69, 52
7, 169664, Note_on_c, 1, 69, 0
7, 169680, Note_on_c, 1, 76, 52
7, 169784, Note_on_c, 1, 76, 0
7, 169800, Note_on_c, 1, 69, 52
7, 169904, Note_on_c, 1, 69, 0
7, 169920, Note_on_c, 1, 69, 52
7, 170039, Note_on_c, 1, 69, 0
7, 172200, Note_on_c, 1, 76, 52
7, 172304, Note_on_c, 1, 76, 0
7, 172320, Note_on_c, 1, 79, 52
7, 172424, Note_on_c, 1, 79, 0
7, 172440, Note_on_c, 1, 76, 52
7, 172559, Note_on_c, 1, 76, 0
7, 172680, Note_on_c, 1, 76, 52
7, 172784, Note_on_c, 1, 76, 0
7, 172800, Note_on_c, 1, 81, 52
7, 172904, Note_on_c, 1, 81, 0
7, 172920, Note_on_c, 1, 69, 52
7, 173024, Note_on_c, 1, 69, 0
7, 173040, Note_on_c, 1, 69, 52
7, 173144, Note_on_c, 1, 69, 0
7, 173160, Note_on_c, 1, 69, 52
7, 173264, Note_on_c, 1, 69, 0
7, 173280, Note_on_c, 1, 69, 52
7, 173399, Note_on_c, 1, 69, 0
7, 173640, Note_on_c, 1, 78, 52
7, 173744, Note_on_c, 1, 78, 0
7, 173760, Note_on_c, 1, 81, 52
7, 173864, Note_on_c, 1, 81, 0
7, 173880, Note_on_c, 1, 78, 52
7, 173999, Note_on_c, 1, 78, 0
7, 174120, Note_on_c, 1, 78, 52
7, 174224, Note_on_c, 1, 78, 0
7, 174240, Note_on_c, 1, 83, 52
7, 174344, Note_on_c, 1, 83, 0
7, 174360, Note_on_c, 1, 78, 52
7, 174479, Note_on_c, 1, 78, 0
7, 175320, Note_on_c, 1, 76, 52
7, 175424, Note_on_c, 1, 76, 0
7, 175440, Note_on_c, 1, 76, 52
7, 175544, Note_on_c, 1, 76, 0
7, 175560, Note_on_c, 1, 76, 52
7, 175664, Note_on_c, 1, 76, 0
7, 175680, Note_on_c, 1, 76, 52
7, 175784, Note_on_c, 1, 76, 0
7, 175800, Note_on_c, 1, 80, 52
7, 175904, Note_on_c, 1, 80, 0
7, 175920, Note_on_c, 1, 83, 52
7, 176024, Note_on_c, 1, 83, 0
7, 176040, Note_on_c, 1, 80, 52
7, 176144, Note_on_c, 1, 80, 0
7, 176160, Note_on_c, 1, 76, 52
7, 176279, Note_on_c, 1, 76, 0
7, 180600, Note_on_c, 1, 78, 52
7, 180719, Note_on_c, 1, 78, 0
7, 180720, Note_on_c, 1, 78, 52
7, 180839, Note_on_c, 1, 78, 0
7, 180840, Note_on_c, 1, 78, 52
7, 180944, Note_on_c, 1, 78, 0
7, 180960, Note_on_c, 1, 78, 52
7, 181079, Note_on_c, 1, 78, 0
7, 181080, Note_on_c, 1, 78, 52
7, 181199, Note_on_c, 1, 78, 0
7, 181200, Note_on_c, 1, 78, 52
7, 181319, Note_on_c, 1, 78, 0
7, 181320, Note_on_c, 1, 78, 52
7, 181424, Note_on_c, 1, 78, 0
7, 181440, Note_on_c, 1, 78, 52
7, 181559, Note_on_c, 1, 78, 0
7, 191520, Note_on_c, 1, 81, 52
7, 191639, Note_on_c, 1, 81, 0
7, 191760, Note_on_c, 1, 74, 52
7, 191879, Note_on_c, 1, 74, 0
7, 192000, Note_on_c, 1, 76, 52
7, 192119, Note_on_c, 1, 76, 0
7, 192240, Note_on_c, 1, 74, 52
7, 192359, Note_on_c, 1, 74, 0
7, 192480, Note_on_c, 1, 81, 52
7, 192599, Note_on_c, 1, 81, 0
7, 192720, Note_on_c, 1, 76, 52
7, 192839, Note_on_c, 1, 76, 0
7, 192960, Note_on_c, 1, 74, 52
7, 193079, Note_on_c, 1, 74, 0
7, 193200, Note_on_c, 1, 74, 52
7, 193319, Note_on_c, 1, 74, 0
7, 193440, Note_on_c, 1, 76, 52
7, 193544, Note_on_c, 1, 76, 0
7, 193560, Note_on_c, 1, 69, 52
7, 193607, Note_on_c, 1, 69, 0
7, 193620, Note_on_c, 1, 69, 52
7, 193667, Note_on_c, 1, 69, 0
7, 193680, Note_on_c, 1, 69, 52
7, 193784, Note_on_c, 1, 69, 0
7, 193800, Note_on_c, 1, 69, 52
7, 193904, Note_on_c, 1, 69, 0
7, 193920, Note_on_c, 1, 69, 52
7, 194039, Note_on_c, 1, 69, 0
7, 197400, Note_on_c, 1, 69, 52
7, 197519, Note_on_c, 1, 69, 0
7, 197520, Note_on_c, 1, 69, 52
7, 197639, Note_on_c, 1, 69, 0
7, 197640, Note_on_c, 1, 69, 52
7, 197744, Note_on_c, 1, 69, 0
7, 197760, Note_on_c, 1, 69, 52
7, 197864, Note_on_c, 1, 69, 0
7, 197880, Note_on_c, 1, 69, 52
7, 197984, Note_on_c, 1, 69, 0
7, 198000, Note_on_c, 1, 69, 52
7, 198104, Note_on_c, 1, 69, 0
7, 198120, Note_on_c, 1, 76, 52
7, 198224, Note_on_c, 1, 76, 0
7, 198240, Note_on_c, 1, 74, 52
7, 198344, Note_on_c, 1, 74, 0
7, 198360, Note_on_c, 1, 62, 52
7, 198464, Note_on_c, 1, 62, 0
7, 198480, Note_on_c, 1, 62, 52
7, 198599, Note_on_c, 1, 62, 0
7, 198600, Note_on_c, 1, 66, 52
7, 198704, Note_on_c, 1, 66, 0
7, 198720, Note_on_c, 1, 66, 52
7, 198839, Note_on_c, 1, 66, 0
7, 198840, Note_on_c, 1, 69, 52
7, 198944, Note_on_c, 1, 69, 0
7, 198960, Note_on_c, 1, 69, 52
7, 199079, Note_on_c, 1, 69, 0
7, 199080, Note_on_c, 1, 74, 52
7, 199184, Note_on_c, 1, 74, 0
7, 199200, Note_on_c, 1, 74, 52
7, 199319, Note_on_c, 1, 74, 0
7, 199320, Note_on_c, 1, 78, 52
7, 199424, Note_on_c, 1, 78, 0
7, 199440, Note_on_c, 1, 78, 52
7, 199559, Note_on_c, 1, 78, 0
7, 199560, Note_on_c, 1, 81, 52
7, 199664, Note_on_c, 1, 81, 0
7, 199680, Note_on_c, 1, 83, 52
7, 199799, Note_on_c, 1, 83, 0
7, 201840, Note_on_c, 1, 76, 52
7, 201959, Note_on_c, 1, 76, 0
7, 202080, Note_on_c, 1, 76, 52
7, 202199, Note_on_c, 1, 76, 0
7, 202320, Note_on_c, 1, 81, 52
7, 202439, Note_on_c, 1, 81, 0
7, 202560, Note_on_c, 1, 81, 52
7, 202679, Note_on_c, 1, 81, 0
7, 202800, Note_on_c, 1, 76, 52
7, 202919, Note_on_c, 1, 76, 0
7, 203040, Note_on_c, 1, 74, 52
7, 203159, Note_on_c, 1, 74, 0
7, 203400, Note_on_c, 1, 62, 52
7, 203504, Note_on_c, 1, 62, 0
7, 203520, Note_on_c, 1, 62, 52
7, 203624, Note_on_c, 1, 62, 0
7, 203640, Note_on_c, 1, 62, 52
7, 203759, Note_on_c, 1, 62, 0
7, 203760, Note_on_c, 1, 62, 52
7, 203879, Note_on_c, 1, 62, 0
7, 203880, Note_on_c, 1, 62, 52
7, 203984, Note_on_c, 1, 62, 0
7, 204000, Note_on_c, 1, 62, 52
7, 204104, Note_on_c, 1, 62, 0
7, 204120, Note_on_c, 1, 78, 52
7, 204224, Note_on_c, 1, 78, 0
7, 204240, Note_on_c, 1, 74, 52
7, 204344, Note_on_c, 1, 74, 0
7, 204360, Note_on_c, 1, 78, 52
7, 204464, Note_on_c, 1, 78, 0
7, 204480, Note_on_c, 1, 79, 52
7, 204599, Note_on_c, 1, 79, 0
7, 207960, Note_on_c, 1, 74, 52
7, 208064, Note_on_c, 1, 74, 0
7, 208080, Note_on_c, 1, 74, 52
7, 208184, Note_on_c, 1, 74, 0
7, 208200, Note_on_c, 1, 74, 52
7, 208304, Note_on_c, 1, 74, 0
7, 208320, Note_on_c, 1, 74, 52
7, 208439, Note_on_c, 1, 74, 0
7, 209400, Note_on_c, 1, 76, 52
7, 209504, Note_on_c, 1, 76, 0
7, 209520, Note_on_c, 1, 76, 52
7, 209624, Note_on_c, 1, 76, 0
7, 209640, Note_on_c, 1, 76, 52
7, 209744, Note_on_c, 1, 76, 0
7, 209760, Note_on_c, 1, 76, 52
7, 209879, Note_on_c, 1, 76, 0
7, 212280, Note_on_c, 1, 62, 52
7, 212399, Note_on_c, 1, 62, 0
7, 212400, Note_on_c, 1, 62, 52
7, 212519, Note_on_c, 1, 62, 0
7, 212520, Note_on_c, 1, 62, 52
7, 212624, Note_on_c, 1, 62, 0
7, 212640, Note_on_c, 1, 62, 52
7, 212759, Note_on_c, 1, 62, 0
7, 212760, Note_on_c, 1, 62, 52
7, 212879, Note_on_c, 1, 62, 0
7, 212880, Note_on_c, 1, 62, 52
7, 212999, Note_on_c, 1, 62, 0
7, 213000, Note_on_c, 1, 62, 52
7, 213104, Note_on_c, 1, 62, 0
7, 213120, Note_on_c, 1, 62, 52
7, 213224, Note_on_c, 1, 62, 0
7, 213240, Note_on_c, 1, 78, 52
7, 213287, Note_on_c, 1, 78, 0
7, 213300, Note_on_c, 1, 79, 52
7, 213347, Note_on_c, 1, 79, 0
7, 213360, Note_on_c, 1, 81, 52
7, 213464, Note_on_c, 1, 81, 0
7, 213480, Note_on_c, 1, 83, 52
7, 213527, Note_on_c, 1, 83, 0
7, 213540, Note_on_c, 1, 81, 52
7, 213587, Note_on_c, 1, 81, 0
7, 213600, Note_on_c, 1, 79, 52
7, 213719, Note_on_c, 1, 79, 0
7, 213960, Note_on_c, 1, 79, 52
7, 214064, Note_on_c, 1, 79, 0
7, 214080, Note_on_c, 1, 78, 52
7, 214199, Note_on_c, 1, 78, 0
7, 214440, Note_on_c, 1, 78, 52
7, 214544, Note_on_c, 1, 78, 0
7, 214560, Note_on_c, 1, 76, 52
7, 214664, Note_on_c, 1, 76, 0
7, 214680, Note_on_c, 1, 81, 52
7, 214784, Note_on_c, 1, 81, 0
7, 214800, Note_on_c, 1, 81, 52
7, 214904, Note_on_c, 1, 81, 0
7, 214920, Note_on_c, 1, 81, 52
7, 215024, Note_on_c, 1, 81, 0
7, 215040, Note_on_c, 1, 81, 52
7, 215159, Note_on_c, 1, 81, 0
7, 216120, Note_on_c, 1, 69, 52
7, 216224, Note_on_c, 1, 69, 0
7, 216240, Note_on_c, 1, 69, 52
7, 216344, Note_on_c, 1, 69, 0
7, 216360, Note_on_c, 1, 76, 52
7, 216464, Note_on_c, 1, 76, 0
7, 216480, Note_on_c, 1, 78, 52
7, 216584, Note_on_c, 1, 78, 0
7, 216600, Note_on_c, 1, 81, 52
7, 216647, Note_on_c, 1, 81, 0
7, 216660, Note_on_c, 1, 79, 52
7, 216707, Note_on_c, 1, 79, 0
7, 216720, Note_on_c, 1, 78, 52
7, 216824, Note_on_c, 1, 78, 0
7, 216840, Note_on_c, 1, 74, 52
7, 216944, Note_on_c, 1, 74, 0
7, 216960, Note_on_c, 1, 76, 52
7, 217064, Note_on_c, 1, 76, 0
7, 217080, Note_on_c, 1, 79, 52
7, 217127, Note_on_c, 1, 79, 0
7, 217140, Note_on_c, 1, 78, 52
7, 217187, Note_on_c, 1, 78, 0
7, 217200, Note_on_c, 1, 76, 52
7, 217304, Note_on_c, 1, 76, 0
7, 217320, Note_on_c, 1, 69, 52
7, 217424, Note_on_c, 1, 69, 0
7, 217440, Note_on_c, 1, 69, 52
7, 217544, Note_on_c, 1, 69, 0
7, 217560, Note_on_c, 1, 74, 52
7, 217664, Note_on_c, 1, 74, 0
7, 217680, Note_on_c, 1, 74, 52
7, 217784, Note_on_c, 1, 74, 0
7, 217800, Note_on_c, 1, 76, 52
7, 217904, Note_on_c, 1, 76, 0
7, 217920, Note_on_c, 1, 69, 52
7, 218024, Note_on_c, 1, 69, 0
7, 218040, Note_on_c, 1, 76, 52
7, 218144, Note_on_c, 1, 76, 0
7, 218160, Note_on_c, 1, 78, 52
7, 218207, Note_on_c, 1, 78, 0
7, 218220, Note_on_c, 1, 76, 52
7, 218267, Note_on_c, 1, 76, 0
7, 218280, Note_on_c, 1, 78, 52
7, 218327, Note_on_c, 1, 78, 0
7, 218340, Note_on_c, 1, 79, 52
7, 218387, Note_on_c, 1, 79, 0
7, 218400, Note_on_c, 1, 81, 52
7, 218519, Note_on_c, 1, 81, 0
7, 218640, Note_on_c, 1, 79, 52
7, 218759, Note_on_c, 1, 79, 0
7, 218880, Note_on_c, 1, 78, 76
7, 218999, Note_on_c, 1, 78, 0
7, 219360, Note_on_c, 1, 74, 76
7, 219479, Note_on_c, 1, 74, 0
7, 219840, Note_on_c, 1, 78, 76
7, 219959, Note_on_c, 1, 78, 0
7, 220320, Note_on_c, 1, 81, 76
7, 220439, Note_on_c, 1, 81, 0
7, 220980, Note_on_c, 1, 78, 76
7, 221033, Note_on_c, 1, 78, 0
7, 221040, Note_on_c, 1, 78, 76
7, 221213, Note_on_c, 1, 78, 0
7, 221220, Note_on_c, 1, 81, 76
7, 221273, Note_on_c, 1, 81, 0
7, 221280, Note_on_c, 1, 79, 76
7, 221453, Note_on_c, 1, 79, 0
7, 221460, Note_on_c, 1, 79, 76
7, 221513, Note_on_c, 1, 79, 0
7, 221520, Note_on_c, 1, 79, 76
7, 221693, Note_on_c, 1, 79, 0
7, 221700, Note_on_c, 1, 79, 76
7, 221753, Note_on_c, 1, 79, 0
7, 221760, Note_on_c, 1, 79, 76
7, 221999, Note_on_c, 1, 79, 0
7, 229620, Note_on_c, 1, 69, 76
7, 229673, Note_on_c, 1, 69, 0
7, 229680, Note_on_c, 1, 69, 76
7, 229853, Note_on_c, 1, 69, 0
7, 229860, Note_on_c, 1, 74, 76
7, 229913, Note_on_c, 1, 74, 0
7, 229920, Note_on_c, 1, 74, 76
7, 230093, Note_on_c, 1, 74, 0
7, 230100, Note_on_c, 1, 78, 76
7, 230153, Note_on_c, 1, 78, 0
7, 230160, Note_on_c, 1, 78, 76
7, 230333, Note_on_c, 1, 78, 0
7, 230340, Note_on_c, 1, 79, 76
7, 230393, Note_on_c, 1, 79, 0
7, 230400, Note_on_c, 1, 79, 76
7, 230519, Note_on_c, 1, 79, 0
7, 230880, Note_on_c, 1, 83, 76
7, 230999, Note_on_c, 1, 83, 0
7, 231540, Note_on_c, 1, 69, 76
7, 231593, Note_on_c, 1, 69, 0
7, 231600, Note_on_c, 1, 69, 76
7, 231773, Note_on_c, 1, 69, 0
7, 231780, Note_on_c, 1, 76, 76
7, 231833, Note_on_c, 1, 76, 0
7, 231840, Note_on_c, 1, 76, 76
7, 232013, Note_on_c, 1, 76, 0
7, 232020, Note_on_c, 1, 78, 76
7, 232073, Note_on_c, 1, 78, 0
7, 232080, Note_on_c, 1, 78, 76
7, 232253, Note_on_c, 1, 78, 0
7, 232260, Note_on_c, 1, 76, 76
7, 232313, Note_on_c, 1, 76, 0
7, 232320, Note_on_c, 1, 74, 76
7, 232493, Note_on_c, 1, 74, 0
7, 232500, Note_on_c, 1, 69, 76
7, 232553, Note_on_c, 1, 69, 0
7, 232560, Note_on_c, 1, 74, 76
7, 232733, Note_on_c, 1, 74, 0
7, 232740, Note_on_c, 1, 69, 76
7, 232793, Note_on_c, 1, 69, 0
7, 232800, Note_on_c, 1, 69, 76
7, 232973, Note_on_c, 1, 69, 0
7, 232980, Note_on_c, 1, 66, 76
7, 233033, Note_on_c, 1, 66, 0
7, 233040, Note_on_c, 1, 69, 76
7, 233213, Note_on_c, 1, 69, 0
7, 233220, Note_on_c, 1, 69, 76
7, 233273, Note_on_c, 1, 69, 0
7, 233280, Note_on_c, 1, 66, 76
7, 234239, Note_on_c, 1, 66, 0
7, 234239, End_track
8, 0, Start_track
8, 0, Title_t, "Trumpet III in D"
8, 0, MIDI_port, 0
8, 0, Program_c, 2, 56
8, 0, Control_c, 2, 10, 74
8, 0, Control_c, 2, 11, 127
8, 0, Control_c, 2, 7, 96
8, 0, Note_on_c, 2, 74, 76
8, 119, Note_on_c, 2, 74, 0
8, 480, Note_on_c, 2, 74, 76
8, 599, Note_on_c, 2, 74, 0
8, 960, Note_on_c, 2, 74, 76
8, 1079, Note_on_c, 2, 74, 0
8, 1440, Note_on_c, 2, 69, 76
8, 1559, Note_on_c, 2, 69, 0
8, 2100, Note_on_c, 2, 69, 76
8, 2153, Note_on_c, 2, 69, 0
8, 2160, Note_on_c, 2, 69, 76
8, 2333, Note_on_c, 2, 69, 0
8, 2340, Note_on_c, 2, 69, 76
8, 2393, Note_on_c, 2, 69, 0
8, 2400, Note_on_c, 2, 69, 76
8, 2573, Note_on_c, 2, 69, 0
8, 2580, Note_on_c, 2, 69, 76
8, 2633, Note_on_c, 2, 69, 0
8, 2640, Note_on_c, 2, 69, 76
8, 2813, Note_on_c, 2, 69, 0
8, 2820, Note_on_c, 2, 69, 76
8, 2873, Note_on_c, 2, 69, 0
8, 2880, Note_on_c, 2, 69, 76
8, 3053, Note_on_c, 2, 69, 0
8, 3060, Note_on_c, 2, 74, 76
8, 3113, Note_on_c, 2, 74, 0
8, 3120, Note_on_c, 2, 74, 76
8, 3293, Note_on_c, 2, 74, 0
8, 3300, Note_on_c, 2, 69, 76
8, 3353, Note_on_c, 2, 69, 0
8, 3360, Note_on_c, 2, 69, 76
8, 3533, Note_on_c, 2, 69, 0
8, 3540, Note_on_c, 2, 66, 76
8, 3593, Note_on_c, 2, 66, 0
8, 3600, Note_on_c, 2, 66, 76
8, 3773, Note_on_c, 2, 66, 0
8, 3780, Note_on_c, 2, 62, 76
8, 3833, Note_on_c, 2, 62, 0
8, 3840, Note_on_c, 2, 62, 76
8, 4013, Note_on_c, 2, 62, 0
8, 4020, Note_on_c, 2, 69, 76
8, 4073, Note_on_c, 2, 69, 0
8, 4080, Note_on_c, 2, 69, 76
8, 4253, Note_on_c, 2, 69, 0
8, 4260, Note_on_c, 2, 66, 76
8, 4313, Note_on_c, 2, 66, 0
8, 4320, Note_on_c, 2, 62, 76
8, 4439, Note_on_c, 2, 62, 0
8, 16500, Note_on_c, 2, 76, 76
8, 16553, Note_on_c, 2, 76, 0
8, 16560, Note_on_c, 2, 76, 76
8, 16733, Note_on_c, 2, 76, 0
8, 16740, Note_on_c, 2, 69, 76
8, 16793, Note_on_c, 2, 69, 0
8, 16800, Note_on_c, 2, 69, 76
8, 16919, Note_on_c, 2, 69, 0
8, 17460, Note_on_c, 2, 69, 76
8, 17513, Note_on_c, 2, 69, 0
8, 17520, Note_on_c, 2, 69, 76
8, 17693, Note_on_c, 2, 69, 0
8, 17700, Note_on_c, 2, 66, 76
8, 17753, Note_on_c, 2, 66, 0
8, 17760, Note_on_c, 2, 66, 76
8, 17879, Note_on_c, 2, 66, 0
8, 19860, Note_on_c, 2, 69, 76
8, 19913, Note_on_c, 2, 69, 0
8, 19920, Note_on_c, 2, 62, 76
8, 20093, Note_on_c, 2, 62, 0
8, 20100, Note_on_c, 2, 69, 76
8, 20153, Note_on_c, 2, 69, 0
8, 20160, Note_on_c, 2, 74, 76
8, 20279, Note_on_c, 2, 74, 0
8, 20640, Note_on_c, 2, 81, 76
8, 20759, Note_on_c, 2, 81, 0
8, 21300, Note_on_c, 2, 69, 76
8, 21353, Note_on_c, 2, 69, 0
8, 21360, Note_on_c, 2, 69, 76
8, 21533, Note_on_c, 2, 69, 0
8, 21540, Note_on_c, 2, 69, 76
8, 21593, Note_on_c, 2, 69, 0
8, 21600, Note_on_c, 2, 69, 76
8, 21773, Note_on_c, 2, 69, 0
8, 21780, Note_on_c, 2, 74, 76
8, 21833, Note_on_c, 2, 74, 0
8, 21840, Note_on_c, 2, 78, 76
8, 22013, Note_on_c, 2, 78, 0
8, 22020, Note_on_c, 2, 74, 76
8, 22073, Note_on_c, 2, 74, 0
8, 22080, Note_on_c, 2, 76, 76
8, 22559, Note_on_c, 2, 76, 0
8, 23040, Note_on_c, 2, 74, 76
8, 23159, Note_on_c, 2, 74, 0
8, 23520, Note_on_c, 2, 74, 76
8, 23639, Note_on_c, 2, 74, 0
8, 24000, Note_on_c, 2, 74, 76
8, 24119, Note_on_c, 2, 74, 0
8, 24480, Note_on_c, 2, 69, 76
8, 24599, Note_on_c, 2, 69, 0
8, 25140, Note_on_c, 2, 69, 76
8, 25193, Note_on_c, 2, 69, 0
8, 25200, Note_on_c, 2, 69, 76
8, 25373, Note_on_c, 2, 69, 0
8, 25380, Note_on_c, 2, 69, 76
8, 25433, Note_on_c, 2, 69, 0
8, 25440, Note_on_c, 2, 69, 76
8, 25613, Note_on_c, 2, 69, 0
8, 25620, Note_on_c, 2, 69, 76
8, 25673, Note_on_c, 2, 69, 0
8, 25680, Note_on_c, 2, 69, 76
8, 25853, Note_on_c, 2, 69, 0
8, 25860, Note_on_c, 2, 69, 76
8, 25913, Note_on_c, 2, 69, 0
8, 25920, Note_on_c, 2, 69, 76
8, 26093, Note_on_c, 2, 69, 0
8, 26100, Note_on_c, 2, 74, 76
8, 26153, Note_on_c, 2, 74, 0
8, 26160, Note_on_c, 2, 74, 76
8, 26333, Note_on_c, 2, 74, 0
8, 26340, Note_on_c, 2, 69, 76
8, 26393, Note_on_c, 2, 69, 0
8, 26400, Note_on_c, 2, 69, 76
8, 26573, Note_on_c, 2, 69, 0
8, 26580, Note_on_c, 2, 66, 76
8, 26633, Note_on_c, 2, 66, 0
8, 26640, Note_on_c, 2, 66, 76
8, 26813, Note_on_c, 2, 66, 0
8, 26820, Note_on_c, 2, 62, 76
8, 26873, Note_on_c, 2, 62, 0
8, 26880, Note_on_c, 2, 62, 76
8, 27053, Note_on_c, 2, 62, 0
8, 27060, Note_on_c, 2, 69, 76
8, 27113, Note_on_c, 2, 69, 0
8, 27120, Note_on_c, 2, 69, 76
8, 27293, Note_on_c, 2, 69, 0
8, 27300, Note_on_c, 2, 66, 76
8, 27353, Note_on_c, 2, 66, 0
8, 27360, Note_on_c, 2, 62, 76
8, 27479, Note_on_c, 2, 62, 0
8, 39540, Note_on_c, 2, 76, 76
8, 39593, Note_on_c, 2, 76, 0
8, 39600, Note_on_c, 2, 76, 76
8, 39773, Note_on_c, 2, 76, 0
8, 39780, Note_on_c, 2, 69, 76
8, 39833, Note_on_c, 2, 69, 0
8, 39840, Note_on_c, 2, 69, 76
8, 39959, Note_on_c, 2, 69, 0
8, 40500, Note_on_c, 2, 69, 76
8, 40553, Note_on_c, 2, 69, 0
8, 40560, Note_on_c, 2, 69, 76
8, 40733, Note_on_c, 2, 69, 0
8, 40740, Note_on_c, 2, 66, 76
8, 40793, Note_on_c, 2, 66, 0
8, 40800, Note_on_c, 2, 66, 76
8, 40919, Note_on_c, 2, 66, 0
8, 42900, Note_on_c, 2, 69, 76
8, 42953, Note_on_c, 2, 69, 0
8, 42960, Note_on_c, 2, 62, 76
8, 43133, Note_on_c, 2, 62, 0
8, 43140, Note_on_c, 2, 69, 76
8, 43193, Note_on_c, 2, 69, 0
8, 43200, Note_on_c, 2, 74, 76
8, 43319, Note_on_c, 2, 74, 0
8, 43680, Note_on_c, 2, 81, 76
8, 43799, Note_on_c, 2, 81, 0
8, 44340, Note_on_c, 2, 69, 76
8, 44393, Note_on_c, 2, 69, 0
8, 44400, Note_on_c, 2, 69, 76
8, 44573, Note_on_c, 2, 69, 0
8, 44580, Note_on_c, 2, 69, 76
8, 44633, Note_on_c, 2, 69, 0
8, 44640, Note_on_c, 2, 69, 76
8, 44813, Note_on_c, 2, 69, 0
8, 44820, Note_on_c, 2, 74, 76
8, 44873, Note_on_c, 2, 74, 0
8, 44880, Note_on_c, 2, 78, 76
8, 45053, Note_on_c, 2, 78, 0
8, 45060, Note_on_c, 2, 74, 76
8, 45113, Note_on_c, 2, 74, 0
8, 45120, Note_on_c, 2, 76, 76
8, 45359, Note_on_c, 2, 76, 0
8, 51480, Note_on_c, 2, 69, 76
8, 51584, Note_on_c, 2, 69, 0
8, 51600, Note_on_c, 2, 69, 76
8, 51704, Note_on_c, 2, 69, 0
8, 51720, Note_on_c, 2, 66, 76
8, 51824, Note_on_c, 2, 66, 0
8, 51840, Note_on_c, 2, 62, 76
8, 51959, Note_on_c, 2, 62, 0
8, 52920, Note_on_c, 2, 62, 76
8, 53024, Note_on_c, 2, 62, 0
8, 53040, Note_on_c, 2, 62, 76
8, 53144, Note_on_c, 2, 62, 0
8, 53160, Note_on_c, 2, 62, 76
8, 53264, Note_on_c, 2, 62, 0
8, 53280, Note_on_c, 2, 69, 76
8, 53399, Note_on_c, 2, 69, 0
8, 56280, Note_on_c, 2, 62, 76
8, 56384, Note_on_c, 2, 62, 0
8, 56400, Note_on_c, 2, 62, 76
8, 56504, Note_on_c, 2, 62, 0
8, 56520, Note_on_c, 2, 62, 76
8, 56624, Note_on_c, 2, 62, 0
8, 56640, Note_on_c, 2, 62, 76
8, 56744, Note_on_c, 2, 62, 0
8, 56760, Note_on_c, 2, 62, 76
8, 56864, Note_on_c, 2, 62, 0
8, 56880, Note_on_c, 2, 66, 76
8, 56984, Note_on_c, 2, 66, 0
8, 57000, Note_on_c, 2, 62, 76
8, 57104, Note_on_c, 2, 62, 0
8, 57120, Note_on_c, 2, 74, 76
8, 57239, Note_on_c, 2, 74, 0
8, 57480, Note_on_c, 2, 76, 76
8, 57584, Note_on_c, 2, 76, 0
8, 57600, Note_on_c, 2, 76, 76
8, 57719, Note_on_c, 2, 76, 0
8, 57960, Note_on_c, 2, 74, 76
8, 58064, Note_on_c, 2, 74, 0
8, 58080, Note_on_c, 2, 74, 76
8, 58184, Note_on_c, 2, 74, 0
8, 58200, Note_on_c, 2, 69, 76
8, 58304, Note_on_c, 2, 69, 0
8, 58320, Note_on_c, 2, 69, 76
8, 58424, Note_on_c, 2, 69, 0
8, 58440, Note_on_c, 2, 69, 76
8, 58544, Note_on_c, 2, 69, 0
8, 58560, Note_on_c, 2, 69, 76
8, 58679, Note_on_c, 2, 69, 0
8, 59640, Note_on_c, 2, 69, 76
8, 59744, Note_on_c, 2, 69, 0
8, 59760, Note_on_c, 2, 69, 76
8, 59864, Note_on_c, 2, 69, 0
8, 59880, Note_on_c, 2, 69, 76
8, 59984, Note_on_c, 2, 69, 0
8, 60000, Note_on_c, 2, 62, 76
8, 60119, Note_on_c, 2, 62, 0
8, 60840, Note_on_c, 2, 76, 76
8, 60944, Note_on_c, 2, 76, 0
8, 60960, Note_on_c, 2, 78, 76
8, 61079, Note_on_c, 2, 78, 0
8, 61200, Note_on_c, 2, 79, 76
8, 61319, Note_on_c, 2, 79, 0
8, 61440, Note_on_c, 2, 76, 76
8, 61559, Note_on_c, 2, 76, 0
8, 61680, Note_on_c, 2, 69, 76
8, 61784, Note_on_c, 2, 69, 0
8, 61800, Note_on_c, 2, 69, 76
8, 61904, Note_on_c, 2, 69, 0
8, 61920, Note_on_c, 2, 69, 76
8, 62039, Note_on_c, 2, 69, 0
8, 62160, Note_on_c, 2, 69, 76
8, 62279, Note_on_c, 2, 69, 0
8, 62400, Note_on_c, 2, 69, 76
8, 62519, Note_on_c, 2, 69, 0
8, 71160, Note_on_c, 2, 66, 52
8, 71279, Note_on_c, 2, 66, 0
8, 71280, Note_on_c, 2, 66, 52
8, 71399, Note_on_c, 2, 66, 0
8, 71400, Note_on_c, 2, 66, 52
8, 71504, Note_on_c, 2, 66, 0
8, 71520, Note_on_c, 2, 66, 52
8, 71639, Note_on_c, 2, 66, 0
8, 75480, Note_on_c, 2, 69, 52
8, 75599, Note_on_c, 2, 69, 0
8, 75600, Note_on_c, 2, 69, 52
8, 75719, Note_on_c, 2, 69, 0
8, 75720, Note_on_c, 2, 69, 52
8, 75824, Note_on_c, 2, 69, 0
8, 75840, Note_on_c, 2, 62, 52
8, 75959, Note_on_c, 2, 62, 0
8, 78840, Note_on_c, 2, 69, 52
8, 78944, Note_on_c, 2, 69, 0
8, 78960, Note_on_c, 2, 69, 52
8, 79064, Note_on_c, 2, 69, 0
8, 79080, Note_on_c, 2, 69, 52
8, 79184, Note_on_c, 2, 69, 0
8, 79200, Note_on_c, 2, 62, 52
8, 79319, Note_on_c, 2, 62, 0
8, 81720, Note_on_c, 2, 76, 52
8, 81824, Note_on_c, 2, 76, 0
8, 81840, Note_on_c, 2, 76, 52
8, 81944, Note_on_c, 2, 76, 0
8, 81960, Note_on_c, 2, 76, 52
8, 82064, Note_on_c, 2, 76, 0
8, 82080, Note_on_c, 2, 76, 52
8, 82199, Note_on_c, 2, 76, 0
8, 87000, Note_on_c, 2, 78, 52
8, 87104, Note_on_c, 2, 78, 0
8, 87120, Note_on_c, 2, 78, 52
8, 87224, Note_on_c, 2, 78, 0
8, 87240, Note_on_c, 2, 78, 52
8, 87344, Note_on_c, 2, 78, 0
8, 87360, Note_on_c, 2, 66, 52
8, 87479, Note_on_c, 2, 66, 0
8, 97440, Note_on_c, 2, 69, 52
8, 97559, Note_on_c, 2, 69, 0
8, 97680, Note_on_c, 2, 69, 52
8, 97799, Note_on_c, 2, 69, 0
8, 97920, Note_on_c, 2, 69, 52
8, 98039, Note_on_c, 2, 69, 0
8, 98160, Note_on_c, 2, 69, 52
8, 98279, Note_on_c, 2, 69, 0
8, 98400, Note_on_c, 2, 69, 52
8, 98519, Note_on_c, 2, 69, 0
8, 98640, Note_on_c, 2, 69, 52
8, 98759, Note_on_c, 2, 69, 0
8, 98880, Note_on_c, 2, 69, 52
8, 98999, Note_on_c, 2, 69, 0
8, 99120, Note_on_c, 2, 62, 52
8, 99239, Note_on_c, 2, 62, 0
8, 99360, Note_on_c, 2, 69, 52
8, 99464, Note_on_c, 2, 69, 0
8, 99480, Note_on_c, 2, 69, 52
8, 99527, Note_on_c, 2, 69, 0
8, 99540, Note_on_c, 2, 69, 52
8, 99587, Note_on_c, 2, 69, 0
8, 99600, Note_on_c, 2, 69, 52
8, 99704, Note_on_c, 2, 69, 0
8, 99720, Note_on_c, 2, 69, 52
8, 99824, Note_on_c, 2, 69, 0
8, 99840, Note_on_c, 2, 69, 52
8, 99959, Note_on_c, 2, 69, 0
8, 103800, Note_on_c, 2, 69, 52
8, 103919, Note_on_c, 2, 69, 0
8, 103920, Note_on_c, 2, 69, 52
8, 104039, Note_on_c, 2, 69, 0
8, 104040, Note_on_c, 2, 69, 52
8, 104144, Note_on_c, 2, 69, 0
8, 104160, Note_on_c, 2, 69, 52
8, 104264, Note_on_c, 2, 69, 0
8, 104280, Note_on_c, 2, 57, 52
8, 104384, Note_on_c, 2, 57, 0
8, 104400, Note_on_c, 2, 57, 52
8, 104519, Note_on_c, 2, 57, 0
8, 104520, Note_on_c, 2, 62, 52
8, 104624, Note_on_c, 2, 62, 0
8, 104640, Note_on_c, 2, 62, 52
8, 104759, Note_on_c, 2, 62, 0
8, 104760, Note_on_c, 2, 66, 52
8, 104864, Note_on_c, 2, 66, 0
8, 104880, Note_on_c, 2, 66, 52
8, 104999, Note_on_c, 2, 66, 0
8, 105000, Note_on_c, 2, 69, 52
8, 105104, Note_on_c, 2, 69, 0
8, 105120, Note_on_c, 2, 69, 52
8, 105239, Note_on_c, 2, 69, 0
8, 105240, Note_on_c, 2, 74, 52
8, 105344, Note_on_c, 2, 74, 0
8, 105360, Note_on_c, 2, 74, 52
8, 105479, Note_on_c, 2, 74, 0
8, 105480, Note_on_c, 2, 78, 52
8, 105584, Note_on_c, 2, 78, 0
8, 105600, Note_on_c, 2, 79, 52
8, 105719, Note_on_c, 2, 79, 0
8, 107760, Note_on_c, 2, 69, 52
8, 107879, Note_on_c, 2, 69, 0
8, 108000, Note_on_c, 2, 69, 52
8, 108119, Note_on_c, 2, 69, 0
8, 108240, Note_on_c, 2, 69, 52
8, 108359, Note_on_c, 2, 69, 0
8, 108480, Note_on_c, 2, 69, 52
8, 108599, Note_on_c, 2, 69, 0
8, 108720, Note_on_c, 2, 69, 52
8, 108839, Note_on_c, 2, 69, 0
8, 108960, Note_on_c, 2, 69, 52
8, 109064, Note_on_c, 2, 69, 0
8, 109080, Note_on_c, 2, 62, 52
8, 109199, Note_on_c, 2, 62, 0
8, 109200, Note_on_c, 2, 62, 52
8, 109319, Note_on_c, 2, 62, 0
8, 109320, Note_on_c, 2, 62, 52
8, 109424, Note_on_c, 2, 62, 0
8, 109440, Note_on_c, 2, 62, 52
8, 109544, Note_on_c, 2, 62, 0
8, 109560, Note_on_c, 2, 62, 52
8, 109664, Note_on_c, 2, 62, 0
8, 109680, Note_on_c, 2, 62, 52
8, 109784, Note_on_c, 2, 62, 0
8, 109800, Note_on_c, 2, 62, 52
8, 109904, Note_on_c, 2, 62, 0
8, 109920, Note_on_c, 2, 62, 52
8, 110024, Note_on_c, 2, 62, 0
8, 110040, Note_on_c, 2, 74, 52
8, 110144, Note_on_c, 2, 74, 0
8, 110160, Note_on_c, 2, 69, 52
8, 110264, Note_on_c, 2, 69, 0
8, 110280, Note_on_c, 2, 74, 52
8, 110384, Note_on_c, 2, 74, 0
8, 110400, Note_on_c, 2, 74, 52
8, 110519, Note_on_c, 2, 74, 0
8, 113880, Note_on_c, 2, 69, 52
8, 113984, Note_on_c, 2, 69, 0
8, 114000, Note_on_c, 2, 69, 52
8, 114104, Note_on_c, 2, 69, 0
8, 114120, Note_on_c, 2, 66, 52
8, 114224, Note_on_c, 2, 66, 0
8, 114240, Note_on_c, 2, 62, 52
8, 114359, Note_on_c, 2, 62, 0
8, 115320, Note_on_c, 2, 62, 52
8, 115424, Note_on_c, 2, 62, 0
8, 115440, Note_on_c, 2, 62, 52
8, 115544, Note_on_c, 2, 62, 0
8, 115560, Note_on_c, 2, 62, 52
8, 115664, Note_on_c, 2, 62, 0
8, 115680, Note_on_c, 2, 69, 52
8, 115799, Note_on_c, 2, 69, 0
8, 118680, Note_on_c, 2, 62, 52
8, 118799, Note_on_c, 2, 62, 0
8, 118800, Note_on_c, 2, 62, 52
8, 118919, Note_on_c, 2, 62, 0
8, 118920, Note_on_c, 2, 62, 52
8, 119024, Note_on_c, 2, 62, 0
8, 119040, Note_on_c, 2, 62, 52
8, 119144, Note_on_c, 2, 62, 0
8, 119160, Note_on_c, 2, 62, 52
8, 119264, Note_on_c, 2, 62, 0
8, 119280, Note_on_c, 2, 66, 52
8, 119384, Note_on_c, 2, 66, 0
8, 119400, Note_on_c, 2, 62, 52
8, 119504, Note_on_c, 2, 62, 0
8, 119520, Note_on_c, 2, 74, 52
8, 119639, Note_on_c, 2, 74, 0
8, 119880, Note_on_c, 2, 76, 52
8, 119984, Note_on_c, 2, 76, 0
8, 120000, Note_on_c, 2, 76, 52
8, 120119, Note_on_c, 2, 76, 0
8, 120360, Note_on_c, 2, 74, 52
8, 120464, Note_on_c, 2, 74, 0
8, 120480, Note_on_c, 2, 74, 52
8, 120584, Note_on_c, 2, 74, 0
8, 120600, Note_on_c, 2, 69, 52
8, 120704, Note_on_c, 2, 69, 0
8, 120720, Note_on_c, 2, 69, 52
8, 120824, Note_on_c, 2, 69, 0
8, 120840, Note_on_c, 2, 69, 52
8, 120944, Note_on_c, 2, 69, 0
8, 120960, Note_on_c, 2, 69, 52
8, 121079, Note_on_c, 2, 69, 0
8, 122040, Note_on_c, 2, 69, 52
8, 122159, Note_on_c, 2, 69, 0
8, 122160, Note_on_c, 2, 69, 52
8, 122279, Note_on_c, 2, 69, 0
8, 122280, Note_on_c, 2, 69, 52
8, 122384, Note_on_c, 2, 69, 0
8, 122400, Note_on_c, 2, 62, 52
8, 122519, Note_on_c, 2, 62, 0
8, 123240, Note_on_c, 2, 76, 52
8, 123344, Note_on_c, 2, 76, 0
8, 123360, Note_on_c, 2, 78, 52
8, 123479, Note_on_c, 2, 78, 0
8, 123600, Note_on_c, 2, 79, 52
8, 123719, Note_on_c, 2, 79, 0
8, 123840, Note_on_c, 2, 76, 52
8, 123959, Note_on_c, 2, 76, 0
8, 124080, Note_on_c, 2, 69, 52
8, 124184, Note_on_c, 2, 69, 0
8, 124200, Note_on_c, 2, 69, 52
8, 124304, Note_on_c, 2, 69, 0
8, 124320, Note_on_c, 2, 69, 52
8, 124439, Note_on_c, 2, 69, 0
8, 124560, Note_on_c, 2, 69, 52
8, 124679, Note_on_c, 2, 69, 0
8, 124800, Note_on_c, 2, 69, 76
8, 124919, Note_on_c, 2, 69, 0
8, 125280, Note_on_c, 2, 69, 76
8, 125399, Note_on_c, 2, 69, 0
8, 125760, Note_on_c, 2, 74, 76
8, 125879, Note_on_c, 2, 74, 0
8, 126240, Note_on_c, 2, 78, 76
8, 126359, Note_on_c, 2, 78, 0
8, 126900, Note_on_c, 2, 74, 76
8, 126953, Note_on_c, 2, 74, 0
8, 126960, Note_on_c, 2, 74, 76
8, 127133, Note_on_c, 2, 74, 0
8, 127140, Note_on_c, 2, 78, 76
8, 127193, Note_on_c, 2, 78, 0
8, 127200, Note_on_c, 2, 74, 76
8, 127373, Note_on_c, 2, 74, 0
8, 127380, Note_on_c, 2, 74, 76
8, 127433, Note_on_c, 2, 74, 0
8, 127440, Note_on_c, 2, 74, 76
8, 127613, Note_on_c, 2, 74, 0
8, 127620, Note_on_c, 2, 74, 76
8, 127673, Note_on_c, 2, 74, 0
8, 127680, Note_on_c, 2, 74, 76
8, 127919, Note_on_c, 2, 74, 0
8, 135540, Note_on_c, 2, 66, 76
8, 135593, Note_on_c, 2, 66, 0
8, 135600, Note_on_c, 2, 66, 76
8, 135773, Note_on_c, 2, 66, 0
8, 135780, Note_on_c, 2, 69, 76
8, 135833, Note_on_c, 2, 69, 0
8, 135840, Note_on_c, 2, 69, 76
8, 136013, Note_on_c, 2, 69, 0
8, 136020, Note_on_c, 2, 74, 76
8, 136073, Note_on_c, 2, 74, 0
8, 136080, Note_on_c, 2, 74, 76
8, 136253, Note_on_c, 2, 74, 0
8, 136260, Note_on_c, 2, 74, 76
8, 136313, Note_on_c, 2, 74, 0
8, 136320, Note_on_c, 2, 74, 76
8, 136439, Note_on_c, 2, 74, 0
8, 136800, Note_on_c, 2, 76, 76
8, 136919, Note_on_c, 2, 76, 0
8, 137460, Note_on_c, 2, 69, 76
8, 137513, Note_on_c, 2, 69, 0
8, 137520, Note_on_c, 2, 69, 76
8, 137693, Note_on_c, 2, 69, 0
8, 137700, Note_on_c, 2, 69, 76
8, 137753, Note_on_c, 2, 69, 0
8, 137760, Note_on_c, 2, 69, 76
8, 137933, Note_on_c, 2, 69, 0
8, 137940, Note_on_c, 2, 66, 76
8, 137993, Note_on_c, 2, 66, 0
8, 138000, Note_on_c, 2, 62, 76
8, 138173, Note_on_c, 2, 62, 0
8, 138180, Note_on_c, 2, 69, 76
8, 138233, Note_on_c, 2, 69, 0
8, 138240, Note_on_c, 2, 69, 76
8, 138413, Note_on_c, 2, 69, 0
8, 138420, Note_on_c, 2, 69, 76
8, 138473, Note_on_c, 2, 69, 0
8, 138480, Note_on_c, 2, 69, 76
8, 138653, Note_on_c, 2, 69, 0
8, 138660, Note_on_c, 2, 69, 76
8, 138713, Note_on_c, 2, 69, 0
8, 138720, Note_on_c, 2, 69, 76
8, 139067, Note_on_c, 2, 69, 0
8, 139080, Note_on_c, 2, 69, 76
8, 139187, Note_on_c, 2, 69, 0
8, 139200, Note_on_c, 2, 69, 76
8, 139439, Note_on_c, 2, 69, 0
8, 145560, Note_on_c, 2, 69, 76
8, 145664, Note_on_c, 2, 69, 0
8, 145680, Note_on_c, 2, 69, 76
8, 145784, Note_on_c, 2, 69, 0
8, 145800, Note_on_c, 2, 66, 76
8, 145904, Note_on_c, 2, 66, 0
8, 145920, Note_on_c, 2, 62, 76
8, 146039, Note_on_c, 2, 62, 0
8, 147000, Note_on_c, 2, 62, 76
8, 147104, Note_on_c, 2, 62, 0
8, 147120, Note_on_c, 2, 62, 76
8, 147224, Note_on_c, 2, 62, 0
8, 147240, Note_on_c, 2, 62, 76
8, 147344, Note_on_c, 2, 62, 0
8, 147360, Note_on_c, 2, 69, 76
8, 147479, Note_on_c, 2, 69, 0
8, 150360, Note_on_c, 2, 62, 76
8, 150464, Note_on_c, 2, 62, 0
8, 150480, Note_on_c, 2, 62, 76
8, 150584, Note_on_c, 2, 62, 0
8, 150600, Note_on_c, 2, 62, 76
8, 150704, Note_on_c, 2, 62, 0
8, 150720, Note_on_c, 2, 62, 76
8, 150824, Note_on_c, 2, 62, 0
8, 150840, Note_on_c, 2, 62, 76
8, 150944, Note_on_c, 2, 62, 0
8, 150960, Note_on_c, 2, 66, 76
8, 151064, Note_on_c, 2, 66, 0
8, 151080, Note_on_c, 2, 62, 76
8, 151184, Note_on_c, 2, 62, 0
8, 151200, Note_on_c, 2, 74, 76
8, 151319, Note_on_c, 2, 74, 0
8, 151560, Note_on_c, 2, 76, 76
8, 151664, Note_on_c, 2, 76, 0
8, 151680, Note_on_c, 2, 76, 76
8, 151799, Note_on_c, 2, 76, 0
8, 152040, Note_on_c, 2, 74, 76
8, 152144, Note_on_c, 2, 74, 0
8, 152160, Note_on_c, 2, 74, 76
8, 152264, Note_on_c, 2, 74, 0
8, 152280, Note_on_c, 2, 69, 76
8, 152384, Note_on_c, 2, 69, 0
8, 152400, Note_on_c, 2, 69, 76
8, 152504, Note_on_c, 2, 69, 0
8, 152520, Note_on_c, 2, 69, 76
8, 152624, Note_on_c, 2, 69, 0
8, 152640, Note_on_c, 2, 69, 76
8, 152759, Note_on_c, 2, 69, 0
8, 153720, Note_on_c, 2, 69, 76
8, 153824, Note_on_c, 2, 69, 0
8, 153840, Note_on_c, 2, 69, 76
8, 153944, Note_on_c, 2, 69, 0
8, 153960, Note_on_c, 2, 69, 76
8, 154064, Note_on_c, 2, 69, 0
8, 154080, Note_on_c, 2, 62, 76
8, 154199, Note_on_c, 2, 62, 0
8, 154920, Note_on_c, 2, 76, 76
8, 155024, Note_on_c, 2, 76, 0
8, 155040, Note_on_c, 2, 78, 76
8, 155159, Note_on_c, 2, 78, 0
8, 155280, Note_on_c, 2, 79, 76
8, 155399, Note_on_c, 2, 79, 0
8, 155520, Note_on_c, 2, 76, 76
8, 155639, Note_on_c, 2, 76, 0
8, 155760, Note_on_c, 2, 69, 76
8, 155864, Note_on_c, 2, 69, 0
8, 155880, Note_on_c, 2, 69, 76
8, 155984, Note_on_c, 2, 69, 0
8, 156000, Note_on_c, 2, 69, 76
8, 156119, Note_on_c, 2, 69, 0
8, 156240, Note_on_c, 2, 69, 76
8, 156359, Note_on_c, 2, 69, 0
8, 156480, Note_on_c, 2, 69, 76
8, 156599, Note_on_c, 2, 69, 0
8, 165240, Note_on_c, 2, 66, 52
8, 165359, Note_on_c, 2, 66, 0
8, 165360, Note_on_c, 2, 66, 52
8, 165479, Note_on_c, 2, 66, 0
8, 165480, Note_on_c, 2, 66, 52
8, 165584, Note_on_c, 2, 66, 0
8, 165600, Note_on_c, 2, 66, 52
8, 165719, Note_on_c, 2, 66, 0
8, 169560, Note_on_c, 2, 69, 52
8, 169679, Note_on_c, 2, 69, 0
8, 169680, Note_on_c, 2, 69, 52
8, 169799, Note_on_c, 2, 69, 0
8, 169800, Note_on_c, 2, 69, 52
8, 169904, Note_on_c, 2, 69, 0
8, 169920, Note_on_c, 2, 62, 52
8, 170039, Note_on_c, 2, 62, 0
8, 172920, Note_on_c, 2, 69, 52
8, 173024, Note_on_c, 2, 69, 0
8, 173040, Note_on_c, 2, 69, 52
8, 173144, Note_on_c, 2, 69, 0
8, 173160, Note_on_c, 2, 69, 52
8, 173264, Note_on_c, 2, 69, 0
8, 173280, Note_on_c, 2, 62, 52
8, 173399, Note_on_c, 2, 62, 0
8, 175800, Note_on_c, 2, 76, 52
8, 175904, Note_on_c, 2, 76, 0
8, 175920, Note_on_c, 2, 76, 52
8, 176024, Note_on_c, 2, 76, 0
8, 176040, Note_on_c, 2, 76, 52
8, 176144, Note_on_c, 2, 76, 0
8, 176160, Note_on_c, 2, 76, 52
8, 176279, Note_on_c, 2, 76, 0
8, 181080, Note_on_c, 2, 78, 52
8, 181184, Note_on_c, 2, 78, 0
8, 181200, Note_on_c, 2, 78, 52
8, 181304, Note_on_c, 2, 78, 0
8, 181320, Note_on_c, 2, 78, 52
8, 181424, Note_on_c, 2, 78, 0
8, 181440, Note_on_c, 2, 66, 52
8, 181559, Note_on_c, 2, 66, 0
8, 191520, Note_on_c, 2, 69, 52
8, 191639, Note_on_c, 2, 69, 0
8, 191760, Note_on_c, 2, 69, 52
8, 191879, Note_on_c, 2, 69, 0
8, 192000, Note_on_c, 2, 69, 52
8, 192119, Note_on_c, 2, 69, 0
8, 192240, Note_on_c, 2, 69, 52
8, 192359, Note_on_c, 2, 69, 0
8, 192480, Note_on_c, 2, 69, 52
8, 192599, Note_on_c, 2, 69, 0
8, 192720, Note_on_c, 2, 69, 52
8, 192839, Note_on_c, 2, 69, 0
8, 192960, Note_on_c, 2, 69, 52
8, 193079, Note_on_c, 2, 69, 0
8, 193200, Note_on_c, 2, 62, 52
8, 193319, Note_on_c, 2, 62, 0
8, 193440, Note_on_c, 2, 69, 52
8, 193544, Note_on_c, 2, 69, 0
8, 193560, Note_on_c, 2, 69, 52
8, 193607, Note_on_c, 2, 69, 0
8, 193620, Note_on_c, 2, 69, 52
8, 193667, Note_on_c, 2, 69, 0
8, 193680, Note_on_c, 2, 69, 52
8, 193784, Note_on_c, 2, 69, 0
8, 193800, Note_on_c, 2, 69, 52
8, 193904, Note_on_c, 2, 69, 0
8, 193920, Note_on_c, 2, 69, 52
8, 194039, Note_on_c, 2, 69, 0
8, 197880, Note_on_c, 2, 69, 52
8, 197999, Note_on_c, 2, 69, 0
8, 198000, Note_on_c, 2, 69, 52
8, 198119, Note_on_c, 2, 69, 0
8, 198120, Note_on_c, 2, 69, 52
8, 198224, Note_on_c, 2, 69, 0
8, 198240, Note_on_c, 2, 69, 52
8, 198344, Note_on_c, 2, 69, 0
8, 198360, Note_on_c, 2, 57, 52
8, 198464, Note_on_c, 2, 57, 0
8, 198480, Note_on_c, 2, 57, 52
8, 198599, Note_on_c, 2, 57, 0
8, 198600, Note_on_c, 2, 62, 52
8, 198704, Note_on_c, 2, 62, 0
8, 198720, Note_on_c, 2, 62, 52
8, 198839, Note_on_c, 2, 62, 0
8, 198840, Note_on_c, 2, 66, 52
8, 198944, Note_on_c, 2, 66, 0
8, 198960, Note_on_c, 2, 66, 52
8, 199079, Note_on_c, 2, 66, 0
8, 199080, Note_on_c, 2, 69, 52
8, 199184, Note_on_c, 2, 69, 0
8, 199200, Note_on_c, 2, 69, 52
8, 199319, Note_on_c, 2, 69, 0
8, 199320, Note_on_c, 2, 74, 52
8, 199424, Note_on_c, 2, 74, 0
8, 199440, Note_on_c, 2, 74, 52
8, 199559, Note_on_c, 2, 74, 0
8, 199560, Note_on_c, 2, 78, 52
8, 199664, Note_on_c, 2, 78, 0
8, 199680, Note_on_c, 2, 79, 52
8, 199799, Note_on_c, 2, 79, 0
8, 201840, Note_on_c, 2, 69, 52
8, 201959, Note_on_c, 2, 69, 0
8, 202080, Note_on_c, 2, 69, 52
8, 202199, Note_on_c, 2, 69, 0
8, 202320, Note_on_c, 2, 69, 52
8, 202439, Note_on_c, 2, 69, 0
8, 202560, Note_on_c, 2, 69, 52
8, 202679, Note_on_c, 2, 69, 0
8, 202800, Note_on_c, 2, 69, 52
8, 202919, Note_on_c, 2, 69, 0
8, 203040, Note_on_c, 2, 69, 52
8, 203144, Note_on_c, 2, 69, 0
8, 203160, Note_on_c, 2, 62, 52
8, 203279, Note_on_c, 2, 62, 0
8, 203280, Note_on_c, 2, 62, 52
8, 203399, Note_on_c, 2, 62, 0
8, 203400, Note_on_c, 2, 62, 52
8, 203504, Note_on_c, 2, 62, 0
8, 203520, Note_on_c, 2, 62, 52
8, 203624, Note_on_c, 2, 62, 0
8, 203640, Note_on_c, 2, 62, 52
8, 203744, Note_on_c, 2, 62, 0
8, 203760, Note_on_c, 2, 62, 52
8, 203864, Note_on_c, 2, 62, 0
8, 203880, Note_on_c, 2, 62, 52
8, 203984, Note_on_c, 2, 62, 0
8, 204000, Note_on_c, 2, 62, 52
8, 204104, Note_on_c, 2, 62, 0
8, 204120, Note_on_c, 2, 74, 52
8, 204224, Note_on_c, 2, 74, 0
8, 204240, Note_on_c, 2, 69, 52
8, 204344, Note_on_c, 2, 69, 0
8, 204360, Note_on_c, 2, 74, 52
8, 204464, Note_on_c, 2, 74, 0
8, 204480, Note_on_c, 2, 74, 52
8, 204599, Note_on_c, 2, 74, 0
8, 207960, Note_on_c, 2, 69, 52
8, 208064, Note_on_c, 2, 69, 0
8, 208080, Note_on_c, 2, 69, 52
8, 208184, Note_on_c, 2, 69, 0
8, 208200, Note_on_c, 2, 66, 52
8, 208304, Note_on_c, 2, 66, 0
8, 208320, Note_on_c, 2, 62, 52
8, 208439, Note_on_c, 2, 62, 0
8, 209400, Note_on_c, 2, 62, 52
8, 209504, Note_on_c, 2, 62, 0
8, 209520, Note_on_c, 2, 62, 52
8, 209624, Note_on_c, 2, 62, 0
8, 209640, Note_on_c, 2, 62, 52
8, 209744, Note_on_c, 2, 62, 0
8, 209760, Note_on_c, 2, 69, 52
8, 209879, Note_on_c, 2, 69, 0
8, 212760, Note_on_c, 2, 62, 52
8, 212879, Note_on_c, 2, 62, 0
8, 212880, Note_on_c, 2, 62, 52
8, 212999, Note_on_c, 2, 62, 0
8, 213000, Note_on_c, 2, 62, 52
8, 213104, Note_on_c, 2, 62, 0
8, 213120, Note_on_c, 2, 62, 52
8, 213224, Note_on_c, 2, 62, 0
8, 213240, Note_on_c, 2, 62, 52
8, 213344, Note_on_c, 2, 62, 0
8, 213360, Note_on_c, 2, 66, 52
8, 213464, Note_on_c, 2, 66, 0
8, 213480, Note_on_c, 2, 62, 52
8, 213584, Note_on_c, 2, 62, 0
8, 213600, Note_on_c, 2, 74, 52
8, 213719, Note_on_c, 2, 74, 0
8, 213960, Note_on_c, 2, 76, 52
8, 214064, Note_on_c, 2, 76, 0
8, 214080, Note_on_c, 2, 76, 52
8, 214199, Note_on_c, 2, 76, 0
8, 214440, Note_on_c, 2, 74, 52
8, 214544, Note_on_c, 2, 74, 0
8, 214560, Note_on_c, 2, 74, 52
8, 214664, Note_on_c, 2, 74, 0
8, 214680, Note_on_c, 2, 69, 52
8, 214784, Note_on_c, 2, 69, 0
8, 214800, Note_on_c, 2, 69, 52
8, 214904, Note_on_c, 2, 69, 0
8, 214920, Note_on_c, 2, 69, 52
8, 215024, Note_on_c, 2, 69, 0
8, 215040, Note_on_c, 2, 69, 52
8, 215159, Note_on_c, 2, 69, 0
8, 216120, Note_on_c, 2, 69, 52
8, 216239, Note_on_c, 2, 69, 0
8, 216240, Note_on_c, 2, 69, 52
8, 216359, Note_on_c, 2, 69, 0
8, 216360, Note_on_c, 2, 69, 52
8, 216464, Note_on_c, 2, 69, 0
8, 216480, Note_on_c, 2, 62, 52
8, 216599, Note_on_c, 2, 62, 0
8, 217320, Note_on_c, 2, 76, 52
8, 217424, Note_on_c, 2, 76, 0
8, 217440, Note_on_c, 2, 78, 52
8, 217559, Note_on_c, 2, 78, 0
8, 217680, Note_on_c, 2, 79, 52
8, 217799, Note_on_c, 2, 79, 0
8, 217920, Note_on_c, 2, 76, 52
8, 218039, Note_on_c, 2, 76, 0
8, 218160, Note_on_c, 2, 69, 52
8, 218264, Note_on_c, 2, 69, 0
8, 218280, Note_on_c, 2, 69, 52
8, 218384, Note_on_c, 2, 69, 0
8, 218400, Note_on_c, 2, 69, 52
8, 218519, Note_on_c, 2, 69, 0
8, 218640, Note_on_c, 2, 69, 52
8, 218759, Note_on_c, 2, 69, 0
8, 218880, Note_on_c, 2, 69, 76
8, 218999, Note_on_c, 2, 69, 0
8, 219360, Note_on_c, 2, 69, 76
8, 219479, Note_on_c, 2, 69, 0
8, 219840, Note_on_c, 2, 74, 76
8, 219959, Note_on_c, 2, 74, 0
8, 220320, Note_on_c, 2, 78, 76
8, 220439, Note_on_c, 2, 78, 0
8, 220980, Note_on_c, 2, 74, 76
8, 221033, Note_on_c, 2, 74, 0
8, 221040, Note_on_c, 2, 74, 76
8, 221213, Note_on_c, 2, 74, 0
8, 221220, Note_on_c, 2, 78, 76
8, 221273, Note_on_c, 2, 78, 0
8, 221280, Note_on_c, 2, 74, 76
8, 221453, Note_on_c, 2, 74, 0
8, 221460, Note_on_c, 2, 74, 76
8, 221513, Note_on_c, 2, 74, 0
8, 221520, Note_on_c, 2, 74, 76
8, 221693, Note_on_c, 2, 74, 0
8, 221700, Note_on_c, 2, 74, 76
8, 221753, Note_on_c, 2, 74, 0
8, 221760, Note_on_c, 2, 74, 76
8, 221999, Note_on_c, 2, 74, 0
8, 229620, Note_on_c, 2, 66, 76
8, 229673, Note_on_c, 2, 66, 0
8, 229680, Note_on_c, 2, 66, 76
8, 229853, Note_on_c, 2, 66, 0
8, 229860, Note_on_c, 2, 69, 76
8, 229913, Note_on_c, 2, 69, 0
8, 229920, Note_on_c, 2, 69, 76
8, 230093, Note_on_c, 2, 69, 0
8, 230100, Note_on_c, 2, 74, 76
8, 230153, Note_on_c, 2, 74, 0
8, 230160, Note_on_c, 2, 74, 76
8, 230333, Note_on_c, 2, 74, 0
8, 230340, Note_on_c, 2, 74, 76
8, 230393, Note_on_c, 2, 74, 0
8, 230400, Note_on_c, 2, 74, 76
8, 230519, Note_on_c, 2, 74, 0
8, 230880, Note_on_c, 2, 76, 76
8, 230999, Note_on_c, 2, 76, 0
8, 231540, Note_on_c, 2, 69, 76
8, 231593, Note_on_c, 2, 69, 0
8, 231600, Note_on_c, 2, 69, 76
8, 231773, Note_on_c, 2, 69, 0
8, 231780, Note_on_c, 2, 69, 76
8, 231833, Note_on_c, 2, 69, 0
8, 231840, Note_on_c, 2, 69, 76
8, 232013, Note_on_c, 2, 69, 0
8, 232020, Note_on_c, 2, 66, 76
8, 232073, Note_on_c, 2, 66, 0
8, 232080, Note_on_c, 2, 62, 76
8, 232253, Note_on_c, 2, 62, 0
8, 232260, Note_on_c, 2, 69, 76
8, 232313, Note_on_c, 2, 69, 0
8, 232320, Note_on_c, 2, 69, 76
8, 232493, Note_on_c, 2, 69, 0
8, 232500, Note_on_c, 2, 69, 76
8, 232553, Note_on_c, 2, 69, 0
8, 232560, Note_on_c, 2, 69, 76
8, 232733, Note_on_c, 2, 69, 0
8, 232740, Note_on_c, 2, 69, 76
8, 232793, Note_on_c, 2, 69, 0
8, 232800, Note_on_c, 2, 69, 76
8, 233147, Note_on_c, 2, 69, 0
8, 233160, Note_on_c, 2, 69, 76
8, 233267, Note_on_c, 2, 69, 0
8, 233280, Note_on_c, 2, 69, 76
8, 234239, Note_on_c, 2, 69, 0
8, 234239, End_track
9, 0, Start_track
9, 0, Title_t, "Timpani"
9, 0, MIDI_port, 0
9, 0, Program_c, 3, 47
9, 0, Control_c, 3, 10, 25
9, 0, Control_c, 3, 11, 127
9, 0, Control_c, 3, 7, 96
9, 0, Note_on_c, 3, 50, 72
9, 14, Note_on_c, 3, 50, 0
9, 15, Note_on_c, 3, 50, 76
9, 29, Note_on_c, 3, 50, 0
9, 30, Note_on_c, 3, 50, 73
9, 44, Note_on_c, 3, 50, 0
9, 45, Note_on_c, 3, 50, 77
9, 59, Note_on_c, 3, 50, 0
9, 60, Note_on_c, 3, 50, 76
9, 74, Note_on_c, 3, 50, 0
9, 75, Note_on_c, 3, 50, 75
9, 89, Note_on_c, 3, 50, 0
9, 90, Note_on_c, 3, 50, 74
9, 104, Note_on_c, 3, 50, 0
9, 105, Note_on_c, 3, 50, 78
9, 119, Note_on_c, 3, 50, 0
9, 120, Note_on_c, 3, 50, 77
9, 134, Note_on_c, 3, 50, 0
9, 135, Note_on_c, 3, 50, 76
9, 149, Note_on_c, 3, 50, 0
9, 150, Note_on_c, 3, 50, 73
9, 164, Note_on_c, 3, 50, 0
9, 165, Note_on_c, 3, 50, 77
9, 179, Note_on_c, 3, 50, 0
9, 180, Note_on_c, 3, 50, 76
9, 194, Note_on_c, 3, 50, 0
9, 195, Note_on_c, 3, 50, 76
9, 209, Note_on_c, 3, 50, 0
9, 210, Note_on_c, 3, 50, 74
9, 224, Note_on_c, 3, 50, 0
9, 225, Note_on_c, 3, 50, 72
9, 239, Note_on_c, 3, 50, 0
9, 240, Note_on_c, 3, 50, 72
9, 254, Note_on_c, 3, 50, 0
9, 255, Note_on_c, 3, 50, 74
9, 269, Note_on_c, 3, 50, 0
9, 270, Note_on_c, 3, 50, 73
9, 284, Note_on_c, 3, 50, 0
9, 285, Note_on_c, 3, 50, 73
9, 299, Note_on_c, 3, 50, 0
9, 300, Note_on_c, 3, 50, 78
9, 314, Note_on_c, 3, 50, 0
9, 315, Note_on_c, 3, 50, 75
9, 329, Note_on_c, 3, 50, 0
9, 330, Note_on_c, 3, 50, 72
9, 344, Note_on_c, 3, 50, 0
9, 345, Note_on_c, 3, 50, 72
9, 359, Note_on_c, 3, 50, 0
9, 360, Note_on_c, 3, 50, 72
9, 374, Note_on_c, 3, 50, 0
9, 375, Note_on_c, 3, 50, 75
9, 389, Note_on_c, 3, 50, 0
9, 390, Note_on_c, 3, 50, 76
9, 404, Note_on_c, 3, 50, 0
9, 405, Note_on_c, 3, 50, 76
9, 419, Note_on_c, 3, 50, 0
9, 420, Note_on_c, 3, 50, 76
9, 434, Note_on_c, 3, 50, 0
9, 435, Note_on_c, 3, 50, 76
9, 449, Note_on_c, 3, 50, 0
9, 450, Note_on_c, 3, 50, 73
9, 464, Note_on_c, 3, 50, 0
9, 465, Note_on_c, 3, 50, 76
9, 479, Note_on_c, 3, 50, 0
9, 480, Note_on_c, 3, 50, 75
9, 494, Note_on_c, 3, 50, 0
9, 495, Note_on_c, 3, 50, 74
9, 509, Note_on_c, 3, 50, 0
9, 510, Note_on_c, 3, 50, 72
9, 524, Note_on_c, 3, 50, 0
9, 525, Note_on_c, 3, 50, 76
9, 539, Note_on_c, 3, 50, 0
9, 540, Note_on_c, 3, 50, 77
9, 554, Note_on_c, 3, 50, 0
9, 555, Note_on_c, 3, 50, 77
9, 569, Note_on_c, 3, 50, 0
9, 570, Note_on_c, 3, 50, 76
9, 584, Note_on_c, 3, 50, 0
9, 585, Note_on_c, 3, 50, 74
9, 599, Note_on_c, 3, 50, 0
9, 600, Note_on_c, 3, 50, 78
9, 614, Note_on_c, 3, 50, 0
9, 615, Note_on_c, 3, 50, 76
9, 629, Note_on_c, 3, 50, 0
9, 630, Note_on_c, 3, 50, 78
9, 644, Note_on_c, 3, 50, 0
9, 645, Note_on_c, 3, 50, 78
9, 659, Note_on_c, 3, 50, 0
9, 660, Note_on_c, 3, 50, 76
9, 674, Note_on_c, 3, 50, 0
9, 675, Note_on_c, 3, 50, 73
9, 689, Note_on_c, 3, 50, 0
9, 690, Note_on_c, 3, 50, 75
9, 704, Note_on_c, 3, 50, 0
9, 705, Note_on_c, 3, 50, 73
9, 719, Note_on_c, 3, 50, 0
9, 720, Note_on_c, 3, 50, 77
9, 734, Note_on_c, 3, 50, 0
9, 735, Note_on_c, 3, 50, 73
9, 749, Note_on_c, 3, 50, 0
9, 750, Note_on_c, 3, 50, 77
9, 764, Note_on_c, 3, 50, 0
9, 765, Note_on_c, 3, 50, 77
9, 779, Note_on_c, 3, 50, 0
9, 780, Note_on_c, 3, 50, 78
9, 794, Note_on_c, 3, 50, 0
9, 795, Note_on_c, 3, 50, 78
9, 809, Note_on_c, 3, 50, 0
9, 810, Note_on_c, 3, 50, 76
9, 824, Note_on_c, 3, 50, 0
9, 825, Note_on_c, 3, 50, 75
9, 839, Note_on_c, 3, 50, 0
9, 840, Note_on_c, 3, 50, 74
9, 854, Note_on_c, 3, 50, 0
9, 855, Note_on_c, 3, 50, 74
9, 869, Note_on_c, 3, 50, 0
9, 870, Note_on_c, 3, 50, 77
9, 884, Note_on_c, 3, 50, 0
9, 885, Note_on_c, 3, 50, 72
9, 899, Note_on_c, 3, 50, 0
9, 900, Note_on_c, 3, 50, 75
9, 914, Note_on_c, 3, 50, 0
9, 915, Note_on_c, 3, 50, 72
9, 929, Note_on_c, 3, 50, 0
9, 930, Note_on_c, 3, 50, 76
9, 944, Note_on_c, 3, 50, 0
9, 945, Note_on_c, 3, 50, 72
9, 959, Note_on_c, 3, 50, 0
9, 960, Note_on_c, 3, 50, 72
9, 974, Note_on_c, 3, 50, 0
9, 975, Note_on_c, 3, 50, 78
9, 989, Note_on_c, 3, 50, 0
9, 990, Note_on_c, 3, 50, 74
9, 1004, Note_on_c, 3, 50, 0
9, 1005, Note_on_c, 3, 50, 74
9, 1019, Note_on_c, 3, 50, 0
9, 1020, Note_on_c, 3, 50, 76
9, 1034, Note_on_c, 3, 50, 0
9, 1035, Note_on_c, 3, 50, 76
9, 1049, Note_on_c, 3, 50, 0
9, 1050, Note_on_c, 3, 50, 77
9, 1064, Note_on_c, 3, 50, 0
9, 1065, Note_on_c, 3, 50, 76
9, 1079, Note_on_c, 3, 50, 0
9, 1080, Note_on_c, 3, 50, 75
9, 1094, Note_on_c, 3, 50, 0
9, 1095, Note_on_c, 3, 50, 73
9, 1109, Note_on_c, 3, 50, 0
9, 1110, Note_on_c, 3, 50, 76
9, 1124, Note_on_c, 3, 50, 0
9, 1125, Note_on_c, 3, 50, 75
9, 1139, Note_on_c, 3, 50, 0
9, 1140, Note_on_c, 3, 50, 75
9, 1154, Note_on_c, 3, 50, 0
9, 1155, Note_on_c, 3, 50, 78
9, 1169, Note_on_c, 3, 50, 0
9, 1170, Note_on_c, 3, 50, 76
9, 1184, Note_on_c, 3, 50, 0
9, 1185, Note_on_c, 3, 50, 72
9, 1199, Note_on_c, 3, 50, 0
9, 1200, Note_on_c, 3, 50, 76
9, 1214, Note_on_c, 3, 50, 0
9, 1215, Note_on_c, 3, 50, 75
9, 1229, Note_on_c, 3, 50, 0
9, 1230, Note_on_c, 3, 50, 76
9, 1244, Note_on_c, 3, 50, 0
9, 1245, Note_on_c, 3, 50, 76
9, 1259, Note_on_c, 3, 50, 0
9, 1260, Note_on_c, 3, 50, 76
9, 1274, Note_on_c, 3, 50, 0
9, 1275, Note_on_c, 3, 50, 74
9, 1289, Note_on_c, 3, 50, 0
9, 1290, Note_on_c, 3, 50, 73
9, 1304, Note_on_c, 3, 50, 0
9, 1305, Note_on_c, 3, 50, 73
9, 1319, Note_on_c, 3, 50, 0
9, 1320, Note_on_c, 3, 50, 75
9, 1334, Note_on_c, 3, 50, 0
9, 1335, Note_on_c, 3, 50, 77
9, 1349, Note_on_c, 3, 50, 0
9, 1350, Note_on_c, 3, 50, 76
9, 1364, Note_on_c, 3, 50, 0
9, 1365, Note_on_c, 3, 50, 78
9, 1379, Note_on_c, 3, 50, 0
9, 1380, Note_on_c, 3, 50, 77
9, 1394, Note_on_c, 3, 50, 0
9, 1395, Note_on_c, 3, 50, 74
9, 1409, Note_on_c, 3, 50, 0
9, 1410, Note_on_c, 3, 50, 73
9, 1424, Note_on_c, 3, 50, 0
9, 1425, Note_on_c, 3, 50, 76
9, 1439, Note_on_c, 3, 50, 0
9, 1440, Note_on_c, 3, 50, 75
9, 1454, Note_on_c, 3, 50, 0
9, 1455, Note_on_c, 3, 50, 72
9, 1469, Note_on_c, 3, 50, 0
9, 1470, Note_on_c, 3, 50, 76
9, 1484, Note_on_c, 3, 50, 0
9, 1485, Note_on_c, 3, 50, 76
9, 1499, Note_on_c, 3, 50, 0
9, 1500, Note_on_c, 3, 50, 73
9, 1514, Note_on_c, 3, 50, 0
9, 1515, Note_on_c, 3, 50, 78
9, 1529, Note_on_c, 3, 50, 0
9, 1530, Note_on_c, 3, 50, 73
9, 1544, Note_on_c, 3, 50, 0
9, 1545, Note_on_c, 3, 50, 78
9, 1559, Note_on_c, 3, 50, 0
9, 1560, Note_on_c, 3, 50, 76
9, 1574, Note_on_c, 3, 50, 0
9, 1575, Note_on_c, 3, 50, 74
9, 1589, Note_on_c, 3, 50, 0
9, 1590, Note_on_c, 3, 50, 75
9, 1604, Note_on_c, 3, 50, 0
9, 1605, Note_on_c, 3, 50, 72
9, 1619, Note_on_c, 3, 50, 0
9, 1620, Note_on_c, 3, 50, 78
9, 1634, Note_on_c, 3, 50, 0
9, 1635, Note_on_c, 3, 50, 76
9, 1649, Note_on_c, 3, 50, 0
9, 1650, Note_on_c, 3, 50, 73
9, 1664, Note_on_c, 3, 50, 0
9, 1665, Note_on_c, 3, 50, 78
9, 1679, Note_on_c, 3, 50, 0
9, 1680, Note_on_c, 3, 50, 77
9, 1694, Note_on_c, 3, 50, 0
9, 1695, Note_on_c, 3, 50, 76
9, 1709, Note_on_c, 3, 50, 0
9, 1710, Note_on_c, 3, 50, 73
9, 1724, Note_on_c, 3, 50, 0
9, 1725, Note_on_c, 3, 50, 73
9, 1739, Note_on_c, 3, 50, 0
9, 1740, Note_on_c, 3, 50, 77
9, 1754, Note_on_c, 3, 50, 0
9, 1755, Note_on_c, 3, 50, 75
9, 1769, Note_on_c, 3, 50, 0
9, 1770, Note_on_c, 3, 50, 73
9, 1784, Note_on_c, 3, 50, 0
9, 1785, Note_on_c, 3, 50, 76
9, 1799, Note_on_c, 3, 50, 0
9, 1800, Note_on_c, 3, 50, 76
9, 1814, Note_on_c, 3, 50, 0
9, 1815, Note_on_c, 3, 50, 75
9, 1829, Note_on_c, 3, 50, 0
9, 1830, Note_on_c, 3, 50, 74
9, 1844, Note_on_c, 3, 50, 0
9, 1845, Note_on_c, 3, 50, 76
9, 1859, Note_on_c, 3, 50, 0
9, 1860, Note_on_c, 3, 50, 76
9, 1874, Note_on_c, 3, 50, 0
9, 1875, Note_on_c, 3, 50, 77
9, 1889, Note_on_c, 3, 50, 0
9, 1890, Note_on_c, 3, 50, 76
9, 1904, Note_on_c, 3, 50, 0
9, 1905, Note_on_c, 3, 50, 75
9, 1919, Note_on_c, 3, 50, 0
9, 1920, Note_on_c, 3, 50, 76
9, 2099, Note_on_c, 3, 50, 0
9, 2100, Note_on_c, 3, 50, 76
9, 2159, Note_on_c, 3, 50, 0
9, 2160, Note_on_c, 3, 50, 76
9, 2219, Note_on_c, 3, 50, 0
9, 2220, Note_on_c, 3, 50, 76
9, 2279, Note_on_c, 3, 50, 0
9, 2280, Note_on_c, 3, 50, 76
9, 2339, Note_on_c, 3, 50, 0
9, 2340, Note_on_c, 3, 50, 76
9, 2399, Note_on_c, 3, 50, 0
9, 2400, Note_on_c, 3, 45, 76
9, 2579, Note_on_c, 3, 45, 0
9, 2580, Note_on_c, 3, 45, 76
9, 2639, Note_on_c, 3, 45, 0
9, 2640, Note_on_c, 3, 45, 76
9, 2819, Note_on_c, 3, 45, 0
9, 2820, Note_on_c, 3, 45, 76
9, 2879, Note_on_c, 3, 45, 0
9, 2880, Note_on_c, 3, 50, 72
9, 2894, Note_on_c, 3, 50, 0
9, 2895, Note_on_c, 3, 50, 74
9, 2909, Note_on_c, 3, 50, 0
9, 2910, Note_on_c, 3, 50, 77
9, 2924, Note_on_c, 3, 50, 0
9, 2925, Note_on_c, 3, 50, 72
9, 2939, Note_on_c, 3, 50, 0
9, 2940, Note_on_c, 3, 50, 76
9, 2954, Note_on_c, 3, 50, 0
9, 2955, Note_on_c, 3, 50, 76
9, 2969, Note_on_c, 3, 50, 0
9, 2970, Note_on_c, 3, 50, 75
9, 2984, Note_on_c, 3, 50, 0
9, 2985, Note_on_c, 3, 50, 72
9, 2999, Note_on_c, 3, 50, 0
9, 3000, Note_on_c, 3, 50, 78
9, 3014, Note_on_c, 3, 50, 0
9, 3015, Note_on_c, 3, 50, 78
9, 3029, Note_on_c, 3, 50, 0
9, 3030, Note_on_c, 3, 50, 76
9, 3044, Note_on_c, 3, 50, 0
9, 3045, Note_on_c, 3, 50, 74
9, 3059, Note_on_c, 3, 50, 0
9, 3060, Note_on_c, 3, 50, 75
9, 3074, Note_on_c, 3, 50, 0
9, 3075, Note_on_c, 3, 50, 74
9, 3089, Note_on_c, 3, 50, 0
9, 3090, Note_on_c, 3, 50, 77
9, 3104, Note_on_c, 3, 50, 0
9, 3105, Note_on_c, 3, 50, 74
9, 3119, Note_on_c, 3, 50, 0
9, 3120, Note_on_c, 3, 50, 75
9, 3134, Note_on_c, 3, 50, 0
9, 3135, Note_on_c, 3, 50, 74
9, 3149, Note_on_c, 3, 50, 0
9, 3150, Note_on_c, 3, 50, 78
9, 3164, Note_on_c, 3, 50, 0
9, 3165, Note_on_c, 3, 50, 74
9, 3179, Note_on_c, 3, 50, 0
9, 3180, Note_on_c, 3, 50, 76
9, 3194, Note_on_c, 3, 50, 0
9, 3195, Note_on_c, 3, 50, 76
9, 3209, Note_on_c, 3, 50, 0
9, 3210, Note_on_c, 3, 50, 73
9, 3224, Note_on_c, 3, 50, 0
9, 3225, Note_on_c, 3, 50, 77
9, 3239, Note_on_c, 3, 50, 0
9, 3240, Note_on_c, 3, 50, 77
9, 3254, Note_on_c, 3, 50, 0
9, 3255, Note_on_c, 3, 50, 75
9, 3269, Note_on_c, 3, 50, 0
9, 3270, Note_on_c, 3, 50, 76
9, 3284, Note_on_c, 3, 50, 0
9, 3285, Note_on_c, 3, 50, 78
9, 3299, Note_on_c, 3, 50, 0
9, 3300, Note_on_c, 3, 50, 72
9, 3314, Note_on_c, 3, 50, 0
9, 3315, Note_on_c, 3, 50, 78
9, 3329, Note_on_c, 3, 50, 0
9, 3330, Note_on_c, 3, 50, 76
9, 3344, Note_on_c, 3, 50, 0
9, 3345, Note_on_c, 3, 50, 72
9, 3359, Note_on_c, 3, 50, 0
9, 3360, Note_on_c, 3, 50, 76
9, 3374, Note_on_c, 3, 50, 0
9, 3375, Note_on_c, 3, 50, 73
9, 3389, Note_on_c, 3, 50, 0
9, 3390, Note_on_c, 3, 50, 77
9, 3404, Note_on_c, 3, 50, 0
9, 3405, Note_on_c, 3, 50, 76
9, 3419, Note_on_c, 3, 50, 0
9, 3420, Note_on_c, 3, 50, 76
9, 3434, Note_on_c, 3, 50, 0
9, 3435, Note_on_c, 3, 50, 73
9, 3449, Note_on_c, 3, 50, 0
9, 3450, Note_on_c, 3, 50, 77
9, 3464, Note_on_c, 3, 50, 0
9, 3465, Note_on_c, 3, 50, 72
9, 3479, Note_on_c, 3, 50, 0
9, 3480, Note_on_c, 3, 50, 72
9, 3494, Note_on_c, 3, 50, 0
9, 3495, Note_on_c, 3, 50, 76
9, 3509, Note_on_c, 3, 50, 0
9, 3510, Note_on_c, 3, 50, 74
9, 3524, Note_on_c, 3, 50, 0
9, 3525, Note_on_c, 3, 50, 78
9, 3539, Note_on_c, 3, 50, 0
9, 3540, Note_on_c, 3, 50, 74
9, 3554, Note_on_c, 3, 50, 0
9, 3555, Note_on_c, 3, 50, 74
9, 3569, Note_on_c, 3, 50, 0
9, 3570, Note_on_c, 3, 50, 73
9, 3584, Note_on_c, 3, 50, 0
9, 3585, Note_on_c, 3, 50, 76
9, 3599, Note_on_c, 3, 50, 0
9, 3600, Note_on_c, 3, 50, 77
9, 3614, Note_on_c, 3, 50, 0
9, 3615, Note_on_c, 3, 50, 76
9, 3629, Note_on_c, 3, 50, 0
9, 3630, Note_on_c, 3, 50, 76
9, 3644, Note_on_c, 3, 50, 0
9, 3645, Note_on_c, 3, 50, 76
9, 3659, Note_on_c, 3, 50, 0
9, 3660, Note_on_c, 3, 50, 74
9, 3674, Note_on_c, 3, 50, 0
9, 3675, Note_on_c, 3, 50, 73
9, 3689, Note_on_c, 3, 50, 0
9, 3690, Note_on_c, 3, 50, 72
9, 3704, Note_on_c, 3, 50, 0
9, 3705, Note_on_c, 3, 50, 72
9, 3719, Note_on_c, 3, 50, 0
9, 3720, Note_on_c, 3, 50, 77
9, 3734, Note_on_c, 3, 50, 0
9, 3735, Note_on_c, 3, 50, 77
9, 3749, Note_on_c, 3, 50, 0
9, 3750, Note_on_c, 3, 50, 73
9, 3764, Note_on_c, 3, 50, 0
9, 3765, Note_on_c, 3, 50, 72
9, 3779, Note_on_c, 3, 50, 0
9, 3780, Note_on_c, 3, 50, 76
9, 3794, Note_on_c, 3, 50, 0
9, 3795, Note_on_c, 3, 50, 72
9, 3809, Note_on_c, 3, 50, 0
9, 3810, Note_on_c, 3, 50, 72
9, 3824, Note_on_c, 3, 50, 0
9, 3825, Note_on_c, 3, 50, 75
9, 3839, Note_on_c, 3, 50, 0
9, 3840, Note_on_c, 3, 50, 76
9, 4019, Note_on_c, 3, 50, 0
9, 4020, Note_on_c, 3, 50, 76
9, 4039, Note_on_c, 3, 50, 0
9, 4040, Note_on_c, 3, 50, 76
9, 4059, Note_on_c, 3, 50, 0
9, 4060, Note_on_c, 3, 50, 76
9, 4079, Note_on_c, 3, 50, 0
9, 4080, Note_on_c, 3, 50, 76
9, 4259, Note_on_c, 3, 50, 0
9, 4260, Note_on_c, 3, 50, 76
9, 4319, Note_on_c, 3, 50, 0
9, 4320, Note_on_c, 3, 50, 76
9, 4439, Note_on_c, 3, 50, 0
9, 16320, Note_on_c, 3, 45, 77
9, 16334, Note_on_c, 3, 45, 0
9, 16335, Note_on_c, 3, 45, 76
9, 16349, Note_on_c, 3, 45, 0
9, 16350, Note_on_c, 3, 45, 76
9, 16364, Note_on_c, 3, 45, 0
9, 16365, Note_on_c, 3, 45, 72
9, 16379, Note_on_c, 3, 45, 0
9, 16380, Note_on_c, 3, 45, 75
9, 16394, Note_on_c, 3, 45, 0
9, 16395, Note_on_c, 3, 45, 73
9, 16409, Note_on_c, 3, 45, 0
9, 16410, Note_on_c, 3, 45, 76
9, 16424, Note_on_c, 3, 45, 0
9, 16425, Note_on_c, 3, 45, 74
9, 16439, Note_on_c, 3, 45, 0
9, 16440, Note_on_c, 3, 45, 75
9, 16454, Note_on_c, 3, 45, 0
9, 16455, Note_on_c, 3, 45, 73
9, 16469, Note_on_c, 3, 45, 0
9, 16470, Note_on_c, 3, 45, 76
9, 16484, Note_on_c, 3, 45, 0
9, 16485, Note_on_c, 3, 45, 76
9, 16499, Note_on_c, 3, 45, 0
9, 16500, Note_on_c, 3, 45, 76
9, 16514, Note_on_c, 3, 45, 0
9, 16515, Note_on_c, 3, 45, 73
9, 16529, Note_on_c, 3, 45, 0
9, 16530, Note_on_c, 3, 45, 76
9, 16544, Note_on_c, 3, 45, 0
9, 16545, Note_on_c, 3, 45, 78
9, 16559, Note_on_c, 3, 45, 0
9, 16560, Note_on_c, 3, 45, 76
9, 16574, Note_on_c, 3, 45, 0
9, 16575, Note_on_c, 3, 45, 78
9, 16589, Note_on_c, 3, 45, 0
9, 16590, Note_on_c, 3, 45, 73
9, 16604, Note_on_c, 3, 45, 0
9, 16605, Note_on_c, 3, 45, 74
9, 16619, Note_on_c, 3, 45, 0
9, 16620, Note_on_c, 3, 45, 73
9, 16634, Note_on_c, 3, 45, 0
9, 16635, Note_on_c, 3, 45, 78
9, 16649, Note_on_c, 3, 45, 0
9, 16650, Note_on_c, 3, 45, 75
9, 16664, Note_on_c, 3, 45, 0
9, 16665, Note_on_c, 3, 45, 78
9, 16679, Note_on_c, 3, 45, 0
9, 16680, Note_on_c, 3, 45, 72
9, 16694, Note_on_c, 3, 45, 0
9, 16695, Note_on_c, 3, 45, 76
9, 16709, Note_on_c, 3, 45, 0
9, 16710, Note_on_c, 3, 45, 72
9, 16724, Note_on_c, 3, 45, 0
9, 16725, Note_on_c, 3, 45, 75
9, 16739, Note_on_c, 3, 45, 0
9, 16740, Note_on_c, 3, 45, 78
9, 16754, Note_on_c, 3, 45, 0
9, 16755, Note_on_c, 3, 45, 72
9, 16769, Note_on_c, 3, 45, 0
9, 16770, Note_on_c, 3, 45, 78
9, 16784, Note_on_c, 3, 45, 0
9, 16785, Note_on_c, 3, 45, 74
9, 16799, Note_on_c, 3, 45, 0
9, 16800, Note_on_c, 3, 45, 76
9, 16979, Note_on_c, 3, 45, 0
9, 16980, Note_on_c, 3, 45, 76
9, 17039, Note_on_c, 3, 45, 0
9, 17040, Note_on_c, 3, 45, 76
9, 17219, Note_on_c, 3, 45, 0
9, 17220, Note_on_c, 3, 45, 76
9, 17279, Note_on_c, 3, 45, 0
9, 17280, Note_on_c, 3, 50, 73
9, 17294, Note_on_c, 3, 50, 0
9, 17295, Note_on_c, 3, 50, 77
9, 17309, Note_on_c, 3, 50, 0
9, 17310, Note_on_c, 3, 50, 75
9, 17324, Note_on_c, 3, 50, 0
9, 17325, Note_on_c, 3, 50, 73
9, 17339, Note_on_c, 3, 50, 0
9, 17340, Note_on_c, 3, 50, 76
9, 17354, Note_on_c, 3, 50, 0
9, 17355, Note_on_c, 3, 50, 76
9, 17369, Note_on_c, 3, 50, 0
9, 17370, Note_on_c, 3, 50, 75
9, 17384, Note_on_c, 3, 50, 0
9, 17385, Note_on_c, 3, 50, 75
9, 17399, Note_on_c, 3, 50, 0
9, 17400, Note_on_c, 3, 50, 76
9, 17414, Note_on_c, 3, 50, 0
9, 17415, Note_on_c, 3, 50, 76
9, 17429, Note_on_c, 3, 50, 0
9, 17430, Note_on_c, 3, 50, 77
9, 17444, Note_on_c, 3, 50, 0
9, 17445, Note_on_c, 3, 50, 77
9, 17459, Note_on_c, 3, 50, 0
9, 17460, Note_on_c, 3, 50, 76
9, 17474, Note_on_c, 3, 50, 0
9, 17475, Note_on_c, 3, 50, 76
9, 17489, Note_on_c, 3, 50, 0
9, 17490, Note_on_c, 3, 50, 76
9, 17504, Note_on_c, 3, 50, 0
9, 17505, Note_on_c, 3, 50, 75
9, 17519, Note_on_c, 3, 50, 0
9, 17520, Note_on_c, 3, 50, 73
9, 17534, Note_on_c, 3, 50, 0
9, 17535, Note_on_c, 3, 50, 76
9, 17549, Note_on_c, 3, 50, 0
9, 17550, Note_on_c, 3, 50, 76
9, 17564, Note_on_c, 3, 50, 0
9, 17565, Note_on_c, 3, 50, 78
9, 17579, Note_on_c, 3, 50, 0
9, 17580, Note_on_c, 3, 50, 73
9, 17594, Note_on_c, 3, 50, 0
9, 17595, Note_on_c, 3, 50, 73
9, 17609, Note_on_c, 3, 50, 0
9, 17610, Note_on_c, 3, 50, 76
9, 17624, Note_on_c, 3, 50, 0
9, 17625, Note_on_c, 3, 50, 76
9, 17639, Note_on_c, 3, 50, 0
9, 17640, Note_on_c, 3, 50, 76
9, 17654, Note_on_c, 3, 50, 0
9, 17655, Note_on_c, 3, 50, 74
9, 17669, Note_on_c, 3, 50, 0
9, 17670, Note_on_c, 3, 50, 75
9, 17684, Note_on_c, 3, 50, 0
9, 17685, Note_on_c, 3, 50, 72
9, 17699, Note_on_c, 3, 50, 0
9, 17700, Note_on_c, 3, 50, 76
9, 17714, Note_on_c, 3, 50, 0
9, 17715, Note_on_c, 3, 50, 76
9, 17729, Note_on_c, 3, 50, 0
9, 17730, Note_on_c, 3, 50, 76
9, 17744, Note_on_c, 3, 50, 0
9, 17745, Note_on_c, 3, 50, 76
9, 17759, Note_on_c, 3, 50, 0
9, 17760, Note_on_c, 3, 50, 76
9, 17939, Note_on_c, 3, 50, 0
9, 17940, Note_on_c, 3, 50, 76
9, 17999, Note_on_c, 3, 50, 0
9, 18000, Note_on_c, 3, 50, 76
9, 18179, Note_on_c, 3, 50, 0
9, 18180, Note_on_c, 3, 50, 76
9, 18239, Note_on_c, 3, 50, 0
9, 18240, Note_on_c, 3, 50, 76
9, 18359, Note_on_c, 3, 50, 0
9, 19200, Note_on_c, 3, 45, 77
9, 19214, Note_on_c, 3, 45, 0
9, 19215, Note_on_c, 3, 45, 73
9, 19229, Note_on_c, 3, 45, 0
9, 19230, Note_on_c, 3, 45, 76
9, 19244, Note_on_c, 3, 45, 0
9, 19245, Note_on_c, 3, 45, 77
9, 19259, Note_on_c, 3, 45, 0
9, 19260, Note_on_c, 3, 45, 78
9, 19274, Note_on_c, 3, 45, 0
9, 19275, Note_on_c, 3, 45, 76
9, 19289, Note_on_c, 3, 45, 0
9, 19290, Note_on_c, 3, 45, 76
9, 19304, Note_on_c, 3, 45, 0
9, 19305, Note_on_c, 3, 45, 72
9, 19319, Note_on_c, 3, 45, 0
9, 19320, Note_on_c, 3, 45, 76
9, 19334, Note_on_c, 3, 45, 0
9, 19335, Note_on_c, 3, 45, 78
9, 19349, Note_on_c, 3, 45, 0
9, 19350, Note_on_c, 3, 45, 74
9, 19364, Note_on_c, 3, 45, 0
9, 19365, Note_on_c, 3, 45, 76
9, 19379, Note_on_c, 3, 45, 0
9, 19380, Note_on_c, 3, 45, 74
9, 19394, Note_on_c, 3, 45, 0
9, 19395, Note_on_c, 3, 45, 73
9, 19409, Note_on_c, 3, 45, 0
9, 19410, Note_on_c, 3, 45, 72
9, 19424, Note_on_c, 3, 45, 0
9, 19425, Note_on_c, 3, 45, 77
9, 19439, Note_on_c, 3, 45, 0
9, 19440, Note_on_c, 3, 45, 77
9, 19454, Note_on_c, 3, 45, 0
9, 19455, Note_on_c, 3, 45, 76
9, 19469, Note_on_c, 3, 45, 0
9, 19470, Note_on_c, 3, 45, 73
9, 19484, Note_on_c, 3, 45, 0
9, 19485, Note_on_c, 3, 45, 74
9, 19499, Note_on_c, 3, 45, 0
9, 19500, Note_on_c, 3, 45, 72
9, 19514, Note_on_c, 3, 45, 0
9, 19515, Note_on_c, 3, 45, 72
9, 19529, Note_on_c, 3, 45, 0
9, 19530, Note_on_c, 3, 45, 76
9, 19544, Note_on_c, 3, 45, 0
9, 19545, Note_on_c, 3, 45, 77
9, 19559, Note_on_c, 3, 45, 0
9, 19560, Note_on_c, 3, 45, 76
9, 19574, Note_on_c, 3, 45, 0
9, 19575, Note_on_c, 3, 45, 75
9, 19589, Note_on_c, 3, 45, 0
9, 19590, Note_on_c, 3, 45, 75
9, 19604, Note_on_c, 3, 45, 0
9, 19605, Note_on_c, 3, 45, 74
9, 19619, Note_on_c, 3, 45, 0
9, 19620, Note_on_c, 3, 45, 75
9, 19634, Note_on_c, 3, 45, 0
9, 19635, Note_on_c, 3, 45, 76
9, 19649, Note_on_c, 3, 45, 0
9, 19650, Note_on_c, 3, 45, 73
9, 19664, Note_on_c, 3, 45, 0
9, 19665, Note_on_c, 3, 45, 74
9, 19679, Note_on_c, 3, 45, 0
9, 19680, Note_on_c, 3, 45, 76
9, 19859, Note_on_c, 3, 45, 0
9, 19860, Note_on_c, 3, 45, 76
9, 19919, Note_on_c, 3, 45, 0
9, 19920, Note_on_c, 3, 50, 76
9, 20099, Note_on_c, 3, 50, 0
9, 20100, Note_on_c, 3, 45, 76
9, 20159, Note_on_c, 3, 45, 0
9, 20160, Note_on_c, 3, 50, 76
9, 20279, Note_on_c, 3, 50, 0
9, 20640, Note_on_c, 3, 45, 76
9, 20759, Note_on_c, 3, 45, 0
9, 21300, Note_on_c, 3, 45, 76
9, 21359, Note_on_c, 3, 45, 0
9, 21360, Note_on_c, 3, 45, 76
9, 21539, Note_on_c, 3, 45, 0
9, 21540, Note_on_c, 3, 45, 76
9, 21599, Note_on_c, 3, 45, 0
9, 21600, Note_on_c, 3, 50, 76
9, 21779, Note_on_c, 3, 50, 0
9, 21780, Note_on_c, 3, 50, 76
9, 21839, Note_on_c, 3, 50, 0
9, 21840, Note_on_c, 3, 50, 76
9, 22019, Note_on_c, 3, 50, 0
9, 22020, Note_on_c, 3, 50, 76
9, 22079, Note_on_c, 3, 50, 0
9, 22080, Note_on_c, 3, 45, 76
9, 22559, Note_on_c, 3, 45, 0
9, 23040, Note_on_c, 3, 50, 72
9, 23054, Note_on_c, 3, 50, 0
9, 23055, Note_on_c, 3, 50, 76
9, 23069, Note_on_c, 3, 50, 0
9, 23070, Note_on_c, 3, 50, 73
9, 23084, Note_on_c, 3, 50, 0
9, 23085, Note_on_c, 3, 50, 77
9, 23099, Note_on_c, 3, 50, 0
9, 23100, Note_on_c, 3, 50, 76
9, 23114, Note_on_c, 3, 50, 0
9, 23115, Note_on_c, 3, 50, 75
9, 23129, Note_on_c, 3, 50, 0
9, 23130, Note_on_c, 3, 50, 74
9, 23144, Note_on_c, 3, 50, 0
9, 23145, Note_on_c, 3, 50, 78
9, 23159, Note_on_c, 3, 50, 0
9, 23160, Note_on_c, 3, 50, 77
9, 23174, Note_on_c, 3, 50, 0
9, 23175, Note_on_c, 3, 50, 76
9, 23189, Note_on_c, 3, 50, 0
9, 23190, Note_on_c, 3, 50, 73
9, 23204, Note_on_c, 3, 50, 0
9, 23205, Note_on_c, 3, 50, 77
9, 23219, Note_on_c, 3, 50, 0
9, 23220, Note_on_c, 3, 50, 76
9, 23234, Note_on_c, 3, 50, 0
9, 23235, Note_on_c, 3, 50, 76
9, 23249, Note_on_c, 3, 50, 0
9, 23250, Note_on_c, 3, 50, 74
9, 23264, Note_on_c, 3, 50, 0
9, 23265, Note_on_c, 3, 50, 72
9, 23279, Note_on_c, 3, 50, 0
9, 23280, Note_on_c, 3, 50, 72
9, 23294, Note_on_c, 3, 50, 0
9, 23295, Note_on_c, 3, 50, 74
9, 23309, Note_on_c, 3, 50, 0
9, 23310, Note_on_c, 3, 50, 73
9, 23324, Note_on_c, 3, 50, 0
9, 23325, Note_on_c, 3, 50, 73
9, 23339, Note_on_c, 3, 50, 0
9, 23340, Note_on_c, 3, 50, 78
9, 23354, Note_on_c, 3, 50, 0
9, 23355, Note_on_c, 3, 50, 75
9, 23369, Note_on_c, 3, 50, 0
9, 23370, Note_on_c, 3, 50, 72
9, 23384, Note_on_c, 3, 50, 0
9, 23385, Note_on_c, 3, 50, 72
9, 23399, Note_on_c, 3, 50, 0
9, 23400, Note_on_c, 3, 50, 72
9, 23414, Note_on_c, 3, 50, 0
9, 23415, Note_on_c, 3, 50, 75
9, 23429, Note_on_c, 3, 50, 0
9, 23430, Note_on_c, 3, 50, 76
9, 23444, Note_on_c, 3, 50, 0
9, 23445, Note_on_c, 3, 50, 76
9, 23459, Note_on_c, 3, 50, 0
9, 23460, Note_on_c, 3, 50, 76
9, 23474, Note_on_c, 3, 50, 0
9, 23475, Note_on_c, 3, 50, 76
9, 23489, Note_on_c, 3, 50, 0
9, 23490, Note_on_c, 3, 50, 73
9, 23504, Note_on_c, 3, 50, 0
9, 23505, Note_on_c, 3, 50, 76
9, 23519, Note_on_c, 3, 50, 0
9, 23520, Note_on_c, 3, 50, 75
9, 23534, Note_on_c, 3, 50, 0
9, 23535, Note_on_c, 3, 50, 74
9, 23549, Note_on_c, 3, 50, 0
9, 23550, Note_on_c, 3, 50, 72
9, 23564, Note_on_c, 3, 50, 0
9, 23565, Note_on_c, 3, 50, 76
9, 23579, Note_on_c, 3, 50, 0
9, 23580, Note_on_c, 3, 50, 77
9, 23594, Note_on_c, 3, 50, 0
9, 23595, Note_on_c, 3, 50, 77
9, 23609, Note_on_c, 3, 50, 0
9, 23610, Note_on_c, 3, 50, 76
9, 23624, Note_on_c, 3, 50, 0
9, 23625, Note_on_c, 3, 50, 74
9, 23639, Note_on_c, 3, 50, 0
9, 23640, Note_on_c, 3, 50, 78
9, 23654, Note_on_c, 3, 50, 0
9, 23655, Note_on_c, 3, 50, 76
9, 23669, Note_on_c, 3, 50, 0
9, 23670, Note_on_c, 3, 50, 78
9, 23684, Note_on_c, 3, 50, 0
9, 23685, Note_on_c, 3, 50, 78
9, 23699, Note_on_c, 3, 50, 0
9, 23700, Note_on_c, 3, 50, 76
9, 23714, Note_on_c, 3, 50, 0
9, 23715, Note_on_c, 3, 50, 73
9, 23729, Note_on_c, 3, 50, 0
9, 23730, Note_on_c, 3, 50, 75
9, 23744, Note_on_c, 3, 50, 0
9, 23745, Note_on_c, 3, 50, 73
9, 23759, Note_on_c, 3, 50, 0
9, 23760, Note_on_c, 3, 50, 77
9, 23774, Note_on_c, 3, 50, 0
9, 23775, Note_on_c, 3, 50, 73
9, 23789, Note_on_c, 3, 50, 0
9, 23790, Note_on_c, 3, 50, 77
9, 23804, Note_on_c, 3, 50, 0
9, 23805, Note_on_c, 3, 50, 77
9, 23819, Note_on_c, 3, 50, 0
9, 23820, Note_on_c, 3, 50, 78
9, 23834, Note_on_c, 3, 50, 0
9, 23835, Note_on_c, 3, 50, 78
9, 23849, Note_on_c, 3, 50, 0
9, 23850, Note_on_c, 3, 50, 76
9, 23864, Note_on_c, 3, 50, 0
9, 23865, Note_on_c, 3, 50, 75
9, 23879, Note_on_c, 3, 50, 0
9, 23880, Note_on_c, 3, 50, 74
9, 23894, Note_on_c, 3, 50, 0
9, 23895, Note_on_c, 3, 50, 74
9, 23909, Note_on_c, 3, 50, 0
9, 23910, Note_on_c, 3, 50, 77
9, 23924, Note_on_c, 3, 50, 0
9, 23925, Note_on_c, 3, 50, 72
9, 23939, Note_on_c, 3, 50, 0
9, 23940, Note_on_c, 3, 50, 75
9, 23954, Note_on_c, 3, 50, 0
9, 23955, Note_on_c, 3, 50, 72
9, 23969, Note_on_c, 3, 50, 0
9, 23970, Note_on_c, 3, 50, 76
9, 23984, Note_on_c, 3, 50, 0
9, 23985, Note_on_c, 3, 50, 72
9, 23999, Note_on_c, 3, 50, 0
9, 24000, Note_on_c, 3, 50, 72
9, 24014, Note_on_c, 3, 50, 0
9, 24015, Note_on_c, 3, 50, 78
9, 24029, Note_on_c, 3, 50, 0
9, 24030, Note_on_c, 3, 50, 74
9, 24044, Note_on_c, 3, 50, 0
9, 24045, Note_on_c, 3, 50, 74
9, 24059, Note_on_c, 3, 50, 0
9, 24060, Note_on_c, 3, 50, 76
9, 24074, Note_on_c, 3, 50, 0
9, 24075, Note_on_c, 3, 50, 76
9, 24089, Note_on_c, 3, 50, 0
9, 24090, Note_on_c, 3, 50, 77
9, 24104, Note_on_c, 3, 50, 0
9, 24105, Note_on_c, 3, 50, 76
9, 24119, Note_on_c, 3, 50, 0
9, 24120, Note_on_c, 3, 50, 75
9, 24134, Note_on_c, 3, 50, 0
9, 24135, Note_on_c, 3, 50, 73
9, 24149, Note_on_c, 3, 50, 0
9, 24150, Note_on_c, 3, 50, 76
9, 24164, Note_on_c, 3, 50, 0
9, 24165, Note_on_c, 3, 50, 75
9, 24179, Note_on_c, 3, 50, 0
9, 24180, Note_on_c, 3, 50, 75
9, 24194, Note_on_c, 3, 50, 0
9, 24195, Note_on_c, 3, 50, 78
9, 24209, Note_on_c, 3, 50, 0
9, 24210, Note_on_c, 3, 50, 76
9, 24224, Note_on_c, 3, 50, 0
9, 24225, Note_on_c, 3, 50, 72
9, 24239, Note_on_c, 3, 50, 0
9, 24240, Note_on_c, 3, 50, 76
9, 24254, Note_on_c, 3, 50, 0
9, 24255, Note_on_c, 3, 50, 75
9, 24269, Note_on_c, 3, 50, 0
9, 24270, Note_on_c, 3, 50, 76
9, 24284, Note_on_c, 3, 50, 0
9, 24285, Note_on_c, 3, 50, 76
9, 24299, Note_on_c, 3, 50, 0
9, 24300, Note_on_c, 3, 50, 76
9, 24314, Note_on_c, 3, 50, 0
9, 24315, Note_on_c, 3, 50, 74
9, 24329, Note_on_c, 3, 50, 0
9, 24330, Note_on_c, 3, 50, 73
9, 24344, Note_on_c, 3, 50, 0
9, 24345, Note_on_c, 3, 50, 73
9, 24359, Note_on_c, 3, 50, 0
9, 24360, Note_on_c, 3, 50, 75
9, 24374, Note_on_c, 3, 50, 0
9, 24375, Note_on_c, 3, 50, 77
9, 24389, Note_on_c, 3, 50, 0
9, 24390, Note_on_c, 3, 50, 76
9, 24404, Note_on_c, 3, 50, 0
9, 24405, Note_on_c, 3, 50, 78
9, 24419, Note_on_c, 3, 50, 0
9, 24420, Note_on_c, 3, 50, 77
9, 24434, Note_on_c, 3, 50, 0
9, 24435, Note_on_c, 3, 50, 74
9, 24449, Note_on_c, 3, 50, 0
9, 24450, Note_on_c, 3, 50, 73
9, 24464, Note_on_c, 3, 50, 0
9, 24465, Note_on_c, 3, 50, 76
9, 24479, Note_on_c, 3, 50, 0
9, 24480, Note_on_c, 3, 50, 75
9, 24494, Note_on_c, 3, 50, 0
9, 24495, Note_on_c, 3, 50, 72
9, 24509, Note_on_c, 3, 50, 0
9, 24510, Note_on_c, 3, 50, 76
9, 24524, Note_on_c, 3, 50, 0
9, 24525, Note_on_c, 3, 50, 76
9, 24539, Note_on_c, 3, 50, 0
9, 24540, Note_on_c, 3, 50, 73
9, 24554, Note_on_c, 3, 50, 0
9, 24555, Note_on_c, 3, 50, 78
9, 24569, Note_on_c, 3, 50, 0
9, 24570, Note_on_c, 3, 50, 73
9, 24584, Note_on_c, 3, 50, 0
9, 24585, Note_on_c, 3, 50, 78
9, 24599, Note_on_c, 3, 50, 0
9, 24600, Note_on_c, 3, 50, 76
9, 24614, Note_on_c, 3, 50, 0
9, 24615, Note_on_c, 3, 50, 74
9, 24629, Note_on_c, 3, 50, 0
9, 24630, Note_on_c, 3, 50, 75
9, 24644, Note_on_c, 3, 50, 0
9, 24645, Note_on_c, 3, 50, 72
9, 24659, Note_on_c, 3, 50, 0
9, 24660, Note_on_c, 3, 50, 78
9, 24674, Note_on_c, 3, 50, 0
9, 24675, Note_on_c, 3, 50, 76
9, 24689, Note_on_c, 3, 50, 0
9, 24690, Note_on_c, 3, 50, 73
9, 24704, Note_on_c, 3, 50, 0
9, 24705, Note_on_c, 3, 50, 78
9, 24719, Note_on_c, 3, 50, 0
9, 24720, Note_on_c, 3, 50, 77
9, 24734, Note_on_c, 3, 50, 0
9, 24735, Note_on_c, 3, 50, 76
9, 24749, Note_on_c, 3, 50, 0
9, 24750, Note_on_c, 3, 50, 73
9, 24764, Note_on_c, 3, 50, 0
9, 24765, Note_on_c, 3, 50, 73
9, 24779, Note_on_c, 3, 50, 0
9, 24780, Note_on_c, 3, 50, 77
9, 24794, Note_on_c, 3, 50, 0
9, 24795, Note_on_c, 3, 50, 75
9, 24809, Note_on_c, 3, 50, 0
9, 24810, Note_on_c, 3, 50, 73
9, 24824, Note_on_c, 3, 50, 0
9, 24825, Note_on_c, 3, 50, 76
9, 24839, Note_on_c, 3, 50, 0
9, 24840, Note_on_c, 3, 50, 76
9, 24854, Note_on_c, 3, 50, 0
9, 24855, Note_on_c, 3, 50, 75
9, 24869, Note_on_c, 3, 50, 0
9, 24870, Note_on_c, 3, 50, 74
9, 24884, Note_on_c, 3, 50, 0
9, 24885, Note_on_c, 3, 50, 76
9, 24899, Note_on_c, 3, 50, 0
9, 24900, Note_on_c, 3, 50, 76
9, 24914, Note_on_c, 3, 50, 0
9, 24915, Note_on_c, 3, 50, 77
9, 24929, Note_on_c, 3, 50, 0
9, 24930, Note_on_c, 3, 50, 76
9, 24944, Note_on_c, 3, 50, 0
9, 24945, Note_on_c, 3, 50, 75
9, 24959, Note_on_c, 3, 50, 0
9, 24960, Note_on_c, 3, 50, 76
9, 25139, Note_on_c, 3, 50, 0
9, 25140, Note_on_c, 3, 50, 76
9, 25199, Note_on_c, 3, 50, 0
9, 25200, Note_on_c, 3, 50, 76
9, 25259, Note_on_c, 3, 50, 0
9, 25260, Note_on_c, 3, 50, 76
9, 25319, Note_on_c, 3, 50, 0
9, 25320, Note_on_c, 3, 50, 76
9, 25379, Note_on_c, 3, 50, 0
9, 25380, Note_on_c, 3, 50, 76
9, 25439, Note_on_c, 3, 50, 0
9, 25440, Note_on_c, 3, 45, 76
9, 25619, Note_on_c, 3, 45, 0
9, 25620, Note_on_c, 3, 45, 76
9, 25679, Note_on_c, 3, 45, 0
9, 25680, Note_on_c, 3, 45, 76
9, 25859, Note_on_c, 3, 45, 0
9, 25860, Note_on_c, 3, 45, 76
9, 25919, Note_on_c, 3, 45, 0
9, 25920, Note_on_c, 3, 50, 72
9, 25934, Note_on_c, 3, 50, 0
9, 25935, Note_on_c, 3, 50, 74
9, 25949, Note_on_c, 3, 50, 0
9, 25950, Note_on_c, 3, 50, 77
9, 25964, Note_on_c, 3, 50, 0
9, 25965, Note_on_c, 3, 50, 72
9, 25979, Note_on_c, 3, 50, 0
9, 25980, Note_on_c, 3, 50, 76
9, 25994, Note_on_c, 3, 50, 0
9, 25995, Note_on_c, 3, 50, 76
9, 26009, Note_on_c, 3, 50, 0
9, 26010, Note_on_c, 3, 50, 75
9, 26024, Note_on_c, 3, 50, 0
9, 26025, Note_on_c, 3, 50, 72
9, 26039, Note_on_c, 3, 50, 0
9, 26040, Note_on_c, 3, 50, 78
9, 26054, Note_on_c, 3, 50, 0
9, 26055, Note_on_c, 3, 50, 78
9, 26069, Note_on_c, 3, 50, 0
9, 26070, Note_on_c, 3, 50, 76
9, 26084, Note_on_c, 3, 50, 0
9, 26085, Note_on_c, 3, 50, 74
9, 26099, Note_on_c, 3, 50, 0
9, 26100, Note_on_c, 3, 50, 75
9, 26114, Note_on_c, 3, 50, 0
9, 26115, Note_on_c, 3, 50, 74
9, 26129, Note_on_c, 3, 50, 0
9, 26130, Note_on_c, 3, 50, 77
9, 26144, Note_on_c, 3, 50, 0
9, 26145, Note_on_c, 3, 50, 74
9, 26159, Note_on_c, 3, 50, 0
9, 26160, Note_on_c, 3, 50, 75
9, 26174, Note_on_c, 3, 50, 0
9, 26175, Note_on_c, 3, 50, 74
9, 26189, Note_on_c, 3, 50, 0
9, 26190, Note_on_c, 3, 50, 78
9, 26204, Note_on_c, 3, 50, 0
9, 26205, Note_on_c, 3, 50, 74
9, 26219, Note_on_c, 3, 50, 0
9, 26220, Note_on_c, 3, 50, 76
9, 26234, Note_on_c, 3, 50, 0
9, 26235, Note_on_c, 3, 50, 76
9, 26249, Note_on_c, 3, 50, 0
9, 26250, Note_on_c, 3, 50, 73
9, 26264, Note_on_c, 3, 50, 0
9, 26265, Note_on_c, 3, 50, 77
9, 26279, Note_on_c, 3, 50, 0
9, 26280, Note_on_c, 3, 50, 77
9, 26294, Note_on_c, 3, 50, 0
9, 26295, Note_on_c, 3, 50, 75
9, 26309, Note_on_c, 3, 50, 0
9, 26310, Note_on_c, 3, 50, 76
9, 26324, Note_on_c, 3, 50, 0
9, 26325, Note_on_c, 3, 50, 78
9, 26339, Note_on_c, 3, 50, 0
9, 26340, Note_on_c, 3, 50, 72
9, 26354, Note_on_c, 3, 50, 0
9, 26355, Note_on_c, 3, 50, 78
9, 26369, Note_on_c, 3, 50, 0
9, 26370, Note_on_c, 3, 50, 76
9, 26384, Note_on_c, 3, 50, 0
9, 26385, Note_on_c, 3, 50, 72
9, 26399, Note_on_c, 3, 50, 0
9, 26400, Note_on_c, 3, 50, 76
9, 26414, Note_on_c, 3, 50, 0
9, 26415, Note_on_c, 3, 50, 73
9, 26429, Note_on_c, 3, 50, 0
9, 26430, Note_on_c, 3, 50, 77
9, 26444, Note_on_c, 3, 50, 0
9, 26445, Note_on_c, 3, 50, 76
9, 26459, Note_on_c, 3, 50, 0
9, 26460, Note_on_c, 3, 50, 76
9, 26474, Note_on_c, 3, 50, 0
9, 26475, Note_on_c, 3, 50, 73
9, 26489, Note_on_c, 3, 50, 0
9, 26490, Note_on_c, 3, 50, 77
9, 26504, Note_on_c, 3, 50, 0
9, 26505, Note_on_c, 3, 50, 72
9, 26519, Note_on_c, 3, 50, 0
9, 26520, Note_on_c, 3, 50, 72
9, 26534, Note_on_c, 3, 50, 0
9, 26535, Note_on_c, 3, 50, 76
9, 26549, Note_on_c, 3, 50, 0
9, 26550, Note_on_c, 3, 50, 74
9, 26564, Note_on_c, 3, 50, 0
9, 26565, Note_on_c, 3, 50, 78
9, 26579, Note_on_c, 3, 50, 0
9, 26580, Note_on_c, 3, 50, 74
9, 26594, Note_on_c, 3, 50, 0
9, 26595, Note_on_c, 3, 50, 74
9, 26609, Note_on_c, 3, 50, 0
9, 26610, Note_on_c, 3, 50, 73
9, 26624, Note_on_c, 3, 50, 0
9, 26625, Note_on_c, 3, 50, 76
9, 26639, Note_on_c, 3, 50, 0
9, 26640, Note_on_c, 3, 50, 77
9, 26654, Note_on_c, 3, 50, 0
9, 26655, Note_on_c, 3, 50, 76
9, 26669, Note_on_c, 3, 50, 0
9, 26670, Note_on_c, 3, 50, 76
9, 26684, Note_on_c, 3, 50, 0
9, 26685, Note_on_c, 3, 50, 76
9, 26699, Note_on_c, 3, 50, 0
9, 26700, Note_on_c, 3, 50, 74
9, 26714, Note_on_c, 3, 50, 0
9, 26715, Note_on_c, 3, 50, 73
9, 26729, Note_on_c, 3, 50, 0
9, 26730, Note_on_c, 3, 50, 72
9, 26744, Note_on_c, 3, 50, 0
9, 26745, Note_on_c, 3, 50, 72
9, 26759, Note_on_c, 3, 50, 0
9, 26760, Note_on_c, 3, 50, 77
9, 26774, Note_on_c, 3, 50, 0
9, 26775, Note_on_c, 3, 50, 77
9, 26789, Note_on_c, 3, 50, 0
9, 26790, Note_on_c, 3, 50, 73
9, 26804, Note_on_c, 3, 50, 0
9, 26805, Note_on_c, 3, 50, 72
9, 26819, Note_on_c, 3, 50, 0
9, 26820, Note_on_c, 3, 50, 76
9, 26834, Note_on_c, 3, 50, 0
9, 26835, Note_on_c, 3, 50, 72
9, 26849, Note_on_c, 3, 50, 0
9, 26850, Note_on_c, 3, 50, 72
9, 26864, Note_on_c, 3, 50, 0
9, 26865, Note_on_c, 3, 50, 75
9, 26879, Note_on_c, 3, 50, 0
9, 26880, Note_on_c, 3, 50, 76
9, 27059, Note_on_c, 3, 50, 0
9, 27060, Note_on_c, 3, 50, 76
9, 27079, Note_on_c, 3, 50, 0
9, 27080, Note_on_c, 3, 50, 76
9, 27099, Note_on_c, 3, 50, 0
9, 27100, Note_on_c, 3, 50, 76
9, 27119, Note_on_c, 3, 50, 0
9, 27120, Note_on_c, 3, 50, 76
9, 27299, Note_on_c, 3, 50, 0
9, 27300, Note_on_c, 3, 50, 76
9, 27359, Note_on_c, 3, 50, 0
9, 27360, Note_on_c, 3, 50, 76
9, 27479, Note_on_c, 3, 50, 0
9, 39360, Note_on_c, 3, 45, 77
9, 39374, Note_on_c, 3, 45, 0
9, 39375, Note_on_c, 3, 45, 76
9, 39389, Note_on_c, 3, 45, 0
9, 39390, Note_on_c, 3, 45, 76
9, 39404, Note_on_c, 3, 45, 0
9, 39405, Note_on_c, 3, 45, 72
9, 39419, Note_on_c, 3, 45, 0
9, 39420, Note_on_c, 3, 45, 75
9, 39434, Note_on_c, 3, 45, 0
9, 39435, Note_on_c, 3, 45, 73
9, 39449, Note_on_c, 3, 45, 0
9, 39450, Note_on_c, 3, 45, 76
9, 39464, Note_on_c, 3, 45, 0
9, 39465, Note_on_c, 3, 45, 74
9, 39479, Note_on_c, 3, 45, 0
9, 39480, Note_on_c, 3, 45, 75
9, 39494, Note_on_c, 3, 45, 0
9, 39495, Note_on_c, 3, 45, 73
9, 39509, Note_on_c, 3, 45, 0
9, 39510, Note_on_c, 3, 45, 76
9, 39524, Note_on_c, 3, 45, 0
9, 39525, Note_on_c, 3, 45, 76
9, 39539, Note_on_c, 3, 45, 0
9, 39540, Note_on_c, 3, 45, 76
9, 39554, Note_on_c, 3, 45, 0
9, 39555, Note_on_c, 3, 45, 73
9, 39569, Note_on_c, 3, 45, 0
9, 39570, Note_on_c, 3, 45, 76
9, 39584, Note_on_c, 3, 45, 0
9, 39585, Note_on_c, 3, 45, 78
9, 39599, Note_on_c, 3, 45, 0
9, 39600, Note_on_c, 3, 45, 76
9, 39614, Note_on_c, 3, 45, 0
9, 39615, Note_on_c, 3, 45, 78
9, 39629, Note_on_c, 3, 45, 0
9, 39630, Note_on_c, 3, 45, 73
9, 39644, Note_on_c, 3, 45, 0
9, 39645, Note_on_c, 3, 45, 74
9, 39659, Note_on_c, 3, 45, 0
9, 39660, Note_on_c, 3, 45, 73
9, 39674, Note_on_c, 3, 45, 0
9, 39675, Note_on_c, 3, 45, 78
9, 39689, Note_on_c, 3, 45, 0
9, 39690, Note_on_c, 3, 45, 75
9, 39704, Note_on_c, 3, 45, 0
9, 39705, Note_on_c, 3, 45, 78
9, 39719, Note_on_c, 3, 45, 0
9, 39720, Note_on_c, 3, 45, 72
9, 39734, Note_on_c, 3, 45, 0
9, 39735, Note_on_c, 3, 45, 76
9, 39749, Note_on_c, 3, 45, 0
9, 39750, Note_on_c, 3, 45, 72
9, 39764, Note_on_c, 3, 45, 0
9, 39765, Note_on_c, 3, 45, 75
9, 39779, Note_on_c, 3, 45, 0
9, 39780, Note_on_c, 3, 45, 78
9, 39794, Note_on_c, 3, 45, 0
9, 39795, Note_on_c, 3, 45, 72
9, 39809, Note_on_c, 3, 45, 0
9, 39810, Note_on_c, 3, 45, 78
9, 39824, Note_on_c, 3, 45, 0
9, 39825, Note_on_c, 3, 45, 74
9, 39839, Note_on_c, 3, 45, 0
9, 39840, Note_on_c, 3, 45, 76
9, 40019, Note_on_c, 3, 45, 0
9, 40020, Note_on_c, 3, 45, 76
9, 40079, Note_on_c, 3, 45, 0
9, 40080, Note_on_c, 3, 45, 76
9, 40259, Note_on_c, 3, 45, 0
9, 40260, Note_on_c, 3, 45, 76
9, 40319, Note_on_c, 3, 45, 0
9, 40320, Note_on_c, 3, 50, 73
9, 40334, Note_on_c, 3, 50, 0
9, 40335, Note_on_c, 3, 50, 77
9, 40349, Note_on_c, 3, 50, 0
9, 40350, Note_on_c, 3, 50, 75
9, 40364, Note_on_c, 3, 50, 0
9, 40365, Note_on_c, 3, 50, 73
9, 40379, Note_on_c, 3, 50, 0
9, 40380, Note_on_c, 3, 50, 76
9, 40394, Note_on_c, 3, 50, 0
9, 40395, Note_on_c, 3, 50, 76
9, 40409, Note_on_c, 3, 50, 0
9, 40410, Note_on_c, 3, 50, 75
9, 40424, Note_on_c, 3, 50, 0
9, 40425, Note_on_c, 3, 50, 75
9, 40439, Note_on_c, 3, 50, 0
9, 40440, Note_on_c, 3, 50, 76
9, 40454, Note_on_c, 3, 50, 0
9, 40455, Note_on_c, 3, 50, 76
9, 40469, Note_on_c, 3, 50, 0
9, 40470, Note_on_c, 3, 50, 77
9, 40484, Note_on_c, 3, 50, 0
9, 40485, Note_on_c, 3, 50, 77
9, 40499, Note_on_c, 3, 50, 0
9, 40500, Note_on_c, 3, 50, 76
9, 40514, Note_on_c, 3, 50, 0
9, 40515, Note_on_c, 3, 50, 76
9, 40529, Note_on_c, 3, 50, 0
9, 40530, Note_on_c, 3, 50, 76
9, 40544, Note_on_c, 3, 50, 0
9, 40545, Note_on_c, 3, 50, 75
9, 40559, Note_on_c, 3, 50, 0
9, 40560, Note_on_c, 3, 50, 73
9, 40574, Note_on_c, 3, 50, 0
9, 40575, Note_on_c, 3, 50, 76
9, 40589, Note_on_c, 3, 50, 0
9, 40590, Note_on_c, 3, 50, 76
9, 40604, Note_on_c, 3, 50, 0
9, 40605, Note_on_c, 3, 50, 78
9, 40619, Note_on_c, 3, 50, 0
9, 40620, Note_on_c, 3, 50, 73
9, 40634, Note_on_c, 3, 50, 0
9, 40635, Note_on_c, 3, 50, 73
9, 40649, Note_on_c, 3, 50, 0
9, 40650, Note_on_c, 3, 50, 76
9, 40664, Note_on_c, 3, 50, 0
9, 40665, Note_on_c, 3, 50, 76
9, 40679, Note_on_c, 3, 50, 0
9, 40680, Note_on_c, 3, 50, 76
9, 40694, Note_on_c, 3, 50, 0
9, 40695, Note_on_c, 3, 50, 74
9, 40709, Note_on_c, 3, 50, 0
9, 40710, Note_on_c, 3, 50, 75
9, 40724, Note_on_c, 3, 50, 0
9, 40725, Note_on_c, 3, 50, 72
9, 40739, Note_on_c, 3, 50, 0
9, 40740, Note_on_c, 3, 50, 76
9, 40754, Note_on_c, 3, 50, 0
9, 40755, Note_on_c, 3, 50, 76
9, 40769, Note_on_c, 3, 50, 0
9, 40770, Note_on_c, 3, 50, 76
9, 40784, Note_on_c, 3, 50, 0
9, 40785, Note_on_c, 3, 50, 76
9, 40799, Note_on_c, 3, 50, 0
9, 40800, Note_on_c, 3, 50, 76
9, 40979, Note_on_c, 3, 50, 0
9, 40980, Note_on_c, 3, 50, 76
9, 41039, Note_on_c, 3, 50, 0
9, 41040, Note_on_c, 3, 50, 76
9, 41219, Note_on_c, 3, 50, 0
9, 41220, Note_on_c, 3, 50, 76
9, 41279, Note_on_c, 3, 50, 0
9, 41280, Note_on_c, 3, 50, 76
9, 41399, Note_on_c, 3, 50, 0
9, 42240, Note_on_c, 3, 45, 77
9, 42254, Note_on_c, 3, 45, 0
9, 42255, Note_on_c, 3, 45, 73
9, 42269, Note_on_c, 3, 45, 0
9, 42270, Note_on_c, 3, 45, 76
9, 42284, Note_on_c, 3, 45, 0
9, 42285, Note_on_c, 3, 45, 77
9, 42299, Note_on_c, 3, 45, 0
9, 42300, Note_on_c, 3, 45, 78
9, 42314, Note_on_c, 3, 45, 0
9, 42315, Note_on_c, 3, 45, 76
9, 42329, Note_on_c, 3, 45, 0
9, 42330, Note_on_c, 3, 45, 76
9, 42344, Note_on_c, 3, 45, 0
9, 42345, Note_on_c, 3, 45, 72
9, 42359, Note_on_c, 3, 45, 0
9, 42360, Note_on_c, 3, 45, 76
9, 42374, Note_on_c, 3, 45, 0
9, 42375, Note_on_c, 3, 45, 78
9, 42389, Note_on_c, 3, 45, 0
9, 42390, Note_on_c, 3, 45, 74
9, 42404, Note_on_c, 3, 45, 0
9, 42405, Note_on_c, 3, 45, 76
9, 42419, Note_on_c, 3, 45, 0
9, 42420, Note_on_c, 3, 45, 74
9, 42434, Note_on_c, 3, 45, 0
9, 42435, Note_on_c, 3, 45, 73
9, 42449, Note_on_c, 3, 45, 0
9, 42450, Note_on_c, 3, 45, 72
9, 42464, Note_on_c, 3, 45, 0
9, 42465, Note_on_c, 3, 45, 77
9, 42479, Note_on_c, 3, 45, 0
9, 42480, Note_on_c, 3, 45, 77
9, 42494, Note_on_c, 3, 45, 0
9, 42495, Note_on_c, 3, 45, 76
9, 42509, Note_on_c, 3, 45, 0
9, 42510, Note_on_c, 3, 45, 73
9, 42524, Note_on_c, 3, 45, 0
9, 42525, Note_on_c, 3, 45, 74
9, 42539, Note_on_c, 3, 45, 0
9, 42540, Note_on_c, 3, 45, 72
9, 42554, Note_on_c, 3, 45, 0
9, 42555, Note_on_c, 3, 45, 72
9, 42569, Note_on_c, 3, 45, 0
9, 42570, Note_on_c, 3, 45, 76
9, 42584, Note_on_c, 3, 45, 0
9, 42585, Note_on_c, 3, 45, 77
9, 42599, Note_on_c, 3, 45, 0
9, 42600, Note_on_c, 3, 45, 76
9, 42614, Note_on_c, 3, 45, 0
9, 42615, Note_on_c, 3, 45, 75
9, 42629, Note_on_c, 3, 45, 0
9, 42630, Note_on_c, 3, 45, 75
9, 42644, Note_on_c, 3, 45, 0
9, 42645, Note_on_c, 3, 45, 74
9, 42659, Note_on_c, 3, 45, 0
9, 42660, Note_on_c, 3, 45, 75
9, 42674, Note_on_c, 3, 45, 0
9, 42675, Note_on_c, 3, 45, 76
9, 42689, Note_on_c, 3, 45, 0
9, 42690, Note_on_c, 3, 45, 73
9, 42704, Note_on_c, 3, 45, 0
9, 42705, Note_on_c, 3, 45, 74
9, 42719, Note_on_c, 3, 45, 0
9, 42720, Note_on_c, 3, 45, 76
9, 42899, Note_on_c, 3, 45, 0
9, 42900, Note_on_c, 3, 45, 76
9, 42959, Note_on_c, 3, 45, 0
9, 42960, Note_on_c, 3, 50, 76
9, 43139, Note_on_c, 3, 50, 0
9, 43140, Note_on_c, 3, 45, 76
9, 43199, Note_on_c, 3, 45, 0
9, 43200, Note_on_c, 3, 50, 76
9, 43319, Note_on_c, 3, 50, 0
9, 43680, Note_on_c, 3, 45, 76
9, 43799, Note_on_c, 3, 45, 0
9, 44340, Note_on_c, 3, 45, 76
9, 44399, Note_on_c, 3, 45, 0
9, 44400, Note_on_c, 3, 45, 76
9, 44579, Note_on_c, 3, 45, 0
9, 44580, Note_on_c, 3, 45, 76
9, 44639, Note_on_c, 3, 45, 0
9, 44640, Note_on_c, 3, 50, 76
9, 44819, Note_on_c, 3, 50, 0
9, 44820, Note_on_c, 3, 50, 76
9, 44879, Note_on_c, 3, 50, 0
9, 44880, Note_on_c, 3, 50, 76
9, 45059, Note_on_c, 3, 50, 0
9, 45060, Note_on_c, 3, 50, 76
9, 45119, Note_on_c, 3, 50, 0
9, 45120, Note_on_c, 3, 45, 76
9, 45359, Note_on_c, 3, 45, 0
9, 51480, Note_on_c, 3, 50, 76
9, 51599, Note_on_c, 3, 50, 0
9, 51600, Note_on_c, 3, 50, 76
9, 51719, Note_on_c, 3, 50, 0
9, 51720, Note_on_c, 3, 50, 76
9, 51839, Note_on_c, 3, 50, 0
9, 51840, Note_on_c, 3, 50, 76
9, 51959, Note_on_c, 3, 50, 0
9, 52920, Note_on_c, 3, 50, 76
9, 53039, Note_on_c, 3, 50, 0
9, 53040, Note_on_c, 3, 50, 76
9, 53159, Note_on_c, 3, 50, 0
9, 53160, Note_on_c, 3, 50, 76
9, 53279, Note_on_c, 3, 50, 0
9, 53280, Note_on_c, 3, 45, 76
9, 53399, Note_on_c, 3, 45, 0
9, 56760, Note_on_c, 3, 50, 76
9, 56879, Note_on_c, 3, 50, 0
9, 56880, Note_on_c, 3, 50, 76
9, 56999, Note_on_c, 3, 50, 0
9, 57000, Note_on_c, 3, 50, 76
9, 57119, Note_on_c, 3, 50, 0
9, 57120, Note_on_c, 3, 50, 76
9, 57239, Note_on_c, 3, 50, 0
9, 57600, Note_on_c, 3, 45, 76
9, 57719, Note_on_c, 3, 45, 0
9, 58200, Note_on_c, 3, 45, 76
9, 58319, Note_on_c, 3, 45, 0
9, 58320, Note_on_c, 3, 50, 76
9, 58439, Note_on_c, 3, 50, 0
9, 58440, Note_on_c, 3, 50, 76
9, 58559, Note_on_c, 3, 50, 0
9, 58560, Note_on_c, 3, 45, 76
9, 58679, Note_on_c, 3, 45, 0
9, 59640, Note_on_c, 3, 45, 76
9, 59759, Note_on_c, 3, 45, 0
9, 59760, Note_on_c, 3, 45, 76
9, 59879, Note_on_c, 3, 45, 0
9, 59880, Note_on_c, 3, 45, 76
9, 59999, Note_on_c, 3, 45, 0
9, 60000, Note_on_c, 3, 50, 76
9, 60119, Note_on_c, 3, 50, 0
9, 60840, Note_on_c, 3, 45, 76
9, 60959, Note_on_c, 3, 45, 0
9, 60960, Note_on_c, 3, 50, 76
9, 61079, Note_on_c, 3, 50, 0
9, 61200, Note_on_c, 3, 50, 76
9, 61319, Note_on_c, 3, 50, 0
9, 61440, Note_on_c, 3, 45, 76
9, 61559, Note_on_c, 3, 45, 0
9, 61680, Note_on_c, 3, 45, 76
9, 61799, Note_on_c, 3, 45, 0
9, 61800, Note_on_c, 3, 45, 76
9, 61919, Note_on_c, 3, 45, 0
9, 61920, Note_on_c, 3, 50, 76
9, 62039, Note_on_c, 3, 50, 0
9, 62160, Note_on_c, 3, 45, 76
9, 62279, Note_on_c, 3, 45, 0
9, 62400, Note_on_c, 3, 50, 76
9, 62519, Note_on_c, 3, 50, 0
9, 75480, Note_on_c, 3, 45, 52
9, 75599, Note_on_c, 3, 45, 0
9, 75600, Note_on_c, 3, 45, 52
9, 75719, Note_on_c, 3, 45, 0
9, 75720, Note_on_c, 3, 45, 52
9, 75839, Note_on_c, 3, 45, 0
9, 75840, Note_on_c, 3, 50, 52
9, 75959, Note_on_c, 3, 50, 0
9, 78840, Note_on_c, 3, 45, 52
9, 78959, Note_on_c, 3, 45, 0
9, 78960, Note_on_c, 3, 45, 52
9, 79079, Note_on_c, 3, 45, 0
9, 79080, Note_on_c, 3, 45, 52
9, 79199, Note_on_c, 3, 45, 0
9, 79200, Note_on_c, 3, 50, 52
9, 79319, Note_on_c, 3, 50, 0
9, 82080, Note_on_c, 3, 45, 52
9, 82199, Note_on_c, 3, 45, 0
9, 87360, Note_on_c, 3, 50, 52
9, 87479, Note_on_c, 3, 50, 0
9, 97440, Note_on_c, 3, 45, 49
9, 97469, Note_on_c, 3, 45, 0
9, 97470, Note_on_c, 3, 45, 52
9, 97499, Note_on_c, 3, 45, 0
9, 97500, Note_on_c, 3, 45, 50
9, 97529, Note_on_c, 3, 45, 0
9, 97530, Note_on_c, 3, 45, 54
9, 97559, Note_on_c, 3, 45, 0
9, 97560, Note_on_c, 3, 45, 52
9, 97589, Note_on_c, 3, 45, 0
9, 97590, Note_on_c, 3, 45, 52
9, 97619, Note_on_c, 3, 45, 0
9, 97620, Note_on_c, 3, 45, 51
9, 97649, Note_on_c, 3, 45, 0
9, 97650, Note_on_c, 3, 45, 55
9, 97679, Note_on_c, 3, 45, 0
9, 97680, Note_on_c, 3, 45, 54
9, 97709, Note_on_c, 3, 45, 0
9, 97710, Note_on_c, 3, 45, 53
9, 97739, Note_on_c, 3, 45, 0
9, 97740, Note_on_c, 3, 45, 50
9, 97769, Note_on_c, 3, 45, 0
9, 97770, Note_on_c, 3, 45, 54
9, 97799, Note_on_c, 3, 45, 0
9, 97800, Note_on_c, 3, 45, 53
9, 97829, Note_on_c, 3, 45, 0
9, 97830, Note_on_c, 3, 45, 52
9, 97859, Note_on_c, 3, 45, 0
9, 97860, Note_on_c, 3, 45, 51
9, 97889, Note_on_c, 3, 45, 0
9, 97890, Note_on_c, 3, 45, 49
9, 97919, Note_on_c, 3, 45, 0
9, 97920, Note_on_c, 3, 45, 49
9, 97949, Note_on_c, 3, 45, 0
9, 97950, Note_on_c, 3, 45, 51
9, 97979, Note_on_c, 3, 45, 0
9, 97980, Note_on_c, 3, 45, 50
9, 98009, Note_on_c, 3, 45, 0
9, 98010, Note_on_c, 3, 45, 50
9, 98039, Note_on_c, 3, 45, 0
9, 98040, Note_on_c, 3, 45, 55
9, 98069, Note_on_c, 3, 45, 0
9, 98070, Note_on_c, 3, 45, 52
9, 98099, Note_on_c, 3, 45, 0
9, 98100, Note_on_c, 3, 45, 49
9, 98129, Note_on_c, 3, 45, 0
9, 98130, Note_on_c, 3, 45, 49
9, 98159, Note_on_c, 3, 45, 0
9, 98160, Note_on_c, 3, 45, 49
9, 98189, Note_on_c, 3, 45, 0
9, 98190, Note_on_c, 3, 45, 52
9, 98219, Note_on_c, 3, 45, 0
9, 98220, Note_on_c, 3, 45, 52
9, 98249, Note_on_c, 3, 45, 0
9, 98250, Note_on_c, 3, 45, 52
9, 98279, Note_on_c, 3, 45, 0
9, 98280, Note_on_c, 3, 45, 52
9, 98309, Note_on_c, 3, 45, 0
9, 98310, Note_on_c, 3, 45, 52
9, 98339, Note_on_c, 3, 45, 0
9, 98340, Note_on_c, 3, 45, 50
9, 98369, Note_on_c, 3, 45, 0
9, 98370, Note_on_c, 3, 45, 53
9, 98399, Note_on_c, 3, 45, 0
9, 98400, Note_on_c, 3, 45, 52
9, 98429, Note_on_c, 3, 45, 0
9, 98430, Note_on_c, 3, 45, 51
9, 98459, Note_on_c, 3, 45, 0
9, 98460, Note_on_c, 3, 45, 49
9, 98489, Note_on_c, 3, 45, 0
9, 98490, Note_on_c, 3, 45, 52
9, 98519, Note_on_c, 3, 45, 0
9, 98520, Note_on_c, 3, 45, 54
9, 98549, Note_on_c, 3, 45, 0
9, 98550, Note_on_c, 3, 45, 54
9, 98579, Note_on_c, 3, 45, 0
9, 98580, Note_on_c, 3, 45, 52
9, 98609, Note_on_c, 3, 45, 0
9, 98610, Note_on_c, 3, 45, 51
9, 98639, Note_on_c, 3, 45, 0
9, 98640, Note_on_c, 3, 45, 55
9, 98669, Note_on_c, 3, 45, 0
9, 98670, Note_on_c, 3, 45, 53
9, 98699, Note_on_c, 3, 45, 0
9, 98700, Note_on_c, 3, 45, 55
9, 98729, Note_on_c, 3, 45, 0
9, 98730, Note_on_c, 3, 45, 55
9, 98759, Note_on_c, 3, 45, 0
9, 98760, Note_on_c, 3, 45, 52
9, 98789, Note_on_c, 3, 45, 0
9, 98790, Note_on_c, 3, 45, 50
9, 98819, Note_on_c, 3, 45, 0
9, 98820, Note_on_c, 3, 45, 52
9, 98849, Note_on_c, 3, 45, 0
9, 98850, Note_on_c, 3, 45, 50
9, 98879, Note_on_c, 3, 45, 0
9, 98880, Note_on_c, 3, 45, 54
9, 98909, Note_on_c, 3, 45, 0
9, 98910, Note_on_c, 3, 45, 50
9, 98939, Note_on_c, 3, 45, 0
9, 98940, Note_on_c, 3, 45, 54
9, 98969, Note_on_c, 3, 45, 0
9, 98970, Note_on_c, 3, 45, 54
9, 98999, Note_on_c, 3, 45, 0
9, 99000, Note_on_c, 3, 45, 55
9, 99029, Note_on_c, 3, 45, 0
9, 99030, Note_on_c, 3, 45, 55
9, 99059, Note_on_c, 3, 45, 0
9, 99060, Note_on_c, 3, 45, 52
9, 99089, Note_on_c, 3, 45, 0
9, 99090, Note_on_c, 3, 45, 52
9, 99119, Note_on_c, 3, 45, 0
9, 99120, Note_on_c, 3, 45, 51
9, 99149, Note_on_c, 3, 45, 0
9, 99150, Note_on_c, 3, 45, 51
9, 99179, Note_on_c, 3, 45, 0
9, 99180, Note_on_c, 3, 45, 54
9, 99209, Note_on_c, 3, 45, 0
9, 99210, Note_on_c, 3, 45, 49
9, 99239, Note_on_c, 3, 45, 0
9, 99240, Note_on_c, 3, 45, 52
9, 99269, Note_on_c, 3, 45, 0
9, 99270, Note_on_c, 3, 45, 49
9, 99299, Note_on_c, 3, 45, 0
9, 99300, Note_on_c, 3, 45, 53
9, 99329, Note_on_c, 3, 45, 0
9, 99330, Note_on_c, 3, 45, 49
9, 99359, Note_on_c, 3, 45, 0
9, 99360, Note_on_c, 3, 45, 52
9, 99479, Note_on_c, 3, 45, 0
9, 103800, Note_on_c, 3, 45, 52
9, 103919, Note_on_c, 3, 45, 0
9, 103920, Note_on_c, 3, 45, 52
9, 104039, Note_on_c, 3, 45, 0
9, 104040, Note_on_c, 3, 45, 52
9, 104159, Note_on_c, 3, 45, 0
9, 104160, Note_on_c, 3, 50, 49
9, 104189, Note_on_c, 3, 50, 0
9, 104190, Note_on_c, 3, 50, 55
9, 104219, Note_on_c, 3, 50, 0
9, 104220, Note_on_c, 3, 50, 51
9, 104249, Note_on_c, 3, 50, 0
9, 104250, Note_on_c, 3, 50, 51
9, 104279, Note_on_c, 3, 50, 0
9, 104280, Note_on_c, 3, 50, 52
9, 104309, Note_on_c, 3, 50, 0
9, 104310, Note_on_c, 3, 50, 53
9, 104339, Note_on_c, 3, 50, 0
9, 104340, Note_on_c, 3, 50, 54
9, 104369, Note_on_c, 3, 50, 0
9, 104370, Note_on_c, 3, 50, 53
9, 104399, Note_on_c, 3, 50, 0
9, 104400, Note_on_c, 3, 50, 52
9, 104429, Note_on_c, 3, 50, 0
9, 104430, Note_on_c, 3, 50, 50
9, 104459, Note_on_c, 3, 50, 0
9, 104460, Note_on_c, 3, 50, 53
9, 104489, Note_on_c, 3, 50, 0
9, 104490, Note_on_c, 3, 50, 52
9, 104519, Note_on_c, 3, 50, 0
9, 104520, Note_on_c, 3, 50, 52
9, 104549, Note_on_c, 3, 50, 0
9, 104550, Note_on_c, 3, 50, 55
9, 104579, Note_on_c, 3, 50, 0
9, 104580, Note_on_c, 3, 50, 53
9, 104609, Note_on_c, 3, 50, 0
9, 104610, Note_on_c, 3, 50, 49
9, 104639, Note_on_c, 3, 50, 0
9, 104640, Note_on_c, 3, 50, 52
9, 104669, Note_on_c, 3, 50, 0
9, 104670, Note_on_c, 3, 50, 52
9, 104699, Note_on_c, 3, 50, 0
9, 104700, Note_on_c, 3, 50, 53
9, 104729, Note_on_c, 3, 50, 0
9, 104730, Note_on_c, 3, 50, 52
9, 104759, Note_on_c, 3, 50, 0
9, 104760, Note_on_c, 3, 50, 52
9, 104789, Note_on_c, 3, 50, 0
9, 104790, Note_on_c, 3, 50, 51
9, 104819, Note_on_c, 3, 50, 0
9, 104820, Note_on_c, 3, 50, 50
9, 104849, Note_on_c, 3, 50, 0
9, 104850, Note_on_c, 3, 50, 50
9, 104879, Note_on_c, 3, 50, 0
9, 104880, Note_on_c, 3, 50, 52
9, 104909, Note_on_c, 3, 50, 0
9, 104910, Note_on_c, 3, 50, 54
9, 104939, Note_on_c, 3, 50, 0
9, 104940, Note_on_c, 3, 50, 52
9, 104969, Note_on_c, 3, 50, 0
9, 104970, Note_on_c, 3, 50, 55
9, 104999, Note_on_c, 3, 50, 0
9, 105000, Note_on_c, 3, 50, 54
9, 105029, Note_on_c, 3, 50, 0
9, 105030, Note_on_c, 3, 50, 51
9, 105059, Note_on_c, 3, 50, 0
9, 105060, Note_on_c, 3, 50, 50
9, 105089, Note_on_c, 3, 50, 0
9, 105090, Note_on_c, 3, 50, 53
9, 105119, Note_on_c, 3, 50, 0
9, 105120, Note_on_c, 3, 50, 52
9, 105149, Note_on_c, 3, 50, 0
9, 105150, Note_on_c, 3, 50, 49
9, 105179, Note_on_c, 3, 50, 0
9, 105180, Note_on_c, 3, 50, 53
9, 105209, Note_on_c, 3, 50, 0
9, 105210, Note_on_c, 3, 50, 52
9, 105239, Note_on_c, 3, 50, 0
9, 105240, Note_on_c, 3, 50, 50
9, 105269, Note_on_c, 3, 50, 0
9, 105270, Note_on_c, 3, 50, 55
9, 105299, Note_on_c, 3, 50, 0
9, 105300, Note_on_c, 3, 50, 50
9, 105329, Note_on_c, 3, 50, 0
9, 105330, Note_on_c, 3, 50, 55
9, 105359, Note_on_c, 3, 50, 0
9, 105360, Note_on_c, 3, 50, 53
9, 105389, Note_on_c, 3, 50, 0
9, 105390, Note_on_c, 3, 50, 51
9, 105419, Note_on_c, 3, 50, 0
9, 105420, Note_on_c, 3, 50, 52
9, 105449, Note_on_c, 3, 50, 0
9, 105450, Note_on_c, 3, 50, 49
9, 105479, Note_on_c, 3, 50, 0
9, 105480, Note_on_c, 3, 50, 55
9, 105509, Note_on_c, 3, 50, 0
9, 105510, Note_on_c, 3, 50, 53
9, 105539, Note_on_c, 3, 50, 0
9, 105540, Note_on_c, 3, 50, 50
9, 105569, Note_on_c, 3, 50, 0
9, 105570, Note_on_c, 3, 50, 52
9, 105599, Note_on_c, 3, 50, 0
9, 105600, Note_on_c, 3, 50, 52
9, 105719, Note_on_c, 3, 50, 0
9, 107640, Note_on_c, 3, 45, 52
9, 107699, Note_on_c, 3, 45, 0
9, 107760, Note_on_c, 3, 45, 52
9, 107819, Note_on_c, 3, 45, 0
9, 107880, Note_on_c, 3, 45, 52
9, 107939, Note_on_c, 3, 45, 0
9, 108000, Note_on_c, 3, 45, 52
9, 108059, Note_on_c, 3, 45, 0
9, 108120, Note_on_c, 3, 45, 52
9, 108179, Note_on_c, 3, 45, 0
9, 108240, Note_on_c, 3, 45, 52
9, 108299, Note_on_c, 3, 45, 0
9, 108360, Note_on_c, 3, 45, 52
9, 108419, Note_on_c, 3, 45, 0
9, 108480, Note_on_c, 3, 45, 52
9, 108539, Note_on_c, 3, 45, 0
9, 108600, Note_on_c, 3, 45, 52
9, 108659, Note_on_c, 3, 45, 0
9, 108720, Note_on_c, 3, 45, 52
9, 108779, Note_on_c, 3, 45, 0
9, 108840, Note_on_c, 3, 45, 52
9, 108899, Note_on_c, 3, 45, 0
9, 108960, Note_on_c, 3, 50, 52
9, 109079, Note_on_c, 3, 50, 0
9, 109320, Note_on_c, 3, 50, 52
9, 109379, Note_on_c, 3, 50, 0
9, 109380, Note_on_c, 3, 50, 52
9, 109439, Note_on_c, 3, 50, 0
9, 109440, Note_on_c, 3, 50, 52
9, 109559, Note_on_c, 3, 50, 0
9, 109800, Note_on_c, 3, 50, 52
9, 109859, Note_on_c, 3, 50, 0
9, 109860, Note_on_c, 3, 50, 52
9, 109919, Note_on_c, 3, 50, 0
9, 109920, Note_on_c, 3, 50, 52
9, 110039, Note_on_c, 3, 50, 0
9, 110040, Note_on_c, 3, 50, 52
9, 110159, Note_on_c, 3, 50, 0
9, 110160, Note_on_c, 3, 50, 52
9, 110279, Note_on_c, 3, 50, 0
9, 110280, Note_on_c, 3, 50, 52
9, 110399, Note_on_c, 3, 50, 0
9, 110400, Note_on_c, 3, 50, 52
9, 110519, Note_on_c, 3, 50, 0
9, 113880, Note_on_c, 3, 50, 52
9, 113999, Note_on_c, 3, 50, 0
9, 114000, Note_on_c, 3, 50, 52
9, 114119, Note_on_c, 3, 50, 0
9, 114120, Note_on_c, 3, 50, 52
9, 114239, Note_on_c, 3, 50, 0
9, 114240, Note_on_c, 3, 50, 52
9, 114359, Note_on_c, 3, 50, 0
9, 115320, Note_on_c, 3, 50, 52
9, 115439, Note_on_c, 3, 50, 0
9, 115440, Note_on_c, 3, 50, 52
9, 115559, Note_on_c, 3, 50, 0
9, 115560, Note_on_c, 3, 50, 52
9, 115679, Note_on_c, 3, 50, 0
9, 115680, Note_on_c, 3, 45, 52
9, 115799, Note_on_c, 3, 45, 0
9, 119160, Note_on_c, 3, 50, 52
9, 119279, Note_on_c, 3, 50, 0
9, 119280, Note_on_c, 3, 50, 52
9, 119399, Note_on_c, 3, 50, 0
9, 119400, Note_on_c, 3, 50, 52
9, 119519, Note_on_c, 3, 50, 0
9, 119520, Note_on_c, 3, 50, 52
9, 119639, Note_on_c, 3, 50, 0
9, 120000, Note_on_c, 3, 45, 52
9, 120119, Note_on_c, 3, 45, 0
9, 120600, Note_on_c, 3, 45, 52
9, 120719, Note_on_c, 3, 45, 0
9, 120720, Note_on_c, 3, 50, 52
9, 120839, Note_on_c, 3, 50, 0
9, 120840, Note_on_c, 3, 50, 52
9, 120959, Note_on_c, 3, 50, 0
9, 120960, Note_on_c, 3, 45, 52
9, 121079, Note_on_c, 3, 45, 0
9, 122040, Note_on_c, 3, 45, 52
9, 122159, Note_on_c, 3, 45, 0
9, 122160, Note_on_c, 3, 45, 52
9, 122279, Note_on_c, 3, 45, 0
9, 122280, Note_on_c, 3, 45, 52
9, 122399, Note_on_c, 3, 45, 0
9, 122400, Note_on_c, 3, 50, 52
9, 122519, Note_on_c, 3, 50, 0
9, 123240, Note_on_c, 3, 45, 52
9, 123359, Note_on_c, 3, 45, 0
9, 123360, Note_on_c, 3, 50, 52
9, 123479, Note_on_c, 3, 50, 0
9, 123600, Note_on_c, 3, 50, 52
9, 123719, Note_on_c, 3, 50, 0
9, 123840, Note_on_c, 3, 45, 52
9, 123959, Note_on_c, 3, 45, 0
9, 124080, Note_on_c, 3, 45, 52
9, 124199, Note_on_c, 3, 45, 0
9, 124200, Note_on_c, 3, 45, 52
9, 124319, Note_on_c, 3, 45, 0
9, 124320, Note_on_c, 3, 50, 52
9, 124439, Note_on_c, 3, 50, 0
9, 124560, Note_on_c, 3, 45, 52
9, 124679, Note_on_c, 3, 45, 0
9, 124800, Note_on_c, 3, 50, 72
9, 124814, Note_on_c, 3, 50, 0
9, 124815, Note_on_c, 3, 50, 76
9, 124829, Note_on_c, 3, 50, 0
9, 124830, Note_on_c, 3, 50, 73
9, 124844, Note_on_c, 3, 50, 0
9, 124845, Note_on_c, 3, 50, 77
9, 124859, Note_on_c, 3, 50, 0
9, 124860, Note_on_c, 3, 50, 76
9, 124874, Note_on_c, 3, 50, 0
9, 124875, Note_on_c, 3, 50, 75
9, 124889, Note_on_c, 3, 50, 0
9, 124890, Note_on_c, 3, 50, 74
9, 124904, Note_on_c, 3, 50, 0
9, 124905, Note_on_c, 3, 50, 78
9, 124919, Note_on_c, 3, 50, 0
9, 124920, Note_on_c, 3, 50, 77
9, 124934, Note_on_c, 3, 50, 0
9, 124935, Note_on_c, 3, 50, 76
9, 124949, Note_on_c, 3, 50, 0
9, 124950, Note_on_c, 3, 50, 73
9, 124964, Note_on_c, 3, 50, 0
9, 124965, Note_on_c, 3, 50, 77
9, 124979, Note_on_c, 3, 50, 0
9, 124980, Note_on_c, 3, 50, 76
9, 124994, Note_on_c, 3, 50, 0
9, 124995, Note_on_c, 3, 50, 76
9, 125009, Note_on_c, 3, 50, 0
9, 125010, Note_on_c, 3, 50, 74
9, 125024, Note_on_c, 3, 50, 0
9, 125025, Note_on_c, 3, 50, 72
9, 125039, Note_on_c, 3, 50, 0
9, 125040, Note_on_c, 3, 50, 72
9, 125054, Note_on_c, 3, 50, 0
9, 125055, Note_on_c, 3, 50, 74
9, 125069, Note_on_c, 3, 50, 0
9, 125070, Note_on_c, 3, 50, 73
9, 125084, Note_on_c, 3, 50, 0
9, 125085, Note_on_c, 3, 50, 73
9, 125099, Note_on_c, 3, 50, 0
9, 125100, Note_on_c, 3, 50, 78
9, 125114, Note_on_c, 3, 50, 0
9, 125115, Note_on_c, 3, 50, 75
9, 125129, Note_on_c, 3, 50, 0
9, 125130, Note_on_c, 3, 50, 72
9, 125144, Note_on_c, 3, 50, 0
9, 125145, Note_on_c, 3, 50, 72
9, 125159, Note_on_c, 3, 50, 0
9, 125160, Note_on_c, 3, 50, 72
9, 125174, Note_on_c, 3, 50, 0
9, 125175, Note_on_c, 3, 50, 75
9, 125189, Note_on_c, 3, 50, 0
9, 125190, Note_on_c, 3, 50, 76
9, 125204, Note_on_c, 3, 50, 0
9, 125205, Note_on_c, 3, 50, 76
9, 125219, Note_on_c, 3, 50, 0
9, 125220, Note_on_c, 3, 50, 76
9, 125234, Note_on_c, 3, 50, 0
9, 125235, Note_on_c, 3, 50, 76
9, 125249, Note_on_c, 3, 50, 0
9, 125250, Note_on_c, 3, 50, 73
9, 125264, Note_on_c, 3, 50, 0
9, 125265, Note_on_c, 3, 50, 76
9, 125279, Note_on_c, 3, 50, 0
9, 125280, Note_on_c, 3, 50, 75
9, 125294, Note_on_c, 3, 50, 0
9, 125295, Note_on_c, 3, 50, 74
9, 125309, Note_on_c, 3, 50, 0
9, 125310, Note_on_c, 3, 50, 72
9, 125324, Note_on_c, 3, 50, 0
9, 125325, Note_on_c, 3, 50, 76
9, 125339, Note_on_c, 3, 50, 0
9, 125340, Note_on_c, 3, 50, 77
9, 125354, Note_on_c, 3, 50, 0
9, 125355, Note_on_c, 3, 50, 77
9, 125369, Note_on_c, 3, 50, 0
9, 125370, Note_on_c, 3, 50, 76
9, 125384, Note_on_c, 3, 50, 0
9, 125385, Note_on_c, 3, 50, 74
9, 125399, Note_on_c, 3, 50, 0
9, 125400, Note_on_c, 3, 50, 78
9, 125414, Note_on_c, 3, 50, 0
9, 125415, Note_on_c, 3, 50, 76
9, 125429, Note_on_c, 3, 50, 0
9, 125430, Note_on_c, 3, 50, 78
9, 125444, Note_on_c, 3, 50, 0
9, 125445, Note_on_c, 3, 50, 78
9, 125459, Note_on_c, 3, 50, 0
9, 125460, Note_on_c, 3, 50, 76
9, 125474, Note_on_c, 3, 50, 0
9, 125475, Note_on_c, 3, 50, 73
9, 125489, Note_on_c, 3, 50, 0
9, 125490, Note_on_c, 3, 50, 75
9, 125504, Note_on_c, 3, 50, 0
9, 125505, Note_on_c, 3, 50, 73
9, 125519, Note_on_c, 3, 50, 0
9, 125520, Note_on_c, 3, 50, 77
9, 125534, Note_on_c, 3, 50, 0
9, 125535, Note_on_c, 3, 50, 73
9, 125549, Note_on_c, 3, 50, 0
9, 125550, Note_on_c, 3, 50, 77
9, 125564, Note_on_c, 3, 50, 0
9, 125565, Note_on_c, 3, 50, 77
9, 125579, Note_on_c, 3, 50, 0
9, 125580, Note_on_c, 3, 50, 78
9, 125594, Note_on_c, 3, 50, 0
9, 125595, Note_on_c, 3, 50, 78
9, 125609, Note_on_c, 3, 50, 0
9, 125610, Note_on_c, 3, 50, 76
9, 125624, Note_on_c, 3, 50, 0
9, 125625, Note_on_c, 3, 50, 75
9, 125639, Note_on_c, 3, 50, 0
9, 125640, Note_on_c, 3, 50, 74
9, 125654, Note_on_c, 3, 50, 0
9, 125655, Note_on_c, 3, 50, 74
9, 125669, Note_on_c, 3, 50, 0
9, 125670, Note_on_c, 3, 50, 77
9, 125684, Note_on_c, 3, 50, 0
9, 125685, Note_on_c, 3, 50, 72
9, 125699, Note_on_c, 3, 50, 0
9, 125700, Note_on_c, 3, 50, 75
9, 125714, Note_on_c, 3, 50, 0
9, 125715, Note_on_c, 3, 50, 72
9, 125729, Note_on_c, 3, 50, 0
9, 125730, Note_on_c, 3, 50, 76
9, 125744, Note_on_c, 3, 50, 0
9, 125745, Note_on_c, 3, 50, 72
9, 125759, Note_on_c, 3, 50, 0
9, 125760, Note_on_c, 3, 50, 72
9, 125774, Note_on_c, 3, 50, 0
9, 125775, Note_on_c, 3, 50, 78
9, 125789, Note_on_c, 3, 50, 0
9, 125790, Note_on_c, 3, 50, 74
9, 125804, Note_on_c, 3, 50, 0
9, 125805, Note_on_c, 3, 50, 74
9, 125819, Note_on_c, 3, 50, 0
9, 125820, Note_on_c, 3, 50, 76
9, 125834, Note_on_c, 3, 50, 0
9, 125835, Note_on_c, 3, 50, 76
9, 125849, Note_on_c, 3, 50, 0
9, 125850, Note_on_c, 3, 50, 77
9, 125864, Note_on_c, 3, 50, 0
9, 125865, Note_on_c, 3, 50, 76
9, 125879, Note_on_c, 3, 50, 0
9, 125880, Note_on_c, 3, 50, 75
9, 125894, Note_on_c, 3, 50, 0
9, 125895, Note_on_c, 3, 50, 73
9, 125909, Note_on_c, 3, 50, 0
9, 125910, Note_on_c, 3, 50, 76
9, 125924, Note_on_c, 3, 50, 0
9, 125925, Note_on_c, 3, 50, 75
9, 125939, Note_on_c, 3, 50, 0
9, 125940, Note_on_c, 3, 50, 75
9, 125954, Note_on_c, 3, 50, 0
9, 125955, Note_on_c, 3, 50, 78
9, 125969, Note_on_c, 3, 50, 0
9, 125970, Note_on_c, 3, 50, 76
9, 125984, Note_on_c, 3, 50, 0
9, 125985, Note_on_c, 3, 50, 72
9, 125999, Note_on_c, 3, 50, 0
9, 126000, Note_on_c, 3, 50, 76
9, 126014, Note_on_c, 3, 50, 0
9, 126015, Note_on_c, 3, 50, 75
9, 126029, Note_on_c, 3, 50, 0
9, 126030, Note_on_c, 3, 50, 76
9, 126044, Note_on_c, 3, 50, 0
9, 126045, Note_on_c, 3, 50, 76
9, 126059, Note_on_c, 3, 50, 0
9, 126060, Note_on_c, 3, 50, 76
9, 126074, Note_on_c, 3, 50, 0
9, 126075, Note_on_c, 3, 50, 74
9, 126089, Note_on_c, 3, 50, 0
9, 126090, Note_on_c, 3, 50, 73
9, 126104, Note_on_c, 3, 50, 0
9, 126105, Note_on_c, 3, 50, 73
9, 126119, Note_on_c, 3, 50, 0
9, 126120, Note_on_c, 3, 50, 75
9, 126134, Note_on_c, 3, 50, 0
9, 126135, Note_on_c, 3, 50, 77
9, 126149, Note_on_c, 3, 50, 0
9, 126150, Note_on_c, 3, 50, 76
9, 126164, Note_on_c, 3, 50, 0
9, 126165, Note_on_c, 3, 50, 78
9, 126179, Note_on_c, 3, 50, 0
9, 126180, Note_on_c, 3, 50, 77
9, 126194, Note_on_c, 3, 50, 0
9, 126195, Note_on_c, 3, 50, 74
9, 126209, Note_on_c, 3, 50, 0
9, 126210, Note_on_c, 3, 50, 73
9, 126224, Note_on_c, 3, 50, 0
9, 126225, Note_on_c, 3, 50, 76
9, 126239, Note_on_c, 3, 50, 0
9, 126240, Note_on_c, 3, 50, 75
9, 126254, Note_on_c, 3, 50, 0
9, 126255, Note_on_c, 3, 50, 72
9, 126269, Note_on_c, 3, 50, 0
9, 126270, Note_on_c, 3, 50, 76
9, 126284, Note_on_c, 3, 50, 0
9, 126285, Note_on_c, 3, 50, 76
9, 126299, Note_on_c, 3, 50, 0
9, 126300, Note_on_c, 3, 50, 73
9, 126314, Note_on_c, 3, 50, 0
9, 126315, Note_on_c, 3, 50, 78
9, 126329, Note_on_c, 3, 50, 0
9, 126330, Note_on_c, 3, 50, 73
9, 126344, Note_on_c, 3, 50, 0
9, 126345, Note_on_c, 3, 50, 78
9, 126359, Note_on_c, 3, 50, 0
9, 126360, Note_on_c, 3, 50, 76
9, 126374, Note_on_c, 3, 50, 0
9, 126375, Note_on_c, 3, 50, 74
9, 126389, Note_on_c, 3, 50, 0
9, 126390, Note_on_c, 3, 50, 75
9, 126404, Note_on_c, 3, 50, 0
9, 126405, Note_on_c, 3, 50, 72
9, 126419, Note_on_c, 3, 50, 0
9, 126420, Note_on_c, 3, 50, 78
9, 126434, Note_on_c, 3, 50, 0
9, 126435, Note_on_c, 3, 50, 76
9, 126449, Note_on_c, 3, 50, 0
9, 126450, Note_on_c, 3, 50, 73
9, 126464, Note_on_c, 3, 50, 0
9, 126465, Note_on_c, 3, 50, 78
9, 126479, Note_on_c, 3, 50, 0
9, 126480, Note_on_c, 3, 50, 77
9, 126494, Note_on_c, 3, 50, 0
9, 126495, Note_on_c, 3, 50, 76
9, 126509, Note_on_c, 3, 50, 0
9, 126510, Note_on_c, 3, 50, 73
9, 126524, Note_on_c, 3, 50, 0
9, 126525, Note_on_c, 3, 50, 73
9, 126539, Note_on_c, 3, 50, 0
9, 126540, Note_on_c, 3, 50, 77
9, 126554, Note_on_c, 3, 50, 0
9, 126555, Note_on_c, 3, 50, 75
9, 126569, Note_on_c, 3, 50, 0
9, 126570, Note_on_c, 3, 50, 73
9, 126584, Note_on_c, 3, 50, 0
9, 126585, Note_on_c, 3, 50, 76
9, 126599, Note_on_c, 3, 50, 0
9, 126600, Note_on_c, 3, 50, 76
9, 126614, Note_on_c, 3, 50, 0
9, 126615, Note_on_c, 3, 50, 75
9, 126629, Note_on_c, 3, 50, 0
9, 126630, Note_on_c, 3, 50, 74
9, 126644, Note_on_c, 3, 50, 0
9, 126645, Note_on_c, 3, 50, 76
9, 126659, Note_on_c, 3, 50, 0
9, 126660, Note_on_c, 3, 50, 76
9, 126674, Note_on_c, 3, 50, 0
9, 126675, Note_on_c, 3, 50, 77
9, 126689, Note_on_c, 3, 50, 0
9, 126690, Note_on_c, 3, 50, 76
9, 126704, Note_on_c, 3, 50, 0
9, 126705, Note_on_c, 3, 50, 75
9, 126719, Note_on_c, 3, 50, 0
9, 126720, Note_on_c, 3, 50, 72
9, 126734, Note_on_c, 3, 50, 0
9, 126735, Note_on_c, 3, 50, 74
9, 126749, Note_on_c, 3, 50, 0
9, 126750, Note_on_c, 3, 50, 77
9, 126764, Note_on_c, 3, 50, 0
9, 126765, Note_on_c, 3, 50, 72
9, 126779, Note_on_c, 3, 50, 0
9, 126780, Note_on_c, 3, 50, 76
9, 126794, Note_on_c, 3, 50, 0
9, 126795, Note_on_c, 3, 50, 76
9, 126809, Note_on_c, 3, 50, 0
9, 126810, Note_on_c, 3, 50, 75
9, 126824, Note_on_c, 3, 50, 0
9, 126825, Note_on_c, 3, 50, 72
9, 126839, Note_on_c, 3, 50, 0
9, 126840, Note_on_c, 3, 50, 78
9, 126854, Note_on_c, 3, 50, 0
9, 126855, Note_on_c, 3, 50, 78
9, 126869, Note_on_c, 3, 50, 0
9, 126870, Note_on_c, 3, 50, 76
9, 126884, Note_on_c, 3, 50, 0
9, 126885, Note_on_c, 3, 50, 74
9, 126899, Note_on_c, 3, 50, 0
9, 126900, Note_on_c, 3, 50, 75
9, 126914, Note_on_c, 3, 50, 0
9, 126915, Note_on_c, 3, 50, 74
9, 126929, Note_on_c, 3, 50, 0
9, 126930, Note_on_c, 3, 50, 77
9, 126944, Note_on_c, 3, 50, 0
9, 126945, Note_on_c, 3, 50, 74
9, 126959, Note_on_c, 3, 50, 0
9, 126960, Note_on_c, 3, 50, 76
9, 127019, Note_on_c, 3, 50, 0
9, 127020, Note_on_c, 3, 50, 76
9, 127079, Note_on_c, 3, 50, 0
9, 127080, Note_on_c, 3, 50, 76
9, 127139, Note_on_c, 3, 50, 0
9, 127140, Note_on_c, 3, 50, 76
9, 127199, Note_on_c, 3, 50, 0
9, 127200, Note_on_c, 3, 50, 76
9, 127379, Note_on_c, 3, 50, 0
9, 127380, Note_on_c, 3, 50, 76
9, 127439, Note_on_c, 3, 50, 0
9, 127440, Note_on_c, 3, 50, 76
9, 127619, Note_on_c, 3, 50, 0
9, 127620, Note_on_c, 3, 50, 76
9, 127679, Note_on_c, 3, 50, 0
9, 127680, Note_on_c, 3, 50, 76
9, 127919, Note_on_c, 3, 50, 0
9, 135360, Note_on_c, 3, 50, 75
9, 135374, Note_on_c, 3, 50, 0
9, 135375, Note_on_c, 3, 50, 74
9, 135389, Note_on_c, 3, 50, 0
9, 135390, Note_on_c, 3, 50, 78
9, 135404, Note_on_c, 3, 50, 0
9, 135405, Note_on_c, 3, 50, 74
9, 135419, Note_on_c, 3, 50, 0
9, 135420, Note_on_c, 3, 50, 76
9, 135434, Note_on_c, 3, 50, 0
9, 135435, Note_on_c, 3, 50, 76
9, 135449, Note_on_c, 3, 50, 0
9, 135450, Note_on_c, 3, 50, 73
9, 135464, Note_on_c, 3, 50, 0
9, 135465, Note_on_c, 3, 50, 77
9, 135479, Note_on_c, 3, 50, 0
9, 135480, Note_on_c, 3, 50, 77
9, 135494, Note_on_c, 3, 50, 0
9, 135495, Note_on_c, 3, 50, 75
9, 135509, Note_on_c, 3, 50, 0
9, 135510, Note_on_c, 3, 50, 76
9, 135524, Note_on_c, 3, 50, 0
9, 135525, Note_on_c, 3, 50, 78
9, 135539, Note_on_c, 3, 50, 0
9, 135540, Note_on_c, 3, 50, 72
9, 135554, Note_on_c, 3, 50, 0
9, 135555, Note_on_c, 3, 50, 78
9, 135569, Note_on_c, 3, 50, 0
9, 135570, Note_on_c, 3, 50, 76
9, 135584, Note_on_c, 3, 50, 0
9, 135585, Note_on_c, 3, 50, 72
9, 135599, Note_on_c, 3, 50, 0
9, 135600, Note_on_c, 3, 50, 76
9, 135614, Note_on_c, 3, 50, 0
9, 135615, Note_on_c, 3, 50, 73
9, 135629, Note_on_c, 3, 50, 0
9, 135630, Note_on_c, 3, 50, 77
9, 135644, Note_on_c, 3, 50, 0
9, 135645, Note_on_c, 3, 50, 76
9, 135659, Note_on_c, 3, 50, 0
9, 135660, Note_on_c, 3, 50, 76
9, 135674, Note_on_c, 3, 50, 0
9, 135675, Note_on_c, 3, 50, 73
9, 135689, Note_on_c, 3, 50, 0
9, 135690, Note_on_c, 3, 50, 77
9, 135704, Note_on_c, 3, 50, 0
9, 135705, Note_on_c, 3, 50, 72
9, 135719, Note_on_c, 3, 50, 0
9, 135720, Note_on_c, 3, 50, 72
9, 135734, Note_on_c, 3, 50, 0
9, 135735, Note_on_c, 3, 50, 76
9, 135749, Note_on_c, 3, 50, 0
9, 135750, Note_on_c, 3, 50, 74
9, 135764, Note_on_c, 3, 50, 0
9, 135765, Note_on_c, 3, 50, 78
9, 135779, Note_on_c, 3, 50, 0
9, 135780, Note_on_c, 3, 50, 74
9, 135794, Note_on_c, 3, 50, 0
9, 135795, Note_on_c, 3, 50, 74
9, 135809, Note_on_c, 3, 50, 0
9, 135810, Note_on_c, 3, 50, 73
9, 135824, Note_on_c, 3, 50, 0
9, 135825, Note_on_c, 3, 50, 76
9, 135839, Note_on_c, 3, 50, 0
9, 135840, Note_on_c, 3, 50, 77
9, 135854, Note_on_c, 3, 50, 0
9, 135855, Note_on_c, 3, 50, 76
9, 135869, Note_on_c, 3, 50, 0
9, 135870, Note_on_c, 3, 50, 76
9, 135884, Note_on_c, 3, 50, 0
9, 135885, Note_on_c, 3, 50, 76
9, 135899, Note_on_c, 3, 50, 0
9, 135900, Note_on_c, 3, 50, 74
9, 135914, Note_on_c, 3, 50, 0
9, 135915, Note_on_c, 3, 50, 73
9, 135929, Note_on_c, 3, 50, 0
9, 135930, Note_on_c, 3, 50, 72
9, 135944, Note_on_c, 3, 50, 0
9, 135945, Note_on_c, 3, 50, 72
9, 135959, Note_on_c, 3, 50, 0
9, 135960, Note_on_c, 3, 50, 77
9, 135974, Note_on_c, 3, 50, 0
9, 135975, Note_on_c, 3, 50, 77
9, 135989, Note_on_c, 3, 50, 0
9, 135990, Note_on_c, 3, 50, 73
9, 136004, Note_on_c, 3, 50, 0
9, 136005, Note_on_c, 3, 50, 72
9, 136019, Note_on_c, 3, 50, 0
9, 136020, Note_on_c, 3, 50, 76
9, 136034, Note_on_c, 3, 50, 0
9, 136035, Note_on_c, 3, 50, 72
9, 136049, Note_on_c, 3, 50, 0
9, 136050, Note_on_c, 3, 50, 72
9, 136064, Note_on_c, 3, 50, 0
9, 136065, Note_on_c, 3, 50, 75
9, 136079, Note_on_c, 3, 50, 0
9, 136080, Note_on_c, 3, 50, 77
9, 136094, Note_on_c, 3, 50, 0
9, 136095, Note_on_c, 3, 50, 76
9, 136109, Note_on_c, 3, 50, 0
9, 136110, Note_on_c, 3, 50, 76
9, 136124, Note_on_c, 3, 50, 0
9, 136125, Note_on_c, 3, 50, 72
9, 136139, Note_on_c, 3, 50, 0
9, 136140, Note_on_c, 3, 50, 75
9, 136154, Note_on_c, 3, 50, 0
9, 136155, Note_on_c, 3, 50, 73
9, 136169, Note_on_c, 3, 50, 0
9, 136170, Note_on_c, 3, 50, 76
9, 136184, Note_on_c, 3, 50, 0
9, 136185, Note_on_c, 3, 50, 74
9, 136199, Note_on_c, 3, 50, 0
9, 136200, Note_on_c, 3, 50, 75
9, 136214, Note_on_c, 3, 50, 0
9, 136215, Note_on_c, 3, 50, 73
9, 136229, Note_on_c, 3, 50, 0
9, 136230, Note_on_c, 3, 50, 76
9, 136244, Note_on_c, 3, 50, 0
9, 136245, Note_on_c, 3, 50, 76
9, 136259, Note_on_c, 3, 50, 0
9, 136260, Note_on_c, 3, 50, 76
9, 136274, Note_on_c, 3, 50, 0
9, 136275, Note_on_c, 3, 50, 73
9, 136289, Note_on_c, 3, 50, 0
9, 136290, Note_on_c, 3, 50, 76
9, 136304, Note_on_c, 3, 50, 0
9, 136305, Note_on_c, 3, 50, 78
9, 136319, Note_on_c, 3, 50, 0
9, 136320, Note_on_c, 3, 50, 76
9, 136499, Note_on_c, 3, 50, 0
9, 136500, Note_on_c, 3, 50, 76
9, 136519, Note_on_c, 3, 50, 0
9, 136520, Note_on_c, 3, 50, 76
9, 136539, Note_on_c, 3, 50, 0
9, 136540, Note_on_c, 3, 50, 76
9, 136559, Note_on_c, 3, 50, 0
9, 136560, Note_on_c, 3, 50, 76
9, 136739, Note_on_c, 3, 50, 0
9, 136740, Note_on_c, 3, 50, 76
9, 136799, Note_on_c, 3, 50, 0
9, 136800, Note_on_c, 3, 50, 76
9, 136919, Note_on_c, 3, 50, 0
9, 137280, Note_on_c, 3, 45, 76
9, 137294, Note_on_c, 3, 45, 0
9, 137295, Note_on_c, 3, 45, 78
9, 137309, Note_on_c, 3, 45, 0
9, 137310, Note_on_c, 3, 45, 73
9, 137324, Note_on_c, 3, 45, 0
9, 137325, Note_on_c, 3, 45, 74
9, 137339, Note_on_c, 3, 45, 0
9, 137340, Note_on_c, 3, 45, 73
9, 137354, Note_on_c, 3, 45, 0
9, 137355, Note_on_c, 3, 45, 78
9, 137369, Note_on_c, 3, 45, 0
9, 137370, Note_on_c, 3, 45, 75
9, 137384, Note_on_c, 3, 45, 0
9, 137385, Note_on_c, 3, 45, 78
9, 137399, Note_on_c, 3, 45, 0
9, 137400, Note_on_c, 3, 45, 72
9, 137414, Note_on_c, 3, 45, 0
9, 137415, Note_on_c, 3, 45, 76
9, 137429, Note_on_c, 3, 45, 0
9, 137430, Note_on_c, 3, 45, 72
9, 137444, Note_on_c, 3, 45, 0
9, 137445, Note_on_c, 3, 45, 75
9, 137459, Note_on_c, 3, 45, 0
9, 137460, Note_on_c, 3, 45, 78
9, 137474, Note_on_c, 3, 45, 0
9, 137475, Note_on_c, 3, 45, 72
9, 137489, Note_on_c, 3, 45, 0
9, 137490, Note_on_c, 3, 45, 78
9, 137504, Note_on_c, 3, 45, 0
9, 137505, Note_on_c, 3, 45, 74
9, 137519, Note_on_c, 3, 45, 0
9, 137520, Note_on_c, 3, 45, 73
9, 137534, Note_on_c, 3, 45, 0
9, 137535, Note_on_c, 3, 45, 77
9, 137549, Note_on_c, 3, 45, 0
9, 137550, Note_on_c, 3, 45, 75
9, 137564, Note_on_c, 3, 45, 0
9, 137565, Note_on_c, 3, 45, 73
9, 137579, Note_on_c, 3, 45, 0
9, 137580, Note_on_c, 3, 45, 76
9, 137594, Note_on_c, 3, 45, 0
9, 137595, Note_on_c, 3, 45, 76
9, 137609, Note_on_c, 3, 45, 0
9, 137610, Note_on_c, 3, 45, 75
9, 137624, Note_on_c, 3, 45, 0
9, 137625, Note_on_c, 3, 45, 75
9, 137639, Note_on_c, 3, 45, 0
9, 137640, Note_on_c, 3, 45, 76
9, 137654, Note_on_c, 3, 45, 0
9, 137655, Note_on_c, 3, 45, 76
9, 137669, Note_on_c, 3, 45, 0
9, 137670, Note_on_c, 3, 45, 77
9, 137684, Note_on_c, 3, 45, 0
9, 137685, Note_on_c, 3, 45, 77
9, 137699, Note_on_c, 3, 45, 0
9, 137700, Note_on_c, 3, 45, 76
9, 137714, Note_on_c, 3, 45, 0
9, 137715, Note_on_c, 3, 45, 76
9, 137729, Note_on_c, 3, 45, 0
9, 137730, Note_on_c, 3, 45, 76
9, 137744, Note_on_c, 3, 45, 0
9, 137745, Note_on_c, 3, 45, 75
9, 137759, Note_on_c, 3, 45, 0
9, 137760, Note_on_c, 3, 45, 76
9, 137939, Note_on_c, 3, 45, 0
9, 137940, Note_on_c, 3, 45, 76
9, 137959, Note_on_c, 3, 45, 0
9, 137960, Note_on_c, 3, 45, 76
9, 137979, Note_on_c, 3, 45, 0
9, 137980, Note_on_c, 3, 45, 76
9, 137999, Note_on_c, 3, 45, 0
9, 138000, Note_on_c, 3, 50, 76
9, 138179, Note_on_c, 3, 50, 0
9, 138180, Note_on_c, 3, 45, 76
9, 138239, Note_on_c, 3, 45, 0
9, 138240, Note_on_c, 3, 50, 76
9, 138419, Note_on_c, 3, 50, 0
9, 138420, Note_on_c, 3, 45, 76
9, 138479, Note_on_c, 3, 45, 0
9, 138480, Note_on_c, 3, 50, 76
9, 138659, Note_on_c, 3, 50, 0
9, 138660, Note_on_c, 3, 50, 76
9, 138719, Note_on_c, 3, 50, 0
9, 138720, Note_on_c, 3, 45, 76
9, 138839, Note_on_c, 3, 45, 0
9, 138840, Note_on_c, 3, 45, 76
9, 138899, Note_on_c, 3, 45, 0
9, 138900, Note_on_c, 3, 45, 76
9, 138959, Note_on_c, 3, 45, 0
9, 138960, Note_on_c, 3, 45, 76
9, 139139, Note_on_c, 3, 45, 0
9, 139140, Note_on_c, 3, 45, 76
9, 139199, Note_on_c, 3, 45, 0
9, 139200, Note_on_c, 3, 50, 76
9, 139439, Note_on_c, 3, 50, 0
9, 145560, Note_on_c, 3, 50, 76
9, 145679, Note_on_c, 3, 50, 0
9, 145680, Note_on_c, 3, 50, 76
9, 145799, Note_on_c, 3, 50, 0
9, 145800, Note_on_c, 3, 50, 76
9, 145919, Note_on_c, 3, 50, 0
9, 145920, Note_on_c, 3, 50, 76
9, 146039, Note_on_c, 3, 50, 0
9, 147000, Note_on_c, 3, 50, 76
9, 147119, Note_on_c, 3, 50, 0
9, 147120, Note_on_c, 3, 50, 76
9, 147239, Note_on_c, 3, 50, 0
9, 147240, Note_on_c, 3, 50, 76
9, 147359, Note_on_c, 3, 50, 0
9, 147360, Note_on_c, 3, 45, 76
9, 147479, Note_on_c, 3, 45, 0
9, 150840, Note_on_c, 3, 50, 76
9, 150959, Note_on_c, 3, 50, 0
9, 150960, Note_on_c, 3, 50, 76
9, 151079, Note_on_c, 3, 50, 0
9, 151080, Note_on_c, 3, 50, 76
9, 151199, Note_on_c, 3, 50, 0
9, 151200, Note_on_c, 3, 50, 76
9, 151319, Note_on_c, 3, 50, 0
9, 151680, Note_on_c, 3, 45, 76
9, 151799, Note_on_c, 3, 45, 0
9, 152280, Note_on_c, 3, 45, 76
9, 152399, Note_on_c, 3, 45, 0
9, 152400, Note_on_c, 3, 50, 76
9, 152519, Note_on_c, 3, 50, 0
9, 152520, Note_on_c, 3, 50, 76
9, 152639, Note_on_c, 3, 50, 0
9, 152640, Note_on_c, 3, 45, 76
9, 152759, Note_on_c, 3, 45, 0
9, 153720, Note_on_c, 3, 45, 76
9, 153839, Note_on_c, 3, 45, 0
9, 153840, Note_on_c, 3, 45, 76
9, 153959, Note_on_c, 3, 45, 0
9, 153960, Note_on_c, 3, 45, 76
9, 154079, Note_on_c, 3, 45, 0
9, 154080, Note_on_c, 3, 50, 76
9, 154199, Note_on_c, 3, 50, 0
9, 154920, Note_on_c, 3, 45, 76
9, 155039, Note_on_c, 3, 45, 0
9, 155040, Note_on_c, 3, 50, 76
9, 155159, Note_on_c, 3, 50, 0
9, 155280, Note_on_c, 3, 50, 76
9, 155399, Note_on_c, 3, 50, 0
9, 155520, Note_on_c, 3, 45, 76
9, 155639, Note_on_c, 3, 45, 0
9, 155760, Note_on_c, 3, 45, 76
9, 155879, Note_on_c, 3, 45, 0
9, 155880, Note_on_c, 3, 45, 76
9, 155999, Note_on_c, 3, 45, 0
9, 156000, Note_on_c, 3, 50, 76
9, 156119, Note_on_c, 3, 50, 0
9, 156240, Note_on_c, 3, 45, 76
9, 156359, Note_on_c, 3, 45, 0
9, 156480, Note_on_c, 3, 50, 76
9, 156599, Note_on_c, 3, 50, 0
9, 169560, Note_on_c, 3, 45, 52
9, 169679, Note_on_c, 3, 45, 0
9, 169680, Note_on_c, 3, 45, 52
9, 169799, Note_on_c, 3, 45, 0
9, 169800, Note_on_c, 3, 45, 52
9, 169919, Note_on_c, 3, 45, 0
9, 169920, Note_on_c, 3, 50, 52
9, 170039, Note_on_c, 3, 50, 0
9, 172920, Note_on_c, 3, 45, 52
9, 173039, Note_on_c, 3, 45, 0
9, 173040, Note_on_c, 3, 45, 52
9, 173159, Note_on_c, 3, 45, 0
9, 173160, Note_on_c, 3, 45, 52
9, 173279, Note_on_c, 3, 45, 0
9, 173280, Note_on_c, 3, 50, 52
9, 173399, Note_on_c, 3, 50, 0
9, 176160, Note_on_c, 3, 45, 52
9, 176279, Note_on_c, 3, 45, 0
9, 181440, Note_on_c, 3, 50, 52
9, 181559, Note_on_c, 3, 50, 0
9, 191520, Note_on_c, 3, 45, 49
9, 191549, Note_on_c, 3, 45, 0
9, 191550, Note_on_c, 3, 45, 52
9, 191579, Note_on_c, 3, 45, 0
9, 191580, Note_on_c, 3, 45, 50
9, 191609, Note_on_c, 3, 45, 0
9, 191610, Note_on_c, 3, 45, 54
9, 191639, Note_on_c, 3, 45, 0
9, 191640, Note_on_c, 3, 45, 52
9, 191669, Note_on_c, 3, 45, 0
9, 191670, Note_on_c, 3, 45, 52
9, 191699, Note_on_c, 3, 45, 0
9, 191700, Note_on_c, 3, 45, 51
9, 191729, Note_on_c, 3, 45, 0
9, 191730, Note_on_c, 3, 45, 55
9, 191759, Note_on_c, 3, 45, 0
9, 191760, Note_on_c, 3, 45, 54
9, 191789, Note_on_c, 3, 45, 0
9, 191790, Note_on_c, 3, 45, 53
9, 191819, Note_on_c, 3, 45, 0
9, 191820, Note_on_c, 3, 45, 50
9, 191849, Note_on_c, 3, 45, 0
9, 191850, Note_on_c, 3, 45, 54
9, 191879, Note_on_c, 3, 45, 0
9, 191880, Note_on_c, 3, 45, 53
9, 191909, Note_on_c, 3, 45, 0
9, 191910, Note_on_c, 3, 45, 52
9, 191939, Note_on_c, 3, 45, 0
9, 191940, Note_on_c, 3, 45, 51
9, 191969, Note_on_c, 3, 45, 0
9, 191970, Note_on_c, 3, 45, 49
9, 191999, Note_on_c, 3, 45, 0
9, 192000, Note_on_c, 3, 45, 49
9, 192029, Note_on_c, 3, 45, 0
9, 192030, Note_on_c, 3, 45, 51
9, 192059, Note_on_c, 3, 45, 0
9, 192060, Note_on_c, 3, 45, 50
9, 192089, Note_on_c, 3, 45, 0
9, 192090, Note_on_c, 3, 45, 50
9, 192119, Note_on_c, 3, 45, 0
9, 192120, Note_on_c, 3, 45, 55
9, 192149, Note_on_c, 3, 45, 0
9, 192150, Note_on_c, 3, 45, 52
9, 192179, Note_on_c, 3, 45, 0
9, 192180, Note_on_c, 3, 45, 49
9, 192209, Note_on_c, 3, 45, 0
9, 192210, Note_on_c, 3, 45, 49
9, 192239, Note_on_c, 3, 45, 0
9, 192240, Note_on_c, 3, 45, 49
9, 192269, Note_on_c, 3, 45, 0
9, 192270, Note_on_c, 3, 45, 52
9, 192299, Note_on_c, 3, 45, 0
9, 192300, Note_on_c, 3, 45, 52
9, 192329, Note_on_c, 3, 45, 0
9, 192330, Note_on_c, 3, 45, 52
9, 192359, Note_on_c, 3, 45, 0
9, 192360, Note_on_c, 3, 45, 52
9, 192389, Note_on_c, 3, 45, 0
9, 192390, Note_on_c, 3, 45, 52
9, 192419, Note_on_c, 3, 45, 0
9, 192420, Note_on_c, 3, 45, 50
9, 192449, Note_on_c, 3, 45, 0
9, 192450, Note_on_c, 3, 45, 53
9, 192479, Note_on_c, 3, 45, 0
9, 192480, Note_on_c, 3, 45, 52
9, 192509, Note_on_c, 3, 45, 0
9, 192510, Note_on_c, 3, 45, 51
9, 192539, Note_on_c, 3, 45, 0
9, 192540, Note_on_c, 3, 45, 49
9, 192569, Note_on_c, 3, 45, 0
9, 192570, Note_on_c, 3, 45, 52
9, 192599, Note_on_c, 3, 45, 0
9, 192600, Note_on_c, 3, 45, 54
9, 192629, Note_on_c, 3, 45, 0
9, 192630, Note_on_c, 3, 45, 54
9, 192659, Note_on_c, 3, 45, 0
9, 192660, Note_on_c, 3, 45, 52
9, 192689, Note_on_c, 3, 45, 0
9, 192690, Note_on_c, 3, 45, 51
9, 192719, Note_on_c, 3, 45, 0
9, 192720, Note_on_c, 3, 45, 55
9, 192749, Note_on_c, 3, 45, 0
9, 192750, Note_on_c, 3, 45, 53
9, 192779, Note_on_c, 3, 45, 0
9, 192780, Note_on_c, 3, 45, 55
9, 192809, Note_on_c, 3, 45, 0
9, 192810, Note_on_c, 3, 45, 55
9, 192839, Note_on_c, 3, 45, 0
9, 192840, Note_on_c, 3, 45, 52
9, 192869, Note_on_c, 3, 45, 0
9, 192870, Note_on_c, 3, 45, 50
9, 192899, Note_on_c, 3, 45, 0
9, 192900, Note_on_c, 3, 45, 52
9, 192929, Note_on_c, 3, 45, 0
9, 192930, Note_on_c, 3, 45, 50
9, 192959, Note_on_c, 3, 45, 0
9, 192960, Note_on_c, 3, 45, 54
9, 192989, Note_on_c, 3, 45, 0
9, 192990, Note_on_c, 3, 45, 50
9, 193019, Note_on_c, 3, 45, 0
9, 193020, Note_on_c, 3, 45, 54
9, 193049, Note_on_c, 3, 45, 0
9, 193050, Note_on_c, 3, 45, 54
9, 193079, Note_on_c, 3, 45, 0
9, 193080, Note_on_c, 3, 45, 55
9, 193109, Note_on_c, 3, 45, 0
9, 193110, Note_on_c, 3, 45, 55
9, 193139, Note_on_c, 3, 45, 0
9, 193140, Note_on_c, 3, 45, 52
9, 193169, Note_on_c, 3, 45, 0
9, 193170, Note_on_c, 3, 45, 52
9, 193199, Note_on_c, 3, 45, 0
9, 193200, Note_on_c, 3, 45, 51
9, 193229, Note_on_c, 3, 45, 0
9, 193230, Note_on_c, 3, 45, 51
9, 193259, Note_on_c, 3, 45, 0
9, 193260, Note_on_c, 3, 45, 54
9, 193289, Note_on_c, 3, 45, 0
9, 193290, Note_on_c, 3, 45, 49
9, 193319, Note_on_c, 3, 45, 0
9, 193320, Note_on_c, 3, 45, 52
9, 193349, Note_on_c, 3, 45, 0
9, 193350, Note_on_c, 3, 45, 49
9, 193379, Note_on_c, 3, 45, 0
9, 193380, Note_on_c, 3, 45, 53
9, 193409, Note_on_c, 3, 45, 0
9, 193410, Note_on_c, 3, 45, 49
9, 193439, Note_on_c, 3, 45, 0
9, 193440, Note_on_c, 3, 45, 52
9, 193559, Note_on_c, 3, 45, 0
9, 197880, Note_on_c, 3, 45, 52
9, 197999, Note_on_c, 3, 45, 0
9, 198000, Note_on_c, 3, 45, 52
9, 198119, Note_on_c, 3, 45, 0
9, 198120, Note_on_c, 3, 45, 52
9, 198239, Note_on_c, 3, 45, 0
9, 198240, Note_on_c, 3, 50, 49
9, 198269, Note_on_c, 3, 50, 0
9, 198270, Note_on_c, 3, 50, 55
9, 198299, Note_on_c, 3, 50, 0
9, 198300, Note_on_c, 3, 50, 51
9, 198329, Note_on_c, 3, 50, 0
9, 198330, Note_on_c, 3, 50, 51
9, 198359, Note_on_c, 3, 50, 0
9, 198360, Note_on_c, 3, 50, 52
9, 198389, Note_on_c, 3, 50, 0
9, 198390, Note_on_c, 3, 50, 53
9, 198419, Note_on_c, 3, 50, 0
9, 198420, Note_on_c, 3, 50, 54
9, 198449, Note_on_c, 3, 50, 0
9, 198450, Note_on_c, 3, 50, 53
9, 198479, Note_on_c, 3, 50, 0
9, 198480, Note_on_c, 3, 50, 52
9, 198509, Note_on_c, 3, 50, 0
9, 198510, Note_on_c, 3, 50, 50
9, 198539, Note_on_c, 3, 50, 0
9, 198540, Note_on_c, 3, 50, 53
9, 198569, Note_on_c, 3, 50, 0
9, 198570, Note_on_c, 3, 50, 52
9, 198599, Note_on_c, 3, 50, 0
9, 198600, Note_on_c, 3, 50, 52
9, 198629, Note_on_c, 3, 50, 0
9, 198630, Note_on_c, 3, 50, 55
9, 198659, Note_on_c, 3, 50, 0
9, 198660, Note_on_c, 3, 50, 53
9, 198689, Note_on_c, 3, 50, 0
9, 198690, Note_on_c, 3, 50, 49
9, 198719, Note_on_c, 3, 50, 0
9, 198720, Note_on_c, 3, 50, 52
9, 198749, Note_on_c, 3, 50, 0
9, 198750, Note_on_c, 3, 50, 52
9, 198779, Note_on_c, 3, 50, 0
9, 198780, Note_on_c, 3, 50, 53
9, 198809, Note_on_c, 3, 50, 0
9, 198810, Note_on_c, 3, 50, 52
9, 198839, Note_on_c, 3, 50, 0
9, 198840, Note_on_c, 3, 50, 52
9, 198869, Note_on_c, 3, 50, 0
9, 198870, Note_on_c, 3, 50, 51
9, 198899, Note_on_c, 3, 50, 0
9, 198900, Note_on_c, 3, 50, 50
9, 198929, Note_on_c, 3, 50, 0
9, 198930, Note_on_c, 3, 50, 50
9, 198959, Note_on_c, 3, 50, 0
9, 198960, Note_on_c, 3, 50, 52
9, 198989, Note_on_c, 3, 50, 0
9, 198990, Note_on_c, 3, 50, 54
9, 199019, Note_on_c, 3, 50, 0
9, 199020, Note_on_c, 3, 50, 52
9, 199049, Note_on_c, 3, 50, 0
9, 199050, Note_on_c, 3, 50, 55
9, 199079, Note_on_c, 3, 50, 0
9, 199080, Note_on_c, 3, 50, 54
9, 199109, Note_on_c, 3, 50, 0
9, 199110, Note_on_c, 3, 50, 51
9, 199139, Note_on_c, 3, 50, 0
9, 199140, Note_on_c, 3, 50, 50
9, 199169, Note_on_c, 3, 50, 0
9, 199170, Note_on_c, 3, 50, 53
9, 199199, Note_on_c, 3, 50, 0
9, 199200, Note_on_c, 3, 50, 52
9, 199229, Note_on_c, 3, 50, 0
9, 199230, Note_on_c, 3, 50, 49
9, 199259, Note_on_c, 3, 50, 0
9, 199260, Note_on_c, 3, 50, 53
9, 199289, Note_on_c, 3, 50, 0
9, 199290, Note_on_c, 3, 50, 52
9, 199319, Note_on_c, 3, 50, 0
9, 199320, Note_on_c, 3, 50, 50
9, 199349, Note_on_c, 3, 50, 0
9, 199350, Note_on_c, 3, 50, 55
9, 199379, Note_on_c, 3, 50, 0
9, 199380, Note_on_c, 3, 50, 50
9, 199409, Note_on_c, 3, 50, 0
9, 199410, Note_on_c, 3, 50, 55
9, 199439, Note_on_c, 3, 50, 0
9, 199440, Note_on_c, 3, 50, 53
9, 199469, Note_on_c, 3, 50, 0
9, 199470, Note_on_c, 3, 50, 51
9, 199499, Note_on_c, 3, 50, 0
9, 199500, Note_on_c, 3, 50, 52
9, 199529, Note_on_c, 3, 50, 0
9, 199530, Note_on_c, 3, 50, 49
9, 199559, Note_on_c, 3, 50, 0
9, 199560, Note_on_c, 3, 50, 55
9, 199589, Note_on_c, 3, 50, 0
9, 199590, Note_on_c, 3, 50, 53
9, 199619, Note_on_c, 3, 50, 0
9, 199620, Note_on_c, 3, 50, 50
9, 199649, Note_on_c, 3, 50, 0
9, 199650, Note_on_c, 3, 50, 52
9, 199679, Note_on_c, 3, 50, 0
9, 199680, Note_on_c, 3, 50, 52
9, 199799, Note_on_c, 3, 50, 0
9, 201720, Note_on_c, 3, 45, 52
9, 201779, Note_on_c, 3, 45, 0
9, 201840, Note_on_c, 3, 45, 52
9, 201899, Note_on_c, 3, 45, 0
9, 201960, Note_on_c, 3, 45, 52
9, 202019, Note_on_c, 3, 45, 0
9, 202080, Note_on_c, 3, 45, 52
9, 202139, Note_on_c, 3, 45, 0
9, 202200, Note_on_c, 3, 45, 52
9, 202259, Note_on_c, 3, 45, 0
9, 202320, Note_on_c, 3, 45, 52
9, 202379, Note_on_c, 3, 45, 0
9, 202440, Note_on_c, 3, 45, 52
9, 202499, Note_on_c, 3, 45, 0
9, 202560, Note_on_c, 3, 45, 52
9, 202619, Note_on_c, 3, 45, 0
9, 202680, Note_on_c, 3, 45, 52
9, 202739, Note_on_c, 3, 45, 0
9, 202800, Note_on_c, 3, 45, 52
9, 202859, Note_on_c, 3, 45, 0
9, 202920, Note_on_c, 3, 45, 52
9, 202979, Note_on_c, 3, 45, 0
9, 203040, Note_on_c, 3, 50, 52
9, 203159, Note_on_c, 3, 50, 0
9, 203400, Note_on_c, 3, 50, 52
9, 203459, Note_on_c, 3, 50, 0
9, 203460, Note_on_c, 3, 50, 52
9, 203519, Note_on_c, 3, 50, 0
9, 203520, Note_on_c, 3, 50, 52
9, 203639, Note_on_c, 3, 50, 0
9, 203880, Note_on_c, 3, 50, 52
9, 203939, Note_on_c, 3, 50, 0
9, 203940, Note_on_c, 3, 50, 52
9, 203999, Note_on_c, 3, 50, 0
9, 204000, Note_on_c, 3, 50, 52
9, 204119, Note_on_c, 3, 50, 0
9, 204120, Note_on_c, 3, 50, 52
9, 204239, Note_on_c, 3, 50, 0
9, 204240, Note_on_c, 3, 50, 52
9, 204359, Note_on_c, 3, 50, 0
9, 204360, Note_on_c, 3, 50, 52
9, 204479, Note_on_c, 3, 50, 0
9, 204480, Note_on_c, 3, 50, 52
9, 204599, Note_on_c, 3, 50, 0
9, 207960, Note_on_c, 3, 50, 52
9, 208079, Note_on_c, 3, 50, 0
9, 208080, Note_on_c, 3, 50, 52
9, 208199, Note_on_c, 3, 50, 0
9, 208200, Note_on_c, 3, 50, 52
9, 208319, Note_on_c, 3, 50, 0
9, 208320, Note_on_c, 3, 50, 52
9, 208439, Note_on_c, 3, 50, 0
9, 209400, Note_on_c, 3, 50, 52
9, 209519, Note_on_c, 3, 50, 0
9, 209520, Note_on_c, 3, 50, 52
9, 209639, Note_on_c, 3, 50, 0
9, 209640, Note_on_c, 3, 50, 52
9, 209759, Note_on_c, 3, 50, 0
9, 209760, Note_on_c, 3, 45, 52
9, 209879, Note_on_c, 3, 45, 0
9, 213240, Note_on_c, 3, 50, 52
9, 213359, Note_on_c, 3, 50, 0
9, 213360, Note_on_c, 3, 50, 52
9, 213479, Note_on_c, 3, 50, 0
9, 213480, Note_on_c, 3, 50, 52
9, 213599, Note_on_c, 3, 50, 0
9, 213600, Note_on_c, 3, 50, 52
9, 213719, Note_on_c, 3, 50, 0
9, 214080, Note_on_c, 3, 45, 52
9, 214199, Note_on_c, 3, 45, 0
9, 214680, Note_on_c, 3, 45, 52
9, 214799, Note_on_c, 3, 45, 0
9, 214800, Note_on_c, 3, 50, 52
9, 214919, Note_on_c, 3, 50, 0
9, 214920, Note_on_c, 3, 50, 52
9, 215039, Note_on_c, 3, 50, 0
9, 215040, Note_on_c, 3, 45, 52
9, 215159, Note_on_c, 3, 45, 0
9, 216120, Note_on_c, 3, 45, 52
9, 216239, Note_on_c, 3, 45, 0
9, 216240, Note_on_c, 3, 45, 52
9, 216359, Note_on_c, 3, 45, 0
9, 216360, Note_on_c, 3, 45, 52
9, 216479, Note_on_c, 3, 45, 0
9, 216480, Note_on_c, 3, 50, 52
9, 216599, Note_on_c, 3, 50, 0
9, 217320, Note_on_c, 3, 45, 52
9, 217439, Note_on_c, 3, 45, 0
9, 217440, Note_on_c, 3, 50, 52
9, 217559, Note_on_c, 3, 50, 0
9, 217680, Note_on_c, 3, 50, 52
9, 217799, Note_on_c, 3, 50, 0
9, 217920, Note_on_c, 3, 45, 52
9, 218039, Note_on_c, 3, 45, 0
9, 218160, Note_on_c, 3, 45, 52
9, 218279, Note_on_c, 3, 45, 0
9, 218280, Note_on_c, 3, 45, 52
9, 218399, Note_on_c, 3, 45, 0
9, 218400, Note_on_c, 3, 50, 52
9, 218519, Note_on_c, 3, 50, 0
9, 218640, Note_on_c, 3, 45, 52
9, 218759, Note_on_c, 3, 45, 0
9, 218880, Note_on_c, 3, 50, 72
9, 218894, Note_on_c, 3, 50, 0
9, 218895, Note_on_c, 3, 50, 76
9, 218909, Note_on_c, 3, 50, 0
9, 218910, Note_on_c, 3, 50, 73
9, 218924, Note_on_c, 3, 50, 0
9, 218925, Note_on_c, 3, 50, 77
9, 218939, Note_on_c, 3, 50, 0
9, 218940, Note_on_c, 3, 50, 76
9, 218954, Note_on_c, 3, 50, 0
9, 218955, Note_on_c, 3, 50, 75
9, 218969, Note_on_c, 3, 50, 0
9, 218970, Note_on_c, 3, 50, 74
9, 218984, Note_on_c, 3, 50, 0
9, 218985, Note_on_c, 3, 50, 78
9, 218999, Note_on_c, 3, 50, 0
9, 219000, Note_on_c, 3, 50, 77
9, 219014, Note_on_c, 3, 50, 0
9, 219015, Note_on_c, 3, 50, 76
9, 219029, Note_on_c, 3, 50, 0
9, 219030, Note_on_c, 3, 50, 73
9, 219044, Note_on_c, 3, 50, 0
9, 219045, Note_on_c, 3, 50, 77
9, 219059, Note_on_c, 3, 50, 0
9, 219060, Note_on_c, 3, 50, 76
9, 219074, Note_on_c, 3, 50, 0
9, 219075, Note_on_c, 3, 50, 76
9, 219089, Note_on_c, 3, 50, 0
9, 219090, Note_on_c, 3, 50, 74
9, 219104, Note_on_c, 3, 50, 0
9, 219105, Note_on_c, 3, 50, 72
9, 219119, Note_on_c, 3, 50, 0
9, 219120, Note_on_c, 3, 50, 72
9, 219134, Note_on_c, 3, 50, 0
9, 219135, Note_on_c, 3, 50, 74
9, 219149, Note_on_c, 3, 50, 0
9, 219150, Note_on_c, 3, 50, 73
9, 219164, Note_on_c, 3, 50, 0
9, 219165, Note_on_c, 3, 50, 73
9, 219179, Note_on_c, 3, 50, 0
9, 219180, Note_on_c, 3, 50, 78
9, 219194, Note_on_c, 3, 50, 0
9, 219195, Note_on_c, 3, 50, 75
9, 219209, Note_on_c, 3, 50, 0
9, 219210, Note_on_c, 3, 50, 72
9, 219224, Note_on_c, 3, 50, 0
9, 219225, Note_on_c, 3, 50, 72
9, 219239, Note_on_c, 3, 50, 0
9, 219240, Note_on_c, 3, 50, 72
9, 219254, Note_on_c, 3, 50, 0
9, 219255, Note_on_c, 3, 50, 75
9, 219269, Note_on_c, 3, 50, 0
9, 219270, Note_on_c, 3, 50, 76
9, 219284, Note_on_c, 3, 50, 0
9, 219285, Note_on_c, 3, 50, 76
9, 219299, Note_on_c, 3, 50, 0
9, 219300, Note_on_c, 3, 50, 76
9, 219314, Note_on_c, 3, 50, 0
9, 219315, Note_on_c, 3, 50, 76
9, 219329, Note_on_c, 3, 50, 0
9, 219330, Note_on_c, 3, 50, 73
9, 219344, Note_on_c, 3, 50, 0
9, 219345, Note_on_c, 3, 50, 76
9, 219359, Note_on_c, 3, 50, 0
9, 219360, Note_on_c, 3, 50, 75
9, 219374, Note_on_c, 3, 50, 0
9, 219375, Note_on_c, 3, 50, 74
9, 219389, Note_on_c, 3, 50, 0
9, 219390, Note_on_c, 3, 50, 72
9, 219404, Note_on_c, 3, 50, 0
9, 219405, Note_on_c, 3, 50, 76
9, 219419, Note_on_c, 3, 50, 0
9, 219420, Note_on_c, 3, 50, 77
9, 219434, Note_on_c, 3, 50, 0
9, 219435, Note_on_c, 3, 50, 77
9, 219449, Note_on_c, 3, 50, 0
9, 219450, Note_on_c, 3, 50, 76
9, 219464, Note_on_c, 3, 50, 0
9, 219465, Note_on_c, 3, 50, 74
9, 219479, Note_on_c, 3, 50, 0
9, 219480, Note_on_c, 3, 50, 78
9, 219494, Note_on_c, 3, 50, 0
9, 219495, Note_on_c, 3, 50, 76
9, 219509, Note_on_c, 3, 50, 0
9, 219510, Note_on_c, 3, 50, 78
9, 219524, Note_on_c, 3, 50, 0
9, 219525, Note_on_c, 3, 50, 78
9, 219539, Note_on_c, 3, 50, 0
9, 219540, Note_on_c, 3, 50, 76
9, 219554, Note_on_c, 3, 50, 0
9, 219555, Note_on_c, 3, 50, 73
9, 219569, Note_on_c, 3, 50, 0
9, 219570, Note_on_c, 3, 50, 75
9, 219584, Note_on_c, 3, 50, 0
9, 219585, Note_on_c, 3, 50, 73
9, 219599, Note_on_c, 3, 50, 0
9, 219600, Note_on_c, 3, 50, 77
9, 219614, Note_on_c, 3, 50, 0
9, 219615, Note_on_c, 3, 50, 73
9, 219629, Note_on_c, 3, 50, 0
9, 219630, Note_on_c, 3, 50, 77
9, 219644, Note_on_c, 3, 50, 0
9, 219645, Note_on_c, 3, 50, 77
9, 219659, Note_on_c, 3, 50, 0
9, 219660, Note_on_c, 3, 50, 78
9, 219674, Note_on_c, 3, 50, 0
9, 219675, Note_on_c, 3, 50, 78
9, 219689, Note_on_c, 3, 50, 0
9, 219690, Note_on_c, 3, 50, 76
9, 219704, Note_on_c, 3, 50, 0
9, 219705, Note_on_c, 3, 50, 75
9, 219719, Note_on_c, 3, 50, 0
9, 219720, Note_on_c, 3, 50, 74
9, 219734, Note_on_c, 3, 50, 0
9, 219735, Note_on_c, 3, 50, 74
9, 219749, Note_on_c, 3, 50, 0
9, 219750, Note_on_c, 3, 50, 77
9, 219764, Note_on_c, 3, 50, 0
9, 219765, Note_on_c, 3, 50, 72
9, 219779, Note_on_c, 3, 50, 0
9, 219780, Note_on_c, 3, 50, 75
9, 219794, Note_on_c, 3, 50, 0
9, 219795, Note_on_c, 3, 50, 72
9, 219809, Note_on_c, 3, 50, 0
9, 219810, Note_on_c, 3, 50, 76
9, 219824, Note_on_c, 3, 50, 0
9, 219825, Note_on_c, 3, 50, 72
9, 219839, Note_on_c, 3, 50, 0
9, 219840, Note_on_c, 3, 50, 72
9, 219854, Note_on_c, 3, 50, 0
9, 219855, Note_on_c, 3, 50, 78
9, 219869, Note_on_c, 3, 50, 0
9, 219870, Note_on_c, 3, 50, 74
9, 219884, Note_on_c, 3, 50, 0
9, 219885, Note_on_c, 3, 50, 74
9, 219899, Note_on_c, 3, 50, 0
9, 219900, Note_on_c, 3, 50, 76
9, 219914, Note_on_c, 3, 50, 0
9, 219915, Note_on_c, 3, 50, 76
9, 219929, Note_on_c, 3, 50, 0
9, 219930, Note_on_c, 3, 50, 77
9, 219944, Note_on_c, 3, 50, 0
9, 219945, Note_on_c, 3, 50, 76
9, 219959, Note_on_c, 3, 50, 0
9, 219960, Note_on_c, 3, 50, 75
9, 219974, Note_on_c, 3, 50, 0
9, 219975, Note_on_c, 3, 50, 73
9, 219989, Note_on_c, 3, 50, 0
9, 219990, Note_on_c, 3, 50, 76
9, 220004, Note_on_c, 3, 50, 0
9, 220005, Note_on_c, 3, 50, 75
9, 220019, Note_on_c, 3, 50, 0
9, 220020, Note_on_c, 3, 50, 75
9, 220034, Note_on_c, 3, 50, 0
9, 220035, Note_on_c, 3, 50, 78
9, 220049, Note_on_c, 3, 50, 0
9, 220050, Note_on_c, 3, 50, 76
9, 220064, Note_on_c, 3, 50, 0
9, 220065, Note_on_c, 3, 50, 72
9, 220079, Note_on_c, 3, 50, 0
9, 220080, Note_on_c, 3, 50, 76
9, 220094, Note_on_c, 3, 50, 0
9, 220095, Note_on_c, 3, 50, 75
9, 220109, Note_on_c, 3, 50, 0
9, 220110, Note_on_c, 3, 50, 76
9, 220124, Note_on_c, 3, 50, 0
9, 220125, Note_on_c, 3, 50, 76
9, 220139, Note_on_c, 3, 50, 0
9, 220140, Note_on_c, 3, 50, 76
9, 220154, Note_on_c, 3, 50, 0
9, 220155, Note_on_c, 3, 50, 74
9, 220169, Note_on_c, 3, 50, 0
9, 220170, Note_on_c, 3, 50, 73
9, 220184, Note_on_c, 3, 50, 0
9, 220185, Note_on_c, 3, 50, 73
9, 220199, Note_on_c, 3, 50, 0
9, 220200, Note_on_c, 3, 50, 75
9, 220214, Note_on_c, 3, 50, 0
9, 220215, Note_on_c, 3, 50, 77
9, 220229, Note_on_c, 3, 50, 0
9, 220230, Note_on_c, 3, 50, 76
9, 220244, Note_on_c, 3, 50, 0
9, 220245, Note_on_c, 3, 50, 78
9, 220259, Note_on_c, 3, 50, 0
9, 220260, Note_on_c, 3, 50, 77
9, 220274, Note_on_c, 3, 50, 0
9, 220275, Note_on_c, 3, 50, 74
9, 220289, Note_on_c, 3, 50, 0
9, 220290, Note_on_c, 3, 50, 73
9, 220304, Note_on_c, 3, 50, 0
9, 220305, Note_on_c, 3, 50, 76
9, 220319, Note_on_c, 3, 50, 0
9, 220320, Note_on_c, 3, 50, 75
9, 220334, Note_on_c, 3, 50, 0
9, 220335, Note_on_c, 3, 50, 72
9, 220349, Note_on_c, 3, 50, 0
9, 220350, Note_on_c, 3, 50, 76
9, 220364, Note_on_c, 3, 50, 0
9, 220365, Note_on_c, 3, 50, 76
9, 220379, Note_on_c, 3, 50, 0
9, 220380, Note_on_c, 3, 50, 73
9, 220394, Note_on_c, 3, 50, 0
9, 220395, Note_on_c, 3, 50, 78
9, 220409, Note_on_c, 3, 50, 0
9, 220410, Note_on_c, 3, 50, 73
9, 220424, Note_on_c, 3, 50, 0
9, 220425, Note_on_c, 3, 50, 78
9, 220439, Note_on_c, 3, 50, 0
9, 220440, Note_on_c, 3, 50, 76
9, 220454, Note_on_c, 3, 50, 0
9, 220455, Note_on_c, 3, 50, 74
9, 220469, Note_on_c, 3, 50, 0
9, 220470, Note_on_c, 3, 50, 75
9, 220484, Note_on_c, 3, 50, 0
9, 220485, Note_on_c, 3, 50, 72
9, 220499, Note_on_c, 3, 50, 0
9, 220500, Note_on_c, 3, 50, 78
9, 220514, Note_on_c, 3, 50, 0
9, 220515, Note_on_c, 3, 50, 76
9, 220529, Note_on_c, 3, 50, 0
9, 220530, Note_on_c, 3, 50, 73
9, 220544, Note_on_c, 3, 50, 0
9, 220545, Note_on_c, 3, 50, 78
9, 220559, Note_on_c, 3, 50, 0
9, 220560, Note_on_c, 3, 50, 77
9, 220574, Note_on_c, 3, 50, 0
9, 220575, Note_on_c, 3, 50, 76
9, 220589, Note_on_c, 3, 50, 0
9, 220590, Note_on_c, 3, 50, 73
9, 220604, Note_on_c, 3, 50, 0
9, 220605, Note_on_c, 3, 50, 73
9, 220619, Note_on_c, 3, 50, 0
9, 220620, Note_on_c, 3, 50, 77
9, 220634, Note_on_c, 3, 50, 0
9, 220635, Note_on_c, 3, 50, 75
9, 220649, Note_on_c, 3, 50, 0
9, 220650, Note_on_c, 3, 50, 73
9, 220664, Note_on_c, 3, 50, 0
9, 220665, Note_on_c, 3, 50, 76
9, 220679, Note_on_c, 3, 50, 0
9, 220680, Note_on_c, 3, 50, 76
9, 220694, Note_on_c, 3, 50, 0
9, 220695, Note_on_c, 3, 50, 75
9, 220709, Note_on_c, 3, 50, 0
9, 220710, Note_on_c, 3, 50, 74
9, 220724, Note_on_c, 3, 50, 0
9, 220725, Note_on_c, 3, 50, 76
9, 220739, Note_on_c, 3, 50, 0
9, 220740, Note_on_c, 3, 50, 76
9, 220754, Note_on_c, 3, 50, 0
9, 220755, Note_on_c, 3, 50, 77
9, 220769, Note_on_c, 3, 50, 0
9, 220770, Note_on_c, 3, 50, 76
9, 220784, Note_on_c, 3, 50, 0
9, 220785, Note_on_c, 3, 50, 75
9, 220799, Note_on_c, 3, 50, 0
9, 220800, Note_on_c, 3, 50, 72
9, 220814, Note_on_c, 3, 50, 0
9, 220815, Note_on_c, 3, 50, 74
9, 220829, Note_on_c, 3, 50, 0
9, 220830, Note_on_c, 3, 50, 77
9, 220844, Note_on_c, 3, 50, 0
9, 220845, Note_on_c, 3, 50, 72
9, 220859, Note_on_c, 3, 50, 0
9, 220860, Note_on_c, 3, 50, 76
9, 220874, Note_on_c, 3, 50, 0
9, 220875, Note_on_c, 3, 50, 76
9, 220889, Note_on_c, 3, 50, 0
9, 220890, Note_on_c, 3, 50, 75
9, 220904, Note_on_c, 3, 50, 0
9, 220905, Note_on_c, 3, 50, 72
9, 220919, Note_on_c, 3, 50, 0
9, 220920, Note_on_c, 3, 50, 78
9, 220934, Note_on_c, 3, 50, 0
9, 220935, Note_on_c, 3, 50, 78
9, 220949, Note_on_c, 3, 50, 0
9, 220950, Note_on_c, 3, 50, 76
9, 220964, Note_on_c, 3, 50, 0
9, 220965, Note_on_c, 3, 50, 74
9, 220979, Note_on_c, 3, 50, 0
9, 220980, Note_on_c, 3, 50, 75
9, 220994, Note_on_c, 3, 50, 0
9, 220995, Note_on_c, 3, 50, 74
9, 221009, Note_on_c, 3, 50, 0
9, 221010, Note_on_c, 3, 50, 77
9, 221024, Note_on_c, 3, 50, 0
9, 221025, Note_on_c, 3, 50, 74
9, 221039, Note_on_c, 3, 50, 0
9, 221040, Note_on_c, 3, 50, 76
9, 221099, Note_on_c, 3, 50, 0
9, 221100, Note_on_c, 3, 50, 76
9, 221159, Note_on_c, 3, 50, 0
9, 221160, Note_on_c, 3, 50, 76
9, 221219, Note_on_c, 3, 50, 0
9, 221220, Note_on_c, 3, 50, 76
9, 221279, Note_on_c, 3, 50, 0
9, 221280, Note_on_c, 3, 50, 76
9, 221459, Note_on_c, 3, 50, 0
9, 221460, Note_on_c, 3, 50, 76
9, 221519, Note_on_c, 3, 50, 0
9, 221520, Note_on_c, 3, 50, 76
9, 221699, Note_on_c, 3, 50, 0
9, 221700, Note_on_c, 3, 50, 76
9, 221759, Note_on_c, 3, 50, 0
9, 221760, Note_on_c, 3, 50, 76
9, 221999, Note_on_c, 3, 50, 0
9, 229440, Note_on_c, 3, 50, 75
9, 229454, Note_on_c, 3, 50, 0
9, 229455, Note_on_c, 3, 50, 74
9, 229469, Note_on_c, 3, 50, 0
9, 229470, Note_on_c, 3, 50, 78
9, 229484, Note_on_c, 3, 50, 0
9, 229485, Note_on_c, 3, 50, 74
9, 229499, Note_on_c, 3, 50, 0
9, 229500, Note_on_c, 3, 50, 76
9, 229514, Note_on_c, 3, 50, 0
9, 229515, Note_on_c, 3, 50, 76
9, 229529, Note_on_c, 3, 50, 0
9, 229530, Note_on_c, 3, 50, 73
9, 229544, Note_on_c, 3, 50, 0
9, 229545, Note_on_c, 3, 50, 77
9, 229559, Note_on_c, 3, 50, 0
9, 229560, Note_on_c, 3, 50, 77
9, 229574, Note_on_c, 3, 50, 0
9, 229575, Note_on_c, 3, 50, 75
9, 229589, Note_on_c, 3, 50, 0
9, 229590, Note_on_c, 3, 50, 76
9, 229604, Note_on_c, 3, 50, 0
9, 229605, Note_on_c, 3, 50, 78
9, 229619, Note_on_c, 3, 50, 0
9, 229620, Note_on_c, 3, 50, 72
9, 229634, Note_on_c, 3, 50, 0
9, 229635, Note_on_c, 3, 50, 78
9, 229649, Note_on_c, 3, 50, 0
9, 229650, Note_on_c, 3, 50, 76
9, 229664, Note_on_c, 3, 50, 0
9, 229665, Note_on_c, 3, 50, 72
9, 229679, Note_on_c, 3, 50, 0
9, 229680, Note_on_c, 3, 50, 76
9, 229694, Note_on_c, 3, 50, 0
9, 229695, Note_on_c, 3, 50, 73
9, 229709, Note_on_c, 3, 50, 0
9, 229710, Note_on_c, 3, 50, 77
9, 229724, Note_on_c, 3, 50, 0
9, 229725, Note_on_c, 3, 50, 76
9, 229739, Note_on_c, 3, 50, 0
9, 229740, Note_on_c, 3, 50, 76
9, 229754, Note_on_c, 3, 50, 0
9, 229755, Note_on_c, 3, 50, 73
9, 229769, Note_on_c, 3, 50, 0
9, 229770, Note_on_c, 3, 50, 77
9, 229784, Note_on_c, 3, 50, 0
9, 229785, Note_on_c, 3, 50, 72
9, 229799, Note_on_c, 3, 50, 0
9, 229800, Note_on_c, 3, 50, 72
9, 229814, Note_on_c, 3, 50, 0
9, 229815, Note_on_c, 3, 50, 76
9, 229829, Note_on_c, 3, 50, 0
9, 229830, Note_on_c, 3, 50, 74
9, 229844, Note_on_c, 3, 50, 0
9, 229845, Note_on_c, 3, 50, 78
9, 229859, Note_on_c, 3, 50, 0
9, 229860, Note_on_c, 3, 50, 74
9, 229874, Note_on_c, 3, 50, 0
9, 229875, Note_on_c, 3, 50, 74
9, 229889, Note_on_c, 3, 50, 0
9, 229890, Note_on_c, 3, 50, 73
9, 229904, Note_on_c, 3, 50, 0
9, 229905, Note_on_c, 3, 50, 76
9, 229919, Note_on_c, 3, 50, 0
9, 229920, Note_on_c, 3, 50, 77
9, 229934, Note_on_c, 3, 50, 0
9, 229935, Note_on_c, 3, 50, 76
9, 229949, Note_on_c, 3, 50, 0
9, 229950, Note_on_c, 3, 50, 76
9, 229964, Note_on_c, 3, 50, 0
9, 229965, Note_on_c, 3, 50, 76
9, 229979, Note_on_c, 3, 50, 0
9, 229980, Note_on_c, 3, 50, 74
9, 229994, Note_on_c, 3, 50, 0
9, 229995, Note_on_c, 3, 50, 73
9, 230009, Note_on_c, 3, 50, 0
9, 230010, Note_on_c, 3, 50, 72
9, 230024, Note_on_c, 3, 50, 0
9, 230025, Note_on_c, 3, 50, 72
9, 230039, Note_on_c, 3, 50, 0
9, 230040, Note_on_c, 3, 50, 77
9, 230054, Note_on_c, 3, 50, 0
9, 230055, Note_on_c, 3, 50, 77
9, 230069, Note_on_c, 3, 50, 0
9, 230070, Note_on_c, 3, 50, 73
9, 230084, Note_on_c, 3, 50, 0
9, 230085, Note_on_c, 3, 50, 72
9, 230099, Note_on_c, 3, 50, 0
9, 230100, Note_on_c, 3, 50, 76
9, 230114, Note_on_c, 3, 50, 0
9, 230115, Note_on_c, 3, 50, 72
9, 230129, Note_on_c, 3, 50, 0
9, 230130, Note_on_c, 3, 50, 72
9, 230144, Note_on_c, 3, 50, 0
9, 230145, Note_on_c, 3, 50, 75
9, 230159, Note_on_c, 3, 50, 0
9, 230160, Note_on_c, 3, 50, 77
9, 230174, Note_on_c, 3, 50, 0
9, 230175, Note_on_c, 3, 50, 76
9, 230189, Note_on_c, 3, 50, 0
9, 230190, Note_on_c, 3, 50, 76
9, 230204, Note_on_c, 3, 50, 0
9, 230205, Note_on_c, 3, 50, 72
9, 230219, Note_on_c, 3, 50, 0
9, 230220, Note_on_c, 3, 50, 75
9, 230234, Note_on_c, 3, 50, 0
9, 230235, Note_on_c, 3, 50, 73
9, 230249, Note_on_c, 3, 50, 0
9, 230250, Note_on_c, 3, 50, 76
9, 230264, Note_on_c, 3, 50, 0
9, 230265, Note_on_c, 3, 50, 74
9, 230279, Note_on_c, 3, 50, 0
9, 230280, Note_on_c, 3, 50, 75
9, 230294, Note_on_c, 3, 50, 0
9, 230295, Note_on_c, 3, 50, 73
9, 230309, Note_on_c, 3, 50, 0
9, 230310, Note_on_c, 3, 50, 76
9, 230324, Note_on_c, 3, 50, 0
9, 230325, Note_on_c, 3, 50, 76
9, 230339, Note_on_c, 3, 50, 0
9, 230340, Note_on_c, 3, 50, 76
9, 230354, Note_on_c, 3, 50, 0
9, 230355, Note_on_c, 3, 50, 73
9, 230369, Note_on_c, 3, 50, 0
9, 230370, Note_on_c, 3, 50, 76
9, 230384, Note_on_c, 3, 50, 0
9, 230385, Note_on_c, 3, 50, 78
9, 230399, Note_on_c, 3, 50, 0
9, 230400, Note_on_c, 3, 50, 76
9, 230579, Note_on_c, 3, 50, 0
9, 230580, Note_on_c, 3, 50, 76
9, 230599, Note_on_c, 3, 50, 0
9, 230600, Note_on_c, 3, 50, 76
9, 230619, Note_on_c, 3, 50, 0
9, 230620, Note_on_c, 3, 50, 76
9, 230639, Note_on_c, 3, 50, 0
9, 230640, Note_on_c, 3, 50, 76
9, 230819, Note_on_c, 3, 50, 0
9, 230820, Note_on_c, 3, 50, 76
9, 230879, Note_on_c, 3, 50, 0
9, 230880, Note_on_c, 3, 50, 76
9, 230999, Note_on_c, 3, 50, 0
9, 231360, Note_on_c, 3, 45, 76
9, 231374, Note_on_c, 3, 45, 0
9, 231375, Note_on_c, 3, 45, 78
9, 231389, Note_on_c, 3, 45, 0
9, 231390, Note_on_c, 3, 45, 73
9, 231404, Note_on_c, 3, 45, 0
9, 231405, Note_on_c, 3, 45, 74
9, 231419, Note_on_c, 3, 45, 0
9, 231420, Note_on_c, 3, 45, 73
9, 231434, Note_on_c, 3, 45, 0
9, 231435, Note_on_c, 3, 45, 78
9, 231449, Note_on_c, 3, 45, 0
9, 231450, Note_on_c, 3, 45, 75
9, 231464, Note_on_c, 3, 45, 0
9, 231465, Note_on_c, 3, 45, 78
9, 231479, Note_on_c, 3, 45, 0
9, 231480, Note_on_c, 3, 45, 72
9, 231494, Note_on_c, 3, 45, 0
9, 231495, Note_on_c, 3, 45, 76
9, 231509, Note_on_c, 3, 45, 0
9, 231510, Note_on_c, 3, 45, 72
9, 231524, Note_on_c, 3, 45, 0
9, 231525, Note_on_c, 3, 45, 75
9, 231539, Note_on_c, 3, 45, 0
9, 231540, Note_on_c, 3, 45, 78
9, 231554, Note_on_c, 3, 45, 0
9, 231555, Note_on_c, 3, 45, 72
9, 231569, Note_on_c, 3, 45, 0
9, 231570, Note_on_c, 3, 45, 78
9, 231584, Note_on_c, 3, 45, 0
9, 231585, Note_on_c, 3, 45, 74
9, 231599, Note_on_c, 3, 45, 0
9, 231600, Note_on_c, 3, 45, 73
9, 231614, Note_on_c, 3, 45, 0
9, 231615, Note_on_c, 3, 45, 77
9, 231629, Note_on_c, 3, 45, 0
9, 231630, Note_on_c, 3, 45, 75
9, 231644, Note_on_c, 3, 45, 0
9, 231645, Note_on_c, 3, 45, 73
9, 231659, Note_on_c, 3, 45, 0
9, 231660, Note_on_c, 3, 45, 76
9, 231674, Note_on_c, 3, 45, 0
9, 231675, Note_on_c, 3, 45, 76
9, 231689, Note_on_c, 3, 45, 0
9, 231690, Note_on_c, 3, 45, 75
9, 231704, Note_on_c, 3, 45, 0
9, 231705, Note_on_c, 3, 45, 75
9, 231719, Note_on_c, 3, 45, 0
9, 231720, Note_on_c, 3, 45, 76
9, 231734, Note_on_c, 3, 45, 0
9, 231735, Note_on_c, 3, 45, 76
9, 231749, Note_on_c, 3, 45, 0
9, 231750, Note_on_c, 3, 45, 77
9, 231764, Note_on_c, 3, 45, 0
9, 231765, Note_on_c, 3, 45, 77
9, 231779, Note_on_c, 3, 45, 0
9, 231780, Note_on_c, 3, 45, 76
9, 231794, Note_on_c, 3, 45, 0
9, 231795, Note_on_c, 3, 45, 76
9, 231809, Note_on_c, 3, 45, 0
9, 231810, Note_on_c, 3, 45, 76
9, 231824, Note_on_c, 3, 45, 0
9, 231825, Note_on_c, 3, 45, 75
9, 231839, Note_on_c, 3, 45, 0
9, 231840, Note_on_c, 3, 45, 76
9, 232019, Note_on_c, 3, 45, 0
9, 232020, Note_on_c, 3, 45, 76
9, 232039, Note_on_c, 3, 45, 0
9, 232040, Note_on_c, 3, 45, 76
9, 232059, Note_on_c, 3, 45, 0
9, 232060, Note_on_c, 3, 45, 76
9, 232079, Note_on_c, 3, 45, 0
9, 232080, Note_on_c, 3, 50, 76
9, 232259, Note_on_c, 3, 50, 0
9, 232260, Note_on_c, 3, 45, 76
9, 232319, Note_on_c, 3, 45, 0
9, 232320, Note_on_c, 3, 50, 76
9, 232499, Note_on_c, 3, 50, 0
9, 232500, Note_on_c, 3, 45, 76
9, 232559, Note_on_c, 3, 45, 0
9, 232560, Note_on_c, 3, 50, 76
9, 232739, Note_on_c, 3, 50, 0
9, 232740, Note_on_c, 3, 50, 76
9, 232799, Note_on_c, 3, 50, 0
9, 232800, Note_on_c, 3, 45, 76
9, 232919, Note_on_c, 3, 45, 0
9, 232920, Note_on_c, 3, 45, 76
9, 232979, Note_on_c, 3, 45, 0
9, 232980, Note_on_c, 3, 45, 76
9, 233039, Note_on_c, 3, 45, 0
9, 233040, Note_on_c, 3, 45, 76
9, 233219, Note_on_c, 3, 45, 0
9, 233220, Note_on_c, 3, 45, 76
9, 233279, Note_on_c, 3, 45, 0
9, 233280, Note_on_c, 3, 50, 76
9, 234239, Note_on_c, 3, 50, 0
9, 234239, End_track
10, 0, Start_track
10, 0, Title_t, "Oboe I"
10, 0, MIDI_port, 0
10, 0, Program_c, 4, 68
10, 0, Control_c, 4, 10, 59
10, 0, Control_c, 4, 11, 127
10, 0, Control_c, 4, 7, 80
10, 0, Note_on_c, 4, 62, 76
10, 293, Note_on_c, 4, 62, 0
10, 300, Note_on_c, 4, 66, 76
10, 353, Note_on_c, 4, 66, 0
10, 360, Note_on_c, 4, 64, 76
10, 413, Note_on_c, 4, 64, 0
10, 420, Note_on_c, 4, 62, 76
10, 473, Note_on_c, 4, 62, 0
10, 480, Note_on_c, 4, 71, 76
10, 773, Note_on_c, 4, 71, 0
10, 780, Note_on_c, 4, 74, 76
10, 833, Note_on_c, 4, 74, 0
10, 840, Note_on_c, 4, 73, 76
10, 893, Note_on_c, 4, 73, 0
10, 900, Note_on_c, 4, 71, 76
10, 953, Note_on_c, 4, 71, 0
10, 960, Note_on_c, 4, 79, 76
10, 1253, Note_on_c, 4, 79, 0
10, 1260, Note_on_c, 4, 76, 76
10, 1313, Note_on_c, 4, 76, 0
10, 1320, Note_on_c, 4, 78, 76
10, 1373, Note_on_c, 4, 78, 0
10, 1380, Note_on_c, 4, 79, 76
10, 1433, Note_on_c, 4, 79, 0
10, 1440, Note_on_c, 4, 73, 76
10, 1733, Note_on_c, 4, 73, 0
10, 1740, Note_on_c, 4, 69, 76
10, 1793, Note_on_c, 4, 69, 0
10, 1800, Note_on_c, 4, 71, 76
10, 1853, Note_on_c, 4, 71, 0
10, 1860, Note_on_c, 4, 73, 76
10, 1913, Note_on_c, 4, 73, 0
10, 1920, Note_on_c, 4, 64, 76
10, 2267, Note_on_c, 4, 64, 0
10, 2280, Note_on_c, 4, 64, 76
10, 2387, Note_on_c, 4, 64, 0
10, 2400, Note_on_c, 4, 76, 76
10, 2573, Note_on_c, 4, 76, 0
10, 2580, Note_on_c, 4, 73, 76
10, 2633, Note_on_c, 4, 73, 0
10, 2640, Note_on_c, 4, 69, 76
10, 2813, Note_on_c, 4, 69, 0
10, 2820, Note_on_c, 4, 67, 76
10, 2873, Note_on_c, 4, 67, 0
10, 2880, Note_on_c, 4, 66, 76
10, 3053, Note_on_c, 4, 66, 0
10, 3060, Note_on_c, 4, 62, 76
10, 3113, Note_on_c, 4, 62, 0
10, 3120, Note_on_c, 4, 66, 76
10, 3293, Note_on_c, 4, 66, 0
10, 3300, Note_on_c, 4, 69, 76
10, 3353, Note_on_c, 4, 69, 0
10, 3360, Note_on_c, 4, 74, 76
10, 3533, Note_on_c, 4, 74, 0
10, 3540, Note_on_c, 4, 69, 76
10, 3593, Note_on_c, 4, 69, 0
10, 3600, Note_on_c, 4, 74, 76
10, 3773, Note_on_c, 4, 74, 0
10, 3780, Note_on_c, 4, 76, 76
10, 3833, Note_on_c, 4, 76, 0
10, 3840, Note_on_c, 4, 78, 76
10, 4133, Note_on_c, 4, 78, 0
10, 4140, Note_on_c, 4, 79, 76
10, 4193, Note_on_c, 4, 79, 0
10, 4200, Note_on_c, 4, 81, 76
10, 4253, Note_on_c, 4, 81, 0
10, 4260, Note_on_c, 4, 78, 76
10, 4313, Note_on_c, 4, 78, 0
10, 4320, Note_on_c, 4, 83, 76
10, 4613, Note_on_c, 4, 83, 0
10, 4620, Note_on_c, 4, 80, 76
10, 4673, Note_on_c, 4, 80, 0
10, 4680, Note_on_c, 4, 81, 76
10, 4733, Note_on_c, 4, 81, 0
10, 4740, Note_on_c, 4, 83, 76
10, 4793, Note_on_c, 4, 83, 0
10, 4800, Note_on_c, 4, 76, 76
10, 5093, Note_on_c, 4, 76, 0
10, 5100, Note_on_c, 4, 76, 76
10, 5153, Note_on_c, 4, 76, 0
10, 5160, Note_on_c, 4, 78, 76
10, 5213, Note_on_c, 4, 78, 0
10, 5220, Note_on_c, 4, 80, 76
10, 5273, Note_on_c, 4, 80, 0
10, 5280, Note_on_c, 4, 81, 76
10, 5453, Note_on_c, 4, 81, 0
10, 5460, Note_on_c, 4, 76, 76
10, 5513, Note_on_c, 4, 76, 0
10, 5520, Note_on_c, 4, 73, 76
10, 5693, Note_on_c, 4, 73, 0
10, 5700, Note_on_c, 4, 69, 76
10, 5753, Note_on_c, 4, 69, 0
10, 5760, Note_on_c, 4, 74, 76
10, 6107, Note_on_c, 4, 74, 0
10, 6120, Note_on_c, 4, 74, 76
10, 6227, Note_on_c, 4, 74, 0
10, 6240, Note_on_c, 4, 74, 76
10, 6413, Note_on_c, 4, 74, 0
10, 6420, Note_on_c, 4, 76, 76
10, 6445, Note_on_c, 4, 76, 0
10, 6450, Note_on_c, 4, 78, 76
10, 6475, Note_on_c, 4, 78, 0
10, 6480, Note_on_c, 4, 76, 76
10, 6653, Note_on_c, 4, 76, 0
10, 6660, Note_on_c, 4, 74, 76
10, 6713, Note_on_c, 4, 74, 0
10, 6720, Note_on_c, 4, 73, 76
10, 6893, Note_on_c, 4, 73, 0
10, 6900, Note_on_c, 4, 69, 76
10, 6953, Note_on_c, 4, 69, 0
10, 6960, Note_on_c, 4, 73, 76
10, 7133, Note_on_c, 4, 73, 0
10, 7140, Note_on_c, 4, 76, 76
10, 7193, Note_on_c, 4, 76, 0
10, 7200, Note_on_c, 4, 81, 76
10, 7373, Note_on_c, 4, 81, 0
10, 7380, Note_on_c, 4, 79, 76
10, 7405, Note_on_c, 4, 79, 0
10, 7410, Note_on_c, 4, 78, 76
10, 7435, Note_on_c, 4, 78, 0
10, 7440, Note_on_c, 4, 79, 76
10, 7613, Note_on_c, 4, 79, 0
10, 7620, Note_on_c, 4, 76, 76
10, 7673, Note_on_c, 4, 76, 0
10, 7680, Note_on_c, 4, 83, 76
10, 8027, Note_on_c, 4, 83, 0
10, 8040, Note_on_c, 4, 75, 76
10, 8147, Note_on_c, 4, 75, 0
10, 8160, Note_on_c, 4, 76, 76
10, 8333, Note_on_c, 4, 76, 0
10, 8340, Note_on_c, 4, 78, 76
10, 8393, Note_on_c, 4, 78, 0
10, 8400, Note_on_c, 4, 78, 76
10, 8414, Note_on_c, 4, 78, 0
10, 8415, Note_on_c, 4, 79, 76
10, 8429, Note_on_c, 4, 79, 0
10, 8430, Note_on_c, 4, 78, 76
10, 8444, Note_on_c, 4, 78, 0
10, 8445, Note_on_c, 4, 79, 76
10, 8459, Note_on_c, 4, 79, 0
10, 8460, Note_on_c, 4, 78, 76
10, 8474, Note_on_c, 4, 78, 0
10, 8475, Note_on_c, 4, 79, 76
10, 8489, Note_on_c, 4, 79, 0
10, 8490, Note_on_c, 4, 78, 76
10, 8504, Note_on_c, 4, 78, 0
10, 8505, Note_on_c, 4, 79, 76
10, 8519, Note_on_c, 4, 79, 0
10, 8520, Note_on_c, 4, 78, 76
10, 8534, Note_on_c, 4, 78, 0
10, 8535, Note_on_c, 4, 79, 76
10, 8549, Note_on_c, 4, 79, 0
10, 8550, Note_on_c, 4, 78, 76
10, 8564, Note_on_c, 4, 78, 0
10, 8565, Note_on_c, 4, 79, 76
10, 8579, Note_on_c, 4, 79, 0
10, 8580, Note_on_c, 4, 76, 76
10, 8605, Note_on_c, 4, 76, 0
10, 8610, Note_on_c, 4, 78, 76
10, 8635, Note_on_c, 4, 78, 0
10, 8640, Note_on_c, 4, 79, 76
10, 8933, Note_on_c, 4, 79, 0
10, 8940, Note_on_c, 4, 78, 76
10, 8993, Note_on_c, 4, 78, 0
10, 9000, Note_on_c, 4, 76, 76
10, 9053, Note_on_c, 4, 76, 0
10, 9060, Note_on_c, 4, 74, 76
10, 9113, Note_on_c, 4, 74, 0
10, 9120, Note_on_c, 4, 72, 76
10, 9293, Note_on_c, 4, 72, 0
10, 9300, Note_on_c, 4, 72, 76
10, 9353, Note_on_c, 4, 72, 0
10, 9360, Note_on_c, 4, 74, 76
10, 9533, Note_on_c, 4, 74, 0
10, 9540, Note_on_c, 4, 76, 76
10, 9573, Note_on_c, 4, 76, 0
10, 9580, Note_on_c, 4, 71, 76
10, 9599, Note_on_c, 4, 71, 0
10, 9600, Note_on_c, 4, 70, 76
10, 9947, Note_on_c, 4, 70, 0
10, 9960, Note_on_c, 4, 79, 76
10, 10067, Note_on_c, 4, 79, 0
10, 10080, Note_on_c, 4, 78, 76
10, 10253, Note_on_c, 4, 78, 0
10, 10260, Note_on_c, 4, 76, 76
10, 10313, Note_on_c, 4, 76, 0
10, 10320, Note_on_c, 4, 74, 76
10, 10493, Note_on_c, 4, 74, 0
10, 10500, Note_on_c, 4, 73, 76
10, 10553, Note_on_c, 4, 73, 0
10, 10560, Note_on_c, 4, 74, 76
10, 10733, Note_on_c, 4, 74, 0
10, 10740, Note_on_c, 4, 73, 76
10, 10793, Note_on_c, 4, 73, 0
10, 10800, Note_on_c, 4, 71, 76
10, 10973, Note_on_c, 4, 71, 0
10, 10980, Note_on_c, 4, 73, 76
10, 11033, Note_on_c, 4, 73, 0
10, 11040, Note_on_c, 4, 73, 76
10, 11387, Note_on_c, 4, 73, 0
10, 11400, Note_on_c, 4, 71, 76
10, 11507, Note_on_c, 4, 71, 0
10, 11520, Note_on_c, 4, 71, 76
10, 11813, Note_on_c, 4, 71, 0
10, 11820, Note_on_c, 4, 71, 76
10, 11873, Note_on_c, 4, 71, 0
10, 11880, Note_on_c, 4, 69, 76
10, 11933, Note_on_c, 4, 69, 0
10, 11940, Note_on_c, 4, 68, 76
10, 11993, Note_on_c, 4, 68, 0
10, 12000, Note_on_c, 4, 69, 76
10, 12173, Note_on_c, 4, 69, 0
10, 12180, Note_on_c, 4, 78, 76
10, 12233, Note_on_c, 4, 78, 0
10, 12240, Note_on_c, 4, 71, 76
10, 12413, Note_on_c, 4, 71, 0
10, 12420, Note_on_c, 4, 69, 76
10, 12473, Note_on_c, 4, 69, 0
10, 12480, Note_on_c, 4, 68, 76
10, 12653, Note_on_c, 4, 68, 0
10, 12660, Note_on_c, 4, 64, 76
10, 12713, Note_on_c, 4, 64, 0
10, 12720, Note_on_c, 4, 68, 76
10, 12893, Note_on_c, 4, 68, 0
10, 12900, Note_on_c, 4, 71, 76
10, 12953, Note_on_c, 4, 71, 0
10, 12960, Note_on_c, 4, 76, 76
10, 13307, Note_on_c, 4, 76, 0
10, 13320, Note_on_c, 4, 76, 76
10, 13427, Note_on_c, 4, 76, 0
10, 13440, Note_on_c, 4, 76, 76
10, 13733, Note_on_c, 4, 76, 0
10, 13740, Note_on_c, 4, 69, 76
10, 13793, Note_on_c, 4, 69, 0
10, 13800, Note_on_c, 4, 71, 76
10, 13853, Note_on_c, 4, 71, 0
10, 13860, Note_on_c, 4, 73, 76
10, 13913, Note_on_c, 4, 73, 0
10, 13920, Note_on_c, 4, 74, 76
10, 13973, Note_on_c, 4, 74, 0
10, 13980, Note_on_c, 4, 73, 76
10, 14033, Note_on_c, 4, 73, 0
10, 14040, Note_on_c, 4, 74, 76
10, 14093, Note_on_c, 4, 74, 0
10, 14100, Note_on_c, 4, 76, 76
10, 14153, Note_on_c, 4, 76, 0
10, 14160, Note_on_c, 4, 78, 76
10, 14213, Note_on_c, 4, 78, 0
10, 14220, Note_on_c, 4, 76, 76
10, 14273, Note_on_c, 4, 76, 0
10, 14280, Note_on_c, 4, 78, 76
10, 14333, Note_on_c, 4, 78, 0
10, 14340, Note_on_c, 4, 80, 76
10, 14393, Note_on_c, 4, 80, 0
10, 14400, Note_on_c, 4, 81, 76
10, 14459, Note_on_c, 4, 81, 0
10, 14460, Note_on_c, 4, 80, 76
10, 14633, Note_on_c, 4, 80, 0
10, 14640, Note_on_c, 4, 78, 76
10, 14699, Note_on_c, 4, 78, 0
10, 14700, Note_on_c, 4, 76, 76
10, 14873, Note_on_c, 4, 76, 0
10, 14880, Note_on_c, 4, 83, 76
10, 15227, Note_on_c, 4, 83, 0
10, 15240, Note_on_c, 4, 74, 76
10, 15347, Note_on_c, 4, 74, 0
10, 15360, Note_on_c, 4, 73, 76
10, 15707, Note_on_c, 4, 73, 0
10, 15720, Note_on_c, 4, 71, 76
10, 15827, Note_on_c, 4, 71, 0
10, 15840, Note_on_c, 4, 71, 76
10, 16187, Note_on_c, 4, 71, 0
10, 16200, Note_on_c, 4, 69, 76
10, 16307, Note_on_c, 4, 69, 0
10, 16320, Note_on_c, 4, 69, 76
10, 16645, Note_on_c, 4, 69, 0
10, 16650, Note_on_c, 4, 71, 76
10, 16675, Note_on_c, 4, 71, 0
10, 16680, Note_on_c, 4, 73, 76
10, 16705, Note_on_c, 4, 73, 0
10, 16710, Note_on_c, 4, 74, 76
10, 16735, Note_on_c, 4, 74, 0
10, 16740, Note_on_c, 4, 76, 76
10, 16765, Note_on_c, 4, 76, 0
10, 16770, Note_on_c, 4, 78, 76
10, 16795, Note_on_c, 4, 78, 0
10, 16800, Note_on_c, 4, 79, 76
10, 16973, Note_on_c, 4, 79, 0
10, 16980, Note_on_c, 4, 76, 76
10, 17033, Note_on_c, 4, 76, 0
10, 17040, Note_on_c, 4, 78, 76
10, 17213, Note_on_c, 4, 78, 0
10, 17220, Note_on_c, 4, 79, 76
10, 17273, Note_on_c, 4, 79, 0
10, 17280, Note_on_c, 4, 81, 76
10, 17627, Note_on_c, 4, 81, 0
10, 17640, Note_on_c, 4, 72, 76
10, 17747, Note_on_c, 4, 72, 0
10, 17760, Note_on_c, 4, 72, 76
10, 17774, Note_on_c, 4, 72, 0
10, 17775, Note_on_c, 4, 74, 76
10, 17789, Note_on_c, 4, 74, 0
10, 17790, Note_on_c, 4, 72, 76
10, 17804, Note_on_c, 4, 72, 0
10, 17805, Note_on_c, 4, 74, 76
10, 17819, Note_on_c, 4, 74, 0
10, 17820, Note_on_c, 4, 72, 76
10, 17834, Note_on_c, 4, 72, 0
10, 17835, Note_on_c, 4, 74, 76
10, 17849, Note_on_c, 4, 74, 0
10, 17850, Note_on_c, 4, 72, 76
10, 17864, Note_on_c, 4, 72, 0
10, 17865, Note_on_c, 4, 74, 76
10, 17879, Note_on_c, 4, 74, 0
10, 17880, Note_on_c, 4, 72, 76
10, 17894, Note_on_c, 4, 72, 0
10, 17895, Note_on_c, 4, 74, 76
10, 17909, Note_on_c, 4, 74, 0
10, 17910, Note_on_c, 4, 72, 76
10, 17924, Note_on_c, 4, 72, 0
10, 17925, Note_on_c, 4, 74, 76
10, 17939, Note_on_c, 4, 74, 0
10, 17940, Note_on_c, 4, 71, 76
10, 17965, Note_on_c, 4, 71, 0
10, 17970, Note_on_c, 4, 72, 76
10, 17995, Note_on_c, 4, 72, 0
10, 18000, Note_on_c, 4, 74, 76
10, 18173, Note_on_c, 4, 74, 0
10, 18180, Note_on_c, 4, 69, 76
10, 18233, Note_on_c, 4, 69, 0
10, 18240, Note_on_c, 4, 71, 76
10, 18533, Note_on_c, 4, 71, 0
10, 18540, Note_on_c, 4, 69, 76
10, 18593, Note_on_c, 4, 69, 0
10, 18600, Note_on_c, 4, 67, 76
10, 18653, Note_on_c, 4, 67, 0
10, 18660, Note_on_c, 4, 66, 76
10, 18713, Note_on_c, 4, 66, 0
10, 18720, Note_on_c, 4, 64, 76
10, 18773, Note_on_c, 4, 64, 0
10, 18780, Note_on_c, 4, 66, 76
10, 18833, Note_on_c, 4, 66, 0
10, 18840, Note_on_c, 4, 67, 76
10, 18893, Note_on_c, 4, 67, 0
10, 18900, Note_on_c, 4, 69, 76
10, 18953, Note_on_c, 4, 69, 0
10, 18960, Note_on_c, 4, 71, 76
10, 19013, Note_on_c, 4, 71, 0
10, 19020, Note_on_c, 4, 73, 76
10, 19073, Note_on_c, 4, 73, 0
10, 19080, Note_on_c, 4, 74, 76
10, 19133, Note_on_c, 4, 74, 0
10, 19140, Note_on_c, 4, 71, 76
10, 19193, Note_on_c, 4, 71, 0
10, 19200, Note_on_c, 4, 73, 76
10, 19253, Note_on_c, 4, 73, 0
10, 19260, Note_on_c, 4, 74, 76
10, 19313, Note_on_c, 4, 74, 0
10, 19320, Note_on_c, 4, 73, 76
10, 19373, Note_on_c, 4, 73, 0
10, 19380, Note_on_c, 4, 71, 76
10, 19433, Note_on_c, 4, 71, 0
10, 19440, Note_on_c, 4, 69, 76
10, 19493, Note_on_c, 4, 69, 0
10, 19500, Note_on_c, 4, 71, 76
10, 19553, Note_on_c, 4, 71, 0
10, 19560, Note_on_c, 4, 73, 76
10, 19613, Note_on_c, 4, 73, 0
10, 19620, Note_on_c, 4, 74, 76
10, 19673, Note_on_c, 4, 74, 0
10, 19680, Note_on_c, 4, 76, 76
10, 19733, Note_on_c, 4, 76, 0
10, 19740, Note_on_c, 4, 78, 76
10, 19793, Note_on_c, 4, 78, 0
10, 19800, Note_on_c, 4, 79, 76
10, 19853, Note_on_c, 4, 79, 0
10, 19860, Note_on_c, 4, 81, 76
10, 19913, Note_on_c, 4, 81, 0
10, 19920, Note_on_c, 4, 79, 76
10, 19973, Note_on_c, 4, 79, 0
10, 19980, Note_on_c, 4, 78, 76
10, 20033, Note_on_c, 4, 78, 0
10, 20040, Note_on_c, 4, 79, 76
10, 20093, Note_on_c, 4, 79, 0
10, 20100, Note_on_c, 4, 76, 76
10, 20153, Note_on_c, 4, 76, 0
10, 20160, Note_on_c, 4, 78, 76
10, 20333, Note_on_c, 4, 78, 0
10, 20340, Note_on_c, 4, 79, 76
10, 20393, Note_on_c, 4, 79, 0
10, 20400, Note_on_c, 4, 81, 76
10, 20573, Note_on_c, 4, 81, 0
10, 20580, Note_on_c, 4, 83, 76
10, 20633, Note_on_c, 4, 83, 0
10, 20640, Note_on_c, 4, 73, 76
10, 20813, Note_on_c, 4, 73, 0
10, 20820, Note_on_c, 4, 74, 76
10, 20873, Note_on_c, 4, 74, 0
10, 20880, Note_on_c, 4, 74, 76
10, 20894, Note_on_c, 4, 74, 0
10, 20895, Note_on_c, 4, 76, 74
10, 20909, Note_on_c, 4, 76, 0
10, 20910, Note_on_c, 4, 74, 77
10, 20924, Note_on_c, 4, 74, 0
10, 20925, Note_on_c, 4, 76, 78
10, 20939, Note_on_c, 4, 76, 0
10, 20940, Note_on_c, 4, 74, 77
10, 20954, Note_on_c, 4, 74, 0
10, 20955, Note_on_c, 4, 76, 76
10, 20969, Note_on_c, 4, 76, 0
10, 20970, Note_on_c, 4, 74, 74
10, 20984, Note_on_c, 4, 74, 0
10, 20985, Note_on_c, 4, 76, 78
10, 20999, Note_on_c, 4, 76, 0
10, 21000, Note_on_c, 4, 74, 73
10, 21014, Note_on_c, 4, 74, 0
10, 21015, Note_on_c, 4, 76, 72
10, 21029, Note_on_c, 4, 76, 0
10, 21030, Note_on_c, 4, 74, 77
10, 21044, Note_on_c, 4, 74, 0
10, 21045, Note_on_c, 4, 76, 76
10, 21059, Note_on_c, 4, 76, 0
10, 21060, Note_on_c, 4, 73, 76
10, 21085, Note_on_c, 4, 73, 0
10, 21090, Note_on_c, 4, 74, 76
10, 21115, Note_on_c, 4, 74, 0
10, 21120, Note_on_c, 4, 76, 76
10, 21293, Note_on_c, 4, 76, 0
10, 21300, Note_on_c, 4, 69, 76
10, 21353, Note_on_c, 4, 69, 0
10, 21360, Note_on_c, 4, 79, 76
10, 21533, Note_on_c, 4, 79, 0
10, 21540, Note_on_c, 4, 78, 76
10, 21559, Note_on_c, 4, 78, 0
10, 21560, Note_on_c, 4, 76, 76
10, 21579, Note_on_c, 4, 76, 0
10, 21580, Note_on_c, 4, 78, 76
10, 21599, Note_on_c, 4, 78, 0
10, 21600, Note_on_c, 4, 78, 76
10, 21614, Note_on_c, 4, 78, 0
10, 21615, Note_on_c, 4, 79, 78
10, 21629, Note_on_c, 4, 79, 0
10, 21630, Note_on_c, 4, 78, 72
10, 21644, Note_on_c, 4, 78, 0
10, 21645, Note_on_c, 4, 79, 78
10, 21659, Note_on_c, 4, 79, 0
10, 21660, Note_on_c, 4, 78, 76
10, 21674, Note_on_c, 4, 78, 0
10, 21675, Note_on_c, 4, 79, 74
10, 21689, Note_on_c, 4, 79, 0
10, 21690, Note_on_c, 4, 78, 72
10, 21704, Note_on_c, 4, 78, 0
10, 21705, Note_on_c, 4, 79, 76
10, 21719, Note_on_c, 4, 79, 0
10, 21720, Note_on_c, 4, 78, 73
10, 21734, Note_on_c, 4, 78, 0
10, 21735, Note_on_c, 4, 79, 74
10, 21749, Note_on_c, 4, 79, 0
10, 21750, Note_on_c, 4, 78, 78
10, 21764, Note_on_c, 4, 78, 0
10, 21765, Note_on_c, 4, 79, 76
10, 21779, Note_on_c, 4, 79, 0
10, 21780, Note_on_c, 4, 78, 76
10, 21794, Note_on_c, 4, 78, 0
10, 21795, Note_on_c, 4, 79, 72
10, 21809, Note_on_c, 4, 79, 0
10, 21810, Note_on_c, 4, 78, 75
10, 21824, Note_on_c, 4, 78, 0
10, 21825, Note_on_c, 4, 79, 75
10, 21839, Note_on_c, 4, 79, 0
10, 21840, Note_on_c, 4, 78, 75
10, 21854, Note_on_c, 4, 78, 0
10, 21855, Note_on_c, 4, 79, 77
10, 21869, Note_on_c, 4, 79, 0
10, 21870, Note_on_c, 4, 78, 76
10, 21884, Note_on_c, 4, 78, 0
10, 21885, Note_on_c, 4, 79, 75
10, 21899, Note_on_c, 4, 79, 0
10, 21900, Note_on_c, 4, 78, 76
10, 21914, Note_on_c, 4, 78, 0
10, 21915, Note_on_c, 4, 79, 76
10, 21929, Note_on_c, 4, 79, 0
10, 21930, Note_on_c, 4, 76, 76
10, 21944, Note_on_c, 4, 76, 0
10, 21945, Note_on_c, 4, 78, 75
10, 21959, Note_on_c, 4, 78, 0
10, 21960, Note_on_c, 4, 76, 76
10, 22067, Note_on_c, 4, 76, 0
10, 22080, Note_on_c, 4, 76, 76
10, 22559, Note_on_c, 4, 76, 0
10, 23040, Note_on_c, 4, 62, 76
10, 23333, Note_on_c, 4, 62, 0
10, 23340, Note_on_c, 4, 66, 76
10, 23393, Note_on_c, 4, 66, 0
10, 23400, Note_on_c, 4, 64, 76
10, 23453, Note_on_c, 4, 64, 0
10, 23460, Note_on_c, 4, 62, 76
10, 23513, Note_on_c, 4, 62, 0
10, 23520, Note_on_c, 4, 71, 76
10, 23813, Note_on_c, 4, 71, 0
10, 23820, Note_on_c, 4, 74, 76
10, 23873, Note_on_c, 4, 74, 0
10, 23880, Note_on_c, 4, 73, 76
10, 23933, Note_on_c, 4, 73, 0
10, 23940, Note_on_c, 4, 71, 76
10, 23993, Note_on_c, 4, 71, 0
10, 24000, Note_on_c, 4, 79, 76
10, 24293, Note_on_c, 4, 79, 0
10, 24300, Note_on_c, 4, 76, 76
10, 24353, Note_on_c, 4, 76, 0
10, 24360, Note_on_c, 4, 78, 76
10, 24413, Note_on_c, 4, 78, 0
10, 24420, Note_on_c, 4, 79, 76
10, 24473, Note_on_c, 4, 79, 0
10, 24480, Note_on_c, 4, 73, 76
10, 24773, Note_on_c, 4, 73, 0
10, 24780, Note_on_c, 4, 69, 76
10, 24833, Note_on_c, 4, 69, 0
10, 24840, Note_on_c, 4, 71, 76
10, 24893, Note_on_c, 4, 71, 0
10, 24900, Note_on_c, 4, 73, 76
10, 24953, Note_on_c, 4, 73, 0
10, 24960, Note_on_c, 4, 64, 76
10, 25307, Note_on_c, 4, 64, 0
10, 25320, Note_on_c, 4, 64, 76
10, 25427, Note_on_c, 4, 64, 0
10, 25440, Note_on_c, 4, 76, 76
10, 25613, Note_on_c, 4, 76, 0
10, 25620, Note_on_c, 4, 73, 76
10, 25673, Note_on_c, 4, 73, 0
10, 25680, Note_on_c, 4, 69, 76
10, 25853, Note_on_c, 4, 69, 0
10, 25860, Note_on_c, 4, 67, 76
10, 25913, Note_on_c, 4, 67, 0
10, 25920, Note_on_c, 4, 66, 76
10, 26093, Note_on_c, 4, 66, 0
10, 26100, Note_on_c, 4, 62, 76
10, 26153, Note_on_c, 4, 62, 0
10, 26160, Note_on_c, 4, 66, 76
10, 26333, Note_on_c, 4, 66, 0
10, 26340, Note_on_c, 4, 69, 76
10, 26393, Note_on_c, 4, 69, 0
10, 26400, Note_on_c, 4, 74, 76
10, 26573, Note_on_c, 4, 74, 0
10, 26580, Note_on_c, 4, 69, 76
10, 26633, Note_on_c, 4, 69, 0
10, 26640, Note_on_c, 4, 74, 76
10, 26813, Note_on_c, 4, 74, 0
10, 26820, Note_on_c, 4, 76, 76
10, 26873, Note_on_c, 4, 76, 0
10, 26880, Note_on_c, 4, 78, 76
10, 27173, Note_on_c, 4, 78, 0
10, 27180, Note_on_c, 4, 79, 76
10, 27233, Note_on_c, 4, 79, 0
10, 27240, Note_on_c, 4, 81, 76
10, 27293, Note_on_c, 4, 81, 0
10, 27300, Note_on_c, 4, 78, 76
10, 27353, Note_on_c, 4, 78, 0
10, 27360, Note_on_c, 4, 83, 76
10, 27653, Note_on_c, 4, 83, 0
10, 27660, Note_on_c, 4, 80, 76
10, 27713, Note_on_c, 4, 80, 0
10, 27720, Note_on_c, 4, 81, 76
10, 27773, Note_on_c, 4, 81, 0
10, 27780, Note_on_c, 4, 83, 76
10, 27833, Note_on_c, 4, 83, 0
10, 27840, Note_on_c, 4, 76, 76
10, 28133, Note_on_c, 4, 76, 0
10, 28140, Note_on_c, 4, 76, 76
10, 28193, Note_on_c, 4, 76, 0
10, 28200, Note_on_c, 4, 78, 76
10, 28253, Note_on_c, 4, 78, 0
10, 28260, Note_on_c, 4, 80, 76
10, 28313, Note_on_c, 4, 80, 0
10, 28320, Note_on_c, 4, 81, 76
10, 28493, Note_on_c, 4, 81, 0
10, 28500, Note_on_c, 4, 76, 76
10, 28553, Note_on_c, 4, 76, 0
10, 28560, Note_on_c, 4, 73, 76
10, 28733, Note_on_c, 4, 73, 0
10, 28740, Note_on_c, 4, 69, 76
10, 28793, Note_on_c, 4, 69, 0
10, 28800, Note_on_c, 4, 74, 76
10, 29147, Note_on_c, 4, 74, 0
10, 29160, Note_on_c, 4, 74, 76
10, 29267, Note_on_c, 4, 74, 0
10, 29280, Note_on_c, 4, 74, 76
10, 29453, Note_on_c, 4, 74, 0
10, 29460, Note_on_c, 4, 76, 76
10, 29485, Note_on_c, 4, 76, 0
10, 29490, Note_on_c, 4, 78, 76
10, 29515, Note_on_c, 4, 78, 0
10, 29520, Note_on_c, 4, 76, 76
10, 29693, Note_on_c, 4, 76, 0
10, 29700, Note_on_c, 4, 74, 76
10, 29753, Note_on_c, 4, 74, 0
10, 29760, Note_on_c, 4, 73, 76
10, 29933, Note_on_c, 4, 73, 0
10, 29940, Note_on_c, 4, 69, 76
10, 29993, Note_on_c, 4, 69, 0
10, 30000, Note_on_c, 4, 73, 76
10, 30173, Note_on_c, 4, 73, 0
10, 30180, Note_on_c, 4, 76, 76
10, 30233, Note_on_c, 4, 76, 0
10, 30240, Note_on_c, 4, 81, 76
10, 30413, Note_on_c, 4, 81, 0
10, 30420, Note_on_c, 4, 79, 76
10, 30445, Note_on_c, 4, 79, 0
10, 30450, Note_on_c, 4, 78, 76
10, 30475, Note_on_c, 4, 78, 0
10, 30480, Note_on_c, 4, 79, 76
10, 30653, Note_on_c, 4, 79, 0
10, 30660, Note_on_c, 4, 76, 76
10, 30713, Note_on_c, 4, 76, 0
10, 30720, Note_on_c, 4, 83, 76
10, 31067, Note_on_c, 4, 83, 0
10, 31080, Note_on_c, 4, 75, 76
10, 31187, Note_on_c, 4, 75, 0
10, 31200, Note_on_c, 4, 76, 76
10, 31373, Note_on_c, 4, 76, 0
10, 31380, Note_on_c, 4, 78, 76
10, 31433, Note_on_c, 4, 78, 0
10, 31440, Note_on_c, 4, 78, 76
10, 31454, Note_on_c, 4, 78, 0
10, 31455, Note_on_c, 4, 79, 76
10, 31469, Note_on_c, 4, 79, 0
10, 31470, Note_on_c, 4, 78, 76
10, 31484, Note_on_c, 4, 78, 0
10, 31485, Note_on_c, 4, 79, 76
10, 31499, Note_on_c, 4, 79, 0
10, 31500, Note_on_c, 4, 78, 76
10, 31514, Note_on_c, 4, 78, 0
10, 31515, Note_on_c, 4, 79, 76
10, 31529, Note_on_c, 4, 79, 0
10, 31530, Note_on_c, 4, 78, 76
10, 31544, Note_on_c, 4, 78, 0
10, 31545, Note_on_c, 4, 79, 76
10, 31559, Note_on_c, 4, 79, 0
10, 31560, Note_on_c, 4, 78, 76
10, 31574, Note_on_c, 4, 78, 0
10, 31575, Note_on_c, 4, 79, 76
10, 31589, Note_on_c, 4, 79, 0
10, 31590, Note_on_c, 4, 78, 76
10, 31604, Note_on_c, 4, 78, 0
10, 31605, Note_on_c, 4, 79, 76
10, 31619, Note_on_c, 4, 79, 0
10, 31620, Note_on_c, 4, 76, 76
10, 31645, Note_on_c, 4, 76, 0
10, 31650, Note_on_c, 4, 78, 76
10, 31675, Note_on_c, 4, 78, 0
10, 31680, Note_on_c, 4, 79, 76
10, 31973, Note_on_c, 4, 79, 0
10, 31980, Note_on_c, 4, 78, 76
10, 32033, Note_on_c, 4, 78, 0
10, 32040, Note_on_c, 4, 76, 76
10, 32093, Note_on_c, 4, 76, 0
10, 32100, Note_on_c, 4, 74, 76
10, 32153, Note_on_c, 4, 74, 0
10, 32160, Note_on_c, 4, 72, 76
10, 32333, Note_on_c, 4, 72, 0
10, 32340, Note_on_c, 4, 72, 76
10, 32393, Note_on_c, 4, 72, 0
10, 32400, Note_on_c, 4, 74, 76
10, 32573, Note_on_c, 4, 74, 0
10, 32580, Note_on_c, 4, 76, 76
10, 32613, Note_on_c, 4, 76, 0
10, 32620, Note_on_c, 4, 71, 76
10, 32639, Note_on_c, 4, 71, 0
10, 32640, Note_on_c, 4, 70, 76
10, 32987, Note_on_c, 4, 70, 0
10, 33000, Note_on_c, 4, 79, 76
10, 33107, Note_on_c, 4, 79, 0
10, 33120, Note_on_c, 4, 78, 76
10, 33293, Note_on_c, 4, 78, 0
10, 33300, Note_on_c, 4, 76, 76
10, 33353, Note_on_c, 4, 76, 0
10, 33360, Note_on_c, 4, 74, 76
10, 33533, Note_on_c, 4, 74, 0
10, 33540, Note_on_c, 4, 73, 76
10, 33593, Note_on_c, 4, 73, 0
10, 33600, Note_on_c, 4, 74, 76
10, 33773, Note_on_c, 4, 74, 0
10, 33780, Note_on_c, 4, 73, 76
10, 33833, Note_on_c, 4, 73, 0
10, 33840, Note_on_c, 4, 71, 76
10, 34013, Note_on_c, 4, 71, 0
10, 34020, Note_on_c, 4, 73, 76
10, 34073, Note_on_c, 4, 73, 0
10, 34080, Note_on_c, 4, 73, 76
10, 34427, Note_on_c, 4, 73, 0
10, 34440, Note_on_c, 4, 71, 76
10, 34547, Note_on_c, 4, 71, 0
10, 34560, Note_on_c, 4, 71, 76
10, 34853, Note_on_c, 4, 71, 0
10, 34860, Note_on_c, 4, 71, 76
10, 34913, Note_on_c, 4, 71, 0
10, 34920, Note_on_c, 4, 69, 76
10, 34973, Note_on_c, 4, 69, 0
10, 34980, Note_on_c, 4, 68, 76
10, 35033, Note_on_c, 4, 68, 0
10, 35040, Note_on_c, 4, 69, 76
10, 35213, Note_on_c, 4, 69, 0
10, 35220, Note_on_c, 4, 78, 76
10, 35273, Note_on_c, 4, 78, 0
10, 35280, Note_on_c, 4, 71, 76
10, 35453, Note_on_c, 4, 71, 0
10, 35460, Note_on_c, 4, 69, 76
10, 35513, Note_on_c, 4, 69, 0
10, 35520, Note_on_c, 4, 68, 76
10, 35693, Note_on_c, 4, 68, 0
10, 35700, Note_on_c, 4, 64, 76
10, 35753, Note_on_c, 4, 64, 0
10, 35760, Note_on_c, 4, 68, 76
10, 35933, Note_on_c, 4, 68, 0
10, 35940, Note_on_c, 4, 71, 76
10, 35993, Note_on_c, 4, 71, 0
10, 36000, Note_on_c, 4, 76, 76
10, 36347, Note_on_c, 4, 76, 0
10, 36360, Note_on_c, 4, 76, 76
10, 36467, Note_on_c, 4, 76, 0
10, 36480, Note_on_c, 4, 76, 76
10, 36773, Note_on_c, 4, 76, 0
10, 36780, Note_on_c, 4, 69, 76
10, 36833, Note_on_c, 4, 69, 0
10, 36840, Note_on_c, 4, 71, 76
10, 36893, Note_on_c, 4, 71, 0
10, 36900, Note_on_c, 4, 73, 76
10, 36953, Note_on_c, 4, 73, 0
10, 36960, Note_on_c, 4, 74, 76
10, 37013, Note_on_c, 4, 74, 0
10, 37020, Note_on_c, 4, 73, 76
10, 37073, Note_on_c, 4, 73, 0
10, 37080, Note_on_c, 4, 74, 76
10, 37133, Note_on_c, 4, 74, 0
10, 37140, Note_on_c, 4, 76, 76
10, 37193, Note_on_c, 4, 76, 0
10, 37200, Note_on_c, 4, 78, 76
10, 37253, Note_on_c, 4, 78, 0
10, 37260, Note_on_c, 4, 76, 76
10, 37313, Note_on_c, 4, 76, 0
10, 37320, Note_on_c, 4, 78, 76
10, 37373, Note_on_c, 4, 78, 0
10, 37380, Note_on_c, 4, 80, 76
10, 37433, Note_on_c, 4, 80, 0
10, 37440, Note_on_c, 4, 81, 76
10, 37499, Note_on_c, 4, 81, 0
10, 37500, Note_on_c, 4, 80, 76
10, 37673, Note_on_c, 4, 80, 0
10, 37680, Note_on_c, 4, 78, 76
10, 37739, Note_on_c, 4, 78, 0
10, 37740, Note_on_c, 4, 76, 76
10, 37913, Note_on_c, 4, 76, 0
10, 37920, Note_on_c, 4, 83, 76
10, 38267, Note_on_c, 4, 83, 0
10, 38280, Note_on_c, 4, 74, 76
10, 38387, Note_on_c, 4, 74, 0
10, 38400, Note_on_c, 4, 73, 76
10, 38747, Note_on_c, 4, 73, 0
10, 38760, Note_on_c, 4, 71, 76
10, 38867, Note_on_c, 4, 71, 0
10, 38880, Note_on_c, 4, 71, 76
10, 39227, Note_on_c, 4, 71, 0
10, 39240, Note_on_c, 4, 69, 76
10, 39347, Note_on_c, 4, 69, 0
10, 39360, Note_on_c, 4, 69, 76
10, 39685, Note_on_c, 4, 69, 0
10, 39690, Note_on_c, 4, 71, 76
10, 39715, Note_on_c, 4, 71, 0
10, 39720, Note_on_c, 4, 73, 76
10, 39745, Note_on_c, 4, 73, 0
10, 39750, Note_on_c, 4, 74, 76
10, 39775, Note_on_c, 4, 74, 0
10, 39780, Note_on_c, 4, 76, 76
10, 39805, Note_on_c, 4, 76, 0
10, 39810, Note_on_c, 4, 78, 76
10, 39835, Note_on_c, 4, 78, 0
10, 39840, Note_on_c, 4, 79, 76
10, 40013, Note_on_c, 4, 79, 0
10, 40020, Note_on_c, 4, 76, 76
10, 40073, Note_on_c, 4, 76, 0
10, 40080, Note_on_c, 4, 78, 76
10, 40253, Note_on_c, 4, 78, 0
10, 40260, Note_on_c, 4, 79, 76
10, 40313, Note_on_c, 4, 79, 0
10, 40320, Note_on_c, 4, 81, 76
10, 40667, Note_on_c, 4, 81, 0
10, 40680, Note_on_c, 4, 72, 76
10, 40787, Note_on_c, 4, 72, 0
10, 40800, Note_on_c, 4, 72, 76
10, 40814, Note_on_c, 4, 72, 0
10, 40815, Note_on_c, 4, 74, 76
10, 40829, Note_on_c, 4, 74, 0
10, 40830, Note_on_c, 4, 72, 76
10, 40844, Note_on_c, 4, 72, 0
10, 40845, Note_on_c, 4, 74, 76
10, 40859, Note_on_c, 4, 74, 0
10, 40860, Note_on_c, 4, 72, 76
10, 40874, Note_on_c, 4, 72, 0
10, 40875, Note_on_c, 4, 74, 76
10, 40889, Note_on_c, 4, 74, 0
10, 40890, Note_on_c, 4, 72, 76
10, 40904, Note_on_c, 4, 72, 0
10, 40905, Note_on_c, 4, 74, 76
10, 40919, Note_on_c, 4, 74, 0
10, 40920, Note_on_c, 4, 72, 76
10, 40934, Note_on_c, 4, 72, 0
10, 40935, Note_on_c, 4, 74, 76
10, 40949, Note_on_c, 4, 74, 0
10, 40950, Note_on_c, 4, 72, 76
10, 40964, Note_on_c, 4, 72, 0
10, 40965, Note_on_c, 4, 74, 76
10, 40979, Note_on_c, 4, 74, 0
10, 40980, Note_on_c, 4, 71, 76
10, 41005, Note_on_c, 4, 71, 0
10, 41010, Note_on_c, 4, 72, 76
10, 41035, Note_on_c, 4, 72, 0
10, 41040, Note_on_c, 4, 74, 76
10, 41213, Note_on_c, 4, 74, 0
10, 41220, Note_on_c, 4, 69, 76
10, 41273, Note_on_c, 4, 69, 0
10, 41280, Note_on_c, 4, 71, 76
10, 41573, Note_on_c, 4, 71, 0
10, 41580, Note_on_c, 4, 69, 76
10, 41633, Note_on_c, 4, 69, 0
10, 41640, Note_on_c, 4, 67, 76
10, 41693, Note_on_c, 4, 67, 0
10, 41700, Note_on_c, 4, 66, 76
10, 41753, Note_on_c, 4, 66, 0
10, 41760, Note_on_c, 4, 64, 76
10, 41813, Note_on_c, 4, 64, 0
10, 41820, Note_on_c, 4, 66, 76
10, 41873, Note_on_c, 4, 66, 0
10, 41880, Note_on_c, 4, 67, 76
10, 41933, Note_on_c, 4, 67, 0
10, 41940, Note_on_c, 4, 69, 76
10, 41993, Note_on_c, 4, 69, 0
10, 42000, Note_on_c, 4, 71, 76
10, 42053, Note_on_c, 4, 71, 0
10, 42060, Note_on_c, 4, 73, 76
10, 42113, Note_on_c, 4, 73, 0
10, 42120, Note_on_c, 4, 74, 76
10, 42173, Note_on_c, 4, 74, 0
10, 42180, Note_on_c, 4, 71, 76
10, 42233, Note_on_c, 4, 71, 0
10, 42240, Note_on_c, 4, 73, 76
10, 42293, Note_on_c, 4, 73, 0
10, 42300, Note_on_c, 4, 74, 76
10, 42353, Note_on_c, 4, 74, 0
10, 42360, Note_on_c, 4, 73, 76
10, 42413, Note_on_c, 4, 73, 0
10, 42420, Note_on_c, 4, 71, 76
10, 42473, Note_on_c, 4, 71, 0
10, 42480, Note_on_c, 4, 69, 76
10, 42533, Note_on_c, 4, 69, 0
10, 42540, Note_on_c, 4, 71, 76
10, 42593, Note_on_c, 4, 71, 0
10, 42600, Note_on_c, 4, 73, 76
10, 42653, Note_on_c, 4, 73, 0
10, 42660, Note_on_c, 4, 74, 76
10, 42713, Note_on_c, 4, 74, 0
10, 42720, Note_on_c, 4, 76, 76
10, 42773, Note_on_c, 4, 76, 0
10, 42780, Note_on_c, 4, 78, 76
10, 42833, Note_on_c, 4, 78, 0
10, 42840, Note_on_c, 4, 79, 76
10, 42893, Note_on_c, 4, 79, 0
10, 42900, Note_on_c, 4, 81, 76
10, 42953, Note_on_c, 4, 81, 0
10, 42960, Note_on_c, 4, 79, 76
10, 43013, Note_on_c, 4, 79, 0
10, 43020, Note_on_c, 4, 78, 76
10, 43073, Note_on_c, 4, 78, 0
10, 43080, Note_on_c, 4, 79, 76
10, 43133, Note_on_c, 4, 79, 0
10, 43140, Note_on_c, 4, 76, 76
10, 43193, Note_on_c, 4, 76, 0
10, 43200, Note_on_c, 4, 78, 76
10, 43373, Note_on_c, 4, 78, 0
10, 43380, Note_on_c, 4, 79, 76
10, 43433, Note_on_c, 4, 79, 0
10, 43440, Note_on_c, 4, 81, 76
10, 43613, Note_on_c, 4, 81, 0
10, 43620, Note_on_c, 4, 83, 76
10, 43673, Note_on_c, 4, 83, 0
10, 43680, Note_on_c, 4, 73, 76
10, 43853, Note_on_c, 4, 73, 0
10, 43860, Note_on_c, 4, 74, 76
10, 43913, Note_on_c, 4, 74, 0
10, 43920, Note_on_c, 4, 74, 76
10, 43934, Note_on_c, 4, 74, 0
10, 43935, Note_on_c, 4, 76, 74
10, 43949, Note_on_c, 4, 76, 0
10, 43950, Note_on_c, 4, 74, 77
10, 43964, Note_on_c, 4, 74, 0
10, 43965, Note_on_c, 4, 76, 78
10, 43979, Note_on_c, 4, 76, 0
10, 43980, Note_on_c, 4, 74, 77
10, 43994, Note_on_c, 4, 74, 0
10, 43995, Note_on_c, 4, 76, 76
10, 44009, Note_on_c, 4, 76, 0
10, 44010, Note_on_c, 4, 74, 74
10, 44024, Note_on_c, 4, 74, 0
10, 44025, Note_on_c, 4, 76, 78
10, 44039, Note_on_c, 4, 76, 0
10, 44040, Note_on_c, 4, 74, 73
10, 44054, Note_on_c, 4, 74, 0
10, 44055, Note_on_c, 4, 76, 72
10, 44069, Note_on_c, 4, 76, 0
10, 44070, Note_on_c, 4, 74, 77
10, 44084, Note_on_c, 4, 74, 0
10, 44085, Note_on_c, 4, 76, 76
10, 44099, Note_on_c, 4, 76, 0
10, 44100, Note_on_c, 4, 73, 76
10, 44125, Note_on_c, 4, 73, 0
10, 44130, Note_on_c, 4, 74, 76
10, 44155, Note_on_c, 4, 74, 0
10, 44160, Note_on_c, 4, 76, 76
10, 44333, Note_on_c, 4, 76, 0
10, 44340, Note_on_c, 4, 69, 76
10, 44393, Note_on_c, 4, 69, 0
10, 44400, Note_on_c, 4, 79, 76
10, 44573, Note_on_c, 4, 79, 0
10, 44580, Note_on_c, 4, 78, 76
10, 44599, Note_on_c, 4, 78, 0
10, 44600, Note_on_c, 4, 76, 76
10, 44619, Note_on_c, 4, 76, 0
10, 44620, Note_on_c, 4, 78, 76
10, 44639, Note_on_c, 4, 78, 0
10, 44640, Note_on_c, 4, 78, 76
10, 44654, Note_on_c, 4, 78, 0
10, 44655, Note_on_c, 4, 79, 78
10, 44669, Note_on_c, 4, 79, 0
10, 44670, Note_on_c, 4, 78, 72
10, 44684, Note_on_c, 4, 78, 0
10, 44685, Note_on_c, 4, 79, 78
10, 44699, Note_on_c, 4, 79, 0
10, 44700, Note_on_c, 4, 78, 76
10, 44714, Note_on_c, 4, 78, 0
10, 44715, Note_on_c, 4, 79, 74
10, 44729, Note_on_c, 4, 79, 0
10, 44730, Note_on_c, 4, 78, 72
10, 44744, Note_on_c, 4, 78, 0
10, 44745, Note_on_c, 4, 79, 76
10, 44759, Note_on_c, 4, 79, 0
10, 44760, Note_on_c, 4, 78, 73
10, 44774, Note_on_c, 4, 78, 0
10, 44775, Note_on_c, 4, 79, 74
10, 44789, Note_on_c, 4, 79, 0
10, 44790, Note_on_c, 4, 78, 78
10, 44804, Note_on_c, 4, 78, 0
10, 44805, Note_on_c, 4, 79, 76
10, 44819, Note_on_c, 4, 79, 0
10, 44820, Note_on_c, 4, 78, 76
10, 44834, Note_on_c, 4, 78, 0
10, 44835, Note_on_c, 4, 79, 72
10, 44849, Note_on_c, 4, 79, 0
10, 44850, Note_on_c, 4, 78, 75
10, 44864, Note_on_c, 4, 78, 0
10, 44865, Note_on_c, 4, 79, 75
10, 44879, Note_on_c, 4, 79, 0
10, 44880, Note_on_c, 4, 78, 75
10, 44894, Note_on_c, 4, 78, 0
10, 44895, Note_on_c, 4, 79, 77
10, 44909, Note_on_c, 4, 79, 0
10, 44910, Note_on_c, 4, 78, 76
10, 44924, Note_on_c, 4, 78, 0
10, 44925, Note_on_c, 4, 79, 75
10, 44939, Note_on_c, 4, 79, 0
10, 44940, Note_on_c, 4, 78, 76
10, 44954, Note_on_c, 4, 78, 0
10, 44955, Note_on_c, 4, 79, 76
10, 44969, Note_on_c, 4, 79, 0
10, 44970, Note_on_c, 4, 76, 76
10, 44984, Note_on_c, 4, 76, 0
10, 44985, Note_on_c, 4, 78, 75
10, 44999, Note_on_c, 4, 78, 0
10, 45000, Note_on_c, 4, 76, 76
10, 45107, Note_on_c, 4, 76, 0
10, 45120, Note_on_c, 4, 76, 76
10, 45224, Note_on_c, 4, 76, 0
10, 45240, Note_on_c, 4, 69, 76
10, 45291, Note_on_c, 4, 69, 0
10, 45300, Note_on_c, 4, 71, 76
10, 45351, Note_on_c, 4, 71, 0
10, 45360, Note_on_c, 4, 73, 76
10, 45464, Note_on_c, 4, 73, 0
10, 45480, Note_on_c, 4, 73, 76
10, 45531, Note_on_c, 4, 73, 0
10, 45540, Note_on_c, 4, 74, 76
10, 45591, Note_on_c, 4, 74, 0
10, 45600, Note_on_c, 4, 76, 76
10, 45704, Note_on_c, 4, 76, 0
10, 45720, Note_on_c, 4, 73, 76
10, 45771, Note_on_c, 4, 73, 0
10, 45780, Note_on_c, 4, 74, 76
10, 45831, Note_on_c, 4, 74, 0
10, 45840, Note_on_c, 4, 76, 76
10, 45944, Note_on_c, 4, 76, 0
10, 45960, Note_on_c, 4, 76, 76
10, 46011, Note_on_c, 4, 76, 0
10, 46020, Note_on_c, 4, 78, 76
10, 46071, Note_on_c, 4, 78, 0
10, 46080, Note_on_c, 4, 79, 76
10, 46184, Note_on_c, 4, 79, 0
10, 46200, Note_on_c, 4, 79, 76
10, 46247, Note_on_c, 4, 79, 0
10, 46260, Note_on_c, 4, 78, 76
10, 46307, Note_on_c, 4, 78, 0
10, 46320, Note_on_c, 4, 79, 76
10, 46424, Note_on_c, 4, 79, 0
10, 46440, Note_on_c, 4, 81, 76
10, 46487, Note_on_c, 4, 81, 0
10, 46500, Note_on_c, 4, 79, 76
10, 46547, Note_on_c, 4, 79, 0
10, 46560, Note_on_c, 4, 78, 76
10, 46664, Note_on_c, 4, 78, 0
10, 46680, Note_on_c, 4, 81, 76
10, 46784, Note_on_c, 4, 81, 0
10, 46800, Note_on_c, 4, 74, 76
10, 46904, Note_on_c, 4, 74, 0
10, 46920, Note_on_c, 4, 78, 76
10, 47144, Note_on_c, 4, 78, 0
10, 47160, Note_on_c, 4, 81, 76
10, 47264, Note_on_c, 4, 81, 0
10, 47280, Note_on_c, 4, 72, 76
10, 47384, Note_on_c, 4, 72, 0
10, 47400, Note_on_c, 4, 78, 76
10, 47624, Note_on_c, 4, 78, 0
10, 47640, Note_on_c, 4, 81, 76
10, 47744, Note_on_c, 4, 81, 0
10, 47760, Note_on_c, 4, 74, 76
10, 47864, Note_on_c, 4, 74, 0
10, 47880, Note_on_c, 4, 78, 76
10, 47984, Note_on_c, 4, 78, 0
10, 48000, Note_on_c, 4, 79, 76
10, 48104, Note_on_c, 4, 79, 0
10, 48120, Note_on_c, 4, 83, 76
10, 48224, Note_on_c, 4, 83, 0
10, 48240, Note_on_c, 4, 74, 76
10, 48344, Note_on_c, 4, 74, 0
10, 48360, Note_on_c, 4, 80, 76
10, 48584, Note_on_c, 4, 80, 0
10, 48600, Note_on_c, 4, 83, 76
10, 48704, Note_on_c, 4, 83, 0
10, 48720, Note_on_c, 4, 76, 76
10, 48824, Note_on_c, 4, 76, 0
10, 48840, Note_on_c, 4, 80, 76
10, 48944, Note_on_c, 4, 80, 0
10, 48960, Note_on_c, 4, 81, 76
10, 49007, Note_on_c, 4, 81, 0
10, 49020, Note_on_c, 4, 76, 76
10, 49067, Note_on_c, 4, 76, 0
10, 49080, Note_on_c, 4, 73, 76
10, 49127, Note_on_c, 4, 73, 0
10, 49140, Note_on_c, 4, 74, 76
10, 49187, Note_on_c, 4, 74, 0
10, 49200, Note_on_c, 4, 76, 76
10, 49247, Note_on_c, 4, 76, 0
10, 49260, Note_on_c, 4, 78, 76
10, 49307, Note_on_c, 4, 78, 0
10, 49320, Note_on_c, 4, 76, 76
10, 49367, Note_on_c, 4, 76, 0
10, 49380, Note_on_c, 4, 78, 76
10, 49427, Note_on_c, 4, 78, 0
10, 49440, Note_on_c, 4, 79, 76
10, 49487, Note_on_c, 4, 79, 0
10, 49500, Note_on_c, 4, 76, 76
10, 49547, Note_on_c, 4, 76, 0
10, 49560, Note_on_c, 4, 69, 76
10, 49607, Note_on_c, 4, 69, 0
10, 49620, Note_on_c, 4, 71, 76
10, 49667, Note_on_c, 4, 71, 0
10, 49680, Note_on_c, 4, 73, 76
10, 49727, Note_on_c, 4, 73, 0
10, 49740, Note_on_c, 4, 74, 76
10, 49787, Note_on_c, 4, 74, 0
10, 49800, Note_on_c, 4, 73, 76
10, 49847, Note_on_c, 4, 73, 0
10, 49860, Note_on_c, 4, 74, 76
10, 49907, Note_on_c, 4, 74, 0
10, 49920, Note_on_c, 4, 76, 76
10, 49967, Note_on_c, 4, 76, 0
10, 49980, Note_on_c, 4, 74, 76
10, 50027, Note_on_c, 4, 74, 0
10, 50040, Note_on_c, 4, 73, 76
10, 50087, Note_on_c, 4, 73, 0
10, 50100, Note_on_c, 4, 74, 76
10, 50147, Note_on_c, 4, 74, 0
10, 50160, Note_on_c, 4, 76, 76
10, 50207, Note_on_c, 4, 76, 0
10, 50220, Note_on_c, 4, 74, 76
10, 50267, Note_on_c, 4, 74, 0
10, 50280, Note_on_c, 4, 73, 76
10, 50327, Note_on_c, 4, 73, 0
10, 50340, Note_on_c, 4, 71, 76
10, 50387, Note_on_c, 4, 71, 0
10, 50400, Note_on_c, 4, 69, 76
10, 50447, Note_on_c, 4, 69, 0
10, 50460, Note_on_c, 4, 74, 76
10, 50507, Note_on_c, 4, 74, 0
10, 50520, Note_on_c, 4, 73, 76
10, 50567, Note_on_c, 4, 73, 0
10, 50580, Note_on_c, 4, 71, 76
10, 50627, Note_on_c, 4, 71, 0
10, 50640, Note_on_c, 4, 69, 76
10, 50687, Note_on_c, 4, 69, 0
10, 50700, Note_on_c, 4, 67, 76
10, 50747, Note_on_c, 4, 67, 0
10, 50760, Note_on_c, 4, 66, 76
10, 50807, Note_on_c, 4, 66, 0
10, 50820, Note_on_c, 4, 64, 76
10, 50867, Note_on_c, 4, 64, 0
10, 50880, Note_on_c, 4, 62, 76
10, 50984, Note_on_c, 4, 62, 0
10, 51000, Note_on_c, 4, 74, 76
10, 51104, Note_on_c, 4, 74, 0
10, 51120, Note_on_c, 4, 74, 76
10, 51224, Note_on_c, 4, 74, 0
10, 51240, Note_on_c, 4, 74, 76
10, 51344, Note_on_c, 4, 74, 0
10, 51360, Note_on_c, 4, 74, 76
10, 51464, Note_on_c, 4, 74, 0
10, 51480, Note_on_c, 4, 74, 76
10, 51584, Note_on_c, 4, 74, 0
10, 51600, Note_on_c, 4, 74, 76
10, 51704, Note_on_c, 4, 74, 0
10, 51720, Note_on_c, 4, 74, 76
10, 51824, Note_on_c, 4, 74, 0
10, 51840, Note_on_c, 4, 74, 76
10, 51944, Note_on_c, 4, 74, 0
10, 51960, Note_on_c, 4, 76, 76
10, 52064, Note_on_c, 4, 76, 0
10, 52080, Note_on_c, 4, 76, 76
10, 52184, Note_on_c, 4, 76, 0
10, 52200, Note_on_c, 4, 76, 76
10, 52304, Note_on_c, 4, 76, 0
10, 52320, Note_on_c, 4, 76, 76
10, 52424, Note_on_c, 4, 76, 0
10, 52440, Note_on_c, 4, 76, 76
10, 52544, Note_on_c, 4, 76, 0
10, 52560, Note_on_c, 4, 76, 76
10, 52664, Note_on_c, 4, 76, 0
10, 52680, Note_on_c, 4, 76, 76
10, 52784, Note_on_c, 4, 76, 0
10, 52800, Note_on_c, 4, 76, 76
10, 52904, Note_on_c, 4, 76, 0
10, 52920, Note_on_c, 4, 76, 76
10, 53024, Note_on_c, 4, 76, 0
10, 53040, Note_on_c, 4, 76, 76
10, 53144, Note_on_c, 4, 76, 0
10, 53160, Note_on_c, 4, 76, 76
10, 53264, Note_on_c, 4, 76, 0
10, 53280, Note_on_c, 4, 76, 76
10, 53384, Note_on_c, 4, 76, 0
10, 53400, Note_on_c, 4, 69, 76
10, 53447, Note_on_c, 4, 69, 0
10, 53460, Note_on_c, 4, 71, 76
10, 53507, Note_on_c, 4, 71, 0
10, 53520, Note_on_c, 4, 73, 76
10, 53624, Note_on_c, 4, 73, 0
10, 53640, Note_on_c, 4, 73, 76
10, 53687, Note_on_c, 4, 73, 0
10, 53700, Note_on_c, 4, 74, 76
10, 53747, Note_on_c, 4, 74, 0
10, 53760, Note_on_c, 4, 76, 76
10, 53864, Note_on_c, 4, 76, 0
10, 53880, Note_on_c, 4, 73, 76
10, 53927, Note_on_c, 4, 73, 0
10, 53940, Note_on_c, 4, 74, 76
10, 53987, Note_on_c, 4, 74, 0
10, 54000, Note_on_c, 4, 76, 76
10, 54104, Note_on_c, 4, 76, 0
10, 54120, Note_on_c, 4, 76, 76
10, 54167, Note_on_c, 4, 76, 0
10, 54180, Note_on_c, 4, 78, 76
10, 54227, Note_on_c, 4, 78, 0
10, 54240, Note_on_c, 4, 79, 76
10, 54344, Note_on_c, 4, 79, 0
10, 54360, Note_on_c, 4, 79, 76
10, 54407, Note_on_c, 4, 79, 0
10, 54420, Note_on_c, 4, 78, 76
10, 54467, Note_on_c, 4, 78, 0
10, 54480, Note_on_c, 4, 79, 76
10, 54584, Note_on_c, 4, 79, 0
10, 54600, Note_on_c, 4, 81, 76
10, 54647, Note_on_c, 4, 81, 0
10, 54660, Note_on_c, 4, 79, 76
10, 54707, Note_on_c, 4, 79, 0
10, 54720, Note_on_c, 4, 78, 76
10, 54824, Note_on_c, 4, 78, 0
10, 54840, Note_on_c, 4, 78, 76
10, 54887, Note_on_c, 4, 78, 0
10, 54900, Note_on_c, 4, 76, 76
10, 54947, Note_on_c, 4, 76, 0
10, 54960, Note_on_c, 4, 78, 76
10, 55064, Note_on_c, 4, 78, 0
10, 55080, Note_on_c, 4, 79, 76
10, 55127, Note_on_c, 4, 79, 0
10, 55140, Note_on_c, 4, 78, 76
10, 55187, Note_on_c, 4, 78, 0
10, 55200, Note_on_c, 4, 76, 76
10, 55304, Note_on_c, 4, 76, 0
10, 55320, Note_on_c, 4, 76, 76
10, 55367, Note_on_c, 4, 76, 0
10, 55380, Note_on_c, 4, 74, 76
10, 55427, Note_on_c, 4, 74, 0
10, 55440, Note_on_c, 4, 76, 76
10, 55544, Note_on_c, 4, 76, 0
10, 55560, Note_on_c, 4, 78, 76
10, 55607, Note_on_c, 4, 78, 0
10, 55620, Note_on_c, 4, 76, 76
10, 55667, Note_on_c, 4, 76, 0
10, 55680, Note_on_c, 4, 74, 76
10, 55784, Note_on_c, 4, 74, 0
10, 55800, Note_on_c, 4, 74, 76
10, 55847, Note_on_c, 4, 74, 0
10, 55860, Note_on_c, 4, 76, 76
10, 55907, Note_on_c, 4, 76, 0
10, 55920, Note_on_c, 4, 78, 76
10, 56024, Note_on_c, 4, 78, 0
10, 56040, Note_on_c, 4, 78, 76
10, 56087, Note_on_c, 4, 78, 0
10, 56100, Note_on_c, 4, 79, 76
10, 56147, Note_on_c, 4, 79, 0
10, 56160, Note_on_c, 4, 81, 76
10, 56264, Note_on_c, 4, 81, 0
10, 56280, Note_on_c, 4, 78, 76
10, 56327, Note_on_c, 4, 78, 0
10, 56340, Note_on_c, 4, 79, 76
10, 56387, Note_on_c, 4, 79, 0
10, 56400, Note_on_c, 4, 81, 76
10, 56504, Note_on_c, 4, 81, 0
10, 56520, Note_on_c, 4, 81, 76
10, 56567, Note_on_c, 4, 81, 0
10, 56580, Note_on_c, 4, 83, 76
10, 56627, Note_on_c, 4, 83, 0
10, 56640, Note_on_c, 4, 84, 76
10, 56744, Note_on_c, 4, 84, 0
10, 56760, Note_on_c, 4, 84, 76
10, 56807, Note_on_c, 4, 84, 0
10, 56820, Note_on_c, 4, 83, 76
10, 56867, Note_on_c, 4, 83, 0
10, 56880, Note_on_c, 4, 84, 76
10, 56984, Note_on_c, 4, 84, 0
10, 57000, Note_on_c, 4, 86, 76
10, 57047, Note_on_c, 4, 86, 0
10, 57060, Note_on_c, 4, 84, 76
10, 57107, Note_on_c, 4, 84, 0
10, 57120, Note_on_c, 4, 83, 76
10, 57167, Note_on_c, 4, 83, 0
10, 57180, Note_on_c, 4, 79, 76
10, 57227, Note_on_c, 4, 79, 0
10, 57240, Note_on_c, 4, 76, 76
10, 57287, Note_on_c, 4, 76, 0
10, 57300, Note_on_c, 4, 78, 76
10, 57347, Note_on_c, 4, 78, 0
10, 57360, Note_on_c, 4, 79, 76
10, 57407, Note_on_c, 4, 79, 0
10, 57420, Note_on_c, 4, 81, 76
10, 57467, Note_on_c, 4, 81, 0
10, 57480, Note_on_c, 4, 78, 76
10, 57527, Note_on_c, 4, 78, 0
10, 57540, Note_on_c, 4, 79, 76
10, 57587, Note_on_c, 4, 79, 0
10, 57600, Note_on_c, 4, 81, 76
10, 57647, Note_on_c, 4, 81, 0
10, 57660, Note_on_c, 4, 78, 76
10, 57707, Note_on_c, 4, 78, 0
10, 57720, Note_on_c, 4, 74, 76
10, 57767, Note_on_c, 4, 74, 0
10, 57780, Note_on_c, 4, 76, 76
10, 57827, Note_on_c, 4, 76, 0
10, 57840, Note_on_c, 4, 78, 76
10, 57887, Note_on_c, 4, 78, 0
10, 57900, Note_on_c, 4, 79, 76
10, 57947, Note_on_c, 4, 79, 0
10, 57960, Note_on_c, 4, 76, 76
10, 58007, Note_on_c, 4, 76, 0
10, 58020, Note_on_c, 4, 78, 76
10, 58067, Note_on_c, 4, 78, 0
10, 58080, Note_on_c, 4, 79, 76
10, 58127, Note_on_c, 4, 79, 0
10, 58140, Note_on_c, 4, 78, 76
10, 58187, Note_on_c, 4, 78, 0
10, 58200, Note_on_c, 4, 76, 76
10, 58247, Note_on_c, 4, 76, 0
10, 58260, Note_on_c, 4, 79, 76
10, 58307, Note_on_c, 4, 79, 0
10, 58320, Note_on_c, 4, 78, 76
10, 58367, Note_on_c, 4, 78, 0
10, 58380, Note_on_c, 4, 76, 76
10, 58427, Note_on_c, 4, 76, 0
10, 58440, Note_on_c, 4, 74, 76
10, 58487, Note_on_c, 4, 74, 0
10, 58500, Note_on_c, 4, 78, 76
10, 58547, Note_on_c, 4, 78, 0
10, 58560, Note_on_c, 4, 76, 76
10, 58607, Note_on_c, 4, 76, 0
10, 58620, Note_on_c, 4, 81, 76
10, 58667, Note_on_c, 4, 81, 0
10, 58680, Note_on_c, 4, 73, 76
10, 58727, Note_on_c, 4, 73, 0
10, 58740, Note_on_c, 4, 74, 76
10, 58787, Note_on_c, 4, 74, 0
10, 58800, Note_on_c, 4, 76, 76
10, 58847, Note_on_c, 4, 76, 0
10, 58860, Note_on_c, 4, 78, 76
10, 58907, Note_on_c, 4, 78, 0
10, 58920, Note_on_c, 4, 76, 76
10, 58967, Note_on_c, 4, 76, 0
10, 58980, Note_on_c, 4, 78, 76
10, 59027, Note_on_c, 4, 78, 0
10, 59040, Note_on_c, 4, 79, 76
10, 59087, Note_on_c, 4, 79, 0
10, 59100, Note_on_c, 4, 76, 76
10, 59147, Note_on_c, 4, 76, 0
10, 59160, Note_on_c, 4, 69, 76
10, 59207, Note_on_c, 4, 69, 0
10, 59220, Note_on_c, 4, 71, 76
10, 59267, Note_on_c, 4, 71, 0
10, 59280, Note_on_c, 4, 73, 76
10, 59327, Note_on_c, 4, 73, 0
10, 59340, Note_on_c, 4, 74, 76
10, 59387, Note_on_c, 4, 74, 0
10, 59400, Note_on_c, 4, 73, 76
10, 59447, Note_on_c, 4, 73, 0
10, 59460, Note_on_c, 4, 74, 76
10, 59507, Note_on_c, 4, 74, 0
10, 59520, Note_on_c, 4, 76, 76
10, 59567, Note_on_c, 4, 76, 0
10, 59580, Note_on_c, 4, 74, 76
10, 59627, Note_on_c, 4, 74, 0
10, 59640, Note_on_c, 4, 73, 76
10, 59687, Note_on_c, 4, 73, 0
10, 59700, Note_on_c, 4, 74, 76
10, 59747, Note_on_c, 4, 74, 0
10, 59760, Note_on_c, 4, 76, 76
10, 59807, Note_on_c, 4, 76, 0
10, 59820, Note_on_c, 4, 79, 76
10, 59867, Note_on_c, 4, 79, 0
10, 59880, Note_on_c, 4, 78, 76
10, 59927, Note_on_c, 4, 78, 0
10, 59940, Note_on_c, 4, 76, 76
10, 59987, Note_on_c, 4, 76, 0
10, 60000, Note_on_c, 4, 81, 76
10, 60047, Note_on_c, 4, 81, 0
10, 60060, Note_on_c, 4, 79, 76
10, 60107, Note_on_c, 4, 79, 0
10, 60120, Note_on_c, 4, 78, 76
10, 60167, Note_on_c, 4, 78, 0
10, 60180, Note_on_c, 4, 79, 76
10, 60227, Note_on_c, 4, 79, 0
10, 60240, Note_on_c, 4, 81, 76
10, 60287, Note_on_c, 4, 81, 0
10, 60300, Note_on_c, 4, 78, 76
10, 60347, Note_on_c, 4, 78, 0
10, 60360, Note_on_c, 4, 74, 76
10, 60407, Note_on_c, 4, 74, 0
10, 60420, Note_on_c, 4, 78, 76
10, 60467, Note_on_c, 4, 78, 0
10, 60480, Note_on_c, 4, 79, 76
10, 60527, Note_on_c, 4, 79, 0
10, 60540, Note_on_c, 4, 78, 76
10, 60587, Note_on_c, 4, 78, 0
10, 60600, Note_on_c, 4, 76, 76
10, 60647, Note_on_c, 4, 76, 0
10, 60660, Note_on_c, 4, 78, 76
10, 60707, Note_on_c, 4, 78, 0
10, 60720, Note_on_c, 4, 79, 76
10, 60767, Note_on_c, 4, 79, 0
10, 60780, Note_on_c, 4, 83, 76
10, 60827, Note_on_c, 4, 83, 0
10, 60840, Note_on_c, 4, 81, 76
10, 60887, Note_on_c, 4, 81, 0
10, 60900, Note_on_c, 4, 79, 76
10, 60947, Note_on_c, 4, 79, 0
10, 60960, Note_on_c, 4, 78, 76
10, 61064, Note_on_c, 4, 78, 0
10, 61080, Note_on_c, 4, 74, 76
10, 61184, Note_on_c, 4, 74, 0
10, 61200, Note_on_c, 4, 71, 76
10, 61304, Note_on_c, 4, 71, 0
10, 61320, Note_on_c, 4, 76, 76
10, 61424, Note_on_c, 4, 76, 0
10, 61440, Note_on_c, 4, 73, 76
10, 61487, Note_on_c, 4, 73, 0
10, 61500, Note_on_c, 4, 69, 76
10, 61547, Note_on_c, 4, 69, 0
10, 61560, Note_on_c, 4, 71, 76
10, 61607, Note_on_c, 4, 71, 0
10, 61620, Note_on_c, 4, 73, 76
10, 61667, Note_on_c, 4, 73, 0
10, 61680, Note_on_c, 4, 74, 76
10, 61727, Note_on_c, 4, 74, 0
10, 61740, Note_on_c, 4, 76, 76
10, 61787, Note_on_c, 4, 76, 0
10, 61800, Note_on_c, 4, 78, 76
10, 61847, Note_on_c, 4, 78, 0
10, 61860, Note_on_c, 4, 79, 76
10, 61907, Note_on_c, 4, 79, 0
10, 61920, Note_on_c, 4, 78, 76
10, 61967, Note_on_c, 4, 78, 0
10, 61980, Note_on_c, 4, 76, 76
10, 62027, Note_on_c, 4, 76, 0
10, 62040, Note_on_c, 4, 74, 76
10, 62087, Note_on_c, 4, 74, 0
10, 62100, Note_on_c, 4, 76, 76
10, 62147, Note_on_c, 4, 76, 0
10, 62160, Note_on_c, 4, 69, 76
10, 62264, Note_on_c, 4, 69, 0
10, 62280, Note_on_c, 4, 73, 76
10, 62384, Note_on_c, 4, 73, 0
10, 62400, Note_on_c, 4, 74, 76
10, 62519, Note_on_c, 4, 74, 0
10, 70080, Note_on_c, 4, 76, 52
10, 71264, Note_on_c, 4, 76, 0
10, 71280, Note_on_c, 4, 73, 52
10, 71504, Note_on_c, 4, 73, 0
10, 71520, Note_on_c, 4, 75, 52
10, 72944, Note_on_c, 4, 75, 0
10, 72960, Note_on_c, 4, 74, 52
10, 74384, Note_on_c, 4, 74, 0
10, 74400, Note_on_c, 4, 73, 52
10, 75824, Note_on_c, 4, 73, 0
10, 75840, Note_on_c, 4, 74, 52
10, 75959, Note_on_c, 4, 74, 0
10, 77880, Note_on_c, 4, 73, 76
10, 77927, Note_on_c, 4, 73, 0
10, 77940, Note_on_c, 4, 74, 76
10, 77987, Note_on_c, 4, 74, 0
10, 78000, Note_on_c, 4, 76, 76
10, 78047, Note_on_c, 4, 76, 0
10, 78060, Note_on_c, 4, 78, 76
10, 78107, Note_on_c, 4, 78, 0
10, 78120, Note_on_c, 4, 76, 76
10, 78167, Note_on_c, 4, 76, 0
10, 78180, Note_on_c, 4, 78, 76
10, 78227, Note_on_c, 4, 78, 0
10, 78240, Note_on_c, 4, 79, 76
10, 78287, Note_on_c, 4, 79, 0
10, 78300, Note_on_c, 4, 76, 76
10, 78347, Note_on_c, 4, 76, 0
10, 78360, Note_on_c, 4, 69, 76
10, 78407, Note_on_c, 4, 69, 0
10, 78420, Note_on_c, 4, 71, 76
10, 78467, Note_on_c, 4, 71, 0
10, 78480, Note_on_c, 4, 73, 76
10, 78527, Note_on_c, 4, 73, 0
10, 78540, Note_on_c, 4, 74, 76
10, 78587, Note_on_c, 4, 74, 0
10, 78600, Note_on_c, 4, 73, 76
10, 78647, Note_on_c, 4, 73, 0
10, 78660, Note_on_c, 4, 74, 76
10, 78707, Note_on_c, 4, 74, 0
10, 78720, Note_on_c, 4, 76, 76
10, 78767, Note_on_c, 4, 76, 0
10, 78780, Note_on_c, 4, 74, 76
10, 78827, Note_on_c, 4, 74, 0
10, 78840, Note_on_c, 4, 73, 76
10, 78887, Note_on_c, 4, 73, 0
10, 78900, Note_on_c, 4, 74, 76
10, 78947, Note_on_c, 4, 74, 0
10, 78960, Note_on_c, 4, 76, 76
10, 79007, Note_on_c, 4, 76, 0
10, 79020, Note_on_c, 4, 74, 76
10, 79067, Note_on_c, 4, 74, 0
10, 79080, Note_on_c, 4, 73, 76
10, 79127, Note_on_c, 4, 73, 0
10, 79140, Note_on_c, 4, 71, 76
10, 79187, Note_on_c, 4, 71, 0
10, 79200, Note_on_c, 4, 69, 76
10, 79304, Note_on_c, 4, 69, 0
10, 79320, Note_on_c, 4, 78, 76
10, 79424, Note_on_c, 4, 78, 0
10, 79440, Note_on_c, 4, 71, 76
10, 79544, Note_on_c, 4, 71, 0
10, 79560, Note_on_c, 4, 75, 76
10, 79784, Note_on_c, 4, 75, 0
10, 79800, Note_on_c, 4, 78, 76
10, 79904, Note_on_c, 4, 78, 0
10, 79920, Note_on_c, 4, 69, 76
10, 80024, Note_on_c, 4, 69, 0
10, 80040, Note_on_c, 4, 75, 76
10, 80264, Note_on_c, 4, 75, 0
10, 80280, Note_on_c, 4, 78, 76
10, 80384, Note_on_c, 4, 78, 0
10, 80400, Note_on_c, 4, 71, 76
10, 80504, Note_on_c, 4, 71, 0
10, 80520, Note_on_c, 4, 75, 76
10, 80624, Note_on_c, 4, 75, 0
10, 80640, Note_on_c, 4, 76, 76
10, 80744, Note_on_c, 4, 76, 0
10, 80760, Note_on_c, 4, 64, 76
10, 80807, Note_on_c, 4, 64, 0
10, 80820, Note_on_c, 4, 66, 76
10, 80867, Note_on_c, 4, 66, 0
10, 80880, Note_on_c, 4, 68, 76
10, 80984, Note_on_c, 4, 68, 0
10, 81000, Note_on_c, 4, 68, 76
10, 81047, Note_on_c, 4, 68, 0
10, 81060, Note_on_c, 4, 69, 76
10, 81107, Note_on_c, 4, 69, 0
10, 81120, Note_on_c, 4, 71, 76
10, 81224, Note_on_c, 4, 71, 0
10, 81240, Note_on_c, 4, 68, 76
10, 81287, Note_on_c, 4, 68, 0
10, 81300, Note_on_c, 4, 69, 76
10, 81347, Note_on_c, 4, 69, 0
10, 81360, Note_on_c, 4, 71, 76
10, 81464, Note_on_c, 4, 71, 0
10, 81480, Note_on_c, 4, 71, 76
10, 81527, Note_on_c, 4, 71, 0
10, 81540, Note_on_c, 4, 73, 76
10, 81587, Note_on_c, 4, 73, 0
10, 81600, Note_on_c, 4, 74, 76
10, 81704, Note_on_c, 4, 74, 0
10, 81720, Note_on_c, 4, 74, 76
10, 81767, Note_on_c, 4, 74, 0
10, 81780, Note_on_c, 4, 73, 76
10, 81827, Note_on_c, 4, 73, 0
10, 81840, Note_on_c, 4, 74, 76
10, 81944, Note_on_c, 4, 74, 0
10, 81960, Note_on_c, 4, 76, 76
10, 82007, Note_on_c, 4, 76, 0
10, 82020, Note_on_c, 4, 74, 76
10, 82067, Note_on_c, 4, 74, 0
10, 82080, Note_on_c, 4, 73, 76
10, 82184, Note_on_c, 4, 73, 0
10, 82200, Note_on_c, 4, 73, 76
10, 82247, Note_on_c, 4, 73, 0
10, 82260, Note_on_c, 4, 71, 76
10, 82307, Note_on_c, 4, 71, 0
10, 82320, Note_on_c, 4, 73, 76
10, 82424, Note_on_c, 4, 73, 0
10, 82440, Note_on_c, 4, 74, 76
10, 82487, Note_on_c, 4, 74, 0
10, 82500, Note_on_c, 4, 73, 76
10, 82547, Note_on_c, 4, 73, 0
10, 82560, Note_on_c, 4, 71, 76
10, 82664, Note_on_c, 4, 71, 0
10, 82680, Note_on_c, 4, 71, 76
10, 82727, Note_on_c, 4, 71, 0
10, 82740, Note_on_c, 4, 69, 76
10, 82787, Note_on_c, 4, 69, 0
10, 82800, Note_on_c, 4, 71, 76
10, 82904, Note_on_c, 4, 71, 0
10, 82920, Note_on_c, 4, 73, 76
10, 82967, Note_on_c, 4, 73, 0
10, 82980, Note_on_c, 4, 71, 76
10, 83027, Note_on_c, 4, 71, 0
10, 83040, Note_on_c, 4, 69, 76
10, 83144, Note_on_c, 4, 69, 0
10, 83160, Note_on_c, 4, 69, 76
10, 83207, Note_on_c, 4, 69, 0
10, 83220, Note_on_c, 4, 71, 76
10, 83267, Note_on_c, 4, 71, 0
10, 83280, Note_on_c, 4, 73, 76
10, 83384, Note_on_c, 4, 73, 0
10, 83400, Note_on_c, 4, 73, 76
10, 83447, Note_on_c, 4, 73, 0
10, 83460, Note_on_c, 4, 74, 76
10, 83507, Note_on_c, 4, 74, 0
10, 83520, Note_on_c, 4, 76, 76
10, 83624, Note_on_c, 4, 76, 0
10, 83640, Note_on_c, 4, 73, 76
10, 83687, Note_on_c, 4, 73, 0
10, 83700, Note_on_c, 4, 74, 76
10, 83747, Note_on_c, 4, 74, 0
10, 83760, Note_on_c, 4, 76, 76
10, 83864, Note_on_c, 4, 76, 0
10, 83880, Note_on_c, 4, 76, 76
10, 83927, Note_on_c, 4, 76, 0
10, 83940, Note_on_c, 4, 78, 76
10, 83987, Note_on_c, 4, 78, 0
10, 84000, Note_on_c, 4, 79, 76
10, 84104, Note_on_c, 4, 79, 0
10, 84120, Note_on_c, 4, 79, 76
10, 84167, Note_on_c, 4, 79, 0
10, 84180, Note_on_c, 4, 78, 76
10, 84227, Note_on_c, 4, 78, 0
10, 84240, Note_on_c, 4, 79, 76
10, 84344, Note_on_c, 4, 79, 0
10, 84360, Note_on_c, 4, 81, 76
10, 84407, Note_on_c, 4, 81, 0
10, 84420, Note_on_c, 4, 79, 76
10, 84467, Note_on_c, 4, 79, 0
10, 84480, Note_on_c, 4, 78, 76
10, 84527, Note_on_c, 4, 78, 0
10, 84540, Note_on_c, 4, 74, 76
10, 84587, Note_on_c, 4, 74, 0
10, 84600, Note_on_c, 4, 71, 76
10, 84647, Note_on_c, 4, 71, 0
10, 84660, Note_on_c, 4, 73, 76
10, 84707, Note_on_c, 4, 73, 0
10, 84720, Note_on_c, 4, 74, 76
10, 84767, Note_on_c, 4, 74, 0
10, 84780, Note_on_c, 4, 76, 76
10, 84827, Note_on_c, 4, 76, 0
10, 84840, Note_on_c, 4, 73, 76
10, 84887, Note_on_c, 4, 73, 0
10, 84900, Note_on_c, 4, 74, 76
10, 84947, Note_on_c, 4, 74, 0
10, 84960, Note_on_c, 4, 76, 76
10, 85007, Note_on_c, 4, 76, 0
10, 85020, Note_on_c, 4, 73, 76
10, 85067, Note_on_c, 4, 73, 0
10, 85080, Note_on_c, 4, 70, 76
10, 85127, Note_on_c, 4, 70, 0
10, 85140, Note_on_c, 4, 71, 76
10, 85187, Note_on_c, 4, 71, 0
10, 85200, Note_on_c, 4, 73, 76
10, 85247, Note_on_c, 4, 73, 0
10, 85260, Note_on_c, 4, 74, 76
10, 85307, Note_on_c, 4, 74, 0
10, 85320, Note_on_c, 4, 71, 76
10, 85367, Note_on_c, 4, 71, 0
10, 85380, Note_on_c, 4, 73, 76
10, 85427, Note_on_c, 4, 73, 0
10, 85440, Note_on_c, 4, 74, 76
10, 85487, Note_on_c, 4, 74, 0
10, 85500, Note_on_c, 4, 76, 76
10, 85547, Note_on_c, 4, 76, 0
10, 85560, Note_on_c, 4, 73, 76
10, 85607, Note_on_c, 4, 73, 0
10, 85620, Note_on_c, 4, 74, 76
10, 85667, Note_on_c, 4, 74, 0
10, 85680, Note_on_c, 4, 76, 76
10, 85727, Note_on_c, 4, 76, 0
10, 85740, Note_on_c, 4, 74, 76
10, 85787, Note_on_c, 4, 74, 0
10, 85800, Note_on_c, 4, 73, 76
10, 85847, Note_on_c, 4, 73, 0
10, 85860, Note_on_c, 4, 71, 76
10, 85907, Note_on_c, 4, 71, 0
10, 85920, Note_on_c, 4, 78, 76
10, 86024, Note_on_c, 4, 78, 0
10, 86040, Note_on_c, 4, 78, 76
10, 86144, Note_on_c, 4, 78, 0
10, 86160, Note_on_c, 4, 78, 76
10, 86264, Note_on_c, 4, 78, 0
10, 86280, Note_on_c, 4, 78, 76
10, 86384, Note_on_c, 4, 78, 0
10, 86400, Note_on_c, 4, 78, 76
10, 86504, Note_on_c, 4, 78, 0
10, 86520, Note_on_c, 4, 78, 76
10, 86624, Note_on_c, 4, 78, 0
10, 86640, Note_on_c, 4, 78, 76
10, 86744, Note_on_c, 4, 78, 0
10, 86760, Note_on_c, 4, 78, 76
10, 86864, Note_on_c, 4, 78, 0
10, 86880, Note_on_c, 4, 78, 76
10, 86984, Note_on_c, 4, 78, 0
10, 87000, Note_on_c, 4, 78, 76
10, 87104, Note_on_c, 4, 78, 0
10, 87120, Note_on_c, 4, 78, 76
10, 87224, Note_on_c, 4, 78, 0
10, 87240, Note_on_c, 4, 78, 76
10, 87344, Note_on_c, 4, 78, 0
10, 87360, Note_on_c, 4, 78, 76
10, 87407, Note_on_c, 4, 78, 0
10, 87420, Note_on_c, 4, 76, 76
10, 87467, Note_on_c, 4, 76, 0
10, 87480, Note_on_c, 4, 78, 76
10, 87527, Note_on_c, 4, 78, 0
10, 87540, Note_on_c, 4, 79, 76
10, 87587, Note_on_c, 4, 79, 0
10, 87600, Note_on_c, 4, 78, 76
10, 87647, Note_on_c, 4, 78, 0
10, 87660, Note_on_c, 4, 83, 76
10, 87707, Note_on_c, 4, 83, 0
10, 87720, Note_on_c, 4, 82, 76
10, 87767, Note_on_c, 4, 82, 0
10, 87780, Note_on_c, 4, 83, 76
10, 87827, Note_on_c, 4, 83, 0
10, 87840, Note_on_c, 4, 76, 76
10, 87887, Note_on_c, 4, 76, 0
10, 87900, Note_on_c, 4, 74, 76
10, 87947, Note_on_c, 4, 74, 0
10, 87960, Note_on_c, 4, 76, 76
10, 88007, Note_on_c, 4, 76, 0
10, 88020, Note_on_c, 4, 78, 76
10, 88067, Note_on_c, 4, 78, 0
10, 88080, Note_on_c, 4, 76, 76
10, 88127, Note_on_c, 4, 76, 0
10, 88140, Note_on_c, 4, 79, 76
10, 88187, Note_on_c, 4, 79, 0
10, 88200, Note_on_c, 4, 78, 76
10, 88247, Note_on_c, 4, 78, 0
10, 88260, Note_on_c, 4, 76, 76
10, 88307, Note_on_c, 4, 76, 0
10, 88320, Note_on_c, 4, 74, 76
10, 88424, Note_on_c, 4, 74, 0
10, 88440, Note_on_c, 4, 78, 76
10, 88544, Note_on_c, 4, 78, 0
10, 88560, Note_on_c, 4, 79, 76
10, 88664, Note_on_c, 4, 79, 0
10, 88680, Note_on_c, 4, 71, 76
10, 88784, Note_on_c, 4, 71, 0
10, 88800, Note_on_c, 4, 70, 76
10, 88847, Note_on_c, 4, 70, 0
10, 88860, Note_on_c, 4, 66, 76
10, 88907, Note_on_c, 4, 66, 0
10, 88920, Note_on_c, 4, 68, 76
10, 88967, Note_on_c, 4, 68, 0
10, 88980, Note_on_c, 4, 70, 76
10, 89027, Note_on_c, 4, 70, 0
10, 89040, Note_on_c, 4, 71, 76
10, 89087, Note_on_c, 4, 71, 0
10, 89100, Note_on_c, 4, 73, 76
10, 89147, Note_on_c, 4, 73, 0
10, 89160, Note_on_c, 4, 74, 76
10, 89207, Note_on_c, 4, 74, 0
10, 89220, Note_on_c, 4, 76, 76
10, 89267, Note_on_c, 4, 76, 0
10, 89280, Note_on_c, 4, 78, 76
10, 89327, Note_on_c, 4, 78, 0
10, 89340, Note_on_c, 4, 79, 76
10, 89387, Note_on_c, 4, 79, 0
10, 89400, Note_on_c, 4, 78, 76
10, 89447, Note_on_c, 4, 78, 0
10, 89460, Note_on_c, 4, 76, 76
10, 89507, Note_on_c, 4, 76, 0
10, 89520, Note_on_c, 4, 74, 76
10, 89567, Note_on_c, 4, 74, 0
10, 89580, Note_on_c, 4, 73, 76
10, 89627, Note_on_c, 4, 73, 0
10, 89640, Note_on_c, 4, 71, 76
10, 89687, Note_on_c, 4, 71, 0
10, 89700, Note_on_c, 4, 70, 76
10, 89747, Note_on_c, 4, 70, 0
10, 89760, Note_on_c, 4, 71, 76
10, 89864, Note_on_c, 4, 71, 0
10, 89880, Note_on_c, 4, 73, 76
10, 89984, Note_on_c, 4, 73, 0
10, 90000, Note_on_c, 4, 66, 76
10, 90104, Note_on_c, 4, 66, 0
10, 90120, Note_on_c, 4, 70, 76
10, 90224, Note_on_c, 4, 70, 0
10, 90240, Note_on_c, 4, 71, 76
10, 90359, Note_on_c, 4, 71, 0
10, 95880, Note_on_c, 4, 79, 76
10, 95984, Note_on_c, 4, 79, 0
10, 96000, Note_on_c, 4, 78, 76
10, 96119, Note_on_c, 4, 78, 0
10, 96360, Note_on_c, 4, 78, 76
10, 96464, Note_on_c, 4, 78, 0
10, 96480, Note_on_c, 4, 76, 76
10, 96599, Note_on_c, 4, 76, 0
10, 96840, Note_on_c, 4, 76, 76
10, 96944, Note_on_c, 4, 76, 0
10, 96960, Note_on_c, 4, 74, 76
10, 97079, Note_on_c, 4, 74, 0
10, 97320, Note_on_c, 4, 74, 76
10, 97424, Note_on_c, 4, 74, 0
10, 97440, Note_on_c, 4, 73, 76
10, 97529, Note_on_c, 4, 73, 0
10, 97560, Note_on_c, 4, 76, 76
10, 97649, Note_on_c, 4, 76, 0
10, 97680, Note_on_c, 4, 74, 76
10, 97769, Note_on_c, 4, 74, 0
10, 97800, Note_on_c, 4, 78, 76
10, 97889, Note_on_c, 4, 78, 0
10, 97920, Note_on_c, 4, 76, 76
10, 98024, Note_on_c, 4, 76, 0
10, 98040, Note_on_c, 4, 79, 76
10, 98144, Note_on_c, 4, 79, 0
10, 98160, Note_on_c, 4, 78, 76
10, 98264, Note_on_c, 4, 78, 0
10, 98280, Note_on_c, 4, 81, 76
10, 98384, Note_on_c, 4, 81, 0
10, 98400, Note_on_c, 4, 73, 76
10, 98504, Note_on_c, 4, 73, 0
10, 98520, Note_on_c, 4, 76, 76
10, 98624, Note_on_c, 4, 76, 0
10, 98640, Note_on_c, 4, 69, 76
10, 98744, Note_on_c, 4, 69, 0
10, 98760, Note_on_c, 4, 73, 76
10, 98864, Note_on_c, 4, 73, 0
10, 98880, Note_on_c, 4, 74, 76
10, 98984, Note_on_c, 4, 74, 0
10, 99000, Note_on_c, 4, 71, 76
10, 99104, Note_on_c, 4, 71, 0
10, 99120, Note_on_c, 4, 68, 76
10, 99224, Note_on_c, 4, 68, 0
10, 99240, Note_on_c, 4, 71, 76
10, 99344, Note_on_c, 4, 71, 0
10, 99360, Note_on_c, 4, 73, 76
10, 99479, Note_on_c, 4, 73, 0
10, 101280, Note_on_c, 4, 74, 52
10, 102464, Note_on_c, 4, 74, 0
10, 102480, Note_on_c, 4, 71, 52
10, 102704, Note_on_c, 4, 71, 0
10, 102720, Note_on_c, 4, 73, 52
10, 104144, Note_on_c, 4, 73, 0
10, 104160, Note_on_c, 4, 72, 52
10, 105224, Note_on_c, 4, 72, 0
10, 105240, Note_on_c, 4, 69, 52
10, 105344, Note_on_c, 4, 69, 0
10, 105360, Note_on_c, 4, 66, 52
10, 105464, Note_on_c, 4, 66, 0
10, 105480, Note_on_c, 4, 62, 52
10, 105584, Note_on_c, 4, 62, 0
10, 105600, Note_on_c, 4, 71, 52
10, 105719, Note_on_c, 4, 71, 0
10, 107640, Note_on_c, 4, 69, 76
10, 107687, Note_on_c, 4, 69, 0
10, 107700, Note_on_c, 4, 71, 76
10, 107747, Note_on_c, 4, 71, 0
10, 107760, Note_on_c, 4, 73, 76
10, 107864, Note_on_c, 4, 73, 0
10, 107880, Note_on_c, 4, 73, 76
10, 107927, Note_on_c, 4, 73, 0
10, 107940, Note_on_c, 4, 74, 76
10, 107987, Note_on_c, 4, 74, 0
10, 108000, Note_on_c, 4, 76, 76
10, 108104, Note_on_c, 4, 76, 0
10, 108120, Note_on_c, 4, 73, 76
10, 108167, Note_on_c, 4, 73, 0
10, 108180, Note_on_c, 4, 74, 76
10, 108227, Note_on_c, 4, 74, 0
10, 108240, Note_on_c, 4, 76, 76
10, 108344, Note_on_c, 4, 76, 0
10, 108360, Note_on_c, 4, 76, 76
10, 108407, Note_on_c, 4, 76, 0
10, 108420, Note_on_c, 4, 78, 76
10, 108467, Note_on_c, 4, 78, 0
10, 108480, Note_on_c, 4, 79, 76
10, 108584, Note_on_c, 4, 79, 0
10, 108600, Note_on_c, 4, 79, 76
10, 108647, Note_on_c, 4, 79, 0
10, 108660, Note_on_c, 4, 78, 76
10, 108707, Note_on_c, 4, 78, 0
10, 108720, Note_on_c, 4, 79, 76
10, 108824, Note_on_c, 4, 79, 0
10, 108840, Note_on_c, 4, 81, 76
10, 108887, Note_on_c, 4, 81, 0
10, 108900, Note_on_c, 4, 79, 76
10, 108947, Note_on_c, 4, 79, 0
10, 108960, Note_on_c, 4, 78, 76
10, 109064, Note_on_c, 4, 78, 0
10, 109080, Note_on_c, 4, 81, 76
10, 109184, Note_on_c, 4, 81, 0
10, 109200, Note_on_c, 4, 74, 76
10, 109304, Note_on_c, 4, 74, 0
10, 109320, Note_on_c, 4, 78, 76
10, 109544, Note_on_c, 4, 78, 0
10, 109560, Note_on_c, 4, 81, 76
10, 109664, Note_on_c, 4, 81, 0
10, 109680, Note_on_c, 4, 72, 76
10, 109784, Note_on_c, 4, 72, 0
10, 109800, Note_on_c, 4, 78, 76
10, 110024, Note_on_c, 4, 78, 0
10, 110040, Note_on_c, 4, 81, 76
10, 110144, Note_on_c, 4, 81, 0
10, 110160, Note_on_c, 4, 74, 76
10, 110264, Note_on_c, 4, 74, 0
10, 110280, Note_on_c, 4, 78, 76
10, 110384, Note_on_c, 4, 78, 0
10, 110400, Note_on_c, 4, 79, 76
10, 110504, Note_on_c, 4, 79, 0
10, 110520, Note_on_c, 4, 83, 76
10, 110624, Note_on_c, 4, 83, 0
10, 110640, Note_on_c, 4, 74, 76
10, 110744, Note_on_c, 4, 74, 0
10, 110760, Note_on_c, 4, 80, 76
10, 110984, Note_on_c, 4, 80, 0
10, 111000, Note_on_c, 4, 83, 76
10, 111104, Note_on_c, 4, 83, 0
10, 111120, Note_on_c, 4, 76, 76
10, 111224, Note_on_c, 4, 76, 0
10, 111240, Note_on_c, 4, 80, 76
10, 111344, Note_on_c, 4, 80, 0
10, 111360, Note_on_c, 4, 81, 76
10, 111407, Note_on_c, 4, 81, 0
10, 111420, Note_on_c, 4, 76, 76
10, 111467, Note_on_c, 4, 76, 0
10, 111480, Note_on_c, 4, 73, 76
10, 111527, Note_on_c, 4, 73, 0
10, 111540, Note_on_c, 4, 74, 76
10, 111587, Note_on_c, 4, 74, 0
10, 111600, Note_on_c, 4, 76, 76
10, 111647, Note_on_c, 4, 76, 0
10, 111660, Note_on_c, 4, 78, 76
10, 111707, Note_on_c, 4, 78, 0
10, 111720, Note_on_c, 4, 76, 76
10, 111767, Note_on_c, 4, 76, 0
10, 111780, Note_on_c, 4, 78, 76
10, 111827, Note_on_c, 4, 78, 0
10, 111840, Note_on_c, 4, 79, 76
10, 111887, Note_on_c, 4, 79, 0
10, 111900, Note_on_c, 4, 76, 76
10, 111947, Note_on_c, 4, 76, 0
10, 111960, Note_on_c, 4, 69, 76
10, 112007, Note_on_c, 4, 69, 0
10, 112020, Note_on_c, 4, 71, 76
10, 112067, Note_on_c, 4, 71, 0
10, 112080, Note_on_c, 4, 73, 76
10, 112127, Note_on_c, 4, 73, 0
10, 112140, Note_on_c, 4, 74, 76
10, 112187, Note_on_c, 4, 74, 0
10, 112200, Note_on_c, 4, 73, 76
10, 112247, Note_on_c, 4, 73, 0
10, 112260, Note_on_c, 4, 74, 76
10, 112307, Note_on_c, 4, 74, 0
10, 112320, Note_on_c, 4, 76, 76
10, 112367, Note_on_c, 4, 76, 0
10, 112380, Note_on_c, 4, 74, 76
10, 112427, Note_on_c, 4, 74, 0
10, 112440, Note_on_c, 4, 73, 76
10, 112487, Note_on_c, 4, 73, 0
10, 112500, Note_on_c, 4, 74, 76
10, 112547, Note_on_c, 4, 74, 0
10, 112560, Note_on_c, 4, 76, 76
10, 112607, Note_on_c, 4, 76, 0
10, 112620, Note_on_c, 4, 74, 76
10, 112667, Note_on_c, 4, 74, 0
10, 112680, Note_on_c, 4, 73, 76
10, 112727, Note_on_c, 4, 73, 0
10, 112740, Note_on_c, 4, 71, 76
10, 112787, Note_on_c, 4, 71, 0
10, 112800, Note_on_c, 4, 69, 76
10, 112847, Note_on_c, 4, 69, 0
10, 112860, Note_on_c, 4, 74, 76
10, 112907, Note_on_c, 4, 74, 0
10, 112920, Note_on_c, 4, 73, 76
10, 112967, Note_on_c, 4, 73, 0
10, 112980, Note_on_c, 4, 71, 76
10, 113027, Note_on_c, 4, 71, 0
10, 113040, Note_on_c, 4, 69, 76
10, 113087, Note_on_c, 4, 69, 0
10, 113100, Note_on_c, 4, 67, 76
10, 113147, Note_on_c, 4, 67, 0
10, 113160, Note_on_c, 4, 66, 76
10, 113207, Note_on_c, 4, 66, 0
10, 113220, Note_on_c, 4, 64, 76
10, 113267, Note_on_c, 4, 64, 0
10, 113280, Note_on_c, 4, 62, 76
10, 113384, Note_on_c, 4, 62, 0
10, 113400, Note_on_c, 4, 74, 76
10, 113504, Note_on_c, 4, 74, 0
10, 113520, Note_on_c, 4, 74, 76
10, 113624, Note_on_c, 4, 74, 0
10, 113640, Note_on_c, 4, 74, 76
10, 113744, Note_on_c, 4, 74, 0
10, 113760, Note_on_c, 4, 74, 76
10, 113864, Note_on_c, 4, 74, 0
10, 113880, Note_on_c, 4, 74, 76
10, 113984, Note_on_c, 4, 74, 0
10, 114000, Note_on_c, 4, 74, 76
10, 114104, Note_on_c, 4, 74, 0
10, 114120, Note_on_c, 4, 74, 76
10, 114224, Note_on_c, 4, 74, 0
10, 114240, Note_on_c, 4, 74, 76
10, 114344, Note_on_c, 4, 74, 0
10, 114360, Note_on_c, 4, 76, 76
10, 114464, Note_on_c, 4, 76, 0
10, 114480, Note_on_c, 4, 76, 76
10, 114584, Note_on_c, 4, 76, 0
10, 114600, Note_on_c, 4, 76, 76
10, 114704, Note_on_c, 4, 76, 0
10, 114720, Note_on_c, 4, 76, 76
10, 114824, Note_on_c, 4, 76, 0
10, 114840, Note_on_c, 4, 76, 76
10, 114944, Note_on_c, 4, 76, 0
10, 114960, Note_on_c, 4, 76, 76
10, 115064, Note_on_c, 4, 76, 0
10, 115080, Note_on_c, 4, 76, 76
10, 115184, Note_on_c, 4, 76, 0
10, 115200, Note_on_c, 4, 76, 76
10, 115304, Note_on_c, 4, 76, 0
10, 115320, Note_on_c, 4, 76, 76
10, 115424, Note_on_c, 4, 76, 0
10, 115440, Note_on_c, 4, 76, 76
10, 115544, Note_on_c, 4, 76, 0
10, 115560, Note_on_c, 4, 76, 76
10, 115664, Note_on_c, 4, 76, 0
10, 115680, Note_on_c, 4, 76, 76
10, 115784, Note_on_c, 4, 76, 0
10, 115800, Note_on_c, 4, 69, 76
10, 115847, Note_on_c, 4, 69, 0
10, 115860, Note_on_c, 4, 71, 76
10, 115907, Note_on_c, 4, 71, 0
10, 115920, Note_on_c, 4, 73, 76
10, 116024, Note_on_c, 4, 73, 0
10, 116040, Note_on_c, 4, 73, 76
10, 116087, Note_on_c, 4, 73, 0
10, 116100, Note_on_c, 4, 74, 76
10, 116147, Note_on_c, 4, 74, 0
10, 116160, Note_on_c, 4, 76, 76
10, 116264, Note_on_c, 4, 76, 0
10, 116280, Note_on_c, 4, 73, 76
10, 116327, Note_on_c, 4, 73, 0
10, 116340, Note_on_c, 4, 74, 76
10, 116387, Note_on_c, 4, 74, 0
10, 116400, Note_on_c, 4, 76, 76
10, 116504, Note_on_c, 4, 76, 0
10, 116520, Note_on_c, 4, 76, 76
10, 116567, Note_on_c, 4, 76, 0
10, 116580, Note_on_c, 4, 78, 76
10, 116627, Note_on_c, 4, 78, 0
10, 116640, Note_on_c, 4, 79, 76
10, 116744, Note_on_c, 4, 79, 0
10, 116760, Note_on_c, 4, 79, 76
10, 116807, Note_on_c, 4, 79, 0
10, 116820, Note_on_c, 4, 78, 76
10, 116867, Note_on_c, 4, 78, 0
10, 116880, Note_on_c, 4, 79, 76
10, 116984, Note_on_c, 4, 79, 0
10, 117000, Note_on_c, 4, 81, 76
10, 117047, Note_on_c, 4, 81, 0
10, 117060, Note_on_c, 4, 79, 76
10, 117107, Note_on_c, 4, 79, 0
10, 117120, Note_on_c, 4, 78, 76
10, 117224, Note_on_c, 4, 78, 0
10, 117240, Note_on_c, 4, 78, 76
10, 117287, Note_on_c, 4, 78, 0
10, 117300, Note_on_c, 4, 76, 76
10, 117347, Note_on_c, 4, 76, 0
10, 117360, Note_on_c, 4, 78, 76
10, 117464, Note_on_c, 4, 78, 0
10, 117480, Note_on_c, 4, 79, 76
10, 117527, Note_on_c, 4, 79, 0
10, 117540, Note_on_c, 4, 78, 76
10, 117587, Note_on_c, 4, 78, 0
10, 117600, Note_on_c, 4, 76, 76
10, 117704, Note_on_c, 4, 76, 0
10, 117720, Note_on_c, 4, 76, 76
10, 117767, Note_on_c, 4, 76, 0
10, 117780, Note_on_c, 4, 74, 76
10, 117827, Note_on_c, 4, 74, 0
10, 117840, Note_on_c, 4, 76, 76
10, 117944, Note_on_c, 4, 76, 0
10, 117960, Note_on_c, 4, 78, 76
10, 118007, Note_on_c, 4, 78, 0
10, 118020, Note_on_c, 4, 76, 76
10, 118067, Note_on_c, 4, 76, 0
10, 118080, Note_on_c, 4, 74, 76
10, 118184, Note_on_c, 4, 74, 0
10, 118200, Note_on_c, 4, 74, 76
10, 118247, Note_on_c, 4, 74, 0
10, 118260, Note_on_c, 4, 76, 76
10, 118307, Note_on_c, 4, 76, 0
10, 118320, Note_on_c, 4, 78, 76
10, 118424, Note_on_c, 4, 78, 0
10, 118440, Note_on_c, 4, 78, 76
10, 118487, Note_on_c, 4, 78, 0
10, 118500, Note_on_c, 4, 79, 76
10, 118547, Note_on_c, 4, 79, 0
10, 118560, Note_on_c, 4, 81, 76
10, 118664, Note_on_c, 4, 81, 0
10, 118680, Note_on_c, 4, 78, 76
10, 118727, Note_on_c, 4, 78, 0
10, 118740, Note_on_c, 4, 79, 76
10, 118787, Note_on_c, 4, 79, 0
10, 118800, Note_on_c, 4, 81, 76
10, 118904, Note_on_c, 4, 81, 0
10, 118920, Note_on_c, 4, 81, 76
10, 118967, Note_on_c, 4, 81, 0
10, 118980, Note_on_c, 4, 83, 76
10, 119027, Note_on_c, 4, 83, 0
10, 119040, Note_on_c, 4, 84, 76
10, 119144, Note_on_c, 4, 84, 0
10, 119160, Note_on_c, 4, 84, 76
10, 119207, Note_on_c, 4, 84, 0
10, 119220, Note_on_c, 4, 83, 76
10, 119267, Note_on_c, 4, 83, 0
10, 119280, Note_on_c, 4, 84, 76
10, 119384, Note_on_c, 4, 84, 0
10, 119400, Note_on_c, 4, 86, 76
10, 119447, Note_on_c, 4, 86, 0
10, 119460, Note_on_c, 4, 84, 76
10, 119507, Note_on_c, 4, 84, 0
10, 119520, Note_on_c, 4, 83, 76
10, 119567, Note_on_c, 4, 83, 0
10, 119580, Note_on_c, 4, 79, 76
10, 119627, Note_on_c, 4, 79, 0
10, 119640, Note_on_c, 4, 76, 76
10, 119687, Note_on_c, 4, 76, 0
10, 119700, Note_on_c, 4, 78, 76
10, 119747, Note_on_c, 4, 78, 0
10, 119760, Note_on_c, 4, 79, 76
10, 119807, Note_on_c, 4, 79, 0
10, 119820, Note_on_c, 4, 81, 76
10, 119867, Note_on_c, 4, 81, 0
10, 119880, Note_on_c, 4, 78, 76
10, 119927, Note_on_c, 4, 78, 0
10, 119940, Note_on_c, 4, 79, 76
10, 119987, Note_on_c, 4, 79, 0
10, 120000, Note_on_c, 4, 81, 76
10, 120047, Note_on_c, 4, 81, 0
10, 120060, Note_on_c, 4, 78, 76
10, 120107, Note_on_c, 4, 78, 0
10, 120120, Note_on_c, 4, 74, 76
10, 120167, Note_on_c, 4, 74, 0
10, 120180, Note_on_c, 4, 76, 76
10, 120227, Note_on_c, 4, 76, 0
10, 120240, Note_on_c, 4, 78, 76
10, 120287, Note_on_c, 4, 78, 0
10, 120300, Note_on_c, 4, 79, 76
10, 120347, Note_on_c, 4, 79, 0
10, 120360, Note_on_c, 4, 76, 76
10, 120407, Note_on_c, 4, 76, 0
10, 120420, Note_on_c, 4, 78, 76
10, 120467, Note_on_c, 4, 78, 0
10, 120480, Note_on_c, 4, 79, 76
10, 120527, Note_on_c, 4, 79, 0
10, 120540, Note_on_c, 4, 78, 76
10, 120587, Note_on_c, 4, 78, 0
10, 120600, Note_on_c, 4, 76, 76
10, 120647, Note_on_c, 4, 76, 0
10, 120660, Note_on_c, 4, 79, 76
10, 120707, Note_on_c, 4, 79, 0
10, 120720, Note_on_c, 4, 78, 76
10, 120767, Note_on_c, 4, 78, 0
10, 120780, Note_on_c, 4, 76, 76
10, 120827, Note_on_c, 4, 76, 0
10, 120840, Note_on_c, 4, 74, 76
10, 120887, Note_on_c, 4, 74, 0
10, 120900, Note_on_c, 4, 78, 76
10, 120947, Note_on_c, 4, 78, 0
10, 120960, Note_on_c, 4, 76, 76
10, 121007, Note_on_c, 4, 76, 0
10, 121020, Note_on_c, 4, 81, 76
10, 121067, Note_on_c, 4, 81, 0
10, 121080, Note_on_c, 4, 73, 76
10, 121127, Note_on_c, 4, 73, 0
10, 121140, Note_on_c, 4, 74, 76
10, 121187, Note_on_c, 4, 74, 0
10, 121200, Note_on_c, 4, 76, 76
10, 121247, Note_on_c, 4, 76, 0
10, 121260, Note_on_c, 4, 78, 76
10, 121307, Note_on_c, 4, 78, 0
10, 121320, Note_on_c, 4, 76, 76
10, 121367, Note_on_c, 4, 76, 0
10, 121380, Note_on_c, 4, 78, 76
10, 121427, Note_on_c, 4, 78, 0
10, 121440, Note_on_c, 4, 79, 76
10, 121487, Note_on_c, 4, 79, 0
10, 121500, Note_on_c, 4, 76, 76
10, 121547, Note_on_c, 4, 76, 0
10, 121560, Note_on_c, 4, 69, 76
10, 121607, Note_on_c, 4, 69, 0
10, 121620, Note_on_c, 4, 71, 76
10, 121667, Note_on_c, 4, 71, 0
10, 121680, Note_on_c, 4, 73, 76
10, 121727, Note_on_c, 4, 73, 0
10, 121740, Note_on_c, 4, 74, 76
10, 121787, Note_on_c, 4, 74, 0
10, 121800, Note_on_c, 4, 73, 76
10, 121847, Note_on_c, 4, 73, 0
10, 121860, Note_on_c, 4, 74, 76
10, 121907, Note_on_c, 4, 74, 0
10, 121920, Note_on_c, 4, 76, 76
10, 121967, Note_on_c, 4, 76, 0
10, 121980, Note_on_c, 4, 74, 76
10, 122027, Note_on_c, 4, 74, 0
10, 122040, Note_on_c, 4, 73, 76
10, 122087, Note_on_c, 4, 73, 0
10, 122100, Note_on_c, 4, 74, 76
10, 122147, Note_on_c, 4, 74, 0
10, 122160, Note_on_c, 4, 76, 76
10, 122207, Note_on_c, 4, 76, 0
10, 122220, Note_on_c, 4, 79, 76
10, 122267, Note_on_c, 4, 79, 0
10, 122280, Note_on_c, 4, 78, 76
10, 122327, Note_on_c, 4, 78, 0
10, 122340, Note_on_c, 4, 76, 76
10, 122387, Note_on_c, 4, 76, 0
10, 122400, Note_on_c, 4, 81, 76
10, 122447, Note_on_c, 4, 81, 0
10, 122460, Note_on_c, 4, 79, 76
10, 122507, Note_on_c, 4, 79, 0
10, 122520, Note_on_c, 4, 78, 76
10, 122567, Note_on_c, 4, 78, 0
10, 122580, Note_on_c, 4, 79, 76
10, 122627, Note_on_c, 4, 79, 0
10, 122640, Note_on_c, 4, 81, 76
10, 122687, Note_on_c, 4, 81, 0
10, 122700, Note_on_c, 4, 78, 76
10, 122747, Note_on_c, 4, 78, 0
10, 122760, Note_on_c, 4, 74, 76
10, 122807, Note_on_c, 4, 74, 0
10, 122820, Note_on_c, 4, 78, 76
10, 122867, Note_on_c, 4, 78, 0
10, 122880, Note_on_c, 4, 79, 76
10, 122927, Note_on_c, 4, 79, 0
10, 122940, Note_on_c, 4, 78, 76
10, 122987, Note_on_c, 4, 78, 0
10, 123000, Note_on_c, 4, 76, 76
10, 123047, Note_on_c, 4, 76, 0
10, 123060, Note_on_c, 4, 78, 76
10, 123107, Note_on_c, 4, 78, 0
10, 123120, Note_on_c, 4, 79, 76
10, 123167, Note_on_c, 4, 79, 0
10, 123180, Note_on_c, 4, 83, 76
10, 123227, Note_on_c, 4, 83, 0
10, 123240, Note_on_c, 4, 81, 76
10, 123287, Note_on_c, 4, 81, 0
10, 123300, Note_on_c, 4, 79, 76
10, 123347, Note_on_c, 4, 79, 0
10, 123360, Note_on_c, 4, 78, 76
10, 123464, Note_on_c, 4, 78, 0
10, 123480, Note_on_c, 4, 74, 76
10, 123584, Note_on_c, 4, 74, 0
10, 123600, Note_on_c, 4, 71, 76
10, 123704, Note_on_c, 4, 71, 0
10, 123720, Note_on_c, 4, 76, 76
10, 123824, Note_on_c, 4, 76, 0
10, 123840, Note_on_c, 4, 73, 76
10, 123887, Note_on_c, 4, 73, 0
10, 123900, Note_on_c, 4, 69, 76
10, 123947, Note_on_c, 4, 69, 0
10, 123960, Note_on_c, 4, 71, 76
10, 124007, Note_on_c, 4, 71, 0
10, 124020, Note_on_c, 4, 73, 76
10, 124067, Note_on_c, 4, 73, 0
10, 124080, Note_on_c, 4, 74, 76
10, 124127, Note_on_c, 4, 74, 0
10, 124140, Note_on_c, 4, 76, 76
10, 124187, Note_on_c, 4, 76, 0
10, 124200, Note_on_c, 4, 78, 76
10, 124247, Note_on_c, 4, 78, 0
10, 124260, Note_on_c, 4, 79, 76
10, 124307, Note_on_c, 4, 79, 0
10, 124320, Note_on_c, 4, 78, 76
10, 124367, Note_on_c, 4, 78, 0
10, 124380, Note_on_c, 4, 76, 76
10, 124427, Note_on_c, 4, 76, 0
10, 124440, Note_on_c, 4, 74, 76
10, 124487, Note_on_c, 4, 74, 0
10, 124500, Note_on_c, 4, 76, 76
10, 124547, Note_on_c, 4, 76, 0
10, 124560, Note_on_c, 4, 69, 76
10, 124664, Note_on_c, 4, 69, 0
10, 124680, Note_on_c, 4, 73, 76
10, 124784, Note_on_c, 4, 73, 0
10, 124800, Note_on_c, 4, 74, 76
10, 125093, Note_on_c, 4, 74, 0
10, 125100, Note_on_c, 4, 76, 76
10, 125153, Note_on_c, 4, 76, 0
10, 125160, Note_on_c, 4, 78, 76
10, 125213, Note_on_c, 4, 78, 0
10, 125220, Note_on_c, 4, 74, 76
10, 125273, Note_on_c, 4, 74, 0
10, 125280, Note_on_c, 4, 69, 76
10, 125573, Note_on_c, 4, 69, 0
10, 125580, Note_on_c, 4, 71, 76
10, 125633, Note_on_c, 4, 71, 0
10, 125640, Note_on_c, 4, 72, 76
10, 125693, Note_on_c, 4, 72, 0
10, 125700, Note_on_c, 4, 69, 76
10, 125753, Note_on_c, 4, 69, 0
10, 125760, Note_on_c, 4, 66, 76
10, 126053, Note_on_c, 4, 66, 0
10, 126060, Note_on_c, 4, 67, 76
10, 126113, Note_on_c, 4, 67, 0
10, 126120, Note_on_c, 4, 69, 76
10, 126173, Note_on_c, 4, 69, 0
10, 126180, Note_on_c, 4, 66, 76
10, 126233, Note_on_c, 4, 66, 0
10, 126240, Note_on_c, 4, 62, 76
10, 126565, Note_on_c, 4, 62, 0
10, 126570, Note_on_c, 4, 64, 76
10, 126595, Note_on_c, 4, 64, 0
10, 126600, Note_on_c, 4, 66, 76
10, 126625, Note_on_c, 4, 66, 0
10, 126630, Note_on_c, 4, 67, 76
10, 126655, Note_on_c, 4, 67, 0
10, 126660, Note_on_c, 4, 69, 76
10, 126685, Note_on_c, 4, 69, 0
10, 126690, Note_on_c, 4, 71, 76
10, 126715, Note_on_c, 4, 71, 0
10, 126720, Note_on_c, 4, 72, 76
10, 126893, Note_on_c, 4, 72, 0
10, 126900, Note_on_c, 4, 72, 76
10, 126953, Note_on_c, 4, 72, 0
10, 126960, Note_on_c, 4, 74, 76
10, 127133, Note_on_c, 4, 74, 0
10, 127140, Note_on_c, 4, 76, 76
10, 127193, Note_on_c, 4, 76, 0
10, 127200, Note_on_c, 4, 74, 76
10, 127373, Note_on_c, 4, 74, 0
10, 127380, Note_on_c, 4, 72, 76
10, 127433, Note_on_c, 4, 72, 0
10, 127440, Note_on_c, 4, 71, 76
10, 127613, Note_on_c, 4, 71, 0
10, 127620, Note_on_c, 4, 69, 76
10, 127673, Note_on_c, 4, 69, 0
10, 127680, Note_on_c, 4, 71, 76
10, 127907, Note_on_c, 4, 71, 0
10, 127920, Note_on_c, 4, 67, 76
10, 128147, Note_on_c, 4, 67, 0
10, 128160, Note_on_c, 4, 71, 76
10, 128507, Note_on_c, 4, 71, 0
10, 128520, Note_on_c, 4, 73, 76
10, 128627, Note_on_c, 4, 73, 0
10, 128640, Note_on_c, 4, 74, 76
10, 128933, Note_on_c, 4, 74, 0
10, 128940, Note_on_c, 4, 73, 76
10, 128993, Note_on_c, 4, 73, 0
10, 129000, Note_on_c, 4, 74, 76
10, 129053, Note_on_c, 4, 74, 0
10, 129060, Note_on_c, 4, 76, 76
10, 129113, Note_on_c, 4, 76, 0
10, 129120, Note_on_c, 4, 75, 76
10, 129134, Note_on_c, 4, 75, 0
10, 129135, Note_on_c, 4, 76, 76
10, 129149, Note_on_c, 4, 76, 0
10, 129150, Note_on_c, 4, 75, 76
10, 129164, Note_on_c, 4, 75, 0
10, 129165, Note_on_c, 4, 76, 76
10, 129179, Note_on_c, 4, 76, 0
10, 129180, Note_on_c, 4, 75, 76
10, 129194, Note_on_c, 4, 75, 0
10, 129195, Note_on_c, 4, 76, 76
10, 129209, Note_on_c, 4, 76, 0
10, 129210, Note_on_c, 4, 75, 76
10, 129224, Note_on_c, 4, 75, 0
10, 129225, Note_on_c, 4, 76, 76
10, 129239, Note_on_c, 4, 76, 0
10, 129240, Note_on_c, 4, 75, 76
10, 129254, Note_on_c, 4, 75, 0
10, 129255, Note_on_c, 4, 76, 76
10, 129269, Note_on_c, 4, 76, 0
10, 129270, Note_on_c, 4, 75, 76
10, 129284, Note_on_c, 4, 75, 0
10, 129285, Note_on_c, 4, 76, 76
10, 129299, Note_on_c, 4, 76, 0
10, 129300, Note_on_c, 4, 75, 76
10, 129314, Note_on_c, 4, 75, 0
10, 129315, Note_on_c, 4, 76, 76
10, 129329, Note_on_c, 4, 76, 0
10, 129330, Note_on_c, 4, 75, 76
10, 129344, Note_on_c, 4, 75, 0
10, 129345, Note_on_c, 4, 76, 76
10, 129359, Note_on_c, 4, 76, 0
10, 129360, Note_on_c, 4, 75, 76
10, 129374, Note_on_c, 4, 75, 0
10, 129375, Note_on_c, 4, 76, 76
10, 129389, Note_on_c, 4, 76, 0
10, 129390, Note_on_c, 4, 75, 76
10, 129404, Note_on_c, 4, 75, 0
10, 129405, Note_on_c, 4, 76, 76
10, 129419, Note_on_c, 4, 76, 0
10, 129420, Note_on_c, 4, 75, 76
10, 129434, Note_on_c, 4, 75, 0
10, 129435, Note_on_c, 4, 76, 76
10, 129449, Note_on_c, 4, 76, 0
10, 129450, Note_on_c, 4, 73, 76
10, 129464, Note_on_c, 4, 73, 0
10, 129465, Note_on_c, 4, 75, 76
10, 129479, Note_on_c, 4, 75, 0
10, 129480, Note_on_c, 4, 76, 76
10, 129587, Note_on_c, 4, 76, 0
10, 129600, Note_on_c, 4, 78, 76
10, 129893, Note_on_c, 4, 78, 0
10, 129900, Note_on_c, 4, 81, 76
10, 129953, Note_on_c, 4, 81, 0
10, 129960, Note_on_c, 4, 79, 76
10, 130013, Note_on_c, 4, 79, 0
10, 130020, Note_on_c, 4, 78, 76
10, 130073, Note_on_c, 4, 78, 0
10, 130080, Note_on_c, 4, 83, 76
10, 130253, Note_on_c, 4, 83, 0
10, 130260, Note_on_c, 4, 81, 76
10, 130313, Note_on_c, 4, 81, 0
10, 130320, Note_on_c, 4, 79, 76
10, 130493, Note_on_c, 4, 79, 0
10, 130500, Note_on_c, 4, 78, 76
10, 130553, Note_on_c, 4, 78, 0
10, 130560, Note_on_c, 4, 79, 76
10, 130733, Note_on_c, 4, 79, 0
10, 130740, Note_on_c, 4, 78, 76
10, 130793, Note_on_c, 4, 78, 0
10, 130800, Note_on_c, 4, 76, 76
10, 130973, Note_on_c, 4, 76, 0
10, 130980, Note_on_c, 4, 78, 76
10, 131033, Note_on_c, 4, 78, 0
10, 131040, Note_on_c, 4, 78, 76
10, 131054, Note_on_c, 4, 78, 0
10, 131055, Note_on_c, 4, 79, 76
10, 131069, Note_on_c, 4, 79, 0
10, 131070, Note_on_c, 4, 78, 76
10, 131084, Note_on_c, 4, 78, 0
10, 131085, Note_on_c, 4, 79, 76
10, 131099, Note_on_c, 4, 79, 0
10, 131100, Note_on_c, 4, 78, 76
10, 131114, Note_on_c, 4, 78, 0
10, 131115, Note_on_c, 4, 79, 76
10, 131129, Note_on_c, 4, 79, 0
10, 131130, Note_on_c, 4, 78, 76
10, 131144, Note_on_c, 4, 78, 0
10, 131145, Note_on_c, 4, 79, 76
10, 131159, Note_on_c, 4, 79, 0
10, 131160, Note_on_c, 4, 78, 76
10, 131174, Note_on_c, 4, 78, 0
10, 131175, Note_on_c, 4, 79, 76
10, 131189, Note_on_c, 4, 79, 0
10, 131190, Note_on_c, 4, 78, 76
10, 131204, Note_on_c, 4, 78, 0
10, 131205, Note_on_c, 4, 79, 76
10, 131219, Note_on_c, 4, 79, 0
10, 131220, Note_on_c, 4, 78, 76
10, 131234, Note_on_c, 4, 78, 0
10, 131235, Note_on_c, 4, 79, 76
10, 131249, Note_on_c, 4, 79, 0
10, 131250, Note_on_c, 4, 78, 76
10, 131264, Note_on_c, 4, 78, 0
10, 131265, Note_on_c, 4, 79, 76
10, 131279, Note_on_c, 4, 79, 0
10, 131280, Note_on_c, 4, 78, 76
10, 131294, Note_on_c, 4, 78, 0
10, 131295, Note_on_c, 4, 79, 76
10, 131309, Note_on_c, 4, 79, 0
10, 131310, Note_on_c, 4, 78, 76
10, 131324, Note_on_c, 4, 78, 0
10, 131325, Note_on_c, 4, 79, 76
10, 131339, Note_on_c, 4, 79, 0
10, 131340, Note_on_c, 4, 78, 76
10, 131354, Note_on_c, 4, 78, 0
10, 131355, Note_on_c, 4, 79, 76
10, 131369, Note_on_c, 4, 79, 0
10, 131370, Note_on_c, 4, 76, 76
10, 131384, Note_on_c, 4, 76, 0
10, 131385, Note_on_c, 4, 78, 76
10, 131399, Note_on_c, 4, 78, 0
10, 131400, Note_on_c, 4, 76, 76
10, 131507, Note_on_c, 4, 76, 0
10, 131520, Note_on_c, 4, 76, 76
10, 131813, Note_on_c, 4, 76, 0
10, 131820, Note_on_c, 4, 76, 76
10, 131873, Note_on_c, 4, 76, 0
10, 131880, Note_on_c, 4, 74, 76
10, 131933, Note_on_c, 4, 74, 0
10, 131940, Note_on_c, 4, 73, 76
10, 131993, Note_on_c, 4, 73, 0
10, 132000, Note_on_c, 4, 74, 76
10, 132173, Note_on_c, 4, 74, 0
10, 132180, Note_on_c, 4, 83, 76
10, 132233, Note_on_c, 4, 83, 0
10, 132240, Note_on_c, 4, 76, 76
10, 132413, Note_on_c, 4, 76, 0
10, 132420, Note_on_c, 4, 74, 76
10, 132473, Note_on_c, 4, 74, 0
10, 132480, Note_on_c, 4, 73, 76
10, 132653, Note_on_c, 4, 73, 0
10, 132660, Note_on_c, 4, 69, 76
10, 132713, Note_on_c, 4, 69, 0
10, 132720, Note_on_c, 4, 73, 76
10, 132893, Note_on_c, 4, 73, 0
10, 132900, Note_on_c, 4, 76, 76
10, 132953, Note_on_c, 4, 76, 0
10, 132960, Note_on_c, 4, 81, 76
10, 133307, Note_on_c, 4, 81, 0
10, 133320, Note_on_c, 4, 81, 76
10, 133427, Note_on_c, 4, 81, 0
10, 133440, Note_on_c, 4, 81, 76
10, 133765, Note_on_c, 4, 81, 0
10, 133770, Note_on_c, 4, 71, 76
10, 133795, Note_on_c, 4, 71, 0
10, 133800, Note_on_c, 4, 73, 76
10, 133825, Note_on_c, 4, 73, 0
10, 133830, Note_on_c, 4, 74, 76
10, 133855, Note_on_c, 4, 74, 0
10, 133860, Note_on_c, 4, 76, 76
10, 133885, Note_on_c, 4, 76, 0
10, 133890, Note_on_c, 4, 78, 76
10, 133915, Note_on_c, 4, 78, 0
10, 133920, Note_on_c, 4, 79, 76
10, 134267, Note_on_c, 4, 79, 0
10, 134280, Note_on_c, 4, 79, 76
10, 134387, Note_on_c, 4, 79, 0
10, 134400, Note_on_c, 4, 79, 76
10, 134725, Note_on_c, 4, 79, 0
10, 134730, Note_on_c, 4, 78, 76
10, 134755, Note_on_c, 4, 78, 0
10, 134760, Note_on_c, 4, 76, 76
10, 134785, Note_on_c, 4, 76, 0
10, 134790, Note_on_c, 4, 74, 76
10, 134815, Note_on_c, 4, 74, 0
10, 134820, Note_on_c, 4, 73, 76
10, 134845, Note_on_c, 4, 73, 0
10, 134850, Note_on_c, 4, 71, 76
10, 134875, Note_on_c, 4, 71, 0
10, 134880, Note_on_c, 4, 69, 76
10, 135053, Note_on_c, 4, 69, 0
10, 135060, Note_on_c, 4, 67, 76
10, 135085, Note_on_c, 4, 67, 0
10, 135090, Note_on_c, 4, 66, 76
10, 135115, Note_on_c, 4, 66, 0
10, 135120, Note_on_c, 4, 67, 76
10, 135293, Note_on_c, 4, 67, 0
10, 135300, Note_on_c, 4, 76, 76
10, 135353, Note_on_c, 4, 76, 0
10, 135360, Note_on_c, 4, 66, 76
10, 135653, Note_on_c, 4, 66, 0
10, 135660, Note_on_c, 4, 67, 76
10, 135713, Note_on_c, 4, 67, 0
10, 135720, Note_on_c, 4, 69, 76
10, 135773, Note_on_c, 4, 69, 0
10, 135780, Note_on_c, 4, 71, 76
10, 135833, Note_on_c, 4, 71, 0
10, 135840, Note_on_c, 4, 72, 76
10, 136187, Note_on_c, 4, 72, 0
10, 136200, Note_on_c, 4, 74, 76
10, 136307, Note_on_c, 4, 74, 0
10, 136320, Note_on_c, 4, 71, 76
10, 136613, Note_on_c, 4, 71, 0
10, 136620, Note_on_c, 4, 69, 76
10, 136673, Note_on_c, 4, 69, 0
10, 136680, Note_on_c, 4, 67, 76
10, 136733, Note_on_c, 4, 67, 0
10, 136740, Note_on_c, 4, 66, 76
10, 136793, Note_on_c, 4, 66, 0
10, 136800, Note_on_c, 4, 64, 76
10, 136853, Note_on_c, 4, 64, 0
10, 136860, Note_on_c, 4, 66, 76
10, 136913, Note_on_c, 4, 66, 0
10, 136920, Note_on_c, 4, 67, 76
10, 136973, Note_on_c, 4, 67, 0
10, 136980, Note_on_c, 4, 69, 76
10, 137033, Note_on_c, 4, 69, 0
10, 137040, Note_on_c, 4, 71, 76
10, 137093, Note_on_c, 4, 71, 0
10, 137100, Note_on_c, 4, 73, 76
10, 137153, Note_on_c, 4, 73, 0
10, 137160, Note_on_c, 4, 74, 76
10, 137213, Note_on_c, 4, 74, 0
10, 137220, Note_on_c, 4, 71, 76
10, 137273, Note_on_c, 4, 71, 0
10, 137280, Note_on_c, 4, 73, 76
10, 137333, Note_on_c, 4, 73, 0
10, 137340, Note_on_c, 4, 74, 76
10, 137393, Note_on_c, 4, 74, 0
10, 137400, Note_on_c, 4, 73, 76
10, 137453, Note_on_c, 4, 73, 0
10, 137460, Note_on_c, 4, 71, 76
10, 137513, Note_on_c, 4, 71, 0
10, 137520, Note_on_c, 4, 69, 76
10, 137573, Note_on_c, 4, 69, 0
10, 137580, Note_on_c, 4, 71, 76
10, 137633, Note_on_c, 4, 71, 0
10, 137640, Note_on_c, 4, 73, 76
10, 137693, Note_on_c, 4, 73, 0
10, 137700, Note_on_c, 4, 74, 76
10, 137753, Note_on_c, 4, 74, 0
10, 137760, Note_on_c, 4, 76, 76
10, 137813, Note_on_c, 4, 76, 0
10, 137820, Note_on_c, 4, 78, 76
10, 137873, Note_on_c, 4, 78, 0
10, 137880, Note_on_c, 4, 79, 76
10, 137933, Note_on_c, 4, 79, 0
10, 137940, Note_on_c, 4, 81, 76
10, 137993, Note_on_c, 4, 81, 0
10, 138000, Note_on_c, 4, 79, 76
10, 138053, Note_on_c, 4, 79, 0
10, 138060, Note_on_c, 4, 78, 76
10, 138113, Note_on_c, 4, 78, 0
10, 138120, Note_on_c, 4, 79, 76
10, 138173, Note_on_c, 4, 79, 0
10, 138180, Note_on_c, 4, 76, 76
10, 138233, Note_on_c, 4, 76, 0
10, 138240, Note_on_c, 4, 78, 76
10, 138413, Note_on_c, 4, 78, 0
10, 138420, Note_on_c, 4, 76, 76
10, 138435, Note_on_c, 4, 76, 0
10, 138440, Note_on_c, 4, 74, 76
10, 138455, Note_on_c, 4, 74, 0
10, 138460, Note_on_c, 4, 73, 76
10, 138475, Note_on_c, 4, 73, 0
10, 138480, Note_on_c, 4, 74, 76
10, 138653, Note_on_c, 4, 74, 0
10, 138660, Note_on_c, 4, 71, 76
10, 138713, Note_on_c, 4, 71, 0
10, 138720, Note_on_c, 4, 73, 76
10, 139067, Note_on_c, 4, 73, 0
10, 139080, Note_on_c, 4, 74, 76
10, 139187, Note_on_c, 4, 74, 0
10, 139200, Note_on_c, 4, 74, 76
10, 139304, Note_on_c, 4, 74, 0
10, 139320, Note_on_c, 4, 69, 76
10, 139367, Note_on_c, 4, 69, 0
10, 139380, Note_on_c, 4, 71, 76
10, 139427, Note_on_c, 4, 71, 0
10, 139440, Note_on_c, 4, 73, 76
10, 139544, Note_on_c, 4, 73, 0
10, 139560, Note_on_c, 4, 73, 76
10, 139607, Note_on_c, 4, 73, 0
10, 139620, Note_on_c, 4, 74, 76
10, 139667, Note_on_c, 4, 74, 0
10, 139680, Note_on_c, 4, 76, 76
10, 139784, Note_on_c, 4, 76, 0
10, 139800, Note_on_c, 4, 73, 76
10, 139847, Note_on_c, 4, 73, 0
10, 139860, Note_on_c, 4, 74, 76
10, 139907, Note_on_c, 4, 74, 0
10, 139920, Note_on_c, 4, 76, 76
10, 140024, Note_on_c, 4, 76, 0
10, 140040, Note_on_c, 4, 76, 76
10, 140087, Note_on_c, 4, 76, 0
10, 140100, Note_on_c, 4, 78, 76
10, 140147, Note_on_c, 4, 78, 0
10, 140160, Note_on_c, 4, 79, 76
10, 140264, Note_on_c, 4, 79, 0
10, 140280, Note_on_c, 4, 79, 76
10, 140327, Note_on_c, 4, 79, 0
10, 140340, Note_on_c, 4, 78, 76
10, 140387, Note_on_c, 4, 78, 0
10, 140400, Note_on_c, 4, 79, 76
10, 140504, Note_on_c, 4, 79, 0
10, 140520, Note_on_c, 4, 81, 76
10, 140567, Note_on_c, 4, 81, 0
10, 140580, Note_on_c, 4, 79, 76
10, 140627, Note_on_c, 4, 79, 0
10, 140640, Note_on_c, 4, 78, 76
10, 140744, Note_on_c, 4, 78, 0
10, 140760, Note_on_c, 4, 81, 76
10, 140864, Note_on_c, 4, 81, 0
10, 140880, Note_on_c, 4, 74, 76
10, 140984, Note_on_c, 4, 74, 0
10, 141000, Note_on_c, 4, 78, 76
10, 141224, Note_on_c, 4, 78, 0
10, 141240, Note_on_c, 4, 81, 76
10, 141344, Note_on_c, 4, 81, 0
10, 141360, Note_on_c, 4, 72, 76
10, 141464, Note_on_c, 4, 72, 0
10, 141480, Note_on_c, 4, 78, 76
10, 141704, Note_on_c, 4, 78, 0
10, 141720, Note_on_c, 4, 81, 76
10, 141824, Note_on_c, 4, 81, 0
10, 141840, Note_on_c, 4, 74, 76
10, 141944, Note_on_c, 4, 74, 0
10, 141960, Note_on_c, 4, 78, 76
10, 142064, Note_on_c, 4, 78, 0
10, 142080, Note_on_c, 4, 79, 76
10, 142184, Note_on_c, 4, 79, 0
10, 142200, Note_on_c, 4, 83, 76
10, 142304, Note_on_c, 4, 83, 0
10, 142320, Note_on_c, 4, 74, 76
10, 142424, Note_on_c, 4, 74, 0
10, 142440, Note_on_c, 4, 80, 76
10, 142664, Note_on_c, 4, 80, 0
10, 142680, Note_on_c, 4, 83, 76
10, 142784, Note_on_c, 4, 83, 0
10, 142800, Note_on_c, 4, 76, 76
10, 142904, Note_on_c, 4, 76, 0
10, 142920, Note_on_c, 4, 80, 76
10, 143024, Note_on_c, 4, 80, 0
10, 143040, Note_on_c, 4, 81, 76
10, 143087, Note_on_c, 4, 81, 0
10, 143100, Note_on_c, 4, 76, 76
10, 143147, Note_on_c, 4, 76, 0
10, 143160, Note_on_c, 4, 73, 76
10, 143207, Note_on_c, 4, 73, 0
10, 143220, Note_on_c, 4, 74, 76
10, 143267, Note_on_c, 4, 74, 0
10, 143280, Note_on_c, 4, 76, 76
10, 143327, Note_on_c, 4, 76, 0
10, 143340, Note_on_c, 4, 78, 76
10, 143387, Note_on_c, 4, 78, 0
10, 143400, Note_on_c, 4, 76, 76
10, 143447, Note_on_c, 4, 76, 0
10, 143460, Note_on_c, 4, 78, 76
10, 143507, Note_on_c, 4, 78, 0
10, 143520, Note_on_c, 4, 79, 76
10, 143567, Note_on_c, 4, 79, 0
10, 143580, Note_on_c, 4, 76, 76
10, 143627, Note_on_c, 4, 76, 0
10, 143640, Note_on_c, 4, 69, 76
10, 143687, Note_on_c, 4, 69, 0
10, 143700, Note_on_c, 4, 71, 76
10, 143747, Note_on_c, 4, 71, 0
10, 143760, Note_on_c, 4, 73, 76
10, 143807, Note_on_c, 4, 73, 0
10, 143820, Note_on_c, 4, 74, 76
10, 143867, Note_on_c, 4, 74, 0
10, 143880, Note_on_c, 4, 73, 76
10, 143927, Note_on_c, 4, 73, 0
10, 143940, Note_on_c, 4, 74, 76
10, 143987, Note_on_c, 4, 74, 0
10, 144000, Note_on_c, 4, 76, 76
10, 144047, Note_on_c, 4, 76, 0
10, 144060, Note_on_c, 4, 74, 76
10, 144107, Note_on_c, 4, 74, 0
10, 144120, Note_on_c, 4, 73, 76
10, 144167, Note_on_c, 4, 73, 0
10, 144180, Note_on_c, 4, 74, 76
10, 144227, Note_on_c, 4, 74, 0
10, 144240, Note_on_c, 4, 76, 76
10, 144287, Note_on_c, 4, 76, 0
10, 144300, Note_on_c, 4, 74, 76
10, 144347, Note_on_c, 4, 74, 0
10, 144360, Note_on_c, 4, 73, 76
10, 144407, Note_on_c, 4, 73, 0
10, 144420, Note_on_c, 4, 71, 76
10, 144467, Note_on_c, 4, 71, 0
10, 144480, Note_on_c, 4, 69, 76
10, 144527, Note_on_c, 4, 69, 0
10, 144540, Note_on_c, 4, 74, 76
10, 144587, Note_on_c, 4, 74, 0
10, 144600, Note_on_c, 4, 73, 76
10, 144647, Note_on_c, 4, 73, 0
10, 144660, Note_on_c, 4, 71, 76
10, 144707, Note_on_c, 4, 71, 0
10, 144720, Note_on_c, 4, 69, 76
10, 144767, Note_on_c, 4, 69, 0
10, 144780, Note_on_c, 4, 67, 76
10, 144827, Note_on_c, 4, 67, 0
10, 144840, Note_on_c, 4, 66, 76
10, 144887, Note_on_c, 4, 66, 0
10, 144900, Note_on_c, 4, 64, 76
10, 144947, Note_on_c, 4, 64, 0
10, 144960, Note_on_c, 4, 62, 76
10, 145064, Note_on_c, 4, 62, 0
10, 145080, Note_on_c, 4, 74, 76
10, 145184, Note_on_c, 4, 74, 0
10, 145200, Note_on_c, 4, 74, 76
10, 145304, Note_on_c, 4, 74, 0
10, 145320, Note_on_c, 4, 74, 76
10, 145424, Note_on_c, 4, 74, 0
10, 145440, Note_on_c, 4, 74, 76
10, 145544, Note_on_c, 4, 74, 0
10, 145560, Note_on_c, 4, 74, 76
10, 145664, Note_on_c, 4, 74, 0
10, 145680, Note_on_c, 4, 74, 76
10, 145784, Note_on_c, 4, 74, 0
10, 145800, Note_on_c, 4, 74, 76
10, 145904, Note_on_c, 4, 74, 0
10, 145920, Note_on_c, 4, 74, 76
10, 146024, Note_on_c, 4, 74, 0
10, 146040, Note_on_c, 4, 76, 76
10, 146144, Note_on_c, 4, 76, 0
10, 146160, Note_on_c, 4, 76, 76
10, 146264, Note_on_c, 4, 76, 0
10, 146280, Note_on_c, 4, 76, 76
10, 146384, Note_on_c, 4, 76, 0
10, 146400, Note_on_c, 4, 76, 76
10, 146504, Note_on_c, 4, 76, 0
10, 146520, Note_on_c, 4, 76, 76
10, 146624, Note_on_c, 4, 76, 0
10, 146640, Note_on_c, 4, 76, 76
10, 146744, Note_on_c, 4, 76, 0
10, 146760, Note_on_c, 4, 76, 76
10, 146864, Note_on_c, 4, 76, 0
10, 146880, Note_on_c, 4, 76, 76
10, 146984, Note_on_c, 4, 76, 0
10, 147000, Note_on_c, 4, 76, 76
10, 147104, Note_on_c, 4, 76, 0
10, 147120, Note_on_c, 4, 76, 76
10, 147224, Note_on_c, 4, 76, 0
10, 147240, Note_on_c, 4, 76, 76
10, 147344, Note_on_c, 4, 76, 0
10, 147360, Note_on_c, 4, 76, 76
10, 147464, Note_on_c, 4, 76, 0
10, 147480, Note_on_c, 4, 69, 76
10, 147527, Note_on_c, 4, 69, 0
10, 147540, Note_on_c, 4, 71, 76
10, 147587, Note_on_c, 4, 71, 0
10, 147600, Note_on_c, 4, 73, 76
10, 147704, Note_on_c, 4, 73, 0
10, 147720, Note_on_c, 4, 73, 76
10, 147767, Note_on_c, 4, 73, 0
10, 147780, Note_on_c, 4, 74, 76
10, 147827, Note_on_c, 4, 74, 0
10, 147840, Note_on_c, 4, 76, 76
10, 147944, Note_on_c, 4, 76, 0
10, 147960, Note_on_c, 4, 73, 76
10, 148007, Note_on_c, 4, 73, 0
10, 148020, Note_on_c, 4, 74, 76
10, 148067, Note_on_c, 4, 74, 0
10, 148080, Note_on_c, 4, 76, 76
10, 148184, Note_on_c, 4, 76, 0
10, 148200, Note_on_c, 4, 76, 76
10, 148247, Note_on_c, 4, 76, 0
10, 148260, Note_on_c, 4, 78, 76
10, 148307, Note_on_c, 4, 78, 0
10, 148320, Note_on_c, 4, 79, 76
10, 148424, Note_on_c, 4, 79, 0
10, 148440, Note_on_c, 4, 79, 76
10, 148487, Note_on_c, 4, 79, 0
10, 148500, Note_on_c, 4, 78, 76
10, 148547, Note_on_c, 4, 78, 0
10, 148560, Note_on_c, 4, 79, 76
10, 148664, Note_on_c, 4, 79, 0
10, 148680, Note_on_c, 4, 81, 76
10, 148727, Note_on_c, 4, 81, 0
10, 148740, Note_on_c, 4, 79, 76
10, 148787, Note_on_c, 4, 79, 0
10, 148800, Note_on_c, 4, 78, 76
10, 148904, Note_on_c, 4, 78, 0
10, 148920, Note_on_c, 4, 78, 76
10, 148967, Note_on_c, 4, 78, 0
10, 148980, Note_on_c, 4, 76, 76
10, 149027, Note_on_c, 4, 76, 0
10, 149040, Note_on_c, 4, 78, 76
10, 149144, Note_on_c, 4, 78, 0
10, 149160, Note_on_c, 4, 79, 76
10, 149207, Note_on_c, 4, 79, 0
10, 149220, Note_on_c, 4, 78, 76
10, 149267, Note_on_c, 4, 78, 0
10, 149280, Note_on_c, 4, 76, 76
10, 149384, Note_on_c, 4, 76, 0
10, 149400, Note_on_c, 4, 76, 76
10, 149447, Note_on_c, 4, 76, 0
10, 149460, Note_on_c, 4, 74, 76
10, 149507, Note_on_c, 4, 74, 0
10, 149520, Note_on_c, 4, 76, 76
10, 149624, Note_on_c, 4, 76, 0
10, 149640, Note_on_c, 4, 78, 76
10, 149687, Note_on_c, 4, 78, 0
10, 149700, Note_on_c, 4, 76, 76
10, 149747, Note_on_c, 4, 76, 0
10, 149760, Note_on_c, 4, 74, 76
10, 149864, Note_on_c, 4, 74, 0
10, 149880, Note_on_c, 4, 74, 76
10, 149927, Note_on_c, 4, 74, 0
10, 149940, Note_on_c, 4, 76, 76
10, 149987, Note_on_c, 4, 76, 0
10, 150000, Note_on_c, 4, 78, 76
10, 150104, Note_on_c, 4, 78, 0
10, 150120, Note_on_c, 4, 78, 76
10, 150167, Note_on_c, 4, 78, 0
10, 150180, Note_on_c, 4, 79, 76
10, 150227, Note_on_c, 4, 79, 0
10, 150240, Note_on_c, 4, 81, 76
10, 150344, Note_on_c, 4, 81, 0
10, 150360, Note_on_c, 4, 78, 76
10, 150407, Note_on_c, 4, 78, 0
10, 150420, Note_on_c, 4, 79, 76
10, 150467, Note_on_c, 4, 79, 0
10, 150480, Note_on_c, 4, 81, 76
10, 150584, Note_on_c, 4, 81, 0
10, 150600, Note_on_c, 4, 81, 76
10, 150647, Note_on_c, 4, 81, 0
10, 150660, Note_on_c, 4, 83, 76
10, 150707, Note_on_c, 4, 83, 0
10, 150720, Note_on_c, 4, 84, 76
10, 150824, Note_on_c, 4, 84, 0
10, 150840, Note_on_c, 4, 84, 76
10, 150887, Note_on_c, 4, 84, 0
10, 150900, Note_on_c, 4, 83, 76
10, 150947, Note_on_c, 4, 83, 0
10, 150960, Note_on_c, 4, 84, 76
10, 151064, Note_on_c, 4, 84, 0
10, 151080, Note_on_c, 4, 86, 76
10, 151127, Note_on_c, 4, 86, 0
10, 151140, Note_on_c, 4, 84, 76
10, 151187, Note_on_c, 4, 84, 0
10, 151200, Note_on_c, 4, 83, 76
10, 151247, Note_on_c, 4, 83, 0
10, 151260, Note_on_c, 4, 79, 76
10, 151307, Note_on_c, 4, 79, 0
10, 151320, Note_on_c, 4, 76, 76
10, 151367, Note_on_c, 4, 76, 0
10, 151380, Note_on_c, 4, 78, 76
10, 151427, Note_on_c, 4, 78, 0
10, 151440, Note_on_c, 4, 79, 76
10, 151487, Note_on_c, 4, 79, 0
10, 151500, Note_on_c, 4, 81, 76
10, 151547, Note_on_c, 4, 81, 0
10, 151560, Note_on_c, 4, 78, 76
10, 151607, Note_on_c, 4, 78, 0
10, 151620, Note_on_c, 4, 79, 76
10, 151667, Note_on_c, 4, 79, 0
10, 151680, Note_on_c, 4, 81, 76
10, 151727, Note_on_c, 4, 81, 0
10, 151740, Note_on_c, 4, 78, 76
10, 151787, Note_on_c, 4, 78, 0
10, 151800, Note_on_c, 4, 74, 76
10, 151847, Note_on_c, 4, 74, 0
10, 151860, Note_on_c, 4, 76, 76
10, 151907, Note_on_c, 4, 76, 0
10, 151920, Note_on_c, 4, 78, 76
10, 151967, Note_on_c, 4, 78, 0
10, 151980, Note_on_c, 4, 79, 76
10, 152027, Note_on_c, 4, 79, 0
10, 152040, Note_on_c, 4, 76, 76
10, 152087, Note_on_c, 4, 76, 0
10, 152100, Note_on_c, 4, 78, 76
10, 152147, Note_on_c, 4, 78, 0
10, 152160, Note_on_c, 4, 79, 76
10, 152207, Note_on_c, 4, 79, 0
10, 152220, Note_on_c, 4, 78, 76
10, 152267, Note_on_c, 4, 78, 0
10, 152280, Note_on_c, 4, 76, 76
10, 152327, Note_on_c, 4, 76, 0
10, 152340, Note_on_c, 4, 79, 76
10, 152387, Note_on_c, 4, 79, 0
10, 152400, Note_on_c, 4, 78, 76
10, 152447, Note_on_c, 4, 78, 0
10, 152460, Note_on_c, 4, 76, 76
10, 152507, Note_on_c, 4, 76, 0
10, 152520, Note_on_c, 4, 74, 76
10, 152567, Note_on_c, 4, 74, 0
10, 152580, Note_on_c, 4, 78, 76
10, 152627, Note_on_c, 4, 78, 0
10, 152640, Note_on_c, 4, 76, 76
10, 152687, Note_on_c, 4, 76, 0
10, 152700, Note_on_c, 4, 81, 76
10, 152747, Note_on_c, 4, 81, 0
10, 152760, Note_on_c, 4, 73, 76
10, 152807, Note_on_c, 4, 73, 0
10, 152820, Note_on_c, 4, 74, 76
10, 152867, Note_on_c, 4, 74, 0
10, 152880, Note_on_c, 4, 76, 76
10, 152927, Note_on_c, 4, 76, 0
10, 152940, Note_on_c, 4, 78, 76
10, 152987, Note_on_c, 4, 78, 0
10, 153000, Note_on_c, 4, 76, 76
10, 153047, Note_on_c, 4, 76, 0
10, 153060, Note_on_c, 4, 78, 76
10, 153107, Note_on_c, 4, 78, 0
10, 153120, Note_on_c, 4, 79, 76
10, 153167, Note_on_c, 4, 79, 0
10, 153180, Note_on_c, 4, 76, 76
10, 153227, Note_on_c, 4, 76, 0
10, 153240, Note_on_c, 4, 69, 76
10, 153287, Note_on_c, 4, 69, 0
10, 153300, Note_on_c, 4, 71, 76
10, 153347, Note_on_c, 4, 71, 0
10, 153360, Note_on_c, 4, 73, 76
10, 153407, Note_on_c, 4, 73, 0
10, 153420, Note_on_c, 4, 74, 76
10, 153467, Note_on_c, 4, 74, 0
10, 153480, Note_on_c, 4, 73, 76
10, 153527, Note_on_c, 4, 73, 0
10, 153540, Note_on_c, 4, 74, 76
10, 153587, Note_on_c, 4, 74, 0
10, 153600, Note_on_c, 4, 76, 76
10, 153647, Note_on_c, 4, 76, 0
10, 153660, Note_on_c, 4, 74, 76
10, 153707, Note_on_c, 4, 74, 0
10, 153720, Note_on_c, 4, 73, 76
10, 153767, Note_on_c, 4, 73, 0
10, 153780, Note_on_c, 4, 74, 76
10, 153827, Note_on_c, 4, 74, 0
10, 153840, Note_on_c, 4, 76, 76
10, 153887, Note_on_c, 4, 76, 0
10, 153900, Note_on_c, 4, 79, 76
10, 153947, Note_on_c, 4, 79, 0
10, 153960, Note_on_c, 4, 78, 76
10, 154007, Note_on_c, 4, 78, 0
10, 154020, Note_on_c, 4, 76, 76
10, 154067, Note_on_c, 4, 76, 0
10, 154080, Note_on_c, 4, 81, 76
10, 154127, Note_on_c, 4, 81, 0
10, 154140, Note_on_c, 4, 79, 76
10, 154187, Note_on_c, 4, 79, 0
10, 154200, Note_on_c, 4, 78, 76
10, 154247, Note_on_c, 4, 78, 0
10, 154260, Note_on_c, 4, 79, 76
10, 154307, Note_on_c, 4, 79, 0
10, 154320, Note_on_c, 4, 81, 76
10, 154367, Note_on_c, 4, 81, 0
10, 154380, Note_on_c, 4, 78, 76
10, 154427, Note_on_c, 4, 78, 0
10, 154440, Note_on_c, 4, 74, 76
10, 154487, Note_on_c, 4, 74, 0
10, 154500, Note_on_c, 4, 78, 76
10, 154547, Note_on_c, 4, 78, 0
10, 154560, Note_on_c, 4, 79, 76
10, 154607, Note_on_c, 4, 79, 0
10, 154620, Note_on_c, 4, 78, 76
10, 154667, Note_on_c, 4, 78, 0
10, 154680, Note_on_c, 4, 76, 76
10, 154727, Note_on_c, 4, 76, 0
10, 154740, Note_on_c, 4, 78, 76
10, 154787, Note_on_c, 4, 78, 0
10, 154800, Note_on_c, 4, 79, 76
10, 154847, Note_on_c, 4, 79, 0
10, 154860, Note_on_c, 4, 83, 76
10, 154907, Note_on_c, 4, 83, 0
10, 154920, Note_on_c, 4, 81, 76
10, 154967, Note_on_c, 4, 81, 0
10, 154980, Note_on_c, 4, 79, 76
10, 155027, Note_on_c, 4, 79, 0
10, 155040, Note_on_c, 4, 78, 76
10, 155144, Note_on_c, 4, 78, 0
10, 155160, Note_on_c, 4, 74, 76
10, 155264, Note_on_c, 4, 74, 0
10, 155280, Note_on_c, 4, 71, 76
10, 155384, Note_on_c, 4, 71, 0
10, 155400, Note_on_c, 4, 76, 76
10, 155504, Note_on_c, 4, 76, 0
10, 155520, Note_on_c, 4, 73, 76
10, 155567, Note_on_c, 4, 73, 0
10, 155580, Note_on_c, 4, 69, 76
10, 155627, Note_on_c, 4, 69, 0
10, 155640, Note_on_c, 4, 71, 76
10, 155687, Note_on_c, 4, 71, 0
10, 155700, Note_on_c, 4, 73, 76
10, 155747, Note_on_c, 4, 73, 0
10, 155760, Note_on_c, 4, 74, 76
10, 155807, Note_on_c, 4, 74, 0
10, 155820, Note_on_c, 4, 76, 76
10, 155867, Note_on_c, 4, 76, 0
10, 155880, Note_on_c, 4, 78, 76
10, 155927, Note_on_c, 4, 78, 0
10, 155940, Note_on_c, 4, 79, 76
10, 155987, Note_on_c, 4, 79, 0
10, 156000, Note_on_c, 4, 78, 76
10, 156047, Note_on_c, 4, 78, 0
10, 156060, Note_on_c, 4, 76, 76
10, 156107, Note_on_c, 4, 76, 0
10, 156120, Note_on_c, 4, 74, 76
10, 156167, Note_on_c, 4, 74, 0
10, 156180, Note_on_c, 4, 76, 76
10, 156227, Note_on_c, 4, 76, 0
10, 156240, Note_on_c, 4, 69, 76
10, 156344, Note_on_c, 4, 69, 0
10, 156360, Note_on_c, 4, 73, 76
10, 156464, Note_on_c, 4, 73, 0
10, 156480, Note_on_c, 4, 74, 76
10, 156599, Note_on_c, 4, 74, 0
10, 164160, Note_on_c, 4, 76, 52
10, 165344, Note_on_c, 4, 76, 0
10, 165360, Note_on_c, 4, 73, 52
10, 165584, Note_on_c, 4, 73, 0
10, 165600, Note_on_c, 4, 75, 52
10, 167024, Note_on_c, 4, 75, 0
10, 167040, Note_on_c, 4, 74, 52
10, 168464, Note_on_c, 4, 74, 0
10, 168480, Note_on_c, 4, 73, 52
10, 169904, Note_on_c, 4, 73, 0
10, 169920, Note_on_c, 4, 74, 52
10, 170039, Note_on_c, 4, 74, 0
10, 171960, Note_on_c, 4, 73, 76
10, 172007, Note_on_c, 4, 73, 0
10, 172020, Note_on_c, 4, 74, 76
10, 172067, Note_on_c, 4, 74, 0
10, 172080, Note_on_c, 4, 76, 76
10, 172127, Note_on_c, 4, 76, 0
10, 172140, Note_on_c, 4, 78, 76
10, 172187, Note_on_c, 4, 78, 0
10, 172200, Note_on_c, 4, 76, 76
10, 172247, Note_on_c, 4, 76, 0
10, 172260, Note_on_c, 4, 78, 76
10, 172307, Note_on_c, 4, 78, 0
10, 172320, Note_on_c, 4, 79, 76
10, 172367, Note_on_c, 4, 79, 0
10, 172380, Note_on_c, 4, 76, 76
10, 172427, Note_on_c, 4, 76, 0
10, 172440, Note_on_c, 4, 69, 76
10, 172487, Note_on_c, 4, 69, 0
10, 172500, Note_on_c, 4, 71, 76
10, 172547, Note_on_c, 4, 71, 0
10, 172560, Note_on_c, 4, 73, 76
10, 172607, Note_on_c, 4, 73, 0
10, 172620, Note_on_c, 4, 74, 76
10, 172667, Note_on_c, 4, 74, 0
10, 172680, Note_on_c, 4, 73, 76
10, 172727, Note_on_c, 4, 73, 0
10, 172740, Note_on_c, 4, 74, 76
10, 172787, Note_on_c, 4, 74, 0
10, 172800, Note_on_c, 4, 76, 76
10, 172847, Note_on_c, 4, 76, 0
10, 172860, Note_on_c, 4, 74, 76
10, 172907, Note_on_c, 4, 74, 0
10, 172920, Note_on_c, 4, 73, 76
10, 172967, Note_on_c, 4, 73, 0
10, 172980, Note_on_c, 4, 74, 76
10, 173027, Note_on_c, 4, 74, 0
10, 173040, Note_on_c, 4, 76, 76
10, 173087, Note_on_c, 4, 76, 0
10, 173100, Note_on_c, 4, 74, 76
10, 173147, Note_on_c, 4, 74, 0
10, 173160, Note_on_c, 4, 73, 76
10, 173207, Note_on_c, 4, 73, 0
10, 173220, Note_on_c, 4, 71, 76
10, 173267, Note_on_c, 4, 71, 0
10, 173280, Note_on_c, 4, 69, 76
10, 173384, Note_on_c, 4, 69, 0
10, 173400, Note_on_c, 4, 78, 76
10, 173504, Note_on_c, 4, 78, 0
10, 173520, Note_on_c, 4, 71, 76
10, 173624, Note_on_c, 4, 71, 0
10, 173640, Note_on_c, 4, 75, 76
10, 173864, Note_on_c, 4, 75, 0
10, 173880, Note_on_c, 4, 78, 76
10, 173984, Note_on_c, 4, 78, 0
10, 174000, Note_on_c, 4, 69, 76
10, 174104, Note_on_c, 4, 69, 0
10, 174120, Note_on_c, 4, 75, 76
10, 174344, Note_on_c, 4, 75, 0
10, 174360, Note_on_c, 4, 78, 76
10, 174464, Note_on_c, 4, 78, 0
10, 174480, Note_on_c, 4, 71, 76
10, 174584, Note_on_c, 4, 71, 0
10, 174600, Note_on_c, 4, 75, 76
10, 174704, Note_on_c, 4, 75, 0
10, 174720, Note_on_c, 4, 76, 76
10, 174824, Note_on_c, 4, 76, 0
10, 174840, Note_on_c, 4, 64, 76
10, 174887, Note_on_c, 4, 64, 0
10, 174900, Note_on_c, 4, 66, 76
10, 174947, Note_on_c, 4, 66, 0
10, 174960, Note_on_c, 4, 68, 76
10, 175064, Note_on_c, 4, 68, 0
10, 175080, Note_on_c, 4, 68, 76
10, 175127, Note_on_c, 4, 68, 0
10, 175140, Note_on_c, 4, 69, 76
10, 175187, Note_on_c, 4, 69, 0
10, 175200, Note_on_c, 4, 71, 76
10, 175304, Note_on_c, 4, 71, 0
10, 175320, Note_on_c, 4, 68, 76
10, 175367, Note_on_c, 4, 68, 0
10, 175380, Note_on_c, 4, 69, 76
10, 175427, Note_on_c, 4, 69, 0
10, 175440, Note_on_c, 4, 71, 76
10, 175544, Note_on_c, 4, 71, 0
10, 175560, Note_on_c, 4, 71, 76
10, 175607, Note_on_c, 4, 71, 0
10, 175620, Note_on_c, 4, 73, 76
10, 175667, Note_on_c, 4, 73, 0
10, 175680, Note_on_c, 4, 74, 76
10, 175784, Note_on_c, 4, 74, 0
10, 175800, Note_on_c, 4, 74, 76
10, 175847, Note_on_c, 4, 74, 0
10, 175860, Note_on_c, 4, 73, 76
10, 175907, Note_on_c, 4, 73, 0
10, 175920, Note_on_c, 4, 74, 76
10, 176024, Note_on_c, 4, 74, 0
10, 176040, Note_on_c, 4, 76, 76
10, 176087, Note_on_c, 4, 76, 0
10, 176100, Note_on_c, 4, 74, 76
10, 176147, Note_on_c, 4, 74, 0
10, 176160, Note_on_c, 4, 73, 76
10, 176264, Note_on_c, 4, 73, 0
10, 176280, Note_on_c, 4, 73, 76
10, 176327, Note_on_c, 4, 73, 0
10, 176340, Note_on_c, 4, 71, 76
10, 176387, Note_on_c, 4, 71, 0
10, 176400, Note_on_c, 4, 73, 76
10, 176504, Note_on_c, 4, 73, 0
10, 176520, Note_on_c, 4, 74, 76
10, 176567, Note_on_c, 4, 74, 0
10, 176580, Note_on_c, 4, 73, 76
10, 176627, Note_on_c, 4, 73, 0
10, 176640, Note_on_c, 4, 71, 76
10, 176744, Note_on_c, 4, 71, 0
10, 176760, Note_on_c, 4, 71, 76
10, 176807, Note_on_c, 4, 71, 0
10, 176820, Note_on_c, 4, 69, 76
10, 176867, Note_on_c, 4, 69, 0
10, 176880, Note_on_c, 4, 71, 76
10, 176984, Note_on_c, 4, 71, 0
10, 177000, Note_on_c, 4, 73, 76
10, 177047, Note_on_c, 4, 73, 0
10, 177060, Note_on_c, 4, 71, 76
10, 177107, Note_on_c, 4, 71, 0
10, 177120, Note_on_c, 4, 69, 76
10, 177224, Note_on_c, 4, 69, 0
10, 177240, Note_on_c, 4, 69, 76
10, 177287, Note_on_c, 4, 69, 0
10, 177300, Note_on_c, 4, 71, 76
10, 177347, Note_on_c, 4, 71, 0
10, 177360, Note_on_c, 4, 73, 76
10, 177464, Note_on_c, 4, 73, 0
10, 177480, Note_on_c, 4, 73, 76
10, 177527, Note_on_c, 4, 73, 0
10, 177540, Note_on_c, 4, 74, 76
10, 177587, Note_on_c, 4, 74, 0
10, 177600, Note_on_c, 4, 76, 76
10, 177704, Note_on_c, 4, 76, 0
10, 177720, Note_on_c, 4, 73, 76
10, 177767, Note_on_c, 4, 73, 0
10, 177780, Note_on_c, 4, 74, 76
10, 177827, Note_on_c, 4, 74, 0
10, 177840, Note_on_c, 4, 76, 76
10, 177944, Note_on_c, 4, 76, 0
10, 177960, Note_on_c, 4, 76, 76
10, 178007, Note_on_c, 4, 76, 0
10, 178020, Note_on_c, 4, 78, 76
10, 178067, Note_on_c, 4, 78, 0
10, 178080, Note_on_c, 4, 79, 76
10, 178184, Note_on_c, 4, 79, 0
10, 178200, Note_on_c, 4, 79, 76
10, 178247, Note_on_c, 4, 79, 0
10, 178260, Note_on_c, 4, 78, 76
10, 178307, Note_on_c, 4, 78, 0
10, 178320, Note_on_c, 4, 79, 76
10, 178424, Note_on_c, 4, 79, 0
10, 178440, Note_on_c, 4, 81, 76
10, 178487, Note_on_c, 4, 81, 0
10, 178500, Note_on_c, 4, 79, 76
10, 178547, Note_on_c, 4, 79, 0
10, 178560, Note_on_c, 4, 78, 76
10, 178607, Note_on_c, 4, 78, 0
10, 178620, Note_on_c, 4, 74, 76
10, 178667, Note_on_c, 4, 74, 0
10, 178680, Note_on_c, 4, 71, 76
10, 178727, Note_on_c, 4, 71, 0
10, 178740, Note_on_c, 4, 73, 76
10, 178787, Note_on_c, 4, 73, 0
10, 178800, Note_on_c, 4, 74, 76
10, 178847, Note_on_c, 4, 74, 0
10, 178860, Note_on_c, 4, 76, 76
10, 178907, Note_on_c, 4, 76, 0
10, 178920, Note_on_c, 4, 73, 76
10, 178967, Note_on_c, 4, 73, 0
10, 178980, Note_on_c, 4, 74, 76
10, 179027, Note_on_c, 4, 74, 0
10, 179040, Note_on_c, 4, 76, 76
10, 179087, Note_on_c, 4, 76, 0
10, 179100, Note_on_c, 4, 73, 76
10, 179147, Note_on_c, 4, 73, 0
10, 179160, Note_on_c, 4, 70, 76
10, 179207, Note_on_c, 4, 70, 0
10, 179220, Note_on_c, 4, 71, 76
10, 179267, Note_on_c, 4, 71, 0
10, 179280, Note_on_c, 4, 73, 76
10, 179327, Note_on_c, 4, 73, 0
10, 179340, Note_on_c, 4, 74, 76
10, 179387, Note_on_c, 4, 74, 0
10, 179400, Note_on_c, 4, 71, 76
10, 179447, Note_on_c, 4, 71, 0
10, 179460, Note_on_c, 4, 73, 76
10, 179507, Note_on_c, 4, 73, 0
10, 179520, Note_on_c, 4, 74, 76
10, 179567, Note_on_c, 4, 74, 0
10, 179580, Note_on_c, 4, 76, 76
10, 179627, Note_on_c, 4, 76, 0
10, 179640, Note_on_c, 4, 73, 76
10, 179687, Note_on_c, 4, 73, 0
10, 179700, Note_on_c, 4, 74, 76
10, 179747, Note_on_c, 4, 74, 0
10, 179760, Note_on_c, 4, 76, 76
10, 179807, Note_on_c, 4, 76, 0
10, 179820, Note_on_c, 4, 74, 76
10, 179867, Note_on_c, 4, 74, 0
10, 179880, Note_on_c, 4, 73, 76
10, 179927, Note_on_c, 4, 73, 0
10, 179940, Note_on_c, 4, 71, 76
10, 179987, Note_on_c, 4, 71, 0
10, 180000, Note_on_c, 4, 78, 76
10, 180104, Note_on_c, 4, 78, 0
10, 180120, Note_on_c, 4, 78, 76
10, 180224, Note_on_c, 4, 78, 0
10, 180240, Note_on_c, 4, 78, 76
10, 180344, Note_on_c, 4, 78, 0
10, 180360, Note_on_c, 4, 78, 76
10, 180464, Note_on_c, 4, 78, 0
10, 180480, Note_on_c, 4, 78, 76
10, 180584, Note_on_c, 4, 78, 0
10, 180600, Note_on_c, 4, 78, 76
10, 180704, Note_on_c, 4, 78, 0
10, 180720, Note_on_c, 4, 78, 76
10, 180824, Note_on_c, 4, 78, 0
10, 180840, Note_on_c, 4, 78, 76
10, 180944, Note_on_c, 4, 78, 0
10, 180960, Note_on_c, 4, 78, 76
10, 181064, Note_on_c, 4, 78, 0
10, 181080, Note_on_c, 4, 78, 76
10, 181184, Note_on_c, 4, 78, 0
10, 181200, Note_on_c, 4, 78, 76
10, 181304, Note_on_c, 4, 78, 0
10, 181320, Note_on_c, 4, 78, 76
10, 181424, Note_on_c, 4, 78, 0
10, 181440, Note_on_c, 4, 78, 76
10, 181487, Note_on_c, 4, 78, 0
10, 181500, Note_on_c, 4, 76, 76
10, 181547, Note_on_c, 4, 76, 0
10, 181560, Note_on_c, 4, 78, 76
10, 181607, Note_on_c, 4, 78, 0
10, 181620, Note_on_c, 4, 79, 76
10, 181667, Note_on_c, 4, 79, 0
10, 181680, Note_on_c, 4, 78, 76
10, 181727, Note_on_c, 4, 78, 0
10, 181740, Note_on_c, 4, 83, 76
10, 181787, Note_on_c, 4, 83, 0
10, 181800, Note_on_c, 4, 82, 76
10, 181847, Note_on_c, 4, 82, 0
10, 181860, Note_on_c, 4, 83, 76
10, 181907, Note_on_c, 4, 83, 0
10, 181920, Note_on_c, 4, 76, 76
10, 181967, Note_on_c, 4, 76, 0
10, 181980, Note_on_c, 4, 74, 76
10, 182027, Note_on_c, 4, 74, 0
10, 182040, Note_on_c, 4, 76, 76
10, 182087, Note_on_c, 4, 76, 0
10, 182100, Note_on_c, 4, 78, 76
10, 182147, Note_on_c, 4, 78, 0
10, 182160, Note_on_c, 4, 76, 76
10, 182207, Note_on_c, 4, 76, 0
10, 182220, Note_on_c, 4, 79, 76
10, 182267, Note_on_c, 4, 79, 0
10, 182280, Note_on_c, 4, 78, 76
10, 182327, Note_on_c, 4, 78, 0
10, 182340, Note_on_c, 4, 76, 76
10, 182387, Note_on_c, 4, 76, 0
10, 182400, Note_on_c, 4, 74, 76
10, 182504, Note_on_c, 4, 74, 0
10, 182520, Note_on_c, 4, 78, 76
10, 182624, Note_on_c, 4, 78, 0
10, 182640, Note_on_c, 4, 79, 76
10, 182744, Note_on_c, 4, 79, 0
10, 182760, Note_on_c, 4, 71, 76
10, 182864, Note_on_c, 4, 71, 0
10, 182880, Note_on_c, 4, 70, 76
10, 182927, Note_on_c, 4, 70, 0
10, 182940, Note_on_c, 4, 66, 76
10, 182987, Note_on_c, 4, 66, 0
10, 183000, Note_on_c, 4, 68, 76
10, 183047, Note_on_c, 4, 68, 0
10, 183060, Note_on_c, 4, 70, 76
10, 183107, Note_on_c, 4, 70, 0
10, 183120, Note_on_c, 4, 71, 76
10, 183167, Note_on_c, 4, 71, 0
10, 183180, Note_on_c, 4, 73, 76
10, 183227, Note_on_c, 4, 73, 0
10, 183240, Note_on_c, 4, 74, 76
10, 183287, Note_on_c, 4, 74, 0
10, 183300, Note_on_c, 4, 76, 76
10, 183347, Note_on_c, 4, 76, 0
10, 183360, Note_on_c, 4, 78, 76
10, 183407, Note_on_c, 4, 78, 0
10, 183420, Note_on_c, 4, 79, 76
10, 183467, Note_on_c, 4, 79, 0
10, 183480, Note_on_c, 4, 78, 76
10, 183527, Note_on_c, 4, 78, 0
10, 183540, Note_on_c, 4, 76, 76
10, 183587, Note_on_c, 4, 76, 0
10, 183600, Note_on_c, 4, 74, 76
10, 183647, Note_on_c, 4, 74, 0
10, 183660, Note_on_c, 4, 73, 76
10, 183707, Note_on_c, 4, 73, 0
10, 183720, Note_on_c, 4, 71, 76
10, 183767, Note_on_c, 4, 71, 0
10, 183780, Note_on_c, 4, 70, 76
10, 183827, Note_on_c, 4, 70, 0
10, 183840, Note_on_c, 4, 71, 76
10, 183944, Note_on_c, 4, 71, 0
10, 183960, Note_on_c, 4, 73, 76
10, 184064, Note_on_c, 4, 73, 0
10, 184080, Note_on_c, 4, 66, 76
10, 184184, Note_on_c, 4, 66, 0
10, 184200, Note_on_c, 4, 70, 76
10, 184304, Note_on_c, 4, 70, 0
10, 184320, Note_on_c, 4, 71, 76
10, 184439, Note_on_c, 4, 71, 0
10, 189960, Note_on_c, 4, 79, 76
10, 190064, Note_on_c, 4, 79, 0
10, 190080, Note_on_c, 4, 78, 76
10, 190199, Note_on_c, 4, 78, 0
10, 190440, Note_on_c, 4, 78, 76
10, 190544, Note_on_c, 4, 78, 0
10, 190560, Note_on_c, 4, 76, 76
10, 190679, Note_on_c, 4, 76, 0
10, 190920, Note_on_c, 4, 76, 76
10, 191024, Note_on_c, 4, 76, 0
10, 191040, Note_on_c, 4, 74, 76
10, 191159, Note_on_c, 4, 74, 0
10, 191400, Note_on_c, 4, 74, 76
10, 191504, Note_on_c, 4, 74, 0
10, 191520, Note_on_c, 4, 73, 76
10, 191609, Note_on_c, 4, 73, 0
10, 191640, Note_on_c, 4, 76, 76
10, 191729, Note_on_c, 4, 76, 0
10, 191760, Note_on_c, 4, 74, 76
10, 191849, Note_on_c, 4, 74, 0
10, 191880, Note_on_c, 4, 78, 76
10, 191969, Note_on_c, 4, 78, 0
10, 192000, Note_on_c, 4, 76, 76
10, 192104, Note_on_c, 4, 76, 0
10, 192120, Note_on_c, 4, 79, 76
10, 192224, Note_on_c, 4, 79, 0
10, 192240, Note_on_c, 4, 78, 76
10, 192344, Note_on_c, 4, 78, 0
10, 192360, Note_on_c, 4, 81, 76
10, 192464, Note_on_c, 4, 81, 0
10, 192480, Note_on_c, 4, 73, 76
10, 192584, Note_on_c, 4, 73, 0
10, 192600, Note_on_c, 4, 76, 76
10, 192704, Note_on_c, 4, 76, 0
10, 192720, Note_on_c, 4, 69, 76
10, 192824, Note_on_c, 4, 69, 0
10, 192840, Note_on_c, 4, 73, 76
10, 192944, Note_on_c, 4, 73, 0
10, 192960, Note_on_c, 4, 74, 76
10, 193064, Note_on_c, 4, 74, 0
10, 193080, Note_on_c, 4, 71, 76
10, 193184, Note_on_c, 4, 71, 0
10, 193200, Note_on_c, 4, 68, 76
10, 193304, Note_on_c, 4, 68, 0
10, 193320, Note_on_c, 4, 71, 76
10, 193424, Note_on_c, 4, 71, 0
10, 193440, Note_on_c, 4, 73, 76
10, 193559, Note_on_c, 4, 73, 0
10, 195360, Note_on_c, 4, 74, 52
10, 196544, Note_on_c, 4, 74, 0
10, 196560, Note_on_c, 4, 71, 52
10, 196784, Note_on_c, 4, 71, 0
10, 196800, Note_on_c, 4, 73, 52
10, 198224, Note_on_c, 4, 73, 0
10, 198240, Note_on_c, 4, 72, 52
10, 199304, Note_on_c, 4, 72, 0
10, 199320, Note_on_c, 4, 69, 52
10, 199424, Note_on_c, 4, 69, 0
10, 199440, Note_on_c, 4, 66, 52
10, 199544, Note_on_c, 4, 66, 0
10, 199560, Note_on_c, 4, 62, 52
10, 199664, Note_on_c, 4, 62, 0
10, 199680, Note_on_c, 4, 71, 52
10, 199799, Note_on_c, 4, 71, 0
10, 201720, Note_on_c, 4, 69, 76
10, 201767, Note_on_c, 4, 69, 0
10, 201780, Note_on_c, 4, 71, 76
10, 201827, Note_on_c, 4, 71, 0
10, 201840, Note_on_c, 4, 73, 76
10, 201944, Note_on_c, 4, 73, 0
10, 201960, Note_on_c, 4, 73, 76
10, 202007, Note_on_c, 4, 73, 0
10, 202020, Note_on_c, 4, 74, 76
10, 202067, Note_on_c, 4, 74, 0
10, 202080, Note_on_c, 4, 76, 76
10, 202184, Note_on_c, 4, 76, 0
10, 202200, Note_on_c, 4, 73, 76
10, 202247, Note_on_c, 4, 73, 0
10, 202260, Note_on_c, 4, 74, 76
10, 202307, Note_on_c, 4, 74, 0
10, 202320, Note_on_c, 4, 76, 76
10, 202424, Note_on_c, 4, 76, 0
10, 202440, Note_on_c, 4, 76, 76
10, 202487, Note_on_c, 4, 76, 0
10, 202500, Note_on_c, 4, 78, 76
10, 202547, Note_on_c, 4, 78, 0
10, 202560, Note_on_c, 4, 79, 76
10, 202664, Note_on_c, 4, 79, 0
10, 202680, Note_on_c, 4, 79, 76
10, 202727, Note_on_c, 4, 79, 0
10, 202740, Note_on_c, 4, 78, 76
10, 202787, Note_on_c, 4, 78, 0
10, 202800, Note_on_c, 4, 79, 76
10, 202904, Note_on_c, 4, 79, 0
10, 202920, Note_on_c, 4, 81, 76
10, 202967, Note_on_c, 4, 81, 0
10, 202980, Note_on_c, 4, 79, 76
10, 203027, Note_on_c, 4, 79, 0
10, 203040, Note_on_c, 4, 78, 76
10, 203144, Note_on_c, 4, 78, 0
10, 203160, Note_on_c, 4, 81, 76
10, 203264, Note_on_c, 4, 81, 0
10, 203280, Note_on_c, 4, 74, 76
10, 203384, Note_on_c, 4, 74, 0
10, 203400, Note_on_c, 4, 78, 76
10, 203624, Note_on_c, 4, 78, 0
10, 203640, Note_on_c, 4, 81, 76
10, 203744, Note_on_c, 4, 81, 0
10, 203760, Note_on_c, 4, 72, 76
10, 203864, Note_on_c, 4, 72, 0
10, 203880, Note_on_c, 4, 78, 76
10, 204104, Note_on_c, 4, 78, 0
10, 204120, Note_on_c, 4, 81, 76
10, 204224, Note_on_c, 4, 81, 0
10, 204240, Note_on_c, 4, 74, 76
10, 204344, Note_on_c, 4, 74, 0
10, 204360, Note_on_c, 4, 78, 76
10, 204464, Note_on_c, 4, 78, 0
10, 204480, Note_on_c, 4, 79, 76
10, 204584, Note_on_c, 4, 79, 0
10, 204600, Note_on_c, 4, 83, 76
10, 204704, Note_on_c, 4, 83, 0
10, 204720, Note_on_c, 4, 74, 76
10, 204824, Note_on_c, 4, 74, 0
10, 204840, Note_on_c, 4, 80, 76
10, 205064, Note_on_c, 4, 80, 0
10, 205080, Note_on_c, 4, 83, 76
10, 205184, Note_on_c, 4, 83, 0
10, 205200, Note_on_c, 4, 76, 76
10, 205304, Note_on_c, 4, 76, 0
10, 205320, Note_on_c, 4, 80, 76
10, 205424, Note_on_c, 4, 80, 0
10, 205440, Note_on_c, 4, 81, 76
10, 205487, Note_on_c, 4, 81, 0
10, 205500, Note_on_c, 4, 76, 76
10, 205547, Note_on_c, 4, 76, 0
10, 205560, Note_on_c, 4, 73, 76
10, 205607, Note_on_c, 4, 73, 0
10, 205620, Note_on_c, 4, 74, 76
10, 205667, Note_on_c, 4, 74, 0
10, 205680, Note_on_c, 4, 76, 76
10, 205727, Note_on_c, 4, 76, 0
10, 205740, Note_on_c, 4, 78, 76
10, 205787, Note_on_c, 4, 78, 0
10, 205800, Note_on_c, 4, 76, 76
10, 205847, Note_on_c, 4, 76, 0
10, 205860, Note_on_c, 4, 78, 76
10, 205907, Note_on_c, 4, 78, 0
10, 205920, Note_on_c, 4, 79, 76
10, 205967, Note_on_c, 4, 79, 0
10, 205980, Note_on_c, 4, 76, 76
10, 206027, Note_on_c, 4, 76, 0
10, 206040, Note_on_c, 4, 69, 76
10, 206087, Note_on_c, 4, 69, 0
10, 206100, Note_on_c, 4, 71, 76
10, 206147, Note_on_c, 4, 71, 0
10, 206160, Note_on_c, 4, 73, 76
10, 206207, Note_on_c, 4, 73, 0
10, 206220, Note_on_c, 4, 74, 76
10, 206267, Note_on_c, 4, 74, 0
10, 206280, Note_on_c, 4, 73, 76
10, 206327, Note_on_c, 4, 73, 0
10, 206340, Note_on_c, 4, 74, 76
10, 206387, Note_on_c, 4, 74, 0
10, 206400, Note_on_c, 4, 76, 76
10, 206447, Note_on_c, 4, 76, 0
10, 206460, Note_on_c, 4, 74, 76
10, 206507, Note_on_c, 4, 74, 0
10, 206520, Note_on_c, 4, 73, 76
10, 206567, Note_on_c, 4, 73, 0
10, 206580, Note_on_c, 4, 74, 76
10, 206627, Note_on_c, 4, 74, 0
10, 206640, Note_on_c, 4, 76, 76
10, 206687, Note_on_c, 4, 76, 0
10, 206700, Note_on_c, 4, 74, 76
10, 206747, Note_on_c, 4, 74, 0
10, 206760, Note_on_c, 4, 73, 76
10, 206807, Note_on_c, 4, 73, 0
10, 206820, Note_on_c, 4, 71, 76
10, 206867, Note_on_c, 4, 71, 0
10, 206880, Note_on_c, 4, 69, 76
10, 206927, Note_on_c, 4, 69, 0
10, 206940, Note_on_c, 4, 74, 76
10, 206987, Note_on_c, 4, 74, 0
10, 207000, Note_on_c, 4, 73, 76
10, 207047, Note_on_c, 4, 73, 0
10, 207060, Note_on_c, 4, 71, 76
10, 207107, Note_on_c, 4, 71, 0
10, 207120, Note_on_c, 4, 69, 76
10, 207167, Note_on_c, 4, 69, 0
10, 207180, Note_on_c, 4, 67, 76
10, 207227, Note_on_c, 4, 67, 0
10, 207240, Note_on_c, 4, 66, 76
10, 207287, Note_on_c, 4, 66, 0
10, 207300, Note_on_c, 4, 64, 76
10, 207347, Note_on_c, 4, 64, 0
10, 207360, Note_on_c, 4, 62, 76
10, 207464, Note_on_c, 4, 62, 0
10, 207480, Note_on_c, 4, 74, 76
10, 207584, Note_on_c, 4, 74, 0
10, 207600, Note_on_c, 4, 74, 76
10, 207704, Note_on_c, 4, 74, 0
10, 207720, Note_on_c, 4, 74, 76
10, 207824, Note_on_c, 4, 74, 0
10, 207840, Note_on_c, 4, 74, 76
10, 207944, Note_on_c, 4, 74, 0
10, 207960, Note_on_c, 4, 74, 76
10, 208064, Note_on_c, 4, 74, 0
10, 208080, Note_on_c, 4, 74, 76
10, 208184, Note_on_c, 4, 74, 0
10, 208200, Note_on_c, 4, 74, 76
10, 208304, Note_on_c, 4, 74, 0
10, 208320, Note_on_c, 4, 74, 76
10, 208424, Note_on_c, 4, 74, 0
10, 208440, Note_on_c, 4, 76, 76
10, 208544, Note_on_c, 4, 76, 0
10, 208560, Note_on_c, 4, 76, 76
10, 208664, Note_on_c, 4, 76, 0
10, 208680, Note_on_c, 4, 76, 76
10, 208784, Note_on_c, 4, 76, 0
10, 208800, Note_on_c, 4, 76, 76
10, 208904, Note_on_c, 4, 76, 0
10, 208920, Note_on_c, 4, 76, 76
10, 209024, Note_on_c, 4, 76, 0
10, 209040, Note_on_c, 4, 76, 76
10, 209144, Note_on_c, 4, 76, 0
10, 209160, Note_on_c, 4, 76, 76
10, 209264, Note_on_c, 4, 76, 0
10, 209280, Note_on_c, 4, 76, 76
10, 209384, Note_on_c, 4, 76, 0
10, 209400, Note_on_c, 4, 76, 76
10, 209504, Note_on_c, 4, 76, 0
10, 209520, Note_on_c, 4, 76, 76
10, 209624, Note_on_c, 4, 76, 0
10, 209640, Note_on_c, 4, 76, 76
10, 209744, Note_on_c, 4, 76, 0
10, 209760, Note_on_c, 4, 76, 76
10, 209864, Note_on_c, 4, 76, 0
10, 209880, Note_on_c, 4, 69, 76
10, 209927, Note_on_c, 4, 69, 0
10, 209940, Note_on_c, 4, 71, 76
10, 209987, Note_on_c, 4, 71, 0
10, 210000, Note_on_c, 4, 73, 76
10, 210104, Note_on_c, 4, 73, 0
10, 210120, Note_on_c, 4, 73, 76
10, 210167, Note_on_c, 4, 73, 0
10, 210180, Note_on_c, 4, 74, 76
10, 210227, Note_on_c, 4, 74, 0
10, 210240, Note_on_c, 4, 76, 76
10, 210344, Note_on_c, 4, 76, 0
10, 210360, Note_on_c, 4, 73, 76
10, 210407, Note_on_c, 4, 73, 0
10, 210420, Note_on_c, 4, 74, 76
10, 210467, Note_on_c, 4, 74, 0
10, 210480, Note_on_c, 4, 76, 76
10, 210584, Note_on_c, 4, 76, 0
10, 210600, Note_on_c, 4, 76, 76
10, 210647, Note_on_c, 4, 76, 0
10, 210660, Note_on_c, 4, 78, 76
10, 210707, Note_on_c, 4, 78, 0
10, 210720, Note_on_c, 4, 79, 76
10, 210824, Note_on_c, 4, 79, 0
10, 210840, Note_on_c, 4, 79, 76
10, 210887, Note_on_c, 4, 79, 0
10, 210900, Note_on_c, 4, 78, 76
10, 210947, Note_on_c, 4, 78, 0
10, 210960, Note_on_c, 4, 79, 76
10, 211064, Note_on_c, 4, 79, 0
10, 211080, Note_on_c, 4, 81, 76
10, 211127, Note_on_c, 4, 81, 0
10, 211140, Note_on_c, 4, 79, 76
10, 211187, Note_on_c, 4, 79, 0
10, 211200, Note_on_c, 4, 78, 76
10, 211304, Note_on_c, 4, 78, 0
10, 211320, Note_on_c, 4, 78, 76
10, 211367, Note_on_c, 4, 78, 0
10, 211380, Note_on_c, 4, 76, 76
10, 211427, Note_on_c, 4, 76, 0
10, 211440, Note_on_c, 4, 78, 76
10, 211544, Note_on_c, 4, 78, 0
10, 211560, Note_on_c, 4, 79, 76
10, 211607, Note_on_c, 4, 79, 0
10, 211620, Note_on_c, 4, 78, 76
10, 211667, Note_on_c, 4, 78, 0
10, 211680, Note_on_c, 4, 76, 76
10, 211784, Note_on_c, 4, 76, 0
10, 211800, Note_on_c, 4, 76, 76
10, 211847, Note_on_c, 4, 76, 0
10, 211860, Note_on_c, 4, 74, 76
10, 211907, Note_on_c, 4, 74, 0
10, 211920, Note_on_c, 4, 76, 76
10, 212024, Note_on_c, 4, 76, 0
10, 212040, Note_on_c, 4, 78, 76
10, 212087, Note_on_c, 4, 78, 0
10, 212100, Note_on_c, 4, 76, 76
10, 212147, Note_on_c, 4, 76, 0
10, 212160, Note_on_c, 4, 74, 76
10, 212264, Note_on_c, 4, 74, 0
10, 212280, Note_on_c, 4, 74, 76
10, 212327, Note_on_c, 4, 74, 0
10, 212340, Note_on_c, 4, 76, 76
10, 212387, Note_on_c, 4, 76, 0
10, 212400, Note_on_c, 4, 78, 76
10, 212504, Note_on_c, 4, 78, 0
10, 212520, Note_on_c, 4, 78, 76
10, 212567, Note_on_c, 4, 78, 0
10, 212580, Note_on_c, 4, 79, 76
10, 212627, Note_on_c, 4, 79, 0
10, 212640, Note_on_c, 4, 81, 76
10, 212744, Note_on_c, 4, 81, 0
10, 212760, Note_on_c, 4, 78, 76
10, 212807, Note_on_c, 4, 78, 0
10, 212820, Note_on_c, 4, 79, 76
10, 212867, Note_on_c, 4, 79, 0
10, 212880, Note_on_c, 4, 81, 76
10, 212984, Note_on_c, 4, 81, 0
10, 213000, Note_on_c, 4, 81, 76
10, 213047, Note_on_c, 4, 81, 0
10, 213060, Note_on_c, 4, 83, 76
10, 213107, Note_on_c, 4, 83, 0
10, 213120, Note_on_c, 4, 84, 76
10, 213224, Note_on_c, 4, 84, 0
10, 213240, Note_on_c, 4, 84, 76
10, 213287, Note_on_c, 4, 84, 0
10, 213300, Note_on_c, 4, 83, 76
10, 213347, Note_on_c, 4, 83, 0
10, 213360, Note_on_c, 4, 84, 76
10, 213464, Note_on_c, 4, 84, 0
10, 213480, Note_on_c, 4, 86, 76
10, 213527, Note_on_c, 4, 86, 0
10, 213540, Note_on_c, 4, 84, 76
10, 213587, Note_on_c, 4, 84, 0
10, 213600, Note_on_c, 4, 83, 76
10, 213647, Note_on_c, 4, 83, 0
10, 213660, Note_on_c, 4, 79, 76
10, 213707, Note_on_c, 4, 79, 0
10, 213720, Note_on_c, 4, 76, 76
10, 213767, Note_on_c, 4, 76, 0
10, 213780, Note_on_c, 4, 78, 76
10, 213827, Note_on_c, 4, 78, 0
10, 213840, Note_on_c, 4, 79, 76
10, 213887, Note_on_c, 4, 79, 0
10, 213900, Note_on_c, 4, 81, 76
10, 213947, Note_on_c, 4, 81, 0
10, 213960, Note_on_c, 4, 78, 76
10, 214007, Note_on_c, 4, 78, 0
10, 214020, Note_on_c, 4, 79, 76
10, 214067, Note_on_c, 4, 79, 0
10, 214080, Note_on_c, 4, 81, 76
10, 214127, Note_on_c, 4, 81, 0
10, 214140, Note_on_c, 4, 78, 76
10, 214187, Note_on_c, 4, 78, 0
10, 214200, Note_on_c, 4, 74, 76
10, 214247, Note_on_c, 4, 74, 0
10, 214260, Note_on_c, 4, 76, 76
10, 214307, Note_on_c, 4, 76, 0
10, 214320, Note_on_c, 4, 78, 76
10, 214367, Note_on_c, 4, 78, 0
10, 214380, Note_on_c, 4, 79, 76
10, 214427, Note_on_c, 4, 79, 0
10, 214440, Note_on_c, 4, 76, 76
10, 214487, Note_on_c, 4, 76, 0
10, 214500, Note_on_c, 4, 78, 76
10, 214547, Note_on_c, 4, 78, 0
10, 214560, Note_on_c, 4, 79, 76
10, 214607, Note_on_c, 4, 79, 0
10, 214620, Note_on_c, 4, 78, 76
10, 214667, Note_on_c, 4, 78, 0
10, 214680, Note_on_c, 4, 76, 76
10, 214727, Note_on_c, 4, 76, 0
10, 214740, Note_on_c, 4, 79, 76
10, 214787, Note_on_c, 4, 79, 0
10, 214800, Note_on_c, 4, 78, 76
10, 214847, Note_on_c, 4, 78, 0
10, 214860, Note_on_c, 4, 76, 76
10, 214907, Note_on_c, 4, 76, 0
10, 214920, Note_on_c, 4, 74, 76
10, 214967, Note_on_c, 4, 74, 0
10, 214980, Note_on_c, 4, 78, 76
10, 215027, Note_on_c, 4, 78, 0
10, 215040, Note_on_c, 4, 76, 76
10, 215087, Note_on_c, 4, 76, 0
10, 215100, Note_on_c, 4, 81, 76
10, 215147, Note_on_c, 4, 81, 0
10, 215160, Note_on_c, 4, 73, 76
10, 215207, Note_on_c, 4, 73, 0
10, 215220, Note_on_c, 4, 74, 76
10, 215267, Note_on_c, 4, 74, 0
10, 215280, Note_on_c, 4, 76, 76
10, 215327, Note_on_c, 4, 76, 0
10, 215340, Note_on_c, 4, 78, 76
10, 215387, Note_on_c, 4, 78, 0
10, 215400, Note_on_c, 4, 76, 76
10, 215447, Note_on_c, 4, 76, 0
10, 215460, Note_on_c, 4, 78, 76
10, 215507, Note_on_c, 4, 78, 0
10, 215520, Note_on_c, 4, 79, 76
10, 215567, Note_on_c, 4, 79, 0
10, 215580, Note_on_c, 4, 76, 76
10, 215627, Note_on_c, 4, 76, 0
10, 215640, Note_on_c, 4, 69, 76
10, 215687, Note_on_c, 4, 69, 0
10, 215700, Note_on_c, 4, 71, 76
10, 215747, Note_on_c, 4, 71, 0
10, 215760, Note_on_c, 4, 73, 76
10, 215807, Note_on_c, 4, 73, 0
10, 215820, Note_on_c, 4, 74, 76
10, 215867, Note_on_c, 4, 74, 0
10, 215880, Note_on_c, 4, 73, 76
10, 215927, Note_on_c, 4, 73, 0
10, 215940, Note_on_c, 4, 74, 76
10, 215987, Note_on_c, 4, 74, 0
10, 216000, Note_on_c, 4, 76, 76
10, 216047, Note_on_c, 4, 76, 0
10, 216060, Note_on_c, 4, 74, 76
10, 216107, Note_on_c, 4, 74, 0
10, 216120, Note_on_c, 4, 73, 76
10, 216167, Note_on_c, 4, 73, 0
10, 216180, Note_on_c, 4, 74, 76
10, 216227, Note_on_c, 4, 74, 0
10, 216240, Note_on_c, 4, 76, 76
10, 216287, Note_on_c, 4, 76, 0
10, 216300, Note_on_c, 4, 79, 76
10, 216347, Note_on_c, 4, 79, 0
10, 216360, Note_on_c, 4, 78, 76
10, 216407, Note_on_c, 4, 78, 0
10, 216420, Note_on_c, 4, 76, 76
10, 216467, Note_on_c, 4, 76, 0
10, 216480, Note_on_c, 4, 81, 76
10, 216527, Note_on_c, 4, 81, 0
10, 216540, Note_on_c, 4, 79, 76
10, 216587, Note_on_c, 4, 79, 0
10, 216600, Note_on_c, 4, 78, 76
10, 216647, Note_on_c, 4, 78, 0
10, 216660, Note_on_c, 4, 79, 76
10, 216707, Note_on_c, 4, 79, 0
10, 216720, Note_on_c, 4, 81, 76
10, 216767, Note_on_c, 4, 81, 0
10, 216780, Note_on_c, 4, 78, 76
10, 216827, Note_on_c, 4, 78, 0
10, 216840, Note_on_c, 4, 74, 76
10, 216887, Note_on_c, 4, 74, 0
10, 216900, Note_on_c, 4, 78, 76
10, 216947, Note_on_c, 4, 78, 0
10, 216960, Note_on_c, 4, 79, 76
10, 217007, Note_on_c, 4, 79, 0
10, 217020, Note_on_c, 4, 78, 76
10, 217067, Note_on_c, 4, 78, 0
10, 217080, Note_on_c, 4, 76, 76
10, 217127, Note_on_c, 4, 76, 0
10, 217140, Note_on_c, 4, 78, 76
10, 217187, Note_on_c, 4, 78, 0
10, 217200, Note_on_c, 4, 79, 76
10, 217247, Note_on_c, 4, 79, 0
10, 217260, Note_on_c, 4, 83, 76
10, 217307, Note_on_c, 4, 83, 0
10, 217320, Note_on_c, 4, 81, 76
10, 217367, Note_on_c, 4, 81, 0
10, 217380, Note_on_c, 4, 79, 76
10, 217427, Note_on_c, 4, 79, 0
10, 217440, Note_on_c, 4, 78, 76
10, 217544, Note_on_c, 4, 78, 0
10, 217560, Note_on_c, 4, 74, 76
10, 217664, Note_on_c, 4, 74, 0
10, 217680, Note_on_c, 4, 71, 76
10, 217784, Note_on_c, 4, 71, 0
10, 217800, Note_on_c, 4, 76, 76
10, 217904, Note_on_c, 4, 76, 0
10, 217920, Note_on_c, 4, 73, 76
10, 217967, Note_on_c, 4, 73, 0
10, 217980, Note_on_c, 4, 69, 76
10, 218027, Note_on_c, 4, 69, 0
10, 218040, Note_on_c, 4, 71, 76
10, 218087, Note_on_c, 4, 71, 0
10, 218100, Note_on_c, 4, 73, 76
10, 218147, Note_on_c, 4, 73, 0
10, 218160, Note_on_c, 4, 74, 76
10, 218207, Note_on_c, 4, 74, 0
10, 218220, Note_on_c, 4, 76, 76
10, 218267, Note_on_c, 4, 76, 0
10, 218280, Note_on_c, 4, 78, 76
10, 218327, Note_on_c, 4, 78, 0
10, 218340, Note_on_c, 4, 79, 76
10, 218387, Note_on_c, 4, 79, 0
10, 218400, Note_on_c, 4, 78, 76
10, 218447, Note_on_c, 4, 78, 0
10, 218460, Note_on_c, 4, 76, 76
10, 218507, Note_on_c, 4, 76, 0
10, 218520, Note_on_c, 4, 74, 76
10, 218567, Note_on_c, 4, 74, 0
10, 218580, Note_on_c, 4, 76, 76
10, 218627, Note_on_c, 4, 76, 0
10, 218640, Note_on_c, 4, 69, 76
10, 218744, Note_on_c, 4, 69, 0
10, 218760, Note_on_c, 4, 73, 76
10, 218864, Note_on_c, 4, 73, 0
10, 218880, Note_on_c, 4, 74, 76
10, 219173, Note_on_c, 4, 74, 0
10, 219180, Note_on_c, 4, 76, 76
10, 219233, Note_on_c, 4, 76, 0
10, 219240, Note_on_c, 4, 78, 76
10, 219293, Note_on_c, 4, 78, 0
10, 219300, Note_on_c, 4, 74, 76
10, 219353, Note_on_c, 4, 74, 0
10, 219360, Note_on_c, 4, 69, 76
10, 219653, Note_on_c, 4, 69, 0
10, 219660, Note_on_c, 4, 71, 76
10, 219713, Note_on_c, 4, 71, 0
10, 219720, Note_on_c, 4, 72, 76
10, 219773, Note_on_c, 4, 72, 0
10, 219780, Note_on_c, 4, 69, 76
10, 219833, Note_on_c, 4, 69, 0
10, 219840, Note_on_c, 4, 66, 76
10, 220133, Note_on_c, 4, 66, 0
10, 220140, Note_on_c, 4, 67, 76
10, 220193, Note_on_c, 4, 67, 0
10, 220200, Note_on_c, 4, 69, 76
10, 220253, Note_on_c, 4, 69, 0
10, 220260, Note_on_c, 4, 66, 76
10, 220313, Note_on_c, 4, 66, 0
10, 220320, Note_on_c, 4, 62, 76
10, 220645, Note_on_c, 4, 62, 0
10, 220650, Note_on_c, 4, 64, 76
10, 220675, Note_on_c, 4, 64, 0
10, 220680, Note_on_c, 4, 66, 76
10, 220705, Note_on_c, 4, 66, 0
10, 220710, Note_on_c, 4, 67, 76
10, 220735, Note_on_c, 4, 67, 0
10, 220740, Note_on_c, 4, 69, 76
10, 220765, Note_on_c, 4, 69, 0
10, 220770, Note_on_c, 4, 71, 76
10, 220795, Note_on_c, 4, 71, 0
10, 220800, Note_on_c, 4, 72, 76
10, 220973, Note_on_c, 4, 72, 0
10, 220980, Note_on_c, 4, 72, 76
10, 221033, Note_on_c, 4, 72, 0
10, 221040, Note_on_c, 4, 74, 76
10, 221213, Note_on_c, 4, 74, 0
10, 221220, Note_on_c, 4, 76, 76
10, 221273, Note_on_c, 4, 76, 0
10, 221280, Note_on_c, 4, 74, 76
10, 221453, Note_on_c, 4, 74, 0
10, 221460, Note_on_c, 4, 72, 76
10, 221513, Note_on_c, 4, 72, 0
10, 221520, Note_on_c, 4, 71, 76
10, 221693, Note_on_c, 4, 71, 0
10, 221700, Note_on_c, 4, 69, 76
10, 221753, Note_on_c, 4, 69, 0
10, 221760, Note_on_c, 4, 71, 76
10, 221987, Note_on_c, 4, 71, 0
10, 222000, Note_on_c, 4, 67, 76
10, 222227, Note_on_c, 4, 67, 0
10, 222240, Note_on_c, 4, 71, 76
10, 222587, Note_on_c, 4, 71, 0
10, 222600, Note_on_c, 4, 73, 76
10, 222707, Note_on_c, 4, 73, 0
10, 222720, Note_on_c, 4, 74, 76
10, 223013, Note_on_c, 4, 74, 0
10, 223020, Note_on_c, 4, 73, 76
10, 223073, Note_on_c, 4, 73, 0
10, 223080, Note_on_c, 4, 74, 76
10, 223133, Note_on_c, 4, 74, 0
10, 223140, Note_on_c, 4, 76, 76
10, 223193, Note_on_c, 4, 76, 0
10, 223200, Note_on_c, 4, 75, 76
10, 223214, Note_on_c, 4, 75, 0
10, 223215, Note_on_c, 4, 76, 76
10, 223229, Note_on_c, 4, 76, 0
10, 223230, Note_on_c, 4, 75, 76
10, 223244, Note_on_c, 4, 75, 0
10, 223245, Note_on_c, 4, 76, 76
10, 223259, Note_on_c, 4, 76, 0
10, 223260, Note_on_c, 4, 75, 76
10, 223274, Note_on_c, 4, 75, 0
10, 223275, Note_on_c, 4, 76, 76
10, 223289, Note_on_c, 4, 76, 0
10, 223290, Note_on_c, 4, 75, 76
10, 223304, Note_on_c, 4, 75, 0
10, 223305, Note_on_c, 4, 76, 76
10, 223319, Note_on_c, 4, 76, 0
10, 223320, Note_on_c, 4, 75, 76
10, 223334, Note_on_c, 4, 75, 0
10, 223335, Note_on_c, 4, 76, 76
10, 223349, Note_on_c, 4, 76, 0
10, 223350, Note_on_c, 4, 75, 76
10, 223364, Note_on_c, 4, 75, 0
10, 223365, Note_on_c, 4, 76, 76
10, 223379, Note_on_c, 4, 76, 0
10, 223380, Note_on_c, 4, 75, 76
10, 223394, Note_on_c, 4, 75, 0
10, 223395, Note_on_c, 4, 76, 76
10, 223409, Note_on_c, 4, 76, 0
10, 223410, Note_on_c, 4, 75, 76
10, 223424, Note_on_c, 4, 75, 0
10, 223425, Note_on_c, 4, 76, 76
10, 223439, Note_on_c, 4, 76, 0
10, 223440, Note_on_c, 4, 75, 76
10, 223454, Note_on_c, 4, 75, 0
10, 223455, Note_on_c, 4, 76, 76
10, 223469, Note_on_c, 4, 76, 0
10, 223470, Note_on_c, 4, 75, 76
10, 223484, Note_on_c, 4, 75, 0
10, 223485, Note_on_c, 4, 76, 76
10, 223499, Note_on_c, 4, 76, 0
10, 223500, Note_on_c, 4, 75, 76
10, 223514, Note_on_c, 4, 75, 0
10, 223515, Note_on_c, 4, 76, 76
10, 223529, Note_on_c, 4, 76, 0
10, 223530, Note_on_c, 4, 73, 76
10, 223544, Note_on_c, 4, 73, 0
10, 223545, Note_on_c, 4, 75, 76
10, 223559, Note_on_c, 4, 75, 0
10, 223560, Note_on_c, 4, 76, 76
10, 223667, Note_on_c, 4, 76, 0
10, 223680, Note_on_c, 4, 78, 76
10, 223973, Note_on_c, 4, 78, 0
10, 223980, Note_on_c, 4, 81, 76
10, 224033, Note_on_c, 4, 81, 0
10, 224040, Note_on_c, 4, 79, 76
10, 224093, Note_on_c, 4, 79, 0
10, 224100, Note_on_c, 4, 78, 76
10, 224153, Note_on_c, 4, 78, 0
10, 224160, Note_on_c, 4, 83, 76
10, 224333, Note_on_c, 4, 83, 0
10, 224340, Note_on_c, 4, 81, 76
10, 224393, Note_on_c, 4, 81, 0
10, 224400, Note_on_c, 4, 79, 76
10, 224573, Note_on_c, 4, 79, 0
10, 224580, Note_on_c, 4, 78, 76
10, 224633, Note_on_c, 4, 78, 0
10, 224640, Note_on_c, 4, 79, 76
10, 224813, Note_on_c, 4, 79, 0
10, 224820, Note_on_c, 4, 78, 76
10, 224873, Note_on_c, 4, 78, 0
10, 224880, Note_on_c, 4, 76, 76
10, 225053, Note_on_c, 4, 76, 0
10, 225060, Note_on_c, 4, 78, 76
10, 225113, Note_on_c, 4, 78, 0
10, 225120, Note_on_c, 4, 78, 76
10, 225134, Note_on_c, 4, 78, 0
10, 225135, Note_on_c, 4, 79, 76
10, 225149, Note_on_c, 4, 79, 0
10, 225150, Note_on_c, 4, 78, 76
10, 225164, Note_on_c, 4, 78, 0
10, 225165, Note_on_c, 4, 79, 76
10, 225179, Note_on_c, 4, 79, 0
10, 225180, Note_on_c, 4, 78, 76
10, 225194, Note_on_c, 4, 78, 0
10, 225195, Note_on_c, 4, 79, 76
10, 225209, Note_on_c, 4, 79, 0
10, 225210, Note_on_c, 4, 78, 76
10, 225224, Note_on_c, 4, 78, 0
10, 225225, Note_on_c, 4, 79, 76
10, 225239, Note_on_c, 4, 79, 0
10, 225240, Note_on_c, 4, 78, 76
10, 225254, Note_on_c, 4, 78, 0
10, 225255, Note_on_c, 4, 79, 76
10, 225269, Note_on_c, 4, 79, 0
10, 225270, Note_on_c, 4, 78, 76
10, 225284, Note_on_c, 4, 78, 0
10, 225285, Note_on_c, 4, 79, 76
10, 225299, Note_on_c, 4, 79, 0
10, 225300, Note_on_c, 4, 78, 76
10, 225314, Note_on_c, 4, 78, 0
10, 225315, Note_on_c, 4, 79, 76
10, 225329, Note_on_c, 4, 79, 0
10, 225330, Note_on_c, 4, 78, 76
10, 225344, Note_on_c, 4, 78, 0
10, 225345, Note_on_c, 4, 79, 76
10, 225359, Note_on_c, 4, 79, 0
10, 225360, Note_on_c, 4, 78, 76
10, 225374, Note_on_c, 4, 78, 0
10, 225375, Note_on_c, 4, 79, 76
10, 225389, Note_on_c, 4, 79, 0
10, 225390, Note_on_c, 4, 78, 76
10, 225404, Note_on_c, 4, 78, 0
10, 225405, Note_on_c, 4, 79, 76
10, 225419, Note_on_c, 4, 79, 0
10, 225420, Note_on_c, 4, 78, 76
10, 225434, Note_on_c, 4, 78, 0
10, 225435, Note_on_c, 4, 79, 76
10, 225449, Note_on_c, 4, 79, 0
10, 225450, Note_on_c, 4, 76, 76
10, 225464, Note_on_c, 4, 76, 0
10, 225465, Note_on_c, 4, 78, 76
10, 225479, Note_on_c, 4, 78, 0
10, 225480, Note_on_c, 4, 76, 76
10, 225587, Note_on_c, 4, 76, 0
10, 225600, Note_on_c, 4, 76, 76
10, 225893, Note_on_c, 4, 76, 0
10, 225900, Note_on_c, 4, 76, 76
10, 225953, Note_on_c, 4, 76, 0
10, 225960, Note_on_c, 4, 74, 76
10, 226013, Note_on_c, 4, 74, 0
10, 226020, Note_on_c, 4, 73, 76
10, 226073, Note_on_c, 4, 73, 0
10, 226080, Note_on_c, 4, 74, 76
10, 226253, Note_on_c, 4, 74, 0
10, 226260, Note_on_c, 4, 83, 76
10, 226313, Note_on_c, 4, 83, 0
10, 226320, Note_on_c, 4, 76, 76
10, 226493, Note_on_c, 4, 76, 0
10, 226500, Note_on_c, 4, 74, 76
10, 226553, Note_on_c, 4, 74, 0
10, 226560, Note_on_c, 4, 73, 76
10, 226733, Note_on_c, 4, 73, 0
10, 226740, Note_on_c, 4, 69, 76
10, 226793, Note_on_c, 4, 69, 0
10, 226800, Note_on_c, 4, 73, 76
10, 226973, Note_on_c, 4, 73, 0
10, 226980, Note_on_c, 4, 76, 76
10, 227033, Note_on_c, 4, 76, 0
10, 227040, Note_on_c, 4, 81, 76
10, 227387, Note_on_c, 4, 81, 0
10, 227400, Note_on_c, 4, 81, 76
10, 227507, Note_on_c, 4, 81, 0
10, 227520, Note_on_c, 4, 81, 76
10, 227845, Note_on_c, 4, 81, 0
10, 227850, Note_on_c, 4, 71, 76
10, 227875, Note_on_c, 4, 71, 0
10, 227880, Note_on_c, 4, 73, 76
10, 227905, Note_on_c, 4, 73, 0
10, 227910, Note_on_c, 4, 74, 76
10, 227935, Note_on_c, 4, 74, 0
10, 227940, Note_on_c, 4, 76, 76
10, 227965, Note_on_c, 4, 76, 0
10, 227970, Note_on_c, 4, 78, 76
10, 227995, Note_on_c, 4, 78, 0
10, 228000, Note_on_c, 4, 79, 76
10, 228347, Note_on_c, 4, 79, 0
10, 228360, Note_on_c, 4, 79, 76
10, 228467, Note_on_c, 4, 79, 0
10, 228480, Note_on_c, 4, 79, 76
10, 228805, Note_on_c, 4, 79, 0
10, 228810, Note_on_c, 4, 78, 76
10, 228835, Note_on_c, 4, 78, 0
10, 228840, Note_on_c, 4, 76, 76
10, 228865, Note_on_c, 4, 76, 0
10, 228870, Note_on_c, 4, 74, 76
10, 228895, Note_on_c, 4, 74, 0
10, 228900, Note_on_c, 4, 73, 76
10, 228925, Note_on_c, 4, 73, 0
10, 228930, Note_on_c, 4, 71, 76
10, 228955, Note_on_c, 4, 71, 0
10, 228960, Note_on_c, 4, 69, 76
10, 229133, Note_on_c, 4, 69, 0
10, 229140, Note_on_c, 4, 67, 76
10, 229165, Note_on_c, 4, 67, 0
10, 229170, Note_on_c, 4, 66, 76
10, 229195, Note_on_c, 4, 66, 0
10, 229200, Note_on_c, 4, 67, 76
10, 229373, Note_on_c, 4, 67, 0
10, 229380, Note_on_c, 4, 76, 76
10, 229433, Note_on_c, 4, 76, 0
10, 229440, Note_on_c, 4, 66, 76
10, 229733, Note_on_c, 4, 66, 0
10, 229740, Note_on_c, 4, 67, 76
10, 229793, Note_on_c, 4, 67, 0
10, 229800, Note_on_c, 4, 69, 76
10, 229853, Note_on_c, 4, 69, 0
10, 229860, Note_on_c, 4, 71, 76
10, 229913, Note_on_c, 4, 71, 0
10, 229920, Note_on_c, 4, 72, 76
10, 230267, Note_on_c, 4, 72, 0
10, 230280, Note_on_c, 4, 74, 76
10, 230387, Note_on_c, 4, 74, 0
10, 230400, Note_on_c, 4, 71, 76
10, 230693, Note_on_c, 4, 71, 0
10, 230700, Note_on_c, 4, 69, 76
10, 230753, Note_on_c, 4, 69, 0
10, 230760, Note_on_c, 4, 67, 76
10, 230813, Note_on_c, 4, 67, 0
10, 230820, Note_on_c, 4, 66, 76
10, 230873, Note_on_c, 4, 66, 0
10, 230880, Note_on_c, 4, 64, 76
10, 230933, Note_on_c, 4, 64, 0
10, 230940, Note_on_c, 4, 66, 76
10, 230993, Note_on_c, 4, 66, 0
10, 231000, Note_on_c, 4, 67, 76
10, 231053, Note_on_c, 4, 67, 0
10, 231060, Note_on_c, 4, 69, 76
10, 231113, Note_on_c, 4, 69, 0
10, 231120, Note_on_c, 4, 71, 76
10, 231173, Note_on_c, 4, 71, 0
10, 231180, Note_on_c, 4, 73, 76
10, 231233, Note_on_c, 4, 73, 0
10, 231240, Note_on_c, 4, 74, 76
10, 231293, Note_on_c, 4, 74, 0
10, 231300, Note_on_c, 4, 71, 76
10, 231353, Note_on_c, 4, 71, 0
10, 231360, Note_on_c, 4, 73, 76
10, 231413, Note_on_c, 4, 73, 0
10, 231420, Note_on_c, 4, 74, 76
10, 231473, Note_on_c, 4, 74, 0
10, 231480, Note_on_c, 4, 73, 76
10, 231533, Note_on_c, 4, 73, 0
10, 231540, Note_on_c, 4, 71, 76
10, 231593, Note_on_c, 4, 71, 0
10, 231600, Note_on_c, 4, 69, 76
10, 231653, Note_on_c, 4, 69, 0
10, 231660, Note_on_c, 4, 71, 76
10, 231713, Note_on_c, 4, 71, 0
10, 231720, Note_on_c, 4, 73, 76
10, 231773, Note_on_c, 4, 73, 0
10, 231780, Note_on_c, 4, 74, 76
10, 231833, Note_on_c, 4, 74, 0
10, 231840, Note_on_c, 4, 76, 76
10, 231893, Note_on_c, 4, 76, 0
10, 231900, Note_on_c, 4, 78, 76
10, 231953, Note_on_c, 4, 78, 0
10, 231960, Note_on_c, 4, 79, 76
10, 232013, Note_on_c, 4, 79, 0
10, 232020, Note_on_c, 4, 81, 76
10, 232073, Note_on_c, 4, 81, 0
10, 232080, Note_on_c, 4, 79, 76
10, 232133, Note_on_c, 4, 79, 0
10, 232140, Note_on_c, 4, 78, 76
10, 232193, Note_on_c, 4, 78, 0
10, 232200, Note_on_c, 4, 79, 76
10, 232253, Note_on_c, 4, 79, 0
10, 232260, Note_on_c, 4, 76, 76
10, 232313, Note_on_c, 4, 76, 0
10, 232320, Note_on_c, 4, 78, 76
10, 232493, Note_on_c, 4, 78, 0
10, 232500, Note_on_c, 4, 76, 76
10, 232515, Note_on_c, 4, 76, 0
10, 232520, Note_on_c, 4, 74, 76
10, 232535, Note_on_c, 4, 74, 0
10, 232540, Note_on_c, 4, 73, 76
10, 232555, Note_on_c, 4, 73, 0
10, 232560, Note_on_c, 4, 74, 76
10, 232733, Note_on_c, 4, 74, 0
10, 232740, Note_on_c, 4, 71, 76
10, 232793, Note_on_c, 4, 71, 0
10, 232800, Note_on_c, 4, 73, 76
10, 233147, Note_on_c, 4, 73, 0
10, 233160, Note_on_c, 4, 74, 76
10, 233267, Note_on_c, 4, 74, 0
10, 233280, Note_on_c, 4, 74, 76
10, 234239, Note_on_c, 4, 74, 0
10, 234239, End_track
11, 0, Start_track
11, 0, Title_t, "Oboe II"
11, 0, MIDI_port, 0
11, 0, Program_c, 5, 68
11, 0, Control_c, 5, 10, 69
11, 0, Control_c, 5, 11, 127
11, 0, Control_c, 5, 7, 80
11, 0, Note_on_c, 5, 62, 76
11, 293, Note_on_c, 5, 62, 0
11, 300, Note_on_c, 5, 66, 76
11, 353, Note_on_c, 5, 66, 0
11, 360, Note_on_c, 5, 64, 76
11, 413, Note_on_c, 5, 64, 0
11, 420, Note_on_c, 5, 62, 76
11, 473, Note_on_c, 5, 62, 0
11, 480, Note_on_c, 5, 71, 76
11, 773, Note_on_c, 5, 71, 0
11, 780, Note_on_c, 5, 74, 76
11, 833, Note_on_c, 5, 74, 0
11, 840, Note_on_c, 5, 73, 76
11, 893, Note_on_c, 5, 73, 0
11, 900, Note_on_c, 5, 71, 76
11, 953, Note_on_c, 5, 71, 0
11, 960, Note_on_c, 5, 79, 76
11, 1253, Note_on_c, 5, 79, 0
11, 1260, Note_on_c, 5, 76, 76
11, 1313, Note_on_c, 5, 76, 0
11, 1320, Note_on_c, 5, 78, 76
11, 1373, Note_on_c, 5, 78, 0
11, 1380, Note_on_c, 5, 79, 76
11, 1433, Note_on_c, 5, 79, 0
11, 1440, Note_on_c, 5, 73, 76
11, 1733, Note_on_c, 5, 73, 0
11, 1740, Note_on_c, 5, 69, 76
11, 1793, Note_on_c, 5, 69, 0
11, 1800, Note_on_c, 5, 71, 76
11, 1853, Note_on_c, 5, 71, 0
11, 1860, Note_on_c, 5, 73, 76
11, 1913, Note_on_c, 5, 73, 0
11, 1920, Note_on_c, 5, 64, 76
11, 2267, Note_on_c, 5, 64, 0
11, 2280, Note_on_c, 5, 64, 76
11, 2387, Note_on_c, 5, 64, 0
11, 2400, Note_on_c, 5, 76, 76
11, 2573, Note_on_c, 5, 76, 0
11, 2580, Note_on_c, 5, 73, 76
11, 2633, Note_on_c, 5, 73, 0
11, 2640, Note_on_c, 5, 69, 76
11, 2813, Note_on_c, 5, 69, 0
11, 2820, Note_on_c, 5, 67, 76
11, 2873, Note_on_c, 5, 67, 0
11, 2880, Note_on_c, 5, 66, 76
11, 3053, Note_on_c, 5, 66, 0
11, 3060, Note_on_c, 5, 62, 76
11, 3113, Note_on_c, 5, 62, 0
11, 3120, Note_on_c, 5, 66, 76
11, 3293, Note_on_c, 5, 66, 0
11, 3300, Note_on_c, 5, 69, 76
11, 3353, Note_on_c, 5, 69, 0
11, 3360, Note_on_c, 5, 74, 76
11, 3533, Note_on_c, 5, 74, 0
11, 3540, Note_on_c, 5, 69, 76
11, 3593, Note_on_c, 5, 69, 0
11, 3600, Note_on_c, 5, 74, 76
11, 3773, Note_on_c, 5, 74, 0
11, 3780, Note_on_c, 5, 76, 76
11, 3833, Note_on_c, 5, 76, 0
11, 3840, Note_on_c, 5, 78, 76
11, 4133, Note_on_c, 5, 78, 0
11, 4140, Note_on_c, 5, 79, 76
11, 4193, Note_on_c, 5, 79, 0
11, 4200, Note_on_c, 5, 81, 76
11, 4253, Note_on_c, 5, 81, 0
11, 4260, Note_on_c, 5, 78, 76
11, 4313, Note_on_c, 5, 78, 0
11, 4320, Note_on_c, 5, 83, 76
11, 4613, Note_on_c, 5, 83, 0
11, 4620, Note_on_c, 5, 80, 76
11, 4673, Note_on_c, 5, 80, 0
11, 4680, Note_on_c, 5, 81, 76
11, 4733, Note_on_c, 5, 81, 0
11, 4740, Note_on_c, 5, 83, 76
11, 4793, Note_on_c, 5, 83, 0
11, 4800, Note_on_c, 5, 76, 76
11, 5093, Note_on_c, 5, 76, 0
11, 5100, Note_on_c, 5, 76, 76
11, 5153, Note_on_c, 5, 76, 0
11, 5160, Note_on_c, 5, 78, 76
11, 5213, Note_on_c, 5, 78, 0
11, 5220, Note_on_c, 5, 80, 76
11, 5273, Note_on_c, 5, 80, 0
11, 5280, Note_on_c, 5, 81, 76
11, 5453, Note_on_c, 5, 81, 0
11, 5460, Note_on_c, 5, 76, 76
11, 5513, Note_on_c, 5, 76, 0
11, 5520, Note_on_c, 5, 73, 76
11, 5693, Note_on_c, 5, 73, 0
11, 5700, Note_on_c, 5, 69, 76
11, 5753, Note_on_c, 5, 69, 0
11, 5760, Note_on_c, 5, 74, 76
11, 6107, Note_on_c, 5, 74, 0
11, 6120, Note_on_c, 5, 74, 76
11, 6227, Note_on_c, 5, 74, 0
11, 6240, Note_on_c, 5, 74, 76
11, 6413, Note_on_c, 5, 74, 0
11, 6420, Note_on_c, 5, 76, 76
11, 6445, Note_on_c, 5, 76, 0
11, 6450, Note_on_c, 5, 78, 76
11, 6475, Note_on_c, 5, 78, 0
11, 6480, Note_on_c, 5, 76, 76
11, 6653, Note_on_c, 5, 76, 0
11, 6660, Note_on_c, 5, 74, 76
11, 6713, Note_on_c, 5, 74, 0
11, 6720, Note_on_c, 5, 73, 76
11, 6893, Note_on_c, 5, 73, 0
11, 6900, Note_on_c, 5, 69, 76
11, 6953, Note_on_c, 5, 69, 0
11, 6960, Note_on_c, 5, 73, 76
11, 7133, Note_on_c, 5, 73, 0
11, 7140, Note_on_c, 5, 76, 76
11, 7193, Note_on_c, 5, 76, 0
11, 7200, Note_on_c, 5, 81, 76
11, 7373, Note_on_c, 5, 81, 0
11, 7380, Note_on_c, 5, 79, 76
11, 7405, Note_on_c, 5, 79, 0
11, 7410, Note_on_c, 5, 78, 76
11, 7435, Note_on_c, 5, 78, 0
11, 7440, Note_on_c, 5, 79, 76
11, 7613, Note_on_c, 5, 79, 0
11, 7620, Note_on_c, 5, 76, 76
11, 7673, Note_on_c, 5, 76, 0
11, 7680, Note_on_c, 5, 83, 76
11, 8027, Note_on_c, 5, 83, 0
11, 8040, Note_on_c, 5, 75, 76
11, 8147, Note_on_c, 5, 75, 0
11, 8160, Note_on_c, 5, 76, 76
11, 8333, Note_on_c, 5, 76, 0
11, 8340, Note_on_c, 5, 78, 76
11, 8393, Note_on_c, 5, 78, 0
11, 8400, Note_on_c, 5, 78, 76
11, 8414, Note_on_c, 5, 78, 0
11, 8415, Note_on_c, 5, 79, 76
11, 8429, Note_on_c, 5, 79, 0
11, 8430, Note_on_c, 5, 78, 76
11, 8444, Note_on_c, 5, 78, 0
11, 8445, Note_on_c, 5, 79, 76
11, 8459, Note_on_c, 5, 79, 0
11, 8460, Note_on_c, 5, 78, 76
11, 8474, Note_on_c, 5, 78, 0
11, 8475, Note_on_c, 5, 79, 76
11, 8489, Note_on_c, 5, 79, 0
11, 8490, Note_on_c, 5, 78, 76
11, 8504, Note_on_c, 5, 78, 0
11, 8505, Note_on_c, 5, 79, 76
11, 8519, Note_on_c, 5, 79, 0
11, 8520, Note_on_c, 5, 78, 76
11, 8534, Note_on_c, 5, 78, 0
11, 8535, Note_on_c, 5, 79, 76
11, 8549, Note_on_c, 5, 79, 0
11, 8550, Note_on_c, 5, 78, 76
11, 8564, Note_on_c, 5, 78, 0
11, 8565, Note_on_c, 5, 79, 76
11, 8579, Note_on_c, 5, 79, 0
11, 8580, Note_on_c, 5, 76, 76
11, 8605, Note_on_c, 5, 76, 0
11, 8610, Note_on_c, 5, 78, 76
11, 8635, Note_on_c, 5, 78, 0
11, 8640, Note_on_c, 5, 79, 76
11, 8933, Note_on_c, 5, 79, 0
11, 8940, Note_on_c, 5, 78, 76
11, 8993, Note_on_c, 5, 78, 0
11, 9000, Note_on_c, 5, 76, 76
11, 9053, Note_on_c, 5, 76, 0
11, 9060, Note_on_c, 5, 74, 76
11, 9113, Note_on_c, 5, 74, 0
11, 9120, Note_on_c, 5, 72, 76
11, 9293, Note_on_c, 5, 72, 0
11, 9300, Note_on_c, 5, 72, 76
11, 9353, Note_on_c, 5, 72, 0
11, 9360, Note_on_c, 5, 74, 76
11, 9533, Note_on_c, 5, 74, 0
11, 9540, Note_on_c, 5, 76, 76
11, 9573, Note_on_c, 5, 76, 0
11, 9580, Note_on_c, 5, 71, 76
11, 9599, Note_on_c, 5, 71, 0
11, 9600, Note_on_c, 5, 70, 76
11, 9947, Note_on_c, 5, 70, 0
11, 9960, Note_on_c, 5, 79, 76
11, 10067, Note_on_c, 5, 79, 0
11, 10080, Note_on_c, 5, 78, 76
11, 10253, Note_on_c, 5, 78, 0
11, 10260, Note_on_c, 5, 76, 76
11, 10313, Note_on_c, 5, 76, 0
11, 10320, Note_on_c, 5, 74, 76
11, 10493, Note_on_c, 5, 74, 0
11, 10500, Note_on_c, 5, 73, 76
11, 10553, Note_on_c, 5, 73, 0
11, 10560, Note_on_c, 5, 74, 76
11, 10733, Note_on_c, 5, 74, 0
11, 10740, Note_on_c, 5, 73, 76
11, 10793, Note_on_c, 5, 73, 0
11, 10800, Note_on_c, 5, 71, 76
11, 10973, Note_on_c, 5, 71, 0
11, 10980, Note_on_c, 5, 73, 76
11, 11033, Note_on_c, 5, 73, 0
11, 11040, Note_on_c, 5, 73, 76
11, 11387, Note_on_c, 5, 73, 0
11, 11400, Note_on_c, 5, 71, 76
11, 11507, Note_on_c, 5, 71, 0
11, 11520, Note_on_c, 5, 71, 76
11, 11813, Note_on_c, 5, 71, 0
11, 11820, Note_on_c, 5, 71, 76
11, 11873, Note_on_c, 5, 71, 0
11, 11880, Note_on_c, 5, 69, 76
11, 11933, Note_on_c, 5, 69, 0
11, 11940, Note_on_c, 5, 68, 76
11, 11993, Note_on_c, 5, 68, 0
11, 12000, Note_on_c, 5, 69, 76
11, 12173, Note_on_c, 5, 69, 0
11, 12180, Note_on_c, 5, 78, 76
11, 12233, Note_on_c, 5, 78, 0
11, 12240, Note_on_c, 5, 71, 76
11, 12413, Note_on_c, 5, 71, 0
11, 12420, Note_on_c, 5, 69, 76
11, 12473, Note_on_c, 5, 69, 0
11, 12480, Note_on_c, 5, 68, 76
11, 12653, Note_on_c, 5, 68, 0
11, 12660, Note_on_c, 5, 64, 76
11, 12713, Note_on_c, 5, 64, 0
11, 12720, Note_on_c, 5, 68, 76
11, 12893, Note_on_c, 5, 68, 0
11, 12900, Note_on_c, 5, 71, 76
11, 12953, Note_on_c, 5, 71, 0
11, 12960, Note_on_c, 5, 76, 76
11, 13307, Note_on_c, 5, 76, 0
11, 13320, Note_on_c, 5, 76, 76
11, 13427, Note_on_c, 5, 76, 0
11, 13440, Note_on_c, 5, 76, 76
11, 13733, Note_on_c, 5, 76, 0
11, 13740, Note_on_c, 5, 69, 76
11, 13793, Note_on_c, 5, 69, 0
11, 13800, Note_on_c, 5, 71, 76
11, 13853, Note_on_c, 5, 71, 0
11, 13860, Note_on_c, 5, 73, 76
11, 13913, Note_on_c, 5, 73, 0
11, 13920, Note_on_c, 5, 74, 76
11, 13973, Note_on_c, 5, 74, 0
11, 13980, Note_on_c, 5, 73, 76
11, 14033, Note_on_c, 5, 73, 0
11, 14040, Note_on_c, 5, 74, 76
11, 14093, Note_on_c, 5, 74, 0
11, 14100, Note_on_c, 5, 76, 76
11, 14153, Note_on_c, 5, 76, 0
11, 14160, Note_on_c, 5, 78, 76
11, 14213, Note_on_c, 5, 78, 0
11, 14220, Note_on_c, 5, 76, 76
11, 14273, Note_on_c, 5, 76, 0
11, 14280, Note_on_c, 5, 78, 76
11, 14333, Note_on_c, 5, 78, 0
11, 14340, Note_on_c, 5, 80, 76
11, 14393, Note_on_c, 5, 80, 0
11, 14400, Note_on_c, 5, 81, 76
11, 14459, Note_on_c, 5, 81, 0
11, 14460, Note_on_c, 5, 80, 76
11, 14633, Note_on_c, 5, 80, 0
11, 14640, Note_on_c, 5, 78, 76
11, 14699, Note_on_c, 5, 78, 0
11, 14700, Note_on_c, 5, 76, 76
11, 14873, Note_on_c, 5, 76, 0
11, 14880, Note_on_c, 5, 83, 76
11, 15227, Note_on_c, 5, 83, 0
11, 15240, Note_on_c, 5, 74, 76
11, 15347, Note_on_c, 5, 74, 0
11, 15360, Note_on_c, 5, 73, 76
11, 15707, Note_on_c, 5, 73, 0
11, 15720, Note_on_c, 5, 71, 76
11, 15827, Note_on_c, 5, 71, 0
11, 15840, Note_on_c, 5, 71, 76
11, 16187, Note_on_c, 5, 71, 0
11, 16200, Note_on_c, 5, 69, 76
11, 16307, Note_on_c, 5, 69, 0
11, 16320, Note_on_c, 5, 69, 76
11, 16645, Note_on_c, 5, 69, 0
11, 16650, Note_on_c, 5, 71, 76
11, 16675, Note_on_c, 5, 71, 0
11, 16680, Note_on_c, 5, 73, 76
11, 16705, Note_on_c, 5, 73, 0
11, 16710, Note_on_c, 5, 74, 76
11, 16735, Note_on_c, 5, 74, 0
11, 16740, Note_on_c, 5, 76, 76
11, 16765, Note_on_c, 5, 76, 0
11, 16770, Note_on_c, 5, 78, 76
11, 16795, Note_on_c, 5, 78, 0
11, 16800, Note_on_c, 5, 79, 76
11, 16973, Note_on_c, 5, 79, 0
11, 16980, Note_on_c, 5, 76, 76
11, 17033, Note_on_c, 5, 76, 0
11, 17040, Note_on_c, 5, 78, 76
11, 17213, Note_on_c, 5, 78, 0
11, 17220, Note_on_c, 5, 79, 76
11, 17273, Note_on_c, 5, 79, 0
11, 17280, Note_on_c, 5, 81, 76
11, 17627, Note_on_c, 5, 81, 0
11, 17640, Note_on_c, 5, 72, 76
11, 17747, Note_on_c, 5, 72, 0
11, 17760, Note_on_c, 5, 72, 76
11, 17774, Note_on_c, 5, 72, 0
11, 17775, Note_on_c, 5, 74, 76
11, 17789, Note_on_c, 5, 74, 0
11, 17790, Note_on_c, 5, 72, 76
11, 17804, Note_on_c, 5, 72, 0
11, 17805, Note_on_c, 5, 74, 76
11, 17819, Note_on_c, 5, 74, 0
11, 17820, Note_on_c, 5, 72, 76
11, 17834, Note_on_c, 5, 72, 0
11, 17835, Note_on_c, 5, 74, 76
11, 17849, Note_on_c, 5, 74, 0
11, 17850, Note_on_c, 5, 72, 76
11, 17864, Note_on_c, 5, 72, 0
11, 17865, Note_on_c, 5, 74, 76
11, 17879, Note_on_c, 5, 74, 0
11, 17880, Note_on_c, 5, 72, 76
11, 17894, Note_on_c, 5, 72, 0
11, 17895, Note_on_c, 5, 74, 76
11, 17909, Note_on_c, 5, 74, 0
11, 17910, Note_on_c, 5, 72, 76
11, 17924, Note_on_c, 5, 72, 0
11, 17925, Note_on_c, 5, 74, 76
11, 17939, Note_on_c, 5, 74, 0
11, 17940, Note_on_c, 5, 71, 76
11, 17965, Note_on_c, 5, 71, 0
11, 17970, Note_on_c, 5, 72, 76
11, 17995, Note_on_c, 5, 72, 0
11, 18000, Note_on_c, 5, 74, 76
11, 18173, Note_on_c, 5, 74, 0
11, 18180, Note_on_c, 5, 69, 76
11, 18233, Note_on_c, 5, 69, 0
11, 18240, Note_on_c, 5, 71, 76
11, 18533, Note_on_c, 5, 71, 0
11, 18540, Note_on_c, 5, 69, 76
11, 18593, Note_on_c, 5, 69, 0
11, 18600, Note_on_c, 5, 67, 76
11, 18653, Note_on_c, 5, 67, 0
11, 18660, Note_on_c, 5, 66, 76
11, 18713, Note_on_c, 5, 66, 0
11, 18720, Note_on_c, 5, 64, 76
11, 18773, Note_on_c, 5, 64, 0
11, 18780, Note_on_c, 5, 66, 76
11, 18833, Note_on_c, 5, 66, 0
11, 18840, Note_on_c, 5, 67, 76
11, 18893, Note_on_c, 5, 67, 0
11, 18900, Note_on_c, 5, 69, 76
11, 18953, Note_on_c, 5, 69, 0
11, 18960, Note_on_c, 5, 71, 76
11, 19013, Note_on_c, 5, 71, 0
11, 19020, Note_on_c, 5, 73, 76
11, 19073, Note_on_c, 5, 73, 0
11, 19080, Note_on_c, 5, 74, 76
11, 19133, Note_on_c, 5, 74, 0
11, 19140, Note_on_c, 5, 71, 76
11, 19193, Note_on_c, 5, 71, 0
11, 19200, Note_on_c, 5, 73, 76
11, 19253, Note_on_c, 5, 73, 0
11, 19260, Note_on_c, 5, 74, 76
11, 19313, Note_on_c, 5, 74, 0
11, 19320, Note_on_c, 5, 73, 76
11, 19373, Note_on_c, 5, 73, 0
11, 19380, Note_on_c, 5, 71, 76
11, 19433, Note_on_c, 5, 71, 0
11, 19440, Note_on_c, 5, 69, 76
11, 19493, Note_on_c, 5, 69, 0
11, 19500, Note_on_c, 5, 71, 76
11, 19553, Note_on_c, 5, 71, 0
11, 19560, Note_on_c, 5, 73, 76
11, 19613, Note_on_c, 5, 73, 0
11, 19620, Note_on_c, 5, 74, 76
11, 19673, Note_on_c, 5, 74, 0
11, 19680, Note_on_c, 5, 76, 76
11, 19733, Note_on_c, 5, 76, 0
11, 19740, Note_on_c, 5, 78, 76
11, 19793, Note_on_c, 5, 78, 0
11, 19800, Note_on_c, 5, 79, 76
11, 19853, Note_on_c, 5, 79, 0
11, 19860, Note_on_c, 5, 81, 76
11, 19913, Note_on_c, 5, 81, 0
11, 19920, Note_on_c, 5, 79, 76
11, 19973, Note_on_c, 5, 79, 0
11, 19980, Note_on_c, 5, 78, 76
11, 20033, Note_on_c, 5, 78, 0
11, 20040, Note_on_c, 5, 79, 76
11, 20093, Note_on_c, 5, 79, 0
11, 20100, Note_on_c, 5, 76, 76
11, 20153, Note_on_c, 5, 76, 0
11, 20160, Note_on_c, 5, 78, 76
11, 20333, Note_on_c, 5, 78, 0
11, 20340, Note_on_c, 5, 79, 76
11, 20393, Note_on_c, 5, 79, 0
11, 20400, Note_on_c, 5, 81, 76
11, 20573, Note_on_c, 5, 81, 0
11, 20580, Note_on_c, 5, 83, 76
11, 20633, Note_on_c, 5, 83, 0
11, 20640, Note_on_c, 5, 73, 76
11, 20813, Note_on_c, 5, 73, 0
11, 20820, Note_on_c, 5, 74, 76
11, 20873, Note_on_c, 5, 74, 0
11, 20880, Note_on_c, 5, 74, 76
11, 20894, Note_on_c, 5, 74, 0
11, 20895, Note_on_c, 5, 76, 74
11, 20909, Note_on_c, 5, 76, 0
11, 20910, Note_on_c, 5, 74, 77
11, 20924, Note_on_c, 5, 74, 0
11, 20925, Note_on_c, 5, 76, 78
11, 20939, Note_on_c, 5, 76, 0
11, 20940, Note_on_c, 5, 74, 77
11, 20954, Note_on_c, 5, 74, 0
11, 20955, Note_on_c, 5, 76, 76
11, 20969, Note_on_c, 5, 76, 0
11, 20970, Note_on_c, 5, 74, 74
11, 20984, Note_on_c, 5, 74, 0
11, 20985, Note_on_c, 5, 76, 78
11, 20999, Note_on_c, 5, 76, 0
11, 21000, Note_on_c, 5, 74, 73
11, 21014, Note_on_c, 5, 74, 0
11, 21015, Note_on_c, 5, 76, 72
11, 21029, Note_on_c, 5, 76, 0
11, 21030, Note_on_c, 5, 74, 77
11, 21044, Note_on_c, 5, 74, 0
11, 21045, Note_on_c, 5, 76, 76
11, 21059, Note_on_c, 5, 76, 0
11, 21060, Note_on_c, 5, 73, 76
11, 21085, Note_on_c, 5, 73, 0
11, 21090, Note_on_c, 5, 74, 76
11, 21115, Note_on_c, 5, 74, 0
11, 21120, Note_on_c, 5, 76, 76
11, 21293, Note_on_c, 5, 76, 0
11, 21300, Note_on_c, 5, 69, 76
11, 21353, Note_on_c, 5, 69, 0
11, 21360, Note_on_c, 5, 79, 76
11, 21533, Note_on_c, 5, 79, 0
11, 21540, Note_on_c, 5, 78, 76
11, 21559, Note_on_c, 5, 78, 0
11, 21560, Note_on_c, 5, 76, 76
11, 21579, Note_on_c, 5, 76, 0
11, 21580, Note_on_c, 5, 78, 76
11, 21599, Note_on_c, 5, 78, 0
11, 21600, Note_on_c, 5, 78, 76
11, 21614, Note_on_c, 5, 78, 0
11, 21615, Note_on_c, 5, 79, 78
11, 21629, Note_on_c, 5, 79, 0
11, 21630, Note_on_c, 5, 78, 72
11, 21644, Note_on_c, 5, 78, 0
11, 21645, Note_on_c, 5, 79, 78
11, 21659, Note_on_c, 5, 79, 0
11, 21660, Note_on_c, 5, 78, 76
11, 21674, Note_on_c, 5, 78, 0
11, 21675, Note_on_c, 5, 79, 74
11, 21689, Note_on_c, 5, 79, 0
11, 21690, Note_on_c, 5, 78, 72
11, 21704, Note_on_c, 5, 78, 0
11, 21705, Note_on_c, 5, 79, 76
11, 21719, Note_on_c, 5, 79, 0
11, 21720, Note_on_c, 5, 78, 73
11, 21734, Note_on_c, 5, 78, 0
11, 21735, Note_on_c, 5, 79, 74
11, 21749, Note_on_c, 5, 79, 0
11, 21750, Note_on_c, 5, 78, 78
11, 21764, Note_on_c, 5, 78, 0
11, 21765, Note_on_c, 5, 79, 76
11, 21779, Note_on_c, 5, 79, 0
11, 21780, Note_on_c, 5, 78, 76
11, 21794, Note_on_c, 5, 78, 0
11, 21795, Note_on_c, 5, 79, 72
11, 21809, Note_on_c, 5, 79, 0
11, 21810, Note_on_c, 5, 78, 75
11, 21824, Note_on_c, 5, 78, 0
11, 21825, Note_on_c, 5, 79, 75
11, 21839, Note_on_c, 5, 79, 0
11, 21840, Note_on_c, 5, 78, 75
11, 21854, Note_on_c, 5, 78, 0
11, 21855, Note_on_c, 5, 79, 77
11, 21869, Note_on_c, 5, 79, 0
11, 21870, Note_on_c, 5, 78, 76
11, 21884, Note_on_c, 5, 78, 0
11, 21885, Note_on_c, 5, 79, 75
11, 21899, Note_on_c, 5, 79, 0
11, 21900, Note_on_c, 5, 78, 76
11, 21914, Note_on_c, 5, 78, 0
11, 21915, Note_on_c, 5, 79, 76
11, 21929, Note_on_c, 5, 79, 0
11, 21930, Note_on_c, 5, 76, 76
11, 21944, Note_on_c, 5, 76, 0
11, 21945, Note_on_c, 5, 78, 75
11, 21959, Note_on_c, 5, 78, 0
11, 21960, Note_on_c, 5, 76, 76
11, 22067, Note_on_c, 5, 76, 0
11, 22080, Note_on_c, 5, 76, 76
11, 22559, Note_on_c, 5, 76, 0
11, 23040, Note_on_c, 5, 62, 76
11, 23333, Note_on_c, 5, 62, 0
11, 23340, Note_on_c, 5, 66, 76
11, 23393, Note_on_c, 5, 66, 0
11, 23400, Note_on_c, 5, 64, 76
11, 23453, Note_on_c, 5, 64, 0
11, 23460, Note_on_c, 5, 62, 76
11, 23513, Note_on_c, 5, 62, 0
11, 23520, Note_on_c, 5, 71, 76
11, 23813, Note_on_c, 5, 71, 0
11, 23820, Note_on_c, 5, 74, 76
11, 23873, Note_on_c, 5, 74, 0
11, 23880, Note_on_c, 5, 73, 76
11, 23933, Note_on_c, 5, 73, 0
11, 23940, Note_on_c, 5, 71, 76
11, 23993, Note_on_c, 5, 71, 0
11, 24000, Note_on_c, 5, 79, 76
11, 24293, Note_on_c, 5, 79, 0
11, 24300, Note_on_c, 5, 76, 76
11, 24353, Note_on_c, 5, 76, 0
11, 24360, Note_on_c, 5, 78, 76
11, 24413, Note_on_c, 5, 78, 0
11, 24420, Note_on_c, 5, 79, 76
11, 24473, Note_on_c, 5, 79, 0
11, 24480, Note_on_c, 5, 73, 76
11, 24773, Note_on_c, 5, 73, 0
11, 24780, Note_on_c, 5, 69, 76
11, 24833, Note_on_c, 5, 69, 0
11, 24840, Note_on_c, 5, 71, 76
11, 24893, Note_on_c, 5, 71, 0
11, 24900, Note_on_c, 5, 73, 76
11, 24953, Note_on_c, 5, 73, 0
11, 24960, Note_on_c, 5, 64, 76
11, 25307, Note_on_c, 5, 64, 0
11, 25320, Note_on_c, 5, 64, 76
11, 25427, Note_on_c, 5, 64, 0
11, 25440, Note_on_c, 5, 76, 76
11, 25613, Note_on_c, 5, 76, 0
11, 25620, Note_on_c, 5, 73, 76
11, 25673, Note_on_c, 5, 73, 0
11, 25680, Note_on_c, 5, 69, 76
11, 25853, Note_on_c, 5, 69, 0
11, 25860, Note_on_c, 5, 67, 76
11, 25913, Note_on_c, 5, 67, 0
11, 25920, Note_on_c, 5, 66, 76
11, 26093, Note_on_c, 5, 66, 0
11, 26100, Note_on_c, 5, 62, 76
11, 26153, Note_on_c, 5, 62, 0
11, 26160, Note_on_c, 5, 66, 76
11, 26333, Note_on_c, 5, 66, 0
11, 26340, Note_on_c, 5, 69, 76
11, 26393, Note_on_c, 5, 69, 0
11, 26400, Note_on_c, 5, 74, 76
11, 26573, Note_on_c, 5, 74, 0
11, 26580, Note_on_c, 5, 69, 76
11, 26633, Note_on_c, 5, 69, 0
11, 26640, Note_on_c, 5, 74, 76
11, 26813, Note_on_c, 5, 74, 0
11, 26820, Note_on_c, 5, 76, 76
11, 26873, Note_on_c, 5, 76, 0
11, 26880, Note_on_c, 5, 78, 76
11, 27173, Note_on_c, 5, 78, 0
11, 27180, Note_on_c, 5, 79, 76
11, 27233, Note_on_c, 5, 79, 0
11, 27240, Note_on_c, 5, 81, 76
11, 27293, Note_on_c, 5, 81, 0
11, 27300, Note_on_c, 5, 78, 76
11, 27353, Note_on_c, 5, 78, 0
11, 27360, Note_on_c, 5, 83, 76
11, 27653, Note_on_c, 5, 83, 0
11, 27660, Note_on_c, 5, 80, 76
11, 27713, Note_on_c, 5, 80, 0
11, 27720, Note_on_c, 5, 81, 76
11, 27773, Note_on_c, 5, 81, 0
11, 27780, Note_on_c, 5, 83, 76
11, 27833, Note_on_c, 5, 83, 0
11, 27840, Note_on_c, 5, 76, 76
11, 28133, Note_on_c, 5, 76, 0
11, 28140, Note_on_c, 5, 76, 76
11, 28193, Note_on_c, 5, 76, 0
11, 28200, Note_on_c, 5, 78, 76
11, 28253, Note_on_c, 5, 78, 0
11, 28260, Note_on_c, 5, 80, 76
11, 28313, Note_on_c, 5, 80, 0
11, 28320, Note_on_c, 5, 81, 76
11, 28493, Note_on_c, 5, 81, 0
11, 28500, Note_on_c, 5, 76, 76
11, 28553, Note_on_c, 5, 76, 0
11, 28560, Note_on_c, 5, 73, 76
11, 28733, Note_on_c, 5, 73, 0
11, 28740, Note_on_c, 5, 69, 76
11, 28793, Note_on_c, 5, 69, 0
11, 28800, Note_on_c, 5, 74, 76
11, 29147, Note_on_c, 5, 74, 0
11, 29160, Note_on_c, 5, 74, 76
11, 29267, Note_on_c, 5, 74, 0
11, 29280, Note_on_c, 5, 74, 76
11, 29453, Note_on_c, 5, 74, 0
11, 29460, Note_on_c, 5, 76, 76
11, 29485, Note_on_c, 5, 76, 0
11, 29490, Note_on_c, 5, 78, 76
11, 29515, Note_on_c, 5, 78, 0
11, 29520, Note_on_c, 5, 76, 76
11, 29693, Note_on_c, 5, 76, 0
11, 29700, Note_on_c, 5, 74, 76
11, 29753, Note_on_c, 5, 74, 0
11, 29760, Note_on_c, 5, 73, 76
11, 29933, Note_on_c, 5, 73, 0
11, 29940, Note_on_c, 5, 69, 76
11, 29993, Note_on_c, 5, 69, 0
11, 30000, Note_on_c, 5, 73, 76
11, 30173, Note_on_c, 5, 73, 0
11, 30180, Note_on_c, 5, 76, 76
11, 30233, Note_on_c, 5, 76, 0
11, 30240, Note_on_c, 5, 81, 76
11, 30413, Note_on_c, 5, 81, 0
11, 30420, Note_on_c, 5, 79, 76
11, 30445, Note_on_c, 5, 79, 0
11, 30450, Note_on_c, 5, 78, 76
11, 30475, Note_on_c, 5, 78, 0
11, 30480, Note_on_c, 5, 79, 76
11, 30653, Note_on_c, 5, 79, 0
11, 30660, Note_on_c, 5, 76, 76
11, 30713, Note_on_c, 5, 76, 0
11, 30720, Note_on_c, 5, 83, 76
11, 31067, Note_on_c, 5, 83, 0
11, 31080, Note_on_c, 5, 75, 76
11, 31187, Note_on_c, 5, 75, 0
11, 31200, Note_on_c, 5, 76, 76
11, 31373, Note_on_c, 5, 76, 0
11, 31380, Note_on_c, 5, 78, 76
11, 31433, Note_on_c, 5, 78, 0
11, 31440, Note_on_c, 5, 78, 76
11, 31454, Note_on_c, 5, 78, 0
11, 31455, Note_on_c, 5, 79, 76
11, 31469, Note_on_c, 5, 79, 0
11, 31470, Note_on_c, 5, 78, 76
11, 31484, Note_on_c, 5, 78, 0
11, 31485, Note_on_c, 5, 79, 76
11, 31499, Note_on_c, 5, 79, 0
11, 31500, Note_on_c, 5, 78, 76
11, 31514, Note_on_c, 5, 78, 0
11, 31515, Note_on_c, 5, 79, 76
11, 31529, Note_on_c, 5, 79, 0
11, 31530, Note_on_c, 5, 78, 76
11, 31544, Note_on_c, 5, 78, 0
11, 31545, Note_on_c, 5, 79, 76
11, 31559, Note_on_c, 5, 79, 0
11, 31560, Note_on_c, 5, 78, 76
11, 31574, Note_on_c, 5, 78, 0
11, 31575, Note_on_c, 5, 79, 76
11, 31589, Note_on_c, 5, 79, 0
11, 31590, Note_on_c, 5, 78, 76
11, 31604, Note_on_c, 5, 78, 0
11, 31605, Note_on_c, 5, 79, 76
11, 31619, Note_on_c, 5, 79, 0
11, 31620, Note_on_c, 5, 76, 76
11, 31645, Note_on_c, 5, 76, 0
11, 31650, Note_on_c, 5, 78, 76
11, 31675, Note_on_c, 5, 78, 0
11, 31680, Note_on_c, 5, 79, 76
11, 31973, Note_on_c, 5, 79, 0
11, 31980, Note_on_c, 5, 78, 76
11, 32033, Note_on_c, 5, 78, 0
11, 32040, Note_on_c, 5, 76, 76
11, 32093, Note_on_c, 5, 76, 0
11, 32100, Note_on_c, 5, 74, 76
11, 32153, Note_on_c, 5, 74, 0
11, 32160, Note_on_c, 5, 72, 76
11, 32333, Note_on_c, 5, 72, 0
11, 32340, Note_on_c, 5, 72, 76
11, 32393, Note_on_c, 5, 72, 0
11, 32400, Note_on_c, 5, 74, 76
11, 32573, Note_on_c, 5, 74, 0
11, 32580, Note_on_c, 5, 76, 76
11, 32613, Note_on_c, 5, 76, 0
11, 32620, Note_on_c, 5, 71, 76
11, 32639, Note_on_c, 5, 71, 0
11, 32640, Note_on_c, 5, 70, 76
11, 32987, Note_on_c, 5, 70, 0
11, 33000, Note_on_c, 5, 79, 76
11, 33107, Note_on_c, 5, 79, 0
11, 33120, Note_on_c, 5, 78, 76
11, 33293, Note_on_c, 5, 78, 0
11, 33300, Note_on_c, 5, 76, 76
11, 33353, Note_on_c, 5, 76, 0
11, 33360, Note_on_c, 5, 74, 76
11, 33533, Note_on_c, 5, 74, 0
11, 33540, Note_on_c, 5, 73, 76
11, 33593, Note_on_c, 5, 73, 0
11, 33600, Note_on_c, 5, 74, 76
11, 33773, Note_on_c, 5, 74, 0
11, 33780, Note_on_c, 5, 73, 76
11, 33833, Note_on_c, 5, 73, 0
11, 33840, Note_on_c, 5, 71, 76
11, 34013, Note_on_c, 5, 71, 0
11, 34020, Note_on_c, 5, 73, 76
11, 34073, Note_on_c, 5, 73, 0
11, 34080, Note_on_c, 5, 73, 76
11, 34427, Note_on_c, 5, 73, 0
11, 34440, Note_on_c, 5, 71, 76
11, 34547, Note_on_c, 5, 71, 0
11, 34560, Note_on_c, 5, 71, 76
11, 34853, Note_on_c, 5, 71, 0
11, 34860, Note_on_c, 5, 71, 76
11, 34913, Note_on_c, 5, 71, 0
11, 34920, Note_on_c, 5, 69, 76
11, 34973, Note_on_c, 5, 69, 0
11, 34980, Note_on_c, 5, 68, 76
11, 35033, Note_on_c, 5, 68, 0
11, 35040, Note_on_c, 5, 69, 76
11, 35213, Note_on_c, 5, 69, 0
11, 35220, Note_on_c, 5, 78, 76
11, 35273, Note_on_c, 5, 78, 0
11, 35280, Note_on_c, 5, 71, 76
11, 35453, Note_on_c, 5, 71, 0
11, 35460, Note_on_c, 5, 69, 76
11, 35513, Note_on_c, 5, 69, 0
11, 35520, Note_on_c, 5, 68, 76
11, 35693, Note_on_c, 5, 68, 0
11, 35700, Note_on_c, 5, 64, 76
11, 35753, Note_on_c, 5, 64, 0
11, 35760, Note_on_c, 5, 68, 76
11, 35933, Note_on_c, 5, 68, 0
11, 35940, Note_on_c, 5, 71, 76
11, 35993, Note_on_c, 5, 71, 0
11, 36000, Note_on_c, 5, 76, 76
11, 36347, Note_on_c, 5, 76, 0
11, 36360, Note_on_c, 5, 76, 76
11, 36467, Note_on_c, 5, 76, 0
11, 36480, Note_on_c, 5, 76, 76
11, 36773, Note_on_c, 5, 76, 0
11, 36780, Note_on_c, 5, 69, 76
11, 36833, Note_on_c, 5, 69, 0
11, 36840, Note_on_c, 5, 71, 76
11, 36893, Note_on_c, 5, 71, 0
11, 36900, Note_on_c, 5, 73, 76
11, 36953, Note_on_c, 5, 73, 0
11, 36960, Note_on_c, 5, 74, 76
11, 37013, Note_on_c, 5, 74, 0
11, 37020, Note_on_c, 5, 73, 76
11, 37073, Note_on_c, 5, 73, 0
11, 37080, Note_on_c, 5, 74, 76
11, 37133, Note_on_c, 5, 74, 0
11, 37140, Note_on_c, 5, 76, 76
11, 37193, Note_on_c, 5, 76, 0
11, 37200, Note_on_c, 5, 78, 76
11, 37253, Note_on_c, 5, 78, 0
11, 37260, Note_on_c, 5, 76, 76
11, 37313, Note_on_c, 5, 76, 0
11, 37320, Note_on_c, 5, 78, 76
11, 37373, Note_on_c, 5, 78, 0
11, 37380, Note_on_c, 5, 80, 76
11, 37433, Note_on_c, 5, 80, 0
11, 37440, Note_on_c, 5, 81, 76
11, 37499, Note_on_c, 5, 81, 0
11, 37500, Note_on_c, 5, 80, 76
11, 37673, Note_on_c, 5, 80, 0
11, 37680, Note_on_c, 5, 78, 76
11, 37739, Note_on_c, 5, 78, 0
11, 37740, Note_on_c, 5, 76, 76
11, 37913, Note_on_c, 5, 76, 0
11, 37920, Note_on_c, 5, 83, 76
11, 38267, Note_on_c, 5, 83, 0
11, 38280, Note_on_c, 5, 74, 76
11, 38387, Note_on_c, 5, 74, 0
11, 38400, Note_on_c, 5, 73, 76
11, 38747, Note_on_c, 5, 73, 0
11, 38760, Note_on_c, 5, 71, 76
11, 38867, Note_on_c, 5, 71, 0
11, 38880, Note_on_c, 5, 71, 76
11, 39227, Note_on_c, 5, 71, 0
11, 39240, Note_on_c, 5, 69, 76
11, 39347, Note_on_c, 5, 69, 0
11, 39360, Note_on_c, 5, 69, 76
11, 39685, Note_on_c, 5, 69, 0
11, 39690, Note_on_c, 5, 71, 76
11, 39715, Note_on_c, 5, 71, 0
11, 39720, Note_on_c, 5, 73, 76
11, 39745, Note_on_c, 5, 73, 0
11, 39750, Note_on_c, 5, 74, 76
11, 39775, Note_on_c, 5, 74, 0
11, 39780, Note_on_c, 5, 76, 76
11, 39805, Note_on_c, 5, 76, 0
11, 39810, Note_on_c, 5, 78, 76
11, 39835, Note_on_c, 5, 78, 0
11, 39840, Note_on_c, 5, 79, 76
11, 40013, Note_on_c, 5, 79, 0
11, 40020, Note_on_c, 5, 76, 76
11, 40073, Note_on_c, 5, 76, 0
11, 40080, Note_on_c, 5, 78, 76
11, 40253, Note_on_c, 5, 78, 0
11, 40260, Note_on_c, 5, 79, 76
11, 40313, Note_on_c, 5, 79, 0
11, 40320, Note_on_c, 5, 81, 76
11, 40667, Note_on_c, 5, 81, 0
11, 40680, Note_on_c, 5, 72, 76
11, 40787, Note_on_c, 5, 72, 0
11, 40800, Note_on_c, 5, 72, 76
11, 40814, Note_on_c, 5, 72, 0
11, 40815, Note_on_c, 5, 74, 76
11, 40829, Note_on_c, 5, 74, 0
11, 40830, Note_on_c, 5, 72, 76
11, 40844, Note_on_c, 5, 72, 0
11, 40845, Note_on_c, 5, 74, 76
11, 40859, Note_on_c, 5, 74, 0
11, 40860, Note_on_c, 5, 72, 76
11, 40874, Note_on_c, 5, 72, 0
11, 40875, Note_on_c, 5, 74, 76
11, 40889, Note_on_c, 5, 74, 0
11, 40890, Note_on_c, 5, 72, 76
11, 40904, Note_on_c, 5, 72, 0
11, 40905, Note_on_c, 5, 74, 76
11, 40919, Note_on_c, 5, 74, 0
11, 40920, Note_on_c, 5, 72, 76
11, 40934, Note_on_c, 5, 72, 0
11, 40935, Note_on_c, 5, 74, 76
11, 40949, Note_on_c, 5, 74, 0
11, 40950, Note_on_c, 5, 72, 76
11, 40964, Note_on_c, 5, 72, 0
11, 40965, Note_on_c, 5, 74, 76
11, 40979, Note_on_c, 5, 74, 0
11, 40980, Note_on_c, 5, 71, 76
11, 41005, Note_on_c, 5, 71, 0
11, 41010, Note_on_c, 5, 72, 76
11, 41035, Note_on_c, 5, 72, 0
11, 41040, Note_on_c, 5, 74, 76
11, 41213, Note_on_c, 5, 74, 0
11, 41220, Note_on_c, 5, 69, 76
11, 41273, Note_on_c, 5, 69, 0
11, 41280, Note_on_c, 5, 71, 76
11, 41573, Note_on_c, 5, 71, 0
11, 41580, Note_on_c, 5, 69, 76
11, 41633, Note_on_c, 5, 69, 0
11, 41640, Note_on_c, 5, 67, 76
11, 41693, Note_on_c, 5, 67, 0
11, 41700, Note_on_c, 5, 66, 76
11, 41753, Note_on_c, 5, 66, 0
11, 41760, Note_on_c, 5, 64, 76
11, 41813, Note_on_c, 5, 64, 0
11, 41820, Note_on_c, 5, 66, 76
11, 41873, Note_on_c, 5, 66, 0
11, 41880, Note_on_c, 5, 67, 76
11, 41933, Note_on_c, 5, 67, 0
11, 41940, Note_on_c, 5, 69, 76
11, 41993, Note_on_c, 5, 69, 0
11, 42000, Note_on_c, 5, 71, 76
11, 42053, Note_on_c, 5, 71, 0
11, 42060, Note_on_c, 5, 73, 76
11, 42113, Note_on_c, 5, 73, 0
11, 42120, Note_on_c, 5, 74, 76
11, 42173, Note_on_c, 5, 74, 0
11, 42180, Note_on_c, 5, 71, 76
11, 42233, Note_on_c, 5, 71, 0
11, 42240, Note_on_c, 5, 73, 76
11, 42293, Note_on_c, 5, 73, 0
11, 42300, Note_on_c, 5, 74, 76
11, 42353, Note_on_c, 5, 74, 0
11, 42360, Note_on_c, 5, 73, 76
11, 42413, Note_on_c, 5, 73, 0
11, 42420, Note_on_c, 5, 71, 76
11, 42473, Note_on_c, 5, 71, 0
11, 42480, Note_on_c, 5, 69, 76
11, 42533, Note_on_c, 5, 69, 0
11, 42540, Note_on_c, 5, 71, 76
11, 42593, Note_on_c, 5, 71, 0
11, 42600, Note_on_c, 5, 73, 76
11, 42653, Note_on_c, 5, 73, 0
11, 42660, Note_on_c, 5, 74, 76
11, 42713, Note_on_c, 5, 74, 0
11, 42720, Note_on_c, 5, 76, 76
11, 42773, Note_on_c, 5, 76, 0
11, 42780, Note_on_c, 5, 78, 76
11, 42833, Note_on_c, 5, 78, 0
11, 42840, Note_on_c, 5, 79, 76
11, 42893, Note_on_c, 5, 79, 0
11, 42900, Note_on_c, 5, 81, 76
11, 42953, Note_on_c, 5, 81, 0
11, 42960, Note_on_c, 5, 79, 76
11, 43013, Note_on_c, 5, 79, 0
11, 43020, Note_on_c, 5, 78, 76
11, 43073, Note_on_c, 5, 78, 0
11, 43080, Note_on_c, 5, 79, 76
11, 43133, Note_on_c, 5, 79, 0
11, 43140, Note_on_c, 5, 76, 76
11, 43193, Note_on_c, 5, 76, 0
11, 43200, Note_on_c, 5, 78, 76
11, 43373, Note_on_c, 5, 78, 0
11, 43380, Note_on_c, 5, 79, 76
11, 43433, Note_on_c, 5, 79, 0
11, 43440, Note_on_c, 5, 81, 76
11, 43613, Note_on_c, 5, 81, 0
11, 43620, Note_on_c, 5, 83, 76
11, 43673, Note_on_c, 5, 83, 0
11, 43680, Note_on_c, 5, 73, 76
11, 43853, Note_on_c, 5, 73, 0
11, 43860, Note_on_c, 5, 74, 76
11, 43913, Note_on_c, 5, 74, 0
11, 43920, Note_on_c, 5, 74, 76
11, 43934, Note_on_c, 5, 74, 0
11, 43935, Note_on_c, 5, 76, 74
11, 43949, Note_on_c, 5, 76, 0
11, 43950, Note_on_c, 5, 74, 77
11, 43964, Note_on_c, 5, 74, 0
11, 43965, Note_on_c, 5, 76, 78
11, 43979, Note_on_c, 5, 76, 0
11, 43980, Note_on_c, 5, 74, 77
11, 43994, Note_on_c, 5, 74, 0
11, 43995, Note_on_c, 5, 76, 76
11, 44009, Note_on_c, 5, 76, 0
11, 44010, Note_on_c, 5, 74, 74
11, 44024, Note_on_c, 5, 74, 0
11, 44025, Note_on_c, 5, 76, 78
11, 44039, Note_on_c, 5, 76, 0
11, 44040, Note_on_c, 5, 74, 73
11, 44054, Note_on_c, 5, 74, 0
11, 44055, Note_on_c, 5, 76, 72
11, 44069, Note_on_c, 5, 76, 0
11, 44070, Note_on_c, 5, 74, 77
11, 44084, Note_on_c, 5, 74, 0
11, 44085, Note_on_c, 5, 76, 76
11, 44099, Note_on_c, 5, 76, 0
11, 44100, Note_on_c, 5, 73, 76
11, 44125, Note_on_c, 5, 73, 0
11, 44130, Note_on_c, 5, 74, 76
11, 44155, Note_on_c, 5, 74, 0
11, 44160, Note_on_c, 5, 76, 76
11, 44333, Note_on_c, 5, 76, 0
11, 44340, Note_on_c, 5, 69, 76
11, 44393, Note_on_c, 5, 69, 0
11, 44400, Note_on_c, 5, 79, 76
11, 44573, Note_on_c, 5, 79, 0
11, 44580, Note_on_c, 5, 78, 76
11, 44599, Note_on_c, 5, 78, 0
11, 44600, Note_on_c, 5, 76, 76
11, 44619, Note_on_c, 5, 76, 0
11, 44620, Note_on_c, 5, 78, 76
11, 44639, Note_on_c, 5, 78, 0
11, 44640, Note_on_c, 5, 78, 76
11, 44654, Note_on_c, 5, 78, 0
11, 44655, Note_on_c, 5, 79, 78
11, 44669, Note_on_c, 5, 79, 0
11, 44670, Note_on_c, 5, 78, 72
11, 44684, Note_on_c, 5, 78, 0
11, 44685, Note_on_c, 5, 79, 78
11, 44699, Note_on_c, 5, 79, 0
11, 44700, Note_on_c, 5, 78, 76
11, 44714, Note_on_c, 5, 78, 0
11, 44715, Note_on_c, 5, 79, 74
11, 44729, Note_on_c, 5, 79, 0
11, 44730, Note_on_c, 5, 78, 72
11, 44744, Note_on_c, 5, 78, 0
11, 44745, Note_on_c, 5, 79, 76
11, 44759, Note_on_c, 5, 79, 0
11, 44760, Note_on_c, 5, 78, 73
11, 44774, Note_on_c, 5, 78, 0
11, 44775, Note_on_c, 5, 79, 74
11, 44789, Note_on_c, 5, 79, 0
11, 44790, Note_on_c, 5, 78, 78
11, 44804, Note_on_c, 5, 78, 0
11, 44805, Note_on_c, 5, 79, 76
11, 44819, Note_on_c, 5, 79, 0
11, 44820, Note_on_c, 5, 78, 76
11, 44834, Note_on_c, 5, 78, 0
11, 44835, Note_on_c, 5, 79, 72
11, 44849, Note_on_c, 5, 79, 0
11, 44850, Note_on_c, 5, 78, 75
11, 44864, Note_on_c, 5, 78, 0
11, 44865, Note_on_c, 5, 79, 75
11, 44879, Note_on_c, 5, 79, 0
11, 44880, Note_on_c, 5, 78, 75
11, 44894, Note_on_c, 5, 78, 0
11, 44895, Note_on_c, 5, 79, 77
11, 44909, Note_on_c, 5, 79, 0
11, 44910, Note_on_c, 5, 78, 76
11, 44924, Note_on_c, 5, 78, 0
11, 44925, Note_on_c, 5, 79, 75
11, 44939, Note_on_c, 5, 79, 0
11, 44940, Note_on_c, 5, 78, 76
11, 44954, Note_on_c, 5, 78, 0
11, 44955, Note_on_c, 5, 79, 76
11, 44969, Note_on_c, 5, 79, 0
11, 44970, Note_on_c, 5, 76, 76
11, 44984, Note_on_c, 5, 76, 0
11, 44985, Note_on_c, 5, 78, 75
11, 44999, Note_on_c, 5, 78, 0
11, 45000, Note_on_c, 5, 76, 76
11, 45107, Note_on_c, 5, 76, 0
11, 45120, Note_on_c, 5, 76, 76
11, 45359, Note_on_c, 5, 76, 0
11, 46680, Note_on_c, 5, 62, 76
11, 46727, Note_on_c, 5, 62, 0
11, 46740, Note_on_c, 5, 64, 76
11, 46787, Note_on_c, 5, 64, 0
11, 46800, Note_on_c, 5, 66, 76
11, 46904, Note_on_c, 5, 66, 0
11, 46920, Note_on_c, 5, 66, 76
11, 46967, Note_on_c, 5, 66, 0
11, 46980, Note_on_c, 5, 67, 76
11, 47027, Note_on_c, 5, 67, 0
11, 47040, Note_on_c, 5, 69, 76
11, 47144, Note_on_c, 5, 69, 0
11, 47160, Note_on_c, 5, 66, 76
11, 47207, Note_on_c, 5, 66, 0
11, 47220, Note_on_c, 5, 67, 76
11, 47267, Note_on_c, 5, 67, 0
11, 47280, Note_on_c, 5, 69, 76
11, 47384, Note_on_c, 5, 69, 0
11, 47400, Note_on_c, 5, 69, 76
11, 47447, Note_on_c, 5, 69, 0
11, 47460, Note_on_c, 5, 71, 76
11, 47507, Note_on_c, 5, 71, 0
11, 47520, Note_on_c, 5, 72, 76
11, 47624, Note_on_c, 5, 72, 0
11, 47640, Note_on_c, 5, 72, 76
11, 47687, Note_on_c, 5, 72, 0
11, 47700, Note_on_c, 5, 71, 76
11, 47747, Note_on_c, 5, 71, 0
11, 47760, Note_on_c, 5, 72, 76
11, 47864, Note_on_c, 5, 72, 0
11, 47880, Note_on_c, 5, 74, 76
11, 47927, Note_on_c, 5, 74, 0
11, 47940, Note_on_c, 5, 72, 76
11, 47987, Note_on_c, 5, 72, 0
11, 48000, Note_on_c, 5, 71, 76
11, 48104, Note_on_c, 5, 71, 0
11, 48120, Note_on_c, 5, 67, 76
11, 48167, Note_on_c, 5, 67, 0
11, 48180, Note_on_c, 5, 69, 76
11, 48227, Note_on_c, 5, 69, 0
11, 48240, Note_on_c, 5, 71, 76
11, 48344, Note_on_c, 5, 71, 0
11, 48360, Note_on_c, 5, 71, 76
11, 48407, Note_on_c, 5, 71, 0
11, 48420, Note_on_c, 5, 73, 76
11, 48467, Note_on_c, 5, 73, 0
11, 48480, Note_on_c, 5, 74, 76
11, 48584, Note_on_c, 5, 74, 0
11, 48600, Note_on_c, 5, 74, 76
11, 48647, Note_on_c, 5, 74, 0
11, 48660, Note_on_c, 5, 73, 76
11, 48707, Note_on_c, 5, 73, 0
11, 48720, Note_on_c, 5, 74, 76
11, 48824, Note_on_c, 5, 74, 0
11, 48840, Note_on_c, 5, 76, 76
11, 48887, Note_on_c, 5, 76, 0
11, 48900, Note_on_c, 5, 74, 76
11, 48947, Note_on_c, 5, 74, 0
11, 48960, Note_on_c, 5, 73, 76
11, 49064, Note_on_c, 5, 73, 0
11, 49080, Note_on_c, 5, 76, 76
11, 49184, Note_on_c, 5, 76, 0
11, 49200, Note_on_c, 5, 69, 76
11, 49304, Note_on_c, 5, 69, 0
11, 49320, Note_on_c, 5, 73, 76
11, 49544, Note_on_c, 5, 73, 0
11, 49560, Note_on_c, 5, 76, 76
11, 49664, Note_on_c, 5, 76, 0
11, 49680, Note_on_c, 5, 67, 76
11, 49784, Note_on_c, 5, 67, 0
11, 49800, Note_on_c, 5, 73, 76
11, 50024, Note_on_c, 5, 73, 0
11, 50040, Note_on_c, 5, 76, 76
11, 50144, Note_on_c, 5, 76, 0
11, 50160, Note_on_c, 5, 69, 76
11, 50264, Note_on_c, 5, 69, 0
11, 50280, Note_on_c, 5, 73, 76
11, 50384, Note_on_c, 5, 73, 0
11, 50400, Note_on_c, 5, 74, 76
11, 50447, Note_on_c, 5, 74, 0
11, 50460, Note_on_c, 5, 69, 76
11, 50507, Note_on_c, 5, 69, 0
11, 50520, Note_on_c, 5, 66, 76
11, 50567, Note_on_c, 5, 66, 0
11, 50580, Note_on_c, 5, 67, 76
11, 50627, Note_on_c, 5, 67, 0
11, 50640, Note_on_c, 5, 69, 76
11, 50687, Note_on_c, 5, 69, 0
11, 50700, Note_on_c, 5, 71, 76
11, 50747, Note_on_c, 5, 71, 0
11, 50760, Note_on_c, 5, 69, 76
11, 50807, Note_on_c, 5, 69, 0
11, 50820, Note_on_c, 5, 71, 76
11, 50867, Note_on_c, 5, 71, 0
11, 50880, Note_on_c, 5, 72, 76
11, 50927, Note_on_c, 5, 72, 0
11, 50940, Note_on_c, 5, 69, 76
11, 50987, Note_on_c, 5, 69, 0
11, 51000, Note_on_c, 5, 62, 76
11, 51047, Note_on_c, 5, 62, 0
11, 51060, Note_on_c, 5, 64, 76
11, 51107, Note_on_c, 5, 64, 0
11, 51120, Note_on_c, 5, 66, 76
11, 51167, Note_on_c, 5, 66, 0
11, 51180, Note_on_c, 5, 67, 76
11, 51227, Note_on_c, 5, 67, 0
11, 51240, Note_on_c, 5, 66, 76
11, 51287, Note_on_c, 5, 66, 0
11, 51300, Note_on_c, 5, 67, 76
11, 51347, Note_on_c, 5, 67, 0
11, 51360, Note_on_c, 5, 69, 76
11, 51407, Note_on_c, 5, 69, 0
11, 51420, Note_on_c, 5, 67, 76
11, 51467, Note_on_c, 5, 67, 0
11, 51480, Note_on_c, 5, 66, 76
11, 51527, Note_on_c, 5, 66, 0
11, 51540, Note_on_c, 5, 67, 76
11, 51587, Note_on_c, 5, 67, 0
11, 51600, Note_on_c, 5, 69, 76
11, 51647, Note_on_c, 5, 69, 0
11, 51660, Note_on_c, 5, 67, 76
11, 51707, Note_on_c, 5, 67, 0
11, 51720, Note_on_c, 5, 66, 76
11, 51767, Note_on_c, 5, 66, 0
11, 51780, Note_on_c, 5, 64, 76
11, 51827, Note_on_c, 5, 64, 0
11, 51840, Note_on_c, 5, 62, 76
11, 51944, Note_on_c, 5, 62, 0
11, 51960, Note_on_c, 5, 71, 76
11, 52064, Note_on_c, 5, 71, 0
11, 52080, Note_on_c, 5, 64, 76
11, 52184, Note_on_c, 5, 64, 0
11, 52200, Note_on_c, 5, 68, 76
11, 52424, Note_on_c, 5, 68, 0
11, 52440, Note_on_c, 5, 71, 76
11, 52544, Note_on_c, 5, 71, 0
11, 52560, Note_on_c, 5, 62, 76
11, 52664, Note_on_c, 5, 62, 0
11, 52680, Note_on_c, 5, 68, 76
11, 52904, Note_on_c, 5, 68, 0
11, 52920, Note_on_c, 5, 71, 76
11, 53024, Note_on_c, 5, 71, 0
11, 53040, Note_on_c, 5, 64, 76
11, 53144, Note_on_c, 5, 64, 0
11, 53160, Note_on_c, 5, 68, 76
11, 53264, Note_on_c, 5, 68, 0
11, 53280, Note_on_c, 5, 69, 76
11, 53327, Note_on_c, 5, 69, 0
11, 53340, Note_on_c, 5, 81, 76
11, 53387, Note_on_c, 5, 81, 0
11, 53400, Note_on_c, 5, 73, 76
11, 53447, Note_on_c, 5, 73, 0
11, 53460, Note_on_c, 5, 74, 76
11, 53507, Note_on_c, 5, 74, 0
11, 53520, Note_on_c, 5, 76, 76
11, 53567, Note_on_c, 5, 76, 0
11, 53580, Note_on_c, 5, 78, 76
11, 53627, Note_on_c, 5, 78, 0
11, 53640, Note_on_c, 5, 76, 76
11, 53687, Note_on_c, 5, 76, 0
11, 53700, Note_on_c, 5, 78, 76
11, 53747, Note_on_c, 5, 78, 0
11, 53760, Note_on_c, 5, 79, 76
11, 53807, Note_on_c, 5, 79, 0
11, 53820, Note_on_c, 5, 76, 76
11, 53867, Note_on_c, 5, 76, 0
11, 53880, Note_on_c, 5, 69, 76
11, 53927, Note_on_c, 5, 69, 0
11, 53940, Note_on_c, 5, 71, 76
11, 53987, Note_on_c, 5, 71, 0
11, 54000, Note_on_c, 5, 73, 76
11, 54047, Note_on_c, 5, 73, 0
11, 54060, Note_on_c, 5, 74, 76
11, 54107, Note_on_c, 5, 74, 0
11, 54120, Note_on_c, 5, 73, 76
11, 54167, Note_on_c, 5, 73, 0
11, 54180, Note_on_c, 5, 74, 76
11, 54227, Note_on_c, 5, 74, 0
11, 54240, Note_on_c, 5, 76, 76
11, 54287, Note_on_c, 5, 76, 0
11, 54300, Note_on_c, 5, 74, 76
11, 54347, Note_on_c, 5, 74, 0
11, 54360, Note_on_c, 5, 73, 76
11, 54407, Note_on_c, 5, 73, 0
11, 54420, Note_on_c, 5, 74, 76
11, 54467, Note_on_c, 5, 74, 0
11, 54480, Note_on_c, 5, 76, 76
11, 54527, Note_on_c, 5, 76, 0
11, 54540, Note_on_c, 5, 74, 76
11, 54587, Note_on_c, 5, 74, 0
11, 54600, Note_on_c, 5, 73, 76
11, 54647, Note_on_c, 5, 73, 0
11, 54660, Note_on_c, 5, 71, 76
11, 54707, Note_on_c, 5, 71, 0
11, 54720, Note_on_c, 5, 69, 76
11, 54824, Note_on_c, 5, 69, 0
11, 54840, Note_on_c, 5, 66, 76
11, 54944, Note_on_c, 5, 66, 0
11, 54960, Note_on_c, 5, 71, 76
11, 55304, Note_on_c, 5, 71, 0
11, 55320, Note_on_c, 5, 70, 76
11, 55367, Note_on_c, 5, 70, 0
11, 55380, Note_on_c, 5, 71, 76
11, 55427, Note_on_c, 5, 71, 0
11, 55440, Note_on_c, 5, 73, 76
11, 55487, Note_on_c, 5, 73, 0
11, 55500, Note_on_c, 5, 71, 76
11, 55547, Note_on_c, 5, 71, 0
11, 55560, Note_on_c, 5, 70, 76
11, 55607, Note_on_c, 5, 70, 0
11, 55620, Note_on_c, 5, 68, 76
11, 55667, Note_on_c, 5, 68, 0
11, 55680, Note_on_c, 5, 66, 76
11, 55727, Note_on_c, 5, 66, 0
11, 55740, Note_on_c, 5, 78, 76
11, 55787, Note_on_c, 5, 78, 0
11, 55800, Note_on_c, 5, 71, 76
11, 55847, Note_on_c, 5, 71, 0
11, 55860, Note_on_c, 5, 73, 76
11, 55907, Note_on_c, 5, 73, 0
11, 55920, Note_on_c, 5, 74, 76
11, 55967, Note_on_c, 5, 74, 0
11, 55980, Note_on_c, 5, 76, 76
11, 56027, Note_on_c, 5, 76, 0
11, 56040, Note_on_c, 5, 74, 76
11, 56087, Note_on_c, 5, 74, 0
11, 56100, Note_on_c, 5, 76, 76
11, 56147, Note_on_c, 5, 76, 0
11, 56160, Note_on_c, 5, 78, 76
11, 56207, Note_on_c, 5, 78, 0
11, 56220, Note_on_c, 5, 81, 76
11, 56267, Note_on_c, 5, 81, 0
11, 56280, Note_on_c, 5, 74, 76
11, 56327, Note_on_c, 5, 74, 0
11, 56340, Note_on_c, 5, 76, 76
11, 56387, Note_on_c, 5, 76, 0
11, 56400, Note_on_c, 5, 78, 76
11, 56447, Note_on_c, 5, 78, 0
11, 56460, Note_on_c, 5, 79, 76
11, 56507, Note_on_c, 5, 79, 0
11, 56520, Note_on_c, 5, 78, 76
11, 56567, Note_on_c, 5, 78, 0
11, 56580, Note_on_c, 5, 79, 76
11, 56627, Note_on_c, 5, 79, 0
11, 56640, Note_on_c, 5, 81, 76
11, 56687, Note_on_c, 5, 81, 0
11, 56700, Note_on_c, 5, 79, 76
11, 56747, Note_on_c, 5, 79, 0
11, 56760, Note_on_c, 5, 78, 76
11, 56807, Note_on_c, 5, 78, 0
11, 56820, Note_on_c, 5, 79, 76
11, 56867, Note_on_c, 5, 79, 0
11, 56880, Note_on_c, 5, 81, 76
11, 56927, Note_on_c, 5, 81, 0
11, 56940, Note_on_c, 5, 79, 76
11, 56987, Note_on_c, 5, 79, 0
11, 57000, Note_on_c, 5, 78, 76
11, 57047, Note_on_c, 5, 78, 0
11, 57060, Note_on_c, 5, 76, 76
11, 57107, Note_on_c, 5, 76, 0
11, 57120, Note_on_c, 5, 74, 76
11, 57224, Note_on_c, 5, 74, 0
11, 57240, Note_on_c, 5, 71, 76
11, 57344, Note_on_c, 5, 71, 0
11, 57360, Note_on_c, 5, 76, 76
11, 57704, Note_on_c, 5, 76, 0
11, 57720, Note_on_c, 5, 69, 76
11, 57824, Note_on_c, 5, 69, 0
11, 57840, Note_on_c, 5, 74, 76
11, 58184, Note_on_c, 5, 74, 0
11, 58200, Note_on_c, 5, 73, 76
11, 58304, Note_on_c, 5, 73, 0
11, 58320, Note_on_c, 5, 74, 76
11, 58367, Note_on_c, 5, 74, 0
11, 58380, Note_on_c, 5, 73, 76
11, 58427, Note_on_c, 5, 73, 0
11, 58440, Note_on_c, 5, 71, 76
11, 58487, Note_on_c, 5, 71, 0
11, 58500, Note_on_c, 5, 74, 76
11, 58547, Note_on_c, 5, 74, 0
11, 58560, Note_on_c, 5, 73, 76
11, 58664, Note_on_c, 5, 73, 0
11, 58680, Note_on_c, 5, 76, 76
11, 58784, Note_on_c, 5, 76, 0
11, 58800, Note_on_c, 5, 69, 76
11, 58904, Note_on_c, 5, 69, 0
11, 58920, Note_on_c, 5, 73, 76
11, 59144, Note_on_c, 5, 73, 0
11, 59160, Note_on_c, 5, 76, 76
11, 59264, Note_on_c, 5, 76, 0
11, 59280, Note_on_c, 5, 67, 76
11, 59384, Note_on_c, 5, 67, 0
11, 59400, Note_on_c, 5, 73, 76
11, 59624, Note_on_c, 5, 73, 0
11, 59640, Note_on_c, 5, 76, 76
11, 59744, Note_on_c, 5, 76, 0
11, 59760, Note_on_c, 5, 69, 76
11, 59864, Note_on_c, 5, 69, 0
11, 59880, Note_on_c, 5, 73, 76
11, 59984, Note_on_c, 5, 73, 0
11, 60000, Note_on_c, 5, 74, 76
11, 60104, Note_on_c, 5, 74, 0
11, 60120, Note_on_c, 5, 69, 76
11, 60224, Note_on_c, 5, 69, 0
11, 60240, Note_on_c, 5, 74, 76
11, 60584, Note_on_c, 5, 74, 0
11, 60600, Note_on_c, 5, 73, 76
11, 60704, Note_on_c, 5, 73, 0
11, 60720, Note_on_c, 5, 76, 76
11, 60824, Note_on_c, 5, 76, 0
11, 60840, Note_on_c, 5, 73, 76
11, 60944, Note_on_c, 5, 73, 0
11, 60960, Note_on_c, 5, 74, 76
11, 61064, Note_on_c, 5, 74, 0
11, 61080, Note_on_c, 5, 69, 76
11, 61184, Note_on_c, 5, 69, 0
11, 61200, Note_on_c, 5, 62, 76
11, 61304, Note_on_c, 5, 62, 0
11, 61320, Note_on_c, 5, 67, 76
11, 61424, Note_on_c, 5, 67, 0
11, 61440, Note_on_c, 5, 64, 76
11, 61679, Note_on_c, 5, 64, 0
11, 61800, Note_on_c, 5, 73, 76
11, 61904, Note_on_c, 5, 73, 0
11, 61920, Note_on_c, 5, 74, 76
11, 62024, Note_on_c, 5, 74, 0
11, 62040, Note_on_c, 5, 71, 76
11, 62144, Note_on_c, 5, 71, 0
11, 62160, Note_on_c, 5, 69, 76
11, 62264, Note_on_c, 5, 69, 0
11, 62280, Note_on_c, 5, 69, 76
11, 62384, Note_on_c, 5, 69, 0
11, 62400, Note_on_c, 5, 69, 76
11, 62519, Note_on_c, 5, 69, 0
11, 71520, Note_on_c, 5, 69, 52
11, 72704, Note_on_c, 5, 69, 0
11, 72720, Note_on_c, 5, 66, 52
11, 72944, Note_on_c, 5, 66, 0
11, 72960, Note_on_c, 5, 68, 52
11, 74384, Note_on_c, 5, 68, 0
11, 74400, Note_on_c, 5, 67, 52
11, 75824, Note_on_c, 5, 67, 0
11, 75840, Note_on_c, 5, 66, 52
11, 75959, Note_on_c, 5, 66, 0
11, 77880, Note_on_c, 5, 76, 76
11, 77984, Note_on_c, 5, 76, 0
11, 78000, Note_on_c, 5, 69, 76
11, 78104, Note_on_c, 5, 69, 0
11, 78120, Note_on_c, 5, 73, 76
11, 78344, Note_on_c, 5, 73, 0
11, 78360, Note_on_c, 5, 76, 76
11, 78464, Note_on_c, 5, 76, 0
11, 78480, Note_on_c, 5, 67, 76
11, 78584, Note_on_c, 5, 67, 0
11, 78600, Note_on_c, 5, 73, 76
11, 78824, Note_on_c, 5, 73, 0
11, 78840, Note_on_c, 5, 76, 76
11, 78944, Note_on_c, 5, 76, 0
11, 78960, Note_on_c, 5, 69, 76
11, 79064, Note_on_c, 5, 69, 0
11, 79080, Note_on_c, 5, 73, 76
11, 79184, Note_on_c, 5, 73, 0
11, 79200, Note_on_c, 5, 74, 76
11, 79247, Note_on_c, 5, 74, 0
11, 79260, Note_on_c, 5, 73, 76
11, 79307, Note_on_c, 5, 73, 0
11, 79320, Note_on_c, 5, 74, 76
11, 79367, Note_on_c, 5, 74, 0
11, 79380, Note_on_c, 5, 76, 76
11, 79427, Note_on_c, 5, 76, 0
11, 79440, Note_on_c, 5, 78, 76
11, 79487, Note_on_c, 5, 78, 0
11, 79500, Note_on_c, 5, 79, 76
11, 79547, Note_on_c, 5, 79, 0
11, 79560, Note_on_c, 5, 78, 76
11, 79607, Note_on_c, 5, 78, 0
11, 79620, Note_on_c, 5, 79, 76
11, 79667, Note_on_c, 5, 79, 0
11, 79680, Note_on_c, 5, 81, 76
11, 79727, Note_on_c, 5, 81, 0
11, 79740, Note_on_c, 5, 78, 76
11, 79787, Note_on_c, 5, 78, 0
11, 79800, Note_on_c, 5, 71, 76
11, 79847, Note_on_c, 5, 71, 0
11, 79860, Note_on_c, 5, 73, 76
11, 79907, Note_on_c, 5, 73, 0
11, 79920, Note_on_c, 5, 75, 76
11, 79967, Note_on_c, 5, 75, 0
11, 79980, Note_on_c, 5, 76, 76
11, 80027, Note_on_c, 5, 76, 0
11, 80040, Note_on_c, 5, 75, 76
11, 80087, Note_on_c, 5, 75, 0
11, 80100, Note_on_c, 5, 76, 76
11, 80147, Note_on_c, 5, 76, 0
11, 80160, Note_on_c, 5, 78, 76
11, 80207, Note_on_c, 5, 78, 0
11, 80220, Note_on_c, 5, 76, 76
11, 80267, Note_on_c, 5, 76, 0
11, 80280, Note_on_c, 5, 75, 76
11, 80327, Note_on_c, 5, 75, 0
11, 80340, Note_on_c, 5, 76, 76
11, 80387, Note_on_c, 5, 76, 0
11, 80400, Note_on_c, 5, 78, 76
11, 80447, Note_on_c, 5, 78, 0
11, 80460, Note_on_c, 5, 76, 76
11, 80507, Note_on_c, 5, 76, 0
11, 80520, Note_on_c, 5, 75, 76
11, 80567, Note_on_c, 5, 75, 0
11, 80580, Note_on_c, 5, 73, 76
11, 80627, Note_on_c, 5, 73, 0
11, 80640, Note_on_c, 5, 71, 76
11, 80744, Note_on_c, 5, 71, 0
11, 80760, Note_on_c, 5, 76, 76
11, 80864, Note_on_c, 5, 76, 0
11, 80880, Note_on_c, 5, 76, 76
11, 80984, Note_on_c, 5, 76, 0
11, 81000, Note_on_c, 5, 76, 76
11, 81104, Note_on_c, 5, 76, 0
11, 81120, Note_on_c, 5, 76, 76
11, 81224, Note_on_c, 5, 76, 0
11, 81240, Note_on_c, 5, 76, 76
11, 81344, Note_on_c, 5, 76, 0
11, 81360, Note_on_c, 5, 76, 76
11, 81464, Note_on_c, 5, 76, 0
11, 81480, Note_on_c, 5, 76, 76
11, 81584, Note_on_c, 5, 76, 0
11, 81600, Note_on_c, 5, 76, 76
11, 81704, Note_on_c, 5, 76, 0
11, 81720, Note_on_c, 5, 76, 76
11, 81824, Note_on_c, 5, 76, 0
11, 81840, Note_on_c, 5, 76, 76
11, 81944, Note_on_c, 5, 76, 0
11, 81960, Note_on_c, 5, 71, 76
11, 82064, Note_on_c, 5, 71, 0
11, 82080, Note_on_c, 5, 69, 76
11, 82127, Note_on_c, 5, 69, 0
11, 82140, Note_on_c, 5, 68, 76
11, 82187, Note_on_c, 5, 68, 0
11, 82200, Note_on_c, 5, 69, 76
11, 82247, Note_on_c, 5, 69, 0
11, 82260, Note_on_c, 5, 71, 76
11, 82307, Note_on_c, 5, 71, 0
11, 82320, Note_on_c, 5, 69, 76
11, 82367, Note_on_c, 5, 69, 0
11, 82380, Note_on_c, 5, 68, 76
11, 82427, Note_on_c, 5, 68, 0
11, 82440, Note_on_c, 5, 66, 76
11, 82487, Note_on_c, 5, 66, 0
11, 82500, Note_on_c, 5, 69, 76
11, 82547, Note_on_c, 5, 69, 0
11, 82560, Note_on_c, 5, 68, 76
11, 82607, Note_on_c, 5, 68, 0
11, 82620, Note_on_c, 5, 69, 76
11, 82667, Note_on_c, 5, 69, 0
11, 82680, Note_on_c, 5, 68, 76
11, 82727, Note_on_c, 5, 68, 0
11, 82740, Note_on_c, 5, 66, 76
11, 82787, Note_on_c, 5, 66, 0
11, 82800, Note_on_c, 5, 65, 76
11, 82904, Note_on_c, 5, 65, 0
11, 82920, Note_on_c, 5, 68, 76
11, 83024, Note_on_c, 5, 68, 0
11, 83040, Note_on_c, 5, 69, 76
11, 83087, Note_on_c, 5, 69, 0
11, 83100, Note_on_c, 5, 73, 76
11, 83147, Note_on_c, 5, 73, 0
11, 83160, Note_on_c, 5, 66, 76
11, 83207, Note_on_c, 5, 66, 0
11, 83220, Note_on_c, 5, 68, 76
11, 83267, Note_on_c, 5, 68, 0
11, 83280, Note_on_c, 5, 69, 76
11, 83327, Note_on_c, 5, 69, 0
11, 83340, Note_on_c, 5, 71, 76
11, 83387, Note_on_c, 5, 71, 0
11, 83400, Note_on_c, 5, 69, 76
11, 83447, Note_on_c, 5, 69, 0
11, 83460, Note_on_c, 5, 71, 76
11, 83507, Note_on_c, 5, 71, 0
11, 83520, Note_on_c, 5, 73, 76
11, 83567, Note_on_c, 5, 73, 0
11, 83580, Note_on_c, 5, 76, 76
11, 83627, Note_on_c, 5, 76, 0
11, 83640, Note_on_c, 5, 69, 76
11, 83687, Note_on_c, 5, 69, 0
11, 83700, Note_on_c, 5, 71, 76
11, 83747, Note_on_c, 5, 71, 0
11, 83760, Note_on_c, 5, 73, 76
11, 83807, Note_on_c, 5, 73, 0
11, 83820, Note_on_c, 5, 74, 76
11, 83867, Note_on_c, 5, 74, 0
11, 83880, Note_on_c, 5, 73, 76
11, 83927, Note_on_c, 5, 73, 0
11, 83940, Note_on_c, 5, 74, 76
11, 83987, Note_on_c, 5, 74, 0
11, 84000, Note_on_c, 5, 76, 76
11, 84047, Note_on_c, 5, 76, 0
11, 84060, Note_on_c, 5, 74, 76
11, 84107, Note_on_c, 5, 74, 0
11, 84120, Note_on_c, 5, 73, 76
11, 84167, Note_on_c, 5, 73, 0
11, 84180, Note_on_c, 5, 74, 76
11, 84227, Note_on_c, 5, 74, 0
11, 84240, Note_on_c, 5, 76, 76
11, 84287, Note_on_c, 5, 76, 0
11, 84300, Note_on_c, 5, 74, 76
11, 84347, Note_on_c, 5, 74, 0
11, 84360, Note_on_c, 5, 73, 76
11, 84407, Note_on_c, 5, 73, 0
11, 84420, Note_on_c, 5, 71, 76
11, 84467, Note_on_c, 5, 71, 0
11, 84480, Note_on_c, 5, 69, 76
11, 84584, Note_on_c, 5, 69, 0
11, 84600, Note_on_c, 5, 66, 76
11, 84704, Note_on_c, 5, 66, 0
11, 84720, Note_on_c, 5, 71, 76
11, 85064, Note_on_c, 5, 71, 0
11, 85080, Note_on_c, 5, 76, 76
11, 85184, Note_on_c, 5, 76, 0
11, 85200, Note_on_c, 5, 70, 76
11, 85304, Note_on_c, 5, 70, 0
11, 85320, Note_on_c, 5, 66, 76
11, 85487, Note_on_c, 5, 66, 0
11, 85500, Note_on_c, 5, 67, 76
11, 85547, Note_on_c, 5, 67, 0
11, 85560, Note_on_c, 5, 64, 76
11, 85607, Note_on_c, 5, 64, 0
11, 85620, Note_on_c, 5, 66, 76
11, 85667, Note_on_c, 5, 66, 0
11, 85680, Note_on_c, 5, 67, 76
11, 85784, Note_on_c, 5, 67, 0
11, 85800, Note_on_c, 5, 64, 76
11, 85904, Note_on_c, 5, 64, 0
11, 85920, Note_on_c, 5, 73, 76
11, 85967, Note_on_c, 5, 73, 0
11, 85980, Note_on_c, 5, 78, 76
11, 86027, Note_on_c, 5, 78, 0
11, 86040, Note_on_c, 5, 70, 76
11, 86087, Note_on_c, 5, 70, 0
11, 86100, Note_on_c, 5, 71, 76
11, 86147, Note_on_c, 5, 71, 0
11, 86160, Note_on_c, 5, 73, 76
11, 86207, Note_on_c, 5, 73, 0
11, 86220, Note_on_c, 5, 74, 76
11, 86267, Note_on_c, 5, 74, 0
11, 86280, Note_on_c, 5, 73, 76
11, 86327, Note_on_c, 5, 73, 0
11, 86340, Note_on_c, 5, 74, 76
11, 86387, Note_on_c, 5, 74, 0
11, 86400, Note_on_c, 5, 76, 76
11, 86447, Note_on_c, 5, 76, 0
11, 86460, Note_on_c, 5, 73, 76
11, 86507, Note_on_c, 5, 73, 0
11, 86520, Note_on_c, 5, 66, 76
11, 86567, Note_on_c, 5, 66, 0
11, 86580, Note_on_c, 5, 68, 76
11, 86627, Note_on_c, 5, 68, 0
11, 86640, Note_on_c, 5, 70, 76
11, 86687, Note_on_c, 5, 70, 0
11, 86700, Note_on_c, 5, 71, 76
11, 86747, Note_on_c, 5, 71, 0
11, 86760, Note_on_c, 5, 70, 76
11, 86807, Note_on_c, 5, 70, 0
11, 86820, Note_on_c, 5, 71, 76
11, 86867, Note_on_c, 5, 71, 0
11, 86880, Note_on_c, 5, 73, 76
11, 86927, Note_on_c, 5, 73, 0
11, 86940, Note_on_c, 5, 71, 76
11, 86987, Note_on_c, 5, 71, 0
11, 87000, Note_on_c, 5, 70, 76
11, 87047, Note_on_c, 5, 70, 0
11, 87060, Note_on_c, 5, 71, 76
11, 87107, Note_on_c, 5, 71, 0
11, 87120, Note_on_c, 5, 73, 76
11, 87167, Note_on_c, 5, 73, 0
11, 87180, Note_on_c, 5, 76, 76
11, 87227, Note_on_c, 5, 76, 0
11, 87240, Note_on_c, 5, 74, 76
11, 87287, Note_on_c, 5, 74, 0
11, 87300, Note_on_c, 5, 73, 76
11, 87347, Note_on_c, 5, 73, 0
11, 87360, Note_on_c, 5, 71, 76
11, 87464, Note_on_c, 5, 71, 0
11, 87480, Note_on_c, 5, 66, 76
11, 87584, Note_on_c, 5, 66, 0
11, 87600, Note_on_c, 5, 71, 76
11, 87944, Note_on_c, 5, 71, 0
11, 87960, Note_on_c, 5, 64, 76
11, 88064, Note_on_c, 5, 64, 0
11, 88080, Note_on_c, 5, 61, 76
11, 88184, Note_on_c, 5, 61, 0
11, 88200, Note_on_c, 5, 70, 76
11, 88304, Note_on_c, 5, 70, 0
11, 88320, Note_on_c, 5, 71, 76
11, 88424, Note_on_c, 5, 71, 0
11, 88440, Note_on_c, 5, 71, 76
11, 88544, Note_on_c, 5, 71, 0
11, 88560, Note_on_c, 5, 71, 76
11, 88664, Note_on_c, 5, 71, 0
11, 88680, Note_on_c, 5, 67, 76
11, 88784, Note_on_c, 5, 67, 0
11, 88800, Note_on_c, 5, 66, 76
11, 89039, Note_on_c, 5, 66, 0
11, 89160, Note_on_c, 5, 73, 76
11, 89264, Note_on_c, 5, 73, 0
11, 89280, Note_on_c, 5, 71, 76
11, 89384, Note_on_c, 5, 71, 0
11, 89400, Note_on_c, 5, 70, 76
11, 89504, Note_on_c, 5, 70, 0
11, 89520, Note_on_c, 5, 66, 76
11, 89624, Note_on_c, 5, 66, 0
11, 89640, Note_on_c, 5, 66, 76
11, 89744, Note_on_c, 5, 66, 0
11, 89760, Note_on_c, 5, 62, 76
11, 89864, Note_on_c, 5, 62, 0
11, 89880, Note_on_c, 5, 67, 76
11, 89984, Note_on_c, 5, 67, 0
11, 90000, Note_on_c, 5, 66, 76
11, 90104, Note_on_c, 5, 66, 0
11, 90120, Note_on_c, 5, 66, 76
11, 90224, Note_on_c, 5, 66, 0
11, 90240, Note_on_c, 5, 66, 76
11, 90359, Note_on_c, 5, 66, 0
11, 95880, Note_on_c, 5, 76, 76
11, 95984, Note_on_c, 5, 76, 0
11, 96000, Note_on_c, 5, 74, 76
11, 96104, Note_on_c, 5, 74, 0
11, 96120, Note_on_c, 5, 69, 76
11, 96224, Note_on_c, 5, 69, 0
11, 96240, Note_on_c, 5, 71, 76
11, 96359, Note_on_c, 5, 71, 0
11, 96600, Note_on_c, 5, 71, 76
11, 96704, Note_on_c, 5, 71, 0
11, 96720, Note_on_c, 5, 69, 76
11, 96839, Note_on_c, 5, 69, 0
11, 97080, Note_on_c, 5, 69, 76
11, 97184, Note_on_c, 5, 69, 0
11, 97200, Note_on_c, 5, 67, 76
11, 97304, Note_on_c, 5, 67, 0
11, 97320, Note_on_c, 5, 71, 76
11, 97424, Note_on_c, 5, 71, 0
11, 97440, Note_on_c, 5, 69, 76
11, 97544, Note_on_c, 5, 69, 0
11, 97560, Note_on_c, 5, 73, 76
11, 97664, Note_on_c, 5, 73, 0
11, 97680, Note_on_c, 5, 69, 76
11, 97784, Note_on_c, 5, 69, 0
11, 97800, Note_on_c, 5, 74, 76
11, 97904, Note_on_c, 5, 74, 0
11, 97920, Note_on_c, 5, 73, 76
11, 98024, Note_on_c, 5, 73, 0
11, 98040, Note_on_c, 5, 76, 76
11, 98144, Note_on_c, 5, 76, 0
11, 98160, Note_on_c, 5, 74, 76
11, 98264, Note_on_c, 5, 74, 0
11, 98280, Note_on_c, 5, 66, 76
11, 98384, Note_on_c, 5, 66, 0
11, 98400, Note_on_c, 5, 69, 76
11, 98504, Note_on_c, 5, 69, 0
11, 98520, Note_on_c, 5, 73, 76
11, 98624, Note_on_c, 5, 73, 0
11, 98640, Note_on_c, 5, 76, 76
11, 98744, Note_on_c, 5, 76, 0
11, 98760, Note_on_c, 5, 81, 76
11, 98864, Note_on_c, 5, 81, 0
11, 98880, Note_on_c, 5, 78, 76
11, 98984, Note_on_c, 5, 78, 0
11, 99000, Note_on_c, 5, 74, 76
11, 99104, Note_on_c, 5, 74, 0
11, 99120, Note_on_c, 5, 71, 76
11, 99224, Note_on_c, 5, 71, 0
11, 99240, Note_on_c, 5, 80, 76
11, 99344, Note_on_c, 5, 80, 0
11, 99360, Note_on_c, 5, 81, 76
11, 99479, Note_on_c, 5, 81, 0
11, 99840, Note_on_c, 5, 69, 52
11, 101024, Note_on_c, 5, 69, 0
11, 101040, Note_on_c, 5, 66, 52
11, 101264, Note_on_c, 5, 66, 0
11, 101280, Note_on_c, 5, 68, 52
11, 102704, Note_on_c, 5, 68, 0
11, 102720, Note_on_c, 5, 67, 52
11, 103904, Note_on_c, 5, 67, 0
11, 103920, Note_on_c, 5, 64, 52
11, 104144, Note_on_c, 5, 64, 0
11, 104160, Note_on_c, 5, 66, 52
11, 105584, Note_on_c, 5, 66, 0
11, 105600, Note_on_c, 5, 62, 52
11, 105719, Note_on_c, 5, 62, 0
11, 107640, Note_on_c, 5, 76, 76
11, 107744, Note_on_c, 5, 76, 0
11, 107760, Note_on_c, 5, 69, 76
11, 107864, Note_on_c, 5, 69, 0
11, 107880, Note_on_c, 5, 73, 76
11, 108104, Note_on_c, 5, 73, 0
11, 108120, Note_on_c, 5, 76, 76
11, 108224, Note_on_c, 5, 76, 0
11, 108240, Note_on_c, 5, 67, 76
11, 108344, Note_on_c, 5, 67, 0
11, 108360, Note_on_c, 5, 73, 76
11, 108584, Note_on_c, 5, 73, 0
11, 108600, Note_on_c, 5, 76, 76
11, 108704, Note_on_c, 5, 76, 0
11, 108720, Note_on_c, 5, 69, 76
11, 108824, Note_on_c, 5, 69, 0
11, 108840, Note_on_c, 5, 73, 76
11, 108944, Note_on_c, 5, 73, 0
11, 108960, Note_on_c, 5, 74, 76
11, 109064, Note_on_c, 5, 74, 0
11, 109080, Note_on_c, 5, 62, 76
11, 109127, Note_on_c, 5, 62, 0
11, 109140, Note_on_c, 5, 64, 76
11, 109187, Note_on_c, 5, 64, 0
11, 109200, Note_on_c, 5, 66, 76
11, 109304, Note_on_c, 5, 66, 0
11, 109320, Note_on_c, 5, 66, 76
11, 109367, Note_on_c, 5, 66, 0
11, 109380, Note_on_c, 5, 67, 76
11, 109427, Note_on_c, 5, 67, 0
11, 109440, Note_on_c, 5, 69, 76
11, 109544, Note_on_c, 5, 69, 0
11, 109560, Note_on_c, 5, 66, 76
11, 109607, Note_on_c, 5, 66, 0
11, 109620, Note_on_c, 5, 67, 76
11, 109667, Note_on_c, 5, 67, 0
11, 109680, Note_on_c, 5, 69, 76
11, 109784, Note_on_c, 5, 69, 0
11, 109800, Note_on_c, 5, 69, 76
11, 109847, Note_on_c, 5, 69, 0
11, 109860, Note_on_c, 5, 71, 76
11, 109907, Note_on_c, 5, 71, 0
11, 109920, Note_on_c, 5, 72, 76
11, 110024, Note_on_c, 5, 72, 0
11, 110040, Note_on_c, 5, 72, 76
11, 110087, Note_on_c, 5, 72, 0
11, 110100, Note_on_c, 5, 71, 76
11, 110147, Note_on_c, 5, 71, 0
11, 110160, Note_on_c, 5, 72, 76
11, 110264, Note_on_c, 5, 72, 0
11, 110280, Note_on_c, 5, 74, 76
11, 110327, Note_on_c, 5, 74, 0
11, 110340, Note_on_c, 5, 72, 76
11, 110387, Note_on_c, 5, 72, 0
11, 110400, Note_on_c, 5, 71, 76
11, 110504, Note_on_c, 5, 71, 0
11, 110520, Note_on_c, 5, 67, 76
11, 110567, Note_on_c, 5, 67, 0
11, 110580, Note_on_c, 5, 69, 76
11, 110627, Note_on_c, 5, 69, 0
11, 110640, Note_on_c, 5, 71, 76
11, 110744, Note_on_c, 5, 71, 0
11, 110760, Note_on_c, 5, 71, 76
11, 110807, Note_on_c, 5, 71, 0
11, 110820, Note_on_c, 5, 73, 76
11, 110867, Note_on_c, 5, 73, 0
11, 110880, Note_on_c, 5, 74, 76
11, 110984, Note_on_c, 5, 74, 0
11, 111000, Note_on_c, 5, 74, 76
11, 111047, Note_on_c, 5, 74, 0
11, 111060, Note_on_c, 5, 73, 76
11, 111107, Note_on_c, 5, 73, 0
11, 111120, Note_on_c, 5, 74, 76
11, 111224, Note_on_c, 5, 74, 0
11, 111240, Note_on_c, 5, 76, 76
11, 111287, Note_on_c, 5, 76, 0
11, 111300, Note_on_c, 5, 74, 76
11, 111347, Note_on_c, 5, 74, 0
11, 111360, Note_on_c, 5, 73, 76
11, 111464, Note_on_c, 5, 73, 0
11, 111480, Note_on_c, 5, 76, 76
11, 111584, Note_on_c, 5, 76, 0
11, 111600, Note_on_c, 5, 69, 76
11, 111704, Note_on_c, 5, 69, 0
11, 111720, Note_on_c, 5, 73, 76
11, 111944, Note_on_c, 5, 73, 0
11, 111960, Note_on_c, 5, 76, 76
11, 112064, Note_on_c, 5, 76, 0
11, 112080, Note_on_c, 5, 67, 76
11, 112184, Note_on_c, 5, 67, 0
11, 112200, Note_on_c, 5, 73, 76
11, 112424, Note_on_c, 5, 73, 0
11, 112440, Note_on_c, 5, 76, 76
11, 112544, Note_on_c, 5, 76, 0
11, 112560, Note_on_c, 5, 69, 76
11, 112664, Note_on_c, 5, 69, 0
11, 112680, Note_on_c, 5, 73, 76
11, 112784, Note_on_c, 5, 73, 0
11, 112800, Note_on_c, 5, 74, 76
11, 112847, Note_on_c, 5, 74, 0
11, 112860, Note_on_c, 5, 69, 76
11, 112907, Note_on_c, 5, 69, 0
11, 112920, Note_on_c, 5, 66, 76
11, 112967, Note_on_c, 5, 66, 0
11, 112980, Note_on_c, 5, 67, 76
11, 113027, Note_on_c, 5, 67, 0
11, 113040, Note_on_c, 5, 69, 76
11, 113087, Note_on_c, 5, 69, 0
11, 113100, Note_on_c, 5, 71, 76
11, 113147, Note_on_c, 5, 71, 0
11, 113160, Note_on_c, 5, 69, 76
11, 113207, Note_on_c, 5, 69, 0
11, 113220, Note_on_c, 5, 71, 76
11, 113267, Note_on_c, 5, 71, 0
11, 113280, Note_on_c, 5, 72, 76
11, 113327, Note_on_c, 5, 72, 0
11, 113340, Note_on_c, 5, 69, 76
11, 113387, Note_on_c, 5, 69, 0
11, 113400, Note_on_c, 5, 62, 76
11, 113447, Note_on_c, 5, 62, 0
11, 113460, Note_on_c, 5, 64, 76
11, 113507, Note_on_c, 5, 64, 0
11, 113520, Note_on_c, 5, 66, 76
11, 113567, Note_on_c, 5, 66, 0
11, 113580, Note_on_c, 5, 67, 76
11, 113627, Note_on_c, 5, 67, 0
11, 113640, Note_on_c, 5, 66, 76
11, 113687, Note_on_c, 5, 66, 0
11, 113700, Note_on_c, 5, 67, 76
11, 113747, Note_on_c, 5, 67, 0
11, 113760, Note_on_c, 5, 69, 76
11, 113807, Note_on_c, 5, 69, 0
11, 113820, Note_on_c, 5, 67, 76
11, 113867, Note_on_c, 5, 67, 0
11, 113880, Note_on_c, 5, 66, 76
11, 113927, Note_on_c, 5, 66, 0
11, 113940, Note_on_c, 5, 67, 76
11, 113987, Note_on_c, 5, 67, 0
11, 114000, Note_on_c, 5, 69, 76
11, 114047, Note_on_c, 5, 69, 0
11, 114060, Note_on_c, 5, 67, 76
11, 114107, Note_on_c, 5, 67, 0
11, 114120, Note_on_c, 5, 66, 76
11, 114167, Note_on_c, 5, 66, 0
11, 114180, Note_on_c, 5, 64, 76
11, 114227, Note_on_c, 5, 64, 0
11, 114240, Note_on_c, 5, 62, 76
11, 114344, Note_on_c, 5, 62, 0
11, 114360, Note_on_c, 5, 71, 76
11, 114464, Note_on_c, 5, 71, 0
11, 114480, Note_on_c, 5, 64, 76
11, 114584, Note_on_c, 5, 64, 0
11, 114600, Note_on_c, 5, 68, 76
11, 114824, Note_on_c, 5, 68, 0
11, 114840, Note_on_c, 5, 71, 76
11, 114944, Note_on_c, 5, 71, 0
11, 114960, Note_on_c, 5, 62, 76
11, 115064, Note_on_c, 5, 62, 0
11, 115080, Note_on_c, 5, 68, 76
11, 115304, Note_on_c, 5, 68, 0
11, 115320, Note_on_c, 5, 71, 76
11, 115424, Note_on_c, 5, 71, 0
11, 115440, Note_on_c, 5, 64, 76
11, 115544, Note_on_c, 5, 64, 0
11, 115560, Note_on_c, 5, 68, 76
11, 115664, Note_on_c, 5, 68, 0
11, 115680, Note_on_c, 5, 69, 76
11, 115727, Note_on_c, 5, 69, 0
11, 115740, Note_on_c, 5, 81, 76
11, 115787, Note_on_c, 5, 81, 0
11, 115800, Note_on_c, 5, 73, 76
11, 115847, Note_on_c, 5, 73, 0
11, 115860, Note_on_c, 5, 74, 76
11, 115907, Note_on_c, 5, 74, 0
11, 115920, Note_on_c, 5, 76, 76
11, 115967, Note_on_c, 5, 76, 0
11, 115980, Note_on_c, 5, 78, 76
11, 116027, Note_on_c, 5, 78, 0
11, 116040, Note_on_c, 5, 76, 76
11, 116087, Note_on_c, 5, 76, 0
11, 116100, Note_on_c, 5, 78, 76
11, 116147, Note_on_c, 5, 78, 0
11, 116160, Note_on_c, 5, 79, 76
11, 116207, Note_on_c, 5, 79, 0
11, 116220, Note_on_c, 5, 76, 76
11, 116267, Note_on_c, 5, 76, 0
11, 116280, Note_on_c, 5, 69, 76
11, 116327, Note_on_c, 5, 69, 0
11, 116340, Note_on_c, 5, 71, 76
11, 116387, Note_on_c, 5, 71, 0
11, 116400, Note_on_c, 5, 73, 76
11, 116447, Note_on_c, 5, 73, 0
11, 116460, Note_on_c, 5, 74, 76
11, 116507, Note_on_c, 5, 74, 0
11, 116520, Note_on_c, 5, 73, 76
11, 116567, Note_on_c, 5, 73, 0
11, 116580, Note_on_c, 5, 74, 76
11, 116627, Note_on_c, 5, 74, 0
11, 116640, Note_on_c, 5, 76, 76
11, 116687, Note_on_c, 5, 76, 0
11, 116700, Note_on_c, 5, 74, 76
11, 116747, Note_on_c, 5, 74, 0
11, 116760, Note_on_c, 5, 73, 76
11, 116807, Note_on_c, 5, 73, 0
11, 116820, Note_on_c, 5, 74, 76
11, 116867, Note_on_c, 5, 74, 0
11, 116880, Note_on_c, 5, 76, 76
11, 116927, Note_on_c, 5, 76, 0
11, 116940, Note_on_c, 5, 74, 76
11, 116987, Note_on_c, 5, 74, 0
11, 117000, Note_on_c, 5, 73, 76
11, 117047, Note_on_c, 5, 73, 0
11, 117060, Note_on_c, 5, 71, 76
11, 117107, Note_on_c, 5, 71, 0
11, 117120, Note_on_c, 5, 69, 76
11, 117224, Note_on_c, 5, 69, 0
11, 117240, Note_on_c, 5, 66, 76
11, 117344, Note_on_c, 5, 66, 0
11, 117360, Note_on_c, 5, 71, 76
11, 117704, Note_on_c, 5, 71, 0
11, 117720, Note_on_c, 5, 70, 76
11, 117767, Note_on_c, 5, 70, 0
11, 117780, Note_on_c, 5, 71, 76
11, 117827, Note_on_c, 5, 71, 0
11, 117840, Note_on_c, 5, 73, 76
11, 117887, Note_on_c, 5, 73, 0
11, 117900, Note_on_c, 5, 71, 76
11, 117947, Note_on_c, 5, 71, 0
11, 117960, Note_on_c, 5, 70, 76
11, 118007, Note_on_c, 5, 70, 0
11, 118020, Note_on_c, 5, 68, 76
11, 118067, Note_on_c, 5, 68, 0
11, 118080, Note_on_c, 5, 66, 76
11, 118127, Note_on_c, 5, 66, 0
11, 118140, Note_on_c, 5, 78, 76
11, 118187, Note_on_c, 5, 78, 0
11, 118200, Note_on_c, 5, 71, 76
11, 118247, Note_on_c, 5, 71, 0
11, 118260, Note_on_c, 5, 73, 76
11, 118307, Note_on_c, 5, 73, 0
11, 118320, Note_on_c, 5, 74, 76
11, 118367, Note_on_c, 5, 74, 0
11, 118380, Note_on_c, 5, 76, 76
11, 118427, Note_on_c, 5, 76, 0
11, 118440, Note_on_c, 5, 74, 76
11, 118487, Note_on_c, 5, 74, 0
11, 118500, Note_on_c, 5, 76, 76
11, 118547, Note_on_c, 5, 76, 0
11, 118560, Note_on_c, 5, 78, 76
11, 118607, Note_on_c, 5, 78, 0
11, 118620, Note_on_c, 5, 81, 76
11, 118667, Note_on_c, 5, 81, 0
11, 118680, Note_on_c, 5, 74, 76
11, 118727, Note_on_c, 5, 74, 0
11, 118740, Note_on_c, 5, 76, 76
11, 118787, Note_on_c, 5, 76, 0
11, 118800, Note_on_c, 5, 78, 76
11, 118847, Note_on_c, 5, 78, 0
11, 118860, Note_on_c, 5, 79, 76
11, 118907, Note_on_c, 5, 79, 0
11, 118920, Note_on_c, 5, 78, 76
11, 118967, Note_on_c, 5, 78, 0
11, 118980, Note_on_c, 5, 79, 76
11, 119027, Note_on_c, 5, 79, 0
11, 119040, Note_on_c, 5, 81, 76
11, 119144, Note_on_c, 5, 81, 0
11, 119160, Note_on_c, 5, 79, 76
11, 119264, Note_on_c, 5, 79, 0
11, 119280, Note_on_c, 5, 78, 76
11, 119384, Note_on_c, 5, 78, 0
11, 119400, Note_on_c, 5, 76, 76
11, 119504, Note_on_c, 5, 76, 0
11, 119520, Note_on_c, 5, 74, 76
11, 119624, Note_on_c, 5, 74, 0
11, 119640, Note_on_c, 5, 71, 76
11, 119744, Note_on_c, 5, 71, 0
11, 119760, Note_on_c, 5, 76, 76
11, 120104, Note_on_c, 5, 76, 0
11, 120120, Note_on_c, 5, 69, 76
11, 120224, Note_on_c, 5, 69, 0
11, 120240, Note_on_c, 5, 74, 76
11, 120584, Note_on_c, 5, 74, 0
11, 120600, Note_on_c, 5, 73, 76
11, 120704, Note_on_c, 5, 73, 0
11, 120720, Note_on_c, 5, 74, 76
11, 120767, Note_on_c, 5, 74, 0
11, 120780, Note_on_c, 5, 73, 76
11, 120827, Note_on_c, 5, 73, 0
11, 120840, Note_on_c, 5, 71, 76
11, 120887, Note_on_c, 5, 71, 0
11, 120900, Note_on_c, 5, 74, 76
11, 120947, Note_on_c, 5, 74, 0
11, 120960, Note_on_c, 5, 73, 76
11, 121064, Note_on_c, 5, 73, 0
11, 121080, Note_on_c, 5, 76, 76
11, 121184, Note_on_c, 5, 76, 0
11, 121200, Note_on_c, 5, 69, 76
11, 121304, Note_on_c, 5, 69, 0
11, 121320, Note_on_c, 5, 73, 76
11, 121544, Note_on_c, 5, 73, 0
11, 121560, Note_on_c, 5, 76, 76
11, 121664, Note_on_c, 5, 76, 0
11, 121680, Note_on_c, 5, 67, 76
11, 121784, Note_on_c, 5, 67, 0
11, 121800, Note_on_c, 5, 73, 76
11, 122024, Note_on_c, 5, 73, 0
11, 122040, Note_on_c, 5, 76, 76
11, 122144, Note_on_c, 5, 76, 0
11, 122160, Note_on_c, 5, 69, 76
11, 122264, Note_on_c, 5, 69, 0
11, 122280, Note_on_c, 5, 73, 76
11, 122384, Note_on_c, 5, 73, 0
11, 122400, Note_on_c, 5, 74, 76
11, 122504, Note_on_c, 5, 74, 0
11, 122520, Note_on_c, 5, 69, 76
11, 122624, Note_on_c, 5, 69, 0
11, 122640, Note_on_c, 5, 74, 76
11, 122984, Note_on_c, 5, 74, 0
11, 123000, Note_on_c, 5, 73, 76
11, 123104, Note_on_c, 5, 73, 0
11, 123120, Note_on_c, 5, 76, 76
11, 123224, Note_on_c, 5, 76, 0
11, 123240, Note_on_c, 5, 73, 76
11, 123344, Note_on_c, 5, 73, 0
11, 123360, Note_on_c, 5, 74, 76
11, 123464, Note_on_c, 5, 74, 0
11, 123480, Note_on_c, 5, 69, 76
11, 123584, Note_on_c, 5, 69, 0
11, 123600, Note_on_c, 5, 62, 76
11, 123704, Note_on_c, 5, 62, 0
11, 123720, Note_on_c, 5, 74, 76
11, 123824, Note_on_c, 5, 74, 0
11, 123840, Note_on_c, 5, 64, 76
11, 124079, Note_on_c, 5, 64, 0
11, 124200, Note_on_c, 5, 73, 76
11, 124304, Note_on_c, 5, 73, 0
11, 124320, Note_on_c, 5, 74, 76
11, 124424, Note_on_c, 5, 74, 0
11, 124440, Note_on_c, 5, 71, 76
11, 124544, Note_on_c, 5, 71, 0
11, 124560, Note_on_c, 5, 69, 76
11, 124664, Note_on_c, 5, 69, 0
11, 124680, Note_on_c, 5, 69, 76
11, 124784, Note_on_c, 5, 69, 0
11, 124800, Note_on_c, 5, 69, 76
11, 125093, Note_on_c, 5, 69, 0
11, 125100, Note_on_c, 5, 76, 76
11, 125153, Note_on_c, 5, 76, 0
11, 125160, Note_on_c, 5, 78, 76
11, 125213, Note_on_c, 5, 78, 0
11, 125220, Note_on_c, 5, 74, 76
11, 125273, Note_on_c, 5, 74, 0
11, 125280, Note_on_c, 5, 69, 76
11, 125573, Note_on_c, 5, 69, 0
11, 125580, Note_on_c, 5, 71, 76
11, 125633, Note_on_c, 5, 71, 0
11, 125640, Note_on_c, 5, 72, 76
11, 125693, Note_on_c, 5, 72, 0
11, 125700, Note_on_c, 5, 69, 76
11, 125753, Note_on_c, 5, 69, 0
11, 125760, Note_on_c, 5, 66, 76
11, 126053, Note_on_c, 5, 66, 0
11, 126060, Note_on_c, 5, 67, 76
11, 126113, Note_on_c, 5, 67, 0
11, 126120, Note_on_c, 5, 69, 76
11, 126173, Note_on_c, 5, 69, 0
11, 126180, Note_on_c, 5, 66, 76
11, 126233, Note_on_c, 5, 66, 0
11, 126240, Note_on_c, 5, 62, 76
11, 126565, Note_on_c, 5, 62, 0
11, 126570, Note_on_c, 5, 64, 76
11, 126595, Note_on_c, 5, 64, 0
11, 126600, Note_on_c, 5, 66, 76
11, 126625, Note_on_c, 5, 66, 0
11, 126630, Note_on_c, 5, 67, 76
11, 126655, Note_on_c, 5, 67, 0
11, 126660, Note_on_c, 5, 69, 76
11, 126685, Note_on_c, 5, 69, 0
11, 126690, Note_on_c, 5, 71, 76
11, 126715, Note_on_c, 5, 71, 0
11, 126720, Note_on_c, 5, 72, 76
11, 126893, Note_on_c, 5, 72, 0
11, 126900, Note_on_c, 5, 72, 76
11, 126953, Note_on_c, 5, 72, 0
11, 126960, Note_on_c, 5, 74, 76
11, 127133, Note_on_c, 5, 74, 0
11, 127140, Note_on_c, 5, 76, 76
11, 127193, Note_on_c, 5, 76, 0
11, 127200, Note_on_c, 5, 74, 76
11, 127373, Note_on_c, 5, 74, 0
11, 127380, Note_on_c, 5, 72, 76
11, 127433, Note_on_c, 5, 72, 0
11, 127440, Note_on_c, 5, 71, 76
11, 127613, Note_on_c, 5, 71, 0
11, 127620, Note_on_c, 5, 69, 76
11, 127673, Note_on_c, 5, 69, 0
11, 127680, Note_on_c, 5, 71, 76
11, 127907, Note_on_c, 5, 71, 0
11, 127920, Note_on_c, 5, 67, 76
11, 128147, Note_on_c, 5, 67, 0
11, 128160, Note_on_c, 5, 71, 76
11, 128507, Note_on_c, 5, 71, 0
11, 128520, Note_on_c, 5, 73, 76
11, 128627, Note_on_c, 5, 73, 0
11, 128640, Note_on_c, 5, 74, 76
11, 128933, Note_on_c, 5, 74, 0
11, 128940, Note_on_c, 5, 73, 76
11, 128993, Note_on_c, 5, 73, 0
11, 129000, Note_on_c, 5, 74, 76
11, 129053, Note_on_c, 5, 74, 0
11, 129060, Note_on_c, 5, 76, 76
11, 129113, Note_on_c, 5, 76, 0
11, 129120, Note_on_c, 5, 75, 76
11, 129134, Note_on_c, 5, 75, 0
11, 129135, Note_on_c, 5, 76, 76
11, 129149, Note_on_c, 5, 76, 0
11, 129150, Note_on_c, 5, 75, 76
11, 129164, Note_on_c, 5, 75, 0
11, 129165, Note_on_c, 5, 76, 76
11, 129179, Note_on_c, 5, 76, 0
11, 129180, Note_on_c, 5, 75, 76
11, 129194, Note_on_c, 5, 75, 0
11, 129195, Note_on_c, 5, 76, 76
11, 129209, Note_on_c, 5, 76, 0
11, 129210, Note_on_c, 5, 75, 76
11, 129224, Note_on_c, 5, 75, 0
11, 129225, Note_on_c, 5, 76, 76
11, 129239, Note_on_c, 5, 76, 0
11, 129240, Note_on_c, 5, 75, 76
11, 129254, Note_on_c, 5, 75, 0
11, 129255, Note_on_c, 5, 76, 76
11, 129269, Note_on_c, 5, 76, 0
11, 129270, Note_on_c, 5, 75, 76
11, 129284, Note_on_c, 5, 75, 0
11, 129285, Note_on_c, 5, 76, 76
11, 129299, Note_on_c, 5, 76, 0
11, 129300, Note_on_c, 5, 75, 76
11, 129314, Note_on_c, 5, 75, 0
11, 129315, Note_on_c, 5, 76, 76
11, 129329, Note_on_c, 5, 76, 0
11, 129330, Note_on_c, 5, 75, 76
11, 129344, Note_on_c, 5, 75, 0
11, 129345, Note_on_c, 5, 76, 76
11, 129359, Note_on_c, 5, 76, 0
11, 129360, Note_on_c, 5, 75, 76
11, 129374, Note_on_c, 5, 75, 0
11, 129375, Note_on_c, 5, 76, 76
11, 129389, Note_on_c, 5, 76, 0
11, 129390, Note_on_c, 5, 75, 76
11, 129404, Note_on_c, 5, 75, 0
11, 129405, Note_on_c, 5, 76, 76
11, 129419, Note_on_c, 5, 76, 0
11, 129420, Note_on_c, 5, 75, 76
11, 129434, Note_on_c, 5, 75, 0
11, 129435, Note_on_c, 5, 76, 76
11, 129449, Note_on_c, 5, 76, 0
11, 129450, Note_on_c, 5, 73, 76
11, 129464, Note_on_c, 5, 73, 0
11, 129465, Note_on_c, 5, 75, 76
11, 129479, Note_on_c, 5, 75, 0
11, 129480, Note_on_c, 5, 76, 76
11, 129587, Note_on_c, 5, 76, 0
11, 129600, Note_on_c, 5, 78, 76
11, 129893, Note_on_c, 5, 78, 0
11, 129900, Note_on_c, 5, 81, 76
11, 129953, Note_on_c, 5, 81, 0
11, 129960, Note_on_c, 5, 79, 76
11, 130013, Note_on_c, 5, 79, 0
11, 130020, Note_on_c, 5, 78, 76
11, 130073, Note_on_c, 5, 78, 0
11, 130080, Note_on_c, 5, 83, 76
11, 130253, Note_on_c, 5, 83, 0
11, 130260, Note_on_c, 5, 81, 76
11, 130313, Note_on_c, 5, 81, 0
11, 130320, Note_on_c, 5, 79, 76
11, 130493, Note_on_c, 5, 79, 0
11, 130500, Note_on_c, 5, 78, 76
11, 130553, Note_on_c, 5, 78, 0
11, 130560, Note_on_c, 5, 79, 76
11, 130733, Note_on_c, 5, 79, 0
11, 130740, Note_on_c, 5, 78, 76
11, 130793, Note_on_c, 5, 78, 0
11, 130800, Note_on_c, 5, 76, 76
11, 130973, Note_on_c, 5, 76, 0
11, 130980, Note_on_c, 5, 78, 76
11, 131033, Note_on_c, 5, 78, 0
11, 131040, Note_on_c, 5, 78, 76
11, 131054, Note_on_c, 5, 78, 0
11, 131055, Note_on_c, 5, 79, 76
11, 131069, Note_on_c, 5, 79, 0
11, 131070, Note_on_c, 5, 78, 76
11, 131084, Note_on_c, 5, 78, 0
11, 131085, Note_on_c, 5, 79, 76
11, 131099, Note_on_c, 5, 79, 0
11, 131100, Note_on_c, 5, 78, 76
11, 131114, Note_on_c, 5, 78, 0
11, 131115, Note_on_c, 5, 79, 76
11, 131129, Note_on_c, 5, 79, 0
11, 131130, Note_on_c, 5, 78, 76
11, 131144, Note_on_c, 5, 78, 0
11, 131145, Note_on_c, 5, 79, 76
11, 131159, Note_on_c, 5, 79, 0
11, 131160, Note_on_c, 5, 78, 76
11, 131174, Note_on_c, 5, 78, 0
11, 131175, Note_on_c, 5, 79, 76
11, 131189, Note_on_c, 5, 79, 0
11, 131190, Note_on_c, 5, 78, 76
11, 131204, Note_on_c, 5, 78, 0
11, 131205, Note_on_c, 5, 79, 76
11, 131219, Note_on_c, 5, 79, 0
11, 131220, Note_on_c, 5, 78, 76
11, 131234, Note_on_c, 5, 78, 0
11, 131235, Note_on_c, 5, 79, 76
11, 131249, Note_on_c, 5, 79, 0
11, 131250, Note_on_c, 5, 78, 76
11, 131264, Note_on_c, 5, 78, 0
11, 131265, Note_on_c, 5, 79, 76
11, 131279, Note_on_c, 5, 79, 0
11, 131280, Note_on_c, 5, 78, 76
11, 131294, Note_on_c, 5, 78, 0
11, 131295, Note_on_c, 5, 79, 76
11, 131309, Note_on_c, 5, 79, 0
11, 131310, Note_on_c, 5, 78, 76
11, 131324, Note_on_c, 5, 78, 0
11, 131325, Note_on_c, 5, 79, 76
11, 131339, Note_on_c, 5, 79, 0
11, 131340, Note_on_c, 5, 78, 76
11, 131354, Note_on_c, 5, 78, 0
11, 131355, Note_on_c, 5, 79, 76
11, 131369, Note_on_c, 5, 79, 0
11, 131370, Note_on_c, 5, 76, 76
11, 131384, Note_on_c, 5, 76, 0
11, 131385, Note_on_c, 5, 78, 76
11, 131399, Note_on_c, 5, 78, 0
11, 131400, Note_on_c, 5, 76, 76
11, 131507, Note_on_c, 5, 76, 0
11, 131520, Note_on_c, 5, 76, 76
11, 131813, Note_on_c, 5, 76, 0
11, 131820, Note_on_c, 5, 76, 76
11, 131873, Note_on_c, 5, 76, 0
11, 131880, Note_on_c, 5, 74, 76
11, 131933, Note_on_c, 5, 74, 0
11, 131940, Note_on_c, 5, 73, 76
11, 131993, Note_on_c, 5, 73, 0
11, 132000, Note_on_c, 5, 74, 76
11, 132173, Note_on_c, 5, 74, 0
11, 132180, Note_on_c, 5, 83, 76
11, 132233, Note_on_c, 5, 83, 0
11, 132240, Note_on_c, 5, 76, 76
11, 132413, Note_on_c, 5, 76, 0
11, 132420, Note_on_c, 5, 74, 76
11, 132473, Note_on_c, 5, 74, 0
11, 132480, Note_on_c, 5, 73, 76
11, 132653, Note_on_c, 5, 73, 0
11, 132660, Note_on_c, 5, 69, 76
11, 132713, Note_on_c, 5, 69, 0
11, 132720, Note_on_c, 5, 73, 76
11, 132893, Note_on_c, 5, 73, 0
11, 132900, Note_on_c, 5, 76, 76
11, 132953, Note_on_c, 5, 76, 0
11, 132960, Note_on_c, 5, 81, 76
11, 133307, Note_on_c, 5, 81, 0
11, 133320, Note_on_c, 5, 81, 76
11, 133427, Note_on_c, 5, 81, 0
11, 133440, Note_on_c, 5, 81, 76
11, 133765, Note_on_c, 5, 81, 0
11, 133770, Note_on_c, 5, 71, 76
11, 133795, Note_on_c, 5, 71, 0
11, 133800, Note_on_c, 5, 73, 76
11, 133825, Note_on_c, 5, 73, 0
11, 133830, Note_on_c, 5, 74, 76
11, 133855, Note_on_c, 5, 74, 0
11, 133860, Note_on_c, 5, 76, 76
11, 133885, Note_on_c, 5, 76, 0
11, 133890, Note_on_c, 5, 78, 76
11, 133915, Note_on_c, 5, 78, 0
11, 133920, Note_on_c, 5, 79, 76
11, 134267, Note_on_c, 5, 79, 0
11, 134280, Note_on_c, 5, 79, 76
11, 134387, Note_on_c, 5, 79, 0
11, 134400, Note_on_c, 5, 79, 76
11, 134725, Note_on_c, 5, 79, 0
11, 134730, Note_on_c, 5, 78, 76
11, 134755, Note_on_c, 5, 78, 0
11, 134760, Note_on_c, 5, 76, 76
11, 134785, Note_on_c, 5, 76, 0
11, 134790, Note_on_c, 5, 74, 76
11, 134815, Note_on_c, 5, 74, 0
11, 134820, Note_on_c, 5, 73, 76
11, 134845, Note_on_c, 5, 73, 0
11, 134850, Note_on_c, 5, 71, 76
11, 134875, Note_on_c, 5, 71, 0
11, 134880, Note_on_c, 5, 69, 76
11, 135053, Note_on_c, 5, 69, 0
11, 135060, Note_on_c, 5, 67, 76
11, 135085, Note_on_c, 5, 67, 0
11, 135090, Note_on_c, 5, 66, 76
11, 135115, Note_on_c, 5, 66, 0
11, 135120, Note_on_c, 5, 67, 76
11, 135293, Note_on_c, 5, 67, 0
11, 135300, Note_on_c, 5, 76, 76
11, 135353, Note_on_c, 5, 76, 0
11, 135360, Note_on_c, 5, 66, 76
11, 135653, Note_on_c, 5, 66, 0
11, 135660, Note_on_c, 5, 67, 76
11, 135713, Note_on_c, 5, 67, 0
11, 135720, Note_on_c, 5, 69, 76
11, 135773, Note_on_c, 5, 69, 0
11, 135780, Note_on_c, 5, 71, 76
11, 135833, Note_on_c, 5, 71, 0
11, 135840, Note_on_c, 5, 72, 76
11, 136187, Note_on_c, 5, 72, 0
11, 136200, Note_on_c, 5, 74, 76
11, 136307, Note_on_c, 5, 74, 0
11, 136320, Note_on_c, 5, 71, 76
11, 136613, Note_on_c, 5, 71, 0
11, 136620, Note_on_c, 5, 69, 76
11, 136673, Note_on_c, 5, 69, 0
11, 136680, Note_on_c, 5, 67, 76
11, 136733, Note_on_c, 5, 67, 0
11, 136740, Note_on_c, 5, 66, 76
11, 136793, Note_on_c, 5, 66, 0
11, 136800, Note_on_c, 5, 64, 76
11, 136853, Note_on_c, 5, 64, 0
11, 136860, Note_on_c, 5, 66, 76
11, 136913, Note_on_c, 5, 66, 0
11, 136920, Note_on_c, 5, 67, 76
11, 136973, Note_on_c, 5, 67, 0
11, 136980, Note_on_c, 5, 69, 76
11, 137033, Note_on_c, 5, 69, 0
11, 137040, Note_on_c, 5, 71, 76
11, 137093, Note_on_c, 5, 71, 0
11, 137100, Note_on_c, 5, 73, 76
11, 137153, Note_on_c, 5, 73, 0
11, 137160, Note_on_c, 5, 74, 76
11, 137213, Note_on_c, 5, 74, 0
11, 137220, Note_on_c, 5, 71, 76
11, 137273, Note_on_c, 5, 71, 0
11, 137280, Note_on_c, 5, 73, 76
11, 137333, Note_on_c, 5, 73, 0
11, 137340, Note_on_c, 5, 74, 76
11, 137393, Note_on_c, 5, 74, 0
11, 137400, Note_on_c, 5, 73, 76
11, 137453, Note_on_c, 5, 73, 0
11, 137460, Note_on_c, 5, 71, 76
11, 137513, Note_on_c, 5, 71, 0
11, 137520, Note_on_c, 5, 69, 76
11, 137573, Note_on_c, 5, 69, 0
11, 137580, Note_on_c, 5, 71, 76
11, 137633, Note_on_c, 5, 71, 0
11, 137640, Note_on_c, 5, 73, 76
11, 137693, Note_on_c, 5, 73, 0
11, 137700, Note_on_c, 5, 74, 76
11, 137753, Note_on_c, 5, 74, 0
11, 137760, Note_on_c, 5, 76, 76
11, 137813, Note_on_c, 5, 76, 0
11, 137820, Note_on_c, 5, 78, 76
11, 137873, Note_on_c, 5, 78, 0
11, 137880, Note_on_c, 5, 79, 76
11, 137933, Note_on_c, 5, 79, 0
11, 137940, Note_on_c, 5, 81, 76
11, 137993, Note_on_c, 5, 81, 0
11, 138000, Note_on_c, 5, 79, 76
11, 138053, Note_on_c, 5, 79, 0
11, 138060, Note_on_c, 5, 78, 76
11, 138113, Note_on_c, 5, 78, 0
11, 138120, Note_on_c, 5, 79, 76
11, 138173, Note_on_c, 5, 79, 0
11, 138180, Note_on_c, 5, 76, 76
11, 138233, Note_on_c, 5, 76, 0
11, 138240, Note_on_c, 5, 78, 76
11, 138413, Note_on_c, 5, 78, 0
11, 138420, Note_on_c, 5, 76, 76
11, 138435, Note_on_c, 5, 76, 0
11, 138440, Note_on_c, 5, 74, 76
11, 138455, Note_on_c, 5, 74, 0
11, 138460, Note_on_c, 5, 73, 76
11, 138475, Note_on_c, 5, 73, 0
11, 138480, Note_on_c, 5, 74, 76
11, 138653, Note_on_c, 5, 74, 0
11, 138660, Note_on_c, 5, 71, 76
11, 138713, Note_on_c, 5, 71, 0
11, 138720, Note_on_c, 5, 73, 76
11, 139067, Note_on_c, 5, 73, 0
11, 139080, Note_on_c, 5, 74, 76
11, 139187, Note_on_c, 5, 74, 0
11, 139200, Note_on_c, 5, 74, 76
11, 139439, Note_on_c, 5, 74, 0
11, 140760, Note_on_c, 5, 62, 76
11, 140807, Note_on_c, 5, 62, 0
11, 140820, Note_on_c, 5, 64, 76
11, 140867, Note_on_c, 5, 64, 0
11, 140880, Note_on_c, 5, 66, 76
11, 140984, Note_on_c, 5, 66, 0
11, 141000, Note_on_c, 5, 66, 76
11, 141047, Note_on_c, 5, 66, 0
11, 141060, Note_on_c, 5, 67, 76
11, 141107, Note_on_c, 5, 67, 0
11, 141120, Note_on_c, 5, 69, 76
11, 141224, Note_on_c, 5, 69, 0
11, 141240, Note_on_c, 5, 66, 76
11, 141287, Note_on_c, 5, 66, 0
11, 141300, Note_on_c, 5, 67, 76
11, 141347, Note_on_c, 5, 67, 0
11, 141360, Note_on_c, 5, 69, 76
11, 141464, Note_on_c, 5, 69, 0
11, 141480, Note_on_c, 5, 69, 76
11, 141527, Note_on_c, 5, 69, 0
11, 141540, Note_on_c, 5, 71, 76
11, 141587, Note_on_c, 5, 71, 0
11, 141600, Note_on_c, 5, 72, 76
11, 141704, Note_on_c, 5, 72, 0
11, 141720, Note_on_c, 5, 72, 76
11, 141767, Note_on_c, 5, 72, 0
11, 141780, Note_on_c, 5, 71, 76
11, 141827, Note_on_c, 5, 71, 0
11, 141840, Note_on_c, 5, 72, 76
11, 141944, Note_on_c, 5, 72, 0
11, 141960, Note_on_c, 5, 74, 76
11, 142007, Note_on_c, 5, 74, 0
11, 142020, Note_on_c, 5, 72, 76
11, 142067, Note_on_c, 5, 72, 0
11, 142080, Note_on_c, 5, 71, 76
11, 142184, Note_on_c, 5, 71, 0
11, 142200, Note_on_c, 5, 67, 76
11, 142247, Note_on_c, 5, 67, 0
11, 142260, Note_on_c, 5, 69, 76
11, 142307, Note_on_c, 5, 69, 0
11, 142320, Note_on_c, 5, 71, 76
11, 142424, Note_on_c, 5, 71, 0
11, 142440, Note_on_c, 5, 71, 76
11, 142487, Note_on_c, 5, 71, 0
11, 142500, Note_on_c, 5, 73, 76
11, 142547, Note_on_c, 5, 73, 0
11, 142560, Note_on_c, 5, 74, 76
11, 142664, Note_on_c, 5, 74, 0
11, 142680, Note_on_c, 5, 74, 76
11, 142727, Note_on_c, 5, 74, 0
11, 142740, Note_on_c, 5, 73, 76
11, 142787, Note_on_c, 5, 73, 0
11, 142800, Note_on_c, 5, 74, 76
11, 142904, Note_on_c, 5, 74, 0
11, 142920, Note_on_c, 5, 76, 76
11, 142967, Note_on_c, 5, 76, 0
11, 142980, Note_on_c, 5, 74, 76
11, 143027, Note_on_c, 5, 74, 0
11, 143040, Note_on_c, 5, 73, 76
11, 143144, Note_on_c, 5, 73, 0
11, 143160, Note_on_c, 5, 76, 76
11, 143264, Note_on_c, 5, 76, 0
11, 143280, Note_on_c, 5, 69, 76
11, 143384, Note_on_c, 5, 69, 0
11, 143400, Note_on_c, 5, 73, 76
11, 143624, Note_on_c, 5, 73, 0
11, 143640, Note_on_c, 5, 76, 76
11, 143744, Note_on_c, 5, 76, 0
11, 143760, Note_on_c, 5, 67, 76
11, 143864, Note_on_c, 5, 67, 0
11, 143880, Note_on_c, 5, 73, 76
11, 144104, Note_on_c, 5, 73, 0
11, 144120, Note_on_c, 5, 76, 76
11, 144224, Note_on_c, 5, 76, 0
11, 144240, Note_on_c, 5, 69, 76
11, 144344, Note_on_c, 5, 69, 0
11, 144360, Note_on_c, 5, 73, 76
11, 144464, Note_on_c, 5, 73, 0
11, 144480, Note_on_c, 5, 74, 76
11, 144527, Note_on_c, 5, 74, 0
11, 144540, Note_on_c, 5, 69, 76
11, 144587, Note_on_c, 5, 69, 0
11, 144600, Note_on_c, 5, 66, 76
11, 144647, Note_on_c, 5, 66, 0
11, 144660, Note_on_c, 5, 67, 76
11, 144707, Note_on_c, 5, 67, 0
11, 144720, Note_on_c, 5, 69, 76
11, 144767, Note_on_c, 5, 69, 0
11, 144780, Note_on_c, 5, 71, 76
11, 144827, Note_on_c, 5, 71, 0
11, 144840, Note_on_c, 5, 69, 76
11, 144887, Note_on_c, 5, 69, 0
11, 144900, Note_on_c, 5, 71, 76
11, 144947, Note_on_c, 5, 71, 0
11, 144960, Note_on_c, 5, 72, 76
11, 145007, Note_on_c, 5, 72, 0
11, 145020, Note_on_c, 5, 69, 76
11, 145067, Note_on_c, 5, 69, 0
11, 145080, Note_on_c, 5, 62, 76
11, 145127, Note_on_c, 5, 62, 0
11, 145140, Note_on_c, 5, 64, 76
11, 145187, Note_on_c, 5, 64, 0
11, 145200, Note_on_c, 5, 66, 76
11, 145247, Note_on_c, 5, 66, 0
11, 145260, Note_on_c, 5, 67, 76
11, 145307, Note_on_c, 5, 67, 0
11, 145320, Note_on_c, 5, 66, 76
11, 145367, Note_on_c, 5, 66, 0
11, 145380, Note_on_c, 5, 67, 76
11, 145427, Note_on_c, 5, 67, 0
11, 145440, Note_on_c, 5, 69, 76
11, 145487, Note_on_c, 5, 69, 0
11, 145500, Note_on_c, 5, 67, 76
11, 145547, Note_on_c, 5, 67, 0
11, 145560, Note_on_c, 5, 66, 76
11, 145607, Note_on_c, 5, 66, 0
11, 145620, Note_on_c, 5, 67, 76
11, 145667, Note_on_c, 5, 67, 0
11, 145680, Note_on_c, 5, 69, 76
11, 145727, Note_on_c, 5, 69, 0
11, 145740, Note_on_c, 5, 67, 76
11, 145787, Note_on_c, 5, 67, 0
11, 145800, Note_on_c, 5, 66, 76
11, 145847, Note_on_c, 5, 66, 0
11, 145860, Note_on_c, 5, 64, 76
11, 145907, Note_on_c, 5, 64, 0
11, 145920, Note_on_c, 5, 62, 76
11, 146024, Note_on_c, 5, 62, 0
11, 146040, Note_on_c, 5, 71, 76
11, 146144, Note_on_c, 5, 71, 0
11, 146160, Note_on_c, 5, 64, 76
11, 146264, Note_on_c, 5, 64, 0
11, 146280, Note_on_c, 5, 68, 76
11, 146504, Note_on_c, 5, 68, 0
11, 146520, Note_on_c, 5, 71, 76
11, 146624, Note_on_c, 5, 71, 0
11, 146640, Note_on_c, 5, 62, 76
11, 146744, Note_on_c, 5, 62, 0
11, 146760, Note_on_c, 5, 68, 76
11, 146984, Note_on_c, 5, 68, 0
11, 147000, Note_on_c, 5, 71, 76
11, 147104, Note_on_c, 5, 71, 0
11, 147120, Note_on_c, 5, 64, 76
11, 147224, Note_on_c, 5, 64, 0
11, 147240, Note_on_c, 5, 68, 76
11, 147344, Note_on_c, 5, 68, 0
11, 147360, Note_on_c, 5, 69, 76
11, 147407, Note_on_c, 5, 69, 0
11, 147420, Note_on_c, 5, 81, 76
11, 147467, Note_on_c, 5, 81, 0
11, 147480, Note_on_c, 5, 73, 76
11, 147527, Note_on_c, 5, 73, 0
11, 147540, Note_on_c, 5, 74, 76
11, 147587, Note_on_c, 5, 74, 0
11, 147600, Note_on_c, 5, 76, 76
11, 147647, Note_on_c, 5, 76, 0
11, 147660, Note_on_c, 5, 78, 76
11, 147707, Note_on_c, 5, 78, 0
11, 147720, Note_on_c, 5, 76, 76
11, 147767, Note_on_c, 5, 76, 0
11, 147780, Note_on_c, 5, 78, 76
11, 147827, Note_on_c, 5, 78, 0
11, 147840, Note_on_c, 5, 79, 76
11, 147887, Note_on_c, 5, 79, 0
11, 147900, Note_on_c, 5, 76, 76
11, 147947, Note_on_c, 5, 76, 0
11, 147960, Note_on_c, 5, 69, 76
11, 148007, Note_on_c, 5, 69, 0
11, 148020, Note_on_c, 5, 71, 76
11, 148067, Note_on_c, 5, 71, 0
11, 148080, Note_on_c, 5, 73, 76
11, 148127, Note_on_c, 5, 73, 0
11, 148140, Note_on_c, 5, 74, 76
11, 148187, Note_on_c, 5, 74, 0
11, 148200, Note_on_c, 5, 73, 76
11, 148247, Note_on_c, 5, 73, 0
11, 148260, Note_on_c, 5, 74, 76
11, 148307, Note_on_c, 5, 74, 0
11, 148320, Note_on_c, 5, 76, 76
11, 148367, Note_on_c, 5, 76, 0
11, 148380, Note_on_c, 5, 74, 76
11, 148427, Note_on_c, 5, 74, 0
11, 148440, Note_on_c, 5, 73, 76
11, 148487, Note_on_c, 5, 73, 0
11, 148500, Note_on_c, 5, 74, 76
11, 148547, Note_on_c, 5, 74, 0
11, 148560, Note_on_c, 5, 76, 76
11, 148607, Note_on_c, 5, 76, 0
11, 148620, Note_on_c, 5, 74, 76
11, 148667, Note_on_c, 5, 74, 0
11, 148680, Note_on_c, 5, 73, 76
11, 148727, Note_on_c, 5, 73, 0
11, 148740, Note_on_c, 5, 71, 76
11, 148787, Note_on_c, 5, 71, 0
11, 148800, Note_on_c, 5, 69, 76
11, 148904, Note_on_c, 5, 69, 0
11, 148920, Note_on_c, 5, 66, 76
11, 149024, Note_on_c, 5, 66, 0
11, 149040, Note_on_c, 5, 71, 76
11, 149384, Note_on_c, 5, 71, 0
11, 149400, Note_on_c, 5, 70, 76
11, 149447, Note_on_c, 5, 70, 0
11, 149460, Note_on_c, 5, 71, 76
11, 149507, Note_on_c, 5, 71, 0
11, 149520, Note_on_c, 5, 73, 76
11, 149567, Note_on_c, 5, 73, 0
11, 149580, Note_on_c, 5, 71, 76
11, 149627, Note_on_c, 5, 71, 0
11, 149640, Note_on_c, 5, 70, 76
11, 149687, Note_on_c, 5, 70, 0
11, 149700, Note_on_c, 5, 68, 76
11, 149747, Note_on_c, 5, 68, 0
11, 149760, Note_on_c, 5, 66, 76
11, 149807, Note_on_c, 5, 66, 0
11, 149820, Note_on_c, 5, 78, 76
11, 149867, Note_on_c, 5, 78, 0
11, 149880, Note_on_c, 5, 71, 76
11, 149927, Note_on_c, 5, 71, 0
11, 149940, Note_on_c, 5, 73, 76
11, 149987, Note_on_c, 5, 73, 0
11, 150000, Note_on_c, 5, 74, 76
11, 150047, Note_on_c, 5, 74, 0
11, 150060, Note_on_c, 5, 76, 76
11, 150107, Note_on_c, 5, 76, 0
11, 150120, Note_on_c, 5, 74, 76
11, 150167, Note_on_c, 5, 74, 0
11, 150180, Note_on_c, 5, 76, 76
11, 150227, Note_on_c, 5, 76, 0
11, 150240, Note_on_c, 5, 78, 76
11, 150287, Note_on_c, 5, 78, 0
11, 150300, Note_on_c, 5, 81, 76
11, 150347, Note_on_c, 5, 81, 0
11, 150360, Note_on_c, 5, 74, 76
11, 150407, Note_on_c, 5, 74, 0
11, 150420, Note_on_c, 5, 76, 76
11, 150467, Note_on_c, 5, 76, 0
11, 150480, Note_on_c, 5, 78, 76
11, 150527, Note_on_c, 5, 78, 0
11, 150540, Note_on_c, 5, 79, 76
11, 150587, Note_on_c, 5, 79, 0
11, 150600, Note_on_c, 5, 78, 76
11, 150647, Note_on_c, 5, 78, 0
11, 150660, Note_on_c, 5, 79, 76
11, 150707, Note_on_c, 5, 79, 0
11, 150720, Note_on_c, 5, 81, 76
11, 150767, Note_on_c, 5, 81, 0
11, 150780, Note_on_c, 5, 79, 76
11, 150827, Note_on_c, 5, 79, 0
11, 150840, Note_on_c, 5, 78, 76
11, 150887, Note_on_c, 5, 78, 0
11, 150900, Note_on_c, 5, 79, 76
11, 150947, Note_on_c, 5, 79, 0
11, 150960, Note_on_c, 5, 81, 76
11, 151007, Note_on_c, 5, 81, 0
11, 151020, Note_on_c, 5, 79, 76
11, 151067, Note_on_c, 5, 79, 0
11, 151080, Note_on_c, 5, 78, 76
11, 151127, Note_on_c, 5, 78, 0
11, 151140, Note_on_c, 5, 76, 76
11, 151187, Note_on_c, 5, 76, 0
11, 151200, Note_on_c, 5, 74, 76
11, 151304, Note_on_c, 5, 74, 0
11, 151320, Note_on_c, 5, 71, 76
11, 151424, Note_on_c, 5, 71, 0
11, 151440, Note_on_c, 5, 76, 76
11, 151784, Note_on_c, 5, 76, 0
11, 151800, Note_on_c, 5, 69, 76
11, 151904, Note_on_c, 5, 69, 0
11, 151920, Note_on_c, 5, 74, 76
11, 152264, Note_on_c, 5, 74, 0
11, 152280, Note_on_c, 5, 73, 76
11, 152384, Note_on_c, 5, 73, 0
11, 152400, Note_on_c, 5, 74, 76
11, 152447, Note_on_c, 5, 74, 0
11, 152460, Note_on_c, 5, 73, 76
11, 152507, Note_on_c, 5, 73, 0
11, 152520, Note_on_c, 5, 71, 76
11, 152567, Note_on_c, 5, 71, 0
11, 152580, Note_on_c, 5, 74, 76
11, 152627, Note_on_c, 5, 74, 0
11, 152640, Note_on_c, 5, 73, 76
11, 152744, Note_on_c, 5, 73, 0
11, 152760, Note_on_c, 5, 76, 76
11, 152864, Note_on_c, 5, 76, 0
11, 152880, Note_on_c, 5, 69, 76
11, 152984, Note_on_c, 5, 69, 0
11, 153000, Note_on_c, 5, 73, 76
11, 153224, Note_on_c, 5, 73, 0
11, 153240, Note_on_c, 5, 76, 76
11, 153344, Note_on_c, 5, 76, 0
11, 153360, Note_on_c, 5, 67, 76
11, 153464, Note_on_c, 5, 67, 0
11, 153480, Note_on_c, 5, 73, 76
11, 153704, Note_on_c, 5, 73, 0
11, 153720, Note_on_c, 5, 76, 76
11, 153824, Note_on_c, 5, 76, 0
11, 153840, Note_on_c, 5, 69, 76
11, 153944, Note_on_c, 5, 69, 0
11, 153960, Note_on_c, 5, 73, 76
11, 154064, Note_on_c, 5, 73, 0
11, 154080, Note_on_c, 5, 74, 76
11, 154184, Note_on_c, 5, 74, 0
11, 154200, Note_on_c, 5, 69, 76
11, 154304, Note_on_c, 5, 69, 0
11, 154320, Note_on_c, 5, 74, 76
11, 154664, Note_on_c, 5, 74, 0
11, 154680, Note_on_c, 5, 73, 76
11, 154784, Note_on_c, 5, 73, 0
11, 154800, Note_on_c, 5, 76, 76
11, 154904, Note_on_c, 5, 76, 0
11, 154920, Note_on_c, 5, 73, 76
11, 155024, Note_on_c, 5, 73, 0
11, 155040, Note_on_c, 5, 74, 76
11, 155144, Note_on_c, 5, 74, 0
11, 155160, Note_on_c, 5, 69, 76
11, 155264, Note_on_c, 5, 69, 0
11, 155280, Note_on_c, 5, 62, 76
11, 155384, Note_on_c, 5, 62, 0
11, 155400, Note_on_c, 5, 67, 76
11, 155504, Note_on_c, 5, 67, 0
11, 155520, Note_on_c, 5, 64, 76
11, 155759, Note_on_c, 5, 64, 0
11, 155880, Note_on_c, 5, 73, 76
11, 155984, Note_on_c, 5, 73, 0
11, 156000, Note_on_c, 5, 74, 76
11, 156104, Note_on_c, 5, 74, 0
11, 156120, Note_on_c, 5, 71, 76
11, 156224, Note_on_c, 5, 71, 0
11, 156240, Note_on_c, 5, 69, 76
11, 156344, Note_on_c, 5, 69, 0
11, 156360, Note_on_c, 5, 69, 76
11, 156464, Note_on_c, 5, 69, 0
11, 156480, Note_on_c, 5, 69, 76
11, 156599, Note_on_c, 5, 69, 0
11, 165600, Note_on_c, 5, 69, 52
11, 166784, Note_on_c, 5, 69, 0
11, 166800, Note_on_c, 5, 66, 52
11, 167024, Note_on_c, 5, 66, 0
11, 167040, Note_on_c, 5, 68, 52
11, 168464, Note_on_c, 5, 68, 0
11, 168480, Note_on_c, 5, 67, 52
11, 169904, Note_on_c, 5, 67, 0
11, 169920, Note_on_c, 5, 66, 52
11, 170039, Note_on_c, 5, 66, 0
11, 171960, Note_on_c, 5, 76, 76
11, 172064, Note_on_c, 5, 76, 0
11, 172080, Note_on_c, 5, 69, 76
11, 172184, Note_on_c, 5, 69, 0
11, 172200, Note_on_c, 5, 73, 76
11, 172424, Note_on_c, 5, 73, 0
11, 172440, Note_on_c, 5, 76, 76
11, 172544, Note_on_c, 5, 76, 0
11, 172560, Note_on_c, 5, 67, 76
11, 172664, Note_on_c, 5, 67, 0
11, 172680, Note_on_c, 5, 73, 76
11, 172904, Note_on_c, 5, 73, 0
11, 172920, Note_on_c, 5, 76, 76
11, 173024, Note_on_c, 5, 76, 0
11, 173040, Note_on_c, 5, 69, 76
11, 173144, Note_on_c, 5, 69, 0
11, 173160, Note_on_c, 5, 73, 76
11, 173264, Note_on_c, 5, 73, 0
11, 173280, Note_on_c, 5, 74, 76
11, 173327, Note_on_c, 5, 74, 0
11, 173340, Note_on_c, 5, 73, 76
11, 173387, Note_on_c, 5, 73, 0
11, 173400, Note_on_c, 5, 74, 76
11, 173447, Note_on_c, 5, 74, 0
11, 173460, Note_on_c, 5, 76, 76
11, 173507, Note_on_c, 5, 76, 0
11, 173520, Note_on_c, 5, 78, 76
11, 173567, Note_on_c, 5, 78, 0
11, 173580, Note_on_c, 5, 79, 76
11, 173627, Note_on_c, 5, 79, 0
11, 173640, Note_on_c, 5, 78, 76
11, 173687, Note_on_c, 5, 78, 0
11, 173700, Note_on_c, 5, 79, 76
11, 173747, Note_on_c, 5, 79, 0
11, 173760, Note_on_c, 5, 81, 76
11, 173807, Note_on_c, 5, 81, 0
11, 173820, Note_on_c, 5, 78, 76
11, 173867, Note_on_c, 5, 78, 0
11, 173880, Note_on_c, 5, 71, 76
11, 173927, Note_on_c, 5, 71, 0
11, 173940, Note_on_c, 5, 73, 76
11, 173987, Note_on_c, 5, 73, 0
11, 174000, Note_on_c, 5, 75, 76
11, 174047, Note_on_c, 5, 75, 0
11, 174060, Note_on_c, 5, 76, 76
11, 174107, Note_on_c, 5, 76, 0
11, 174120, Note_on_c, 5, 75, 76
11, 174167, Note_on_c, 5, 75, 0
11, 174180, Note_on_c, 5, 76, 76
11, 174227, Note_on_c, 5, 76, 0
11, 174240, Note_on_c, 5, 78, 76
11, 174287, Note_on_c, 5, 78, 0
11, 174300, Note_on_c, 5, 76, 76
11, 174347, Note_on_c, 5, 76, 0
11, 174360, Note_on_c, 5, 75, 76
11, 174407, Note_on_c, 5, 75, 0
11, 174420, Note_on_c, 5, 76, 76
11, 174467, Note_on_c, 5, 76, 0
11, 174480, Note_on_c, 5, 78, 76
11, 174527, Note_on_c, 5, 78, 0
11, 174540, Note_on_c, 5, 76, 76
11, 174587, Note_on_c, 5, 76, 0
11, 174600, Note_on_c, 5, 75, 76
11, 174647, Note_on_c, 5, 75, 0
11, 174660, Note_on_c, 5, 73, 76
11, 174707, Note_on_c, 5, 73, 0
11, 174720, Note_on_c, 5, 71, 76
11, 174824, Note_on_c, 5, 71, 0
11, 174840, Note_on_c, 5, 76, 76
11, 174944, Note_on_c, 5, 76, 0
11, 174960, Note_on_c, 5, 76, 76
11, 175064, Note_on_c, 5, 76, 0
11, 175080, Note_on_c, 5, 76, 76
11, 175184, Note_on_c, 5, 76, 0
11, 175200, Note_on_c, 5, 76, 76
11, 175304, Note_on_c, 5, 76, 0
11, 175320, Note_on_c, 5, 76, 76
11, 175424, Note_on_c, 5, 76, 0
11, 175440, Note_on_c, 5, 76, 76
11, 175544, Note_on_c, 5, 76, 0
11, 175560, Note_on_c, 5, 76, 76
11, 175664, Note_on_c, 5, 76, 0
11, 175680, Note_on_c, 5, 76, 76
11, 175784, Note_on_c, 5, 76, 0
11, 175800, Note_on_c, 5, 76, 76
11, 175904, Note_on_c, 5, 76, 0
11, 175920, Note_on_c, 5, 76, 76
11, 176024, Note_on_c, 5, 76, 0
11, 176040, Note_on_c, 5, 71, 76
11, 176144, Note_on_c, 5, 71, 0
11, 176160, Note_on_c, 5, 69, 76
11, 176207, Note_on_c, 5, 69, 0
11, 176220, Note_on_c, 5, 68, 76
11, 176267, Note_on_c, 5, 68, 0
11, 176280, Note_on_c, 5, 69, 76
11, 176327, Note_on_c, 5, 69, 0
11, 176340, Note_on_c, 5, 71, 76
11, 176387, Note_on_c, 5, 71, 0
11, 176400, Note_on_c, 5, 69, 76
11, 176447, Note_on_c, 5, 69, 0
11, 176460, Note_on_c, 5, 68, 76
11, 176507, Note_on_c, 5, 68, 0
11, 176520, Note_on_c, 5, 66, 76
11, 176567, Note_on_c, 5, 66, 0
11, 176580, Note_on_c, 5, 69, 76
11, 176627, Note_on_c, 5, 69, 0
11, 176640, Note_on_c, 5, 68, 76
11, 176687, Note_on_c, 5, 68, 0
11, 176700, Note_on_c, 5, 69, 76
11, 176747, Note_on_c, 5, 69, 0
11, 176760, Note_on_c, 5, 68, 76
11, 176807, Note_on_c, 5, 68, 0
11, 176820, Note_on_c, 5, 66, 76
11, 176867, Note_on_c, 5, 66, 0
11, 176880, Note_on_c, 5, 65, 76
11, 176984, Note_on_c, 5, 65, 0
11, 177000, Note_on_c, 5, 68, 76
11, 177104, Note_on_c, 5, 68, 0
11, 177120, Note_on_c, 5, 69, 76
11, 177167, Note_on_c, 5, 69, 0
11, 177180, Note_on_c, 5, 73, 76
11, 177227, Note_on_c, 5, 73, 0
11, 177240, Note_on_c, 5, 66, 76
11, 177287, Note_on_c, 5, 66, 0
11, 177300, Note_on_c, 5, 68, 76
11, 177347, Note_on_c, 5, 68, 0
11, 177360, Note_on_c, 5, 69, 76
11, 177407, Note_on_c, 5, 69, 0
11, 177420, Note_on_c, 5, 71, 76
11, 177467, Note_on_c, 5, 71, 0
11, 177480, Note_on_c, 5, 69, 76
11, 177527, Note_on_c, 5, 69, 0
11, 177540, Note_on_c, 5, 71, 76
11, 177587, Note_on_c, 5, 71, 0
11, 177600, Note_on_c, 5, 73, 76
11, 177647, Note_on_c, 5, 73, 0
11, 177660, Note_on_c, 5, 76, 76
11, 177707, Note_on_c, 5, 76, 0
11, 177720, Note_on_c, 5, 69, 76
11, 177767, Note_on_c, 5, 69, 0
11, 177780, Note_on_c, 5, 71, 76
11, 177827, Note_on_c, 5, 71, 0
11, 177840, Note_on_c, 5, 73, 76
11, 177887, Note_on_c, 5, 73, 0
11, 177900, Note_on_c, 5, 74, 76
11, 177947, Note_on_c, 5, 74, 0
11, 177960, Note_on_c, 5, 73, 76
11, 178007, Note_on_c, 5, 73, 0
11, 178020, Note_on_c, 5, 74, 76
11, 178067, Note_on_c, 5, 74, 0
11, 178080, Note_on_c, 5, 76, 76
11, 178127, Note_on_c, 5, 76, 0
11, 178140, Note_on_c, 5, 74, 76
11, 178187, Note_on_c, 5, 74, 0
11, 178200, Note_on_c, 5, 73, 76
11, 178247, Note_on_c, 5, 73, 0
11, 178260, Note_on_c, 5, 74, 76
11, 178307, Note_on_c, 5, 74, 0
11, 178320, Note_on_c, 5, 76, 76
11, 178367, Note_on_c, 5, 76, 0
11, 178380, Note_on_c, 5, 74, 76
11, 178427, Note_on_c, 5, 74, 0
11, 178440, Note_on_c, 5, 73, 76
11, 178487, Note_on_c, 5, 73, 0
11, 178500, Note_on_c, 5, 71, 76
11, 178547, Note_on_c, 5, 71, 0
11, 178560, Note_on_c, 5, 69, 76
11, 178664, Note_on_c, 5, 69, 0
11, 178680, Note_on_c, 5, 66, 76
11, 178784, Note_on_c, 5, 66, 0
11, 178800, Note_on_c, 5, 71, 76
11, 179144, Note_on_c, 5, 71, 0
11, 179160, Note_on_c, 5, 76, 76
11, 179264, Note_on_c, 5, 76, 0
11, 179280, Note_on_c, 5, 70, 76
11, 179384, Note_on_c, 5, 70, 0
11, 179400, Note_on_c, 5, 66, 76
11, 179567, Note_on_c, 5, 66, 0
11, 179580, Note_on_c, 5, 67, 76
11, 179627, Note_on_c, 5, 67, 0
11, 179640, Note_on_c, 5, 64, 76
11, 179687, Note_on_c, 5, 64, 0
11, 179700, Note_on_c, 5, 66, 76
11, 179747, Note_on_c, 5, 66, 0
11, 179760, Note_on_c, 5, 67, 76
11, 179864, Note_on_c, 5, 67, 0
11, 179880, Note_on_c, 5, 64, 76
11, 179984, Note_on_c, 5, 64, 0
11, 180000, Note_on_c, 5, 73, 76
11, 180047, Note_on_c, 5, 73, 0
11, 180060, Note_on_c, 5, 78, 76
11, 180107, Note_on_c, 5, 78, 0
11, 180120, Note_on_c, 5, 70, 76
11, 180167, Note_on_c, 5, 70, 0
11, 180180, Note_on_c, 5, 71, 76
11, 180227, Note_on_c, 5, 71, 0
11, 180240, Note_on_c, 5, 73, 76
11, 180287, Note_on_c, 5, 73, 0
11, 180300, Note_on_c, 5, 74, 76
11, 180347, Note_on_c, 5, 74, 0
11, 180360, Note_on_c, 5, 73, 76
11, 180407, Note_on_c, 5, 73, 0
11, 180420, Note_on_c, 5, 74, 76
11, 180467, Note_on_c, 5, 74, 0
11, 180480, Note_on_c, 5, 76, 76
11, 180527, Note_on_c, 5, 76, 0
11, 180540, Note_on_c, 5, 73, 76
11, 180587, Note_on_c, 5, 73, 0
11, 180600, Note_on_c, 5, 66, 76
11, 180647, Note_on_c, 5, 66, 0
11, 180660, Note_on_c, 5, 68, 76
11, 180707, Note_on_c, 5, 68, 0
11, 180720, Note_on_c, 5, 70, 76
11, 180767, Note_on_c, 5, 70, 0
11, 180780, Note_on_c, 5, 71, 76
11, 180827, Note_on_c, 5, 71, 0
11, 180840, Note_on_c, 5, 70, 76
11, 180887, Note_on_c, 5, 70, 0
11, 180900, Note_on_c, 5, 71, 76
11, 180947, Note_on_c, 5, 71, 0
11, 180960, Note_on_c, 5, 73, 76
11, 181007, Note_on_c, 5, 73, 0
11, 181020, Note_on_c, 5, 71, 76
11, 181067, Note_on_c, 5, 71, 0
11, 181080, Note_on_c, 5, 70, 76
11, 181127, Note_on_c, 5, 70, 0
11, 181140, Note_on_c, 5, 71, 76
11, 181187, Note_on_c, 5, 71, 0
11, 181200, Note_on_c, 5, 73, 76
11, 181247, Note_on_c, 5, 73, 0
11, 181260, Note_on_c, 5, 76, 76
11, 181307, Note_on_c, 5, 76, 0
11, 181320, Note_on_c, 5, 74, 76
11, 181367, Note_on_c, 5, 74, 0
11, 181380, Note_on_c, 5, 73, 76
11, 181427, Note_on_c, 5, 73, 0
11, 181440, Note_on_c, 5, 71, 76
11, 181544, Note_on_c, 5, 71, 0
11, 181560, Note_on_c, 5, 66, 76
11, 181664, Note_on_c, 5, 66, 0
11, 181680, Note_on_c, 5, 71, 76
11, 182024, Note_on_c, 5, 71, 0
11, 182040, Note_on_c, 5, 64, 76
11, 182144, Note_on_c, 5, 64, 0
11, 182160, Note_on_c, 5, 61, 76
11, 182264, Note_on_c, 5, 61, 0
11, 182280, Note_on_c, 5, 70, 76
11, 182384, Note_on_c, 5, 70, 0
11, 182400, Note_on_c, 5, 71, 76
11, 182504, Note_on_c, 5, 71, 0
11, 182520, Note_on_c, 5, 71, 76
11, 182624, Note_on_c, 5, 71, 0
11, 182640, Note_on_c, 5, 71, 76
11, 182744, Note_on_c, 5, 71, 0
11, 182760, Note_on_c, 5, 67, 76
11, 182864, Note_on_c, 5, 67, 0
11, 182880, Note_on_c, 5, 66, 76
11, 183119, Note_on_c, 5, 66, 0
11, 183240, Note_on_c, 5, 73, 76
11, 183344, Note_on_c, 5, 73, 0
11, 183360, Note_on_c, 5, 71, 76
11, 183464, Note_on_c, 5, 71, 0
11, 183480, Note_on_c, 5, 70, 76
11, 183584, Note_on_c, 5, 70, 0
11, 183600, Note_on_c, 5, 66, 76
11, 183704, Note_on_c, 5, 66, 0
11, 183720, Note_on_c, 5, 66, 76
11, 183824, Note_on_c, 5, 66, 0
11, 183840, Note_on_c, 5, 62, 76
11, 183944, Note_on_c, 5, 62, 0
11, 183960, Note_on_c, 5, 67, 76
11, 184064, Note_on_c, 5, 67, 0
11, 184080, Note_on_c, 5, 66, 76
11, 184184, Note_on_c, 5, 66, 0
11, 184200, Note_on_c, 5, 66, 76
11, 184304, Note_on_c, 5, 66, 0
11, 184320, Note_on_c, 5, 66, 76
11, 184439, Note_on_c, 5, 66, 0
11, 189960, Note_on_c, 5, 76, 76
11, 190064, Note_on_c, 5, 76, 0
11, 190080, Note_on_c, 5, 74, 76
11, 190184, Note_on_c, 5, 74, 0
11, 190200, Note_on_c, 5, 69, 76
11, 190304, Note_on_c, 5, 69, 0
11, 190320, Note_on_c, 5, 71, 76
11, 190439, Note_on_c, 5, 71, 0
11, 190680, Note_on_c, 5, 71, 76
11, 190784, Note_on_c, 5, 71, 0
11, 190800, Note_on_c, 5, 69, 76
11, 190919, Note_on_c, 5, 69, 0
11, 191160, Note_on_c, 5, 69, 76
11, 191264, Note_on_c, 5, 69, 0
11, 191280, Note_on_c, 5, 67, 76
11, 191384, Note_on_c, 5, 67, 0
11, 191400, Note_on_c, 5, 71, 76
11, 191504, Note_on_c, 5, 71, 0
11, 191520, Note_on_c, 5, 69, 76
11, 191624, Note_on_c, 5, 69, 0
11, 191640, Note_on_c, 5, 73, 76
11, 191744, Note_on_c, 5, 73, 0
11, 191760, Note_on_c, 5, 69, 76
11, 191864, Note_on_c, 5, 69, 0
11, 191880, Note_on_c, 5, 74, 76
11, 191984, Note_on_c, 5, 74, 0
11, 192000, Note_on_c, 5, 73, 76
11, 192104, Note_on_c, 5, 73, 0
11, 192120, Note_on_c, 5, 76, 76
11, 192224, Note_on_c, 5, 76, 0
11, 192240, Note_on_c, 5, 74, 76
11, 192344, Note_on_c, 5, 74, 0
11, 192360, Note_on_c, 5, 66, 76
11, 192464, Note_on_c, 5, 66, 0
11, 192480, Note_on_c, 5, 69, 76
11, 192584, Note_on_c, 5, 69, 0
11, 192600, Note_on_c, 5, 73, 76
11, 192704, Note_on_c, 5, 73, 0
11, 192720, Note_on_c, 5, 76, 76
11, 192824, Note_on_c, 5, 76, 0
11, 192840, Note_on_c, 5, 81, 76
11, 192944, Note_on_c, 5, 81, 0
11, 192960, Note_on_c, 5, 78, 76
11, 193064, Note_on_c, 5, 78, 0
11, 193080, Note_on_c, 5, 74, 76
11, 193184, Note_on_c, 5, 74, 0
11, 193200, Note_on_c, 5, 71, 76
11, 193304, Note_on_c, 5, 71, 0
11, 193320, Note_on_c, 5, 80, 76
11, 193424, Note_on_c, 5, 80, 0
11, 193440, Note_on_c, 5, 81, 76
11, 193559, Note_on_c, 5, 81, 0
11, 193920, Note_on_c, 5, 69, 52
11, 195104, Note_on_c, 5, 69, 0
11, 195120, Note_on_c, 5, 66, 52
11, 195344, Note_on_c, 5, 66, 0
11, 195360, Note_on_c, 5, 68, 52
11, 196784, Note_on_c, 5, 68, 0
11, 196800, Note_on_c, 5, 67, 52
11, 197984, Note_on_c, 5, 67, 0
11, 198000, Note_on_c, 5, 64, 52
11, 198224, Note_on_c, 5, 64, 0
11, 198240, Note_on_c, 5, 66, 52
11, 199664, Note_on_c, 5, 66, 0
11, 199680, Note_on_c, 5, 62, 52
11, 199799, Note_on_c, 5, 62, 0
11, 201720, Note_on_c, 5, 76, 76
11, 201824, Note_on_c, 5, 76, 0
11, 201840, Note_on_c, 5, 69, 76
11, 201944, Note_on_c, 5, 69, 0
11, 201960, Note_on_c, 5, 73, 76
11, 202184, Note_on_c, 5, 73, 0
11, 202200, Note_on_c, 5, 76, 76
11, 202304, Note_on_c, 5, 76, 0
11, 202320, Note_on_c, 5, 67, 76
11, 202424, Note_on_c, 5, 67, 0
11, 202440, Note_on_c, 5, 73, 76
11, 202664, Note_on_c, 5, 73, 0
11, 202680, Note_on_c, 5, 76, 76
11, 202784, Note_on_c, 5, 76, 0
11, 202800, Note_on_c, 5, 69, 76
11, 202904, Note_on_c, 5, 69, 0
11, 202920, Note_on_c, 5, 73, 76
11, 203024, Note_on_c, 5, 73, 0
11, 203040, Note_on_c, 5, 74, 76
11, 203144, Note_on_c, 5, 74, 0
11, 203160, Note_on_c, 5, 62, 76
11, 203207, Note_on_c, 5, 62, 0
11, 203220, Note_on_c, 5, 64, 76
11, 203267, Note_on_c, 5, 64, 0
11, 203280, Note_on_c, 5, 66, 76
11, 203384, Note_on_c, 5, 66, 0
11, 203400, Note_on_c, 5, 66, 76
11, 203447, Note_on_c, 5, 66, 0
11, 203460, Note_on_c, 5, 67, 76
11, 203507, Note_on_c, 5, 67, 0
11, 203520, Note_on_c, 5, 69, 76
11, 203624, Note_on_c, 5, 69, 0
11, 203640, Note_on_c, 5, 66, 76
11, 203687, Note_on_c, 5, 66, 0
11, 203700, Note_on_c, 5, 67, 76
11, 203747, Note_on_c, 5, 67, 0
11, 203760, Note_on_c, 5, 69, 76
11, 203864, Note_on_c, 5, 69, 0
11, 203880, Note_on_c, 5, 69, 76
11, 203927, Note_on_c, 5, 69, 0
11, 203940, Note_on_c, 5, 71, 76
11, 203987, Note_on_c, 5, 71, 0
11, 204000, Note_on_c, 5, 72, 76
11, 204104, Note_on_c, 5, 72, 0
11, 204120, Note_on_c, 5, 72, 76
11, 204167, Note_on_c, 5, 72, 0
11, 204180, Note_on_c, 5, 71, 76
11, 204227, Note_on_c, 5, 71, 0
11, 204240, Note_on_c, 5, 72, 76
11, 204344, Note_on_c, 5, 72, 0
11, 204360, Note_on_c, 5, 74, 76
11, 204407, Note_on_c, 5, 74, 0
11, 204420, Note_on_c, 5, 72, 76
11, 204467, Note_on_c, 5, 72, 0
11, 204480, Note_on_c, 5, 71, 76
11, 204584, Note_on_c, 5, 71, 0
11, 204600, Note_on_c, 5, 67, 76
11, 204647, Note_on_c, 5, 67, 0
11, 204660, Note_on_c, 5, 69, 76
11, 204707, Note_on_c, 5, 69, 0
11, 204720, Note_on_c, 5, 71, 76
11, 204824, Note_on_c, 5, 71, 0
11, 204840, Note_on_c, 5, 71, 76
11, 204887, Note_on_c, 5, 71, 0
11, 204900, Note_on_c, 5, 73, 76
11, 204947, Note_on_c, 5, 73, 0
11, 204960, Note_on_c, 5, 74, 76
11, 205064, Note_on_c, 5, 74, 0
11, 205080, Note_on_c, 5, 74, 76
11, 205127, Note_on_c, 5, 74, 0
11, 205140, Note_on_c, 5, 73, 76
11, 205187, Note_on_c, 5, 73, 0
11, 205200, Note_on_c, 5, 74, 76
11, 205304, Note_on_c, 5, 74, 0
11, 205320, Note_on_c, 5, 76, 76
11, 205367, Note_on_c, 5, 76, 0
11, 205380, Note_on_c, 5, 74, 76
11, 205427, Note_on_c, 5, 74, 0
11, 205440, Note_on_c, 5, 73, 76
11, 205544, Note_on_c, 5, 73, 0
11, 205560, Note_on_c, 5, 76, 76
11, 205664, Note_on_c, 5, 76, 0
11, 205680, Note_on_c, 5, 69, 76
11, 205784, Note_on_c, 5, 69, 0
11, 205800, Note_on_c, 5, 73, 76
11, 206024, Note_on_c, 5, 73, 0
11, 206040, Note_on_c, 5, 76, 76
11, 206144, Note_on_c, 5, 76, 0
11, 206160, Note_on_c, 5, 67, 76
11, 206264, Note_on_c, 5, 67, 0
11, 206280, Note_on_c, 5, 73, 76
11, 206504, Note_on_c, 5, 73, 0
11, 206520, Note_on_c, 5, 76, 76
11, 206624, Note_on_c, 5, 76, 0
11, 206640, Note_on_c, 5, 69, 76
11, 206744, Note_on_c, 5, 69, 0
11, 206760, Note_on_c, 5, 73, 76
11, 206864, Note_on_c, 5, 73, 0
11, 206880, Note_on_c, 5, 74, 76
11, 206927, Note_on_c, 5, 74, 0
11, 206940, Note_on_c, 5, 69, 76
11, 206987, Note_on_c, 5, 69, 0
11, 207000, Note_on_c, 5, 66, 76
11, 207047, Note_on_c, 5, 66, 0
11, 207060, Note_on_c, 5, 67, 76
11, 207107, Note_on_c, 5, 67, 0
11, 207120, Note_on_c, 5, 69, 76
11, 207167, Note_on_c, 5, 69, 0
11, 207180, Note_on_c, 5, 71, 76
11, 207227, Note_on_c, 5, 71, 0
11, 207240, Note_on_c, 5, 69, 76
11, 207287, Note_on_c, 5, 69, 0
11, 207300, Note_on_c, 5, 71, 76
11, 207347, Note_on_c, 5, 71, 0
11, 207360, Note_on_c, 5, 72, 76
11, 207407, Note_on_c, 5, 72, 0
11, 207420, Note_on_c, 5, 69, 76
11, 207467, Note_on_c, 5, 69, 0
11, 207480, Note_on_c, 5, 62, 76
11, 207527, Note_on_c, 5, 62, 0
11, 207540, Note_on_c, 5, 64, 76
11, 207587, Note_on_c, 5, 64, 0
11, 207600, Note_on_c, 5, 66, 76
11, 207647, Note_on_c, 5, 66, 0
11, 207660, Note_on_c, 5, 67, 76
11, 207707, Note_on_c, 5, 67, 0
11, 207720, Note_on_c, 5, 66, 76
11, 207767, Note_on_c, 5, 66, 0
11, 207780, Note_on_c, 5, 67, 76
11, 207827, Note_on_c, 5, 67, 0
11, 207840, Note_on_c, 5, 69, 76
11, 207887, Note_on_c, 5, 69, 0
11, 207900, Note_on_c, 5, 67, 76
11, 207947, Note_on_c, 5, 67, 0
11, 207960, Note_on_c, 5, 66, 76
11, 208007, Note_on_c, 5, 66, 0
11, 208020, Note_on_c, 5, 67, 76
11, 208067, Note_on_c, 5, 67, 0
11, 208080, Note_on_c, 5, 69, 76
11, 208127, Note_on_c, 5, 69, 0
11, 208140, Note_on_c, 5, 67, 76
11, 208187, Note_on_c, 5, 67, 0
11, 208200, Note_on_c, 5, 66, 76
11, 208247, Note_on_c, 5, 66, 0
11, 208260, Note_on_c, 5, 64, 76
11, 208307, Note_on_c, 5, 64, 0
11, 208320, Note_on_c, 5, 62, 76
11, 208424, Note_on_c, 5, 62, 0
11, 208440, Note_on_c, 5, 71, 76
11, 208544, Note_on_c, 5, 71, 0
11, 208560, Note_on_c, 5, 64, 76
11, 208664, Note_on_c, 5, 64, 0
11, 208680, Note_on_c, 5, 68, 76
11, 208904, Note_on_c, 5, 68, 0
11, 208920, Note_on_c, 5, 71, 76
11, 209024, Note_on_c, 5, 71, 0
11, 209040, Note_on_c, 5, 62, 76
11, 209144, Note_on_c, 5, 62, 0
11, 209160, Note_on_c, 5, 68, 76
11, 209384, Note_on_c, 5, 68, 0
11, 209400, Note_on_c, 5, 71, 76
11, 209504, Note_on_c, 5, 71, 0
11, 209520, Note_on_c, 5, 64, 76
11, 209624, Note_on_c, 5, 64, 0
11, 209640, Note_on_c, 5, 68, 76
11, 209744, Note_on_c, 5, 68, 0
11, 209760, Note_on_c, 5, 69, 76
11, 209807, Note_on_c, 5, 69, 0
11, 209820, Note_on_c, 5, 81, 76
11, 209867, Note_on_c, 5, 81, 0
11, 209880, Note_on_c, 5, 73, 76
11, 209927, Note_on_c, 5, 73, 0
11, 209940, Note_on_c, 5, 74, 76
11, 209987, Note_on_c, 5, 74, 0
11, 210000, Note_on_c, 5, 76, 76
11, 210047, Note_on_c, 5, 76, 0
11, 210060, Note_on_c, 5, 78, 76
11, 210107, Note_on_c, 5, 78, 0
11, 210120, Note_on_c, 5, 76, 76
11, 210167, Note_on_c, 5, 76, 0
11, 210180, Note_on_c, 5, 78, 76
11, 210227, Note_on_c, 5, 78, 0
11, 210240, Note_on_c, 5, 79, 76
11, 210287, Note_on_c, 5, 79, 0
11, 210300, Note_on_c, 5, 76, 76
11, 210347, Note_on_c, 5, 76, 0
11, 210360, Note_on_c, 5, 69, 76
11, 210407, Note_on_c, 5, 69, 0
11, 210420, Note_on_c, 5, 71, 76
11, 210467, Note_on_c, 5, 71, 0
11, 210480, Note_on_c, 5, 73, 76
11, 210527, Note_on_c, 5, 73, 0
11, 210540, Note_on_c, 5, 74, 76
11, 210587, Note_on_c, 5, 74, 0
11, 210600, Note_on_c, 5, 73, 76
11, 210647, Note_on_c, 5, 73, 0
11, 210660, Note_on_c, 5, 74, 76
11, 210707, Note_on_c, 5, 74, 0
11, 210720, Note_on_c, 5, 76, 76
11, 210767, Note_on_c, 5, 76, 0
11, 210780, Note_on_c, 5, 74, 76
11, 210827, Note_on_c, 5, 74, 0
11, 210840, Note_on_c, 5, 73, 76
11, 210887, Note_on_c, 5, 73, 0
11, 210900, Note_on_c, 5, 74, 76
11, 210947, Note_on_c, 5, 74, 0
11, 210960, Note_on_c, 5, 76, 76
11, 211007, Note_on_c, 5, 76, 0
11, 211020, Note_on_c, 5, 74, 76
11, 211067, Note_on_c, 5, 74, 0
11, 211080, Note_on_c, 5, 73, 76
11, 211127, Note_on_c, 5, 73, 0
11, 211140, Note_on_c, 5, 71, 76
11, 211187, Note_on_c, 5, 71, 0
11, 211200, Note_on_c, 5, 69, 76
11, 211304, Note_on_c, 5, 69, 0
11, 211320, Note_on_c, 5, 66, 76
11, 211424, Note_on_c, 5, 66, 0
11, 211440, Note_on_c, 5, 71, 76
11, 211784, Note_on_c, 5, 71, 0
11, 211800, Note_on_c, 5, 70, 76
11, 211847, Note_on_c, 5, 70, 0
11, 211860, Note_on_c, 5, 71, 76
11, 211907, Note_on_c, 5, 71, 0
11, 211920, Note_on_c, 5, 73, 76
11, 211967, Note_on_c, 5, 73, 0
11, 211980, Note_on_c, 5, 71, 76
11, 212027, Note_on_c, 5, 71, 0
11, 212040, Note_on_c, 5, 70, 76
11, 212087, Note_on_c, 5, 70, 0
11, 212100, Note_on_c, 5, 68, 76
11, 212147, Note_on_c, 5, 68, 0
11, 212160, Note_on_c, 5, 66, 76
11, 212207, Note_on_c, 5, 66, 0
11, 212220, Note_on_c, 5, 78, 76
11, 212267, Note_on_c, 5, 78, 0
11, 212280, Note_on_c, 5, 71, 76
11, 212327, Note_on_c, 5, 71, 0
11, 212340, Note_on_c, 5, 73, 76
11, 212387, Note_on_c, 5, 73, 0
11, 212400, Note_on_c, 5, 74, 76
11, 212447, Note_on_c, 5, 74, 0
11, 212460, Note_on_c, 5, 76, 76
11, 212507, Note_on_c, 5, 76, 0
11, 212520, Note_on_c, 5, 74, 76
11, 212567, Note_on_c, 5, 74, 0
11, 212580, Note_on_c, 5, 76, 76
11, 212627, Note_on_c, 5, 76, 0
11, 212640, Note_on_c, 5, 78, 76
11, 212687, Note_on_c, 5, 78, 0
11, 212700, Note_on_c, 5, 81, 76
11, 212747, Note_on_c, 5, 81, 0
11, 212760, Note_on_c, 5, 74, 76
11, 212807, Note_on_c, 5, 74, 0
11, 212820, Note_on_c, 5, 76, 76
11, 212867, Note_on_c, 5, 76, 0
11, 212880, Note_on_c, 5, 78, 76
11, 212927, Note_on_c, 5, 78, 0
11, 212940, Note_on_c, 5, 79, 76
11, 212987, Note_on_c, 5, 79, 0
11, 213000, Note_on_c, 5, 78, 76
11, 213047, Note_on_c, 5, 78, 0
11, 213060, Note_on_c, 5, 79, 76
11, 213107, Note_on_c, 5, 79, 0
11, 213120, Note_on_c, 5, 81, 76
11, 213224, Note_on_c, 5, 81, 0
11, 213240, Note_on_c, 5, 79, 76
11, 213344, Note_on_c, 5, 79, 0
11, 213360, Note_on_c, 5, 78, 76
11, 213464, Note_on_c, 5, 78, 0
11, 213480, Note_on_c, 5, 76, 76
11, 213584, Note_on_c, 5, 76, 0
11, 213600, Note_on_c, 5, 74, 76
11, 213704, Note_on_c, 5, 74, 0
11, 213720, Note_on_c, 5, 71, 76
11, 213824, Note_on_c, 5, 71, 0
11, 213840, Note_on_c, 5, 76, 76
11, 214184, Note_on_c, 5, 76, 0
11, 214200, Note_on_c, 5, 69, 76
11, 214304, Note_on_c, 5, 69, 0
11, 214320, Note_on_c, 5, 74, 76
11, 214664, Note_on_c, 5, 74, 0
11, 214680, Note_on_c, 5, 73, 76
11, 214784, Note_on_c, 5, 73, 0
11, 214800, Note_on_c, 5, 74, 76
11, 214847, Note_on_c, 5, 74, 0
11, 214860, Note_on_c, 5, 73, 76
11, 214907, Note_on_c, 5, 73, 0
11, 214920, Note_on_c, 5, 71, 76
11, 214967, Note_on_c, 5, 71, 0
11, 214980, Note_on_c, 5, 74, 76
11, 215027, Note_on_c, 5, 74, 0
11, 215040, Note_on_c, 5, 73, 76
11, 215144, Note_on_c, 5, 73, 0
11, 215160, Note_on_c, 5, 76, 76
11, 215264, Note_on_c, 5, 76, 0
11, 215280, Note_on_c, 5, 69, 76
11, 215384, Note_on_c, 5, 69, 0
11, 215400, Note_on_c, 5, 73, 76
11, 215624, Note_on_c, 5, 73, 0
11, 215640, Note_on_c, 5, 76, 76
11, 215744, Note_on_c, 5, 76, 0
11, 215760, Note_on_c, 5, 67, 76
11, 215864, Note_on_c, 5, 67, 0
11, 215880, Note_on_c, 5, 73, 76
11, 216104, Note_on_c, 5, 73, 0
11, 216120, Note_on_c, 5, 76, 76
11, 216224, Note_on_c, 5, 76, 0
11, 216240, Note_on_c, 5, 69, 76
11, 216344, Note_on_c, 5, 69, 0
11, 216360, Note_on_c, 5, 73, 76
11, 216464, Note_on_c, 5, 73, 0
11, 216480, Note_on_c, 5, 74, 76
11, 216584, Note_on_c, 5, 74, 0
11, 216600, Note_on_c, 5, 69, 76
11, 216704, Note_on_c, 5, 69, 0
11, 216720, Note_on_c, 5, 74, 76
11, 217064, Note_on_c, 5, 74, 0
11, 217080, Note_on_c, 5, 73, 76
11, 217184, Note_on_c, 5, 73, 0
11, 217200, Note_on_c, 5, 76, 76
11, 217304, Note_on_c, 5, 76, 0
11, 217320, Note_on_c, 5, 73, 76
11, 217424, Note_on_c, 5, 73, 0
11, 217440, Note_on_c, 5, 74, 76
11, 217544, Note_on_c, 5, 74, 0
11, 217560, Note_on_c, 5, 69, 76
11, 217664, Note_on_c, 5, 69, 0
11, 217680, Note_on_c, 5, 62, 76
11, 217784, Note_on_c, 5, 62, 0
11, 217800, Note_on_c, 5, 74, 76
11, 217904, Note_on_c, 5, 74, 0
11, 217920, Note_on_c, 5, 64, 76
11, 218159, Note_on_c, 5, 64, 0
11, 218280, Note_on_c, 5, 73, 76
11, 218384, Note_on_c, 5, 73, 0
11, 218400, Note_on_c, 5, 74, 76
11, 218504, Note_on_c, 5, 74, 0
11, 218520, Note_on_c, 5, 71, 76
11, 218624, Note_on_c, 5, 71, 0
11, 218640, Note_on_c, 5, 69, 76
11, 218744, Note_on_c, 5, 69, 0
11, 218760, Note_on_c, 5, 69, 76
11, 218864, Note_on_c, 5, 69, 0
11, 218880, Note_on_c, 5, 69, 76
11, 219173, Note_on_c, 5, 69, 0
11, 219180, Note_on_c, 5, 76, 76
11, 219233, Note_on_c, 5, 76, 0
11, 219240, Note_on_c, 5, 78, 76
11, 219293, Note_on_c, 5, 78, 0
11, 219300, Note_on_c, 5, 74, 76
11, 219353, Note_on_c, 5, 74, 0
11, 219360, Note_on_c, 5, 69, 76
11, 219653, Note_on_c, 5, 69, 0
11, 219660, Note_on_c, 5, 71, 76
11, 219713, Note_on_c, 5, 71, 0
11, 219720, Note_on_c, 5, 72, 76
11, 219773, Note_on_c, 5, 72, 0
11, 219780, Note_on_c, 5, 69, 76
11, 219833, Note_on_c, 5, 69, 0
11, 219840, Note_on_c, 5, 66, 76
11, 220133, Note_on_c, 5, 66, 0
11, 220140, Note_on_c, 5, 67, 76
11, 220193, Note_on_c, 5, 67, 0
11, 220200, Note_on_c, 5, 69, 76
11, 220253, Note_on_c, 5, 69, 0
11, 220260, Note_on_c, 5, 66, 76
11, 220313, Note_on_c, 5, 66, 0
11, 220320, Note_on_c, 5, 62, 76
11, 220645, Note_on_c, 5, 62, 0
11, 220650, Note_on_c, 5, 64, 76
11, 220675, Note_on_c, 5, 64, 0
11, 220680, Note_on_c, 5, 66, 76
11, 220705, Note_on_c, 5, 66, 0
11, 220710, Note_on_c, 5, 67, 76
11, 220735, Note_on_c, 5, 67, 0
11, 220740, Note_on_c, 5, 69, 76
11, 220765, Note_on_c, 5, 69, 0
11, 220770, Note_on_c, 5, 71, 76
11, 220795, Note_on_c, 5, 71, 0
11, 220800, Note_on_c, 5, 72, 76
11, 220973, Note_on_c, 5, 72, 0
11, 220980, Note_on_c, 5, 72, 76
11, 221033, Note_on_c, 5, 72, 0
11, 221040, Note_on_c, 5, 74, 76
11, 221213, Note_on_c, 5, 74, 0
11, 221220, Note_on_c, 5, 76, 76
11, 221273, Note_on_c, 5, 76, 0
11, 221280, Note_on_c, 5, 74, 76
11, 221453, Note_on_c, 5, 74, 0
11, 221460, Note_on_c, 5, 72, 76
11, 221513, Note_on_c, 5, 72, 0
11, 221520, Note_on_c, 5, 71, 76
11, 221693, Note_on_c, 5, 71, 0
11, 221700, Note_on_c, 5, 69, 76
11, 221753, Note_on_c, 5, 69, 0
11, 221760, Note_on_c, 5, 71, 76
11, 221987, Note_on_c, 5, 71, 0
11, 222000, Note_on_c, 5, 67, 76
11, 222227, Note_on_c, 5, 67, 0
11, 222240, Note_on_c, 5, 71, 76
11, 222587, Note_on_c, 5, 71, 0
11, 222600, Note_on_c, 5, 73, 76
11, 222707, Note_on_c, 5, 73, 0
11, 222720, Note_on_c, 5, 74, 76
11, 223013, Note_on_c, 5, 74, 0
11, 223020, Note_on_c, 5, 73, 76
11, 223073, Note_on_c, 5, 73, 0
11, 223080, Note_on_c, 5, 74, 76
11, 223133, Note_on_c, 5, 74, 0
11, 223140, Note_on_c, 5, 76, 76
11, 223193, Note_on_c, 5, 76, 0
11, 223200, Note_on_c, 5, 75, 76
11, 223214, Note_on_c, 5, 75, 0
11, 223215, Note_on_c, 5, 76, 76
11, 223229, Note_on_c, 5, 76, 0
11, 223230, Note_on_c, 5, 75, 76
11, 223244, Note_on_c, 5, 75, 0
11, 223245, Note_on_c, 5, 76, 76
11, 223259, Note_on_c, 5, 76, 0
11, 223260, Note_on_c, 5, 75, 76
11, 223274, Note_on_c, 5, 75, 0
11, 223275, Note_on_c, 5, 76, 76
11, 223289, Note_on_c, 5, 76, 0
11, 223290, Note_on_c, 5, 75, 76
11, 223304, Note_on_c, 5, 75, 0
11, 223305, Note_on_c, 5, 76, 76
11, 223319, Note_on_c, 5, 76, 0
11, 223320, Note_on_c, 5, 75, 76
11, 223334, Note_on_c, 5, 75, 0
11, 223335, Note_on_c, 5, 76, 76
11, 223349, Note_on_c, 5, 76, 0
11, 223350, Note_on_c, 5, 75, 76
11, 223364, Note_on_c, 5, 75, 0
11, 223365, Note_on_c, 5, 76, 76
11, 223379, Note_on_c, 5, 76, 0
11, 223380, Note_on_c, 5, 75, 76
11, 223394, Note_on_c, 5, 75, 0
11, 223395, Note_on_c, 5, 76, 76
11, 223409, Note_on_c, 5, 76, 0
11, 223410, Note_on_c, 5, 75, 76
11, 223424, Note_on_c, 5, 75, 0
11, 223425, Note_on_c, 5, 76, 76
11, 223439, Note_on_c, 5, 76, 0
11, 223440, Note_on_c, 5, 75, 76
11, 223454, Note_on_c, 5, 75, 0
11, 223455, Note_on_c, 5, 76, 76
11, 223469, Note_on_c, 5, 76, 0
11, 223470, Note_on_c, 5, 75, 76
11, 223484, Note_on_c, 5, 75, 0
11, 223485, Note_on_c, 5, 76, 76
11, 223499, Note_on_c, 5, 76, 0
11, 223500, Note_on_c, 5, 75, 76
11, 223514, Note_on_c, 5, 75, 0
11, 223515, Note_on_c, 5, 76, 76
11, 223529, Note_on_c, 5, 76, 0
11, 223530, Note_on_c, 5, 73, 76
11, 223544, Note_on_c, 5, 73, 0
11, 223545, Note_on_c, 5, 75, 76
11, 223559, Note_on_c, 5, 75, 0
11, 223560, Note_on_c, 5, 76, 76
11, 223667, Note_on_c, 5, 76, 0
11, 223680, Note_on_c, 5, 78, 76
11, 223973, Note_on_c, 5, 78, 0
11, 223980, Note_on_c, 5, 81, 76
11, 224033, Note_on_c, 5, 81, 0
11, 224040, Note_on_c, 5, 79, 76
11, 224093, Note_on_c, 5, 79, 0
11, 224100, Note_on_c, 5, 78, 76
11, 224153, Note_on_c, 5, 78, 0
11, 224160, Note_on_c, 5, 83, 76
11, 224333, Note_on_c, 5, 83, 0
11, 224340, Note_on_c, 5, 81, 76
11, 224393, Note_on_c, 5, 81, 0
11, 224400, Note_on_c, 5, 79, 76
11, 224573, Note_on_c, 5, 79, 0
11, 224580, Note_on_c, 5, 78, 76
11, 224633, Note_on_c, 5, 78, 0
11, 224640, Note_on_c, 5, 79, 76
11, 224813, Note_on_c, 5, 79, 0
11, 224820, Note_on_c, 5, 78, 76
11, 224873, Note_on_c, 5, 78, 0
11, 224880, Note_on_c, 5, 76, 76
11, 225053, Note_on_c, 5, 76, 0
11, 225060, Note_on_c, 5, 78, 76
11, 225113, Note_on_c, 5, 78, 0
11, 225120, Note_on_c, 5, 78, 76
11, 225134, Note_on_c, 5, 78, 0
11, 225135, Note_on_c, 5, 79, 76
11, 225149, Note_on_c, 5, 79, 0
11, 225150, Note_on_c, 5, 78, 76
11, 225164, Note_on_c, 5, 78, 0
11, 225165, Note_on_c, 5, 79, 76
11, 225179, Note_on_c, 5, 79, 0
11, 225180, Note_on_c, 5, 78, 76
11, 225194, Note_on_c, 5, 78, 0
11, 225195, Note_on_c, 5, 79, 76
11, 225209, Note_on_c, 5, 79, 0
11, 225210, Note_on_c, 5, 78, 76
11, 225224, Note_on_c, 5, 78, 0
11, 225225, Note_on_c, 5, 79, 76
11, 225239, Note_on_c, 5, 79, 0
11, 225240, Note_on_c, 5, 78, 76
11, 225254, Note_on_c, 5, 78, 0
11, 225255, Note_on_c, 5, 79, 76
11, 225269, Note_on_c, 5, 79, 0
11, 225270, Note_on_c, 5, 78, 76
11, 225284, Note_on_c, 5, 78, 0
11, 225285, Note_on_c, 5, 79, 76
11, 225299, Note_on_c, 5, 79, 0
11, 225300, Note_on_c, 5, 78, 76
11, 225314, Note_on_c, 5, 78, 0
11, 225315, Note_on_c, 5, 79, 76
11, 225329, Note_on_c, 5, 79, 0
11, 225330, Note_on_c, 5, 78, 76
11, 225344, Note_on_c, 5, 78, 0
11, 225345, Note_on_c, 5, 79, 76
11, 225359, Note_on_c, 5, 79, 0
11, 225360, Note_on_c, 5, 78, 76
11, 225374, Note_on_c, 5, 78, 0
11, 225375, Note_on_c, 5, 79, 76
11, 225389, Note_on_c, 5, 79, 0
11, 225390, Note_on_c, 5, 78, 76
11, 225404, Note_on_c, 5, 78, 0
11, 225405, Note_on_c, 5, 79, 76
11, 225419, Note_on_c, 5, 79, 0
11, 225420, Note_on_c, 5, 78, 76
11, 225434, Note_on_c, 5, 78, 0
11, 225435, Note_on_c, 5, 79, 76
11, 225449, Note_on_c, 5, 79, 0
11, 225450, Note_on_c, 5, 76, 76
11, 225464, Note_on_c, 5, 76, 0
11, 225465, Note_on_c, 5, 78, 76
11, 225479, Note_on_c, 5, 78, 0
11, 225480, Note_on_c, 5, 76, 76
11, 225587, Note_on_c, 5, 76, 0
11, 225600, Note_on_c, 5, 76, 76
11, 225893, Note_on_c, 5, 76, 0
11, 225900, Note_on_c, 5, 76, 76
11, 225953, Note_on_c, 5, 76, 0
11, 225960, Note_on_c, 5, 74, 76
11, 226013, Note_on_c, 5, 74, 0
11, 226020, Note_on_c, 5, 73, 76
11, 226073, Note_on_c, 5, 73, 0
11, 226080, Note_on_c, 5, 74, 76
11, 226253, Note_on_c, 5, 74, 0
11, 226260, Note_on_c, 5, 83, 76
11, 226313, Note_on_c, 5, 83, 0
11, 226320, Note_on_c, 5, 76, 76
11, 226493, Note_on_c, 5, 76, 0
11, 226500, Note_on_c, 5, 74, 76
11, 226553, Note_on_c, 5, 74, 0
11, 226560, Note_on_c, 5, 73, 76
11, 226733, Note_on_c, 5, 73, 0
11, 226740, Note_on_c, 5, 69, 76
11, 226793, Note_on_c, 5, 69, 0
11, 226800, Note_on_c, 5, 73, 76
11, 226973, Note_on_c, 5, 73, 0
11, 226980, Note_on_c, 5, 76, 76
11, 227033, Note_on_c, 5, 76, 0
11, 227040, Note_on_c, 5, 81, 76
11, 227387, Note_on_c, 5, 81, 0
11, 227400, Note_on_c, 5, 81, 76
11, 227507, Note_on_c, 5, 81, 0
11, 227520, Note_on_c, 5, 81, 76
11, 227845, Note_on_c, 5, 81, 0
11, 227850, Note_on_c, 5, 71, 76
11, 227875, Note_on_c, 5, 71, 0
11, 227880, Note_on_c, 5, 73, 76
11, 227905, Note_on_c, 5, 73, 0
11, 227910, Note_on_c, 5, 74, 76
11, 227935, Note_on_c, 5, 74, 0
11, 227940, Note_on_c, 5, 76, 76
11, 227965, Note_on_c, 5, 76, 0
11, 227970, Note_on_c, 5, 78, 76
11, 227995, Note_on_c, 5, 78, 0
11, 228000, Note_on_c, 5, 79, 76
11, 228347, Note_on_c, 5, 79, 0
11, 228360, Note_on_c, 5, 79, 76
11, 228467, Note_on_c, 5, 79, 0
11, 228480, Note_on_c, 5, 79, 76
11, 228805, Note_on_c, 5, 79, 0
11, 228810, Note_on_c, 5, 78, 76
11, 228835, Note_on_c, 5, 78, 0
11, 228840, Note_on_c, 5, 76, 76
11, 228865, Note_on_c, 5, 76, 0
11, 228870, Note_on_c, 5, 74, 76
11, 228895, Note_on_c, 5, 74, 0
11, 228900, Note_on_c, 5, 73, 76
11, 228925, Note_on_c, 5, 73, 0
11, 228930, Note_on_c, 5, 71, 76
11, 228955, Note_on_c, 5, 71, 0
11, 228960, Note_on_c, 5, 69, 76
11, 229133, Note_on_c, 5, 69, 0
11, 229140, Note_on_c, 5, 67, 76
11, 229165, Note_on_c, 5, 67, 0
11, 229170, Note_on_c, 5, 66, 76
11, 229195, Note_on_c, 5, 66, 0
11, 229200, Note_on_c, 5, 67, 76
11, 229373, Note_on_c, 5, 67, 0
11, 229380, Note_on_c, 5, 76, 76
11, 229433, Note_on_c, 5, 76, 0
11, 229440, Note_on_c, 5, 66, 76
11, 229733, Note_on_c, 5, 66, 0
11, 229740, Note_on_c, 5, 67, 76
11, 229793, Note_on_c, 5, 67, 0
11, 229800, Note_on_c, 5, 69, 76
11, 229853, Note_on_c, 5, 69, 0
11, 229860, Note_on_c, 5, 71, 76
11, 229913, Note_on_c, 5, 71, 0
11, 229920, Note_on_c, 5, 72, 76
11, 230267, Note_on_c, 5, 72, 0
11, 230280, Note_on_c, 5, 74, 76
11, 230387, Note_on_c, 5, 74, 0
11, 230400, Note_on_c, 5, 71, 76
11, 230693, Note_on_c, 5, 71, 0
11, 230700, Note_on_c, 5, 69, 76
11, 230753, Note_on_c, 5, 69, 0
11, 230760, Note_on_c, 5, 67, 76
11, 230813, Note_on_c, 5, 67, 0
11, 230820, Note_on_c, 5, 66, 76
11, 230873, Note_on_c, 5, 66, 0
11, 230880, Note_on_c, 5, 64, 76
11, 230933, Note_on_c, 5, 64, 0
11, 230940, Note_on_c, 5, 66, 76
11, 230993, Note_on_c, 5, 66, 0
11, 231000, Note_on_c, 5, 67, 76
11, 231053, Note_on_c, 5, 67, 0
11, 231060, Note_on_c, 5, 69, 76
11, 231113, Note_on_c, 5, 69, 0
11, 231120, Note_on_c, 5, 71, 76
11, 231173, Note_on_c, 5, 71, 0
11, 231180, Note_on_c, 5, 73, 76
11, 231233, Note_on_c, 5, 73, 0
11, 231240, Note_on_c, 5, 74, 76
11, 231293, Note_on_c, 5, 74, 0
11, 231300, Note_on_c, 5, 71, 76
11, 231353, Note_on_c, 5, 71, 0
11, 231360, Note_on_c, 5, 73, 76
11, 231413, Note_on_c, 5, 73, 0
11, 231420, Note_on_c, 5, 74, 76
11, 231473, Note_on_c, 5, 74, 0
11, 231480, Note_on_c, 5, 73, 76
11, 231533, Note_on_c, 5, 73, 0
11, 231540, Note_on_c, 5, 71, 76
11, 231593, Note_on_c, 5, 71, 0
11, 231600, Note_on_c, 5, 69, 76
11, 231653, Note_on_c, 5, 69, 0
11, 231660, Note_on_c, 5, 71, 76
11, 231713, Note_on_c, 5, 71, 0
11, 231720, Note_on_c, 5, 73, 76
11, 231773, Note_on_c, 5, 73, 0
11, 231780, Note_on_c, 5, 74, 76
11, 231833, Note_on_c, 5, 74, 0
11, 231840, Note_on_c, 5, 76, 76
11, 231893, Note_on_c, 5, 76, 0
11, 231900, Note_on_c, 5, 78, 76
11, 231953, Note_on_c, 5, 78, 0
11, 231960, Note_on_c, 5, 79, 76
11, 232013, Note_on_c, 5, 79, 0
11, 232020, Note_on_c, 5, 81, 76
11, 232073, Note_on_c, 5, 81, 0
11, 232080, Note_on_c, 5, 79, 76
11, 232133, Note_on_c, 5, 79, 0
11, 232140, Note_on_c, 5, 78, 76
11, 232193, Note_on_c, 5, 78, 0
11, 232200, Note_on_c, 5, 79, 76
11, 232253, Note_on_c, 5, 79, 0
11, 232260, Note_on_c, 5, 76, 76
11, 232313, Note_on_c, 5, 76, 0
11, 232320, Note_on_c, 5, 78, 76
11, 232493, Note_on_c, 5, 78, 0
11, 232500, Note_on_c, 5, 76, 76
11, 232515, Note_on_c, 5, 76, 0
11, 232520, Note_on_c, 5, 74, 76
11, 232535, Note_on_c, 5, 74, 0
11, 232540, Note_on_c, 5, 73, 76
11, 232555, Note_on_c, 5, 73, 0
11, 232560, Note_on_c, 5, 74, 76
11, 232733, Note_on_c, 5, 74, 0
11, 232740, Note_on_c, 5, 71, 76
11, 232793, Note_on_c, 5, 71, 0
11, 232800, Note_on_c, 5, 73, 76
11, 233147, Note_on_c, 5, 73, 0
11, 233160, Note_on_c, 5, 74, 76
11, 233267, Note_on_c, 5, 74, 0
11, 233280, Note_on_c, 5, 74, 76
11, 234239, Note_on_c, 5, 74, 0
11, 234239, End_track
12, 0, Start_track
12, 0, Title_t, "Violin I"
12, 0, MIDI_port, 0
12, 0, Program_c, 10, 48
12, 0, Control_c, 10, 10, 48
12, 0, Control_c, 10, 11, 127
12, 0, Control_c, 10, 7, 96
12, 0, Note_on_c, 10, 62, 76
12, 293, Note_on_c, 10, 62, 0
12, 300, Note_on_c, 10, 66, 76
12, 353, Note_on_c, 10, 66, 0
12, 360, Note_on_c, 10, 64, 76
12, 413, Note_on_c, 10, 64, 0
12, 420, Note_on_c, 10, 62, 76
12, 473, Note_on_c, 10, 62, 0
12, 480, Note_on_c, 10, 71, 76
12, 773, Note_on_c, 10, 71, 0
12, 780, Note_on_c, 10, 74, 76
12, 833, Note_on_c, 10, 74, 0
12, 840, Note_on_c, 10, 73, 76
12, 893, Note_on_c, 10, 73, 0
12, 900, Note_on_c, 10, 71, 76
12, 953, Note_on_c, 10, 71, 0
12, 960, Note_on_c, 10, 79, 76
12, 1253, Note_on_c, 10, 79, 0
12, 1260, Note_on_c, 10, 76, 76
12, 1313, Note_on_c, 10, 76, 0
12, 1320, Note_on_c, 10, 78, 76
12, 1373, Note_on_c, 10, 78, 0
12, 1380, Note_on_c, 10, 79, 76
12, 1433, Note_on_c, 10, 79, 0
12, 1440, Note_on_c, 10, 73, 76
12, 1733, Note_on_c, 10, 73, 0
12, 1740, Note_on_c, 10, 69, 76
12, 1793, Note_on_c, 10, 69, 0
12, 1800, Note_on_c, 10, 71, 76
12, 1853, Note_on_c, 10, 71, 0
12, 1860, Note_on_c, 10, 73, 76
12, 1913, Note_on_c, 10, 73, 0
12, 1920, Note_on_c, 10, 64, 76
12, 2267, Note_on_c, 10, 64, 0
12, 2280, Note_on_c, 10, 64, 76
12, 2387, Note_on_c, 10, 64, 0
12, 2400, Note_on_c, 10, 76, 76
12, 2573, Note_on_c, 10, 76, 0
12, 2580, Note_on_c, 10, 73, 76
12, 2633, Note_on_c, 10, 73, 0
12, 2640, Note_on_c, 10, 69, 76
12, 2813, Note_on_c, 10, 69, 0
12, 2820, Note_on_c, 10, 67, 76
12, 2873, Note_on_c, 10, 67, 0
12, 2880, Note_on_c, 10, 66, 76
12, 3053, Note_on_c, 10, 66, 0
12, 3060, Note_on_c, 10, 62, 76
12, 3113, Note_on_c, 10, 62, 0
12, 3120, Note_on_c, 10, 66, 76
12, 3293, Note_on_c, 10, 66, 0
12, 3300, Note_on_c, 10, 69, 76
12, 3353, Note_on_c, 10, 69, 0
12, 3360, Note_on_c, 10, 74, 76
12, 3533, Note_on_c, 10, 74, 0
12, 3540, Note_on_c, 10, 69, 76
12, 3593, Note_on_c, 10, 69, 0
12, 3600, Note_on_c, 10, 74, 76
12, 3773, Note_on_c, 10, 74, 0
12, 3780, Note_on_c, 10, 76, 76
12, 3833, Note_on_c, 10, 76, 0
12, 3840, Note_on_c, 10, 78, 76
12, 4133, Note_on_c, 10, 78, 0
12, 4140, Note_on_c, 10, 79, 76
12, 4193, Note_on_c, 10, 79, 0
12, 4200, Note_on_c, 10, 81, 76
12, 4253, Note_on_c, 10, 81, 0
12, 4260, Note_on_c, 10, 78, 76
12, 4313, Note_on_c, 10, 78, 0
12, 4320, Note_on_c, 10, 83, 76
12, 4613, Note_on_c, 10, 83, 0
12, 4620, Note_on_c, 10, 80, 76
12, 4673, Note_on_c, 10, 80, 0
12, 4680, Note_on_c, 10, 81, 76
12, 4733, Note_on_c, 10, 81, 0
12, 4740, Note_on_c, 10, 83, 76
12, 4793, Note_on_c, 10, 83, 0
12, 4800, Note_on_c, 10, 76, 76
12, 5093, Note_on_c, 10, 76, 0
12, 5100, Note_on_c, 10, 76, 76
12, 5153, Note_on_c, 10, 76, 0
12, 5160, Note_on_c, 10, 78, 76
12, 5213, Note_on_c, 10, 78, 0
12, 5220, Note_on_c, 10, 80, 76
12, 5273, Note_on_c, 10, 80, 0
12, 5280, Note_on_c, 10, 81, 76
12, 5453, Note_on_c, 10, 81, 0
12, 5460, Note_on_c, 10, 76, 76
12, 5513, Note_on_c, 10, 76, 0
12, 5520, Note_on_c, 10, 73, 76
12, 5693, Note_on_c, 10, 73, 0
12, 5700, Note_on_c, 10, 69, 76
12, 5753, Note_on_c, 10, 69, 0
12, 5760, Note_on_c, 10, 74, 76
12, 6107, Note_on_c, 10, 74, 0
12, 6120, Note_on_c, 10, 74, 76
12, 6227, Note_on_c, 10, 74, 0
12, 6240, Note_on_c, 10, 74, 76
12, 6413, Note_on_c, 10, 74, 0
12, 6420, Note_on_c, 10, 76, 76
12, 6445, Note_on_c, 10, 76, 0
12, 6450, Note_on_c, 10, 78, 76
12, 6475, Note_on_c, 10, 78, 0
12, 6480, Note_on_c, 10, 76, 76
12, 6653, Note_on_c, 10, 76, 0
12, 6660, Note_on_c, 10, 74, 76
12, 6713, Note_on_c, 10, 74, 0
12, 6720, Note_on_c, 10, 73, 76
12, 6893, Note_on_c, 10, 73, 0
12, 6900, Note_on_c, 10, 69, 76
12, 6953, Note_on_c, 10, 69, 0
12, 6960, Note_on_c, 10, 73, 76
12, 7133, Note_on_c, 10, 73, 0
12, 7140, Note_on_c, 10, 76, 76
12, 7193, Note_on_c, 10, 76, 0
12, 7200, Note_on_c, 10, 81, 76
12, 7373, Note_on_c, 10, 81, 0
12, 7380, Note_on_c, 10, 79, 76
12, 7405, Note_on_c, 10, 79, 0
12, 7410, Note_on_c, 10, 78, 76
12, 7435, Note_on_c, 10, 78, 0
12, 7440, Note_on_c, 10, 79, 76
12, 7613, Note_on_c, 10, 79, 0
12, 7620, Note_on_c, 10, 76, 76
12, 7673, Note_on_c, 10, 76, 0
12, 7680, Note_on_c, 10, 83, 76
12, 8027, Note_on_c, 10, 83, 0
12, 8040, Note_on_c, 10, 75, 76
12, 8147, Note_on_c, 10, 75, 0
12, 8160, Note_on_c, 10, 76, 76
12, 8333, Note_on_c, 10, 76, 0
12, 8340, Note_on_c, 10, 78, 76
12, 8393, Note_on_c, 10, 78, 0
12, 8400, Note_on_c, 10, 78, 76
12, 8414, Note_on_c, 10, 78, 0
12, 8415, Note_on_c, 10, 79, 76
12, 8429, Note_on_c, 10, 79, 0
12, 8430, Note_on_c, 10, 78, 76
12, 8444, Note_on_c, 10, 78, 0
12, 8445, Note_on_c, 10, 79, 76
12, 8459, Note_on_c, 10, 79, 0
12, 8460, Note_on_c, 10, 78, 76
12, 8474, Note_on_c, 10, 78, 0
12, 8475, Note_on_c, 10, 79, 76
12, 8489, Note_on_c, 10, 79, 0
12, 8490, Note_on_c, 10, 78, 76
12, 8504, Note_on_c, 10, 78, 0
12, 8505, Note_on_c, 10, 79, 76
12, 8519, Note_on_c, 10, 79, 0
12, 8520, Note_on_c, 10, 78, 76
12, 8534, Note_on_c, 10, 78, 0
12, 8535, Note_on_c, 10, 79, 76
12, 8549, Note_on_c, 10, 79, 0
12, 8550, Note_on_c, 10, 78, 76
12, 8564, Note_on_c, 10, 78, 0
12, 8565, Note_on_c, 10, 79, 76
12, 8579, Note_on_c, 10, 79, 0
12, 8580, Note_on_c, 10, 76, 76
12, 8605, Note_on_c, 10, 76, 0
12, 8610, Note_on_c, 10, 78, 76
12, 8635, Note_on_c, 10, 78, 0
12, 8640, Note_on_c, 10, 79, 76
12, 8933, Note_on_c, 10, 79, 0
12, 8940, Note_on_c, 10, 78, 76
12, 8993, Note_on_c, 10, 78, 0
12, 9000, Note_on_c, 10, 76, 76
12, 9053, Note_on_c, 10, 76, 0
12, 9060, Note_on_c, 10, 74, 76
12, 9113, Note_on_c, 10, 74, 0
12, 9120, Note_on_c, 10, 72, 76
12, 9293, Note_on_c, 10, 72, 0
12, 9300, Note_on_c, 10, 72, 76
12, 9353, Note_on_c, 10, 72, 0
12, 9360, Note_on_c, 10, 74, 76
12, 9533, Note_on_c, 10, 74, 0
12, 9540, Note_on_c, 10, 76, 76
12, 9593, Note_on_c, 10, 76, 0
12, 9600, Note_on_c, 10, 70, 76
12, 9947, Note_on_c, 10, 70, 0
12, 9960, Note_on_c, 10, 79, 76
12, 10067, Note_on_c, 10, 79, 0
12, 10080, Note_on_c, 10, 78, 76
12, 10253, Note_on_c, 10, 78, 0
12, 10260, Note_on_c, 10, 76, 76
12, 10313, Note_on_c, 10, 76, 0
12, 10320, Note_on_c, 10, 74, 76
12, 10493, Note_on_c, 10, 74, 0
12, 10500, Note_on_c, 10, 73, 76
12, 10553, Note_on_c, 10, 73, 0
12, 10560, Note_on_c, 10, 74, 76
12, 10733, Note_on_c, 10, 74, 0
12, 10740, Note_on_c, 10, 73, 76
12, 10793, Note_on_c, 10, 73, 0
12, 10800, Note_on_c, 10, 71, 76
12, 10973, Note_on_c, 10, 71, 0
12, 10980, Note_on_c, 10, 73, 76
12, 11033, Note_on_c, 10, 73, 0
12, 11040, Note_on_c, 10, 73, 76
12, 11387, Note_on_c, 10, 73, 0
12, 11400, Note_on_c, 10, 71, 76
12, 11507, Note_on_c, 10, 71, 0
12, 11520, Note_on_c, 10, 71, 76
12, 11813, Note_on_c, 10, 71, 0
12, 11820, Note_on_c, 10, 71, 76
12, 11873, Note_on_c, 10, 71, 0
12, 11880, Note_on_c, 10, 69, 76
12, 11933, Note_on_c, 10, 69, 0
12, 11940, Note_on_c, 10, 68, 76
12, 11993, Note_on_c, 10, 68, 0
12, 12000, Note_on_c, 10, 69, 76
12, 12173, Note_on_c, 10, 69, 0
12, 12180, Note_on_c, 10, 78, 76
12, 12233, Note_on_c, 10, 78, 0
12, 12240, Note_on_c, 10, 71, 76
12, 12413, Note_on_c, 10, 71, 0
12, 12420, Note_on_c, 10, 69, 76
12, 12473, Note_on_c, 10, 69, 0
12, 12480, Note_on_c, 10, 68, 76
12, 12653, Note_on_c, 10, 68, 0
12, 12660, Note_on_c, 10, 64, 76
12, 12713, Note_on_c, 10, 64, 0
12, 12720, Note_on_c, 10, 68, 76
12, 12893, Note_on_c, 10, 68, 0
12, 12900, Note_on_c, 10, 71, 76
12, 12953, Note_on_c, 10, 71, 0
12, 12960, Note_on_c, 10, 76, 76
12, 13307, Note_on_c, 10, 76, 0
12, 13320, Note_on_c, 10, 76, 76
12, 13427, Note_on_c, 10, 76, 0
12, 13440, Note_on_c, 10, 76, 76
12, 13733, Note_on_c, 10, 76, 0
12, 13740, Note_on_c, 10, 69, 76
12, 13793, Note_on_c, 10, 69, 0
12, 13800, Note_on_c, 10, 71, 76
12, 13853, Note_on_c, 10, 71, 0
12, 13860, Note_on_c, 10, 73, 76
12, 13913, Note_on_c, 10, 73, 0
12, 13920, Note_on_c, 10, 74, 76
12, 13973, Note_on_c, 10, 74, 0
12, 13980, Note_on_c, 10, 73, 76
12, 14033, Note_on_c, 10, 73, 0
12, 14040, Note_on_c, 10, 74, 76
12, 14093, Note_on_c, 10, 74, 0
12, 14100, Note_on_c, 10, 76, 76
12, 14153, Note_on_c, 10, 76, 0
12, 14160, Note_on_c, 10, 78, 76
12, 14213, Note_on_c, 10, 78, 0
12, 14220, Note_on_c, 10, 76, 76
12, 14273, Note_on_c, 10, 76, 0
12, 14280, Note_on_c, 10, 78, 76
12, 14333, Note_on_c, 10, 78, 0
12, 14340, Note_on_c, 10, 80, 76
12, 14393, Note_on_c, 10, 80, 0
12, 14400, Note_on_c, 10, 81, 76
12, 14459, Note_on_c, 10, 81, 0
12, 14460, Note_on_c, 10, 80, 76
12, 14633, Note_on_c, 10, 80, 0
12, 14640, Note_on_c, 10, 78, 76
12, 14699, Note_on_c, 10, 78, 0
12, 14700, Note_on_c, 10, 76, 76
12, 14873, Note_on_c, 10, 76, 0
12, 14880, Note_on_c, 10, 83, 76
12, 15227, Note_on_c, 10, 83, 0
12, 15240, Note_on_c, 10, 74, 76
12, 15347, Note_on_c, 10, 74, 0
12, 15360, Note_on_c, 10, 73, 76
12, 15707, Note_on_c, 10, 73, 0
12, 15720, Note_on_c, 10, 71, 76
12, 15827, Note_on_c, 10, 71, 0
12, 15840, Note_on_c, 10, 71, 76
12, 16187, Note_on_c, 10, 71, 0
12, 16200, Note_on_c, 10, 69, 76
12, 16307, Note_on_c, 10, 69, 0
12, 16320, Note_on_c, 10, 69, 76
12, 16613, Note_on_c, 10, 69, 0
12, 16620, Note_on_c, 10, 73, 76
12, 16673, Note_on_c, 10, 73, 0
12, 16680, Note_on_c, 10, 71, 76
12, 16733, Note_on_c, 10, 71, 0
12, 16740, Note_on_c, 10, 69, 76
12, 16793, Note_on_c, 10, 69, 0
12, 16800, Note_on_c, 10, 79, 76
12, 16973, Note_on_c, 10, 79, 0
12, 16980, Note_on_c, 10, 76, 76
12, 17033, Note_on_c, 10, 76, 0
12, 17040, Note_on_c, 10, 78, 76
12, 17213, Note_on_c, 10, 78, 0
12, 17220, Note_on_c, 10, 79, 76
12, 17273, Note_on_c, 10, 79, 0
12, 17280, Note_on_c, 10, 81, 76
12, 17627, Note_on_c, 10, 81, 0
12, 17640, Note_on_c, 10, 72, 76
12, 17747, Note_on_c, 10, 72, 0
12, 17760, Note_on_c, 10, 72, 76
12, 17774, Note_on_c, 10, 72, 0
12, 17775, Note_on_c, 10, 74, 76
12, 17789, Note_on_c, 10, 74, 0
12, 17790, Note_on_c, 10, 72, 76
12, 17804, Note_on_c, 10, 72, 0
12, 17805, Note_on_c, 10, 74, 76
12, 17819, Note_on_c, 10, 74, 0
12, 17820, Note_on_c, 10, 72, 76
12, 17834, Note_on_c, 10, 72, 0
12, 17835, Note_on_c, 10, 74, 76
12, 17849, Note_on_c, 10, 74, 0
12, 17850, Note_on_c, 10, 72, 76
12, 17864, Note_on_c, 10, 72, 0
12, 17865, Note_on_c, 10, 74, 76
12, 17879, Note_on_c, 10, 74, 0
12, 17880, Note_on_c, 10, 72, 76
12, 17894, Note_on_c, 10, 72, 0
12, 17895, Note_on_c, 10, 74, 76
12, 17909, Note_on_c, 10, 74, 0
12, 17910, Note_on_c, 10, 72, 76
12, 17924, Note_on_c, 10, 72, 0
12, 17925, Note_on_c, 10, 74, 76
12, 17939, Note_on_c, 10, 74, 0
12, 17940, Note_on_c, 10, 71, 76
12, 17965, Note_on_c, 10, 71, 0
12, 17970, Note_on_c, 10, 72, 76
12, 17995, Note_on_c, 10, 72, 0
12, 18000, Note_on_c, 10, 74, 76
12, 18173, Note_on_c, 10, 74, 0
12, 18180, Note_on_c, 10, 69, 76
12, 18233, Note_on_c, 10, 69, 0
12, 18240, Note_on_c, 10, 71, 76
12, 18533, Note_on_c, 10, 71, 0
12, 18540, Note_on_c, 10, 69, 76
12, 18593, Note_on_c, 10, 69, 0
12, 18600, Note_on_c, 10, 67, 76
12, 18653, Note_on_c, 10, 67, 0
12, 18660, Note_on_c, 10, 66, 76
12, 18713, Note_on_c, 10, 66, 0
12, 18720, Note_on_c, 10, 64, 76
12, 18773, Note_on_c, 10, 64, 0
12, 18780, Note_on_c, 10, 66, 76
12, 18833, Note_on_c, 10, 66, 0
12, 18840, Note_on_c, 10, 67, 76
12, 18893, Note_on_c, 10, 67, 0
12, 18900, Note_on_c, 10, 69, 76
12, 18953, Note_on_c, 10, 69, 0
12, 18960, Note_on_c, 10, 71, 76
12, 19013, Note_on_c, 10, 71, 0
12, 19020, Note_on_c, 10, 73, 76
12, 19073, Note_on_c, 10, 73, 0
12, 19080, Note_on_c, 10, 74, 76
12, 19133, Note_on_c, 10, 74, 0
12, 19140, Note_on_c, 10, 71, 76
12, 19193, Note_on_c, 10, 71, 0
12, 19200, Note_on_c, 10, 73, 76
12, 19253, Note_on_c, 10, 73, 0
12, 19260, Note_on_c, 10, 74, 76
12, 19313, Note_on_c, 10, 74, 0
12, 19320, Note_on_c, 10, 73, 76
12, 19373, Note_on_c, 10, 73, 0
12, 19380, Note_on_c, 10, 71, 76
12, 19433, Note_on_c, 10, 71, 0
12, 19440, Note_on_c, 10, 69, 76
12, 19493, Note_on_c, 10, 69, 0
12, 19500, Note_on_c, 10, 71, 76
12, 19553, Note_on_c, 10, 71, 0
12, 19560, Note_on_c, 10, 73, 76
12, 19613, Note_on_c, 10, 73, 0
12, 19620, Note_on_c, 10, 74, 76
12, 19673, Note_on_c, 10, 74, 0
12, 19680, Note_on_c, 10, 76, 76
12, 19733, Note_on_c, 10, 76, 0
12, 19740, Note_on_c, 10, 78, 76
12, 19793, Note_on_c, 10, 78, 0
12, 19800, Note_on_c, 10, 79, 76
12, 19853, Note_on_c, 10, 79, 0
12, 19860, Note_on_c, 10, 81, 76
12, 19913, Note_on_c, 10, 81, 0
12, 19920, Note_on_c, 10, 79, 76
12, 19973, Note_on_c, 10, 79, 0
12, 19980, Note_on_c, 10, 78, 76
12, 20033, Note_on_c, 10, 78, 0
12, 20040, Note_on_c, 10, 79, 76
12, 20093, Note_on_c, 10, 79, 0
12, 20100, Note_on_c, 10, 76, 76
12, 20153, Note_on_c, 10, 76, 0
12, 20160, Note_on_c, 10, 78, 76
12, 20333, Note_on_c, 10, 78, 0
12, 20340, Note_on_c, 10, 79, 76
12, 20393, Note_on_c, 10, 79, 0
12, 20400, Note_on_c, 10, 81, 76
12, 20573, Note_on_c, 10, 81, 0
12, 20580, Note_on_c, 10, 83, 76
12, 20633, Note_on_c, 10, 83, 0
12, 20640, Note_on_c, 10, 73, 76
12, 20813, Note_on_c, 10, 73, 0
12, 20820, Note_on_c, 10, 74, 76
12, 20873, Note_on_c, 10, 74, 0
12, 20880, Note_on_c, 10, 74, 76
12, 20894, Note_on_c, 10, 74, 0
12, 20895, Note_on_c, 10, 76, 74
12, 20909, Note_on_c, 10, 76, 0
12, 20910, Note_on_c, 10, 74, 77
12, 20924, Note_on_c, 10, 74, 0
12, 20925, Note_on_c, 10, 76, 78
12, 20939, Note_on_c, 10, 76, 0
12, 20940, Note_on_c, 10, 74, 77
12, 20954, Note_on_c, 10, 74, 0
12, 20955, Note_on_c, 10, 76, 76
12, 20969, Note_on_c, 10, 76, 0
12, 20970, Note_on_c, 10, 74, 74
12, 20984, Note_on_c, 10, 74, 0
12, 20985, Note_on_c, 10, 76, 78
12, 20999, Note_on_c, 10, 76, 0
12, 21000, Note_on_c, 10, 74, 73
12, 21014, Note_on_c, 10, 74, 0
12, 21015, Note_on_c, 10, 76, 72
12, 21029, Note_on_c, 10, 76, 0
12, 21030, Note_on_c, 10, 74, 77
12, 21044, Note_on_c, 10, 74, 0
12, 21045, Note_on_c, 10, 76, 76
12, 21059, Note_on_c, 10, 76, 0
12, 21060, Note_on_c, 10, 73, 76
12, 21085, Note_on_c, 10, 73, 0
12, 21090, Note_on_c, 10, 74, 76
12, 21115, Note_on_c, 10, 74, 0
12, 21120, Note_on_c, 10, 76, 76
12, 21293, Note_on_c, 10, 76, 0
12, 21300, Note_on_c, 10, 69, 76
12, 21353, Note_on_c, 10, 69, 0
12, 21360, Note_on_c, 10, 79, 76
12, 21533, Note_on_c, 10, 79, 0
12, 21540, Note_on_c, 10, 78, 76
12, 21559, Note_on_c, 10, 78, 0
12, 21560, Note_on_c, 10, 76, 76
12, 21579, Note_on_c, 10, 76, 0
12, 21580, Note_on_c, 10, 78, 76
12, 21599, Note_on_c, 10, 78, 0
12, 21600, Note_on_c, 10, 78, 76
12, 21614, Note_on_c, 10, 78, 0
12, 21615, Note_on_c, 10, 79, 78
12, 21629, Note_on_c, 10, 79, 0
12, 21630, Note_on_c, 10, 78, 72
12, 21644, Note_on_c, 10, 78, 0
12, 21645, Note_on_c, 10, 79, 78
12, 21659, Note_on_c, 10, 79, 0
12, 21660, Note_on_c, 10, 78, 76
12, 21674, Note_on_c, 10, 78, 0
12, 21675, Note_on_c, 10, 79, 74
12, 21689, Note_on_c, 10, 79, 0
12, 21690, Note_on_c, 10, 78, 72
12, 21704, Note_on_c, 10, 78, 0
12, 21705, Note_on_c, 10, 79, 76
12, 21719, Note_on_c, 10, 79, 0
12, 21720, Note_on_c, 10, 78, 73
12, 21734, Note_on_c, 10, 78, 0
12, 21735, Note_on_c, 10, 79, 74
12, 21749, Note_on_c, 10, 79, 0
12, 21750, Note_on_c, 10, 78, 78
12, 21764, Note_on_c, 10, 78, 0
12, 21765, Note_on_c, 10, 79, 76
12, 21779, Note_on_c, 10, 79, 0
12, 21780, Note_on_c, 10, 78, 76
12, 21794, Note_on_c, 10, 78, 0
12, 21795, Note_on_c, 10, 79, 72
12, 21809, Note_on_c, 10, 79, 0
12, 21810, Note_on_c, 10, 78, 75
12, 21824, Note_on_c, 10, 78, 0
12, 21825, Note_on_c, 10, 79, 75
12, 21839, Note_on_c, 10, 79, 0
12, 21840, Note_on_c, 10, 78, 75
12, 21854, Note_on_c, 10, 78, 0
12, 21855, Note_on_c, 10, 79, 77
12, 21869, Note_on_c, 10, 79, 0
12, 21870, Note_on_c, 10, 78, 76
12, 21884, Note_on_c, 10, 78, 0
12, 21885, Note_on_c, 10, 79, 75
12, 21899, Note_on_c, 10, 79, 0
12, 21900, Note_on_c, 10, 78, 76
12, 21914, Note_on_c, 10, 78, 0
12, 21915, Note_on_c, 10, 79, 76
12, 21929, Note_on_c, 10, 79, 0
12, 21930, Note_on_c, 10, 76, 76
12, 21944, Note_on_c, 10, 76, 0
12, 21945, Note_on_c, 10, 78, 75
12, 21959, Note_on_c, 10, 78, 0
12, 21960, Note_on_c, 10, 76, 76
12, 22067, Note_on_c, 10, 76, 0
12, 22080, Note_on_c, 10, 76, 76
12, 23027, Note_on_c, 10, 76, 0
12, 23040, Note_on_c, 10, 62, 76
12, 23333, Note_on_c, 10, 62, 0
12, 23340, Note_on_c, 10, 66, 76
12, 23393, Note_on_c, 10, 66, 0
12, 23400, Note_on_c, 10, 64, 76
12, 23453, Note_on_c, 10, 64, 0
12, 23460, Note_on_c, 10, 62, 76
12, 23513, Note_on_c, 10, 62, 0
12, 23520, Note_on_c, 10, 71, 76
12, 23813, Note_on_c, 10, 71, 0
12, 23820, Note_on_c, 10, 74, 76
12, 23873, Note_on_c, 10, 74, 0
12, 23880, Note_on_c, 10, 73, 76
12, 23933, Note_on_c, 10, 73, 0
12, 23940, Note_on_c, 10, 71, 76
12, 23993, Note_on_c, 10, 71, 0
12, 24000, Note_on_c, 10, 79, 76
12, 24293, Note_on_c, 10, 79, 0
12, 24300, Note_on_c, 10, 76, 76
12, 24353, Note_on_c, 10, 76, 0
12, 24360, Note_on_c, 10, 78, 76
12, 24413, Note_on_c, 10, 78, 0
12, 24420, Note_on_c, 10, 79, 76
12, 24473, Note_on_c, 10, 79, 0
12, 24480, Note_on_c, 10, 73, 76
12, 24773, Note_on_c, 10, 73, 0
12, 24780, Note_on_c, 10, 69, 76
12, 24833, Note_on_c, 10, 69, 0
12, 24840, Note_on_c, 10, 71, 76
12, 24893, Note_on_c, 10, 71, 0
12, 24900, Note_on_c, 10, 73, 76
12, 24953, Note_on_c, 10, 73, 0
12, 24960, Note_on_c, 10, 64, 76
12, 25307, Note_on_c, 10, 64, 0
12, 25320, Note_on_c, 10, 64, 76
12, 25427, Note_on_c, 10, 64, 0
12, 25440, Note_on_c, 10, 76, 76
12, 25613, Note_on_c, 10, 76, 0
12, 25620, Note_on_c, 10, 73, 76
12, 25673, Note_on_c, 10, 73, 0
12, 25680, Note_on_c, 10, 69, 76
12, 25853, Note_on_c, 10, 69, 0
12, 25860, Note_on_c, 10, 67, 76
12, 25913, Note_on_c, 10, 67, 0
12, 25920, Note_on_c, 10, 66, 76
12, 26093, Note_on_c, 10, 66, 0
12, 26100, Note_on_c, 10, 62, 76
12, 26153, Note_on_c, 10, 62, 0
12, 26160, Note_on_c, 10, 66, 76
12, 26333, Note_on_c, 10, 66, 0
12, 26340, Note_on_c, 10, 69, 76
12, 26393, Note_on_c, 10, 69, 0
12, 26400, Note_on_c, 10, 74, 76
12, 26573, Note_on_c, 10, 74, 0
12, 26580, Note_on_c, 10, 69, 76
12, 26633, Note_on_c, 10, 69, 0
12, 26640, Note_on_c, 10, 74, 76
12, 26813, Note_on_c, 10, 74, 0
12, 26820, Note_on_c, 10, 76, 76
12, 26873, Note_on_c, 10, 76, 0
12, 26880, Note_on_c, 10, 78, 76
12, 27173, Note_on_c, 10, 78, 0
12, 27180, Note_on_c, 10, 79, 76
12, 27233, Note_on_c, 10, 79, 0
12, 27240, Note_on_c, 10, 81, 76
12, 27293, Note_on_c, 10, 81, 0
12, 27300, Note_on_c, 10, 78, 76
12, 27353, Note_on_c, 10, 78, 0
12, 27360, Note_on_c, 10, 83, 76
12, 27653, Note_on_c, 10, 83, 0
12, 27660, Note_on_c, 10, 80, 76
12, 27713, Note_on_c, 10, 80, 0
12, 27720, Note_on_c, 10, 81, 76
12, 27773, Note_on_c, 10, 81, 0
12, 27780, Note_on_c, 10, 83, 76
12, 27833, Note_on_c, 10, 83, 0
12, 27840, Note_on_c, 10, 76, 76
12, 28133, Note_on_c, 10, 76, 0
12, 28140, Note_on_c, 10, 76, 76
12, 28193, Note_on_c, 10, 76, 0
12, 28200, Note_on_c, 10, 78, 76
12, 28253, Note_on_c, 10, 78, 0
12, 28260, Note_on_c, 10, 80, 76
12, 28313, Note_on_c, 10, 80, 0
12, 28320, Note_on_c, 10, 81, 76
12, 28493, Note_on_c, 10, 81, 0
12, 28500, Note_on_c, 10, 76, 76
12, 28553, Note_on_c, 10, 76, 0
12, 28560, Note_on_c, 10, 73, 76
12, 28733, Note_on_c, 10, 73, 0
12, 28740, Note_on_c, 10, 69, 76
12, 28793, Note_on_c, 10, 69, 0
12, 28800, Note_on_c, 10, 74, 76
12, 29147, Note_on_c, 10, 74, 0
12, 29160, Note_on_c, 10, 74, 76
12, 29267, Note_on_c, 10, 74, 0
12, 29280, Note_on_c, 10, 74, 76
12, 29453, Note_on_c, 10, 74, 0
12, 29460, Note_on_c, 10, 76, 76
12, 29485, Note_on_c, 10, 76, 0
12, 29490, Note_on_c, 10, 78, 76
12, 29515, Note_on_c, 10, 78, 0
12, 29520, Note_on_c, 10, 76, 76
12, 29693, Note_on_c, 10, 76, 0
12, 29700, Note_on_c, 10, 74, 76
12, 29753, Note_on_c, 10, 74, 0
12, 29760, Note_on_c, 10, 73, 76
12, 29933, Note_on_c, 10, 73, 0
12, 29940, Note_on_c, 10, 69, 76
12, 29993, Note_on_c, 10, 69, 0
12, 30000, Note_on_c, 10, 73, 76
12, 30173, Note_on_c, 10, 73, 0
12, 30180, Note_on_c, 10, 76, 76
12, 30233, Note_on_c, 10, 76, 0
12, 30240, Note_on_c, 10, 81, 76
12, 30413, Note_on_c, 10, 81, 0
12, 30420, Note_on_c, 10, 79, 76
12, 30445, Note_on_c, 10, 79, 0
12, 30450, Note_on_c, 10, 78, 76
12, 30475, Note_on_c, 10, 78, 0
12, 30480, Note_on_c, 10, 79, 76
12, 30653, Note_on_c, 10, 79, 0
12, 30660, Note_on_c, 10, 76, 76
12, 30713, Note_on_c, 10, 76, 0
12, 30720, Note_on_c, 10, 83, 76
12, 31067, Note_on_c, 10, 83, 0
12, 31080, Note_on_c, 10, 75, 76
12, 31187, Note_on_c, 10, 75, 0
12, 31200, Note_on_c, 10, 76, 76
12, 31373, Note_on_c, 10, 76, 0
12, 31380, Note_on_c, 10, 78, 76
12, 31433, Note_on_c, 10, 78, 0
12, 31440, Note_on_c, 10, 78, 76
12, 31454, Note_on_c, 10, 78, 0
12, 31455, Note_on_c, 10, 79, 76
12, 31469, Note_on_c, 10, 79, 0
12, 31470, Note_on_c, 10, 78, 76
12, 31484, Note_on_c, 10, 78, 0
12, 31485, Note_on_c, 10, 79, 76
12, 31499, Note_on_c, 10, 79, 0
12, 31500, Note_on_c, 10, 78, 76
12, 31514, Note_on_c, 10, 78, 0
12, 31515, Note_on_c, 10, 79, 76
12, 31529, Note_on_c, 10, 79, 0
12, 31530, Note_on_c, 10, 78, 76
12, 31544, Note_on_c, 10, 78, 0
12, 31545, Note_on_c, 10, 79, 76
12, 31559, Note_on_c, 10, 79, 0
12, 31560, Note_on_c, 10, 78, 76
12, 31574, Note_on_c, 10, 78, 0
12, 31575, Note_on_c, 10, 79, 76
12, 31589, Note_on_c, 10, 79, 0
12, 31590, Note_on_c, 10, 78, 76
12, 31604, Note_on_c, 10, 78, 0
12, 31605, Note_on_c, 10, 79, 76
12, 31619, Note_on_c, 10, 79, 0
12, 31620, Note_on_c, 10, 76, 76
12, 31645, Note_on_c, 10, 76, 0
12, 31650, Note_on_c, 10, 78, 76
12, 31675, Note_on_c, 10, 78, 0
12, 31680, Note_on_c, 10, 79, 76
12, 31973, Note_on_c, 10, 79, 0
12, 31980, Note_on_c, 10, 78, 76
12, 32033, Note_on_c, 10, 78, 0
12, 32040, Note_on_c, 10, 76, 76
12, 32093, Note_on_c, 10, 76, 0
12, 32100, Note_on_c, 10, 74, 76
12, 32153, Note_on_c, 10, 74, 0
12, 32160, Note_on_c, 10, 72, 76
12, 32333, Note_on_c, 10, 72, 0
12, 32340, Note_on_c, 10, 72, 76
12, 32393, Note_on_c, 10, 72, 0
12, 32400, Note_on_c, 10, 74, 76
12, 32573, Note_on_c, 10, 74, 0
12, 32580, Note_on_c, 10, 76, 76
12, 32633, Note_on_c, 10, 76, 0
12, 32640, Note_on_c, 10, 70, 76
12, 32987, Note_on_c, 10, 70, 0
12, 33000, Note_on_c, 10, 79, 76
12, 33107, Note_on_c, 10, 79, 0
12, 33120, Note_on_c, 10, 78, 76
12, 33293, Note_on_c, 10, 78, 0
12, 33300, Note_on_c, 10, 76, 76
12, 33353, Note_on_c, 10, 76, 0
12, 33360, Note_on_c, 10, 74, 76
12, 33533, Note_on_c, 10, 74, 0
12, 33540, Note_on_c, 10, 73, 76
12, 33593, Note_on_c, 10, 73, 0
12, 33600, Note_on_c, 10, 74, 76
12, 33773, Note_on_c, 10, 74, 0
12, 33780, Note_on_c, 10, 73, 76
12, 33833, Note_on_c, 10, 73, 0
12, 33840, Note_on_c, 10, 71, 76
12, 34013, Note_on_c, 10, 71, 0
12, 34020, Note_on_c, 10, 73, 76
12, 34073, Note_on_c, 10, 73, 0
12, 34080, Note_on_c, 10, 73, 76
12, 34427, Note_on_c, 10, 73, 0
12, 34440, Note_on_c, 10, 71, 76
12, 34547, Note_on_c, 10, 71, 0
12, 34560, Note_on_c, 10, 71, 76
12, 34853, Note_on_c, 10, 71, 0
12, 34860, Note_on_c, 10, 71, 76
12, 34913, Note_on_c, 10, 71, 0
12, 34920, Note_on_c, 10, 69, 76
12, 34973, Note_on_c, 10, 69, 0
12, 34980, Note_on_c, 10, 68, 76
12, 35033, Note_on_c, 10, 68, 0
12, 35040, Note_on_c, 10, 69, 76
12, 35213, Note_on_c, 10, 69, 0
12, 35220, Note_on_c, 10, 78, 76
12, 35273, Note_on_c, 10, 78, 0
12, 35280, Note_on_c, 10, 71, 76
12, 35453, Note_on_c, 10, 71, 0
12, 35460, Note_on_c, 10, 69, 76
12, 35513, Note_on_c, 10, 69, 0
12, 35520, Note_on_c, 10, 68, 76
12, 35693, Note_on_c, 10, 68, 0
12, 35700, Note_on_c, 10, 64, 76
12, 35753, Note_on_c, 10, 64, 0
12, 35760, Note_on_c, 10, 68, 76
12, 35933, Note_on_c, 10, 68, 0
12, 35940, Note_on_c, 10, 71, 76
12, 35993, Note_on_c, 10, 71, 0
12, 36000, Note_on_c, 10, 76, 76
12, 36347, Note_on_c, 10, 76, 0
12, 36360, Note_on_c, 10, 76, 76
12, 36467, Note_on_c, 10, 76, 0
12, 36480, Note_on_c, 10, 76, 76
12, 36773, Note_on_c, 10, 76, 0
12, 36780, Note_on_c, 10, 69, 76
12, 36833, Note_on_c, 10, 69, 0
12, 36840, Note_on_c, 10, 71, 76
12, 36893, Note_on_c, 10, 71, 0
12, 36900, Note_on_c, 10, 73, 76
12, 36953, Note_on_c, 10, 73, 0
12, 36960, Note_on_c, 10, 74, 76
12, 37013, Note_on_c, 10, 74, 0
12, 37020, Note_on_c, 10, 73, 76
12, 37073, Note_on_c, 10, 73, 0
12, 37080, Note_on_c, 10, 74, 76
12, 37133, Note_on_c, 10, 74, 0
12, 37140, Note_on_c, 10, 76, 76
12, 37193, Note_on_c, 10, 76, 0
12, 37200, Note_on_c, 10, 78, 76
12, 37253, Note_on_c, 10, 78, 0
12, 37260, Note_on_c, 10, 76, 76
12, 37313, Note_on_c, 10, 76, 0
12, 37320, Note_on_c, 10, 78, 76
12, 37373, Note_on_c, 10, 78, 0
12, 37380, Note_on_c, 10, 80, 76
12, 37433, Note_on_c, 10, 80, 0
12, 37440, Note_on_c, 10, 81, 76
12, 37499, Note_on_c, 10, 81, 0
12, 37500, Note_on_c, 10, 80, 76
12, 37673, Note_on_c, 10, 80, 0
12, 37680, Note_on_c, 10, 78, 76
12, 37739, Note_on_c, 10, 78, 0
12, 37740, Note_on_c, 10, 76, 76
12, 37913, Note_on_c, 10, 76, 0
12, 37920, Note_on_c, 10, 83, 76
12, 38267, Note_on_c, 10, 83, 0
12, 38280, Note_on_c, 10, 74, 76
12, 38387, Note_on_c, 10, 74, 0
12, 38400, Note_on_c, 10, 73, 76
12, 38747, Note_on_c, 10, 73, 0
12, 38760, Note_on_c, 10, 71, 76
12, 38867, Note_on_c, 10, 71, 0
12, 38880, Note_on_c, 10, 71, 76
12, 39227, Note_on_c, 10, 71, 0
12, 39240, Note_on_c, 10, 69, 76
12, 39347, Note_on_c, 10, 69, 0
12, 39360, Note_on_c, 10, 69, 76
12, 39653, Note_on_c, 10, 69, 0
12, 39660, Note_on_c, 10, 73, 76
12, 39713, Note_on_c, 10, 73, 0
12, 39720, Note_on_c, 10, 71, 76
12, 39773, Note_on_c, 10, 71, 0
12, 39780, Note_on_c, 10, 69, 76
12, 39833, Note_on_c, 10, 69, 0
12, 39840, Note_on_c, 10, 79, 76
12, 40013, Note_on_c, 10, 79, 0
12, 40020, Note_on_c, 10, 76, 76
12, 40073, Note_on_c, 10, 76, 0
12, 40080, Note_on_c, 10, 78, 76
12, 40253, Note_on_c, 10, 78, 0
12, 40260, Note_on_c, 10, 79, 76
12, 40313, Note_on_c, 10, 79, 0
12, 40320, Note_on_c, 10, 81, 76
12, 40667, Note_on_c, 10, 81, 0
12, 40680, Note_on_c, 10, 72, 76
12, 40787, Note_on_c, 10, 72, 0
12, 40800, Note_on_c, 10, 72, 76
12, 40814, Note_on_c, 10, 72, 0
12, 40815, Note_on_c, 10, 74, 76
12, 40829, Note_on_c, 10, 74, 0
12, 40830, Note_on_c, 10, 72, 76
12, 40844, Note_on_c, 10, 72, 0
12, 40845, Note_on_c, 10, 74, 76
12, 40859, Note_on_c, 10, 74, 0
12, 40860, Note_on_c, 10, 72, 76
12, 40874, Note_on_c, 10, 72, 0
12, 40875, Note_on_c, 10, 74, 76
12, 40889, Note_on_c, 10, 74, 0
12, 40890, Note_on_c, 10, 72, 76
12, 40904, Note_on_c, 10, 72, 0
12, 40905, Note_on_c, 10, 74, 76
12, 40919, Note_on_c, 10, 74, 0
12, 40920, Note_on_c, 10, 72, 76
12, 40934, Note_on_c, 10, 72, 0
12, 40935, Note_on_c, 10, 74, 76
12, 40949, Note_on_c, 10, 74, 0
12, 40950, Note_on_c, 10, 72, 76
12, 40964, Note_on_c, 10, 72, 0
12, 40965, Note_on_c, 10, 74, 76
12, 40979, Note_on_c, 10, 74, 0
12, 40980, Note_on_c, 10, 71, 76
12, 41005, Note_on_c, 10, 71, 0
12, 41010, Note_on_c, 10, 72, 76
12, 41035, Note_on_c, 10, 72, 0
12, 41040, Note_on_c, 10, 74, 76
12, 41213, Note_on_c, 10, 74, 0
12, 41220, Note_on_c, 10, 69, 76
12, 41273, Note_on_c, 10, 69, 0
12, 41280, Note_on_c, 10, 71, 76
12, 41573, Note_on_c, 10, 71, 0
12, 41580, Note_on_c, 10, 69, 76
12, 41633, Note_on_c, 10, 69, 0
12, 41640, Note_on_c, 10, 67, 76
12, 41693, Note_on_c, 10, 67, 0
12, 41700, Note_on_c, 10, 66, 76
12, 41753, Note_on_c, 10, 66, 0
12, 41760, Note_on_c, 10, 64, 76
12, 41813, Note_on_c, 10, 64, 0
12, 41820, Note_on_c, 10, 66, 76
12, 41873, Note_on_c, 10, 66, 0
12, 41880, Note_on_c, 10, 67, 76
12, 41933, Note_on_c, 10, 67, 0
12, 41940, Note_on_c, 10, 69, 76
12, 41993, Note_on_c, 10, 69, 0
12, 42000, Note_on_c, 10, 71, 76
12, 42053, Note_on_c, 10, 71, 0
12, 42060, Note_on_c, 10, 73, 76
12, 42113, Note_on_c, 10, 73, 0
12, 42120, Note_on_c, 10, 74, 76
12, 42173, Note_on_c, 10, 74, 0
12, 42180, Note_on_c, 10, 71, 76
12, 42233, Note_on_c, 10, 71, 0
12, 42240, Note_on_c, 10, 73, 76
12, 42293, Note_on_c, 10, 73, 0
12, 42300, Note_on_c, 10, 74, 76
12, 42353, Note_on_c, 10, 74, 0
12, 42360, Note_on_c, 10, 73, 76
12, 42413, Note_on_c, 10, 73, 0
12, 42420, Note_on_c, 10, 71, 76
12, 42473, Note_on_c, 10, 71, 0
12, 42480, Note_on_c, 10, 69, 76
12, 42533, Note_on_c, 10, 69, 0
12, 42540, Note_on_c, 10, 71, 76
12, 42593, Note_on_c, 10, 71, 0
12, 42600, Note_on_c, 10, 73, 76
12, 42653, Note_on_c, 10, 73, 0
12, 42660, Note_on_c, 10, 74, 76
12, 42713, Note_on_c, 10, 74, 0
12, 42720, Note_on_c, 10, 76, 76
12, 42773, Note_on_c, 10, 76, 0
12, 42780, Note_on_c, 10, 78, 76
12, 42833, Note_on_c, 10, 78, 0
12, 42840, Note_on_c, 10, 79, 76
12, 42893, Note_on_c, 10, 79, 0
12, 42900, Note_on_c, 10, 81, 76
12, 42953, Note_on_c, 10, 81, 0
12, 42960, Note_on_c, 10, 79, 76
12, 43013, Note_on_c, 10, 79, 0
12, 43020, Note_on_c, 10, 78, 76
12, 43073, Note_on_c, 10, 78, 0
12, 43080, Note_on_c, 10, 79, 76
12, 43133, Note_on_c, 10, 79, 0
12, 43140, Note_on_c, 10, 76, 76
12, 43193, Note_on_c, 10, 76, 0
12, 43200, Note_on_c, 10, 78, 76
12, 43373, Note_on_c, 10, 78, 0
12, 43380, Note_on_c, 10, 79, 76
12, 43433, Note_on_c, 10, 79, 0
12, 43440, Note_on_c, 10, 81, 76
12, 43613, Note_on_c, 10, 81, 0
12, 43620, Note_on_c, 10, 83, 76
12, 43673, Note_on_c, 10, 83, 0
12, 43680, Note_on_c, 10, 73, 76
12, 43853, Note_on_c, 10, 73, 0
12, 43860, Note_on_c, 10, 74, 76
12, 43913, Note_on_c, 10, 74, 0
12, 43920, Note_on_c, 10, 74, 76
12, 43934, Note_on_c, 10, 74, 0
12, 43935, Note_on_c, 10, 76, 74
12, 43949, Note_on_c, 10, 76, 0
12, 43950, Note_on_c, 10, 74, 77
12, 43964, Note_on_c, 10, 74, 0
12, 43965, Note_on_c, 10, 76, 78
12, 43979, Note_on_c, 10, 76, 0
12, 43980, Note_on_c, 10, 74, 77
12, 43994, Note_on_c, 10, 74, 0
12, 43995, Note_on_c, 10, 76, 76
12, 44009, Note_on_c, 10, 76, 0
12, 44010, Note_on_c, 10, 74, 74
12, 44024, Note_on_c, 10, 74, 0
12, 44025, Note_on_c, 10, 76, 78
12, 44039, Note_on_c, 10, 76, 0
12, 44040, Note_on_c, 10, 74, 73
12, 44054, Note_on_c, 10, 74, 0
12, 44055, Note_on_c, 10, 76, 72
12, 44069, Note_on_c, 10, 76, 0
12, 44070, Note_on_c, 10, 74, 77
12, 44084, Note_on_c, 10, 74, 0
12, 44085, Note_on_c, 10, 76, 76
12, 44099, Note_on_c, 10, 76, 0
12, 44100, Note_on_c, 10, 73, 76
12, 44125, Note_on_c, 10, 73, 0
12, 44130, Note_on_c, 10, 74, 76
12, 44155, Note_on_c, 10, 74, 0
12, 44160, Note_on_c, 10, 76, 76
12, 44333, Note_on_c, 10, 76, 0
12, 44340, Note_on_c, 10, 69, 76
12, 44393, Note_on_c, 10, 69, 0
12, 44400, Note_on_c, 10, 79, 76
12, 44573, Note_on_c, 10, 79, 0
12, 44580, Note_on_c, 10, 78, 76
12, 44599, Note_on_c, 10, 78, 0
12, 44600, Note_on_c, 10, 76, 76
12, 44619, Note_on_c, 10, 76, 0
12, 44620, Note_on_c, 10, 78, 76
12, 44639, Note_on_c, 10, 78, 0
12, 44640, Note_on_c, 10, 78, 76
12, 44654, Note_on_c, 10, 78, 0
12, 44655, Note_on_c, 10, 79, 78
12, 44669, Note_on_c, 10, 79, 0
12, 44670, Note_on_c, 10, 78, 72
12, 44684, Note_on_c, 10, 78, 0
12, 44685, Note_on_c, 10, 79, 78
12, 44699, Note_on_c, 10, 79, 0
12, 44700, Note_on_c, 10, 78, 76
12, 44714, Note_on_c, 10, 78, 0
12, 44715, Note_on_c, 10, 79, 74
12, 44729, Note_on_c, 10, 79, 0
12, 44730, Note_on_c, 10, 78, 72
12, 44744, Note_on_c, 10, 78, 0
12, 44745, Note_on_c, 10, 79, 76
12, 44759, Note_on_c, 10, 79, 0
12, 44760, Note_on_c, 10, 78, 73
12, 44774, Note_on_c, 10, 78, 0
12, 44775, Note_on_c, 10, 79, 74
12, 44789, Note_on_c, 10, 79, 0
12, 44790, Note_on_c, 10, 78, 78
12, 44804, Note_on_c, 10, 78, 0
12, 44805, Note_on_c, 10, 79, 76
12, 44819, Note_on_c, 10, 79, 0
12, 44820, Note_on_c, 10, 78, 76
12, 44834, Note_on_c, 10, 78, 0
12, 44835, Note_on_c, 10, 79, 72
12, 44849, Note_on_c, 10, 79, 0
12, 44850, Note_on_c, 10, 78, 75
12, 44864, Note_on_c, 10, 78, 0
12, 44865, Note_on_c, 10, 79, 75
12, 44879, Note_on_c, 10, 79, 0
12, 44880, Note_on_c, 10, 78, 75
12, 44894, Note_on_c, 10, 78, 0
12, 44895, Note_on_c, 10, 79, 77
12, 44909, Note_on_c, 10, 79, 0
12, 44910, Note_on_c, 10, 78, 76
12, 44924, Note_on_c, 10, 78, 0
12, 44925, Note_on_c, 10, 79, 75
12, 44939, Note_on_c, 10, 79, 0
12, 44940, Note_on_c, 10, 78, 76
12, 44954, Note_on_c, 10, 78, 0
12, 44955, Note_on_c, 10, 79, 76
12, 44969, Note_on_c, 10, 79, 0
12, 44970, Note_on_c, 10, 76, 76
12, 44984, Note_on_c, 10, 76, 0
12, 44985, Note_on_c, 10, 78, 75
12, 44999, Note_on_c, 10, 78, 0
12, 45000, Note_on_c, 10, 76, 76
12, 45107, Note_on_c, 10, 76, 0
12, 45120, Note_on_c, 10, 76, 76
12, 45224, Note_on_c, 10, 76, 0
12, 45240, Note_on_c, 10, 69, 76
12, 45291, Note_on_c, 10, 69, 0
12, 45300, Note_on_c, 10, 71, 76
12, 45351, Note_on_c, 10, 71, 0
12, 45360, Note_on_c, 10, 73, 76
12, 45464, Note_on_c, 10, 73, 0
12, 45480, Note_on_c, 10, 73, 76
12, 45531, Note_on_c, 10, 73, 0
12, 45540, Note_on_c, 10, 74, 76
12, 45591, Note_on_c, 10, 74, 0
12, 45600, Note_on_c, 10, 76, 76
12, 45704, Note_on_c, 10, 76, 0
12, 45720, Note_on_c, 10, 73, 76
12, 45771, Note_on_c, 10, 73, 0
12, 45780, Note_on_c, 10, 74, 76
12, 45831, Note_on_c, 10, 74, 0
12, 45840, Note_on_c, 10, 76, 76
12, 45944, Note_on_c, 10, 76, 0
12, 45960, Note_on_c, 10, 76, 76
12, 46011, Note_on_c, 10, 76, 0
12, 46020, Note_on_c, 10, 78, 76
12, 46071, Note_on_c, 10, 78, 0
12, 46080, Note_on_c, 10, 79, 76
12, 46184, Note_on_c, 10, 79, 0
12, 46200, Note_on_c, 10, 79, 76
12, 46247, Note_on_c, 10, 79, 0
12, 46260, Note_on_c, 10, 78, 76
12, 46307, Note_on_c, 10, 78, 0
12, 46320, Note_on_c, 10, 79, 76
12, 46424, Note_on_c, 10, 79, 0
12, 46440, Note_on_c, 10, 81, 76
12, 46487, Note_on_c, 10, 81, 0
12, 46500, Note_on_c, 10, 79, 76
12, 46547, Note_on_c, 10, 79, 0
12, 46560, Note_on_c, 10, 78, 76
12, 46664, Note_on_c, 10, 78, 0
12, 46680, Note_on_c, 10, 81, 76
12, 46784, Note_on_c, 10, 81, 0
12, 46800, Note_on_c, 10, 74, 76
12, 46904, Note_on_c, 10, 74, 0
12, 46920, Note_on_c, 10, 78, 76
12, 47144, Note_on_c, 10, 78, 0
12, 47160, Note_on_c, 10, 81, 76
12, 47264, Note_on_c, 10, 81, 0
12, 47280, Note_on_c, 10, 72, 76
12, 47384, Note_on_c, 10, 72, 0
12, 47400, Note_on_c, 10, 78, 76
12, 47624, Note_on_c, 10, 78, 0
12, 47640, Note_on_c, 10, 81, 76
12, 47744, Note_on_c, 10, 81, 0
12, 47760, Note_on_c, 10, 74, 76
12, 47864, Note_on_c, 10, 74, 0
12, 47880, Note_on_c, 10, 78, 76
12, 47984, Note_on_c, 10, 78, 0
12, 48000, Note_on_c, 10, 79, 76
12, 48104, Note_on_c, 10, 79, 0
12, 48120, Note_on_c, 10, 83, 76
12, 48224, Note_on_c, 10, 83, 0
12, 48240, Note_on_c, 10, 74, 76
12, 48344, Note_on_c, 10, 74, 0
12, 48360, Note_on_c, 10, 80, 76
12, 48584, Note_on_c, 10, 80, 0
12, 48600, Note_on_c, 10, 83, 76
12, 48704, Note_on_c, 10, 83, 0
12, 48720, Note_on_c, 10, 76, 76
12, 48824, Note_on_c, 10, 76, 0
12, 48840, Note_on_c, 10, 80, 76
12, 48944, Note_on_c, 10, 80, 0
12, 48960, Note_on_c, 10, 81, 76
12, 49007, Note_on_c, 10, 81, 0
12, 49020, Note_on_c, 10, 76, 76
12, 49067, Note_on_c, 10, 76, 0
12, 49080, Note_on_c, 10, 73, 76
12, 49127, Note_on_c, 10, 73, 0
12, 49140, Note_on_c, 10, 74, 76
12, 49187, Note_on_c, 10, 74, 0
12, 49200, Note_on_c, 10, 76, 76
12, 49247, Note_on_c, 10, 76, 0
12, 49260, Note_on_c, 10, 78, 76
12, 49307, Note_on_c, 10, 78, 0
12, 49320, Note_on_c, 10, 76, 76
12, 49367, Note_on_c, 10, 76, 0
12, 49380, Note_on_c, 10, 78, 76
12, 49427, Note_on_c, 10, 78, 0
12, 49440, Note_on_c, 10, 79, 76
12, 49487, Note_on_c, 10, 79, 0
12, 49500, Note_on_c, 10, 76, 76
12, 49547, Note_on_c, 10, 76, 0
12, 49560, Note_on_c, 10, 69, 76
12, 49607, Note_on_c, 10, 69, 0
12, 49620, Note_on_c, 10, 71, 76
12, 49667, Note_on_c, 10, 71, 0
12, 49680, Note_on_c, 10, 73, 76
12, 49727, Note_on_c, 10, 73, 0
12, 49740, Note_on_c, 10, 74, 76
12, 49787, Note_on_c, 10, 74, 0
12, 49800, Note_on_c, 10, 73, 76
12, 49847, Note_on_c, 10, 73, 0
12, 49860, Note_on_c, 10, 74, 76
12, 49907, Note_on_c, 10, 74, 0
12, 49920, Note_on_c, 10, 76, 76
12, 49967, Note_on_c, 10, 76, 0
12, 49980, Note_on_c, 10, 74, 76
12, 50027, Note_on_c, 10, 74, 0
12, 50040, Note_on_c, 10, 73, 76
12, 50087, Note_on_c, 10, 73, 0
12, 50100, Note_on_c, 10, 74, 76
12, 50147, Note_on_c, 10, 74, 0
12, 50160, Note_on_c, 10, 76, 76
12, 50207, Note_on_c, 10, 76, 0
12, 50220, Note_on_c, 10, 74, 76
12, 50267, Note_on_c, 10, 74, 0
12, 50280, Note_on_c, 10, 73, 76
12, 50327, Note_on_c, 10, 73, 0
12, 50340, Note_on_c, 10, 71, 76
12, 50387, Note_on_c, 10, 71, 0
12, 50400, Note_on_c, 10, 69, 76
12, 50447, Note_on_c, 10, 69, 0
12, 50460, Note_on_c, 10, 74, 76
12, 50507, Note_on_c, 10, 74, 0
12, 50520, Note_on_c, 10, 73, 76
12, 50567, Note_on_c, 10, 73, 0
12, 50580, Note_on_c, 10, 71, 76
12, 50627, Note_on_c, 10, 71, 0
12, 50640, Note_on_c, 10, 69, 76
12, 50687, Note_on_c, 10, 69, 0
12, 50700, Note_on_c, 10, 67, 76
12, 50747, Note_on_c, 10, 67, 0
12, 50760, Note_on_c, 10, 66, 76
12, 50807, Note_on_c, 10, 66, 0
12, 50820, Note_on_c, 10, 64, 76
12, 50867, Note_on_c, 10, 64, 0
12, 50880, Note_on_c, 10, 62, 76
12, 50984, Note_on_c, 10, 62, 0
12, 51000, Note_on_c, 10, 74, 76
12, 51104, Note_on_c, 10, 74, 0
12, 51120, Note_on_c, 10, 74, 76
12, 51224, Note_on_c, 10, 74, 0
12, 51240, Note_on_c, 10, 74, 76
12, 51344, Note_on_c, 10, 74, 0
12, 51360, Note_on_c, 10, 74, 76
12, 51464, Note_on_c, 10, 74, 0
12, 51480, Note_on_c, 10, 74, 76
12, 51584, Note_on_c, 10, 74, 0
12, 51600, Note_on_c, 10, 74, 76
12, 51704, Note_on_c, 10, 74, 0
12, 51720, Note_on_c, 10, 74, 76
12, 51824, Note_on_c, 10, 74, 0
12, 51840, Note_on_c, 10, 74, 76
12, 51944, Note_on_c, 10, 74, 0
12, 51960, Note_on_c, 10, 76, 76
12, 52064, Note_on_c, 10, 76, 0
12, 52080, Note_on_c, 10, 76, 76
12, 52184, Note_on_c, 10, 76, 0
12, 52200, Note_on_c, 10, 76, 76
12, 52304, Note_on_c, 10, 76, 0
12, 52320, Note_on_c, 10, 76, 76
12, 52424, Note_on_c, 10, 76, 0
12, 52440, Note_on_c, 10, 76, 76
12, 52544, Note_on_c, 10, 76, 0
12, 52560, Note_on_c, 10, 76, 76
12, 52664, Note_on_c, 10, 76, 0
12, 52680, Note_on_c, 10, 76, 76
12, 52784, Note_on_c, 10, 76, 0
12, 52800, Note_on_c, 10, 76, 76
12, 52904, Note_on_c, 10, 76, 0
12, 52920, Note_on_c, 10, 76, 76
12, 53024, Note_on_c, 10, 76, 0
12, 53040, Note_on_c, 10, 76, 76
12, 53144, Note_on_c, 10, 76, 0
12, 53160, Note_on_c, 10, 76, 76
12, 53264, Note_on_c, 10, 76, 0
12, 53280, Note_on_c, 10, 76, 76
12, 53384, Note_on_c, 10, 76, 0
12, 53400, Note_on_c, 10, 69, 76
12, 53447, Note_on_c, 10, 69, 0
12, 53460, Note_on_c, 10, 71, 76
12, 53507, Note_on_c, 10, 71, 0
12, 53520, Note_on_c, 10, 73, 76
12, 53624, Note_on_c, 10, 73, 0
12, 53640, Note_on_c, 10, 73, 76
12, 53687, Note_on_c, 10, 73, 0
12, 53700, Note_on_c, 10, 74, 76
12, 53747, Note_on_c, 10, 74, 0
12, 53760, Note_on_c, 10, 76, 76
12, 53864, Note_on_c, 10, 76, 0
12, 53880, Note_on_c, 10, 73, 76
12, 53927, Note_on_c, 10, 73, 0
12, 53940, Note_on_c, 10, 74, 76
12, 53987, Note_on_c, 10, 74, 0
12, 54000, Note_on_c, 10, 76, 76
12, 54104, Note_on_c, 10, 76, 0
12, 54120, Note_on_c, 10, 76, 76
12, 54167, Note_on_c, 10, 76, 0
12, 54180, Note_on_c, 10, 78, 76
12, 54227, Note_on_c, 10, 78, 0
12, 54240, Note_on_c, 10, 79, 76
12, 54344, Note_on_c, 10, 79, 0
12, 54360, Note_on_c, 10, 79, 76
12, 54407, Note_on_c, 10, 79, 0
12, 54420, Note_on_c, 10, 78, 76
12, 54467, Note_on_c, 10, 78, 0
12, 54480, Note_on_c, 10, 79, 76
12, 54584, Note_on_c, 10, 79, 0
12, 54600, Note_on_c, 10, 81, 76
12, 54647, Note_on_c, 10, 81, 0
12, 54660, Note_on_c, 10, 79, 76
12, 54707, Note_on_c, 10, 79, 0
12, 54720, Note_on_c, 10, 78, 76
12, 54824, Note_on_c, 10, 78, 0
12, 54840, Note_on_c, 10, 78, 76
12, 54887, Note_on_c, 10, 78, 0
12, 54900, Note_on_c, 10, 76, 76
12, 54947, Note_on_c, 10, 76, 0
12, 54960, Note_on_c, 10, 78, 76
12, 55064, Note_on_c, 10, 78, 0
12, 55080, Note_on_c, 10, 79, 76
12, 55127, Note_on_c, 10, 79, 0
12, 55140, Note_on_c, 10, 78, 76
12, 55187, Note_on_c, 10, 78, 0
12, 55200, Note_on_c, 10, 76, 76
12, 55304, Note_on_c, 10, 76, 0
12, 55320, Note_on_c, 10, 76, 76
12, 55367, Note_on_c, 10, 76, 0
12, 55380, Note_on_c, 10, 74, 76
12, 55427, Note_on_c, 10, 74, 0
12, 55440, Note_on_c, 10, 76, 76
12, 55544, Note_on_c, 10, 76, 0
12, 55560, Note_on_c, 10, 78, 76
12, 55607, Note_on_c, 10, 78, 0
12, 55620, Note_on_c, 10, 76, 76
12, 55667, Note_on_c, 10, 76, 0
12, 55680, Note_on_c, 10, 74, 76
12, 55784, Note_on_c, 10, 74, 0
12, 55800, Note_on_c, 10, 74, 76
12, 55847, Note_on_c, 10, 74, 0
12, 55860, Note_on_c, 10, 76, 76
12, 55907, Note_on_c, 10, 76, 0
12, 55920, Note_on_c, 10, 78, 76
12, 56024, Note_on_c, 10, 78, 0
12, 56040, Note_on_c, 10, 78, 76
12, 56087, Note_on_c, 10, 78, 0
12, 56100, Note_on_c, 10, 79, 76
12, 56147, Note_on_c, 10, 79, 0
12, 56160, Note_on_c, 10, 81, 76
12, 56264, Note_on_c, 10, 81, 0
12, 56280, Note_on_c, 10, 78, 76
12, 56327, Note_on_c, 10, 78, 0
12, 56340, Note_on_c, 10, 79, 76
12, 56387, Note_on_c, 10, 79, 0
12, 56400, Note_on_c, 10, 81, 76
12, 56504, Note_on_c, 10, 81, 0
12, 56520, Note_on_c, 10, 81, 76
12, 56567, Note_on_c, 10, 81, 0
12, 56580, Note_on_c, 10, 83, 76
12, 56627, Note_on_c, 10, 83, 0
12, 56640, Note_on_c, 10, 84, 76
12, 56744, Note_on_c, 10, 84, 0
12, 56760, Note_on_c, 10, 84, 76
12, 56807, Note_on_c, 10, 84, 0
12, 56820, Note_on_c, 10, 83, 76
12, 56867, Note_on_c, 10, 83, 0
12, 56880, Note_on_c, 10, 84, 76
12, 56984, Note_on_c, 10, 84, 0
12, 57000, Note_on_c, 10, 86, 76
12, 57047, Note_on_c, 10, 86, 0
12, 57060, Note_on_c, 10, 84, 76
12, 57107, Note_on_c, 10, 84, 0
12, 57120, Note_on_c, 10, 83, 76
12, 57167, Note_on_c, 10, 83, 0
12, 57180, Note_on_c, 10, 79, 76
12, 57227, Note_on_c, 10, 79, 0
12, 57240, Note_on_c, 10, 76, 76
12, 57287, Note_on_c, 10, 76, 0
12, 57300, Note_on_c, 10, 78, 76
12, 57347, Note_on_c, 10, 78, 0
12, 57360, Note_on_c, 10, 79, 76
12, 57407, Note_on_c, 10, 79, 0
12, 57420, Note_on_c, 10, 81, 76
12, 57467, Note_on_c, 10, 81, 0
12, 57480, Note_on_c, 10, 78, 76
12, 57527, Note_on_c, 10, 78, 0
12, 57540, Note_on_c, 10, 79, 76
12, 57587, Note_on_c, 10, 79, 0
12, 57600, Note_on_c, 10, 81, 76
12, 57647, Note_on_c, 10, 81, 0
12, 57660, Note_on_c, 10, 78, 76
12, 57707, Note_on_c, 10, 78, 0
12, 57720, Note_on_c, 10, 74, 76
12, 57767, Note_on_c, 10, 74, 0
12, 57780, Note_on_c, 10, 76, 76
12, 57827, Note_on_c, 10, 76, 0
12, 57840, Note_on_c, 10, 78, 76
12, 57887, Note_on_c, 10, 78, 0
12, 57900, Note_on_c, 10, 79, 76
12, 57947, Note_on_c, 10, 79, 0
12, 57960, Note_on_c, 10, 76, 76
12, 58007, Note_on_c, 10, 76, 0
12, 58020, Note_on_c, 10, 78, 76
12, 58067, Note_on_c, 10, 78, 0
12, 58080, Note_on_c, 10, 79, 76
12, 58127, Note_on_c, 10, 79, 0
12, 58140, Note_on_c, 10, 78, 76
12, 58187, Note_on_c, 10, 78, 0
12, 58200, Note_on_c, 10, 76, 76
12, 58247, Note_on_c, 10, 76, 0
12, 58260, Note_on_c, 10, 79, 76
12, 58307, Note_on_c, 10, 79, 0
12, 58320, Note_on_c, 10, 78, 76
12, 58367, Note_on_c, 10, 78, 0
12, 58380, Note_on_c, 10, 76, 76
12, 58427, Note_on_c, 10, 76, 0
12, 58440, Note_on_c, 10, 74, 76
12, 58487, Note_on_c, 10, 74, 0
12, 58500, Note_on_c, 10, 78, 76
12, 58547, Note_on_c, 10, 78, 0
12, 58560, Note_on_c, 10, 76, 76
12, 58607, Note_on_c, 10, 76, 0
12, 58620, Note_on_c, 10, 81, 76
12, 58667, Note_on_c, 10, 81, 0
12, 58680, Note_on_c, 10, 73, 76
12, 58727, Note_on_c, 10, 73, 0
12, 58740, Note_on_c, 10, 74, 76
12, 58787, Note_on_c, 10, 74, 0
12, 58800, Note_on_c, 10, 76, 76
12, 58847, Note_on_c, 10, 76, 0
12, 58860, Note_on_c, 10, 78, 76
12, 58907, Note_on_c, 10, 78, 0
12, 58920, Note_on_c, 10, 76, 76
12, 58967, Note_on_c, 10, 76, 0
12, 58980, Note_on_c, 10, 78, 76
12, 59027, Note_on_c, 10, 78, 0
12, 59040, Note_on_c, 10, 79, 76
12, 59087, Note_on_c, 10, 79, 0
12, 59100, Note_on_c, 10, 76, 76
12, 59147, Note_on_c, 10, 76, 0
12, 59160, Note_on_c, 10, 69, 76
12, 59207, Note_on_c, 10, 69, 0
12, 59220, Note_on_c, 10, 71, 76
12, 59267, Note_on_c, 10, 71, 0
12, 59280, Note_on_c, 10, 73, 76
12, 59327, Note_on_c, 10, 73, 0
12, 59340, Note_on_c, 10, 74, 76
12, 59387, Note_on_c, 10, 74, 0
12, 59400, Note_on_c, 10, 73, 76
12, 59447, Note_on_c, 10, 73, 0
12, 59460, Note_on_c, 10, 74, 76
12, 59507, Note_on_c, 10, 74, 0
12, 59520, Note_on_c, 10, 76, 76
12, 59567, Note_on_c, 10, 76, 0
12, 59580, Note_on_c, 10, 74, 76
12, 59627, Note_on_c, 10, 74, 0
12, 59640, Note_on_c, 10, 73, 76
12, 59687, Note_on_c, 10, 73, 0
12, 59700, Note_on_c, 10, 74, 76
12, 59747, Note_on_c, 10, 74, 0
12, 59760, Note_on_c, 10, 76, 76
12, 59807, Note_on_c, 10, 76, 0
12, 59820, Note_on_c, 10, 79, 76
12, 59867, Note_on_c, 10, 79, 0
12, 59880, Note_on_c, 10, 78, 76
12, 59927, Note_on_c, 10, 78, 0
12, 59940, Note_on_c, 10, 76, 76
12, 59987, Note_on_c, 10, 76, 0
12, 60000, Note_on_c, 10, 81, 76
12, 60047, Note_on_c, 10, 81, 0
12, 60060, Note_on_c, 10, 79, 76
12, 60107, Note_on_c, 10, 79, 0
12, 60120, Note_on_c, 10, 78, 76
12, 60167, Note_on_c, 10, 78, 0
12, 60180, Note_on_c, 10, 79, 76
12, 60227, Note_on_c, 10, 79, 0
12, 60240, Note_on_c, 10, 81, 76
12, 60287, Note_on_c, 10, 81, 0
12, 60300, Note_on_c, 10, 78, 76
12, 60347, Note_on_c, 10, 78, 0
12, 60360, Note_on_c, 10, 74, 76
12, 60407, Note_on_c, 10, 74, 0
12, 60420, Note_on_c, 10, 78, 76
12, 60467, Note_on_c, 10, 78, 0
12, 60480, Note_on_c, 10, 79, 76
12, 60527, Note_on_c, 10, 79, 0
12, 60540, Note_on_c, 10, 78, 76
12, 60587, Note_on_c, 10, 78, 0
12, 60600, Note_on_c, 10, 76, 76
12, 60647, Note_on_c, 10, 76, 0
12, 60660, Note_on_c, 10, 78, 76
12, 60707, Note_on_c, 10, 78, 0
12, 60720, Note_on_c, 10, 79, 76
12, 60767, Note_on_c, 10, 79, 0
12, 60780, Note_on_c, 10, 83, 76
12, 60827, Note_on_c, 10, 83, 0
12, 60840, Note_on_c, 10, 81, 76
12, 60887, Note_on_c, 10, 81, 0
12, 60900, Note_on_c, 10, 79, 76
12, 60947, Note_on_c, 10, 79, 0
12, 60960, Note_on_c, 10, 78, 76
12, 61064, Note_on_c, 10, 78, 0
12, 61080, Note_on_c, 10, 74, 76
12, 61184, Note_on_c, 10, 74, 0
12, 61200, Note_on_c, 10, 71, 76
12, 61304, Note_on_c, 10, 71, 0
12, 61320, Note_on_c, 10, 76, 76
12, 61424, Note_on_c, 10, 76, 0
12, 61440, Note_on_c, 10, 73, 76
12, 61487, Note_on_c, 10, 73, 0
12, 61500, Note_on_c, 10, 69, 76
12, 61547, Note_on_c, 10, 69, 0
12, 61560, Note_on_c, 10, 71, 76
12, 61607, Note_on_c, 10, 71, 0
12, 61620, Note_on_c, 10, 73, 76
12, 61667, Note_on_c, 10, 73, 0
12, 61680, Note_on_c, 10, 74, 76
12, 61727, Note_on_c, 10, 74, 0
12, 61740, Note_on_c, 10, 76, 76
12, 61787, Note_on_c, 10, 76, 0
12, 61800, Note_on_c, 10, 78, 76
12, 61847, Note_on_c, 10, 78, 0
12, 61860, Note_on_c, 10, 79, 76
12, 61907, Note_on_c, 10, 79, 0
12, 61920, Note_on_c, 10, 78, 76
12, 61967, Note_on_c, 10, 78, 0
12, 61980, Note_on_c, 10, 76, 76
12, 62027, Note_on_c, 10, 76, 0
12, 62040, Note_on_c, 10, 74, 76
12, 62087, Note_on_c, 10, 74, 0
12, 62100, Note_on_c, 10, 76, 76
12, 62147, Note_on_c, 10, 76, 0
12, 62160, Note_on_c, 10, 69, 76
12, 62264, Note_on_c, 10, 69, 0
12, 62280, Note_on_c, 10, 73, 76
12, 62384, Note_on_c, 10, 73, 0
12, 62400, Note_on_c, 10, 74, 76
12, 62447, Note_on_c, 10, 74, 0
12, 62460, Note_on_c, 10, 69, 76
12, 62507, Note_on_c, 10, 69, 0
12, 62520, Note_on_c, 10, 66, 76
12, 62567, Note_on_c, 10, 66, 0
12, 62580, Note_on_c, 10, 69, 76
12, 62627, Note_on_c, 10, 69, 0
12, 62640, Note_on_c, 10, 62, 76
12, 62687, Note_on_c, 10, 62, 0
12, 62700, Note_on_c, 10, 66, 76
12, 62747, Note_on_c, 10, 66, 0
12, 62760, Note_on_c, 10, 64, 76
12, 62807, Note_on_c, 10, 64, 0
12, 62820, Note_on_c, 10, 67, 76
12, 62867, Note_on_c, 10, 67, 0
12, 62880, Note_on_c, 10, 66, 76
12, 62927, Note_on_c, 10, 66, 0
12, 62940, Note_on_c, 10, 69, 76
12, 62987, Note_on_c, 10, 69, 0
12, 63000, Note_on_c, 10, 74, 76
12, 63047, Note_on_c, 10, 74, 0
12, 63060, Note_on_c, 10, 66, 76
12, 63107, Note_on_c, 10, 66, 0
12, 63120, Note_on_c, 10, 64, 76
12, 63167, Note_on_c, 10, 64, 0
12, 63180, Note_on_c, 10, 74, 76
12, 63227, Note_on_c, 10, 74, 0
12, 63240, Note_on_c, 10, 64, 76
12, 63287, Note_on_c, 10, 64, 0
12, 63300, Note_on_c, 10, 73, 76
12, 63347, Note_on_c, 10, 73, 0
12, 63360, Note_on_c, 10, 74, 76
12, 63407, Note_on_c, 10, 74, 0
12, 63420, Note_on_c, 10, 69, 76
12, 63467, Note_on_c, 10, 69, 0
12, 63480, Note_on_c, 10, 74, 76
12, 63527, Note_on_c, 10, 74, 0
12, 63540, Note_on_c, 10, 76, 76
12, 63587, Note_on_c, 10, 76, 0
12, 63600, Note_on_c, 10, 78, 76
12, 63647, Note_on_c, 10, 78, 0
12, 63660, Note_on_c, 10, 81, 76
12, 63707, Note_on_c, 10, 81, 0
12, 63720, Note_on_c, 10, 80, 76
12, 63767, Note_on_c, 10, 80, 0
12, 63780, Note_on_c, 10, 83, 76
12, 63827, Note_on_c, 10, 83, 0
12, 63840, Note_on_c, 10, 81, 76
12, 63887, Note_on_c, 10, 81, 0
12, 63900, Note_on_c, 10, 76, 76
12, 63947, Note_on_c, 10, 76, 0
12, 63960, Note_on_c, 10, 73, 76
12, 64007, Note_on_c, 10, 73, 0
12, 64020, Note_on_c, 10, 81, 76
12, 64067, Note_on_c, 10, 81, 0
12, 64080, Note_on_c, 10, 71, 76
12, 64127, Note_on_c, 10, 71, 0
12, 64140, Note_on_c, 10, 81, 76
12, 64187, Note_on_c, 10, 81, 0
12, 64200, Note_on_c, 10, 71, 76
12, 64247, Note_on_c, 10, 71, 0
12, 64260, Note_on_c, 10, 80, 76
12, 64307, Note_on_c, 10, 80, 0
12, 64320, Note_on_c, 10, 81, 76
12, 64367, Note_on_c, 10, 81, 0
12, 64380, Note_on_c, 10, 76, 76
12, 64427, Note_on_c, 10, 76, 0
12, 64440, Note_on_c, 10, 73, 76
12, 64499, Note_on_c, 10, 73, 0
12, 64500, Note_on_c, 10, 74, 76
12, 64559, Note_on_c, 10, 74, 0
12, 64560, Note_on_c, 10, 76, 76
12, 64607, Note_on_c, 10, 76, 0
12, 64620, Note_on_c, 10, 78, 76
12, 64667, Note_on_c, 10, 78, 0
12, 64680, Note_on_c, 10, 76, 76
12, 64727, Note_on_c, 10, 76, 0
12, 64740, Note_on_c, 10, 78, 76
12, 64787, Note_on_c, 10, 78, 0
12, 64800, Note_on_c, 10, 79, 76
12, 64847, Note_on_c, 10, 79, 0
12, 64860, Note_on_c, 10, 76, 76
12, 64907, Note_on_c, 10, 76, 0
12, 64920, Note_on_c, 10, 69, 76
12, 64979, Note_on_c, 10, 69, 0
12, 64980, Note_on_c, 10, 71, 76
12, 65039, Note_on_c, 10, 71, 0
12, 65040, Note_on_c, 10, 73, 76
12, 65087, Note_on_c, 10, 73, 0
12, 65100, Note_on_c, 10, 74, 76
12, 65147, Note_on_c, 10, 74, 0
12, 65160, Note_on_c, 10, 73, 76
12, 65207, Note_on_c, 10, 73, 0
12, 65220, Note_on_c, 10, 74, 76
12, 65267, Note_on_c, 10, 74, 0
12, 65280, Note_on_c, 10, 76, 76
12, 65327, Note_on_c, 10, 76, 0
12, 65340, Note_on_c, 10, 74, 76
12, 65387, Note_on_c, 10, 74, 0
12, 65400, Note_on_c, 10, 73, 76
12, 65447, Note_on_c, 10, 73, 0
12, 65460, Note_on_c, 10, 74, 76
12, 65507, Note_on_c, 10, 74, 0
12, 65520, Note_on_c, 10, 76, 76
12, 65567, Note_on_c, 10, 76, 0
12, 65580, Note_on_c, 10, 74, 76
12, 65627, Note_on_c, 10, 74, 0
12, 65640, Note_on_c, 10, 73, 76
12, 65687, Note_on_c, 10, 73, 0
12, 65700, Note_on_c, 10, 71, 76
12, 65747, Note_on_c, 10, 71, 0
12, 65760, Note_on_c, 10, 70, 76
12, 65807, Note_on_c, 10, 70, 0
12, 65820, Note_on_c, 10, 76, 76
12, 65879, Note_on_c, 10, 76, 0
12, 65880, Note_on_c, 10, 78, 76
12, 65939, Note_on_c, 10, 78, 0
12, 65940, Note_on_c, 10, 79, 76
12, 65987, Note_on_c, 10, 79, 0
12, 66000, Note_on_c, 10, 78, 76
12, 66047, Note_on_c, 10, 78, 0
12, 66060, Note_on_c, 10, 76, 76
12, 66107, Note_on_c, 10, 76, 0
12, 66120, Note_on_c, 10, 74, 76
12, 66167, Note_on_c, 10, 74, 0
12, 66180, Note_on_c, 10, 73, 76
12, 66227, Note_on_c, 10, 73, 0
12, 66240, Note_on_c, 10, 74, 76
12, 66287, Note_on_c, 10, 74, 0
12, 66300, Note_on_c, 10, 78, 76
12, 66347, Note_on_c, 10, 78, 0
12, 66360, Note_on_c, 10, 71, 76
12, 66419, Note_on_c, 10, 71, 0
12, 66420, Note_on_c, 10, 73, 76
12, 66479, Note_on_c, 10, 73, 0
12, 66480, Note_on_c, 10, 74, 76
12, 66527, Note_on_c, 10, 74, 0
12, 66540, Note_on_c, 10, 76, 76
12, 66587, Note_on_c, 10, 76, 0
12, 66600, Note_on_c, 10, 74, 76
12, 66647, Note_on_c, 10, 74, 0
12, 66660, Note_on_c, 10, 76, 76
12, 66707, Note_on_c, 10, 76, 0
12, 66720, Note_on_c, 10, 78, 76
12, 66767, Note_on_c, 10, 78, 0
12, 66780, Note_on_c, 10, 81, 76
12, 66827, Note_on_c, 10, 81, 0
12, 66840, Note_on_c, 10, 75, 76
12, 66899, Note_on_c, 10, 75, 0
12, 66900, Note_on_c, 10, 76, 76
12, 66959, Note_on_c, 10, 76, 0
12, 66960, Note_on_c, 10, 78, 76
12, 67007, Note_on_c, 10, 78, 0
12, 67020, Note_on_c, 10, 79, 76
12, 67067, Note_on_c, 10, 79, 0
12, 67080, Note_on_c, 10, 78, 76
12, 67127, Note_on_c, 10, 78, 0
12, 67140, Note_on_c, 10, 79, 76
12, 67187, Note_on_c, 10, 79, 0
12, 67200, Note_on_c, 10, 81, 76
12, 67247, Note_on_c, 10, 81, 0
12, 67260, Note_on_c, 10, 72, 76
12, 67319, Note_on_c, 10, 72, 0
12, 67320, Note_on_c, 10, 71, 76
12, 67379, Note_on_c, 10, 71, 0
12, 67380, Note_on_c, 10, 72, 76
12, 67427, Note_on_c, 10, 72, 0
12, 67440, Note_on_c, 10, 81, 76
12, 67487, Note_on_c, 10, 81, 0
12, 67500, Note_on_c, 10, 72, 76
12, 67559, Note_on_c, 10, 72, 0
12, 67560, Note_on_c, 10, 71, 76
12, 67619, Note_on_c, 10, 71, 0
12, 67620, Note_on_c, 10, 69, 76
12, 67667, Note_on_c, 10, 69, 0
12, 67680, Note_on_c, 10, 71, 76
12, 67727, Note_on_c, 10, 71, 0
12, 67740, Note_on_c, 10, 73, 76
12, 67787, Note_on_c, 10, 73, 0
12, 67800, Note_on_c, 10, 75, 76
12, 67847, Note_on_c, 10, 75, 0
12, 67860, Note_on_c, 10, 76, 76
12, 67907, Note_on_c, 10, 76, 0
12, 67920, Note_on_c, 10, 78, 76
12, 67967, Note_on_c, 10, 78, 0
12, 67980, Note_on_c, 10, 79, 76
12, 68027, Note_on_c, 10, 79, 0
12, 68040, Note_on_c, 10, 81, 76
12, 68087, Note_on_c, 10, 81, 0
12, 68100, Note_on_c, 10, 78, 76
12, 68147, Note_on_c, 10, 78, 0
12, 68160, Note_on_c, 10, 79, 76
12, 68207, Note_on_c, 10, 79, 0
12, 68220, Note_on_c, 10, 76, 76
12, 68267, Note_on_c, 10, 76, 0
12, 68280, Note_on_c, 10, 71, 76
12, 68327, Note_on_c, 10, 71, 0
12, 68340, Note_on_c, 10, 74, 76
12, 68387, Note_on_c, 10, 74, 0
12, 68400, Note_on_c, 10, 73, 76
12, 68447, Note_on_c, 10, 73, 0
12, 68460, Note_on_c, 10, 76, 76
12, 68507, Note_on_c, 10, 76, 0
12, 68520, Note_on_c, 10, 69, 76
12, 68567, Note_on_c, 10, 69, 0
12, 68580, Note_on_c, 10, 79, 76
12, 68627, Note_on_c, 10, 79, 0
12, 68640, Note_on_c, 10, 78, 76
12, 68687, Note_on_c, 10, 78, 0
12, 68700, Note_on_c, 10, 74, 76
12, 68747, Note_on_c, 10, 74, 0
12, 68760, Note_on_c, 10, 69, 76
12, 68807, Note_on_c, 10, 69, 0
12, 68820, Note_on_c, 10, 72, 76
12, 68867, Note_on_c, 10, 72, 0
12, 68880, Note_on_c, 10, 71, 76
12, 68927, Note_on_c, 10, 71, 0
12, 68940, Note_on_c, 10, 74, 76
12, 68987, Note_on_c, 10, 74, 0
12, 69000, Note_on_c, 10, 67, 76
12, 69047, Note_on_c, 10, 67, 0
12, 69060, Note_on_c, 10, 78, 76
12, 69107, Note_on_c, 10, 78, 0
12, 69120, Note_on_c, 10, 76, 76
12, 69167, Note_on_c, 10, 76, 0
12, 69180, Note_on_c, 10, 73, 76
12, 69227, Note_on_c, 10, 73, 0
12, 69240, Note_on_c, 10, 68, 76
12, 69287, Note_on_c, 10, 68, 0
12, 69300, Note_on_c, 10, 71, 76
12, 69347, Note_on_c, 10, 71, 0
12, 69360, Note_on_c, 10, 70, 76
12, 69407, Note_on_c, 10, 70, 0
12, 69420, Note_on_c, 10, 73, 76
12, 69467, Note_on_c, 10, 73, 0
12, 69480, Note_on_c, 10, 66, 76
12, 69527, Note_on_c, 10, 66, 0
12, 69540, Note_on_c, 10, 76, 76
12, 69587, Note_on_c, 10, 76, 0
12, 69600, Note_on_c, 10, 74, 76
12, 69647, Note_on_c, 10, 74, 0
12, 69660, Note_on_c, 10, 71, 76
12, 69707, Note_on_c, 10, 71, 0
12, 69720, Note_on_c, 10, 73, 76
12, 69767, Note_on_c, 10, 73, 0
12, 69780, Note_on_c, 10, 74, 76
12, 69827, Note_on_c, 10, 74, 0
12, 69840, Note_on_c, 10, 76, 76
12, 69887, Note_on_c, 10, 76, 0
12, 69900, Note_on_c, 10, 78, 76
12, 69947, Note_on_c, 10, 78, 0
12, 69960, Note_on_c, 10, 79, 76
12, 70007, Note_on_c, 10, 79, 0
12, 70020, Note_on_c, 10, 76, 76
12, 70067, Note_on_c, 10, 76, 0
12, 70080, Note_on_c, 10, 70, 76
12, 70127, Note_on_c, 10, 70, 0
12, 70140, Note_on_c, 10, 76, 76
12, 70199, Note_on_c, 10, 76, 0
12, 70200, Note_on_c, 10, 78, 76
12, 70259, Note_on_c, 10, 78, 0
12, 70260, Note_on_c, 10, 76, 76
12, 70307, Note_on_c, 10, 76, 0
12, 70320, Note_on_c, 10, 78, 76
12, 70367, Note_on_c, 10, 78, 0
12, 70380, Note_on_c, 10, 76, 76
12, 70427, Note_on_c, 10, 76, 0
12, 70440, Note_on_c, 10, 78, 76
12, 70487, Note_on_c, 10, 78, 0
12, 70500, Note_on_c, 10, 76, 76
12, 70547, Note_on_c, 10, 76, 0
12, 70560, Note_on_c, 10, 70, 76
12, 70607, Note_on_c, 10, 70, 0
12, 70620, Note_on_c, 10, 76, 76
12, 70679, Note_on_c, 10, 76, 0
12, 70680, Note_on_c, 10, 78, 76
12, 70739, Note_on_c, 10, 78, 0
12, 70740, Note_on_c, 10, 76, 76
12, 70787, Note_on_c, 10, 76, 0
12, 70800, Note_on_c, 10, 78, 76
12, 70847, Note_on_c, 10, 78, 0
12, 70860, Note_on_c, 10, 76, 76
12, 70907, Note_on_c, 10, 76, 0
12, 70920, Note_on_c, 10, 78, 76
12, 70967, Note_on_c, 10, 78, 0
12, 70980, Note_on_c, 10, 76, 76
12, 71027, Note_on_c, 10, 76, 0
12, 71040, Note_on_c, 10, 70, 76
12, 71087, Note_on_c, 10, 70, 0
12, 71100, Note_on_c, 10, 76, 76
12, 71159, Note_on_c, 10, 76, 0
12, 71160, Note_on_c, 10, 78, 76
12, 71219, Note_on_c, 10, 78, 0
12, 71220, Note_on_c, 10, 79, 76
12, 71267, Note_on_c, 10, 79, 0
12, 71280, Note_on_c, 10, 78, 76
12, 71327, Note_on_c, 10, 78, 0
12, 71340, Note_on_c, 10, 76, 76
12, 71387, Note_on_c, 10, 76, 0
12, 71400, Note_on_c, 10, 75, 76
12, 71447, Note_on_c, 10, 75, 0
12, 71460, Note_on_c, 10, 73, 76
12, 71507, Note_on_c, 10, 73, 0
12, 71520, Note_on_c, 10, 69, 76
12, 71567, Note_on_c, 10, 69, 0
12, 71580, Note_on_c, 10, 75, 76
12, 71639, Note_on_c, 10, 75, 0
12, 71640, Note_on_c, 10, 78, 76
12, 71699, Note_on_c, 10, 78, 0
12, 71700, Note_on_c, 10, 75, 76
12, 71747, Note_on_c, 10, 75, 0
12, 71760, Note_on_c, 10, 78, 76
12, 71807, Note_on_c, 10, 78, 0
12, 71820, Note_on_c, 10, 75, 76
12, 71867, Note_on_c, 10, 75, 0
12, 71880, Note_on_c, 10, 78, 76
12, 71927, Note_on_c, 10, 78, 0
12, 71940, Note_on_c, 10, 75, 76
12, 71987, Note_on_c, 10, 75, 0
12, 72000, Note_on_c, 10, 69, 76
12, 72047, Note_on_c, 10, 69, 0
12, 72060, Note_on_c, 10, 75, 76
12, 72119, Note_on_c, 10, 75, 0
12, 72120, Note_on_c, 10, 78, 76
12, 72179, Note_on_c, 10, 78, 0
12, 72180, Note_on_c, 10, 75, 76
12, 72227, Note_on_c, 10, 75, 0
12, 72240, Note_on_c, 10, 78, 76
12, 72287, Note_on_c, 10, 78, 0
12, 72300, Note_on_c, 10, 75, 76
12, 72347, Note_on_c, 10, 75, 0
12, 72360, Note_on_c, 10, 78, 76
12, 72407, Note_on_c, 10, 78, 0
12, 72420, Note_on_c, 10, 75, 76
12, 72467, Note_on_c, 10, 75, 0
12, 72480, Note_on_c, 10, 69, 76
12, 72527, Note_on_c, 10, 69, 0
12, 72540, Note_on_c, 10, 75, 76
12, 72599, Note_on_c, 10, 75, 0
12, 72600, Note_on_c, 10, 78, 76
12, 72659, Note_on_c, 10, 78, 0
12, 72660, Note_on_c, 10, 76, 76
12, 72707, Note_on_c, 10, 76, 0
12, 72720, Note_on_c, 10, 75, 76
12, 72767, Note_on_c, 10, 75, 0
12, 72780, Note_on_c, 10, 73, 76
12, 72827, Note_on_c, 10, 73, 0
12, 72840, Note_on_c, 10, 71, 76
12, 72887, Note_on_c, 10, 71, 0
12, 72900, Note_on_c, 10, 69, 76
12, 72947, Note_on_c, 10, 69, 0
12, 72960, Note_on_c, 10, 68, 76
12, 73007, Note_on_c, 10, 68, 0
12, 73020, Note_on_c, 10, 74, 76
12, 73079, Note_on_c, 10, 74, 0
12, 73080, Note_on_c, 10, 76, 76
12, 73139, Note_on_c, 10, 76, 0
12, 73140, Note_on_c, 10, 74, 76
12, 73187, Note_on_c, 10, 74, 0
12, 73200, Note_on_c, 10, 76, 76
12, 73247, Note_on_c, 10, 76, 0
12, 73260, Note_on_c, 10, 74, 76
12, 73307, Note_on_c, 10, 74, 0
12, 73320, Note_on_c, 10, 76, 76
12, 73367, Note_on_c, 10, 76, 0
12, 73380, Note_on_c, 10, 74, 76
12, 73427, Note_on_c, 10, 74, 0
12, 73440, Note_on_c, 10, 68, 76
12, 73487, Note_on_c, 10, 68, 0
12, 73500, Note_on_c, 10, 74, 76
12, 73559, Note_on_c, 10, 74, 0
12, 73560, Note_on_c, 10, 76, 76
12, 73619, Note_on_c, 10, 76, 0
12, 73620, Note_on_c, 10, 74, 76
12, 73667, Note_on_c, 10, 74, 0
12, 73680, Note_on_c, 10, 76, 76
12, 73727, Note_on_c, 10, 76, 0
12, 73740, Note_on_c, 10, 74, 76
12, 73787, Note_on_c, 10, 74, 0
12, 73800, Note_on_c, 10, 76, 76
12, 73847, Note_on_c, 10, 76, 0
12, 73860, Note_on_c, 10, 74, 76
12, 73907, Note_on_c, 10, 74, 0
12, 73920, Note_on_c, 10, 68, 76
12, 73967, Note_on_c, 10, 68, 0
12, 73980, Note_on_c, 10, 74, 76
12, 74039, Note_on_c, 10, 74, 0
12, 74040, Note_on_c, 10, 76, 76
12, 74099, Note_on_c, 10, 76, 0
12, 74100, Note_on_c, 10, 78, 76
12, 74147, Note_on_c, 10, 78, 0
12, 74160, Note_on_c, 10, 76, 76
12, 74207, Note_on_c, 10, 76, 0
12, 74220, Note_on_c, 10, 74, 76
12, 74267, Note_on_c, 10, 74, 0
12, 74280, Note_on_c, 10, 73, 76
12, 74327, Note_on_c, 10, 73, 0
12, 74340, Note_on_c, 10, 71, 76
12, 74387, Note_on_c, 10, 71, 0
12, 74400, Note_on_c, 10, 67, 76
12, 74447, Note_on_c, 10, 67, 0
12, 74460, Note_on_c, 10, 73, 76
12, 74519, Note_on_c, 10, 73, 0
12, 74520, Note_on_c, 10, 76, 76
12, 74579, Note_on_c, 10, 76, 0
12, 74580, Note_on_c, 10, 73, 76
12, 74627, Note_on_c, 10, 73, 0
12, 74640, Note_on_c, 10, 76, 76
12, 74687, Note_on_c, 10, 76, 0
12, 74700, Note_on_c, 10, 73, 76
12, 74747, Note_on_c, 10, 73, 0
12, 74760, Note_on_c, 10, 76, 76
12, 74807, Note_on_c, 10, 76, 0
12, 74820, Note_on_c, 10, 73, 76
12, 74867, Note_on_c, 10, 73, 0
12, 74880, Note_on_c, 10, 67, 76
12, 74927, Note_on_c, 10, 67, 0
12, 74940, Note_on_c, 10, 73, 76
12, 74999, Note_on_c, 10, 73, 0
12, 75000, Note_on_c, 10, 76, 76
12, 75059, Note_on_c, 10, 76, 0
12, 75060, Note_on_c, 10, 73, 76
12, 75107, Note_on_c, 10, 73, 0
12, 75120, Note_on_c, 10, 76, 76
12, 75167, Note_on_c, 10, 76, 0
12, 75180, Note_on_c, 10, 73, 76
12, 75227, Note_on_c, 10, 73, 0
12, 75240, Note_on_c, 10, 76, 76
12, 75287, Note_on_c, 10, 76, 0
12, 75300, Note_on_c, 10, 73, 76
12, 75347, Note_on_c, 10, 73, 0
12, 75360, Note_on_c, 10, 67, 76
12, 75407, Note_on_c, 10, 67, 0
12, 75420, Note_on_c, 10, 73, 76
12, 75479, Note_on_c, 10, 73, 0
12, 75480, Note_on_c, 10, 76, 76
12, 75539, Note_on_c, 10, 76, 0
12, 75540, Note_on_c, 10, 74, 76
12, 75587, Note_on_c, 10, 74, 0
12, 75600, Note_on_c, 10, 73, 76
12, 75659, Note_on_c, 10, 73, 0
12, 75660, Note_on_c, 10, 71, 76
12, 75719, Note_on_c, 10, 71, 0
12, 75720, Note_on_c, 10, 69, 76
12, 75779, Note_on_c, 10, 69, 0
12, 75780, Note_on_c, 10, 67, 76
12, 75827, Note_on_c, 10, 67, 0
12, 75840, Note_on_c, 10, 66, 76
12, 75887, Note_on_c, 10, 66, 0
12, 75900, Note_on_c, 10, 62, 76
12, 75947, Note_on_c, 10, 62, 0
12, 75960, Note_on_c, 10, 64, 76
12, 76007, Note_on_c, 10, 64, 0
12, 76020, Note_on_c, 10, 67, 76
12, 76067, Note_on_c, 10, 67, 0
12, 76080, Note_on_c, 10, 66, 76
12, 76127, Note_on_c, 10, 66, 0
12, 76140, Note_on_c, 10, 69, 76
12, 76187, Note_on_c, 10, 69, 0
12, 76200, Note_on_c, 10, 68, 76
12, 76247, Note_on_c, 10, 68, 0
12, 76260, Note_on_c, 10, 71, 76
12, 76307, Note_on_c, 10, 71, 0
12, 76320, Note_on_c, 10, 69, 76
12, 76367, Note_on_c, 10, 69, 0
12, 76380, Note_on_c, 10, 66, 76
12, 76427, Note_on_c, 10, 66, 0
12, 76440, Note_on_c, 10, 68, 76
12, 76487, Note_on_c, 10, 68, 0
12, 76500, Note_on_c, 10, 71, 76
12, 76547, Note_on_c, 10, 71, 0
12, 76560, Note_on_c, 10, 69, 76
12, 76607, Note_on_c, 10, 69, 0
12, 76620, Note_on_c, 10, 73, 76
12, 76667, Note_on_c, 10, 73, 0
12, 76680, Note_on_c, 10, 71, 76
12, 76727, Note_on_c, 10, 71, 0
12, 76740, Note_on_c, 10, 74, 76
12, 76787, Note_on_c, 10, 74, 0
12, 76800, Note_on_c, 10, 73, 76
12, 76847, Note_on_c, 10, 73, 0
12, 76860, Note_on_c, 10, 69, 76
12, 76907, Note_on_c, 10, 69, 0
12, 76920, Note_on_c, 10, 71, 76
12, 76967, Note_on_c, 10, 71, 0
12, 76980, Note_on_c, 10, 74, 76
12, 77027, Note_on_c, 10, 74, 0
12, 77040, Note_on_c, 10, 73, 76
12, 77087, Note_on_c, 10, 73, 0
12, 77100, Note_on_c, 10, 76, 76
12, 77147, Note_on_c, 10, 76, 0
12, 77160, Note_on_c, 10, 74, 76
12, 77207, Note_on_c, 10, 74, 0
12, 77220, Note_on_c, 10, 78, 76
12, 77267, Note_on_c, 10, 78, 0
12, 77280, Note_on_c, 10, 76, 76
12, 77447, Note_on_c, 10, 76, 0
12, 77460, Note_on_c, 10, 78, 76
12, 77507, Note_on_c, 10, 78, 0
12, 77520, Note_on_c, 10, 71, 76
12, 77687, Note_on_c, 10, 71, 0
12, 77700, Note_on_c, 10, 69, 76
12, 77747, Note_on_c, 10, 69, 0
12, 77760, Note_on_c, 10, 69, 76
12, 77807, Note_on_c, 10, 69, 0
12, 77820, Note_on_c, 10, 71, 76
12, 77867, Note_on_c, 10, 71, 0
12, 77880, Note_on_c, 10, 73, 76
12, 77927, Note_on_c, 10, 73, 0
12, 77940, Note_on_c, 10, 74, 76
12, 77987, Note_on_c, 10, 74, 0
12, 78000, Note_on_c, 10, 76, 76
12, 78047, Note_on_c, 10, 76, 0
12, 78060, Note_on_c, 10, 78, 76
12, 78107, Note_on_c, 10, 78, 0
12, 78120, Note_on_c, 10, 76, 76
12, 78167, Note_on_c, 10, 76, 0
12, 78180, Note_on_c, 10, 78, 76
12, 78227, Note_on_c, 10, 78, 0
12, 78240, Note_on_c, 10, 79, 76
12, 78287, Note_on_c, 10, 79, 0
12, 78300, Note_on_c, 10, 76, 76
12, 78347, Note_on_c, 10, 76, 0
12, 78360, Note_on_c, 10, 69, 76
12, 78407, Note_on_c, 10, 69, 0
12, 78420, Note_on_c, 10, 71, 76
12, 78467, Note_on_c, 10, 71, 0
12, 78480, Note_on_c, 10, 73, 76
12, 78527, Note_on_c, 10, 73, 0
12, 78540, Note_on_c, 10, 74, 76
12, 78587, Note_on_c, 10, 74, 0
12, 78600, Note_on_c, 10, 73, 76
12, 78647, Note_on_c, 10, 73, 0
12, 78660, Note_on_c, 10, 74, 76
12, 78707, Note_on_c, 10, 74, 0
12, 78720, Note_on_c, 10, 76, 76
12, 78767, Note_on_c, 10, 76, 0
12, 78780, Note_on_c, 10, 74, 76
12, 78827, Note_on_c, 10, 74, 0
12, 78840, Note_on_c, 10, 73, 76
12, 78887, Note_on_c, 10, 73, 0
12, 78900, Note_on_c, 10, 74, 76
12, 78947, Note_on_c, 10, 74, 0
12, 78960, Note_on_c, 10, 76, 76
12, 79007, Note_on_c, 10, 76, 0
12, 79020, Note_on_c, 10, 74, 76
12, 79067, Note_on_c, 10, 74, 0
12, 79080, Note_on_c, 10, 73, 76
12, 79127, Note_on_c, 10, 73, 0
12, 79140, Note_on_c, 10, 71, 76
12, 79187, Note_on_c, 10, 71, 0
12, 79200, Note_on_c, 10, 69, 76
12, 79304, Note_on_c, 10, 69, 0
12, 79320, Note_on_c, 10, 78, 76
12, 79424, Note_on_c, 10, 78, 0
12, 79440, Note_on_c, 10, 71, 76
12, 79544, Note_on_c, 10, 71, 0
12, 79560, Note_on_c, 10, 75, 76
12, 79784, Note_on_c, 10, 75, 0
12, 79800, Note_on_c, 10, 78, 76
12, 79904, Note_on_c, 10, 78, 0
12, 79920, Note_on_c, 10, 69, 76
12, 80024, Note_on_c, 10, 69, 0
12, 80040, Note_on_c, 10, 75, 76
12, 80264, Note_on_c, 10, 75, 0
12, 80280, Note_on_c, 10, 78, 76
12, 80384, Note_on_c, 10, 78, 0
12, 80400, Note_on_c, 10, 71, 76
12, 80504, Note_on_c, 10, 71, 0
12, 80520, Note_on_c, 10, 75, 76
12, 80624, Note_on_c, 10, 75, 0
12, 80640, Note_on_c, 10, 76, 76
12, 80744, Note_on_c, 10, 76, 0
12, 80760, Note_on_c, 10, 64, 76
12, 80807, Note_on_c, 10, 64, 0
12, 80820, Note_on_c, 10, 66, 76
12, 80867, Note_on_c, 10, 66, 0
12, 80880, Note_on_c, 10, 68, 76
12, 80984, Note_on_c, 10, 68, 0
12, 81000, Note_on_c, 10, 68, 76
12, 81047, Note_on_c, 10, 68, 0
12, 81060, Note_on_c, 10, 69, 76
12, 81107, Note_on_c, 10, 69, 0
12, 81120, Note_on_c, 10, 71, 76
12, 81224, Note_on_c, 10, 71, 0
12, 81240, Note_on_c, 10, 68, 76
12, 81287, Note_on_c, 10, 68, 0
12, 81300, Note_on_c, 10, 69, 76
12, 81347, Note_on_c, 10, 69, 0
12, 81360, Note_on_c, 10, 71, 76
12, 81464, Note_on_c, 10, 71, 0
12, 81480, Note_on_c, 10, 71, 76
12, 81527, Note_on_c, 10, 71, 0
12, 81540, Note_on_c, 10, 73, 76
12, 81587, Note_on_c, 10, 73, 0
12, 81600, Note_on_c, 10, 74, 76
12, 81704, Note_on_c, 10, 74, 0
12, 81720, Note_on_c, 10, 74, 76
12, 81767, Note_on_c, 10, 74, 0
12, 81780, Note_on_c, 10, 73, 76
12, 81827, Note_on_c, 10, 73, 0
12, 81840, Note_on_c, 10, 74, 76
12, 81944, Note_on_c, 10, 74, 0
12, 81960, Note_on_c, 10, 76, 76
12, 82007, Note_on_c, 10, 76, 0
12, 82020, Note_on_c, 10, 74, 76
12, 82067, Note_on_c, 10, 74, 0
12, 82080, Note_on_c, 10, 73, 76
12, 82184, Note_on_c, 10, 73, 0
12, 82200, Note_on_c, 10, 73, 76
12, 82247, Note_on_c, 10, 73, 0
12, 82260, Note_on_c, 10, 71, 76
12, 82307, Note_on_c, 10, 71, 0
12, 82320, Note_on_c, 10, 73, 76
12, 82424, Note_on_c, 10, 73, 0
12, 82440, Note_on_c, 10, 74, 76
12, 82487, Note_on_c, 10, 74, 0
12, 82500, Note_on_c, 10, 73, 76
12, 82547, Note_on_c, 10, 73, 0
12, 82560, Note_on_c, 10, 71, 76
12, 82664, Note_on_c, 10, 71, 0
12, 82680, Note_on_c, 10, 71, 76
12, 82727, Note_on_c, 10, 71, 0
12, 82740, Note_on_c, 10, 69, 76
12, 82787, Note_on_c, 10, 69, 0
12, 82800, Note_on_c, 10, 71, 76
12, 82904, Note_on_c, 10, 71, 0
12, 82920, Note_on_c, 10, 73, 76
12, 82967, Note_on_c, 10, 73, 0
12, 82980, Note_on_c, 10, 71, 76
12, 83027, Note_on_c, 10, 71, 0
12, 83040, Note_on_c, 10, 69, 76
12, 83144, Note_on_c, 10, 69, 0
12, 83160, Note_on_c, 10, 69, 76
12, 83207, Note_on_c, 10, 69, 0
12, 83220, Note_on_c, 10, 71, 76
12, 83267, Note_on_c, 10, 71, 0
12, 83280, Note_on_c, 10, 73, 76
12, 83384, Note_on_c, 10, 73, 0
12, 83400, Note_on_c, 10, 73, 76
12, 83447, Note_on_c, 10, 73, 0
12, 83460, Note_on_c, 10, 74, 76
12, 83507, Note_on_c, 10, 74, 0
12, 83520, Note_on_c, 10, 76, 76
12, 83624, Note_on_c, 10, 76, 0
12, 83640, Note_on_c, 10, 73, 76
12, 83687, Note_on_c, 10, 73, 0
12, 83700, Note_on_c, 10, 74, 76
12, 83747, Note_on_c, 10, 74, 0
12, 83760, Note_on_c, 10, 76, 76
12, 83864, Note_on_c, 10, 76, 0
12, 83880, Note_on_c, 10, 76, 76
12, 83927, Note_on_c, 10, 76, 0
12, 83940, Note_on_c, 10, 78, 76
12, 83987, Note_on_c, 10, 78, 0
12, 84000, Note_on_c, 10, 79, 76
12, 84104, Note_on_c, 10, 79, 0
12, 84120, Note_on_c, 10, 79, 76
12, 84167, Note_on_c, 10, 79, 0
12, 84180, Note_on_c, 10, 78, 76
12, 84227, Note_on_c, 10, 78, 0
12, 84240, Note_on_c, 10, 79, 76
12, 84344, Note_on_c, 10, 79, 0
12, 84360, Note_on_c, 10, 81, 76
12, 84407, Note_on_c, 10, 81, 0
12, 84420, Note_on_c, 10, 79, 76
12, 84467, Note_on_c, 10, 79, 0
12, 84480, Note_on_c, 10, 78, 76
12, 84527, Note_on_c, 10, 78, 0
12, 84540, Note_on_c, 10, 74, 76
12, 84587, Note_on_c, 10, 74, 0
12, 84600, Note_on_c, 10, 71, 76
12, 84647, Note_on_c, 10, 71, 0
12, 84660, Note_on_c, 10, 73, 76
12, 84707, Note_on_c, 10, 73, 0
12, 84720, Note_on_c, 10, 74, 76
12, 84767, Note_on_c, 10, 74, 0
12, 84780, Note_on_c, 10, 76, 76
12, 84827, Note_on_c, 10, 76, 0
12, 84840, Note_on_c, 10, 73, 76
12, 84887, Note_on_c, 10, 73, 0
12, 84900, Note_on_c, 10, 74, 76
12, 84947, Note_on_c, 10, 74, 0
12, 84960, Note_on_c, 10, 76, 76
12, 85007, Note_on_c, 10, 76, 0
12, 85020, Note_on_c, 10, 73, 76
12, 85067, Note_on_c, 10, 73, 0
12, 85080, Note_on_c, 10, 70, 76
12, 85127, Note_on_c, 10, 70, 0
12, 85140, Note_on_c, 10, 71, 76
12, 85187, Note_on_c, 10, 71, 0
12, 85200, Note_on_c, 10, 73, 76
12, 85247, Note_on_c, 10, 73, 0
12, 85260, Note_on_c, 10, 74, 76
12, 85307, Note_on_c, 10, 74, 0
12, 85320, Note_on_c, 10, 71, 76
12, 85367, Note_on_c, 10, 71, 0
12, 85380, Note_on_c, 10, 73, 76
12, 85427, Note_on_c, 10, 73, 0
12, 85440, Note_on_c, 10, 74, 76
12, 85487, Note_on_c, 10, 74, 0
12, 85500, Note_on_c, 10, 76, 76
12, 85547, Note_on_c, 10, 76, 0
12, 85560, Note_on_c, 10, 73, 76
12, 85607, Note_on_c, 10, 73, 0
12, 85620, Note_on_c, 10, 74, 76
12, 85667, Note_on_c, 10, 74, 0
12, 85680, Note_on_c, 10, 76, 76
12, 85727, Note_on_c, 10, 76, 0
12, 85740, Note_on_c, 10, 74, 76
12, 85787, Note_on_c, 10, 74, 0
12, 85800, Note_on_c, 10, 73, 76
12, 85847, Note_on_c, 10, 73, 0
12, 85860, Note_on_c, 10, 71, 76
12, 85907, Note_on_c, 10, 71, 0
12, 85920, Note_on_c, 10, 78, 76
12, 86024, Note_on_c, 10, 78, 0
12, 86040, Note_on_c, 10, 78, 76
12, 86144, Note_on_c, 10, 78, 0
12, 86160, Note_on_c, 10, 78, 76
12, 86264, Note_on_c, 10, 78, 0
12, 86280, Note_on_c, 10, 78, 76
12, 86384, Note_on_c, 10, 78, 0
12, 86400, Note_on_c, 10, 78, 76
12, 86504, Note_on_c, 10, 78, 0
12, 86520, Note_on_c, 10, 78, 76
12, 86624, Note_on_c, 10, 78, 0
12, 86640, Note_on_c, 10, 78, 76
12, 86744, Note_on_c, 10, 78, 0
12, 86760, Note_on_c, 10, 78, 76
12, 86864, Note_on_c, 10, 78, 0
12, 86880, Note_on_c, 10, 78, 76
12, 86984, Note_on_c, 10, 78, 0
12, 87000, Note_on_c, 10, 78, 76
12, 87104, Note_on_c, 10, 78, 0
12, 87120, Note_on_c, 10, 78, 76
12, 87224, Note_on_c, 10, 78, 0
12, 87240, Note_on_c, 10, 78, 76
12, 87344, Note_on_c, 10, 78, 0
12, 87360, Note_on_c, 10, 78, 76
12, 87407, Note_on_c, 10, 78, 0
12, 87420, Note_on_c, 10, 76, 76
12, 87467, Note_on_c, 10, 76, 0
12, 87480, Note_on_c, 10, 78, 76
12, 87527, Note_on_c, 10, 78, 0
12, 87540, Note_on_c, 10, 79, 76
12, 87587, Note_on_c, 10, 79, 0
12, 87600, Note_on_c, 10, 78, 76
12, 87647, Note_on_c, 10, 78, 0
12, 87660, Note_on_c, 10, 83, 76
12, 87707, Note_on_c, 10, 83, 0
12, 87720, Note_on_c, 10, 82, 76
12, 87767, Note_on_c, 10, 82, 0
12, 87780, Note_on_c, 10, 83, 76
12, 87827, Note_on_c, 10, 83, 0
12, 87840, Note_on_c, 10, 76, 76
12, 87887, Note_on_c, 10, 76, 0
12, 87900, Note_on_c, 10, 74, 76
12, 87947, Note_on_c, 10, 74, 0
12, 87960, Note_on_c, 10, 76, 76
12, 88007, Note_on_c, 10, 76, 0
12, 88020, Note_on_c, 10, 78, 76
12, 88067, Note_on_c, 10, 78, 0
12, 88080, Note_on_c, 10, 76, 76
12, 88127, Note_on_c, 10, 76, 0
12, 88140, Note_on_c, 10, 79, 76
12, 88187, Note_on_c, 10, 79, 0
12, 88200, Note_on_c, 10, 78, 76
12, 88247, Note_on_c, 10, 78, 0
12, 88260, Note_on_c, 10, 76, 76
12, 88307, Note_on_c, 10, 76, 0
12, 88320, Note_on_c, 10, 74, 76
12, 88424, Note_on_c, 10, 74, 0
12, 88440, Note_on_c, 10, 78, 76
12, 88544, Note_on_c, 10, 78, 0
12, 88560, Note_on_c, 10, 79, 76
12, 88664, Note_on_c, 10, 79, 0
12, 88680, Note_on_c, 10, 71, 76
12, 88784, Note_on_c, 10, 71, 0
12, 88800, Note_on_c, 10, 70, 76
12, 88847, Note_on_c, 10, 70, 0
12, 88860, Note_on_c, 10, 66, 76
12, 88907, Note_on_c, 10, 66, 0
12, 88920, Note_on_c, 10, 68, 76
12, 88967, Note_on_c, 10, 68, 0
12, 88980, Note_on_c, 10, 70, 76
12, 89027, Note_on_c, 10, 70, 0
12, 89040, Note_on_c, 10, 71, 76
12, 89087, Note_on_c, 10, 71, 0
12, 89100, Note_on_c, 10, 73, 76
12, 89147, Note_on_c, 10, 73, 0
12, 89160, Note_on_c, 10, 74, 76
12, 89207, Note_on_c, 10, 74, 0
12, 89220, Note_on_c, 10, 76, 76
12, 89267, Note_on_c, 10, 76, 0
12, 89280, Note_on_c, 10, 78, 76
12, 89327, Note_on_c, 10, 78, 0
12, 89340, Note_on_c, 10, 79, 76
12, 89387, Note_on_c, 10, 79, 0
12, 89400, Note_on_c, 10, 78, 76
12, 89447, Note_on_c, 10, 78, 0
12, 89460, Note_on_c, 10, 76, 76
12, 89507, Note_on_c, 10, 76, 0
12, 89520, Note_on_c, 10, 74, 76
12, 89567, Note_on_c, 10, 74, 0
12, 89580, Note_on_c, 10, 73, 76
12, 89627, Note_on_c, 10, 73, 0
12, 89640, Note_on_c, 10, 71, 76
12, 89687, Note_on_c, 10, 71, 0
12, 89700, Note_on_c, 10, 70, 76
12, 89747, Note_on_c, 10, 70, 0
12, 89760, Note_on_c, 10, 71, 76
12, 89864, Note_on_c, 10, 71, 0
12, 89880, Note_on_c, 10, 73, 76
12, 89984, Note_on_c, 10, 73, 0
12, 90000, Note_on_c, 10, 66, 76
12, 90104, Note_on_c, 10, 66, 0
12, 90120, Note_on_c, 10, 70, 76
12, 90224, Note_on_c, 10, 70, 0
12, 90240, Note_on_c, 10, 71, 76
12, 90287, Note_on_c, 10, 71, 0
12, 90300, Note_on_c, 10, 66, 76
12, 90347, Note_on_c, 10, 66, 0
12, 90360, Note_on_c, 10, 62, 76
12, 90407, Note_on_c, 10, 62, 0
12, 90420, Note_on_c, 10, 66, 76
12, 90467, Note_on_c, 10, 66, 0
12, 90480, Note_on_c, 10, 71, 76
12, 90527, Note_on_c, 10, 71, 0
12, 90540, Note_on_c, 10, 74, 76
12, 90587, Note_on_c, 10, 74, 0
12, 90600, Note_on_c, 10, 73, 76
12, 90647, Note_on_c, 10, 73, 0
12, 90660, Note_on_c, 10, 76, 76
12, 90707, Note_on_c, 10, 76, 0
12, 90720, Note_on_c, 10, 74, 76
12, 90767, Note_on_c, 10, 74, 0
12, 90780, Note_on_c, 10, 78, 76
12, 90827, Note_on_c, 10, 78, 0
12, 90840, Note_on_c, 10, 83, 76
12, 90887, Note_on_c, 10, 83, 0
12, 90900, Note_on_c, 10, 74, 76
12, 90947, Note_on_c, 10, 74, 0
12, 90960, Note_on_c, 10, 73, 76
12, 91007, Note_on_c, 10, 73, 0
12, 91020, Note_on_c, 10, 83, 76
12, 91067, Note_on_c, 10, 83, 0
12, 91080, Note_on_c, 10, 73, 76
12, 91127, Note_on_c, 10, 73, 0
12, 91140, Note_on_c, 10, 82, 76
12, 91187, Note_on_c, 10, 82, 0
12, 91200, Note_on_c, 10, 83, 76
12, 91247, Note_on_c, 10, 83, 0
12, 91260, Note_on_c, 10, 78, 76
12, 91307, Note_on_c, 10, 78, 0
12, 91320, Note_on_c, 10, 74, 76
12, 91367, Note_on_c, 10, 74, 0
12, 91380, Note_on_c, 10, 78, 76
12, 91427, Note_on_c, 10, 78, 0
12, 91440, Note_on_c, 10, 71, 76
12, 91487, Note_on_c, 10, 71, 0
12, 91500, Note_on_c, 10, 74, 76
12, 91547, Note_on_c, 10, 74, 0
12, 91560, Note_on_c, 10, 68, 76
12, 91607, Note_on_c, 10, 68, 0
12, 91620, Note_on_c, 10, 77, 76
12, 91667, Note_on_c, 10, 77, 0
12, 91680, Note_on_c, 10, 78, 76
12, 91727, Note_on_c, 10, 78, 0
12, 91740, Note_on_c, 10, 73, 76
12, 91787, Note_on_c, 10, 73, 0
12, 91800, Note_on_c, 10, 69, 76
12, 91847, Note_on_c, 10, 69, 0
12, 91860, Note_on_c, 10, 78, 76
12, 91907, Note_on_c, 10, 78, 0
12, 91920, Note_on_c, 10, 68, 76
12, 91967, Note_on_c, 10, 68, 0
12, 91980, Note_on_c, 10, 78, 76
12, 92027, Note_on_c, 10, 78, 0
12, 92040, Note_on_c, 10, 68, 76
12, 92087, Note_on_c, 10, 68, 0
12, 92100, Note_on_c, 10, 77, 76
12, 92147, Note_on_c, 10, 77, 0
12, 92160, Note_on_c, 10, 78, 76
12, 92207, Note_on_c, 10, 78, 0
12, 92220, Note_on_c, 10, 73, 76
12, 92267, Note_on_c, 10, 73, 0
12, 92280, Note_on_c, 10, 69, 76
12, 92327, Note_on_c, 10, 69, 0
12, 92340, Note_on_c, 10, 73, 76
12, 92387, Note_on_c, 10, 73, 0
12, 92400, Note_on_c, 10, 78, 76
12, 92447, Note_on_c, 10, 78, 0
12, 92460, Note_on_c, 10, 79, 76
12, 92507, Note_on_c, 10, 79, 0
12, 92520, Note_on_c, 10, 81, 76
12, 92567, Note_on_c, 10, 81, 0
12, 92580, Note_on_c, 10, 78, 76
12, 92627, Note_on_c, 10, 78, 0
12, 92640, Note_on_c, 10, 72, 76
12, 92699, Note_on_c, 10, 72, 0
12, 92700, Note_on_c, 10, 71, 76
12, 92759, Note_on_c, 10, 71, 0
12, 92760, Note_on_c, 10, 72, 76
12, 92807, Note_on_c, 10, 72, 0
12, 92820, Note_on_c, 10, 81, 76
12, 92867, Note_on_c, 10, 81, 0
12, 92880, Note_on_c, 10, 72, 76
12, 92939, Note_on_c, 10, 72, 0
12, 92940, Note_on_c, 10, 71, 76
12, 92999, Note_on_c, 10, 71, 0
12, 93000, Note_on_c, 10, 72, 76
12, 93047, Note_on_c, 10, 72, 0
12, 93060, Note_on_c, 10, 81, 76
12, 93107, Note_on_c, 10, 81, 0
12, 93120, Note_on_c, 10, 71, 76
12, 93167, Note_on_c, 10, 71, 0
12, 93180, Note_on_c, 10, 69, 76
12, 93227, Note_on_c, 10, 69, 0
12, 93240, Note_on_c, 10, 71, 76
12, 93287, Note_on_c, 10, 71, 0
12, 93300, Note_on_c, 10, 73, 76
12, 93347, Note_on_c, 10, 73, 0
12, 93360, Note_on_c, 10, 75, 76
12, 93407, Note_on_c, 10, 75, 0
12, 93420, Note_on_c, 10, 76, 76
12, 93467, Note_on_c, 10, 76, 0
12, 93480, Note_on_c, 10, 78, 76
12, 93527, Note_on_c, 10, 78, 0
12, 93540, Note_on_c, 10, 79, 76
12, 93587, Note_on_c, 10, 79, 0
12, 93600, Note_on_c, 10, 81, 76
12, 93647, Note_on_c, 10, 81, 0
12, 93660, Note_on_c, 10, 78, 76
12, 93707, Note_on_c, 10, 78, 0
12, 93720, Note_on_c, 10, 75, 76
12, 93767, Note_on_c, 10, 75, 0
12, 93780, Note_on_c, 10, 78, 76
12, 93827, Note_on_c, 10, 78, 0
12, 93840, Note_on_c, 10, 71, 76
12, 93887, Note_on_c, 10, 71, 0
12, 93900, Note_on_c, 10, 81, 76
12, 93947, Note_on_c, 10, 81, 0
12, 93960, Note_on_c, 10, 79, 76
12, 94007, Note_on_c, 10, 79, 0
12, 94020, Note_on_c, 10, 78, 76
12, 94067, Note_on_c, 10, 78, 0
12, 94080, Note_on_c, 10, 79, 76
12, 94127, Note_on_c, 10, 79, 0
12, 94140, Note_on_c, 10, 76, 76
12, 94187, Note_on_c, 10, 76, 0
12, 94200, Note_on_c, 10, 71, 76
12, 94247, Note_on_c, 10, 71, 0
12, 94260, Note_on_c, 10, 67, 76
12, 94307, Note_on_c, 10, 67, 0
12, 94320, Note_on_c, 10, 71, 76
12, 94367, Note_on_c, 10, 71, 0
12, 94380, Note_on_c, 10, 76, 76
12, 94427, Note_on_c, 10, 76, 0
12, 94440, Note_on_c, 10, 79, 76
12, 94487, Note_on_c, 10, 79, 0
12, 94500, Note_on_c, 10, 81, 76
12, 94547, Note_on_c, 10, 81, 0
12, 94560, Note_on_c, 10, 80, 76
12, 94619, Note_on_c, 10, 80, 0
12, 94620, Note_on_c, 10, 78, 76
12, 94679, Note_on_c, 10, 78, 0
12, 94680, Note_on_c, 10, 80, 76
12, 94727, Note_on_c, 10, 80, 0
12, 94740, Note_on_c, 10, 83, 76
12, 94787, Note_on_c, 10, 83, 0
12, 94800, Note_on_c, 10, 80, 76
12, 94859, Note_on_c, 10, 80, 0
12, 94860, Note_on_c, 10, 78, 76
12, 94919, Note_on_c, 10, 78, 0
12, 94920, Note_on_c, 10, 80, 76
12, 94967, Note_on_c, 10, 80, 0
12, 94980, Note_on_c, 10, 83, 76
12, 95027, Note_on_c, 10, 83, 0
12, 95040, Note_on_c, 10, 81, 76
12, 95087, Note_on_c, 10, 81, 0
12, 95100, Note_on_c, 10, 76, 76
12, 95147, Note_on_c, 10, 76, 0
12, 95160, Note_on_c, 10, 73, 76
12, 95207, Note_on_c, 10, 73, 0
12, 95220, Note_on_c, 10, 76, 76
12, 95267, Note_on_c, 10, 76, 0
12, 95280, Note_on_c, 10, 69, 76
12, 95327, Note_on_c, 10, 69, 0
12, 95340, Note_on_c, 10, 71, 76
12, 95387, Note_on_c, 10, 71, 0
12, 95400, Note_on_c, 10, 73, 76
12, 95447, Note_on_c, 10, 73, 0
12, 95460, Note_on_c, 10, 74, 76
12, 95507, Note_on_c, 10, 74, 0
12, 95520, Note_on_c, 10, 76, 76
12, 95567, Note_on_c, 10, 76, 0
12, 95580, Note_on_c, 10, 78, 76
12, 95627, Note_on_c, 10, 78, 0
12, 95640, Note_on_c, 10, 79, 76
12, 95687, Note_on_c, 10, 79, 0
12, 95700, Note_on_c, 10, 81, 76
12, 95747, Note_on_c, 10, 81, 0
12, 95760, Note_on_c, 10, 79, 76
12, 95807, Note_on_c, 10, 79, 0
12, 95820, Note_on_c, 10, 78, 76
12, 95867, Note_on_c, 10, 78, 0
12, 95880, Note_on_c, 10, 79, 76
12, 95927, Note_on_c, 10, 79, 0
12, 95940, Note_on_c, 10, 76, 76
12, 95987, Note_on_c, 10, 76, 0
12, 96000, Note_on_c, 10, 78, 76
12, 96047, Note_on_c, 10, 78, 0
12, 96060, Note_on_c, 10, 74, 76
12, 96107, Note_on_c, 10, 74, 0
12, 96120, Note_on_c, 10, 69, 76
12, 96167, Note_on_c, 10, 69, 0
12, 96180, Note_on_c, 10, 72, 76
12, 96227, Note_on_c, 10, 72, 0
12, 96240, Note_on_c, 10, 71, 76
12, 96287, Note_on_c, 10, 71, 0
12, 96300, Note_on_c, 10, 74, 76
12, 96347, Note_on_c, 10, 74, 0
12, 96360, Note_on_c, 10, 67, 76
12, 96407, Note_on_c, 10, 67, 0
12, 96420, Note_on_c, 10, 78, 76
12, 96467, Note_on_c, 10, 78, 0
12, 96480, Note_on_c, 10, 76, 76
12, 96527, Note_on_c, 10, 76, 0
12, 96540, Note_on_c, 10, 73, 76
12, 96587, Note_on_c, 10, 73, 0
12, 96600, Note_on_c, 10, 67, 76
12, 96647, Note_on_c, 10, 67, 0
12, 96660, Note_on_c, 10, 71, 76
12, 96707, Note_on_c, 10, 71, 0
12, 96720, Note_on_c, 10, 69, 76
12, 96767, Note_on_c, 10, 69, 0
12, 96780, Note_on_c, 10, 73, 76
12, 96827, Note_on_c, 10, 73, 0
12, 96840, Note_on_c, 10, 66, 76
12, 96887, Note_on_c, 10, 66, 0
12, 96900, Note_on_c, 10, 76, 76
12, 96947, Note_on_c, 10, 76, 0
12, 96960, Note_on_c, 10, 74, 76
12, 97007, Note_on_c, 10, 74, 0
12, 97020, Note_on_c, 10, 71, 76
12, 97067, Note_on_c, 10, 71, 0
12, 97080, Note_on_c, 10, 66, 76
12, 97127, Note_on_c, 10, 66, 0
12, 97140, Note_on_c, 10, 69, 76
12, 97187, Note_on_c, 10, 69, 0
12, 97200, Note_on_c, 10, 67, 76
12, 97247, Note_on_c, 10, 67, 0
12, 97260, Note_on_c, 10, 71, 76
12, 97307, Note_on_c, 10, 71, 0
12, 97320, Note_on_c, 10, 64, 76
12, 97367, Note_on_c, 10, 64, 0
12, 97380, Note_on_c, 10, 74, 76
12, 97427, Note_on_c, 10, 74, 0
12, 97440, Note_on_c, 10, 73, 76
12, 97487, Note_on_c, 10, 73, 0
12, 97500, Note_on_c, 10, 76, 76
12, 97547, Note_on_c, 10, 76, 0
12, 97560, Note_on_c, 10, 69, 76
12, 97607, Note_on_c, 10, 69, 0
12, 97620, Note_on_c, 10, 73, 76
12, 97667, Note_on_c, 10, 73, 0
12, 97680, Note_on_c, 10, 74, 76
12, 97727, Note_on_c, 10, 74, 0
12, 97740, Note_on_c, 10, 78, 76
12, 97787, Note_on_c, 10, 78, 0
12, 97800, Note_on_c, 10, 69, 76
12, 97847, Note_on_c, 10, 69, 0
12, 97860, Note_on_c, 10, 74, 76
12, 97907, Note_on_c, 10, 74, 0
12, 97920, Note_on_c, 10, 76, 76
12, 97967, Note_on_c, 10, 76, 0
12, 97980, Note_on_c, 10, 79, 76
12, 98027, Note_on_c, 10, 79, 0
12, 98040, Note_on_c, 10, 69, 76
12, 98087, Note_on_c, 10, 69, 0
12, 98100, Note_on_c, 10, 76, 76
12, 98147, Note_on_c, 10, 76, 0
12, 98160, Note_on_c, 10, 78, 76
12, 98207, Note_on_c, 10, 78, 0
12, 98220, Note_on_c, 10, 81, 76
12, 98267, Note_on_c, 10, 81, 0
12, 98280, Note_on_c, 10, 74, 76
12, 98327, Note_on_c, 10, 74, 0
12, 98340, Note_on_c, 10, 78, 76
12, 98387, Note_on_c, 10, 78, 0
12, 98400, Note_on_c, 10, 73, 76
12, 98447, Note_on_c, 10, 73, 0
12, 98460, Note_on_c, 10, 76, 76
12, 98507, Note_on_c, 10, 76, 0
12, 98520, Note_on_c, 10, 69, 76
12, 98567, Note_on_c, 10, 69, 0
12, 98580, Note_on_c, 10, 73, 76
12, 98627, Note_on_c, 10, 73, 0
12, 98640, Note_on_c, 10, 76, 76
12, 98687, Note_on_c, 10, 76, 0
12, 98700, Note_on_c, 10, 79, 76
12, 98747, Note_on_c, 10, 79, 0
12, 98760, Note_on_c, 10, 78, 76
12, 98807, Note_on_c, 10, 78, 0
12, 98820, Note_on_c, 10, 76, 76
12, 98867, Note_on_c, 10, 76, 0
12, 98880, Note_on_c, 10, 78, 76
12, 98927, Note_on_c, 10, 78, 0
12, 98940, Note_on_c, 10, 74, 76
12, 98987, Note_on_c, 10, 74, 0
12, 99000, Note_on_c, 10, 71, 76
12, 99047, Note_on_c, 10, 71, 0
12, 99060, Note_on_c, 10, 74, 76
12, 99107, Note_on_c, 10, 74, 0
12, 99120, Note_on_c, 10, 68, 76
12, 99167, Note_on_c, 10, 68, 0
12, 99180, Note_on_c, 10, 78, 76
12, 99227, Note_on_c, 10, 78, 0
12, 99240, Note_on_c, 10, 76, 76
12, 99287, Note_on_c, 10, 76, 0
12, 99300, Note_on_c, 10, 74, 76
12, 99347, Note_on_c, 10, 74, 0
12, 99360, Note_on_c, 10, 73, 76
12, 99407, Note_on_c, 10, 73, 0
12, 99420, Note_on_c, 10, 74, 76
12, 99467, Note_on_c, 10, 74, 0
12, 99480, Note_on_c, 10, 73, 76
12, 99527, Note_on_c, 10, 73, 0
12, 99540, Note_on_c, 10, 71, 76
12, 99587, Note_on_c, 10, 71, 0
12, 99600, Note_on_c, 10, 69, 76
12, 99647, Note_on_c, 10, 69, 0
12, 99660, Note_on_c, 10, 67, 76
12, 99707, Note_on_c, 10, 67, 0
12, 99720, Note_on_c, 10, 66, 76
12, 99767, Note_on_c, 10, 66, 0
12, 99780, Note_on_c, 10, 64, 76
12, 99827, Note_on_c, 10, 64, 0
12, 99840, Note_on_c, 10, 63, 76
12, 99887, Note_on_c, 10, 63, 0
12, 99900, Note_on_c, 10, 69, 76
12, 99959, Note_on_c, 10, 69, 0
12, 99960, Note_on_c, 10, 71, 76
12, 100019, Note_on_c, 10, 71, 0
12, 100020, Note_on_c, 10, 69, 76
12, 100067, Note_on_c, 10, 69, 0
12, 100080, Note_on_c, 10, 71, 76
12, 100127, Note_on_c, 10, 71, 0
12, 100140, Note_on_c, 10, 69, 76
12, 100187, Note_on_c, 10, 69, 0
12, 100200, Note_on_c, 10, 71, 76
12, 100247, Note_on_c, 10, 71, 0
12, 100260, Note_on_c, 10, 69, 76
12, 100307, Note_on_c, 10, 69, 0
12, 100320, Note_on_c, 10, 62, 76
12, 100367, Note_on_c, 10, 62, 0
12, 100380, Note_on_c, 10, 69, 76
12, 100439, Note_on_c, 10, 69, 0
12, 100440, Note_on_c, 10, 71, 76
12, 100499, Note_on_c, 10, 71, 0
12, 100500, Note_on_c, 10, 69, 76
12, 100547, Note_on_c, 10, 69, 0
12, 100560, Note_on_c, 10, 71, 76
12, 100607, Note_on_c, 10, 71, 0
12, 100620, Note_on_c, 10, 69, 76
12, 100667, Note_on_c, 10, 69, 0
12, 100680, Note_on_c, 10, 71, 76
12, 100727, Note_on_c, 10, 71, 0
12, 100740, Note_on_c, 10, 69, 76
12, 100787, Note_on_c, 10, 69, 0
12, 100800, Note_on_c, 10, 63, 76
12, 100859, Note_on_c, 10, 63, 0
12, 100860, Note_on_c, 10, 69, 76
12, 100919, Note_on_c, 10, 69, 0
12, 100920, Note_on_c, 10, 71, 76
12, 100967, Note_on_c, 10, 71, 0
12, 100980, Note_on_c, 10, 72, 76
12, 101027, Note_on_c, 10, 72, 0
12, 101040, Note_on_c, 10, 71, 76
12, 101087, Note_on_c, 10, 71, 0
12, 101100, Note_on_c, 10, 69, 76
12, 101147, Note_on_c, 10, 69, 0
12, 101160, Note_on_c, 10, 68, 76
12, 101207, Note_on_c, 10, 68, 0
12, 101220, Note_on_c, 10, 66, 76
12, 101267, Note_on_c, 10, 66, 0
12, 101280, Note_on_c, 10, 62, 76
12, 101339, Note_on_c, 10, 62, 0
12, 101340, Note_on_c, 10, 68, 76
12, 101399, Note_on_c, 10, 68, 0
12, 101400, Note_on_c, 10, 71, 76
12, 101447, Note_on_c, 10, 71, 0
12, 101460, Note_on_c, 10, 68, 76
12, 101507, Note_on_c, 10, 68, 0
12, 101520, Note_on_c, 10, 71, 76
12, 101567, Note_on_c, 10, 71, 0
12, 101580, Note_on_c, 10, 68, 76
12, 101627, Note_on_c, 10, 68, 0
12, 101640, Note_on_c, 10, 71, 76
12, 101687, Note_on_c, 10, 71, 0
12, 101700, Note_on_c, 10, 68, 76
12, 101747, Note_on_c, 10, 68, 0
12, 101760, Note_on_c, 10, 62, 76
12, 101819, Note_on_c, 10, 62, 0
12, 101820, Note_on_c, 10, 68, 76
12, 101879, Note_on_c, 10, 68, 0
12, 101880, Note_on_c, 10, 71, 76
12, 101927, Note_on_c, 10, 71, 0
12, 101940, Note_on_c, 10, 68, 76
12, 101987, Note_on_c, 10, 68, 0
12, 102000, Note_on_c, 10, 71, 76
12, 102047, Note_on_c, 10, 71, 0
12, 102060, Note_on_c, 10, 68, 76
12, 102107, Note_on_c, 10, 68, 0
12, 102120, Note_on_c, 10, 71, 76
12, 102167, Note_on_c, 10, 71, 0
12, 102180, Note_on_c, 10, 68, 76
12, 102227, Note_on_c, 10, 68, 0
12, 102240, Note_on_c, 10, 62, 76
12, 102299, Note_on_c, 10, 62, 0
12, 102300, Note_on_c, 10, 68, 76
12, 102359, Note_on_c, 10, 68, 0
12, 102360, Note_on_c, 10, 71, 76
12, 102407, Note_on_c, 10, 71, 0
12, 102420, Note_on_c, 10, 69, 76
12, 102467, Note_on_c, 10, 69, 0
12, 102480, Note_on_c, 10, 68, 76
12, 102527, Note_on_c, 10, 68, 0
12, 102540, Note_on_c, 10, 66, 76
12, 102587, Note_on_c, 10, 66, 0
12, 102600, Note_on_c, 10, 64, 76
12, 102647, Note_on_c, 10, 64, 0
12, 102660, Note_on_c, 10, 62, 76
12, 102707, Note_on_c, 10, 62, 0
12, 102720, Note_on_c, 10, 61, 76
12, 102779, Note_on_c, 10, 61, 0
12, 102780, Note_on_c, 10, 67, 76
12, 102839, Note_on_c, 10, 67, 0
12, 102840, Note_on_c, 10, 69, 76
12, 102887, Note_on_c, 10, 69, 0
12, 102900, Note_on_c, 10, 67, 76
12, 102947, Note_on_c, 10, 67, 0
12, 102960, Note_on_c, 10, 69, 76
12, 103007, Note_on_c, 10, 69, 0
12, 103020, Note_on_c, 10, 67, 76
12, 103067, Note_on_c, 10, 67, 0
12, 103080, Note_on_c, 10, 69, 76
12, 103127, Note_on_c, 10, 69, 0
12, 103140, Note_on_c, 10, 67, 76
12, 103187, Note_on_c, 10, 67, 0
12, 103200, Note_on_c, 10, 61, 76
12, 103259, Note_on_c, 10, 61, 0
12, 103260, Note_on_c, 10, 67, 76
12, 103319, Note_on_c, 10, 67, 0
12, 103320, Note_on_c, 10, 69, 76
12, 103367, Note_on_c, 10, 69, 0
12, 103380, Note_on_c, 10, 67, 76
12, 103427, Note_on_c, 10, 67, 0
12, 103440, Note_on_c, 10, 69, 76
12, 103487, Note_on_c, 10, 69, 0
12, 103500, Note_on_c, 10, 67, 76
12, 103547, Note_on_c, 10, 67, 0
12, 103560, Note_on_c, 10, 69, 76
12, 103607, Note_on_c, 10, 69, 0
12, 103620, Note_on_c, 10, 67, 76
12, 103667, Note_on_c, 10, 67, 0
12, 103680, Note_on_c, 10, 61, 76
12, 103739, Note_on_c, 10, 61, 0
12, 103740, Note_on_c, 10, 67, 76
12, 103799, Note_on_c, 10, 67, 0
12, 103800, Note_on_c, 10, 69, 76
12, 103847, Note_on_c, 10, 69, 0
12, 103860, Note_on_c, 10, 71, 76
12, 103907, Note_on_c, 10, 71, 0
12, 103920, Note_on_c, 10, 69, 76
12, 103967, Note_on_c, 10, 69, 0
12, 103980, Note_on_c, 10, 67, 76
12, 104027, Note_on_c, 10, 67, 0
12, 104040, Note_on_c, 10, 66, 76
12, 104087, Note_on_c, 10, 66, 0
12, 104100, Note_on_c, 10, 64, 76
12, 104147, Note_on_c, 10, 64, 0
12, 104160, Note_on_c, 10, 60, 76
12, 104219, Note_on_c, 10, 60, 0
12, 104220, Note_on_c, 10, 66, 76
12, 104279, Note_on_c, 10, 66, 0
12, 104280, Note_on_c, 10, 69, 76
12, 104327, Note_on_c, 10, 69, 0
12, 104340, Note_on_c, 10, 66, 76
12, 104387, Note_on_c, 10, 66, 0
12, 104400, Note_on_c, 10, 69, 76
12, 104447, Note_on_c, 10, 69, 0
12, 104460, Note_on_c, 10, 66, 76
12, 104507, Note_on_c, 10, 66, 0
12, 104520, Note_on_c, 10, 69, 76
12, 104567, Note_on_c, 10, 69, 0
12, 104580, Note_on_c, 10, 66, 76
12, 104627, Note_on_c, 10, 66, 0
12, 104640, Note_on_c, 10, 60, 76
12, 104699, Note_on_c, 10, 60, 0
12, 104700, Note_on_c, 10, 66, 76
12, 104759, Note_on_c, 10, 66, 0
12, 104760, Note_on_c, 10, 69, 76
12, 104807, Note_on_c, 10, 69, 0
12, 104820, Note_on_c, 10, 66, 76
12, 104867, Note_on_c, 10, 66, 0
12, 104880, Note_on_c, 10, 69, 76
12, 104927, Note_on_c, 10, 69, 0
12, 104940, Note_on_c, 10, 66, 76
12, 104987, Note_on_c, 10, 66, 0
12, 105000, Note_on_c, 10, 69, 76
12, 105047, Note_on_c, 10, 69, 0
12, 105060, Note_on_c, 10, 66, 76
12, 105107, Note_on_c, 10, 66, 0
12, 105120, Note_on_c, 10, 60, 76
12, 105179, Note_on_c, 10, 60, 0
12, 105180, Note_on_c, 10, 66, 76
12, 105239, Note_on_c, 10, 66, 0
12, 105240, Note_on_c, 10, 69, 76
12, 105287, Note_on_c, 10, 69, 0
12, 105300, Note_on_c, 10, 67, 76
12, 105347, Note_on_c, 10, 67, 0
12, 105360, Note_on_c, 10, 66, 76
12, 105407, Note_on_c, 10, 66, 0
12, 105420, Note_on_c, 10, 64, 76
12, 105467, Note_on_c, 10, 64, 0
12, 105480, Note_on_c, 10, 62, 76
12, 105527, Note_on_c, 10, 62, 0
12, 105540, Note_on_c, 10, 60, 76
12, 105587, Note_on_c, 10, 60, 0
12, 105600, Note_on_c, 10, 59, 76
12, 105647, Note_on_c, 10, 59, 0
12, 105660, Note_on_c, 10, 55, 76
12, 105707, Note_on_c, 10, 55, 0
12, 105720, Note_on_c, 10, 57, 76
12, 105767, Note_on_c, 10, 57, 0
12, 105780, Note_on_c, 10, 60, 76
12, 105827, Note_on_c, 10, 60, 0
12, 105840, Note_on_c, 10, 59, 76
12, 105887, Note_on_c, 10, 59, 0
12, 105900, Note_on_c, 10, 62, 76
12, 105947, Note_on_c, 10, 62, 0
12, 105960, Note_on_c, 10, 61, 76
12, 106007, Note_on_c, 10, 61, 0
12, 106020, Note_on_c, 10, 64, 76
12, 106067, Note_on_c, 10, 64, 0
12, 106080, Note_on_c, 10, 62, 76
12, 106127, Note_on_c, 10, 62, 0
12, 106140, Note_on_c, 10, 59, 76
12, 106187, Note_on_c, 10, 59, 0
12, 106200, Note_on_c, 10, 61, 76
12, 106247, Note_on_c, 10, 61, 0
12, 106260, Note_on_c, 10, 64, 76
12, 106307, Note_on_c, 10, 64, 0
12, 106320, Note_on_c, 10, 62, 76
12, 106367, Note_on_c, 10, 62, 0
12, 106380, Note_on_c, 10, 66, 76
12, 106427, Note_on_c, 10, 66, 0
12, 106440, Note_on_c, 10, 64, 76
12, 106487, Note_on_c, 10, 64, 0
12, 106500, Note_on_c, 10, 67, 76
12, 106547, Note_on_c, 10, 67, 0
12, 106560, Note_on_c, 10, 66, 76
12, 106607, Note_on_c, 10, 66, 0
12, 106620, Note_on_c, 10, 62, 76
12, 106667, Note_on_c, 10, 62, 0
12, 106680, Note_on_c, 10, 64, 76
12, 106727, Note_on_c, 10, 64, 0
12, 106740, Note_on_c, 10, 67, 76
12, 106787, Note_on_c, 10, 67, 0
12, 106800, Note_on_c, 10, 66, 76
12, 106847, Note_on_c, 10, 66, 0
12, 106860, Note_on_c, 10, 69, 76
12, 106907, Note_on_c, 10, 69, 0
12, 106920, Note_on_c, 10, 67, 76
12, 106967, Note_on_c, 10, 67, 0
12, 106980, Note_on_c, 10, 71, 76
12, 107027, Note_on_c, 10, 71, 0
12, 107040, Note_on_c, 10, 69, 76
12, 107087, Note_on_c, 10, 69, 0
12, 107100, Note_on_c, 10, 62, 76
12, 107147, Note_on_c, 10, 62, 0
12, 107160, Note_on_c, 10, 66, 76
12, 107207, Note_on_c, 10, 66, 0
12, 107220, Note_on_c, 10, 69, 76
12, 107267, Note_on_c, 10, 69, 0
12, 107280, Note_on_c, 10, 74, 76
12, 107327, Note_on_c, 10, 74, 0
12, 107340, Note_on_c, 10, 78, 76
12, 107387, Note_on_c, 10, 78, 0
12, 107400, Note_on_c, 10, 76, 76
12, 107447, Note_on_c, 10, 76, 0
12, 107460, Note_on_c, 10, 74, 76
12, 107507, Note_on_c, 10, 74, 0
12, 107520, Note_on_c, 10, 73, 76
12, 107624, Note_on_c, 10, 73, 0
12, 107640, Note_on_c, 10, 69, 76
12, 107687, Note_on_c, 10, 69, 0
12, 107700, Note_on_c, 10, 71, 76
12, 107747, Note_on_c, 10, 71, 0
12, 107760, Note_on_c, 10, 73, 76
12, 107864, Note_on_c, 10, 73, 0
12, 107880, Note_on_c, 10, 73, 76
12, 107927, Note_on_c, 10, 73, 0
12, 107940, Note_on_c, 10, 74, 76
12, 107987, Note_on_c, 10, 74, 0
12, 108000, Note_on_c, 10, 76, 76
12, 108104, Note_on_c, 10, 76, 0
12, 108120, Note_on_c, 10, 73, 76
12, 108167, Note_on_c, 10, 73, 0
12, 108180, Note_on_c, 10, 74, 76
12, 108227, Note_on_c, 10, 74, 0
12, 108240, Note_on_c, 10, 76, 76
12, 108344, Note_on_c, 10, 76, 0
12, 108360, Note_on_c, 10, 76, 76
12, 108407, Note_on_c, 10, 76, 0
12, 108420, Note_on_c, 10, 78, 76
12, 108467, Note_on_c, 10, 78, 0
12, 108480, Note_on_c, 10, 79, 76
12, 108584, Note_on_c, 10, 79, 0
12, 108600, Note_on_c, 10, 79, 76
12, 108647, Note_on_c, 10, 79, 0
12, 108660, Note_on_c, 10, 78, 76
12, 108707, Note_on_c, 10, 78, 0
12, 108720, Note_on_c, 10, 79, 76
12, 108824, Note_on_c, 10, 79, 0
12, 108840, Note_on_c, 10, 81, 76
12, 108887, Note_on_c, 10, 81, 0
12, 108900, Note_on_c, 10, 79, 76
12, 108947, Note_on_c, 10, 79, 0
12, 108960, Note_on_c, 10, 78, 76
12, 109064, Note_on_c, 10, 78, 0
12, 109080, Note_on_c, 10, 81, 76
12, 109184, Note_on_c, 10, 81, 0
12, 109200, Note_on_c, 10, 74, 76
12, 109304, Note_on_c, 10, 74, 0
12, 109320, Note_on_c, 10, 78, 76
12, 109544, Note_on_c, 10, 78, 0
12, 109560, Note_on_c, 10, 81, 76
12, 109664, Note_on_c, 10, 81, 0
12, 109680, Note_on_c, 10, 72, 76
12, 109784, Note_on_c, 10, 72, 0
12, 109800, Note_on_c, 10, 78, 76
12, 110024, Note_on_c, 10, 78, 0
12, 110040, Note_on_c, 10, 81, 76
12, 110144, Note_on_c, 10, 81, 0
12, 110160, Note_on_c, 10, 74, 76
12, 110264, Note_on_c, 10, 74, 0
12, 110280, Note_on_c, 10, 78, 76
12, 110384, Note_on_c, 10, 78, 0
12, 110400, Note_on_c, 10, 79, 76
12, 110504, Note_on_c, 10, 79, 0
12, 110520, Note_on_c, 10, 83, 76
12, 110624, Note_on_c, 10, 83, 0
12, 110640, Note_on_c, 10, 74, 76
12, 110744, Note_on_c, 10, 74, 0
12, 110760, Note_on_c, 10, 80, 76
12, 110984, Note_on_c, 10, 80, 0
12, 111000, Note_on_c, 10, 83, 76
12, 111104, Note_on_c, 10, 83, 0
12, 111120, Note_on_c, 10, 76, 76
12, 111224, Note_on_c, 10, 76, 0
12, 111240, Note_on_c, 10, 80, 76
12, 111344, Note_on_c, 10, 80, 0
12, 111360, Note_on_c, 10, 81, 76
12, 111407, Note_on_c, 10, 81, 0
12, 111420, Note_on_c, 10, 76, 76
12, 111467, Note_on_c, 10, 76, 0
12, 111480, Note_on_c, 10, 73, 76
12, 111527, Note_on_c, 10, 73, 0
12, 111540, Note_on_c, 10, 74, 76
12, 111587, Note_on_c, 10, 74, 0
12, 111600, Note_on_c, 10, 76, 76
12, 111647, Note_on_c, 10, 76, 0
12, 111660, Note_on_c, 10, 78, 76
12, 111707, Note_on_c, 10, 78, 0
12, 111720, Note_on_c, 10, 76, 76
12, 111767, Note_on_c, 10, 76, 0
12, 111780, Note_on_c, 10, 78, 76
12, 111827, Note_on_c, 10, 78, 0
12, 111840, Note_on_c, 10, 79, 76
12, 111887, Note_on_c, 10, 79, 0
12, 111900, Note_on_c, 10, 76, 76
12, 111947, Note_on_c, 10, 76, 0
12, 111960, Note_on_c, 10, 69, 76
12, 112007, Note_on_c, 10, 69, 0
12, 112020, Note_on_c, 10, 71, 76
12, 112067, Note_on_c, 10, 71, 0
12, 112080, Note_on_c, 10, 73, 76
12, 112127, Note_on_c, 10, 73, 0
12, 112140, Note_on_c, 10, 74, 76
12, 112187, Note_on_c, 10, 74, 0
12, 112200, Note_on_c, 10, 73, 76
12, 112247, Note_on_c, 10, 73, 0
12, 112260, Note_on_c, 10, 74, 76
12, 112307, Note_on_c, 10, 74, 0
12, 112320, Note_on_c, 10, 76, 76
12, 112367, Note_on_c, 10, 76, 0
12, 112380, Note_on_c, 10, 74, 76
12, 112427, Note_on_c, 10, 74, 0
12, 112440, Note_on_c, 10, 73, 76
12, 112487, Note_on_c, 10, 73, 0
12, 112500, Note_on_c, 10, 74, 76
12, 112547, Note_on_c, 10, 74, 0
12, 112560, Note_on_c, 10, 76, 76
12, 112607, Note_on_c, 10, 76, 0
12, 112620, Note_on_c, 10, 74, 76
12, 112667, Note_on_c, 10, 74, 0
12, 112680, Note_on_c, 10, 73, 76
12, 112727, Note_on_c, 10, 73, 0
12, 112740, Note_on_c, 10, 71, 76
12, 112787, Note_on_c, 10, 71, 0
12, 112800, Note_on_c, 10, 69, 76
12, 112847, Note_on_c, 10, 69, 0
12, 112860, Note_on_c, 10, 74, 76
12, 112907, Note_on_c, 10, 74, 0
12, 112920, Note_on_c, 10, 73, 76
12, 112967, Note_on_c, 10, 73, 0
12, 112980, Note_on_c, 10, 71, 76
12, 113027, Note_on_c, 10, 71, 0
12, 113040, Note_on_c, 10, 69, 76
12, 113087, Note_on_c, 10, 69, 0
12, 113100, Note_on_c, 10, 67, 76
12, 113147, Note_on_c, 10, 67, 0
12, 113160, Note_on_c, 10, 66, 76
12, 113207, Note_on_c, 10, 66, 0
12, 113220, Note_on_c, 10, 64, 76
12, 113267, Note_on_c, 10, 64, 0
12, 113280, Note_on_c, 10, 62, 76
12, 113384, Note_on_c, 10, 62, 0
12, 113400, Note_on_c, 10, 74, 76
12, 113504, Note_on_c, 10, 74, 0
12, 113520, Note_on_c, 10, 74, 76
12, 113624, Note_on_c, 10, 74, 0
12, 113640, Note_on_c, 10, 74, 76
12, 113744, Note_on_c, 10, 74, 0
12, 113760, Note_on_c, 10, 74, 76
12, 113864, Note_on_c, 10, 74, 0
12, 113880, Note_on_c, 10, 74, 76
12, 113984, Note_on_c, 10, 74, 0
12, 114000, Note_on_c, 10, 74, 76
12, 114104, Note_on_c, 10, 74, 0
12, 114120, Note_on_c, 10, 74, 76
12, 114224, Note_on_c, 10, 74, 0
12, 114240, Note_on_c, 10, 74, 76
12, 114344, Note_on_c, 10, 74, 0
12, 114360, Note_on_c, 10, 76, 76
12, 114464, Note_on_c, 10, 76, 0
12, 114480, Note_on_c, 10, 76, 76
12, 114584, Note_on_c, 10, 76, 0
12, 114600, Note_on_c, 10, 76, 76
12, 114704, Note_on_c, 10, 76, 0
12, 114720, Note_on_c, 10, 76, 76
12, 114824, Note_on_c, 10, 76, 0
12, 114840, Note_on_c, 10, 76, 76
12, 114944, Note_on_c, 10, 76, 0
12, 114960, Note_on_c, 10, 76, 76
12, 115064, Note_on_c, 10, 76, 0
12, 115080, Note_on_c, 10, 76, 76
12, 115184, Note_on_c, 10, 76, 0
12, 115200, Note_on_c, 10, 76, 76
12, 115304, Note_on_c, 10, 76, 0
12, 115320, Note_on_c, 10, 76, 76
12, 115424, Note_on_c, 10, 76, 0
12, 115440, Note_on_c, 10, 76, 76
12, 115544, Note_on_c, 10, 76, 0
12, 115560, Note_on_c, 10, 76, 76
12, 115664, Note_on_c, 10, 76, 0
12, 115680, Note_on_c, 10, 76, 76
12, 115784, Note_on_c, 10, 76, 0
12, 115800, Note_on_c, 10, 69, 76
12, 115847, Note_on_c, 10, 69, 0
12, 115860, Note_on_c, 10, 71, 76
12, 115907, Note_on_c, 10, 71, 0
12, 115920, Note_on_c, 10, 73, 76
12, 116024, Note_on_c, 10, 73, 0
12, 116040, Note_on_c, 10, 73, 76
12, 116087, Note_on_c, 10, 73, 0
12, 116100, Note_on_c, 10, 74, 76
12, 116147, Note_on_c, 10, 74, 0
12, 116160, Note_on_c, 10, 76, 76
12, 116264, Note_on_c, 10, 76, 0
12, 116280, Note_on_c, 10, 73, 76
12, 116327, Note_on_c, 10, 73, 0
12, 116340, Note_on_c, 10, 74, 76
12, 116387, Note_on_c, 10, 74, 0
12, 116400, Note_on_c, 10, 76, 76
12, 116504, Note_on_c, 10, 76, 0
12, 116520, Note_on_c, 10, 76, 76
12, 116567, Note_on_c, 10, 76, 0
12, 116580, Note_on_c, 10, 78, 76
12, 116627, Note_on_c, 10, 78, 0
12, 116640, Note_on_c, 10, 79, 76
12, 116744, Note_on_c, 10, 79, 0
12, 116760, Note_on_c, 10, 79, 76
12, 116807, Note_on_c, 10, 79, 0
12, 116820, Note_on_c, 10, 78, 76
12, 116867, Note_on_c, 10, 78, 0
12, 116880, Note_on_c, 10, 79, 76
12, 116984, Note_on_c, 10, 79, 0
12, 117000, Note_on_c, 10, 81, 76
12, 117047, Note_on_c, 10, 81, 0
12, 117060, Note_on_c, 10, 79, 76
12, 117107, Note_on_c, 10, 79, 0
12, 117120, Note_on_c, 10, 78, 76
12, 117224, Note_on_c, 10, 78, 0
12, 117240, Note_on_c, 10, 78, 76
12, 117287, Note_on_c, 10, 78, 0
12, 117300, Note_on_c, 10, 76, 76
12, 117347, Note_on_c, 10, 76, 0
12, 117360, Note_on_c, 10, 78, 76
12, 117464, Note_on_c, 10, 78, 0
12, 117480, Note_on_c, 10, 79, 76
12, 117527, Note_on_c, 10, 79, 0
12, 117540, Note_on_c, 10, 78, 76
12, 117587, Note_on_c, 10, 78, 0
12, 117600, Note_on_c, 10, 76, 76
12, 117704, Note_on_c, 10, 76, 0
12, 117720, Note_on_c, 10, 76, 76
12, 117767, Note_on_c, 10, 76, 0
12, 117780, Note_on_c, 10, 74, 76
12, 117827, Note_on_c, 10, 74, 0
12, 117840, Note_on_c, 10, 76, 76
12, 117944, Note_on_c, 10, 76, 0
12, 117960, Note_on_c, 10, 78, 76
12, 118007, Note_on_c, 10, 78, 0
12, 118020, Note_on_c, 10, 76, 76
12, 118067, Note_on_c, 10, 76, 0
12, 118080, Note_on_c, 10, 74, 76
12, 118184, Note_on_c, 10, 74, 0
12, 118200, Note_on_c, 10, 74, 76
12, 118247, Note_on_c, 10, 74, 0
12, 118260, Note_on_c, 10, 76, 76
12, 118307, Note_on_c, 10, 76, 0
12, 118320, Note_on_c, 10, 78, 76
12, 118424, Note_on_c, 10, 78, 0
12, 118440, Note_on_c, 10, 78, 76
12, 118487, Note_on_c, 10, 78, 0
12, 118500, Note_on_c, 10, 79, 76
12, 118547, Note_on_c, 10, 79, 0
12, 118560, Note_on_c, 10, 81, 76
12, 118664, Note_on_c, 10, 81, 0
12, 118680, Note_on_c, 10, 78, 76
12, 118727, Note_on_c, 10, 78, 0
12, 118740, Note_on_c, 10, 79, 76
12, 118787, Note_on_c, 10, 79, 0
12, 118800, Note_on_c, 10, 81, 76
12, 118904, Note_on_c, 10, 81, 0
12, 118920, Note_on_c, 10, 81, 76
12, 118967, Note_on_c, 10, 81, 0
12, 118980, Note_on_c, 10, 83, 76
12, 119027, Note_on_c, 10, 83, 0
12, 119040, Note_on_c, 10, 84, 76
12, 119144, Note_on_c, 10, 84, 0
12, 119160, Note_on_c, 10, 84, 76
12, 119207, Note_on_c, 10, 84, 0
12, 119220, Note_on_c, 10, 83, 76
12, 119267, Note_on_c, 10, 83, 0
12, 119280, Note_on_c, 10, 84, 76
12, 119384, Note_on_c, 10, 84, 0
12, 119400, Note_on_c, 10, 86, 76
12, 119447, Note_on_c, 10, 86, 0
12, 119460, Note_on_c, 10, 84, 76
12, 119507, Note_on_c, 10, 84, 0
12, 119520, Note_on_c, 10, 83, 76
12, 119567, Note_on_c, 10, 83, 0
12, 119580, Note_on_c, 10, 79, 76
12, 119627, Note_on_c, 10, 79, 0
12, 119640, Note_on_c, 10, 76, 76
12, 119687, Note_on_c, 10, 76, 0
12, 119700, Note_on_c, 10, 78, 76
12, 119747, Note_on_c, 10, 78, 0
12, 119760, Note_on_c, 10, 79, 76
12, 119807, Note_on_c, 10, 79, 0
12, 119820, Note_on_c, 10, 81, 76
12, 119867, Note_on_c, 10, 81, 0
12, 119880, Note_on_c, 10, 78, 76
12, 119927, Note_on_c, 10, 78, 0
12, 119940, Note_on_c, 10, 79, 76
12, 119987, Note_on_c, 10, 79, 0
12, 120000, Note_on_c, 10, 81, 76
12, 120047, Note_on_c, 10, 81, 0
12, 120060, Note_on_c, 10, 78, 76
12, 120107, Note_on_c, 10, 78, 0
12, 120120, Note_on_c, 10, 74, 76
12, 120167, Note_on_c, 10, 74, 0
12, 120180, Note_on_c, 10, 76, 76
12, 120227, Note_on_c, 10, 76, 0
12, 120240, Note_on_c, 10, 78, 76
12, 120287, Note_on_c, 10, 78, 0
12, 120300, Note_on_c, 10, 79, 76
12, 120347, Note_on_c, 10, 79, 0
12, 120360, Note_on_c, 10, 76, 76
12, 120407, Note_on_c, 10, 76, 0
12, 120420, Note_on_c, 10, 78, 76
12, 120467, Note_on_c, 10, 78, 0
12, 120480, Note_on_c, 10, 79, 76
12, 120527, Note_on_c, 10, 79, 0
12, 120540, Note_on_c, 10, 78, 76
12, 120587, Note_on_c, 10, 78, 0
12, 120600, Note_on_c, 10, 76, 76
12, 120647, Note_on_c, 10, 76, 0
12, 120660, Note_on_c, 10, 79, 76
12, 120707, Note_on_c, 10, 79, 0
12, 120720, Note_on_c, 10, 78, 76
12, 120767, Note_on_c, 10, 78, 0
12, 120780, Note_on_c, 10, 76, 76
12, 120827, Note_on_c, 10, 76, 0
12, 120840, Note_on_c, 10, 74, 76
12, 120887, Note_on_c, 10, 74, 0
12, 120900, Note_on_c, 10, 78, 76
12, 120947, Note_on_c, 10, 78, 0
12, 120960, Note_on_c, 10, 76, 76
12, 121007, Note_on_c, 10, 76, 0
12, 121020, Note_on_c, 10, 81, 76
12, 121067, Note_on_c, 10, 81, 0
12, 121080, Note_on_c, 10, 73, 76
12, 121127, Note_on_c, 10, 73, 0
12, 121140, Note_on_c, 10, 74, 76
12, 121187, Note_on_c, 10, 74, 0
12, 121200, Note_on_c, 10, 76, 76
12, 121247, Note_on_c, 10, 76, 0
12, 121260, Note_on_c, 10, 78, 76
12, 121307, Note_on_c, 10, 78, 0
12, 121320, Note_on_c, 10, 76, 76
12, 121367, Note_on_c, 10, 76, 0
12, 121380, Note_on_c, 10, 78, 76
12, 121427, Note_on_c, 10, 78, 0
12, 121440, Note_on_c, 10, 79, 76
12, 121487, Note_on_c, 10, 79, 0
12, 121500, Note_on_c, 10, 76, 76
12, 121547, Note_on_c, 10, 76, 0
12, 121560, Note_on_c, 10, 69, 76
12, 121607, Note_on_c, 10, 69, 0
12, 121620, Note_on_c, 10, 71, 76
12, 121667, Note_on_c, 10, 71, 0
12, 121680, Note_on_c, 10, 73, 76
12, 121727, Note_on_c, 10, 73, 0
12, 121740, Note_on_c, 10, 74, 76
12, 121787, Note_on_c, 10, 74, 0
12, 121800, Note_on_c, 10, 73, 76
12, 121847, Note_on_c, 10, 73, 0
12, 121860, Note_on_c, 10, 74, 76
12, 121907, Note_on_c, 10, 74, 0
12, 121920, Note_on_c, 10, 76, 76
12, 121967, Note_on_c, 10, 76, 0
12, 121980, Note_on_c, 10, 74, 76
12, 122027, Note_on_c, 10, 74, 0
12, 122040, Note_on_c, 10, 73, 76
12, 122087, Note_on_c, 10, 73, 0
12, 122100, Note_on_c, 10, 74, 76
12, 122147, Note_on_c, 10, 74, 0
12, 122160, Note_on_c, 10, 76, 76
12, 122207, Note_on_c, 10, 76, 0
12, 122220, Note_on_c, 10, 79, 76
12, 122267, Note_on_c, 10, 79, 0
12, 122280, Note_on_c, 10, 78, 76
12, 122327, Note_on_c, 10, 78, 0
12, 122340, Note_on_c, 10, 76, 76
12, 122387, Note_on_c, 10, 76, 0
12, 122400, Note_on_c, 10, 81, 76
12, 122447, Note_on_c, 10, 81, 0
12, 122460, Note_on_c, 10, 79, 76
12, 122507, Note_on_c, 10, 79, 0
12, 122520, Note_on_c, 10, 78, 76
12, 122567, Note_on_c, 10, 78, 0
12, 122580, Note_on_c, 10, 79, 76
12, 122627, Note_on_c, 10, 79, 0
12, 122640, Note_on_c, 10, 81, 76
12, 122687, Note_on_c, 10, 81, 0
12, 122700, Note_on_c, 10, 78, 76
12, 122747, Note_on_c, 10, 78, 0
12, 122760, Note_on_c, 10, 74, 76
12, 122807, Note_on_c, 10, 74, 0
12, 122820, Note_on_c, 10, 78, 76
12, 122867, Note_on_c, 10, 78, 0
12, 122880, Note_on_c, 10, 79, 76
12, 122927, Note_on_c, 10, 79, 0
12, 122940, Note_on_c, 10, 78, 76
12, 122987, Note_on_c, 10, 78, 0
12, 123000, Note_on_c, 10, 76, 76
12, 123047, Note_on_c, 10, 76, 0
12, 123060, Note_on_c, 10, 78, 76
12, 123107, Note_on_c, 10, 78, 0
12, 123120, Note_on_c, 10, 79, 76
12, 123167, Note_on_c, 10, 79, 0
12, 123180, Note_on_c, 10, 83, 76
12, 123227, Note_on_c, 10, 83, 0
12, 123240, Note_on_c, 10, 81, 76
12, 123287, Note_on_c, 10, 81, 0
12, 123300, Note_on_c, 10, 79, 76
12, 123347, Note_on_c, 10, 79, 0
12, 123360, Note_on_c, 10, 78, 76
12, 123464, Note_on_c, 10, 78, 0
12, 123480, Note_on_c, 10, 74, 76
12, 123584, Note_on_c, 10, 74, 0
12, 123600, Note_on_c, 10, 71, 76
12, 123704, Note_on_c, 10, 71, 0
12, 123720, Note_on_c, 10, 76, 76
12, 123824, Note_on_c, 10, 76, 0
12, 123840, Note_on_c, 10, 73, 76
12, 123887, Note_on_c, 10, 73, 0
12, 123900, Note_on_c, 10, 69, 76
12, 123947, Note_on_c, 10, 69, 0
12, 123960, Note_on_c, 10, 71, 76
12, 124007, Note_on_c, 10, 71, 0
12, 124020, Note_on_c, 10, 73, 76
12, 124067, Note_on_c, 10, 73, 0
12, 124080, Note_on_c, 10, 74, 76
12, 124127, Note_on_c, 10, 74, 0
12, 124140, Note_on_c, 10, 76, 76
12, 124187, Note_on_c, 10, 76, 0
12, 124200, Note_on_c, 10, 78, 76
12, 124247, Note_on_c, 10, 78, 0
12, 124260, Note_on_c, 10, 79, 76
12, 124307, Note_on_c, 10, 79, 0
12, 124320, Note_on_c, 10, 78, 76
12, 124367, Note_on_c, 10, 78, 0
12, 124380, Note_on_c, 10, 76, 76
12, 124427, Note_on_c, 10, 76, 0
12, 124440, Note_on_c, 10, 74, 76
12, 124487, Note_on_c, 10, 74, 0
12, 124500, Note_on_c, 10, 76, 76
12, 124547, Note_on_c, 10, 76, 0
12, 124560, Note_on_c, 10, 69, 76
12, 124664, Note_on_c, 10, 69, 0
12, 124680, Note_on_c, 10, 73, 76
12, 124784, Note_on_c, 10, 73, 0
12, 124800, Note_on_c, 10, 74, 76
12, 125093, Note_on_c, 10, 74, 0
12, 125100, Note_on_c, 10, 76, 76
12, 125153, Note_on_c, 10, 76, 0
12, 125160, Note_on_c, 10, 78, 76
12, 125213, Note_on_c, 10, 78, 0
12, 125220, Note_on_c, 10, 74, 76
12, 125273, Note_on_c, 10, 74, 0
12, 125280, Note_on_c, 10, 69, 76
12, 125573, Note_on_c, 10, 69, 0
12, 125580, Note_on_c, 10, 71, 76
12, 125633, Note_on_c, 10, 71, 0
12, 125640, Note_on_c, 10, 72, 76
12, 125693, Note_on_c, 10, 72, 0
12, 125700, Note_on_c, 10, 69, 76
12, 125753, Note_on_c, 10, 69, 0
12, 125760, Note_on_c, 10, 66, 76
12, 126053, Note_on_c, 10, 66, 0
12, 126060, Note_on_c, 10, 67, 76
12, 126113, Note_on_c, 10, 67, 0
12, 126120, Note_on_c, 10, 69, 76
12, 126173, Note_on_c, 10, 69, 0
12, 126180, Note_on_c, 10, 66, 76
12, 126233, Note_on_c, 10, 66, 0
12, 126240, Note_on_c, 10, 62, 76
12, 126565, Note_on_c, 10, 62, 0
12, 126570, Note_on_c, 10, 64, 76
12, 126595, Note_on_c, 10, 64, 0
12, 126600, Note_on_c, 10, 66, 76
12, 126625, Note_on_c, 10, 66, 0
12, 126630, Note_on_c, 10, 67, 76
12, 126655, Note_on_c, 10, 67, 0
12, 126660, Note_on_c, 10, 69, 76
12, 126685, Note_on_c, 10, 69, 0
12, 126690, Note_on_c, 10, 71, 76
12, 126715, Note_on_c, 10, 71, 0
12, 126720, Note_on_c, 10, 72, 76
12, 126893, Note_on_c, 10, 72, 0
12, 126900, Note_on_c, 10, 72, 76
12, 126953, Note_on_c, 10, 72, 0
12, 126960, Note_on_c, 10, 74, 76
12, 127133, Note_on_c, 10, 74, 0
12, 127140, Note_on_c, 10, 76, 76
12, 127193, Note_on_c, 10, 76, 0
12, 127200, Note_on_c, 10, 74, 76
12, 127373, Note_on_c, 10, 74, 0
12, 127380, Note_on_c, 10, 72, 76
12, 127433, Note_on_c, 10, 72, 0
12, 127440, Note_on_c, 10, 71, 76
12, 127613, Note_on_c, 10, 71, 0
12, 127620, Note_on_c, 10, 69, 76
12, 127673, Note_on_c, 10, 69, 0
12, 127680, Note_on_c, 10, 71, 76
12, 127907, Note_on_c, 10, 71, 0
12, 127920, Note_on_c, 10, 67, 76
12, 128147, Note_on_c, 10, 67, 0
12, 128160, Note_on_c, 10, 71, 76
12, 128507, Note_on_c, 10, 71, 0
12, 128520, Note_on_c, 10, 73, 76
12, 128627, Note_on_c, 10, 73, 0
12, 128640, Note_on_c, 10, 74, 76
12, 128933, Note_on_c, 10, 74, 0
12, 128940, Note_on_c, 10, 73, 76
12, 128993, Note_on_c, 10, 73, 0
12, 129000, Note_on_c, 10, 74, 76
12, 129053, Note_on_c, 10, 74, 0
12, 129060, Note_on_c, 10, 76, 76
12, 129113, Note_on_c, 10, 76, 0
12, 129120, Note_on_c, 10, 75, 76
12, 129134, Note_on_c, 10, 75, 0
12, 129135, Note_on_c, 10, 76, 76
12, 129149, Note_on_c, 10, 76, 0
12, 129150, Note_on_c, 10, 75, 76
12, 129164, Note_on_c, 10, 75, 0
12, 129165, Note_on_c, 10, 76, 76
12, 129179, Note_on_c, 10, 76, 0
12, 129180, Note_on_c, 10, 75, 76
12, 129194, Note_on_c, 10, 75, 0
12, 129195, Note_on_c, 10, 76, 76
12, 129209, Note_on_c, 10, 76, 0
12, 129210, Note_on_c, 10, 75, 76
12, 129224, Note_on_c, 10, 75, 0
12, 129225, Note_on_c, 10, 76, 76
12, 129239, Note_on_c, 10, 76, 0
12, 129240, Note_on_c, 10, 75, 76
12, 129254, Note_on_c, 10, 75, 0
12, 129255, Note_on_c, 10, 76, 76
12, 129269, Note_on_c, 10, 76, 0
12, 129270, Note_on_c, 10, 75, 76
12, 129284, Note_on_c, 10, 75, 0
12, 129285, Note_on_c, 10, 76, 76
12, 129299, Note_on_c, 10, 76, 0
12, 129300, Note_on_c, 10, 75, 76
12, 129314, Note_on_c, 10, 75, 0
12, 129315, Note_on_c, 10, 76, 76
12, 129329, Note_on_c, 10, 76, 0
12, 129330, Note_on_c, 10, 75, 76
12, 129344, Note_on_c, 10, 75, 0
12, 129345, Note_on_c, 10, 76, 76
12, 129359, Note_on_c, 10, 76, 0
12, 129360, Note_on_c, 10, 75, 76
12, 129374, Note_on_c, 10, 75, 0
12, 129375, Note_on_c, 10, 76, 76
12, 129389, Note_on_c, 10, 76, 0
12, 129390, Note_on_c, 10, 75, 76
12, 129404, Note_on_c, 10, 75, 0
12, 129405, Note_on_c, 10, 76, 76
12, 129419, Note_on_c, 10, 76, 0
12, 129420, Note_on_c, 10, 75, 76
12, 129434, Note_on_c, 10, 75, 0
12, 129435, Note_on_c, 10, 76, 76
12, 129449, Note_on_c, 10, 76, 0
12, 129450, Note_on_c, 10, 73, 76
12, 129464, Note_on_c, 10, 73, 0
12, 129465, Note_on_c, 10, 75, 76
12, 129479, Note_on_c, 10, 75, 0
12, 129480, Note_on_c, 10, 76, 76
12, 129587, Note_on_c, 10, 76, 0
12, 129600, Note_on_c, 10, 78, 76
12, 129893, Note_on_c, 10, 78, 0
12, 129900, Note_on_c, 10, 81, 76
12, 129953, Note_on_c, 10, 81, 0
12, 129960, Note_on_c, 10, 79, 76
12, 130013, Note_on_c, 10, 79, 0
12, 130020, Note_on_c, 10, 78, 76
12, 130073, Note_on_c, 10, 78, 0
12, 130080, Note_on_c, 10, 83, 76
12, 130253, Note_on_c, 10, 83, 0
12, 130260, Note_on_c, 10, 81, 76
12, 130313, Note_on_c, 10, 81, 0
12, 130320, Note_on_c, 10, 79, 76
12, 130493, Note_on_c, 10, 79, 0
12, 130500, Note_on_c, 10, 78, 76
12, 130553, Note_on_c, 10, 78, 0
12, 130560, Note_on_c, 10, 79, 76
12, 130733, Note_on_c, 10, 79, 0
12, 130740, Note_on_c, 10, 78, 76
12, 130793, Note_on_c, 10, 78, 0
12, 130800, Note_on_c, 10, 76, 76
12, 130973, Note_on_c, 10, 76, 0
12, 130980, Note_on_c, 10, 78, 76
12, 131033, Note_on_c, 10, 78, 0
12, 131040, Note_on_c, 10, 78, 76
12, 131054, Note_on_c, 10, 78, 0
12, 131055, Note_on_c, 10, 79, 76
12, 131069, Note_on_c, 10, 79, 0
12, 131070, Note_on_c, 10, 78, 76
12, 131084, Note_on_c, 10, 78, 0
12, 131085, Note_on_c, 10, 79, 76
12, 131099, Note_on_c, 10, 79, 0
12, 131100, Note_on_c, 10, 78, 76
12, 131114, Note_on_c, 10, 78, 0
12, 131115, Note_on_c, 10, 79, 76
12, 131129, Note_on_c, 10, 79, 0
12, 131130, Note_on_c, 10, 78, 76
12, 131144, Note_on_c, 10, 78, 0
12, 131145, Note_on_c, 10, 79, 76
12, 131159, Note_on_c, 10, 79, 0
12, 131160, Note_on_c, 10, 78, 76
12, 131174, Note_on_c, 10, 78, 0
12, 131175, Note_on_c, 10, 79, 76
12, 131189, Note_on_c, 10, 79, 0
12, 131190, Note_on_c, 10, 78, 76
12, 131204, Note_on_c, 10, 78, 0
12, 131205, Note_on_c, 10, 79, 76
12, 131219, Note_on_c, 10, 79, 0
12, 131220, Note_on_c, 10, 78, 76
12, 131234, Note_on_c, 10, 78, 0
12, 131235, Note_on_c, 10, 79, 76
12, 131249, Note_on_c, 10, 79, 0
12, 131250, Note_on_c, 10, 78, 76
12, 131264, Note_on_c, 10, 78, 0
12, 131265, Note_on_c, 10, 79, 76
12, 131279, Note_on_c, 10, 79, 0
12, 131280, Note_on_c, 10, 78, 76
12, 131294, Note_on_c, 10, 78, 0
12, 131295, Note_on_c, 10, 79, 76
12, 131309, Note_on_c, 10, 79, 0
12, 131310, Note_on_c, 10, 78, 76
12, 131324, Note_on_c, 10, 78, 0
12, 131325, Note_on_c, 10, 79, 76
12, 131339, Note_on_c, 10, 79, 0
12, 131340, Note_on_c, 10, 78, 76
12, 131354, Note_on_c, 10, 78, 0
12, 131355, Note_on_c, 10, 79, 76
12, 131369, Note_on_c, 10, 79, 0
12, 131370, Note_on_c, 10, 76, 76
12, 131384, Note_on_c, 10, 76, 0
12, 131385, Note_on_c, 10, 78, 76
12, 131399, Note_on_c, 10, 78, 0
12, 131400, Note_on_c, 10, 76, 76
12, 131507, Note_on_c, 10, 76, 0
12, 131520, Note_on_c, 10, 76, 76
12, 131813, Note_on_c, 10, 76, 0
12, 131820, Note_on_c, 10, 76, 76
12, 131873, Note_on_c, 10, 76, 0
12, 131880, Note_on_c, 10, 74, 76
12, 131933, Note_on_c, 10, 74, 0
12, 131940, Note_on_c, 10, 73, 76
12, 131993, Note_on_c, 10, 73, 0
12, 132000, Note_on_c, 10, 74, 76
12, 132173, Note_on_c, 10, 74, 0
12, 132180, Note_on_c, 10, 83, 76
12, 132233, Note_on_c, 10, 83, 0
12, 132240, Note_on_c, 10, 76, 76
12, 132413, Note_on_c, 10, 76, 0
12, 132420, Note_on_c, 10, 74, 76
12, 132473, Note_on_c, 10, 74, 0
12, 132480, Note_on_c, 10, 73, 76
12, 132653, Note_on_c, 10, 73, 0
12, 132660, Note_on_c, 10, 69, 76
12, 132713, Note_on_c, 10, 69, 0
12, 132720, Note_on_c, 10, 73, 76
12, 132893, Note_on_c, 10, 73, 0
12, 132900, Note_on_c, 10, 76, 76
12, 132953, Note_on_c, 10, 76, 0
12, 132960, Note_on_c, 10, 81, 76
12, 133307, Note_on_c, 10, 81, 0
12, 133320, Note_on_c, 10, 81, 76
12, 133427, Note_on_c, 10, 81, 0
12, 133440, Note_on_c, 10, 81, 76
12, 133765, Note_on_c, 10, 81, 0
12, 133770, Note_on_c, 10, 71, 76
12, 133795, Note_on_c, 10, 71, 0
12, 133800, Note_on_c, 10, 73, 76
12, 133825, Note_on_c, 10, 73, 0
12, 133830, Note_on_c, 10, 74, 76
12, 133855, Note_on_c, 10, 74, 0
12, 133860, Note_on_c, 10, 76, 76
12, 133885, Note_on_c, 10, 76, 0
12, 133890, Note_on_c, 10, 78, 76
12, 133915, Note_on_c, 10, 78, 0
12, 133920, Note_on_c, 10, 79, 76
12, 134267, Note_on_c, 10, 79, 0
12, 134280, Note_on_c, 10, 79, 76
12, 134387, Note_on_c, 10, 79, 0
12, 134400, Note_on_c, 10, 79, 76
12, 134725, Note_on_c, 10, 79, 0
12, 134730, Note_on_c, 10, 78, 76
12, 134755, Note_on_c, 10, 78, 0
12, 134760, Note_on_c, 10, 76, 76
12, 134785, Note_on_c, 10, 76, 0
12, 134790, Note_on_c, 10, 74, 76
12, 134815, Note_on_c, 10, 74, 0
12, 134820, Note_on_c, 10, 73, 76
12, 134845, Note_on_c, 10, 73, 0
12, 134850, Note_on_c, 10, 71, 76
12, 134875, Note_on_c, 10, 71, 0
12, 134880, Note_on_c, 10, 69, 76
12, 135053, Note_on_c, 10, 69, 0
12, 135060, Note_on_c, 10, 67, 76
12, 135085, Note_on_c, 10, 67, 0
12, 135090, Note_on_c, 10, 66, 76
12, 135115, Note_on_c, 10, 66, 0
12, 135120, Note_on_c, 10, 67, 76
12, 135293, Note_on_c, 10, 67, 0
12, 135300, Note_on_c, 10, 76, 76
12, 135353, Note_on_c, 10, 76, 0
12, 135360, Note_on_c, 10, 66, 76
12, 135653, Note_on_c, 10, 66, 0
12, 135660, Note_on_c, 10, 67, 76
12, 135713, Note_on_c, 10, 67, 0
12, 135720, Note_on_c, 10, 69, 76
12, 135773, Note_on_c, 10, 69, 0
12, 135780, Note_on_c, 10, 71, 76
12, 135833, Note_on_c, 10, 71, 0
12, 135840, Note_on_c, 10, 72, 76
12, 136187, Note_on_c, 10, 72, 0
12, 136200, Note_on_c, 10, 74, 76
12, 136307, Note_on_c, 10, 74, 0
12, 136320, Note_on_c, 10, 71, 76
12, 136613, Note_on_c, 10, 71, 0
12, 136620, Note_on_c, 10, 69, 76
12, 136673, Note_on_c, 10, 69, 0
12, 136680, Note_on_c, 10, 67, 76
12, 136733, Note_on_c, 10, 67, 0
12, 136740, Note_on_c, 10, 66, 76
12, 136793, Note_on_c, 10, 66, 0
12, 136800, Note_on_c, 10, 64, 76
12, 136853, Note_on_c, 10, 64, 0
12, 136860, Note_on_c, 10, 66, 76
12, 136913, Note_on_c, 10, 66, 0
12, 136920, Note_on_c, 10, 67, 76
12, 136973, Note_on_c, 10, 67, 0
12, 136980, Note_on_c, 10, 69, 76
12, 137033, Note_on_c, 10, 69, 0
12, 137040, Note_on_c, 10, 71, 76
12, 137093, Note_on_c, 10, 71, 0
12, 137100, Note_on_c, 10, 73, 76
12, 137153, Note_on_c, 10, 73, 0
12, 137160, Note_on_c, 10, 74, 76
12, 137213, Note_on_c, 10, 74, 0
12, 137220, Note_on_c, 10, 71, 76
12, 137273, Note_on_c, 10, 71, 0
12, 137280, Note_on_c, 10, 73, 76
12, 137333, Note_on_c, 10, 73, 0
12, 137340, Note_on_c, 10, 74, 76
12, 137393, Note_on_c, 10, 74, 0
12, 137400, Note_on_c, 10, 73, 76
12, 137453, Note_on_c, 10, 73, 0
12, 137460, Note_on_c, 10, 71, 76
12, 137513, Note_on_c, 10, 71, 0
12, 137520, Note_on_c, 10, 69, 76
12, 137573, Note_on_c, 10, 69, 0
12, 137580, Note_on_c, 10, 71, 76
12, 137633, Note_on_c, 10, 71, 0
12, 137640, Note_on_c, 10, 73, 76
12, 137693, Note_on_c, 10, 73, 0
12, 137700, Note_on_c, 10, 74, 76
12, 137753, Note_on_c, 10, 74, 0
12, 137760, Note_on_c, 10, 76, 76
12, 137813, Note_on_c, 10, 76, 0
12, 137820, Note_on_c, 10, 78, 76
12, 137873, Note_on_c, 10, 78, 0
12, 137880, Note_on_c, 10, 79, 76
12, 137933, Note_on_c, 10, 79, 0
12, 137940, Note_on_c, 10, 81, 76
12, 137993, Note_on_c, 10, 81, 0
12, 138000, Note_on_c, 10, 79, 76
12, 138053, Note_on_c, 10, 79, 0
12, 138060, Note_on_c, 10, 78, 76
12, 138113, Note_on_c, 10, 78, 0
12, 138120, Note_on_c, 10, 79, 76
12, 138173, Note_on_c, 10, 79, 0
12, 138180, Note_on_c, 10, 76, 76
12, 138233, Note_on_c, 10, 76, 0
12, 138240, Note_on_c, 10, 78, 76
12, 138413, Note_on_c, 10, 78, 0
12, 138420, Note_on_c, 10, 76, 76
12, 138435, Note_on_c, 10, 76, 0
12, 138440, Note_on_c, 10, 74, 76
12, 138455, Note_on_c, 10, 74, 0
12, 138460, Note_on_c, 10, 73, 76
12, 138475, Note_on_c, 10, 73, 0
12, 138480, Note_on_c, 10, 74, 76
12, 138653, Note_on_c, 10, 74, 0
12, 138660, Note_on_c, 10, 71, 76
12, 138713, Note_on_c, 10, 71, 0
12, 138720, Note_on_c, 10, 73, 76
12, 139067, Note_on_c, 10, 73, 0
12, 139080, Note_on_c, 10, 74, 76
12, 139187, Note_on_c, 10, 74, 0
12, 139200, Note_on_c, 10, 74, 76
12, 139304, Note_on_c, 10, 74, 0
12, 139320, Note_on_c, 10, 69, 76
12, 139367, Note_on_c, 10, 69, 0
12, 139380, Note_on_c, 10, 71, 76
12, 139427, Note_on_c, 10, 71, 0
12, 139440, Note_on_c, 10, 73, 76
12, 139544, Note_on_c, 10, 73, 0
12, 139560, Note_on_c, 10, 73, 76
12, 139607, Note_on_c, 10, 73, 0
12, 139620, Note_on_c, 10, 74, 76
12, 139667, Note_on_c, 10, 74, 0
12, 139680, Note_on_c, 10, 76, 76
12, 139784, Note_on_c, 10, 76, 0
12, 139800, Note_on_c, 10, 73, 76
12, 139847, Note_on_c, 10, 73, 0
12, 139860, Note_on_c, 10, 74, 76
12, 139907, Note_on_c, 10, 74, 0
12, 139920, Note_on_c, 10, 76, 76
12, 140024, Note_on_c, 10, 76, 0
12, 140040, Note_on_c, 10, 76, 76
12, 140087, Note_on_c, 10, 76, 0
12, 140100, Note_on_c, 10, 78, 76
12, 140147, Note_on_c, 10, 78, 0
12, 140160, Note_on_c, 10, 79, 76
12, 140264, Note_on_c, 10, 79, 0
12, 140280, Note_on_c, 10, 79, 76
12, 140327, Note_on_c, 10, 79, 0
12, 140340, Note_on_c, 10, 78, 76
12, 140387, Note_on_c, 10, 78, 0
12, 140400, Note_on_c, 10, 79, 76
12, 140504, Note_on_c, 10, 79, 0
12, 140520, Note_on_c, 10, 81, 76
12, 140567, Note_on_c, 10, 81, 0
12, 140580, Note_on_c, 10, 79, 76
12, 140627, Note_on_c, 10, 79, 0
12, 140640, Note_on_c, 10, 78, 76
12, 140744, Note_on_c, 10, 78, 0
12, 140760, Note_on_c, 10, 81, 76
12, 140864, Note_on_c, 10, 81, 0
12, 140880, Note_on_c, 10, 74, 76
12, 140984, Note_on_c, 10, 74, 0
12, 141000, Note_on_c, 10, 78, 76
12, 141224, Note_on_c, 10, 78, 0
12, 141240, Note_on_c, 10, 81, 76
12, 141344, Note_on_c, 10, 81, 0
12, 141360, Note_on_c, 10, 72, 76
12, 141464, Note_on_c, 10, 72, 0
12, 141480, Note_on_c, 10, 78, 76
12, 141704, Note_on_c, 10, 78, 0
12, 141720, Note_on_c, 10, 81, 76
12, 141824, Note_on_c, 10, 81, 0
12, 141840, Note_on_c, 10, 74, 76
12, 141944, Note_on_c, 10, 74, 0
12, 141960, Note_on_c, 10, 78, 76
12, 142064, Note_on_c, 10, 78, 0
12, 142080, Note_on_c, 10, 79, 76
12, 142184, Note_on_c, 10, 79, 0
12, 142200, Note_on_c, 10, 83, 76
12, 142304, Note_on_c, 10, 83, 0
12, 142320, Note_on_c, 10, 74, 76
12, 142424, Note_on_c, 10, 74, 0
12, 142440, Note_on_c, 10, 80, 76
12, 142664, Note_on_c, 10, 80, 0
12, 142680, Note_on_c, 10, 83, 76
12, 142784, Note_on_c, 10, 83, 0
12, 142800, Note_on_c, 10, 76, 76
12, 142904, Note_on_c, 10, 76, 0
12, 142920, Note_on_c, 10, 80, 76
12, 143024, Note_on_c, 10, 80, 0
12, 143040, Note_on_c, 10, 81, 76
12, 143087, Note_on_c, 10, 81, 0
12, 143100, Note_on_c, 10, 76, 76
12, 143147, Note_on_c, 10, 76, 0
12, 143160, Note_on_c, 10, 73, 76
12, 143207, Note_on_c, 10, 73, 0
12, 143220, Note_on_c, 10, 74, 76
12, 143267, Note_on_c, 10, 74, 0
12, 143280, Note_on_c, 10, 76, 76
12, 143327, Note_on_c, 10, 76, 0
12, 143340, Note_on_c, 10, 78, 76
12, 143387, Note_on_c, 10, 78, 0
12, 143400, Note_on_c, 10, 76, 76
12, 143447, Note_on_c, 10, 76, 0
12, 143460, Note_on_c, 10, 78, 76
12, 143507, Note_on_c, 10, 78, 0
12, 143520, Note_on_c, 10, 79, 76
12, 143567, Note_on_c, 10, 79, 0
12, 143580, Note_on_c, 10, 76, 76
12, 143627, Note_on_c, 10, 76, 0
12, 143640, Note_on_c, 10, 69, 76
12, 143687, Note_on_c, 10, 69, 0
12, 143700, Note_on_c, 10, 71, 76
12, 143747, Note_on_c, 10, 71, 0
12, 143760, Note_on_c, 10, 73, 76
12, 143807, Note_on_c, 10, 73, 0
12, 143820, Note_on_c, 10, 74, 76
12, 143867, Note_on_c, 10, 74, 0
12, 143880, Note_on_c, 10, 73, 76
12, 143927, Note_on_c, 10, 73, 0
12, 143940, Note_on_c, 10, 74, 76
12, 143987, Note_on_c, 10, 74, 0
12, 144000, Note_on_c, 10, 76, 76
12, 144047, Note_on_c, 10, 76, 0
12, 144060, Note_on_c, 10, 74, 76
12, 144107, Note_on_c, 10, 74, 0
12, 144120, Note_on_c, 10, 73, 76
12, 144167, Note_on_c, 10, 73, 0
12, 144180, Note_on_c, 10, 74, 76
12, 144227, Note_on_c, 10, 74, 0
12, 144240, Note_on_c, 10, 76, 76
12, 144287, Note_on_c, 10, 76, 0
12, 144300, Note_on_c, 10, 74, 76
12, 144347, Note_on_c, 10, 74, 0
12, 144360, Note_on_c, 10, 73, 76
12, 144407, Note_on_c, 10, 73, 0
12, 144420, Note_on_c, 10, 71, 76
12, 144467, Note_on_c, 10, 71, 0
12, 144480, Note_on_c, 10, 69, 76
12, 144527, Note_on_c, 10, 69, 0
12, 144540, Note_on_c, 10, 74, 76
12, 144587, Note_on_c, 10, 74, 0
12, 144600, Note_on_c, 10, 73, 76
12, 144647, Note_on_c, 10, 73, 0
12, 144660, Note_on_c, 10, 71, 76
12, 144707, Note_on_c, 10, 71, 0
12, 144720, Note_on_c, 10, 69, 76
12, 144767, Note_on_c, 10, 69, 0
12, 144780, Note_on_c, 10, 67, 76
12, 144827, Note_on_c, 10, 67, 0
12, 144840, Note_on_c, 10, 66, 76
12, 144887, Note_on_c, 10, 66, 0
12, 144900, Note_on_c, 10, 64, 76
12, 144947, Note_on_c, 10, 64, 0
12, 144960, Note_on_c, 10, 62, 76
12, 145064, Note_on_c, 10, 62, 0
12, 145080, Note_on_c, 10, 74, 76
12, 145184, Note_on_c, 10, 74, 0
12, 145200, Note_on_c, 10, 74, 76
12, 145304, Note_on_c, 10, 74, 0
12, 145320, Note_on_c, 10, 74, 76
12, 145424, Note_on_c, 10, 74, 0
12, 145440, Note_on_c, 10, 74, 76
12, 145544, Note_on_c, 10, 74, 0
12, 145560, Note_on_c, 10, 74, 76
12, 145664, Note_on_c, 10, 74, 0
12, 145680, Note_on_c, 10, 74, 76
12, 145784, Note_on_c, 10, 74, 0
12, 145800, Note_on_c, 10, 74, 76
12, 145904, Note_on_c, 10, 74, 0
12, 145920, Note_on_c, 10, 74, 76
12, 146024, Note_on_c, 10, 74, 0
12, 146040, Note_on_c, 10, 76, 76
12, 146144, Note_on_c, 10, 76, 0
12, 146160, Note_on_c, 10, 76, 76
12, 146264, Note_on_c, 10, 76, 0
12, 146280, Note_on_c, 10, 76, 76
12, 146384, Note_on_c, 10, 76, 0
12, 146400, Note_on_c, 10, 76, 76
12, 146504, Note_on_c, 10, 76, 0
12, 146520, Note_on_c, 10, 76, 76
12, 146624, Note_on_c, 10, 76, 0
12, 146640, Note_on_c, 10, 76, 76
12, 146744, Note_on_c, 10, 76, 0
12, 146760, Note_on_c, 10, 76, 76
12, 146864, Note_on_c, 10, 76, 0
12, 146880, Note_on_c, 10, 76, 76
12, 146984, Note_on_c, 10, 76, 0
12, 147000, Note_on_c, 10, 76, 76
12, 147104, Note_on_c, 10, 76, 0
12, 147120, Note_on_c, 10, 76, 76
12, 147224, Note_on_c, 10, 76, 0
12, 147240, Note_on_c, 10, 76, 76
12, 147344, Note_on_c, 10, 76, 0
12, 147360, Note_on_c, 10, 76, 76
12, 147464, Note_on_c, 10, 76, 0
12, 147480, Note_on_c, 10, 69, 76
12, 147527, Note_on_c, 10, 69, 0
12, 147540, Note_on_c, 10, 71, 76
12, 147587, Note_on_c, 10, 71, 0
12, 147600, Note_on_c, 10, 73, 76
12, 147704, Note_on_c, 10, 73, 0
12, 147720, Note_on_c, 10, 73, 76
12, 147767, Note_on_c, 10, 73, 0
12, 147780, Note_on_c, 10, 74, 76
12, 147827, Note_on_c, 10, 74, 0
12, 147840, Note_on_c, 10, 76, 76
12, 147944, Note_on_c, 10, 76, 0
12, 147960, Note_on_c, 10, 73, 76
12, 148007, Note_on_c, 10, 73, 0
12, 148020, Note_on_c, 10, 74, 76
12, 148067, Note_on_c, 10, 74, 0
12, 148080, Note_on_c, 10, 76, 76
12, 148184, Note_on_c, 10, 76, 0
12, 148200, Note_on_c, 10, 76, 76
12, 148247, Note_on_c, 10, 76, 0
12, 148260, Note_on_c, 10, 78, 76
12, 148307, Note_on_c, 10, 78, 0
12, 148320, Note_on_c, 10, 79, 76
12, 148424, Note_on_c, 10, 79, 0
12, 148440, Note_on_c, 10, 79, 76
12, 148487, Note_on_c, 10, 79, 0
12, 148500, Note_on_c, 10, 78, 76
12, 148547, Note_on_c, 10, 78, 0
12, 148560, Note_on_c, 10, 79, 76
12, 148664, Note_on_c, 10, 79, 0
12, 148680, Note_on_c, 10, 81, 76
12, 148727, Note_on_c, 10, 81, 0
12, 148740, Note_on_c, 10, 79, 76
12, 148787, Note_on_c, 10, 79, 0
12, 148800, Note_on_c, 10, 78, 76
12, 148904, Note_on_c, 10, 78, 0
12, 148920, Note_on_c, 10, 78, 76
12, 148967, Note_on_c, 10, 78, 0
12, 148980, Note_on_c, 10, 76, 76
12, 149027, Note_on_c, 10, 76, 0
12, 149040, Note_on_c, 10, 78, 76
12, 149144, Note_on_c, 10, 78, 0
12, 149160, Note_on_c, 10, 79, 76
12, 149207, Note_on_c, 10, 79, 0
12, 149220, Note_on_c, 10, 78, 76
12, 149267, Note_on_c, 10, 78, 0
12, 149280, Note_on_c, 10, 76, 76
12, 149384, Note_on_c, 10, 76, 0
12, 149400, Note_on_c, 10, 76, 76
12, 149447, Note_on_c, 10, 76, 0
12, 149460, Note_on_c, 10, 74, 76
12, 149507, Note_on_c, 10, 74, 0
12, 149520, Note_on_c, 10, 76, 76
12, 149624, Note_on_c, 10, 76, 0
12, 149640, Note_on_c, 10, 78, 76
12, 149687, Note_on_c, 10, 78, 0
12, 149700, Note_on_c, 10, 76, 76
12, 149747, Note_on_c, 10, 76, 0
12, 149760, Note_on_c, 10, 74, 76
12, 149864, Note_on_c, 10, 74, 0
12, 149880, Note_on_c, 10, 74, 76
12, 149927, Note_on_c, 10, 74, 0
12, 149940, Note_on_c, 10, 76, 76
12, 149987, Note_on_c, 10, 76, 0
12, 150000, Note_on_c, 10, 78, 76
12, 150104, Note_on_c, 10, 78, 0
12, 150120, Note_on_c, 10, 78, 76
12, 150167, Note_on_c, 10, 78, 0
12, 150180, Note_on_c, 10, 79, 76
12, 150227, Note_on_c, 10, 79, 0
12, 150240, Note_on_c, 10, 81, 76
12, 150344, Note_on_c, 10, 81, 0
12, 150360, Note_on_c, 10, 78, 76
12, 150407, Note_on_c, 10, 78, 0
12, 150420, Note_on_c, 10, 79, 76
12, 150467, Note_on_c, 10, 79, 0
12, 150480, Note_on_c, 10, 81, 76
12, 150584, Note_on_c, 10, 81, 0
12, 150600, Note_on_c, 10, 81, 76
12, 150647, Note_on_c, 10, 81, 0
12, 150660, Note_on_c, 10, 83, 76
12, 150707, Note_on_c, 10, 83, 0
12, 150720, Note_on_c, 10, 84, 76
12, 150824, Note_on_c, 10, 84, 0
12, 150840, Note_on_c, 10, 84, 76
12, 150887, Note_on_c, 10, 84, 0
12, 150900, Note_on_c, 10, 83, 76
12, 150947, Note_on_c, 10, 83, 0
12, 150960, Note_on_c, 10, 84, 76
12, 151064, Note_on_c, 10, 84, 0
12, 151080, Note_on_c, 10, 86, 76
12, 151127, Note_on_c, 10, 86, 0
12, 151140, Note_on_c, 10, 84, 76
12, 151187, Note_on_c, 10, 84, 0
12, 151200, Note_on_c, 10, 83, 76
12, 151247, Note_on_c, 10, 83, 0
12, 151260, Note_on_c, 10, 79, 76
12, 151307, Note_on_c, 10, 79, 0
12, 151320, Note_on_c, 10, 76, 76
12, 151367, Note_on_c, 10, 76, 0
12, 151380, Note_on_c, 10, 78, 76
12, 151427, Note_on_c, 10, 78, 0
12, 151440, Note_on_c, 10, 79, 76
12, 151487, Note_on_c, 10, 79, 0
12, 151500, Note_on_c, 10, 81, 76
12, 151547, Note_on_c, 10, 81, 0
12, 151560, Note_on_c, 10, 78, 76
12, 151607, Note_on_c, 10, 78, 0
12, 151620, Note_on_c, 10, 79, 76
12, 151667, Note_on_c, 10, 79, 0
12, 151680, Note_on_c, 10, 81, 76
12, 151727, Note_on_c, 10, 81, 0
12, 151740, Note_on_c, 10, 78, 76
12, 151787, Note_on_c, 10, 78, 0
12, 151800, Note_on_c, 10, 74, 76
12, 151847, Note_on_c, 10, 74, 0
12, 151860, Note_on_c, 10, 76, 76
12, 151907, Note_on_c, 10, 76, 0
12, 151920, Note_on_c, 10, 78, 76
12, 151967, Note_on_c, 10, 78, 0
12, 151980, Note_on_c, 10, 79, 76
12, 152027, Note_on_c, 10, 79, 0
12, 152040, Note_on_c, 10, 76, 76
12, 152087, Note_on_c, 10, 76, 0
12, 152100, Note_on_c, 10, 78, 76
12, 152147, Note_on_c, 10, 78, 0
12, 152160, Note_on_c, 10, 79, 76
12, 152207, Note_on_c, 10, 79, 0
12, 152220, Note_on_c, 10, 78, 76
12, 152267, Note_on_c, 10, 78, 0
12, 152280, Note_on_c, 10, 76, 76
12, 152327, Note_on_c, 10, 76, 0
12, 152340, Note_on_c, 10, 79, 76
12, 152387, Note_on_c, 10, 79, 0
12, 152400, Note_on_c, 10, 78, 76
12, 152447, Note_on_c, 10, 78, 0
12, 152460, Note_on_c, 10, 76, 76
12, 152507, Note_on_c, 10, 76, 0
12, 152520, Note_on_c, 10, 74, 76
12, 152567, Note_on_c, 10, 74, 0
12, 152580, Note_on_c, 10, 78, 76
12, 152627, Note_on_c, 10, 78, 0
12, 152640, Note_on_c, 10, 76, 76
12, 152687, Note_on_c, 10, 76, 0
12, 152700, Note_on_c, 10, 81, 76
12, 152747, Note_on_c, 10, 81, 0
12, 152760, Note_on_c, 10, 73, 76
12, 152807, Note_on_c, 10, 73, 0
12, 152820, Note_on_c, 10, 74, 76
12, 152867, Note_on_c, 10, 74, 0
12, 152880, Note_on_c, 10, 76, 76
12, 152927, Note_on_c, 10, 76, 0
12, 152940, Note_on_c, 10, 78, 76
12, 152987, Note_on_c, 10, 78, 0
12, 153000, Note_on_c, 10, 76, 76
12, 153047, Note_on_c, 10, 76, 0
12, 153060, Note_on_c, 10, 78, 76
12, 153107, Note_on_c, 10, 78, 0
12, 153120, Note_on_c, 10, 79, 76
12, 153167, Note_on_c, 10, 79, 0
12, 153180, Note_on_c, 10, 76, 76
12, 153227, Note_on_c, 10, 76, 0
12, 153240, Note_on_c, 10, 69, 76
12, 153287, Note_on_c, 10, 69, 0
12, 153300, Note_on_c, 10, 71, 76
12, 153347, Note_on_c, 10, 71, 0
12, 153360, Note_on_c, 10, 73, 76
12, 153407, Note_on_c, 10, 73, 0
12, 153420, Note_on_c, 10, 74, 76
12, 153467, Note_on_c, 10, 74, 0
12, 153480, Note_on_c, 10, 73, 76
12, 153527, Note_on_c, 10, 73, 0
12, 153540, Note_on_c, 10, 74, 76
12, 153587, Note_on_c, 10, 74, 0
12, 153600, Note_on_c, 10, 76, 76
12, 153647, Note_on_c, 10, 76, 0
12, 153660, Note_on_c, 10, 74, 76
12, 153707, Note_on_c, 10, 74, 0
12, 153720, Note_on_c, 10, 73, 76
12, 153767, Note_on_c, 10, 73, 0
12, 153780, Note_on_c, 10, 74, 76
12, 153827, Note_on_c, 10, 74, 0
12, 153840, Note_on_c, 10, 76, 76
12, 153887, Note_on_c, 10, 76, 0
12, 153900, Note_on_c, 10, 79, 76
12, 153947, Note_on_c, 10, 79, 0
12, 153960, Note_on_c, 10, 78, 76
12, 154007, Note_on_c, 10, 78, 0
12, 154020, Note_on_c, 10, 76, 76
12, 154067, Note_on_c, 10, 76, 0
12, 154080, Note_on_c, 10, 81, 76
12, 154127, Note_on_c, 10, 81, 0
12, 154140, Note_on_c, 10, 79, 76
12, 154187, Note_on_c, 10, 79, 0
12, 154200, Note_on_c, 10, 78, 76
12, 154247, Note_on_c, 10, 78, 0
12, 154260, Note_on_c, 10, 79, 76
12, 154307, Note_on_c, 10, 79, 0
12, 154320, Note_on_c, 10, 81, 76
12, 154367, Note_on_c, 10, 81, 0
12, 154380, Note_on_c, 10, 78, 76
12, 154427, Note_on_c, 10, 78, 0
12, 154440, Note_on_c, 10, 74, 76
12, 154487, Note_on_c, 10, 74, 0
12, 154500, Note_on_c, 10, 78, 76
12, 154547, Note_on_c, 10, 78, 0
12, 154560, Note_on_c, 10, 79, 76
12, 154607, Note_on_c, 10, 79, 0
12, 154620, Note_on_c, 10, 78, 76
12, 154667, Note_on_c, 10, 78, 0
12, 154680, Note_on_c, 10, 76, 76
12, 154727, Note_on_c, 10, 76, 0
12, 154740, Note_on_c, 10, 78, 76
12, 154787, Note_on_c, 10, 78, 0
12, 154800, Note_on_c, 10, 79, 76
12, 154847, Note_on_c, 10, 79, 0
12, 154860, Note_on_c, 10, 83, 76
12, 154907, Note_on_c, 10, 83, 0
12, 154920, Note_on_c, 10, 81, 76
12, 154967, Note_on_c, 10, 81, 0
12, 154980, Note_on_c, 10, 79, 76
12, 155027, Note_on_c, 10, 79, 0
12, 155040, Note_on_c, 10, 78, 76
12, 155144, Note_on_c, 10, 78, 0
12, 155160, Note_on_c, 10, 74, 76
12, 155264, Note_on_c, 10, 74, 0
12, 155280, Note_on_c, 10, 71, 76
12, 155384, Note_on_c, 10, 71, 0
12, 155400, Note_on_c, 10, 76, 76
12, 155504, Note_on_c, 10, 76, 0
12, 155520, Note_on_c, 10, 73, 76
12, 155567, Note_on_c, 10, 73, 0
12, 155580, Note_on_c, 10, 69, 76
12, 155627, Note_on_c, 10, 69, 0
12, 155640, Note_on_c, 10, 71, 76
12, 155687, Note_on_c, 10, 71, 0
12, 155700, Note_on_c, 10, 73, 76
12, 155747, Note_on_c, 10, 73, 0
12, 155760, Note_on_c, 10, 74, 76
12, 155807, Note_on_c, 10, 74, 0
12, 155820, Note_on_c, 10, 76, 76
12, 155867, Note_on_c, 10, 76, 0
12, 155880, Note_on_c, 10, 78, 76
12, 155927, Note_on_c, 10, 78, 0
12, 155940, Note_on_c, 10, 79, 76
12, 155987, Note_on_c, 10, 79, 0
12, 156000, Note_on_c, 10, 78, 76
12, 156047, Note_on_c, 10, 78, 0
12, 156060, Note_on_c, 10, 76, 76
12, 156107, Note_on_c, 10, 76, 0
12, 156120, Note_on_c, 10, 74, 76
12, 156167, Note_on_c, 10, 74, 0
12, 156180, Note_on_c, 10, 76, 76
12, 156227, Note_on_c, 10, 76, 0
12, 156240, Note_on_c, 10, 69, 76
12, 156344, Note_on_c, 10, 69, 0
12, 156360, Note_on_c, 10, 73, 76
12, 156464, Note_on_c, 10, 73, 0
12, 156480, Note_on_c, 10, 74, 76
12, 156527, Note_on_c, 10, 74, 0
12, 156540, Note_on_c, 10, 69, 76
12, 156587, Note_on_c, 10, 69, 0
12, 156600, Note_on_c, 10, 66, 76
12, 156647, Note_on_c, 10, 66, 0
12, 156660, Note_on_c, 10, 69, 76
12, 156707, Note_on_c, 10, 69, 0
12, 156720, Note_on_c, 10, 62, 76
12, 156767, Note_on_c, 10, 62, 0
12, 156780, Note_on_c, 10, 66, 76
12, 156827, Note_on_c, 10, 66, 0
12, 156840, Note_on_c, 10, 64, 76
12, 156887, Note_on_c, 10, 64, 0
12, 156900, Note_on_c, 10, 67, 76
12, 156947, Note_on_c, 10, 67, 0
12, 156960, Note_on_c, 10, 66, 76
12, 157007, Note_on_c, 10, 66, 0
12, 157020, Note_on_c, 10, 69, 76
12, 157067, Note_on_c, 10, 69, 0
12, 157080, Note_on_c, 10, 74, 76
12, 157127, Note_on_c, 10, 74, 0
12, 157140, Note_on_c, 10, 66, 76
12, 157187, Note_on_c, 10, 66, 0
12, 157200, Note_on_c, 10, 64, 76
12, 157247, Note_on_c, 10, 64, 0
12, 157260, Note_on_c, 10, 74, 76
12, 157307, Note_on_c, 10, 74, 0
12, 157320, Note_on_c, 10, 64, 76
12, 157367, Note_on_c, 10, 64, 0
12, 157380, Note_on_c, 10, 73, 76
12, 157427, Note_on_c, 10, 73, 0
12, 157440, Note_on_c, 10, 74, 76
12, 157487, Note_on_c, 10, 74, 0
12, 157500, Note_on_c, 10, 69, 76
12, 157547, Note_on_c, 10, 69, 0
12, 157560, Note_on_c, 10, 74, 76
12, 157607, Note_on_c, 10, 74, 0
12, 157620, Note_on_c, 10, 76, 76
12, 157667, Note_on_c, 10, 76, 0
12, 157680, Note_on_c, 10, 78, 76
12, 157727, Note_on_c, 10, 78, 0
12, 157740, Note_on_c, 10, 81, 76
12, 157787, Note_on_c, 10, 81, 0
12, 157800, Note_on_c, 10, 80, 76
12, 157847, Note_on_c, 10, 80, 0
12, 157860, Note_on_c, 10, 83, 76
12, 157907, Note_on_c, 10, 83, 0
12, 157920, Note_on_c, 10, 81, 76
12, 157967, Note_on_c, 10, 81, 0
12, 157980, Note_on_c, 10, 76, 76
12, 158027, Note_on_c, 10, 76, 0
12, 158040, Note_on_c, 10, 73, 76
12, 158087, Note_on_c, 10, 73, 0
12, 158100, Note_on_c, 10, 81, 76
12, 158147, Note_on_c, 10, 81, 0
12, 158160, Note_on_c, 10, 71, 76
12, 158207, Note_on_c, 10, 71, 0
12, 158220, Note_on_c, 10, 81, 76
12, 158267, Note_on_c, 10, 81, 0
12, 158280, Note_on_c, 10, 71, 76
12, 158327, Note_on_c, 10, 71, 0
12, 158340, Note_on_c, 10, 80, 76
12, 158387, Note_on_c, 10, 80, 0
12, 158400, Note_on_c, 10, 81, 76
12, 158447, Note_on_c, 10, 81, 0
12, 158460, Note_on_c, 10, 76, 76
12, 158507, Note_on_c, 10, 76, 0
12, 158520, Note_on_c, 10, 73, 76
12, 158579, Note_on_c, 10, 73, 0
12, 158580, Note_on_c, 10, 74, 76
12, 158639, Note_on_c, 10, 74, 0
12, 158640, Note_on_c, 10, 76, 76
12, 158687, Note_on_c, 10, 76, 0
12, 158700, Note_on_c, 10, 78, 76
12, 158747, Note_on_c, 10, 78, 0
12, 158760, Note_on_c, 10, 76, 76
12, 158807, Note_on_c, 10, 76, 0
12, 158820, Note_on_c, 10, 78, 76
12, 158867, Note_on_c, 10, 78, 0
12, 158880, Note_on_c, 10, 79, 76
12, 158927, Note_on_c, 10, 79, 0
12, 158940, Note_on_c, 10, 76, 76
12, 158987, Note_on_c, 10, 76, 0
12, 159000, Note_on_c, 10, 69, 76
12, 159059, Note_on_c, 10, 69, 0
12, 159060, Note_on_c, 10, 71, 76
12, 159119, Note_on_c, 10, 71, 0
12, 159120, Note_on_c, 10, 73, 76
12, 159167, Note_on_c, 10, 73, 0
12, 159180, Note_on_c, 10, 74, 76
12, 159227, Note_on_c, 10, 74, 0
12, 159240, Note_on_c, 10, 73, 76
12, 159287, Note_on_c, 10, 73, 0
12, 159300, Note_on_c, 10, 74, 76
12, 159347, Note_on_c, 10, 74, 0
12, 159360, Note_on_c, 10, 76, 76
12, 159407, Note_on_c, 10, 76, 0
12, 159420, Note_on_c, 10, 74, 76
12, 159467, Note_on_c, 10, 74, 0
12, 159480, Note_on_c, 10, 73, 76
12, 159527, Note_on_c, 10, 73, 0
12, 159540, Note_on_c, 10, 74, 76
12, 159587, Note_on_c, 10, 74, 0
12, 159600, Note_on_c, 10, 76, 76
12, 159647, Note_on_c, 10, 76, 0
12, 159660, Note_on_c, 10, 74, 76
12, 159707, Note_on_c, 10, 74, 0
12, 159720, Note_on_c, 10, 73, 76
12, 159767, Note_on_c, 10, 73, 0
12, 159780, Note_on_c, 10, 71, 76
12, 159827, Note_on_c, 10, 71, 0
12, 159840, Note_on_c, 10, 70, 76
12, 159887, Note_on_c, 10, 70, 0
12, 159900, Note_on_c, 10, 76, 76
12, 159959, Note_on_c, 10, 76, 0
12, 159960, Note_on_c, 10, 78, 76
12, 160019, Note_on_c, 10, 78, 0
12, 160020, Note_on_c, 10, 79, 76
12, 160067, Note_on_c, 10, 79, 0
12, 160080, Note_on_c, 10, 78, 76
12, 160127, Note_on_c, 10, 78, 0
12, 160140, Note_on_c, 10, 76, 76
12, 160187, Note_on_c, 10, 76, 0
12, 160200, Note_on_c, 10, 74, 76
12, 160247, Note_on_c, 10, 74, 0
12, 160260, Note_on_c, 10, 73, 76
12, 160307, Note_on_c, 10, 73, 0
12, 160320, Note_on_c, 10, 74, 76
12, 160367, Note_on_c, 10, 74, 0
12, 160380, Note_on_c, 10, 78, 76
12, 160427, Note_on_c, 10, 78, 0
12, 160440, Note_on_c, 10, 71, 76
12, 160499, Note_on_c, 10, 71, 0
12, 160500, Note_on_c, 10, 73, 76
12, 160559, Note_on_c, 10, 73, 0
12, 160560, Note_on_c, 10, 74, 76
12, 160607, Note_on_c, 10, 74, 0
12, 160620, Note_on_c, 10, 76, 76
12, 160667, Note_on_c, 10, 76, 0
12, 160680, Note_on_c, 10, 74, 76
12, 160727, Note_on_c, 10, 74, 0
12, 160740, Note_on_c, 10, 76, 76
12, 160787, Note_on_c, 10, 76, 0
12, 160800, Note_on_c, 10, 78, 76
12, 160847, Note_on_c, 10, 78, 0
12, 160860, Note_on_c, 10, 81, 76
12, 160907, Note_on_c, 10, 81, 0
12, 160920, Note_on_c, 10, 75, 76
12, 160979, Note_on_c, 10, 75, 0
12, 160980, Note_on_c, 10, 76, 76
12, 161039, Note_on_c, 10, 76, 0
12, 161040, Note_on_c, 10, 78, 76
12, 161087, Note_on_c, 10, 78, 0
12, 161100, Note_on_c, 10, 79, 76
12, 161147, Note_on_c, 10, 79, 0
12, 161160, Note_on_c, 10, 78, 76
12, 161207, Note_on_c, 10, 78, 0
12, 161220, Note_on_c, 10, 79, 76
12, 161267, Note_on_c, 10, 79, 0
12, 161280, Note_on_c, 10, 81, 76
12, 161327, Note_on_c, 10, 81, 0
12, 161340, Note_on_c, 10, 72, 76
12, 161399, Note_on_c, 10, 72, 0
12, 161400, Note_on_c, 10, 71, 76
12, 161459, Note_on_c, 10, 71, 0
12, 161460, Note_on_c, 10, 72, 76
12, 161507, Note_on_c, 10, 72, 0
12, 161520, Note_on_c, 10, 81, 76
12, 161567, Note_on_c, 10, 81, 0
12, 161580, Note_on_c, 10, 72, 76
12, 161639, Note_on_c, 10, 72, 0
12, 161640, Note_on_c, 10, 71, 76
12, 161699, Note_on_c, 10, 71, 0
12, 161700, Note_on_c, 10, 69, 76
12, 161747, Note_on_c, 10, 69, 0
12, 161760, Note_on_c, 10, 71, 76
12, 161807, Note_on_c, 10, 71, 0
12, 161820, Note_on_c, 10, 73, 76
12, 161867, Note_on_c, 10, 73, 0
12, 161880, Note_on_c, 10, 75, 76
12, 161927, Note_on_c, 10, 75, 0
12, 161940, Note_on_c, 10, 76, 76
12, 161987, Note_on_c, 10, 76, 0
12, 162000, Note_on_c, 10, 78, 76
12, 162047, Note_on_c, 10, 78, 0
12, 162060, Note_on_c, 10, 79, 76
12, 162107, Note_on_c, 10, 79, 0
12, 162120, Note_on_c, 10, 81, 76
12, 162167, Note_on_c, 10, 81, 0
12, 162180, Note_on_c, 10, 78, 76
12, 162227, Note_on_c, 10, 78, 0
12, 162240, Note_on_c, 10, 79, 76
12, 162287, Note_on_c, 10, 79, 0
12, 162300, Note_on_c, 10, 76, 76
12, 162347, Note_on_c, 10, 76, 0
12, 162360, Note_on_c, 10, 71, 76
12, 162407, Note_on_c, 10, 71, 0
12, 162420, Note_on_c, 10, 74, 76
12, 162467, Note_on_c, 10, 74, 0
12, 162480, Note_on_c, 10, 73, 76
12, 162527, Note_on_c, 10, 73, 0
12, 162540, Note_on_c, 10, 76, 76
12, 162587, Note_on_c, 10, 76, 0
12, 162600, Note_on_c, 10, 69, 76
12, 162647, Note_on_c, 10, 69, 0
12, 162660, Note_on_c, 10, 79, 76
12, 162707, Note_on_c, 10, 79, 0
12, 162720, Note_on_c, 10, 78, 76
12, 162767, Note_on_c, 10, 78, 0
12, 162780, Note_on_c, 10, 74, 76
12, 162827, Note_on_c, 10, 74, 0
12, 162840, Note_on_c, 10, 69, 76
12, 162887, Note_on_c, 10, 69, 0
12, 162900, Note_on_c, 10, 72, 76
12, 162947, Note_on_c, 10, 72, 0
12, 162960, Note_on_c, 10, 71, 76
12, 163007, Note_on_c, 10, 71, 0
12, 163020, Note_on_c, 10, 74, 76
12, 163067, Note_on_c, 10, 74, 0
12, 163080, Note_on_c, 10, 67, 76
12, 163127, Note_on_c, 10, 67, 0
12, 163140, Note_on_c, 10, 78, 76
12, 163187, Note_on_c, 10, 78, 0
12, 163200, Note_on_c, 10, 76, 76
12, 163247, Note_on_c, 10, 76, 0
12, 163260, Note_on_c, 10, 73, 76
12, 163307, Note_on_c, 10, 73, 0
12, 163320, Note_on_c, 10, 68, 76
12, 163367, Note_on_c, 10, 68, 0
12, 163380, Note_on_c, 10, 71, 76
12, 163427, Note_on_c, 10, 71, 0
12, 163440, Note_on_c, 10, 70, 76
12, 163487, Note_on_c, 10, 70, 0
12, 163500, Note_on_c, 10, 73, 76
12, 163547, Note_on_c, 10, 73, 0
12, 163560, Note_on_c, 10, 66, 76
12, 163607, Note_on_c, 10, 66, 0
12, 163620, Note_on_c, 10, 76, 76
12, 163667, Note_on_c, 10, 76, 0
12, 163680, Note_on_c, 10, 74, 76
12, 163727, Note_on_c, 10, 74, 0
12, 163740, Note_on_c, 10, 71, 76
12, 163787, Note_on_c, 10, 71, 0
12, 163800, Note_on_c, 10, 73, 76
12, 163847, Note_on_c, 10, 73, 0
12, 163860, Note_on_c, 10, 74, 76
12, 163907, Note_on_c, 10, 74, 0
12, 163920, Note_on_c, 10, 76, 76
12, 163967, Note_on_c, 10, 76, 0
12, 163980, Note_on_c, 10, 78, 76
12, 164027, Note_on_c, 10, 78, 0
12, 164040, Note_on_c, 10, 79, 76
12, 164087, Note_on_c, 10, 79, 0
12, 164100, Note_on_c, 10, 76, 76
12, 164147, Note_on_c, 10, 76, 0
12, 164160, Note_on_c, 10, 70, 76
12, 164207, Note_on_c, 10, 70, 0
12, 164220, Note_on_c, 10, 76, 76
12, 164279, Note_on_c, 10, 76, 0
12, 164280, Note_on_c, 10, 78, 76
12, 164339, Note_on_c, 10, 78, 0
12, 164340, Note_on_c, 10, 76, 76
12, 164387, Note_on_c, 10, 76, 0
12, 164400, Note_on_c, 10, 78, 76
12, 164447, Note_on_c, 10, 78, 0
12, 164460, Note_on_c, 10, 76, 76
12, 164507, Note_on_c, 10, 76, 0
12, 164520, Note_on_c, 10, 78, 76
12, 164567, Note_on_c, 10, 78, 0
12, 164580, Note_on_c, 10, 76, 76
12, 164627, Note_on_c, 10, 76, 0
12, 164640, Note_on_c, 10, 70, 76
12, 164687, Note_on_c, 10, 70, 0
12, 164700, Note_on_c, 10, 76, 76
12, 164759, Note_on_c, 10, 76, 0
12, 164760, Note_on_c, 10, 78, 76
12, 164819, Note_on_c, 10, 78, 0
12, 164820, Note_on_c, 10, 76, 76
12, 164867, Note_on_c, 10, 76, 0
12, 164880, Note_on_c, 10, 78, 76
12, 164927, Note_on_c, 10, 78, 0
12, 164940, Note_on_c, 10, 76, 76
12, 164987, Note_on_c, 10, 76, 0
12, 165000, Note_on_c, 10, 78, 76
12, 165047, Note_on_c, 10, 78, 0
12, 165060, Note_on_c, 10, 76, 76
12, 165107, Note_on_c, 10, 76, 0
12, 165120, Note_on_c, 10, 70, 76
12, 165167, Note_on_c, 10, 70, 0
12, 165180, Note_on_c, 10, 76, 76
12, 165239, Note_on_c, 10, 76, 0
12, 165240, Note_on_c, 10, 78, 76
12, 165299, Note_on_c, 10, 78, 0
12, 165300, Note_on_c, 10, 79, 76
12, 165347, Note_on_c, 10, 79, 0
12, 165360, Note_on_c, 10, 78, 76
12, 165407, Note_on_c, 10, 78, 0
12, 165420, Note_on_c, 10, 76, 76
12, 165467, Note_on_c, 10, 76, 0
12, 165480, Note_on_c, 10, 75, 76
12, 165527, Note_on_c, 10, 75, 0
12, 165540, Note_on_c, 10, 73, 76
12, 165587, Note_on_c, 10, 73, 0
12, 165600, Note_on_c, 10, 69, 76
12, 165647, Note_on_c, 10, 69, 0
12, 165660, Note_on_c, 10, 75, 76
12, 165719, Note_on_c, 10, 75, 0
12, 165720, Note_on_c, 10, 78, 76
12, 165779, Note_on_c, 10, 78, 0
12, 165780, Note_on_c, 10, 75, 76
12, 165827, Note_on_c, 10, 75, 0
12, 165840, Note_on_c, 10, 78, 76
12, 165887, Note_on_c, 10, 78, 0
12, 165900, Note_on_c, 10, 75, 76
12, 165947, Note_on_c, 10, 75, 0
12, 165960, Note_on_c, 10, 78, 76
12, 166007, Note_on_c, 10, 78, 0
12, 166020, Note_on_c, 10, 75, 76
12, 166067, Note_on_c, 10, 75, 0
12, 166080, Note_on_c, 10, 69, 76
12, 166127, Note_on_c, 10, 69, 0
12, 166140, Note_on_c, 10, 75, 76
12, 166199, Note_on_c, 10, 75, 0
12, 166200, Note_on_c, 10, 78, 76
12, 166259, Note_on_c, 10, 78, 0
12, 166260, Note_on_c, 10, 75, 76
12, 166307, Note_on_c, 10, 75, 0
12, 166320, Note_on_c, 10, 78, 76
12, 166367, Note_on_c, 10, 78, 0
12, 166380, Note_on_c, 10, 75, 76
12, 166427, Note_on_c, 10, 75, 0
12, 166440, Note_on_c, 10, 78, 76
12, 166487, Note_on_c, 10, 78, 0
12, 166500, Note_on_c, 10, 75, 76
12, 166547, Note_on_c, 10, 75, 0
12, 166560, Note_on_c, 10, 69, 76
12, 166607, Note_on_c, 10, 69, 0
12, 166620, Note_on_c, 10, 75, 76
12, 166679, Note_on_c, 10, 75, 0
12, 166680, Note_on_c, 10, 78, 76
12, 166739, Note_on_c, 10, 78, 0
12, 166740, Note_on_c, 10, 76, 76
12, 166787, Note_on_c, 10, 76, 0
12, 166800, Note_on_c, 10, 75, 76
12, 166847, Note_on_c, 10, 75, 0
12, 166860, Note_on_c, 10, 73, 76
12, 166907, Note_on_c, 10, 73, 0
12, 166920, Note_on_c, 10, 71, 76
12, 166967, Note_on_c, 10, 71, 0
12, 166980, Note_on_c, 10, 69, 76
12, 167027, Note_on_c, 10, 69, 0
12, 167040, Note_on_c, 10, 68, 76
12, 167087, Note_on_c, 10, 68, 0
12, 167100, Note_on_c, 10, 74, 76
12, 167159, Note_on_c, 10, 74, 0
12, 167160, Note_on_c, 10, 76, 76
12, 167219, Note_on_c, 10, 76, 0
12, 167220, Note_on_c, 10, 74, 76
12, 167267, Note_on_c, 10, 74, 0
12, 167280, Note_on_c, 10, 76, 76
12, 167327, Note_on_c, 10, 76, 0
12, 167340, Note_on_c, 10, 74, 76
12, 167387, Note_on_c, 10, 74, 0
12, 167400, Note_on_c, 10, 76, 76
12, 167447, Note_on_c, 10, 76, 0
12, 167460, Note_on_c, 10, 74, 76
12, 167507, Note_on_c, 10, 74, 0
12, 167520, Note_on_c, 10, 68, 76
12, 167567, Note_on_c, 10, 68, 0
12, 167580, Note_on_c, 10, 74, 76
12, 167639, Note_on_c, 10, 74, 0
12, 167640, Note_on_c, 10, 76, 76
12, 167699, Note_on_c, 10, 76, 0
12, 167700, Note_on_c, 10, 74, 76
12, 167747, Note_on_c, 10, 74, 0
12, 167760, Note_on_c, 10, 76, 76
12, 167807, Note_on_c, 10, 76, 0
12, 167820, Note_on_c, 10, 74, 76
12, 167867, Note_on_c, 10, 74, 0
12, 167880, Note_on_c, 10, 76, 76
12, 167927, Note_on_c, 10, 76, 0
12, 167940, Note_on_c, 10, 74, 76
12, 167987, Note_on_c, 10, 74, 0
12, 168000, Note_on_c, 10, 68, 76
12, 168047, Note_on_c, 10, 68, 0
12, 168060, Note_on_c, 10, 74, 76
12, 168119, Note_on_c, 10, 74, 0
12, 168120, Note_on_c, 10, 76, 76
12, 168179, Note_on_c, 10, 76, 0
12, 168180, Note_on_c, 10, 78, 76
12, 168227, Note_on_c, 10, 78, 0
12, 168240, Note_on_c, 10, 76, 76
12, 168287, Note_on_c, 10, 76, 0
12, 168300, Note_on_c, 10, 74, 76
12, 168347, Note_on_c, 10, 74, 0
12, 168360, Note_on_c, 10, 73, 76
12, 168407, Note_on_c, 10, 73, 0
12, 168420, Note_on_c, 10, 71, 76
12, 168467, Note_on_c, 10, 71, 0
12, 168480, Note_on_c, 10, 67, 76
12, 168527, Note_on_c, 10, 67, 0
12, 168540, Note_on_c, 10, 73, 76
12, 168599, Note_on_c, 10, 73, 0
12, 168600, Note_on_c, 10, 76, 76
12, 168659, Note_on_c, 10, 76, 0
12, 168660, Note_on_c, 10, 73, 76
12, 168707, Note_on_c, 10, 73, 0
12, 168720, Note_on_c, 10, 76, 76
12, 168767, Note_on_c, 10, 76, 0
12, 168780, Note_on_c, 10, 73, 76
12, 168827, Note_on_c, 10, 73, 0
12, 168840, Note_on_c, 10, 76, 76
12, 168887, Note_on_c, 10, 76, 0
12, 168900, Note_on_c, 10, 73, 76
12, 168947, Note_on_c, 10, 73, 0
12, 168960, Note_on_c, 10, 67, 76
12, 169007, Note_on_c, 10, 67, 0
12, 169020, Note_on_c, 10, 73, 76
12, 169079, Note_on_c, 10, 73, 0
12, 169080, Note_on_c, 10, 76, 76
12, 169139, Note_on_c, 10, 76, 0
12, 169140, Note_on_c, 10, 73, 76
12, 169187, Note_on_c, 10, 73, 0
12, 169200, Note_on_c, 10, 76, 76
12, 169247, Note_on_c, 10, 76, 0
12, 169260, Note_on_c, 10, 73, 76
12, 169307, Note_on_c, 10, 73, 0
12, 169320, Note_on_c, 10, 76, 76
12, 169367, Note_on_c, 10, 76, 0
12, 169380, Note_on_c, 10, 73, 76
12, 169427, Note_on_c, 10, 73, 0
12, 169440, Note_on_c, 10, 67, 76
12, 169487, Note_on_c, 10, 67, 0
12, 169500, Note_on_c, 10, 73, 76
12, 169559, Note_on_c, 10, 73, 0
12, 169560, Note_on_c, 10, 76, 76
12, 169619, Note_on_c, 10, 76, 0
12, 169620, Note_on_c, 10, 74, 76
12, 169667, Note_on_c, 10, 74, 0
12, 169680, Note_on_c, 10, 73, 76
12, 169739, Note_on_c, 10, 73, 0
12, 169740, Note_on_c, 10, 71, 76
12, 169799, Note_on_c, 10, 71, 0
12, 169800, Note_on_c, 10, 69, 76
12, 169859, Note_on_c, 10, 69, 0
12, 169860, Note_on_c, 10, 67, 76
12, 169907, Note_on_c, 10, 67, 0
12, 169920, Note_on_c, 10, 66, 76
12, 169967, Note_on_c, 10, 66, 0
12, 169980, Note_on_c, 10, 62, 76
12, 170027, Note_on_c, 10, 62, 0
12, 170040, Note_on_c, 10, 64, 76
12, 170087, Note_on_c, 10, 64, 0
12, 170100, Note_on_c, 10, 67, 76
12, 170147, Note_on_c, 10, 67, 0
12, 170160, Note_on_c, 10, 66, 76
12, 170207, Note_on_c, 10, 66, 0
12, 170220, Note_on_c, 10, 69, 76
12, 170267, Note_on_c, 10, 69, 0
12, 170280, Note_on_c, 10, 68, 76
12, 170327, Note_on_c, 10, 68, 0
12, 170340, Note_on_c, 10, 71, 76
12, 170387, Note_on_c, 10, 71, 0
12, 170400, Note_on_c, 10, 69, 76
12, 170447, Note_on_c, 10, 69, 0
12, 170460, Note_on_c, 10, 66, 76
12, 170507, Note_on_c, 10, 66, 0
12, 170520, Note_on_c, 10, 68, 76
12, 170567, Note_on_c, 10, 68, 0
12, 170580, Note_on_c, 10, 71, 76
12, 170627, Note_on_c, 10, 71, 0
12, 170640, Note_on_c, 10, 69, 76
12, 170687, Note_on_c, 10, 69, 0
12, 170700, Note_on_c, 10, 73, 76
12, 170747, Note_on_c, 10, 73, 0
12, 170760, Note_on_c, 10, 71, 76
12, 170807, Note_on_c, 10, 71, 0
12, 170820, Note_on_c, 10, 74, 76
12, 170867, Note_on_c, 10, 74, 0
12, 170880, Note_on_c, 10, 73, 76
12, 170927, Note_on_c, 10, 73, 0
12, 170940, Note_on_c, 10, 69, 76
12, 170987, Note_on_c, 10, 69, 0
12, 171000, Note_on_c, 10, 71, 76
12, 171047, Note_on_c, 10, 71, 0
12, 171060, Note_on_c, 10, 74, 76
12, 171107, Note_on_c, 10, 74, 0
12, 171120, Note_on_c, 10, 73, 76
12, 171167, Note_on_c, 10, 73, 0
12, 171180, Note_on_c, 10, 76, 76
12, 171227, Note_on_c, 10, 76, 0
12, 171240, Note_on_c, 10, 74, 76
12, 171287, Note_on_c, 10, 74, 0
12, 171300, Note_on_c, 10, 78, 76
12, 171347, Note_on_c, 10, 78, 0
12, 171360, Note_on_c, 10, 76, 76
12, 171527, Note_on_c, 10, 76, 0
12, 171540, Note_on_c, 10, 78, 76
12, 171587, Note_on_c, 10, 78, 0
12, 171600, Note_on_c, 10, 71, 76
12, 171767, Note_on_c, 10, 71, 0
12, 171780, Note_on_c, 10, 69, 76
12, 171827, Note_on_c, 10, 69, 0
12, 171840, Note_on_c, 10, 69, 76
12, 171887, Note_on_c, 10, 69, 0
12, 171900, Note_on_c, 10, 71, 76
12, 171947, Note_on_c, 10, 71, 0
12, 171960, Note_on_c, 10, 73, 76
12, 172007, Note_on_c, 10, 73, 0
12, 172020, Note_on_c, 10, 74, 76
12, 172067, Note_on_c, 10, 74, 0
12, 172080, Note_on_c, 10, 76, 76
12, 172127, Note_on_c, 10, 76, 0
12, 172140, Note_on_c, 10, 78, 76
12, 172187, Note_on_c, 10, 78, 0
12, 172200, Note_on_c, 10, 76, 76
12, 172247, Note_on_c, 10, 76, 0
12, 172260, Note_on_c, 10, 78, 76
12, 172307, Note_on_c, 10, 78, 0
12, 172320, Note_on_c, 10, 79, 76
12, 172367, Note_on_c, 10, 79, 0
12, 172380, Note_on_c, 10, 76, 76
12, 172427, Note_on_c, 10, 76, 0
12, 172440, Note_on_c, 10, 69, 76
12, 172487, Note_on_c, 10, 69, 0
12, 172500, Note_on_c, 10, 71, 76
12, 172547, Note_on_c, 10, 71, 0
12, 172560, Note_on_c, 10, 73, 76
12, 172607, Note_on_c, 10, 73, 0
12, 172620, Note_on_c, 10, 74, 76
12, 172667, Note_on_c, 10, 74, 0
12, 172680, Note_on_c, 10, 73, 76
12, 172727, Note_on_c, 10, 73, 0
12, 172740, Note_on_c, 10, 74, 76
12, 172787, Note_on_c, 10, 74, 0
12, 172800, Note_on_c, 10, 76, 76
12, 172847, Note_on_c, 10, 76, 0
12, 172860, Note_on_c, 10, 74, 76
12, 172907, Note_on_c, 10, 74, 0
12, 172920, Note_on_c, 10, 73, 76
12, 172967, Note_on_c, 10, 73, 0
12, 172980, Note_on_c, 10, 74, 76
12, 173027, Note_on_c, 10, 74, 0
12, 173040, Note_on_c, 10, 76, 76
12, 173087, Note_on_c, 10, 76, 0
12, 173100, Note_on_c, 10, 74, 76
12, 173147, Note_on_c, 10, 74, 0
12, 173160, Note_on_c, 10, 73, 76
12, 173207, Note_on_c, 10, 73, 0
12, 173220, Note_on_c, 10, 71, 76
12, 173267, Note_on_c, 10, 71, 0
12, 173280, Note_on_c, 10, 69, 76
12, 173384, Note_on_c, 10, 69, 0
12, 173400, Note_on_c, 10, 78, 76
12, 173504, Note_on_c, 10, 78, 0
12, 173520, Note_on_c, 10, 71, 76
12, 173624, Note_on_c, 10, 71, 0
12, 173640, Note_on_c, 10, 75, 76
12, 173864, Note_on_c, 10, 75, 0
12, 173880, Note_on_c, 10, 78, 76
12, 173984, Note_on_c, 10, 78, 0
12, 174000, Note_on_c, 10, 69, 76
12, 174104, Note_on_c, 10, 69, 0
12, 174120, Note_on_c, 10, 75, 76
12, 174344, Note_on_c, 10, 75, 0
12, 174360, Note_on_c, 10, 78, 76
12, 174464, Note_on_c, 10, 78, 0
12, 174480, Note_on_c, 10, 71, 76
12, 174584, Note_on_c, 10, 71, 0
12, 174600, Note_on_c, 10, 75, 76
12, 174704, Note_on_c, 10, 75, 0
12, 174720, Note_on_c, 10, 76, 76
12, 174824, Note_on_c, 10, 76, 0
12, 174840, Note_on_c, 10, 64, 76
12, 174887, Note_on_c, 10, 64, 0
12, 174900, Note_on_c, 10, 66, 76
12, 174947, Note_on_c, 10, 66, 0
12, 174960, Note_on_c, 10, 68, 76
12, 175064, Note_on_c, 10, 68, 0
12, 175080, Note_on_c, 10, 68, 76
12, 175127, Note_on_c, 10, 68, 0
12, 175140, Note_on_c, 10, 69, 76
12, 175187, Note_on_c, 10, 69, 0
12, 175200, Note_on_c, 10, 71, 76
12, 175304, Note_on_c, 10, 71, 0
12, 175320, Note_on_c, 10, 68, 76
12, 175367, Note_on_c, 10, 68, 0
12, 175380, Note_on_c, 10, 69, 76
12, 175427, Note_on_c, 10, 69, 0
12, 175440, Note_on_c, 10, 71, 76
12, 175544, Note_on_c, 10, 71, 0
12, 175560, Note_on_c, 10, 71, 76
12, 175607, Note_on_c, 10, 71, 0
12, 175620, Note_on_c, 10, 73, 76
12, 175667, Note_on_c, 10, 73, 0
12, 175680, Note_on_c, 10, 74, 76
12, 175784, Note_on_c, 10, 74, 0
12, 175800, Note_on_c, 10, 74, 76
12, 175847, Note_on_c, 10, 74, 0
12, 175860, Note_on_c, 10, 73, 76
12, 175907, Note_on_c, 10, 73, 0
12, 175920, Note_on_c, 10, 74, 76
12, 176024, Note_on_c, 10, 74, 0
12, 176040, Note_on_c, 10, 76, 76
12, 176087, Note_on_c, 10, 76, 0
12, 176100, Note_on_c, 10, 74, 76
12, 176147, Note_on_c, 10, 74, 0
12, 176160, Note_on_c, 10, 73, 76
12, 176264, Note_on_c, 10, 73, 0
12, 176280, Note_on_c, 10, 73, 76
12, 176327, Note_on_c, 10, 73, 0
12, 176340, Note_on_c, 10, 71, 76
12, 176387, Note_on_c, 10, 71, 0
12, 176400, Note_on_c, 10, 73, 76
12, 176504, Note_on_c, 10, 73, 0
12, 176520, Note_on_c, 10, 74, 76
12, 176567, Note_on_c, 10, 74, 0
12, 176580, Note_on_c, 10, 73, 76
12, 176627, Note_on_c, 10, 73, 0
12, 176640, Note_on_c, 10, 71, 76
12, 176744, Note_on_c, 10, 71, 0
12, 176760, Note_on_c, 10, 71, 76
12, 176807, Note_on_c, 10, 71, 0
12, 176820, Note_on_c, 10, 69, 76
12, 176867, Note_on_c, 10, 69, 0
12, 176880, Note_on_c, 10, 71, 76
12, 176984, Note_on_c, 10, 71, 0
12, 177000, Note_on_c, 10, 73, 76
12, 177047, Note_on_c, 10, 73, 0
12, 177060, Note_on_c, 10, 71, 76
12, 177107, Note_on_c, 10, 71, 0
12, 177120, Note_on_c, 10, 69, 76
12, 177224, Note_on_c, 10, 69, 0
12, 177240, Note_on_c, 10, 69, 76
12, 177287, Note_on_c, 10, 69, 0
12, 177300, Note_on_c, 10, 71, 76
12, 177347, Note_on_c, 10, 71, 0
12, 177360, Note_on_c, 10, 73, 76
12, 177464, Note_on_c, 10, 73, 0
12, 177480, Note_on_c, 10, 73, 76
12, 177527, Note_on_c, 10, 73, 0
12, 177540, Note_on_c, 10, 74, 76
12, 177587, Note_on_c, 10, 74, 0
12, 177600, Note_on_c, 10, 76, 76
12, 177704, Note_on_c, 10, 76, 0
12, 177720, Note_on_c, 10, 73, 76
12, 177767, Note_on_c, 10, 73, 0
12, 177780, Note_on_c, 10, 74, 76
12, 177827, Note_on_c, 10, 74, 0
12, 177840, Note_on_c, 10, 76, 76
12, 177944, Note_on_c, 10, 76, 0
12, 177960, Note_on_c, 10, 76, 76
12, 178007, Note_on_c, 10, 76, 0
12, 178020, Note_on_c, 10, 78, 76
12, 178067, Note_on_c, 10, 78, 0
12, 178080, Note_on_c, 10, 79, 76
12, 178184, Note_on_c, 10, 79, 0
12, 178200, Note_on_c, 10, 79, 76
12, 178247, Note_on_c, 10, 79, 0
12, 178260, Note_on_c, 10, 78, 76
12, 178307, Note_on_c, 10, 78, 0
12, 178320, Note_on_c, 10, 79, 76
12, 178424, Note_on_c, 10, 79, 0
12, 178440, Note_on_c, 10, 81, 76
12, 178487, Note_on_c, 10, 81, 0
12, 178500, Note_on_c, 10, 79, 76
12, 178547, Note_on_c, 10, 79, 0
12, 178560, Note_on_c, 10, 78, 76
12, 178607, Note_on_c, 10, 78, 0
12, 178620, Note_on_c, 10, 74, 76
12, 178667, Note_on_c, 10, 74, 0
12, 178680, Note_on_c, 10, 71, 76
12, 178727, Note_on_c, 10, 71, 0
12, 178740, Note_on_c, 10, 73, 76
12, 178787, Note_on_c, 10, 73, 0
12, 178800, Note_on_c, 10, 74, 76
12, 178847, Note_on_c, 10, 74, 0
12, 178860, Note_on_c, 10, 76, 76
12, 178907, Note_on_c, 10, 76, 0
12, 178920, Note_on_c, 10, 73, 76
12, 178967, Note_on_c, 10, 73, 0
12, 178980, Note_on_c, 10, 74, 76
12, 179027, Note_on_c, 10, 74, 0
12, 179040, Note_on_c, 10, 76, 76
12, 179087, Note_on_c, 10, 76, 0
12, 179100, Note_on_c, 10, 73, 76
12, 179147, Note_on_c, 10, 73, 0
12, 179160, Note_on_c, 10, 70, 76
12, 179207, Note_on_c, 10, 70, 0
12, 179220, Note_on_c, 10, 71, 76
12, 179267, Note_on_c, 10, 71, 0
12, 179280, Note_on_c, 10, 73, 76
12, 179327, Note_on_c, 10, 73, 0
12, 179340, Note_on_c, 10, 74, 76
12, 179387, Note_on_c, 10, 74, 0
12, 179400, Note_on_c, 10, 71, 76
12, 179447, Note_on_c, 10, 71, 0
12, 179460, Note_on_c, 10, 73, 76
12, 179507, Note_on_c, 10, 73, 0
12, 179520, Note_on_c, 10, 74, 76
12, 179567, Note_on_c, 10, 74, 0
12, 179580, Note_on_c, 10, 76, 76
12, 179627, Note_on_c, 10, 76, 0
12, 179640, Note_on_c, 10, 73, 76
12, 179687, Note_on_c, 10, 73, 0
12, 179700, Note_on_c, 10, 74, 76
12, 179747, Note_on_c, 10, 74, 0
12, 179760, Note_on_c, 10, 76, 76
12, 179807, Note_on_c, 10, 76, 0
12, 179820, Note_on_c, 10, 74, 76
12, 179867, Note_on_c, 10, 74, 0
12, 179880, Note_on_c, 10, 73, 76
12, 179927, Note_on_c, 10, 73, 0
12, 179940, Note_on_c, 10, 71, 76
12, 179987, Note_on_c, 10, 71, 0
12, 180000, Note_on_c, 10, 78, 76
12, 180104, Note_on_c, 10, 78, 0
12, 180120, Note_on_c, 10, 78, 76
12, 180224, Note_on_c, 10, 78, 0
12, 180240, Note_on_c, 10, 78, 76
12, 180344, Note_on_c, 10, 78, 0
12, 180360, Note_on_c, 10, 78, 76
12, 180464, Note_on_c, 10, 78, 0
12, 180480, Note_on_c, 10, 78, 76
12, 180584, Note_on_c, 10, 78, 0
12, 180600, Note_on_c, 10, 78, 76
12, 180704, Note_on_c, 10, 78, 0
12, 180720, Note_on_c, 10, 78, 76
12, 180824, Note_on_c, 10, 78, 0
12, 180840, Note_on_c, 10, 78, 76
12, 180944, Note_on_c, 10, 78, 0
12, 180960, Note_on_c, 10, 78, 76
12, 181064, Note_on_c, 10, 78, 0
12, 181080, Note_on_c, 10, 78, 76
12, 181184, Note_on_c, 10, 78, 0
12, 181200, Note_on_c, 10, 78, 76
12, 181304, Note_on_c, 10, 78, 0
12, 181320, Note_on_c, 10, 78, 76
12, 181424, Note_on_c, 10, 78, 0
12, 181440, Note_on_c, 10, 78, 76
12, 181487, Note_on_c, 10, 78, 0
12, 181500, Note_on_c, 10, 76, 76
12, 181547, Note_on_c, 10, 76, 0
12, 181560, Note_on_c, 10, 78, 76
12, 181607, Note_on_c, 10, 78, 0
12, 181620, Note_on_c, 10, 79, 76
12, 181667, Note_on_c, 10, 79, 0
12, 181680, Note_on_c, 10, 78, 76
12, 181727, Note_on_c, 10, 78, 0
12, 181740, Note_on_c, 10, 83, 76
12, 181787, Note_on_c, 10, 83, 0
12, 181800, Note_on_c, 10, 82, 76
12, 181847, Note_on_c, 10, 82, 0
12, 181860, Note_on_c, 10, 83, 76
12, 181907, Note_on_c, 10, 83, 0
12, 181920, Note_on_c, 10, 76, 76
12, 181967, Note_on_c, 10, 76, 0
12, 181980, Note_on_c, 10, 74, 76
12, 182027, Note_on_c, 10, 74, 0
12, 182040, Note_on_c, 10, 76, 76
12, 182087, Note_on_c, 10, 76, 0
12, 182100, Note_on_c, 10, 78, 76
12, 182147, Note_on_c, 10, 78, 0
12, 182160, Note_on_c, 10, 76, 76
12, 182207, Note_on_c, 10, 76, 0
12, 182220, Note_on_c, 10, 79, 76
12, 182267, Note_on_c, 10, 79, 0
12, 182280, Note_on_c, 10, 78, 76
12, 182327, Note_on_c, 10, 78, 0
12, 182340, Note_on_c, 10, 76, 76
12, 182387, Note_on_c, 10, 76, 0
12, 182400, Note_on_c, 10, 74, 76
12, 182504, Note_on_c, 10, 74, 0
12, 182520, Note_on_c, 10, 78, 76
12, 182624, Note_on_c, 10, 78, 0
12, 182640, Note_on_c, 10, 79, 76
12, 182744, Note_on_c, 10, 79, 0
12, 182760, Note_on_c, 10, 71, 76
12, 182864, Note_on_c, 10, 71, 0
12, 182880, Note_on_c, 10, 70, 76
12, 182927, Note_on_c, 10, 70, 0
12, 182940, Note_on_c, 10, 66, 76
12, 182987, Note_on_c, 10, 66, 0
12, 183000, Note_on_c, 10, 68, 76
12, 183047, Note_on_c, 10, 68, 0
12, 183060, Note_on_c, 10, 70, 76
12, 183107, Note_on_c, 10, 70, 0
12, 183120, Note_on_c, 10, 71, 76
12, 183167, Note_on_c, 10, 71, 0
12, 183180, Note_on_c, 10, 73, 76
12, 183227, Note_on_c, 10, 73, 0
12, 183240, Note_on_c, 10, 74, 76
12, 183287, Note_on_c, 10, 74, 0
12, 183300, Note_on_c, 10, 76, 76
12, 183347, Note_on_c, 10, 76, 0
12, 183360, Note_on_c, 10, 78, 76
12, 183407, Note_on_c, 10, 78, 0
12, 183420, Note_on_c, 10, 79, 76
12, 183467, Note_on_c, 10, 79, 0
12, 183480, Note_on_c, 10, 78, 76
12, 183527, Note_on_c, 10, 78, 0
12, 183540, Note_on_c, 10, 76, 76
12, 183587, Note_on_c, 10, 76, 0
12, 183600, Note_on_c, 10, 74, 76
12, 183647, Note_on_c, 10, 74, 0
12, 183660, Note_on_c, 10, 73, 76
12, 183707, Note_on_c, 10, 73, 0
12, 183720, Note_on_c, 10, 71, 76
12, 183767, Note_on_c, 10, 71, 0
12, 183780, Note_on_c, 10, 70, 76
12, 183827, Note_on_c, 10, 70, 0
12, 183840, Note_on_c, 10, 71, 76
12, 183944, Note_on_c, 10, 71, 0
12, 183960, Note_on_c, 10, 73, 76
12, 184064, Note_on_c, 10, 73, 0
12, 184080, Note_on_c, 10, 66, 76
12, 184184, Note_on_c, 10, 66, 0
12, 184200, Note_on_c, 10, 70, 76
12, 184304, Note_on_c, 10, 70, 0
12, 184320, Note_on_c, 10, 71, 76
12, 184367, Note_on_c, 10, 71, 0
12, 184380, Note_on_c, 10, 66, 76
12, 184427, Note_on_c, 10, 66, 0
12, 184440, Note_on_c, 10, 62, 76
12, 184487, Note_on_c, 10, 62, 0
12, 184500, Note_on_c, 10, 66, 76
12, 184547, Note_on_c, 10, 66, 0
12, 184560, Note_on_c, 10, 71, 76
12, 184607, Note_on_c, 10, 71, 0
12, 184620, Note_on_c, 10, 74, 76
12, 184667, Note_on_c, 10, 74, 0
12, 184680, Note_on_c, 10, 73, 76
12, 184727, Note_on_c, 10, 73, 0
12, 184740, Note_on_c, 10, 76, 76
12, 184787, Note_on_c, 10, 76, 0
12, 184800, Note_on_c, 10, 74, 76
12, 184847, Note_on_c, 10, 74, 0
12, 184860, Note_on_c, 10, 78, 76
12, 184907, Note_on_c, 10, 78, 0
12, 184920, Note_on_c, 10, 83, 76
12, 184967, Note_on_c, 10, 83, 0
12, 184980, Note_on_c, 10, 74, 76
12, 185027, Note_on_c, 10, 74, 0
12, 185040, Note_on_c, 10, 73, 76
12, 185087, Note_on_c, 10, 73, 0
12, 185100, Note_on_c, 10, 83, 76
12, 185147, Note_on_c, 10, 83, 0
12, 185160, Note_on_c, 10, 73, 76
12, 185207, Note_on_c, 10, 73, 0
12, 185220, Note_on_c, 10, 82, 76
12, 185267, Note_on_c, 10, 82, 0
12, 185280, Note_on_c, 10, 83, 76
12, 185327, Note_on_c, 10, 83, 0
12, 185340, Note_on_c, 10, 78, 76
12, 185387, Note_on_c, 10, 78, 0
12, 185400, Note_on_c, 10, 74, 76
12, 185447, Note_on_c, 10, 74, 0
12, 185460, Note_on_c, 10, 78, 76
12, 185507, Note_on_c, 10, 78, 0
12, 185520, Note_on_c, 10, 71, 76
12, 185567, Note_on_c, 10, 71, 0
12, 185580, Note_on_c, 10, 74, 76
12, 185627, Note_on_c, 10, 74, 0
12, 185640, Note_on_c, 10, 68, 76
12, 185687, Note_on_c, 10, 68, 0
12, 185700, Note_on_c, 10, 77, 76
12, 185747, Note_on_c, 10, 77, 0
12, 185760, Note_on_c, 10, 78, 76
12, 185807, Note_on_c, 10, 78, 0
12, 185820, Note_on_c, 10, 73, 76
12, 185867, Note_on_c, 10, 73, 0
12, 185880, Note_on_c, 10, 69, 76
12, 185927, Note_on_c, 10, 69, 0
12, 185940, Note_on_c, 10, 78, 76
12, 185987, Note_on_c, 10, 78, 0
12, 186000, Note_on_c, 10, 68, 76
12, 186047, Note_on_c, 10, 68, 0
12, 186060, Note_on_c, 10, 78, 76
12, 186107, Note_on_c, 10, 78, 0
12, 186120, Note_on_c, 10, 68, 76
12, 186167, Note_on_c, 10, 68, 0
12, 186180, Note_on_c, 10, 77, 76
12, 186227, Note_on_c, 10, 77, 0
12, 186240, Note_on_c, 10, 78, 76
12, 186287, Note_on_c, 10, 78, 0
12, 186300, Note_on_c, 10, 73, 76
12, 186347, Note_on_c, 10, 73, 0
12, 186360, Note_on_c, 10, 69, 76
12, 186407, Note_on_c, 10, 69, 0
12, 186420, Note_on_c, 10, 73, 76
12, 186467, Note_on_c, 10, 73, 0
12, 186480, Note_on_c, 10, 78, 76
12, 186527, Note_on_c, 10, 78, 0
12, 186540, Note_on_c, 10, 79, 76
12, 186587, Note_on_c, 10, 79, 0
12, 186600, Note_on_c, 10, 81, 76
12, 186647, Note_on_c, 10, 81, 0
12, 186660, Note_on_c, 10, 78, 76
12, 186707, Note_on_c, 10, 78, 0
12, 186720, Note_on_c, 10, 72, 76
12, 186779, Note_on_c, 10, 72, 0
12, 186780, Note_on_c, 10, 71, 76
12, 186839, Note_on_c, 10, 71, 0
12, 186840, Note_on_c, 10, 72, 76
12, 186887, Note_on_c, 10, 72, 0
12, 186900, Note_on_c, 10, 81, 76
12, 186947, Note_on_c, 10, 81, 0
12, 186960, Note_on_c, 10, 72, 76
12, 187019, Note_on_c, 10, 72, 0
12, 187020, Note_on_c, 10, 71, 76
12, 187079, Note_on_c, 10, 71, 0
12, 187080, Note_on_c, 10, 72, 76
12, 187127, Note_on_c, 10, 72, 0
12, 187140, Note_on_c, 10, 81, 76
12, 187187, Note_on_c, 10, 81, 0
12, 187200, Note_on_c, 10, 71, 76
12, 187247, Note_on_c, 10, 71, 0
12, 187260, Note_on_c, 10, 69, 76
12, 187307, Note_on_c, 10, 69, 0
12, 187320, Note_on_c, 10, 71, 76
12, 187367, Note_on_c, 10, 71, 0
12, 187380, Note_on_c, 10, 73, 76
12, 187427, Note_on_c, 10, 73, 0
12, 187440, Note_on_c, 10, 75, 76
12, 187487, Note_on_c, 10, 75, 0
12, 187500, Note_on_c, 10, 76, 76
12, 187547, Note_on_c, 10, 76, 0
12, 187560, Note_on_c, 10, 78, 76
12, 187607, Note_on_c, 10, 78, 0
12, 187620, Note_on_c, 10, 79, 76
12, 187667, Note_on_c, 10, 79, 0
12, 187680, Note_on_c, 10, 81, 76
12, 187727, Note_on_c, 10, 81, 0
12, 187740, Note_on_c, 10, 78, 76
12, 187787, Note_on_c, 10, 78, 0
12, 187800, Note_on_c, 10, 75, 76
12, 187847, Note_on_c, 10, 75, 0
12, 187860, Note_on_c, 10, 78, 76
12, 187907, Note_on_c, 10, 78, 0
12, 187920, Note_on_c, 10, 71, 76
12, 187967, Note_on_c, 10, 71, 0
12, 187980, Note_on_c, 10, 81, 76
12, 188027, Note_on_c, 10, 81, 0
12, 188040, Note_on_c, 10, 79, 76
12, 188087, Note_on_c, 10, 79, 0
12, 188100, Note_on_c, 10, 78, 76
12, 188147, Note_on_c, 10, 78, 0
12, 188160, Note_on_c, 10, 79, 76
12, 188207, Note_on_c, 10, 79, 0
12, 188220, Note_on_c, 10, 76, 76
12, 188267, Note_on_c, 10, 76, 0
12, 188280, Note_on_c, 10, 71, 76
12, 188327, Note_on_c, 10, 71, 0
12, 188340, Note_on_c, 10, 67, 76
12, 188387, Note_on_c, 10, 67, 0
12, 188400, Note_on_c, 10, 71, 76
12, 188447, Note_on_c, 10, 71, 0
12, 188460, Note_on_c, 10, 76, 76
12, 188507, Note_on_c, 10, 76, 0
12, 188520, Note_on_c, 10, 79, 76
12, 188567, Note_on_c, 10, 79, 0
12, 188580, Note_on_c, 10, 81, 76
12, 188627, Note_on_c, 10, 81, 0
12, 188640, Note_on_c, 10, 80, 76
12, 188699, Note_on_c, 10, 80, 0
12, 188700, Note_on_c, 10, 78, 76
12, 188759, Note_on_c, 10, 78, 0
12, 188760, Note_on_c, 10, 80, 76
12, 188807, Note_on_c, 10, 80, 0
12, 188820, Note_on_c, 10, 83, 76
12, 188867, Note_on_c, 10, 83, 0
12, 188880, Note_on_c, 10, 80, 76
12, 188939, Note_on_c, 10, 80, 0
12, 188940, Note_on_c, 10, 78, 76
12, 188999, Note_on_c, 10, 78, 0
12, 189000, Note_on_c, 10, 80, 76
12, 189047, Note_on_c, 10, 80, 0
12, 189060, Note_on_c, 10, 83, 76
12, 189107, Note_on_c, 10, 83, 0
12, 189120, Note_on_c, 10, 81, 76
12, 189167, Note_on_c, 10, 81, 0
12, 189180, Note_on_c, 10, 76, 76
12, 189227, Note_on_c, 10, 76, 0
12, 189240, Note_on_c, 10, 73, 76
12, 189287, Note_on_c, 10, 73, 0
12, 189300, Note_on_c, 10, 76, 76
12, 189347, Note_on_c, 10, 76, 0
12, 189360, Note_on_c, 10, 69, 76
12, 189407, Note_on_c, 10, 69, 0
12, 189420, Note_on_c, 10, 71, 76
12, 189467, Note_on_c, 10, 71, 0
12, 189480, Note_on_c, 10, 73, 76
12, 189527, Note_on_c, 10, 73, 0
12, 189540, Note_on_c, 10, 74, 76
12, 189587, Note_on_c, 10, 74, 0
12, 189600, Note_on_c, 10, 76, 76
12, 189647, Note_on_c, 10, 76, 0
12, 189660, Note_on_c, 10, 78, 76
12, 189707, Note_on_c, 10, 78, 0
12, 189720, Note_on_c, 10, 79, 76
12, 189767, Note_on_c, 10, 79, 0
12, 189780, Note_on_c, 10, 81, 76
12, 189827, Note_on_c, 10, 81, 0
12, 189840, Note_on_c, 10, 79, 76
12, 189887, Note_on_c, 10, 79, 0
12, 189900, Note_on_c, 10, 78, 76
12, 189947, Note_on_c, 10, 78, 0
12, 189960, Note_on_c, 10, 79, 76
12, 190007, Note_on_c, 10, 79, 0
12, 190020, Note_on_c, 10, 76, 76
12, 190067, Note_on_c, 10, 76, 0
12, 190080, Note_on_c, 10, 78, 76
12, 190127, Note_on_c, 10, 78, 0
12, 190140, Note_on_c, 10, 74, 76
12, 190187, Note_on_c, 10, 74, 0
12, 190200, Note_on_c, 10, 69, 76
12, 190247, Note_on_c, 10, 69, 0
12, 190260, Note_on_c, 10, 72, 76
12, 190307, Note_on_c, 10, 72, 0
12, 190320, Note_on_c, 10, 71, 76
12, 190367, Note_on_c, 10, 71, 0
12, 190380, Note_on_c, 10, 74, 76
12, 190427, Note_on_c, 10, 74, 0
12, 190440, Note_on_c, 10, 67, 76
12, 190487, Note_on_c, 10, 67, 0
12, 190500, Note_on_c, 10, 78, 76
12, 190547, Note_on_c, 10, 78, 0
12, 190560, Note_on_c, 10, 76, 76
12, 190607, Note_on_c, 10, 76, 0
12, 190620, Note_on_c, 10, 73, 76
12, 190667, Note_on_c, 10, 73, 0
12, 190680, Note_on_c, 10, 67, 76
12, 190727, Note_on_c, 10, 67, 0
12, 190740, Note_on_c, 10, 71, 76
12, 190787, Note_on_c, 10, 71, 0
12, 190800, Note_on_c, 10, 69, 76
12, 190847, Note_on_c, 10, 69, 0
12, 190860, Note_on_c, 10, 73, 76
12, 190907, Note_on_c, 10, 73, 0
12, 190920, Note_on_c, 10, 66, 76
12, 190967, Note_on_c, 10, 66, 0
12, 190980, Note_on_c, 10, 76, 76
12, 191027, Note_on_c, 10, 76, 0
12, 191040, Note_on_c, 10, 74, 76
12, 191087, Note_on_c, 10, 74, 0
12, 191100, Note_on_c, 10, 71, 76
12, 191147, Note_on_c, 10, 71, 0
12, 191160, Note_on_c, 10, 66, 76
12, 191207, Note_on_c, 10, 66, 0
12, 191220, Note_on_c, 10, 69, 76
12, 191267, Note_on_c, 10, 69, 0
12, 191280, Note_on_c, 10, 67, 76
12, 191327, Note_on_c, 10, 67, 0
12, 191340, Note_on_c, 10, 71, 76
12, 191387, Note_on_c, 10, 71, 0
12, 191400, Note_on_c, 10, 64, 76
12, 191447, Note_on_c, 10, 64, 0
12, 191460, Note_on_c, 10, 74, 76
12, 191507, Note_on_c, 10, 74, 0
12, 191520, Note_on_c, 10, 73, 76
12, 191567, Note_on_c, 10, 73, 0
12, 191580, Note_on_c, 10, 76, 76
12, 191627, Note_on_c, 10, 76, 0
12, 191640, Note_on_c, 10, 69, 76
12, 191687, Note_on_c, 10, 69, 0
12, 191700, Note_on_c, 10, 73, 76
12, 191747, Note_on_c, 10, 73, 0
12, 191760, Note_on_c, 10, 74, 76
12, 191807, Note_on_c, 10, 74, 0
12, 191820, Note_on_c, 10, 78, 76
12, 191867, Note_on_c, 10, 78, 0
12, 191880, Note_on_c, 10, 69, 76
12, 191927, Note_on_c, 10, 69, 0
12, 191940, Note_on_c, 10, 74, 76
12, 191987, Note_on_c, 10, 74, 0
12, 192000, Note_on_c, 10, 76, 76
12, 192047, Note_on_c, 10, 76, 0
12, 192060, Note_on_c, 10, 79, 76
12, 192107, Note_on_c, 10, 79, 0
12, 192120, Note_on_c, 10, 69, 76
12, 192167, Note_on_c, 10, 69, 0
12, 192180, Note_on_c, 10, 76, 76
12, 192227, Note_on_c, 10, 76, 0
12, 192240, Note_on_c, 10, 78, 76
12, 192287, Note_on_c, 10, 78, 0
12, 192300, Note_on_c, 10, 81, 76
12, 192347, Note_on_c, 10, 81, 0
12, 192360, Note_on_c, 10, 74, 76
12, 192407, Note_on_c, 10, 74, 0
12, 192420, Note_on_c, 10, 78, 76
12, 192467, Note_on_c, 10, 78, 0
12, 192480, Note_on_c, 10, 73, 76
12, 192527, Note_on_c, 10, 73, 0
12, 192540, Note_on_c, 10, 76, 76
12, 192587, Note_on_c, 10, 76, 0
12, 192600, Note_on_c, 10, 69, 76
12, 192647, Note_on_c, 10, 69, 0
12, 192660, Note_on_c, 10, 73, 76
12, 192707, Note_on_c, 10, 73, 0
12, 192720, Note_on_c, 10, 76, 76
12, 192767, Note_on_c, 10, 76, 0
12, 192780, Note_on_c, 10, 79, 76
12, 192827, Note_on_c, 10, 79, 0
12, 192840, Note_on_c, 10, 78, 76
12, 192887, Note_on_c, 10, 78, 0
12, 192900, Note_on_c, 10, 76, 76
12, 192947, Note_on_c, 10, 76, 0
12, 192960, Note_on_c, 10, 78, 76
12, 193007, Note_on_c, 10, 78, 0
12, 193020, Note_on_c, 10, 74, 76
12, 193067, Note_on_c, 10, 74, 0
12, 193080, Note_on_c, 10, 71, 76
12, 193127, Note_on_c, 10, 71, 0
12, 193140, Note_on_c, 10, 74, 76
12, 193187, Note_on_c, 10, 74, 0
12, 193200, Note_on_c, 10, 68, 76
12, 193247, Note_on_c, 10, 68, 0
12, 193260, Note_on_c, 10, 78, 76
12, 193307, Note_on_c, 10, 78, 0
12, 193320, Note_on_c, 10, 76, 76
12, 193367, Note_on_c, 10, 76, 0
12, 193380, Note_on_c, 10, 74, 76
12, 193427, Note_on_c, 10, 74, 0
12, 193440, Note_on_c, 10, 73, 76
12, 193487, Note_on_c, 10, 73, 0
12, 193500, Note_on_c, 10, 74, 76
12, 193547, Note_on_c, 10, 74, 0
12, 193560, Note_on_c, 10, 73, 76
12, 193607, Note_on_c, 10, 73, 0
12, 193620, Note_on_c, 10, 71, 76
12, 193667, Note_on_c, 10, 71, 0
12, 193680, Note_on_c, 10, 69, 76
12, 193727, Note_on_c, 10, 69, 0
12, 193740, Note_on_c, 10, 67, 76
12, 193787, Note_on_c, 10, 67, 0
12, 193800, Note_on_c, 10, 66, 76
12, 193847, Note_on_c, 10, 66, 0
12, 193860, Note_on_c, 10, 64, 76
12, 193907, Note_on_c, 10, 64, 0
12, 193920, Note_on_c, 10, 63, 76
12, 193967, Note_on_c, 10, 63, 0
12, 193980, Note_on_c, 10, 69, 76
12, 194039, Note_on_c, 10, 69, 0
12, 194040, Note_on_c, 10, 71, 76
12, 194099, Note_on_c, 10, 71, 0
12, 194100, Note_on_c, 10, 69, 76
12, 194147, Note_on_c, 10, 69, 0
12, 194160, Note_on_c, 10, 71, 76
12, 194207, Note_on_c, 10, 71, 0
12, 194220, Note_on_c, 10, 69, 76
12, 194267, Note_on_c, 10, 69, 0
12, 194280, Note_on_c, 10, 71, 76
12, 194327, Note_on_c, 10, 71, 0
12, 194340, Note_on_c, 10, 69, 76
12, 194387, Note_on_c, 10, 69, 0
12, 194400, Note_on_c, 10, 62, 76
12, 194447, Note_on_c, 10, 62, 0
12, 194460, Note_on_c, 10, 69, 76
12, 194519, Note_on_c, 10, 69, 0
12, 194520, Note_on_c, 10, 71, 76
12, 194579, Note_on_c, 10, 71, 0
12, 194580, Note_on_c, 10, 69, 76
12, 194627, Note_on_c, 10, 69, 0
12, 194640, Note_on_c, 10, 71, 76
12, 194687, Note_on_c, 10, 71, 0
12, 194700, Note_on_c, 10, 69, 76
12, 194747, Note_on_c, 10, 69, 0
12, 194760, Note_on_c, 10, 71, 76
12, 194807, Note_on_c, 10, 71, 0
12, 194820, Note_on_c, 10, 69, 76
12, 194867, Note_on_c, 10, 69, 0
12, 194880, Note_on_c, 10, 63, 76
12, 194939, Note_on_c, 10, 63, 0
12, 194940, Note_on_c, 10, 69, 76
12, 194999, Note_on_c, 10, 69, 0
12, 195000, Note_on_c, 10, 71, 76
12, 195047, Note_on_c, 10, 71, 0
12, 195060, Note_on_c, 10, 72, 76
12, 195107, Note_on_c, 10, 72, 0
12, 195120, Note_on_c, 10, 71, 76
12, 195167, Note_on_c, 10, 71, 0
12, 195180, Note_on_c, 10, 69, 76
12, 195227, Note_on_c, 10, 69, 0
12, 195240, Note_on_c, 10, 68, 76
12, 195287, Note_on_c, 10, 68, 0
12, 195300, Note_on_c, 10, 66, 76
12, 195347, Note_on_c, 10, 66, 0
12, 195360, Note_on_c, 10, 62, 76
12, 195419, Note_on_c, 10, 62, 0
12, 195420, Note_on_c, 10, 68, 76
12, 195479, Note_on_c, 10, 68, 0
12, 195480, Note_on_c, 10, 71, 76
12, 195527, Note_on_c, 10, 71, 0
12, 195540, Note_on_c, 10, 68, 76
12, 195587, Note_on_c, 10, 68, 0
12, 195600, Note_on_c, 10, 71, 76
12, 195647, Note_on_c, 10, 71, 0
12, 195660, Note_on_c, 10, 68, 76
12, 195707, Note_on_c, 10, 68, 0
12, 195720, Note_on_c, 10, 71, 76
12, 195767, Note_on_c, 10, 71, 0
12, 195780, Note_on_c, 10, 68, 76
12, 195827, Note_on_c, 10, 68, 0
12, 195840, Note_on_c, 10, 62, 76
12, 195899, Note_on_c, 10, 62, 0
12, 195900, Note_on_c, 10, 68, 76
12, 195959, Note_on_c, 10, 68, 0
12, 195960, Note_on_c, 10, 71, 76
12, 196007, Note_on_c, 10, 71, 0
12, 196020, Note_on_c, 10, 68, 76
12, 196067, Note_on_c, 10, 68, 0
12, 196080, Note_on_c, 10, 71, 76
12, 196127, Note_on_c, 10, 71, 0
12, 196140, Note_on_c, 10, 68, 76
12, 196187, Note_on_c, 10, 68, 0
12, 196200, Note_on_c, 10, 71, 76
12, 196247, Note_on_c, 10, 71, 0
12, 196260, Note_on_c, 10, 68, 76
12, 196307, Note_on_c, 10, 68, 0
12, 196320, Note_on_c, 10, 62, 76
12, 196379, Note_on_c, 10, 62, 0
12, 196380, Note_on_c, 10, 68, 76
12, 196439, Note_on_c, 10, 68, 0
12, 196440, Note_on_c, 10, 71, 76
12, 196487, Note_on_c, 10, 71, 0
12, 196500, Note_on_c, 10, 69, 76
12, 196547, Note_on_c, 10, 69, 0
12, 196560, Note_on_c, 10, 68, 76
12, 196607, Note_on_c, 10, 68, 0
12, 196620, Note_on_c, 10, 66, 76
12, 196667, Note_on_c, 10, 66, 0
12, 196680, Note_on_c, 10, 64, 76
12, 196727, Note_on_c, 10, 64, 0
12, 196740, Note_on_c, 10, 62, 76
12, 196787, Note_on_c, 10, 62, 0
12, 196800, Note_on_c, 10, 61, 76
12, 196859, Note_on_c, 10, 61, 0
12, 196860, Note_on_c, 10, 67, 76
12, 196919, Note_on_c, 10, 67, 0
12, 196920, Note_on_c, 10, 69, 76
12, 196967, Note_on_c, 10, 69, 0
12, 196980, Note_on_c, 10, 67, 76
12, 197027, Note_on_c, 10, 67, 0
12, 197040, Note_on_c, 10, 69, 76
12, 197087, Note_on_c, 10, 69, 0
12, 197100, Note_on_c, 10, 67, 76
12, 197147, Note_on_c, 10, 67, 0
12, 197160, Note_on_c, 10, 69, 76
12, 197207, Note_on_c, 10, 69, 0
12, 197220, Note_on_c, 10, 67, 76
12, 197267, Note_on_c, 10, 67, 0
12, 197280, Note_on_c, 10, 61, 76
12, 197339, Note_on_c, 10, 61, 0
12, 197340, Note_on_c, 10, 67, 76
12, 197399, Note_on_c, 10, 67, 0
12, 197400, Note_on_c, 10, 69, 76
12, 197447, Note_on_c, 10, 69, 0
12, 197460, Note_on_c, 10, 67, 76
12, 197507, Note_on_c, 10, 67, 0
12, 197520, Note_on_c, 10, 69, 76
12, 197567, Note_on_c, 10, 69, 0
12, 197580, Note_on_c, 10, 67, 76
12, 197627, Note_on_c, 10, 67, 0
12, 197640, Note_on_c, 10, 69, 76
12, 197687, Note_on_c, 10, 69, 0
12, 197700, Note_on_c, 10, 67, 76
12, 197747, Note_on_c, 10, 67, 0
12, 197760, Note_on_c, 10, 61, 76
12, 197819, Note_on_c, 10, 61, 0
12, 197820, Note_on_c, 10, 67, 76
12, 197879, Note_on_c, 10, 67, 0
12, 197880, Note_on_c, 10, 69, 76
12, 197927, Note_on_c, 10, 69, 0
12, 197940, Note_on_c, 10, 71, 76
12, 197987, Note_on_c, 10, 71, 0
12, 198000, Note_on_c, 10, 69, 76
12, 198047, Note_on_c, 10, 69, 0
12, 198060, Note_on_c, 10, 67, 76
12, 198107, Note_on_c, 10, 67, 0
12, 198120, Note_on_c, 10, 66, 76
12, 198167, Note_on_c, 10, 66, 0
12, 198180, Note_on_c, 10, 64, 76
12, 198227, Note_on_c, 10, 64, 0
12, 198240, Note_on_c, 10, 60, 76
12, 198299, Note_on_c, 10, 60, 0
12, 198300, Note_on_c, 10, 66, 76
12, 198359, Note_on_c, 10, 66, 0
12, 198360, Note_on_c, 10, 69, 76
12, 198407, Note_on_c, 10, 69, 0
12, 198420, Note_on_c, 10, 66, 76
12, 198467, Note_on_c, 10, 66, 0
12, 198480, Note_on_c, 10, 69, 76
12, 198527, Note_on_c, 10, 69, 0
12, 198540, Note_on_c, 10, 66, 76
12, 198587, Note_on_c, 10, 66, 0
12, 198600, Note_on_c, 10, 69, 76
12, 198647, Note_on_c, 10, 69, 0
12, 198660, Note_on_c, 10, 66, 76
12, 198707, Note_on_c, 10, 66, 0
12, 198720, Note_on_c, 10, 60, 76
12, 198779, Note_on_c, 10, 60, 0
12, 198780, Note_on_c, 10, 66, 76
12, 198839, Note_on_c, 10, 66, 0
12, 198840, Note_on_c, 10, 69, 76
12, 198887, Note_on_c, 10, 69, 0
12, 198900, Note_on_c, 10, 66, 76
12, 198947, Note_on_c, 10, 66, 0
12, 198960, Note_on_c, 10, 69, 76
12, 199007, Note_on_c, 10, 69, 0
12, 199020, Note_on_c, 10, 66, 76
12, 199067, Note_on_c, 10, 66, 0
12, 199080, Note_on_c, 10, 69, 76
12, 199127, Note_on_c, 10, 69, 0
12, 199140, Note_on_c, 10, 66, 76
12, 199187, Note_on_c, 10, 66, 0
12, 199200, Note_on_c, 10, 60, 76
12, 199259, Note_on_c, 10, 60, 0
12, 199260, Note_on_c, 10, 66, 76
12, 199319, Note_on_c, 10, 66, 0
12, 199320, Note_on_c, 10, 69, 76
12, 199367, Note_on_c, 10, 69, 0
12, 199380, Note_on_c, 10, 67, 76
12, 199427, Note_on_c, 10, 67, 0
12, 199440, Note_on_c, 10, 66, 76
12, 199487, Note_on_c, 10, 66, 0
12, 199500, Note_on_c, 10, 64, 76
12, 199547, Note_on_c, 10, 64, 0
12, 199560, Note_on_c, 10, 62, 76
12, 199607, Note_on_c, 10, 62, 0
12, 199620, Note_on_c, 10, 60, 76
12, 199667, Note_on_c, 10, 60, 0
12, 199680, Note_on_c, 10, 59, 76
12, 199727, Note_on_c, 10, 59, 0
12, 199740, Note_on_c, 10, 55, 76
12, 199787, Note_on_c, 10, 55, 0
12, 199800, Note_on_c, 10, 57, 76
12, 199847, Note_on_c, 10, 57, 0
12, 199860, Note_on_c, 10, 60, 76
12, 199907, Note_on_c, 10, 60, 0
12, 199920, Note_on_c, 10, 59, 76
12, 199967, Note_on_c, 10, 59, 0
12, 199980, Note_on_c, 10, 62, 76
12, 200027, Note_on_c, 10, 62, 0
12, 200040, Note_on_c, 10, 61, 76
12, 200087, Note_on_c, 10, 61, 0
12, 200100, Note_on_c, 10, 64, 76
12, 200147, Note_on_c, 10, 64, 0
12, 200160, Note_on_c, 10, 62, 76
12, 200207, Note_on_c, 10, 62, 0
12, 200220, Note_on_c, 10, 59, 76
12, 200267, Note_on_c, 10, 59, 0
12, 200280, Note_on_c, 10, 61, 76
12, 200327, Note_on_c, 10, 61, 0
12, 200340, Note_on_c, 10, 64, 76
12, 200387, Note_on_c, 10, 64, 0
12, 200400, Note_on_c, 10, 62, 76
12, 200447, Note_on_c, 10, 62, 0
12, 200460, Note_on_c, 10, 66, 76
12, 200507, Note_on_c, 10, 66, 0
12, 200520, Note_on_c, 10, 64, 76
12, 200567, Note_on_c, 10, 64, 0
12, 200580, Note_on_c, 10, 67, 76
12, 200627, Note_on_c, 10, 67, 0
12, 200640, Note_on_c, 10, 66, 76
12, 200687, Note_on_c, 10, 66, 0
12, 200700, Note_on_c, 10, 62, 76
12, 200747, Note_on_c, 10, 62, 0
12, 200760, Note_on_c, 10, 64, 76
12, 200807, Note_on_c, 10, 64, 0
12, 200820, Note_on_c, 10, 67, 76
12, 200867, Note_on_c, 10, 67, 0
12, 200880, Note_on_c, 10, 66, 76
12, 200927, Note_on_c, 10, 66, 0
12, 200940, Note_on_c, 10, 69, 76
12, 200987, Note_on_c, 10, 69, 0
12, 201000, Note_on_c, 10, 67, 76
12, 201047, Note_on_c, 10, 67, 0
12, 201060, Note_on_c, 10, 71, 76
12, 201107, Note_on_c, 10, 71, 0
12, 201120, Note_on_c, 10, 69, 76
12, 201167, Note_on_c, 10, 69, 0
12, 201180, Note_on_c, 10, 62, 76
12, 201227, Note_on_c, 10, 62, 0
12, 201240, Note_on_c, 10, 66, 76
12, 201287, Note_on_c, 10, 66, 0
12, 201300, Note_on_c, 10, 69, 76
12, 201347, Note_on_c, 10, 69, 0
12, 201360, Note_on_c, 10, 74, 76
12, 201407, Note_on_c, 10, 74, 0
12, 201420, Note_on_c, 10, 78, 76
12, 201467, Note_on_c, 10, 78, 0
12, 201480, Note_on_c, 10, 76, 76
12, 201527, Note_on_c, 10, 76, 0
12, 201540, Note_on_c, 10, 74, 76
12, 201587, Note_on_c, 10, 74, 0
12, 201600, Note_on_c, 10, 73, 76
12, 201704, Note_on_c, 10, 73, 0
12, 201720, Note_on_c, 10, 69, 76
12, 201767, Note_on_c, 10, 69, 0
12, 201780, Note_on_c, 10, 71, 76
12, 201827, Note_on_c, 10, 71, 0
12, 201840, Note_on_c, 10, 73, 76
12, 201944, Note_on_c, 10, 73, 0
12, 201960, Note_on_c, 10, 73, 76
12, 202007, Note_on_c, 10, 73, 0
12, 202020, Note_on_c, 10, 74, 76
12, 202067, Note_on_c, 10, 74, 0
12, 202080, Note_on_c, 10, 76, 76
12, 202184, Note_on_c, 10, 76, 0
12, 202200, Note_on_c, 10, 73, 76
12, 202247, Note_on_c, 10, 73, 0
12, 202260, Note_on_c, 10, 74, 76
12, 202307, Note_on_c, 10, 74, 0
12, 202320, Note_on_c, 10, 76, 76
12, 202424, Note_on_c, 10, 76, 0
12, 202440, Note_on_c, 10, 76, 76
12, 202487, Note_on_c, 10, 76, 0
12, 202500, Note_on_c, 10, 78, 76
12, 202547, Note_on_c, 10, 78, 0
12, 202560, Note_on_c, 10, 79, 76
12, 202664, Note_on_c, 10, 79, 0
12, 202680, Note_on_c, 10, 79, 76
12, 202727, Note_on_c, 10, 79, 0
12, 202740, Note_on_c, 10, 78, 76
12, 202787, Note_on_c, 10, 78, 0
12, 202800, Note_on_c, 10, 79, 76
12, 202904, Note_on_c, 10, 79, 0
12, 202920, Note_on_c, 10, 81, 76
12, 202967, Note_on_c, 10, 81, 0
12, 202980, Note_on_c, 10, 79, 76
12, 203027, Note_on_c, 10, 79, 0
12, 203040, Note_on_c, 10, 78, 76
12, 203144, Note_on_c, 10, 78, 0
12, 203160, Note_on_c, 10, 81, 76
12, 203264, Note_on_c, 10, 81, 0
12, 203280, Note_on_c, 10, 74, 76
12, 203384, Note_on_c, 10, 74, 0
12, 203400, Note_on_c, 10, 78, 76
12, 203624, Note_on_c, 10, 78, 0
12, 203640, Note_on_c, 10, 81, 76
12, 203744, Note_on_c, 10, 81, 0
12, 203760, Note_on_c, 10, 72, 76
12, 203864, Note_on_c, 10, 72, 0
12, 203880, Note_on_c, 10, 78, 76
12, 204104, Note_on_c, 10, 78, 0
12, 204120, Note_on_c, 10, 81, 76
12, 204224, Note_on_c, 10, 81, 0
12, 204240, Note_on_c, 10, 74, 76
12, 204344, Note_on_c, 10, 74, 0
12, 204360, Note_on_c, 10, 78, 76
12, 204464, Note_on_c, 10, 78, 0
12, 204480, Note_on_c, 10, 79, 76
12, 204584, Note_on_c, 10, 79, 0
12, 204600, Note_on_c, 10, 83, 76
12, 204704, Note_on_c, 10, 83, 0
12, 204720, Note_on_c, 10, 74, 76
12, 204824, Note_on_c, 10, 74, 0
12, 204840, Note_on_c, 10, 80, 76
12, 205064, Note_on_c, 10, 80, 0
12, 205080, Note_on_c, 10, 83, 76
12, 205184, Note_on_c, 10, 83, 0
12, 205200, Note_on_c, 10, 76, 76
12, 205304, Note_on_c, 10, 76, 0
12, 205320, Note_on_c, 10, 80, 76
12, 205424, Note_on_c, 10, 80, 0
12, 205440, Note_on_c, 10, 81, 76
12, 205487, Note_on_c, 10, 81, 0
12, 205500, Note_on_c, 10, 76, 76
12, 205547, Note_on_c, 10, 76, 0
12, 205560, Note_on_c, 10, 73, 76
12, 205607, Note_on_c, 10, 73, 0
12, 205620, Note_on_c, 10, 74, 76
12, 205667, Note_on_c, 10, 74, 0
12, 205680, Note_on_c, 10, 76, 76
12, 205727, Note_on_c, 10, 76, 0
12, 205740, Note_on_c, 10, 78, 76
12, 205787, Note_on_c, 10, 78, 0
12, 205800, Note_on_c, 10, 76, 76
12, 205847, Note_on_c, 10, 76, 0
12, 205860, Note_on_c, 10, 78, 76
12, 205907, Note_on_c, 10, 78, 0
12, 205920, Note_on_c, 10, 79, 76
12, 205967, Note_on_c, 10, 79, 0
12, 205980, Note_on_c, 10, 76, 76
12, 206027, Note_on_c, 10, 76, 0
12, 206040, Note_on_c, 10, 69, 76
12, 206087, Note_on_c, 10, 69, 0
12, 206100, Note_on_c, 10, 71, 76
12, 206147, Note_on_c, 10, 71, 0
12, 206160, Note_on_c, 10, 73, 76
12, 206207, Note_on_c, 10, 73, 0
12, 206220, Note_on_c, 10, 74, 76
12, 206267, Note_on_c, 10, 74, 0
12, 206280, Note_on_c, 10, 73, 76
12, 206327, Note_on_c, 10, 73, 0
12, 206340, Note_on_c, 10, 74, 76
12, 206387, Note_on_c, 10, 74, 0
12, 206400, Note_on_c, 10, 76, 76
12, 206447, Note_on_c, 10, 76, 0
12, 206460, Note_on_c, 10, 74, 76
12, 206507, Note_on_c, 10, 74, 0
12, 206520, Note_on_c, 10, 73, 76
12, 206567, Note_on_c, 10, 73, 0
12, 206580, Note_on_c, 10, 74, 76
12, 206627, Note_on_c, 10, 74, 0
12, 206640, Note_on_c, 10, 76, 76
12, 206687, Note_on_c, 10, 76, 0
12, 206700, Note_on_c, 10, 74, 76
12, 206747, Note_on_c, 10, 74, 0
12, 206760, Note_on_c, 10, 73, 76
12, 206807, Note_on_c, 10, 73, 0
12, 206820, Note_on_c, 10, 71, 76
12, 206867, Note_on_c, 10, 71, 0
12, 206880, Note_on_c, 10, 69, 76
12, 206927, Note_on_c, 10, 69, 0
12, 206940, Note_on_c, 10, 74, 76
12, 206987, Note_on_c, 10, 74, 0
12, 207000, Note_on_c, 10, 73, 76
12, 207047, Note_on_c, 10, 73, 0
12, 207060, Note_on_c, 10, 71, 76
12, 207107, Note_on_c, 10, 71, 0
12, 207120, Note_on_c, 10, 69, 76
12, 207167, Note_on_c, 10, 69, 0
12, 207180, Note_on_c, 10, 67, 76
12, 207227, Note_on_c, 10, 67, 0
12, 207240, Note_on_c, 10, 66, 76
12, 207287, Note_on_c, 10, 66, 0
12, 207300, Note_on_c, 10, 64, 76
12, 207347, Note_on_c, 10, 64, 0
12, 207360, Note_on_c, 10, 62, 76
12, 207464, Note_on_c, 10, 62, 0
12, 207480, Note_on_c, 10, 74, 76
12, 207584, Note_on_c, 10, 74, 0
12, 207600, Note_on_c, 10, 74, 76
12, 207704, Note_on_c, 10, 74, 0
12, 207720, Note_on_c, 10, 74, 76
12, 207824, Note_on_c, 10, 74, 0
12, 207840, Note_on_c, 10, 74, 76
12, 207944, Note_on_c, 10, 74, 0
12, 207960, Note_on_c, 10, 74, 76
12, 208064, Note_on_c, 10, 74, 0
12, 208080, Note_on_c, 10, 74, 76
12, 208184, Note_on_c, 10, 74, 0
12, 208200, Note_on_c, 10, 74, 76
12, 208304, Note_on_c, 10, 74, 0
12, 208320, Note_on_c, 10, 74, 76
12, 208424, Note_on_c, 10, 74, 0
12, 208440, Note_on_c, 10, 76, 76
12, 208544, Note_on_c, 10, 76, 0
12, 208560, Note_on_c, 10, 76, 76
12, 208664, Note_on_c, 10, 76, 0
12, 208680, Note_on_c, 10, 76, 76
12, 208784, Note_on_c, 10, 76, 0
12, 208800, Note_on_c, 10, 76, 76
12, 208904, Note_on_c, 10, 76, 0
12, 208920, Note_on_c, 10, 76, 76
12, 209024, Note_on_c, 10, 76, 0
12, 209040, Note_on_c, 10, 76, 76
12, 209144, Note_on_c, 10, 76, 0
12, 209160, Note_on_c, 10, 76, 76
12, 209264, Note_on_c, 10, 76, 0
12, 209280, Note_on_c, 10, 76, 76
12, 209384, Note_on_c, 10, 76, 0
12, 209400, Note_on_c, 10, 76, 76
12, 209504, Note_on_c, 10, 76, 0
12, 209520, Note_on_c, 10, 76, 76
12, 209624, Note_on_c, 10, 76, 0
12, 209640, Note_on_c, 10, 76, 76
12, 209744, Note_on_c, 10, 76, 0
12, 209760, Note_on_c, 10, 76, 76
12, 209864, Note_on_c, 10, 76, 0
12, 209880, Note_on_c, 10, 69, 76
12, 209927, Note_on_c, 10, 69, 0
12, 209940, Note_on_c, 10, 71, 76
12, 209987, Note_on_c, 10, 71, 0
12, 210000, Note_on_c, 10, 73, 76
12, 210104, Note_on_c, 10, 73, 0
12, 210120, Note_on_c, 10, 73, 76
12, 210167, Note_on_c, 10, 73, 0
12, 210180, Note_on_c, 10, 74, 76
12, 210227, Note_on_c, 10, 74, 0
12, 210240, Note_on_c, 10, 76, 76
12, 210344, Note_on_c, 10, 76, 0
12, 210360, Note_on_c, 10, 73, 76
12, 210407, Note_on_c, 10, 73, 0
12, 210420, Note_on_c, 10, 74, 76
12, 210467, Note_on_c, 10, 74, 0
12, 210480, Note_on_c, 10, 76, 76
12, 210584, Note_on_c, 10, 76, 0
12, 210600, Note_on_c, 10, 76, 76
12, 210647, Note_on_c, 10, 76, 0
12, 210660, Note_on_c, 10, 78, 76
12, 210707, Note_on_c, 10, 78, 0
12, 210720, Note_on_c, 10, 79, 76
12, 210824, Note_on_c, 10, 79, 0
12, 210840, Note_on_c, 10, 79, 76
12, 210887, Note_on_c, 10, 79, 0
12, 210900, Note_on_c, 10, 78, 76
12, 210947, Note_on_c, 10, 78, 0
12, 210960, Note_on_c, 10, 79, 76
12, 211064, Note_on_c, 10, 79, 0
12, 211080, Note_on_c, 10, 81, 76
12, 211127, Note_on_c, 10, 81, 0
12, 211140, Note_on_c, 10, 79, 76
12, 211187, Note_on_c, 10, 79, 0
12, 211200, Note_on_c, 10, 78, 76
12, 211304, Note_on_c, 10, 78, 0
12, 211320, Note_on_c, 10, 78, 76
12, 211367, Note_on_c, 10, 78, 0
12, 211380, Note_on_c, 10, 76, 76
12, 211427, Note_on_c, 10, 76, 0
12, 211440, Note_on_c, 10, 78, 76
12, 211544, Note_on_c, 10, 78, 0
12, 211560, Note_on_c, 10, 79, 76
12, 211607, Note_on_c, 10, 79, 0
12, 211620, Note_on_c, 10, 78, 76
12, 211667, Note_on_c, 10, 78, 0
12, 211680, Note_on_c, 10, 76, 76
12, 211784, Note_on_c, 10, 76, 0
12, 211800, Note_on_c, 10, 76, 76
12, 211847, Note_on_c, 10, 76, 0
12, 211860, Note_on_c, 10, 74, 76
12, 211907, Note_on_c, 10, 74, 0
12, 211920, Note_on_c, 10, 76, 76
12, 212024, Note_on_c, 10, 76, 0
12, 212040, Note_on_c, 10, 78, 76
12, 212087, Note_on_c, 10, 78, 0
12, 212100, Note_on_c, 10, 76, 76
12, 212147, Note_on_c, 10, 76, 0
12, 212160, Note_on_c, 10, 74, 76
12, 212264, Note_on_c, 10, 74, 0
12, 212280, Note_on_c, 10, 74, 76
12, 212327, Note_on_c, 10, 74, 0
12, 212340, Note_on_c, 10, 76, 76
12, 212387, Note_on_c, 10, 76, 0
12, 212400, Note_on_c, 10, 78, 76
12, 212504, Note_on_c, 10, 78, 0
12, 212520, Note_on_c, 10, 78, 76
12, 212567, Note_on_c, 10, 78, 0
12, 212580, Note_on_c, 10, 79, 76
12, 212627, Note_on_c, 10, 79, 0
12, 212640, Note_on_c, 10, 81, 76
12, 212744, Note_on_c, 10, 81, 0
12, 212760, Note_on_c, 10, 78, 76
12, 212807, Note_on_c, 10, 78, 0
12, 212820, Note_on_c, 10, 79, 76
12, 212867, Note_on_c, 10, 79, 0
12, 212880, Note_on_c, 10, 81, 76
12, 212984, Note_on_c, 10, 81, 0
12, 213000, Note_on_c, 10, 81, 76
12, 213047, Note_on_c, 10, 81, 0
12, 213060, Note_on_c, 10, 83, 76
12, 213107, Note_on_c, 10, 83, 0
12, 213120, Note_on_c, 10, 84, 76
12, 213224, Note_on_c, 10, 84, 0
12, 213240, Note_on_c, 10, 84, 76
12, 213287, Note_on_c, 10, 84, 0
12, 213300, Note_on_c, 10, 83, 76
12, 213347, Note_on_c, 10, 83, 0
12, 213360, Note_on_c, 10, 84, 76
12, 213464, Note_on_c, 10, 84, 0
12, 213480, Note_on_c, 10, 86, 76
12, 213527, Note_on_c, 10, 86, 0
12, 213540, Note_on_c, 10, 84, 76
12, 213587, Note_on_c, 10, 84, 0
12, 213600, Note_on_c, 10, 83, 76
12, 213647, Note_on_c, 10, 83, 0
12, 213660, Note_on_c, 10, 79, 76
12, 213707, Note_on_c, 10, 79, 0
12, 213720, Note_on_c, 10, 76, 76
12, 213767, Note_on_c, 10, 76, 0
12, 213780, Note_on_c, 10, 78, 76
12, 213827, Note_on_c, 10, 78, 0
12, 213840, Note_on_c, 10, 79, 76
12, 213887, Note_on_c, 10, 79, 0
12, 213900, Note_on_c, 10, 81, 76
12, 213947, Note_on_c, 10, 81, 0
12, 213960, Note_on_c, 10, 78, 76
12, 214007, Note_on_c, 10, 78, 0
12, 214020, Note_on_c, 10, 79, 76
12, 214067, Note_on_c, 10, 79, 0
12, 214080, Note_on_c, 10, 81, 76
12, 214127, Note_on_c, 10, 81, 0
12, 214140, Note_on_c, 10, 78, 76
12, 214187, Note_on_c, 10, 78, 0
12, 214200, Note_on_c, 10, 74, 76
12, 214247, Note_on_c, 10, 74, 0
12, 214260, Note_on_c, 10, 76, 76
12, 214307, Note_on_c, 10, 76, 0
12, 214320, Note_on_c, 10, 78, 76
12, 214367, Note_on_c, 10, 78, 0
12, 214380, Note_on_c, 10, 79, 76
12, 214427, Note_on_c, 10, 79, 0
12, 214440, Note_on_c, 10, 76, 76
12, 214487, Note_on_c, 10, 76, 0
12, 214500, Note_on_c, 10, 78, 76
12, 214547, Note_on_c, 10, 78, 0
12, 214560, Note_on_c, 10, 79, 76
12, 214607, Note_on_c, 10, 79, 0
12, 214620, Note_on_c, 10, 78, 76
12, 214667, Note_on_c, 10, 78, 0
12, 214680, Note_on_c, 10, 76, 76
12, 214727, Note_on_c, 10, 76, 0
12, 214740, Note_on_c, 10, 79, 76
12, 214787, Note_on_c, 10, 79, 0
12, 214800, Note_on_c, 10, 78, 76
12, 214847, Note_on_c, 10, 78, 0
12, 214860, Note_on_c, 10, 76, 76
12, 214907, Note_on_c, 10, 76, 0
12, 214920, Note_on_c, 10, 74, 76
12, 214967, Note_on_c, 10, 74, 0
12, 214980, Note_on_c, 10, 78, 76
12, 215027, Note_on_c, 10, 78, 0
12, 215040, Note_on_c, 10, 76, 76
12, 215087, Note_on_c, 10, 76, 0
12, 215100, Note_on_c, 10, 81, 76
12, 215147, Note_on_c, 10, 81, 0
12, 215160, Note_on_c, 10, 73, 76
12, 215207, Note_on_c, 10, 73, 0
12, 215220, Note_on_c, 10, 74, 76
12, 215267, Note_on_c, 10, 74, 0
12, 215280, Note_on_c, 10, 76, 76
12, 215327, Note_on_c, 10, 76, 0
12, 215340, Note_on_c, 10, 78, 76
12, 215387, Note_on_c, 10, 78, 0
12, 215400, Note_on_c, 10, 76, 76
12, 215447, Note_on_c, 10, 76, 0
12, 215460, Note_on_c, 10, 78, 76
12, 215507, Note_on_c, 10, 78, 0
12, 215520, Note_on_c, 10, 79, 76
12, 215567, Note_on_c, 10, 79, 0
12, 215580, Note_on_c, 10, 76, 76
12, 215627, Note_on_c, 10, 76, 0
12, 215640, Note_on_c, 10, 69, 76
12, 215687, Note_on_c, 10, 69, 0
12, 215700, Note_on_c, 10, 71, 76
12, 215747, Note_on_c, 10, 71, 0
12, 215760, Note_on_c, 10, 73, 76
12, 215807, Note_on_c, 10, 73, 0
12, 215820, Note_on_c, 10, 74, 76
12, 215867, Note_on_c, 10, 74, 0
12, 215880, Note_on_c, 10, 73, 76
12, 215927, Note_on_c, 10, 73, 0
12, 215940, Note_on_c, 10, 74, 76
12, 215987, Note_on_c, 10, 74, 0
12, 216000, Note_on_c, 10, 76, 76
12, 216047, Note_on_c, 10, 76, 0
12, 216060, Note_on_c, 10, 74, 76
12, 216107, Note_on_c, 10, 74, 0
12, 216120, Note_on_c, 10, 73, 76
12, 216167, Note_on_c, 10, 73, 0
12, 216180, Note_on_c, 10, 74, 76
12, 216227, Note_on_c, 10, 74, 0
12, 216240, Note_on_c, 10, 76, 76
12, 216287, Note_on_c, 10, 76, 0
12, 216300, Note_on_c, 10, 79, 76
12, 216347, Note_on_c, 10, 79, 0
12, 216360, Note_on_c, 10, 78, 76
12, 216407, Note_on_c, 10, 78, 0
12, 216420, Note_on_c, 10, 76, 76
12, 216467, Note_on_c, 10, 76, 0
12, 216480, Note_on_c, 10, 81, 76
12, 216527, Note_on_c, 10, 81, 0
12, 216540, Note_on_c, 10, 79, 76
12, 216587, Note_on_c, 10, 79, 0
12, 216600, Note_on_c, 10, 78, 76
12, 216647, Note_on_c, 10, 78, 0
12, 216660, Note_on_c, 10, 79, 76
12, 216707, Note_on_c, 10, 79, 0
12, 216720, Note_on_c, 10, 81, 76
12, 216767, Note_on_c, 10, 81, 0
12, 216780, Note_on_c, 10, 78, 76
12, 216827, Note_on_c, 10, 78, 0
12, 216840, Note_on_c, 10, 74, 76
12, 216887, Note_on_c, 10, 74, 0
12, 216900, Note_on_c, 10, 78, 76
12, 216947, Note_on_c, 10, 78, 0
12, 216960, Note_on_c, 10, 79, 76
12, 217007, Note_on_c, 10, 79, 0
12, 217020, Note_on_c, 10, 78, 76
12, 217067, Note_on_c, 10, 78, 0
12, 217080, Note_on_c, 10, 76, 76
12, 217127, Note_on_c, 10, 76, 0
12, 217140, Note_on_c, 10, 78, 76
12, 217187, Note_on_c, 10, 78, 0
12, 217200, Note_on_c, 10, 79, 76
12, 217247, Note_on_c, 10, 79, 0
12, 217260, Note_on_c, 10, 83, 76
12, 217307, Note_on_c, 10, 83, 0
12, 217320, Note_on_c, 10, 81, 76
12, 217367, Note_on_c, 10, 81, 0
12, 217380, Note_on_c, 10, 79, 76
12, 217427, Note_on_c, 10, 79, 0
12, 217440, Note_on_c, 10, 78, 76
12, 217544, Note_on_c, 10, 78, 0
12, 217560, Note_on_c, 10, 74, 76
12, 217664, Note_on_c, 10, 74, 0
12, 217680, Note_on_c, 10, 71, 76
12, 217784, Note_on_c, 10, 71, 0
12, 217800, Note_on_c, 10, 76, 76
12, 217904, Note_on_c, 10, 76, 0
12, 217920, Note_on_c, 10, 73, 76
12, 217967, Note_on_c, 10, 73, 0
12, 217980, Note_on_c, 10, 69, 76
12, 218027, Note_on_c, 10, 69, 0
12, 218040, Note_on_c, 10, 71, 76
12, 218087, Note_on_c, 10, 71, 0
12, 218100, Note_on_c, 10, 73, 76
12, 218147, Note_on_c, 10, 73, 0
12, 218160, Note_on_c, 10, 74, 76
12, 218207, Note_on_c, 10, 74, 0
12, 218220, Note_on_c, 10, 76, 76
12, 218267, Note_on_c, 10, 76, 0
12, 218280, Note_on_c, 10, 78, 76
12, 218327, Note_on_c, 10, 78, 0
12, 218340, Note_on_c, 10, 79, 76
12, 218387, Note_on_c, 10, 79, 0
12, 218400, Note_on_c, 10, 78, 76
12, 218447, Note_on_c, 10, 78, 0
12, 218460, Note_on_c, 10, 76, 76
12, 218507, Note_on_c, 10, 76, 0
12, 218520, Note_on_c, 10, 74, 76
12, 218567, Note_on_c, 10, 74, 0
12, 218580, Note_on_c, 10, 76, 76
12, 218627, Note_on_c, 10, 76, 0
12, 218640, Note_on_c, 10, 69, 76
12, 218744, Note_on_c, 10, 69, 0
12, 218760, Note_on_c, 10, 73, 76
12, 218864, Note_on_c, 10, 73, 0
12, 218880, Note_on_c, 10, 74, 76
12, 219173, Note_on_c, 10, 74, 0
12, 219180, Note_on_c, 10, 76, 76
12, 219233, Note_on_c, 10, 76, 0
12, 219240, Note_on_c, 10, 78, 76
12, 219293, Note_on_c, 10, 78, 0
12, 219300, Note_on_c, 10, 74, 76
12, 219353, Note_on_c, 10, 74, 0
12, 219360, Note_on_c, 10, 69, 76
12, 219653, Note_on_c, 10, 69, 0
12, 219660, Note_on_c, 10, 71, 76
12, 219713, Note_on_c, 10, 71, 0
12, 219720, Note_on_c, 10, 72, 76
12, 219773, Note_on_c, 10, 72, 0
12, 219780, Note_on_c, 10, 69, 76
12, 219833, Note_on_c, 10, 69, 0
12, 219840, Note_on_c, 10, 66, 76
12, 220133, Note_on_c, 10, 66, 0
12, 220140, Note_on_c, 10, 67, 76
12, 220193, Note_on_c, 10, 67, 0
12, 220200, Note_on_c, 10, 69, 76
12, 220253, Note_on_c, 10, 69, 0
12, 220260, Note_on_c, 10, 66, 76
12, 220313, Note_on_c, 10, 66, 0
12, 220320, Note_on_c, 10, 62, 76
12, 220645, Note_on_c, 10, 62, 0
12, 220650, Note_on_c, 10, 64, 76
12, 220675, Note_on_c, 10, 64, 0
12, 220680, Note_on_c, 10, 66, 76
12, 220705, Note_on_c, 10, 66, 0
12, 220710, Note_on_c, 10, 67, 76
12, 220735, Note_on_c, 10, 67, 0
12, 220740, Note_on_c, 10, 69, 76
12, 220765, Note_on_c, 10, 69, 0
12, 220770, Note_on_c, 10, 71, 76
12, 220795, Note_on_c, 10, 71, 0
12, 220800, Note_on_c, 10, 72, 76
12, 220973, Note_on_c, 10, 72, 0
12, 220980, Note_on_c, 10, 72, 76
12, 221033, Note_on_c, 10, 72, 0
12, 221040, Note_on_c, 10, 74, 76
12, 221213, Note_on_c, 10, 74, 0
12, 221220, Note_on_c, 10, 76, 76
12, 221273, Note_on_c, 10, 76, 0
12, 221280, Note_on_c, 10, 74, 76
12, 221453, Note_on_c, 10, 74, 0
12, 221460, Note_on_c, 10, 72, 76
12, 221513, Note_on_c, 10, 72, 0
12, 221520, Note_on_c, 10, 71, 76
12, 221693, Note_on_c, 10, 71, 0
12, 221700, Note_on_c, 10, 69, 76
12, 221753, Note_on_c, 10, 69, 0
12, 221760, Note_on_c, 10, 71, 76
12, 221987, Note_on_c, 10, 71, 0
12, 222000, Note_on_c, 10, 67, 76
12, 222227, Note_on_c, 10, 67, 0
12, 222240, Note_on_c, 10, 71, 76
12, 222587, Note_on_c, 10, 71, 0
12, 222600, Note_on_c, 10, 73, 76
12, 222707, Note_on_c, 10, 73, 0
12, 222720, Note_on_c, 10, 74, 76
12, 223013, Note_on_c, 10, 74, 0
12, 223020, Note_on_c, 10, 73, 76
12, 223073, Note_on_c, 10, 73, 0
12, 223080, Note_on_c, 10, 74, 76
12, 223133, Note_on_c, 10, 74, 0
12, 223140, Note_on_c, 10, 76, 76
12, 223193, Note_on_c, 10, 76, 0
12, 223200, Note_on_c, 10, 75, 76
12, 223214, Note_on_c, 10, 75, 0
12, 223215, Note_on_c, 10, 76, 76
12, 223229, Note_on_c, 10, 76, 0
12, 223230, Note_on_c, 10, 75, 76
12, 223244, Note_on_c, 10, 75, 0
12, 223245, Note_on_c, 10, 76, 76
12, 223259, Note_on_c, 10, 76, 0
12, 223260, Note_on_c, 10, 75, 76
12, 223274, Note_on_c, 10, 75, 0
12, 223275, Note_on_c, 10, 76, 76
12, 223289, Note_on_c, 10, 76, 0
12, 223290, Note_on_c, 10, 75, 76
12, 223304, Note_on_c, 10, 75, 0
12, 223305, Note_on_c, 10, 76, 76
12, 223319, Note_on_c, 10, 76, 0
12, 223320, Note_on_c, 10, 75, 76
12, 223334, Note_on_c, 10, 75, 0
12, 223335, Note_on_c, 10, 76, 76
12, 223349, Note_on_c, 10, 76, 0
12, 223350, Note_on_c, 10, 75, 76
12, 223364, Note_on_c, 10, 75, 0
12, 223365, Note_on_c, 10, 76, 76
12, 223379, Note_on_c, 10, 76, 0
12, 223380, Note_on_c, 10, 75, 76
12, 223394, Note_on_c, 10, 75, 0
12, 223395, Note_on_c, 10, 76, 76
12, 223409, Note_on_c, 10, 76, 0
12, 223410, Note_on_c, 10, 75, 76
12, 223424, Note_on_c, 10, 75, 0
12, 223425, Note_on_c, 10, 76, 76
12, 223439, Note_on_c, 10, 76, 0
12, 223440, Note_on_c, 10, 75, 76
12, 223454, Note_on_c, 10, 75, 0
12, 223455, Note_on_c, 10, 76, 76
12, 223469, Note_on_c, 10, 76, 0
12, 223470, Note_on_c, 10, 75, 76
12, 223484, Note_on_c, 10, 75, 0
12, 223485, Note_on_c, 10, 76, 76
12, 223499, Note_on_c, 10, 76, 0
12, 223500, Note_on_c, 10, 75, 76
12, 223514, Note_on_c, 10, 75, 0
12, 223515, Note_on_c, 10, 76, 76
12, 223529, Note_on_c, 10, 76, 0
12, 223530, Note_on_c, 10, 73, 76
12, 223544, Note_on_c, 10, 73, 0
12, 223545, Note_on_c, 10, 75, 76
12, 223559, Note_on_c, 10, 75, 0
12, 223560, Note_on_c, 10, 76, 76
12, 223667, Note_on_c, 10, 76, 0
12, 223680, Note_on_c, 10, 78, 76
12, 223973, Note_on_c, 10, 78, 0
12, 223980, Note_on_c, 10, 81, 76
12, 224033, Note_on_c, 10, 81, 0
12, 224040, Note_on_c, 10, 79, 76
12, 224093, Note_on_c, 10, 79, 0
12, 224100, Note_on_c, 10, 78, 76
12, 224153, Note_on_c, 10, 78, 0
12, 224160, Note_on_c, 10, 83, 76
12, 224333, Note_on_c, 10, 83, 0
12, 224340, Note_on_c, 10, 81, 76
12, 224393, Note_on_c, 10, 81, 0
12, 224400, Note_on_c, 10, 79, 76
12, 224573, Note_on_c, 10, 79, 0
12, 224580, Note_on_c, 10, 78, 76
12, 224633, Note_on_c, 10, 78, 0
12, 224640, Note_on_c, 10, 79, 76
12, 224813, Note_on_c, 10, 79, 0
12, 224820, Note_on_c, 10, 78, 76
12, 224873, Note_on_c, 10, 78, 0
12, 224880, Note_on_c, 10, 76, 76
12, 225053, Note_on_c, 10, 76, 0
12, 225060, Note_on_c, 10, 78, 76
12, 225113, Note_on_c, 10, 78, 0
12, 225120, Note_on_c, 10, 78, 76
12, 225134, Note_on_c, 10, 78, 0
12, 225135, Note_on_c, 10, 79, 76
12, 225149, Note_on_c, 10, 79, 0
12, 225150, Note_on_c, 10, 78, 76
12, 225164, Note_on_c, 10, 78, 0
12, 225165, Note_on_c, 10, 79, 76
12, 225179, Note_on_c, 10, 79, 0
12, 225180, Note_on_c, 10, 78, 76
12, 225194, Note_on_c, 10, 78, 0
12, 225195, Note_on_c, 10, 79, 76
12, 225209, Note_on_c, 10, 79, 0
12, 225210, Note_on_c, 10, 78, 76
12, 225224, Note_on_c, 10, 78, 0
12, 225225, Note_on_c, 10, 79, 76
12, 225239, Note_on_c, 10, 79, 0
12, 225240, Note_on_c, 10, 78, 76
12, 225254, Note_on_c, 10, 78, 0
12, 225255, Note_on_c, 10, 79, 76
12, 225269, Note_on_c, 10, 79, 0
12, 225270, Note_on_c, 10, 78, 76
12, 225284, Note_on_c, 10, 78, 0
12, 225285, Note_on_c, 10, 79, 76
12, 225299, Note_on_c, 10, 79, 0
12, 225300, Note_on_c, 10, 78, 76
12, 225314, Note_on_c, 10, 78, 0
12, 225315, Note_on_c, 10, 79, 76
12, 225329, Note_on_c, 10, 79, 0
12, 225330, Note_on_c, 10, 78, 76
12, 225344, Note_on_c, 10, 78, 0
12, 225345, Note_on_c, 10, 79, 76
12, 225359, Note_on_c, 10, 79, 0
12, 225360, Note_on_c, 10, 78, 76
12, 225374, Note_on_c, 10, 78, 0
12, 225375, Note_on_c, 10, 79, 76
12, 225389, Note_on_c, 10, 79, 0
12, 225390, Note_on_c, 10, 78, 76
12, 225404, Note_on_c, 10, 78, 0
12, 225405, Note_on_c, 10, 79, 76
12, 225419, Note_on_c, 10, 79, 0
12, 225420, Note_on_c, 10, 78, 76
12, 225434, Note_on_c, 10, 78, 0
12, 225435, Note_on_c, 10, 79, 76
12, 225449, Note_on_c, 10, 79, 0
12, 225450, Note_on_c, 10, 76, 76
12, 225464, Note_on_c, 10, 76, 0
12, 225465, Note_on_c, 10, 78, 76
12, 225479, Note_on_c, 10, 78, 0
12, 225480, Note_on_c, 10, 76, 76
12, 225587, Note_on_c, 10, 76, 0
12, 225600, Note_on_c, 10, 76, 76
12, 225893, Note_on_c, 10, 76, 0
12, 225900, Note_on_c, 10, 76, 76
12, 225953, Note_on_c, 10, 76, 0
12, 225960, Note_on_c, 10, 74, 76
12, 226013, Note_on_c, 10, 74, 0
12, 226020, Note_on_c, 10, 73, 76
12, 226073, Note_on_c, 10, 73, 0
12, 226080, Note_on_c, 10, 74, 76
12, 226253, Note_on_c, 10, 74, 0
12, 226260, Note_on_c, 10, 83, 76
12, 226313, Note_on_c, 10, 83, 0
12, 226320, Note_on_c, 10, 76, 76
12, 226493, Note_on_c, 10, 76, 0
12, 226500, Note_on_c, 10, 74, 76
12, 226553, Note_on_c, 10, 74, 0
12, 226560, Note_on_c, 10, 73, 76
12, 226733, Note_on_c, 10, 73, 0
12, 226740, Note_on_c, 10, 69, 76
12, 226793, Note_on_c, 10, 69, 0
12, 226800, Note_on_c, 10, 73, 76
12, 226973, Note_on_c, 10, 73, 0
12, 226980, Note_on_c, 10, 76, 76
12, 227033, Note_on_c, 10, 76, 0
12, 227040, Note_on_c, 10, 81, 76
12, 227387, Note_on_c, 10, 81, 0
12, 227400, Note_on_c, 10, 81, 76
12, 227507, Note_on_c, 10, 81, 0
12, 227520, Note_on_c, 10, 81, 76
12, 227845, Note_on_c, 10, 81, 0
12, 227850, Note_on_c, 10, 71, 76
12, 227875, Note_on_c, 10, 71, 0
12, 227880, Note_on_c, 10, 73, 76
12, 227905, Note_on_c, 10, 73, 0
12, 227910, Note_on_c, 10, 74, 76
12, 227935, Note_on_c, 10, 74, 0
12, 227940, Note_on_c, 10, 76, 76
12, 227965, Note_on_c, 10, 76, 0
12, 227970, Note_on_c, 10, 78, 76
12, 227995, Note_on_c, 10, 78, 0
12, 228000, Note_on_c, 10, 79, 76
12, 228347, Note_on_c, 10, 79, 0
12, 228360, Note_on_c, 10, 79, 76
12, 228467, Note_on_c, 10, 79, 0
12, 228480, Note_on_c, 10, 79, 76
12, 228805, Note_on_c, 10, 79, 0
12, 228810, Note_on_c, 10, 78, 76
12, 228835, Note_on_c, 10, 78, 0
12, 228840, Note_on_c, 10, 76, 76
12, 228865, Note_on_c, 10, 76, 0
12, 228870, Note_on_c, 10, 74, 76
12, 228895, Note_on_c, 10, 74, 0
12, 228900, Note_on_c, 10, 73, 76
12, 228925, Note_on_c, 10, 73, 0
12, 228930, Note_on_c, 10, 71, 76
12, 228955, Note_on_c, 10, 71, 0
12, 228960, Note_on_c, 10, 69, 76
12, 229133, Note_on_c, 10, 69, 0
12, 229140, Note_on_c, 10, 67, 76
12, 229165, Note_on_c, 10, 67, 0
12, 229170, Note_on_c, 10, 66, 76
12, 229195, Note_on_c, 10, 66, 0
12, 229200, Note_on_c, 10, 67, 76
12, 229373, Note_on_c, 10, 67, 0
12, 229380, Note_on_c, 10, 76, 76
12, 229433, Note_on_c, 10, 76, 0
12, 229440, Note_on_c, 10, 66, 76
12, 229733, Note_on_c, 10, 66, 0
12, 229740, Note_on_c, 10, 67, 76
12, 229793, Note_on_c, 10, 67, 0
12, 229800, Note_on_c, 10, 69, 76
12, 229853, Note_on_c, 10, 69, 0
12, 229860, Note_on_c, 10, 71, 76
12, 229913, Note_on_c, 10, 71, 0
12, 229920, Note_on_c, 10, 72, 76
12, 230267, Note_on_c, 10, 72, 0
12, 230280, Note_on_c, 10, 74, 76
12, 230387, Note_on_c, 10, 74, 0
12, 230400, Note_on_c, 10, 71, 76
12, 230693, Note_on_c, 10, 71, 0
12, 230700, Note_on_c, 10, 69, 76
12, 230753, Note_on_c, 10, 69, 0
12, 230760, Note_on_c, 10, 67, 76
12, 230813, Note_on_c, 10, 67, 0
12, 230820, Note_on_c, 10, 66, 76
12, 230873, Note_on_c, 10, 66, 0
12, 230880, Note_on_c, 10, 64, 76
12, 230933, Note_on_c, 10, 64, 0
12, 230940, Note_on_c, 10, 66, 76
12, 230993, Note_on_c, 10, 66, 0
12, 231000, Note_on_c, 10, 67, 76
12, 231053, Note_on_c, 10, 67, 0
12, 231060, Note_on_c, 10, 69, 76
12, 231113, Note_on_c, 10, 69, 0
12, 231120, Note_on_c, 10, 71, 76
12, 231173, Note_on_c, 10, 71, 0
12, 231180, Note_on_c, 10, 73, 76
12, 231233, Note_on_c, 10, 73, 0
12, 231240, Note_on_c, 10, 74, 76
12, 231293, Note_on_c, 10, 74, 0
12, 231300, Note_on_c, 10, 71, 76
12, 231353, Note_on_c, 10, 71, 0
12, 231360, Note_on_c, 10, 73, 76
12, 231413, Note_on_c, 10, 73, 0
12, 231420, Note_on_c, 10, 74, 76
12, 231473, Note_on_c, 10, 74, 0
12, 231480, Note_on_c, 10, 73, 76
12, 231533, Note_on_c, 10, 73, 0
12, 231540, Note_on_c, 10, 71, 76
12, 231593, Note_on_c, 10, 71, 0
12, 231600, Note_on_c, 10, 69, 76
12, 231653, Note_on_c, 10, 69, 0
12, 231660, Note_on_c, 10, 71, 76
12, 231713, Note_on_c, 10, 71, 0
12, 231720, Note_on_c, 10, 73, 76
12, 231773, Note_on_c, 10, 73, 0
12, 231780, Note_on_c, 10, 74, 76
12, 231833, Note_on_c, 10, 74, 0
12, 231840, Note_on_c, 10, 76, 76
12, 231893, Note_on_c, 10, 76, 0
12, 231900, Note_on_c, 10, 78, 76
12, 231953, Note_on_c, 10, 78, 0
12, 231960, Note_on_c, 10, 79, 76
12, 232013, Note_on_c, 10, 79, 0
12, 232020, Note_on_c, 10, 81, 76
12, 232073, Note_on_c, 10, 81, 0
12, 232080, Note_on_c, 10, 79, 76
12, 232133, Note_on_c, 10, 79, 0
12, 232140, Note_on_c, 10, 78, 76
12, 232193, Note_on_c, 10, 78, 0
12, 232200, Note_on_c, 10, 79, 76
12, 232253, Note_on_c, 10, 79, 0
12, 232260, Note_on_c, 10, 76, 76
12, 232313, Note_on_c, 10, 76, 0
12, 232320, Note_on_c, 10, 78, 76
12, 232493, Note_on_c, 10, 78, 0
12, 232500, Note_on_c, 10, 76, 76
12, 232515, Note_on_c, 10, 76, 0
12, 232520, Note_on_c, 10, 74, 76
12, 232535, Note_on_c, 10, 74, 0
12, 232540, Note_on_c, 10, 73, 76
12, 232555, Note_on_c, 10, 73, 0
12, 232560, Note_on_c, 10, 74, 76
12, 232733, Note_on_c, 10, 74, 0
12, 232740, Note_on_c, 10, 71, 76
12, 232793, Note_on_c, 10, 71, 0
12, 232800, Note_on_c, 10, 73, 76
12, 233147, Note_on_c, 10, 73, 0
12, 233160, Note_on_c, 10, 74, 76
12, 233267, Note_on_c, 10, 74, 0
12, 233280, Note_on_c, 10, 74, 76
12, 234239, Note_on_c, 10, 74, 0
12, 234239, End_track
13, 0, Start_track
13, 0, Title_t, "Violin II"
13, 0, MIDI_port, 0
13, 0, Program_c, 11, 48
13, 0, Control_c, 11, 10, 24
13, 0, Control_c, 11, 11, 127
13, 0, Control_c, 11, 7, 96
13, 180, Note_on_c, 11, 69, 76
13, 233, Note_on_c, 11, 69, 0
13, 240, Note_on_c, 11, 69, 76
13, 413, Note_on_c, 11, 69, 0
13, 420, Note_on_c, 11, 66, 76
13, 473, Note_on_c, 11, 66, 0
13, 480, Note_on_c, 11, 66, 76
13, 653, Note_on_c, 11, 66, 0
13, 660, Note_on_c, 11, 62, 76
13, 713, Note_on_c, 11, 62, 0
13, 720, Note_on_c, 11, 62, 76
13, 893, Note_on_c, 11, 62, 0
13, 900, Note_on_c, 11, 71, 76
13, 953, Note_on_c, 11, 71, 0
13, 960, Note_on_c, 11, 71, 76
13, 1133, Note_on_c, 11, 71, 0
13, 1140, Note_on_c, 11, 67, 76
13, 1193, Note_on_c, 11, 67, 0
13, 1200, Note_on_c, 11, 67, 76
13, 1373, Note_on_c, 11, 67, 0
13, 1380, Note_on_c, 11, 64, 76
13, 1433, Note_on_c, 11, 64, 0
13, 1440, Note_on_c, 11, 64, 76
13, 1613, Note_on_c, 11, 64, 0
13, 1620, Note_on_c, 11, 76, 76
13, 1673, Note_on_c, 11, 76, 0
13, 1680, Note_on_c, 11, 76, 76
13, 1853, Note_on_c, 11, 76, 0
13, 1860, Note_on_c, 11, 73, 76
13, 1913, Note_on_c, 11, 73, 0
13, 1920, Note_on_c, 11, 73, 76
13, 2093, Note_on_c, 11, 73, 0
13, 2100, Note_on_c, 11, 67, 76
13, 2153, Note_on_c, 11, 67, 0
13, 2160, Note_on_c, 11, 67, 76
13, 2333, Note_on_c, 11, 67, 0
13, 2340, Note_on_c, 11, 79, 76
13, 2393, Note_on_c, 11, 79, 0
13, 2400, Note_on_c, 11, 79, 76
13, 2573, Note_on_c, 11, 79, 0
13, 2580, Note_on_c, 11, 76, 76
13, 2633, Note_on_c, 11, 76, 0
13, 2640, Note_on_c, 11, 76, 76
13, 2813, Note_on_c, 11, 76, 0
13, 2820, Note_on_c, 11, 73, 76
13, 2873, Note_on_c, 11, 73, 0
13, 2880, Note_on_c, 11, 74, 76
13, 3533, Note_on_c, 11, 74, 0
13, 3540, Note_on_c, 11, 66, 76
13, 3593, Note_on_c, 11, 66, 0
13, 3600, Note_on_c, 11, 69, 76
13, 3773, Note_on_c, 11, 69, 0
13, 3780, Note_on_c, 11, 73, 76
13, 3833, Note_on_c, 11, 73, 0
13, 3840, Note_on_c, 11, 74, 76
13, 4013, Note_on_c, 11, 74, 0
13, 4020, Note_on_c, 11, 78, 76
13, 4073, Note_on_c, 11, 78, 0
13, 4080, Note_on_c, 11, 78, 76
13, 4253, Note_on_c, 11, 78, 0
13, 4260, Note_on_c, 11, 74, 76
13, 4313, Note_on_c, 11, 74, 0
13, 4320, Note_on_c, 11, 74, 76
13, 4493, Note_on_c, 11, 74, 0
13, 4500, Note_on_c, 11, 71, 76
13, 4553, Note_on_c, 11, 71, 0
13, 4560, Note_on_c, 11, 71, 76
13, 4733, Note_on_c, 11, 71, 0
13, 4740, Note_on_c, 11, 68, 76
13, 4793, Note_on_c, 11, 68, 0
13, 4800, Note_on_c, 11, 68, 76
13, 4973, Note_on_c, 11, 68, 0
13, 4980, Note_on_c, 11, 71, 76
13, 5033, Note_on_c, 11, 71, 0
13, 5040, Note_on_c, 11, 71, 76
13, 5213, Note_on_c, 11, 71, 0
13, 5220, Note_on_c, 11, 68, 76
13, 5273, Note_on_c, 11, 68, 0
13, 5280, Note_on_c, 11, 64, 76
13, 5507, Note_on_c, 11, 64, 0
13, 5520, Note_on_c, 11, 69, 76
13, 5933, Note_on_c, 11, 69, 0
13, 5940, Note_on_c, 11, 68, 76
13, 5993, Note_on_c, 11, 68, 0
13, 6000, Note_on_c, 11, 69, 76
13, 6173, Note_on_c, 11, 69, 0
13, 6180, Note_on_c, 11, 71, 76
13, 6233, Note_on_c, 11, 71, 0
13, 6240, Note_on_c, 11, 64, 76
13, 6467, Note_on_c, 11, 64, 0
13, 6480, Note_on_c, 11, 71, 76
13, 6707, Note_on_c, 11, 71, 0
13, 6720, Note_on_c, 11, 69, 76
13, 6893, Note_on_c, 11, 69, 0
13, 6900, Note_on_c, 11, 64, 76
13, 6953, Note_on_c, 11, 64, 0
13, 6960, Note_on_c, 11, 69, 76
13, 7133, Note_on_c, 11, 69, 0
13, 7140, Note_on_c, 11, 71, 76
13, 7193, Note_on_c, 11, 71, 0
13, 7200, Note_on_c, 11, 72, 76
13, 7547, Note_on_c, 11, 72, 0
13, 7560, Note_on_c, 11, 72, 76
13, 7667, Note_on_c, 11, 72, 0
13, 7680, Note_on_c, 11, 63, 76
13, 7907, Note_on_c, 11, 63, 0
13, 7920, Note_on_c, 11, 66, 76
13, 8147, Note_on_c, 11, 66, 0
13, 8160, Note_on_c, 11, 71, 76
13, 8333, Note_on_c, 11, 71, 0
13, 8340, Note_on_c, 11, 71, 76
13, 8393, Note_on_c, 11, 71, 0
13, 8400, Note_on_c, 11, 72, 76
13, 8573, Note_on_c, 11, 72, 0
13, 8580, Note_on_c, 11, 71, 76
13, 8633, Note_on_c, 11, 71, 0
13, 8640, Note_on_c, 11, 71, 76
13, 8813, Note_on_c, 11, 71, 0
13, 8820, Note_on_c, 11, 76, 76
13, 8873, Note_on_c, 11, 76, 0
13, 8880, Note_on_c, 11, 76, 76
13, 9053, Note_on_c, 11, 76, 0
13, 9060, Note_on_c, 11, 71, 76
13, 9113, Note_on_c, 11, 71, 0
13, 9120, Note_on_c, 11, 67, 76
13, 9467, Note_on_c, 11, 67, 0
13, 9480, Note_on_c, 11, 67, 76
13, 9587, Note_on_c, 11, 67, 0
13, 9600, Note_on_c, 11, 66, 76
13, 9947, Note_on_c, 11, 66, 0
13, 9960, Note_on_c, 11, 70, 76
13, 10067, Note_on_c, 11, 70, 0
13, 10080, Note_on_c, 11, 71, 76
13, 10427, Note_on_c, 11, 71, 0
13, 10440, Note_on_c, 11, 73, 76
13, 10547, Note_on_c, 11, 73, 0
13, 10560, Note_on_c, 11, 71, 76
13, 10733, Note_on_c, 11, 71, 0
13, 10740, Note_on_c, 11, 70, 76
13, 10793, Note_on_c, 11, 70, 0
13, 10800, Note_on_c, 11, 71, 76
13, 10973, Note_on_c, 11, 71, 0
13, 10980, Note_on_c, 11, 71, 76
13, 11033, Note_on_c, 11, 71, 0
13, 11040, Note_on_c, 11, 70, 76
13, 11387, Note_on_c, 11, 70, 0
13, 11400, Note_on_c, 11, 71, 76
13, 11507, Note_on_c, 11, 71, 0
13, 11520, Note_on_c, 11, 71, 76
13, 11693, Note_on_c, 11, 71, 0
13, 11700, Note_on_c, 11, 59, 76
13, 11753, Note_on_c, 11, 59, 0
13, 11760, Note_on_c, 11, 59, 76
13, 11933, Note_on_c, 11, 59, 0
13, 11940, Note_on_c, 11, 63, 76
13, 11993, Note_on_c, 11, 63, 0
13, 12000, Note_on_c, 11, 66, 76
13, 12347, Note_on_c, 11, 66, 0
13, 12360, Note_on_c, 11, 66, 76
13, 12467, Note_on_c, 11, 66, 0
13, 12480, Note_on_c, 11, 64, 76
13, 12653, Note_on_c, 11, 64, 0
13, 12660, Note_on_c, 11, 76, 76
13, 12713, Note_on_c, 11, 76, 0
13, 12720, Note_on_c, 11, 76, 76
13, 12893, Note_on_c, 11, 76, 0
13, 12900, Note_on_c, 11, 74, 76
13, 12953, Note_on_c, 11, 74, 0
13, 12960, Note_on_c, 11, 73, 76
13, 13133, Note_on_c, 11, 73, 0
13, 13140, Note_on_c, 11, 73, 76
13, 13193, Note_on_c, 11, 73, 0
13, 13200, Note_on_c, 11, 73, 76
13, 13373, Note_on_c, 11, 73, 0
13, 13380, Note_on_c, 11, 71, 76
13, 13433, Note_on_c, 11, 71, 0
13, 13440, Note_on_c, 11, 69, 76
13, 13787, Note_on_c, 11, 69, 0
13, 13800, Note_on_c, 11, 69, 76
13, 13907, Note_on_c, 11, 69, 0
13, 13920, Note_on_c, 11, 69, 76
13, 14267, Note_on_c, 11, 69, 0
13, 14280, Note_on_c, 11, 69, 76
13, 14387, Note_on_c, 11, 69, 0
13, 14400, Note_on_c, 11, 71, 76
13, 14573, Note_on_c, 11, 71, 0
13, 14580, Note_on_c, 11, 69, 76
13, 14633, Note_on_c, 11, 69, 0
13, 14640, Note_on_c, 11, 68, 76
13, 14813, Note_on_c, 11, 68, 0
13, 14820, Note_on_c, 11, 66, 76
13, 14873, Note_on_c, 11, 66, 0
13, 14880, Note_on_c, 11, 64, 76
13, 15053, Note_on_c, 11, 64, 0
13, 15060, Note_on_c, 11, 68, 76
13, 15113, Note_on_c, 11, 68, 0
13, 15120, Note_on_c, 11, 69, 76
13, 15293, Note_on_c, 11, 69, 0
13, 15300, Note_on_c, 11, 71, 76
13, 15353, Note_on_c, 11, 71, 0
13, 15360, Note_on_c, 11, 69, 76
13, 15707, Note_on_c, 11, 69, 0
13, 15720, Note_on_c, 11, 69, 76
13, 15827, Note_on_c, 11, 69, 0
13, 15840, Note_on_c, 11, 68, 76
13, 16187, Note_on_c, 11, 68, 0
13, 16200, Note_on_c, 11, 64, 76
13, 16307, Note_on_c, 11, 64, 0
13, 16320, Note_on_c, 11, 64, 76
13, 16493, Note_on_c, 11, 64, 0
13, 16500, Note_on_c, 11, 76, 76
13, 16553, Note_on_c, 11, 76, 0
13, 16560, Note_on_c, 11, 76, 76
13, 16733, Note_on_c, 11, 76, 0
13, 16740, Note_on_c, 11, 73, 76
13, 16793, Note_on_c, 11, 73, 0
13, 16800, Note_on_c, 11, 69, 76
13, 17093, Note_on_c, 11, 69, 0
13, 17100, Note_on_c, 11, 67, 76
13, 17153, Note_on_c, 11, 67, 0
13, 17160, Note_on_c, 11, 66, 76
13, 17213, Note_on_c, 11, 66, 0
13, 17220, Note_on_c, 11, 64, 76
13, 17273, Note_on_c, 11, 64, 0
13, 17280, Note_on_c, 11, 62, 76
13, 17627, Note_on_c, 11, 62, 0
13, 17640, Note_on_c, 11, 57, 76
13, 17747, Note_on_c, 11, 57, 0
13, 17760, Note_on_c, 11, 69, 76
13, 17933, Note_on_c, 11, 69, 0
13, 17940, Note_on_c, 11, 67, 76
13, 17993, Note_on_c, 11, 67, 0
13, 18000, Note_on_c, 11, 69, 76
13, 18173, Note_on_c, 11, 69, 0
13, 18180, Note_on_c, 11, 66, 76
13, 18233, Note_on_c, 11, 66, 0
13, 18240, Note_on_c, 11, 67, 76
13, 18413, Note_on_c, 11, 67, 0
13, 18420, Note_on_c, 11, 66, 76
13, 18473, Note_on_c, 11, 66, 0
13, 18480, Note_on_c, 11, 67, 76
13, 18653, Note_on_c, 11, 67, 0
13, 18660, Note_on_c, 11, 69, 76
13, 18713, Note_on_c, 11, 69, 0
13, 18720, Note_on_c, 11, 71, 76
13, 18893, Note_on_c, 11, 71, 0
13, 18900, Note_on_c, 11, 73, 76
13, 18953, Note_on_c, 11, 73, 0
13, 18960, Note_on_c, 11, 74, 76
13, 19133, Note_on_c, 11, 74, 0
13, 19140, Note_on_c, 11, 76, 76
13, 19193, Note_on_c, 11, 76, 0
13, 19200, Note_on_c, 11, 69, 76
13, 19373, Note_on_c, 11, 69, 0
13, 19380, Note_on_c, 11, 64, 76
13, 19433, Note_on_c, 11, 64, 0
13, 19440, Note_on_c, 11, 61, 76
13, 19613, Note_on_c, 11, 61, 0
13, 19620, Note_on_c, 11, 57, 76
13, 19673, Note_on_c, 11, 57, 0
13, 19680, Note_on_c, 11, 69, 76
13, 19853, Note_on_c, 11, 69, 0
13, 19860, Note_on_c, 11, 66, 76
13, 19913, Note_on_c, 11, 66, 0
13, 19920, Note_on_c, 11, 62, 76
13, 20093, Note_on_c, 11, 62, 0
13, 20100, Note_on_c, 11, 69, 76
13, 20153, Note_on_c, 11, 69, 0
13, 20160, Note_on_c, 11, 69, 76
13, 20507, Note_on_c, 11, 69, 0
13, 20520, Note_on_c, 11, 67, 76
13, 20627, Note_on_c, 11, 67, 0
13, 20640, Note_on_c, 11, 64, 76
13, 20813, Note_on_c, 11, 64, 0
13, 20820, Note_on_c, 11, 66, 76
13, 20873, Note_on_c, 11, 66, 0
13, 20880, Note_on_c, 11, 66, 76
13, 21053, Note_on_c, 11, 66, 0
13, 21060, Note_on_c, 11, 62, 76
13, 21113, Note_on_c, 11, 62, 0
13, 21120, Note_on_c, 11, 69, 76
13, 21467, Note_on_c, 11, 69, 0
13, 21480, Note_on_c, 11, 69, 76
13, 21587, Note_on_c, 11, 69, 0
13, 21600, Note_on_c, 11, 69, 76
13, 21773, Note_on_c, 11, 69, 0
13, 21780, Note_on_c, 11, 74, 76
13, 21805, Note_on_c, 11, 74, 0
13, 21810, Note_on_c, 11, 73, 76
13, 21835, Note_on_c, 11, 73, 0
13, 21840, Note_on_c, 11, 74, 76
13, 22013, Note_on_c, 11, 74, 0
13, 22020, Note_on_c, 11, 76, 76
13, 22073, Note_on_c, 11, 76, 0
13, 22080, Note_on_c, 11, 73, 76
13, 23039, Note_on_c, 11, 73, 0
13, 23220, Note_on_c, 11, 69, 76
13, 23273, Note_on_c, 11, 69, 0
13, 23280, Note_on_c, 11, 69, 76
13, 23453, Note_on_c, 11, 69, 0
13, 23460, Note_on_c, 11, 66, 76
13, 23513, Note_on_c, 11, 66, 0
13, 23520, Note_on_c, 11, 66, 76
13, 23693, Note_on_c, 11, 66, 0
13, 23700, Note_on_c, 11, 62, 76
13, 23753, Note_on_c, 11, 62, 0
13, 23760, Note_on_c, 11, 62, 76
13, 23933, Note_on_c, 11, 62, 0
13, 23940, Note_on_c, 11, 71, 76
13, 23993, Note_on_c, 11, 71, 0
13, 24000, Note_on_c, 11, 71, 76
13, 24173, Note_on_c, 11, 71, 0
13, 24180, Note_on_c, 11, 67, 76
13, 24233, Note_on_c, 11, 67, 0
13, 24240, Note_on_c, 11, 67, 76
13, 24413, Note_on_c, 11, 67, 0
13, 24420, Note_on_c, 11, 64, 76
13, 24473, Note_on_c, 11, 64, 0
13, 24480, Note_on_c, 11, 64, 76
13, 24653, Note_on_c, 11, 64, 0
13, 24660, Note_on_c, 11, 76, 76
13, 24713, Note_on_c, 11, 76, 0
13, 24720, Note_on_c, 11, 76, 76
13, 24893, Note_on_c, 11, 76, 0
13, 24900, Note_on_c, 11, 73, 76
13, 24953, Note_on_c, 11, 73, 0
13, 24960, Note_on_c, 11, 73, 76
13, 25133, Note_on_c, 11, 73, 0
13, 25140, Note_on_c, 11, 67, 76
13, 25193, Note_on_c, 11, 67, 0
13, 25200, Note_on_c, 11, 67, 76
13, 25373, Note_on_c, 11, 67, 0
13, 25380, Note_on_c, 11, 79, 76
13, 25433, Note_on_c, 11, 79, 0
13, 25440, Note_on_c, 11, 79, 76
13, 25613, Note_on_c, 11, 79, 0
13, 25620, Note_on_c, 11, 76, 76
13, 25673, Note_on_c, 11, 76, 0
13, 25680, Note_on_c, 11, 76, 76
13, 25853, Note_on_c, 11, 76, 0
13, 25860, Note_on_c, 11, 73, 76
13, 25913, Note_on_c, 11, 73, 0
13, 25920, Note_on_c, 11, 74, 76
13, 26573, Note_on_c, 11, 74, 0
13, 26580, Note_on_c, 11, 66, 76
13, 26633, Note_on_c, 11, 66, 0
13, 26640, Note_on_c, 11, 69, 76
13, 26813, Note_on_c, 11, 69, 0
13, 26820, Note_on_c, 11, 73, 76
13, 26873, Note_on_c, 11, 73, 0
13, 26880, Note_on_c, 11, 74, 76
13, 27053, Note_on_c, 11, 74, 0
13, 27060, Note_on_c, 11, 78, 76
13, 27113, Note_on_c, 11, 78, 0
13, 27120, Note_on_c, 11, 78, 76
13, 27293, Note_on_c, 11, 78, 0
13, 27300, Note_on_c, 11, 74, 76
13, 27353, Note_on_c, 11, 74, 0
13, 27360, Note_on_c, 11, 74, 76
13, 27533, Note_on_c, 11, 74, 0
13, 27540, Note_on_c, 11, 71, 76
13, 27593, Note_on_c, 11, 71, 0
13, 27600, Note_on_c, 11, 71, 76
13, 27773, Note_on_c, 11, 71, 0
13, 27780, Note_on_c, 11, 68, 76
13, 27833, Note_on_c, 11, 68, 0
13, 27840, Note_on_c, 11, 68, 76
13, 28013, Note_on_c, 11, 68, 0
13, 28020, Note_on_c, 11, 71, 76
13, 28073, Note_on_c, 11, 71, 0
13, 28080, Note_on_c, 11, 71, 76
13, 28253, Note_on_c, 11, 71, 0
13, 28260, Note_on_c, 11, 68, 76
13, 28313, Note_on_c, 11, 68, 0
13, 28320, Note_on_c, 11, 64, 76
13, 28547, Note_on_c, 11, 64, 0
13, 28560, Note_on_c, 11, 69, 76
13, 28973, Note_on_c, 11, 69, 0
13, 28980, Note_on_c, 11, 68, 76
13, 29033, Note_on_c, 11, 68, 0
13, 29040, Note_on_c, 11, 69, 76
13, 29213, Note_on_c, 11, 69, 0
13, 29220, Note_on_c, 11, 71, 76
13, 29273, Note_on_c, 11, 71, 0
13, 29280, Note_on_c, 11, 64, 76
13, 29507, Note_on_c, 11, 64, 0
13, 29520, Note_on_c, 11, 71, 76
13, 29747, Note_on_c, 11, 71, 0
13, 29760, Note_on_c, 11, 69, 76
13, 29933, Note_on_c, 11, 69, 0
13, 29940, Note_on_c, 11, 64, 76
13, 29993, Note_on_c, 11, 64, 0
13, 30000, Note_on_c, 11, 69, 76
13, 30173, Note_on_c, 11, 69, 0
13, 30180, Note_on_c, 11, 71, 76
13, 30233, Note_on_c, 11, 71, 0
13, 30240, Note_on_c, 11, 72, 76
13, 30587, Note_on_c, 11, 72, 0
13, 30600, Note_on_c, 11, 72, 76
13, 30707, Note_on_c, 11, 72, 0
13, 30720, Note_on_c, 11, 63, 76
13, 30947, Note_on_c, 11, 63, 0
13, 30960, Note_on_c, 11, 66, 76
13, 31187, Note_on_c, 11, 66, 0
13, 31200, Note_on_c, 11, 71, 76
13, 31373, Note_on_c, 11, 71, 0
13, 31380, Note_on_c, 11, 71, 76
13, 31433, Note_on_c, 11, 71, 0
13, 31440, Note_on_c, 11, 72, 76
13, 31613, Note_on_c, 11, 72, 0
13, 31620, Note_on_c, 11, 71, 76
13, 31673, Note_on_c, 11, 71, 0
13, 31680, Note_on_c, 11, 71, 76
13, 31853, Note_on_c, 11, 71, 0
13, 31860, Note_on_c, 11, 76, 76
13, 31913, Note_on_c, 11, 76, 0
13, 31920, Note_on_c, 11, 76, 76
13, 32093, Note_on_c, 11, 76, 0
13, 32100, Note_on_c, 11, 71, 76
13, 32153, Note_on_c, 11, 71, 0
13, 32160, Note_on_c, 11, 67, 76
13, 32507, Note_on_c, 11, 67, 0
13, 32520, Note_on_c, 11, 67, 76
13, 32627, Note_on_c, 11, 67, 0
13, 32640, Note_on_c, 11, 66, 76
13, 32987, Note_on_c, 11, 66, 0
13, 33000, Note_on_c, 11, 70, 76
13, 33107, Note_on_c, 11, 70, 0
13, 33120, Note_on_c, 11, 71, 76
13, 33467, Note_on_c, 11, 71, 0
13, 33480, Note_on_c, 11, 73, 76
13, 33587, Note_on_c, 11, 73, 0
13, 33600, Note_on_c, 11, 71, 76
13, 33773, Note_on_c, 11, 71, 0
13, 33780, Note_on_c, 11, 70, 76
13, 33833, Note_on_c, 11, 70, 0
13, 33840, Note_on_c, 11, 71, 76
13, 34013, Note_on_c, 11, 71, 0
13, 34020, Note_on_c, 11, 71, 76
13, 34073, Note_on_c, 11, 71, 0
13, 34080, Note_on_c, 11, 70, 76
13, 34427, Note_on_c, 11, 70, 0
13, 34440, Note_on_c, 11, 71, 76
13, 34547, Note_on_c, 11, 71, 0
13, 34560, Note_on_c, 11, 71, 76
13, 34733, Note_on_c, 11, 71, 0
13, 34740, Note_on_c, 11, 59, 76
13, 34793, Note_on_c, 11, 59, 0
13, 34800, Note_on_c, 11, 59, 76
13, 34973, Note_on_c, 11, 59, 0
13, 34980, Note_on_c, 11, 63, 76
13, 35033, Note_on_c, 11, 63, 0
13, 35040, Note_on_c, 11, 66, 76
13, 35387, Note_on_c, 11, 66, 0
13, 35400, Note_on_c, 11, 66, 76
13, 35507, Note_on_c, 11, 66, 0
13, 35520, Note_on_c, 11, 64, 76
13, 35693, Note_on_c, 11, 64, 0
13, 35700, Note_on_c, 11, 76, 76
13, 35753, Note_on_c, 11, 76, 0
13, 35760, Note_on_c, 11, 76, 76
13, 35933, Note_on_c, 11, 76, 0
13, 35940, Note_on_c, 11, 74, 76
13, 35993, Note_on_c, 11, 74, 0
13, 36000, Note_on_c, 11, 73, 76
13, 36173, Note_on_c, 11, 73, 0
13, 36180, Note_on_c, 11, 73, 76
13, 36233, Note_on_c, 11, 73, 0
13, 36240, Note_on_c, 11, 73, 76
13, 36413, Note_on_c, 11, 73, 0
13, 36420, Note_on_c, 11, 71, 76
13, 36473, Note_on_c, 11, 71, 0
13, 36480, Note_on_c, 11, 69, 76
13, 36827, Note_on_c, 11, 69, 0
13, 36840, Note_on_c, 11, 69, 76
13, 36947, Note_on_c, 11, 69, 0
13, 36960, Note_on_c, 11, 69, 76
13, 37307, Note_on_c, 11, 69, 0
13, 37320, Note_on_c, 11, 69, 76
13, 37427, Note_on_c, 11, 69, 0
13, 37440, Note_on_c, 11, 71, 76
13, 37613, Note_on_c, 11, 71, 0
13, 37620, Note_on_c, 11, 69, 76
13, 37673, Note_on_c, 11, 69, 0
13, 37680, Note_on_c, 11, 68, 76
13, 37853, Note_on_c, 11, 68, 0
13, 37860, Note_on_c, 11, 66, 76
13, 37913, Note_on_c, 11, 66, 0
13, 37920, Note_on_c, 11, 64, 76
13, 38093, Note_on_c, 11, 64, 0
13, 38100, Note_on_c, 11, 68, 76
13, 38153, Note_on_c, 11, 68, 0
13, 38160, Note_on_c, 11, 69, 76
13, 38333, Note_on_c, 11, 69, 0
13, 38340, Note_on_c, 11, 71, 76
13, 38393, Note_on_c, 11, 71, 0
13, 38400, Note_on_c, 11, 69, 76
13, 38747, Note_on_c, 11, 69, 0
13, 38760, Note_on_c, 11, 69, 76
13, 38867, Note_on_c, 11, 69, 0
13, 38880, Note_on_c, 11, 68, 76
13, 39227, Note_on_c, 11, 68, 0
13, 39240, Note_on_c, 11, 64, 76
13, 39347, Note_on_c, 11, 64, 0
13, 39360, Note_on_c, 11, 64, 76
13, 39533, Note_on_c, 11, 64, 0
13, 39540, Note_on_c, 11, 76, 76
13, 39593, Note_on_c, 11, 76, 0
13, 39600, Note_on_c, 11, 76, 76
13, 39773, Note_on_c, 11, 76, 0
13, 39780, Note_on_c, 11, 73, 76
13, 39833, Note_on_c, 11, 73, 0
13, 39840, Note_on_c, 11, 69, 76
13, 40133, Note_on_c, 11, 69, 0
13, 40140, Note_on_c, 11, 67, 76
13, 40193, Note_on_c, 11, 67, 0
13, 40200, Note_on_c, 11, 66, 76
13, 40253, Note_on_c, 11, 66, 0
13, 40260, Note_on_c, 11, 64, 76
13, 40313, Note_on_c, 11, 64, 0
13, 40320, Note_on_c, 11, 62, 76
13, 40667, Note_on_c, 11, 62, 0
13, 40680, Note_on_c, 11, 57, 76
13, 40787, Note_on_c, 11, 57, 0
13, 40800, Note_on_c, 11, 69, 76
13, 40973, Note_on_c, 11, 69, 0
13, 40980, Note_on_c, 11, 67, 76
13, 41033, Note_on_c, 11, 67, 0
13, 41040, Note_on_c, 11, 69, 76
13, 41213, Note_on_c, 11, 69, 0
13, 41220, Note_on_c, 11, 66, 76
13, 41273, Note_on_c, 11, 66, 0
13, 41280, Note_on_c, 11, 67, 76
13, 41453, Note_on_c, 11, 67, 0
13, 41460, Note_on_c, 11, 66, 76
13, 41513, Note_on_c, 11, 66, 0
13, 41520, Note_on_c, 11, 67, 76
13, 41693, Note_on_c, 11, 67, 0
13, 41700, Note_on_c, 11, 69, 76
13, 41753, Note_on_c, 11, 69, 0
13, 41760, Note_on_c, 11, 71, 76
13, 41933, Note_on_c, 11, 71, 0
13, 41940, Note_on_c, 11, 73, 76
13, 41993, Note_on_c, 11, 73, 0
13, 42000, Note_on_c, 11, 74, 76
13, 42173, Note_on_c, 11, 74, 0
13, 42180, Note_on_c, 11, 76, 76
13, 42233, Note_on_c, 11, 76, 0
13, 42240, Note_on_c, 11, 69, 76
13, 42413, Note_on_c, 11, 69, 0
13, 42420, Note_on_c, 11, 64, 76
13, 42473, Note_on_c, 11, 64, 0
13, 42480, Note_on_c, 11, 61, 76
13, 42653, Note_on_c, 11, 61, 0
13, 42660, Note_on_c, 11, 57, 76
13, 42713, Note_on_c, 11, 57, 0
13, 42720, Note_on_c, 11, 69, 76
13, 42893, Note_on_c, 11, 69, 0
13, 42900, Note_on_c, 11, 66, 76
13, 42953, Note_on_c, 11, 66, 0
13, 42960, Note_on_c, 11, 62, 76
13, 43133, Note_on_c, 11, 62, 0
13, 43140, Note_on_c, 11, 69, 76
13, 43193, Note_on_c, 11, 69, 0
13, 43200, Note_on_c, 11, 69, 76
13, 43547, Note_on_c, 11, 69, 0
13, 43560, Note_on_c, 11, 67, 76
13, 43667, Note_on_c, 11, 67, 0
13, 43680, Note_on_c, 11, 64, 76
13, 43853, Note_on_c, 11, 64, 0
13, 43860, Note_on_c, 11, 66, 76
13, 43913, Note_on_c, 11, 66, 0
13, 43920, Note_on_c, 11, 66, 76
13, 44093, Note_on_c, 11, 66, 0
13, 44100, Note_on_c, 11, 62, 76
13, 44153, Note_on_c, 11, 62, 0
13, 44160, Note_on_c, 11, 69, 76
13, 44507, Note_on_c, 11, 69, 0
13, 44520, Note_on_c, 11, 69, 76
13, 44627, Note_on_c, 11, 69, 0
13, 44640, Note_on_c, 11, 69, 76
13, 44813, Note_on_c, 11, 69, 0
13, 44820, Note_on_c, 11, 74, 76
13, 44845, Note_on_c, 11, 74, 0
13, 44850, Note_on_c, 11, 73, 76
13, 44875, Note_on_c, 11, 73, 0
13, 44880, Note_on_c, 11, 74, 76
13, 45053, Note_on_c, 11, 74, 0
13, 45060, Note_on_c, 11, 76, 76
13, 45113, Note_on_c, 11, 76, 0
13, 45120, Note_on_c, 11, 73, 76
13, 45359, Note_on_c, 11, 73, 0
13, 46680, Note_on_c, 11, 62, 76
13, 46727, Note_on_c, 11, 62, 0
13, 46740, Note_on_c, 11, 64, 76
13, 46787, Note_on_c, 11, 64, 0
13, 46800, Note_on_c, 11, 66, 76
13, 46904, Note_on_c, 11, 66, 0
13, 46920, Note_on_c, 11, 66, 76
13, 46967, Note_on_c, 11, 66, 0
13, 46980, Note_on_c, 11, 67, 76
13, 47027, Note_on_c, 11, 67, 0
13, 47040, Note_on_c, 11, 69, 76
13, 47144, Note_on_c, 11, 69, 0
13, 47160, Note_on_c, 11, 66, 76
13, 47207, Note_on_c, 11, 66, 0
13, 47220, Note_on_c, 11, 67, 76
13, 47267, Note_on_c, 11, 67, 0
13, 47280, Note_on_c, 11, 69, 76
13, 47384, Note_on_c, 11, 69, 0
13, 47400, Note_on_c, 11, 69, 76
13, 47447, Note_on_c, 11, 69, 0
13, 47460, Note_on_c, 11, 71, 76
13, 47507, Note_on_c, 11, 71, 0
13, 47520, Note_on_c, 11, 72, 76
13, 47624, Note_on_c, 11, 72, 0
13, 47640, Note_on_c, 11, 72, 76
13, 47687, Note_on_c, 11, 72, 0
13, 47700, Note_on_c, 11, 71, 76
13, 47747, Note_on_c, 11, 71, 0
13, 47760, Note_on_c, 11, 72, 76
13, 47864, Note_on_c, 11, 72, 0
13, 47880, Note_on_c, 11, 74, 76
13, 47927, Note_on_c, 11, 74, 0
13, 47940, Note_on_c, 11, 72, 76
13, 47987, Note_on_c, 11, 72, 0
13, 48000, Note_on_c, 11, 71, 76
13, 48104, Note_on_c, 11, 71, 0
13, 48120, Note_on_c, 11, 67, 76
13, 48167, Note_on_c, 11, 67, 0
13, 48180, Note_on_c, 11, 69, 76
13, 48227, Note_on_c, 11, 69, 0
13, 48240, Note_on_c, 11, 71, 76
13, 48344, Note_on_c, 11, 71, 0
13, 48360, Note_on_c, 11, 71, 76
13, 48407, Note_on_c, 11, 71, 0
13, 48420, Note_on_c, 11, 73, 76
13, 48467, Note_on_c, 11, 73, 0
13, 48480, Note_on_c, 11, 74, 76
13, 48584, Note_on_c, 11, 74, 0
13, 48600, Note_on_c, 11, 74, 76
13, 48647, Note_on_c, 11, 74, 0
13, 48660, Note_on_c, 11, 73, 76
13, 48707, Note_on_c, 11, 73, 0
13, 48720, Note_on_c, 11, 74, 76
13, 48824, Note_on_c, 11, 74, 0
13, 48840, Note_on_c, 11, 76, 76
13, 48887, Note_on_c, 11, 76, 0
13, 48900, Note_on_c, 11, 74, 76
13, 48947, Note_on_c, 11, 74, 0
13, 48960, Note_on_c, 11, 73, 76
13, 49064, Note_on_c, 11, 73, 0
13, 49080, Note_on_c, 11, 76, 76
13, 49184, Note_on_c, 11, 76, 0
13, 49200, Note_on_c, 11, 69, 76
13, 49304, Note_on_c, 11, 69, 0
13, 49320, Note_on_c, 11, 73, 76
13, 49544, Note_on_c, 11, 73, 0
13, 49560, Note_on_c, 11, 76, 76
13, 49664, Note_on_c, 11, 76, 0
13, 49680, Note_on_c, 11, 67, 76
13, 49784, Note_on_c, 11, 67, 0
13, 49800, Note_on_c, 11, 73, 76
13, 50024, Note_on_c, 11, 73, 0
13, 50040, Note_on_c, 11, 76, 76
13, 50144, Note_on_c, 11, 76, 0
13, 50160, Note_on_c, 11, 69, 76
13, 50264, Note_on_c, 11, 69, 0
13, 50280, Note_on_c, 11, 73, 76
13, 50384, Note_on_c, 11, 73, 0
13, 50400, Note_on_c, 11, 74, 76
13, 50447, Note_on_c, 11, 74, 0
13, 50460, Note_on_c, 11, 69, 76
13, 50507, Note_on_c, 11, 69, 0
13, 50520, Note_on_c, 11, 66, 76
13, 50567, Note_on_c, 11, 66, 0
13, 50580, Note_on_c, 11, 67, 76
13, 50627, Note_on_c, 11, 67, 0
13, 50640, Note_on_c, 11, 69, 76
13, 50687, Note_on_c, 11, 69, 0
13, 50700, Note_on_c, 11, 71, 76
13, 50747, Note_on_c, 11, 71, 0
13, 50760, Note_on_c, 11, 69, 76
13, 50807, Note_on_c, 11, 69, 0
13, 50820, Note_on_c, 11, 71, 76
13, 50867, Note_on_c, 11, 71, 0
13, 50880, Note_on_c, 11, 72, 76
13, 50927, Note_on_c, 11, 72, 0
13, 50940, Note_on_c, 11, 69, 76
13, 50987, Note_on_c, 11, 69, 0
13, 51000, Note_on_c, 11, 62, 76
13, 51047, Note_on_c, 11, 62, 0
13, 51060, Note_on_c, 11, 64, 76
13, 51107, Note_on_c, 11, 64, 0
13, 51120, Note_on_c, 11, 66, 76
13, 51167, Note_on_c, 11, 66, 0
13, 51180, Note_on_c, 11, 67, 76
13, 51227, Note_on_c, 11, 67, 0
13, 51240, Note_on_c, 11, 66, 76
13, 51287, Note_on_c, 11, 66, 0
13, 51300, Note_on_c, 11, 67, 76
13, 51347, Note_on_c, 11, 67, 0
13, 51360, Note_on_c, 11, 69, 76
13, 51407, Note_on_c, 11, 69, 0
13, 51420, Note_on_c, 11, 67, 76
13, 51467, Note_on_c, 11, 67, 0
13, 51480, Note_on_c, 11, 66, 76
13, 51527, Note_on_c, 11, 66, 0
13, 51540, Note_on_c, 11, 67, 76
13, 51587, Note_on_c, 11, 67, 0
13, 51600, Note_on_c, 11, 69, 76
13, 51647, Note_on_c, 11, 69, 0
13, 51660, Note_on_c, 11, 67, 76
13, 51707, Note_on_c, 11, 67, 0
13, 51720, Note_on_c, 11, 66, 76
13, 51767, Note_on_c, 11, 66, 0
13, 51780, Note_on_c, 11, 64, 76
13, 51827, Note_on_c, 11, 64, 0
13, 51840, Note_on_c, 11, 62, 76
13, 51944, Note_on_c, 11, 62, 0
13, 51960, Note_on_c, 11, 71, 76
13, 52064, Note_on_c, 11, 71, 0
13, 52080, Note_on_c, 11, 64, 76
13, 52184, Note_on_c, 11, 64, 0
13, 52200, Note_on_c, 11, 68, 76
13, 52424, Note_on_c, 11, 68, 0
13, 52440, Note_on_c, 11, 71, 76
13, 52544, Note_on_c, 11, 71, 0
13, 52560, Note_on_c, 11, 62, 76
13, 52664, Note_on_c, 11, 62, 0
13, 52680, Note_on_c, 11, 68, 76
13, 52904, Note_on_c, 11, 68, 0
13, 52920, Note_on_c, 11, 71, 76
13, 53024, Note_on_c, 11, 71, 0
13, 53040, Note_on_c, 11, 64, 76
13, 53144, Note_on_c, 11, 64, 0
13, 53160, Note_on_c, 11, 68, 76
13, 53264, Note_on_c, 11, 68, 0
13, 53280, Note_on_c, 11, 69, 76
13, 53327, Note_on_c, 11, 69, 0
13, 53340, Note_on_c, 11, 81, 76
13, 53387, Note_on_c, 11, 81, 0
13, 53400, Note_on_c, 11, 73, 76
13, 53447, Note_on_c, 11, 73, 0
13, 53460, Note_on_c, 11, 74, 76
13, 53507, Note_on_c, 11, 74, 0
13, 53520, Note_on_c, 11, 76, 76
13, 53567, Note_on_c, 11, 76, 0
13, 53580, Note_on_c, 11, 78, 76
13, 53627, Note_on_c, 11, 78, 0
13, 53640, Note_on_c, 11, 76, 76
13, 53687, Note_on_c, 11, 76, 0
13, 53700, Note_on_c, 11, 78, 76
13, 53747, Note_on_c, 11, 78, 0
13, 53760, Note_on_c, 11, 79, 76
13, 53807, Note_on_c, 11, 79, 0
13, 53820, Note_on_c, 11, 76, 76
13, 53867, Note_on_c, 11, 76, 0
13, 53880, Note_on_c, 11, 69, 76
13, 53927, Note_on_c, 11, 69, 0
13, 53940, Note_on_c, 11, 71, 76
13, 53987, Note_on_c, 11, 71, 0
13, 54000, Note_on_c, 11, 73, 76
13, 54047, Note_on_c, 11, 73, 0
13, 54060, Note_on_c, 11, 74, 76
13, 54107, Note_on_c, 11, 74, 0
13, 54120, Note_on_c, 11, 73, 76
13, 54167, Note_on_c, 11, 73, 0
13, 54180, Note_on_c, 11, 74, 76
13, 54227, Note_on_c, 11, 74, 0
13, 54240, Note_on_c, 11, 76, 76
13, 54287, Note_on_c, 11, 76, 0
13, 54300, Note_on_c, 11, 74, 76
13, 54347, Note_on_c, 11, 74, 0
13, 54360, Note_on_c, 11, 73, 76
13, 54407, Note_on_c, 11, 73, 0
13, 54420, Note_on_c, 11, 74, 76
13, 54467, Note_on_c, 11, 74, 0
13, 54480, Note_on_c, 11, 76, 76
13, 54527, Note_on_c, 11, 76, 0
13, 54540, Note_on_c, 11, 74, 76
13, 54587, Note_on_c, 11, 74, 0
13, 54600, Note_on_c, 11, 73, 76
13, 54647, Note_on_c, 11, 73, 0
13, 54660, Note_on_c, 11, 71, 76
13, 54707, Note_on_c, 11, 71, 0
13, 54720, Note_on_c, 11, 69, 76
13, 54824, Note_on_c, 11, 69, 0
13, 54840, Note_on_c, 11, 66, 76
13, 54944, Note_on_c, 11, 66, 0
13, 54960, Note_on_c, 11, 71, 76
13, 55304, Note_on_c, 11, 71, 0
13, 55320, Note_on_c, 11, 70, 76
13, 55367, Note_on_c, 11, 70, 0
13, 55380, Note_on_c, 11, 71, 76
13, 55427, Note_on_c, 11, 71, 0
13, 55440, Note_on_c, 11, 73, 76
13, 55487, Note_on_c, 11, 73, 0
13, 55500, Note_on_c, 11, 71, 76
13, 55547, Note_on_c, 11, 71, 0
13, 55560, Note_on_c, 11, 70, 76
13, 55607, Note_on_c, 11, 70, 0
13, 55620, Note_on_c, 11, 68, 76
13, 55667, Note_on_c, 11, 68, 0
13, 55680, Note_on_c, 11, 66, 76
13, 55727, Note_on_c, 11, 66, 0
13, 55740, Note_on_c, 11, 78, 76
13, 55787, Note_on_c, 11, 78, 0
13, 55800, Note_on_c, 11, 71, 76
13, 55847, Note_on_c, 11, 71, 0
13, 55860, Note_on_c, 11, 73, 76
13, 55907, Note_on_c, 11, 73, 0
13, 55920, Note_on_c, 11, 74, 76
13, 55967, Note_on_c, 11, 74, 0
13, 55980, Note_on_c, 11, 76, 76
13, 56027, Note_on_c, 11, 76, 0
13, 56040, Note_on_c, 11, 74, 76
13, 56087, Note_on_c, 11, 74, 0
13, 56100, Note_on_c, 11, 76, 76
13, 56147, Note_on_c, 11, 76, 0
13, 56160, Note_on_c, 11, 78, 76
13, 56207, Note_on_c, 11, 78, 0
13, 56220, Note_on_c, 11, 81, 76
13, 56267, Note_on_c, 11, 81, 0
13, 56280, Note_on_c, 11, 74, 76
13, 56327, Note_on_c, 11, 74, 0
13, 56340, Note_on_c, 11, 76, 76
13, 56387, Note_on_c, 11, 76, 0
13, 56400, Note_on_c, 11, 78, 76
13, 56447, Note_on_c, 11, 78, 0
13, 56460, Note_on_c, 11, 79, 76
13, 56507, Note_on_c, 11, 79, 0
13, 56520, Note_on_c, 11, 78, 76
13, 56567, Note_on_c, 11, 78, 0
13, 56580, Note_on_c, 11, 79, 76
13, 56627, Note_on_c, 11, 79, 0
13, 56640, Note_on_c, 11, 81, 76
13, 56687, Note_on_c, 11, 81, 0
13, 56700, Note_on_c, 11, 79, 76
13, 56747, Note_on_c, 11, 79, 0
13, 56760, Note_on_c, 11, 78, 76
13, 56807, Note_on_c, 11, 78, 0
13, 56820, Note_on_c, 11, 79, 76
13, 56867, Note_on_c, 11, 79, 0
13, 56880, Note_on_c, 11, 81, 76
13, 56927, Note_on_c, 11, 81, 0
13, 56940, Note_on_c, 11, 79, 76
13, 56987, Note_on_c, 11, 79, 0
13, 57000, Note_on_c, 11, 78, 76
13, 57047, Note_on_c, 11, 78, 0
13, 57060, Note_on_c, 11, 76, 76
13, 57107, Note_on_c, 11, 76, 0
13, 57120, Note_on_c, 11, 74, 76
13, 57224, Note_on_c, 11, 74, 0
13, 57240, Note_on_c, 11, 71, 76
13, 57344, Note_on_c, 11, 71, 0
13, 57360, Note_on_c, 11, 76, 76
13, 57704, Note_on_c, 11, 76, 0
13, 57720, Note_on_c, 11, 69, 76
13, 57824, Note_on_c, 11, 69, 0
13, 57840, Note_on_c, 11, 74, 76
13, 58184, Note_on_c, 11, 74, 0
13, 58200, Note_on_c, 11, 73, 76
13, 58304, Note_on_c, 11, 73, 0
13, 58320, Note_on_c, 11, 74, 76
13, 58367, Note_on_c, 11, 74, 0
13, 58380, Note_on_c, 11, 73, 76
13, 58427, Note_on_c, 11, 73, 0
13, 58440, Note_on_c, 11, 71, 76
13, 58487, Note_on_c, 11, 71, 0
13, 58500, Note_on_c, 11, 74, 76
13, 58547, Note_on_c, 11, 74, 0
13, 58560, Note_on_c, 11, 73, 76
13, 58664, Note_on_c, 11, 73, 0
13, 58680, Note_on_c, 11, 76, 76
13, 58784, Note_on_c, 11, 76, 0
13, 58800, Note_on_c, 11, 69, 76
13, 58904, Note_on_c, 11, 69, 0
13, 58920, Note_on_c, 11, 73, 76
13, 59144, Note_on_c, 11, 73, 0
13, 59160, Note_on_c, 11, 76, 76
13, 59264, Note_on_c, 11, 76, 0
13, 59280, Note_on_c, 11, 67, 76
13, 59384, Note_on_c, 11, 67, 0
13, 59400, Note_on_c, 11, 73, 76
13, 59624, Note_on_c, 11, 73, 0
13, 59640, Note_on_c, 11, 76, 76
13, 59744, Note_on_c, 11, 76, 0
13, 59760, Note_on_c, 11, 69, 76
13, 59864, Note_on_c, 11, 69, 0
13, 59880, Note_on_c, 11, 73, 76
13, 59984, Note_on_c, 11, 73, 0
13, 60000, Note_on_c, 11, 74, 76
13, 60104, Note_on_c, 11, 74, 0
13, 60120, Note_on_c, 11, 69, 76
13, 60224, Note_on_c, 11, 69, 0
13, 60240, Note_on_c, 11, 74, 76
13, 60584, Note_on_c, 11, 74, 0
13, 60600, Note_on_c, 11, 73, 76
13, 60704, Note_on_c, 11, 73, 0
13, 60720, Note_on_c, 11, 76, 76
13, 60824, Note_on_c, 11, 76, 0
13, 60840, Note_on_c, 11, 73, 76
13, 60944, Note_on_c, 11, 73, 0
13, 60960, Note_on_c, 11, 74, 76
13, 61064, Note_on_c, 11, 74, 0
13, 61080, Note_on_c, 11, 69, 76
13, 61184, Note_on_c, 11, 69, 0
13, 61200, Note_on_c, 11, 62, 76
13, 61304, Note_on_c, 11, 62, 0
13, 61320, Note_on_c, 11, 67, 76
13, 61424, Note_on_c, 11, 67, 0
13, 61440, Note_on_c, 11, 64, 76
13, 61487, Note_on_c, 11, 64, 0
13, 61500, Note_on_c, 11, 61, 76
13, 61547, Note_on_c, 11, 61, 0
13, 61560, Note_on_c, 11, 62, 76
13, 61607, Note_on_c, 11, 62, 0
13, 61620, Note_on_c, 11, 64, 76
13, 61667, Note_on_c, 11, 64, 0
13, 61680, Note_on_c, 11, 57, 76
13, 61784, Note_on_c, 11, 57, 0
13, 61800, Note_on_c, 11, 73, 76
13, 61904, Note_on_c, 11, 73, 0
13, 61920, Note_on_c, 11, 74, 76
13, 62024, Note_on_c, 11, 74, 0
13, 62040, Note_on_c, 11, 71, 76
13, 62144, Note_on_c, 11, 71, 0
13, 62160, Note_on_c, 11, 69, 76
13, 62264, Note_on_c, 11, 69, 0
13, 62280, Note_on_c, 11, 69, 76
13, 62384, Note_on_c, 11, 69, 0
13, 62400, Note_on_c, 11, 69, 76
13, 62639, Note_on_c, 11, 69, 0
13, 62760, Note_on_c, 11, 69, 76
13, 62864, Note_on_c, 11, 69, 0
13, 62880, Note_on_c, 11, 69, 76
13, 62984, Note_on_c, 11, 69, 0
13, 63000, Note_on_c, 11, 71, 76
13, 63104, Note_on_c, 11, 71, 0
13, 63120, Note_on_c, 11, 71, 76
13, 63224, Note_on_c, 11, 71, 0
13, 63240, Note_on_c, 11, 69, 76
13, 63344, Note_on_c, 11, 69, 0
13, 63360, Note_on_c, 11, 69, 76
13, 63599, Note_on_c, 11, 69, 0
13, 63720, Note_on_c, 11, 71, 76
13, 63824, Note_on_c, 11, 71, 0
13, 63840, Note_on_c, 11, 73, 76
13, 63944, Note_on_c, 11, 73, 0
13, 63960, Note_on_c, 11, 69, 76
13, 64064, Note_on_c, 11, 69, 0
13, 64080, Note_on_c, 11, 78, 76
13, 64184, Note_on_c, 11, 78, 0
13, 64200, Note_on_c, 11, 76, 76
13, 64304, Note_on_c, 11, 76, 0
13, 64320, Note_on_c, 11, 76, 76
13, 64559, Note_on_c, 11, 76, 0
13, 64680, Note_on_c, 11, 76, 76
13, 64784, Note_on_c, 11, 76, 0
13, 64800, Note_on_c, 11, 76, 76
13, 64904, Note_on_c, 11, 76, 0
13, 64920, Note_on_c, 11, 76, 76
13, 65039, Note_on_c, 11, 76, 0
13, 65160, Note_on_c, 11, 76, 76
13, 65264, Note_on_c, 11, 76, 0
13, 65280, Note_on_c, 11, 73, 76
13, 65384, Note_on_c, 11, 73, 0
13, 65400, Note_on_c, 11, 73, 76
13, 65519, Note_on_c, 11, 73, 0
13, 65640, Note_on_c, 11, 73, 76
13, 65744, Note_on_c, 11, 73, 0
13, 65760, Note_on_c, 11, 73, 76
13, 65864, Note_on_c, 11, 73, 0
13, 65880, Note_on_c, 11, 70, 76
13, 65999, Note_on_c, 11, 70, 0
13, 66120, Note_on_c, 11, 70, 76
13, 66224, Note_on_c, 11, 70, 0
13, 66240, Note_on_c, 11, 71, 76
13, 66344, Note_on_c, 11, 71, 0
13, 66360, Note_on_c, 11, 66, 76
13, 66479, Note_on_c, 11, 66, 0
13, 66600, Note_on_c, 11, 71, 76
13, 66704, Note_on_c, 11, 71, 0
13, 66720, Note_on_c, 11, 72, 76
13, 66824, Note_on_c, 11, 72, 0
13, 66840, Note_on_c, 11, 72, 76
13, 66959, Note_on_c, 11, 72, 0
13, 67080, Note_on_c, 11, 72, 76
13, 67184, Note_on_c, 11, 72, 0
13, 67200, Note_on_c, 11, 66, 76
13, 67304, Note_on_c, 11, 66, 0
13, 67320, Note_on_c, 11, 69, 76
13, 67439, Note_on_c, 11, 69, 0
13, 67560, Note_on_c, 11, 69, 76
13, 67664, Note_on_c, 11, 69, 0
13, 67680, Note_on_c, 11, 63, 76
13, 67784, Note_on_c, 11, 63, 0
13, 67800, Note_on_c, 11, 71, 76
13, 67919, Note_on_c, 11, 71, 0
13, 68040, Note_on_c, 11, 75, 76
13, 68144, Note_on_c, 11, 75, 0
13, 68160, Note_on_c, 11, 76, 76
13, 68399, Note_on_c, 11, 76, 0
13, 70200, Note_on_c, 11, 66, 76
13, 70247, Note_on_c, 11, 66, 0
13, 70260, Note_on_c, 11, 68, 76
13, 70307, Note_on_c, 11, 68, 0
13, 70320, Note_on_c, 11, 70, 76
13, 70424, Note_on_c, 11, 70, 0
13, 70440, Note_on_c, 11, 70, 76
13, 70487, Note_on_c, 11, 70, 0
13, 70500, Note_on_c, 11, 71, 76
13, 70547, Note_on_c, 11, 71, 0
13, 70560, Note_on_c, 11, 73, 76
13, 70664, Note_on_c, 11, 73, 0
13, 70680, Note_on_c, 11, 70, 76
13, 70727, Note_on_c, 11, 70, 0
13, 70740, Note_on_c, 11, 71, 76
13, 70787, Note_on_c, 11, 71, 0
13, 70800, Note_on_c, 11, 73, 76
13, 70904, Note_on_c, 11, 73, 0
13, 70920, Note_on_c, 11, 73, 76
13, 70967, Note_on_c, 11, 73, 0
13, 70980, Note_on_c, 11, 74, 76
13, 71027, Note_on_c, 11, 74, 0
13, 71040, Note_on_c, 11, 76, 76
13, 71144, Note_on_c, 11, 76, 0
13, 71160, Note_on_c, 11, 76, 76
13, 71207, Note_on_c, 11, 76, 0
13, 71220, Note_on_c, 11, 74, 76
13, 71267, Note_on_c, 11, 74, 0
13, 71280, Note_on_c, 11, 76, 76
13, 71384, Note_on_c, 11, 76, 0
13, 71400, Note_on_c, 11, 78, 76
13, 71447, Note_on_c, 11, 78, 0
13, 71460, Note_on_c, 11, 76, 76
13, 71507, Note_on_c, 11, 76, 0
13, 71520, Note_on_c, 11, 75, 76
13, 71744, Note_on_c, 11, 75, 0
13, 71760, Note_on_c, 11, 71, 76
13, 71999, Note_on_c, 11, 71, 0
13, 72240, Note_on_c, 11, 75, 76
13, 72479, Note_on_c, 11, 75, 0
13, 72720, Note_on_c, 11, 78, 76
13, 72959, Note_on_c, 11, 78, 0
13, 73080, Note_on_c, 11, 64, 76
13, 73127, Note_on_c, 11, 64, 0
13, 73140, Note_on_c, 11, 66, 76
13, 73187, Note_on_c, 11, 66, 0
13, 73200, Note_on_c, 11, 68, 76
13, 73304, Note_on_c, 11, 68, 0
13, 73320, Note_on_c, 11, 68, 76
13, 73367, Note_on_c, 11, 68, 0
13, 73380, Note_on_c, 11, 69, 76
13, 73427, Note_on_c, 11, 69, 0
13, 73440, Note_on_c, 11, 71, 76
13, 73544, Note_on_c, 11, 71, 0
13, 73560, Note_on_c, 11, 68, 76
13, 73607, Note_on_c, 11, 68, 0
13, 73620, Note_on_c, 11, 69, 76
13, 73667, Note_on_c, 11, 69, 0
13, 73680, Note_on_c, 11, 71, 76
13, 73784, Note_on_c, 11, 71, 0
13, 73800, Note_on_c, 11, 71, 76
13, 73847, Note_on_c, 11, 71, 0
13, 73860, Note_on_c, 11, 73, 76
13, 73907, Note_on_c, 11, 73, 0
13, 73920, Note_on_c, 11, 74, 76
13, 74024, Note_on_c, 11, 74, 0
13, 74040, Note_on_c, 11, 74, 76
13, 74087, Note_on_c, 11, 74, 0
13, 74100, Note_on_c, 11, 73, 76
13, 74147, Note_on_c, 11, 73, 0
13, 74160, Note_on_c, 11, 74, 76
13, 74264, Note_on_c, 11, 74, 0
13, 74280, Note_on_c, 11, 76, 76
13, 74327, Note_on_c, 11, 76, 0
13, 74340, Note_on_c, 11, 74, 76
13, 74387, Note_on_c, 11, 74, 0
13, 74400, Note_on_c, 11, 73, 76
13, 74624, Note_on_c, 11, 73, 0
13, 74640, Note_on_c, 11, 69, 76
13, 74879, Note_on_c, 11, 69, 0
13, 75120, Note_on_c, 11, 73, 76
13, 75359, Note_on_c, 11, 73, 0
13, 75600, Note_on_c, 11, 76, 76
13, 75824, Note_on_c, 11, 76, 0
13, 75840, Note_on_c, 11, 74, 76
13, 76079, Note_on_c, 11, 74, 0
13, 77880, Note_on_c, 11, 76, 76
13, 77984, Note_on_c, 11, 76, 0
13, 78000, Note_on_c, 11, 69, 76
13, 78104, Note_on_c, 11, 69, 0
13, 78120, Note_on_c, 11, 73, 76
13, 78344, Note_on_c, 11, 73, 0
13, 78360, Note_on_c, 11, 76, 76
13, 78464, Note_on_c, 11, 76, 0
13, 78480, Note_on_c, 11, 67, 76
13, 78584, Note_on_c, 11, 67, 0
13, 78600, Note_on_c, 11, 73, 76
13, 78824, Note_on_c, 11, 73, 0
13, 78840, Note_on_c, 11, 76, 76
13, 78944, Note_on_c, 11, 76, 0
13, 78960, Note_on_c, 11, 69, 76
13, 79064, Note_on_c, 11, 69, 0
13, 79080, Note_on_c, 11, 73, 76
13, 79184, Note_on_c, 11, 73, 0
13, 79200, Note_on_c, 11, 74, 76
13, 79247, Note_on_c, 11, 74, 0
13, 79260, Note_on_c, 11, 73, 76
13, 79307, Note_on_c, 11, 73, 0
13, 79320, Note_on_c, 11, 74, 76
13, 79367, Note_on_c, 11, 74, 0
13, 79380, Note_on_c, 11, 76, 76
13, 79427, Note_on_c, 11, 76, 0
13, 79440, Note_on_c, 11, 78, 76
13, 79487, Note_on_c, 11, 78, 0
13, 79500, Note_on_c, 11, 79, 76
13, 79547, Note_on_c, 11, 79, 0
13, 79560, Note_on_c, 11, 78, 76
13, 79607, Note_on_c, 11, 78, 0
13, 79620, Note_on_c, 11, 79, 76
13, 79667, Note_on_c, 11, 79, 0
13, 79680, Note_on_c, 11, 81, 76
13, 79727, Note_on_c, 11, 81, 0
13, 79740, Note_on_c, 11, 78, 76
13, 79787, Note_on_c, 11, 78, 0
13, 79800, Note_on_c, 11, 71, 76
13, 79847, Note_on_c, 11, 71, 0
13, 79860, Note_on_c, 11, 73, 76
13, 79907, Note_on_c, 11, 73, 0
13, 79920, Note_on_c, 11, 75, 76
13, 79967, Note_on_c, 11, 75, 0
13, 79980, Note_on_c, 11, 76, 76
13, 80027, Note_on_c, 11, 76, 0
13, 80040, Note_on_c, 11, 75, 76
13, 80087, Note_on_c, 11, 75, 0
13, 80100, Note_on_c, 11, 76, 76
13, 80147, Note_on_c, 11, 76, 0
13, 80160, Note_on_c, 11, 78, 76
13, 80207, Note_on_c, 11, 78, 0
13, 80220, Note_on_c, 11, 76, 76
13, 80267, Note_on_c, 11, 76, 0
13, 80280, Note_on_c, 11, 75, 76
13, 80327, Note_on_c, 11, 75, 0
13, 80340, Note_on_c, 11, 76, 76
13, 80387, Note_on_c, 11, 76, 0
13, 80400, Note_on_c, 11, 78, 76
13, 80447, Note_on_c, 11, 78, 0
13, 80460, Note_on_c, 11, 76, 76
13, 80507, Note_on_c, 11, 76, 0
13, 80520, Note_on_c, 11, 75, 76
13, 80567, Note_on_c, 11, 75, 0
13, 80580, Note_on_c, 11, 73, 76
13, 80627, Note_on_c, 11, 73, 0
13, 80640, Note_on_c, 11, 71, 76
13, 80744, Note_on_c, 11, 71, 0
13, 80760, Note_on_c, 11, 76, 76
13, 80864, Note_on_c, 11, 76, 0
13, 80880, Note_on_c, 11, 76, 76
13, 80984, Note_on_c, 11, 76, 0
13, 81000, Note_on_c, 11, 76, 76
13, 81104, Note_on_c, 11, 76, 0
13, 81120, Note_on_c, 11, 76, 76
13, 81224, Note_on_c, 11, 76, 0
13, 81240, Note_on_c, 11, 76, 76
13, 81344, Note_on_c, 11, 76, 0
13, 81360, Note_on_c, 11, 76, 76
13, 81464, Note_on_c, 11, 76, 0
13, 81480, Note_on_c, 11, 76, 76
13, 81584, Note_on_c, 11, 76, 0
13, 81600, Note_on_c, 11, 76, 76
13, 81704, Note_on_c, 11, 76, 0
13, 81720, Note_on_c, 11, 76, 76
13, 81824, Note_on_c, 11, 76, 0
13, 81840, Note_on_c, 11, 76, 76
13, 81944, Note_on_c, 11, 76, 0
13, 81960, Note_on_c, 11, 71, 76
13, 82064, Note_on_c, 11, 71, 0
13, 82080, Note_on_c, 11, 69, 76
13, 82127, Note_on_c, 11, 69, 0
13, 82140, Note_on_c, 11, 68, 76
13, 82187, Note_on_c, 11, 68, 0
13, 82200, Note_on_c, 11, 69, 76
13, 82247, Note_on_c, 11, 69, 0
13, 82260, Note_on_c, 11, 71, 76
13, 82307, Note_on_c, 11, 71, 0
13, 82320, Note_on_c, 11, 69, 76
13, 82367, Note_on_c, 11, 69, 0
13, 82380, Note_on_c, 11, 68, 76
13, 82427, Note_on_c, 11, 68, 0
13, 82440, Note_on_c, 11, 66, 76
13, 82487, Note_on_c, 11, 66, 0
13, 82500, Note_on_c, 11, 69, 76
13, 82547, Note_on_c, 11, 69, 0
13, 82560, Note_on_c, 11, 68, 76
13, 82607, Note_on_c, 11, 68, 0
13, 82620, Note_on_c, 11, 69, 76
13, 82667, Note_on_c, 11, 69, 0
13, 82680, Note_on_c, 11, 68, 76
13, 82727, Note_on_c, 11, 68, 0
13, 82740, Note_on_c, 11, 66, 76
13, 82787, Note_on_c, 11, 66, 0
13, 82800, Note_on_c, 11, 65, 76
13, 82904, Note_on_c, 11, 65, 0
13, 82920, Note_on_c, 11, 68, 76
13, 83024, Note_on_c, 11, 68, 0
13, 83040, Note_on_c, 11, 69, 76
13, 83087, Note_on_c, 11, 69, 0
13, 83100, Note_on_c, 11, 73, 76
13, 83147, Note_on_c, 11, 73, 0
13, 83160, Note_on_c, 11, 66, 76
13, 83207, Note_on_c, 11, 66, 0
13, 83220, Note_on_c, 11, 68, 76
13, 83267, Note_on_c, 11, 68, 0
13, 83280, Note_on_c, 11, 69, 76
13, 83327, Note_on_c, 11, 69, 0
13, 83340, Note_on_c, 11, 71, 76
13, 83387, Note_on_c, 11, 71, 0
13, 83400, Note_on_c, 11, 69, 76
13, 83447, Note_on_c, 11, 69, 0
13, 83460, Note_on_c, 11, 71, 76
13, 83507, Note_on_c, 11, 71, 0
13, 83520, Note_on_c, 11, 73, 76
13, 83567, Note_on_c, 11, 73, 0
13, 83580, Note_on_c, 11, 76, 76
13, 83627, Note_on_c, 11, 76, 0
13, 83640, Note_on_c, 11, 69, 76
13, 83687, Note_on_c, 11, 69, 0
13, 83700, Note_on_c, 11, 71, 76
13, 83747, Note_on_c, 11, 71, 0
13, 83760, Note_on_c, 11, 73, 76
13, 83807, Note_on_c, 11, 73, 0
13, 83820, Note_on_c, 11, 74, 76
13, 83867, Note_on_c, 11, 74, 0
13, 83880, Note_on_c, 11, 73, 76
13, 83927, Note_on_c, 11, 73, 0
13, 83940, Note_on_c, 11, 74, 76
13, 83987, Note_on_c, 11, 74, 0
13, 84000, Note_on_c, 11, 76, 76
13, 84047, Note_on_c, 11, 76, 0
13, 84060, Note_on_c, 11, 74, 76
13, 84107, Note_on_c, 11, 74, 0
13, 84120, Note_on_c, 11, 73, 76
13, 84167, Note_on_c, 11, 73, 0
13, 84180, Note_on_c, 11, 74, 76
13, 84227, Note_on_c, 11, 74, 0
13, 84240, Note_on_c, 11, 76, 76
13, 84287, Note_on_c, 11, 76, 0
13, 84300, Note_on_c, 11, 74, 76
13, 84347, Note_on_c, 11, 74, 0
13, 84360, Note_on_c, 11, 73, 76
13, 84407, Note_on_c, 11, 73, 0
13, 84420, Note_on_c, 11, 71, 76
13, 84467, Note_on_c, 11, 71, 0
13, 84480, Note_on_c, 11, 69, 76
13, 84584, Note_on_c, 11, 69, 0
13, 84600, Note_on_c, 11, 66, 76
13, 84704, Note_on_c, 11, 66, 0
13, 84720, Note_on_c, 11, 71, 76
13, 85064, Note_on_c, 11, 71, 0
13, 85080, Note_on_c, 11, 76, 76
13, 85184, Note_on_c, 11, 76, 0
13, 85200, Note_on_c, 11, 70, 76
13, 85304, Note_on_c, 11, 70, 0
13, 85320, Note_on_c, 11, 66, 76
13, 85487, Note_on_c, 11, 66, 0
13, 85500, Note_on_c, 11, 67, 76
13, 85547, Note_on_c, 11, 67, 0
13, 85560, Note_on_c, 11, 64, 76
13, 85607, Note_on_c, 11, 64, 0
13, 85620, Note_on_c, 11, 66, 76
13, 85667, Note_on_c, 11, 66, 0
13, 85680, Note_on_c, 11, 67, 76
13, 85784, Note_on_c, 11, 67, 0
13, 85800, Note_on_c, 11, 64, 76
13, 85904, Note_on_c, 11, 64, 0
13, 85920, Note_on_c, 11, 73, 76
13, 85967, Note_on_c, 11, 73, 0
13, 85980, Note_on_c, 11, 78, 76
13, 86027, Note_on_c, 11, 78, 0
13, 86040, Note_on_c, 11, 70, 76
13, 86087, Note_on_c, 11, 70, 0
13, 86100, Note_on_c, 11, 71, 76
13, 86147, Note_on_c, 11, 71, 0
13, 86160, Note_on_c, 11, 73, 76
13, 86207, Note_on_c, 11, 73, 0
13, 86220, Note_on_c, 11, 74, 76
13, 86267, Note_on_c, 11, 74, 0
13, 86280, Note_on_c, 11, 73, 76
13, 86327, Note_on_c, 11, 73, 0
13, 86340, Note_on_c, 11, 74, 76
13, 86387, Note_on_c, 11, 74, 0
13, 86400, Note_on_c, 11, 76, 76
13, 86447, Note_on_c, 11, 76, 0
13, 86460, Note_on_c, 11, 73, 76
13, 86507, Note_on_c, 11, 73, 0
13, 86520, Note_on_c, 11, 66, 76
13, 86567, Note_on_c, 11, 66, 0
13, 86580, Note_on_c, 11, 68, 76
13, 86627, Note_on_c, 11, 68, 0
13, 86640, Note_on_c, 11, 70, 76
13, 86687, Note_on_c, 11, 70, 0
13, 86700, Note_on_c, 11, 71, 76
13, 86747, Note_on_c, 11, 71, 0
13, 86760, Note_on_c, 11, 70, 76
13, 86807, Note_on_c, 11, 70, 0
13, 86820, Note_on_c, 11, 71, 76
13, 86867, Note_on_c, 11, 71, 0
13, 86880, Note_on_c, 11, 73, 76
13, 86927, Note_on_c, 11, 73, 0
13, 86940, Note_on_c, 11, 71, 76
13, 86987, Note_on_c, 11, 71, 0
13, 87000, Note_on_c, 11, 70, 76
13, 87047, Note_on_c, 11, 70, 0
13, 87060, Note_on_c, 11, 71, 76
13, 87107, Note_on_c, 11, 71, 0
13, 87120, Note_on_c, 11, 73, 76
13, 87167, Note_on_c, 11, 73, 0
13, 87180, Note_on_c, 11, 76, 76
13, 87227, Note_on_c, 11, 76, 0
13, 87240, Note_on_c, 11, 74, 76
13, 87287, Note_on_c, 11, 74, 0
13, 87300, Note_on_c, 11, 73, 76
13, 87347, Note_on_c, 11, 73, 0
13, 87360, Note_on_c, 11, 71, 76
13, 87464, Note_on_c, 11, 71, 0
13, 87480, Note_on_c, 11, 66, 76
13, 87584, Note_on_c, 11, 66, 0
13, 87600, Note_on_c, 11, 71, 76
13, 87944, Note_on_c, 11, 71, 0
13, 87960, Note_on_c, 11, 64, 76
13, 88064, Note_on_c, 11, 64, 0
13, 88080, Note_on_c, 11, 61, 76
13, 88184, Note_on_c, 11, 61, 0
13, 88200, Note_on_c, 11, 70, 76
13, 88304, Note_on_c, 11, 70, 0
13, 88320, Note_on_c, 11, 71, 76
13, 88424, Note_on_c, 11, 71, 0
13, 88440, Note_on_c, 11, 71, 76
13, 88544, Note_on_c, 11, 71, 0
13, 88560, Note_on_c, 11, 71, 76
13, 88664, Note_on_c, 11, 71, 0
13, 88680, Note_on_c, 11, 64, 76
13, 88784, Note_on_c, 11, 64, 0
13, 88800, Note_on_c, 11, 61, 76
13, 89039, Note_on_c, 11, 61, 0
13, 89160, Note_on_c, 11, 73, 76
13, 89264, Note_on_c, 11, 73, 0
13, 89280, Note_on_c, 11, 71, 76
13, 89384, Note_on_c, 11, 71, 0
13, 89400, Note_on_c, 11, 70, 76
13, 89504, Note_on_c, 11, 70, 0
13, 89520, Note_on_c, 11, 66, 76
13, 89624, Note_on_c, 11, 66, 0
13, 89640, Note_on_c, 11, 66, 76
13, 89744, Note_on_c, 11, 66, 0
13, 89760, Note_on_c, 11, 62, 76
13, 89864, Note_on_c, 11, 62, 0
13, 89880, Note_on_c, 11, 67, 76
13, 89984, Note_on_c, 11, 67, 0
13, 90000, Note_on_c, 11, 66, 76
13, 90104, Note_on_c, 11, 66, 0
13, 90120, Note_on_c, 11, 66, 76
13, 90224, Note_on_c, 11, 66, 0
13, 90240, Note_on_c, 11, 66, 76
13, 90479, Note_on_c, 11, 66, 0
13, 90600, Note_on_c, 11, 66, 76
13, 90704, Note_on_c, 11, 66, 0
13, 90720, Note_on_c, 11, 66, 76
13, 90824, Note_on_c, 11, 66, 0
13, 90840, Note_on_c, 11, 67, 76
13, 90944, Note_on_c, 11, 67, 0
13, 90960, Note_on_c, 11, 67, 76
13, 91064, Note_on_c, 11, 67, 0
13, 91080, Note_on_c, 11, 66, 76
13, 91184, Note_on_c, 11, 66, 0
13, 91200, Note_on_c, 11, 66, 76
13, 91439, Note_on_c, 11, 66, 0
13, 91560, Note_on_c, 11, 73, 76
13, 91664, Note_on_c, 11, 73, 0
13, 91680, Note_on_c, 11, 73, 76
13, 91784, Note_on_c, 11, 73, 0
13, 91800, Note_on_c, 11, 74, 76
13, 91904, Note_on_c, 11, 74, 0
13, 91920, Note_on_c, 11, 74, 76
13, 92024, Note_on_c, 11, 74, 0
13, 92040, Note_on_c, 11, 73, 76
13, 92144, Note_on_c, 11, 73, 0
13, 92160, Note_on_c, 11, 73, 76
13, 92399, Note_on_c, 11, 73, 0
13, 92520, Note_on_c, 11, 73, 76
13, 92624, Note_on_c, 11, 73, 0
13, 92640, Note_on_c, 11, 69, 76
13, 92744, Note_on_c, 11, 69, 0
13, 92760, Note_on_c, 11, 69, 76
13, 92879, Note_on_c, 11, 69, 0
13, 93000, Note_on_c, 11, 69, 76
13, 93104, Note_on_c, 11, 69, 0
13, 93120, Note_on_c, 11, 63, 76
13, 93224, Note_on_c, 11, 63, 0
13, 93240, Note_on_c, 11, 69, 76
13, 93359, Note_on_c, 11, 69, 0
13, 93480, Note_on_c, 11, 71, 76
13, 93584, Note_on_c, 11, 71, 0
13, 93600, Note_on_c, 11, 71, 76
13, 93704, Note_on_c, 11, 71, 0
13, 93720, Note_on_c, 11, 71, 76
13, 93839, Note_on_c, 11, 71, 0
13, 93960, Note_on_c, 11, 71, 76
13, 94064, Note_on_c, 11, 71, 0
13, 94080, Note_on_c, 11, 71, 76
13, 94184, Note_on_c, 11, 71, 0
13, 94200, Note_on_c, 11, 76, 76
13, 94319, Note_on_c, 11, 76, 0
13, 94440, Note_on_c, 11, 76, 76
13, 94544, Note_on_c, 11, 76, 0
13, 94560, Note_on_c, 11, 71, 76
13, 94664, Note_on_c, 11, 71, 0
13, 94680, Note_on_c, 11, 71, 76
13, 94799, Note_on_c, 11, 71, 0
13, 94920, Note_on_c, 11, 71, 76
13, 95024, Note_on_c, 11, 71, 0
13, 95040, Note_on_c, 11, 73, 76
13, 95144, Note_on_c, 11, 73, 0
13, 95160, Note_on_c, 11, 76, 76
13, 95279, Note_on_c, 11, 76, 0
13, 95400, Note_on_c, 11, 76, 76
13, 95504, Note_on_c, 11, 76, 0
13, 95520, Note_on_c, 11, 73, 76
13, 95624, Note_on_c, 11, 73, 0
13, 95640, Note_on_c, 11, 73, 76
13, 95759, Note_on_c, 11, 73, 0
13, 95880, Note_on_c, 11, 73, 76
13, 95984, Note_on_c, 11, 73, 0
13, 96000, Note_on_c, 11, 74, 76
13, 96104, Note_on_c, 11, 74, 0
13, 96120, Note_on_c, 11, 78, 76
13, 96224, Note_on_c, 11, 78, 0
13, 96240, Note_on_c, 11, 78, 76
13, 96359, Note_on_c, 11, 78, 0
13, 96600, Note_on_c, 11, 76, 76
13, 96704, Note_on_c, 11, 76, 0
13, 96720, Note_on_c, 11, 76, 76
13, 96839, Note_on_c, 11, 76, 0
13, 97080, Note_on_c, 11, 74, 76
13, 97184, Note_on_c, 11, 74, 0
13, 97200, Note_on_c, 11, 74, 76
13, 97319, Note_on_c, 11, 74, 0
13, 97560, Note_on_c, 11, 76, 76
13, 97664, Note_on_c, 11, 76, 0
13, 97680, Note_on_c, 11, 69, 76
13, 97784, Note_on_c, 11, 69, 0
13, 97800, Note_on_c, 11, 78, 76
13, 97904, Note_on_c, 11, 78, 0
13, 97920, Note_on_c, 11, 73, 76
13, 98024, Note_on_c, 11, 73, 0
13, 98040, Note_on_c, 11, 76, 76
13, 98144, Note_on_c, 11, 76, 0
13, 98160, Note_on_c, 11, 69, 76
13, 98264, Note_on_c, 11, 69, 0
13, 98280, Note_on_c, 11, 69, 76
13, 98384, Note_on_c, 11, 69, 0
13, 98400, Note_on_c, 11, 69, 76
13, 98984, Note_on_c, 11, 69, 0
13, 99000, Note_on_c, 11, 78, 76
13, 99104, Note_on_c, 11, 78, 0
13, 99120, Note_on_c, 11, 71, 76
13, 99224, Note_on_c, 11, 71, 0
13, 99240, Note_on_c, 11, 80, 76
13, 99344, Note_on_c, 11, 80, 0
13, 99360, Note_on_c, 11, 81, 76
13, 99599, Note_on_c, 11, 81, 0
13, 99840, Note_on_c, 11, 69, 76
13, 100064, Note_on_c, 11, 69, 0
13, 100080, Note_on_c, 11, 78, 76
13, 100319, Note_on_c, 11, 78, 0
13, 100560, Note_on_c, 11, 75, 76
13, 100799, Note_on_c, 11, 75, 0
13, 101040, Note_on_c, 11, 71, 76
13, 101279, Note_on_c, 11, 71, 0
13, 101400, Note_on_c, 11, 64, 76
13, 101447, Note_on_c, 11, 64, 0
13, 101460, Note_on_c, 11, 66, 76
13, 101507, Note_on_c, 11, 66, 0
13, 101520, Note_on_c, 11, 68, 76
13, 101624, Note_on_c, 11, 68, 0
13, 101640, Note_on_c, 11, 68, 76
13, 101687, Note_on_c, 11, 68, 0
13, 101700, Note_on_c, 11, 69, 76
13, 101747, Note_on_c, 11, 69, 0
13, 101760, Note_on_c, 11, 71, 76
13, 101864, Note_on_c, 11, 71, 0
13, 101880, Note_on_c, 11, 68, 76
13, 101927, Note_on_c, 11, 68, 0
13, 101940, Note_on_c, 11, 69, 76
13, 101987, Note_on_c, 11, 69, 0
13, 102000, Note_on_c, 11, 71, 76
13, 102104, Note_on_c, 11, 71, 0
13, 102120, Note_on_c, 11, 71, 76
13, 102167, Note_on_c, 11, 71, 0
13, 102180, Note_on_c, 11, 73, 76
13, 102227, Note_on_c, 11, 73, 0
13, 102240, Note_on_c, 11, 74, 76
13, 102344, Note_on_c, 11, 74, 0
13, 102360, Note_on_c, 11, 74, 76
13, 102407, Note_on_c, 11, 74, 0
13, 102420, Note_on_c, 11, 73, 76
13, 102467, Note_on_c, 11, 73, 0
13, 102480, Note_on_c, 11, 74, 76
13, 102584, Note_on_c, 11, 74, 0
13, 102600, Note_on_c, 11, 73, 76
13, 102647, Note_on_c, 11, 73, 0
13, 102660, Note_on_c, 11, 71, 76
13, 102707, Note_on_c, 11, 71, 0
13, 102720, Note_on_c, 11, 73, 76
13, 102944, Note_on_c, 11, 73, 0
13, 102960, Note_on_c, 11, 76, 76
13, 103199, Note_on_c, 11, 76, 0
13, 103440, Note_on_c, 11, 73, 76
13, 103679, Note_on_c, 11, 73, 0
13, 103920, Note_on_c, 11, 69, 76
13, 104159, Note_on_c, 11, 69, 0
13, 104280, Note_on_c, 11, 62, 76
13, 104327, Note_on_c, 11, 62, 0
13, 104340, Note_on_c, 11, 64, 76
13, 104387, Note_on_c, 11, 64, 0
13, 104400, Note_on_c, 11, 66, 76
13, 104504, Note_on_c, 11, 66, 0
13, 104520, Note_on_c, 11, 66, 76
13, 104567, Note_on_c, 11, 66, 0
13, 104580, Note_on_c, 11, 67, 76
13, 104627, Note_on_c, 11, 67, 0
13, 104640, Note_on_c, 11, 69, 76
13, 104744, Note_on_c, 11, 69, 0
13, 104760, Note_on_c, 11, 66, 76
13, 104807, Note_on_c, 11, 66, 0
13, 104820, Note_on_c, 11, 67, 76
13, 104867, Note_on_c, 11, 67, 0
13, 104880, Note_on_c, 11, 69, 76
13, 104984, Note_on_c, 11, 69, 0
13, 105000, Note_on_c, 11, 69, 76
13, 105047, Note_on_c, 11, 69, 0
13, 105060, Note_on_c, 11, 71, 76
13, 105107, Note_on_c, 11, 71, 0
13, 105120, Note_on_c, 11, 72, 76
13, 105224, Note_on_c, 11, 72, 0
13, 105240, Note_on_c, 11, 72, 76
13, 105287, Note_on_c, 11, 72, 0
13, 105300, Note_on_c, 11, 71, 76
13, 105347, Note_on_c, 11, 71, 0
13, 105360, Note_on_c, 11, 72, 76
13, 105464, Note_on_c, 11, 72, 0
13, 105480, Note_on_c, 11, 71, 76
13, 105527, Note_on_c, 11, 71, 0
13, 105540, Note_on_c, 11, 69, 76
13, 105587, Note_on_c, 11, 69, 0
13, 105600, Note_on_c, 11, 71, 76
13, 105839, Note_on_c, 11, 71, 0
13, 107640, Note_on_c, 11, 76, 76
13, 107744, Note_on_c, 11, 76, 0
13, 107760, Note_on_c, 11, 69, 76
13, 107864, Note_on_c, 11, 69, 0
13, 107880, Note_on_c, 11, 73, 76
13, 108104, Note_on_c, 11, 73, 0
13, 108120, Note_on_c, 11, 76, 76
13, 108224, Note_on_c, 11, 76, 0
13, 108240, Note_on_c, 11, 67, 76
13, 108344, Note_on_c, 11, 67, 0
13, 108360, Note_on_c, 11, 73, 76
13, 108584, Note_on_c, 11, 73, 0
13, 108600, Note_on_c, 11, 76, 76
13, 108704, Note_on_c, 11, 76, 0
13, 108720, Note_on_c, 11, 69, 76
13, 108824, Note_on_c, 11, 69, 0
13, 108840, Note_on_c, 11, 73, 76
13, 108944, Note_on_c, 11, 73, 0
13, 108960, Note_on_c, 11, 74, 76
13, 109064, Note_on_c, 11, 74, 0
13, 109080, Note_on_c, 11, 62, 76
13, 109127, Note_on_c, 11, 62, 0
13, 109140, Note_on_c, 11, 64, 76
13, 109187, Note_on_c, 11, 64, 0
13, 109200, Note_on_c, 11, 66, 76
13, 109304, Note_on_c, 11, 66, 0
13, 109320, Note_on_c, 11, 66, 76
13, 109367, Note_on_c, 11, 66, 0
13, 109380, Note_on_c, 11, 67, 76
13, 109427, Note_on_c, 11, 67, 0
13, 109440, Note_on_c, 11, 69, 76
13, 109544, Note_on_c, 11, 69, 0
13, 109560, Note_on_c, 11, 66, 76
13, 109607, Note_on_c, 11, 66, 0
13, 109620, Note_on_c, 11, 67, 76
13, 109667, Note_on_c, 11, 67, 0
13, 109680, Note_on_c, 11, 69, 76
13, 109784, Note_on_c, 11, 69, 0
13, 109800, Note_on_c, 11, 69, 76
13, 109847, Note_on_c, 11, 69, 0
13, 109860, Note_on_c, 11, 71, 76
13, 109907, Note_on_c, 11, 71, 0
13, 109920, Note_on_c, 11, 72, 76
13, 110024, Note_on_c, 11, 72, 0
13, 110040, Note_on_c, 11, 72, 76
13, 110087, Note_on_c, 11, 72, 0
13, 110100, Note_on_c, 11, 71, 76
13, 110147, Note_on_c, 11, 71, 0
13, 110160, Note_on_c, 11, 72, 76
13, 110264, Note_on_c, 11, 72, 0
13, 110280, Note_on_c, 11, 74, 76
13, 110327, Note_on_c, 11, 74, 0
13, 110340, Note_on_c, 11, 72, 76
13, 110387, Note_on_c, 11, 72, 0
13, 110400, Note_on_c, 11, 71, 76
13, 110504, Note_on_c, 11, 71, 0
13, 110520, Note_on_c, 11, 67, 76
13, 110567, Note_on_c, 11, 67, 0
13, 110580, Note_on_c, 11, 69, 76
13, 110627, Note_on_c, 11, 69, 0
13, 110640, Note_on_c, 11, 71, 76
13, 110744, Note_on_c, 11, 71, 0
13, 110760, Note_on_c, 11, 71, 76
13, 110807, Note_on_c, 11, 71, 0
13, 110820, Note_on_c, 11, 73, 76
13, 110867, Note_on_c, 11, 73, 0
13, 110880, Note_on_c, 11, 74, 76
13, 110984, Note_on_c, 11, 74, 0
13, 111000, Note_on_c, 11, 74, 76
13, 111047, Note_on_c, 11, 74, 0
13, 111060, Note_on_c, 11, 73, 76
13, 111107, Note_on_c, 11, 73, 0
13, 111120, Note_on_c, 11, 74, 76
13, 111224, Note_on_c, 11, 74, 0
13, 111240, Note_on_c, 11, 76, 76
13, 111287, Note_on_c, 11, 76, 0
13, 111300, Note_on_c, 11, 74, 76
13, 111347, Note_on_c, 11, 74, 0
13, 111360, Note_on_c, 11, 73, 76
13, 111464, Note_on_c, 11, 73, 0
13, 111480, Note_on_c, 11, 76, 76
13, 111584, Note_on_c, 11, 76, 0
13, 111600, Note_on_c, 11, 69, 76
13, 111704, Note_on_c, 11, 69, 0
13, 111720, Note_on_c, 11, 73, 76
13, 111944, Note_on_c, 11, 73, 0
13, 111960, Note_on_c, 11, 76, 76
13, 112064, Note_on_c, 11, 76, 0
13, 112080, Note_on_c, 11, 67, 76
13, 112184, Note_on_c, 11, 67, 0
13, 112200, Note_on_c, 11, 73, 76
13, 112424, Note_on_c, 11, 73, 0
13, 112440, Note_on_c, 11, 76, 76
13, 112544, Note_on_c, 11, 76, 0
13, 112560, Note_on_c, 11, 69, 76
13, 112664, Note_on_c, 11, 69, 0
13, 112680, Note_on_c, 11, 73, 76
13, 112784, Note_on_c, 11, 73, 0
13, 112800, Note_on_c, 11, 74, 76
13, 112847, Note_on_c, 11, 74, 0
13, 112860, Note_on_c, 11, 69, 76
13, 112907, Note_on_c, 11, 69, 0
13, 112920, Note_on_c, 11, 66, 76
13, 112967, Note_on_c, 11, 66, 0
13, 112980, Note_on_c, 11, 67, 76
13, 113027, Note_on_c, 11, 67, 0
13, 113040, Note_on_c, 11, 69, 76
13, 113087, Note_on_c, 11, 69, 0
13, 113100, Note_on_c, 11, 71, 76
13, 113147, Note_on_c, 11, 71, 0
13, 113160, Note_on_c, 11, 69, 76
13, 113207, Note_on_c, 11, 69, 0
13, 113220, Note_on_c, 11, 71, 76
13, 113267, Note_on_c, 11, 71, 0
13, 113280, Note_on_c, 11, 72, 76
13, 113327, Note_on_c, 11, 72, 0
13, 113340, Note_on_c, 11, 69, 76
13, 113387, Note_on_c, 11, 69, 0
13, 113400, Note_on_c, 11, 62, 76
13, 113447, Note_on_c, 11, 62, 0
13, 113460, Note_on_c, 11, 64, 76
13, 113507, Note_on_c, 11, 64, 0
13, 113520, Note_on_c, 11, 66, 76
13, 113567, Note_on_c, 11, 66, 0
13, 113580, Note_on_c, 11, 67, 76
13, 113627, Note_on_c, 11, 67, 0
13, 113640, Note_on_c, 11, 66, 76
13, 113687, Note_on_c, 11, 66, 0
13, 113700, Note_on_c, 11, 67, 76
13, 113747, Note_on_c, 11, 67, 0
13, 113760, Note_on_c, 11, 69, 76
13, 113807, Note_on_c, 11, 69, 0
13, 113820, Note_on_c, 11, 67, 76
13, 113867, Note_on_c, 11, 67, 0
13, 113880, Note_on_c, 11, 66, 76
13, 113927, Note_on_c, 11, 66, 0
13, 113940, Note_on_c, 11, 67, 76
13, 113987, Note_on_c, 11, 67, 0
13, 114000, Note_on_c, 11, 69, 76
13, 114047, Note_on_c, 11, 69, 0
13, 114060, Note_on_c, 11, 67, 76
13, 114107, Note_on_c, 11, 67, 0
13, 114120, Note_on_c, 11, 66, 76
13, 114167, Note_on_c, 11, 66, 0
13, 114180, Note_on_c, 11, 64, 76
13, 114227, Note_on_c, 11, 64, 0
13, 114240, Note_on_c, 11, 62, 76
13, 114344, Note_on_c, 11, 62, 0
13, 114360, Note_on_c, 11, 71, 76
13, 114464, Note_on_c, 11, 71, 0
13, 114480, Note_on_c, 11, 64, 76
13, 114584, Note_on_c, 11, 64, 0
13, 114600, Note_on_c, 11, 68, 76
13, 114824, Note_on_c, 11, 68, 0
13, 114840, Note_on_c, 11, 71, 76
13, 114944, Note_on_c, 11, 71, 0
13, 114960, Note_on_c, 11, 62, 76
13, 115064, Note_on_c, 11, 62, 0
13, 115080, Note_on_c, 11, 68, 76
13, 115304, Note_on_c, 11, 68, 0
13, 115320, Note_on_c, 11, 71, 76
13, 115424, Note_on_c, 11, 71, 0
13, 115440, Note_on_c, 11, 64, 76
13, 115544, Note_on_c, 11, 64, 0
13, 115560, Note_on_c, 11, 68, 76
13, 115664, Note_on_c, 11, 68, 0
13, 115680, Note_on_c, 11, 69, 76
13, 115727, Note_on_c, 11, 69, 0
13, 115740, Note_on_c, 11, 81, 76
13, 115787, Note_on_c, 11, 81, 0
13, 115800, Note_on_c, 11, 73, 76
13, 115847, Note_on_c, 11, 73, 0
13, 115860, Note_on_c, 11, 74, 76
13, 115907, Note_on_c, 11, 74, 0
13, 115920, Note_on_c, 11, 76, 76
13, 115967, Note_on_c, 11, 76, 0
13, 115980, Note_on_c, 11, 78, 76
13, 116027, Note_on_c, 11, 78, 0
13, 116040, Note_on_c, 11, 76, 76
13, 116087, Note_on_c, 11, 76, 0
13, 116100, Note_on_c, 11, 78, 76
13, 116147, Note_on_c, 11, 78, 0
13, 116160, Note_on_c, 11, 79, 76
13, 116207, Note_on_c, 11, 79, 0
13, 116220, Note_on_c, 11, 76, 76
13, 116267, Note_on_c, 11, 76, 0
13, 116280, Note_on_c, 11, 69, 76
13, 116327, Note_on_c, 11, 69, 0
13, 116340, Note_on_c, 11, 71, 76
13, 116387, Note_on_c, 11, 71, 0
13, 116400, Note_on_c, 11, 73, 76
13, 116447, Note_on_c, 11, 73, 0
13, 116460, Note_on_c, 11, 74, 76
13, 116507, Note_on_c, 11, 74, 0
13, 116520, Note_on_c, 11, 73, 76
13, 116567, Note_on_c, 11, 73, 0
13, 116580, Note_on_c, 11, 74, 76
13, 116627, Note_on_c, 11, 74, 0
13, 116640, Note_on_c, 11, 76, 76
13, 116687, Note_on_c, 11, 76, 0
13, 116700, Note_on_c, 11, 74, 76
13, 116747, Note_on_c, 11, 74, 0
13, 116760, Note_on_c, 11, 73, 76
13, 116807, Note_on_c, 11, 73, 0
13, 116820, Note_on_c, 11, 74, 76
13, 116867, Note_on_c, 11, 74, 0
13, 116880, Note_on_c, 11, 76, 76
13, 116927, Note_on_c, 11, 76, 0
13, 116940, Note_on_c, 11, 74, 76
13, 116987, Note_on_c, 11, 74, 0
13, 117000, Note_on_c, 11, 73, 76
13, 117047, Note_on_c, 11, 73, 0
13, 117060, Note_on_c, 11, 71, 76
13, 117107, Note_on_c, 11, 71, 0
13, 117120, Note_on_c, 11, 69, 76
13, 117224, Note_on_c, 11, 69, 0
13, 117240, Note_on_c, 11, 66, 76
13, 117344, Note_on_c, 11, 66, 0
13, 117360, Note_on_c, 11, 71, 76
13, 117704, Note_on_c, 11, 71, 0
13, 117720, Note_on_c, 11, 70, 76
13, 117767, Note_on_c, 11, 70, 0
13, 117780, Note_on_c, 11, 71, 76
13, 117827, Note_on_c, 11, 71, 0
13, 117840, Note_on_c, 11, 73, 76
13, 117887, Note_on_c, 11, 73, 0
13, 117900, Note_on_c, 11, 71, 76
13, 117947, Note_on_c, 11, 71, 0
13, 117960, Note_on_c, 11, 70, 76
13, 118007, Note_on_c, 11, 70, 0
13, 118020, Note_on_c, 11, 68, 76
13, 118067, Note_on_c, 11, 68, 0
13, 118080, Note_on_c, 11, 66, 76
13, 118127, Note_on_c, 11, 66, 0
13, 118140, Note_on_c, 11, 78, 76
13, 118187, Note_on_c, 11, 78, 0
13, 118200, Note_on_c, 11, 71, 76
13, 118247, Note_on_c, 11, 71, 0
13, 118260, Note_on_c, 11, 73, 76
13, 118307, Note_on_c, 11, 73, 0
13, 118320, Note_on_c, 11, 74, 76
13, 118367, Note_on_c, 11, 74, 0
13, 118380, Note_on_c, 11, 76, 76
13, 118427, Note_on_c, 11, 76, 0
13, 118440, Note_on_c, 11, 74, 76
13, 118487, Note_on_c, 11, 74, 0
13, 118500, Note_on_c, 11, 76, 76
13, 118547, Note_on_c, 11, 76, 0
13, 118560, Note_on_c, 11, 78, 76
13, 118607, Note_on_c, 11, 78, 0
13, 118620, Note_on_c, 11, 81, 76
13, 118667, Note_on_c, 11, 81, 0
13, 118680, Note_on_c, 11, 74, 76
13, 118727, Note_on_c, 11, 74, 0
13, 118740, Note_on_c, 11, 76, 76
13, 118787, Note_on_c, 11, 76, 0
13, 118800, Note_on_c, 11, 78, 76
13, 118847, Note_on_c, 11, 78, 0
13, 118860, Note_on_c, 11, 79, 76
13, 118907, Note_on_c, 11, 79, 0
13, 118920, Note_on_c, 11, 78, 76
13, 118967, Note_on_c, 11, 78, 0
13, 118980, Note_on_c, 11, 79, 76
13, 119027, Note_on_c, 11, 79, 0
13, 119040, Note_on_c, 11, 81, 76
13, 119087, Note_on_c, 11, 81, 0
13, 119100, Note_on_c, 11, 79, 76
13, 119147, Note_on_c, 11, 79, 0
13, 119160, Note_on_c, 11, 78, 76
13, 119207, Note_on_c, 11, 78, 0
13, 119220, Note_on_c, 11, 79, 76
13, 119267, Note_on_c, 11, 79, 0
13, 119280, Note_on_c, 11, 81, 76
13, 119327, Note_on_c, 11, 81, 0
13, 119340, Note_on_c, 11, 79, 76
13, 119387, Note_on_c, 11, 79, 0
13, 119400, Note_on_c, 11, 78, 76
13, 119447, Note_on_c, 11, 78, 0
13, 119460, Note_on_c, 11, 76, 76
13, 119507, Note_on_c, 11, 76, 0
13, 119520, Note_on_c, 11, 74, 76
13, 119624, Note_on_c, 11, 74, 0
13, 119640, Note_on_c, 11, 71, 76
13, 119744, Note_on_c, 11, 71, 0
13, 119760, Note_on_c, 11, 76, 76
13, 120104, Note_on_c, 11, 76, 0
13, 120120, Note_on_c, 11, 69, 76
13, 120224, Note_on_c, 11, 69, 0
13, 120240, Note_on_c, 11, 74, 76
13, 120584, Note_on_c, 11, 74, 0
13, 120600, Note_on_c, 11, 73, 76
13, 120704, Note_on_c, 11, 73, 0
13, 120720, Note_on_c, 11, 74, 76
13, 120767, Note_on_c, 11, 74, 0
13, 120780, Note_on_c, 11, 73, 76
13, 120827, Note_on_c, 11, 73, 0
13, 120840, Note_on_c, 11, 71, 76
13, 120887, Note_on_c, 11, 71, 0
13, 120900, Note_on_c, 11, 74, 76
13, 120947, Note_on_c, 11, 74, 0
13, 120960, Note_on_c, 11, 73, 76
13, 121064, Note_on_c, 11, 73, 0
13, 121080, Note_on_c, 11, 76, 76
13, 121184, Note_on_c, 11, 76, 0
13, 121200, Note_on_c, 11, 69, 76
13, 121304, Note_on_c, 11, 69, 0
13, 121320, Note_on_c, 11, 73, 76
13, 121544, Note_on_c, 11, 73, 0
13, 121560, Note_on_c, 11, 76, 76
13, 121664, Note_on_c, 11, 76, 0
13, 121680, Note_on_c, 11, 67, 76
13, 121784, Note_on_c, 11, 67, 0
13, 121800, Note_on_c, 11, 73, 76
13, 122024, Note_on_c, 11, 73, 0
13, 122040, Note_on_c, 11, 76, 76
13, 122144, Note_on_c, 11, 76, 0
13, 122160, Note_on_c, 11, 69, 76
13, 122264, Note_on_c, 11, 69, 0
13, 122280, Note_on_c, 11, 73, 76
13, 122384, Note_on_c, 11, 73, 0
13, 122400, Note_on_c, 11, 74, 76
13, 122504, Note_on_c, 11, 74, 0
13, 122520, Note_on_c, 11, 69, 76
13, 122624, Note_on_c, 11, 69, 0
13, 122640, Note_on_c, 11, 74, 76
13, 122984, Note_on_c, 11, 74, 0
13, 123000, Note_on_c, 11, 67, 76
13, 123104, Note_on_c, 11, 67, 0
13, 123120, Note_on_c, 11, 64, 76
13, 123224, Note_on_c, 11, 64, 0
13, 123240, Note_on_c, 11, 73, 76
13, 123344, Note_on_c, 11, 73, 0
13, 123360, Note_on_c, 11, 74, 76
13, 123464, Note_on_c, 11, 74, 0
13, 123480, Note_on_c, 11, 69, 76
13, 123584, Note_on_c, 11, 69, 0
13, 123600, Note_on_c, 11, 62, 76
13, 123704, Note_on_c, 11, 62, 0
13, 123720, Note_on_c, 11, 67, 76
13, 123824, Note_on_c, 11, 67, 0
13, 123840, Note_on_c, 11, 64, 76
13, 123887, Note_on_c, 11, 64, 0
13, 123900, Note_on_c, 11, 61, 76
13, 123947, Note_on_c, 11, 61, 0
13, 123960, Note_on_c, 11, 62, 76
13, 124007, Note_on_c, 11, 62, 0
13, 124020, Note_on_c, 11, 64, 76
13, 124067, Note_on_c, 11, 64, 0
13, 124080, Note_on_c, 11, 57, 76
13, 124184, Note_on_c, 11, 57, 0
13, 124200, Note_on_c, 11, 73, 76
13, 124304, Note_on_c, 11, 73, 0
13, 124320, Note_on_c, 11, 74, 76
13, 124424, Note_on_c, 11, 74, 0
13, 124440, Note_on_c, 11, 71, 76
13, 124544, Note_on_c, 11, 71, 0
13, 124560, Note_on_c, 11, 69, 76
13, 124664, Note_on_c, 11, 69, 0
13, 124680, Note_on_c, 11, 69, 76
13, 124784, Note_on_c, 11, 69, 0
13, 124800, Note_on_c, 11, 69, 76
13, 124973, Note_on_c, 11, 69, 0
13, 124980, Note_on_c, 11, 62, 76
13, 125033, Note_on_c, 11, 62, 0
13, 125040, Note_on_c, 11, 62, 76
13, 125213, Note_on_c, 11, 62, 0
13, 125220, Note_on_c, 11, 66, 76
13, 125273, Note_on_c, 11, 66, 0
13, 125280, Note_on_c, 11, 66, 76
13, 125453, Note_on_c, 11, 66, 0
13, 125460, Note_on_c, 11, 69, 76
13, 125513, Note_on_c, 11, 69, 0
13, 125520, Note_on_c, 11, 69, 76
13, 125693, Note_on_c, 11, 69, 0
13, 125700, Note_on_c, 11, 66, 76
13, 125753, Note_on_c, 11, 66, 0
13, 125760, Note_on_c, 11, 62, 76
13, 125933, Note_on_c, 11, 62, 0
13, 125940, Note_on_c, 11, 66, 76
13, 125993, Note_on_c, 11, 66, 0
13, 126000, Note_on_c, 11, 66, 76
13, 126173, Note_on_c, 11, 66, 0
13, 126180, Note_on_c, 11, 69, 76
13, 126233, Note_on_c, 11, 69, 0
13, 126240, Note_on_c, 11, 69, 76
13, 126413, Note_on_c, 11, 69, 0
13, 126420, Note_on_c, 11, 72, 76
13, 126473, Note_on_c, 11, 72, 0
13, 126480, Note_on_c, 11, 72, 76
13, 126653, Note_on_c, 11, 72, 0
13, 126660, Note_on_c, 11, 69, 76
13, 126713, Note_on_c, 11, 69, 0
13, 126720, Note_on_c, 11, 66, 76
13, 127067, Note_on_c, 11, 66, 0
13, 127080, Note_on_c, 11, 66, 76
13, 127187, Note_on_c, 11, 66, 0
13, 127200, Note_on_c, 11, 67, 76
13, 127373, Note_on_c, 11, 67, 0
13, 127380, Note_on_c, 11, 69, 76
13, 127433, Note_on_c, 11, 69, 0
13, 127440, Note_on_c, 11, 67, 76
13, 127613, Note_on_c, 11, 67, 0
13, 127620, Note_on_c, 11, 66, 76
13, 127673, Note_on_c, 11, 66, 0
13, 127680, Note_on_c, 11, 67, 76
13, 127853, Note_on_c, 11, 67, 0
13, 127860, Note_on_c, 11, 71, 76
13, 127913, Note_on_c, 11, 71, 0
13, 127920, Note_on_c, 11, 71, 76
13, 128093, Note_on_c, 11, 71, 0
13, 128100, Note_on_c, 11, 67, 76
13, 128153, Note_on_c, 11, 67, 0
13, 128160, Note_on_c, 11, 62, 76
13, 128507, Note_on_c, 11, 62, 0
13, 128520, Note_on_c, 11, 64, 76
13, 128627, Note_on_c, 11, 64, 0
13, 128640, Note_on_c, 11, 57, 76
13, 128813, Note_on_c, 11, 57, 0
13, 128820, Note_on_c, 11, 62, 76
13, 128873, Note_on_c, 11, 62, 0
13, 128880, Note_on_c, 11, 66, 76
13, 129053, Note_on_c, 11, 66, 0
13, 129060, Note_on_c, 11, 67, 76
13, 129113, Note_on_c, 11, 67, 0
13, 129120, Note_on_c, 11, 69, 76
13, 129293, Note_on_c, 11, 69, 0
13, 129300, Note_on_c, 11, 72, 76
13, 129353, Note_on_c, 11, 72, 0
13, 129360, Note_on_c, 11, 72, 76
13, 129533, Note_on_c, 11, 72, 0
13, 129540, Note_on_c, 11, 71, 76
13, 129593, Note_on_c, 11, 71, 0
13, 129600, Note_on_c, 11, 71, 76
13, 129773, Note_on_c, 11, 71, 0
13, 129780, Note_on_c, 11, 66, 76
13, 129833, Note_on_c, 11, 66, 0
13, 129840, Note_on_c, 11, 63, 76
13, 130013, Note_on_c, 11, 63, 0
13, 130020, Note_on_c, 11, 69, 76
13, 130073, Note_on_c, 11, 69, 0
13, 130080, Note_on_c, 11, 59, 76
13, 130253, Note_on_c, 11, 59, 0
13, 130260, Note_on_c, 11, 75, 76
13, 130313, Note_on_c, 11, 75, 0
13, 130320, Note_on_c, 11, 76, 76
13, 130493, Note_on_c, 11, 76, 0
13, 130500, Note_on_c, 11, 78, 76
13, 130553, Note_on_c, 11, 78, 0
13, 130560, Note_on_c, 11, 76, 76
13, 130733, Note_on_c, 11, 76, 0
13, 130740, Note_on_c, 11, 75, 76
13, 130793, Note_on_c, 11, 75, 0
13, 130800, Note_on_c, 11, 76, 76
13, 130973, Note_on_c, 11, 76, 0
13, 130980, Note_on_c, 11, 78, 76
13, 131033, Note_on_c, 11, 78, 0
13, 131040, Note_on_c, 11, 75, 76
13, 131387, Note_on_c, 11, 75, 0
13, 131400, Note_on_c, 11, 76, 76
13, 131507, Note_on_c, 11, 76, 0
13, 131520, Note_on_c, 11, 76, 76
13, 131693, Note_on_c, 11, 76, 0
13, 131700, Note_on_c, 11, 64, 76
13, 131753, Note_on_c, 11, 64, 0
13, 131760, Note_on_c, 11, 64, 76
13, 131933, Note_on_c, 11, 64, 0
13, 131940, Note_on_c, 11, 68, 76
13, 131993, Note_on_c, 11, 68, 0
13, 132000, Note_on_c, 11, 71, 76
13, 132347, Note_on_c, 11, 71, 0
13, 132360, Note_on_c, 11, 71, 76
13, 132467, Note_on_c, 11, 71, 0
13, 132480, Note_on_c, 11, 69, 76
13, 132653, Note_on_c, 11, 69, 0
13, 132660, Note_on_c, 11, 61, 76
13, 132713, Note_on_c, 11, 61, 0
13, 132720, Note_on_c, 11, 64, 76
13, 132893, Note_on_c, 11, 64, 0
13, 132900, Note_on_c, 11, 69, 76
13, 132953, Note_on_c, 11, 69, 0
13, 132960, Note_on_c, 11, 74, 76
13, 133307, Note_on_c, 11, 74, 0
13, 133320, Note_on_c, 11, 69, 76
13, 133427, Note_on_c, 11, 69, 0
13, 133440, Note_on_c, 11, 66, 76
13, 133613, Note_on_c, 11, 66, 0
13, 133620, Note_on_c, 11, 74, 76
13, 133673, Note_on_c, 11, 74, 0
13, 133680, Note_on_c, 11, 74, 76
13, 133853, Note_on_c, 11, 74, 0
13, 133860, Note_on_c, 11, 73, 76
13, 133913, Note_on_c, 11, 73, 0
13, 133920, Note_on_c, 11, 71, 76
13, 134267, Note_on_c, 11, 71, 0
13, 134280, Note_on_c, 11, 71, 76
13, 134387, Note_on_c, 11, 71, 0
13, 134400, Note_on_c, 11, 69, 76
13, 134573, Note_on_c, 11, 69, 0
13, 134580, Note_on_c, 11, 73, 76
13, 134633, Note_on_c, 11, 73, 0
13, 134640, Note_on_c, 11, 73, 76
13, 134813, Note_on_c, 11, 73, 0
13, 134820, Note_on_c, 11, 76, 76
13, 134873, Note_on_c, 11, 76, 0
13, 134880, Note_on_c, 11, 76, 76
13, 135053, Note_on_c, 11, 76, 0
13, 135060, Note_on_c, 11, 74, 76
13, 135113, Note_on_c, 11, 74, 0
13, 135120, Note_on_c, 11, 76, 76
13, 135293, Note_on_c, 11, 76, 0
13, 135300, Note_on_c, 11, 73, 76
13, 135353, Note_on_c, 11, 73, 0
13, 135360, Note_on_c, 11, 74, 76
13, 135533, Note_on_c, 11, 74, 0
13, 135540, Note_on_c, 11, 69, 76
13, 135593, Note_on_c, 11, 69, 0
13, 135600, Note_on_c, 11, 69, 76
13, 135773, Note_on_c, 11, 69, 0
13, 135780, Note_on_c, 11, 66, 76
13, 135833, Note_on_c, 11, 66, 0
13, 135840, Note_on_c, 11, 66, 76
13, 136013, Note_on_c, 11, 66, 0
13, 136020, Note_on_c, 11, 62, 76
13, 136073, Note_on_c, 11, 62, 0
13, 136080, Note_on_c, 11, 62, 76
13, 136493, Note_on_c, 11, 62, 0
13, 136500, Note_on_c, 11, 66, 76
13, 136553, Note_on_c, 11, 66, 0
13, 136560, Note_on_c, 11, 67, 76
13, 136733, Note_on_c, 11, 67, 0
13, 136740, Note_on_c, 11, 69, 76
13, 136793, Note_on_c, 11, 69, 0
13, 136800, Note_on_c, 11, 71, 76
13, 136973, Note_on_c, 11, 71, 0
13, 136980, Note_on_c, 11, 73, 76
13, 137033, Note_on_c, 11, 73, 0
13, 137040, Note_on_c, 11, 74, 76
13, 137213, Note_on_c, 11, 74, 0
13, 137220, Note_on_c, 11, 76, 76
13, 137273, Note_on_c, 11, 76, 0
13, 137280, Note_on_c, 11, 69, 76
13, 137453, Note_on_c, 11, 69, 0
13, 137460, Note_on_c, 11, 64, 76
13, 137513, Note_on_c, 11, 64, 0
13, 137520, Note_on_c, 11, 61, 76
13, 137693, Note_on_c, 11, 61, 0
13, 137700, Note_on_c, 11, 57, 76
13, 137753, Note_on_c, 11, 57, 0
13, 137760, Note_on_c, 11, 69, 76
13, 137933, Note_on_c, 11, 69, 0
13, 137940, Note_on_c, 11, 66, 76
13, 137993, Note_on_c, 11, 66, 0
13, 138000, Note_on_c, 11, 62, 76
13, 138173, Note_on_c, 11, 62, 0
13, 138180, Note_on_c, 11, 69, 76
13, 138233, Note_on_c, 11, 69, 0
13, 138240, Note_on_c, 11, 69, 76
13, 138413, Note_on_c, 11, 69, 0
13, 138420, Note_on_c, 11, 67, 76
13, 138473, Note_on_c, 11, 67, 0
13, 138480, Note_on_c, 11, 69, 76
13, 138653, Note_on_c, 11, 69, 0
13, 138660, Note_on_c, 11, 71, 76
13, 138713, Note_on_c, 11, 71, 0
13, 138720, Note_on_c, 11, 69, 76
13, 138947, Note_on_c, 11, 69, 0
13, 138960, Note_on_c, 11, 69, 76
13, 139187, Note_on_c, 11, 69, 0
13, 139200, Note_on_c, 11, 69, 76
13, 139439, Note_on_c, 11, 69, 0
13, 140760, Note_on_c, 11, 62, 76
13, 140807, Note_on_c, 11, 62, 0
13, 140820, Note_on_c, 11, 64, 76
13, 140867, Note_on_c, 11, 64, 0
13, 140880, Note_on_c, 11, 66, 76
13, 140984, Note_on_c, 11, 66, 0
13, 141000, Note_on_c, 11, 66, 76
13, 141047, Note_on_c, 11, 66, 0
13, 141060, Note_on_c, 11, 67, 76
13, 141107, Note_on_c, 11, 67, 0
13, 141120, Note_on_c, 11, 69, 76
13, 141224, Note_on_c, 11, 69, 0
13, 141240, Note_on_c, 11, 66, 76
13, 141287, Note_on_c, 11, 66, 0
13, 141300, Note_on_c, 11, 67, 76
13, 141347, Note_on_c, 11, 67, 0
13, 141360, Note_on_c, 11, 69, 76
13, 141464, Note_on_c, 11, 69, 0
13, 141480, Note_on_c, 11, 69, 76
13, 141527, Note_on_c, 11, 69, 0
13, 141540, Note_on_c, 11, 71, 76
13, 141587, Note_on_c, 11, 71, 0
13, 141600, Note_on_c, 11, 72, 76
13, 141704, Note_on_c, 11, 72, 0
13, 141720, Note_on_c, 11, 72, 76
13, 141767, Note_on_c, 11, 72, 0
13, 141780, Note_on_c, 11, 71, 76
13, 141827, Note_on_c, 11, 71, 0
13, 141840, Note_on_c, 11, 72, 76
13, 141944, Note_on_c, 11, 72, 0
13, 141960, Note_on_c, 11, 74, 76
13, 142007, Note_on_c, 11, 74, 0
13, 142020, Note_on_c, 11, 72, 76
13, 142067, Note_on_c, 11, 72, 0
13, 142080, Note_on_c, 11, 71, 76
13, 142184, Note_on_c, 11, 71, 0
13, 142200, Note_on_c, 11, 67, 76
13, 142247, Note_on_c, 11, 67, 0
13, 142260, Note_on_c, 11, 69, 76
13, 142307, Note_on_c, 11, 69, 0
13, 142320, Note_on_c, 11, 71, 76
13, 142424, Note_on_c, 11, 71, 0
13, 142440, Note_on_c, 11, 71, 76
13, 142487, Note_on_c, 11, 71, 0
13, 142500, Note_on_c, 11, 73, 76
13, 142547, Note_on_c, 11, 73, 0
13, 142560, Note_on_c, 11, 74, 76
13, 142664, Note_on_c, 11, 74, 0
13, 142680, Note_on_c, 11, 74, 76
13, 142727, Note_on_c, 11, 74, 0
13, 142740, Note_on_c, 11, 73, 76
13, 142787, Note_on_c, 11, 73, 0
13, 142800, Note_on_c, 11, 74, 76
13, 142904, Note_on_c, 11, 74, 0
13, 142920, Note_on_c, 11, 76, 76
13, 142967, Note_on_c, 11, 76, 0
13, 142980, Note_on_c, 11, 74, 76
13, 143027, Note_on_c, 11, 74, 0
13, 143040, Note_on_c, 11, 73, 76
13, 143144, Note_on_c, 11, 73, 0
13, 143160, Note_on_c, 11, 76, 76
13, 143264, Note_on_c, 11, 76, 0
13, 143280, Note_on_c, 11, 69, 76
13, 143384, Note_on_c, 11, 69, 0
13, 143400, Note_on_c, 11, 73, 76
13, 143624, Note_on_c, 11, 73, 0
13, 143640, Note_on_c, 11, 76, 76
13, 143744, Note_on_c, 11, 76, 0
13, 143760, Note_on_c, 11, 67, 76
13, 143864, Note_on_c, 11, 67, 0
13, 143880, Note_on_c, 11, 73, 76
13, 144104, Note_on_c, 11, 73, 0
13, 144120, Note_on_c, 11, 76, 76
13, 144224, Note_on_c, 11, 76, 0
13, 144240, Note_on_c, 11, 69, 76
13, 144344, Note_on_c, 11, 69, 0
13, 144360, Note_on_c, 11, 73, 76
13, 144464, Note_on_c, 11, 73, 0
13, 144480, Note_on_c, 11, 74, 76
13, 144527, Note_on_c, 11, 74, 0
13, 144540, Note_on_c, 11, 69, 76
13, 144587, Note_on_c, 11, 69, 0
13, 144600, Note_on_c, 11, 66, 76
13, 144647, Note_on_c, 11, 66, 0
13, 144660, Note_on_c, 11, 67, 76
13, 144707, Note_on_c, 11, 67, 0
13, 144720, Note_on_c, 11, 69, 76
13, 144767, Note_on_c, 11, 69, 0
13, 144780, Note_on_c, 11, 71, 76
13, 144827, Note_on_c, 11, 71, 0
13, 144840, Note_on_c, 11, 69, 76
13, 144887, Note_on_c, 11, 69, 0
13, 144900, Note_on_c, 11, 71, 76
13, 144947, Note_on_c, 11, 71, 0
13, 144960, Note_on_c, 11, 72, 76
13, 145007, Note_on_c, 11, 72, 0
13, 145020, Note_on_c, 11, 69, 76
13, 145067, Note_on_c, 11, 69, 0
13, 145080, Note_on_c, 11, 62, 76
13, 145127, Note_on_c, 11, 62, 0
13, 145140, Note_on_c, 11, 64, 76
13, 145187, Note_on_c, 11, 64, 0
13, 145200, Note_on_c, 11, 66, 76
13, 145247, Note_on_c, 11, 66, 0
13, 145260, Note_on_c, 11, 67, 76
13, 145307, Note_on_c, 11, 67, 0
13, 145320, Note_on_c, 11, 66, 76
13, 145367, Note_on_c, 11, 66, 0
13, 145380, Note_on_c, 11, 67, 76
13, 145427, Note_on_c, 11, 67, 0
13, 145440, Note_on_c, 11, 69, 76
13, 145487, Note_on_c, 11, 69, 0
13, 145500, Note_on_c, 11, 67, 76
13, 145547, Note_on_c, 11, 67, 0
13, 145560, Note_on_c, 11, 66, 76
13, 145607, Note_on_c, 11, 66, 0
13, 145620, Note_on_c, 11, 67, 76
13, 145667, Note_on_c, 11, 67, 0
13, 145680, Note_on_c, 11, 69, 76
13, 145727, Note_on_c, 11, 69, 0
13, 145740, Note_on_c, 11, 67, 76
13, 145787, Note_on_c, 11, 67, 0
13, 145800, Note_on_c, 11, 66, 76
13, 145847, Note_on_c, 11, 66, 0
13, 145860, Note_on_c, 11, 64, 76
13, 145907, Note_on_c, 11, 64, 0
13, 145920, Note_on_c, 11, 62, 76
13, 146024, Note_on_c, 11, 62, 0
13, 146040, Note_on_c, 11, 71, 76
13, 146144, Note_on_c, 11, 71, 0
13, 146160, Note_on_c, 11, 64, 76
13, 146264, Note_on_c, 11, 64, 0
13, 146280, Note_on_c, 11, 68, 76
13, 146504, Note_on_c, 11, 68, 0
13, 146520, Note_on_c, 11, 71, 76
13, 146624, Note_on_c, 11, 71, 0
13, 146640, Note_on_c, 11, 62, 76
13, 146744, Note_on_c, 11, 62, 0
13, 146760, Note_on_c, 11, 68, 76
13, 146984, Note_on_c, 11, 68, 0
13, 147000, Note_on_c, 11, 71, 76
13, 147104, Note_on_c, 11, 71, 0
13, 147120, Note_on_c, 11, 64, 76
13, 147224, Note_on_c, 11, 64, 0
13, 147240, Note_on_c, 11, 68, 76
13, 147344, Note_on_c, 11, 68, 0
13, 147360, Note_on_c, 11, 69, 76
13, 147407, Note_on_c, 11, 69, 0
13, 147420, Note_on_c, 11, 81, 76
13, 147467, Note_on_c, 11, 81, 0
13, 147480, Note_on_c, 11, 73, 76
13, 147527, Note_on_c, 11, 73, 0
13, 147540, Note_on_c, 11, 74, 76
13, 147587, Note_on_c, 11, 74, 0
13, 147600, Note_on_c, 11, 76, 76
13, 147647, Note_on_c, 11, 76, 0
13, 147660, Note_on_c, 11, 78, 76
13, 147707, Note_on_c, 11, 78, 0
13, 147720, Note_on_c, 11, 76, 76
13, 147767, Note_on_c, 11, 76, 0
13, 147780, Note_on_c, 11, 78, 76
13, 147827, Note_on_c, 11, 78, 0
13, 147840, Note_on_c, 11, 79, 76
13, 147887, Note_on_c, 11, 79, 0
13, 147900, Note_on_c, 11, 76, 76
13, 147947, Note_on_c, 11, 76, 0
13, 147960, Note_on_c, 11, 69, 76
13, 148007, Note_on_c, 11, 69, 0
13, 148020, Note_on_c, 11, 71, 76
13, 148067, Note_on_c, 11, 71, 0
13, 148080, Note_on_c, 11, 73, 76
13, 148127, Note_on_c, 11, 73, 0
13, 148140, Note_on_c, 11, 74, 76
13, 148187, Note_on_c, 11, 74, 0
13, 148200, Note_on_c, 11, 73, 76
13, 148247, Note_on_c, 11, 73, 0
13, 148260, Note_on_c, 11, 74, 76
13, 148307, Note_on_c, 11, 74, 0
13, 148320, Note_on_c, 11, 76, 76
13, 148367, Note_on_c, 11, 76, 0
13, 148380, Note_on_c, 11, 74, 76
13, 148427, Note_on_c, 11, 74, 0
13, 148440, Note_on_c, 11, 73, 76
13, 148487, Note_on_c, 11, 73, 0
13, 148500, Note_on_c, 11, 74, 76
13, 148547, Note_on_c, 11, 74, 0
13, 148560, Note_on_c, 11, 76, 76
13, 148607, Note_on_c, 11, 76, 0
13, 148620, Note_on_c, 11, 74, 76
13, 148667, Note_on_c, 11, 74, 0
13, 148680, Note_on_c, 11, 73, 76
13, 148727, Note_on_c, 11, 73, 0
13, 148740, Note_on_c, 11, 71, 76
13, 148787, Note_on_c, 11, 71, 0
13, 148800, Note_on_c, 11, 69, 76
13, 148904, Note_on_c, 11, 69, 0
13, 148920, Note_on_c, 11, 66, 76
13, 149024, Note_on_c, 11, 66, 0
13, 149040, Note_on_c, 11, 71, 76
13, 149384, Note_on_c, 11, 71, 0
13, 149400, Note_on_c, 11, 70, 76
13, 149447, Note_on_c, 11, 70, 0
13, 149460, Note_on_c, 11, 71, 76
13, 149507, Note_on_c, 11, 71, 0
13, 149520, Note_on_c, 11, 73, 76
13, 149567, Note_on_c, 11, 73, 0
13, 149580, Note_on_c, 11, 71, 76
13, 149627, Note_on_c, 11, 71, 0
13, 149640, Note_on_c, 11, 70, 76
13, 149687, Note_on_c, 11, 70, 0
13, 149700, Note_on_c, 11, 68, 76
13, 149747, Note_on_c, 11, 68, 0
13, 149760, Note_on_c, 11, 66, 76
13, 149807, Note_on_c, 11, 66, 0
13, 149820, Note_on_c, 11, 78, 76
13, 149867, Note_on_c, 11, 78, 0
13, 149880, Note_on_c, 11, 71, 76
13, 149927, Note_on_c, 11, 71, 0
13, 149940, Note_on_c, 11, 73, 76
13, 149987, Note_on_c, 11, 73, 0
13, 150000, Note_on_c, 11, 74, 76
13, 150047, Note_on_c, 11, 74, 0
13, 150060, Note_on_c, 11, 76, 76
13, 150107, Note_on_c, 11, 76, 0
13, 150120, Note_on_c, 11, 74, 76
13, 150167, Note_on_c, 11, 74, 0
13, 150180, Note_on_c, 11, 76, 76
13, 150227, Note_on_c, 11, 76, 0
13, 150240, Note_on_c, 11, 78, 76
13, 150287, Note_on_c, 11, 78, 0
13, 150300, Note_on_c, 11, 81, 76
13, 150347, Note_on_c, 11, 81, 0
13, 150360, Note_on_c, 11, 74, 76
13, 150407, Note_on_c, 11, 74, 0
13, 150420, Note_on_c, 11, 76, 76
13, 150467, Note_on_c, 11, 76, 0
13, 150480, Note_on_c, 11, 78, 76
13, 150527, Note_on_c, 11, 78, 0
13, 150540, Note_on_c, 11, 79, 76
13, 150587, Note_on_c, 11, 79, 0
13, 150600, Note_on_c, 11, 78, 76
13, 150647, Note_on_c, 11, 78, 0
13, 150660, Note_on_c, 11, 79, 76
13, 150707, Note_on_c, 11, 79, 0
13, 150720, Note_on_c, 11, 81, 76
13, 150767, Note_on_c, 11, 81, 0
13, 150780, Note_on_c, 11, 79, 76
13, 150827, Note_on_c, 11, 79, 0
13, 150840, Note_on_c, 11, 78, 76
13, 150887, Note_on_c, 11, 78, 0
13, 150900, Note_on_c, 11, 79, 76
13, 150947, Note_on_c, 11, 79, 0
13, 150960, Note_on_c, 11, 81, 76
13, 151007, Note_on_c, 11, 81, 0
13, 151020, Note_on_c, 11, 79, 76
13, 151067, Note_on_c, 11, 79, 0
13, 151080, Note_on_c, 11, 78, 76
13, 151127, Note_on_c, 11, 78, 0
13, 151140, Note_on_c, 11, 76, 76
13, 151187, Note_on_c, 11, 76, 0
13, 151200, Note_on_c, 11, 74, 76
13, 151304, Note_on_c, 11, 74, 0
13, 151320, Note_on_c, 11, 71, 76
13, 151424, Note_on_c, 11, 71, 0
13, 151440, Note_on_c, 11, 76, 76
13, 151784, Note_on_c, 11, 76, 0
13, 151800, Note_on_c, 11, 69, 76
13, 151904, Note_on_c, 11, 69, 0
13, 151920, Note_on_c, 11, 74, 76
13, 152264, Note_on_c, 11, 74, 0
13, 152280, Note_on_c, 11, 73, 76
13, 152384, Note_on_c, 11, 73, 0
13, 152400, Note_on_c, 11, 74, 76
13, 152447, Note_on_c, 11, 74, 0
13, 152460, Note_on_c, 11, 73, 76
13, 152507, Note_on_c, 11, 73, 0
13, 152520, Note_on_c, 11, 71, 76
13, 152567, Note_on_c, 11, 71, 0
13, 152580, Note_on_c, 11, 74, 76
13, 152627, Note_on_c, 11, 74, 0
13, 152640, Note_on_c, 11, 73, 76
13, 152744, Note_on_c, 11, 73, 0
13, 152760, Note_on_c, 11, 76, 76
13, 152864, Note_on_c, 11, 76, 0
13, 152880, Note_on_c, 11, 69, 76
13, 152984, Note_on_c, 11, 69, 0
13, 153000, Note_on_c, 11, 73, 76
13, 153224, Note_on_c, 11, 73, 0
13, 153240, Note_on_c, 11, 76, 76
13, 153344, Note_on_c, 11, 76, 0
13, 153360, Note_on_c, 11, 67, 76
13, 153464, Note_on_c, 11, 67, 0
13, 153480, Note_on_c, 11, 73, 76
13, 153704, Note_on_c, 11, 73, 0
13, 153720, Note_on_c, 11, 76, 76
13, 153824, Note_on_c, 11, 76, 0
13, 153840, Note_on_c, 11, 69, 76
13, 153944, Note_on_c, 11, 69, 0
13, 153960, Note_on_c, 11, 73, 76
13, 154064, Note_on_c, 11, 73, 0
13, 154080, Note_on_c, 11, 74, 76
13, 154184, Note_on_c, 11, 74, 0
13, 154200, Note_on_c, 11, 69, 76
13, 154304, Note_on_c, 11, 69, 0
13, 154320, Note_on_c, 11, 74, 76
13, 154664, Note_on_c, 11, 74, 0
13, 154680, Note_on_c, 11, 73, 76
13, 154784, Note_on_c, 11, 73, 0
13, 154800, Note_on_c, 11, 76, 76
13, 154904, Note_on_c, 11, 76, 0
13, 154920, Note_on_c, 11, 73, 76
13, 155024, Note_on_c, 11, 73, 0
13, 155040, Note_on_c, 11, 74, 76
13, 155144, Note_on_c, 11, 74, 0
13, 155160, Note_on_c, 11, 69, 76
13, 155264, Note_on_c, 11, 69, 0
13, 155280, Note_on_c, 11, 62, 76
13, 155384, Note_on_c, 11, 62, 0
13, 155400, Note_on_c, 11, 67, 76
13, 155504, Note_on_c, 11, 67, 0
13, 155520, Note_on_c, 11, 64, 76
13, 155567, Note_on_c, 11, 64, 0
13, 155580, Note_on_c, 11, 61, 76
13, 155627, Note_on_c, 11, 61, 0
13, 155640, Note_on_c, 11, 62, 76
13, 155687, Note_on_c, 11, 62, 0
13, 155700, Note_on_c, 11, 64, 76
13, 155747, Note_on_c, 11, 64, 0
13, 155760, Note_on_c, 11, 57, 76
13, 155864, Note_on_c, 11, 57, 0
13, 155880, Note_on_c, 11, 73, 76
13, 155984, Note_on_c, 11, 73, 0
13, 156000, Note_on_c, 11, 74, 76
13, 156104, Note_on_c, 11, 74, 0
13, 156120, Note_on_c, 11, 71, 76
13, 156224, Note_on_c, 11, 71, 0
13, 156240, Note_on_c, 11, 69, 76
13, 156344, Note_on_c, 11, 69, 0
13, 156360, Note_on_c, 11, 69, 76
13, 156464, Note_on_c, 11, 69, 0
13, 156480, Note_on_c, 11, 69, 76
13, 156719, Note_on_c, 11, 69, 0
13, 156840, Note_on_c, 11, 69, 76
13, 156944, Note_on_c, 11, 69, 0
13, 156960, Note_on_c, 11, 69, 76
13, 157064, Note_on_c, 11, 69, 0
13, 157080, Note_on_c, 11, 71, 76
13, 157184, Note_on_c, 11, 71, 0
13, 157200, Note_on_c, 11, 71, 76
13, 157304, Note_on_c, 11, 71, 0
13, 157320, Note_on_c, 11, 69, 76
13, 157424, Note_on_c, 11, 69, 0
13, 157440, Note_on_c, 11, 69, 76
13, 157679, Note_on_c, 11, 69, 0
13, 157800, Note_on_c, 11, 71, 76
13, 157904, Note_on_c, 11, 71, 0
13, 157920, Note_on_c, 11, 73, 76
13, 158024, Note_on_c, 11, 73, 0
13, 158040, Note_on_c, 11, 69, 76
13, 158144, Note_on_c, 11, 69, 0
13, 158160, Note_on_c, 11, 78, 76
13, 158264, Note_on_c, 11, 78, 0
13, 158280, Note_on_c, 11, 76, 76
13, 158384, Note_on_c, 11, 76, 0
13, 158400, Note_on_c, 11, 76, 76
13, 158639, Note_on_c, 11, 76, 0
13, 158760, Note_on_c, 11, 76, 76
13, 158864, Note_on_c, 11, 76, 0
13, 158880, Note_on_c, 11, 76, 76
13, 158984, Note_on_c, 11, 76, 0
13, 159000, Note_on_c, 11, 76, 76
13, 159119, Note_on_c, 11, 76, 0
13, 159240, Note_on_c, 11, 76, 76
13, 159344, Note_on_c, 11, 76, 0
13, 159360, Note_on_c, 11, 73, 76
13, 159464, Note_on_c, 11, 73, 0
13, 159480, Note_on_c, 11, 73, 76
13, 159599, Note_on_c, 11, 73, 0
13, 159720, Note_on_c, 11, 73, 76
13, 159824, Note_on_c, 11, 73, 0
13, 159840, Note_on_c, 11, 73, 76
13, 159944, Note_on_c, 11, 73, 0
13, 159960, Note_on_c, 11, 70, 76
13, 160079, Note_on_c, 11, 70, 0
13, 160200, Note_on_c, 11, 70, 76
13, 160304, Note_on_c, 11, 70, 0
13, 160320, Note_on_c, 11, 71, 76
13, 160424, Note_on_c, 11, 71, 0
13, 160440, Note_on_c, 11, 66, 76
13, 160559, Note_on_c, 11, 66, 0
13, 160680, Note_on_c, 11, 71, 76
13, 160784, Note_on_c, 11, 71, 0
13, 160800, Note_on_c, 11, 72, 76
13, 160904, Note_on_c, 11, 72, 0
13, 160920, Note_on_c, 11, 72, 76
13, 161039, Note_on_c, 11, 72, 0
13, 161160, Note_on_c, 11, 72, 76
13, 161264, Note_on_c, 11, 72, 0
13, 161280, Note_on_c, 11, 66, 76
13, 161384, Note_on_c, 11, 66, 0
13, 161400, Note_on_c, 11, 69, 76
13, 161519, Note_on_c, 11, 69, 0
13, 161640, Note_on_c, 11, 69, 76
13, 161744, Note_on_c, 11, 69, 0
13, 161760, Note_on_c, 11, 63, 76
13, 161864, Note_on_c, 11, 63, 0
13, 161880, Note_on_c, 11, 71, 76
13, 161999, Note_on_c, 11, 71, 0
13, 162120, Note_on_c, 11, 75, 76
13, 162224, Note_on_c, 11, 75, 0
13, 162240, Note_on_c, 11, 76, 76
13, 162479, Note_on_c, 11, 76, 0
13, 164280, Note_on_c, 11, 66, 76
13, 164327, Note_on_c, 11, 66, 0
13, 164340, Note_on_c, 11, 68, 76
13, 164387, Note_on_c, 11, 68, 0
13, 164400, Note_on_c, 11, 70, 76
13, 164504, Note_on_c, 11, 70, 0
13, 164520, Note_on_c, 11, 70, 76
13, 164567, Note_on_c, 11, 70, 0
13, 164580, Note_on_c, 11, 71, 76
13, 164627, Note_on_c, 11, 71, 0
13, 164640, Note_on_c, 11, 73, 76
13, 164744, Note_on_c, 11, 73, 0
13, 164760, Note_on_c, 11, 70, 76
13, 164807, Note_on_c, 11, 70, 0
13, 164820, Note_on_c, 11, 71, 76
13, 164867, Note_on_c, 11, 71, 0
13, 164880, Note_on_c, 11, 73, 76
13, 164984, Note_on_c, 11, 73, 0
13, 165000, Note_on_c, 11, 73, 76
13, 165047, Note_on_c, 11, 73, 0
13, 165060, Note_on_c, 11, 74, 76
13, 165107, Note_on_c, 11, 74, 0
13, 165120, Note_on_c, 11, 76, 76
13, 165224, Note_on_c, 11, 76, 0
13, 165240, Note_on_c, 11, 76, 76
13, 165287, Note_on_c, 11, 76, 0
13, 165300, Note_on_c, 11, 74, 76
13, 165347, Note_on_c, 11, 74, 0
13, 165360, Note_on_c, 11, 76, 76
13, 165464, Note_on_c, 11, 76, 0
13, 165480, Note_on_c, 11, 78, 76
13, 165527, Note_on_c, 11, 78, 0
13, 165540, Note_on_c, 11, 76, 76
13, 165587, Note_on_c, 11, 76, 0
13, 165600, Note_on_c, 11, 75, 76
13, 165824, Note_on_c, 11, 75, 0
13, 165840, Note_on_c, 11, 71, 76
13, 166079, Note_on_c, 11, 71, 0
13, 166320, Note_on_c, 11, 75, 76
13, 166559, Note_on_c, 11, 75, 0
13, 166800, Note_on_c, 11, 78, 76
13, 167039, Note_on_c, 11, 78, 0
13, 167160, Note_on_c, 11, 64, 76
13, 167207, Note_on_c, 11, 64, 0
13, 167220, Note_on_c, 11, 66, 76
13, 167267, Note_on_c, 11, 66, 0
13, 167280, Note_on_c, 11, 68, 76
13, 167384, Note_on_c, 11, 68, 0
13, 167400, Note_on_c, 11, 68, 76
13, 167447, Note_on_c, 11, 68, 0
13, 167460, Note_on_c, 11, 69, 76
13, 167507, Note_on_c, 11, 69, 0
13, 167520, Note_on_c, 11, 71, 76
13, 167624, Note_on_c, 11, 71, 0
13, 167640, Note_on_c, 11, 68, 76
13, 167687, Note_on_c, 11, 68, 0
13, 167700, Note_on_c, 11, 69, 76
13, 167747, Note_on_c, 11, 69, 0
13, 167760, Note_on_c, 11, 71, 76
13, 167864, Note_on_c, 11, 71, 0
13, 167880, Note_on_c, 11, 71, 76
13, 167927, Note_on_c, 11, 71, 0
13, 167940, Note_on_c, 11, 73, 76
13, 167987, Note_on_c, 11, 73, 0
13, 168000, Note_on_c, 11, 74, 76
13, 168104, Note_on_c, 11, 74, 0
13, 168120, Note_on_c, 11, 74, 76
13, 168167, Note_on_c, 11, 74, 0
13, 168180, Note_on_c, 11, 73, 76
13, 168227, Note_on_c, 11, 73, 0
13, 168240, Note_on_c, 11, 74, 76
13, 168344, Note_on_c, 11, 74, 0
13, 168360, Note_on_c, 11, 76, 76
13, 168407, Note_on_c, 11, 76, 0
13, 168420, Note_on_c, 11, 74, 76
13, 168467, Note_on_c, 11, 74, 0
13, 168480, Note_on_c, 11, 73, 76
13, 168704, Note_on_c, 11, 73, 0
13, 168720, Note_on_c, 11, 69, 76
13, 168959, Note_on_c, 11, 69, 0
13, 169200, Note_on_c, 11, 73, 76
13, 169439, Note_on_c, 11, 73, 0
13, 169680, Note_on_c, 11, 76, 76
13, 169904, Note_on_c, 11, 76, 0
13, 169920, Note_on_c, 11, 74, 76
13, 170159, Note_on_c, 11, 74, 0
13, 171960, Note_on_c, 11, 76, 76
13, 172064, Note_on_c, 11, 76, 0
13, 172080, Note_on_c, 11, 69, 76
13, 172184, Note_on_c, 11, 69, 0
13, 172200, Note_on_c, 11, 73, 76
13, 172424, Note_on_c, 11, 73, 0
13, 172440, Note_on_c, 11, 76, 76
13, 172544, Note_on_c, 11, 76, 0
13, 172560, Note_on_c, 11, 67, 76
13, 172664, Note_on_c, 11, 67, 0
13, 172680, Note_on_c, 11, 73, 76
13, 172904, Note_on_c, 11, 73, 0
13, 172920, Note_on_c, 11, 76, 76
13, 173024, Note_on_c, 11, 76, 0
13, 173040, Note_on_c, 11, 69, 76
13, 173144, Note_on_c, 11, 69, 0
13, 173160, Note_on_c, 11, 73, 76
13, 173264, Note_on_c, 11, 73, 0
13, 173280, Note_on_c, 11, 74, 76
13, 173327, Note_on_c, 11, 74, 0
13, 173340, Note_on_c, 11, 73, 76
13, 173387, Note_on_c, 11, 73, 0
13, 173400, Note_on_c, 11, 74, 76
13, 173447, Note_on_c, 11, 74, 0
13, 173460, Note_on_c, 11, 76, 76
13, 173507, Note_on_c, 11, 76, 0
13, 173520, Note_on_c, 11, 78, 76
13, 173567, Note_on_c, 11, 78, 0
13, 173580, Note_on_c, 11, 79, 76
13, 173627, Note_on_c, 11, 79, 0
13, 173640, Note_on_c, 11, 78, 76
13, 173687, Note_on_c, 11, 78, 0
13, 173700, Note_on_c, 11, 79, 76
13, 173747, Note_on_c, 11, 79, 0
13, 173760, Note_on_c, 11, 81, 76
13, 173807, Note_on_c, 11, 81, 0
13, 173820, Note_on_c, 11, 78, 76
13, 173867, Note_on_c, 11, 78, 0
13, 173880, Note_on_c, 11, 71, 76
13, 173927, Note_on_c, 11, 71, 0
13, 173940, Note_on_c, 11, 73, 76
13, 173987, Note_on_c, 11, 73, 0
13, 174000, Note_on_c, 11, 75, 76
13, 174047, Note_on_c, 11, 75, 0
13, 174060, Note_on_c, 11, 76, 76
13, 174107, Note_on_c, 11, 76, 0
13, 174120, Note_on_c, 11, 75, 76
13, 174167, Note_on_c, 11, 75, 0
13, 174180, Note_on_c, 11, 76, 76
13, 174227, Note_on_c, 11, 76, 0
13, 174240, Note_on_c, 11, 78, 76
13, 174287, Note_on_c, 11, 78, 0
13, 174300, Note_on_c, 11, 76, 76
13, 174347, Note_on_c, 11, 76, 0
13, 174360, Note_on_c, 11, 75, 76
13, 174407, Note_on_c, 11, 75, 0
13, 174420, Note_on_c, 11, 76, 76
13, 174467, Note_on_c, 11, 76, 0
13, 174480, Note_on_c, 11, 78, 76
13, 174527, Note_on_c, 11, 78, 0
13, 174540, Note_on_c, 11, 76, 76
13, 174587, Note_on_c, 11, 76, 0
13, 174600, Note_on_c, 11, 75, 76
13, 174647, Note_on_c, 11, 75, 0
13, 174660, Note_on_c, 11, 73, 76
13, 174707, Note_on_c, 11, 73, 0
13, 174720, Note_on_c, 11, 71, 76
13, 174824, Note_on_c, 11, 71, 0
13, 174840, Note_on_c, 11, 76, 76
13, 174944, Note_on_c, 11, 76, 0
13, 174960, Note_on_c, 11, 76, 76
13, 175064, Note_on_c, 11, 76, 0
13, 175080, Note_on_c, 11, 76, 76
13, 175184, Note_on_c, 11, 76, 0
13, 175200, Note_on_c, 11, 76, 76
13, 175304, Note_on_c, 11, 76, 0
13, 175320, Note_on_c, 11, 76, 76
13, 175424, Note_on_c, 11, 76, 0
13, 175440, Note_on_c, 11, 76, 76
13, 175544, Note_on_c, 11, 76, 0
13, 175560, Note_on_c, 11, 76, 76
13, 175664, Note_on_c, 11, 76, 0
13, 175680, Note_on_c, 11, 76, 76
13, 175784, Note_on_c, 11, 76, 0
13, 175800, Note_on_c, 11, 76, 76
13, 175904, Note_on_c, 11, 76, 0
13, 175920, Note_on_c, 11, 76, 76
13, 176024, Note_on_c, 11, 76, 0
13, 176040, Note_on_c, 11, 71, 76
13, 176144, Note_on_c, 11, 71, 0
13, 176160, Note_on_c, 11, 69, 76
13, 176207, Note_on_c, 11, 69, 0
13, 176220, Note_on_c, 11, 68, 76
13, 176267, Note_on_c, 11, 68, 0
13, 176280, Note_on_c, 11, 69, 76
13, 176327, Note_on_c, 11, 69, 0
13, 176340, Note_on_c, 11, 71, 76
13, 176387, Note_on_c, 11, 71, 0
13, 176400, Note_on_c, 11, 69, 76
13, 176447, Note_on_c, 11, 69, 0
13, 176460, Note_on_c, 11, 68, 76
13, 176507, Note_on_c, 11, 68, 0
13, 176520, Note_on_c, 11, 66, 76
13, 176567, Note_on_c, 11, 66, 0
13, 176580, Note_on_c, 11, 69, 76
13, 176627, Note_on_c, 11, 69, 0
13, 176640, Note_on_c, 11, 68, 76
13, 176687, Note_on_c, 11, 68, 0
13, 176700, Note_on_c, 11, 69, 76
13, 176747, Note_on_c, 11, 69, 0
13, 176760, Note_on_c, 11, 68, 76
13, 176807, Note_on_c, 11, 68, 0
13, 176820, Note_on_c, 11, 66, 76
13, 176867, Note_on_c, 11, 66, 0
13, 176880, Note_on_c, 11, 65, 76
13, 176984, Note_on_c, 11, 65, 0
13, 177000, Note_on_c, 11, 68, 76
13, 177104, Note_on_c, 11, 68, 0
13, 177120, Note_on_c, 11, 69, 76
13, 177167, Note_on_c, 11, 69, 0
13, 177180, Note_on_c, 11, 73, 76
13, 177227, Note_on_c, 11, 73, 0
13, 177240, Note_on_c, 11, 66, 76
13, 177287, Note_on_c, 11, 66, 0
13, 177300, Note_on_c, 11, 68, 76
13, 177347, Note_on_c, 11, 68, 0
13, 177360, Note_on_c, 11, 69, 76
13, 177407, Note_on_c, 11, 69, 0
13, 177420, Note_on_c, 11, 71, 76
13, 177467, Note_on_c, 11, 71, 0
13, 177480, Note_on_c, 11, 69, 76
13, 177527, Note_on_c, 11, 69, 0
13, 177540, Note_on_c, 11, 71, 76
13, 177587, Note_on_c, 11, 71, 0
13, 177600, Note_on_c, 11, 73, 76
13, 177647, Note_on_c, 11, 73, 0
13, 177660, Note_on_c, 11, 76, 76
13, 177707, Note_on_c, 11, 76, 0
13, 177720, Note_on_c, 11, 69, 76
13, 177767, Note_on_c, 11, 69, 0
13, 177780, Note_on_c, 11, 71, 76
13, 177827, Note_on_c, 11, 71, 0
13, 177840, Note_on_c, 11, 73, 76
13, 177887, Note_on_c, 11, 73, 0
13, 177900, Note_on_c, 11, 74, 76
13, 177947, Note_on_c, 11, 74, 0
13, 177960, Note_on_c, 11, 73, 76
13, 178007, Note_on_c, 11, 73, 0
13, 178020, Note_on_c, 11, 74, 76
13, 178067, Note_on_c, 11, 74, 0
13, 178080, Note_on_c, 11, 76, 76
13, 178127, Note_on_c, 11, 76, 0
13, 178140, Note_on_c, 11, 74, 76
13, 178187, Note_on_c, 11, 74, 0
13, 178200, Note_on_c, 11, 73, 76
13, 178247, Note_on_c, 11, 73, 0
13, 178260, Note_on_c, 11, 74, 76
13, 178307, Note_on_c, 11, 74, 0
13, 178320, Note_on_c, 11, 76, 76
13, 178367, Note_on_c, 11, 76, 0
13, 178380, Note_on_c, 11, 74, 76
13, 178427, Note_on_c, 11, 74, 0
13, 178440, Note_on_c, 11, 73, 76
13, 178487, Note_on_c, 11, 73, 0
13, 178500, Note_on_c, 11, 71, 76
13, 178547, Note_on_c, 11, 71, 0
13, 178560, Note_on_c, 11, 69, 76
13, 178664, Note_on_c, 11, 69, 0
13, 178680, Note_on_c, 11, 66, 76
13, 178784, Note_on_c, 11, 66, 0
13, 178800, Note_on_c, 11, 71, 76
13, 179144, Note_on_c, 11, 71, 0
13, 179160, Note_on_c, 11, 76, 76
13, 179264, Note_on_c, 11, 76, 0
13, 179280, Note_on_c, 11, 70, 76
13, 179384, Note_on_c, 11, 70, 0
13, 179400, Note_on_c, 11, 66, 76
13, 179567, Note_on_c, 11, 66, 0
13, 179580, Note_on_c, 11, 67, 76
13, 179627, Note_on_c, 11, 67, 0
13, 179640, Note_on_c, 11, 64, 76
13, 179687, Note_on_c, 11, 64, 0
13, 179700, Note_on_c, 11, 66, 76
13, 179747, Note_on_c, 11, 66, 0
13, 179760, Note_on_c, 11, 67, 76
13, 179864, Note_on_c, 11, 67, 0
13, 179880, Note_on_c, 11, 64, 76
13, 179984, Note_on_c, 11, 64, 0
13, 180000, Note_on_c, 11, 73, 76
13, 180047, Note_on_c, 11, 73, 0
13, 180060, Note_on_c, 11, 78, 76
13, 180107, Note_on_c, 11, 78, 0
13, 180120, Note_on_c, 11, 70, 76
13, 180167, Note_on_c, 11, 70, 0
13, 180180, Note_on_c, 11, 71, 76
13, 180227, Note_on_c, 11, 71, 0
13, 180240, Note_on_c, 11, 73, 76
13, 180287, Note_on_c, 11, 73, 0
13, 180300, Note_on_c, 11, 74, 76
13, 180347, Note_on_c, 11, 74, 0
13, 180360, Note_on_c, 11, 73, 76
13, 180407, Note_on_c, 11, 73, 0
13, 180420, Note_on_c, 11, 74, 76
13, 180467, Note_on_c, 11, 74, 0
13, 180480, Note_on_c, 11, 76, 76
13, 180527, Note_on_c, 11, 76, 0
13, 180540, Note_on_c, 11, 73, 76
13, 180587, Note_on_c, 11, 73, 0
13, 180600, Note_on_c, 11, 66, 76
13, 180647, Note_on_c, 11, 66, 0
13, 180660, Note_on_c, 11, 68, 76
13, 180707, Note_on_c, 11, 68, 0
13, 180720, Note_on_c, 11, 70, 76
13, 180767, Note_on_c, 11, 70, 0
13, 180780, Note_on_c, 11, 71, 76
13, 180827, Note_on_c, 11, 71, 0
13, 180840, Note_on_c, 11, 70, 76
13, 180887, Note_on_c, 11, 70, 0
13, 180900, Note_on_c, 11, 71, 76
13, 180947, Note_on_c, 11, 71, 0
13, 180960, Note_on_c, 11, 73, 76
13, 181007, Note_on_c, 11, 73, 0
13, 181020, Note_on_c, 11, 71, 76
13, 181067, Note_on_c, 11, 71, 0
13, 181080, Note_on_c, 11, 70, 76
13, 181127, Note_on_c, 11, 70, 0
13, 181140, Note_on_c, 11, 71, 76
13, 181187, Note_on_c, 11, 71, 0
13, 181200, Note_on_c, 11, 73, 76
13, 181247, Note_on_c, 11, 73, 0
13, 181260, Note_on_c, 11, 76, 76
13, 181307, Note_on_c, 11, 76, 0
13, 181320, Note_on_c, 11, 74, 76
13, 181367, Note_on_c, 11, 74, 0
13, 181380, Note_on_c, 11, 73, 76
13, 181427, Note_on_c, 11, 73, 0
13, 181440, Note_on_c, 11, 71, 76
13, 181544, Note_on_c, 11, 71, 0
13, 181560, Note_on_c, 11, 66, 76
13, 181664, Note_on_c, 11, 66, 0
13, 181680, Note_on_c, 11, 71, 76
13, 182024, Note_on_c, 11, 71, 0
13, 182040, Note_on_c, 11, 64, 76
13, 182144, Note_on_c, 11, 64, 0
13, 182160, Note_on_c, 11, 61, 76
13, 182264, Note_on_c, 11, 61, 0
13, 182280, Note_on_c, 11, 70, 76
13, 182384, Note_on_c, 11, 70, 0
13, 182400, Note_on_c, 11, 71, 76
13, 182504, Note_on_c, 11, 71, 0
13, 182520, Note_on_c, 11, 71, 76
13, 182624, Note_on_c, 11, 71, 0
13, 182640, Note_on_c, 11, 71, 76
13, 182744, Note_on_c, 11, 71, 0
13, 182760, Note_on_c, 11, 64, 76
13, 182864, Note_on_c, 11, 64, 0
13, 182880, Note_on_c, 11, 61, 76
13, 183119, Note_on_c, 11, 61, 0
13, 183240, Note_on_c, 11, 73, 76
13, 183344, Note_on_c, 11, 73, 0
13, 183360, Note_on_c, 11, 71, 76
13, 183464, Note_on_c, 11, 71, 0
13, 183480, Note_on_c, 11, 70, 76
13, 183584, Note_on_c, 11, 70, 0
13, 183600, Note_on_c, 11, 66, 76
13, 183704, Note_on_c, 11, 66, 0
13, 183720, Note_on_c, 11, 66, 76
13, 183824, Note_on_c, 11, 66, 0
13, 183840, Note_on_c, 11, 62, 76
13, 183944, Note_on_c, 11, 62, 0
13, 183960, Note_on_c, 11, 67, 76
13, 184064, Note_on_c, 11, 67, 0
13, 184080, Note_on_c, 11, 66, 76
13, 184184, Note_on_c, 11, 66, 0
13, 184200, Note_on_c, 11, 66, 76
13, 184304, Note_on_c, 11, 66, 0
13, 184320, Note_on_c, 11, 66, 76
13, 184559, Note_on_c, 11, 66, 0
13, 184680, Note_on_c, 11, 66, 76
13, 184784, Note_on_c, 11, 66, 0
13, 184800, Note_on_c, 11, 66, 76
13, 184904, Note_on_c, 11, 66, 0
13, 184920, Note_on_c, 11, 67, 76
13, 185024, Note_on_c, 11, 67, 0
13, 185040, Note_on_c, 11, 67, 76
13, 185144, Note_on_c, 11, 67, 0
13, 185160, Note_on_c, 11, 66, 76
13, 185264, Note_on_c, 11, 66, 0
13, 185280, Note_on_c, 11, 66, 76
13, 185519, Note_on_c, 11, 66, 0
13, 185640, Note_on_c, 11, 73, 76
13, 185744, Note_on_c, 11, 73, 0
13, 185760, Note_on_c, 11, 73, 76
13, 185864, Note_on_c, 11, 73, 0
13, 185880, Note_on_c, 11, 74, 76
13, 185984, Note_on_c, 11, 74, 0
13, 186000, Note_on_c, 11, 74, 76
13, 186104, Note_on_c, 11, 74, 0
13, 186120, Note_on_c, 11, 73, 76
13, 186224, Note_on_c, 11, 73, 0
13, 186240, Note_on_c, 11, 73, 76
13, 186479, Note_on_c, 11, 73, 0
13, 186600, Note_on_c, 11, 73, 76
13, 186704, Note_on_c, 11, 73, 0
13, 186720, Note_on_c, 11, 69, 76
13, 186824, Note_on_c, 11, 69, 0
13, 186840, Note_on_c, 11, 69, 76
13, 186959, Note_on_c, 11, 69, 0
13, 187080, Note_on_c, 11, 69, 76
13, 187184, Note_on_c, 11, 69, 0
13, 187200, Note_on_c, 11, 63, 76
13, 187304, Note_on_c, 11, 63, 0
13, 187320, Note_on_c, 11, 69, 76
13, 187439, Note_on_c, 11, 69, 0
13, 187560, Note_on_c, 11, 71, 76
13, 187664, Note_on_c, 11, 71, 0
13, 187680, Note_on_c, 11, 71, 76
13, 187784, Note_on_c, 11, 71, 0
13, 187800, Note_on_c, 11, 71, 76
13, 187919, Note_on_c, 11, 71, 0
13, 188040, Note_on_c, 11, 71, 76
13, 188144, Note_on_c, 11, 71, 0
13, 188160, Note_on_c, 11, 71, 76
13, 188264, Note_on_c, 11, 71, 0
13, 188280, Note_on_c, 11, 76, 76
13, 188399, Note_on_c, 11, 76, 0
13, 188520, Note_on_c, 11, 76, 76
13, 188624, Note_on_c, 11, 76, 0
13, 188640, Note_on_c, 11, 71, 76
13, 188744, Note_on_c, 11, 71, 0
13, 188760, Note_on_c, 11, 71, 76
13, 188879, Note_on_c, 11, 71, 0
13, 189000, Note_on_c, 11, 71, 76
13, 189104, Note_on_c, 11, 71, 0
13, 189120, Note_on_c, 11, 73, 76
13, 189224, Note_on_c, 11, 73, 0
13, 189240, Note_on_c, 11, 76, 76
13, 189359, Note_on_c, 11, 76, 0
13, 189480, Note_on_c, 11, 76, 76
13, 189584, Note_on_c, 11, 76, 0
13, 189600, Note_on_c, 11, 73, 76
13, 189704, Note_on_c, 11, 73, 0
13, 189720, Note_on_c, 11, 73, 76
13, 189839, Note_on_c, 11, 73, 0
13, 189960, Note_on_c, 11, 73, 76
13, 190064, Note_on_c, 11, 73, 0
13, 190080, Note_on_c, 11, 74, 76
13, 190184, Note_on_c, 11, 74, 0
13, 190200, Note_on_c, 11, 78, 76
13, 190304, Note_on_c, 11, 78, 0
13, 190320, Note_on_c, 11, 78, 76
13, 190439, Note_on_c, 11, 78, 0
13, 190680, Note_on_c, 11, 76, 76
13, 190784, Note_on_c, 11, 76, 0
13, 190800, Note_on_c, 11, 76, 76
13, 190919, Note_on_c, 11, 76, 0
13, 191160, Note_on_c, 11, 74, 76
13, 191264, Note_on_c, 11, 74, 0
13, 191280, Note_on_c, 11, 74, 76
13, 191399, Note_on_c, 11, 74, 0
13, 191640, Note_on_c, 11, 76, 76
13, 191744, Note_on_c, 11, 76, 0
13, 191760, Note_on_c, 11, 69, 76
13, 191864, Note_on_c, 11, 69, 0
13, 191880, Note_on_c, 11, 78, 76
13, 191984, Note_on_c, 11, 78, 0
13, 192000, Note_on_c, 11, 73, 76
13, 192104, Note_on_c, 11, 73, 0
13, 192120, Note_on_c, 11, 76, 76
13, 192224, Note_on_c, 11, 76, 0
13, 192240, Note_on_c, 11, 69, 76
13, 192344, Note_on_c, 11, 69, 0
13, 192360, Note_on_c, 11, 69, 76
13, 192464, Note_on_c, 11, 69, 0
13, 192480, Note_on_c, 11, 69, 76
13, 193064, Note_on_c, 11, 69, 0
13, 193080, Note_on_c, 11, 78, 76
13, 193184, Note_on_c, 11, 78, 0
13, 193200, Note_on_c, 11, 71, 76
13, 193304, Note_on_c, 11, 71, 0
13, 193320, Note_on_c, 11, 80, 76
13, 193424, Note_on_c, 11, 80, 0
13, 193440, Note_on_c, 11, 81, 76
13, 193679, Note_on_c, 11, 81, 0
13, 193920, Note_on_c, 11, 69, 76
13, 194144, Note_on_c, 11, 69, 0
13, 194160, Note_on_c, 11, 78, 76
13, 194399, Note_on_c, 11, 78, 0
13, 194640, Note_on_c, 11, 75, 76
13, 194879, Note_on_c, 11, 75, 0
13, 195120, Note_on_c, 11, 71, 76
13, 195359, Note_on_c, 11, 71, 0
13, 195480, Note_on_c, 11, 64, 76
13, 195527, Note_on_c, 11, 64, 0
13, 195540, Note_on_c, 11, 66, 76
13, 195587, Note_on_c, 11, 66, 0
13, 195600, Note_on_c, 11, 68, 76
13, 195704, Note_on_c, 11, 68, 0
13, 195720, Note_on_c, 11, 68, 76
13, 195767, Note_on_c, 11, 68, 0
13, 195780, Note_on_c, 11, 69, 76
13, 195827, Note_on_c, 11, 69, 0
13, 195840, Note_on_c, 11, 71, 76
13, 195944, Note_on_c, 11, 71, 0
13, 195960, Note_on_c, 11, 68, 76
13, 196007, Note_on_c, 11, 68, 0
13, 196020, Note_on_c, 11, 69, 76
13, 196067, Note_on_c, 11, 69, 0
13, 196080, Note_on_c, 11, 71, 76
13, 196184, Note_on_c, 11, 71, 0
13, 196200, Note_on_c, 11, 71, 76
13, 196247, Note_on_c, 11, 71, 0
13, 196260, Note_on_c, 11, 73, 76
13, 196307, Note_on_c, 11, 73, 0
13, 196320, Note_on_c, 11, 74, 76
13, 196424, Note_on_c, 11, 74, 0
13, 196440, Note_on_c, 11, 74, 76
13, 196487, Note_on_c, 11, 74, 0
13, 196500, Note_on_c, 11, 73, 76
13, 196547, Note_on_c, 11, 73, 0
13, 196560, Note_on_c, 11, 74, 76
13, 196664, Note_on_c, 11, 74, 0
13, 196680, Note_on_c, 11, 73, 76
13, 196727, Note_on_c, 11, 73, 0
13, 196740, Note_on_c, 11, 71, 76
13, 196787, Note_on_c, 11, 71, 0
13, 196800, Note_on_c, 11, 73, 76
13, 197024, Note_on_c, 11, 73, 0
13, 197040, Note_on_c, 11, 76, 76
13, 197279, Note_on_c, 11, 76, 0
13, 197520, Note_on_c, 11, 73, 76
13, 197759, Note_on_c, 11, 73, 0
13, 198000, Note_on_c, 11, 69, 76
13, 198239, Note_on_c, 11, 69, 0
13, 198360, Note_on_c, 11, 62, 76
13, 198407, Note_on_c, 11, 62, 0
13, 198420, Note_on_c, 11, 64, 76
13, 198467, Note_on_c, 11, 64, 0
13, 198480, Note_on_c, 11, 66, 76
13, 198584, Note_on_c, 11, 66, 0
13, 198600, Note_on_c, 11, 66, 76
13, 198647, Note_on_c, 11, 66, 0
13, 198660, Note_on_c, 11, 67, 76
13, 198707, Note_on_c, 11, 67, 0
13, 198720, Note_on_c, 11, 69, 76
13, 198824, Note_on_c, 11, 69, 0
13, 198840, Note_on_c, 11, 66, 76
13, 198887, Note_on_c, 11, 66, 0
13, 198900, Note_on_c, 11, 67, 76
13, 198947, Note_on_c, 11, 67, 0
13, 198960, Note_on_c, 11, 69, 76
13, 199064, Note_on_c, 11, 69, 0
13, 199080, Note_on_c, 11, 69, 76
13, 199127, Note_on_c, 11, 69, 0
13, 199140, Note_on_c, 11, 71, 76
13, 199187, Note_on_c, 11, 71, 0
13, 199200, Note_on_c, 11, 72, 76
13, 199304, Note_on_c, 11, 72, 0
13, 199320, Note_on_c, 11, 72, 76
13, 199367, Note_on_c, 11, 72, 0
13, 199380, Note_on_c, 11, 71, 76
13, 199427, Note_on_c, 11, 71, 0
13, 199440, Note_on_c, 11, 72, 76
13, 199544, Note_on_c, 11, 72, 0
13, 199560, Note_on_c, 11, 71, 76
13, 199607, Note_on_c, 11, 71, 0
13, 199620, Note_on_c, 11, 69, 76
13, 199667, Note_on_c, 11, 69, 0
13, 199680, Note_on_c, 11, 71, 76
13, 199919, Note_on_c, 11, 71, 0
13, 201720, Note_on_c, 11, 76, 76
13, 201824, Note_on_c, 11, 76, 0
13, 201840, Note_on_c, 11, 69, 76
13, 201944, Note_on_c, 11, 69, 0
13, 201960, Note_on_c, 11, 73, 76
13, 202184, Note_on_c, 11, 73, 0
13, 202200, Note_on_c, 11, 76, 76
13, 202304, Note_on_c, 11, 76, 0
13, 202320, Note_on_c, 11, 67, 76
13, 202424, Note_on_c, 11, 67, 0
13, 202440, Note_on_c, 11, 73, 76
13, 202664, Note_on_c, 11, 73, 0
13, 202680, Note_on_c, 11, 76, 76
13, 202784, Note_on_c, 11, 76, 0
13, 202800, Note_on_c, 11, 69, 76
13, 202904, Note_on_c, 11, 69, 0
13, 202920, Note_on_c, 11, 73, 76
13, 203024, Note_on_c, 11, 73, 0
13, 203040, Note_on_c, 11, 74, 76
13, 203144, Note_on_c, 11, 74, 0
13, 203160, Note_on_c, 11, 62, 76
13, 203207, Note_on_c, 11, 62, 0
13, 203220, Note_on_c, 11, 64, 76
13, 203267, Note_on_c, 11, 64, 0
13, 203280, Note_on_c, 11, 66, 76
13, 203384, Note_on_c, 11, 66, 0
13, 203400, Note_on_c, 11, 66, 76
13, 203447, Note_on_c, 11, 66, 0
13, 203460, Note_on_c, 11, 67, 76
13, 203507, Note_on_c, 11, 67, 0
13, 203520, Note_on_c, 11, 69, 76
13, 203624, Note_on_c, 11, 69, 0
13, 203640, Note_on_c, 11, 66, 76
13, 203687, Note_on_c, 11, 66, 0
13, 203700, Note_on_c, 11, 67, 76
13, 203747, Note_on_c, 11, 67, 0
13, 203760, Note_on_c, 11, 69, 76
13, 203864, Note_on_c, 11, 69, 0
13, 203880, Note_on_c, 11, 69, 76
13, 203927, Note_on_c, 11, 69, 0
13, 203940, Note_on_c, 11, 71, 76
13, 203987, Note_on_c, 11, 71, 0
13, 204000, Note_on_c, 11, 72, 76
13, 204104, Note_on_c, 11, 72, 0
13, 204120, Note_on_c, 11, 72, 76
13, 204167, Note_on_c, 11, 72, 0
13, 204180, Note_on_c, 11, 71, 76
13, 204227, Note_on_c, 11, 71, 0
13, 204240, Note_on_c, 11, 72, 76
13, 204344, Note_on_c, 11, 72, 0
13, 204360, Note_on_c, 11, 74, 76
13, 204407, Note_on_c, 11, 74, 0
13, 204420, Note_on_c, 11, 72, 76
13, 204467, Note_on_c, 11, 72, 0
13, 204480, Note_on_c, 11, 71, 76
13, 204584, Note_on_c, 11, 71, 0
13, 204600, Note_on_c, 11, 67, 76
13, 204647, Note_on_c, 11, 67, 0
13, 204660, Note_on_c, 11, 69, 76
13, 204707, Note_on_c, 11, 69, 0
13, 204720, Note_on_c, 11, 71, 76
13, 204824, Note_on_c, 11, 71, 0
13, 204840, Note_on_c, 11, 71, 76
13, 204887, Note_on_c, 11, 71, 0
13, 204900, Note_on_c, 11, 73, 76
13, 204947, Note_on_c, 11, 73, 0
13, 204960, Note_on_c, 11, 74, 76
13, 205064, Note_on_c, 11, 74, 0
13, 205080, Note_on_c, 11, 74, 76
13, 205127, Note_on_c, 11, 74, 0
13, 205140, Note_on_c, 11, 73, 76
13, 205187, Note_on_c, 11, 73, 0
13, 205200, Note_on_c, 11, 74, 76
13, 205304, Note_on_c, 11, 74, 0
13, 205320, Note_on_c, 11, 76, 76
13, 205367, Note_on_c, 11, 76, 0
13, 205380, Note_on_c, 11, 74, 76
13, 205427, Note_on_c, 11, 74, 0
13, 205440, Note_on_c, 11, 73, 76
13, 205544, Note_on_c, 11, 73, 0
13, 205560, Note_on_c, 11, 76, 76
13, 205664, Note_on_c, 11, 76, 0
13, 205680, Note_on_c, 11, 69, 76
13, 205784, Note_on_c, 11, 69, 0
13, 205800, Note_on_c, 11, 73, 76
13, 206024, Note_on_c, 11, 73, 0
13, 206040, Note_on_c, 11, 76, 76
13, 206144, Note_on_c, 11, 76, 0
13, 206160, Note_on_c, 11, 67, 76
13, 206264, Note_on_c, 11, 67, 0
13, 206280, Note_on_c, 11, 73, 76
13, 206504, Note_on_c, 11, 73, 0
13, 206520, Note_on_c, 11, 76, 76
13, 206624, Note_on_c, 11, 76, 0
13, 206640, Note_on_c, 11, 69, 76
13, 206744, Note_on_c, 11, 69, 0
13, 206760, Note_on_c, 11, 73, 76
13, 206864, Note_on_c, 11, 73, 0
13, 206880, Note_on_c, 11, 74, 76
13, 206927, Note_on_c, 11, 74, 0
13, 206940, Note_on_c, 11, 69, 76
13, 206987, Note_on_c, 11, 69, 0
13, 207000, Note_on_c, 11, 66, 76
13, 207047, Note_on_c, 11, 66, 0
13, 207060, Note_on_c, 11, 67, 76
13, 207107, Note_on_c, 11, 67, 0
13, 207120, Note_on_c, 11, 69, 76
13, 207167, Note_on_c, 11, 69, 0
13, 207180, Note_on_c, 11, 71, 76
13, 207227, Note_on_c, 11, 71, 0
13, 207240, Note_on_c, 11, 69, 76
13, 207287, Note_on_c, 11, 69, 0
13, 207300, Note_on_c, 11, 71, 76
13, 207347, Note_on_c, 11, 71, 0
13, 207360, Note_on_c, 11, 72, 76
13, 207407, Note_on_c, 11, 72, 0
13, 207420, Note_on_c, 11, 69, 76
13, 207467, Note_on_c, 11, 69, 0
13, 207480, Note_on_c, 11, 62, 76
13, 207527, Note_on_c, 11, 62, 0
13, 207540, Note_on_c, 11, 64, 76
13, 207587, Note_on_c, 11, 64, 0
13, 207600, Note_on_c, 11, 66, 76
13, 207647, Note_on_c, 11, 66, 0
13, 207660, Note_on_c, 11, 67, 76
13, 207707, Note_on_c, 11, 67, 0
13, 207720, Note_on_c, 11, 66, 76
13, 207767, Note_on_c, 11, 66, 0
13, 207780, Note_on_c, 11, 67, 76
13, 207827, Note_on_c, 11, 67, 0
13, 207840, Note_on_c, 11, 69, 76
13, 207887, Note_on_c, 11, 69, 0
13, 207900, Note_on_c, 11, 67, 76
13, 207947, Note_on_c, 11, 67, 0
13, 207960, Note_on_c, 11, 66, 76
13, 208007, Note_on_c, 11, 66, 0
13, 208020, Note_on_c, 11, 67, 76
13, 208067, Note_on_c, 11, 67, 0
13, 208080, Note_on_c, 11, 69, 76
13, 208127, Note_on_c, 11, 69, 0
13, 208140, Note_on_c, 11, 67, 76
13, 208187, Note_on_c, 11, 67, 0
13, 208200, Note_on_c, 11, 66, 76
13, 208247, Note_on_c, 11, 66, 0
13, 208260, Note_on_c, 11, 64, 76
13, 208307, Note_on_c, 11, 64, 0
13, 208320, Note_on_c, 11, 62, 76
13, 208424, Note_on_c, 11, 62, 0
13, 208440, Note_on_c, 11, 71, 76
13, 208544, Note_on_c, 11, 71, 0
13, 208560, Note_on_c, 11, 64, 76
13, 208664, Note_on_c, 11, 64, 0
13, 208680, Note_on_c, 11, 68, 76
13, 208904, Note_on_c, 11, 68, 0
13, 208920, Note_on_c, 11, 71, 76
13, 209024, Note_on_c, 11, 71, 0
13, 209040, Note_on_c, 11, 62, 76
13, 209144, Note_on_c, 11, 62, 0
13, 209160, Note_on_c, 11, 68, 76
13, 209384, Note_on_c, 11, 68, 0
13, 209400, Note_on_c, 11, 71, 76
13, 209504, Note_on_c, 11, 71, 0
13, 209520, Note_on_c, 11, 64, 76
13, 209624, Note_on_c, 11, 64, 0
13, 209640, Note_on_c, 11, 68, 76
13, 209744, Note_on_c, 11, 68, 0
13, 209760, Note_on_c, 11, 69, 76
13, 209807, Note_on_c, 11, 69, 0
13, 209820, Note_on_c, 11, 81, 76
13, 209867, Note_on_c, 11, 81, 0
13, 209880, Note_on_c, 11, 73, 76
13, 209927, Note_on_c, 11, 73, 0
13, 209940, Note_on_c, 11, 74, 76
13, 209987, Note_on_c, 11, 74, 0
13, 210000, Note_on_c, 11, 76, 76
13, 210047, Note_on_c, 11, 76, 0
13, 210060, Note_on_c, 11, 78, 76
13, 210107, Note_on_c, 11, 78, 0
13, 210120, Note_on_c, 11, 76, 76
13, 210167, Note_on_c, 11, 76, 0
13, 210180, Note_on_c, 11, 78, 76
13, 210227, Note_on_c, 11, 78, 0
13, 210240, Note_on_c, 11, 79, 76
13, 210287, Note_on_c, 11, 79, 0
13, 210300, Note_on_c, 11, 76, 76
13, 210347, Note_on_c, 11, 76, 0
13, 210360, Note_on_c, 11, 69, 76
13, 210407, Note_on_c, 11, 69, 0
13, 210420, Note_on_c, 11, 71, 76
13, 210467, Note_on_c, 11, 71, 0
13, 210480, Note_on_c, 11, 73, 76
13, 210527, Note_on_c, 11, 73, 0
13, 210540, Note_on_c, 11, 74, 76
13, 210587, Note_on_c, 11, 74, 0
13, 210600, Note_on_c, 11, 73, 76
13, 210647, Note_on_c, 11, 73, 0
13, 210660, Note_on_c, 11, 74, 76
13, 210707, Note_on_c, 11, 74, 0
13, 210720, Note_on_c, 11, 76, 76
13, 210767, Note_on_c, 11, 76, 0
13, 210780, Note_on_c, 11, 74, 76
13, 210827, Note_on_c, 11, 74, 0
13, 210840, Note_on_c, 11, 73, 76
13, 210887, Note_on_c, 11, 73, 0
13, 210900, Note_on_c, 11, 74, 76
13, 210947, Note_on_c, 11, 74, 0
13, 210960, Note_on_c, 11, 76, 76
13, 211007, Note_on_c, 11, 76, 0
13, 211020, Note_on_c, 11, 74, 76
13, 211067, Note_on_c, 11, 74, 0
13, 211080, Note_on_c, 11, 73, 76
13, 211127, Note_on_c, 11, 73, 0
13, 211140, Note_on_c, 11, 71, 76
13, 211187, Note_on_c, 11, 71, 0
13, 211200, Note_on_c, 11, 69, 76
13, 211304, Note_on_c, 11, 69, 0
13, 211320, Note_on_c, 11, 66, 76
13, 211424, Note_on_c, 11, 66, 0
13, 211440, Note_on_c, 11, 71, 76
13, 211784, Note_on_c, 11, 71, 0
13, 211800, Note_on_c, 11, 70, 76
13, 211847, Note_on_c, 11, 70, 0
13, 211860, Note_on_c, 11, 71, 76
13, 211907, Note_on_c, 11, 71, 0
13, 211920, Note_on_c, 11, 73, 76
13, 211967, Note_on_c, 11, 73, 0
13, 211980, Note_on_c, 11, 71, 76
13, 212027, Note_on_c, 11, 71, 0
13, 212040, Note_on_c, 11, 70, 76
13, 212087, Note_on_c, 11, 70, 0
13, 212100, Note_on_c, 11, 68, 76
13, 212147, Note_on_c, 11, 68, 0
13, 212160, Note_on_c, 11, 66, 76
13, 212207, Note_on_c, 11, 66, 0
13, 212220, Note_on_c, 11, 78, 76
13, 212267, Note_on_c, 11, 78, 0
13, 212280, Note_on_c, 11, 71, 76
13, 212327, Note_on_c, 11, 71, 0
13, 212340, Note_on_c, 11, 73, 76
13, 212387, Note_on_c, 11, 73, 0
13, 212400, Note_on_c, 11, 74, 76
13, 212447, Note_on_c, 11, 74, 0
13, 212460, Note_on_c, 11, 76, 76
13, 212507, Note_on_c, 11, 76, 0
13, 212520, Note_on_c, 11, 74, 76
13, 212567, Note_on_c, 11, 74, 0
13, 212580, Note_on_c, 11, 76, 76
13, 212627, Note_on_c, 11, 76, 0
13, 212640, Note_on_c, 11, 78, 76
13, 212687, Note_on_c, 11, 78, 0
13, 212700, Note_on_c, 11, 81, 76
13, 212747, Note_on_c, 11, 81, 0
13, 212760, Note_on_c, 11, 74, 76
13, 212807, Note_on_c, 11, 74, 0
13, 212820, Note_on_c, 11, 76, 76
13, 212867, Note_on_c, 11, 76, 0
13, 212880, Note_on_c, 11, 78, 76
13, 212927, Note_on_c, 11, 78, 0
13, 212940, Note_on_c, 11, 79, 76
13, 212987, Note_on_c, 11, 79, 0
13, 213000, Note_on_c, 11, 78, 76
13, 213047, Note_on_c, 11, 78, 0
13, 213060, Note_on_c, 11, 79, 76
13, 213107, Note_on_c, 11, 79, 0
13, 213120, Note_on_c, 11, 81, 76
13, 213167, Note_on_c, 11, 81, 0
13, 213180, Note_on_c, 11, 79, 76
13, 213227, Note_on_c, 11, 79, 0
13, 213240, Note_on_c, 11, 78, 76
13, 213287, Note_on_c, 11, 78, 0
13, 213300, Note_on_c, 11, 79, 76
13, 213347, Note_on_c, 11, 79, 0
13, 213360, Note_on_c, 11, 81, 76
13, 213407, Note_on_c, 11, 81, 0
13, 213420, Note_on_c, 11, 79, 76
13, 213467, Note_on_c, 11, 79, 0
13, 213480, Note_on_c, 11, 78, 76
13, 213527, Note_on_c, 11, 78, 0
13, 213540, Note_on_c, 11, 76, 76
13, 213587, Note_on_c, 11, 76, 0
13, 213600, Note_on_c, 11, 74, 76
13, 213704, Note_on_c, 11, 74, 0
13, 213720, Note_on_c, 11, 71, 76
13, 213824, Note_on_c, 11, 71, 0
13, 213840, Note_on_c, 11, 76, 76
13, 214184, Note_on_c, 11, 76, 0
13, 214200, Note_on_c, 11, 69, 76
13, 214304, Note_on_c, 11, 69, 0
13, 214320, Note_on_c, 11, 74, 76
13, 214664, Note_on_c, 11, 74, 0
13, 214680, Note_on_c, 11, 73, 76
13, 214784, Note_on_c, 11, 73, 0
13, 214800, Note_on_c, 11, 74, 76
13, 214847, Note_on_c, 11, 74, 0
13, 214860, Note_on_c, 11, 73, 76
13, 214907, Note_on_c, 11, 73, 0
13, 214920, Note_on_c, 11, 71, 76
13, 214967, Note_on_c, 11, 71, 0
13, 214980, Note_on_c, 11, 74, 76
13, 215027, Note_on_c, 11, 74, 0
13, 215040, Note_on_c, 11, 73, 76
13, 215144, Note_on_c, 11, 73, 0
13, 215160, Note_on_c, 11, 76, 76
13, 215264, Note_on_c, 11, 76, 0
13, 215280, Note_on_c, 11, 69, 76
13, 215384, Note_on_c, 11, 69, 0
13, 215400, Note_on_c, 11, 73, 76
13, 215624, Note_on_c, 11, 73, 0
13, 215640, Note_on_c, 11, 76, 76
13, 215744, Note_on_c, 11, 76, 0
13, 215760, Note_on_c, 11, 67, 76
13, 215864, Note_on_c, 11, 67, 0
13, 215880, Note_on_c, 11, 73, 76
13, 216104, Note_on_c, 11, 73, 0
13, 216120, Note_on_c, 11, 76, 76
13, 216224, Note_on_c, 11, 76, 0
13, 216240, Note_on_c, 11, 69, 76
13, 216344, Note_on_c, 11, 69, 0
13, 216360, Note_on_c, 11, 73, 76
13, 216464, Note_on_c, 11, 73, 0
13, 216480, Note_on_c, 11, 74, 76
13, 216584, Note_on_c, 11, 74, 0
13, 216600, Note_on_c, 11, 69, 76
13, 216704, Note_on_c, 11, 69, 0
13, 216720, Note_on_c, 11, 74, 76
13, 217064, Note_on_c, 11, 74, 0
13, 217080, Note_on_c, 11, 67, 76
13, 217184, Note_on_c, 11, 67, 0
13, 217200, Note_on_c, 11, 64, 76
13, 217304, Note_on_c, 11, 64, 0
13, 217320, Note_on_c, 11, 73, 76
13, 217424, Note_on_c, 11, 73, 0
13, 217440, Note_on_c, 11, 74, 76
13, 217544, Note_on_c, 11, 74, 0
13, 217560, Note_on_c, 11, 69, 76
13, 217664, Note_on_c, 11, 69, 0
13, 217680, Note_on_c, 11, 62, 76
13, 217784, Note_on_c, 11, 62, 0
13, 217800, Note_on_c, 11, 67, 76
13, 217904, Note_on_c, 11, 67, 0
13, 217920, Note_on_c, 11, 64, 76
13, 217967, Note_on_c, 11, 64, 0
13, 217980, Note_on_c, 11, 61, 76
13, 218027, Note_on_c, 11, 61, 0
13, 218040, Note_on_c, 11, 62, 76
13, 218087, Note_on_c, 11, 62, 0
13, 218100, Note_on_c, 11, 64, 76
13, 218147, Note_on_c, 11, 64, 0
13, 218160, Note_on_c, 11, 57, 76
13, 218264, Note_on_c, 11, 57, 0
13, 218280, Note_on_c, 11, 73, 76
13, 218384, Note_on_c, 11, 73, 0
13, 218400, Note_on_c, 11, 74, 76
13, 218504, Note_on_c, 11, 74, 0
13, 218520, Note_on_c, 11, 71, 76
13, 218624, Note_on_c, 11, 71, 0
13, 218640, Note_on_c, 11, 69, 76
13, 218744, Note_on_c, 11, 69, 0
13, 218760, Note_on_c, 11, 69, 76
13, 218864, Note_on_c, 11, 69, 0
13, 218880, Note_on_c, 11, 69, 76
13, 219053, Note_on_c, 11, 69, 0
13, 219060, Note_on_c, 11, 62, 76
13, 219113, Note_on_c, 11, 62, 0
13, 219120, Note_on_c, 11, 62, 76
13, 219293, Note_on_c, 11, 62, 0
13, 219300, Note_on_c, 11, 66, 76
13, 219353, Note_on_c, 11, 66, 0
13, 219360, Note_on_c, 11, 66, 76
13, 219533, Note_on_c, 11, 66, 0
13, 219540, Note_on_c, 11, 69, 76
13, 219593, Note_on_c, 11, 69, 0
13, 219600, Note_on_c, 11, 69, 76
13, 219773, Note_on_c, 11, 69, 0
13, 219780, Note_on_c, 11, 66, 76
13, 219833, Note_on_c, 11, 66, 0
13, 219840, Note_on_c, 11, 62, 76
13, 220013, Note_on_c, 11, 62, 0
13, 220020, Note_on_c, 11, 66, 76
13, 220073, Note_on_c, 11, 66, 0
13, 220080, Note_on_c, 11, 66, 76
13, 220253, Note_on_c, 11, 66, 0
13, 220260, Note_on_c, 11, 69, 76
13, 220313, Note_on_c, 11, 69, 0
13, 220320, Note_on_c, 11, 69, 76
13, 220493, Note_on_c, 11, 69, 0
13, 220500, Note_on_c, 11, 72, 76
13, 220553, Note_on_c, 11, 72, 0
13, 220560, Note_on_c, 11, 72, 76
13, 220733, Note_on_c, 11, 72, 0
13, 220740, Note_on_c, 11, 69, 76
13, 220793, Note_on_c, 11, 69, 0
13, 220800, Note_on_c, 11, 66, 76
13, 221147, Note_on_c, 11, 66, 0
13, 221160, Note_on_c, 11, 66, 76
13, 221267, Note_on_c, 11, 66, 0
13, 221280, Note_on_c, 11, 67, 76
13, 221453, Note_on_c, 11, 67, 0
13, 221460, Note_on_c, 11, 69, 76
13, 221513, Note_on_c, 11, 69, 0
13, 221520, Note_on_c, 11, 67, 76
13, 221693, Note_on_c, 11, 67, 0
13, 221700, Note_on_c, 11, 66, 76
13, 221753, Note_on_c, 11, 66, 0
13, 221760, Note_on_c, 11, 67, 76
13, 221933, Note_on_c, 11, 67, 0
13, 221940, Note_on_c, 11, 71, 76
13, 221993, Note_on_c, 11, 71, 0
13, 222000, Note_on_c, 11, 71, 76
13, 222173, Note_on_c, 11, 71, 0
13, 222180, Note_on_c, 11, 67, 76
13, 222233, Note_on_c, 11, 67, 0
13, 222240, Note_on_c, 11, 62, 76
13, 222587, Note_on_c, 11, 62, 0
13, 222600, Note_on_c, 11, 64, 76
13, 222707, Note_on_c, 11, 64, 0
13, 222720, Note_on_c, 11, 57, 76
13, 222893, Note_on_c, 11, 57, 0
13, 222900, Note_on_c, 11, 62, 76
13, 222953, Note_on_c, 11, 62, 0
13, 222960, Note_on_c, 11, 66, 76
13, 223133, Note_on_c, 11, 66, 0
13, 223140, Note_on_c, 11, 67, 76
13, 223193, Note_on_c, 11, 67, 0
13, 223200, Note_on_c, 11, 69, 76
13, 223373, Note_on_c, 11, 69, 0
13, 223380, Note_on_c, 11, 72, 76
13, 223433, Note_on_c, 11, 72, 0
13, 223440, Note_on_c, 11, 72, 76
13, 223613, Note_on_c, 11, 72, 0
13, 223620, Note_on_c, 11, 71, 76
13, 223673, Note_on_c, 11, 71, 0
13, 223680, Note_on_c, 11, 71, 76
13, 223853, Note_on_c, 11, 71, 0
13, 223860, Note_on_c, 11, 66, 76
13, 223913, Note_on_c, 11, 66, 0
13, 223920, Note_on_c, 11, 63, 76
13, 224093, Note_on_c, 11, 63, 0
13, 224100, Note_on_c, 11, 69, 76
13, 224153, Note_on_c, 11, 69, 0
13, 224160, Note_on_c, 11, 59, 76
13, 224333, Note_on_c, 11, 59, 0
13, 224340, Note_on_c, 11, 75, 76
13, 224393, Note_on_c, 11, 75, 0
13, 224400, Note_on_c, 11, 76, 76
13, 224573, Note_on_c, 11, 76, 0
13, 224580, Note_on_c, 11, 78, 76
13, 224633, Note_on_c, 11, 78, 0
13, 224640, Note_on_c, 11, 76, 76
13, 224813, Note_on_c, 11, 76, 0
13, 224820, Note_on_c, 11, 75, 76
13, 224873, Note_on_c, 11, 75, 0
13, 224880, Note_on_c, 11, 76, 76
13, 225053, Note_on_c, 11, 76, 0
13, 225060, Note_on_c, 11, 78, 76
13, 225113, Note_on_c, 11, 78, 0
13, 225120, Note_on_c, 11, 75, 76
13, 225467, Note_on_c, 11, 75, 0
13, 225480, Note_on_c, 11, 76, 76
13, 225587, Note_on_c, 11, 76, 0
13, 225600, Note_on_c, 11, 76, 76
13, 225773, Note_on_c, 11, 76, 0
13, 225780, Note_on_c, 11, 64, 76
13, 225833, Note_on_c, 11, 64, 0
13, 225840, Note_on_c, 11, 64, 76
13, 226013, Note_on_c, 11, 64, 0
13, 226020, Note_on_c, 11, 68, 76
13, 226073, Note_on_c, 11, 68, 0
13, 226080, Note_on_c, 11, 71, 76
13, 226427, Note_on_c, 11, 71, 0
13, 226440, Note_on_c, 11, 71, 76
13, 226547, Note_on_c, 11, 71, 0
13, 226560, Note_on_c, 11, 69, 76
13, 226733, Note_on_c, 11, 69, 0
13, 226740, Note_on_c, 11, 61, 76
13, 226793, Note_on_c, 11, 61, 0
13, 226800, Note_on_c, 11, 64, 76
13, 226973, Note_on_c, 11, 64, 0
13, 226980, Note_on_c, 11, 69, 76
13, 227033, Note_on_c, 11, 69, 0
13, 227040, Note_on_c, 11, 74, 76
13, 227387, Note_on_c, 11, 74, 0
13, 227400, Note_on_c, 11, 69, 76
13, 227507, Note_on_c, 11, 69, 0
13, 227520, Note_on_c, 11, 66, 76
13, 227693, Note_on_c, 11, 66, 0
13, 227700, Note_on_c, 11, 74, 76
13, 227753, Note_on_c, 11, 74, 0
13, 227760, Note_on_c, 11, 74, 76
13, 227933, Note_on_c, 11, 74, 0
13, 227940, Note_on_c, 11, 73, 76
13, 227993, Note_on_c, 11, 73, 0
13, 228000, Note_on_c, 11, 71, 76
13, 228347, Note_on_c, 11, 71, 0
13, 228360, Note_on_c, 11, 71, 76
13, 228467, Note_on_c, 11, 71, 0
13, 228480, Note_on_c, 11, 69, 76
13, 228653, Note_on_c, 11, 69, 0
13, 228660, Note_on_c, 11, 73, 76
13, 228713, Note_on_c, 11, 73, 0
13, 228720, Note_on_c, 11, 73, 76
13, 228893, Note_on_c, 11, 73, 0
13, 228900, Note_on_c, 11, 76, 76
13, 228953, Note_on_c, 11, 76, 0
13, 228960, Note_on_c, 11, 76, 76
13, 229133, Note_on_c, 11, 76, 0
13, 229140, Note_on_c, 11, 74, 76
13, 229193, Note_on_c, 11, 74, 0
13, 229200, Note_on_c, 11, 76, 76
13, 229373, Note_on_c, 11, 76, 0
13, 229380, Note_on_c, 11, 73, 76
13, 229433, Note_on_c, 11, 73, 0
13, 229440, Note_on_c, 11, 74, 76
13, 229613, Note_on_c, 11, 74, 0
13, 229620, Note_on_c, 11, 69, 76
13, 229673, Note_on_c, 11, 69, 0
13, 229680, Note_on_c, 11, 69, 76
13, 229853, Note_on_c, 11, 69, 0
13, 229860, Note_on_c, 11, 66, 76
13, 229913, Note_on_c, 11, 66, 0
13, 229920, Note_on_c, 11, 66, 76
13, 230093, Note_on_c, 11, 66, 0
13, 230100, Note_on_c, 11, 62, 76
13, 230153, Note_on_c, 11, 62, 0
13, 230160, Note_on_c, 11, 62, 76
13, 230573, Note_on_c, 11, 62, 0
13, 230580, Note_on_c, 11, 66, 76
13, 230633, Note_on_c, 11, 66, 0
13, 230640, Note_on_c, 11, 67, 76
13, 230813, Note_on_c, 11, 67, 0
13, 230820, Note_on_c, 11, 69, 76
13, 230873, Note_on_c, 11, 69, 0
13, 230880, Note_on_c, 11, 71, 76
13, 231053, Note_on_c, 11, 71, 0
13, 231060, Note_on_c, 11, 73, 76
13, 231113, Note_on_c, 11, 73, 0
13, 231120, Note_on_c, 11, 74, 76
13, 231293, Note_on_c, 11, 74, 0
13, 231300, Note_on_c, 11, 76, 76
13, 231353, Note_on_c, 11, 76, 0
13, 231360, Note_on_c, 11, 69, 76
13, 231533, Note_on_c, 11, 69, 0
13, 231540, Note_on_c, 11, 64, 76
13, 231593, Note_on_c, 11, 64, 0
13, 231600, Note_on_c, 11, 61, 76
13, 231773, Note_on_c, 11, 61, 0
13, 231780, Note_on_c, 11, 57, 76
13, 231833, Note_on_c, 11, 57, 0
13, 231840, Note_on_c, 11, 69, 76
13, 232013, Note_on_c, 11, 69, 0
13, 232020, Note_on_c, 11, 66, 76
13, 232073, Note_on_c, 11, 66, 0
13, 232080, Note_on_c, 11, 62, 76
13, 232253, Note_on_c, 11, 62, 0
13, 232260, Note_on_c, 11, 69, 76
13, 232313, Note_on_c, 11, 69, 0
13, 232320, Note_on_c, 11, 69, 76
13, 232493, Note_on_c, 11, 69, 0
13, 232500, Note_on_c, 11, 67, 76
13, 232553, Note_on_c, 11, 67, 0
13, 232560, Note_on_c, 11, 69, 76
13, 232733, Note_on_c, 11, 69, 0
13, 232740, Note_on_c, 11, 71, 76
13, 232793, Note_on_c, 11, 71, 0
13, 232800, Note_on_c, 11, 69, 76
13, 233027, Note_on_c, 11, 69, 0
13, 233040, Note_on_c, 11, 69, 76
13, 233267, Note_on_c, 11, 69, 0
13, 233280, Note_on_c, 11, 69, 76
13, 234239, Note_on_c, 11, 69, 0
13, 234239, End_track
14, 0, Start_track
14, 0, Title_t, "Viola"
14, 0, MIDI_port, 0
14, 0, Program_c, 12, 48
14, 0, Control_c, 12, 10, 70
14, 0, Control_c, 12, 11, 127
14, 0, Control_c, 12, 7, 96
14, 420, Note_on_c, 12, 69, 76
14, 473, Note_on_c, 12, 69, 0
14, 480, Note_on_c, 12, 69, 76
14, 653, Note_on_c, 12, 69, 0
14, 660, Note_on_c, 12, 66, 76
14, 713, Note_on_c, 12, 66, 0
14, 720, Note_on_c, 12, 66, 76
14, 893, Note_on_c, 12, 66, 0
14, 900, Note_on_c, 12, 62, 76
14, 953, Note_on_c, 12, 62, 0
14, 960, Note_on_c, 12, 62, 76
14, 1133, Note_on_c, 12, 62, 0
14, 1140, Note_on_c, 12, 71, 76
14, 1193, Note_on_c, 12, 71, 0
14, 1200, Note_on_c, 12, 71, 76
14, 1373, Note_on_c, 12, 71, 0
14, 1380, Note_on_c, 12, 67, 76
14, 1433, Note_on_c, 12, 67, 0
14, 1440, Note_on_c, 12, 67, 76
14, 1613, Note_on_c, 12, 67, 0
14, 1620, Note_on_c, 12, 67, 76
14, 1673, Note_on_c, 12, 67, 0
14, 1680, Note_on_c, 12, 67, 76
14, 1853, Note_on_c, 12, 67, 0
14, 1860, Note_on_c, 12, 64, 76
14, 1913, Note_on_c, 12, 64, 0
14, 1920, Note_on_c, 12, 67, 76
14, 2093, Note_on_c, 12, 67, 0
14, 2100, Note_on_c, 12, 61, 76
14, 2153, Note_on_c, 12, 61, 0
14, 2160, Note_on_c, 12, 61, 76
14, 2333, Note_on_c, 12, 61, 0
14, 2340, Note_on_c, 12, 64, 76
14, 2393, Note_on_c, 12, 64, 0
14, 2400, Note_on_c, 12, 57, 76
14, 2573, Note_on_c, 12, 57, 0
14, 2580, Note_on_c, 12, 69, 76
14, 2633, Note_on_c, 12, 69, 0
14, 2640, Note_on_c, 12, 69, 76
14, 2813, Note_on_c, 12, 69, 0
14, 2820, Note_on_c, 12, 69, 76
14, 2873, Note_on_c, 12, 69, 0
14, 2880, Note_on_c, 12, 69, 76
14, 3533, Note_on_c, 12, 69, 0
14, 3540, Note_on_c, 12, 62, 76
14, 3593, Note_on_c, 12, 62, 0
14, 3600, Note_on_c, 12, 66, 76
14, 3773, Note_on_c, 12, 66, 0
14, 3780, Note_on_c, 12, 67, 76
14, 3833, Note_on_c, 12, 67, 0
14, 3840, Note_on_c, 12, 69, 76
14, 4013, Note_on_c, 12, 69, 0
14, 4020, Note_on_c, 12, 74, 76
14, 4073, Note_on_c, 12, 74, 0
14, 4080, Note_on_c, 12, 74, 76
14, 4253, Note_on_c, 12, 74, 0
14, 4260, Note_on_c, 12, 69, 76
14, 4313, Note_on_c, 12, 69, 0
14, 4320, Note_on_c, 12, 66, 76
14, 4493, Note_on_c, 12, 66, 0
14, 4500, Note_on_c, 12, 62, 76
14, 4553, Note_on_c, 12, 62, 0
14, 4560, Note_on_c, 12, 62, 76
14, 4733, Note_on_c, 12, 62, 0
14, 4740, Note_on_c, 12, 59, 76
14, 4793, Note_on_c, 12, 59, 0
14, 4800, Note_on_c, 12, 59, 76
14, 4973, Note_on_c, 12, 59, 0
14, 4980, Note_on_c, 12, 56, 76
14, 5033, Note_on_c, 12, 56, 0
14, 5040, Note_on_c, 12, 56, 76
14, 5213, Note_on_c, 12, 56, 0
14, 5220, Note_on_c, 12, 59, 76
14, 5273, Note_on_c, 12, 59, 0
14, 5280, Note_on_c, 12, 64, 76
14, 5507, Note_on_c, 12, 64, 0
14, 5520, Note_on_c, 12, 66, 76
14, 5747, Note_on_c, 12, 66, 0
14, 5760, Note_on_c, 12, 66, 76
14, 5933, Note_on_c, 12, 66, 0
14, 5940, Note_on_c, 12, 64, 76
14, 5993, Note_on_c, 12, 64, 0
14, 6000, Note_on_c, 12, 62, 76
14, 6173, Note_on_c, 12, 62, 0
14, 6180, Note_on_c, 12, 61, 76
14, 6233, Note_on_c, 12, 61, 0
14, 6240, Note_on_c, 12, 59, 76
14, 6467, Note_on_c, 12, 59, 0
14, 6480, Note_on_c, 12, 64, 76
14, 6707, Note_on_c, 12, 64, 0
14, 6720, Note_on_c, 12, 64, 76
14, 6893, Note_on_c, 12, 64, 0
14, 6900, Note_on_c, 12, 61, 76
14, 6953, Note_on_c, 12, 61, 0
14, 6960, Note_on_c, 12, 64, 76
14, 7133, Note_on_c, 12, 64, 0
14, 7140, Note_on_c, 12, 67, 76
14, 7193, Note_on_c, 12, 67, 0
14, 7200, Note_on_c, 12, 66, 76
14, 7373, Note_on_c, 12, 66, 0
14, 7380, Note_on_c, 12, 63, 76
14, 7433, Note_on_c, 12, 63, 0
14, 7440, Note_on_c, 12, 64, 76
14, 7613, Note_on_c, 12, 64, 0
14, 7620, Note_on_c, 12, 67, 76
14, 7673, Note_on_c, 12, 67, 0
14, 7680, Note_on_c, 12, 66, 76
14, 7907, Note_on_c, 12, 66, 0
14, 7920, Note_on_c, 12, 71, 76
14, 8333, Note_on_c, 12, 71, 0
14, 8340, Note_on_c, 12, 64, 76
14, 8393, Note_on_c, 12, 64, 0
14, 8400, Note_on_c, 12, 64, 76
14, 8573, Note_on_c, 12, 64, 0
14, 8580, Note_on_c, 12, 63, 76
14, 8633, Note_on_c, 12, 63, 0
14, 8640, Note_on_c, 12, 64, 76
14, 8813, Note_on_c, 12, 64, 0
14, 8820, Note_on_c, 12, 71, 76
14, 8873, Note_on_c, 12, 71, 0
14, 8880, Note_on_c, 12, 71, 76
14, 9053, Note_on_c, 12, 71, 0
14, 9060, Note_on_c, 12, 67, 76
14, 9113, Note_on_c, 12, 67, 0
14, 9120, Note_on_c, 12, 64, 76
14, 9467, Note_on_c, 12, 64, 0
14, 9480, Note_on_c, 12, 62, 76
14, 9587, Note_on_c, 12, 62, 0
14, 9600, Note_on_c, 12, 61, 76
14, 9947, Note_on_c, 12, 61, 0
14, 9960, Note_on_c, 12, 61, 76
14, 10067, Note_on_c, 12, 61, 0
14, 10080, Note_on_c, 12, 62, 76
14, 10253, Note_on_c, 12, 62, 0
14, 10260, Note_on_c, 12, 64, 76
14, 10313, Note_on_c, 12, 64, 0
14, 10320, Note_on_c, 12, 66, 76
14, 10733, Note_on_c, 12, 66, 0
14, 10740, Note_on_c, 12, 64, 76
14, 10793, Note_on_c, 12, 64, 0
14, 10800, Note_on_c, 12, 66, 76
14, 10973, Note_on_c, 12, 66, 0
14, 10980, Note_on_c, 12, 67, 76
14, 11033, Note_on_c, 12, 67, 0
14, 11040, Note_on_c, 12, 66, 76
14, 11267, Note_on_c, 12, 66, 0
14, 11280, Note_on_c, 12, 66, 76
14, 11507, Note_on_c, 12, 66, 0
14, 11520, Note_on_c, 12, 66, 76
14, 11999, Note_on_c, 12, 66, 0
14, 12180, Note_on_c, 12, 59, 76
14, 12233, Note_on_c, 12, 59, 0
14, 12240, Note_on_c, 12, 59, 76
14, 12413, Note_on_c, 12, 59, 0
14, 12420, Note_on_c, 12, 63, 76
14, 12473, Note_on_c, 12, 63, 0
14, 12480, Note_on_c, 12, 59, 76
14, 12653, Note_on_c, 12, 59, 0
14, 12660, Note_on_c, 12, 56, 76
14, 12713, Note_on_c, 12, 56, 0
14, 12720, Note_on_c, 12, 59, 76
14, 12893, Note_on_c, 12, 59, 0
14, 12900, Note_on_c, 12, 64, 76
14, 12953, Note_on_c, 12, 64, 0
14, 12960, Note_on_c, 12, 68, 76
14, 13307, Note_on_c, 12, 68, 0
14, 13320, Note_on_c, 12, 64, 76
14, 13427, Note_on_c, 12, 64, 0
14, 13440, Note_on_c, 12, 61, 76
14, 13613, Note_on_c, 12, 61, 0
14, 13620, Note_on_c, 12, 69, 76
14, 13673, Note_on_c, 12, 69, 0
14, 13680, Note_on_c, 12, 69, 76
14, 13853, Note_on_c, 12, 69, 0
14, 13860, Note_on_c, 12, 67, 76
14, 13913, Note_on_c, 12, 67, 0
14, 13920, Note_on_c, 12, 66, 76
14, 14093, Note_on_c, 12, 66, 0
14, 14100, Note_on_c, 12, 66, 76
14, 14153, Note_on_c, 12, 66, 0
14, 14160, Note_on_c, 12, 66, 76
14, 14333, Note_on_c, 12, 66, 0
14, 14340, Note_on_c, 12, 64, 76
14, 14393, Note_on_c, 12, 64, 0
14, 14400, Note_on_c, 12, 62, 76
14, 15053, Note_on_c, 12, 62, 0
14, 15060, Note_on_c, 12, 62, 76
14, 15113, Note_on_c, 12, 62, 0
14, 15120, Note_on_c, 12, 61, 76
14, 15293, Note_on_c, 12, 61, 0
14, 15300, Note_on_c, 12, 59, 76
14, 15353, Note_on_c, 12, 59, 0
14, 15360, Note_on_c, 12, 64, 76
14, 15533, Note_on_c, 12, 64, 0
14, 15540, Note_on_c, 12, 62, 76
14, 15593, Note_on_c, 12, 62, 0
14, 15600, Note_on_c, 12, 64, 76
14, 15773, Note_on_c, 12, 64, 0
14, 15780, Note_on_c, 12, 66, 76
14, 15833, Note_on_c, 12, 66, 0
14, 15840, Note_on_c, 12, 64, 76
14, 16067, Note_on_c, 12, 64, 0
14, 16080, Note_on_c, 12, 62, 76
14, 16307, Note_on_c, 12, 62, 0
14, 16320, Note_on_c, 12, 61, 76
14, 16973, Note_on_c, 12, 61, 0
14, 16980, Note_on_c, 12, 61, 76
14, 17033, Note_on_c, 12, 61, 0
14, 17040, Note_on_c, 12, 62, 76
14, 17213, Note_on_c, 12, 62, 0
14, 17220, Note_on_c, 12, 64, 76
14, 17273, Note_on_c, 12, 64, 0
14, 17280, Note_on_c, 12, 66, 76
14, 17453, Note_on_c, 12, 66, 0
14, 17460, Note_on_c, 12, 69, 76
14, 17513, Note_on_c, 12, 69, 0
14, 17520, Note_on_c, 12, 69, 76
14, 17693, Note_on_c, 12, 69, 0
14, 17700, Note_on_c, 12, 66, 76
14, 17753, Note_on_c, 12, 66, 0
14, 17760, Note_on_c, 12, 66, 76
14, 17987, Note_on_c, 12, 66, 0
14, 18000, Note_on_c, 12, 62, 76
14, 18413, Note_on_c, 12, 62, 0
14, 18420, Note_on_c, 12, 62, 76
14, 18473, Note_on_c, 12, 62, 0
14, 18480, Note_on_c, 12, 64, 76
14, 18653, Note_on_c, 12, 64, 0
14, 18660, Note_on_c, 12, 66, 76
14, 18713, Note_on_c, 12, 66, 0
14, 18720, Note_on_c, 12, 67, 76
14, 18893, Note_on_c, 12, 67, 0
14, 18900, Note_on_c, 12, 64, 76
14, 18953, Note_on_c, 12, 64, 0
14, 18960, Note_on_c, 12, 66, 76
14, 19133, Note_on_c, 12, 66, 0
14, 19140, Note_on_c, 12, 67, 76
14, 19193, Note_on_c, 12, 67, 0
14, 19200, Note_on_c, 12, 64, 76
14, 19373, Note_on_c, 12, 64, 0
14, 19380, Note_on_c, 12, 69, 76
14, 19433, Note_on_c, 12, 69, 0
14, 19440, Note_on_c, 12, 69, 76
14, 19613, Note_on_c, 12, 69, 0
14, 19620, Note_on_c, 12, 64, 76
14, 19673, Note_on_c, 12, 64, 0
14, 19680, Note_on_c, 12, 64, 76
14, 19853, Note_on_c, 12, 64, 0
14, 19860, Note_on_c, 12, 61, 76
14, 19913, Note_on_c, 12, 61, 0
14, 19920, Note_on_c, 12, 62, 76
14, 20093, Note_on_c, 12, 62, 0
14, 20100, Note_on_c, 12, 64, 76
14, 20153, Note_on_c, 12, 64, 0
14, 20160, Note_on_c, 12, 62, 76
14, 20507, Note_on_c, 12, 62, 0
14, 20520, Note_on_c, 12, 62, 76
14, 20627, Note_on_c, 12, 62, 0
14, 20640, Note_on_c, 12, 69, 76
14, 20813, Note_on_c, 12, 69, 0
14, 20820, Note_on_c, 12, 69, 76
14, 20873, Note_on_c, 12, 69, 0
14, 20880, Note_on_c, 12, 69, 76
14, 21053, Note_on_c, 12, 69, 0
14, 21060, Note_on_c, 12, 66, 76
14, 21113, Note_on_c, 12, 66, 0
14, 21120, Note_on_c, 12, 64, 76
14, 21293, Note_on_c, 12, 64, 0
14, 21300, Note_on_c, 12, 62, 76
14, 21353, Note_on_c, 12, 62, 0
14, 21360, Note_on_c, 12, 64, 76
14, 21533, Note_on_c, 12, 64, 0
14, 21540, Note_on_c, 12, 57, 76
14, 21593, Note_on_c, 12, 57, 0
14, 21600, Note_on_c, 12, 69, 76
14, 21827, Note_on_c, 12, 69, 0
14, 21840, Note_on_c, 12, 69, 76
14, 22067, Note_on_c, 12, 69, 0
14, 22080, Note_on_c, 12, 69, 76
14, 23039, Note_on_c, 12, 69, 0
14, 23460, Note_on_c, 12, 69, 76
14, 23513, Note_on_c, 12, 69, 0
14, 23520, Note_on_c, 12, 69, 76
14, 23693, Note_on_c, 12, 69, 0
14, 23700, Note_on_c, 12, 66, 76
14, 23753, Note_on_c, 12, 66, 0
14, 23760, Note_on_c, 12, 66, 76
14, 23933, Note_on_c, 12, 66, 0
14, 23940, Note_on_c, 12, 62, 76
14, 23993, Note_on_c, 12, 62, 0
14, 24000, Note_on_c, 12, 62, 76
14, 24173, Note_on_c, 12, 62, 0
14, 24180, Note_on_c, 12, 71, 76
14, 24233, Note_on_c, 12, 71, 0
14, 24240, Note_on_c, 12, 71, 76
14, 24413, Note_on_c, 12, 71, 0
14, 24420, Note_on_c, 12, 67, 76
14, 24473, Note_on_c, 12, 67, 0
14, 24480, Note_on_c, 12, 67, 76
14, 24653, Note_on_c, 12, 67, 0
14, 24660, Note_on_c, 12, 67, 76
14, 24713, Note_on_c, 12, 67, 0
14, 24720, Note_on_c, 12, 67, 76
14, 24893, Note_on_c, 12, 67, 0
14, 24900, Note_on_c, 12, 64, 76
14, 24953, Note_on_c, 12, 64, 0
14, 24960, Note_on_c, 12, 67, 76
14, 25133, Note_on_c, 12, 67, 0
14, 25140, Note_on_c, 12, 61, 76
14, 25193, Note_on_c, 12, 61, 0
14, 25200, Note_on_c, 12, 61, 76
14, 25373, Note_on_c, 12, 61, 0
14, 25380, Note_on_c, 12, 64, 76
14, 25433, Note_on_c, 12, 64, 0
14, 25440, Note_on_c, 12, 57, 76
14, 25613, Note_on_c, 12, 57, 0
14, 25620, Note_on_c, 12, 69, 76
14, 25673, Note_on_c, 12, 69, 0
14, 25680, Note_on_c, 12, 69, 76
14, 25853, Note_on_c, 12, 69, 0
14, 25860, Note_on_c, 12, 69, 76
14, 25913, Note_on_c, 12, 69, 0
14, 25920, Note_on_c, 12, 69, 76
14, 26573, Note_on_c, 12, 69, 0
14, 26580, Note_on_c, 12, 62, 76
14, 26633, Note_on_c, 12, 62, 0
14, 26640, Note_on_c, 12, 66, 76
14, 26813, Note_on_c, 12, 66, 0
14, 26820, Note_on_c, 12, 67, 76
14, 26873, Note_on_c, 12, 67, 0
14, 26880, Note_on_c, 12, 69, 76
14, 27053, Note_on_c, 12, 69, 0
14, 27060, Note_on_c, 12, 74, 76
14, 27113, Note_on_c, 12, 74, 0
14, 27120, Note_on_c, 12, 74, 76
14, 27293, Note_on_c, 12, 74, 0
14, 27300, Note_on_c, 12, 69, 76
14, 27353, Note_on_c, 12, 69, 0
14, 27360, Note_on_c, 12, 66, 76
14, 27533, Note_on_c, 12, 66, 0
14, 27540, Note_on_c, 12, 62, 76
14, 27593, Note_on_c, 12, 62, 0
14, 27600, Note_on_c, 12, 62, 76
14, 27773, Note_on_c, 12, 62, 0
14, 27780, Note_on_c, 12, 59, 76
14, 27833, Note_on_c, 12, 59, 0
14, 27840, Note_on_c, 12, 59, 76
14, 28013, Note_on_c, 12, 59, 0
14, 28020, Note_on_c, 12, 56, 76
14, 28073, Note_on_c, 12, 56, 0
14, 28080, Note_on_c, 12, 56, 76
14, 28253, Note_on_c, 12, 56, 0
14, 28260, Note_on_c, 12, 59, 76
14, 28313, Note_on_c, 12, 59, 0
14, 28320, Note_on_c, 12, 64, 76
14, 28547, Note_on_c, 12, 64, 0
14, 28560, Note_on_c, 12, 66, 76
14, 28787, Note_on_c, 12, 66, 0
14, 28800, Note_on_c, 12, 66, 76
14, 28973, Note_on_c, 12, 66, 0
14, 28980, Note_on_c, 12, 64, 76
14, 29033, Note_on_c, 12, 64, 0
14, 29040, Note_on_c, 12, 62, 76
14, 29213, Note_on_c, 12, 62, 0
14, 29220, Note_on_c, 12, 61, 76
14, 29273, Note_on_c, 12, 61, 0
14, 29280, Note_on_c, 12, 59, 76
14, 29507, Note_on_c, 12, 59, 0
14, 29520, Note_on_c, 12, 64, 76
14, 29747, Note_on_c, 12, 64, 0
14, 29760, Note_on_c, 12, 64, 76
14, 29933, Note_on_c, 12, 64, 0
14, 29940, Note_on_c, 12, 61, 76
14, 29993, Note_on_c, 12, 61, 0
14, 30000, Note_on_c, 12, 64, 76
14, 30173, Note_on_c, 12, 64, 0
14, 30180, Note_on_c, 12, 67, 76
14, 30233, Note_on_c, 12, 67, 0
14, 30240, Note_on_c, 12, 66, 76
14, 30413, Note_on_c, 12, 66, 0
14, 30420, Note_on_c, 12, 63, 76
14, 30473, Note_on_c, 12, 63, 0
14, 30480, Note_on_c, 12, 64, 76
14, 30653, Note_on_c, 12, 64, 0
14, 30660, Note_on_c, 12, 67, 76
14, 30713, Note_on_c, 12, 67, 0
14, 30720, Note_on_c, 12, 66, 76
14, 30947, Note_on_c, 12, 66, 0
14, 30960, Note_on_c, 12, 71, 76
14, 31373, Note_on_c, 12, 71, 0
14, 31380, Note_on_c, 12, 64, 76
14, 31433, Note_on_c, 12, 64, 0
14, 31440, Note_on_c, 12, 64, 76
14, 31613, Note_on_c, 12, 64, 0
14, 31620, Note_on_c, 12, 63, 76
14, 31673, Note_on_c, 12, 63, 0
14, 31680, Note_on_c, 12, 64, 76
14, 31853, Note_on_c, 12, 64, 0
14, 31860, Note_on_c, 12, 71, 76
14, 31913, Note_on_c, 12, 71, 0
14, 31920, Note_on_c, 12, 71, 76
14, 32093, Note_on_c, 12, 71, 0
14, 32100, Note_on_c, 12, 67, 76
14, 32153, Note_on_c, 12, 67, 0
14, 32160, Note_on_c, 12, 64, 76
14, 32507, Note_on_c, 12, 64, 0
14, 32520, Note_on_c, 12, 62, 76
14, 32627, Note_on_c, 12, 62, 0
14, 32640, Note_on_c, 12, 61, 76
14, 32987, Note_on_c, 12, 61, 0
14, 33000, Note_on_c, 12, 61, 76
14, 33107, Note_on_c, 12, 61, 0
14, 33120, Note_on_c, 12, 62, 76
14, 33293, Note_on_c, 12, 62, 0
14, 33300, Note_on_c, 12, 64, 76
14, 33353, Note_on_c, 12, 64, 0
14, 33360, Note_on_c, 12, 66, 76
14, 33773, Note_on_c, 12, 66, 0
14, 33780, Note_on_c, 12, 64, 76
14, 33833, Note_on_c, 12, 64, 0
14, 33840, Note_on_c, 12, 66, 76
14, 34013, Note_on_c, 12, 66, 0
14, 34020, Note_on_c, 12, 67, 76
14, 34073, Note_on_c, 12, 67, 0
14, 34080, Note_on_c, 12, 66, 76
14, 34307, Note_on_c, 12, 66, 0
14, 34320, Note_on_c, 12, 66, 76
14, 34547, Note_on_c, 12, 66, 0
14, 34560, Note_on_c, 12, 66, 76
14, 35039, Note_on_c, 12, 66, 0
14, 35220, Note_on_c, 12, 59, 76
14, 35273, Note_on_c, 12, 59, 0
14, 35280, Note_on_c, 12, 59, 76
14, 35453, Note_on_c, 12, 59, 0
14, 35460, Note_on_c, 12, 63, 76
14, 35513, Note_on_c, 12, 63, 0
14, 35520, Note_on_c, 12, 59, 76
14, 35693, Note_on_c, 12, 59, 0
14, 35700, Note_on_c, 12, 56, 76
14, 35753, Note_on_c, 12, 56, 0
14, 35760, Note_on_c, 12, 59, 76
14, 35933, Note_on_c, 12, 59, 0
14, 35940, Note_on_c, 12, 64, 76
14, 35993, Note_on_c, 12, 64, 0
14, 36000, Note_on_c, 12, 68, 76
14, 36347, Note_on_c, 12, 68, 0
14, 36360, Note_on_c, 12, 64, 76
14, 36467, Note_on_c, 12, 64, 0
14, 36480, Note_on_c, 12, 61, 76
14, 36653, Note_on_c, 12, 61, 0
14, 36660, Note_on_c, 12, 69, 76
14, 36713, Note_on_c, 12, 69, 0
14, 36720, Note_on_c, 12, 69, 76
14, 36893, Note_on_c, 12, 69, 0
14, 36900, Note_on_c, 12, 67, 76
14, 36953, Note_on_c, 12, 67, 0
14, 36960, Note_on_c, 12, 66, 76
14, 37133, Note_on_c, 12, 66, 0
14, 37140, Note_on_c, 12, 66, 76
14, 37193, Note_on_c, 12, 66, 0
14, 37200, Note_on_c, 12, 66, 76
14, 37373, Note_on_c, 12, 66, 0
14, 37380, Note_on_c, 12, 64, 76
14, 37433, Note_on_c, 12, 64, 0
14, 37440, Note_on_c, 12, 62, 76
14, 38093, Note_on_c, 12, 62, 0
14, 38100, Note_on_c, 12, 62, 76
14, 38153, Note_on_c, 12, 62, 0
14, 38160, Note_on_c, 12, 61, 76
14, 38333, Note_on_c, 12, 61, 0
14, 38340, Note_on_c, 12, 59, 76
14, 38393, Note_on_c, 12, 59, 0
14, 38400, Note_on_c, 12, 64, 76
14, 38573, Note_on_c, 12, 64, 0
14, 38580, Note_on_c, 12, 62, 76
14, 38633, Note_on_c, 12, 62, 0
14, 38640, Note_on_c, 12, 64, 76
14, 38813, Note_on_c, 12, 64, 0
14, 38820, Note_on_c, 12, 66, 76
14, 38873, Note_on_c, 12, 66, 0
14, 38880, Note_on_c, 12, 64, 76
14, 39107, Note_on_c, 12, 64, 0
14, 39120, Note_on_c, 12, 62, 76
14, 39347, Note_on_c, 12, 62, 0
14, 39360, Note_on_c, 12, 61, 76
14, 40013, Note_on_c, 12, 61, 0
14, 40020, Note_on_c, 12, 61, 76
14, 40073, Note_on_c, 12, 61, 0
14, 40080, Note_on_c, 12, 62, 76
14, 40253, Note_on_c, 12, 62, 0
14, 40260, Note_on_c, 12, 64, 76
14, 40313, Note_on_c, 12, 64, 0
14, 40320, Note_on_c, 12, 66, 76
14, 40493, Note_on_c, 12, 66, 0
14, 40500, Note_on_c, 12, 69, 76
14, 40553, Note_on_c, 12, 69, 0
14, 40560, Note_on_c, 12, 69, 76
14, 40733, Note_on_c, 12, 69, 0
14, 40740, Note_on_c, 12, 66, 76
14, 40793, Note_on_c, 12, 66, 0
14, 40800, Note_on_c, 12, 66, 76
14, 41027, Note_on_c, 12, 66, 0
14, 41040, Note_on_c, 12, 62, 76
14, 41453, Note_on_c, 12, 62, 0
14, 41460, Note_on_c, 12, 62, 76
14, 41513, Note_on_c, 12, 62, 0
14, 41520, Note_on_c, 12, 64, 76
14, 41693, Note_on_c, 12, 64, 0
14, 41700, Note_on_c, 12, 66, 76
14, 41753, Note_on_c, 12, 66, 0
14, 41760, Note_on_c, 12, 67, 76
14, 41933, Note_on_c, 12, 67, 0
14, 41940, Note_on_c, 12, 64, 76
14, 41993, Note_on_c, 12, 64, 0
14, 42000, Note_on_c, 12, 66, 76
14, 42173, Note_on_c, 12, 66, 0
14, 42180, Note_on_c, 12, 67, 76
14, 42233, Note_on_c, 12, 67, 0
14, 42240, Note_on_c, 12, 64, 76
14, 42413, Note_on_c, 12, 64, 0
14, 42420, Note_on_c, 12, 69, 76
14, 42473, Note_on_c, 12, 69, 0
14, 42480, Note_on_c, 12, 69, 76
14, 42653, Note_on_c, 12, 69, 0
14, 42660, Note_on_c, 12, 64, 76
14, 42713, Note_on_c, 12, 64, 0
14, 42720, Note_on_c, 12, 64, 76
14, 42893, Note_on_c, 12, 64, 0
14, 42900, Note_on_c, 12, 61, 76
14, 42953, Note_on_c, 12, 61, 0
14, 42960, Note_on_c, 12, 62, 76
14, 43133, Note_on_c, 12, 62, 0
14, 43140, Note_on_c, 12, 64, 76
14, 43193, Note_on_c, 12, 64, 0
14, 43200, Note_on_c, 12, 62, 76
14, 43547, Note_on_c, 12, 62, 0
14, 43560, Note_on_c, 12, 62, 76
14, 43667, Note_on_c, 12, 62, 0
14, 43680, Note_on_c, 12, 69, 76
14, 43853, Note_on_c, 12, 69, 0
14, 43860, Note_on_c, 12, 69, 76
14, 43913, Note_on_c, 12, 69, 0
14, 43920, Note_on_c, 12, 69, 76
14, 44093, Note_on_c, 12, 69, 0
14, 44100, Note_on_c, 12, 66, 76
14, 44153, Note_on_c, 12, 66, 0
14, 44160, Note_on_c, 12, 64, 76
14, 44333, Note_on_c, 12, 64, 0
14, 44340, Note_on_c, 12, 62, 76
14, 44393, Note_on_c, 12, 62, 0
14, 44400, Note_on_c, 12, 64, 76
14, 44573, Note_on_c, 12, 64, 0
14, 44580, Note_on_c, 12, 57, 76
14, 44633, Note_on_c, 12, 57, 0
14, 44640, Note_on_c, 12, 69, 76
14, 44867, Note_on_c, 12, 69, 0
14, 44880, Note_on_c, 12, 69, 76
14, 45107, Note_on_c, 12, 69, 0
14, 45120, Note_on_c, 12, 69, 76
14, 45359, Note_on_c, 12, 69, 0
14, 49080, Note_on_c, 12, 57, 76
14, 49127, Note_on_c, 12, 57, 0
14, 49140, Note_on_c, 12, 59, 76
14, 49187, Note_on_c, 12, 59, 0
14, 49200, Note_on_c, 12, 61, 76
14, 49304, Note_on_c, 12, 61, 0
14, 49320, Note_on_c, 12, 61, 76
14, 49367, Note_on_c, 12, 61, 0
14, 49380, Note_on_c, 12, 62, 76
14, 49427, Note_on_c, 12, 62, 0
14, 49440, Note_on_c, 12, 64, 76
14, 49544, Note_on_c, 12, 64, 0
14, 49560, Note_on_c, 12, 61, 76
14, 49607, Note_on_c, 12, 61, 0
14, 49620, Note_on_c, 12, 62, 76
14, 49667, Note_on_c, 12, 62, 0
14, 49680, Note_on_c, 12, 64, 76
14, 49784, Note_on_c, 12, 64, 0
14, 49800, Note_on_c, 12, 64, 76
14, 49847, Note_on_c, 12, 64, 0
14, 49860, Note_on_c, 12, 66, 76
14, 49907, Note_on_c, 12, 66, 0
14, 49920, Note_on_c, 12, 67, 76
14, 50024, Note_on_c, 12, 67, 0
14, 50040, Note_on_c, 12, 67, 76
14, 50087, Note_on_c, 12, 67, 0
14, 50100, Note_on_c, 12, 66, 76
14, 50147, Note_on_c, 12, 66, 0
14, 50160, Note_on_c, 12, 67, 76
14, 50264, Note_on_c, 12, 67, 0
14, 50280, Note_on_c, 12, 69, 76
14, 50327, Note_on_c, 12, 69, 0
14, 50340, Note_on_c, 12, 67, 76
14, 50387, Note_on_c, 12, 67, 0
14, 50400, Note_on_c, 12, 66, 76
14, 50504, Note_on_c, 12, 66, 0
14, 50520, Note_on_c, 12, 69, 76
14, 50624, Note_on_c, 12, 69, 0
14, 50640, Note_on_c, 12, 62, 76
14, 50744, Note_on_c, 12, 62, 0
14, 50760, Note_on_c, 12, 66, 76
14, 50984, Note_on_c, 12, 66, 0
14, 51000, Note_on_c, 12, 69, 76
14, 51104, Note_on_c, 12, 69, 0
14, 51120, Note_on_c, 12, 60, 76
14, 51224, Note_on_c, 12, 60, 0
14, 51240, Note_on_c, 12, 66, 76
14, 51464, Note_on_c, 12, 66, 0
14, 51480, Note_on_c, 12, 69, 76
14, 51584, Note_on_c, 12, 69, 0
14, 51600, Note_on_c, 12, 62, 76
14, 51704, Note_on_c, 12, 62, 0
14, 51720, Note_on_c, 12, 66, 76
14, 51824, Note_on_c, 12, 66, 0
14, 51840, Note_on_c, 12, 67, 76
14, 51887, Note_on_c, 12, 67, 0
14, 51900, Note_on_c, 12, 71, 76
14, 51947, Note_on_c, 12, 71, 0
14, 51960, Note_on_c, 12, 68, 76
14, 52007, Note_on_c, 12, 68, 0
14, 52020, Note_on_c, 12, 69, 76
14, 52067, Note_on_c, 12, 69, 0
14, 52080, Note_on_c, 12, 71, 76
14, 52127, Note_on_c, 12, 71, 0
14, 52140, Note_on_c, 12, 73, 76
14, 52187, Note_on_c, 12, 73, 0
14, 52200, Note_on_c, 12, 71, 76
14, 52247, Note_on_c, 12, 71, 0
14, 52260, Note_on_c, 12, 73, 76
14, 52307, Note_on_c, 12, 73, 0
14, 52320, Note_on_c, 12, 74, 76
14, 52367, Note_on_c, 12, 74, 0
14, 52380, Note_on_c, 12, 71, 76
14, 52427, Note_on_c, 12, 71, 0
14, 52440, Note_on_c, 12, 64, 76
14, 52487, Note_on_c, 12, 64, 0
14, 52500, Note_on_c, 12, 66, 76
14, 52547, Note_on_c, 12, 66, 0
14, 52560, Note_on_c, 12, 68, 76
14, 52607, Note_on_c, 12, 68, 0
14, 52620, Note_on_c, 12, 69, 76
14, 52667, Note_on_c, 12, 69, 0
14, 52680, Note_on_c, 12, 68, 76
14, 52727, Note_on_c, 12, 68, 0
14, 52740, Note_on_c, 12, 69, 76
14, 52787, Note_on_c, 12, 69, 0
14, 52800, Note_on_c, 12, 71, 76
14, 52847, Note_on_c, 12, 71, 0
14, 52860, Note_on_c, 12, 69, 76
14, 52907, Note_on_c, 12, 69, 0
14, 52920, Note_on_c, 12, 68, 76
14, 52967, Note_on_c, 12, 68, 0
14, 52980, Note_on_c, 12, 69, 76
14, 53027, Note_on_c, 12, 69, 0
14, 53040, Note_on_c, 12, 71, 76
14, 53087, Note_on_c, 12, 71, 0
14, 53100, Note_on_c, 12, 69, 76
14, 53147, Note_on_c, 12, 69, 0
14, 53160, Note_on_c, 12, 68, 76
14, 53207, Note_on_c, 12, 68, 0
14, 53220, Note_on_c, 12, 66, 76
14, 53267, Note_on_c, 12, 66, 0
14, 53280, Note_on_c, 12, 64, 76
14, 53519, Note_on_c, 12, 64, 0
14, 53640, Note_on_c, 12, 69, 76
14, 53744, Note_on_c, 12, 69, 0
14, 53760, Note_on_c, 12, 69, 76
14, 53864, Note_on_c, 12, 69, 0
14, 53880, Note_on_c, 12, 69, 76
14, 53984, Note_on_c, 12, 69, 0
14, 54000, Note_on_c, 12, 69, 76
14, 54104, Note_on_c, 12, 69, 0
14, 54120, Note_on_c, 12, 69, 76
14, 54224, Note_on_c, 12, 69, 0
14, 54240, Note_on_c, 12, 69, 76
14, 54344, Note_on_c, 12, 69, 0
14, 54360, Note_on_c, 12, 69, 76
14, 54464, Note_on_c, 12, 69, 0
14, 54480, Note_on_c, 12, 69, 76
14, 54584, Note_on_c, 12, 69, 0
14, 54600, Note_on_c, 12, 69, 76
14, 54704, Note_on_c, 12, 69, 0
14, 54720, Note_on_c, 12, 69, 76
14, 54824, Note_on_c, 12, 69, 0
14, 54840, Note_on_c, 12, 62, 76
14, 54887, Note_on_c, 12, 62, 0
14, 54900, Note_on_c, 12, 64, 76
14, 54947, Note_on_c, 12, 64, 0
14, 54960, Note_on_c, 12, 62, 76
14, 55007, Note_on_c, 12, 62, 0
14, 55020, Note_on_c, 12, 61, 76
14, 55067, Note_on_c, 12, 61, 0
14, 55080, Note_on_c, 12, 59, 76
14, 55127, Note_on_c, 12, 59, 0
14, 55140, Note_on_c, 12, 62, 76
14, 55187, Note_on_c, 12, 62, 0
14, 55200, Note_on_c, 12, 61, 76
14, 55247, Note_on_c, 12, 61, 0
14, 55260, Note_on_c, 12, 62, 76
14, 55307, Note_on_c, 12, 62, 0
14, 55320, Note_on_c, 12, 61, 76
14, 55367, Note_on_c, 12, 61, 0
14, 55380, Note_on_c, 12, 59, 76
14, 55427, Note_on_c, 12, 59, 0
14, 55440, Note_on_c, 12, 58, 76
14, 55544, Note_on_c, 12, 58, 0
14, 55560, Note_on_c, 12, 61, 76
14, 55664, Note_on_c, 12, 61, 0
14, 55680, Note_on_c, 12, 62, 76
14, 55784, Note_on_c, 12, 62, 0
14, 55800, Note_on_c, 12, 66, 76
14, 55904, Note_on_c, 12, 66, 0
14, 55920, Note_on_c, 12, 59, 76
14, 56024, Note_on_c, 12, 59, 0
14, 56040, Note_on_c, 12, 62, 76
14, 56264, Note_on_c, 12, 62, 0
14, 56280, Note_on_c, 12, 74, 76
14, 56384, Note_on_c, 12, 74, 0
14, 56400, Note_on_c, 12, 74, 76
14, 56504, Note_on_c, 12, 74, 0
14, 56520, Note_on_c, 12, 74, 76
14, 56624, Note_on_c, 12, 74, 0
14, 56640, Note_on_c, 12, 74, 76
14, 56744, Note_on_c, 12, 74, 0
14, 56760, Note_on_c, 12, 74, 76
14, 56864, Note_on_c, 12, 74, 0
14, 56880, Note_on_c, 12, 74, 76
14, 56984, Note_on_c, 12, 74, 0
14, 57000, Note_on_c, 12, 69, 76
14, 57104, Note_on_c, 12, 69, 0
14, 57120, Note_on_c, 12, 71, 76
14, 57224, Note_on_c, 12, 71, 0
14, 57240, Note_on_c, 12, 71, 76
14, 57344, Note_on_c, 12, 71, 0
14, 57360, Note_on_c, 12, 71, 76
14, 57464, Note_on_c, 12, 71, 0
14, 57480, Note_on_c, 12, 71, 76
14, 57584, Note_on_c, 12, 71, 0
14, 57600, Note_on_c, 12, 69, 76
14, 57704, Note_on_c, 12, 69, 0
14, 57720, Note_on_c, 12, 69, 76
14, 57824, Note_on_c, 12, 69, 0
14, 57840, Note_on_c, 12, 69, 76
14, 57944, Note_on_c, 12, 69, 0
14, 57960, Note_on_c, 12, 69, 76
14, 58064, Note_on_c, 12, 69, 0
14, 58080, Note_on_c, 12, 67, 76
14, 58184, Note_on_c, 12, 67, 0
14, 58200, Note_on_c, 12, 69, 76
14, 58304, Note_on_c, 12, 69, 0
14, 58320, Note_on_c, 12, 69, 76
14, 58424, Note_on_c, 12, 69, 0
14, 58440, Note_on_c, 12, 69, 76
14, 58544, Note_on_c, 12, 69, 0
14, 58560, Note_on_c, 12, 69, 76
14, 58664, Note_on_c, 12, 69, 0
14, 58680, Note_on_c, 12, 69, 76
14, 58784, Note_on_c, 12, 69, 0
14, 58800, Note_on_c, 12, 69, 76
14, 58904, Note_on_c, 12, 69, 0
14, 58920, Note_on_c, 12, 69, 76
14, 59024, Note_on_c, 12, 69, 0
14, 59040, Note_on_c, 12, 69, 76
14, 59144, Note_on_c, 12, 69, 0
14, 59160, Note_on_c, 12, 69, 76
14, 59264, Note_on_c, 12, 69, 0
14, 59280, Note_on_c, 12, 69, 76
14, 59384, Note_on_c, 12, 69, 0
14, 59400, Note_on_c, 12, 69, 76
14, 59504, Note_on_c, 12, 69, 0
14, 59520, Note_on_c, 12, 69, 76
14, 59624, Note_on_c, 12, 69, 0
14, 59640, Note_on_c, 12, 69, 76
14, 59744, Note_on_c, 12, 69, 0
14, 59760, Note_on_c, 12, 69, 76
14, 59864, Note_on_c, 12, 69, 0
14, 59880, Note_on_c, 12, 69, 76
14, 59984, Note_on_c, 12, 69, 0
14, 60000, Note_on_c, 12, 69, 76
14, 60104, Note_on_c, 12, 69, 0
14, 60120, Note_on_c, 12, 62, 76
14, 60224, Note_on_c, 12, 62, 0
14, 60240, Note_on_c, 12, 66, 76
14, 60344, Note_on_c, 12, 66, 0
14, 60360, Note_on_c, 12, 71, 76
14, 60464, Note_on_c, 12, 71, 0
14, 60480, Note_on_c, 12, 71, 76
14, 60584, Note_on_c, 12, 71, 0
14, 60600, Note_on_c, 12, 73, 76
14, 60647, Note_on_c, 12, 73, 0
14, 60660, Note_on_c, 12, 74, 76
14, 60707, Note_on_c, 12, 74, 0
14, 60720, Note_on_c, 12, 73, 76
14, 60824, Note_on_c, 12, 73, 0
14, 60840, Note_on_c, 12, 69, 76
14, 60944, Note_on_c, 12, 69, 0
14, 60960, Note_on_c, 12, 69, 76
14, 61064, Note_on_c, 12, 69, 0
14, 61080, Note_on_c, 12, 69, 76
14, 61184, Note_on_c, 12, 69, 0
14, 61200, Note_on_c, 12, 67, 76
14, 61304, Note_on_c, 12, 67, 0
14, 61320, Note_on_c, 12, 71, 76
14, 61424, Note_on_c, 12, 71, 0
14, 61440, Note_on_c, 12, 69, 76
14, 61544, Note_on_c, 12, 69, 0
14, 61560, Note_on_c, 12, 64, 76
14, 61664, Note_on_c, 12, 64, 0
14, 61680, Note_on_c, 12, 69, 76
14, 61784, Note_on_c, 12, 69, 0
14, 61800, Note_on_c, 12, 69, 76
14, 61904, Note_on_c, 12, 69, 0
14, 61920, Note_on_c, 12, 69, 76
14, 61967, Note_on_c, 12, 69, 0
14, 61980, Note_on_c, 12, 67, 76
14, 62027, Note_on_c, 12, 67, 0
14, 62040, Note_on_c, 12, 66, 76
14, 62087, Note_on_c, 12, 66, 0
14, 62100, Note_on_c, 12, 67, 76
14, 62147, Note_on_c, 12, 67, 0
14, 62160, Note_on_c, 12, 64, 76
14, 62207, Note_on_c, 12, 64, 0
14, 62220, Note_on_c, 12, 66, 76
14, 62267, Note_on_c, 12, 66, 0
14, 62280, Note_on_c, 12, 67, 76
14, 62327, Note_on_c, 12, 67, 0
14, 62340, Note_on_c, 12, 64, 76
14, 62387, Note_on_c, 12, 64, 0
14, 62400, Note_on_c, 12, 66, 76
14, 62639, Note_on_c, 12, 66, 0
14, 62760, Note_on_c, 12, 64, 76
14, 62864, Note_on_c, 12, 64, 0
14, 62880, Note_on_c, 12, 62, 76
14, 62984, Note_on_c, 12, 62, 0
14, 63000, Note_on_c, 12, 66, 76
14, 63104, Note_on_c, 12, 66, 0
14, 63120, Note_on_c, 12, 67, 76
14, 63224, Note_on_c, 12, 67, 0
14, 63240, Note_on_c, 12, 67, 76
14, 63344, Note_on_c, 12, 67, 0
14, 63360, Note_on_c, 12, 66, 76
14, 63599, Note_on_c, 12, 66, 0
14, 63720, Note_on_c, 12, 64, 76
14, 63824, Note_on_c, 12, 64, 0
14, 63840, Note_on_c, 12, 64, 76
14, 63944, Note_on_c, 12, 64, 0
14, 63960, Note_on_c, 12, 66, 76
14, 64064, Note_on_c, 12, 66, 0
14, 64080, Note_on_c, 12, 66, 76
14, 64184, Note_on_c, 12, 66, 0
14, 64200, Note_on_c, 12, 71, 76
14, 64304, Note_on_c, 12, 71, 0
14, 64320, Note_on_c, 12, 73, 76
14, 64559, Note_on_c, 12, 73, 0
14, 64680, Note_on_c, 12, 73, 76
14, 64784, Note_on_c, 12, 73, 0
14, 64800, Note_on_c, 12, 73, 76
14, 64904, Note_on_c, 12, 73, 0
14, 64920, Note_on_c, 12, 73, 76
14, 65039, Note_on_c, 12, 73, 0
14, 65160, Note_on_c, 12, 71, 76
14, 65264, Note_on_c, 12, 71, 0
14, 65280, Note_on_c, 12, 70, 76
14, 65384, Note_on_c, 12, 70, 0
14, 65400, Note_on_c, 12, 70, 76
14, 65519, Note_on_c, 12, 70, 0
14, 65640, Note_on_c, 12, 70, 76
14, 65744, Note_on_c, 12, 70, 0
14, 65760, Note_on_c, 12, 66, 76
14, 65864, Note_on_c, 12, 66, 0
14, 65880, Note_on_c, 12, 66, 76
14, 65999, Note_on_c, 12, 66, 0
14, 66120, Note_on_c, 12, 66, 76
14, 66224, Note_on_c, 12, 66, 0
14, 66240, Note_on_c, 12, 66, 76
14, 66344, Note_on_c, 12, 66, 0
14, 66360, Note_on_c, 12, 62, 76
14, 66479, Note_on_c, 12, 62, 0
14, 66600, Note_on_c, 12, 66, 76
14, 66704, Note_on_c, 12, 66, 0
14, 66720, Note_on_c, 12, 63, 76
14, 66824, Note_on_c, 12, 63, 0
14, 66840, Note_on_c, 12, 69, 76
14, 66959, Note_on_c, 12, 69, 0
14, 67080, Note_on_c, 12, 63, 76
14, 67184, Note_on_c, 12, 63, 0
14, 67200, Note_on_c, 12, 63, 76
14, 67304, Note_on_c, 12, 63, 0
14, 67320, Note_on_c, 12, 66, 76
14, 67439, Note_on_c, 12, 66, 0
14, 67560, Note_on_c, 12, 66, 76
14, 67664, Note_on_c, 12, 66, 0
14, 67680, Note_on_c, 12, 66, 76
14, 67784, Note_on_c, 12, 66, 0
14, 67800, Note_on_c, 12, 66, 76
14, 67919, Note_on_c, 12, 66, 0
14, 68040, Note_on_c, 12, 71, 76
14, 68144, Note_on_c, 12, 71, 0
14, 68160, Note_on_c, 12, 71, 76
14, 68399, Note_on_c, 12, 71, 0
14, 70320, Note_on_c, 12, 73, 76
14, 70559, Note_on_c, 12, 73, 0
14, 70800, Note_on_c, 12, 70, 76
14, 71039, Note_on_c, 12, 70, 0
14, 71280, Note_on_c, 12, 66, 76
14, 71519, Note_on_c, 12, 66, 0
14, 71640, Note_on_c, 12, 59, 76
14, 71687, Note_on_c, 12, 59, 0
14, 71700, Note_on_c, 12, 61, 76
14, 71747, Note_on_c, 12, 61, 0
14, 71760, Note_on_c, 12, 63, 76
14, 71864, Note_on_c, 12, 63, 0
14, 71880, Note_on_c, 12, 63, 76
14, 71927, Note_on_c, 12, 63, 0
14, 71940, Note_on_c, 12, 64, 76
14, 71987, Note_on_c, 12, 64, 0
14, 72000, Note_on_c, 12, 66, 76
14, 72104, Note_on_c, 12, 66, 0
14, 72120, Note_on_c, 12, 63, 76
14, 72167, Note_on_c, 12, 63, 0
14, 72180, Note_on_c, 12, 64, 76
14, 72227, Note_on_c, 12, 64, 0
14, 72240, Note_on_c, 12, 66, 76
14, 72344, Note_on_c, 12, 66, 0
14, 72360, Note_on_c, 12, 66, 76
14, 72407, Note_on_c, 12, 66, 0
14, 72420, Note_on_c, 12, 68, 76
14, 72467, Note_on_c, 12, 68, 0
14, 72480, Note_on_c, 12, 69, 76
14, 72584, Note_on_c, 12, 69, 0
14, 72600, Note_on_c, 12, 69, 76
14, 72647, Note_on_c, 12, 69, 0
14, 72660, Note_on_c, 12, 68, 76
14, 72707, Note_on_c, 12, 68, 0
14, 72720, Note_on_c, 12, 69, 76
14, 72824, Note_on_c, 12, 69, 0
14, 72840, Note_on_c, 12, 71, 76
14, 72887, Note_on_c, 12, 71, 0
14, 72900, Note_on_c, 12, 69, 76
14, 72947, Note_on_c, 12, 69, 0
14, 72960, Note_on_c, 12, 68, 76
14, 73184, Note_on_c, 12, 68, 0
14, 73200, Note_on_c, 12, 71, 76
14, 73439, Note_on_c, 12, 71, 0
14, 73680, Note_on_c, 12, 68, 76
14, 73919, Note_on_c, 12, 68, 0
14, 74160, Note_on_c, 12, 64, 76
14, 74399, Note_on_c, 12, 64, 0
14, 74520, Note_on_c, 12, 57, 76
14, 74567, Note_on_c, 12, 57, 0
14, 74580, Note_on_c, 12, 59, 76
14, 74627, Note_on_c, 12, 59, 0
14, 74640, Note_on_c, 12, 61, 76
14, 74744, Note_on_c, 12, 61, 0
14, 74760, Note_on_c, 12, 61, 76
14, 74807, Note_on_c, 12, 61, 0
14, 74820, Note_on_c, 12, 62, 76
14, 74867, Note_on_c, 12, 62, 0
14, 74880, Note_on_c, 12, 64, 76
14, 74984, Note_on_c, 12, 64, 0
14, 75000, Note_on_c, 12, 61, 76
14, 75047, Note_on_c, 12, 61, 0
14, 75060, Note_on_c, 12, 62, 76
14, 75107, Note_on_c, 12, 62, 0
14, 75120, Note_on_c, 12, 64, 76
14, 75224, Note_on_c, 12, 64, 0
14, 75240, Note_on_c, 12, 64, 76
14, 75287, Note_on_c, 12, 64, 0
14, 75300, Note_on_c, 12, 66, 76
14, 75347, Note_on_c, 12, 66, 0
14, 75360, Note_on_c, 12, 67, 76
14, 75464, Note_on_c, 12, 67, 0
14, 75480, Note_on_c, 12, 67, 76
14, 75527, Note_on_c, 12, 67, 0
14, 75540, Note_on_c, 12, 66, 76
14, 75587, Note_on_c, 12, 66, 0
14, 75600, Note_on_c, 12, 67, 76
14, 75704, Note_on_c, 12, 67, 0
14, 75720, Note_on_c, 12, 69, 76
14, 75767, Note_on_c, 12, 69, 0
14, 75780, Note_on_c, 12, 67, 76
14, 75827, Note_on_c, 12, 67, 0
14, 75840, Note_on_c, 12, 66, 76
14, 76079, Note_on_c, 12, 66, 0
14, 77880, Note_on_c, 12, 69, 76
14, 77984, Note_on_c, 12, 69, 0
14, 78000, Note_on_c, 12, 69, 76
14, 78104, Note_on_c, 12, 69, 0
14, 78120, Note_on_c, 12, 69, 76
14, 78224, Note_on_c, 12, 69, 0
14, 78240, Note_on_c, 12, 69, 76
14, 78344, Note_on_c, 12, 69, 0
14, 78360, Note_on_c, 12, 69, 76
14, 78464, Note_on_c, 12, 69, 0
14, 78480, Note_on_c, 12, 69, 76
14, 78584, Note_on_c, 12, 69, 0
14, 78600, Note_on_c, 12, 69, 76
14, 78704, Note_on_c, 12, 69, 0
14, 78720, Note_on_c, 12, 69, 76
14, 78824, Note_on_c, 12, 69, 0
14, 78840, Note_on_c, 12, 69, 76
14, 78944, Note_on_c, 12, 69, 0
14, 78960, Note_on_c, 12, 69, 76
14, 79064, Note_on_c, 12, 69, 0
14, 79080, Note_on_c, 12, 69, 76
14, 79184, Note_on_c, 12, 69, 0
14, 79200, Note_on_c, 12, 69, 76
14, 79304, Note_on_c, 12, 69, 0
14, 79320, Note_on_c, 12, 71, 76
14, 79424, Note_on_c, 12, 71, 0
14, 79440, Note_on_c, 12, 71, 76
14, 79544, Note_on_c, 12, 71, 0
14, 79560, Note_on_c, 12, 71, 76
14, 79664, Note_on_c, 12, 71, 0
14, 79680, Note_on_c, 12, 71, 76
14, 79784, Note_on_c, 12, 71, 0
14, 79800, Note_on_c, 12, 71, 76
14, 79904, Note_on_c, 12, 71, 0
14, 79920, Note_on_c, 12, 71, 76
14, 80024, Note_on_c, 12, 71, 0
14, 80040, Note_on_c, 12, 71, 76
14, 80144, Note_on_c, 12, 71, 0
14, 80160, Note_on_c, 12, 71, 76
14, 80264, Note_on_c, 12, 71, 0
14, 80280, Note_on_c, 12, 71, 76
14, 80384, Note_on_c, 12, 71, 0
14, 80400, Note_on_c, 12, 71, 76
14, 80504, Note_on_c, 12, 71, 0
14, 80520, Note_on_c, 12, 71, 76
14, 80624, Note_on_c, 12, 71, 0
14, 80640, Note_on_c, 12, 71, 76
14, 80687, Note_on_c, 12, 71, 0
14, 80700, Note_on_c, 12, 76, 76
14, 80747, Note_on_c, 12, 76, 0
14, 80760, Note_on_c, 12, 68, 76
14, 80807, Note_on_c, 12, 68, 0
14, 80820, Note_on_c, 12, 69, 76
14, 80867, Note_on_c, 12, 69, 0
14, 80880, Note_on_c, 12, 71, 76
14, 80927, Note_on_c, 12, 71, 0
14, 80940, Note_on_c, 12, 73, 76
14, 80987, Note_on_c, 12, 73, 0
14, 81000, Note_on_c, 12, 71, 76
14, 81047, Note_on_c, 12, 71, 0
14, 81060, Note_on_c, 12, 73, 76
14, 81107, Note_on_c, 12, 73, 0
14, 81120, Note_on_c, 12, 74, 76
14, 81167, Note_on_c, 12, 74, 0
14, 81180, Note_on_c, 12, 71, 76
14, 81227, Note_on_c, 12, 71, 0
14, 81240, Note_on_c, 12, 64, 76
14, 81287, Note_on_c, 12, 64, 0
14, 81300, Note_on_c, 12, 66, 76
14, 81347, Note_on_c, 12, 66, 0
14, 81360, Note_on_c, 12, 68, 76
14, 81407, Note_on_c, 12, 68, 0
14, 81420, Note_on_c, 12, 69, 76
14, 81467, Note_on_c, 12, 69, 0
14, 81480, Note_on_c, 12, 68, 76
14, 81527, Note_on_c, 12, 68, 0
14, 81540, Note_on_c, 12, 69, 76
14, 81587, Note_on_c, 12, 69, 0
14, 81600, Note_on_c, 12, 71, 76
14, 81647, Note_on_c, 12, 71, 0
14, 81660, Note_on_c, 12, 69, 76
14, 81707, Note_on_c, 12, 69, 0
14, 81720, Note_on_c, 12, 68, 76
14, 81767, Note_on_c, 12, 68, 0
14, 81780, Note_on_c, 12, 69, 76
14, 81827, Note_on_c, 12, 69, 0
14, 81840, Note_on_c, 12, 71, 76
14, 81887, Note_on_c, 12, 71, 0
14, 81900, Note_on_c, 12, 69, 76
14, 81947, Note_on_c, 12, 69, 0
14, 81960, Note_on_c, 12, 68, 76
14, 82007, Note_on_c, 12, 68, 0
14, 82020, Note_on_c, 12, 66, 76
14, 82067, Note_on_c, 12, 66, 0
14, 82080, Note_on_c, 12, 64, 76
14, 82184, Note_on_c, 12, 64, 0
14, 82200, Note_on_c, 12, 61, 76
14, 82304, Note_on_c, 12, 61, 0
14, 82320, Note_on_c, 12, 66, 76
14, 82664, Note_on_c, 12, 66, 0
14, 82680, Note_on_c, 12, 65, 76
14, 82727, Note_on_c, 12, 65, 0
14, 82740, Note_on_c, 12, 66, 76
14, 82787, Note_on_c, 12, 66, 0
14, 82800, Note_on_c, 12, 68, 76
14, 82847, Note_on_c, 12, 68, 0
14, 82860, Note_on_c, 12, 66, 76
14, 82907, Note_on_c, 12, 66, 0
14, 82920, Note_on_c, 12, 65, 76
14, 82967, Note_on_c, 12, 65, 0
14, 82980, Note_on_c, 12, 63, 76
14, 83027, Note_on_c, 12, 63, 0
14, 83040, Note_on_c, 12, 61, 76
14, 83144, Note_on_c, 12, 61, 0
14, 83160, Note_on_c, 12, 61, 76
14, 83264, Note_on_c, 12, 61, 0
14, 83280, Note_on_c, 12, 54, 76
14, 83384, Note_on_c, 12, 54, 0
14, 83400, Note_on_c, 12, 57, 76
14, 83624, Note_on_c, 12, 57, 0
14, 83640, Note_on_c, 12, 69, 76
14, 83744, Note_on_c, 12, 69, 0
14, 83760, Note_on_c, 12, 69, 76
14, 83864, Note_on_c, 12, 69, 0
14, 83880, Note_on_c, 12, 69, 76
14, 83984, Note_on_c, 12, 69, 0
14, 84000, Note_on_c, 12, 69, 76
14, 84104, Note_on_c, 12, 69, 0
14, 84120, Note_on_c, 12, 69, 76
14, 84224, Note_on_c, 12, 69, 0
14, 84240, Note_on_c, 12, 69, 76
14, 84344, Note_on_c, 12, 69, 0
14, 84360, Note_on_c, 12, 64, 76
14, 84464, Note_on_c, 12, 64, 0
14, 84480, Note_on_c, 12, 66, 76
14, 84584, Note_on_c, 12, 66, 0
14, 84600, Note_on_c, 12, 66, 76
14, 84704, Note_on_c, 12, 66, 0
14, 84720, Note_on_c, 12, 66, 76
14, 84824, Note_on_c, 12, 66, 0
14, 84840, Note_on_c, 12, 66, 76
14, 84944, Note_on_c, 12, 66, 0
14, 84960, Note_on_c, 12, 64, 76
14, 85064, Note_on_c, 12, 64, 0
14, 85080, Note_on_c, 12, 67, 76
14, 85184, Note_on_c, 12, 67, 0
14, 85200, Note_on_c, 12, 66, 76
14, 85304, Note_on_c, 12, 66, 0
14, 85320, Note_on_c, 12, 66, 76
14, 85424, Note_on_c, 12, 66, 0
14, 85440, Note_on_c, 12, 71, 76
14, 85544, Note_on_c, 12, 71, 0
14, 85560, Note_on_c, 12, 66, 76
14, 85664, Note_on_c, 12, 66, 0
14, 85680, Note_on_c, 12, 71, 76
14, 85784, Note_on_c, 12, 71, 0
14, 85800, Note_on_c, 12, 71, 76
14, 85904, Note_on_c, 12, 71, 0
14, 85920, Note_on_c, 12, 70, 76
14, 86024, Note_on_c, 12, 70, 0
14, 86040, Note_on_c, 12, 73, 76
14, 86144, Note_on_c, 12, 73, 0
14, 86160, Note_on_c, 12, 66, 76
14, 86264, Note_on_c, 12, 66, 0
14, 86280, Note_on_c, 12, 70, 76
14, 86504, Note_on_c, 12, 70, 0
14, 86520, Note_on_c, 12, 73, 76
14, 86624, Note_on_c, 12, 73, 0
14, 86640, Note_on_c, 12, 64, 76
14, 86744, Note_on_c, 12, 64, 0
14, 86760, Note_on_c, 12, 70, 76
14, 86984, Note_on_c, 12, 70, 0
14, 87000, Note_on_c, 12, 73, 76
14, 87104, Note_on_c, 12, 73, 0
14, 87120, Note_on_c, 12, 66, 76
14, 87224, Note_on_c, 12, 66, 0
14, 87240, Note_on_c, 12, 70, 76
14, 87344, Note_on_c, 12, 70, 0
14, 87360, Note_on_c, 12, 71, 76
14, 87464, Note_on_c, 12, 71, 0
14, 87480, Note_on_c, 12, 59, 76
14, 87584, Note_on_c, 12, 59, 0
14, 87600, Note_on_c, 12, 62, 76
14, 87704, Note_on_c, 12, 62, 0
14, 87720, Note_on_c, 12, 66, 76
14, 87824, Note_on_c, 12, 66, 0
14, 87840, Note_on_c, 12, 67, 76
14, 87944, Note_on_c, 12, 67, 0
14, 87960, Note_on_c, 12, 71, 76
14, 88064, Note_on_c, 12, 71, 0
14, 88080, Note_on_c, 12, 70, 76
14, 88184, Note_on_c, 12, 70, 0
14, 88200, Note_on_c, 12, 66, 76
14, 88304, Note_on_c, 12, 66, 0
14, 88320, Note_on_c, 12, 66, 76
14, 88424, Note_on_c, 12, 66, 0
14, 88440, Note_on_c, 12, 62, 76
14, 88544, Note_on_c, 12, 62, 0
14, 88560, Note_on_c, 12, 59, 76
14, 88664, Note_on_c, 12, 59, 0
14, 88680, Note_on_c, 12, 59, 76
14, 88784, Note_on_c, 12, 59, 0
14, 88800, Note_on_c, 12, 66, 76
14, 88919, Note_on_c, 12, 66, 0
14, 89160, Note_on_c, 12, 70, 76
14, 89264, Note_on_c, 12, 70, 0
14, 89280, Note_on_c, 12, 66, 76
14, 89384, Note_on_c, 12, 66, 0
14, 89400, Note_on_c, 12, 61, 76
14, 89504, Note_on_c, 12, 61, 0
14, 89520, Note_on_c, 12, 59, 76
14, 89624, Note_on_c, 12, 59, 0
14, 89640, Note_on_c, 12, 62, 76
14, 89744, Note_on_c, 12, 62, 0
14, 89760, Note_on_c, 12, 59, 76
14, 89864, Note_on_c, 12, 59, 0
14, 89880, Note_on_c, 12, 64, 76
14, 89984, Note_on_c, 12, 64, 0
14, 90000, Note_on_c, 12, 62, 76
14, 90104, Note_on_c, 12, 62, 0
14, 90120, Note_on_c, 12, 61, 76
14, 90224, Note_on_c, 12, 61, 0
14, 90240, Note_on_c, 12, 62, 76
14, 90479, Note_on_c, 12, 62, 0
14, 90600, Note_on_c, 12, 61, 76
14, 90704, Note_on_c, 12, 61, 0
14, 90720, Note_on_c, 12, 59, 76
14, 90824, Note_on_c, 12, 59, 0
14, 90840, Note_on_c, 12, 62, 76
14, 90944, Note_on_c, 12, 62, 0
14, 90960, Note_on_c, 12, 61, 76
14, 91064, Note_on_c, 12, 61, 0
14, 91080, Note_on_c, 12, 61, 76
14, 91184, Note_on_c, 12, 61, 0
14, 91200, Note_on_c, 12, 62, 76
14, 91439, Note_on_c, 12, 62, 0
14, 91560, Note_on_c, 12, 68, 76
14, 91664, Note_on_c, 12, 68, 0
14, 91680, Note_on_c, 12, 69, 76
14, 91784, Note_on_c, 12, 69, 0
14, 91800, Note_on_c, 12, 66, 76
14, 91904, Note_on_c, 12, 66, 0
14, 91920, Note_on_c, 12, 71, 76
14, 92024, Note_on_c, 12, 71, 0
14, 92040, Note_on_c, 12, 71, 76
14, 92144, Note_on_c, 12, 71, 0
14, 92160, Note_on_c, 12, 69, 76
14, 92399, Note_on_c, 12, 69, 0
14, 92520, Note_on_c, 12, 66, 76
14, 92624, Note_on_c, 12, 66, 0
14, 92640, Note_on_c, 12, 66, 76
14, 92744, Note_on_c, 12, 66, 0
14, 92760, Note_on_c, 12, 66, 76
14, 92879, Note_on_c, 12, 66, 0
14, 93000, Note_on_c, 12, 66, 76
14, 93104, Note_on_c, 12, 66, 0
14, 93120, Note_on_c, 12, 66, 76
14, 93224, Note_on_c, 12, 66, 0
14, 93240, Note_on_c, 12, 66, 76
14, 93359, Note_on_c, 12, 66, 0
14, 93480, Note_on_c, 12, 66, 76
14, 93584, Note_on_c, 12, 66, 0
14, 93600, Note_on_c, 12, 63, 76
14, 93704, Note_on_c, 12, 63, 0
14, 93720, Note_on_c, 12, 66, 76
14, 93839, Note_on_c, 12, 66, 0
14, 93960, Note_on_c, 12, 63, 76
14, 94064, Note_on_c, 12, 63, 0
14, 94080, Note_on_c, 12, 64, 76
14, 94184, Note_on_c, 12, 64, 0
14, 94200, Note_on_c, 12, 67, 76
14, 94319, Note_on_c, 12, 67, 0
14, 94440, Note_on_c, 12, 71, 76
14, 94544, Note_on_c, 12, 71, 0
14, 94560, Note_on_c, 12, 64, 76
14, 94664, Note_on_c, 12, 64, 0
14, 94680, Note_on_c, 12, 64, 76
14, 94799, Note_on_c, 12, 64, 0
14, 94920, Note_on_c, 12, 64, 76
14, 95024, Note_on_c, 12, 64, 0
14, 95040, Note_on_c, 12, 64, 76
14, 95144, Note_on_c, 12, 64, 0
14, 95160, Note_on_c, 12, 69, 76
14, 95279, Note_on_c, 12, 69, 0
14, 95400, Note_on_c, 12, 69, 76
14, 95504, Note_on_c, 12, 69, 0
14, 95520, Note_on_c, 12, 69, 76
14, 95624, Note_on_c, 12, 69, 0
14, 95640, Note_on_c, 12, 64, 76
14, 95759, Note_on_c, 12, 64, 0
14, 95880, Note_on_c, 12, 69, 76
14, 95984, Note_on_c, 12, 69, 0
14, 96000, Note_on_c, 12, 69, 76
14, 96119, Note_on_c, 12, 69, 0
14, 96360, Note_on_c, 12, 67, 76
14, 96464, Note_on_c, 12, 67, 0
14, 96480, Note_on_c, 12, 67, 76
14, 96599, Note_on_c, 12, 67, 0
14, 96840, Note_on_c, 12, 66, 76
14, 96944, Note_on_c, 12, 66, 0
14, 96960, Note_on_c, 12, 66, 76
14, 97079, Note_on_c, 12, 66, 0
14, 97320, Note_on_c, 12, 64, 76
14, 97424, Note_on_c, 12, 64, 0
14, 97440, Note_on_c, 12, 64, 76
14, 97544, Note_on_c, 12, 64, 0
14, 97560, Note_on_c, 12, 67, 76
14, 97664, Note_on_c, 12, 67, 0
14, 97680, Note_on_c, 12, 66, 76
14, 97784, Note_on_c, 12, 66, 0
14, 97800, Note_on_c, 12, 62, 76
14, 97904, Note_on_c, 12, 62, 0
14, 97920, Note_on_c, 12, 69, 76
14, 98024, Note_on_c, 12, 69, 0
14, 98040, Note_on_c, 12, 61, 76
14, 98144, Note_on_c, 12, 61, 0
14, 98160, Note_on_c, 12, 62, 76
14, 98264, Note_on_c, 12, 62, 0
14, 98280, Note_on_c, 12, 66, 76
14, 98384, Note_on_c, 12, 66, 0
14, 98400, Note_on_c, 12, 64, 76
14, 98504, Note_on_c, 12, 64, 0
14, 98520, Note_on_c, 12, 67, 76
14, 98624, Note_on_c, 12, 67, 0
14, 98640, Note_on_c, 12, 61, 76
14, 98744, Note_on_c, 12, 61, 0
14, 98760, Note_on_c, 12, 57, 76
14, 98864, Note_on_c, 12, 57, 0
14, 98880, Note_on_c, 12, 62, 76
14, 99344, Note_on_c, 12, 62, 0
14, 99360, Note_on_c, 12, 64, 76
14, 99599, Note_on_c, 12, 64, 0
14, 99960, Note_on_c, 12, 59, 76
14, 100007, Note_on_c, 12, 59, 0
14, 100020, Note_on_c, 12, 61, 76
14, 100067, Note_on_c, 12, 61, 0
14, 100080, Note_on_c, 12, 63, 76
14, 100184, Note_on_c, 12, 63, 0
14, 100200, Note_on_c, 12, 63, 76
14, 100247, Note_on_c, 12, 63, 0
14, 100260, Note_on_c, 12, 64, 76
14, 100307, Note_on_c, 12, 64, 0
14, 100320, Note_on_c, 12, 66, 76
14, 100424, Note_on_c, 12, 66, 0
14, 100440, Note_on_c, 12, 63, 76
14, 100487, Note_on_c, 12, 63, 0
14, 100500, Note_on_c, 12, 64, 76
14, 100547, Note_on_c, 12, 64, 0
14, 100560, Note_on_c, 12, 66, 76
14, 100664, Note_on_c, 12, 66, 0
14, 100680, Note_on_c, 12, 66, 76
14, 100727, Note_on_c, 12, 66, 0
14, 100740, Note_on_c, 12, 67, 76
14, 100787, Note_on_c, 12, 67, 0
14, 100800, Note_on_c, 12, 69, 76
14, 100904, Note_on_c, 12, 69, 0
14, 100920, Note_on_c, 12, 69, 76
14, 100967, Note_on_c, 12, 69, 0
14, 100980, Note_on_c, 12, 68, 76
14, 101027, Note_on_c, 12, 68, 0
14, 101040, Note_on_c, 12, 69, 76
14, 101144, Note_on_c, 12, 69, 0
14, 101160, Note_on_c, 12, 71, 76
14, 101207, Note_on_c, 12, 71, 0
14, 101220, Note_on_c, 12, 69, 76
14, 101267, Note_on_c, 12, 69, 0
14, 101280, Note_on_c, 12, 68, 76
14, 101504, Note_on_c, 12, 68, 0
14, 101520, Note_on_c, 12, 64, 76
14, 101759, Note_on_c, 12, 64, 0
14, 102000, Note_on_c, 12, 68, 76
14, 102239, Note_on_c, 12, 68, 0
14, 102480, Note_on_c, 12, 71, 76
14, 102719, Note_on_c, 12, 71, 0
14, 102840, Note_on_c, 12, 57, 76
14, 102887, Note_on_c, 12, 57, 0
14, 102900, Note_on_c, 12, 59, 76
14, 102947, Note_on_c, 12, 59, 0
14, 102960, Note_on_c, 12, 61, 76
14, 103064, Note_on_c, 12, 61, 0
14, 103080, Note_on_c, 12, 61, 76
14, 103127, Note_on_c, 12, 61, 0
14, 103140, Note_on_c, 12, 62, 76
14, 103187, Note_on_c, 12, 62, 0
14, 103200, Note_on_c, 12, 64, 76
14, 103304, Note_on_c, 12, 64, 0
14, 103320, Note_on_c, 12, 61, 76
14, 103367, Note_on_c, 12, 61, 0
14, 103380, Note_on_c, 12, 62, 76
14, 103427, Note_on_c, 12, 62, 0
14, 103440, Note_on_c, 12, 64, 76
14, 103544, Note_on_c, 12, 64, 0
14, 103560, Note_on_c, 12, 64, 76
14, 103607, Note_on_c, 12, 64, 0
14, 103620, Note_on_c, 12, 66, 76
14, 103667, Note_on_c, 12, 66, 0
14, 103680, Note_on_c, 12, 67, 76
14, 103784, Note_on_c, 12, 67, 0
14, 103800, Note_on_c, 12, 67, 76
14, 103847, Note_on_c, 12, 67, 0
14, 103860, Note_on_c, 12, 66, 76
14, 103907, Note_on_c, 12, 66, 0
14, 103920, Note_on_c, 12, 67, 76
14, 104024, Note_on_c, 12, 67, 0
14, 104040, Note_on_c, 12, 69, 76
14, 104087, Note_on_c, 12, 69, 0
14, 104100, Note_on_c, 12, 67, 76
14, 104147, Note_on_c, 12, 67, 0
14, 104160, Note_on_c, 12, 66, 76
14, 104384, Note_on_c, 12, 66, 0
14, 104400, Note_on_c, 12, 62, 76
14, 104639, Note_on_c, 12, 62, 0
14, 104880, Note_on_c, 12, 66, 76
14, 105119, Note_on_c, 12, 66, 0
14, 105360, Note_on_c, 12, 69, 76
14, 105584, Note_on_c, 12, 69, 0
14, 105600, Note_on_c, 12, 62, 76
14, 105839, Note_on_c, 12, 62, 0
14, 107640, Note_on_c, 12, 61, 76
14, 107687, Note_on_c, 12, 61, 0
14, 107700, Note_on_c, 12, 62, 76
14, 107747, Note_on_c, 12, 62, 0
14, 107760, Note_on_c, 12, 64, 76
14, 107807, Note_on_c, 12, 64, 0
14, 107820, Note_on_c, 12, 66, 76
14, 107867, Note_on_c, 12, 66, 0
14, 107880, Note_on_c, 12, 64, 76
14, 107927, Note_on_c, 12, 64, 0
14, 107940, Note_on_c, 12, 66, 76
14, 107987, Note_on_c, 12, 66, 0
14, 108000, Note_on_c, 12, 67, 76
14, 108047, Note_on_c, 12, 67, 0
14, 108060, Note_on_c, 12, 64, 76
14, 108107, Note_on_c, 12, 64, 0
14, 108120, Note_on_c, 12, 57, 76
14, 108167, Note_on_c, 12, 57, 0
14, 108180, Note_on_c, 12, 59, 76
14, 108227, Note_on_c, 12, 59, 0
14, 108240, Note_on_c, 12, 61, 76
14, 108287, Note_on_c, 12, 61, 0
14, 108300, Note_on_c, 12, 62, 76
14, 108347, Note_on_c, 12, 62, 0
14, 108360, Note_on_c, 12, 61, 76
14, 108407, Note_on_c, 12, 61, 0
14, 108420, Note_on_c, 12, 62, 76
14, 108467, Note_on_c, 12, 62, 0
14, 108480, Note_on_c, 12, 64, 76
14, 108527, Note_on_c, 12, 64, 0
14, 108540, Note_on_c, 12, 62, 76
14, 108587, Note_on_c, 12, 62, 0
14, 108600, Note_on_c, 12, 61, 76
14, 108647, Note_on_c, 12, 61, 0
14, 108660, Note_on_c, 12, 62, 76
14, 108707, Note_on_c, 12, 62, 0
14, 108720, Note_on_c, 12, 64, 76
14, 108767, Note_on_c, 12, 64, 0
14, 108780, Note_on_c, 12, 62, 76
14, 108827, Note_on_c, 12, 62, 0
14, 108840, Note_on_c, 12, 61, 76
14, 108887, Note_on_c, 12, 61, 0
14, 108900, Note_on_c, 12, 59, 76
14, 108947, Note_on_c, 12, 59, 0
14, 108960, Note_on_c, 12, 57, 76
14, 109007, Note_on_c, 12, 57, 0
14, 109020, Note_on_c, 12, 69, 76
14, 109067, Note_on_c, 12, 69, 0
14, 109080, Note_on_c, 12, 66, 76
14, 109127, Note_on_c, 12, 66, 0
14, 109140, Note_on_c, 12, 67, 76
14, 109187, Note_on_c, 12, 67, 0
14, 109200, Note_on_c, 12, 69, 76
14, 109247, Note_on_c, 12, 69, 0
14, 109260, Note_on_c, 12, 71, 76
14, 109307, Note_on_c, 12, 71, 0
14, 109320, Note_on_c, 12, 69, 76
14, 109367, Note_on_c, 12, 69, 0
14, 109380, Note_on_c, 12, 71, 76
14, 109427, Note_on_c, 12, 71, 0
14, 109440, Note_on_c, 12, 72, 76
14, 109487, Note_on_c, 12, 72, 0
14, 109500, Note_on_c, 12, 69, 76
14, 109547, Note_on_c, 12, 69, 0
14, 109560, Note_on_c, 12, 62, 76
14, 109607, Note_on_c, 12, 62, 0
14, 109620, Note_on_c, 12, 64, 76
14, 109667, Note_on_c, 12, 64, 0
14, 109680, Note_on_c, 12, 66, 76
14, 109727, Note_on_c, 12, 66, 0
14, 109740, Note_on_c, 12, 67, 76
14, 109787, Note_on_c, 12, 67, 0
14, 109800, Note_on_c, 12, 66, 76
14, 109847, Note_on_c, 12, 66, 0
14, 109860, Note_on_c, 12, 67, 76
14, 109907, Note_on_c, 12, 67, 0
14, 109920, Note_on_c, 12, 69, 76
14, 109967, Note_on_c, 12, 69, 0
14, 109980, Note_on_c, 12, 67, 76
14, 110027, Note_on_c, 12, 67, 0
14, 110040, Note_on_c, 12, 66, 76
14, 110087, Note_on_c, 12, 66, 0
14, 110100, Note_on_c, 12, 67, 76
14, 110147, Note_on_c, 12, 67, 0
14, 110160, Note_on_c, 12, 69, 76
14, 110207, Note_on_c, 12, 69, 0
14, 110220, Note_on_c, 12, 67, 76
14, 110267, Note_on_c, 12, 67, 0
14, 110280, Note_on_c, 12, 66, 76
14, 110327, Note_on_c, 12, 66, 0
14, 110340, Note_on_c, 12, 64, 76
14, 110387, Note_on_c, 12, 64, 0
14, 110400, Note_on_c, 12, 62, 76
14, 110447, Note_on_c, 12, 62, 0
14, 110460, Note_on_c, 12, 59, 76
14, 110507, Note_on_c, 12, 59, 0
14, 110520, Note_on_c, 12, 64, 76
14, 110567, Note_on_c, 12, 64, 0
14, 110580, Note_on_c, 12, 66, 76
14, 110627, Note_on_c, 12, 66, 0
14, 110640, Note_on_c, 12, 68, 76
14, 110687, Note_on_c, 12, 68, 0
14, 110700, Note_on_c, 12, 69, 76
14, 110747, Note_on_c, 12, 69, 0
14, 110760, Note_on_c, 12, 68, 76
14, 110807, Note_on_c, 12, 68, 0
14, 110820, Note_on_c, 12, 69, 76
14, 110867, Note_on_c, 12, 69, 0
14, 110880, Note_on_c, 12, 71, 76
14, 110927, Note_on_c, 12, 71, 0
14, 110940, Note_on_c, 12, 69, 76
14, 110987, Note_on_c, 12, 69, 0
14, 111000, Note_on_c, 12, 68, 76
14, 111047, Note_on_c, 12, 68, 0
14, 111060, Note_on_c, 12, 69, 76
14, 111107, Note_on_c, 12, 69, 0
14, 111120, Note_on_c, 12, 71, 76
14, 111167, Note_on_c, 12, 71, 0
14, 111180, Note_on_c, 12, 69, 76
14, 111227, Note_on_c, 12, 69, 0
14, 111240, Note_on_c, 12, 68, 76
14, 111287, Note_on_c, 12, 68, 0
14, 111300, Note_on_c, 12, 66, 76
14, 111347, Note_on_c, 12, 66, 0
14, 111360, Note_on_c, 12, 64, 76
14, 111464, Note_on_c, 12, 64, 0
14, 111480, Note_on_c, 12, 57, 76
14, 111527, Note_on_c, 12, 57, 0
14, 111540, Note_on_c, 12, 59, 76
14, 111587, Note_on_c, 12, 59, 0
14, 111600, Note_on_c, 12, 61, 76
14, 111704, Note_on_c, 12, 61, 0
14, 111720, Note_on_c, 12, 61, 76
14, 111767, Note_on_c, 12, 61, 0
14, 111780, Note_on_c, 12, 62, 76
14, 111827, Note_on_c, 12, 62, 0
14, 111840, Note_on_c, 12, 64, 76
14, 111944, Note_on_c, 12, 64, 0
14, 111960, Note_on_c, 12, 61, 76
14, 112007, Note_on_c, 12, 61, 0
14, 112020, Note_on_c, 12, 62, 76
14, 112067, Note_on_c, 12, 62, 0
14, 112080, Note_on_c, 12, 64, 76
14, 112184, Note_on_c, 12, 64, 0
14, 112200, Note_on_c, 12, 64, 76
14, 112247, Note_on_c, 12, 64, 0
14, 112260, Note_on_c, 12, 66, 76
14, 112307, Note_on_c, 12, 66, 0
14, 112320, Note_on_c, 12, 67, 76
14, 112424, Note_on_c, 12, 67, 0
14, 112440, Note_on_c, 12, 67, 76
14, 112487, Note_on_c, 12, 67, 0
14, 112500, Note_on_c, 12, 66, 76
14, 112547, Note_on_c, 12, 66, 0
14, 112560, Note_on_c, 12, 67, 76
14, 112664, Note_on_c, 12, 67, 0
14, 112680, Note_on_c, 12, 69, 76
14, 112727, Note_on_c, 12, 69, 0
14, 112740, Note_on_c, 12, 67, 76
14, 112787, Note_on_c, 12, 67, 0
14, 112800, Note_on_c, 12, 66, 76
14, 112904, Note_on_c, 12, 66, 0
14, 112920, Note_on_c, 12, 69, 76
14, 113024, Note_on_c, 12, 69, 0
14, 113040, Note_on_c, 12, 62, 76
14, 113144, Note_on_c, 12, 62, 0
14, 113160, Note_on_c, 12, 66, 76
14, 113384, Note_on_c, 12, 66, 0
14, 113400, Note_on_c, 12, 69, 76
14, 113504, Note_on_c, 12, 69, 0
14, 113520, Note_on_c, 12, 60, 76
14, 113624, Note_on_c, 12, 60, 0
14, 113640, Note_on_c, 12, 66, 76
14, 113864, Note_on_c, 12, 66, 0
14, 113880, Note_on_c, 12, 69, 76
14, 113984, Note_on_c, 12, 69, 0
14, 114000, Note_on_c, 12, 62, 76
14, 114104, Note_on_c, 12, 62, 0
14, 114120, Note_on_c, 12, 66, 76
14, 114224, Note_on_c, 12, 66, 0
14, 114240, Note_on_c, 12, 67, 76
14, 114287, Note_on_c, 12, 67, 0
14, 114300, Note_on_c, 12, 71, 76
14, 114347, Note_on_c, 12, 71, 0
14, 114360, Note_on_c, 12, 68, 76
14, 114407, Note_on_c, 12, 68, 0
14, 114420, Note_on_c, 12, 69, 76
14, 114467, Note_on_c, 12, 69, 0
14, 114480, Note_on_c, 12, 71, 76
14, 114527, Note_on_c, 12, 71, 0
14, 114540, Note_on_c, 12, 73, 76
14, 114587, Note_on_c, 12, 73, 0
14, 114600, Note_on_c, 12, 71, 76
14, 114647, Note_on_c, 12, 71, 0
14, 114660, Note_on_c, 12, 73, 76
14, 114707, Note_on_c, 12, 73, 0
14, 114720, Note_on_c, 12, 74, 76
14, 114767, Note_on_c, 12, 74, 0
14, 114780, Note_on_c, 12, 71, 76
14, 114827, Note_on_c, 12, 71, 0
14, 114840, Note_on_c, 12, 64, 76
14, 114887, Note_on_c, 12, 64, 0
14, 114900, Note_on_c, 12, 66, 76
14, 114947, Note_on_c, 12, 66, 0
14, 114960, Note_on_c, 12, 68, 76
14, 115007, Note_on_c, 12, 68, 0
14, 115020, Note_on_c, 12, 69, 76
14, 115067, Note_on_c, 12, 69, 0
14, 115080, Note_on_c, 12, 68, 76
14, 115127, Note_on_c, 12, 68, 0
14, 115140, Note_on_c, 12, 69, 76
14, 115187, Note_on_c, 12, 69, 0
14, 115200, Note_on_c, 12, 71, 76
14, 115247, Note_on_c, 12, 71, 0
14, 115260, Note_on_c, 12, 69, 76
14, 115307, Note_on_c, 12, 69, 0
14, 115320, Note_on_c, 12, 68, 76
14, 115367, Note_on_c, 12, 68, 0
14, 115380, Note_on_c, 12, 69, 76
14, 115427, Note_on_c, 12, 69, 0
14, 115440, Note_on_c, 12, 71, 76
14, 115487, Note_on_c, 12, 71, 0
14, 115500, Note_on_c, 12, 69, 76
14, 115547, Note_on_c, 12, 69, 0
14, 115560, Note_on_c, 12, 68, 76
14, 115607, Note_on_c, 12, 68, 0
14, 115620, Note_on_c, 12, 66, 76
14, 115667, Note_on_c, 12, 66, 0
14, 115680, Note_on_c, 12, 64, 76
14, 115784, Note_on_c, 12, 64, 0
14, 115800, Note_on_c, 12, 69, 76
14, 115904, Note_on_c, 12, 69, 0
14, 115920, Note_on_c, 12, 69, 76
14, 116024, Note_on_c, 12, 69, 0
14, 116040, Note_on_c, 12, 69, 76
14, 116144, Note_on_c, 12, 69, 0
14, 116160, Note_on_c, 12, 69, 76
14, 116264, Note_on_c, 12, 69, 0
14, 116280, Note_on_c, 12, 69, 76
14, 116384, Note_on_c, 12, 69, 0
14, 116400, Note_on_c, 12, 69, 76
14, 116504, Note_on_c, 12, 69, 0
14, 116520, Note_on_c, 12, 69, 76
14, 116624, Note_on_c, 12, 69, 0
14, 116640, Note_on_c, 12, 69, 76
14, 116744, Note_on_c, 12, 69, 0
14, 116760, Note_on_c, 12, 69, 76
14, 116864, Note_on_c, 12, 69, 0
14, 116880, Note_on_c, 12, 69, 76
14, 116984, Note_on_c, 12, 69, 0
14, 117000, Note_on_c, 12, 69, 76
14, 117104, Note_on_c, 12, 69, 0
14, 117120, Note_on_c, 12, 69, 76
14, 117224, Note_on_c, 12, 69, 0
14, 117240, Note_on_c, 12, 62, 76
14, 117287, Note_on_c, 12, 62, 0
14, 117300, Note_on_c, 12, 64, 76
14, 117347, Note_on_c, 12, 64, 0
14, 117360, Note_on_c, 12, 62, 76
14, 117407, Note_on_c, 12, 62, 0
14, 117420, Note_on_c, 12, 61, 76
14, 117467, Note_on_c, 12, 61, 0
14, 117480, Note_on_c, 12, 59, 76
14, 117527, Note_on_c, 12, 59, 0
14, 117540, Note_on_c, 12, 62, 76
14, 117587, Note_on_c, 12, 62, 0
14, 117600, Note_on_c, 12, 61, 76
14, 117647, Note_on_c, 12, 61, 0
14, 117660, Note_on_c, 12, 62, 76
14, 117707, Note_on_c, 12, 62, 0
14, 117720, Note_on_c, 12, 61, 76
14, 117767, Note_on_c, 12, 61, 0
14, 117780, Note_on_c, 12, 59, 76
14, 117827, Note_on_c, 12, 59, 0
14, 117840, Note_on_c, 12, 58, 76
14, 117944, Note_on_c, 12, 58, 0
14, 117960, Note_on_c, 12, 61, 76
14, 118064, Note_on_c, 12, 61, 0
14, 118080, Note_on_c, 12, 62, 76
14, 118184, Note_on_c, 12, 62, 0
14, 118200, Note_on_c, 12, 66, 76
14, 118304, Note_on_c, 12, 66, 0
14, 118320, Note_on_c, 12, 59, 76
14, 118424, Note_on_c, 12, 59, 0
14, 118440, Note_on_c, 12, 62, 76
14, 118664, Note_on_c, 12, 62, 0
14, 118680, Note_on_c, 12, 74, 76
14, 118784, Note_on_c, 12, 74, 0
14, 118800, Note_on_c, 12, 74, 76
14, 118904, Note_on_c, 12, 74, 0
14, 118920, Note_on_c, 12, 74, 76
14, 119024, Note_on_c, 12, 74, 0
14, 119040, Note_on_c, 12, 74, 76
14, 119144, Note_on_c, 12, 74, 0
14, 119160, Note_on_c, 12, 74, 76
14, 119264, Note_on_c, 12, 74, 0
14, 119280, Note_on_c, 12, 74, 76
14, 119384, Note_on_c, 12, 74, 0
14, 119400, Note_on_c, 12, 69, 76
14, 119504, Note_on_c, 12, 69, 0
14, 119520, Note_on_c, 12, 71, 76
14, 119624, Note_on_c, 12, 71, 0
14, 119640, Note_on_c, 12, 71, 76
14, 119744, Note_on_c, 12, 71, 0
14, 119760, Note_on_c, 12, 71, 76
14, 119864, Note_on_c, 12, 71, 0
14, 119880, Note_on_c, 12, 71, 76
14, 119984, Note_on_c, 12, 71, 0
14, 120000, Note_on_c, 12, 69, 76
14, 120104, Note_on_c, 12, 69, 0
14, 120120, Note_on_c, 12, 69, 76
14, 120224, Note_on_c, 12, 69, 0
14, 120240, Note_on_c, 12, 69, 76
14, 120344, Note_on_c, 12, 69, 0
14, 120360, Note_on_c, 12, 69, 76
14, 120464, Note_on_c, 12, 69, 0
14, 120480, Note_on_c, 12, 67, 76
14, 120584, Note_on_c, 12, 67, 0
14, 120600, Note_on_c, 12, 69, 76
14, 120704, Note_on_c, 12, 69, 0
14, 120720, Note_on_c, 12, 69, 76
14, 120824, Note_on_c, 12, 69, 0
14, 120840, Note_on_c, 12, 69, 76
14, 120944, Note_on_c, 12, 69, 0
14, 120960, Note_on_c, 12, 69, 76
14, 121064, Note_on_c, 12, 69, 0
14, 121080, Note_on_c, 12, 69, 76
14, 121184, Note_on_c, 12, 69, 0
14, 121200, Note_on_c, 12, 69, 76
14, 121304, Note_on_c, 12, 69, 0
14, 121320, Note_on_c, 12, 69, 76
14, 121424, Note_on_c, 12, 69, 0
14, 121440, Note_on_c, 12, 69, 76
14, 121544, Note_on_c, 12, 69, 0
14, 121560, Note_on_c, 12, 69, 76
14, 121664, Note_on_c, 12, 69, 0
14, 121680, Note_on_c, 12, 69, 76
14, 121784, Note_on_c, 12, 69, 0
14, 121800, Note_on_c, 12, 69, 76
14, 121904, Note_on_c, 12, 69, 0
14, 121920, Note_on_c, 12, 69, 76
14, 122024, Note_on_c, 12, 69, 0
14, 122040, Note_on_c, 12, 69, 76
14, 122144, Note_on_c, 12, 69, 0
14, 122160, Note_on_c, 12, 69, 76
14, 122264, Note_on_c, 12, 69, 0
14, 122280, Note_on_c, 12, 69, 76
14, 122384, Note_on_c, 12, 69, 0
14, 122400, Note_on_c, 12, 69, 76
14, 122504, Note_on_c, 12, 69, 0
14, 122520, Note_on_c, 12, 62, 76
14, 122624, Note_on_c, 12, 62, 0
14, 122640, Note_on_c, 12, 66, 76
14, 122744, Note_on_c, 12, 66, 0
14, 122760, Note_on_c, 12, 71, 76
14, 122864, Note_on_c, 12, 71, 0
14, 122880, Note_on_c, 12, 71, 76
14, 122984, Note_on_c, 12, 71, 0
14, 123000, Note_on_c, 12, 73, 76
14, 123047, Note_on_c, 12, 73, 0
14, 123060, Note_on_c, 12, 74, 76
14, 123107, Note_on_c, 12, 74, 0
14, 123120, Note_on_c, 12, 73, 76
14, 123224, Note_on_c, 12, 73, 0
14, 123240, Note_on_c, 12, 69, 76
14, 123344, Note_on_c, 12, 69, 0
14, 123360, Note_on_c, 12, 69, 76
14, 123464, Note_on_c, 12, 69, 0
14, 123480, Note_on_c, 12, 69, 76
14, 123584, Note_on_c, 12, 69, 0
14, 123600, Note_on_c, 12, 67, 76
14, 123704, Note_on_c, 12, 67, 0
14, 123720, Note_on_c, 12, 71, 76
14, 123824, Note_on_c, 12, 71, 0
14, 123840, Note_on_c, 12, 69, 76
14, 123944, Note_on_c, 12, 69, 0
14, 123960, Note_on_c, 12, 64, 76
14, 124064, Note_on_c, 12, 64, 0
14, 124080, Note_on_c, 12, 69, 76
14, 124184, Note_on_c, 12, 69, 0
14, 124200, Note_on_c, 12, 69, 76
14, 124304, Note_on_c, 12, 69, 0
14, 124320, Note_on_c, 12, 69, 76
14, 124367, Note_on_c, 12, 69, 0
14, 124380, Note_on_c, 12, 67, 76
14, 124427, Note_on_c, 12, 67, 0
14, 124440, Note_on_c, 12, 66, 76
14, 124487, Note_on_c, 12, 66, 0
14, 124500, Note_on_c, 12, 67, 76
14, 124547, Note_on_c, 12, 67, 0
14, 124560, Note_on_c, 12, 64, 76
14, 124664, Note_on_c, 12, 64, 0
14, 124680, Note_on_c, 12, 64, 76
14, 124784, Note_on_c, 12, 64, 0
14, 124800, Note_on_c, 12, 66, 76
14, 125039, Note_on_c, 12, 66, 0
14, 125220, Note_on_c, 12, 62, 76
14, 125273, Note_on_c, 12, 62, 0
14, 125280, Note_on_c, 12, 62, 76
14, 125453, Note_on_c, 12, 62, 0
14, 125460, Note_on_c, 12, 66, 76
14, 125513, Note_on_c, 12, 66, 0
14, 125520, Note_on_c, 12, 66, 76
14, 125693, Note_on_c, 12, 66, 0
14, 125700, Note_on_c, 12, 69, 76
14, 125753, Note_on_c, 12, 69, 0
14, 125760, Note_on_c, 12, 69, 76
14, 125933, Note_on_c, 12, 69, 0
14, 125940, Note_on_c, 12, 57, 76
14, 125993, Note_on_c, 12, 57, 0
14, 126000, Note_on_c, 12, 57, 76
14, 126173, Note_on_c, 12, 57, 0
14, 126180, Note_on_c, 12, 62, 76
14, 126233, Note_on_c, 12, 62, 0
14, 126240, Note_on_c, 12, 66, 76
14, 126413, Note_on_c, 12, 66, 0
14, 126420, Note_on_c, 12, 69, 76
14, 126473, Note_on_c, 12, 69, 0
14, 126480, Note_on_c, 12, 69, 76
14, 126653, Note_on_c, 12, 69, 0
14, 126660, Note_on_c, 12, 66, 76
14, 126713, Note_on_c, 12, 66, 0
14, 126720, Note_on_c, 12, 62, 76
14, 126893, Note_on_c, 12, 62, 0
14, 126900, Note_on_c, 12, 57, 76
14, 126953, Note_on_c, 12, 57, 0
14, 126960, Note_on_c, 12, 57, 76
14, 127133, Note_on_c, 12, 57, 0
14, 127140, Note_on_c, 12, 60, 76
14, 127193, Note_on_c, 12, 60, 0
14, 127200, Note_on_c, 12, 62, 76
14, 127373, Note_on_c, 12, 62, 0
14, 127380, Note_on_c, 12, 64, 76
14, 127433, Note_on_c, 12, 64, 0
14, 127440, Note_on_c, 12, 62, 76
14, 127613, Note_on_c, 12, 62, 0
14, 127620, Note_on_c, 12, 62, 76
14, 127673, Note_on_c, 12, 62, 0
14, 127680, Note_on_c, 12, 62, 76
14, 128027, Note_on_c, 12, 62, 0
14, 128040, Note_on_c, 12, 62, 76
14, 128147, Note_on_c, 12, 62, 0
14, 128160, Note_on_c, 12, 67, 76
14, 128333, Note_on_c, 12, 67, 0
14, 128340, Note_on_c, 12, 71, 76
14, 128393, Note_on_c, 12, 71, 0
14, 128400, Note_on_c, 12, 71, 76
14, 128573, Note_on_c, 12, 71, 0
14, 128580, Note_on_c, 12, 67, 76
14, 128633, Note_on_c, 12, 67, 0
14, 128640, Note_on_c, 12, 69, 76
14, 128987, Note_on_c, 12, 69, 0
14, 129000, Note_on_c, 12, 67, 76
14, 129107, Note_on_c, 12, 67, 0
14, 129120, Note_on_c, 12, 66, 76
14, 129293, Note_on_c, 12, 66, 0
14, 129300, Note_on_c, 12, 64, 76
14, 129353, Note_on_c, 12, 64, 0
14, 129360, Note_on_c, 12, 66, 76
14, 129533, Note_on_c, 12, 66, 0
14, 129540, Note_on_c, 12, 67, 76
14, 129593, Note_on_c, 12, 67, 0
14, 129600, Note_on_c, 12, 66, 76
14, 129773, Note_on_c, 12, 66, 0
14, 129780, Note_on_c, 12, 69, 76
14, 129833, Note_on_c, 12, 69, 0
14, 129840, Note_on_c, 12, 69, 76
14, 130013, Note_on_c, 12, 69, 0
14, 130020, Note_on_c, 12, 72, 76
14, 130073, Note_on_c, 12, 72, 0
14, 130080, Note_on_c, 12, 66, 76
14, 130253, Note_on_c, 12, 66, 0
14, 130260, Note_on_c, 12, 59, 76
14, 130313, Note_on_c, 12, 59, 0
14, 130320, Note_on_c, 12, 64, 76
14, 130493, Note_on_c, 12, 64, 0
14, 130500, Note_on_c, 12, 71, 76
14, 130553, Note_on_c, 12, 71, 0
14, 130560, Note_on_c, 12, 71, 76
14, 130733, Note_on_c, 12, 71, 0
14, 130740, Note_on_c, 12, 69, 76
14, 130793, Note_on_c, 12, 69, 0
14, 130800, Note_on_c, 12, 71, 76
14, 130973, Note_on_c, 12, 71, 0
14, 130980, Note_on_c, 12, 72, 76
14, 131033, Note_on_c, 12, 72, 0
14, 131040, Note_on_c, 12, 71, 76
14, 131387, Note_on_c, 12, 71, 0
14, 131400, Note_on_c, 12, 71, 76
14, 131507, Note_on_c, 12, 71, 0
14, 131520, Note_on_c, 12, 71, 76
14, 131999, Note_on_c, 12, 71, 0
14, 132180, Note_on_c, 12, 64, 76
14, 132233, Note_on_c, 12, 64, 0
14, 132240, Note_on_c, 12, 64, 76
14, 132413, Note_on_c, 12, 64, 0
14, 132420, Note_on_c, 12, 68, 76
14, 132473, Note_on_c, 12, 68, 0
14, 132480, Note_on_c, 12, 64, 76
14, 132653, Note_on_c, 12, 64, 0
14, 132660, Note_on_c, 12, 69, 76
14, 132713, Note_on_c, 12, 69, 0
14, 132720, Note_on_c, 12, 69, 76
14, 132893, Note_on_c, 12, 69, 0
14, 132900, Note_on_c, 12, 67, 76
14, 132953, Note_on_c, 12, 67, 0
14, 132960, Note_on_c, 12, 66, 76
14, 133133, Note_on_c, 12, 66, 0
14, 133140, Note_on_c, 12, 66, 76
14, 133193, Note_on_c, 12, 66, 0
14, 133200, Note_on_c, 12, 66, 76
14, 133373, Note_on_c, 12, 66, 0
14, 133380, Note_on_c, 12, 64, 76
14, 133433, Note_on_c, 12, 64, 0
14, 133440, Note_on_c, 12, 62, 76
14, 133613, Note_on_c, 12, 62, 0
14, 133620, Note_on_c, 12, 59, 76
14, 133673, Note_on_c, 12, 59, 0
14, 133680, Note_on_c, 12, 66, 76
14, 133853, Note_on_c, 12, 66, 0
14, 133860, Note_on_c, 12, 62, 76
14, 133913, Note_on_c, 12, 62, 0
14, 133920, Note_on_c, 12, 62, 76
14, 134093, Note_on_c, 12, 62, 0
14, 134100, Note_on_c, 12, 59, 76
14, 134153, Note_on_c, 12, 59, 0
14, 134160, Note_on_c, 12, 64, 76
14, 134333, Note_on_c, 12, 64, 0
14, 134340, Note_on_c, 12, 64, 76
14, 134393, Note_on_c, 12, 64, 0
14, 134400, Note_on_c, 12, 64, 76
14, 134573, Note_on_c, 12, 64, 0
14, 134580, Note_on_c, 12, 69, 76
14, 134633, Note_on_c, 12, 69, 0
14, 134640, Note_on_c, 12, 69, 76
14, 134813, Note_on_c, 12, 69, 0
14, 134820, Note_on_c, 12, 64, 76
14, 134873, Note_on_c, 12, 64, 0
14, 134880, Note_on_c, 12, 69, 76
14, 135227, Note_on_c, 12, 69, 0
14, 135240, Note_on_c, 12, 69, 76
14, 135347, Note_on_c, 12, 69, 0
14, 135360, Note_on_c, 12, 69, 76
14, 135533, Note_on_c, 12, 69, 0
14, 135540, Note_on_c, 12, 66, 76
14, 135593, Note_on_c, 12, 66, 0
14, 135600, Note_on_c, 12, 66, 76
14, 135773, Note_on_c, 12, 66, 0
14, 135780, Note_on_c, 12, 62, 76
14, 135833, Note_on_c, 12, 62, 0
14, 135840, Note_on_c, 12, 57, 76
14, 136013, Note_on_c, 12, 57, 0
14, 136020, Note_on_c, 12, 62, 76
14, 136073, Note_on_c, 12, 62, 0
14, 136080, Note_on_c, 12, 66, 76
14, 136253, Note_on_c, 12, 66, 0
14, 136260, Note_on_c, 12, 69, 76
14, 136313, Note_on_c, 12, 69, 0
14, 136320, Note_on_c, 12, 67, 76
14, 136493, Note_on_c, 12, 67, 0
14, 136500, Note_on_c, 12, 62, 76
14, 136553, Note_on_c, 12, 62, 0
14, 136560, Note_on_c, 12, 64, 76
14, 136733, Note_on_c, 12, 64, 0
14, 136740, Note_on_c, 12, 66, 76
14, 136793, Note_on_c, 12, 66, 0
14, 136800, Note_on_c, 12, 67, 76
14, 136973, Note_on_c, 12, 67, 0
14, 136980, Note_on_c, 12, 64, 76
14, 137033, Note_on_c, 12, 64, 0
14, 137040, Note_on_c, 12, 66, 76
14, 137213, Note_on_c, 12, 66, 0
14, 137220, Note_on_c, 12, 67, 76
14, 137273, Note_on_c, 12, 67, 0
14, 137280, Note_on_c, 12, 64, 76
14, 137453, Note_on_c, 12, 64, 0
14, 137460, Note_on_c, 12, 69, 76
14, 137513, Note_on_c, 12, 69, 0
14, 137520, Note_on_c, 12, 69, 76
14, 137693, Note_on_c, 12, 69, 0
14, 137700, Note_on_c, 12, 64, 76
14, 137753, Note_on_c, 12, 64, 0
14, 137760, Note_on_c, 12, 64, 76
14, 137933, Note_on_c, 12, 64, 0
14, 137940, Note_on_c, 12, 61, 76
14, 137993, Note_on_c, 12, 61, 0
14, 138000, Note_on_c, 12, 62, 76
14, 138173, Note_on_c, 12, 62, 0
14, 138180, Note_on_c, 12, 64, 76
14, 138233, Note_on_c, 12, 64, 0
14, 138240, Note_on_c, 12, 57, 76
14, 138413, Note_on_c, 12, 57, 0
14, 138420, Note_on_c, 12, 64, 76
14, 138473, Note_on_c, 12, 64, 0
14, 138480, Note_on_c, 12, 62, 76
14, 138653, Note_on_c, 12, 62, 0
14, 138660, Note_on_c, 12, 67, 76
14, 138713, Note_on_c, 12, 67, 0
14, 138720, Note_on_c, 12, 64, 76
14, 139067, Note_on_c, 12, 64, 0
14, 139080, Note_on_c, 12, 66, 76
14, 139187, Note_on_c, 12, 66, 0
14, 139200, Note_on_c, 12, 66, 76
14, 139439, Note_on_c, 12, 66, 0
14, 143160, Note_on_c, 12, 57, 76
14, 143207, Note_on_c, 12, 57, 0
14, 143220, Note_on_c, 12, 59, 76
14, 143267, Note_on_c, 12, 59, 0
14, 143280, Note_on_c, 12, 61, 76
14, 143384, Note_on_c, 12, 61, 0
14, 143400, Note_on_c, 12, 61, 76
14, 143447, Note_on_c, 12, 61, 0
14, 143460, Note_on_c, 12, 62, 76
14, 143507, Note_on_c, 12, 62, 0
14, 143520, Note_on_c, 12, 64, 76
14, 143624, Note_on_c, 12, 64, 0
14, 143640, Note_on_c, 12, 61, 76
14, 143687, Note_on_c, 12, 61, 0
14, 143700, Note_on_c, 12, 62, 76
14, 143747, Note_on_c, 12, 62, 0
14, 143760, Note_on_c, 12, 64, 76
14, 143864, Note_on_c, 12, 64, 0
14, 143880, Note_on_c, 12, 64, 76
14, 143927, Note_on_c, 12, 64, 0
14, 143940, Note_on_c, 12, 66, 76
14, 143987, Note_on_c, 12, 66, 0
14, 144000, Note_on_c, 12, 67, 76
14, 144104, Note_on_c, 12, 67, 0
14, 144120, Note_on_c, 12, 67, 76
14, 144167, Note_on_c, 12, 67, 0
14, 144180, Note_on_c, 12, 66, 76
14, 144227, Note_on_c, 12, 66, 0
14, 144240, Note_on_c, 12, 67, 76
14, 144344, Note_on_c, 12, 67, 0
14, 144360, Note_on_c, 12, 69, 76
14, 144407, Note_on_c, 12, 69, 0
14, 144420, Note_on_c, 12, 67, 76
14, 144467, Note_on_c, 12, 67, 0
14, 144480, Note_on_c, 12, 66, 76
14, 144584, Note_on_c, 12, 66, 0
14, 144600, Note_on_c, 12, 69, 76
14, 144704, Note_on_c, 12, 69, 0
14, 144720, Note_on_c, 12, 62, 76
14, 144824, Note_on_c, 12, 62, 0
14, 144840, Note_on_c, 12, 66, 76
14, 145064, Note_on_c, 12, 66, 0
14, 145080, Note_on_c, 12, 69, 76
14, 145184, Note_on_c, 12, 69, 0
14, 145200, Note_on_c, 12, 60, 76
14, 145304, Note_on_c, 12, 60, 0
14, 145320, Note_on_c, 12, 66, 76
14, 145544, Note_on_c, 12, 66, 0
14, 145560, Note_on_c, 12, 69, 76
14, 145664, Note_on_c, 12, 69, 0
14, 145680, Note_on_c, 12, 62, 76
14, 145784, Note_on_c, 12, 62, 0
14, 145800, Note_on_c, 12, 66, 76
14, 145904, Note_on_c, 12, 66, 0
14, 145920, Note_on_c, 12, 67, 76
14, 145967, Note_on_c, 12, 67, 0
14, 145980, Note_on_c, 12, 71, 76
14, 146027, Note_on_c, 12, 71, 0
14, 146040, Note_on_c, 12, 68, 76
14, 146087, Note_on_c, 12, 68, 0
14, 146100, Note_on_c, 12, 69, 76
14, 146147, Note_on_c, 12, 69, 0
14, 146160, Note_on_c, 12, 71, 76
14, 146207, Note_on_c, 12, 71, 0
14, 146220, Note_on_c, 12, 73, 76
14, 146267, Note_on_c, 12, 73, 0
14, 146280, Note_on_c, 12, 71, 76
14, 146327, Note_on_c, 12, 71, 0
14, 146340, Note_on_c, 12, 73, 76
14, 146387, Note_on_c, 12, 73, 0
14, 146400, Note_on_c, 12, 74, 76
14, 146447, Note_on_c, 12, 74, 0
14, 146460, Note_on_c, 12, 71, 76
14, 146507, Note_on_c, 12, 71, 0
14, 146520, Note_on_c, 12, 64, 76
14, 146567, Note_on_c, 12, 64, 0
14, 146580, Note_on_c, 12, 66, 76
14, 146627, Note_on_c, 12, 66, 0
14, 146640, Note_on_c, 12, 68, 76
14, 146687, Note_on_c, 12, 68, 0
14, 146700, Note_on_c, 12, 69, 76
14, 146747, Note_on_c, 12, 69, 0
14, 146760, Note_on_c, 12, 68, 76
14, 146807, Note_on_c, 12, 68, 0
14, 146820, Note_on_c, 12, 69, 76
14, 146867, Note_on_c, 12, 69, 0
14, 146880, Note_on_c, 12, 71, 76
14, 146927, Note_on_c, 12, 71, 0
14, 146940, Note_on_c, 12, 69, 76
14, 146987, Note_on_c, 12, 69, 0
14, 147000, Note_on_c, 12, 68, 76
14, 147047, Note_on_c, 12, 68, 0
14, 147060, Note_on_c, 12, 69, 76
14, 147107, Note_on_c, 12, 69, 0
14, 147120, Note_on_c, 12, 71, 76
14, 147167, Note_on_c, 12, 71, 0
14, 147180, Note_on_c, 12, 69, 76
14, 147227, Note_on_c, 12, 69, 0
14, 147240, Note_on_c, 12, 68, 76
14, 147287, Note_on_c, 12, 68, 0
14, 147300, Note_on_c, 12, 66, 76
14, 147347, Note_on_c, 12, 66, 0
14, 147360, Note_on_c, 12, 64, 76
14, 147599, Note_on_c, 12, 64, 0
14, 147720, Note_on_c, 12, 69, 76
14, 147824, Note_on_c, 12, 69, 0
14, 147840, Note_on_c, 12, 69, 76
14, 147944, Note_on_c, 12, 69, 0
14, 147960, Note_on_c, 12, 69, 76
14, 148064, Note_on_c, 12, 69, 0
14, 148080, Note_on_c, 12, 69, 76
14, 148184, Note_on_c, 12, 69, 0
14, 148200, Note_on_c, 12, 69, 76
14, 148304, Note_on_c, 12, 69, 0
14, 148320, Note_on_c, 12, 69, 76
14, 148424, Note_on_c, 12, 69, 0
14, 148440, Note_on_c, 12, 69, 76
14, 148544, Note_on_c, 12, 69, 0
14, 148560, Note_on_c, 12, 69, 76
14, 148664, Note_on_c, 12, 69, 0
14, 148680, Note_on_c, 12, 69, 76
14, 148784, Note_on_c, 12, 69, 0
14, 148800, Note_on_c, 12, 69, 76
14, 148904, Note_on_c, 12, 69, 0
14, 148920, Note_on_c, 12, 62, 76
14, 148967, Note_on_c, 12, 62, 0
14, 148980, Note_on_c, 12, 64, 76
14, 149027, Note_on_c, 12, 64, 0
14, 149040, Note_on_c, 12, 62, 76
14, 149087, Note_on_c, 12, 62, 0
14, 149100, Note_on_c, 12, 61, 76
14, 149147, Note_on_c, 12, 61, 0
14, 149160, Note_on_c, 12, 59, 76
14, 149207, Note_on_c, 12, 59, 0
14, 149220, Note_on_c, 12, 62, 76
14, 149267, Note_on_c, 12, 62, 0
14, 149280, Note_on_c, 12, 61, 76
14, 149327, Note_on_c, 12, 61, 0
14, 149340, Note_on_c, 12, 62, 76
14, 149387, Note_on_c, 12, 62, 0
14, 149400, Note_on_c, 12, 61, 76
14, 149447, Note_on_c, 12, 61, 0
14, 149460, Note_on_c, 12, 59, 76
14, 149507, Note_on_c, 12, 59, 0
14, 149520, Note_on_c, 12, 58, 76
14, 149624, Note_on_c, 12, 58, 0
14, 149640, Note_on_c, 12, 61, 76
14, 149744, Note_on_c, 12, 61, 0
14, 149760, Note_on_c, 12, 62, 76
14, 149864, Note_on_c, 12, 62, 0
14, 149880, Note_on_c, 12, 66, 76
14, 149984, Note_on_c, 12, 66, 0
14, 150000, Note_on_c, 12, 59, 76
14, 150104, Note_on_c, 12, 59, 0
14, 150120, Note_on_c, 12, 62, 76
14, 150344, Note_on_c, 12, 62, 0
14, 150360, Note_on_c, 12, 74, 76
14, 150464, Note_on_c, 12, 74, 0
14, 150480, Note_on_c, 12, 74, 76
14, 150584, Note_on_c, 12, 74, 0
14, 150600, Note_on_c, 12, 74, 76
14, 150704, Note_on_c, 12, 74, 0
14, 150720, Note_on_c, 12, 74, 76
14, 150824, Note_on_c, 12, 74, 0
14, 150840, Note_on_c, 12, 74, 76
14, 150944, Note_on_c, 12, 74, 0
14, 150960, Note_on_c, 12, 74, 76
14, 151064, Note_on_c, 12, 74, 0
14, 151080, Note_on_c, 12, 69, 76
14, 151184, Note_on_c, 12, 69, 0
14, 151200, Note_on_c, 12, 71, 76
14, 151304, Note_on_c, 12, 71, 0
14, 151320, Note_on_c, 12, 71, 76
14, 151424, Note_on_c, 12, 71, 0
14, 151440, Note_on_c, 12, 71, 76
14, 151544, Note_on_c, 12, 71, 0
14, 151560, Note_on_c, 12, 71, 76
14, 151664, Note_on_c, 12, 71, 0
14, 151680, Note_on_c, 12, 69, 76
14, 151784, Note_on_c, 12, 69, 0
14, 151800, Note_on_c, 12, 69, 76
14, 151904, Note_on_c, 12, 69, 0
14, 151920, Note_on_c, 12, 69, 76
14, 152024, Note_on_c, 12, 69, 0
14, 152040, Note_on_c, 12, 69, 76
14, 152144, Note_on_c, 12, 69, 0
14, 152160, Note_on_c, 12, 67, 76
14, 152264, Note_on_c, 12, 67, 0
14, 152280, Note_on_c, 12, 69, 76
14, 152384, Note_on_c, 12, 69, 0
14, 152400, Note_on_c, 12, 69, 76
14, 152504, Note_on_c, 12, 69, 0
14, 152520, Note_on_c, 12, 69, 76
14, 152624, Note_on_c, 12, 69, 0
14, 152640, Note_on_c, 12, 69, 76
14, 152744, Note_on_c, 12, 69, 0
14, 152760, Note_on_c, 12, 69, 76
14, 152864, Note_on_c, 12, 69, 0
14, 152880, Note_on_c, 12, 69, 76
14, 152984, Note_on_c, 12, 69, 0
14, 153000, Note_on_c, 12, 69, 76
14, 153104, Note_on_c, 12, 69, 0
14, 153120, Note_on_c, 12, 69, 76
14, 153224, Note_on_c, 12, 69, 0
14, 153240, Note_on_c, 12, 69, 76
14, 153344, Note_on_c, 12, 69, 0
14, 153360, Note_on_c, 12, 69, 76
14, 153464, Note_on_c, 12, 69, 0
14, 153480, Note_on_c, 12, 69, 76
14, 153584, Note_on_c, 12, 69, 0
14, 153600, Note_on_c, 12, 69, 76
14, 153704, Note_on_c, 12, 69, 0
14, 153720, Note_on_c, 12, 69, 76
14, 153824, Note_on_c, 12, 69, 0
14, 153840, Note_on_c, 12, 69, 76
14, 153944, Note_on_c, 12, 69, 0
14, 153960, Note_on_c, 12, 69, 76
14, 154064, Note_on_c, 12, 69, 0
14, 154080, Note_on_c, 12, 69, 76
14, 154184, Note_on_c, 12, 69, 0
14, 154200, Note_on_c, 12, 62, 76
14, 154304, Note_on_c, 12, 62, 0
14, 154320, Note_on_c, 12, 66, 76
14, 154424, Note_on_c, 12, 66, 0
14, 154440, Note_on_c, 12, 71, 76
14, 154544, Note_on_c, 12, 71, 0
14, 154560, Note_on_c, 12, 71, 76
14, 154664, Note_on_c, 12, 71, 0
14, 154680, Note_on_c, 12, 73, 76
14, 154727, Note_on_c, 12, 73, 0
14, 154740, Note_on_c, 12, 74, 76
14, 154787, Note_on_c, 12, 74, 0
14, 154800, Note_on_c, 12, 73, 76
14, 154904, Note_on_c, 12, 73, 0
14, 154920, Note_on_c, 12, 69, 76
14, 155024, Note_on_c, 12, 69, 0
14, 155040, Note_on_c, 12, 69, 76
14, 155144, Note_on_c, 12, 69, 0
14, 155160, Note_on_c, 12, 69, 76
14, 155264, Note_on_c, 12, 69, 0
14, 155280, Note_on_c, 12, 67, 76
14, 155384, Note_on_c, 12, 67, 0
14, 155400, Note_on_c, 12, 71, 76
14, 155504, Note_on_c, 12, 71, 0
14, 155520, Note_on_c, 12, 69, 76
14, 155624, Note_on_c, 12, 69, 0
14, 155640, Note_on_c, 12, 64, 76
14, 155744, Note_on_c, 12, 64, 0
14, 155760, Note_on_c, 12, 69, 76
14, 155864, Note_on_c, 12, 69, 0
14, 155880, Note_on_c, 12, 69, 76
14, 155984, Note_on_c, 12, 69, 0
14, 156000, Note_on_c, 12, 69, 76
14, 156047, Note_on_c, 12, 69, 0
14, 156060, Note_on_c, 12, 67, 76
14, 156107, Note_on_c, 12, 67, 0
14, 156120, Note_on_c, 12, 66, 76
14, 156167, Note_on_c, 12, 66, 0
14, 156180, Note_on_c, 12, 67, 76
14, 156227, Note_on_c, 12, 67, 0
14, 156240, Note_on_c, 12, 64, 76
14, 156287, Note_on_c, 12, 64, 0
14, 156300, Note_on_c, 12, 66, 76
14, 156347, Note_on_c, 12, 66, 0
14, 156360, Note_on_c, 12, 67, 76
14, 156407, Note_on_c, 12, 67, 0
14, 156420, Note_on_c, 12, 64, 76
14, 156467, Note_on_c, 12, 64, 0
14, 156480, Note_on_c, 12, 66, 76
14, 156719, Note_on_c, 12, 66, 0
14, 156840, Note_on_c, 12, 64, 76
14, 156944, Note_on_c, 12, 64, 0
14, 156960, Note_on_c, 12, 62, 76
14, 157064, Note_on_c, 12, 62, 0
14, 157080, Note_on_c, 12, 66, 76
14, 157184, Note_on_c, 12, 66, 0
14, 157200, Note_on_c, 12, 67, 76
14, 157304, Note_on_c, 12, 67, 0
14, 157320, Note_on_c, 12, 67, 76
14, 157424, Note_on_c, 12, 67, 0
14, 157440, Note_on_c, 12, 66, 76
14, 157679, Note_on_c, 12, 66, 0
14, 157800, Note_on_c, 12, 64, 76
14, 157904, Note_on_c, 12, 64, 0
14, 157920, Note_on_c, 12, 64, 76
14, 158024, Note_on_c, 12, 64, 0
14, 158040, Note_on_c, 12, 66, 76
14, 158144, Note_on_c, 12, 66, 0
14, 158160, Note_on_c, 12, 66, 76
14, 158264, Note_on_c, 12, 66, 0
14, 158280, Note_on_c, 12, 71, 76
14, 158384, Note_on_c, 12, 71, 0
14, 158400, Note_on_c, 12, 73, 76
14, 158639, Note_on_c, 12, 73, 0
14, 158760, Note_on_c, 12, 73, 76
14, 158864, Note_on_c, 12, 73, 0
14, 158880, Note_on_c, 12, 73, 76
14, 158984, Note_on_c, 12, 73, 0
14, 159000, Note_on_c, 12, 73, 76
14, 159119, Note_on_c, 12, 73, 0
14, 159240, Note_on_c, 12, 71, 76
14, 159344, Note_on_c, 12, 71, 0
14, 159360, Note_on_c, 12, 70, 76
14, 159464, Note_on_c, 12, 70, 0
14, 159480, Note_on_c, 12, 70, 76
14, 159599, Note_on_c, 12, 70, 0
14, 159720, Note_on_c, 12, 70, 76
14, 159824, Note_on_c, 12, 70, 0
14, 159840, Note_on_c, 12, 66, 76
14, 159944, Note_on_c, 12, 66, 0
14, 159960, Note_on_c, 12, 66, 76
14, 160079, Note_on_c, 12, 66, 0
14, 160200, Note_on_c, 12, 66, 76
14, 160304, Note_on_c, 12, 66, 0
14, 160320, Note_on_c, 12, 66, 76
14, 160424, Note_on_c, 12, 66, 0
14, 160440, Note_on_c, 12, 62, 76
14, 160559, Note_on_c, 12, 62, 0
14, 160680, Note_on_c, 12, 66, 76
14, 160784, Note_on_c, 12, 66, 0
14, 160800, Note_on_c, 12, 63, 76
14, 160904, Note_on_c, 12, 63, 0
14, 160920, Note_on_c, 12, 69, 76
14, 161039, Note_on_c, 12, 69, 0
14, 161160, Note_on_c, 12, 63, 76
14, 161264, Note_on_c, 12, 63, 0
14, 161280, Note_on_c, 12, 63, 76
14, 161384, Note_on_c, 12, 63, 0
14, 161400, Note_on_c, 12, 66, 76
14, 161519, Note_on_c, 12, 66, 0
14, 161640, Note_on_c, 12, 66, 76
14, 161744, Note_on_c, 12, 66, 0
14, 161760, Note_on_c, 12, 66, 76
14, 161864, Note_on_c, 12, 66, 0
14, 161880, Note_on_c, 12, 66, 76
14, 161999, Note_on_c, 12, 66, 0
14, 162120, Note_on_c, 12, 71, 76
14, 162224, Note_on_c, 12, 71, 0
14, 162240, Note_on_c, 12, 71, 76
14, 162479, Note_on_c, 12, 71, 0
14, 164400, Note_on_c, 12, 73, 76
14, 164639, Note_on_c, 12, 73, 0
14, 164880, Note_on_c, 12, 70, 76
14, 165119, Note_on_c, 12, 70, 0
14, 165360, Note_on_c, 12, 66, 76
14, 165599, Note_on_c, 12, 66, 0
14, 165720, Note_on_c, 12, 59, 76
14, 165767, Note_on_c, 12, 59, 0
14, 165780, Note_on_c, 12, 61, 76
14, 165827, Note_on_c, 12, 61, 0
14, 165840, Note_on_c, 12, 63, 76
14, 165944, Note_on_c, 12, 63, 0
14, 165960, Note_on_c, 12, 63, 76
14, 166007, Note_on_c, 12, 63, 0
14, 166020, Note_on_c, 12, 64, 76
14, 166067, Note_on_c, 12, 64, 0
14, 166080, Note_on_c, 12, 66, 76
14, 166184, Note_on_c, 12, 66, 0
14, 166200, Note_on_c, 12, 63, 76
14, 166247, Note_on_c, 12, 63, 0
14, 166260, Note_on_c, 12, 64, 76
14, 166307, Note_on_c, 12, 64, 0
14, 166320, Note_on_c, 12, 66, 76
14, 166424, Note_on_c, 12, 66, 0
14, 166440, Note_on_c, 12, 66, 76
14, 166487, Note_on_c, 12, 66, 0
14, 166500, Note_on_c, 12, 68, 76
14, 166547, Note_on_c, 12, 68, 0
14, 166560, Note_on_c, 12, 69, 76
14, 166664, Note_on_c, 12, 69, 0
14, 166680, Note_on_c, 12, 69, 76
14, 166727, Note_on_c, 12, 69, 0
14, 166740, Note_on_c, 12, 68, 76
14, 166787, Note_on_c, 12, 68, 0
14, 166800, Note_on_c, 12, 69, 76
14, 166904, Note_on_c, 12, 69, 0
14, 166920, Note_on_c, 12, 71, 76
14, 166967, Note_on_c, 12, 71, 0
14, 166980, Note_on_c, 12, 69, 76
14, 167027, Note_on_c, 12, 69, 0
14, 167040, Note_on_c, 12, 68, 76
14, 167264, Note_on_c, 12, 68, 0
14, 167280, Note_on_c, 12, 71, 76
14, 167519, Note_on_c, 12, 71, 0
14, 167760, Note_on_c, 12, 68, 76
14, 167999, Note_on_c, 12, 68, 0
14, 168240, Note_on_c, 12, 64, 76
14, 168479, Note_on_c, 12, 64, 0
14, 168600, Note_on_c, 12, 57, 76
14, 168647, Note_on_c, 12, 57, 0
14, 168660, Note_on_c, 12, 59, 76
14, 168707, Note_on_c, 12, 59, 0
14, 168720, Note_on_c, 12, 61, 76
14, 168824, Note_on_c, 12, 61, 0
14, 168840, Note_on_c, 12, 61, 76
14, 168887, Note_on_c, 12, 61, 0
14, 168900, Note_on_c, 12, 62, 76
14, 168947, Note_on_c, 12, 62, 0
14, 168960, Note_on_c, 12, 64, 76
14, 169064, Note_on_c, 12, 64, 0
14, 169080, Note_on_c, 12, 61, 76
14, 169127, Note_on_c, 12, 61, 0
14, 169140, Note_on_c, 12, 62, 76
14, 169187, Note_on_c, 12, 62, 0
14, 169200, Note_on_c, 12, 64, 76
14, 169304, Note_on_c, 12, 64, 0
14, 169320, Note_on_c, 12, 64, 76
14, 169367, Note_on_c, 12, 64, 0
14, 169380, Note_on_c, 12, 66, 76
14, 169427, Note_on_c, 12, 66, 0
14, 169440, Note_on_c, 12, 67, 76
14, 169544, Note_on_c, 12, 67, 0
14, 169560, Note_on_c, 12, 67, 76
14, 169607, Note_on_c, 12, 67, 0
14, 169620, Note_on_c, 12, 66, 76
14, 169667, Note_on_c, 12, 66, 0
14, 169680, Note_on_c, 12, 67, 76
14, 169784, Note_on_c, 12, 67, 0
14, 169800, Note_on_c, 12, 69, 76
14, 169847, Note_on_c, 12, 69, 0
14, 169860, Note_on_c, 12, 67, 76
14, 169907, Note_on_c, 12, 67, 0
14, 169920, Note_on_c, 12, 66, 76
14, 170159, Note_on_c, 12, 66, 0
14, 171960, Note_on_c, 12, 69, 76
14, 172064, Note_on_c, 12, 69, 0
14, 172080, Note_on_c, 12, 69, 76
14, 172184, Note_on_c, 12, 69, 0
14, 172200, Note_on_c, 12, 69, 76
14, 172304, Note_on_c, 12, 69, 0
14, 172320, Note_on_c, 12, 69, 76
14, 172424, Note_on_c, 12, 69, 0
14, 172440, Note_on_c, 12, 69, 76
14, 172544, Note_on_c, 12, 69, 0
14, 172560, Note_on_c, 12, 69, 76
14, 172664, Note_on_c, 12, 69, 0
14, 172680, Note_on_c, 12, 69, 76
14, 172784, Note_on_c, 12, 69, 0
14, 172800, Note_on_c, 12, 69, 76
14, 172904, Note_on_c, 12, 69, 0
14, 172920, Note_on_c, 12, 69, 76
14, 173024, Note_on_c, 12, 69, 0
14, 173040, Note_on_c, 12, 69, 76
14, 173144, Note_on_c, 12, 69, 0
14, 173160, Note_on_c, 12, 69, 76
14, 173264, Note_on_c, 12, 69, 0
14, 173280, Note_on_c, 12, 69, 76
14, 173384, Note_on_c, 12, 69, 0
14, 173400, Note_on_c, 12, 71, 76
14, 173504, Note_on_c, 12, 71, 0
14, 173520, Note_on_c, 12, 71, 76
14, 173624, Note_on_c, 12, 71, 0
14, 173640, Note_on_c, 12, 71, 76
14, 173744, Note_on_c, 12, 71, 0
14, 173760, Note_on_c, 12, 71, 76
14, 173864, Note_on_c, 12, 71, 0
14, 173880, Note_on_c, 12, 71, 76
14, 173984, Note_on_c, 12, 71, 0
14, 174000, Note_on_c, 12, 71, 76
14, 174104, Note_on_c, 12, 71, 0
14, 174120, Note_on_c, 12, 71, 76
14, 174224, Note_on_c, 12, 71, 0
14, 174240, Note_on_c, 12, 71, 76
14, 174344, Note_on_c, 12, 71, 0
14, 174360, Note_on_c, 12, 71, 76
14, 174464, Note_on_c, 12, 71, 0
14, 174480, Note_on_c, 12, 71, 76
14, 174584, Note_on_c, 12, 71, 0
14, 174600, Note_on_c, 12, 71, 76
14, 174704, Note_on_c, 12, 71, 0
14, 174720, Note_on_c, 12, 71, 76
14, 174767, Note_on_c, 12, 71, 0
14, 174780, Note_on_c, 12, 76, 76
14, 174827, Note_on_c, 12, 76, 0
14, 174840, Note_on_c, 12, 68, 76
14, 174887, Note_on_c, 12, 68, 0
14, 174900, Note_on_c, 12, 69, 76
14, 174947, Note_on_c, 12, 69, 0
14, 174960, Note_on_c, 12, 71, 76
14, 175007, Note_on_c, 12, 71, 0
14, 175020, Note_on_c, 12, 73, 76
14, 175067, Note_on_c, 12, 73, 0
14, 175080, Note_on_c, 12, 71, 76
14, 175127, Note_on_c, 12, 71, 0
14, 175140, Note_on_c, 12, 73, 76
14, 175187, Note_on_c, 12, 73, 0
14, 175200, Note_on_c, 12, 74, 76
14, 175247, Note_on_c, 12, 74, 0
14, 175260, Note_on_c, 12, 71, 76
14, 175307, Note_on_c, 12, 71, 0
14, 175320, Note_on_c, 12, 64, 76
14, 175367, Note_on_c, 12, 64, 0
14, 175380, Note_on_c, 12, 66, 76
14, 175427, Note_on_c, 12, 66, 0
14, 175440, Note_on_c, 12, 68, 76
14, 175487, Note_on_c, 12, 68, 0
14, 175500, Note_on_c, 12, 69, 76
14, 175547, Note_on_c, 12, 69, 0
14, 175560, Note_on_c, 12, 68, 76
14, 175607, Note_on_c, 12, 68, 0
14, 175620, Note_on_c, 12, 69, 76
14, 175667, Note_on_c, 12, 69, 0
14, 175680, Note_on_c, 12, 71, 76
14, 175727, Note_on_c, 12, 71, 0
14, 175740, Note_on_c, 12, 69, 76
14, 175787, Note_on_c, 12, 69, 0
14, 175800, Note_on_c, 12, 68, 76
14, 175847, Note_on_c, 12, 68, 0
14, 175860, Note_on_c, 12, 69, 76
14, 175907, Note_on_c, 12, 69, 0
14, 175920, Note_on_c, 12, 71, 76
14, 175967, Note_on_c, 12, 71, 0
14, 175980, Note_on_c, 12, 69, 76
14, 176027, Note_on_c, 12, 69, 0
14, 176040, Note_on_c, 12, 68, 76
14, 176087, Note_on_c, 12, 68, 0
14, 176100, Note_on_c, 12, 66, 76
14, 176147, Note_on_c, 12, 66, 0
14, 176160, Note_on_c, 12, 64, 76
14, 176264, Note_on_c, 12, 64, 0
14, 176280, Note_on_c, 12, 61, 76
14, 176384, Note_on_c, 12, 61, 0
14, 176400, Note_on_c, 12, 66, 76
14, 176744, Note_on_c, 12, 66, 0
14, 176760, Note_on_c, 12, 65, 76
14, 176807, Note_on_c, 12, 65, 0
14, 176820, Note_on_c, 12, 66, 76
14, 176867, Note_on_c, 12, 66, 0
14, 176880, Note_on_c, 12, 68, 76
14, 176927, Note_on_c, 12, 68, 0
14, 176940, Note_on_c, 12, 66, 76
14, 176987, Note_on_c, 12, 66, 0
14, 177000, Note_on_c, 12, 65, 76
14, 177047, Note_on_c, 12, 65, 0
14, 177060, Note_on_c, 12, 63, 76
14, 177107, Note_on_c, 12, 63, 0
14, 177120, Note_on_c, 12, 61, 76
14, 177224, Note_on_c, 12, 61, 0
14, 177240, Note_on_c, 12, 61, 76
14, 177344, Note_on_c, 12, 61, 0
14, 177360, Note_on_c, 12, 54, 76
14, 177464, Note_on_c, 12, 54, 0
14, 177480, Note_on_c, 12, 57, 76
14, 177704, Note_on_c, 12, 57, 0
14, 177720, Note_on_c, 12, 69, 76
14, 177824, Note_on_c, 12, 69, 0
14, 177840, Note_on_c, 12, 69, 76
14, 177944, Note_on_c, 12, 69, 0
14, 177960, Note_on_c, 12, 69, 76
14, 178064, Note_on_c, 12, 69, 0
14, 178080, Note_on_c, 12, 69, 76
14, 178184, Note_on_c, 12, 69, 0
14, 178200, Note_on_c, 12, 69, 76
14, 178304, Note_on_c, 12, 69, 0
14, 178320, Note_on_c, 12, 69, 76
14, 178424, Note_on_c, 12, 69, 0
14, 178440, Note_on_c, 12, 64, 76
14, 178544, Note_on_c, 12, 64, 0
14, 178560, Note_on_c, 12, 66, 76
14, 178664, Note_on_c, 12, 66, 0
14, 178680, Note_on_c, 12, 66, 76
14, 178784, Note_on_c, 12, 66, 0
14, 178800, Note_on_c, 12, 66, 76
14, 178904, Note_on_c, 12, 66, 0
14, 178920, Note_on_c, 12, 66, 76
14, 179024, Note_on_c, 12, 66, 0
14, 179040, Note_on_c, 12, 64, 76
14, 179144, Note_on_c, 12, 64, 0
14, 179160, Note_on_c, 12, 67, 76
14, 179264, Note_on_c, 12, 67, 0
14, 179280, Note_on_c, 12, 66, 76
14, 179384, Note_on_c, 12, 66, 0
14, 179400, Note_on_c, 12, 66, 76
14, 179504, Note_on_c, 12, 66, 0
14, 179520, Note_on_c, 12, 71, 76
14, 179624, Note_on_c, 12, 71, 0
14, 179640, Note_on_c, 12, 66, 76
14, 179744, Note_on_c, 12, 66, 0
14, 179760, Note_on_c, 12, 71, 76
14, 179864, Note_on_c, 12, 71, 0
14, 179880, Note_on_c, 12, 71, 76
14, 179984, Note_on_c, 12, 71, 0
14, 180000, Note_on_c, 12, 70, 76
14, 180104, Note_on_c, 12, 70, 0
14, 180120, Note_on_c, 12, 73, 76
14, 180224, Note_on_c, 12, 73, 0
14, 180240, Note_on_c, 12, 66, 76
14, 180344, Note_on_c, 12, 66, 0
14, 180360, Note_on_c, 12, 70, 76
14, 180584, Note_on_c, 12, 70, 0
14, 180600, Note_on_c, 12, 73, 76
14, 180704, Note_on_c, 12, 73, 0
14, 180720, Note_on_c, 12, 64, 76
14, 180824, Note_on_c, 12, 64, 0
14, 180840, Note_on_c, 12, 70, 76
14, 181064, Note_on_c, 12, 70, 0
14, 181080, Note_on_c, 12, 73, 76
14, 181184, Note_on_c, 12, 73, 0
14, 181200, Note_on_c, 12, 66, 76
14, 181304, Note_on_c, 12, 66, 0
14, 181320, Note_on_c, 12, 70, 76
14, 181424, Note_on_c, 12, 70, 0
14, 181440, Note_on_c, 12, 71, 76
14, 181544, Note_on_c, 12, 71, 0
14, 181560, Note_on_c, 12, 59, 76
14, 181664, Note_on_c, 12, 59, 0
14, 181680, Note_on_c, 12, 62, 76
14, 181784, Note_on_c, 12, 62, 0
14, 181800, Note_on_c, 12, 66, 76
14, 181904, Note_on_c, 12, 66, 0
14, 181920, Note_on_c, 12, 67, 76
14, 182024, Note_on_c, 12, 67, 0
14, 182040, Note_on_c, 12, 71, 76
14, 182144, Note_on_c, 12, 71, 0
14, 182160, Note_on_c, 12, 70, 76
14, 182264, Note_on_c, 12, 70, 0
14, 182280, Note_on_c, 12, 66, 76
14, 182384, Note_on_c, 12, 66, 0
14, 182400, Note_on_c, 12, 66, 76
14, 182504, Note_on_c, 12, 66, 0
14, 182520, Note_on_c, 12, 62, 76
14, 182624, Note_on_c, 12, 62, 0
14, 182640, Note_on_c, 12, 59, 76
14, 182744, Note_on_c, 12, 59, 0
14, 182760, Note_on_c, 12, 59, 76
14, 182864, Note_on_c, 12, 59, 0
14, 182880, Note_on_c, 12, 66, 76
14, 182999, Note_on_c, 12, 66, 0
14, 183240, Note_on_c, 12, 70, 76
14, 183344, Note_on_c, 12, 70, 0
14, 183360, Note_on_c, 12, 66, 76
14, 183464, Note_on_c, 12, 66, 0
14, 183480, Note_on_c, 12, 61, 76
14, 183584, Note_on_c, 12, 61, 0
14, 183600, Note_on_c, 12, 59, 76
14, 183704, Note_on_c, 12, 59, 0
14, 183720, Note_on_c, 12, 62, 76
14, 183824, Note_on_c, 12, 62, 0
14, 183840, Note_on_c, 12, 59, 76
14, 183944, Note_on_c, 12, 59, 0
14, 183960, Note_on_c, 12, 64, 76
14, 184064, Note_on_c, 12, 64, 0
14, 184080, Note_on_c, 12, 62, 76
14, 184184, Note_on_c, 12, 62, 0
14, 184200, Note_on_c, 12, 61, 76
14, 184304, Note_on_c, 12, 61, 0
14, 184320, Note_on_c, 12, 62, 76
14, 184559, Note_on_c, 12, 62, 0
14, 184680, Note_on_c, 12, 61, 76
14, 184784, Note_on_c, 12, 61, 0
14, 184800, Note_on_c, 12, 59, 76
14, 184904, Note_on_c, 12, 59, 0
14, 184920, Note_on_c, 12, 62, 76
14, 185024, Note_on_c, 12, 62, 0
14, 185040, Note_on_c, 12, 61, 76
14, 185144, Note_on_c, 12, 61, 0
14, 185160, Note_on_c, 12, 61, 76
14, 185264, Note_on_c, 12, 61, 0
14, 185280, Note_on_c, 12, 62, 76
14, 185519, Note_on_c, 12, 62, 0
14, 185640, Note_on_c, 12, 68, 76
14, 185744, Note_on_c, 12, 68, 0
14, 185760, Note_on_c, 12, 69, 76
14, 185864, Note_on_c, 12, 69, 0
14, 185880, Note_on_c, 12, 66, 76
14, 185984, Note_on_c, 12, 66, 0
14, 186000, Note_on_c, 12, 71, 76
14, 186104, Note_on_c, 12, 71, 0
14, 186120, Note_on_c, 12, 71, 76
14, 186224, Note_on_c, 12, 71, 0
14, 186240, Note_on_c, 12, 69, 76
14, 186479, Note_on_c, 12, 69, 0
14, 186600, Note_on_c, 12, 66, 76
14, 186704, Note_on_c, 12, 66, 0
14, 186720, Note_on_c, 12, 66, 76
14, 186824, Note_on_c, 12, 66, 0
14, 186840, Note_on_c, 12, 66, 76
14, 186959, Note_on_c, 12, 66, 0
14, 187080, Note_on_c, 12, 66, 76
14, 187184, Note_on_c, 12, 66, 0
14, 187200, Note_on_c, 12, 66, 76
14, 187304, Note_on_c, 12, 66, 0
14, 187320, Note_on_c, 12, 66, 76
14, 187439, Note_on_c, 12, 66, 0
14, 187560, Note_on_c, 12, 66, 76
14, 187664, Note_on_c, 12, 66, 0
14, 187680, Note_on_c, 12, 63, 76
14, 187784, Note_on_c, 12, 63, 0
14, 187800, Note_on_c, 12, 66, 76
14, 187919, Note_on_c, 12, 66, 0
14, 188040, Note_on_c, 12, 63, 76
14, 188144, Note_on_c, 12, 63, 0
14, 188160, Note_on_c, 12, 64, 76
14, 188264, Note_on_c, 12, 64, 0
14, 188280, Note_on_c, 12, 67, 76
14, 188399, Note_on_c, 12, 67, 0
14, 188520, Note_on_c, 12, 71, 76
14, 188624, Note_on_c, 12, 71, 0
14, 188640, Note_on_c, 12, 64, 76
14, 188744, Note_on_c, 12, 64, 0
14, 188760, Note_on_c, 12, 64, 76
14, 188879, Note_on_c, 12, 64, 0
14, 189000, Note_on_c, 12, 64, 76
14, 189104, Note_on_c, 12, 64, 0
14, 189120, Note_on_c, 12, 64, 76
14, 189224, Note_on_c, 12, 64, 0
14, 189240, Note_on_c, 12, 69, 76
14, 189359, Note_on_c, 12, 69, 0
14, 189480, Note_on_c, 12, 69, 76
14, 189584, Note_on_c, 12, 69, 0
14, 189600, Note_on_c, 12, 69, 76
14, 189704, Note_on_c, 12, 69, 0
14, 189720, Note_on_c, 12, 64, 76
14, 189839, Note_on_c, 12, 64, 0
14, 189960, Note_on_c, 12, 69, 76
14, 190064, Note_on_c, 12, 69, 0
14, 190080, Note_on_c, 12, 69, 76
14, 190199, Note_on_c, 12, 69, 0
14, 190440, Note_on_c, 12, 67, 76
14, 190544, Note_on_c, 12, 67, 0
14, 190560, Note_on_c, 12, 67, 76
14, 190679, Note_on_c, 12, 67, 0
14, 190920, Note_on_c, 12, 66, 76
14, 191024, Note_on_c, 12, 66, 0
14, 191040, Note_on_c, 12, 66, 76
14, 191159, Note_on_c, 12, 66, 0
14, 191400, Note_on_c, 12, 64, 76
14, 191504, Note_on_c, 12, 64, 0
14, 191520, Note_on_c, 12, 64, 76
14, 191624, Note_on_c, 12, 64, 0
14, 191640, Note_on_c, 12, 67, 76
14, 191744, Note_on_c, 12, 67, 0
14, 191760, Note_on_c, 12, 66, 76
14, 191864, Note_on_c, 12, 66, 0
14, 191880, Note_on_c, 12, 62, 76
14, 191984, Note_on_c, 12, 62, 0
14, 192000, Note_on_c, 12, 69, 76
14, 192104, Note_on_c, 12, 69, 0
14, 192120, Note_on_c, 12, 61, 76
14, 192224, Note_on_c, 12, 61, 0
14, 192240, Note_on_c, 12, 62, 76
14, 192344, Note_on_c, 12, 62, 0
14, 192360, Note_on_c, 12, 66, 76
14, 192464, Note_on_c, 12, 66, 0
14, 192480, Note_on_c, 12, 64, 76
14, 192584, Note_on_c, 12, 64, 0
14, 192600, Note_on_c, 12, 67, 76
14, 192704, Note_on_c, 12, 67, 0
14, 192720, Note_on_c, 12, 61, 76
14, 192824, Note_on_c, 12, 61, 0
14, 192840, Note_on_c, 12, 57, 76
14, 192944, Note_on_c, 12, 57, 0
14, 192960, Note_on_c, 12, 62, 76
14, 193424, Note_on_c, 12, 62, 0
14, 193440, Note_on_c, 12, 64, 76
14, 193679, Note_on_c, 12, 64, 0
14, 194040, Note_on_c, 12, 59, 76
14, 194087, Note_on_c, 12, 59, 0
14, 194100, Note_on_c, 12, 61, 76
14, 194147, Note_on_c, 12, 61, 0
14, 194160, Note_on_c, 12, 63, 76
14, 194264, Note_on_c, 12, 63, 0
14, 194280, Note_on_c, 12, 63, 76
14, 194327, Note_on_c, 12, 63, 0
14, 194340, Note_on_c, 12, 64, 76
14, 194387, Note_on_c, 12, 64, 0
14, 194400, Note_on_c, 12, 66, 76
14, 194504, Note_on_c, 12, 66, 0
14, 194520, Note_on_c, 12, 63, 76
14, 194567, Note_on_c, 12, 63, 0
14, 194580, Note_on_c, 12, 64, 76
14, 194627, Note_on_c, 12, 64, 0
14, 194640, Note_on_c, 12, 66, 76
14, 194744, Note_on_c, 12, 66, 0
14, 194760, Note_on_c, 12, 66, 76
14, 194807, Note_on_c, 12, 66, 0
14, 194820, Note_on_c, 12, 67, 76
14, 194867, Note_on_c, 12, 67, 0
14, 194880, Note_on_c, 12, 69, 76
14, 194984, Note_on_c, 12, 69, 0
14, 195000, Note_on_c, 12, 69, 76
14, 195047, Note_on_c, 12, 69, 0
14, 195060, Note_on_c, 12, 68, 76
14, 195107, Note_on_c, 12, 68, 0
14, 195120, Note_on_c, 12, 69, 76
14, 195224, Note_on_c, 12, 69, 0
14, 195240, Note_on_c, 12, 71, 76
14, 195287, Note_on_c, 12, 71, 0
14, 195300, Note_on_c, 12, 69, 76
14, 195347, Note_on_c, 12, 69, 0
14, 195360, Note_on_c, 12, 68, 76
14, 195584, Note_on_c, 12, 68, 0
14, 195600, Note_on_c, 12, 64, 76
14, 195839, Note_on_c, 12, 64, 0
14, 196080, Note_on_c, 12, 68, 76
14, 196319, Note_on_c, 12, 68, 0
14, 196560, Note_on_c, 12, 71, 76
14, 196799, Note_on_c, 12, 71, 0
14, 196920, Note_on_c, 12, 57, 76
14, 196967, Note_on_c, 12, 57, 0
14, 196980, Note_on_c, 12, 59, 76
14, 197027, Note_on_c, 12, 59, 0
14, 197040, Note_on_c, 12, 61, 76
14, 197144, Note_on_c, 12, 61, 0
14, 197160, Note_on_c, 12, 61, 76
14, 197207, Note_on_c, 12, 61, 0
14, 197220, Note_on_c, 12, 62, 76
14, 197267, Note_on_c, 12, 62, 0
14, 197280, Note_on_c, 12, 64, 76
14, 197384, Note_on_c, 12, 64, 0
14, 197400, Note_on_c, 12, 61, 76
14, 197447, Note_on_c, 12, 61, 0
14, 197460, Note_on_c, 12, 62, 76
14, 197507, Note_on_c, 12, 62, 0
14, 197520, Note_on_c, 12, 64, 76
14, 197624, Note_on_c, 12, 64, 0
14, 197640, Note_on_c, 12, 64, 76
14, 197687, Note_on_c, 12, 64, 0
14, 197700, Note_on_c, 12, 66, 76
14, 197747, Note_on_c, 12, 66, 0
14, 197760, Note_on_c, 12, 67, 76
14, 197864, Note_on_c, 12, 67, 0
14, 197880, Note_on_c, 12, 67, 76
14, 197927, Note_on_c, 12, 67, 0
14, 197940, Note_on_c, 12, 66, 76
14, 197987, Note_on_c, 12, 66, 0
14, 198000, Note_on_c, 12, 67, 76
14, 198104, Note_on_c, 12, 67, 0
14, 198120, Note_on_c, 12, 69, 76
14, 198167, Note_on_c, 12, 69, 0
14, 198180, Note_on_c, 12, 67, 76
14, 198227, Note_on_c, 12, 67, 0
14, 198240, Note_on_c, 12, 66, 76
14, 198464, Note_on_c, 12, 66, 0
14, 198480, Note_on_c, 12, 62, 76
14, 198719, Note_on_c, 12, 62, 0
14, 198960, Note_on_c, 12, 66, 76
14, 199199, Note_on_c, 12, 66, 0
14, 199440, Note_on_c, 12, 69, 76
14, 199664, Note_on_c, 12, 69, 0
14, 199680, Note_on_c, 12, 62, 76
14, 199919, Note_on_c, 12, 62, 0
14, 201720, Note_on_c, 12, 61, 76
14, 201767, Note_on_c, 12, 61, 0
14, 201780, Note_on_c, 12, 62, 76
14, 201827, Note_on_c, 12, 62, 0
14, 201840, Note_on_c, 12, 64, 76
14, 201887, Note_on_c, 12, 64, 0
14, 201900, Note_on_c, 12, 66, 76
14, 201947, Note_on_c, 12, 66, 0
14, 201960, Note_on_c, 12, 64, 76
14, 202007, Note_on_c, 12, 64, 0
14, 202020, Note_on_c, 12, 66, 76
14, 202067, Note_on_c, 12, 66, 0
14, 202080, Note_on_c, 12, 67, 76
14, 202127, Note_on_c, 12, 67, 0
14, 202140, Note_on_c, 12, 64, 76
14, 202187, Note_on_c, 12, 64, 0
14, 202200, Note_on_c, 12, 57, 76
14, 202247, Note_on_c, 12, 57, 0
14, 202260, Note_on_c, 12, 59, 76
14, 202307, Note_on_c, 12, 59, 0
14, 202320, Note_on_c, 12, 61, 76
14, 202367, Note_on_c, 12, 61, 0
14, 202380, Note_on_c, 12, 62, 76
14, 202427, Note_on_c, 12, 62, 0
14, 202440, Note_on_c, 12, 61, 76
14, 202487, Note_on_c, 12, 61, 0
14, 202500, Note_on_c, 12, 62, 76
14, 202547, Note_on_c, 12, 62, 0
14, 202560, Note_on_c, 12, 64, 76
14, 202607, Note_on_c, 12, 64, 0
14, 202620, Note_on_c, 12, 62, 76
14, 202667, Note_on_c, 12, 62, 0
14, 202680, Note_on_c, 12, 61, 76
14, 202727, Note_on_c, 12, 61, 0
14, 202740, Note_on_c, 12, 62, 76
14, 202787, Note_on_c, 12, 62, 0
14, 202800, Note_on_c, 12, 64, 76
14, 202847, Note_on_c, 12, 64, 0
14, 202860, Note_on_c, 12, 62, 76
14, 202907, Note_on_c, 12, 62, 0
14, 202920, Note_on_c, 12, 61, 76
14, 202967, Note_on_c, 12, 61, 0
14, 202980, Note_on_c, 12, 59, 76
14, 203027, Note_on_c, 12, 59, 0
14, 203040, Note_on_c, 12, 57, 76
14, 203087, Note_on_c, 12, 57, 0
14, 203100, Note_on_c, 12, 69, 76
14, 203147, Note_on_c, 12, 69, 0
14, 203160, Note_on_c, 12, 66, 76
14, 203207, Note_on_c, 12, 66, 0
14, 203220, Note_on_c, 12, 67, 76
14, 203267, Note_on_c, 12, 67, 0
14, 203280, Note_on_c, 12, 69, 76
14, 203327, Note_on_c, 12, 69, 0
14, 203340, Note_on_c, 12, 71, 76
14, 203387, Note_on_c, 12, 71, 0
14, 203400, Note_on_c, 12, 69, 76
14, 203447, Note_on_c, 12, 69, 0
14, 203460, Note_on_c, 12, 71, 76
14, 203507, Note_on_c, 12, 71, 0
14, 203520, Note_on_c, 12, 72, 76
14, 203567, Note_on_c, 12, 72, 0
14, 203580, Note_on_c, 12, 69, 76
14, 203627, Note_on_c, 12, 69, 0
14, 203640, Note_on_c, 12, 62, 76
14, 203687, Note_on_c, 12, 62, 0
14, 203700, Note_on_c, 12, 64, 76
14, 203747, Note_on_c, 12, 64, 0
14, 203760, Note_on_c, 12, 66, 76
14, 203807, Note_on_c, 12, 66, 0
14, 203820, Note_on_c, 12, 67, 76
14, 203867, Note_on_c, 12, 67, 0
14, 203880, Note_on_c, 12, 66, 76
14, 203927, Note_on_c, 12, 66, 0
14, 203940, Note_on_c, 12, 67, 76
14, 203987, Note_on_c, 12, 67, 0
14, 204000, Note_on_c, 12, 69, 76
14, 204047, Note_on_c, 12, 69, 0
14, 204060, Note_on_c, 12, 67, 76
14, 204107, Note_on_c, 12, 67, 0
14, 204120, Note_on_c, 12, 66, 76
14, 204167, Note_on_c, 12, 66, 0
14, 204180, Note_on_c, 12, 67, 76
14, 204227, Note_on_c, 12, 67, 0
14, 204240, Note_on_c, 12, 69, 76
14, 204287, Note_on_c, 12, 69, 0
14, 204300, Note_on_c, 12, 67, 76
14, 204347, Note_on_c, 12, 67, 0
14, 204360, Note_on_c, 12, 66, 76
14, 204407, Note_on_c, 12, 66, 0
14, 204420, Note_on_c, 12, 64, 76
14, 204467, Note_on_c, 12, 64, 0
14, 204480, Note_on_c, 12, 62, 76
14, 204527, Note_on_c, 12, 62, 0
14, 204540, Note_on_c, 12, 59, 76
14, 204587, Note_on_c, 12, 59, 0
14, 204600, Note_on_c, 12, 64, 76
14, 204647, Note_on_c, 12, 64, 0
14, 204660, Note_on_c, 12, 66, 76
14, 204707, Note_on_c, 12, 66, 0
14, 204720, Note_on_c, 12, 68, 76
14, 204767, Note_on_c, 12, 68, 0
14, 204780, Note_on_c, 12, 69, 76
14, 204827, Note_on_c, 12, 69, 0
14, 204840, Note_on_c, 12, 68, 76
14, 204887, Note_on_c, 12, 68, 0
14, 204900, Note_on_c, 12, 69, 76
14, 204947, Note_on_c, 12, 69, 0
14, 204960, Note_on_c, 12, 71, 76
14, 205007, Note_on_c, 12, 71, 0
14, 205020, Note_on_c, 12, 69, 76
14, 205067, Note_on_c, 12, 69, 0
14, 205080, Note_on_c, 12, 68, 76
14, 205127, Note_on_c, 12, 68, 0
14, 205140, Note_on_c, 12, 69, 76
14, 205187, Note_on_c, 12, 69, 0
14, 205200, Note_on_c, 12, 71, 76
14, 205247, Note_on_c, 12, 71, 0
14, 205260, Note_on_c, 12, 69, 76
14, 205307, Note_on_c, 12, 69, 0
14, 205320, Note_on_c, 12, 68, 76
14, 205367, Note_on_c, 12, 68, 0
14, 205380, Note_on_c, 12, 66, 76
14, 205427, Note_on_c, 12, 66, 0
14, 205440, Note_on_c, 12, 64, 76
14, 205544, Note_on_c, 12, 64, 0
14, 205560, Note_on_c, 12, 57, 76
14, 205607, Note_on_c, 12, 57, 0
14, 205620, Note_on_c, 12, 59, 76
14, 205667, Note_on_c, 12, 59, 0
14, 205680, Note_on_c, 12, 61, 76
14, 205784, Note_on_c, 12, 61, 0
14, 205800, Note_on_c, 12, 61, 76
14, 205847, Note_on_c, 12, 61, 0
14, 205860, Note_on_c, 12, 62, 76
14, 205907, Note_on_c, 12, 62, 0
14, 205920, Note_on_c, 12, 64, 76
14, 206024, Note_on_c, 12, 64, 0
14, 206040, Note_on_c, 12, 61, 76
14, 206087, Note_on_c, 12, 61, 0
14, 206100, Note_on_c, 12, 62, 76
14, 206147, Note_on_c, 12, 62, 0
14, 206160, Note_on_c, 12, 64, 76
14, 206264, Note_on_c, 12, 64, 0
14, 206280, Note_on_c, 12, 64, 76
14, 206327, Note_on_c, 12, 64, 0
14, 206340, Note_on_c, 12, 66, 76
14, 206387, Note_on_c, 12, 66, 0
14, 206400, Note_on_c, 12, 67, 76
14, 206504, Note_on_c, 12, 67, 0
14, 206520, Note_on_c, 12, 67, 76
14, 206567, Note_on_c, 12, 67, 0
14, 206580, Note_on_c, 12, 66, 76
14, 206627, Note_on_c, 12, 66, 0
14, 206640, Note_on_c, 12, 67, 76
14, 206744, Note_on_c, 12, 67, 0
14, 206760, Note_on_c, 12, 69, 76
14, 206807, Note_on_c, 12, 69, 0
14, 206820, Note_on_c, 12, 67, 76
14, 206867, Note_on_c, 12, 67, 0
14, 206880, Note_on_c, 12, 66, 76
14, 206984, Note_on_c, 12, 66, 0
14, 207000, Note_on_c, 12, 69, 76
14, 207104, Note_on_c, 12, 69, 0
14, 207120, Note_on_c, 12, 62, 76
14, 207224, Note_on_c, 12, 62, 0
14, 207240, Note_on_c, 12, 66, 76
14, 207464, Note_on_c, 12, 66, 0
14, 207480, Note_on_c, 12, 69, 76
14, 207584, Note_on_c, 12, 69, 0
14, 207600, Note_on_c, 12, 60, 76
14, 207704, Note_on_c, 12, 60, 0
14, 207720, Note_on_c, 12, 66, 76
14, 207944, Note_on_c, 12, 66, 0
14, 207960, Note_on_c, 12, 69, 76
14, 208064, Note_on_c, 12, 69, 0
14, 208080, Note_on_c, 12, 62, 76
14, 208184, Note_on_c, 12, 62, 0
14, 208200, Note_on_c, 12, 66, 76
14, 208304, Note_on_c, 12, 66, 0
14, 208320, Note_on_c, 12, 67, 76
14, 208367, Note_on_c, 12, 67, 0
14, 208380, Note_on_c, 12, 71, 76
14, 208427, Note_on_c, 12, 71, 0
14, 208440, Note_on_c, 12, 68, 76
14, 208487, Note_on_c, 12, 68, 0
14, 208500, Note_on_c, 12, 69, 76
14, 208547, Note_on_c, 12, 69, 0
14, 208560, Note_on_c, 12, 71, 76
14, 208607, Note_on_c, 12, 71, 0
14, 208620, Note_on_c, 12, 73, 76
14, 208667, Note_on_c, 12, 73, 0
14, 208680, Note_on_c, 12, 71, 76
14, 208727, Note_on_c, 12, 71, 0
14, 208740, Note_on_c, 12, 73, 76
14, 208787, Note_on_c, 12, 73, 0
14, 208800, Note_on_c, 12, 74, 76
14, 208847, Note_on_c, 12, 74, 0
14, 208860, Note_on_c, 12, 71, 76
14, 208907, Note_on_c, 12, 71, 0
14, 208920, Note_on_c, 12, 64, 76
14, 208967, Note_on_c, 12, 64, 0
14, 208980, Note_on_c, 12, 66, 76
14, 209027, Note_on_c, 12, 66, 0
14, 209040, Note_on_c, 12, 68, 76
14, 209087, Note_on_c, 12, 68, 0
14, 209100, Note_on_c, 12, 69, 76
14, 209147, Note_on_c, 12, 69, 0
14, 209160, Note_on_c, 12, 68, 76
14, 209207, Note_on_c, 12, 68, 0
14, 209220, Note_on_c, 12, 69, 76
14, 209267, Note_on_c, 12, 69, 0
14, 209280, Note_on_c, 12, 71, 76
14, 209327, Note_on_c, 12, 71, 0
14, 209340, Note_on_c, 12, 69, 76
14, 209387, Note_on_c, 12, 69, 0
14, 209400, Note_on_c, 12, 68, 76
14, 209447, Note_on_c, 12, 68, 0
14, 209460, Note_on_c, 12, 69, 76
14, 209507, Note_on_c, 12, 69, 0
14, 209520, Note_on_c, 12, 71, 76
14, 209567, Note_on_c, 12, 71, 0
14, 209580, Note_on_c, 12, 69, 76
14, 209627, Note_on_c, 12, 69, 0
14, 209640, Note_on_c, 12, 68, 76
14, 209687, Note_on_c, 12, 68, 0
14, 209700, Note_on_c, 12, 66, 76
14, 209747, Note_on_c, 12, 66, 0
14, 209760, Note_on_c, 12, 64, 76
14, 209864, Note_on_c, 12, 64, 0
14, 209880, Note_on_c, 12, 69, 76
14, 209984, Note_on_c, 12, 69, 0
14, 210000, Note_on_c, 12, 69, 76
14, 210104, Note_on_c, 12, 69, 0
14, 210120, Note_on_c, 12, 69, 76
14, 210224, Note_on_c, 12, 69, 0
14, 210240, Note_on_c, 12, 69, 76
14, 210344, Note_on_c, 12, 69, 0
14, 210360, Note_on_c, 12, 69, 76
14, 210464, Note_on_c, 12, 69, 0
14, 210480, Note_on_c, 12, 69, 76
14, 210584, Note_on_c, 12, 69, 0
14, 210600, Note_on_c, 12, 69, 76
14, 210704, Note_on_c, 12, 69, 0
14, 210720, Note_on_c, 12, 69, 76
14, 210824, Note_on_c, 12, 69, 0
14, 210840, Note_on_c, 12, 69, 76
14, 210944, Note_on_c, 12, 69, 0
14, 210960, Note_on_c, 12, 69, 76
14, 211064, Note_on_c, 12, 69, 0
14, 211080, Note_on_c, 12, 69, 76
14, 211184, Note_on_c, 12, 69, 0
14, 211200, Note_on_c, 12, 69, 76
14, 211304, Note_on_c, 12, 69, 0
14, 211320, Note_on_c, 12, 62, 76
14, 211367, Note_on_c, 12, 62, 0
14, 211380, Note_on_c, 12, 64, 76
14, 211427, Note_on_c, 12, 64, 0
14, 211440, Note_on_c, 12, 62, 76
14, 211487, Note_on_c, 12, 62, 0
14, 211500, Note_on_c, 12, 61, 76
14, 211547, Note_on_c, 12, 61, 0
14, 211560, Note_on_c, 12, 59, 76
14, 211607, Note_on_c, 12, 59, 0
14, 211620, Note_on_c, 12, 62, 76
14, 211667, Note_on_c, 12, 62, 0
14, 211680, Note_on_c, 12, 61, 76
14, 211727, Note_on_c, 12, 61, 0
14, 211740, Note_on_c, 12, 62, 76
14, 211787, Note_on_c, 12, 62, 0
14, 211800, Note_on_c, 12, 61, 76
14, 211847, Note_on_c, 12, 61, 0
14, 211860, Note_on_c, 12, 59, 76
14, 211907, Note_on_c, 12, 59, 0
14, 211920, Note_on_c, 12, 58, 76
14, 212024, Note_on_c, 12, 58, 0
14, 212040, Note_on_c, 12, 61, 76
14, 212144, Note_on_c, 12, 61, 0
14, 212160, Note_on_c, 12, 62, 76
14, 212264, Note_on_c, 12, 62, 0
14, 212280, Note_on_c, 12, 66, 76
14, 212384, Note_on_c, 12, 66, 0
14, 212400, Note_on_c, 12, 59, 76
14, 212504, Note_on_c, 12, 59, 0
14, 212520, Note_on_c, 12, 62, 76
14, 212744, Note_on_c, 12, 62, 0
14, 212760, Note_on_c, 12, 74, 76
14, 212864, Note_on_c, 12, 74, 0
14, 212880, Note_on_c, 12, 74, 76
14, 212984, Note_on_c, 12, 74, 0
14, 213000, Note_on_c, 12, 74, 76
14, 213104, Note_on_c, 12, 74, 0
14, 213120, Note_on_c, 12, 74, 76
14, 213224, Note_on_c, 12, 74, 0
14, 213240, Note_on_c, 12, 74, 76
14, 213344, Note_on_c, 12, 74, 0
14, 213360, Note_on_c, 12, 74, 76
14, 213464, Note_on_c, 12, 74, 0
14, 213480, Note_on_c, 12, 69, 76
14, 213584, Note_on_c, 12, 69, 0
14, 213600, Note_on_c, 12, 71, 76
14, 213704, Note_on_c, 12, 71, 0
14, 213720, Note_on_c, 12, 71, 76
14, 213824, Note_on_c, 12, 71, 0
14, 213840, Note_on_c, 12, 71, 76
14, 213944, Note_on_c, 12, 71, 0
14, 213960, Note_on_c, 12, 71, 76
14, 214064, Note_on_c, 12, 71, 0
14, 214080, Note_on_c, 12, 69, 76
14, 214184, Note_on_c, 12, 69, 0
14, 214200, Note_on_c, 12, 69, 76
14, 214304, Note_on_c, 12, 69, 0
14, 214320, Note_on_c, 12, 69, 76
14, 214424, Note_on_c, 12, 69, 0
14, 214440, Note_on_c, 12, 69, 76
14, 214544, Note_on_c, 12, 69, 0
14, 214560, Note_on_c, 12, 67, 76
14, 214664, Note_on_c, 12, 67, 0
14, 214680, Note_on_c, 12, 69, 76
14, 214784, Note_on_c, 12, 69, 0
14, 214800, Note_on_c, 12, 69, 76
14, 214904, Note_on_c, 12, 69, 0
14, 214920, Note_on_c, 12, 69, 76
14, 215024, Note_on_c, 12, 69, 0
14, 215040, Note_on_c, 12, 69, 76
14, 215144, Note_on_c, 12, 69, 0
14, 215160, Note_on_c, 12, 69, 76
14, 215264, Note_on_c, 12, 69, 0
14, 215280, Note_on_c, 12, 69, 76
14, 215384, Note_on_c, 12, 69, 0
14, 215400, Note_on_c, 12, 69, 76
14, 215504, Note_on_c, 12, 69, 0
14, 215520, Note_on_c, 12, 69, 76
14, 215624, Note_on_c, 12, 69, 0
14, 215640, Note_on_c, 12, 69, 76
14, 215744, Note_on_c, 12, 69, 0
14, 215760, Note_on_c, 12, 69, 76
14, 215864, Note_on_c, 12, 69, 0
14, 215880, Note_on_c, 12, 69, 76
14, 215984, Note_on_c, 12, 69, 0
14, 216000, Note_on_c, 12, 69, 76
14, 216104, Note_on_c, 12, 69, 0
14, 216120, Note_on_c, 12, 69, 76
14, 216224, Note_on_c, 12, 69, 0
14, 216240, Note_on_c, 12, 69, 76
14, 216344, Note_on_c, 12, 69, 0
14, 216360, Note_on_c, 12, 69, 76
14, 216464, Note_on_c, 12, 69, 0
14, 216480, Note_on_c, 12, 69, 76
14, 216584, Note_on_c, 12, 69, 0
14, 216600, Note_on_c, 12, 62, 76
14, 216704, Note_on_c, 12, 62, 0
14, 216720, Note_on_c, 12, 66, 76
14, 216824, Note_on_c, 12, 66, 0
14, 216840, Note_on_c, 12, 71, 76
14, 216944, Note_on_c, 12, 71, 0
14, 216960, Note_on_c, 12, 71, 76
14, 217064, Note_on_c, 12, 71, 0
14, 217080, Note_on_c, 12, 73, 76
14, 217127, Note_on_c, 12, 73, 0
14, 217140, Note_on_c, 12, 74, 76
14, 217187, Note_on_c, 12, 74, 0
14, 217200, Note_on_c, 12, 73, 76
14, 217304, Note_on_c, 12, 73, 0
14, 217320, Note_on_c, 12, 69, 76
14, 217424, Note_on_c, 12, 69, 0
14, 217440, Note_on_c, 12, 69, 76
14, 217544, Note_on_c, 12, 69, 0
14, 217560, Note_on_c, 12, 69, 76
14, 217664, Note_on_c, 12, 69, 0
14, 217680, Note_on_c, 12, 67, 76
14, 217784, Note_on_c, 12, 67, 0
14, 217800, Note_on_c, 12, 71, 76
14, 217904, Note_on_c, 12, 71, 0
14, 217920, Note_on_c, 12, 69, 76
14, 218024, Note_on_c, 12, 69, 0
14, 218040, Note_on_c, 12, 64, 76
14, 218144, Note_on_c, 12, 64, 0
14, 218160, Note_on_c, 12, 69, 76
14, 218264, Note_on_c, 12, 69, 0
14, 218280, Note_on_c, 12, 69, 76
14, 218384, Note_on_c, 12, 69, 0
14, 218400, Note_on_c, 12, 69, 76
14, 218447, Note_on_c, 12, 69, 0
14, 218460, Note_on_c, 12, 67, 76
14, 218507, Note_on_c, 12, 67, 0
14, 218520, Note_on_c, 12, 66, 76
14, 218567, Note_on_c, 12, 66, 0
14, 218580, Note_on_c, 12, 67, 76
14, 218627, Note_on_c, 12, 67, 0
14, 218640, Note_on_c, 12, 64, 76
14, 218744, Note_on_c, 12, 64, 0
14, 218760, Note_on_c, 12, 64, 76
14, 218864, Note_on_c, 12, 64, 0
14, 218880, Note_on_c, 12, 66, 76
14, 219119, Note_on_c, 12, 66, 0
14, 219300, Note_on_c, 12, 62, 76
14, 219353, Note_on_c, 12, 62, 0
14, 219360, Note_on_c, 12, 62, 76
14, 219533, Note_on_c, 12, 62, 0
14, 219540, Note_on_c, 12, 66, 76
14, 219593, Note_on_c, 12, 66, 0
14, 219600, Note_on_c, 12, 66, 76
14, 219773, Note_on_c, 12, 66, 0
14, 219780, Note_on_c, 12, 69, 76
14, 219833, Note_on_c, 12, 69, 0
14, 219840, Note_on_c, 12, 69, 76
14, 220013, Note_on_c, 12, 69, 0
14, 220020, Note_on_c, 12, 57, 76
14, 220073, Note_on_c, 12, 57, 0
14, 220080, Note_on_c, 12, 57, 76
14, 220253, Note_on_c, 12, 57, 0
14, 220260, Note_on_c, 12, 62, 76
14, 220313, Note_on_c, 12, 62, 0
14, 220320, Note_on_c, 12, 66, 76
14, 220493, Note_on_c, 12, 66, 0
14, 220500, Note_on_c, 12, 69, 76
14, 220553, Note_on_c, 12, 69, 0
14, 220560, Note_on_c, 12, 69, 76
14, 220733, Note_on_c, 12, 69, 0
14, 220740, Note_on_c, 12, 66, 76
14, 220793, Note_on_c, 12, 66, 0
14, 220800, Note_on_c, 12, 62, 76
14, 220973, Note_on_c, 12, 62, 0
14, 220980, Note_on_c, 12, 57, 76
14, 221033, Note_on_c, 12, 57, 0
14, 221040, Note_on_c, 12, 57, 76
14, 221213, Note_on_c, 12, 57, 0
14, 221220, Note_on_c, 12, 60, 76
14, 221273, Note_on_c, 12, 60, 0
14, 221280, Note_on_c, 12, 62, 76
14, 221453, Note_on_c, 12, 62, 0
14, 221460, Note_on_c, 12, 64, 76
14, 221513, Note_on_c, 12, 64, 0
14, 221520, Note_on_c, 12, 62, 76
14, 221693, Note_on_c, 12, 62, 0
14, 221700, Note_on_c, 12, 62, 76
14, 221753, Note_on_c, 12, 62, 0
14, 221760, Note_on_c, 12, 62, 76
14, 222107, Note_on_c, 12, 62, 0
14, 222120, Note_on_c, 12, 62, 76
14, 222227, Note_on_c, 12, 62, 0
14, 222240, Note_on_c, 12, 67, 76
14, 222413, Note_on_c, 12, 67, 0
14, 222420, Note_on_c, 12, 71, 76
14, 222473, Note_on_c, 12, 71, 0
14, 222480, Note_on_c, 12, 71, 76
14, 222653, Note_on_c, 12, 71, 0
14, 222660, Note_on_c, 12, 67, 76
14, 222713, Note_on_c, 12, 67, 0
14, 222720, Note_on_c, 12, 69, 76
14, 223067, Note_on_c, 12, 69, 0
14, 223080, Note_on_c, 12, 67, 76
14, 223187, Note_on_c, 12, 67, 0
14, 223200, Note_on_c, 12, 66, 76
14, 223373, Note_on_c, 12, 66, 0
14, 223380, Note_on_c, 12, 64, 76
14, 223433, Note_on_c, 12, 64, 0
14, 223440, Note_on_c, 12, 66, 76
14, 223613, Note_on_c, 12, 66, 0
14, 223620, Note_on_c, 12, 67, 76
14, 223673, Note_on_c, 12, 67, 0
14, 223680, Note_on_c, 12, 66, 76
14, 223853, Note_on_c, 12, 66, 0
14, 223860, Note_on_c, 12, 69, 76
14, 223913, Note_on_c, 12, 69, 0
14, 223920, Note_on_c, 12, 69, 76
14, 224093, Note_on_c, 12, 69, 0
14, 224100, Note_on_c, 12, 72, 76
14, 224153, Note_on_c, 12, 72, 0
14, 224160, Note_on_c, 12, 66, 76
14, 224333, Note_on_c, 12, 66, 0
14, 224340, Note_on_c, 12, 59, 76
14, 224393, Note_on_c, 12, 59, 0
14, 224400, Note_on_c, 12, 64, 76
14, 224573, Note_on_c, 12, 64, 0
14, 224580, Note_on_c, 12, 71, 76
14, 224633, Note_on_c, 12, 71, 0
14, 224640, Note_on_c, 12, 71, 76
14, 224813, Note_on_c, 12, 71, 0
14, 224820, Note_on_c, 12, 69, 76
14, 224873, Note_on_c, 12, 69, 0
14, 224880, Note_on_c, 12, 71, 76
14, 225053, Note_on_c, 12, 71, 0
14, 225060, Note_on_c, 12, 72, 76
14, 225113, Note_on_c, 12, 72, 0
14, 225120, Note_on_c, 12, 71, 76
14, 225467, Note_on_c, 12, 71, 0
14, 225480, Note_on_c, 12, 71, 76
14, 225587, Note_on_c, 12, 71, 0
14, 225600, Note_on_c, 12, 71, 76
14, 226079, Note_on_c, 12, 71, 0
14, 226260, Note_on_c, 12, 64, 76
14, 226313, Note_on_c, 12, 64, 0
14, 226320, Note_on_c, 12, 64, 76
14, 226493, Note_on_c, 12, 64, 0
14, 226500, Note_on_c, 12, 68, 76
14, 226553, Note_on_c, 12, 68, 0
14, 226560, Note_on_c, 12, 64, 76
14, 226733, Note_on_c, 12, 64, 0
14, 226740, Note_on_c, 12, 69, 76
14, 226793, Note_on_c, 12, 69, 0
14, 226800, Note_on_c, 12, 69, 76
14, 226973, Note_on_c, 12, 69, 0
14, 226980, Note_on_c, 12, 67, 76
14, 227033, Note_on_c, 12, 67, 0
14, 227040, Note_on_c, 12, 66, 76
14, 227213, Note_on_c, 12, 66, 0
14, 227220, Note_on_c, 12, 66, 76
14, 227273, Note_on_c, 12, 66, 0
14, 227280, Note_on_c, 12, 66, 76
14, 227453, Note_on_c, 12, 66, 0
14, 227460, Note_on_c, 12, 64, 76
14, 227513, Note_on_c, 12, 64, 0
14, 227520, Note_on_c, 12, 62, 76
14, 227693, Note_on_c, 12, 62, 0
14, 227700, Note_on_c, 12, 59, 76
14, 227753, Note_on_c, 12, 59, 0
14, 227760, Note_on_c, 12, 66, 76
14, 227933, Note_on_c, 12, 66, 0
14, 227940, Note_on_c, 12, 62, 76
14, 227993, Note_on_c, 12, 62, 0
14, 228000, Note_on_c, 12, 62, 76
14, 228173, Note_on_c, 12, 62, 0
14, 228180, Note_on_c, 12, 59, 76
14, 228233, Note_on_c, 12, 59, 0
14, 228240, Note_on_c, 12, 64, 76
14, 228413, Note_on_c, 12, 64, 0
14, 228420, Note_on_c, 12, 64, 76
14, 228473, Note_on_c, 12, 64, 0
14, 228480, Note_on_c, 12, 64, 76
14, 228653, Note_on_c, 12, 64, 0
14, 228660, Note_on_c, 12, 69, 76
14, 228713, Note_on_c, 12, 69, 0
14, 228720, Note_on_c, 12, 69, 76
14, 228893, Note_on_c, 12, 69, 0
14, 228900, Note_on_c, 12, 64, 76
14, 228953, Note_on_c, 12, 64, 0
14, 228960, Note_on_c, 12, 69, 76
14, 229307, Note_on_c, 12, 69, 0
14, 229320, Note_on_c, 12, 69, 76
14, 229427, Note_on_c, 12, 69, 0
14, 229440, Note_on_c, 12, 69, 76
14, 229613, Note_on_c, 12, 69, 0
14, 229620, Note_on_c, 12, 66, 76
14, 229673, Note_on_c, 12, 66, 0
14, 229680, Note_on_c, 12, 66, 76
14, 229853, Note_on_c, 12, 66, 0
14, 229860, Note_on_c, 12, 62, 76
14, 229913, Note_on_c, 12, 62, 0
14, 229920, Note_on_c, 12, 57, 76
14, 230093, Note_on_c, 12, 57, 0
14, 230100, Note_on_c, 12, 62, 76
14, 230153, Note_on_c, 12, 62, 0
14, 230160, Note_on_c, 12, 66, 76
14, 230333, Note_on_c, 12, 66, 0
14, 230340, Note_on_c, 12, 69, 76
14, 230393, Note_on_c, 12, 69, 0
14, 230400, Note_on_c, 12, 67, 76
14, 230573, Note_on_c, 12, 67, 0
14, 230580, Note_on_c, 12, 62, 76
14, 230633, Note_on_c, 12, 62, 0
14, 230640, Note_on_c, 12, 64, 76
14, 230813, Note_on_c, 12, 64, 0
14, 230820, Note_on_c, 12, 66, 76
14, 230873, Note_on_c, 12, 66, 0
14, 230880, Note_on_c, 12, 67, 76
14, 231053, Note_on_c, 12, 67, 0
14, 231060, Note_on_c, 12, 64, 76
14, 231113, Note_on_c, 12, 64, 0
14, 231120, Note_on_c, 12, 66, 76
14, 231293, Note_on_c, 12, 66, 0
14, 231300, Note_on_c, 12, 67, 76
14, 231353, Note_on_c, 12, 67, 0
14, 231360, Note_on_c, 12, 64, 76
14, 231533, Note_on_c, 12, 64, 0
14, 231540, Note_on_c, 12, 69, 76
14, 231593, Note_on_c, 12, 69, 0
14, 231600, Note_on_c, 12, 69, 76
14, 231773, Note_on_c, 12, 69, 0
14, 231780, Note_on_c, 12, 64, 76
14, 231833, Note_on_c, 12, 64, 0
14, 231840, Note_on_c, 12, 64, 76
14, 232013, Note_on_c, 12, 64, 0
14, 232020, Note_on_c, 12, 61, 76
14, 232073, Note_on_c, 12, 61, 0
14, 232080, Note_on_c, 12, 62, 76
14, 232253, Note_on_c, 12, 62, 0
14, 232260, Note_on_c, 12, 64, 76
14, 232313, Note_on_c, 12, 64, 0
14, 232320, Note_on_c, 12, 57, 76
14, 232493, Note_on_c, 12, 57, 0
14, 232500, Note_on_c, 12, 64, 76
14, 232553, Note_on_c, 12, 64, 0
14, 232560, Note_on_c, 12, 62, 76
14, 232733, Note_on_c, 12, 62, 0
14, 232740, Note_on_c, 12, 67, 76
14, 232793, Note_on_c, 12, 67, 0
14, 232800, Note_on_c, 12, 64, 76
14, 233147, Note_on_c, 12, 64, 0
14, 233160, Note_on_c, 12, 66, 76
14, 233267, Note_on_c, 12, 66, 0
14, 233280, Note_on_c, 12, 66, 76
14, 234239, Note_on_c, 12, 66, 0
14, 234239, End_track
15, 0, Start_track
15, 0, Title_t, "Cello"
15, 0, MIDI_port, 0
15, 0, Program_c, 13, 48
15, 0, Control_c, 13, 10, 90
15, 0, Control_c, 13, 11, 127
15, 0, Control_c, 13, 7, 96
15, 0, Note_on_c, 13, 50, 76
15, 959, Note_on_c, 13, 50, 0
15, 960, Note_on_c, 13, 50, 76
15, 1919, Note_on_c, 13, 50, 0
15, 1920, Note_on_c, 13, 50, 76
15, 2213, Note_on_c, 13, 50, 0
15, 2220, Note_on_c, 13, 54, 76
15, 2273, Note_on_c, 13, 54, 0
15, 2280, Note_on_c, 13, 52, 76
15, 2333, Note_on_c, 13, 52, 0
15, 2340, Note_on_c, 13, 50, 76
15, 2393, Note_on_c, 13, 50, 0
15, 2400, Note_on_c, 13, 49, 76
15, 2573, Note_on_c, 13, 49, 0
15, 2580, Note_on_c, 13, 52, 76
15, 2633, Note_on_c, 13, 52, 0
15, 2640, Note_on_c, 13, 49, 76
15, 2813, Note_on_c, 13, 49, 0
15, 2820, Note_on_c, 13, 45, 76
15, 2873, Note_on_c, 13, 45, 0
15, 2880, Note_on_c, 13, 50, 76
15, 3413, Note_on_c, 13, 50, 0
15, 3420, Note_on_c, 13, 50, 76
15, 3473, Note_on_c, 13, 50, 0
15, 3480, Note_on_c, 13, 49, 76
15, 3533, Note_on_c, 13, 49, 0
15, 3540, Note_on_c, 13, 47, 76
15, 3593, Note_on_c, 13, 47, 0
15, 3600, Note_on_c, 13, 45, 76
15, 3653, Note_on_c, 13, 45, 0
15, 3660, Note_on_c, 13, 43, 76
15, 3713, Note_on_c, 13, 43, 0
15, 3720, Note_on_c, 13, 42, 76
15, 3773, Note_on_c, 13, 42, 0
15, 3780, Note_on_c, 13, 40, 76
15, 3833, Note_on_c, 13, 40, 0
15, 3840, Note_on_c, 13, 38, 76
15, 4307, Note_on_c, 13, 38, 0
15, 4320, Note_on_c, 13, 50, 76
15, 4973, Note_on_c, 13, 50, 0
15, 4980, Note_on_c, 13, 50, 76
15, 5033, Note_on_c, 13, 50, 0
15, 5040, Note_on_c, 13, 49, 76
15, 5213, Note_on_c, 13, 49, 0
15, 5220, Note_on_c, 13, 47, 76
15, 5273, Note_on_c, 13, 47, 0
15, 5280, Note_on_c, 13, 49, 76
15, 5507, Note_on_c, 13, 49, 0
15, 5520, Note_on_c, 13, 54, 76
15, 5747, Note_on_c, 13, 54, 0
15, 5760, Note_on_c, 13, 47, 76
15, 5813, Note_on_c, 13, 47, 0
15, 5820, Note_on_c, 13, 49, 76
15, 5873, Note_on_c, 13, 49, 0
15, 5880, Note_on_c, 13, 50, 76
15, 5933, Note_on_c, 13, 50, 0
15, 5940, Note_on_c, 13, 52, 76
15, 5993, Note_on_c, 13, 52, 0
15, 6000, Note_on_c, 13, 54, 76
15, 6053, Note_on_c, 13, 54, 0
15, 6060, Note_on_c, 13, 56, 76
15, 6113, Note_on_c, 13, 56, 0
15, 6120, Note_on_c, 13, 57, 76
15, 6173, Note_on_c, 13, 57, 0
15, 6180, Note_on_c, 13, 54, 76
15, 6233, Note_on_c, 13, 54, 0
15, 6240, Note_on_c, 13, 56, 76
15, 6587, Note_on_c, 13, 56, 0
15, 6600, Note_on_c, 13, 54, 76
15, 6653, Note_on_c, 13, 54, 0
15, 6660, Note_on_c, 13, 56, 76
15, 6713, Note_on_c, 13, 56, 0
15, 6720, Note_on_c, 13, 57, 76
15, 7733, Note_on_c, 13, 57, 0
15, 7740, Note_on_c, 13, 55, 76
15, 7793, Note_on_c, 13, 55, 0
15, 7800, Note_on_c, 13, 54, 76
15, 7853, Note_on_c, 13, 54, 0
15, 7860, Note_on_c, 13, 52, 76
15, 7913, Note_on_c, 13, 52, 0
15, 7920, Note_on_c, 13, 51, 76
15, 7973, Note_on_c, 13, 51, 0
15, 7980, Note_on_c, 13, 49, 76
15, 8033, Note_on_c, 13, 49, 0
15, 8040, Note_on_c, 13, 47, 76
15, 8093, Note_on_c, 13, 47, 0
15, 8100, Note_on_c, 13, 45, 76
15, 8153, Note_on_c, 13, 45, 0
15, 8160, Note_on_c, 13, 43, 76
15, 8333, Note_on_c, 13, 43, 0
15, 8340, Note_on_c, 13, 43, 76
15, 8393, Note_on_c, 13, 43, 0
15, 8400, Note_on_c, 13, 45, 76
15, 8573, Note_on_c, 13, 45, 0
15, 8580, Note_on_c, 13, 47, 76
15, 8633, Note_on_c, 13, 47, 0
15, 8640, Note_on_c, 13, 40, 76
15, 9107, Note_on_c, 13, 40, 0
15, 9120, Note_on_c, 13, 52, 76
15, 9773, Note_on_c, 13, 52, 0
15, 9780, Note_on_c, 13, 55, 76
15, 9833, Note_on_c, 13, 55, 0
15, 9840, Note_on_c, 13, 54, 76
15, 10013, Note_on_c, 13, 54, 0
15, 10020, Note_on_c, 13, 52, 76
15, 10073, Note_on_c, 13, 52, 0
15, 10080, Note_on_c, 13, 50, 76
15, 10253, Note_on_c, 13, 50, 0
15, 10260, Note_on_c, 13, 49, 76
15, 10313, Note_on_c, 13, 49, 0
15, 10320, Note_on_c, 13, 47, 76
15, 10493, Note_on_c, 13, 47, 0
15, 10500, Note_on_c, 13, 46, 76
15, 10553, Note_on_c, 13, 46, 0
15, 10560, Note_on_c, 13, 47, 76
15, 10733, Note_on_c, 13, 47, 0
15, 10740, Note_on_c, 13, 49, 76
15, 10793, Note_on_c, 13, 49, 0
15, 10800, Note_on_c, 13, 50, 76
15, 10973, Note_on_c, 13, 50, 0
15, 10980, Note_on_c, 13, 52, 76
15, 11033, Note_on_c, 13, 52, 0
15, 11040, Note_on_c, 13, 54, 76
15, 11213, Note_on_c, 13, 54, 0
15, 11220, Note_on_c, 13, 52, 76
15, 11245, Note_on_c, 13, 52, 0
15, 11250, Note_on_c, 13, 50, 76
15, 11275, Note_on_c, 13, 50, 0
15, 11280, Note_on_c, 13, 52, 76
15, 11453, Note_on_c, 13, 52, 0
15, 11460, Note_on_c, 13, 54, 76
15, 11513, Note_on_c, 13, 54, 0
15, 11520, Note_on_c, 13, 51, 76
15, 12053, Note_on_c, 13, 51, 0
15, 12060, Note_on_c, 13, 49, 76
15, 12113, Note_on_c, 13, 49, 0
15, 12120, Note_on_c, 13, 47, 76
15, 12173, Note_on_c, 13, 47, 0
15, 12180, Note_on_c, 13, 49, 76
15, 12233, Note_on_c, 13, 49, 0
15, 12240, Note_on_c, 13, 51, 76
15, 12293, Note_on_c, 13, 51, 0
15, 12300, Note_on_c, 13, 49, 76
15, 12353, Note_on_c, 13, 49, 0
15, 12360, Note_on_c, 13, 51, 76
15, 12413, Note_on_c, 13, 51, 0
15, 12420, Note_on_c, 13, 47, 76
15, 12473, Note_on_c, 13, 47, 0
15, 12480, Note_on_c, 13, 52, 76
15, 13013, Note_on_c, 13, 52, 0
15, 13020, Note_on_c, 13, 50, 76
15, 13073, Note_on_c, 13, 50, 0
15, 13080, Note_on_c, 13, 49, 76
15, 13133, Note_on_c, 13, 49, 0
15, 13140, Note_on_c, 13, 50, 76
15, 13193, Note_on_c, 13, 50, 0
15, 13200, Note_on_c, 13, 52, 76
15, 13253, Note_on_c, 13, 52, 0
15, 13260, Note_on_c, 13, 50, 76
15, 13313, Note_on_c, 13, 50, 0
15, 13320, Note_on_c, 13, 52, 76
15, 13373, Note_on_c, 13, 52, 0
15, 13380, Note_on_c, 13, 49, 76
15, 13433, Note_on_c, 13, 49, 0
15, 13440, Note_on_c, 13, 54, 76
15, 13973, Note_on_c, 13, 54, 0
15, 13980, Note_on_c, 13, 55, 76
15, 14033, Note_on_c, 13, 55, 0
15, 14040, Note_on_c, 13, 54, 76
15, 14093, Note_on_c, 13, 54, 0
15, 14100, Note_on_c, 13, 52, 76
15, 14153, Note_on_c, 13, 52, 0
15, 14160, Note_on_c, 13, 50, 76
15, 14213, Note_on_c, 13, 50, 0
15, 14220, Note_on_c, 13, 52, 76
15, 14273, Note_on_c, 13, 52, 0
15, 14280, Note_on_c, 13, 50, 76
15, 14333, Note_on_c, 13, 50, 0
15, 14340, Note_on_c, 13, 49, 76
15, 14393, Note_on_c, 13, 49, 0
15, 14400, Note_on_c, 13, 47, 76
15, 14693, Note_on_c, 13, 47, 0
15, 14700, Note_on_c, 13, 47, 76
15, 14753, Note_on_c, 13, 47, 0
15, 14760, Note_on_c, 13, 49, 76
15, 14813, Note_on_c, 13, 49, 0
15, 14820, Note_on_c, 13, 50, 76
15, 14873, Note_on_c, 13, 50, 0
15, 14880, Note_on_c, 13, 44, 76
15, 15053, Note_on_c, 13, 44, 0
15, 15060, Note_on_c, 13, 40, 76
15, 15113, Note_on_c, 13, 40, 0
15, 15120, Note_on_c, 13, 42, 76
15, 15293, Note_on_c, 13, 42, 0
15, 15300, Note_on_c, 13, 44, 76
15, 15353, Note_on_c, 13, 44, 0
15, 15360, Note_on_c, 13, 45, 76
15, 15533, Note_on_c, 13, 45, 0
15, 15540, Note_on_c, 13, 47, 76
15, 15593, Note_on_c, 13, 47, 0
15, 15600, Note_on_c, 13, 49, 76
15, 15773, Note_on_c, 13, 49, 0
15, 15780, Note_on_c, 13, 50, 76
15, 15833, Note_on_c, 13, 50, 0
15, 15840, Note_on_c, 13, 52, 76
15, 16067, Note_on_c, 13, 52, 0
15, 16080, Note_on_c, 13, 40, 76
15, 16307, Note_on_c, 13, 40, 0
15, 16320, Note_on_c, 13, 45, 76
15, 16799, Note_on_c, 13, 45, 0
15, 16800, Note_on_c, 13, 45, 76
15, 17093, Note_on_c, 13, 45, 0
15, 17100, Note_on_c, 13, 47, 76
15, 17153, Note_on_c, 13, 47, 0
15, 17160, Note_on_c, 13, 45, 76
15, 17213, Note_on_c, 13, 45, 0
15, 17220, Note_on_c, 13, 43, 76
15, 17273, Note_on_c, 13, 43, 0
15, 17280, Note_on_c, 13, 42, 76
15, 17573, Note_on_c, 13, 42, 0
15, 17580, Note_on_c, 13, 43, 76
15, 17633, Note_on_c, 13, 43, 0
15, 17640, Note_on_c, 13, 42, 76
15, 17693, Note_on_c, 13, 42, 0
15, 17700, Note_on_c, 13, 40, 76
15, 17753, Note_on_c, 13, 40, 0
15, 17760, Note_on_c, 13, 38, 76
15, 17933, Note_on_c, 13, 38, 0
15, 17940, Note_on_c, 13, 40, 76
15, 17993, Note_on_c, 13, 40, 0
15, 18000, Note_on_c, 13, 42, 76
15, 18173, Note_on_c, 13, 42, 0
15, 18180, Note_on_c, 13, 38, 76
15, 18233, Note_on_c, 13, 38, 0
15, 18240, Note_on_c, 13, 43, 76
15, 18707, Note_on_c, 13, 43, 0
15, 18720, Note_on_c, 13, 55, 76
15, 19199, Note_on_c, 13, 55, 0
15, 19200, Note_on_c, 13, 55, 76
15, 19493, Note_on_c, 13, 55, 0
15, 19500, Note_on_c, 13, 54, 76
15, 19553, Note_on_c, 13, 54, 0
15, 19560, Note_on_c, 13, 52, 76
15, 19613, Note_on_c, 13, 52, 0
15, 19620, Note_on_c, 13, 50, 76
15, 19673, Note_on_c, 13, 50, 0
15, 19680, Note_on_c, 13, 49, 76
15, 19853, Note_on_c, 13, 49, 0
15, 19860, Note_on_c, 13, 45, 76
15, 19913, Note_on_c, 13, 45, 0
15, 19920, Note_on_c, 13, 47, 76
15, 20093, Note_on_c, 13, 47, 0
15, 20100, Note_on_c, 13, 49, 76
15, 20153, Note_on_c, 13, 49, 0
15, 20160, Note_on_c, 13, 50, 76
15, 20333, Note_on_c, 13, 50, 0
15, 20340, Note_on_c, 13, 52, 76
15, 20393, Note_on_c, 13, 52, 0
15, 20400, Note_on_c, 13, 54, 76
15, 20573, Note_on_c, 13, 54, 0
15, 20580, Note_on_c, 13, 55, 76
15, 20633, Note_on_c, 13, 55, 0
15, 20640, Note_on_c, 13, 57, 76
15, 20693, Note_on_c, 13, 57, 0
15, 20700, Note_on_c, 13, 59, 76
15, 20753, Note_on_c, 13, 59, 0
15, 20760, Note_on_c, 13, 57, 76
15, 20813, Note_on_c, 13, 57, 0
15, 20820, Note_on_c, 13, 55, 76
15, 20873, Note_on_c, 13, 55, 0
15, 20880, Note_on_c, 13, 54, 76
15, 20933, Note_on_c, 13, 54, 0
15, 20940, Note_on_c, 13, 55, 76
15, 20993, Note_on_c, 13, 55, 0
15, 21000, Note_on_c, 13, 57, 76
15, 21053, Note_on_c, 13, 57, 0
15, 21060, Note_on_c, 13, 59, 76
15, 21113, Note_on_c, 13, 59, 0
15, 21120, Note_on_c, 13, 61, 76
15, 21173, Note_on_c, 13, 61, 0
15, 21180, Note_on_c, 13, 59, 76
15, 21233, Note_on_c, 13, 59, 0
15, 21240, Note_on_c, 13, 57, 76
15, 21293, Note_on_c, 13, 57, 0
15, 21300, Note_on_c, 13, 59, 76
15, 21353, Note_on_c, 13, 59, 0
15, 21360, Note_on_c, 13, 61, 76
15, 21413, Note_on_c, 13, 61, 0
15, 21420, Note_on_c, 13, 62, 76
15, 21473, Note_on_c, 13, 62, 0
15, 21480, Note_on_c, 13, 64, 76
15, 21533, Note_on_c, 13, 64, 0
15, 21540, Note_on_c, 13, 61, 76
15, 21593, Note_on_c, 13, 61, 0
15, 21600, Note_on_c, 13, 62, 76
15, 21827, Note_on_c, 13, 62, 0
15, 21840, Note_on_c, 13, 50, 76
15, 22067, Note_on_c, 13, 50, 0
15, 22080, Note_on_c, 13, 45, 76
15, 22253, Note_on_c, 13, 45, 0
15, 22260, Note_on_c, 13, 57, 76
15, 22313, Note_on_c, 13, 57, 0
15, 22320, Note_on_c, 13, 57, 76
15, 22493, Note_on_c, 13, 57, 0
15, 22500, Note_on_c, 13, 52, 76
15, 22553, Note_on_c, 13, 52, 0
15, 22560, Note_on_c, 13, 52, 76
15, 22733, Note_on_c, 13, 52, 0
15, 22740, Note_on_c, 13, 49, 76
15, 22793, Note_on_c, 13, 49, 0
15, 22800, Note_on_c, 13, 49, 76
15, 22973, Note_on_c, 13, 49, 0
15, 22980, Note_on_c, 13, 45, 76
15, 23033, Note_on_c, 13, 45, 0
15, 23040, Note_on_c, 13, 50, 76
15, 23999, Note_on_c, 13, 50, 0
15, 24000, Note_on_c, 13, 50, 76
15, 24959, Note_on_c, 13, 50, 0
15, 24960, Note_on_c, 13, 50, 76
15, 25253, Note_on_c, 13, 50, 0
15, 25260, Note_on_c, 13, 54, 76
15, 25313, Note_on_c, 13, 54, 0
15, 25320, Note_on_c, 13, 52, 76
15, 25373, Note_on_c, 13, 52, 0
15, 25380, Note_on_c, 13, 50, 76
15, 25433, Note_on_c, 13, 50, 0
15, 25440, Note_on_c, 13, 49, 76
15, 25613, Note_on_c, 13, 49, 0
15, 25620, Note_on_c, 13, 52, 76
15, 25673, Note_on_c, 13, 52, 0
15, 25680, Note_on_c, 13, 49, 76
15, 25853, Note_on_c, 13, 49, 0
15, 25860, Note_on_c, 13, 45, 76
15, 25913, Note_on_c, 13, 45, 0
15, 25920, Note_on_c, 13, 50, 76
15, 26453, Note_on_c, 13, 50, 0
15, 26460, Note_on_c, 13, 50, 76
15, 26513, Note_on_c, 13, 50, 0
15, 26520, Note_on_c, 13, 49, 76
15, 26573, Note_on_c, 13, 49, 0
15, 26580, Note_on_c, 13, 47, 76
15, 26633, Note_on_c, 13, 47, 0
15, 26640, Note_on_c, 13, 45, 76
15, 26693, Note_on_c, 13, 45, 0
15, 26700, Note_on_c, 13, 43, 76
15, 26753, Note_on_c, 13, 43, 0
15, 26760, Note_on_c, 13, 42, 76
15, 26813, Note_on_c, 13, 42, 0
15, 26820, Note_on_c, 13, 40, 76
15, 26873, Note_on_c, 13, 40, 0
15, 26880, Note_on_c, 13, 38, 76
15, 27347, Note_on_c, 13, 38, 0
15, 27360, Note_on_c, 13, 50, 76
15, 28013, Note_on_c, 13, 50, 0
15, 28020, Note_on_c, 13, 50, 76
15, 28073, Note_on_c, 13, 50, 0
15, 28080, Note_on_c, 13, 49, 76
15, 28253, Note_on_c, 13, 49, 0
15, 28260, Note_on_c, 13, 47, 76
15, 28313, Note_on_c, 13, 47, 0
15, 28320, Note_on_c, 13, 49, 76
15, 28547, Note_on_c, 13, 49, 0
15, 28560, Note_on_c, 13, 54, 76
15, 28787, Note_on_c, 13, 54, 0
15, 28800, Note_on_c, 13, 47, 76
15, 28853, Note_on_c, 13, 47, 0
15, 28860, Note_on_c, 13, 49, 76
15, 28913, Note_on_c, 13, 49, 0
15, 28920, Note_on_c, 13, 50, 76
15, 28973, Note_on_c, 13, 50, 0
15, 28980, Note_on_c, 13, 52, 76
15, 29033, Note_on_c, 13, 52, 0
15, 29040, Note_on_c, 13, 54, 76
15, 29093, Note_on_c, 13, 54, 0
15, 29100, Note_on_c, 13, 56, 76
15, 29153, Note_on_c, 13, 56, 0
15, 29160, Note_on_c, 13, 57, 76
15, 29213, Note_on_c, 13, 57, 0
15, 29220, Note_on_c, 13, 54, 76
15, 29273, Note_on_c, 13, 54, 0
15, 29280, Note_on_c, 13, 56, 76
15, 29627, Note_on_c, 13, 56, 0
15, 29640, Note_on_c, 13, 54, 76
15, 29693, Note_on_c, 13, 54, 0
15, 29700, Note_on_c, 13, 56, 76
15, 29753, Note_on_c, 13, 56, 0
15, 29760, Note_on_c, 13, 57, 76
15, 30773, Note_on_c, 13, 57, 0
15, 30780, Note_on_c, 13, 55, 76
15, 30833, Note_on_c, 13, 55, 0
15, 30840, Note_on_c, 13, 54, 76
15, 30893, Note_on_c, 13, 54, 0
15, 30900, Note_on_c, 13, 52, 76
15, 30953, Note_on_c, 13, 52, 0
15, 30960, Note_on_c, 13, 51, 76
15, 31013, Note_on_c, 13, 51, 0
15, 31020, Note_on_c, 13, 49, 76
15, 31073, Note_on_c, 13, 49, 0
15, 31080, Note_on_c, 13, 47, 76
15, 31133, Note_on_c, 13, 47, 0
15, 31140, Note_on_c, 13, 45, 76
15, 31193, Note_on_c, 13, 45, 0
15, 31200, Note_on_c, 13, 43, 76
15, 31373, Note_on_c, 13, 43, 0
15, 31380, Note_on_c, 13, 43, 76
15, 31433, Note_on_c, 13, 43, 0
15, 31440, Note_on_c, 13, 45, 76
15, 31613, Note_on_c, 13, 45, 0
15, 31620, Note_on_c, 13, 47, 76
15, 31673, Note_on_c, 13, 47, 0
15, 31680, Note_on_c, 13, 40, 76
15, 32147, Note_on_c, 13, 40, 0
15, 32160, Note_on_c, 13, 52, 76
15, 32813, Note_on_c, 13, 52, 0
15, 32820, Note_on_c, 13, 55, 76
15, 32873, Note_on_c, 13, 55, 0
15, 32880, Note_on_c, 13, 54, 76
15, 33053, Note_on_c, 13, 54, 0
15, 33060, Note_on_c, 13, 52, 76
15, 33113, Note_on_c, 13, 52, 0
15, 33120, Note_on_c, 13, 50, 76
15, 33293, Note_on_c, 13, 50, 0
15, 33300, Note_on_c, 13, 49, 76
15, 33353, Note_on_c, 13, 49, 0
15, 33360, Note_on_c, 13, 47, 76
15, 33533, Note_on_c, 13, 47, 0
15, 33540, Note_on_c, 13, 46, 76
15, 33593, Note_on_c, 13, 46, 0
15, 33600, Note_on_c, 13, 47, 76
15, 33773, Note_on_c, 13, 47, 0
15, 33780, Note_on_c, 13, 49, 76
15, 33833, Note_on_c, 13, 49, 0
15, 33840, Note_on_c, 13, 50, 76
15, 34013, Note_on_c, 13, 50, 0
15, 34020, Note_on_c, 13, 52, 76
15, 34073, Note_on_c, 13, 52, 0
15, 34080, Note_on_c, 13, 54, 76
15, 34253, Note_on_c, 13, 54, 0
15, 34260, Note_on_c, 13, 52, 76
15, 34285, Note_on_c, 13, 52, 0
15, 34290, Note_on_c, 13, 50, 76
15, 34315, Note_on_c, 13, 50, 0
15, 34320, Note_on_c, 13, 52, 76
15, 34493, Note_on_c, 13, 52, 0
15, 34500, Note_on_c, 13, 54, 76
15, 34553, Note_on_c, 13, 54, 0
15, 34560, Note_on_c, 13, 51, 76
15, 35093, Note_on_c, 13, 51, 0
15, 35100, Note_on_c, 13, 49, 76
15, 35153, Note_on_c, 13, 49, 0
15, 35160, Note_on_c, 13, 47, 76
15, 35213, Note_on_c, 13, 47, 0
15, 35220, Note_on_c, 13, 49, 76
15, 35273, Note_on_c, 13, 49, 0
15, 35280, Note_on_c, 13, 51, 76
15, 35333, Note_on_c, 13, 51, 0
15, 35340, Note_on_c, 13, 49, 76
15, 35393, Note_on_c, 13, 49, 0
15, 35400, Note_on_c, 13, 51, 76
15, 35453, Note_on_c, 13, 51, 0
15, 35460, Note_on_c, 13, 47, 76
15, 35513, Note_on_c, 13, 47, 0
15, 35520, Note_on_c, 13, 52, 76
15, 36053, Note_on_c, 13, 52, 0
15, 36060, Note_on_c, 13, 50, 76
15, 36113, Note_on_c, 13, 50, 0
15, 36120, Note_on_c, 13, 49, 76
15, 36173, Note_on_c, 13, 49, 0
15, 36180, Note_on_c, 13, 50, 76
15, 36233, Note_on_c, 13, 50, 0
15, 36240, Note_on_c, 13, 52, 76
15, 36293, Note_on_c, 13, 52, 0
15, 36300, Note_on_c, 13, 50, 76
15, 36353, Note_on_c, 13, 50, 0
15, 36360, Note_on_c, 13, 52, 76
15, 36413, Note_on_c, 13, 52, 0
15, 36420, Note_on_c, 13, 49, 76
15, 36473, Note_on_c, 13, 49, 0
15, 36480, Note_on_c, 13, 54, 76
15, 37013, Note_on_c, 13, 54, 0
15, 37020, Note_on_c, 13, 55, 76
15, 37073, Note_on_c, 13, 55, 0
15, 37080, Note_on_c, 13, 54, 76
15, 37133, Note_on_c, 13, 54, 0
15, 37140, Note_on_c, 13, 52, 76
15, 37193, Note_on_c, 13, 52, 0
15, 37200, Note_on_c, 13, 50, 76
15, 37253, Note_on_c, 13, 50, 0
15, 37260, Note_on_c, 13, 52, 76
15, 37313, Note_on_c, 13, 52, 0
15, 37320, Note_on_c, 13, 50, 76
15, 37373, Note_on_c, 13, 50, 0
15, 37380, Note_on_c, 13, 49, 76
15, 37433, Note_on_c, 13, 49, 0
15, 37440, Note_on_c, 13, 47, 76
15, 37733, Note_on_c, 13, 47, 0
15, 37740, Note_on_c, 13, 47, 76
15, 37793, Note_on_c, 13, 47, 0
15, 37800, Note_on_c, 13, 49, 76
15, 37853, Note_on_c, 13, 49, 0
15, 37860, Note_on_c, 13, 50, 76
15, 37913, Note_on_c, 13, 50, 0
15, 37920, Note_on_c, 13, 44, 76
15, 38093, Note_on_c, 13, 44, 0
15, 38100, Note_on_c, 13, 40, 76
15, 38153, Note_on_c, 13, 40, 0
15, 38160, Note_on_c, 13, 42, 76
15, 38333, Note_on_c, 13, 42, 0
15, 38340, Note_on_c, 13, 44, 76
15, 38393, Note_on_c, 13, 44, 0
15, 38400, Note_on_c, 13, 45, 76
15, 38573, Note_on_c, 13, 45, 0
15, 38580, Note_on_c, 13, 47, 76
15, 38633, Note_on_c, 13, 47, 0
15, 38640, Note_on_c, 13, 49, 76
15, 38813, Note_on_c, 13, 49, 0
15, 38820, Note_on_c, 13, 50, 76
15, 38873, Note_on_c, 13, 50, 0
15, 38880, Note_on_c, 13, 52, 76
15, 39107, Note_on_c, 13, 52, 0
15, 39120, Note_on_c, 13, 40, 76
15, 39347, Note_on_c, 13, 40, 0
15, 39360, Note_on_c, 13, 45, 76
15, 39839, Note_on_c, 13, 45, 0
15, 39840, Note_on_c, 13, 45, 76
15, 40133, Note_on_c, 13, 45, 0
15, 40140, Note_on_c, 13, 47, 76
15, 40193, Note_on_c, 13, 47, 0
15, 40200, Note_on_c, 13, 45, 76
15, 40253, Note_on_c, 13, 45, 0
15, 40260, Note_on_c, 13, 43, 76
15, 40313, Note_on_c, 13, 43, 0
15, 40320, Note_on_c, 13, 42, 76
15, 40613, Note_on_c, 13, 42, 0
15, 40620, Note_on_c, 13, 43, 76
15, 40673, Note_on_c, 13, 43, 0
15, 40680, Note_on_c, 13, 42, 76
15, 40733, Note_on_c, 13, 42, 0
15, 40740, Note_on_c, 13, 40, 76
15, 40793, Note_on_c, 13, 40, 0
15, 40800, Note_on_c, 13, 38, 76
15, 40973, Note_on_c, 13, 38, 0
15, 40980, Note_on_c, 13, 40, 76
15, 41033, Note_on_c, 13, 40, 0
15, 41040, Note_on_c, 13, 42, 76
15, 41213, Note_on_c, 13, 42, 0
15, 41220, Note_on_c, 13, 38, 76
15, 41273, Note_on_c, 13, 38, 0
15, 41280, Note_on_c, 13, 43, 76
15, 41747, Note_on_c, 13, 43, 0
15, 41760, Note_on_c, 13, 55, 76
15, 42239, Note_on_c, 13, 55, 0
15, 42240, Note_on_c, 13, 55, 76
15, 42533, Note_on_c, 13, 55, 0
15, 42540, Note_on_c, 13, 54, 76
15, 42593, Note_on_c, 13, 54, 0
15, 42600, Note_on_c, 13, 52, 76
15, 42653, Note_on_c, 13, 52, 0
15, 42660, Note_on_c, 13, 50, 76
15, 42713, Note_on_c, 13, 50, 0
15, 42720, Note_on_c, 13, 49, 76
15, 42893, Note_on_c, 13, 49, 0
15, 42900, Note_on_c, 13, 45, 76
15, 42953, Note_on_c, 13, 45, 0
15, 42960, Note_on_c, 13, 47, 76
15, 43133, Note_on_c, 13, 47, 0
15, 43140, Note_on_c, 13, 49, 76
15, 43193, Note_on_c, 13, 49, 0
15, 43200, Note_on_c, 13, 50, 76
15, 43373, Note_on_c, 13, 50, 0
15, 43380, Note_on_c, 13, 52, 76
15, 43433, Note_on_c, 13, 52, 0
15, 43440, Note_on_c, 13, 54, 76
15, 43613, Note_on_c, 13, 54, 0
15, 43620, Note_on_c, 13, 55, 76
15, 43673, Note_on_c, 13, 55, 0
15, 43680, Note_on_c, 13, 57, 76
15, 43733, Note_on_c, 13, 57, 0
15, 43740, Note_on_c, 13, 59, 76
15, 43793, Note_on_c, 13, 59, 0
15, 43800, Note_on_c, 13, 57, 76
15, 43853, Note_on_c, 13, 57, 0
15, 43860, Note_on_c, 13, 55, 76
15, 43913, Note_on_c, 13, 55, 0
15, 43920, Note_on_c, 13, 54, 76
15, 43973, Note_on_c, 13, 54, 0
15, 43980, Note_on_c, 13, 55, 76
15, 44033, Note_on_c, 13, 55, 0
15, 44040, Note_on_c, 13, 57, 76
15, 44093, Note_on_c, 13, 57, 0
15, 44100, Note_on_c, 13, 59, 76
15, 44153, Note_on_c, 13, 59, 0
15, 44160, Note_on_c, 13, 61, 76
15, 44213, Note_on_c, 13, 61, 0
15, 44220, Note_on_c, 13, 59, 76
15, 44273, Note_on_c, 13, 59, 0
15, 44280, Note_on_c, 13, 57, 76
15, 44333, Note_on_c, 13, 57, 0
15, 44340, Note_on_c, 13, 59, 76
15, 44393, Note_on_c, 13, 59, 0
15, 44400, Note_on_c, 13, 61, 76
15, 44453, Note_on_c, 13, 61, 0
15, 44460, Note_on_c, 13, 62, 76
15, 44513, Note_on_c, 13, 62, 0
15, 44520, Note_on_c, 13, 64, 76
15, 44573, Note_on_c, 13, 64, 0
15, 44580, Note_on_c, 13, 61, 76
15, 44633, Note_on_c, 13, 61, 0
15, 44640, Note_on_c, 13, 62, 76
15, 44867, Note_on_c, 13, 62, 0
15, 44880, Note_on_c, 13, 50, 76
15, 45107, Note_on_c, 13, 50, 0
15, 45120, Note_on_c, 13, 45, 76
15, 45359, Note_on_c, 13, 45, 0
15, 50520, Note_on_c, 13, 50, 76
15, 50567, Note_on_c, 13, 50, 0
15, 50580, Note_on_c, 13, 52, 76
15, 50627, Note_on_c, 13, 52, 0
15, 50640, Note_on_c, 13, 54, 76
15, 50744, Note_on_c, 13, 54, 0
15, 50760, Note_on_c, 13, 54, 76
15, 50807, Note_on_c, 13, 54, 0
15, 50820, Note_on_c, 13, 55, 76
15, 50867, Note_on_c, 13, 55, 0
15, 50880, Note_on_c, 13, 57, 76
15, 50984, Note_on_c, 13, 57, 0
15, 51000, Note_on_c, 13, 54, 76
15, 51047, Note_on_c, 13, 54, 0
15, 51060, Note_on_c, 13, 55, 76
15, 51107, Note_on_c, 13, 55, 0
15, 51120, Note_on_c, 13, 57, 76
15, 51224, Note_on_c, 13, 57, 0
15, 51240, Note_on_c, 13, 57, 76
15, 51287, Note_on_c, 13, 57, 0
15, 51300, Note_on_c, 13, 59, 76
15, 51347, Note_on_c, 13, 59, 0
15, 51360, Note_on_c, 13, 60, 76
15, 51464, Note_on_c, 13, 60, 0
15, 51480, Note_on_c, 13, 60, 76
15, 51527, Note_on_c, 13, 60, 0
15, 51540, Note_on_c, 13, 59, 76
15, 51587, Note_on_c, 13, 59, 0
15, 51600, Note_on_c, 13, 60, 76
15, 51704, Note_on_c, 13, 60, 0
15, 51720, Note_on_c, 13, 62, 76
15, 51767, Note_on_c, 13, 62, 0
15, 51780, Note_on_c, 13, 60, 76
15, 51827, Note_on_c, 13, 60, 0
15, 51840, Note_on_c, 13, 59, 76
15, 51944, Note_on_c, 13, 59, 0
15, 51960, Note_on_c, 13, 52, 76
15, 52007, Note_on_c, 13, 52, 0
15, 52020, Note_on_c, 13, 54, 76
15, 52067, Note_on_c, 13, 54, 0
15, 52080, Note_on_c, 13, 56, 76
15, 52184, Note_on_c, 13, 56, 0
15, 52200, Note_on_c, 13, 56, 76
15, 52247, Note_on_c, 13, 56, 0
15, 52260, Note_on_c, 13, 57, 76
15, 52307, Note_on_c, 13, 57, 0
15, 52320, Note_on_c, 13, 59, 76
15, 52424, Note_on_c, 13, 59, 0
15, 52440, Note_on_c, 13, 56, 76
15, 52487, Note_on_c, 13, 56, 0
15, 52500, Note_on_c, 13, 57, 76
15, 52547, Note_on_c, 13, 57, 0
15, 52560, Note_on_c, 13, 59, 76
15, 52664, Note_on_c, 13, 59, 0
15, 52680, Note_on_c, 13, 59, 76
15, 52727, Note_on_c, 13, 59, 0
15, 52740, Note_on_c, 13, 61, 76
15, 52787, Note_on_c, 13, 61, 0
15, 52800, Note_on_c, 13, 62, 76
15, 52904, Note_on_c, 13, 62, 0
15, 52920, Note_on_c, 13, 62, 76
15, 52967, Note_on_c, 13, 62, 0
15, 52980, Note_on_c, 13, 61, 76
15, 53027, Note_on_c, 13, 61, 0
15, 53040, Note_on_c, 13, 62, 76
15, 53144, Note_on_c, 13, 62, 0
15, 53160, Note_on_c, 13, 64, 76
15, 53207, Note_on_c, 13, 64, 0
15, 53220, Note_on_c, 13, 62, 76
15, 53267, Note_on_c, 13, 62, 0
15, 53280, Note_on_c, 13, 61, 76
15, 53384, Note_on_c, 13, 61, 0
15, 53400, Note_on_c, 13, 64, 76
15, 53504, Note_on_c, 13, 64, 0
15, 53520, Note_on_c, 13, 57, 76
15, 53624, Note_on_c, 13, 57, 0
15, 53640, Note_on_c, 13, 61, 76
15, 53864, Note_on_c, 13, 61, 0
15, 53880, Note_on_c, 13, 64, 76
15, 53984, Note_on_c, 13, 64, 0
15, 54000, Note_on_c, 13, 55, 76
15, 54104, Note_on_c, 13, 55, 0
15, 54120, Note_on_c, 13, 61, 76
15, 54344, Note_on_c, 13, 61, 0
15, 54360, Note_on_c, 13, 64, 76
15, 54464, Note_on_c, 13, 64, 0
15, 54480, Note_on_c, 13, 57, 76
15, 54584, Note_on_c, 13, 57, 0
15, 54600, Note_on_c, 13, 61, 76
15, 54704, Note_on_c, 13, 61, 0
15, 54720, Note_on_c, 13, 50, 76
15, 54824, Note_on_c, 13, 50, 0
15, 54840, Note_on_c, 13, 62, 76
15, 54944, Note_on_c, 13, 62, 0
15, 54960, Note_on_c, 13, 55, 76
15, 55064, Note_on_c, 13, 55, 0
15, 55080, Note_on_c, 13, 59, 76
15, 55184, Note_on_c, 13, 59, 0
15, 55200, Note_on_c, 13, 49, 76
15, 55304, Note_on_c, 13, 49, 0
15, 55320, Note_on_c, 13, 61, 76
15, 55424, Note_on_c, 13, 61, 0
15, 55440, Note_on_c, 13, 54, 76
15, 55544, Note_on_c, 13, 54, 0
15, 55560, Note_on_c, 13, 58, 76
15, 55664, Note_on_c, 13, 58, 0
15, 55680, Note_on_c, 13, 47, 76
15, 55784, Note_on_c, 13, 47, 0
15, 55800, Note_on_c, 13, 59, 76
15, 55904, Note_on_c, 13, 59, 0
15, 55920, Note_on_c, 13, 57, 76
15, 56024, Note_on_c, 13, 57, 0
15, 56040, Note_on_c, 13, 55, 76
15, 56144, Note_on_c, 13, 55, 0
15, 56160, Note_on_c, 13, 54, 76
15, 56264, Note_on_c, 13, 54, 0
15, 56280, Note_on_c, 13, 59, 76
15, 56384, Note_on_c, 13, 59, 0
15, 56400, Note_on_c, 13, 57, 76
15, 56504, Note_on_c, 13, 57, 0
15, 56520, Note_on_c, 13, 55, 76
15, 56624, Note_on_c, 13, 55, 0
15, 56640, Note_on_c, 13, 54, 76
15, 56744, Note_on_c, 13, 54, 0
15, 56760, Note_on_c, 13, 57, 76
15, 56864, Note_on_c, 13, 57, 0
15, 56880, Note_on_c, 13, 50, 76
15, 56984, Note_on_c, 13, 50, 0
15, 57000, Note_on_c, 13, 54, 76
15, 57104, Note_on_c, 13, 54, 0
15, 57120, Note_on_c, 13, 43, 76
15, 57224, Note_on_c, 13, 43, 0
15, 57240, Note_on_c, 13, 55, 76
15, 57344, Note_on_c, 13, 55, 0
15, 57360, Note_on_c, 13, 49, 76
15, 57464, Note_on_c, 13, 49, 0
15, 57480, Note_on_c, 13, 52, 76
15, 57584, Note_on_c, 13, 52, 0
15, 57600, Note_on_c, 13, 42, 76
15, 57704, Note_on_c, 13, 42, 0
15, 57720, Note_on_c, 13, 54, 76
15, 57824, Note_on_c, 13, 54, 0
15, 57840, Note_on_c, 13, 47, 76
15, 57944, Note_on_c, 13, 47, 0
15, 57960, Note_on_c, 13, 50, 76
15, 58064, Note_on_c, 13, 50, 0
15, 58080, Note_on_c, 13, 40, 76
15, 58184, Note_on_c, 13, 40, 0
15, 58200, Note_on_c, 13, 45, 76
15, 58304, Note_on_c, 13, 45, 0
15, 58320, Note_on_c, 13, 50, 76
15, 58424, Note_on_c, 13, 50, 0
15, 58440, Note_on_c, 13, 38, 76
15, 58544, Note_on_c, 13, 38, 0
15, 58560, Note_on_c, 13, 45, 76
15, 58664, Note_on_c, 13, 45, 0
15, 58680, Note_on_c, 13, 45, 76
15, 58727, Note_on_c, 13, 45, 0
15, 58740, Note_on_c, 13, 47, 76
15, 58787, Note_on_c, 13, 47, 0
15, 58800, Note_on_c, 13, 49, 76
15, 58904, Note_on_c, 13, 49, 0
15, 58920, Note_on_c, 13, 49, 76
15, 58967, Note_on_c, 13, 49, 0
15, 58980, Note_on_c, 13, 50, 76
15, 59027, Note_on_c, 13, 50, 0
15, 59040, Note_on_c, 13, 52, 76
15, 59144, Note_on_c, 13, 52, 0
15, 59160, Note_on_c, 13, 49, 76
15, 59207, Note_on_c, 13, 49, 0
15, 59220, Note_on_c, 13, 50, 76
15, 59267, Note_on_c, 13, 50, 0
15, 59280, Note_on_c, 13, 52, 76
15, 59384, Note_on_c, 13, 52, 0
15, 59400, Note_on_c, 13, 52, 76
15, 59447, Note_on_c, 13, 52, 0
15, 59460, Note_on_c, 13, 54, 76
15, 59507, Note_on_c, 13, 54, 0
15, 59520, Note_on_c, 13, 55, 76
15, 59624, Note_on_c, 13, 55, 0
15, 59640, Note_on_c, 13, 55, 76
15, 59687, Note_on_c, 13, 55, 0
15, 59700, Note_on_c, 13, 54, 76
15, 59747, Note_on_c, 13, 54, 0
15, 59760, Note_on_c, 13, 55, 76
15, 59864, Note_on_c, 13, 55, 0
15, 59880, Note_on_c, 13, 57, 76
15, 59927, Note_on_c, 13, 57, 0
15, 59940, Note_on_c, 13, 55, 76
15, 59987, Note_on_c, 13, 55, 0
15, 60000, Note_on_c, 13, 54, 76
15, 60104, Note_on_c, 13, 54, 0
15, 60120, Note_on_c, 13, 54, 76
15, 60167, Note_on_c, 13, 54, 0
15, 60180, Note_on_c, 13, 52, 76
15, 60227, Note_on_c, 13, 52, 0
15, 60240, Note_on_c, 13, 54, 76
15, 60344, Note_on_c, 13, 54, 0
15, 60360, Note_on_c, 13, 55, 76
15, 60407, Note_on_c, 13, 55, 0
15, 60420, Note_on_c, 13, 54, 76
15, 60467, Note_on_c, 13, 54, 0
15, 60480, Note_on_c, 13, 52, 76
15, 60584, Note_on_c, 13, 52, 0
15, 60600, Note_on_c, 13, 52, 76
15, 60647, Note_on_c, 13, 52, 0
15, 60660, Note_on_c, 13, 50, 76
15, 60707, Note_on_c, 13, 50, 0
15, 60720, Note_on_c, 13, 52, 76
15, 60824, Note_on_c, 13, 52, 0
15, 60840, Note_on_c, 13, 54, 76
15, 60887, Note_on_c, 13, 54, 0
15, 60900, Note_on_c, 13, 52, 76
15, 60947, Note_on_c, 13, 52, 0
15, 60960, Note_on_c, 13, 50, 76
15, 61007, Note_on_c, 13, 50, 0
15, 61020, Note_on_c, 13, 52, 76
15, 61067, Note_on_c, 13, 52, 0
15, 61080, Note_on_c, 13, 54, 76
15, 61127, Note_on_c, 13, 54, 0
15, 61140, Note_on_c, 13, 50, 76
15, 61187, Note_on_c, 13, 50, 0
15, 61200, Note_on_c, 13, 55, 76
15, 61247, Note_on_c, 13, 55, 0
15, 61260, Note_on_c, 13, 57, 76
15, 61307, Note_on_c, 13, 57, 0
15, 61320, Note_on_c, 13, 54, 76
15, 61367, Note_on_c, 13, 54, 0
15, 61380, Note_on_c, 13, 55, 76
15, 61427, Note_on_c, 13, 55, 0
15, 61440, Note_on_c, 13, 57, 76
15, 61544, Note_on_c, 13, 57, 0
15, 61560, Note_on_c, 13, 55, 76
15, 61664, Note_on_c, 13, 55, 0
15, 61680, Note_on_c, 13, 54, 76
15, 61784, Note_on_c, 13, 54, 0
15, 61800, Note_on_c, 13, 52, 76
15, 61904, Note_on_c, 13, 52, 0
15, 61920, Note_on_c, 13, 50, 76
15, 62024, Note_on_c, 13, 50, 0
15, 62040, Note_on_c, 13, 55, 76
15, 62144, Note_on_c, 13, 55, 0
15, 62160, Note_on_c, 13, 57, 76
15, 62264, Note_on_c, 13, 57, 0
15, 62280, Note_on_c, 13, 45, 76
15, 62384, Note_on_c, 13, 45, 0
15, 62400, Note_on_c, 13, 50, 76
15, 62639, Note_on_c, 13, 50, 0
15, 62760, Note_on_c, 13, 49, 76
15, 62864, Note_on_c, 13, 49, 0
15, 62880, Note_on_c, 13, 50, 76
15, 62984, Note_on_c, 13, 50, 0
15, 63000, Note_on_c, 13, 47, 76
15, 63104, Note_on_c, 13, 47, 0
15, 63120, Note_on_c, 13, 43, 76
15, 63224, Note_on_c, 13, 43, 0
15, 63240, Note_on_c, 13, 45, 76
15, 63344, Note_on_c, 13, 45, 0
15, 63360, Note_on_c, 13, 38, 76
15, 63599, Note_on_c, 13, 38, 0
15, 63720, Note_on_c, 13, 50, 76
15, 63824, Note_on_c, 13, 50, 0
15, 63840, Note_on_c, 13, 49, 76
15, 63944, Note_on_c, 13, 49, 0
15, 63960, Note_on_c, 13, 54, 76
15, 64064, Note_on_c, 13, 54, 0
15, 64080, Note_on_c, 13, 50, 76
15, 64184, Note_on_c, 13, 50, 0
15, 64200, Note_on_c, 13, 52, 76
15, 64304, Note_on_c, 13, 52, 0
15, 64320, Note_on_c, 13, 45, 76
15, 64424, Note_on_c, 13, 45, 0
15, 64440, Note_on_c, 13, 57, 76
15, 64544, Note_on_c, 13, 57, 0
15, 64560, Note_on_c, 13, 57, 76
15, 64664, Note_on_c, 13, 57, 0
15, 64680, Note_on_c, 13, 57, 76
15, 64799, Note_on_c, 13, 57, 0
15, 64920, Note_on_c, 13, 55, 76
15, 65024, Note_on_c, 13, 55, 0
15, 65040, Note_on_c, 13, 55, 76
15, 65144, Note_on_c, 13, 55, 0
15, 65160, Note_on_c, 13, 55, 76
15, 65279, Note_on_c, 13, 55, 0
15, 65400, Note_on_c, 13, 54, 76
15, 65504, Note_on_c, 13, 54, 0
15, 65520, Note_on_c, 13, 54, 76
15, 65624, Note_on_c, 13, 54, 0
15, 65640, Note_on_c, 13, 54, 76
15, 65759, Note_on_c, 13, 54, 0
15, 65880, Note_on_c, 13, 42, 76
15, 65984, Note_on_c, 13, 42, 0
15, 66000, Note_on_c, 13, 42, 76
15, 66104, Note_on_c, 13, 42, 0
15, 66120, Note_on_c, 13, 42, 76
15, 66239, Note_on_c, 13, 42, 0
15, 66360, Note_on_c, 13, 47, 76
15, 66464, Note_on_c, 13, 47, 0
15, 66480, Note_on_c, 13, 47, 76
15, 66584, Note_on_c, 13, 47, 0
15, 66600, Note_on_c, 13, 47, 76
15, 66719, Note_on_c, 13, 47, 0
15, 66840, Note_on_c, 13, 54, 76
15, 66944, Note_on_c, 13, 54, 0
15, 66960, Note_on_c, 13, 54, 76
15, 67064, Note_on_c, 13, 54, 0
15, 67080, Note_on_c, 13, 54, 76
15, 67199, Note_on_c, 13, 54, 0
15, 67320, Note_on_c, 13, 51, 76
15, 67424, Note_on_c, 13, 51, 0
15, 67440, Note_on_c, 13, 51, 76
15, 67544, Note_on_c, 13, 51, 0
15, 67560, Note_on_c, 13, 51, 76
15, 67679, Note_on_c, 13, 51, 0
15, 67800, Note_on_c, 13, 47, 76
15, 67904, Note_on_c, 13, 47, 0
15, 67920, Note_on_c, 13, 47, 76
15, 68024, Note_on_c, 13, 47, 0
15, 68040, Note_on_c, 13, 47, 76
15, 68144, Note_on_c, 13, 47, 0
15, 68160, Note_on_c, 13, 52, 76
15, 68264, Note_on_c, 13, 52, 0
15, 68280, Note_on_c, 13, 64, 76
15, 68384, Note_on_c, 13, 64, 0
15, 68400, Note_on_c, 13, 57, 76
15, 68504, Note_on_c, 13, 57, 0
15, 68520, Note_on_c, 13, 61, 76
15, 68624, Note_on_c, 13, 61, 0
15, 68640, Note_on_c, 13, 50, 76
15, 68744, Note_on_c, 13, 50, 0
15, 68760, Note_on_c, 13, 62, 76
15, 68864, Note_on_c, 13, 62, 0
15, 68880, Note_on_c, 13, 55, 76
15, 68984, Note_on_c, 13, 55, 0
15, 69000, Note_on_c, 13, 59, 76
15, 69104, Note_on_c, 13, 59, 0
15, 69120, Note_on_c, 13, 49, 76
15, 69224, Note_on_c, 13, 49, 0
15, 69240, Note_on_c, 13, 61, 76
15, 69344, Note_on_c, 13, 61, 0
15, 69360, Note_on_c, 13, 54, 76
15, 69464, Note_on_c, 13, 54, 0
15, 69480, Note_on_c, 13, 58, 76
15, 69584, Note_on_c, 13, 58, 0
15, 69600, Note_on_c, 13, 47, 76
15, 69704, Note_on_c, 13, 47, 0
15, 69720, Note_on_c, 13, 59, 76
15, 69824, Note_on_c, 13, 59, 0
15, 69840, Note_on_c, 13, 55, 76
15, 69944, Note_on_c, 13, 55, 0
15, 69960, Note_on_c, 13, 52, 76
15, 70064, Note_on_c, 13, 52, 0
15, 70080, Note_on_c, 13, 54, 76
15, 70319, Note_on_c, 13, 54, 0
15, 70560, Note_on_c, 13, 42, 76
15, 70799, Note_on_c, 13, 42, 0
15, 71160, Note_on_c, 13, 54, 76
15, 71264, Note_on_c, 13, 54, 0
15, 71280, Note_on_c, 13, 58, 76
15, 71384, Note_on_c, 13, 58, 0
15, 71400, Note_on_c, 13, 54, 76
15, 71504, Note_on_c, 13, 54, 0
15, 71520, Note_on_c, 13, 59, 76
15, 71759, Note_on_c, 13, 59, 0
15, 72000, Note_on_c, 13, 47, 76
15, 72239, Note_on_c, 13, 47, 0
15, 72600, Note_on_c, 13, 59, 76
15, 72704, Note_on_c, 13, 59, 0
15, 72720, Note_on_c, 13, 47, 76
15, 72824, Note_on_c, 13, 47, 0
15, 72840, Note_on_c, 13, 51, 76
15, 72944, Note_on_c, 13, 51, 0
15, 72960, Note_on_c, 13, 52, 76
15, 73199, Note_on_c, 13, 52, 0
15, 73440, Note_on_c, 13, 40, 76
15, 73679, Note_on_c, 13, 40, 0
15, 74040, Note_on_c, 13, 52, 76
15, 74144, Note_on_c, 13, 52, 0
15, 74160, Note_on_c, 13, 56, 76
15, 74264, Note_on_c, 13, 56, 0
15, 74280, Note_on_c, 13, 52, 76
15, 74384, Note_on_c, 13, 52, 0
15, 74400, Note_on_c, 13, 57, 76
15, 74639, Note_on_c, 13, 57, 0
15, 74880, Note_on_c, 13, 45, 76
15, 75119, Note_on_c, 13, 45, 0
15, 75480, Note_on_c, 13, 57, 76
15, 75584, Note_on_c, 13, 57, 0
15, 75600, Note_on_c, 13, 45, 76
15, 75704, Note_on_c, 13, 45, 0
15, 75720, Note_on_c, 13, 49, 76
15, 75824, Note_on_c, 13, 49, 0
15, 75840, Note_on_c, 13, 50, 76
15, 75944, Note_on_c, 13, 50, 0
15, 75960, Note_on_c, 13, 49, 76
15, 76064, Note_on_c, 13, 49, 0
15, 76080, Note_on_c, 13, 50, 76
15, 76184, Note_on_c, 13, 50, 0
15, 76200, Note_on_c, 13, 52, 76
15, 76304, Note_on_c, 13, 52, 0
15, 76320, Note_on_c, 13, 54, 76
15, 76424, Note_on_c, 13, 54, 0
15, 76440, Note_on_c, 13, 52, 76
15, 76544, Note_on_c, 13, 52, 0
15, 76560, Note_on_c, 13, 54, 76
15, 76664, Note_on_c, 13, 54, 0
15, 76680, Note_on_c, 13, 56, 76
15, 76784, Note_on_c, 13, 56, 0
15, 76800, Note_on_c, 13, 57, 76
15, 76904, Note_on_c, 13, 57, 0
15, 76920, Note_on_c, 13, 56, 76
15, 77024, Note_on_c, 13, 56, 0
15, 77040, Note_on_c, 13, 57, 76
15, 77144, Note_on_c, 13, 57, 0
15, 77160, Note_on_c, 13, 54, 76
15, 77264, Note_on_c, 13, 54, 0
15, 77280, Note_on_c, 13, 49, 76
15, 77384, Note_on_c, 13, 49, 0
15, 77400, Note_on_c, 13, 50, 76
15, 77504, Note_on_c, 13, 50, 0
15, 77520, Note_on_c, 13, 52, 76
15, 77624, Note_on_c, 13, 52, 0
15, 77640, Note_on_c, 13, 40, 76
15, 77744, Note_on_c, 13, 40, 0
15, 77760, Note_on_c, 13, 45, 76
15, 77864, Note_on_c, 13, 45, 0
15, 77880, Note_on_c, 13, 45, 76
15, 77927, Note_on_c, 13, 45, 0
15, 77940, Note_on_c, 13, 47, 76
15, 77987, Note_on_c, 13, 47, 0
15, 78000, Note_on_c, 13, 49, 76
15, 78104, Note_on_c, 13, 49, 0
15, 78120, Note_on_c, 13, 49, 76
15, 78167, Note_on_c, 13, 49, 0
15, 78180, Note_on_c, 13, 50, 76
15, 78227, Note_on_c, 13, 50, 0
15, 78240, Note_on_c, 13, 52, 76
15, 78344, Note_on_c, 13, 52, 0
15, 78360, Note_on_c, 13, 49, 76
15, 78407, Note_on_c, 13, 49, 0
15, 78420, Note_on_c, 13, 50, 76
15, 78467, Note_on_c, 13, 50, 0
15, 78480, Note_on_c, 13, 52, 76
15, 78584, Note_on_c, 13, 52, 0
15, 78600, Note_on_c, 13, 52, 76
15, 78647, Note_on_c, 13, 52, 0
15, 78660, Note_on_c, 13, 54, 76
15, 78707, Note_on_c, 13, 54, 0
15, 78720, Note_on_c, 13, 55, 76
15, 78824, Note_on_c, 13, 55, 0
15, 78840, Note_on_c, 13, 55, 76
15, 78887, Note_on_c, 13, 55, 0
15, 78900, Note_on_c, 13, 54, 76
15, 78947, Note_on_c, 13, 54, 0
15, 78960, Note_on_c, 13, 55, 76
15, 79064, Note_on_c, 13, 55, 0
15, 79080, Note_on_c, 13, 57, 76
15, 79127, Note_on_c, 13, 57, 0
15, 79140, Note_on_c, 13, 55, 76
15, 79187, Note_on_c, 13, 55, 0
15, 79200, Note_on_c, 13, 54, 76
15, 79304, Note_on_c, 13, 54, 0
15, 79320, Note_on_c, 13, 47, 76
15, 79367, Note_on_c, 13, 47, 0
15, 79380, Note_on_c, 13, 49, 76
15, 79427, Note_on_c, 13, 49, 0
15, 79440, Note_on_c, 13, 51, 76
15, 79544, Note_on_c, 13, 51, 0
15, 79560, Note_on_c, 13, 51, 76
15, 79607, Note_on_c, 13, 51, 0
15, 79620, Note_on_c, 13, 52, 76
15, 79667, Note_on_c, 13, 52, 0
15, 79680, Note_on_c, 13, 54, 76
15, 79784, Note_on_c, 13, 54, 0
15, 79800, Note_on_c, 13, 51, 76
15, 79847, Note_on_c, 13, 51, 0
15, 79860, Note_on_c, 13, 52, 76
15, 79907, Note_on_c, 13, 52, 0
15, 79920, Note_on_c, 13, 54, 76
15, 80024, Note_on_c, 13, 54, 0
15, 80040, Note_on_c, 13, 54, 76
15, 80087, Note_on_c, 13, 54, 0
15, 80100, Note_on_c, 13, 56, 76
15, 80147, Note_on_c, 13, 56, 0
15, 80160, Note_on_c, 13, 57, 76
15, 80264, Note_on_c, 13, 57, 0
15, 80280, Note_on_c, 13, 57, 76
15, 80327, Note_on_c, 13, 57, 0
15, 80340, Note_on_c, 13, 56, 76
15, 80387, Note_on_c, 13, 56, 0
15, 80400, Note_on_c, 13, 57, 76
15, 80504, Note_on_c, 13, 57, 0
15, 80520, Note_on_c, 13, 59, 76
15, 80567, Note_on_c, 13, 59, 0
15, 80580, Note_on_c, 13, 57, 76
15, 80627, Note_on_c, 13, 57, 0
15, 80640, Note_on_c, 13, 56, 76
15, 80744, Note_on_c, 13, 56, 0
15, 80760, Note_on_c, 13, 59, 76
15, 80864, Note_on_c, 13, 59, 0
15, 80880, Note_on_c, 13, 52, 76
15, 80984, Note_on_c, 13, 52, 0
15, 81000, Note_on_c, 13, 56, 76
15, 81224, Note_on_c, 13, 56, 0
15, 81240, Note_on_c, 13, 59, 76
15, 81344, Note_on_c, 13, 59, 0
15, 81360, Note_on_c, 13, 50, 76
15, 81464, Note_on_c, 13, 50, 0
15, 81480, Note_on_c, 13, 56, 76
15, 81704, Note_on_c, 13, 56, 0
15, 81720, Note_on_c, 13, 59, 76
15, 81824, Note_on_c, 13, 59, 0
15, 81840, Note_on_c, 13, 52, 76
15, 81944, Note_on_c, 13, 52, 0
15, 81960, Note_on_c, 13, 56, 76
15, 82064, Note_on_c, 13, 56, 0
15, 82080, Note_on_c, 13, 45, 76
15, 82184, Note_on_c, 13, 45, 0
15, 82200, Note_on_c, 13, 57, 76
15, 82304, Note_on_c, 13, 57, 0
15, 82320, Note_on_c, 13, 50, 76
15, 82424, Note_on_c, 13, 50, 0
15, 82440, Note_on_c, 13, 54, 76
15, 82544, Note_on_c, 13, 54, 0
15, 82560, Note_on_c, 13, 44, 76
15, 82664, Note_on_c, 13, 44, 0
15, 82680, Note_on_c, 13, 56, 76
15, 82784, Note_on_c, 13, 56, 0
15, 82800, Note_on_c, 13, 49, 76
15, 82904, Note_on_c, 13, 49, 0
15, 82920, Note_on_c, 13, 53, 76
15, 83024, Note_on_c, 13, 53, 0
15, 83040, Note_on_c, 13, 42, 76
15, 83144, Note_on_c, 13, 42, 0
15, 83160, Note_on_c, 13, 54, 76
15, 83264, Note_on_c, 13, 54, 0
15, 83280, Note_on_c, 13, 52, 76
15, 83384, Note_on_c, 13, 52, 0
15, 83400, Note_on_c, 13, 50, 76
15, 83504, Note_on_c, 13, 50, 0
15, 83520, Note_on_c, 13, 49, 76
15, 83624, Note_on_c, 13, 49, 0
15, 83640, Note_on_c, 13, 54, 76
15, 83744, Note_on_c, 13, 54, 0
15, 83760, Note_on_c, 13, 52, 76
15, 83864, Note_on_c, 13, 52, 0
15, 83880, Note_on_c, 13, 50, 76
15, 83984, Note_on_c, 13, 50, 0
15, 84000, Note_on_c, 13, 49, 76
15, 84104, Note_on_c, 13, 49, 0
15, 84120, Note_on_c, 13, 52, 76
15, 84224, Note_on_c, 13, 52, 0
15, 84240, Note_on_c, 13, 45, 76
15, 84344, Note_on_c, 13, 45, 0
15, 84360, Note_on_c, 13, 49, 76
15, 84464, Note_on_c, 13, 49, 0
15, 84480, Note_on_c, 13, 50, 76
15, 84584, Note_on_c, 13, 50, 0
15, 84600, Note_on_c, 13, 62, 76
15, 84704, Note_on_c, 13, 62, 0
15, 84720, Note_on_c, 13, 55, 76
15, 84824, Note_on_c, 13, 55, 0
15, 84840, Note_on_c, 13, 59, 76
15, 84944, Note_on_c, 13, 59, 0
15, 84960, Note_on_c, 13, 49, 76
15, 85064, Note_on_c, 13, 49, 0
15, 85080, Note_on_c, 13, 61, 76
15, 85184, Note_on_c, 13, 61, 0
15, 85200, Note_on_c, 13, 54, 76
15, 85304, Note_on_c, 13, 54, 0
15, 85320, Note_on_c, 13, 58, 76
15, 85424, Note_on_c, 13, 58, 0
15, 85440, Note_on_c, 13, 47, 76
15, 85544, Note_on_c, 13, 47, 0
15, 85560, Note_on_c, 13, 59, 76
15, 85664, Note_on_c, 13, 59, 0
15, 85680, Note_on_c, 13, 52, 76
15, 85784, Note_on_c, 13, 52, 0
15, 85800, Note_on_c, 13, 55, 76
15, 85904, Note_on_c, 13, 55, 0
15, 85920, Note_on_c, 13, 54, 76
15, 86024, Note_on_c, 13, 54, 0
15, 86040, Note_on_c, 13, 42, 76
15, 86087, Note_on_c, 13, 42, 0
15, 86100, Note_on_c, 13, 44, 76
15, 86147, Note_on_c, 13, 44, 0
15, 86160, Note_on_c, 13, 46, 76
15, 86264, Note_on_c, 13, 46, 0
15, 86280, Note_on_c, 13, 46, 76
15, 86327, Note_on_c, 13, 46, 0
15, 86340, Note_on_c, 13, 47, 76
15, 86387, Note_on_c, 13, 47, 0
15, 86400, Note_on_c, 13, 49, 76
15, 86504, Note_on_c, 13, 49, 0
15, 86520, Note_on_c, 13, 46, 76
15, 86567, Note_on_c, 13, 46, 0
15, 86580, Note_on_c, 13, 47, 76
15, 86627, Note_on_c, 13, 47, 0
15, 86640, Note_on_c, 13, 49, 76
15, 86744, Note_on_c, 13, 49, 0
15, 86760, Note_on_c, 13, 49, 76
15, 86807, Note_on_c, 13, 49, 0
15, 86820, Note_on_c, 13, 50, 76
15, 86867, Note_on_c, 13, 50, 0
15, 86880, Note_on_c, 13, 52, 76
15, 86984, Note_on_c, 13, 52, 0
15, 87000, Note_on_c, 13, 52, 76
15, 87047, Note_on_c, 13, 52, 0
15, 87060, Note_on_c, 13, 50, 76
15, 87107, Note_on_c, 13, 50, 0
15, 87120, Note_on_c, 13, 52, 76
15, 87224, Note_on_c, 13, 52, 0
15, 87240, Note_on_c, 13, 54, 76
15, 87287, Note_on_c, 13, 54, 0
15, 87300, Note_on_c, 13, 52, 76
15, 87347, Note_on_c, 13, 52, 0
15, 87360, Note_on_c, 13, 50, 76
15, 87464, Note_on_c, 13, 50, 0
15, 87480, Note_on_c, 13, 50, 76
15, 87527, Note_on_c, 13, 50, 0
15, 87540, Note_on_c, 13, 49, 76
15, 87587, Note_on_c, 13, 49, 0
15, 87600, Note_on_c, 13, 50, 76
15, 87704, Note_on_c, 13, 50, 0
15, 87720, Note_on_c, 13, 52, 76
15, 87767, Note_on_c, 13, 52, 0
15, 87780, Note_on_c, 13, 50, 76
15, 87827, Note_on_c, 13, 50, 0
15, 87840, Note_on_c, 13, 49, 76
15, 87944, Note_on_c, 13, 49, 0
15, 87960, Note_on_c, 13, 49, 76
15, 88007, Note_on_c, 13, 49, 0
15, 88020, Note_on_c, 13, 47, 76
15, 88067, Note_on_c, 13, 47, 0
15, 88080, Note_on_c, 13, 49, 76
15, 88184, Note_on_c, 13, 49, 0
15, 88200, Note_on_c, 13, 50, 76
15, 88247, Note_on_c, 13, 50, 0
15, 88260, Note_on_c, 13, 49, 76
15, 88307, Note_on_c, 13, 49, 0
15, 88320, Note_on_c, 13, 47, 76
15, 88367, Note_on_c, 13, 47, 0
15, 88380, Note_on_c, 13, 49, 76
15, 88427, Note_on_c, 13, 49, 0
15, 88440, Note_on_c, 13, 50, 76
15, 88487, Note_on_c, 13, 50, 0
15, 88500, Note_on_c, 13, 47, 76
15, 88547, Note_on_c, 13, 47, 0
15, 88560, Note_on_c, 13, 52, 76
15, 88607, Note_on_c, 13, 52, 0
15, 88620, Note_on_c, 13, 54, 76
15, 88667, Note_on_c, 13, 54, 0
15, 88680, Note_on_c, 13, 55, 76
15, 88727, Note_on_c, 13, 55, 0
15, 88740, Note_on_c, 13, 52, 76
15, 88787, Note_on_c, 13, 52, 0
15, 88800, Note_on_c, 13, 54, 76
15, 89039, Note_on_c, 13, 54, 0
15, 89160, Note_on_c, 13, 52, 76
15, 89264, Note_on_c, 13, 52, 0
15, 89280, Note_on_c, 13, 50, 76
15, 89384, Note_on_c, 13, 50, 0
15, 89400, Note_on_c, 13, 54, 76
15, 89504, Note_on_c, 13, 54, 0
15, 89520, Note_on_c, 13, 59, 76
15, 89624, Note_on_c, 13, 59, 0
15, 89640, Note_on_c, 13, 54, 76
15, 89744, Note_on_c, 13, 54, 0
15, 89760, Note_on_c, 13, 55, 76
15, 89864, Note_on_c, 13, 55, 0
15, 89880, Note_on_c, 13, 52, 76
15, 89984, Note_on_c, 13, 52, 0
15, 90000, Note_on_c, 13, 54, 76
15, 90104, Note_on_c, 13, 54, 0
15, 90120, Note_on_c, 13, 42, 76
15, 90224, Note_on_c, 13, 42, 0
15, 90240, Note_on_c, 13, 47, 76
15, 90479, Note_on_c, 13, 47, 0
15, 90600, Note_on_c, 13, 58, 76
15, 90704, Note_on_c, 13, 58, 0
15, 90720, Note_on_c, 13, 59, 76
15, 90824, Note_on_c, 13, 59, 0
15, 90840, Note_on_c, 13, 55, 76
15, 90944, Note_on_c, 13, 55, 0
15, 90960, Note_on_c, 13, 52, 76
15, 91064, Note_on_c, 13, 52, 0
15, 91080, Note_on_c, 13, 54, 76
15, 91184, Note_on_c, 13, 54, 0
15, 91200, Note_on_c, 13, 47, 76
15, 91439, Note_on_c, 13, 47, 0
15, 91560, Note_on_c, 13, 59, 76
15, 91664, Note_on_c, 13, 59, 0
15, 91680, Note_on_c, 13, 57, 76
15, 91784, Note_on_c, 13, 57, 0
15, 91800, Note_on_c, 13, 62, 76
15, 91904, Note_on_c, 13, 62, 0
15, 91920, Note_on_c, 13, 59, 76
15, 92024, Note_on_c, 13, 59, 0
15, 92040, Note_on_c, 13, 61, 76
15, 92144, Note_on_c, 13, 61, 0
15, 92160, Note_on_c, 13, 54, 76
15, 92264, Note_on_c, 13, 54, 0
15, 92280, Note_on_c, 13, 54, 76
15, 92384, Note_on_c, 13, 54, 0
15, 92400, Note_on_c, 13, 54, 76
15, 92504, Note_on_c, 13, 54, 0
15, 92520, Note_on_c, 13, 54, 76
15, 92639, Note_on_c, 13, 54, 0
15, 92760, Note_on_c, 13, 52, 76
15, 92864, Note_on_c, 13, 52, 0
15, 92880, Note_on_c, 13, 52, 76
15, 92984, Note_on_c, 13, 52, 0
15, 93000, Note_on_c, 13, 52, 76
15, 93119, Note_on_c, 13, 52, 0
15, 93240, Note_on_c, 13, 51, 76
15, 93344, Note_on_c, 13, 51, 0
15, 93360, Note_on_c, 13, 51, 76
15, 93464, Note_on_c, 13, 51, 0
15, 93480, Note_on_c, 13, 51, 76
15, 93599, Note_on_c, 13, 51, 0
15, 93720, Note_on_c, 13, 47, 76
15, 93824, Note_on_c, 13, 47, 0
15, 93840, Note_on_c, 13, 47, 76
15, 93944, Note_on_c, 13, 47, 0
15, 93960, Note_on_c, 13, 47, 76
15, 94079, Note_on_c, 13, 47, 0
15, 94200, Note_on_c, 13, 52, 76
15, 94304, Note_on_c, 13, 52, 0
15, 94320, Note_on_c, 13, 52, 76
15, 94424, Note_on_c, 13, 52, 0
15, 94440, Note_on_c, 13, 52, 76
15, 94559, Note_on_c, 13, 52, 0
15, 94680, Note_on_c, 13, 50, 76
15, 94784, Note_on_c, 13, 50, 0
15, 94800, Note_on_c, 13, 50, 76
15, 94904, Note_on_c, 13, 50, 0
15, 94920, Note_on_c, 13, 50, 76
15, 95039, Note_on_c, 13, 50, 0
15, 95160, Note_on_c, 13, 49, 76
15, 95264, Note_on_c, 13, 49, 0
15, 95280, Note_on_c, 13, 49, 76
15, 95384, Note_on_c, 13, 49, 0
15, 95400, Note_on_c, 13, 49, 76
15, 95519, Note_on_c, 13, 49, 0
15, 95640, Note_on_c, 13, 45, 76
15, 95744, Note_on_c, 13, 45, 0
15, 95760, Note_on_c, 13, 45, 76
15, 95864, Note_on_c, 13, 45, 0
15, 95880, Note_on_c, 13, 45, 76
15, 95984, Note_on_c, 13, 45, 0
15, 96000, Note_on_c, 13, 50, 76
15, 96104, Note_on_c, 13, 50, 0
15, 96120, Note_on_c, 13, 62, 76
15, 96224, Note_on_c, 13, 62, 0
15, 96240, Note_on_c, 13, 55, 76
15, 96344, Note_on_c, 13, 55, 0
15, 96360, Note_on_c, 13, 59, 76
15, 96464, Note_on_c, 13, 59, 0
15, 96480, Note_on_c, 13, 49, 76
15, 96584, Note_on_c, 13, 49, 0
15, 96600, Note_on_c, 13, 61, 76
15, 96704, Note_on_c, 13, 61, 0
15, 96720, Note_on_c, 13, 54, 76
15, 96824, Note_on_c, 13, 54, 0
15, 96840, Note_on_c, 13, 57, 76
15, 96944, Note_on_c, 13, 57, 0
15, 96960, Note_on_c, 13, 47, 76
15, 97064, Note_on_c, 13, 47, 0
15, 97080, Note_on_c, 13, 59, 76
15, 97184, Note_on_c, 13, 59, 0
15, 97200, Note_on_c, 13, 52, 76
15, 97304, Note_on_c, 13, 52, 0
15, 97320, Note_on_c, 13, 55, 76
15, 97424, Note_on_c, 13, 55, 0
15, 97440, Note_on_c, 13, 45, 76
15, 97919, Note_on_c, 13, 45, 0
15, 97920, Note_on_c, 13, 45, 76
15, 98879, Note_on_c, 13, 45, 0
15, 98880, Note_on_c, 13, 45, 76
15, 99464, Note_on_c, 13, 45, 0
15, 99480, Note_on_c, 13, 47, 76
15, 99584, Note_on_c, 13, 47, 0
15, 99600, Note_on_c, 13, 49, 76
15, 99704, Note_on_c, 13, 49, 0
15, 99720, Note_on_c, 13, 45, 76
15, 99824, Note_on_c, 13, 45, 0
15, 99840, Note_on_c, 13, 42, 76
15, 100079, Note_on_c, 13, 42, 0
15, 100320, Note_on_c, 13, 47, 76
15, 100559, Note_on_c, 13, 47, 0
15, 100920, Note_on_c, 13, 47, 76
15, 101024, Note_on_c, 13, 47, 0
15, 101040, Note_on_c, 13, 51, 76
15, 101144, Note_on_c, 13, 51, 0
15, 101160, Note_on_c, 13, 47, 76
15, 101264, Note_on_c, 13, 47, 0
15, 101280, Note_on_c, 13, 52, 76
15, 101519, Note_on_c, 13, 52, 0
15, 101760, Note_on_c, 13, 40, 76
15, 101999, Note_on_c, 13, 40, 0
15, 102360, Note_on_c, 13, 40, 76
15, 102464, Note_on_c, 13, 40, 0
15, 102480, Note_on_c, 13, 52, 76
15, 102584, Note_on_c, 13, 52, 0
15, 102600, Note_on_c, 13, 44, 76
15, 102704, Note_on_c, 13, 44, 0
15, 102720, Note_on_c, 13, 45, 76
15, 102959, Note_on_c, 13, 45, 0
15, 103200, Note_on_c, 13, 57, 76
15, 103439, Note_on_c, 13, 57, 0
15, 103800, Note_on_c, 13, 45, 76
15, 103904, Note_on_c, 13, 45, 0
15, 103920, Note_on_c, 13, 49, 76
15, 104024, Note_on_c, 13, 49, 0
15, 104040, Note_on_c, 13, 45, 76
15, 104144, Note_on_c, 13, 45, 0
15, 104160, Note_on_c, 13, 50, 76
15, 104399, Note_on_c, 13, 50, 0
15, 104640, Note_on_c, 13, 38, 76
15, 104879, Note_on_c, 13, 38, 0
15, 105240, Note_on_c, 13, 50, 76
15, 105344, Note_on_c, 13, 50, 0
15, 105360, Note_on_c, 13, 38, 76
15, 105464, Note_on_c, 13, 38, 0
15, 105480, Note_on_c, 13, 42, 76
15, 105584, Note_on_c, 13, 42, 0
15, 105600, Note_on_c, 13, 43, 76
15, 105704, Note_on_c, 13, 43, 0
15, 105720, Note_on_c, 13, 42, 76
15, 105824, Note_on_c, 13, 42, 0
15, 105840, Note_on_c, 13, 43, 76
15, 105944, Note_on_c, 13, 43, 0
15, 105960, Note_on_c, 13, 45, 76
15, 106064, Note_on_c, 13, 45, 0
15, 106080, Note_on_c, 13, 47, 76
15, 106184, Note_on_c, 13, 47, 0
15, 106200, Note_on_c, 13, 45, 76
15, 106304, Note_on_c, 13, 45, 0
15, 106320, Note_on_c, 13, 47, 76
15, 106424, Note_on_c, 13, 47, 0
15, 106440, Note_on_c, 13, 49, 76
15, 106544, Note_on_c, 13, 49, 0
15, 106560, Note_on_c, 13, 50, 76
15, 106664, Note_on_c, 13, 50, 0
15, 106680, Note_on_c, 13, 49, 76
15, 106784, Note_on_c, 13, 49, 0
15, 106800, Note_on_c, 13, 50, 76
15, 106904, Note_on_c, 13, 50, 0
15, 106920, Note_on_c, 13, 52, 76
15, 107024, Note_on_c, 13, 52, 0
15, 107040, Note_on_c, 13, 54, 76
15, 107144, Note_on_c, 13, 54, 0
15, 107160, Note_on_c, 13, 52, 76
15, 107264, Note_on_c, 13, 52, 0
15, 107280, Note_on_c, 13, 54, 76
15, 107384, Note_on_c, 13, 54, 0
15, 107400, Note_on_c, 13, 55, 76
15, 107504, Note_on_c, 13, 55, 0
15, 107520, Note_on_c, 13, 57, 76
15, 107624, Note_on_c, 13, 57, 0
15, 107640, Note_on_c, 13, 57, 76
15, 107744, Note_on_c, 13, 57, 0
15, 107760, Note_on_c, 13, 57, 76
15, 107864, Note_on_c, 13, 57, 0
15, 107880, Note_on_c, 13, 57, 76
15, 107984, Note_on_c, 13, 57, 0
15, 108000, Note_on_c, 13, 57, 76
15, 108104, Note_on_c, 13, 57, 0
15, 108120, Note_on_c, 13, 57, 76
15, 108224, Note_on_c, 13, 57, 0
15, 108240, Note_on_c, 13, 57, 76
15, 108344, Note_on_c, 13, 57, 0
15, 108360, Note_on_c, 13, 57, 76
15, 108464, Note_on_c, 13, 57, 0
15, 108480, Note_on_c, 13, 57, 76
15, 108584, Note_on_c, 13, 57, 0
15, 108600, Note_on_c, 13, 52, 76
15, 108704, Note_on_c, 13, 52, 0
15, 108720, Note_on_c, 13, 49, 76
15, 108824, Note_on_c, 13, 49, 0
15, 108840, Note_on_c, 13, 45, 76
15, 108944, Note_on_c, 13, 45, 0
15, 108960, Note_on_c, 13, 50, 76
15, 109064, Note_on_c, 13, 50, 0
15, 109080, Note_on_c, 13, 62, 76
15, 109184, Note_on_c, 13, 62, 0
15, 109200, Note_on_c, 13, 62, 76
15, 109304, Note_on_c, 13, 62, 0
15, 109320, Note_on_c, 13, 62, 76
15, 109424, Note_on_c, 13, 62, 0
15, 109440, Note_on_c, 13, 62, 76
15, 109544, Note_on_c, 13, 62, 0
15, 109560, Note_on_c, 13, 62, 76
15, 109664, Note_on_c, 13, 62, 0
15, 109680, Note_on_c, 13, 62, 76
15, 109784, Note_on_c, 13, 62, 0
15, 109800, Note_on_c, 13, 62, 76
15, 109904, Note_on_c, 13, 62, 0
15, 109920, Note_on_c, 13, 62, 76
15, 110024, Note_on_c, 13, 62, 0
15, 110040, Note_on_c, 13, 57, 76
15, 110144, Note_on_c, 13, 57, 0
15, 110160, Note_on_c, 13, 54, 76
15, 110264, Note_on_c, 13, 54, 0
15, 110280, Note_on_c, 13, 50, 76
15, 110384, Note_on_c, 13, 50, 0
15, 110400, Note_on_c, 13, 55, 76
15, 110504, Note_on_c, 13, 55, 0
15, 110520, Note_on_c, 13, 64, 76
15, 110624, Note_on_c, 13, 64, 0
15, 110640, Note_on_c, 13, 64, 76
15, 110744, Note_on_c, 13, 64, 0
15, 110760, Note_on_c, 13, 64, 76
15, 110864, Note_on_c, 13, 64, 0
15, 110880, Note_on_c, 13, 64, 76
15, 110984, Note_on_c, 13, 64, 0
15, 111000, Note_on_c, 13, 59, 76
15, 111104, Note_on_c, 13, 59, 0
15, 111120, Note_on_c, 13, 56, 76
15, 111224, Note_on_c, 13, 56, 0
15, 111240, Note_on_c, 13, 52, 76
15, 111344, Note_on_c, 13, 52, 0
15, 111360, Note_on_c, 13, 57, 76
15, 111599, Note_on_c, 13, 57, 0
15, 111840, Note_on_c, 13, 45, 76
15, 112079, Note_on_c, 13, 45, 0
15, 112320, Note_on_c, 13, 57, 76
15, 112559, Note_on_c, 13, 57, 0
15, 112920, Note_on_c, 13, 50, 76
15, 112967, Note_on_c, 13, 50, 0
15, 112980, Note_on_c, 13, 52, 76
15, 113027, Note_on_c, 13, 52, 0
15, 113040, Note_on_c, 13, 54, 76
15, 113144, Note_on_c, 13, 54, 0
15, 113160, Note_on_c, 13, 54, 76
15, 113207, Note_on_c, 13, 54, 0
15, 113220, Note_on_c, 13, 55, 76
15, 113267, Note_on_c, 13, 55, 0
15, 113280, Note_on_c, 13, 57, 76
15, 113384, Note_on_c, 13, 57, 0
15, 113400, Note_on_c, 13, 54, 76
15, 113447, Note_on_c, 13, 54, 0
15, 113460, Note_on_c, 13, 55, 76
15, 113507, Note_on_c, 13, 55, 0
15, 113520, Note_on_c, 13, 57, 76
15, 113624, Note_on_c, 13, 57, 0
15, 113640, Note_on_c, 13, 57, 76
15, 113687, Note_on_c, 13, 57, 0
15, 113700, Note_on_c, 13, 59, 76
15, 113747, Note_on_c, 13, 59, 0
15, 113760, Note_on_c, 13, 60, 76
15, 113864, Note_on_c, 13, 60, 0
15, 113880, Note_on_c, 13, 60, 76
15, 113927, Note_on_c, 13, 60, 0
15, 113940, Note_on_c, 13, 59, 76
15, 113987, Note_on_c, 13, 59, 0
15, 114000, Note_on_c, 13, 60, 76
15, 114104, Note_on_c, 13, 60, 0
15, 114120, Note_on_c, 13, 62, 76
15, 114167, Note_on_c, 13, 62, 0
15, 114180, Note_on_c, 13, 60, 76
15, 114227, Note_on_c, 13, 60, 0
15, 114240, Note_on_c, 13, 59, 76
15, 114344, Note_on_c, 13, 59, 0
15, 114360, Note_on_c, 13, 52, 76
15, 114407, Note_on_c, 13, 52, 0
15, 114420, Note_on_c, 13, 54, 76
15, 114467, Note_on_c, 13, 54, 0
15, 114480, Note_on_c, 13, 56, 76
15, 114584, Note_on_c, 13, 56, 0
15, 114600, Note_on_c, 13, 56, 76
15, 114647, Note_on_c, 13, 56, 0
15, 114660, Note_on_c, 13, 57, 76
15, 114707, Note_on_c, 13, 57, 0
15, 114720, Note_on_c, 13, 59, 76
15, 114824, Note_on_c, 13, 59, 0
15, 114840, Note_on_c, 13, 56, 76
15, 114887, Note_on_c, 13, 56, 0
15, 114900, Note_on_c, 13, 57, 76
15, 114947, Note_on_c, 13, 57, 0
15, 114960, Note_on_c, 13, 59, 76
15, 115064, Note_on_c, 13, 59, 0
15, 115080, Note_on_c, 13, 59, 76
15, 115127, Note_on_c, 13, 59, 0
15, 115140, Note_on_c, 13, 61, 76
15, 115187, Note_on_c, 13, 61, 0
15, 115200, Note_on_c, 13, 62, 76
15, 115304, Note_on_c, 13, 62, 0
15, 115320, Note_on_c, 13, 62, 76
15, 115367, Note_on_c, 13, 62, 0
15, 115380, Note_on_c, 13, 61, 76
15, 115427, Note_on_c, 13, 61, 0
15, 115440, Note_on_c, 13, 62, 76
15, 115544, Note_on_c, 13, 62, 0
15, 115560, Note_on_c, 13, 64, 76
15, 115607, Note_on_c, 13, 64, 0
15, 115620, Note_on_c, 13, 62, 76
15, 115667, Note_on_c, 13, 62, 0
15, 115680, Note_on_c, 13, 61, 76
15, 115784, Note_on_c, 13, 61, 0
15, 115800, Note_on_c, 13, 64, 76
15, 115904, Note_on_c, 13, 64, 0
15, 115920, Note_on_c, 13, 57, 76
15, 116024, Note_on_c, 13, 57, 0
15, 116040, Note_on_c, 13, 61, 76
15, 116264, Note_on_c, 13, 61, 0
15, 116280, Note_on_c, 13, 64, 76
15, 116384, Note_on_c, 13, 64, 0
15, 116400, Note_on_c, 13, 55, 76
15, 116504, Note_on_c, 13, 55, 0
15, 116520, Note_on_c, 13, 61, 76
15, 116744, Note_on_c, 13, 61, 0
15, 116760, Note_on_c, 13, 64, 76
15, 116864, Note_on_c, 13, 64, 0
15, 116880, Note_on_c, 13, 57, 76
15, 116984, Note_on_c, 13, 57, 0
15, 117000, Note_on_c, 13, 61, 76
15, 117104, Note_on_c, 13, 61, 0
15, 117120, Note_on_c, 13, 50, 76
15, 117224, Note_on_c, 13, 50, 0
15, 117240, Note_on_c, 13, 62, 76
15, 117344, Note_on_c, 13, 62, 0
15, 117360, Note_on_c, 13, 55, 76
15, 117464, Note_on_c, 13, 55, 0
15, 117480, Note_on_c, 13, 59, 76
15, 117584, Note_on_c, 13, 59, 0
15, 117600, Note_on_c, 13, 49, 76
15, 117704, Note_on_c, 13, 49, 0
15, 117720, Note_on_c, 13, 61, 76
15, 117824, Note_on_c, 13, 61, 0
15, 117840, Note_on_c, 13, 54, 76
15, 117944, Note_on_c, 13, 54, 0
15, 117960, Note_on_c, 13, 58, 76
15, 118064, Note_on_c, 13, 58, 0
15, 118080, Note_on_c, 13, 47, 76
15, 118184, Note_on_c, 13, 47, 0
15, 118200, Note_on_c, 13, 59, 76
15, 118304, Note_on_c, 13, 59, 0
15, 118320, Note_on_c, 13, 57, 76
15, 118424, Note_on_c, 13, 57, 0
15, 118440, Note_on_c, 13, 55, 76
15, 118544, Note_on_c, 13, 55, 0
15, 118560, Note_on_c, 13, 54, 76
15, 118664, Note_on_c, 13, 54, 0
15, 118680, Note_on_c, 13, 59, 76
15, 118784, Note_on_c, 13, 59, 0
15, 118800, Note_on_c, 13, 57, 76
15, 118904, Note_on_c, 13, 57, 0
15, 118920, Note_on_c, 13, 55, 76
15, 119024, Note_on_c, 13, 55, 0
15, 119040, Note_on_c, 13, 54, 76
15, 119144, Note_on_c, 13, 54, 0
15, 119160, Note_on_c, 13, 57, 76
15, 119264, Note_on_c, 13, 57, 0
15, 119280, Note_on_c, 13, 50, 76
15, 119384, Note_on_c, 13, 50, 0
15, 119400, Note_on_c, 13, 54, 76
15, 119504, Note_on_c, 13, 54, 0
15, 119520, Note_on_c, 13, 43, 76
15, 119624, Note_on_c, 13, 43, 0
15, 119640, Note_on_c, 13, 55, 76
15, 119744, Note_on_c, 13, 55, 0
15, 119760, Note_on_c, 13, 49, 76
15, 119864, Note_on_c, 13, 49, 0
15, 119880, Note_on_c, 13, 52, 76
15, 119984, Note_on_c, 13, 52, 0
15, 120000, Note_on_c, 13, 42, 76
15, 120104, Note_on_c, 13, 42, 0
15, 120120, Note_on_c, 13, 54, 76
15, 120224, Note_on_c, 13, 54, 0
15, 120240, Note_on_c, 13, 47, 76
15, 120344, Note_on_c, 13, 47, 0
15, 120360, Note_on_c, 13, 50, 76
15, 120464, Note_on_c, 13, 50, 0
15, 120480, Note_on_c, 13, 40, 76
15, 120584, Note_on_c, 13, 40, 0
15, 120600, Note_on_c, 13, 45, 76
15, 120704, Note_on_c, 13, 45, 0
15, 120720, Note_on_c, 13, 50, 76
15, 120824, Note_on_c, 13, 50, 0
15, 120840, Note_on_c, 13, 38, 76
15, 120944, Note_on_c, 13, 38, 0
15, 120960, Note_on_c, 13, 45, 76
15, 121064, Note_on_c, 13, 45, 0
15, 121080, Note_on_c, 13, 45, 76
15, 121127, Note_on_c, 13, 45, 0
15, 121140, Note_on_c, 13, 47, 76
15, 121187, Note_on_c, 13, 47, 0
15, 121200, Note_on_c, 13, 49, 76
15, 121304, Note_on_c, 13, 49, 0
15, 121320, Note_on_c, 13, 49, 76
15, 121367, Note_on_c, 13, 49, 0
15, 121380, Note_on_c, 13, 50, 76
15, 121427, Note_on_c, 13, 50, 0
15, 121440, Note_on_c, 13, 52, 76
15, 121544, Note_on_c, 13, 52, 0
15, 121560, Note_on_c, 13, 49, 76
15, 121607, Note_on_c, 13, 49, 0
15, 121620, Note_on_c, 13, 50, 76
15, 121667, Note_on_c, 13, 50, 0
15, 121680, Note_on_c, 13, 52, 76
15, 121784, Note_on_c, 13, 52, 0
15, 121800, Note_on_c, 13, 52, 76
15, 121847, Note_on_c, 13, 52, 0
15, 121860, Note_on_c, 13, 54, 76
15, 121907, Note_on_c, 13, 54, 0
15, 121920, Note_on_c, 13, 55, 76
15, 122024, Note_on_c, 13, 55, 0
15, 122040, Note_on_c, 13, 55, 76
15, 122087, Note_on_c, 13, 55, 0
15, 122100, Note_on_c, 13, 54, 76
15, 122147, Note_on_c, 13, 54, 0
15, 122160, Note_on_c, 13, 55, 76
15, 122264, Note_on_c, 13, 55, 0
15, 122280, Note_on_c, 13, 57, 76
15, 122327, Note_on_c, 13, 57, 0
15, 122340, Note_on_c, 13, 55, 76
15, 122387, Note_on_c, 13, 55, 0
15, 122400, Note_on_c, 13, 54, 76
15, 122504, Note_on_c, 13, 54, 0
15, 122520, Note_on_c, 13, 54, 76
15, 122567, Note_on_c, 13, 54, 0
15, 122580, Note_on_c, 13, 52, 76
15, 122627, Note_on_c, 13, 52, 0
15, 122640, Note_on_c, 13, 54, 76
15, 122744, Note_on_c, 13, 54, 0
15, 122760, Note_on_c, 13, 55, 76
15, 122807, Note_on_c, 13, 55, 0
15, 122820, Note_on_c, 13, 54, 76
15, 122867, Note_on_c, 13, 54, 0
15, 122880, Note_on_c, 13, 52, 76
15, 122984, Note_on_c, 13, 52, 0
15, 123000, Note_on_c, 13, 52, 76
15, 123047, Note_on_c, 13, 52, 0
15, 123060, Note_on_c, 13, 50, 76
15, 123107, Note_on_c, 13, 50, 0
15, 123120, Note_on_c, 13, 52, 76
15, 123224, Note_on_c, 13, 52, 0
15, 123240, Note_on_c, 13, 54, 76
15, 123287, Note_on_c, 13, 54, 0
15, 123300, Note_on_c, 13, 52, 76
15, 123347, Note_on_c, 13, 52, 0
15, 123360, Note_on_c, 13, 50, 76
15, 123407, Note_on_c, 13, 50, 0
15, 123420, Note_on_c, 13, 52, 76
15, 123467, Note_on_c, 13, 52, 0
15, 123480, Note_on_c, 13, 54, 76
15, 123527, Note_on_c, 13, 54, 0
15, 123540, Note_on_c, 13, 50, 76
15, 123587, Note_on_c, 13, 50, 0
15, 123600, Note_on_c, 13, 55, 76
15, 123647, Note_on_c, 13, 55, 0
15, 123660, Note_on_c, 13, 57, 76
15, 123707, Note_on_c, 13, 57, 0
15, 123720, Note_on_c, 13, 54, 76
15, 123767, Note_on_c, 13, 54, 0
15, 123780, Note_on_c, 13, 55, 76
15, 123827, Note_on_c, 13, 55, 0
15, 123840, Note_on_c, 13, 57, 76
15, 123944, Note_on_c, 13, 57, 0
15, 123960, Note_on_c, 13, 55, 76
15, 124064, Note_on_c, 13, 55, 0
15, 124080, Note_on_c, 13, 54, 76
15, 124184, Note_on_c, 13, 54, 0
15, 124200, Note_on_c, 13, 52, 76
15, 124304, Note_on_c, 13, 52, 0
15, 124320, Note_on_c, 13, 50, 76
15, 124424, Note_on_c, 13, 50, 0
15, 124440, Note_on_c, 13, 55, 76
15, 124544, Note_on_c, 13, 55, 0
15, 124560, Note_on_c, 13, 57, 76
15, 124664, Note_on_c, 13, 57, 0
15, 124680, Note_on_c, 13, 45, 76
15, 124784, Note_on_c, 13, 45, 0
15, 124800, Note_on_c, 13, 50, 76
15, 125759, Note_on_c, 13, 50, 0
15, 125760, Note_on_c, 13, 50, 76
15, 126719, Note_on_c, 13, 50, 0
15, 126720, Note_on_c, 13, 50, 76
15, 127013, Note_on_c, 13, 50, 0
15, 127020, Note_on_c, 13, 48, 76
15, 127073, Note_on_c, 13, 48, 0
15, 127080, Note_on_c, 13, 47, 76
15, 127133, Note_on_c, 13, 47, 0
15, 127140, Note_on_c, 13, 45, 76
15, 127193, Note_on_c, 13, 45, 0
15, 127200, Note_on_c, 13, 47, 76
15, 127373, Note_on_c, 13, 47, 0
15, 127380, Note_on_c, 13, 48, 76
15, 127433, Note_on_c, 13, 48, 0
15, 127440, Note_on_c, 13, 50, 76
15, 127613, Note_on_c, 13, 50, 0
15, 127620, Note_on_c, 13, 38, 76
15, 127673, Note_on_c, 13, 38, 0
15, 127680, Note_on_c, 13, 43, 76
15, 128147, Note_on_c, 13, 43, 0
15, 128160, Note_on_c, 13, 55, 76
15, 128627, Note_on_c, 13, 55, 0
15, 128640, Note_on_c, 13, 54, 76
15, 129173, Note_on_c, 13, 54, 0
15, 129180, Note_on_c, 13, 55, 76
15, 129233, Note_on_c, 13, 55, 0
15, 129240, Note_on_c, 13, 57, 76
15, 129293, Note_on_c, 13, 57, 0
15, 129300, Note_on_c, 13, 59, 76
15, 129353, Note_on_c, 13, 59, 0
15, 129360, Note_on_c, 13, 57, 76
15, 129413, Note_on_c, 13, 57, 0
15, 129420, Note_on_c, 13, 55, 76
15, 129473, Note_on_c, 13, 55, 0
15, 129480, Note_on_c, 13, 54, 76
15, 129533, Note_on_c, 13, 54, 0
15, 129540, Note_on_c, 13, 52, 76
15, 129593, Note_on_c, 13, 52, 0
15, 129600, Note_on_c, 13, 51, 76
15, 130253, Note_on_c, 13, 51, 0
15, 130260, Note_on_c, 13, 47, 76
15, 130313, Note_on_c, 13, 47, 0
15, 130320, Note_on_c, 13, 49, 76
15, 130493, Note_on_c, 13, 49, 0
15, 130500, Note_on_c, 13, 51, 76
15, 130553, Note_on_c, 13, 51, 0
15, 130560, Note_on_c, 13, 52, 76
15, 130733, Note_on_c, 13, 52, 0
15, 130740, Note_on_c, 13, 54, 76
15, 130793, Note_on_c, 13, 54, 0
15, 130800, Note_on_c, 13, 55, 76
15, 130973, Note_on_c, 13, 55, 0
15, 130980, Note_on_c, 13, 57, 76
15, 131033, Note_on_c, 13, 57, 0
15, 131040, Note_on_c, 13, 59, 76
15, 131213, Note_on_c, 13, 59, 0
15, 131220, Note_on_c, 13, 57, 76
15, 131245, Note_on_c, 13, 57, 0
15, 131250, Note_on_c, 13, 56, 76
15, 131275, Note_on_c, 13, 56, 0
15, 131280, Note_on_c, 13, 57, 76
15, 131453, Note_on_c, 13, 57, 0
15, 131460, Note_on_c, 13, 59, 76
15, 131513, Note_on_c, 13, 59, 0
15, 131520, Note_on_c, 13, 56, 76
15, 132053, Note_on_c, 13, 56, 0
15, 132060, Note_on_c, 13, 54, 76
15, 132113, Note_on_c, 13, 54, 0
15, 132120, Note_on_c, 13, 52, 76
15, 132173, Note_on_c, 13, 52, 0
15, 132180, Note_on_c, 13, 54, 76
15, 132233, Note_on_c, 13, 54, 0
15, 132240, Note_on_c, 13, 56, 76
15, 132293, Note_on_c, 13, 56, 0
15, 132300, Note_on_c, 13, 54, 76
15, 132353, Note_on_c, 13, 54, 0
15, 132360, Note_on_c, 13, 56, 76
15, 132413, Note_on_c, 13, 56, 0
15, 132420, Note_on_c, 13, 52, 76
15, 132473, Note_on_c, 13, 52, 0
15, 132480, Note_on_c, 13, 57, 76
15, 133013, Note_on_c, 13, 57, 0
15, 133020, Note_on_c, 13, 55, 76
15, 133073, Note_on_c, 13, 55, 0
15, 133080, Note_on_c, 13, 54, 76
15, 133133, Note_on_c, 13, 54, 0
15, 133140, Note_on_c, 13, 55, 76
15, 133193, Note_on_c, 13, 55, 0
15, 133200, Note_on_c, 13, 57, 76
15, 133253, Note_on_c, 13, 57, 0
15, 133260, Note_on_c, 13, 55, 76
15, 133313, Note_on_c, 13, 55, 0
15, 133320, Note_on_c, 13, 57, 76
15, 133373, Note_on_c, 13, 57, 0
15, 133380, Note_on_c, 13, 54, 76
15, 133433, Note_on_c, 13, 54, 0
15, 133440, Note_on_c, 13, 59, 76
15, 133973, Note_on_c, 13, 59, 0
15, 133980, Note_on_c, 13, 60, 76
15, 134033, Note_on_c, 13, 60, 0
15, 134040, Note_on_c, 13, 59, 76
15, 134093, Note_on_c, 13, 59, 0
15, 134100, Note_on_c, 13, 57, 76
15, 134153, Note_on_c, 13, 57, 0
15, 134160, Note_on_c, 13, 55, 76
15, 134213, Note_on_c, 13, 55, 0
15, 134220, Note_on_c, 13, 54, 76
15, 134273, Note_on_c, 13, 54, 0
15, 134280, Note_on_c, 13, 52, 76
15, 134333, Note_on_c, 13, 52, 0
15, 134340, Note_on_c, 13, 50, 76
15, 134393, Note_on_c, 13, 50, 0
15, 134400, Note_on_c, 13, 49, 76
15, 134933, Note_on_c, 13, 49, 0
15, 134940, Note_on_c, 13, 50, 76
15, 134993, Note_on_c, 13, 50, 0
15, 135000, Note_on_c, 13, 49, 76
15, 135053, Note_on_c, 13, 49, 0
15, 135060, Note_on_c, 13, 47, 76
15, 135113, Note_on_c, 13, 47, 0
15, 135120, Note_on_c, 13, 45, 76
15, 135173, Note_on_c, 13, 45, 0
15, 135180, Note_on_c, 13, 47, 76
15, 135233, Note_on_c, 13, 47, 0
15, 135240, Note_on_c, 13, 49, 76
15, 135293, Note_on_c, 13, 49, 0
15, 135300, Note_on_c, 13, 45, 76
15, 135353, Note_on_c, 13, 45, 0
15, 135360, Note_on_c, 13, 50, 76
15, 135893, Note_on_c, 13, 50, 0
15, 135900, Note_on_c, 13, 52, 76
15, 135953, Note_on_c, 13, 52, 0
15, 135960, Note_on_c, 13, 50, 76
15, 136013, Note_on_c, 13, 50, 0
15, 136020, Note_on_c, 13, 48, 76
15, 136073, Note_on_c, 13, 48, 0
15, 136080, Note_on_c, 13, 47, 76
15, 136133, Note_on_c, 13, 47, 0
15, 136140, Note_on_c, 13, 45, 76
15, 136193, Note_on_c, 13, 45, 0
15, 136200, Note_on_c, 13, 43, 76
15, 136253, Note_on_c, 13, 43, 0
15, 136260, Note_on_c, 13, 42, 76
15, 136313, Note_on_c, 13, 42, 0
15, 136320, Note_on_c, 13, 43, 76
15, 137279, Note_on_c, 13, 43, 0
15, 137280, Note_on_c, 13, 43, 76
15, 137573, Note_on_c, 13, 43, 0
15, 137580, Note_on_c, 13, 42, 76
15, 137633, Note_on_c, 13, 42, 0
15, 137640, Note_on_c, 13, 40, 76
15, 137693, Note_on_c, 13, 40, 0
15, 137700, Note_on_c, 13, 38, 76
15, 137753, Note_on_c, 13, 38, 0
15, 137760, Note_on_c, 13, 37, 76
15, 137933, Note_on_c, 13, 37, 0
15, 137940, Note_on_c, 13, 45, 76
15, 137993, Note_on_c, 13, 45, 0
15, 138000, Note_on_c, 13, 47, 76
15, 138173, Note_on_c, 13, 47, 0
15, 138180, Note_on_c, 13, 49, 76
15, 138233, Note_on_c, 13, 49, 0
15, 138240, Note_on_c, 13, 50, 76
15, 138413, Note_on_c, 13, 50, 0
15, 138420, Note_on_c, 13, 52, 76
15, 138473, Note_on_c, 13, 52, 0
15, 138480, Note_on_c, 13, 54, 76
15, 138653, Note_on_c, 13, 54, 0
15, 138660, Note_on_c, 13, 55, 76
15, 138713, Note_on_c, 13, 55, 0
15, 138720, Note_on_c, 13, 57, 76
15, 138947, Note_on_c, 13, 57, 0
15, 138960, Note_on_c, 13, 45, 76
15, 139187, Note_on_c, 13, 45, 0
15, 139200, Note_on_c, 13, 38, 76
15, 139439, Note_on_c, 13, 38, 0
15, 144600, Note_on_c, 13, 50, 76
15, 144647, Note_on_c, 13, 50, 0
15, 144660, Note_on_c, 13, 52, 76
15, 144707, Note_on_c, 13, 52, 0
15, 144720, Note_on_c, 13, 54, 76
15, 144824, Note_on_c, 13, 54, 0
15, 144840, Note_on_c, 13, 54, 76
15, 144887, Note_on_c, 13, 54, 0
15, 144900, Note_on_c, 13, 55, 76
15, 144947, Note_on_c, 13, 55, 0
15, 144960, Note_on_c, 13, 57, 76
15, 145064, Note_on_c, 13, 57, 0
15, 145080, Note_on_c, 13, 54, 76
15, 145127, Note_on_c, 13, 54, 0
15, 145140, Note_on_c, 13, 55, 76
15, 145187, Note_on_c, 13, 55, 0
15, 145200, Note_on_c, 13, 57, 76
15, 145304, Note_on_c, 13, 57, 0
15, 145320, Note_on_c, 13, 57, 76
15, 145367, Note_on_c, 13, 57, 0
15, 145380, Note_on_c, 13, 59, 76
15, 145427, Note_on_c, 13, 59, 0
15, 145440, Note_on_c, 13, 60, 76
15, 145544, Note_on_c, 13, 60, 0
15, 145560, Note_on_c, 13, 60, 76
15, 145607, Note_on_c, 13, 60, 0
15, 145620, Note_on_c, 13, 59, 76
15, 145667, Note_on_c, 13, 59, 0
15, 145680, Note_on_c, 13, 60, 76
15, 145784, Note_on_c, 13, 60, 0
15, 145800, Note_on_c, 13, 62, 76
15, 145847, Note_on_c, 13, 62, 0
15, 145860, Note_on_c, 13, 60, 76
15, 145907, Note_on_c, 13, 60, 0
15, 145920, Note_on_c, 13, 59, 76
15, 146024, Note_on_c, 13, 59, 0
15, 146040, Note_on_c, 13, 52, 76
15, 146087, Note_on_c, 13, 52, 0
15, 146100, Note_on_c, 13, 54, 76
15, 146147, Note_on_c, 13, 54, 0
15, 146160, Note_on_c, 13, 56, 76
15, 146264, Note_on_c, 13, 56, 0
15, 146280, Note_on_c, 13, 56, 76
15, 146327, Note_on_c, 13, 56, 0
15, 146340, Note_on_c, 13, 57, 76
15, 146387, Note_on_c, 13, 57, 0
15, 146400, Note_on_c, 13, 59, 76
15, 146504, Note_on_c, 13, 59, 0
15, 146520, Note_on_c, 13, 56, 76
15, 146567, Note_on_c, 13, 56, 0
15, 146580, Note_on_c, 13, 57, 76
15, 146627, Note_on_c, 13, 57, 0
15, 146640, Note_on_c, 13, 59, 76
15, 146744, Note_on_c, 13, 59, 0
15, 146760, Note_on_c, 13, 59, 76
15, 146807, Note_on_c, 13, 59, 0
15, 146820, Note_on_c, 13, 61, 76
15, 146867, Note_on_c, 13, 61, 0
15, 146880, Note_on_c, 13, 62, 76
15, 146984, Note_on_c, 13, 62, 0
15, 147000, Note_on_c, 13, 62, 76
15, 147047, Note_on_c, 13, 62, 0
15, 147060, Note_on_c, 13, 61, 76
15, 147107, Note_on_c, 13, 61, 0
15, 147120, Note_on_c, 13, 62, 76
15, 147224, Note_on_c, 13, 62, 0
15, 147240, Note_on_c, 13, 64, 76
15, 147287, Note_on_c, 13, 64, 0
15, 147300, Note_on_c, 13, 62, 76
15, 147347, Note_on_c, 13, 62, 0
15, 147360, Note_on_c, 13, 61, 76
15, 147464, Note_on_c, 13, 61, 0
15, 147480, Note_on_c, 13, 64, 76
15, 147584, Note_on_c, 13, 64, 0
15, 147600, Note_on_c, 13, 57, 76
15, 147704, Note_on_c, 13, 57, 0
15, 147720, Note_on_c, 13, 61, 76
15, 147944, Note_on_c, 13, 61, 0
15, 147960, Note_on_c, 13, 64, 76
15, 148064, Note_on_c, 13, 64, 0
15, 148080, Note_on_c, 13, 55, 76
15, 148184, Note_on_c, 13, 55, 0
15, 148200, Note_on_c, 13, 61, 76
15, 148424, Note_on_c, 13, 61, 0
15, 148440, Note_on_c, 13, 64, 76
15, 148544, Note_on_c, 13, 64, 0
15, 148560, Note_on_c, 13, 57, 76
15, 148664, Note_on_c, 13, 57, 0
15, 148680, Note_on_c, 13, 61, 76
15, 148784, Note_on_c, 13, 61, 0
15, 148800, Note_on_c, 13, 50, 76
15, 148904, Note_on_c, 13, 50, 0
15, 148920, Note_on_c, 13, 62, 76
15, 149024, Note_on_c, 13, 62, 0
15, 149040, Note_on_c, 13, 55, 76
15, 149144, Note_on_c, 13, 55, 0
15, 149160, Note_on_c, 13, 59, 76
15, 149264, Note_on_c, 13, 59, 0
15, 149280, Note_on_c, 13, 49, 76
15, 149384, Note_on_c, 13, 49, 0
15, 149400, Note_on_c, 13, 61, 76
15, 149504, Note_on_c, 13, 61, 0
15, 149520, Note_on_c, 13, 54, 76
15, 149624, Note_on_c, 13, 54, 0
15, 149640, Note_on_c, 13, 58, 76
15, 149744, Note_on_c, 13, 58, 0
15, 149760, Note_on_c, 13, 47, 76
15, 149864, Note_on_c, 13, 47, 0
15, 149880, Note_on_c, 13, 59, 76
15, 149984, Note_on_c, 13, 59, 0
15, 150000, Note_on_c, 13, 57, 76
15, 150104, Note_on_c, 13, 57, 0
15, 150120, Note_on_c, 13, 55, 76
15, 150224, Note_on_c, 13, 55, 0
15, 150240, Note_on_c, 13, 54, 76
15, 150344, Note_on_c, 13, 54, 0
15, 150360, Note_on_c, 13, 59, 76
15, 150464, Note_on_c, 13, 59, 0
15, 150480, Note_on_c, 13, 57, 76
15, 150584, Note_on_c, 13, 57, 0
15, 150600, Note_on_c, 13, 55, 76
15, 150704, Note_on_c, 13, 55, 0
15, 150720, Note_on_c, 13, 54, 76
15, 150824, Note_on_c, 13, 54, 0
15, 150840, Note_on_c, 13, 57, 76
15, 150944, Note_on_c, 13, 57, 0
15, 150960, Note_on_c, 13, 50, 76
15, 151064, Note_on_c, 13, 50, 0
15, 151080, Note_on_c, 13, 54, 76
15, 151184, Note_on_c, 13, 54, 0
15, 151200, Note_on_c, 13, 43, 76
15, 151304, Note_on_c, 13, 43, 0
15, 151320, Note_on_c, 13, 55, 76
15, 151424, Note_on_c, 13, 55, 0
15, 151440, Note_on_c, 13, 49, 76
15, 151544, Note_on_c, 13, 49, 0
15, 151560, Note_on_c, 13, 52, 76
15, 151664, Note_on_c, 13, 52, 0
15, 151680, Note_on_c, 13, 42, 76
15, 151784, Note_on_c, 13, 42, 0
15, 151800, Note_on_c, 13, 54, 76
15, 151904, Note_on_c, 13, 54, 0
15, 151920, Note_on_c, 13, 47, 76
15, 152024, Note_on_c, 13, 47, 0
15, 152040, Note_on_c, 13, 50, 76
15, 152144, Note_on_c, 13, 50, 0
15, 152160, Note_on_c, 13, 40, 76
15, 152264, Note_on_c, 13, 40, 0
15, 152280, Note_on_c, 13, 45, 76
15, 152384, Note_on_c, 13, 45, 0
15, 152400, Note_on_c, 13, 50, 76
15, 152504, Note_on_c, 13, 50, 0
15, 152520, Note_on_c, 13, 38, 76
15, 152624, Note_on_c, 13, 38, 0
15, 152640, Note_on_c, 13, 45, 76
15, 152744, Note_on_c, 13, 45, 0
15, 152760, Note_on_c, 13, 45, 76
15, 152807, Note_on_c, 13, 45, 0
15, 152820, Note_on_c, 13, 47, 76
15, 152867, Note_on_c, 13, 47, 0
15, 152880, Note_on_c, 13, 49, 76
15, 152984, Note_on_c, 13, 49, 0
15, 153000, Note_on_c, 13, 49, 76
15, 153047, Note_on_c, 13, 49, 0
15, 153060, Note_on_c, 13, 50, 76
15, 153107, Note_on_c, 13, 50, 0
15, 153120, Note_on_c, 13, 52, 76
15, 153224, Note_on_c, 13, 52, 0
15, 153240, Note_on_c, 13, 49, 76
15, 153287, Note_on_c, 13, 49, 0
15, 153300, Note_on_c, 13, 50, 76
15, 153347, Note_on_c, 13, 50, 0
15, 153360, Note_on_c, 13, 52, 76
15, 153464, Note_on_c, 13, 52, 0
15, 153480, Note_on_c, 13, 52, 76
15, 153527, Note_on_c, 13, 52, 0
15, 153540, Note_on_c, 13, 54, 76
15, 153587, Note_on_c, 13, 54, 0
15, 153600, Note_on_c, 13, 55, 76
15, 153704, Note_on_c, 13, 55, 0
15, 153720, Note_on_c, 13, 55, 76
15, 153767, Note_on_c, 13, 55, 0
15, 153780, Note_on_c, 13, 54, 76
15, 153827, Note_on_c, 13, 54, 0
15, 153840, Note_on_c, 13, 55, 76
15, 153944, Note_on_c, 13, 55, 0
15, 153960, Note_on_c, 13, 57, 76
15, 154007, Note_on_c, 13, 57, 0
15, 154020, Note_on_c, 13, 55, 76
15, 154067, Note_on_c, 13, 55, 0
15, 154080, Note_on_c, 13, 54, 76
15, 154184, Note_on_c, 13, 54, 0
15, 154200, Note_on_c, 13, 54, 76
15, 154247, Note_on_c, 13, 54, 0
15, 154260, Note_on_c, 13, 52, 76
15, 154307, Note_on_c, 13, 52, 0
15, 154320, Note_on_c, 13, 54, 76
15, 154424, Note_on_c, 13, 54, 0
15, 154440, Note_on_c, 13, 55, 76
15, 154487, Note_on_c, 13, 55, 0
15, 154500, Note_on_c, 13, 54, 76
15, 154547, Note_on_c, 13, 54, 0
15, 154560, Note_on_c, 13, 52, 76
15, 154664, Note_on_c, 13, 52, 0
15, 154680, Note_on_c, 13, 52, 76
15, 154727, Note_on_c, 13, 52, 0
15, 154740, Note_on_c, 13, 50, 76
15, 154787, Note_on_c, 13, 50, 0
15, 154800, Note_on_c, 13, 52, 76
15, 154904, Note_on_c, 13, 52, 0
15, 154920, Note_on_c, 13, 54, 76
15, 154967, Note_on_c, 13, 54, 0
15, 154980, Note_on_c, 13, 52, 76
15, 155027, Note_on_c, 13, 52, 0
15, 155040, Note_on_c, 13, 50, 76
15, 155087, Note_on_c, 13, 50, 0
15, 155100, Note_on_c, 13, 52, 76
15, 155147, Note_on_c, 13, 52, 0
15, 155160, Note_on_c, 13, 54, 76
15, 155207, Note_on_c, 13, 54, 0
15, 155220, Note_on_c, 13, 50, 76
15, 155267, Note_on_c, 13, 50, 0
15, 155280, Note_on_c, 13, 55, 76
15, 155327, Note_on_c, 13, 55, 0
15, 155340, Note_on_c, 13, 57, 76
15, 155387, Note_on_c, 13, 57, 0
15, 155400, Note_on_c, 13, 54, 76
15, 155447, Note_on_c, 13, 54, 0
15, 155460, Note_on_c, 13, 55, 76
15, 155507, Note_on_c, 13, 55, 0
15, 155520, Note_on_c, 13, 57, 76
15, 155624, Note_on_c, 13, 57, 0
15, 155640, Note_on_c, 13, 55, 76
15, 155744, Note_on_c, 13, 55, 0
15, 155760, Note_on_c, 13, 54, 76
15, 155864, Note_on_c, 13, 54, 0
15, 155880, Note_on_c, 13, 52, 76
15, 155984, Note_on_c, 13, 52, 0
15, 156000, Note_on_c, 13, 50, 76
15, 156104, Note_on_c, 13, 50, 0
15, 156120, Note_on_c, 13, 55, 76
15, 156224, Note_on_c, 13, 55, 0
15, 156240, Note_on_c, 13, 57, 76
15, 156344, Note_on_c, 13, 57, 0
15, 156360, Note_on_c, 13, 45, 76
15, 156464, Note_on_c, 13, 45, 0
15, 156480, Note_on_c, 13, 50, 76
15, 156719, Note_on_c, 13, 50, 0
15, 156840, Note_on_c, 13, 49, 76
15, 156944, Note_on_c, 13, 49, 0
15, 156960, Note_on_c, 13, 50, 76
15, 157064, Note_on_c, 13, 50, 0
15, 157080, Note_on_c, 13, 47, 76
15, 157184, Note_on_c, 13, 47, 0
15, 157200, Note_on_c, 13, 43, 76
15, 157304, Note_on_c, 13, 43, 0
15, 157320, Note_on_c, 13, 45, 76
15, 157424, Note_on_c, 13, 45, 0
15, 157440, Note_on_c, 13, 38, 76
15, 157679, Note_on_c, 13, 38, 0
15, 157800, Note_on_c, 13, 50, 76
15, 157904, Note_on_c, 13, 50, 0
15, 157920, Note_on_c, 13, 49, 76
15, 158024, Note_on_c, 13, 49, 0
15, 158040, Note_on_c, 13, 54, 76
15, 158144, Note_on_c, 13, 54, 0
15, 158160, Note_on_c, 13, 50, 76
15, 158264, Note_on_c, 13, 50, 0
15, 158280, Note_on_c, 13, 52, 76
15, 158384, Note_on_c, 13, 52, 0
15, 158400, Note_on_c, 13, 45, 76
15, 158504, Note_on_c, 13, 45, 0
15, 158520, Note_on_c, 13, 57, 76
15, 158624, Note_on_c, 13, 57, 0
15, 158640, Note_on_c, 13, 57, 76
15, 158744, Note_on_c, 13, 57, 0
15, 158760, Note_on_c, 13, 57, 76
15, 158879, Note_on_c, 13, 57, 0
15, 159000, Note_on_c, 13, 55, 76
15, 159104, Note_on_c, 13, 55, 0
15, 159120, Note_on_c, 13, 55, 76
15, 159224, Note_on_c, 13, 55, 0
15, 159240, Note_on_c, 13, 55, 76
15, 159359, Note_on_c, 13, 55, 0
15, 159480, Note_on_c, 13, 54, 76
15, 159584, Note_on_c, 13, 54, 0
15, 159600, Note_on_c, 13, 54, 76
15, 159704, Note_on_c, 13, 54, 0
15, 159720, Note_on_c, 13, 54, 76
15, 159839, Note_on_c, 13, 54, 0
15, 159960, Note_on_c, 13, 42, 76
15, 160064, Note_on_c, 13, 42, 0
15, 160080, Note_on_c, 13, 42, 76
15, 160184, Note_on_c, 13, 42, 0
15, 160200, Note_on_c, 13, 42, 76
15, 160319, Note_on_c, 13, 42, 0
15, 160440, Note_on_c, 13, 47, 76
15, 160544, Note_on_c, 13, 47, 0
15, 160560, Note_on_c, 13, 47, 76
15, 160664, Note_on_c, 13, 47, 0
15, 160680, Note_on_c, 13, 47, 76
15, 160799, Note_on_c, 13, 47, 0
15, 160920, Note_on_c, 13, 54, 76
15, 161024, Note_on_c, 13, 54, 0
15, 161040, Note_on_c, 13, 54, 76
15, 161144, Note_on_c, 13, 54, 0
15, 161160, Note_on_c, 13, 54, 76
15, 161279, Note_on_c, 13, 54, 0
15, 161400, Note_on_c, 13, 51, 76
15, 161504, Note_on_c, 13, 51, 0
15, 161520, Note_on_c, 13, 51, 76
15, 161624, Note_on_c, 13, 51, 0
15, 161640, Note_on_c, 13, 51, 76
15, 161759, Note_on_c, 13, 51, 0
15, 161880, Note_on_c, 13, 47, 76
15, 161984, Note_on_c, 13, 47, 0
15, 162000, Note_on_c, 13, 47, 76
15, 162104, Note_on_c, 13, 47, 0
15, 162120, Note_on_c, 13, 47, 76
15, 162224, Note_on_c, 13, 47, 0
15, 162240, Note_on_c, 13, 52, 76
15, 162344, Note_on_c, 13, 52, 0
15, 162360, Note_on_c, 13, 64, 76
15, 162464, Note_on_c, 13, 64, 0
15, 162480, Note_on_c, 13, 57, 76
15, 162584, Note_on_c, 13, 57, 0
15, 162600, Note_on_c, 13, 61, 76
15, 162704, Note_on_c, 13, 61, 0
15, 162720, Note_on_c, 13, 50, 76
15, 162824, Note_on_c, 13, 50, 0
15, 162840, Note_on_c, 13, 62, 76
15, 162944, Note_on_c, 13, 62, 0
15, 162960, Note_on_c, 13, 55, 76
15, 163064, Note_on_c, 13, 55, 0
15, 163080, Note_on_c, 13, 59, 76
15, 163184, Note_on_c, 13, 59, 0
15, 163200, Note_on_c, 13, 49, 76
15, 163304, Note_on_c, 13, 49, 0
15, 163320, Note_on_c, 13, 61, 76
15, 163424, Note_on_c, 13, 61, 0
15, 163440, Note_on_c, 13, 54, 76
15, 163544, Note_on_c, 13, 54, 0
15, 163560, Note_on_c, 13, 58, 76
15, 163664, Note_on_c, 13, 58, 0
15, 163680, Note_on_c, 13, 47, 76
15, 163784, Note_on_c, 13, 47, 0
15, 163800, Note_on_c, 13, 59, 76
15, 163904, Note_on_c, 13, 59, 0
15, 163920, Note_on_c, 13, 55, 76
15, 164024, Note_on_c, 13, 55, 0
15, 164040, Note_on_c, 13, 52, 76
15, 164144, Note_on_c, 13, 52, 0
15, 164160, Note_on_c, 13, 54, 76
15, 164399, Note_on_c, 13, 54, 0
15, 164640, Note_on_c, 13, 42, 76
15, 164879, Note_on_c, 13, 42, 0
15, 165240, Note_on_c, 13, 54, 76
15, 165344, Note_on_c, 13, 54, 0
15, 165360, Note_on_c, 13, 58, 76
15, 165464, Note_on_c, 13, 58, 0
15, 165480, Note_on_c, 13, 54, 76
15, 165584, Note_on_c, 13, 54, 0
15, 165600, Note_on_c, 13, 59, 76
15, 165839, Note_on_c, 13, 59, 0
15, 166080, Note_on_c, 13, 47, 76
15, 166319, Note_on_c, 13, 47, 0
15, 166680, Note_on_c, 13, 59, 76
15, 166784, Note_on_c, 13, 59, 0
15, 166800, Note_on_c, 13, 47, 76
15, 166904, Note_on_c, 13, 47, 0
15, 166920, Note_on_c, 13, 51, 76
15, 167024, Note_on_c, 13, 51, 0
15, 167040, Note_on_c, 13, 52, 76
15, 167279, Note_on_c, 13, 52, 0
15, 167520, Note_on_c, 13, 40, 76
15, 167759, Note_on_c, 13, 40, 0
15, 168120, Note_on_c, 13, 52, 76
15, 168224, Note_on_c, 13, 52, 0
15, 168240, Note_on_c, 13, 56, 76
15, 168344, Note_on_c, 13, 56, 0
15, 168360, Note_on_c, 13, 52, 76
15, 168464, Note_on_c, 13, 52, 0
15, 168480, Note_on_c, 13, 57, 76
15, 168719, Note_on_c, 13, 57, 0
15, 168960, Note_on_c, 13, 45, 76
15, 169199, Note_on_c, 13, 45, 0
15, 169560, Note_on_c, 13, 57, 76
15, 169664, Note_on_c, 13, 57, 0
15, 169680, Note_on_c, 13, 45, 76
15, 169784, Note_on_c, 13, 45, 0
15, 169800, Note_on_c, 13, 49, 76
15, 169904, Note_on_c, 13, 49, 0
15, 169920, Note_on_c, 13, 50, 76
15, 170024, Note_on_c, 13, 50, 0
15, 170040, Note_on_c, 13, 49, 76
15, 170144, Note_on_c, 13, 49, 0
15, 170160, Note_on_c, 13, 50, 76
15, 170264, Note_on_c, 13, 50, 0
15, 170280, Note_on_c, 13, 52, 76
15, 170384, Note_on_c, 13, 52, 0
15, 170400, Note_on_c, 13, 54, 76
15, 170504, Note_on_c, 13, 54, 0
15, 170520, Note_on_c, 13, 52, 76
15, 170624, Note_on_c, 13, 52, 0
15, 170640, Note_on_c, 13, 54, 76
15, 170744, Note_on_c, 13, 54, 0
15, 170760, Note_on_c, 13, 56, 76
15, 170864, Note_on_c, 13, 56, 0
15, 170880, Note_on_c, 13, 57, 76
15, 170984, Note_on_c, 13, 57, 0
15, 171000, Note_on_c, 13, 56, 76
15, 171104, Note_on_c, 13, 56, 0
15, 171120, Note_on_c, 13, 57, 76
15, 171224, Note_on_c, 13, 57, 0
15, 171240, Note_on_c, 13, 54, 76
15, 171344, Note_on_c, 13, 54, 0
15, 171360, Note_on_c, 13, 49, 76
15, 171464, Note_on_c, 13, 49, 0
15, 171480, Note_on_c, 13, 50, 76
15, 171584, Note_on_c, 13, 50, 0
15, 171600, Note_on_c, 13, 52, 76
15, 171704, Note_on_c, 13, 52, 0
15, 171720, Note_on_c, 13, 40, 76
15, 171824, Note_on_c, 13, 40, 0
15, 171840, Note_on_c, 13, 45, 76
15, 171944, Note_on_c, 13, 45, 0
15, 171960, Note_on_c, 13, 45, 76
15, 172007, Note_on_c, 13, 45, 0
15, 172020, Note_on_c, 13, 47, 76
15, 172067, Note_on_c, 13, 47, 0
15, 172080, Note_on_c, 13, 49, 76
15, 172184, Note_on_c, 13, 49, 0
15, 172200, Note_on_c, 13, 49, 76
15, 172247, Note_on_c, 13, 49, 0
15, 172260, Note_on_c, 13, 50, 76
15, 172307, Note_on_c, 13, 50, 0
15, 172320, Note_on_c, 13, 52, 76
15, 172424, Note_on_c, 13, 52, 0
15, 172440, Note_on_c, 13, 49, 76
15, 172487, Note_on_c, 13, 49, 0
15, 172500, Note_on_c, 13, 50, 76
15, 172547, Note_on_c, 13, 50, 0
15, 172560, Note_on_c, 13, 52, 76
15, 172664, Note_on_c, 13, 52, 0
15, 172680, Note_on_c, 13, 52, 76
15, 172727, Note_on_c, 13, 52, 0
15, 172740, Note_on_c, 13, 54, 76
15, 172787, Note_on_c, 13, 54, 0
15, 172800, Note_on_c, 13, 55, 76
15, 172904, Note_on_c, 13, 55, 0
15, 172920, Note_on_c, 13, 55, 76
15, 172967, Note_on_c, 13, 55, 0
15, 172980, Note_on_c, 13, 54, 76
15, 173027, Note_on_c, 13, 54, 0
15, 173040, Note_on_c, 13, 55, 76
15, 173144, Note_on_c, 13, 55, 0
15, 173160, Note_on_c, 13, 57, 76
15, 173207, Note_on_c, 13, 57, 0
15, 173220, Note_on_c, 13, 55, 76
15, 173267, Note_on_c, 13, 55, 0
15, 173280, Note_on_c, 13, 54, 76
15, 173384, Note_on_c, 13, 54, 0
15, 173400, Note_on_c, 13, 47, 76
15, 173447, Note_on_c, 13, 47, 0
15, 173460, Note_on_c, 13, 49, 76
15, 173507, Note_on_c, 13, 49, 0
15, 173520, Note_on_c, 13, 51, 76
15, 173624, Note_on_c, 13, 51, 0
15, 173640, Note_on_c, 13, 51, 76
15, 173687, Note_on_c, 13, 51, 0
15, 173700, Note_on_c, 13, 52, 76
15, 173747, Note_on_c, 13, 52, 0
15, 173760, Note_on_c, 13, 54, 76
15, 173864, Note_on_c, 13, 54, 0
15, 173880, Note_on_c, 13, 51, 76
15, 173927, Note_on_c, 13, 51, 0
15, 173940, Note_on_c, 13, 52, 76
15, 173987, Note_on_c, 13, 52, 0
15, 174000, Note_on_c, 13, 54, 76
15, 174104, Note_on_c, 13, 54, 0
15, 174120, Note_on_c, 13, 54, 76
15, 174167, Note_on_c, 13, 54, 0
15, 174180, Note_on_c, 13, 56, 76
15, 174227, Note_on_c, 13, 56, 0
15, 174240, Note_on_c, 13, 57, 76
15, 174344, Note_on_c, 13, 57, 0
15, 174360, Note_on_c, 13, 57, 76
15, 174407, Note_on_c, 13, 57, 0
15, 174420, Note_on_c, 13, 56, 76
15, 174467, Note_on_c, 13, 56, 0
15, 174480, Note_on_c, 13, 57, 76
15, 174584, Note_on_c, 13, 57, 0
15, 174600, Note_on_c, 13, 59, 76
15, 174647, Note_on_c, 13, 59, 0
15, 174660, Note_on_c, 13, 57, 76
15, 174707, Note_on_c, 13, 57, 0
15, 174720, Note_on_c, 13, 56, 76
15, 174824, Note_on_c, 13, 56, 0
15, 174840, Note_on_c, 13, 59, 76
15, 174944, Note_on_c, 13, 59, 0
15, 174960, Note_on_c, 13, 52, 76
15, 175064, Note_on_c, 13, 52, 0
15, 175080, Note_on_c, 13, 56, 76
15, 175304, Note_on_c, 13, 56, 0
15, 175320, Note_on_c, 13, 59, 76
15, 175424, Note_on_c, 13, 59, 0
15, 175440, Note_on_c, 13, 50, 76
15, 175544, Note_on_c, 13, 50, 0
15, 175560, Note_on_c, 13, 56, 76
15, 175784, Note_on_c, 13, 56, 0
15, 175800, Note_on_c, 13, 59, 76
15, 175904, Note_on_c, 13, 59, 0
15, 175920, Note_on_c, 13, 52, 76
15, 176024, Note_on_c, 13, 52, 0
15, 176040, Note_on_c, 13, 56, 76
15, 176144, Note_on_c, 13, 56, 0
15, 176160, Note_on_c, 13, 45, 76
15, 176264, Note_on_c, 13, 45, 0
15, 176280, Note_on_c, 13, 57, 76
15, 176384, Note_on_c, 13, 57, 0
15, 176400, Note_on_c, 13, 50, 76
15, 176504, Note_on_c, 13, 50, 0
15, 176520, Note_on_c, 13, 54, 76
15, 176624, Note_on_c, 13, 54, 0
15, 176640, Note_on_c, 13, 44, 76
15, 176744, Note_on_c, 13, 44, 0
15, 176760, Note_on_c, 13, 56, 76
15, 176864, Note_on_c, 13, 56, 0
15, 176880, Note_on_c, 13, 49, 76
15, 176984, Note_on_c, 13, 49, 0
15, 177000, Note_on_c, 13, 53, 76
15, 177104, Note_on_c, 13, 53, 0
15, 177120, Note_on_c, 13, 42, 76
15, 177224, Note_on_c, 13, 42, 0
15, 177240, Note_on_c, 13, 54, 76
15, 177344, Note_on_c, 13, 54, 0
15, 177360, Note_on_c, 13, 52, 76
15, 177464, Note_on_c, 13, 52, 0
15, 177480, Note_on_c, 13, 50, 76
15, 177584, Note_on_c, 13, 50, 0
15, 177600, Note_on_c, 13, 49, 76
15, 177704, Note_on_c, 13, 49, 0
15, 177720, Note_on_c, 13, 54, 76
15, 177824, Note_on_c, 13, 54, 0
15, 177840, Note_on_c, 13, 52, 76
15, 177944, Note_on_c, 13, 52, 0
15, 177960, Note_on_c, 13, 50, 76
15, 178064, Note_on_c, 13, 50, 0
15, 178080, Note_on_c, 13, 49, 76
15, 178184, Note_on_c, 13, 49, 0
15, 178200, Note_on_c, 13, 52, 76
15, 178304, Note_on_c, 13, 52, 0
15, 178320, Note_on_c, 13, 45, 76
15, 178424, Note_on_c, 13, 45, 0
15, 178440, Note_on_c, 13, 49, 76
15, 178544, Note_on_c, 13, 49, 0
15, 178560, Note_on_c, 13, 50, 76
15, 178664, Note_on_c, 13, 50, 0
15, 178680, Note_on_c, 13, 62, 76
15, 178784, Note_on_c, 13, 62, 0
15, 178800, Note_on_c, 13, 55, 76
15, 178904, Note_on_c, 13, 55, 0
15, 178920, Note_on_c, 13, 59, 76
15, 179024, Note_on_c, 13, 59, 0
15, 179040, Note_on_c, 13, 49, 76
15, 179144, Note_on_c, 13, 49, 0
15, 179160, Note_on_c, 13, 61, 76
15, 179264, Note_on_c, 13, 61, 0
15, 179280, Note_on_c, 13, 54, 76
15, 179384, Note_on_c, 13, 54, 0
15, 179400, Note_on_c, 13, 58, 76
15, 179504, Note_on_c, 13, 58, 0
15, 179520, Note_on_c, 13, 47, 76
15, 179624, Note_on_c, 13, 47, 0
15, 179640, Note_on_c, 13, 59, 76
15, 179744, Note_on_c, 13, 59, 0
15, 179760, Note_on_c, 13, 52, 76
15, 179864, Note_on_c, 13, 52, 0
15, 179880, Note_on_c, 13, 55, 76
15, 179984, Note_on_c, 13, 55, 0
15, 180000, Note_on_c, 13, 54, 76
15, 180104, Note_on_c, 13, 54, 0
15, 180120, Note_on_c, 13, 42, 76
15, 180167, Note_on_c, 13, 42, 0
15, 180180, Note_on_c, 13, 44, 76
15, 180227, Note_on_c, 13, 44, 0
15, 180240, Note_on_c, 13, 46, 76
15, 180344, Note_on_c, 13, 46, 0
15, 180360, Note_on_c, 13, 46, 76
15, 180407, Note_on_c, 13, 46, 0
15, 180420, Note_on_c, 13, 47, 76
15, 180467, Note_on_c, 13, 47, 0
15, 180480, Note_on_c, 13, 49, 76
15, 180584, Note_on_c, 13, 49, 0
15, 180600, Note_on_c, 13, 46, 76
15, 180647, Note_on_c, 13, 46, 0
15, 180660, Note_on_c, 13, 47, 76
15, 180707, Note_on_c, 13, 47, 0
15, 180720, Note_on_c, 13, 49, 76
15, 180824, Note_on_c, 13, 49, 0
15, 180840, Note_on_c, 13, 49, 76
15, 180887, Note_on_c, 13, 49, 0
15, 180900, Note_on_c, 13, 50, 76
15, 180947, Note_on_c, 13, 50, 0
15, 180960, Note_on_c, 13, 52, 76
15, 181064, Note_on_c, 13, 52, 0
15, 181080, Note_on_c, 13, 52, 76
15, 181127, Note_on_c, 13, 52, 0
15, 181140, Note_on_c, 13, 50, 76
15, 181187, Note_on_c, 13, 50, 0
15, 181200, Note_on_c, 13, 52, 76
15, 181304, Note_on_c, 13, 52, 0
15, 181320, Note_on_c, 13, 54, 76
15, 181367, Note_on_c, 13, 54, 0
15, 181380, Note_on_c, 13, 52, 76
15, 181427, Note_on_c, 13, 52, 0
15, 181440, Note_on_c, 13, 50, 76
15, 181544, Note_on_c, 13, 50, 0
15, 181560, Note_on_c, 13, 50, 76
15, 181607, Note_on_c, 13, 50, 0
15, 181620, Note_on_c, 13, 49, 76
15, 181667, Note_on_c, 13, 49, 0
15, 181680, Note_on_c, 13, 50, 76
15, 181784, Note_on_c, 13, 50, 0
15, 181800, Note_on_c, 13, 52, 76
15, 181847, Note_on_c, 13, 52, 0
15, 181860, Note_on_c, 13, 50, 76
15, 181907, Note_on_c, 13, 50, 0
15, 181920, Note_on_c, 13, 49, 76
15, 182024, Note_on_c, 13, 49, 0
15, 182040, Note_on_c, 13, 49, 76
15, 182087, Note_on_c, 13, 49, 0
15, 182100, Note_on_c, 13, 47, 76
15, 182147, Note_on_c, 13, 47, 0
15, 182160, Note_on_c, 13, 49, 76
15, 182264, Note_on_c, 13, 49, 0
15, 182280, Note_on_c, 13, 50, 76
15, 182327, Note_on_c, 13, 50, 0
15, 182340, Note_on_c, 13, 49, 76
15, 182387, Note_on_c, 13, 49, 0
15, 182400, Note_on_c, 13, 47, 76
15, 182447, Note_on_c, 13, 47, 0
15, 182460, Note_on_c, 13, 49, 76
15, 182507, Note_on_c, 13, 49, 0
15, 182520, Note_on_c, 13, 50, 76
15, 182567, Note_on_c, 13, 50, 0
15, 182580, Note_on_c, 13, 47, 76
15, 182627, Note_on_c, 13, 47, 0
15, 182640, Note_on_c, 13, 52, 76
15, 182687, Note_on_c, 13, 52, 0
15, 182700, Note_on_c, 13, 54, 76
15, 182747, Note_on_c, 13, 54, 0
15, 182760, Note_on_c, 13, 55, 76
15, 182807, Note_on_c, 13, 55, 0
15, 182820, Note_on_c, 13, 52, 76
15, 182867, Note_on_c, 13, 52, 0
15, 182880, Note_on_c, 13, 54, 76
15, 183119, Note_on_c, 13, 54, 0
15, 183240, Note_on_c, 13, 52, 76
15, 183344, Note_on_c, 13, 52, 0
15, 183360, Note_on_c, 13, 50, 76
15, 183464, Note_on_c, 13, 50, 0
15, 183480, Note_on_c, 13, 54, 76
15, 183584, Note_on_c, 13, 54, 0
15, 183600, Note_on_c, 13, 59, 76
15, 183704, Note_on_c, 13, 59, 0
15, 183720, Note_on_c, 13, 54, 76
15, 183824, Note_on_c, 13, 54, 0
15, 183840, Note_on_c, 13, 55, 76
15, 183944, Note_on_c, 13, 55, 0
15, 183960, Note_on_c, 13, 52, 76
15, 184064, Note_on_c, 13, 52, 0
15, 184080, Note_on_c, 13, 54, 76
15, 184184, Note_on_c, 13, 54, 0
15, 184200, Note_on_c, 13, 42, 76
15, 184304, Note_on_c, 13, 42, 0
15, 184320, Note_on_c, 13, 47, 76
15, 184559, Note_on_c, 13, 47, 0
15, 184680, Note_on_c, 13, 58, 76
15, 184784, Note_on_c, 13, 58, 0
15, 184800, Note_on_c, 13, 59, 76
15, 184904, Note_on_c, 13, 59, 0
15, 184920, Note_on_c, 13, 55, 76
15, 185024, Note_on_c, 13, 55, 0
15, 185040, Note_on_c, 13, 52, 76
15, 185144, Note_on_c, 13, 52, 0
15, 185160, Note_on_c, 13, 54, 76
15, 185264, Note_on_c, 13, 54, 0
15, 185280, Note_on_c, 13, 47, 76
15, 185519, Note_on_c, 13, 47, 0
15, 185640, Note_on_c, 13, 59, 76
15, 185744, Note_on_c, 13, 59, 0
15, 185760, Note_on_c, 13, 57, 76
15, 185864, Note_on_c, 13, 57, 0
15, 185880, Note_on_c, 13, 62, 76
15, 185984, Note_on_c, 13, 62, 0
15, 186000, Note_on_c, 13, 59, 76
15, 186104, Note_on_c, 13, 59, 0
15, 186120, Note_on_c, 13, 61, 76
15, 186224, Note_on_c, 13, 61, 0
15, 186240, Note_on_c, 13, 54, 76
15, 186344, Note_on_c, 13, 54, 0
15, 186360, Note_on_c, 13, 54, 76
15, 186464, Note_on_c, 13, 54, 0
15, 186480, Note_on_c, 13, 54, 76
15, 186584, Note_on_c, 13, 54, 0
15, 186600, Note_on_c, 13, 54, 76
15, 186719, Note_on_c, 13, 54, 0
15, 186840, Note_on_c, 13, 52, 76
15, 186944, Note_on_c, 13, 52, 0
15, 186960, Note_on_c, 13, 52, 76
15, 187064, Note_on_c, 13, 52, 0
15, 187080, Note_on_c, 13, 52, 76
15, 187199, Note_on_c, 13, 52, 0
15, 187320, Note_on_c, 13, 51, 76
15, 187424, Note_on_c, 13, 51, 0
15, 187440, Note_on_c, 13, 51, 76
15, 187544, Note_on_c, 13, 51, 0
15, 187560, Note_on_c, 13, 51, 76
15, 187679, Note_on_c, 13, 51, 0
15, 187800, Note_on_c, 13, 47, 76
15, 187904, Note_on_c, 13, 47, 0
15, 187920, Note_on_c, 13, 47, 76
15, 188024, Note_on_c, 13, 47, 0
15, 188040, Note_on_c, 13, 47, 76
15, 188159, Note_on_c, 13, 47, 0
15, 188280, Note_on_c, 13, 52, 76
15, 188384, Note_on_c, 13, 52, 0
15, 188400, Note_on_c, 13, 52, 76
15, 188504, Note_on_c, 13, 52, 0
15, 188520, Note_on_c, 13, 52, 76
15, 188639, Note_on_c, 13, 52, 0
15, 188760, Note_on_c, 13, 50, 76
15, 188864, Note_on_c, 13, 50, 0
15, 188880, Note_on_c, 13, 50, 76
15, 188984, Note_on_c, 13, 50, 0
15, 189000, Note_on_c, 13, 50, 76
15, 189119, Note_on_c, 13, 50, 0
15, 189240, Note_on_c, 13, 49, 76
15, 189344, Note_on_c, 13, 49, 0
15, 189360, Note_on_c, 13, 49, 76
15, 189464, Note_on_c, 13, 49, 0
15, 189480, Note_on_c, 13, 49, 76
15, 189599, Note_on_c, 13, 49, 0
15, 189720, Note_on_c, 13, 45, 76
15, 189824, Note_on_c, 13, 45, 0
15, 189840, Note_on_c, 13, 45, 76
15, 189944, Note_on_c, 13, 45, 0
15, 189960, Note_on_c, 13, 45, 76
15, 190064, Note_on_c, 13, 45, 0
15, 190080, Note_on_c, 13, 50, 76
15, 190184, Note_on_c, 13, 50, 0
15, 190200, Note_on_c, 13, 62, 76
15, 190304, Note_on_c, 13, 62, 0
15, 190320, Note_on_c, 13, 55, 76
15, 190424, Note_on_c, 13, 55, 0
15, 190440, Note_on_c, 13, 59, 76
15, 190544, Note_on_c, 13, 59, 0
15, 190560, Note_on_c, 13, 49, 76
15, 190664, Note_on_c, 13, 49, 0
15, 190680, Note_on_c, 13, 61, 76
15, 190784, Note_on_c, 13, 61, 0
15, 190800, Note_on_c, 13, 54, 76
15, 190904, Note_on_c, 13, 54, 0
15, 190920, Note_on_c, 13, 57, 76
15, 191024, Note_on_c, 13, 57, 0
15, 191040, Note_on_c, 13, 47, 76
15, 191144, Note_on_c, 13, 47, 0
15, 191160, Note_on_c, 13, 59, 76
15, 191264, Note_on_c, 13, 59, 0
15, 191280, Note_on_c, 13, 52, 76
15, 191384, Note_on_c, 13, 52, 0
15, 191400, Note_on_c, 13, 55, 76
15, 191504, Note_on_c, 13, 55, 0
15, 191520, Note_on_c, 13, 45, 76
15, 191999, Note_on_c, 13, 45, 0
15, 192000, Note_on_c, 13, 45, 76
15, 192959, Note_on_c, 13, 45, 0
15, 192960, Note_on_c, 13, 45, 76
15, 193544, Note_on_c, 13, 45, 0
15, 193560, Note_on_c, 13, 47, 76
15, 193664, Note_on_c, 13, 47, 0
15, 193680, Note_on_c, 13, 49, 76
15, 193784, Note_on_c, 13, 49, 0
15, 193800, Note_on_c, 13, 45, 76
15, 193904, Note_on_c, 13, 45, 0
15, 193920, Note_on_c, 13, 42, 76
15, 194159, Note_on_c, 13, 42, 0
15, 194400, Note_on_c, 13, 47, 76
15, 194639, Note_on_c, 13, 47, 0
15, 195000, Note_on_c, 13, 47, 76
15, 195104, Note_on_c, 13, 47, 0
15, 195120, Note_on_c, 13, 51, 76
15, 195224, Note_on_c, 13, 51, 0
15, 195240, Note_on_c, 13, 47, 76
15, 195344, Note_on_c, 13, 47, 0
15, 195360, Note_on_c, 13, 52, 76
15, 195599, Note_on_c, 13, 52, 0
15, 195840, Note_on_c, 13, 40, 76
15, 196079, Note_on_c, 13, 40, 0
15, 196440, Note_on_c, 13, 40, 76
15, 196544, Note_on_c, 13, 40, 0
15, 196560, Note_on_c, 13, 52, 76
15, 196664, Note_on_c, 13, 52, 0
15, 196680, Note_on_c, 13, 44, 76
15, 196784, Note_on_c, 13, 44, 0
15, 196800, Note_on_c, 13, 45, 76
15, 197039, Note_on_c, 13, 45, 0
15, 197280, Note_on_c, 13, 57, 76
15, 197519, Note_on_c, 13, 57, 0
15, 197880, Note_on_c, 13, 45, 76
15, 197984, Note_on_c, 13, 45, 0
15, 198000, Note_on_c, 13, 49, 76
15, 198104, Note_on_c, 13, 49, 0
15, 198120, Note_on_c, 13, 45, 76
15, 198224, Note_on_c, 13, 45, 0
15, 198240, Note_on_c, 13, 50, 76
15, 198479, Note_on_c, 13, 50, 0
15, 198720, Note_on_c, 13, 38, 76
15, 198959, Note_on_c, 13, 38, 0
15, 199320, Note_on_c, 13, 50, 76
15, 199424, Note_on_c, 13, 50, 0
15, 199440, Note_on_c, 13, 38, 76
15, 199544, Note_on_c, 13, 38, 0
15, 199560, Note_on_c, 13, 42, 76
15, 199664, Note_on_c, 13, 42, 0
15, 199680, Note_on_c, 13, 43, 76
15, 199784, Note_on_c, 13, 43, 0
15, 199800, Note_on_c, 13, 42, 76
15, 199904, Note_on_c, 13, 42, 0
15, 199920, Note_on_c, 13, 43, 76
15, 200024, Note_on_c, 13, 43, 0
15, 200040, Note_on_c, 13, 45, 76
15, 200144, Note_on_c, 13, 45, 0
15, 200160, Note_on_c, 13, 47, 76
15, 200264, Note_on_c, 13, 47, 0
15, 200280, Note_on_c, 13, 45, 76
15, 200384, Note_on_c, 13, 45, 0
15, 200400, Note_on_c, 13, 47, 76
15, 200504, Note_on_c, 13, 47, 0
15, 200520, Note_on_c, 13, 49, 76
15, 200624, Note_on_c, 13, 49, 0
15, 200640, Note_on_c, 13, 50, 76
15, 200744, Note_on_c, 13, 50, 0
15, 200760, Note_on_c, 13, 49, 76
15, 200864, Note_on_c, 13, 49, 0
15, 200880, Note_on_c, 13, 50, 76
15, 200984, Note_on_c, 13, 50, 0
15, 201000, Note_on_c, 13, 52, 76
15, 201104, Note_on_c, 13, 52, 0
15, 201120, Note_on_c, 13, 54, 76
15, 201224, Note_on_c, 13, 54, 0
15, 201240, Note_on_c, 13, 52, 76
15, 201344, Note_on_c, 13, 52, 0
15, 201360, Note_on_c, 13, 54, 76
15, 201464, Note_on_c, 13, 54, 0
15, 201480, Note_on_c, 13, 55, 76
15, 201584, Note_on_c, 13, 55, 0
15, 201600, Note_on_c, 13, 57, 76
15, 201704, Note_on_c, 13, 57, 0
15, 201720, Note_on_c, 13, 57, 76
15, 201824, Note_on_c, 13, 57, 0
15, 201840, Note_on_c, 13, 57, 76
15, 201944, Note_on_c, 13, 57, 0
15, 201960, Note_on_c, 13, 57, 76
15, 202064, Note_on_c, 13, 57, 0
15, 202080, Note_on_c, 13, 57, 76
15, 202184, Note_on_c, 13, 57, 0
15, 202200, Note_on_c, 13, 57, 76
15, 202304, Note_on_c, 13, 57, 0
15, 202320, Note_on_c, 13, 57, 76
15, 202424, Note_on_c, 13, 57, 0
15, 202440, Note_on_c, 13, 57, 76
15, 202544, Note_on_c, 13, 57, 0
15, 202560, Note_on_c, 13, 57, 76
15, 202664, Note_on_c, 13, 57, 0
15, 202680, Note_on_c, 13, 52, 76
15, 202784, Note_on_c, 13, 52, 0
15, 202800, Note_on_c, 13, 49, 76
15, 202904, Note_on_c, 13, 49, 0
15, 202920, Note_on_c, 13, 45, 76
15, 203024, Note_on_c, 13, 45, 0
15, 203040, Note_on_c, 13, 50, 76
15, 203144, Note_on_c, 13, 50, 0
15, 203160, Note_on_c, 13, 62, 76
15, 203264, Note_on_c, 13, 62, 0
15, 203280, Note_on_c, 13, 62, 76
15, 203384, Note_on_c, 13, 62, 0
15, 203400, Note_on_c, 13, 62, 76
15, 203504, Note_on_c, 13, 62, 0
15, 203520, Note_on_c, 13, 62, 76
15, 203624, Note_on_c, 13, 62, 0
15, 203640, Note_on_c, 13, 62, 76
15, 203744, Note_on_c, 13, 62, 0
15, 203760, Note_on_c, 13, 62, 76
15, 203864, Note_on_c, 13, 62, 0
15, 203880, Note_on_c, 13, 62, 76
15, 203984, Note_on_c, 13, 62, 0
15, 204000, Note_on_c, 13, 62, 76
15, 204104, Note_on_c, 13, 62, 0
15, 204120, Note_on_c, 13, 57, 76
15, 204224, Note_on_c, 13, 57, 0
15, 204240, Note_on_c, 13, 54, 76
15, 204344, Note_on_c, 13, 54, 0
15, 204360, Note_on_c, 13, 50, 76
15, 204464, Note_on_c, 13, 50, 0
15, 204480, Note_on_c, 13, 55, 76
15, 204584, Note_on_c, 13, 55, 0
15, 204600, Note_on_c, 13, 64, 76
15, 204704, Note_on_c, 13, 64, 0
15, 204720, Note_on_c, 13, 64, 76
15, 204824, Note_on_c, 13, 64, 0
15, 204840, Note_on_c, 13, 64, 76
15, 204944, Note_on_c, 13, 64, 0
15, 204960, Note_on_c, 13, 64, 76
15, 205064, Note_on_c, 13, 64, 0
15, 205080, Note_on_c, 13, 59, 76
15, 205184, Note_on_c, 13, 59, 0
15, 205200, Note_on_c, 13, 56, 76
15, 205304, Note_on_c, 13, 56, 0
15, 205320, Note_on_c, 13, 52, 76
15, 205424, Note_on_c, 13, 52, 0
15, 205440, Note_on_c, 13, 57, 76
15, 205679, Note_on_c, 13, 57, 0
15, 205920, Note_on_c, 13, 45, 76
15, 206159, Note_on_c, 13, 45, 0
15, 206400, Note_on_c, 13, 57, 76
15, 206639, Note_on_c, 13, 57, 0
15, 207000, Note_on_c, 13, 50, 76
15, 207047, Note_on_c, 13, 50, 0
15, 207060, Note_on_c, 13, 52, 76
15, 207107, Note_on_c, 13, 52, 0
15, 207120, Note_on_c, 13, 54, 76
15, 207224, Note_on_c, 13, 54, 0
15, 207240, Note_on_c, 13, 54, 76
15, 207287, Note_on_c, 13, 54, 0
15, 207300, Note_on_c, 13, 55, 76
15, 207347, Note_on_c, 13, 55, 0
15, 207360, Note_on_c, 13, 57, 76
15, 207464, Note_on_c, 13, 57, 0
15, 207480, Note_on_c, 13, 54, 76
15, 207527, Note_on_c, 13, 54, 0
15, 207540, Note_on_c, 13, 55, 76
15, 207587, Note_on_c, 13, 55, 0
15, 207600, Note_on_c, 13, 57, 76
15, 207704, Note_on_c, 13, 57, 0
15, 207720, Note_on_c, 13, 57, 76
15, 207767, Note_on_c, 13, 57, 0
15, 207780, Note_on_c, 13, 59, 76
15, 207827, Note_on_c, 13, 59, 0
15, 207840, Note_on_c, 13, 60, 76
15, 207944, Note_on_c, 13, 60, 0
15, 207960, Note_on_c, 13, 60, 76
15, 208007, Note_on_c, 13, 60, 0
15, 208020, Note_on_c, 13, 59, 76
15, 208067, Note_on_c, 13, 59, 0
15, 208080, Note_on_c, 13, 60, 76
15, 208184, Note_on_c, 13, 60, 0
15, 208200, Note_on_c, 13, 62, 76
15, 208247, Note_on_c, 13, 62, 0
15, 208260, Note_on_c, 13, 60, 76
15, 208307, Note_on_c, 13, 60, 0
15, 208320, Note_on_c, 13, 59, 76
15, 208424, Note_on_c, 13, 59, 0
15, 208440, Note_on_c, 13, 52, 76
15, 208487, Note_on_c, 13, 52, 0
15, 208500, Note_on_c, 13, 54, 76
15, 208547, Note_on_c, 13, 54, 0
15, 208560, Note_on_c, 13, 56, 76
15, 208664, Note_on_c, 13, 56, 0
15, 208680, Note_on_c, 13, 56, 76
15, 208727, Note_on_c, 13, 56, 0
15, 208740, Note_on_c, 13, 57, 76
15, 208787, Note_on_c, 13, 57, 0
15, 208800, Note_on_c, 13, 59, 76
15, 208904, Note_on_c, 13, 59, 0
15, 208920, Note_on_c, 13, 56, 76
15, 208967, Note_on_c, 13, 56, 0
15, 208980, Note_on_c, 13, 57, 76
15, 209027, Note_on_c, 13, 57, 0
15, 209040, Note_on_c, 13, 59, 76
15, 209144, Note_on_c, 13, 59, 0
15, 209160, Note_on_c, 13, 59, 76
15, 209207, Note_on_c, 13, 59, 0
15, 209220, Note_on_c, 13, 61, 76
15, 209267, Note_on_c, 13, 61, 0
15, 209280, Note_on_c, 13, 62, 76
15, 209384, Note_on_c, 13, 62, 0
15, 209400, Note_on_c, 13, 62, 76
15, 209447, Note_on_c, 13, 62, 0
15, 209460, Note_on_c, 13, 61, 76
15, 209507, Note_on_c, 13, 61, 0
15, 209520, Note_on_c, 13, 62, 76
15, 209624, Note_on_c, 13, 62, 0
15, 209640, Note_on_c, 13, 64, 76
15, 209687, Note_on_c, 13, 64, 0
15, 209700, Note_on_c, 13, 62, 76
15, 209747, Note_on_c, 13, 62, 0
15, 209760, Note_on_c, 13, 61, 76
15, 209864, Note_on_c, 13, 61, 0
15, 209880, Note_on_c, 13, 64, 76
15, 209984, Note_on_c, 13, 64, 0
15, 210000, Note_on_c, 13, 57, 76
15, 210104, Note_on_c, 13, 57, 0
15, 210120, Note_on_c, 13, 61, 76
15, 210344, Note_on_c, 13, 61, 0
15, 210360, Note_on_c, 13, 64, 76
15, 210464, Note_on_c, 13, 64, 0
15, 210480, Note_on_c, 13, 55, 76
15, 210584, Note_on_c, 13, 55, 0
15, 210600, Note_on_c, 13, 61, 76
15, 210824, Note_on_c, 13, 61, 0
15, 210840, Note_on_c, 13, 64, 76
15, 210944, Note_on_c, 13, 64, 0
15, 210960, Note_on_c, 13, 57, 76
15, 211064, Note_on_c, 13, 57, 0
15, 211080, Note_on_c, 13, 61, 76
15, 211184, Note_on_c, 13, 61, 0
15, 211200, Note_on_c, 13, 50, 76
15, 211304, Note_on_c, 13, 50, 0
15, 211320, Note_on_c, 13, 62, 76
15, 211424, Note_on_c, 13, 62, 0
15, 211440, Note_on_c, 13, 55, 76
15, 211544, Note_on_c, 13, 55, 0
15, 211560, Note_on_c, 13, 59, 76
15, 211664, Note_on_c, 13, 59, 0
15, 211680, Note_on_c, 13, 49, 76
15, 211784, Note_on_c, 13, 49, 0
15, 211800, Note_on_c, 13, 61, 76
15, 211904, Note_on_c, 13, 61, 0
15, 211920, Note_on_c, 13, 54, 76
15, 212024, Note_on_c, 13, 54, 0
15, 212040, Note_on_c, 13, 58, 76
15, 212144, Note_on_c, 13, 58, 0
15, 212160, Note_on_c, 13, 47, 76
15, 212264, Note_on_c, 13, 47, 0
15, 212280, Note_on_c, 13, 59, 76
15, 212384, Note_on_c, 13, 59, 0
15, 212400, Note_on_c, 13, 57, 76
15, 212504, Note_on_c, 13, 57, 0
15, 212520, Note_on_c, 13, 55, 76
15, 212624, Note_on_c, 13, 55, 0
15, 212640, Note_on_c, 13, 54, 76
15, 212744, Note_on_c, 13, 54, 0
15, 212760, Note_on_c, 13, 59, 76
15, 212864, Note_on_c, 13, 59, 0
15, 212880, Note_on_c, 13, 57, 76
15, 212984, Note_on_c, 13, 57, 0
15, 213000, Note_on_c, 13, 55, 76
15, 213104, Note_on_c, 13, 55, 0
15, 213120, Note_on_c, 13, 54, 76
15, 213224, Note_on_c, 13, 54, 0
15, 213240, Note_on_c, 13, 57, 76
15, 213344, Note_on_c, 13, 57, 0
15, 213360, Note_on_c, 13, 50, 76
15, 213464, Note_on_c, 13, 50, 0
15, 213480, Note_on_c, 13, 54, 76
15, 213584, Note_on_c, 13, 54, 0
15, 213600, Note_on_c, 13, 43, 76
15, 213704, Note_on_c, 13, 43, 0
15, 213720, Note_on_c, 13, 55, 76
15, 213824, Note_on_c, 13, 55, 0
15, 213840, Note_on_c, 13, 49, 76
15, 213944, Note_on_c, 13, 49, 0
15, 213960, Note_on_c, 13, 52, 76
15, 214064, Note_on_c, 13, 52, 0
15, 214080, Note_on_c, 13, 42, 76
15, 214184, Note_on_c, 13, 42, 0
15, 214200, Note_on_c, 13, 54, 76
15, 214304, Note_on_c, 13, 54, 0
15, 214320, Note_on_c, 13, 47, 76
15, 214424, Note_on_c, 13, 47, 0
15, 214440, Note_on_c, 13, 50, 76
15, 214544, Note_on_c, 13, 50, 0
15, 214560, Note_on_c, 13, 40, 76
15, 214664, Note_on_c, 13, 40, 0
15, 214680, Note_on_c, 13, 45, 76
15, 214784, Note_on_c, 13, 45, 0
15, 214800, Note_on_c, 13, 50, 76
15, 214904, Note_on_c, 13, 50, 0
15, 214920, Note_on_c, 13, 38, 76
15, 215024, Note_on_c, 13, 38, 0
15, 215040, Note_on_c, 13, 45, 76
15, 215144, Note_on_c, 13, 45, 0
15, 215160, Note_on_c, 13, 45, 76
15, 215207, Note_on_c, 13, 45, 0
15, 215220, Note_on_c, 13, 47, 76
15, 215267, Note_on_c, 13, 47, 0
15, 215280, Note_on_c, 13, 49, 76
15, 215384, Note_on_c, 13, 49, 0
15, 215400, Note_on_c, 13, 49, 76
15, 215447, Note_on_c, 13, 49, 0
15, 215460, Note_on_c, 13, 50, 76
15, 215507, Note_on_c, 13, 50, 0
15, 215520, Note_on_c, 13, 52, 76
15, 215624, Note_on_c, 13, 52, 0
15, 215640, Note_on_c, 13, 49, 76
15, 215687, Note_on_c, 13, 49, 0
15, 215700, Note_on_c, 13, 50, 76
15, 215747, Note_on_c, 13, 50, 0
15, 215760, Note_on_c, 13, 52, 76
15, 215864, Note_on_c, 13, 52, 0
15, 215880, Note_on_c, 13, 52, 76
15, 215927, Note_on_c, 13, 52, 0
15, 215940, Note_on_c, 13, 54, 76
15, 215987, Note_on_c, 13, 54, 0
15, 216000, Note_on_c, 13, 55, 76
15, 216104, Note_on_c, 13, 55, 0
15, 216120, Note_on_c, 13, 55, 76
15, 216167, Note_on_c, 13, 55, 0
15, 216180, Note_on_c, 13, 54, 76
15, 216227, Note_on_c, 13, 54, 0
15, 216240, Note_on_c, 13, 55, 76
15, 216344, Note_on_c, 13, 55, 0
15, 216360, Note_on_c, 13, 57, 76
15, 216407, Note_on_c, 13, 57, 0
15, 216420, Note_on_c, 13, 55, 76
15, 216467, Note_on_c, 13, 55, 0
15, 216480, Note_on_c, 13, 54, 76
15, 216584, Note_on_c, 13, 54, 0
15, 216600, Note_on_c, 13, 54, 76
15, 216647, Note_on_c, 13, 54, 0
15, 216660, Note_on_c, 13, 52, 76
15, 216707, Note_on_c, 13, 52, 0
15, 216720, Note_on_c, 13, 54, 76
15, 216824, Note_on_c, 13, 54, 0
15, 216840, Note_on_c, 13, 55, 76
15, 216887, Note_on_c, 13, 55, 0
15, 216900, Note_on_c, 13, 54, 76
15, 216947, Note_on_c, 13, 54, 0
15, 216960, Note_on_c, 13, 52, 76
15, 217064, Note_on_c, 13, 52, 0
15, 217080, Note_on_c, 13, 52, 76
15, 217127, Note_on_c, 13, 52, 0
15, 217140, Note_on_c, 13, 50, 76
15, 217187, Note_on_c, 13, 50, 0
15, 217200, Note_on_c, 13, 52, 76
15, 217304, Note_on_c, 13, 52, 0
15, 217320, Note_on_c, 13, 54, 76
15, 217367, Note_on_c, 13, 54, 0
15, 217380, Note_on_c, 13, 52, 76
15, 217427, Note_on_c, 13, 52, 0
15, 217440, Note_on_c, 13, 50, 76
15, 217487, Note_on_c, 13, 50, 0
15, 217500, Note_on_c, 13, 52, 76
15, 217547, Note_on_c, 13, 52, 0
15, 217560, Note_on_c, 13, 54, 76
15, 217607, Note_on_c, 13, 54, 0
15, 217620, Note_on_c, 13, 50, 76
15, 217667, Note_on_c, 13, 50, 0
15, 217680, Note_on_c, 13, 55, 76
15, 217727, Note_on_c, 13, 55, 0
15, 217740, Note_on_c, 13, 57, 76
15, 217787, Note_on_c, 13, 57, 0
15, 217800, Note_on_c, 13, 54, 76
15, 217847, Note_on_c, 13, 54, 0
15, 217860, Note_on_c, 13, 55, 76
15, 217907, Note_on_c, 13, 55, 0
15, 217920, Note_on_c, 13, 57, 76
15, 218024, Note_on_c, 13, 57, 0
15, 218040, Note_on_c, 13, 55, 76
15, 218144, Note_on_c, 13, 55, 0
15, 218160, Note_on_c, 13, 54, 76
15, 218264, Note_on_c, 13, 54, 0
15, 218280, Note_on_c, 13, 52, 76
15, 218384, Note_on_c, 13, 52, 0
15, 218400, Note_on_c, 13, 50, 76
15, 218504, Note_on_c, 13, 50, 0
15, 218520, Note_on_c, 13, 55, 76
15, 218624, Note_on_c, 13, 55, 0
15, 218640, Note_on_c, 13, 57, 76
15, 218744, Note_on_c, 13, 57, 0
15, 218760, Note_on_c, 13, 45, 76
15, 218864, Note_on_c, 13, 45, 0
15, 218880, Note_on_c, 13, 50, 76
15, 219839, Note_on_c, 13, 50, 0
15, 219840, Note_on_c, 13, 50, 76
15, 220799, Note_on_c, 13, 50, 0
15, 220800, Note_on_c, 13, 50, 76
15, 221093, Note_on_c, 13, 50, 0
15, 221100, Note_on_c, 13, 48, 76
15, 221153, Note_on_c, 13, 48, 0
15, 221160, Note_on_c, 13, 47, 76
15, 221213, Note_on_c, 13, 47, 0
15, 221220, Note_on_c, 13, 45, 76
15, 221273, Note_on_c, 13, 45, 0
15, 221280, Note_on_c, 13, 47, 76
15, 221453, Note_on_c, 13, 47, 0
15, 221460, Note_on_c, 13, 48, 76
15, 221513, Note_on_c, 13, 48, 0
15, 221520, Note_on_c, 13, 50, 76
15, 221693, Note_on_c, 13, 50, 0
15, 221700, Note_on_c, 13, 38, 76
15, 221753, Note_on_c, 13, 38, 0
15, 221760, Note_on_c, 13, 43, 76
15, 222227, Note_on_c, 13, 43, 0
15, 222240, Note_on_c, 13, 55, 76
15, 222707, Note_on_c, 13, 55, 0
15, 222720, Note_on_c, 13, 54, 76
15, 223253, Note_on_c, 13, 54, 0
15, 223260, Note_on_c, 13, 55, 76
15, 223313, Note_on_c, 13, 55, 0
15, 223320, Note_on_c, 13, 57, 76
15, 223373, Note_on_c, 13, 57, 0
15, 223380, Note_on_c, 13, 59, 76
15, 223433, Note_on_c, 13, 59, 0
15, 223440, Note_on_c, 13, 57, 76
15, 223493, Note_on_c, 13, 57, 0
15, 223500, Note_on_c, 13, 55, 76
15, 223553, Note_on_c, 13, 55, 0
15, 223560, Note_on_c, 13, 54, 76
15, 223613, Note_on_c, 13, 54, 0
15, 223620, Note_on_c, 13, 52, 76
15, 223673, Note_on_c, 13, 52, 0
15, 223680, Note_on_c, 13, 51, 76
15, 224333, Note_on_c, 13, 51, 0
15, 224340, Note_on_c, 13, 47, 76
15, 224393, Note_on_c, 13, 47, 0
15, 224400, Note_on_c, 13, 49, 76
15, 224573, Note_on_c, 13, 49, 0
15, 224580, Note_on_c, 13, 51, 76
15, 224633, Note_on_c, 13, 51, 0
15, 224640, Note_on_c, 13, 52, 76
15, 224813, Note_on_c, 13, 52, 0
15, 224820, Note_on_c, 13, 54, 76
15, 224873, Note_on_c, 13, 54, 0
15, 224880, Note_on_c, 13, 55, 76
15, 225053, Note_on_c, 13, 55, 0
15, 225060, Note_on_c, 13, 57, 76
15, 225113, Note_on_c, 13, 57, 0
15, 225120, Note_on_c, 13, 59, 76
15, 225293, Note_on_c, 13, 59, 0
15, 225300, Note_on_c, 13, 57, 76
15, 225325, Note_on_c, 13, 57, 0
15, 225330, Note_on_c, 13, 56, 76
15, 225355, Note_on_c, 13, 56, 0
15, 225360, Note_on_c, 13, 57, 76
15, 225533, Note_on_c, 13, 57, 0
15, 225540, Note_on_c, 13, 59, 76
15, 225593, Note_on_c, 13, 59, 0
15, 225600, Note_on_c, 13, 56, 76
15, 226133, Note_on_c, 13, 56, 0
15, 226140, Note_on_c, 13, 54, 76
15, 226193, Note_on_c, 13, 54, 0
15, 226200, Note_on_c, 13, 52, 76
15, 226253, Note_on_c, 13, 52, 0
15, 226260, Note_on_c, 13, 54, 76
15, 226313, Note_on_c, 13, 54, 0
15, 226320, Note_on_c, 13, 56, 76
15, 226373, Note_on_c, 13, 56, 0
15, 226380, Note_on_c, 13, 54, 76
15, 226433, Note_on_c, 13, 54, 0
15, 226440, Note_on_c, 13, 56, 76
15, 226493, Note_on_c, 13, 56, 0
15, 226500, Note_on_c, 13, 52, 76
15, 226553, Note_on_c, 13, 52, 0
15, 226560, Note_on_c, 13, 57, 76
15, 227093, Note_on_c, 13, 57, 0
15, 227100, Note_on_c, 13, 55, 76
15, 227153, Note_on_c, 13, 55, 0
15, 227160, Note_on_c, 13, 54, 76
15, 227213, Note_on_c, 13, 54, 0
15, 227220, Note_on_c, 13, 55, 76
15, 227273, Note_on_c, 13, 55, 0
15, 227280, Note_on_c, 13, 57, 76
15, 227333, Note_on_c, 13, 57, 0
15, 227340, Note_on_c, 13, 55, 76
15, 227393, Note_on_c, 13, 55, 0
15, 227400, Note_on_c, 13, 57, 76
15, 227453, Note_on_c, 13, 57, 0
15, 227460, Note_on_c, 13, 54, 76
15, 227513, Note_on_c, 13, 54, 0
15, 227520, Note_on_c, 13, 59, 76
15, 228053, Note_on_c, 13, 59, 0
15, 228060, Note_on_c, 13, 60, 76
15, 228113, Note_on_c, 13, 60, 0
15, 228120, Note_on_c, 13, 59, 76
15, 228173, Note_on_c, 13, 59, 0
15, 228180, Note_on_c, 13, 57, 76
15, 228233, Note_on_c, 13, 57, 0
15, 228240, Note_on_c, 13, 55, 76
15, 228293, Note_on_c, 13, 55, 0
15, 228300, Note_on_c, 13, 54, 76
15, 228353, Note_on_c, 13, 54, 0
15, 228360, Note_on_c, 13, 52, 76
15, 228413, Note_on_c, 13, 52, 0
15, 228420, Note_on_c, 13, 50, 76
15, 228473, Note_on_c, 13, 50, 0
15, 228480, Note_on_c, 13, 49, 76
15, 229013, Note_on_c, 13, 49, 0
15, 229020, Note_on_c, 13, 50, 76
15, 229073, Note_on_c, 13, 50, 0
15, 229080, Note_on_c, 13, 49, 76
15, 229133, Note_on_c, 13, 49, 0
15, 229140, Note_on_c, 13, 47, 76
15, 229193, Note_on_c, 13, 47, 0
15, 229200, Note_on_c, 13, 45, 76
15, 229253, Note_on_c, 13, 45, 0
15, 229260, Note_on_c, 13, 47, 76
15, 229313, Note_on_c, 13, 47, 0
15, 229320, Note_on_c, 13, 49, 76
15, 229373, Note_on_c, 13, 49, 0
15, 229380, Note_on_c, 13, 45, 76
15, 229433, Note_on_c, 13, 45, 0
15, 229440, Note_on_c, 13, 50, 76
15, 229973, Note_on_c, 13, 50, 0
15, 229980, Note_on_c, 13, 52, 76
15, 230033, Note_on_c, 13, 52, 0
15, 230040, Note_on_c, 13, 50, 76
15, 230093, Note_on_c, 13, 50, 0
15, 230100, Note_on_c, 13, 48, 76
15, 230153, Note_on_c, 13, 48, 0
15, 230160, Note_on_c, 13, 47, 76
15, 230213, Note_on_c, 13, 47, 0
15, 230220, Note_on_c, 13, 45, 76
15, 230273, Note_on_c, 13, 45, 0
15, 230280, Note_on_c, 13, 43, 76
15, 230333, Note_on_c, 13, 43, 0
15, 230340, Note_on_c, 13, 42, 76
15, 230393, Note_on_c, 13, 42, 0
15, 230400, Note_on_c, 13, 43, 76
15, 231359, Note_on_c, 13, 43, 0
15, 231360, Note_on_c, 13, 43, 76
15, 231653, Note_on_c, 13, 43, 0
15, 231660, Note_on_c, 13, 42, 76
15, 231713, Note_on_c, 13, 42, 0
15, 231720, Note_on_c, 13, 40, 76
15, 231773, Note_on_c, 13, 40, 0
15, 231780, Note_on_c, 13, 38, 76
15, 231833, Note_on_c, 13, 38, 0
15, 231840, Note_on_c, 13, 37, 76
15, 232013, Note_on_c, 13, 37, 0
15, 232020, Note_on_c, 13, 45, 76
15, 232073, Note_on_c, 13, 45, 0
15, 232080, Note_on_c, 13, 47, 76
15, 232253, Note_on_c, 13, 47, 0
15, 232260, Note_on_c, 13, 49, 76
15, 232313, Note_on_c, 13, 49, 0
15, 232320, Note_on_c, 13, 50, 76
15, 232493, Note_on_c, 13, 50, 0
15, 232500, Note_on_c, 13, 52, 76
15, 232553, Note_on_c, 13, 52, 0
15, 232560, Note_on_c, 13, 54, 76
15, 232733, Note_on_c, 13, 54, 0
15, 232740, Note_on_c, 13, 55, 76
15, 232793, Note_on_c, 13, 55, 0
15, 232800, Note_on_c, 13, 57, 76
15, 233027, Note_on_c, 13, 57, 0
15, 233040, Note_on_c, 13, 45, 76
15, 233267, Note_on_c, 13, 45, 0
15, 233280, Note_on_c, 13, 38, 76
15, 234239, Note_on_c, 13, 38, 0
15, 234239, End_track
16, 0, Start_track
16, 0, Title_t, "Harpsichord "
16, 0, MIDI_port, 0
16, 0, Control_c, 14, 10, 64
16, 0, Control_c, 14, 11, 127
16, 0, Control_c, 14, 7, 72
16, 0, Program_c, 14, 6
16, 0, Note_on_c, 14, 50, 76
16, 959, Note_on_c, 14, 50, 0
16, 960, Note_on_c, 14, 50, 76
16, 1919, Note_on_c, 14, 50, 0
16, 1920, Note_on_c, 14, 50, 76
16, 2219, Note_on_c, 14, 50, 0
16, 2220, Note_on_c, 14, 54, 76
16, 2279, Note_on_c, 14, 54, 0
16, 2280, Note_on_c, 14, 52, 76
16, 2339, Note_on_c, 14, 52, 0
16, 2340, Note_on_c, 14, 50, 76
16, 2399, Note_on_c, 14, 50, 0
16, 2400, Note_on_c, 14, 49, 76
16, 2579, Note_on_c, 14, 49, 0
16, 2580, Note_on_c, 14, 52, 76
16, 2639, Note_on_c, 14, 52, 0
16, 2640, Note_on_c, 14, 49, 76
16, 2819, Note_on_c, 14, 49, 0
16, 2820, Note_on_c, 14, 45, 76
16, 2879, Note_on_c, 14, 45, 0
16, 2880, Note_on_c, 14, 50, 76
16, 3419, Note_on_c, 14, 50, 0
16, 3420, Note_on_c, 14, 50, 76
16, 3479, Note_on_c, 14, 50, 0
16, 3480, Note_on_c, 14, 49, 76
16, 3539, Note_on_c, 14, 49, 0
16, 3540, Note_on_c, 14, 47, 76
16, 3599, Note_on_c, 14, 47, 0
16, 3600, Note_on_c, 14, 45, 76
16, 3659, Note_on_c, 14, 45, 0
16, 3660, Note_on_c, 14, 43, 76
16, 3719, Note_on_c, 14, 43, 0
16, 3720, Note_on_c, 14, 42, 76
16, 3779, Note_on_c, 14, 42, 0
16, 3780, Note_on_c, 14, 40, 76
16, 3839, Note_on_c, 14, 40, 0
16, 3840, Note_on_c, 14, 38, 76
16, 4319, Note_on_c, 14, 38, 0
16, 4320, Note_on_c, 14, 50, 76
16, 4979, Note_on_c, 14, 50, 0
16, 4980, Note_on_c, 14, 50, 76
16, 5039, Note_on_c, 14, 50, 0
16, 5040, Note_on_c, 14, 49, 76
16, 5219, Note_on_c, 14, 49, 0
16, 5220, Note_on_c, 14, 47, 76
16, 5279, Note_on_c, 14, 47, 0
16, 5280, Note_on_c, 14, 49, 76
16, 5519, Note_on_c, 14, 49, 0
16, 5520, Note_on_c, 14, 54, 76
16, 5759, Note_on_c, 14, 54, 0
16, 5760, Note_on_c, 14, 47, 76
16, 5819, Note_on_c, 14, 47, 0
16, 5820, Note_on_c, 14, 49, 76
16, 5879, Note_on_c, 14, 49, 0
16, 5880, Note_on_c, 14, 50, 76
16, 5939, Note_on_c, 14, 50, 0
16, 5940, Note_on_c, 14, 52, 76
16, 5999, Note_on_c, 14, 52, 0
16, 6000, Note_on_c, 14, 54, 76
16, 6059, Note_on_c, 14, 54, 0
16, 6060, Note_on_c, 14, 56, 76
16, 6119, Note_on_c, 14, 56, 0
16, 6120, Note_on_c, 14, 57, 76
16, 6179, Note_on_c, 14, 57, 0
16, 6180, Note_on_c, 14, 54, 76
16, 6239, Note_on_c, 14, 54, 0
16, 6240, Note_on_c, 14, 56, 76
16, 6599, Note_on_c, 14, 56, 0
16, 6600, Note_on_c, 14, 54, 76
16, 6659, Note_on_c, 14, 54, 0
16, 6660, Note_on_c, 14, 56, 76
16, 6719, Note_on_c, 14, 56, 0
16, 6720, Note_on_c, 14, 57, 76
16, 7739, Note_on_c, 14, 57, 0
16, 7740, Note_on_c, 14, 55, 76
16, 7799, Note_on_c, 14, 55, 0
16, 7800, Note_on_c, 14, 54, 76
16, 7859, Note_on_c, 14, 54, 0
16, 7860, Note_on_c, 14, 52, 76
16, 7919, Note_on_c, 14, 52, 0
16, 7920, Note_on_c, 14, 51, 76
16, 7979, Note_on_c, 14, 51, 0
16, 7980, Note_on_c, 14, 49, 76
16, 8039, Note_on_c, 14, 49, 0
16, 8040, Note_on_c, 14, 47, 76
16, 8099, Note_on_c, 14, 47, 0
16, 8100, Note_on_c, 14, 45, 76
16, 8159, Note_on_c, 14, 45, 0
16, 8160, Note_on_c, 14, 43, 76
16, 8339, Note_on_c, 14, 43, 0
16, 8340, Note_on_c, 14, 43, 76
16, 8399, Note_on_c, 14, 43, 0
16, 8400, Note_on_c, 14, 45, 76
16, 8579, Note_on_c, 14, 45, 0
16, 8580, Note_on_c, 14, 47, 76
16, 8639, Note_on_c, 14, 47, 0
16, 8640, Note_on_c, 14, 40, 76
16, 9119, Note_on_c, 14, 40, 0
16, 9120, Note_on_c, 14, 52, 76
16, 9779, Note_on_c, 14, 52, 0
16, 9780, Note_on_c, 14, 55, 76
16, 9839, Note_on_c, 14, 55, 0
16, 9840, Note_on_c, 14, 54, 76
16, 10019, Note_on_c, 14, 54, 0
16, 10020, Note_on_c, 14, 52, 76
16, 10079, Note_on_c, 14, 52, 0
16, 10080, Note_on_c, 14, 50, 76
16, 10259, Note_on_c, 14, 50, 0
16, 10260, Note_on_c, 14, 49, 76
16, 10319, Note_on_c, 14, 49, 0
16, 10320, Note_on_c, 14, 47, 76
16, 10499, Note_on_c, 14, 47, 0
16, 10500, Note_on_c, 14, 46, 76
16, 10559, Note_on_c, 14, 46, 0
16, 10560, Note_on_c, 14, 47, 76
16, 10739, Note_on_c, 14, 47, 0
16, 10740, Note_on_c, 14, 49, 76
16, 10799, Note_on_c, 14, 49, 0
16, 10800, Note_on_c, 14, 50, 76
16, 10979, Note_on_c, 14, 50, 0
16, 10980, Note_on_c, 14, 52, 76
16, 11039, Note_on_c, 14, 52, 0
16, 11040, Note_on_c, 14, 54, 76
16, 11219, Note_on_c, 14, 54, 0
16, 11220, Note_on_c, 14, 52, 76
16, 11249, Note_on_c, 14, 52, 0
16, 11250, Note_on_c, 14, 50, 76
16, 11279, Note_on_c, 14, 50, 0
16, 11280, Note_on_c, 14, 52, 76
16, 11459, Note_on_c, 14, 52, 0
16, 11460, Note_on_c, 14, 54, 76
16, 11519, Note_on_c, 14, 54, 0
16, 11520, Note_on_c, 14, 51, 76
16, 12059, Note_on_c, 14, 51, 0
16, 12060, Note_on_c, 14, 49, 76
16, 12119, Note_on_c, 14, 49, 0
16, 12120, Note_on_c, 14, 47, 76
16, 12179, Note_on_c, 14, 47, 0
16, 12180, Note_on_c, 14, 49, 76
16, 12239, Note_on_c, 14, 49, 0
16, 12240, Note_on_c, 14, 51, 76
16, 12299, Note_on_c, 14, 51, 0
16, 12300, Note_on_c, 14, 49, 76
16, 12359, Note_on_c, 14, 49, 0
16, 12360, Note_on_c, 14, 51, 76
16, 12419, Note_on_c, 14, 51, 0
16, 12420, Note_on_c, 14, 47, 76
16, 12479, Note_on_c, 14, 47, 0
16, 12480, Note_on_c, 14, 52, 76
16, 13019, Note_on_c, 14, 52, 0
16, 13020, Note_on_c, 14, 50, 76
16, 13079, Note_on_c, 14, 50, 0
16, 13080, Note_on_c, 14, 49, 76
16, 13139, Note_on_c, 14, 49, 0
16, 13140, Note_on_c, 14, 50, 76
16, 13199, Note_on_c, 14, 50, 0
16, 13200, Note_on_c, 14, 52, 76
16, 13259, Note_on_c, 14, 52, 0
16, 13260, Note_on_c, 14, 50, 76
16, 13319, Note_on_c, 14, 50, 0
16, 13320, Note_on_c, 14, 52, 76
16, 13379, Note_on_c, 14, 52, 0
16, 13380, Note_on_c, 14, 49, 76
16, 13439, Note_on_c, 14, 49, 0
16, 13440, Note_on_c, 14, 54, 76
16, 13979, Note_on_c, 14, 54, 0
16, 13980, Note_on_c, 14, 55, 76
16, 14039, Note_on_c, 14, 55, 0
16, 14040, Note_on_c, 14, 54, 76
16, 14099, Note_on_c, 14, 54, 0
16, 14100, Note_on_c, 14, 52, 76
16, 14159, Note_on_c, 14, 52, 0
16, 14160, Note_on_c, 14, 50, 76
16, 14219, Note_on_c, 14, 50, 0
16, 14220, Note_on_c, 14, 52, 76
16, 14279, Note_on_c, 14, 52, 0
16, 14280, Note_on_c, 14, 50, 76
16, 14339, Note_on_c, 14, 50, 0
16, 14340, Note_on_c, 14, 49, 76
16, 14399, Note_on_c, 14, 49, 0
16, 14400, Note_on_c, 14, 47, 76
16, 14699, Note_on_c, 14, 47, 0
16, 14700, Note_on_c, 14, 47, 76
16, 14759, Note_on_c, 14, 47, 0
16, 14760, Note_on_c, 14, 49, 76
16, 14819, Note_on_c, 14, 49, 0
16, 14820, Note_on_c, 14, 50, 76
16, 14879, Note_on_c, 14, 50, 0
16, 14880, Note_on_c, 14, 44, 76
16, 15059, Note_on_c, 14, 44, 0
16, 15060, Note_on_c, 14, 40, 76
16, 15119, Note_on_c, 14, 40, 0
16, 15120, Note_on_c, 14, 42, 76
16, 15299, Note_on_c, 14, 42, 0
16, 15300, Note_on_c, 14, 44, 76
16, 15359, Note_on_c, 14, 44, 0
16, 15360, Note_on_c, 14, 45, 76
16, 15539, Note_on_c, 14, 45, 0
16, 15540, Note_on_c, 14, 47, 76
16, 15599, Note_on_c, 14, 47, 0
16, 15600, Note_on_c, 14, 49, 76
16, 15779, Note_on_c, 14, 49, 0
16, 15780, Note_on_c, 14, 50, 76
16, 15839, Note_on_c, 14, 50, 0
16, 15840, Note_on_c, 14, 52, 76
16, 16079, Note_on_c, 14, 52, 0
16, 16080, Note_on_c, 14, 40, 76
16, 16319, Note_on_c, 14, 40, 0
16, 16320, Note_on_c, 14, 45, 76
16, 16799, Note_on_c, 14, 45, 0
16, 16800, Note_on_c, 14, 45, 76
16, 17099, Note_on_c, 14, 45, 0
16, 17100, Note_on_c, 14, 47, 76
16, 17159, Note_on_c, 14, 47, 0
16, 17160, Note_on_c, 14, 45, 76
16, 17219, Note_on_c, 14, 45, 0
16, 17220, Note_on_c, 14, 43, 76
16, 17279, Note_on_c, 14, 43, 0
16, 17280, Note_on_c, 14, 42, 76
16, 17579, Note_on_c, 14, 42, 0
16, 17580, Note_on_c, 14, 43, 76
16, 17639, Note_on_c, 14, 43, 0
16, 17640, Note_on_c, 14, 42, 76
16, 17699, Note_on_c, 14, 42, 0
16, 17700, Note_on_c, 14, 40, 76
16, 17759, Note_on_c, 14, 40, 0
16, 17760, Note_on_c, 14, 38, 76
16, 17939, Note_on_c, 14, 38, 0
16, 17940, Note_on_c, 14, 40, 76
16, 17999, Note_on_c, 14, 40, 0
16, 18000, Note_on_c, 14, 42, 76
16, 18179, Note_on_c, 14, 42, 0
16, 18180, Note_on_c, 14, 38, 76
16, 18239, Note_on_c, 14, 38, 0
16, 18240, Note_on_c, 14, 43, 76
16, 18719, Note_on_c, 14, 43, 0
16, 18720, Note_on_c, 14, 55, 76
16, 19199, Note_on_c, 14, 55, 0
16, 19200, Note_on_c, 14, 55, 76
16, 19499, Note_on_c, 14, 55, 0
16, 19500, Note_on_c, 14, 54, 76
16, 19559, Note_on_c, 14, 54, 0
16, 19560, Note_on_c, 14, 52, 76
16, 19619, Note_on_c, 14, 52, 0
16, 19620, Note_on_c, 14, 50, 76
16, 19679, Note_on_c, 14, 50, 0
16, 19680, Note_on_c, 14, 49, 76
16, 19859, Note_on_c, 14, 49, 0
16, 19860, Note_on_c, 14, 45, 76
16, 19919, Note_on_c, 14, 45, 0
16, 19920, Note_on_c, 14, 47, 76
16, 20099, Note_on_c, 14, 47, 0
16, 20100, Note_on_c, 14, 49, 76
16, 20159, Note_on_c, 14, 49, 0
16, 20160, Note_on_c, 14, 50, 76
16, 20339, Note_on_c, 14, 50, 0
16, 20340, Note_on_c, 14, 52, 76
16, 20399, Note_on_c, 14, 52, 0
16, 20400, Note_on_c, 14, 54, 76
16, 20579, Note_on_c, 14, 54, 0
16, 20580, Note_on_c, 14, 55, 76
16, 20639, Note_on_c, 14, 55, 0
16, 20640, Note_on_c, 14, 57, 76
16, 20699, Note_on_c, 14, 57, 0
16, 20700, Note_on_c, 14, 59, 76
16, 20759, Note_on_c, 14, 59, 0
16, 20760, Note_on_c, 14, 57, 76
16, 20819, Note_on_c, 14, 57, 0
16, 20820, Note_on_c, 14, 55, 76
16, 20879, Note_on_c, 14, 55, 0
16, 20880, Note_on_c, 14, 54, 76
16, 20939, Note_on_c, 14, 54, 0
16, 20940, Note_on_c, 14, 55, 76
16, 20999, Note_on_c, 14, 55, 0
16, 21000, Note_on_c, 14, 57, 76
16, 21059, Note_on_c, 14, 57, 0
16, 21060, Note_on_c, 14, 59, 76
16, 21119, Note_on_c, 14, 59, 0
16, 21120, Note_on_c, 14, 61, 76
16, 21179, Note_on_c, 14, 61, 0
16, 21180, Note_on_c, 14, 59, 76
16, 21239, Note_on_c, 14, 59, 0
16, 21240, Note_on_c, 14, 57, 76
16, 21299, Note_on_c, 14, 57, 0
16, 21300, Note_on_c, 14, 59, 76
16, 21359, Note_on_c, 14, 59, 0
16, 21360, Note_on_c, 14, 61, 76
16, 21419, Note_on_c, 14, 61, 0
16, 21420, Note_on_c, 14, 62, 76
16, 21479, Note_on_c, 14, 62, 0
16, 21480, Note_on_c, 14, 64, 76
16, 21539, Note_on_c, 14, 64, 0
16, 21540, Note_on_c, 14, 61, 76
16, 21599, Note_on_c, 14, 61, 0
16, 21600, Note_on_c, 14, 62, 76
16, 21839, Note_on_c, 14, 62, 0
16, 21840, Note_on_c, 14, 50, 76
16, 22079, Note_on_c, 14, 50, 0
16, 22080, Note_on_c, 14, 45, 76
16, 22259, Note_on_c, 14, 45, 0
16, 22260, Note_on_c, 14, 57, 76
16, 22319, Note_on_c, 14, 57, 0
16, 22320, Note_on_c, 14, 57, 76
16, 22499, Note_on_c, 14, 57, 0
16, 22500, Note_on_c, 14, 52, 76
16, 22559, Note_on_c, 14, 52, 0
16, 22560, Note_on_c, 14, 52, 76
16, 22739, Note_on_c, 14, 52, 0
16, 22740, Note_on_c, 14, 49, 76
16, 22799, Note_on_c, 14, 49, 0
16, 22800, Note_on_c, 14, 49, 76
16, 22979, Note_on_c, 14, 49, 0
16, 22980, Note_on_c, 14, 45, 76
16, 23039, Note_on_c, 14, 45, 0
16, 23040, Note_on_c, 14, 50, 76
16, 23999, Note_on_c, 14, 50, 0
16, 24000, Note_on_c, 14, 50, 76
16, 24959, Note_on_c, 14, 50, 0
16, 24960, Note_on_c, 14, 50, 76
16, 25259, Note_on_c, 14, 50, 0
16, 25260, Note_on_c, 14, 54, 76
16, 25319, Note_on_c, 14, 54, 0
16, 25320, Note_on_c, 14, 52, 76
16, 25379, Note_on_c, 14, 52, 0
16, 25380, Note_on_c, 14, 50, 76
16, 25439, Note_on_c, 14, 50, 0
16, 25440, Note_on_c, 14, 49, 76
16, 25619, Note_on_c, 14, 49, 0
16, 25620, Note_on_c, 14, 52, 76
16, 25679, Note_on_c, 14, 52, 0
16, 25680, Note_on_c, 14, 49, 76
16, 25859, Note_on_c, 14, 49, 0
16, 25860, Note_on_c, 14, 45, 76
16, 25919, Note_on_c, 14, 45, 0
16, 25920, Note_on_c, 14, 50, 76
16, 26459, Note_on_c, 14, 50, 0
16, 26460, Note_on_c, 14, 50, 76
16, 26519, Note_on_c, 14, 50, 0
16, 26520, Note_on_c, 14, 49, 76
16, 26579, Note_on_c, 14, 49, 0
16, 26580, Note_on_c, 14, 47, 76
16, 26639, Note_on_c, 14, 47, 0
16, 26640, Note_on_c, 14, 45, 76
16, 26699, Note_on_c, 14, 45, 0
16, 26700, Note_on_c, 14, 43, 76
16, 26759, Note_on_c, 14, 43, 0
16, 26760, Note_on_c, 14, 42, 76
16, 26819, Note_on_c, 14, 42, 0
16, 26820, Note_on_c, 14, 40, 76
16, 26879, Note_on_c, 14, 40, 0
16, 26880, Note_on_c, 14, 38, 76
16, 27359, Note_on_c, 14, 38, 0
16, 27360, Note_on_c, 14, 50, 76
16, 28019, Note_on_c, 14, 50, 0
16, 28020, Note_on_c, 14, 50, 76
16, 28079, Note_on_c, 14, 50, 0
16, 28080, Note_on_c, 14, 49, 76
16, 28259, Note_on_c, 14, 49, 0
16, 28260, Note_on_c, 14, 47, 76
16, 28319, Note_on_c, 14, 47, 0
16, 28320, Note_on_c, 14, 49, 76
16, 28559, Note_on_c, 14, 49, 0
16, 28560, Note_on_c, 14, 54, 76
16, 28799, Note_on_c, 14, 54, 0
16, 28800, Note_on_c, 14, 47, 76
16, 28859, Note_on_c, 14, 47, 0
16, 28860, Note_on_c, 14, 49, 76
16, 28919, Note_on_c, 14, 49, 0
16, 28920, Note_on_c, 14, 50, 76
16, 28979, Note_on_c, 14, 50, 0
16, 28980, Note_on_c, 14, 52, 76
16, 29039, Note_on_c, 14, 52, 0
16, 29040, Note_on_c, 14, 54, 76
16, 29099, Note_on_c, 14, 54, 0
16, 29100, Note_on_c, 14, 56, 76
16, 29159, Note_on_c, 14, 56, 0
16, 29160, Note_on_c, 14, 57, 76
16, 29219, Note_on_c, 14, 57, 0
16, 29220, Note_on_c, 14, 54, 76
16, 29279, Note_on_c, 14, 54, 0
16, 29280, Note_on_c, 14, 56, 76
16, 29639, Note_on_c, 14, 56, 0
16, 29640, Note_on_c, 14, 54, 76
16, 29699, Note_on_c, 14, 54, 0
16, 29700, Note_on_c, 14, 56, 76
16, 29759, Note_on_c, 14, 56, 0
16, 29760, Note_on_c, 14, 57, 76
16, 30779, Note_on_c, 14, 57, 0
16, 30780, Note_on_c, 14, 55, 76
16, 30839, Note_on_c, 14, 55, 0
16, 30840, Note_on_c, 14, 54, 76
16, 30899, Note_on_c, 14, 54, 0
16, 30900, Note_on_c, 14, 52, 76
16, 30959, Note_on_c, 14, 52, 0
16, 30960, Note_on_c, 14, 51, 76
16, 31019, Note_on_c, 14, 51, 0
16, 31020, Note_on_c, 14, 49, 76
16, 31079, Note_on_c, 14, 49, 0
16, 31080, Note_on_c, 14, 47, 76
16, 31139, Note_on_c, 14, 47, 0
16, 31140, Note_on_c, 14, 45, 76
16, 31199, Note_on_c, 14, 45, 0
16, 31200, Note_on_c, 14, 43, 76
16, 31379, Note_on_c, 14, 43, 0
16, 31380, Note_on_c, 14, 43, 76
16, 31439, Note_on_c, 14, 43, 0
16, 31440, Note_on_c, 14, 45, 76
16, 31619, Note_on_c, 14, 45, 0
16, 31620, Note_on_c, 14, 47, 76
16, 31679, Note_on_c, 14, 47, 0
16, 31680, Note_on_c, 14, 40, 76
16, 32159, Note_on_c, 14, 40, 0
16, 32160, Note_on_c, 14, 52, 76
16, 32819, Note_on_c, 14, 52, 0
16, 32820, Note_on_c, 14, 55, 76
16, 32879, Note_on_c, 14, 55, 0
16, 32880, Note_on_c, 14, 54, 76
16, 33059, Note_on_c, 14, 54, 0
16, 33060, Note_on_c, 14, 52, 76
16, 33119, Note_on_c, 14, 52, 0
16, 33120, Note_on_c, 14, 50, 76
16, 33299, Note_on_c, 14, 50, 0
16, 33300, Note_on_c, 14, 49, 76
16, 33359, Note_on_c, 14, 49, 0
16, 33360, Note_on_c, 14, 47, 76
16, 33539, Note_on_c, 14, 47, 0
16, 33540, Note_on_c, 14, 46, 76
16, 33599, Note_on_c, 14, 46, 0
16, 33600, Note_on_c, 14, 47, 76
16, 33779, Note_on_c, 14, 47, 0
16, 33780, Note_on_c, 14, 49, 76
16, 33839, Note_on_c, 14, 49, 0
16, 33840, Note_on_c, 14, 50, 76
16, 34019, Note_on_c, 14, 50, 0
16, 34020, Note_on_c, 14, 52, 76
16, 34079, Note_on_c, 14, 52, 0
16, 34080, Note_on_c, 14, 54, 76
16, 34259, Note_on_c, 14, 54, 0
16, 34260, Note_on_c, 14, 52, 76
16, 34289, Note_on_c, 14, 52, 0
16, 34290, Note_on_c, 14, 50, 76
16, 34319, Note_on_c, 14, 50, 0
16, 34320, Note_on_c, 14, 52, 76
16, 34499, Note_on_c, 14, 52, 0
16, 34500, Note_on_c, 14, 54, 76
16, 34559, Note_on_c, 14, 54, 0
16, 34560, Note_on_c, 14, 51, 76
16, 35099, Note_on_c, 14, 51, 0
16, 35100, Note_on_c, 14, 49, 76
16, 35159, Note_on_c, 14, 49, 0
16, 35160, Note_on_c, 14, 47, 76
16, 35219, Note_on_c, 14, 47, 0
16, 35220, Note_on_c, 14, 49, 76
16, 35279, Note_on_c, 14, 49, 0
16, 35280, Note_on_c, 14, 51, 76
16, 35339, Note_on_c, 14, 51, 0
16, 35340, Note_on_c, 14, 49, 76
16, 35399, Note_on_c, 14, 49, 0
16, 35400, Note_on_c, 14, 51, 76
16, 35459, Note_on_c, 14, 51, 0
16, 35460, Note_on_c, 14, 47, 76
16, 35519, Note_on_c, 14, 47, 0
16, 35520, Note_on_c, 14, 52, 76
16, 36059, Note_on_c, 14, 52, 0
16, 36060, Note_on_c, 14, 50, 76
16, 36119, Note_on_c, 14, 50, 0
16, 36120, Note_on_c, 14, 49, 76
16, 36179, Note_on_c, 14, 49, 0
16, 36180, Note_on_c, 14, 50, 76
16, 36239, Note_on_c, 14, 50, 0
16, 36240, Note_on_c, 14, 52, 76
16, 36299, Note_on_c, 14, 52, 0
16, 36300, Note_on_c, 14, 50, 76
16, 36359, Note_on_c, 14, 50, 0
16, 36360, Note_on_c, 14, 52, 76
16, 36419, Note_on_c, 14, 52, 0
16, 36420, Note_on_c, 14, 49, 76
16, 36479, Note_on_c, 14, 49, 0
16, 36480, Note_on_c, 14, 54, 76
16, 37019, Note_on_c, 14, 54, 0
16, 37020, Note_on_c, 14, 55, 76
16, 37079, Note_on_c, 14, 55, 0
16, 37080, Note_on_c, 14, 54, 76
16, 37139, Note_on_c, 14, 54, 0
16, 37140, Note_on_c, 14, 52, 76
16, 37199, Note_on_c, 14, 52, 0
16, 37200, Note_on_c, 14, 50, 76
16, 37259, Note_on_c, 14, 50, 0
16, 37260, Note_on_c, 14, 52, 76
16, 37319, Note_on_c, 14, 52, 0
16, 37320, Note_on_c, 14, 50, 76
16, 37379, Note_on_c, 14, 50, 0
16, 37380, Note_on_c, 14, 49, 76
16, 37439, Note_on_c, 14, 49, 0
16, 37440, Note_on_c, 14, 47, 76
16, 37739, Note_on_c, 14, 47, 0
16, 37740, Note_on_c, 14, 47, 76
16, 37799, Note_on_c, 14, 47, 0
16, 37800, Note_on_c, 14, 49, 76
16, 37859, Note_on_c, 14, 49, 0
16, 37860, Note_on_c, 14, 50, 76
16, 37919, Note_on_c, 14, 50, 0
16, 37920, Note_on_c, 14, 44, 76
16, 38099, Note_on_c, 14, 44, 0
16, 38100, Note_on_c, 14, 40, 76
16, 38159, Note_on_c, 14, 40, 0
16, 38160, Note_on_c, 14, 42, 76
16, 38339, Note_on_c, 14, 42, 0
16, 38340, Note_on_c, 14, 44, 76
16, 38399, Note_on_c, 14, 44, 0
16, 38400, Note_on_c, 14, 45, 76
16, 38579, Note_on_c, 14, 45, 0
16, 38580, Note_on_c, 14, 47, 76
16, 38639, Note_on_c, 14, 47, 0
16, 38640, Note_on_c, 14, 49, 76
16, 38819, Note_on_c, 14, 49, 0
16, 38820, Note_on_c, 14, 50, 76
16, 38879, Note_on_c, 14, 50, 0
16, 38880, Note_on_c, 14, 52, 76
16, 39119, Note_on_c, 14, 52, 0
16, 39120, Note_on_c, 14, 40, 76
16, 39359, Note_on_c, 14, 40, 0
16, 39360, Note_on_c, 14, 45, 76
16, 39839, Note_on_c, 14, 45, 0
16, 39840, Note_on_c, 14, 45, 76
16, 40139, Note_on_c, 14, 45, 0
16, 40140, Note_on_c, 14, 47, 76
16, 40199, Note_on_c, 14, 47, 0
16, 40200, Note_on_c, 14, 45, 76
16, 40259, Note_on_c, 14, 45, 0
16, 40260, Note_on_c, 14, 43, 76
16, 40319, Note_on_c, 14, 43, 0
16, 40320, Note_on_c, 14, 42, 76
16, 40619, Note_on_c, 14, 42, 0
16, 40620, Note_on_c, 14, 43, 76
16, 40679, Note_on_c, 14, 43, 0
16, 40680, Note_on_c, 14, 42, 76
16, 40739, Note_on_c, 14, 42, 0
16, 40740, Note_on_c, 14, 40, 76
16, 40799, Note_on_c, 14, 40, 0
16, 40800, Note_on_c, 14, 38, 76
16, 40979, Note_on_c, 14, 38, 0
16, 40980, Note_on_c, 14, 40, 76
16, 41039, Note_on_c, 14, 40, 0
16, 41040, Note_on_c, 14, 42, 76
16, 41219, Note_on_c, 14, 42, 0
16, 41220, Note_on_c, 14, 38, 76
16, 41279, Note_on_c, 14, 38, 0
16, 41280, Note_on_c, 14, 43, 76
16, 41759, Note_on_c, 14, 43, 0
16, 41760, Note_on_c, 14, 55, 76
16, 42239, Note_on_c, 14, 55, 0
16, 42240, Note_on_c, 14, 55, 76
16, 42539, Note_on_c, 14, 55, 0
16, 42540, Note_on_c, 14, 54, 76
16, 42599, Note_on_c, 14, 54, 0
16, 42600, Note_on_c, 14, 52, 76
16, 42659, Note_on_c, 14, 52, 0
16, 42660, Note_on_c, 14, 50, 76
16, 42719, Note_on_c, 14, 50, 0
16, 42720, Note_on_c, 14, 49, 76
16, 42899, Note_on_c, 14, 49, 0
16, 42900, Note_on_c, 14, 45, 76
16, 42959, Note_on_c, 14, 45, 0
16, 42960, Note_on_c, 14, 47, 76
16, 43139, Note_on_c, 14, 47, 0
16, 43140, Note_on_c, 14, 49, 76
16, 43199, Note_on_c, 14, 49, 0
16, 43200, Note_on_c, 14, 50, 76
16, 43379, Note_on_c, 14, 50, 0
16, 43380, Note_on_c, 14, 52, 76
16, 43439, Note_on_c, 14, 52, 0
16, 43440, Note_on_c, 14, 54, 76
16, 43619, Note_on_c, 14, 54, 0
16, 43620, Note_on_c, 14, 55, 76
16, 43679, Note_on_c, 14, 55, 0
16, 43680, Note_on_c, 14, 57, 76
16, 43739, Note_on_c, 14, 57, 0
16, 43740, Note_on_c, 14, 59, 76
16, 43799, Note_on_c, 14, 59, 0
16, 43800, Note_on_c, 14, 57, 76
16, 43859, Note_on_c, 14, 57, 0
16, 43860, Note_on_c, 14, 55, 76
16, 43919, Note_on_c, 14, 55, 0
16, 43920, Note_on_c, 14, 54, 76
16, 43979, Note_on_c, 14, 54, 0
16, 43980, Note_on_c, 14, 55, 76
16, 44039, Note_on_c, 14, 55, 0
16, 44040, Note_on_c, 14, 57, 76
16, 44099, Note_on_c, 14, 57, 0
16, 44100, Note_on_c, 14, 59, 76
16, 44159, Note_on_c, 14, 59, 0
16, 44160, Note_on_c, 14, 61, 76
16, 44219, Note_on_c, 14, 61, 0
16, 44220, Note_on_c, 14, 59, 76
16, 44279, Note_on_c, 14, 59, 0
16, 44280, Note_on_c, 14, 57, 76
16, 44339, Note_on_c, 14, 57, 0
16, 44340, Note_on_c, 14, 59, 76
16, 44399, Note_on_c, 14, 59, 0
16, 44400, Note_on_c, 14, 61, 76
16, 44459, Note_on_c, 14, 61, 0
16, 44460, Note_on_c, 14, 62, 76
16, 44519, Note_on_c, 14, 62, 0
16, 44520, Note_on_c, 14, 64, 76
16, 44579, Note_on_c, 14, 64, 0
16, 44580, Note_on_c, 14, 61, 76
16, 44639, Note_on_c, 14, 61, 0
16, 44640, Note_on_c, 14, 62, 76
16, 44879, Note_on_c, 14, 62, 0
16, 44880, Note_on_c, 14, 50, 76
16, 45119, Note_on_c, 14, 50, 0
16, 45120, Note_on_c, 14, 45, 76
16, 45359, Note_on_c, 14, 45, 0
16, 50520, Note_on_c, 14, 50, 76
16, 50579, Note_on_c, 14, 50, 0
16, 50580, Note_on_c, 14, 52, 76
16, 50639, Note_on_c, 14, 52, 0
16, 50640, Note_on_c, 14, 54, 76
16, 50759, Note_on_c, 14, 54, 0
16, 50760, Note_on_c, 14, 54, 76
16, 50819, Note_on_c, 14, 54, 0
16, 50820, Note_on_c, 14, 55, 76
16, 50879, Note_on_c, 14, 55, 0
16, 50880, Note_on_c, 14, 57, 76
16, 50999, Note_on_c, 14, 57, 0
16, 51000, Note_on_c, 14, 54, 76
16, 51059, Note_on_c, 14, 54, 0
16, 51060, Note_on_c, 14, 55, 76
16, 51119, Note_on_c, 14, 55, 0
16, 51120, Note_on_c, 14, 57, 76
16, 51239, Note_on_c, 14, 57, 0
16, 51240, Note_on_c, 14, 57, 76
16, 51299, Note_on_c, 14, 57, 0
16, 51300, Note_on_c, 14, 59, 76
16, 51359, Note_on_c, 14, 59, 0
16, 51360, Note_on_c, 14, 60, 76
16, 51479, Note_on_c, 14, 60, 0
16, 51480, Note_on_c, 14, 60, 76
16, 51539, Note_on_c, 14, 60, 0
16, 51540, Note_on_c, 14, 59, 76
16, 51599, Note_on_c, 14, 59, 0
16, 51600, Note_on_c, 14, 60, 76
16, 51719, Note_on_c, 14, 60, 0
16, 51720, Note_on_c, 14, 62, 76
16, 51779, Note_on_c, 14, 62, 0
16, 51780, Note_on_c, 14, 60, 76
16, 51839, Note_on_c, 14, 60, 0
16, 51840, Note_on_c, 14, 59, 76
16, 51959, Note_on_c, 14, 59, 0
16, 51960, Note_on_c, 14, 52, 76
16, 52019, Note_on_c, 14, 52, 0
16, 52020, Note_on_c, 14, 54, 76
16, 52079, Note_on_c, 14, 54, 0
16, 52080, Note_on_c, 14, 56, 76
16, 52199, Note_on_c, 14, 56, 0
16, 52200, Note_on_c, 14, 56, 76
16, 52259, Note_on_c, 14, 56, 0
16, 52260, Note_on_c, 14, 57, 76
16, 52319, Note_on_c, 14, 57, 0
16, 52320, Note_on_c, 14, 59, 76
16, 52439, Note_on_c, 14, 59, 0
16, 52440, Note_on_c, 14, 56, 76
16, 52499, Note_on_c, 14, 56, 0
16, 52500, Note_on_c, 14, 57, 76
16, 52559, Note_on_c, 14, 57, 0
16, 52560, Note_on_c, 14, 59, 76
16, 52679, Note_on_c, 14, 59, 0
16, 52680, Note_on_c, 14, 59, 76
16, 52739, Note_on_c, 14, 59, 0
16, 52740, Note_on_c, 14, 61, 76
16, 52799, Note_on_c, 14, 61, 0
16, 52800, Note_on_c, 14, 62, 76
16, 52919, Note_on_c, 14, 62, 0
16, 52920, Note_on_c, 14, 62, 76
16, 52979, Note_on_c, 14, 62, 0
16, 52980, Note_on_c, 14, 61, 76
16, 53039, Note_on_c, 14, 61, 0
16, 53040, Note_on_c, 14, 62, 76
16, 53159, Note_on_c, 14, 62, 0
16, 53160, Note_on_c, 14, 64, 76
16, 53219, Note_on_c, 14, 64, 0
16, 53220, Note_on_c, 14, 62, 76
16, 53279, Note_on_c, 14, 62, 0
16, 53280, Note_on_c, 14, 61, 76
16, 53399, Note_on_c, 14, 61, 0
16, 53400, Note_on_c, 14, 64, 76
16, 53519, Note_on_c, 14, 64, 0
16, 53520, Note_on_c, 14, 57, 76
16, 53639, Note_on_c, 14, 57, 0
16, 53640, Note_on_c, 14, 61, 76
16, 53879, Note_on_c, 14, 61, 0
16, 53880, Note_on_c, 14, 64, 76
16, 53999, Note_on_c, 14, 64, 0
16, 54000, Note_on_c, 14, 55, 76
16, 54119, Note_on_c, 14, 55, 0
16, 54120, Note_on_c, 14, 61, 76
16, 54359, Note_on_c, 14, 61, 0
16, 54360, Note_on_c, 14, 64, 76
16, 54479, Note_on_c, 14, 64, 0
16, 54480, Note_on_c, 14, 57, 76
16, 54599, Note_on_c, 14, 57, 0
16, 54600, Note_on_c, 14, 61, 76
16, 54719, Note_on_c, 14, 61, 0
16, 54720, Note_on_c, 14, 50, 76
16, 54839, Note_on_c, 14, 50, 0
16, 54840, Note_on_c, 14, 62, 76
16, 54959, Note_on_c, 14, 62, 0
16, 54960, Note_on_c, 14, 55, 76
16, 55079, Note_on_c, 14, 55, 0
16, 55080, Note_on_c, 14, 59, 76
16, 55199, Note_on_c, 14, 59, 0
16, 55200, Note_on_c, 14, 49, 76
16, 55319, Note_on_c, 14, 49, 0
16, 55320, Note_on_c, 14, 61, 76
16, 55439, Note_on_c, 14, 61, 0
16, 55440, Note_on_c, 14, 54, 76
16, 55559, Note_on_c, 14, 54, 0
16, 55560, Note_on_c, 14, 58, 76
16, 55679, Note_on_c, 14, 58, 0
16, 55680, Note_on_c, 14, 47, 76
16, 55799, Note_on_c, 14, 47, 0
16, 55800, Note_on_c, 14, 59, 76
16, 55919, Note_on_c, 14, 59, 0
16, 55920, Note_on_c, 14, 57, 76
16, 56039, Note_on_c, 14, 57, 0
16, 56040, Note_on_c, 14, 55, 76
16, 56159, Note_on_c, 14, 55, 0
16, 56160, Note_on_c, 14, 54, 76
16, 56279, Note_on_c, 14, 54, 0
16, 56280, Note_on_c, 14, 59, 76
16, 56399, Note_on_c, 14, 59, 0
16, 56400, Note_on_c, 14, 57, 76
16, 56519, Note_on_c, 14, 57, 0
16, 56520, Note_on_c, 14, 55, 76
16, 56639, Note_on_c, 14, 55, 0
16, 56640, Note_on_c, 14, 54, 76
16, 56759, Note_on_c, 14, 54, 0
16, 56760, Note_on_c, 14, 57, 76
16, 56879, Note_on_c, 14, 57, 0
16, 56880, Note_on_c, 14, 50, 76
16, 56999, Note_on_c, 14, 50, 0
16, 57000, Note_on_c, 14, 54, 76
16, 57119, Note_on_c, 14, 54, 0
16, 57120, Note_on_c, 14, 43, 76
16, 57239, Note_on_c, 14, 43, 0
16, 57240, Note_on_c, 14, 55, 76
16, 57359, Note_on_c, 14, 55, 0
16, 57360, Note_on_c, 14, 49, 76
16, 57479, Note_on_c, 14, 49, 0
16, 57480, Note_on_c, 14, 52, 76
16, 57599, Note_on_c, 14, 52, 0
16, 57600, Note_on_c, 14, 42, 76
16, 57719, Note_on_c, 14, 42, 0
16, 57720, Note_on_c, 14, 54, 76
16, 57839, Note_on_c, 14, 54, 0
16, 57840, Note_on_c, 14, 47, 76
16, 57959, Note_on_c, 14, 47, 0
16, 57960, Note_on_c, 14, 50, 76
16, 58079, Note_on_c, 14, 50, 0
16, 58080, Note_on_c, 14, 40, 76
16, 58199, Note_on_c, 14, 40, 0
16, 58200, Note_on_c, 14, 45, 76
16, 58319, Note_on_c, 14, 45, 0
16, 58320, Note_on_c, 14, 50, 76
16, 58439, Note_on_c, 14, 50, 0
16, 58440, Note_on_c, 14, 38, 76
16, 58559, Note_on_c, 14, 38, 0
16, 58560, Note_on_c, 14, 45, 76
16, 58679, Note_on_c, 14, 45, 0
16, 58680, Note_on_c, 14, 45, 76
16, 58739, Note_on_c, 14, 45, 0
16, 58740, Note_on_c, 14, 47, 76
16, 58799, Note_on_c, 14, 47, 0
16, 58800, Note_on_c, 14, 49, 76
16, 58919, Note_on_c, 14, 49, 0
16, 58920, Note_on_c, 14, 49, 76
16, 58979, Note_on_c, 14, 49, 0
16, 58980, Note_on_c, 14, 50, 76
16, 59039, Note_on_c, 14, 50, 0
16, 59040, Note_on_c, 14, 52, 76
16, 59159, Note_on_c, 14, 52, 0
16, 59160, Note_on_c, 14, 49, 76
16, 59219, Note_on_c, 14, 49, 0
16, 59220, Note_on_c, 14, 50, 76
16, 59279, Note_on_c, 14, 50, 0
16, 59280, Note_on_c, 14, 52, 76
16, 59399, Note_on_c, 14, 52, 0
16, 59400, Note_on_c, 14, 52, 76
16, 59459, Note_on_c, 14, 52, 0
16, 59460, Note_on_c, 14, 54, 76
16, 59519, Note_on_c, 14, 54, 0
16, 59520, Note_on_c, 14, 55, 76
16, 59639, Note_on_c, 14, 55, 0
16, 59640, Note_on_c, 14, 55, 76
16, 59699, Note_on_c, 14, 55, 0
16, 59700, Note_on_c, 14, 54, 76
16, 59759, Note_on_c, 14, 54, 0
16, 59760, Note_on_c, 14, 55, 76
16, 59879, Note_on_c, 14, 55, 0
16, 59880, Note_on_c, 14, 57, 76
16, 59939, Note_on_c, 14, 57, 0
16, 59940, Note_on_c, 14, 55, 76
16, 59999, Note_on_c, 14, 55, 0
16, 60000, Note_on_c, 14, 54, 76
16, 60119, Note_on_c, 14, 54, 0
16, 60120, Note_on_c, 14, 54, 76
16, 60179, Note_on_c, 14, 54, 0
16, 60180, Note_on_c, 14, 52, 76
16, 60239, Note_on_c, 14, 52, 0
16, 60240, Note_on_c, 14, 54, 76
16, 60359, Note_on_c, 14, 54, 0
16, 60360, Note_on_c, 14, 55, 76
16, 60419, Note_on_c, 14, 55, 0
16, 60420, Note_on_c, 14, 54, 76
16, 60479, Note_on_c, 14, 54, 0
16, 60480, Note_on_c, 14, 52, 76
16, 60599, Note_on_c, 14, 52, 0
16, 60600, Note_on_c, 14, 52, 76
16, 60659, Note_on_c, 14, 52, 0
16, 60660, Note_on_c, 14, 50, 76
16, 60719, Note_on_c, 14, 50, 0
16, 60720, Note_on_c, 14, 52, 76
16, 60839, Note_on_c, 14, 52, 0
16, 60840, Note_on_c, 14, 54, 76
16, 60899, Note_on_c, 14, 54, 0
16, 60900, Note_on_c, 14, 52, 76
16, 60959, Note_on_c, 14, 52, 0
16, 60960, Note_on_c, 14, 50, 76
16, 61019, Note_on_c, 14, 50, 0
16, 61020, Note_on_c, 14, 52, 76
16, 61079, Note_on_c, 14, 52, 0
16, 61080, Note_on_c, 14, 54, 76
16, 61139, Note_on_c, 14, 54, 0
16, 61140, Note_on_c, 14, 50, 76
16, 61199, Note_on_c, 14, 50, 0
16, 61200, Note_on_c, 14, 55, 76
16, 61259, Note_on_c, 14, 55, 0
16, 61260, Note_on_c, 14, 57, 76
16, 61319, Note_on_c, 14, 57, 0
16, 61320, Note_on_c, 14, 54, 76
16, 61379, Note_on_c, 14, 54, 0
16, 61380, Note_on_c, 14, 55, 76
16, 61439, Note_on_c, 14, 55, 0
16, 61440, Note_on_c, 14, 57, 76
16, 61559, Note_on_c, 14, 57, 0
16, 61560, Note_on_c, 14, 55, 76
16, 61679, Note_on_c, 14, 55, 0
16, 61680, Note_on_c, 14, 54, 76
16, 61799, Note_on_c, 14, 54, 0
16, 61800, Note_on_c, 14, 52, 76
16, 61919, Note_on_c, 14, 52, 0
16, 61920, Note_on_c, 14, 50, 76
16, 62039, Note_on_c, 14, 50, 0
16, 62040, Note_on_c, 14, 55, 76
16, 62159, Note_on_c, 14, 55, 0
16, 62160, Note_on_c, 14, 57, 76
16, 62279, Note_on_c, 14, 57, 0
16, 62280, Note_on_c, 14, 45, 76
16, 62399, Note_on_c, 14, 45, 0
16, 62400, Note_on_c, 14, 50, 76
16, 62639, Note_on_c, 14, 50, 0
16, 62760, Note_on_c, 14, 49, 76
16, 62879, Note_on_c, 14, 49, 0
16, 62880, Note_on_c, 14, 50, 76
16, 62999, Note_on_c, 14, 50, 0
16, 63000, Note_on_c, 14, 47, 76
16, 63119, Note_on_c, 14, 47, 0
16, 63120, Note_on_c, 14, 43, 76
16, 63239, Note_on_c, 14, 43, 0
16, 63240, Note_on_c, 14, 45, 76
16, 63359, Note_on_c, 14, 45, 0
16, 63360, Note_on_c, 14, 38, 76
16, 63599, Note_on_c, 14, 38, 0
16, 63720, Note_on_c, 14, 50, 76
16, 63839, Note_on_c, 14, 50, 0
16, 63840, Note_on_c, 14, 49, 76
16, 63959, Note_on_c, 14, 49, 0
16, 63960, Note_on_c, 14, 54, 76
16, 64079, Note_on_c, 14, 54, 0
16, 64080, Note_on_c, 14, 50, 76
16, 64199, Note_on_c, 14, 50, 0
16, 64200, Note_on_c, 14, 52, 76
16, 64319, Note_on_c, 14, 52, 0
16, 64320, Note_on_c, 14, 45, 76
16, 64439, Note_on_c, 14, 45, 0
16, 64440, Note_on_c, 14, 57, 76
16, 64559, Note_on_c, 14, 57, 0
16, 64560, Note_on_c, 14, 57, 76
16, 64679, Note_on_c, 14, 57, 0
16, 64680, Note_on_c, 14, 57, 76
16, 64799, Note_on_c, 14, 57, 0
16, 64920, Note_on_c, 14, 55, 76
16, 65039, Note_on_c, 14, 55, 0
16, 65040, Note_on_c, 14, 55, 76
16, 65159, Note_on_c, 14, 55, 0
16, 65160, Note_on_c, 14, 55, 76
16, 65279, Note_on_c, 14, 55, 0
16, 65400, Note_on_c, 14, 54, 76
16, 65519, Note_on_c, 14, 54, 0
16, 65520, Note_on_c, 14, 54, 76
16, 65639, Note_on_c, 14, 54, 0
16, 65640, Note_on_c, 14, 54, 76
16, 65759, Note_on_c, 14, 54, 0
16, 65880, Note_on_c, 14, 42, 76
16, 65999, Note_on_c, 14, 42, 0
16, 66000, Note_on_c, 14, 42, 76
16, 66119, Note_on_c, 14, 42, 0
16, 66120, Note_on_c, 14, 42, 76
16, 66239, Note_on_c, 14, 42, 0
16, 66360, Note_on_c, 14, 47, 76
16, 66479, Note_on_c, 14, 47, 0
16, 66480, Note_on_c, 14, 47, 76
16, 66599, Note_on_c, 14, 47, 0
16, 66600, Note_on_c, 14, 47, 76
16, 66719, Note_on_c, 14, 47, 0
16, 66840, Note_on_c, 14, 54, 76
16, 66959, Note_on_c, 14, 54, 0
16, 66960, Note_on_c, 14, 54, 76
16, 67079, Note_on_c, 14, 54, 0
16, 67080, Note_on_c, 14, 54, 76
16, 67199, Note_on_c, 14, 54, 0
16, 67320, Note_on_c, 14, 51, 76
16, 67439, Note_on_c, 14, 51, 0
16, 67440, Note_on_c, 14, 51, 76
16, 67559, Note_on_c, 14, 51, 0
16, 67560, Note_on_c, 14, 51, 76
16, 67679, Note_on_c, 14, 51, 0
16, 67800, Note_on_c, 14, 47, 76
16, 67919, Note_on_c, 14, 47, 0
16, 67920, Note_on_c, 14, 47, 76
16, 68039, Note_on_c, 14, 47, 0
16, 68040, Note_on_c, 14, 47, 76
16, 68159, Note_on_c, 14, 47, 0
16, 68160, Note_on_c, 14, 52, 76
16, 68279, Note_on_c, 14, 52, 0
16, 68280, Note_on_c, 14, 64, 76
16, 68399, Note_on_c, 14, 64, 0
16, 68400, Note_on_c, 14, 57, 76
16, 68519, Note_on_c, 14, 57, 0
16, 68520, Note_on_c, 14, 61, 76
16, 68639, Note_on_c, 14, 61, 0
16, 68640, Note_on_c, 14, 50, 76
16, 68759, Note_on_c, 14, 50, 0
16, 68760, Note_on_c, 14, 62, 76
16, 68879, Note_on_c, 14, 62, 0
16, 68880, Note_on_c, 14, 55, 76
16, 68999, Note_on_c, 14, 55, 0
16, 69000, Note_on_c, 14, 59, 76
16, 69119, Note_on_c, 14, 59, 0
16, 69120, Note_on_c, 14, 49, 76
16, 69239, Note_on_c, 14, 49, 0
16, 69240, Note_on_c, 14, 61, 76
16, 69359, Note_on_c, 14, 61, 0
16, 69360, Note_on_c, 14, 54, 76
16, 69479, Note_on_c, 14, 54, 0
16, 69480, Note_on_c, 14, 58, 76
16, 69599, Note_on_c, 14, 58, 0
16, 69600, Note_on_c, 14, 47, 76
16, 69719, Note_on_c, 14, 47, 0
16, 69720, Note_on_c, 14, 59, 76
16, 69839, Note_on_c, 14, 59, 0
16, 69840, Note_on_c, 14, 55, 76
16, 69959, Note_on_c, 14, 55, 0
16, 69960, Note_on_c, 14, 52, 76
16, 70079, Note_on_c, 14, 52, 0
16, 70080, Note_on_c, 14, 54, 76
16, 70319, Note_on_c, 14, 54, 0
16, 70560, Note_on_c, 14, 42, 76
16, 70799, Note_on_c, 14, 42, 0
16, 71160, Note_on_c, 14, 54, 76
16, 71279, Note_on_c, 14, 54, 0
16, 71280, Note_on_c, 14, 58, 76
16, 71399, Note_on_c, 14, 58, 0
16, 71400, Note_on_c, 14, 54, 76
16, 71519, Note_on_c, 14, 54, 0
16, 71520, Note_on_c, 14, 59, 76
16, 71759, Note_on_c, 14, 59, 0
16, 72000, Note_on_c, 14, 47, 76
16, 72239, Note_on_c, 14, 47, 0
16, 72600, Note_on_c, 14, 59, 76
16, 72719, Note_on_c, 14, 59, 0
16, 72720, Note_on_c, 14, 47, 76
16, 72839, Note_on_c, 14, 47, 0
16, 72840, Note_on_c, 14, 51, 76
16, 72959, Note_on_c, 14, 51, 0
16, 72960, Note_on_c, 14, 52, 76
16, 73199, Note_on_c, 14, 52, 0
16, 73440, Note_on_c, 14, 40, 76
16, 73679, Note_on_c, 14, 40, 0
16, 74040, Note_on_c, 14, 52, 76
16, 74159, Note_on_c, 14, 52, 0
16, 74160, Note_on_c, 14, 56, 76
16, 74279, Note_on_c, 14, 56, 0
16, 74280, Note_on_c, 14, 52, 76
16, 74399, Note_on_c, 14, 52, 0
16, 74400, Note_on_c, 14, 57, 76
16, 74639, Note_on_c, 14, 57, 0
16, 74880, Note_on_c, 14, 45, 76
16, 75119, Note_on_c, 14, 45, 0
16, 75480, Note_on_c, 14, 57, 76
16, 75599, Note_on_c, 14, 57, 0
16, 75600, Note_on_c, 14, 45, 76
16, 75719, Note_on_c, 14, 45, 0
16, 75720, Note_on_c, 14, 49, 76
16, 75839, Note_on_c, 14, 49, 0
16, 75840, Note_on_c, 14, 50, 76
16, 75959, Note_on_c, 14, 50, 0
16, 75960, Note_on_c, 14, 49, 76
16, 76079, Note_on_c, 14, 49, 0
16, 76080, Note_on_c, 14, 50, 76
16, 76199, Note_on_c, 14, 50, 0
16, 76200, Note_on_c, 14, 52, 76
16, 76319, Note_on_c, 14, 52, 0
16, 76320, Note_on_c, 14, 54, 76
16, 76439, Note_on_c, 14, 54, 0
16, 76440, Note_on_c, 14, 52, 76
16, 76559, Note_on_c, 14, 52, 0
16, 76560, Note_on_c, 14, 54, 76
16, 76679, Note_on_c, 14, 54, 0
16, 76680, Note_on_c, 14, 56, 76
16, 76799, Note_on_c, 14, 56, 0
16, 76800, Note_on_c, 14, 57, 76
16, 76919, Note_on_c, 14, 57, 0
16, 76920, Note_on_c, 14, 56, 76
16, 77039, Note_on_c, 14, 56, 0
16, 77040, Note_on_c, 14, 57, 76
16, 77159, Note_on_c, 14, 57, 0
16, 77160, Note_on_c, 14, 54, 76
16, 77279, Note_on_c, 14, 54, 0
16, 77280, Note_on_c, 14, 49, 76
16, 77399, Note_on_c, 14, 49, 0
16, 77400, Note_on_c, 14, 50, 76
16, 77519, Note_on_c, 14, 50, 0
16, 77520, Note_on_c, 14, 52, 76
16, 77639, Note_on_c, 14, 52, 0
16, 77640, Note_on_c, 14, 40, 76
16, 77759, Note_on_c, 14, 40, 0
16, 77760, Note_on_c, 14, 45, 76
16, 77879, Note_on_c, 14, 45, 0
16, 77880, Note_on_c, 14, 45, 76
16, 77939, Note_on_c, 14, 45, 0
16, 77940, Note_on_c, 14, 47, 76
16, 77999, Note_on_c, 14, 47, 0
16, 78000, Note_on_c, 14, 49, 76
16, 78119, Note_on_c, 14, 49, 0
16, 78120, Note_on_c, 14, 49, 76
16, 78179, Note_on_c, 14, 49, 0
16, 78180, Note_on_c, 14, 50, 76
16, 78239, Note_on_c, 14, 50, 0
16, 78240, Note_on_c, 14, 52, 76
16, 78359, Note_on_c, 14, 52, 0
16, 78360, Note_on_c, 14, 49, 76
16, 78419, Note_on_c, 14, 49, 0
16, 78420, Note_on_c, 14, 50, 76
16, 78479, Note_on_c, 14, 50, 0
16, 78480, Note_on_c, 14, 52, 76
16, 78599, Note_on_c, 14, 52, 0
16, 78600, Note_on_c, 14, 52, 76
16, 78659, Note_on_c, 14, 52, 0
16, 78660, Note_on_c, 14, 54, 76
16, 78719, Note_on_c, 14, 54, 0
16, 78720, Note_on_c, 14, 55, 76
16, 78839, Note_on_c, 14, 55, 0
16, 78840, Note_on_c, 14, 55, 76
16, 78899, Note_on_c, 14, 55, 0
16, 78900, Note_on_c, 14, 54, 76
16, 78959, Note_on_c, 14, 54, 0
16, 78960, Note_on_c, 14, 55, 76
16, 79079, Note_on_c, 14, 55, 0
16, 79080, Note_on_c, 14, 57, 76
16, 79139, Note_on_c, 14, 57, 0
16, 79140, Note_on_c, 14, 55, 76
16, 79199, Note_on_c, 14, 55, 0
16, 79200, Note_on_c, 14, 54, 76
16, 79319, Note_on_c, 14, 54, 0
16, 79320, Note_on_c, 14, 47, 76
16, 79379, Note_on_c, 14, 47, 0
16, 79380, Note_on_c, 14, 49, 76
16, 79439, Note_on_c, 14, 49, 0
16, 79440, Note_on_c, 14, 51, 76
16, 79559, Note_on_c, 14, 51, 0
16, 79560, Note_on_c, 14, 51, 76
16, 79619, Note_on_c, 14, 51, 0
16, 79620, Note_on_c, 14, 52, 76
16, 79679, Note_on_c, 14, 52, 0
16, 79680, Note_on_c, 14, 54, 76
16, 79799, Note_on_c, 14, 54, 0
16, 79800, Note_on_c, 14, 51, 76
16, 79859, Note_on_c, 14, 51, 0
16, 79860, Note_on_c, 14, 52, 76
16, 79919, Note_on_c, 14, 52, 0
16, 79920, Note_on_c, 14, 54, 76
16, 80039, Note_on_c, 14, 54, 0
16, 80040, Note_on_c, 14, 54, 76
16, 80099, Note_on_c, 14, 54, 0
16, 80100, Note_on_c, 14, 56, 76
16, 80159, Note_on_c, 14, 56, 0
16, 80160, Note_on_c, 14, 57, 76
16, 80279, Note_on_c, 14, 57, 0
16, 80280, Note_on_c, 14, 57, 76
16, 80339, Note_on_c, 14, 57, 0
16, 80340, Note_on_c, 14, 56, 76
16, 80399, Note_on_c, 14, 56, 0
16, 80400, Note_on_c, 14, 57, 76
16, 80519, Note_on_c, 14, 57, 0
16, 80520, Note_on_c, 14, 59, 76
16, 80579, Note_on_c, 14, 59, 0
16, 80580, Note_on_c, 14, 57, 76
16, 80639, Note_on_c, 14, 57, 0
16, 80640, Note_on_c, 14, 56, 76
16, 80759, Note_on_c, 14, 56, 0
16, 80760, Note_on_c, 14, 59, 76
16, 80879, Note_on_c, 14, 59, 0
16, 80880, Note_on_c, 14, 52, 76
16, 80999, Note_on_c, 14, 52, 0
16, 81000, Note_on_c, 14, 56, 76
16, 81239, Note_on_c, 14, 56, 0
16, 81240, Note_on_c, 14, 59, 76
16, 81359, Note_on_c, 14, 59, 0
16, 81360, Note_on_c, 14, 50, 76
16, 81479, Note_on_c, 14, 50, 0
16, 81480, Note_on_c, 14, 56, 76
16, 81719, Note_on_c, 14, 56, 0
16, 81720, Note_on_c, 14, 59, 76
16, 81839, Note_on_c, 14, 59, 0
16, 81840, Note_on_c, 14, 52, 76
16, 81959, Note_on_c, 14, 52, 0
16, 81960, Note_on_c, 14, 56, 76
16, 82079, Note_on_c, 14, 56, 0
16, 82080, Note_on_c, 14, 45, 76
16, 82199, Note_on_c, 14, 45, 0
16, 82200, Note_on_c, 14, 57, 76
16, 82319, Note_on_c, 14, 57, 0
16, 82320, Note_on_c, 14, 50, 76
16, 82439, Note_on_c, 14, 50, 0
16, 82440, Note_on_c, 14, 54, 76
16, 82559, Note_on_c, 14, 54, 0
16, 82560, Note_on_c, 14, 44, 76
16, 82679, Note_on_c, 14, 44, 0
16, 82680, Note_on_c, 14, 56, 76
16, 82799, Note_on_c, 14, 56, 0
16, 82800, Note_on_c, 14, 49, 76
16, 82919, Note_on_c, 14, 49, 0
16, 82920, Note_on_c, 14, 53, 76
16, 83039, Note_on_c, 14, 53, 0
16, 83040, Note_on_c, 14, 42, 76
16, 83159, Note_on_c, 14, 42, 0
16, 83160, Note_on_c, 14, 54, 76
16, 83279, Note_on_c, 14, 54, 0
16, 83280, Note_on_c, 14, 52, 76
16, 83399, Note_on_c, 14, 52, 0
16, 83400, Note_on_c, 14, 50, 76
16, 83519, Note_on_c, 14, 50, 0
16, 83520, Note_on_c, 14, 49, 76
16, 83639, Note_on_c, 14, 49, 0
16, 83640, Note_on_c, 14, 54, 76
16, 83759, Note_on_c, 14, 54, 0
16, 83760, Note_on_c, 14, 52, 76
16, 83879, Note_on_c, 14, 52, 0
16, 83880, Note_on_c, 14, 50, 76
16, 83999, Note_on_c, 14, 50, 0
16, 84000, Note_on_c, 14, 49, 76
16, 84119, Note_on_c, 14, 49, 0
16, 84120, Note_on_c, 14, 52, 76
16, 84239, Note_on_c, 14, 52, 0
16, 84240, Note_on_c, 14, 45, 76
16, 84359, Note_on_c, 14, 45, 0
16, 84360, Note_on_c, 14, 49, 76
16, 84479, Note_on_c, 14, 49, 0
16, 84480, Note_on_c, 14, 50, 76
16, 84599, Note_on_c, 14, 50, 0
16, 84600, Note_on_c, 14, 62, 76
16, 84719, Note_on_c, 14, 62, 0
16, 84720, Note_on_c, 14, 55, 76
16, 84839, Note_on_c, 14, 55, 0
16, 84840, Note_on_c, 14, 59, 76
16, 84959, Note_on_c, 14, 59, 0
16, 84960, Note_on_c, 14, 49, 76
16, 85079, Note_on_c, 14, 49, 0
16, 85080, Note_on_c, 14, 61, 76
16, 85199, Note_on_c, 14, 61, 0
16, 85200, Note_on_c, 14, 54, 76
16, 85319, Note_on_c, 14, 54, 0
16, 85320, Note_on_c, 14, 58, 76
16, 85439, Note_on_c, 14, 58, 0
16, 85440, Note_on_c, 14, 47, 76
16, 85559, Note_on_c, 14, 47, 0
16, 85560, Note_on_c, 14, 59, 76
16, 85679, Note_on_c, 14, 59, 0
16, 85680, Note_on_c, 14, 52, 76
16, 85799, Note_on_c, 14, 52, 0
16, 85800, Note_on_c, 14, 55, 76
16, 85919, Note_on_c, 14, 55, 0
16, 85920, Note_on_c, 14, 54, 76
16, 86039, Note_on_c, 14, 54, 0
16, 86040, Note_on_c, 14, 42, 76
16, 86099, Note_on_c, 14, 42, 0
16, 86100, Note_on_c, 14, 44, 76
16, 86159, Note_on_c, 14, 44, 0
16, 86160, Note_on_c, 14, 46, 76
16, 86279, Note_on_c, 14, 46, 0
16, 86280, Note_on_c, 14, 46, 76
16, 86339, Note_on_c, 14, 46, 0
16, 86340, Note_on_c, 14, 47, 76
16, 86399, Note_on_c, 14, 47, 0
16, 86400, Note_on_c, 14, 49, 76
16, 86519, Note_on_c, 14, 49, 0
16, 86520, Note_on_c, 14, 46, 76
16, 86579, Note_on_c, 14, 46, 0
16, 86580, Note_on_c, 14, 47, 76
16, 86639, Note_on_c, 14, 47, 0
16, 86640, Note_on_c, 14, 49, 76
16, 86759, Note_on_c, 14, 49, 0
16, 86760, Note_on_c, 14, 49, 76
16, 86819, Note_on_c, 14, 49, 0
16, 86820, Note_on_c, 14, 50, 76
16, 86879, Note_on_c, 14, 50, 0
16, 86880, Note_on_c, 14, 52, 76
16, 86999, Note_on_c, 14, 52, 0
16, 87000, Note_on_c, 14, 52, 76
16, 87059, Note_on_c, 14, 52, 0
16, 87060, Note_on_c, 14, 50, 76
16, 87119, Note_on_c, 14, 50, 0
16, 87120, Note_on_c, 14, 52, 76
16, 87239, Note_on_c, 14, 52, 0
16, 87240, Note_on_c, 14, 54, 76
16, 87299, Note_on_c, 14, 54, 0
16, 87300, Note_on_c, 14, 52, 76
16, 87359, Note_on_c, 14, 52, 0
16, 87360, Note_on_c, 14, 50, 76
16, 87479, Note_on_c, 14, 50, 0
16, 87480, Note_on_c, 14, 50, 76
16, 87539, Note_on_c, 14, 50, 0
16, 87540, Note_on_c, 14, 49, 76
16, 87599, Note_on_c, 14, 49, 0
16, 87600, Note_on_c, 14, 50, 76
16, 87719, Note_on_c, 14, 50, 0
16, 87720, Note_on_c, 14, 52, 76
16, 87779, Note_on_c, 14, 52, 0
16, 87780, Note_on_c, 14, 50, 76
16, 87839, Note_on_c, 14, 50, 0
16, 87840, Note_on_c, 14, 49, 76
16, 87959, Note_on_c, 14, 49, 0
16, 87960, Note_on_c, 14, 49, 76
16, 88019, Note_on_c, 14, 49, 0
16, 88020, Note_on_c, 14, 47, 76
16, 88079, Note_on_c, 14, 47, 0
16, 88080, Note_on_c, 14, 49, 76
16, 88199, Note_on_c, 14, 49, 0
16, 88200, Note_on_c, 14, 50, 76
16, 88259, Note_on_c, 14, 50, 0
16, 88260, Note_on_c, 14, 49, 76
16, 88319, Note_on_c, 14, 49, 0
16, 88320, Note_on_c, 14, 47, 76
16, 88379, Note_on_c, 14, 47, 0
16, 88380, Note_on_c, 14, 49, 76
16, 88439, Note_on_c, 14, 49, 0
16, 88440, Note_on_c, 14, 50, 76
16, 88499, Note_on_c, 14, 50, 0
16, 88500, Note_on_c, 14, 47, 76
16, 88559, Note_on_c, 14, 47, 0
16, 88560, Note_on_c, 14, 52, 76
16, 88619, Note_on_c, 14, 52, 0
16, 88620, Note_on_c, 14, 54, 76
16, 88679, Note_on_c, 14, 54, 0
16, 88680, Note_on_c, 14, 55, 76
16, 88739, Note_on_c, 14, 55, 0
16, 88740, Note_on_c, 14, 52, 76
16, 88799, Note_on_c, 14, 52, 0
16, 88800, Note_on_c, 14, 54, 76
16, 89039, Note_on_c, 14, 54, 0
16, 89160, Note_on_c, 14, 52, 76
16, 89279, Note_on_c, 14, 52, 0
16, 89280, Note_on_c, 14, 50, 76
16, 89399, Note_on_c, 14, 50, 0
16, 89400, Note_on_c, 14, 54, 76
16, 89519, Note_on_c, 14, 54, 0
16, 89520, Note_on_c, 14, 59, 76
16, 89639, Note_on_c, 14, 59, 0
16, 89640, Note_on_c, 14, 54, 76
16, 89759, Note_on_c, 14, 54, 0
16, 89760, Note_on_c, 14, 55, 76
16, 89879, Note_on_c, 14, 55, 0
16, 89880, Note_on_c, 14, 52, 76
16, 89999, Note_on_c, 14, 52, 0
16, 90000, Note_on_c, 14, 54, 76
16, 90119, Note_on_c, 14, 54, 0
16, 90120, Note_on_c, 14, 42, 76
16, 90239, Note_on_c, 14, 42, 0
16, 90240, Note_on_c, 14, 47, 76
16, 90479, Note_on_c, 14, 47, 0
16, 90600, Note_on_c, 14, 58, 76
16, 90719, Note_on_c, 14, 58, 0
16, 90720, Note_on_c, 14, 59, 76
16, 90839, Note_on_c, 14, 59, 0
16, 90840, Note_on_c, 14, 55, 76
16, 90959, Note_on_c, 14, 55, 0
16, 90960, Note_on_c, 14, 52, 76
16, 91079, Note_on_c, 14, 52, 0
16, 91080, Note_on_c, 14, 54, 76
16, 91199, Note_on_c, 14, 54, 0
16, 91200, Note_on_c, 14, 47, 76
16, 91439, Note_on_c, 14, 47, 0
16, 91560, Note_on_c, 14, 59, 76
16, 91679, Note_on_c, 14, 59, 0
16, 91680, Note_on_c, 14, 57, 76
16, 91799, Note_on_c, 14, 57, 0
16, 91800, Note_on_c, 14, 62, 76
16, 91919, Note_on_c, 14, 62, 0
16, 91920, Note_on_c, 14, 59, 76
16, 92039, Note_on_c, 14, 59, 0
16, 92040, Note_on_c, 14, 61, 76
16, 92159, Note_on_c, 14, 61, 0
16, 92160, Note_on_c, 14, 54, 76
16, 92279, Note_on_c, 14, 54, 0
16, 92280, Note_on_c, 14, 54, 76
16, 92399, Note_on_c, 14, 54, 0
16, 92400, Note_on_c, 14, 54, 76
16, 92519, Note_on_c, 14, 54, 0
16, 92520, Note_on_c, 14, 54, 76
16, 92639, Note_on_c, 14, 54, 0
16, 92760, Note_on_c, 14, 52, 76
16, 92879, Note_on_c, 14, 52, 0
16, 92880, Note_on_c, 14, 52, 76
16, 92999, Note_on_c, 14, 52, 0
16, 93000, Note_on_c, 14, 52, 76
16, 93119, Note_on_c, 14, 52, 0
16, 93240, Note_on_c, 14, 51, 76
16, 93359, Note_on_c, 14, 51, 0
16, 93360, Note_on_c, 14, 51, 76
16, 93479, Note_on_c, 14, 51, 0
16, 93480, Note_on_c, 14, 51, 76
16, 93599, Note_on_c, 14, 51, 0
16, 93720, Note_on_c, 14, 47, 76
16, 93839, Note_on_c, 14, 47, 0
16, 93840, Note_on_c, 14, 47, 76
16, 93959, Note_on_c, 14, 47, 0
16, 93960, Note_on_c, 14, 47, 76
16, 94079, Note_on_c, 14, 47, 0
16, 94200, Note_on_c, 14, 52, 76
16, 94319, Note_on_c, 14, 52, 0
16, 94320, Note_on_c, 14, 52, 76
16, 94439, Note_on_c, 14, 52, 0
16, 94440, Note_on_c, 14, 52, 76
16, 94559, Note_on_c, 14, 52, 0
16, 94680, Note_on_c, 14, 50, 76
16, 94799, Note_on_c, 14, 50, 0
16, 94800, Note_on_c, 14, 50, 76
16, 94919, Note_on_c, 14, 50, 0
16, 94920, Note_on_c, 14, 50, 76
16, 95039, Note_on_c, 14, 50, 0
16, 95160, Note_on_c, 14, 49, 76
16, 95279, Note_on_c, 14, 49, 0
16, 95280, Note_on_c, 14, 49, 76
16, 95399, Note_on_c, 14, 49, 0
16, 95400, Note_on_c, 14, 49, 76
16, 95519, Note_on_c, 14, 49, 0
16, 95640, Note_on_c, 14, 45, 76
16, 95759, Note_on_c, 14, 45, 0
16, 95760, Note_on_c, 14, 45, 76
16, 95879, Note_on_c, 14, 45, 0
16, 95880, Note_on_c, 14, 45, 76
16, 95999, Note_on_c, 14, 45, 0
16, 96000, Note_on_c, 14, 50, 76
16, 96119, Note_on_c, 14, 50, 0
16, 96120, Note_on_c, 14, 62, 76
16, 96239, Note_on_c, 14, 62, 0
16, 96240, Note_on_c, 14, 55, 76
16, 96359, Note_on_c, 14, 55, 0
16, 96360, Note_on_c, 14, 59, 76
16, 96479, Note_on_c, 14, 59, 0
16, 96480, Note_on_c, 14, 49, 76
16, 96599, Note_on_c, 14, 49, 0
16, 96600, Note_on_c, 14, 61, 76
16, 96719, Note_on_c, 14, 61, 0
16, 96720, Note_on_c, 14, 54, 76
16, 96839, Note_on_c, 14, 54, 0
16, 96840, Note_on_c, 14, 57, 76
16, 96959, Note_on_c, 14, 57, 0
16, 96960, Note_on_c, 14, 47, 76
16, 97079, Note_on_c, 14, 47, 0
16, 97080, Note_on_c, 14, 59, 76
16, 97199, Note_on_c, 14, 59, 0
16, 97200, Note_on_c, 14, 52, 76
16, 97319, Note_on_c, 14, 52, 0
16, 97320, Note_on_c, 14, 55, 76
16, 97439, Note_on_c, 14, 55, 0
16, 97440, Note_on_c, 14, 45, 76
16, 97919, Note_on_c, 14, 45, 0
16, 97920, Note_on_c, 14, 45, 76
16, 98879, Note_on_c, 14, 45, 0
16, 98880, Note_on_c, 14, 45, 76
16, 99479, Note_on_c, 14, 45, 0
16, 99480, Note_on_c, 14, 47, 76
16, 99599, Note_on_c, 14, 47, 0
16, 99600, Note_on_c, 14, 49, 76
16, 99719, Note_on_c, 14, 49, 0
16, 99720, Note_on_c, 14, 45, 76
16, 99839, Note_on_c, 14, 45, 0
16, 99840, Note_on_c, 14, 42, 76
16, 100079, Note_on_c, 14, 42, 0
16, 100320, Note_on_c, 14, 47, 76
16, 100559, Note_on_c, 14, 47, 0
16, 100920, Note_on_c, 14, 47, 76
16, 101039, Note_on_c, 14, 47, 0
16, 101040, Note_on_c, 14, 51, 76
16, 101159, Note_on_c, 14, 51, 0
16, 101160, Note_on_c, 14, 47, 76
16, 101279, Note_on_c, 14, 47, 0
16, 101280, Note_on_c, 14, 52, 76
16, 101519, Note_on_c, 14, 52, 0
16, 101760, Note_on_c, 14, 40, 76
16, 101999, Note_on_c, 14, 40, 0
16, 102360, Note_on_c, 14, 40, 76
16, 102479, Note_on_c, 14, 40, 0
16, 102480, Note_on_c, 14, 52, 76
16, 102599, Note_on_c, 14, 52, 0
16, 102600, Note_on_c, 14, 44, 76
16, 102719, Note_on_c, 14, 44, 0
16, 102720, Note_on_c, 14, 45, 76
16, 102959, Note_on_c, 14, 45, 0
16, 103200, Note_on_c, 14, 57, 76
16, 103439, Note_on_c, 14, 57, 0
16, 103800, Note_on_c, 14, 45, 76
16, 103919, Note_on_c, 14, 45, 0
16, 103920, Note_on_c, 14, 49, 76
16, 104039, Note_on_c, 14, 49, 0
16, 104040, Note_on_c, 14, 45, 76
16, 104159, Note_on_c, 14, 45, 0
16, 104160, Note_on_c, 14, 50, 76
16, 104399, Note_on_c, 14, 50, 0
16, 104640, Note_on_c, 14, 38, 76
16, 104879, Note_on_c, 14, 38, 0
16, 105240, Note_on_c, 14, 50, 76
16, 105359, Note_on_c, 14, 50, 0
16, 105360, Note_on_c, 14, 38, 76
16, 105479, Note_on_c, 14, 38, 0
16, 105480, Note_on_c, 14, 42, 76
16, 105599, Note_on_c, 14, 42, 0
16, 105600, Note_on_c, 14, 43, 76
16, 105719, Note_on_c, 14, 43, 0
16, 105720, Note_on_c, 14, 42, 76
16, 105839, Note_on_c, 14, 42, 0
16, 105840, Note_on_c, 14, 43, 76
16, 105959, Note_on_c, 14, 43, 0
16, 105960, Note_on_c, 14, 45, 76
16, 106079, Note_on_c, 14, 45, 0
16, 106080, Note_on_c, 14, 47, 76
16, 106199, Note_on_c, 14, 47, 0
16, 106200, Note_on_c, 14, 45, 76
16, 106319, Note_on_c, 14, 45, 0
16, 106320, Note_on_c, 14, 47, 76
16, 106439, Note_on_c, 14, 47, 0
16, 106440, Note_on_c, 14, 49, 76
16, 106559, Note_on_c, 14, 49, 0
16, 106560, Note_on_c, 14, 50, 76
16, 106679, Note_on_c, 14, 50, 0
16, 106680, Note_on_c, 14, 49, 76
16, 106799, Note_on_c, 14, 49, 0
16, 106800, Note_on_c, 14, 50, 76
16, 106919, Note_on_c, 14, 50, 0
16, 106920, Note_on_c, 14, 52, 76
16, 107039, Note_on_c, 14, 52, 0
16, 107040, Note_on_c, 14, 54, 76
16, 107159, Note_on_c, 14, 54, 0
16, 107160, Note_on_c, 14, 52, 76
16, 107279, Note_on_c, 14, 52, 0
16, 107280, Note_on_c, 14, 54, 76
16, 107399, Note_on_c, 14, 54, 0
16, 107400, Note_on_c, 14, 55, 76
16, 107519, Note_on_c, 14, 55, 0
16, 107520, Note_on_c, 14, 57, 76
16, 107639, Note_on_c, 14, 57, 0
16, 107640, Note_on_c, 14, 57, 76
16, 107759, Note_on_c, 14, 57, 0
16, 107760, Note_on_c, 14, 57, 76
16, 107879, Note_on_c, 14, 57, 0
16, 107880, Note_on_c, 14, 57, 76
16, 107999, Note_on_c, 14, 57, 0
16, 108000, Note_on_c, 14, 57, 76
16, 108119, Note_on_c, 14, 57, 0
16, 108120, Note_on_c, 14, 57, 76
16, 108239, Note_on_c, 14, 57, 0
16, 108240, Note_on_c, 14, 57, 76
16, 108359, Note_on_c, 14, 57, 0
16, 108360, Note_on_c, 14, 57, 76
16, 108479, Note_on_c, 14, 57, 0
16, 108480, Note_on_c, 14, 57, 76
16, 108599, Note_on_c, 14, 57, 0
16, 108600, Note_on_c, 14, 52, 76
16, 108719, Note_on_c, 14, 52, 0
16, 108720, Note_on_c, 14, 49, 76
16, 108839, Note_on_c, 14, 49, 0
16, 108840, Note_on_c, 14, 45, 76
16, 108959, Note_on_c, 14, 45, 0
16, 108960, Note_on_c, 14, 50, 76
16, 109079, Note_on_c, 14, 50, 0
16, 109080, Note_on_c, 14, 62, 76
16, 109199, Note_on_c, 14, 62, 0
16, 109200, Note_on_c, 14, 62, 76
16, 109319, Note_on_c, 14, 62, 0
16, 109320, Note_on_c, 14, 62, 76
16, 109439, Note_on_c, 14, 62, 0
16, 109440, Note_on_c, 14, 62, 76
16, 109559, Note_on_c, 14, 62, 0
16, 109560, Note_on_c, 14, 62, 76
16, 109679, Note_on_c, 14, 62, 0
16, 109680, Note_on_c, 14, 62, 76
16, 109799, Note_on_c, 14, 62, 0
16, 109800, Note_on_c, 14, 62, 76
16, 109919, Note_on_c, 14, 62, 0
16, 109920, Note_on_c, 14, 62, 76
16, 110039, Note_on_c, 14, 62, 0
16, 110040, Note_on_c, 14, 57, 76
16, 110159, Note_on_c, 14, 57, 0
16, 110160, Note_on_c, 14, 54, 76
16, 110279, Note_on_c, 14, 54, 0
16, 110280, Note_on_c, 14, 50, 76
16, 110399, Note_on_c, 14, 50, 0
16, 110400, Note_on_c, 14, 55, 76
16, 110519, Note_on_c, 14, 55, 0
16, 110520, Note_on_c, 14, 64, 76
16, 110639, Note_on_c, 14, 64, 0
16, 110640, Note_on_c, 14, 64, 76
16, 110759, Note_on_c, 14, 64, 0
16, 110760, Note_on_c, 14, 64, 76
16, 110879, Note_on_c, 14, 64, 0
16, 110880, Note_on_c, 14, 64, 76
16, 110999, Note_on_c, 14, 64, 0
16, 111000, Note_on_c, 14, 59, 76
16, 111119, Note_on_c, 14, 59, 0
16, 111120, Note_on_c, 14, 56, 76
16, 111239, Note_on_c, 14, 56, 0
16, 111240, Note_on_c, 14, 52, 76
16, 111359, Note_on_c, 14, 52, 0
16, 111360, Note_on_c, 14, 57, 76
16, 111599, Note_on_c, 14, 57, 0
16, 111840, Note_on_c, 14, 45, 76
16, 112079, Note_on_c, 14, 45, 0
16, 112320, Note_on_c, 14, 57, 76
16, 112559, Note_on_c, 14, 57, 0
16, 112920, Note_on_c, 14, 50, 76
16, 112979, Note_on_c, 14, 50, 0
16, 112980, Note_on_c, 14, 52, 76
16, 113039, Note_on_c, 14, 52, 0
16, 113040, Note_on_c, 14, 54, 76
16, 113159, Note_on_c, 14, 54, 0
16, 113160, Note_on_c, 14, 54, 76
16, 113219, Note_on_c, 14, 54, 0
16, 113220, Note_on_c, 14, 55, 76
16, 113279, Note_on_c, 14, 55, 0
16, 113280, Note_on_c, 14, 57, 76
16, 113399, Note_on_c, 14, 57, 0
16, 113400, Note_on_c, 14, 54, 76
16, 113459, Note_on_c, 14, 54, 0
16, 113460, Note_on_c, 14, 55, 76
16, 113519, Note_on_c, 14, 55, 0
16, 113520, Note_on_c, 14, 57, 76
16, 113639, Note_on_c, 14, 57, 0
16, 113640, Note_on_c, 14, 57, 76
16, 113699, Note_on_c, 14, 57, 0
16, 113700, Note_on_c, 14, 59, 76
16, 113759, Note_on_c, 14, 59, 0
16, 113760, Note_on_c, 14, 60, 76
16, 113879, Note_on_c, 14, 60, 0
16, 113880, Note_on_c, 14, 60, 76
16, 113939, Note_on_c, 14, 60, 0
16, 113940, Note_on_c, 14, 59, 76
16, 113999, Note_on_c, 14, 59, 0
16, 114000, Note_on_c, 14, 60, 76
16, 114119, Note_on_c, 14, 60, 0
16, 114120, Note_on_c, 14, 62, 76
16, 114179, Note_on_c, 14, 62, 0
16, 114180, Note_on_c, 14, 60, 76
16, 114239, Note_on_c, 14, 60, 0
16, 114240, Note_on_c, 14, 59, 76
16, 114359, Note_on_c, 14, 59, 0
16, 114360, Note_on_c, 14, 52, 76
16, 114419, Note_on_c, 14, 52, 0
16, 114420, Note_on_c, 14, 54, 76
16, 114479, Note_on_c, 14, 54, 0
16, 114480, Note_on_c, 14, 56, 76
16, 114599, Note_on_c, 14, 56, 0
16, 114600, Note_on_c, 14, 56, 76
16, 114659, Note_on_c, 14, 56, 0
16, 114660, Note_on_c, 14, 57, 76
16, 114719, Note_on_c, 14, 57, 0
16, 114720, Note_on_c, 14, 59, 76
16, 114839, Note_on_c, 14, 59, 0
16, 114840, Note_on_c, 14, 56, 76
16, 114899, Note_on_c, 14, 56, 0
16, 114900, Note_on_c, 14, 57, 76
16, 114959, Note_on_c, 14, 57, 0
16, 114960, Note_on_c, 14, 59, 76
16, 115079, Note_on_c, 14, 59, 0
16, 115080, Note_on_c, 14, 59, 76
16, 115139, Note_on_c, 14, 59, 0
16, 115140, Note_on_c, 14, 61, 76
16, 115199, Note_on_c, 14, 61, 0
16, 115200, Note_on_c, 14, 62, 76
16, 115319, Note_on_c, 14, 62, 0
16, 115320, Note_on_c, 14, 62, 76
16, 115379, Note_on_c, 14, 62, 0
16, 115380, Note_on_c, 14, 61, 76
16, 115439, Note_on_c, 14, 61, 0
16, 115440, Note_on_c, 14, 62, 76
16, 115559, Note_on_c, 14, 62, 0
16, 115560, Note_on_c, 14, 64, 76
16, 115619, Note_on_c, 14, 64, 0
16, 115620, Note_on_c, 14, 62, 76
16, 115679, Note_on_c, 14, 62, 0
16, 115680, Note_on_c, 14, 61, 76
16, 115799, Note_on_c, 14, 61, 0
16, 115800, Note_on_c, 14, 64, 76
16, 115919, Note_on_c, 14, 64, 0
16, 115920, Note_on_c, 14, 57, 76
16, 116039, Note_on_c, 14, 57, 0
16, 116040, Note_on_c, 14, 61, 76
16, 116279, Note_on_c, 14, 61, 0
16, 116280, Note_on_c, 14, 64, 76
16, 116399, Note_on_c, 14, 64, 0
16, 116400, Note_on_c, 14, 55, 76
16, 116519, Note_on_c, 14, 55, 0
16, 116520, Note_on_c, 14, 61, 76
16, 116759, Note_on_c, 14, 61, 0
16, 116760, Note_on_c, 14, 64, 76
16, 116879, Note_on_c, 14, 64, 0
16, 116880, Note_on_c, 14, 57, 76
16, 116999, Note_on_c, 14, 57, 0
16, 117000, Note_on_c, 14, 61, 76
16, 117119, Note_on_c, 14, 61, 0
16, 117120, Note_on_c, 14, 50, 76
16, 117239, Note_on_c, 14, 50, 0
16, 117240, Note_on_c, 14, 62, 76
16, 117359, Note_on_c, 14, 62, 0
16, 117360, Note_on_c, 14, 55, 76
16, 117479, Note_on_c, 14, 55, 0
16, 117480, Note_on_c, 14, 59, 76
16, 117599, Note_on_c, 14, 59, 0
16, 117600, Note_on_c, 14, 49, 76
16, 117719, Note_on_c, 14, 49, 0
16, 117720, Note_on_c, 14, 61, 76
16, 117839, Note_on_c, 14, 61, 0
16, 117840, Note_on_c, 14, 54, 76
16, 117959, Note_on_c, 14, 54, 0
16, 117960, Note_on_c, 14, 58, 76
16, 118079, Note_on_c, 14, 58, 0
16, 118080, Note_on_c, 14, 47, 76
16, 118199, Note_on_c, 14, 47, 0
16, 118200, Note_on_c, 14, 59, 76
16, 118319, Note_on_c, 14, 59, 0
16, 118320, Note_on_c, 14, 57, 76
16, 118439, Note_on_c, 14, 57, 0
16, 118440, Note_on_c, 14, 55, 76
16, 118559, Note_on_c, 14, 55, 0
16, 118560, Note_on_c, 14, 54, 76
16, 118679, Note_on_c, 14, 54, 0
16, 118680, Note_on_c, 14, 59, 76
16, 118799, Note_on_c, 14, 59, 0
16, 118800, Note_on_c, 14, 57, 76
16, 118919, Note_on_c, 14, 57, 0
16, 118920, Note_on_c, 14, 55, 76
16, 119039, Note_on_c, 14, 55, 0
16, 119040, Note_on_c, 14, 54, 76
16, 119159, Note_on_c, 14, 54, 0
16, 119160, Note_on_c, 14, 57, 76
16, 119279, Note_on_c, 14, 57, 0
16, 119280, Note_on_c, 14, 50, 76
16, 119399, Note_on_c, 14, 50, 0
16, 119400, Note_on_c, 14, 54, 76
16, 119519, Note_on_c, 14, 54, 0
16, 119520, Note_on_c, 14, 43, 76
16, 119639, Note_on_c, 14, 43, 0
16, 119640, Note_on_c, 14, 55, 76
16, 119759, Note_on_c, 14, 55, 0
16, 119760, Note_on_c, 14, 49, 76
16, 119879, Note_on_c, 14, 49, 0
16, 119880, Note_on_c, 14, 52, 76
16, 119999, Note_on_c, 14, 52, 0
16, 120000, Note_on_c, 14, 42, 76
16, 120119, Note_on_c, 14, 42, 0
16, 120120, Note_on_c, 14, 54, 76
16, 120239, Note_on_c, 14, 54, 0
16, 120240, Note_on_c, 14, 47, 76
16, 120359, Note_on_c, 14, 47, 0
16, 120360, Note_on_c, 14, 50, 76
16, 120479, Note_on_c, 14, 50, 0
16, 120480, Note_on_c, 14, 40, 76
16, 120599, Note_on_c, 14, 40, 0
16, 120600, Note_on_c, 14, 45, 76
16, 120719, Note_on_c, 14, 45, 0
16, 120720, Note_on_c, 14, 50, 76
16, 120839, Note_on_c, 14, 50, 0
16, 120840, Note_on_c, 14, 38, 76
16, 120959, Note_on_c, 14, 38, 0
16, 120960, Note_on_c, 14, 45, 76
16, 121079, Note_on_c, 14, 45, 0
16, 121080, Note_on_c, 14, 45, 76
16, 121139, Note_on_c, 14, 45, 0
16, 121140, Note_on_c, 14, 47, 76
16, 121199, Note_on_c, 14, 47, 0
16, 121200, Note_on_c, 14, 49, 76
16, 121319, Note_on_c, 14, 49, 0
16, 121320, Note_on_c, 14, 49, 76
16, 121379, Note_on_c, 14, 49, 0
16, 121380, Note_on_c, 14, 50, 76
16, 121439, Note_on_c, 14, 50, 0
16, 121440, Note_on_c, 14, 52, 76
16, 121559, Note_on_c, 14, 52, 0
16, 121560, Note_on_c, 14, 49, 76
16, 121619, Note_on_c, 14, 49, 0
16, 121620, Note_on_c, 14, 50, 76
16, 121679, Note_on_c, 14, 50, 0
16, 121680, Note_on_c, 14, 52, 76
16, 121799, Note_on_c, 14, 52, 0
16, 121800, Note_on_c, 14, 52, 76
16, 121859, Note_on_c, 14, 52, 0
16, 121860, Note_on_c, 14, 54, 76
16, 121919, Note_on_c, 14, 54, 0
16, 121920, Note_on_c, 14, 55, 76
16, 122039, Note_on_c, 14, 55, 0
16, 122040, Note_on_c, 14, 55, 76
16, 122099, Note_on_c, 14, 55, 0
16, 122100, Note_on_c, 14, 54, 76
16, 122159, Note_on_c, 14, 54, 0
16, 122160, Note_on_c, 14, 55, 76
16, 122279, Note_on_c, 14, 55, 0
16, 122280, Note_on_c, 14, 57, 76
16, 122339, Note_on_c, 14, 57, 0
16, 122340, Note_on_c, 14, 55, 76
16, 122399, Note_on_c, 14, 55, 0
16, 122400, Note_on_c, 14, 54, 76
16, 122519, Note_on_c, 14, 54, 0
16, 122520, Note_on_c, 14, 54, 76
16, 122579, Note_on_c, 14, 54, 0
16, 122580, Note_on_c, 14, 52, 76
16, 122639, Note_on_c, 14, 52, 0
16, 122640, Note_on_c, 14, 54, 76
16, 122759, Note_on_c, 14, 54, 0
16, 122760, Note_on_c, 14, 55, 76
16, 122819, Note_on_c, 14, 55, 0
16, 122820, Note_on_c, 14, 54, 76
16, 122879, Note_on_c, 14, 54, 0
16, 122880, Note_on_c, 14, 52, 76
16, 122999, Note_on_c, 14, 52, 0
16, 123000, Note_on_c, 14, 52, 76
16, 123059, Note_on_c, 14, 52, 0
16, 123060, Note_on_c, 14, 50, 76
16, 123119, Note_on_c, 14, 50, 0
16, 123120, Note_on_c, 14, 52, 76
16, 123239, Note_on_c, 14, 52, 0
16, 123240, Note_on_c, 14, 54, 76
16, 123299, Note_on_c, 14, 54, 0
16, 123300, Note_on_c, 14, 52, 76
16, 123359, Note_on_c, 14, 52, 0
16, 123360, Note_on_c, 14, 50, 76
16, 123419, Note_on_c, 14, 50, 0
16, 123420, Note_on_c, 14, 52, 76
16, 123479, Note_on_c, 14, 52, 0
16, 123480, Note_on_c, 14, 54, 76
16, 123539, Note_on_c, 14, 54, 0
16, 123540, Note_on_c, 14, 50, 76
16, 123599, Note_on_c, 14, 50, 0
16, 123600, Note_on_c, 14, 55, 76
16, 123659, Note_on_c, 14, 55, 0
16, 123660, Note_on_c, 14, 57, 76
16, 123719, Note_on_c, 14, 57, 0
16, 123720, Note_on_c, 14, 54, 76
16, 123779, Note_on_c, 14, 54, 0
16, 123780, Note_on_c, 14, 55, 76
16, 123839, Note_on_c, 14, 55, 0
16, 123840, Note_on_c, 14, 57, 76
16, 123959, Note_on_c, 14, 57, 0
16, 123960, Note_on_c, 14, 55, 76
16, 124079, Note_on_c, 14, 55, 0
16, 124080, Note_on_c, 14, 54, 76
16, 124199, Note_on_c, 14, 54, 0
16, 124200, Note_on_c, 14, 52, 76
16, 124319, Note_on_c, 14, 52, 0
16, 124320, Note_on_c, 14, 50, 76
16, 124439, Note_on_c, 14, 50, 0
16, 124440, Note_on_c, 14, 55, 76
16, 124559, Note_on_c, 14, 55, 0
16, 124560, Note_on_c, 14, 57, 76
16, 124679, Note_on_c, 14, 57, 0
16, 124680, Note_on_c, 14, 45, 76
16, 124799, Note_on_c, 14, 45, 0
16, 124800, Note_on_c, 14, 50, 76
16, 125759, Note_on_c, 14, 50, 0
16, 125760, Note_on_c, 14, 50, 76
16, 126719, Note_on_c, 14, 50, 0
16, 126720, Note_on_c, 14, 50, 76
16, 127019, Note_on_c, 14, 50, 0
16, 127020, Note_on_c, 14, 48, 76
16, 127079, Note_on_c, 14, 48, 0
16, 127080, Note_on_c, 14, 47, 76
16, 127139, Note_on_c, 14, 47, 0
16, 127140, Note_on_c, 14, 45, 76
16, 127199, Note_on_c, 14, 45, 0
16, 127200, Note_on_c, 14, 47, 76
16, 127379, Note_on_c, 14, 47, 0
16, 127380, Note_on_c, 14, 48, 76
16, 127439, Note_on_c, 14, 48, 0
16, 127440, Note_on_c, 14, 50, 76
16, 127619, Note_on_c, 14, 50, 0
16, 127620, Note_on_c, 14, 38, 76
16, 127679, Note_on_c, 14, 38, 0
16, 127680, Note_on_c, 14, 43, 76
16, 128159, Note_on_c, 14, 43, 0
16, 128160, Note_on_c, 14, 55, 76
16, 128639, Note_on_c, 14, 55, 0
16, 128640, Note_on_c, 14, 54, 76
16, 129179, Note_on_c, 14, 54, 0
16, 129180, Note_on_c, 14, 55, 76
16, 129239, Note_on_c, 14, 55, 0
16, 129240, Note_on_c, 14, 57, 76
16, 129299, Note_on_c, 14, 57, 0
16, 129300, Note_on_c, 14, 59, 76
16, 129359, Note_on_c, 14, 59, 0
16, 129360, Note_on_c, 14, 57, 76
16, 129419, Note_on_c, 14, 57, 0
16, 129420, Note_on_c, 14, 55, 76
16, 129479, Note_on_c, 14, 55, 0
16, 129480, Note_on_c, 14, 54, 76
16, 129539, Note_on_c, 14, 54, 0
16, 129540, Note_on_c, 14, 52, 76
16, 129599, Note_on_c, 14, 52, 0
16, 129600, Note_on_c, 14, 51, 76
16, 130259, Note_on_c, 14, 51, 0
16, 130260, Note_on_c, 14, 47, 76
16, 130319, Note_on_c, 14, 47, 0
16, 130320, Note_on_c, 14, 49, 76
16, 130499, Note_on_c, 14, 49, 0
16, 130500, Note_on_c, 14, 51, 76
16, 130559, Note_on_c, 14, 51, 0
16, 130560, Note_on_c, 14, 52, 76
16, 130739, Note_on_c, 14, 52, 0
16, 130740, Note_on_c, 14, 54, 76
16, 130799, Note_on_c, 14, 54, 0
16, 130800, Note_on_c, 14, 55, 76
16, 130979, Note_on_c, 14, 55, 0
16, 130980, Note_on_c, 14, 57, 76
16, 131039, Note_on_c, 14, 57, 0
16, 131040, Note_on_c, 14, 59, 76
16, 131219, Note_on_c, 14, 59, 0
16, 131220, Note_on_c, 14, 57, 76
16, 131249, Note_on_c, 14, 57, 0
16, 131250, Note_on_c, 14, 56, 76
16, 131279, Note_on_c, 14, 56, 0
16, 131280, Note_on_c, 14, 57, 76
16, 131459, Note_on_c, 14, 57, 0
16, 131460, Note_on_c, 14, 59, 76
16, 131519, Note_on_c, 14, 59, 0
16, 131520, Note_on_c, 14, 56, 76
16, 132059, Note_on_c, 14, 56, 0
16, 132060, Note_on_c, 14, 54, 76
16, 132119, Note_on_c, 14, 54, 0
16, 132120, Note_on_c, 14, 52, 76
16, 132179, Note_on_c, 14, 52, 0
16, 132180, Note_on_c, 14, 54, 76
16, 132239, Note_on_c, 14, 54, 0
16, 132240, Note_on_c, 14, 56, 76
16, 132299, Note_on_c, 14, 56, 0
16, 132300, Note_on_c, 14, 54, 76
16, 132359, Note_on_c, 14, 54, 0
16, 132360, Note_on_c, 14, 56, 76
16, 132419, Note_on_c, 14, 56, 0
16, 132420, Note_on_c, 14, 52, 76
16, 132479, Note_on_c, 14, 52, 0
16, 132480, Note_on_c, 14, 57, 76
16, 133019, Note_on_c, 14, 57, 0
16, 133020, Note_on_c, 14, 55, 76
16, 133079, Note_on_c, 14, 55, 0
16, 133080, Note_on_c, 14, 54, 76
16, 133139, Note_on_c, 14, 54, 0
16, 133140, Note_on_c, 14, 55, 76
16, 133199, Note_on_c, 14, 55, 0
16, 133200, Note_on_c, 14, 57, 76
16, 133259, Note_on_c, 14, 57, 0
16, 133260, Note_on_c, 14, 55, 76
16, 133319, Note_on_c, 14, 55, 0
16, 133320, Note_on_c, 14, 57, 76
16, 133379, Note_on_c, 14, 57, 0
16, 133380, Note_on_c, 14, 54, 76
16, 133439, Note_on_c, 14, 54, 0
16, 133440, Note_on_c, 14, 59, 76
16, 133979, Note_on_c, 14, 59, 0
16, 133980, Note_on_c, 14, 60, 76
16, 134039, Note_on_c, 14, 60, 0
16, 134040, Note_on_c, 14, 59, 76
16, 134099, Note_on_c, 14, 59, 0
16, 134100, Note_on_c, 14, 57, 76
16, 134159, Note_on_c, 14, 57, 0
16, 134160, Note_on_c, 14, 55, 76
16, 134219, Note_on_c, 14, 55, 0
16, 134220, Note_on_c, 14, 54, 76
16, 134279, Note_on_c, 14, 54, 0
16, 134280, Note_on_c, 14, 52, 76
16, 134339, Note_on_c, 14, 52, 0
16, 134340, Note_on_c, 14, 50, 76
16, 134399, Note_on_c, 14, 50, 0
16, 134400, Note_on_c, 14, 49, 76
16, 134939, Note_on_c, 14, 49, 0
16, 134940, Note_on_c, 14, 50, 76
16, 134999, Note_on_c, 14, 50, 0
16, 135000, Note_on_c, 14, 49, 76
16, 135059, Note_on_c, 14, 49, 0
16, 135060, Note_on_c, 14, 47, 76
16, 135119, Note_on_c, 14, 47, 0
16, 135120, Note_on_c, 14, 45, 76
16, 135179, Note_on_c, 14, 45, 0
16, 135180, Note_on_c, 14, 47, 76
16, 135239, Note_on_c, 14, 47, 0
16, 135240, Note_on_c, 14, 49, 76
16, 135299, Note_on_c, 14, 49, 0
16, 135300, Note_on_c, 14, 45, 76
16, 135359, Note_on_c, 14, 45, 0
16, 135360, Note_on_c, 14, 50, 76
16, 135899, Note_on_c, 14, 50, 0
16, 135900, Note_on_c, 14, 52, 76
16, 135959, Note_on_c, 14, 52, 0
16, 135960, Note_on_c, 14, 50, 76
16, 136019, Note_on_c, 14, 50, 0
16, 136020, Note_on_c, 14, 48, 76
16, 136079, Note_on_c, 14, 48, 0
16, 136080, Note_on_c, 14, 47, 76
16, 136139, Note_on_c, 14, 47, 0
16, 136140, Note_on_c, 14, 45, 76
16, 136199, Note_on_c, 14, 45, 0
16, 136200, Note_on_c, 14, 43, 76
16, 136259, Note_on_c, 14, 43, 0
16, 136260, Note_on_c, 14, 42, 76
16, 136319, Note_on_c, 14, 42, 0
16, 136320, Note_on_c, 14, 43, 76
16, 137279, Note_on_c, 14, 43, 0
16, 137280, Note_on_c, 14, 43, 76
16, 137579, Note_on_c, 14, 43, 0
16, 137580, Note_on_c, 14, 42, 76
16, 137639, Note_on_c, 14, 42, 0
16, 137640, Note_on_c, 14, 40, 76
16, 137699, Note_on_c, 14, 40, 0
16, 137700, Note_on_c, 14, 38, 76
16, 137759, Note_on_c, 14, 38, 0
16, 137760, Note_on_c, 14, 37, 76
16, 137939, Note_on_c, 14, 37, 0
16, 137940, Note_on_c, 14, 45, 76
16, 137999, Note_on_c, 14, 45, 0
16, 138000, Note_on_c, 14, 47, 76
16, 138179, Note_on_c, 14, 47, 0
16, 138180, Note_on_c, 14, 49, 76
16, 138239, Note_on_c, 14, 49, 0
16, 138240, Note_on_c, 14, 50, 76
16, 138419, Note_on_c, 14, 50, 0
16, 138420, Note_on_c, 14, 52, 76
16, 138479, Note_on_c, 14, 52, 0
16, 138480, Note_on_c, 14, 54, 76
16, 138659, Note_on_c, 14, 54, 0
16, 138660, Note_on_c, 14, 55, 76
16, 138719, Note_on_c, 14, 55, 0
16, 138720, Note_on_c, 14, 57, 76
16, 138959, Note_on_c, 14, 57, 0
16, 138960, Note_on_c, 14, 45, 76
16, 139199, Note_on_c, 14, 45, 0
16, 139200, Note_on_c, 14, 38, 76
16, 139439, Note_on_c, 14, 38, 0
16, 144600, Note_on_c, 14, 50, 76
16, 144659, Note_on_c, 14, 50, 0
16, 144660, Note_on_c, 14, 52, 76
16, 144719, Note_on_c, 14, 52, 0
16, 144720, Note_on_c, 14, 54, 76
16, 144839, Note_on_c, 14, 54, 0
16, 144840, Note_on_c, 14, 54, 76
16, 144899, Note_on_c, 14, 54, 0
16, 144900, Note_on_c, 14, 55, 76
16, 144959, Note_on_c, 14, 55, 0
16, 144960, Note_on_c, 14, 57, 76
16, 145079, Note_on_c, 14, 57, 0
16, 145080, Note_on_c, 14, 54, 76
16, 145139, Note_on_c, 14, 54, 0
16, 145140, Note_on_c, 14, 55, 76
16, 145199, Note_on_c, 14, 55, 0
16, 145200, Note_on_c, 14, 57, 76
16, 145319, Note_on_c, 14, 57, 0
16, 145320, Note_on_c, 14, 57, 76
16, 145379, Note_on_c, 14, 57, 0
16, 145380, Note_on_c, 14, 59, 76
16, 145439, Note_on_c, 14, 59, 0
16, 145440, Note_on_c, 14, 60, 76
16, 145559, Note_on_c, 14, 60, 0
16, 145560, Note_on_c, 14, 60, 76
16, 145619, Note_on_c, 14, 60, 0
16, 145620, Note_on_c, 14, 59, 76
16, 145679, Note_on_c, 14, 59, 0
16, 145680, Note_on_c, 14, 60, 76
16, 145799, Note_on_c, 14, 60, 0
16, 145800, Note_on_c, 14, 62, 76
16, 145859, Note_on_c, 14, 62, 0
16, 145860, Note_on_c, 14, 60, 76
16, 145919, Note_on_c, 14, 60, 0
16, 145920, Note_on_c, 14, 59, 76
16, 146039, Note_on_c, 14, 59, 0
16, 146040, Note_on_c, 14, 52, 76
16, 146099, Note_on_c, 14, 52, 0
16, 146100, Note_on_c, 14, 54, 76
16, 146159, Note_on_c, 14, 54, 0
16, 146160, Note_on_c, 14, 56, 76
16, 146279, Note_on_c, 14, 56, 0
16, 146280, Note_on_c, 14, 56, 76
16, 146339, Note_on_c, 14, 56, 0
16, 146340, Note_on_c, 14, 57, 76
16, 146399, Note_on_c, 14, 57, 0
16, 146400, Note_on_c, 14, 59, 76
16, 146519, Note_on_c, 14, 59, 0
16, 146520, Note_on_c, 14, 56, 76
16, 146579, Note_on_c, 14, 56, 0
16, 146580, Note_on_c, 14, 57, 76
16, 146639, Note_on_c, 14, 57, 0
16, 146640, Note_on_c, 14, 59, 76
16, 146759, Note_on_c, 14, 59, 0
16, 146760, Note_on_c, 14, 59, 76
16, 146819, Note_on_c, 14, 59, 0
16, 146820, Note_on_c, 14, 61, 76
16, 146879, Note_on_c, 14, 61, 0
16, 146880, Note_on_c, 14, 62, 76
16, 146999, Note_on_c, 14, 62, 0
16, 147000, Note_on_c, 14, 62, 76
16, 147059, Note_on_c, 14, 62, 0
16, 147060, Note_on_c, 14, 61, 76
16, 147119, Note_on_c, 14, 61, 0
16, 147120, Note_on_c, 14, 62, 76
16, 147239, Note_on_c, 14, 62, 0
16, 147240, Note_on_c, 14, 64, 76
16, 147299, Note_on_c, 14, 64, 0
16, 147300, Note_on_c, 14, 62, 76
16, 147359, Note_on_c, 14, 62, 0
16, 147360, Note_on_c, 14, 61, 76
16, 147479, Note_on_c, 14, 61, 0
16, 147480, Note_on_c, 14, 64, 76
16, 147599, Note_on_c, 14, 64, 0
16, 147600, Note_on_c, 14, 57, 76
16, 147719, Note_on_c, 14, 57, 0
16, 147720, Note_on_c, 14, 61, 76
16, 147959, Note_on_c, 14, 61, 0
16, 147960, Note_on_c, 14, 64, 76
16, 148079, Note_on_c, 14, 64, 0
16, 148080, Note_on_c, 14, 55, 76
16, 148199, Note_on_c, 14, 55, 0
16, 148200, Note_on_c, 14, 61, 76
16, 148439, Note_on_c, 14, 61, 0
16, 148440, Note_on_c, 14, 64, 76
16, 148559, Note_on_c, 14, 64, 0
16, 148560, Note_on_c, 14, 57, 76
16, 148679, Note_on_c, 14, 57, 0
16, 148680, Note_on_c, 14, 61, 76
16, 148799, Note_on_c, 14, 61, 0
16, 148800, Note_on_c, 14, 50, 76
16, 148919, Note_on_c, 14, 50, 0
16, 148920, Note_on_c, 14, 62, 76
16, 149039, Note_on_c, 14, 62, 0
16, 149040, Note_on_c, 14, 55, 76
16, 149159, Note_on_c, 14, 55, 0
16, 149160, Note_on_c, 14, 59, 76
16, 149279, Note_on_c, 14, 59, 0
16, 149280, Note_on_c, 14, 49, 76
16, 149399, Note_on_c, 14, 49, 0
16, 149400, Note_on_c, 14, 61, 76
16, 149519, Note_on_c, 14, 61, 0
16, 149520, Note_on_c, 14, 54, 76
16, 149639, Note_on_c, 14, 54, 0
16, 149640, Note_on_c, 14, 58, 76
16, 149759, Note_on_c, 14, 58, 0
16, 149760, Note_on_c, 14, 47, 76
16, 149879, Note_on_c, 14, 47, 0
16, 149880, Note_on_c, 14, 59, 76
16, 149999, Note_on_c, 14, 59, 0
16, 150000, Note_on_c, 14, 57, 76
16, 150119, Note_on_c, 14, 57, 0
16, 150120, Note_on_c, 14, 55, 76
16, 150239, Note_on_c, 14, 55, 0
16, 150240, Note_on_c, 14, 54, 76
16, 150359, Note_on_c, 14, 54, 0
16, 150360, Note_on_c, 14, 59, 76
16, 150479, Note_on_c, 14, 59, 0
16, 150480, Note_on_c, 14, 57, 76
16, 150599, Note_on_c, 14, 57, 0
16, 150600, Note_on_c, 14, 55, 76
16, 150719, Note_on_c, 14, 55, 0
16, 150720, Note_on_c, 14, 54, 76
16, 150839, Note_on_c, 14, 54, 0
16, 150840, Note_on_c, 14, 57, 76
16, 150959, Note_on_c, 14, 57, 0
16, 150960, Note_on_c, 14, 50, 76
16, 151079, Note_on_c, 14, 50, 0
16, 151080, Note_on_c, 14, 54, 76
16, 151199, Note_on_c, 14, 54, 0
16, 151200, Note_on_c, 14, 43, 76
16, 151319, Note_on_c, 14, 43, 0
16, 151320, Note_on_c, 14, 55, 76
16, 151439, Note_on_c, 14, 55, 0
16, 151440, Note_on_c, 14, 49, 76
16, 151559, Note_on_c, 14, 49, 0
16, 151560, Note_on_c, 14, 52, 76
16, 151679, Note_on_c, 14, 52, 0
16, 151680, Note_on_c, 14, 42, 76
16, 151799, Note_on_c, 14, 42, 0
16, 151800, Note_on_c, 14, 54, 76
16, 151919, Note_on_c, 14, 54, 0
16, 151920, Note_on_c, 14, 47, 76
16, 152039, Note_on_c, 14, 47, 0
16, 152040, Note_on_c, 14, 50, 76
16, 152159, Note_on_c, 14, 50, 0
16, 152160, Note_on_c, 14, 40, 76
16, 152279, Note_on_c, 14, 40, 0
16, 152280, Note_on_c, 14, 45, 76
16, 152399, Note_on_c, 14, 45, 0
16, 152400, Note_on_c, 14, 50, 76
16, 152519, Note_on_c, 14, 50, 0
16, 152520, Note_on_c, 14, 38, 76
16, 152639, Note_on_c, 14, 38, 0
16, 152640, Note_on_c, 14, 45, 76
16, 152759, Note_on_c, 14, 45, 0
16, 152760, Note_on_c, 14, 45, 76
16, 152819, Note_on_c, 14, 45, 0
16, 152820, Note_on_c, 14, 47, 76
16, 152879, Note_on_c, 14, 47, 0
16, 152880, Note_on_c, 14, 49, 76
16, 152999, Note_on_c, 14, 49, 0
16, 153000, Note_on_c, 14, 49, 76
16, 153059, Note_on_c, 14, 49, 0
16, 153060, Note_on_c, 14, 50, 76
16, 153119, Note_on_c, 14, 50, 0
16, 153120, Note_on_c, 14, 52, 76
16, 153239, Note_on_c, 14, 52, 0
16, 153240, Note_on_c, 14, 49, 76
16, 153299, Note_on_c, 14, 49, 0
16, 153300, Note_on_c, 14, 50, 76
16, 153359, Note_on_c, 14, 50, 0
16, 153360, Note_on_c, 14, 52, 76
16, 153479, Note_on_c, 14, 52, 0
16, 153480, Note_on_c, 14, 52, 76
16, 153539, Note_on_c, 14, 52, 0
16, 153540, Note_on_c, 14, 54, 76
16, 153599, Note_on_c, 14, 54, 0
16, 153600, Note_on_c, 14, 55, 76
16, 153719, Note_on_c, 14, 55, 0
16, 153720, Note_on_c, 14, 55, 76
16, 153779, Note_on_c, 14, 55, 0
16, 153780, Note_on_c, 14, 54, 76
16, 153839, Note_on_c, 14, 54, 0
16, 153840, Note_on_c, 14, 55, 76
16, 153959, Note_on_c, 14, 55, 0
16, 153960, Note_on_c, 14, 57, 76
16, 154019, Note_on_c, 14, 57, 0
16, 154020, Note_on_c, 14, 55, 76
16, 154079, Note_on_c, 14, 55, 0
16, 154080, Note_on_c, 14, 54, 76
16, 154199, Note_on_c, 14, 54, 0
16, 154200, Note_on_c, 14, 54, 76
16, 154259, Note_on_c, 14, 54, 0
16, 154260, Note_on_c, 14, 52, 76
16, 154319, Note_on_c, 14, 52, 0
16, 154320, Note_on_c, 14, 54, 76
16, 154439, Note_on_c, 14, 54, 0
16, 154440, Note_on_c, 14, 55, 76
16, 154499, Note_on_c, 14, 55, 0
16, 154500, Note_on_c, 14, 54, 76
16, 154559, Note_on_c, 14, 54, 0
16, 154560, Note_on_c, 14, 52, 76
16, 154679, Note_on_c, 14, 52, 0
16, 154680, Note_on_c, 14, 52, 76
16, 154739, Note_on_c, 14, 52, 0
16, 154740, Note_on_c, 14, 50, 76
16, 154799, Note_on_c, 14, 50, 0
16, 154800, Note_on_c, 14, 52, 76
16, 154919, Note_on_c, 14, 52, 0
16, 154920, Note_on_c, 14, 54, 76
16, 154979, Note_on_c, 14, 54, 0
16, 154980, Note_on_c, 14, 52, 76
16, 155039, Note_on_c, 14, 52, 0
16, 155040, Note_on_c, 14, 50, 76
16, 155099, Note_on_c, 14, 50, 0
16, 155100, Note_on_c, 14, 52, 76
16, 155159, Note_on_c, 14, 52, 0
16, 155160, Note_on_c, 14, 54, 76
16, 155219, Note_on_c, 14, 54, 0
16, 155220, Note_on_c, 14, 50, 76
16, 155279, Note_on_c, 14, 50, 0
16, 155280, Note_on_c, 14, 55, 76
16, 155339, Note_on_c, 14, 55, 0
16, 155340, Note_on_c, 14, 57, 76
16, 155399, Note_on_c, 14, 57, 0
16, 155400, Note_on_c, 14, 54, 76
16, 155459, Note_on_c, 14, 54, 0
16, 155460, Note_on_c, 14, 55, 76
16, 155519, Note_on_c, 14, 55, 0
16, 155520, Note_on_c, 14, 57, 76
16, 155639, Note_on_c, 14, 57, 0
16, 155640, Note_on_c, 14, 55, 76
16, 155759, Note_on_c, 14, 55, 0
16, 155760, Note_on_c, 14, 54, 76
16, 155879, Note_on_c, 14, 54, 0
16, 155880, Note_on_c, 14, 52, 76
16, 155999, Note_on_c, 14, 52, 0
16, 156000, Note_on_c, 14, 50, 76
16, 156119, Note_on_c, 14, 50, 0
16, 156120, Note_on_c, 14, 55, 76
16, 156239, Note_on_c, 14, 55, 0
16, 156240, Note_on_c, 14, 57, 76
16, 156359, Note_on_c, 14, 57, 0
16, 156360, Note_on_c, 14, 45, 76
16, 156479, Note_on_c, 14, 45, 0
16, 156480, Note_on_c, 14, 50, 76
16, 156719, Note_on_c, 14, 50, 0
16, 156840, Note_on_c, 14, 49, 76
16, 156959, Note_on_c, 14, 49, 0
16, 156960, Note_on_c, 14, 50, 76
16, 157079, Note_on_c, 14, 50, 0
16, 157080, Note_on_c, 14, 47, 76
16, 157199, Note_on_c, 14, 47, 0
16, 157200, Note_on_c, 14, 43, 76
16, 157319, Note_on_c, 14, 43, 0
16, 157320, Note_on_c, 14, 45, 76
16, 157439, Note_on_c, 14, 45, 0
16, 157440, Note_on_c, 14, 38, 76
16, 157679, Note_on_c, 14, 38, 0
16, 157800, Note_on_c, 14, 50, 76
16, 157919, Note_on_c, 14, 50, 0
16, 157920, Note_on_c, 14, 49, 76
16, 158039, Note_on_c, 14, 49, 0
16, 158040, Note_on_c, 14, 54, 76
16, 158159, Note_on_c, 14, 54, 0
16, 158160, Note_on_c, 14, 50, 76
16, 158279, Note_on_c, 14, 50, 0
16, 158280, Note_on_c, 14, 52, 76
16, 158399, Note_on_c, 14, 52, 0
16, 158400, Note_on_c, 14, 45, 76
16, 158519, Note_on_c, 14, 45, 0
16, 158520, Note_on_c, 14, 57, 76
16, 158639, Note_on_c, 14, 57, 0
16, 158640, Note_on_c, 14, 57, 76
16, 158759, Note_on_c, 14, 57, 0
16, 158760, Note_on_c, 14, 57, 76
16, 158879, Note_on_c, 14, 57, 0
16, 159000, Note_on_c, 14, 55, 76
16, 159119, Note_on_c, 14, 55, 0
16, 159120, Note_on_c, 14, 55, 76
16, 159239, Note_on_c, 14, 55, 0
16, 159240, Note_on_c, 14, 55, 76
16, 159359, Note_on_c, 14, 55, 0
16, 159480, Note_on_c, 14, 54, 76
16, 159599, Note_on_c, 14, 54, 0
16, 159600, Note_on_c, 14, 54, 76
16, 159719, Note_on_c, 14, 54, 0
16, 159720, Note_on_c, 14, 54, 76
16, 159839, Note_on_c, 14, 54, 0
16, 159960, Note_on_c, 14, 42, 76
16, 160079, Note_on_c, 14, 42, 0
16, 160080, Note_on_c, 14, 42, 76
16, 160199, Note_on_c, 14, 42, 0
16, 160200, Note_on_c, 14, 42, 76
16, 160319, Note_on_c, 14, 42, 0
16, 160440, Note_on_c, 14, 47, 76
16, 160559, Note_on_c, 14, 47, 0
16, 160560, Note_on_c, 14, 47, 76
16, 160679, Note_on_c, 14, 47, 0
16, 160680, Note_on_c, 14, 47, 76
16, 160799, Note_on_c, 14, 47, 0
16, 160920, Note_on_c, 14, 54, 76
16, 161039, Note_on_c, 14, 54, 0
16, 161040, Note_on_c, 14, 54, 76
16, 161159, Note_on_c, 14, 54, 0
16, 161160, Note_on_c, 14, 54, 76
16, 161279, Note_on_c, 14, 54, 0
16, 161400, Note_on_c, 14, 51, 76
16, 161519, Note_on_c, 14, 51, 0
16, 161520, Note_on_c, 14, 51, 76
16, 161639, Note_on_c, 14, 51, 0
16, 161640, Note_on_c, 14, 51, 76
16, 161759, Note_on_c, 14, 51, 0
16, 161880, Note_on_c, 14, 47, 76
16, 161999, Note_on_c, 14, 47, 0
16, 162000, Note_on_c, 14, 47, 76
16, 162119, Note_on_c, 14, 47, 0
16, 162120, Note_on_c, 14, 47, 76
16, 162239, Note_on_c, 14, 47, 0
16, 162240, Note_on_c, 14, 52, 76
16, 162359, Note_on_c, 14, 52, 0
16, 162360, Note_on_c, 14, 64, 76
16, 162479, Note_on_c, 14, 64, 0
16, 162480, Note_on_c, 14, 57, 76
16, 162599, Note_on_c, 14, 57, 0
16, 162600, Note_on_c, 14, 61, 76
16, 162719, Note_on_c, 14, 61, 0
16, 162720, Note_on_c, 14, 50, 76
16, 162839, Note_on_c, 14, 50, 0
16, 162840, Note_on_c, 14, 62, 76
16, 162959, Note_on_c, 14, 62, 0
16, 162960, Note_on_c, 14, 55, 76
16, 163079, Note_on_c, 14, 55, 0
16, 163080, Note_on_c, 14, 59, 76
16, 163199, Note_on_c, 14, 59, 0
16, 163200, Note_on_c, 14, 49, 76
16, 163319, Note_on_c, 14, 49, 0
16, 163320, Note_on_c, 14, 61, 76
16, 163439, Note_on_c, 14, 61, 0
16, 163440, Note_on_c, 14, 54, 76
16, 163559, Note_on_c, 14, 54, 0
16, 163560, Note_on_c, 14, 58, 76
16, 163679, Note_on_c, 14, 58, 0
16, 163680, Note_on_c, 14, 47, 76
16, 163799, Note_on_c, 14, 47, 0
16, 163800, Note_on_c, 14, 59, 76
16, 163919, Note_on_c, 14, 59, 0
16, 163920, Note_on_c, 14, 55, 76
16, 164039, Note_on_c, 14, 55, 0
16, 164040, Note_on_c, 14, 52, 76
16, 164159, Note_on_c, 14, 52, 0
16, 164160, Note_on_c, 14, 54, 76
16, 164399, Note_on_c, 14, 54, 0
16, 164640, Note_on_c, 14, 42, 76
16, 164879, Note_on_c, 14, 42, 0
16, 165240, Note_on_c, 14, 54, 76
16, 165359, Note_on_c, 14, 54, 0
16, 165360, Note_on_c, 14, 58, 76
16, 165479, Note_on_c, 14, 58, 0
16, 165480, Note_on_c, 14, 54, 76
16, 165599, Note_on_c, 14, 54, 0
16, 165600, Note_on_c, 14, 59, 76
16, 165839, Note_on_c, 14, 59, 0
16, 166080, Note_on_c, 14, 47, 76
16, 166319, Note_on_c, 14, 47, 0
16, 166680, Note_on_c, 14, 59, 76
16, 166799, Note_on_c, 14, 59, 0
16, 166800, Note_on_c, 14, 47, 76
16, 166919, Note_on_c, 14, 47, 0
16, 166920, Note_on_c, 14, 51, 76
16, 167039, Note_on_c, 14, 51, 0
16, 167040, Note_on_c, 14, 52, 76
16, 167279, Note_on_c, 14, 52, 0
16, 167520, Note_on_c, 14, 40, 76
16, 167759, Note_on_c, 14, 40, 0
16, 168120, Note_on_c, 14, 52, 76
16, 168239, Note_on_c, 14, 52, 0
16, 168240, Note_on_c, 14, 56, 76
16, 168359, Note_on_c, 14, 56, 0
16, 168360, Note_on_c, 14, 52, 76
16, 168479, Note_on_c, 14, 52, 0
16, 168480, Note_on_c, 14, 57, 76
16, 168719, Note_on_c, 14, 57, 0
16, 168960, Note_on_c, 14, 45, 76
16, 169199, Note_on_c, 14, 45, 0
16, 169560, Note_on_c, 14, 57, 76
16, 169679, Note_on_c, 14, 57, 0
16, 169680, Note_on_c, 14, 45, 76
16, 169799, Note_on_c, 14, 45, 0
16, 169800, Note_on_c, 14, 49, 76
16, 169919, Note_on_c, 14, 49, 0
16, 169920, Note_on_c, 14, 50, 76
16, 170039, Note_on_c, 14, 50, 0
16, 170040, Note_on_c, 14, 49, 76
16, 170159, Note_on_c, 14, 49, 0
16, 170160, Note_on_c, 14, 50, 76
16, 170279, Note_on_c, 14, 50, 0
16, 170280, Note_on_c, 14, 52, 76
16, 170399, Note_on_c, 14, 52, 0
16, 170400, Note_on_c, 14, 54, 76
16, 170519, Note_on_c, 14, 54, 0
16, 170520, Note_on_c, 14, 52, 76
16, 170639, Note_on_c, 14, 52, 0
16, 170640, Note_on_c, 14, 54, 76
16, 170759, Note_on_c, 14, 54, 0
16, 170760, Note_on_c, 14, 56, 76
16, 170879, Note_on_c, 14, 56, 0
16, 170880, Note_on_c, 14, 57, 76
16, 170999, Note_on_c, 14, 57, 0
16, 171000, Note_on_c, 14, 56, 76
16, 171119, Note_on_c, 14, 56, 0
16, 171120, Note_on_c, 14, 57, 76
16, 171239, Note_on_c, 14, 57, 0
16, 171240, Note_on_c, 14, 54, 76
16, 171359, Note_on_c, 14, 54, 0
16, 171360, Note_on_c, 14, 49, 76
16, 171479, Note_on_c, 14, 49, 0
16, 171480, Note_on_c, 14, 50, 76
16, 171599, Note_on_c, 14, 50, 0
16, 171600, Note_on_c, 14, 52, 76
16, 171719, Note_on_c, 14, 52, 0
16, 171720, Note_on_c, 14, 40, 76
16, 171839, Note_on_c, 14, 40, 0
16, 171840, Note_on_c, 14, 45, 76
16, 171959, Note_on_c, 14, 45, 0
16, 171960, Note_on_c, 14, 45, 76
16, 172019, Note_on_c, 14, 45, 0
16, 172020, Note_on_c, 14, 47, 76
16, 172079, Note_on_c, 14, 47, 0
16, 172080, Note_on_c, 14, 49, 76
16, 172199, Note_on_c, 14, 49, 0
16, 172200, Note_on_c, 14, 49, 76
16, 172259, Note_on_c, 14, 49, 0
16, 172260, Note_on_c, 14, 50, 76
16, 172319, Note_on_c, 14, 50, 0
16, 172320, Note_on_c, 14, 52, 76
16, 172439, Note_on_c, 14, 52, 0
16, 172440, Note_on_c, 14, 49, 76
16, 172499, Note_on_c, 14, 49, 0
16, 172500, Note_on_c, 14, 50, 76
16, 172559, Note_on_c, 14, 50, 0
16, 172560, Note_on_c, 14, 52, 76
16, 172679, Note_on_c, 14, 52, 0
16, 172680, Note_on_c, 14, 52, 76
16, 172739, Note_on_c, 14, 52, 0
16, 172740, Note_on_c, 14, 54, 76
16, 172799, Note_on_c, 14, 54, 0
16, 172800, Note_on_c, 14, 55, 76
16, 172919, Note_on_c, 14, 55, 0
16, 172920, Note_on_c, 14, 55, 76
16, 172979, Note_on_c, 14, 55, 0
16, 172980, Note_on_c, 14, 54, 76
16, 173039, Note_on_c, 14, 54, 0
16, 173040, Note_on_c, 14, 55, 76
16, 173159, Note_on_c, 14, 55, 0
16, 173160, Note_on_c, 14, 57, 76
16, 173219, Note_on_c, 14, 57, 0
16, 173220, Note_on_c, 14, 55, 76
16, 173279, Note_on_c, 14, 55, 0
16, 173280, Note_on_c, 14, 54, 76
16, 173399, Note_on_c, 14, 54, 0
16, 173400, Note_on_c, 14, 47, 76
16, 173459, Note_on_c, 14, 47, 0
16, 173460, Note_on_c, 14, 49, 76
16, 173519, Note_on_c, 14, 49, 0
16, 173520, Note_on_c, 14, 51, 76
16, 173639, Note_on_c, 14, 51, 0
16, 173640, Note_on_c, 14, 51, 76
16, 173699, Note_on_c, 14, 51, 0
16, 173700, Note_on_c, 14, 52, 76
16, 173759, Note_on_c, 14, 52, 0
16, 173760, Note_on_c, 14, 54, 76
16, 173879, Note_on_c, 14, 54, 0
16, 173880, Note_on_c, 14, 51, 76
16, 173939, Note_on_c, 14, 51, 0
16, 173940, Note_on_c, 14, 52, 76
16, 173999, Note_on_c, 14, 52, 0
16, 174000, Note_on_c, 14, 54, 76
16, 174119, Note_on_c, 14, 54, 0
16, 174120, Note_on_c, 14, 54, 76
16, 174179, Note_on_c, 14, 54, 0
16, 174180, Note_on_c, 14, 56, 76
16, 174239, Note_on_c, 14, 56, 0
16, 174240, Note_on_c, 14, 57, 76
16, 174359, Note_on_c, 14, 57, 0
16, 174360, Note_on_c, 14, 57, 76
16, 174419, Note_on_c, 14, 57, 0
16, 174420, Note_on_c, 14, 56, 76
16, 174479, Note_on_c, 14, 56, 0
16, 174480, Note_on_c, 14, 57, 76
16, 174599, Note_on_c, 14, 57, 0
16, 174600, Note_on_c, 14, 59, 76
16, 174659, Note_on_c, 14, 59, 0
16, 174660, Note_on_c, 14, 57, 76
16, 174719, Note_on_c, 14, 57, 0
16, 174720, Note_on_c, 14, 56, 76
16, 174839, Note_on_c, 14, 56, 0
16, 174840, Note_on_c, 14, 59, 76
16, 174959, Note_on_c, 14, 59, 0
16, 174960, Note_on_c, 14, 52, 76
16, 175079, Note_on_c, 14, 52, 0
16, 175080, Note_on_c, 14, 56, 76
16, 175319, Note_on_c, 14, 56, 0
16, 175320, Note_on_c, 14, 59, 76
16, 175439, Note_on_c, 14, 59, 0
16, 175440, Note_on_c, 14, 50, 76
16, 175559, Note_on_c, 14, 50, 0
16, 175560, Note_on_c, 14, 56, 76
16, 175799, Note_on_c, 14, 56, 0
16, 175800, Note_on_c, 14, 59, 76
16, 175919, Note_on_c, 14, 59, 0
16, 175920, Note_on_c, 14, 52, 76
16, 176039, Note_on_c, 14, 52, 0
16, 176040, Note_on_c, 14, 56, 76
16, 176159, Note_on_c, 14, 56, 0
16, 176160, Note_on_c, 14, 45, 76
16, 176279, Note_on_c, 14, 45, 0
16, 176280, Note_on_c, 14, 57, 76
16, 176399, Note_on_c, 14, 57, 0
16, 176400, Note_on_c, 14, 50, 76
16, 176519, Note_on_c, 14, 50, 0
16, 176520, Note_on_c, 14, 54, 76
16, 176639, Note_on_c, 14, 54, 0
16, 176640, Note_on_c, 14, 44, 76
16, 176759, Note_on_c, 14, 44, 0
16, 176760, Note_on_c, 14, 56, 76
16, 176879, Note_on_c, 14, 56, 0
16, 176880, Note_on_c, 14, 49, 76
16, 176999, Note_on_c, 14, 49, 0
16, 177000, Note_on_c, 14, 53, 76
16, 177119, Note_on_c, 14, 53, 0
16, 177120, Note_on_c, 14, 42, 76
16, 177239, Note_on_c, 14, 42, 0
16, 177240, Note_on_c, 14, 54, 76
16, 177359, Note_on_c, 14, 54, 0
16, 177360, Note_on_c, 14, 52, 76
16, 177479, Note_on_c, 14, 52, 0
16, 177480, Note_on_c, 14, 50, 76
16, 177599, Note_on_c, 14, 50, 0
16, 177600, Note_on_c, 14, 49, 76
16, 177719, Note_on_c, 14, 49, 0
16, 177720, Note_on_c, 14, 54, 76
16, 177839, Note_on_c, 14, 54, 0
16, 177840, Note_on_c, 14, 52, 76
16, 177959, Note_on_c, 14, 52, 0
16, 177960, Note_on_c, 14, 50, 76
16, 178079, Note_on_c, 14, 50, 0
16, 178080, Note_on_c, 14, 49, 76
16, 178199, Note_on_c, 14, 49, 0
16, 178200, Note_on_c, 14, 52, 76
16, 178319, Note_on_c, 14, 52, 0
16, 178320, Note_on_c, 14, 45, 76
16, 178439, Note_on_c, 14, 45, 0
16, 178440, Note_on_c, 14, 49, 76
16, 178559, Note_on_c, 14, 49, 0
16, 178560, Note_on_c, 14, 50, 76
16, 178679, Note_on_c, 14, 50, 0
16, 178680, Note_on_c, 14, 62, 76
16, 178799, Note_on_c, 14, 62, 0
16, 178800, Note_on_c, 14, 55, 76
16, 178919, Note_on_c, 14, 55, 0
16, 178920, Note_on_c, 14, 59, 76
16, 179039, Note_on_c, 14, 59, 0
16, 179040, Note_on_c, 14, 49, 76
16, 179159, Note_on_c, 14, 49, 0
16, 179160, Note_on_c, 14, 61, 76
16, 179279, Note_on_c, 14, 61, 0
16, 179280, Note_on_c, 14, 54, 76
16, 179399, Note_on_c, 14, 54, 0
16, 179400, Note_on_c, 14, 58, 76
16, 179519, Note_on_c, 14, 58, 0
16, 179520, Note_on_c, 14, 47, 76
16, 179639, Note_on_c, 14, 47, 0
16, 179640, Note_on_c, 14, 59, 76
16, 179759, Note_on_c, 14, 59, 0
16, 179760, Note_on_c, 14, 52, 76
16, 179879, Note_on_c, 14, 52, 0
16, 179880, Note_on_c, 14, 55, 76
16, 179999, Note_on_c, 14, 55, 0
16, 180000, Note_on_c, 14, 54, 76
16, 180119, Note_on_c, 14, 54, 0
16, 180120, Note_on_c, 14, 42, 76
16, 180179, Note_on_c, 14, 42, 0
16, 180180, Note_on_c, 14, 44, 76
16, 180239, Note_on_c, 14, 44, 0
16, 180240, Note_on_c, 14, 46, 76
16, 180359, Note_on_c, 14, 46, 0
16, 180360, Note_on_c, 14, 46, 76
16, 180419, Note_on_c, 14, 46, 0
16, 180420, Note_on_c, 14, 47, 76
16, 180479, Note_on_c, 14, 47, 0
16, 180480, Note_on_c, 14, 49, 76
16, 180599, Note_on_c, 14, 49, 0
16, 180600, Note_on_c, 14, 46, 76
16, 180659, Note_on_c, 14, 46, 0
16, 180660, Note_on_c, 14, 47, 76
16, 180719, Note_on_c, 14, 47, 0
16, 180720, Note_on_c, 14, 49, 76
16, 180839, Note_on_c, 14, 49, 0
16, 180840, Note_on_c, 14, 49, 76
16, 180899, Note_on_c, 14, 49, 0
16, 180900, Note_on_c, 14, 50, 76
16, 180959, Note_on_c, 14, 50, 0
16, 180960, Note_on_c, 14, 52, 76
16, 181079, Note_on_c, 14, 52, 0
16, 181080, Note_on_c, 14, 52, 76
16, 181139, Note_on_c, 14, 52, 0
16, 181140, Note_on_c, 14, 50, 76
16, 181199, Note_on_c, 14, 50, 0
16, 181200, Note_on_c, 14, 52, 76
16, 181319, Note_on_c, 14, 52, 0
16, 181320, Note_on_c, 14, 54, 76
16, 181379, Note_on_c, 14, 54, 0
16, 181380, Note_on_c, 14, 52, 76
16, 181439, Note_on_c, 14, 52, 0
16, 181440, Note_on_c, 14, 50, 76
16, 181559, Note_on_c, 14, 50, 0
16, 181560, Note_on_c, 14, 50, 76
16, 181619, Note_on_c, 14, 50, 0
16, 181620, Note_on_c, 14, 49, 76
16, 181679, Note_on_c, 14, 49, 0
16, 181680, Note_on_c, 14, 50, 76
16, 181799, Note_on_c, 14, 50, 0
16, 181800, Note_on_c, 14, 52, 76
16, 181859, Note_on_c, 14, 52, 0
16, 181860, Note_on_c, 14, 50, 76
16, 181919, Note_on_c, 14, 50, 0
16, 181920, Note_on_c, 14, 49, 76
16, 182039, Note_on_c, 14, 49, 0
16, 182040, Note_on_c, 14, 49, 76
16, 182099, Note_on_c, 14, 49, 0
16, 182100, Note_on_c, 14, 47, 76
16, 182159, Note_on_c, 14, 47, 0
16, 182160, Note_on_c, 14, 49, 76
16, 182279, Note_on_c, 14, 49, 0
16, 182280, Note_on_c, 14, 50, 76
16, 182339, Note_on_c, 14, 50, 0
16, 182340, Note_on_c, 14, 49, 76
16, 182399, Note_on_c, 14, 49, 0
16, 182400, Note_on_c, 14, 47, 76
16, 182459, Note_on_c, 14, 47, 0
16, 182460, Note_on_c, 14, 49, 76
16, 182519, Note_on_c, 14, 49, 0
16, 182520, Note_on_c, 14, 50, 76
16, 182579, Note_on_c, 14, 50, 0
16, 182580, Note_on_c, 14, 47, 76
16, 182639, Note_on_c, 14, 47, 0
16, 182640, Note_on_c, 14, 52, 76
16, 182699, Note_on_c, 14, 52, 0
16, 182700, Note_on_c, 14, 54, 76
16, 182759, Note_on_c, 14, 54, 0
16, 182760, Note_on_c, 14, 55, 76
16, 182819, Note_on_c, 14, 55, 0
16, 182820, Note_on_c, 14, 52, 76
16, 182879, Note_on_c, 14, 52, 0
16, 182880, Note_on_c, 14, 54, 76
16, 183119, Note_on_c, 14, 54, 0
16, 183240, Note_on_c, 14, 52, 76
16, 183359, Note_on_c, 14, 52, 0
16, 183360, Note_on_c, 14, 50, 76
16, 183479, Note_on_c, 14, 50, 0
16, 183480, Note_on_c, 14, 54, 76
16, 183599, Note_on_c, 14, 54, 0
16, 183600, Note_on_c, 14, 59, 76
16, 183719, Note_on_c, 14, 59, 0
16, 183720, Note_on_c, 14, 54, 76
16, 183839, Note_on_c, 14, 54, 0
16, 183840, Note_on_c, 14, 55, 76
16, 183959, Note_on_c, 14, 55, 0
16, 183960, Note_on_c, 14, 52, 76
16, 184079, Note_on_c, 14, 52, 0
16, 184080, Note_on_c, 14, 54, 76
16, 184199, Note_on_c, 14, 54, 0
16, 184200, Note_on_c, 14, 42, 76
16, 184319, Note_on_c, 14, 42, 0
16, 184320, Note_on_c, 14, 47, 76
16, 184559, Note_on_c, 14, 47, 0
16, 184680, Note_on_c, 14, 58, 76
16, 184799, Note_on_c, 14, 58, 0
16, 184800, Note_on_c, 14, 59, 76
16, 184919, Note_on_c, 14, 59, 0
16, 184920, Note_on_c, 14, 55, 76
16, 185039, Note_on_c, 14, 55, 0
16, 185040, Note_on_c, 14, 52, 76
16, 185159, Note_on_c, 14, 52, 0
16, 185160, Note_on_c, 14, 54, 76
16, 185279, Note_on_c, 14, 54, 0
16, 185280, Note_on_c, 14, 47, 76
16, 185519, Note_on_c, 14, 47, 0
16, 185640, Note_on_c, 14, 59, 76
16, 185759, Note_on_c, 14, 59, 0
16, 185760, Note_on_c, 14, 57, 76
16, 185879, Note_on_c, 14, 57, 0
16, 185880, Note_on_c, 14, 62, 76
16, 185999, Note_on_c, 14, 62, 0
16, 186000, Note_on_c, 14, 59, 76
16, 186119, Note_on_c, 14, 59, 0
16, 186120, Note_on_c, 14, 61, 76
16, 186239, Note_on_c, 14, 61, 0
16, 186240, Note_on_c, 14, 54, 76
16, 186359, Note_on_c, 14, 54, 0
16, 186360, Note_on_c, 14, 54, 76
16, 186479, Note_on_c, 14, 54, 0
16, 186480, Note_on_c, 14, 54, 76
16, 186599, Note_on_c, 14, 54, 0
16, 186600, Note_on_c, 14, 54, 76
16, 186719, Note_on_c, 14, 54, 0
16, 186840, Note_on_c, 14, 52, 76
16, 186959, Note_on_c, 14, 52, 0
16, 186960, Note_on_c, 14, 52, 76
16, 187079, Note_on_c, 14, 52, 0
16, 187080, Note_on_c, 14, 52, 76
16, 187199, Note_on_c, 14, 52, 0
16, 187320, Note_on_c, 14, 51, 76
16, 187439, Note_on_c, 14, 51, 0
16, 187440, Note_on_c, 14, 51, 76
16, 187559, Note_on_c, 14, 51, 0
16, 187560, Note_on_c, 14, 51, 76
16, 187679, Note_on_c, 14, 51, 0
16, 187800, Note_on_c, 14, 47, 76
16, 187919, Note_on_c, 14, 47, 0
16, 187920, Note_on_c, 14, 47, 76
16, 188039, Note_on_c, 14, 47, 0
16, 188040, Note_on_c, 14, 47, 76
16, 188159, Note_on_c, 14, 47, 0
16, 188280, Note_on_c, 14, 52, 76
16, 188399, Note_on_c, 14, 52, 0
16, 188400, Note_on_c, 14, 52, 76
16, 188519, Note_on_c, 14, 52, 0
16, 188520, Note_on_c, 14, 52, 76
16, 188639, Note_on_c, 14, 52, 0
16, 188760, Note_on_c, 14, 50, 76
16, 188879, Note_on_c, 14, 50, 0
16, 188880, Note_on_c, 14, 50, 76
16, 188999, Note_on_c, 14, 50, 0
16, 189000, Note_on_c, 14, 50, 76
16, 189119, Note_on_c, 14, 50, 0
16, 189240, Note_on_c, 14, 49, 76
16, 189359, Note_on_c, 14, 49, 0
16, 189360, Note_on_c, 14, 49, 76
16, 189479, Note_on_c, 14, 49, 0
16, 189480, Note_on_c, 14, 49, 76
16, 189599, Note_on_c, 14, 49, 0
16, 189720, Note_on_c, 14, 45, 76
16, 189839, Note_on_c, 14, 45, 0
16, 189840, Note_on_c, 14, 45, 76
16, 189959, Note_on_c, 14, 45, 0
16, 189960, Note_on_c, 14, 45, 76
16, 190079, Note_on_c, 14, 45, 0
16, 190080, Note_on_c, 14, 50, 76
16, 190199, Note_on_c, 14, 50, 0
16, 190200, Note_on_c, 14, 62, 76
16, 190319, Note_on_c, 14, 62, 0
16, 190320, Note_on_c, 14, 55, 76
16, 190439, Note_on_c, 14, 55, 0
16, 190440, Note_on_c, 14, 59, 76
16, 190559, Note_on_c, 14, 59, 0
16, 190560, Note_on_c, 14, 49, 76
16, 190679, Note_on_c, 14, 49, 0
16, 190680, Note_on_c, 14, 61, 76
16, 190799, Note_on_c, 14, 61, 0
16, 190800, Note_on_c, 14, 54, 76
16, 190919, Note_on_c, 14, 54, 0
16, 190920, Note_on_c, 14, 57, 76
16, 191039, Note_on_c, 14, 57, 0
16, 191040, Note_on_c, 14, 47, 76
16, 191159, Note_on_c, 14, 47, 0
16, 191160, Note_on_c, 14, 59, 76
16, 191279, Note_on_c, 14, 59, 0
16, 191280, Note_on_c, 14, 52, 76
16, 191399, Note_on_c, 14, 52, 0
16, 191400, Note_on_c, 14, 55, 76
16, 191519, Note_on_c, 14, 55, 0
16, 191520, Note_on_c, 14, 45, 76
16, 191999, Note_on_c, 14, 45, 0
16, 192000, Note_on_c, 14, 45, 76
16, 192959, Note_on_c, 14, 45, 0
16, 192960, Note_on_c, 14, 45, 76
16, 193559, Note_on_c, 14, 45, 0
16, 193560, Note_on_c, 14, 47, 76
16, 193679, Note_on_c, 14, 47, 0
16, 193680, Note_on_c, 14, 49, 76
16, 193799, Note_on_c, 14, 49, 0
16, 193800, Note_on_c, 14, 45, 76
16, 193919, Note_on_c, 14, 45, 0
16, 193920, Note_on_c, 14, 42, 76
16, 194159, Note_on_c, 14, 42, 0
16, 194400, Note_on_c, 14, 47, 76
16, 194639, Note_on_c, 14, 47, 0
16, 195000, Note_on_c, 14, 47, 76
16, 195119, Note_on_c, 14, 47, 0
16, 195120, Note_on_c, 14, 51, 76
16, 195239, Note_on_c, 14, 51, 0
16, 195240, Note_on_c, 14, 47, 76
16, 195359, Note_on_c, 14, 47, 0
16, 195360, Note_on_c, 14, 52, 76
16, 195599, Note_on_c, 14, 52, 0
16, 195840, Note_on_c, 14, 40, 76
16, 196079, Note_on_c, 14, 40, 0
16, 196440, Note_on_c, 14, 40, 76
16, 196559, Note_on_c, 14, 40, 0
16, 196560, Note_on_c, 14, 52, 76
16, 196679, Note_on_c, 14, 52, 0
16, 196680, Note_on_c, 14, 44, 76
16, 196799, Note_on_c, 14, 44, 0
16, 196800, Note_on_c, 14, 45, 76
16, 197039, Note_on_c, 14, 45, 0
16, 197280, Note_on_c, 14, 57, 76
16, 197519, Note_on_c, 14, 57, 0
16, 197880, Note_on_c, 14, 45, 76
16, 197999, Note_on_c, 14, 45, 0
16, 198000, Note_on_c, 14, 49, 76
16, 198119, Note_on_c, 14, 49, 0
16, 198120, Note_on_c, 14, 45, 76
16, 198239, Note_on_c, 14, 45, 0
16, 198240, Note_on_c, 14, 50, 76
16, 198479, Note_on_c, 14, 50, 0
16, 198720, Note_on_c, 14, 38, 76
16, 198959, Note_on_c, 14, 38, 0
16, 199320, Note_on_c, 14, 50, 76
16, 199439, Note_on_c, 14, 50, 0
16, 199440, Note_on_c, 14, 38, 76
16, 199559, Note_on_c, 14, 38, 0
16, 199560, Note_on_c, 14, 42, 76
16, 199679, Note_on_c, 14, 42, 0
16, 199680, Note_on_c, 14, 43, 76
16, 199799, Note_on_c, 14, 43, 0
16, 199800, Note_on_c, 14, 42, 76
16, 199919, Note_on_c, 14, 42, 0
16, 199920, Note_on_c, 14, 43, 76
16, 200039, Note_on_c, 14, 43, 0
16, 200040, Note_on_c, 14, 45, 76
16, 200159, Note_on_c, 14, 45, 0
16, 200160, Note_on_c, 14, 47, 76
16, 200279, Note_on_c, 14, 47, 0
16, 200280, Note_on_c, 14, 45, 76
16, 200399, Note_on_c, 14, 45, 0
16, 200400, Note_on_c, 14, 47, 76
16, 200519, Note_on_c, 14, 47, 0
16, 200520, Note_on_c, 14, 49, 76
16, 200639, Note_on_c, 14, 49, 0
16, 200640, Note_on_c, 14, 50, 76
16, 200759, Note_on_c, 14, 50, 0
16, 200760, Note_on_c, 14, 49, 76
16, 200879, Note_on_c, 14, 49, 0
16, 200880, Note_on_c, 14, 50, 76
16, 200999, Note_on_c, 14, 50, 0
16, 201000, Note_on_c, 14, 52, 76
16, 201119, Note_on_c, 14, 52, 0
16, 201120, Note_on_c, 14, 54, 76
16, 201239, Note_on_c, 14, 54, 0
16, 201240, Note_on_c, 14, 52, 76
16, 201359, Note_on_c, 14, 52, 0
16, 201360, Note_on_c, 14, 54, 76
16, 201479, Note_on_c, 14, 54, 0
16, 201480, Note_on_c, 14, 55, 76
16, 201599, Note_on_c, 14, 55, 0
16, 201600, Note_on_c, 14, 57, 76
16, 201719, Note_on_c, 14, 57, 0
16, 201720, Note_on_c, 14, 57, 76
16, 201839, Note_on_c, 14, 57, 0
16, 201840, Note_on_c, 14, 57, 76
16, 201959, Note_on_c, 14, 57, 0
16, 201960, Note_on_c, 14, 57, 76
16, 202079, Note_on_c, 14, 57, 0
16, 202080, Note_on_c, 14, 57, 76
16, 202199, Note_on_c, 14, 57, 0
16, 202200, Note_on_c, 14, 57, 76
16, 202319, Note_on_c, 14, 57, 0
16, 202320, Note_on_c, 14, 57, 76
16, 202439, Note_on_c, 14, 57, 0
16, 202440, Note_on_c, 14, 57, 76
16, 202559, Note_on_c, 14, 57, 0
16, 202560, Note_on_c, 14, 57, 76
16, 202679, Note_on_c, 14, 57, 0
16, 202680, Note_on_c, 14, 52, 76
16, 202799, Note_on_c, 14, 52, 0
16, 202800, Note_on_c, 14, 49, 76
16, 202919, Note_on_c, 14, 49, 0
16, 202920, Note_on_c, 14, 45, 76
16, 203039, Note_on_c, 14, 45, 0
16, 203040, Note_on_c, 14, 50, 76
16, 203159, Note_on_c, 14, 50, 0
16, 203160, Note_on_c, 14, 62, 76
16, 203279, Note_on_c, 14, 62, 0
16, 203280, Note_on_c, 14, 62, 76
16, 203399, Note_on_c, 14, 62, 0
16, 203400, Note_on_c, 14, 62, 76
16, 203519, Note_on_c, 14, 62, 0
16, 203520, Note_on_c, 14, 62, 76
16, 203639, Note_on_c, 14, 62, 0
16, 203640, Note_on_c, 14, 62, 76
16, 203759, Note_on_c, 14, 62, 0
16, 203760, Note_on_c, 14, 62, 76
16, 203879, Note_on_c, 14, 62, 0
16, 203880, Note_on_c, 14, 62, 76
16, 203999, Note_on_c, 14, 62, 0
16, 204000, Note_on_c, 14, 62, 76
16, 204119, Note_on_c, 14, 62, 0
16, 204120, Note_on_c, 14, 57, 76
16, 204239, Note_on_c, 14, 57, 0
16, 204240, Note_on_c, 14, 54, 76
16, 204359, Note_on_c, 14, 54, 0
16, 204360, Note_on_c, 14, 50, 76
16, 204479, Note_on_c, 14, 50, 0
16, 204480, Note_on_c, 14, 55, 76
16, 204599, Note_on_c, 14, 55, 0
16, 204600, Note_on_c, 14, 64, 76
16, 204719, Note_on_c, 14, 64, 0
16, 204720, Note_on_c, 14, 64, 76
16, 204839, Note_on_c, 14, 64, 0
16, 204840, Note_on_c, 14, 64, 76
16, 204959, Note_on_c, 14, 64, 0
16, 204960, Note_on_c, 14, 64, 76
16, 205079, Note_on_c, 14, 64, 0
16, 205080, Note_on_c, 14, 59, 76
16, 205199, Note_on_c, 14, 59, 0
16, 205200, Note_on_c, 14, 56, 76
16, 205319, Note_on_c, 14, 56, 0
16, 205320, Note_on_c, 14, 52, 76
16, 205439, Note_on_c, 14, 52, 0
16, 205440, Note_on_c, 14, 57, 76
16, 205679, Note_on_c, 14, 57, 0
16, 205920, Note_on_c, 14, 45, 76
16, 206159, Note_on_c, 14, 45, 0
16, 206400, Note_on_c, 14, 57, 76
16, 206639, Note_on_c, 14, 57, 0
16, 207000, Note_on_c, 14, 50, 76
16, 207059, Note_on_c, 14, 50, 0
16, 207060, Note_on_c, 14, 52, 76
16, 207119, Note_on_c, 14, 52, 0
16, 207120, Note_on_c, 14, 54, 76
16, 207239, Note_on_c, 14, 54, 0
16, 207240, Note_on_c, 14, 54, 76
16, 207299, Note_on_c, 14, 54, 0
16, 207300, Note_on_c, 14, 55, 76
16, 207359, Note_on_c, 14, 55, 0
16, 207360, Note_on_c, 14, 57, 76
16, 207479, Note_on_c, 14, 57, 0
16, 207480, Note_on_c, 14, 54, 76
16, 207539, Note_on_c, 14, 54, 0
16, 207540, Note_on_c, 14, 55, 76
16, 207599, Note_on_c, 14, 55, 0
16, 207600, Note_on_c, 14, 57, 76
16, 207719, Note_on_c, 14, 57, 0
16, 207720, Note_on_c, 14, 57, 76
16, 207779, Note_on_c, 14, 57, 0
16, 207780, Note_on_c, 14, 59, 76
16, 207839, Note_on_c, 14, 59, 0
16, 207840, Note_on_c, 14, 60, 76
16, 207959, Note_on_c, 14, 60, 0
16, 207960, Note_on_c, 14, 60, 76
16, 208019, Note_on_c, 14, 60, 0
16, 208020, Note_on_c, 14, 59, 76
16, 208079, Note_on_c, 14, 59, 0
16, 208080, Note_on_c, 14, 60, 76
16, 208199, Note_on_c, 14, 60, 0
16, 208200, Note_on_c, 14, 62, 76
16, 208259, Note_on_c, 14, 62, 0
16, 208260, Note_on_c, 14, 60, 76
16, 208319, Note_on_c, 14, 60, 0
16, 208320, Note_on_c, 14, 59, 76
16, 208439, Note_on_c, 14, 59, 0
16, 208440, Note_on_c, 14, 52, 76
16, 208499, Note_on_c, 14, 52, 0
16, 208500, Note_on_c, 14, 54, 76
16, 208559, Note_on_c, 14, 54, 0
16, 208560, Note_on_c, 14, 56, 76
16, 208679, Note_on_c, 14, 56, 0
16, 208680, Note_on_c, 14, 56, 76
16, 208739, Note_on_c, 14, 56, 0
16, 208740, Note_on_c, 14, 57, 76
16, 208799, Note_on_c, 14, 57, 0
16, 208800, Note_on_c, 14, 59, 76
16, 208919, Note_on_c, 14, 59, 0
16, 208920, Note_on_c, 14, 56, 76
16, 208979, Note_on_c, 14, 56, 0
16, 208980, Note_on_c, 14, 57, 76
16, 209039, Note_on_c, 14, 57, 0
16, 209040, Note_on_c, 14, 59, 76
16, 209159, Note_on_c, 14, 59, 0
16, 209160, Note_on_c, 14, 59, 76
16, 209219, Note_on_c, 14, 59, 0
16, 209220, Note_on_c, 14, 61, 76
16, 209279, Note_on_c, 14, 61, 0
16, 209280, Note_on_c, 14, 62, 76
16, 209399, Note_on_c, 14, 62, 0
16, 209400, Note_on_c, 14, 62, 76
16, 209459, Note_on_c, 14, 62, 0
16, 209460, Note_on_c, 14, 61, 76
16, 209519, Note_on_c, 14, 61, 0
16, 209520, Note_on_c, 14, 62, 76
16, 209639, Note_on_c, 14, 62, 0
16, 209640, Note_on_c, 14, 64, 76
16, 209699, Note_on_c, 14, 64, 0
16, 209700, Note_on_c, 14, 62, 76
16, 209759, Note_on_c, 14, 62, 0
16, 209760, Note_on_c, 14, 61, 76
16, 209879, Note_on_c, 14, 61, 0
16, 209880, Note_on_c, 14, 64, 76
16, 209999, Note_on_c, 14, 64, 0
16, 210000, Note_on_c, 14, 57, 76
16, 210119, Note_on_c, 14, 57, 0
16, 210120, Note_on_c, 14, 61, 76
16, 210359, Note_on_c, 14, 61, 0
16, 210360, Note_on_c, 14, 64, 76
16, 210479, Note_on_c, 14, 64, 0
16, 210480, Note_on_c, 14, 55, 76
16, 210599, Note_on_c, 14, 55, 0
16, 210600, Note_on_c, 14, 61, 76
16, 210839, Note_on_c, 14, 61, 0
16, 210840, Note_on_c, 14, 64, 76
16, 210959, Note_on_c, 14, 64, 0
16, 210960, Note_on_c, 14, 57, 76
16, 211079, Note_on_c, 14, 57, 0
16, 211080, Note_on_c, 14, 61, 76
16, 211199, Note_on_c, 14, 61, 0
16, 211200, Note_on_c, 14, 50, 76
16, 211319, Note_on_c, 14, 50, 0
16, 211320, Note_on_c, 14, 62, 76
16, 211439, Note_on_c, 14, 62, 0
16, 211440, Note_on_c, 14, 55, 76
16, 211559, Note_on_c, 14, 55, 0
16, 211560, Note_on_c, 14, 59, 76
16, 211679, Note_on_c, 14, 59, 0
16, 211680, Note_on_c, 14, 49, 76
16, 211799, Note_on_c, 14, 49, 0
16, 211800, Note_on_c, 14, 61, 76
16, 211919, Note_on_c, 14, 61, 0
16, 211920, Note_on_c, 14, 54, 76
16, 212039, Note_on_c, 14, 54, 0
16, 212040, Note_on_c, 14, 58, 76
16, 212159, Note_on_c, 14, 58, 0
16, 212160, Note_on_c, 14, 47, 76
16, 212279, Note_on_c, 14, 47, 0
16, 212280, Note_on_c, 14, 59, 76
16, 212399, Note_on_c, 14, 59, 0
16, 212400, Note_on_c, 14, 57, 76
16, 212519, Note_on_c, 14, 57, 0
16, 212520, Note_on_c, 14, 55, 76
16, 212639, Note_on_c, 14, 55, 0
16, 212640, Note_on_c, 14, 54, 76
16, 212759, Note_on_c, 14, 54, 0
16, 212760, Note_on_c, 14, 59, 76
16, 212879, Note_on_c, 14, 59, 0
16, 212880, Note_on_c, 14, 57, 76
16, 212999, Note_on_c, 14, 57, 0
16, 213000, Note_on_c, 14, 55, 76
16, 213119, Note_on_c, 14, 55, 0
16, 213120, Note_on_c, 14, 54, 76
16, 213239, Note_on_c, 14, 54, 0
16, 213240, Note_on_c, 14, 57, 76
16, 213359, Note_on_c, 14, 57, 0
16, 213360, Note_on_c, 14, 50, 76
16, 213479, Note_on_c, 14, 50, 0
16, 213480, Note_on_c, 14, 54, 76
16, 213599, Note_on_c, 14, 54, 0
16, 213600, Note_on_c, 14, 43, 76
16, 213719, Note_on_c, 14, 43, 0
16, 213720, Note_on_c, 14, 55, 76
16, 213839, Note_on_c, 14, 55, 0
16, 213840, Note_on_c, 14, 49, 76
16, 213959, Note_on_c, 14, 49, 0
16, 213960, Note_on_c, 14, 52, 76
16, 214079, Note_on_c, 14, 52, 0
16, 214080, Note_on_c, 14, 42, 76
16, 214199, Note_on_c, 14, 42, 0
16, 214200, Note_on_c, 14, 54, 76
16, 214319, Note_on_c, 14, 54, 0
16, 214320, Note_on_c, 14, 47, 76
16, 214439, Note_on_c, 14, 47, 0
16, 214440, Note_on_c, 14, 50, 76
16, 214559, Note_on_c, 14, 50, 0
16, 214560, Note_on_c, 14, 40, 76
16, 214679, Note_on_c, 14, 40, 0
16, 214680, Note_on_c, 14, 45, 76
16, 214799, Note_on_c, 14, 45, 0
16, 214800, Note_on_c, 14, 50, 76
16, 214919, Note_on_c, 14, 50, 0
16, 214920, Note_on_c, 14, 38, 76
16, 215039, Note_on_c, 14, 38, 0
16, 215040, Note_on_c, 14, 45, 76
16, 215159, Note_on_c, 14, 45, 0
16, 215160, Note_on_c, 14, 45, 76
16, 215219, Note_on_c, 14, 45, 0
16, 215220, Note_on_c, 14, 47, 76
16, 215279, Note_on_c, 14, 47, 0
16, 215280, Note_on_c, 14, 49, 76
16, 215399, Note_on_c, 14, 49, 0
16, 215400, Note_on_c, 14, 49, 76
16, 215459, Note_on_c, 14, 49, 0
16, 215460, Note_on_c, 14, 50, 76
16, 215519, Note_on_c, 14, 50, 0
16, 215520, Note_on_c, 14, 52, 76
16, 215639, Note_on_c, 14, 52, 0
16, 215640, Note_on_c, 14, 49, 76
16, 215699, Note_on_c, 14, 49, 0
16, 215700, Note_on_c, 14, 50, 76
16, 215759, Note_on_c, 14, 50, 0
16, 215760, Note_on_c, 14, 52, 76
16, 215879, Note_on_c, 14, 52, 0
16, 215880, Note_on_c, 14, 52, 76
16, 215939, Note_on_c, 14, 52, 0
16, 215940, Note_on_c, 14, 54, 76
16, 215999, Note_on_c, 14, 54, 0
16, 216000, Note_on_c, 14, 55, 76
16, 216119, Note_on_c, 14, 55, 0
16, 216120, Note_on_c, 14, 55, 76
16, 216179, Note_on_c, 14, 55, 0
16, 216180, Note_on_c, 14, 54, 76
16, 216239, Note_on_c, 14, 54, 0
16, 216240, Note_on_c, 14, 55, 76
16, 216359, Note_on_c, 14, 55, 0
16, 216360, Note_on_c, 14, 57, 76
16, 216419, Note_on_c, 14, 57, 0
16, 216420, Note_on_c, 14, 55, 76
16, 216479, Note_on_c, 14, 55, 0
16, 216480, Note_on_c, 14, 54, 76
16, 216599, Note_on_c, 14, 54, 0
16, 216600, Note_on_c, 14, 54, 76
16, 216659, Note_on_c, 14, 54, 0
16, 216660, Note_on_c, 14, 52, 76
16, 216719, Note_on_c, 14, 52, 0
16, 216720, Note_on_c, 14, 54, 76
16, 216839, Note_on_c, 14, 54, 0
16, 216840, Note_on_c, 14, 55, 76
16, 216899, Note_on_c, 14, 55, 0
16, 216900, Note_on_c, 14, 54, 76
16, 216959, Note_on_c, 14, 54, 0
16, 216960, Note_on_c, 14, 52, 76
16, 217079, Note_on_c, 14, 52, 0
16, 217080, Note_on_c, 14, 52, 76
16, 217139, Note_on_c, 14, 52, 0
16, 217140, Note_on_c, 14, 50, 76
16, 217199, Note_on_c, 14, 50, 0
16, 217200, Note_on_c, 14, 52, 76
16, 217319, Note_on_c, 14, 52, 0
16, 217320, Note_on_c, 14, 54, 76
16, 217379, Note_on_c, 14, 54, 0
16, 217380, Note_on_c, 14, 52, 76
16, 217439, Note_on_c, 14, 52, 0
16, 217440, Note_on_c, 14, 50, 76
16, 217499, Note_on_c, 14, 50, 0
16, 217500, Note_on_c, 14, 52, 76
16, 217559, Note_on_c, 14, 52, 0
16, 217560, Note_on_c, 14, 54, 76
16, 217619, Note_on_c, 14, 54, 0
16, 217620, Note_on_c, 14, 50, 76
16, 217679, Note_on_c, 14, 50, 0
16, 217680, Note_on_c, 14, 55, 76
16, 217739, Note_on_c, 14, 55, 0
16, 217740, Note_on_c, 14, 57, 76
16, 217799, Note_on_c, 14, 57, 0
16, 217800, Note_on_c, 14, 54, 76
16, 217859, Note_on_c, 14, 54, 0
16, 217860, Note_on_c, 14, 55, 76
16, 217919, Note_on_c, 14, 55, 0
16, 217920, Note_on_c, 14, 57, 76
16, 218039, Note_on_c, 14, 57, 0
16, 218040, Note_on_c, 14, 55, 76
16, 218159, Note_on_c, 14, 55, 0
16, 218160, Note_on_c, 14, 54, 76
16, 218279, Note_on_c, 14, 54, 0
16, 218280, Note_on_c, 14, 52, 76
16, 218399, Note_on_c, 14, 52, 0
16, 218400, Note_on_c, 14, 50, 76
16, 218519, Note_on_c, 14, 50, 0
16, 218520, Note_on_c, 14, 55, 76
16, 218639, Note_on_c, 14, 55, 0
16, 218640, Note_on_c, 14, 57, 76
16, 218759, Note_on_c, 14, 57, 0
16, 218760, Note_on_c, 14, 45, 76
16, 218879, Note_on_c, 14, 45, 0
16, 218880, Note_on_c, 14, 50, 76
16, 219839, Note_on_c, 14, 50, 0
16, 219840, Note_on_c, 14, 50, 76
16, 220799, Note_on_c, 14, 50, 0
16, 220800, Note_on_c, 14, 50, 76
16, 221099, Note_on_c, 14, 50, 0
16, 221100, Note_on_c, 14, 48, 76
16, 221159, Note_on_c, 14, 48, 0
16, 221160, Note_on_c, 14, 47, 76
16, 221219, Note_on_c, 14, 47, 0
16, 221220, Note_on_c, 14, 45, 76
16, 221279, Note_on_c, 14, 45, 0
16, 221280, Note_on_c, 14, 47, 76
16, 221459, Note_on_c, 14, 47, 0
16, 221460, Note_on_c, 14, 48, 76
16, 221519, Note_on_c, 14, 48, 0
16, 221520, Note_on_c, 14, 50, 76
16, 221699, Note_on_c, 14, 50, 0
16, 221700, Note_on_c, 14, 38, 76
16, 221759, Note_on_c, 14, 38, 0
16, 221760, Note_on_c, 14, 43, 76
16, 222239, Note_on_c, 14, 43, 0
16, 222240, Note_on_c, 14, 55, 76
16, 222719, Note_on_c, 14, 55, 0
16, 222720, Note_on_c, 14, 54, 76
16, 223259, Note_on_c, 14, 54, 0
16, 223260, Note_on_c, 14, 55, 76
16, 223319, Note_on_c, 14, 55, 0
16, 223320, Note_on_c, 14, 57, 76
16, 223379, Note_on_c, 14, 57, 0
16, 223380, Note_on_c, 14, 59, 76
16, 223439, Note_on_c, 14, 59, 0
16, 223440, Note_on_c, 14, 57, 76
16, 223499, Note_on_c, 14, 57, 0
16, 223500, Note_on_c, 14, 55, 76
16, 223559, Note_on_c, 14, 55, 0
16, 223560, Note_on_c, 14, 54, 76
16, 223619, Note_on_c, 14, 54, 0
16, 223620, Note_on_c, 14, 52, 76
16, 223679, Note_on_c, 14, 52, 0
16, 223680, Note_on_c, 14, 51, 76
16, 224339, Note_on_c, 14, 51, 0
16, 224340, Note_on_c, 14, 47, 76
16, 224399, Note_on_c, 14, 47, 0
16, 224400, Note_on_c, 14, 49, 76
16, 224579, Note_on_c, 14, 49, 0
16, 224580, Note_on_c, 14, 51, 76
16, 224639, Note_on_c, 14, 51, 0
16, 224640, Note_on_c, 14, 52, 76
16, 224819, Note_on_c, 14, 52, 0
16, 224820, Note_on_c, 14, 54, 76
16, 224879, Note_on_c, 14, 54, 0
16, 224880, Note_on_c, 14, 55, 76
16, 225059, Note_on_c, 14, 55, 0
16, 225060, Note_on_c, 14, 57, 76
16, 225119, Note_on_c, 14, 57, 0
16, 225120, Note_on_c, 14, 59, 76
16, 225299, Note_on_c, 14, 59, 0
16, 225300, Note_on_c, 14, 57, 76
16, 225329, Note_on_c, 14, 57, 0
16, 225330, Note_on_c, 14, 56, 76
16, 225359, Note_on_c, 14, 56, 0
16, 225360, Note_on_c, 14, 57, 76
16, 225539, Note_on_c, 14, 57, 0
16, 225540, Note_on_c, 14, 59, 76
16, 225599, Note_on_c, 14, 59, 0
16, 225600, Note_on_c, 14, 56, 76
16, 226139, Note_on_c, 14, 56, 0
16, 226140, Note_on_c, 14, 54, 76
16, 226199, Note_on_c, 14, 54, 0
16, 226200, Note_on_c, 14, 52, 76
16, 226259, Note_on_c, 14, 52, 0
16, 226260, Note_on_c, 14, 54, 76
16, 226319, Note_on_c, 14, 54, 0
16, 226320, Note_on_c, 14, 56, 76
16, 226379, Note_on_c, 14, 56, 0
16, 226380, Note_on_c, 14, 54, 76
16, 226439, Note_on_c, 14, 54, 0
16, 226440, Note_on_c, 14, 56, 76
16, 226499, Note_on_c, 14, 56, 0
16, 226500, Note_on_c, 14, 52, 76
16, 226559, Note_on_c, 14, 52, 0
16, 226560, Note_on_c, 14, 57, 76
16, 227099, Note_on_c, 14, 57, 0
16, 227100, Note_on_c, 14, 55, 76
16, 227159, Note_on_c, 14, 55, 0
16, 227160, Note_on_c, 14, 54, 76
16, 227219, Note_on_c, 14, 54, 0
16, 227220, Note_on_c, 14, 55, 76
16, 227279, Note_on_c, 14, 55, 0
16, 227280, Note_on_c, 14, 57, 76
16, 227339, Note_on_c, 14, 57, 0
16, 227340, Note_on_c, 14, 55, 76
16, 227399, Note_on_c, 14, 55, 0
16, 227400, Note_on_c, 14, 57, 76
16, 227459, Note_on_c, 14, 57, 0
16, 227460, Note_on_c, 14, 54, 76
16, 227519, Note_on_c, 14, 54, 0
16, 227520, Note_on_c, 14, 59, 76
16, 228059, Note_on_c, 14, 59, 0
16, 228060, Note_on_c, 14, 60, 76
16, 228119, Note_on_c, 14, 60, 0
16, 228120, Note_on_c, 14, 59, 76
16, 228179, Note_on_c, 14, 59, 0
16, 228180, Note_on_c, 14, 57, 76
16, 228239, Note_on_c, 14, 57, 0
16, 228240, Note_on_c, 14, 55, 76
16, 228299, Note_on_c, 14, 55, 0
16, 228300, Note_on_c, 14, 54, 76
16, 228359, Note_on_c, 14, 54, 0
16, 228360, Note_on_c, 14, 52, 76
16, 228419, Note_on_c, 14, 52, 0
16, 228420, Note_on_c, 14, 50, 76
16, 228479, Note_on_c, 14, 50, 0
16, 228480, Note_on_c, 14, 49, 76
16, 229019, Note_on_c, 14, 49, 0
16, 229020, Note_on_c, 14, 50, 76
16, 229079, Note_on_c, 14, 50, 0
16, 229080, Note_on_c, 14, 49, 76
16, 229139, Note_on_c, 14, 49, 0
16, 229140, Note_on_c, 14, 47, 76
16, 229199, Note_on_c, 14, 47, 0
16, 229200, Note_on_c, 14, 45, 76
16, 229259, Note_on_c, 14, 45, 0
16, 229260, Note_on_c, 14, 47, 76
16, 229319, Note_on_c, 14, 47, 0
16, 229320, Note_on_c, 14, 49, 76
16, 229379, Note_on_c, 14, 49, 0
16, 229380, Note_on_c, 14, 45, 76
16, 229439, Note_on_c, 14, 45, 0
16, 229440, Note_on_c, 14, 50, 76
16, 229979, Note_on_c, 14, 50, 0
16, 229980, Note_on_c, 14, 52, 76
16, 230039, Note_on_c, 14, 52, 0
16, 230040, Note_on_c, 14, 50, 76
16, 230099, Note_on_c, 14, 50, 0
16, 230100, Note_on_c, 14, 48, 76
16, 230159, Note_on_c, 14, 48, 0
16, 230160, Note_on_c, 14, 47, 76
16, 230219, Note_on_c, 14, 47, 0
16, 230220, Note_on_c, 14, 45, 76
16, 230279, Note_on_c, 14, 45, 0
16, 230280, Note_on_c, 14, 43, 76
16, 230339, Note_on_c, 14, 43, 0
16, 230340, Note_on_c, 14, 42, 76
16, 230399, Note_on_c, 14, 42, 0
16, 230400, Note_on_c, 14, 43, 76
16, 231359, Note_on_c, 14, 43, 0
16, 231360, Note_on_c, 14, 43, 76
16, 231659, Note_on_c, 14, 43, 0
16, 231660, Note_on_c, 14, 42, 76
16, 231719, Note_on_c, 14, 42, 0
16, 231720, Note_on_c, 14, 40, 76
16, 231779, Note_on_c, 14, 40, 0
16, 231780, Note_on_c, 14, 38, 76
16, 231839, Note_on_c, 14, 38, 0
16, 231840, Note_on_c, 14, 37, 76
16, 232019, Note_on_c, 14, 37, 0
16, 232020, Note_on_c, 14, 45, 76
16, 232079, Note_on_c, 14, 45, 0
16, 232080, Note_on_c, 14, 47, 76
16, 232259, Note_on_c, 14, 47, 0
16, 232260, Note_on_c, 14, 49, 76
16, 232319, Note_on_c, 14, 49, 0
16, 232320, Note_on_c, 14, 50, 76
16, 232499, Note_on_c, 14, 50, 0
16, 232500, Note_on_c, 14, 52, 76
16, 232559, Note_on_c, 14, 52, 0
16, 232560, Note_on_c, 14, 54, 76
16, 232739, Note_on_c, 14, 54, 0
16, 232740, Note_on_c, 14, 55, 76
16, 232799, Note_on_c, 14, 55, 0
16, 232800, Note_on_c, 14, 57, 76
16, 233039, Note_on_c, 14, 57, 0
16, 233040, Note_on_c, 14, 45, 76
16, 233279, Note_on_c, 14, 45, 0
16, 233280, Note_on_c, 14, 38, 76
16, 234239, Note_on_c, 14, 38, 0
16, 234239, End_track
17, 0, Start_track
17, 0, Title_t, "Johann Sebastian Bach - Orchestral Suite No. 3 in D Major, BWV1068 - No. 1 Overture"
17, 0, MIDI_port, 0
17, 0, End_track
0, 0, End_of_file
