0, 0, Header, 1, 14, 240
1, 0, Start_track
1, 0, Sequencer_specific, 10, 0, 0, 91, 35, 1, 0, 5, 6, 42, 0
1, 0, Title_t, "J. S. Bach - Orchestral Suite No.1 in C Major"
1, 0, Instrument_name_t, "Conductor Track"
1, 0, SMPTE_offset, 96, 0, 3, 0, 0
1, 0, MIDI_port, 0
1, 0, Marker_t, "Originally Sequenced 14 Aug 1999"
1, 0, Tempo, 340909
1, 0, Key_signature, 0, "major"
1, 0, Time_signature, 2, 2, 24, 8
1, 480, Time_signature, 6, 2, 72, 8
1, 66720, Tempo, 340909
1, 66960, Tempo, 348837
1, 67200, Tempo, 355029
1, 67440, Tempo, 363636
1, 67680, Tempo, 372670
1, 67920, Tempo, 379746
1, 68160, Tempo, 389610
1, 68400, Tempo, 400000
1, 68640, Tempo, 408163
1, 68880, Tempo, 1000000
1, 69360, Tempo, 1000000
1, 70560, Tempo, 1000000
1, 70560, End_track
2, 0, Start_track
2, 0, Title_t, "4th Movement - Forlane"
2, 0, MIDI_port, 0
2, 0, End_track
3, 0, Start_track
3, 0, Title_t, "Sequenced by D. L. Viens 30 Dec 1999"
3, 0, MIDI_port, 0
3, 0, End_track
4, 0, Start_track
4, 0, Title_t, "dlviens@empire.net"
4, 0, MIDI_port, 0
4, 0, End_track
5, 0, Start_track
5, 0, MIDI_port, 0
5, 0, End_track
6, 0, Start_track
6, 0, Title_t, "Oboe I"
6, 0, MIDI_port, 0
6, 0, Program_c, 0, 68
6, 0, Control_c, 0, 10, 55
6, 0, Control_c, 0, 11, 127
6, 0, Control_c, 0, 7, 80
6, 240, Note_on_c, 0, 72, 76
6, 464, Note_on_c, 0, 72, 0
6, 480, Note_on_c, 0, 79, 76
6, 944, Note_on_c, 0, 79, 0
6, 960, Note_on_c, 0, 79, 76
6, 1184, Note_on_c, 0, 79, 0
6, 1200, Note_on_c, 0, 79, 76
6, 1544, Note_on_c, 0, 79, 0
6, 1560, Note_on_c, 0, 81, 76
6, 1664, Note_on_c, 0, 81, 0
6, 1680, Note_on_c, 0, 82, 76
6, 1904, Note_on_c, 0, 82, 0
6, 1920, Note_on_c, 0, 81, 76
6, 2384, Note_on_c, 0, 81, 0
6, 2400, Note_on_c, 0, 74, 76
6, 2624, Note_on_c, 0, 74, 0
6, 2640, Note_on_c, 0, 74, 76
6, 2984, Note_on_c, 0, 74, 0
6, 3000, Note_on_c, 0, 76, 76
6, 3104, Note_on_c, 0, 76, 0
6, 3120, Note_on_c, 0, 77, 76
6, 3344, Note_on_c, 0, 77, 0
6, 3360, Note_on_c, 0, 71, 76
6, 3704, Note_on_c, 0, 71, 0
6, 3720, Note_on_c, 0, 72, 76
6, 3824, Note_on_c, 0, 72, 0
6, 3840, Note_on_c, 0, 74, 76
6, 4064, Note_on_c, 0, 74, 0
6, 4080, Note_on_c, 0, 67, 76
6, 4424, Note_on_c, 0, 67, 0
6, 4440, Note_on_c, 0, 79, 76
6, 4544, Note_on_c, 0, 79, 0
6, 4560, Note_on_c, 0, 77, 76
6, 4784, Note_on_c, 0, 77, 0
6, 4800, Note_on_c, 0, 76, 76
6, 5144, Note_on_c, 0, 76, 0
6, 5160, Note_on_c, 0, 77, 76
6, 5264, Note_on_c, 0, 77, 0
6, 5280, Note_on_c, 0, 79, 76
6, 5504, Note_on_c, 0, 79, 0
6, 5520, Note_on_c, 0, 72, 76
6, 5864, Note_on_c, 0, 72, 0
6, 5880, Note_on_c, 0, 74, 76
6, 5984, Note_on_c, 0, 74, 0
6, 6000, Note_on_c, 0, 76, 76
6, 6104, Note_on_c, 0, 76, 0
6, 6120, Note_on_c, 0, 77, 76
6, 6224, Note_on_c, 0, 77, 0
6, 6240, Note_on_c, 0, 79, 76
6, 6704, Note_on_c, 0, 79, 0
6, 6720, Note_on_c, 0, 79, 76
6, 6944, Note_on_c, 0, 79, 0
6, 6960, Note_on_c, 0, 79, 76
6, 7304, Note_on_c, 0, 79, 0
6, 7320, Note_on_c, 0, 84, 76
6, 7424, Note_on_c, 0, 84, 0
6, 7440, Note_on_c, 0, 81, 76
6, 7664, Note_on_c, 0, 81, 0
6, 7680, Note_on_c, 0, 78, 76
6, 8024, Note_on_c, 0, 78, 0
6, 8040, Note_on_c, 0, 79, 76
6, 8144, Note_on_c, 0, 79, 0
6, 8160, Note_on_c, 0, 81, 76
6, 8384, Note_on_c, 0, 81, 0
6, 8400, Note_on_c, 0, 74, 76
6, 8744, Note_on_c, 0, 74, 0
6, 8760, Note_on_c, 0, 76, 76
6, 8864, Note_on_c, 0, 76, 0
6, 8880, Note_on_c, 0, 78, 76
6, 9104, Note_on_c, 0, 78, 0
6, 9120, Note_on_c, 0, 79, 76
6, 9464, Note_on_c, 0, 79, 0
6, 9480, Note_on_c, 0, 74, 76
6, 9584, Note_on_c, 0, 74, 0
6, 9600, Note_on_c, 0, 76, 76
6, 9824, Note_on_c, 0, 76, 0
6, 9840, Note_on_c, 0, 69, 76
6, 10184, Note_on_c, 0, 69, 0
6, 10200, Note_on_c, 0, 71, 76
6, 10304, Note_on_c, 0, 71, 0
6, 10320, Note_on_c, 0, 72, 76
6, 10544, Note_on_c, 0, 72, 0
6, 10560, Note_on_c, 0, 71, 76
6, 11024, Note_on_c, 0, 71, 0
6, 11040, Note_on_c, 0, 67, 76
6, 11264, Note_on_c, 0, 67, 0
6, 11280, Note_on_c, 0, 67, 76
6, 11744, Note_on_c, 0, 67, 0
6, 11760, Note_on_c, 0, 72, 76
6, 11984, Note_on_c, 0, 72, 0
6, 12000, Note_on_c, 0, 79, 76
6, 12464, Note_on_c, 0, 79, 0
6, 12480, Note_on_c, 0, 79, 76
6, 12704, Note_on_c, 0, 79, 0
6, 12720, Note_on_c, 0, 79, 76
6, 13064, Note_on_c, 0, 79, 0
6, 13080, Note_on_c, 0, 81, 76
6, 13184, Note_on_c, 0, 81, 0
6, 13200, Note_on_c, 0, 82, 76
6, 13424, Note_on_c, 0, 82, 0
6, 13440, Note_on_c, 0, 81, 76
6, 13904, Note_on_c, 0, 81, 0
6, 13920, Note_on_c, 0, 74, 76
6, 14144, Note_on_c, 0, 74, 0
6, 14160, Note_on_c, 0, 74, 76
6, 14504, Note_on_c, 0, 74, 0
6, 14520, Note_on_c, 0, 76, 76
6, 14624, Note_on_c, 0, 76, 0
6, 14640, Note_on_c, 0, 77, 76
6, 14864, Note_on_c, 0, 77, 0
6, 14880, Note_on_c, 0, 71, 76
6, 15224, Note_on_c, 0, 71, 0
6, 15240, Note_on_c, 0, 72, 76
6, 15344, Note_on_c, 0, 72, 0
6, 15360, Note_on_c, 0, 74, 76
6, 15584, Note_on_c, 0, 74, 0
6, 15600, Note_on_c, 0, 67, 76
6, 15944, Note_on_c, 0, 67, 0
6, 15960, Note_on_c, 0, 79, 76
6, 16064, Note_on_c, 0, 79, 0
6, 16080, Note_on_c, 0, 77, 76
6, 16304, Note_on_c, 0, 77, 0
6, 16320, Note_on_c, 0, 76, 76
6, 16664, Note_on_c, 0, 76, 0
6, 16680, Note_on_c, 0, 77, 76
6, 16784, Note_on_c, 0, 77, 0
6, 16800, Note_on_c, 0, 79, 76
6, 17024, Note_on_c, 0, 79, 0
6, 17040, Note_on_c, 0, 72, 76
6, 17384, Note_on_c, 0, 72, 0
6, 17400, Note_on_c, 0, 74, 76
6, 17504, Note_on_c, 0, 74, 0
6, 17520, Note_on_c, 0, 76, 76
6, 17624, Note_on_c, 0, 76, 0
6, 17640, Note_on_c, 0, 77, 76
6, 17744, Note_on_c, 0, 77, 0
6, 17760, Note_on_c, 0, 79, 76
6, 18224, Note_on_c, 0, 79, 0
6, 18240, Note_on_c, 0, 79, 76
6, 18464, Note_on_c, 0, 79, 0
6, 18480, Note_on_c, 0, 79, 76
6, 18824, Note_on_c, 0, 79, 0
6, 18840, Note_on_c, 0, 84, 76
6, 18944, Note_on_c, 0, 84, 0
6, 18960, Note_on_c, 0, 81, 76
6, 19184, Note_on_c, 0, 81, 0
6, 19200, Note_on_c, 0, 78, 76
6, 19544, Note_on_c, 0, 78, 0
6, 19560, Note_on_c, 0, 79, 76
6, 19664, Note_on_c, 0, 79, 0
6, 19680, Note_on_c, 0, 81, 76
6, 19904, Note_on_c, 0, 81, 0
6, 19920, Note_on_c, 0, 74, 76
6, 20264, Note_on_c, 0, 74, 0
6, 20280, Note_on_c, 0, 76, 76
6, 20384, Note_on_c, 0, 76, 0
6, 20400, Note_on_c, 0, 78, 76
6, 20624, Note_on_c, 0, 78, 0
6, 20640, Note_on_c, 0, 79, 76
6, 20984, Note_on_c, 0, 79, 0
6, 21000, Note_on_c, 0, 74, 76
6, 21104, Note_on_c, 0, 74, 0
6, 21120, Note_on_c, 0, 76, 76
6, 21344, Note_on_c, 0, 76, 0
6, 21360, Note_on_c, 0, 69, 76
6, 21704, Note_on_c, 0, 69, 0
6, 21720, Note_on_c, 0, 71, 76
6, 21824, Note_on_c, 0, 71, 0
6, 21840, Note_on_c, 0, 72, 76
6, 22064, Note_on_c, 0, 72, 0
6, 22080, Note_on_c, 0, 71, 76
6, 22544, Note_on_c, 0, 71, 0
6, 22560, Note_on_c, 0, 67, 76
6, 22784, Note_on_c, 0, 67, 0
6, 22800, Note_on_c, 0, 67, 76
6, 23264, Note_on_c, 0, 67, 0
6, 23280, Note_on_c, 0, 74, 76
6, 23504, Note_on_c, 0, 74, 0
6, 23520, Note_on_c, 0, 71, 76
6, 23984, Note_on_c, 0, 71, 0
6, 24000, Note_on_c, 0, 71, 76
6, 24224, Note_on_c, 0, 71, 0
6, 24240, Note_on_c, 0, 71, 76
6, 24584, Note_on_c, 0, 71, 0
6, 24600, Note_on_c, 0, 69, 76
6, 24704, Note_on_c, 0, 69, 0
6, 24720, Note_on_c, 0, 67, 76
6, 24944, Note_on_c, 0, 67, 0
6, 24960, Note_on_c, 0, 77, 76
6, 25304, Note_on_c, 0, 77, 0
6, 25320, Note_on_c, 0, 76, 76
6, 25424, Note_on_c, 0, 76, 0
6, 25440, Note_on_c, 0, 74, 76
6, 25664, Note_on_c, 0, 74, 0
6, 25680, Note_on_c, 0, 83, 76
6, 26024, Note_on_c, 0, 83, 0
6, 26040, Note_on_c, 0, 74, 76
6, 26144, Note_on_c, 0, 74, 0
6, 26160, Note_on_c, 0, 77, 76
6, 26384, Note_on_c, 0, 77, 0
6, 26400, Note_on_c, 0, 76, 76
6, 26744, Note_on_c, 0, 76, 0
6, 26760, Note_on_c, 0, 74, 76
6, 26864, Note_on_c, 0, 74, 0
6, 26880, Note_on_c, 0, 72, 76
6, 27104, Note_on_c, 0, 72, 0
6, 27120, Note_on_c, 0, 71, 76
6, 27464, Note_on_c, 0, 71, 0
6, 27480, Note_on_c, 0, 76, 76
6, 27584, Note_on_c, 0, 76, 0
6, 27600, Note_on_c, 0, 74, 76
6, 27824, Note_on_c, 0, 74, 0
6, 27840, Note_on_c, 0, 72, 76
6, 28304, Note_on_c, 0, 72, 0
6, 28320, Note_on_c, 0, 69, 76
6, 28544, Note_on_c, 0, 69, 0
6, 28560, Note_on_c, 0, 69, 76
6, 28904, Note_on_c, 0, 69, 0
6, 28920, Note_on_c, 0, 71, 76
6, 29024, Note_on_c, 0, 71, 0
6, 29040, Note_on_c, 0, 72, 76
6, 29144, Note_on_c, 0, 72, 0
6, 29160, Note_on_c, 0, 74, 76
6, 29264, Note_on_c, 0, 74, 0
6, 29280, Note_on_c, 0, 76, 76
6, 29744, Note_on_c, 0, 76, 0
6, 29760, Note_on_c, 0, 76, 76
6, 29984, Note_on_c, 0, 76, 0
6, 30000, Note_on_c, 0, 76, 76
6, 30344, Note_on_c, 0, 76, 0
6, 30360, Note_on_c, 0, 82, 76
6, 30464, Note_on_c, 0, 82, 0
6, 30480, Note_on_c, 0, 79, 76
6, 30704, Note_on_c, 0, 79, 0
6, 30720, Note_on_c, 0, 76, 76
6, 31064, Note_on_c, 0, 76, 0
6, 31080, Note_on_c, 0, 79, 76
6, 31184, Note_on_c, 0, 79, 0
6, 31200, Note_on_c, 0, 76, 76
6, 31424, Note_on_c, 0, 76, 0
6, 31440, Note_on_c, 0, 73, 76
6, 31784, Note_on_c, 0, 73, 0
6, 31800, Note_on_c, 0, 76, 76
6, 31904, Note_on_c, 0, 76, 0
6, 31920, Note_on_c, 0, 73, 76
6, 32144, Note_on_c, 0, 73, 0
6, 32160, Note_on_c, 0, 69, 76
6, 32504, Note_on_c, 0, 69, 0
6, 32520, Note_on_c, 0, 81, 76
6, 32624, Note_on_c, 0, 81, 0
6, 32640, Note_on_c, 0, 77, 76
6, 32864, Note_on_c, 0, 77, 0
6, 32880, Note_on_c, 0, 74, 76
6, 33224, Note_on_c, 0, 74, 0
6, 33240, Note_on_c, 0, 76, 76
6, 33344, Note_on_c, 0, 76, 0
6, 33360, Note_on_c, 0, 73, 76
6, 33584, Note_on_c, 0, 73, 0
6, 33600, Note_on_c, 0, 74, 76
6, 34064, Note_on_c, 0, 74, 0
6, 34080, Note_on_c, 0, 74, 76
6, 34304, Note_on_c, 0, 74, 0
6, 34320, Note_on_c, 0, 74, 76
6, 34784, Note_on_c, 0, 74, 0
6, 34800, Note_on_c, 0, 77, 76
6, 35024, Note_on_c, 0, 77, 0
6, 35040, Note_on_c, 0, 77, 76
6, 36104, Note_on_c, 0, 77, 0
6, 36120, Note_on_c, 0, 74, 76
6, 36224, Note_on_c, 0, 74, 0
6, 36240, Note_on_c, 0, 76, 76
6, 36464, Note_on_c, 0, 76, 0
6, 36480, Note_on_c, 0, 77, 76
6, 36944, Note_on_c, 0, 77, 0
6, 36960, Note_on_c, 0, 67, 76
6, 37184, Note_on_c, 0, 67, 0
6, 37200, Note_on_c, 0, 67, 76
6, 37544, Note_on_c, 0, 67, 0
6, 37560, Note_on_c, 0, 70, 76
6, 37664, Note_on_c, 0, 70, 0
6, 37680, Note_on_c, 0, 69, 76
6, 37904, Note_on_c, 0, 69, 0
6, 37920, Note_on_c, 0, 70, 76
6, 38984, Note_on_c, 0, 70, 0
6, 39000, Note_on_c, 0, 74, 76
6, 39104, Note_on_c, 0, 74, 0
6, 39120, Note_on_c, 0, 72, 76
6, 39344, Note_on_c, 0, 72, 0
6, 39360, Note_on_c, 0, 69, 76
6, 39704, Note_on_c, 0, 69, 0
6, 39720, Note_on_c, 0, 72, 76
6, 39824, Note_on_c, 0, 72, 0
6, 39840, Note_on_c, 0, 71, 76
6, 40064, Note_on_c, 0, 71, 0
6, 40080, Note_on_c, 0, 72, 76
6, 40424, Note_on_c, 0, 72, 0
6, 40440, Note_on_c, 0, 76, 76
6, 40544, Note_on_c, 0, 76, 0
6, 40560, Note_on_c, 0, 74, 76
6, 40784, Note_on_c, 0, 74, 0
6, 40800, Note_on_c, 0, 71, 76
6, 41144, Note_on_c, 0, 71, 0
6, 41160, Note_on_c, 0, 74, 76
6, 41264, Note_on_c, 0, 74, 0
6, 41280, Note_on_c, 0, 72, 76
6, 41504, Note_on_c, 0, 72, 0
6, 41520, Note_on_c, 0, 74, 76
6, 41864, Note_on_c, 0, 74, 0
6, 41880, Note_on_c, 0, 77, 76
6, 41984, Note_on_c, 0, 77, 0
6, 42000, Note_on_c, 0, 76, 76
6, 42224, Note_on_c, 0, 76, 0
6, 42240, Note_on_c, 0, 72, 76
6, 42584, Note_on_c, 0, 72, 0
6, 42600, Note_on_c, 0, 77, 76
6, 42704, Note_on_c, 0, 77, 0
6, 42720, Note_on_c, 0, 81, 76
6, 43304, Note_on_c, 0, 81, 0
6, 43320, Note_on_c, 0, 79, 76
6, 43424, Note_on_c, 0, 79, 0
6, 43440, Note_on_c, 0, 77, 76
6, 43664, Note_on_c, 0, 77, 0
6, 43680, Note_on_c, 0, 76, 76
6, 44024, Note_on_c, 0, 76, 0
6, 44040, Note_on_c, 0, 77, 76
6, 44144, Note_on_c, 0, 77, 0
6, 44160, Note_on_c, 0, 79, 76
6, 44384, Note_on_c, 0, 79, 0
6, 44400, Note_on_c, 0, 67, 76
6, 44744, Note_on_c, 0, 67, 0
6, 44760, Note_on_c, 0, 69, 76
6, 44864, Note_on_c, 0, 69, 0
6, 44880, Note_on_c, 0, 71, 76
6, 45104, Note_on_c, 0, 71, 0
6, 45120, Note_on_c, 0, 72, 76
6, 45584, Note_on_c, 0, 72, 0
6, 45600, Note_on_c, 0, 72, 76
6, 45824, Note_on_c, 0, 72, 0
6, 45840, Note_on_c, 0, 72, 76
6, 46304, Note_on_c, 0, 72, 0
6, 46320, Note_on_c, 0, 74, 76
6, 46544, Note_on_c, 0, 74, 0
6, 46560, Note_on_c, 0, 71, 76
6, 47024, Note_on_c, 0, 71, 0
6, 47040, Note_on_c, 0, 71, 76
6, 47264, Note_on_c, 0, 71, 0
6, 47280, Note_on_c, 0, 71, 76
6, 47624, Note_on_c, 0, 71, 0
6, 47640, Note_on_c, 0, 69, 76
6, 47744, Note_on_c, 0, 69, 0
6, 47760, Note_on_c, 0, 67, 76
6, 47984, Note_on_c, 0, 67, 0
6, 48000, Note_on_c, 0, 77, 76
6, 48344, Note_on_c, 0, 77, 0
6, 48360, Note_on_c, 0, 76, 76
6, 48464, Note_on_c, 0, 76, 0
6, 48480, Note_on_c, 0, 74, 76
6, 48704, Note_on_c, 0, 74, 0
6, 48720, Note_on_c, 0, 83, 76
6, 49064, Note_on_c, 0, 83, 0
6, 49080, Note_on_c, 0, 74, 76
6, 49184, Note_on_c, 0, 74, 0
6, 49200, Note_on_c, 0, 77, 76
6, 49424, Note_on_c, 0, 77, 0
6, 49440, Note_on_c, 0, 76, 76
6, 49784, Note_on_c, 0, 76, 0
6, 49800, Note_on_c, 0, 74, 76
6, 49904, Note_on_c, 0, 74, 0
6, 49920, Note_on_c, 0, 72, 76
6, 50144, Note_on_c, 0, 72, 0
6, 50160, Note_on_c, 0, 71, 76
6, 50504, Note_on_c, 0, 71, 0
6, 50520, Note_on_c, 0, 76, 76
6, 50624, Note_on_c, 0, 76, 0
6, 50640, Note_on_c, 0, 74, 76
6, 50864, Note_on_c, 0, 74, 0
6, 50880, Note_on_c, 0, 72, 76
6, 51344, Note_on_c, 0, 72, 0
6, 51360, Note_on_c, 0, 69, 76
6, 51584, Note_on_c, 0, 69, 0
6, 51600, Note_on_c, 0, 69, 76
6, 51944, Note_on_c, 0, 69, 0
6, 51960, Note_on_c, 0, 71, 76
6, 52064, Note_on_c, 0, 71, 0
6, 52080, Note_on_c, 0, 72, 76
6, 52184, Note_on_c, 0, 72, 0
6, 52200, Note_on_c, 0, 74, 76
6, 52304, Note_on_c, 0, 74, 0
6, 52320, Note_on_c, 0, 76, 76
6, 52784, Note_on_c, 0, 76, 0
6, 52800, Note_on_c, 0, 76, 76
6, 53024, Note_on_c, 0, 76, 0
6, 53040, Note_on_c, 0, 76, 76
6, 53384, Note_on_c, 0, 76, 0
6, 53400, Note_on_c, 0, 82, 76
6, 53504, Note_on_c, 0, 82, 0
6, 53520, Note_on_c, 0, 79, 76
6, 53744, Note_on_c, 0, 79, 0
6, 53760, Note_on_c, 0, 76, 76
6, 54104, Note_on_c, 0, 76, 0
6, 54120, Note_on_c, 0, 79, 76
6, 54224, Note_on_c, 0, 79, 0
6, 54240, Note_on_c, 0, 76, 76
6, 54464, Note_on_c, 0, 76, 0
6, 54480, Note_on_c, 0, 73, 76
6, 54824, Note_on_c, 0, 73, 0
6, 54840, Note_on_c, 0, 76, 76
6, 54944, Note_on_c, 0, 76, 0
6, 54960, Note_on_c, 0, 73, 76
6, 55184, Note_on_c, 0, 73, 0
6, 55200, Note_on_c, 0, 69, 76
6, 55544, Note_on_c, 0, 69, 0
6, 55560, Note_on_c, 0, 81, 76
6, 55664, Note_on_c, 0, 81, 0
6, 55680, Note_on_c, 0, 77, 76
6, 55904, Note_on_c, 0, 77, 0
6, 55920, Note_on_c, 0, 74, 76
6, 56264, Note_on_c, 0, 74, 0
6, 56280, Note_on_c, 0, 76, 76
6, 56384, Note_on_c, 0, 76, 0
6, 56400, Note_on_c, 0, 73, 76
6, 56624, Note_on_c, 0, 73, 0
6, 56640, Note_on_c, 0, 74, 76
6, 57104, Note_on_c, 0, 74, 0
6, 57120, Note_on_c, 0, 74, 76
6, 57344, Note_on_c, 0, 74, 0
6, 57360, Note_on_c, 0, 74, 76
6, 57824, Note_on_c, 0, 74, 0
6, 57840, Note_on_c, 0, 77, 76
6, 58064, Note_on_c, 0, 77, 0
6, 58080, Note_on_c, 0, 77, 76
6, 59144, Note_on_c, 0, 77, 0
6, 59160, Note_on_c, 0, 74, 76
6, 59264, Note_on_c, 0, 74, 0
6, 59280, Note_on_c, 0, 76, 76
6, 59504, Note_on_c, 0, 76, 0
6, 59520, Note_on_c, 0, 77, 76
6, 59984, Note_on_c, 0, 77, 0
6, 60000, Note_on_c, 0, 67, 76
6, 60224, Note_on_c, 0, 67, 0
6, 60240, Note_on_c, 0, 67, 76
6, 60584, Note_on_c, 0, 67, 0
6, 60600, Note_on_c, 0, 70, 76
6, 60704, Note_on_c, 0, 70, 0
6, 60720, Note_on_c, 0, 69, 76
6, 60944, Note_on_c, 0, 69, 0
6, 60960, Note_on_c, 0, 70, 76
6, 62024, Note_on_c, 0, 70, 0
6, 62040, Note_on_c, 0, 74, 76
6, 62144, Note_on_c, 0, 74, 0
6, 62160, Note_on_c, 0, 72, 76
6, 62384, Note_on_c, 0, 72, 0
6, 62400, Note_on_c, 0, 69, 76
6, 62744, Note_on_c, 0, 69, 0
6, 62760, Note_on_c, 0, 72, 76
6, 62864, Note_on_c, 0, 72, 0
6, 62880, Note_on_c, 0, 71, 76
6, 63104, Note_on_c, 0, 71, 0
6, 63120, Note_on_c, 0, 72, 76
6, 63464, Note_on_c, 0, 72, 0
6, 63480, Note_on_c, 0, 76, 76
6, 63584, Note_on_c, 0, 76, 0
6, 63600, Note_on_c, 0, 74, 76
6, 63824, Note_on_c, 0, 74, 0
6, 63840, Note_on_c, 0, 71, 76
6, 64184, Note_on_c, 0, 71, 0
6, 64200, Note_on_c, 0, 74, 76
6, 64304, Note_on_c, 0, 74, 0
6, 64320, Note_on_c, 0, 72, 76
6, 64544, Note_on_c, 0, 72, 0
6, 64560, Note_on_c, 0, 74, 76
6, 64904, Note_on_c, 0, 74, 0
6, 64920, Note_on_c, 0, 77, 76
6, 65024, Note_on_c, 0, 77, 0
6, 65040, Note_on_c, 0, 76, 76
6, 65264, Note_on_c, 0, 76, 0
6, 65280, Note_on_c, 0, 72, 76
6, 65624, Note_on_c, 0, 72, 0
6, 65640, Note_on_c, 0, 77, 76
6, 65744, Note_on_c, 0, 77, 0
6, 65760, Note_on_c, 0, 81, 76
6, 66344, Note_on_c, 0, 81, 0
6, 66360, Note_on_c, 0, 79, 76
6, 66464, Note_on_c, 0, 79, 0
6, 66480, Note_on_c, 0, 77, 76
6, 66704, Note_on_c, 0, 77, 0
6, 66720, Note_on_c, 0, 76, 76
6, 67064, Note_on_c, 0, 76, 0
6, 67080, Note_on_c, 0, 77, 76
6, 67184, Note_on_c, 0, 77, 0
6, 67200, Note_on_c, 0, 79, 76
6, 67424, Note_on_c, 0, 79, 0
6, 67440, Note_on_c, 0, 67, 76
6, 67784, Note_on_c, 0, 67, 0
6, 67800, Note_on_c, 0, 69, 76
6, 67904, Note_on_c, 0, 69, 0
6, 67920, Note_on_c, 0, 71, 76
6, 68144, Note_on_c, 0, 71, 0
6, 68160, Note_on_c, 0, 72, 76
6, 68624, Note_on_c, 0, 72, 0
6, 68640, Note_on_c, 0, 72, 76
6, 68864, Note_on_c, 0, 72, 0
6, 68880, Note_on_c, 0, 72, 76
6, 69359, Note_on_c, 0, 72, 0
6, 69359, End_track
7, 0, Start_track
7, 0, Title_t, "Oboe II"
7, 0, MIDI_port, 0
7, 0, Program_c, 1, 68
7, 0, Control_c, 1, 10, 65
7, 0, Control_c, 1, 11, 127
7, 0, Control_c, 1, 7, 80
7, 240, Note_on_c, 1, 72, 76
7, 464, Note_on_c, 1, 72, 0
7, 480, Note_on_c, 1, 79, 76
7, 944, Note_on_c, 1, 79, 0
7, 960, Note_on_c, 1, 79, 76
7, 1184, Note_on_c, 1, 79, 0
7, 1200, Note_on_c, 1, 79, 76
7, 1544, Note_on_c, 1, 79, 0
7, 1560, Note_on_c, 1, 81, 76
7, 1664, Note_on_c, 1, 81, 0
7, 1680, Note_on_c, 1, 82, 76
7, 1904, Note_on_c, 1, 82, 0
7, 1920, Note_on_c, 1, 81, 76
7, 2384, Note_on_c, 1, 81, 0
7, 2400, Note_on_c, 1, 74, 76
7, 2624, Note_on_c, 1, 74, 0
7, 2640, Note_on_c, 1, 74, 76
7, 2984, Note_on_c, 1, 74, 0
7, 3000, Note_on_c, 1, 76, 76
7, 3104, Note_on_c, 1, 76, 0
7, 3120, Note_on_c, 1, 77, 76
7, 3344, Note_on_c, 1, 77, 0
7, 3360, Note_on_c, 1, 71, 76
7, 3704, Note_on_c, 1, 71, 0
7, 3720, Note_on_c, 1, 72, 76
7, 3824, Note_on_c, 1, 72, 0
7, 3840, Note_on_c, 1, 74, 76
7, 4064, Note_on_c, 1, 74, 0
7, 4080, Note_on_c, 1, 67, 76
7, 4424, Note_on_c, 1, 67, 0
7, 4440, Note_on_c, 1, 79, 76
7, 4544, Note_on_c, 1, 79, 0
7, 4560, Note_on_c, 1, 77, 76
7, 4784, Note_on_c, 1, 77, 0
7, 4800, Note_on_c, 1, 76, 76
7, 5144, Note_on_c, 1, 76, 0
7, 5160, Note_on_c, 1, 77, 76
7, 5264, Note_on_c, 1, 77, 0
7, 5280, Note_on_c, 1, 79, 76
7, 5504, Note_on_c, 1, 79, 0
7, 5520, Note_on_c, 1, 72, 76
7, 5864, Note_on_c, 1, 72, 0
7, 5880, Note_on_c, 1, 74, 76
7, 5984, Note_on_c, 1, 74, 0
7, 6000, Note_on_c, 1, 76, 76
7, 6104, Note_on_c, 1, 76, 0
7, 6120, Note_on_c, 1, 77, 76
7, 6224, Note_on_c, 1, 77, 0
7, 6240, Note_on_c, 1, 79, 76
7, 6704, Note_on_c, 1, 79, 0
7, 6720, Note_on_c, 1, 79, 76
7, 6944, Note_on_c, 1, 79, 0
7, 6960, Note_on_c, 1, 79, 76
7, 7304, Note_on_c, 1, 79, 0
7, 7320, Note_on_c, 1, 84, 76
7, 7424, Note_on_c, 1, 84, 0
7, 7440, Note_on_c, 1, 81, 76
7, 7664, Note_on_c, 1, 81, 0
7, 7680, Note_on_c, 1, 78, 76
7, 8024, Note_on_c, 1, 78, 0
7, 8040, Note_on_c, 1, 79, 76
7, 8144, Note_on_c, 1, 79, 0
7, 8160, Note_on_c, 1, 81, 76
7, 8384, Note_on_c, 1, 81, 0
7, 8400, Note_on_c, 1, 74, 76
7, 8744, Note_on_c, 1, 74, 0
7, 8760, Note_on_c, 1, 76, 76
7, 8864, Note_on_c, 1, 76, 0
7, 8880, Note_on_c, 1, 78, 76
7, 9104, Note_on_c, 1, 78, 0
7, 9120, Note_on_c, 1, 79, 76
7, 9464, Note_on_c, 1, 79, 0
7, 9480, Note_on_c, 1, 74, 76
7, 9584, Note_on_c, 1, 74, 0
7, 9600, Note_on_c, 1, 76, 76
7, 9824, Note_on_c, 1, 76, 0
7, 9840, Note_on_c, 1, 69, 76
7, 10184, Note_on_c, 1, 69, 0
7, 10200, Note_on_c, 1, 71, 76
7, 10304, Note_on_c, 1, 71, 0
7, 10320, Note_on_c, 1, 72, 76
7, 10544, Note_on_c, 1, 72, 0
7, 10560, Note_on_c, 1, 71, 76
7, 11024, Note_on_c, 1, 71, 0
7, 11040, Note_on_c, 1, 67, 76
7, 11264, Note_on_c, 1, 67, 0
7, 11280, Note_on_c, 1, 67, 76
7, 11744, Note_on_c, 1, 67, 0
7, 11760, Note_on_c, 1, 72, 76
7, 11984, Note_on_c, 1, 72, 0
7, 12000, Note_on_c, 1, 79, 76
7, 12464, Note_on_c, 1, 79, 0
7, 12480, Note_on_c, 1, 79, 76
7, 12704, Note_on_c, 1, 79, 0
7, 12720, Note_on_c, 1, 79, 76
7, 13064, Note_on_c, 1, 79, 0
7, 13080, Note_on_c, 1, 81, 76
7, 13184, Note_on_c, 1, 81, 0
7, 13200, Note_on_c, 1, 82, 76
7, 13424, Note_on_c, 1, 82, 0
7, 13440, Note_on_c, 1, 81, 76
7, 13904, Note_on_c, 1, 81, 0
7, 13920, Note_on_c, 1, 74, 76
7, 14144, Note_on_c, 1, 74, 0
7, 14160, Note_on_c, 1, 74, 76
7, 14504, Note_on_c, 1, 74, 0
7, 14520, Note_on_c, 1, 76, 76
7, 14624, Note_on_c, 1, 76, 0
7, 14640, Note_on_c, 1, 77, 76
7, 14864, Note_on_c, 1, 77, 0
7, 14880, Note_on_c, 1, 71, 76
7, 15224, Note_on_c, 1, 71, 0
7, 15240, Note_on_c, 1, 72, 76
7, 15344, Note_on_c, 1, 72, 0
7, 15360, Note_on_c, 1, 74, 76
7, 15584, Note_on_c, 1, 74, 0
7, 15600, Note_on_c, 1, 67, 76
7, 15944, Note_on_c, 1, 67, 0
7, 15960, Note_on_c, 1, 79, 76
7, 16064, Note_on_c, 1, 79, 0
7, 16080, Note_on_c, 1, 77, 76
7, 16304, Note_on_c, 1, 77, 0
7, 16320, Note_on_c, 1, 76, 76
7, 16664, Note_on_c, 1, 76, 0
7, 16680, Note_on_c, 1, 77, 76
7, 16784, Note_on_c, 1, 77, 0
7, 16800, Note_on_c, 1, 79, 76
7, 17024, Note_on_c, 1, 79, 0
7, 17040, Note_on_c, 1, 72, 76
7, 17384, Note_on_c, 1, 72, 0
7, 17400, Note_on_c, 1, 74, 76
7, 17504, Note_on_c, 1, 74, 0
7, 17520, Note_on_c, 1, 76, 76
7, 17624, Note_on_c, 1, 76, 0
7, 17640, Note_on_c, 1, 77, 76
7, 17744, Note_on_c, 1, 77, 0
7, 17760, Note_on_c, 1, 79, 76
7, 18224, Note_on_c, 1, 79, 0
7, 18240, Note_on_c, 1, 79, 76
7, 18464, Note_on_c, 1, 79, 0
7, 18480, Note_on_c, 1, 79, 76
7, 18824, Note_on_c, 1, 79, 0
7, 18840, Note_on_c, 1, 84, 76
7, 18944, Note_on_c, 1, 84, 0
7, 18960, Note_on_c, 1, 81, 76
7, 19184, Note_on_c, 1, 81, 0
7, 19200, Note_on_c, 1, 78, 76
7, 19544, Note_on_c, 1, 78, 0
7, 19560, Note_on_c, 1, 79, 76
7, 19664, Note_on_c, 1, 79, 0
7, 19680, Note_on_c, 1, 81, 76
7, 19904, Note_on_c, 1, 81, 0
7, 19920, Note_on_c, 1, 74, 76
7, 20264, Note_on_c, 1, 74, 0
7, 20280, Note_on_c, 1, 76, 76
7, 20384, Note_on_c, 1, 76, 0
7, 20400, Note_on_c, 1, 78, 76
7, 20624, Note_on_c, 1, 78, 0
7, 20640, Note_on_c, 1, 79, 76
7, 20984, Note_on_c, 1, 79, 0
7, 21000, Note_on_c, 1, 74, 76
7, 21104, Note_on_c, 1, 74, 0
7, 21120, Note_on_c, 1, 76, 76
7, 21344, Note_on_c, 1, 76, 0
7, 21360, Note_on_c, 1, 69, 76
7, 21704, Note_on_c, 1, 69, 0
7, 21720, Note_on_c, 1, 71, 76
7, 21824, Note_on_c, 1, 71, 0
7, 21840, Note_on_c, 1, 72, 76
7, 22064, Note_on_c, 1, 72, 0
7, 22080, Note_on_c, 1, 71, 76
7, 22544, Note_on_c, 1, 71, 0
7, 22560, Note_on_c, 1, 67, 76
7, 22784, Note_on_c, 1, 67, 0
7, 22800, Note_on_c, 1, 67, 76
7, 23264, Note_on_c, 1, 67, 0
7, 23280, Note_on_c, 1, 74, 76
7, 23504, Note_on_c, 1, 74, 0
7, 23520, Note_on_c, 1, 71, 76
7, 23984, Note_on_c, 1, 71, 0
7, 24000, Note_on_c, 1, 71, 76
7, 24224, Note_on_c, 1, 71, 0
7, 24240, Note_on_c, 1, 71, 76
7, 24584, Note_on_c, 1, 71, 0
7, 24600, Note_on_c, 1, 69, 76
7, 24704, Note_on_c, 1, 69, 0
7, 24720, Note_on_c, 1, 67, 76
7, 24944, Note_on_c, 1, 67, 0
7, 24960, Note_on_c, 1, 77, 76
7, 25304, Note_on_c, 1, 77, 0
7, 25320, Note_on_c, 1, 76, 76
7, 25424, Note_on_c, 1, 76, 0
7, 25440, Note_on_c, 1, 74, 76
7, 25664, Note_on_c, 1, 74, 0
7, 25680, Note_on_c, 1, 83, 76
7, 26024, Note_on_c, 1, 83, 0
7, 26040, Note_on_c, 1, 74, 76
7, 26144, Note_on_c, 1, 74, 0
7, 26160, Note_on_c, 1, 77, 76
7, 26384, Note_on_c, 1, 77, 0
7, 26400, Note_on_c, 1, 76, 76
7, 26744, Note_on_c, 1, 76, 0
7, 26760, Note_on_c, 1, 74, 76
7, 26864, Note_on_c, 1, 74, 0
7, 26880, Note_on_c, 1, 72, 76
7, 27104, Note_on_c, 1, 72, 0
7, 27120, Note_on_c, 1, 71, 76
7, 27464, Note_on_c, 1, 71, 0
7, 27480, Note_on_c, 1, 76, 76
7, 27584, Note_on_c, 1, 76, 0
7, 27600, Note_on_c, 1, 74, 76
7, 27824, Note_on_c, 1, 74, 0
7, 27840, Note_on_c, 1, 72, 76
7, 28304, Note_on_c, 1, 72, 0
7, 28320, Note_on_c, 1, 69, 76
7, 28544, Note_on_c, 1, 69, 0
7, 28560, Note_on_c, 1, 69, 76
7, 28904, Note_on_c, 1, 69, 0
7, 28920, Note_on_c, 1, 71, 76
7, 29024, Note_on_c, 1, 71, 0
7, 29040, Note_on_c, 1, 72, 76
7, 29144, Note_on_c, 1, 72, 0
7, 29160, Note_on_c, 1, 74, 76
7, 29264, Note_on_c, 1, 74, 0
7, 29280, Note_on_c, 1, 76, 76
7, 29744, Note_on_c, 1, 76, 0
7, 29760, Note_on_c, 1, 76, 76
7, 29984, Note_on_c, 1, 76, 0
7, 30000, Note_on_c, 1, 76, 76
7, 30344, Note_on_c, 1, 76, 0
7, 30360, Note_on_c, 1, 82, 76
7, 30464, Note_on_c, 1, 82, 0
7, 30480, Note_on_c, 1, 79, 76
7, 30704, Note_on_c, 1, 79, 0
7, 30720, Note_on_c, 1, 76, 76
7, 31064, Note_on_c, 1, 76, 0
7, 31080, Note_on_c, 1, 79, 76
7, 31184, Note_on_c, 1, 79, 0
7, 31200, Note_on_c, 1, 76, 76
7, 31424, Note_on_c, 1, 76, 0
7, 31440, Note_on_c, 1, 73, 76
7, 31784, Note_on_c, 1, 73, 0
7, 31800, Note_on_c, 1, 76, 76
7, 31904, Note_on_c, 1, 76, 0
7, 31920, Note_on_c, 1, 73, 76
7, 32144, Note_on_c, 1, 73, 0
7, 32160, Note_on_c, 1, 69, 76
7, 32504, Note_on_c, 1, 69, 0
7, 32520, Note_on_c, 1, 81, 76
7, 32624, Note_on_c, 1, 81, 0
7, 32640, Note_on_c, 1, 77, 76
7, 32864, Note_on_c, 1, 77, 0
7, 32880, Note_on_c, 1, 74, 76
7, 33224, Note_on_c, 1, 74, 0
7, 33240, Note_on_c, 1, 76, 76
7, 33344, Note_on_c, 1, 76, 0
7, 33360, Note_on_c, 1, 73, 76
7, 33584, Note_on_c, 1, 73, 0
7, 33600, Note_on_c, 1, 74, 76
7, 34064, Note_on_c, 1, 74, 0
7, 34080, Note_on_c, 1, 74, 76
7, 34304, Note_on_c, 1, 74, 0
7, 34320, Note_on_c, 1, 74, 76
7, 34784, Note_on_c, 1, 74, 0
7, 34800, Note_on_c, 1, 77, 76
7, 35024, Note_on_c, 1, 77, 0
7, 35040, Note_on_c, 1, 77, 76
7, 36104, Note_on_c, 1, 77, 0
7, 36120, Note_on_c, 1, 74, 76
7, 36224, Note_on_c, 1, 74, 0
7, 36240, Note_on_c, 1, 76, 76
7, 36464, Note_on_c, 1, 76, 0
7, 36480, Note_on_c, 1, 77, 76
7, 36944, Note_on_c, 1, 77, 0
7, 36960, Note_on_c, 1, 67, 76
7, 37184, Note_on_c, 1, 67, 0
7, 37200, Note_on_c, 1, 67, 76
7, 37544, Note_on_c, 1, 67, 0
7, 37560, Note_on_c, 1, 70, 76
7, 37664, Note_on_c, 1, 70, 0
7, 37680, Note_on_c, 1, 69, 76
7, 37904, Note_on_c, 1, 69, 0
7, 37920, Note_on_c, 1, 70, 76
7, 38984, Note_on_c, 1, 70, 0
7, 39000, Note_on_c, 1, 74, 76
7, 39104, Note_on_c, 1, 74, 0
7, 39120, Note_on_c, 1, 72, 76
7, 39344, Note_on_c, 1, 72, 0
7, 39360, Note_on_c, 1, 69, 76
7, 39704, Note_on_c, 1, 69, 0
7, 39720, Note_on_c, 1, 72, 76
7, 39824, Note_on_c, 1, 72, 0
7, 39840, Note_on_c, 1, 71, 76
7, 40064, Note_on_c, 1, 71, 0
7, 40080, Note_on_c, 1, 72, 76
7, 40424, Note_on_c, 1, 72, 0
7, 40440, Note_on_c, 1, 76, 76
7, 40544, Note_on_c, 1, 76, 0
7, 40560, Note_on_c, 1, 74, 76
7, 40784, Note_on_c, 1, 74, 0
7, 40800, Note_on_c, 1, 71, 76
7, 41144, Note_on_c, 1, 71, 0
7, 41160, Note_on_c, 1, 74, 76
7, 41264, Note_on_c, 1, 74, 0
7, 41280, Note_on_c, 1, 72, 76
7, 41504, Note_on_c, 1, 72, 0
7, 41520, Note_on_c, 1, 74, 76
7, 41864, Note_on_c, 1, 74, 0
7, 41880, Note_on_c, 1, 77, 76
7, 41984, Note_on_c, 1, 77, 0
7, 42000, Note_on_c, 1, 76, 76
7, 42224, Note_on_c, 1, 76, 0
7, 42240, Note_on_c, 1, 72, 76
7, 42584, Note_on_c, 1, 72, 0
7, 42600, Note_on_c, 1, 77, 76
7, 42704, Note_on_c, 1, 77, 0
7, 42720, Note_on_c, 1, 81, 76
7, 43304, Note_on_c, 1, 81, 0
7, 43320, Note_on_c, 1, 79, 76
7, 43424, Note_on_c, 1, 79, 0
7, 43440, Note_on_c, 1, 77, 76
7, 43664, Note_on_c, 1, 77, 0
7, 43680, Note_on_c, 1, 76, 76
7, 44024, Note_on_c, 1, 76, 0
7, 44040, Note_on_c, 1, 77, 76
7, 44144, Note_on_c, 1, 77, 0
7, 44160, Note_on_c, 1, 79, 76
7, 44384, Note_on_c, 1, 79, 0
7, 44400, Note_on_c, 1, 67, 76
7, 44744, Note_on_c, 1, 67, 0
7, 44760, Note_on_c, 1, 69, 76
7, 44864, Note_on_c, 1, 69, 0
7, 44880, Note_on_c, 1, 71, 76
7, 45104, Note_on_c, 1, 71, 0
7, 45120, Note_on_c, 1, 72, 76
7, 45584, Note_on_c, 1, 72, 0
7, 45600, Note_on_c, 1, 72, 76
7, 45824, Note_on_c, 1, 72, 0
7, 45840, Note_on_c, 1, 72, 76
7, 46304, Note_on_c, 1, 72, 0
7, 46320, Note_on_c, 1, 74, 76
7, 46544, Note_on_c, 1, 74, 0
7, 46560, Note_on_c, 1, 71, 76
7, 47024, Note_on_c, 1, 71, 0
7, 47040, Note_on_c, 1, 71, 76
7, 47264, Note_on_c, 1, 71, 0
7, 47280, Note_on_c, 1, 71, 76
7, 47624, Note_on_c, 1, 71, 0
7, 47640, Note_on_c, 1, 69, 76
7, 47744, Note_on_c, 1, 69, 0
7, 47760, Note_on_c, 1, 67, 76
7, 47984, Note_on_c, 1, 67, 0
7, 48000, Note_on_c, 1, 77, 76
7, 48344, Note_on_c, 1, 77, 0
7, 48360, Note_on_c, 1, 76, 76
7, 48464, Note_on_c, 1, 76, 0
7, 48480, Note_on_c, 1, 74, 76
7, 48704, Note_on_c, 1, 74, 0
7, 48720, Note_on_c, 1, 83, 76
7, 49064, Note_on_c, 1, 83, 0
7, 49080, Note_on_c, 1, 74, 76
7, 49184, Note_on_c, 1, 74, 0
7, 49200, Note_on_c, 1, 77, 76
7, 49424, Note_on_c, 1, 77, 0
7, 49440, Note_on_c, 1, 76, 76
7, 49784, Note_on_c, 1, 76, 0
7, 49800, Note_on_c, 1, 74, 76
7, 49904, Note_on_c, 1, 74, 0
7, 49920, Note_on_c, 1, 72, 76
7, 50144, Note_on_c, 1, 72, 0
7, 50160, Note_on_c, 1, 71, 76
7, 50504, Note_on_c, 1, 71, 0
7, 50520, Note_on_c, 1, 76, 76
7, 50624, Note_on_c, 1, 76, 0
7, 50640, Note_on_c, 1, 74, 76
7, 50864, Note_on_c, 1, 74, 0
7, 50880, Note_on_c, 1, 72, 76
7, 51344, Note_on_c, 1, 72, 0
7, 51360, Note_on_c, 1, 69, 76
7, 51584, Note_on_c, 1, 69, 0
7, 51600, Note_on_c, 1, 69, 76
7, 51944, Note_on_c, 1, 69, 0
7, 51960, Note_on_c, 1, 71, 76
7, 52064, Note_on_c, 1, 71, 0
7, 52080, Note_on_c, 1, 72, 76
7, 52184, Note_on_c, 1, 72, 0
7, 52200, Note_on_c, 1, 74, 76
7, 52304, Note_on_c, 1, 74, 0
7, 52320, Note_on_c, 1, 76, 76
7, 52784, Note_on_c, 1, 76, 0
7, 52800, Note_on_c, 1, 76, 76
7, 53024, Note_on_c, 1, 76, 0
7, 53040, Note_on_c, 1, 76, 76
7, 53384, Note_on_c, 1, 76, 0
7, 53400, Note_on_c, 1, 82, 76
7, 53504, Note_on_c, 1, 82, 0
7, 53520, Note_on_c, 1, 79, 76
7, 53744, Note_on_c, 1, 79, 0
7, 53760, Note_on_c, 1, 76, 76
7, 54104, Note_on_c, 1, 76, 0
7, 54120, Note_on_c, 1, 79, 76
7, 54224, Note_on_c, 1, 79, 0
7, 54240, Note_on_c, 1, 76, 76
7, 54464, Note_on_c, 1, 76, 0
7, 54480, Note_on_c, 1, 73, 76
7, 54824, Note_on_c, 1, 73, 0
7, 54840, Note_on_c, 1, 76, 76
7, 54944, Note_on_c, 1, 76, 0
7, 54960, Note_on_c, 1, 73, 76
7, 55184, Note_on_c, 1, 73, 0
7, 55200, Note_on_c, 1, 69, 76
7, 55544, Note_on_c, 1, 69, 0
7, 55560, Note_on_c, 1, 81, 76
7, 55664, Note_on_c, 1, 81, 0
7, 55680, Note_on_c, 1, 77, 76
7, 55904, Note_on_c, 1, 77, 0
7, 55920, Note_on_c, 1, 74, 76
7, 56264, Note_on_c, 1, 74, 0
7, 56280, Note_on_c, 1, 76, 76
7, 56384, Note_on_c, 1, 76, 0
7, 56400, Note_on_c, 1, 73, 76
7, 56624, Note_on_c, 1, 73, 0
7, 56640, Note_on_c, 1, 74, 76
7, 57104, Note_on_c, 1, 74, 0
7, 57120, Note_on_c, 1, 74, 76
7, 57344, Note_on_c, 1, 74, 0
7, 57360, Note_on_c, 1, 74, 76
7, 57824, Note_on_c, 1, 74, 0
7, 57840, Note_on_c, 1, 77, 76
7, 58064, Note_on_c, 1, 77, 0
7, 58080, Note_on_c, 1, 77, 76
7, 59144, Note_on_c, 1, 77, 0
7, 59160, Note_on_c, 1, 74, 76
7, 59264, Note_on_c, 1, 74, 0
7, 59280, Note_on_c, 1, 76, 76
7, 59504, Note_on_c, 1, 76, 0
7, 59520, Note_on_c, 1, 77, 76
7, 59984, Note_on_c, 1, 77, 0
7, 60000, Note_on_c, 1, 67, 76
7, 60224, Note_on_c, 1, 67, 0
7, 60240, Note_on_c, 1, 67, 76
7, 60584, Note_on_c, 1, 67, 0
7, 60600, Note_on_c, 1, 70, 76
7, 60704, Note_on_c, 1, 70, 0
7, 60720, Note_on_c, 1, 69, 76
7, 60944, Note_on_c, 1, 69, 0
7, 60960, Note_on_c, 1, 70, 76
7, 62024, Note_on_c, 1, 70, 0
7, 62040, Note_on_c, 1, 74, 76
7, 62144, Note_on_c, 1, 74, 0
7, 62160, Note_on_c, 1, 72, 76
7, 62384, Note_on_c, 1, 72, 0
7, 62400, Note_on_c, 1, 69, 76
7, 62744, Note_on_c, 1, 69, 0
7, 62760, Note_on_c, 1, 72, 76
7, 62864, Note_on_c, 1, 72, 0
7, 62880, Note_on_c, 1, 71, 76
7, 63104, Note_on_c, 1, 71, 0
7, 63120, Note_on_c, 1, 72, 76
7, 63464, Note_on_c, 1, 72, 0
7, 63480, Note_on_c, 1, 76, 76
7, 63584, Note_on_c, 1, 76, 0
7, 63600, Note_on_c, 1, 74, 76
7, 63824, Note_on_c, 1, 74, 0
7, 63840, Note_on_c, 1, 71, 76
7, 64184, Note_on_c, 1, 71, 0
7, 64200, Note_on_c, 1, 74, 76
7, 64304, Note_on_c, 1, 74, 0
7, 64320, Note_on_c, 1, 72, 76
7, 64544, Note_on_c, 1, 72, 0
7, 64560, Note_on_c, 1, 74, 76
7, 64904, Note_on_c, 1, 74, 0
7, 64920, Note_on_c, 1, 77, 76
7, 65024, Note_on_c, 1, 77, 0
7, 65040, Note_on_c, 1, 76, 76
7, 65264, Note_on_c, 1, 76, 0
7, 65280, Note_on_c, 1, 72, 76
7, 65624, Note_on_c, 1, 72, 0
7, 65640, Note_on_c, 1, 77, 76
7, 65744, Note_on_c, 1, 77, 0
7, 65760, Note_on_c, 1, 81, 76
7, 66344, Note_on_c, 1, 81, 0
7, 66360, Note_on_c, 1, 79, 76
7, 66464, Note_on_c, 1, 79, 0
7, 66480, Note_on_c, 1, 77, 76
7, 66704, Note_on_c, 1, 77, 0
7, 66720, Note_on_c, 1, 76, 76
7, 67064, Note_on_c, 1, 76, 0
7, 67080, Note_on_c, 1, 77, 76
7, 67184, Note_on_c, 1, 77, 0
7, 67200, Note_on_c, 1, 79, 76
7, 67424, Note_on_c, 1, 79, 0
7, 67440, Note_on_c, 1, 67, 76
7, 67784, Note_on_c, 1, 67, 0
7, 67800, Note_on_c, 1, 69, 76
7, 67904, Note_on_c, 1, 69, 0
7, 67920, Note_on_c, 1, 71, 76
7, 68144, Note_on_c, 1, 71, 0
7, 68160, Note_on_c, 1, 72, 76
7, 68624, Note_on_c, 1, 72, 0
7, 68640, Note_on_c, 1, 72, 76
7, 68864, Note_on_c, 1, 72, 0
7, 68880, Note_on_c, 1, 72, 76
7, 69359, Note_on_c, 1, 72, 0
7, 69359, End_track
8, 0, Start_track
8, 0, Title_t, "Bassoon"
8, 0, MIDI_port, 0
8, 0, Program_c, 2, 70
8, 0, Control_c, 2, 10, 75
8, 0, Control_c, 2, 11, 127
8, 0, Control_c, 2, 7, 96
8, 960, Note_on_c, 2, 48, 76
8, 1184, Note_on_c, 2, 48, 0
8, 1200, Note_on_c, 2, 60, 76
8, 1679, Note_on_c, 2, 60, 0
8, 2400, Note_on_c, 2, 48, 76
8, 2624, Note_on_c, 2, 48, 0
8, 2640, Note_on_c, 2, 60, 76
8, 3119, Note_on_c, 2, 60, 0
8, 3840, Note_on_c, 2, 48, 76
8, 4064, Note_on_c, 2, 48, 0
8, 4080, Note_on_c, 2, 60, 76
8, 4559, Note_on_c, 2, 60, 0
8, 5280, Note_on_c, 2, 48, 76
8, 5504, Note_on_c, 2, 48, 0
8, 5520, Note_on_c, 2, 60, 76
8, 5999, Note_on_c, 2, 60, 0
8, 6720, Note_on_c, 2, 48, 76
8, 6944, Note_on_c, 2, 48, 0
8, 6960, Note_on_c, 2, 60, 76
8, 7439, Note_on_c, 2, 60, 0
8, 8160, Note_on_c, 2, 48, 76
8, 8384, Note_on_c, 2, 48, 0
8, 8400, Note_on_c, 2, 60, 76
8, 8879, Note_on_c, 2, 60, 0
8, 9480, Note_on_c, 2, 59, 76
8, 9584, Note_on_c, 2, 59, 0
8, 9600, Note_on_c, 2, 60, 76
8, 9824, Note_on_c, 2, 60, 0
8, 9840, Note_on_c, 2, 62, 76
8, 10304, Note_on_c, 2, 62, 0
8, 10320, Note_on_c, 2, 50, 76
8, 10544, Note_on_c, 2, 50, 0
8, 10560, Note_on_c, 2, 55, 76
8, 11024, Note_on_c, 2, 55, 0
8, 11040, Note_on_c, 2, 43, 76
8, 11264, Note_on_c, 2, 43, 0
8, 11280, Note_on_c, 2, 55, 76
8, 11759, Note_on_c, 2, 55, 0
8, 12480, Note_on_c, 2, 48, 76
8, 12704, Note_on_c, 2, 48, 0
8, 12720, Note_on_c, 2, 60, 76
8, 13199, Note_on_c, 2, 60, 0
8, 13920, Note_on_c, 2, 48, 76
8, 14144, Note_on_c, 2, 48, 0
8, 14160, Note_on_c, 2, 60, 76
8, 14639, Note_on_c, 2, 60, 0
8, 15360, Note_on_c, 2, 48, 76
8, 15584, Note_on_c, 2, 48, 0
8, 15600, Note_on_c, 2, 60, 76
8, 16079, Note_on_c, 2, 60, 0
8, 16800, Note_on_c, 2, 48, 76
8, 17024, Note_on_c, 2, 48, 0
8, 17040, Note_on_c, 2, 60, 76
8, 17519, Note_on_c, 2, 60, 0
8, 18240, Note_on_c, 2, 48, 76
8, 18464, Note_on_c, 2, 48, 0
8, 18480, Note_on_c, 2, 60, 76
8, 18959, Note_on_c, 2, 60, 0
8, 19680, Note_on_c, 2, 48, 76
8, 19904, Note_on_c, 2, 48, 0
8, 19920, Note_on_c, 2, 60, 76
8, 20399, Note_on_c, 2, 60, 0
8, 21000, Note_on_c, 2, 59, 76
8, 21104, Note_on_c, 2, 59, 0
8, 21120, Note_on_c, 2, 60, 76
8, 21344, Note_on_c, 2, 60, 0
8, 21360, Note_on_c, 2, 62, 76
8, 21824, Note_on_c, 2, 62, 0
8, 21840, Note_on_c, 2, 50, 76
8, 22064, Note_on_c, 2, 50, 0
8, 22080, Note_on_c, 2, 55, 76
8, 22544, Note_on_c, 2, 55, 0
8, 22560, Note_on_c, 2, 43, 76
8, 22784, Note_on_c, 2, 43, 0
8, 22800, Note_on_c, 2, 55, 76
8, 23279, Note_on_c, 2, 55, 0
8, 24000, Note_on_c, 2, 43, 76
8, 24224, Note_on_c, 2, 43, 0
8, 24240, Note_on_c, 2, 55, 76
8, 24719, Note_on_c, 2, 55, 0
8, 25440, Note_on_c, 2, 44, 76
8, 25664, Note_on_c, 2, 44, 0
8, 25680, Note_on_c, 2, 56, 76
8, 26159, Note_on_c, 2, 56, 0
8, 26880, Note_on_c, 2, 40, 76
8, 27104, Note_on_c, 2, 40, 0
8, 27120, Note_on_c, 2, 52, 76
8, 27599, Note_on_c, 2, 52, 0
8, 28320, Note_on_c, 2, 45, 76
8, 28544, Note_on_c, 2, 45, 0
8, 28560, Note_on_c, 2, 57, 76
8, 29039, Note_on_c, 2, 57, 0
8, 29760, Note_on_c, 2, 43, 76
8, 29984, Note_on_c, 2, 43, 0
8, 30000, Note_on_c, 2, 55, 76
8, 30479, Note_on_c, 2, 55, 0
8, 31200, Note_on_c, 2, 43, 76
8, 31424, Note_on_c, 2, 43, 0
8, 31440, Note_on_c, 2, 55, 76
8, 31919, Note_on_c, 2, 55, 0
8, 32520, Note_on_c, 2, 53, 76
8, 32624, Note_on_c, 2, 53, 0
8, 32640, Note_on_c, 2, 50, 76
8, 32864, Note_on_c, 2, 50, 0
8, 32880, Note_on_c, 2, 57, 76
8, 33344, Note_on_c, 2, 57, 0
8, 33360, Note_on_c, 2, 45, 76
8, 33584, Note_on_c, 2, 45, 0
8, 33600, Note_on_c, 2, 50, 76
8, 34064, Note_on_c, 2, 50, 0
8, 34080, Note_on_c, 2, 38, 76
8, 34304, Note_on_c, 2, 38, 0
8, 34320, Note_on_c, 2, 50, 76
8, 34799, Note_on_c, 2, 50, 0
8, 35400, Note_on_c, 2, 62, 76
8, 35504, Note_on_c, 2, 62, 0
8, 35520, Note_on_c, 2, 60, 76
8, 35744, Note_on_c, 2, 60, 0
8, 35760, Note_on_c, 2, 59, 76
8, 36104, Note_on_c, 2, 59, 0
8, 36120, Note_on_c, 2, 60, 76
8, 36224, Note_on_c, 2, 60, 0
8, 36240, Note_on_c, 2, 57, 76
8, 36464, Note_on_c, 2, 57, 0
8, 36480, Note_on_c, 2, 55, 76
8, 36824, Note_on_c, 2, 55, 0
8, 36840, Note_on_c, 2, 57, 76
8, 36944, Note_on_c, 2, 57, 0
8, 36960, Note_on_c, 2, 53, 76
8, 37184, Note_on_c, 2, 53, 0
8, 37200, Note_on_c, 2, 52, 76
8, 37544, Note_on_c, 2, 52, 0
8, 37560, Note_on_c, 2, 53, 76
8, 37664, Note_on_c, 2, 53, 0
8, 37680, Note_on_c, 2, 50, 76
8, 37904, Note_on_c, 2, 50, 0
8, 37920, Note_on_c, 2, 48, 76
8, 38264, Note_on_c, 2, 48, 0
8, 38280, Note_on_c, 2, 50, 76
8, 38384, Note_on_c, 2, 50, 0
8, 38400, Note_on_c, 2, 46, 76
8, 38624, Note_on_c, 2, 46, 0
8, 38640, Note_on_c, 2, 45, 76
8, 38984, Note_on_c, 2, 45, 0
8, 39000, Note_on_c, 2, 46, 76
8, 39104, Note_on_c, 2, 46, 0
8, 39120, Note_on_c, 2, 43, 76
8, 39344, Note_on_c, 2, 43, 0
8, 39360, Note_on_c, 2, 41, 76
8, 39704, Note_on_c, 2, 41, 0
8, 39720, Note_on_c, 2, 52, 76
8, 39824, Note_on_c, 2, 52, 0
8, 39840, Note_on_c, 2, 50, 76
8, 40064, Note_on_c, 2, 50, 0
8, 40080, Note_on_c, 2, 52, 76
8, 40424, Note_on_c, 2, 52, 0
8, 40440, Note_on_c, 2, 55, 76
8, 40544, Note_on_c, 2, 55, 0
8, 40560, Note_on_c, 2, 54, 76
8, 40784, Note_on_c, 2, 54, 0
8, 40800, Note_on_c, 2, 55, 76
8, 41144, Note_on_c, 2, 55, 0
8, 41160, Note_on_c, 2, 53, 76
8, 41264, Note_on_c, 2, 53, 0
8, 41280, Note_on_c, 2, 52, 76
8, 41504, Note_on_c, 2, 52, 0
8, 41520, Note_on_c, 2, 54, 76
8, 41864, Note_on_c, 2, 54, 0
8, 41880, Note_on_c, 2, 57, 76
8, 41984, Note_on_c, 2, 57, 0
8, 42000, Note_on_c, 2, 56, 76
8, 42224, Note_on_c, 2, 56, 0
8, 42240, Note_on_c, 2, 57, 76
8, 42704, Note_on_c, 2, 57, 0
8, 42720, Note_on_c, 2, 53, 76
8, 42944, Note_on_c, 2, 53, 0
8, 42960, Note_on_c, 2, 47, 76
8, 43424, Note_on_c, 2, 47, 0
8, 43440, Note_on_c, 2, 55, 76
8, 43664, Note_on_c, 2, 55, 0
8, 43680, Note_on_c, 2, 48, 76
8, 44024, Note_on_c, 2, 48, 0
8, 44040, Note_on_c, 2, 50, 76
8, 44144, Note_on_c, 2, 50, 0
8, 44160, Note_on_c, 2, 52, 76
8, 44264, Note_on_c, 2, 52, 0
8, 44280, Note_on_c, 2, 53, 76
8, 44384, Note_on_c, 2, 53, 0
8, 44400, Note_on_c, 2, 55, 76
8, 44864, Note_on_c, 2, 55, 0
8, 44880, Note_on_c, 2, 43, 76
8, 45104, Note_on_c, 2, 43, 0
8, 45120, Note_on_c, 2, 48, 76
8, 45584, Note_on_c, 2, 48, 0
8, 45600, Note_on_c, 2, 36, 76
8, 45824, Note_on_c, 2, 36, 0
8, 45840, Note_on_c, 2, 48, 76
8, 46304, Note_on_c, 2, 48, 0
8, 47040, Note_on_c, 2, 43, 76
8, 47264, Note_on_c, 2, 43, 0
8, 47280, Note_on_c, 2, 55, 76
8, 47759, Note_on_c, 2, 55, 0
8, 48480, Note_on_c, 2, 44, 76
8, 48704, Note_on_c, 2, 44, 0
8, 48720, Note_on_c, 2, 56, 76
8, 49199, Note_on_c, 2, 56, 0
8, 49920, Note_on_c, 2, 40, 76
8, 50144, Note_on_c, 2, 40, 0
8, 50160, Note_on_c, 2, 52, 76
8, 50639, Note_on_c, 2, 52, 0
8, 51360, Note_on_c, 2, 45, 76
8, 51584, Note_on_c, 2, 45, 0
8, 51600, Note_on_c, 2, 57, 76
8, 52079, Note_on_c, 2, 57, 0
8, 52800, Note_on_c, 2, 43, 76
8, 53024, Note_on_c, 2, 43, 0
8, 53040, Note_on_c, 2, 55, 76
8, 53519, Note_on_c, 2, 55, 0
8, 54240, Note_on_c, 2, 43, 76
8, 54464, Note_on_c, 2, 43, 0
8, 54480, Note_on_c, 2, 55, 76
8, 54959, Note_on_c, 2, 55, 0
8, 55560, Note_on_c, 2, 53, 76
8, 55664, Note_on_c, 2, 53, 0
8, 55680, Note_on_c, 2, 50, 76
8, 55904, Note_on_c, 2, 50, 0
8, 55920, Note_on_c, 2, 57, 76
8, 56384, Note_on_c, 2, 57, 0
8, 56400, Note_on_c, 2, 45, 76
8, 56624, Note_on_c, 2, 45, 0
8, 56640, Note_on_c, 2, 50, 76
8, 57104, Note_on_c, 2, 50, 0
8, 57120, Note_on_c, 2, 38, 76
8, 57344, Note_on_c, 2, 38, 0
8, 57360, Note_on_c, 2, 50, 76
8, 57839, Note_on_c, 2, 50, 0
8, 58440, Note_on_c, 2, 62, 76
8, 58544, Note_on_c, 2, 62, 0
8, 58560, Note_on_c, 2, 60, 76
8, 58784, Note_on_c, 2, 60, 0
8, 58800, Note_on_c, 2, 59, 76
8, 59144, Note_on_c, 2, 59, 0
8, 59160, Note_on_c, 2, 60, 76
8, 59264, Note_on_c, 2, 60, 0
8, 59280, Note_on_c, 2, 57, 76
8, 59504, Note_on_c, 2, 57, 0
8, 59520, Note_on_c, 2, 55, 76
8, 59864, Note_on_c, 2, 55, 0
8, 59880, Note_on_c, 2, 57, 76
8, 59984, Note_on_c, 2, 57, 0
8, 60000, Note_on_c, 2, 53, 76
8, 60224, Note_on_c, 2, 53, 0
8, 60240, Note_on_c, 2, 52, 76
8, 60584, Note_on_c, 2, 52, 0
8, 60600, Note_on_c, 2, 53, 76
8, 60704, Note_on_c, 2, 53, 0
8, 60720, Note_on_c, 2, 50, 76
8, 60944, Note_on_c, 2, 50, 0
8, 60960, Note_on_c, 2, 48, 76
8, 61304, Note_on_c, 2, 48, 0
8, 61320, Note_on_c, 2, 50, 76
8, 61424, Note_on_c, 2, 50, 0
8, 61440, Note_on_c, 2, 46, 76
8, 61664, Note_on_c, 2, 46, 0
8, 61680, Note_on_c, 2, 45, 76
8, 62024, Note_on_c, 2, 45, 0
8, 62040, Note_on_c, 2, 46, 76
8, 62144, Note_on_c, 2, 46, 0
8, 62160, Note_on_c, 2, 43, 76
8, 62384, Note_on_c, 2, 43, 0
8, 62400, Note_on_c, 2, 41, 76
8, 62744, Note_on_c, 2, 41, 0
8, 62760, Note_on_c, 2, 52, 76
8, 62864, Note_on_c, 2, 52, 0
8, 62880, Note_on_c, 2, 50, 76
8, 63104, Note_on_c, 2, 50, 0
8, 63120, Note_on_c, 2, 52, 76
8, 63464, Note_on_c, 2, 52, 0
8, 63480, Note_on_c, 2, 55, 76
8, 63584, Note_on_c, 2, 55, 0
8, 63600, Note_on_c, 2, 54, 76
8, 63824, Note_on_c, 2, 54, 0
8, 63840, Note_on_c, 2, 55, 76
8, 64184, Note_on_c, 2, 55, 0
8, 64200, Note_on_c, 2, 53, 76
8, 64304, Note_on_c, 2, 53, 0
8, 64320, Note_on_c, 2, 52, 76
8, 64544, Note_on_c, 2, 52, 0
8, 64560, Note_on_c, 2, 54, 76
8, 64904, Note_on_c, 2, 54, 0
8, 64920, Note_on_c, 2, 57, 76
8, 65024, Note_on_c, 2, 57, 0
8, 65040, Note_on_c, 2, 56, 76
8, 65264, Note_on_c, 2, 56, 0
8, 65280, Note_on_c, 2, 57, 76
8, 65744, Note_on_c, 2, 57, 0
8, 65760, Note_on_c, 2, 53, 76
8, 65984, Note_on_c, 2, 53, 0
8, 66000, Note_on_c, 2, 47, 76
8, 66464, Note_on_c, 2, 47, 0
8, 66480, Note_on_c, 2, 55, 76
8, 66704, Note_on_c, 2, 55, 0
8, 66720, Note_on_c, 2, 48, 76
8, 67064, Note_on_c, 2, 48, 0
8, 67080, Note_on_c, 2, 50, 76
8, 67184, Note_on_c, 2, 50, 0
8, 67200, Note_on_c, 2, 52, 76
8, 67304, Note_on_c, 2, 52, 0
8, 67320, Note_on_c, 2, 53, 76
8, 67424, Note_on_c, 2, 53, 0
8, 67440, Note_on_c, 2, 55, 76
8, 67904, Note_on_c, 2, 55, 0
8, 67920, Note_on_c, 2, 43, 76
8, 68144, Note_on_c, 2, 43, 0
8, 68160, Note_on_c, 2, 48, 76
8, 68624, Note_on_c, 2, 48, 0
8, 68640, Note_on_c, 2, 36, 76
8, 68864, Note_on_c, 2, 36, 0
8, 68880, Note_on_c, 2, 48, 76
8, 69359, Note_on_c, 2, 48, 0
8, 69359, End_track
9, 0, Start_track
9, 0, Title_t, "Violin I"
9, 0, MIDI_port, 0
9, 0, Program_c, 11, 48
9, 0, Control_c, 11, 10, 48
9, 0, Control_c, 11, 11, 127
9, 0, Control_c, 11, 7, 96
9, 240, Note_on_c, 11, 72, 76
9, 464, Note_on_c, 11, 72, 0
9, 480, Note_on_c, 11, 79, 76
9, 944, Note_on_c, 11, 79, 0
9, 960, Note_on_c, 11, 79, 76
9, 1184, Note_on_c, 11, 79, 0
9, 1200, Note_on_c, 11, 79, 76
9, 1544, Note_on_c, 11, 79, 0
9, 1560, Note_on_c, 11, 81, 76
9, 1664, Note_on_c, 11, 81, 0
9, 1680, Note_on_c, 11, 82, 76
9, 1904, Note_on_c, 11, 82, 0
9, 1920, Note_on_c, 11, 81, 76
9, 2384, Note_on_c, 11, 81, 0
9, 2400, Note_on_c, 11, 74, 76
9, 2624, Note_on_c, 11, 74, 0
9, 2640, Note_on_c, 11, 74, 76
9, 2984, Note_on_c, 11, 74, 0
9, 3000, Note_on_c, 11, 76, 76
9, 3104, Note_on_c, 11, 76, 0
9, 3120, Note_on_c, 11, 77, 76
9, 3344, Note_on_c, 11, 77, 0
9, 3360, Note_on_c, 11, 71, 76
9, 3704, Note_on_c, 11, 71, 0
9, 3720, Note_on_c, 11, 72, 76
9, 3824, Note_on_c, 11, 72, 0
9, 3840, Note_on_c, 11, 74, 76
9, 4064, Note_on_c, 11, 74, 0
9, 4080, Note_on_c, 11, 67, 76
9, 4424, Note_on_c, 11, 67, 0
9, 4440, Note_on_c, 11, 79, 76
9, 4544, Note_on_c, 11, 79, 0
9, 4560, Note_on_c, 11, 77, 76
9, 4784, Note_on_c, 11, 77, 0
9, 4800, Note_on_c, 11, 76, 76
9, 5144, Note_on_c, 11, 76, 0
9, 5160, Note_on_c, 11, 77, 76
9, 5264, Note_on_c, 11, 77, 0
9, 5280, Note_on_c, 11, 79, 76
9, 5504, Note_on_c, 11, 79, 0
9, 5520, Note_on_c, 11, 72, 76
9, 5864, Note_on_c, 11, 72, 0
9, 5880, Note_on_c, 11, 74, 76
9, 5984, Note_on_c, 11, 74, 0
9, 6000, Note_on_c, 11, 76, 76
9, 6104, Note_on_c, 11, 76, 0
9, 6120, Note_on_c, 11, 77, 76
9, 6224, Note_on_c, 11, 77, 0
9, 6240, Note_on_c, 11, 79, 76
9, 6704, Note_on_c, 11, 79, 0
9, 6720, Note_on_c, 11, 79, 76
9, 6944, Note_on_c, 11, 79, 0
9, 6960, Note_on_c, 11, 79, 76
9, 7304, Note_on_c, 11, 79, 0
9, 7320, Note_on_c, 11, 84, 76
9, 7424, Note_on_c, 11, 84, 0
9, 7440, Note_on_c, 11, 81, 76
9, 7664, Note_on_c, 11, 81, 0
9, 7680, Note_on_c, 11, 78, 76
9, 8024, Note_on_c, 11, 78, 0
9, 8040, Note_on_c, 11, 79, 76
9, 8144, Note_on_c, 11, 79, 0
9, 8160, Note_on_c, 11, 81, 76
9, 8384, Note_on_c, 11, 81, 0
9, 8400, Note_on_c, 11, 74, 76
9, 8744, Note_on_c, 11, 74, 0
9, 8760, Note_on_c, 11, 76, 76
9, 8864, Note_on_c, 11, 76, 0
9, 8880, Note_on_c, 11, 78, 76
9, 9104, Note_on_c, 11, 78, 0
9, 9120, Note_on_c, 11, 79, 76
9, 9464, Note_on_c, 11, 79, 0
9, 9480, Note_on_c, 11, 74, 76
9, 9584, Note_on_c, 11, 74, 0
9, 9600, Note_on_c, 11, 76, 76
9, 9824, Note_on_c, 11, 76, 0
9, 9840, Note_on_c, 11, 69, 76
9, 10184, Note_on_c, 11, 69, 0
9, 10200, Note_on_c, 11, 71, 76
9, 10304, Note_on_c, 11, 71, 0
9, 10320, Note_on_c, 11, 72, 76
9, 10544, Note_on_c, 11, 72, 0
9, 10560, Note_on_c, 11, 71, 76
9, 11024, Note_on_c, 11, 71, 0
9, 11040, Note_on_c, 11, 67, 76
9, 11264, Note_on_c, 11, 67, 0
9, 11280, Note_on_c, 11, 67, 76
9, 11744, Note_on_c, 11, 67, 0
9, 11760, Note_on_c, 11, 72, 76
9, 11984, Note_on_c, 11, 72, 0
9, 12000, Note_on_c, 11, 79, 76
9, 12464, Note_on_c, 11, 79, 0
9, 12480, Note_on_c, 11, 79, 76
9, 12704, Note_on_c, 11, 79, 0
9, 12720, Note_on_c, 11, 79, 76
9, 13064, Note_on_c, 11, 79, 0
9, 13080, Note_on_c, 11, 81, 76
9, 13184, Note_on_c, 11, 81, 0
9, 13200, Note_on_c, 11, 82, 76
9, 13424, Note_on_c, 11, 82, 0
9, 13440, Note_on_c, 11, 81, 76
9, 13904, Note_on_c, 11, 81, 0
9, 13920, Note_on_c, 11, 74, 76
9, 14144, Note_on_c, 11, 74, 0
9, 14160, Note_on_c, 11, 74, 76
9, 14504, Note_on_c, 11, 74, 0
9, 14520, Note_on_c, 11, 76, 76
9, 14624, Note_on_c, 11, 76, 0
9, 14640, Note_on_c, 11, 77, 76
9, 14864, Note_on_c, 11, 77, 0
9, 14880, Note_on_c, 11, 71, 76
9, 15224, Note_on_c, 11, 71, 0
9, 15240, Note_on_c, 11, 72, 76
9, 15344, Note_on_c, 11, 72, 0
9, 15360, Note_on_c, 11, 74, 76
9, 15584, Note_on_c, 11, 74, 0
9, 15600, Note_on_c, 11, 67, 76
9, 15944, Note_on_c, 11, 67, 0
9, 15960, Note_on_c, 11, 79, 76
9, 16064, Note_on_c, 11, 79, 0
9, 16080, Note_on_c, 11, 77, 76
9, 16304, Note_on_c, 11, 77, 0
9, 16320, Note_on_c, 11, 76, 76
9, 16664, Note_on_c, 11, 76, 0
9, 16680, Note_on_c, 11, 77, 76
9, 16784, Note_on_c, 11, 77, 0
9, 16800, Note_on_c, 11, 79, 76
9, 17024, Note_on_c, 11, 79, 0
9, 17040, Note_on_c, 11, 72, 76
9, 17384, Note_on_c, 11, 72, 0
9, 17400, Note_on_c, 11, 74, 76
9, 17504, Note_on_c, 11, 74, 0
9, 17520, Note_on_c, 11, 76, 76
9, 17624, Note_on_c, 11, 76, 0
9, 17640, Note_on_c, 11, 77, 76
9, 17744, Note_on_c, 11, 77, 0
9, 17760, Note_on_c, 11, 79, 76
9, 18224, Note_on_c, 11, 79, 0
9, 18240, Note_on_c, 11, 79, 76
9, 18464, Note_on_c, 11, 79, 0
9, 18480, Note_on_c, 11, 79, 76
9, 18824, Note_on_c, 11, 79, 0
9, 18840, Note_on_c, 11, 84, 76
9, 18944, Note_on_c, 11, 84, 0
9, 18960, Note_on_c, 11, 81, 76
9, 19184, Note_on_c, 11, 81, 0
9, 19200, Note_on_c, 11, 78, 76
9, 19544, Note_on_c, 11, 78, 0
9, 19560, Note_on_c, 11, 79, 76
9, 19664, Note_on_c, 11, 79, 0
9, 19680, Note_on_c, 11, 81, 76
9, 19904, Note_on_c, 11, 81, 0
9, 19920, Note_on_c, 11, 74, 76
9, 20264, Note_on_c, 11, 74, 0
9, 20280, Note_on_c, 11, 76, 76
9, 20384, Note_on_c, 11, 76, 0
9, 20400, Note_on_c, 11, 78, 76
9, 20624, Note_on_c, 11, 78, 0
9, 20640, Note_on_c, 11, 79, 76
9, 20984, Note_on_c, 11, 79, 0
9, 21000, Note_on_c, 11, 74, 76
9, 21104, Note_on_c, 11, 74, 0
9, 21120, Note_on_c, 11, 76, 76
9, 21344, Note_on_c, 11, 76, 0
9, 21360, Note_on_c, 11, 69, 76
9, 21704, Note_on_c, 11, 69, 0
9, 21720, Note_on_c, 11, 71, 76
9, 21824, Note_on_c, 11, 71, 0
9, 21840, Note_on_c, 11, 72, 76
9, 22064, Note_on_c, 11, 72, 0
9, 22080, Note_on_c, 11, 71, 76
9, 22544, Note_on_c, 11, 71, 0
9, 22560, Note_on_c, 11, 67, 76
9, 22784, Note_on_c, 11, 67, 0
9, 22800, Note_on_c, 11, 67, 76
9, 23264, Note_on_c, 11, 67, 0
9, 23280, Note_on_c, 11, 74, 76
9, 23504, Note_on_c, 11, 74, 0
9, 23520, Note_on_c, 11, 71, 76
9, 23984, Note_on_c, 11, 71, 0
9, 24000, Note_on_c, 11, 71, 76
9, 24224, Note_on_c, 11, 71, 0
9, 24240, Note_on_c, 11, 71, 76
9, 24584, Note_on_c, 11, 71, 0
9, 24600, Note_on_c, 11, 69, 76
9, 24704, Note_on_c, 11, 69, 0
9, 24720, Note_on_c, 11, 67, 76
9, 24944, Note_on_c, 11, 67, 0
9, 24960, Note_on_c, 11, 77, 76
9, 25304, Note_on_c, 11, 77, 0
9, 25320, Note_on_c, 11, 76, 76
9, 25424, Note_on_c, 11, 76, 0
9, 25440, Note_on_c, 11, 74, 76
9, 25664, Note_on_c, 11, 74, 0
9, 25680, Note_on_c, 11, 83, 76
9, 26024, Note_on_c, 11, 83, 0
9, 26040, Note_on_c, 11, 74, 76
9, 26144, Note_on_c, 11, 74, 0
9, 26160, Note_on_c, 11, 77, 76
9, 26384, Note_on_c, 11, 77, 0
9, 26400, Note_on_c, 11, 76, 76
9, 26744, Note_on_c, 11, 76, 0
9, 26760, Note_on_c, 11, 74, 76
9, 26864, Note_on_c, 11, 74, 0
9, 26880, Note_on_c, 11, 72, 76
9, 27104, Note_on_c, 11, 72, 0
9, 27120, Note_on_c, 11, 71, 76
9, 27464, Note_on_c, 11, 71, 0
9, 27480, Note_on_c, 11, 76, 76
9, 27584, Note_on_c, 11, 76, 0
9, 27600, Note_on_c, 11, 74, 76
9, 27824, Note_on_c, 11, 74, 0
9, 27840, Note_on_c, 11, 72, 76
9, 28304, Note_on_c, 11, 72, 0
9, 28320, Note_on_c, 11, 69, 76
9, 28544, Note_on_c, 11, 69, 0
9, 28560, Note_on_c, 11, 69, 76
9, 28904, Note_on_c, 11, 69, 0
9, 28920, Note_on_c, 11, 71, 76
9, 29024, Note_on_c, 11, 71, 0
9, 29040, Note_on_c, 11, 72, 76
9, 29144, Note_on_c, 11, 72, 0
9, 29160, Note_on_c, 11, 74, 76
9, 29264, Note_on_c, 11, 74, 0
9, 29280, Note_on_c, 11, 76, 76
9, 29744, Note_on_c, 11, 76, 0
9, 29760, Note_on_c, 11, 76, 76
9, 29984, Note_on_c, 11, 76, 0
9, 30000, Note_on_c, 11, 76, 76
9, 30344, Note_on_c, 11, 76, 0
9, 30360, Note_on_c, 11, 82, 76
9, 30464, Note_on_c, 11, 82, 0
9, 30480, Note_on_c, 11, 79, 76
9, 30704, Note_on_c, 11, 79, 0
9, 30720, Note_on_c, 11, 76, 76
9, 31064, Note_on_c, 11, 76, 0
9, 31080, Note_on_c, 11, 79, 76
9, 31184, Note_on_c, 11, 79, 0
9, 31200, Note_on_c, 11, 76, 76
9, 31424, Note_on_c, 11, 76, 0
9, 31440, Note_on_c, 11, 73, 76
9, 31784, Note_on_c, 11, 73, 0
9, 31800, Note_on_c, 11, 76, 76
9, 31904, Note_on_c, 11, 76, 0
9, 31920, Note_on_c, 11, 73, 76
9, 32144, Note_on_c, 11, 73, 0
9, 32160, Note_on_c, 11, 69, 76
9, 32504, Note_on_c, 11, 69, 0
9, 32520, Note_on_c, 11, 81, 76
9, 32624, Note_on_c, 11, 81, 0
9, 32640, Note_on_c, 11, 77, 76
9, 32864, Note_on_c, 11, 77, 0
9, 32880, Note_on_c, 11, 74, 76
9, 33224, Note_on_c, 11, 74, 0
9, 33240, Note_on_c, 11, 76, 76
9, 33344, Note_on_c, 11, 76, 0
9, 33360, Note_on_c, 11, 73, 76
9, 33584, Note_on_c, 11, 73, 0
9, 33600, Note_on_c, 11, 74, 76
9, 34064, Note_on_c, 11, 74, 0
9, 34080, Note_on_c, 11, 74, 76
9, 34304, Note_on_c, 11, 74, 0
9, 34320, Note_on_c, 11, 74, 76
9, 34784, Note_on_c, 11, 74, 0
9, 34800, Note_on_c, 11, 77, 76
9, 35024, Note_on_c, 11, 77, 0
9, 35040, Note_on_c, 11, 77, 76
9, 36104, Note_on_c, 11, 77, 0
9, 36120, Note_on_c, 11, 74, 76
9, 36224, Note_on_c, 11, 74, 0
9, 36240, Note_on_c, 11, 76, 76
9, 36464, Note_on_c, 11, 76, 0
9, 36480, Note_on_c, 11, 77, 76
9, 36944, Note_on_c, 11, 77, 0
9, 36960, Note_on_c, 11, 67, 76
9, 37184, Note_on_c, 11, 67, 0
9, 37200, Note_on_c, 11, 67, 76
9, 37544, Note_on_c, 11, 67, 0
9, 37560, Note_on_c, 11, 70, 76
9, 37664, Note_on_c, 11, 70, 0
9, 37680, Note_on_c, 11, 69, 76
9, 37904, Note_on_c, 11, 69, 0
9, 37920, Note_on_c, 11, 70, 76
9, 38984, Note_on_c, 11, 70, 0
9, 39000, Note_on_c, 11, 74, 76
9, 39104, Note_on_c, 11, 74, 0
9, 39120, Note_on_c, 11, 72, 76
9, 39344, Note_on_c, 11, 72, 0
9, 39360, Note_on_c, 11, 69, 76
9, 39704, Note_on_c, 11, 69, 0
9, 39720, Note_on_c, 11, 72, 76
9, 39824, Note_on_c, 11, 72, 0
9, 39840, Note_on_c, 11, 71, 76
9, 40064, Note_on_c, 11, 71, 0
9, 40080, Note_on_c, 11, 72, 76
9, 40424, Note_on_c, 11, 72, 0
9, 40440, Note_on_c, 11, 76, 76
9, 40544, Note_on_c, 11, 76, 0
9, 40560, Note_on_c, 11, 74, 76
9, 40784, Note_on_c, 11, 74, 0
9, 40800, Note_on_c, 11, 71, 76
9, 41144, Note_on_c, 11, 71, 0
9, 41160, Note_on_c, 11, 74, 76
9, 41264, Note_on_c, 11, 74, 0
9, 41280, Note_on_c, 11, 72, 76
9, 41504, Note_on_c, 11, 72, 0
9, 41520, Note_on_c, 11, 74, 76
9, 41864, Note_on_c, 11, 74, 0
9, 41880, Note_on_c, 11, 77, 76
9, 41984, Note_on_c, 11, 77, 0
9, 42000, Note_on_c, 11, 76, 76
9, 42224, Note_on_c, 11, 76, 0
9, 42240, Note_on_c, 11, 72, 76
9, 42584, Note_on_c, 11, 72, 0
9, 42600, Note_on_c, 11, 77, 76
9, 42704, Note_on_c, 11, 77, 0
9, 42720, Note_on_c, 11, 81, 76
9, 43304, Note_on_c, 11, 81, 0
9, 43320, Note_on_c, 11, 79, 76
9, 43424, Note_on_c, 11, 79, 0
9, 43440, Note_on_c, 11, 77, 76
9, 43664, Note_on_c, 11, 77, 0
9, 43680, Note_on_c, 11, 76, 76
9, 44024, Note_on_c, 11, 76, 0
9, 44040, Note_on_c, 11, 77, 76
9, 44144, Note_on_c, 11, 77, 0
9, 44160, Note_on_c, 11, 79, 76
9, 44384, Note_on_c, 11, 79, 0
9, 44400, Note_on_c, 11, 67, 76
9, 44744, Note_on_c, 11, 67, 0
9, 44760, Note_on_c, 11, 69, 76
9, 44864, Note_on_c, 11, 69, 0
9, 44880, Note_on_c, 11, 71, 76
9, 45104, Note_on_c, 11, 71, 0
9, 45120, Note_on_c, 11, 72, 76
9, 45584, Note_on_c, 11, 72, 0
9, 45600, Note_on_c, 11, 72, 76
9, 45824, Note_on_c, 11, 72, 0
9, 45840, Note_on_c, 11, 72, 76
9, 46304, Note_on_c, 11, 72, 0
9, 46320, Note_on_c, 11, 74, 76
9, 46544, Note_on_c, 11, 74, 0
9, 46560, Note_on_c, 11, 71, 76
9, 47024, Note_on_c, 11, 71, 0
9, 47040, Note_on_c, 11, 71, 76
9, 47264, Note_on_c, 11, 71, 0
9, 47280, Note_on_c, 11, 71, 76
9, 47624, Note_on_c, 11, 71, 0
9, 47640, Note_on_c, 11, 69, 76
9, 47744, Note_on_c, 11, 69, 0
9, 47760, Note_on_c, 11, 67, 76
9, 47984, Note_on_c, 11, 67, 0
9, 48000, Note_on_c, 11, 77, 76
9, 48344, Note_on_c, 11, 77, 0
9, 48360, Note_on_c, 11, 76, 76
9, 48464, Note_on_c, 11, 76, 0
9, 48480, Note_on_c, 11, 74, 76
9, 48704, Note_on_c, 11, 74, 0
9, 48720, Note_on_c, 11, 83, 76
9, 49064, Note_on_c, 11, 83, 0
9, 49080, Note_on_c, 11, 74, 76
9, 49184, Note_on_c, 11, 74, 0
9, 49200, Note_on_c, 11, 77, 76
9, 49424, Note_on_c, 11, 77, 0
9, 49440, Note_on_c, 11, 76, 76
9, 49784, Note_on_c, 11, 76, 0
9, 49800, Note_on_c, 11, 74, 76
9, 49904, Note_on_c, 11, 74, 0
9, 49920, Note_on_c, 11, 72, 76
9, 50144, Note_on_c, 11, 72, 0
9, 50160, Note_on_c, 11, 71, 76
9, 50504, Note_on_c, 11, 71, 0
9, 50520, Note_on_c, 11, 76, 76
9, 50624, Note_on_c, 11, 76, 0
9, 50640, Note_on_c, 11, 74, 76
9, 50864, Note_on_c, 11, 74, 0
9, 50880, Note_on_c, 11, 72, 76
9, 51344, Note_on_c, 11, 72, 0
9, 51360, Note_on_c, 11, 69, 76
9, 51584, Note_on_c, 11, 69, 0
9, 51600, Note_on_c, 11, 69, 76
9, 51944, Note_on_c, 11, 69, 0
9, 51960, Note_on_c, 11, 71, 76
9, 52064, Note_on_c, 11, 71, 0
9, 52080, Note_on_c, 11, 72, 76
9, 52184, Note_on_c, 11, 72, 0
9, 52200, Note_on_c, 11, 74, 76
9, 52304, Note_on_c, 11, 74, 0
9, 52320, Note_on_c, 11, 76, 76
9, 52784, Note_on_c, 11, 76, 0
9, 52800, Note_on_c, 11, 76, 76
9, 53024, Note_on_c, 11, 76, 0
9, 53040, Note_on_c, 11, 76, 76
9, 53384, Note_on_c, 11, 76, 0
9, 53400, Note_on_c, 11, 82, 76
9, 53504, Note_on_c, 11, 82, 0
9, 53520, Note_on_c, 11, 79, 76
9, 53744, Note_on_c, 11, 79, 0
9, 53760, Note_on_c, 11, 76, 76
9, 54104, Note_on_c, 11, 76, 0
9, 54120, Note_on_c, 11, 79, 76
9, 54224, Note_on_c, 11, 79, 0
9, 54240, Note_on_c, 11, 76, 76
9, 54464, Note_on_c, 11, 76, 0
9, 54480, Note_on_c, 11, 73, 76
9, 54824, Note_on_c, 11, 73, 0
9, 54840, Note_on_c, 11, 76, 76
9, 54944, Note_on_c, 11, 76, 0
9, 54960, Note_on_c, 11, 73, 76
9, 55184, Note_on_c, 11, 73, 0
9, 55200, Note_on_c, 11, 69, 76
9, 55544, Note_on_c, 11, 69, 0
9, 55560, Note_on_c, 11, 81, 76
9, 55664, Note_on_c, 11, 81, 0
9, 55680, Note_on_c, 11, 77, 76
9, 55904, Note_on_c, 11, 77, 0
9, 55920, Note_on_c, 11, 74, 76
9, 56264, Note_on_c, 11, 74, 0
9, 56280, Note_on_c, 11, 76, 76
9, 56384, Note_on_c, 11, 76, 0
9, 56400, Note_on_c, 11, 73, 76
9, 56624, Note_on_c, 11, 73, 0
9, 56640, Note_on_c, 11, 74, 76
9, 57104, Note_on_c, 11, 74, 0
9, 57120, Note_on_c, 11, 74, 76
9, 57344, Note_on_c, 11, 74, 0
9, 57360, Note_on_c, 11, 74, 76
9, 57824, Note_on_c, 11, 74, 0
9, 57840, Note_on_c, 11, 77, 76
9, 58064, Note_on_c, 11, 77, 0
9, 58080, Note_on_c, 11, 77, 76
9, 59144, Note_on_c, 11, 77, 0
9, 59160, Note_on_c, 11, 74, 76
9, 59264, Note_on_c, 11, 74, 0
9, 59280, Note_on_c, 11, 76, 76
9, 59504, Note_on_c, 11, 76, 0
9, 59520, Note_on_c, 11, 77, 76
9, 59984, Note_on_c, 11, 77, 0
9, 60000, Note_on_c, 11, 67, 76
9, 60224, Note_on_c, 11, 67, 0
9, 60240, Note_on_c, 11, 67, 76
9, 60584, Note_on_c, 11, 67, 0
9, 60600, Note_on_c, 11, 70, 76
9, 60704, Note_on_c, 11, 70, 0
9, 60720, Note_on_c, 11, 69, 76
9, 60944, Note_on_c, 11, 69, 0
9, 60960, Note_on_c, 11, 70, 76
9, 62024, Note_on_c, 11, 70, 0
9, 62040, Note_on_c, 11, 74, 76
9, 62144, Note_on_c, 11, 74, 0
9, 62160, Note_on_c, 11, 72, 76
9, 62384, Note_on_c, 11, 72, 0
9, 62400, Note_on_c, 11, 69, 76
9, 62744, Note_on_c, 11, 69, 0
9, 62760, Note_on_c, 11, 72, 76
9, 62864, Note_on_c, 11, 72, 0
9, 62880, Note_on_c, 11, 71, 76
9, 63104, Note_on_c, 11, 71, 0
9, 63120, Note_on_c, 11, 72, 76
9, 63464, Note_on_c, 11, 72, 0
9, 63480, Note_on_c, 11, 76, 76
9, 63584, Note_on_c, 11, 76, 0
9, 63600, Note_on_c, 11, 74, 76
9, 63824, Note_on_c, 11, 74, 0
9, 63840, Note_on_c, 11, 71, 76
9, 64184, Note_on_c, 11, 71, 0
9, 64200, Note_on_c, 11, 74, 76
9, 64304, Note_on_c, 11, 74, 0
9, 64320, Note_on_c, 11, 72, 76
9, 64544, Note_on_c, 11, 72, 0
9, 64560, Note_on_c, 11, 74, 76
9, 64904, Note_on_c, 11, 74, 0
9, 64920, Note_on_c, 11, 77, 76
9, 65024, Note_on_c, 11, 77, 0
9, 65040, Note_on_c, 11, 76, 76
9, 65264, Note_on_c, 11, 76, 0
9, 65280, Note_on_c, 11, 72, 76
9, 65624, Note_on_c, 11, 72, 0
9, 65640, Note_on_c, 11, 77, 76
9, 65744, Note_on_c, 11, 77, 0
9, 65760, Note_on_c, 11, 81, 76
9, 66344, Note_on_c, 11, 81, 0
9, 66360, Note_on_c, 11, 79, 76
9, 66464, Note_on_c, 11, 79, 0
9, 66480, Note_on_c, 11, 77, 76
9, 66704, Note_on_c, 11, 77, 0
9, 66720, Note_on_c, 11, 76, 76
9, 67064, Note_on_c, 11, 76, 0
9, 67080, Note_on_c, 11, 77, 76
9, 67184, Note_on_c, 11, 77, 0
9, 67200, Note_on_c, 11, 79, 76
9, 67424, Note_on_c, 11, 79, 0
9, 67440, Note_on_c, 11, 67, 76
9, 67784, Note_on_c, 11, 67, 0
9, 67800, Note_on_c, 11, 69, 76
9, 67904, Note_on_c, 11, 69, 0
9, 67920, Note_on_c, 11, 71, 76
9, 68144, Note_on_c, 11, 71, 0
9, 68160, Note_on_c, 11, 72, 76
9, 68624, Note_on_c, 11, 72, 0
9, 68640, Note_on_c, 11, 72, 76
9, 68864, Note_on_c, 11, 72, 0
9, 68880, Note_on_c, 11, 72, 76
9, 69359, Note_on_c, 11, 72, 0
9, 69359, End_track
10, 0, Start_track
10, 0, Title_t, "Violin II"
10, 0, MIDI_port, 0
10, 0, Program_c, 12, 48
10, 0, Control_c, 12, 10, 24
10, 0, Control_c, 12, 11, 127
10, 0, Control_c, 12, 7, 96
10, 240, Note_on_c, 12, 67, 76
10, 464, Note_on_c, 12, 67, 0
10, 480, Note_on_c, 12, 72, 76
10, 599, Note_on_c, 12, 72, 0
10, 600, Note_on_c, 12, 71, 76
10, 704, Note_on_c, 12, 71, 0
10, 720, Note_on_c, 12, 72, 76
10, 839, Note_on_c, 12, 72, 0
10, 840, Note_on_c, 12, 74, 76
10, 944, Note_on_c, 12, 74, 0
10, 960, Note_on_c, 12, 76, 76
10, 1079, Note_on_c, 12, 76, 0
10, 1080, Note_on_c, 12, 74, 76
10, 1184, Note_on_c, 12, 74, 0
10, 1200, Note_on_c, 12, 72, 76
10, 1319, Note_on_c, 12, 72, 0
10, 1320, Note_on_c, 12, 71, 76
10, 1424, Note_on_c, 12, 71, 0
10, 1440, Note_on_c, 12, 72, 76
10, 1559, Note_on_c, 12, 72, 0
10, 1560, Note_on_c, 12, 77, 76
10, 1664, Note_on_c, 12, 77, 0
10, 1680, Note_on_c, 12, 76, 76
10, 1799, Note_on_c, 12, 76, 0
10, 1800, Note_on_c, 12, 74, 76
10, 1904, Note_on_c, 12, 74, 0
10, 1920, Note_on_c, 12, 72, 76
10, 2039, Note_on_c, 12, 72, 0
10, 2040, Note_on_c, 12, 70, 76
10, 2144, Note_on_c, 12, 70, 0
10, 2160, Note_on_c, 12, 69, 76
10, 2279, Note_on_c, 12, 69, 0
10, 2280, Note_on_c, 12, 67, 76
10, 2384, Note_on_c, 12, 67, 0
10, 2400, Note_on_c, 12, 65, 76
10, 2519, Note_on_c, 12, 65, 0
10, 2520, Note_on_c, 12, 67, 76
10, 2624, Note_on_c, 12, 67, 0
10, 2640, Note_on_c, 12, 69, 76
10, 2759, Note_on_c, 12, 69, 0
10, 2760, Note_on_c, 12, 67, 76
10, 2864, Note_on_c, 12, 67, 0
10, 2880, Note_on_c, 12, 69, 76
10, 2999, Note_on_c, 12, 69, 0
10, 3000, Note_on_c, 12, 71, 76
10, 3104, Note_on_c, 12, 71, 0
10, 3120, Note_on_c, 12, 72, 76
10, 3239, Note_on_c, 12, 72, 0
10, 3240, Note_on_c, 12, 69, 76
10, 3344, Note_on_c, 12, 69, 0
10, 3360, Note_on_c, 12, 65, 76
10, 3479, Note_on_c, 12, 65, 0
10, 3480, Note_on_c, 12, 64, 76
10, 3584, Note_on_c, 12, 64, 0
10, 3600, Note_on_c, 12, 65, 76
10, 3719, Note_on_c, 12, 65, 0
10, 3720, Note_on_c, 12, 67, 76
10, 3824, Note_on_c, 12, 67, 0
10, 3840, Note_on_c, 12, 69, 76
10, 3959, Note_on_c, 12, 69, 0
10, 3960, Note_on_c, 12, 65, 76
10, 4064, Note_on_c, 12, 65, 0
10, 4080, Note_on_c, 12, 62, 76
10, 4199, Note_on_c, 12, 62, 0
10, 4200, Note_on_c, 12, 65, 76
10, 4304, Note_on_c, 12, 65, 0
10, 4320, Note_on_c, 12, 67, 76
10, 4439, Note_on_c, 12, 67, 0
10, 4440, Note_on_c, 12, 69, 76
10, 4544, Note_on_c, 12, 69, 0
10, 4560, Note_on_c, 12, 71, 76
10, 4679, Note_on_c, 12, 71, 0
10, 4680, Note_on_c, 12, 74, 76
10, 4784, Note_on_c, 12, 74, 0
10, 4800, Note_on_c, 12, 67, 76
10, 4919, Note_on_c, 12, 67, 0
10, 4920, Note_on_c, 12, 77, 76
10, 5024, Note_on_c, 12, 77, 0
10, 5040, Note_on_c, 12, 76, 76
10, 5159, Note_on_c, 12, 76, 0
10, 5160, Note_on_c, 12, 74, 76
10, 5264, Note_on_c, 12, 74, 0
10, 5280, Note_on_c, 12, 72, 76
10, 5399, Note_on_c, 12, 72, 0
10, 5400, Note_on_c, 12, 71, 76
10, 5504, Note_on_c, 12, 71, 0
10, 5520, Note_on_c, 12, 72, 76
10, 5639, Note_on_c, 12, 72, 0
10, 5640, Note_on_c, 12, 69, 76
10, 5744, Note_on_c, 12, 69, 0
10, 5760, Note_on_c, 12, 67, 76
10, 5879, Note_on_c, 12, 67, 0
10, 5880, Note_on_c, 12, 65, 76
10, 5984, Note_on_c, 12, 65, 0
10, 6000, Note_on_c, 12, 64, 76
10, 6119, Note_on_c, 12, 64, 0
10, 6120, Note_on_c, 12, 62, 76
10, 6224, Note_on_c, 12, 62, 0
10, 6240, Note_on_c, 12, 60, 76
10, 6359, Note_on_c, 12, 60, 0
10, 6360, Note_on_c, 12, 67, 76
10, 6464, Note_on_c, 12, 67, 0
10, 6480, Note_on_c, 12, 72, 76
10, 6599, Note_on_c, 12, 72, 0
10, 6600, Note_on_c, 12, 74, 76
10, 6704, Note_on_c, 12, 74, 0
10, 6720, Note_on_c, 12, 76, 76
10, 6839, Note_on_c, 12, 76, 0
10, 6840, Note_on_c, 12, 74, 76
10, 6944, Note_on_c, 12, 74, 0
10, 6960, Note_on_c, 12, 72, 76
10, 7079, Note_on_c, 12, 72, 0
10, 7080, Note_on_c, 12, 71, 76
10, 7184, Note_on_c, 12, 71, 0
10, 7200, Note_on_c, 12, 72, 76
10, 7319, Note_on_c, 12, 72, 0
10, 7320, Note_on_c, 12, 74, 76
10, 7424, Note_on_c, 12, 74, 0
10, 7440, Note_on_c, 12, 76, 76
10, 7559, Note_on_c, 12, 76, 0
10, 7560, Note_on_c, 12, 72, 76
10, 7664, Note_on_c, 12, 72, 0
10, 7680, Note_on_c, 12, 69, 76
10, 7799, Note_on_c, 12, 69, 0
10, 7800, Note_on_c, 12, 67, 76
10, 7904, Note_on_c, 12, 67, 0
10, 7920, Note_on_c, 12, 69, 76
10, 8039, Note_on_c, 12, 69, 0
10, 8040, Note_on_c, 12, 71, 76
10, 8144, Note_on_c, 12, 71, 0
10, 8160, Note_on_c, 12, 72, 76
10, 8279, Note_on_c, 12, 72, 0
10, 8280, Note_on_c, 12, 69, 76
10, 8384, Note_on_c, 12, 69, 0
10, 8400, Note_on_c, 12, 66, 76
10, 8519, Note_on_c, 12, 66, 0
10, 8520, Note_on_c, 12, 64, 76
10, 8624, Note_on_c, 12, 64, 0
10, 8640, Note_on_c, 12, 66, 76
10, 8759, Note_on_c, 12, 66, 0
10, 8760, Note_on_c, 12, 67, 76
10, 8864, Note_on_c, 12, 67, 0
10, 8880, Note_on_c, 12, 69, 76
10, 8999, Note_on_c, 12, 69, 0
10, 9000, Note_on_c, 12, 62, 76
10, 9104, Note_on_c, 12, 62, 0
10, 9120, Note_on_c, 12, 74, 76
10, 9239, Note_on_c, 12, 74, 0
10, 9240, Note_on_c, 12, 72, 76
10, 9344, Note_on_c, 12, 72, 0
10, 9360, Note_on_c, 12, 71, 76
10, 9479, Note_on_c, 12, 71, 0
10, 9480, Note_on_c, 12, 69, 76
10, 9584, Note_on_c, 12, 69, 0
10, 9600, Note_on_c, 12, 67, 76
10, 9719, Note_on_c, 12, 67, 0
10, 9720, Note_on_c, 12, 71, 76
10, 9824, Note_on_c, 12, 71, 0
10, 9840, Note_on_c, 12, 69, 76
10, 9959, Note_on_c, 12, 69, 0
10, 9960, Note_on_c, 12, 67, 76
10, 10064, Note_on_c, 12, 67, 0
10, 10080, Note_on_c, 12, 66, 76
10, 10199, Note_on_c, 12, 66, 0
10, 10200, Note_on_c, 12, 64, 76
10, 10304, Note_on_c, 12, 64, 0
10, 10320, Note_on_c, 12, 62, 76
10, 10439, Note_on_c, 12, 62, 0
10, 10440, Note_on_c, 12, 69, 76
10, 10544, Note_on_c, 12, 69, 0
10, 10560, Note_on_c, 12, 71, 76
10, 10679, Note_on_c, 12, 71, 0
10, 10680, Note_on_c, 12, 67, 76
10, 10784, Note_on_c, 12, 67, 0
10, 10800, Note_on_c, 12, 66, 76
10, 10919, Note_on_c, 12, 66, 0
10, 10920, Note_on_c, 12, 64, 76
10, 11024, Note_on_c, 12, 64, 0
10, 11040, Note_on_c, 12, 62, 76
10, 11159, Note_on_c, 12, 62, 0
10, 11160, Note_on_c, 12, 60, 76
10, 11264, Note_on_c, 12, 60, 0
10, 11280, Note_on_c, 12, 62, 76
10, 11744, Note_on_c, 12, 62, 0
10, 11760, Note_on_c, 12, 67, 76
10, 11984, Note_on_c, 12, 67, 0
10, 12000, Note_on_c, 12, 72, 76
10, 12119, Note_on_c, 12, 72, 0
10, 12120, Note_on_c, 12, 71, 76
10, 12224, Note_on_c, 12, 71, 0
10, 12240, Note_on_c, 12, 72, 76
10, 12359, Note_on_c, 12, 72, 0
10, 12360, Note_on_c, 12, 74, 76
10, 12464, Note_on_c, 12, 74, 0
10, 12480, Note_on_c, 12, 76, 76
10, 12599, Note_on_c, 12, 76, 0
10, 12600, Note_on_c, 12, 74, 76
10, 12704, Note_on_c, 12, 74, 0
10, 12720, Note_on_c, 12, 72, 76
10, 12839, Note_on_c, 12, 72, 0
10, 12840, Note_on_c, 12, 71, 76
10, 12944, Note_on_c, 12, 71, 0
10, 12960, Note_on_c, 12, 72, 76
10, 13079, Note_on_c, 12, 72, 0
10, 13080, Note_on_c, 12, 77, 76
10, 13184, Note_on_c, 12, 77, 0
10, 13200, Note_on_c, 12, 76, 76
10, 13319, Note_on_c, 12, 76, 0
10, 13320, Note_on_c, 12, 74, 76
10, 13424, Note_on_c, 12, 74, 0
10, 13440, Note_on_c, 12, 72, 76
10, 13559, Note_on_c, 12, 72, 0
10, 13560, Note_on_c, 12, 70, 76
10, 13664, Note_on_c, 12, 70, 0
10, 13680, Note_on_c, 12, 69, 76
10, 13799, Note_on_c, 12, 69, 0
10, 13800, Note_on_c, 12, 67, 76
10, 13904, Note_on_c, 12, 67, 0
10, 13920, Note_on_c, 12, 65, 76
10, 14039, Note_on_c, 12, 65, 0
10, 14040, Note_on_c, 12, 67, 76
10, 14144, Note_on_c, 12, 67, 0
10, 14160, Note_on_c, 12, 69, 76
10, 14279, Note_on_c, 12, 69, 0
10, 14280, Note_on_c, 12, 67, 76
10, 14384, Note_on_c, 12, 67, 0
10, 14400, Note_on_c, 12, 69, 76
10, 14519, Note_on_c, 12, 69, 0
10, 14520, Note_on_c, 12, 71, 76
10, 14624, Note_on_c, 12, 71, 0
10, 14640, Note_on_c, 12, 72, 76
10, 14759, Note_on_c, 12, 72, 0
10, 14760, Note_on_c, 12, 69, 76
10, 14864, Note_on_c, 12, 69, 0
10, 14880, Note_on_c, 12, 65, 76
10, 14999, Note_on_c, 12, 65, 0
10, 15000, Note_on_c, 12, 64, 76
10, 15104, Note_on_c, 12, 64, 0
10, 15120, Note_on_c, 12, 65, 76
10, 15239, Note_on_c, 12, 65, 0
10, 15240, Note_on_c, 12, 67, 76
10, 15344, Note_on_c, 12, 67, 0
10, 15360, Note_on_c, 12, 69, 76
10, 15479, Note_on_c, 12, 69, 0
10, 15480, Note_on_c, 12, 65, 76
10, 15584, Note_on_c, 12, 65, 0
10, 15600, Note_on_c, 12, 62, 76
10, 15719, Note_on_c, 12, 62, 0
10, 15720, Note_on_c, 12, 65, 76
10, 15824, Note_on_c, 12, 65, 0
10, 15840, Note_on_c, 12, 67, 76
10, 15959, Note_on_c, 12, 67, 0
10, 15960, Note_on_c, 12, 69, 76
10, 16064, Note_on_c, 12, 69, 0
10, 16080, Note_on_c, 12, 71, 76
10, 16199, Note_on_c, 12, 71, 0
10, 16200, Note_on_c, 12, 74, 76
10, 16304, Note_on_c, 12, 74, 0
10, 16320, Note_on_c, 12, 67, 76
10, 16439, Note_on_c, 12, 67, 0
10, 16440, Note_on_c, 12, 77, 76
10, 16544, Note_on_c, 12, 77, 0
10, 16560, Note_on_c, 12, 76, 76
10, 16679, Note_on_c, 12, 76, 0
10, 16680, Note_on_c, 12, 74, 76
10, 16784, Note_on_c, 12, 74, 0
10, 16800, Note_on_c, 12, 72, 76
10, 16919, Note_on_c, 12, 72, 0
10, 16920, Note_on_c, 12, 71, 76
10, 17024, Note_on_c, 12, 71, 0
10, 17040, Note_on_c, 12, 72, 76
10, 17159, Note_on_c, 12, 72, 0
10, 17160, Note_on_c, 12, 69, 76
10, 17264, Note_on_c, 12, 69, 0
10, 17280, Note_on_c, 12, 67, 76
10, 17399, Note_on_c, 12, 67, 0
10, 17400, Note_on_c, 12, 65, 76
10, 17504, Note_on_c, 12, 65, 0
10, 17520, Note_on_c, 12, 64, 76
10, 17639, Note_on_c, 12, 64, 0
10, 17640, Note_on_c, 12, 62, 76
10, 17744, Note_on_c, 12, 62, 0
10, 17760, Note_on_c, 12, 60, 76
10, 17879, Note_on_c, 12, 60, 0
10, 17880, Note_on_c, 12, 67, 76
10, 17984, Note_on_c, 12, 67, 0
10, 18000, Note_on_c, 12, 72, 76
10, 18119, Note_on_c, 12, 72, 0
10, 18120, Note_on_c, 12, 74, 76
10, 18224, Note_on_c, 12, 74, 0
10, 18240, Note_on_c, 12, 76, 76
10, 18359, Note_on_c, 12, 76, 0
10, 18360, Note_on_c, 12, 74, 76
10, 18464, Note_on_c, 12, 74, 0
10, 18480, Note_on_c, 12, 72, 76
10, 18599, Note_on_c, 12, 72, 0
10, 18600, Note_on_c, 12, 71, 76
10, 18704, Note_on_c, 12, 71, 0
10, 18720, Note_on_c, 12, 72, 76
10, 18839, Note_on_c, 12, 72, 0
10, 18840, Note_on_c, 12, 74, 76
10, 18944, Note_on_c, 12, 74, 0
10, 18960, Note_on_c, 12, 76, 76
10, 19079, Note_on_c, 12, 76, 0
10, 19080, Note_on_c, 12, 72, 76
10, 19184, Note_on_c, 12, 72, 0
10, 19200, Note_on_c, 12, 69, 76
10, 19319, Note_on_c, 12, 69, 0
10, 19320, Note_on_c, 12, 67, 76
10, 19424, Note_on_c, 12, 67, 0
10, 19440, Note_on_c, 12, 69, 76
10, 19559, Note_on_c, 12, 69, 0
10, 19560, Note_on_c, 12, 71, 76
10, 19664, Note_on_c, 12, 71, 0
10, 19680, Note_on_c, 12, 72, 76
10, 19799, Note_on_c, 12, 72, 0
10, 19800, Note_on_c, 12, 69, 76
10, 19904, Note_on_c, 12, 69, 0
10, 19920, Note_on_c, 12, 66, 76
10, 20039, Note_on_c, 12, 66, 0
10, 20040, Note_on_c, 12, 64, 76
10, 20144, Note_on_c, 12, 64, 0
10, 20160, Note_on_c, 12, 66, 76
10, 20279, Note_on_c, 12, 66, 0
10, 20280, Note_on_c, 12, 67, 76
10, 20384, Note_on_c, 12, 67, 0
10, 20400, Note_on_c, 12, 69, 76
10, 20519, Note_on_c, 12, 69, 0
10, 20520, Note_on_c, 12, 62, 76
10, 20624, Note_on_c, 12, 62, 0
10, 20640, Note_on_c, 12, 74, 76
10, 20759, Note_on_c, 12, 74, 0
10, 20760, Note_on_c, 12, 72, 76
10, 20864, Note_on_c, 12, 72, 0
10, 20880, Note_on_c, 12, 71, 76
10, 20999, Note_on_c, 12, 71, 0
10, 21000, Note_on_c, 12, 69, 76
10, 21104, Note_on_c, 12, 69, 0
10, 21120, Note_on_c, 12, 67, 76
10, 21239, Note_on_c, 12, 67, 0
10, 21240, Note_on_c, 12, 71, 76
10, 21344, Note_on_c, 12, 71, 0
10, 21360, Note_on_c, 12, 69, 76
10, 21479, Note_on_c, 12, 69, 0
10, 21480, Note_on_c, 12, 67, 76
10, 21584, Note_on_c, 12, 67, 0
10, 21600, Note_on_c, 12, 66, 76
10, 21719, Note_on_c, 12, 66, 0
10, 21720, Note_on_c, 12, 64, 76
10, 21824, Note_on_c, 12, 64, 0
10, 21840, Note_on_c, 12, 62, 76
10, 21959, Note_on_c, 12, 62, 0
10, 21960, Note_on_c, 12, 69, 76
10, 22064, Note_on_c, 12, 69, 0
10, 22080, Note_on_c, 12, 71, 76
10, 22199, Note_on_c, 12, 71, 0
10, 22200, Note_on_c, 12, 67, 76
10, 22304, Note_on_c, 12, 67, 0
10, 22320, Note_on_c, 12, 66, 76
10, 22439, Note_on_c, 12, 66, 0
10, 22440, Note_on_c, 12, 64, 76
10, 22544, Note_on_c, 12, 64, 0
10, 22560, Note_on_c, 12, 62, 76
10, 22679, Note_on_c, 12, 62, 0
10, 22680, Note_on_c, 12, 60, 76
10, 22784, Note_on_c, 12, 60, 0
10, 22800, Note_on_c, 12, 62, 76
10, 23264, Note_on_c, 12, 62, 0
10, 23280, Note_on_c, 12, 67, 76
10, 23399, Note_on_c, 12, 67, 0
10, 23400, Note_on_c, 12, 69, 76
10, 23504, Note_on_c, 12, 69, 0
10, 23520, Note_on_c, 12, 71, 76
10, 23639, Note_on_c, 12, 71, 0
10, 23640, Note_on_c, 12, 69, 76
10, 23744, Note_on_c, 12, 69, 0
10, 23760, Note_on_c, 12, 71, 76
10, 23879, Note_on_c, 12, 71, 0
10, 23880, Note_on_c, 12, 72, 76
10, 23984, Note_on_c, 12, 72, 0
10, 24000, Note_on_c, 12, 74, 76
10, 24119, Note_on_c, 12, 74, 0
10, 24120, Note_on_c, 12, 72, 76
10, 24224, Note_on_c, 12, 72, 0
10, 24240, Note_on_c, 12, 71, 76
10, 24359, Note_on_c, 12, 71, 0
10, 24360, Note_on_c, 12, 69, 76
10, 24464, Note_on_c, 12, 69, 0
10, 24480, Note_on_c, 12, 71, 76
10, 24599, Note_on_c, 12, 71, 0
10, 24600, Note_on_c, 12, 72, 76
10, 24704, Note_on_c, 12, 72, 0
10, 24720, Note_on_c, 12, 74, 76
10, 24839, Note_on_c, 12, 74, 0
10, 24840, Note_on_c, 12, 72, 76
10, 24944, Note_on_c, 12, 72, 0
10, 24960, Note_on_c, 12, 71, 76
10, 25079, Note_on_c, 12, 71, 0
10, 25080, Note_on_c, 12, 69, 76
10, 25184, Note_on_c, 12, 69, 0
10, 25200, Note_on_c, 12, 71, 76
10, 25319, Note_on_c, 12, 71, 0
10, 25320, Note_on_c, 12, 72, 76
10, 25424, Note_on_c, 12, 72, 0
10, 25440, Note_on_c, 12, 74, 76
10, 25559, Note_on_c, 12, 74, 0
10, 25560, Note_on_c, 12, 72, 76
10, 25664, Note_on_c, 12, 72, 0
10, 25680, Note_on_c, 12, 71, 76
10, 25799, Note_on_c, 12, 71, 0
10, 25800, Note_on_c, 12, 69, 76
10, 25904, Note_on_c, 12, 69, 0
10, 25920, Note_on_c, 12, 71, 76
10, 26039, Note_on_c, 12, 71, 0
10, 26040, Note_on_c, 12, 72, 76
10, 26144, Note_on_c, 12, 72, 0
10, 26160, Note_on_c, 12, 71, 76
10, 26279, Note_on_c, 12, 71, 0
10, 26280, Note_on_c, 12, 69, 76
10, 26384, Note_on_c, 12, 69, 0
10, 26400, Note_on_c, 12, 68, 76
10, 26519, Note_on_c, 12, 68, 0
10, 26520, Note_on_c, 12, 64, 76
10, 26624, Note_on_c, 12, 64, 0
10, 26640, Note_on_c, 12, 66, 76
10, 26759, Note_on_c, 12, 66, 0
10, 26760, Note_on_c, 12, 68, 76
10, 26864, Note_on_c, 12, 68, 0
10, 26880, Note_on_c, 12, 69, 76
10, 26999, Note_on_c, 12, 69, 0
10, 27000, Note_on_c, 12, 66, 76
10, 27104, Note_on_c, 12, 66, 0
10, 27120, Note_on_c, 12, 68, 76
10, 27239, Note_on_c, 12, 68, 0
10, 27240, Note_on_c, 12, 66, 76
10, 27344, Note_on_c, 12, 66, 0
10, 27360, Note_on_c, 12, 68, 76
10, 27479, Note_on_c, 12, 68, 0
10, 27480, Note_on_c, 12, 69, 76
10, 27584, Note_on_c, 12, 69, 0
10, 27600, Note_on_c, 12, 71, 76
10, 27719, Note_on_c, 12, 71, 0
10, 27720, Note_on_c, 12, 68, 76
10, 27824, Note_on_c, 12, 68, 0
10, 27840, Note_on_c, 12, 69, 76
10, 27959, Note_on_c, 12, 69, 0
10, 27960, Note_on_c, 12, 65, 76
10, 28064, Note_on_c, 12, 65, 0
10, 28080, Note_on_c, 12, 64, 76
10, 28199, Note_on_c, 12, 64, 0
10, 28200, Note_on_c, 12, 62, 76
10, 28304, Note_on_c, 12, 62, 0
10, 28320, Note_on_c, 12, 60, 76
10, 28439, Note_on_c, 12, 60, 0
10, 28440, Note_on_c, 12, 59, 76
10, 28544, Note_on_c, 12, 59, 0
10, 28560, Note_on_c, 12, 60, 76
10, 28679, Note_on_c, 12, 60, 0
10, 28680, Note_on_c, 12, 59, 76
10, 28784, Note_on_c, 12, 59, 0
10, 28800, Note_on_c, 12, 60, 76
10, 28919, Note_on_c, 12, 60, 0
10, 28920, Note_on_c, 12, 62, 76
10, 29024, Note_on_c, 12, 62, 0
10, 29040, Note_on_c, 12, 64, 76
10, 29159, Note_on_c, 12, 64, 0
10, 29160, Note_on_c, 12, 65, 76
10, 29264, Note_on_c, 12, 65, 0
10, 29280, Note_on_c, 12, 67, 76
10, 29399, Note_on_c, 12, 67, 0
10, 29400, Note_on_c, 12, 65, 76
10, 29504, Note_on_c, 12, 65, 0
10, 29520, Note_on_c, 12, 67, 76
10, 29639, Note_on_c, 12, 67, 0
10, 29640, Note_on_c, 12, 69, 76
10, 29744, Note_on_c, 12, 69, 0
10, 29760, Note_on_c, 12, 70, 76
10, 29879, Note_on_c, 12, 70, 0
10, 29880, Note_on_c, 12, 69, 76
10, 29984, Note_on_c, 12, 69, 0
10, 30000, Note_on_c, 12, 67, 76
10, 30119, Note_on_c, 12, 67, 0
10, 30120, Note_on_c, 12, 65, 76
10, 30224, Note_on_c, 12, 65, 0
10, 30240, Note_on_c, 12, 67, 76
10, 30359, Note_on_c, 12, 67, 0
10, 30360, Note_on_c, 12, 69, 76
10, 30464, Note_on_c, 12, 69, 0
10, 30480, Note_on_c, 12, 70, 76
10, 30599, Note_on_c, 12, 70, 0
10, 30600, Note_on_c, 12, 69, 76
10, 30704, Note_on_c, 12, 69, 0
10, 30720, Note_on_c, 12, 67, 76
10, 30839, Note_on_c, 12, 67, 0
10, 30840, Note_on_c, 12, 65, 76
10, 30944, Note_on_c, 12, 65, 0
10, 30960, Note_on_c, 12, 67, 76
10, 31079, Note_on_c, 12, 67, 0
10, 31080, Note_on_c, 12, 69, 76
10, 31184, Note_on_c, 12, 69, 0
10, 31200, Note_on_c, 12, 70, 76
10, 31319, Note_on_c, 12, 70, 0
10, 31320, Note_on_c, 12, 67, 76
10, 31424, Note_on_c, 12, 67, 0
10, 31440, Note_on_c, 12, 69, 76
10, 31559, Note_on_c, 12, 69, 0
10, 31560, Note_on_c, 12, 67, 76
10, 31664, Note_on_c, 12, 67, 0
10, 31680, Note_on_c, 12, 69, 76
10, 31799, Note_on_c, 12, 69, 0
10, 31800, Note_on_c, 12, 71, 76
10, 31904, Note_on_c, 12, 71, 0
10, 31920, Note_on_c, 12, 73, 76
10, 32039, Note_on_c, 12, 73, 0
10, 32040, Note_on_c, 12, 69, 76
10, 32144, Note_on_c, 12, 69, 0
10, 32160, Note_on_c, 12, 74, 76
10, 32279, Note_on_c, 12, 74, 0
10, 32280, Note_on_c, 12, 69, 76
10, 32384, Note_on_c, 12, 69, 0
10, 32400, Note_on_c, 12, 71, 76
10, 32519, Note_on_c, 12, 71, 0
10, 32520, Note_on_c, 12, 73, 76
10, 32624, Note_on_c, 12, 73, 0
10, 32640, Note_on_c, 12, 74, 76
10, 32759, Note_on_c, 12, 74, 0
10, 32760, Note_on_c, 12, 69, 76
10, 32864, Note_on_c, 12, 69, 0
10, 32880, Note_on_c, 12, 65, 76
10, 32999, Note_on_c, 12, 65, 0
10, 33000, Note_on_c, 12, 64, 76
10, 33104, Note_on_c, 12, 64, 0
10, 33120, Note_on_c, 12, 65, 76
10, 33239, Note_on_c, 12, 65, 0
10, 33240, Note_on_c, 12, 67, 76
10, 33344, Note_on_c, 12, 67, 0
10, 33360, Note_on_c, 12, 69, 76
10, 33479, Note_on_c, 12, 69, 0
10, 33480, Note_on_c, 12, 67, 76
10, 33584, Note_on_c, 12, 67, 0
10, 33600, Note_on_c, 12, 65, 76
10, 33719, Note_on_c, 12, 65, 0
10, 33720, Note_on_c, 12, 64, 76
10, 33824, Note_on_c, 12, 64, 0
10, 33840, Note_on_c, 12, 65, 76
10, 33959, Note_on_c, 12, 65, 0
10, 33960, Note_on_c, 12, 67, 76
10, 34064, Note_on_c, 12, 67, 0
10, 34080, Note_on_c, 12, 69, 76
10, 34199, Note_on_c, 12, 69, 0
10, 34200, Note_on_c, 12, 67, 76
10, 34304, Note_on_c, 12, 67, 0
10, 34320, Note_on_c, 12, 65, 76
10, 34439, Note_on_c, 12, 65, 0
10, 34440, Note_on_c, 12, 64, 76
10, 34544, Note_on_c, 12, 64, 0
10, 34560, Note_on_c, 12, 65, 76
10, 34679, Note_on_c, 12, 65, 0
10, 34680, Note_on_c, 12, 67, 76
10, 34784, Note_on_c, 12, 67, 0
10, 34800, Note_on_c, 12, 69, 76
10, 34919, Note_on_c, 12, 69, 0
10, 34920, Note_on_c, 12, 62, 76
10, 35024, Note_on_c, 12, 62, 0
10, 35040, Note_on_c, 12, 67, 76
10, 35159, Note_on_c, 12, 67, 0
10, 35160, Note_on_c, 12, 69, 76
10, 35264, Note_on_c, 12, 69, 0
10, 35280, Note_on_c, 12, 71, 76
10, 35399, Note_on_c, 12, 71, 0
10, 35400, Note_on_c, 12, 72, 76
10, 35504, Note_on_c, 12, 72, 0
10, 35520, Note_on_c, 12, 74, 76
10, 35639, Note_on_c, 12, 74, 0
10, 35640, Note_on_c, 12, 76, 76
10, 35744, Note_on_c, 12, 76, 0
10, 35760, Note_on_c, 12, 77, 76
10, 35879, Note_on_c, 12, 77, 0
10, 35880, Note_on_c, 12, 76, 76
10, 35984, Note_on_c, 12, 76, 0
10, 36000, Note_on_c, 12, 74, 76
10, 36119, Note_on_c, 12, 74, 0
10, 36120, Note_on_c, 12, 72, 76
10, 36224, Note_on_c, 12, 72, 0
10, 36240, Note_on_c, 12, 71, 76
10, 36359, Note_on_c, 12, 71, 0
10, 36360, Note_on_c, 12, 69, 76
10, 36464, Note_on_c, 12, 69, 0
10, 36480, Note_on_c, 12, 71, 76
10, 36599, Note_on_c, 12, 71, 0
10, 36600, Note_on_c, 12, 72, 76
10, 36704, Note_on_c, 12, 72, 0
10, 36720, Note_on_c, 12, 74, 76
10, 36839, Note_on_c, 12, 74, 0
10, 36840, Note_on_c, 12, 72, 76
10, 36944, Note_on_c, 12, 72, 0
10, 36960, Note_on_c, 12, 71, 76
10, 37079, Note_on_c, 12, 71, 0
10, 37080, Note_on_c, 12, 69, 76
10, 37184, Note_on_c, 12, 69, 0
10, 37200, Note_on_c, 12, 67, 76
10, 37319, Note_on_c, 12, 67, 0
10, 37320, Note_on_c, 12, 65, 76
10, 37424, Note_on_c, 12, 65, 0
10, 37440, Note_on_c, 12, 64, 76
10, 37559, Note_on_c, 12, 64, 0
10, 37560, Note_on_c, 12, 62, 76
10, 37664, Note_on_c, 12, 62, 0
10, 37680, Note_on_c, 12, 64, 76
10, 37799, Note_on_c, 12, 64, 0
10, 37800, Note_on_c, 12, 65, 76
10, 37904, Note_on_c, 12, 65, 0
10, 37920, Note_on_c, 12, 67, 76
10, 38039, Note_on_c, 12, 67, 0
10, 38040, Note_on_c, 12, 69, 76
10, 38144, Note_on_c, 12, 69, 0
10, 38160, Note_on_c, 12, 67, 76
10, 38279, Note_on_c, 12, 67, 0
10, 38280, Note_on_c, 12, 65, 76
10, 38384, Note_on_c, 12, 65, 0
10, 38400, Note_on_c, 12, 64, 76
10, 38519, Note_on_c, 12, 64, 0
10, 38520, Note_on_c, 12, 62, 76
10, 38624, Note_on_c, 12, 62, 0
10, 38640, Note_on_c, 12, 60, 76
10, 38759, Note_on_c, 12, 60, 0
10, 38760, Note_on_c, 12, 62, 76
10, 38864, Note_on_c, 12, 62, 0
10, 38880, Note_on_c, 12, 64, 76
10, 38999, Note_on_c, 12, 64, 0
10, 39000, Note_on_c, 12, 65, 76
10, 39104, Note_on_c, 12, 65, 0
10, 39120, Note_on_c, 12, 67, 76
10, 39344, Note_on_c, 12, 67, 0
10, 39360, Note_on_c, 12, 67, 76
10, 39824, Note_on_c, 12, 67, 0
10, 39840, Note_on_c, 12, 65, 76
10, 40079, Note_on_c, 12, 65, 0
10, 40560, Note_on_c, 12, 69, 76
10, 40784, Note_on_c, 12, 69, 0
10, 40800, Note_on_c, 12, 69, 76
10, 41264, Note_on_c, 12, 69, 0
10, 41280, Note_on_c, 12, 67, 76
10, 41519, Note_on_c, 12, 67, 0
10, 42000, Note_on_c, 12, 71, 76
10, 42224, Note_on_c, 12, 71, 0
10, 42240, Note_on_c, 12, 71, 76
10, 42584, Note_on_c, 12, 71, 0
10, 42600, Note_on_c, 12, 69, 76
10, 42704, Note_on_c, 12, 69, 0
10, 42720, Note_on_c, 12, 72, 76
10, 42944, Note_on_c, 12, 72, 0
10, 42960, Note_on_c, 12, 74, 76
10, 43304, Note_on_c, 12, 74, 0
10, 43320, Note_on_c, 12, 71, 76
10, 43424, Note_on_c, 12, 71, 0
10, 43440, Note_on_c, 12, 74, 76
10, 43664, Note_on_c, 12, 74, 0
10, 43680, Note_on_c, 12, 72, 76
10, 43799, Note_on_c, 12, 72, 0
10, 43800, Note_on_c, 12, 69, 76
10, 43904, Note_on_c, 12, 69, 0
10, 43920, Note_on_c, 12, 67, 76
10, 44039, Note_on_c, 12, 67, 0
10, 44040, Note_on_c, 12, 65, 76
10, 44144, Note_on_c, 12, 65, 0
10, 44160, Note_on_c, 12, 64, 76
10, 44279, Note_on_c, 12, 64, 0
10, 44280, Note_on_c, 12, 62, 76
10, 44384, Note_on_c, 12, 62, 0
10, 44400, Note_on_c, 12, 60, 76
10, 44519, Note_on_c, 12, 60, 0
10, 44520, Note_on_c, 12, 76, 76
10, 44624, Note_on_c, 12, 76, 0
10, 44640, Note_on_c, 12, 74, 76
10, 44759, Note_on_c, 12, 74, 0
10, 44760, Note_on_c, 12, 72, 76
10, 44864, Note_on_c, 12, 72, 0
10, 44880, Note_on_c, 12, 71, 76
10, 44999, Note_on_c, 12, 71, 0
10, 45000, Note_on_c, 12, 69, 76
10, 45104, Note_on_c, 12, 69, 0
10, 45120, Note_on_c, 12, 67, 76
10, 45239, Note_on_c, 12, 67, 0
10, 45240, Note_on_c, 12, 69, 76
10, 45344, Note_on_c, 12, 69, 0
10, 45360, Note_on_c, 12, 67, 76
10, 45479, Note_on_c, 12, 67, 0
10, 45480, Note_on_c, 12, 65, 76
10, 45584, Note_on_c, 12, 65, 0
10, 45600, Note_on_c, 12, 64, 76
10, 45719, Note_on_c, 12, 64, 0
10, 45720, Note_on_c, 12, 62, 76
10, 45824, Note_on_c, 12, 62, 0
10, 45840, Note_on_c, 12, 64, 76
10, 46304, Note_on_c, 12, 64, 0
10, 46320, Note_on_c, 12, 67, 76
10, 46439, Note_on_c, 12, 67, 0
10, 46440, Note_on_c, 12, 69, 76
10, 46544, Note_on_c, 12, 69, 0
10, 46560, Note_on_c, 12, 71, 76
10, 46679, Note_on_c, 12, 71, 0
10, 46680, Note_on_c, 12, 69, 76
10, 46784, Note_on_c, 12, 69, 0
10, 46800, Note_on_c, 12, 71, 76
10, 46919, Note_on_c, 12, 71, 0
10, 46920, Note_on_c, 12, 72, 76
10, 47024, Note_on_c, 12, 72, 0
10, 47040, Note_on_c, 12, 74, 76
10, 47159, Note_on_c, 12, 74, 0
10, 47160, Note_on_c, 12, 72, 76
10, 47264, Note_on_c, 12, 72, 0
10, 47280, Note_on_c, 12, 71, 76
10, 47399, Note_on_c, 12, 71, 0
10, 47400, Note_on_c, 12, 69, 76
10, 47504, Note_on_c, 12, 69, 0
10, 47520, Note_on_c, 12, 71, 76
10, 47639, Note_on_c, 12, 71, 0
10, 47640, Note_on_c, 12, 72, 76
10, 47744, Note_on_c, 12, 72, 0
10, 47760, Note_on_c, 12, 74, 76
10, 47879, Note_on_c, 12, 74, 0
10, 47880, Note_on_c, 12, 72, 76
10, 47984, Note_on_c, 12, 72, 0
10, 48000, Note_on_c, 12, 71, 76
10, 48119, Note_on_c, 12, 71, 0
10, 48120, Note_on_c, 12, 69, 76
10, 48224, Note_on_c, 12, 69, 0
10, 48240, Note_on_c, 12, 71, 76
10, 48359, Note_on_c, 12, 71, 0
10, 48360, Note_on_c, 12, 72, 76
10, 48464, Note_on_c, 12, 72, 0
10, 48480, Note_on_c, 12, 74, 76
10, 48599, Note_on_c, 12, 74, 0
10, 48600, Note_on_c, 12, 72, 76
10, 48704, Note_on_c, 12, 72, 0
10, 48720, Note_on_c, 12, 71, 76
10, 48839, Note_on_c, 12, 71, 0
10, 48840, Note_on_c, 12, 69, 76
10, 48944, Note_on_c, 12, 69, 0
10, 48960, Note_on_c, 12, 71, 76
10, 49079, Note_on_c, 12, 71, 0
10, 49080, Note_on_c, 12, 72, 76
10, 49184, Note_on_c, 12, 72, 0
10, 49200, Note_on_c, 12, 71, 76
10, 49319, Note_on_c, 12, 71, 0
10, 49320, Note_on_c, 12, 69, 76
10, 49424, Note_on_c, 12, 69, 0
10, 49440, Note_on_c, 12, 68, 76
10, 49559, Note_on_c, 12, 68, 0
10, 49560, Note_on_c, 12, 64, 76
10, 49664, Note_on_c, 12, 64, 0
10, 49680, Note_on_c, 12, 66, 76
10, 49799, Note_on_c, 12, 66, 0
10, 49800, Note_on_c, 12, 68, 76
10, 49904, Note_on_c, 12, 68, 0
10, 49920, Note_on_c, 12, 69, 76
10, 50039, Note_on_c, 12, 69, 0
10, 50040, Note_on_c, 12, 66, 76
10, 50144, Note_on_c, 12, 66, 0
10, 50160, Note_on_c, 12, 68, 76
10, 50279, Note_on_c, 12, 68, 0
10, 50280, Note_on_c, 12, 66, 76
10, 50384, Note_on_c, 12, 66, 0
10, 50400, Note_on_c, 12, 68, 76
10, 50519, Note_on_c, 12, 68, 0
10, 50520, Note_on_c, 12, 69, 76
10, 50624, Note_on_c, 12, 69, 0
10, 50640, Note_on_c, 12, 71, 76
10, 50759, Note_on_c, 12, 71, 0
10, 50760, Note_on_c, 12, 68, 76
10, 50864, Note_on_c, 12, 68, 0
10, 50880, Note_on_c, 12, 69, 76
10, 50999, Note_on_c, 12, 69, 0
10, 51000, Note_on_c, 12, 65, 76
10, 51104, Note_on_c, 12, 65, 0
10, 51120, Note_on_c, 12, 64, 76
10, 51239, Note_on_c, 12, 64, 0
10, 51240, Note_on_c, 12, 62, 76
10, 51344, Note_on_c, 12, 62, 0
10, 51360, Note_on_c, 12, 60, 76
10, 51479, Note_on_c, 12, 60, 0
10, 51480, Note_on_c, 12, 59, 76
10, 51584, Note_on_c, 12, 59, 0
10, 51600, Note_on_c, 12, 60, 76
10, 51719, Note_on_c, 12, 60, 0
10, 51720, Note_on_c, 12, 59, 76
10, 51824, Note_on_c, 12, 59, 0
10, 51840, Note_on_c, 12, 60, 76
10, 51959, Note_on_c, 12, 60, 0
10, 51960, Note_on_c, 12, 62, 76
10, 52064, Note_on_c, 12, 62, 0
10, 52080, Note_on_c, 12, 64, 76
10, 52199, Note_on_c, 12, 64, 0
10, 52200, Note_on_c, 12, 65, 76
10, 52304, Note_on_c, 12, 65, 0
10, 52320, Note_on_c, 12, 67, 76
10, 52439, Note_on_c, 12, 67, 0
10, 52440, Note_on_c, 12, 65, 76
10, 52544, Note_on_c, 12, 65, 0
10, 52560, Note_on_c, 12, 67, 76
10, 52679, Note_on_c, 12, 67, 0
10, 52680, Note_on_c, 12, 69, 76
10, 52784, Note_on_c, 12, 69, 0
10, 52800, Note_on_c, 12, 70, 76
10, 52919, Note_on_c, 12, 70, 0
10, 52920, Note_on_c, 12, 69, 76
10, 53024, Note_on_c, 12, 69, 0
10, 53040, Note_on_c, 12, 67, 76
10, 53159, Note_on_c, 12, 67, 0
10, 53160, Note_on_c, 12, 65, 76
10, 53264, Note_on_c, 12, 65, 0
10, 53280, Note_on_c, 12, 67, 76
10, 53399, Note_on_c, 12, 67, 0
10, 53400, Note_on_c, 12, 69, 76
10, 53504, Note_on_c, 12, 69, 0
10, 53520, Note_on_c, 12, 70, 76
10, 53639, Note_on_c, 12, 70, 0
10, 53640, Note_on_c, 12, 69, 76
10, 53744, Note_on_c, 12, 69, 0
10, 53760, Note_on_c, 12, 67, 76
10, 53879, Note_on_c, 12, 67, 0
10, 53880, Note_on_c, 12, 65, 76
10, 53984, Note_on_c, 12, 65, 0
10, 54000, Note_on_c, 12, 67, 76
10, 54119, Note_on_c, 12, 67, 0
10, 54120, Note_on_c, 12, 69, 76
10, 54224, Note_on_c, 12, 69, 0
10, 54240, Note_on_c, 12, 70, 76
10, 54359, Note_on_c, 12, 70, 0
10, 54360, Note_on_c, 12, 67, 76
10, 54464, Note_on_c, 12, 67, 0
10, 54480, Note_on_c, 12, 69, 76
10, 54599, Note_on_c, 12, 69, 0
10, 54600, Note_on_c, 12, 67, 76
10, 54704, Note_on_c, 12, 67, 0
10, 54720, Note_on_c, 12, 69, 76
10, 54839, Note_on_c, 12, 69, 0
10, 54840, Note_on_c, 12, 71, 76
10, 54944, Note_on_c, 12, 71, 0
10, 54960, Note_on_c, 12, 73, 76
10, 55079, Note_on_c, 12, 73, 0
10, 55080, Note_on_c, 12, 69, 76
10, 55184, Note_on_c, 12, 69, 0
10, 55200, Note_on_c, 12, 74, 76
10, 55319, Note_on_c, 12, 74, 0
10, 55320, Note_on_c, 12, 69, 76
10, 55424, Note_on_c, 12, 69, 0
10, 55440, Note_on_c, 12, 71, 76
10, 55559, Note_on_c, 12, 71, 0
10, 55560, Note_on_c, 12, 73, 76
10, 55664, Note_on_c, 12, 73, 0
10, 55680, Note_on_c, 12, 74, 76
10, 55799, Note_on_c, 12, 74, 0
10, 55800, Note_on_c, 12, 69, 76
10, 55904, Note_on_c, 12, 69, 0
10, 55920, Note_on_c, 12, 65, 76
10, 56039, Note_on_c, 12, 65, 0
10, 56040, Note_on_c, 12, 64, 76
10, 56144, Note_on_c, 12, 64, 0
10, 56160, Note_on_c, 12, 65, 76
10, 56279, Note_on_c, 12, 65, 0
10, 56280, Note_on_c, 12, 67, 76
10, 56384, Note_on_c, 12, 67, 0
10, 56400, Note_on_c, 12, 69, 76
10, 56519, Note_on_c, 12, 69, 0
10, 56520, Note_on_c, 12, 67, 76
10, 56624, Note_on_c, 12, 67, 0
10, 56640, Note_on_c, 12, 65, 76
10, 56759, Note_on_c, 12, 65, 0
10, 56760, Note_on_c, 12, 64, 76
10, 56864, Note_on_c, 12, 64, 0
10, 56880, Note_on_c, 12, 65, 76
10, 56999, Note_on_c, 12, 65, 0
10, 57000, Note_on_c, 12, 67, 76
10, 57104, Note_on_c, 12, 67, 0
10, 57120, Note_on_c, 12, 69, 76
10, 57239, Note_on_c, 12, 69, 0
10, 57240, Note_on_c, 12, 67, 76
10, 57344, Note_on_c, 12, 67, 0
10, 57360, Note_on_c, 12, 65, 76
10, 57479, Note_on_c, 12, 65, 0
10, 57480, Note_on_c, 12, 64, 76
10, 57584, Note_on_c, 12, 64, 0
10, 57600, Note_on_c, 12, 65, 76
10, 57719, Note_on_c, 12, 65, 0
10, 57720, Note_on_c, 12, 67, 76
10, 57824, Note_on_c, 12, 67, 0
10, 57840, Note_on_c, 12, 69, 76
10, 57959, Note_on_c, 12, 69, 0
10, 57960, Note_on_c, 12, 62, 76
10, 58064, Note_on_c, 12, 62, 0
10, 58080, Note_on_c, 12, 67, 76
10, 58199, Note_on_c, 12, 67, 0
10, 58200, Note_on_c, 12, 69, 76
10, 58304, Note_on_c, 12, 69, 0
10, 58320, Note_on_c, 12, 71, 76
10, 58439, Note_on_c, 12, 71, 0
10, 58440, Note_on_c, 12, 72, 76
10, 58544, Note_on_c, 12, 72, 0
10, 58560, Note_on_c, 12, 74, 76
10, 58679, Note_on_c, 12, 74, 0
10, 58680, Note_on_c, 12, 76, 76
10, 58784, Note_on_c, 12, 76, 0
10, 58800, Note_on_c, 12, 77, 76
10, 58919, Note_on_c, 12, 77, 0
10, 58920, Note_on_c, 12, 76, 76
10, 59024, Note_on_c, 12, 76, 0
10, 59040, Note_on_c, 12, 74, 76
10, 59159, Note_on_c, 12, 74, 0
10, 59160, Note_on_c, 12, 72, 76
10, 59264, Note_on_c, 12, 72, 0
10, 59280, Note_on_c, 12, 71, 76
10, 59399, Note_on_c, 12, 71, 0
10, 59400, Note_on_c, 12, 69, 76
10, 59504, Note_on_c, 12, 69, 0
10, 59520, Note_on_c, 12, 71, 76
10, 59639, Note_on_c, 12, 71, 0
10, 59640, Note_on_c, 12, 72, 76
10, 59744, Note_on_c, 12, 72, 0
10, 59760, Note_on_c, 12, 74, 76
10, 59879, Note_on_c, 12, 74, 0
10, 59880, Note_on_c, 12, 72, 76
10, 59984, Note_on_c, 12, 72, 0
10, 60000, Note_on_c, 12, 71, 76
10, 60119, Note_on_c, 12, 71, 0
10, 60120, Note_on_c, 12, 69, 76
10, 60224, Note_on_c, 12, 69, 0
10, 60240, Note_on_c, 12, 67, 76
10, 60359, Note_on_c, 12, 67, 0
10, 60360, Note_on_c, 12, 65, 76
10, 60464, Note_on_c, 12, 65, 0
10, 60480, Note_on_c, 12, 64, 76
10, 60599, Note_on_c, 12, 64, 0
10, 60600, Note_on_c, 12, 62, 76
10, 60704, Note_on_c, 12, 62, 0
10, 60720, Note_on_c, 12, 64, 76
10, 60839, Note_on_c, 12, 64, 0
10, 60840, Note_on_c, 12, 65, 76
10, 60944, Note_on_c, 12, 65, 0
10, 60960, Note_on_c, 12, 67, 76
10, 61079, Note_on_c, 12, 67, 0
10, 61080, Note_on_c, 12, 69, 76
10, 61184, Note_on_c, 12, 69, 0
10, 61200, Note_on_c, 12, 67, 76
10, 61319, Note_on_c, 12, 67, 0
10, 61320, Note_on_c, 12, 65, 76
10, 61424, Note_on_c, 12, 65, 0
10, 61440, Note_on_c, 12, 64, 76
10, 61559, Note_on_c, 12, 64, 0
10, 61560, Note_on_c, 12, 62, 76
10, 61664, Note_on_c, 12, 62, 0
10, 61680, Note_on_c, 12, 60, 76
10, 61799, Note_on_c, 12, 60, 0
10, 61800, Note_on_c, 12, 62, 76
10, 61904, Note_on_c, 12, 62, 0
10, 61920, Note_on_c, 12, 64, 76
10, 62039, Note_on_c, 12, 64, 0
10, 62040, Note_on_c, 12, 65, 76
10, 62144, Note_on_c, 12, 65, 0
10, 62160, Note_on_c, 12, 67, 76
10, 62384, Note_on_c, 12, 67, 0
10, 62400, Note_on_c, 12, 67, 76
10, 62864, Note_on_c, 12, 67, 0
10, 62880, Note_on_c, 12, 65, 76
10, 63119, Note_on_c, 12, 65, 0
10, 63600, Note_on_c, 12, 69, 76
10, 63824, Note_on_c, 12, 69, 0
10, 63840, Note_on_c, 12, 69, 76
10, 64304, Note_on_c, 12, 69, 0
10, 64320, Note_on_c, 12, 67, 76
10, 64559, Note_on_c, 12, 67, 0
10, 65040, Note_on_c, 12, 71, 76
10, 65264, Note_on_c, 12, 71, 0
10, 65280, Note_on_c, 12, 71, 76
10, 65624, Note_on_c, 12, 71, 0
10, 65640, Note_on_c, 12, 69, 76
10, 65744, Note_on_c, 12, 69, 0
10, 65760, Note_on_c, 12, 72, 76
10, 65984, Note_on_c, 12, 72, 0
10, 66000, Note_on_c, 12, 74, 76
10, 66344, Note_on_c, 12, 74, 0
10, 66360, Note_on_c, 12, 71, 76
10, 66464, Note_on_c, 12, 71, 0
10, 66480, Note_on_c, 12, 74, 76
10, 66704, Note_on_c, 12, 74, 0
10, 66720, Note_on_c, 12, 72, 76
10, 66839, Note_on_c, 12, 72, 0
10, 66840, Note_on_c, 12, 69, 76
10, 66944, Note_on_c, 12, 69, 0
10, 66960, Note_on_c, 12, 67, 76
10, 67079, Note_on_c, 12, 67, 0
10, 67080, Note_on_c, 12, 65, 76
10, 67184, Note_on_c, 12, 65, 0
10, 67200, Note_on_c, 12, 64, 76
10, 67319, Note_on_c, 12, 64, 0
10, 67320, Note_on_c, 12, 62, 76
10, 67424, Note_on_c, 12, 62, 0
10, 67440, Note_on_c, 12, 60, 76
10, 67559, Note_on_c, 12, 60, 0
10, 67560, Note_on_c, 12, 76, 76
10, 67664, Note_on_c, 12, 76, 0
10, 67680, Note_on_c, 12, 74, 76
10, 67799, Note_on_c, 12, 74, 0
10, 67800, Note_on_c, 12, 72, 76
10, 67904, Note_on_c, 12, 72, 0
10, 67920, Note_on_c, 12, 71, 76
10, 68039, Note_on_c, 12, 71, 0
10, 68040, Note_on_c, 12, 69, 76
10, 68144, Note_on_c, 12, 69, 0
10, 68160, Note_on_c, 12, 67, 76
10, 68279, Note_on_c, 12, 67, 0
10, 68280, Note_on_c, 12, 69, 76
10, 68384, Note_on_c, 12, 69, 0
10, 68400, Note_on_c, 12, 67, 76
10, 68519, Note_on_c, 12, 67, 0
10, 68520, Note_on_c, 12, 65, 76
10, 68624, Note_on_c, 12, 65, 0
10, 68640, Note_on_c, 12, 64, 76
10, 68759, Note_on_c, 12, 64, 0
10, 68760, Note_on_c, 12, 62, 76
10, 68864, Note_on_c, 12, 62, 0
10, 68880, Note_on_c, 12, 64, 76
10, 69359, Note_on_c, 12, 64, 0
10, 69359, End_track
11, 0, Start_track
11, 0, Title_t, "Viola"
11, 0, MIDI_port, 0
11, 0, Program_c, 13, 48
11, 0, Control_c, 13, 10, 70
11, 0, Control_c, 13, 11, 127
11, 0, Control_c, 13, 7, 96
11, 240, Note_on_c, 13, 64, 76
11, 359, Note_on_c, 13, 64, 0
11, 360, Note_on_c, 13, 65, 76
11, 464, Note_on_c, 13, 65, 0
11, 480, Note_on_c, 13, 64, 76
11, 599, Note_on_c, 13, 64, 0
11, 600, Note_on_c, 13, 62, 76
11, 704, Note_on_c, 13, 62, 0
11, 720, Note_on_c, 13, 64, 76
11, 839, Note_on_c, 13, 64, 0
11, 840, Note_on_c, 13, 65, 76
11, 944, Note_on_c, 13, 65, 0
11, 960, Note_on_c, 13, 67, 76
11, 1079, Note_on_c, 13, 67, 0
11, 1080, Note_on_c, 13, 65, 76
11, 1184, Note_on_c, 13, 65, 0
11, 1200, Note_on_c, 13, 64, 76
11, 1319, Note_on_c, 13, 64, 0
11, 1320, Note_on_c, 13, 62, 76
11, 1424, Note_on_c, 13, 62, 0
11, 1440, Note_on_c, 13, 64, 76
11, 1559, Note_on_c, 13, 64, 0
11, 1560, Note_on_c, 13, 65, 76
11, 1664, Note_on_c, 13, 65, 0
11, 1680, Note_on_c, 13, 67, 76
11, 1799, Note_on_c, 13, 67, 0
11, 1800, Note_on_c, 13, 64, 76
11, 1904, Note_on_c, 13, 64, 0
11, 1920, Note_on_c, 13, 65, 76
11, 2039, Note_on_c, 13, 65, 0
11, 2040, Note_on_c, 13, 64, 76
11, 2144, Note_on_c, 13, 64, 0
11, 2160, Note_on_c, 13, 65, 76
11, 2279, Note_on_c, 13, 65, 0
11, 2280, Note_on_c, 13, 67, 76
11, 2384, Note_on_c, 13, 67, 0
11, 2400, Note_on_c, 13, 69, 76
11, 2519, Note_on_c, 13, 69, 0
11, 2520, Note_on_c, 13, 67, 76
11, 2624, Note_on_c, 13, 67, 0
11, 2640, Note_on_c, 13, 65, 76
11, 2759, Note_on_c, 13, 65, 0
11, 2760, Note_on_c, 13, 64, 76
11, 2864, Note_on_c, 13, 64, 0
11, 2880, Note_on_c, 13, 65, 76
11, 2999, Note_on_c, 13, 65, 0
11, 3000, Note_on_c, 13, 67, 76
11, 3104, Note_on_c, 13, 67, 0
11, 3120, Note_on_c, 13, 69, 76
11, 3239, Note_on_c, 13, 69, 0
11, 3240, Note_on_c, 13, 65, 76
11, 3344, Note_on_c, 13, 65, 0
11, 3360, Note_on_c, 13, 62, 76
11, 3479, Note_on_c, 13, 62, 0
11, 3480, Note_on_c, 13, 60, 76
11, 3584, Note_on_c, 13, 60, 0
11, 3600, Note_on_c, 13, 62, 76
11, 3719, Note_on_c, 13, 62, 0
11, 3720, Note_on_c, 13, 64, 76
11, 3824, Note_on_c, 13, 64, 0
11, 3840, Note_on_c, 13, 65, 76
11, 3959, Note_on_c, 13, 65, 0
11, 3960, Note_on_c, 13, 62, 76
11, 4064, Note_on_c, 13, 62, 0
11, 4080, Note_on_c, 13, 59, 76
11, 4199, Note_on_c, 13, 59, 0
11, 4200, Note_on_c, 13, 57, 76
11, 4304, Note_on_c, 13, 57, 0
11, 4320, Note_on_c, 13, 59, 76
11, 4439, Note_on_c, 13, 59, 0
11, 4440, Note_on_c, 13, 60, 76
11, 4544, Note_on_c, 13, 60, 0
11, 4560, Note_on_c, 13, 62, 76
11, 4679, Note_on_c, 13, 62, 0
11, 4680, Note_on_c, 13, 59, 76
11, 4784, Note_on_c, 13, 59, 0
11, 4800, Note_on_c, 13, 60, 76
11, 4919, Note_on_c, 13, 60, 0
11, 4920, Note_on_c, 13, 59, 76
11, 5024, Note_on_c, 13, 59, 0
11, 5040, Note_on_c, 13, 60, 76
11, 5159, Note_on_c, 13, 60, 0
11, 5160, Note_on_c, 13, 62, 76
11, 5264, Note_on_c, 13, 62, 0
11, 5280, Note_on_c, 13, 64, 76
11, 5399, Note_on_c, 13, 64, 0
11, 5400, Note_on_c, 13, 62, 76
11, 5504, Note_on_c, 13, 62, 0
11, 5520, Note_on_c, 13, 64, 76
11, 5639, Note_on_c, 13, 64, 0
11, 5640, Note_on_c, 13, 65, 76
11, 5744, Note_on_c, 13, 65, 0
11, 5760, Note_on_c, 13, 64, 76
11, 5879, Note_on_c, 13, 64, 0
11, 5880, Note_on_c, 13, 62, 76
11, 5984, Note_on_c, 13, 62, 0
11, 6000, Note_on_c, 13, 60, 76
11, 6119, Note_on_c, 13, 60, 0
11, 6120, Note_on_c, 13, 62, 76
11, 6224, Note_on_c, 13, 62, 0
11, 6240, Note_on_c, 13, 64, 76
11, 6359, Note_on_c, 13, 64, 0
11, 6360, Note_on_c, 13, 62, 76
11, 6464, Note_on_c, 13, 62, 0
11, 6480, Note_on_c, 13, 64, 76
11, 6599, Note_on_c, 13, 64, 0
11, 6600, Note_on_c, 13, 65, 76
11, 6704, Note_on_c, 13, 65, 0
11, 6720, Note_on_c, 13, 67, 76
11, 6839, Note_on_c, 13, 67, 0
11, 6840, Note_on_c, 13, 65, 76
11, 6944, Note_on_c, 13, 65, 0
11, 6960, Note_on_c, 13, 64, 76
11, 7079, Note_on_c, 13, 64, 0
11, 7080, Note_on_c, 13, 65, 76
11, 7184, Note_on_c, 13, 65, 0
11, 7200, Note_on_c, 13, 64, 76
11, 7319, Note_on_c, 13, 64, 0
11, 7320, Note_on_c, 13, 62, 76
11, 7424, Note_on_c, 13, 62, 0
11, 7440, Note_on_c, 13, 60, 76
11, 7559, Note_on_c, 13, 60, 0
11, 7560, Note_on_c, 13, 64, 76
11, 7664, Note_on_c, 13, 64, 0
11, 7680, Note_on_c, 13, 62, 76
11, 7799, Note_on_c, 13, 62, 0
11, 7800, Note_on_c, 13, 74, 76
11, 7904, Note_on_c, 13, 74, 0
11, 7920, Note_on_c, 13, 72, 76
11, 8039, Note_on_c, 13, 72, 0
11, 8040, Note_on_c, 13, 71, 76
11, 8144, Note_on_c, 13, 71, 0
11, 8160, Note_on_c, 13, 69, 76
11, 8279, Note_on_c, 13, 69, 0
11, 8280, Note_on_c, 13, 67, 76
11, 8384, Note_on_c, 13, 67, 0
11, 8400, Note_on_c, 13, 69, 76
11, 8519, Note_on_c, 13, 69, 0
11, 8520, Note_on_c, 13, 67, 76
11, 8624, Note_on_c, 13, 67, 0
11, 8640, Note_on_c, 13, 69, 76
11, 8759, Note_on_c, 13, 69, 0
11, 8760, Note_on_c, 13, 71, 76
11, 8864, Note_on_c, 13, 71, 0
11, 8880, Note_on_c, 13, 72, 76
11, 8999, Note_on_c, 13, 72, 0
11, 9000, Note_on_c, 13, 69, 76
11, 9104, Note_on_c, 13, 69, 0
11, 9120, Note_on_c, 13, 71, 76
11, 9239, Note_on_c, 13, 71, 0
11, 9240, Note_on_c, 13, 69, 76
11, 9344, Note_on_c, 13, 69, 0
11, 9360, Note_on_c, 13, 67, 76
11, 9479, Note_on_c, 13, 67, 0
11, 9480, Note_on_c, 13, 66, 76
11, 9584, Note_on_c, 13, 66, 0
11, 9600, Note_on_c, 13, 64, 76
11, 9719, Note_on_c, 13, 64, 0
11, 9720, Note_on_c, 13, 67, 76
11, 9824, Note_on_c, 13, 67, 0
11, 9840, Note_on_c, 13, 66, 76
11, 9959, Note_on_c, 13, 66, 0
11, 9960, Note_on_c, 13, 67, 76
11, 10064, Note_on_c, 13, 67, 0
11, 10080, Note_on_c, 13, 69, 76
11, 10199, Note_on_c, 13, 69, 0
11, 10200, Note_on_c, 13, 67, 76
11, 10304, Note_on_c, 13, 67, 0
11, 10320, Note_on_c, 13, 66, 76
11, 10439, Note_on_c, 13, 66, 0
11, 10440, Note_on_c, 13, 64, 76
11, 10544, Note_on_c, 13, 64, 0
11, 10560, Note_on_c, 13, 62, 76
11, 10679, Note_on_c, 13, 62, 0
11, 10680, Note_on_c, 13, 64, 76
11, 10784, Note_on_c, 13, 64, 0
11, 10800, Note_on_c, 13, 62, 76
11, 10919, Note_on_c, 13, 62, 0
11, 10920, Note_on_c, 13, 60, 76
11, 11024, Note_on_c, 13, 60, 0
11, 11040, Note_on_c, 13, 59, 76
11, 11159, Note_on_c, 13, 59, 0
11, 11160, Note_on_c, 13, 57, 76
11, 11264, Note_on_c, 13, 57, 0
11, 11280, Note_on_c, 13, 59, 76
11, 11744, Note_on_c, 13, 59, 0
11, 11760, Note_on_c, 13, 64, 76
11, 11879, Note_on_c, 13, 64, 0
11, 11880, Note_on_c, 13, 65, 76
11, 11984, Note_on_c, 13, 65, 0
11, 12000, Note_on_c, 13, 64, 76
11, 12119, Note_on_c, 13, 64, 0
11, 12120, Note_on_c, 13, 62, 76
11, 12224, Note_on_c, 13, 62, 0
11, 12240, Note_on_c, 13, 64, 76
11, 12359, Note_on_c, 13, 64, 0
11, 12360, Note_on_c, 13, 65, 76
11, 12464, Note_on_c, 13, 65, 0
11, 12480, Note_on_c, 13, 67, 76
11, 12599, Note_on_c, 13, 67, 0
11, 12600, Note_on_c, 13, 65, 76
11, 12704, Note_on_c, 13, 65, 0
11, 12720, Note_on_c, 13, 64, 76
11, 12839, Note_on_c, 13, 64, 0
11, 12840, Note_on_c, 13, 62, 76
11, 12944, Note_on_c, 13, 62, 0
11, 12960, Note_on_c, 13, 64, 76
11, 13079, Note_on_c, 13, 64, 0
11, 13080, Note_on_c, 13, 65, 76
11, 13184, Note_on_c, 13, 65, 0
11, 13200, Note_on_c, 13, 67, 76
11, 13319, Note_on_c, 13, 67, 0
11, 13320, Note_on_c, 13, 64, 76
11, 13424, Note_on_c, 13, 64, 0
11, 13440, Note_on_c, 13, 65, 76
11, 13559, Note_on_c, 13, 65, 0
11, 13560, Note_on_c, 13, 64, 76
11, 13664, Note_on_c, 13, 64, 0
11, 13680, Note_on_c, 13, 65, 76
11, 13799, Note_on_c, 13, 65, 0
11, 13800, Note_on_c, 13, 67, 76
11, 13904, Note_on_c, 13, 67, 0
11, 13920, Note_on_c, 13, 69, 76
11, 14039, Note_on_c, 13, 69, 0
11, 14040, Note_on_c, 13, 67, 76
11, 14144, Note_on_c, 13, 67, 0
11, 14160, Note_on_c, 13, 65, 76
11, 14279, Note_on_c, 13, 65, 0
11, 14280, Note_on_c, 13, 64, 76
11, 14384, Note_on_c, 13, 64, 0
11, 14400, Note_on_c, 13, 65, 76
11, 14519, Note_on_c, 13, 65, 0
11, 14520, Note_on_c, 13, 67, 76
11, 14624, Note_on_c, 13, 67, 0
11, 14640, Note_on_c, 13, 69, 76
11, 14759, Note_on_c, 13, 69, 0
11, 14760, Note_on_c, 13, 65, 76
11, 14864, Note_on_c, 13, 65, 0
11, 14880, Note_on_c, 13, 62, 76
11, 14999, Note_on_c, 13, 62, 0
11, 15000, Note_on_c, 13, 60, 76
11, 15104, Note_on_c, 13, 60, 0
11, 15120, Note_on_c, 13, 62, 76
11, 15239, Note_on_c, 13, 62, 0
11, 15240, Note_on_c, 13, 64, 76
11, 15344, Note_on_c, 13, 64, 0
11, 15360, Note_on_c, 13, 65, 76
11, 15479, Note_on_c, 13, 65, 0
11, 15480, Note_on_c, 13, 62, 76
11, 15584, Note_on_c, 13, 62, 0
11, 15600, Note_on_c, 13, 59, 76
11, 15719, Note_on_c, 13, 59, 0
11, 15720, Note_on_c, 13, 57, 76
11, 15824, Note_on_c, 13, 57, 0
11, 15840, Note_on_c, 13, 59, 76
11, 15959, Note_on_c, 13, 59, 0
11, 15960, Note_on_c, 13, 60, 76
11, 16064, Note_on_c, 13, 60, 0
11, 16080, Note_on_c, 13, 62, 76
11, 16199, Note_on_c, 13, 62, 0
11, 16200, Note_on_c, 13, 59, 76
11, 16304, Note_on_c, 13, 59, 0
11, 16320, Note_on_c, 13, 60, 76
11, 16439, Note_on_c, 13, 60, 0
11, 16440, Note_on_c, 13, 59, 76
11, 16544, Note_on_c, 13, 59, 0
11, 16560, Note_on_c, 13, 60, 76
11, 16679, Note_on_c, 13, 60, 0
11, 16680, Note_on_c, 13, 62, 76
11, 16784, Note_on_c, 13, 62, 0
11, 16800, Note_on_c, 13, 64, 76
11, 16919, Note_on_c, 13, 64, 0
11, 16920, Note_on_c, 13, 62, 76
11, 17024, Note_on_c, 13, 62, 0
11, 17040, Note_on_c, 13, 64, 76
11, 17159, Note_on_c, 13, 64, 0
11, 17160, Note_on_c, 13, 65, 76
11, 17264, Note_on_c, 13, 65, 0
11, 17280, Note_on_c, 13, 64, 76
11, 17399, Note_on_c, 13, 64, 0
11, 17400, Note_on_c, 13, 62, 76
11, 17504, Note_on_c, 13, 62, 0
11, 17520, Note_on_c, 13, 60, 76
11, 17639, Note_on_c, 13, 60, 0
11, 17640, Note_on_c, 13, 62, 76
11, 17744, Note_on_c, 13, 62, 0
11, 17760, Note_on_c, 13, 64, 76
11, 17879, Note_on_c, 13, 64, 0
11, 17880, Note_on_c, 13, 62, 76
11, 17984, Note_on_c, 13, 62, 0
11, 18000, Note_on_c, 13, 64, 76
11, 18119, Note_on_c, 13, 64, 0
11, 18120, Note_on_c, 13, 65, 76
11, 18224, Note_on_c, 13, 65, 0
11, 18240, Note_on_c, 13, 67, 76
11, 18359, Note_on_c, 13, 67, 0
11, 18360, Note_on_c, 13, 65, 76
11, 18464, Note_on_c, 13, 65, 0
11, 18480, Note_on_c, 13, 64, 76
11, 18599, Note_on_c, 13, 64, 0
11, 18600, Note_on_c, 13, 65, 76
11, 18704, Note_on_c, 13, 65, 0
11, 18720, Note_on_c, 13, 64, 76
11, 18839, Note_on_c, 13, 64, 0
11, 18840, Note_on_c, 13, 62, 76
11, 18944, Note_on_c, 13, 62, 0
11, 18960, Note_on_c, 13, 60, 76
11, 19079, Note_on_c, 13, 60, 0
11, 19080, Note_on_c, 13, 64, 76
11, 19184, Note_on_c, 13, 64, 0
11, 19200, Note_on_c, 13, 62, 76
11, 19319, Note_on_c, 13, 62, 0
11, 19320, Note_on_c, 13, 74, 76
11, 19424, Note_on_c, 13, 74, 0
11, 19440, Note_on_c, 13, 72, 76
11, 19559, Note_on_c, 13, 72, 0
11, 19560, Note_on_c, 13, 71, 76
11, 19664, Note_on_c, 13, 71, 0
11, 19680, Note_on_c, 13, 69, 76
11, 19799, Note_on_c, 13, 69, 0
11, 19800, Note_on_c, 13, 67, 76
11, 19904, Note_on_c, 13, 67, 0
11, 19920, Note_on_c, 13, 69, 76
11, 20039, Note_on_c, 13, 69, 0
11, 20040, Note_on_c, 13, 67, 76
11, 20144, Note_on_c, 13, 67, 0
11, 20160, Note_on_c, 13, 69, 76
11, 20279, Note_on_c, 13, 69, 0
11, 20280, Note_on_c, 13, 71, 76
11, 20384, Note_on_c, 13, 71, 0
11, 20400, Note_on_c, 13, 72, 76
11, 20519, Note_on_c, 13, 72, 0
11, 20520, Note_on_c, 13, 69, 76
11, 20624, Note_on_c, 13, 69, 0
11, 20640, Note_on_c, 13, 71, 76
11, 20759, Note_on_c, 13, 71, 0
11, 20760, Note_on_c, 13, 69, 76
11, 20864, Note_on_c, 13, 69, 0
11, 20880, Note_on_c, 13, 67, 76
11, 20999, Note_on_c, 13, 67, 0
11, 21000, Note_on_c, 13, 66, 76
11, 21104, Note_on_c, 13, 66, 0
11, 21120, Note_on_c, 13, 64, 76
11, 21239, Note_on_c, 13, 64, 0
11, 21240, Note_on_c, 13, 67, 76
11, 21344, Note_on_c, 13, 67, 0
11, 21360, Note_on_c, 13, 66, 76
11, 21479, Note_on_c, 13, 66, 0
11, 21480, Note_on_c, 13, 67, 76
11, 21584, Note_on_c, 13, 67, 0
11, 21600, Note_on_c, 13, 69, 76
11, 21719, Note_on_c, 13, 69, 0
11, 21720, Note_on_c, 13, 67, 76
11, 21824, Note_on_c, 13, 67, 0
11, 21840, Note_on_c, 13, 66, 76
11, 21959, Note_on_c, 13, 66, 0
11, 21960, Note_on_c, 13, 64, 76
11, 22064, Note_on_c, 13, 64, 0
11, 22080, Note_on_c, 13, 62, 76
11, 22199, Note_on_c, 13, 62, 0
11, 22200, Note_on_c, 13, 64, 76
11, 22304, Note_on_c, 13, 64, 0
11, 22320, Note_on_c, 13, 62, 76
11, 22439, Note_on_c, 13, 62, 0
11, 22440, Note_on_c, 13, 60, 76
11, 22544, Note_on_c, 13, 60, 0
11, 22560, Note_on_c, 13, 59, 76
11, 22679, Note_on_c, 13, 59, 0
11, 22680, Note_on_c, 13, 57, 76
11, 22784, Note_on_c, 13, 57, 0
11, 22800, Note_on_c, 13, 59, 76
11, 23264, Note_on_c, 13, 59, 0
11, 23280, Note_on_c, 13, 59, 76
11, 23399, Note_on_c, 13, 59, 0
11, 23400, Note_on_c, 13, 60, 76
11, 23504, Note_on_c, 13, 60, 0
11, 23520, Note_on_c, 13, 62, 76
11, 23639, Note_on_c, 13, 62, 0
11, 23640, Note_on_c, 13, 60, 76
11, 23744, Note_on_c, 13, 60, 0
11, 23760, Note_on_c, 13, 62, 76
11, 23879, Note_on_c, 13, 62, 0
11, 23880, Note_on_c, 13, 64, 76
11, 23984, Note_on_c, 13, 64, 0
11, 24000, Note_on_c, 13, 65, 76
11, 24119, Note_on_c, 13, 65, 0
11, 24120, Note_on_c, 13, 64, 76
11, 24224, Note_on_c, 13, 64, 0
11, 24240, Note_on_c, 13, 62, 76
11, 24359, Note_on_c, 13, 62, 0
11, 24360, Note_on_c, 13, 60, 76
11, 24464, Note_on_c, 13, 60, 0
11, 24480, Note_on_c, 13, 62, 76
11, 24599, Note_on_c, 13, 62, 0
11, 24600, Note_on_c, 13, 64, 76
11, 24704, Note_on_c, 13, 64, 0
11, 24720, Note_on_c, 13, 65, 76
11, 24839, Note_on_c, 13, 65, 0
11, 24840, Note_on_c, 13, 64, 76
11, 24944, Note_on_c, 13, 64, 0
11, 24960, Note_on_c, 13, 62, 76
11, 25079, Note_on_c, 13, 62, 0
11, 25080, Note_on_c, 13, 60, 76
11, 25184, Note_on_c, 13, 60, 0
11, 25200, Note_on_c, 13, 62, 76
11, 25319, Note_on_c, 13, 62, 0
11, 25320, Note_on_c, 13, 64, 76
11, 25424, Note_on_c, 13, 64, 0
11, 25440, Note_on_c, 13, 65, 76
11, 25559, Note_on_c, 13, 65, 0
11, 25560, Note_on_c, 13, 64, 76
11, 25664, Note_on_c, 13, 64, 0
11, 25680, Note_on_c, 13, 62, 76
11, 25799, Note_on_c, 13, 62, 0
11, 25800, Note_on_c, 13, 60, 76
11, 25904, Note_on_c, 13, 60, 0
11, 25920, Note_on_c, 13, 62, 76
11, 26039, Note_on_c, 13, 62, 0
11, 26040, Note_on_c, 13, 64, 76
11, 26144, Note_on_c, 13, 64, 0
11, 26160, Note_on_c, 13, 62, 76
11, 26279, Note_on_c, 13, 62, 0
11, 26280, Note_on_c, 13, 60, 76
11, 26384, Note_on_c, 13, 60, 0
11, 26400, Note_on_c, 13, 59, 76
11, 26519, Note_on_c, 13, 59, 0
11, 26520, Note_on_c, 13, 56, 76
11, 26624, Note_on_c, 13, 56, 0
11, 26640, Note_on_c, 13, 57, 76
11, 26759, Note_on_c, 13, 57, 0
11, 26760, Note_on_c, 13, 59, 76
11, 26864, Note_on_c, 13, 59, 0
11, 26880, Note_on_c, 13, 60, 76
11, 26999, Note_on_c, 13, 60, 0
11, 27000, Note_on_c, 13, 62, 76
11, 27104, Note_on_c, 13, 62, 0
11, 27120, Note_on_c, 13, 64, 76
11, 27239, Note_on_c, 13, 64, 0
11, 27240, Note_on_c, 13, 62, 76
11, 27344, Note_on_c, 13, 62, 0
11, 27360, Note_on_c, 13, 64, 76
11, 27479, Note_on_c, 13, 64, 0
11, 27480, Note_on_c, 13, 66, 76
11, 27584, Note_on_c, 13, 66, 0
11, 27600, Note_on_c, 13, 68, 76
11, 27719, Note_on_c, 13, 68, 0
11, 27720, Note_on_c, 13, 64, 76
11, 27824, Note_on_c, 13, 64, 0
11, 27840, Note_on_c, 13, 57, 76
11, 27959, Note_on_c, 13, 57, 0
11, 27960, Note_on_c, 13, 69, 76
11, 28064, Note_on_c, 13, 69, 0
11, 28080, Note_on_c, 13, 67, 76
11, 28199, Note_on_c, 13, 67, 0
11, 28200, Note_on_c, 13, 65, 76
11, 28304, Note_on_c, 13, 65, 0
11, 28320, Note_on_c, 13, 64, 76
11, 28439, Note_on_c, 13, 64, 0
11, 28440, Note_on_c, 13, 62, 76
11, 28544, Note_on_c, 13, 62, 0
11, 28560, Note_on_c, 13, 64, 76
11, 28679, Note_on_c, 13, 64, 0
11, 28680, Note_on_c, 13, 62, 76
11, 28784, Note_on_c, 13, 62, 0
11, 28800, Note_on_c, 13, 64, 76
11, 28919, Note_on_c, 13, 64, 0
11, 28920, Note_on_c, 13, 65, 76
11, 29024, Note_on_c, 13, 65, 0
11, 29040, Note_on_c, 13, 67, 76
11, 29159, Note_on_c, 13, 67, 0
11, 29160, Note_on_c, 13, 69, 76
11, 29264, Note_on_c, 13, 69, 0
11, 29280, Note_on_c, 13, 70, 76
11, 29399, Note_on_c, 13, 70, 0
11, 29400, Note_on_c, 13, 72, 76
11, 29504, Note_on_c, 13, 72, 0
11, 29520, Note_on_c, 13, 70, 76
11, 29639, Note_on_c, 13, 70, 0
11, 29640, Note_on_c, 13, 69, 76
11, 29744, Note_on_c, 13, 69, 0
11, 29760, Note_on_c, 13, 67, 76
11, 29879, Note_on_c, 13, 67, 0
11, 29880, Note_on_c, 13, 69, 76
11, 29984, Note_on_c, 13, 69, 0
11, 30000, Note_on_c, 13, 70, 76
11, 30119, Note_on_c, 13, 70, 0
11, 30120, Note_on_c, 13, 69, 76
11, 30224, Note_on_c, 13, 69, 0
11, 30240, Note_on_c, 13, 70, 76
11, 30359, Note_on_c, 13, 70, 0
11, 30360, Note_on_c, 13, 72, 76
11, 30464, Note_on_c, 13, 72, 0
11, 30480, Note_on_c, 13, 74, 76
11, 30599, Note_on_c, 13, 74, 0
11, 30600, Note_on_c, 13, 72, 76
11, 30704, Note_on_c, 13, 72, 0
11, 30720, Note_on_c, 13, 70, 76
11, 30839, Note_on_c, 13, 70, 0
11, 30840, Note_on_c, 13, 72, 76
11, 30944, Note_on_c, 13, 72, 0
11, 30960, Note_on_c, 13, 70, 76
11, 31079, Note_on_c, 13, 70, 0
11, 31080, Note_on_c, 13, 69, 76
11, 31184, Note_on_c, 13, 69, 0
11, 31200, Note_on_c, 13, 67, 76
11, 31319, Note_on_c, 13, 67, 0
11, 31320, Note_on_c, 13, 65, 76
11, 31424, Note_on_c, 13, 65, 0
11, 31440, Note_on_c, 13, 64, 76
11, 31559, Note_on_c, 13, 64, 0
11, 31560, Note_on_c, 13, 62, 76
11, 31664, Note_on_c, 13, 62, 0
11, 31680, Note_on_c, 13, 61, 76
11, 31799, Note_on_c, 13, 61, 0
11, 31800, Note_on_c, 13, 59, 76
11, 31904, Note_on_c, 13, 59, 0
11, 31920, Note_on_c, 13, 57, 76
11, 32039, Note_on_c, 13, 57, 0
11, 32040, Note_on_c, 13, 64, 76
11, 32144, Note_on_c, 13, 64, 0
11, 32160, Note_on_c, 13, 65, 76
11, 32279, Note_on_c, 13, 65, 0
11, 32280, Note_on_c, 13, 61, 76
11, 32384, Note_on_c, 13, 61, 0
11, 32400, Note_on_c, 13, 62, 76
11, 32519, Note_on_c, 13, 62, 0
11, 32520, Note_on_c, 13, 64, 76
11, 32624, Note_on_c, 13, 64, 0
11, 32640, Note_on_c, 13, 65, 76
11, 32759, Note_on_c, 13, 65, 0
11, 32760, Note_on_c, 13, 67, 76
11, 32864, Note_on_c, 13, 67, 0
11, 32880, Note_on_c, 13, 69, 76
11, 32999, Note_on_c, 13, 69, 0
11, 33000, Note_on_c, 13, 70, 76
11, 33104, Note_on_c, 13, 70, 0
11, 33120, Note_on_c, 13, 69, 76
11, 33239, Note_on_c, 13, 69, 0
11, 33240, Note_on_c, 13, 67, 76
11, 33344, Note_on_c, 13, 67, 0
11, 33360, Note_on_c, 13, 65, 76
11, 33479, Note_on_c, 13, 65, 0
11, 33480, Note_on_c, 13, 64, 76
11, 33584, Note_on_c, 13, 64, 0
11, 33600, Note_on_c, 13, 62, 76
11, 33719, Note_on_c, 13, 62, 0
11, 33720, Note_on_c, 13, 61, 76
11, 33824, Note_on_c, 13, 61, 0
11, 33840, Note_on_c, 13, 62, 76
11, 33959, Note_on_c, 13, 62, 0
11, 33960, Note_on_c, 13, 64, 76
11, 34064, Note_on_c, 13, 64, 0
11, 34080, Note_on_c, 13, 65, 76
11, 34199, Note_on_c, 13, 65, 0
11, 34200, Note_on_c, 13, 64, 76
11, 34304, Note_on_c, 13, 64, 0
11, 34320, Note_on_c, 13, 62, 76
11, 34439, Note_on_c, 13, 62, 0
11, 34440, Note_on_c, 13, 61, 76
11, 34544, Note_on_c, 13, 61, 0
11, 34560, Note_on_c, 13, 62, 76
11, 34679, Note_on_c, 13, 62, 0
11, 34680, Note_on_c, 13, 64, 76
11, 34784, Note_on_c, 13, 64, 0
11, 34800, Note_on_c, 13, 62, 76
11, 34919, Note_on_c, 13, 62, 0
11, 34920, Note_on_c, 13, 60, 76
11, 35024, Note_on_c, 13, 60, 0
11, 35040, Note_on_c, 13, 59, 76
11, 35159, Note_on_c, 13, 59, 0
11, 35160, Note_on_c, 13, 57, 76
11, 35264, Note_on_c, 13, 57, 0
11, 35280, Note_on_c, 13, 55, 76
11, 35399, Note_on_c, 13, 55, 0
11, 35400, Note_on_c, 13, 57, 76
11, 35504, Note_on_c, 13, 57, 0
11, 35520, Note_on_c, 13, 59, 76
11, 35639, Note_on_c, 13, 59, 0
11, 35640, Note_on_c, 13, 60, 76
11, 35744, Note_on_c, 13, 60, 0
11, 35760, Note_on_c, 13, 62, 76
11, 35879, Note_on_c, 13, 62, 0
11, 35880, Note_on_c, 13, 64, 76
11, 35984, Note_on_c, 13, 64, 0
11, 36000, Note_on_c, 13, 65, 76
11, 36119, Note_on_c, 13, 65, 0
11, 36120, Note_on_c, 13, 64, 76
11, 36224, Note_on_c, 13, 64, 0
11, 36240, Note_on_c, 13, 62, 76
11, 36359, Note_on_c, 13, 62, 0
11, 36360, Note_on_c, 13, 60, 76
11, 36464, Note_on_c, 13, 60, 0
11, 36480, Note_on_c, 13, 62, 76
11, 36599, Note_on_c, 13, 62, 0
11, 36600, Note_on_c, 13, 64, 76
11, 36704, Note_on_c, 13, 64, 0
11, 36720, Note_on_c, 13, 65, 76
11, 36839, Note_on_c, 13, 65, 0
11, 36840, Note_on_c, 13, 64, 76
11, 36944, Note_on_c, 13, 64, 0
11, 36960, Note_on_c, 13, 62, 76
11, 37079, Note_on_c, 13, 62, 0
11, 37080, Note_on_c, 13, 60, 76
11, 37184, Note_on_c, 13, 60, 0
11, 37200, Note_on_c, 13, 62, 76
11, 37319, Note_on_c, 13, 62, 0
11, 37320, Note_on_c, 13, 69, 76
11, 37424, Note_on_c, 13, 69, 0
11, 37440, Note_on_c, 13, 67, 76
11, 37559, Note_on_c, 13, 67, 0
11, 37560, Note_on_c, 13, 65, 76
11, 37664, Note_on_c, 13, 65, 0
11, 37680, Note_on_c, 13, 64, 76
11, 37799, Note_on_c, 13, 64, 0
11, 37800, Note_on_c, 13, 62, 76
11, 37904, Note_on_c, 13, 62, 0
11, 37920, Note_on_c, 13, 64, 76
11, 38039, Note_on_c, 13, 64, 0
11, 38040, Note_on_c, 13, 65, 76
11, 38144, Note_on_c, 13, 65, 0
11, 38160, Note_on_c, 13, 64, 76
11, 38279, Note_on_c, 13, 64, 0
11, 38280, Note_on_c, 13, 62, 76
11, 38384, Note_on_c, 13, 62, 0
11, 38400, Note_on_c, 13, 60, 76
11, 38519, Note_on_c, 13, 60, 0
11, 38520, Note_on_c, 13, 62, 76
11, 38624, Note_on_c, 13, 62, 0
11, 38640, Note_on_c, 13, 64, 76
11, 38759, Note_on_c, 13, 64, 0
11, 38760, Note_on_c, 13, 65, 76
11, 38864, Note_on_c, 13, 65, 0
11, 38880, Note_on_c, 13, 67, 76
11, 38999, Note_on_c, 13, 67, 0
11, 39000, Note_on_c, 13, 65, 76
11, 39104, Note_on_c, 13, 65, 0
11, 39120, Note_on_c, 13, 64, 76
11, 39239, Note_on_c, 13, 64, 0
11, 39240, Note_on_c, 13, 67, 76
11, 39344, Note_on_c, 13, 67, 0
11, 39360, Note_on_c, 13, 60, 76
11, 39824, Note_on_c, 13, 60, 0
11, 39840, Note_on_c, 13, 62, 76
11, 40064, Note_on_c, 13, 62, 0
11, 40080, Note_on_c, 13, 55, 76
11, 40544, Note_on_c, 13, 55, 0
11, 40560, Note_on_c, 13, 62, 76
11, 40784, Note_on_c, 13, 62, 0
11, 40800, Note_on_c, 13, 62, 76
11, 41264, Note_on_c, 13, 62, 0
11, 41280, Note_on_c, 13, 64, 76
11, 41504, Note_on_c, 13, 64, 0
11, 41520, Note_on_c, 13, 57, 76
11, 41984, Note_on_c, 13, 57, 0
11, 42000, Note_on_c, 13, 64, 76
11, 42224, Note_on_c, 13, 64, 0
11, 42240, Note_on_c, 13, 64, 76
11, 42584, Note_on_c, 13, 64, 0
11, 42600, Note_on_c, 13, 60, 76
11, 42704, Note_on_c, 13, 60, 0
11, 42720, Note_on_c, 13, 65, 76
11, 43304, Note_on_c, 13, 65, 0
11, 43320, Note_on_c, 13, 62, 76
11, 43424, Note_on_c, 13, 62, 0
11, 43440, Note_on_c, 13, 59, 76
11, 43664, Note_on_c, 13, 59, 0
11, 43680, Note_on_c, 13, 55, 76
11, 43799, Note_on_c, 13, 55, 0
11, 43800, Note_on_c, 13, 72, 76
11, 43904, Note_on_c, 13, 72, 0
11, 43920, Note_on_c, 13, 71, 76
11, 44039, Note_on_c, 13, 71, 0
11, 44040, Note_on_c, 13, 69, 76
11, 44144, Note_on_c, 13, 69, 0
11, 44160, Note_on_c, 13, 67, 76
11, 44279, Note_on_c, 13, 67, 0
11, 44280, Note_on_c, 13, 65, 76
11, 44384, Note_on_c, 13, 65, 0
11, 44400, Note_on_c, 13, 64, 76
11, 44519, Note_on_c, 13, 64, 0
11, 44520, Note_on_c, 13, 62, 76
11, 44624, Note_on_c, 13, 62, 0
11, 44640, Note_on_c, 13, 64, 76
11, 44759, Note_on_c, 13, 64, 0
11, 44760, Note_on_c, 13, 65, 76
11, 44864, Note_on_c, 13, 65, 0
11, 44880, Note_on_c, 13, 67, 76
11, 44999, Note_on_c, 13, 67, 0
11, 45000, Note_on_c, 13, 65, 76
11, 45104, Note_on_c, 13, 65, 0
11, 45120, Note_on_c, 13, 64, 76
11, 45239, Note_on_c, 13, 64, 0
11, 45240, Note_on_c, 13, 60, 76
11, 45344, Note_on_c, 13, 60, 0
11, 45360, Note_on_c, 13, 59, 76
11, 45479, Note_on_c, 13, 59, 0
11, 45480, Note_on_c, 13, 57, 76
11, 45584, Note_on_c, 13, 57, 0
11, 45600, Note_on_c, 13, 55, 76
11, 45719, Note_on_c, 13, 55, 0
11, 45720, Note_on_c, 13, 53, 76
11, 45824, Note_on_c, 13, 53, 0
11, 45840, Note_on_c, 13, 55, 76
11, 46304, Note_on_c, 13, 55, 0
11, 46320, Note_on_c, 13, 59, 76
11, 46439, Note_on_c, 13, 59, 0
11, 46440, Note_on_c, 13, 60, 76
11, 46544, Note_on_c, 13, 60, 0
11, 46560, Note_on_c, 13, 62, 76
11, 46679, Note_on_c, 13, 62, 0
11, 46680, Note_on_c, 13, 60, 76
11, 46784, Note_on_c, 13, 60, 0
11, 46800, Note_on_c, 13, 62, 76
11, 46919, Note_on_c, 13, 62, 0
11, 46920, Note_on_c, 13, 64, 76
11, 47024, Note_on_c, 13, 64, 0
11, 47040, Note_on_c, 13, 65, 76
11, 47159, Note_on_c, 13, 65, 0
11, 47160, Note_on_c, 13, 64, 76
11, 47264, Note_on_c, 13, 64, 0
11, 47280, Note_on_c, 13, 62, 76
11, 47399, Note_on_c, 13, 62, 0
11, 47400, Note_on_c, 13, 60, 76
11, 47504, Note_on_c, 13, 60, 0
11, 47520, Note_on_c, 13, 62, 76
11, 47639, Note_on_c, 13, 62, 0
11, 47640, Note_on_c, 13, 64, 76
11, 47744, Note_on_c, 13, 64, 0
11, 47760, Note_on_c, 13, 65, 76
11, 47879, Note_on_c, 13, 65, 0
11, 47880, Note_on_c, 13, 64, 76
11, 47984, Note_on_c, 13, 64, 0
11, 48000, Note_on_c, 13, 62, 76
11, 48119, Note_on_c, 13, 62, 0
11, 48120, Note_on_c, 13, 60, 76
11, 48224, Note_on_c, 13, 60, 0
11, 48240, Note_on_c, 13, 62, 76
11, 48359, Note_on_c, 13, 62, 0
11, 48360, Note_on_c, 13, 64, 76
11, 48464, Note_on_c, 13, 64, 0
11, 48480, Note_on_c, 13, 65, 76
11, 48599, Note_on_c, 13, 65, 0
11, 48600, Note_on_c, 13, 64, 76
11, 48704, Note_on_c, 13, 64, 0
11, 48720, Note_on_c, 13, 62, 76
11, 48839, Note_on_c, 13, 62, 0
11, 48840, Note_on_c, 13, 60, 76
11, 48944, Note_on_c, 13, 60, 0
11, 48960, Note_on_c, 13, 62, 76
11, 49079, Note_on_c, 13, 62, 0
11, 49080, Note_on_c, 13, 64, 76
11, 49184, Note_on_c, 13, 64, 0
11, 49200, Note_on_c, 13, 62, 76
11, 49319, Note_on_c, 13, 62, 0
11, 49320, Note_on_c, 13, 60, 76
11, 49424, Note_on_c, 13, 60, 0
11, 49440, Note_on_c, 13, 59, 76
11, 49559, Note_on_c, 13, 59, 0
11, 49560, Note_on_c, 13, 56, 76
11, 49664, Note_on_c, 13, 56, 0
11, 49680, Note_on_c, 13, 57, 76
11, 49799, Note_on_c, 13, 57, 0
11, 49800, Note_on_c, 13, 59, 76
11, 49904, Note_on_c, 13, 59, 0
11, 49920, Note_on_c, 13, 60, 76
11, 50039, Note_on_c, 13, 60, 0
11, 50040, Note_on_c, 13, 62, 76
11, 50144, Note_on_c, 13, 62, 0
11, 50160, Note_on_c, 13, 64, 76
11, 50279, Note_on_c, 13, 64, 0
11, 50280, Note_on_c, 13, 62, 76
11, 50384, Note_on_c, 13, 62, 0
11, 50400, Note_on_c, 13, 64, 76
11, 50519, Note_on_c, 13, 64, 0
11, 50520, Note_on_c, 13, 66, 76
11, 50624, Note_on_c, 13, 66, 0
11, 50640, Note_on_c, 13, 68, 76
11, 50759, Note_on_c, 13, 68, 0
11, 50760, Note_on_c, 13, 64, 76
11, 50864, Note_on_c, 13, 64, 0
11, 50880, Note_on_c, 13, 57, 76
11, 50999, Note_on_c, 13, 57, 0
11, 51000, Note_on_c, 13, 69, 76
11, 51104, Note_on_c, 13, 69, 0
11, 51120, Note_on_c, 13, 67, 76
11, 51239, Note_on_c, 13, 67, 0
11, 51240, Note_on_c, 13, 65, 76
11, 51344, Note_on_c, 13, 65, 0
11, 51360, Note_on_c, 13, 64, 76
11, 51479, Note_on_c, 13, 64, 0
11, 51480, Note_on_c, 13, 62, 76
11, 51584, Note_on_c, 13, 62, 0
11, 51600, Note_on_c, 13, 64, 76
11, 51719, Note_on_c, 13, 64, 0
11, 51720, Note_on_c, 13, 62, 76
11, 51824, Note_on_c, 13, 62, 0
11, 51840, Note_on_c, 13, 64, 76
11, 51959, Note_on_c, 13, 64, 0
11, 51960, Note_on_c, 13, 65, 76
11, 52064, Note_on_c, 13, 65, 0
11, 52080, Note_on_c, 13, 67, 76
11, 52199, Note_on_c, 13, 67, 0
11, 52200, Note_on_c, 13, 69, 76
11, 52304, Note_on_c, 13, 69, 0
11, 52320, Note_on_c, 13, 70, 76
11, 52439, Note_on_c, 13, 70, 0
11, 52440, Note_on_c, 13, 72, 76
11, 52544, Note_on_c, 13, 72, 0
11, 52560, Note_on_c, 13, 70, 76
11, 52679, Note_on_c, 13, 70, 0
11, 52680, Note_on_c, 13, 69, 76
11, 52784, Note_on_c, 13, 69, 0
11, 52800, Note_on_c, 13, 67, 76
11, 52919, Note_on_c, 13, 67, 0
11, 52920, Note_on_c, 13, 69, 76
11, 53024, Note_on_c, 13, 69, 0
11, 53040, Note_on_c, 13, 70, 76
11, 53159, Note_on_c, 13, 70, 0
11, 53160, Note_on_c, 13, 69, 76
11, 53264, Note_on_c, 13, 69, 0
11, 53280, Note_on_c, 13, 70, 76
11, 53399, Note_on_c, 13, 70, 0
11, 53400, Note_on_c, 13, 72, 76
11, 53504, Note_on_c, 13, 72, 0
11, 53520, Note_on_c, 13, 74, 76
11, 53639, Note_on_c, 13, 74, 0
11, 53640, Note_on_c, 13, 72, 76
11, 53744, Note_on_c, 13, 72, 0
11, 53760, Note_on_c, 13, 70, 76
11, 53879, Note_on_c, 13, 70, 0
11, 53880, Note_on_c, 13, 72, 76
11, 53984, Note_on_c, 13, 72, 0
11, 54000, Note_on_c, 13, 70, 76
11, 54119, Note_on_c, 13, 70, 0
11, 54120, Note_on_c, 13, 69, 76
11, 54224, Note_on_c, 13, 69, 0
11, 54240, Note_on_c, 13, 67, 76
11, 54359, Note_on_c, 13, 67, 0
11, 54360, Note_on_c, 13, 65, 76
11, 54464, Note_on_c, 13, 65, 0
11, 54480, Note_on_c, 13, 64, 76
11, 54599, Note_on_c, 13, 64, 0
11, 54600, Note_on_c, 13, 62, 76
11, 54704, Note_on_c, 13, 62, 0
11, 54720, Note_on_c, 13, 61, 76
11, 54839, Note_on_c, 13, 61, 0
11, 54840, Note_on_c, 13, 59, 76
11, 54944, Note_on_c, 13, 59, 0
11, 54960, Note_on_c, 13, 57, 76
11, 55079, Note_on_c, 13, 57, 0
11, 55080, Note_on_c, 13, 64, 76
11, 55184, Note_on_c, 13, 64, 0
11, 55200, Note_on_c, 13, 65, 76
11, 55319, Note_on_c, 13, 65, 0
11, 55320, Note_on_c, 13, 61, 76
11, 55424, Note_on_c, 13, 61, 0
11, 55440, Note_on_c, 13, 62, 76
11, 55559, Note_on_c, 13, 62, 0
11, 55560, Note_on_c, 13, 64, 76
11, 55664, Note_on_c, 13, 64, 0
11, 55680, Note_on_c, 13, 65, 76
11, 55799, Note_on_c, 13, 65, 0
11, 55800, Note_on_c, 13, 67, 76
11, 55904, Note_on_c, 13, 67, 0
11, 55920, Note_on_c, 13, 69, 76
11, 56039, Note_on_c, 13, 69, 0
11, 56040, Note_on_c, 13, 70, 76
11, 56144, Note_on_c, 13, 70, 0
11, 56160, Note_on_c, 13, 69, 76
11, 56279, Note_on_c, 13, 69, 0
11, 56280, Note_on_c, 13, 67, 76
11, 56384, Note_on_c, 13, 67, 0
11, 56400, Note_on_c, 13, 65, 76
11, 56519, Note_on_c, 13, 65, 0
11, 56520, Note_on_c, 13, 64, 76
11, 56624, Note_on_c, 13, 64, 0
11, 56640, Note_on_c, 13, 62, 76
11, 56759, Note_on_c, 13, 62, 0
11, 56760, Note_on_c, 13, 61, 76
11, 56864, Note_on_c, 13, 61, 0
11, 56880, Note_on_c, 13, 62, 76
11, 56999, Note_on_c, 13, 62, 0
11, 57000, Note_on_c, 13, 64, 76
11, 57104, Note_on_c, 13, 64, 0
11, 57120, Note_on_c, 13, 65, 76
11, 57239, Note_on_c, 13, 65, 0
11, 57240, Note_on_c, 13, 64, 76
11, 57344, Note_on_c, 13, 64, 0
11, 57360, Note_on_c, 13, 62, 76
11, 57479, Note_on_c, 13, 62, 0
11, 57480, Note_on_c, 13, 61, 76
11, 57584, Note_on_c, 13, 61, 0
11, 57600, Note_on_c, 13, 62, 76
11, 57719, Note_on_c, 13, 62, 0
11, 57720, Note_on_c, 13, 64, 76
11, 57824, Note_on_c, 13, 64, 0
11, 57840, Note_on_c, 13, 62, 76
11, 57959, Note_on_c, 13, 62, 0
11, 57960, Note_on_c, 13, 60, 76
11, 58064, Note_on_c, 13, 60, 0
11, 58080, Note_on_c, 13, 59, 76
11, 58199, Note_on_c, 13, 59, 0
11, 58200, Note_on_c, 13, 57, 76
11, 58304, Note_on_c, 13, 57, 0
11, 58320, Note_on_c, 13, 55, 76
11, 58439, Note_on_c, 13, 55, 0
11, 58440, Note_on_c, 13, 57, 76
11, 58544, Note_on_c, 13, 57, 0
11, 58560, Note_on_c, 13, 59, 76
11, 58679, Note_on_c, 13, 59, 0
11, 58680, Note_on_c, 13, 60, 76
11, 58784, Note_on_c, 13, 60, 0
11, 58800, Note_on_c, 13, 62, 76
11, 58919, Note_on_c, 13, 62, 0
11, 58920, Note_on_c, 13, 64, 76
11, 59024, Note_on_c, 13, 64, 0
11, 59040, Note_on_c, 13, 65, 76
11, 59159, Note_on_c, 13, 65, 0
11, 59160, Note_on_c, 13, 64, 76
11, 59264, Note_on_c, 13, 64, 0
11, 59280, Note_on_c, 13, 62, 76
11, 59399, Note_on_c, 13, 62, 0
11, 59400, Note_on_c, 13, 60, 76
11, 59504, Note_on_c, 13, 60, 0
11, 59520, Note_on_c, 13, 62, 76
11, 59639, Note_on_c, 13, 62, 0
11, 59640, Note_on_c, 13, 64, 76
11, 59744, Note_on_c, 13, 64, 0
11, 59760, Note_on_c, 13, 65, 76
11, 59879, Note_on_c, 13, 65, 0
11, 59880, Note_on_c, 13, 64, 76
11, 59984, Note_on_c, 13, 64, 0
11, 60000, Note_on_c, 13, 62, 76
11, 60119, Note_on_c, 13, 62, 0
11, 60120, Note_on_c, 13, 60, 76
11, 60224, Note_on_c, 13, 60, 0
11, 60240, Note_on_c, 13, 62, 76
11, 60359, Note_on_c, 13, 62, 0
11, 60360, Note_on_c, 13, 69, 76
11, 60464, Note_on_c, 13, 69, 0
11, 60480, Note_on_c, 13, 67, 76
11, 60599, Note_on_c, 13, 67, 0
11, 60600, Note_on_c, 13, 65, 76
11, 60704, Note_on_c, 13, 65, 0
11, 60720, Note_on_c, 13, 64, 76
11, 60839, Note_on_c, 13, 64, 0
11, 60840, Note_on_c, 13, 62, 76
11, 60944, Note_on_c, 13, 62, 0
11, 60960, Note_on_c, 13, 64, 76
11, 61079, Note_on_c, 13, 64, 0
11, 61080, Note_on_c, 13, 65, 76
11, 61184, Note_on_c, 13, 65, 0
11, 61200, Note_on_c, 13, 64, 76
11, 61319, Note_on_c, 13, 64, 0
11, 61320, Note_on_c, 13, 62, 76
11, 61424, Note_on_c, 13, 62, 0
11, 61440, Note_on_c, 13, 60, 76
11, 61559, Note_on_c, 13, 60, 0
11, 61560, Note_on_c, 13, 62, 76
11, 61664, Note_on_c, 13, 62, 0
11, 61680, Note_on_c, 13, 64, 76
11, 61799, Note_on_c, 13, 64, 0
11, 61800, Note_on_c, 13, 65, 76
11, 61904, Note_on_c, 13, 65, 0
11, 61920, Note_on_c, 13, 67, 76
11, 62039, Note_on_c, 13, 67, 0
11, 62040, Note_on_c, 13, 65, 76
11, 62144, Note_on_c, 13, 65, 0
11, 62160, Note_on_c, 13, 64, 76
11, 62279, Note_on_c, 13, 64, 0
11, 62280, Note_on_c, 13, 67, 76
11, 62384, Note_on_c, 13, 67, 0
11, 62400, Note_on_c, 13, 60, 76
11, 62864, Note_on_c, 13, 60, 0
11, 62880, Note_on_c, 13, 62, 76
11, 63104, Note_on_c, 13, 62, 0
11, 63120, Note_on_c, 13, 55, 76
11, 63584, Note_on_c, 13, 55, 0
11, 63600, Note_on_c, 13, 62, 76
11, 63824, Note_on_c, 13, 62, 0
11, 63840, Note_on_c, 13, 62, 76
11, 64304, Note_on_c, 13, 62, 0
11, 64320, Note_on_c, 13, 64, 76
11, 64544, Note_on_c, 13, 64, 0
11, 64560, Note_on_c, 13, 57, 76
11, 65024, Note_on_c, 13, 57, 0
11, 65040, Note_on_c, 13, 64, 76
11, 65264, Note_on_c, 13, 64, 0
11, 65280, Note_on_c, 13, 64, 76
11, 65624, Note_on_c, 13, 64, 0
11, 65640, Note_on_c, 13, 60, 76
11, 65744, Note_on_c, 13, 60, 0
11, 65760, Note_on_c, 13, 65, 76
11, 66344, Note_on_c, 13, 65, 0
11, 66360, Note_on_c, 13, 62, 76
11, 66464, Note_on_c, 13, 62, 0
11, 66480, Note_on_c, 13, 59, 76
11, 66704, Note_on_c, 13, 59, 0
11, 66720, Note_on_c, 13, 55, 76
11, 66839, Note_on_c, 13, 55, 0
11, 66840, Note_on_c, 13, 72, 76
11, 66944, Note_on_c, 13, 72, 0
11, 66960, Note_on_c, 13, 71, 76
11, 67079, Note_on_c, 13, 71, 0
11, 67080, Note_on_c, 13, 69, 76
11, 67184, Note_on_c, 13, 69, 0
11, 67200, Note_on_c, 13, 67, 76
11, 67319, Note_on_c, 13, 67, 0
11, 67320, Note_on_c, 13, 65, 76
11, 67424, Note_on_c, 13, 65, 0
11, 67440, Note_on_c, 13, 64, 76
11, 67559, Note_on_c, 13, 64, 0
11, 67560, Note_on_c, 13, 62, 76
11, 67664, Note_on_c, 13, 62, 0
11, 67680, Note_on_c, 13, 64, 76
11, 67799, Note_on_c, 13, 64, 0
11, 67800, Note_on_c, 13, 65, 76
11, 67904, Note_on_c, 13, 65, 0
11, 67920, Note_on_c, 13, 67, 76
11, 68039, Note_on_c, 13, 67, 0
11, 68040, Note_on_c, 13, 65, 76
11, 68144, Note_on_c, 13, 65, 0
11, 68160, Note_on_c, 13, 64, 76
11, 68279, Note_on_c, 13, 64, 0
11, 68280, Note_on_c, 13, 60, 76
11, 68384, Note_on_c, 13, 60, 0
11, 68400, Note_on_c, 13, 59, 76
11, 68519, Note_on_c, 13, 59, 0
11, 68520, Note_on_c, 13, 57, 76
11, 68624, Note_on_c, 13, 57, 0
11, 68640, Note_on_c, 13, 55, 76
11, 68759, Note_on_c, 13, 55, 0
11, 68760, Note_on_c, 13, 53, 76
11, 68864, Note_on_c, 13, 53, 0
11, 68880, Note_on_c, 13, 55, 76
11, 69359, Note_on_c, 13, 55, 0
11, 69359, End_track
12, 0, Start_track
12, 0, Title_t, "Cello"
12, 0, MIDI_port, 0
12, 0, Program_c, 14, 48
12, 0, Control_c, 14, 10, 90
12, 0, Control_c, 14, 11, 127
12, 0, Control_c, 14, 7, 96
12, 960, Note_on_c, 14, 48, 76
12, 1184, Note_on_c, 14, 48, 0
12, 1200, Note_on_c, 14, 60, 76
12, 1679, Note_on_c, 14, 60, 0
12, 2400, Note_on_c, 14, 48, 76
12, 2624, Note_on_c, 14, 48, 0
12, 2640, Note_on_c, 14, 60, 76
12, 3119, Note_on_c, 14, 60, 0
12, 3840, Note_on_c, 14, 48, 76
12, 4064, Note_on_c, 14, 48, 0
12, 4080, Note_on_c, 14, 60, 76
12, 4559, Note_on_c, 14, 60, 0
12, 5280, Note_on_c, 14, 48, 76
12, 5504, Note_on_c, 14, 48, 0
12, 5520, Note_on_c, 14, 60, 76
12, 5999, Note_on_c, 14, 60, 0
12, 6720, Note_on_c, 14, 48, 76
12, 6944, Note_on_c, 14, 48, 0
12, 6960, Note_on_c, 14, 60, 76
12, 7439, Note_on_c, 14, 60, 0
12, 8160, Note_on_c, 14, 48, 76
12, 8384, Note_on_c, 14, 48, 0
12, 8400, Note_on_c, 14, 60, 76
12, 8879, Note_on_c, 14, 60, 0
12, 9480, Note_on_c, 14, 59, 76
12, 9584, Note_on_c, 14, 59, 0
12, 9600, Note_on_c, 14, 60, 76
12, 9824, Note_on_c, 14, 60, 0
12, 9840, Note_on_c, 14, 62, 76
12, 10304, Note_on_c, 14, 62, 0
12, 10320, Note_on_c, 14, 50, 76
12, 10544, Note_on_c, 14, 50, 0
12, 10560, Note_on_c, 14, 55, 76
12, 11024, Note_on_c, 14, 55, 0
12, 11040, Note_on_c, 14, 43, 76
12, 11264, Note_on_c, 14, 43, 0
12, 11280, Note_on_c, 14, 55, 76
12, 11759, Note_on_c, 14, 55, 0
12, 12480, Note_on_c, 14, 48, 76
12, 12704, Note_on_c, 14, 48, 0
12, 12720, Note_on_c, 14, 60, 76
12, 13199, Note_on_c, 14, 60, 0
12, 13920, Note_on_c, 14, 48, 76
12, 14144, Note_on_c, 14, 48, 0
12, 14160, Note_on_c, 14, 60, 76
12, 14639, Note_on_c, 14, 60, 0
12, 15360, Note_on_c, 14, 48, 76
12, 15584, Note_on_c, 14, 48, 0
12, 15600, Note_on_c, 14, 60, 76
12, 16079, Note_on_c, 14, 60, 0
12, 16800, Note_on_c, 14, 48, 76
12, 17024, Note_on_c, 14, 48, 0
12, 17040, Note_on_c, 14, 60, 76
12, 17519, Note_on_c, 14, 60, 0
12, 18240, Note_on_c, 14, 48, 76
12, 18464, Note_on_c, 14, 48, 0
12, 18480, Note_on_c, 14, 60, 76
12, 18959, Note_on_c, 14, 60, 0
12, 19680, Note_on_c, 14, 48, 76
12, 19904, Note_on_c, 14, 48, 0
12, 19920, Note_on_c, 14, 60, 76
12, 20399, Note_on_c, 14, 60, 0
12, 21000, Note_on_c, 14, 59, 76
12, 21104, Note_on_c, 14, 59, 0
12, 21120, Note_on_c, 14, 60, 76
12, 21344, Note_on_c, 14, 60, 0
12, 21360, Note_on_c, 14, 62, 76
12, 21824, Note_on_c, 14, 62, 0
12, 21840, Note_on_c, 14, 50, 76
12, 22064, Note_on_c, 14, 50, 0
12, 22080, Note_on_c, 14, 55, 76
12, 22544, Note_on_c, 14, 55, 0
12, 22560, Note_on_c, 14, 43, 76
12, 22784, Note_on_c, 14, 43, 0
12, 22800, Note_on_c, 14, 55, 76
12, 23279, Note_on_c, 14, 55, 0
12, 24000, Note_on_c, 14, 43, 76
12, 24224, Note_on_c, 14, 43, 0
12, 24240, Note_on_c, 14, 55, 76
12, 24719, Note_on_c, 14, 55, 0
12, 25440, Note_on_c, 14, 44, 76
12, 25664, Note_on_c, 14, 44, 0
12, 25680, Note_on_c, 14, 56, 76
12, 26159, Note_on_c, 14, 56, 0
12, 26880, Note_on_c, 14, 40, 76
12, 27104, Note_on_c, 14, 40, 0
12, 27120, Note_on_c, 14, 52, 76
12, 27599, Note_on_c, 14, 52, 0
12, 28320, Note_on_c, 14, 45, 76
12, 28544, Note_on_c, 14, 45, 0
12, 28560, Note_on_c, 14, 57, 76
12, 29039, Note_on_c, 14, 57, 0
12, 29760, Note_on_c, 14, 43, 76
12, 29984, Note_on_c, 14, 43, 0
12, 30000, Note_on_c, 14, 55, 76
12, 30479, Note_on_c, 14, 55, 0
12, 31200, Note_on_c, 14, 43, 76
12, 31424, Note_on_c, 14, 43, 0
12, 31440, Note_on_c, 14, 55, 76
12, 31919, Note_on_c, 14, 55, 0
12, 32520, Note_on_c, 14, 53, 76
12, 32624, Note_on_c, 14, 53, 0
12, 32640, Note_on_c, 14, 50, 76
12, 32864, Note_on_c, 14, 50, 0
12, 32880, Note_on_c, 14, 57, 76
12, 33344, Note_on_c, 14, 57, 0
12, 33360, Note_on_c, 14, 45, 76
12, 33584, Note_on_c, 14, 45, 0
12, 33600, Note_on_c, 14, 50, 76
12, 34064, Note_on_c, 14, 50, 0
12, 34080, Note_on_c, 14, 38, 76
12, 34304, Note_on_c, 14, 38, 0
12, 34320, Note_on_c, 14, 50, 76
12, 34799, Note_on_c, 14, 50, 0
12, 35400, Note_on_c, 14, 62, 76
12, 35504, Note_on_c, 14, 62, 0
12, 35520, Note_on_c, 14, 60, 76
12, 35744, Note_on_c, 14, 60, 0
12, 35760, Note_on_c, 14, 59, 76
12, 36104, Note_on_c, 14, 59, 0
12, 36120, Note_on_c, 14, 60, 76
12, 36224, Note_on_c, 14, 60, 0
12, 36240, Note_on_c, 14, 57, 76
12, 36464, Note_on_c, 14, 57, 0
12, 36480, Note_on_c, 14, 55, 76
12, 36824, Note_on_c, 14, 55, 0
12, 36840, Note_on_c, 14, 57, 76
12, 36944, Note_on_c, 14, 57, 0
12, 36960, Note_on_c, 14, 53, 76
12, 37184, Note_on_c, 14, 53, 0
12, 37200, Note_on_c, 14, 52, 76
12, 37544, Note_on_c, 14, 52, 0
12, 37560, Note_on_c, 14, 53, 76
12, 37664, Note_on_c, 14, 53, 0
12, 37680, Note_on_c, 14, 50, 76
12, 37904, Note_on_c, 14, 50, 0
12, 37920, Note_on_c, 14, 48, 76
12, 38264, Note_on_c, 14, 48, 0
12, 38280, Note_on_c, 14, 50, 76
12, 38384, Note_on_c, 14, 50, 0
12, 38400, Note_on_c, 14, 46, 76
12, 38624, Note_on_c, 14, 46, 0
12, 38640, Note_on_c, 14, 45, 76
12, 38984, Note_on_c, 14, 45, 0
12, 39000, Note_on_c, 14, 46, 76
12, 39104, Note_on_c, 14, 46, 0
12, 39120, Note_on_c, 14, 43, 76
12, 39344, Note_on_c, 14, 43, 0
12, 39360, Note_on_c, 14, 41, 76
12, 39704, Note_on_c, 14, 41, 0
12, 39720, Note_on_c, 14, 52, 76
12, 39824, Note_on_c, 14, 52, 0
12, 39840, Note_on_c, 14, 50, 76
12, 40064, Note_on_c, 14, 50, 0
12, 40080, Note_on_c, 14, 52, 76
12, 40424, Note_on_c, 14, 52, 0
12, 40440, Note_on_c, 14, 55, 76
12, 40544, Note_on_c, 14, 55, 0
12, 40560, Note_on_c, 14, 54, 76
12, 40784, Note_on_c, 14, 54, 0
12, 40800, Note_on_c, 14, 55, 76
12, 41144, Note_on_c, 14, 55, 0
12, 41160, Note_on_c, 14, 53, 76
12, 41264, Note_on_c, 14, 53, 0
12, 41280, Note_on_c, 14, 52, 76
12, 41504, Note_on_c, 14, 52, 0
12, 41520, Note_on_c, 14, 54, 76
12, 41864, Note_on_c, 14, 54, 0
12, 41880, Note_on_c, 14, 57, 76
12, 41984, Note_on_c, 14, 57, 0
12, 42000, Note_on_c, 14, 56, 76
12, 42224, Note_on_c, 14, 56, 0
12, 42240, Note_on_c, 14, 57, 76
12, 42704, Note_on_c, 14, 57, 0
12, 42720, Note_on_c, 14, 53, 76
12, 42944, Note_on_c, 14, 53, 0
12, 42960, Note_on_c, 14, 47, 76
12, 43424, Note_on_c, 14, 47, 0
12, 43440, Note_on_c, 14, 55, 76
12, 43664, Note_on_c, 14, 55, 0
12, 43680, Note_on_c, 14, 48, 76
12, 44024, Note_on_c, 14, 48, 0
12, 44040, Note_on_c, 14, 50, 76
12, 44144, Note_on_c, 14, 50, 0
12, 44160, Note_on_c, 14, 52, 76
12, 44264, Note_on_c, 14, 52, 0
12, 44280, Note_on_c, 14, 53, 76
12, 44384, Note_on_c, 14, 53, 0
12, 44400, Note_on_c, 14, 55, 76
12, 44864, Note_on_c, 14, 55, 0
12, 44880, Note_on_c, 14, 43, 76
12, 45104, Note_on_c, 14, 43, 0
12, 45120, Note_on_c, 14, 48, 76
12, 45584, Note_on_c, 14, 48, 0
12, 45600, Note_on_c, 14, 36, 76
12, 45824, Note_on_c, 14, 36, 0
12, 45840, Note_on_c, 14, 48, 76
12, 46304, Note_on_c, 14, 48, 0
12, 47040, Note_on_c, 14, 43, 76
12, 47264, Note_on_c, 14, 43, 0
12, 47280, Note_on_c, 14, 55, 76
12, 47759, Note_on_c, 14, 55, 0
12, 48480, Note_on_c, 14, 44, 76
12, 48704, Note_on_c, 14, 44, 0
12, 48720, Note_on_c, 14, 56, 76
12, 49199, Note_on_c, 14, 56, 0
12, 49920, Note_on_c, 14, 40, 76
12, 50144, Note_on_c, 14, 40, 0
12, 50160, Note_on_c, 14, 52, 76
12, 50639, Note_on_c, 14, 52, 0
12, 51360, Note_on_c, 14, 45, 76
12, 51584, Note_on_c, 14, 45, 0
12, 51600, Note_on_c, 14, 57, 76
12, 52079, Note_on_c, 14, 57, 0
12, 52800, Note_on_c, 14, 43, 76
12, 53024, Note_on_c, 14, 43, 0
12, 53040, Note_on_c, 14, 55, 76
12, 53519, Note_on_c, 14, 55, 0
12, 54240, Note_on_c, 14, 43, 76
12, 54464, Note_on_c, 14, 43, 0
12, 54480, Note_on_c, 14, 55, 76
12, 54959, Note_on_c, 14, 55, 0
12, 55560, Note_on_c, 14, 53, 76
12, 55664, Note_on_c, 14, 53, 0
12, 55680, Note_on_c, 14, 50, 76
12, 55904, Note_on_c, 14, 50, 0
12, 55920, Note_on_c, 14, 57, 76
12, 56384, Note_on_c, 14, 57, 0
12, 56400, Note_on_c, 14, 45, 76
12, 56624, Note_on_c, 14, 45, 0
12, 56640, Note_on_c, 14, 50, 76
12, 57104, Note_on_c, 14, 50, 0
12, 57120, Note_on_c, 14, 38, 76
12, 57344, Note_on_c, 14, 38, 0
12, 57360, Note_on_c, 14, 50, 76
12, 57839, Note_on_c, 14, 50, 0
12, 58440, Note_on_c, 14, 62, 76
12, 58544, Note_on_c, 14, 62, 0
12, 58560, Note_on_c, 14, 60, 76
12, 58784, Note_on_c, 14, 60, 0
12, 58800, Note_on_c, 14, 59, 76
12, 59144, Note_on_c, 14, 59, 0
12, 59160, Note_on_c, 14, 60, 76
12, 59264, Note_on_c, 14, 60, 0
12, 59280, Note_on_c, 14, 57, 76
12, 59504, Note_on_c, 14, 57, 0
12, 59520, Note_on_c, 14, 55, 76
12, 59864, Note_on_c, 14, 55, 0
12, 59880, Note_on_c, 14, 57, 76
12, 59984, Note_on_c, 14, 57, 0
12, 60000, Note_on_c, 14, 53, 76
12, 60224, Note_on_c, 14, 53, 0
12, 60240, Note_on_c, 14, 52, 76
12, 60584, Note_on_c, 14, 52, 0
12, 60600, Note_on_c, 14, 53, 76
12, 60704, Note_on_c, 14, 53, 0
12, 60720, Note_on_c, 14, 50, 76
12, 60944, Note_on_c, 14, 50, 0
12, 60960, Note_on_c, 14, 48, 76
12, 61304, Note_on_c, 14, 48, 0
12, 61320, Note_on_c, 14, 50, 76
12, 61424, Note_on_c, 14, 50, 0
12, 61440, Note_on_c, 14, 46, 76
12, 61664, Note_on_c, 14, 46, 0
12, 61680, Note_on_c, 14, 45, 76
12, 62024, Note_on_c, 14, 45, 0
12, 62040, Note_on_c, 14, 46, 76
12, 62144, Note_on_c, 14, 46, 0
12, 62160, Note_on_c, 14, 43, 76
12, 62384, Note_on_c, 14, 43, 0
12, 62400, Note_on_c, 14, 41, 76
12, 62744, Note_on_c, 14, 41, 0
12, 62760, Note_on_c, 14, 52, 76
12, 62864, Note_on_c, 14, 52, 0
12, 62880, Note_on_c, 14, 50, 76
12, 63104, Note_on_c, 14, 50, 0
12, 63120, Note_on_c, 14, 52, 76
12, 63464, Note_on_c, 14, 52, 0
12, 63480, Note_on_c, 14, 55, 76
12, 63584, Note_on_c, 14, 55, 0
12, 63600, Note_on_c, 14, 54, 76
12, 63824, Note_on_c, 14, 54, 0
12, 63840, Note_on_c, 14, 55, 76
12, 64184, Note_on_c, 14, 55, 0
12, 64200, Note_on_c, 14, 53, 76
12, 64304, Note_on_c, 14, 53, 0
12, 64320, Note_on_c, 14, 52, 76
12, 64544, Note_on_c, 14, 52, 0
12, 64560, Note_on_c, 14, 54, 76
12, 64904, Note_on_c, 14, 54, 0
12, 64920, Note_on_c, 14, 57, 76
12, 65024, Note_on_c, 14, 57, 0
12, 65040, Note_on_c, 14, 56, 76
12, 65264, Note_on_c, 14, 56, 0
12, 65280, Note_on_c, 14, 57, 76
12, 65744, Note_on_c, 14, 57, 0
12, 65760, Note_on_c, 14, 53, 76
12, 65984, Note_on_c, 14, 53, 0
12, 66000, Note_on_c, 14, 47, 76
12, 66464, Note_on_c, 14, 47, 0
12, 66480, Note_on_c, 14, 55, 76
12, 66704, Note_on_c, 14, 55, 0
12, 66720, Note_on_c, 14, 48, 76
12, 67064, Note_on_c, 14, 48, 0
12, 67080, Note_on_c, 14, 50, 76
12, 67184, Note_on_c, 14, 50, 0
12, 67200, Note_on_c, 14, 52, 76
12, 67304, Note_on_c, 14, 52, 0
12, 67320, Note_on_c, 14, 53, 76
12, 67424, Note_on_c, 14, 53, 0
12, 67440, Note_on_c, 14, 55, 76
12, 67904, Note_on_c, 14, 55, 0
12, 67920, Note_on_c, 14, 43, 76
12, 68144, Note_on_c, 14, 43, 0
12, 68160, Note_on_c, 14, 48, 76
12, 68624, Note_on_c, 14, 48, 0
12, 68640, Note_on_c, 14, 36, 76
12, 68864, Note_on_c, 14, 36, 0
12, 68880, Note_on_c, 14, 48, 76
12, 69359, Note_on_c, 14, 48, 0
12, 69359, End_track
13, 0, Start_track
13, 0, Title_t, "Harpsichord "
13, 0, MIDI_port, 0
13, 0, Control_c, 15, 10, 64
13, 0, Control_c, 15, 11, 127
13, 0, Control_c, 15, 7, 72
13, 0, Program_c, 15, 6
13, 960, Note_on_c, 15, 60, 76
13, 960, Note_on_c, 15, 48, 76
13, 960, Note_on_c, 15, 67, 76
13, 960, Note_on_c, 15, 64, 76
13, 1199, Note_on_c, 15, 60, 0
13, 1199, Note_on_c, 15, 48, 0
13, 1199, Note_on_c, 15, 67, 0
13, 1199, Note_on_c, 15, 64, 0
13, 1200, Note_on_c, 15, 72, 76
13, 1200, Note_on_c, 15, 60, 76
13, 1200, Note_on_c, 15, 76, 76
13, 1200, Note_on_c, 15, 79, 76
13, 1679, Note_on_c, 15, 72, 0
13, 1679, Note_on_c, 15, 60, 0
13, 1679, Note_on_c, 15, 76, 0
13, 1679, Note_on_c, 15, 79, 0
13, 2400, Note_on_c, 15, 60, 76
13, 2400, Note_on_c, 15, 48, 76
13, 2400, Note_on_c, 15, 64, 76
13, 2400, Note_on_c, 15, 67, 76
13, 2639, Note_on_c, 15, 60, 0
13, 2639, Note_on_c, 15, 48, 0
13, 2639, Note_on_c, 15, 64, 0
13, 2639, Note_on_c, 15, 67, 0
13, 2640, Note_on_c, 15, 79, 76
13, 2640, Note_on_c, 15, 60, 76
13, 2640, Note_on_c, 15, 72, 76
13, 2640, Note_on_c, 15, 76, 76
13, 3119, Note_on_c, 15, 79, 0
13, 3119, Note_on_c, 15, 60, 0
13, 3119, Note_on_c, 15, 72, 0
13, 3119, Note_on_c, 15, 76, 0
13, 3840, Note_on_c, 15, 60, 76
13, 3840, Note_on_c, 15, 64, 76
13, 3840, Note_on_c, 15, 48, 76
13, 3840, Note_on_c, 15, 67, 76
13, 4079, Note_on_c, 15, 60, 0
13, 4079, Note_on_c, 15, 64, 0
13, 4079, Note_on_c, 15, 48, 0
13, 4079, Note_on_c, 15, 67, 0
13, 4080, Note_on_c, 15, 60, 76
13, 4080, Note_on_c, 15, 72, 76
13, 4080, Note_on_c, 15, 79, 76
13, 4080, Note_on_c, 15, 76, 76
13, 4559, Note_on_c, 15, 60, 0
13, 4559, Note_on_c, 15, 72, 0
13, 4559, Note_on_c, 15, 79, 0
13, 4559, Note_on_c, 15, 76, 0
13, 5280, Note_on_c, 15, 64, 76
13, 5280, Note_on_c, 15, 67, 76
13, 5280, Note_on_c, 15, 60, 76
13, 5280, Note_on_c, 15, 48, 76
13, 5519, Note_on_c, 15, 64, 0
13, 5519, Note_on_c, 15, 67, 0
13, 5519, Note_on_c, 15, 60, 0
13, 5519, Note_on_c, 15, 48, 0
13, 5520, Note_on_c, 15, 72, 76
13, 5520, Note_on_c, 15, 79, 76
13, 5520, Note_on_c, 15, 60, 76
13, 5520, Note_on_c, 15, 76, 76
13, 5999, Note_on_c, 15, 72, 0
13, 5999, Note_on_c, 15, 79, 0
13, 5999, Note_on_c, 15, 60, 0
13, 5999, Note_on_c, 15, 76, 0
13, 6720, Note_on_c, 15, 48, 76
13, 6720, Note_on_c, 15, 64, 76
13, 6720, Note_on_c, 15, 67, 76
13, 6720, Note_on_c, 15, 60, 76
13, 6959, Note_on_c, 15, 48, 0
13, 6959, Note_on_c, 15, 64, 0
13, 6959, Note_on_c, 15, 67, 0
13, 6959, Note_on_c, 15, 60, 0
13, 6960, Note_on_c, 15, 76, 76
13, 6960, Note_on_c, 15, 72, 76
13, 6960, Note_on_c, 15, 79, 76
13, 6960, Note_on_c, 15, 60, 76
13, 7439, Note_on_c, 15, 76, 0
13, 7439, Note_on_c, 15, 72, 0
13, 7439, Note_on_c, 15, 79, 0
13, 7439, Note_on_c, 15, 60, 0
13, 8160, Note_on_c, 15, 48, 76
13, 8160, Note_on_c, 15, 64, 76
13, 8160, Note_on_c, 15, 69, 76
13, 8160, Note_on_c, 15, 60, 76
13, 8399, Note_on_c, 15, 48, 0
13, 8399, Note_on_c, 15, 64, 0
13, 8399, Note_on_c, 15, 69, 0
13, 8399, Note_on_c, 15, 60, 0
13, 8400, Note_on_c, 15, 74, 76
13, 8400, Note_on_c, 15, 81, 76
13, 8400, Note_on_c, 15, 78, 76
13, 8400, Note_on_c, 15, 60, 76
13, 8400, Note_on_c, 15, 72, 76
13, 8879, Note_on_c, 15, 74, 0
13, 8879, Note_on_c, 15, 81, 0
13, 8879, Note_on_c, 15, 78, 0
13, 8879, Note_on_c, 15, 60, 0
13, 8879, Note_on_c, 15, 72, 0
13, 9480, Note_on_c, 15, 71, 76
13, 9480, Note_on_c, 15, 59, 76
13, 9480, Note_on_c, 15, 79, 76
13, 9480, Note_on_c, 15, 74, 76
13, 9599, Note_on_c, 15, 71, 0
13, 9599, Note_on_c, 15, 59, 0
13, 9599, Note_on_c, 15, 79, 0
13, 9599, Note_on_c, 15, 74, 0
13, 9600, Note_on_c, 15, 72, 76
13, 9600, Note_on_c, 15, 60, 76
13, 9600, Note_on_c, 15, 76, 76
13, 9600, Note_on_c, 15, 79, 76
13, 9839, Note_on_c, 15, 72, 0
13, 9839, Note_on_c, 15, 60, 0
13, 9839, Note_on_c, 15, 76, 0
13, 9839, Note_on_c, 15, 79, 0
13, 9840, Note_on_c, 15, 74, 76
13, 9840, Note_on_c, 15, 78, 76
13, 9840, Note_on_c, 15, 81, 76
13, 9840, Note_on_c, 15, 62, 76
13, 10319, Note_on_c, 15, 74, 0
13, 10319, Note_on_c, 15, 78, 0
13, 10319, Note_on_c, 15, 81, 0
13, 10319, Note_on_c, 15, 62, 0
13, 10320, Note_on_c, 15, 50, 76
13, 10320, Note_on_c, 15, 69, 76
13, 10320, Note_on_c, 15, 66, 76
13, 10320, Note_on_c, 15, 62, 76
13, 10559, Note_on_c, 15, 50, 0
13, 10559, Note_on_c, 15, 69, 0
13, 10559, Note_on_c, 15, 66, 0
13, 10559, Note_on_c, 15, 62, 0
13, 10560, Note_on_c, 15, 55, 76
13, 10560, Note_on_c, 15, 71, 76
13, 10560, Note_on_c, 15, 74, 76
13, 10560, Note_on_c, 15, 67, 76
13, 11039, Note_on_c, 15, 55, 0
13, 11039, Note_on_c, 15, 71, 0
13, 11039, Note_on_c, 15, 74, 0
13, 11039, Note_on_c, 15, 67, 0
13, 11040, Note_on_c, 15, 43, 76
13, 11040, Note_on_c, 15, 55, 76
13, 11040, Note_on_c, 15, 62, 76
13, 11040, Note_on_c, 15, 59, 76
13, 11279, Note_on_c, 15, 43, 0
13, 11279, Note_on_c, 15, 55, 0
13, 11279, Note_on_c, 15, 62, 0
13, 11279, Note_on_c, 15, 59, 0
13, 11280, Note_on_c, 15, 71, 76
13, 11280, Note_on_c, 15, 55, 76
13, 11280, Note_on_c, 15, 74, 76
13, 11280, Note_on_c, 15, 67, 76
13, 11759, Note_on_c, 15, 71, 0
13, 11759, Note_on_c, 15, 55, 0
13, 11759, Note_on_c, 15, 74, 0
13, 11759, Note_on_c, 15, 67, 0
13, 12480, Note_on_c, 15, 48, 76
13, 12480, Note_on_c, 15, 60, 76
13, 12480, Note_on_c, 15, 67, 76
13, 12480, Note_on_c, 15, 64, 76
13, 12719, Note_on_c, 15, 48, 0
13, 12719, Note_on_c, 15, 60, 0
13, 12719, Note_on_c, 15, 67, 0
13, 12719, Note_on_c, 15, 64, 0
13, 12720, Note_on_c, 15, 76, 76
13, 12720, Note_on_c, 15, 72, 76
13, 12720, Note_on_c, 15, 60, 76
13, 12720, Note_on_c, 15, 79, 76
13, 13199, Note_on_c, 15, 76, 0
13, 13199, Note_on_c, 15, 72, 0
13, 13199, Note_on_c, 15, 60, 0
13, 13199, Note_on_c, 15, 79, 0
13, 13920, Note_on_c, 15, 48, 76
13, 13920, Note_on_c, 15, 67, 76
13, 13920, Note_on_c, 15, 60, 76
13, 13920, Note_on_c, 15, 64, 76
13, 14159, Note_on_c, 15, 48, 0
13, 14159, Note_on_c, 15, 67, 0
13, 14159, Note_on_c, 15, 60, 0
13, 14159, Note_on_c, 15, 64, 0
13, 14160, Note_on_c, 15, 72, 76
13, 14160, Note_on_c, 15, 79, 76
13, 14160, Note_on_c, 15, 60, 76
13, 14160, Note_on_c, 15, 76, 76
13, 14639, Note_on_c, 15, 72, 0
13, 14639, Note_on_c, 15, 79, 0
13, 14639, Note_on_c, 15, 60, 0
13, 14639, Note_on_c, 15, 76, 0
13, 15360, Note_on_c, 15, 60, 76
13, 15360, Note_on_c, 15, 48, 76
13, 15360, Note_on_c, 15, 67, 76
13, 15360, Note_on_c, 15, 64, 76
13, 15599, Note_on_c, 15, 60, 0
13, 15599, Note_on_c, 15, 48, 0
13, 15599, Note_on_c, 15, 67, 0
13, 15599, Note_on_c, 15, 64, 0
13, 15600, Note_on_c, 15, 60, 76
13, 15600, Note_on_c, 15, 72, 76
13, 15600, Note_on_c, 15, 76, 76
13, 15600, Note_on_c, 15, 79, 76
13, 16079, Note_on_c, 15, 60, 0
13, 16079, Note_on_c, 15, 72, 0
13, 16079, Note_on_c, 15, 76, 0
13, 16079, Note_on_c, 15, 79, 0
13, 16800, Note_on_c, 15, 48, 76
13, 16800, Note_on_c, 15, 60, 76
13, 16800, Note_on_c, 15, 64, 76
13, 16800, Note_on_c, 15, 67, 76
13, 17039, Note_on_c, 15, 48, 0
13, 17039, Note_on_c, 15, 60, 0
13, 17039, Note_on_c, 15, 64, 0
13, 17039, Note_on_c, 15, 67, 0
13, 17040, Note_on_c, 15, 60, 76
13, 17040, Note_on_c, 15, 79, 76
13, 17040, Note_on_c, 15, 76, 76
13, 17040, Note_on_c, 15, 72, 76
13, 17519, Note_on_c, 15, 60, 0
13, 17519, Note_on_c, 15, 79, 0
13, 17519, Note_on_c, 15, 76, 0
13, 17519, Note_on_c, 15, 72, 0
13, 18240, Note_on_c, 15, 48, 76
13, 18240, Note_on_c, 15, 64, 76
13, 18240, Note_on_c, 15, 60, 76
13, 18240, Note_on_c, 15, 67, 76
13, 18479, Note_on_c, 15, 48, 0
13, 18479, Note_on_c, 15, 64, 0
13, 18479, Note_on_c, 15, 60, 0
13, 18479, Note_on_c, 15, 67, 0
13, 18480, Note_on_c, 15, 76, 76
13, 18480, Note_on_c, 15, 60, 76
13, 18480, Note_on_c, 15, 72, 76
13, 18480, Note_on_c, 15, 79, 76
13, 18959, Note_on_c, 15, 76, 0
13, 18959, Note_on_c, 15, 60, 0
13, 18959, Note_on_c, 15, 72, 0
13, 18959, Note_on_c, 15, 79, 0
13, 19680, Note_on_c, 15, 60, 76
13, 19680, Note_on_c, 15, 69, 76
13, 19680, Note_on_c, 15, 48, 76
13, 19680, Note_on_c, 15, 64, 76
13, 19919, Note_on_c, 15, 60, 0
13, 19919, Note_on_c, 15, 69, 0
13, 19919, Note_on_c, 15, 48, 0
13, 19919, Note_on_c, 15, 64, 0
13, 19920, Note_on_c, 15, 72, 76
13, 19920, Note_on_c, 15, 78, 76
13, 19920, Note_on_c, 15, 60, 76
13, 19920, Note_on_c, 15, 81, 76
13, 19920, Note_on_c, 15, 74, 76
13, 20399, Note_on_c, 15, 72, 0
13, 20399, Note_on_c, 15, 78, 0
13, 20399, Note_on_c, 15, 60, 0
13, 20399, Note_on_c, 15, 81, 0
13, 20399, Note_on_c, 15, 74, 0
13, 21000, Note_on_c, 15, 59, 76
13, 21000, Note_on_c, 15, 71, 76
13, 21000, Note_on_c, 15, 79, 76
13, 21000, Note_on_c, 15, 74, 76
13, 21119, Note_on_c, 15, 59, 0
13, 21119, Note_on_c, 15, 71, 0
13, 21119, Note_on_c, 15, 79, 0
13, 21119, Note_on_c, 15, 74, 0
13, 21120, Note_on_c, 15, 72, 76
13, 21120, Note_on_c, 15, 76, 76
13, 21120, Note_on_c, 15, 79, 76
13, 21120, Note_on_c, 15, 60, 76
13, 21359, Note_on_c, 15, 72, 0
13, 21359, Note_on_c, 15, 76, 0
13, 21359, Note_on_c, 15, 79, 0
13, 21359, Note_on_c, 15, 60, 0
13, 21360, Note_on_c, 15, 78, 76
13, 21360, Note_on_c, 15, 81, 76
13, 21360, Note_on_c, 15, 74, 76
13, 21360, Note_on_c, 15, 62, 76
13, 21839, Note_on_c, 15, 78, 0
13, 21839, Note_on_c, 15, 81, 0
13, 21839, Note_on_c, 15, 74, 0
13, 21839, Note_on_c, 15, 62, 0
13, 21840, Note_on_c, 15, 69, 76
13, 21840, Note_on_c, 15, 50, 76
13, 21840, Note_on_c, 15, 62, 76
13, 21840, Note_on_c, 15, 66, 76
13, 22079, Note_on_c, 15, 69, 0
13, 22079, Note_on_c, 15, 50, 0
13, 22079, Note_on_c, 15, 62, 0
13, 22079, Note_on_c, 15, 66, 0
13, 22080, Note_on_c, 15, 74, 76
13, 22080, Note_on_c, 15, 67, 76
13, 22080, Note_on_c, 15, 55, 76
13, 22080, Note_on_c, 15, 71, 76
13, 22559, Note_on_c, 15, 74, 0
13, 22559, Note_on_c, 15, 67, 0
13, 22559, Note_on_c, 15, 55, 0
13, 22559, Note_on_c, 15, 71, 0
13, 22560, Note_on_c, 15, 43, 76
13, 22560, Note_on_c, 15, 55, 76
13, 22560, Note_on_c, 15, 62, 76
13, 22560, Note_on_c, 15, 59, 76
13, 22799, Note_on_c, 15, 43, 0
13, 22799, Note_on_c, 15, 55, 0
13, 22799, Note_on_c, 15, 62, 0
13, 22799, Note_on_c, 15, 59, 0
13, 22800, Note_on_c, 15, 74, 76
13, 22800, Note_on_c, 15, 71, 76
13, 22800, Note_on_c, 15, 55, 76
13, 22800, Note_on_c, 15, 67, 76
13, 23279, Note_on_c, 15, 74, 0
13, 23279, Note_on_c, 15, 71, 0
13, 23279, Note_on_c, 15, 55, 0
13, 23279, Note_on_c, 15, 67, 0
13, 24000, Note_on_c, 15, 62, 76
13, 24000, Note_on_c, 15, 43, 76
13, 24000, Note_on_c, 15, 55, 76
13, 24000, Note_on_c, 15, 59, 76
13, 24239, Note_on_c, 15, 62, 0
13, 24239, Note_on_c, 15, 43, 0
13, 24239, Note_on_c, 15, 55, 0
13, 24239, Note_on_c, 15, 59, 0
13, 24240, Note_on_c, 15, 67, 76
13, 24240, Note_on_c, 15, 55, 76
13, 24240, Note_on_c, 15, 71, 76
13, 24240, Note_on_c, 15, 74, 76
13, 24719, Note_on_c, 15, 67, 0
13, 24719, Note_on_c, 15, 55, 0
13, 24719, Note_on_c, 15, 71, 0
13, 24719, Note_on_c, 15, 74, 0
13, 25440, Note_on_c, 15, 59, 76
13, 25440, Note_on_c, 15, 62, 76
13, 25440, Note_on_c, 15, 65, 76
13, 25440, Note_on_c, 15, 56, 76
13, 25440, Note_on_c, 15, 44, 76
13, 25679, Note_on_c, 15, 59, 0
13, 25679, Note_on_c, 15, 62, 0
13, 25679, Note_on_c, 15, 65, 0
13, 25679, Note_on_c, 15, 56, 0
13, 25679, Note_on_c, 15, 44, 0
13, 25680, Note_on_c, 15, 56, 76
13, 25680, Note_on_c, 15, 74, 76
13, 25680, Note_on_c, 15, 68, 76
13, 25680, Note_on_c, 15, 77, 76
13, 25680, Note_on_c, 15, 71, 76
13, 26159, Note_on_c, 15, 56, 0
13, 26159, Note_on_c, 15, 74, 0
13, 26159, Note_on_c, 15, 68, 0
13, 26159, Note_on_c, 15, 77, 0
13, 26159, Note_on_c, 15, 71, 0
13, 26880, Note_on_c, 15, 60, 76
13, 26880, Note_on_c, 15, 52, 76
13, 26880, Note_on_c, 15, 57, 76
13, 26880, Note_on_c, 15, 40, 76
13, 27119, Note_on_c, 15, 60, 0
13, 27119, Note_on_c, 15, 52, 0
13, 27119, Note_on_c, 15, 57, 0
13, 27119, Note_on_c, 15, 40, 0
13, 27120, Note_on_c, 15, 68, 76
13, 27120, Note_on_c, 15, 52, 76
13, 27120, Note_on_c, 15, 64, 76
13, 27120, Note_on_c, 15, 71, 76
13, 27599, Note_on_c, 15, 68, 0
13, 27599, Note_on_c, 15, 52, 0
13, 27599, Note_on_c, 15, 64, 0
13, 27599, Note_on_c, 15, 71, 0
13, 28320, Note_on_c, 15, 45, 76
13, 28320, Note_on_c, 15, 57, 76
13, 28320, Note_on_c, 15, 60, 76
13, 28320, Note_on_c, 15, 64, 76
13, 28559, Note_on_c, 15, 45, 0
13, 28559, Note_on_c, 15, 57, 0
13, 28559, Note_on_c, 15, 60, 0
13, 28559, Note_on_c, 15, 64, 0
13, 28560, Note_on_c, 15, 69, 76
13, 28560, Note_on_c, 15, 76, 76
13, 28560, Note_on_c, 15, 72, 76
13, 28560, Note_on_c, 15, 57, 76
13, 29039, Note_on_c, 15, 69, 0
13, 29039, Note_on_c, 15, 76, 0
13, 29039, Note_on_c, 15, 72, 0
13, 29039, Note_on_c, 15, 57, 0
13, 29760, Note_on_c, 15, 58, 76
13, 29760, Note_on_c, 15, 43, 76
13, 29760, Note_on_c, 15, 55, 76
13, 29760, Note_on_c, 15, 64, 76
13, 29999, Note_on_c, 15, 58, 0
13, 29999, Note_on_c, 15, 43, 0
13, 29999, Note_on_c, 15, 55, 0
13, 29999, Note_on_c, 15, 64, 0
13, 30000, Note_on_c, 15, 70, 76
13, 30000, Note_on_c, 15, 67, 76
13, 30000, Note_on_c, 15, 55, 76
13, 30000, Note_on_c, 15, 76, 76
13, 30479, Note_on_c, 15, 70, 0
13, 30479, Note_on_c, 15, 67, 0
13, 30479, Note_on_c, 15, 55, 0
13, 30479, Note_on_c, 15, 76, 0
13, 31200, Note_on_c, 15, 64, 76
13, 31200, Note_on_c, 15, 43, 76
13, 31200, Note_on_c, 15, 55, 76
13, 31200, Note_on_c, 15, 58, 76
13, 31439, Note_on_c, 15, 64, 0
13, 31439, Note_on_c, 15, 43, 0
13, 31439, Note_on_c, 15, 55, 0
13, 31439, Note_on_c, 15, 58, 0
13, 31440, Note_on_c, 15, 73, 76
13, 31440, Note_on_c, 15, 67, 76
13, 31440, Note_on_c, 15, 69, 76
13, 31440, Note_on_c, 15, 76, 76
13, 31440, Note_on_c, 15, 55, 76
13, 31919, Note_on_c, 15, 73, 0
13, 31919, Note_on_c, 15, 67, 0
13, 31919, Note_on_c, 15, 69, 0
13, 31919, Note_on_c, 15, 76, 0
13, 31919, Note_on_c, 15, 55, 0
13, 32520, Note_on_c, 15, 74, 76
13, 32520, Note_on_c, 15, 65, 76
13, 32520, Note_on_c, 15, 53, 76
13, 32520, Note_on_c, 15, 69, 76
13, 32639, Note_on_c, 15, 74, 0
13, 32639, Note_on_c, 15, 65, 0
13, 32639, Note_on_c, 15, 53, 0
13, 32639, Note_on_c, 15, 69, 0
13, 32640, Note_on_c, 15, 65, 76
13, 32640, Note_on_c, 15, 50, 76
13, 32640, Note_on_c, 15, 62, 76
13, 32640, Note_on_c, 15, 69, 76
13, 32879, Note_on_c, 15, 65, 0
13, 32879, Note_on_c, 15, 50, 0
13, 32879, Note_on_c, 15, 62, 0
13, 32879, Note_on_c, 15, 69, 0
13, 32880, Note_on_c, 15, 77, 76
13, 32880, Note_on_c, 15, 69, 76
13, 32880, Note_on_c, 15, 74, 76
13, 32880, Note_on_c, 15, 57, 76
13, 33359, Note_on_c, 15, 77, 0
13, 33359, Note_on_c, 15, 69, 0
13, 33359, Note_on_c, 15, 74, 0
13, 33359, Note_on_c, 15, 57, 0
13, 33360, Note_on_c, 15, 57, 76
13, 33360, Note_on_c, 15, 61, 76
13, 33360, Note_on_c, 15, 64, 76
13, 33360, Note_on_c, 15, 45, 76
13, 33599, Note_on_c, 15, 57, 0
13, 33599, Note_on_c, 15, 61, 0
13, 33599, Note_on_c, 15, 64, 0
13, 33599, Note_on_c, 15, 45, 0
13, 33600, Note_on_c, 15, 62, 76
13, 33600, Note_on_c, 15, 65, 76
13, 33600, Note_on_c, 15, 50, 76
13, 33600, Note_on_c, 15, 69, 76
13, 34079, Note_on_c, 15, 62, 0
13, 34079, Note_on_c, 15, 65, 0
13, 34079, Note_on_c, 15, 50, 0
13, 34079, Note_on_c, 15, 69, 0
13, 34080, Note_on_c, 15, 50, 76
13, 34080, Note_on_c, 15, 38, 76
13, 34080, Note_on_c, 15, 53, 76
13, 34080, Note_on_c, 15, 57, 76
13, 34319, Note_on_c, 15, 50, 0
13, 34319, Note_on_c, 15, 38, 0
13, 34319, Note_on_c, 15, 53, 0
13, 34319, Note_on_c, 15, 57, 0
13, 34320, Note_on_c, 15, 50, 76
13, 34320, Note_on_c, 15, 65, 76
13, 34320, Note_on_c, 15, 69, 76
13, 34320, Note_on_c, 15, 62, 76
13, 34799, Note_on_c, 15, 50, 0
13, 34799, Note_on_c, 15, 65, 0
13, 34799, Note_on_c, 15, 69, 0
13, 34799, Note_on_c, 15, 62, 0
13, 35400, Note_on_c, 15, 62, 76
13, 35400, Note_on_c, 15, 77, 76
13, 35400, Note_on_c, 15, 81, 76
13, 35400, Note_on_c, 15, 74, 76
13, 35519, Note_on_c, 15, 62, 0
13, 35519, Note_on_c, 15, 77, 0
13, 35519, Note_on_c, 15, 81, 0
13, 35519, Note_on_c, 15, 74, 0
13, 35520, Note_on_c, 15, 81, 76
13, 35520, Note_on_c, 15, 77, 76
13, 35520, Note_on_c, 15, 60, 76
13, 35520, Note_on_c, 15, 74, 76
13, 35520, Note_on_c, 15, 72, 76
13, 35759, Note_on_c, 15, 81, 0
13, 35759, Note_on_c, 15, 77, 0
13, 35759, Note_on_c, 15, 60, 0
13, 35759, Note_on_c, 15, 74, 0
13, 35759, Note_on_c, 15, 72, 0
13, 35760, Note_on_c, 15, 59, 76
13, 35760, Note_on_c, 15, 77, 76
13, 35760, Note_on_c, 15, 71, 76
13, 35760, Note_on_c, 15, 74, 76
13, 36119, Note_on_c, 15, 59, 0
13, 36119, Note_on_c, 15, 77, 0
13, 36119, Note_on_c, 15, 71, 0
13, 36119, Note_on_c, 15, 74, 0
13, 36120, Note_on_c, 15, 72, 76
13, 36120, Note_on_c, 15, 60, 76
13, 36120, Note_on_c, 15, 79, 76
13, 36120, Note_on_c, 15, 76, 76
13, 36239, Note_on_c, 15, 72, 0
13, 36239, Note_on_c, 15, 60, 0
13, 36239, Note_on_c, 15, 79, 0
13, 36239, Note_on_c, 15, 76, 0
13, 36240, Note_on_c, 15, 72, 76
13, 36240, Note_on_c, 15, 57, 76
13, 36240, Note_on_c, 15, 69, 76
13, 36479, Note_on_c, 15, 72, 0
13, 36479, Note_on_c, 15, 57, 0
13, 36479, Note_on_c, 15, 69, 0
13, 36480, Note_on_c, 15, 55, 76
13, 36480, Note_on_c, 15, 74, 76
13, 36480, Note_on_c, 15, 71, 76
13, 36480, Note_on_c, 15, 67, 76
13, 36839, Note_on_c, 15, 55, 0
13, 36839, Note_on_c, 15, 74, 0
13, 36839, Note_on_c, 15, 71, 0
13, 36839, Note_on_c, 15, 67, 0
13, 36840, Note_on_c, 15, 76, 76
13, 36840, Note_on_c, 15, 72, 76
13, 36840, Note_on_c, 15, 69, 76
13, 36840, Note_on_c, 15, 57, 76
13, 36959, Note_on_c, 15, 76, 0
13, 36959, Note_on_c, 15, 72, 0
13, 36959, Note_on_c, 15, 69, 0
13, 36959, Note_on_c, 15, 57, 0
13, 36960, Note_on_c, 15, 53, 76
13, 36960, Note_on_c, 15, 65, 76
13, 36960, Note_on_c, 15, 67, 76
13, 36960, Note_on_c, 15, 74, 76
13, 36960, Note_on_c, 15, 71, 76
13, 37199, Note_on_c, 15, 53, 0
13, 37199, Note_on_c, 15, 65, 0
13, 37199, Note_on_c, 15, 67, 0
13, 37199, Note_on_c, 15, 74, 0
13, 37199, Note_on_c, 15, 71, 0
13, 37200, Note_on_c, 15, 64, 76
13, 37200, Note_on_c, 15, 67, 76
13, 37200, Note_on_c, 15, 52, 76
13, 37200, Note_on_c, 15, 72, 76
13, 37559, Note_on_c, 15, 64, 0
13, 37559, Note_on_c, 15, 67, 0
13, 37559, Note_on_c, 15, 52, 0
13, 37559, Note_on_c, 15, 72, 0
13, 37560, Note_on_c, 15, 69, 76
13, 37560, Note_on_c, 15, 72, 76
13, 37560, Note_on_c, 15, 65, 76
13, 37560, Note_on_c, 15, 53, 76
13, 37679, Note_on_c, 15, 69, 0
13, 37679, Note_on_c, 15, 72, 0
13, 37679, Note_on_c, 15, 65, 0
13, 37679, Note_on_c, 15, 53, 0
13, 37680, Note_on_c, 15, 50, 76
13, 37680, Note_on_c, 15, 62, 76
13, 37680, Note_on_c, 15, 65, 76
13, 37919, Note_on_c, 15, 50, 0
13, 37919, Note_on_c, 15, 62, 0
13, 37919, Note_on_c, 15, 65, 0
13, 37920, Note_on_c, 15, 70, 76
13, 37920, Note_on_c, 15, 48, 76
13, 37920, Note_on_c, 15, 60, 76
13, 37920, Note_on_c, 15, 64, 76
13, 37920, Note_on_c, 15, 67, 76
13, 38279, Note_on_c, 15, 70, 0
13, 38279, Note_on_c, 15, 48, 0
13, 38279, Note_on_c, 15, 60, 0
13, 38279, Note_on_c, 15, 64, 0
13, 38279, Note_on_c, 15, 67, 0
13, 38280, Note_on_c, 15, 67, 76
13, 38280, Note_on_c, 15, 50, 76
13, 38280, Note_on_c, 15, 62, 76
13, 38280, Note_on_c, 15, 70, 76
13, 38280, Note_on_c, 15, 64, 76
13, 38399, Note_on_c, 15, 67, 0
13, 38399, Note_on_c, 15, 50, 0
13, 38399, Note_on_c, 15, 62, 0
13, 38399, Note_on_c, 15, 70, 0
13, 38399, Note_on_c, 15, 64, 0
13, 38400, Note_on_c, 15, 65, 76
13, 38400, Note_on_c, 15, 62, 76
13, 38400, Note_on_c, 15, 58, 76
13, 38400, Note_on_c, 15, 46, 76
13, 38639, Note_on_c, 15, 65, 0
13, 38639, Note_on_c, 15, 62, 0
13, 38639, Note_on_c, 15, 58, 0
13, 38639, Note_on_c, 15, 46, 0
13, 38640, Note_on_c, 15, 60, 76
13, 38640, Note_on_c, 15, 65, 76
13, 38640, Note_on_c, 15, 57, 76
13, 38640, Note_on_c, 15, 45, 76
13, 38999, Note_on_c, 15, 60, 0
13, 38999, Note_on_c, 15, 65, 0
13, 38999, Note_on_c, 15, 57, 0
13, 38999, Note_on_c, 15, 45, 0
13, 39000, Note_on_c, 15, 58, 76
13, 39000, Note_on_c, 15, 62, 76
13, 39000, Note_on_c, 15, 65, 76
13, 39000, Note_on_c, 15, 46, 76
13, 39119, Note_on_c, 15, 58, 0
13, 39119, Note_on_c, 15, 62, 0
13, 39119, Note_on_c, 15, 65, 0
13, 39119, Note_on_c, 15, 46, 0
13, 39120, Note_on_c, 15, 43, 76
13, 39120, Note_on_c, 15, 60, 76
13, 39120, Note_on_c, 15, 64, 76
13, 39120, Note_on_c, 15, 55, 76
13, 39359, Note_on_c, 15, 43, 0
13, 39359, Note_on_c, 15, 60, 0
13, 39359, Note_on_c, 15, 64, 0
13, 39359, Note_on_c, 15, 55, 0
13, 39360, Note_on_c, 15, 60, 76
13, 39360, Note_on_c, 15, 41, 76
13, 39360, Note_on_c, 15, 57, 76
13, 39360, Note_on_c, 15, 53, 76
13, 39719, Note_on_c, 15, 60, 0
13, 39719, Note_on_c, 15, 41, 0
13, 39719, Note_on_c, 15, 57, 0
13, 39719, Note_on_c, 15, 53, 0
13, 39720, Note_on_c, 15, 67, 76
13, 39720, Note_on_c, 15, 52, 76
13, 39720, Note_on_c, 15, 72, 76
13, 39720, Note_on_c, 15, 64, 76
13, 39839, Note_on_c, 15, 67, 0
13, 39839, Note_on_c, 15, 52, 0
13, 39839, Note_on_c, 15, 72, 0
13, 39839, Note_on_c, 15, 64, 0
13, 39840, Note_on_c, 15, 65, 76
13, 39840, Note_on_c, 15, 71, 76
13, 39840, Note_on_c, 15, 62, 76
13, 39840, Note_on_c, 15, 50, 76
13, 40079, Note_on_c, 15, 65, 0
13, 40079, Note_on_c, 15, 71, 0
13, 40079, Note_on_c, 15, 62, 0
13, 40079, Note_on_c, 15, 50, 0
13, 40080, Note_on_c, 15, 72, 76
13, 40080, Note_on_c, 15, 67, 76
13, 40080, Note_on_c, 15, 64, 76
13, 40080, Note_on_c, 15, 52, 76
13, 40439, Note_on_c, 15, 72, 0
13, 40439, Note_on_c, 15, 67, 0
13, 40439, Note_on_c, 15, 64, 0
13, 40439, Note_on_c, 15, 52, 0
13, 40440, Note_on_c, 15, 74, 76
13, 40440, Note_on_c, 15, 55, 76
13, 40440, Note_on_c, 15, 67, 76
13, 40440, Note_on_c, 15, 71, 76
13, 40559, Note_on_c, 15, 74, 0
13, 40559, Note_on_c, 15, 55, 0
13, 40559, Note_on_c, 15, 67, 0
13, 40559, Note_on_c, 15, 71, 0
13, 40560, Note_on_c, 15, 66, 76
13, 40560, Note_on_c, 15, 54, 76
13, 40560, Note_on_c, 15, 69, 76
13, 40560, Note_on_c, 15, 74, 76
13, 40799, Note_on_c, 15, 66, 0
13, 40799, Note_on_c, 15, 54, 0
13, 40799, Note_on_c, 15, 69, 0
13, 40799, Note_on_c, 15, 74, 0
13, 40800, Note_on_c, 15, 74, 76
13, 40800, Note_on_c, 15, 67, 76
13, 40800, Note_on_c, 15, 71, 76
13, 40800, Note_on_c, 15, 55, 76
13, 41159, Note_on_c, 15, 74, 0
13, 41159, Note_on_c, 15, 67, 0
13, 41159, Note_on_c, 15, 71, 0
13, 41159, Note_on_c, 15, 55, 0
13, 41160, Note_on_c, 15, 74, 76
13, 41160, Note_on_c, 15, 65, 76
13, 41160, Note_on_c, 15, 71, 76
13, 41160, Note_on_c, 15, 53, 76
13, 41279, Note_on_c, 15, 74, 0
13, 41279, Note_on_c, 15, 65, 0
13, 41279, Note_on_c, 15, 71, 0
13, 41279, Note_on_c, 15, 53, 0
13, 41280, Note_on_c, 15, 64, 76
13, 41280, Note_on_c, 15, 67, 76
13, 41280, Note_on_c, 15, 52, 76
13, 41280, Note_on_c, 15, 72, 76
13, 41519, Note_on_c, 15, 64, 0
13, 41519, Note_on_c, 15, 67, 0
13, 41519, Note_on_c, 15, 52, 0
13, 41519, Note_on_c, 15, 72, 0
13, 41520, Note_on_c, 15, 66, 76
13, 41520, Note_on_c, 15, 74, 76
13, 41520, Note_on_c, 15, 54, 76
13, 41520, Note_on_c, 15, 69, 76
13, 41879, Note_on_c, 15, 66, 0
13, 41879, Note_on_c, 15, 74, 0
13, 41879, Note_on_c, 15, 54, 0
13, 41879, Note_on_c, 15, 69, 0
13, 41880, Note_on_c, 15, 76, 76
13, 41880, Note_on_c, 15, 72, 76
13, 41880, Note_on_c, 15, 69, 76
13, 41880, Note_on_c, 15, 57, 76
13, 41999, Note_on_c, 15, 76, 0
13, 41999, Note_on_c, 15, 72, 0
13, 41999, Note_on_c, 15, 69, 0
13, 41999, Note_on_c, 15, 57, 0
13, 42000, Note_on_c, 15, 56, 76
13, 42000, Note_on_c, 15, 71, 76
13, 42000, Note_on_c, 15, 76, 76
13, 42000, Note_on_c, 15, 68, 76
13, 42239, Note_on_c, 15, 56, 0
13, 42239, Note_on_c, 15, 71, 0
13, 42239, Note_on_c, 15, 76, 0
13, 42239, Note_on_c, 15, 68, 0
13, 42240, Note_on_c, 15, 57, 76
13, 42240, Note_on_c, 15, 72, 76
13, 42240, Note_on_c, 15, 76, 76
13, 42240, Note_on_c, 15, 69, 76
13, 42719, Note_on_c, 15, 57, 0
13, 42719, Note_on_c, 15, 72, 0
13, 42719, Note_on_c, 15, 76, 0
13, 42719, Note_on_c, 15, 69, 0
13, 42720, Note_on_c, 15, 65, 76
13, 42720, Note_on_c, 15, 69, 76
13, 42720, Note_on_c, 15, 53, 76
13, 42720, Note_on_c, 15, 72, 76
13, 42959, Note_on_c, 15, 65, 0
13, 42959, Note_on_c, 15, 69, 0
13, 42959, Note_on_c, 15, 53, 0
13, 42959, Note_on_c, 15, 72, 0
13, 42960, Note_on_c, 15, 62, 76
13, 42960, Note_on_c, 15, 47, 76
13, 42960, Note_on_c, 15, 65, 76
13, 42960, Note_on_c, 15, 59, 76
13, 42960, Note_on_c, 15, 69, 76
13, 43439, Note_on_c, 15, 62, 0
13, 43439, Note_on_c, 15, 47, 0
13, 43439, Note_on_c, 15, 65, 0
13, 43439, Note_on_c, 15, 59, 0
13, 43439, Note_on_c, 15, 69, 0
13, 43440, Note_on_c, 15, 77, 76
13, 43440, Note_on_c, 15, 74, 76
13, 43440, Note_on_c, 15, 71, 76
13, 43440, Note_on_c, 15, 67, 76
13, 43440, Note_on_c, 15, 55, 76
13, 43679, Note_on_c, 15, 77, 0
13, 43679, Note_on_c, 15, 74, 0
13, 43679, Note_on_c, 15, 71, 0
13, 43679, Note_on_c, 15, 67, 0
13, 43679, Note_on_c, 15, 55, 0
13, 43680, Note_on_c, 15, 67, 76
13, 43680, Note_on_c, 15, 64, 76
13, 43680, Note_on_c, 15, 48, 76
13, 43680, Note_on_c, 15, 60, 76
13, 44039, Note_on_c, 15, 67, 0
13, 44039, Note_on_c, 15, 64, 0
13, 44039, Note_on_c, 15, 48, 0
13, 44039, Note_on_c, 15, 60, 0
13, 44040, Note_on_c, 15, 69, 76
13, 44040, Note_on_c, 15, 65, 76
13, 44040, Note_on_c, 15, 50, 76
13, 44040, Note_on_c, 15, 62, 76
13, 44159, Note_on_c, 15, 69, 0
13, 44159, Note_on_c, 15, 65, 0
13, 44159, Note_on_c, 15, 50, 0
13, 44159, Note_on_c, 15, 62, 0
13, 44160, Note_on_c, 15, 52, 76
13, 44160, Note_on_c, 15, 71, 76
13, 44160, Note_on_c, 15, 64, 76
13, 44160, Note_on_c, 15, 67, 76
13, 44279, Note_on_c, 15, 52, 0
13, 44279, Note_on_c, 15, 71, 0
13, 44279, Note_on_c, 15, 64, 0
13, 44279, Note_on_c, 15, 67, 0
13, 44280, Note_on_c, 15, 69, 76
13, 44280, Note_on_c, 15, 72, 76
13, 44280, Note_on_c, 15, 53, 76
13, 44280, Note_on_c, 15, 65, 76
13, 44399, Note_on_c, 15, 69, 0
13, 44399, Note_on_c, 15, 72, 0
13, 44399, Note_on_c, 15, 53, 0
13, 44399, Note_on_c, 15, 65, 0
13, 44400, Note_on_c, 15, 72, 76
13, 44400, Note_on_c, 15, 55, 76
13, 44400, Note_on_c, 15, 76, 76
13, 44400, Note_on_c, 15, 67, 76
13, 44879, Note_on_c, 15, 72, 0
13, 44879, Note_on_c, 15, 55, 0
13, 44879, Note_on_c, 15, 76, 0
13, 44879, Note_on_c, 15, 67, 0
13, 44880, Note_on_c, 15, 59, 76
13, 44880, Note_on_c, 15, 43, 76
13, 44880, Note_on_c, 15, 55, 76
13, 44880, Note_on_c, 15, 62, 76
13, 45119, Note_on_c, 15, 59, 0
13, 45119, Note_on_c, 15, 43, 0
13, 45119, Note_on_c, 15, 55, 0
13, 45119, Note_on_c, 15, 62, 0
13, 45120, Note_on_c, 15, 48, 76
13, 45120, Note_on_c, 15, 64, 76
13, 45120, Note_on_c, 15, 67, 76
13, 45120, Note_on_c, 15, 60, 76
13, 45599, Note_on_c, 15, 48, 0
13, 45599, Note_on_c, 15, 64, 0
13, 45599, Note_on_c, 15, 67, 0
13, 45599, Note_on_c, 15, 60, 0
13, 45600, Note_on_c, 15, 48, 76
13, 45600, Note_on_c, 15, 55, 76
13, 45600, Note_on_c, 15, 36, 76
13, 45600, Note_on_c, 15, 52, 76
13, 45839, Note_on_c, 15, 48, 0
13, 45839, Note_on_c, 15, 55, 0
13, 45839, Note_on_c, 15, 36, 0
13, 45839, Note_on_c, 15, 52, 0
13, 45840, Note_on_c, 15, 48, 76
13, 45840, Note_on_c, 15, 60, 76
13, 45840, Note_on_c, 15, 67, 76
13, 45840, Note_on_c, 15, 64, 76
13, 46319, Note_on_c, 15, 48, 0
13, 46319, Note_on_c, 15, 60, 0
13, 46319, Note_on_c, 15, 67, 0
13, 46319, Note_on_c, 15, 64, 0
13, 47040, Note_on_c, 15, 59, 76
13, 47040, Note_on_c, 15, 43, 76
13, 47040, Note_on_c, 15, 55, 76
13, 47040, Note_on_c, 15, 62, 76
13, 47279, Note_on_c, 15, 59, 0
13, 47279, Note_on_c, 15, 43, 0
13, 47279, Note_on_c, 15, 55, 0
13, 47279, Note_on_c, 15, 62, 0
13, 47280, Note_on_c, 15, 67, 76
13, 47280, Note_on_c, 15, 71, 76
13, 47280, Note_on_c, 15, 55, 76
13, 47280, Note_on_c, 15, 74, 76
13, 47759, Note_on_c, 15, 67, 0
13, 47759, Note_on_c, 15, 71, 0
13, 47759, Note_on_c, 15, 55, 0
13, 47759, Note_on_c, 15, 74, 0
13, 48480, Note_on_c, 15, 62, 76
13, 48480, Note_on_c, 15, 65, 76
13, 48480, Note_on_c, 15, 59, 76
13, 48480, Note_on_c, 15, 56, 76
13, 48480, Note_on_c, 15, 44, 76
13, 48719, Note_on_c, 15, 62, 0
13, 48719, Note_on_c, 15, 65, 0
13, 48719, Note_on_c, 15, 59, 0
13, 48719, Note_on_c, 15, 56, 0
13, 48719, Note_on_c, 15, 44, 0
13, 48720, Note_on_c, 15, 68, 76
13, 48720, Note_on_c, 15, 77, 76
13, 48720, Note_on_c, 15, 74, 76
13, 48720, Note_on_c, 15, 71, 76
13, 48720, Note_on_c, 15, 56, 76
13, 49199, Note_on_c, 15, 68, 0
13, 49199, Note_on_c, 15, 77, 0
13, 49199, Note_on_c, 15, 74, 0
13, 49199, Note_on_c, 15, 71, 0
13, 49199, Note_on_c, 15, 56, 0
13, 49920, Note_on_c, 15, 57, 76
13, 49920, Note_on_c, 15, 40, 76
13, 49920, Note_on_c, 15, 52, 76
13, 49920, Note_on_c, 15, 60, 76
13, 50159, Note_on_c, 15, 57, 0
13, 50159, Note_on_c, 15, 40, 0
13, 50159, Note_on_c, 15, 52, 0
13, 50159, Note_on_c, 15, 60, 0
13, 50160, Note_on_c, 15, 52, 76
13, 50160, Note_on_c, 15, 71, 76
13, 50160, Note_on_c, 15, 68, 76
13, 50160, Note_on_c, 15, 64, 76
13, 50639, Note_on_c, 15, 52, 0
13, 50639, Note_on_c, 15, 71, 0
13, 50639, Note_on_c, 15, 68, 0
13, 50639, Note_on_c, 15, 64, 0
13, 51360, Note_on_c, 15, 60, 76
13, 51360, Note_on_c, 15, 45, 76
13, 51360, Note_on_c, 15, 64, 76
13, 51360, Note_on_c, 15, 57, 76
13, 51599, Note_on_c, 15, 60, 0
13, 51599, Note_on_c, 15, 45, 0
13, 51599, Note_on_c, 15, 64, 0
13, 51599, Note_on_c, 15, 57, 0
13, 51600, Note_on_c, 15, 69, 76
13, 51600, Note_on_c, 15, 76, 76
13, 51600, Note_on_c, 15, 72, 76
13, 51600, Note_on_c, 15, 57, 76
13, 52079, Note_on_c, 15, 69, 0
13, 52079, Note_on_c, 15, 76, 0
13, 52079, Note_on_c, 15, 72, 0
13, 52079, Note_on_c, 15, 57, 0
13, 52800, Note_on_c, 15, 64, 76
13, 52800, Note_on_c, 15, 55, 76
13, 52800, Note_on_c, 15, 43, 76
13, 52800, Note_on_c, 15, 58, 76
13, 53039, Note_on_c, 15, 64, 0
13, 53039, Note_on_c, 15, 55, 0
13, 53039, Note_on_c, 15, 43, 0
13, 53039, Note_on_c, 15, 58, 0
13, 53040, Note_on_c, 15, 70, 76
13, 53040, Note_on_c, 15, 76, 76
13, 53040, Note_on_c, 15, 55, 76
13, 53040, Note_on_c, 15, 67, 76
13, 53519, Note_on_c, 15, 70, 0
13, 53519, Note_on_c, 15, 76, 0
13, 53519, Note_on_c, 15, 55, 0
13, 53519, Note_on_c, 15, 67, 0
13, 54240, Note_on_c, 15, 58, 76
13, 54240, Note_on_c, 15, 43, 76
13, 54240, Note_on_c, 15, 64, 76
13, 54240, Note_on_c, 15, 55, 76
13, 54479, Note_on_c, 15, 58, 0
13, 54479, Note_on_c, 15, 43, 0
13, 54479, Note_on_c, 15, 64, 0
13, 54479, Note_on_c, 15, 55, 0
13, 54480, Note_on_c, 15, 69, 76
13, 54480, Note_on_c, 15, 55, 76
13, 54480, Note_on_c, 15, 73, 76
13, 54480, Note_on_c, 15, 76, 76
13, 54480, Note_on_c, 15, 67, 76
13, 54959, Note_on_c, 15, 69, 0
13, 54959, Note_on_c, 15, 55, 0
13, 54959, Note_on_c, 15, 73, 0
13, 54959, Note_on_c, 15, 76, 0
13, 54959, Note_on_c, 15, 67, 0
13, 55560, Note_on_c, 15, 53, 76
13, 55560, Note_on_c, 15, 74, 76
13, 55560, Note_on_c, 15, 69, 76
13, 55560, Note_on_c, 15, 65, 76
13, 55679, Note_on_c, 15, 53, 0
13, 55679, Note_on_c, 15, 74, 0
13, 55679, Note_on_c, 15, 69, 0
13, 55679, Note_on_c, 15, 65, 0
13, 55680, Note_on_c, 15, 50, 76
13, 55680, Note_on_c, 15, 65, 76
13, 55680, Note_on_c, 15, 69, 76
13, 55680, Note_on_c, 15, 62, 76
13, 55919, Note_on_c, 15, 50, 0
13, 55919, Note_on_c, 15, 65, 0
13, 55919, Note_on_c, 15, 69, 0
13, 55919, Note_on_c, 15, 62, 0
13, 55920, Note_on_c, 15, 74, 76
13, 55920, Note_on_c, 15, 77, 76
13, 55920, Note_on_c, 15, 69, 76
13, 55920, Note_on_c, 15, 57, 76
13, 56399, Note_on_c, 15, 74, 0
13, 56399, Note_on_c, 15, 77, 0
13, 56399, Note_on_c, 15, 69, 0
13, 56399, Note_on_c, 15, 57, 0
13, 56400, Note_on_c, 15, 61, 76
13, 56400, Note_on_c, 15, 64, 76
13, 56400, Note_on_c, 15, 57, 76
13, 56400, Note_on_c, 15, 45, 76
13, 56639, Note_on_c, 15, 61, 0
13, 56639, Note_on_c, 15, 64, 0
13, 56639, Note_on_c, 15, 57, 0
13, 56639, Note_on_c, 15, 45, 0
13, 56640, Note_on_c, 15, 62, 76
13, 56640, Note_on_c, 15, 65, 76
13, 56640, Note_on_c, 15, 69, 76
13, 56640, Note_on_c, 15, 50, 76
13, 57119, Note_on_c, 15, 62, 0
13, 57119, Note_on_c, 15, 65, 0
13, 57119, Note_on_c, 15, 69, 0
13, 57119, Note_on_c, 15, 50, 0
13, 57120, Note_on_c, 15, 38, 76
13, 57120, Note_on_c, 15, 50, 76
13, 57120, Note_on_c, 15, 57, 76
13, 57120, Note_on_c, 15, 53, 76
13, 57359, Note_on_c, 15, 38, 0
13, 57359, Note_on_c, 15, 50, 0
13, 57359, Note_on_c, 15, 57, 0
13, 57359, Note_on_c, 15, 53, 0
13, 57360, Note_on_c, 15, 69, 76
13, 57360, Note_on_c, 15, 62, 76
13, 57360, Note_on_c, 15, 65, 76
13, 57360, Note_on_c, 15, 50, 76
13, 57839, Note_on_c, 15, 69, 0
13, 57839, Note_on_c, 15, 62, 0
13, 57839, Note_on_c, 15, 65, 0
13, 57839, Note_on_c, 15, 50, 0
13, 58440, Note_on_c, 15, 77, 76
13, 58440, Note_on_c, 15, 81, 76
13, 58440, Note_on_c, 15, 74, 76
13, 58440, Note_on_c, 15, 62, 76
13, 58559, Note_on_c, 15, 77, 0
13, 58559, Note_on_c, 15, 81, 0
13, 58559, Note_on_c, 15, 74, 0
13, 58559, Note_on_c, 15, 62, 0
13, 58560, Note_on_c, 15, 60, 76
13, 58560, Note_on_c, 15, 74, 76
13, 58560, Note_on_c, 15, 81, 76
13, 58560, Note_on_c, 15, 72, 76
13, 58560, Note_on_c, 15, 77, 76
13, 58799, Note_on_c, 15, 60, 0
13, 58799, Note_on_c, 15, 74, 0
13, 58799, Note_on_c, 15, 81, 0
13, 58799, Note_on_c, 15, 72, 0
13, 58799, Note_on_c, 15, 77, 0
13, 58800, Note_on_c, 15, 59, 76
13, 58800, Note_on_c, 15, 77, 76
13, 58800, Note_on_c, 15, 71, 76
13, 58800, Note_on_c, 15, 74, 76
13, 59159, Note_on_c, 15, 59, 0
13, 59159, Note_on_c, 15, 77, 0
13, 59159, Note_on_c, 15, 71, 0
13, 59159, Note_on_c, 15, 74, 0
13, 59160, Note_on_c, 15, 76, 76
13, 59160, Note_on_c, 15, 79, 76
13, 59160, Note_on_c, 15, 60, 76
13, 59160, Note_on_c, 15, 72, 76
13, 59279, Note_on_c, 15, 76, 0
13, 59279, Note_on_c, 15, 79, 0
13, 59279, Note_on_c, 15, 60, 0
13, 59279, Note_on_c, 15, 72, 0
13, 59280, Note_on_c, 15, 57, 76
13, 59280, Note_on_c, 15, 69, 76
13, 59280, Note_on_c, 15, 72, 76
13, 59519, Note_on_c, 15, 57, 0
13, 59519, Note_on_c, 15, 69, 0
13, 59519, Note_on_c, 15, 72, 0
13, 59520, Note_on_c, 15, 67, 76
13, 59520, Note_on_c, 15, 74, 76
13, 59520, Note_on_c, 15, 55, 76
13, 59520, Note_on_c, 15, 71, 76
13, 59879, Note_on_c, 15, 67, 0
13, 59879, Note_on_c, 15, 74, 0
13, 59879, Note_on_c, 15, 55, 0
13, 59879, Note_on_c, 15, 71, 0
13, 59880, Note_on_c, 15, 76, 76
13, 59880, Note_on_c, 15, 69, 76
13, 59880, Note_on_c, 15, 57, 76
13, 59880, Note_on_c, 15, 72, 76
13, 59999, Note_on_c, 15, 76, 0
13, 59999, Note_on_c, 15, 69, 0
13, 59999, Note_on_c, 15, 57, 0
13, 59999, Note_on_c, 15, 72, 0
13, 60000, Note_on_c, 15, 67, 76
13, 60000, Note_on_c, 15, 74, 76
13, 60000, Note_on_c, 15, 65, 76
13, 60000, Note_on_c, 15, 53, 76
13, 60000, Note_on_c, 15, 71, 76
13, 60239, Note_on_c, 15, 67, 0
13, 60239, Note_on_c, 15, 74, 0
13, 60239, Note_on_c, 15, 65, 0
13, 60239, Note_on_c, 15, 53, 0
13, 60239, Note_on_c, 15, 71, 0
13, 60240, Note_on_c, 15, 67, 76
13, 60240, Note_on_c, 15, 64, 76
13, 60240, Note_on_c, 15, 72, 76
13, 60240, Note_on_c, 15, 52, 76
13, 60599, Note_on_c, 15, 67, 0
13, 60599, Note_on_c, 15, 64, 0
13, 60599, Note_on_c, 15, 72, 0
13, 60599, Note_on_c, 15, 52, 0
13, 60600, Note_on_c, 15, 69, 76
13, 60600, Note_on_c, 15, 65, 76
13, 60600, Note_on_c, 15, 53, 76
13, 60600, Note_on_c, 15, 72, 76
13, 60719, Note_on_c, 15, 69, 0
13, 60719, Note_on_c, 15, 65, 0
13, 60719, Note_on_c, 15, 53, 0
13, 60719, Note_on_c, 15, 72, 0
13, 60720, Note_on_c, 15, 65, 76
13, 60720, Note_on_c, 15, 50, 76
13, 60720, Note_on_c, 15, 62, 76
13, 60959, Note_on_c, 15, 65, 0
13, 60959, Note_on_c, 15, 50, 0
13, 60959, Note_on_c, 15, 62, 0
13, 60960, Note_on_c, 15, 60, 76
13, 60960, Note_on_c, 15, 48, 76
13, 60960, Note_on_c, 15, 70, 76
13, 60960, Note_on_c, 15, 64, 76
13, 60960, Note_on_c, 15, 67, 76
13, 61319, Note_on_c, 15, 60, 0
13, 61319, Note_on_c, 15, 48, 0
13, 61319, Note_on_c, 15, 70, 0
13, 61319, Note_on_c, 15, 64, 0
13, 61319, Note_on_c, 15, 67, 0
13, 61320, Note_on_c, 15, 50, 76
13, 61320, Note_on_c, 15, 70, 76
13, 61320, Note_on_c, 15, 62, 76
13, 61320, Note_on_c, 15, 67, 76
13, 61320, Note_on_c, 15, 64, 76
13, 61439, Note_on_c, 15, 50, 0
13, 61439, Note_on_c, 15, 70, 0
13, 61439, Note_on_c, 15, 62, 0
13, 61439, Note_on_c, 15, 67, 0
13, 61439, Note_on_c, 15, 64, 0
13, 61440, Note_on_c, 15, 62, 76
13, 61440, Note_on_c, 15, 65, 76
13, 61440, Note_on_c, 15, 58, 76
13, 61440, Note_on_c, 15, 46, 76
13, 61679, Note_on_c, 15, 62, 0
13, 61679, Note_on_c, 15, 65, 0
13, 61679, Note_on_c, 15, 58, 0
13, 61679, Note_on_c, 15, 46, 0
13, 61680, Note_on_c, 15, 57, 76
13, 61680, Note_on_c, 15, 65, 76
13, 61680, Note_on_c, 15, 45, 76
13, 61680, Note_on_c, 15, 60, 76
13, 62039, Note_on_c, 15, 57, 0
13, 62039, Note_on_c, 15, 65, 0
13, 62039, Note_on_c, 15, 45, 0
13, 62039, Note_on_c, 15, 60, 0
13, 62040, Note_on_c, 15, 65, 76
13, 62040, Note_on_c, 15, 58, 76
13, 62040, Note_on_c, 15, 46, 76
13, 62040, Note_on_c, 15, 62, 76
13, 62159, Note_on_c, 15, 65, 0
13, 62159, Note_on_c, 15, 58, 0
13, 62159, Note_on_c, 15, 46, 0
13, 62159, Note_on_c, 15, 62, 0
13, 62160, Note_on_c, 15, 43, 76
13, 62160, Note_on_c, 15, 60, 76
13, 62160, Note_on_c, 15, 55, 76
13, 62160, Note_on_c, 15, 64, 76
13, 62399, Note_on_c, 15, 43, 0
13, 62399, Note_on_c, 15, 60, 0
13, 62399, Note_on_c, 15, 55, 0
13, 62399, Note_on_c, 15, 64, 0
13, 62400, Note_on_c, 15, 60, 76
13, 62400, Note_on_c, 15, 57, 76
13, 62400, Note_on_c, 15, 53, 76
13, 62400, Note_on_c, 15, 41, 76
13, 62759, Note_on_c, 15, 60, 0
13, 62759, Note_on_c, 15, 57, 0
13, 62759, Note_on_c, 15, 53, 0
13, 62759, Note_on_c, 15, 41, 0
13, 62760, Note_on_c, 15, 72, 76
13, 62760, Note_on_c, 15, 52, 76
13, 62760, Note_on_c, 15, 64, 76
13, 62760, Note_on_c, 15, 67, 76
13, 62879, Note_on_c, 15, 72, 0
13, 62879, Note_on_c, 15, 52, 0
13, 62879, Note_on_c, 15, 64, 0
13, 62879, Note_on_c, 15, 67, 0
13, 62880, Note_on_c, 15, 71, 76
13, 62880, Note_on_c, 15, 62, 76
13, 62880, Note_on_c, 15, 50, 76
13, 62880, Note_on_c, 15, 65, 76
13, 63119, Note_on_c, 15, 71, 0
13, 63119, Note_on_c, 15, 62, 0
13, 63119, Note_on_c, 15, 50, 0
13, 63119, Note_on_c, 15, 65, 0
13, 63120, Note_on_c, 15, 67, 76
13, 63120, Note_on_c, 15, 52, 76
13, 63120, Note_on_c, 15, 64, 76
13, 63120, Note_on_c, 15, 72, 76
13, 63479, Note_on_c, 15, 67, 0
13, 63479, Note_on_c, 15, 52, 0
13, 63479, Note_on_c, 15, 64, 0
13, 63479, Note_on_c, 15, 72, 0
13, 63480, Note_on_c, 15, 67, 76
13, 63480, Note_on_c, 15, 74, 76
13, 63480, Note_on_c, 15, 55, 76
13, 63480, Note_on_c, 15, 71, 76
13, 63599, Note_on_c, 15, 67, 0
13, 63599, Note_on_c, 15, 74, 0
13, 63599, Note_on_c, 15, 55, 0
13, 63599, Note_on_c, 15, 71, 0
13, 63600, Note_on_c, 15, 66, 76
13, 63600, Note_on_c, 15, 54, 76
13, 63600, Note_on_c, 15, 74, 76
13, 63600, Note_on_c, 15, 69, 76
13, 63839, Note_on_c, 15, 66, 0
13, 63839, Note_on_c, 15, 54, 0
13, 63839, Note_on_c, 15, 74, 0
13, 63839, Note_on_c, 15, 69, 0
13, 63840, Note_on_c, 15, 74, 76
13, 63840, Note_on_c, 15, 55, 76
13, 63840, Note_on_c, 15, 71, 76
13, 63840, Note_on_c, 15, 67, 76
13, 64199, Note_on_c, 15, 74, 0
13, 64199, Note_on_c, 15, 55, 0
13, 64199, Note_on_c, 15, 71, 0
13, 64199, Note_on_c, 15, 67, 0
13, 64200, Note_on_c, 15, 74, 76
13, 64200, Note_on_c, 15, 71, 76
13, 64200, Note_on_c, 15, 53, 76
13, 64200, Note_on_c, 15, 65, 76
13, 64319, Note_on_c, 15, 74, 0
13, 64319, Note_on_c, 15, 71, 0
13, 64319, Note_on_c, 15, 53, 0
13, 64319, Note_on_c, 15, 65, 0
13, 64320, Note_on_c, 15, 72, 76
13, 64320, Note_on_c, 15, 52, 76
13, 64320, Note_on_c, 15, 67, 76
13, 64320, Note_on_c, 15, 64, 76
13, 64559, Note_on_c, 15, 72, 0
13, 64559, Note_on_c, 15, 52, 0
13, 64559, Note_on_c, 15, 67, 0
13, 64559, Note_on_c, 15, 64, 0
13, 64560, Note_on_c, 15, 74, 76
13, 64560, Note_on_c, 15, 54, 76
13, 64560, Note_on_c, 15, 69, 76
13, 64560, Note_on_c, 15, 66, 76
13, 64919, Note_on_c, 15, 74, 0
13, 64919, Note_on_c, 15, 54, 0
13, 64919, Note_on_c, 15, 69, 0
13, 64919, Note_on_c, 15, 66, 0
13, 64920, Note_on_c, 15, 76, 76
13, 64920, Note_on_c, 15, 72, 76
13, 64920, Note_on_c, 15, 57, 76
13, 64920, Note_on_c, 15, 69, 76
13, 65039, Note_on_c, 15, 76, 0
13, 65039, Note_on_c, 15, 72, 0
13, 65039, Note_on_c, 15, 57, 0
13, 65039, Note_on_c, 15, 69, 0
13, 65040, Note_on_c, 15, 76, 76
13, 65040, Note_on_c, 15, 68, 76
13, 65040, Note_on_c, 15, 71, 76
13, 65040, Note_on_c, 15, 56, 76
13, 65279, Note_on_c, 15, 76, 0
13, 65279, Note_on_c, 15, 68, 0
13, 65279, Note_on_c, 15, 71, 0
13, 65279, Note_on_c, 15, 56, 0
13, 65280, Note_on_c, 15, 76, 76
13, 65280, Note_on_c, 15, 72, 76
13, 65280, Note_on_c, 15, 57, 76
13, 65280, Note_on_c, 15, 69, 76
13, 65759, Note_on_c, 15, 76, 0
13, 65759, Note_on_c, 15, 72, 0
13, 65759, Note_on_c, 15, 57, 0
13, 65759, Note_on_c, 15, 69, 0
13, 65760, Note_on_c, 15, 72, 76
13, 65760, Note_on_c, 15, 65, 76
13, 65760, Note_on_c, 15, 69, 76
13, 65760, Note_on_c, 15, 53, 76
13, 65999, Note_on_c, 15, 72, 0
13, 65999, Note_on_c, 15, 65, 0
13, 65999, Note_on_c, 15, 69, 0
13, 65999, Note_on_c, 15, 53, 0
13, 66000, Note_on_c, 15, 47, 76
13, 66000, Note_on_c, 15, 69, 76
13, 66000, Note_on_c, 15, 62, 76
13, 66000, Note_on_c, 15, 59, 76
13, 66000, Note_on_c, 15, 65, 76
13, 66479, Note_on_c, 15, 47, 0
13, 66479, Note_on_c, 15, 69, 0
13, 66479, Note_on_c, 15, 62, 0
13, 66479, Note_on_c, 15, 59, 0
13, 66479, Note_on_c, 15, 65, 0
13, 66480, Note_on_c, 15, 74, 76
13, 66480, Note_on_c, 15, 67, 76
13, 66480, Note_on_c, 15, 55, 76
13, 66480, Note_on_c, 15, 77, 76
13, 66480, Note_on_c, 15, 71, 76
13, 66719, Note_on_c, 15, 74, 0
13, 66719, Note_on_c, 15, 67, 0
13, 66719, Note_on_c, 15, 55, 0
13, 66719, Note_on_c, 15, 77, 0
13, 66719, Note_on_c, 15, 71, 0
13, 66720, Note_on_c, 15, 60, 76
13, 66720, Note_on_c, 15, 67, 76
13, 66720, Note_on_c, 15, 64, 76
13, 66720, Note_on_c, 15, 48, 76
13, 67079, Note_on_c, 15, 60, 0
13, 67079, Note_on_c, 15, 67, 0
13, 67079, Note_on_c, 15, 64, 0
13, 67079, Note_on_c, 15, 48, 0
13, 67080, Note_on_c, 15, 69, 76
13, 67080, Note_on_c, 15, 50, 76
13, 67080, Note_on_c, 15, 62, 76
13, 67080, Note_on_c, 15, 65, 76
13, 67199, Note_on_c, 15, 69, 0
13, 67199, Note_on_c, 15, 50, 0
13, 67199, Note_on_c, 15, 62, 0
13, 67199, Note_on_c, 15, 65, 0
13, 67200, Note_on_c, 15, 64, 76
13, 67200, Note_on_c, 15, 52, 76
13, 67200, Note_on_c, 15, 67, 76
13, 67200, Note_on_c, 15, 71, 76
13, 67319, Note_on_c, 15, 64, 0
13, 67319, Note_on_c, 15, 52, 0
13, 67319, Note_on_c, 15, 67, 0
13, 67319, Note_on_c, 15, 71, 0
13, 67320, Note_on_c, 15, 65, 76
13, 67320, Note_on_c, 15, 53, 76
13, 67320, Note_on_c, 15, 72, 76
13, 67320, Note_on_c, 15, 69, 76
13, 67439, Note_on_c, 15, 65, 0
13, 67439, Note_on_c, 15, 53, 0
13, 67439, Note_on_c, 15, 72, 0
13, 67439, Note_on_c, 15, 69, 0
13, 67440, Note_on_c, 15, 72, 76
13, 67440, Note_on_c, 15, 55, 76
13, 67440, Note_on_c, 15, 67, 76
13, 67440, Note_on_c, 15, 76, 76
13, 67919, Note_on_c, 15, 72, 0
13, 67919, Note_on_c, 15, 55, 0
13, 67919, Note_on_c, 15, 67, 0
13, 67919, Note_on_c, 15, 76, 0
13, 67920, Note_on_c, 15, 62, 76
13, 67920, Note_on_c, 15, 43, 76
13, 67920, Note_on_c, 15, 55, 76
13, 67920, Note_on_c, 15, 59, 76
13, 68159, Note_on_c, 15, 62, 0
13, 68159, Note_on_c, 15, 43, 0
13, 68159, Note_on_c, 15, 55, 0
13, 68159, Note_on_c, 15, 59, 0
13, 68160, Note_on_c, 15, 48, 76
13, 68160, Note_on_c, 15, 60, 76
13, 68160, Note_on_c, 15, 64, 76
13, 68160, Note_on_c, 15, 67, 76
13, 68639, Note_on_c, 15, 48, 0
13, 68639, Note_on_c, 15, 60, 0
13, 68639, Note_on_c, 15, 64, 0
13, 68639, Note_on_c, 15, 67, 0
13, 68640, Note_on_c, 15, 55, 76
13, 68640, Note_on_c, 15, 36, 76
13, 68640, Note_on_c, 15, 52, 76
13, 68640, Note_on_c, 15, 48, 76
13, 68879, Note_on_c, 15, 55, 0
13, 68879, Note_on_c, 15, 36, 0
13, 68879, Note_on_c, 15, 52, 0
13, 68879, Note_on_c, 15, 48, 0
13, 68880, Note_on_c, 15, 48, 76
13, 68880, Note_on_c, 15, 60, 76
13, 68880, Note_on_c, 15, 67, 76
13, 68880, Note_on_c, 15, 64, 76
13, 69359, Note_on_c, 15, 48, 0
13, 69359, Note_on_c, 15, 60, 0
13, 69359, Note_on_c, 15, 67, 0
13, 69359, Note_on_c, 15, 64, 0
13, 69359, End_track
14, 0, Start_track
14, 0, Title_t, "Johann Sebastian Bach - Orchestral Suite No. 1 in C Major, BWV1066 - No. 4 Forlane"
14, 0, MIDI_port, 0
14, 0, End_track
0, 0, End_of_file
