0, 0, Header, 1, 5, 480
1, 0, Start_track
1, 0, Text_t, "Sonata: Andante"
1, 0, SMPTE_offset, 32, 0, 0, 0, 0
1, 0, Time_signature, 4, 2, 24, 8
1, 0, Tempo, 1428571
1, 0, End_track
2, 0, Start_track
2, 0, Text_t, "Flauto T"
2, 240, Note_on_c, 0, 70, 64
2, 480, Note_off_c, 0, 70, 64
2, 480, Note_on_c, 0, 72, 64
2, 720, Note_off_c, 0, 72, 64
2, 720, Note_on_c, 0, 73, 64
2, 1200, Note_off_c, 0, 73, 64
2, 1200, Note_on_c, 0, 72, 64
2, 1320, Note_off_c, 0, 72, 64
2, 1320, Note_on_c, 0, 70, 64
2, 1440, Note_off_c, 0, 70, 64
2, 1440, Note_on_c, 0, 70, 64
2, 1560, Note_off_c, 0, 70, 64
2, 1560, Note_on_c, 0, 68, 64
2, 1680, Note_off_c, 0, 68, 64
2, 1800, Note_on_c, 0, 67, 64
2, 1920, Note_off_c, 0, 67, 64
2, 1920, Note_on_c, 0, 67, 64
2, 2040, Note_off_c, 0, 67, 64
2, 2040, Note_on_c, 0, 65, 64
2, 2160, Note_off_c, 0, 65, 64
2, 2160, Note_on_c, 0, 74, 64
2, 2400, Note_off_c, 0, 74, 64
2, 2400, Note_on_c, 0, 75, 64
2, 2640, Note_off_c, 0, 75, 64
2, 2640, Note_on_c, 0, 77, 64
2, 3120, Note_off_c, 0, 77, 64
2, 3120, Note_on_c, 0, 75, 64
2, 3240, Note_off_c, 0, 75, 64
2, 3240, Note_on_c, 0, 68, 64
2, 3360, Note_off_c, 0, 68, 64
2, 3360, Note_on_c, 0, 68, 64
2, 3480, Note_off_c, 0, 68, 64
2, 3480, Note_on_c, 0, 67, 64
2, 3600, Note_off_c, 0, 67, 64
2, 3720, Note_on_c, 0, 62, 64
2, 3840, Note_off_c, 0, 62, 64
2, 3840, Note_on_c, 0, 62, 64
2, 3960, Note_off_c, 0, 62, 64
2, 3960, Note_on_c, 0, 63, 64
2, 4080, Note_off_c, 0, 63, 64
2, 4800, Note_on_c, 0, 67, 64
2, 5520, Note_off_c, 0, 67, 64
2, 5640, Note_on_c, 0, 70, 64
2, 5760, Note_off_c, 0, 70, 64
2, 5760, Note_on_c, 0, 70, 64
2, 5880, Note_off_c, 0, 70, 64
2, 5880, Note_on_c, 0, 68, 64
2, 6000, Note_off_c, 0, 68, 64
2, 6720, Note_on_c, 0, 78, 64
2, 7440, Note_off_c, 0, 78, 64
2, 7560, Note_on_c, 0, 75, 64
2, 7680, Note_off_c, 0, 75, 64
2, 7680, Note_on_c, 0, 75, 64
2, 7800, Note_off_c, 0, 75, 64
2, 7800, Note_on_c, 0, 73, 64
2, 7920, Note_off_c, 0, 73, 64
2, 8040, Note_on_c, 0, 70, 64
2, 8160, Note_off_c, 0, 70, 64
2, 8160, Note_on_c, 0, 70, 64
2, 8280, Note_off_c, 0, 70, 64
2, 8280, Note_on_c, 0, 69, 64
2, 8400, Note_off_c, 0, 69, 64
2, 8520, Note_on_c, 0, 81, 64
2, 8640, Note_off_c, 0, 81, 64
2, 8640, Note_on_c, 0, 81, 64
2, 8760, Note_off_c, 0, 81, 64
2, 8760, Note_on_c, 0, 82, 64
2, 8880, Note_off_c, 0, 82, 64
2, 9000, Note_on_c, 0, 73, 64
2, 9120, Note_off_c, 0, 73, 64
2, 9120, Note_on_c, 0, 73, 64
2, 9240, Note_off_c, 0, 73, 64
2, 9240, Note_on_c, 0, 72, 64
2, 9360, Note_off_c, 0, 72, 64
2, 9480, Note_on_c, 0, 81, 64
2, 9600, Note_off_c, 0, 81, 64
2, 9600, Note_on_c, 0, 81, 64
2, 9720, Note_off_c, 0, 81, 64
2, 9720, Note_on_c, 0, 82, 64
2, 9840, Note_off_c, 0, 82, 64
2, 9960, Note_on_c, 0, 69, 64
2, 10080, Note_off_c, 0, 69, 64
2, 10080, Note_on_c, 0, 69, 64
2, 10200, Note_off_c, 0, 69, 64
2, 10200, Note_on_c, 0, 70, 64
2, 10320, Note_off_c, 0, 70, 64
2, 10440, Note_on_c, 0, 70, 64
2, 10560, Note_off_c, 0, 70, 64
2, 10560, Note_on_c, 0, 70, 64
2, 10680, Note_off_c, 0, 70, 64
2, 10680, Note_on_c, 0, 78, 64
2, 11100, Note_off_c, 0, 78, 64
2, 11100, Note_on_c, 0, 77, 64
2, 11160, Note_off_c, 0, 77, 64
2, 11160, Note_on_c, 0, 75, 64
2, 11220, Note_off_c, 0, 75, 64
2, 11220, Note_on_c, 0, 73, 64
2, 11280, Note_off_c, 0, 73, 64
2, 11280, Note_on_c, 0, 72, 64
2, 11340, Note_off_c, 0, 72, 64
2, 11340, Note_on_c, 0, 70, 64
2, 11400, Note_off_c, 0, 70, 64
2, 11400, Note_on_c, 0, 69, 64
2, 11430, Note_off_c, 0, 69, 64
2, 11430, Note_on_c, 0, 70, 64
2, 11460, Note_off_c, 0, 70, 64
2, 11460, Note_on_c, 0, 72, 64
2, 11520, Note_off_c, 0, 72, 64
2, 11520, Note_on_c, 0, 65, 64
2, 11640, Note_off_c, 0, 65, 64
2, 11640, Note_on_c, 0, 73, 64
2, 11760, Note_off_c, 0, 73, 64
2, 11880, Note_on_c, 0, 70, 64
2, 12000, Note_off_c, 0, 70, 64
2, 12000, Note_on_c, 0, 70, 64
2, 12120, Note_off_c, 0, 70, 64
2, 12120, Note_on_c, 0, 72, 64
2, 12240, Note_off_c, 0, 72, 64
2, 12360, Note_on_c, 0, 69, 64
2, 12480, Note_off_c, 0, 69, 64
2, 12480, Note_on_c, 0, 69, 64
2, 12600, Note_off_c, 0, 69, 64
2, 12600, Note_on_c, 0, 70, 64
2, 12720, Note_off_c, 0, 70, 64
2, 12720, Note_on_c, 0, 73, 64
2, 12960, Note_off_c, 0, 73, 64
2, 12960, Note_on_c, 0, 75, 64
2, 13200, Note_off_c, 0, 75, 64
2, 13200, Note_on_c, 0, 77, 64
2, 13680, Note_off_c, 0, 77, 64
2, 13680, Note_on_c, 0, 75, 64
2, 13800, Note_off_c, 0, 75, 64
2, 13800, Note_on_c, 0, 73, 64
2, 13920, Note_off_c, 0, 73, 64
2, 13920, Note_on_c, 0, 73, 64
2, 14040, Note_off_c, 0, 73, 64
2, 14040, Note_on_c, 0, 72, 64
2, 14160, Note_off_c, 0, 72, 64
2, 14280, Note_on_c, 0, 70, 64
2, 14400, Note_off_c, 0, 70, 64
2, 14400, Note_on_c, 0, 70, 64
2, 14520, Note_off_c, 0, 70, 64
2, 14520, Note_on_c, 0, 68, 64
2, 14640, Note_off_c, 0, 68, 64
2, 14640, Note_on_c, 0, 77, 64
2, 14880, Note_off_c, 0, 77, 64
2, 14880, Note_on_c, 0, 79, 64
2, 15120, Note_off_c, 0, 79, 64
2, 15120, Note_on_c, 0, 80, 64
2, 15600, Note_off_c, 0, 80, 64
2, 15600, Note_on_c, 0, 79, 64
2, 15720, Note_off_c, 0, 79, 64
2, 15720, Note_on_c, 0, 84, 64
2, 15840, Note_off_c, 0, 84, 64
2, 15840, Note_on_c, 0, 84, 64
2, 15960, Note_off_c, 0, 84, 64
2, 15960, Note_on_c, 0, 82, 64
2, 16080, Note_off_c, 0, 82, 64
2, 16200, Note_on_c, 0, 70, 64
2, 16320, Note_off_c, 0, 70, 64
2, 16320, Note_on_c, 0, 70, 64
2, 16440, Note_off_c, 0, 70, 64
2, 16440, Note_on_c, 0, 68, 64
2, 16560, Note_off_c, 0, 68, 64
2, 16680, Note_on_c, 0, 80, 64
2, 16800, Note_off_c, 0, 80, 64
2, 16800, Note_on_c, 0, 80, 64
2, 16920, Note_off_c, 0, 80, 64
2, 16920, Note_on_c, 0, 79, 64
2, 17040, Note_off_c, 0, 79, 64
2, 17160, Note_on_c, 0, 77, 64
2, 17280, Note_off_c, 0, 77, 64
2, 17280, Note_on_c, 0, 77, 64
2, 17520, Note_off_c, 0, 77, 64
2, 17520, Note_on_c, 0, 62, 64
2, 17760, Note_off_c, 0, 62, 64
2, 17760, Note_on_c, 0, 63, 64
2, 18000, Note_off_c, 0, 63, 64
2, 18000, Note_on_c, 0, 65, 64
2, 18240, Note_off_c, 0, 65, 64
2, 18240, Note_on_c, 0, 67, 64
2, 18360, Note_off_c, 0, 67, 64
2, 18360, Note_on_c, 0, 72, 64
2, 18480, Note_off_c, 0, 72, 64
2, 18480, Note_on_c, 0, 71, 64
2, 18600, Note_off_c, 0, 71, 64
2, 18600, Note_on_c, 0, 72, 64
2, 18720, Note_off_c, 0, 72, 64
2, 18720, Note_on_c, 0, 80, 64
2, 18840, Note_off_c, 0, 80, 64
2, 18840, Note_on_c, 0, 79, 64
2, 18960, Note_off_c, 0, 79, 64
2, 18960, Note_on_c, 0, 72, 64
2, 19080, Note_off_c, 0, 72, 64
2, 19080, Note_on_c, 0, 71, 64
2, 19200, Note_off_c, 0, 71, 64
2, 19200, Note_on_c, 0, 72, 64
2, 19680, Note_off_c, 0, 72, 64
2, 20400, Note_on_c, 0, 77, 64
2, 20640, Note_off_c, 0, 77, 64
2, 20640, Note_on_c, 0, 75, 64
2, 20760, Note_off_c, 0, 75, 64
2, 20760, Note_on_c, 0, 73, 64
2, 20880, Note_off_c, 0, 73, 64
2, 20880, Note_on_c, 0, 72, 64
2, 21000, Note_off_c, 0, 72, 64
2, 21000, Note_on_c, 0, 70, 64
2, 21120, Note_off_c, 0, 70, 64
2, 21120, Note_on_c, 0, 80, 64
2, 21360, Note_off_c, 0, 80, 64
2, 21360, Note_on_c, 0, 77, 64
2, 21600, Note_off_c, 0, 77, 64
2, 21600, Note_on_c, 0, 79, 64
2, 21840, Note_off_c, 0, 79, 64
2, 21840, Note_on_c, 0, 80, 64
2, 22320, Note_off_c, 0, 80, 64
2, 22320, Note_on_c, 0, 79, 64
2, 22440, Note_off_c, 0, 79, 64
2, 22440, Note_on_c, 0, 73, 64
2, 22560, Note_off_c, 0, 73, 64
2, 22560, Note_on_c, 0, 73, 64
2, 22680, Note_off_c, 0, 73, 64
2, 22680, Note_on_c, 0, 72, 64
2, 22800, Note_off_c, 0, 72, 64
2, 22920, Note_on_c, 0, 70, 64
2, 23040, Note_off_c, 0, 70, 64
2, 23040, Note_on_c, 0, 70, 64
2, 23160, Note_off_c, 0, 70, 64
2, 23160, Note_on_c, 0, 68, 64
2, 23280, Note_off_c, 0, 68, 64
2, 23280, Note_on_c, 0, 72, 64
2, 23520, Note_off_c, 0, 72, 64
2, 23520, Note_on_c, 0, 75, 64
2, 23760, Note_off_c, 0, 75, 64
2, 23760, Note_on_c, 0, 77, 64
2, 23880, Note_off_c, 0, 77, 64
2, 23880, Note_on_c, 0, 78, 64
2, 24000, Note_off_c, 0, 78, 64
2, 24000, Note_on_c, 0, 69, 64
2, 24240, Note_off_c, 0, 69, 64
2, 24360, Note_on_c, 0, 85, 64
2, 24480, Note_off_c, 0, 85, 64
2, 24480, Note_on_c, 0, 85, 64
2, 24600, Note_off_c, 0, 85, 64
2, 24600, Note_on_c, 0, 84, 64
2, 24720, Note_off_c, 0, 84, 64
2, 24840, Note_on_c, 0, 84, 64
2, 24960, Note_off_c, 0, 84, 64
2, 24960, Note_on_c, 0, 84, 64
2, 25080, Note_off_c, 0, 84, 64
2, 25080, Note_on_c, 0, 82, 64
2, 25200, Note_off_c, 0, 82, 64
2, 25200, Note_on_c, 0, 70, 64
2, 25440, Note_off_c, 0, 70, 64
2, 25440, Note_on_c, 0, 72, 64
2, 25680, Note_off_c, 0, 72, 64
2, 25680, Note_on_c, 0, 73, 64
2, 26160, Note_off_c, 0, 73, 64
2, 26160, Note_on_c, 0, 72, 64
2, 26280, Note_off_c, 0, 72, 64
2, 26280, Note_on_c, 0, 66, 64
2, 26400, Note_off_c, 0, 66, 64
2, 26400, Note_on_c, 0, 66, 64
2, 26520, Note_off_c, 0, 66, 64
2, 26520, Note_on_c, 0, 65, 64
2, 26640, Note_off_c, 0, 65, 64
2, 26760, Note_on_c, 0, 69, 64
2, 26880, Note_off_c, 0, 69, 64
2, 26880, Note_on_c, 0, 69, 64
2, 27000, Note_off_c, 0, 69, 64
2, 27000, Note_on_c, 0, 70, 64
2, 27120, Note_off_c, 0, 70, 64
2, 27120, Note_on_c, 0, 77, 64
2, 27360, Note_off_c, 0, 77, 64
2, 27360, Note_on_c, 0, 77, 64
2, 27480, Note_off_c, 0, 77, 64
2, 27480, Note_on_c, 0, 78, 64
2, 27960, Note_off_c, 0, 78, 64
2, 27960, Note_on_c, 0, 77, 64
2, 28080, Note_off_c, 0, 77, 64
2, 28080, Note_on_c, 0, 77, 64
2, 28200, Note_off_c, 0, 77, 64
2, 28200, Note_on_c, 0, 76, 64
2, 28320, Note_off_c, 0, 76, 64
2, 28320, Note_on_c, 0, 76, 64
2, 28440, Note_off_c, 0, 76, 64
2, 28440, Note_on_c, 0, 77, 64
2, 28920, Note_off_c, 0, 77, 64
2, 28920, Note_on_c, 0, 75, 64
2, 29040, Note_off_c, 0, 75, 64
2, 29040, Note_on_c, 0, 75, 64
2, 29160, Note_off_c, 0, 75, 64
2, 29160, Note_on_c, 0, 74, 64
2, 29280, Note_off_c, 0, 74, 64
2, 29280, Note_on_c, 0, 74, 64
2, 29400, Note_off_c, 0, 74, 64
2, 29400, Note_on_c, 0, 75, 64
2, 30120, Note_off_c, 0, 75, 64
2, 30120, Note_on_c, 0, 73, 64
2, 30240, Note_off_c, 0, 73, 64
2, 30240, Note_on_c, 0, 73, 64
2, 30360, Note_off_c, 0, 73, 64
2, 30360, Note_on_c, 0, 72, 64
2, 30480, Note_off_c, 0, 72, 64
2, 30600, Note_on_c, 0, 75, 64
2, 30720, Note_off_c, 0, 75, 64
2, 30720, Note_on_c, 0, 75, 64
2, 30840, Note_off_c, 0, 75, 64
2, 30840, Note_on_c, 0, 74, 64
2, 30960, Note_off_c, 0, 74, 64
2, 30960, Note_on_c, 0, 75, 64
2, 31440, Note_off_c, 0, 75, 64
2, 31440, Note_on_c, 0, 73, 64
2, 32040, Note_off_c, 0, 73, 64
2, 32040, Note_on_c, 0, 72, 64
2, 32160, Note_off_c, 0, 72, 64
2, 32160, Note_on_c, 0, 72, 64
2, 32280, Note_off_c, 0, 72, 64
2, 32280, Note_on_c, 0, 70, 64
2, 32400, Note_off_c, 0, 70, 64
2, 32520, Note_on_c, 0, 73, 64
2, 32640, Note_off_c, 0, 73, 64
2, 32640, Note_on_c, 0, 73, 64
2, 32760, Note_off_c, 0, 73, 64
2, 32760, Note_on_c, 0, 72, 64
2, 32880, Note_off_c, 0, 72, 64
2, 32880, Note_on_c, 0, 75, 64
2, 33120, Note_off_c, 0, 75, 64
2, 33120, Note_on_c, 0, 77, 64
2, 33360, Note_off_c, 0, 77, 64
2, 33360, Note_on_c, 0, 78, 64
2, 33840, Note_off_c, 0, 78, 64
2, 33840, Note_on_c, 0, 77, 64
2, 33960, Note_off_c, 0, 77, 64
2, 33960, Note_on_c, 0, 75, 64
2, 34080, Note_off_c, 0, 75, 64
2, 34080, Note_on_c, 0, 75, 64
2, 34200, Note_off_c, 0, 75, 64
2, 34200, Note_on_c, 0, 73, 64
2, 34320, Note_off_c, 0, 73, 64
2, 34440, Note_on_c, 0, 72, 64
2, 34560, Note_off_c, 0, 72, 64
2, 34560, Note_on_c, 0, 72, 64
2, 34680, Note_off_c, 0, 72, 64
2, 34680, Note_on_c, 0, 70, 64
2, 34800, Note_off_c, 0, 70, 64
2, 34800, Note_on_c, 0, 79, 64
2, 35040, Note_off_c, 0, 79, 64
2, 35040, Note_on_c, 0, 80, 64
2, 35280, Note_off_c, 0, 80, 64
2, 35280, Note_on_c, 0, 82, 64
2, 35760, Note_off_c, 0, 82, 64
2, 35760, Note_on_c, 0, 80, 64
2, 35880, Note_off_c, 0, 80, 64
2, 35880, Note_on_c, 0, 73, 64
2, 36000, Note_off_c, 0, 73, 64
2, 36000, Note_on_c, 0, 73, 64
2, 36120, Note_off_c, 0, 73, 64
2, 36120, Note_on_c, 0, 72, 64
2, 36240, Note_off_c, 0, 72, 64
2, 36360, Note_on_c, 0, 67, 64
2, 36480, Note_off_c, 0, 67, 64
2, 36480, Note_on_c, 0, 67, 64
2, 36600, Note_off_c, 0, 67, 64
2, 36600, Note_on_c, 0, 68, 64
2, 36720, Note_off_c, 0, 68, 64
2, 37440, Note_on_c, 0, 72, 64
2, 38160, Note_off_c, 0, 72, 64
2, 38280, Note_on_c, 0, 84, 64
2, 38400, Note_off_c, 0, 84, 64
2, 38400, Note_on_c, 0, 84, 64
2, 38520, Note_off_c, 0, 84, 64
2, 38520, Note_on_c, 0, 82, 64
2, 38640, Note_off_c, 0, 82, 64
2, 39360, Note_on_c, 0, 83, 64
2, 40080, Note_off_c, 0, 83, 64
2, 40200, Note_on_c, 0, 74, 64
2, 40320, Note_off_c, 0, 74, 64
2, 40320, Note_on_c, 0, 74, 64
2, 40440, Note_off_c, 0, 74, 64
2, 40440, Note_on_c, 0, 75, 64
2, 40560, Note_off_c, 0, 75, 64
2, 40680, Note_on_c, 0, 66, 64
2, 40800, Note_off_c, 0, 66, 64
2, 40800, Note_on_c, 0, 66, 64
2, 40920, Note_off_c, 0, 66, 64
2, 40920, Note_on_c, 0, 65, 64
2, 41040, Note_off_c, 0, 65, 64
2, 41160, Note_on_c, 0, 77, 64
2, 41280, Note_off_c, 0, 77, 64
2, 41280, Note_on_c, 0, 77, 64
2, 41400, Note_off_c, 0, 77, 64
2, 41400, Note_on_c, 0, 78, 64
2, 41520, Note_off_c, 0, 78, 64
2, 41640, Note_on_c, 0, 66, 64
2, 41760, Note_off_c, 0, 66, 64
2, 41760, Note_on_c, 0, 66, 64
2, 41880, Note_off_c, 0, 66, 64
2, 41880, Note_on_c, 0, 65, 64
2, 42000, Note_off_c, 0, 65, 64
2, 42120, Note_on_c, 0, 74, 64
2, 42240, Note_off_c, 0, 74, 64
2, 42240, Note_on_c, 0, 74, 64
2, 42360, Note_off_c, 0, 74, 64
2, 42360, Note_on_c, 0, 75, 64
2, 42480, Note_off_c, 0, 75, 64
2, 42480, Note_on_c, 0, 78, 64
2, 42780, Note_off_c, 0, 78, 64
2, 42780, Note_on_c, 0, 77, 64
2, 42840, Note_off_c, 0, 77, 64
2, 42840, Note_on_c, 0, 75, 64
2, 42900, Note_off_c, 0, 75, 64
2, 42900, Note_on_c, 0, 73, 64
2, 42960, Note_off_c, 0, 73, 64
2, 42960, Note_on_c, 0, 72, 64
2, 43020, Note_off_c, 0, 72, 64
2, 43020, Note_on_c, 0, 70, 64
2, 43080, Note_off_c, 0, 70, 64
2, 43080, Note_on_c, 0, 69, 64
2, 43110, Note_off_c, 0, 69, 64
2, 43110, Note_on_c, 0, 70, 64
2, 43140, Note_off_c, 0, 70, 64
2, 43140, Note_on_c, 0, 72, 64
2, 43200, Note_off_c, 0, 72, 64
2, 43200, Note_on_c, 0, 65, 64
2, 43320, Note_off_c, 0, 65, 64
2, 43320, Note_on_c, 0, 75, 64
2, 43440, Note_off_c, 0, 75, 64
2, 43560, Note_on_c, 0, 87, 64
2, 43680, Note_off_c, 0, 87, 64
2, 43680, Note_on_c, 0, 87, 64
2, 43800, Note_off_c, 0, 87, 64
2, 43800, Note_on_c, 0, 86, 64
2, 43920, Note_off_c, 0, 86, 64
2, 44040, Note_on_c, 0, 77, 64
2, 44160, Note_off_c, 0, 77, 64
2, 44160, Note_on_c, 0, 77, 64
2, 44280, Note_off_c, 0, 77, 64
2, 44280, Note_on_c, 0, 75, 64
2, 44400, Note_off_c, 0, 75, 64
2, 44520, Note_on_c, 0, 75, 64
2, 44640, Note_off_c, 0, 75, 64
2, 44640, Note_on_c, 0, 75, 64
2, 44760, Note_off_c, 0, 75, 64
2, 44760, Note_on_c, 0, 77, 64
2, 44880, Note_off_c, 0, 77, 64
2, 45000, Note_on_c, 0, 68, 64
2, 45120, Note_off_c, 0, 68, 64
2, 45120, Note_on_c, 0, 68, 64
2, 45240, Note_off_c, 0, 68, 64
2, 45240, Note_on_c, 0, 67, 64
2, 45360, Note_off_c, 0, 67, 64
2, 45480, Note_on_c, 0, 72, 64
2, 45600, Note_off_c, 0, 72, 64
2, 45600, Note_on_c, 0, 72, 64
2, 45720, Note_off_c, 0, 72, 64
2, 45720, Note_on_c, 0, 74, 64
2, 45840, Note_off_c, 0, 74, 64
2, 45960, Note_on_c, 0, 65, 64
2, 46080, Note_off_c, 0, 65, 64
2, 46080, Note_on_c, 0, 65, 64
2, 46200, Note_off_c, 0, 65, 64
2, 46200, Note_on_c, 0, 63, 64
2, 46320, Note_off_c, 0, 63, 64
2, 46440, Note_on_c, 0, 80, 64
2, 46560, Note_off_c, 0, 80, 64
2, 46560, Note_on_c, 0, 80, 64
2, 46680, Note_off_c, 0, 80, 64
2, 46680, Note_on_c, 0, 82, 64
2, 46800, Note_off_c, 0, 82, 64
2, 46920, Note_on_c, 0, 79, 64
2, 47040, Note_off_c, 0, 79, 64
2, 47040, Note_on_c, 0, 79, 64
2, 47160, Note_off_c, 0, 79, 64
2, 47160, Note_on_c, 0, 80, 64
2, 47280, Note_off_c, 0, 80, 64
2, 47400, Note_on_c, 0, 79, 64
2, 47520, Note_off_c, 0, 79, 64
2, 47520, Note_on_c, 0, 79, 64
2, 47640, Note_off_c, 0, 79, 64
2, 47640, Note_on_c, 0, 77, 64
2, 47760, Note_off_c, 0, 77, 64
2, 47880, Note_on_c, 0, 75, 64
2, 48000, Note_off_c, 0, 75, 64
2, 48000, Note_on_c, 0, 75, 64
2, 48120, Note_off_c, 0, 75, 64
2, 48120, Note_on_c, 0, 74, 64
2, 48240, Note_off_c, 0, 74, 64
2, 48720, Note_on_c, 0, 78, 64
2, 48960, Note_off_c, 0, 78, 64
2, 48960, Note_on_c, 0, 77, 64
2, 49560, Note_off_c, 0, 77, 64
2, 49560, Note_on_c, 0, 76, 64
2, 49680, Note_off_c, 0, 76, 64
2, 49680, Note_on_c, 0, 76, 64
2, 49800, Note_off_c, 0, 76, 64
2, 49800, Note_on_c, 0, 75, 64
2, 49920, Note_off_c, 0, 75, 64
2, 49920, Note_on_c, 0, 75, 64
2, 50520, Note_off_c, 0, 75, 64
2, 50520, Note_on_c, 0, 74, 64
2, 50640, Note_off_c, 0, 74, 64
2, 50640, Note_on_c, 0, 74, 64
2, 50760, Note_off_c, 0, 74, 64
2, 50760, Note_on_c, 0, 75, 64
2, 50880, Note_off_c, 0, 75, 64
2, 50880, Note_on_c, 0, 77, 64
2, 51000, Note_off_c, 0, 77, 64
2, 51000, Note_on_c, 0, 70, 64
2, 51120, Note_off_c, 0, 70, 64
2, 51120, Note_on_c, 0, 75, 64
2, 51600, Note_off_c, 0, 75, 64
2, 51600, Note_on_c, 0, 74, 64
2, 51840, Note_off_c, 0, 74, 64
2, 51840, Note_on_c, 0, 75, 64
2, 52080, Note_off_c, 0, 75, 64
2, 52080, Note_on_c, 0, 79, 64
2, 52320, Note_off_c, 0, 79, 64
2, 52320, Note_on_c, 0, 80, 64
2, 52560, Note_off_c, 0, 80, 64
2, 52560, Note_on_c, 0, 82, 64
2, 53040, Note_off_c, 0, 82, 64
2, 53040, Note_on_c, 0, 80, 64
2, 53160, Note_off_c, 0, 80, 64
2, 53160, Note_on_c, 0, 73, 64
2, 53280, Note_off_c, 0, 73, 64
2, 53280, Note_on_c, 0, 73, 64
2, 53400, Note_off_c, 0, 73, 64
2, 53400, Note_on_c, 0, 72, 64
2, 53520, Note_off_c, 0, 72, 64
2, 53640, Note_on_c, 0, 75, 64
2, 53760, Note_off_c, 0, 75, 64
2, 53760, Note_on_c, 0, 75, 64
2, 53882, Note_off_c, 0, 75, 64
2, 53882, Note_on_c, 0, 74, 64
2, 54002, Note_off_c, 0, 74, 64
2, 54002, Note_on_c, 0, 65, 64
2, 54242, Note_off_c, 0, 65, 64
2, 54242, Note_on_c, 0, 67, 64
2, 54482, Note_off_c, 0, 67, 64
2, 54482, Note_on_c, 0, 68, 64
2, 54962, Note_off_c, 0, 68, 64
2, 54962, Note_on_c, 0, 67, 64
2, 55082, Note_off_c, 0, 67, 64
2, 55082, Note_on_c, 0, 72, 64
2, 55202, Note_off_c, 0, 72, 64
2, 55202, Note_on_c, 0, 72, 64
2, 55322, Note_off_c, 0, 72, 64
2, 55322, Note_on_c, 0, 70, 64
2, 55442, Note_off_c, 0, 70, 64
2, 55562, Note_on_c, 0, 68, 64
2, 55682, Note_off_c, 0, 68, 64
2, 55682, Note_on_c, 0, 68, 64
2, 55802, Note_off_c, 0, 68, 64
2, 55802, Note_on_c, 0, 67, 64
2, 55922, Note_off_c, 0, 67, 64
2, 55922, End_track
3, 0, Start_track
3, 0, Text_t, "Violino-"
3, 240, Note_on_c, 0, 67, 64
3, 480, Note_off_c, 0, 67, 64
3, 480, Note_on_c, 0, 68, 64
3, 720, Note_off_c, 0, 68, 64
3, 720, Note_on_c, 0, 70, 64
3, 1200, Note_off_c, 0, 70, 64
3, 1200, Note_on_c, 0, 68, 64
3, 1320, Note_off_c, 0, 68, 64
3, 1320, Note_on_c, 0, 61, 64
3, 1440, Note_off_c, 0, 61, 64
3, 1440, Note_on_c, 0, 61, 64
3, 1560, Note_off_c, 0, 61, 64
3, 1560, Note_on_c, 0, 60, 64
3, 1680, Note_off_c, 0, 60, 64
3, 1800, Note_on_c, 0, 63, 64
3, 1920, Note_off_c, 0, 63, 64
3, 1920, Note_on_c, 0, 63, 64
3, 2040, Note_off_c, 0, 63, 64
3, 2040, Note_on_c, 0, 62, 64
3, 2160, Note_off_c, 0, 62, 64
3, 2160, Note_on_c, 0, 65, 64
3, 2400, Note_off_c, 0, 65, 64
3, 2400, Note_on_c, 0, 67, 64
3, 2640, Note_off_c, 0, 67, 64
3, 2640, Note_on_c, 0, 68, 64
3, 3120, Note_off_c, 0, 68, 64
3, 3120, Note_on_c, 0, 67, 64
3, 3240, Note_off_c, 0, 67, 64
3, 3240, Note_on_c, 0, 72, 64
3, 3360, Note_off_c, 0, 72, 64
3, 3360, Note_on_c, 0, 72, 64
3, 3480, Note_off_c, 0, 72, 64
3, 3480, Note_on_c, 0, 70, 64
3, 3600, Note_off_c, 0, 70, 64
3, 3720, Note_on_c, 0, 68, 64
3, 3840, Note_off_c, 0, 68, 64
3, 3840, Note_on_c, 0, 68, 64
3, 3960, Note_off_c, 0, 68, 64
3, 3960, Note_on_c, 0, 67, 64
3, 4080, Note_off_c, 0, 67, 64
3, 4800, Note_on_c, 0, 76, 64
3, 5520, Note_off_c, 0, 76, 64
3, 5640, Note_on_c, 0, 67, 64
3, 5760, Note_off_c, 0, 67, 64
3, 5760, Note_on_c, 0, 67, 64
3, 5880, Note_off_c, 0, 67, 64
3, 5880, Note_on_c, 0, 65, 64
3, 6000, Note_off_c, 0, 65, 64
3, 6720, Note_on_c, 0, 69, 64
3, 7440, Note_off_c, 0, 69, 64
3, 7560, Note_on_c, 0, 81, 64
3, 7680, Note_off_c, 0, 81, 64
3, 7680, Note_on_c, 0, 81, 64
3, 7800, Note_off_c, 0, 81, 64
3, 7800, Note_on_c, 0, 82, 64
3, 7920, Note_off_c, 0, 82, 64
3, 8040, Note_on_c, 0, 73, 64
3, 8160, Note_off_c, 0, 73, 64
3, 8160, Note_on_c, 0, 73, 64
3, 8280, Note_off_c, 0, 73, 64
3, 8280, Note_on_c, 0, 72, 64
3, 8400, Note_off_c, 0, 72, 64
3, 8520, Note_on_c, 0, 72, 64
3, 8640, Note_off_c, 0, 72, 64
3, 8640, Note_on_c, 0, 72, 64
3, 8760, Note_off_c, 0, 72, 64
3, 8760, Note_on_c, 0, 73, 64
3, 8880, Note_off_c, 0, 73, 64
3, 9000, Note_on_c, 0, 70, 64
3, 9120, Note_off_c, 0, 70, 64
3, 9120, Note_on_c, 0, 70, 64
3, 9240, Note_off_c, 0, 70, 64
3, 9240, Note_on_c, 0, 69, 64
3, 9360, Note_off_c, 0, 69, 64
3, 9480, Note_on_c, 0, 65, 64
3, 9600, Note_off_c, 0, 65, 64
3, 9600, Note_on_c, 0, 65, 64
3, 9720, Note_off_c, 0, 65, 64
3, 9720, Note_on_c, 0, 73, 64
3, 10140, Note_off_c, 0, 73, 64
3, 10140, Note_on_c, 0, 72, 64
3, 10200, Note_off_c, 0, 72, 64
3, 10200, Note_on_c, 0, 70, 64
3, 10260, Note_off_c, 0, 70, 64
3, 10260, Note_on_c, 0, 68, 64
3, 10320, Note_off_c, 0, 68, 64
3, 10320, Note_on_c, 0, 67, 64
3, 10380, Note_off_c, 0, 67, 64
3, 10380, Note_on_c, 0, 65, 64
3, 10440, Note_off_c, 0, 65, 64
3, 10440, Note_on_c, 0, 64, 64
3, 10470, Note_off_c, 0, 64, 64
3, 10470, Note_on_c, 0, 65, 64
3, 10500, Note_off_c, 0, 65, 64
3, 10500, Note_on_c, 0, 67, 64
3, 10560, Note_off_c, 0, 67, 64
3, 10560, Note_on_c, 0, 60, 64
3, 10680, Note_off_c, 0, 60, 64
3, 10680, Note_on_c, 0, 70, 64
3, 10800, Note_off_c, 0, 70, 64
3, 10920, Note_on_c, 0, 82, 64
3, 11040, Note_off_c, 0, 82, 64
3, 11040, Note_on_c, 0, 82, 64
3, 11160, Note_off_c, 0, 82, 64
3, 11160, Note_on_c, 0, 81, 64
3, 11280, Note_off_c, 0, 81, 64
3, 11400, Note_on_c, 0, 60, 64
3, 11520, Note_off_c, 0, 60, 64
3, 11520, Note_on_c, 0, 60, 64
3, 11640, Note_off_c, 0, 60, 64
3, 11640, Note_on_c, 0, 58, 64
3, 11760, Note_off_c, 0, 58, 64
3, 11880, Note_on_c, 0, 61, 64
3, 12000, Note_off_c, 0, 61, 64
3, 12000, Note_on_c, 0, 61, 64
3, 12120, Note_off_c, 0, 61, 64
3, 12120, Note_on_c, 0, 63, 64
3, 12240, Note_off_c, 0, 63, 64
3, 12360, Note_on_c, 0, 60, 64
3, 12480, Note_off_c, 0, 60, 64
3, 12480, Note_on_c, 0, 60, 64
3, 12600, Note_off_c, 0, 60, 64
3, 12600, Note_on_c, 0, 61, 64
3, 12720, Note_off_c, 0, 61, 64
3, 12720, Note_on_c, 0, 65, 64
3, 12960, Note_off_c, 0, 65, 64
3, 12960, Note_on_c, 0, 66, 64
3, 13200, Note_off_c, 0, 66, 64
3, 13200, Note_on_c, 0, 68, 64
3, 13680, Note_off_c, 0, 68, 64
3, 13680, Note_on_c, 0, 67, 64
3, 13800, Note_off_c, 0, 67, 64
3, 13800, Note_on_c, 0, 77, 64
3, 13920, Note_off_c, 0, 77, 64
3, 13920, Note_on_c, 0, 77, 64
3, 14040, Note_off_c, 0, 77, 64
3, 14040, Note_on_c, 0, 75, 64
3, 14160, Note_off_c, 0, 75, 64
3, 14280, Note_on_c, 0, 73, 64
3, 14400, Note_off_c, 0, 73, 64
3, 14400, Note_on_c, 0, 73, 64
3, 14520, Note_off_c, 0, 73, 64
3, 14520, Note_on_c, 0, 72, 64
3, 14640, Note_off_c, 0, 72, 64
3, 14640, Note_on_c, 0, 68, 64
3, 14880, Note_off_c, 0, 68, 64
3, 14880, Note_on_c, 0, 70, 64
3, 15120, Note_off_c, 0, 70, 64
3, 15120, Note_on_c, 0, 72, 64
3, 15600, Note_off_c, 0, 72, 64
3, 15600, Note_on_c, 0, 70, 64
3, 15720, Note_off_c, 0, 70, 64
3, 15720, Note_on_c, 0, 68, 64
3, 15840, Note_off_c, 0, 68, 64
3, 15840, Note_on_c, 0, 68, 64
3, 15960, Note_off_c, 0, 68, 64
3, 15960, Note_on_c, 0, 67, 64
3, 16080, Note_off_c, 0, 67, 64
3, 16200, Note_on_c, 0, 79, 64
3, 16320, Note_off_c, 0, 79, 64
3, 16320, Note_on_c, 0, 79, 64
3, 16440, Note_off_c, 0, 79, 64
3, 16440, Note_on_c, 0, 77, 64
3, 16560, Note_off_c, 0, 77, 64
3, 16680, Note_on_c, 0, 72, 64
3, 16800, Note_off_c, 0, 72, 64
3, 16800, Note_on_c, 0, 72, 64
3, 16920, Note_off_c, 0, 72, 64
3, 16920, Note_on_c, 0, 71, 64
3, 17040, Note_off_c, 0, 71, 64
3, 17160, Note_on_c, 0, 72, 64
3, 17280, Note_off_c, 0, 72, 64
3, 17280, Note_on_c, 0, 74, 64
3, 17520, Note_off_c, 0, 74, 64
3, 17520, Note_on_c, 0, 71, 64
3, 17760, Note_off_c, 0, 71, 64
3, 17760, Note_on_c, 0, 72, 64
3, 18000, Note_off_c, 0, 72, 64
3, 18000, Note_on_c, 0, 74, 64
3, 18360, Note_off_c, 0, 74, 64
3, 18360, Note_on_c, 0, 67, 64
3, 18480, Note_off_c, 0, 67, 64
3, 18480, Note_on_c, 0, 65, 64
3, 18600, Note_off_c, 0, 65, 64
3, 18600, Note_on_c, 0, 67, 64
3, 18720, Note_off_c, 0, 67, 64
3, 18720, Note_on_c, 0, 63, 64
3, 18960, Note_off_c, 0, 63, 64
3, 18960, Note_on_c, 0, 63, 64
3, 18990, Note_off_c, 0, 63, 64
3, 18990, Note_on_c, 0, 62, 64
3, 19020, Note_off_c, 0, 62, 64
3, 19020, Note_on_c, 0, 63, 64
3, 19050, Note_off_c, 0, 63, 64
3, 19050, Note_on_c, 0, 62, 64
3, 19080, Note_off_c, 0, 62, 64
3, 19080, Note_on_c, 0, 63, 64
3, 19110, Note_off_c, 0, 63, 64
3, 19110, Note_on_c, 0, 62, 64
3, 19140, Note_off_c, 0, 62, 64
3, 19140, Note_on_c, 0, 60, 64
3, 19170, Note_off_c, 0, 60, 64
3, 19170, Note_on_c, 0, 62, 64
3, 19200, Note_off_c, 0, 62, 64
3, 19200, Note_on_c, 0, 60, 64
3, 19440, Note_off_c, 0, 60, 64
3, 19440, Note_on_c, 0, 67, 64
3, 19680, Note_off_c, 0, 67, 64
3, 19680, Note_on_c, 0, 70, 64
3, 19920, Note_off_c, 0, 70, 64
3, 19920, Note_on_c, 0, 72, 64
3, 20040, Note_off_c, 0, 72, 64
3, 20040, Note_on_c, 0, 73, 64
3, 20160, Note_off_c, 0, 73, 64
3, 20160, Note_on_c, 0, 64, 64
3, 20400, Note_off_c, 0, 64, 64
3, 20520, Note_on_c, 0, 80, 64
3, 20640, Note_off_c, 0, 80, 64
3, 20640, Note_on_c, 0, 80, 64
3, 20760, Note_off_c, 0, 80, 64
3, 20760, Note_on_c, 0, 79, 64
3, 20880, Note_off_c, 0, 79, 64
3, 21000, Note_on_c, 0, 79, 64
3, 21120, Note_off_c, 0, 79, 64
3, 21120, Note_on_c, 0, 79, 64
3, 21240, Note_off_c, 0, 79, 64
3, 21240, Note_on_c, 0, 77, 64
3, 21360, Note_off_c, 0, 77, 64
3, 21360, Note_on_c, 0, 68, 64
3, 21600, Note_off_c, 0, 68, 64
3, 21600, Note_on_c, 0, 70, 64
3, 21840, Note_off_c, 0, 70, 64
3, 21840, Note_on_c, 0, 72, 64
3, 22320, Note_off_c, 0, 72, 64
3, 22320, Note_on_c, 0, 70, 64
3, 22440, Note_off_c, 0, 70, 64
3, 22440, Note_on_c, 0, 82, 64
3, 22560, Note_off_c, 0, 82, 64
3, 22560, Note_on_c, 0, 82, 64
3, 22680, Note_off_c, 0, 82, 64
3, 22680, Note_on_c, 0, 80, 64
3, 22800, Note_off_c, 0, 80, 64
3, 22920, Note_on_c, 0, 64, 64
3, 23040, Note_off_c, 0, 64, 64
3, 23040, Note_on_c, 0, 64, 64
3, 23160, Note_off_c, 0, 64, 64
3, 23160, Note_on_c, 0, 65, 64
3, 23280, Note_off_c, 0, 65, 64
3, 24240, Note_on_c, 0, 70, 64
3, 24480, Note_off_c, 0, 70, 64
3, 24480, Note_on_c, 0, 66, 64
3, 24720, Note_off_c, 0, 66, 64
3, 24720, Note_on_c, 0, 65, 64
3, 24840, Note_off_c, 0, 65, 64
3, 24840, Note_on_c, 0, 63, 64
3, 24960, Note_off_c, 0, 63, 64
3, 24960, Note_on_c, 0, 73, 64
3, 25200, Note_off_c, 0, 73, 64
3, 25200, Note_on_c, 0, 61, 64
3, 25440, Note_off_c, 0, 61, 64
3, 25440, Note_on_c, 0, 63, 64
3, 25680, Note_off_c, 0, 63, 64
3, 25680, Note_on_c, 0, 65, 64
3, 26160, Note_off_c, 0, 65, 64
3, 26160, Note_on_c, 0, 63, 64
3, 26280, Note_off_c, 0, 63, 64
3, 26280, Note_on_c, 0, 75, 64
3, 26400, Note_off_c, 0, 75, 64
3, 26400, Note_on_c, 0, 75, 64
3, 26520, Note_off_c, 0, 75, 64
3, 26520, Note_on_c, 0, 73, 64
3, 26640, Note_off_c, 0, 73, 64
3, 26760, Note_on_c, 0, 63, 64
3, 26880, Note_off_c, 0, 63, 64
3, 26880, Note_on_c, 0, 63, 64
3, 27000, Note_off_c, 0, 63, 64
3, 27000, Note_on_c, 0, 61, 64
3, 27120, Note_off_c, 0, 61, 64
3, 27600, Note_on_c, 0, 73, 64
3, 27840, Note_off_c, 0, 73, 64
3, 27840, Note_on_c, 0, 72, 64
3, 28440, Note_off_c, 0, 72, 64
3, 28440, Note_on_c, 0, 71, 64
3, 28560, Note_off_c, 0, 71, 64
3, 28560, Note_on_c, 0, 71, 64
3, 28680, Note_off_c, 0, 71, 64
3, 28680, Note_on_c, 0, 70, 64
3, 28800, Note_off_c, 0, 70, 64
3, 28800, Note_on_c, 0, 70, 64
3, 29400, Note_off_c, 0, 70, 64
3, 29400, Note_on_c, 0, 69, 64
3, 29520, Note_off_c, 0, 69, 64
3, 29520, Note_on_c, 0, 69, 64
3, 29640, Note_off_c, 0, 69, 64
3, 29640, Note_on_c, 0, 70, 64
3, 29760, Note_off_c, 0, 70, 64
3, 29760, Note_on_c, 0, 72, 64
3, 29880, Note_off_c, 0, 72, 64
3, 29880, Note_on_c, 0, 65, 64
3, 30000, Note_off_c, 0, 65, 64
3, 30000, Note_on_c, 0, 70, 64
3, 30480, Note_off_c, 0, 70, 64
3, 30480, Note_on_c, 0, 68, 64
3, 31080, Note_off_c, 0, 68, 64
3, 31080, Note_on_c, 0, 67, 64
3, 31200, Note_off_c, 0, 67, 64
3, 31200, Note_on_c, 0, 67, 64
3, 31320, Note_off_c, 0, 67, 64
3, 31320, Note_on_c, 0, 65, 64
3, 31440, Note_off_c, 0, 65, 64
3, 31560, Note_on_c, 0, 68, 64
3, 31680, Note_off_c, 0, 68, 64
3, 31680, Note_on_c, 0, 68, 64
3, 31800, Note_off_c, 0, 68, 64
3, 31800, Note_on_c, 0, 67, 64
3, 31920, Note_off_c, 0, 67, 64
3, 31920, Note_on_c, 0, 68, 64
3, 32400, Note_off_c, 0, 68, 64
3, 32400, Note_on_c, 0, 67, 64
3, 32640, Note_off_c, 0, 67, 64
3, 32640, Note_on_c, 0, 68, 64
3, 32880, Note_off_c, 0, 68, 64
3, 32880, Note_on_c, 0, 72, 64
3, 33120, Note_off_c, 0, 72, 64
3, 33120, Note_on_c, 0, 73, 64
3, 33360, Note_off_c, 0, 73, 64
3, 33360, Note_on_c, 0, 75, 64
3, 33840, Note_off_c, 0, 75, 64
3, 33840, Note_on_c, 0, 73, 64
3, 33960, Note_off_c, 0, 73, 64
3, 33960, Note_on_c, 0, 66, 64
3, 34080, Note_off_c, 0, 66, 64
3, 34080, Note_on_c, 0, 66, 64
3, 34200, Note_off_c, 0, 66, 64
3, 34200, Note_on_c, 0, 65, 64
3, 34320, Note_off_c, 0, 65, 64
3, 34440, Note_on_c, 0, 68, 64
3, 34560, Note_off_c, 0, 68, 64
3, 34560, Note_on_c, 0, 68, 64
3, 34680, Note_off_c, 0, 68, 64
3, 34680, Note_on_c, 0, 67, 64
3, 34800, Note_off_c, 0, 67, 64
3, 34800, Note_on_c, 0, 70, 64
3, 35040, Note_off_c, 0, 70, 64
3, 35040, Note_on_c, 0, 72, 64
3, 35280, Note_off_c, 0, 72, 64
3, 35280, Note_on_c, 0, 73, 64
3, 35760, Note_off_c, 0, 73, 64
3, 35760, Note_on_c, 0, 72, 64
3, 35880, Note_off_c, 0, 72, 64
3, 35880, Note_on_c, 0, 77, 64
3, 36000, Note_off_c, 0, 77, 64
3, 36000, Note_on_c, 0, 77, 64
3, 36120, Note_off_c, 0, 77, 64
3, 36120, Note_on_c, 0, 75, 64
3, 36240, Note_off_c, 0, 75, 64
3, 36360, Note_on_c, 0, 73, 64
3, 36480, Note_off_c, 0, 73, 64
3, 36480, Note_on_c, 0, 73, 64
3, 36600, Note_off_c, 0, 73, 64
3, 36600, Note_on_c, 0, 72, 64
3, 36720, Note_off_c, 0, 72, 64
3, 37440, Note_on_c, 0, 81, 64
3, 38160, Note_off_c, 0, 81, 64
3, 38280, Note_on_c, 0, 63, 64
3, 38400, Note_off_c, 0, 63, 64
3, 38400, Note_on_c, 0, 63, 64
3, 38520, Note_off_c, 0, 63, 64
3, 38520, Note_on_c, 0, 61, 64
3, 38640, Note_off_c, 0, 61, 64
3, 39360, Note_on_c, 0, 74, 64
3, 40080, Note_off_c, 0, 74, 64
3, 40200, Note_on_c, 0, 80, 64
3, 40320, Note_off_c, 0, 80, 64
3, 40320, Note_on_c, 0, 80, 64
3, 40440, Note_off_c, 0, 80, 64
3, 40440, Note_on_c, 0, 78, 64
3, 40560, Note_off_c, 0, 78, 64
3, 40680, Note_on_c, 0, 75, 64
3, 40800, Note_off_c, 0, 75, 64
3, 40800, Note_on_c, 0, 75, 64
3, 40920, Note_off_c, 0, 75, 64
3, 40920, Note_on_c, 0, 74, 64
3, 41040, Note_off_c, 0, 74, 64
3, 41160, Note_on_c, 0, 62, 64
3, 41280, Note_off_c, 0, 62, 64
3, 41280, Note_on_c, 0, 62, 64
3, 41400, Note_off_c, 0, 62, 64
3, 41400, Note_on_c, 0, 63, 64
3, 41520, Note_off_c, 0, 63, 64
3, 41640, Note_on_c, 0, 75, 64
3, 41760, Note_off_c, 0, 75, 64
3, 41760, Note_on_c, 0, 75, 64
3, 41880, Note_off_c, 0, 75, 64
3, 41880, Note_on_c, 0, 74, 64
3, 42000, Note_off_c, 0, 74, 64
3, 42120, Note_on_c, 0, 65, 64
3, 42240, Note_off_c, 0, 65, 64
3, 42240, Note_on_c, 0, 65, 64
3, 42360, Note_off_c, 0, 65, 64
3, 42360, Note_on_c, 0, 66, 64
3, 42480, Note_off_c, 0, 66, 64
3, 42600, Note_on_c, 0, 62, 64
3, 42720, Note_off_c, 0, 62, 64
3, 42720, Note_on_c, 0, 62, 64
3, 42840, Note_off_c, 0, 62, 64
3, 42840, Note_on_c, 0, 63, 64
3, 42960, Note_off_c, 0, 63, 64
3, 43080, Note_on_c, 0, 63, 64
3, 43200, Note_off_c, 0, 63, 64
3, 43200, Note_on_c, 0, 63, 64
3, 43320, Note_off_c, 0, 63, 64
3, 43320, Note_on_c, 0, 71, 64
3, 43740, Note_off_c, 0, 71, 64
3, 43740, Note_on_c, 0, 70, 64
3, 43800, Note_off_c, 0, 70, 64
3, 43800, Note_on_c, 0, 68, 64
3, 43860, Note_off_c, 0, 68, 64
3, 43860, Note_on_c, 0, 66, 64
3, 43920, Note_off_c, 0, 66, 64
3, 43920, Note_on_c, 0, 65, 64
3, 43980, Note_off_c, 0, 65, 64
3, 43980, Note_on_c, 0, 63, 64
3, 44040, Note_off_c, 0, 63, 64
3, 44040, Note_on_c, 0, 62, 64
3, 44070, Note_off_c, 0, 62, 64
3, 44070, Note_on_c, 0, 63, 64
3, 44100, Note_off_c, 0, 63, 64
3, 44100, Note_on_c, 0, 65, 64
3, 44160, Note_off_c, 0, 65, 64
3, 44160, Note_on_c, 0, 58, 64
3, 44280, Note_off_c, 0, 58, 64
3, 44280, Note_on_c, 0, 67, 64
3, 44400, Note_off_c, 0, 67, 64
3, 44520, Note_on_c, 0, 67, 64
3, 44640, Note_off_c, 0, 67, 64
3, 44640, Note_on_c, 0, 67, 64
3, 44760, Note_off_c, 0, 67, 64
3, 44760, Note_on_c, 0, 68, 64
3, 44880, Note_off_c, 0, 68, 64
3, 45000, Note_on_c, 0, 65, 64
3, 45120, Note_off_c, 0, 65, 64
3, 45120, Note_on_c, 0, 65, 64
3, 45240, Note_off_c, 0, 65, 64
3, 45240, Note_on_c, 0, 63, 64
3, 45360, Note_off_c, 0, 63, 64
3, 45480, Note_on_c, 0, 63, 64
3, 45600, Note_off_c, 0, 63, 64
3, 45600, Note_on_c, 0, 63, 64
3, 45720, Note_off_c, 0, 63, 64
3, 45720, Note_on_c, 0, 65, 64
3, 45840, Note_off_c, 0, 65, 64
3, 45960, Note_on_c, 0, 62, 64
3, 46080, Note_off_c, 0, 62, 64
3, 46080, Note_on_c, 0, 62, 64
3, 46200, Note_off_c, 0, 62, 64
3, 46200, Note_on_c, 0, 60, 64
3, 46320, Note_off_c, 0, 60, 64
3, 46440, Note_on_c, 0, 72, 64
3, 46560, Note_off_c, 0, 72, 64
3, 46560, Note_on_c, 0, 72, 64
3, 46680, Note_off_c, 0, 72, 64
3, 46680, Note_on_c, 0, 73, 64
3, 46800, Note_off_c, 0, 73, 64
3, 46920, Note_on_c, 0, 70, 64
3, 47040, Note_off_c, 0, 70, 64
3, 47040, Note_on_c, 0, 70, 64
3, 47160, Note_off_c, 0, 70, 64
3, 47160, Note_on_c, 0, 72, 64
3, 47280, Note_off_c, 0, 72, 64
3, 47400, Note_on_c, 0, 70, 64
3, 47520, Note_off_c, 0, 70, 64
3, 47520, Note_on_c, 0, 70, 64
3, 47640, Note_off_c, 0, 70, 64
3, 47640, Note_on_c, 0, 68, 64
3, 47760, Note_off_c, 0, 68, 64
3, 47880, Note_on_c, 0, 67, 64
3, 48000, Note_off_c, 0, 67, 64
3, 48000, Note_on_c, 0, 67, 64
3, 48120, Note_off_c, 0, 67, 64
3, 48120, Note_on_c, 0, 65, 64
3, 48240, Note_off_c, 0, 65, 64
3, 48240, Note_on_c, 0, 70, 64
3, 48480, Note_off_c, 0, 70, 64
3, 48480, Note_on_c, 0, 70, 64
3, 48600, Note_off_c, 0, 70, 64
3, 48600, Note_on_c, 0, 71, 64
3, 49080, Note_off_c, 0, 71, 64
3, 49080, Note_on_c, 0, 70, 64
3, 49200, Note_off_c, 0, 70, 64
3, 49200, Note_on_c, 0, 70, 64
3, 49320, Note_off_c, 0, 70, 64
3, 49320, Note_on_c, 0, 69, 64
3, 49440, Note_off_c, 0, 69, 64
3, 49440, Note_on_c, 0, 69, 64
3, 49560, Note_off_c, 0, 69, 64
3, 49560, Note_on_c, 0, 70, 64
3, 50040, Note_off_c, 0, 70, 64
3, 50040, Note_on_c, 0, 68, 64
3, 50160, Note_off_c, 0, 68, 64
3, 50160, Note_on_c, 0, 68, 64
3, 50280, Note_off_c, 0, 68, 64
3, 50280, Note_on_c, 0, 67, 64
3, 50400, Note_off_c, 0, 67, 64
3, 50400, Note_on_c, 0, 67, 64
3, 50520, Note_off_c, 0, 67, 64
3, 50520, Note_on_c, 0, 68, 64
3, 51120, Note_off_c, 0, 68, 64
3, 51120, Note_on_c, 0, 66, 64
3, 51360, Note_off_c, 0, 66, 64
3, 51360, Note_on_c, 0, 65, 64
3, 51600, Note_off_c, 0, 65, 64
3, 51600, Note_on_c, 0, 70, 64
3, 51720, Note_off_c, 0, 70, 64
3, 51720, Note_on_c, 0, 68, 64
3, 51840, Note_off_c, 0, 68, 64
3, 51840, Note_on_c, 0, 67, 64
3, 52080, Note_off_c, 0, 67, 64
3, 52080, Note_on_c, 0, 70, 64
3, 52320, Note_off_c, 0, 70, 64
3, 52320, Note_on_c, 0, 72, 64
3, 52560, Note_off_c, 0, 72, 64
3, 52560, Note_on_c, 0, 73, 64
3, 53040, Note_off_c, 0, 73, 64
3, 53040, Note_on_c, 0, 72, 64
3, 53160, Note_off_c, 0, 72, 64
3, 53160, Note_on_c, 0, 70, 64
3, 53280, Note_off_c, 0, 70, 64
3, 53280, Note_on_c, 0, 70, 64
3, 53400, Note_off_c, 0, 70, 64
3, 53400, Note_on_c, 0, 68, 64
3, 53520, Note_off_c, 0, 68, 64
3, 53637, Note_on_c, 0, 67, 64
3, 53757, Note_off_c, 0, 67, 64
3, 53757, Note_on_c, 0, 67, 64
3, 53875, Note_off_c, 0, 67, 64
3, 53875, Note_on_c, 0, 65, 64
3, 53995, Note_off_c, 0, 65, 64
3, 53995, Note_on_c, 0, 74, 64
3, 54235, Note_off_c, 0, 74, 64
3, 54235, Note_on_c, 0, 75, 64
3, 54475, Note_off_c, 0, 75, 64
3, 54475, Note_on_c, 0, 77, 64
3, 54955, Note_off_c, 0, 77, 64
3, 54955, Note_on_c, 0, 75, 64
3, 55075, Note_off_c, 0, 75, 64
3, 55075, Note_on_c, 0, 68, 64
3, 55195, Note_off_c, 0, 68, 64
3, 55195, Note_on_c, 0, 68, 64
3, 55315, Note_off_c, 0, 68, 64
3, 55315, Note_on_c, 0, 67, 64
3, 55435, Note_off_c, 0, 67, 64
3, 55555, Note_on_c, 0, 62, 64
3, 55675, Note_off_c, 0, 62, 64
3, 55675, Note_on_c, 0, 62, 64
3, 55795, Note_off_c, 0, 62, 64
3, 55795, Note_on_c, 0, 63, 64
3, 55915, Note_off_c, 0, 63, 64
3, 55915, End_track
4, 0, Start_track
4, 0, Text_t, "Continuo"
4, 0, Note_on_c, 0, 67, 40
4, 0, Note_on_c, 0, 70, 40
4, 0, Note_on_c, 0, 75, 40
4, 480, Note_off_c, 0, 67, 64
4, 480, Note_off_c, 0, 75, 64
4, 480, Note_off_c, 0, 70, 64
4, 960, Note_on_c, 0, 63, 40
4, 960, Note_on_c, 0, 67, 40
4, 960, Note_on_c, 0, 70, 40
4, 960, Note_on_c, 0, 73, 40
4, 1200, Note_off_c, 0, 63, 64
4, 1200, Note_off_c, 0, 73, 64
4, 1200, Note_off_c, 0, 70, 64
4, 1200, Note_off_c, 0, 67, 64
4, 1200, Note_on_c, 0, 63, 40
4, 1200, Note_on_c, 0, 68, 40
4, 1200, Note_on_c, 0, 72, 40
4, 1440, Note_off_c, 0, 63, 64
4, 1440, Note_off_c, 0, 72, 64
4, 1440, Note_off_c, 0, 68, 64
4, 1680, Note_on_c, 0, 63, 40
4, 1680, Note_on_c, 0, 67, 40
4, 1680, Note_on_c, 0, 70, 40
4, 1920, Note_off_c, 0, 63, 64
4, 1920, Note_off_c, 0, 70, 64
4, 1920, Note_off_c, 0, 67, 64
4, 1920, Note_on_c, 0, 62, 40
4, 1920, Note_on_c, 0, 65, 40
4, 1920, Note_on_c, 0, 68, 40
4, 2400, Note_off_c, 0, 62, 64
4, 2400, Note_off_c, 0, 68, 64
4, 2400, Note_off_c, 0, 65, 64
4, 2880, Note_on_c, 0, 58, 40
4, 2880, Note_on_c, 0, 62, 40
4, 2880, Note_on_c, 0, 65, 40
4, 2880, Note_on_c, 0, 68, 40
4, 3120, Note_off_c, 0, 58, 64
4, 3120, Note_off_c, 0, 68, 64
4, 3120, Note_off_c, 0, 65, 64
4, 3120, Note_off_c, 0, 62, 64
4, 3120, Note_on_c, 0, 58, 40
4, 3120, Note_on_c, 0, 63, 40
4, 3120, Note_on_c, 0, 67, 40
4, 3360, Note_off_c, 0, 58, 64
4, 3360, Note_off_c, 0, 67, 64
4, 3360, Note_off_c, 0, 63, 64
4, 3600, Note_on_c, 0, 58, 40
4, 3600, Note_on_c, 0, 62, 40
4, 3600, Note_on_c, 0, 65, 40
4, 3600, Note_on_c, 0, 68, 40
4, 3840, Note_off_c, 0, 58, 64
4, 3840, Note_off_c, 0, 68, 64
4, 3840, Note_off_c, 0, 65, 64
4, 3840, Note_off_c, 0, 62, 64
4, 3840, Note_on_c, 0, 58, 40
4, 3840, Note_on_c, 0, 63, 40
4, 3840, Note_on_c, 0, 67, 40
4, 4080, Note_off_c, 0, 58, 64
4, 4080, Note_off_c, 0, 67, 64
4, 4080, Note_off_c, 0, 63, 64
4, 4800, Note_on_c, 0, 64, 40
4, 4800, Note_on_c, 0, 67, 40
4, 4800, Note_on_c, 0, 70, 40
4, 5520, Note_off_c, 0, 64, 64
4, 5520, Note_off_c, 0, 70, 64
4, 5520, Note_off_c, 0, 67, 64
4, 5520, Note_on_c, 0, 60, 40
4, 5520, Note_on_c, 0, 67, 40
4, 5520, Note_on_c, 0, 70, 40
4, 5760, Note_off_c, 0, 60, 64
4, 5760, Note_off_c, 0, 70, 64
4, 5760, Note_off_c, 0, 67, 64
4, 5760, Note_on_c, 0, 60, 40
4, 5760, Note_on_c, 0, 65, 40
4, 5760, Note_on_c, 0, 68, 40
4, 6000, Note_off_c, 0, 60, 64
4, 6000, Note_off_c, 0, 68, 64
4, 6000, Note_off_c, 0, 65, 64
4, 6720, Note_on_c, 0, 66, 40
4, 6720, Note_on_c, 0, 69, 40
4, 6720, Note_on_c, 0, 72, 40
4, 7440, Note_off_c, 0, 66, 64
4, 7440, Note_off_c, 0, 72, 64
4, 7440, Note_off_c, 0, 69, 64
4, 7440, Note_on_c, 0, 63, 40
4, 7440, Note_on_c, 0, 69, 40
4, 7440, Note_on_c, 0, 72, 40
4, 7680, Note_off_c, 0, 63, 64
4, 7680, Note_off_c, 0, 72, 64
4, 7680, Note_off_c, 0, 69, 64
4, 7680, Note_on_c, 0, 61, 40
4, 7680, Note_on_c, 0, 70, 40
4, 8400, Note_off_c, 0, 61, 64
4, 8400, Note_off_c, 0, 70, 64
4, 8400, Note_on_c, 0, 63, 40
4, 8400, Note_on_c, 0, 69, 40
4, 8400, Note_on_c, 0, 72, 40
4, 8640, Note_off_c, 0, 63, 64
4, 8640, Note_off_c, 0, 72, 64
4, 8640, Note_off_c, 0, 69, 64
4, 8640, Note_on_c, 0, 63, 40
4, 8640, Note_on_c, 0, 69, 40
4, 8640, Note_on_c, 0, 72, 40
4, 9360, Note_off_c, 0, 63, 64
4, 9360, Note_off_c, 0, 72, 64
4, 9360, Note_off_c, 0, 69, 64
4, 9360, Note_on_c, 0, 65, 40
4, 9360, Note_on_c, 0, 70, 40
4, 9360, Note_on_c, 0, 73, 40
4, 9600, Note_off_c, 0, 65, 64
4, 9600, Note_off_c, 0, 73, 64
4, 9600, Note_off_c, 0, 70, 64
4, 9600, Note_on_c, 0, 61, 40
4, 9600, Note_on_c, 0, 67, 40
4, 9600, Note_on_c, 0, 70, 40
4, 10320, Note_off_c, 0, 61, 64
4, 10320, Note_off_c, 0, 70, 64
4, 10320, Note_off_c, 0, 67, 64
4, 10320, Note_on_c, 0, 60, 40
4, 10320, Note_on_c, 0, 67, 40
4, 10320, Note_on_c, 0, 70, 40
4, 10560, Note_off_c, 0, 60, 64
4, 10560, Note_off_c, 0, 70, 64
4, 10560, Note_off_c, 0, 67, 64
4, 10560, Note_on_c, 0, 60, 40
4, 10560, Note_on_c, 0, 67, 40
4, 10560, Note_on_c, 0, 70, 40
4, 11280, Note_off_c, 0, 60, 64
4, 11280, Note_off_c, 0, 70, 64
4, 11280, Note_off_c, 0, 67, 64
4, 11280, Note_on_c, 0, 60, 40
4, 11280, Note_on_c, 0, 65, 40
4, 11280, Note_on_c, 0, 69, 40
4, 11520, Note_off_c, 0, 60, 64
4, 11520, Note_off_c, 0, 69, 64
4, 11520, Note_off_c, 0, 65, 64
4, 11520, Note_on_c, 0, 61, 40
4, 11520, Note_on_c, 0, 65, 40
4, 11520, Note_on_c, 0, 70, 40
4, 11760, Note_off_c, 0, 61, 64
4, 11760, Note_off_c, 0, 70, 64
4, 11760, Note_off_c, 0, 65, 64
4, 11760, Note_on_c, 0, 61, 40
4, 11760, Note_on_c, 0, 66, 40
4, 11760, Note_on_c, 0, 70, 40
4, 12000, Note_off_c, 0, 61, 64
4, 12000, Note_off_c, 0, 70, 64
4, 12000, Note_off_c, 0, 66, 64
4, 12000, Note_on_c, 0, 63, 40
4, 12000, Note_on_c, 0, 66, 40
4, 12000, Note_on_c, 0, 72, 40
4, 12240, Note_off_c, 0, 63, 64
4, 12240, Note_off_c, 0, 72, 64
4, 12240, Note_off_c, 0, 66, 64
4, 12240, Note_on_c, 0, 63, 40
4, 12240, Note_on_c, 0, 65, 40
4, 12240, Note_on_c, 0, 69, 40
4, 12480, Note_off_c, 0, 63, 64
4, 12480, Note_off_c, 0, 69, 64
4, 12480, Note_off_c, 0, 65, 64
4, 12480, Note_on_c, 0, 61, 40
4, 12480, Note_on_c, 0, 65, 40
4, 12480, Note_on_c, 0, 70, 40
4, 12960, Note_off_c, 0, 61, 64
4, 12960, Note_off_c, 0, 70, 64
4, 12960, Note_off_c, 0, 65, 64
4, 13200, Note_on_c, 0, 68, 40
4, 13200, Note_on_c, 0, 77, 40
4, 13440, Note_off_c, 0, 68, 64
4, 13440, Note_off_c, 0, 77, 64
4, 13440, Note_on_c, 0, 68, 40
4, 13440, Note_on_c, 0, 70, 40
4, 13440, Note_on_c, 0, 77, 40
4, 13680, Note_off_c, 0, 68, 64
4, 13680, Note_off_c, 0, 77, 64
4, 13680, Note_off_c, 0, 70, 64
4, 13680, Note_on_c, 0, 67, 40
4, 13680, Note_on_c, 0, 70, 40
4, 13680, Note_on_c, 0, 75, 40
4, 14160, Note_off_c, 0, 67, 64
4, 14160, Note_off_c, 0, 75, 64
4, 14160, Note_off_c, 0, 70, 64
4, 14160, Note_on_c, 0, 63, 40
4, 14160, Note_on_c, 0, 70, 40
4, 14160, Note_on_c, 0, 73, 40
4, 14400, Note_off_c, 0, 63, 64
4, 14400, Note_off_c, 0, 73, 64
4, 14400, Note_off_c, 0, 70, 64
4, 14400, Note_on_c, 0, 63, 40
4, 14400, Note_on_c, 0, 68, 40
4, 14400, Note_on_c, 0, 72, 40
4, 14880, Note_off_c, 0, 63, 64
4, 14880, Note_off_c, 0, 72, 64
4, 14880, Note_off_c, 0, 68, 64
4, 15120, Note_on_c, 0, 65, 40
4, 15120, Note_on_c, 0, 68, 40
4, 15360, Note_off_c, 0, 65, 64
4, 15360, Note_off_c, 0, 68, 64
4, 15360, Note_on_c, 0, 65, 40
4, 15360, Note_on_c, 0, 68, 40
4, 15360, Note_on_c, 0, 72, 40
4, 15600, Note_off_c, 0, 65, 64
4, 15600, Note_off_c, 0, 72, 64
4, 15600, Note_off_c, 0, 68, 64
4, 15600, Note_on_c, 0, 64, 40
4, 15600, Note_on_c, 0, 67, 40
4, 15600, Note_on_c, 0, 72, 40
4, 15840, Note_off_c, 0, 64, 64
4, 15840, Note_off_c, 0, 72, 64
4, 15840, Note_off_c, 0, 67, 64
4, 15840, Note_on_c, 0, 62, 40
4, 15840, Note_on_c, 0, 65, 40
4, 15840, Note_on_c, 0, 72, 40
4, 16080, Note_off_c, 0, 62, 64
4, 16080, Note_off_c, 0, 72, 64
4, 16080, Note_off_c, 0, 65, 64
4, 16080, Note_on_c, 0, 60, 40
4, 16080, Note_on_c, 0, 67, 40
4, 16080, Note_on_c, 0, 70, 40
4, 16320, Note_off_c, 0, 60, 64
4, 16320, Note_off_c, 0, 70, 64
4, 16320, Note_off_c, 0, 67, 64
4, 16320, Note_on_c, 0, 60, 40
4, 16320, Note_on_c, 0, 67, 40
4, 16320, Note_on_c, 0, 70, 40
4, 16560, Note_off_c, 0, 60, 64
4, 16560, Note_off_c, 0, 70, 64
4, 16560, Note_off_c, 0, 67, 64
4, 16560, Note_on_c, 0, 60, 40
4, 16560, Note_on_c, 0, 65, 40
4, 16560, Note_on_c, 0, 68, 40
4, 17280, Note_off_c, 0, 60, 64
4, 17280, Note_off_c, 0, 68, 64
4, 17280, Note_off_c, 0, 65, 64
4, 17280, Note_on_c, 0, 62, 40
4, 17280, Note_on_c, 0, 65, 40
4, 17280, Note_on_c, 0, 67, 40
4, 17520, Note_off_c, 0, 62, 64
4, 17520, Note_off_c, 0, 67, 64
4, 17520, Note_off_c, 0, 65, 64
4, 17640, Note_on_c, 0, 62, 40
4, 17640, Note_on_c, 0, 65, 40
4, 17640, Note_on_c, 0, 71, 40
4, 17760, Note_off_c, 0, 62, 64
4, 17760, Note_off_c, 0, 71, 64
4, 17760, Note_off_c, 0, 65, 64
4, 17760, Note_on_c, 0, 63, 40
4, 17760, Note_on_c, 0, 72, 40
4, 18000, Note_off_c, 0, 63, 64
4, 18000, Note_off_c, 0, 72, 64
4, 18120, Note_on_c, 0, 62, 40
4, 18120, Note_on_c, 0, 68, 40
4, 18120, Note_on_c, 0, 74, 40
4, 18240, Note_off_c, 0, 62, 64
4, 18240, Note_off_c, 0, 74, 64
4, 18240, Note_off_c, 0, 68, 64
4, 18240, Note_on_c, 0, 62, 40
4, 18240, Note_on_c, 0, 67, 40
4, 18240, Note_on_c, 0, 71, 40
4, 18480, Note_off_c, 0, 62, 64
4, 18480, Note_off_c, 0, 71, 64
4, 18480, Note_off_c, 0, 67, 64
4, 18480, Note_on_c, 0, 65, 40
4, 18600, Note_off_c, 0, 65, 64
4, 18600, Note_on_c, 0, 68, 40
4, 18720, Note_off_c, 0, 68, 64
4, 18720, Note_on_c, 0, 63, 40
4, 18720, Note_on_c, 0, 67, 40
4, 18720, Note_on_c, 0, 72, 40
4, 18960, Note_off_c, 0, 63, 64
4, 18960, Note_off_c, 0, 72, 64
4, 18960, Note_off_c, 0, 67, 64
4, 18960, Note_on_c, 0, 62, 40
4, 18960, Note_on_c, 0, 67, 40
4, 18960, Note_on_c, 0, 71, 40
4, 19200, Note_off_c, 0, 62, 64
4, 19200, Note_off_c, 0, 71, 64
4, 19200, Note_off_c, 0, 67, 64
4, 19200, Note_on_c, 0, 63, 40
4, 19200, Note_on_c, 0, 67, 40
4, 19200, Note_on_c, 0, 72, 40
4, 19440, Note_off_c, 0, 63, 64
4, 19440, Note_off_c, 0, 72, 64
4, 19440, Note_off_c, 0, 67, 64
4, 19560, Note_on_c, 0, 64, 40
4, 19560, Note_on_c, 0, 67, 40
4, 19560, Note_on_c, 0, 70, 40
4, 19680, Note_off_c, 0, 64, 64
4, 19680, Note_off_c, 0, 70, 64
4, 19680, Note_off_c, 0, 67, 64
4, 19680, Note_on_c, 0, 64, 40
4, 19680, Note_on_c, 0, 67, 40
4, 19680, Note_on_c, 0, 70, 40
4, 19920, Note_off_c, 0, 64, 64
4, 19920, Note_off_c, 0, 70, 64
4, 19920, Note_off_c, 0, 67, 64
4, 20160, Note_on_c, 0, 67, 40
4, 20160, Note_on_c, 0, 70, 40
4, 20160, Note_on_c, 0, 76, 40
4, 20400, Note_off_c, 0, 67, 64
4, 20400, Note_off_c, 0, 76, 64
4, 20400, Note_off_c, 0, 70, 64
4, 20400, Note_on_c, 0, 65, 40
4, 20400, Note_on_c, 0, 68, 40
4, 20400, Note_on_c, 0, 77, 40
4, 20640, Note_off_c, 0, 65, 64
4, 20640, Note_off_c, 0, 77, 64
4, 20640, Note_off_c, 0, 68, 64
4, 20640, Note_on_c, 0, 65, 40
4, 20640, Note_on_c, 0, 68, 40
4, 20640, Note_on_c, 0, 73, 40
4, 20880, Note_off_c, 0, 65, 64
4, 20880, Note_off_c, 0, 73, 64
4, 20880, Note_off_c, 0, 68, 64
4, 20880, Note_on_c, 0, 64, 40
4, 20880, Note_on_c, 0, 67, 40
4, 20880, Note_on_c, 0, 72, 40
4, 21120, Note_off_c, 0, 64, 64
4, 21120, Note_off_c, 0, 72, 64
4, 21120, Note_off_c, 0, 67, 64
4, 21120, Note_on_c, 0, 65, 40
4, 21120, Note_on_c, 0, 68, 40
4, 21120, Note_on_c, 0, 72, 40
4, 21600, Note_off_c, 0, 65, 64
4, 21600, Note_off_c, 0, 72, 64
4, 21600, Note_off_c, 0, 68, 64
4, 22080, Note_on_c, 0, 68, 40
4, 22080, Note_on_c, 0, 72, 40
4, 22080, Note_on_c, 0, 77, 40
4, 22560, Note_off_c, 0, 68, 64
4, 22560, Note_off_c, 0, 77, 64
4, 22560, Note_off_c, 0, 72, 64
4, 22560, Note_on_c, 0, 67, 40
4, 22560, Note_on_c, 0, 76, 40
4, 22800, Note_off_c, 0, 67, 64
4, 22800, Note_off_c, 0, 76, 64
4, 22800, Note_on_c, 0, 67, 40
4, 22800, Note_on_c, 0, 70, 40
4, 22800, Note_on_c, 0, 72, 40
4, 22800, Note_on_c, 0, 76, 40
4, 23040, Note_off_c, 0, 67, 64
4, 23040, Note_off_c, 0, 76, 64
4, 23040, Note_off_c, 0, 72, 64
4, 23040, Note_off_c, 0, 70, 64
4, 23040, Note_on_c, 0, 68, 40
4, 23040, Note_on_c, 0, 72, 40
4, 23040, Note_on_c, 0, 77, 40
4, 23280, Note_off_c, 0, 68, 64
4, 23280, Note_off_c, 0, 77, 64
4, 23280, Note_off_c, 0, 72, 64
4, 23520, Note_on_c, 0, 69, 40
4, 23520, Note_on_c, 0, 72, 40
4, 23520, Note_on_c, 0, 75, 40
4, 23760, Note_off_c, 0, 69, 64
4, 23760, Note_off_c, 0, 75, 64
4, 23760, Note_off_c, 0, 72, 64
4, 24000, Note_on_c, 0, 69, 40
4, 24000, Note_on_c, 0, 72, 40
4, 24000, Note_on_c, 0, 77, 40
4, 24240, Note_off_c, 0, 69, 64
4, 24240, Note_off_c, 0, 77, 64
4, 24240, Note_off_c, 0, 72, 64
4, 24240, Note_on_c, 0, 70, 40
4, 24240, Note_on_c, 0, 73, 40
4, 24240, Note_on_c, 0, 78, 40
4, 24720, Note_off_c, 0, 70, 64
4, 24720, Note_off_c, 0, 78, 64
4, 24720, Note_off_c, 0, 73, 64
4, 24720, Note_on_c, 0, 69, 40
4, 24720, Note_on_c, 0, 72, 40
4, 24720, Note_on_c, 0, 77, 40
4, 24960, Note_off_c, 0, 69, 64
4, 24960, Note_off_c, 0, 77, 64
4, 24960, Note_off_c, 0, 72, 64
4, 24960, Note_on_c, 0, 65, 40
4, 24960, Note_on_c, 0, 70, 40
4, 24960, Note_on_c, 0, 73, 40
4, 25440, Note_off_c, 0, 65, 64
4, 25440, Note_off_c, 0, 73, 64
4, 25440, Note_off_c, 0, 70, 64
4, 25920, Note_on_c, 0, 65, 40
4, 25920, Note_on_c, 0, 70, 40
4, 25920, Note_on_c, 0, 73, 40
4, 26400, Note_off_c, 0, 65, 64
4, 26400, Note_off_c, 0, 73, 64
4, 26400, Note_off_c, 0, 70, 64
4, 26400, Note_on_c, 0, 69, 40
4, 26400, Note_on_c, 0, 72, 40
4, 26640, Note_off_c, 0, 69, 64
4, 26640, Note_off_c, 0, 72, 64
4, 26640, Note_on_c, 0, 65, 40
4, 26640, Note_on_c, 0, 69, 40
4, 26640, Note_on_c, 0, 72, 40
4, 26640, Note_on_c, 0, 75, 40
4, 26880, Note_off_c, 0, 65, 64
4, 26880, Note_off_c, 0, 75, 64
4, 26880, Note_off_c, 0, 72, 64
4, 26880, Note_off_c, 0, 69, 64
4, 26880, Note_on_c, 0, 65, 40
4, 26880, Note_on_c, 0, 70, 40
4, 26880, Note_on_c, 0, 73, 40
4, 27120, Note_off_c, 0, 65, 64
4, 27120, Note_off_c, 0, 73, 64
4, 27120, Note_off_c, 0, 70, 64
4, 27240, Note_on_c, 0, 72, 40
4, 27240, Note_on_c, 0, 77, 40
4, 27360, Note_off_c, 0, 72, 64
4, 27360, Note_off_c, 0, 77, 64
4, 27360, Note_on_c, 0, 66, 40
4, 27360, Note_on_c, 0, 73, 40
4, 27360, Note_on_c, 0, 78, 40
4, 27600, Note_off_c, 0, 66, 64
4, 27600, Note_off_c, 0, 78, 64
4, 27600, Note_off_c, 0, 73, 64
4, 27720, Note_on_c, 0, 66, 40
4, 27720, Note_on_c, 0, 73, 40
4, 27720, Note_on_c, 0, 78, 40
4, 27840, Note_off_c, 0, 66, 64
4, 27840, Note_off_c, 0, 78, 64
4, 27840, Note_off_c, 0, 73, 64
4, 27840, Note_on_c, 0, 66, 40
4, 27840, Note_on_c, 0, 72, 40
4, 27840, Note_on_c, 0, 78, 40
4, 28080, Note_off_c, 0, 66, 64
4, 28080, Note_off_c, 0, 78, 64
4, 28080, Note_off_c, 0, 72, 64
4, 28200, Note_on_c, 0, 67, 40
4, 28200, Note_on_c, 0, 72, 40
4, 28200, Note_on_c, 0, 76, 40
4, 28320, Note_off_c, 0, 67, 64
4, 28320, Note_off_c, 0, 76, 64
4, 28320, Note_off_c, 0, 72, 64
4, 28320, Note_on_c, 0, 65, 40
4, 28320, Note_on_c, 0, 72, 40
4, 28320, Note_on_c, 0, 77, 40
4, 28560, Note_off_c, 0, 65, 64
4, 28560, Note_off_c, 0, 77, 64
4, 28560, Note_off_c, 0, 72, 64
4, 28680, Note_on_c, 0, 65, 40
4, 28680, Note_on_c, 0, 71, 40
4, 28680, Note_on_c, 0, 77, 40
4, 28800, Note_off_c, 0, 65, 64
4, 28800, Note_off_c, 0, 77, 64
4, 28800, Note_off_c, 0, 71, 64
4, 28800, Note_on_c, 0, 65, 40
4, 28800, Note_on_c, 0, 70, 40
4, 28800, Note_on_c, 0, 77, 40
4, 29040, Note_off_c, 0, 65, 64
4, 29040, Note_off_c, 0, 77, 64
4, 29040, Note_off_c, 0, 70, 64
4, 29160, Note_on_c, 0, 65, 40
4, 29160, Note_on_c, 0, 70, 40
4, 29160, Note_on_c, 0, 74, 40
4, 29280, Note_off_c, 0, 65, 64
4, 29280, Note_off_c, 0, 74, 64
4, 29280, Note_off_c, 0, 70, 64
4, 29280, Note_on_c, 0, 63, 40
4, 29280, Note_on_c, 0, 70, 40
4, 29280, Note_on_c, 0, 75, 40
4, 29520, Note_off_c, 0, 63, 64
4, 29520, Note_off_c, 0, 75, 64
4, 29520, Note_off_c, 0, 70, 64
4, 29640, Note_on_c, 0, 66, 40
4, 29640, Note_on_c, 0, 70, 40
4, 29640, Note_on_c, 0, 75, 40
4, 29760, Note_off_c, 0, 66, 64
4, 29760, Note_off_c, 0, 75, 64
4, 29760, Note_off_c, 0, 70, 64
4, 29760, Note_on_c, 0, 65, 40
4, 29760, Note_on_c, 0, 72, 40
4, 29760, Note_on_c, 0, 75, 40
4, 30000, Note_off_c, 0, 65, 64
4, 30000, Note_off_c, 0, 75, 64
4, 30000, Note_off_c, 0, 72, 64
4, 30000, Note_on_c, 0, 65, 40
4, 30000, Note_on_c, 0, 70, 40
4, 30000, Note_on_c, 0, 73, 40
4, 30240, Note_off_c, 0, 65, 64
4, 30240, Note_off_c, 0, 73, 64
4, 30240, Note_off_c, 0, 70, 64
4, 30240, Note_on_c, 0, 67, 40
4, 30240, Note_on_c, 0, 70, 40
4, 30240, Note_on_c, 0, 73, 40
4, 30480, Note_off_c, 0, 67, 64
4, 30480, Note_off_c, 0, 73, 64
4, 30480, Note_off_c, 0, 70, 64
4, 30480, Note_on_c, 0, 68, 40
4, 30480, Note_on_c, 0, 72, 40
4, 30720, Note_off_c, 0, 68, 64
4, 30720, Note_off_c, 0, 72, 64
4, 30720, Note_on_c, 0, 65, 40
4, 30720, Note_on_c, 0, 68, 40
4, 30720, Note_on_c, 0, 74, 40
4, 30960, Note_off_c, 0, 65, 64
4, 30960, Note_off_c, 0, 74, 64
4, 30960, Note_off_c, 0, 68, 64
4, 30960, Note_on_c, 0, 63, 40
4, 30960, Note_on_c, 0, 67, 40
4, 30960, Note_on_c, 0, 75, 40
4, 31200, Note_off_c, 0, 63, 64
4, 31200, Note_off_c, 0, 75, 64
4, 31200, Note_off_c, 0, 67, 64
4, 31200, Note_on_c, 0, 65, 40
4, 31200, Note_on_c, 0, 72, 40
4, 31200, Note_on_c, 0, 75, 40
4, 31440, Note_off_c, 0, 65, 64
4, 31440, Note_off_c, 0, 75, 64
4, 31440, Note_off_c, 0, 72, 64
4, 31440, Note_on_c, 0, 65, 40
4, 31440, Note_on_c, 0, 70, 40
4, 31440, Note_on_c, 0, 73, 40
4, 31680, Note_off_c, 0, 65, 64
4, 31680, Note_off_c, 0, 73, 64
4, 31680, Note_off_c, 0, 70, 64
4, 31680, Note_on_c, 0, 67, 40
4, 31680, Note_on_c, 0, 70, 40
4, 31680, Note_on_c, 0, 73, 40
4, 31920, Note_off_c, 0, 67, 64
4, 31920, Note_off_c, 0, 73, 64
4, 31920, Note_off_c, 0, 70, 64
4, 31920, Note_on_c, 0, 68, 40
4, 31920, Note_on_c, 0, 72, 40
4, 32160, Note_off_c, 0, 68, 64
4, 32160, Note_off_c, 0, 72, 64
4, 32160, Note_on_c, 0, 65, 40
4, 32160, Note_on_c, 0, 68, 40
4, 32160, Note_on_c, 0, 70, 40
4, 32400, Note_off_c, 0, 65, 64
4, 32400, Note_off_c, 0, 70, 64
4, 32400, Note_off_c, 0, 68, 64
4, 32400, Note_on_c, 0, 63, 40
4, 32400, Note_on_c, 0, 67, 40
4, 32400, Note_on_c, 0, 70, 40
4, 32640, Note_off_c, 0, 63, 64
4, 32640, Note_off_c, 0, 70, 64
4, 32640, Note_off_c, 0, 67, 64
4, 32640, Note_on_c, 0, 63, 40
4, 32640, Note_on_c, 0, 68, 40
4, 32640, Note_on_c, 0, 72, 40
4, 33120, Note_off_c, 0, 63, 64
4, 33120, Note_off_c, 0, 72, 64
4, 33120, Note_off_c, 0, 68, 64
4, 33360, Note_on_c, 0, 66, 40
4, 33360, Note_on_c, 0, 75, 40
4, 33600, Note_off_c, 0, 66, 64
4, 33600, Note_off_c, 0, 75, 64
4, 33600, Note_on_c, 0, 66, 40
4, 33600, Note_on_c, 0, 68, 40
4, 33600, Note_on_c, 0, 75, 40
4, 33840, Note_off_c, 0, 66, 64
4, 33840, Note_off_c, 0, 75, 64
4, 33840, Note_off_c, 0, 68, 64
4, 33840, Note_on_c, 0, 65, 40
4, 33840, Note_on_c, 0, 68, 40
4, 33840, Note_on_c, 0, 73, 40
4, 34080, Note_off_c, 0, 65, 64
4, 34080, Note_off_c, 0, 73, 64
4, 34080, Note_off_c, 0, 68, 64
4, 34320, Note_on_c, 0, 63, 40
4, 34320, Note_on_c, 0, 68, 40
4, 34320, Note_on_c, 0, 72, 40
4, 34560, Note_off_c, 0, 63, 64
4, 34560, Note_off_c, 0, 72, 64
4, 34560, Note_off_c, 0, 68, 64
4, 34560, Note_on_c, 0, 63, 40
4, 34560, Note_on_c, 0, 67, 40
4, 34560, Note_on_c, 0, 70, 40
4, 34560, Note_on_c, 0, 73, 40
4, 35040, Note_off_c, 0, 63, 64
4, 35040, Note_off_c, 0, 73, 64
4, 35040, Note_off_c, 0, 70, 64
4, 35040, Note_off_c, 0, 67, 64
4, 35520, Note_on_c, 0, 63, 40
4, 35520, Note_on_c, 0, 67, 40
4, 35520, Note_on_c, 0, 70, 40
4, 35520, Note_on_c, 0, 73, 40
4, 35760, Note_off_c, 0, 63, 64
4, 35760, Note_off_c, 0, 73, 64
4, 35760, Note_off_c, 0, 70, 64
4, 35760, Note_off_c, 0, 67, 64
4, 35760, Note_on_c, 0, 63, 40
4, 35760, Note_on_c, 0, 68, 40
4, 35760, Note_on_c, 0, 72, 40
4, 36000, Note_off_c, 0, 63, 64
4, 36000, Note_off_c, 0, 72, 64
4, 36000, Note_off_c, 0, 68, 64
4, 36240, Note_on_c, 0, 61, 40
4, 36240, Note_on_c, 0, 63, 40
4, 36240, Note_on_c, 0, 70, 40
4, 36480, Note_off_c, 0, 61, 64
4, 36480, Note_off_c, 0, 70, 64
4, 36480, Note_off_c, 0, 63, 64
4, 36480, Note_on_c, 0, 60, 40
4, 36480, Note_on_c, 0, 63, 40
4, 36480, Note_on_c, 0, 68, 40
4, 36960, Note_off_c, 0, 60, 64
4, 36960, Note_off_c, 0, 68, 64
4, 36960, Note_off_c, 0, 63, 64
4, 37440, Note_on_c, 0, 63, 40
4, 37440, Note_on_c, 0, 69, 40
4, 37440, Note_on_c, 0, 72, 40
4, 38160, Note_off_c, 0, 63, 64
4, 38160, Note_off_c, 0, 72, 64
4, 38160, Note_off_c, 0, 69, 64
4, 38160, Note_on_c, 0, 63, 40
4, 38160, Note_on_c, 0, 65, 40
4, 38160, Note_on_c, 0, 72, 40
4, 38400, Note_off_c, 0, 63, 64
4, 38400, Note_off_c, 0, 72, 64
4, 38400, Note_off_c, 0, 65, 64
4, 38400, Note_on_c, 0, 61, 40
4, 38400, Note_on_c, 0, 65, 40
4, 38400, Note_on_c, 0, 70, 40
4, 38640, Note_off_c, 0, 61, 64
4, 38640, Note_off_c, 0, 70, 64
4, 38640, Note_off_c, 0, 65, 64
4, 39360, Note_on_c, 0, 65, 40
4, 39360, Note_on_c, 0, 71, 40
4, 39360, Note_on_c, 0, 74, 40
4, 40080, Note_off_c, 0, 65, 64
4, 40080, Note_off_c, 0, 74, 64
4, 40080, Note_off_c, 0, 71, 64
4, 40080, Note_on_c, 0, 65, 40
4, 40080, Note_on_c, 0, 68, 40
4, 40080, Note_on_c, 0, 74, 40
4, 40320, Note_off_c, 0, 65, 64
4, 40320, Note_off_c, 0, 74, 64
4, 40320, Note_off_c, 0, 68, 64
4, 40320, Note_on_c, 0, 63, 40
4, 40320, Note_on_c, 0, 66, 40
4, 40320, Note_on_c, 0, 75, 40
4, 41040, Note_off_c, 0, 63, 64
4, 41040, Note_off_c, 0, 75, 64
4, 41040, Note_off_c, 0, 66, 64
4, 41040, Note_on_c, 0, 65, 40
4, 41040, Note_on_c, 0, 68, 40
4, 41040, Note_on_c, 0, 74, 40
4, 41280, Note_off_c, 0, 65, 64
4, 41280, Note_off_c, 0, 74, 64
4, 41280, Note_off_c, 0, 68, 64
4, 41280, Note_on_c, 0, 66, 40
4, 41280, Note_on_c, 0, 70, 40
4, 41280, Note_on_c, 0, 75, 40
4, 42000, Note_off_c, 0, 66, 64
4, 42000, Note_off_c, 0, 75, 64
4, 42000, Note_off_c, 0, 70, 64
4, 42000, Note_on_c, 0, 65, 40
4, 42000, Note_on_c, 0, 70, 40
4, 42000, Note_on_c, 0, 74, 40
4, 42240, Note_off_c, 0, 65, 64
4, 42240, Note_off_c, 0, 74, 64
4, 42240, Note_off_c, 0, 70, 64
4, 42240, Note_on_c, 0, 66, 40
4, 42240, Note_on_c, 0, 72, 40
4, 42240, Note_on_c, 0, 75, 40
4, 42960, Note_off_c, 0, 66, 64
4, 42960, Note_off_c, 0, 75, 64
4, 42960, Note_off_c, 0, 72, 64
4, 42960, Note_on_c, 0, 65, 40
4, 42960, Note_on_c, 0, 72, 40
4, 42960, Note_on_c, 0, 75, 40
4, 43200, Note_off_c, 0, 65, 64
4, 43200, Note_off_c, 0, 75, 64
4, 43200, Note_off_c, 0, 72, 64
4, 43200, Note_on_c, 0, 65, 40
4, 43200, Note_on_c, 0, 71, 40
4, 43200, Note_on_c, 0, 75, 40
4, 43920, Note_off_c, 0, 65, 64
4, 43920, Note_off_c, 0, 75, 64
4, 43920, Note_off_c, 0, 71, 64
4, 43920, Note_on_c, 0, 65, 40
4, 43920, Note_on_c, 0, 70, 40
4, 43920, Note_on_c, 0, 74, 40
4, 44160, Note_off_c, 0, 65, 64
4, 44160, Note_off_c, 0, 74, 64
4, 44160, Note_off_c, 0, 70, 64
4, 44160, Note_on_c, 0, 63, 40
4, 44160, Note_on_c, 0, 70, 40
4, 44160, Note_on_c, 0, 75, 40
4, 44400, Note_off_c, 0, 63, 64
4, 44400, Note_off_c, 0, 75, 64
4, 44400, Note_off_c, 0, 70, 64
4, 44400, Note_on_c, 0, 63, 40
4, 44400, Note_on_c, 0, 67, 40
4, 44400, Note_on_c, 0, 72, 40
4, 44640, Note_off_c, 0, 63, 64
4, 44640, Note_off_c, 0, 72, 64
4, 44640, Note_off_c, 0, 67, 64
4, 44640, Note_on_c, 0, 65, 40
4, 44640, Note_on_c, 0, 68, 40
4, 44640, Note_on_c, 0, 72, 40
4, 44880, Note_off_c, 0, 65, 64
4, 44880, Note_off_c, 0, 72, 64
4, 44880, Note_off_c, 0, 68, 64
4, 44880, Note_on_c, 0, 62, 40
4, 44880, Note_on_c, 0, 65, 40
4, 44880, Note_on_c, 0, 70, 40
4, 45120, Note_off_c, 0, 62, 64
4, 45120, Note_off_c, 0, 70, 64
4, 45120, Note_off_c, 0, 65, 64
4, 45120, Note_on_c, 0, 63, 40
4, 45120, Note_on_c, 0, 67, 40
4, 45120, Note_on_c, 0, 70, 40
4, 45360, Note_off_c, 0, 63, 64
4, 45360, Note_off_c, 0, 70, 64
4, 45360, Note_off_c, 0, 67, 64
4, 45360, Note_on_c, 0, 63, 40
4, 45360, Note_on_c, 0, 68, 40
4, 45360, Note_on_c, 0, 72, 40
4, 45600, Note_off_c, 0, 63, 64
4, 45600, Note_off_c, 0, 72, 64
4, 45600, Note_off_c, 0, 68, 64
4, 45600, Note_on_c, 0, 65, 40
4, 45600, Note_on_c, 0, 68, 40
4, 45600, Note_on_c, 0, 74, 40
4, 45840, Note_off_c, 0, 65, 64
4, 45840, Note_off_c, 0, 74, 64
4, 45840, Note_off_c, 0, 68, 64
4, 45840, Note_on_c, 0, 62, 40
4, 45840, Note_on_c, 0, 67, 40
4, 45840, Note_on_c, 0, 71, 40
4, 46080, Note_off_c, 0, 62, 64
4, 46080, Note_off_c, 0, 71, 64
4, 46080, Note_off_c, 0, 67, 64
4, 46080, Note_on_c, 0, 63, 40
4, 46080, Note_on_c, 0, 67, 40
4, 46080, Note_on_c, 0, 72, 40
4, 46320, Note_off_c, 0, 63, 64
4, 46320, Note_off_c, 0, 72, 64
4, 46320, Note_off_c, 0, 67, 64
4, 46320, Note_on_c, 0, 65, 40
4, 46320, Note_on_c, 0, 68, 40
4, 46320, Note_on_c, 0, 72, 40
4, 46560, Note_off_c, 0, 65, 64
4, 46560, Note_off_c, 0, 72, 64
4, 46560, Note_off_c, 0, 68, 64
4, 46560, Note_on_c, 0, 65, 40
4, 46560, Note_on_c, 0, 70, 40
4, 46560, Note_on_c, 0, 77, 40
4, 46800, Note_off_c, 0, 65, 64
4, 46800, Note_off_c, 0, 77, 64
4, 46800, Note_off_c, 0, 70, 64
4, 46800, Note_on_c, 0, 67, 40
4, 46800, Note_on_c, 0, 70, 40
4, 46800, Note_on_c, 0, 75, 40
4, 47040, Note_off_c, 0, 67, 64
4, 47040, Note_off_c, 0, 75, 64
4, 47040, Note_off_c, 0, 70, 64
4, 47040, Note_on_c, 0, 68, 40
4, 47040, Note_on_c, 0, 72, 40
4, 47040, Note_on_c, 0, 75, 40
4, 47280, Note_off_c, 0, 68, 64
4, 47280, Note_off_c, 0, 75, 64
4, 47280, Note_off_c, 0, 72, 64
4, 47280, Note_on_c, 0, 67, 40
4, 47280, Note_on_c, 0, 70, 40
4, 47280, Note_on_c, 0, 75, 40
4, 47520, Note_off_c, 0, 67, 64
4, 47520, Note_off_c, 0, 75, 64
4, 47520, Note_off_c, 0, 70, 64
4, 47520, Note_on_c, 0, 65, 40
4, 47520, Note_on_c, 0, 68, 40
4, 47520, Note_on_c, 0, 74, 40
4, 47760, Note_off_c, 0, 65, 64
4, 47760, Note_off_c, 0, 74, 64
4, 47760, Note_off_c, 0, 68, 64
4, 47760, Note_on_c, 0, 67, 40
4, 47760, Note_on_c, 0, 72, 40
4, 47760, Note_on_c, 0, 75, 40
4, 48000, Note_off_c, 0, 67, 64
4, 48000, Note_off_c, 0, 75, 64
4, 48000, Note_off_c, 0, 72, 64
4, 48000, Note_on_c, 0, 65, 40
4, 48000, Note_on_c, 0, 70, 40
4, 48000, Note_on_c, 0, 74, 40
4, 48240, Note_off_c, 0, 65, 64
4, 48240, Note_off_c, 0, 74, 64
4, 48240, Note_off_c, 0, 70, 64
4, 48360, Note_on_c, 0, 77, 40
4, 48360, Note_on_c, 0, 82, 40
4, 48480, Note_off_c, 0, 77, 64
4, 48480, Note_off_c, 0, 82, 64
4, 48480, Note_on_c, 0, 71, 40
4, 48480, Note_on_c, 0, 78, 40
4, 48480, Note_on_c, 0, 83, 40
4, 48720, Note_off_c, 0, 71, 64
4, 48720, Note_off_c, 0, 83, 64
4, 48720, Note_off_c, 0, 78, 64
4, 48840, Note_on_c, 0, 71, 40
4, 48840, Note_on_c, 0, 78, 40
4, 48840, Note_on_c, 0, 83, 40
4, 48960, Note_off_c, 0, 71, 64
4, 48960, Note_off_c, 0, 83, 64
4, 48960, Note_off_c, 0, 78, 64
4, 48960, Note_on_c, 0, 71, 40
4, 48960, Note_on_c, 0, 77, 40
4, 48960, Note_on_c, 0, 83, 40
4, 49200, Note_off_c, 0, 71, 64
4, 49200, Note_off_c, 0, 83, 64
4, 49200, Note_off_c, 0, 77, 64
4, 49320, Note_on_c, 0, 72, 40
4, 49320, Note_on_c, 0, 77, 40
4, 49320, Note_on_c, 0, 81, 40
4, 49440, Note_off_c, 0, 72, 64
4, 49440, Note_off_c, 0, 81, 64
4, 49440, Note_off_c, 0, 77, 64
4, 49440, Note_on_c, 0, 70, 40
4, 49440, Note_on_c, 0, 77, 40
4, 49440, Note_on_c, 0, 82, 40
4, 49680, Note_off_c, 0, 70, 64
4, 49680, Note_off_c, 0, 82, 64
4, 49680, Note_off_c, 0, 77, 64
4, 49800, Note_on_c, 0, 70, 40
4, 49800, Note_on_c, 0, 76, 40
4, 49800, Note_on_c, 0, 82, 40
4, 49920, Note_off_c, 0, 70, 64
4, 49920, Note_off_c, 0, 82, 64
4, 49920, Note_off_c, 0, 76, 64
4, 49920, Note_on_c, 0, 70, 40
4, 49920, Note_on_c, 0, 75, 40
4, 49920, Note_on_c, 0, 82, 40
4, 50160, Note_off_c, 0, 70, 64
4, 50160, Note_off_c, 0, 82, 64
4, 50160, Note_off_c, 0, 75, 64
4, 50280, Note_on_c, 0, 70, 40
4, 50280, Note_on_c, 0, 75, 40
4, 50280, Note_on_c, 0, 79, 40
4, 50400, Note_off_c, 0, 70, 64
4, 50400, Note_off_c, 0, 79, 64
4, 50400, Note_off_c, 0, 75, 64
4, 50400, Note_on_c, 0, 68, 40
4, 50400, Note_on_c, 0, 75, 40
4, 50400, Note_on_c, 0, 80, 40
4, 50640, Note_off_c, 0, 68, 64
4, 50640, Note_off_c, 0, 80, 64
4, 50640, Note_off_c, 0, 75, 64
4, 50760, Note_on_c, 0, 68, 40
4, 50760, Note_on_c, 0, 75, 40
4, 50880, Note_off_c, 0, 68, 64
4, 50880, Note_off_c, 0, 75, 64
4, 50880, Note_on_c, 0, 68, 40
4, 50880, Note_on_c, 0, 74, 40
4, 50880, Note_on_c, 0, 77, 40
4, 51120, Note_off_c, 0, 68, 64
4, 51120, Note_off_c, 0, 77, 64
4, 51120, Note_off_c, 0, 74, 64
4, 51240, Note_on_c, 0, 66, 40
4, 51240, Note_on_c, 0, 72, 40
4, 51240, Note_on_c, 0, 75, 40
4, 51360, Note_off_c, 0, 66, 64
4, 51360, Note_off_c, 0, 75, 64
4, 51360, Note_off_c, 0, 72, 64
4, 51360, Note_on_c, 0, 65, 40
4, 51360, Note_on_c, 0, 72, 40
4, 51360, Note_on_c, 0, 75, 40
4, 51600, Note_off_c, 0, 65, 64
4, 51600, Note_off_c, 0, 75, 64
4, 51600, Note_off_c, 0, 72, 64
4, 51720, Note_on_c, 0, 65, 40
4, 51720, Note_on_c, 0, 70, 40
4, 51720, Note_on_c, 0, 74, 40
4, 51840, Note_off_c, 0, 65, 64
4, 51840, Note_off_c, 0, 74, 64
4, 51840, Note_off_c, 0, 70, 64
4, 51840, Note_on_c, 0, 67, 40
4, 51840, Note_on_c, 0, 70, 40
4, 51840, Note_on_c, 0, 75, 40
4, 52320, Note_off_c, 0, 67, 64
4, 52320, Note_off_c, 0, 75, 64
4, 52320, Note_off_c, 0, 70, 64
4, 52800, Note_on_c, 0, 63, 40
4, 52800, Note_on_c, 0, 67, 40
4, 52800, Note_on_c, 0, 70, 40
4, 52800, Note_on_c, 0, 73, 40
4, 53040, Note_off_c, 0, 63, 64
4, 53040, Note_off_c, 0, 73, 64
4, 53040, Note_off_c, 0, 70, 64
4, 53040, Note_off_c, 0, 67, 64
4, 53040, Note_on_c, 0, 63, 40
4, 53040, Note_on_c, 0, 68, 40
4, 53040, Note_on_c, 0, 72, 40
4, 53280, Note_off_c, 0, 63, 64
4, 53280, Note_off_c, 0, 72, 64
4, 53280, Note_off_c, 0, 68, 64
4, 53520, Note_on_c, 0, 63, 40
4, 53520, Note_on_c, 0, 67, 40
4, 53520, Note_on_c, 0, 70, 40
4, 53760, Note_off_c, 0, 63, 64
4, 53760, Note_off_c, 0, 70, 64
4, 53760, Note_off_c, 0, 67, 64
4, 53760, Note_on_c, 0, 62, 40
4, 53760, Note_on_c, 0, 65, 40
4, 53760, Note_on_c, 0, 68, 40
4, 54240, Note_off_c, 0, 62, 64
4, 54240, Note_off_c, 0, 68, 64
4, 54240, Note_off_c, 0, 65, 64
4, 54720, Note_on_c, 0, 58, 40
4, 54720, Note_on_c, 0, 65, 40
4, 54720, Note_on_c, 0, 68, 40
4, 54960, Note_off_c, 0, 58, 64
4, 54960, Note_off_c, 0, 68, 64
4, 54960, Note_off_c, 0, 65, 64
4, 54960, Note_on_c, 0, 58, 40
4, 54960, Note_on_c, 0, 63, 40
4, 54960, Note_on_c, 0, 67, 40
4, 55200, Note_off_c, 0, 58, 64
4, 55200, Note_off_c, 0, 67, 64
4, 55200, Note_off_c, 0, 63, 64
4, 55440, Note_on_c, 0, 56, 40
4, 55440, Note_on_c, 0, 58, 40
4, 55440, Note_on_c, 0, 62, 40
4, 55680, Note_off_c, 0, 56, 64
4, 55680, Note_off_c, 0, 62, 64
4, 55680, Note_off_c, 0, 58, 64
4, 55680, Note_on_c, 0, 55, 40
4, 55680, Note_on_c, 0, 58, 40
4, 55680, Note_on_c, 0, 63, 40
4, 56160, Note_off_c, 0, 55, 64
4, 56160, Note_off_c, 0, 63, 64
4, 56160, Note_off_c, 0, 58, 64
4, 56160, End_track
5, 0, Start_track
5, 0, Text_t, "Continuo"
5, 0, Note_on_c, 0, 51, 64
5, 480, Note_off_c, 0, 51, 64
5, 960, Note_on_c, 0, 39, 64
5, 1440, Note_off_c, 0, 39, 64
5, 1680, Note_on_c, 0, 39, 64
5, 1920, Note_off_c, 0, 39, 64
5, 1920, Note_on_c, 0, 51, 64
5, 2400, Note_off_c, 0, 51, 64
5, 2880, Note_on_c, 0, 39, 64
5, 3360, Note_off_c, 0, 39, 64
5, 3600, Note_on_c, 0, 39, 64
5, 3840, Note_off_c, 0, 39, 64
5, 3840, Note_on_c, 0, 51, 64
5, 4080, Note_off_c, 0, 51, 64
5, 4080, Note_on_c, 0, 58, 64
5, 4320, Note_off_c, 0, 58, 64
5, 4320, Note_on_c, 0, 60, 64
5, 4560, Note_off_c, 0, 60, 64
5, 4560, Note_on_c, 0, 61, 64
5, 5040, Note_off_c, 0, 61, 64
5, 5040, Note_on_c, 0, 60, 64
5, 5160, Note_off_c, 0, 60, 64
5, 5160, Note_on_c, 0, 58, 64
5, 5280, Note_off_c, 0, 58, 64
5, 5280, Note_on_c, 0, 58, 64
5, 5400, Note_off_c, 0, 58, 64
5, 5400, Note_on_c, 0, 60, 64
5, 5520, Note_off_c, 0, 60, 64
5, 5520, Note_on_c, 0, 52, 64
5, 5760, Note_off_c, 0, 52, 64
5, 5760, Note_on_c, 0, 41, 64
5, 6000, Note_off_c, 0, 41, 64
5, 6000, Note_on_c, 0, 60, 64
5, 6240, Note_off_c, 0, 60, 64
5, 6240, Note_on_c, 0, 61, 64
5, 6480, Note_off_c, 0, 61, 64
5, 6480, Note_on_c, 0, 63, 64
5, 6960, Note_off_c, 0, 63, 64
5, 6960, Note_on_c, 0, 61, 64
5, 7080, Note_off_c, 0, 61, 64
5, 7080, Note_on_c, 0, 60, 64
5, 7200, Note_off_c, 0, 60, 64
5, 7200, Note_on_c, 0, 60, 64
5, 7320, Note_off_c, 0, 60, 64
5, 7320, Note_on_c, 0, 61, 64
5, 7440, Note_off_c, 0, 61, 64
5, 7440, Note_on_c, 0, 53, 64
5, 7680, Note_off_c, 0, 53, 64
5, 7680, Note_on_c, 0, 42, 64
5, 7920, Note_off_c, 0, 42, 64
5, 7920, Note_on_c, 0, 54, 64
5, 8160, Note_off_c, 0, 54, 64
5, 8160, Note_on_c, 0, 54, 64
5, 8400, Note_off_c, 0, 54, 64
5, 8400, Note_on_c, 0, 42, 64
5, 8640, Note_off_c, 0, 42, 64
5, 8640, Note_on_c, 0, 41, 64
5, 8880, Note_off_c, 0, 41, 64
5, 8880, Note_on_c, 0, 53, 64
5, 9120, Note_off_c, 0, 53, 64
5, 9120, Note_on_c, 0, 53, 64
5, 9360, Note_off_c, 0, 53, 64
5, 9360, Note_on_c, 0, 41, 64
5, 9600, Note_off_c, 0, 41, 64
5, 9600, Note_on_c, 0, 40, 64
5, 9840, Note_off_c, 0, 40, 64
5, 9840, Note_on_c, 0, 52, 64
5, 10080, Note_off_c, 0, 52, 64
5, 10080, Note_on_c, 0, 52, 64
5, 10320, Note_off_c, 0, 52, 64
5, 10320, Note_on_c, 0, 40, 64
5, 10560, Note_off_c, 0, 40, 64
5, 10560, Note_on_c, 0, 39, 64
5, 10800, Note_off_c, 0, 39, 64
5, 10800, Note_on_c, 0, 51, 64
5, 11040, Note_off_c, 0, 51, 64
5, 11040, Note_on_c, 0, 51, 64
5, 11280, Note_off_c, 0, 51, 64
5, 11280, Note_on_c, 0, 39, 64
5, 11520, Note_off_c, 0, 39, 64
5, 11520, Note_on_c, 0, 37, 64
5, 11760, Note_off_c, 0, 37, 64
5, 11760, Note_on_c, 0, 42, 64
5, 12000, Note_off_c, 0, 42, 64
5, 12000, Note_on_c, 0, 39, 64
5, 12240, Note_off_c, 0, 39, 64
5, 12240, Note_on_c, 0, 41, 64
5, 12480, Note_off_c, 0, 41, 64
5, 12480, Note_on_c, 0, 46, 64
5, 12960, Note_off_c, 0, 46, 64
5, 13440, Note_on_c, 0, 39, 64
5, 13680, Note_off_c, 0, 39, 64
5, 13680, Note_on_c, 0, 51, 64
5, 13920, Note_off_c, 0, 51, 64
5, 13920, Note_on_c, 0, 53, 64
5, 14160, Note_off_c, 0, 53, 64
5, 14160, Note_on_c, 0, 55, 64
5, 14400, Note_off_c, 0, 55, 64
5, 14400, Note_on_c, 0, 44, 64
5, 14880, Note_off_c, 0, 44, 64
5, 15360, Note_on_c, 0, 36, 64
5, 15600, Note_off_c, 0, 36, 64
5, 15600, Note_on_c, 0, 48, 64
5, 15840, Note_off_c, 0, 48, 64
5, 15840, Note_on_c, 0, 50, 64
5, 16080, Note_off_c, 0, 50, 64
5, 16080, Note_on_c, 0, 52, 64
5, 16320, Note_off_c, 0, 52, 64
5, 16320, Note_on_c, 0, 41, 64
5, 16560, Note_off_c, 0, 41, 64
5, 16560, Note_on_c, 0, 53, 64
5, 16800, Note_off_c, 0, 53, 64
5, 16800, Note_on_c, 0, 55, 64
5, 17040, Note_off_c, 0, 55, 64
5, 17040, Note_on_c, 0, 56, 64
5, 17280, Note_off_c, 0, 56, 64
5, 17280, Note_on_c, 0, 48, 64
5, 17400, Note_off_c, 0, 48, 64
5, 17400, Note_on_c, 0, 47, 64
5, 17520, Note_off_c, 0, 47, 64
5, 17640, Note_on_c, 0, 56, 64
5, 17760, Note_off_c, 0, 56, 64
5, 17760, Note_on_c, 0, 56, 64
5, 17880, Note_off_c, 0, 56, 64
5, 17880, Note_on_c, 0, 55, 64
5, 18000, Note_off_c, 0, 55, 64
5, 18120, Note_on_c, 0, 53, 64
5, 18240, Note_off_c, 0, 53, 64
5, 18240, Note_on_c, 0, 53, 64
5, 18360, Note_off_c, 0, 53, 64
5, 18360, Note_on_c, 0, 51, 64
5, 18480, Note_off_c, 0, 51, 64
5, 18480, Note_on_c, 0, 56, 64
5, 18600, Note_off_c, 0, 56, 64
5, 18600, Note_on_c, 0, 53, 64
5, 18720, Note_off_c, 0, 53, 64
5, 18720, Note_on_c, 0, 55, 64
5, 18960, Note_off_c, 0, 55, 64
5, 18960, Note_on_c, 0, 43, 64
5, 19200, Note_off_c, 0, 43, 64
5, 19200, Note_on_c, 0, 48, 64
5, 19440, Note_off_c, 0, 48, 64
5, 19560, Note_on_c, 0, 61, 64
5, 19680, Note_off_c, 0, 61, 64
5, 19680, Note_on_c, 0, 61, 64
5, 19800, Note_off_c, 0, 61, 64
5, 19800, Note_on_c, 0, 60, 64
5, 19920, Note_off_c, 0, 60, 64
5, 20040, Note_on_c, 0, 58, 64
5, 20160, Note_off_c, 0, 58, 64
5, 20160, Note_on_c, 0, 58, 64
5, 20280, Note_off_c, 0, 58, 64
5, 20280, Note_on_c, 0, 56, 64
5, 20400, Note_off_c, 0, 56, 64
5, 20400, Note_on_c, 0, 49, 64
5, 20640, Note_off_c, 0, 49, 64
5, 20640, Note_on_c, 0, 46, 64
5, 20880, Note_off_c, 0, 46, 64
5, 20880, Note_on_c, 0, 48, 64
5, 21120, Note_off_c, 0, 48, 64
5, 21120, Note_on_c, 0, 41, 64
5, 21600, Note_off_c, 0, 41, 64
5, 22080, Note_on_c, 0, 53, 64
5, 22560, Note_off_c, 0, 53, 64
5, 22800, Note_on_c, 0, 41, 64
5, 23040, Note_off_c, 0, 41, 64
5, 23040, Note_on_c, 0, 41, 64
5, 23280, Note_off_c, 0, 41, 64
5, 23400, Note_on_c, 0, 54, 64
5, 23520, Note_off_c, 0, 54, 64
5, 23520, Note_on_c, 0, 54, 64
5, 23640, Note_off_c, 0, 54, 64
5, 23640, Note_on_c, 0, 53, 64
5, 23760, Note_off_c, 0, 53, 64
5, 23880, Note_on_c, 0, 51, 64
5, 24000, Note_off_c, 0, 51, 64
5, 24000, Note_on_c, 0, 51, 64
5, 24120, Note_off_c, 0, 51, 64
5, 24120, Note_on_c, 0, 49, 64
5, 24240, Note_off_c, 0, 49, 64
5, 24240, Note_on_c, 0, 42, 64
5, 24480, Note_off_c, 0, 42, 64
5, 24480, Note_on_c, 0, 39, 64
5, 24720, Note_off_c, 0, 39, 64
5, 24720, Note_on_c, 0, 41, 64
5, 24960, Note_off_c, 0, 41, 64
5, 24960, Note_on_c, 0, 46, 64
5, 25440, Note_off_c, 0, 46, 64
5, 25920, Note_on_c, 0, 58, 64
5, 26400, Note_off_c, 0, 58, 64
5, 26640, Note_on_c, 0, 58, 64
5, 26880, Note_off_c, 0, 58, 64
5, 26880, Note_on_c, 0, 46, 64
5, 27120, Note_off_c, 0, 46, 64
5, 27240, Note_on_c, 0, 57, 64
5, 27360, Note_off_c, 0, 57, 64
5, 27360, Note_on_c, 0, 57, 64
5, 27480, Note_off_c, 0, 57, 64
5, 27480, Note_on_c, 0, 58, 64
5, 27600, Note_off_c, 0, 58, 64
5, 27720, Note_on_c, 0, 46, 64
5, 27840, Note_off_c, 0, 46, 64
5, 27840, Note_on_c, 0, 46, 64
5, 27960, Note_off_c, 0, 46, 64
5, 27960, Note_on_c, 0, 45, 64
5, 28080, Note_off_c, 0, 45, 64
5, 28200, Note_on_c, 0, 55, 64
5, 28320, Note_off_c, 0, 55, 64
5, 28320, Note_on_c, 0, 55, 64
5, 28440, Note_off_c, 0, 55, 64
5, 28440, Note_on_c, 0, 56, 64
5, 28560, Note_off_c, 0, 56, 64
5, 28680, Note_on_c, 0, 44, 64
5, 28800, Note_off_c, 0, 44, 64
5, 28800, Note_on_c, 0, 44, 64
5, 28920, Note_off_c, 0, 44, 64
5, 28920, Note_on_c, 0, 43, 64
5, 29040, Note_off_c, 0, 43, 64
5, 29160, Note_on_c, 0, 53, 64
5, 29280, Note_off_c, 0, 53, 64
5, 29280, Note_on_c, 0, 53, 64
5, 29400, Note_off_c, 0, 53, 64
5, 29400, Note_on_c, 0, 54, 64
5, 29520, Note_off_c, 0, 54, 64
5, 29640, Note_on_c, 0, 54, 64
5, 29760, Note_off_c, 0, 54, 64
5, 29760, Note_on_c, 0, 46, 64
5, 29880, Note_off_c, 0, 46, 64
5, 29880, Note_on_c, 0, 45, 64
5, 30000, Note_off_c, 0, 45, 64
5, 30000, Note_on_c, 0, 46, 64
5, 30240, Note_off_c, 0, 46, 64
5, 30240, Note_on_c, 0, 39, 64
5, 30480, Note_off_c, 0, 39, 64
5, 30480, Note_on_c, 0, 41, 64
5, 30720, Note_off_c, 0, 41, 64
5, 30720, Note_on_c, 0, 46, 64
5, 30960, Note_off_c, 0, 46, 64
5, 30960, Note_on_c, 0, 48, 64
5, 31200, Note_off_c, 0, 48, 64
5, 31200, Note_on_c, 0, 44, 64
5, 31440, Note_off_c, 0, 44, 64
5, 31440, Note_on_c, 0, 46, 64
5, 31680, Note_off_c, 0, 46, 64
5, 31680, Note_on_c, 0, 51, 64
5, 31920, Note_off_c, 0, 51, 64
5, 31920, Note_on_c, 0, 53, 64
5, 32160, Note_off_c, 0, 53, 64
5, 32160, Note_on_c, 0, 49, 64
5, 32400, Note_off_c, 0, 49, 64
5, 32400, Note_on_c, 0, 51, 64
5, 32640, Note_off_c, 0, 51, 64
5, 32640, Note_on_c, 0, 44, 64
5, 33120, Note_off_c, 0, 44, 64
5, 33600, Note_on_c, 0, 56, 64
5, 34080, Note_off_c, 0, 56, 64
5, 34320, Note_on_c, 0, 56, 64
5, 34560, Note_off_c, 0, 56, 64
5, 34560, Note_on_c, 0, 44, 64
5, 35040, Note_off_c, 0, 44, 64
5, 35520, Note_on_c, 0, 56, 64
5, 36000, Note_off_c, 0, 56, 64
5, 36240, Note_on_c, 0, 56, 64
5, 36480, Note_off_c, 0, 56, 64
5, 36480, Note_on_c, 0, 44, 64
5, 36720, Note_off_c, 0, 44, 64
5, 36720, Note_on_c, 0, 51, 64
5, 36960, Note_off_c, 0, 51, 64
5, 36960, Note_on_c, 0, 53, 64
5, 37200, Note_off_c, 0, 53, 64
5, 37200, Note_on_c, 0, 54, 64
5, 37680, Note_off_c, 0, 54, 64
5, 37680, Note_on_c, 0, 53, 64
5, 37800, Note_off_c, 0, 53, 64
5, 37800, Note_on_c, 0, 51, 64
5, 37920, Note_off_c, 0, 51, 64
5, 37920, Note_on_c, 0, 51, 64
5, 38040, Note_off_c, 0, 51, 64
5, 38040, Note_on_c, 0, 53, 64
5, 38160, Note_off_c, 0, 53, 64
5, 38160, Note_on_c, 0, 45, 64
5, 38400, Note_off_c, 0, 45, 64
5, 38400, Note_on_c, 0, 46, 64
5, 38640, Note_off_c, 0, 46, 64
5, 38640, Note_on_c, 0, 53, 64
5, 38880, Note_off_c, 0, 53, 64
5, 38880, Note_on_c, 0, 54, 64
5, 39120, Note_off_c, 0, 54, 64
5, 39120, Note_on_c, 0, 56, 64
5, 39600, Note_off_c, 0, 56, 64
5, 39600, Note_on_c, 0, 54, 64
5, 39720, Note_off_c, 0, 54, 64
5, 39720, Note_on_c, 0, 53, 64
5, 39840, Note_off_c, 0, 53, 64
5, 39840, Note_on_c, 0, 53, 64
5, 39960, Note_off_c, 0, 53, 64
5, 39960, Note_on_c, 0, 54, 64
5, 40080, Note_off_c, 0, 54, 64
5, 40080, Note_on_c, 0, 46, 64
5, 40320, Note_off_c, 0, 46, 64
5, 40320, Note_on_c, 0, 47, 64
5, 40560, Note_off_c, 0, 47, 64
5, 40560, Note_on_c, 0, 59, 64
5, 40800, Note_off_c, 0, 59, 64
5, 40800, Note_on_c, 0, 59, 64
5, 41040, Note_off_c, 0, 59, 64
5, 41040, Note_on_c, 0, 47, 64
5, 41280, Note_off_c, 0, 47, 64
5, 41280, Note_on_c, 0, 46, 64
5, 41520, Note_off_c, 0, 46, 64
5, 41520, Note_on_c, 0, 58, 64
5, 41760, Note_off_c, 0, 58, 64
5, 41760, Note_on_c, 0, 58, 64
5, 42000, Note_off_c, 0, 58, 64
5, 42000, Note_on_c, 0, 46, 64
5, 42240, Note_off_c, 0, 46, 64
5, 42240, Note_on_c, 0, 45, 64
5, 42480, Note_off_c, 0, 45, 64
5, 42480, Note_on_c, 0, 57, 64
5, 42720, Note_off_c, 0, 57, 64
5, 42720, Note_on_c, 0, 57, 64
5, 42960, Note_off_c, 0, 57, 64
5, 42960, Note_on_c, 0, 45, 64
5, 43200, Note_off_c, 0, 45, 64
5, 43200, Note_on_c, 0, 44, 64
5, 43440, Note_off_c, 0, 44, 64
5, 43440, Note_on_c, 0, 56, 64
5, 43680, Note_off_c, 0, 56, 64
5, 43680, Note_on_c, 0, 56, 64
5, 43920, Note_off_c, 0, 56, 64
5, 43920, Note_on_c, 0, 44, 64
5, 44160, Note_off_c, 0, 44, 64
5, 44160, Note_on_c, 0, 43, 64
5, 44400, Note_off_c, 0, 43, 64
5, 44400, Note_on_c, 0, 48, 64
5, 44640, Note_off_c, 0, 48, 64
5, 44640, Note_on_c, 0, 44, 64
5, 44880, Note_off_c, 0, 44, 64
5, 44880, Note_on_c, 0, 46, 64
5, 45120, Note_off_c, 0, 46, 64
5, 45120, Note_on_c, 0, 39, 64
5, 45360, Note_off_c, 0, 39, 64
5, 45360, Note_on_c, 0, 44, 64
5, 45600, Note_off_c, 0, 44, 64
5, 45600, Note_on_c, 0, 41, 64
5, 45840, Note_off_c, 0, 41, 64
5, 45840, Note_on_c, 0, 43, 64
5, 46080, Note_off_c, 0, 43, 64
5, 46080, Note_on_c, 0, 36, 64
5, 46320, Note_off_c, 0, 36, 64
5, 46320, Note_on_c, 0, 53, 64
5, 46560, Note_off_c, 0, 53, 64
5, 46560, Note_on_c, 0, 49, 64
5, 46800, Note_off_c, 0, 49, 64
5, 46800, Note_on_c, 0, 51, 64
5, 47040, Note_off_c, 0, 51, 64
5, 47040, Note_on_c, 0, 44, 64
5, 47280, Note_off_c, 0, 44, 64
5, 47280, Note_on_c, 0, 46, 64
5, 47520, Note_off_c, 0, 46, 64
5, 47520, Note_on_c, 0, 48, 64
5, 47760, Note_off_c, 0, 48, 64
5, 47760, Note_on_c, 0, 44, 64
5, 48000, Note_off_c, 0, 44, 64
5, 48000, Note_on_c, 0, 46, 64
5, 48240, Note_off_c, 0, 46, 64
5, 48360, Note_on_c, 0, 62, 64
5, 48480, Note_off_c, 0, 62, 64
5, 48480, Note_on_c, 0, 62, 64
5, 48600, Note_off_c, 0, 62, 64
5, 48600, Note_on_c, 0, 63, 64
5, 48720, Note_off_c, 0, 63, 64
5, 48840, Note_on_c, 0, 51, 64
5, 48960, Note_off_c, 0, 51, 64
5, 48960, Note_on_c, 0, 51, 64
5, 49080, Note_off_c, 0, 51, 64
5, 49080, Note_on_c, 0, 50, 64
5, 49200, Note_off_c, 0, 50, 64
5, 49320, Note_on_c, 0, 60, 64
5, 49440, Note_off_c, 0, 60, 64
5, 49440, Note_on_c, 0, 60, 64
5, 49560, Note_off_c, 0, 60, 64
5, 49560, Note_on_c, 0, 61, 64
5, 49680, Note_off_c, 0, 61, 64
5, 49800, Note_on_c, 0, 49, 64
5, 49920, Note_off_c, 0, 49, 64
5, 49920, Note_on_c, 0, 49, 64
5, 50040, Note_off_c, 0, 49, 64
5, 50040, Note_on_c, 0, 48, 64
5, 50160, Note_off_c, 0, 48, 64
5, 50280, Note_on_c, 0, 58, 64
5, 50400, Note_off_c, 0, 58, 64
5, 50400, Note_on_c, 0, 58, 64
5, 50520, Note_off_c, 0, 58, 64
5, 50520, Note_on_c, 0, 59, 64
5, 50640, Note_off_c, 0, 59, 64
5, 50760, Note_on_c, 0, 47, 64
5, 50880, Note_off_c, 0, 47, 64
5, 50880, Note_on_c, 0, 47, 64
5, 51000, Note_off_c, 0, 47, 64
5, 51000, Note_on_c, 0, 46, 64
5, 51120, Note_off_c, 0, 46, 64
5, 51240, Note_on_c, 0, 45, 64
5, 51360, Note_off_c, 0, 45, 64
5, 51360, Note_on_c, 0, 45, 64
5, 51480, Note_off_c, 0, 45, 64
5, 51480, Note_on_c, 0, 46, 64
5, 51600, Note_off_c, 0, 46, 64
5, 51720, Note_on_c, 0, 46, 64
5, 51840, Note_off_c, 0, 46, 64
5, 51840, Note_on_c, 0, 39, 64
5, 52320, Note_off_c, 0, 39, 64
5, 52800, Note_on_c, 0, 51, 64
5, 53280, Note_off_c, 0, 51, 64
5, 53520, Note_on_c, 0, 51, 64
5, 53760, Note_off_c, 0, 51, 64
5, 53760, Note_on_c, 0, 39, 64
5, 54240, Note_off_c, 0, 39, 64
5, 54720, Note_on_c, 0, 51, 64
5, 55200, Note_off_c, 0, 51, 64
5, 55440, Note_on_c, 0, 51, 64
5, 55680, Note_off_c, 0, 51, 64
5, 55680, Note_on_c, 0, 39, 64
5, 56160, Note_off_c, 0, 39, 64
5, 56160, End_track
0, 0, End_of_file
