0, 0, Header, 1, 7, 120
1, 0, Start_track
1, 0, Text_t, "\015\012\015\012Mass in B Minor          Johann Sebastion Bach\015\012No. 2   Christe eleison\015\012\015\012seq by David Siu  dss@po.cwru.edu\015\012\015\012\015\012"
1, 0, Time_signature, 4, 2, 24, 8
1, 0, Key_signature, 2, "major"
1, 0, Tempo, 625000
1, 480, Tempo, 857143
1, 40940, Tempo, 1200000
1, 41000, Tempo, 1333333
1, 41280, End_track
2, 0, Start_track
2, 0, MIDI_port, 0
2, 0, Title_t, "Grand Piano"
2, 0, Program_c, 0, 53
2, 41280, End_track
3, 0, Start_track
3, 0, MIDI_port, 0
3, 0, Title_t, "Soprano I"
3, 0, Program_c, 0, 53
3, 4800, Control_c, 0, 7, 70
3, 4800, Note_on_c, 0, 69, 64
3, 4805, Control_c, 0, 7, 71
3, 4811, Control_c, 0, 7, 72
3, 4817, Control_c, 0, 7, 73
3, 4823, Control_c, 0, 7, 74
3, 4829, Control_c, 0, 7, 75
3, 4835, Control_c, 0, 7, 76
3, 4840, Control_c, 0, 7, 77
3, 4846, Control_c, 0, 7, 78
3, 4852, Control_c, 0, 7, 79
3, 4858, Control_c, 0, 7, 80
3, 4864, Control_c, 0, 7, 81
3, 4869, Control_c, 0, 7, 82
3, 4875, Control_c, 0, 7, 83
3, 4881, Control_c, 0, 7, 84
3, 4887, Control_c, 0, 7, 85
3, 4893, Control_c, 0, 7, 86
3, 4899, Control_c, 0, 7, 87
3, 4905, Control_c, 0, 7, 88
3, 4910, Control_c, 0, 7, 89
3, 4916, Control_c, 0, 7, 90
3, 4922, Control_c, 0, 7, 91
3, 4928, Control_c, 0, 7, 92
3, 4934, Control_c, 0, 7, 93
3, 4940, Control_c, 0, 7, 94
3, 4945, Control_c, 0, 7, 95
3, 4951, Control_c, 0, 7, 96
3, 4957, Control_c, 0, 7, 97
3, 4963, Control_c, 0, 7, 98
3, 4969, Control_c, 0, 7, 99
3, 4975, Control_c, 0, 7, 100
3, 4980, Control_c, 0, 7, 101
3, 4986, Control_c, 0, 7, 102
3, 4992, Control_c, 0, 7, 103
3, 4998, Control_c, 0, 7, 104
3, 5004, Control_c, 0, 7, 105
3, 5010, Control_c, 0, 7, 106
3, 5015, Control_c, 0, 7, 107
3, 5021, Control_c, 0, 7, 108
3, 5027, Control_c, 0, 7, 109
3, 5033, Control_c, 0, 7, 110
3, 5039, Control_c, 0, 7, 111
3, 5045, Control_c, 0, 7, 112
3, 5050, Control_c, 0, 7, 113
3, 5056, Control_c, 0, 7, 114
3, 5062, Control_c, 0, 7, 115
3, 5068, Control_c, 0, 7, 116
3, 5074, Control_c, 0, 7, 117
3, 5080, Control_c, 0, 7, 118
3, 5085, Control_c, 0, 7, 119
3, 5091, Control_c, 0, 7, 120
3, 5097, Control_c, 0, 7, 121
3, 5103, Control_c, 0, 7, 122
3, 5109, Control_c, 0, 7, 123
3, 5115, Control_c, 0, 7, 124
3, 5120, Control_c, 0, 7, 125
3, 5126, Control_c, 0, 7, 126
3, 5132, Control_c, 0, 7, 127
3, 5160, Note_on_c, 0, 69, 0
3, 5160, Note_on_c, 0, 72, 64
3, 5190, Note_on_c, 0, 72, 0
3, 5190, Note_on_c, 0, 71, 64
3, 5220, Note_on_c, 0, 71, 0
3, 5220, Note_on_c, 0, 72, 64
3, 5280, Note_on_c, 0, 72, 0
3, 5280, Note_on_c, 0, 72, 64
3, 5340, Note_on_c, 0, 72, 0
3, 5340, Note_on_c, 0, 71, 64
3, 5400, Note_on_c, 0, 71, 0
3, 5460, Note_on_c, 0, 71, 64
3, 5520, Note_on_c, 0, 71, 0
3, 5520, Note_on_c, 0, 64, 64
3, 5580, Note_on_c, 0, 64, 0
3, 5580, Note_on_c, 0, 67, 64
3, 5610, Note_on_c, 0, 67, 0
3, 5610, Note_on_c, 0, 66, 64
3, 5640, Note_on_c, 0, 66, 0
3, 5640, Note_on_c, 0, 67, 64
3, 5700, Note_on_c, 0, 67, 0
3, 5700, Note_on_c, 0, 71, 64
3, 5720, Note_on_c, 0, 71, 0
3, 5720, Note_on_c, 0, 69, 64
3, 5739, Note_on_c, 0, 69, 0
3, 5739, Note_on_c, 0, 67, 64
3, 5760, Note_on_c, 0, 67, 0
3, 5760, Note_on_c, 0, 67, 64
3, 5820, Note_on_c, 0, 67, 0
3, 5820, Note_on_c, 0, 66, 64
3, 5880, Note_on_c, 0, 66, 0
3, 5880, Note_on_c, 0, 66, 64
3, 5940, Note_on_c, 0, 66, 0
3, 5940, Note_on_c, 0, 67, 64
3, 6000, Note_on_c, 0, 67, 0
3, 6000, Note_on_c, 0, 69, 64
3, 6030, Note_on_c, 0, 69, 0
3, 6030, Note_on_c, 0, 71, 64
3, 6060, Note_on_c, 0, 71, 0
3, 6060, Note_on_c, 0, 72, 64
3, 6180, Note_on_c, 0, 72, 0
3, 6180, Note_on_c, 0, 71, 64
3, 6210, Note_on_c, 0, 71, 0
3, 6210, Note_on_c, 0, 69, 64
3, 6240, Note_on_c, 0, 69, 0
3, 6240, Note_on_c, 0, 71, 64
3, 6300, Note_on_c, 0, 71, 0
3, 6300, Note_on_c, 0, 73, 64
3, 6330, Note_on_c, 0, 73, 0
3, 6330, Note_on_c, 0, 74, 64
3, 6360, Note_on_c, 0, 74, 0
3, 6360, Note_on_c, 0, 76, 64
3, 6540, Note_on_c, 0, 76, 0
3, 6540, Note_on_c, 0, 73, 64
3, 6600, Note_on_c, 0, 73, 0
3, 6600, Note_on_c, 0, 74, 64
3, 6660, Note_on_c, 0, 74, 0
3, 6840, Note_on_c, 0, 78, 64
3, 7020, Note_on_c, 0, 78, 0
3, 7020, Note_on_c, 0, 76, 64
3, 7050, Note_on_c, 0, 76, 0
3, 7050, Note_on_c, 0, 74, 64
3, 7080, Note_on_c, 0, 74, 0
3, 7080, Note_on_c, 0, 76, 64
3, 7110, Note_on_c, 0, 76, 0
3, 7110, Note_on_c, 0, 74, 64
3, 7140, Note_on_c, 0, 74, 0
3, 7140, Note_on_c, 0, 73, 64
3, 7170, Note_on_c, 0, 73, 0
3, 7170, Note_on_c, 0, 71, 64
3, 7200, Note_on_c, 0, 71, 0
3, 7200, Note_on_c, 0, 76, 64
3, 7500, Note_on_c, 0, 76, 0
3, 7500, Note_on_c, 0, 69, 64
3, 7560, Note_on_c, 0, 69, 0
3, 7560, Note_on_c, 0, 71, 64
3, 7620, Note_on_c, 0, 71, 0
3, 7620, Note_on_c, 0, 73, 64
3, 7680, Note_on_c, 0, 73, 0
3, 7680, Note_on_c, 0, 74, 64
3, 7980, Note_on_c, 0, 74, 0
3, 7980, Note_on_c, 0, 71, 64
3, 8040, Note_on_c, 0, 71, 0
3, 8040, Note_on_c, 0, 68, 64
3, 8100, Note_on_c, 0, 68, 0
3, 8100, Note_on_c, 0, 74, 64
3, 8160, Note_on_c, 0, 74, 0
3, 8160, Note_on_c, 0, 73, 64
3, 8190, Note_on_c, 0, 73, 0
3, 8190, Note_on_c, 0, 71, 64
3, 8220, Note_on_c, 0, 71, 0
3, 8220, Note_on_c, 0, 69, 64
3, 8250, Note_on_c, 0, 69, 0
3, 8250, Note_on_c, 0, 68, 64
3, 8280, Note_on_c, 0, 68, 0
3, 8280, Note_on_c, 0, 69, 64
3, 8310, Note_on_c, 0, 69, 0
3, 8310, Note_on_c, 0, 71, 64
3, 8340, Note_on_c, 0, 71, 0
3, 8340, Note_on_c, 0, 72, 64
3, 8460, Note_on_c, 0, 72, 0
3, 8460, Note_on_c, 0, 71, 64
3, 8490, Note_on_c, 0, 71, 0
3, 8490, Note_on_c, 0, 72, 64
3, 8520, Note_on_c, 0, 72, 0
3, 8520, Note_on_c, 0, 74, 64
3, 8580, Note_on_c, 0, 74, 0
3, 8580, Note_on_c, 0, 71, 64
3, 8640, Note_on_c, 0, 71, 0
3, 8640, Note_on_c, 0, 69, 64
3, 8700, Note_on_c, 0, 69, 0
3, 8700, Note_on_c, 0, 68, 64
3, 8760, Note_on_c, 0, 68, 0
3, 8760, Note_on_c, 0, 68, 64
3, 8820, Note_on_c, 0, 68, 0
3, 8876, Control_c, 0, 7, 70
3, 8876, Control_c, 0, 7, 78
3, 8880, Note_on_c, 0, 73, 64
3, 8882, Control_c, 0, 7, 79
3, 8889, Control_c, 0, 7, 80
3, 8895, Control_c, 0, 7, 81
3, 8901, Control_c, 0, 7, 82
3, 8907, Control_c, 0, 7, 83
3, 8913, Control_c, 0, 7, 84
3, 8919, Control_c, 0, 7, 85
3, 8925, Control_c, 0, 7, 86
3, 8931, Control_c, 0, 7, 87
3, 8937, Control_c, 0, 7, 88
3, 8943, Control_c, 0, 7, 89
3, 8950, Control_c, 0, 7, 90
3, 8956, Control_c, 0, 7, 91
3, 8962, Control_c, 0, 7, 92
3, 8968, Control_c, 0, 7, 93
3, 8974, Control_c, 0, 7, 94
3, 8980, Control_c, 0, 7, 95
3, 8986, Control_c, 0, 7, 96
3, 8992, Control_c, 0, 7, 97
3, 8998, Control_c, 0, 7, 98
3, 9005, Control_c, 0, 7, 99
3, 9011, Control_c, 0, 7, 100
3, 9017, Control_c, 0, 7, 101
3, 9023, Control_c, 0, 7, 102
3, 9029, Control_c, 0, 7, 103
3, 9035, Control_c, 0, 7, 104
3, 9041, Control_c, 0, 7, 105
3, 9047, Control_c, 0, 7, 106
3, 9053, Control_c, 0, 7, 107
3, 9060, Control_c, 0, 7, 108
3, 9066, Control_c, 0, 7, 109
3, 9072, Control_c, 0, 7, 110
3, 9078, Control_c, 0, 7, 111
3, 9084, Control_c, 0, 7, 112
3, 9090, Control_c, 0, 7, 113
3, 9096, Control_c, 0, 7, 114
3, 9102, Control_c, 0, 7, 115
3, 9108, Control_c, 0, 7, 116
3, 9114, Control_c, 0, 7, 117
3, 9121, Control_c, 0, 7, 118
3, 9127, Control_c, 0, 7, 119
3, 9133, Control_c, 0, 7, 120
3, 9139, Control_c, 0, 7, 121
3, 9145, Control_c, 0, 7, 122
3, 9151, Control_c, 0, 7, 123
3, 9157, Control_c, 0, 7, 124
3, 9163, Control_c, 0, 7, 125
3, 9169, Control_c, 0, 7, 126
3, 9176, Control_c, 0, 7, 127
3, 9240, Note_on_c, 0, 73, 0
3, 9240, Note_on_c, 0, 76, 64
3, 9270, Note_on_c, 0, 76, 0
3, 9270, Note_on_c, 0, 74, 64
3, 9300, Note_on_c, 0, 74, 0
3, 9300, Note_on_c, 0, 76, 64
3, 9360, Note_on_c, 0, 76, 0
3, 9360, Note_on_c, 0, 76, 64
3, 9420, Note_on_c, 0, 76, 0
3, 9420, Note_on_c, 0, 74, 64
3, 9480, Note_on_c, 0, 74, 0
3, 9540, Note_on_c, 0, 74, 64
3, 9600, Note_on_c, 0, 74, 0
3, 9600, Note_on_c, 0, 68, 64
3, 9660, Note_on_c, 0, 68, 0
3, 9660, Note_on_c, 0, 71, 64
3, 9690, Note_on_c, 0, 71, 0
3, 9690, Note_on_c, 0, 69, 64
3, 9720, Note_on_c, 0, 69, 0
3, 9720, Note_on_c, 0, 71, 64
3, 9780, Note_on_c, 0, 71, 0
3, 9780, Note_on_c, 0, 74, 64
3, 9800, Note_on_c, 0, 74, 0
3, 9800, Note_on_c, 0, 73, 64
3, 9819, Note_on_c, 0, 73, 0
3, 9819, Note_on_c, 0, 71, 64
3, 9840, Note_on_c, 0, 71, 0
3, 9840, Note_on_c, 0, 71, 64
3, 9900, Note_on_c, 0, 71, 0
3, 9900, Note_on_c, 0, 69, 64
3, 9960, Note_on_c, 0, 69, 0
3, 9960, Note_on_c, 0, 69, 64
3, 10020, Note_on_c, 0, 69, 0
3, 10020, Note_on_c, 0, 71, 64
3, 10080, Note_on_c, 0, 71, 0
3, 10080, Note_on_c, 0, 73, 64
3, 10110, Note_on_c, 0, 73, 0
3, 10110, Note_on_c, 0, 74, 64
3, 10140, Note_on_c, 0, 74, 0
3, 10140, Note_on_c, 0, 76, 64
3, 10260, Note_on_c, 0, 76, 0
3, 10260, Note_on_c, 0, 74, 64
3, 10290, Note_on_c, 0, 74, 0
3, 10290, Note_on_c, 0, 73, 64
3, 10320, Note_on_c, 0, 73, 0
3, 10320, Note_on_c, 0, 74, 64
3, 10350, Note_on_c, 0, 74, 0
3, 10350, Note_on_c, 0, 73, 64
3, 10380, Note_on_c, 0, 73, 0
3, 10380, Note_on_c, 0, 71, 64
3, 10410, Note_on_c, 0, 71, 0
3, 10410, Note_on_c, 0, 73, 64
3, 10440, Note_on_c, 0, 73, 0
3, 10440, Note_on_c, 0, 74, 64
3, 10470, Note_on_c, 0, 74, 0
3, 10470, Note_on_c, 0, 76, 64
3, 10500, Note_on_c, 0, 76, 0
3, 10500, Note_on_c, 0, 77, 64
3, 10620, Note_on_c, 0, 77, 0
3, 10620, Note_on_c, 0, 76, 64
3, 10680, Note_on_c, 0, 76, 0
3, 10680, Note_on_c, 0, 74, 64
3, 10740, Note_on_c, 0, 74, 0
3, 10740, Note_on_c, 0, 73, 64
3, 10800, Note_on_c, 0, 73, 0
3, 11160, Note_on_c, 0, 78, 64
3, 11340, Note_on_c, 0, 78, 0
3, 11340, Note_on_c, 0, 76, 64
3, 11370, Note_on_c, 0, 76, 0
3, 11370, Note_on_c, 0, 75, 64
3, 11400, Note_on_c, 0, 75, 0
3, 11400, Note_on_c, 0, 76, 64
3, 11430, Note_on_c, 0, 76, 0
3, 11430, Note_on_c, 0, 75, 64
3, 11460, Note_on_c, 0, 75, 0
3, 11460, Note_on_c, 0, 73, 64
3, 11490, Note_on_c, 0, 73, 0
3, 11490, Note_on_c, 0, 71, 64
3, 11520, Note_on_c, 0, 71, 0
3, 11520, Note_on_c, 0, 76, 64
3, 11820, Note_on_c, 0, 76, 0
3, 11820, Note_on_c, 0, 75, 64
3, 11880, Note_on_c, 0, 75, 0
3, 11880, Note_on_c, 0, 76, 64
3, 11940, Note_on_c, 0, 76, 0
3, 11940, Note_on_c, 0, 78, 64
3, 12000, Note_on_c, 0, 78, 0
3, 12000, Note_on_c, 0, 71, 64
3, 12300, Note_on_c, 0, 71, 0
3, 12300, Note_on_c, 0, 68, 64
3, 12360, Note_on_c, 0, 68, 0
3, 12360, Note_on_c, 0, 64, 64
3, 12420, Note_on_c, 0, 64, 0
3, 12420, Note_on_c, 0, 71, 64
3, 12480, Note_on_c, 0, 71, 0
3, 12480, Note_on_c, 0, 69, 64
3, 12540, Note_on_c, 0, 69, 0
3, 12540, Note_on_c, 0, 71, 64
3, 12600, Note_on_c, 0, 71, 0
3, 12600, Note_on_c, 0, 72, 64
3, 12780, Note_on_c, 0, 72, 0
3, 12780, Note_on_c, 0, 71, 64
3, 12840, Note_on_c, 0, 71, 0
3, 12840, Note_on_c, 0, 71, 64
3, 12900, Note_on_c, 0, 71, 0
3, 13190, Control_c, 0, 7, 80
3, 13193, Control_c, 0, 7, 87
3, 13200, Note_on_c, 0, 74, 64
3, 13201, Control_c, 0, 7, 88
3, 13208, Control_c, 0, 7, 89
3, 13216, Control_c, 0, 7, 90
3, 13224, Control_c, 0, 7, 91
3, 13231, Control_c, 0, 7, 92
3, 13239, Control_c, 0, 7, 93
3, 13247, Control_c, 0, 7, 94
3, 13254, Control_c, 0, 7, 95
3, 13262, Control_c, 0, 7, 96
3, 13270, Control_c, 0, 7, 97
3, 13277, Control_c, 0, 7, 98
3, 13285, Control_c, 0, 7, 99
3, 13293, Control_c, 0, 7, 100
3, 13300, Control_c, 0, 7, 101
3, 13308, Control_c, 0, 7, 102
3, 13316, Control_c, 0, 7, 103
3, 13323, Control_c, 0, 7, 104
3, 13331, Control_c, 0, 7, 105
3, 13339, Control_c, 0, 7, 106
3, 13346, Control_c, 0, 7, 107
3, 13354, Control_c, 0, 7, 108
3, 13362, Control_c, 0, 7, 109
3, 13369, Control_c, 0, 7, 110
3, 13377, Control_c, 0, 7, 111
3, 13385, Control_c, 0, 7, 112
3, 13392, Control_c, 0, 7, 113
3, 13400, Control_c, 0, 7, 114
3, 13408, Control_c, 0, 7, 115
3, 13415, Control_c, 0, 7, 116
3, 13423, Control_c, 0, 7, 117
3, 13431, Control_c, 0, 7, 118
3, 13438, Control_c, 0, 7, 119
3, 13446, Control_c, 0, 7, 120
3, 13454, Control_c, 0, 7, 121
3, 13461, Control_c, 0, 7, 122
3, 13469, Control_c, 0, 7, 123
3, 13477, Control_c, 0, 7, 124
3, 13484, Control_c, 0, 7, 125
3, 13492, Control_c, 0, 7, 126
3, 13500, Control_c, 0, 7, 127
3, 13560, Note_on_c, 0, 74, 0
3, 13560, Note_on_c, 0, 73, 64
3, 13590, Note_on_c, 0, 73, 0
3, 13590, Note_on_c, 0, 74, 64
3, 13620, Note_on_c, 0, 74, 0
3, 13620, Note_on_c, 0, 71, 64
3, 13680, Note_on_c, 0, 71, 0
3, 13680, Note_on_c, 0, 73, 64
3, 13740, Note_on_c, 0, 73, 0
3, 13740, Note_on_c, 0, 71, 64
3, 13770, Note_on_c, 0, 71, 0
3, 13770, Note_on_c, 0, 69, 64
3, 13800, Note_on_c, 0, 69, 0
3, 13800, Note_on_c, 0, 76, 64
3, 13980, Note_on_c, 0, 76, 0
3, 13980, Note_on_c, 0, 76, 64
3, 14040, Note_on_c, 0, 76, 0
3, 14040, Note_on_c, 0, 74, 64
3, 14070, Note_on_c, 0, 74, 0
3, 14070, Note_on_c, 0, 76, 64
3, 14100, Note_on_c, 0, 76, 0
3, 14100, Note_on_c, 0, 73, 64
3, 14160, Note_on_c, 0, 73, 0
3, 14160, Note_on_c, 0, 74, 64
3, 14310, Note_on_c, 0, 74, 0
3, 14310, Note_on_c, 0, 71, 64
3, 14340, Note_on_c, 0, 71, 0
3, 14340, Note_on_c, 0, 73, 64
3, 14430, Note_on_c, 0, 73, 0
3, 14430, Note_on_c, 0, 74, 64
3, 14460, Note_on_c, 0, 74, 0
3, 14460, Note_on_c, 0, 71, 64
3, 14550, Note_on_c, 0, 71, 0
3, 14550, Note_on_c, 0, 68, 64
3, 14580, Note_on_c, 0, 68, 0
3, 14580, Note_on_c, 0, 69, 64
3, 14700, Note_on_c, 0, 69, 0
3, 14700, Note_on_c, 0, 75, 64
3, 14730, Note_on_c, 0, 75, 0
3, 14730, Note_on_c, 0, 76, 64
3, 14760, Note_on_c, 0, 76, 0
3, 14760, Note_on_c, 0, 78, 64
3, 14820, Note_on_c, 0, 78, 0
3, 14820, Note_on_c, 0, 76, 64
3, 14850, Note_on_c, 0, 76, 0
3, 14850, Note_on_c, 0, 75, 64
3, 14880, Note_on_c, 0, 75, 0
3, 14880, Control_c, 0, 7, 90
3, 14880, Note_on_c, 0, 76, 64
3, 14893, Control_c, 0, 7, 91
3, 14905, Control_c, 0, 7, 92
3, 14918, Control_c, 0, 7, 93
3, 14931, Control_c, 0, 7, 94
3, 14940, Note_on_c, 0, 76, 0
3, 14940, Note_on_c, 0, 74, 64
3, 14944, Control_c, 0, 7, 95
3, 14957, Control_c, 0, 7, 96
3, 14970, Control_c, 0, 7, 97
3, 14983, Control_c, 0, 7, 98
3, 14996, Control_c, 0, 7, 99
3, 15000, Note_on_c, 0, 74, 0
3, 15000, Note_on_c, 0, 73, 64
3, 15009, Control_c, 0, 7, 100
3, 15022, Control_c, 0, 7, 101
3, 15035, Control_c, 0, 7, 102
3, 15048, Control_c, 0, 7, 103
3, 15060, Note_on_c, 0, 73, 0
3, 15060, Note_on_c, 0, 78, 64
3, 15061, Control_c, 0, 7, 104
3, 15074, Control_c, 0, 7, 105
3, 15087, Control_c, 0, 7, 106
3, 15100, Control_c, 0, 7, 107
3, 15113, Control_c, 0, 7, 108
3, 15120, Note_on_c, 0, 78, 0
3, 15120, Note_on_c, 0, 71, 64
3, 15126, Control_c, 0, 7, 109
3, 15139, Control_c, 0, 7, 110
3, 15152, Control_c, 0, 7, 111
3, 15165, Control_c, 0, 7, 112
3, 15178, Control_c, 0, 7, 113
3, 15191, Control_c, 0, 7, 114
3, 15204, Control_c, 0, 7, 115
3, 15217, Control_c, 0, 7, 116
3, 15230, Control_c, 0, 7, 117
3, 15243, Control_c, 0, 7, 118
3, 15256, Control_c, 0, 7, 119
3, 15269, Control_c, 0, 7, 120
3, 15282, Control_c, 0, 7, 121
3, 15295, Control_c, 0, 7, 122
3, 15308, Control_c, 0, 7, 123
3, 15321, Control_c, 0, 7, 124
3, 15334, Control_c, 0, 7, 125
3, 15346, Control_c, 0, 7, 126
3, 15420, Note_on_c, 0, 71, 0
3, 15420, Note_on_c, 0, 69, 64
3, 15450, Note_on_c, 0, 69, 0
3, 15450, Note_on_c, 0, 68, 64
3, 15480, Note_on_c, 0, 68, 0
3, 15480, Note_on_c, 0, 69, 64
3, 15540, Note_on_c, 0, 69, 0
3, 15540, Note_on_c, 0, 71, 64
3, 15600, Note_on_c, 0, 71, 0
3, 15600, Note_on_c, 0, 64, 64
3, 15660, Note_on_c, 0, 64, 0
3, 15660, Note_on_c, 0, 69, 64
3, 15780, Note_on_c, 0, 69, 0
3, 15780, Note_on_c, 0, 68, 64
3, 15840, Note_on_c, 0, 68, 0
3, 15840, Control_c, 0, 7, 127
3, 15840, Note_on_c, 0, 69, 64
3, 15960, Note_on_c, 0, 69, 0
3, 20160, Control_c, 0, 7, 70
3, 20160, Note_on_c, 0, 73, 64
3, 20166, Control_c, 0, 7, 71
3, 20172, Control_c, 0, 7, 72
3, 20178, Control_c, 0, 7, 73
3, 20184, Control_c, 0, 7, 74
3, 20190, Control_c, 0, 7, 75
3, 20196, Control_c, 0, 7, 76
3, 20202, Control_c, 0, 7, 77
3, 20208, Control_c, 0, 7, 78
3, 20214, Control_c, 0, 7, 79
3, 20220, Control_c, 0, 7, 80
3, 20226, Control_c, 0, 7, 81
3, 20232, Control_c, 0, 7, 82
3, 20238, Control_c, 0, 7, 83
3, 20244, Control_c, 0, 7, 84
3, 20250, Control_c, 0, 7, 85
3, 20256, Control_c, 0, 7, 86
3, 20263, Control_c, 0, 7, 87
3, 20268, Control_c, 0, 7, 88
3, 20275, Control_c, 0, 7, 89
3, 20281, Control_c, 0, 7, 90
3, 20287, Control_c, 0, 7, 91
3, 20293, Control_c, 0, 7, 92
3, 20299, Control_c, 0, 7, 93
3, 20305, Control_c, 0, 7, 94
3, 20311, Control_c, 0, 7, 95
3, 20317, Control_c, 0, 7, 96
3, 20323, Control_c, 0, 7, 97
3, 20329, Control_c, 0, 7, 98
3, 20335, Control_c, 0, 7, 99
3, 20341, Control_c, 0, 7, 100
3, 20347, Control_c, 0, 7, 101
3, 20353, Control_c, 0, 7, 102
3, 20359, Control_c, 0, 7, 103
3, 20365, Control_c, 0, 7, 104
3, 20371, Control_c, 0, 7, 105
3, 20378, Control_c, 0, 7, 106
3, 20384, Control_c, 0, 7, 107
3, 20390, Control_c, 0, 7, 108
3, 20396, Control_c, 0, 7, 109
3, 20402, Control_c, 0, 7, 110
3, 20408, Control_c, 0, 7, 111
3, 20414, Control_c, 0, 7, 112
3, 20420, Control_c, 0, 7, 113
3, 20426, Control_c, 0, 7, 114
3, 20432, Control_c, 0, 7, 115
3, 20438, Control_c, 0, 7, 116
3, 20444, Control_c, 0, 7, 117
3, 20450, Control_c, 0, 7, 118
3, 20456, Control_c, 0, 7, 119
3, 20462, Control_c, 0, 7, 120
3, 20468, Control_c, 0, 7, 121
3, 20475, Control_c, 0, 7, 122
3, 20480, Control_c, 0, 7, 123
3, 20487, Control_c, 0, 7, 124
3, 20493, Control_c, 0, 7, 125
3, 20499, Control_c, 0, 7, 126
3, 20505, Control_c, 0, 7, 127
3, 20520, Note_on_c, 0, 73, 0
3, 20520, Note_on_c, 0, 75, 64
3, 20550, Note_on_c, 0, 75, 0
3, 20550, Note_on_c, 0, 73, 64
3, 20580, Note_on_c, 0, 73, 0
3, 20580, Note_on_c, 0, 75, 64
3, 20640, Note_on_c, 0, 75, 0
3, 20640, Note_on_c, 0, 76, 64
3, 20760, Note_on_c, 0, 76, 0
3, 20820, Note_on_c, 0, 74, 64
3, 20880, Note_on_c, 0, 74, 0
3, 20880, Note_on_c, 0, 73, 64
3, 20940, Note_on_c, 0, 73, 0
3, 20940, Note_on_c, 0, 71, 64
3, 20970, Note_on_c, 0, 71, 0
3, 20970, Note_on_c, 0, 70, 64
3, 21000, Note_on_c, 0, 70, 0
3, 21000, Note_on_c, 0, 71, 64
3, 21090, Note_on_c, 0, 71, 0
3, 21090, Note_on_c, 0, 73, 64
3, 21120, Note_on_c, 0, 73, 0
3, 21120, Note_on_c, 0, 70, 64
3, 21180, Note_on_c, 0, 70, 0
3, 21180, Note_on_c, 0, 73, 64
3, 21210, Note_on_c, 0, 73, 0
3, 21210, Note_on_c, 0, 71, 64
3, 21240, Note_on_c, 0, 71, 0
3, 21240, Note_on_c, 0, 73, 64
3, 21390, Note_on_c, 0, 73, 0
3, 21390, Note_on_c, 0, 71, 64
3, 21420, Note_on_c, 0, 71, 0
3, 21420, Note_on_c, 0, 73, 64
3, 21450, Note_on_c, 0, 73, 0
3, 21450, Note_on_c, 0, 74, 64
3, 21480, Note_on_c, 0, 74, 0
3, 21480, Note_on_c, 0, 76, 64
3, 21660, Note_on_c, 0, 76, 0
3, 21660, Note_on_c, 0, 74, 64
3, 21690, Note_on_c, 0, 74, 0
3, 21690, Note_on_c, 0, 73, 64
3, 21720, Note_on_c, 0, 73, 0
3, 21720, Note_on_c, 0, 75, 64
3, 21870, Note_on_c, 0, 75, 0
3, 21870, Note_on_c, 0, 73, 64
3, 21900, Note_on_c, 0, 73, 0
3, 21900, Note_on_c, 0, 75, 64
3, 21930, Note_on_c, 0, 75, 0
3, 21930, Note_on_c, 0, 76, 64
3, 21960, Note_on_c, 0, 76, 0
3, 21960, Note_on_c, 0, 78, 64
3, 22140, Note_on_c, 0, 78, 0
3, 22140, Note_on_c, 0, 76, 64
3, 22200, Note_on_c, 0, 76, 0
3, 22200, Note_on_c, 0, 76, 64
3, 22260, Note_on_c, 0, 76, 0
3, 22440, Note_on_c, 0, 76, 64
3, 22620, Note_on_c, 0, 76, 0
3, 22620, Note_on_c, 0, 74, 64
3, 22650, Note_on_c, 0, 74, 0
3, 22650, Note_on_c, 0, 72, 64
3, 22680, Note_on_c, 0, 72, 0
3, 22680, Note_on_c, 0, 74, 64
3, 22710, Note_on_c, 0, 74, 0
3, 22710, Note_on_c, 0, 72, 64
3, 22740, Note_on_c, 0, 72, 0
3, 22740, Note_on_c, 0, 71, 64
3, 22770, Note_on_c, 0, 71, 0
3, 22770, Note_on_c, 0, 69, 64
3, 22800, Note_on_c, 0, 69, 0
3, 22800, Note_on_c, 0, 74, 64
3, 23100, Note_on_c, 0, 74, 0
3, 23100, Note_on_c, 0, 67, 64
3, 23160, Note_on_c, 0, 67, 0
3, 23160, Note_on_c, 0, 69, 64
3, 23220, Note_on_c, 0, 69, 0
3, 23220, Note_on_c, 0, 71, 64
3, 23280, Note_on_c, 0, 71, 0
3, 23280, Note_on_c, 0, 72, 64
3, 23580, Note_on_c, 0, 72, 0
3, 23580, Note_on_c, 0, 71, 64
3, 23640, Note_on_c, 0, 71, 0
3, 23640, Note_on_c, 0, 71, 64
3, 23700, Note_on_c, 0, 71, 0
3, 23700, Note_on_c, 0, 69, 64
3, 23760, Note_on_c, 0, 69, 0
3, 23760, Note_on_c, 0, 67, 64
3, 24060, Note_on_c, 0, 67, 0
3, 24060, Note_on_c, 0, 66, 64
3, 24120, Note_on_c, 0, 66, 0
3, 24120, Note_on_c, 0, 66, 64
3, 24180, Note_on_c, 0, 66, 0
3, 24180, Note_on_c, 0, 73, 64
3, 24240, Note_on_c, 0, 73, 0
3, 24240, Note_on_c, 0, 74, 64
3, 24300, Note_on_c, 0, 74, 0
3, 24300, Note_on_c, 0, 73, 64
3, 24360, Note_on_c, 0, 73, 0
3, 24360, Note_on_c, 0, 74, 64
3, 24420, Note_on_c, 0, 74, 0
3, 24420, Note_on_c, 0, 73, 64
3, 24480, Note_on_c, 0, 73, 0
3, 24480, Note_on_c, 0, 74, 64
3, 24600, Note_on_c, 0, 74, 0
3, 24660, Note_on_c, 0, 75, 64
3, 24720, Note_on_c, 0, 75, 0
3, 24720, Note_on_c, 0, 76, 64
3, 24780, Note_on_c, 0, 76, 0
3, 24780, Note_on_c, 0, 75, 64
3, 24840, Note_on_c, 0, 75, 0
3, 24840, Note_on_c, 0, 76, 64
3, 24900, Note_on_c, 0, 76, 0
3, 24900, Note_on_c, 0, 75, 64
3, 24960, Note_on_c, 0, 75, 0
3, 24960, Note_on_c, 0, 76, 64
3, 25020, Note_on_c, 0, 76, 0
3, 25020, Note_on_c, 0, 73, 64
3, 25080, Note_on_c, 0, 73, 0
3, 25080, Note_on_c, 0, 74, 64
3, 25140, Note_on_c, 0, 74, 0
3, 25140, Note_on_c, 0, 70, 64
3, 25200, Note_on_c, 0, 70, 0
3, 25200, Note_on_c, 0, 71, 64
3, 25290, Note_on_c, 0, 71, 0
3, 25290, Note_on_c, 0, 73, 64
3, 25320, Note_on_c, 0, 73, 0
3, 25320, Note_on_c, 0, 70, 64
3, 25440, Note_on_c, 0, 70, 0
3, 25440, Control_c, 0, 7, 127
3, 25440, Note_on_c, 0, 71, 64
3, 25560, Note_on_c, 0, 71, 0
3, 28620, Note_on_c, 0, 76, 64
3, 28680, Note_on_c, 0, 76, 0
3, 28680, Note_on_c, 0, 71, 64
3, 28740, Note_on_c, 0, 71, 0
3, 28740, Note_on_c, 0, 73, 64
3, 28800, Note_on_c, 0, 73, 0
3, 28800, Note_on_c, 0, 74, 64
3, 28860, Note_on_c, 0, 74, 0
3, 28860, Note_on_c, 0, 76, 64
3, 28920, Note_on_c, 0, 76, 0
3, 28920, Note_on_c, 0, 78, 64
3, 29100, Note_on_c, 0, 78, 0
3, 29100, Note_on_c, 0, 71, 64
3, 29160, Note_on_c, 0, 71, 0
3, 29160, Note_on_c, 0, 76, 64
3, 29190, Note_on_c, 0, 76, 0
3, 29190, Note_on_c, 0, 78, 64
3, 29205, Note_on_c, 0, 78, 0
3, 29205, Note_on_c, 0, 79, 64
3, 29220, Note_on_c, 0, 79, 0
3, 29220, Note_on_c, 0, 78, 64
3, 29250, Note_on_c, 0, 78, 0
3, 29250, Note_on_c, 0, 76, 64
3, 29280, Note_on_c, 0, 76, 0
3, 29280, Note_on_c, 0, 73, 64
3, 29310, Note_on_c, 0, 73, 0
3, 29310, Note_on_c, 0, 71, 64
3, 29340, Note_on_c, 0, 71, 0
3, 29340, Note_on_c, 0, 73, 64
3, 29370, Note_on_c, 0, 73, 0
3, 29370, Note_on_c, 0, 71, 64
3, 29400, Note_on_c, 0, 71, 0
3, 29400, Note_on_c, 0, 69, 64
3, 29460, Note_on_c, 0, 69, 0
3, 29460, Note_on_c, 0, 73, 64
3, 29520, Note_on_c, 0, 73, 0
3, 29520, Note_on_c, 0, 74, 64
3, 29580, Note_on_c, 0, 74, 0
3, 29580, Note_on_c, 0, 76, 64
3, 29640, Note_on_c, 0, 76, 0
3, 29640, Note_on_c, 0, 78, 64
3, 29700, Note_on_c, 0, 78, 0
3, 29700, Note_on_c, 0, 74, 64
3, 29760, Note_on_c, 0, 74, 0
3, 29760, Note_on_c, 0, 71, 64
3, 29820, Note_on_c, 0, 71, 0
3, 29820, Note_on_c, 0, 71, 64
3, 29880, Note_on_c, 0, 71, 0
3, 29880, Note_on_c, 0, 76, 64
3, 30060, Note_on_c, 0, 76, 0
3, 30060, Note_on_c, 0, 76, 64
3, 30090, Note_on_c, 0, 76, 0
3, 30090, Note_on_c, 0, 74, 64
3, 30120, Note_on_c, 0, 74, 0
3, 30120, Note_on_c, 0, 76, 64
3, 30180, Note_on_c, 0, 76, 0
3, 30180, Note_on_c, 0, 73, 64
3, 30240, Note_on_c, 0, 73, 0
3, 30240, Note_on_c, 0, 74, 64
3, 30300, Note_on_c, 0, 74, 0
3, 30300, Note_on_c, 0, 69, 64
3, 30360, Note_on_c, 0, 69, 0
3, 30360, Note_on_c, 0, 74, 64
3, 30540, Note_on_c, 0, 74, 0
3, 30540, Note_on_c, 0, 72, 64
3, 30570, Note_on_c, 0, 72, 0
3, 30570, Note_on_c, 0, 71, 64
3, 30600, Note_on_c, 0, 71, 0
3, 30600, Note_on_c, 0, 72, 64
3, 30660, Note_on_c, 0, 72, 0
3, 30660, Note_on_c, 0, 69, 64
3, 30720, Note_on_c, 0, 69, 0
3, 30720, Note_on_c, 0, 66, 64
3, 30780, Note_on_c, 0, 66, 0
3, 30780, Note_on_c, 0, 69, 64
3, 30840, Note_on_c, 0, 69, 0
3, 30840, Note_on_c, 0, 72, 64
3, 31020, Note_on_c, 0, 72, 0
3, 31020, Note_on_c, 0, 71, 64
3, 31050, Note_on_c, 0, 71, 0
3, 31050, Note_on_c, 0, 69, 64
3, 31080, Note_on_c, 0, 69, 0
3, 31080, Note_on_c, 0, 71, 64
3, 31140, Note_on_c, 0, 71, 0
3, 31140, Note_on_c, 0, 73, 64
3, 31200, Note_on_c, 0, 73, 0
3, 31200, Note_on_c, 0, 74, 64
3, 31260, Note_on_c, 0, 74, 0
3, 31260, Note_on_c, 0, 76, 64
3, 31320, Note_on_c, 0, 76, 0
3, 31320, Note_on_c, 0, 78, 64
3, 31500, Note_on_c, 0, 78, 0
3, 31500, Note_on_c, 0, 76, 64
3, 31530, Note_on_c, 0, 76, 0
3, 31530, Note_on_c, 0, 74, 64
3, 31560, Note_on_c, 0, 74, 0
3, 31560, Note_on_c, 0, 76, 64
3, 31620, Note_on_c, 0, 76, 0
3, 31620, Note_on_c, 0, 73, 64
3, 31680, Note_on_c, 0, 73, 0
3, 31680, Note_on_c, 0, 69, 64
3, 31740, Note_on_c, 0, 69, 0
3, 31740, Note_on_c, 0, 73, 64
3, 31800, Note_on_c, 0, 73, 0
3, 31800, Note_on_c, 0, 76, 64
3, 31980, Note_on_c, 0, 76, 0
3, 31980, Note_on_c, 0, 74, 64
3, 32040, Note_on_c, 0, 74, 0
3, 32040, Note_on_c, 0, 74, 64
3, 32100, Note_on_c, 0, 74, 0
3, 32100, Note_on_c, 0, 69, 64
3, 32160, Note_on_c, 0, 69, 0
3, 32160, Note_on_c, 0, 71, 64
3, 32220, Note_on_c, 0, 71, 0
3, 32220, Note_on_c, 0, 69, 64
3, 32280, Note_on_c, 0, 69, 0
3, 32280, Note_on_c, 0, 71, 64
3, 32340, Note_on_c, 0, 71, 0
3, 32340, Note_on_c, 0, 69, 64
3, 32400, Note_on_c, 0, 69, 0
3, 32400, Note_on_c, 0, 67, 64
3, 32520, Note_on_c, 0, 67, 0
3, 32580, Note_on_c, 0, 71, 64
3, 32640, Note_on_c, 0, 71, 0
3, 32640, Note_on_c, 0, 76, 64
3, 32700, Note_on_c, 0, 76, 0
3, 32700, Note_on_c, 0, 78, 64
3, 32760, Note_on_c, 0, 78, 0
3, 32760, Note_on_c, 0, 79, 64
3, 32820, Note_on_c, 0, 79, 0
3, 32820, Note_on_c, 0, 76, 64
3, 32880, Note_on_c, 0, 76, 0
3, 32880, Note_on_c, 0, 73, 64
3, 32940, Note_on_c, 0, 73, 0
3, 32940, Note_on_c, 0, 71, 64
3, 33000, Note_on_c, 0, 71, 0
3, 33000, Note_on_c, 0, 69, 64
3, 33060, Note_on_c, 0, 69, 0
3, 33120, Control_c, 0, 7, 70
3, 33120, Note_on_c, 0, 67, 64
3, 33126, Control_c, 0, 7, 71
3, 33132, Control_c, 0, 7, 72
3, 33138, Control_c, 0, 7, 73
3, 33144, Control_c, 0, 7, 74
3, 33150, Control_c, 0, 7, 75
3, 33156, Control_c, 0, 7, 76
3, 33162, Control_c, 0, 7, 77
3, 33168, Control_c, 0, 7, 78
3, 33174, Control_c, 0, 7, 79
3, 33180, Control_c, 0, 7, 80
3, 33186, Control_c, 0, 7, 81
3, 33192, Control_c, 0, 7, 82
3, 33198, Control_c, 0, 7, 83
3, 33204, Control_c, 0, 7, 84
3, 33210, Control_c, 0, 7, 85
3, 33216, Control_c, 0, 7, 86
3, 33223, Control_c, 0, 7, 87
3, 33228, Control_c, 0, 7, 88
3, 33235, Control_c, 0, 7, 89
3, 33241, Control_c, 0, 7, 90
3, 33247, Control_c, 0, 7, 91
3, 33253, Control_c, 0, 7, 92
3, 33259, Control_c, 0, 7, 93
3, 33265, Control_c, 0, 7, 94
3, 33271, Control_c, 0, 7, 95
3, 33277, Control_c, 0, 7, 96
3, 33283, Control_c, 0, 7, 97
3, 33289, Control_c, 0, 7, 98
3, 33295, Control_c, 0, 7, 99
3, 33301, Control_c, 0, 7, 100
3, 33307, Control_c, 0, 7, 101
3, 33313, Control_c, 0, 7, 102
3, 33319, Control_c, 0, 7, 103
3, 33325, Control_c, 0, 7, 104
3, 33331, Control_c, 0, 7, 105
3, 33338, Control_c, 0, 7, 106
3, 33344, Control_c, 0, 7, 107
3, 33350, Control_c, 0, 7, 108
3, 33356, Control_c, 0, 7, 109
3, 33362, Control_c, 0, 7, 110
3, 33368, Control_c, 0, 7, 111
3, 33374, Control_c, 0, 7, 112
3, 33380, Control_c, 0, 7, 113
3, 33386, Control_c, 0, 7, 114
3, 33392, Control_c, 0, 7, 115
3, 33398, Control_c, 0, 7, 116
3, 33404, Control_c, 0, 7, 117
3, 33410, Control_c, 0, 7, 118
3, 33416, Control_c, 0, 7, 119
3, 33422, Control_c, 0, 7, 120
3, 33428, Control_c, 0, 7, 121
3, 33435, Control_c, 0, 7, 122
3, 33440, Control_c, 0, 7, 123
3, 33447, Control_c, 0, 7, 124
3, 33453, Control_c, 0, 7, 125
3, 33459, Control_c, 0, 7, 126
3, 33465, Control_c, 0, 7, 127
3, 33480, Note_on_c, 0, 67, 0
3, 33480, Note_on_c, 0, 66, 64
3, 33510, Note_on_c, 0, 66, 0
3, 33510, Note_on_c, 0, 67, 64
3, 33540, Note_on_c, 0, 67, 0
3, 33540, Note_on_c, 0, 64, 64
3, 33600, Note_on_c, 0, 64, 0
3, 33600, Note_on_c, 0, 66, 64
3, 33660, Note_on_c, 0, 66, 0
3, 33660, Note_on_c, 0, 64, 64
3, 33690, Note_on_c, 0, 64, 0
3, 33690, Note_on_c, 0, 62, 64
3, 33720, Note_on_c, 0, 62, 0
3, 33720, Note_on_c, 0, 72, 64
3, 33900, Note_on_c, 0, 72, 0
3, 33900, Note_on_c, 0, 74, 64
3, 33930, Note_on_c, 0, 74, 0
3, 33930, Note_on_c, 0, 72, 64
3, 33960, Note_on_c, 0, 72, 0
3, 33960, Note_on_c, 0, 71, 64
3, 33990, Note_on_c, 0, 71, 0
3, 33990, Note_on_c, 0, 72, 64
3, 34020, Note_on_c, 0, 72, 0
3, 34020, Note_on_c, 0, 69, 64
3, 34080, Note_on_c, 0, 69, 0
3, 34080, Note_on_c, 0, 71, 64
3, 34140, Note_on_c, 0, 71, 0
3, 34140, Note_on_c, 0, 73, 64
3, 34170, Note_on_c, 0, 73, 0
3, 34170, Note_on_c, 0, 74, 64
3, 34200, Note_on_c, 0, 74, 0
3, 34200, Note_on_c, 0, 76, 64
3, 34260, Note_on_c, 0, 76, 0
3, 34260, Note_on_c, 0, 74, 64
3, 34290, Note_on_c, 0, 74, 0
3, 34290, Note_on_c, 0, 72, 64
3, 34320, Note_on_c, 0, 72, 0
3, 34320, Note_on_c, 0, 71, 64
3, 34410, Note_on_c, 0, 71, 0
3, 34410, Note_on_c, 0, 69, 64
3, 34425, Note_on_c, 0, 69, 0
3, 34425, Note_on_c, 0, 67, 64
3, 34440, Note_on_c, 0, 67, 0
3, 34440, Note_on_c, 0, 66, 64
3, 34530, Note_on_c, 0, 66, 0
3, 34530, Note_on_c, 0, 67, 64
3, 34545, Note_on_c, 0, 67, 0
3, 34545, Note_on_c, 0, 69, 64
3, 34560, Note_on_c, 0, 69, 0
3, 34560, Note_on_c, 0, 71, 64
3, 34590, Note_on_c, 0, 71, 0
3, 34590, Note_on_c, 0, 72, 64
3, 34620, Note_on_c, 0, 72, 0
3, 34620, Note_on_c, 0, 74, 64
3, 34680, Note_on_c, 0, 74, 0
3, 34680, Note_on_c, 0, 68, 64
3, 34740, Note_on_c, 0, 68, 0
3, 34740, Note_on_c, 0, 74, 64
3, 34800, Note_on_c, 0, 74, 0
3, 34800, Note_on_c, 0, 73, 64
3, 34860, Note_on_c, 0, 73, 0
3, 34860, Note_on_c, 0, 74, 64
3, 34890, Note_on_c, 0, 74, 0
3, 34890, Note_on_c, 0, 76, 64
3, 34920, Note_on_c, 0, 76, 0
3, 34920, Note_on_c, 0, 74, 64
3, 35043, Control_c, 0, 7, 70
3, 35043, Control_c, 0, 7, 71
3, 35047, Control_c, 0, 7, 72
3, 35051, Control_c, 0, 7, 73
3, 35054, Control_c, 0, 7, 74
3, 35058, Control_c, 0, 7, 75
3, 35062, Control_c, 0, 7, 76
3, 35065, Control_c, 0, 7, 77
3, 35069, Control_c, 0, 7, 78
3, 35073, Control_c, 0, 7, 79
3, 35076, Control_c, 0, 7, 80
3, 35080, Control_c, 0, 7, 81
3, 35084, Control_c, 0, 7, 82
3, 35088, Control_c, 0, 7, 83
3, 35091, Control_c, 0, 7, 84
3, 35095, Control_c, 0, 7, 85
3, 35099, Control_c, 0, 7, 86
3, 35102, Control_c, 0, 7, 87
3, 35106, Control_c, 0, 7, 88
3, 35110, Control_c, 0, 7, 89
3, 35113, Control_c, 0, 7, 90
3, 35117, Control_c, 0, 7, 91
3, 35121, Control_c, 0, 7, 92
3, 35124, Control_c, 0, 7, 93
3, 35128, Control_c, 0, 7, 94
3, 35132, Control_c, 0, 7, 95
3, 35135, Control_c, 0, 7, 96
3, 35139, Control_c, 0, 7, 97
3, 35143, Control_c, 0, 7, 98
3, 35147, Control_c, 0, 7, 99
3, 35150, Control_c, 0, 7, 100
3, 35154, Control_c, 0, 7, 101
3, 35158, Control_c, 0, 7, 102
3, 35161, Control_c, 0, 7, 103
3, 35165, Control_c, 0, 7, 104
3, 35169, Control_c, 0, 7, 105
3, 35172, Control_c, 0, 7, 106
3, 35176, Control_c, 0, 7, 107
3, 35180, Control_c, 0, 7, 108
3, 35184, Control_c, 0, 7, 109
3, 35187, Control_c, 0, 7, 110
3, 35191, Control_c, 0, 7, 111
3, 35195, Control_c, 0, 7, 112
3, 35198, Control_c, 0, 7, 113
3, 35202, Control_c, 0, 7, 114
3, 35206, Control_c, 0, 7, 115
3, 35209, Control_c, 0, 7, 116
3, 35213, Control_c, 0, 7, 117
3, 35217, Control_c, 0, 7, 118
3, 35220, Control_c, 0, 7, 119
3, 35224, Control_c, 0, 7, 120
3, 35228, Control_c, 0, 7, 121
3, 35231, Control_c, 0, 7, 122
3, 35235, Control_c, 0, 7, 123
3, 35239, Control_c, 0, 7, 124
3, 35243, Control_c, 0, 7, 125
3, 35246, Control_c, 0, 7, 126
3, 35250, Control_c, 0, 7, 127
3, 35340, Note_on_c, 0, 74, 0
3, 35340, Note_on_c, 0, 73, 64
3, 35400, Note_on_c, 0, 73, 0
3, 35400, Note_on_c, 0, 74, 64
3, 35460, Note_on_c, 0, 74, 0
3, 35460, Note_on_c, 0, 76, 64
3, 35520, Note_on_c, 0, 76, 0
3, 35520, Note_on_c, 0, 69, 64
3, 35580, Note_on_c, 0, 69, 0
3, 35580, Note_on_c, 0, 74, 64
3, 35700, Note_on_c, 0, 74, 0
3, 35700, Note_on_c, 0, 73, 64
3, 35760, Note_on_c, 0, 73, 0
3, 35760, Note_on_c, 0, 74, 64
3, 35820, Note_on_c, 0, 74, 0
3, 35820, Note_on_c, 0, 72, 64
3, 35880, Note_on_c, 0, 72, 0
3, 35880, Note_on_c, 0, 71, 64
3, 35940, Note_on_c, 0, 71, 0
3, 35940, Note_on_c, 0, 69, 64
3, 36000, Note_on_c, 0, 69, 0
3, 36000, Note_on_c, 0, 71, 64
3, 36060, Note_on_c, 0, 71, 0
3, 36060, Note_on_c, 0, 67, 64
3, 36120, Note_on_c, 0, 67, 0
3, 36120, Note_on_c, 0, 69, 64
3, 36180, Note_on_c, 0, 69, 0
3, 36180, Note_on_c, 0, 67, 64
3, 36240, Note_on_c, 0, 67, 0
3, 36240, Note_on_c, 0, 69, 64
3, 36300, Note_on_c, 0, 69, 0
3, 36300, Note_on_c, 0, 74, 64
3, 36330, Note_on_c, 0, 74, 0
3, 36330, Note_on_c, 0, 71, 64
3, 36360, Note_on_c, 0, 71, 0
3, 36360, Note_on_c, 0, 67, 64
3, 36420, Note_on_c, 0, 67, 0
3, 36420, Note_on_c, 0, 66, 64
3, 36450, Note_on_c, 0, 66, 0
3, 36450, Note_on_c, 0, 64, 64
3, 36480, Note_on_c, 0, 64, 0
3, 36480, Note_on_c, 0, 66, 64
3, 36570, Note_on_c, 0, 66, 0
3, 36570, Note_on_c, 0, 67, 64
3, 36600, Note_on_c, 0, 67, 0
3, 36600, Note_on_c, 0, 64, 64
3, 36690, Note_on_c, 0, 64, 0
3, 36690, Note_on_c, 0, 62, 64
3, 36720, Note_on_c, 0, 62, 0
3, 36720, Note_on_c, 0, 62, 64
3, 36729, Control_c, 0, 7, 127
3, 36840, Note_on_c, 0, 62, 0
3, 41280, End_track
4, 0, Start_track
4, 0, MIDI_port, 0
4, 0, Title_t, "Soprano II"
4, 0, Program_c, 1, 53
4, 4800, Control_c, 1, 7, 70
4, 4800, Note_on_c, 1, 66, 64
4, 4805, Control_c, 1, 7, 71
4, 4811, Control_c, 1, 7, 72
4, 4817, Control_c, 1, 7, 73
4, 4823, Control_c, 1, 7, 74
4, 4829, Control_c, 1, 7, 75
4, 4835, Control_c, 1, 7, 76
4, 4840, Control_c, 1, 7, 77
4, 4846, Control_c, 1, 7, 78
4, 4852, Control_c, 1, 7, 79
4, 4858, Control_c, 1, 7, 80
4, 4864, Control_c, 1, 7, 81
4, 4869, Control_c, 1, 7, 82
4, 4875, Control_c, 1, 7, 83
4, 4881, Control_c, 1, 7, 84
4, 4887, Control_c, 1, 7, 85
4, 4893, Control_c, 1, 7, 86
4, 4899, Control_c, 1, 7, 87
4, 4905, Control_c, 1, 7, 88
4, 4910, Control_c, 1, 7, 89
4, 4916, Control_c, 1, 7, 90
4, 4922, Control_c, 1, 7, 91
4, 4928, Control_c, 1, 7, 92
4, 4934, Control_c, 1, 7, 93
4, 4940, Control_c, 1, 7, 94
4, 4945, Control_c, 1, 7, 95
4, 4951, Control_c, 1, 7, 96
4, 4957, Control_c, 1, 7, 97
4, 4963, Control_c, 1, 7, 98
4, 4969, Control_c, 1, 7, 99
4, 4975, Control_c, 1, 7, 100
4, 4980, Control_c, 1, 7, 101
4, 4986, Control_c, 1, 7, 102
4, 4992, Control_c, 1, 7, 103
4, 4998, Control_c, 1, 7, 104
4, 5004, Control_c, 1, 7, 105
4, 5010, Control_c, 1, 7, 106
4, 5015, Control_c, 1, 7, 107
4, 5021, Control_c, 1, 7, 108
4, 5027, Control_c, 1, 7, 109
4, 5033, Control_c, 1, 7, 110
4, 5039, Control_c, 1, 7, 111
4, 5045, Control_c, 1, 7, 112
4, 5050, Control_c, 1, 7, 113
4, 5056, Control_c, 1, 7, 114
4, 5062, Control_c, 1, 7, 115
4, 5068, Control_c, 1, 7, 116
4, 5074, Control_c, 1, 7, 117
4, 5080, Control_c, 1, 7, 118
4, 5085, Control_c, 1, 7, 119
4, 5091, Control_c, 1, 7, 120
4, 5097, Control_c, 1, 7, 121
4, 5103, Control_c, 1, 7, 122
4, 5109, Control_c, 1, 7, 123
4, 5115, Control_c, 1, 7, 124
4, 5120, Control_c, 1, 7, 125
4, 5126, Control_c, 1, 7, 126
4, 5132, Control_c, 1, 7, 127
4, 5160, Note_on_c, 1, 66, 0
4, 5160, Note_on_c, 1, 69, 64
4, 5190, Note_on_c, 1, 69, 0
4, 5190, Note_on_c, 1, 67, 64
4, 5220, Note_on_c, 1, 67, 0
4, 5220, Note_on_c, 1, 69, 64
4, 5280, Note_on_c, 1, 69, 0
4, 5280, Note_on_c, 1, 69, 64
4, 5340, Note_on_c, 1, 69, 0
4, 5340, Note_on_c, 1, 67, 64
4, 5400, Note_on_c, 1, 67, 0
4, 5460, Note_on_c, 1, 67, 64
4, 5520, Note_on_c, 1, 67, 0
4, 5520, Note_on_c, 1, 61, 64
4, 5580, Note_on_c, 1, 61, 0
4, 5580, Note_on_c, 1, 64, 64
4, 5610, Note_on_c, 1, 64, 0
4, 5610, Note_on_c, 1, 62, 64
4, 5640, Note_on_c, 1, 62, 0
4, 5640, Note_on_c, 1, 64, 64
4, 5700, Note_on_c, 1, 64, 0
4, 5700, Note_on_c, 1, 67, 64
4, 5720, Note_on_c, 1, 67, 0
4, 5720, Note_on_c, 1, 66, 64
4, 5739, Note_on_c, 1, 66, 0
4, 5739, Note_on_c, 1, 64, 64
4, 5760, Note_on_c, 1, 64, 0
4, 5760, Note_on_c, 1, 64, 64
4, 5820, Note_on_c, 1, 64, 0
4, 5820, Note_on_c, 1, 62, 64
4, 5880, Note_on_c, 1, 62, 0
4, 5880, Note_on_c, 1, 62, 64
4, 5940, Note_on_c, 1, 62, 0
4, 5940, Note_on_c, 1, 64, 64
4, 6000, Note_on_c, 1, 64, 0
4, 6000, Note_on_c, 1, 66, 64
4, 6030, Note_on_c, 1, 66, 0
4, 6030, Note_on_c, 1, 67, 64
4, 6060, Note_on_c, 1, 67, 0
4, 6060, Note_on_c, 1, 69, 64
4, 6180, Note_on_c, 1, 69, 0
4, 6180, Note_on_c, 1, 67, 64
4, 6210, Note_on_c, 1, 67, 0
4, 6210, Note_on_c, 1, 66, 64
4, 6240, Note_on_c, 1, 66, 0
4, 6240, Note_on_c, 1, 67, 64
4, 6270, Note_on_c, 1, 67, 0
4, 6270, Note_on_c, 1, 66, 64
4, 6300, Note_on_c, 1, 66, 0
4, 6300, Note_on_c, 1, 64, 64
4, 6330, Note_on_c, 1, 64, 0
4, 6330, Note_on_c, 1, 66, 64
4, 6360, Note_on_c, 1, 66, 0
4, 6360, Note_on_c, 1, 67, 64
4, 6390, Note_on_c, 1, 67, 0
4, 6390, Note_on_c, 1, 69, 64
4, 6420, Note_on_c, 1, 69, 0
4, 6420, Note_on_c, 1, 70, 64
4, 6540, Note_on_c, 1, 70, 0
4, 6540, Note_on_c, 1, 69, 64
4, 6600, Note_on_c, 1, 69, 0
4, 6600, Note_on_c, 1, 67, 64
4, 6660, Note_on_c, 1, 67, 0
4, 6660, Note_on_c, 1, 66, 64
4, 6720, Note_on_c, 1, 66, 0
4, 7080, Note_on_c, 1, 71, 64
4, 7260, Note_on_c, 1, 71, 0
4, 7260, Note_on_c, 1, 69, 64
4, 7290, Note_on_c, 1, 69, 0
4, 7290, Note_on_c, 1, 68, 64
4, 7320, Note_on_c, 1, 68, 0
4, 7320, Note_on_c, 1, 69, 64
4, 7350, Note_on_c, 1, 69, 0
4, 7350, Note_on_c, 1, 68, 64
4, 7380, Note_on_c, 1, 68, 0
4, 7380, Note_on_c, 1, 66, 64
4, 7410, Note_on_c, 1, 66, 0
4, 7410, Note_on_c, 1, 64, 64
4, 7440, Note_on_c, 1, 64, 0
4, 7440, Note_on_c, 1, 69, 64
4, 7740, Note_on_c, 1, 69, 0
4, 7740, Note_on_c, 1, 68, 64
4, 7800, Note_on_c, 1, 68, 0
4, 7800, Note_on_c, 1, 69, 64
4, 7860, Note_on_c, 1, 69, 0
4, 7860, Note_on_c, 1, 71, 64
4, 7920, Note_on_c, 1, 71, 0
4, 7920, Note_on_c, 1, 64, 64
4, 8220, Note_on_c, 1, 64, 0
4, 8220, Note_on_c, 1, 69, 64
4, 8280, Note_on_c, 1, 69, 0
4, 8280, Note_on_c, 1, 73, 64
4, 8340, Note_on_c, 1, 73, 0
4, 8340, Note_on_c, 1, 64, 64
4, 8400, Note_on_c, 1, 64, 0
4, 8400, Note_on_c, 1, 62, 64
4, 8460, Note_on_c, 1, 62, 0
4, 8460, Note_on_c, 1, 64, 64
4, 8520, Note_on_c, 1, 64, 0
4, 8520, Note_on_c, 1, 65, 64
4, 8700, Note_on_c, 1, 65, 0
4, 8700, Note_on_c, 1, 64, 64
4, 8760, Note_on_c, 1, 64, 0
4, 8760, Note_on_c, 1, 64, 64
4, 8820, Note_on_c, 1, 64, 0
4, 8876, Control_c, 1, 7, 70
4, 8876, Control_c, 1, 7, 78
4, 8880, Note_on_c, 1, 64, 64
4, 8882, Control_c, 1, 7, 79
4, 8889, Control_c, 1, 7, 80
4, 8895, Control_c, 1, 7, 81
4, 8901, Control_c, 1, 7, 82
4, 8907, Control_c, 1, 7, 83
4, 8913, Control_c, 1, 7, 84
4, 8919, Control_c, 1, 7, 85
4, 8925, Control_c, 1, 7, 86
4, 8931, Control_c, 1, 7, 87
4, 8937, Control_c, 1, 7, 88
4, 8943, Control_c, 1, 7, 89
4, 8950, Control_c, 1, 7, 90
4, 8956, Control_c, 1, 7, 91
4, 8962, Control_c, 1, 7, 92
4, 8968, Control_c, 1, 7, 93
4, 8974, Control_c, 1, 7, 94
4, 8980, Control_c, 1, 7, 95
4, 8986, Control_c, 1, 7, 96
4, 8992, Control_c, 1, 7, 97
4, 8998, Control_c, 1, 7, 98
4, 9005, Control_c, 1, 7, 99
4, 9011, Control_c, 1, 7, 100
4, 9017, Control_c, 1, 7, 101
4, 9023, Control_c, 1, 7, 102
4, 9029, Control_c, 1, 7, 103
4, 9035, Control_c, 1, 7, 104
4, 9041, Control_c, 1, 7, 105
4, 9047, Control_c, 1, 7, 106
4, 9053, Control_c, 1, 7, 107
4, 9060, Control_c, 1, 7, 108
4, 9066, Control_c, 1, 7, 109
4, 9072, Control_c, 1, 7, 110
4, 9078, Control_c, 1, 7, 111
4, 9084, Control_c, 1, 7, 112
4, 9090, Control_c, 1, 7, 113
4, 9096, Control_c, 1, 7, 114
4, 9102, Control_c, 1, 7, 115
4, 9108, Control_c, 1, 7, 116
4, 9114, Control_c, 1, 7, 117
4, 9121, Control_c, 1, 7, 118
4, 9127, Control_c, 1, 7, 119
4, 9133, Control_c, 1, 7, 120
4, 9139, Control_c, 1, 7, 121
4, 9145, Control_c, 1, 7, 122
4, 9151, Control_c, 1, 7, 123
4, 9157, Control_c, 1, 7, 124
4, 9163, Control_c, 1, 7, 125
4, 9169, Control_c, 1, 7, 126
4, 9176, Control_c, 1, 7, 127
4, 9240, Note_on_c, 1, 64, 0
4, 9240, Note_on_c, 1, 67, 64
4, 9270, Note_on_c, 1, 67, 0
4, 9270, Note_on_c, 1, 66, 64
4, 9300, Note_on_c, 1, 66, 0
4, 9300, Note_on_c, 1, 67, 64
4, 9360, Note_on_c, 1, 67, 0
4, 9360, Note_on_c, 1, 67, 64
4, 9420, Note_on_c, 1, 67, 0
4, 9420, Note_on_c, 1, 66, 64
4, 9480, Note_on_c, 1, 66, 0
4, 9540, Note_on_c, 1, 66, 64
4, 9600, Note_on_c, 1, 66, 0
4, 9600, Note_on_c, 1, 59, 64
4, 9660, Note_on_c, 1, 59, 0
4, 9660, Note_on_c, 1, 62, 64
4, 9690, Note_on_c, 1, 62, 0
4, 9690, Note_on_c, 1, 61, 64
4, 9720, Note_on_c, 1, 61, 0
4, 9720, Note_on_c, 1, 62, 64
4, 9780, Note_on_c, 1, 62, 0
4, 9780, Note_on_c, 1, 66, 64
4, 9800, Note_on_c, 1, 66, 0
4, 9800, Note_on_c, 1, 64, 64
4, 9819, Note_on_c, 1, 64, 0
4, 9819, Note_on_c, 1, 62, 64
4, 9840, Note_on_c, 1, 62, 0
4, 9840, Note_on_c, 1, 62, 64
4, 9900, Note_on_c, 1, 62, 0
4, 9900, Note_on_c, 1, 61, 64
4, 9960, Note_on_c, 1, 61, 0
4, 9960, Note_on_c, 1, 61, 64
4, 10020, Note_on_c, 1, 61, 0
4, 10020, Note_on_c, 1, 62, 64
4, 10080, Note_on_c, 1, 62, 0
4, 10080, Note_on_c, 1, 64, 64
4, 10110, Note_on_c, 1, 64, 0
4, 10110, Note_on_c, 1, 66, 64
4, 10140, Note_on_c, 1, 66, 0
4, 10140, Note_on_c, 1, 67, 64
4, 10260, Note_on_c, 1, 67, 0
4, 10260, Note_on_c, 1, 66, 64
4, 10290, Note_on_c, 1, 66, 0
4, 10290, Note_on_c, 1, 64, 64
4, 10320, Note_on_c, 1, 64, 0
4, 10320, Note_on_c, 1, 66, 64
4, 10380, Note_on_c, 1, 66, 0
4, 10380, Note_on_c, 1, 68, 64
4, 10410, Note_on_c, 1, 68, 0
4, 10410, Note_on_c, 1, 69, 64
4, 10440, Note_on_c, 1, 69, 0
4, 10440, Note_on_c, 1, 71, 64
4, 10620, Note_on_c, 1, 71, 0
4, 10620, Note_on_c, 1, 68, 64
4, 10680, Note_on_c, 1, 68, 0
4, 10680, Note_on_c, 1, 69, 64
4, 10740, Note_on_c, 1, 69, 0
4, 10920, Note_on_c, 1, 73, 64
4, 11100, Note_on_c, 1, 73, 0
4, 11100, Note_on_c, 1, 71, 64
4, 11130, Note_on_c, 1, 71, 0
4, 11130, Note_on_c, 1, 69, 64
4, 11160, Note_on_c, 1, 69, 0
4, 11160, Note_on_c, 1, 71, 64
4, 11190, Note_on_c, 1, 71, 0
4, 11190, Note_on_c, 1, 69, 64
4, 11220, Note_on_c, 1, 69, 0
4, 11220, Note_on_c, 1, 68, 64
4, 11250, Note_on_c, 1, 68, 0
4, 11250, Note_on_c, 1, 66, 64
4, 11280, Note_on_c, 1, 66, 0
4, 11280, Note_on_c, 1, 71, 64
4, 11580, Note_on_c, 1, 71, 0
4, 11580, Note_on_c, 1, 64, 64
4, 11640, Note_on_c, 1, 64, 0
4, 11640, Note_on_c, 1, 66, 64
4, 11700, Note_on_c, 1, 66, 0
4, 11700, Note_on_c, 1, 68, 64
4, 11760, Note_on_c, 1, 68, 0
4, 11760, Note_on_c, 1, 69, 64
4, 12060, Note_on_c, 1, 69, 0
4, 12060, Note_on_c, 1, 66, 64
4, 12120, Note_on_c, 1, 66, 0
4, 12120, Note_on_c, 1, 63, 64
4, 12180, Note_on_c, 1, 63, 0
4, 12180, Note_on_c, 1, 69, 64
4, 12240, Note_on_c, 1, 69, 0
4, 12240, Note_on_c, 1, 68, 64
4, 12270, Note_on_c, 1, 68, 0
4, 12270, Note_on_c, 1, 66, 64
4, 12300, Note_on_c, 1, 66, 0
4, 12300, Note_on_c, 1, 64, 64
4, 12330, Note_on_c, 1, 64, 0
4, 12330, Note_on_c, 1, 63, 64
4, 12360, Note_on_c, 1, 63, 0
4, 12360, Note_on_c, 1, 64, 64
4, 12390, Note_on_c, 1, 64, 0
4, 12390, Note_on_c, 1, 66, 64
4, 12420, Note_on_c, 1, 66, 0
4, 12420, Note_on_c, 1, 67, 64
4, 12540, Note_on_c, 1, 67, 0
4, 12540, Note_on_c, 1, 66, 64
4, 12570, Note_on_c, 1, 66, 0
4, 12570, Note_on_c, 1, 67, 64
4, 12600, Note_on_c, 1, 67, 0
4, 12600, Note_on_c, 1, 69, 64
4, 12660, Note_on_c, 1, 69, 0
4, 12660, Note_on_c, 1, 66, 64
4, 12720, Note_on_c, 1, 66, 0
4, 12720, Note_on_c, 1, 64, 64
4, 12780, Note_on_c, 1, 64, 0
4, 12780, Note_on_c, 1, 63, 64
4, 12840, Note_on_c, 1, 63, 0
4, 12840, Note_on_c, 1, 63, 64
4, 12900, Note_on_c, 1, 63, 0
4, 13190, Control_c, 1, 7, 80
4, 13193, Control_c, 1, 7, 87
4, 13200, Note_on_c, 1, 71, 64
4, 13201, Control_c, 1, 7, 88
4, 13208, Control_c, 1, 7, 89
4, 13216, Control_c, 1, 7, 90
4, 13224, Control_c, 1, 7, 91
4, 13231, Control_c, 1, 7, 92
4, 13239, Control_c, 1, 7, 93
4, 13247, Control_c, 1, 7, 94
4, 13254, Control_c, 1, 7, 95
4, 13262, Control_c, 1, 7, 96
4, 13270, Control_c, 1, 7, 97
4, 13277, Control_c, 1, 7, 98
4, 13285, Control_c, 1, 7, 99
4, 13293, Control_c, 1, 7, 100
4, 13300, Control_c, 1, 7, 101
4, 13308, Control_c, 1, 7, 102
4, 13316, Control_c, 1, 7, 103
4, 13323, Control_c, 1, 7, 104
4, 13331, Control_c, 1, 7, 105
4, 13339, Control_c, 1, 7, 106
4, 13346, Control_c, 1, 7, 107
4, 13354, Control_c, 1, 7, 108
4, 13362, Control_c, 1, 7, 109
4, 13369, Control_c, 1, 7, 110
4, 13377, Control_c, 1, 7, 111
4, 13385, Control_c, 1, 7, 112
4, 13392, Control_c, 1, 7, 113
4, 13400, Control_c, 1, 7, 114
4, 13408, Control_c, 1, 7, 115
4, 13415, Control_c, 1, 7, 116
4, 13423, Control_c, 1, 7, 117
4, 13431, Control_c, 1, 7, 118
4, 13438, Control_c, 1, 7, 119
4, 13446, Control_c, 1, 7, 120
4, 13454, Control_c, 1, 7, 121
4, 13461, Control_c, 1, 7, 122
4, 13469, Control_c, 1, 7, 123
4, 13477, Control_c, 1, 7, 124
4, 13484, Control_c, 1, 7, 125
4, 13492, Control_c, 1, 7, 126
4, 13500, Control_c, 1, 7, 127
4, 13560, Note_on_c, 1, 71, 0
4, 13560, Note_on_c, 1, 69, 64
4, 13590, Note_on_c, 1, 69, 0
4, 13590, Note_on_c, 1, 71, 64
4, 13620, Note_on_c, 1, 71, 0
4, 13620, Note_on_c, 1, 68, 64
4, 13680, Note_on_c, 1, 68, 0
4, 13680, Note_on_c, 1, 69, 64
4, 13740, Note_on_c, 1, 69, 0
4, 13740, Note_on_c, 1, 67, 64
4, 13770, Note_on_c, 1, 67, 0
4, 13770, Note_on_c, 1, 66, 64
4, 13800, Note_on_c, 1, 66, 0
4, 13800, Note_on_c, 1, 67, 64
4, 13980, Note_on_c, 1, 67, 0
4, 13980, Note_on_c, 1, 67, 64
4, 14040, Note_on_c, 1, 67, 0
4, 14040, Note_on_c, 1, 66, 64
4, 14070, Note_on_c, 1, 66, 0
4, 14070, Note_on_c, 1, 67, 64
4, 14100, Note_on_c, 1, 67, 0
4, 14100, Note_on_c, 1, 64, 64
4, 14160, Note_on_c, 1, 64, 0
4, 14160, Note_on_c, 1, 66, 64
4, 14220, Note_on_c, 1, 66, 0
4, 14220, Note_on_c, 1, 68, 64
4, 14250, Note_on_c, 1, 68, 0
4, 14250, Note_on_c, 1, 69, 64
4, 14280, Note_on_c, 1, 69, 0
4, 14280, Note_on_c, 1, 71, 64
4, 14340, Note_on_c, 1, 71, 0
4, 14340, Note_on_c, 1, 69, 64
4, 14370, Note_on_c, 1, 69, 0
4, 14370, Note_on_c, 1, 67, 64
4, 14400, Note_on_c, 1, 67, 0
4, 14400, Note_on_c, 1, 66, 64
4, 14490, Note_on_c, 1, 66, 0
4, 14490, Note_on_c, 1, 64, 64
4, 14505, Note_on_c, 1, 64, 0
4, 14505, Note_on_c, 1, 62, 64
4, 14520, Note_on_c, 1, 62, 0
4, 14520, Note_on_c, 1, 61, 64
4, 14610, Note_on_c, 1, 61, 0
4, 14610, Note_on_c, 1, 62, 64
4, 14625, Note_on_c, 1, 62, 0
4, 14625, Note_on_c, 1, 64, 64
4, 14640, Note_on_c, 1, 64, 0
4, 14640, Note_on_c, 1, 66, 64
4, 14670, Note_on_c, 1, 66, 0
4, 14670, Note_on_c, 1, 68, 64
4, 14700, Note_on_c, 1, 68, 0
4, 14700, Note_on_c, 1, 69, 64
4, 14760, Note_on_c, 1, 69, 0
4, 14760, Note_on_c, 1, 63, 64
4, 14820, Note_on_c, 1, 63, 0
4, 14820, Note_on_c, 1, 69, 64
4, 14880, Note_on_c, 1, 69, 0
4, 14880, Note_on_c, 1, 68, 64
4, 14940, Note_on_c, 1, 68, 0
4, 14940, Note_on_c, 1, 69, 64
4, 14970, Note_on_c, 1, 69, 0
4, 14970, Note_on_c, 1, 71, 64
4, 15000, Note_on_c, 1, 71, 0
4, 15000, Note_on_c, 1, 69, 64
4, 15390, Note_on_c, 1, 69, 0
4, 15390, Note_on_c, 1, 68, 64
4, 15420, Note_on_c, 1, 68, 0
4, 15420, Note_on_c, 1, 74, 64
4, 15480, Note_on_c, 1, 74, 0
4, 15480, Note_on_c, 1, 73, 64
4, 15540, Note_on_c, 1, 73, 0
4, 15540, Note_on_c, 1, 78, 64
4, 15570, Note_on_c, 1, 78, 0
4, 15570, Note_on_c, 1, 76, 64
4, 15600, Note_on_c, 1, 76, 0
4, 15600, Note_on_c, 1, 73, 64
4, 15660, Note_on_c, 1, 73, 0
4, 15660, Note_on_c, 1, 71, 64
4, 15720, Note_on_c, 1, 71, 0
4, 15720, Note_on_c, 1, 71, 64
4, 15840, Note_on_c, 1, 71, 0
4, 15840, Control_c, 1, 7, 127
4, 15840, Note_on_c, 1, 69, 64
4, 15960, Note_on_c, 1, 69, 0
4, 20160, Control_c, 1, 7, 70
4, 20160, Note_on_c, 1, 64, 64
4, 20166, Control_c, 1, 7, 71
4, 20172, Control_c, 1, 7, 72
4, 20178, Control_c, 1, 7, 73
4, 20184, Control_c, 1, 7, 74
4, 20190, Control_c, 1, 7, 75
4, 20196, Control_c, 1, 7, 76
4, 20202, Control_c, 1, 7, 77
4, 20208, Control_c, 1, 7, 78
4, 20214, Control_c, 1, 7, 79
4, 20220, Control_c, 1, 7, 80
4, 20226, Control_c, 1, 7, 81
4, 20232, Control_c, 1, 7, 82
4, 20238, Control_c, 1, 7, 83
4, 20244, Control_c, 1, 7, 84
4, 20250, Control_c, 1, 7, 85
4, 20256, Control_c, 1, 7, 86
4, 20263, Control_c, 1, 7, 87
4, 20268, Control_c, 1, 7, 88
4, 20275, Control_c, 1, 7, 89
4, 20281, Control_c, 1, 7, 90
4, 20287, Control_c, 1, 7, 91
4, 20293, Control_c, 1, 7, 92
4, 20299, Control_c, 1, 7, 93
4, 20305, Control_c, 1, 7, 94
4, 20311, Control_c, 1, 7, 95
4, 20317, Control_c, 1, 7, 96
4, 20323, Control_c, 1, 7, 97
4, 20329, Control_c, 1, 7, 98
4, 20335, Control_c, 1, 7, 99
4, 20341, Control_c, 1, 7, 100
4, 20347, Control_c, 1, 7, 101
4, 20353, Control_c, 1, 7, 102
4, 20359, Control_c, 1, 7, 103
4, 20365, Control_c, 1, 7, 104
4, 20371, Control_c, 1, 7, 105
4, 20378, Control_c, 1, 7, 106
4, 20384, Control_c, 1, 7, 107
4, 20390, Control_c, 1, 7, 108
4, 20396, Control_c, 1, 7, 109
4, 20402, Control_c, 1, 7, 110
4, 20408, Control_c, 1, 7, 111
4, 20414, Control_c, 1, 7, 112
4, 20420, Control_c, 1, 7, 113
4, 20426, Control_c, 1, 7, 114
4, 20432, Control_c, 1, 7, 115
4, 20438, Control_c, 1, 7, 116
4, 20444, Control_c, 1, 7, 117
4, 20450, Control_c, 1, 7, 118
4, 20456, Control_c, 1, 7, 119
4, 20462, Control_c, 1, 7, 120
4, 20468, Control_c, 1, 7, 121
4, 20475, Control_c, 1, 7, 122
4, 20480, Control_c, 1, 7, 123
4, 20487, Control_c, 1, 7, 124
4, 20493, Control_c, 1, 7, 125
4, 20499, Control_c, 1, 7, 126
4, 20505, Control_c, 1, 7, 127
4, 20520, Note_on_c, 1, 64, 0
4, 20520, Note_on_c, 1, 66, 64
4, 20550, Note_on_c, 1, 66, 0
4, 20550, Note_on_c, 1, 64, 64
4, 20580, Note_on_c, 1, 64, 0
4, 20580, Note_on_c, 1, 66, 64
4, 20640, Note_on_c, 1, 66, 0
4, 20640, Note_on_c, 1, 67, 64
4, 20760, Note_on_c, 1, 67, 0
4, 20820, Note_on_c, 1, 66, 64
4, 20880, Note_on_c, 1, 66, 0
4, 20880, Note_on_c, 1, 64, 64
4, 20940, Note_on_c, 1, 64, 0
4, 20940, Note_on_c, 1, 62, 64
4, 20970, Note_on_c, 1, 62, 0
4, 20970, Note_on_c, 1, 61, 64
4, 21000, Note_on_c, 1, 61, 0
4, 21000, Note_on_c, 1, 62, 64
4, 21060, Note_on_c, 1, 62, 0
4, 21060, Note_on_c, 1, 64, 64
4, 21120, Note_on_c, 1, 64, 0
4, 21120, Note_on_c, 1, 66, 64
4, 21180, Note_on_c, 1, 66, 0
4, 21180, Note_on_c, 1, 70, 64
4, 21210, Note_on_c, 1, 70, 0
4, 21210, Note_on_c, 1, 68, 64
4, 21240, Note_on_c, 1, 68, 0
4, 21240, Note_on_c, 1, 70, 64
4, 21390, Note_on_c, 1, 70, 0
4, 21390, Note_on_c, 1, 68, 64
4, 21420, Note_on_c, 1, 68, 0
4, 21420, Note_on_c, 1, 70, 64
4, 21450, Note_on_c, 1, 70, 0
4, 21450, Note_on_c, 1, 71, 64
4, 21480, Note_on_c, 1, 71, 0
4, 21480, Note_on_c, 1, 73, 64
4, 21660, Note_on_c, 1, 73, 0
4, 21660, Note_on_c, 1, 71, 64
4, 21720, Note_on_c, 1, 71, 0
4, 21720, Note_on_c, 1, 69, 64
4, 21900, Note_on_c, 1, 69, 0
4, 21900, Note_on_c, 1, 66, 64
4, 21930, Note_on_c, 1, 66, 0
4, 21930, Note_on_c, 1, 67, 64
4, 21960, Note_on_c, 1, 67, 0
4, 21960, Note_on_c, 1, 69, 64
4, 22140, Note_on_c, 1, 69, 0
4, 22140, Note_on_c, 1, 67, 64
4, 22200, Note_on_c, 1, 67, 0
4, 22200, Note_on_c, 1, 71, 64
4, 22380, Note_on_c, 1, 71, 0
4, 22380, Note_on_c, 1, 69, 64
4, 22410, Note_on_c, 1, 69, 0
4, 22410, Note_on_c, 1, 67, 64
4, 22440, Note_on_c, 1, 67, 0
4, 22440, Note_on_c, 1, 69, 64
4, 22470, Note_on_c, 1, 69, 0
4, 22470, Note_on_c, 1, 67, 64
4, 22500, Note_on_c, 1, 67, 0
4, 22500, Note_on_c, 1, 66, 64
4, 22530, Note_on_c, 1, 66, 0
4, 22530, Note_on_c, 1, 64, 64
4, 22560, Note_on_c, 1, 64, 0
4, 22560, Note_on_c, 1, 72, 64
4, 22860, Note_on_c, 1, 72, 0
4, 22860, Note_on_c, 1, 66, 64
4, 22920, Note_on_c, 1, 66, 0
4, 22920, Note_on_c, 1, 67, 64
4, 22980, Note_on_c, 1, 67, 0
4, 22980, Note_on_c, 1, 69, 64
4, 23040, Note_on_c, 1, 69, 0
4, 23040, Note_on_c, 1, 71, 64
4, 23340, Note_on_c, 1, 71, 0
4, 23340, Note_on_c, 1, 69, 64
4, 23400, Note_on_c, 1, 69, 0
4, 23400, Note_on_c, 1, 69, 64
4, 23460, Note_on_c, 1, 69, 0
4, 23460, Note_on_c, 1, 67, 64
4, 23520, Note_on_c, 1, 67, 0
4, 23520, Note_on_c, 1, 66, 64
4, 23790, Note_on_c, 1, 66, 0
4, 23790, Note_on_c, 1, 63, 64
4, 23820, Note_on_c, 1, 63, 0
4, 23820, Note_on_c, 1, 64, 64
4, 23910, Note_on_c, 1, 64, 0
4, 23910, Note_on_c, 1, 74, 64
4, 23940, Note_on_c, 1, 74, 0
4, 23940, Note_on_c, 1, 73, 64
4, 23970, Note_on_c, 1, 73, 0
4, 23970, Note_on_c, 1, 71, 64
4, 24000, Note_on_c, 1, 71, 0
4, 24000, Note_on_c, 1, 70, 64
4, 24060, Note_on_c, 1, 70, 0
4, 24060, Note_on_c, 1, 73, 64
4, 24090, Note_on_c, 1, 73, 0
4, 24090, Note_on_c, 1, 71, 64
4, 24120, Note_on_c, 1, 71, 0
4, 24120, Note_on_c, 1, 73, 64
4, 24180, Note_on_c, 1, 73, 0
4, 24180, Note_on_c, 1, 70, 64
4, 24240, Note_on_c, 1, 70, 0
4, 24240, Note_on_c, 1, 71, 64
4, 24300, Note_on_c, 1, 71, 0
4, 24300, Note_on_c, 1, 70, 64
4, 24360, Note_on_c, 1, 70, 0
4, 24360, Note_on_c, 1, 71, 64
4, 24420, Note_on_c, 1, 71, 0
4, 24420, Note_on_c, 1, 70, 64
4, 24480, Note_on_c, 1, 70, 0
4, 24480, Note_on_c, 1, 71, 64
4, 24600, Note_on_c, 1, 71, 0
4, 24660, Note_on_c, 1, 69, 64
4, 24720, Note_on_c, 1, 69, 0
4, 24720, Note_on_c, 1, 67, 64
4, 24780, Note_on_c, 1, 67, 0
4, 24780, Note_on_c, 1, 66, 64
4, 24840, Note_on_c, 1, 66, 0
4, 24840, Note_on_c, 1, 67, 64
4, 24900, Note_on_c, 1, 67, 0
4, 24900, Note_on_c, 1, 66, 64
4, 24960, Note_on_c, 1, 66, 0
4, 24960, Note_on_c, 1, 67, 64
4, 25020, Note_on_c, 1, 67, 0
4, 25020, Note_on_c, 1, 67, 64
4, 25080, Note_on_c, 1, 67, 0
4, 25080, Note_on_c, 1, 66, 64
4, 25140, Note_on_c, 1, 66, 0
4, 25140, Note_on_c, 1, 64, 64
4, 25200, Note_on_c, 1, 64, 0
4, 25200, Note_on_c, 1, 62, 64
4, 25290, Note_on_c, 1, 62, 0
4, 25290, Note_on_c, 1, 64, 64
4, 25320, Note_on_c, 1, 64, 0
4, 25320, Note_on_c, 1, 61, 64
4, 25440, Note_on_c, 1, 61, 0
4, 25440, Control_c, 1, 7, 127
4, 25440, Note_on_c, 1, 59, 64
4, 25560, Note_on_c, 1, 59, 0
4, 27900, Note_on_c, 1, 71, 64
4, 27960, Note_on_c, 1, 71, 0
4, 27960, Note_on_c, 1, 66, 64
4, 28020, Note_on_c, 1, 66, 0
4, 28020, Note_on_c, 1, 68, 64
4, 28080, Note_on_c, 1, 68, 0
4, 28080, Note_on_c, 1, 69, 64
4, 28140, Note_on_c, 1, 69, 0
4, 28140, Note_on_c, 1, 71, 64
4, 28200, Note_on_c, 1, 71, 0
4, 28200, Note_on_c, 1, 72, 64
4, 28380, Note_on_c, 1, 72, 0
4, 28380, Note_on_c, 1, 66, 64
4, 28440, Note_on_c, 1, 66, 0
4, 28440, Note_on_c, 1, 71, 64
4, 28470, Note_on_c, 1, 71, 0
4, 28470, Note_on_c, 1, 72, 64
4, 28485, Note_on_c, 1, 72, 0
4, 28485, Note_on_c, 1, 74, 64
4, 28500, Note_on_c, 1, 74, 0
4, 28500, Note_on_c, 1, 72, 64
4, 28530, Note_on_c, 1, 72, 0
4, 28530, Note_on_c, 1, 71, 64
4, 28560, Note_on_c, 1, 71, 0
4, 28560, Note_on_c, 1, 68, 64
4, 28590, Note_on_c, 1, 68, 0
4, 28590, Note_on_c, 1, 66, 64
4, 28620, Note_on_c, 1, 66, 0
4, 28620, Note_on_c, 1, 68, 64
4, 28650, Note_on_c, 1, 68, 0
4, 28650, Note_on_c, 1, 66, 64
4, 28680, Note_on_c, 1, 66, 0
4, 28680, Note_on_c, 1, 64, 64
4, 28740, Note_on_c, 1, 64, 0
4, 28740, Note_on_c, 1, 67, 64
4, 28800, Note_on_c, 1, 67, 0
4, 28800, Note_on_c, 1, 66, 64
4, 28860, Note_on_c, 1, 66, 0
4, 28860, Note_on_c, 1, 67, 64
4, 28920, Note_on_c, 1, 67, 0
4, 28920, Note_on_c, 1, 69, 64
4, 28980, Note_on_c, 1, 69, 0
4, 28980, Note_on_c, 1, 66, 64
4, 29040, Note_on_c, 1, 66, 0
4, 29040, Note_on_c, 1, 62, 64
4, 29100, Note_on_c, 1, 62, 0
4, 29100, Note_on_c, 1, 62, 64
4, 29160, Note_on_c, 1, 62, 0
4, 29160, Note_on_c, 1, 67, 64
4, 29340, Note_on_c, 1, 67, 0
4, 29340, Note_on_c, 1, 67, 64
4, 29370, Note_on_c, 1, 67, 0
4, 29370, Note_on_c, 1, 66, 64
4, 29400, Note_on_c, 1, 66, 0
4, 29400, Note_on_c, 1, 67, 64
4, 29460, Note_on_c, 1, 67, 0
4, 29460, Note_on_c, 1, 64, 64
4, 29520, Note_on_c, 1, 64, 0
4, 29520, Note_on_c, 1, 66, 64
4, 29580, Note_on_c, 1, 66, 0
4, 29580, Note_on_c, 1, 67, 64
4, 29640, Note_on_c, 1, 67, 0
4, 29640, Note_on_c, 1, 69, 64
4, 29820, Note_on_c, 1, 69, 0
4, 29820, Note_on_c, 1, 67, 64
4, 29850, Note_on_c, 1, 67, 0
4, 29850, Note_on_c, 1, 66, 64
4, 29880, Note_on_c, 1, 66, 0
4, 29880, Note_on_c, 1, 67, 64
4, 29940, Note_on_c, 1, 67, 0
4, 29940, Note_on_c, 1, 64, 64
4, 30000, Note_on_c, 1, 64, 0
4, 30000, Note_on_c, 1, 61, 64
4, 30060, Note_on_c, 1, 61, 0
4, 30060, Note_on_c, 1, 64, 64
4, 30120, Note_on_c, 1, 64, 0
4, 30120, Note_on_c, 1, 67, 64
4, 30300, Note_on_c, 1, 67, 0
4, 30300, Note_on_c, 1, 66, 64
4, 30330, Note_on_c, 1, 66, 0
4, 30330, Note_on_c, 1, 64, 64
4, 30360, Note_on_c, 1, 64, 0
4, 30360, Note_on_c, 1, 66, 64
4, 30420, Note_on_c, 1, 66, 0
4, 30420, Note_on_c, 1, 67, 64
4, 30480, Note_on_c, 1, 67, 0
4, 30480, Note_on_c, 1, 69, 64
4, 30660, Note_on_c, 1, 69, 0
4, 30660, Note_on_c, 1, 69, 64
4, 30690, Note_on_c, 1, 69, 0
4, 30690, Note_on_c, 1, 67, 64
4, 30720, Note_on_c, 1, 67, 0
4, 30720, Note_on_c, 1, 69, 64
4, 30780, Note_on_c, 1, 69, 0
4, 30780, Note_on_c, 1, 66, 64
4, 30840, Note_on_c, 1, 66, 0
4, 30840, Note_on_c, 1, 62, 64
4, 30900, Note_on_c, 1, 62, 0
4, 30900, Note_on_c, 1, 64, 64
4, 30930, Note_on_c, 1, 64, 0
4, 30930, Note_on_c, 1, 66, 64
4, 30960, Note_on_c, 1, 66, 0
4, 30960, Note_on_c, 1, 67, 64
4, 31140, Note_on_c, 1, 67, 0
4, 31140, Note_on_c, 1, 66, 64
4, 31170, Note_on_c, 1, 66, 0
4, 31170, Note_on_c, 1, 64, 64
4, 31200, Note_on_c, 1, 64, 0
4, 31200, Note_on_c, 1, 66, 64
4, 31260, Note_on_c, 1, 66, 0
4, 31260, Note_on_c, 1, 67, 64
4, 31320, Note_on_c, 1, 67, 0
4, 31320, Note_on_c, 1, 69, 64
4, 31500, Note_on_c, 1, 69, 0
4, 31500, Note_on_c, 1, 67, 64
4, 31530, Note_on_c, 1, 67, 0
4, 31530, Note_on_c, 1, 66, 64
4, 31560, Note_on_c, 1, 66, 0
4, 31560, Note_on_c, 1, 67, 64
4, 31740, Note_on_c, 1, 67, 0
4, 31740, Note_on_c, 1, 67, 64
4, 31770, Note_on_c, 1, 67, 0
4, 31770, Note_on_c, 1, 66, 64
4, 31800, Note_on_c, 1, 66, 0
4, 31800, Note_on_c, 1, 67, 64
4, 31860, Note_on_c, 1, 67, 0
4, 31860, Note_on_c, 1, 64, 64
4, 31920, Note_on_c, 1, 64, 0
4, 31920, Note_on_c, 1, 66, 64
4, 31980, Note_on_c, 1, 66, 0
4, 31980, Note_on_c, 1, 67, 64
4, 32040, Note_on_c, 1, 67, 0
4, 32040, Note_on_c, 1, 69, 64
4, 32100, Note_on_c, 1, 69, 0
4, 32100, Note_on_c, 1, 66, 64
4, 32160, Note_on_c, 1, 66, 0
4, 32160, Note_on_c, 1, 67, 64
4, 32220, Note_on_c, 1, 67, 0
4, 32220, Note_on_c, 1, 66, 64
4, 32280, Note_on_c, 1, 66, 0
4, 32280, Note_on_c, 1, 67, 64
4, 32340, Note_on_c, 1, 67, 0
4, 32340, Note_on_c, 1, 66, 64
4, 32400, Note_on_c, 1, 66, 0
4, 32400, Note_on_c, 1, 64, 64
4, 32520, Note_on_c, 1, 64, 0
4, 32580, Note_on_c, 1, 66, 64
4, 32640, Note_on_c, 1, 66, 0
4, 32640, Note_on_c, 1, 67, 64
4, 32700, Note_on_c, 1, 67, 0
4, 32700, Note_on_c, 1, 69, 64
4, 32760, Note_on_c, 1, 69, 0
4, 32760, Note_on_c, 1, 71, 64
4, 32820, Note_on_c, 1, 71, 0
4, 32820, Note_on_c, 1, 67, 64
4, 32880, Note_on_c, 1, 67, 0
4, 32880, Note_on_c, 1, 64, 64
4, 32940, Note_on_c, 1, 64, 0
4, 32940, Note_on_c, 1, 62, 64
4, 33000, Note_on_c, 1, 62, 0
4, 33000, Note_on_c, 1, 61, 64
4, 33060, Note_on_c, 1, 61, 0
4, 33120, Control_c, 1, 7, 70
4, 33120, Note_on_c, 1, 64, 64
4, 33126, Control_c, 1, 7, 71
4, 33132, Control_c, 1, 7, 72
4, 33138, Control_c, 1, 7, 73
4, 33144, Control_c, 1, 7, 74
4, 33150, Control_c, 1, 7, 75
4, 33156, Control_c, 1, 7, 76
4, 33162, Control_c, 1, 7, 77
4, 33168, Control_c, 1, 7, 78
4, 33174, Control_c, 1, 7, 79
4, 33180, Control_c, 1, 7, 80
4, 33186, Control_c, 1, 7, 81
4, 33192, Control_c, 1, 7, 82
4, 33198, Control_c, 1, 7, 83
4, 33204, Control_c, 1, 7, 84
4, 33210, Control_c, 1, 7, 85
4, 33216, Control_c, 1, 7, 86
4, 33223, Control_c, 1, 7, 87
4, 33228, Control_c, 1, 7, 88
4, 33235, Control_c, 1, 7, 89
4, 33241, Control_c, 1, 7, 90
4, 33247, Control_c, 1, 7, 91
4, 33253, Control_c, 1, 7, 92
4, 33259, Control_c, 1, 7, 93
4, 33265, Control_c, 1, 7, 94
4, 33271, Control_c, 1, 7, 95
4, 33277, Control_c, 1, 7, 96
4, 33283, Control_c, 1, 7, 97
4, 33289, Control_c, 1, 7, 98
4, 33295, Control_c, 1, 7, 99
4, 33301, Control_c, 1, 7, 100
4, 33307, Control_c, 1, 7, 101
4, 33313, Control_c, 1, 7, 102
4, 33319, Control_c, 1, 7, 103
4, 33325, Control_c, 1, 7, 104
4, 33331, Control_c, 1, 7, 105
4, 33338, Control_c, 1, 7, 106
4, 33344, Control_c, 1, 7, 107
4, 33350, Control_c, 1, 7, 108
4, 33356, Control_c, 1, 7, 109
4, 33362, Control_c, 1, 7, 110
4, 33368, Control_c, 1, 7, 111
4, 33374, Control_c, 1, 7, 112
4, 33380, Control_c, 1, 7, 113
4, 33386, Control_c, 1, 7, 114
4, 33392, Control_c, 1, 7, 115
4, 33398, Control_c, 1, 7, 116
4, 33404, Control_c, 1, 7, 117
4, 33410, Control_c, 1, 7, 118
4, 33416, Control_c, 1, 7, 119
4, 33422, Control_c, 1, 7, 120
4, 33428, Control_c, 1, 7, 121
4, 33435, Control_c, 1, 7, 122
4, 33440, Control_c, 1, 7, 123
4, 33447, Control_c, 1, 7, 124
4, 33453, Control_c, 1, 7, 125
4, 33459, Control_c, 1, 7, 126
4, 33465, Control_c, 1, 7, 127
4, 33480, Note_on_c, 1, 64, 0
4, 33480, Note_on_c, 1, 62, 64
4, 33510, Note_on_c, 1, 62, 0
4, 33510, Note_on_c, 1, 64, 64
4, 33540, Note_on_c, 1, 64, 0
4, 33540, Note_on_c, 1, 61, 64
4, 33600, Note_on_c, 1, 61, 0
4, 33600, Note_on_c, 1, 62, 64
4, 33660, Note_on_c, 1, 62, 0
4, 33660, Note_on_c, 1, 69, 64
4, 33690, Note_on_c, 1, 69, 0
4, 33690, Note_on_c, 1, 67, 64
4, 33720, Note_on_c, 1, 67, 0
4, 33720, Note_on_c, 1, 69, 64
4, 33900, Note_on_c, 1, 69, 0
4, 33900, Note_on_c, 1, 71, 64
4, 33930, Note_on_c, 1, 71, 0
4, 33930, Note_on_c, 1, 69, 64
4, 33960, Note_on_c, 1, 69, 0
4, 33960, Note_on_c, 1, 67, 64
4, 33990, Note_on_c, 1, 67, 0
4, 33990, Note_on_c, 1, 69, 64
4, 34020, Note_on_c, 1, 69, 0
4, 34020, Note_on_c, 1, 66, 64
4, 34080, Note_on_c, 1, 66, 0
4, 34080, Note_on_c, 1, 67, 64
4, 34230, Note_on_c, 1, 67, 0
4, 34230, Note_on_c, 1, 64, 64
4, 34260, Note_on_c, 1, 64, 0
4, 34260, Note_on_c, 1, 66, 64
4, 34350, Note_on_c, 1, 66, 0
4, 34350, Note_on_c, 1, 67, 64
4, 34380, Note_on_c, 1, 67, 0
4, 34380, Note_on_c, 1, 64, 64
4, 34470, Note_on_c, 1, 64, 0
4, 34470, Note_on_c, 1, 61, 64
4, 34500, Note_on_c, 1, 61, 0
4, 34500, Note_on_c, 1, 62, 64
4, 34620, Note_on_c, 1, 62, 0
4, 34620, Note_on_c, 1, 68, 64
4, 34650, Note_on_c, 1, 68, 0
4, 34650, Note_on_c, 1, 69, 64
4, 34680, Note_on_c, 1, 69, 0
4, 34680, Note_on_c, 1, 71, 64
4, 34740, Note_on_c, 1, 71, 0
4, 34740, Note_on_c, 1, 69, 64
4, 34770, Note_on_c, 1, 69, 0
4, 34770, Note_on_c, 1, 68, 64
4, 34800, Note_on_c, 1, 68, 0
4, 34800, Note_on_c, 1, 69, 64
4, 34860, Note_on_c, 1, 69, 0
4, 34860, Note_on_c, 1, 67, 64
4, 34920, Note_on_c, 1, 67, 0
4, 34920, Note_on_c, 1, 66, 64
4, 34980, Note_on_c, 1, 66, 0
4, 34980, Note_on_c, 1, 71, 64
4, 35040, Note_on_c, 1, 71, 0
4, 35040, Note_on_c, 1, 64, 64
4, 35043, Control_c, 1, 7, 70
4, 35043, Control_c, 1, 7, 71
4, 35047, Control_c, 1, 7, 72
4, 35051, Control_c, 1, 7, 73
4, 35054, Control_c, 1, 7, 74
4, 35058, Control_c, 1, 7, 75
4, 35062, Control_c, 1, 7, 76
4, 35065, Control_c, 1, 7, 77
4, 35069, Control_c, 1, 7, 78
4, 35073, Control_c, 1, 7, 79
4, 35076, Control_c, 1, 7, 80
4, 35080, Control_c, 1, 7, 81
4, 35084, Control_c, 1, 7, 82
4, 35088, Control_c, 1, 7, 83
4, 35091, Control_c, 1, 7, 84
4, 35095, Control_c, 1, 7, 85
4, 35099, Control_c, 1, 7, 86
4, 35102, Control_c, 1, 7, 87
4, 35106, Control_c, 1, 7, 88
4, 35110, Control_c, 1, 7, 89
4, 35113, Control_c, 1, 7, 90
4, 35117, Control_c, 1, 7, 91
4, 35121, Control_c, 1, 7, 92
4, 35124, Control_c, 1, 7, 93
4, 35128, Control_c, 1, 7, 94
4, 35132, Control_c, 1, 7, 95
4, 35135, Control_c, 1, 7, 96
4, 35139, Control_c, 1, 7, 97
4, 35143, Control_c, 1, 7, 98
4, 35147, Control_c, 1, 7, 99
4, 35150, Control_c, 1, 7, 100
4, 35154, Control_c, 1, 7, 101
4, 35158, Control_c, 1, 7, 102
4, 35161, Control_c, 1, 7, 103
4, 35165, Control_c, 1, 7, 104
4, 35169, Control_c, 1, 7, 105
4, 35172, Control_c, 1, 7, 106
4, 35176, Control_c, 1, 7, 107
4, 35180, Control_c, 1, 7, 108
4, 35184, Control_c, 1, 7, 109
4, 35187, Control_c, 1, 7, 110
4, 35191, Control_c, 1, 7, 111
4, 35195, Control_c, 1, 7, 112
4, 35198, Control_c, 1, 7, 113
4, 35202, Control_c, 1, 7, 114
4, 35206, Control_c, 1, 7, 115
4, 35209, Control_c, 1, 7, 116
4, 35213, Control_c, 1, 7, 117
4, 35217, Control_c, 1, 7, 118
4, 35220, Control_c, 1, 7, 119
4, 35224, Control_c, 1, 7, 120
4, 35228, Control_c, 1, 7, 121
4, 35231, Control_c, 1, 7, 122
4, 35235, Control_c, 1, 7, 123
4, 35239, Control_c, 1, 7, 124
4, 35243, Control_c, 1, 7, 125
4, 35246, Control_c, 1, 7, 126
4, 35250, Control_c, 1, 7, 127
4, 35340, Note_on_c, 1, 64, 0
4, 35340, Note_on_c, 1, 67, 64
4, 35370, Note_on_c, 1, 67, 0
4, 35370, Note_on_c, 1, 66, 64
4, 35400, Note_on_c, 1, 66, 0
4, 35400, Note_on_c, 1, 66, 64
4, 35460, Note_on_c, 1, 66, 0
4, 35460, Note_on_c, 1, 71, 64
4, 35490, Note_on_c, 1, 71, 0
4, 35490, Note_on_c, 1, 69, 64
4, 35520, Note_on_c, 1, 69, 0
4, 35520, Note_on_c, 1, 66, 64
4, 35610, Note_on_c, 1, 66, 0
4, 35610, Note_on_c, 1, 64, 64
4, 35640, Note_on_c, 1, 64, 0
4, 35640, Note_on_c, 1, 64, 64
4, 35730, Note_on_c, 1, 64, 0
4, 35730, Note_on_c, 1, 62, 64
4, 35760, Note_on_c, 1, 62, 0
4, 35760, Note_on_c, 1, 62, 64
4, 35820, Note_on_c, 1, 62, 0
4, 35820, Note_on_c, 1, 69, 64
4, 35880, Note_on_c, 1, 69, 0
4, 35880, Note_on_c, 1, 67, 64
4, 35940, Note_on_c, 1, 67, 0
4, 35940, Note_on_c, 1, 66, 64
4, 36000, Note_on_c, 1, 66, 0
4, 36000, Note_on_c, 1, 67, 64
4, 36060, Note_on_c, 1, 67, 0
4, 36060, Note_on_c, 1, 64, 64
4, 36120, Note_on_c, 1, 64, 0
4, 36120, Note_on_c, 1, 66, 64
4, 36180, Note_on_c, 1, 66, 0
4, 36180, Note_on_c, 1, 64, 64
4, 36240, Note_on_c, 1, 64, 0
4, 36240, Note_on_c, 1, 66, 64
4, 36300, Note_on_c, 1, 66, 0
4, 36300, Note_on_c, 1, 62, 64
4, 36360, Note_on_c, 1, 62, 0
4, 36360, Note_on_c, 1, 64, 64
4, 36420, Note_on_c, 1, 64, 0
4, 36420, Note_on_c, 1, 62, 64
4, 36450, Note_on_c, 1, 62, 0
4, 36450, Note_on_c, 1, 61, 64
4, 36480, Note_on_c, 1, 61, 0
4, 36480, Note_on_c, 1, 62, 64
4, 36570, Note_on_c, 1, 62, 0
4, 36570, Note_on_c, 1, 64, 64
4, 36600, Note_on_c, 1, 64, 0
4, 36600, Note_on_c, 1, 61, 64
4, 36690, Note_on_c, 1, 61, 0
4, 36690, Note_on_c, 1, 62, 64
4, 36720, Note_on_c, 1, 62, 0
4, 36720, Note_on_c, 1, 62, 64
4, 36729, Control_c, 1, 7, 127
4, 36840, Note_on_c, 1, 62, 0
4, 41280, End_track
5, 0, Start_track
5, 0, MIDI_port, 0
5, 0, Title_t, "Vln I,II"
5, 0, Program_c, 2, 48
5, 540, Note_on_c, 2, 62, 64
5, 600, Note_on_c, 2, 62, 0
5, 600, Note_on_c, 2, 57, 64
5, 660, Note_on_c, 2, 57, 0
5, 660, Note_on_c, 2, 59, 64
5, 720, Note_on_c, 2, 59, 0
5, 720, Note_on_c, 2, 60, 64
5, 780, Note_on_c, 2, 60, 0
5, 780, Note_on_c, 2, 69, 64
5, 810, Note_on_c, 2, 69, 0
5, 810, Note_on_c, 2, 67, 64
5, 840, Note_on_c, 2, 67, 0
5, 840, Note_on_c, 2, 66, 64
5, 870, Note_on_c, 2, 66, 0
5, 870, Note_on_c, 2, 64, 64
5, 900, Note_on_c, 2, 64, 0
5, 900, Note_on_c, 2, 62, 64
5, 930, Note_on_c, 2, 62, 0
5, 930, Note_on_c, 2, 60, 64
5, 960, Note_on_c, 2, 60, 0
5, 960, Note_on_c, 2, 59, 64
5, 990, Note_on_c, 2, 59, 0
5, 990, Note_on_c, 2, 62, 64
5, 1008, Note_on_c, 2, 62, 0
5, 1020, Note_on_c, 2, 67, 64
5, 1050, Note_on_c, 2, 67, 0
5, 1050, Note_on_c, 2, 64, 64
5, 1068, Note_on_c, 2, 64, 0
5, 1080, Note_on_c, 2, 62, 64
5, 1110, Note_on_c, 2, 62, 0
5, 1110, Note_on_c, 2, 61, 64
5, 1128, Note_on_c, 2, 61, 0
5, 1140, Note_on_c, 2, 67, 64
5, 1260, Note_on_c, 2, 67, 0
5, 1260, Note_on_c, 2, 66, 64
5, 1290, Note_on_c, 2, 66, 0
5, 1290, Note_on_c, 2, 64, 59
5, 1320, Note_on_c, 2, 64, 0
5, 1320, Note_on_c, 2, 62, 54
5, 1350, Note_on_c, 2, 62, 0
5, 1350, Note_on_c, 2, 61, 50
5, 1380, Note_on_c, 2, 61, 0
5, 1380, Note_on_c, 2, 59, 45
5, 1410, Note_on_c, 2, 59, 0
5, 1410, Note_on_c, 2, 57, 40
5, 1440, Note_on_c, 2, 57, 0
5, 1440, Note_on_c, 2, 56, 40
5, 1470, Note_on_c, 2, 56, 0
5, 1470, Note_on_c, 2, 59, 40
5, 1488, Note_on_c, 2, 59, 0
5, 1500, Note_on_c, 2, 64, 40
5, 1530, Note_on_c, 2, 64, 0
5, 1530, Note_on_c, 2, 61, 40
5, 1548, Note_on_c, 2, 61, 0
5, 1560, Note_on_c, 2, 59, 40
5, 1590, Note_on_c, 2, 59, 0
5, 1590, Note_on_c, 2, 58, 40
5, 1608, Note_on_c, 2, 58, 0
5, 1620, Note_on_c, 2, 64, 40
5, 1710, Note_on_c, 2, 64, 0
5, 1710, Note_on_c, 2, 62, 40
5, 1740, Note_on_c, 2, 62, 0
5, 1740, Note_on_c, 2, 64, 44
5, 1770, Note_on_c, 2, 64, 0
5, 1770, Note_on_c, 2, 66, 48
5, 1800, Note_on_c, 2, 66, 0
5, 1800, Note_on_c, 2, 67, 52
5, 1830, Note_on_c, 2, 67, 0
5, 1830, Note_on_c, 2, 69, 56
5, 1860, Note_on_c, 2, 69, 0
5, 1860, Note_on_c, 2, 71, 60
5, 1890, Note_on_c, 2, 71, 0
5, 1890, Note_on_c, 2, 67, 64
5, 1920, Note_on_c, 2, 67, 0
5, 1920, Note_on_c, 2, 69, 64
5, 1950, Note_on_c, 2, 69, 0
5, 1950, Note_on_c, 2, 73, 64
5, 1980, Note_on_c, 2, 73, 0
5, 1980, Note_on_c, 2, 76, 64
5, 2010, Note_on_c, 2, 76, 0
5, 2010, Note_on_c, 2, 74, 64
5, 2040, Note_on_c, 2, 74, 0
5, 2040, Note_on_c, 2, 73, 64
5, 2070, Note_on_c, 2, 73, 0
5, 2070, Note_on_c, 2, 71, 64
5, 2100, Note_on_c, 2, 71, 0
5, 2100, Note_on_c, 2, 69, 64
5, 2130, Note_on_c, 2, 69, 0
5, 2130, Note_on_c, 2, 67, 64
5, 2160, Note_on_c, 2, 67, 0
5, 2160, Note_on_c, 2, 66, 64
5, 2190, Note_on_c, 2, 66, 0
5, 2190, Note_on_c, 2, 69, 64
5, 2220, Note_on_c, 2, 69, 0
5, 2220, Note_on_c, 2, 74, 64
5, 2250, Note_on_c, 2, 74, 0
5, 2250, Note_on_c, 2, 72, 64
5, 2280, Note_on_c, 2, 72, 0
5, 2280, Note_on_c, 2, 71, 64
5, 2310, Note_on_c, 2, 71, 0
5, 2310, Note_on_c, 2, 69, 64
5, 2340, Note_on_c, 2, 69, 0
5, 2340, Note_on_c, 2, 67, 64
5, 2370, Note_on_c, 2, 67, 0
5, 2370, Note_on_c, 2, 66, 64
5, 2400, Note_on_c, 2, 66, 0
5, 2400, Note_on_c, 2, 64, 30
5, 2550, Note_on_c, 2, 64, 0
5, 2550, Note_on_c, 2, 66, 34
5, 2580, Note_on_c, 2, 66, 0
5, 2580, Note_on_c, 2, 64, 34
5, 2610, Note_on_c, 2, 64, 0
5, 2610, Note_on_c, 2, 62, 35
5, 2640, Note_on_c, 2, 62, 0
5, 2640, Note_on_c, 2, 61, 36
5, 2670, Note_on_c, 2, 61, 0
5, 2670, Note_on_c, 2, 62, 36
5, 2700, Note_on_c, 2, 62, 0
5, 2700, Note_on_c, 2, 64, 37
5, 2730, Note_on_c, 2, 64, 0
5, 2730, Note_on_c, 2, 67, 38
5, 2748, Note_on_c, 2, 67, 0
5, 2760, Note_on_c, 2, 57, 39
5, 2778, Note_on_c, 2, 57, 0
5, 2790, Note_on_c, 2, 66, 39
5, 2820, Note_on_c, 2, 66, 0
5, 2820, Note_on_c, 2, 64, 40
5, 2850, Note_on_c, 2, 64, 0
5, 2850, Note_on_c, 2, 62, 41
5, 2880, Note_on_c, 2, 62, 0
5, 2880, Note_on_c, 2, 61, 41
5, 2910, Note_on_c, 2, 61, 0
5, 2910, Note_on_c, 2, 62, 42
5, 2940, Note_on_c, 2, 62, 0
5, 2940, Note_on_c, 2, 64, 43
5, 2970, Note_on_c, 2, 64, 0
5, 2970, Note_on_c, 2, 67, 43
5, 2988, Note_on_c, 2, 67, 0
5, 3000, Note_on_c, 2, 57, 44
5, 3018, Note_on_c, 2, 57, 0
5, 3030, Note_on_c, 2, 71, 45
5, 3060, Note_on_c, 2, 71, 0
5, 3060, Note_on_c, 2, 69, 46
5, 3090, Note_on_c, 2, 69, 0
5, 3090, Note_on_c, 2, 67, 46
5, 3120, Note_on_c, 2, 67, 0
5, 3120, Note_on_c, 2, 66, 47
5, 3150, Note_on_c, 2, 66, 0
5, 3150, Note_on_c, 2, 67, 48
5, 3180, Note_on_c, 2, 67, 0
5, 3180, Note_on_c, 2, 69, 48
5, 3210, Note_on_c, 2, 69, 0
5, 3210, Note_on_c, 2, 72, 49
5, 3228, Note_on_c, 2, 72, 0
5, 3240, Note_on_c, 2, 62, 50
5, 3258, Note_on_c, 2, 62, 0
5, 3270, Note_on_c, 2, 71, 51
5, 3300, Note_on_c, 2, 71, 0
5, 3300, Note_on_c, 2, 69, 51
5, 3330, Note_on_c, 2, 69, 0
5, 3330, Note_on_c, 2, 67, 52
5, 3360, Note_on_c, 2, 67, 0
5, 3360, Note_on_c, 2, 66, 53
5, 3390, Note_on_c, 2, 66, 0
5, 3390, Note_on_c, 2, 67, 53
5, 3420, Note_on_c, 2, 67, 0
5, 3420, Note_on_c, 2, 69, 54
5, 3450, Note_on_c, 2, 69, 0
5, 3450, Note_on_c, 2, 72, 55
5, 3468, Note_on_c, 2, 72, 0
5, 3480, Note_on_c, 2, 62, 56
5, 3498, Note_on_c, 2, 62, 0
5, 3510, Note_on_c, 2, 76, 56
5, 3540, Note_on_c, 2, 76, 0
5, 3540, Note_on_c, 2, 74, 57
5, 3570, Note_on_c, 2, 74, 0
5, 3570, Note_on_c, 2, 72, 58
5, 3600, Note_on_c, 2, 72, 0
5, 3600, Note_on_c, 2, 71, 58
5, 3618, Note_on_c, 2, 71, 0
5, 3630, Note_on_c, 2, 76, 59
5, 3660, Note_on_c, 2, 76, 0
5, 3660, Note_on_c, 2, 78, 60
5, 3690, Note_on_c, 2, 78, 0
5, 3690, Note_on_c, 2, 79, 60
5, 3720, Note_on_c, 2, 79, 0
5, 3720, Note_on_c, 2, 69, 61
5, 3738, Note_on_c, 2, 69, 0
5, 3750, Note_on_c, 2, 72, 62
5, 3780, Note_on_c, 2, 72, 0
5, 3780, Note_on_c, 2, 71, 63
5, 3810, Note_on_c, 2, 71, 0
5, 3810, Note_on_c, 2, 69, 63
5, 3840, Note_on_c, 2, 69, 0
5, 3840, Note_on_c, 2, 67, 64
5, 3858, Note_on_c, 2, 67, 0
5, 3870, Note_on_c, 2, 73, 64
5, 3900, Note_on_c, 2, 73, 0
5, 3900, Note_on_c, 2, 74, 64
5, 3930, Note_on_c, 2, 74, 0
5, 3930, Note_on_c, 2, 76, 64
5, 3960, Note_on_c, 2, 76, 0
5, 3960, Note_on_c, 2, 66, 64
5, 3978, Note_on_c, 2, 66, 0
5, 3990, Note_on_c, 2, 69, 64
5, 4020, Note_on_c, 2, 69, 0
5, 4020, Note_on_c, 2, 67, 64
5, 4050, Note_on_c, 2, 67, 0
5, 4050, Note_on_c, 2, 66, 64
5, 4080, Note_on_c, 2, 66, 0
5, 4080, Note_on_c, 2, 64, 64
5, 4098, Note_on_c, 2, 64, 0
5, 4110, Note_on_c, 2, 69, 64
5, 4140, Note_on_c, 2, 69, 0
5, 4140, Note_on_c, 2, 71, 64
5, 4170, Note_on_c, 2, 71, 0
5, 4170, Note_on_c, 2, 73, 64
5, 4200, Note_on_c, 2, 73, 0
5, 4200, Note_on_c, 2, 62, 64
5, 4218, Note_on_c, 2, 62, 0
5, 4230, Note_on_c, 2, 66, 64
5, 4260, Note_on_c, 2, 66, 0
5, 4260, Note_on_c, 2, 64, 64
5, 4290, Note_on_c, 2, 64, 0
5, 4290, Note_on_c, 2, 62, 64
5, 4320, Note_on_c, 2, 62, 0
5, 4320, Note_on_c, 2, 61, 64
5, 4350, Note_on_c, 2, 61, 0
5, 4350, Note_on_c, 2, 57, 64
5, 4380, Note_on_c, 2, 57, 0
5, 4380, Note_on_c, 2, 59, 64
5, 4410, Note_on_c, 2, 59, 0
5, 4410, Note_on_c, 2, 61, 64
5, 4440, Note_on_c, 2, 61, 0
5, 4440, Note_on_c, 2, 62, 64
5, 4470, Note_on_c, 2, 62, 0
5, 4470, Note_on_c, 2, 64, 64
5, 4500, Note_on_c, 2, 64, 0
5, 4500, Note_on_c, 2, 66, 64
5, 4530, Note_on_c, 2, 66, 0
5, 4530, Note_on_c, 2, 64, 64
5, 4548, Note_on_c, 2, 64, 0
5, 4560, Note_on_c, 2, 67, 64
5, 4590, Note_on_c, 2, 67, 0
5, 4590, Note_on_c, 2, 66, 64
5, 4608, Note_on_c, 2, 66, 0
5, 4620, Note_on_c, 2, 71, 64
5, 4650, Note_on_c, 2, 71, 0
5, 4650, Note_on_c, 2, 69, 64
5, 4668, Note_on_c, 2, 69, 0
5, 4680, Note_on_c, 2, 67, 64
5, 4710, Note_on_c, 2, 67, 0
5, 4710, Note_on_c, 2, 66, 64
5, 4740, Note_on_c, 2, 66, 0
5, 4740, Note_on_c, 2, 64, 64
5, 4770, Note_on_c, 2, 64, 0
5, 4770, Note_on_c, 2, 62, 64
5, 4800, Note_on_c, 2, 62, 0
5, 4800, Control_c, 2, 7, 80
5, 4800, Note_on_c, 2, 62, 64
5, 4920, Note_on_c, 2, 62, 0
5, 5280, Note_on_c, 2, 62, 64
5, 5400, Note_on_c, 2, 62, 0
5, 5820, Note_on_c, 2, 62, 64
5, 5880, Note_on_c, 2, 62, 0
5, 5880, Note_on_c, 2, 57, 64
5, 5940, Note_on_c, 2, 57, 0
5, 5940, Note_on_c, 2, 59, 64
5, 6000, Note_on_c, 2, 59, 0
5, 6000, Note_on_c, 2, 60, 64
5, 6060, Note_on_c, 2, 60, 0
5, 6060, Note_on_c, 2, 69, 64
5, 6090, Note_on_c, 2, 69, 0
5, 6090, Note_on_c, 2, 67, 64
5, 6120, Note_on_c, 2, 67, 0
5, 6120, Note_on_c, 2, 66, 64
5, 6150, Note_on_c, 2, 66, 0
5, 6150, Note_on_c, 2, 64, 64
5, 6180, Note_on_c, 2, 64, 0
5, 6180, Note_on_c, 2, 62, 64
5, 6210, Note_on_c, 2, 62, 0
5, 6210, Note_on_c, 2, 60, 64
5, 6240, Note_on_c, 2, 60, 0
5, 6240, Note_on_c, 2, 59, 64
5, 6270, Note_on_c, 2, 59, 0
5, 6270, Note_on_c, 2, 62, 64
5, 6288, Note_on_c, 2, 62, 0
5, 6300, Note_on_c, 2, 67, 64
5, 6330, Note_on_c, 2, 67, 0
5, 6330, Note_on_c, 2, 64, 64
5, 6348, Note_on_c, 2, 64, 0
5, 6360, Note_on_c, 2, 62, 64
5, 6390, Note_on_c, 2, 62, 0
5, 6390, Note_on_c, 2, 61, 64
5, 6408, Note_on_c, 2, 61, 0
5, 6420, Note_on_c, 2, 67, 64
5, 6510, Note_on_c, 2, 67, 0
5, 6510, Note_on_c, 2, 66, 64
5, 6540, Note_on_c, 2, 66, 0
5, 6540, Note_on_c, 2, 67, 64
5, 6570, Note_on_c, 2, 67, 0
5, 6570, Note_on_c, 2, 69, 64
5, 6600, Note_on_c, 2, 69, 0
5, 6600, Note_on_c, 2, 57, 64
5, 6618, Note_on_c, 2, 57, 0
5, 6630, Note_on_c, 2, 71, 64
5, 6660, Note_on_c, 2, 71, 0
5, 6660, Note_on_c, 2, 69, 64
5, 6690, Note_on_c, 2, 69, 0
5, 6690, Note_on_c, 2, 67, 64
5, 6720, Note_on_c, 2, 67, 0
5, 6720, Note_on_c, 2, 66, 64
5, 6750, Note_on_c, 2, 66, 0
5, 6750, Note_on_c, 2, 67, 64
5, 6780, Note_on_c, 2, 67, 0
5, 6780, Note_on_c, 2, 66, 64
5, 6810, Note_on_c, 2, 66, 0
5, 6810, Note_on_c, 2, 64, 64
5, 6840, Note_on_c, 2, 64, 0
5, 6840, Note_on_c, 2, 62, 64
5, 6870, Note_on_c, 2, 62, 0
5, 6870, Note_on_c, 2, 61, 64
5, 6900, Note_on_c, 2, 61, 0
5, 6900, Note_on_c, 2, 59, 64
5, 6930, Note_on_c, 2, 59, 0
5, 6930, Note_on_c, 2, 57, 64
5, 6960, Note_on_c, 2, 57, 0
5, 6960, Note_on_c, 2, 59, 64
5, 7020, Note_on_c, 2, 59, 0
5, 7500, Note_on_c, 2, 78, 64
5, 7530, Note_on_c, 2, 78, 0
5, 7530, Note_on_c, 2, 76, 64
5, 7560, Note_on_c, 2, 76, 0
5, 7560, Note_on_c, 2, 74, 64
5, 7590, Note_on_c, 2, 74, 0
5, 7590, Note_on_c, 2, 73, 64
5, 7620, Note_on_c, 2, 73, 0
5, 7620, Note_on_c, 2, 71, 64
5, 7650, Note_on_c, 2, 71, 0
5, 7650, Note_on_c, 2, 69, 64
5, 7680, Note_on_c, 2, 69, 0
5, 7680, Note_on_c, 2, 71, 64
5, 7710, Note_on_c, 2, 71, 0
5, 7710, Note_on_c, 2, 73, 64
5, 7740, Note_on_c, 2, 73, 0
5, 7740, Note_on_c, 2, 74, 64
5, 7770, Note_on_c, 2, 74, 0
5, 7770, Note_on_c, 2, 73, 64
5, 7800, Note_on_c, 2, 73, 0
5, 7800, Note_on_c, 2, 71, 64
5, 7830, Note_on_c, 2, 71, 0
5, 7830, Note_on_c, 2, 69, 64
5, 7860, Note_on_c, 2, 69, 0
5, 7860, Note_on_c, 2, 68, 64
5, 7890, Note_on_c, 2, 68, 0
5, 7890, Note_on_c, 2, 66, 64
5, 7920, Note_on_c, 2, 66, 0
5, 7920, Note_on_c, 2, 71, 64
5, 7938, Note_on_c, 2, 71, 0
5, 7950, Note_on_c, 2, 62, 64
5, 7980, Note_on_c, 2, 62, 0
5, 7980, Note_on_c, 2, 64, 64
5, 8010, Note_on_c, 2, 64, 0
5, 8010, Note_on_c, 2, 66, 64
5, 8040, Note_on_c, 2, 66, 0
5, 8040, Note_on_c, 2, 59, 64
5, 8058, Note_on_c, 2, 59, 0
5, 8070, Note_on_c, 2, 62, 64
5, 8100, Note_on_c, 2, 62, 0
5, 8100, Note_on_c, 2, 61, 64
5, 8130, Note_on_c, 2, 61, 0
5, 8130, Note_on_c, 2, 59, 64
5, 8160, Note_on_c, 2, 59, 0
5, 8160, Note_on_c, 2, 57, 64
5, 8220, Note_on_c, 2, 57, 0
5, 8220, Note_on_c, 2, 57, 64
5, 8280, Note_on_c, 2, 57, 0
5, 8280, Note_on_c, 2, 57, 64
5, 8340, Note_on_c, 2, 57, 0
5, 8340, Note_on_c, 2, 57, 64
5, 8400, Note_on_c, 2, 57, 0
5, 8400, Note_on_c, 2, 57, 64
5, 8460, Note_on_c, 2, 57, 0
5, 8460, Note_on_c, 2, 57, 64
5, 8520, Note_on_c, 2, 57, 0
5, 8520, Note_on_c, 2, 57, 64
5, 8580, Note_on_c, 2, 57, 0
5, 8580, Note_on_c, 2, 62, 64
5, 8670, Note_on_c, 2, 62, 0
5, 8670, Note_on_c, 2, 59, 64
5, 8700, Note_on_c, 2, 59, 0
5, 8700, Note_on_c, 2, 60, 64
5, 8730, Note_on_c, 2, 60, 0
5, 8730, Note_on_c, 2, 62, 64
5, 8760, Note_on_c, 2, 62, 0
5, 8760, Note_on_c, 2, 56, 64
5, 8778, Note_on_c, 2, 56, 0
5, 8790, Note_on_c, 2, 59, 64
5, 8820, Note_on_c, 2, 59, 0
5, 8820, Note_on_c, 2, 57, 64
5, 8850, Note_on_c, 2, 57, 0
5, 8850, Note_on_c, 2, 56, 64
5, 8880, Note_on_c, 2, 56, 0
5, 8880, Note_on_c, 2, 57, 64
5, 9000, Note_on_c, 2, 57, 0
5, 9360, Note_on_c, 2, 57, 64
5, 9480, Note_on_c, 2, 57, 0
5, 9900, Note_on_c, 2, 69, 64
5, 9960, Note_on_c, 2, 69, 0
5, 9960, Note_on_c, 2, 64, 64
5, 10020, Note_on_c, 2, 64, 0
5, 10020, Note_on_c, 2, 66, 64
5, 10080, Note_on_c, 2, 66, 0
5, 10080, Note_on_c, 2, 67, 64
5, 10140, Note_on_c, 2, 67, 0
5, 10140, Note_on_c, 2, 76, 64
5, 10170, Note_on_c, 2, 76, 0
5, 10170, Note_on_c, 2, 74, 64
5, 10200, Note_on_c, 2, 74, 0
5, 10200, Note_on_c, 2, 73, 64
5, 10230, Note_on_c, 2, 73, 0
5, 10230, Note_on_c, 2, 71, 64
5, 10260, Note_on_c, 2, 71, 0
5, 10260, Note_on_c, 2, 69, 64
5, 10290, Note_on_c, 2, 69, 0
5, 10290, Note_on_c, 2, 67, 64
5, 10320, Note_on_c, 2, 67, 0
5, 10320, Note_on_c, 2, 66, 64
5, 10350, Note_on_c, 2, 66, 0
5, 10350, Note_on_c, 2, 69, 64
5, 10368, Note_on_c, 2, 69, 0
5, 10380, Note_on_c, 2, 74, 64
5, 10410, Note_on_c, 2, 74, 0
5, 10410, Note_on_c, 2, 71, 64
5, 10428, Note_on_c, 2, 71, 0
5, 10440, Note_on_c, 2, 69, 64
5, 10470, Note_on_c, 2, 69, 0
5, 10470, Note_on_c, 2, 68, 64
5, 10488, Note_on_c, 2, 68, 0
5, 10500, Note_on_c, 2, 74, 64
5, 10590, Note_on_c, 2, 74, 0
5, 10590, Note_on_c, 2, 73, 64
5, 10620, Note_on_c, 2, 73, 0
5, 10620, Note_on_c, 2, 74, 64
5, 10650, Note_on_c, 2, 74, 0
5, 10650, Note_on_c, 2, 76, 64
5, 10680, Note_on_c, 2, 76, 0
5, 10680, Note_on_c, 2, 64, 64
5, 10698, Note_on_c, 2, 64, 0
5, 10710, Note_on_c, 2, 78, 64
5, 10740, Note_on_c, 2, 78, 0
5, 10740, Note_on_c, 2, 76, 64
5, 10770, Note_on_c, 2, 76, 0
5, 10770, Note_on_c, 2, 74, 64
5, 10800, Note_on_c, 2, 74, 0
5, 10800, Note_on_c, 2, 73, 64
5, 10830, Note_on_c, 2, 73, 0
5, 10830, Note_on_c, 2, 74, 64
5, 10860, Note_on_c, 2, 74, 0
5, 10860, Note_on_c, 2, 73, 64
5, 10890, Note_on_c, 2, 73, 0
5, 10890, Note_on_c, 2, 71, 64
5, 10920, Note_on_c, 2, 71, 0
5, 10920, Note_on_c, 2, 69, 64
5, 10950, Note_on_c, 2, 69, 0
5, 10950, Note_on_c, 2, 68, 64
5, 10980, Note_on_c, 2, 68, 0
5, 10980, Note_on_c, 2, 66, 64
5, 11010, Note_on_c, 2, 66, 0
5, 11010, Note_on_c, 2, 64, 64
5, 11040, Note_on_c, 2, 64, 0
5, 11040, Note_on_c, 2, 66, 64
5, 11100, Note_on_c, 2, 66, 0
5, 11580, Note_on_c, 2, 73, 64
5, 11610, Note_on_c, 2, 73, 0
5, 11610, Note_on_c, 2, 71, 64
5, 11640, Note_on_c, 2, 71, 0
5, 11640, Note_on_c, 2, 69, 64
5, 11670, Note_on_c, 2, 69, 0
5, 11670, Note_on_c, 2, 68, 64
5, 11700, Note_on_c, 2, 68, 0
5, 11700, Note_on_c, 2, 66, 64
5, 11730, Note_on_c, 2, 66, 0
5, 11730, Note_on_c, 2, 64, 64
5, 11760, Note_on_c, 2, 64, 0
5, 11760, Note_on_c, 2, 66, 64
5, 11790, Note_on_c, 2, 66, 0
5, 11790, Note_on_c, 2, 68, 64
5, 11820, Note_on_c, 2, 68, 0
5, 11820, Note_on_c, 2, 69, 64
5, 11850, Note_on_c, 2, 69, 0
5, 11850, Note_on_c, 2, 68, 64
5, 11880, Note_on_c, 2, 68, 0
5, 11880, Note_on_c, 2, 66, 64
5, 11910, Note_on_c, 2, 66, 0
5, 11910, Note_on_c, 2, 64, 64
5, 11940, Note_on_c, 2, 64, 0
5, 11940, Note_on_c, 2, 63, 64
5, 11970, Note_on_c, 2, 63, 0
5, 11970, Note_on_c, 2, 61, 64
5, 12000, Note_on_c, 2, 61, 0
5, 12000, Note_on_c, 2, 66, 64
5, 12030, Note_on_c, 2, 66, 0
5, 12030, Note_on_c, 2, 69, 64
5, 12060, Note_on_c, 2, 69, 0
5, 12060, Note_on_c, 2, 71, 64
5, 12090, Note_on_c, 2, 71, 0
5, 12090, Note_on_c, 2, 73, 64
5, 12108, Note_on_c, 2, 73, 0
5, 12120, Note_on_c, 2, 66, 64
5, 12138, Note_on_c, 2, 66, 0
5, 12150, Note_on_c, 2, 69, 64
5, 12180, Note_on_c, 2, 69, 0
5, 12180, Note_on_c, 2, 68, 64
5, 12210, Note_on_c, 2, 68, 0
5, 12210, Note_on_c, 2, 66, 64
5, 12240, Note_on_c, 2, 66, 0
5, 12240, Note_on_c, 2, 64, 64
5, 12300, Note_on_c, 2, 64, 0
5, 12300, Note_on_c, 2, 64, 64
5, 12360, Note_on_c, 2, 64, 0
5, 12360, Note_on_c, 2, 64, 64
5, 12420, Note_on_c, 2, 64, 0
5, 12420, Note_on_c, 2, 64, 64
5, 12480, Note_on_c, 2, 64, 0
5, 12480, Note_on_c, 2, 64, 64
5, 12540, Note_on_c, 2, 64, 0
5, 12540, Note_on_c, 2, 64, 64
5, 12600, Note_on_c, 2, 64, 0
5, 12600, Note_on_c, 2, 64, 64
5, 12660, Note_on_c, 2, 64, 0
5, 12660, Note_on_c, 2, 69, 64
5, 12780, Note_on_c, 2, 69, 0
5, 12780, Note_on_c, 2, 71, 64
5, 12840, Note_on_c, 2, 71, 0
5, 12840, Note_on_c, 2, 66, 64
5, 12900, Note_on_c, 2, 66, 0
5, 12900, Note_on_c, 2, 68, 64
5, 12960, Note_on_c, 2, 68, 0
5, 12960, Note_on_c, 2, 69, 64
5, 13020, Note_on_c, 2, 69, 0
5, 13020, Note_on_c, 2, 78, 64
5, 13050, Note_on_c, 2, 78, 0
5, 13050, Note_on_c, 2, 76, 64
5, 13080, Note_on_c, 2, 76, 0
5, 13080, Note_on_c, 2, 75, 64
5, 13110, Note_on_c, 2, 75, 0
5, 13110, Note_on_c, 2, 73, 64
5, 13140, Note_on_c, 2, 73, 0
5, 13140, Note_on_c, 2, 71, 64
5, 13170, Note_on_c, 2, 71, 0
5, 13170, Note_on_c, 2, 69, 64
5, 13200, Note_on_c, 2, 69, 0
5, 13200, Note_on_c, 2, 68, 64
5, 13230, Note_on_c, 2, 68, 0
5, 13230, Note_on_c, 2, 69, 64
5, 13260, Note_on_c, 2, 69, 0
5, 13260, Note_on_c, 2, 71, 64
5, 13290, Note_on_c, 2, 71, 0
5, 13290, Note_on_c, 2, 74, 64
5, 13308, Note_on_c, 2, 74, 0
5, 13320, Note_on_c, 2, 64, 64
5, 13338, Note_on_c, 2, 64, 0
5, 13350, Note_on_c, 2, 73, 64
5, 13380, Note_on_c, 2, 73, 0
5, 13380, Note_on_c, 2, 71, 64
5, 13410, Note_on_c, 2, 71, 0
5, 13410, Note_on_c, 2, 69, 64
5, 13440, Note_on_c, 2, 69, 0
5, 13440, Note_on_c, 2, 68, 64
5, 13470, Note_on_c, 2, 68, 0
5, 13470, Note_on_c, 2, 69, 64
5, 13500, Note_on_c, 2, 69, 0
5, 13500, Note_on_c, 2, 71, 64
5, 13530, Note_on_c, 2, 71, 0
5, 13530, Note_on_c, 2, 74, 64
5, 13548, Note_on_c, 2, 74, 0
5, 13560, Note_on_c, 2, 64, 64
5, 13578, Note_on_c, 2, 64, 0
5, 13590, Note_on_c, 2, 66, 64
5, 13620, Note_on_c, 2, 66, 0
5, 13620, Note_on_c, 2, 64, 64
5, 13650, Note_on_c, 2, 64, 0
5, 13650, Note_on_c, 2, 62, 64
5, 13680, Note_on_c, 2, 62, 0
5, 13680, Note_on_c, 2, 61, 64
5, 13710, Note_on_c, 2, 61, 0
5, 13710, Note_on_c, 2, 62, 64
5, 13740, Note_on_c, 2, 62, 0
5, 13740, Note_on_c, 2, 64, 64
5, 13770, Note_on_c, 2, 64, 0
5, 13770, Note_on_c, 2, 67, 64
5, 13788, Note_on_c, 2, 67, 0
5, 13800, Note_on_c, 2, 57, 64
5, 13818, Note_on_c, 2, 57, 0
5, 13830, Note_on_c, 2, 66, 64
5, 13860, Note_on_c, 2, 66, 0
5, 13860, Note_on_c, 2, 64, 64
5, 13890, Note_on_c, 2, 64, 0
5, 13890, Note_on_c, 2, 62, 64
5, 13920, Note_on_c, 2, 62, 0
5, 13920, Note_on_c, 2, 61, 64
5, 13950, Note_on_c, 2, 61, 0
5, 13950, Note_on_c, 2, 62, 64
5, 13980, Note_on_c, 2, 62, 0
5, 13980, Note_on_c, 2, 64, 64
5, 14010, Note_on_c, 2, 64, 0
5, 14010, Note_on_c, 2, 67, 64
5, 14028, Note_on_c, 2, 67, 0
5, 14040, Note_on_c, 2, 57, 64
5, 14058, Note_on_c, 2, 57, 0
5, 14070, Note_on_c, 2, 71, 64
5, 14100, Note_on_c, 2, 71, 0
5, 14100, Note_on_c, 2, 69, 64
5, 14130, Note_on_c, 2, 69, 0
5, 14130, Note_on_c, 2, 67, 64
5, 14160, Note_on_c, 2, 67, 0
5, 14160, Note_on_c, 2, 66, 64
5, 14178, Note_on_c, 2, 66, 0
5, 14190, Note_on_c, 2, 71, 64
5, 14220, Note_on_c, 2, 71, 0
5, 14220, Note_on_c, 2, 73, 64
5, 14250, Note_on_c, 2, 73, 0
5, 14250, Note_on_c, 2, 74, 64
5, 14280, Note_on_c, 2, 74, 0
5, 14280, Note_on_c, 2, 64, 64
5, 14298, Note_on_c, 2, 64, 0
5, 14310, Note_on_c, 2, 67, 64
5, 14340, Note_on_c, 2, 67, 0
5, 14340, Note_on_c, 2, 66, 64
5, 14370, Note_on_c, 2, 66, 0
5, 14370, Note_on_c, 2, 64, 64
5, 14400, Note_on_c, 2, 64, 0
5, 14400, Note_on_c, 2, 62, 64
5, 14418, Note_on_c, 2, 62, 0
5, 14430, Note_on_c, 2, 68, 64
5, 14460, Note_on_c, 2, 68, 0
5, 14460, Note_on_c, 2, 69, 64
5, 14490, Note_on_c, 2, 69, 0
5, 14490, Note_on_c, 2, 71, 64
5, 14520, Note_on_c, 2, 71, 0
5, 14520, Note_on_c, 2, 61, 64
5, 14538, Note_on_c, 2, 61, 0
5, 14550, Note_on_c, 2, 64, 64
5, 14580, Note_on_c, 2, 64, 0
5, 14580, Note_on_c, 2, 62, 64
5, 14610, Note_on_c, 2, 62, 0
5, 14610, Note_on_c, 2, 61, 64
5, 14640, Note_on_c, 2, 61, 0
5, 14640, Note_on_c, 2, 59, 64
5, 14658, Note_on_c, 2, 59, 0
5, 14670, Note_on_c, 2, 64, 64
5, 14700, Note_on_c, 2, 64, 0
5, 14700, Note_on_c, 2, 66, 64
5, 14730, Note_on_c, 2, 66, 0
5, 14730, Note_on_c, 2, 68, 64
5, 14760, Note_on_c, 2, 68, 0
5, 14760, Note_on_c, 2, 57, 64
5, 14778, Note_on_c, 2, 57, 0
5, 14790, Note_on_c, 2, 61, 64
5, 14820, Note_on_c, 2, 61, 0
5, 14820, Note_on_c, 2, 59, 64
5, 14850, Note_on_c, 2, 59, 0
5, 14850, Note_on_c, 2, 57, 64
5, 14880, Note_on_c, 2, 57, 0
5, 14880, Note_on_c, 2, 56, 64
5, 14898, Note_on_c, 2, 56, 0
5, 14910, Note_on_c, 2, 64, 64
5, 14940, Note_on_c, 2, 64, 0
5, 14940, Note_on_c, 2, 66, 64
5, 14970, Note_on_c, 2, 66, 0
5, 14970, Note_on_c, 2, 68, 64
5, 15000, Note_on_c, 2, 68, 0
5, 15000, Note_on_c, 2, 69, 64
5, 15030, Note_on_c, 2, 69, 0
5, 15030, Note_on_c, 2, 71, 64
5, 15048, Note_on_c, 2, 71, 0
5, 15060, Note_on_c, 2, 73, 64
5, 15090, Note_on_c, 2, 73, 0
5, 15090, Note_on_c, 2, 71, 64
5, 15108, Note_on_c, 2, 71, 0
5, 15120, Note_on_c, 2, 74, 64
5, 15150, Note_on_c, 2, 74, 0
5, 15150, Note_on_c, 2, 73, 64
5, 15168, Note_on_c, 2, 73, 0
5, 15180, Note_on_c, 2, 78, 64
5, 15210, Note_on_c, 2, 78, 0
5, 15210, Note_on_c, 2, 76, 64
5, 15228, Note_on_c, 2, 76, 0
5, 15240, Note_on_c, 2, 74, 64
5, 15270, Note_on_c, 2, 74, 0
5, 15270, Note_on_c, 2, 73, 64
5, 15300, Note_on_c, 2, 73, 0
5, 15300, Note_on_c, 2, 71, 64
5, 15330, Note_on_c, 2, 71, 0
5, 15330, Note_on_c, 2, 69, 64
5, 15348, Note_on_c, 2, 69, 0
5, 15360, Note_on_c, 2, 74, 64
5, 15420, Note_on_c, 2, 74, 0
5, 15840, Control_c, 2, 7, 127
5, 15900, Note_on_c, 2, 69, 64
5, 15960, Note_on_c, 2, 69, 0
5, 15960, Note_on_c, 2, 64, 64
5, 16020, Note_on_c, 2, 64, 0
5, 16020, Note_on_c, 2, 66, 64
5, 16080, Note_on_c, 2, 66, 0
5, 16080, Note_on_c, 2, 67, 64
5, 16140, Note_on_c, 2, 67, 0
5, 16140, Note_on_c, 2, 76, 64
5, 16170, Note_on_c, 2, 76, 0
5, 16170, Note_on_c, 2, 74, 64
5, 16200, Note_on_c, 2, 74, 0
5, 16200, Note_on_c, 2, 73, 64
5, 16230, Note_on_c, 2, 73, 0
5, 16230, Note_on_c, 2, 71, 64
5, 16260, Note_on_c, 2, 71, 0
5, 16260, Note_on_c, 2, 69, 64
5, 16290, Note_on_c, 2, 69, 0
5, 16290, Note_on_c, 2, 67, 64
5, 16320, Note_on_c, 2, 67, 0
5, 16320, Note_on_c, 2, 66, 64
5, 16350, Note_on_c, 2, 66, 0
5, 16350, Note_on_c, 2, 69, 64
5, 16368, Note_on_c, 2, 69, 0
5, 16380, Note_on_c, 2, 74, 64
5, 16410, Note_on_c, 2, 74, 0
5, 16410, Note_on_c, 2, 71, 64
5, 16428, Note_on_c, 2, 71, 0
5, 16440, Note_on_c, 2, 69, 64
5, 16470, Note_on_c, 2, 69, 0
5, 16470, Note_on_c, 2, 68, 64
5, 16488, Note_on_c, 2, 68, 0
5, 16500, Note_on_c, 2, 74, 64
5, 16620, Note_on_c, 2, 74, 0
5, 16620, Note_on_c, 2, 73, 64
5, 16650, Note_on_c, 2, 73, 0
5, 16650, Note_on_c, 2, 71, 64
5, 16680, Note_on_c, 2, 71, 0
5, 16680, Note_on_c, 2, 69, 64
5, 16710, Note_on_c, 2, 69, 0
5, 16710, Note_on_c, 2, 68, 64
5, 16740, Note_on_c, 2, 68, 0
5, 16740, Note_on_c, 2, 66, 64
5, 16770, Note_on_c, 2, 66, 0
5, 16770, Note_on_c, 2, 64, 64
5, 16800, Note_on_c, 2, 64, 0
5, 16800, Note_on_c, 2, 63, 64
5, 16830, Note_on_c, 2, 63, 0
5, 16830, Note_on_c, 2, 66, 64
5, 16848, Note_on_c, 2, 66, 0
5, 16860, Note_on_c, 2, 71, 64
5, 16890, Note_on_c, 2, 71, 0
5, 16890, Note_on_c, 2, 68, 64
5, 16908, Note_on_c, 2, 68, 0
5, 16920, Note_on_c, 2, 66, 64
5, 16950, Note_on_c, 2, 66, 0
5, 16950, Note_on_c, 2, 65, 64
5, 16968, Note_on_c, 2, 65, 0
5, 16980, Note_on_c, 2, 71, 64
5, 17070, Note_on_c, 2, 71, 0
5, 17070, Note_on_c, 2, 69, 64
5, 17100, Note_on_c, 2, 69, 0
5, 17100, Note_on_c, 2, 71, 64
5, 17130, Note_on_c, 2, 71, 0
5, 17130, Note_on_c, 2, 73, 64
5, 17160, Note_on_c, 2, 73, 0
5, 17160, Note_on_c, 2, 74, 64
5, 17190, Note_on_c, 2, 74, 0
5, 17190, Note_on_c, 2, 76, 64
5, 17220, Note_on_c, 2, 76, 0
5, 17220, Note_on_c, 2, 78, 64
5, 17250, Note_on_c, 2, 78, 0
5, 17250, Note_on_c, 2, 74, 64
5, 17280, Note_on_c, 2, 74, 0
5, 17280, Note_on_c, 2, 76, 64
5, 17310, Note_on_c, 2, 76, 0
5, 17310, Note_on_c, 2, 80, 64
5, 17340, Note_on_c, 2, 80, 0
5, 17340, Note_on_c, 2, 83, 64
5, 17370, Note_on_c, 2, 83, 0
5, 17370, Note_on_c, 2, 81, 64
5, 17400, Note_on_c, 2, 81, 0
5, 17400, Note_on_c, 2, 80, 64
5, 17430, Note_on_c, 2, 80, 0
5, 17430, Note_on_c, 2, 78, 64
5, 17460, Note_on_c, 2, 78, 0
5, 17460, Note_on_c, 2, 76, 64
5, 17490, Note_on_c, 2, 76, 0
5, 17490, Note_on_c, 2, 74, 64
5, 17520, Note_on_c, 2, 74, 0
5, 17520, Note_on_c, 2, 73, 64
5, 17550, Note_on_c, 2, 73, 0
5, 17550, Note_on_c, 2, 76, 64
5, 17580, Note_on_c, 2, 76, 0
5, 17580, Note_on_c, 2, 81, 64
5, 17610, Note_on_c, 2, 81, 0
5, 17610, Note_on_c, 2, 79, 64
5, 17640, Note_on_c, 2, 79, 0
5, 17640, Note_on_c, 2, 78, 64
5, 17670, Note_on_c, 2, 78, 0
5, 17670, Note_on_c, 2, 76, 64
5, 17700, Note_on_c, 2, 76, 0
5, 17700, Note_on_c, 2, 74, 64
5, 17730, Note_on_c, 2, 74, 0
5, 17730, Note_on_c, 2, 73, 64
5, 17760, Note_on_c, 2, 73, 0
5, 17760, Note_on_c, 2, 71, 40
5, 17910, Note_on_c, 2, 71, 0
5, 17910, Note_on_c, 2, 73, 44
5, 17940, Note_on_c, 2, 73, 0
5, 17940, Note_on_c, 2, 71, 45
5, 17970, Note_on_c, 2, 71, 0
5, 17970, Note_on_c, 2, 69, 45
5, 18000, Note_on_c, 2, 69, 0
5, 18000, Note_on_c, 2, 68, 46
5, 18018, Note_on_c, 2, 68, 0
5, 18030, Note_on_c, 2, 69, 47
5, 18060, Note_on_c, 2, 69, 0
5, 18060, Note_on_c, 2, 71, 48
5, 18090, Note_on_c, 2, 71, 0
5, 18090, Note_on_c, 2, 74, 48
5, 18120, Note_on_c, 2, 74, 0
5, 18120, Note_on_c, 2, 64, 49
5, 18138, Note_on_c, 2, 64, 0
5, 18150, Note_on_c, 2, 73, 50
5, 18180, Note_on_c, 2, 73, 0
5, 18180, Note_on_c, 2, 71, 51
5, 18210, Note_on_c, 2, 71, 0
5, 18210, Note_on_c, 2, 69, 51
5, 18240, Note_on_c, 2, 69, 0
5, 18240, Note_on_c, 2, 68, 52
5, 18258, Note_on_c, 2, 68, 0
5, 18270, Note_on_c, 2, 69, 53
5, 18300, Note_on_c, 2, 69, 0
5, 18300, Note_on_c, 2, 71, 54
5, 18330, Note_on_c, 2, 71, 0
5, 18330, Note_on_c, 2, 74, 54
5, 18360, Note_on_c, 2, 74, 0
5, 18360, Note_on_c, 2, 64, 55
5, 18378, Note_on_c, 2, 64, 0
5, 18390, Note_on_c, 2, 66, 56
5, 18420, Note_on_c, 2, 66, 0
5, 18420, Note_on_c, 2, 64, 57
5, 18450, Note_on_c, 2, 64, 0
5, 18450, Note_on_c, 2, 62, 57
5, 18480, Note_on_c, 2, 62, 0
5, 18480, Note_on_c, 2, 61, 58
5, 18510, Note_on_c, 2, 61, 0
5, 18510, Note_on_c, 2, 62, 59
5, 18540, Note_on_c, 2, 62, 0
5, 18540, Note_on_c, 2, 64, 60
5, 18570, Note_on_c, 2, 64, 0
5, 18570, Note_on_c, 2, 67, 60
5, 18588, Note_on_c, 2, 67, 0
5, 18600, Note_on_c, 2, 57, 61
5, 18618, Note_on_c, 2, 57, 0
5, 18630, Note_on_c, 2, 66, 62
5, 18660, Note_on_c, 2, 66, 0
5, 18660, Note_on_c, 2, 64, 63
5, 18690, Note_on_c, 2, 64, 0
5, 18690, Note_on_c, 2, 62, 63
5, 18720, Note_on_c, 2, 62, 0
5, 18720, Note_on_c, 2, 61, 64
5, 18750, Note_on_c, 2, 61, 0
5, 18750, Note_on_c, 2, 62, 64
5, 18780, Note_on_c, 2, 62, 0
5, 18780, Note_on_c, 2, 64, 64
5, 18810, Note_on_c, 2, 64, 0
5, 18810, Note_on_c, 2, 67, 64
5, 18828, Note_on_c, 2, 67, 0
5, 18840, Note_on_c, 2, 57, 64
5, 18858, Note_on_c, 2, 57, 0
5, 18870, Note_on_c, 2, 71, 64
5, 18900, Note_on_c, 2, 71, 0
5, 18900, Note_on_c, 2, 69, 64
5, 18930, Note_on_c, 2, 69, 0
5, 18930, Note_on_c, 2, 67, 64
5, 18960, Note_on_c, 2, 67, 0
5, 18960, Note_on_c, 2, 66, 64
5, 18978, Note_on_c, 2, 66, 0
5, 18990, Note_on_c, 2, 71, 64
5, 19020, Note_on_c, 2, 71, 0
5, 19020, Note_on_c, 2, 73, 64
5, 19050, Note_on_c, 2, 73, 0
5, 19050, Note_on_c, 2, 74, 64
5, 19080, Note_on_c, 2, 74, 0
5, 19080, Note_on_c, 2, 64, 64
5, 19098, Note_on_c, 2, 64, 0
5, 19110, Note_on_c, 2, 67, 64
5, 19140, Note_on_c, 2, 67, 0
5, 19140, Note_on_c, 2, 66, 64
5, 19170, Note_on_c, 2, 66, 0
5, 19170, Note_on_c, 2, 64, 64
5, 19200, Note_on_c, 2, 64, 0
5, 19200, Note_on_c, 2, 62, 64
5, 19218, Note_on_c, 2, 62, 0
5, 19230, Note_on_c, 2, 68, 64
5, 19260, Note_on_c, 2, 68, 0
5, 19260, Note_on_c, 2, 69, 64
5, 19290, Note_on_c, 2, 69, 0
5, 19290, Note_on_c, 2, 71, 64
5, 19320, Note_on_c, 2, 71, 0
5, 19320, Note_on_c, 2, 61, 64
5, 19338, Note_on_c, 2, 61, 0
5, 19350, Note_on_c, 2, 64, 64
5, 19380, Note_on_c, 2, 64, 0
5, 19380, Note_on_c, 2, 62, 64
5, 19410, Note_on_c, 2, 62, 0
5, 19410, Note_on_c, 2, 61, 64
5, 19440, Note_on_c, 2, 61, 0
5, 19440, Note_on_c, 2, 59, 64
5, 19458, Note_on_c, 2, 59, 0
5, 19470, Note_on_c, 2, 64, 64
5, 19500, Note_on_c, 2, 64, 0
5, 19500, Note_on_c, 2, 66, 64
5, 19530, Note_on_c, 2, 66, 0
5, 19530, Note_on_c, 2, 68, 64
5, 19560, Note_on_c, 2, 68, 0
5, 19560, Note_on_c, 2, 57, 64
5, 19578, Note_on_c, 2, 57, 0
5, 19590, Note_on_c, 2, 61, 64
5, 19620, Note_on_c, 2, 61, 0
5, 19620, Note_on_c, 2, 59, 64
5, 19650, Note_on_c, 2, 59, 0
5, 19650, Note_on_c, 2, 57, 64
5, 19680, Note_on_c, 2, 57, 0
5, 19680, Note_on_c, 2, 56, 64
5, 19698, Note_on_c, 2, 56, 0
5, 19710, Note_on_c, 2, 64, 64
5, 19740, Note_on_c, 2, 64, 0
5, 19740, Note_on_c, 2, 66, 64
5, 19770, Note_on_c, 2, 66, 0
5, 19770, Note_on_c, 2, 68, 64
5, 19800, Note_on_c, 2, 68, 0
5, 19800, Note_on_c, 2, 69, 64
5, 19830, Note_on_c, 2, 69, 0
5, 19830, Note_on_c, 2, 71, 64
5, 19848, Note_on_c, 2, 71, 0
5, 19860, Note_on_c, 2, 73, 64
5, 19890, Note_on_c, 2, 73, 0
5, 19890, Note_on_c, 2, 71, 64
5, 19908, Note_on_c, 2, 71, 0
5, 19920, Note_on_c, 2, 74, 64
5, 19950, Note_on_c, 2, 74, 0
5, 19950, Note_on_c, 2, 73, 64
5, 19968, Note_on_c, 2, 73, 0
5, 19980, Note_on_c, 2, 78, 64
5, 20010, Note_on_c, 2, 78, 0
5, 20010, Note_on_c, 2, 76, 64
5, 20028, Note_on_c, 2, 76, 0
5, 20040, Note_on_c, 2, 74, 64
5, 20070, Note_on_c, 2, 74, 0
5, 20070, Note_on_c, 2, 73, 64
5, 20100, Note_on_c, 2, 73, 0
5, 20100, Note_on_c, 2, 71, 64
5, 20130, Note_on_c, 2, 71, 0
5, 20130, Note_on_c, 2, 69, 64
5, 20148, Note_on_c, 2, 69, 0
5, 20160, Control_c, 2, 7, 80
5, 20160, Note_on_c, 2, 69, 64
5, 20280, Note_on_c, 2, 69, 0
5, 20700, Note_on_c, 2, 71, 64
5, 20760, Note_on_c, 2, 71, 0
5, 20760, Note_on_c, 2, 64, 64
5, 20820, Note_on_c, 2, 64, 0
5, 20820, Note_on_c, 2, 66, 64
5, 20880, Note_on_c, 2, 66, 0
5, 20880, Note_on_c, 2, 67, 64
5, 20940, Note_on_c, 2, 67, 0
5, 21180, Note_on_c, 2, 66, 64
5, 21240, Note_on_c, 2, 66, 0
5, 21240, Note_on_c, 2, 61, 64
5, 21300, Note_on_c, 2, 61, 0
5, 21300, Note_on_c, 2, 62, 64
5, 21360, Note_on_c, 2, 62, 0
5, 21360, Note_on_c, 2, 64, 64
5, 21420, Note_on_c, 2, 64, 0
5, 21420, Note_on_c, 2, 73, 64
5, 21450, Note_on_c, 2, 73, 0
5, 21450, Note_on_c, 2, 71, 64
5, 21480, Note_on_c, 2, 71, 0
5, 21480, Note_on_c, 2, 70, 64
5, 21510, Note_on_c, 2, 70, 0
5, 21510, Note_on_c, 2, 67, 64
5, 21540, Note_on_c, 2, 67, 0
5, 21540, Note_on_c, 2, 66, 64
5, 21570, Note_on_c, 2, 66, 0
5, 21570, Note_on_c, 2, 64, 64
5, 21600, Note_on_c, 2, 64, 0
5, 21600, Note_on_c, 2, 62, 64
5, 21660, Note_on_c, 2, 62, 0
5, 21660, Note_on_c, 2, 71, 64
5, 21720, Note_on_c, 2, 71, 0
5, 21720, Note_on_c, 2, 66, 64
5, 21780, Note_on_c, 2, 66, 0
5, 21780, Note_on_c, 2, 67, 64
5, 21840, Note_on_c, 2, 67, 0
5, 21840, Note_on_c, 2, 69, 64
5, 21870, Note_on_c, 2, 69, 0
5, 21870, Note_on_c, 2, 71, 64
5, 21900, Note_on_c, 2, 71, 0
5, 21900, Note_on_c, 2, 69, 64
5, 21930, Note_on_c, 2, 69, 0
5, 21930, Note_on_c, 2, 67, 64
5, 21960, Note_on_c, 2, 67, 0
5, 21960, Note_on_c, 2, 66, 64
5, 21990, Note_on_c, 2, 66, 0
5, 21990, Note_on_c, 2, 64, 64
5, 22020, Note_on_c, 2, 64, 0
5, 22020, Note_on_c, 2, 63, 64
5, 22050, Note_on_c, 2, 63, 0
5, 22050, Note_on_c, 2, 61, 64
5, 22080, Note_on_c, 2, 61, 0
5, 22080, Note_on_c, 2, 59, 64
5, 22140, Note_on_c, 2, 59, 0
5, 22140, Note_on_c, 2, 71, 64
5, 22170, Note_on_c, 2, 71, 0
5, 22170, Note_on_c, 2, 69, 64
5, 22200, Note_on_c, 2, 69, 0
5, 22200, Note_on_c, 2, 67, 64
5, 22230, Note_on_c, 2, 67, 0
5, 22230, Note_on_c, 2, 66, 64
5, 22260, Note_on_c, 2, 66, 0
5, 22260, Note_on_c, 2, 64, 64
5, 22290, Note_on_c, 2, 64, 0
5, 22290, Note_on_c, 2, 63, 64
5, 22320, Note_on_c, 2, 63, 0
5, 22320, Note_on_c, 2, 64, 64
5, 22380, Note_on_c, 2, 64, 0
5, 22860, Note_on_c, 2, 69, 64
5, 22890, Note_on_c, 2, 69, 0
5, 22890, Note_on_c, 2, 67, 64
5, 22920, Note_on_c, 2, 67, 0
5, 22920, Note_on_c, 2, 66, 64
5, 22950, Note_on_c, 2, 66, 0
5, 22950, Note_on_c, 2, 64, 64
5, 22980, Note_on_c, 2, 64, 0
5, 22980, Note_on_c, 2, 62, 64
5, 23010, Note_on_c, 2, 62, 0
5, 23010, Note_on_c, 2, 60, 64
5, 23040, Note_on_c, 2, 60, 0
5, 23040, Note_on_c, 2, 59, 64
5, 23100, Note_on_c, 2, 59, 0
5, 23100, Note_on_c, 2, 71, 64
5, 23130, Note_on_c, 2, 71, 0
5, 23130, Note_on_c, 2, 69, 64
5, 23160, Note_on_c, 2, 69, 0
5, 23160, Note_on_c, 2, 67, 64
5, 23190, Note_on_c, 2, 67, 0
5, 23190, Note_on_c, 2, 66, 64
5, 23220, Note_on_c, 2, 66, 0
5, 23220, Note_on_c, 2, 64, 64
5, 23250, Note_on_c, 2, 64, 0
5, 23250, Note_on_c, 2, 62, 64
5, 23280, Note_on_c, 2, 62, 0
5, 23280, Note_on_c, 2, 60, 64
5, 23310, Note_on_c, 2, 60, 0
5, 23310, Note_on_c, 2, 62, 64
5, 23340, Note_on_c, 2, 62, 0
5, 23340, Note_on_c, 2, 64, 64
5, 23370, Note_on_c, 2, 64, 0
5, 23370, Note_on_c, 2, 69, 64
5, 23388, Note_on_c, 2, 69, 0
5, 23400, Note_on_c, 2, 57, 64
5, 23418, Note_on_c, 2, 57, 0
5, 23430, Note_on_c, 2, 74, 64
5, 23460, Note_on_c, 2, 74, 0
5, 23460, Note_on_c, 2, 72, 64
5, 23490, Note_on_c, 2, 72, 0
5, 23490, Note_on_c, 2, 71, 64
5, 23520, Note_on_c, 2, 71, 0
5, 23520, Note_on_c, 2, 69, 64
5, 23580, Note_on_c, 2, 69, 0
5, 23820, Note_on_c, 2, 83, 64
5, 23850, Note_on_c, 2, 83, 0
5, 23850, Note_on_c, 2, 81, 64
5, 23880, Note_on_c, 2, 81, 0
5, 23880, Note_on_c, 2, 79, 64
5, 23910, Note_on_c, 2, 79, 0
5, 23910, Note_on_c, 2, 78, 64
5, 23940, Note_on_c, 2, 78, 0
5, 23940, Note_on_c, 2, 76, 64
5, 23970, Note_on_c, 2, 76, 0
5, 23970, Note_on_c, 2, 74, 64
5, 24000, Note_on_c, 2, 74, 0
5, 24000, Note_on_c, 2, 73, 64
5, 24030, Note_on_c, 2, 73, 0
5, 24030, Note_on_c, 2, 71, 64
5, 24060, Note_on_c, 2, 71, 0
5, 24060, Note_on_c, 2, 70, 64
5, 24090, Note_on_c, 2, 70, 0
5, 24090, Note_on_c, 2, 68, 64
5, 24120, Note_on_c, 2, 68, 0
5, 24120, Note_on_c, 2, 66, 64
5, 24150, Note_on_c, 2, 66, 0
5, 24150, Note_on_c, 2, 64, 64
5, 24180, Note_on_c, 2, 64, 0
5, 24180, Note_on_c, 2, 62, 64
5, 24210, Note_on_c, 2, 62, 0
5, 24210, Note_on_c, 2, 61, 64
5, 24240, Note_on_c, 2, 61, 0
5, 24240, Note_on_c, 2, 59, 64
5, 24300, Note_on_c, 2, 59, 0
5, 24300, Note_on_c, 2, 66, 64
5, 24360, Note_on_c, 2, 66, 0
5, 24360, Note_on_c, 2, 62, 64
5, 24420, Note_on_c, 2, 62, 0
5, 24420, Note_on_c, 2, 66, 64
5, 24480, Note_on_c, 2, 66, 0
5, 24480, Note_on_c, 2, 59, 64
5, 24600, Note_on_c, 2, 59, 0
5, 24780, Note_on_c, 2, 71, 64
5, 24840, Note_on_c, 2, 71, 0
5, 24840, Note_on_c, 2, 67, 64
5, 24900, Note_on_c, 2, 67, 0
5, 24900, Note_on_c, 2, 69, 64
5, 24960, Note_on_c, 2, 69, 0
5, 24960, Note_on_c, 2, 64, 64
5, 25020, Note_on_c, 2, 64, 0
5, 25440, Control_c, 2, 7, 127
5, 25440, Note_on_c, 2, 66, 64
5, 25590, Note_on_c, 2, 66, 0
5, 25590, Note_on_c, 2, 74, 64
5, 25620, Note_on_c, 2, 74, 0
5, 25620, Note_on_c, 2, 73, 64
5, 25650, Note_on_c, 2, 73, 0
5, 25650, Note_on_c, 2, 71, 64
5, 25680, Note_on_c, 2, 71, 0
5, 25680, Note_on_c, 2, 70, 64
5, 25710, Note_on_c, 2, 70, 0
5, 25710, Note_on_c, 2, 71, 64
5, 25740, Note_on_c, 2, 71, 0
5, 25740, Note_on_c, 2, 73, 64
5, 25770, Note_on_c, 2, 73, 0
5, 25770, Note_on_c, 2, 76, 64
5, 25788, Note_on_c, 2, 76, 0
5, 25800, Note_on_c, 2, 66, 64
5, 25818, Note_on_c, 2, 66, 0
5, 25830, Note_on_c, 2, 74, 64
5, 25860, Note_on_c, 2, 74, 0
5, 25860, Note_on_c, 2, 73, 64
5, 25890, Note_on_c, 2, 73, 0
5, 25890, Note_on_c, 2, 71, 64
5, 25920, Note_on_c, 2, 71, 0
5, 25920, Note_on_c, 2, 70, 64
5, 25950, Note_on_c, 2, 70, 0
5, 25950, Note_on_c, 2, 71, 64
5, 25980, Note_on_c, 2, 71, 0
5, 25980, Note_on_c, 2, 73, 64
5, 26010, Note_on_c, 2, 73, 0
5, 26010, Note_on_c, 2, 76, 64
5, 26028, Note_on_c, 2, 76, 0
5, 26040, Note_on_c, 2, 66, 64
5, 26058, Note_on_c, 2, 66, 0
5, 26070, Note_on_c, 2, 67, 64
5, 26100, Note_on_c, 2, 67, 0
5, 26100, Note_on_c, 2, 66, 64
5, 26130, Note_on_c, 2, 66, 0
5, 26130, Note_on_c, 2, 64, 64
5, 26160, Note_on_c, 2, 64, 0
5, 26160, Note_on_c, 2, 63, 64
5, 26190, Note_on_c, 2, 63, 0
5, 26190, Note_on_c, 2, 64, 64
5, 26220, Note_on_c, 2, 64, 0
5, 26220, Note_on_c, 2, 66, 64
5, 26250, Note_on_c, 2, 66, 0
5, 26250, Note_on_c, 2, 69, 64
5, 26268, Note_on_c, 2, 69, 0
5, 26280, Note_on_c, 2, 59, 64
5, 26298, Note_on_c, 2, 59, 0
5, 26310, Note_on_c, 2, 67, 64
5, 26340, Note_on_c, 2, 67, 0
5, 26340, Note_on_c, 2, 66, 64
5, 26370, Note_on_c, 2, 66, 0
5, 26370, Note_on_c, 2, 64, 64
5, 26400, Note_on_c, 2, 64, 0
5, 26400, Note_on_c, 2, 63, 64
5, 26430, Note_on_c, 2, 63, 0
5, 26430, Note_on_c, 2, 64, 64
5, 26460, Note_on_c, 2, 64, 0
5, 26460, Note_on_c, 2, 66, 64
5, 26490, Note_on_c, 2, 66, 0
5, 26490, Note_on_c, 2, 69, 64
5, 26508, Note_on_c, 2, 69, 0
5, 26520, Note_on_c, 2, 59, 64
5, 26538, Note_on_c, 2, 59, 0
5, 26550, Note_on_c, 2, 72, 64
5, 26580, Note_on_c, 2, 72, 0
5, 26580, Note_on_c, 2, 71, 64
5, 26610, Note_on_c, 2, 71, 0
5, 26610, Note_on_c, 2, 69, 64
5, 26640, Note_on_c, 2, 69, 0
5, 26640, Note_on_c, 2, 67, 64
5, 26658, Note_on_c, 2, 67, 0
5, 26670, Note_on_c, 2, 73, 64
5, 26700, Note_on_c, 2, 73, 0
5, 26700, Note_on_c, 2, 74, 64
5, 26730, Note_on_c, 2, 74, 0
5, 26730, Note_on_c, 2, 76, 64
5, 26760, Note_on_c, 2, 76, 0
5, 26760, Note_on_c, 2, 66, 64
5, 26778, Note_on_c, 2, 66, 0
5, 26790, Note_on_c, 2, 69, 64
5, 26820, Note_on_c, 2, 69, 0
5, 26820, Note_on_c, 2, 67, 64
5, 26850, Note_on_c, 2, 67, 0
5, 26850, Note_on_c, 2, 66, 64
5, 26880, Note_on_c, 2, 66, 0
5, 26880, Note_on_c, 2, 64, 64
5, 26898, Note_on_c, 2, 64, 0
5, 26910, Note_on_c, 2, 70, 64
5, 26940, Note_on_c, 2, 70, 0
5, 26940, Note_on_c, 2, 71, 64
5, 26970, Note_on_c, 2, 71, 0
5, 26970, Note_on_c, 2, 73, 64
5, 27000, Note_on_c, 2, 73, 0
5, 27000, Note_on_c, 2, 62, 64
5, 27018, Note_on_c, 2, 62, 0
5, 27030, Note_on_c, 2, 66, 64
5, 27060, Note_on_c, 2, 66, 0
5, 27060, Note_on_c, 2, 64, 64
5, 27090, Note_on_c, 2, 64, 0
5, 27090, Note_on_c, 2, 62, 64
5, 27120, Note_on_c, 2, 62, 0
5, 27120, Note_on_c, 2, 61, 64
5, 27138, Note_on_c, 2, 61, 0
5, 27150, Note_on_c, 2, 64, 64
5, 27180, Note_on_c, 2, 64, 0
5, 27180, Note_on_c, 2, 66, 64
5, 27210, Note_on_c, 2, 66, 0
5, 27210, Note_on_c, 2, 67, 64
5, 27240, Note_on_c, 2, 67, 0
5, 27240, Note_on_c, 2, 59, 64
5, 27258, Note_on_c, 2, 59, 0
5, 27270, Note_on_c, 2, 62, 64
5, 27300, Note_on_c, 2, 62, 0
5, 27300, Note_on_c, 2, 61, 64
5, 27330, Note_on_c, 2, 61, 0
5, 27330, Note_on_c, 2, 59, 64
5, 27360, Note_on_c, 2, 59, 0
5, 27360, Note_on_c, 2, 58, 64
5, 27378, Note_on_c, 2, 58, 0
5, 27390, Note_on_c, 2, 66, 64
5, 27420, Note_on_c, 2, 66, 0
5, 27420, Note_on_c, 2, 68, 64
5, 27450, Note_on_c, 2, 68, 0
5, 27450, Note_on_c, 2, 70, 64
5, 27480, Note_on_c, 2, 70, 0
5, 27480, Note_on_c, 2, 71, 64
5, 27510, Note_on_c, 2, 71, 0
5, 27510, Note_on_c, 2, 73, 64
5, 27528, Note_on_c, 2, 73, 0
5, 27540, Note_on_c, 2, 74, 64
5, 27570, Note_on_c, 2, 74, 0
5, 27570, Note_on_c, 2, 73, 64
5, 27588, Note_on_c, 2, 73, 0
5, 27600, Note_on_c, 2, 76, 64
5, 27630, Note_on_c, 2, 76, 0
5, 27630, Note_on_c, 2, 74, 64
5, 27648, Note_on_c, 2, 74, 0
5, 27660, Note_on_c, 2, 79, 64
5, 27690, Note_on_c, 2, 79, 0
5, 27690, Note_on_c, 2, 78, 64
5, 27708, Note_on_c, 2, 78, 0
5, 27720, Note_on_c, 2, 76, 64
5, 27750, Note_on_c, 2, 76, 0
5, 27750, Note_on_c, 2, 74, 64
5, 27780, Note_on_c, 2, 74, 0
5, 27780, Note_on_c, 2, 73, 64
5, 27810, Note_on_c, 2, 73, 0
5, 27810, Note_on_c, 2, 71, 64
5, 27837, Control_c, 2, 7, 126
5, 27840, Note_on_c, 2, 71, 0
5, 27840, Note_on_c, 2, 71, 64
5, 27856, Control_c, 2, 7, 107
5, 27858, Note_on_c, 2, 71, 0
5, 27870, Note_on_c, 2, 64, 64
5, 27875, Control_c, 2, 7, 88
5, 27900, Note_on_c, 2, 64, 0
5, 27900, Note_on_c, 2, 62, 64
5, 27930, Note_on_c, 2, 62, 0
5, 27930, Note_on_c, 2, 61, 64
5, 27960, Note_on_c, 2, 61, 0
5, 27960, Note_on_c, 2, 62, 64
5, 28110, Note_on_c, 2, 62, 0
5, 28110, Note_on_c, 2, 64, 64
5, 28140, Note_on_c, 2, 64, 0
5, 28140, Note_on_c, 2, 65, 64
5, 28170, Note_on_c, 2, 65, 0
5, 28170, Note_on_c, 2, 71, 64
5, 28188, Note_on_c, 2, 71, 0
5, 28200, Note_on_c, 2, 64, 64
5, 28218, Note_on_c, 2, 64, 0
5, 28230, Note_on_c, 2, 71, 64
5, 28260, Note_on_c, 2, 71, 0
5, 28260, Note_on_c, 2, 69, 64
5, 28290, Note_on_c, 2, 69, 0
5, 28290, Note_on_c, 2, 68, 64
5, 28320, Note_on_c, 2, 68, 0
5, 28320, Note_on_c, 2, 69, 64
5, 28440, Note_on_c, 2, 69, 0
5, 28860, Note_on_c, 2, 69, 64
5, 28890, Note_on_c, 2, 69, 0
5, 28890, Note_on_c, 2, 67, 64
5, 28920, Note_on_c, 2, 67, 0
5, 28920, Note_on_c, 2, 66, 64
5, 28950, Note_on_c, 2, 66, 0
5, 28950, Note_on_c, 2, 64, 64
5, 28980, Note_on_c, 2, 64, 0
5, 28980, Note_on_c, 2, 62, 64
5, 29010, Note_on_c, 2, 62, 0
5, 29010, Note_on_c, 2, 60, 64
5, 29040, Note_on_c, 2, 60, 0
5, 29040, Note_on_c, 2, 59, 64
5, 29100, Note_on_c, 2, 59, 0
5, 29310, Note_on_c, 2, 62, 64
5, 29340, Note_on_c, 2, 62, 0
5, 29340, Note_on_c, 2, 64, 64
5, 29370, Note_on_c, 2, 64, 0
5, 29370, Note_on_c, 2, 66, 64
5, 29400, Note_on_c, 2, 66, 0
5, 29400, Note_on_c, 2, 64, 64
5, 29418, Note_on_c, 2, 64, 0
5, 29430, Note_on_c, 2, 71, 64
5, 29460, Note_on_c, 2, 71, 0
5, 29460, Note_on_c, 2, 69, 64
5, 29490, Note_on_c, 2, 69, 0
5, 29490, Note_on_c, 2, 67, 64
5, 29520, Note_on_c, 2, 67, 0
5, 29520, Note_on_c, 2, 66, 64
5, 29550, Note_on_c, 2, 66, 0
5, 29550, Note_on_c, 2, 67, 64
5, 29580, Note_on_c, 2, 67, 0
5, 29580, Note_on_c, 2, 66, 64
5, 29610, Note_on_c, 2, 66, 0
5, 29610, Note_on_c, 2, 64, 64
5, 29640, Note_on_c, 2, 64, 0
5, 29640, Note_on_c, 2, 62, 64
5, 29670, Note_on_c, 2, 62, 0
5, 29670, Note_on_c, 2, 60, 64
5, 29700, Note_on_c, 2, 60, 0
5, 29700, Note_on_c, 2, 59, 64
5, 29730, Note_on_c, 2, 59, 0
5, 29730, Note_on_c, 2, 57, 64
5, 29760, Note_on_c, 2, 57, 0
5, 29760, Note_on_c, 2, 55, 64
5, 29820, Note_on_c, 2, 55, 0
5, 30030, Note_on_c, 2, 62, 64
5, 30060, Note_on_c, 2, 62, 0
5, 30060, Note_on_c, 2, 61, 64
5, 30090, Note_on_c, 2, 61, 0
5, 30090, Note_on_c, 2, 59, 64
5, 30120, Note_on_c, 2, 59, 0
5, 30120, Note_on_c, 2, 61, 64
5, 30150, Note_on_c, 2, 61, 0
5, 30150, Note_on_c, 2, 62, 64
5, 30180, Note_on_c, 2, 62, 0
5, 30180, Note_on_c, 2, 64, 64
5, 30210, Note_on_c, 2, 64, 0
5, 30210, Note_on_c, 2, 61, 64
5, 30228, Note_on_c, 2, 61, 0
5, 30240, Note_on_c, 2, 69, 64
5, 30300, Note_on_c, 2, 69, 0
5, 30510, Note_on_c, 2, 71, 64
5, 30540, Note_on_c, 2, 71, 0
5, 30540, Note_on_c, 2, 69, 64
5, 30570, Note_on_c, 2, 69, 0
5, 30570, Note_on_c, 2, 67, 64
5, 30600, Note_on_c, 2, 67, 0
5, 30600, Note_on_c, 2, 66, 64
5, 30630, Note_on_c, 2, 66, 0
5, 30630, Note_on_c, 2, 67, 64
5, 30660, Note_on_c, 2, 67, 0
5, 30660, Note_on_c, 2, 69, 64
5, 30690, Note_on_c, 2, 69, 0
5, 30690, Note_on_c, 2, 66, 64
5, 30708, Note_on_c, 2, 66, 0
5, 30720, Note_on_c, 2, 62, 64
5, 30780, Note_on_c, 2, 62, 0
5, 30990, Note_on_c, 2, 69, 64
5, 31020, Note_on_c, 2, 69, 0
5, 31020, Note_on_c, 2, 67, 64
5, 31050, Note_on_c, 2, 67, 0
5, 31050, Note_on_c, 2, 66, 64
5, 31080, Note_on_c, 2, 66, 0
5, 31080, Note_on_c, 2, 67, 64
5, 31098, Note_on_c, 2, 67, 0
5, 31110, Note_on_c, 2, 69, 64
5, 31140, Note_on_c, 2, 69, 0
5, 31140, Note_on_c, 2, 71, 64
5, 31170, Note_on_c, 2, 71, 0
5, 31170, Note_on_c, 2, 67, 64
5, 31200, Note_on_c, 2, 67, 0
5, 31200, Note_on_c, 2, 66, 64
5, 31218, Note_on_c, 2, 66, 0
5, 31230, Note_on_c, 2, 67, 64
5, 31260, Note_on_c, 2, 67, 0
5, 31260, Note_on_c, 2, 66, 64
5, 31290, Note_on_c, 2, 66, 0
5, 31290, Note_on_c, 2, 64, 64
5, 31320, Note_on_c, 2, 64, 0
5, 31320, Note_on_c, 2, 62, 64
5, 31350, Note_on_c, 2, 62, 0
5, 31350, Note_on_c, 2, 64, 64
5, 31380, Note_on_c, 2, 64, 0
5, 31380, Note_on_c, 2, 66, 64
5, 31410, Note_on_c, 2, 66, 0
5, 31410, Note_on_c, 2, 62, 64
5, 31440, Note_on_c, 2, 62, 0
5, 31440, Note_on_c, 2, 59, 64
5, 31458, Note_on_c, 2, 59, 0
5, 31470, Note_on_c, 2, 72, 64
5, 31500, Note_on_c, 2, 72, 0
5, 31500, Note_on_c, 2, 71, 64
5, 31530, Note_on_c, 2, 71, 0
5, 31530, Note_on_c, 2, 69, 64
5, 31560, Note_on_c, 2, 69, 0
5, 31560, Note_on_c, 2, 67, 64
5, 31590, Note_on_c, 2, 67, 0
5, 31590, Note_on_c, 2, 69, 64
5, 31620, Note_on_c, 2, 69, 0
5, 31620, Note_on_c, 2, 71, 64
5, 31650, Note_on_c, 2, 71, 0
5, 31650, Note_on_c, 2, 67, 64
5, 31680, Note_on_c, 2, 67, 0
5, 31680, Note_on_c, 2, 64, 64
5, 31698, Note_on_c, 2, 64, 0
5, 31710, Note_on_c, 2, 66, 64
5, 31740, Note_on_c, 2, 66, 0
5, 31740, Note_on_c, 2, 64, 64
5, 31770, Note_on_c, 2, 64, 0
5, 31770, Note_on_c, 2, 62, 64
5, 31800, Note_on_c, 2, 62, 0
5, 31800, Note_on_c, 2, 61, 64
5, 31830, Note_on_c, 2, 61, 0
5, 31830, Note_on_c, 2, 62, 64
5, 31860, Note_on_c, 2, 62, 0
5, 31860, Note_on_c, 2, 64, 64
5, 31890, Note_on_c, 2, 64, 0
5, 31890, Note_on_c, 2, 61, 64
5, 31920, Note_on_c, 2, 61, 0
5, 31920, Note_on_c, 2, 57, 64
5, 31980, Note_on_c, 2, 57, 0
5, 32460, Note_on_c, 2, 79, 64
5, 32520, Note_on_c, 2, 79, 0
5, 32520, Note_on_c, 2, 71, 64
5, 32580, Note_on_c, 2, 71, 0
5, 32580, Note_on_c, 2, 75, 64
5, 32640, Note_on_c, 2, 75, 0
5, 32640, Note_on_c, 2, 64, 64
5, 32700, Note_on_c, 2, 64, 0
5, 32940, Note_on_c, 2, 71, 64
5, 32970, Note_on_c, 2, 71, 0
5, 32970, Note_on_c, 2, 69, 64
5, 33000, Note_on_c, 2, 69, 0
5, 33000, Note_on_c, 2, 67, 64
5, 33030, Note_on_c, 2, 67, 0
5, 33030, Note_on_c, 2, 66, 64
5, 33060, Note_on_c, 2, 66, 0
5, 33060, Note_on_c, 2, 64, 64
5, 33090, Note_on_c, 2, 64, 0
5, 33090, Note_on_c, 2, 62, 64
5, 33120, Note_on_c, 2, 62, 0
5, 33120, Note_on_c, 2, 61, 64
5, 33150, Note_on_c, 2, 61, 0
5, 33150, Note_on_c, 2, 62, 64
5, 33180, Note_on_c, 2, 62, 0
5, 33180, Note_on_c, 2, 64, 64
5, 33210, Note_on_c, 2, 64, 0
5, 33210, Note_on_c, 2, 67, 64
5, 33228, Note_on_c, 2, 67, 0
5, 33240, Note_on_c, 2, 57, 64
5, 33258, Note_on_c, 2, 57, 0
5, 33270, Note_on_c, 2, 66, 64
5, 33300, Note_on_c, 2, 66, 0
5, 33300, Note_on_c, 2, 64, 64
5, 33330, Note_on_c, 2, 64, 0
5, 33330, Note_on_c, 2, 62, 64
5, 33360, Note_on_c, 2, 62, 0
5, 33360, Note_on_c, 2, 61, 64
5, 33390, Note_on_c, 2, 61, 0
5, 33390, Note_on_c, 2, 62, 64
5, 33420, Note_on_c, 2, 62, 0
5, 33420, Note_on_c, 2, 64, 64
5, 33450, Note_on_c, 2, 64, 0
5, 33450, Note_on_c, 2, 67, 64
5, 33468, Note_on_c, 2, 67, 0
5, 33480, Note_on_c, 2, 57, 64
5, 33498, Note_on_c, 2, 57, 0
5, 33510, Note_on_c, 2, 71, 64
5, 33540, Note_on_c, 2, 71, 0
5, 33540, Note_on_c, 2, 69, 64
5, 33570, Note_on_c, 2, 69, 0
5, 33570, Note_on_c, 2, 67, 64
5, 33600, Note_on_c, 2, 67, 0
5, 33600, Note_on_c, 2, 66, 64
5, 33630, Note_on_c, 2, 66, 0
5, 33630, Note_on_c, 2, 67, 64
5, 33660, Note_on_c, 2, 67, 0
5, 33660, Note_on_c, 2, 69, 64
5, 33690, Note_on_c, 2, 69, 0
5, 33690, Note_on_c, 2, 72, 64
5, 33708, Note_on_c, 2, 72, 0
5, 33720, Note_on_c, 2, 62, 64
5, 33738, Note_on_c, 2, 62, 0
5, 33750, Note_on_c, 2, 71, 64
5, 33780, Note_on_c, 2, 71, 0
5, 33780, Note_on_c, 2, 69, 64
5, 33810, Note_on_c, 2, 69, 0
5, 33810, Note_on_c, 2, 67, 64
5, 33840, Note_on_c, 2, 67, 0
5, 33840, Note_on_c, 2, 66, 64
5, 33870, Note_on_c, 2, 66, 0
5, 33870, Note_on_c, 2, 67, 64
5, 33900, Note_on_c, 2, 67, 0
5, 33900, Note_on_c, 2, 69, 64
5, 33930, Note_on_c, 2, 69, 0
5, 33930, Note_on_c, 2, 72, 64
5, 33948, Note_on_c, 2, 72, 0
5, 33960, Note_on_c, 2, 62, 64
5, 33978, Note_on_c, 2, 62, 0
5, 33990, Note_on_c, 2, 76, 64
5, 34020, Note_on_c, 2, 76, 0
5, 34020, Note_on_c, 2, 74, 64
5, 34050, Note_on_c, 2, 74, 0
5, 34050, Note_on_c, 2, 72, 64
5, 34080, Note_on_c, 2, 72, 0
5, 34080, Note_on_c, 2, 71, 64
5, 34098, Note_on_c, 2, 71, 0
5, 34110, Note_on_c, 2, 76, 64
5, 34140, Note_on_c, 2, 76, 0
5, 34140, Note_on_c, 2, 78, 64
5, 34170, Note_on_c, 2, 78, 0
5, 34170, Note_on_c, 2, 79, 64
5, 34200, Note_on_c, 2, 79, 0
5, 34200, Note_on_c, 2, 69, 64
5, 34218, Note_on_c, 2, 69, 0
5, 34230, Note_on_c, 2, 72, 64
5, 34260, Note_on_c, 2, 72, 0
5, 34260, Note_on_c, 2, 71, 64
5, 34290, Note_on_c, 2, 71, 0
5, 34290, Note_on_c, 2, 69, 64
5, 34320, Note_on_c, 2, 69, 0
5, 34320, Note_on_c, 2, 67, 64
5, 34338, Note_on_c, 2, 67, 0
5, 34350, Note_on_c, 2, 73, 64
5, 34380, Note_on_c, 2, 73, 0
5, 34380, Note_on_c, 2, 74, 64
5, 34410, Note_on_c, 2, 74, 0
5, 34410, Note_on_c, 2, 76, 64
5, 34440, Note_on_c, 2, 76, 0
5, 34440, Note_on_c, 2, 66, 64
5, 34458, Note_on_c, 2, 66, 0
5, 34470, Note_on_c, 2, 69, 64
5, 34500, Note_on_c, 2, 69, 0
5, 34500, Note_on_c, 2, 67, 64
5, 34530, Note_on_c, 2, 67, 0
5, 34530, Note_on_c, 2, 66, 64
5, 34560, Note_on_c, 2, 66, 0
5, 34560, Note_on_c, 2, 64, 64
5, 34578, Note_on_c, 2, 64, 0
5, 34590, Note_on_c, 2, 69, 64
5, 34620, Note_on_c, 2, 69, 0
5, 34620, Note_on_c, 2, 71, 64
5, 34650, Note_on_c, 2, 71, 0
5, 34650, Note_on_c, 2, 72, 64
5, 34680, Note_on_c, 2, 72, 0
5, 34680, Note_on_c, 2, 62, 64
5, 34698, Note_on_c, 2, 62, 0
5, 34710, Note_on_c, 2, 66, 64
5, 34740, Note_on_c, 2, 66, 0
5, 34740, Note_on_c, 2, 64, 64
5, 34770, Note_on_c, 2, 64, 0
5, 34770, Note_on_c, 2, 62, 64
5, 34800, Note_on_c, 2, 62, 0
5, 34800, Note_on_c, 2, 64, 64
5, 34830, Note_on_c, 2, 64, 0
5, 34830, Note_on_c, 2, 57, 64
5, 34860, Note_on_c, 2, 57, 0
5, 34860, Note_on_c, 2, 59, 64
5, 34890, Note_on_c, 2, 59, 0
5, 34890, Note_on_c, 2, 61, 64
5, 34920, Note_on_c, 2, 61, 0
5, 34920, Note_on_c, 2, 62, 64
5, 34950, Note_on_c, 2, 62, 0
5, 34950, Note_on_c, 2, 64, 64
5, 34980, Note_on_c, 2, 64, 0
5, 34980, Note_on_c, 2, 66, 64
5, 35010, Note_on_c, 2, 66, 0
5, 35010, Note_on_c, 2, 67, 64
5, 35040, Note_on_c, 2, 67, 0
5, 35040, Note_on_c, 2, 69, 64
5, 35070, Note_on_c, 2, 69, 0
5, 35070, Note_on_c, 2, 67, 64
5, 35088, Note_on_c, 2, 67, 0
5, 35100, Note_on_c, 2, 71, 64
5, 35130, Note_on_c, 2, 71, 0
5, 35130, Note_on_c, 2, 69, 64
5, 35148, Note_on_c, 2, 69, 0
5, 35160, Note_on_c, 2, 67, 64
5, 35190, Note_on_c, 2, 67, 0
5, 35190, Note_on_c, 2, 66, 64
5, 35220, Note_on_c, 2, 66, 0
5, 35220, Note_on_c, 2, 64, 64
5, 35250, Note_on_c, 2, 64, 0
5, 35250, Note_on_c, 2, 62, 64
5, 35268, Note_on_c, 2, 62, 0
5, 35280, Note_on_c, 2, 67, 64
5, 35340, Note_on_c, 2, 67, 0
5, 35820, Note_on_c, 2, 78, 64
5, 35910, Note_on_c, 2, 78, 0
5, 35910, Note_on_c, 2, 76, 64
5, 35940, Note_on_c, 2, 76, 0
5, 35940, Note_on_c, 2, 74, 64
5, 35970, Note_on_c, 2, 74, 0
5, 35970, Note_on_c, 2, 78, 64
5, 36000, Note_on_c, 2, 78, 0
5, 36000, Note_on_c, 2, 76, 64
5, 36030, Note_on_c, 2, 76, 0
5, 36030, Note_on_c, 2, 74, 64
5, 36060, Note_on_c, 2, 74, 0
5, 36060, Note_on_c, 2, 76, 64
5, 36150, Note_on_c, 2, 76, 0
5, 36150, Note_on_c, 2, 74, 64
5, 36180, Note_on_c, 2, 74, 0
5, 36180, Note_on_c, 2, 73, 64
5, 36210, Note_on_c, 2, 73, 0
5, 36210, Note_on_c, 2, 76, 64
5, 36240, Note_on_c, 2, 76, 0
5, 36240, Note_on_c, 2, 74, 64
5, 36300, Note_on_c, 2, 74, 0
5, 36729, Control_c, 2, 7, 127
5, 36780, Note_on_c, 2, 62, 64
5, 36840, Note_on_c, 2, 62, 0
5, 36840, Note_on_c, 2, 57, 64
5, 36900, Note_on_c, 2, 57, 0
5, 36900, Note_on_c, 2, 59, 64
5, 36960, Note_on_c, 2, 59, 0
5, 36960, Note_on_c, 2, 60, 64
5, 37020, Note_on_c, 2, 60, 0
5, 37020, Note_on_c, 2, 69, 64
5, 37050, Note_on_c, 2, 69, 0
5, 37050, Note_on_c, 2, 67, 64
5, 37080, Note_on_c, 2, 67, 0
5, 37080, Note_on_c, 2, 66, 64
5, 37110, Note_on_c, 2, 66, 0
5, 37110, Note_on_c, 2, 64, 64
5, 37140, Note_on_c, 2, 64, 0
5, 37140, Note_on_c, 2, 62, 64
5, 37170, Note_on_c, 2, 62, 0
5, 37170, Note_on_c, 2, 60, 64
5, 37200, Note_on_c, 2, 60, 0
5, 37200, Note_on_c, 2, 59, 64
5, 37230, Note_on_c, 2, 59, 0
5, 37230, Note_on_c, 2, 62, 64
5, 37248, Note_on_c, 2, 62, 0
5, 37260, Note_on_c, 2, 67, 64
5, 37290, Note_on_c, 2, 67, 0
5, 37290, Note_on_c, 2, 64, 64
5, 37308, Note_on_c, 2, 64, 0
5, 37320, Note_on_c, 2, 62, 64
5, 37350, Note_on_c, 2, 62, 0
5, 37350, Note_on_c, 2, 61, 64
5, 37368, Note_on_c, 2, 61, 0
5, 37380, Note_on_c, 2, 67, 64
5, 37500, Note_on_c, 2, 67, 0
5, 37500, Note_on_c, 2, 66, 64
5, 37530, Note_on_c, 2, 66, 0
5, 37530, Note_on_c, 2, 64, 60
5, 37560, Note_on_c, 2, 64, 0
5, 37560, Note_on_c, 2, 62, 56
5, 37590, Note_on_c, 2, 62, 0
5, 37590, Note_on_c, 2, 61, 52
5, 37620, Note_on_c, 2, 61, 0
5, 37620, Note_on_c, 2, 59, 48
5, 37650, Note_on_c, 2, 59, 0
5, 37650, Note_on_c, 2, 57, 44
5, 37680, Note_on_c, 2, 57, 0
5, 37680, Note_on_c, 2, 56, 40
5, 37710, Note_on_c, 2, 56, 0
5, 37710, Note_on_c, 2, 59, 40
5, 37728, Note_on_c, 2, 59, 0
5, 37740, Note_on_c, 2, 64, 40
5, 37770, Note_on_c, 2, 64, 0
5, 37770, Note_on_c, 2, 61, 40
5, 37788, Note_on_c, 2, 61, 0
5, 37800, Note_on_c, 2, 59, 40
5, 37830, Note_on_c, 2, 59, 0
5, 37830, Note_on_c, 2, 58, 40
5, 37848, Note_on_c, 2, 58, 0
5, 37860, Note_on_c, 2, 64, 40
5, 37950, Note_on_c, 2, 64, 0
5, 37950, Note_on_c, 2, 62, 43
5, 37980, Note_on_c, 2, 62, 0
5, 37980, Note_on_c, 2, 64, 46
5, 38010, Note_on_c, 2, 64, 0
5, 38010, Note_on_c, 2, 66, 49
5, 38040, Note_on_c, 2, 66, 0
5, 38040, Note_on_c, 2, 67, 52
5, 38070, Note_on_c, 2, 67, 0
5, 38070, Note_on_c, 2, 69, 55
5, 38100, Note_on_c, 2, 69, 0
5, 38100, Note_on_c, 2, 71, 58
5, 38130, Note_on_c, 2, 71, 0
5, 38130, Note_on_c, 2, 67, 61
5, 38160, Note_on_c, 2, 67, 0
5, 38160, Note_on_c, 2, 69, 64
5, 38190, Note_on_c, 2, 69, 0
5, 38190, Note_on_c, 2, 73, 64
5, 38220, Note_on_c, 2, 73, 0
5, 38220, Note_on_c, 2, 76, 64
5, 38250, Note_on_c, 2, 76, 0
5, 38250, Note_on_c, 2, 74, 64
5, 38280, Note_on_c, 2, 74, 0
5, 38280, Note_on_c, 2, 73, 64
5, 38310, Note_on_c, 2, 73, 0
5, 38310, Note_on_c, 2, 71, 64
5, 38340, Note_on_c, 2, 71, 0
5, 38340, Note_on_c, 2, 69, 64
5, 38370, Note_on_c, 2, 69, 0
5, 38370, Note_on_c, 2, 67, 64
5, 38400, Note_on_c, 2, 67, 0
5, 38400, Note_on_c, 2, 66, 64
5, 38430, Note_on_c, 2, 66, 0
5, 38430, Note_on_c, 2, 69, 64
5, 38460, Note_on_c, 2, 69, 0
5, 38460, Note_on_c, 2, 74, 64
5, 38490, Note_on_c, 2, 74, 0
5, 38490, Note_on_c, 2, 72, 64
5, 38520, Note_on_c, 2, 72, 0
5, 38520, Note_on_c, 2, 71, 64
5, 38550, Note_on_c, 2, 71, 0
5, 38550, Note_on_c, 2, 69, 64
5, 38580, Note_on_c, 2, 69, 0
5, 38580, Note_on_c, 2, 67, 64
5, 38610, Note_on_c, 2, 67, 0
5, 38610, Note_on_c, 2, 66, 64
5, 38640, Note_on_c, 2, 66, 0
5, 38640, Note_on_c, 2, 64, 64
5, 38790, Note_on_c, 2, 64, 0
5, 38790, Note_on_c, 2, 66, 54
5, 38820, Note_on_c, 2, 66, 0
5, 38820, Note_on_c, 2, 64, 44
5, 38850, Note_on_c, 2, 64, 0
5, 38850, Note_on_c, 2, 62, 34
5, 38880, Note_on_c, 2, 62, 0
5, 38880, Note_on_c, 2, 61, 35
5, 38910, Note_on_c, 2, 61, 0
5, 38910, Note_on_c, 2, 62, 36
5, 38940, Note_on_c, 2, 62, 0
5, 38940, Note_on_c, 2, 64, 37
5, 38970, Note_on_c, 2, 64, 0
5, 38970, Note_on_c, 2, 67, 38
5, 38988, Note_on_c, 2, 67, 0
5, 39000, Note_on_c, 2, 57, 39
5, 39018, Note_on_c, 2, 57, 0
5, 39030, Note_on_c, 2, 66, 40
5, 39060, Note_on_c, 2, 66, 0
5, 39060, Note_on_c, 2, 64, 41
5, 39090, Note_on_c, 2, 64, 0
5, 39090, Note_on_c, 2, 62, 42
5, 39120, Note_on_c, 2, 62, 0
5, 39120, Note_on_c, 2, 61, 42
5, 39150, Note_on_c, 2, 61, 0
5, 39150, Note_on_c, 2, 62, 43
5, 39180, Note_on_c, 2, 62, 0
5, 39180, Note_on_c, 2, 64, 44
5, 39210, Note_on_c, 2, 64, 0
5, 39210, Note_on_c, 2, 67, 45
5, 39228, Note_on_c, 2, 67, 0
5, 39240, Note_on_c, 2, 57, 46
5, 39258, Note_on_c, 2, 57, 0
5, 39270, Note_on_c, 2, 71, 47
5, 39300, Note_on_c, 2, 71, 0
5, 39300, Note_on_c, 2, 69, 48
5, 39330, Note_on_c, 2, 69, 0
5, 39330, Note_on_c, 2, 67, 49
5, 39360, Note_on_c, 2, 67, 0
5, 39360, Note_on_c, 2, 66, 50
5, 39390, Note_on_c, 2, 66, 0
5, 39390, Note_on_c, 2, 67, 51
5, 39420, Note_on_c, 2, 67, 0
5, 39420, Note_on_c, 2, 69, 52
5, 39450, Note_on_c, 2, 69, 0
5, 39450, Note_on_c, 2, 72, 53
5, 39468, Note_on_c, 2, 72, 0
5, 39480, Note_on_c, 2, 62, 54
5, 39498, Note_on_c, 2, 62, 0
5, 39510, Note_on_c, 2, 71, 55
5, 39540, Note_on_c, 2, 71, 0
5, 39540, Note_on_c, 2, 69, 56
5, 39570, Note_on_c, 2, 69, 0
5, 39570, Note_on_c, 2, 67, 57
5, 39600, Note_on_c, 2, 67, 0
5, 39600, Note_on_c, 2, 66, 57
5, 39630, Note_on_c, 2, 66, 0
5, 39630, Note_on_c, 2, 67, 58
5, 39660, Note_on_c, 2, 67, 0
5, 39660, Note_on_c, 2, 69, 59
5, 39690, Note_on_c, 2, 69, 0
5, 39690, Note_on_c, 2, 72, 60
5, 39708, Note_on_c, 2, 72, 0
5, 39720, Note_on_c, 2, 62, 61
5, 39738, Note_on_c, 2, 62, 0
5, 39750, Note_on_c, 2, 76, 62
5, 39780, Note_on_c, 2, 76, 0
5, 39780, Note_on_c, 2, 74, 63
5, 39810, Note_on_c, 2, 74, 0
5, 39810, Note_on_c, 2, 72, 64
5, 39840, Note_on_c, 2, 72, 0
5, 39840, Note_on_c, 2, 71, 64
5, 39858, Note_on_c, 2, 71, 0
5, 39870, Note_on_c, 2, 76, 64
5, 39900, Note_on_c, 2, 76, 0
5, 39900, Note_on_c, 2, 78, 64
5, 39930, Note_on_c, 2, 78, 0
5, 39930, Note_on_c, 2, 79, 64
5, 39960, Note_on_c, 2, 79, 0
5, 39960, Note_on_c, 2, 69, 64
5, 39978, Note_on_c, 2, 69, 0
5, 39990, Note_on_c, 2, 72, 64
5, 40020, Note_on_c, 2, 72, 0
5, 40020, Note_on_c, 2, 71, 64
5, 40050, Note_on_c, 2, 71, 0
5, 40050, Note_on_c, 2, 69, 64
5, 40080, Note_on_c, 2, 69, 0
5, 40080, Note_on_c, 2, 67, 64
5, 40098, Note_on_c, 2, 67, 0
5, 40110, Note_on_c, 2, 73, 64
5, 40140, Note_on_c, 2, 73, 0
5, 40140, Note_on_c, 2, 74, 64
5, 40170, Note_on_c, 2, 74, 0
5, 40170, Note_on_c, 2, 76, 64
5, 40200, Note_on_c, 2, 76, 0
5, 40200, Note_on_c, 2, 66, 64
5, 40218, Note_on_c, 2, 66, 0
5, 40230, Note_on_c, 2, 69, 64
5, 40260, Note_on_c, 2, 69, 0
5, 40260, Note_on_c, 2, 67, 64
5, 40290, Note_on_c, 2, 67, 0
5, 40290, Note_on_c, 2, 66, 64
5, 40320, Note_on_c, 2, 66, 0
5, 40320, Note_on_c, 2, 64, 64
5, 40338, Note_on_c, 2, 64, 0
5, 40350, Note_on_c, 2, 69, 64
5, 40380, Note_on_c, 2, 69, 0
5, 40380, Note_on_c, 2, 71, 64
5, 40410, Note_on_c, 2, 71, 0
5, 40410, Note_on_c, 2, 73, 64
5, 40440, Note_on_c, 2, 73, 0
5, 40440, Note_on_c, 2, 62, 64
5, 40458, Note_on_c, 2, 62, 0
5, 40470, Note_on_c, 2, 66, 64
5, 40500, Note_on_c, 2, 66, 0
5, 40500, Note_on_c, 2, 64, 64
5, 40530, Note_on_c, 2, 64, 0
5, 40530, Note_on_c, 2, 62, 64
5, 40560, Note_on_c, 2, 62, 0
5, 40560, Note_on_c, 2, 61, 64
5, 40590, Note_on_c, 2, 61, 0
5, 40590, Note_on_c, 2, 57, 64
5, 40620, Note_on_c, 2, 57, 0
5, 40620, Note_on_c, 2, 59, 64
5, 40650, Note_on_c, 2, 59, 0
5, 40650, Note_on_c, 2, 61, 64
5, 40680, Note_on_c, 2, 61, 0
5, 40680, Note_on_c, 2, 62, 64
5, 40710, Note_on_c, 2, 62, 0
5, 40710, Note_on_c, 2, 64, 64
5, 40740, Note_on_c, 2, 64, 0
5, 40740, Note_on_c, 2, 66, 64
5, 40770, Note_on_c, 2, 66, 0
5, 40770, Note_on_c, 2, 64, 64
5, 40788, Note_on_c, 2, 64, 0
5, 40800, Note_on_c, 2, 67, 64
5, 40830, Note_on_c, 2, 67, 0
5, 40830, Note_on_c, 2, 66, 64
5, 40848, Note_on_c, 2, 66, 0
5, 40860, Note_on_c, 2, 71, 64
5, 40890, Note_on_c, 2, 71, 0
5, 40890, Note_on_c, 2, 69, 64
5, 40908, Note_on_c, 2, 69, 0
5, 40920, Note_on_c, 2, 67, 64
5, 40950, Note_on_c, 2, 67, 0
5, 40950, Note_on_c, 2, 66, 64
5, 40980, Note_on_c, 2, 66, 0
5, 40980, Note_on_c, 2, 64, 64
5, 41010, Note_on_c, 2, 64, 0
5, 41010, Note_on_c, 2, 62, 64
5, 41028, Note_on_c, 2, 62, 0
5, 41040, Note_on_c, 2, 62, 64
5, 41220, Note_on_c, 2, 62, 0
5, 41280, End_track
6, 0, Start_track
6, 0, MIDI_port, 0
6, 0, Title_t, "Cello"
6, 0, Program_c, 3, 48
6, 480, Note_on_c, 3, 50, 64
6, 780, Note_on_c, 3, 50, 0
6, 780, Note_on_c, 3, 38, 64
6, 815, Note_on_c, 3, 38, 0
6, 840, Note_on_c, 3, 40, 64
6, 875, Note_on_c, 3, 40, 0
6, 900, Note_on_c, 3, 42, 64
6, 935, Note_on_c, 3, 42, 0
6, 960, Note_on_c, 3, 43, 64
6, 995, Note_on_c, 3, 43, 0
6, 1020, Note_on_c, 3, 40, 64
6, 1055, Note_on_c, 3, 40, 0
6, 1080, Note_on_c, 3, 45, 64
6, 1115, Note_on_c, 3, 45, 0
6, 1140, Note_on_c, 3, 45, 64
6, 1175, Note_on_c, 3, 45, 0
6, 1200, Note_on_c, 3, 38, 64
6, 1320, Note_on_c, 3, 38, 0
6, 1380, Note_on_c, 3, 50, 64
6, 1475, Note_on_c, 3, 50, 0
6, 1500, Note_on_c, 3, 49, 64
6, 1535, Note_on_c, 3, 49, 0
6, 1560, Note_on_c, 3, 54, 64
6, 1595, Note_on_c, 3, 54, 0
6, 1620, Note_on_c, 3, 42, 64
6, 1655, Note_on_c, 3, 42, 0
6, 1680, Note_on_c, 3, 47, 64
6, 1800, Note_on_c, 3, 47, 0
6, 1860, Note_on_c, 3, 55, 64
6, 1955, Note_on_c, 3, 55, 0
6, 1980, Note_on_c, 3, 49, 64
6, 2015, Note_on_c, 3, 49, 0
6, 2040, Note_on_c, 3, 45, 64
6, 2075, Note_on_c, 3, 45, 0
6, 2100, Note_on_c, 3, 49, 64
6, 2135, Note_on_c, 3, 49, 0
6, 2160, Note_on_c, 3, 50, 64
6, 2195, Note_on_c, 3, 50, 0
6, 2220, Note_on_c, 3, 54, 64
6, 2255, Note_on_c, 3, 54, 0
6, 2280, Note_on_c, 3, 55, 64
6, 2315, Note_on_c, 3, 55, 0
6, 2340, Note_on_c, 3, 52, 64
6, 2375, Note_on_c, 3, 52, 0
6, 2400, Note_on_c, 3, 57, 64
6, 2435, Note_on_c, 3, 57, 0
6, 2460, Note_on_c, 3, 49, 64
6, 2495, Note_on_c, 3, 49, 0
6, 2520, Note_on_c, 3, 50, 64
6, 2555, Note_on_c, 3, 50, 0
6, 2580, Note_on_c, 3, 52, 64
6, 2615, Note_on_c, 3, 52, 0
6, 2640, Note_on_c, 3, 45, 64
6, 2675, Note_on_c, 3, 45, 0
6, 2700, Note_on_c, 3, 49, 64
6, 2735, Note_on_c, 3, 49, 0
6, 2760, Note_on_c, 3, 52, 64
6, 2795, Note_on_c, 3, 52, 0
6, 2820, Note_on_c, 3, 55, 64
6, 2915, Note_on_c, 3, 55, 0
6, 2940, Note_on_c, 3, 49, 64
6, 2970, Note_on_c, 3, 49, 0
6, 2970, Note_on_c, 3, 47, 64
6, 3000, Note_on_c, 3, 47, 0
6, 3000, Note_on_c, 3, 49, 64
6, 3035, Note_on_c, 3, 49, 0
6, 3060, Note_on_c, 3, 45, 64
6, 3095, Note_on_c, 3, 45, 0
6, 3120, Note_on_c, 3, 50, 64
6, 3155, Note_on_c, 3, 50, 0
6, 3180, Note_on_c, 3, 54, 64
6, 3215, Note_on_c, 3, 54, 0
6, 3240, Note_on_c, 3, 57, 64
6, 3275, Note_on_c, 3, 57, 0
6, 3300, Note_on_c, 3, 60, 64
6, 3395, Note_on_c, 3, 60, 0
6, 3420, Note_on_c, 3, 54, 64
6, 3450, Note_on_c, 3, 54, 0
6, 3450, Note_on_c, 3, 52, 64
6, 3480, Note_on_c, 3, 52, 0
6, 3480, Note_on_c, 3, 54, 64
6, 3515, Note_on_c, 3, 54, 0
6, 3540, Note_on_c, 3, 50, 64
6, 3575, Note_on_c, 3, 50, 0
6, 3600, Note_on_c, 3, 55, 64
6, 3635, Note_on_c, 3, 55, 0
6, 3660, Note_on_c, 3, 52, 64
6, 3695, Note_on_c, 3, 52, 0
6, 3720, Note_on_c, 3, 54, 64
6, 3755, Note_on_c, 3, 54, 0
6, 3780, Note_on_c, 3, 50, 64
6, 3815, Note_on_c, 3, 50, 0
6, 3840, Note_on_c, 3, 52, 64
6, 3875, Note_on_c, 3, 52, 0
6, 3900, Note_on_c, 3, 49, 64
6, 3935, Note_on_c, 3, 49, 0
6, 3960, Note_on_c, 3, 50, 64
6, 3995, Note_on_c, 3, 50, 0
6, 4020, Note_on_c, 3, 47, 64
6, 4055, Note_on_c, 3, 47, 0
6, 4080, Note_on_c, 3, 49, 64
6, 4115, Note_on_c, 3, 49, 0
6, 4140, Note_on_c, 3, 45, 64
6, 4175, Note_on_c, 3, 45, 0
6, 4200, Note_on_c, 3, 47, 64
6, 4235, Note_on_c, 3, 47, 0
6, 4260, Note_on_c, 3, 55, 64
6, 4295, Note_on_c, 3, 55, 0
6, 4320, Note_on_c, 3, 45, 64
6, 4355, Note_on_c, 3, 45, 0
6, 4380, Note_on_c, 3, 55, 64
6, 4415, Note_on_c, 3, 55, 0
6, 4440, Note_on_c, 3, 54, 64
6, 4475, Note_on_c, 3, 54, 0
6, 4500, Note_on_c, 3, 50, 64
6, 4535, Note_on_c, 3, 50, 0
6, 4560, Note_on_c, 3, 47, 64
6, 4595, Note_on_c, 3, 47, 0
6, 4620, Note_on_c, 3, 43, 64
6, 4655, Note_on_c, 3, 43, 0
6, 4680, Note_on_c, 3, 45, 64
6, 4715, Note_on_c, 3, 45, 0
6, 4740, Note_on_c, 3, 45, 64
6, 4775, Note_on_c, 3, 45, 0
6, 4800, Control_c, 3, 7, 80
6, 4800, Note_on_c, 3, 38, 64
6, 4835, Note_on_c, 3, 38, 0
6, 4860, Note_on_c, 3, 50, 64
6, 4895, Note_on_c, 3, 50, 0
6, 4920, Note_on_c, 3, 45, 64
6, 4955, Note_on_c, 3, 45, 0
6, 4980, Note_on_c, 3, 47, 64
6, 5015, Note_on_c, 3, 47, 0
6, 5040, Note_on_c, 3, 48, 64
6, 5075, Note_on_c, 3, 48, 0
6, 5100, Note_on_c, 3, 45, 64
6, 5135, Note_on_c, 3, 45, 0
6, 5160, Note_on_c, 3, 42, 64
6, 5195, Note_on_c, 3, 42, 0
6, 5220, Note_on_c, 3, 38, 64
6, 5255, Note_on_c, 3, 38, 0
6, 5340, Note_on_c, 3, 55, 64
6, 5375, Note_on_c, 3, 55, 0
6, 5400, Note_on_c, 3, 49, 64
6, 5435, Note_on_c, 3, 49, 0
6, 5460, Note_on_c, 3, 52, 64
6, 5495, Note_on_c, 3, 52, 0
6, 5520, Note_on_c, 3, 55, 64
6, 5555, Note_on_c, 3, 55, 0
6, 5580, Note_on_c, 3, 52, 64
6, 5615, Note_on_c, 3, 52, 0
6, 5640, Note_on_c, 3, 49, 64
6, 5675, Note_on_c, 3, 49, 0
6, 5700, Note_on_c, 3, 45, 64
6, 5735, Note_on_c, 3, 45, 0
6, 5760, Note_on_c, 3, 50, 64
6, 6035, Note_on_c, 3, 50, 0
6, 6060, Note_on_c, 3, 54, 64
6, 6095, Note_on_c, 3, 54, 0
6, 6120, Note_on_c, 3, 57, 64
6, 6155, Note_on_c, 3, 57, 0
6, 6180, Note_on_c, 3, 62, 64
6, 6215, Note_on_c, 3, 62, 0
6, 6240, Note_on_c, 3, 50, 64
6, 6515, Note_on_c, 3, 50, 0
6, 6540, Note_on_c, 3, 54, 64
6, 6575, Note_on_c, 3, 54, 0
6, 6600, Note_on_c, 3, 57, 64
6, 6635, Note_on_c, 3, 57, 0
6, 6660, Note_on_c, 3, 61, 64
6, 6695, Note_on_c, 3, 61, 0
6, 6720, Note_on_c, 3, 50, 64
6, 6755, Note_on_c, 3, 50, 0
6, 6780, Note_on_c, 3, 54, 64
6, 6815, Note_on_c, 3, 54, 0
6, 6840, Note_on_c, 3, 47, 64
6, 6875, Note_on_c, 3, 47, 0
6, 6900, Note_on_c, 3, 50, 64
6, 6935, Note_on_c, 3, 50, 0
6, 6960, Note_on_c, 3, 44, 64
6, 6995, Note_on_c, 3, 44, 0
6, 7020, Note_on_c, 3, 50, 64
6, 7055, Note_on_c, 3, 50, 0
6, 7080, Note_on_c, 3, 44, 64
6, 7115, Note_on_c, 3, 44, 0
6, 7140, Note_on_c, 3, 47, 64
6, 7175, Note_on_c, 3, 47, 0
6, 7200, Note_on_c, 3, 49, 64
6, 7235, Note_on_c, 3, 49, 0
6, 7260, Note_on_c, 3, 52, 64
6, 7295, Note_on_c, 3, 52, 0
6, 7320, Note_on_c, 3, 45, 64
6, 7355, Note_on_c, 3, 45, 0
6, 7380, Note_on_c, 3, 49, 64
6, 7415, Note_on_c, 3, 49, 0
6, 7440, Note_on_c, 3, 42, 64
6, 7475, Note_on_c, 3, 42, 0
6, 7500, Note_on_c, 3, 49, 64
6, 7535, Note_on_c, 3, 49, 0
6, 7560, Note_on_c, 3, 42, 64
6, 7595, Note_on_c, 3, 42, 0
6, 7620, Note_on_c, 3, 45, 64
6, 7655, Note_on_c, 3, 45, 0
6, 7680, Note_on_c, 3, 47, 64
6, 7715, Note_on_c, 3, 47, 0
6, 7740, Note_on_c, 3, 59, 64
6, 7775, Note_on_c, 3, 59, 0
6, 7800, Note_on_c, 3, 61, 64
6, 7835, Note_on_c, 3, 61, 0
6, 7860, Note_on_c, 3, 62, 64
6, 7895, Note_on_c, 3, 62, 0
6, 7920, Note_on_c, 3, 56, 64
6, 7955, Note_on_c, 3, 56, 0
6, 7980, Note_on_c, 3, 59, 64
6, 8015, Note_on_c, 3, 59, 0
6, 8040, Note_on_c, 3, 52, 64
6, 8075, Note_on_c, 3, 52, 0
6, 8100, Note_on_c, 3, 56, 64
6, 8135, Note_on_c, 3, 56, 0
6, 8160, Note_on_c, 3, 45, 64
6, 8340, Note_on_c, 3, 45, 0
6, 8340, Note_on_c, 3, 43, 64
6, 8375, Note_on_c, 3, 43, 0
6, 8400, Note_on_c, 3, 41, 64
6, 8435, Note_on_c, 3, 41, 0
6, 8460, Note_on_c, 3, 57, 64
6, 8490, Note_on_c, 3, 57, 0
6, 8490, Note_on_c, 3, 55, 64
6, 8520, Note_on_c, 3, 55, 0
6, 8520, Note_on_c, 3, 53, 64
6, 8550, Note_on_c, 3, 53, 0
6, 8550, Note_on_c, 3, 52, 64
6, 8580, Note_on_c, 3, 52, 0
6, 8580, Note_on_c, 3, 50, 64
6, 8610, Note_on_c, 3, 50, 0
6, 8610, Note_on_c, 3, 48, 64
6, 8640, Note_on_c, 3, 48, 0
6, 8640, Note_on_c, 3, 47, 64
6, 8675, Note_on_c, 3, 47, 0
6, 8700, Note_on_c, 3, 52, 64
6, 8730, Note_on_c, 3, 52, 0
6, 8730, Note_on_c, 3, 53, 64
6, 8760, Note_on_c, 3, 53, 0
6, 8760, Note_on_c, 3, 52, 64
6, 8790, Note_on_c, 3, 52, 0
6, 8790, Note_on_c, 3, 50, 64
6, 8820, Note_on_c, 3, 50, 0
6, 8820, Note_on_c, 3, 49, 64
6, 8850, Note_on_c, 3, 49, 0
6, 8850, Note_on_c, 3, 47, 64
6, 8880, Note_on_c, 3, 47, 0
6, 8880, Note_on_c, 3, 45, 64
6, 8915, Note_on_c, 3, 45, 0
6, 8940, Note_on_c, 3, 57, 64
6, 8975, Note_on_c, 3, 57, 0
6, 9000, Note_on_c, 3, 52, 64
6, 9035, Note_on_c, 3, 52, 0
6, 9060, Note_on_c, 3, 54, 64
6, 9095, Note_on_c, 3, 54, 0
6, 9120, Note_on_c, 3, 55, 64
6, 9155, Note_on_c, 3, 55, 0
6, 9180, Note_on_c, 3, 52, 64
6, 9215, Note_on_c, 3, 52, 0
6, 9240, Note_on_c, 3, 49, 64
6, 9275, Note_on_c, 3, 49, 0
6, 9300, Note_on_c, 3, 45, 64
6, 9335, Note_on_c, 3, 45, 0
6, 9420, Note_on_c, 3, 50, 64
6, 9455, Note_on_c, 3, 50, 0
6, 9480, Note_on_c, 3, 44, 64
6, 9515, Note_on_c, 3, 44, 0
6, 9540, Note_on_c, 3, 47, 64
6, 9575, Note_on_c, 3, 47, 0
6, 9600, Note_on_c, 3, 50, 64
6, 9635, Note_on_c, 3, 50, 0
6, 9660, Note_on_c, 3, 47, 64
6, 9695, Note_on_c, 3, 47, 0
6, 9720, Note_on_c, 3, 44, 64
6, 9755, Note_on_c, 3, 44, 0
6, 9780, Note_on_c, 3, 40, 64
6, 9815, Note_on_c, 3, 40, 0
6, 9840, Note_on_c, 3, 45, 64
6, 10115, Note_on_c, 3, 45, 0
6, 10140, Note_on_c, 3, 49, 64
6, 10175, Note_on_c, 3, 49, 0
6, 10200, Note_on_c, 3, 52, 64
6, 10235, Note_on_c, 3, 52, 0
6, 10260, Note_on_c, 3, 57, 64
6, 10295, Note_on_c, 3, 57, 0
6, 10320, Note_on_c, 3, 45, 64
6, 10595, Note_on_c, 3, 45, 0
6, 10620, Note_on_c, 3, 49, 64
6, 10655, Note_on_c, 3, 49, 0
6, 10680, Note_on_c, 3, 52, 64
6, 10715, Note_on_c, 3, 52, 0
6, 10740, Note_on_c, 3, 56, 64
6, 10775, Note_on_c, 3, 56, 0
6, 10800, Note_on_c, 3, 45, 64
6, 10835, Note_on_c, 3, 45, 0
6, 10860, Note_on_c, 3, 61, 64
6, 10895, Note_on_c, 3, 61, 0
6, 10920, Note_on_c, 3, 54, 64
6, 10955, Note_on_c, 3, 54, 0
6, 10980, Note_on_c, 3, 57, 64
6, 11015, Note_on_c, 3, 57, 0
6, 11040, Note_on_c, 3, 51, 64
6, 11075, Note_on_c, 3, 51, 0
6, 11100, Note_on_c, 3, 57, 64
6, 11135, Note_on_c, 3, 57, 0
6, 11160, Note_on_c, 3, 51, 64
6, 11195, Note_on_c, 3, 51, 0
6, 11220, Note_on_c, 3, 54, 64
6, 11255, Note_on_c, 3, 54, 0
6, 11280, Note_on_c, 3, 44, 64
6, 11315, Note_on_c, 3, 44, 0
6, 11340, Note_on_c, 3, 59, 64
6, 11375, Note_on_c, 3, 59, 0
6, 11400, Note_on_c, 3, 52, 64
6, 11435, Note_on_c, 3, 52, 0
6, 11460, Note_on_c, 3, 56, 64
6, 11495, Note_on_c, 3, 56, 0
6, 11520, Note_on_c, 3, 49, 64
6, 11555, Note_on_c, 3, 49, 0
6, 11580, Note_on_c, 3, 56, 64
6, 11615, Note_on_c, 3, 56, 0
6, 11640, Note_on_c, 3, 49, 64
6, 11675, Note_on_c, 3, 49, 0
6, 11700, Note_on_c, 3, 52, 64
6, 11735, Note_on_c, 3, 52, 0
6, 11760, Note_on_c, 3, 42, 64
6, 11795, Note_on_c, 3, 42, 0
6, 11820, Note_on_c, 3, 54, 64
6, 11855, Note_on_c, 3, 54, 0
6, 11880, Note_on_c, 3, 56, 64
6, 11915, Note_on_c, 3, 56, 0
6, 11940, Note_on_c, 3, 57, 64
6, 11975, Note_on_c, 3, 57, 0
6, 12000, Note_on_c, 3, 51, 64
6, 12035, Note_on_c, 3, 51, 0
6, 12060, Note_on_c, 3, 54, 64
6, 12095, Note_on_c, 3, 54, 0
6, 12120, Note_on_c, 3, 47, 64
6, 12155, Note_on_c, 3, 47, 0
6, 12180, Note_on_c, 3, 51, 64
6, 12215, Note_on_c, 3, 51, 0
6, 12240, Note_on_c, 3, 52, 64
6, 12420, Note_on_c, 3, 52, 0
6, 12420, Note_on_c, 3, 62, 64
6, 12455, Note_on_c, 3, 62, 0
6, 12480, Note_on_c, 3, 60, 64
6, 12510, Note_on_c, 3, 60, 0
6, 12510, Note_on_c, 3, 59, 64
6, 12540, Note_on_c, 3, 59, 0
6, 12540, Note_on_c, 3, 57, 64
6, 12570, Note_on_c, 3, 57, 0
6, 12570, Note_on_c, 3, 55, 64
6, 12600, Note_on_c, 3, 55, 0
6, 12600, Note_on_c, 3, 54, 64
6, 12630, Note_on_c, 3, 54, 0
6, 12630, Note_on_c, 3, 52, 64
6, 12660, Note_on_c, 3, 52, 0
6, 12660, Note_on_c, 3, 51, 64
6, 12690, Note_on_c, 3, 51, 0
6, 12690, Note_on_c, 3, 54, 64
6, 12720, Note_on_c, 3, 54, 0
6, 12720, Note_on_c, 3, 47, 64
6, 12840, Note_on_c, 3, 47, 0
6, 13020, Note_on_c, 3, 47, 64
6, 13055, Note_on_c, 3, 47, 0
6, 13080, Note_on_c, 3, 49, 64
6, 13115, Note_on_c, 3, 49, 0
6, 13140, Note_on_c, 3, 51, 64
6, 13175, Note_on_c, 3, 51, 0
6, 13200, Note_on_c, 3, 40, 64
6, 13235, Note_on_c, 3, 40, 0
6, 13260, Note_on_c, 3, 44, 64
6, 13295, Note_on_c, 3, 44, 0
6, 13320, Note_on_c, 3, 47, 64
6, 13355, Note_on_c, 3, 47, 0
6, 13380, Note_on_c, 3, 52, 64
6, 13475, Note_on_c, 3, 52, 0
6, 13500, Note_on_c, 3, 44, 64
6, 13530, Note_on_c, 3, 44, 0
6, 13530, Note_on_c, 3, 42, 64
6, 13560, Note_on_c, 3, 42, 0
6, 13560, Note_on_c, 3, 40, 64
6, 13595, Note_on_c, 3, 40, 0
6, 13620, Note_on_c, 3, 52, 64
6, 13655, Note_on_c, 3, 52, 0
6, 13680, Note_on_c, 3, 45, 64
6, 13715, Note_on_c, 3, 45, 0
6, 13740, Note_on_c, 3, 49, 64
6, 13775, Note_on_c, 3, 49, 0
6, 13800, Note_on_c, 3, 52, 64
6, 13835, Note_on_c, 3, 52, 0
6, 13860, Note_on_c, 3, 57, 64
6, 13955, Note_on_c, 3, 57, 0
6, 13980, Note_on_c, 3, 49, 64
6, 14010, Note_on_c, 3, 49, 0
6, 14010, Note_on_c, 3, 47, 64
6, 14040, Note_on_c, 3, 47, 0
6, 14040, Note_on_c, 3, 45, 64
6, 14075, Note_on_c, 3, 45, 0
6, 14100, Note_on_c, 3, 57, 64
6, 14135, Note_on_c, 3, 57, 0
6, 14160, Note_on_c, 3, 50, 64
6, 14195, Note_on_c, 3, 50, 0
6, 14220, Note_on_c, 3, 47, 64
6, 14255, Note_on_c, 3, 47, 0
6, 14280, Note_on_c, 3, 44, 64
6, 14315, Note_on_c, 3, 44, 0
6, 14340, Note_on_c, 3, 45, 64
6, 14435, Note_on_c, 3, 45, 0
6, 14460, Note_on_c, 3, 44, 64
6, 14495, Note_on_c, 3, 44, 0
6, 14520, Note_on_c, 3, 45, 64
6, 14555, Note_on_c, 3, 45, 0
6, 14580, Note_on_c, 3, 49, 64
6, 14615, Note_on_c, 3, 49, 0
6, 14640, Note_on_c, 3, 39, 64
6, 14675, Note_on_c, 3, 39, 0
6, 14700, Note_on_c, 3, 54, 64
6, 14735, Note_on_c, 3, 54, 0
6, 14760, Note_on_c, 3, 47, 64
6, 14795, Note_on_c, 3, 47, 0
6, 14820, Note_on_c, 3, 59, 64
6, 14855, Note_on_c, 3, 59, 0
6, 14880, Note_on_c, 3, 40, 64
6, 14915, Note_on_c, 3, 40, 0
6, 14940, Note_on_c, 3, 52, 64
6, 14975, Note_on_c, 3, 52, 0
6, 15000, Note_on_c, 3, 54, 64
6, 15035, Note_on_c, 3, 54, 0
6, 15060, Note_on_c, 3, 52, 64
6, 15095, Note_on_c, 3, 52, 0
6, 15120, Note_on_c, 3, 50, 64
6, 15155, Note_on_c, 3, 50, 0
6, 15180, Note_on_c, 3, 49, 64
6, 15215, Note_on_c, 3, 49, 0
6, 15240, Note_on_c, 3, 47, 64
6, 15275, Note_on_c, 3, 47, 0
6, 15300, Note_on_c, 3, 49, 64
6, 15330, Note_on_c, 3, 49, 0
6, 15330, Note_on_c, 3, 50, 64
6, 15360, Note_on_c, 3, 50, 0
6, 15360, Note_on_c, 3, 52, 64
6, 15395, Note_on_c, 3, 52, 0
6, 15420, Note_on_c, 3, 40, 64
6, 15455, Note_on_c, 3, 40, 0
6, 15480, Note_on_c, 3, 42, 64
6, 15515, Note_on_c, 3, 42, 0
6, 15540, Note_on_c, 3, 38, 64
6, 15575, Note_on_c, 3, 38, 0
6, 15600, Note_on_c, 3, 40, 64
6, 15635, Note_on_c, 3, 40, 0
6, 15660, Note_on_c, 3, 38, 64
6, 15695, Note_on_c, 3, 38, 0
6, 15720, Note_on_c, 3, 40, 64
6, 15755, Note_on_c, 3, 40, 0
6, 15780, Note_on_c, 3, 52, 64
6, 15815, Note_on_c, 3, 52, 0
6, 15840, Control_c, 3, 7, 127
6, 15840, Note_on_c, 3, 45, 64
6, 16115, Note_on_c, 3, 45, 0
6, 16140, Note_on_c, 3, 45, 64
6, 16175, Note_on_c, 3, 45, 0
6, 16200, Note_on_c, 3, 47, 64
6, 16235, Note_on_c, 3, 47, 0
6, 16260, Note_on_c, 3, 49, 64
6, 16295, Note_on_c, 3, 49, 0
6, 16320, Note_on_c, 3, 50, 64
6, 16355, Note_on_c, 3, 50, 0
6, 16380, Note_on_c, 3, 47, 64
6, 16415, Note_on_c, 3, 47, 0
6, 16440, Note_on_c, 3, 52, 64
6, 16475, Note_on_c, 3, 52, 0
6, 16500, Note_on_c, 3, 40, 64
6, 16535, Note_on_c, 3, 40, 0
6, 16560, Note_on_c, 3, 45, 64
6, 16680, Note_on_c, 3, 45, 0
6, 16740, Note_on_c, 3, 57, 64
6, 16835, Note_on_c, 3, 57, 0
6, 16860, Note_on_c, 3, 56, 64
6, 16895, Note_on_c, 3, 56, 0
6, 16920, Note_on_c, 3, 61, 64
6, 16955, Note_on_c, 3, 61, 0
6, 16980, Note_on_c, 3, 49, 64
6, 17015, Note_on_c, 3, 49, 0
6, 17040, Note_on_c, 3, 54, 64
6, 17160, Note_on_c, 3, 54, 0
6, 17220, Note_on_c, 3, 50, 64
6, 17315, Note_on_c, 3, 50, 0
6, 17340, Note_on_c, 3, 44, 64
6, 17375, Note_on_c, 3, 44, 0
6, 17400, Note_on_c, 3, 40, 64
6, 17435, Note_on_c, 3, 40, 0
6, 17460, Note_on_c, 3, 44, 64
6, 17495, Note_on_c, 3, 44, 0
6, 17520, Note_on_c, 3, 45, 64
6, 17555, Note_on_c, 3, 45, 0
6, 17580, Note_on_c, 3, 49, 64
6, 17615, Note_on_c, 3, 49, 0
6, 17640, Note_on_c, 3, 50, 64
6, 17675, Note_on_c, 3, 50, 0
6, 17700, Note_on_c, 3, 47, 64
6, 17735, Note_on_c, 3, 47, 0
6, 17760, Note_on_c, 3, 52, 64
6, 17795, Note_on_c, 3, 52, 0
6, 17820, Note_on_c, 3, 44, 64
6, 17855, Note_on_c, 3, 44, 0
6, 17880, Note_on_c, 3, 45, 64
6, 17915, Note_on_c, 3, 45, 0
6, 17940, Note_on_c, 3, 47, 64
6, 17975, Note_on_c, 3, 47, 0
6, 18000, Note_on_c, 3, 40, 64
6, 18035, Note_on_c, 3, 40, 0
6, 18060, Note_on_c, 3, 44, 64
6, 18095, Note_on_c, 3, 44, 0
6, 18120, Note_on_c, 3, 47, 64
6, 18155, Note_on_c, 3, 47, 0
6, 18180, Note_on_c, 3, 50, 64
6, 18275, Note_on_c, 3, 50, 0
6, 18300, Note_on_c, 3, 44, 64
6, 18330, Note_on_c, 3, 44, 0
6, 18330, Note_on_c, 3, 42, 64
6, 18360, Note_on_c, 3, 42, 0
6, 18360, Note_on_c, 3, 44, 64
6, 18395, Note_on_c, 3, 44, 0
6, 18420, Note_on_c, 3, 40, 64
6, 18455, Note_on_c, 3, 40, 0
6, 18480, Note_on_c, 3, 45, 64
6, 18515, Note_on_c, 3, 45, 0
6, 18540, Note_on_c, 3, 49, 64
6, 18575, Note_on_c, 3, 49, 0
6, 18600, Note_on_c, 3, 52, 64
6, 18635, Note_on_c, 3, 52, 0
6, 18660, Note_on_c, 3, 55, 64
6, 18755, Note_on_c, 3, 55, 0
6, 18780, Note_on_c, 3, 49, 64
6, 18810, Note_on_c, 3, 49, 0
6, 18810, Note_on_c, 3, 47, 64
6, 18840, Note_on_c, 3, 47, 0
6, 18840, Note_on_c, 3, 49, 64
6, 18875, Note_on_c, 3, 49, 0
6, 18900, Note_on_c, 3, 45, 64
6, 18935, Note_on_c, 3, 45, 0
6, 18960, Note_on_c, 3, 50, 64
6, 18995, Note_on_c, 3, 50, 0
6, 19020, Note_on_c, 3, 47, 64
6, 19055, Note_on_c, 3, 47, 0
6, 19080, Note_on_c, 3, 49, 64
6, 19115, Note_on_c, 3, 49, 0
6, 19140, Note_on_c, 3, 45, 64
6, 19175, Note_on_c, 3, 45, 0
6, 19200, Note_on_c, 3, 47, 64
6, 19235, Note_on_c, 3, 47, 0
6, 19260, Note_on_c, 3, 44, 64
6, 19295, Note_on_c, 3, 44, 0
6, 19320, Note_on_c, 3, 45, 64
6, 19355, Note_on_c, 3, 45, 0
6, 19380, Note_on_c, 3, 42, 64
6, 19415, Note_on_c, 3, 42, 0
6, 19440, Note_on_c, 3, 44, 64
6, 19475, Note_on_c, 3, 44, 0
6, 19500, Note_on_c, 3, 40, 64
6, 19535, Note_on_c, 3, 40, 0
6, 19560, Note_on_c, 3, 42, 64
6, 19595, Note_on_c, 3, 42, 0
6, 19620, Note_on_c, 3, 50, 64
6, 19655, Note_on_c, 3, 50, 0
6, 19680, Note_on_c, 3, 40, 64
6, 19715, Note_on_c, 3, 40, 0
6, 19740, Note_on_c, 3, 50, 64
6, 19775, Note_on_c, 3, 50, 0
6, 19800, Note_on_c, 3, 49, 64
6, 19835, Note_on_c, 3, 49, 0
6, 19860, Note_on_c, 3, 45, 64
6, 19895, Note_on_c, 3, 45, 0
6, 19920, Note_on_c, 3, 54, 64
6, 19955, Note_on_c, 3, 54, 0
6, 19980, Note_on_c, 3, 50, 64
6, 20015, Note_on_c, 3, 50, 0
6, 20040, Note_on_c, 3, 52, 64
6, 20075, Note_on_c, 3, 52, 0
6, 20100, Note_on_c, 3, 40, 64
6, 20135, Note_on_c, 3, 40, 0
6, 20160, Control_c, 3, 7, 80
6, 20160, Note_on_c, 3, 45, 64
6, 20195, Note_on_c, 3, 45, 0
6, 20220, Note_on_c, 3, 57, 64
6, 20255, Note_on_c, 3, 57, 0
6, 20280, Note_on_c, 3, 52, 64
6, 20315, Note_on_c, 3, 52, 0
6, 20340, Note_on_c, 3, 54, 64
6, 20375, Note_on_c, 3, 54, 0
6, 20400, Note_on_c, 3, 55, 64
6, 20435, Note_on_c, 3, 55, 0
6, 20460, Note_on_c, 3, 57, 64
6, 20490, Note_on_c, 3, 57, 0
6, 20490, Note_on_c, 3, 55, 64
6, 20520, Note_on_c, 3, 55, 0
6, 20520, Note_on_c, 3, 54, 64
6, 20555, Note_on_c, 3, 54, 0
6, 20580, Note_on_c, 3, 59, 64
6, 20615, Note_on_c, 3, 59, 0
6, 20640, Note_on_c, 3, 52, 64
6, 20675, Note_on_c, 3, 52, 0
6, 20700, Note_on_c, 3, 54, 64
6, 20735, Note_on_c, 3, 54, 0
6, 20760, Note_on_c, 3, 55, 64
6, 20795, Note_on_c, 3, 55, 0
6, 20820, Note_on_c, 3, 59, 64
6, 20855, Note_on_c, 3, 59, 0
6, 20880, Note_on_c, 3, 52, 64
6, 20915, Note_on_c, 3, 52, 0
6, 20940, Note_on_c, 3, 54, 64
6, 20975, Note_on_c, 3, 54, 0
6, 21000, Note_on_c, 3, 47, 64
6, 21035, Note_on_c, 3, 47, 0
6, 21060, Note_on_c, 3, 43, 64
6, 21095, Note_on_c, 3, 43, 0
6, 21120, Note_on_c, 3, 42, 64
6, 21155, Note_on_c, 3, 42, 0
6, 21180, Note_on_c, 3, 54, 64
6, 21215, Note_on_c, 3, 54, 0
6, 21240, Note_on_c, 3, 55, 64
6, 21270, Note_on_c, 3, 55, 0
6, 21270, Note_on_c, 3, 54, 64
6, 21300, Note_on_c, 3, 54, 0
6, 21300, Note_on_c, 3, 52, 64
6, 21330, Note_on_c, 3, 52, 0
6, 21330, Note_on_c, 3, 50, 64
6, 21360, Note_on_c, 3, 50, 0
6, 21360, Note_on_c, 3, 49, 64
6, 21395, Note_on_c, 3, 49, 0
6, 21420, Note_on_c, 3, 46, 64
6, 21455, Note_on_c, 3, 46, 0
6, 21480, Note_on_c, 3, 42, 64
6, 21515, Note_on_c, 3, 42, 0
6, 21540, Note_on_c, 3, 46, 64
6, 21575, Note_on_c, 3, 46, 0
6, 21600, Note_on_c, 3, 47, 64
6, 21635, Note_on_c, 3, 47, 0
6, 21660, Note_on_c, 3, 59, 64
6, 21695, Note_on_c, 3, 59, 0
6, 21720, Note_on_c, 3, 60, 64
6, 21750, Note_on_c, 3, 60, 0
6, 21750, Note_on_c, 3, 59, 64
6, 21780, Note_on_c, 3, 59, 0
6, 21780, Note_on_c, 3, 57, 64
6, 21810, Note_on_c, 3, 57, 0
6, 21810, Note_on_c, 3, 55, 64
6, 21840, Note_on_c, 3, 55, 0
6, 21840, Note_on_c, 3, 54, 64
6, 21875, Note_on_c, 3, 54, 0
6, 21900, Note_on_c, 3, 59, 64
6, 21935, Note_on_c, 3, 59, 0
6, 21960, Note_on_c, 3, 51, 64
6, 21995, Note_on_c, 3, 51, 0
6, 22020, Note_on_c, 3, 47, 64
6, 22055, Note_on_c, 3, 47, 0
6, 22080, Note_on_c, 3, 52, 64
6, 22115, Note_on_c, 3, 52, 0
6, 22140, Note_on_c, 3, 51, 64
6, 22175, Note_on_c, 3, 51, 0
6, 22200, Note_on_c, 3, 52, 64
6, 22235, Note_on_c, 3, 52, 0
6, 22260, Note_on_c, 3, 54, 64
6, 22295, Note_on_c, 3, 54, 0
6, 22320, Note_on_c, 3, 55, 64
6, 22355, Note_on_c, 3, 55, 0
6, 22380, Note_on_c, 3, 59, 64
6, 22415, Note_on_c, 3, 59, 0
6, 22440, Note_on_c, 3, 52, 64
6, 22475, Note_on_c, 3, 52, 0
6, 22500, Note_on_c, 3, 55, 64
6, 22535, Note_on_c, 3, 55, 0
6, 22560, Note_on_c, 3, 45, 64
6, 22595, Note_on_c, 3, 45, 0
6, 22620, Note_on_c, 3, 52, 64
6, 22655, Note_on_c, 3, 52, 0
6, 22680, Note_on_c, 3, 45, 64
6, 22715, Note_on_c, 3, 45, 0
6, 22740, Note_on_c, 3, 48, 64
6, 22775, Note_on_c, 3, 48, 0
6, 22800, Note_on_c, 3, 42, 64
6, 22835, Note_on_c, 3, 42, 0
6, 22860, Note_on_c, 3, 38, 64
6, 22895, Note_on_c, 3, 38, 0
6, 22920, Note_on_c, 3, 40, 64
6, 22955, Note_on_c, 3, 40, 0
6, 22980, Note_on_c, 3, 42, 64
6, 23015, Note_on_c, 3, 42, 0
6, 23040, Note_on_c, 3, 43, 64
6, 23075, Note_on_c, 3, 43, 0
6, 23100, Note_on_c, 3, 40, 64
6, 23135, Note_on_c, 3, 40, 0
6, 23160, Note_on_c, 3, 42, 64
6, 23195, Note_on_c, 3, 42, 0
6, 23220, Note_on_c, 3, 43, 64
6, 23255, Note_on_c, 3, 43, 0
6, 23280, Note_on_c, 3, 45, 64
6, 23315, Note_on_c, 3, 45, 0
6, 23340, Note_on_c, 3, 60, 64
6, 23375, Note_on_c, 3, 60, 0
6, 23400, Note_on_c, 3, 54, 64
6, 23435, Note_on_c, 3, 54, 0
6, 23460, Note_on_c, 3, 57, 64
6, 23495, Note_on_c, 3, 57, 0
6, 23520, Note_on_c, 3, 51, 64
6, 23555, Note_on_c, 3, 51, 0
6, 23580, Note_on_c, 3, 54, 64
6, 23615, Note_on_c, 3, 54, 0
6, 23640, Note_on_c, 3, 47, 64
6, 23675, Note_on_c, 3, 47, 0
6, 23700, Note_on_c, 3, 51, 64
6, 23735, Note_on_c, 3, 51, 0
6, 23760, Note_on_c, 3, 40, 64
6, 23795, Note_on_c, 3, 40, 0
6, 23820, Note_on_c, 3, 55, 64
6, 23855, Note_on_c, 3, 55, 0
6, 23880, Note_on_c, 3, 49, 64
6, 23915, Note_on_c, 3, 49, 0
6, 23940, Note_on_c, 3, 52, 64
6, 23975, Note_on_c, 3, 52, 0
6, 24000, Note_on_c, 3, 54, 64
6, 24035, Note_on_c, 3, 54, 0
6, 24060, Note_on_c, 3, 56, 64
6, 24095, Note_on_c, 3, 56, 0
6, 24120, Note_on_c, 3, 58, 64
6, 24155, Note_on_c, 3, 58, 0
6, 24180, Note_on_c, 3, 54, 64
6, 24215, Note_on_c, 3, 54, 0
6, 24240, Note_on_c, 3, 59, 64
6, 24360, Note_on_c, 3, 59, 0
6, 24510, Note_on_c, 3, 47, 64
6, 24540, Note_on_c, 3, 47, 0
6, 24540, Note_on_c, 3, 50, 64
6, 24570, Note_on_c, 3, 50, 0
6, 24570, Note_on_c, 3, 49, 64
6, 24600, Note_on_c, 3, 49, 0
6, 24600, Note_on_c, 3, 47, 64
6, 24630, Note_on_c, 3, 47, 0
6, 24630, Note_on_c, 3, 45, 64
6, 24660, Note_on_c, 3, 45, 0
6, 24660, Note_on_c, 3, 43, 64
6, 24690, Note_on_c, 3, 43, 0
6, 24690, Note_on_c, 3, 42, 64
6, 24720, Note_on_c, 3, 42, 0
6, 24720, Note_on_c, 3, 40, 64
6, 24840, Note_on_c, 3, 40, 0
6, 25020, Note_on_c, 3, 58, 64
6, 25055, Note_on_c, 3, 58, 0
6, 25080, Note_on_c, 3, 59, 64
6, 25115, Note_on_c, 3, 59, 0
6, 25140, Note_on_c, 3, 54, 64
6, 25175, Note_on_c, 3, 54, 0
6, 25200, Note_on_c, 3, 55, 64
6, 25235, Note_on_c, 3, 55, 0
6, 25260, Note_on_c, 3, 52, 64
6, 25295, Note_on_c, 3, 52, 0
6, 25320, Note_on_c, 3, 54, 64
6, 25355, Note_on_c, 3, 54, 0
6, 25380, Note_on_c, 3, 42, 64
6, 25415, Note_on_c, 3, 42, 0
6, 25440, Control_c, 3, 7, 127
6, 25440, Note_on_c, 3, 47, 64
6, 25475, Note_on_c, 3, 47, 0
6, 25500, Note_on_c, 3, 49, 64
6, 25535, Note_on_c, 3, 49, 0
6, 25560, Note_on_c, 3, 50, 64
6, 25595, Note_on_c, 3, 50, 0
6, 25620, Note_on_c, 3, 52, 64
6, 25655, Note_on_c, 3, 52, 0
6, 25680, Note_on_c, 3, 42, 64
6, 25715, Note_on_c, 3, 42, 0
6, 25740, Note_on_c, 3, 46, 64
6, 25775, Note_on_c, 3, 46, 0
6, 25800, Note_on_c, 3, 49, 64
6, 25835, Note_on_c, 3, 49, 0
6, 25860, Note_on_c, 3, 52, 64
6, 25955, Note_on_c, 3, 52, 0
6, 25980, Note_on_c, 3, 46, 64
6, 26010, Note_on_c, 3, 46, 0
6, 26010, Note_on_c, 3, 44, 64
6, 26040, Note_on_c, 3, 44, 0
6, 26040, Note_on_c, 3, 46, 64
6, 26075, Note_on_c, 3, 46, 0
6, 26100, Note_on_c, 3, 42, 64
6, 26135, Note_on_c, 3, 42, 0
6, 26160, Note_on_c, 3, 47, 64
6, 26195, Note_on_c, 3, 47, 0
6, 26220, Note_on_c, 3, 51, 64
6, 26255, Note_on_c, 3, 51, 0
6, 26280, Note_on_c, 3, 54, 64
6, 26315, Note_on_c, 3, 54, 0
6, 26340, Note_on_c, 3, 57, 64
6, 26435, Note_on_c, 3, 57, 0
6, 26460, Note_on_c, 3, 51, 64
6, 26490, Note_on_c, 3, 51, 0
6, 26490, Note_on_c, 3, 49, 64
6, 26520, Note_on_c, 3, 49, 0
6, 26520, Note_on_c, 3, 51, 64
6, 26555, Note_on_c, 3, 51, 0
6, 26580, Note_on_c, 3, 47, 64
6, 26615, Note_on_c, 3, 47, 0
6, 26640, Note_on_c, 3, 52, 64
6, 26675, Note_on_c, 3, 52, 0
6, 26700, Note_on_c, 3, 49, 64
6, 26735, Note_on_c, 3, 49, 0
6, 26760, Note_on_c, 3, 50, 64
6, 26795, Note_on_c, 3, 50, 0
6, 26820, Note_on_c, 3, 47, 64
6, 26855, Note_on_c, 3, 47, 0
6, 26880, Note_on_c, 3, 49, 64
6, 26915, Note_on_c, 3, 49, 0
6, 26940, Note_on_c, 3, 46, 64
6, 26975, Note_on_c, 3, 46, 0
6, 27000, Note_on_c, 3, 47, 64
6, 27035, Note_on_c, 3, 47, 0
6, 27060, Note_on_c, 3, 43, 64
6, 27095, Note_on_c, 3, 43, 0
6, 27120, Note_on_c, 3, 45, 64
6, 27155, Note_on_c, 3, 45, 0
6, 27180, Note_on_c, 3, 42, 64
6, 27215, Note_on_c, 3, 42, 0
6, 27240, Note_on_c, 3, 43, 64
6, 27275, Note_on_c, 3, 43, 0
6, 27300, Note_on_c, 3, 52, 64
6, 27335, Note_on_c, 3, 52, 0
6, 27360, Note_on_c, 3, 42, 64
6, 27395, Note_on_c, 3, 42, 0
6, 27420, Note_on_c, 3, 52, 64
6, 27455, Note_on_c, 3, 52, 0
6, 27480, Note_on_c, 3, 50, 64
6, 27515, Note_on_c, 3, 50, 0
6, 27540, Note_on_c, 3, 59, 64
6, 27575, Note_on_c, 3, 59, 0
6, 27600, Note_on_c, 3, 55, 64
6, 27635, Note_on_c, 3, 55, 0
6, 27660, Note_on_c, 3, 52, 64
6, 27695, Note_on_c, 3, 52, 0
6, 27720, Note_on_c, 3, 54, 64
6, 27755, Note_on_c, 3, 54, 0
6, 27780, Note_on_c, 3, 42, 64
6, 27815, Note_on_c, 3, 42, 0
6, 27837, Control_c, 3, 7, 127
6, 27840, Note_on_c, 3, 47, 64
6, 27856, Control_c, 3, 7, 108
6, 27875, Control_c, 3, 7, 88
6, 27883, Control_c, 3, 7, 80
6, 27960, Note_on_c, 3, 47, 0
6, 28020, Note_on_c, 3, 59, 64
6, 28055, Note_on_c, 3, 59, 0
6, 28080, Note_on_c, 3, 54, 64
6, 28115, Note_on_c, 3, 54, 0
6, 28140, Note_on_c, 3, 56, 64
6, 28175, Note_on_c, 3, 56, 0
6, 28200, Note_on_c, 3, 57, 64
6, 28230, Note_on_c, 3, 57, 0
6, 28230, Note_on_c, 3, 56, 64
6, 28260, Note_on_c, 3, 56, 0
6, 28260, Note_on_c, 3, 54, 64
6, 28290, Note_on_c, 3, 54, 0
6, 28290, Note_on_c, 3, 52, 64
6, 28320, Note_on_c, 3, 52, 0
6, 28320, Note_on_c, 3, 51, 64
6, 28440, Note_on_c, 3, 51, 0
6, 28500, Note_on_c, 3, 47, 64
6, 28535, Note_on_c, 3, 47, 0
6, 28560, Note_on_c, 3, 52, 64
6, 28680, Note_on_c, 3, 52, 0
6, 28740, Note_on_c, 3, 46, 64
6, 28775, Note_on_c, 3, 46, 0
6, 28800, Note_on_c, 3, 47, 64
6, 28835, Note_on_c, 3, 47, 0
6, 28860, Note_on_c, 3, 40, 64
6, 28895, Note_on_c, 3, 40, 0
6, 28920, Note_on_c, 3, 38, 64
6, 28955, Note_on_c, 3, 38, 0
6, 28980, Note_on_c, 3, 50, 64
6, 29015, Note_on_c, 3, 50, 0
6, 29040, Note_on_c, 3, 55, 64
6, 29075, Note_on_c, 3, 55, 0
6, 29100, Note_on_c, 3, 54, 64
6, 29135, Note_on_c, 3, 54, 0
6, 29160, Note_on_c, 3, 52, 64
6, 29195, Note_on_c, 3, 52, 0
6, 29220, Note_on_c, 3, 54, 64
6, 29250, Note_on_c, 3, 54, 0
6, 29250, Note_on_c, 3, 55, 64
6, 29280, Note_on_c, 3, 55, 0
6, 29280, Note_on_c, 3, 57, 64
6, 29315, Note_on_c, 3, 57, 0
6, 29340, Note_on_c, 3, 52, 64
6, 29375, Note_on_c, 3, 52, 0
6, 29400, Note_on_c, 3, 49, 64
6, 29435, Note_on_c, 3, 49, 0
6, 29460, Note_on_c, 3, 45, 64
6, 29495, Note_on_c, 3, 45, 0
6, 29520, Note_on_c, 3, 50, 64
6, 29640, Note_on_c, 3, 50, 0
6, 29700, Note_on_c, 3, 50, 64
6, 29735, Note_on_c, 3, 50, 0
6, 29760, Note_on_c, 3, 55, 64
6, 29790, Note_on_c, 3, 55, 0
6, 29790, Note_on_c, 3, 54, 64
6, 29820, Note_on_c, 3, 54, 0
6, 29820, Note_on_c, 3, 52, 64
6, 29850, Note_on_c, 3, 52, 0
6, 29850, Note_on_c, 3, 50, 64
6, 29880, Note_on_c, 3, 50, 0
6, 29880, Note_on_c, 3, 49, 64
6, 29910, Note_on_c, 3, 49, 0
6, 29910, Note_on_c, 3, 50, 64
6, 29940, Note_on_c, 3, 50, 0
6, 29940, Note_on_c, 3, 52, 64
6, 29970, Note_on_c, 3, 52, 0
6, 29970, Note_on_c, 3, 49, 64
6, 30000, Note_on_c, 3, 49, 0
6, 30000, Note_on_c, 3, 45, 64
6, 30120, Note_on_c, 3, 45, 0
6, 30180, Note_on_c, 3, 45, 64
6, 30215, Note_on_c, 3, 45, 0
6, 30240, Note_on_c, 3, 38, 64
6, 30270, Note_on_c, 3, 38, 0
6, 30270, Note_on_c, 3, 52, 64
6, 30300, Note_on_c, 3, 52, 0
6, 30300, Note_on_c, 3, 50, 64
6, 30330, Note_on_c, 3, 50, 0
6, 30330, Note_on_c, 3, 48, 64
6, 30360, Note_on_c, 3, 48, 0
6, 30360, Note_on_c, 3, 47, 64
6, 30390, Note_on_c, 3, 47, 0
6, 30390, Note_on_c, 3, 48, 64
6, 30420, Note_on_c, 3, 48, 0
6, 30420, Note_on_c, 3, 50, 64
6, 30450, Note_on_c, 3, 50, 0
6, 30450, Note_on_c, 3, 47, 64
6, 30480, Note_on_c, 3, 47, 0
6, 30480, Note_on_c, 3, 42, 64
6, 30600, Note_on_c, 3, 42, 0
6, 30660, Note_on_c, 3, 38, 64
6, 30695, Note_on_c, 3, 38, 0
6, 30720, Note_on_c, 3, 48, 64
6, 30750, Note_on_c, 3, 48, 0
6, 30750, Note_on_c, 3, 52, 64
6, 30780, Note_on_c, 3, 52, 0
6, 30780, Note_on_c, 3, 50, 64
6, 30810, Note_on_c, 3, 50, 0
6, 30810, Note_on_c, 3, 48, 64
6, 30840, Note_on_c, 3, 48, 0
6, 30840, Note_on_c, 3, 47, 64
6, 30870, Note_on_c, 3, 47, 0
6, 30870, Note_on_c, 3, 48, 64
6, 30900, Note_on_c, 3, 48, 0
6, 30900, Note_on_c, 3, 50, 64
6, 30930, Note_on_c, 3, 50, 0
6, 30930, Note_on_c, 3, 47, 64
6, 30960, Note_on_c, 3, 47, 0
6, 30960, Note_on_c, 3, 43, 64
6, 30995, Note_on_c, 3, 43, 0
6, 31020, Note_on_c, 3, 55, 64
6, 31055, Note_on_c, 3, 55, 0
6, 31080, Note_on_c, 3, 52, 64
6, 31115, Note_on_c, 3, 52, 0
6, 31140, Note_on_c, 3, 57, 64
6, 31175, Note_on_c, 3, 57, 0
6, 31200, Note_on_c, 3, 50, 64
6, 31320, Note_on_c, 3, 50, 0
6, 31380, Note_on_c, 3, 38, 64
6, 31415, Note_on_c, 3, 38, 0
6, 31440, Note_on_c, 3, 43, 64
6, 31560, Note_on_c, 3, 43, 0
6, 31620, Note_on_c, 3, 52, 64
6, 31655, Note_on_c, 3, 52, 0
6, 31680, Note_on_c, 3, 49, 64
6, 31800, Note_on_c, 3, 49, 0
6, 31860, Note_on_c, 3, 45, 64
6, 31895, Note_on_c, 3, 45, 0
6, 31920, Note_on_c, 3, 50, 64
6, 31955, Note_on_c, 3, 50, 0
6, 31980, Note_on_c, 3, 52, 64
6, 32015, Note_on_c, 3, 52, 0
6, 32040, Note_on_c, 3, 54, 64
6, 32075, Note_on_c, 3, 54, 0
6, 32100, Note_on_c, 3, 50, 64
6, 32135, Note_on_c, 3, 50, 0
6, 32160, Note_on_c, 3, 55, 64
6, 32195, Note_on_c, 3, 55, 0
6, 32220, Note_on_c, 3, 59, 64
6, 32250, Note_on_c, 3, 59, 0
6, 32250, Note_on_c, 3, 57, 64
6, 32280, Note_on_c, 3, 57, 0
6, 32280, Note_on_c, 3, 55, 64
6, 32310, Note_on_c, 3, 55, 0
6, 32310, Note_on_c, 3, 54, 64
6, 32340, Note_on_c, 3, 54, 0
6, 32340, Note_on_c, 3, 52, 64
6, 32370, Note_on_c, 3, 52, 0
6, 32370, Note_on_c, 3, 51, 64
6, 32400, Note_on_c, 3, 51, 0
6, 32400, Note_on_c, 3, 52, 64
6, 32430, Note_on_c, 3, 52, 0
6, 32430, Note_on_c, 3, 55, 64
6, 32460, Note_on_c, 3, 55, 0
6, 32460, Note_on_c, 3, 54, 64
6, 32490, Note_on_c, 3, 54, 0
6, 32490, Note_on_c, 3, 52, 64
6, 32520, Note_on_c, 3, 52, 0
6, 32520, Note_on_c, 3, 51, 64
6, 32550, Note_on_c, 3, 51, 0
6, 32550, Note_on_c, 3, 49, 64
6, 32580, Note_on_c, 3, 49, 0
6, 32580, Note_on_c, 3, 47, 64
6, 32610, Note_on_c, 3, 47, 0
6, 32610, Note_on_c, 3, 45, 64
6, 32640, Note_on_c, 3, 45, 0
6, 32640, Note_on_c, 3, 43, 64
6, 32670, Note_on_c, 3, 43, 0
6, 32670, Note_on_c, 3, 45, 64
6, 32700, Note_on_c, 3, 45, 0
6, 32700, Note_on_c, 3, 43, 64
6, 32730, Note_on_c, 3, 43, 0
6, 32730, Note_on_c, 3, 42, 64
6, 32760, Note_on_c, 3, 42, 0
6, 32760, Note_on_c, 3, 40, 64
6, 32790, Note_on_c, 3, 40, 0
6, 32790, Note_on_c, 3, 42, 64
6, 32820, Note_on_c, 3, 42, 0
6, 32820, Note_on_c, 3, 43, 64
6, 32850, Note_on_c, 3, 43, 0
6, 32850, Note_on_c, 3, 40, 64
6, 32880, Note_on_c, 3, 40, 0
6, 32880, Note_on_c, 3, 45, 64
6, 33000, Note_on_c, 3, 45, 0
6, 33120, Note_on_c, 3, 45, 64
6, 33155, Note_on_c, 3, 45, 0
6, 33180, Note_on_c, 3, 49, 64
6, 33215, Note_on_c, 3, 49, 0
6, 33240, Note_on_c, 3, 52, 64
6, 33275, Note_on_c, 3, 52, 0
6, 33300, Note_on_c, 3, 57, 64
6, 33395, Note_on_c, 3, 57, 0
6, 33420, Note_on_c, 3, 49, 64
6, 33450, Note_on_c, 3, 49, 0
6, 33450, Note_on_c, 3, 47, 64
6, 33480, Note_on_c, 3, 47, 0
6, 33480, Note_on_c, 3, 45, 64
6, 33515, Note_on_c, 3, 45, 0
6, 33540, Note_on_c, 3, 57, 64
6, 33575, Note_on_c, 3, 57, 0
6, 33600, Note_on_c, 3, 38, 64
6, 33635, Note_on_c, 3, 38, 0
6, 33660, Note_on_c, 3, 42, 64
6, 33695, Note_on_c, 3, 42, 0
6, 33720, Note_on_c, 3, 45, 64
6, 33755, Note_on_c, 3, 45, 0
6, 33780, Note_on_c, 3, 50, 64
6, 33875, Note_on_c, 3, 50, 0
6, 33900, Note_on_c, 3, 42, 64
6, 33930, Note_on_c, 3, 42, 0
6, 33930, Note_on_c, 3, 40, 64
6, 33960, Note_on_c, 3, 40, 0
6, 33960, Note_on_c, 3, 38, 64
6, 33995, Note_on_c, 3, 38, 0
6, 34020, Note_on_c, 3, 50, 64
6, 34055, Note_on_c, 3, 50, 0
6, 34080, Note_on_c, 3, 55, 64
6, 34115, Note_on_c, 3, 55, 0
6, 34140, Note_on_c, 3, 52, 64
6, 34175, Note_on_c, 3, 52, 0
6, 34200, Note_on_c, 3, 49, 64
6, 34235, Note_on_c, 3, 49, 0
6, 34260, Note_on_c, 3, 50, 64
6, 34380, Note_on_c, 3, 50, 0
6, 34380, Note_on_c, 3, 49, 64
6, 34415, Note_on_c, 3, 49, 0
6, 34440, Note_on_c, 3, 50, 64
6, 34475, Note_on_c, 3, 50, 0
6, 34500, Note_on_c, 3, 54, 64
6, 34535, Note_on_c, 3, 54, 0
6, 34560, Note_on_c, 3, 44, 64
6, 34595, Note_on_c, 3, 44, 0
6, 34620, Note_on_c, 3, 52, 64
6, 34655, Note_on_c, 3, 52, 0
6, 34680, Note_on_c, 3, 40, 64
6, 34715, Note_on_c, 3, 40, 0
6, 34740, Note_on_c, 3, 52, 64
6, 34775, Note_on_c, 3, 52, 0
6, 34800, Note_on_c, 3, 45, 64
6, 34835, Note_on_c, 3, 45, 0
6, 34860, Note_on_c, 3, 57, 64
6, 34895, Note_on_c, 3, 57, 0
6, 34920, Note_on_c, 3, 59, 64
6, 34955, Note_on_c, 3, 59, 0
6, 34980, Note_on_c, 3, 57, 64
6, 35015, Note_on_c, 3, 57, 0
6, 35040, Note_on_c, 3, 55, 64
6, 35075, Note_on_c, 3, 55, 0
6, 35100, Note_on_c, 3, 54, 64
6, 35135, Note_on_c, 3, 54, 0
6, 35160, Note_on_c, 3, 52, 64
6, 35195, Note_on_c, 3, 52, 0
6, 35220, Note_on_c, 3, 54, 64
6, 35250, Note_on_c, 3, 54, 0
6, 35250, Note_on_c, 3, 55, 64
6, 35280, Note_on_c, 3, 55, 0
6, 35280, Note_on_c, 3, 57, 64
6, 35315, Note_on_c, 3, 57, 0
6, 35340, Note_on_c, 3, 45, 64
6, 35375, Note_on_c, 3, 45, 0
6, 35400, Note_on_c, 3, 47, 64
6, 35435, Note_on_c, 3, 47, 0
6, 35460, Note_on_c, 3, 49, 64
6, 35495, Note_on_c, 3, 49, 0
6, 35520, Note_on_c, 3, 50, 64
6, 35555, Note_on_c, 3, 50, 0
6, 35580, Note_on_c, 3, 47, 64
6, 35615, Note_on_c, 3, 47, 0
6, 35640, Note_on_c, 3, 43, 64
6, 35675, Note_on_c, 3, 43, 0
6, 35700, Note_on_c, 3, 45, 64
6, 35735, Note_on_c, 3, 45, 0
6, 35760, Note_on_c, 3, 38, 64
6, 36275, Note_on_c, 3, 38, 0
6, 36300, Note_on_c, 3, 47, 64
6, 36335, Note_on_c, 3, 47, 0
6, 36360, Note_on_c, 3, 49, 64
6, 36395, Note_on_c, 3, 49, 0
6, 36420, Note_on_c, 3, 45, 64
6, 36455, Note_on_c, 3, 45, 0
6, 36480, Note_on_c, 3, 50, 64
6, 36515, Note_on_c, 3, 50, 0
6, 36540, Note_on_c, 3, 55, 64
6, 36575, Note_on_c, 3, 55, 0
6, 36600, Note_on_c, 3, 57, 64
6, 36635, Note_on_c, 3, 57, 0
6, 36660, Note_on_c, 3, 45, 64
6, 36695, Note_on_c, 3, 45, 0
6, 36720, Note_on_c, 3, 50, 64
6, 36729, Control_c, 3, 7, 127
6, 36995, Note_on_c, 3, 50, 0
6, 37020, Note_on_c, 3, 38, 64
6, 37055, Note_on_c, 3, 38, 0
6, 37080, Note_on_c, 3, 40, 64
6, 37115, Note_on_c, 3, 40, 0
6, 37140, Note_on_c, 3, 42, 64
6, 37175, Note_on_c, 3, 42, 0
6, 37200, Note_on_c, 3, 43, 64
6, 37235, Note_on_c, 3, 43, 0
6, 37260, Note_on_c, 3, 40, 64
6, 37295, Note_on_c, 3, 40, 0
6, 37320, Note_on_c, 3, 45, 64
6, 37355, Note_on_c, 3, 45, 0
6, 37380, Note_on_c, 3, 45, 64
6, 37415, Note_on_c, 3, 45, 0
6, 37440, Note_on_c, 3, 38, 64
6, 37560, Note_on_c, 3, 38, 0
6, 37620, Note_on_c, 3, 50, 64
6, 37715, Note_on_c, 3, 50, 0
6, 37740, Note_on_c, 3, 49, 64
6, 37775, Note_on_c, 3, 49, 0
6, 37800, Note_on_c, 3, 54, 64
6, 37835, Note_on_c, 3, 54, 0
6, 37860, Note_on_c, 3, 42, 64
6, 37895, Note_on_c, 3, 42, 0
6, 37920, Note_on_c, 3, 47, 64
6, 38040, Note_on_c, 3, 47, 0
6, 38100, Note_on_c, 3, 55, 64
6, 38195, Note_on_c, 3, 55, 0
6, 38220, Note_on_c, 3, 49, 64
6, 38255, Note_on_c, 3, 49, 0
6, 38280, Note_on_c, 3, 45, 64
6, 38315, Note_on_c, 3, 45, 0
6, 38340, Note_on_c, 3, 49, 64
6, 38375, Note_on_c, 3, 49, 0
6, 38400, Note_on_c, 3, 50, 64
6, 38435, Note_on_c, 3, 50, 0
6, 38460, Note_on_c, 3, 54, 64
6, 38495, Note_on_c, 3, 54, 0
6, 38520, Note_on_c, 3, 55, 64
6, 38555, Note_on_c, 3, 55, 0
6, 38580, Note_on_c, 3, 52, 64
6, 38615, Note_on_c, 3, 52, 0
6, 38640, Note_on_c, 3, 57, 64
6, 38675, Note_on_c, 3, 57, 0
6, 38700, Note_on_c, 3, 49, 64
6, 38735, Note_on_c, 3, 49, 0
6, 38760, Note_on_c, 3, 50, 64
6, 38795, Note_on_c, 3, 50, 0
6, 38820, Note_on_c, 3, 52, 64
6, 38855, Note_on_c, 3, 52, 0
6, 38880, Note_on_c, 3, 45, 64
6, 38915, Note_on_c, 3, 45, 0
6, 38940, Note_on_c, 3, 49, 64
6, 38975, Note_on_c, 3, 49, 0
6, 39000, Note_on_c, 3, 52, 64
6, 39035, Note_on_c, 3, 52, 0
6, 39060, Note_on_c, 3, 55, 64
6, 39155, Note_on_c, 3, 55, 0
6, 39180, Note_on_c, 3, 49, 64
6, 39210, Note_on_c, 3, 49, 0
6, 39210, Note_on_c, 3, 47, 64
6, 39240, Note_on_c, 3, 47, 0
6, 39240, Note_on_c, 3, 49, 64
6, 39275, Note_on_c, 3, 49, 0
6, 39300, Note_on_c, 3, 45, 64
6, 39335, Note_on_c, 3, 45, 0
6, 39360, Note_on_c, 3, 50, 64
6, 39395, Note_on_c, 3, 50, 0
6, 39420, Note_on_c, 3, 54, 64
6, 39455, Note_on_c, 3, 54, 0
6, 39480, Note_on_c, 3, 57, 64
6, 39515, Note_on_c, 3, 57, 0
6, 39540, Note_on_c, 3, 60, 64
6, 39635, Note_on_c, 3, 60, 0
6, 39660, Note_on_c, 3, 54, 64
6, 39690, Note_on_c, 3, 54, 0
6, 39690, Note_on_c, 3, 52, 64
6, 39720, Note_on_c, 3, 52, 0
6, 39720, Note_on_c, 3, 54, 64
6, 39755, Note_on_c, 3, 54, 0
6, 39780, Note_on_c, 3, 50, 64
6, 39815, Note_on_c, 3, 50, 0
6, 39840, Note_on_c, 3, 55, 64
6, 39875, Note_on_c, 3, 55, 0
6, 39900, Note_on_c, 3, 52, 64
6, 39935, Note_on_c, 3, 52, 0
6, 39960, Note_on_c, 3, 54, 64
6, 39995, Note_on_c, 3, 54, 0
6, 40020, Note_on_c, 3, 50, 64
6, 40055, Note_on_c, 3, 50, 0
6, 40080, Note_on_c, 3, 52, 64
6, 40115, Note_on_c, 3, 52, 0
6, 40140, Note_on_c, 3, 49, 64
6, 40175, Note_on_c, 3, 49, 0
6, 40200, Note_on_c, 3, 50, 64
6, 40235, Note_on_c, 3, 50, 0
6, 40260, Note_on_c, 3, 47, 64
6, 40295, Note_on_c, 3, 47, 0
6, 40320, Note_on_c, 3, 49, 64
6, 40355, Note_on_c, 3, 49, 0
6, 40380, Note_on_c, 3, 45, 64
6, 40415, Note_on_c, 3, 45, 0
6, 40440, Note_on_c, 3, 47, 64
6, 40475, Note_on_c, 3, 47, 0
6, 40500, Note_on_c, 3, 55, 64
6, 40535, Note_on_c, 3, 55, 0
6, 40560, Note_on_c, 3, 45, 64
6, 40595, Note_on_c, 3, 45, 0
6, 40620, Note_on_c, 3, 55, 64
6, 40655, Note_on_c, 3, 55, 0
6, 40680, Note_on_c, 3, 54, 64
6, 40715, Note_on_c, 3, 54, 0
6, 40740, Note_on_c, 3, 50, 64
6, 40775, Note_on_c, 3, 50, 0
6, 40800, Note_on_c, 3, 47, 64
6, 40835, Note_on_c, 3, 47, 0
6, 40860, Note_on_c, 3, 43, 64
6, 40895, Note_on_c, 3, 43, 0
6, 40920, Note_on_c, 3, 45, 64
6, 40955, Note_on_c, 3, 45, 0
6, 40980, Note_on_c, 3, 45, 64
6, 41015, Note_on_c, 3, 45, 0
6, 41040, Note_on_c, 3, 38, 64
6, 41220, Note_on_c, 3, 38, 0
6, 41280, End_track
7, 0, Start_track
7, 0, MIDI_port, 0
7, 0, Title_t, "Harpsichord"
7, 0, Program_c, 4, 6
7, 4, Control_c, 4, 11, 88
7, 480, Note_on_c, 4, 66, 64
7, 480, Note_on_c, 4, 69, 64
7, 480, Note_on_c, 4, 74, 64
7, 480, Note_on_c, 4, 54, 64
7, 480, Note_on_c, 4, 57, 64
7, 480, Note_on_c, 4, 50, 64
7, 780, Note_on_c, 4, 50, 0
7, 780, Note_on_c, 4, 54, 0
7, 780, Note_on_c, 4, 57, 0
7, 780, Note_on_c, 4, 54, 64
7, 780, Note_on_c, 4, 38, 64
7, 815, Note_on_c, 4, 38, 0
7, 840, Note_on_c, 4, 74, 0
7, 840, Note_on_c, 4, 54, 0
7, 840, Note_on_c, 4, 72, 64
7, 840, Note_on_c, 4, 55, 64
7, 840, Note_on_c, 4, 40, 64
7, 875, Note_on_c, 4, 40, 0
7, 900, Note_on_c, 4, 55, 0
7, 900, Note_on_c, 4, 57, 64
7, 900, Note_on_c, 4, 42, 64
7, 935, Note_on_c, 4, 42, 0
7, 960, Note_on_c, 4, 66, 0
7, 960, Note_on_c, 4, 72, 0
7, 960, Note_on_c, 4, 69, 0
7, 960, Note_on_c, 4, 57, 0
7, 960, Note_on_c, 4, 69, 64
7, 960, Note_on_c, 4, 71, 64
7, 960, Note_on_c, 4, 57, 64
7, 960, Note_on_c, 4, 43, 64
7, 995, Note_on_c, 4, 43, 0
7, 1020, Note_on_c, 4, 69, 0
7, 1020, Note_on_c, 4, 71, 0
7, 1020, Note_on_c, 4, 67, 64
7, 1020, Note_on_c, 4, 74, 64
7, 1020, Note_on_c, 4, 40, 64
7, 1055, Note_on_c, 4, 40, 0
7, 1080, Note_on_c, 4, 74, 0
7, 1080, Note_on_c, 4, 67, 0
7, 1080, Note_on_c, 4, 69, 64
7, 1080, Note_on_c, 4, 74, 64
7, 1080, Note_on_c, 4, 45, 64
7, 1115, Note_on_c, 4, 45, 0
7, 1140, Note_on_c, 4, 74, 0
7, 1140, Note_on_c, 4, 73, 64
7, 1140, Note_on_c, 4, 45, 64
7, 1175, Note_on_c, 4, 45, 0
7, 1200, Note_on_c, 4, 57, 0
7, 1200, Note_on_c, 4, 69, 0
7, 1200, Note_on_c, 4, 73, 0
7, 1200, Note_on_c, 4, 67, 64
7, 1200, Note_on_c, 4, 74, 64
7, 1200, Note_on_c, 4, 38, 64
7, 1260, Note_on_c, 4, 67, 0
7, 1260, Note_on_c, 4, 66, 64
7, 1320, Note_on_c, 4, 66, 0
7, 1320, Note_on_c, 4, 38, 0
7, 1320, Note_on_c, 4, 74, 0
7, 1380, Note_on_c, 4, 69, 64
7, 1380, Note_on_c, 4, 71, 64
7, 1380, Note_on_c, 4, 50, 64
7, 1440, Note_on_c, 4, 71, 0
7, 1440, Note_on_c, 4, 69, 0
7, 1440, Note_on_c, 4, 64, 64
7, 1440, Note_on_c, 4, 68, 64
7, 1440, Note_on_c, 4, 71, 64
7, 1475, Note_on_c, 4, 50, 0
7, 1500, Note_on_c, 4, 49, 64
7, 1535, Note_on_c, 4, 49, 0
7, 1560, Note_on_c, 4, 71, 0
7, 1560, Note_on_c, 4, 68, 0
7, 1560, Note_on_c, 4, 64, 0
7, 1560, Note_on_c, 4, 73, 64
7, 1560, Note_on_c, 4, 58, 64
7, 1560, Note_on_c, 4, 54, 64
7, 1595, Note_on_c, 4, 54, 0
7, 1620, Note_on_c, 4, 42, 64
7, 1655, Note_on_c, 4, 42, 0
7, 1680, Note_on_c, 4, 58, 0
7, 1680, Note_on_c, 4, 73, 0
7, 1680, Note_on_c, 4, 64, 64
7, 1680, Note_on_c, 4, 71, 64
7, 1680, Note_on_c, 4, 47, 64
7, 1740, Note_on_c, 4, 64, 0
7, 1740, Note_on_c, 4, 62, 64
7, 1800, Note_on_c, 4, 62, 0
7, 1800, Note_on_c, 4, 47, 0
7, 1800, Note_on_c, 4, 71, 0
7, 1860, Note_on_c, 4, 71, 64
7, 1860, Note_on_c, 4, 74, 64
7, 1860, Note_on_c, 4, 55, 64
7, 1920, Note_on_c, 4, 74, 0
7, 1920, Note_on_c, 4, 71, 0
7, 1920, Note_on_c, 4, 73, 64
7, 1920, Note_on_c, 4, 76, 64
7, 1955, Note_on_c, 4, 55, 0
7, 1980, Note_on_c, 4, 76, 0
7, 1980, Note_on_c, 4, 73, 0
7, 1980, Note_on_c, 4, 69, 64
7, 1980, Note_on_c, 4, 73, 64
7, 1980, Note_on_c, 4, 49, 64
7, 2015, Note_on_c, 4, 49, 0
7, 2040, Note_on_c, 4, 73, 0
7, 2040, Note_on_c, 4, 69, 0
7, 2040, Note_on_c, 4, 69, 64
7, 2040, Note_on_c, 4, 45, 64
7, 2075, Note_on_c, 4, 45, 0
7, 2100, Note_on_c, 4, 67, 64
7, 2100, Note_on_c, 4, 49, 64
7, 2135, Note_on_c, 4, 49, 0
7, 2160, Note_on_c, 4, 67, 0
7, 2160, Note_on_c, 4, 69, 0
7, 2160, Note_on_c, 4, 66, 64
7, 2160, Note_on_c, 4, 69, 64
7, 2160, Note_on_c, 4, 50, 64
7, 2195, Note_on_c, 4, 50, 0
7, 2220, Note_on_c, 4, 69, 0
7, 2220, Note_on_c, 4, 66, 0
7, 2220, Note_on_c, 4, 62, 64
7, 2220, Note_on_c, 4, 69, 64
7, 2220, Note_on_c, 4, 54, 64
7, 2255, Note_on_c, 4, 54, 0
7, 2280, Note_on_c, 4, 69, 0
7, 2280, Note_on_c, 4, 62, 0
7, 2280, Note_on_c, 4, 64, 64
7, 2280, Note_on_c, 4, 71, 64
7, 2280, Note_on_c, 4, 55, 64
7, 2315, Note_on_c, 4, 55, 0
7, 2340, Note_on_c, 4, 64, 0
7, 2340, Note_on_c, 4, 62, 64
7, 2340, Note_on_c, 4, 52, 64
7, 2375, Note_on_c, 4, 52, 0
7, 2400, Note_on_c, 4, 62, 0
7, 2400, Note_on_c, 4, 71, 0
7, 2400, Note_on_c, 4, 64, 64
7, 2400, Note_on_c, 4, 73, 64
7, 2400, Note_on_c, 4, 57, 64
7, 2435, Note_on_c, 4, 57, 0
7, 2460, Note_on_c, 4, 64, 0
7, 2460, Note_on_c, 4, 69, 64
7, 2460, Note_on_c, 4, 49, 64
7, 2495, Note_on_c, 4, 49, 0
7, 2520, Note_on_c, 4, 50, 64
7, 2555, Note_on_c, 4, 50, 0
7, 2580, Note_on_c, 4, 69, 0
7, 2580, Note_on_c, 4, 73, 0
7, 2580, Note_on_c, 4, 68, 64
7, 2580, Note_on_c, 4, 71, 64
7, 2580, Note_on_c, 4, 52, 64
7, 2615, Note_on_c, 4, 52, 0
7, 2640, Note_on_c, 4, 71, 0
7, 2640, Note_on_c, 4, 68, 0
7, 2640, Note_on_c, 4, 61, 64
7, 2640, Note_on_c, 4, 69, 64
7, 2640, Note_on_c, 4, 45, 64
7, 2675, Note_on_c, 4, 45, 0
7, 2700, Note_on_c, 4, 69, 0
7, 2700, Note_on_c, 4, 61, 0
7, 2700, Note_on_c, 4, 64, 64
7, 2700, Note_on_c, 4, 49, 64
7, 2735, Note_on_c, 4, 49, 0
7, 2760, Note_on_c, 4, 61, 64
7, 2760, Note_on_c, 4, 69, 64
7, 2760, Note_on_c, 4, 52, 64
7, 2795, Note_on_c, 4, 52, 0
7, 2820, Note_on_c, 4, 55, 64
7, 2915, Note_on_c, 4, 55, 0
7, 2940, Note_on_c, 4, 49, 64
7, 2970, Note_on_c, 4, 49, 0
7, 2970, Note_on_c, 4, 47, 64
7, 3000, Note_on_c, 4, 47, 0
7, 3000, Note_on_c, 4, 69, 0
7, 3000, Note_on_c, 4, 61, 0
7, 3000, Note_on_c, 4, 64, 0
7, 3000, Note_on_c, 4, 57, 64
7, 3000, Note_on_c, 4, 64, 64
7, 3000, Note_on_c, 4, 69, 64
7, 3000, Note_on_c, 4, 49, 64
7, 3035, Note_on_c, 4, 49, 0
7, 3060, Note_on_c, 4, 57, 0
7, 3060, Note_on_c, 4, 64, 0
7, 3060, Note_on_c, 4, 69, 0
7, 3060, Note_on_c, 4, 67, 64
7, 3060, Note_on_c, 4, 73, 64
7, 3060, Note_on_c, 4, 45, 64
7, 3095, Note_on_c, 4, 45, 0
7, 3120, Note_on_c, 4, 73, 0
7, 3120, Note_on_c, 4, 67, 0
7, 3120, Note_on_c, 4, 66, 64
7, 3120, Note_on_c, 4, 74, 64
7, 3120, Note_on_c, 4, 50, 64
7, 3155, Note_on_c, 4, 50, 0
7, 3180, Note_on_c, 4, 74, 0
7, 3180, Note_on_c, 4, 66, 0
7, 3180, Note_on_c, 4, 69, 64
7, 3180, Note_on_c, 4, 54, 64
7, 3215, Note_on_c, 4, 54, 0
7, 3240, Note_on_c, 4, 66, 64
7, 3240, Note_on_c, 4, 74, 64
7, 3240, Note_on_c, 4, 57, 64
7, 3275, Note_on_c, 4, 57, 0
7, 3300, Note_on_c, 4, 60, 64
7, 3395, Note_on_c, 4, 60, 0
7, 3420, Note_on_c, 4, 54, 64
7, 3450, Note_on_c, 4, 54, 0
7, 3450, Note_on_c, 4, 52, 64
7, 3480, Note_on_c, 4, 52, 0
7, 3480, Note_on_c, 4, 74, 0
7, 3480, Note_on_c, 4, 66, 0
7, 3480, Note_on_c, 4, 69, 0
7, 3480, Note_on_c, 4, 62, 64
7, 3480, Note_on_c, 4, 69, 64
7, 3480, Note_on_c, 4, 72, 64
7, 3480, Note_on_c, 4, 54, 64
7, 3515, Note_on_c, 4, 54, 0
7, 3540, Note_on_c, 4, 62, 0
7, 3540, Note_on_c, 4, 69, 0
7, 3540, Note_on_c, 4, 72, 0
7, 3540, Note_on_c, 4, 66, 64
7, 3540, Note_on_c, 4, 69, 64
7, 3540, Note_on_c, 4, 50, 64
7, 3575, Note_on_c, 4, 50, 0
7, 3600, Note_on_c, 4, 69, 0
7, 3600, Note_on_c, 4, 66, 0
7, 3600, Note_on_c, 4, 62, 64
7, 3600, Note_on_c, 4, 71, 64
7, 3600, Note_on_c, 4, 55, 64
7, 3635, Note_on_c, 4, 55, 0
7, 3660, Note_on_c, 4, 62, 0
7, 3660, Note_on_c, 4, 64, 64
7, 3660, Note_on_c, 4, 67, 64
7, 3660, Note_on_c, 4, 52, 64
7, 3695, Note_on_c, 4, 52, 0
7, 3720, Note_on_c, 4, 71, 0
7, 3720, Note_on_c, 4, 64, 0
7, 3720, Note_on_c, 4, 69, 64
7, 3720, Note_on_c, 4, 54, 64
7, 3755, Note_on_c, 4, 54, 0
7, 3780, Note_on_c, 4, 69, 0
7, 3780, Note_on_c, 4, 67, 0
7, 3780, Note_on_c, 4, 66, 64
7, 3780, Note_on_c, 4, 72, 64
7, 3780, Note_on_c, 4, 50, 64
7, 3815, Note_on_c, 4, 50, 0
7, 3840, Note_on_c, 4, 72, 0
7, 3840, Note_on_c, 4, 71, 64
7, 3840, Note_on_c, 4, 52, 64
7, 3875, Note_on_c, 4, 52, 0
7, 3900, Note_on_c, 4, 71, 0
7, 3900, Note_on_c, 4, 66, 0
7, 3900, Note_on_c, 4, 64, 64
7, 3900, Note_on_c, 4, 67, 64
7, 3900, Note_on_c, 4, 49, 64
7, 3935, Note_on_c, 4, 49, 0
7, 3960, Note_on_c, 4, 67, 0
7, 3960, Note_on_c, 4, 66, 64
7, 3960, Note_on_c, 4, 50, 64
7, 3995, Note_on_c, 4, 50, 0
7, 4020, Note_on_c, 4, 66, 0
7, 4020, Note_on_c, 4, 64, 0
7, 4020, Note_on_c, 4, 62, 64
7, 4020, Note_on_c, 4, 66, 64
7, 4020, Note_on_c, 4, 47, 64
7, 4055, Note_on_c, 4, 47, 0
7, 4080, Note_on_c, 4, 66, 0
7, 4080, Note_on_c, 4, 62, 0
7, 4080, Note_on_c, 4, 57, 64
7, 4080, Note_on_c, 4, 64, 64
7, 4080, Note_on_c, 4, 49, 64
7, 4115, Note_on_c, 4, 49, 0
7, 4140, Note_on_c, 4, 64, 0
7, 4140, Note_on_c, 4, 57, 0
7, 4140, Note_on_c, 4, 61, 64
7, 4140, Note_on_c, 4, 66, 64
7, 4140, Note_on_c, 4, 45, 64
7, 4175, Note_on_c, 4, 45, 0
7, 4200, Note_on_c, 4, 61, 0
7, 4200, Note_on_c, 4, 62, 64
7, 4200, Note_on_c, 4, 47, 64
7, 4235, Note_on_c, 4, 47, 0
7, 4260, Note_on_c, 4, 66, 0
7, 4260, Note_on_c, 4, 64, 64
7, 4260, Note_on_c, 4, 55, 64
7, 4295, Note_on_c, 4, 55, 0
7, 4320, Note_on_c, 4, 64, 0
7, 4320, Note_on_c, 4, 62, 0
7, 4320, Note_on_c, 4, 61, 64
7, 4320, Note_on_c, 4, 64, 64
7, 4320, Note_on_c, 4, 45, 64
7, 4355, Note_on_c, 4, 45, 0
7, 4380, Note_on_c, 4, 64, 0
7, 4380, Note_on_c, 4, 61, 0
7, 4380, Note_on_c, 4, 64, 64
7, 4380, Note_on_c, 4, 69, 64
7, 4380, Note_on_c, 4, 55, 64
7, 4415, Note_on_c, 4, 55, 0
7, 4440, Note_on_c, 4, 64, 0
7, 4440, Note_on_c, 4, 62, 64
7, 4440, Note_on_c, 4, 54, 64
7, 4475, Note_on_c, 4, 54, 0
7, 4500, Note_on_c, 4, 62, 0
7, 4500, Note_on_c, 4, 66, 64
7, 4500, Note_on_c, 4, 50, 64
7, 4535, Note_on_c, 4, 50, 0
7, 4560, Note_on_c, 4, 66, 0
7, 4560, Note_on_c, 4, 69, 0
7, 4560, Note_on_c, 4, 62, 64
7, 4560, Note_on_c, 4, 67, 64
7, 4560, Note_on_c, 4, 47, 64
7, 4595, Note_on_c, 4, 47, 0
7, 4620, Note_on_c, 4, 67, 0
7, 4620, Note_on_c, 4, 62, 0
7, 4620, Note_on_c, 4, 64, 64
7, 4620, Note_on_c, 4, 67, 64
7, 4620, Note_on_c, 4, 43, 64
7, 4655, Note_on_c, 4, 43, 0
7, 4680, Note_on_c, 4, 45, 64
7, 4715, Note_on_c, 4, 45, 0
7, 4740, Note_on_c, 4, 67, 0
7, 4740, Note_on_c, 4, 64, 0
7, 4740, Note_on_c, 4, 61, 64
7, 4740, Note_on_c, 4, 64, 64
7, 4740, Note_on_c, 4, 67, 64
7, 4740, Note_on_c, 4, 45, 64
7, 4775, Note_on_c, 4, 45, 0
7, 4800, Note_on_c, 4, 61, 0
7, 4800, Note_on_c, 4, 64, 0
7, 4800, Note_on_c, 4, 67, 0
7, 4800, Control_c, 4, 7, 80
7, 4800, Control_c, 4, 7, 80
7, 4800, Note_on_c, 4, 57, 64
7, 4800, Note_on_c, 4, 62, 64
7, 4800, Note_on_c, 4, 66, 64
7, 4800, Note_on_c, 4, 38, 64
7, 4835, Note_on_c, 4, 38, 0
7, 4860, Note_on_c, 4, 50, 64
7, 4895, Note_on_c, 4, 50, 0
7, 4920, Note_on_c, 4, 66, 0
7, 4920, Note_on_c, 4, 62, 0
7, 4920, Note_on_c, 4, 57, 0
7, 4920, Note_on_c, 4, 62, 64
7, 4920, Note_on_c, 4, 66, 64
7, 4920, Note_on_c, 4, 69, 64
7, 4920, Note_on_c, 4, 45, 64
7, 4955, Note_on_c, 4, 45, 0
7, 4980, Note_on_c, 4, 47, 64
7, 5015, Note_on_c, 4, 47, 0
7, 5040, Note_on_c, 4, 48, 64
7, 5075, Note_on_c, 4, 48, 0
7, 5100, Note_on_c, 4, 45, 64
7, 5135, Note_on_c, 4, 45, 0
7, 5160, Note_on_c, 4, 42, 64
7, 5195, Note_on_c, 4, 42, 0
7, 5220, Note_on_c, 4, 38, 64
7, 5255, Note_on_c, 4, 38, 0
7, 5280, Note_on_c, 4, 69, 0
7, 5280, Note_on_c, 4, 66, 0
7, 5280, Note_on_c, 4, 62, 0
7, 5280, Note_on_c, 4, 69, 64
7, 5280, Note_on_c, 4, 72, 64
7, 5280, Note_on_c, 4, 62, 64
7, 5340, Note_on_c, 4, 72, 0
7, 5340, Note_on_c, 4, 69, 0
7, 5340, Note_on_c, 4, 67, 64
7, 5340, Note_on_c, 4, 71, 64
7, 5340, Note_on_c, 4, 55, 64
7, 5375, Note_on_c, 4, 55, 0
7, 5400, Note_on_c, 4, 62, 0
7, 5400, Note_on_c, 4, 67, 0
7, 5400, Note_on_c, 4, 71, 0
7, 5400, Note_on_c, 4, 49, 64
7, 5435, Note_on_c, 4, 49, 0
7, 5460, Note_on_c, 4, 52, 64
7, 5495, Note_on_c, 4, 52, 0
7, 5520, Note_on_c, 4, 61, 64
7, 5520, Note_on_c, 4, 64, 64
7, 5520, Note_on_c, 4, 55, 64
7, 5555, Note_on_c, 4, 55, 0
7, 5580, Note_on_c, 4, 52, 64
7, 5615, Note_on_c, 4, 52, 0
7, 5640, Note_on_c, 4, 67, 64
7, 5640, Note_on_c, 4, 49, 64
7, 5675, Note_on_c, 4, 49, 0
7, 5700, Note_on_c, 4, 45, 64
7, 5735, Note_on_c, 4, 45, 0
7, 5760, Note_on_c, 4, 50, 64
7, 5820, Note_on_c, 4, 67, 0
7, 5820, Note_on_c, 4, 61, 0
7, 5820, Note_on_c, 4, 64, 0
7, 5820, Note_on_c, 4, 62, 64
7, 5820, Note_on_c, 4, 66, 64
7, 5880, Note_on_c, 4, 66, 0
7, 5880, Note_on_c, 4, 62, 0
7, 6000, Note_on_c, 4, 60, 64
7, 6035, Note_on_c, 4, 50, 0
7, 6060, Note_on_c, 4, 54, 64
7, 6095, Note_on_c, 4, 54, 0
7, 6120, Note_on_c, 4, 57, 64
7, 6155, Note_on_c, 4, 57, 0
7, 6180, Note_on_c, 4, 60, 0
7, 6180, Note_on_c, 4, 60, 64
7, 6180, Note_on_c, 4, 66, 64
7, 6180, Note_on_c, 4, 62, 64
7, 6215, Note_on_c, 4, 62, 0
7, 6240, Note_on_c, 4, 66, 0
7, 6240, Note_on_c, 4, 60, 0
7, 6240, Note_on_c, 4, 59, 64
7, 6240, Note_on_c, 4, 62, 64
7, 6240, Note_on_c, 4, 67, 64
7, 6240, Note_on_c, 4, 50, 64
7, 6300, Note_on_c, 4, 67, 0
7, 6300, Note_on_c, 4, 59, 0
7, 6300, Note_on_c, 4, 62, 0
7, 6300, Note_on_c, 4, 64, 64
7, 6300, Note_on_c, 4, 67, 64
7, 6300, Note_on_c, 4, 73, 64
7, 6510, Note_on_c, 4, 73, 0
7, 6510, Note_on_c, 4, 67, 0
7, 6510, Note_on_c, 4, 64, 0
7, 6510, Note_on_c, 4, 71, 64
7, 6510, Note_on_c, 4, 74, 64
7, 6515, Note_on_c, 4, 50, 0
7, 6540, Note_on_c, 4, 74, 0
7, 6540, Note_on_c, 4, 71, 0
7, 6540, Note_on_c, 4, 73, 64
7, 6540, Note_on_c, 4, 76, 64
7, 6540, Note_on_c, 4, 54, 64
7, 6575, Note_on_c, 4, 54, 0
7, 6600, Note_on_c, 4, 76, 0
7, 6600, Note_on_c, 4, 73, 0
7, 6600, Note_on_c, 4, 74, 64
7, 6600, Note_on_c, 4, 78, 64
7, 6600, Note_on_c, 4, 57, 64
7, 6635, Note_on_c, 4, 57, 0
7, 6660, Note_on_c, 4, 78, 0
7, 6660, Note_on_c, 4, 74, 0
7, 6660, Note_on_c, 4, 69, 64
7, 6660, Note_on_c, 4, 76, 64
7, 6660, Note_on_c, 4, 61, 64
7, 6695, Note_on_c, 4, 61, 0
7, 6720, Note_on_c, 4, 76, 0
7, 6720, Note_on_c, 4, 69, 0
7, 6720, Note_on_c, 4, 62, 64
7, 6720, Note_on_c, 4, 69, 64
7, 6720, Note_on_c, 4, 74, 64
7, 6720, Note_on_c, 4, 50, 64
7, 6755, Note_on_c, 4, 50, 0
7, 6780, Note_on_c, 4, 54, 64
7, 6815, Note_on_c, 4, 54, 0
7, 6840, Note_on_c, 4, 69, 0
7, 6840, Note_on_c, 4, 62, 0
7, 6840, Note_on_c, 4, 66, 64
7, 6840, Note_on_c, 4, 71, 64
7, 6840, Note_on_c, 4, 47, 64
7, 6875, Note_on_c, 4, 47, 0
7, 6900, Note_on_c, 4, 74, 0
7, 6900, Note_on_c, 4, 66, 0
7, 6900, Note_on_c, 4, 71, 0
7, 6900, Note_on_c, 4, 66, 64
7, 6900, Note_on_c, 4, 50, 64
7, 6935, Note_on_c, 4, 50, 0
7, 6960, Note_on_c, 4, 44, 64
7, 6995, Note_on_c, 4, 44, 0
7, 7020, Note_on_c, 4, 50, 64
7, 7055, Note_on_c, 4, 50, 0
7, 7080, Note_on_c, 4, 66, 0
7, 7080, Note_on_c, 4, 62, 64
7, 7080, Note_on_c, 4, 66, 64
7, 7080, Note_on_c, 4, 71, 64
7, 7080, Note_on_c, 4, 44, 64
7, 7115, Note_on_c, 4, 44, 0
7, 7140, Note_on_c, 4, 47, 64
7, 7175, Note_on_c, 4, 47, 0
7, 7200, Note_on_c, 4, 66, 0
7, 7200, Note_on_c, 4, 62, 0
7, 7200, Note_on_c, 4, 61, 64
7, 7200, Note_on_c, 4, 64, 64
7, 7200, Note_on_c, 4, 49, 64
7, 7235, Note_on_c, 4, 49, 0
7, 7260, Note_on_c, 4, 71, 0
7, 7260, Note_on_c, 4, 69, 64
7, 7260, Note_on_c, 4, 52, 64
7, 7295, Note_on_c, 4, 52, 0
7, 7320, Note_on_c, 4, 45, 64
7, 7355, Note_on_c, 4, 45, 0
7, 7380, Note_on_c, 4, 49, 64
7, 7415, Note_on_c, 4, 49, 0
7, 7440, Note_on_c, 4, 61, 0
7, 7440, Note_on_c, 4, 64, 0
7, 7440, Note_on_c, 4, 69, 0
7, 7440, Note_on_c, 4, 64, 64
7, 7440, Note_on_c, 4, 42, 64
7, 7475, Note_on_c, 4, 42, 0
7, 7500, Note_on_c, 4, 49, 64
7, 7535, Note_on_c, 4, 49, 0
7, 7560, Note_on_c, 4, 64, 0
7, 7560, Note_on_c, 4, 61, 64
7, 7560, Note_on_c, 4, 64, 64
7, 7560, Note_on_c, 4, 69, 64
7, 7560, Note_on_c, 4, 42, 64
7, 7595, Note_on_c, 4, 42, 0
7, 7620, Note_on_c, 4, 45, 64
7, 7655, Note_on_c, 4, 45, 0
7, 7680, Note_on_c, 4, 64, 0
7, 7680, Note_on_c, 4, 61, 0
7, 7680, Note_on_c, 4, 62, 64
7, 7680, Note_on_c, 4, 66, 64
7, 7680, Note_on_c, 4, 47, 64
7, 7715, Note_on_c, 4, 47, 0
7, 7740, Note_on_c, 4, 66, 0
7, 7740, Note_on_c, 4, 69, 0
7, 7740, Note_on_c, 4, 68, 64
7, 7740, Note_on_c, 4, 59, 64
7, 7775, Note_on_c, 4, 59, 0
7, 7800, Note_on_c, 4, 68, 0
7, 7800, Note_on_c, 4, 62, 0
7, 7800, Note_on_c, 4, 64, 64
7, 7800, Note_on_c, 4, 69, 64
7, 7800, Note_on_c, 4, 61, 64
7, 7835, Note_on_c, 4, 61, 0
7, 7860, Note_on_c, 4, 69, 0
7, 7860, Note_on_c, 4, 64, 0
7, 7860, Note_on_c, 4, 66, 64
7, 7860, Note_on_c, 4, 71, 64
7, 7860, Note_on_c, 4, 62, 64
7, 7895, Note_on_c, 4, 62, 0
7, 7920, Note_on_c, 4, 71, 0
7, 7920, Note_on_c, 4, 66, 0
7, 7920, Note_on_c, 4, 62, 64
7, 7920, Note_on_c, 4, 64, 64
7, 7920, Note_on_c, 4, 71, 64
7, 7920, Note_on_c, 4, 56, 64
7, 7955, Note_on_c, 4, 56, 0
7, 7980, Note_on_c, 4, 59, 64
7, 8015, Note_on_c, 4, 59, 0
7, 8040, Note_on_c, 4, 52, 64
7, 8075, Note_on_c, 4, 52, 0
7, 8100, Note_on_c, 4, 56, 64
7, 8135, Note_on_c, 4, 56, 0
7, 8160, Note_on_c, 4, 71, 0
7, 8160, Note_on_c, 4, 64, 0
7, 8160, Note_on_c, 4, 62, 0
7, 8160, Note_on_c, 4, 61, 64
7, 8160, Note_on_c, 4, 64, 64
7, 8160, Note_on_c, 4, 69, 64
7, 8160, Note_on_c, 4, 45, 64
7, 8280, Note_on_c, 4, 69, 0
7, 8280, Note_on_c, 4, 61, 0
7, 8280, Note_on_c, 4, 64, 0
7, 8280, Note_on_c, 4, 64, 64
7, 8280, Note_on_c, 4, 69, 64
7, 8340, Note_on_c, 4, 45, 0
7, 8340, Note_on_c, 4, 43, 64
7, 8375, Note_on_c, 4, 43, 0
7, 8400, Note_on_c, 4, 69, 0
7, 8400, Note_on_c, 4, 64, 0
7, 8400, Note_on_c, 4, 62, 64
7, 8400, Note_on_c, 4, 69, 64
7, 8400, Note_on_c, 4, 72, 64
7, 8400, Note_on_c, 4, 41, 64
7, 8435, Note_on_c, 4, 41, 0
7, 8460, Note_on_c, 4, 57, 64
7, 8490, Note_on_c, 4, 57, 0
7, 8490, Note_on_c, 4, 55, 64
7, 8520, Note_on_c, 4, 55, 0
7, 8520, Note_on_c, 4, 72, 0
7, 8520, Note_on_c, 4, 71, 64
7, 8520, Note_on_c, 4, 53, 64
7, 8550, Note_on_c, 4, 53, 0
7, 8550, Note_on_c, 4, 52, 64
7, 8580, Note_on_c, 4, 52, 0
7, 8580, Note_on_c, 4, 50, 64
7, 8610, Note_on_c, 4, 50, 0
7, 8610, Note_on_c, 4, 48, 64
7, 8640, Note_on_c, 4, 48, 0
7, 8640, Note_on_c, 4, 71, 0
7, 8640, Note_on_c, 4, 69, 0
7, 8640, Note_on_c, 4, 62, 0
7, 8640, Note_on_c, 4, 65, 64
7, 8640, Note_on_c, 4, 69, 64
7, 8640, Note_on_c, 4, 47, 64
7, 8675, Note_on_c, 4, 47, 0
7, 8700, Note_on_c, 4, 69, 0
7, 8700, Note_on_c, 4, 65, 0
7, 8700, Note_on_c, 4, 64, 64
7, 8700, Note_on_c, 4, 68, 64
7, 8700, Note_on_c, 4, 52, 64
7, 8730, Note_on_c, 4, 52, 0
7, 8730, Note_on_c, 4, 53, 64
7, 8760, Note_on_c, 4, 53, 0
7, 8760, Note_on_c, 4, 68, 0
7, 8760, Note_on_c, 4, 64, 0
7, 8760, Note_on_c, 4, 69, 64
7, 8760, Note_on_c, 4, 52, 64
7, 8790, Note_on_c, 4, 52, 0
7, 8790, Note_on_c, 4, 50, 64
7, 8820, Note_on_c, 4, 50, 0
7, 8820, Note_on_c, 4, 69, 0
7, 8820, Note_on_c, 4, 68, 64
7, 8820, Note_on_c, 4, 71, 64
7, 8820, Note_on_c, 4, 49, 64
7, 8850, Note_on_c, 4, 49, 0
7, 8850, Note_on_c, 4, 47, 64
7, 8880, Note_on_c, 4, 47, 0
7, 8880, Note_on_c, 4, 71, 0
7, 8880, Note_on_c, 4, 68, 0
7, 8880, Note_on_c, 4, 64, 64
7, 8880, Note_on_c, 4, 69, 64
7, 8880, Note_on_c, 4, 73, 64
7, 8880, Note_on_c, 4, 45, 64
7, 8915, Note_on_c, 4, 45, 0
7, 8940, Note_on_c, 4, 57, 64
7, 8975, Note_on_c, 4, 57, 0
7, 9000, Note_on_c, 4, 52, 64
7, 9035, Note_on_c, 4, 52, 0
7, 9060, Note_on_c, 4, 54, 64
7, 9095, Note_on_c, 4, 54, 0
7, 9120, Note_on_c, 4, 55, 64
7, 9155, Note_on_c, 4, 55, 0
7, 9180, Note_on_c, 4, 52, 64
7, 9215, Note_on_c, 4, 52, 0
7, 9240, Note_on_c, 4, 73, 0
7, 9240, Note_on_c, 4, 69, 0
7, 9240, Note_on_c, 4, 64, 0
7, 9240, Note_on_c, 4, 67, 64
7, 9240, Note_on_c, 4, 76, 64
7, 9240, Note_on_c, 4, 49, 64
7, 9275, Note_on_c, 4, 49, 0
7, 9300, Note_on_c, 4, 45, 64
7, 9335, Note_on_c, 4, 45, 0
7, 9360, Note_on_c, 4, 69, 64
7, 9420, Note_on_c, 4, 76, 0
7, 9420, Note_on_c, 4, 67, 0
7, 9420, Note_on_c, 4, 66, 64
7, 9420, Note_on_c, 4, 74, 64
7, 9420, Note_on_c, 4, 50, 64
7, 9455, Note_on_c, 4, 50, 0
7, 9480, Note_on_c, 4, 69, 0
7, 9480, Note_on_c, 4, 66, 0
7, 9480, Note_on_c, 4, 74, 0
7, 9480, Note_on_c, 4, 44, 64
7, 9515, Note_on_c, 4, 44, 0
7, 9540, Note_on_c, 4, 47, 64
7, 9575, Note_on_c, 4, 47, 0
7, 9600, Note_on_c, 4, 68, 64
7, 9600, Note_on_c, 4, 74, 64
7, 9600, Note_on_c, 4, 50, 64
7, 9635, Note_on_c, 4, 50, 0
7, 9660, Note_on_c, 4, 47, 64
7, 9695, Note_on_c, 4, 47, 0
7, 9720, Note_on_c, 4, 74, 0
7, 9720, Note_on_c, 4, 68, 0
7, 9720, Note_on_c, 4, 62, 64
7, 9720, Note_on_c, 4, 71, 64
7, 9720, Note_on_c, 4, 44, 64
7, 9755, Note_on_c, 4, 44, 0
7, 9780, Note_on_c, 4, 40, 64
7, 9815, Note_on_c, 4, 40, 0
7, 9840, Note_on_c, 4, 45, 64
7, 9900, Note_on_c, 4, 71, 0
7, 9900, Note_on_c, 4, 62, 0
7, 9900, Note_on_c, 4, 61, 64
7, 9900, Note_on_c, 4, 69, 64
7, 9960, Note_on_c, 4, 69, 0
7, 9960, Note_on_c, 4, 61, 0
7, 9960, Note_on_c, 4, 61, 64
7, 9960, Note_on_c, 4, 64, 64
7, 10020, Note_on_c, 4, 64, 0
7, 10020, Note_on_c, 4, 61, 0
7, 10020, Note_on_c, 4, 62, 64
7, 10020, Note_on_c, 4, 66, 64
7, 10080, Note_on_c, 4, 66, 0
7, 10080, Note_on_c, 4, 62, 0
7, 10080, Note_on_c, 4, 64, 64
7, 10080, Note_on_c, 4, 67, 64
7, 10115, Note_on_c, 4, 45, 0
7, 10140, Note_on_c, 4, 49, 64
7, 10175, Note_on_c, 4, 49, 0
7, 10200, Note_on_c, 4, 52, 64
7, 10235, Note_on_c, 4, 52, 0
7, 10260, Note_on_c, 4, 57, 64
7, 10295, Note_on_c, 4, 57, 0
7, 10320, Note_on_c, 4, 67, 0
7, 10320, Note_on_c, 4, 64, 0
7, 10320, Note_on_c, 4, 62, 64
7, 10320, Note_on_c, 4, 66, 64
7, 10320, Note_on_c, 4, 45, 64
7, 10500, Note_on_c, 4, 66, 0
7, 10500, Note_on_c, 4, 62, 0
7, 10500, Note_on_c, 4, 62, 64
7, 10500, Note_on_c, 4, 65, 64
7, 10560, Note_on_c, 4, 65, 0
7, 10560, Note_on_c, 4, 62, 0
7, 10560, Note_on_c, 4, 57, 64
7, 10560, Note_on_c, 4, 65, 64
7, 10595, Note_on_c, 4, 45, 0
7, 10620, Note_on_c, 4, 65, 0
7, 10620, Note_on_c, 4, 64, 64
7, 10620, Note_on_c, 4, 49, 64
7, 10655, Note_on_c, 4, 49, 0
7, 10680, Note_on_c, 4, 64, 0
7, 10680, Note_on_c, 4, 57, 0
7, 10680, Note_on_c, 4, 64, 64
7, 10680, Note_on_c, 4, 68, 64
7, 10680, Note_on_c, 4, 52, 64
7, 10715, Note_on_c, 4, 52, 0
7, 10740, Note_on_c, 4, 68, 0
7, 10740, Note_on_c, 4, 64, 0
7, 10740, Note_on_c, 4, 62, 64
7, 10740, Note_on_c, 4, 71, 64
7, 10740, Note_on_c, 4, 56, 64
7, 10775, Note_on_c, 4, 56, 0
7, 10800, Note_on_c, 4, 62, 0
7, 10800, Note_on_c, 4, 61, 64
7, 10800, Note_on_c, 4, 45, 64
7, 10835, Note_on_c, 4, 45, 0
7, 10860, Note_on_c, 4, 61, 0
7, 10860, Note_on_c, 4, 71, 0
7, 10860, Note_on_c, 4, 64, 64
7, 10860, Note_on_c, 4, 69, 64
7, 10860, Note_on_c, 4, 61, 64
7, 10895, Note_on_c, 4, 61, 0
7, 10920, Note_on_c, 4, 69, 0
7, 10920, Note_on_c, 4, 64, 0
7, 10920, Note_on_c, 4, 66, 64
7, 10920, Note_on_c, 4, 69, 64
7, 10920, Note_on_c, 4, 73, 64
7, 10920, Note_on_c, 4, 54, 64
7, 10955, Note_on_c, 4, 54, 0
7, 10980, Note_on_c, 4, 57, 64
7, 11015, Note_on_c, 4, 57, 0
7, 11040, Note_on_c, 4, 51, 64
7, 11075, Note_on_c, 4, 51, 0
7, 11100, Note_on_c, 4, 57, 64
7, 11135, Note_on_c, 4, 57, 0
7, 11160, Note_on_c, 4, 73, 0
7, 11160, Note_on_c, 4, 69, 0
7, 11160, Note_on_c, 4, 66, 0
7, 11160, Note_on_c, 4, 73, 64
7, 11160, Note_on_c, 4, 78, 64
7, 11160, Note_on_c, 4, 51, 64
7, 11195, Note_on_c, 4, 51, 0
7, 11220, Note_on_c, 4, 54, 64
7, 11255, Note_on_c, 4, 54, 0
7, 11280, Note_on_c, 4, 73, 0
7, 11280, Note_on_c, 4, 71, 64
7, 11280, Note_on_c, 4, 44, 64
7, 11315, Note_on_c, 4, 44, 0
7, 11340, Note_on_c, 4, 71, 0
7, 11340, Note_on_c, 4, 78, 0
7, 11340, Note_on_c, 4, 76, 64
7, 11340, Note_on_c, 4, 59, 64
7, 11370, Note_on_c, 4, 76, 0
7, 11370, Note_on_c, 4, 75, 64
7, 11375, Note_on_c, 4, 59, 0
7, 11400, Note_on_c, 4, 75, 0
7, 11400, Note_on_c, 4, 68, 64
7, 11400, Note_on_c, 4, 76, 64
7, 11400, Note_on_c, 4, 52, 64
7, 11435, Note_on_c, 4, 52, 0
7, 11460, Note_on_c, 4, 68, 0
7, 11460, Note_on_c, 4, 71, 64
7, 11460, Note_on_c, 4, 56, 64
7, 11495, Note_on_c, 4, 56, 0
7, 11520, Note_on_c, 4, 71, 0
7, 11520, Note_on_c, 4, 64, 64
7, 11520, Note_on_c, 4, 71, 64
7, 11520, Note_on_c, 4, 49, 64
7, 11555, Note_on_c, 4, 49, 0
7, 11580, Note_on_c, 4, 56, 64
7, 11615, Note_on_c, 4, 56, 0
7, 11640, Note_on_c, 4, 71, 0
7, 11640, Note_on_c, 4, 64, 0
7, 11640, Note_on_c, 4, 76, 0
7, 11640, Note_on_c, 4, 71, 64
7, 11640, Note_on_c, 4, 76, 64
7, 11640, Note_on_c, 4, 49, 64
7, 11675, Note_on_c, 4, 49, 0
7, 11700, Note_on_c, 4, 52, 64
7, 11735, Note_on_c, 4, 52, 0
7, 11760, Note_on_c, 4, 71, 0
7, 11760, Note_on_c, 4, 69, 64
7, 11760, Note_on_c, 4, 42, 64
7, 11795, Note_on_c, 4, 42, 0
7, 11820, Note_on_c, 4, 69, 0
7, 11820, Note_on_c, 4, 76, 0
7, 11820, Note_on_c, 4, 69, 64
7, 11820, Note_on_c, 4, 75, 64
7, 11820, Note_on_c, 4, 54, 64
7, 11855, Note_on_c, 4, 54, 0
7, 11880, Note_on_c, 4, 75, 0
7, 11880, Note_on_c, 4, 69, 0
7, 11880, Note_on_c, 4, 71, 64
7, 11880, Note_on_c, 4, 76, 64
7, 11880, Note_on_c, 4, 56, 64
7, 11915, Note_on_c, 4, 56, 0
7, 11940, Note_on_c, 4, 76, 0
7, 11940, Note_on_c, 4, 71, 0
7, 11940, Note_on_c, 4, 73, 64
7, 11940, Note_on_c, 4, 78, 64
7, 11940, Note_on_c, 4, 57, 64
7, 11975, Note_on_c, 4, 57, 0
7, 12000, Note_on_c, 4, 78, 0
7, 12000, Note_on_c, 4, 73, 0
7, 12000, Note_on_c, 4, 69, 64
7, 12000, Note_on_c, 4, 71, 64
7, 12000, Note_on_c, 4, 51, 64
7, 12035, Note_on_c, 4, 51, 0
7, 12060, Note_on_c, 4, 54, 64
7, 12095, Note_on_c, 4, 54, 0
7, 12120, Note_on_c, 4, 71, 0
7, 12120, Note_on_c, 4, 69, 0
7, 12120, Note_on_c, 4, 63, 64
7, 12120, Note_on_c, 4, 69, 64
7, 12120, Note_on_c, 4, 47, 64
7, 12155, Note_on_c, 4, 47, 0
7, 12180, Note_on_c, 4, 69, 0
7, 12180, Note_on_c, 4, 63, 0
7, 12180, Note_on_c, 4, 66, 64
7, 12180, Note_on_c, 4, 69, 64
7, 12180, Note_on_c, 4, 51, 64
7, 12215, Note_on_c, 4, 51, 0
7, 12240, Note_on_c, 4, 69, 0
7, 12240, Note_on_c, 4, 66, 0
7, 12240, Note_on_c, 4, 64, 64
7, 12240, Note_on_c, 4, 68, 64
7, 12240, Note_on_c, 4, 52, 64
7, 12420, Note_on_c, 4, 52, 0
7, 12420, Note_on_c, 4, 62, 64
7, 12455, Note_on_c, 4, 62, 0
7, 12480, Note_on_c, 4, 68, 0
7, 12480, Note_on_c, 4, 64, 0
7, 12480, Note_on_c, 4, 69, 64
7, 12480, Note_on_c, 4, 60, 64
7, 12510, Note_on_c, 4, 60, 0
7, 12510, Note_on_c, 4, 69, 0
7, 12510, Note_on_c, 4, 66, 64
7, 12510, Note_on_c, 4, 59, 64
7, 12540, Note_on_c, 4, 59, 0
7, 12540, Note_on_c, 4, 66, 0
7, 12540, Note_on_c, 4, 62, 64
7, 12540, Note_on_c, 4, 57, 64
7, 12570, Note_on_c, 4, 57, 0
7, 12570, Note_on_c, 4, 62, 0
7, 12570, Note_on_c, 4, 64, 64
7, 12570, Note_on_c, 4, 55, 64
7, 12600, Note_on_c, 4, 55, 0
7, 12600, Note_on_c, 4, 64, 0
7, 12600, Note_on_c, 4, 60, 64
7, 12600, Note_on_c, 4, 54, 64
7, 12630, Note_on_c, 4, 54, 0
7, 12630, Note_on_c, 4, 52, 64
7, 12660, Note_on_c, 4, 52, 0
7, 12660, Note_on_c, 4, 60, 0
7, 12660, Note_on_c, 4, 57, 64
7, 12660, Note_on_c, 4, 66, 64
7, 12660, Note_on_c, 4, 51, 64
7, 12690, Note_on_c, 4, 51, 0
7, 12690, Note_on_c, 4, 54, 64
7, 12720, Note_on_c, 4, 54, 0
7, 12720, Note_on_c, 4, 66, 0
7, 12720, Note_on_c, 4, 57, 0
7, 12720, Note_on_c, 4, 60, 64
7, 12720, Note_on_c, 4, 64, 64
7, 12720, Note_on_c, 4, 47, 64
7, 12780, Note_on_c, 4, 64, 0
7, 12780, Note_on_c, 4, 60, 0
7, 12780, Note_on_c, 4, 59, 64
7, 12780, Note_on_c, 4, 63, 64
7, 12840, Note_on_c, 4, 63, 0
7, 12840, Note_on_c, 4, 59, 0
7, 12840, Note_on_c, 4, 47, 0
7, 12840, Note_on_c, 4, 59, 64
7, 12840, Note_on_c, 4, 63, 64
7, 12900, Note_on_c, 4, 63, 0
7, 12900, Note_on_c, 4, 59, 0
7, 12900, Note_on_c, 4, 64, 64
7, 12900, Note_on_c, 4, 68, 64
7, 12960, Note_on_c, 4, 68, 0
7, 12960, Note_on_c, 4, 64, 0
7, 12960, Note_on_c, 4, 66, 64
7, 12960, Note_on_c, 4, 69, 64
7, 13020, Note_on_c, 4, 69, 0
7, 13020, Note_on_c, 4, 66, 0
7, 13020, Note_on_c, 4, 66, 64
7, 13020, Note_on_c, 4, 75, 64
7, 13020, Note_on_c, 4, 47, 64
7, 13055, Note_on_c, 4, 47, 0
7, 13080, Note_on_c, 4, 75, 0
7, 13080, Note_on_c, 4, 66, 0
7, 13080, Note_on_c, 4, 68, 64
7, 13080, Note_on_c, 4, 76, 64
7, 13080, Note_on_c, 4, 49, 64
7, 13115, Note_on_c, 4, 49, 0
7, 13140, Note_on_c, 4, 76, 0
7, 13140, Note_on_c, 4, 68, 0
7, 13140, Note_on_c, 4, 69, 64
7, 13140, Note_on_c, 4, 78, 64
7, 13140, Note_on_c, 4, 51, 64
7, 13175, Note_on_c, 4, 51, 0
7, 13200, Note_on_c, 4, 78, 0
7, 13200, Note_on_c, 4, 69, 0
7, 13200, Note_on_c, 4, 68, 64
7, 13200, Note_on_c, 4, 71, 64
7, 13200, Note_on_c, 4, 74, 64
7, 13200, Note_on_c, 4, 76, 64
7, 13200, Note_on_c, 4, 40, 64
7, 13235, Note_on_c, 4, 40, 0
7, 13260, Note_on_c, 4, 44, 64
7, 13295, Note_on_c, 4, 44, 0
7, 13320, Note_on_c, 4, 47, 64
7, 13355, Note_on_c, 4, 47, 0
7, 13380, Note_on_c, 4, 52, 64
7, 13475, Note_on_c, 4, 52, 0
7, 13500, Note_on_c, 4, 44, 64
7, 13530, Note_on_c, 4, 44, 0
7, 13530, Note_on_c, 4, 42, 64
7, 13560, Note_on_c, 4, 42, 0
7, 13560, Note_on_c, 4, 74, 0
7, 13560, Note_on_c, 4, 68, 0
7, 13560, Note_on_c, 4, 71, 0
7, 13560, Note_on_c, 4, 69, 64
7, 13560, Note_on_c, 4, 73, 64
7, 13560, Note_on_c, 4, 40, 64
7, 13595, Note_on_c, 4, 40, 0
7, 13620, Note_on_c, 4, 73, 0
7, 13620, Note_on_c, 4, 69, 0
7, 13620, Note_on_c, 4, 68, 64
7, 13620, Note_on_c, 4, 71, 64
7, 13620, Note_on_c, 4, 52, 64
7, 13655, Note_on_c, 4, 52, 0
7, 13680, Note_on_c, 4, 76, 0
7, 13680, Note_on_c, 4, 68, 0
7, 13680, Note_on_c, 4, 71, 0
7, 13680, Note_on_c, 4, 64, 64
7, 13680, Note_on_c, 4, 67, 64
7, 13680, Note_on_c, 4, 69, 64
7, 13680, Note_on_c, 4, 73, 64
7, 13680, Note_on_c, 4, 45, 64
7, 13715, Note_on_c, 4, 45, 0
7, 13740, Note_on_c, 4, 49, 64
7, 13775, Note_on_c, 4, 49, 0
7, 13800, Note_on_c, 4, 52, 64
7, 13835, Note_on_c, 4, 52, 0
7, 13860, Note_on_c, 4, 57, 64
7, 13955, Note_on_c, 4, 57, 0
7, 13980, Note_on_c, 4, 49, 64
7, 14010, Note_on_c, 4, 49, 0
7, 14010, Note_on_c, 4, 47, 64
7, 14040, Note_on_c, 4, 47, 0
7, 14040, Note_on_c, 4, 45, 64
7, 14075, Note_on_c, 4, 45, 0
7, 14100, Note_on_c, 4, 57, 64
7, 14135, Note_on_c, 4, 57, 0
7, 14160, Note_on_c, 4, 73, 0
7, 14160, Note_on_c, 4, 64, 0
7, 14160, Note_on_c, 4, 67, 0
7, 14160, Note_on_c, 4, 69, 0
7, 14160, Note_on_c, 4, 62, 64
7, 14160, Note_on_c, 4, 66, 64
7, 14160, Note_on_c, 4, 69, 64
7, 14160, Note_on_c, 4, 50, 64
7, 14195, Note_on_c, 4, 50, 0
7, 14220, Note_on_c, 4, 69, 0
7, 14220, Note_on_c, 4, 71, 64
7, 14220, Note_on_c, 4, 47, 64
7, 14255, Note_on_c, 4, 47, 0
7, 14280, Note_on_c, 4, 44, 64
7, 14315, Note_on_c, 4, 44, 0
7, 14340, Note_on_c, 4, 71, 0
7, 14340, Note_on_c, 4, 66, 0
7, 14340, Note_on_c, 4, 62, 0
7, 14340, Note_on_c, 4, 66, 64
7, 14340, Note_on_c, 4, 69, 64
7, 14340, Note_on_c, 4, 45, 64
7, 14370, Note_on_c, 4, 69, 0
7, 14370, Note_on_c, 4, 66, 0
7, 14370, Note_on_c, 4, 64, 64
7, 14370, Note_on_c, 4, 67, 64
7, 14400, Note_on_c, 4, 67, 0
7, 14400, Note_on_c, 4, 64, 0
7, 14400, Note_on_c, 4, 62, 64
7, 14400, Note_on_c, 4, 66, 64
7, 14435, Note_on_c, 4, 45, 0
7, 14460, Note_on_c, 4, 44, 64
7, 14495, Note_on_c, 4, 44, 0
7, 14520, Note_on_c, 4, 66, 0
7, 14520, Note_on_c, 4, 62, 0
7, 14520, Note_on_c, 4, 61, 64
7, 14520, Note_on_c, 4, 71, 64
7, 14520, Note_on_c, 4, 45, 64
7, 14555, Note_on_c, 4, 45, 0
7, 14580, Note_on_c, 4, 71, 0
7, 14580, Note_on_c, 4, 61, 0
7, 14580, Note_on_c, 4, 64, 64
7, 14580, Note_on_c, 4, 69, 64
7, 14580, Note_on_c, 4, 49, 64
7, 14615, Note_on_c, 4, 49, 0
7, 14640, Note_on_c, 4, 69, 0
7, 14640, Note_on_c, 4, 64, 0
7, 14640, Note_on_c, 4, 66, 64
7, 14640, Note_on_c, 4, 71, 64
7, 14640, Note_on_c, 4, 39, 64
7, 14675, Note_on_c, 4, 39, 0
7, 14700, Note_on_c, 4, 54, 64
7, 14735, Note_on_c, 4, 54, 0
7, 14760, Note_on_c, 4, 71, 0
7, 14760, Note_on_c, 4, 66, 0
7, 14760, Note_on_c, 4, 66, 64
7, 14760, Note_on_c, 4, 75, 64
7, 14760, Note_on_c, 4, 47, 64
7, 14795, Note_on_c, 4, 47, 0
7, 14820, Note_on_c, 4, 75, 0
7, 14820, Note_on_c, 4, 66, 0
7, 14820, Note_on_c, 4, 66, 64
7, 14820, Note_on_c, 4, 69, 64
7, 14820, Note_on_c, 4, 59, 64
7, 14855, Note_on_c, 4, 59, 0
7, 14880, Note_on_c, 4, 69, 0
7, 14880, Note_on_c, 4, 66, 0
7, 14880, Note_on_c, 4, 64, 64
7, 14880, Note_on_c, 4, 68, 64
7, 14880, Note_on_c, 4, 40, 64
7, 14915, Note_on_c, 4, 40, 0
7, 14940, Note_on_c, 4, 64, 0
7, 14940, Note_on_c, 4, 62, 64
7, 14940, Note_on_c, 4, 52, 64
7, 14975, Note_on_c, 4, 52, 0
7, 15000, Note_on_c, 4, 62, 0
7, 15000, Note_on_c, 4, 68, 0
7, 15000, Note_on_c, 4, 61, 64
7, 15000, Note_on_c, 4, 69, 64
7, 15000, Note_on_c, 4, 54, 64
7, 15035, Note_on_c, 4, 54, 0
7, 15060, Note_on_c, 4, 52, 64
7, 15095, Note_on_c, 4, 52, 0
7, 15120, Note_on_c, 4, 61, 0
7, 15120, Note_on_c, 4, 59, 64
7, 15120, Note_on_c, 4, 50, 64
7, 15155, Note_on_c, 4, 50, 0
7, 15180, Note_on_c, 4, 49, 64
7, 15215, Note_on_c, 4, 49, 0
7, 15240, Note_on_c, 4, 59, 0
7, 15240, Note_on_c, 4, 62, 64
7, 15240, Note_on_c, 4, 47, 64
7, 15275, Note_on_c, 4, 47, 0
7, 15300, Note_on_c, 4, 49, 64
7, 15330, Note_on_c, 4, 49, 0
7, 15330, Note_on_c, 4, 50, 64
7, 15360, Note_on_c, 4, 50, 0
7, 15360, Note_on_c, 4, 62, 0
7, 15360, Note_on_c, 4, 59, 64
7, 15360, Note_on_c, 4, 52, 64
7, 15390, Note_on_c, 4, 69, 0
7, 15390, Note_on_c, 4, 68, 64
7, 15395, Note_on_c, 4, 52, 0
7, 15420, Note_on_c, 4, 68, 0
7, 15420, Note_on_c, 4, 59, 0
7, 15420, Note_on_c, 4, 69, 64
7, 15420, Note_on_c, 4, 62, 64
7, 15420, Note_on_c, 4, 40, 64
7, 15450, Note_on_c, 4, 69, 0
7, 15450, Note_on_c, 4, 68, 64
7, 15455, Note_on_c, 4, 40, 0
7, 15480, Note_on_c, 4, 68, 0
7, 15480, Note_on_c, 4, 62, 0
7, 15480, Note_on_c, 4, 61, 64
7, 15480, Note_on_c, 4, 69, 64
7, 15480, Note_on_c, 4, 42, 64
7, 15515, Note_on_c, 4, 42, 0
7, 15540, Note_on_c, 4, 61, 0
7, 15540, Note_on_c, 4, 59, 64
7, 15540, Note_on_c, 4, 38, 64
7, 15575, Note_on_c, 4, 38, 0
7, 15600, Note_on_c, 4, 59, 0
7, 15600, Note_on_c, 4, 61, 64
7, 15600, Note_on_c, 4, 40, 64
7, 15635, Note_on_c, 4, 40, 0
7, 15660, Note_on_c, 4, 38, 64
7, 15695, Note_on_c, 4, 38, 0
7, 15720, Note_on_c, 4, 61, 0
7, 15720, Note_on_c, 4, 69, 0
7, 15720, Note_on_c, 4, 59, 64
7, 15720, Note_on_c, 4, 64, 64
7, 15720, Note_on_c, 4, 68, 64
7, 15720, Note_on_c, 4, 40, 64
7, 15755, Note_on_c, 4, 40, 0
7, 15780, Note_on_c, 4, 52, 64
7, 15815, Note_on_c, 4, 52, 0
7, 15840, Note_on_c, 4, 68, 0
7, 15840, Note_on_c, 4, 64, 0
7, 15840, Note_on_c, 4, 59, 0
7, 15840, Control_c, 4, 7, 127
7, 15840, Control_c, 4, 7, 127
7, 15840, Note_on_c, 4, 61, 64
7, 15840, Note_on_c, 4, 64, 64
7, 15840, Note_on_c, 4, 69, 64
7, 15840, Note_on_c, 4, 45, 64
7, 16080, Note_on_c, 4, 69, 0
7, 16080, Note_on_c, 4, 67, 64
7, 16115, Note_on_c, 4, 45, 0
7, 16140, Note_on_c, 4, 45, 64
7, 16175, Note_on_c, 4, 45, 0
7, 16200, Note_on_c, 4, 47, 64
7, 16235, Note_on_c, 4, 47, 0
7, 16260, Note_on_c, 4, 49, 64
7, 16295, Note_on_c, 4, 49, 0
7, 16320, Note_on_c, 4, 67, 0
7, 16320, Note_on_c, 4, 64, 0
7, 16320, Note_on_c, 4, 61, 0
7, 16320, Note_on_c, 4, 64, 64
7, 16320, Note_on_c, 4, 50, 64
7, 16355, Note_on_c, 4, 50, 0
7, 16380, Note_on_c, 4, 64, 0
7, 16380, Note_on_c, 4, 69, 64
7, 16380, Note_on_c, 4, 47, 64
7, 16415, Note_on_c, 4, 47, 0
7, 16440, Note_on_c, 4, 69, 0
7, 16440, Note_on_c, 4, 64, 64
7, 16440, Note_on_c, 4, 69, 64
7, 16440, Note_on_c, 4, 52, 64
7, 16475, Note_on_c, 4, 52, 0
7, 16500, Note_on_c, 4, 69, 0
7, 16500, Note_on_c, 4, 68, 64
7, 16500, Note_on_c, 4, 40, 64
7, 16535, Note_on_c, 4, 40, 0
7, 16560, Note_on_c, 4, 68, 0
7, 16560, Note_on_c, 4, 64, 0
7, 16560, Note_on_c, 4, 62, 64
7, 16560, Note_on_c, 4, 69, 64
7, 16560, Note_on_c, 4, 45, 64
7, 16620, Note_on_c, 4, 62, 0
7, 16620, Note_on_c, 4, 61, 64
7, 16680, Note_on_c, 4, 61, 0
7, 16680, Note_on_c, 4, 45, 0
7, 16680, Note_on_c, 4, 69, 0
7, 16740, Note_on_c, 4, 64, 64
7, 16740, Note_on_c, 4, 66, 64
7, 16740, Note_on_c, 4, 57, 64
7, 16800, Note_on_c, 4, 66, 0
7, 16800, Note_on_c, 4, 64, 0
7, 16800, Note_on_c, 4, 59, 64
7, 16800, Note_on_c, 4, 63, 64
7, 16800, Note_on_c, 4, 66, 64
7, 16835, Note_on_c, 4, 57, 0
7, 16860, Note_on_c, 4, 56, 64
7, 16895, Note_on_c, 4, 56, 0
7, 16920, Note_on_c, 4, 66, 0
7, 16920, Note_on_c, 4, 63, 0
7, 16920, Note_on_c, 4, 59, 0
7, 16920, Note_on_c, 4, 59, 64
7, 16920, Note_on_c, 4, 65, 64
7, 16920, Note_on_c, 4, 68, 64
7, 16920, Note_on_c, 4, 61, 64
7, 16955, Note_on_c, 4, 61, 0
7, 16980, Note_on_c, 4, 49, 64
7, 17015, Note_on_c, 4, 49, 0
7, 17040, Note_on_c, 4, 68, 0
7, 17040, Note_on_c, 4, 65, 0
7, 17040, Note_on_c, 4, 59, 0
7, 17040, Note_on_c, 4, 59, 64
7, 17040, Note_on_c, 4, 66, 64
7, 17040, Note_on_c, 4, 54, 64
7, 17100, Note_on_c, 4, 59, 0
7, 17100, Note_on_c, 4, 57, 64
7, 17160, Note_on_c, 4, 57, 0
7, 17160, Note_on_c, 4, 54, 0
7, 17160, Note_on_c, 4, 66, 0
7, 17220, Note_on_c, 4, 66, 64
7, 17220, Note_on_c, 4, 69, 64
7, 17220, Note_on_c, 4, 50, 64
7, 17280, Note_on_c, 4, 69, 0
7, 17280, Note_on_c, 4, 66, 0
7, 17280, Note_on_c, 4, 68, 64
7, 17280, Note_on_c, 4, 71, 64
7, 17315, Note_on_c, 4, 50, 0
7, 17340, Note_on_c, 4, 71, 0
7, 17340, Note_on_c, 4, 68, 0
7, 17340, Note_on_c, 4, 64, 64
7, 17340, Note_on_c, 4, 68, 64
7, 17340, Note_on_c, 4, 44, 64
7, 17375, Note_on_c, 4, 44, 0
7, 17400, Note_on_c, 4, 68, 0
7, 17400, Note_on_c, 4, 64, 0
7, 17400, Note_on_c, 4, 64, 64
7, 17400, Note_on_c, 4, 40, 64
7, 17435, Note_on_c, 4, 40, 0
7, 17460, Note_on_c, 4, 62, 64
7, 17460, Note_on_c, 4, 44, 64
7, 17495, Note_on_c, 4, 44, 0
7, 17520, Note_on_c, 4, 62, 0
7, 17520, Note_on_c, 4, 64, 0
7, 17520, Note_on_c, 4, 61, 64
7, 17520, Note_on_c, 4, 64, 64
7, 17520, Note_on_c, 4, 45, 64
7, 17555, Note_on_c, 4, 45, 0
7, 17580, Note_on_c, 4, 64, 0
7, 17580, Note_on_c, 4, 61, 0
7, 17580, Note_on_c, 4, 57, 64
7, 17580, Note_on_c, 4, 64, 64
7, 17580, Note_on_c, 4, 49, 64
7, 17615, Note_on_c, 4, 49, 0
7, 17640, Note_on_c, 4, 64, 0
7, 17640, Note_on_c, 4, 57, 0
7, 17640, Note_on_c, 4, 59, 64
7, 17640, Note_on_c, 4, 66, 64
7, 17640, Note_on_c, 4, 50, 64
7, 17675, Note_on_c, 4, 50, 0
7, 17700, Note_on_c, 4, 59, 0
7, 17700, Note_on_c, 4, 57, 64
7, 17700, Note_on_c, 4, 47, 64
7, 17735, Note_on_c, 4, 47, 0
7, 17760, Note_on_c, 4, 57, 0
7, 17760, Note_on_c, 4, 66, 0
7, 17760, Note_on_c, 4, 59, 64
7, 17760, Note_on_c, 4, 68, 64
7, 17760, Note_on_c, 4, 52, 64
7, 17795, Note_on_c, 4, 52, 0
7, 17820, Note_on_c, 4, 59, 0
7, 17820, Note_on_c, 4, 64, 64
7, 17820, Note_on_c, 4, 44, 64
7, 17855, Note_on_c, 4, 44, 0
7, 17880, Note_on_c, 4, 45, 64
7, 17915, Note_on_c, 4, 45, 0
7, 17940, Note_on_c, 4, 64, 0
7, 17940, Note_on_c, 4, 68, 0
7, 17940, Note_on_c, 4, 63, 64
7, 17940, Note_on_c, 4, 66, 64
7, 17940, Note_on_c, 4, 47, 64
7, 17975, Note_on_c, 4, 47, 0
7, 18000, Note_on_c, 4, 66, 0
7, 18000, Note_on_c, 4, 63, 0
7, 18000, Note_on_c, 4, 56, 64
7, 18000, Note_on_c, 4, 64, 64
7, 18000, Note_on_c, 4, 40, 64
7, 18035, Note_on_c, 4, 40, 0
7, 18060, Note_on_c, 4, 64, 0
7, 18060, Note_on_c, 4, 56, 0
7, 18060, Note_on_c, 4, 59, 64
7, 18060, Note_on_c, 4, 44, 64
7, 18095, Note_on_c, 4, 44, 0
7, 18120, Note_on_c, 4, 56, 64
7, 18120, Note_on_c, 4, 64, 64
7, 18120, Note_on_c, 4, 47, 64
7, 18155, Note_on_c, 4, 47, 0
7, 18180, Note_on_c, 4, 50, 64
7, 18275, Note_on_c, 4, 50, 0
7, 18300, Note_on_c, 4, 44, 64
7, 18330, Note_on_c, 4, 44, 0
7, 18330, Note_on_c, 4, 42, 64
7, 18360, Note_on_c, 4, 42, 0
7, 18360, Note_on_c, 4, 64, 0
7, 18360, Note_on_c, 4, 56, 0
7, 18360, Note_on_c, 4, 59, 0
7, 18360, Note_on_c, 4, 52, 64
7, 18360, Note_on_c, 4, 59, 64
7, 18360, Note_on_c, 4, 64, 64
7, 18360, Note_on_c, 4, 44, 64
7, 18395, Note_on_c, 4, 44, 0
7, 18420, Note_on_c, 4, 52, 0
7, 18420, Note_on_c, 4, 59, 0
7, 18420, Note_on_c, 4, 64, 0
7, 18420, Note_on_c, 4, 62, 64
7, 18420, Note_on_c, 4, 68, 64
7, 18420, Note_on_c, 4, 40, 64
7, 18455, Note_on_c, 4, 40, 0
7, 18480, Note_on_c, 4, 68, 0
7, 18480, Note_on_c, 4, 62, 0
7, 18480, Note_on_c, 4, 61, 64
7, 18480, Note_on_c, 4, 69, 64
7, 18480, Note_on_c, 4, 45, 64
7, 18515, Note_on_c, 4, 45, 0
7, 18540, Note_on_c, 4, 69, 0
7, 18540, Note_on_c, 4, 61, 0
7, 18540, Note_on_c, 4, 64, 64
7, 18540, Note_on_c, 4, 49, 64
7, 18575, Note_on_c, 4, 49, 0
7, 18600, Note_on_c, 4, 61, 64
7, 18600, Note_on_c, 4, 69, 64
7, 18600, Note_on_c, 4, 52, 64
7, 18635, Note_on_c, 4, 52, 0
7, 18660, Note_on_c, 4, 55, 64
7, 18755, Note_on_c, 4, 55, 0
7, 18780, Note_on_c, 4, 49, 64
7, 18810, Note_on_c, 4, 49, 0
7, 18810, Note_on_c, 4, 47, 64
7, 18840, Note_on_c, 4, 47, 0
7, 18840, Note_on_c, 4, 69, 0
7, 18840, Note_on_c, 4, 61, 0
7, 18840, Note_on_c, 4, 64, 0
7, 18840, Note_on_c, 4, 57, 64
7, 18840, Note_on_c, 4, 64, 64
7, 18840, Note_on_c, 4, 67, 64
7, 18840, Note_on_c, 4, 49, 64
7, 18875, Note_on_c, 4, 49, 0
7, 18900, Note_on_c, 4, 57, 0
7, 18900, Note_on_c, 4, 64, 0
7, 18900, Note_on_c, 4, 67, 0
7, 18900, Note_on_c, 4, 61, 64
7, 18900, Note_on_c, 4, 64, 64
7, 18900, Note_on_c, 4, 45, 64
7, 18935, Note_on_c, 4, 45, 0
7, 18960, Note_on_c, 4, 64, 0
7, 18960, Note_on_c, 4, 61, 0
7, 18960, Note_on_c, 4, 57, 64
7, 18960, Note_on_c, 4, 66, 64
7, 18960, Note_on_c, 4, 50, 64
7, 18995, Note_on_c, 4, 50, 0
7, 19020, Note_on_c, 4, 57, 0
7, 19020, Note_on_c, 4, 59, 64
7, 19020, Note_on_c, 4, 62, 64
7, 19020, Note_on_c, 4, 47, 64
7, 19055, Note_on_c, 4, 47, 0
7, 19080, Note_on_c, 4, 66, 0
7, 19080, Note_on_c, 4, 59, 0
7, 19080, Note_on_c, 4, 64, 64
7, 19080, Note_on_c, 4, 49, 64
7, 19115, Note_on_c, 4, 49, 0
7, 19140, Note_on_c, 4, 64, 0
7, 19140, Note_on_c, 4, 62, 0
7, 19140, Note_on_c, 4, 61, 64
7, 19140, Note_on_c, 4, 67, 64
7, 19140, Note_on_c, 4, 45, 64
7, 19175, Note_on_c, 4, 45, 0
7, 19200, Note_on_c, 4, 67, 0
7, 19200, Note_on_c, 4, 66, 64
7, 19200, Note_on_c, 4, 47, 64
7, 19235, Note_on_c, 4, 47, 0
7, 19260, Note_on_c, 4, 66, 0
7, 19260, Note_on_c, 4, 61, 0
7, 19260, Note_on_c, 4, 59, 64
7, 19260, Note_on_c, 4, 62, 64
7, 19260, Note_on_c, 4, 44, 64
7, 19295, Note_on_c, 4, 44, 0
7, 19320, Note_on_c, 4, 62, 0
7, 19320, Note_on_c, 4, 61, 64
7, 19320, Note_on_c, 4, 45, 64
7, 19355, Note_on_c, 4, 45, 0
7, 19380, Note_on_c, 4, 61, 0
7, 19380, Note_on_c, 4, 59, 0
7, 19380, Note_on_c, 4, 57, 64
7, 19380, Note_on_c, 4, 61, 64
7, 19380, Note_on_c, 4, 42, 64
7, 19415, Note_on_c, 4, 42, 0
7, 19440, Note_on_c, 4, 61, 0
7, 19440, Note_on_c, 4, 57, 0
7, 19440, Note_on_c, 4, 52, 64
7, 19440, Note_on_c, 4, 59, 64
7, 19440, Note_on_c, 4, 44, 64
7, 19475, Note_on_c, 4, 44, 0
7, 19500, Note_on_c, 4, 59, 0
7, 19500, Note_on_c, 4, 52, 0
7, 19500, Note_on_c, 4, 56, 64
7, 19500, Note_on_c, 4, 61, 64
7, 19500, Note_on_c, 4, 40, 64
7, 19535, Note_on_c, 4, 40, 0
7, 19560, Note_on_c, 4, 56, 0
7, 19560, Note_on_c, 4, 57, 64
7, 19560, Note_on_c, 4, 42, 64
7, 19595, Note_on_c, 4, 42, 0
7, 19620, Note_on_c, 4, 61, 0
7, 19620, Note_on_c, 4, 59, 64
7, 19620, Note_on_c, 4, 50, 64
7, 19655, Note_on_c, 4, 50, 0
7, 19680, Note_on_c, 4, 59, 0
7, 19680, Note_on_c, 4, 57, 0
7, 19680, Note_on_c, 4, 56, 64
7, 19680, Note_on_c, 4, 59, 64
7, 19680, Note_on_c, 4, 40, 64
7, 19715, Note_on_c, 4, 40, 0
7, 19740, Note_on_c, 4, 59, 0
7, 19740, Note_on_c, 4, 56, 0
7, 19740, Note_on_c, 4, 59, 64
7, 19740, Note_on_c, 4, 64, 64
7, 19740, Note_on_c, 4, 50, 64
7, 19775, Note_on_c, 4, 50, 0
7, 19800, Note_on_c, 4, 59, 0
7, 19800, Note_on_c, 4, 57, 64
7, 19800, Note_on_c, 4, 49, 64
7, 19835, Note_on_c, 4, 49, 0
7, 19860, Note_on_c, 4, 57, 0
7, 19860, Note_on_c, 4, 61, 64
7, 19860, Note_on_c, 4, 45, 64
7, 19895, Note_on_c, 4, 45, 0
7, 19920, Note_on_c, 4, 61, 0
7, 19920, Note_on_c, 4, 64, 0
7, 19920, Note_on_c, 4, 57, 64
7, 19920, Note_on_c, 4, 62, 64
7, 19920, Note_on_c, 4, 54, 64
7, 19955, Note_on_c, 4, 54, 0
7, 19980, Note_on_c, 4, 62, 0
7, 19980, Note_on_c, 4, 57, 0
7, 19980, Note_on_c, 4, 59, 64
7, 19980, Note_on_c, 4, 62, 64
7, 19980, Note_on_c, 4, 50, 64
7, 20015, Note_on_c, 4, 50, 0
7, 20040, Note_on_c, 4, 52, 64
7, 20075, Note_on_c, 4, 52, 0
7, 20100, Note_on_c, 4, 62, 0
7, 20100, Note_on_c, 4, 59, 0
7, 20100, Note_on_c, 4, 68, 64
7, 20100, Note_on_c, 4, 71, 64
7, 20100, Note_on_c, 4, 74, 64
7, 20100, Note_on_c, 4, 40, 64
7, 20135, Note_on_c, 4, 40, 0
7, 20160, Note_on_c, 4, 68, 0
7, 20160, Note_on_c, 4, 71, 0
7, 20160, Note_on_c, 4, 74, 0
7, 20160, Control_c, 4, 7, 80
7, 20160, Control_c, 4, 7, 80
7, 20160, Note_on_c, 4, 64, 64
7, 20160, Note_on_c, 4, 69, 64
7, 20160, Note_on_c, 4, 73, 64
7, 20160, Note_on_c, 4, 45, 64
7, 20195, Note_on_c, 4, 45, 0
7, 20220, Note_on_c, 4, 57, 64
7, 20255, Note_on_c, 4, 57, 0
7, 20280, Note_on_c, 4, 52, 64
7, 20315, Note_on_c, 4, 52, 0
7, 20340, Note_on_c, 4, 54, 64
7, 20375, Note_on_c, 4, 54, 0
7, 20400, Note_on_c, 4, 55, 64
7, 20435, Note_on_c, 4, 55, 0
7, 20460, Note_on_c, 4, 57, 64
7, 20490, Note_on_c, 4, 57, 0
7, 20490, Note_on_c, 4, 55, 64
7, 20520, Note_on_c, 4, 55, 0
7, 20520, Note_on_c, 4, 64, 0
7, 20520, Note_on_c, 4, 69, 0
7, 20520, Note_on_c, 4, 73, 0
7, 20520, Note_on_c, 4, 66, 64
7, 20520, Note_on_c, 4, 71, 64
7, 20520, Note_on_c, 4, 75, 64
7, 20520, Note_on_c, 4, 54, 64
7, 20555, Note_on_c, 4, 54, 0
7, 20580, Note_on_c, 4, 59, 64
7, 20615, Note_on_c, 4, 59, 0
7, 20640, Note_on_c, 4, 75, 0
7, 20640, Note_on_c, 4, 71, 0
7, 20640, Note_on_c, 4, 66, 0
7, 20640, Note_on_c, 4, 67, 64
7, 20640, Note_on_c, 4, 71, 64
7, 20640, Note_on_c, 4, 76, 64
7, 20640, Note_on_c, 4, 52, 64
7, 20675, Note_on_c, 4, 52, 0
7, 20700, Note_on_c, 4, 67, 0
7, 20700, Note_on_c, 4, 71, 0
7, 20700, Note_on_c, 4, 76, 0
7, 20700, Note_on_c, 4, 71, 64
7, 20700, Note_on_c, 4, 54, 64
7, 20735, Note_on_c, 4, 54, 0
7, 20760, Note_on_c, 4, 71, 0
7, 20760, Note_on_c, 4, 64, 64
7, 20760, Note_on_c, 4, 55, 64
7, 20795, Note_on_c, 4, 55, 0
7, 20820, Note_on_c, 4, 64, 0
7, 20820, Note_on_c, 4, 66, 64
7, 20820, Note_on_c, 4, 74, 64
7, 20820, Note_on_c, 4, 59, 64
7, 20855, Note_on_c, 4, 59, 0
7, 20880, Note_on_c, 4, 74, 0
7, 20880, Note_on_c, 4, 66, 0
7, 20880, Note_on_c, 4, 67, 64
7, 20880, Note_on_c, 4, 73, 64
7, 20880, Note_on_c, 4, 52, 64
7, 20915, Note_on_c, 4, 52, 0
7, 20940, Note_on_c, 4, 73, 0
7, 20940, Note_on_c, 4, 67, 0
7, 20940, Note_on_c, 4, 71, 64
7, 20940, Note_on_c, 4, 66, 64
7, 20940, Note_on_c, 4, 54, 64
7, 20970, Note_on_c, 4, 71, 0
7, 20970, Note_on_c, 4, 70, 64
7, 20975, Note_on_c, 4, 54, 0
7, 21000, Note_on_c, 4, 70, 0
7, 21000, Note_on_c, 4, 66, 0
7, 21000, Note_on_c, 4, 71, 64
7, 21000, Note_on_c, 4, 62, 64
7, 21000, Note_on_c, 4, 47, 64
7, 21035, Note_on_c, 4, 47, 0
7, 21060, Note_on_c, 4, 62, 0
7, 21060, Note_on_c, 4, 64, 64
7, 21060, Note_on_c, 4, 43, 64
7, 21090, Note_on_c, 4, 71, 0
7, 21090, Note_on_c, 4, 73, 64
7, 21095, Note_on_c, 4, 43, 0
7, 21120, Note_on_c, 4, 73, 0
7, 21120, Note_on_c, 4, 64, 0
7, 21120, Note_on_c, 4, 66, 64
7, 21120, Note_on_c, 4, 70, 64
7, 21120, Note_on_c, 4, 61, 64
7, 21120, Note_on_c, 4, 42, 64
7, 21155, Note_on_c, 4, 42, 0
7, 21180, Note_on_c, 4, 54, 64
7, 21215, Note_on_c, 4, 54, 0
7, 21240, Note_on_c, 4, 70, 0
7, 21240, Note_on_c, 4, 66, 0
7, 21240, Note_on_c, 4, 70, 64
7, 21240, Note_on_c, 4, 73, 64
7, 21240, Note_on_c, 4, 55, 64
7, 21270, Note_on_c, 4, 55, 0
7, 21270, Note_on_c, 4, 54, 64
7, 21300, Note_on_c, 4, 54, 0
7, 21300, Note_on_c, 4, 52, 64
7, 21330, Note_on_c, 4, 52, 0
7, 21330, Note_on_c, 4, 50, 64
7, 21360, Note_on_c, 4, 50, 0
7, 21360, Note_on_c, 4, 73, 0
7, 21360, Note_on_c, 4, 70, 0
7, 21360, Note_on_c, 4, 61, 0
7, 21360, Note_on_c, 4, 64, 64
7, 21360, Note_on_c, 4, 73, 64
7, 21360, Note_on_c, 4, 49, 64
7, 21395, Note_on_c, 4, 49, 0
7, 21420, Note_on_c, 4, 46, 64
7, 21455, Note_on_c, 4, 46, 0
7, 21480, Note_on_c, 4, 42, 64
7, 21515, Note_on_c, 4, 42, 0
7, 21540, Note_on_c, 4, 46, 64
7, 21575, Note_on_c, 4, 46, 0
7, 21600, Note_on_c, 4, 73, 0
7, 21600, Note_on_c, 4, 64, 0
7, 21600, Note_on_c, 4, 62, 64
7, 21600, Note_on_c, 4, 71, 64
7, 21600, Note_on_c, 4, 47, 64
7, 21635, Note_on_c, 4, 47, 0
7, 21660, Note_on_c, 4, 59, 64
7, 21695, Note_on_c, 4, 59, 0
7, 21720, Note_on_c, 4, 71, 0
7, 21720, Note_on_c, 4, 62, 0
7, 21720, Note_on_c, 4, 63, 64
7, 21720, Note_on_c, 4, 66, 64
7, 21720, Note_on_c, 4, 60, 64
7, 21750, Note_on_c, 4, 60, 0
7, 21750, Note_on_c, 4, 59, 64
7, 21780, Note_on_c, 4, 59, 0
7, 21780, Note_on_c, 4, 66, 0
7, 21780, Note_on_c, 4, 67, 64
7, 21780, Note_on_c, 4, 57, 64
7, 21810, Note_on_c, 4, 57, 0
7, 21810, Note_on_c, 4, 55, 64
7, 21840, Note_on_c, 4, 55, 0
7, 21840, Note_on_c, 4, 67, 0
7, 21840, Note_on_c, 4, 69, 64
7, 21840, Note_on_c, 4, 54, 64
7, 21875, Note_on_c, 4, 54, 0
7, 21900, Note_on_c, 4, 59, 64
7, 21935, Note_on_c, 4, 59, 0
7, 21960, Note_on_c, 4, 63, 0
7, 21960, Note_on_c, 4, 66, 64
7, 21960, Note_on_c, 4, 51, 64
7, 21995, Note_on_c, 4, 51, 0
7, 22020, Note_on_c, 4, 47, 64
7, 22055, Note_on_c, 4, 47, 0
7, 22080, Note_on_c, 4, 59, 64
7, 22080, Note_on_c, 4, 52, 64
7, 22115, Note_on_c, 4, 52, 0
7, 22140, Note_on_c, 4, 51, 64
7, 22175, Note_on_c, 4, 51, 0
7, 22200, Note_on_c, 4, 66, 0
7, 22200, Note_on_c, 4, 69, 0
7, 22200, Note_on_c, 4, 64, 64
7, 22200, Note_on_c, 4, 67, 64
7, 22200, Note_on_c, 4, 52, 64
7, 22235, Note_on_c, 4, 52, 0
7, 22260, Note_on_c, 4, 54, 64
7, 22295, Note_on_c, 4, 54, 0
7, 22320, Note_on_c, 4, 67, 0
7, 22320, Note_on_c, 4, 64, 0
7, 22320, Note_on_c, 4, 59, 0
7, 22320, Note_on_c, 4, 64, 64
7, 22320, Note_on_c, 4, 71, 64
7, 22320, Note_on_c, 4, 76, 64
7, 22320, Note_on_c, 4, 55, 64
7, 22355, Note_on_c, 4, 55, 0
7, 22380, Note_on_c, 4, 59, 64
7, 22415, Note_on_c, 4, 59, 0
7, 22440, Note_on_c, 4, 52, 64
7, 22475, Note_on_c, 4, 52, 0
7, 22500, Note_on_c, 4, 55, 64
7, 22535, Note_on_c, 4, 55, 0
7, 22560, Note_on_c, 4, 71, 0
7, 22560, Note_on_c, 4, 72, 64
7, 22560, Note_on_c, 4, 45, 64
7, 22595, Note_on_c, 4, 45, 0
7, 22620, Note_on_c, 4, 52, 64
7, 22655, Note_on_c, 4, 52, 0
7, 22680, Note_on_c, 4, 72, 0
7, 22680, Note_on_c, 4, 76, 0
7, 22680, Note_on_c, 4, 64, 0
7, 22680, Note_on_c, 4, 64, 64
7, 22680, Note_on_c, 4, 69, 64
7, 22680, Note_on_c, 4, 76, 64
7, 22680, Note_on_c, 4, 45, 64
7, 22715, Note_on_c, 4, 45, 0
7, 22740, Note_on_c, 4, 48, 64
7, 22775, Note_on_c, 4, 48, 0
7, 22800, Note_on_c, 4, 76, 0
7, 22800, Note_on_c, 4, 69, 0
7, 22800, Note_on_c, 4, 64, 0
7, 22800, Note_on_c, 4, 66, 64
7, 22800, Note_on_c, 4, 69, 64
7, 22800, Note_on_c, 4, 72, 64
7, 22800, Note_on_c, 4, 74, 64
7, 22800, Note_on_c, 4, 42, 64
7, 22835, Note_on_c, 4, 42, 0
7, 22860, Note_on_c, 4, 38, 64
7, 22895, Note_on_c, 4, 38, 0
7, 22920, Note_on_c, 4, 40, 64
7, 22955, Note_on_c, 4, 40, 0
7, 22980, Note_on_c, 4, 42, 64
7, 23015, Note_on_c, 4, 42, 0
7, 23040, Note_on_c, 4, 74, 0
7, 23040, Note_on_c, 4, 66, 0
7, 23040, Note_on_c, 4, 69, 0
7, 23040, Note_on_c, 4, 72, 0
7, 23040, Note_on_c, 4, 67, 64
7, 23040, Note_on_c, 4, 71, 64
7, 23040, Note_on_c, 4, 74, 64
7, 23040, Note_on_c, 4, 43, 64
7, 23075, Note_on_c, 4, 43, 0
7, 23100, Note_on_c, 4, 67, 0
7, 23100, Note_on_c, 4, 71, 0
7, 23100, Note_on_c, 4, 74, 0
7, 23100, Note_on_c, 4, 71, 64
7, 23100, Note_on_c, 4, 40, 64
7, 23135, Note_on_c, 4, 40, 0
7, 23160, Note_on_c, 4, 71, 0
7, 23160, Note_on_c, 4, 67, 64
7, 23160, Note_on_c, 4, 42, 64
7, 23195, Note_on_c, 4, 42, 0
7, 23220, Note_on_c, 4, 67, 0
7, 23220, Note_on_c, 4, 64, 64
7, 23220, Note_on_c, 4, 43, 64
7, 23255, Note_on_c, 4, 43, 0
7, 23280, Note_on_c, 4, 69, 64
7, 23280, Note_on_c, 4, 45, 64
7, 23315, Note_on_c, 4, 45, 0
7, 23340, Note_on_c, 4, 60, 64
7, 23375, Note_on_c, 4, 60, 0
7, 23400, Note_on_c, 4, 69, 0
7, 23400, Note_on_c, 4, 64, 0
7, 23400, Note_on_c, 4, 67, 64
7, 23400, Note_on_c, 4, 72, 64
7, 23400, Note_on_c, 4, 54, 64
7, 23435, Note_on_c, 4, 54, 0
7, 23460, Note_on_c, 4, 57, 64
7, 23495, Note_on_c, 4, 57, 0
7, 23520, Note_on_c, 4, 72, 0
7, 23520, Note_on_c, 4, 67, 0
7, 23520, Note_on_c, 4, 69, 64
7, 23520, Note_on_c, 4, 71, 64
7, 23520, Note_on_c, 4, 51, 64
7, 23555, Note_on_c, 4, 51, 0
7, 23580, Note_on_c, 4, 54, 64
7, 23615, Note_on_c, 4, 54, 0
7, 23640, Note_on_c, 4, 71, 0
7, 23640, Note_on_c, 4, 69, 0
7, 23640, Note_on_c, 4, 69, 64
7, 23640, Note_on_c, 4, 75, 64
7, 23640, Note_on_c, 4, 47, 64
7, 23675, Note_on_c, 4, 47, 0
7, 23700, Note_on_c, 4, 51, 64
7, 23735, Note_on_c, 4, 51, 0
7, 23760, Note_on_c, 4, 75, 0
7, 23760, Note_on_c, 4, 69, 0
7, 23760, Note_on_c, 4, 67, 64
7, 23760, Note_on_c, 4, 78, 64
7, 23760, Note_on_c, 4, 40, 64
7, 23795, Note_on_c, 4, 40, 0
7, 23820, Note_on_c, 4, 78, 0
7, 23820, Note_on_c, 4, 67, 0
7, 23820, Note_on_c, 4, 71, 64
7, 23820, Note_on_c, 4, 76, 64
7, 23820, Note_on_c, 4, 55, 64
7, 23855, Note_on_c, 4, 55, 0
7, 23880, Note_on_c, 4, 76, 0
7, 23880, Note_on_c, 4, 71, 0
7, 23880, Note_on_c, 4, 71, 64
7, 23880, Note_on_c, 4, 79, 64
7, 23880, Note_on_c, 4, 49, 64
7, 23915, Note_on_c, 4, 49, 0
7, 23940, Note_on_c, 4, 52, 64
7, 23975, Note_on_c, 4, 52, 0
7, 24000, Note_on_c, 4, 71, 0
7, 24000, Note_on_c, 4, 70, 64
7, 24000, Note_on_c, 4, 54, 64
7, 24035, Note_on_c, 4, 54, 0
7, 24060, Note_on_c, 4, 70, 0
7, 24060, Note_on_c, 4, 79, 0
7, 24060, Note_on_c, 4, 56, 64
7, 24095, Note_on_c, 4, 56, 0
7, 24120, Note_on_c, 4, 66, 64
7, 24120, Note_on_c, 4, 73, 64
7, 24120, Note_on_c, 4, 58, 64
7, 24155, Note_on_c, 4, 58, 0
7, 24180, Note_on_c, 4, 54, 64
7, 24215, Note_on_c, 4, 54, 0
7, 24240, Note_on_c, 4, 73, 0
7, 24240, Note_on_c, 4, 66, 0
7, 24240, Note_on_c, 4, 66, 64
7, 24240, Note_on_c, 4, 71, 64
7, 24240, Note_on_c, 4, 74, 64
7, 24240, Note_on_c, 4, 59, 64
7, 24360, Note_on_c, 4, 59, 0
7, 24360, Note_on_c, 4, 66, 0
7, 24360, Note_on_c, 4, 71, 0
7, 24360, Note_on_c, 4, 74, 0
7, 24510, Note_on_c, 4, 47, 64
7, 24540, Note_on_c, 4, 47, 0
7, 24540, Note_on_c, 4, 50, 64
7, 24570, Note_on_c, 4, 50, 0
7, 24570, Note_on_c, 4, 49, 64
7, 24600, Note_on_c, 4, 49, 0
7, 24600, Note_on_c, 4, 47, 64
7, 24630, Note_on_c, 4, 47, 0
7, 24630, Note_on_c, 4, 45, 64
7, 24660, Note_on_c, 4, 45, 0
7, 24660, Note_on_c, 4, 66, 64
7, 24660, Note_on_c, 4, 69, 64
7, 24660, Note_on_c, 4, 75, 64
7, 24660, Note_on_c, 4, 43, 64
7, 24690, Note_on_c, 4, 43, 0
7, 24690, Note_on_c, 4, 42, 64
7, 24720, Note_on_c, 4, 42, 0
7, 24720, Note_on_c, 4, 75, 0
7, 24720, Note_on_c, 4, 69, 0
7, 24720, Note_on_c, 4, 66, 0
7, 24720, Note_on_c, 4, 67, 64
7, 24720, Note_on_c, 4, 71, 64
7, 24720, Note_on_c, 4, 76, 64
7, 24720, Note_on_c, 4, 40, 64
7, 24840, Note_on_c, 4, 40, 0
7, 24840, Note_on_c, 4, 67, 0
7, 24840, Note_on_c, 4, 71, 0
7, 24840, Note_on_c, 4, 76, 0
7, 24960, Note_on_c, 4, 67, 64
7, 24960, Note_on_c, 4, 76, 64
7, 25020, Note_on_c, 4, 76, 0
7, 25020, Note_on_c, 4, 67, 0
7, 25020, Note_on_c, 4, 64, 64
7, 25020, Note_on_c, 4, 73, 64
7, 25020, Note_on_c, 4, 58, 64
7, 25055, Note_on_c, 4, 58, 0
7, 25080, Note_on_c, 4, 73, 0
7, 25080, Note_on_c, 4, 64, 0
7, 25080, Note_on_c, 4, 66, 64
7, 25080, Note_on_c, 4, 74, 64
7, 25080, Note_on_c, 4, 59, 64
7, 25115, Note_on_c, 4, 59, 0
7, 25140, Note_on_c, 4, 74, 0
7, 25140, Note_on_c, 4, 66, 0
7, 25140, Note_on_c, 4, 64, 64
7, 25140, Note_on_c, 4, 70, 64
7, 25140, Note_on_c, 4, 73, 64
7, 25140, Note_on_c, 4, 54, 64
7, 25175, Note_on_c, 4, 54, 0
7, 25200, Note_on_c, 4, 64, 0
7, 25200, Note_on_c, 4, 70, 0
7, 25200, Note_on_c, 4, 73, 0
7, 25200, Note_on_c, 4, 62, 64
7, 25200, Note_on_c, 4, 71, 64
7, 25200, Note_on_c, 4, 55, 64
7, 25235, Note_on_c, 4, 55, 0
7, 25260, Note_on_c, 4, 52, 64
7, 25295, Note_on_c, 4, 52, 0
7, 25320, Note_on_c, 4, 71, 0
7, 25320, Note_on_c, 4, 62, 0
7, 25320, Note_on_c, 4, 61, 64
7, 25320, Note_on_c, 4, 70, 64
7, 25320, Note_on_c, 4, 54, 64
7, 25355, Note_on_c, 4, 54, 0
7, 25380, Note_on_c, 4, 42, 64
7, 25415, Note_on_c, 4, 42, 0
7, 25440, Note_on_c, 4, 70, 0
7, 25440, Note_on_c, 4, 61, 0
7, 25440, Control_c, 4, 7, 127
7, 25440, Control_c, 4, 7, 127
7, 25440, Note_on_c, 4, 62, 64
7, 25440, Note_on_c, 4, 71, 64
7, 25440, Note_on_c, 4, 47, 64
7, 25475, Note_on_c, 4, 47, 0
7, 25500, Note_on_c, 4, 71, 0
7, 25500, Note_on_c, 4, 62, 0
7, 25500, Note_on_c, 4, 66, 64
7, 25500, Note_on_c, 4, 49, 64
7, 25535, Note_on_c, 4, 49, 0
7, 25560, Note_on_c, 4, 50, 64
7, 25595, Note_on_c, 4, 50, 0
7, 25620, Note_on_c, 4, 66, 0
7, 25620, Note_on_c, 4, 61, 64
7, 25620, Note_on_c, 4, 67, 64
7, 25620, Note_on_c, 4, 52, 64
7, 25655, Note_on_c, 4, 52, 0
7, 25680, Note_on_c, 4, 67, 0
7, 25680, Note_on_c, 4, 66, 64
7, 25680, Note_on_c, 4, 42, 64
7, 25715, Note_on_c, 4, 42, 0
7, 25740, Note_on_c, 4, 46, 64
7, 25775, Note_on_c, 4, 46, 0
7, 25800, Note_on_c, 4, 66, 0
7, 25800, Note_on_c, 4, 61, 0
7, 25800, Note_on_c, 4, 66, 64
7, 25800, Note_on_c, 4, 70, 64
7, 25800, Note_on_c, 4, 49, 64
7, 25835, Note_on_c, 4, 49, 0
7, 25860, Note_on_c, 4, 52, 64
7, 25955, Note_on_c, 4, 52, 0
7, 25980, Note_on_c, 4, 46, 64
7, 26010, Note_on_c, 4, 46, 0
7, 26010, Note_on_c, 4, 44, 64
7, 26040, Note_on_c, 4, 44, 0
7, 26040, Note_on_c, 4, 70, 0
7, 26040, Note_on_c, 4, 76, 64
7, 26040, Note_on_c, 4, 46, 64
7, 26075, Note_on_c, 4, 46, 0
7, 26100, Note_on_c, 4, 76, 0
7, 26100, Note_on_c, 4, 66, 0
7, 26100, Note_on_c, 4, 73, 64
7, 26100, Note_on_c, 4, 42, 64
7, 26135, Note_on_c, 4, 42, 0
7, 26160, Note_on_c, 4, 73, 0
7, 26160, Note_on_c, 4, 66, 64
7, 26160, Note_on_c, 4, 71, 64
7, 26160, Note_on_c, 4, 47, 64
7, 26195, Note_on_c, 4, 47, 0
7, 26220, Note_on_c, 4, 51, 64
7, 26255, Note_on_c, 4, 51, 0
7, 26280, Note_on_c, 4, 71, 0
7, 26280, Note_on_c, 4, 66, 0
7, 26280, Note_on_c, 4, 71, 64
7, 26280, Note_on_c, 4, 75, 64
7, 26280, Note_on_c, 4, 54, 64
7, 26315, Note_on_c, 4, 54, 0
7, 26340, Note_on_c, 4, 57, 64
7, 26435, Note_on_c, 4, 57, 0
7, 26460, Note_on_c, 4, 51, 64
7, 26490, Note_on_c, 4, 51, 0
7, 26490, Note_on_c, 4, 49, 64
7, 26520, Note_on_c, 4, 49, 0
7, 26520, Note_on_c, 4, 75, 0
7, 26520, Note_on_c, 4, 78, 64
7, 26520, Note_on_c, 4, 51, 64
7, 26555, Note_on_c, 4, 51, 0
7, 26580, Note_on_c, 4, 78, 0
7, 26580, Note_on_c, 4, 71, 0
7, 26580, Note_on_c, 4, 71, 64
7, 26580, Note_on_c, 4, 75, 64
7, 26580, Note_on_c, 4, 47, 64
7, 26615, Note_on_c, 4, 47, 0
7, 26640, Note_on_c, 4, 75, 0
7, 26640, Note_on_c, 4, 71, 0
7, 26640, Note_on_c, 4, 67, 64
7, 26640, Note_on_c, 4, 76, 64
7, 26640, Note_on_c, 4, 52, 64
7, 26675, Note_on_c, 4, 52, 0
7, 26700, Note_on_c, 4, 67, 0
7, 26700, Note_on_c, 4, 69, 64
7, 26700, Note_on_c, 4, 49, 64
7, 26735, Note_on_c, 4, 49, 0
7, 26760, Note_on_c, 4, 50, 64
7, 26795, Note_on_c, 4, 50, 0
7, 26820, Note_on_c, 4, 69, 0
7, 26820, Note_on_c, 4, 76, 0
7, 26820, Note_on_c, 4, 66, 64
7, 26820, Note_on_c, 4, 74, 64
7, 26820, Note_on_c, 4, 47, 64
7, 26855, Note_on_c, 4, 47, 0
7, 26880, Note_on_c, 4, 66, 0
7, 26880, Note_on_c, 4, 64, 64
7, 26880, Note_on_c, 4, 49, 64
7, 26915, Note_on_c, 4, 49, 0
7, 26940, Note_on_c, 4, 64, 0
7, 26940, Note_on_c, 4, 74, 0
7, 26940, Note_on_c, 4, 66, 64
7, 26940, Note_on_c, 4, 73, 64
7, 26940, Note_on_c, 4, 46, 64
7, 26975, Note_on_c, 4, 46, 0
7, 27000, Note_on_c, 4, 73, 0
7, 27000, Note_on_c, 4, 71, 64
7, 27000, Note_on_c, 4, 47, 64
7, 27035, Note_on_c, 4, 47, 0
7, 27060, Note_on_c, 4, 66, 0
7, 27060, Note_on_c, 4, 67, 64
7, 27060, Note_on_c, 4, 43, 64
7, 27095, Note_on_c, 4, 43, 0
7, 27120, Note_on_c, 4, 67, 0
7, 27120, Note_on_c, 4, 64, 64
7, 27120, Note_on_c, 4, 45, 64
7, 27155, Note_on_c, 4, 45, 0
7, 27180, Note_on_c, 4, 64, 0
7, 27180, Note_on_c, 4, 71, 0
7, 27180, Note_on_c, 4, 69, 64
7, 27180, Note_on_c, 4, 42, 64
7, 27215, Note_on_c, 4, 42, 0
7, 27240, Note_on_c, 4, 69, 0
7, 27240, Note_on_c, 4, 71, 64
7, 27240, Note_on_c, 4, 43, 64
7, 27275, Note_on_c, 4, 43, 0
7, 27300, Note_on_c, 4, 67, 64
7, 27300, Note_on_c, 4, 52, 64
7, 27335, Note_on_c, 4, 52, 0
7, 27360, Note_on_c, 4, 67, 0
7, 27360, Note_on_c, 4, 71, 0
7, 27360, Note_on_c, 4, 66, 64
7, 27360, Note_on_c, 4, 70, 64
7, 27360, Note_on_c, 4, 42, 64
7, 27395, Note_on_c, 4, 42, 0
7, 27420, Note_on_c, 4, 52, 64
7, 27455, Note_on_c, 4, 52, 0
7, 27480, Note_on_c, 4, 70, 0
7, 27480, Note_on_c, 4, 66, 0
7, 27480, Note_on_c, 4, 66, 64
7, 27480, Note_on_c, 4, 71, 64
7, 27480, Note_on_c, 4, 50, 64
7, 27515, Note_on_c, 4, 50, 0
7, 27540, Note_on_c, 4, 59, 64
7, 27575, Note_on_c, 4, 59, 0
7, 27600, Note_on_c, 4, 66, 0
7, 27600, Note_on_c, 4, 64, 64
7, 27600, Note_on_c, 4, 55, 64
7, 27635, Note_on_c, 4, 55, 0
7, 27660, Note_on_c, 4, 64, 0
7, 27660, Note_on_c, 4, 71, 0
7, 27660, Note_on_c, 4, 73, 64
7, 27660, Note_on_c, 4, 52, 64
7, 27695, Note_on_c, 4, 52, 0
7, 27720, Note_on_c, 4, 73, 0
7, 27720, Note_on_c, 4, 62, 64
7, 27720, Note_on_c, 4, 71, 64
7, 27720, Note_on_c, 4, 54, 64
7, 27755, Note_on_c, 4, 54, 0
7, 27780, Note_on_c, 4, 71, 0
7, 27780, Note_on_c, 4, 62, 0
7, 27780, Note_on_c, 4, 61, 64
7, 27780, Note_on_c, 4, 70, 64
7, 27780, Note_on_c, 4, 42, 64
7, 27815, Note_on_c, 4, 42, 0
7, 27833, Control_c, 4, 7, 127
7, 27837, Control_c, 4, 7, 126
7, 27840, Note_on_c, 4, 70, 0
7, 27840, Note_on_c, 4, 61, 0
7, 27840, Note_on_c, 4, 62, 64
7, 27840, Note_on_c, 4, 71, 64
7, 27840, Note_on_c, 4, 47, 64
7, 27856, Control_c, 4, 7, 107
7, 27875, Control_c, 4, 7, 88
7, 27960, Note_on_c, 4, 47, 0
7, 27960, Note_on_c, 4, 71, 0
7, 27960, Note_on_c, 4, 62, 0
7, 27960, Note_on_c, 4, 62, 64
7, 27960, Note_on_c, 4, 71, 64
7, 28020, Note_on_c, 4, 59, 64
7, 28055, Note_on_c, 4, 59, 0
7, 28080, Note_on_c, 4, 54, 64
7, 28115, Note_on_c, 4, 54, 0
7, 28140, Note_on_c, 4, 56, 64
7, 28175, Note_on_c, 4, 56, 0
7, 28200, Note_on_c, 4, 71, 0
7, 28200, Note_on_c, 4, 62, 0
7, 28200, Note_on_c, 4, 64, 64
7, 28200, Note_on_c, 4, 71, 64
7, 28200, Note_on_c, 4, 57, 64
7, 28230, Note_on_c, 4, 57, 0
7, 28230, Note_on_c, 4, 56, 64
7, 28260, Note_on_c, 4, 56, 0
7, 28260, Note_on_c, 4, 54, 64
7, 28290, Note_on_c, 4, 54, 0
7, 28290, Note_on_c, 4, 52, 64
7, 28320, Note_on_c, 4, 52, 0
7, 28320, Note_on_c, 4, 71, 0
7, 28320, Note_on_c, 4, 64, 0
7, 28320, Note_on_c, 4, 66, 64
7, 28320, Note_on_c, 4, 69, 64
7, 28320, Note_on_c, 4, 51, 64
7, 28440, Note_on_c, 4, 51, 0
7, 28440, Note_on_c, 4, 69, 0
7, 28440, Note_on_c, 4, 66, 0
7, 28500, Note_on_c, 4, 59, 64
7, 28500, Note_on_c, 4, 63, 64
7, 28500, Note_on_c, 4, 69, 64
7, 28500, Note_on_c, 4, 47, 64
7, 28535, Note_on_c, 4, 47, 0
7, 28560, Note_on_c, 4, 59, 0
7, 28560, Note_on_c, 4, 63, 0
7, 28560, Note_on_c, 4, 69, 0
7, 28560, Note_on_c, 4, 59, 64
7, 28560, Note_on_c, 4, 64, 64
7, 28560, Note_on_c, 4, 68, 64
7, 28560, Note_on_c, 4, 52, 64
7, 28680, Note_on_c, 4, 52, 0
7, 28680, Note_on_c, 4, 59, 0
7, 28680, Note_on_c, 4, 64, 0
7, 28680, Note_on_c, 4, 68, 0
7, 28740, Note_on_c, 4, 64, 64
7, 28740, Note_on_c, 4, 67, 64
7, 28740, Note_on_c, 4, 46, 64
7, 28775, Note_on_c, 4, 46, 0
7, 28800, Note_on_c, 4, 67, 0
7, 28800, Note_on_c, 4, 64, 0
7, 28800, Note_on_c, 4, 62, 64
7, 28800, Note_on_c, 4, 66, 64
7, 28800, Note_on_c, 4, 47, 64
7, 28835, Note_on_c, 4, 47, 0
7, 28860, Note_on_c, 4, 66, 0
7, 28860, Note_on_c, 4, 62, 0
7, 28860, Note_on_c, 4, 61, 64
7, 28860, Note_on_c, 4, 67, 64
7, 28860, Note_on_c, 4, 40, 64
7, 28895, Note_on_c, 4, 40, 0
7, 28920, Note_on_c, 4, 67, 0
7, 28920, Note_on_c, 4, 61, 0
7, 28920, Note_on_c, 4, 62, 64
7, 28920, Note_on_c, 4, 66, 64
7, 28920, Note_on_c, 4, 38, 64
7, 28955, Note_on_c, 4, 38, 0
7, 28980, Note_on_c, 4, 66, 0
7, 28980, Note_on_c, 4, 62, 0
7, 28980, Note_on_c, 4, 62, 64
7, 28980, Note_on_c, 4, 50, 64
7, 29015, Note_on_c, 4, 50, 0
7, 29040, Note_on_c, 4, 62, 0
7, 29040, Note_on_c, 4, 59, 64
7, 29040, Note_on_c, 4, 55, 64
7, 29075, Note_on_c, 4, 55, 0
7, 29100, Note_on_c, 4, 62, 64
7, 29100, Note_on_c, 4, 54, 64
7, 29135, Note_on_c, 4, 54, 0
7, 29160, Note_on_c, 4, 62, 0
7, 29160, Note_on_c, 4, 67, 64
7, 29160, Note_on_c, 4, 52, 64
7, 29195, Note_on_c, 4, 52, 0
7, 29220, Note_on_c, 4, 54, 64
7, 29250, Note_on_c, 4, 54, 0
7, 29250, Note_on_c, 4, 55, 64
7, 29280, Note_on_c, 4, 55, 0
7, 29280, Note_on_c, 4, 59, 0
7, 29280, Note_on_c, 4, 61, 64
7, 29280, Note_on_c, 4, 57, 64
7, 29315, Note_on_c, 4, 57, 0
7, 29340, Note_on_c, 4, 52, 64
7, 29375, Note_on_c, 4, 52, 0
7, 29400, Note_on_c, 4, 67, 0
7, 29400, Note_on_c, 4, 69, 64
7, 29400, Note_on_c, 4, 49, 64
7, 29435, Note_on_c, 4, 49, 0
7, 29460, Note_on_c, 4, 45, 64
7, 29495, Note_on_c, 4, 45, 0
7, 29520, Note_on_c, 4, 69, 0
7, 29520, Note_on_c, 4, 61, 0
7, 29520, Note_on_c, 4, 62, 64
7, 29520, Note_on_c, 4, 66, 64
7, 29520, Note_on_c, 4, 50, 64
7, 29580, Note_on_c, 4, 66, 0
7, 29580, Note_on_c, 4, 62, 0
7, 29640, Note_on_c, 4, 50, 0
7, 29700, Note_on_c, 4, 66, 64
7, 29700, Note_on_c, 4, 71, 64
7, 29700, Note_on_c, 4, 50, 64
7, 29735, Note_on_c, 4, 50, 0
7, 29760, Note_on_c, 4, 66, 0
7, 29760, Note_on_c, 4, 64, 64
7, 29760, Note_on_c, 4, 55, 64
7, 29790, Note_on_c, 4, 55, 0
7, 29790, Note_on_c, 4, 54, 64
7, 29820, Note_on_c, 4, 54, 0
7, 29820, Note_on_c, 4, 52, 64
7, 29850, Note_on_c, 4, 52, 0
7, 29850, Note_on_c, 4, 50, 64
7, 29880, Note_on_c, 4, 50, 0
7, 29880, Note_on_c, 4, 64, 0
7, 29880, Note_on_c, 4, 71, 0
7, 29880, Note_on_c, 4, 57, 64
7, 29880, Note_on_c, 4, 67, 64
7, 29880, Note_on_c, 4, 49, 64
7, 29910, Note_on_c, 4, 49, 0
7, 29910, Note_on_c, 4, 50, 64
7, 29940, Note_on_c, 4, 50, 0
7, 29940, Note_on_c, 4, 52, 64
7, 29970, Note_on_c, 4, 52, 0
7, 29970, Note_on_c, 4, 49, 64
7, 30000, Note_on_c, 4, 49, 0
7, 30000, Note_on_c, 4, 45, 64
7, 30120, Note_on_c, 4, 45, 0
7, 30120, Note_on_c, 4, 67, 0
7, 30120, Note_on_c, 4, 57, 0
7, 30180, Note_on_c, 4, 61, 64
7, 30180, Note_on_c, 4, 64, 64
7, 30180, Note_on_c, 4, 45, 64
7, 30215, Note_on_c, 4, 45, 0
7, 30240, Note_on_c, 4, 64, 0
7, 30240, Note_on_c, 4, 61, 0
7, 30240, Note_on_c, 4, 62, 64
7, 30240, Note_on_c, 4, 66, 64
7, 30240, Note_on_c, 4, 38, 64
7, 30270, Note_on_c, 4, 38, 0
7, 30270, Note_on_c, 4, 52, 64
7, 30300, Note_on_c, 4, 52, 0
7, 30300, Note_on_c, 4, 50, 64
7, 30330, Note_on_c, 4, 50, 0
7, 30330, Note_on_c, 4, 48, 64
7, 30360, Note_on_c, 4, 48, 0
7, 30360, Note_on_c, 4, 66, 0
7, 30360, Note_on_c, 4, 62, 0
7, 30360, Note_on_c, 4, 66, 64
7, 30360, Note_on_c, 4, 47, 64
7, 30390, Note_on_c, 4, 47, 0
7, 30390, Note_on_c, 4, 48, 64
7, 30420, Note_on_c, 4, 48, 0
7, 30420, Note_on_c, 4, 66, 0
7, 30420, Note_on_c, 4, 67, 64
7, 30420, Note_on_c, 4, 50, 64
7, 30450, Note_on_c, 4, 50, 0
7, 30450, Note_on_c, 4, 47, 64
7, 30480, Note_on_c, 4, 47, 0
7, 30480, Note_on_c, 4, 67, 0
7, 30480, Note_on_c, 4, 60, 64
7, 30480, Note_on_c, 4, 69, 64
7, 30480, Note_on_c, 4, 42, 64
7, 30600, Note_on_c, 4, 42, 0
7, 30600, Note_on_c, 4, 69, 0
7, 30600, Note_on_c, 4, 60, 0
7, 30660, Note_on_c, 4, 60, 64
7, 30660, Note_on_c, 4, 62, 64
7, 30660, Note_on_c, 4, 66, 64
7, 30660, Note_on_c, 4, 38, 64
7, 30695, Note_on_c, 4, 38, 0
7, 30720, Note_on_c, 4, 60, 0
7, 30720, Note_on_c, 4, 62, 0
7, 30720, Note_on_c, 4, 66, 0
7, 30720, Note_on_c, 4, 62, 64
7, 30720, Note_on_c, 4, 66, 64
7, 30720, Note_on_c, 4, 69, 64
7, 30720, Note_on_c, 4, 48, 64
7, 30750, Note_on_c, 4, 48, 0
7, 30750, Note_on_c, 4, 52, 64
7, 30780, Note_on_c, 4, 52, 0
7, 30780, Note_on_c, 4, 50, 64
7, 30810, Note_on_c, 4, 50, 0
7, 30810, Note_on_c, 4, 48, 64
7, 30840, Note_on_c, 4, 48, 0
7, 30840, Note_on_c, 4, 69, 0
7, 30840, Note_on_c, 4, 66, 0
7, 30840, Note_on_c, 4, 62, 0
7, 30840, Note_on_c, 4, 69, 64
7, 30840, Note_on_c, 4, 72, 64
7, 30840, Note_on_c, 4, 47, 64
7, 30870, Note_on_c, 4, 47, 0
7, 30870, Note_on_c, 4, 48, 64
7, 30900, Note_on_c, 4, 48, 0
7, 30900, Note_on_c, 4, 72, 0
7, 30900, Note_on_c, 4, 69, 0
7, 30900, Note_on_c, 4, 67, 64
7, 30900, Note_on_c, 4, 71, 64
7, 30900, Note_on_c, 4, 50, 64
7, 30930, Note_on_c, 4, 50, 0
7, 30930, Note_on_c, 4, 71, 0
7, 30930, Note_on_c, 4, 67, 0
7, 30930, Note_on_c, 4, 66, 64
7, 30930, Note_on_c, 4, 69, 64
7, 30930, Note_on_c, 4, 47, 64
7, 30960, Note_on_c, 4, 47, 0
7, 30960, Note_on_c, 4, 69, 0
7, 30960, Note_on_c, 4, 66, 0
7, 30960, Note_on_c, 4, 67, 64
7, 30960, Note_on_c, 4, 69, 64
7, 30960, Note_on_c, 4, 43, 64
7, 30995, Note_on_c, 4, 43, 0
7, 31020, Note_on_c, 4, 69, 0
7, 31020, Note_on_c, 4, 71, 64
7, 31020, Note_on_c, 4, 55, 64
7, 31055, Note_on_c, 4, 55, 0
7, 31080, Note_on_c, 4, 52, 64
7, 31115, Note_on_c, 4, 52, 0
7, 31140, Note_on_c, 4, 71, 0
7, 31140, Note_on_c, 4, 67, 0
7, 31140, Note_on_c, 4, 67, 64
7, 31140, Note_on_c, 4, 73, 64
7, 31140, Note_on_c, 4, 57, 64
7, 31175, Note_on_c, 4, 57, 0
7, 31200, Note_on_c, 4, 73, 0
7, 31200, Note_on_c, 4, 67, 0
7, 31200, Note_on_c, 4, 66, 64
7, 31200, Note_on_c, 4, 74, 64
7, 31200, Note_on_c, 4, 50, 64
7, 31320, Note_on_c, 4, 50, 0
7, 31320, Note_on_c, 4, 74, 0
7, 31320, Note_on_c, 4, 66, 0
7, 31380, Note_on_c, 4, 69, 64
7, 31380, Note_on_c, 4, 78, 64
7, 31380, Note_on_c, 4, 38, 64
7, 31415, Note_on_c, 4, 38, 0
7, 31440, Note_on_c, 4, 78, 0
7, 31440, Note_on_c, 4, 69, 0
7, 31440, Note_on_c, 4, 67, 64
7, 31440, Note_on_c, 4, 76, 64
7, 31440, Note_on_c, 4, 43, 64
7, 31560, Note_on_c, 4, 43, 0
7, 31560, Note_on_c, 4, 76, 0
7, 31560, Note_on_c, 4, 67, 0
7, 31620, Note_on_c, 4, 67, 64
7, 31620, Note_on_c, 4, 73, 64
7, 31620, Note_on_c, 4, 52, 64
7, 31655, Note_on_c, 4, 52, 0
7, 31680, Note_on_c, 4, 73, 0
7, 31680, Note_on_c, 4, 69, 64
7, 31680, Note_on_c, 4, 49, 64
7, 31800, Note_on_c, 4, 49, 0
7, 31800, Note_on_c, 4, 69, 0
7, 31800, Note_on_c, 4, 67, 0
7, 31860, Note_on_c, 4, 64, 64
7, 31860, Note_on_c, 4, 67, 64
7, 31860, Note_on_c, 4, 45, 64
7, 31895, Note_on_c, 4, 45, 0
7, 31920, Note_on_c, 4, 50, 64
7, 31955, Note_on_c, 4, 50, 0
7, 31980, Note_on_c, 4, 67, 0
7, 31980, Note_on_c, 4, 64, 0
7, 31980, Note_on_c, 4, 62, 64
7, 31980, Note_on_c, 4, 66, 64
7, 31980, Note_on_c, 4, 52, 64
7, 32015, Note_on_c, 4, 52, 0
7, 32040, Note_on_c, 4, 66, 0
7, 32040, Note_on_c, 4, 62, 0
7, 32040, Note_on_c, 4, 62, 64
7, 32040, Note_on_c, 4, 69, 64
7, 32040, Note_on_c, 4, 54, 64
7, 32075, Note_on_c, 4, 54, 0
7, 32100, Note_on_c, 4, 50, 64
7, 32135, Note_on_c, 4, 50, 0
7, 32160, Note_on_c, 4, 69, 0
7, 32160, Note_on_c, 4, 62, 0
7, 32160, Note_on_c, 4, 62, 64
7, 32160, Note_on_c, 4, 71, 64
7, 32160, Note_on_c, 4, 55, 64
7, 32195, Note_on_c, 4, 55, 0
7, 32220, Note_on_c, 4, 71, 0
7, 32220, Note_on_c, 4, 62, 0
7, 32220, Note_on_c, 4, 66, 64
7, 32220, Note_on_c, 4, 69, 64
7, 32220, Note_on_c, 4, 59, 64
7, 32250, Note_on_c, 4, 59, 0
7, 32250, Note_on_c, 4, 57, 64
7, 32280, Note_on_c, 4, 57, 0
7, 32280, Note_on_c, 4, 69, 0
7, 32280, Note_on_c, 4, 66, 0
7, 32280, Note_on_c, 4, 67, 64
7, 32280, Note_on_c, 4, 71, 64
7, 32280, Note_on_c, 4, 55, 64
7, 32310, Note_on_c, 4, 55, 0
7, 32310, Note_on_c, 4, 54, 64
7, 32340, Note_on_c, 4, 54, 0
7, 32340, Note_on_c, 4, 71, 0
7, 32340, Note_on_c, 4, 67, 0
7, 32340, Note_on_c, 4, 59, 64
7, 32340, Note_on_c, 4, 66, 64
7, 32340, Note_on_c, 4, 69, 64
7, 32340, Note_on_c, 4, 52, 64
7, 32370, Note_on_c, 4, 52, 0
7, 32370, Note_on_c, 4, 51, 64
7, 32400, Note_on_c, 4, 51, 0
7, 32400, Note_on_c, 4, 69, 0
7, 32400, Note_on_c, 4, 66, 0
7, 32400, Note_on_c, 4, 59, 0
7, 32400, Note_on_c, 4, 64, 64
7, 32400, Note_on_c, 4, 67, 64
7, 32400, Note_on_c, 4, 52, 64
7, 32430, Note_on_c, 4, 52, 0
7, 32430, Note_on_c, 4, 55, 64
7, 32460, Note_on_c, 4, 55, 0
7, 32460, Note_on_c, 4, 54, 64
7, 32490, Note_on_c, 4, 54, 0
7, 32490, Note_on_c, 4, 52, 64
7, 32520, Note_on_c, 4, 52, 0
7, 32520, Note_on_c, 4, 67, 0
7, 32520, Note_on_c, 4, 64, 0
7, 32520, Note_on_c, 4, 51, 64
7, 32550, Note_on_c, 4, 51, 0
7, 32550, Note_on_c, 4, 49, 64
7, 32580, Note_on_c, 4, 49, 0
7, 32580, Note_on_c, 4, 63, 64
7, 32580, Note_on_c, 4, 66, 64
7, 32580, Note_on_c, 4, 47, 64
7, 32610, Note_on_c, 4, 47, 0
7, 32610, Note_on_c, 4, 45, 64
7, 32640, Note_on_c, 4, 45, 0
7, 32640, Note_on_c, 4, 66, 0
7, 32640, Note_on_c, 4, 63, 0
7, 32640, Note_on_c, 4, 59, 64
7, 32640, Note_on_c, 4, 64, 64
7, 32640, Note_on_c, 4, 43, 64
7, 32670, Note_on_c, 4, 43, 0
7, 32670, Note_on_c, 4, 45, 64
7, 32700, Note_on_c, 4, 45, 0
7, 32700, Note_on_c, 4, 64, 0
7, 32700, Note_on_c, 4, 59, 0
7, 32700, Note_on_c, 4, 63, 64
7, 32700, Note_on_c, 4, 66, 64
7, 32700, Note_on_c, 4, 43, 64
7, 32730, Note_on_c, 4, 43, 0
7, 32730, Note_on_c, 4, 42, 64
7, 32760, Note_on_c, 4, 42, 0
7, 32760, Note_on_c, 4, 66, 0
7, 32760, Note_on_c, 4, 63, 0
7, 32760, Note_on_c, 4, 64, 64
7, 32760, Note_on_c, 4, 67, 64
7, 32760, Note_on_c, 4, 40, 64
7, 32790, Note_on_c, 4, 40, 0
7, 32790, Note_on_c, 4, 42, 64
7, 32820, Note_on_c, 4, 42, 0
7, 32820, Note_on_c, 4, 67, 0
7, 32820, Note_on_c, 4, 64, 0
7, 32820, Note_on_c, 4, 64, 64
7, 32820, Note_on_c, 4, 71, 64
7, 32820, Note_on_c, 4, 43, 64
7, 32850, Note_on_c, 4, 43, 0
7, 32850, Note_on_c, 4, 40, 64
7, 32880, Note_on_c, 4, 40, 0
7, 32880, Note_on_c, 4, 71, 0
7, 32880, Note_on_c, 4, 64, 0
7, 32880, Note_on_c, 4, 61, 64
7, 32880, Note_on_c, 4, 64, 64
7, 32880, Note_on_c, 4, 69, 64
7, 32880, Note_on_c, 4, 45, 64
7, 33000, Note_on_c, 4, 45, 0
7, 33000, Note_on_c, 4, 61, 0
7, 33000, Note_on_c, 4, 64, 0
7, 33000, Note_on_c, 4, 69, 0
7, 33120, Note_on_c, 4, 61, 64
7, 33120, Note_on_c, 4, 64, 64
7, 33120, Note_on_c, 4, 67, 64
7, 33120, Note_on_c, 4, 45, 64
7, 33155, Note_on_c, 4, 45, 0
7, 33180, Note_on_c, 4, 49, 64
7, 33215, Note_on_c, 4, 49, 0
7, 33240, Note_on_c, 4, 52, 64
7, 33275, Note_on_c, 4, 52, 0
7, 33300, Note_on_c, 4, 57, 64
7, 33395, Note_on_c, 4, 57, 0
7, 33420, Note_on_c, 4, 49, 64
7, 33450, Note_on_c, 4, 49, 0
7, 33450, Note_on_c, 4, 47, 64
7, 33480, Note_on_c, 4, 47, 0
7, 33480, Note_on_c, 4, 67, 0
7, 33480, Note_on_c, 4, 64, 0
7, 33480, Note_on_c, 4, 61, 0
7, 33480, Note_on_c, 4, 62, 64
7, 33480, Note_on_c, 4, 66, 64
7, 33480, Note_on_c, 4, 45, 64
7, 33515, Note_on_c, 4, 45, 0
7, 33540, Note_on_c, 4, 66, 0
7, 33540, Note_on_c, 4, 62, 0
7, 33540, Note_on_c, 4, 61, 64
7, 33540, Note_on_c, 4, 64, 64
7, 33540, Note_on_c, 4, 57, 64
7, 33575, Note_on_c, 4, 57, 0
7, 33600, Note_on_c, 4, 64, 0
7, 33600, Note_on_c, 4, 61, 0
7, 33600, Note_on_c, 4, 60, 64
7, 33600, Note_on_c, 4, 62, 64
7, 33600, Note_on_c, 4, 66, 64
7, 33600, Note_on_c, 4, 38, 64
7, 33635, Note_on_c, 4, 38, 0
7, 33660, Note_on_c, 4, 42, 64
7, 33695, Note_on_c, 4, 42, 0
7, 33720, Note_on_c, 4, 45, 64
7, 33755, Note_on_c, 4, 45, 0
7, 33780, Note_on_c, 4, 50, 64
7, 33875, Note_on_c, 4, 50, 0
7, 33900, Note_on_c, 4, 42, 64
7, 33930, Note_on_c, 4, 42, 0
7, 33930, Note_on_c, 4, 40, 64
7, 33960, Note_on_c, 4, 40, 0
7, 33960, Note_on_c, 4, 66, 0
7, 33960, Note_on_c, 4, 62, 0
7, 33960, Note_on_c, 4, 60, 0
7, 33960, Note_on_c, 4, 59, 64
7, 33960, Note_on_c, 4, 67, 64
7, 33960, Note_on_c, 4, 38, 64
7, 33995, Note_on_c, 4, 38, 0
7, 34020, Note_on_c, 4, 67, 0
7, 34020, Note_on_c, 4, 59, 0
7, 34020, Note_on_c, 4, 60, 64
7, 34020, Note_on_c, 4, 69, 64
7, 34020, Note_on_c, 4, 50, 64
7, 34055, Note_on_c, 4, 50, 0
7, 34080, Note_on_c, 4, 69, 0
7, 34080, Note_on_c, 4, 60, 0
7, 34080, Note_on_c, 4, 59, 64
7, 34080, Note_on_c, 4, 62, 64
7, 34080, Note_on_c, 4, 55, 64
7, 34115, Note_on_c, 4, 55, 0
7, 34140, Note_on_c, 4, 62, 0
7, 34140, Note_on_c, 4, 61, 64
7, 34140, Note_on_c, 4, 52, 64
7, 34175, Note_on_c, 4, 52, 0
7, 34200, Note_on_c, 4, 61, 0
7, 34200, Note_on_c, 4, 59, 0
7, 34200, Note_on_c, 4, 57, 64
7, 34200, Note_on_c, 4, 64, 64
7, 34200, Note_on_c, 4, 49, 64
7, 34235, Note_on_c, 4, 49, 0
7, 34260, Note_on_c, 4, 64, 0
7, 34260, Note_on_c, 4, 57, 0
7, 34260, Note_on_c, 4, 62, 64
7, 34260, Note_on_c, 4, 66, 64
7, 34260, Note_on_c, 4, 50, 64
7, 34320, Note_on_c, 4, 66, 0
7, 34320, Note_on_c, 4, 62, 0
7, 34320, Note_on_c, 4, 62, 64
7, 34320, Note_on_c, 4, 67, 64
7, 34380, Note_on_c, 4, 67, 0
7, 34380, Note_on_c, 4, 62, 0
7, 34380, Note_on_c, 4, 50, 0
7, 34380, Note_on_c, 4, 64, 64
7, 34380, Note_on_c, 4, 71, 64
7, 34380, Note_on_c, 4, 49, 64
7, 34410, Note_on_c, 4, 71, 0
7, 34410, Note_on_c, 4, 69, 64
7, 34415, Note_on_c, 4, 49, 0
7, 34440, Note_on_c, 4, 69, 0
7, 34440, Note_on_c, 4, 66, 64
7, 34440, Note_on_c, 4, 50, 64
7, 34475, Note_on_c, 4, 50, 0
7, 34500, Note_on_c, 4, 66, 0
7, 34500, Note_on_c, 4, 64, 0
7, 34500, Note_on_c, 4, 62, 64
7, 34500, Note_on_c, 4, 69, 64
7, 34500, Note_on_c, 4, 54, 64
7, 34535, Note_on_c, 4, 54, 0
7, 34560, Note_on_c, 4, 69, 0
7, 34560, Note_on_c, 4, 64, 64
7, 34560, Note_on_c, 4, 44, 64
7, 34595, Note_on_c, 4, 44, 0
7, 34620, Note_on_c, 4, 64, 0
7, 34620, Note_on_c, 4, 62, 0
7, 34620, Note_on_c, 4, 62, 64
7, 34620, Note_on_c, 4, 68, 64
7, 34620, Note_on_c, 4, 52, 64
7, 34655, Note_on_c, 4, 52, 0
7, 34680, Note_on_c, 4, 40, 64
7, 34715, Note_on_c, 4, 40, 0
7, 34740, Note_on_c, 4, 68, 0
7, 34740, Note_on_c, 4, 62, 0
7, 34740, Note_on_c, 4, 69, 64
7, 34740, Note_on_c, 4, 52, 64
7, 34770, Note_on_c, 4, 69, 0
7, 34770, Note_on_c, 4, 71, 64
7, 34775, Note_on_c, 4, 52, 0
7, 34800, Note_on_c, 4, 71, 0
7, 34800, Note_on_c, 4, 61, 64
7, 34800, Note_on_c, 4, 69, 64
7, 34800, Note_on_c, 4, 45, 64
7, 34835, Note_on_c, 4, 45, 0
7, 34860, Note_on_c, 4, 69, 0
7, 34860, Note_on_c, 4, 61, 0
7, 34860, Note_on_c, 4, 64, 64
7, 34860, Note_on_c, 4, 67, 64
7, 34860, Note_on_c, 4, 57, 64
7, 34895, Note_on_c, 4, 57, 0
7, 34920, Note_on_c, 4, 67, 0
7, 34920, Note_on_c, 4, 64, 0
7, 34920, Note_on_c, 4, 62, 64
7, 34920, Note_on_c, 4, 66, 64
7, 34920, Note_on_c, 4, 59, 64
7, 34955, Note_on_c, 4, 59, 0
7, 34980, Note_on_c, 4, 66, 0
7, 34980, Note_on_c, 4, 62, 0
7, 34980, Note_on_c, 4, 66, 64
7, 34980, Note_on_c, 4, 71, 64
7, 34980, Note_on_c, 4, 57, 64
7, 35015, Note_on_c, 4, 57, 0
7, 35040, Note_on_c, 4, 71, 0
7, 35040, Note_on_c, 4, 66, 0
7, 35040, Note_on_c, 4, 64, 64
7, 35040, Note_on_c, 4, 67, 64
7, 35040, Note_on_c, 4, 74, 64
7, 35040, Note_on_c, 4, 55, 64
7, 35075, Note_on_c, 4, 55, 0
7, 35100, Note_on_c, 4, 54, 64
7, 35135, Note_on_c, 4, 54, 0
7, 35160, Note_on_c, 4, 52, 64
7, 35195, Note_on_c, 4, 52, 0
7, 35220, Note_on_c, 4, 54, 64
7, 35250, Note_on_c, 4, 54, 0
7, 35250, Note_on_c, 4, 55, 64
7, 35280, Note_on_c, 4, 55, 0
7, 35280, Note_on_c, 4, 57, 64
7, 35315, Note_on_c, 4, 57, 0
7, 35340, Note_on_c, 4, 74, 0
7, 35340, Note_on_c, 4, 67, 0
7, 35340, Note_on_c, 4, 64, 0
7, 35340, Note_on_c, 4, 69, 64
7, 35340, Note_on_c, 4, 73, 64
7, 35340, Note_on_c, 4, 45, 64
7, 35375, Note_on_c, 4, 45, 0
7, 35400, Note_on_c, 4, 73, 0
7, 35400, Note_on_c, 4, 69, 0
7, 35400, Note_on_c, 4, 62, 64
7, 35400, Note_on_c, 4, 66, 64
7, 35400, Note_on_c, 4, 47, 64
7, 35435, Note_on_c, 4, 47, 0
7, 35460, Note_on_c, 4, 66, 0
7, 35460, Note_on_c, 4, 62, 0
7, 35460, Note_on_c, 4, 64, 64
7, 35460, Note_on_c, 4, 69, 64
7, 35460, Note_on_c, 4, 49, 64
7, 35495, Note_on_c, 4, 49, 0
7, 35520, Note_on_c, 4, 69, 0
7, 35520, Note_on_c, 4, 64, 0
7, 35520, Note_on_c, 4, 66, 64
7, 35520, Note_on_c, 4, 71, 64
7, 35520, Note_on_c, 4, 50, 64
7, 35555, Note_on_c, 4, 50, 0
7, 35580, Note_on_c, 4, 66, 0
7, 35580, Note_on_c, 4, 62, 64
7, 35580, Note_on_c, 4, 47, 64
7, 35615, Note_on_c, 4, 47, 0
7, 35640, Note_on_c, 4, 62, 0
7, 35640, Note_on_c, 4, 71, 0
7, 35640, Note_on_c, 4, 62, 64
7, 35640, Note_on_c, 4, 64, 64
7, 35640, Note_on_c, 4, 43, 64
7, 35675, Note_on_c, 4, 43, 0
7, 35700, Note_on_c, 4, 62, 0
7, 35700, Note_on_c, 4, 61, 64
7, 35700, Note_on_c, 4, 45, 64
7, 35735, Note_on_c, 4, 45, 0
7, 35760, Note_on_c, 4, 61, 0
7, 35760, Note_on_c, 4, 64, 0
7, 35760, Note_on_c, 4, 62, 64
7, 35760, Note_on_c, 4, 66, 64
7, 35760, Note_on_c, 4, 38, 64
7, 35820, Note_on_c, 4, 62, 0
7, 35820, Note_on_c, 4, 60, 64
7, 35880, Note_on_c, 4, 60, 0
7, 35880, Note_on_c, 4, 66, 0
7, 35880, Note_on_c, 4, 59, 64
7, 35880, Note_on_c, 4, 67, 64
7, 35940, Note_on_c, 4, 67, 0
7, 35940, Note_on_c, 4, 59, 0
7, 35940, Note_on_c, 4, 57, 64
7, 35940, Note_on_c, 4, 66, 64
7, 36000, Note_on_c, 4, 66, 0
7, 36000, Note_on_c, 4, 57, 0
7, 36000, Note_on_c, 4, 64, 64
7, 36000, Note_on_c, 4, 54, 64
7, 36000, Note_on_c, 4, 57, 64
7, 36030, Note_on_c, 4, 64, 0
7, 36030, Note_on_c, 4, 62, 64
7, 36060, Note_on_c, 4, 62, 0
7, 36060, Note_on_c, 4, 57, 0
7, 36060, Note_on_c, 4, 54, 0
7, 36060, Note_on_c, 4, 61, 64
7, 36060, Note_on_c, 4, 52, 64
7, 36060, Note_on_c, 4, 55, 64
7, 36120, Note_on_c, 4, 55, 0
7, 36120, Note_on_c, 4, 52, 0
7, 36120, Note_on_c, 4, 61, 0
7, 36120, Note_on_c, 4, 57, 64
7, 36120, Note_on_c, 4, 61, 64
7, 36120, Note_on_c, 4, 64, 64
7, 36240, Note_on_c, 4, 64, 0
7, 36240, Note_on_c, 4, 61, 0
7, 36240, Note_on_c, 4, 57, 0
7, 36240, Note_on_c, 4, 57, 64
7, 36240, Note_on_c, 4, 62, 64
7, 36240, Note_on_c, 4, 66, 64
7, 36275, Note_on_c, 4, 38, 0
7, 36300, Note_on_c, 4, 57, 0
7, 36300, Note_on_c, 4, 59, 64
7, 36300, Note_on_c, 4, 47, 64
7, 36335, Note_on_c, 4, 47, 0
7, 36360, Note_on_c, 4, 66, 0
7, 36360, Note_on_c, 4, 62, 0
7, 36360, Note_on_c, 4, 59, 0
7, 36360, Note_on_c, 4, 57, 64
7, 36360, Note_on_c, 4, 67, 64
7, 36360, Note_on_c, 4, 49, 64
7, 36395, Note_on_c, 4, 49, 0
7, 36420, Note_on_c, 4, 67, 0
7, 36420, Note_on_c, 4, 57, 0
7, 36420, Note_on_c, 4, 61, 64
7, 36420, Note_on_c, 4, 64, 64
7, 36420, Note_on_c, 4, 45, 64
7, 36455, Note_on_c, 4, 45, 0
7, 36480, Note_on_c, 4, 64, 0
7, 36480, Note_on_c, 4, 61, 0
7, 36480, Note_on_c, 4, 62, 64
7, 36480, Note_on_c, 4, 66, 64
7, 36480, Note_on_c, 4, 50, 64
7, 36515, Note_on_c, 4, 50, 0
7, 36540, Note_on_c, 4, 66, 0
7, 36540, Note_on_c, 4, 62, 0
7, 36540, Note_on_c, 4, 62, 64
7, 36540, Note_on_c, 4, 64, 64
7, 36540, Note_on_c, 4, 71, 64
7, 36540, Note_on_c, 4, 55, 64
7, 36575, Note_on_c, 4, 55, 0
7, 36600, Note_on_c, 4, 62, 0
7, 36600, Note_on_c, 4, 64, 0
7, 36600, Note_on_c, 4, 71, 0
7, 36600, Note_on_c, 4, 62, 64
7, 36600, Note_on_c, 4, 66, 64
7, 36600, Note_on_c, 4, 74, 64
7, 36600, Note_on_c, 4, 57, 64
7, 36635, Note_on_c, 4, 57, 0
7, 36660, Note_on_c, 4, 62, 0
7, 36660, Note_on_c, 4, 66, 0
7, 36660, Note_on_c, 4, 74, 0
7, 36660, Note_on_c, 4, 64, 64
7, 36660, Note_on_c, 4, 69, 64
7, 36660, Note_on_c, 4, 73, 64
7, 36660, Note_on_c, 4, 45, 64
7, 36695, Note_on_c, 4, 45, 0
7, 36720, Note_on_c, 4, 64, 0
7, 36720, Note_on_c, 4, 69, 0
7, 36720, Note_on_c, 4, 73, 0
7, 36720, Note_on_c, 4, 66, 64
7, 36720, Note_on_c, 4, 69, 64
7, 36720, Note_on_c, 4, 74, 64
7, 36720, Note_on_c, 4, 50, 64
7, 36729, Control_c, 4, 7, 127
7, 36729, Control_c, 4, 7, 127
7, 36995, Note_on_c, 4, 50, 0
7, 37020, Note_on_c, 4, 38, 64
7, 37055, Note_on_c, 4, 38, 0
7, 37080, Note_on_c, 4, 74, 0
7, 37080, Note_on_c, 4, 72, 64
7, 37080, Note_on_c, 4, 40, 64
7, 37115, Note_on_c, 4, 40, 0
7, 37140, Note_on_c, 4, 42, 64
7, 37175, Note_on_c, 4, 42, 0
7, 37200, Note_on_c, 4, 72, 0
7, 37200, Note_on_c, 4, 69, 0
7, 37200, Note_on_c, 4, 66, 0
7, 37200, Note_on_c, 4, 69, 64
7, 37200, Note_on_c, 4, 71, 64
7, 37200, Note_on_c, 4, 43, 64
7, 37235, Note_on_c, 4, 43, 0
7, 37260, Note_on_c, 4, 71, 0
7, 37260, Note_on_c, 4, 69, 0
7, 37260, Note_on_c, 4, 67, 64
7, 37260, Note_on_c, 4, 74, 64
7, 37260, Note_on_c, 4, 40, 64
7, 37295, Note_on_c, 4, 40, 0
7, 37320, Note_on_c, 4, 74, 0
7, 37320, Note_on_c, 4, 67, 0
7, 37320, Note_on_c, 4, 69, 64
7, 37320, Note_on_c, 4, 74, 64
7, 37320, Note_on_c, 4, 45, 64
7, 37355, Note_on_c, 4, 45, 0
7, 37380, Note_on_c, 4, 74, 0
7, 37380, Note_on_c, 4, 73, 64
7, 37380, Note_on_c, 4, 45, 64
7, 37415, Note_on_c, 4, 45, 0
7, 37440, Note_on_c, 4, 73, 0
7, 37440, Note_on_c, 4, 69, 0
7, 37440, Note_on_c, 4, 67, 64
7, 37440, Note_on_c, 4, 74, 64
7, 37440, Note_on_c, 4, 38, 64
7, 37500, Note_on_c, 4, 67, 0
7, 37500, Note_on_c, 4, 66, 64
7, 37560, Note_on_c, 4, 66, 0
7, 37560, Note_on_c, 4, 38, 0
7, 37560, Note_on_c, 4, 74, 0
7, 37620, Note_on_c, 4, 69, 64
7, 37620, Note_on_c, 4, 71, 64
7, 37620, Note_on_c, 4, 50, 64
7, 37680, Note_on_c, 4, 71, 0
7, 37680, Note_on_c, 4, 69, 0
7, 37680, Note_on_c, 4, 64, 64
7, 37680, Note_on_c, 4, 68, 64
7, 37680, Note_on_c, 4, 71, 64
7, 37715, Note_on_c, 4, 50, 0
7, 37740, Note_on_c, 4, 49, 64
7, 37775, Note_on_c, 4, 49, 0
7, 37800, Note_on_c, 4, 71, 0
7, 37800, Note_on_c, 4, 68, 0
7, 37800, Note_on_c, 4, 64, 0
7, 37800, Note_on_c, 4, 73, 64
7, 37800, Note_on_c, 4, 54, 64
7, 37835, Note_on_c, 4, 54, 0
7, 37860, Note_on_c, 4, 42, 64
7, 37895, Note_on_c, 4, 42, 0
7, 37920, Note_on_c, 4, 73, 0
7, 37920, Note_on_c, 4, 64, 64
7, 37920, Note_on_c, 4, 71, 64
7, 37920, Note_on_c, 4, 47, 64
7, 37980, Note_on_c, 4, 64, 0
7, 37980, Note_on_c, 4, 62, 64
7, 38040, Note_on_c, 4, 62, 0
7, 38040, Note_on_c, 4, 47, 0
7, 38040, Note_on_c, 4, 71, 0
7, 38100, Note_on_c, 4, 71, 64
7, 38100, Note_on_c, 4, 74, 64
7, 38100, Note_on_c, 4, 55, 64
7, 38160, Note_on_c, 4, 74, 0
7, 38160, Note_on_c, 4, 71, 0
7, 38160, Note_on_c, 4, 73, 64
7, 38160, Note_on_c, 4, 76, 64
7, 38195, Note_on_c, 4, 55, 0
7, 38220, Note_on_c, 4, 76, 0
7, 38220, Note_on_c, 4, 69, 64
7, 38220, Note_on_c, 4, 49, 64
7, 38255, Note_on_c, 4, 49, 0
7, 38280, Note_on_c, 4, 69, 0
7, 38280, Note_on_c, 4, 73, 0
7, 38280, Note_on_c, 4, 69, 64
7, 38280, Note_on_c, 4, 45, 64
7, 38315, Note_on_c, 4, 45, 0
7, 38340, Note_on_c, 4, 67, 64
7, 38340, Note_on_c, 4, 49, 64
7, 38375, Note_on_c, 4, 49, 0
7, 38400, Note_on_c, 4, 67, 0
7, 38400, Note_on_c, 4, 69, 0
7, 38400, Note_on_c, 4, 66, 64
7, 38400, Note_on_c, 4, 69, 64
7, 38400, Note_on_c, 4, 50, 64
7, 38435, Note_on_c, 4, 50, 0
7, 38460, Note_on_c, 4, 69, 0
7, 38460, Note_on_c, 4, 66, 0
7, 38460, Note_on_c, 4, 62, 64
7, 38460, Note_on_c, 4, 69, 64
7, 38460, Note_on_c, 4, 54, 64
7, 38495, Note_on_c, 4, 54, 0
7, 38520, Note_on_c, 4, 69, 0
7, 38520, Note_on_c, 4, 62, 0
7, 38520, Note_on_c, 4, 64, 64
7, 38520, Note_on_c, 4, 71, 64
7, 38520, Note_on_c, 4, 55, 64
7, 38555, Note_on_c, 4, 55, 0
7, 38580, Note_on_c, 4, 64, 0
7, 38580, Note_on_c, 4, 62, 64
7, 38580, Note_on_c, 4, 52, 64
7, 38615, Note_on_c, 4, 52, 0
7, 38640, Note_on_c, 4, 62, 0
7, 38640, Note_on_c, 4, 71, 0
7, 38640, Note_on_c, 4, 64, 64
7, 38640, Note_on_c, 4, 73, 64
7, 38640, Note_on_c, 4, 57, 64
7, 38675, Note_on_c, 4, 57, 0
7, 38700, Note_on_c, 4, 64, 0
7, 38700, Note_on_c, 4, 69, 64
7, 38700, Note_on_c, 4, 49, 64
7, 38735, Note_on_c, 4, 49, 0
7, 38760, Note_on_c, 4, 50, 64
7, 38795, Note_on_c, 4, 50, 0
7, 38820, Note_on_c, 4, 69, 0
7, 38820, Note_on_c, 4, 73, 0
7, 38820, Note_on_c, 4, 68, 64
7, 38820, Note_on_c, 4, 71, 64
7, 38820, Note_on_c, 4, 52, 64
7, 38855, Note_on_c, 4, 52, 0
7, 38880, Note_on_c, 4, 71, 0
7, 38880, Note_on_c, 4, 68, 0
7, 38880, Note_on_c, 4, 61, 64
7, 38880, Note_on_c, 4, 69, 64
7, 38880, Note_on_c, 4, 45, 64
7, 38915, Note_on_c, 4, 45, 0
7, 38940, Note_on_c, 4, 69, 0
7, 38940, Note_on_c, 4, 61, 0
7, 38940, Note_on_c, 4, 64, 64
7, 38940, Note_on_c, 4, 49, 64
7, 38975, Note_on_c, 4, 49, 0
7, 39000, Note_on_c, 4, 61, 64
7, 39000, Note_on_c, 4, 69, 64
7, 39000, Note_on_c, 4, 52, 64
7, 39035, Note_on_c, 4, 52, 0
7, 39060, Note_on_c, 4, 55, 64
7, 39155, Note_on_c, 4, 55, 0
7, 39180, Note_on_c, 4, 49, 64
7, 39210, Note_on_c, 4, 49, 0
7, 39210, Note_on_c, 4, 47, 64
7, 39240, Note_on_c, 4, 47, 0
7, 39240, Note_on_c, 4, 69, 0
7, 39240, Note_on_c, 4, 61, 0
7, 39240, Note_on_c, 4, 57, 64
7, 39240, Note_on_c, 4, 69, 64
7, 39240, Note_on_c, 4, 49, 64
7, 39275, Note_on_c, 4, 49, 0
7, 39300, Note_on_c, 4, 64, 0
7, 39300, Note_on_c, 4, 57, 0
7, 39300, Note_on_c, 4, 69, 0
7, 39300, Note_on_c, 4, 67, 64
7, 39300, Note_on_c, 4, 73, 64
7, 39300, Note_on_c, 4, 45, 64
7, 39335, Note_on_c, 4, 45, 0
7, 39360, Note_on_c, 4, 73, 0
7, 39360, Note_on_c, 4, 67, 0
7, 39360, Note_on_c, 4, 66, 64
7, 39360, Note_on_c, 4, 74, 64
7, 39360, Note_on_c, 4, 50, 64
7, 39395, Note_on_c, 4, 50, 0
7, 39420, Note_on_c, 4, 74, 0
7, 39420, Note_on_c, 4, 66, 0
7, 39420, Note_on_c, 4, 69, 64
7, 39420, Note_on_c, 4, 54, 64
7, 39455, Note_on_c, 4, 54, 0
7, 39480, Note_on_c, 4, 66, 64
7, 39480, Note_on_c, 4, 74, 64
7, 39480, Note_on_c, 4, 57, 64
7, 39515, Note_on_c, 4, 57, 0
7, 39540, Note_on_c, 4, 60, 64
7, 39635, Note_on_c, 4, 60, 0
7, 39660, Note_on_c, 4, 54, 64
7, 39690, Note_on_c, 4, 54, 0
7, 39690, Note_on_c, 4, 52, 64
7, 39720, Note_on_c, 4, 52, 0
7, 39720, Note_on_c, 4, 74, 0
7, 39720, Note_on_c, 4, 66, 0
7, 39720, Note_on_c, 4, 69, 0
7, 39720, Note_on_c, 4, 62, 64
7, 39720, Note_on_c, 4, 69, 64
7, 39720, Note_on_c, 4, 72, 64
7, 39720, Note_on_c, 4, 54, 64
7, 39755, Note_on_c, 4, 54, 0
7, 39780, Note_on_c, 4, 62, 0
7, 39780, Note_on_c, 4, 69, 0
7, 39780, Note_on_c, 4, 72, 0
7, 39780, Note_on_c, 4, 66, 64
7, 39780, Note_on_c, 4, 69, 64
7, 39780, Note_on_c, 4, 50, 64
7, 39815, Note_on_c, 4, 50, 0
7, 39840, Note_on_c, 4, 69, 0
7, 39840, Note_on_c, 4, 66, 0
7, 39840, Note_on_c, 4, 62, 64
7, 39840, Note_on_c, 4, 71, 64
7, 39840, Note_on_c, 4, 55, 64
7, 39875, Note_on_c, 4, 55, 0
7, 39900, Note_on_c, 4, 62, 0
7, 39900, Note_on_c, 4, 64, 64
7, 39900, Note_on_c, 4, 67, 64
7, 39900, Note_on_c, 4, 52, 64
7, 39935, Note_on_c, 4, 52, 0
7, 39960, Note_on_c, 4, 71, 0
7, 39960, Note_on_c, 4, 64, 0
7, 39960, Note_on_c, 4, 69, 64
7, 39960, Note_on_c, 4, 54, 64
7, 39995, Note_on_c, 4, 54, 0
7, 40020, Note_on_c, 4, 69, 0
7, 40020, Note_on_c, 4, 67, 0
7, 40020, Note_on_c, 4, 66, 64
7, 40020, Note_on_c, 4, 72, 64
7, 40020, Note_on_c, 4, 50, 64
7, 40055, Note_on_c, 4, 50, 0
7, 40080, Note_on_c, 4, 72, 0
7, 40080, Note_on_c, 4, 71, 64
7, 40080, Note_on_c, 4, 52, 64
7, 40115, Note_on_c, 4, 52, 0
7, 40140, Note_on_c, 4, 71, 0
7, 40140, Note_on_c, 4, 66, 0
7, 40140, Note_on_c, 4, 64, 64
7, 40140, Note_on_c, 4, 67, 64
7, 40140, Note_on_c, 4, 49, 64
7, 40175, Note_on_c, 4, 49, 0
7, 40200, Note_on_c, 4, 67, 0
7, 40200, Note_on_c, 4, 66, 64
7, 40200, Note_on_c, 4, 50, 64
7, 40235, Note_on_c, 4, 50, 0
7, 40260, Note_on_c, 4, 66, 0
7, 40260, Note_on_c, 4, 64, 0
7, 40260, Note_on_c, 4, 62, 64
7, 40260, Note_on_c, 4, 66, 64
7, 40260, Note_on_c, 4, 47, 64
7, 40295, Note_on_c, 4, 47, 0
7, 40320, Note_on_c, 4, 66, 0
7, 40320, Note_on_c, 4, 62, 0
7, 40320, Note_on_c, 4, 57, 64
7, 40320, Note_on_c, 4, 64, 64
7, 40320, Note_on_c, 4, 49, 64
7, 40355, Note_on_c, 4, 49, 0
7, 40380, Note_on_c, 4, 64, 0
7, 40380, Note_on_c, 4, 57, 0
7, 40380, Note_on_c, 4, 61, 64
7, 40380, Note_on_c, 4, 66, 64
7, 40380, Note_on_c, 4, 45, 64
7, 40415, Note_on_c, 4, 45, 0
7, 40440, Note_on_c, 4, 61, 0
7, 40440, Note_on_c, 4, 62, 64
7, 40440, Note_on_c, 4, 47, 64
7, 40475, Note_on_c, 4, 47, 0
7, 40500, Note_on_c, 4, 66, 0
7, 40500, Note_on_c, 4, 64, 64
7, 40500, Note_on_c, 4, 55, 64
7, 40535, Note_on_c, 4, 55, 0
7, 40560, Note_on_c, 4, 64, 0
7, 40560, Note_on_c, 4, 62, 0
7, 40560, Note_on_c, 4, 61, 64
7, 40560, Note_on_c, 4, 64, 64
7, 40560, Note_on_c, 4, 45, 64
7, 40595, Note_on_c, 4, 45, 0
7, 40620, Note_on_c, 4, 64, 0
7, 40620, Note_on_c, 4, 61, 0
7, 40620, Note_on_c, 4, 64, 64
7, 40620, Note_on_c, 4, 69, 64
7, 40620, Note_on_c, 4, 55, 64
7, 40655, Note_on_c, 4, 55, 0
7, 40680, Note_on_c, 4, 64, 0
7, 40680, Note_on_c, 4, 62, 64
7, 40680, Note_on_c, 4, 54, 64
7, 40715, Note_on_c, 4, 54, 0
7, 40740, Note_on_c, 4, 62, 0
7, 40740, Note_on_c, 4, 66, 64
7, 40740, Note_on_c, 4, 50, 64
7, 40775, Note_on_c, 4, 50, 0
7, 40800, Note_on_c, 4, 66, 0
7, 40800, Note_on_c, 4, 69, 0
7, 40800, Note_on_c, 4, 62, 64
7, 40800, Note_on_c, 4, 67, 64
7, 40800, Note_on_c, 4, 47, 64
7, 40835, Note_on_c, 4, 47, 0
7, 40860, Note_on_c, 4, 67, 0
7, 40860, Note_on_c, 4, 62, 0
7, 40860, Note_on_c, 4, 64, 64
7, 40860, Note_on_c, 4, 67, 64
7, 40860, Note_on_c, 4, 43, 64
7, 40895, Note_on_c, 4, 43, 0
7, 40920, Note_on_c, 4, 45, 64
7, 40955, Note_on_c, 4, 45, 0
7, 40980, Note_on_c, 4, 67, 0
7, 40980, Note_on_c, 4, 64, 0
7, 40980, Note_on_c, 4, 61, 64
7, 40980, Note_on_c, 4, 64, 64
7, 40980, Note_on_c, 4, 67, 64
7, 40980, Note_on_c, 4, 45, 64
7, 41015, Note_on_c, 4, 45, 0
7, 41040, Note_on_c, 4, 61, 0
7, 41040, Note_on_c, 4, 64, 0
7, 41040, Note_on_c, 4, 67, 0
7, 41040, Note_on_c, 4, 57, 64
7, 41040, Note_on_c, 4, 62, 64
7, 41040, Note_on_c, 4, 66, 64
7, 41040, Note_on_c, 4, 38, 64
7, 41220, Note_on_c, 4, 38, 0
7, 41220, Note_on_c, 4, 57, 0
7, 41220, Note_on_c, 4, 62, 0
7, 41220, Note_on_c, 4, 66, 0
7, 41280, End_track
0, 0, End_of_file
