0, 0, Header, 1, 4, 120
1, 0, Start_track
1, 0, Title_t, "untitled"
1, 0, Time_signature, 4, 2, 24, 8
1, 0, Key_signature, 2, "major"
1, 0, Tempo, 600000
1, 0, Marker_t, "tpnvnt15.pc"
1, 0, Marker_t, "Staff:0 "
1, 9495, Tempo, 597015
1, 9505, Tempo, 600000
1, 9510, Tempo, 603015
1, 9520, Tempo, 606061
1, 9525, Tempo, 609137
1, 9530, Tempo, 612245
1, 9540, Tempo, 615385
1, 9545, Tempo, 618557
1, 9550, Tempo, 621762
1, 9560, Tempo, 625000
1, 9565, Tempo, 628272
1, 9570, Tempo, 631579
1, 9580, Tempo, 634921
1, 9585, Tempo, 638298
1, 9590, Tempo, 641711
1, 9600, Tempo, 645161
1, 9605, Tempo, 648649
1, 9615, Tempo, 652174
1, 9620, Tempo, 655738
1, 9625, Tempo, 659341
1, 9635, Tempo, 662983
1, 9640, Tempo, 666667
1, 9645, Tempo, 670391
1, 9655, Tempo, 674157
1, 9660, Tempo, 677966
1, 9665, Tempo, 681818
1, 9675, Tempo, 685714
1, 9680, Tempo, 689655
1, 9685, Tempo, 693642
1, 9695, Tempo, 697674
1, 9700, Tempo, 701754
1, 9710, Tempo, 705882
1, 9715, Tempo, 710059
1, 9720, Tempo, 714286
1, 9730, Tempo, 718563
1, 9735, Tempo, 722892
1, 9740, Tempo, 727273
1, 9750, Tempo, 731707
1, 9755, Tempo, 736196
1, 9760, Tempo, 740741
1, 9770, Tempo, 745342
1, 9775, Tempo, 750000
1, 9780, Tempo, 754717
1, 9790, Tempo, 759494
1, 9795, Tempo, 764331
1, 9805, Tempo, 769231
1, 9810, Tempo, 774194
1, 9815, Tempo, 779221
1, 9825, Tempo, 784314
1, 9830, Tempo, 789474
1, 9835, Tempo, 794702
1, 9845, Tempo, 800000
1, 9850, Tempo, 805369
1, 9855, Tempo, 810811
1, 9865, Tempo, 816327
1, 9870, Tempo, 821918
1, 9875, Tempo, 827586
1, 9885, Tempo, 833333
1, 9890, Tempo, 839161
1, 9900, Tempo, 845070
1, 9905, Tempo, 851064
1, 9910, Tempo, 857143
1, 9920, Tempo, 863309
1, 9925, Tempo, 869565
1, 9930, Tempo, 875912
1, 9940, Tempo, 882353
1, 9945, Tempo, 888889
1, 9950, Tempo, 895522
1, 9960, Tempo, 902256
1, 9965, Tempo, 909091
1, 9970, Tempo, 916031
1, 9980, Tempo, 923077
1, 9985, Tempo, 930233
1, 9995, Tempo, 937500
1, 10000, Tempo, 944882
1, 10005, Tempo, 952381
1, 10015, Tempo, 960000
1, 10020, Tempo, 967742
1, 10025, Tempo, 975610
1, 10035, Tempo, 983607
1, 10040, Tempo, 991736
1, 10045, Tempo, 1000000
1, 10055, Tempo, 1008403
1, 10060, Tempo, 1016949
1, 10065, Tempo, 1025641
1, 10075, Tempo, 1034483
1, 10080, Tempo, 1043478
1, 10085, Tempo, 1052632
1, 10085, End_track
2, 0, Start_track
2, 0, Title_t, "Track 2"
2, 0, Program_c, 0, 0
2, 0, Control_c, 0, 7, 101
2, 0, Control_c, 0, 10, 40
2, 0, Control_c, 0, 7, 70
2, 60, Note_on_c, 0, 71, 127
2, 90, Note_on_c, 0, 71, 0
2, 90, Note_on_c, 0, 70, 127
2, 110, Control_c, 0, 7, 69
2, 120, Note_on_c, 0, 70, 0
2, 120, Note_on_c, 0, 71, 127
2, 120, Control_c, 0, 7, 78
2, 150, Note_on_c, 0, 71, 0
2, 180, Note_on_c, 0, 66, 127
2, 210, Note_on_c, 0, 66, 0
2, 240, Note_on_c, 0, 67, 127
2, 255, Note_on_c, 0, 67, 0
2, 255, Note_on_c, 0, 70, 127
2, 270, Note_on_c, 0, 70, 0
2, 270, Note_on_c, 0, 67, 127
2, 300, Note_on_c, 0, 67, 0
2, 300, Note_on_c, 0, 66, 127
2, 360, Note_on_c, 0, 66, 0
2, 360, Note_on_c, 0, 71, 127
2, 390, Note_on_c, 0, 71, 0
2, 420, Note_on_c, 0, 66, 127
2, 450, Note_on_c, 0, 66, 0
2, 480, Note_on_c, 0, 66, 127
2, 495, Note_on_c, 0, 66, 0
2, 495, Note_on_c, 0, 67, 127
2, 510, Note_on_c, 0, 67, 0
2, 510, Note_on_c, 0, 66, 127
2, 540, Note_on_c, 0, 66, 0
2, 540, Note_on_c, 0, 64, 127
2, 600, Note_on_c, 0, 64, 0
2, 600, Note_on_c, 0, 73, 127
2, 630, Note_on_c, 0, 73, 0
2, 660, Note_on_c, 0, 64, 127
2, 690, Note_on_c, 0, 64, 0
2, 720, Note_on_c, 0, 64, 127
2, 735, Note_on_c, 0, 64, 0
2, 735, Note_on_c, 0, 66, 127
2, 750, Note_on_c, 0, 66, 0
2, 750, Note_on_c, 0, 64, 127
2, 780, Note_on_c, 0, 64, 0
2, 780, Note_on_c, 0, 62, 127
2, 810, Note_on_c, 0, 62, 0
2, 810, Note_on_c, 0, 61, 127
2, 840, Note_on_c, 0, 61, 0
2, 840, Note_on_c, 0, 62, 127
2, 870, Note_on_c, 0, 62, 0
2, 870, Note_on_c, 0, 64, 127
2, 900, Note_on_c, 0, 64, 0
2, 900, Note_on_c, 0, 66, 127
2, 930, Note_on_c, 0, 66, 0
2, 930, Note_on_c, 0, 64, 127
2, 960, Note_on_c, 0, 64, 0
2, 960, Note_on_c, 0, 66, 127
2, 980, Control_c, 0, 7, 98
2, 1020, Note_on_c, 0, 66, 0
2, 1070, Control_c, 0, 7, 98
2, 1110, Note_on_c, 0, 69, 127
2, 1140, Note_on_c, 0, 69, 0
2, 1140, Note_on_c, 0, 68, 127
2, 1170, Note_on_c, 0, 68, 0
2, 1170, Note_on_c, 0, 69, 127
2, 1200, Note_on_c, 0, 69, 0
2, 1200, Note_on_c, 0, 71, 127
2, 1230, Note_on_c, 0, 71, 0
2, 1230, Note_on_c, 0, 73, 127
2, 1260, Note_on_c, 0, 73, 0
2, 1260, Note_on_c, 0, 71, 127
2, 1270, Control_c, 0, 7, 97
2, 1290, Note_on_c, 0, 71, 0
2, 1290, Note_on_c, 0, 68, 127
2, 1320, Note_on_c, 0, 68, 0
2, 1320, Note_on_c, 0, 69, 127
2, 1340, Control_c, 0, 7, 98
2, 1350, Note_on_c, 0, 69, 0
2, 1350, Note_on_c, 0, 71, 127
2, 1380, Note_on_c, 0, 71, 0
2, 1380, Note_on_c, 0, 69, 127
2, 1400, Control_c, 0, 7, 99
2, 1410, Note_on_c, 0, 69, 0
2, 1410, Note_on_c, 0, 66, 127
2, 1440, Note_on_c, 0, 66, 0
2, 1440, Note_on_c, 0, 68, 127
2, 1470, Note_on_c, 0, 68, 0
2, 1470, Note_on_c, 0, 69, 127
2, 1470, Control_c, 0, 7, 100
2, 1500, Note_on_c, 0, 69, 0
2, 1500, Note_on_c, 0, 68, 127
2, 1530, Note_on_c, 0, 68, 0
2, 1530, Note_on_c, 0, 66, 127
2, 1530, Control_c, 0, 7, 101
2, 1560, Note_on_c, 0, 66, 0
2, 1560, Note_on_c, 0, 65, 127
2, 1590, Note_on_c, 0, 65, 0
2, 1590, Note_on_c, 0, 68, 127
2, 1590, Control_c, 0, 7, 102
2, 1620, Note_on_c, 0, 68, 0
2, 1620, Note_on_c, 0, 66, 127
2, 1650, Note_on_c, 0, 66, 0
2, 1650, Note_on_c, 0, 65, 127
2, 1660, Control_c, 0, 7, 103
2, 1680, Note_on_c, 0, 65, 0
2, 1680, Note_on_c, 0, 73, 127
2, 1720, Control_c, 0, 7, 104
2, 1740, Note_on_c, 0, 73, 0
2, 1740, Note_on_c, 0, 66, 127
2, 1770, Note_on_c, 0, 66, 0
2, 1770, Note_on_c, 0, 65, 127
2, 1780, Control_c, 0, 7, 105
2, 1800, Note_on_c, 0, 65, 0
2, 1800, Note_on_c, 0, 66, 127
2, 1830, Note_on_c, 0, 66, 0
2, 1830, Note_on_c, 0, 69, 127
2, 1850, Control_c, 0, 7, 106
2, 1860, Note_on_c, 0, 69, 0
2, 1860, Note_on_c, 0, 68, 127
2, 1890, Note_on_c, 0, 68, 0
2, 1890, Note_on_c, 0, 71, 127
2, 1910, Control_c, 0, 7, 107
2, 1920, Note_on_c, 0, 71, 0
2, 1920, Note_on_c, 0, 69, 127
2, 1950, Note_on_c, 0, 69, 0
2, 1950, Note_on_c, 0, 71, 127
2, 1970, Control_c, 0, 7, 108
2, 1980, Note_on_c, 0, 71, 0
2, 1980, Note_on_c, 0, 73, 127
2, 2010, Note_on_c, 0, 73, 0
2, 2010, Note_on_c, 0, 74, 127
2, 2040, Note_on_c, 0, 74, 0
2, 2040, Note_on_c, 0, 68, 127
2, 2040, Control_c, 0, 7, 109
2, 2055, Note_on_c, 0, 68, 0
2, 2055, Note_on_c, 0, 69, 127
2, 2070, Note_on_c, 0, 69, 0
2, 2070, Note_on_c, 0, 68, 127
2, 2085, Note_on_c, 0, 68, 0
2, 2085, Note_on_c, 0, 69, 127
2, 2100, Note_on_c, 0, 69, 0
2, 2100, Note_on_c, 0, 68, 127
2, 2100, Control_c, 0, 7, 110
2, 2115, Note_on_c, 0, 68, 0
2, 2115, Note_on_c, 0, 69, 127
2, 2130, Note_on_c, 0, 69, 0
2, 2130, Note_on_c, 0, 66, 127
2, 2160, Note_on_c, 0, 66, 0
2, 2160, Note_on_c, 0, 66, 127
2, 2160, Control_c, 0, 7, 111
2, 2220, Note_on_c, 0, 66, 0
2, 2220, Note_on_c, 0, 78, 127
2, 2250, Note_on_c, 0, 78, 0
2, 2250, Note_on_c, 0, 77, 127
2, 2280, Note_on_c, 0, 77, 0
2, 2280, Note_on_c, 0, 78, 127
2, 2310, Note_on_c, 0, 78, 0
2, 2340, Note_on_c, 0, 73, 127
2, 2370, Note_on_c, 0, 73, 0
2, 2400, Note_on_c, 0, 74, 127
2, 2415, Note_on_c, 0, 74, 0
2, 2415, Note_on_c, 0, 76, 127
2, 2430, Note_on_c, 0, 76, 0
2, 2430, Note_on_c, 0, 74, 127
2, 2460, Note_on_c, 0, 74, 0
2, 2460, Note_on_c, 0, 73, 127
2, 2520, Note_on_c, 0, 73, 0
2, 2520, Note_on_c, 0, 78, 127
2, 2550, Note_on_c, 0, 78, 0
2, 2580, Note_on_c, 0, 73, 127
2, 2610, Note_on_c, 0, 73, 0
2, 2640, Note_on_c, 0, 73, 127
2, 2655, Note_on_c, 0, 73, 0
2, 2655, Note_on_c, 0, 74, 127
2, 2670, Note_on_c, 0, 74, 0
2, 2670, Note_on_c, 0, 73, 127
2, 2700, Note_on_c, 0, 73, 0
2, 2700, Note_on_c, 0, 71, 127
2, 2760, Note_on_c, 0, 71, 0
2, 2760, Note_on_c, 0, 80, 127
2, 2790, Note_on_c, 0, 80, 0
2, 2820, Note_on_c, 0, 71, 127
2, 2850, Note_on_c, 0, 71, 0
2, 2880, Note_on_c, 0, 71, 127
2, 2895, Note_on_c, 0, 71, 0
2, 2895, Note_on_c, 0, 73, 127
2, 2910, Note_on_c, 0, 73, 0
2, 2910, Note_on_c, 0, 71, 127
2, 2940, Note_on_c, 0, 71, 0
2, 2940, Note_on_c, 0, 69, 127
2, 2970, Note_on_c, 0, 69, 0
2, 2970, Note_on_c, 0, 68, 127
2, 3000, Note_on_c, 0, 68, 0
2, 3000, Note_on_c, 0, 69, 127
2, 3030, Note_on_c, 0, 69, 0
2, 3030, Note_on_c, 0, 71, 127
2, 3060, Note_on_c, 0, 71, 0
2, 3060, Note_on_c, 0, 69, 127
2, 3090, Note_on_c, 0, 69, 0
2, 3090, Note_on_c, 0, 65, 127
2, 3120, Note_on_c, 0, 65, 0
2, 3120, Note_on_c, 0, 66, 127
2, 3180, Note_on_c, 0, 66, 0
2, 3180, Note_on_c, 0, 78, 127
2, 3210, Note_on_c, 0, 78, 0
2, 3210, Note_on_c, 0, 77, 127
2, 3240, Note_on_c, 0, 77, 0
2, 3240, Note_on_c, 0, 78, 127
2, 3270, Note_on_c, 0, 78, 0
2, 3300, Note_on_c, 0, 73, 127
2, 3330, Note_on_c, 0, 73, 0
2, 3360, Note_on_c, 0, 74, 127
2, 3390, Note_on_c, 0, 74, 0
2, 3390, Note_on_c, 0, 76, 127
2, 3420, Note_on_c, 0, 76, 0
2, 3420, Note_on_c, 0, 74, 127
2, 3450, Note_on_c, 0, 74, 0
2, 3450, Note_on_c, 0, 71, 127
2, 3480, Note_on_c, 0, 71, 0
2, 3480, Note_on_c, 0, 76, 127
2, 3510, Note_on_c, 0, 76, 0
2, 3510, Note_on_c, 0, 71, 127
2, 3540, Note_on_c, 0, 71, 0
2, 3540, Note_on_c, 0, 78, 127
2, 3570, Note_on_c, 0, 78, 0
2, 3570, Note_on_c, 0, 71, 127
2, 3600, Note_on_c, 0, 71, 0
2, 3600, Note_on_c, 0, 79, 127
2, 3630, Note_on_c, 0, 79, 0
2, 3630, Note_on_c, 0, 81, 127
2, 3660, Note_on_c, 0, 81, 0
2, 3660, Note_on_c, 0, 79, 127
2, 3690, Note_on_c, 0, 79, 0
2, 3690, Note_on_c, 0, 76, 127
2, 3720, Note_on_c, 0, 76, 0
2, 3720, Note_on_c, 0, 81, 127
2, 3750, Note_on_c, 0, 81, 0
2, 3750, Note_on_c, 0, 76, 127
2, 3780, Note_on_c, 0, 76, 0
2, 3780, Note_on_c, 0, 83, 127
2, 3810, Note_on_c, 0, 83, 0
2, 3810, Note_on_c, 0, 74, 127
2, 3840, Note_on_c, 0, 74, 0
2, 3840, Note_on_c, 0, 73, 127
2, 3870, Note_on_c, 0, 73, 0
2, 3870, Note_on_c, 0, 74, 127
2, 3900, Note_on_c, 0, 74, 0
2, 3900, Note_on_c, 0, 73, 127
2, 3930, Note_on_c, 0, 73, 0
2, 3930, Note_on_c, 0, 69, 127
2, 3960, Note_on_c, 0, 69, 0
2, 3960, Note_on_c, 0, 74, 127
2, 3990, Note_on_c, 0, 74, 0
2, 3990, Note_on_c, 0, 69, 127
2, 4020, Note_on_c, 0, 69, 0
2, 4020, Note_on_c, 0, 76, 127
2, 4050, Note_on_c, 0, 76, 0
2, 4050, Note_on_c, 0, 69, 127
2, 4080, Note_on_c, 0, 69, 0
2, 4080, Note_on_c, 0, 78, 127
2, 4110, Note_on_c, 0, 78, 0
2, 4110, Note_on_c, 0, 79, 127
2, 4140, Note_on_c, 0, 79, 0
2, 4140, Note_on_c, 0, 78, 127
2, 4170, Note_on_c, 0, 78, 0
2, 4170, Note_on_c, 0, 74, 127
2, 4200, Note_on_c, 0, 74, 0
2, 4200, Note_on_c, 0, 79, 127
2, 4230, Note_on_c, 0, 79, 0
2, 4230, Note_on_c, 0, 74, 127
2, 4260, Note_on_c, 0, 74, 0
2, 4260, Note_on_c, 0, 81, 127
2, 4290, Note_on_c, 0, 81, 0
2, 4290, Note_on_c, 0, 74, 127
2, 4320, Note_on_c, 0, 74, 0
2, 4320, Note_on_c, 0, 83, 127
2, 4350, Note_on_c, 0, 83, 0
2, 4350, Note_on_c, 0, 84, 127
2, 4380, Note_on_c, 0, 84, 0
2, 4380, Note_on_c, 0, 83, 127
2, 4410, Note_on_c, 0, 83, 0
2, 4410, Note_on_c, 0, 76, 127
2, 4440, Note_on_c, 0, 76, 0
2, 4440, Note_on_c, 0, 81, 127
2, 4470, Note_on_c, 0, 81, 0
2, 4470, Note_on_c, 0, 83, 127
2, 4500, Note_on_c, 0, 83, 0
2, 4500, Note_on_c, 0, 81, 127
2, 4530, Note_on_c, 0, 81, 0
2, 4530, Note_on_c, 0, 74, 127
2, 4560, Note_on_c, 0, 74, 0
2, 4560, Note_on_c, 0, 79, 127
2, 4590, Note_on_c, 0, 79, 0
2, 4590, Note_on_c, 0, 81, 127
2, 4620, Note_on_c, 0, 81, 0
2, 4620, Note_on_c, 0, 79, 127
2, 4650, Note_on_c, 0, 79, 0
2, 4650, Note_on_c, 0, 73, 127
2, 4680, Note_on_c, 0, 73, 0
2, 4680, Note_on_c, 0, 78, 127
2, 4710, Note_on_c, 0, 78, 0
2, 4710, Note_on_c, 0, 79, 127
2, 4740, Note_on_c, 0, 79, 0
2, 4740, Note_on_c, 0, 78, 127
2, 4770, Note_on_c, 0, 78, 0
2, 4770, Note_on_c, 0, 74, 127
2, 4800, Note_on_c, 0, 74, 0
2, 4800, Note_on_c, 0, 76, 127
2, 4810, Control_c, 0, 7, 106
2, 4830, Note_on_c, 0, 76, 0
2, 4830, Control_c, 0, 7, 105
2, 4850, Control_c, 0, 7, 104
2, 4860, Note_on_c, 0, 67, 127
2, 4867, Note_on_c, 0, 67, 0
2, 4867, Note_on_c, 0, 69, 127
2, 4870, Control_c, 0, 7, 103
2, 4874, Note_on_c, 0, 69, 0
2, 4875, Note_on_c, 0, 67, 127
2, 4890, Note_on_c, 0, 67, 0
2, 4890, Note_on_c, 0, 66, 127
2, 4890, Control_c, 0, 7, 102
2, 4910, Control_c, 0, 7, 101
2, 4920, Note_on_c, 0, 66, 0
2, 4920, Note_on_c, 0, 67, 127
2, 4930, Control_c, 0, 7, 100
2, 4950, Note_on_c, 0, 67, 0
2, 4950, Control_c, 0, 7, 99
2, 4970, Control_c, 0, 7, 98
2, 4980, Note_on_c, 0, 76, 127
2, 4990, Control_c, 0, 7, 97
2, 5010, Note_on_c, 0, 76, 0
2, 5010, Control_c, 0, 7, 96
2, 5030, Control_c, 0, 7, 95
2, 5040, Note_on_c, 0, 66, 127
2, 5050, Control_c, 0, 7, 94
2, 5070, Note_on_c, 0, 66, 0
2, 5070, Control_c, 0, 7, 93
2, 5090, Control_c, 0, 7, 92
2, 5100, Note_on_c, 0, 74, 127
2, 5100, Control_c, 0, 7, 91
2, 5120, Control_c, 0, 7, 90
2, 5130, Note_on_c, 0, 74, 0
2, 5140, Control_c, 0, 7, 89
2, 5160, Note_on_c, 0, 64, 127
2, 5160, Control_c, 0, 7, 88
2, 5180, Control_c, 0, 7, 87
2, 5190, Note_on_c, 0, 64, 0
2, 5200, Control_c, 0, 7, 86
2, 5220, Note_on_c, 0, 73, 127
2, 5220, Control_c, 0, 7, 85
2, 5240, Control_c, 0, 7, 84
2, 5250, Note_on_c, 0, 73, 0
2, 5260, Control_c, 0, 7, 83
2, 5280, Note_on_c, 0, 74, 127
2, 5280, Control_c, 0, 7, 82
2, 5300, Control_c, 0, 7, 81
2, 5320, Control_c, 0, 7, 80
2, 5340, Note_on_c, 0, 74, 0
2, 5340, Control_c, 0, 7, 79
2, 5360, Control_c, 0, 7, 78
2, 5370, Control_c, 0, 7, 77
2, 5430, Note_on_c, 0, 66, 127
2, 5460, Note_on_c, 0, 66, 0
2, 5460, Note_on_c, 0, 64, 127
2, 5490, Note_on_c, 0, 64, 0
2, 5490, Note_on_c, 0, 66, 127
2, 5520, Note_on_c, 0, 66, 0
2, 5520, Note_on_c, 0, 67, 127
2, 5550, Note_on_c, 0, 67, 0
2, 5550, Note_on_c, 0, 69, 127
2, 5580, Note_on_c, 0, 69, 0
2, 5580, Note_on_c, 0, 67, 127
2, 5610, Note_on_c, 0, 67, 0
2, 5610, Note_on_c, 0, 64, 127
2, 5640, Note_on_c, 0, 64, 0
2, 5640, Note_on_c, 0, 66, 127
2, 5670, Note_on_c, 0, 66, 0
2, 5670, Note_on_c, 0, 67, 127
2, 5700, Note_on_c, 0, 67, 0
2, 5700, Note_on_c, 0, 66, 127
2, 5730, Note_on_c, 0, 66, 0
2, 5730, Note_on_c, 0, 62, 127
2, 5760, Note_on_c, 0, 62, 0
2, 5760, Note_on_c, 0, 64, 127
2, 5790, Note_on_c, 0, 64, 0
2, 5790, Note_on_c, 0, 66, 127
2, 5820, Note_on_c, 0, 66, 0
2, 5820, Note_on_c, 0, 64, 127
2, 5850, Note_on_c, 0, 64, 0
2, 5850, Note_on_c, 0, 62, 127
2, 5880, Note_on_c, 0, 62, 0
2, 5880, Note_on_c, 0, 61, 127
2, 5910, Note_on_c, 0, 61, 0
2, 5910, Note_on_c, 0, 64, 127
2, 5940, Note_on_c, 0, 64, 0
2, 5940, Note_on_c, 0, 62, 127
2, 5970, Note_on_c, 0, 62, 0
2, 5970, Note_on_c, 0, 61, 127
2, 6000, Note_on_c, 0, 61, 0
2, 6000, Note_on_c, 0, 62, 127
2, 6060, Note_on_c, 0, 62, 0
2, 6060, Note_on_c, 0, 69, 127
2, 6120, Note_on_c, 0, 69, 0
2, 6120, Note_on_c, 0, 74, 127
2, 6150, Note_on_c, 0, 74, 0
2, 6150, Note_on_c, 0, 73, 127
2, 6180, Note_on_c, 0, 73, 0
2, 6180, Note_on_c, 0, 71, 127
2, 6210, Note_on_c, 0, 71, 0
2, 6210, Note_on_c, 0, 74, 127
2, 6240, Note_on_c, 0, 74, 0
2, 6240, Note_on_c, 0, 73, 127
2, 6250, Control_c, 0, 7, 97
2, 6270, Note_on_c, 0, 73, 0
2, 6270, Note_on_c, 0, 71, 127
2, 6300, Note_on_c, 0, 71, 0
2, 6300, Note_on_c, 0, 69, 127
2, 6310, Control_c, 0, 7, 94
2, 6330, Note_on_c, 0, 69, 0
2, 6330, Note_on_c, 0, 68, 127
2, 6360, Note_on_c, 0, 68, 0
2, 6360, Note_on_c, 0, 69, 127
2, 6390, Note_on_c, 0, 69, 0
2, 6400, Control_c, 0, 7, 95
2, 6420, Note_on_c, 0, 64, 127
2, 6450, Note_on_c, 0, 64, 0
2, 6480, Note_on_c, 0, 66, 127
2, 6490, Control_c, 0, 7, 96
2, 6495, Note_on_c, 0, 66, 0
2, 6495, Note_on_c, 0, 68, 127
2, 6510, Note_on_c, 0, 68, 0
2, 6510, Note_on_c, 0, 66, 127
2, 6540, Note_on_c, 0, 66, 0
2, 6540, Note_on_c, 0, 64, 127
2, 6580, Control_c, 0, 7, 97
2, 6600, Note_on_c, 0, 64, 0
2, 6600, Note_on_c, 0, 69, 127
2, 6630, Note_on_c, 0, 69, 0
2, 6660, Note_on_c, 0, 64, 127
2, 6670, Control_c, 0, 7, 98
2, 6690, Note_on_c, 0, 64, 0
2, 6720, Note_on_c, 0, 64, 127
2, 6735, Note_on_c, 0, 64, 0
2, 6735, Note_on_c, 0, 66, 127
2, 6750, Note_on_c, 0, 66, 0
2, 6750, Note_on_c, 0, 64, 127
2, 6760, Control_c, 0, 7, 99
2, 6780, Note_on_c, 0, 64, 0
2, 6780, Note_on_c, 0, 62, 127
2, 6840, Note_on_c, 0, 62, 0
2, 6840, Note_on_c, 0, 71, 127
2, 6850, Control_c, 0, 7, 100
2, 6870, Note_on_c, 0, 71, 0
2, 6900, Note_on_c, 0, 62, 127
2, 6930, Note_on_c, 0, 62, 0
2, 6940, Control_c, 0, 7, 101
2, 6960, Note_on_c, 0, 62, 127
2, 6975, Note_on_c, 0, 62, 0
2, 6975, Note_on_c, 0, 64, 127
2, 6990, Note_on_c, 0, 64, 0
2, 6990, Note_on_c, 0, 62, 127
2, 7020, Note_on_c, 0, 62, 0
2, 7020, Note_on_c, 0, 61, 127
2, 7030, Control_c, 0, 7, 102
2, 7050, Note_on_c, 0, 61, 0
2, 7050, Note_on_c, 0, 59, 127
2, 7080, Note_on_c, 0, 59, 0
2, 7080, Note_on_c, 0, 61, 127
2, 7110, Note_on_c, 0, 61, 0
2, 7110, Note_on_c, 0, 63, 127
2, 7120, Control_c, 0, 7, 103
2, 7140, Note_on_c, 0, 63, 0
2, 7140, Note_on_c, 0, 64, 127
2, 7170, Note_on_c, 0, 64, 0
2, 7170, Note_on_c, 0, 63, 127
2, 7200, Note_on_c, 0, 63, 0
2, 7200, Note_on_c, 0, 69, 127
2, 7210, Control_c, 0, 7, 104
2, 7230, Note_on_c, 0, 69, 0
2, 7230, Note_on_c, 0, 66, 127
2, 7260, Note_on_c, 0, 66, 0
2, 7260, Note_on_c, 0, 67, 127
2, 7290, Note_on_c, 0, 67, 0
2, 7290, Note_on_c, 0, 69, 127
2, 7300, Control_c, 0, 7, 105
2, 7320, Note_on_c, 0, 69, 0
2, 7320, Note_on_c, 0, 68, 127
2, 7350, Note_on_c, 0, 68, 0
2, 7350, Note_on_c, 0, 70, 127
2, 7380, Note_on_c, 0, 70, 0
2, 7380, Note_on_c, 0, 71, 127
2, 7390, Control_c, 0, 7, 106
2, 7410, Note_on_c, 0, 71, 0
2, 7410, Note_on_c, 0, 70, 127
2, 7440, Note_on_c, 0, 70, 0
2, 7440, Note_on_c, 0, 76, 127
2, 7470, Note_on_c, 0, 76, 0
2, 7470, Note_on_c, 0, 73, 127
2, 7480, Control_c, 0, 7, 107
2, 7500, Note_on_c, 0, 73, 0
2, 7500, Note_on_c, 0, 74, 127
2, 7530, Note_on_c, 0, 74, 0
2, 7530, Note_on_c, 0, 76, 127
2, 7560, Note_on_c, 0, 76, 0
2, 7560, Note_on_c, 0, 75, 127
2, 7570, Control_c, 0, 7, 108
2, 7590, Note_on_c, 0, 75, 0
2, 7590, Note_on_c, 0, 77, 127
2, 7620, Note_on_c, 0, 77, 0
2, 7620, Note_on_c, 0, 78, 127
2, 7650, Note_on_c, 0, 78, 0
2, 7650, Note_on_c, 0, 77, 127
2, 7660, Control_c, 0, 7, 109
2, 7680, Note_on_c, 0, 77, 0
2, 7680, Note_on_c, 0, 83, 127
2, 7710, Note_on_c, 0, 83, 0
2, 7710, Note_on_c, 0, 80, 127
2, 7740, Note_on_c, 0, 80, 0
2, 7740, Note_on_c, 0, 81, 127
2, 7740, Control_c, 0, 7, 110
2, 7770, Note_on_c, 0, 81, 0
2, 7770, Note_on_c, 0, 71, 127
2, 7800, Note_on_c, 0, 71, 0
2, 7800, Note_on_c, 0, 73, 127
2, 7830, Note_on_c, 0, 73, 0
2, 7830, Note_on_c, 0, 75, 127
2, 7860, Note_on_c, 0, 75, 0
2, 7860, Note_on_c, 0, 76, 127
2, 7890, Note_on_c, 0, 76, 0
2, 7890, Note_on_c, 0, 75, 127
2, 7920, Note_on_c, 0, 75, 0
2, 7920, Note_on_c, 0, 81, 127
2, 7950, Note_on_c, 0, 81, 0
2, 7950, Note_on_c, 0, 78, 127
2, 7980, Note_on_c, 0, 78, 0
2, 7980, Note_on_c, 0, 79, 127
2, 8010, Note_on_c, 0, 79, 0
2, 8010, Note_on_c, 0, 69, 127
2, 8040, Note_on_c, 0, 69, 0
2, 8040, Note_on_c, 0, 71, 127
2, 8070, Note_on_c, 0, 71, 0
2, 8070, Note_on_c, 0, 73, 127
2, 8100, Note_on_c, 0, 73, 0
2, 8100, Note_on_c, 0, 74, 127
2, 8130, Note_on_c, 0, 74, 0
2, 8130, Note_on_c, 0, 73, 127
2, 8160, Note_on_c, 0, 73, 0
2, 8160, Note_on_c, 0, 79, 127
2, 8190, Note_on_c, 0, 79, 0
2, 8190, Note_on_c, 0, 76, 127
2, 8220, Note_on_c, 0, 76, 0
2, 8220, Note_on_c, 0, 78, 127
2, 8250, Note_on_c, 0, 78, 0
2, 8250, Note_on_c, 0, 73, 127
2, 8280, Note_on_c, 0, 73, 0
2, 8280, Note_on_c, 0, 74, 127
2, 8310, Note_on_c, 0, 74, 0
2, 8310, Note_on_c, 0, 76, 127
2, 8340, Note_on_c, 0, 76, 0
2, 8340, Note_on_c, 0, 78, 127
2, 8370, Note_on_c, 0, 78, 0
2, 8370, Note_on_c, 0, 74, 127
2, 8400, Note_on_c, 0, 74, 0
2, 8400, Note_on_c, 0, 76, 127
2, 8430, Note_on_c, 0, 76, 0
2, 8430, Note_on_c, 0, 78, 127
2, 8460, Note_on_c, 0, 78, 0
2, 8460, Note_on_c, 0, 76, 127
2, 8490, Note_on_c, 0, 76, 0
2, 8490, Note_on_c, 0, 73, 127
2, 8520, Note_on_c, 0, 73, 0
2, 8520, Note_on_c, 0, 74, 127
2, 8550, Note_on_c, 0, 74, 0
2, 8550, Note_on_c, 0, 76, 127
2, 8580, Note_on_c, 0, 76, 0
2, 8580, Note_on_c, 0, 74, 127
2, 8610, Note_on_c, 0, 74, 0
2, 8610, Note_on_c, 0, 71, 127
2, 8640, Note_on_c, 0, 71, 0
2, 8640, Note_on_c, 0, 73, 127
2, 8640, Control_c, 0, 7, 110
2, 8670, Note_on_c, 0, 73, 0
2, 8670, Note_on_c, 0, 74, 127
2, 8680, Control_c, 0, 7, 109
2, 8700, Note_on_c, 0, 74, 0
2, 8700, Note_on_c, 0, 73, 127
2, 8720, Control_c, 0, 7, 108
2, 8730, Note_on_c, 0, 73, 0
2, 8730, Note_on_c, 0, 71, 127
2, 8760, Note_on_c, 0, 71, 0
2, 8760, Note_on_c, 0, 70, 127
2, 8760, Control_c, 0, 7, 107
2, 8790, Note_on_c, 0, 70, 0
2, 8790, Note_on_c, 0, 71, 127
2, 8800, Control_c, 0, 7, 106
2, 8820, Note_on_c, 0, 71, 0
2, 8820, Note_on_c, 0, 73, 127
2, 8840, Control_c, 0, 7, 105
2, 8850, Note_on_c, 0, 73, 0
2, 8850, Note_on_c, 0, 70, 127
2, 8880, Note_on_c, 0, 70, 0
2, 8880, Note_on_c, 0, 66, 127
2, 8880, Control_c, 0, 7, 104
2, 8920, Control_c, 0, 7, 103
2, 8940, Note_on_c, 0, 66, 0
2, 8940, Note_on_c, 0, 71, 127
2, 8960, Control_c, 0, 7, 102
2, 8970, Note_on_c, 0, 71, 0
2, 8970, Note_on_c, 0, 70, 127
2, 9000, Note_on_c, 0, 70, 0
2, 9000, Note_on_c, 0, 71, 127
2, 9000, Control_c, 0, 7, 101
2, 9030, Note_on_c, 0, 71, 0
2, 9040, Control_c, 0, 7, 100
2, 9060, Note_on_c, 0, 66, 127
2, 9080, Control_c, 0, 7, 99
2, 9090, Note_on_c, 0, 66, 0
2, 9120, Note_on_c, 0, 67, 127
2, 9120, Control_c, 0, 7, 98
2, 9135, Note_on_c, 0, 67, 0
2, 9135, Note_on_c, 0, 69, 127
2, 9150, Note_on_c, 0, 69, 0
2, 9150, Note_on_c, 0, 67, 127
2, 9160, Control_c, 0, 7, 97
2, 9180, Note_on_c, 0, 67, 0
2, 9180, Note_on_c, 0, 66, 127
2, 9200, Control_c, 0, 7, 96
2, 9240, Note_on_c, 0, 66, 0
2, 9240, Note_on_c, 0, 71, 127
2, 9240, Control_c, 0, 7, 95
2, 9270, Note_on_c, 0, 71, 0
2, 9280, Control_c, 0, 7, 94
2, 9300, Note_on_c, 0, 66, 127
2, 9320, Control_c, 0, 7, 93
2, 9330, Note_on_c, 0, 66, 0
2, 9360, Note_on_c, 0, 66, 127
2, 9360, Control_c, 0, 7, 92
2, 9375, Note_on_c, 0, 66, 0
2, 9375, Note_on_c, 0, 67, 127
2, 9390, Note_on_c, 0, 67, 0
2, 9390, Note_on_c, 0, 66, 127
2, 9400, Control_c, 0, 7, 91
2, 9420, Note_on_c, 0, 66, 0
2, 9420, Note_on_c, 0, 64, 127
2, 9440, Control_c, 0, 7, 90
2, 9480, Note_on_c, 0, 64, 0
2, 9480, Note_on_c, 0, 73, 127
2, 9480, Control_c, 0, 7, 89
2, 9510, Note_on_c, 0, 73, 0
2, 9520, Control_c, 0, 7, 88
2, 9540, Note_on_c, 0, 64, 127
2, 9560, Control_c, 0, 7, 87
2, 9570, Note_on_c, 0, 64, 0
2, 9600, Note_on_c, 0, 64, 127
2, 9600, Control_c, 0, 7, 86
2, 9615, Note_on_c, 0, 64, 0
2, 9615, Note_on_c, 0, 66, 127
2, 9630, Note_on_c, 0, 66, 0
2, 9630, Note_on_c, 0, 64, 127
2, 9640, Control_c, 0, 7, 85
2, 9660, Note_on_c, 0, 64, 0
2, 9660, Note_on_c, 0, 62, 127
2, 9680, Control_c, 0, 7, 84
2, 9690, Note_on_c, 0, 62, 0
2, 9690, Note_on_c, 0, 61, 127
2, 9720, Note_on_c, 0, 61, 0
2, 9720, Note_on_c, 0, 62, 127
2, 9720, Control_c, 0, 7, 83
2, 9750, Note_on_c, 0, 62, 0
2, 9750, Note_on_c, 0, 66, 127
2, 9760, Control_c, 0, 7, 82
2, 9780, Note_on_c, 0, 66, 0
2, 9780, Note_on_c, 0, 64, 127
2, 9800, Control_c, 0, 7, 81
2, 9810, Note_on_c, 0, 64, 0
2, 9810, Note_on_c, 0, 67, 127
2, 9840, Note_on_c, 0, 67, 0
2, 9840, Note_on_c, 0, 66, 127
2, 9840, Control_c, 0, 7, 80
2, 9880, Control_c, 0, 7, 79
2, 9920, Control_c, 0, 7, 78
2, 9930, Note_on_c, 0, 66, 0
2, 9930, Note_on_c, 0, 74, 127
2, 9960, Note_on_c, 0, 74, 0
2, 9960, Note_on_c, 0, 70, 127
2, 9960, Control_c, 0, 7, 77
2, 9975, Note_on_c, 0, 70, 0
2, 9975, Note_on_c, 0, 71, 127
2, 9990, Note_on_c, 0, 71, 0
2, 9990, Note_on_c, 0, 70, 127
2, 10000, Control_c, 0, 7, 76
2, 10005, Note_on_c, 0, 70, 0
2, 10005, Note_on_c, 0, 71, 127
2, 10020, Note_on_c, 0, 71, 0
2, 10020, Note_on_c, 0, 70, 127
2, 10035, Note_on_c, 0, 70, 0
2, 10035, Note_on_c, 0, 71, 127
2, 10040, Control_c, 0, 7, 75
2, 10050, Note_on_c, 0, 71, 0
2, 10050, Note_on_c, 0, 71, 127
2, 10080, Note_on_c, 0, 71, 0
2, 10080, Note_on_c, 0, 71, 127
2, 10560, Note_on_c, 0, 71, 0
2, 10560, End_track
3, 0, Start_track
3, 0, Title_t, "Track 4"
3, 0, Program_c, 2, 0
3, 0, Control_c, 2, 7, 105
3, 0, Control_c, 2, 10, 95
3, 0, Control_c, 2, 7, 53
3, 0, Note_on_c, 2, 47, 127
3, 40, Control_c, 2, 7, 68
3, 60, Note_on_c, 2, 47, 0
3, 120, Note_on_c, 2, 50, 127
3, 180, Note_on_c, 2, 50, 0
3, 180, Control_c, 2, 7, 67
3, 240, Note_on_c, 2, 52, 127
3, 300, Note_on_c, 2, 52, 0
3, 360, Note_on_c, 2, 50, 127
3, 420, Note_on_c, 2, 50, 0
3, 480, Note_on_c, 2, 49, 127
3, 540, Note_on_c, 2, 49, 0
3, 600, Note_on_c, 2, 46, 127
3, 660, Note_on_c, 2, 46, 0
3, 720, Note_on_c, 2, 47, 127
3, 780, Note_on_c, 2, 47, 0
3, 840, Note_on_c, 2, 43, 127
3, 900, Note_on_c, 2, 43, 0
3, 950, Control_c, 2, 7, 96
3, 960, Note_on_c, 2, 42, 127
3, 1020, Note_on_c, 2, 42, 0
3, 1020, Note_on_c, 2, 54, 127
3, 1050, Note_on_c, 2, 54, 0
3, 1050, Note_on_c, 2, 53, 127
3, 1050, Control_c, 2, 7, 97
3, 1080, Note_on_c, 2, 53, 0
3, 1080, Note_on_c, 2, 54, 127
3, 1110, Note_on_c, 2, 54, 0
3, 1140, Note_on_c, 2, 49, 127
3, 1140, Control_c, 2, 7, 98
3, 1170, Note_on_c, 2, 49, 0
3, 1200, Note_on_c, 2, 50, 127
3, 1215, Note_on_c, 2, 50, 0
3, 1215, Note_on_c, 2, 52, 127
3, 1230, Note_on_c, 2, 52, 0
3, 1230, Note_on_c, 2, 50, 127
3, 1240, Control_c, 2, 7, 99
3, 1260, Note_on_c, 2, 50, 0
3, 1260, Note_on_c, 2, 49, 127
3, 1320, Note_on_c, 2, 49, 0
3, 1320, Note_on_c, 2, 54, 127
3, 1330, Control_c, 2, 7, 100
3, 1350, Note_on_c, 2, 54, 0
3, 1380, Note_on_c, 2, 49, 127
3, 1410, Note_on_c, 2, 49, 0
3, 1430, Control_c, 2, 7, 101
3, 1440, Note_on_c, 2, 49, 127
3, 1455, Note_on_c, 2, 49, 0
3, 1455, Note_on_c, 2, 50, 127
3, 1470, Note_on_c, 2, 50, 0
3, 1470, Note_on_c, 2, 49, 127
3, 1500, Note_on_c, 2, 49, 0
3, 1500, Note_on_c, 2, 47, 127
3, 1520, Control_c, 2, 7, 102
3, 1560, Note_on_c, 2, 47, 0
3, 1560, Note_on_c, 2, 56, 127
3, 1590, Note_on_c, 2, 56, 0
3, 1620, Note_on_c, 2, 47, 127
3, 1620, Control_c, 2, 7, 103
3, 1650, Note_on_c, 2, 47, 0
3, 1680, Note_on_c, 2, 47, 127
3, 1695, Note_on_c, 2, 47, 0
3, 1695, Note_on_c, 2, 49, 127
3, 1710, Note_on_c, 2, 49, 0
3, 1710, Note_on_c, 2, 47, 127
3, 1710, Control_c, 2, 7, 104
3, 1740, Note_on_c, 2, 47, 0
3, 1740, Note_on_c, 2, 45, 127
3, 1770, Note_on_c, 2, 45, 0
3, 1770, Note_on_c, 2, 44, 127
3, 1800, Note_on_c, 2, 44, 0
3, 1800, Note_on_c, 2, 45, 127
3, 1810, Control_c, 2, 7, 105
3, 1860, Note_on_c, 2, 45, 0
3, 1860, Note_on_c, 2, 47, 127
3, 1900, Control_c, 2, 7, 106
3, 1920, Note_on_c, 2, 47, 0
3, 1920, Note_on_c, 2, 49, 127
3, 1980, Note_on_c, 2, 49, 0
3, 1980, Note_on_c, 2, 47, 127
3, 2000, Control_c, 2, 7, 107
3, 2040, Note_on_c, 2, 47, 0
3, 2040, Note_on_c, 2, 49, 127
3, 2070, Note_on_c, 2, 49, 0
3, 2090, Control_c, 2, 7, 108
3, 2100, Note_on_c, 2, 37, 127
3, 2160, Note_on_c, 2, 37, 0
3, 2160, Note_on_c, 2, 42, 127
3, 2180, Control_c, 2, 7, 109
3, 2250, Note_on_c, 2, 42, 0
3, 2250, Note_on_c, 2, 44, 127
3, 2280, Note_on_c, 2, 44, 0
3, 2280, Note_on_c, 2, 45, 127
3, 2310, Note_on_c, 2, 45, 0
3, 2310, Note_on_c, 2, 47, 127
3, 2340, Note_on_c, 2, 47, 0
3, 2340, Note_on_c, 2, 44, 127
3, 2370, Note_on_c, 2, 44, 0
3, 2370, Note_on_c, 2, 45, 127
3, 2400, Note_on_c, 2, 45, 0
3, 2400, Note_on_c, 2, 47, 127
3, 2430, Note_on_c, 2, 47, 0
3, 2430, Note_on_c, 2, 49, 127
3, 2460, Note_on_c, 2, 49, 0
3, 2460, Note_on_c, 2, 47, 127
3, 2490, Note_on_c, 2, 47, 0
3, 2490, Note_on_c, 2, 44, 127
3, 2520, Note_on_c, 2, 44, 0
3, 2520, Note_on_c, 2, 45, 127
3, 2550, Note_on_c, 2, 45, 0
3, 2550, Note_on_c, 2, 47, 127
3, 2580, Note_on_c, 2, 47, 0
3, 2580, Note_on_c, 2, 45, 127
3, 2610, Note_on_c, 2, 45, 0
3, 2610, Note_on_c, 2, 42, 127
3, 2640, Note_on_c, 2, 42, 0
3, 2640, Note_on_c, 2, 44, 127
3, 2670, Note_on_c, 2, 44, 0
3, 2670, Note_on_c, 2, 45, 127
3, 2700, Note_on_c, 2, 45, 0
3, 2700, Note_on_c, 2, 44, 127
3, 2730, Note_on_c, 2, 44, 0
3, 2730, Note_on_c, 2, 42, 127
3, 2760, Note_on_c, 2, 42, 0
3, 2760, Note_on_c, 2, 41, 127
3, 2790, Note_on_c, 2, 41, 0
3, 2790, Note_on_c, 2, 44, 127
3, 2820, Note_on_c, 2, 44, 0
3, 2820, Note_on_c, 2, 42, 127
3, 2850, Note_on_c, 2, 42, 0
3, 2850, Note_on_c, 2, 41, 127
3, 2880, Note_on_c, 2, 41, 0
3, 2880, Note_on_c, 2, 42, 127
3, 2940, Note_on_c, 2, 42, 0
3, 2940, Note_on_c, 2, 54, 127
3, 2970, Note_on_c, 2, 54, 0
3, 2970, Note_on_c, 2, 53, 127
3, 3000, Note_on_c, 2, 53, 0
3, 3000, Note_on_c, 2, 54, 127
3, 3030, Note_on_c, 2, 54, 0
3, 3060, Note_on_c, 2, 49, 127
3, 3090, Note_on_c, 2, 49, 0
3, 3120, Note_on_c, 2, 50, 127
3, 3150, Note_on_c, 2, 50, 0
3, 3180, Note_on_c, 2, 50, 127
3, 3210, Note_on_c, 2, 50, 0
3, 3210, Note_on_c, 2, 49, 127
3, 3240, Note_on_c, 2, 49, 0
3, 3240, Note_on_c, 2, 50, 127
3, 3270, Note_on_c, 2, 50, 0
3, 3270, Note_on_c, 2, 52, 127
3, 3300, Note_on_c, 2, 52, 0
3, 3300, Note_on_c, 2, 50, 127
3, 3330, Note_on_c, 2, 50, 0
3, 3330, Note_on_c, 2, 46, 127
3, 3360, Note_on_c, 2, 46, 0
3, 3360, Note_on_c, 2, 47, 127
3, 3420, Note_on_c, 2, 47, 0
3, 3420, Note_on_c, 2, 57, 127
3, 3480, Note_on_c, 2, 57, 0
3, 3480, Note_on_c, 2, 55, 127
3, 3540, Note_on_c, 2, 55, 0
3, 3540, Note_on_c, 2, 54, 127
3, 3600, Note_on_c, 2, 54, 0
3, 3600, Note_on_c, 2, 52, 127
3, 3660, Note_on_c, 2, 52, 0
3, 3660, Note_on_c, 2, 40, 127
3, 3720, Note_on_c, 2, 40, 0
3, 3720, Note_on_c, 2, 42, 127
3, 3780, Note_on_c, 2, 42, 0
3, 3780, Note_on_c, 2, 43, 127
3, 3840, Note_on_c, 2, 43, 0
3, 3840, Note_on_c, 2, 45, 127
3, 3900, Note_on_c, 2, 45, 0
3, 3900, Note_on_c, 2, 55, 127
3, 3960, Note_on_c, 2, 55, 0
3, 3960, Note_on_c, 2, 54, 127
3, 4020, Note_on_c, 2, 54, 0
3, 4020, Note_on_c, 2, 52, 127
3, 4080, Note_on_c, 2, 52, 0
3, 4080, Note_on_c, 2, 50, 127
3, 4140, Note_on_c, 2, 50, 0
3, 4140, Note_on_c, 2, 38, 127
3, 4200, Note_on_c, 2, 38, 0
3, 4200, Note_on_c, 2, 40, 127
3, 4260, Note_on_c, 2, 40, 0
3, 4260, Note_on_c, 2, 42, 127
3, 4320, Note_on_c, 2, 42, 0
3, 4320, Note_on_c, 2, 43, 127
3, 4380, Note_on_c, 2, 43, 0
3, 4380, Note_on_c, 2, 55, 127
3, 4440, Note_on_c, 2, 55, 0
3, 4440, Note_on_c, 2, 54, 127
3, 4500, Note_on_c, 2, 54, 0
3, 4500, Note_on_c, 2, 59, 127
3, 4560, Note_on_c, 2, 59, 0
3, 4560, Note_on_c, 2, 52, 127
3, 4620, Note_on_c, 2, 52, 0
3, 4620, Note_on_c, 2, 57, 127
3, 4680, Note_on_c, 2, 57, 0
3, 4680, Note_on_c, 2, 50, 127
3, 4740, Note_on_c, 2, 50, 0
3, 4740, Note_on_c, 2, 50, 127
3, 4790, Control_c, 2, 7, 109
3, 4810, Control_c, 2, 7, 108
3, 4820, Control_c, 2, 7, 107
3, 4830, Note_on_c, 2, 50, 0
3, 4830, Note_on_c, 2, 52, 127
3, 4830, Control_c, 2, 7, 106
3, 4840, Control_c, 2, 7, 105
3, 4860, Note_on_c, 2, 52, 0
3, 4860, Note_on_c, 2, 50, 127
3, 4860, Control_c, 2, 7, 104
3, 4870, Control_c, 2, 7, 103
3, 4880, Control_c, 2, 7, 102
3, 4890, Note_on_c, 2, 50, 0
3, 4890, Note_on_c, 2, 47, 127
3, 4890, Control_c, 2, 7, 101
3, 4910, Control_c, 2, 7, 100
3, 4920, Note_on_c, 2, 47, 0
3, 4920, Note_on_c, 2, 49, 127
3, 4920, Control_c, 2, 7, 99
3, 4930, Control_c, 2, 7, 98
3, 4940, Control_c, 2, 7, 97
3, 4950, Note_on_c, 2, 49, 0
3, 4950, Note_on_c, 2, 50, 127
3, 4960, Control_c, 2, 7, 96
3, 4970, Control_c, 2, 7, 95
3, 4980, Note_on_c, 2, 50, 0
3, 4980, Note_on_c, 2, 49, 127
3, 4980, Control_c, 2, 7, 94
3, 4990, Control_c, 2, 7, 93
3, 5010, Note_on_c, 2, 49, 0
3, 5010, Note_on_c, 2, 45, 127
3, 5010, Control_c, 2, 7, 92
3, 5020, Control_c, 2, 7, 91
3, 5030, Control_c, 2, 7, 90
3, 5040, Note_on_c, 2, 45, 0
3, 5040, Note_on_c, 2, 50, 127
3, 5040, Control_c, 2, 7, 89
3, 5050, Control_c, 2, 7, 88
3, 5070, Note_on_c, 2, 50, 0
3, 5070, Note_on_c, 2, 49, 127
3, 5070, Control_c, 2, 7, 87
3, 5080, Control_c, 2, 7, 86
3, 5090, Control_c, 2, 7, 85
3, 5100, Note_on_c, 2, 49, 0
3, 5100, Note_on_c, 2, 47, 127
3, 5100, Control_c, 2, 7, 84
3, 5120, Control_c, 2, 7, 83
3, 5130, Note_on_c, 2, 47, 0
3, 5130, Note_on_c, 2, 45, 127
3, 5130, Control_c, 2, 7, 82
3, 5140, Control_c, 2, 7, 81
3, 5150, Control_c, 2, 7, 80
3, 5160, Note_on_c, 2, 45, 0
3, 5160, Note_on_c, 2, 43, 127
3, 5170, Control_c, 2, 7, 79
3, 5180, Control_c, 2, 7, 78
3, 5190, Note_on_c, 2, 43, 0
3, 5190, Note_on_c, 2, 42, 127
3, 5190, Control_c, 2, 7, 77
3, 5200, Control_c, 2, 7, 76
3, 5220, Note_on_c, 2, 42, 0
3, 5220, Note_on_c, 2, 43, 127
3, 5220, Control_c, 2, 7, 75
3, 5230, Control_c, 2, 7, 74
3, 5240, Control_c, 2, 7, 73
3, 5250, Note_on_c, 2, 43, 0
3, 5250, Note_on_c, 2, 45, 127
3, 5250, Control_c, 2, 7, 72
3, 5270, Control_c, 2, 7, 71
3, 5280, Note_on_c, 2, 45, 0
3, 5280, Note_on_c, 2, 38, 127
3, 5280, Control_c, 2, 7, 70
3, 5290, Control_c, 2, 7, 69
3, 5300, Control_c, 2, 7, 68
3, 5310, Control_c, 2, 7, 67
3, 5340, Note_on_c, 2, 38, 0
3, 5340, Note_on_c, 2, 50, 127
3, 5370, Note_on_c, 2, 50, 0
3, 5370, Note_on_c, 2, 49, 127
3, 5400, Note_on_c, 2, 49, 0
3, 5400, Note_on_c, 2, 50, 127
3, 5430, Note_on_c, 2, 50, 0
3, 5460, Note_on_c, 2, 45, 127
3, 5490, Note_on_c, 2, 45, 0
3, 5520, Note_on_c, 2, 47, 127
3, 5535, Note_on_c, 2, 47, 0
3, 5535, Note_on_c, 2, 49, 127
3, 5550, Note_on_c, 2, 49, 0
3, 5550, Note_on_c, 2, 47, 127
3, 5580, Note_on_c, 2, 47, 0
3, 5580, Note_on_c, 2, 45, 127
3, 5640, Note_on_c, 2, 45, 0
3, 5640, Note_on_c, 2, 50, 127
3, 5670, Note_on_c, 2, 50, 0
3, 5700, Note_on_c, 2, 45, 127
3, 5730, Note_on_c, 2, 45, 0
3, 5760, Note_on_c, 2, 45, 127
3, 5775, Note_on_c, 2, 45, 0
3, 5775, Note_on_c, 2, 47, 127
3, 5790, Note_on_c, 2, 47, 0
3, 5790, Note_on_c, 2, 45, 127
3, 5820, Note_on_c, 2, 45, 0
3, 5820, Note_on_c, 2, 43, 127
3, 5880, Note_on_c, 2, 43, 0
3, 5880, Note_on_c, 2, 52, 127
3, 5910, Note_on_c, 2, 52, 0
3, 5940, Note_on_c, 2, 43, 127
3, 6000, Note_on_c, 2, 43, 0
3, 6000, Note_on_c, 2, 43, 127
3, 6015, Note_on_c, 2, 43, 0
3, 6015, Note_on_c, 2, 45, 127
3, 6030, Note_on_c, 2, 45, 0
3, 6030, Note_on_c, 2, 43, 127
3, 6060, Note_on_c, 2, 43, 0
3, 6060, Note_on_c, 2, 42, 127
3, 6090, Note_on_c, 2, 42, 0
3, 6090, Note_on_c, 2, 40, 127
3, 6120, Note_on_c, 2, 40, 0
3, 6120, Note_on_c, 2, 42, 127
3, 6150, Note_on_c, 2, 42, 0
3, 6150, Note_on_c, 2, 44, 127
3, 6180, Note_on_c, 2, 44, 0
3, 6180, Note_on_c, 2, 45, 127
3, 6210, Note_on_c, 2, 45, 0
3, 6210, Note_on_c, 2, 44, 127
3, 6230, Control_c, 2, 7, 96
3, 6240, Note_on_c, 2, 44, 0
3, 6240, Note_on_c, 2, 45, 127
3, 6300, Note_on_c, 2, 45, 0
3, 6300, Note_on_c, 2, 52, 127
3, 6350, Control_c, 2, 7, 97
3, 6360, Note_on_c, 2, 52, 0
3, 6360, Note_on_c, 2, 50, 127
3, 6390, Note_on_c, 2, 50, 0
3, 6390, Note_on_c, 2, 49, 127
3, 6420, Note_on_c, 2, 49, 0
3, 6420, Note_on_c, 2, 47, 127
3, 6450, Note_on_c, 2, 47, 0
3, 6450, Note_on_c, 2, 45, 127
3, 6460, Control_c, 2, 7, 98
3, 6480, Note_on_c, 2, 45, 0
3, 6480, Note_on_c, 2, 50, 127
3, 6510, Note_on_c, 2, 50, 0
3, 6510, Note_on_c, 2, 52, 127
3, 6540, Note_on_c, 2, 52, 0
3, 6540, Note_on_c, 2, 50, 127
3, 6570, Note_on_c, 2, 50, 0
3, 6570, Note_on_c, 2, 47, 127
3, 6570, Control_c, 2, 7, 99
3, 6600, Note_on_c, 2, 47, 0
3, 6600, Note_on_c, 2, 49, 127
3, 6630, Note_on_c, 2, 49, 0
3, 6630, Note_on_c, 2, 50, 127
3, 6660, Note_on_c, 2, 50, 0
3, 6660, Note_on_c, 2, 49, 127
3, 6690, Note_on_c, 2, 49, 0
3, 6690, Note_on_c, 2, 45, 127
3, 6690, Control_c, 2, 7, 100
3, 6720, Note_on_c, 2, 45, 0
3, 6720, Note_on_c, 2, 47, 127
3, 6750, Note_on_c, 2, 47, 0
3, 6750, Note_on_c, 2, 49, 127
3, 6780, Note_on_c, 2, 49, 0
3, 6780, Note_on_c, 2, 47, 127
3, 6800, Control_c, 2, 7, 101
3, 6810, Note_on_c, 2, 47, 0
3, 6810, Note_on_c, 2, 45, 127
3, 6840, Note_on_c, 2, 45, 0
3, 6840, Note_on_c, 2, 44, 127
3, 6870, Note_on_c, 2, 44, 0
3, 6870, Note_on_c, 2, 47, 127
3, 6900, Note_on_c, 2, 47, 0
3, 6900, Note_on_c, 2, 45, 127
3, 6910, Control_c, 2, 7, 102
3, 6930, Note_on_c, 2, 45, 0
3, 6930, Note_on_c, 2, 44, 127
3, 6960, Note_on_c, 2, 44, 0
3, 6960, Note_on_c, 2, 45, 127
3, 7020, Note_on_c, 2, 45, 0
3, 7020, Note_on_c, 2, 45, 127
3, 7030, Control_c, 2, 7, 103
3, 7080, Note_on_c, 2, 45, 0
3, 7080, Note_on_c, 2, 43, 127
3, 7140, Note_on_c, 2, 43, 0
3, 7140, Note_on_c, 2, 42, 127
3, 7140, Control_c, 2, 7, 104
3, 7200, Note_on_c, 2, 42, 0
3, 7200, Note_on_c, 2, 40, 127
3, 7250, Control_c, 2, 7, 105
3, 7260, Note_on_c, 2, 40, 0
3, 7260, Note_on_c, 2, 52, 127
3, 7320, Note_on_c, 2, 52, 0
3, 7320, Note_on_c, 2, 50, 127
3, 7370, Control_c, 2, 7, 106
3, 7380, Note_on_c, 2, 50, 0
3, 7380, Note_on_c, 2, 49, 127
3, 7440, Note_on_c, 2, 49, 0
3, 7440, Note_on_c, 2, 47, 127
3, 7480, Control_c, 2, 7, 107
3, 7500, Note_on_c, 2, 47, 0
3, 7500, Note_on_c, 2, 47, 127
3, 7560, Note_on_c, 2, 47, 0
3, 7560, Note_on_c, 2, 45, 127
3, 7590, Control_c, 2, 7, 108
3, 7620, Note_on_c, 2, 45, 0
3, 7620, Note_on_c, 2, 44, 127
3, 7680, Note_on_c, 2, 44, 0
3, 7680, Note_on_c, 2, 42, 127
3, 7700, Control_c, 2, 7, 109
3, 7740, Note_on_c, 2, 42, 0
3, 7740, Note_on_c, 2, 54, 127
3, 7770, Note_on_c, 2, 54, 0
3, 7770, Note_on_c, 2, 55, 127
3, 7800, Note_on_c, 2, 55, 0
3, 7800, Note_on_c, 2, 57, 127
3, 7860, Note_on_c, 2, 57, 0
3, 7860, Note_on_c, 2, 59, 127
3, 7920, Note_on_c, 2, 59, 0
3, 7920, Note_on_c, 2, 52, 127
3, 7980, Note_on_c, 2, 52, 0
3, 7980, Note_on_c, 2, 40, 127
3, 8010, Note_on_c, 2, 40, 0
3, 8010, Note_on_c, 2, 42, 127
3, 8040, Note_on_c, 2, 42, 0
3, 8040, Note_on_c, 2, 43, 127
3, 8100, Note_on_c, 2, 43, 0
3, 8100, Note_on_c, 2, 45, 127
3, 8160, Note_on_c, 2, 45, 0
3, 8160, Note_on_c, 2, 38, 127
3, 8220, Note_on_c, 2, 38, 0
3, 8220, Note_on_c, 2, 59, 127
3, 8250, Note_on_c, 2, 59, 0
3, 8250, Note_on_c, 2, 58, 127
3, 8280, Note_on_c, 2, 58, 0
3, 8280, Note_on_c, 2, 59, 127
3, 8310, Note_on_c, 2, 59, 0
3, 8340, Note_on_c, 2, 54, 127
3, 8370, Note_on_c, 2, 54, 0
3, 8400, Note_on_c, 2, 55, 127
3, 8415, Note_on_c, 2, 55, 0
3, 8415, Note_on_c, 2, 58, 127
3, 8430, Note_on_c, 2, 58, 0
3, 8430, Note_on_c, 2, 55, 127
3, 8460, Note_on_c, 2, 55, 0
3, 8460, Note_on_c, 2, 54, 127
3, 8520, Note_on_c, 2, 54, 0
3, 8520, Note_on_c, 2, 59, 127
3, 8550, Note_on_c, 2, 59, 0
3, 8580, Note_on_c, 2, 54, 127
3, 8610, Note_on_c, 2, 54, 0
3, 8640, Note_on_c, 2, 54, 127
3, 8650, Control_c, 2, 7, 110
3, 8655, Note_on_c, 2, 54, 0
3, 8655, Note_on_c, 2, 55, 127
3, 8670, Note_on_c, 2, 55, 0
3, 8670, Note_on_c, 2, 54, 127
3, 8690, Control_c, 2, 7, 109
3, 8700, Note_on_c, 2, 54, 0
3, 8700, Note_on_c, 2, 52, 127
3, 8720, Control_c, 2, 7, 108
3, 8750, Control_c, 2, 7, 107
3, 8760, Note_on_c, 2, 52, 0
3, 8760, Note_on_c, 2, 61, 127
3, 8780, Control_c, 2, 7, 106
3, 8790, Note_on_c, 2, 61, 0
3, 8810, Control_c, 2, 7, 105
3, 8820, Note_on_c, 2, 52, 127
3, 8840, Control_c, 2, 7, 104
3, 8850, Note_on_c, 2, 52, 0
3, 8870, Control_c, 2, 7, 103
3, 8880, Note_on_c, 2, 52, 127
3, 8900, Control_c, 2, 7, 102
3, 8930, Control_c, 2, 7, 101
3, 8940, Note_on_c, 2, 52, 0
3, 8940, Note_on_c, 2, 50, 127
3, 8960, Control_c, 2, 7, 100
3, 8970, Note_on_c, 2, 50, 0
3, 8970, Note_on_c, 2, 49, 127
3, 8990, Control_c, 2, 7, 99
3, 9000, Note_on_c, 2, 49, 0
3, 9000, Note_on_c, 2, 50, 127
3, 9020, Control_c, 2, 7, 98
3, 9030, Note_on_c, 2, 50, 0
3, 9030, Note_on_c, 2, 47, 127
3, 9050, Control_c, 2, 7, 97
3, 9060, Note_on_c, 2, 47, 0
3, 9060, Note_on_c, 2, 49, 127
3, 9080, Control_c, 2, 7, 96
3, 9090, Note_on_c, 2, 49, 0
3, 9090, Note_on_c, 2, 50, 127
3, 9110, Control_c, 2, 7, 95
3, 9120, Note_on_c, 2, 50, 0
3, 9120, Note_on_c, 2, 52, 127
3, 9140, Control_c, 2, 7, 94
3, 9150, Note_on_c, 2, 52, 0
3, 9150, Note_on_c, 2, 54, 127
3, 9170, Control_c, 2, 7, 93
3, 9180, Note_on_c, 2, 54, 0
3, 9180, Note_on_c, 2, 52, 127
3, 9200, Control_c, 2, 7, 92
3, 9210, Note_on_c, 2, 52, 0
3, 9210, Note_on_c, 2, 49, 127
3, 9230, Control_c, 2, 7, 91
3, 9240, Note_on_c, 2, 49, 0
3, 9240, Note_on_c, 2, 50, 127
3, 9260, Control_c, 2, 7, 90
3, 9270, Note_on_c, 2, 50, 0
3, 9270, Note_on_c, 2, 52, 127
3, 9290, Control_c, 2, 7, 89
3, 9300, Note_on_c, 2, 52, 0
3, 9300, Note_on_c, 2, 50, 127
3, 9320, Control_c, 2, 7, 88
3, 9330, Note_on_c, 2, 50, 0
3, 9330, Note_on_c, 2, 47, 127
3, 9350, Control_c, 2, 7, 87
3, 9360, Note_on_c, 2, 47, 0
3, 9360, Note_on_c, 2, 49, 127
3, 9380, Control_c, 2, 7, 86
3, 9390, Note_on_c, 2, 49, 0
3, 9390, Note_on_c, 2, 50, 127
3, 9410, Control_c, 2, 7, 85
3, 9420, Note_on_c, 2, 50, 0
3, 9420, Note_on_c, 2, 49, 127
3, 9440, Control_c, 2, 7, 84
3, 9450, Note_on_c, 2, 49, 0
3, 9450, Note_on_c, 2, 47, 127
3, 9470, Control_c, 2, 7, 83
3, 9480, Note_on_c, 2, 47, 0
3, 9480, Note_on_c, 2, 46, 127
3, 9500, Control_c, 2, 7, 82
3, 9510, Note_on_c, 2, 46, 0
3, 9510, Note_on_c, 2, 49, 127
3, 9530, Control_c, 2, 7, 81
3, 9540, Note_on_c, 2, 49, 0
3, 9540, Note_on_c, 2, 47, 127
3, 9560, Control_c, 2, 7, 80
3, 9570, Note_on_c, 2, 47, 0
3, 9570, Note_on_c, 2, 46, 127
3, 9590, Control_c, 2, 7, 79
3, 9600, Note_on_c, 2, 46, 0
3, 9600, Note_on_c, 2, 47, 127
3, 9620, Control_c, 2, 7, 78
3, 9650, Control_c, 2, 7, 77
3, 9660, Note_on_c, 2, 47, 0
3, 9660, Note_on_c, 2, 59, 127
3, 9680, Control_c, 2, 7, 76
3, 9690, Note_on_c, 2, 59, 0
3, 9690, Note_on_c, 2, 58, 127
3, 9710, Control_c, 2, 7, 75
3, 9720, Note_on_c, 2, 58, 0
3, 9720, Note_on_c, 2, 59, 127
3, 9740, Control_c, 2, 7, 74
3, 9750, Note_on_c, 2, 59, 0
3, 9770, Control_c, 2, 7, 73
3, 9780, Note_on_c, 2, 55, 127
3, 9800, Control_c, 2, 7, 72
3, 9810, Note_on_c, 2, 55, 0
3, 9830, Control_c, 2, 7, 71
3, 9840, Note_on_c, 2, 50, 127
3, 9860, Control_c, 2, 7, 70
3, 9870, Note_on_c, 2, 50, 0
3, 9870, Note_on_c, 2, 54, 127
3, 9890, Control_c, 2, 7, 69
3, 9900, Note_on_c, 2, 54, 0
3, 9900, Note_on_c, 2, 52, 127
3, 9920, Control_c, 2, 7, 68
3, 9930, Note_on_c, 2, 52, 0
3, 9930, Note_on_c, 2, 55, 127
3, 9950, Control_c, 2, 7, 67
3, 9960, Note_on_c, 2, 55, 0
3, 9960, Note_on_c, 2, 54, 127
3, 9980, Control_c, 2, 7, 66
3, 10010, Control_c, 2, 7, 65
3, 10020, Note_on_c, 2, 54, 0
3, 10020, Note_on_c, 2, 42, 127
3, 10040, Control_c, 2, 7, 64
3, 10070, Control_c, 2, 7, 63
3, 10080, Note_on_c, 2, 42, 0
3, 10080, Note_on_c, 2, 47, 127
3, 10560, Note_on_c, 2, 47, 0
3, 10560, End_track
4, 0, Start_track
4, 0, End_track
0, 0, End_of_file
