0, 0, Header, 1, 18, 240
1, 0, Start_track
1, 0, Title_t, "untitled"
1, 0, Time_signature, 4, 2, 24, 8
1, 0, Key_signature, 0, "major"
1, 0, Tempo, 666667
1, 116160, Tempo, 681818
1, 117120, Tempo, 666667
1, 165120, Tempo, 714286
1, 166080, Tempo, 895522
1, 166080, End_track
2, 0, Start_track
2, 0, Title_t, "Violin 1  "
2, 0, Program_c, 1, 40
2, 0, Control_c, 1, 7, 127
2, 0, Note_on_c, 1, 62, 127
2, 3, Channel_aftertouch_c, 1, 64
2, 13, Channel_aftertouch_c, 1, 0
2, 15, Channel_aftertouch_c, 1, 32
2, 25, Channel_aftertouch_c, 1, 0
2, 27, Channel_aftertouch_c, 1, 16
2, 37, Channel_aftertouch_c, 1, 0
2, 39, Channel_aftertouch_c, 1, 8
2, 48, Channel_aftertouch_c, 1, 0
2, 51, Channel_aftertouch_c, 1, 4
2, 61, Channel_aftertouch_c, 1, 0
2, 63, Channel_aftertouch_c, 1, 2
2, 73, Channel_aftertouch_c, 1, 0
2, 75, Channel_aftertouch_c, 1, 1
2, 85, Channel_aftertouch_c, 1, 0
2, 113, Note_on_c, 1, 62, 0
2, 240, Note_on_c, 1, 66, 127
2, 353, Note_on_c, 1, 66, 0
2, 480, Note_on_c, 1, 69, 120
2, 593, Note_on_c, 1, 69, 0
2, 840, Note_on_c, 1, 66, 127
2, 871, Note_on_c, 1, 66, 0
2, 898, Control_c, 1, 7, 107
2, 900, Note_on_c, 1, 67, 117
2, 938, Note_on_c, 1, 67, 0
2, 960, Note_on_c, 1, 69, 96
2, 1006, Note_on_c, 1, 69, 0
2, 1080, Note_on_c, 1, 66, 123
2, 1113, Note_on_c, 1, 66, 0
2, 1140, Note_on_c, 1, 67, 96
2, 1177, Note_on_c, 1, 67, 0
2, 1200, Note_on_c, 1, 69, 117
2, 1244, Note_on_c, 1, 69, 0
2, 1320, Note_on_c, 1, 74, 108
2, 1365, Note_on_c, 1, 74, 0
2, 1440, Note_on_c, 1, 69, 117
2, 1490, Note_on_c, 1, 69, 0
2, 1560, Note_on_c, 1, 69, 105
2, 1597, Note_on_c, 1, 69, 0
2, 1620, Note_on_c, 1, 67, 93
2, 1652, Note_on_c, 1, 67, 0
2, 1680, Note_on_c, 1, 66, 93
2, 1740, Note_on_c, 1, 66, 0
2, 1800, Note_on_c, 1, 64, 127
2, 1830, Note_on_c, 1, 64, 0
2, 1860, Note_on_c, 1, 62, 108
2, 1896, Note_on_c, 1, 62, 0
2, 1920, Note_on_c, 1, 67, 108
2, 1953, Note_on_c, 1, 67, 0
2, 1980, Note_on_c, 1, 69, 93
2, 2014, Note_on_c, 1, 69, 0
2, 2040, Note_on_c, 1, 71, 111
2, 2076, Note_on_c, 1, 71, 0
2, 2100, Note_on_c, 1, 67, 93
2, 2131, Note_on_c, 1, 67, 0
2, 2160, Note_on_c, 1, 66, 124
2, 2196, Note_on_c, 1, 66, 0
2, 2220, Note_on_c, 1, 67, 84
2, 2257, Note_on_c, 1, 67, 0
2, 2280, Note_on_c, 1, 69, 89
2, 2311, Note_on_c, 1, 69, 0
2, 2340, Note_on_c, 1, 66, 111
2, 2372, Note_on_c, 1, 66, 0
2, 2400, Note_on_c, 1, 64, 117
2, 2428, Note_on_c, 1, 64, 0
2, 2438, Control_c, 1, 7, 105
2, 2447, Control_c, 1, 7, 104
2, 2460, Note_on_c, 1, 69, 99
2, 2494, Note_on_c, 1, 69, 0
2, 2520, Note_on_c, 1, 71, 89
2, 2535, Control_c, 1, 7, 102
2, 2544, Control_c, 1, 7, 101
2, 2552, Note_on_c, 1, 71, 0
2, 2553, Control_c, 1, 7, 99
2, 2580, Note_on_c, 1, 73, 102
2, 2614, Note_on_c, 1, 73, 0
2, 2640, Note_on_c, 1, 74, 111
2, 2672, Note_on_c, 1, 74, 0
2, 2683, Control_c, 1, 7, 100
2, 2700, Note_on_c, 1, 76, 79
2, 2705, Control_c, 1, 7, 101
2, 2713, Control_c, 1, 7, 103
2, 2722, Control_c, 1, 7, 104
2, 2725, Note_on_c, 1, 76, 0
2, 2731, Control_c, 1, 7, 106
2, 2739, Control_c, 1, 7, 107
2, 2748, Control_c, 1, 7, 109
2, 2760, Note_on_c, 1, 78, 93
2, 2787, Note_on_c, 1, 78, 0
2, 2820, Note_on_c, 1, 79, 96
2, 2852, Note_on_c, 1, 79, 0
2, 2876, Control_c, 1, 7, 110
2, 2880, Note_on_c, 1, 81, 127
2, 2916, Note_on_c, 1, 81, 0
2, 2940, Note_on_c, 1, 81, 79
2, 2973, Note_on_c, 1, 81, 0
2, 3000, Note_on_c, 1, 81, 89
2, 3012, Control_c, 1, 7, 112
2, 3030, Note_on_c, 1, 81, 0
2, 3060, Note_on_c, 1, 81, 69
2, 3089, Note_on_c, 1, 81, 0
2, 3120, Note_on_c, 1, 81, 117
2, 3149, Note_on_c, 1, 81, 0
2, 3180, Note_on_c, 1, 81, 89
2, 3207, Note_on_c, 1, 81, 0
2, 3240, Note_on_c, 1, 81, 127
2, 3250, Channel_aftertouch_c, 1, 0
2, 3252, Channel_aftertouch_c, 1, 6
2, 3262, Channel_aftertouch_c, 1, 0
2, 3265, Channel_aftertouch_c, 1, 3
2, 3267, Note_on_c, 1, 81, 0
2, 3274, Channel_aftertouch_c, 1, 0
2, 3276, Channel_aftertouch_c, 1, 1
2, 3282, Channel_aftertouch_c, 1, 0
2, 3300, Note_on_c, 1, 81, 127
2, 3325, Note_on_c, 1, 81, 0
2, 3342, Control_c, 1, 7, 111
2, 3348, Channel_aftertouch_c, 1, 6
2, 3358, Channel_aftertouch_c, 1, 0
2, 3360, Note_on_c, 1, 81, 126
2, 3360, Channel_aftertouch_c, 1, 12
2, 3365, Control_c, 1, 7, 110
2, 3382, Control_c, 1, 7, 108
2, 3473, Note_on_c, 1, 81, 0
2, 3617, Control_c, 1, 7, 107
2, 3741, Control_c, 1, 7, 105
2, 3840, Note_on_c, 1, 79, 127
2, 3872, Note_on_c, 1, 79, 0
2, 3900, Note_on_c, 1, 79, 89
2, 3927, Note_on_c, 1, 79, 0
2, 3960, Note_on_c, 1, 79, 64
2, 3992, Note_on_c, 1, 79, 0
2, 4017, Control_c, 1, 7, 106
2, 4020, Note_on_c, 1, 79, 58
2, 4050, Note_on_c, 1, 79, 0
2, 4071, Control_c, 1, 7, 107
2, 4080, Note_on_c, 1, 79, 64
2, 4108, Note_on_c, 1, 79, 0
2, 4140, Note_on_c, 1, 79, 84
2, 4147, Control_c, 1, 7, 109
2, 4169, Note_on_c, 1, 79, 0
2, 4200, Note_on_c, 1, 79, 77
2, 4228, Note_on_c, 1, 79, 0
2, 4260, Note_on_c, 1, 79, 111
2, 4288, Note_on_c, 1, 79, 0
2, 4300, Control_c, 1, 7, 110
2, 4320, Note_on_c, 1, 79, 127
2, 4433, Note_on_c, 1, 79, 0
2, 4603, Control_c, 1, 7, 108
2, 4652, Control_c, 1, 7, 107
2, 4800, Note_on_c, 1, 78, 127
2, 4819, Control_c, 1, 7, 105
2, 4837, Note_on_c, 1, 78, 0
2, 4860, Note_on_c, 1, 78, 89
2, 4887, Note_on_c, 1, 78, 0
2, 4920, Note_on_c, 1, 78, 77
2, 4952, Note_on_c, 1, 78, 0
2, 4980, Note_on_c, 1, 78, 89
2, 5010, Note_on_c, 1, 78, 0
2, 5040, Note_on_c, 1, 78, 84
2, 5073, Note_on_c, 1, 78, 0
2, 5100, Note_on_c, 1, 78, 111
2, 5111, Control_c, 1, 7, 106
2, 5129, Note_on_c, 1, 78, 0
2, 5160, Note_on_c, 1, 78, 99
2, 5162, Control_c, 1, 7, 107
2, 5194, Note_on_c, 1, 78, 0
2, 5209, Channel_aftertouch_c, 1, 6
2, 5218, Channel_aftertouch_c, 1, 0
2, 5220, Channel_aftertouch_c, 1, 3
2, 5220, Note_on_c, 1, 78, 125
2, 5228, Control_c, 1, 7, 109
2, 5230, Channel_aftertouch_c, 1, 0
2, 5232, Channel_aftertouch_c, 1, 1
2, 5240, Channel_aftertouch_c, 1, 0
2, 5254, Note_on_c, 1, 78, 0
2, 5280, Note_on_c, 1, 79, 84
2, 5320, Note_on_c, 1, 79, 0
2, 5340, Note_on_c, 1, 81, 111
2, 5376, Note_on_c, 1, 81, 0
2, 5400, Note_on_c, 1, 83, 102
2, 5435, Note_on_c, 1, 83, 0
2, 5460, Note_on_c, 1, 79, 81
2, 5487, Note_on_c, 1, 79, 0
2, 5520, Note_on_c, 1, 78, 125
2, 5556, Note_on_c, 1, 78, 0
2, 5580, Note_on_c, 1, 79, 74
2, 5622, Note_on_c, 1, 79, 0
2, 5640, Note_on_c, 1, 81, 79
2, 5678, Note_on_c, 1, 81, 0
2, 5700, Note_on_c, 1, 78, 91
2, 5734, Note_on_c, 1, 78, 0
2, 5760, Note_on_c, 1, 76, 84
2, 5793, Note_on_c, 1, 76, 0
2, 5820, Note_on_c, 1, 78, 74
2, 5864, Note_on_c, 1, 78, 0
2, 5880, Note_on_c, 1, 79, 74
2, 5917, Note_on_c, 1, 79, 0
2, 5940, Note_on_c, 1, 76, 77
2, 5973, Note_on_c, 1, 76, 0
2, 6000, Note_on_c, 1, 74, 96
2, 6035, Note_on_c, 1, 74, 0
2, 6060, Note_on_c, 1, 76, 66
2, 6090, Note_on_c, 1, 76, 0
2, 6120, Note_on_c, 1, 78, 96
2, 6156, Note_on_c, 1, 78, 0
2, 6180, Note_on_c, 1, 74, 89
2, 6216, Note_on_c, 1, 74, 0
2, 6240, Note_on_c, 1, 73, 111
2, 6276, Note_on_c, 1, 73, 0
2, 6300, Note_on_c, 1, 74, 66
2, 6339, Note_on_c, 1, 74, 0
2, 6360, Note_on_c, 1, 76, 89
2, 6375, Control_c, 1, 7, 108
2, 6390, Control_c, 1, 7, 107
2, 6395, Note_on_c, 1, 76, 0
2, 6420, Note_on_c, 1, 73, 89
2, 6447, Note_on_c, 1, 73, 0
2, 6480, Note_on_c, 1, 67, 102
2, 6514, Note_on_c, 1, 67, 0
2, 6540, Note_on_c, 1, 69, 72
2, 6577, Note_on_c, 1, 69, 0
2, 6600, Note_on_c, 1, 71, 89
2, 6641, Note_on_c, 1, 71, 0
2, 6660, Note_on_c, 1, 67, 79
2, 6690, Note_on_c, 1, 67, 0
2, 6720, Note_on_c, 1, 64, 74
2, 6753, Note_on_c, 1, 64, 0
2, 6780, Note_on_c, 1, 66, 74
2, 6817, Note_on_c, 1, 66, 0
2, 6840, Note_on_c, 1, 67, 77
2, 6875, Note_on_c, 1, 67, 0
2, 6900, Note_on_c, 1, 64, 86
2, 6930, Note_on_c, 1, 64, 0
2, 6960, Note_on_c, 1, 61, 105
2, 6994, Note_on_c, 1, 61, 0
2, 7020, Note_on_c, 1, 62, 66
2, 7055, Note_on_c, 1, 62, 0
2, 7080, Note_on_c, 1, 64, 81
2, 7114, Note_on_c, 1, 64, 0
2, 7140, Note_on_c, 1, 61, 64
2, 7165, Note_on_c, 1, 61, 0
2, 7200, Note_on_c, 1, 57, 127
2, 7313, Note_on_c, 1, 57, 0
2, 7560, Note_on_c, 1, 76, 96
2, 7620, Note_on_c, 1, 78, 72
2, 7626, Note_on_c, 1, 76, 0
2, 7647, Note_on_c, 1, 78, 0
2, 7650, Note_on_c, 1, 79, 111
2, 7679, Note_on_c, 1, 79, 0
2, 7680, Note_on_c, 1, 78, 80
2, 7776, Note_on_c, 1, 78, 0
2, 7891, Note_on_c, 1, 76, 117
2, 7923, Note_on_c, 1, 76, 0
2, 7951, Note_on_c, 1, 74, 89
2, 7981, Note_on_c, 1, 74, 0
2, 8011, Note_on_c, 1, 76, 105
2, 8065, Note_on_c, 1, 76, 0
2, 8131, Note_on_c, 1, 74, 114
2, 8162, Note_on_c, 1, 74, 0
2, 8191, Note_on_c, 1, 73, 84
2, 8225, Note_on_c, 1, 73, 0
2, 8251, Note_on_c, 1, 74, 89
2, 8322, Note_on_c, 1, 74, 0
2, 8371, Note_on_c, 1, 69, 96
2, 8400, Note_on_c, 1, 69, 0
2, 8431, Note_on_c, 1, 69, 89
2, 8465, Note_on_c, 1, 69, 0
2, 8491, Note_on_c, 1, 71, 102
2, 8518, Note_on_c, 1, 71, 0
2, 8551, Note_on_c, 1, 71, 81
2, 8584, Note_on_c, 1, 71, 0
2, 8611, Note_on_c, 1, 73, 84
2, 8640, Note_on_c, 1, 74, 86
2, 8641, Note_on_c, 1, 73, 0
2, 8668, Note_on_c, 1, 74, 0
2, 8700, Note_on_c, 1, 74, 96
2, 8732, Note_on_c, 1, 74, 0
2, 8760, Note_on_c, 1, 69, 124
2, 8788, Note_on_c, 1, 69, 0
2, 8820, Note_on_c, 1, 69, 93
2, 8855, Note_on_c, 1, 69, 0
2, 8880, Note_on_c, 1, 71, 117
2, 8912, Note_on_c, 1, 71, 0
2, 8940, Note_on_c, 1, 71, 96
2, 8980, Note_on_c, 1, 71, 0
2, 9000, Note_on_c, 1, 73, 127
2, 9031, Note_on_c, 1, 73, 0
2, 9060, Note_on_c, 1, 73, 111
2, 9102, Note_on_c, 1, 73, 0
2, 9120, Note_on_c, 1, 74, 124
2, 9163, Note_on_c, 1, 74, 0
2, 9180, Note_on_c, 1, 76, 86
2, 9215, Note_on_c, 1, 76, 0
2, 9240, Note_on_c, 1, 78, 117
2, 9263, Control_c, 1, 7, 110
2, 9285, Note_on_c, 1, 78, 0
2, 9300, Note_on_c, 1, 74, 120
2, 9346, Note_on_c, 1, 74, 0
2, 9360, Note_on_c, 1, 79, 102
2, 9404, Note_on_c, 1, 79, 0
2, 9420, Note_on_c, 1, 76, 77
2, 9461, Note_on_c, 1, 76, 0
2, 9480, Note_on_c, 1, 81, 89
2, 9559, Note_on_c, 1, 81, 0
2, 9600, Note_on_c, 1, 78, 64
2, 9621, Note_on_c, 1, 78, 0
2, 9630, Note_on_c, 1, 79, 86
2, 9653, Note_on_c, 1, 79, 0
2, 9660, Note_on_c, 1, 78, 74
2, 9712, Note_on_c, 1, 78, 0
2, 9720, Note_on_c, 1, 76, 120
2, 9762, Note_on_c, 1, 76, 0
2, 9780, Note_on_c, 1, 74, 74
2, 9822, Note_on_c, 1, 74, 0
2, 9825, Channel_aftertouch_c, 1, 25
2, 9834, Channel_aftertouch_c, 1, 0
2, 9837, Channel_aftertouch_c, 1, 12
2, 9840, Note_on_c, 1, 78, 127
2, 9847, Channel_aftertouch_c, 1, 0
2, 9849, Channel_aftertouch_c, 1, 6
2, 9859, Channel_aftertouch_c, 1, 0
2, 9861, Channel_aftertouch_c, 1, 3
2, 9870, Channel_aftertouch_c, 1, 0
2, 9889, Note_on_c, 1, 78, 0
2, 9900, Note_on_c, 1, 76, 77
2, 9947, Note_on_c, 1, 76, 0
2, 9960, Note_on_c, 1, 74, 96
2, 9994, Note_on_c, 1, 74, 0
2, 10020, Note_on_c, 1, 73, 69
2, 10064, Note_on_c, 1, 73, 0
2, 10080, Note_on_c, 1, 74, 127
2, 10174, Note_on_c, 1, 74, 0
2, 10190, Control_c, 1, 7, 108
2, 10253, Control_c, 1, 7, 107
2, 10440, Note_on_c, 1, 66, 69
2, 10479, Note_on_c, 1, 66, 0
2, 10480, Control_c, 1, 7, 105
2, 10500, Note_on_c, 1, 67, 79
2, 10543, Note_on_c, 1, 67, 0
2, 10560, Note_on_c, 1, 69, 66
2, 10611, Note_on_c, 1, 69, 0
2, 10680, Note_on_c, 1, 66, 72
2, 10712, Note_on_c, 1, 66, 0
2, 10735, Control_c, 1, 7, 104
2, 10740, Note_on_c, 1, 67, 69
2, 10783, Note_on_c, 1, 67, 0
2, 10800, Note_on_c, 1, 69, 66
2, 10838, Note_on_c, 1, 69, 0
2, 10920, Note_on_c, 1, 74, 69
2, 10957, Note_on_c, 1, 74, 0
2, 11040, Note_on_c, 1, 69, 74
2, 11082, Note_on_c, 1, 69, 0
2, 11160, Note_on_c, 1, 69, 64
2, 11199, Note_on_c, 1, 69, 0
2, 11220, Note_on_c, 1, 67, 64
2, 11265, Note_on_c, 1, 67, 0
2, 11280, Note_on_c, 1, 66, 58
2, 11344, Note_on_c, 1, 66, 0
2, 11400, Note_on_c, 1, 64, 66
2, 11441, Note_on_c, 1, 64, 0
2, 11460, Note_on_c, 1, 62, 58
2, 11500, Note_on_c, 1, 62, 0
2, 13055, Control_c, 1, 7, 106
2, 13117, Control_c, 1, 7, 107
2, 13205, Control_c, 1, 7, 109
2, 13301, Control_c, 1, 7, 110
2, 13440, Note_on_c, 1, 62, 127
2, 13553, Note_on_c, 1, 62, 0
2, 13680, Note_on_c, 1, 66, 127
2, 13793, Note_on_c, 1, 66, 0
2, 13920, Note_on_c, 1, 69, 127
2, 14033, Note_on_c, 1, 69, 0
2, 14280, Note_on_c, 1, 66, 117
2, 14307, Note_on_c, 1, 66, 0
2, 14340, Note_on_c, 1, 67, 111
2, 14372, Note_on_c, 1, 67, 0
2, 14400, Note_on_c, 1, 69, 127
2, 14456, Note_on_c, 1, 69, 0
2, 14520, Note_on_c, 1, 66, 127
2, 14546, Note_on_c, 1, 66, 0
2, 14580, Note_on_c, 1, 67, 127
2, 14610, Note_on_c, 1, 67, 0
2, 14640, Note_on_c, 1, 69, 127
2, 14691, Note_on_c, 1, 69, 0
2, 14760, Note_on_c, 1, 74, 126
2, 14806, Note_on_c, 1, 74, 0
2, 14880, Note_on_c, 1, 69, 127
2, 14916, Control_c, 1, 7, 108
2, 14930, Note_on_c, 1, 69, 0
2, 15000, Note_on_c, 1, 69, 127
2, 15036, Note_on_c, 1, 69, 0
2, 15060, Note_on_c, 1, 67, 93
2, 15092, Note_on_c, 1, 67, 0
2, 15120, Note_on_c, 1, 66, 127
2, 15186, Note_on_c, 1, 66, 0
2, 15240, Note_on_c, 1, 64, 117
2, 15244, Control_c, 1, 7, 107
2, 15282, Note_on_c, 1, 64, 0
2, 15300, Note_on_c, 1, 62, 84
2, 15341, Note_on_c, 1, 62, 0
2, 15360, Note_on_c, 1, 67, 120
2, 15394, Note_on_c, 1, 67, 0
2, 15420, Note_on_c, 1, 69, 77
2, 15456, Note_on_c, 1, 69, 0
2, 15480, Note_on_c, 1, 71, 124
2, 15518, Note_on_c, 1, 71, 0
2, 15540, Note_on_c, 1, 67, 108
2, 15575, Note_on_c, 1, 67, 0
2, 15600, Note_on_c, 1, 66, 124
2, 15636, Note_on_c, 1, 66, 0
2, 15660, Note_on_c, 1, 67, 117
2, 15694, Note_on_c, 1, 67, 0
2, 15720, Note_on_c, 1, 69, 111
2, 15750, Note_on_c, 1, 69, 0
2, 15780, Note_on_c, 1, 66, 127
2, 15819, Note_on_c, 1, 66, 0
2, 15840, Note_on_c, 1, 64, 127
2, 15953, Note_on_c, 1, 64, 0
2, 16254, Control_c, 1, 7, 105
2, 16297, Control_c, 1, 7, 104
2, 16320, Note_on_c, 1, 61, 39
2, 16362, Control_c, 1, 7, 102
2, 16433, Note_on_c, 1, 61, 0
2, 16560, Note_on_c, 1, 64, 26
2, 16673, Note_on_c, 1, 64, 0
2, 16800, Note_on_c, 1, 69, 30
2, 16913, Note_on_c, 1, 69, 0
2, 17280, Note_on_c, 1, 64, 18
2, 17393, Note_on_c, 1, 64, 0
2, 17520, Note_on_c, 1, 69, 51
2, 17633, Note_on_c, 1, 69, 0
2, 17760, Note_on_c, 1, 73, 14
2, 17873, Note_on_c, 1, 73, 0
2, 18589, Control_c, 1, 7, 103
2, 18600, Note_on_c, 1, 73, 105
2, 18626, Note_on_c, 1, 73, 0
2, 18651, Control_c, 1, 7, 104
2, 18660, Note_on_c, 1, 74, 127
2, 18663, Control_c, 1, 7, 106
2, 18692, Note_on_c, 1, 74, 0
2, 18696, Control_c, 1, 7, 107
2, 18707, Control_c, 1, 7, 109
2, 18720, Note_on_c, 1, 76, 99
2, 18767, Note_on_c, 1, 76, 0
2, 18840, Note_on_c, 1, 73, 127
2, 18869, Note_on_c, 1, 73, 0
2, 18900, Note_on_c, 1, 74, 124
2, 18933, Note_on_c, 1, 74, 0
2, 18960, Note_on_c, 1, 76, 108
2, 19002, Note_on_c, 1, 76, 0
2, 19080, Note_on_c, 1, 81, 127
2, 19132, Note_on_c, 1, 81, 0
2, 19200, Note_on_c, 1, 76, 127
2, 19245, Note_on_c, 1, 76, 0
2, 19320, Note_on_c, 1, 76, 124
2, 19353, Note_on_c, 1, 76, 0
2, 19380, Note_on_c, 1, 74, 93
2, 19392, Control_c, 1, 7, 108
2, 19405, Control_c, 1, 7, 107
2, 19420, Note_on_c, 1, 74, 0
2, 19440, Note_on_c, 1, 73, 117
2, 19501, Note_on_c, 1, 73, 0
2, 19560, Note_on_c, 1, 71, 127
2, 19596, Note_on_c, 1, 71, 0
2, 19620, Note_on_c, 1, 69, 99
2, 19653, Note_on_c, 1, 69, 0
2, 19680, Note_on_c, 1, 64, 35
2, 19906, Control_c, 1, 7, 105
2, 19928, Control_c, 1, 7, 104
2, 20008, Control_c, 1, 7, 102
2, 20178, Control_c, 1, 7, 101
2, 20832, Note_on_c, 1, 64, 0
2, 21720, Control_c, 1, 7, 99
2, 21720, Note_on_c, 1, 64, 79
2, 21784, Note_on_c, 1, 64, 0
2, 21960, Note_on_c, 1, 64, 58
2, 22021, Note_on_c, 1, 64, 0
2, 22200, Note_on_c, 1, 64, 58
2, 22255, Note_on_c, 1, 64, 0
2, 22440, Note_on_c, 1, 63, 58
2, 22493, Note_on_c, 1, 63, 0
2, 22560, Note_on_c, 1, 64, 39
2, 22661, Control_c, 1, 7, 100
2, 22672, Control_c, 1, 7, 101
2, 22673, Note_on_c, 1, 64, 0
2, 22680, Control_c, 1, 7, 103
2, 22833, Control_c, 1, 7, 104
2, 22859, Control_c, 1, 7, 106
2, 22894, Control_c, 1, 7, 107
2, 22955, Control_c, 1, 7, 109
2, 23040, Note_on_c, 1, 76, 108
2, 23055, Channel_aftertouch_c, 1, 12
2, 23065, Channel_aftertouch_c, 1, 0
2, 23067, Channel_aftertouch_c, 1, 6
2, 23073, Note_on_c, 1, 76, 0
2, 23073, Channel_aftertouch_c, 1, 0
2, 23100, Note_on_c, 1, 76, 117
2, 23128, Note_on_c, 1, 76, 0
2, 23160, Note_on_c, 1, 76, 93
2, 23188, Note_on_c, 1, 76, 0
2, 23220, Note_on_c, 1, 76, 117
2, 23239, Note_on_c, 1, 76, 0
2, 23256, Control_c, 1, 7, 110
2, 23280, Note_on_c, 1, 76, 127
2, 23300, Note_on_c, 1, 76, 0
2, 23340, Note_on_c, 1, 76, 127
2, 23359, Note_on_c, 1, 76, 0
2, 23400, Note_on_c, 1, 76, 127
2, 23418, Note_on_c, 1, 76, 0
2, 23460, Note_on_c, 1, 76, 127
2, 23475, Note_on_c, 1, 76, 0
2, 23520, Note_on_c, 1, 76, 126
2, 23565, Note_on_c, 1, 76, 0
2, 23854, Control_c, 1, 7, 108
2, 24000, Note_on_c, 1, 74, 127
2, 24004, Control_c, 1, 7, 109
2, 24026, Note_on_c, 1, 74, 0
2, 24060, Note_on_c, 1, 74, 127
2, 24085, Note_on_c, 1, 74, 0
2, 24120, Note_on_c, 1, 74, 124
2, 24142, Note_on_c, 1, 74, 0
2, 24152, Control_c, 1, 7, 110
2, 24180, Note_on_c, 1, 74, 126
2, 24204, Note_on_c, 1, 74, 0
2, 24240, Note_on_c, 1, 74, 127
2, 24264, Note_on_c, 1, 74, 0
2, 24300, Note_on_c, 1, 74, 127
2, 24321, Note_on_c, 1, 74, 0
2, 24360, Note_on_c, 1, 74, 120
2, 24381, Note_on_c, 1, 74, 0
2, 24420, Note_on_c, 1, 74, 127
2, 24438, Note_on_c, 1, 74, 0
2, 24480, Note_on_c, 1, 74, 127
2, 24536, Note_on_c, 1, 74, 0
2, 24960, Note_on_c, 1, 73, 125
2, 24988, Note_on_c, 1, 73, 0
2, 25020, Note_on_c, 1, 73, 124
2, 25045, Note_on_c, 1, 73, 0
2, 25080, Note_on_c, 1, 73, 124
2, 25106, Note_on_c, 1, 73, 0
2, 25140, Note_on_c, 1, 73, 81
2, 25164, Note_on_c, 1, 73, 0
2, 25200, Note_on_c, 1, 73, 99
2, 25224, Note_on_c, 1, 73, 0
2, 25260, Note_on_c, 1, 73, 96
2, 25283, Note_on_c, 1, 73, 0
2, 25320, Note_on_c, 1, 73, 108
2, 25342, Note_on_c, 1, 73, 0
2, 25380, Note_on_c, 1, 73, 117
2, 25401, Note_on_c, 1, 73, 0
2, 25440, Note_on_c, 1, 74, 114
2, 25470, Note_on_c, 1, 74, 0
2, 25500, Note_on_c, 1, 76, 102
2, 25529, Note_on_c, 1, 76, 0
2, 25560, Note_on_c, 1, 78, 86
2, 25590, Note_on_c, 1, 78, 0
2, 25620, Note_on_c, 1, 74, 84
2, 25641, Control_c, 1, 7, 108
2, 25650, Note_on_c, 1, 74, 0
2, 25680, Note_on_c, 1, 73, 127
2, 25687, Control_c, 1, 7, 107
2, 25711, Note_on_c, 1, 73, 0
2, 25740, Note_on_c, 1, 74, 99
2, 25769, Note_on_c, 1, 74, 0
2, 25800, Note_on_c, 1, 76, 102
2, 25829, Note_on_c, 1, 76, 0
2, 25853, Control_c, 1, 7, 105
2, 25860, Note_on_c, 1, 73, 120
2, 25887, Note_on_c, 1, 73, 0
2, 25920, Note_on_c, 1, 71, 105
2, 25952, Note_on_c, 1, 71, 0
2, 25980, Note_on_c, 1, 73, 120
2, 26010, Note_on_c, 1, 73, 0
2, 26040, Note_on_c, 1, 74, 96
2, 26067, Note_on_c, 1, 74, 0
2, 26100, Note_on_c, 1, 71, 89
2, 26133, Note_on_c, 1, 71, 0
2, 26160, Note_on_c, 1, 69, 89
2, 26190, Note_on_c, 1, 69, 0
2, 26220, Note_on_c, 1, 71, 77
2, 26252, Note_on_c, 1, 71, 0
2, 26280, Note_on_c, 1, 73, 108
2, 26307, Control_c, 1, 7, 104
2, 26309, Note_on_c, 1, 73, 0
2, 26340, Note_on_c, 1, 69, 93
2, 26368, Note_on_c, 1, 69, 0
2, 26400, Note_on_c, 1, 68, 96
2, 26428, Note_on_c, 1, 68, 0
2, 26460, Note_on_c, 1, 69, 84
2, 26494, Note_on_c, 1, 69, 0
2, 26520, Note_on_c, 1, 71, 84
2, 26549, Note_on_c, 1, 71, 0
2, 26580, Note_on_c, 1, 68, 84
2, 26603, Note_on_c, 1, 68, 0
2, 26640, Note_on_c, 1, 62, 102
2, 26676, Note_on_c, 1, 62, 0
2, 26700, Note_on_c, 1, 64, 72
2, 26735, Note_on_c, 1, 64, 0
2, 26760, Note_on_c, 1, 66, 86
2, 26794, Note_on_c, 1, 66, 0
2, 26820, Note_on_c, 1, 62, 93
2, 26821, Control_c, 1, 7, 102
2, 26851, Note_on_c, 1, 62, 0
2, 26880, Note_on_c, 1, 59, 124
2, 26910, Note_on_c, 1, 59, 0
2, 26940, Note_on_c, 1, 61, 120
2, 26979, Note_on_c, 1, 61, 0
2, 27000, Note_on_c, 1, 62, 72
2, 27039, Note_on_c, 1, 62, 0
2, 27060, Note_on_c, 1, 59, 84
2, 27101, Note_on_c, 1, 59, 0
2, 27120, Note_on_c, 1, 56, 84
2, 27154, Note_on_c, 1, 56, 0
2, 27180, Note_on_c, 1, 57, 108
2, 27220, Note_on_c, 1, 57, 0
2, 27240, Note_on_c, 1, 59, 81
2, 27273, Note_on_c, 1, 59, 0
2, 27300, Note_on_c, 1, 61, 124
2, 27328, Note_on_c, 1, 61, 0
2, 27360, Note_on_c, 1, 62, 124
2, 27393, Note_on_c, 1, 62, 0
2, 27420, Note_on_c, 1, 64, 93
2, 27452, Note_on_c, 1, 64, 0
2, 27480, Note_on_c, 1, 66, 89
2, 27523, Note_on_c, 1, 66, 0
2, 27540, Note_on_c, 1, 68, 102
2, 27586, Note_on_c, 1, 68, 0
2, 27600, Note_on_c, 1, 69, 105
2, 27642, Note_on_c, 1, 69, 0
2, 27660, Note_on_c, 1, 71, 84
2, 27663, Control_c, 1, 7, 103
2, 27701, Note_on_c, 1, 71, 0
2, 27720, Note_on_c, 1, 73, 96
2, 27737, Control_c, 1, 7, 104
2, 27759, Note_on_c, 1, 73, 0
2, 27780, Note_on_c, 1, 74, 89
2, 27793, Control_c, 1, 7, 106
2, 27810, Note_on_c, 1, 76, 66
2, 27811, Note_on_c, 1, 74, 0
2, 27832, Note_on_c, 1, 76, 0
2, 27840, Note_on_c, 1, 73, 126
2, 27919, Note_on_c, 1, 73, 0
2, 27960, Note_on_c, 1, 71, 96
2, 27961, Control_c, 1, 7, 107
2, 27996, Note_on_c, 1, 71, 0
2, 28020, Note_on_c, 1, 69, 96
2, 28052, Note_on_c, 1, 69, 0
2, 28080, Note_on_c, 1, 71, 125
2, 28151, Note_on_c, 1, 71, 0
2, 28200, Note_on_c, 1, 69, 117
2, 28235, Note_on_c, 1, 69, 0
2, 28239, Channel_aftertouch_c, 1, 6
2, 28248, Channel_aftertouch_c, 1, 0
2, 28250, Channel_aftertouch_c, 1, 3
2, 28259, Channel_aftertouch_c, 1, 0
2, 28260, Note_on_c, 1, 68, 96
2, 28262, Channel_aftertouch_c, 1, 1
2, 28271, Channel_aftertouch_c, 1, 0
2, 28297, Note_on_c, 1, 68, 0
2, 28320, Note_on_c, 1, 69, 77
2, 28350, Control_c, 1, 7, 105
2, 28385, Control_c, 1, 7, 104
2, 28433, Note_on_c, 1, 69, 0
2, 28920, Note_on_c, 1, 64, 58
2, 28950, Note_on_c, 1, 64, 0
2, 28980, Note_on_c, 1, 64, 64
2, 29027, Note_on_c, 1, 64, 0
2, 29040, Note_on_c, 1, 66, 84
2, 29077, Note_on_c, 1, 66, 0
2, 29100, Note_on_c, 1, 66, 84
2, 29101, Control_c, 1, 7, 106
2, 29127, Control_c, 1, 7, 107
2, 29137, Note_on_c, 1, 66, 0
2, 29160, Note_on_c, 1, 68, 74
2, 29190, Note_on_c, 1, 68, 0
2, 29193, Control_c, 1, 7, 109
2, 29220, Note_on_c, 1, 68, 77
2, 29255, Note_on_c, 1, 68, 0
2, 29280, Note_on_c, 1, 69, 79
2, 29344, Control_c, 1, 7, 108
2, 29365, Control_c, 1, 7, 107
2, 29393, Note_on_c, 1, 69, 0
2, 30059, Control_c, 1, 7, 109
2, 30360, Note_on_c, 1, 64, 72
2, 30393, Note_on_c, 1, 64, 0
2, 30420, Note_on_c, 1, 64, 69
2, 30466, Note_on_c, 1, 64, 0
2, 30480, Note_on_c, 1, 66, 81
2, 30512, Note_on_c, 1, 66, 0
2, 30540, Note_on_c, 1, 66, 66
2, 30574, Note_on_c, 1, 66, 0
2, 30600, Note_on_c, 1, 68, 84
2, 30632, Note_on_c, 1, 68, 0
2, 30660, Note_on_c, 1, 68, 69
2, 30697, Note_on_c, 1, 68, 0
2, 30720, Note_on_c, 1, 69, 66
2, 30758, Note_on_c, 1, 69, 0
2, 30780, Note_on_c, 1, 69, 66
2, 30813, Note_on_c, 1, 69, 0
2, 30840, Note_on_c, 1, 64, 96
2, 30873, Note_on_c, 1, 64, 0
2, 30900, Note_on_c, 1, 64, 84
2, 30908, Control_c, 1, 7, 110
2, 30941, Note_on_c, 1, 64, 0
2, 30954, Channel_aftertouch_c, 1, 6
2, 30957, Channel_aftertouch_c, 1, 0
2, 30959, Channel_aftertouch_c, 1, 3
2, 30960, Note_on_c, 1, 66, 105
2, 30968, Channel_aftertouch_c, 1, 0
2, 30971, Channel_aftertouch_c, 1, 1
2, 30981, Channel_aftertouch_c, 1, 0
2, 30996, Note_on_c, 1, 66, 0
2, 31020, Note_on_c, 1, 66, 105
2, 31057, Note_on_c, 1, 66, 0
2, 31080, Note_on_c, 1, 68, 111
2, 31113, Note_on_c, 1, 68, 0
2, 31140, Note_on_c, 1, 68, 111
2, 31183, Note_on_c, 1, 68, 0
2, 31200, Note_on_c, 1, 69, 117
2, 31246, Note_on_c, 1, 69, 0
2, 31260, Note_on_c, 1, 71, 93
2, 31306, Note_on_c, 1, 71, 0
2, 31320, Note_on_c, 1, 73, 93
2, 31339, Control_c, 1, 7, 112
2, 31371, Note_on_c, 1, 73, 0
2, 31380, Note_on_c, 1, 69, 89
2, 31421, Note_on_c, 1, 69, 0
2, 31440, Note_on_c, 1, 74, 117
2, 31484, Note_on_c, 1, 74, 0
2, 31500, Note_on_c, 1, 71, 89
2, 31545, Note_on_c, 1, 71, 0
2, 31560, Note_on_c, 1, 76, 108
2, 31649, Note_on_c, 1, 76, 0
2, 31680, Note_on_c, 1, 74, 93
2, 31724, Note_on_c, 1, 74, 0
2, 31740, Note_on_c, 1, 73, 108
2, 31780, Note_on_c, 1, 73, 0
2, 31800, Note_on_c, 1, 71, 108
2, 31850, Note_on_c, 1, 71, 0
2, 31860, Note_on_c, 1, 69, 81
2, 31908, Note_on_c, 1, 69, 0
2, 31920, Note_on_c, 1, 73, 117
2, 31965, Note_on_c, 1, 73, 0
2, 31980, Note_on_c, 1, 71, 84
2, 32022, Note_on_c, 1, 71, 0
2, 32040, Note_on_c, 1, 69, 108
2, 32077, Note_on_c, 1, 69, 0
2, 32100, Note_on_c, 1, 68, 105
2, 32145, Note_on_c, 1, 68, 0
2, 32160, Note_on_c, 1, 69, 120
2, 32273, Note_on_c, 1, 69, 0
2, 32640, Note_on_c, 1, 62, 127
2, 32753, Note_on_c, 1, 62, 0
2, 32880, Note_on_c, 1, 66, 127
2, 32993, Note_on_c, 1, 66, 0
2, 33120, Note_on_c, 1, 69, 127
2, 33233, Note_on_c, 1, 69, 0
2, 33418, Control_c, 1, 7, 111
2, 33458, Control_c, 1, 7, 110
2, 33583, Control_c, 1, 7, 108
2, 33600, Control_c, 1, 7, 107
2, 33600, Note_on_c, 1, 66, 86
2, 33679, Control_c, 1, 7, 104
2, 33713, Note_on_c, 1, 66, 0
2, 33888, Control_c, 1, 7, 105
2, 33913, Note_on_c, 1, 69, 74
2, 34026, Note_on_c, 1, 69, 0
2, 34153, Note_on_c, 1, 74, 43
2, 34266, Note_on_c, 1, 74, 0
2, 34560, Note_on_c, 1, 69, 30
2, 34629, Control_c, 1, 7, 102
2, 34776, Note_on_c, 1, 69, 0
2, 34800, Note_on_c, 1, 74, 14
2, 35016, Note_on_c, 1, 74, 0
2, 35040, Note_on_c, 1, 78, 8
2, 35256, Note_on_c, 1, 78, 0
2, 35702, Control_c, 1, 7, 103
2, 35746, Control_c, 1, 7, 104
2, 35780, Control_c, 1, 7, 106
2, 35806, Control_c, 1, 7, 107
2, 35831, Control_c, 1, 7, 109
2, 35880, Note_on_c, 1, 66, 105
2, 35915, Note_on_c, 1, 66, 0
2, 35940, Note_on_c, 1, 67, 124
2, 35984, Note_on_c, 1, 67, 0
2, 36000, Note_on_c, 1, 69, 124
2, 36057, Note_on_c, 1, 69, 0
2, 36120, Note_on_c, 1, 66, 86
2, 36145, Control_c, 1, 7, 108
2, 36153, Note_on_c, 1, 66, 0
2, 36157, Channel_aftertouch_c, 1, 18
2, 36167, Channel_aftertouch_c, 1, 0
2, 36169, Channel_aftertouch_c, 1, 9
2, 36179, Channel_aftertouch_c, 1, 0
2, 36180, Note_on_c, 1, 67, 91
2, 36181, Channel_aftertouch_c, 1, 4
2, 36190, Channel_aftertouch_c, 1, 0
2, 36202, Control_c, 1, 7, 107
2, 36216, Note_on_c, 1, 67, 0
2, 36240, Note_on_c, 1, 69, 124
2, 36312, Note_on_c, 1, 69, 0
2, 36360, Note_on_c, 1, 74, 127
2, 36424, Note_on_c, 1, 74, 0
2, 36480, Note_on_c, 1, 69, 127
2, 36483, Control_c, 1, 7, 109
2, 36547, Note_on_c, 1, 69, 0
2, 36600, Note_on_c, 1, 69, 124
2, 36640, Note_on_c, 1, 69, 0
2, 36660, Note_on_c, 1, 67, 79
2, 36702, Note_on_c, 1, 67, 0
2, 36720, Note_on_c, 1, 66, 125
2, 36793, Note_on_c, 1, 66, 0
2, 36840, Note_on_c, 1, 64, 96
2, 36880, Note_on_c, 1, 64, 0
2, 36900, Note_on_c, 1, 62, 74
2, 36928, Note_on_c, 1, 62, 0
2, 36960, Note_on_c, 1, 57, 14
2, 37098, Control_c, 1, 7, 108
2, 37138, Control_c, 1, 7, 107
2, 37218, Control_c, 1, 7, 105
2, 37441, Control_c, 1, 7, 104
2, 38112, Note_on_c, 1, 57, 0
2, 39000, Note_on_c, 1, 69, 30
2, 39072, Note_on_c, 1, 69, 0
2, 39240, Note_on_c, 1, 69, 35
2, 39311, Note_on_c, 1, 69, 0
2, 39480, Note_on_c, 1, 69, 30
2, 39545, Note_on_c, 1, 69, 0
2, 39720, Note_on_c, 1, 68, 8
2, 39788, Note_on_c, 1, 68, 0
2, 39801, Control_c, 1, 7, 106
2, 39827, Control_c, 1, 7, 107
2, 39840, Note_on_c, 1, 69, 22
2, 39864, Control_c, 1, 7, 109
2, 40056, Note_on_c, 1, 69, 0
2, 40224, Control_c, 1, 7, 110
2, 40320, Note_on_c, 1, 81, 127
2, 40329, Control_c, 1, 7, 112
2, 40344, Note_on_c, 1, 81, 0
2, 40380, Note_on_c, 1, 81, 96
2, 40401, Note_on_c, 1, 81, 0
2, 40440, Note_on_c, 1, 81, 105
2, 40462, Note_on_c, 1, 81, 0
2, 40500, Note_on_c, 1, 81, 127
2, 40521, Note_on_c, 1, 81, 0
2, 40560, Note_on_c, 1, 81, 127
2, 40581, Note_on_c, 1, 81, 0
2, 40620, Note_on_c, 1, 81, 120
2, 40642, Note_on_c, 1, 81, 0
2, 40680, Note_on_c, 1, 81, 127
2, 40690, Channel_aftertouch_c, 1, 0
2, 40692, Channel_aftertouch_c, 1, 34
2, 40702, Note_on_c, 1, 81, 0
2, 40702, Channel_aftertouch_c, 1, 0
2, 40704, Channel_aftertouch_c, 1, 17
2, 40713, Channel_aftertouch_c, 1, 0
2, 40715, Channel_aftertouch_c, 1, 8
2, 40725, Channel_aftertouch_c, 1, 0
2, 40727, Channel_aftertouch_c, 1, 4
2, 40736, Channel_aftertouch_c, 1, 0
2, 40739, Channel_aftertouch_c, 1, 2
2, 40740, Note_on_c, 1, 81, 127
2, 40742, Channel_aftertouch_c, 1, 0
2, 40762, Control_c, 1, 7, 111
2, 40763, Note_on_c, 1, 81, 0
2, 40797, Control_c, 1, 7, 110
2, 40800, Channel_aftertouch_c, 1, 31
2, 40800, Note_on_c, 1, 81, 127
2, 40919, Control_c, 1, 7, 108
2, 41016, Note_on_c, 1, 81, 0
2, 41280, Note_on_c, 1, 79, 126
2, 41309, Note_on_c, 1, 79, 0
2, 41340, Note_on_c, 1, 79, 114
2, 41367, Note_on_c, 1, 79, 0
2, 41396, Control_c, 1, 7, 109
2, 41400, Note_on_c, 1, 79, 89
2, 41430, Note_on_c, 1, 79, 0
2, 41460, Note_on_c, 1, 79, 89
2, 41484, Note_on_c, 1, 79, 0
2, 41520, Note_on_c, 1, 79, 123
2, 41547, Note_on_c, 1, 79, 0
2, 41566, Control_c, 1, 7, 110
2, 41580, Note_on_c, 1, 79, 91
2, 41604, Note_on_c, 1, 79, 0
2, 41640, Note_on_c, 1, 79, 127
2, 41648, Channel_aftertouch_c, 1, 25
2, 41657, Channel_aftertouch_c, 1, 0
2, 41659, Channel_aftertouch_c, 1, 12
2, 41665, Note_on_c, 1, 79, 0
2, 41669, Channel_aftertouch_c, 1, 0
2, 41671, Channel_aftertouch_c, 1, 6
2, 41680, Channel_aftertouch_c, 1, 0
2, 41683, Channel_aftertouch_c, 1, 3
2, 41692, Channel_aftertouch_c, 1, 0
2, 41694, Channel_aftertouch_c, 1, 1
2, 41700, Note_on_c, 1, 79, 127
2, 41704, Channel_aftertouch_c, 1, 0
2, 41723, Note_on_c, 1, 79, 0
2, 41760, Note_on_c, 1, 79, 127
2, 41976, Note_on_c, 1, 79, 0
2, 42159, Control_c, 1, 7, 108
2, 42197, Control_c, 1, 7, 107
2, 42240, Note_on_c, 1, 78, 125
2, 42276, Note_on_c, 1, 78, 0
2, 42300, Note_on_c, 1, 78, 117
2, 42332, Note_on_c, 1, 78, 0
2, 42360, Note_on_c, 1, 78, 102
2, 42390, Note_on_c, 1, 78, 0
2, 42420, Note_on_c, 1, 78, 126
2, 42449, Note_on_c, 1, 78, 0
2, 42480, Note_on_c, 1, 78, 89
2, 42508, Note_on_c, 1, 78, 0
2, 42540, Note_on_c, 1, 78, 105
2, 42543, Control_c, 1, 7, 109
2, 42567, Note_on_c, 1, 78, 0
2, 42600, Note_on_c, 1, 78, 108
2, 42626, Note_on_c, 1, 78, 0
2, 42660, Note_on_c, 1, 78, 127
2, 42689, Note_on_c, 1, 78, 0
2, 42720, Note_on_c, 1, 79, 125
2, 42753, Note_on_c, 1, 79, 0
2, 42780, Note_on_c, 1, 81, 102
2, 42820, Note_on_c, 1, 81, 0
2, 42840, Note_on_c, 1, 83, 117
2, 42873, Note_on_c, 1, 83, 0
2, 42900, Note_on_c, 1, 79, 108
2, 42930, Note_on_c, 1, 79, 0
2, 42960, Note_on_c, 1, 78, 127
2, 42997, Note_on_c, 1, 78, 0
2, 43020, Note_on_c, 1, 79, 102
2, 43057, Note_on_c, 1, 79, 0
2, 43080, Note_on_c, 1, 81, 102
2, 43117, Note_on_c, 1, 81, 0
2, 43140, Note_on_c, 1, 78, 91
2, 43179, Note_on_c, 1, 78, 0
2, 43200, Note_on_c, 1, 76, 84
2, 43235, Note_on_c, 1, 76, 0
2, 43260, Note_on_c, 1, 78, 111
2, 43303, Note_on_c, 1, 78, 0
2, 43320, Note_on_c, 1, 79, 89
2, 43355, Note_on_c, 1, 79, 0
2, 43380, Note_on_c, 1, 76, 74
2, 43413, Note_on_c, 1, 76, 0
2, 43440, Note_on_c, 1, 74, 84
2, 43479, Note_on_c, 1, 74, 0
2, 43500, Note_on_c, 1, 76, 74
2, 43536, Note_on_c, 1, 76, 0
2, 43560, Note_on_c, 1, 78, 102
2, 43591, Note_on_c, 1, 78, 0
2, 43620, Note_on_c, 1, 74, 84
2, 43654, Note_on_c, 1, 74, 0
2, 43680, Note_on_c, 1, 73, 126
2, 43717, Note_on_c, 1, 73, 0
2, 43740, Note_on_c, 1, 74, 102
2, 43780, Note_on_c, 1, 74, 0
2, 43800, Note_on_c, 1, 76, 89
2, 43836, Note_on_c, 1, 76, 0
2, 43860, Note_on_c, 1, 73, 81
2, 43890, Note_on_c, 1, 73, 0
2, 43920, Note_on_c, 1, 67, 105
2, 43963, Note_on_c, 1, 67, 0
2, 43980, Note_on_c, 1, 69, 79
2, 44020, Note_on_c, 1, 69, 0
2, 44040, Note_on_c, 1, 71, 117
2, 44078, Note_on_c, 1, 71, 0
2, 44100, Note_on_c, 1, 67, 84
2, 44129, Note_on_c, 1, 67, 0
2, 44132, Control_c, 1, 7, 108
2, 44160, Note_on_c, 1, 64, 126
2, 44202, Note_on_c, 1, 64, 0
2, 44220, Note_on_c, 1, 66, 91
2, 44259, Note_on_c, 1, 66, 0
2, 44280, Note_on_c, 1, 67, 81
2, 44319, Note_on_c, 1, 67, 0
2, 44340, Note_on_c, 1, 64, 89
2, 44368, Note_on_c, 1, 64, 0
2, 44400, Note_on_c, 1, 61, 105
2, 44436, Note_on_c, 1, 61, 0
2, 44460, Note_on_c, 1, 62, 111
2, 44500, Note_on_c, 1, 62, 0
2, 44520, Note_on_c, 1, 64, 93
2, 44556, Note_on_c, 1, 64, 0
2, 44580, Note_on_c, 1, 61, 93
2, 44602, Note_on_c, 1, 61, 0
2, 44640, Note_on_c, 1, 57, 117
2, 44727, Note_on_c, 1, 57, 0
2, 45000, Note_on_c, 1, 76, 105
2, 45060, Note_on_c, 1, 78, 66
2, 45069, Note_on_c, 1, 76, 0
2, 45082, Note_on_c, 1, 78, 0
2, 45090, Note_on_c, 1, 79, 84
2, 45107, Note_on_c, 1, 79, 0
2, 45120, Note_on_c, 1, 78, 111
2, 45207, Note_on_c, 1, 78, 0
2, 45240, Note_on_c, 1, 76, 111
2, 45278, Note_on_c, 1, 76, 0
2, 45300, Note_on_c, 1, 74, 79
2, 45333, Note_on_c, 1, 74, 0
2, 45348, Control_c, 1, 7, 107
2, 45360, Note_on_c, 1, 76, 93
2, 45437, Note_on_c, 1, 76, 0
2, 45480, Note_on_c, 1, 74, 102
2, 45518, Note_on_c, 1, 74, 0
2, 45540, Note_on_c, 1, 73, 84
2, 45552, Control_c, 1, 7, 109
2, 45580, Note_on_c, 1, 73, 0
2, 45600, Note_on_c, 1, 74, 127
2, 45660, Control_c, 1, 7, 110
2, 45816, Note_on_c, 1, 74, 0
2, 46091, Control_c, 1, 7, 108
2, 46139, Control_c, 1, 7, 107
2, 46200, Note_on_c, 1, 69, 64
2, 46233, Note_on_c, 1, 69, 0
2, 46260, Note_on_c, 1, 69, 69
2, 46304, Note_on_c, 1, 69, 0
2, 46320, Note_on_c, 1, 71, 72
2, 46349, Note_on_c, 1, 71, 0
2, 46380, Note_on_c, 1, 71, 55
2, 46410, Note_on_c, 1, 71, 0
2, 46440, Note_on_c, 1, 73, 64
2, 46472, Note_on_c, 1, 73, 0
2, 46500, Note_on_c, 1, 73, 58
2, 46540, Note_on_c, 1, 73, 0
2, 46560, Note_on_c, 1, 74, 79
2, 46577, Control_c, 1, 7, 109
2, 46776, Note_on_c, 1, 74, 0
2, 46822, Control_c, 1, 7, 110
2, 47507, Control_c, 1, 7, 108
2, 47547, Control_c, 1, 7, 107
2, 47640, Note_on_c, 1, 69, 84
2, 47675, Note_on_c, 1, 69, 0
2, 47700, Note_on_c, 1, 69, 74
2, 47739, Note_on_c, 1, 69, 0
2, 47760, Note_on_c, 1, 71, 89
2, 47793, Note_on_c, 1, 71, 0
2, 47820, Note_on_c, 1, 71, 93
2, 47856, Note_on_c, 1, 71, 0
2, 47880, Note_on_c, 1, 73, 89
2, 47915, Note_on_c, 1, 73, 0
2, 47940, Note_on_c, 1, 73, 91
2, 47975, Note_on_c, 1, 73, 0
2, 48000, Note_on_c, 1, 74, 93
2, 48038, Note_on_c, 1, 74, 0
2, 48060, Note_on_c, 1, 74, 69
2, 48101, Note_on_c, 1, 74, 0
2, 48108, Control_c, 1, 7, 109
2, 48120, Note_on_c, 1, 69, 124
2, 48153, Note_on_c, 1, 69, 0
2, 48180, Note_on_c, 1, 69, 126
2, 48220, Note_on_c, 1, 69, 0
2, 48240, Note_on_c, 1, 71, 127
2, 48279, Note_on_c, 1, 71, 0
2, 48300, Note_on_c, 1, 71, 117
2, 48337, Note_on_c, 1, 71, 0
2, 48360, Note_on_c, 1, 73, 111
2, 48379, Control_c, 1, 7, 108
2, 48397, Note_on_c, 1, 73, 0
2, 48420, Note_on_c, 1, 73, 84
2, 48454, Note_on_c, 1, 73, 0
2, 48480, Note_on_c, 1, 74, 105
2, 48522, Note_on_c, 1, 74, 0
2, 48540, Note_on_c, 1, 76, 102
2, 48583, Note_on_c, 1, 76, 0
2, 48600, Note_on_c, 1, 78, 99
2, 48641, Note_on_c, 1, 78, 0
2, 48660, Note_on_c, 1, 74, 93
2, 48700, Note_on_c, 1, 74, 0
2, 48720, Note_on_c, 1, 79, 117
2, 48758, Note_on_c, 1, 79, 0
2, 48780, Note_on_c, 1, 76, 96
2, 48820, Note_on_c, 1, 76, 0
2, 48840, Note_on_c, 1, 81, 124
2, 48933, Note_on_c, 1, 81, 0
2, 48960, Note_on_c, 1, 79, 84
2, 49000, Note_on_c, 1, 79, 0
2, 49020, Note_on_c, 1, 78, 127
2, 49055, Note_on_c, 1, 78, 0
2, 49080, Note_on_c, 1, 76, 111
2, 49123, Note_on_c, 1, 76, 0
2, 49140, Note_on_c, 1, 74, 111
2, 49179, Note_on_c, 1, 74, 0
2, 49200, Note_on_c, 1, 78, 93
2, 49236, Note_on_c, 1, 78, 0
2, 49260, Note_on_c, 1, 76, 108
2, 49302, Note_on_c, 1, 76, 0
2, 49320, Note_on_c, 1, 74, 127
2, 49356, Note_on_c, 1, 74, 0
2, 49380, Note_on_c, 1, 73, 108
2, 49414, Note_on_c, 1, 73, 0
2, 49440, Note_on_c, 1, 74, 127
2, 49656, Note_on_c, 1, 74, 0
2, 49920, Control_c, 1, 7, 107
2, 49920, Note_on_c, 1, 59, 35
2, 50136, Note_on_c, 1, 59, 0
2, 50193, Note_on_c, 1, 62, 43
2, 50204, Control_c, 1, 7, 104
2, 50296, Control_c, 1, 7, 105
2, 50409, Note_on_c, 1, 62, 0
2, 50433, Note_on_c, 1, 66, 22
2, 50649, Note_on_c, 1, 66, 0
2, 50880, Note_on_c, 1, 57, 43
2, 51096, Note_on_c, 1, 57, 0
2, 51120, Note_on_c, 1, 61, 39
2, 51336, Note_on_c, 1, 61, 0
2, 51360, Note_on_c, 1, 66, 26
2, 51576, Note_on_c, 1, 66, 0
2, 51840, Note_on_c, 1, 55, 30
2, 52056, Note_on_c, 1, 55, 0
2, 52080, Note_on_c, 1, 59, 18
2, 52296, Note_on_c, 1, 59, 0
2, 52320, Note_on_c, 1, 64, 22
2, 52536, Note_on_c, 1, 64, 0
2, 52671, Control_c, 1, 7, 102
2, 52800, Note_on_c, 1, 66, 22
2, 52905, Control_c, 1, 7, 103
2, 53016, Note_on_c, 1, 66, 0
2, 53040, Note_on_c, 1, 73, 26
2, 53256, Note_on_c, 1, 73, 0
2, 53280, Note_on_c, 1, 78, 11
2, 53496, Note_on_c, 1, 78, 0
2, 53760, Note_on_c, 1, 78, 1
2, 54202, Note_on_c, 1, 78, 0
2, 54240, Note_on_c, 1, 77, 26
2, 54455, Note_on_c, 1, 77, 0
2, 54466, Control_c, 1, 7, 102
2, 54480, Note_on_c, 1, 78, 14
2, 54697, Note_on_c, 1, 78, 0
2, 54720, Note_on_c, 1, 80, 8
2, 54739, Control_c, 1, 7, 101
2, 55404, Note_on_c, 1, 80, 0
2, 55440, Note_on_c, 1, 78, 22
2, 55529, Note_on_c, 1, 78, 0
2, 55531, Control_c, 1, 7, 99
2, 55560, Note_on_c, 1, 77, 18
2, 55651, Note_on_c, 1, 77, 0
2, 55680, Note_on_c, 1, 78, 11
2, 55813, Note_on_c, 1, 78, 0
2, 55920, Note_on_c, 1, 73, 22
2, 56046, Note_on_c, 1, 73, 0
2, 56160, Note_on_c, 1, 75, 18
2, 56291, Note_on_c, 1, 75, 0
2, 56400, Note_on_c, 1, 76, 18
2, 56522, Note_on_c, 1, 76, 0
2, 56640, Note_on_c, 1, 78, 8
2, 57066, Control_c, 1, 7, 98
2, 57337, Note_on_c, 1, 78, 0
2, 57360, Note_on_c, 1, 76, 14
2, 57441, Note_on_c, 1, 76, 0
2, 57480, Note_on_c, 1, 75, 14
2, 57566, Note_on_c, 1, 75, 0
2, 57600, Note_on_c, 1, 76, 30
2, 57712, Note_on_c, 1, 76, 0
2, 57840, Note_on_c, 1, 71, 30
2, 57970, Note_on_c, 1, 71, 0
2, 58080, Note_on_c, 1, 73, 35
2, 58201, Note_on_c, 1, 73, 0
2, 58320, Note_on_c, 1, 74, 22
2, 58445, Note_on_c, 1, 74, 0
2, 58560, Note_on_c, 1, 76, 18
2, 58595, Control_c, 1, 7, 96
2, 59292, Control_c, 1, 7, 95
2, 59705, Control_c, 1, 7, 93
2, 59970, Note_on_c, 1, 76, 0
2, 60000, Note_on_c, 1, 73, 11
2, 60171, Note_on_c, 1, 73, 0
2, 60240, Note_on_c, 1, 70, 14
2, 60400, Note_on_c, 1, 70, 0
2, 60480, Note_on_c, 1, 66, 14
2, 61907, Note_on_c, 1, 66, 0
2, 61920, Note_on_c, 1, 64, 14
2, 62032, Control_c, 1, 7, 92
2, 62876, Note_on_c, 1, 64, 0
2, 62880, Note_on_c, 1, 62, 35
2, 63823, Note_on_c, 1, 62, 0
2, 63840, Note_on_c, 1, 64, 30
2, 64054, Note_on_c, 1, 64, 0
2, 64080, Note_on_c, 1, 67, 43
2, 64279, Note_on_c, 1, 67, 0
2, 64320, Note_on_c, 1, 61, 22
2, 64771, Control_c, 1, 7, 90
2, 64786, Note_on_c, 1, 61, 0
2, 64800, Note_on_c, 1, 62, 26
2, 65483, Control_c, 1, 7, 91
2, 65496, Control_c, 1, 7, 92
2, 65504, Control_c, 1, 7, 94
2, 65648, Control_c, 1, 7, 95
2, 65698, Control_c, 1, 7, 97
2, 65756, Note_on_c, 1, 62, 0
2, 65760, Note_on_c, 1, 61, 39
2, 65821, Control_c, 1, 7, 98
2, 65858, Control_c, 1, 7, 100
2, 65875, Control_c, 1, 7, 101
2, 65917, Control_c, 1, 7, 103
2, 66035, Control_c, 1, 7, 104
2, 66078, Control_c, 1, 7, 106
2, 66120, Control_c, 1, 7, 107
2, 66156, Note_on_c, 1, 61, 0
2, 66158, Control_c, 1, 7, 109
2, 66240, Control_c, 1, 7, 110
2, 66240, Note_on_c, 1, 71, 127
2, 66456, Note_on_c, 1, 71, 0
2, 66548, Note_on_c, 1, 74, 127
2, 66764, Note_on_c, 1, 74, 0
2, 66788, Note_on_c, 1, 78, 127
2, 67004, Note_on_c, 1, 78, 0
2, 67148, Note_on_c, 1, 74, 127
2, 67180, Note_on_c, 1, 74, 0
2, 67200, Note_on_c, 1, 78, 93
2, 67276, Note_on_c, 1, 78, 0
2, 67320, Note_on_c, 1, 74, 96
2, 67360, Note_on_c, 1, 74, 0
2, 67380, Note_on_c, 1, 76, 89
2, 67423, Note_on_c, 1, 76, 0
2, 67440, Note_on_c, 1, 78, 127
2, 67527, Note_on_c, 1, 78, 0
2, 67560, Note_on_c, 1, 83, 96
2, 67644, Note_on_c, 1, 83, 0
2, 67680, Note_on_c, 1, 78, 117
2, 67775, Note_on_c, 1, 78, 0
2, 67791, Control_c, 1, 7, 108
2, 67800, Note_on_c, 1, 78, 127
2, 67842, Note_on_c, 1, 78, 0
2, 67860, Note_on_c, 1, 76, 89
2, 67902, Note_on_c, 1, 76, 0
2, 67920, Note_on_c, 1, 74, 127
2, 68011, Note_on_c, 1, 74, 0
2, 68040, Note_on_c, 1, 73, 74
2, 68078, Note_on_c, 1, 73, 0
2, 68100, Note_on_c, 1, 71, 89
2, 68138, Note_on_c, 1, 71, 0
2, 68160, Control_c, 1, 7, 107
2, 68160, Note_on_c, 1, 62, 35
2, 68255, Control_c, 1, 7, 105
2, 68376, Note_on_c, 1, 62, 0
2, 68409, Control_c, 1, 7, 104
2, 68426, Control_c, 1, 7, 102
2, 68441, Note_on_c, 1, 68, 39
2, 68657, Note_on_c, 1, 68, 0
2, 68681, Note_on_c, 1, 71, 35
2, 68764, Control_c, 1, 7, 101
2, 68897, Note_on_c, 1, 71, 0
2, 69120, Control_c, 1, 7, 106
2, 69120, Note_on_c, 1, 69, 127
2, 69128, Control_c, 1, 7, 107
2, 69137, Control_c, 1, 7, 109
2, 69168, Control_c, 1, 7, 110
2, 69176, Control_c, 1, 7, 112
2, 69231, Control_c, 1, 7, 111
2, 69336, Note_on_c, 1, 69, 0
2, 69395, Control_c, 1, 7, 110
2, 69467, Note_on_c, 1, 73, 127
2, 69683, Note_on_c, 1, 73, 0
2, 69707, Note_on_c, 1, 76, 127
2, 69923, Note_on_c, 1, 76, 0
2, 70067, Note_on_c, 1, 73, 93
2, 70080, Note_on_c, 1, 76, 127
2, 70105, Note_on_c, 1, 73, 0
2, 70147, Note_on_c, 1, 76, 0
2, 70200, Note_on_c, 1, 73, 93
2, 70232, Note_on_c, 1, 73, 0
2, 70260, Note_on_c, 1, 74, 124
2, 70288, Control_c, 1, 7, 109
2, 70298, Note_on_c, 1, 74, 0
2, 70320, Note_on_c, 1, 76, 99
2, 70370, Note_on_c, 1, 76, 0
2, 70440, Note_on_c, 1, 81, 93
2, 70488, Note_on_c, 1, 81, 0
2, 70560, Note_on_c, 1, 76, 108
2, 70618, Note_on_c, 1, 76, 0
2, 70680, Note_on_c, 1, 76, 117
2, 70714, Note_on_c, 1, 76, 0
2, 70740, Note_on_c, 1, 74, 96
2, 70788, Note_on_c, 1, 74, 0
2, 70800, Note_on_c, 1, 73, 91
2, 70867, Note_on_c, 1, 73, 0
2, 70920, Note_on_c, 1, 71, 84
2, 70961, Note_on_c, 1, 71, 0
2, 70966, Control_c, 1, 7, 108
2, 70980, Note_on_c, 1, 69, 84
2, 70982, Control_c, 1, 7, 107
2, 71009, Control_c, 1, 7, 105
2, 71018, Control_c, 1, 7, 104
2, 71028, Note_on_c, 1, 69, 0
2, 71040, Control_c, 1, 7, 102
2, 71040, Control_c, 1, 7, 101
2, 71040, Note_on_c, 1, 60, 18
2, 71060, Control_c, 1, 7, 99
2, 71094, Control_c, 1, 7, 98
2, 71256, Note_on_c, 1, 60, 0
2, 71303, Control_c, 1, 7, 96
2, 71355, Control_c, 1, 7, 95
2, 71387, Note_on_c, 1, 66, 39
2, 71603, Note_on_c, 1, 66, 0
2, 71627, Note_on_c, 1, 69, 55
2, 71843, Note_on_c, 1, 69, 0
2, 71998, Control_c, 1, 7, 97
2, 72000, Control_c, 1, 7, 106
2, 72000, Note_on_c, 1, 67, 127
2, 72037, Control_c, 1, 7, 107
2, 72216, Note_on_c, 1, 67, 0
2, 72281, Control_c, 1, 7, 109
2, 72352, Note_on_c, 1, 71, 86
2, 72364, Control_c, 1, 7, 112
2, 72463, Control_c, 1, 7, 110
2, 72568, Note_on_c, 1, 71, 0
2, 72592, Note_on_c, 1, 74, 127
2, 72808, Note_on_c, 1, 74, 0
2, 72861, Control_c, 1, 7, 111
2, 72873, Control_c, 1, 7, 110
2, 72912, Control_c, 1, 7, 108
2, 72952, Note_on_c, 1, 59, 99
2, 72960, Note_on_c, 1, 62, 127
2, 72990, Note_on_c, 1, 59, 0
2, 73019, Note_on_c, 1, 62, 0
2, 73080, Note_on_c, 1, 59, 126
2, 73114, Note_on_c, 1, 59, 0
2, 73140, Note_on_c, 1, 60, 126
2, 73182, Note_on_c, 1, 60, 0
2, 73200, Note_on_c, 1, 62, 114
2, 73260, Note_on_c, 1, 62, 0
2, 73320, Note_on_c, 1, 67, 124
2, 73373, Note_on_c, 1, 67, 0
2, 73440, Note_on_c, 1, 62, 120
2, 73499, Note_on_c, 1, 62, 0
2, 73560, Note_on_c, 1, 62, 99
2, 73599, Note_on_c, 1, 62, 0
2, 73620, Note_on_c, 1, 60, 124
2, 73665, Note_on_c, 1, 60, 0
2, 73680, Note_on_c, 1, 59, 96
2, 73740, Note_on_c, 1, 59, 0
2, 73794, Control_c, 1, 7, 109
2, 73800, Note_on_c, 1, 57, 127
2, 73839, Note_on_c, 1, 57, 0
2, 73860, Note_on_c, 1, 55, 124
2, 73901, Note_on_c, 1, 55, 0
2, 73920, Note_on_c, 1, 72, 86
2, 73959, Note_on_c, 1, 72, 0
2, 73980, Note_on_c, 1, 74, 108
2, 74020, Note_on_c, 1, 74, 0
2, 74040, Note_on_c, 1, 72, 105
2, 74084, Note_on_c, 1, 72, 0
2, 74100, Note_on_c, 1, 69, 89
2, 74135, Note_on_c, 1, 69, 0
2, 74160, Note_on_c, 1, 71, 108
2, 74198, Note_on_c, 1, 71, 0
2, 74220, Note_on_c, 1, 72, 99
2, 74266, Note_on_c, 1, 72, 0
2, 74280, Note_on_c, 1, 71, 102
2, 74325, Note_on_c, 1, 71, 0
2, 74340, Note_on_c, 1, 67, 105
2, 74377, Note_on_c, 1, 67, 0
2, 74400, Note_on_c, 1, 69, 124
2, 74441, Note_on_c, 1, 69, 0
2, 74460, Note_on_c, 1, 62, 84
2, 74503, Note_on_c, 1, 62, 0
2, 74520, Note_on_c, 1, 64, 105
2, 74538, Control_c, 1, 7, 110
2, 74562, Note_on_c, 1, 64, 0
2, 74580, Note_on_c, 1, 66, 93
2, 74619, Note_on_c, 1, 66, 0
2, 74640, Note_on_c, 1, 67, 127
2, 74645, Control_c, 1, 7, 112
2, 74672, Note_on_c, 1, 67, 0
2, 74677, Control_c, 1, 7, 113
2, 74700, Note_on_c, 1, 69, 93
2, 74733, Note_on_c, 1, 69, 0
2, 74760, Note_on_c, 1, 71, 105
2, 74795, Note_on_c, 1, 71, 0
2, 74820, Note_on_c, 1, 72, 117
2, 74854, Note_on_c, 1, 72, 0
2, 74880, Note_on_c, 1, 74, 66
2, 74908, Note_on_c, 1, 74, 0
2, 74940, Note_on_c, 1, 74, 69
2, 74975, Note_on_c, 1, 74, 0
2, 75000, Note_on_c, 1, 74, 84
2, 75034, Note_on_c, 1, 74, 0
2, 75060, Note_on_c, 1, 74, 91
2, 75091, Note_on_c, 1, 74, 0
2, 75120, Note_on_c, 1, 74, 114
2, 75149, Note_on_c, 1, 74, 0
2, 75180, Note_on_c, 1, 74, 127
2, 75210, Note_on_c, 1, 74, 0
2, 75240, Note_on_c, 1, 74, 127
2, 75269, Note_on_c, 1, 74, 0
2, 75293, Channel_aftertouch_c, 1, 12
2, 75300, Note_on_c, 1, 74, 127
2, 75301, Channel_aftertouch_c, 1, 0
2, 75304, Channel_aftertouch_c, 1, 6
2, 75312, Channel_aftertouch_c, 1, 0
2, 75314, Channel_aftertouch_c, 1, 3
2, 75317, Channel_aftertouch_c, 1, 0
2, 75328, Note_on_c, 1, 74, 0
2, 75360, Note_on_c, 1, 74, 127
2, 75576, Note_on_c, 1, 74, 0
2, 75759, Control_c, 1, 7, 111
2, 75839, Channel_aftertouch_c, 1, 31
2, 75840, Note_on_c, 1, 72, 127
2, 75847, Channel_aftertouch_c, 1, 0
2, 75849, Channel_aftertouch_c, 1, 15
2, 75854, Control_c, 1, 7, 110
2, 75858, Channel_aftertouch_c, 1, 0
2, 75860, Channel_aftertouch_c, 1, 7
2, 75867, Channel_aftertouch_c, 1, 0
2, 75870, Note_on_c, 1, 72, 0
2, 75900, Note_on_c, 1, 72, 99
2, 75931, Note_on_c, 1, 72, 0
2, 75960, Note_on_c, 1, 72, 111
2, 75989, Note_on_c, 1, 72, 0
2, 76020, Note_on_c, 1, 72, 120
2, 76046, Note_on_c, 1, 72, 0
2, 76080, Note_on_c, 1, 72, 114
2, 76107, Note_on_c, 1, 72, 0
2, 76140, Note_on_c, 1, 72, 120
2, 76166, Note_on_c, 1, 72, 0
2, 76200, Note_on_c, 1, 72, 127
2, 76204, Channel_aftertouch_c, 1, 0
2, 76206, Channel_aftertouch_c, 1, 25
2, 76214, Channel_aftertouch_c, 1, 0
2, 76216, Channel_aftertouch_c, 1, 12
2, 76225, Channel_aftertouch_c, 1, 0
2, 76227, Note_on_c, 1, 72, 0
2, 76227, Channel_aftertouch_c, 1, 6
2, 76235, Channel_aftertouch_c, 1, 0
2, 76238, Channel_aftertouch_c, 1, 3
2, 76246, Channel_aftertouch_c, 1, 0
2, 76248, Channel_aftertouch_c, 1, 1
2, 76255, Channel_aftertouch_c, 1, 0
2, 76260, Note_on_c, 1, 72, 99
2, 76283, Note_on_c, 1, 72, 0
2, 76315, Channel_aftertouch_c, 1, 38
2, 76320, Note_on_c, 1, 72, 127
2, 76536, Note_on_c, 1, 72, 0
2, 76800, Note_on_c, 1, 71, 127
2, 76829, Note_on_c, 1, 71, 0
2, 76860, Note_on_c, 1, 71, 124
2, 76889, Note_on_c, 1, 71, 0
2, 76920, Note_on_c, 1, 71, 102
2, 76950, Note_on_c, 1, 71, 0
2, 76980, Note_on_c, 1, 71, 114
2, 77009, Note_on_c, 1, 71, 0
2, 77040, Note_on_c, 1, 71, 93
2, 77071, Note_on_c, 1, 71, 0
2, 77100, Note_on_c, 1, 71, 111
2, 77130, Note_on_c, 1, 71, 0
2, 77160, Note_on_c, 1, 71, 111
2, 77189, Note_on_c, 1, 71, 0
2, 77220, Note_on_c, 1, 71, 81
2, 77245, Note_on_c, 1, 71, 0
2, 77280, Note_on_c, 1, 72, 77
2, 77337, Control_c, 1, 7, 108
2, 77368, Control_c, 1, 7, 107
2, 77496, Note_on_c, 1, 72, 0
2, 77520, Note_on_c, 1, 71, 77
2, 77736, Note_on_c, 1, 71, 0
2, 77760, Note_on_c, 1, 69, 102
2, 77976, Note_on_c, 1, 69, 0
2, 78000, Note_on_c, 1, 67, 89
2, 78216, Note_on_c, 1, 67, 0
2, 78240, Note_on_c, 1, 62, 72
2, 78456, Note_on_c, 1, 62, 0
2, 78480, Note_on_c, 1, 66, 89
2, 78696, Note_on_c, 1, 66, 0
2, 78720, Note_on_c, 1, 69, 79
2, 78936, Note_on_c, 1, 69, 0
2, 79080, Note_on_c, 1, 66, 124
2, 79112, Note_on_c, 1, 66, 0
2, 79140, Note_on_c, 1, 67, 102
2, 79179, Note_on_c, 1, 67, 0
2, 79200, Note_on_c, 1, 69, 108
2, 79256, Note_on_c, 1, 69, 0
2, 79320, Note_on_c, 1, 66, 127
2, 79353, Note_on_c, 1, 66, 0
2, 79380, Note_on_c, 1, 67, 84
2, 79418, Note_on_c, 1, 67, 0
2, 79440, Note_on_c, 1, 69, 127
2, 79448, Control_c, 1, 7, 105
2, 79487, Control_c, 1, 7, 104
2, 79491, Note_on_c, 1, 69, 0
2, 79560, Note_on_c, 1, 74, 126
2, 79606, Note_on_c, 1, 74, 0
2, 79680, Note_on_c, 1, 69, 89
2, 79746, Note_on_c, 1, 69, 0
2, 79800, Note_on_c, 1, 69, 108
2, 79837, Note_on_c, 1, 69, 0
2, 79860, Note_on_c, 1, 67, 96
2, 79917, Note_on_c, 1, 67, 0
2, 79920, Note_on_c, 1, 66, 77
2, 79990, Note_on_c, 1, 66, 0
2, 80040, Note_on_c, 1, 64, 108
2, 80074, Note_on_c, 1, 64, 0
2, 80100, Note_on_c, 1, 62, 79
2, 80136, Note_on_c, 1, 62, 0
2, 80160, Note_on_c, 1, 67, 125
2, 80217, Note_on_c, 1, 67, 0
2, 80240, Control_c, 1, 7, 102
2, 80280, Note_on_c, 1, 55, 127
2, 80360, Note_on_c, 1, 55, 0
2, 80520, Note_on_c, 1, 67, 96
2, 80563, Note_on_c, 1, 67, 0
2, 80580, Note_on_c, 1, 65, 69
2, 80621, Note_on_c, 1, 65, 0
2, 80640, Note_on_c, 1, 67, 93
2, 80700, Note_on_c, 1, 67, 0
2, 80760, Note_on_c, 1, 55, 86
2, 80799, Note_on_c, 1, 55, 0
2, 80820, Note_on_c, 1, 57, 124
2, 80870, Note_on_c, 1, 57, 0
2, 80880, Note_on_c, 1, 59, 127
2, 80947, Note_on_c, 1, 59, 0
2, 81000, Note_on_c, 1, 62, 117
2, 81068, Note_on_c, 1, 62, 0
2, 81120, Note_on_c, 1, 67, 108
2, 81181, Note_on_c, 1, 67, 0
2, 81240, Note_on_c, 1, 62, 108
2, 81303, Note_on_c, 1, 62, 0
2, 81360, Note_on_c, 1, 67, 89
2, 81432, Note_on_c, 1, 67, 0
2, 81480, Note_on_c, 1, 71, 89
2, 81556, Note_on_c, 1, 71, 0
2, 81600, Note_on_c, 1, 74, 96
2, 81666, Note_on_c, 1, 74, 0
2, 81720, Note_on_c, 1, 71, 89
2, 81796, Note_on_c, 1, 71, 0
2, 81840, Note_on_c, 1, 67, 86
2, 81918, Note_on_c, 1, 67, 0
2, 81960, Note_on_c, 1, 65, 84
2, 82030, Note_on_c, 1, 65, 0
2, 82080, Note_on_c, 1, 64, 79
2, 82296, Note_on_c, 1, 64, 0
2, 82320, Note_on_c, 1, 68, 96
2, 82375, Control_c, 1, 7, 101
2, 82536, Note_on_c, 1, 68, 0
2, 82560, Note_on_c, 1, 71, 114
2, 82776, Note_on_c, 1, 71, 0
2, 82920, Note_on_c, 1, 68, 105
2, 82953, Note_on_c, 1, 68, 0
2, 82980, Note_on_c, 1, 69, 111
2, 83020, Note_on_c, 1, 69, 0
2, 83040, Note_on_c, 1, 71, 96
2, 83108, Note_on_c, 1, 71, 0
2, 83160, Note_on_c, 1, 68, 120
2, 83191, Note_on_c, 1, 68, 0
2, 83220, Note_on_c, 1, 69, 89
2, 83260, Note_on_c, 1, 69, 0
2, 83280, Note_on_c, 1, 71, 89
2, 83338, Note_on_c, 1, 71, 0
2, 83400, Note_on_c, 1, 76, 108
2, 83448, Note_on_c, 1, 76, 0
2, 83520, Note_on_c, 1, 71, 77
2, 83574, Note_on_c, 1, 71, 0
2, 83640, Note_on_c, 1, 71, 93
2, 83678, Note_on_c, 1, 71, 0
2, 83700, Note_on_c, 1, 69, 89
2, 83751, Note_on_c, 1, 69, 0
2, 83760, Note_on_c, 1, 68, 89
2, 83839, Note_on_c, 1, 68, 0
2, 83880, Note_on_c, 1, 66, 105
2, 83920, Note_on_c, 1, 66, 0
2, 83940, Note_on_c, 1, 64, 84
2, 83996, Note_on_c, 1, 64, 0
2, 84000, Note_on_c, 1, 72, 117
2, 84064, Note_on_c, 1, 72, 0
2, 84120, Note_on_c, 1, 57, 86
2, 84248, Note_on_c, 1, 57, 0
2, 84360, Note_on_c, 1, 69, 84
2, 84401, Note_on_c, 1, 69, 0
2, 84420, Note_on_c, 1, 68, 96
2, 84462, Note_on_c, 1, 68, 0
2, 84480, Note_on_c, 1, 69, 117
2, 84558, Note_on_c, 1, 69, 0
2, 84600, Note_on_c, 1, 57, 72
2, 84647, Note_on_c, 1, 57, 0
2, 84660, Note_on_c, 1, 59, 74
2, 84703, Note_on_c, 1, 59, 0
2, 84720, Note_on_c, 1, 60, 77
2, 84779, Note_on_c, 1, 60, 0
2, 84840, Note_on_c, 1, 64, 86
2, 84907, Note_on_c, 1, 64, 0
2, 84960, Note_on_c, 1, 69, 84
2, 85023, Note_on_c, 1, 69, 0
2, 85080, Note_on_c, 1, 64, 96
2, 85147, Note_on_c, 1, 64, 0
2, 85200, Note_on_c, 1, 69, 93
2, 85262, Note_on_c, 1, 69, 0
2, 85320, Note_on_c, 1, 72, 77
2, 85382, Note_on_c, 1, 72, 0
2, 85440, Note_on_c, 1, 76, 117
2, 85496, Note_on_c, 1, 76, 0
2, 85560, Note_on_c, 1, 72, 86
2, 85634, Note_on_c, 1, 72, 0
2, 85680, Note_on_c, 1, 69, 77
2, 85746, Note_on_c, 1, 69, 0
2, 85800, Note_on_c, 1, 66, 77
2, 85876, Note_on_c, 1, 66, 0
2, 85920, Note_on_c, 1, 59, 108
2, 86136, Note_on_c, 1, 59, 0
2, 86160, Note_on_c, 1, 63, 105
2, 86376, Note_on_c, 1, 63, 0
2, 86400, Note_on_c, 1, 66, 127
2, 86616, Note_on_c, 1, 66, 0
2, 86760, Note_on_c, 1, 63, 124
2, 86800, Note_on_c, 1, 63, 0
2, 86820, Note_on_c, 1, 64, 89
2, 86865, Note_on_c, 1, 64, 0
2, 86880, Note_on_c, 1, 66, 96
2, 86941, Note_on_c, 1, 66, 0
2, 87000, Note_on_c, 1, 63, 120
2, 87036, Note_on_c, 1, 63, 0
2, 87060, Note_on_c, 1, 64, 102
2, 87108, Note_on_c, 1, 64, 0
2, 87120, Note_on_c, 1, 66, 86
2, 87174, Note_on_c, 1, 66, 0
2, 87240, Note_on_c, 1, 71, 89
2, 87304, Note_on_c, 1, 71, 0
2, 87360, Note_on_c, 1, 66, 117
2, 87424, Note_on_c, 1, 66, 0
2, 87480, Note_on_c, 1, 66, 105
2, 87527, Note_on_c, 1, 66, 0
2, 87540, Note_on_c, 1, 64, 74
2, 87598, Note_on_c, 1, 64, 0
2, 87600, Note_on_c, 1, 63, 102
2, 87677, Note_on_c, 1, 63, 0
2, 87720, Note_on_c, 1, 61, 124
2, 87761, Note_on_c, 1, 61, 0
2, 87780, Note_on_c, 1, 59, 74
2, 87836, Note_on_c, 1, 59, 0
2, 87840, Note_on_c, 1, 79, 127
2, 87844, Control_c, 1, 7, 103
2, 87861, Control_c, 1, 7, 104
2, 87870, Control_c, 1, 7, 106
2, 87878, Control_c, 1, 7, 107
2, 87887, Control_c, 1, 7, 109
2, 87912, Note_on_c, 1, 79, 0
2, 87960, Note_on_c, 1, 78, 105
2, 88000, Note_on_c, 1, 78, 0
2, 88020, Note_on_c, 1, 76, 89
2, 88070, Note_on_c, 1, 76, 0
2, 88080, Note_on_c, 1, 78, 102
2, 88137, Note_on_c, 1, 78, 0
2, 88200, Note_on_c, 1, 76, 77
2, 88245, Note_on_c, 1, 76, 0
2, 88260, Note_on_c, 1, 75, 66
2, 88303, Note_on_c, 1, 75, 0
2, 88320, Note_on_c, 1, 76, 30
2, 88806, Control_c, 1, 7, 108
2, 88898, Control_c, 1, 7, 107
2, 89005, Control_c, 1, 7, 105
2, 89051, Control_c, 1, 7, 104
2, 89270, Note_on_c, 1, 76, 0
2, 89280, Note_on_c, 1, 78, 72
2, 89496, Note_on_c, 1, 78, 0
2, 89640, Note_on_c, 1, 71, 86
2, 89690, Note_on_c, 1, 71, 0
2, 89760, Note_on_c, 1, 69, 96
2, 89808, Note_on_c, 1, 69, 0
2, 89820, Note_on_c, 1, 67, 79
2, 89861, Note_on_c, 1, 67, 0
2, 89880, Note_on_c, 1, 66, 64
2, 89927, Note_on_c, 1, 66, 0
2, 89940, Note_on_c, 1, 64, 86
2, 89966, Control_c, 1, 7, 106
2, 89974, Note_on_c, 1, 64, 0
2, 89987, Control_c, 1, 7, 107
2, 90000, Note_on_c, 1, 67, 124
2, 90015, Control_c, 1, 7, 109
2, 90044, Note_on_c, 1, 67, 0
2, 90060, Note_on_c, 1, 66, 77
2, 90103, Note_on_c, 1, 66, 0
2, 90120, Note_on_c, 1, 64, 96
2, 90161, Note_on_c, 1, 64, 0
2, 90180, Note_on_c, 1, 63, 93
2, 90202, Control_c, 1, 7, 108
2, 90222, Note_on_c, 1, 63, 0
2, 90240, Control_c, 1, 7, 107
2, 90240, Note_on_c, 1, 64, 93
2, 90456, Note_on_c, 1, 64, 0
2, 90875, Control_c, 1, 7, 109
2, 91278, Control_c, 1, 7, 108
2, 91289, Control_c, 1, 7, 107
2, 91336, Control_c, 1, 7, 105
2, 91394, Control_c, 1, 7, 104
2, 91453, Control_c, 1, 7, 102
2, 91635, Control_c, 1, 7, 101
2, 91961, Control_c, 1, 7, 99
2, 93000, Note_on_c, 1, 68, 77
2, 93038, Note_on_c, 1, 68, 0
2, 93060, Note_on_c, 1, 69, 89
2, 93094, Note_on_c, 1, 69, 0
2, 93120, Note_on_c, 1, 71, 102
2, 93202, Note_on_c, 1, 71, 0
2, 93240, Note_on_c, 1, 74, 84
2, 93278, Note_on_c, 1, 74, 0
2, 93300, Note_on_c, 1, 73, 84
2, 93339, Note_on_c, 1, 73, 0
2, 93360, Note_on_c, 1, 71, 84
2, 93453, Note_on_c, 1, 71, 0
2, 93480, Note_on_c, 1, 80, 120
2, 93568, Note_on_c, 1, 80, 0
2, 93600, Note_on_c, 1, 81, 96
2, 93676, Note_on_c, 1, 81, 0
2, 93720, Note_on_c, 1, 76, 79
2, 93804, Note_on_c, 1, 76, 0
2, 93840, Note_on_c, 1, 69, 77
2, 93922, Note_on_c, 1, 69, 0
2, 93960, Note_on_c, 1, 72, 84
2, 94003, Note_on_c, 1, 72, 0
2, 94020, Note_on_c, 1, 71, 79
2, 94071, Note_on_c, 1, 71, 0
2, 94080, Note_on_c, 1, 69, 79
2, 94163, Note_on_c, 1, 69, 0
2, 94200, Note_on_c, 1, 72, 66
2, 94242, Note_on_c, 1, 72, 0
2, 94260, Note_on_c, 1, 71, 66
2, 94308, Note_on_c, 1, 71, 0
2, 94320, Note_on_c, 1, 69, 74
2, 94411, Note_on_c, 1, 69, 0
2, 94440, Note_on_c, 1, 78, 84
2, 94533, Note_on_c, 1, 78, 0
2, 94560, Note_on_c, 1, 79, 74
2, 94654, Note_on_c, 1, 79, 0
2, 94680, Note_on_c, 1, 74, 77
2, 94765, Note_on_c, 1, 74, 0
2, 94800, Note_on_c, 1, 67, 77
2, 94894, Note_on_c, 1, 67, 0
2, 94920, Note_on_c, 1, 71, 72
2, 95012, Note_on_c, 1, 71, 0
2, 95040, Note_on_c, 1, 76, 74
2, 95130, Note_on_c, 1, 76, 0
2, 95160, Note_on_c, 1, 73, 77
2, 95198, Note_on_c, 1, 73, 0
2, 95220, Note_on_c, 1, 74, 84
2, 95263, Note_on_c, 1, 74, 0
2, 95280, Note_on_c, 1, 76, 77
2, 95366, Note_on_c, 1, 76, 0
2, 95400, Note_on_c, 1, 74, 72
2, 95442, Note_on_c, 1, 74, 0
2, 95460, Note_on_c, 1, 73, 77
2, 95502, Note_on_c, 1, 73, 0
2, 95520, Note_on_c, 1, 74, 79
2, 95603, Note_on_c, 1, 74, 0
2, 95640, Note_on_c, 1, 66, 61
2, 95683, Note_on_c, 1, 66, 0
2, 95700, Note_on_c, 1, 67, 74
2, 95724, Control_c, 1, 7, 100
2, 95744, Note_on_c, 1, 67, 0
2, 95753, Control_c, 1, 7, 101
2, 95760, Note_on_c, 1, 69, 84
2, 95771, Control_c, 1, 7, 103
2, 95800, Control_c, 1, 7, 104
2, 95829, Control_c, 1, 7, 106
2, 95864, Note_on_c, 1, 69, 0
2, 95880, Note_on_c, 1, 67, 74
2, 95890, Control_c, 1, 7, 107
2, 95930, Note_on_c, 1, 67, 0
2, 95940, Note_on_c, 1, 66, 61
2, 95980, Note_on_c, 1, 66, 0
2, 96000, Note_on_c, 1, 67, 81
2, 96082, Note_on_c, 1, 67, 0
2, 96120, Note_on_c, 1, 71, 77
2, 96202, Note_on_c, 1, 71, 0
2, 96240, Note_on_c, 1, 76, 79
2, 96341, Note_on_c, 1, 76, 0
2, 96360, Note_on_c, 1, 79, 84
2, 96437, Note_on_c, 1, 79, 0
2, 96480, Note_on_c, 1, 79, 74
2, 96706, Note_on_c, 1, 79, 0
2, 96772, Control_c, 1, 7, 109
2, 96840, Note_on_c, 1, 79, 96
2, 96921, Note_on_c, 1, 79, 0
2, 96960, Note_on_c, 1, 78, 84
2, 96997, Note_on_c, 1, 78, 0
2, 97020, Note_on_c, 1, 79, 96
2, 97062, Note_on_c, 1, 79, 0
2, 97080, Note_on_c, 1, 81, 84
2, 97103, Control_c, 1, 7, 110
2, 97125, Note_on_c, 1, 81, 0
2, 97140, Note_on_c, 1, 78, 81
2, 97176, Note_on_c, 1, 78, 0
2, 97200, Note_on_c, 1, 76, 86
2, 97241, Note_on_c, 1, 76, 0
2, 97260, Note_on_c, 1, 78, 89
2, 97301, Note_on_c, 1, 78, 0
2, 97320, Note_on_c, 1, 79, 81
2, 97358, Note_on_c, 1, 79, 0
2, 97380, Note_on_c, 1, 76, 72
2, 97424, Note_on_c, 1, 76, 0
2, 97440, Note_on_c, 1, 74, 81
2, 97479, Note_on_c, 1, 74, 0
2, 97500, Note_on_c, 1, 76, 66
2, 97542, Note_on_c, 1, 76, 0
2, 97560, Note_on_c, 1, 78, 69
2, 97597, Note_on_c, 1, 78, 0
2, 97620, Note_on_c, 1, 74, 93
2, 97668, Note_on_c, 1, 74, 0
2, 97680, Note_on_c, 1, 73, 72
2, 97721, Note_on_c, 1, 73, 0
2, 97740, Note_on_c, 1, 74, 77
2, 97780, Note_on_c, 1, 74, 0
2, 97800, Note_on_c, 1, 76, 89
2, 97841, Note_on_c, 1, 76, 0
2, 97860, Note_on_c, 1, 73, 69
2, 97898, Note_on_c, 1, 73, 0
2, 97920, Note_on_c, 1, 71, 86
2, 97964, Note_on_c, 1, 71, 0
2, 97980, Note_on_c, 1, 73, 64
2, 98025, Note_on_c, 1, 73, 0
2, 98040, Note_on_c, 1, 74, 66
2, 98089, Note_on_c, 1, 74, 0
2, 98100, Note_on_c, 1, 69, 84
2, 98143, Note_on_c, 1, 69, 0
2, 98160, Note_on_c, 1, 71, 79
2, 98202, Note_on_c, 1, 71, 0
2, 98220, Note_on_c, 1, 74, 84
2, 98263, Note_on_c, 1, 74, 0
2, 98280, Note_on_c, 1, 73, 55
2, 98321, Note_on_c, 1, 73, 0
2, 98340, Note_on_c, 1, 76, 81
2, 98387, Note_on_c, 1, 76, 0
2, 98400, Note_on_c, 1, 74, 77
2, 98444, Note_on_c, 1, 74, 0
2, 98460, Note_on_c, 1, 76, 89
2, 98508, Note_on_c, 1, 76, 0
2, 98520, Note_on_c, 1, 78, 72
2, 98564, Note_on_c, 1, 78, 0
2, 98580, Note_on_c, 1, 69, 72
2, 98624, Note_on_c, 1, 69, 0
2, 98640, Note_on_c, 1, 71, 84
2, 98687, Note_on_c, 1, 71, 0
2, 98700, Note_on_c, 1, 74, 81
2, 98744, Note_on_c, 1, 74, 0
2, 98760, Note_on_c, 1, 73, 69
2, 98802, Note_on_c, 1, 73, 0
2, 98820, Note_on_c, 1, 76, 72
2, 98851, Control_c, 1, 7, 112
2, 98868, Note_on_c, 1, 76, 0
2, 98880, Note_on_c, 1, 74, 77
2, 98882, Control_c, 1, 7, 113
2, 98926, Note_on_c, 1, 74, 0
2, 98940, Note_on_c, 1, 76, 89
2, 98985, Note_on_c, 1, 76, 0
2, 99000, Note_on_c, 1, 78, 74
2, 99041, Note_on_c, 1, 78, 0
2, 99060, Note_on_c, 1, 73, 69
2, 99102, Note_on_c, 1, 73, 0
2, 99120, Note_on_c, 1, 74, 102
2, 99151, Control_c, 1, 7, 115
2, 99163, Note_on_c, 1, 74, 0
2, 99180, Note_on_c, 1, 78, 89
2, 99220, Note_on_c, 1, 78, 0
2, 99240, Note_on_c, 1, 76, 77
2, 99294, Note_on_c, 1, 76, 0
2, 99300, Note_on_c, 1, 79, 66
2, 99341, Note_on_c, 1, 79, 0
2, 99360, Note_on_c, 1, 78, 84
2, 99410, Note_on_c, 1, 78, 0
2, 99420, Note_on_c, 1, 79, 77
2, 99468, Note_on_c, 1, 79, 0
2, 99480, Note_on_c, 1, 81, 74
2, 99529, Note_on_c, 1, 81, 0
2, 99540, Note_on_c, 1, 73, 72
2, 99580, Note_on_c, 1, 73, 0
2, 99600, Note_on_c, 1, 74, 77
2, 99643, Note_on_c, 1, 74, 0
2, 99660, Note_on_c, 1, 78, 77
2, 99701, Note_on_c, 1, 78, 0
2, 99720, Note_on_c, 1, 76, 79
2, 99773, Note_on_c, 1, 76, 0
2, 99780, Note_on_c, 1, 79, 84
2, 99821, Note_on_c, 1, 79, 0
2, 99840, Note_on_c, 1, 78, 69
2, 99889, Note_on_c, 1, 78, 0
2, 99900, Note_on_c, 1, 79, 66
2, 99950, Note_on_c, 1, 79, 0
2, 99960, Note_on_c, 1, 81, 74
2, 100010, Note_on_c, 1, 81, 0
2, 100020, Note_on_c, 1, 78, 89
2, 100062, Note_on_c, 1, 78, 0
2, 100080, Note_on_c, 1, 79, 79
2, 100122, Note_on_c, 1, 79, 0
2, 100140, Note_on_c, 1, 76, 69
2, 100181, Note_on_c, 1, 76, 0
2, 100200, Note_on_c, 1, 78, 89
2, 100243, Note_on_c, 1, 78, 0
2, 100260, Note_on_c, 1, 74, 72
2, 100303, Note_on_c, 1, 74, 0
2, 100320, Note_on_c, 1, 73, 35
2, 100533, Control_c, 1, 7, 114
2, 100604, Control_c, 1, 7, 113
2, 100800, Control_c, 1, 7, 111
2, 100844, Control_c, 1, 7, 110
2, 100894, Control_c, 1, 7, 108
2, 100939, Control_c, 1, 7, 107
2, 101032, Control_c, 1, 7, 105
2, 101081, Control_c, 1, 7, 104
2, 101472, Note_on_c, 1, 73, 0
2, 101760, Note_on_c, 1, 68, 48
2, 102000, Note_on_c, 1, 71, 48
2, 102192, Note_on_c, 1, 68, 0
2, 102240, Note_on_c, 1, 74, 39
2, 102432, Note_on_c, 1, 71, 0
2, 102672, Note_on_c, 1, 74, 0
2, 102720, Note_on_c, 1, 66, 35
2, 102936, Note_on_c, 1, 66, 0
2, 102960, Note_on_c, 1, 69, 30
2, 103176, Note_on_c, 1, 69, 0
2, 103200, Note_on_c, 1, 73, 22
2, 103416, Note_on_c, 1, 73, 0
2, 103555, Control_c, 1, 7, 105
2, 103604, Control_c, 1, 7, 104
2, 103660, Control_c, 1, 7, 102
2, 103680, Note_on_c, 1, 71, 43
2, 103896, Note_on_c, 1, 71, 0
2, 103920, Note_on_c, 1, 74, 43
2, 104136, Note_on_c, 1, 74, 0
2, 104160, Note_on_c, 1, 78, 39
2, 104376, Note_on_c, 1, 78, 0
2, 104640, Note_on_c, 1, 73, 1
2, 105158, Control_c, 1, 7, 101
2, 105327, Control_c, 1, 7, 99
2, 105373, Control_c, 1, 7, 98
2, 106081, Control_c, 1, 7, 96
2, 107210, Control_c, 1, 7, 95
2, 107418, Control_c, 1, 7, 93
2, 108433, Note_on_c, 1, 73, 0
2, 108480, Note_on_c, 1, 74, 18
2, 108530, Control_c, 1, 7, 94
2, 108556, Control_c, 1, 7, 95
2, 108582, Control_c, 1, 7, 97
2, 108664, Control_c, 1, 7, 98
2, 108715, Control_c, 1, 7, 100
2, 108774, Control_c, 1, 7, 101
2, 108829, Control_c, 1, 7, 103
2, 108927, Control_c, 1, 7, 104
2, 109010, Control_c, 1, 7, 106
2, 109103, Control_c, 1, 7, 107
2, 109153, Control_c, 1, 7, 109
2, 109330, Control_c, 1, 7, 110
2, 109410, Control_c, 1, 7, 112
2, 109824, Control_c, 1, 7, 111
2, 109860, Control_c, 1, 7, 110
2, 109901, Control_c, 1, 7, 108
2, 109954, Control_c, 1, 7, 107
2, 110065, Control_c, 1, 7, 105
2, 110078, Note_on_c, 1, 74, 0
2, 110095, Control_c, 1, 7, 104
2, 110163, Control_c, 1, 7, 102
2, 110280, Note_on_c, 1, 74, 55
2, 110320, Note_on_c, 1, 74, 0
2, 110400, Note_on_c, 1, 73, 77
2, 110457, Note_on_c, 1, 73, 0
2, 110520, Note_on_c, 1, 71, 79
2, 110528, Control_c, 1, 7, 103
2, 110550, Control_c, 1, 7, 104
2, 110559, Control_c, 1, 7, 106
2, 110564, Note_on_c, 1, 71, 0
2, 110567, Control_c, 1, 7, 107
2, 110576, Control_c, 1, 7, 109
2, 110580, Note_on_c, 1, 69, 74
2, 110622, Note_on_c, 1, 69, 0
2, 110640, Note_on_c, 1, 73, 84
2, 110684, Note_on_c, 1, 73, 0
2, 110700, Note_on_c, 1, 71, 66
2, 110727, Control_c, 1, 7, 108
2, 110744, Note_on_c, 1, 71, 0
2, 110744, Control_c, 1, 7, 107
2, 110760, Note_on_c, 1, 69, 72
2, 110803, Note_on_c, 1, 69, 0
2, 110820, Note_on_c, 1, 68, 69
2, 110867, Note_on_c, 1, 68, 0
2, 110880, Note_on_c, 1, 66, 96
2, 110930, Note_on_c, 1, 66, 0
2, 111000, Note_on_c, 1, 73, 64
2, 111034, Note_on_c, 1, 73, 0
2, 111060, Note_on_c, 1, 73, 69
2, 111099, Note_on_c, 1, 73, 0
2, 111120, Note_on_c, 1, 74, 89
2, 111156, Note_on_c, 1, 74, 0
2, 111180, Note_on_c, 1, 74, 77
2, 111216, Note_on_c, 1, 74, 0
2, 111240, Note_on_c, 1, 71, 77
2, 111272, Note_on_c, 1, 71, 0
2, 111300, Note_on_c, 1, 71, 72
2, 111336, Note_on_c, 1, 71, 0
2, 111360, Note_on_c, 1, 73, 81
2, 111393, Note_on_c, 1, 73, 0
2, 111420, Note_on_c, 1, 73, 96
2, 111456, Note_on_c, 1, 73, 0
2, 111480, Note_on_c, 1, 69, 74
2, 111489, Control_c, 1, 7, 105
2, 111513, Note_on_c, 1, 69, 0
2, 111517, Control_c, 1, 7, 104
2, 111540, Note_on_c, 1, 69, 96
2, 111580, Note_on_c, 1, 69, 0
2, 111585, Control_c, 1, 7, 102
2, 111600, Note_on_c, 1, 71, 79
2, 111634, Note_on_c, 1, 71, 0
2, 111640, Channel_aftertouch_c, 1, 6
2, 111643, Channel_aftertouch_c, 1, 0
2, 111646, Channel_aftertouch_c, 1, 3
2, 111654, Channel_aftertouch_c, 1, 0
2, 111657, Channel_aftertouch_c, 1, 1
2, 111660, Note_on_c, 1, 71, 96
2, 111665, Channel_aftertouch_c, 1, 0
2, 111700, Note_on_c, 1, 71, 0
2, 111720, Note_on_c, 1, 68, 86
2, 111753, Control_c, 1, 7, 101
2, 111754, Note_on_c, 1, 68, 0
2, 111780, Note_on_c, 1, 68, 93
2, 111822, Note_on_c, 1, 68, 0
2, 111840, Note_on_c, 1, 69, 84
2, 111939, Note_on_c, 1, 69, 0
2, 112497, Control_c, 1, 7, 103
2, 112620, Note_on_c, 1, 62, 72
2, 112666, Note_on_c, 1, 62, 0
2, 112680, Note_on_c, 1, 60, 89
2, 112724, Note_on_c, 1, 60, 0
2, 112740, Note_on_c, 1, 62, 79
2, 112783, Note_on_c, 1, 62, 0
2, 112800, Note_on_c, 1, 59, 72
2, 112892, Note_on_c, 1, 59, 0
2, 112961, Control_c, 1, 7, 104
2, 113001, Control_c, 1, 7, 106
2, 113100, Note_on_c, 1, 67, 84
2, 113142, Note_on_c, 1, 67, 0
2, 113160, Note_on_c, 1, 66, 77
2, 113209, Note_on_c, 1, 66, 0
2, 113219, Control_c, 1, 7, 107
2, 113220, Note_on_c, 1, 67, 74
2, 113267, Note_on_c, 1, 67, 0
2, 113280, Note_on_c, 1, 62, 79
2, 113370, Control_c, 1, 7, 109
2, 113374, Note_on_c, 1, 62, 0
2, 113570, Control_c, 1, 7, 110
2, 113580, Note_on_c, 1, 71, 72
2, 113628, Note_on_c, 1, 71, 0
2, 113640, Note_on_c, 1, 69, 72
2, 113661, Control_c, 1, 7, 112
2, 113688, Note_on_c, 1, 69, 0
2, 113700, Note_on_c, 1, 71, 69
2, 113706, Control_c, 1, 7, 113
2, 113718, Control_c, 1, 7, 115
2, 113753, Note_on_c, 1, 71, 0
2, 113760, Note_on_c, 1, 65, 74
2, 113858, Note_on_c, 1, 65, 0
2, 114060, Note_on_c, 1, 74, 77
2, 114099, Note_on_c, 1, 74, 0
2, 114120, Note_on_c, 1, 73, 89
2, 114167, Note_on_c, 1, 73, 0
2, 114180, Note_on_c, 1, 74, 69
2, 114222, Note_on_c, 1, 74, 0
2, 114240, Note_on_c, 1, 71, 72
2, 114341, Note_on_c, 1, 71, 0
2, 114540, Note_on_c, 1, 80, 72
2, 114577, Note_on_c, 1, 80, 0
2, 114600, Note_on_c, 1, 78, 69
2, 114646, Note_on_c, 1, 78, 0
2, 114660, Note_on_c, 1, 80, 66
2, 114716, Note_on_c, 1, 80, 0
2, 114720, Note_on_c, 1, 77, 79
2, 115106, Control_c, 1, 7, 114
2, 115128, Control_c, 1, 7, 113
2, 115173, Control_c, 1, 7, 111
2, 115187, Note_on_c, 1, 77, 0
2, 115197, Control_c, 1, 7, 110
2, 115214, Control_c, 1, 7, 108
2, 115230, Control_c, 1, 7, 107
2, 115278, Control_c, 1, 7, 105
2, 115312, Control_c, 1, 7, 104
2, 115357, Control_c, 1, 7, 102
2, 115383, Control_c, 1, 7, 101
2, 116016, Control_c, 1, 7, 103
2, 116033, Control_c, 1, 7, 104
2, 116047, Control_c, 1, 7, 106
2, 116057, Control_c, 1, 7, 107
2, 116070, Control_c, 1, 7, 109
2, 116234, Control_c, 1, 7, 110
2, 116467, Control_c, 1, 7, 112
2, 117120, Note_on_c, 1, 62, 108
2, 117336, Note_on_c, 1, 62, 0
2, 117360, Note_on_c, 1, 66, 127
2, 117576, Note_on_c, 1, 66, 0
2, 117600, Note_on_c, 1, 69, 127
2, 117816, Note_on_c, 1, 69, 0
2, 117960, Note_on_c, 1, 66, 127
2, 117987, Note_on_c, 1, 66, 0
2, 118020, Note_on_c, 1, 67, 111
2, 118058, Note_on_c, 1, 67, 0
2, 118080, Note_on_c, 1, 69, 114
2, 118125, Note_on_c, 1, 69, 0
2, 118200, Note_on_c, 1, 66, 96
2, 118230, Note_on_c, 1, 66, 0
2, 118260, Note_on_c, 1, 67, 84
2, 118292, Note_on_c, 1, 67, 0
2, 118320, Note_on_c, 1, 69, 96
2, 118368, Note_on_c, 1, 69, 0
2, 118440, Note_on_c, 1, 74, 111
2, 118489, Note_on_c, 1, 74, 0
2, 118560, Note_on_c, 1, 69, 84
2, 118609, Note_on_c, 1, 69, 0
2, 118680, Note_on_c, 1, 69, 89
2, 118720, Note_on_c, 1, 69, 0
2, 118740, Note_on_c, 1, 67, 93
2, 118785, Note_on_c, 1, 67, 0
2, 118800, Note_on_c, 1, 66, 66
2, 118856, Note_on_c, 1, 66, 0
2, 118920, Note_on_c, 1, 64, 81
2, 118960, Note_on_c, 1, 64, 0
2, 118980, Note_on_c, 1, 62, 79
2, 119027, Note_on_c, 1, 62, 0
2, 119040, Note_on_c, 1, 67, 96
2, 119078, Note_on_c, 1, 67, 0
2, 119100, Note_on_c, 1, 69, 77
2, 119138, Note_on_c, 1, 69, 0
2, 119160, Note_on_c, 1, 71, 89
2, 119197, Note_on_c, 1, 71, 0
2, 119220, Note_on_c, 1, 67, 79
2, 119252, Note_on_c, 1, 67, 0
2, 119280, Note_on_c, 1, 66, 72
2, 119317, Note_on_c, 1, 66, 0
2, 119340, Note_on_c, 1, 67, 84
2, 119380, Note_on_c, 1, 67, 0
2, 119400, Note_on_c, 1, 69, 79
2, 119434, Note_on_c, 1, 69, 0
2, 119460, Note_on_c, 1, 66, 96
2, 119497, Note_on_c, 1, 66, 0
2, 119520, Note_on_c, 1, 64, 117
2, 119550, Note_on_c, 1, 64, 0
2, 119580, Note_on_c, 1, 69, 102
2, 119623, Note_on_c, 1, 69, 0
2, 119640, Note_on_c, 1, 71, 79
2, 119670, Control_c, 1, 7, 111
2, 119678, Note_on_c, 1, 71, 0
2, 119700, Note_on_c, 1, 73, 93
2, 119712, Control_c, 1, 7, 110
2, 119739, Note_on_c, 1, 73, 0
2, 119760, Note_on_c, 1, 74, 84
2, 119799, Note_on_c, 1, 74, 0
2, 119820, Note_on_c, 1, 76, 102
2, 119820, Control_c, 1, 7, 108
2, 119851, Note_on_c, 1, 76, 0
2, 119880, Note_on_c, 1, 78, 102
2, 119917, Note_on_c, 1, 78, 0
2, 119940, Note_on_c, 1, 79, 105
2, 119952, Control_c, 1, 7, 109
2, 119975, Note_on_c, 1, 79, 0
2, 120000, Note_on_c, 1, 81, 96
2, 120035, Note_on_c, 1, 81, 0
2, 120060, Note_on_c, 1, 81, 124
2, 120094, Note_on_c, 1, 81, 0
2, 120096, Control_c, 1, 7, 110
2, 120120, Note_on_c, 1, 81, 123
2, 120154, Note_on_c, 1, 81, 0
2, 120161, Control_c, 1, 7, 112
2, 120180, Note_on_c, 1, 81, 96
2, 120212, Note_on_c, 1, 81, 0
2, 120240, Note_on_c, 1, 81, 124
2, 120273, Note_on_c, 1, 81, 0
2, 120300, Note_on_c, 1, 81, 91
2, 120322, Control_c, 1, 7, 113
2, 120330, Note_on_c, 1, 81, 0
2, 120360, Note_on_c, 1, 81, 127
2, 120392, Note_on_c, 1, 81, 0
2, 120420, Note_on_c, 1, 81, 124
2, 120453, Note_on_c, 1, 81, 0
2, 120480, Note_on_c, 1, 81, 86
2, 120588, Note_on_c, 1, 81, 0
2, 120612, Control_c, 1, 7, 111
2, 120626, Control_c, 1, 7, 110
2, 120639, Control_c, 1, 7, 108
2, 120661, Control_c, 1, 7, 107
2, 120730, Control_c, 1, 7, 105
2, 120753, Control_c, 1, 7, 104
2, 120960, Note_on_c, 1, 79, 93
2, 120988, Note_on_c, 1, 79, 0
2, 121020, Note_on_c, 1, 79, 81
2, 121049, Note_on_c, 1, 79, 0
2, 121063, Control_c, 1, 7, 106
2, 121080, Note_on_c, 1, 79, 111
2, 121102, Control_c, 1, 7, 107
2, 121110, Note_on_c, 1, 79, 0
2, 121123, Control_c, 1, 7, 109
2, 121140, Note_on_c, 1, 79, 93
2, 121170, Note_on_c, 1, 79, 0
2, 121200, Note_on_c, 1, 79, 84
2, 121228, Note_on_c, 1, 79, 0
2, 121252, Control_c, 1, 7, 110
2, 121260, Note_on_c, 1, 79, 108
2, 121284, Note_on_c, 1, 79, 0
2, 121313, Control_c, 1, 7, 112
2, 121320, Note_on_c, 1, 79, 84
2, 121345, Note_on_c, 1, 79, 0
2, 121362, Control_c, 1, 7, 113
2, 121380, Note_on_c, 1, 79, 108
2, 121407, Note_on_c, 1, 79, 0
2, 121440, Note_on_c, 1, 79, 127
2, 121494, Note_on_c, 1, 79, 0
2, 121653, Control_c, 1, 7, 111
2, 121686, Control_c, 1, 7, 110
2, 121717, Control_c, 1, 7, 108
2, 121768, Control_c, 1, 7, 107
2, 121845, Control_c, 1, 7, 105
2, 121920, Note_on_c, 1, 78, 126
2, 121950, Note_on_c, 1, 78, 0
2, 121980, Note_on_c, 1, 78, 72
2, 122012, Note_on_c, 1, 78, 0
2, 122040, Note_on_c, 1, 78, 84
2, 122055, Control_c, 1, 7, 106
2, 122073, Note_on_c, 1, 78, 0
2, 122087, Control_c, 1, 7, 107
2, 122100, Note_on_c, 1, 78, 96
2, 122132, Note_on_c, 1, 78, 0
2, 122136, Control_c, 1, 7, 109
2, 122160, Note_on_c, 1, 78, 89
2, 122187, Note_on_c, 1, 78, 0
2, 122220, Note_on_c, 1, 78, 123
2, 122246, Note_on_c, 1, 78, 0
2, 122262, Control_c, 1, 7, 110
2, 122280, Note_on_c, 1, 78, 120
2, 122307, Note_on_c, 1, 78, 0
2, 122340, Note_on_c, 1, 78, 99
2, 122367, Note_on_c, 1, 78, 0
2, 122400, Note_on_c, 1, 79, 123
2, 122436, Note_on_c, 1, 79, 0
2, 122460, Note_on_c, 1, 81, 105
2, 122494, Note_on_c, 1, 81, 0
2, 122520, Note_on_c, 1, 83, 89
2, 122537, Control_c, 1, 7, 112
2, 122553, Note_on_c, 1, 83, 0
2, 122580, Note_on_c, 1, 79, 111
2, 122607, Note_on_c, 1, 79, 0
2, 122640, Note_on_c, 1, 78, 88
2, 122670, Note_on_c, 1, 78, 0
2, 122700, Note_on_c, 1, 79, 96
2, 122738, Note_on_c, 1, 79, 0
2, 122760, Note_on_c, 1, 81, 89
2, 122792, Note_on_c, 1, 81, 0
2, 122820, Note_on_c, 1, 78, 74
2, 122855, Note_on_c, 1, 78, 0
2, 122880, Note_on_c, 1, 76, 108
2, 122912, Note_on_c, 1, 76, 0
2, 122912, Control_c, 1, 7, 111
2, 122940, Note_on_c, 1, 78, 86
2, 122974, Note_on_c, 1, 78, 0
2, 123000, Note_on_c, 1, 79, 89
2, 123029, Note_on_c, 1, 79, 0
2, 123060, Note_on_c, 1, 76, 89
2, 123089, Note_on_c, 1, 76, 0
2, 123093, Control_c, 1, 7, 110
2, 123120, Note_on_c, 1, 74, 111
2, 123152, Note_on_c, 1, 74, 0
2, 123180, Note_on_c, 1, 76, 77
2, 123213, Note_on_c, 1, 76, 0
2, 123240, Note_on_c, 1, 78, 102
2, 123269, Note_on_c, 1, 78, 0
2, 123300, Note_on_c, 1, 74, 117
2, 123328, Note_on_c, 1, 74, 0
2, 123360, Note_on_c, 1, 73, 77
2, 123393, Note_on_c, 1, 73, 0
2, 123420, Note_on_c, 1, 74, 81
2, 123455, Note_on_c, 1, 74, 0
2, 123480, Note_on_c, 1, 76, 84
2, 123512, Note_on_c, 1, 76, 0
2, 123540, Note_on_c, 1, 73, 81
2, 123569, Note_on_c, 1, 73, 0
2, 123600, Note_on_c, 1, 67, 89
2, 123630, Note_on_c, 1, 67, 0
2, 123660, Note_on_c, 1, 69, 79
2, 123695, Note_on_c, 1, 69, 0
2, 123720, Note_on_c, 1, 71, 102
2, 123757, Note_on_c, 1, 71, 0
2, 123780, Note_on_c, 1, 67, 89
2, 123784, Control_c, 1, 7, 108
2, 123808, Note_on_c, 1, 67, 0
2, 123840, Note_on_c, 1, 64, 69
2, 123870, Note_on_c, 1, 64, 0
2, 123900, Note_on_c, 1, 66, 96
2, 123934, Note_on_c, 1, 66, 0
2, 123960, Note_on_c, 1, 67, 117
2, 123996, Note_on_c, 1, 67, 0
2, 124020, Note_on_c, 1, 64, 84
2, 124046, Note_on_c, 1, 64, 0
2, 124080, Note_on_c, 1, 61, 117
2, 124111, Note_on_c, 1, 61, 0
2, 124140, Note_on_c, 1, 62, 84
2, 124179, Note_on_c, 1, 62, 0
2, 124200, Note_on_c, 1, 64, 77
2, 124235, Note_on_c, 1, 64, 0
2, 124260, Note_on_c, 1, 61, 102
2, 124289, Note_on_c, 1, 61, 0
2, 124320, Note_on_c, 1, 57, 89
2, 124397, Note_on_c, 1, 57, 0
2, 124680, Note_on_c, 1, 76, 84
2, 124740, Note_on_c, 1, 78, 66
2, 124750, Note_on_c, 1, 76, 0
2, 124759, Note_on_c, 1, 78, 0
2, 124770, Note_on_c, 1, 79, 81
2, 124790, Note_on_c, 1, 79, 0
2, 124800, Note_on_c, 1, 78, 86
2, 124877, Note_on_c, 1, 78, 0
2, 124920, Note_on_c, 1, 76, 89
2, 124958, Note_on_c, 1, 76, 0
2, 124980, Note_on_c, 1, 74, 77
2, 125016, Note_on_c, 1, 74, 0
2, 125040, Note_on_c, 1, 76, 120
2, 125104, Note_on_c, 1, 76, 0
2, 125139, Control_c, 1, 7, 109
2, 125160, Note_on_c, 1, 74, 89
2, 125194, Note_on_c, 1, 74, 0
2, 125220, Note_on_c, 1, 73, 77
2, 125271, Note_on_c, 1, 73, 0
2, 125280, Note_on_c, 1, 74, 96
2, 125335, Note_on_c, 1, 74, 0
2, 125376, Control_c, 1, 7, 110
2, 125400, Note_on_c, 1, 69, 93
2, 125426, Note_on_c, 1, 69, 0
2, 125460, Note_on_c, 1, 69, 89
2, 125496, Note_on_c, 1, 69, 0
2, 125512, Control_c, 1, 7, 112
2, 125520, Note_on_c, 1, 71, 96
2, 125553, Note_on_c, 1, 71, 0
2, 125580, Note_on_c, 1, 71, 96
2, 125615, Note_on_c, 1, 71, 0
2, 125640, Note_on_c, 1, 73, 93
2, 125673, Note_on_c, 1, 73, 0
2, 125700, Note_on_c, 1, 73, 89
2, 125738, Note_on_c, 1, 73, 0
2, 125760, Note_on_c, 1, 74, 102
2, 125791, Note_on_c, 1, 74, 0
2, 125820, Note_on_c, 1, 74, 77
2, 125853, Note_on_c, 1, 74, 0
2, 125880, Note_on_c, 1, 69, 84
2, 125911, Note_on_c, 1, 69, 0
2, 125940, Note_on_c, 1, 69, 79
2, 125979, Note_on_c, 1, 69, 0
2, 126000, Note_on_c, 1, 71, 84
2, 126030, Note_on_c, 1, 71, 0
2, 126060, Note_on_c, 1, 71, 79
2, 126096, Note_on_c, 1, 71, 0
2, 126120, Note_on_c, 1, 73, 77
2, 126146, Note_on_c, 1, 73, 0
2, 126180, Note_on_c, 1, 73, 72
2, 126217, Note_on_c, 1, 73, 0
2, 126240, Note_on_c, 1, 74, 102
2, 126286, Note_on_c, 1, 74, 0
2, 126300, Note_on_c, 1, 76, 72
2, 126340, Note_on_c, 1, 76, 0
2, 126360, Note_on_c, 1, 78, 96
2, 126403, Note_on_c, 1, 78, 0
2, 126420, Note_on_c, 1, 74, 77
2, 126458, Note_on_c, 1, 74, 0
2, 126480, Note_on_c, 1, 79, 72
2, 126519, Note_on_c, 1, 79, 0
2, 126540, Note_on_c, 1, 76, 69
2, 126584, Note_on_c, 1, 76, 0
2, 126600, Note_on_c, 1, 81, 81
2, 126672, Note_on_c, 1, 81, 0
2, 126720, Note_on_c, 1, 78, 93
2, 126741, Note_on_c, 1, 78, 0
2, 126750, Note_on_c, 1, 79, 84
2, 126780, Note_on_c, 1, 79, 0
2, 126780, Note_on_c, 1, 78, 84
2, 126824, Note_on_c, 1, 78, 0
2, 126840, Note_on_c, 1, 76, 89
2, 126883, Note_on_c, 1, 76, 0
2, 126900, Note_on_c, 1, 74, 89
2, 126938, Note_on_c, 1, 74, 0
2, 126960, Note_on_c, 1, 78, 86
2, 126997, Note_on_c, 1, 78, 0
2, 127020, Note_on_c, 1, 76, 79
2, 127059, Note_on_c, 1, 76, 0
2, 127080, Note_on_c, 1, 74, 93
2, 127111, Note_on_c, 1, 74, 0
2, 127140, Note_on_c, 1, 73, 74
2, 127177, Note_on_c, 1, 73, 0
2, 127200, Note_on_c, 1, 74, 120
2, 127416, Note_on_c, 1, 74, 0
2, 127547, Control_c, 1, 7, 111
2, 127560, Note_on_c, 1, 66, 89
2, 127598, Note_on_c, 1, 66, 0
2, 127618, Control_c, 1, 7, 110
2, 127620, Note_on_c, 1, 67, 79
2, 127645, Control_c, 1, 7, 108
2, 127661, Note_on_c, 1, 67, 0
2, 127680, Note_on_c, 1, 69, 74
2, 127736, Note_on_c, 1, 69, 0
2, 127800, Note_on_c, 1, 66, 69
2, 127837, Note_on_c, 1, 66, 0
2, 127860, Note_on_c, 1, 67, 64
2, 127907, Note_on_c, 1, 67, 0
2, 127920, Note_on_c, 1, 69, 79
2, 127972, Note_on_c, 1, 69, 0
2, 128040, Note_on_c, 1, 74, 74
2, 128095, Note_on_c, 1, 74, 0
2, 128160, Note_on_c, 1, 69, 74
2, 128211, Note_on_c, 1, 69, 0
2, 128280, Note_on_c, 1, 69, 79
2, 128321, Note_on_c, 1, 69, 0
2, 128340, Note_on_c, 1, 67, 74
2, 128381, Note_on_c, 1, 67, 0
2, 128400, Note_on_c, 1, 66, 69
2, 128481, Note_on_c, 1, 66, 0
2, 128520, Note_on_c, 1, 64, 66
2, 128559, Note_on_c, 1, 64, 0
2, 128580, Note_on_c, 1, 62, 66
2, 128627, Note_on_c, 1, 62, 0
2, 128780, Control_c, 1, 7, 107
2, 130358, Control_c, 1, 7, 109
2, 130526, Control_c, 1, 7, 110
2, 130560, Note_on_c, 1, 62, 117
2, 130776, Note_on_c, 1, 62, 0
2, 130800, Note_on_c, 1, 66, 126
2, 131016, Note_on_c, 1, 66, 0
2, 131040, Note_on_c, 1, 69, 79
2, 131256, Note_on_c, 1, 69, 0
2, 131400, Note_on_c, 1, 66, 124
2, 131433, Note_on_c, 1, 66, 0
2, 131460, Note_on_c, 1, 67, 84
2, 131499, Note_on_c, 1, 67, 0
2, 131520, Note_on_c, 1, 69, 123
2, 131578, Note_on_c, 1, 69, 0
2, 131640, Note_on_c, 1, 66, 105
2, 131672, Note_on_c, 1, 66, 0
2, 131700, Note_on_c, 1, 67, 105
2, 131732, Note_on_c, 1, 67, 0
2, 131760, Note_on_c, 1, 69, 123
2, 131814, Note_on_c, 1, 69, 0
2, 131880, Note_on_c, 1, 74, 91
2, 131945, Note_on_c, 1, 74, 0
2, 131983, Control_c, 1, 7, 108
2, 132000, Note_on_c, 1, 69, 84
2, 132058, Note_on_c, 1, 69, 0
2, 132120, Note_on_c, 1, 69, 117
2, 132161, Note_on_c, 1, 69, 0
2, 132180, Note_on_c, 1, 67, 74
2, 132231, Note_on_c, 1, 67, 0
2, 132240, Note_on_c, 1, 66, 111
2, 132310, Note_on_c, 1, 66, 0
2, 132360, Note_on_c, 1, 64, 93
2, 132402, Note_on_c, 1, 64, 0
2, 132420, Note_on_c, 1, 62, 93
2, 132463, Note_on_c, 1, 62, 0
2, 132480, Note_on_c, 1, 67, 93
2, 132486, Channel_aftertouch_c, 1, 6
2, 132495, Channel_aftertouch_c, 1, 0
2, 132497, Channel_aftertouch_c, 1, 3
2, 132505, Channel_aftertouch_c, 1, 0
2, 132508, Channel_aftertouch_c, 1, 1
2, 132516, Channel_aftertouch_c, 1, 0
2, 132519, Note_on_c, 1, 67, 0
2, 132540, Note_on_c, 1, 69, 93
2, 132581, Note_on_c, 1, 69, 0
2, 132600, Note_on_c, 1, 71, 89
2, 132639, Note_on_c, 1, 71, 0
2, 132660, Note_on_c, 1, 67, 99
2, 132693, Note_on_c, 1, 67, 0
2, 132720, Note_on_c, 1, 66, 102
2, 132760, Note_on_c, 1, 66, 0
2, 132780, Note_on_c, 1, 67, 81
2, 132820, Note_on_c, 1, 67, 0
2, 132840, Note_on_c, 1, 69, 86
2, 132876, Note_on_c, 1, 69, 0
2, 132876, Control_c, 1, 7, 109
2, 132900, Note_on_c, 1, 66, 84
2, 132940, Note_on_c, 1, 66, 0
2, 132960, Note_on_c, 1, 64, 81
2, 133176, Note_on_c, 1, 64, 0
2, 133353, Control_c, 1, 7, 108
2, 133391, Control_c, 1, 7, 107
2, 133440, Control_c, 1, 7, 105
2, 133440, Note_on_c, 1, 61, 48
2, 133656, Note_on_c, 1, 61, 0
2, 133690, Note_on_c, 1, 64, 55
2, 133906, Note_on_c, 1, 64, 0
2, 133930, Note_on_c, 1, 69, 30
2, 134146, Note_on_c, 1, 69, 0
2, 134400, Note_on_c, 1, 64, 14
2, 134616, Note_on_c, 1, 64, 0
2, 134640, Note_on_c, 1, 69, 35
2, 134856, Note_on_c, 1, 69, 0
2, 134880, Note_on_c, 1, 73, 22
2, 134955, Control_c, 1, 7, 104
2, 135096, Note_on_c, 1, 73, 0
2, 135593, Control_c, 1, 7, 106
2, 135632, Control_c, 1, 7, 107
2, 135644, Control_c, 1, 7, 109
2, 135696, Control_c, 1, 7, 110
2, 135720, Note_on_c, 1, 73, 89
2, 135752, Note_on_c, 1, 73, 0
2, 135780, Note_on_c, 1, 74, 99
2, 135823, Note_on_c, 1, 74, 0
2, 135840, Note_on_c, 1, 76, 99
2, 135895, Note_on_c, 1, 76, 0
2, 135960, Note_on_c, 1, 73, 124
2, 135997, Note_on_c, 1, 73, 0
2, 136020, Note_on_c, 1, 74, 124
2, 136061, Note_on_c, 1, 74, 0
2, 136080, Note_on_c, 1, 76, 111
2, 136129, Note_on_c, 1, 76, 0
2, 136200, Note_on_c, 1, 81, 77
2, 136258, Note_on_c, 1, 81, 0
2, 136320, Note_on_c, 1, 76, 126
2, 136372, Note_on_c, 1, 76, 0
2, 136440, Note_on_c, 1, 76, 99
2, 136476, Note_on_c, 1, 76, 0
2, 136500, Note_on_c, 1, 74, 102
2, 136545, Note_on_c, 1, 74, 0
2, 136560, Note_on_c, 1, 73, 102
2, 136629, Note_on_c, 1, 73, 0
2, 136680, Note_on_c, 1, 71, 96
2, 136722, Note_on_c, 1, 71, 0
2, 136740, Note_on_c, 1, 69, 58
2, 136784, Note_on_c, 1, 69, 0
2, 136800, Note_on_c, 1, 64, 14
2, 137026, Control_c, 1, 7, 108
2, 137061, Control_c, 1, 7, 107
2, 137195, Control_c, 1, 7, 105
2, 137331, Control_c, 1, 7, 104
2, 137952, Note_on_c, 1, 64, 0
2, 138273, Control_c, 1, 7, 102
2, 138821, Control_c, 1, 7, 103
2, 138840, Note_on_c, 1, 64, 35
2, 138887, Note_on_c, 1, 64, 0
2, 138949, Control_c, 1, 7, 104
2, 138992, Control_c, 1, 7, 106
2, 139080, Note_on_c, 1, 64, 22
2, 139085, Control_c, 1, 7, 107
2, 139132, Note_on_c, 1, 64, 0
2, 139135, Control_c, 1, 7, 109
2, 139320, Note_on_c, 1, 64, 30
2, 139373, Note_on_c, 1, 64, 0
2, 139388, Control_c, 1, 7, 108
2, 139419, Control_c, 1, 7, 107
2, 139560, Note_on_c, 1, 63, 35
2, 139612, Note_on_c, 1, 63, 0
2, 139613, Control_c, 1, 7, 109
2, 139680, Note_on_c, 1, 64, 18
2, 140112, Note_on_c, 1, 64, 0
2, 140160, Note_on_c, 1, 76, 96
2, 140185, Note_on_c, 1, 76, 0
2, 140220, Note_on_c, 1, 76, 84
2, 140243, Note_on_c, 1, 76, 0
2, 140280, Note_on_c, 1, 76, 124
2, 140303, Note_on_c, 1, 76, 0
2, 140312, Control_c, 1, 7, 110
2, 140340, Note_on_c, 1, 76, 123
2, 140362, Note_on_c, 1, 76, 0
2, 140400, Note_on_c, 1, 76, 126
2, 140422, Note_on_c, 1, 76, 0
2, 140460, Note_on_c, 1, 76, 93
2, 140464, Control_c, 1, 7, 112
2, 140481, Note_on_c, 1, 76, 0
2, 140511, Control_c, 1, 7, 113
2, 140520, Note_on_c, 1, 76, 114
2, 140540, Note_on_c, 1, 76, 0
2, 140580, Note_on_c, 1, 76, 127
2, 140599, Note_on_c, 1, 76, 0
2, 140640, Note_on_c, 1, 76, 127
2, 140695, Note_on_c, 1, 76, 0
2, 140824, Control_c, 1, 7, 111
2, 140858, Control_c, 1, 7, 110
2, 140892, Control_c, 1, 7, 108
2, 140952, Control_c, 1, 7, 107
2, 141120, Note_on_c, 1, 74, 127
2, 141146, Note_on_c, 1, 74, 0
2, 141180, Note_on_c, 1, 74, 111
2, 141209, Note_on_c, 1, 74, 0
2, 141236, Control_c, 1, 7, 109
2, 141240, Note_on_c, 1, 74, 111
2, 141266, Note_on_c, 1, 74, 0
2, 141275, Control_c, 1, 7, 110
2, 141300, Note_on_c, 1, 74, 117
2, 141326, Note_on_c, 1, 74, 0
2, 141360, Note_on_c, 1, 74, 93
2, 141384, Note_on_c, 1, 74, 0
2, 141420, Note_on_c, 1, 74, 96
2, 141433, Control_c, 1, 7, 112
2, 141443, Note_on_c, 1, 74, 0
2, 141470, Control_c, 1, 7, 113
2, 141480, Note_on_c, 1, 74, 93
2, 141502, Note_on_c, 1, 74, 0
2, 141540, Note_on_c, 1, 74, 84
2, 141559, Note_on_c, 1, 74, 0
2, 141600, Note_on_c, 1, 74, 127
2, 141718, Control_c, 1, 7, 111
2, 141816, Note_on_c, 1, 74, 0
2, 141860, Control_c, 1, 7, 110
2, 141880, Control_c, 1, 7, 108
2, 141946, Control_c, 1, 7, 107
2, 142080, Note_on_c, 1, 73, 108
2, 142109, Note_on_c, 1, 73, 0
2, 142140, Note_on_c, 1, 73, 93
2, 142167, Note_on_c, 1, 73, 0
2, 142200, Note_on_c, 1, 73, 74
2, 142226, Note_on_c, 1, 73, 0
2, 142260, Note_on_c, 1, 73, 105
2, 142271, Control_c, 1, 7, 109
2, 142284, Note_on_c, 1, 73, 0
2, 142320, Note_on_c, 1, 73, 120
2, 142345, Note_on_c, 1, 73, 0
2, 142380, Note_on_c, 1, 73, 99
2, 142387, Control_c, 1, 7, 110
2, 142402, Note_on_c, 1, 73, 0
2, 142440, Note_on_c, 1, 73, 111
2, 142463, Note_on_c, 1, 73, 0
2, 142500, Note_on_c, 1, 73, 127
2, 142521, Note_on_c, 1, 73, 0
2, 142560, Note_on_c, 1, 74, 93
2, 142599, Note_on_c, 1, 74, 0
2, 142620, Note_on_c, 1, 76, 89
2, 142655, Note_on_c, 1, 76, 0
2, 142680, Note_on_c, 1, 78, 108
2, 142709, Note_on_c, 1, 78, 0
2, 142740, Note_on_c, 1, 74, 126
2, 142782, Note_on_c, 1, 74, 0
2, 142800, Note_on_c, 1, 73, 93
2, 142831, Note_on_c, 1, 73, 0
2, 142831, Control_c, 1, 7, 108
2, 142860, Note_on_c, 1, 74, 117
2, 142893, Note_on_c, 1, 74, 0
2, 142920, Note_on_c, 1, 76, 89
2, 142958, Note_on_c, 1, 76, 0
2, 142978, Control_c, 1, 7, 107
2, 142980, Note_on_c, 1, 73, 96
2, 143013, Note_on_c, 1, 73, 0
2, 143040, Note_on_c, 1, 71, 105
2, 143079, Note_on_c, 1, 71, 0
2, 143100, Note_on_c, 1, 73, 84
2, 143133, Control_c, 1, 7, 105
2, 143134, Note_on_c, 1, 73, 0
2, 143160, Note_on_c, 1, 74, 86
2, 143172, Control_c, 1, 7, 104
2, 143193, Note_on_c, 1, 74, 0
2, 143220, Note_on_c, 1, 73, 1
2, 143225, Note_on_c, 1, 73, 0
2, 143280, Note_on_c, 1, 69, 81
2, 143312, Note_on_c, 1, 69, 0
2, 143340, Note_on_c, 1, 71, 72
2, 143349, Control_c, 1, 7, 102
2, 143375, Note_on_c, 1, 71, 0
2, 143400, Note_on_c, 1, 73, 89
2, 143430, Note_on_c, 1, 73, 0
2, 143460, Note_on_c, 1, 69, 117
2, 143490, Note_on_c, 1, 69, 0
2, 143520, Note_on_c, 1, 68, 111
2, 143553, Note_on_c, 1, 68, 0
2, 143580, Note_on_c, 1, 69, 93
2, 143616, Note_on_c, 1, 69, 0
2, 143640, Note_on_c, 1, 71, 84
2, 143676, Note_on_c, 1, 71, 0
2, 143700, Note_on_c, 1, 68, 77
2, 143718, Control_c, 1, 7, 101
2, 143738, Note_on_c, 1, 68, 0
2, 143760, Note_on_c, 1, 62, 102
2, 143798, Note_on_c, 1, 62, 0
2, 143820, Note_on_c, 1, 64, 93
2, 143854, Note_on_c, 1, 64, 0
2, 143880, Note_on_c, 1, 66, 72
2, 143917, Note_on_c, 1, 66, 0
2, 143940, Note_on_c, 1, 62, 102
2, 143972, Note_on_c, 1, 62, 0
2, 144000, Note_on_c, 1, 59, 89
2, 144040, Note_on_c, 1, 59, 0
2, 144060, Note_on_c, 1, 61, 84
2, 144096, Note_on_c, 1, 61, 0
2, 144120, Note_on_c, 1, 62, 81
2, 144163, Note_on_c, 1, 62, 0
2, 144180, Note_on_c, 1, 59, 81
2, 144212, Note_on_c, 1, 59, 0
2, 144240, Note_on_c, 1, 56, 74
2, 144282, Note_on_c, 1, 56, 0
2, 144300, Note_on_c, 1, 57, 86
2, 144340, Note_on_c, 1, 57, 0
2, 144360, Note_on_c, 1, 59, 81
2, 144400, Note_on_c, 1, 59, 0
2, 144420, Note_on_c, 1, 61, 102
2, 144457, Note_on_c, 1, 61, 0
2, 144480, Note_on_c, 1, 62, 102
2, 144530, Note_on_c, 1, 62, 0
2, 144540, Note_on_c, 1, 64, 58
2, 144582, Note_on_c, 1, 64, 0
2, 144600, Note_on_c, 1, 66, 84
2, 144648, Note_on_c, 1, 66, 0
2, 144660, Note_on_c, 1, 68, 72
2, 144704, Note_on_c, 1, 68, 0
2, 144720, Note_on_c, 1, 69, 111
2, 144777, Note_on_c, 1, 69, 0
2, 144780, Note_on_c, 1, 71, 69
2, 144791, Control_c, 1, 7, 103
2, 144837, Note_on_c, 1, 71, 0
2, 144840, Note_on_c, 1, 73, 66
2, 144897, Note_on_c, 1, 73, 0
2, 144913, Control_c, 1, 7, 104
2, 144920, Note_on_c, 1, 74, 74
2, 144939, Control_c, 1, 7, 106
2, 144940, Note_on_c, 1, 76, 96
2, 144949, Note_on_c, 1, 74, 0
2, 144960, Note_on_c, 1, 73, 77
2, 144969, Note_on_c, 1, 76, 0
2, 144974, Control_c, 1, 7, 107
2, 145050, Note_on_c, 1, 73, 0
2, 145080, Note_on_c, 1, 71, 74
2, 145123, Note_on_c, 1, 71, 0
2, 145140, Note_on_c, 1, 69, 72
2, 145179, Note_on_c, 1, 69, 0
2, 145200, Note_on_c, 1, 71, 93
2, 145230, Control_c, 1, 7, 109
2, 145279, Note_on_c, 1, 71, 0
2, 145320, Note_on_c, 1, 69, 93
2, 145356, Note_on_c, 1, 69, 0
2, 145380, Note_on_c, 1, 68, 66
2, 145386, Control_c, 1, 7, 110
2, 145419, Note_on_c, 1, 68, 0
2, 145440, Note_on_c, 1, 69, 93
2, 145656, Note_on_c, 1, 69, 0
2, 146040, Note_on_c, 1, 64, 58
2, 146076, Note_on_c, 1, 64, 0
2, 146100, Note_on_c, 1, 64, 35
2, 146138, Note_on_c, 1, 64, 0
2, 146160, Note_on_c, 1, 66, 61
2, 146187, Note_on_c, 1, 66, 0
2, 146220, Note_on_c, 1, 66, 43
2, 146256, Note_on_c, 1, 66, 0
2, 146280, Note_on_c, 1, 68, 48
2, 146309, Note_on_c, 1, 68, 0
2, 146340, Note_on_c, 1, 68, 43
2, 146370, Control_c, 1, 7, 112
2, 146375, Note_on_c, 1, 68, 0
2, 146398, Control_c, 1, 7, 113
2, 146400, Note_on_c, 1, 69, 35
2, 146616, Note_on_c, 1, 69, 0
2, 147480, Note_on_c, 1, 64, 55
2, 147509, Note_on_c, 1, 64, 0
2, 147536, Control_c, 1, 7, 111
2, 147540, Note_on_c, 1, 64, 64
2, 147580, Note_on_c, 1, 64, 0
2, 147600, Note_on_c, 1, 66, 77
2, 147638, Note_on_c, 1, 66, 0
2, 147660, Note_on_c, 1, 66, 66
2, 147695, Note_on_c, 1, 66, 0
2, 147720, Note_on_c, 1, 68, 61
2, 147753, Note_on_c, 1, 68, 0
2, 147780, Note_on_c, 1, 68, 61
2, 147819, Note_on_c, 1, 68, 0
2, 147840, Note_on_c, 1, 69, 66
2, 147872, Note_on_c, 1, 69, 0
2, 147900, Note_on_c, 1, 69, 55
2, 147939, Note_on_c, 1, 69, 0
2, 147960, Note_on_c, 1, 64, 96
2, 147992, Note_on_c, 1, 64, 0
2, 148020, Note_on_c, 1, 64, 93
2, 148060, Note_on_c, 1, 64, 0
2, 148080, Note_on_c, 1, 66, 102
2, 148111, Note_on_c, 1, 66, 0
2, 148140, Note_on_c, 1, 66, 81
2, 148176, Note_on_c, 1, 66, 0
2, 148200, Note_on_c, 1, 68, 111
2, 148231, Note_on_c, 1, 68, 0
2, 148260, Note_on_c, 1, 68, 96
2, 148295, Note_on_c, 1, 68, 0
2, 148320, Note_on_c, 1, 69, 99
2, 148363, Note_on_c, 1, 69, 0
2, 148380, Note_on_c, 1, 71, 96
2, 148418, Note_on_c, 1, 71, 0
2, 148440, Note_on_c, 1, 73, 84
2, 148476, Note_on_c, 1, 73, 0
2, 148500, Note_on_c, 1, 69, 84
2, 148535, Note_on_c, 1, 69, 0
2, 148560, Note_on_c, 1, 74, 108
2, 148596, Note_on_c, 1, 74, 0
2, 148620, Note_on_c, 1, 71, 89
2, 148660, Note_on_c, 1, 71, 0
2, 148680, Note_on_c, 1, 76, 81
2, 148763, Note_on_c, 1, 76, 0
2, 148800, Note_on_c, 1, 74, 96
2, 148838, Note_on_c, 1, 74, 0
2, 148860, Note_on_c, 1, 73, 96
2, 148894, Note_on_c, 1, 73, 0
2, 148920, Note_on_c, 1, 71, 81
2, 148961, Note_on_c, 1, 71, 0
2, 148980, Note_on_c, 1, 69, 77
2, 149013, Note_on_c, 1, 69, 0
2, 149040, Note_on_c, 1, 73, 127
2, 149072, Note_on_c, 1, 73, 0
2, 149100, Note_on_c, 1, 71, 84
2, 149138, Note_on_c, 1, 71, 0
2, 149160, Note_on_c, 1, 69, 102
2, 149191, Note_on_c, 1, 69, 0
2, 149220, Note_on_c, 1, 68, 91
2, 149258, Note_on_c, 1, 68, 0
2, 149280, Note_on_c, 1, 69, 120
2, 149496, Note_on_c, 1, 69, 0
2, 149760, Note_on_c, 1, 62, 120
2, 149976, Note_on_c, 1, 62, 0
2, 150000, Note_on_c, 1, 66, 127
2, 150216, Note_on_c, 1, 66, 0
2, 150240, Note_on_c, 1, 69, 108
2, 150456, Note_on_c, 1, 69, 0
2, 150720, Control_c, 1, 7, 110
2, 150720, Note_on_c, 1, 66, 30
2, 150740, Control_c, 1, 7, 108
2, 150771, Control_c, 1, 7, 107
2, 150936, Note_on_c, 1, 66, 0
2, 150971, Control_c, 1, 7, 105
2, 151059, Note_on_c, 1, 69, 35
2, 151275, Note_on_c, 1, 69, 0
2, 151299, Note_on_c, 1, 74, 22
2, 151515, Note_on_c, 1, 74, 0
2, 151680, Note_on_c, 1, 69, 3
2, 151896, Note_on_c, 1, 69, 0
2, 151920, Note_on_c, 1, 74, 8
2, 152136, Note_on_c, 1, 74, 0
2, 152160, Note_on_c, 1, 78, 1
2, 152376, Note_on_c, 1, 78, 0
2, 153000, Note_on_c, 1, 66, 127
2, 153038, Note_on_c, 1, 66, 0
2, 153048, Channel_aftertouch_c, 1, 6
2, 153057, Channel_aftertouch_c, 1, 0
2, 153059, Channel_aftertouch_c, 1, 3
2, 153060, Note_on_c, 1, 67, 111
2, 153067, Channel_aftertouch_c, 1, 0
2, 153070, Channel_aftertouch_c, 1, 1
2, 153078, Channel_aftertouch_c, 1, 0
2, 153101, Note_on_c, 1, 67, 0
2, 153120, Note_on_c, 1, 69, 96
2, 153179, Note_on_c, 1, 69, 0
2, 153240, Note_on_c, 1, 66, 111
2, 153274, Note_on_c, 1, 66, 0
2, 153287, Control_c, 1, 7, 106
2, 153300, Note_on_c, 1, 67, 96
2, 153339, Note_on_c, 1, 67, 0
2, 153360, Note_on_c, 1, 69, 111
2, 153376, Control_c, 1, 7, 107
2, 153409, Note_on_c, 1, 69, 0
2, 153480, Note_on_c, 1, 74, 77
2, 153481, Control_c, 1, 7, 109
2, 153539, Note_on_c, 1, 74, 0
2, 153600, Note_on_c, 1, 69, 86
2, 153654, Note_on_c, 1, 69, 0
2, 153720, Note_on_c, 1, 69, 74
2, 153749, Note_on_c, 1, 69, 0
2, 153780, Note_on_c, 1, 67, 84
2, 153827, Note_on_c, 1, 67, 0
2, 153840, Note_on_c, 1, 66, 91
2, 153912, Note_on_c, 1, 66, 0
2, 153960, Note_on_c, 1, 64, 112
2, 154000, Note_on_c, 1, 64, 0
2, 154020, Note_on_c, 1, 62, 74
2, 154050, Note_on_c, 1, 62, 0
2, 154080, Note_on_c, 1, 57, 18
2, 154774, Control_c, 1, 7, 108
2, 155232, Note_on_c, 1, 57, 0
2, 156120, Note_on_c, 1, 69, 35
2, 156175, Control_c, 1, 7, 109
2, 156183, Note_on_c, 1, 69, 0
2, 156360, Note_on_c, 1, 69, 8
2, 156423, Note_on_c, 1, 69, 0
2, 156568, Control_c, 1, 7, 108
2, 156600, Note_on_c, 1, 69, 35
2, 156651, Control_c, 1, 7, 107
2, 156667, Note_on_c, 1, 69, 0
2, 156726, Control_c, 1, 7, 104
2, 156840, Note_on_c, 1, 68, 11
2, 156872, Control_c, 1, 7, 106
2, 156891, Note_on_c, 1, 68, 0
2, 156895, Control_c, 1, 7, 107
2, 156925, Control_c, 1, 7, 105
2, 156947, Control_c, 1, 7, 109
2, 156960, Note_on_c, 1, 69, 30
2, 157176, Note_on_c, 1, 69, 0
2, 157440, Note_on_c, 1, 81, 127
2, 157464, Note_on_c, 1, 81, 0
2, 157472, Control_c, 1, 7, 110
2, 157500, Note_on_c, 1, 81, 126
2, 157526, Note_on_c, 1, 81, 0
2, 157560, Note_on_c, 1, 81, 127
2, 157583, Note_on_c, 1, 81, 0
2, 157607, Control_c, 1, 7, 112
2, 157620, Note_on_c, 1, 81, 125
2, 157645, Note_on_c, 1, 81, 0
2, 157680, Note_on_c, 1, 81, 127
2, 157703, Note_on_c, 1, 81, 0
2, 157740, Note_on_c, 1, 81, 102
2, 157763, Note_on_c, 1, 81, 0
2, 157800, Note_on_c, 1, 81, 123
2, 157805, Channel_aftertouch_c, 1, 0
2, 157807, Channel_aftertouch_c, 1, 3
2, 157815, Channel_aftertouch_c, 1, 0
2, 157817, Channel_aftertouch_c, 1, 1
2, 157822, Note_on_c, 1, 81, 0
2, 157826, Channel_aftertouch_c, 1, 0
2, 157860, Note_on_c, 1, 81, 127
2, 157881, Note_on_c, 1, 81, 0
2, 157915, Control_c, 1, 7, 113
2, 157916, Channel_aftertouch_c, 1, 6
2, 157920, Note_on_c, 1, 81, 127
2, 157930, Control_c, 1, 7, 111
2, 157952, Control_c, 1, 7, 110
2, 158001, Control_c, 1, 7, 108
2, 158136, Note_on_c, 1, 81, 0
2, 158181, Control_c, 1, 7, 107
2, 158242, Control_c, 1, 7, 105
2, 158255, Control_c, 1, 7, 104
2, 158269, Control_c, 1, 7, 102
2, 158326, Control_c, 1, 7, 101
2, 158400, Note_on_c, 1, 79, 127
2, 158427, Note_on_c, 1, 79, 0
2, 158460, Note_on_c, 1, 79, 96
2, 158463, Control_c, 1, 7, 103
2, 158485, Note_on_c, 1, 79, 0
2, 158520, Note_on_c, 1, 79, 117
2, 158546, Note_on_c, 1, 79, 0
2, 158580, Note_on_c, 1, 79, 84
2, 158600, Control_c, 1, 7, 104
2, 158604, Note_on_c, 1, 79, 0
2, 158640, Note_on_c, 1, 79, 127
2, 158646, Control_c, 1, 7, 106
2, 158664, Note_on_c, 1, 79, 0
2, 158683, Control_c, 1, 7, 107
2, 158700, Note_on_c, 1, 79, 124
2, 158714, Control_c, 1, 7, 109
2, 158724, Note_on_c, 1, 79, 0
2, 158760, Note_on_c, 1, 79, 123
2, 158780, Note_on_c, 1, 79, 0
2, 158820, Note_on_c, 1, 79, 126
2, 158842, Note_on_c, 1, 79, 0
2, 158871, Control_c, 1, 7, 110
2, 158880, Note_on_c, 1, 79, 127
2, 158945, Control_c, 1, 7, 108
2, 158953, Control_c, 1, 7, 107
2, 158999, Control_c, 1, 7, 105
2, 159096, Note_on_c, 1, 79, 0
2, 159144, Control_c, 1, 7, 104
2, 159175, Control_c, 1, 7, 102
2, 159204, Control_c, 1, 7, 101
2, 159274, Control_c, 1, 7, 99
2, 159296, Control_c, 1, 7, 98
2, 159360, Note_on_c, 1, 78, 127
2, 159387, Note_on_c, 1, 78, 0
2, 159420, Note_on_c, 1, 78, 89
2, 159448, Note_on_c, 1, 78, 0
2, 159480, Note_on_c, 1, 78, 126
2, 159506, Control_c, 1, 7, 100
2, 159507, Note_on_c, 1, 78, 0
2, 159531, Control_c, 1, 7, 101
2, 159540, Note_on_c, 1, 78, 120
2, 159552, Control_c, 1, 7, 103
2, 159564, Note_on_c, 1, 78, 0
2, 159577, Control_c, 1, 7, 104
2, 159599, Channel_aftertouch_c, 1, 6
2, 159600, Note_on_c, 1, 78, 120
2, 159602, Control_c, 1, 7, 106
2, 159608, Channel_aftertouch_c, 1, 0
2, 159610, Channel_aftertouch_c, 1, 3
2, 159618, Channel_aftertouch_c, 1, 0
2, 159620, Channel_aftertouch_c, 1, 1
2, 159620, Channel_aftertouch_c, 1, 0
2, 159625, Note_on_c, 1, 78, 0
2, 159638, Control_c, 1, 7, 107
2, 159660, Note_on_c, 1, 78, 117
2, 159685, Note_on_c, 1, 78, 0
2, 159695, Control_c, 1, 7, 109
2, 159720, Note_on_c, 1, 78, 108
2, 159747, Note_on_c, 1, 78, 0
2, 159777, Control_c, 1, 7, 110
2, 159780, Note_on_c, 1, 78, 117
2, 159805, Note_on_c, 1, 78, 0
2, 159840, Note_on_c, 1, 79, 125
2, 159869, Note_on_c, 1, 79, 0
2, 159900, Note_on_c, 1, 81, 117
2, 159929, Note_on_c, 1, 81, 0
2, 159960, Note_on_c, 1, 83, 114
2, 159987, Note_on_c, 1, 83, 0
2, 160020, Note_on_c, 1, 79, 117
2, 160046, Note_on_c, 1, 79, 0
2, 160080, Note_on_c, 1, 78, 108
2, 160112, Note_on_c, 1, 78, 0
2, 160140, Note_on_c, 1, 79, 108
2, 160171, Note_on_c, 1, 79, 0
2, 160200, Note_on_c, 1, 81, 77
2, 160230, Note_on_c, 1, 81, 0
2, 160260, Note_on_c, 1, 78, 105
2, 160287, Note_on_c, 1, 78, 0
2, 160320, Note_on_c, 1, 76, 117
2, 160350, Control_c, 1, 7, 108
2, 160352, Note_on_c, 1, 76, 0
2, 160380, Note_on_c, 1, 78, 111
2, 160406, Control_c, 1, 7, 107
2, 160407, Note_on_c, 1, 78, 0
2, 160440, Note_on_c, 1, 79, 89
2, 160468, Note_on_c, 1, 79, 0
2, 160500, Note_on_c, 1, 76, 111
2, 160526, Note_on_c, 1, 76, 0
2, 160560, Note_on_c, 1, 74, 114
2, 160591, Note_on_c, 1, 74, 0
2, 160620, Note_on_c, 1, 76, 84
2, 160648, Note_on_c, 1, 76, 0
2, 160680, Note_on_c, 1, 78, 114
2, 160709, Note_on_c, 1, 78, 0
2, 160740, Note_on_c, 1, 74, 102
2, 160767, Note_on_c, 1, 74, 0
2, 160800, Note_on_c, 1, 73, 81
2, 160833, Note_on_c, 1, 73, 0
2, 160860, Note_on_c, 1, 74, 111
2, 160895, Note_on_c, 1, 74, 0
2, 160920, Note_on_c, 1, 76, 102
2, 160949, Note_on_c, 1, 76, 0
2, 160950, Control_c, 1, 7, 105
2, 160980, Note_on_c, 1, 73, 96
2, 161002, Note_on_c, 1, 73, 0
2, 161040, Note_on_c, 1, 67, 84
2, 161075, Note_on_c, 1, 67, 0
2, 161086, Channel_aftertouch_c, 1, 6
2, 161094, Channel_aftertouch_c, 1, 0
2, 161097, Channel_aftertouch_c, 1, 3
2, 161100, Note_on_c, 1, 69, 84
2, 161105, Channel_aftertouch_c, 1, 0
2, 161107, Channel_aftertouch_c, 1, 1
2, 161114, Channel_aftertouch_c, 1, 0
2, 161131, Note_on_c, 1, 69, 0
2, 161160, Note_on_c, 1, 71, 111
2, 161189, Note_on_c, 1, 71, 0
2, 161220, Note_on_c, 1, 67, 102
2, 161247, Note_on_c, 1, 67, 0
2, 161280, Note_on_c, 1, 64, 89
2, 161312, Note_on_c, 1, 64, 0
2, 161340, Note_on_c, 1, 66, 111
2, 161354, Control_c, 1, 7, 104
2, 161363, Control_c, 1, 7, 102
2, 161373, Note_on_c, 1, 66, 0
2, 161383, Control_c, 1, 7, 101
2, 161400, Note_on_c, 1, 67, 102
2, 161427, Note_on_c, 1, 67, 0
2, 161460, Note_on_c, 1, 64, 111
2, 161487, Note_on_c, 1, 64, 0
2, 161520, Note_on_c, 1, 61, 86
2, 161551, Note_on_c, 1, 61, 0
2, 161580, Note_on_c, 1, 62, 93
2, 161613, Note_on_c, 1, 62, 0
2, 161640, Note_on_c, 1, 64, 96
2, 161665, Note_on_c, 1, 64, 0
2, 161700, Note_on_c, 1, 61, 81
2, 161727, Note_on_c, 1, 61, 0
2, 161757, Control_c, 1, 7, 99
2, 161760, Note_on_c, 1, 57, 84
2, 161976, Note_on_c, 1, 57, 0
2, 162120, Note_on_c, 1, 76, 111
2, 162123, Control_c, 1, 7, 100
2, 162168, Control_c, 1, 7, 101
2, 162180, Note_on_c, 1, 78, 64
2, 162184, Note_on_c, 1, 76, 0
2, 162202, Note_on_c, 1, 78, 0
2, 162210, Note_on_c, 1, 79, 96
2, 162236, Note_on_c, 1, 79, 0
2, 162240, Note_on_c, 1, 78, 96
2, 162267, Control_c, 1, 7, 103
2, 162331, Note_on_c, 1, 78, 0
2, 162360, Note_on_c, 1, 76, 111
2, 162393, Note_on_c, 1, 76, 0
2, 162420, Note_on_c, 1, 74, 108
2, 162447, Note_on_c, 1, 74, 0
2, 162480, Note_on_c, 1, 76, 89
2, 162520, Control_c, 1, 7, 104
2, 162549, Note_on_c, 1, 76, 0
2, 162600, Note_on_c, 1, 74, 127
2, 162634, Note_on_c, 1, 74, 0
2, 162660, Note_on_c, 1, 73, 77
2, 162698, Note_on_c, 1, 73, 0
2, 162720, Note_on_c, 1, 74, 127
2, 162762, Control_c, 1, 7, 106
2, 162936, Note_on_c, 1, 74, 0
2, 163320, Note_on_c, 1, 69, 69
2, 163352, Note_on_c, 1, 69, 0
2, 163380, Note_on_c, 1, 69, 55
2, 163421, Note_on_c, 1, 69, 0
2, 163440, Note_on_c, 1, 71, 74
2, 163473, Note_on_c, 1, 71, 0
2, 163500, Note_on_c, 1, 71, 66
2, 163531, Note_on_c, 1, 71, 0
2, 163560, Note_on_c, 1, 73, 51
2, 163565, Control_c, 1, 7, 107
2, 163591, Note_on_c, 1, 73, 0
2, 163620, Note_on_c, 1, 73, 51
2, 163655, Note_on_c, 1, 73, 0
2, 163680, Note_on_c, 1, 74, 64
2, 163689, Control_c, 1, 7, 109
2, 163896, Note_on_c, 1, 74, 0
2, 164266, Control_c, 1, 7, 110
2, 164756, Control_c, 1, 7, 108
2, 164760, Note_on_c, 1, 69, 96
2, 164784, Control_c, 1, 7, 107
2, 164791, Note_on_c, 1, 69, 0
2, 164820, Note_on_c, 1, 69, 89
2, 164862, Note_on_c, 1, 69, 0
2, 164880, Note_on_c, 1, 71, 89
2, 164913, Note_on_c, 1, 71, 0
2, 164940, Note_on_c, 1, 71, 74
2, 164976, Note_on_c, 1, 71, 0
2, 165000, Note_on_c, 1, 73, 64
2, 165007, Control_c, 1, 7, 109
2, 165031, Note_on_c, 1, 73, 0
2, 165060, Note_on_c, 1, 73, 81
2, 165094, Note_on_c, 1, 73, 0
2, 165120, Note_on_c, 1, 74, 66
2, 165151, Note_on_c, 1, 74, 0
2, 165180, Note_on_c, 1, 74, 84
2, 165209, Control_c, 1, 7, 110
2, 165211, Note_on_c, 1, 74, 0
2, 165240, Note_on_c, 1, 69, 127
2, 165269, Note_on_c, 1, 69, 0
2, 165300, Note_on_c, 1, 69, 108
2, 165338, Note_on_c, 1, 69, 0
2, 165360, Note_on_c, 1, 71, 120
2, 165393, Note_on_c, 1, 71, 0
2, 165420, Note_on_c, 1, 71, 96
2, 165460, Note_on_c, 1, 71, 0
2, 165480, Note_on_c, 1, 73, 111
2, 165512, Note_on_c, 1, 73, 0
2, 165540, Note_on_c, 1, 73, 96
2, 165577, Note_on_c, 1, 73, 0
2, 165600, Note_on_c, 1, 74, 123
2, 165641, Note_on_c, 1, 74, 0
2, 165660, Note_on_c, 1, 76, 111
2, 165697, Note_on_c, 1, 76, 0
2, 165720, Note_on_c, 1, 78, 114
2, 165749, Control_c, 1, 7, 112
2, 165760, Note_on_c, 1, 78, 0
2, 165780, Note_on_c, 1, 74, 111
2, 165791, Control_c, 1, 7, 113
2, 165821, Note_on_c, 1, 74, 0
2, 165840, Note_on_c, 1, 79, 86
2, 165877, Note_on_c, 1, 79, 0
2, 165900, Note_on_c, 1, 76, 89
2, 165942, Note_on_c, 1, 76, 0
2, 165960, Note_on_c, 1, 81, 120
2, 166046, Note_on_c, 1, 81, 0
2, 166080, Note_on_c, 1, 79, 117
2, 166114, Note_on_c, 1, 79, 0
2, 166136, Control_c, 1, 7, 115
2, 166140, Note_on_c, 1, 78, 108
2, 166176, Note_on_c, 1, 78, 0
2, 166200, Note_on_c, 1, 76, 89
2, 166239, Note_on_c, 1, 76, 0
2, 166260, Note_on_c, 1, 74, 120
2, 166296, Note_on_c, 1, 74, 0
2, 166320, Note_on_c, 1, 78, 123
2, 166356, Note_on_c, 1, 78, 0
2, 166380, Note_on_c, 1, 76, 89
2, 166422, Note_on_c, 1, 76, 0
2, 166440, Note_on_c, 1, 74, 111
2, 166466, Note_on_c, 1, 74, 0
2, 166500, Note_on_c, 1, 73, 108
2, 166534, Note_on_c, 1, 73, 0
2, 166560, Note_on_c, 1, 74, 96
2, 166609, Control_c, 1, 7, 114
2, 166799, Note_on_c, 1, 74, 0
2, 166799, End_track
3, 0, Start_track
3, 0, Title_t, "Violin 2  "
3, 0, Program_c, 1, 40
3, 0, Control_c, 1, 7, 127
3, 0, Note_on_c, 1, 57, 111
3, 3, Channel_aftertouch_c, 1, 64
3, 15, Channel_aftertouch_c, 1, 32
3, 27, Channel_aftertouch_c, 1, 16
3, 39, Channel_aftertouch_c, 1, 8
3, 51, Channel_aftertouch_c, 1, 4
3, 63, Channel_aftertouch_c, 1, 2
3, 75, Channel_aftertouch_c, 1, 1
3, 113, Note_on_c, 1, 57, 0
3, 240, Note_on_c, 1, 62, 127
3, 250, Channel_aftertouch_c, 1, 18
3, 254, Channel_aftertouch_c, 1, 0
3, 256, Channel_aftertouch_c, 1, 9
3, 266, Channel_aftertouch_c, 1, 0
3, 268, Channel_aftertouch_c, 1, 4
3, 278, Channel_aftertouch_c, 1, 0
3, 280, Channel_aftertouch_c, 1, 2
3, 290, Channel_aftertouch_c, 1, 0
3, 293, Channel_aftertouch_c, 1, 1
3, 302, Channel_aftertouch_c, 1, 0
3, 353, Note_on_c, 1, 62, 0
3, 480, Note_on_c, 1, 66, 127
3, 593, Note_on_c, 1, 66, 0
3, 840, Note_on_c, 1, 62, 81
3, 872, Note_on_c, 1, 62, 0
3, 900, Note_on_c, 1, 64, 81
3, 930, Note_on_c, 1, 64, 0
3, 960, Note_on_c, 1, 66, 127
3, 1007, Note_on_c, 1, 66, 0
3, 1080, Note_on_c, 1, 62, 84
3, 1118, Note_on_c, 1, 62, 0
3, 1140, Note_on_c, 1, 64, 89
3, 1178, Note_on_c, 1, 64, 0
3, 1200, Note_on_c, 1, 66, 72
3, 1250, Note_on_c, 1, 66, 0
3, 1320, Note_on_c, 1, 69, 84
3, 1370, Note_on_c, 1, 69, 0
3, 1440, Note_on_c, 1, 66, 84
3, 1490, Note_on_c, 1, 66, 0
3, 1560, Note_on_c, 1, 62, 58
3, 1609, Note_on_c, 1, 62, 0
3, 1680, Note_on_c, 1, 62, 74
3, 1732, Note_on_c, 1, 62, 0
3, 1800, Note_on_c, 1, 66, 43
3, 2036, Note_on_c, 1, 66, 0
3, 2040, Note_on_c, 1, 64, 30
3, 2262, Note_on_c, 1, 64, 0
3, 2280, Note_on_c, 1, 62, 30
3, 2385, Note_on_c, 1, 62, 0
3, 2400, Note_on_c, 1, 61, 66
3, 2616, Note_on_c, 1, 61, 0
3, 2880, Note_on_c, 1, 73, 30
3, 2910, Note_on_c, 1, 73, 0
3, 2940, Note_on_c, 1, 73, 64
3, 2974, Note_on_c, 1, 73, 0
3, 3000, Note_on_c, 1, 73, 89
3, 3033, Note_on_c, 1, 73, 0
3, 3060, Note_on_c, 1, 73, 77
3, 3089, Note_on_c, 1, 73, 0
3, 3119, Channel_aftertouch_c, 1, 38
3, 3120, Note_on_c, 1, 73, 127
3, 3129, Channel_aftertouch_c, 1, 0
3, 3131, Channel_aftertouch_c, 1, 19
3, 3141, Channel_aftertouch_c, 1, 0
3, 3143, Channel_aftertouch_c, 1, 9
3, 3145, Channel_aftertouch_c, 1, 0
3, 3148, Note_on_c, 1, 73, 0
3, 3180, Note_on_c, 1, 73, 127
3, 3209, Note_on_c, 1, 73, 0
3, 3240, Note_on_c, 1, 73, 127
3, 3252, Channel_aftertouch_c, 1, 6
3, 3265, Channel_aftertouch_c, 1, 3
3, 3267, Note_on_c, 1, 73, 0
3, 3276, Channel_aftertouch_c, 1, 1
3, 3300, Note_on_c, 1, 73, 127
3, 3327, Note_on_c, 1, 73, 0
3, 3360, Note_on_c, 1, 71, 127
3, 3473, Note_on_c, 1, 71, 0
3, 3840, Note_on_c, 1, 71, 127
3, 3866, Note_on_c, 1, 71, 0
3, 3900, Note_on_c, 1, 71, 72
3, 3926, Note_on_c, 1, 71, 0
3, 3960, Note_on_c, 1, 71, 48
3, 3988, Note_on_c, 1, 71, 0
3, 4020, Note_on_c, 1, 71, 79
3, 4047, Note_on_c, 1, 71, 0
3, 4080, Note_on_c, 1, 71, 102
3, 4107, Note_on_c, 1, 71, 0
3, 4140, Note_on_c, 1, 71, 84
3, 4165, Note_on_c, 1, 71, 0
3, 4200, Note_on_c, 1, 71, 127
3, 4225, Note_on_c, 1, 71, 0
3, 4260, Note_on_c, 1, 71, 127
3, 4294, Note_on_c, 1, 71, 0
3, 4320, Note_on_c, 1, 73, 124
3, 4433, Note_on_c, 1, 73, 0
3, 4800, Note_on_c, 1, 74, 124
3, 4826, Note_on_c, 1, 74, 0
3, 4860, Note_on_c, 1, 74, 79
3, 4885, Note_on_c, 1, 74, 0
3, 4920, Note_on_c, 1, 74, 79
3, 4948, Note_on_c, 1, 74, 0
3, 4980, Note_on_c, 1, 74, 86
3, 5006, Note_on_c, 1, 74, 0
3, 5040, Note_on_c, 1, 74, 108
3, 5066, Note_on_c, 1, 74, 0
3, 5100, Note_on_c, 1, 74, 127
3, 5125, Note_on_c, 1, 74, 0
3, 5160, Note_on_c, 1, 74, 127
3, 5184, Note_on_c, 1, 74, 0
3, 5220, Note_on_c, 1, 74, 127
3, 5233, Channel_aftertouch_c, 1, 1
3, 5244, Note_on_c, 1, 74, 0
3, 5280, Note_on_c, 1, 74, 127
3, 5322, Note_on_c, 1, 74, 0
3, 5520, Note_on_c, 1, 73, 79
3, 5566, Note_on_c, 1, 73, 0
3, 5760, Note_on_c, 1, 71, 93
3, 5815, Note_on_c, 1, 71, 0
3, 6000, Note_on_c, 1, 69, 93
3, 6054, Note_on_c, 1, 69, 0
3, 6240, Note_on_c, 1, 67, 96
3, 6299, Note_on_c, 1, 67, 0
3, 6480, Note_on_c, 1, 64, 69
3, 6537, Note_on_c, 1, 64, 0
3, 6600, Note_on_c, 1, 66, 64
3, 6652, Note_on_c, 1, 66, 0
3, 6720, Note_on_c, 1, 67, 77
3, 6769, Note_on_c, 1, 67, 0
3, 6840, Note_on_c, 1, 64, 74
3, 6879, Note_on_c, 1, 64, 0
3, 6900, Note_on_c, 1, 66, 77
3, 6939, Note_on_c, 1, 66, 0
3, 6960, Note_on_c, 1, 67, 77
3, 7022, Note_on_c, 1, 67, 0
3, 7080, Note_on_c, 1, 64, 79
3, 7123, Note_on_c, 1, 64, 0
3, 7140, Note_on_c, 1, 66, 77
3, 7182, Note_on_c, 1, 66, 0
3, 7200, Note_on_c, 1, 67, 66
3, 7313, Note_on_c, 1, 67, 0
3, 7560, Note_on_c, 1, 76, 64
3, 7631, Note_on_c, 1, 76, 0
3, 7680, Note_on_c, 1, 74, 66
3, 7747, Note_on_c, 1, 74, 0
3, 7800, Note_on_c, 1, 69, 64
3, 7862, Note_on_c, 1, 69, 0
3, 7920, Note_on_c, 1, 71, 66
3, 7982, Note_on_c, 1, 71, 0
3, 8040, Note_on_c, 1, 69, 66
3, 8096, Note_on_c, 1, 69, 0
3, 8160, Note_on_c, 1, 62, 58
3, 8212, Note_on_c, 1, 62, 0
3, 8280, Note_on_c, 1, 69, 64
3, 8484, Note_on_c, 1, 69, 0
3, 8520, Note_on_c, 1, 67, 55
3, 8615, Note_on_c, 1, 67, 0
3, 8640, Note_on_c, 1, 66, 84
3, 8703, Note_on_c, 1, 66, 0
3, 8760, Note_on_c, 1, 69, 43
3, 8988, Note_on_c, 1, 69, 0
3, 9000, Note_on_c, 1, 67, 61
3, 9083, Note_on_c, 1, 67, 0
3, 9120, Note_on_c, 1, 66, 51
3, 9199, Note_on_c, 1, 66, 0
3, 9240, Note_on_c, 1, 73, 96
3, 9271, Note_on_c, 1, 73, 0
3, 9300, Note_on_c, 1, 73, 86
3, 9338, Note_on_c, 1, 73, 0
3, 9360, Note_on_c, 1, 74, 89
3, 9395, Note_on_c, 1, 74, 0
3, 9420, Note_on_c, 1, 74, 96
3, 9459, Note_on_c, 1, 74, 0
3, 9480, Note_on_c, 1, 76, 108
3, 9512, Note_on_c, 1, 76, 0
3, 9540, Note_on_c, 1, 76, 89
3, 9576, Note_on_c, 1, 76, 0
3, 9600, Note_on_c, 1, 69, 64
3, 9674, Note_on_c, 1, 69, 0
3, 9720, Note_on_c, 1, 71, 61
3, 9822, Note_on_c, 1, 71, 0
3, 9840, Note_on_c, 1, 71, 55
3, 9849, Channel_aftertouch_c, 1, 6
3, 9861, Channel_aftertouch_c, 1, 3
3, 9933, Note_on_c, 1, 71, 0
3, 9960, Note_on_c, 1, 69, 48
3, 10047, Note_on_c, 1, 69, 0
3, 10080, Note_on_c, 1, 69, 26
3, 10219, Note_on_c, 1, 69, 0
3, 10440, Note_on_c, 1, 62, 55
3, 10492, Note_on_c, 1, 62, 0
3, 10500, Note_on_c, 1, 64, 58
3, 10545, Note_on_c, 1, 64, 0
3, 10560, Note_on_c, 1, 66, 55
3, 10614, Note_on_c, 1, 66, 0
3, 10680, Note_on_c, 1, 57, 58
3, 10760, Note_on_c, 1, 57, 0
3, 10800, Note_on_c, 1, 62, 61
3, 10860, Note_on_c, 1, 62, 0
3, 10920, Note_on_c, 1, 62, 55
3, 10963, Note_on_c, 1, 62, 0
3, 10980, Note_on_c, 1, 64, 51
3, 11022, Note_on_c, 1, 64, 0
3, 11040, Note_on_c, 1, 66, 72
3, 11107, Note_on_c, 1, 66, 0
3, 11160, Note_on_c, 1, 66, 51
3, 11204, Note_on_c, 1, 66, 0
3, 11220, Note_on_c, 1, 64, 51
3, 11270, Note_on_c, 1, 64, 0
3, 11280, Note_on_c, 1, 62, 55
3, 11341, Note_on_c, 1, 62, 0
3, 11400, Note_on_c, 1, 57, 64
3, 11462, Note_on_c, 1, 57, 0
3, 13440, Channel_aftertouch_c, 1, 6
3, 13440, Note_on_c, 1, 57, 127
3, 13449, Channel_aftertouch_c, 1, 0
3, 13452, Channel_aftertouch_c, 1, 3
3, 13461, Channel_aftertouch_c, 1, 0
3, 13463, Channel_aftertouch_c, 1, 1
3, 13472, Channel_aftertouch_c, 1, 0
3, 13553, Note_on_c, 1, 57, 0
3, 13680, Note_on_c, 1, 62, 127
3, 13793, Note_on_c, 1, 62, 0
3, 13881, Channel_aftertouch_c, 1, 3
3, 13891, Channel_aftertouch_c, 1, 0
3, 13893, Channel_aftertouch_c, 1, 4
3, 13903, Channel_aftertouch_c, 1, 0
3, 13905, Channel_aftertouch_c, 1, 2
3, 13920, Note_on_c, 1, 66, 127
3, 14033, Note_on_c, 1, 66, 0
3, 14035, Channel_aftertouch_c, 1, 0
3, 14037, Channel_aftertouch_c, 1, 1
3, 14038, Channel_aftertouch_c, 1, 0
3, 14271, Note_on_c, 1, 62, 127
3, 14307, Note_on_c, 1, 62, 0
3, 14331, Note_on_c, 1, 64, 89
3, 14359, Note_on_c, 1, 64, 0
3, 14400, Note_on_c, 1, 66, 127
3, 14468, Note_on_c, 1, 66, 0
3, 14520, Note_on_c, 1, 62, 117
3, 14549, Note_on_c, 1, 62, 0
3, 14580, Note_on_c, 1, 64, 111
3, 14612, Note_on_c, 1, 64, 0
3, 14640, Note_on_c, 1, 66, 123
3, 14720, Note_on_c, 1, 66, 0
3, 14760, Note_on_c, 1, 69, 117
3, 14825, Note_on_c, 1, 69, 0
3, 14880, Note_on_c, 1, 66, 127
3, 14952, Note_on_c, 1, 66, 0
3, 15000, Note_on_c, 1, 62, 102
3, 15064, Note_on_c, 1, 62, 0
3, 15120, Note_on_c, 1, 62, 84
3, 15192, Note_on_c, 1, 62, 0
3, 15240, Note_on_c, 1, 66, 72
3, 15465, Note_on_c, 1, 66, 0
3, 15480, Note_on_c, 1, 64, 48
3, 15702, Note_on_c, 1, 64, 0
3, 15720, Note_on_c, 1, 62, 43
3, 15827, Note_on_c, 1, 62, 0
3, 15840, Note_on_c, 1, 61, 48
3, 15953, Note_on_c, 1, 61, 0
3, 16320, Note_on_c, 1, 57, 48
3, 16433, Note_on_c, 1, 57, 0
3, 16560, Note_on_c, 1, 61, 43
3, 16673, Note_on_c, 1, 61, 0
3, 16800, Note_on_c, 1, 64, 48
3, 16913, Note_on_c, 1, 64, 0
3, 17280, Note_on_c, 1, 61, 51
3, 17393, Note_on_c, 1, 61, 0
3, 17520, Note_on_c, 1, 64, 48
3, 17633, Note_on_c, 1, 64, 0
3, 17760, Note_on_c, 1, 69, 39
3, 17873, Note_on_c, 1, 69, 0
3, 18600, Note_on_c, 1, 69, 111
3, 18633, Note_on_c, 1, 69, 0
3, 18660, Note_on_c, 1, 71, 105
3, 18691, Note_on_c, 1, 71, 0
3, 18720, Note_on_c, 1, 73, 117
3, 18779, Note_on_c, 1, 73, 0
3, 18840, Note_on_c, 1, 69, 120
3, 18869, Note_on_c, 1, 69, 0
3, 18900, Note_on_c, 1, 71, 111
3, 18932, Note_on_c, 1, 71, 0
3, 18960, Note_on_c, 1, 73, 125
3, 19029, Note_on_c, 1, 73, 0
3, 19080, Note_on_c, 1, 76, 117
3, 19153, Note_on_c, 1, 76, 0
3, 19200, Note_on_c, 1, 73, 127
3, 19278, Note_on_c, 1, 73, 0
3, 19320, Note_on_c, 1, 69, 89
3, 19383, Note_on_c, 1, 69, 0
3, 19440, Note_on_c, 1, 69, 91
3, 19511, Note_on_c, 1, 69, 0
3, 19560, Note_on_c, 1, 64, 64
3, 19624, Note_on_c, 1, 64, 0
3, 19680, Note_on_c, 1, 61, 39
3, 20832, Note_on_c, 1, 61, 0
3, 21720, Note_on_c, 1, 61, 22
3, 21791, Note_on_c, 1, 61, 0
3, 21960, Note_on_c, 1, 61, 1
3, 22042, Note_on_c, 1, 61, 0
3, 22200, Note_on_c, 1, 61, 18
3, 22267, Note_on_c, 1, 61, 0
3, 22440, Note_on_c, 1, 59, 26
3, 22500, Note_on_c, 1, 59, 0
3, 22560, Note_on_c, 1, 59, 14
3, 22673, Note_on_c, 1, 59, 0
3, 23040, Note_on_c, 1, 68, 77
3, 23055, Channel_aftertouch_c, 1, 12
3, 23067, Channel_aftertouch_c, 1, 6
3, 23073, Note_on_c, 1, 68, 0
3, 23100, Note_on_c, 1, 68, 91
3, 23132, Note_on_c, 1, 68, 0
3, 23160, Note_on_c, 1, 68, 102
3, 23188, Note_on_c, 1, 68, 0
3, 23220, Note_on_c, 1, 68, 124
3, 23247, Note_on_c, 1, 68, 0
3, 23280, Note_on_c, 1, 68, 127
3, 23306, Note_on_c, 1, 68, 0
3, 23340, Note_on_c, 1, 68, 125
3, 23365, Note_on_c, 1, 68, 0
3, 23400, Note_on_c, 1, 68, 125
3, 23424, Note_on_c, 1, 68, 0
3, 23460, Note_on_c, 1, 68, 127
3, 23487, Note_on_c, 1, 68, 0
3, 23520, Note_on_c, 1, 70, 105
3, 23633, Note_on_c, 1, 70, 0
3, 24000, Note_on_c, 1, 71, 102
3, 24034, Note_on_c, 1, 71, 0
3, 24060, Note_on_c, 1, 71, 99
3, 24095, Note_on_c, 1, 71, 0
3, 24120, Note_on_c, 1, 71, 123
3, 24154, Note_on_c, 1, 71, 0
3, 24180, Note_on_c, 1, 71, 117
3, 24212, Note_on_c, 1, 71, 0
3, 24240, Note_on_c, 1, 69, 102
3, 24272, Note_on_c, 1, 69, 0
3, 24300, Note_on_c, 1, 69, 84
3, 24328, Note_on_c, 1, 69, 0
3, 24360, Note_on_c, 1, 69, 124
3, 24393, Note_on_c, 1, 69, 0
3, 24420, Note_on_c, 1, 69, 123
3, 24464, Note_on_c, 1, 69, 0
3, 24480, Note_on_c, 1, 68, 111
3, 24593, Note_on_c, 1, 68, 0
3, 24960, Note_on_c, 1, 69, 127
3, 24990, Note_on_c, 1, 69, 0
3, 25020, Note_on_c, 1, 69, 105
3, 25045, Note_on_c, 1, 69, 0
3, 25080, Note_on_c, 1, 69, 127
3, 25107, Note_on_c, 1, 69, 0
3, 25140, Note_on_c, 1, 69, 127
3, 25163, Note_on_c, 1, 69, 0
3, 25200, Note_on_c, 1, 69, 127
3, 25225, Note_on_c, 1, 69, 0
3, 25260, Note_on_c, 1, 69, 123
3, 25285, Note_on_c, 1, 69, 0
3, 25320, Note_on_c, 1, 69, 124
3, 25345, Note_on_c, 1, 69, 0
3, 25380, Note_on_c, 1, 69, 126
3, 25402, Note_on_c, 1, 69, 0
3, 25440, Note_on_c, 1, 69, 117
3, 25553, Note_on_c, 1, 69, 0
3, 25680, Note_on_c, 1, 68, 93
3, 25793, Note_on_c, 1, 68, 0
3, 25920, Note_on_c, 1, 66, 84
3, 26033, Note_on_c, 1, 66, 0
3, 26160, Note_on_c, 1, 64, 89
3, 26273, Note_on_c, 1, 64, 0
3, 26400, Note_on_c, 1, 62, 79
3, 26513, Note_on_c, 1, 62, 0
3, 26640, Note_on_c, 1, 59, 96
3, 26709, Note_on_c, 1, 59, 0
3, 26760, Note_on_c, 1, 61, 69
3, 26826, Note_on_c, 1, 61, 0
3, 26880, Note_on_c, 1, 62, 66
3, 26952, Note_on_c, 1, 62, 0
3, 27000, Note_on_c, 1, 59, 89
3, 27033, Note_on_c, 1, 59, 0
3, 27060, Note_on_c, 1, 61, 69
3, 27096, Note_on_c, 1, 61, 0
3, 27120, Note_on_c, 1, 62, 102
3, 27190, Note_on_c, 1, 62, 0
3, 27240, Note_on_c, 1, 59, 96
3, 27268, Note_on_c, 1, 59, 0
3, 27300, Note_on_c, 1, 57, 77
3, 27330, Note_on_c, 1, 57, 0
3, 27360, Note_on_c, 1, 56, 72
3, 27504, Note_on_c, 1, 56, 0
3, 27720, Note_on_c, 1, 71, 96
3, 27800, Note_on_c, 1, 71, 0
3, 27840, Note_on_c, 1, 69, 89
3, 27909, Note_on_c, 1, 69, 0
3, 27960, Note_on_c, 1, 64, 79
3, 28035, Note_on_c, 1, 64, 0
3, 28080, Note_on_c, 1, 66, 81
3, 28157, Note_on_c, 1, 66, 0
3, 28200, Note_on_c, 1, 64, 66
3, 28263, Channel_aftertouch_c, 1, 1
3, 28273, Note_on_c, 1, 64, 0
3, 28320, Note_on_c, 1, 64, 64
3, 28433, Note_on_c, 1, 64, 0
3, 28920, Note_on_c, 1, 64, 58
3, 28950, Note_on_c, 1, 64, 0
3, 28980, Note_on_c, 1, 64, 64
3, 29027, Note_on_c, 1, 64, 0
3, 29040, Note_on_c, 1, 66, 84
3, 29077, Note_on_c, 1, 66, 0
3, 29100, Note_on_c, 1, 66, 84
3, 29137, Note_on_c, 1, 66, 0
3, 29160, Note_on_c, 1, 68, 74
3, 29190, Note_on_c, 1, 68, 0
3, 29220, Note_on_c, 1, 68, 77
3, 29255, Note_on_c, 1, 68, 0
3, 29280, Note_on_c, 1, 69, 79
3, 29393, Note_on_c, 1, 69, 0
3, 30360, Note_on_c, 1, 64, 39
3, 30394, Note_on_c, 1, 64, 0
3, 30420, Note_on_c, 1, 64, 43
3, 30456, Note_on_c, 1, 64, 0
3, 30480, Note_on_c, 1, 66, 61
3, 30507, Note_on_c, 1, 66, 0
3, 30540, Note_on_c, 1, 66, 48
3, 30569, Note_on_c, 1, 66, 0
3, 30600, Note_on_c, 1, 68, 61
3, 30629, Note_on_c, 1, 68, 0
3, 30660, Note_on_c, 1, 68, 39
3, 30699, Note_on_c, 1, 68, 0
3, 30720, Note_on_c, 1, 69, 48
3, 30774, Note_on_c, 1, 69, 0
3, 30840, Note_on_c, 1, 64, 26
3, 30971, Channel_aftertouch_c, 1, 1
3, 31068, Note_on_c, 1, 64, 0
3, 31080, Note_on_c, 1, 62, 48
3, 31145, Note_on_c, 1, 62, 0
3, 31200, Note_on_c, 1, 61, 51
3, 31265, Note_on_c, 1, 61, 0
3, 31320, Note_on_c, 1, 64, 77
3, 31354, Note_on_c, 1, 64, 0
3, 31380, Note_on_c, 1, 64, 84
3, 31427, Note_on_c, 1, 64, 0
3, 31440, Note_on_c, 1, 69, 93
3, 31473, Note_on_c, 1, 69, 0
3, 31500, Note_on_c, 1, 69, 79
3, 31539, Note_on_c, 1, 69, 0
3, 31560, Note_on_c, 1, 71, 93
3, 31594, Note_on_c, 1, 71, 0
3, 31620, Note_on_c, 1, 71, 89
3, 31660, Note_on_c, 1, 71, 0
3, 31680, Note_on_c, 1, 69, 108
3, 31744, Note_on_c, 1, 69, 0
3, 31800, Note_on_c, 1, 61, 84
3, 31889, Note_on_c, 1, 61, 0
3, 31920, Note_on_c, 1, 66, 102
3, 32008, Note_on_c, 1, 66, 0
3, 32040, Note_on_c, 1, 64, 72
3, 32125, Note_on_c, 1, 64, 0
3, 32160, Note_on_c, 1, 64, 66
3, 32273, Note_on_c, 1, 64, 0
3, 32640, Note_on_c, 1, 57, 93
3, 32753, Note_on_c, 1, 57, 0
3, 32880, Note_on_c, 1, 62, 124
3, 32993, Note_on_c, 1, 62, 0
3, 33120, Note_on_c, 1, 66, 127
3, 33233, Note_on_c, 1, 66, 0
3, 33600, Note_on_c, 1, 62, 51
3, 33713, Note_on_c, 1, 62, 0
3, 33840, Note_on_c, 1, 66, 61
3, 33953, Note_on_c, 1, 66, 0
3, 34080, Note_on_c, 1, 69, 58
3, 34193, Note_on_c, 1, 69, 0
3, 34560, Note_on_c, 1, 66, 55
3, 34776, Note_on_c, 1, 66, 0
3, 34800, Note_on_c, 1, 69, 66
3, 35016, Note_on_c, 1, 69, 0
3, 35040, Note_on_c, 1, 74, 55
3, 35256, Note_on_c, 1, 74, 0
3, 35880, Note_on_c, 1, 62, 127
3, 35915, Note_on_c, 1, 62, 0
3, 35940, Note_on_c, 1, 64, 105
3, 35974, Note_on_c, 1, 64, 0
3, 36000, Note_on_c, 1, 66, 99
3, 36071, Note_on_c, 1, 66, 0
3, 36120, Note_on_c, 1, 62, 127
3, 36150, Note_on_c, 1, 62, 0
3, 36180, Note_on_c, 1, 64, 102
3, 36211, Note_on_c, 1, 64, 0
3, 36240, Note_on_c, 1, 66, 127
3, 36324, Note_on_c, 1, 66, 0
3, 36360, Note_on_c, 1, 69, 123
3, 36438, Note_on_c, 1, 69, 0
3, 36480, Note_on_c, 1, 66, 86
3, 36555, Note_on_c, 1, 66, 0
3, 36600, Note_on_c, 1, 62, 99
3, 36677, Note_on_c, 1, 62, 0
3, 36720, Note_on_c, 1, 62, 120
3, 36794, Note_on_c, 1, 62, 0
3, 36840, Note_on_c, 1, 57, 93
3, 36914, Note_on_c, 1, 57, 0
3, 36960, Note_on_c, 1, 62, 51
3, 38112, Note_on_c, 1, 62, 0
3, 39000, Note_on_c, 1, 66, 30
3, 39087, Note_on_c, 1, 66, 0
3, 39240, Note_on_c, 1, 66, 22
3, 39334, Note_on_c, 1, 66, 0
3, 39480, Note_on_c, 1, 66, 26
3, 39564, Note_on_c, 1, 66, 0
3, 39720, Note_on_c, 1, 64, 26
3, 39780, Note_on_c, 1, 64, 0
3, 39840, Note_on_c, 1, 64, 43
3, 40056, Note_on_c, 1, 64, 0
3, 40320, Note_on_c, 1, 73, 127
3, 40348, Note_on_c, 1, 73, 0
3, 40380, Note_on_c, 1, 73, 86
3, 40405, Note_on_c, 1, 73, 0
3, 40440, Note_on_c, 1, 73, 114
3, 40465, Note_on_c, 1, 73, 0
3, 40500, Note_on_c, 1, 73, 127
3, 40525, Note_on_c, 1, 73, 0
3, 40560, Note_on_c, 1, 73, 99
3, 40584, Note_on_c, 1, 73, 0
3, 40618, Channel_aftertouch_c, 1, 44
3, 40620, Note_on_c, 1, 73, 93
3, 40627, Channel_aftertouch_c, 1, 0
3, 40629, Channel_aftertouch_c, 1, 22
3, 40638, Channel_aftertouch_c, 1, 0
3, 40641, Channel_aftertouch_c, 1, 0
3, 40641, Channel_aftertouch_c, 1, 11
3, 40645, Note_on_c, 1, 73, 0
3, 40680, Note_on_c, 1, 73, 127
3, 40690, Channel_aftertouch_c, 1, 0
3, 40693, Channel_aftertouch_c, 1, 3
3, 40693, Channel_aftertouch_c, 1, 34
3, 40703, Note_on_c, 1, 73, 0
3, 40703, Channel_aftertouch_c, 1, 0
3, 40704, Channel_aftertouch_c, 1, 17
3, 40705, Channel_aftertouch_c, 1, 1
3, 40714, Channel_aftertouch_c, 1, 0
3, 40715, Channel_aftertouch_c, 1, 8
3, 40727, Channel_aftertouch_c, 1, 4
3, 40739, Channel_aftertouch_c, 1, 2
3, 40740, Note_on_c, 1, 73, 127
3, 40767, Note_on_c, 1, 73, 0
3, 40800, Channel_aftertouch_c, 1, 6
3, 40800, Note_on_c, 1, 71, 127
3, 41016, Note_on_c, 1, 71, 0
3, 41280, Note_on_c, 1, 71, 127
3, 41308, Note_on_c, 1, 71, 0
3, 41340, Note_on_c, 1, 71, 117
3, 41366, Note_on_c, 1, 71, 0
3, 41400, Note_on_c, 1, 71, 96
3, 41433, Note_on_c, 1, 71, 0
3, 41460, Note_on_c, 1, 71, 96
3, 41489, Note_on_c, 1, 71, 0
3, 41520, Note_on_c, 1, 71, 117
3, 41549, Note_on_c, 1, 71, 0
3, 41580, Note_on_c, 1, 71, 91
3, 41608, Note_on_c, 1, 71, 0
3, 41640, Note_on_c, 1, 71, 84
3, 41648, Channel_aftertouch_c, 1, 25
3, 41659, Channel_aftertouch_c, 1, 12
3, 41666, Note_on_c, 1, 71, 0
3, 41671, Channel_aftertouch_c, 1, 6
3, 41682, Channel_aftertouch_c, 1, 3
3, 41694, Channel_aftertouch_c, 1, 1
3, 41700, Note_on_c, 1, 71, 124
3, 41730, Note_on_c, 1, 71, 0
3, 41760, Note_on_c, 1, 73, 127
3, 41976, Note_on_c, 1, 73, 0
3, 42240, Note_on_c, 1, 74, 127
3, 42270, Note_on_c, 1, 74, 0
3, 42300, Note_on_c, 1, 74, 84
3, 42331, Note_on_c, 1, 74, 0
3, 42360, Note_on_c, 1, 74, 108
3, 42389, Note_on_c, 1, 74, 0
3, 42420, Note_on_c, 1, 74, 123
3, 42448, Note_on_c, 1, 74, 0
3, 42480, Note_on_c, 1, 74, 127
3, 42507, Note_on_c, 1, 74, 0
3, 42540, Note_on_c, 1, 74, 126
3, 42565, Note_on_c, 1, 74, 0
3, 42600, Note_on_c, 1, 74, 127
3, 42623, Note_on_c, 1, 74, 0
3, 42660, Note_on_c, 1, 74, 127
3, 42681, Note_on_c, 1, 74, 0
3, 42719, Channel_aftertouch_c, 1, 3
3, 42720, Note_on_c, 1, 74, 127
3, 42729, Channel_aftertouch_c, 1, 0
3, 42731, Channel_aftertouch_c, 1, 1
3, 42741, Channel_aftertouch_c, 1, 0
3, 42778, Note_on_c, 1, 74, 0
3, 42960, Note_on_c, 1, 73, 93
3, 43018, Note_on_c, 1, 73, 0
3, 43200, Note_on_c, 1, 71, 86
3, 43416, Note_on_c, 1, 71, 0
3, 43440, Note_on_c, 1, 69, 89
3, 43656, Note_on_c, 1, 69, 0
3, 43680, Note_on_c, 1, 67, 79
3, 43896, Note_on_c, 1, 67, 0
3, 43920, Note_on_c, 1, 64, 89
3, 43986, Note_on_c, 1, 64, 0
3, 44040, Note_on_c, 1, 66, 66
3, 44119, Note_on_c, 1, 66, 0
3, 44160, Note_on_c, 1, 67, 74
3, 44237, Note_on_c, 1, 67, 0
3, 44280, Note_on_c, 1, 64, 79
3, 44315, Note_on_c, 1, 64, 0
3, 44340, Note_on_c, 1, 66, 81
3, 44377, Note_on_c, 1, 66, 0
3, 44400, Note_on_c, 1, 67, 72
3, 44482, Note_on_c, 1, 67, 0
3, 44520, Note_on_c, 1, 64, 77
3, 44555, Note_on_c, 1, 64, 0
3, 44580, Note_on_c, 1, 66, 69
3, 44626, Note_on_c, 1, 66, 0
3, 44640, Note_on_c, 1, 67, 89
3, 44760, Note_on_c, 1, 67, 0
3, 45000, Note_on_c, 1, 76, 102
3, 45081, Note_on_c, 1, 76, 0
3, 45120, Note_on_c, 1, 74, 111
3, 45199, Note_on_c, 1, 74, 0
3, 45240, Note_on_c, 1, 69, 79
3, 45318, Note_on_c, 1, 69, 0
3, 45360, Note_on_c, 1, 71, 69
3, 45444, Note_on_c, 1, 71, 0
3, 45480, Note_on_c, 1, 69, 79
3, 45561, Note_on_c, 1, 69, 0
3, 45600, Note_on_c, 1, 69, 79
3, 45816, Note_on_c, 1, 69, 0
3, 46200, Note_on_c, 1, 69, 61
3, 46232, Note_on_c, 1, 69, 0
3, 46260, Note_on_c, 1, 69, 61
3, 46299, Note_on_c, 1, 69, 0
3, 46320, Note_on_c, 1, 71, 66
3, 46351, Note_on_c, 1, 71, 0
3, 46380, Note_on_c, 1, 71, 61
3, 46412, Note_on_c, 1, 71, 0
3, 46440, Note_on_c, 1, 73, 58
3, 46468, Note_on_c, 1, 73, 0
3, 46500, Note_on_c, 1, 73, 30
3, 46532, Note_on_c, 1, 73, 0
3, 46560, Note_on_c, 1, 74, 66
3, 46776, Note_on_c, 1, 74, 0
3, 47640, Note_on_c, 1, 69, 51
3, 47671, Note_on_c, 1, 69, 0
3, 47700, Note_on_c, 1, 69, 51
3, 47740, Note_on_c, 1, 69, 0
3, 47760, Note_on_c, 1, 71, 74
3, 47789, Note_on_c, 1, 71, 0
3, 47820, Note_on_c, 1, 71, 58
3, 47851, Note_on_c, 1, 71, 0
3, 47880, Note_on_c, 1, 73, 43
3, 47913, Note_on_c, 1, 73, 0
3, 47940, Note_on_c, 1, 73, 48
3, 47976, Note_on_c, 1, 73, 0
3, 48000, Note_on_c, 1, 74, 66
3, 48050, Note_on_c, 1, 74, 0
3, 48120, Note_on_c, 1, 69, 55
3, 48360, Note_on_c, 1, 67, 61
3, 48362, Note_on_c, 1, 69, 0
3, 48450, Note_on_c, 1, 67, 0
3, 48480, Note_on_c, 1, 66, 77
3, 48556, Note_on_c, 1, 66, 0
3, 48600, Note_on_c, 1, 69, 84
3, 48631, Note_on_c, 1, 69, 0
3, 48660, Note_on_c, 1, 69, 69
3, 48704, Note_on_c, 1, 69, 0
3, 48720, Note_on_c, 1, 74, 89
3, 48758, Note_on_c, 1, 74, 0
3, 48780, Note_on_c, 1, 74, 108
3, 48813, Note_on_c, 1, 74, 0
3, 48840, Note_on_c, 1, 76, 105
3, 48869, Note_on_c, 1, 76, 0
3, 48900, Note_on_c, 1, 76, 96
3, 48935, Note_on_c, 1, 76, 0
3, 48960, Note_on_c, 1, 74, 96
3, 49035, Note_on_c, 1, 74, 0
3, 49080, Note_on_c, 1, 66, 51
3, 49174, Note_on_c, 1, 66, 0
3, 49200, Note_on_c, 1, 71, 55
3, 49291, Note_on_c, 1, 71, 0
3, 49320, Note_on_c, 1, 69, 69
3, 49401, Note_on_c, 1, 69, 0
3, 49440, Note_on_c, 1, 69, 51
3, 49656, Note_on_c, 1, 69, 0
3, 49920, Note_on_c, 1, 59, 26
3, 50136, Note_on_c, 1, 59, 0
3, 50160, Note_on_c, 1, 62, 14
3, 50376, Note_on_c, 1, 62, 0
3, 50400, Note_on_c, 1, 66, 22
3, 50616, Note_on_c, 1, 66, 0
3, 50880, Note_on_c, 1, 57, 39
3, 51096, Note_on_c, 1, 57, 0
3, 51120, Note_on_c, 1, 61, 30
3, 51336, Note_on_c, 1, 61, 0
3, 51360, Note_on_c, 1, 66, 22
3, 51576, Note_on_c, 1, 66, 0
3, 51840, Note_on_c, 1, 55, 30
3, 52056, Note_on_c, 1, 55, 0
3, 52080, Note_on_c, 1, 59, 18
3, 52296, Note_on_c, 1, 59, 0
3, 52320, Note_on_c, 1, 64, 26
3, 52536, Note_on_c, 1, 64, 0
3, 52800, Note_on_c, 1, 66, 14
3, 53016, Note_on_c, 1, 66, 0
3, 53040, Note_on_c, 1, 73, 22
3, 53256, Note_on_c, 1, 73, 0
3, 53280, Note_on_c, 1, 78, 8
3, 53496, Note_on_c, 1, 78, 0
3, 53760, Note_on_c, 1, 71, 8
3, 54355, Note_on_c, 1, 71, 0
3, 54360, Note_on_c, 1, 73, 11
3, 54458, Note_on_c, 1, 73, 0
3, 54480, Note_on_c, 1, 71, 18
3, 54563, Note_on_c, 1, 71, 0
3, 54600, Note_on_c, 1, 69, 18
3, 54701, Note_on_c, 1, 69, 0
3, 54720, Note_on_c, 1, 68, 26
3, 54913, Note_on_c, 1, 68, 0
3, 54960, Note_on_c, 1, 73, 18
3, 55320, Note_on_c, 1, 73, 0
3, 55320, Note_on_c, 1, 74, 30
3, 55420, Note_on_c, 1, 74, 0
3, 55440, Note_on_c, 1, 73, 35
3, 55535, Note_on_c, 1, 73, 0
3, 55560, Note_on_c, 1, 71, 22
3, 55668, Note_on_c, 1, 71, 0
3, 55680, Note_on_c, 1, 73, 22
3, 55863, Note_on_c, 1, 73, 0
3, 55920, Note_on_c, 1, 69, 14
3, 56280, Note_on_c, 1, 69, 0
3, 56280, Note_on_c, 1, 71, 30
3, 56387, Note_on_c, 1, 71, 0
3, 56400, Note_on_c, 1, 69, 30
3, 56505, Note_on_c, 1, 69, 0
3, 56520, Note_on_c, 1, 67, 48
3, 56608, Note_on_c, 1, 67, 0
3, 56640, Note_on_c, 1, 66, 14
3, 56827, Note_on_c, 1, 66, 0
3, 56880, Note_on_c, 1, 71, 39
3, 57240, Note_on_c, 1, 71, 0
3, 57240, Note_on_c, 1, 72, 30
3, 57344, Note_on_c, 1, 72, 0
3, 57360, Note_on_c, 1, 71, 35
3, 57454, Note_on_c, 1, 71, 0
3, 57480, Note_on_c, 1, 69, 30
3, 57579, Note_on_c, 1, 69, 0
3, 57600, Note_on_c, 1, 71, 43
3, 57778, Note_on_c, 1, 71, 0
3, 57840, Note_on_c, 1, 69, 30
3, 58015, Note_on_c, 1, 69, 0
3, 58080, Note_on_c, 1, 67, 30
3, 58251, Note_on_c, 1, 67, 0
3, 58320, Note_on_c, 1, 66, 39
3, 58490, Note_on_c, 1, 66, 0
3, 58560, Note_on_c, 1, 64, 26
3, 58718, Note_on_c, 1, 64, 0
3, 58800, Note_on_c, 1, 71, 30
3, 58999, Note_on_c, 1, 71, 0
3, 59040, Note_on_c, 1, 73, 22
3, 59210, Note_on_c, 1, 73, 0
3, 59280, Note_on_c, 1, 74, 43
3, 59453, Note_on_c, 1, 74, 0
3, 59520, Note_on_c, 1, 73, 22
3, 60183, Note_on_c, 1, 73, 0
3, 60240, Note_on_c, 1, 61, 30
3, 60431, Note_on_c, 1, 61, 0
3, 60480, Note_on_c, 1, 62, 30
3, 60915, Note_on_c, 1, 62, 0
3, 60960, Note_on_c, 1, 74, 18
3, 61398, Note_on_c, 1, 74, 0
3, 61440, Note_on_c, 1, 72, 30
3, 61641, Note_on_c, 1, 72, 0
3, 61680, Note_on_c, 1, 71, 30
3, 62131, Note_on_c, 1, 71, 0
3, 62160, Note_on_c, 1, 71, 30
3, 62390, Note_on_c, 1, 71, 0
3, 62400, Note_on_c, 1, 69, 22
3, 63304, Note_on_c, 1, 69, 0
3, 63360, Note_on_c, 1, 71, 39
3, 63586, Note_on_c, 1, 71, 0
3, 63600, Note_on_c, 1, 69, 18
3, 63812, Note_on_c, 1, 69, 0
3, 63840, Note_on_c, 1, 67, 30
3, 64318, Note_on_c, 1, 67, 0
3, 64320, Note_on_c, 1, 66, 14
3, 65248, Note_on_c, 1, 66, 0
3, 65280, Note_on_c, 1, 68, 35
3, 65745, Note_on_c, 1, 68, 0
3, 65760, Note_on_c, 1, 66, 30
3, 66175, Note_on_c, 1, 66, 0
3, 66240, Note_on_c, 1, 66, 127
3, 66456, Note_on_c, 1, 66, 0
3, 66480, Note_on_c, 1, 71, 127
3, 66696, Note_on_c, 1, 71, 0
3, 66720, Note_on_c, 1, 74, 127
3, 66936, Note_on_c, 1, 74, 0
3, 67080, Note_on_c, 1, 71, 123
3, 67112, Note_on_c, 1, 71, 0
3, 67140, Note_on_c, 1, 73, 123
3, 67168, Note_on_c, 1, 73, 0
3, 67200, Note_on_c, 1, 74, 127
3, 67278, Note_on_c, 1, 74, 0
3, 67320, Note_on_c, 1, 71, 111
3, 67353, Note_on_c, 1, 71, 0
3, 67380, Note_on_c, 1, 73, 96
3, 67416, Note_on_c, 1, 73, 0
3, 67440, Note_on_c, 1, 74, 127
3, 67516, Note_on_c, 1, 74, 0
3, 67560, Note_on_c, 1, 78, 105
3, 67638, Note_on_c, 1, 78, 0
3, 67680, Note_on_c, 1, 74, 108
3, 67761, Note_on_c, 1, 74, 0
3, 67800, Note_on_c, 1, 71, 84
3, 67882, Note_on_c, 1, 71, 0
3, 67920, Note_on_c, 1, 71, 89
3, 67994, Note_on_c, 1, 71, 0
3, 68040, Note_on_c, 1, 66, 66
3, 68120, Note_on_c, 1, 66, 0
3, 68160, Note_on_c, 1, 62, 26
3, 68376, Note_on_c, 1, 62, 0
3, 68400, Note_on_c, 1, 68, 14
3, 68616, Note_on_c, 1, 68, 0
3, 68640, Note_on_c, 1, 71, 18
3, 68856, Note_on_c, 1, 71, 0
3, 69120, Note_on_c, 1, 64, 127
3, 69336, Note_on_c, 1, 64, 0
3, 69360, Note_on_c, 1, 69, 102
3, 69576, Note_on_c, 1, 69, 0
3, 69600, Note_on_c, 1, 73, 127
3, 69816, Note_on_c, 1, 73, 0
3, 69960, Note_on_c, 1, 69, 124
3, 69991, Note_on_c, 1, 69, 0
3, 70020, Note_on_c, 1, 71, 89
3, 70061, Note_on_c, 1, 71, 0
3, 70080, Note_on_c, 1, 73, 117
3, 70142, Note_on_c, 1, 73, 0
3, 70200, Note_on_c, 1, 69, 127
3, 70227, Note_on_c, 1, 69, 0
3, 70260, Note_on_c, 1, 71, 84
3, 70290, Note_on_c, 1, 71, 0
3, 70320, Note_on_c, 1, 73, 117
3, 70374, Note_on_c, 1, 73, 0
3, 70440, Note_on_c, 1, 76, 96
3, 70513, Note_on_c, 1, 76, 0
3, 70560, Note_on_c, 1, 73, 117
3, 70638, Note_on_c, 1, 73, 0
3, 70680, Note_on_c, 1, 69, 89
3, 70754, Note_on_c, 1, 69, 0
3, 70800, Note_on_c, 1, 69, 96
3, 70878, Note_on_c, 1, 69, 0
3, 70920, Note_on_c, 1, 64, 72
3, 70991, Note_on_c, 1, 64, 0
3, 71040, Note_on_c, 1, 60, 43
3, 71256, Note_on_c, 1, 60, 0
3, 71280, Note_on_c, 1, 66, 61
3, 71496, Note_on_c, 1, 66, 0
3, 71520, Note_on_c, 1, 69, 48
3, 71736, Note_on_c, 1, 69, 0
3, 72000, Note_on_c, 1, 62, 74
3, 72216, Note_on_c, 1, 62, 0
3, 72240, Note_on_c, 1, 67, 127
3, 72456, Note_on_c, 1, 67, 0
3, 72480, Note_on_c, 1, 71, 126
3, 72696, Note_on_c, 1, 71, 0
3, 72840, Note_on_c, 1, 55, 127
3, 72871, Note_on_c, 1, 55, 0
3, 72900, Note_on_c, 1, 57, 102
3, 72933, Note_on_c, 1, 57, 0
3, 72960, Note_on_c, 1, 59, 84
3, 73021, Note_on_c, 1, 59, 0
3, 73080, Note_on_c, 1, 55, 93
3, 73117, Note_on_c, 1, 55, 0
3, 73140, Note_on_c, 1, 57, 86
3, 73178, Note_on_c, 1, 57, 0
3, 73200, Note_on_c, 1, 59, 89
3, 73275, Note_on_c, 1, 59, 0
3, 73320, Note_on_c, 1, 62, 102
3, 73397, Note_on_c, 1, 62, 0
3, 73440, Note_on_c, 1, 59, 77
3, 73523, Note_on_c, 1, 59, 0
3, 73560, Note_on_c, 1, 55, 74
3, 73651, Note_on_c, 1, 55, 0
3, 73680, Note_on_c, 1, 55, 120
3, 73763, Note_on_c, 1, 55, 0
3, 73800, Note_on_c, 1, 62, 89
3, 73871, Note_on_c, 1, 62, 0
3, 73920, Note_on_c, 1, 64, 96
3, 73995, Note_on_c, 1, 64, 0
3, 74040, Note_on_c, 1, 69, 79
3, 74262, Note_on_c, 1, 69, 0
3, 74280, Note_on_c, 1, 67, 89
3, 74381, Note_on_c, 1, 67, 0
3, 74400, Note_on_c, 1, 66, 96
3, 74616, Note_on_c, 1, 66, 0
3, 74880, Note_on_c, 1, 71, 127
3, 74908, Note_on_c, 1, 71, 0
3, 74940, Note_on_c, 1, 71, 81
3, 74970, Note_on_c, 1, 71, 0
3, 75000, Note_on_c, 1, 71, 89
3, 75028, Note_on_c, 1, 71, 0
3, 75060, Note_on_c, 1, 71, 117
3, 75086, Note_on_c, 1, 71, 0
3, 75120, Note_on_c, 1, 71, 102
3, 75150, Note_on_c, 1, 71, 0
3, 75180, Note_on_c, 1, 71, 127
3, 75211, Note_on_c, 1, 71, 0
3, 75240, Note_on_c, 1, 71, 117
3, 75270, Note_on_c, 1, 71, 0
3, 75300, Note_on_c, 1, 71, 77
3, 75304, Channel_aftertouch_c, 1, 6
3, 75314, Channel_aftertouch_c, 1, 3
3, 75339, Note_on_c, 1, 71, 0
3, 75360, Note_on_c, 1, 68, 127
3, 75576, Note_on_c, 1, 68, 0
3, 75840, Note_on_c, 1, 69, 127
3, 75849, Channel_aftertouch_c, 1, 15
3, 75860, Channel_aftertouch_c, 1, 7
3, 75870, Note_on_c, 1, 69, 0
3, 75900, Note_on_c, 1, 69, 89
3, 75929, Note_on_c, 1, 69, 0
3, 75960, Note_on_c, 1, 69, 86
3, 75992, Note_on_c, 1, 69, 0
3, 76020, Note_on_c, 1, 69, 102
3, 76052, Note_on_c, 1, 69, 0
3, 76080, Note_on_c, 1, 69, 117
3, 76111, Note_on_c, 1, 69, 0
3, 76140, Note_on_c, 1, 69, 111
3, 76171, Note_on_c, 1, 69, 0
3, 76200, Note_on_c, 1, 69, 89
3, 76206, Channel_aftertouch_c, 1, 25
3, 76216, Channel_aftertouch_c, 1, 12
3, 76227, Channel_aftertouch_c, 1, 6
3, 76229, Note_on_c, 1, 69, 0
3, 76238, Channel_aftertouch_c, 1, 3
3, 76249, Channel_aftertouch_c, 1, 1
3, 76260, Note_on_c, 1, 69, 84
3, 76288, Note_on_c, 1, 69, 0
3, 76320, Note_on_c, 1, 69, 127
3, 76536, Note_on_c, 1, 69, 0
3, 76800, Note_on_c, 1, 67, 96
3, 76828, Note_on_c, 1, 67, 0
3, 76860, Note_on_c, 1, 67, 79
3, 76888, Note_on_c, 1, 67, 0
3, 76920, Note_on_c, 1, 67, 79
3, 76949, Note_on_c, 1, 67, 0
3, 76980, Note_on_c, 1, 67, 69
3, 77011, Note_on_c, 1, 67, 0
3, 77040, Note_on_c, 1, 67, 84
3, 77072, Note_on_c, 1, 67, 0
3, 77100, Note_on_c, 1, 67, 89
3, 77133, Note_on_c, 1, 67, 0
3, 77160, Note_on_c, 1, 67, 102
3, 77194, Note_on_c, 1, 67, 0
3, 77220, Note_on_c, 1, 67, 86
3, 77251, Note_on_c, 1, 67, 0
3, 77280, Note_on_c, 1, 67, 93
3, 77496, Note_on_c, 1, 67, 0
3, 77520, Note_on_c, 1, 66, 69
3, 77736, Note_on_c, 1, 66, 0
3, 77760, Note_on_c, 1, 64, 79
3, 77976, Note_on_c, 1, 64, 0
3, 78000, Note_on_c, 1, 62, 77
3, 78216, Note_on_c, 1, 62, 0
3, 78240, Note_on_c, 1, 62, 61
3, 78456, Note_on_c, 1, 62, 0
3, 78480, Note_on_c, 1, 66, 66
3, 78696, Note_on_c, 1, 66, 0
3, 78720, Note_on_c, 1, 69, 43
3, 78936, Note_on_c, 1, 69, 0
3, 79080, Note_on_c, 1, 66, 58
3, 79117, Note_on_c, 1, 66, 0
3, 79140, Note_on_c, 1, 67, 69
3, 79175, Note_on_c, 1, 67, 0
3, 79200, Note_on_c, 1, 69, 64
3, 79251, Note_on_c, 1, 69, 0
3, 79320, Note_on_c, 1, 66, 66
3, 79356, Note_on_c, 1, 66, 0
3, 79380, Note_on_c, 1, 67, 64
3, 79409, Note_on_c, 1, 67, 0
3, 79440, Note_on_c, 1, 69, 35
3, 79487, Note_on_c, 1, 69, 0
3, 79560, Note_on_c, 1, 74, 64
3, 79615, Note_on_c, 1, 74, 0
3, 79680, Note_on_c, 1, 69, 39
3, 79736, Note_on_c, 1, 69, 0
3, 79800, Note_on_c, 1, 69, 55
3, 79838, Note_on_c, 1, 69, 0
3, 79860, Note_on_c, 1, 67, 43
3, 79903, Note_on_c, 1, 67, 0
3, 79920, Note_on_c, 1, 66, 48
3, 79972, Note_on_c, 1, 66, 0
3, 80040, Note_on_c, 1, 64, 48
3, 80075, Note_on_c, 1, 64, 0
3, 80100, Note_on_c, 1, 62, 58
3, 80138, Note_on_c, 1, 62, 0
3, 80160, Note_on_c, 1, 67, 51
3, 80206, Note_on_c, 1, 67, 0
3, 80280, Note_on_c, 1, 55, 51
3, 80361, Note_on_c, 1, 55, 0
3, 80520, Note_on_c, 1, 67, 58
3, 80559, Note_on_c, 1, 67, 0
3, 80580, Note_on_c, 1, 65, 48
3, 80619, Note_on_c, 1, 65, 0
3, 80640, Note_on_c, 1, 67, 64
3, 80677, Note_on_c, 1, 67, 0
3, 80760, Note_on_c, 1, 55, 35
3, 80800, Note_on_c, 1, 55, 0
3, 80820, Note_on_c, 1, 57, 58
3, 80865, Note_on_c, 1, 57, 0
3, 80880, Note_on_c, 1, 59, 43
3, 80948, Note_on_c, 1, 59, 0
3, 81000, Note_on_c, 1, 62, 58
3, 81065, Note_on_c, 1, 62, 0
3, 81120, Note_on_c, 1, 67, 51
3, 81186, Note_on_c, 1, 67, 0
3, 81240, Note_on_c, 1, 62, 48
3, 81304, Note_on_c, 1, 62, 0
3, 81360, Note_on_c, 1, 67, 58
3, 81429, Note_on_c, 1, 67, 0
3, 81480, Note_on_c, 1, 71, 48
3, 81559, Note_on_c, 1, 71, 0
3, 81600, Note_on_c, 1, 74, 51
3, 81667, Note_on_c, 1, 74, 0
3, 81720, Note_on_c, 1, 71, 48
3, 81788, Note_on_c, 1, 71, 0
3, 81840, Note_on_c, 1, 67, 51
3, 81905, Note_on_c, 1, 67, 0
3, 81960, Note_on_c, 1, 65, 48
3, 82039, Note_on_c, 1, 65, 0
3, 82080, Note_on_c, 1, 64, 58
3, 82296, Note_on_c, 1, 64, 0
3, 82320, Note_on_c, 1, 68, 48
3, 82536, Note_on_c, 1, 68, 0
3, 82560, Note_on_c, 1, 71, 51
3, 82776, Note_on_c, 1, 71, 0
3, 82920, Note_on_c, 1, 68, 66
3, 82954, Note_on_c, 1, 68, 0
3, 82980, Note_on_c, 1, 69, 64
3, 83015, Note_on_c, 1, 69, 0
3, 83040, Note_on_c, 1, 71, 51
3, 83091, Note_on_c, 1, 71, 0
3, 83160, Note_on_c, 1, 68, 39
3, 83197, Note_on_c, 1, 68, 0
3, 83220, Note_on_c, 1, 69, 48
3, 83252, Note_on_c, 1, 69, 0
3, 83280, Note_on_c, 1, 71, 35
3, 83342, Note_on_c, 1, 71, 0
3, 83400, Note_on_c, 1, 76, 66
3, 83449, Note_on_c, 1, 76, 0
3, 83520, Note_on_c, 1, 71, 61
3, 83595, Note_on_c, 1, 71, 0
3, 83640, Note_on_c, 1, 71, 58
3, 83679, Note_on_c, 1, 71, 0
3, 83700, Note_on_c, 1, 69, 61
3, 83745, Note_on_c, 1, 69, 0
3, 83760, Note_on_c, 1, 68, 51
3, 83849, Note_on_c, 1, 68, 0
3, 83880, Note_on_c, 1, 66, 58
3, 83922, Note_on_c, 1, 66, 0
3, 83940, Note_on_c, 1, 64, 55
3, 83980, Note_on_c, 1, 64, 0
3, 84000, Note_on_c, 1, 72, 66
3, 84048, Note_on_c, 1, 72, 0
3, 84120, Note_on_c, 1, 57, 48
3, 84217, Note_on_c, 1, 57, 0
3, 84360, Note_on_c, 1, 69, 61
3, 84401, Note_on_c, 1, 69, 0
3, 84420, Note_on_c, 1, 68, 51
3, 84464, Note_on_c, 1, 68, 0
3, 84480, Note_on_c, 1, 69, 58
3, 84547, Note_on_c, 1, 69, 0
3, 84600, Note_on_c, 1, 57, 51
3, 84640, Note_on_c, 1, 57, 0
3, 84660, Note_on_c, 1, 59, 64
3, 84697, Note_on_c, 1, 59, 0
3, 84720, Note_on_c, 1, 60, 61
3, 84790, Note_on_c, 1, 60, 0
3, 84840, Note_on_c, 1, 64, 69
3, 84912, Note_on_c, 1, 64, 0
3, 84960, Note_on_c, 1, 69, 30
3, 85037, Note_on_c, 1, 69, 0
3, 85080, Note_on_c, 1, 64, 48
3, 85143, Note_on_c, 1, 64, 0
3, 85200, Note_on_c, 1, 69, 58
3, 85272, Note_on_c, 1, 69, 0
3, 85320, Note_on_c, 1, 72, 55
3, 85416, Note_on_c, 1, 72, 0
3, 85440, Note_on_c, 1, 76, 64
3, 85495, Note_on_c, 1, 76, 0
3, 85560, Note_on_c, 1, 72, 58
3, 85639, Note_on_c, 1, 72, 0
3, 85680, Note_on_c, 1, 69, 55
3, 85758, Note_on_c, 1, 69, 0
3, 85800, Note_on_c, 1, 66, 51
3, 85864, Note_on_c, 1, 66, 0
3, 85920, Note_on_c, 1, 59, 64
3, 86136, Note_on_c, 1, 59, 0
3, 86160, Note_on_c, 1, 63, 55
3, 86376, Note_on_c, 1, 63, 0
3, 86400, Note_on_c, 1, 66, 39
3, 86616, Note_on_c, 1, 66, 0
3, 86760, Note_on_c, 1, 63, 48
3, 86792, Note_on_c, 1, 63, 0
3, 86820, Note_on_c, 1, 64, 58
3, 86854, Note_on_c, 1, 64, 0
3, 86880, Note_on_c, 1, 66, 51
3, 86940, Note_on_c, 1, 66, 0
3, 87000, Note_on_c, 1, 63, 58
3, 87034, Note_on_c, 1, 63, 0
3, 87060, Note_on_c, 1, 64, 48
3, 87101, Note_on_c, 1, 64, 0
3, 87120, Note_on_c, 1, 66, 26
3, 87182, Note_on_c, 1, 66, 0
3, 87240, Note_on_c, 1, 71, 51
3, 87289, Note_on_c, 1, 71, 0
3, 87360, Note_on_c, 1, 66, 72
3, 87428, Note_on_c, 1, 66, 0
3, 87480, Note_on_c, 1, 66, 77
3, 87521, Note_on_c, 1, 66, 0
3, 87540, Note_on_c, 1, 64, 72
3, 87589, Note_on_c, 1, 64, 0
3, 87600, Note_on_c, 1, 63, 96
3, 87679, Note_on_c, 1, 63, 0
3, 87720, Note_on_c, 1, 61, 72
3, 87757, Note_on_c, 1, 61, 0
3, 87780, Note_on_c, 1, 59, 72
3, 87833, Note_on_c, 1, 59, 0
3, 87840, Note_on_c, 1, 71, 84
3, 87916, Note_on_c, 1, 71, 0
3, 87960, Note_on_c, 1, 72, 79
3, 88042, Note_on_c, 1, 72, 0
3, 88080, Note_on_c, 1, 72, 84
3, 88163, Note_on_c, 1, 72, 0
3, 88200, Note_on_c, 1, 71, 74
3, 88275, Note_on_c, 1, 71, 0
3, 88320, Note_on_c, 1, 71, 72
3, 88531, Note_on_c, 1, 71, 0
3, 88560, Note_on_c, 1, 68, 58
3, 88770, Note_on_c, 1, 68, 0
3, 88800, Note_on_c, 1, 69, 48
3, 89496, Note_on_c, 1, 69, 0
3, 89640, Note_on_c, 1, 63, 111
3, 89717, Note_on_c, 1, 63, 0
3, 89760, Note_on_c, 1, 59, 79
3, 89830, Note_on_c, 1, 59, 0
3, 89880, Note_on_c, 1, 60, 84
3, 90066, Note_on_c, 1, 60, 0
3, 90120, Note_on_c, 1, 59, 127
3, 90173, Note_on_c, 1, 59, 0
3, 90240, Note_on_c, 1, 59, 125
3, 90456, Note_on_c, 1, 59, 0
3, 96840, Note_on_c, 1, 73, 89
3, 96912, Note_on_c, 1, 73, 0
3, 96960, Note_on_c, 1, 69, 105
3, 97176, Note_on_c, 1, 69, 0
3, 97200, Note_on_c, 1, 69, 89
3, 97416, Note_on_c, 1, 69, 0
3, 97440, Note_on_c, 1, 71, 96
3, 97656, Note_on_c, 1, 71, 0
3, 97680, Note_on_c, 1, 66, 89
3, 97896, Note_on_c, 1, 66, 0
3, 97920, Note_on_c, 1, 67, 89
3, 97965, Note_on_c, 1, 67, 0
3, 98040, Note_on_c, 1, 69, 74
3, 98201, Note_on_c, 1, 69, 0
3, 98280, Note_on_c, 1, 67, 84
3, 98354, Note_on_c, 1, 67, 0
3, 98400, Note_on_c, 1, 66, 81
3, 98445, Note_on_c, 1, 66, 0
3, 98520, Note_on_c, 1, 66, 61
3, 98712, Note_on_c, 1, 66, 0
3, 98760, Note_on_c, 1, 64, 79
3, 98842, Note_on_c, 1, 64, 0
3, 98880, Note_on_c, 1, 71, 74
3, 98947, Note_on_c, 1, 71, 0
3, 99000, Note_on_c, 1, 73, 89
3, 99033, Note_on_c, 1, 73, 0
3, 99060, Note_on_c, 1, 73, 77
3, 99101, Note_on_c, 1, 73, 0
3, 99120, Note_on_c, 1, 71, 77
3, 99157, Note_on_c, 1, 71, 0
3, 99180, Note_on_c, 1, 71, 72
3, 99221, Note_on_c, 1, 71, 0
3, 99240, Note_on_c, 1, 76, 89
3, 99274, Note_on_c, 1, 76, 0
3, 99300, Note_on_c, 1, 76, 79
3, 99340, Note_on_c, 1, 76, 0
3, 99360, Note_on_c, 1, 74, 96
3, 99399, Note_on_c, 1, 74, 0
3, 99420, Note_on_c, 1, 74, 96
3, 99464, Note_on_c, 1, 74, 0
3, 99480, Note_on_c, 1, 73, 77
3, 99519, Note_on_c, 1, 73, 0
3, 99540, Note_on_c, 1, 73, 72
3, 99578, Note_on_c, 1, 73, 0
3, 99600, Note_on_c, 1, 71, 74
3, 99641, Note_on_c, 1, 71, 0
3, 99660, Note_on_c, 1, 71, 72
3, 99702, Note_on_c, 1, 71, 0
3, 99720, Note_on_c, 1, 76, 102
3, 99755, Note_on_c, 1, 76, 0
3, 99780, Note_on_c, 1, 76, 79
3, 99817, Note_on_c, 1, 76, 0
3, 99840, Note_on_c, 1, 74, 77
3, 100081, Note_on_c, 1, 74, 0
3, 100140, Note_on_c, 1, 73, 86
3, 100185, Note_on_c, 1, 73, 0
3, 100200, Note_on_c, 1, 74, 89
3, 100245, Note_on_c, 1, 74, 0
3, 100260, Note_on_c, 1, 71, 74
3, 100304, Note_on_c, 1, 71, 0
3, 100320, Note_on_c, 1, 69, 35
3, 101472, Note_on_c, 1, 69, 0
3, 102000, Note_on_c, 1, 68, 48
3, 102216, Note_on_c, 1, 68, 0
3, 102240, Note_on_c, 1, 71, 48
3, 102456, Note_on_c, 1, 71, 0
3, 102480, Note_on_c, 1, 74, 48
3, 102696, Note_on_c, 1, 74, 0
3, 102840, Note_on_c, 1, 66, 30
3, 103056, Note_on_c, 1, 66, 0
3, 103080, Note_on_c, 1, 69, 35
3, 103296, Note_on_c, 1, 69, 0
3, 103320, Note_on_c, 1, 73, 26
3, 103536, Note_on_c, 1, 73, 0
3, 103920, Note_on_c, 1, 71, 51
3, 104136, Note_on_c, 1, 71, 0
3, 104160, Note_on_c, 1, 74, 48
3, 104376, Note_on_c, 1, 74, 0
3, 104400, Note_on_c, 1, 78, 35
3, 104616, Note_on_c, 1, 78, 0
3, 104640, Note_on_c, 1, 68, 1
3, 105095, Note_on_c, 1, 68, 0
3, 105120, Note_on_c, 1, 71, 30
3, 105593, Note_on_c, 1, 71, 0
3, 105600, Note_on_c, 1, 69, 18
3, 106551, Note_on_c, 1, 69, 0
3, 106560, Note_on_c, 1, 65, 18
3, 107511, Note_on_c, 1, 65, 0
3, 107520, Note_on_c, 1, 66, 1
3, 108427, Note_on_c, 1, 66, 0
3, 108480, Note_on_c, 1, 68, 3
3, 110086, Note_on_c, 1, 68, 0
3, 110280, Note_on_c, 1, 68, 96
3, 110326, Note_on_c, 1, 68, 0
3, 110400, Note_on_c, 1, 69, 96
3, 110472, Note_on_c, 1, 69, 0
3, 110520, Note_on_c, 1, 68, 124
3, 110557, Note_on_c, 1, 68, 0
3, 110580, Note_on_c, 1, 66, 64
3, 110615, Note_on_c, 1, 66, 0
3, 110640, Note_on_c, 1, 69, 96
3, 110679, Note_on_c, 1, 69, 0
3, 110700, Note_on_c, 1, 68, 111
3, 110735, Note_on_c, 1, 68, 0
3, 110760, Note_on_c, 1, 66, 81
3, 110798, Note_on_c, 1, 66, 0
3, 110820, Note_on_c, 1, 65, 93
3, 110855, Note_on_c, 1, 65, 0
3, 110880, Note_on_c, 1, 66, 84
3, 110947, Note_on_c, 1, 66, 0
3, 111000, Note_on_c, 1, 69, 89
3, 111036, Note_on_c, 1, 69, 0
3, 111060, Note_on_c, 1, 69, 79
3, 111095, Note_on_c, 1, 69, 0
3, 111120, Note_on_c, 1, 71, 69
3, 111149, Note_on_c, 1, 71, 0
3, 111180, Note_on_c, 1, 71, 79
3, 111213, Note_on_c, 1, 71, 0
3, 111240, Note_on_c, 1, 68, 64
3, 111272, Note_on_c, 1, 68, 0
3, 111300, Note_on_c, 1, 68, 72
3, 111338, Note_on_c, 1, 68, 0
3, 111360, Note_on_c, 1, 69, 79
3, 111396, Note_on_c, 1, 69, 0
3, 111420, Note_on_c, 1, 69, 72
3, 111456, Note_on_c, 1, 69, 0
3, 111480, Note_on_c, 1, 66, 69
3, 111514, Note_on_c, 1, 66, 0
3, 111540, Note_on_c, 1, 66, 66
3, 111576, Note_on_c, 1, 66, 0
3, 111600, Note_on_c, 1, 68, 127
3, 111639, Note_on_c, 1, 68, 0
3, 111660, Note_on_c, 1, 68, 127
3, 111697, Note_on_c, 1, 68, 0
3, 111720, Note_on_c, 1, 65, 102
3, 111752, Note_on_c, 1, 65, 0
3, 111780, Note_on_c, 1, 65, 89
3, 111823, Note_on_c, 1, 65, 0
3, 111840, Note_on_c, 1, 66, 117
3, 111840, Channel_aftertouch_c, 1, 12
3, 111849, Channel_aftertouch_c, 1, 0
3, 111851, Channel_aftertouch_c, 1, 54
3, 111859, Channel_aftertouch_c, 1, 0
3, 111861, Channel_aftertouch_c, 1, 88
3, 111870, Channel_aftertouch_c, 1, 0
3, 111872, Channel_aftertouch_c, 1, 105
3, 111880, Channel_aftertouch_c, 1, 0
3, 111883, Channel_aftertouch_c, 1, 97
3, 111891, Channel_aftertouch_c, 1, 0
3, 111893, Channel_aftertouch_c, 1, 80
3, 111902, Channel_aftertouch_c, 1, 0
3, 111904, Channel_aftertouch_c, 1, 65
3, 111913, Channel_aftertouch_c, 1, 0
3, 111915, Channel_aftertouch_c, 1, 57
3, 111923, Channel_aftertouch_c, 1, 0
3, 111925, Channel_aftertouch_c, 1, 53
3, 111934, Channel_aftertouch_c, 1, 0
3, 111936, Channel_aftertouch_c, 1, 26
3, 111941, Channel_aftertouch_c, 1, 0
3, 111948, Note_on_c, 1, 66, 0
3, 112620, Note_on_c, 1, 59, 89
3, 112662, Note_on_c, 1, 59, 0
3, 112680, Note_on_c, 1, 57, 84
3, 112723, Note_on_c, 1, 57, 0
3, 112740, Note_on_c, 1, 59, 77
3, 112794, Note_on_c, 1, 59, 0
3, 112800, Note_on_c, 1, 55, 120
3, 112915, Note_on_c, 1, 55, 0
3, 113100, Note_on_c, 1, 71, 102
3, 113144, Note_on_c, 1, 71, 0
3, 113160, Note_on_c, 1, 69, 84
3, 113201, Note_on_c, 1, 69, 0
3, 113220, Note_on_c, 1, 71, 89
3, 113261, Note_on_c, 1, 71, 0
3, 113280, Note_on_c, 1, 67, 89
3, 113387, Note_on_c, 1, 67, 0
3, 113580, Note_on_c, 1, 74, 96
3, 113620, Note_on_c, 1, 74, 0
3, 113640, Note_on_c, 1, 73, 86
3, 113681, Note_on_c, 1, 73, 0
3, 113700, Note_on_c, 1, 74, 102
3, 113743, Note_on_c, 1, 74, 0
3, 113760, Note_on_c, 1, 71, 117
3, 113861, Note_on_c, 1, 71, 0
3, 114060, Note_on_c, 1, 71, 123
3, 114102, Note_on_c, 1, 71, 0
3, 114120, Note_on_c, 1, 69, 89
3, 114162, Note_on_c, 1, 69, 0
3, 114180, Note_on_c, 1, 71, 96
3, 114229, Note_on_c, 1, 71, 0
3, 114240, Note_on_c, 1, 68, 72
3, 114350, Note_on_c, 1, 68, 0
3, 114540, Note_on_c, 1, 71, 102
3, 114583, Note_on_c, 1, 71, 0
3, 114600, Note_on_c, 1, 69, 74
3, 114644, Note_on_c, 1, 69, 0
3, 114660, Note_on_c, 1, 71, 84
3, 114709, Note_on_c, 1, 71, 0
3, 114720, Note_on_c, 1, 68, 66
3, 115201, Note_on_c, 1, 68, 0
3, 117120, Note_on_c, 1, 57, 124
3, 117336, Note_on_c, 1, 57, 0
3, 117360, Note_on_c, 1, 62, 124
3, 117576, Note_on_c, 1, 62, 0
3, 117600, Note_on_c, 1, 66, 127
3, 117816, Note_on_c, 1, 66, 0
3, 117960, Note_on_c, 1, 62, 105
3, 117990, Note_on_c, 1, 62, 0
3, 118020, Note_on_c, 1, 64, 114
3, 118060, Note_on_c, 1, 64, 0
3, 118080, Note_on_c, 1, 66, 127
3, 118149, Note_on_c, 1, 66, 0
3, 118200, Note_on_c, 1, 62, 124
3, 118228, Note_on_c, 1, 62, 0
3, 118260, Note_on_c, 1, 64, 108
3, 118294, Note_on_c, 1, 64, 0
3, 118320, Note_on_c, 1, 66, 111
3, 118392, Note_on_c, 1, 66, 0
3, 118440, Note_on_c, 1, 69, 96
3, 118508, Note_on_c, 1, 69, 0
3, 118560, Note_on_c, 1, 66, 117
3, 118636, Note_on_c, 1, 66, 0
3, 118680, Note_on_c, 1, 62, 117
3, 118734, Note_on_c, 1, 62, 0
3, 118800, Note_on_c, 1, 62, 126
3, 118872, Note_on_c, 1, 62, 0
3, 118920, Note_on_c, 1, 66, 89
3, 119160, Note_on_c, 1, 64, 79
3, 119164, Note_on_c, 1, 66, 0
3, 119398, Note_on_c, 1, 64, 0
3, 119400, Note_on_c, 1, 62, 79
3, 119520, Note_on_c, 1, 62, 0
3, 119520, Note_on_c, 1, 61, 93
3, 119736, Note_on_c, 1, 61, 0
3, 120000, Note_on_c, 1, 73, 93
3, 120029, Note_on_c, 1, 73, 0
3, 120060, Note_on_c, 1, 73, 111
3, 120087, Note_on_c, 1, 73, 0
3, 120117, Channel_aftertouch_c, 1, 38
3, 120120, Note_on_c, 1, 73, 127
3, 120126, Channel_aftertouch_c, 1, 0
3, 120128, Channel_aftertouch_c, 1, 19
3, 120136, Channel_aftertouch_c, 1, 0
3, 120138, Channel_aftertouch_c, 1, 9
3, 120143, Channel_aftertouch_c, 1, 0
3, 120150, Note_on_c, 1, 73, 0
3, 120180, Note_on_c, 1, 73, 127
3, 120210, Note_on_c, 1, 73, 0
3, 120240, Note_on_c, 1, 73, 127
3, 120271, Note_on_c, 1, 73, 0
3, 120300, Note_on_c, 1, 73, 127
3, 120331, Note_on_c, 1, 73, 0
3, 120360, Note_on_c, 1, 73, 127
3, 120366, Channel_aftertouch_c, 1, 6
3, 120375, Channel_aftertouch_c, 1, 0
3, 120377, Channel_aftertouch_c, 1, 3
3, 120386, Note_on_c, 1, 73, 0
3, 120386, Channel_aftertouch_c, 1, 0
3, 120388, Channel_aftertouch_c, 1, 1
3, 120396, Channel_aftertouch_c, 1, 0
3, 120420, Note_on_c, 1, 73, 127
3, 120449, Note_on_c, 1, 73, 0
3, 120480, Note_on_c, 1, 71, 127
3, 120696, Note_on_c, 1, 71, 0
3, 120960, Note_on_c, 1, 71, 127
3, 120989, Note_on_c, 1, 71, 0
3, 121020, Note_on_c, 1, 71, 84
3, 121047, Note_on_c, 1, 71, 0
3, 121080, Note_on_c, 1, 71, 99
3, 121108, Note_on_c, 1, 71, 0
3, 121140, Note_on_c, 1, 71, 117
3, 121167, Note_on_c, 1, 71, 0
3, 121200, Note_on_c, 1, 71, 125
3, 121228, Note_on_c, 1, 71, 0
3, 121260, Note_on_c, 1, 71, 84
3, 121288, Note_on_c, 1, 71, 0
3, 121320, Note_on_c, 1, 71, 124
3, 121347, Note_on_c, 1, 71, 0
3, 121380, Note_on_c, 1, 71, 127
3, 121417, Note_on_c, 1, 71, 0
3, 121440, Note_on_c, 1, 73, 127
3, 121656, Note_on_c, 1, 73, 0
3, 121920, Note_on_c, 1, 74, 120
3, 121960, Note_on_c, 1, 74, 0
3, 121980, Note_on_c, 1, 74, 117
3, 122015, Note_on_c, 1, 74, 0
3, 122040, Note_on_c, 1, 74, 124
3, 122076, Note_on_c, 1, 74, 0
3, 122100, Note_on_c, 1, 74, 89
3, 122134, Note_on_c, 1, 74, 0
3, 122160, Note_on_c, 1, 74, 120
3, 122191, Note_on_c, 1, 74, 0
3, 122220, Note_on_c, 1, 74, 127
3, 122251, Note_on_c, 1, 74, 0
3, 122280, Note_on_c, 1, 74, 86
3, 122312, Note_on_c, 1, 74, 0
3, 122340, Note_on_c, 1, 74, 93
3, 122371, Note_on_c, 1, 74, 0
3, 122400, Note_on_c, 1, 74, 127
3, 122616, Note_on_c, 1, 74, 0
3, 122640, Note_on_c, 1, 73, 127
3, 122856, Note_on_c, 1, 73, 0
3, 122880, Note_on_c, 1, 71, 117
3, 123096, Note_on_c, 1, 71, 0
3, 123120, Note_on_c, 1, 69, 108
3, 123336, Note_on_c, 1, 69, 0
3, 123360, Note_on_c, 1, 67, 117
3, 123576, Note_on_c, 1, 67, 0
3, 123600, Note_on_c, 1, 64, 84
3, 123667, Note_on_c, 1, 64, 0
3, 123720, Note_on_c, 1, 66, 81
3, 123796, Note_on_c, 1, 66, 0
3, 123840, Note_on_c, 1, 67, 66
3, 123926, Note_on_c, 1, 67, 0
3, 123960, Note_on_c, 1, 64, 96
3, 123988, Note_on_c, 1, 64, 0
3, 124020, Note_on_c, 1, 66, 91
3, 124060, Note_on_c, 1, 66, 0
3, 124080, Note_on_c, 1, 67, 99
3, 124159, Note_on_c, 1, 67, 0
3, 124200, Note_on_c, 1, 64, 84
3, 124231, Note_on_c, 1, 64, 0
3, 124260, Note_on_c, 1, 66, 89
3, 124303, Note_on_c, 1, 66, 0
3, 124320, Note_on_c, 1, 67, 89
3, 124463, Note_on_c, 1, 67, 0
3, 124680, Note_on_c, 1, 76, 84
3, 124753, Note_on_c, 1, 76, 0
3, 124800, Note_on_c, 1, 74, 111
3, 124868, Note_on_c, 1, 74, 0
3, 124920, Note_on_c, 1, 69, 79
3, 124987, Note_on_c, 1, 69, 0
3, 125040, Note_on_c, 1, 71, 79
3, 125118, Note_on_c, 1, 71, 0
3, 125160, Note_on_c, 1, 69, 66
3, 125222, Note_on_c, 1, 69, 0
3, 125280, Note_on_c, 1, 62, 74
3, 125340, Note_on_c, 1, 62, 0
3, 125400, Note_on_c, 1, 69, 69
3, 125624, Note_on_c, 1, 69, 0
3, 125640, Note_on_c, 1, 67, 74
3, 125733, Note_on_c, 1, 67, 0
3, 125760, Note_on_c, 1, 66, 58
3, 125819, Note_on_c, 1, 66, 0
3, 125880, Note_on_c, 1, 69, 69
3, 126091, Note_on_c, 1, 69, 0
3, 126120, Note_on_c, 1, 67, 72
3, 126215, Note_on_c, 1, 67, 0
3, 126240, Note_on_c, 1, 66, 66
3, 126328, Note_on_c, 1, 66, 0
3, 126360, Note_on_c, 1, 73, 111
3, 126393, Note_on_c, 1, 73, 0
3, 126420, Note_on_c, 1, 73, 105
3, 126465, Note_on_c, 1, 73, 0
3, 126480, Note_on_c, 1, 74, 77
3, 126520, Note_on_c, 1, 74, 0
3, 126540, Note_on_c, 1, 74, 111
3, 126582, Note_on_c, 1, 74, 0
3, 126600, Note_on_c, 1, 76, 89
3, 126633, Note_on_c, 1, 76, 0
3, 126660, Note_on_c, 1, 76, 66
3, 126691, Note_on_c, 1, 76, 0
3, 126720, Note_on_c, 1, 69, 84
3, 126720, Note_on_c, 1, 69, 79
3, 126721, Note_on_c, 1, 69, 0
3, 126797, Note_on_c, 1, 69, 0
3, 126840, Note_on_c, 1, 71, 79
3, 126930, Note_on_c, 1, 71, 0
3, 126960, Note_on_c, 1, 71, 81
3, 127052, Note_on_c, 1, 71, 0
3, 127080, Note_on_c, 1, 69, 84
3, 127158, Note_on_c, 1, 69, 0
3, 127200, Note_on_c, 1, 69, 86
3, 127416, Note_on_c, 1, 69, 0
3, 127560, Note_on_c, 1, 62, 79
3, 127598, Note_on_c, 1, 62, 0
3, 127620, Note_on_c, 1, 64, 86
3, 127660, Note_on_c, 1, 64, 0
3, 127680, Note_on_c, 1, 66, 89
3, 127749, Note_on_c, 1, 66, 0
3, 127800, Note_on_c, 1, 57, 66
3, 127874, Note_on_c, 1, 57, 0
3, 127920, Note_on_c, 1, 62, 72
3, 127978, Note_on_c, 1, 62, 0
3, 128040, Note_on_c, 1, 62, 84
3, 128084, Note_on_c, 1, 62, 0
3, 128100, Note_on_c, 1, 64, 79
3, 128143, Note_on_c, 1, 64, 0
3, 128160, Note_on_c, 1, 66, 84
3, 128236, Note_on_c, 1, 66, 0
3, 128280, Note_on_c, 1, 66, 77
3, 128323, Note_on_c, 1, 66, 0
3, 128340, Note_on_c, 1, 64, 72
3, 128379, Note_on_c, 1, 64, 0
3, 128400, Note_on_c, 1, 62, 58
3, 128472, Note_on_c, 1, 62, 0
3, 128520, Note_on_c, 1, 57, 64
3, 128591, Note_on_c, 1, 57, 0
3, 130560, Note_on_c, 1, 57, 102
3, 130776, Note_on_c, 1, 57, 0
3, 130800, Note_on_c, 1, 62, 125
3, 131016, Note_on_c, 1, 62, 0
3, 131040, Note_on_c, 1, 66, 111
3, 131256, Note_on_c, 1, 66, 0
3, 131400, Note_on_c, 1, 62, 108
3, 131435, Note_on_c, 1, 62, 0
3, 131460, Note_on_c, 1, 64, 105
3, 131495, Note_on_c, 1, 64, 0
3, 131520, Note_on_c, 1, 66, 117
3, 131589, Note_on_c, 1, 66, 0
3, 131640, Note_on_c, 1, 62, 111
3, 131670, Note_on_c, 1, 62, 0
3, 131700, Note_on_c, 1, 64, 111
3, 131733, Note_on_c, 1, 64, 0
3, 131760, Note_on_c, 1, 66, 114
3, 131829, Note_on_c, 1, 66, 0
3, 131880, Note_on_c, 1, 69, 117
3, 131952, Note_on_c, 1, 69, 0
3, 132000, Note_on_c, 1, 66, 93
3, 132077, Note_on_c, 1, 66, 0
3, 132120, Note_on_c, 1, 62, 74
3, 132192, Note_on_c, 1, 62, 0
3, 132240, Note_on_c, 1, 62, 79
3, 132323, Note_on_c, 1, 62, 0
3, 132360, Note_on_c, 1, 66, 72
3, 132486, Channel_aftertouch_c, 1, 6
3, 132497, Channel_aftertouch_c, 1, 3
3, 132508, Channel_aftertouch_c, 1, 1
3, 132600, Note_on_c, 1, 64, 30
3, 132602, Note_on_c, 1, 66, 0
3, 132831, Note_on_c, 1, 64, 0
3, 132840, Note_on_c, 1, 62, 30
3, 132960, Note_on_c, 1, 61, 48
3, 132963, Note_on_c, 1, 62, 0
3, 133176, Note_on_c, 1, 61, 0
3, 133440, Note_on_c, 1, 57, 43
3, 133656, Note_on_c, 1, 57, 0
3, 133680, Note_on_c, 1, 61, 51
3, 133896, Note_on_c, 1, 61, 0
3, 133920, Note_on_c, 1, 64, 26
3, 134136, Note_on_c, 1, 64, 0
3, 134400, Note_on_c, 1, 61, 1
3, 134616, Note_on_c, 1, 61, 0
3, 134640, Note_on_c, 1, 64, 3
3, 134856, Note_on_c, 1, 64, 0
3, 134880, Note_on_c, 1, 69, 8
3, 135096, Note_on_c, 1, 69, 0
3, 135720, Note_on_c, 1, 69, 89
3, 135753, Note_on_c, 1, 69, 0
3, 135780, Note_on_c, 1, 71, 96
3, 135816, Note_on_c, 1, 71, 0
3, 135840, Note_on_c, 1, 73, 108
3, 135903, Note_on_c, 1, 73, 0
3, 135960, Note_on_c, 1, 69, 84
3, 135994, Note_on_c, 1, 69, 0
3, 136020, Note_on_c, 1, 71, 89
3, 136059, Note_on_c, 1, 71, 0
3, 136080, Note_on_c, 1, 73, 96
3, 136147, Note_on_c, 1, 73, 0
3, 136200, Note_on_c, 1, 76, 89
3, 136269, Note_on_c, 1, 76, 0
3, 136320, Note_on_c, 1, 73, 72
3, 136400, Note_on_c, 1, 73, 0
3, 136440, Note_on_c, 1, 73, 102
3, 136509, Note_on_c, 1, 73, 0
3, 136560, Note_on_c, 1, 69, 66
3, 136640, Note_on_c, 1, 69, 0
3, 136680, Note_on_c, 1, 64, 48
3, 136746, Note_on_c, 1, 64, 0
3, 136800, Note_on_c, 1, 61, 8
3, 137952, Note_on_c, 1, 61, 0
3, 138840, Note_on_c, 1, 61, 58
3, 138909, Note_on_c, 1, 61, 0
3, 139080, Note_on_c, 1, 61, 39
3, 139164, Note_on_c, 1, 61, 0
3, 139320, Note_on_c, 1, 61, 39
3, 139394, Note_on_c, 1, 61, 0
3, 139560, Note_on_c, 1, 59, 35
3, 139618, Note_on_c, 1, 59, 0
3, 139680, Note_on_c, 1, 59, 26
3, 140112, Note_on_c, 1, 59, 0
3, 140160, Note_on_c, 1, 68, 84
3, 140189, Note_on_c, 1, 68, 0
3, 140220, Note_on_c, 1, 68, 96
3, 140246, Note_on_c, 1, 68, 0
3, 140280, Note_on_c, 1, 68, 123
3, 140309, Note_on_c, 1, 68, 0
3, 140340, Note_on_c, 1, 68, 127
3, 140367, Note_on_c, 1, 68, 0
3, 140400, Note_on_c, 1, 68, 127
3, 140426, Note_on_c, 1, 68, 0
3, 140460, Note_on_c, 1, 68, 111
3, 140485, Note_on_c, 1, 68, 0
3, 140520, Note_on_c, 1, 68, 127
3, 140544, Note_on_c, 1, 68, 0
3, 140580, Note_on_c, 1, 68, 127
3, 140603, Note_on_c, 1, 68, 0
3, 140640, Note_on_c, 1, 70, 127
3, 140856, Note_on_c, 1, 70, 0
3, 141120, Note_on_c, 1, 71, 127
3, 141148, Note_on_c, 1, 71, 0
3, 141180, Note_on_c, 1, 71, 111
3, 141208, Note_on_c, 1, 71, 0
3, 141240, Note_on_c, 1, 71, 120
3, 141268, Note_on_c, 1, 71, 0
3, 141300, Note_on_c, 1, 71, 86
3, 141333, Note_on_c, 1, 71, 0
3, 141360, Note_on_c, 1, 69, 99
3, 141387, Note_on_c, 1, 69, 0
3, 141420, Note_on_c, 1, 69, 127
3, 141446, Note_on_c, 1, 69, 0
3, 141480, Note_on_c, 1, 69, 120
3, 141507, Note_on_c, 1, 69, 0
3, 141540, Note_on_c, 1, 69, 114
3, 141575, Note_on_c, 1, 69, 0
3, 141600, Note_on_c, 1, 68, 111
3, 141816, Note_on_c, 1, 68, 0
3, 142080, Note_on_c, 1, 69, 117
3, 142109, Note_on_c, 1, 69, 0
3, 142140, Note_on_c, 1, 69, 120
3, 142173, Note_on_c, 1, 69, 0
3, 142200, Note_on_c, 1, 69, 89
3, 142227, Note_on_c, 1, 69, 0
3, 142260, Note_on_c, 1, 69, 93
3, 142288, Note_on_c, 1, 69, 0
3, 142310, Channel_aftertouch_c, 1, 6
3, 142319, Channel_aftertouch_c, 1, 0
3, 142320, Note_on_c, 1, 69, 96
3, 142321, Channel_aftertouch_c, 1, 3
3, 142329, Channel_aftertouch_c, 1, 0
3, 142332, Channel_aftertouch_c, 1, 1
3, 142333, Channel_aftertouch_c, 1, 0
3, 142345, Note_on_c, 1, 69, 0
3, 142380, Note_on_c, 1, 69, 89
3, 142408, Note_on_c, 1, 69, 0
3, 142440, Note_on_c, 1, 69, 96
3, 142467, Note_on_c, 1, 69, 0
3, 142500, Note_on_c, 1, 69, 111
3, 142524, Note_on_c, 1, 69, 0
3, 142560, Note_on_c, 1, 69, 105
3, 142776, Note_on_c, 1, 69, 0
3, 142800, Note_on_c, 1, 68, 69
3, 143016, Note_on_c, 1, 68, 0
3, 143040, Note_on_c, 1, 66, 81
3, 143256, Note_on_c, 1, 66, 0
3, 143280, Note_on_c, 1, 64, 89
3, 143496, Note_on_c, 1, 64, 0
3, 143520, Note_on_c, 1, 62, 79
3, 143736, Note_on_c, 1, 62, 0
3, 143760, Note_on_c, 1, 59, 77
3, 143823, Note_on_c, 1, 59, 0
3, 143880, Note_on_c, 1, 61, 74
3, 143941, Note_on_c, 1, 61, 0
3, 144000, Note_on_c, 1, 62, 74
3, 144067, Note_on_c, 1, 62, 0
3, 144120, Note_on_c, 1, 59, 96
3, 144152, Note_on_c, 1, 59, 0
3, 144180, Note_on_c, 1, 61, 81
3, 144218, Note_on_c, 1, 61, 0
3, 144240, Note_on_c, 1, 62, 84
3, 144304, Note_on_c, 1, 62, 0
3, 144360, Note_on_c, 1, 59, 102
3, 144392, Note_on_c, 1, 59, 0
3, 144420, Note_on_c, 1, 57, 89
3, 144452, Note_on_c, 1, 57, 0
3, 144480, Note_on_c, 1, 56, 84
3, 144603, Note_on_c, 1, 56, 0
3, 144840, Note_on_c, 1, 71, 77
3, 144920, Note_on_c, 1, 71, 0
3, 144960, Note_on_c, 1, 69, 74
3, 145027, Note_on_c, 1, 69, 0
3, 145080, Note_on_c, 1, 64, 66
3, 145156, Note_on_c, 1, 64, 0
3, 145200, Note_on_c, 1, 66, 72
3, 145278, Note_on_c, 1, 66, 0
3, 145320, Note_on_c, 1, 64, 55
3, 145399, Note_on_c, 1, 64, 0
3, 145440, Note_on_c, 1, 64, 89
3, 145656, Note_on_c, 1, 64, 0
3, 146040, Note_on_c, 1, 64, 66
3, 146076, Note_on_c, 1, 64, 0
3, 146100, Note_on_c, 1, 64, 72
3, 146144, Note_on_c, 1, 64, 0
3, 146160, Note_on_c, 1, 66, 72
3, 146193, Note_on_c, 1, 66, 0
3, 146220, Note_on_c, 1, 66, 77
3, 146255, Note_on_c, 1, 66, 0
3, 146280, Note_on_c, 1, 68, 64
3, 146312, Note_on_c, 1, 68, 0
3, 146340, Note_on_c, 1, 68, 58
3, 146376, Note_on_c, 1, 68, 0
3, 146400, Note_on_c, 1, 69, 69
3, 146616, Note_on_c, 1, 69, 0
3, 147480, Note_on_c, 1, 64, 79
3, 147510, Note_on_c, 1, 64, 0
3, 147540, Note_on_c, 1, 64, 66
3, 147577, Note_on_c, 1, 64, 0
3, 147600, Note_on_c, 1, 66, 81
3, 147633, Note_on_c, 1, 66, 0
3, 147660, Note_on_c, 1, 66, 77
3, 147692, Note_on_c, 1, 66, 0
3, 147720, Note_on_c, 1, 68, 64
3, 147752, Note_on_c, 1, 68, 0
3, 147780, Note_on_c, 1, 68, 61
3, 147819, Note_on_c, 1, 68, 0
3, 147840, Note_on_c, 1, 69, 58
3, 147908, Note_on_c, 1, 69, 0
3, 147960, Note_on_c, 1, 64, 51
3, 148194, Note_on_c, 1, 64, 0
3, 148200, Note_on_c, 1, 62, 58
3, 148281, Note_on_c, 1, 62, 0
3, 148320, Note_on_c, 1, 61, 51
3, 148383, Note_on_c, 1, 61, 0
3, 148440, Note_on_c, 1, 64, 102
3, 148470, Note_on_c, 1, 64, 0
3, 148500, Note_on_c, 1, 64, 58
3, 148545, Note_on_c, 1, 64, 0
3, 148560, Note_on_c, 1, 69, 96
3, 148591, Note_on_c, 1, 69, 0
3, 148620, Note_on_c, 1, 69, 84
3, 148660, Note_on_c, 1, 69, 0
3, 148680, Note_on_c, 1, 71, 77
3, 148720, Note_on_c, 1, 71, 0
3, 148740, Note_on_c, 1, 71, 111
3, 148777, Note_on_c, 1, 71, 0
3, 148800, Note_on_c, 1, 69, 102
3, 148855, Note_on_c, 1, 69, 0
3, 148920, Note_on_c, 1, 61, 72
3, 149001, Note_on_c, 1, 61, 0
3, 149040, Note_on_c, 1, 66, 77
3, 149125, Note_on_c, 1, 66, 0
3, 149160, Note_on_c, 1, 64, 66
3, 149246, Note_on_c, 1, 64, 0
3, 149280, Note_on_c, 1, 64, 58
3, 149496, Note_on_c, 1, 64, 0
3, 149760, Note_on_c, 1, 57, 111
3, 149976, Note_on_c, 1, 57, 0
3, 150000, Note_on_c, 1, 62, 96
3, 150216, Note_on_c, 1, 62, 0
3, 150240, Note_on_c, 1, 66, 117
3, 150456, Note_on_c, 1, 66, 0
3, 150720, Note_on_c, 1, 62, 35
3, 150936, Note_on_c, 1, 62, 0
3, 150960, Note_on_c, 1, 66, 43
3, 151176, Note_on_c, 1, 66, 0
3, 151200, Note_on_c, 1, 69, 35
3, 151416, Note_on_c, 1, 69, 0
3, 151680, Note_on_c, 1, 66, 26
3, 151896, Note_on_c, 1, 66, 0
3, 151920, Note_on_c, 1, 69, 30
3, 152136, Note_on_c, 1, 69, 0
3, 152160, Note_on_c, 1, 74, 43
3, 152376, Note_on_c, 1, 74, 0
3, 153000, Note_on_c, 1, 62, 86
3, 153031, Note_on_c, 1, 62, 0
3, 153060, Note_on_c, 1, 64, 86
3, 153070, Channel_aftertouch_c, 1, 1
3, 153094, Note_on_c, 1, 64, 0
3, 153120, Note_on_c, 1, 66, 120
3, 153192, Note_on_c, 1, 66, 0
3, 153240, Note_on_c, 1, 62, 77
3, 153272, Note_on_c, 1, 62, 0
3, 153300, Note_on_c, 1, 64, 72
3, 153336, Note_on_c, 1, 64, 0
3, 153360, Note_on_c, 1, 66, 89
3, 153436, Note_on_c, 1, 66, 0
3, 153480, Note_on_c, 1, 69, 77
3, 153549, Note_on_c, 1, 69, 0
3, 153600, Note_on_c, 1, 66, 96
3, 153680, Note_on_c, 1, 66, 0
3, 153720, Note_on_c, 1, 62, 74
3, 153790, Note_on_c, 1, 62, 0
3, 153840, Note_on_c, 1, 62, 72
3, 153917, Note_on_c, 1, 62, 0
3, 153960, Note_on_c, 1, 57, 69
3, 154039, Note_on_c, 1, 57, 0
3, 154080, Note_on_c, 1, 62, 30
3, 155232, Note_on_c, 1, 62, 0
3, 156120, Note_on_c, 1, 66, 55
3, 156194, Note_on_c, 1, 66, 0
3, 156360, Note_on_c, 1, 66, 43
3, 156435, Note_on_c, 1, 66, 0
3, 156600, Note_on_c, 1, 66, 39
3, 156669, Note_on_c, 1, 66, 0
3, 156840, Note_on_c, 1, 64, 48
3, 156898, Note_on_c, 1, 64, 0
3, 156960, Note_on_c, 1, 64, 55
3, 157176, Note_on_c, 1, 64, 0
3, 157440, Note_on_c, 1, 73, 81
3, 157466, Note_on_c, 1, 73, 0
3, 157500, Note_on_c, 1, 73, 124
3, 157526, Note_on_c, 1, 73, 0
3, 157560, Note_on_c, 1, 73, 120
3, 157586, Note_on_c, 1, 73, 0
3, 157620, Note_on_c, 1, 73, 111
3, 157644, Note_on_c, 1, 73, 0
3, 157680, Note_on_c, 1, 73, 127
3, 157705, Note_on_c, 1, 73, 0
3, 157740, Note_on_c, 1, 73, 127
3, 157764, Note_on_c, 1, 73, 0
3, 157800, Note_on_c, 1, 73, 93
3, 157807, Channel_aftertouch_c, 1, 3
3, 157817, Channel_aftertouch_c, 1, 1
3, 157824, Note_on_c, 1, 73, 0
3, 157860, Note_on_c, 1, 73, 126
3, 157883, Note_on_c, 1, 73, 0
3, 157920, Note_on_c, 1, 71, 126
3, 158136, Note_on_c, 1, 71, 0
3, 158400, Note_on_c, 1, 71, 127
3, 158429, Note_on_c, 1, 71, 0
3, 158460, Note_on_c, 1, 71, 99
3, 158485, Note_on_c, 1, 71, 0
3, 158520, Note_on_c, 1, 71, 93
3, 158548, Note_on_c, 1, 71, 0
3, 158580, Note_on_c, 1, 71, 84
3, 158608, Note_on_c, 1, 71, 0
3, 158640, Note_on_c, 1, 71, 108
3, 158666, Note_on_c, 1, 71, 0
3, 158700, Note_on_c, 1, 71, 96
3, 158726, Note_on_c, 1, 71, 0
3, 158760, Note_on_c, 1, 71, 123
3, 158788, Note_on_c, 1, 71, 0
3, 158820, Note_on_c, 1, 71, 86
3, 158853, Note_on_c, 1, 71, 0
3, 158880, Note_on_c, 1, 73, 127
3, 159096, Note_on_c, 1, 73, 0
3, 159360, Note_on_c, 1, 74, 120
3, 159387, Note_on_c, 1, 74, 0
3, 159420, Note_on_c, 1, 74, 108
3, 159449, Note_on_c, 1, 74, 0
3, 159480, Note_on_c, 1, 74, 127
3, 159510, Note_on_c, 1, 74, 0
3, 159540, Note_on_c, 1, 74, 127
3, 159566, Note_on_c, 1, 74, 0
3, 159600, Note_on_c, 1, 74, 127
3, 159610, Channel_aftertouch_c, 1, 3
3, 159620, Channel_aftertouch_c, 1, 1
3, 159628, Note_on_c, 1, 74, 0
3, 159660, Note_on_c, 1, 74, 123
3, 159688, Note_on_c, 1, 74, 0
3, 159720, Note_on_c, 1, 74, 105
3, 159748, Note_on_c, 1, 74, 0
3, 159780, Note_on_c, 1, 74, 111
3, 159807, Note_on_c, 1, 74, 0
3, 159840, Note_on_c, 1, 74, 120
3, 159892, Note_on_c, 1, 74, 0
3, 160080, Note_on_c, 1, 73, 117
3, 160139, Note_on_c, 1, 73, 0
3, 160320, Note_on_c, 1, 71, 89
3, 160536, Note_on_c, 1, 71, 0
3, 160560, Note_on_c, 1, 69, 84
3, 160776, Note_on_c, 1, 69, 0
3, 160800, Note_on_c, 1, 67, 102
3, 161016, Note_on_c, 1, 67, 0
3, 161040, Note_on_c, 1, 64, 96
3, 161086, Channel_aftertouch_c, 1, 6
3, 161097, Channel_aftertouch_c, 1, 3
3, 161105, Note_on_c, 1, 64, 0
3, 161108, Channel_aftertouch_c, 1, 1
3, 161160, Note_on_c, 1, 66, 69
3, 161227, Note_on_c, 1, 66, 0
3, 161280, Note_on_c, 1, 67, 84
3, 161362, Note_on_c, 1, 67, 0
3, 161400, Note_on_c, 1, 64, 99
3, 161427, Note_on_c, 1, 64, 0
3, 161460, Note_on_c, 1, 66, 91
3, 161491, Note_on_c, 1, 66, 0
3, 161520, Note_on_c, 1, 67, 102
3, 161592, Note_on_c, 1, 67, 0
3, 161640, Note_on_c, 1, 64, 79
3, 161676, Note_on_c, 1, 64, 0
3, 161700, Note_on_c, 1, 66, 77
3, 161731, Note_on_c, 1, 66, 0
3, 161760, Note_on_c, 1, 67, 93
3, 161976, Note_on_c, 1, 67, 0
3, 162120, Note_on_c, 1, 76, 81
3, 162200, Note_on_c, 1, 76, 0
3, 162240, Note_on_c, 1, 74, 89
3, 162324, Note_on_c, 1, 74, 0
3, 162360, Note_on_c, 1, 69, 72
3, 162437, Note_on_c, 1, 69, 0
3, 162480, Note_on_c, 1, 71, 89
3, 162565, Note_on_c, 1, 71, 0
3, 162600, Note_on_c, 1, 69, 77
3, 162675, Note_on_c, 1, 69, 0
3, 162720, Note_on_c, 1, 69, 89
3, 162936, Note_on_c, 1, 69, 0
3, 163320, Note_on_c, 1, 69, 58
3, 163351, Note_on_c, 1, 69, 0
3, 163380, Note_on_c, 1, 69, 66
3, 163420, Note_on_c, 1, 69, 0
3, 163440, Note_on_c, 1, 71, 66
3, 163470, Note_on_c, 1, 71, 0
3, 163500, Note_on_c, 1, 71, 55
3, 163531, Note_on_c, 1, 71, 0
3, 163560, Note_on_c, 1, 73, 66
3, 163592, Note_on_c, 1, 73, 0
3, 163620, Note_on_c, 1, 73, 51
3, 163648, Note_on_c, 1, 73, 0
3, 163680, Note_on_c, 1, 74, 66
3, 163896, Note_on_c, 1, 74, 0
3, 164760, Note_on_c, 1, 69, 77
3, 164792, Note_on_c, 1, 69, 0
3, 164820, Note_on_c, 1, 69, 74
3, 164860, Note_on_c, 1, 69, 0
3, 164880, Note_on_c, 1, 71, 72
3, 164911, Note_on_c, 1, 71, 0
3, 164940, Note_on_c, 1, 71, 72
3, 164975, Note_on_c, 1, 71, 0
3, 165000, Note_on_c, 1, 73, 51
3, 165028, Note_on_c, 1, 73, 0
3, 165060, Note_on_c, 1, 73, 51
3, 165092, Note_on_c, 1, 73, 0
3, 165120, Note_on_c, 1, 74, 66
3, 165188, Note_on_c, 1, 74, 0
3, 165240, Note_on_c, 1, 69, 81
3, 165480, Note_on_c, 1, 67, 74
3, 165481, Note_on_c, 1, 69, 0
3, 165576, Note_on_c, 1, 67, 0
3, 165600, Note_on_c, 1, 66, 96
3, 165665, Note_on_c, 1, 66, 0
3, 165720, Note_on_c, 1, 69, 93
3, 165754, Note_on_c, 1, 69, 0
3, 165780, Note_on_c, 1, 69, 77
3, 165825, Note_on_c, 1, 69, 0
3, 165840, Note_on_c, 1, 74, 102
3, 165873, Note_on_c, 1, 74, 0
3, 165900, Note_on_c, 1, 74, 89
3, 165942, Note_on_c, 1, 74, 0
3, 165960, Note_on_c, 1, 76, 111
3, 165995, Note_on_c, 1, 76, 0
3, 166020, Note_on_c, 1, 76, 86
3, 166058, Note_on_c, 1, 76, 0
3, 166080, Note_on_c, 1, 74, 84
3, 166155, Note_on_c, 1, 74, 0
3, 166200, Note_on_c, 1, 66, 64
3, 166288, Note_on_c, 1, 66, 0
3, 166320, Note_on_c, 1, 71, 89
3, 166404, Note_on_c, 1, 71, 0
3, 166440, Note_on_c, 1, 69, 79
3, 166525, Note_on_c, 1, 69, 0
3, 166560, Note_on_c, 1, 69, 81
3, 166785, Note_on_c, 1, 69, 0
3, 166785, End_track
4, 0, Start_track
4, 0, Title_t, "Viola     "
4, 0, Program_c, 1, 41
4, 0, Control_c, 1, 7, 127
4, 0, Note_on_c, 1, 54, 93
4, 3, Channel_aftertouch_c, 1, 64
4, 15, Channel_aftertouch_c, 1, 32
4, 27, Channel_aftertouch_c, 1, 16
4, 39, Channel_aftertouch_c, 1, 8
4, 51, Channel_aftertouch_c, 1, 4
4, 63, Channel_aftertouch_c, 1, 2
4, 75, Channel_aftertouch_c, 1, 1
4, 113, Note_on_c, 1, 54, 0
4, 240, Note_on_c, 1, 57, 102
4, 250, Channel_aftertouch_c, 1, 18
4, 256, Channel_aftertouch_c, 1, 9
4, 268, Channel_aftertouch_c, 1, 4
4, 280, Channel_aftertouch_c, 1, 2
4, 292, Channel_aftertouch_c, 1, 1
4, 353, Note_on_c, 1, 57, 0
4, 480, Note_on_c, 1, 62, 127
4, 593, Note_on_c, 1, 62, 0
4, 840, Note_on_c, 1, 57, 93
4, 908, Note_on_c, 1, 57, 0
4, 960, Note_on_c, 1, 62, 55
4, 1018, Note_on_c, 1, 62, 0
4, 1080, Note_on_c, 1, 57, 64
4, 1148, Note_on_c, 1, 57, 0
4, 1200, Note_on_c, 1, 62, 58
4, 1268, Note_on_c, 1, 62, 0
4, 1320, Note_on_c, 1, 57, 58
4, 1385, Note_on_c, 1, 57, 0
4, 1440, Note_on_c, 1, 62, 66
4, 1503, Note_on_c, 1, 62, 0
4, 1560, Note_on_c, 1, 57, 55
4, 1623, Note_on_c, 1, 57, 0
4, 1680, Note_on_c, 1, 57, 64
4, 1749, Note_on_c, 1, 57, 0
4, 1800, Note_on_c, 1, 57, 69
4, 1874, Note_on_c, 1, 57, 0
4, 1920, Note_on_c, 1, 62, 64
4, 2001, Note_on_c, 1, 62, 0
4, 2040, Note_on_c, 1, 61, 51
4, 2120, Note_on_c, 1, 61, 0
4, 2160, Note_on_c, 1, 57, 51
4, 2231, Note_on_c, 1, 57, 0
4, 2280, Note_on_c, 1, 57, 48
4, 2351, Note_on_c, 1, 57, 0
4, 2400, Note_on_c, 1, 57, 30
4, 2616, Note_on_c, 1, 57, 0
4, 2880, Note_on_c, 1, 66, 48
4, 2910, Note_on_c, 1, 66, 0
4, 2940, Note_on_c, 1, 66, 84
4, 2976, Note_on_c, 1, 66, 0
4, 3000, Note_on_c, 1, 66, 89
4, 3033, Note_on_c, 1, 66, 0
4, 3060, Note_on_c, 1, 66, 108
4, 3088, Note_on_c, 1, 66, 0
4, 3120, Note_on_c, 1, 66, 105
4, 3131, Channel_aftertouch_c, 1, 19
4, 3143, Channel_aftertouch_c, 1, 9
4, 3149, Note_on_c, 1, 66, 0
4, 3180, Note_on_c, 1, 66, 127
4, 3210, Note_on_c, 1, 66, 0
4, 3240, Note_on_c, 1, 66, 127
4, 3252, Channel_aftertouch_c, 1, 6
4, 3265, Channel_aftertouch_c, 1, 3
4, 3269, Note_on_c, 1, 66, 0
4, 3276, Channel_aftertouch_c, 1, 1
4, 3300, Note_on_c, 1, 66, 127
4, 3332, Note_on_c, 1, 66, 0
4, 3360, Note_on_c, 1, 63, 93
4, 3473, Note_on_c, 1, 63, 0
4, 3840, Note_on_c, 1, 64, 127
4, 3871, Note_on_c, 1, 64, 0
4, 3900, Note_on_c, 1, 64, 72
4, 3930, Note_on_c, 1, 64, 0
4, 3960, Note_on_c, 1, 64, 61
4, 3991, Note_on_c, 1, 64, 0
4, 4020, Note_on_c, 1, 64, 64
4, 4049, Note_on_c, 1, 64, 0
4, 4080, Note_on_c, 1, 64, 111
4, 4115, Note_on_c, 1, 64, 0
4, 4140, Note_on_c, 1, 64, 89
4, 4166, Note_on_c, 1, 64, 0
4, 4200, Note_on_c, 1, 64, 108
4, 4226, Note_on_c, 1, 64, 0
4, 4260, Note_on_c, 1, 64, 127
4, 4285, Note_on_c, 1, 64, 0
4, 4320, Note_on_c, 1, 64, 127
4, 4433, Note_on_c, 1, 64, 0
4, 4800, Note_on_c, 1, 69, 74
4, 4837, Note_on_c, 1, 69, 0
4, 4860, Note_on_c, 1, 69, 74
4, 4894, Note_on_c, 1, 69, 0
4, 4920, Note_on_c, 1, 69, 81
4, 4953, Note_on_c, 1, 69, 0
4, 4980, Note_on_c, 1, 69, 89
4, 5007, Note_on_c, 1, 69, 0
4, 5040, Note_on_c, 1, 69, 99
4, 5066, Note_on_c, 1, 69, 0
4, 5100, Note_on_c, 1, 69, 86
4, 5125, Note_on_c, 1, 69, 0
4, 5160, Note_on_c, 1, 69, 127
4, 5188, Note_on_c, 1, 69, 0
4, 5220, Note_on_c, 1, 69, 127
4, 5232, Channel_aftertouch_c, 1, 1
4, 5249, Note_on_c, 1, 69, 0
4, 5280, Note_on_c, 1, 71, 123
4, 5393, Note_on_c, 1, 71, 0
4, 5520, Note_on_c, 1, 66, 89
4, 5633, Note_on_c, 1, 66, 0
4, 5760, Note_on_c, 1, 67, 79
4, 5873, Note_on_c, 1, 67, 0
4, 6000, Note_on_c, 1, 62, 61
4, 6113, Note_on_c, 1, 62, 0
4, 6240, Note_on_c, 1, 64, 74
4, 6353, Note_on_c, 1, 64, 0
4, 6480, Note_on_c, 1, 61, 66
4, 6548, Note_on_c, 1, 61, 0
4, 6600, Note_on_c, 1, 62, 58
4, 6666, Note_on_c, 1, 62, 0
4, 6720, Note_on_c, 1, 64, 79
4, 6781, Note_on_c, 1, 64, 0
4, 6840, Note_on_c, 1, 61, 77
4, 6873, Note_on_c, 1, 61, 0
4, 6900, Note_on_c, 1, 62, 66
4, 6938, Note_on_c, 1, 62, 0
4, 6960, Note_on_c, 1, 64, 66
4, 7015, Note_on_c, 1, 64, 0
4, 7080, Note_on_c, 1, 61, 58
4, 7119, Note_on_c, 1, 61, 0
4, 7140, Note_on_c, 1, 62, 64
4, 7187, Note_on_c, 1, 62, 0
4, 7200, Note_on_c, 1, 64, 69
4, 7313, Note_on_c, 1, 64, 0
4, 7560, Note_on_c, 1, 69, 64
4, 7620, Note_on_c, 1, 69, 0
4, 7680, Note_on_c, 1, 69, 81
4, 7759, Note_on_c, 1, 69, 0
4, 7800, Note_on_c, 1, 67, 81
4, 7842, Note_on_c, 1, 67, 0
4, 7860, Note_on_c, 1, 66, 64
4, 7903, Note_on_c, 1, 66, 0
4, 7920, Note_on_c, 1, 64, 79
4, 7989, Note_on_c, 1, 64, 0
4, 8040, Note_on_c, 1, 67, 84
4, 8100, Note_on_c, 1, 67, 0
4, 8160, Note_on_c, 1, 66, 84
4, 8213, Note_on_c, 1, 66, 0
4, 8280, Note_on_c, 1, 66, 72
4, 8446, Note_on_c, 1, 66, 0
4, 8520, Note_on_c, 1, 64, 64
4, 8597, Note_on_c, 1, 64, 0
4, 8640, Note_on_c, 1, 62, 69
4, 8706, Note_on_c, 1, 62, 0
4, 8760, Note_on_c, 1, 66, 66
4, 8972, Note_on_c, 1, 66, 0
4, 9000, Note_on_c, 1, 64, 58
4, 9097, Note_on_c, 1, 64, 0
4, 9120, Note_on_c, 1, 62, 64
4, 9208, Note_on_c, 1, 62, 0
4, 9240, Note_on_c, 1, 69, 89
4, 9275, Note_on_c, 1, 69, 0
4, 9300, Note_on_c, 1, 69, 84
4, 9343, Note_on_c, 1, 69, 0
4, 9360, Note_on_c, 1, 62, 102
4, 9399, Note_on_c, 1, 62, 0
4, 9420, Note_on_c, 1, 62, 102
4, 9462, Note_on_c, 1, 62, 0
4, 9480, Note_on_c, 1, 57, 84
4, 9521, Note_on_c, 1, 57, 0
4, 9540, Note_on_c, 1, 57, 96
4, 9583, Note_on_c, 1, 57, 0
4, 9600, Note_on_c, 1, 62, 72
4, 9679, Note_on_c, 1, 62, 0
4, 9720, Note_on_c, 1, 66, 64
4, 9811, Note_on_c, 1, 66, 0
4, 9840, Note_on_c, 1, 67, 84
4, 9849, Channel_aftertouch_c, 1, 6
4, 9861, Channel_aftertouch_c, 1, 3
4, 9924, Note_on_c, 1, 67, 0
4, 9960, Note_on_c, 1, 64, 58
4, 10056, Note_on_c, 1, 64, 0
4, 10080, Note_on_c, 1, 66, 55
4, 10219, Note_on_c, 1, 66, 0
4, 13440, Channel_aftertouch_c, 1, 6
4, 13440, Note_on_c, 1, 54, 127
4, 13452, Channel_aftertouch_c, 1, 3
4, 13463, Channel_aftertouch_c, 1, 1
4, 13553, Note_on_c, 1, 54, 0
4, 13680, Note_on_c, 1, 57, 111
4, 13793, Note_on_c, 1, 57, 0
4, 13881, Channel_aftertouch_c, 1, 3
4, 13893, Channel_aftertouch_c, 1, 4
4, 13905, Channel_aftertouch_c, 1, 2
4, 13920, Note_on_c, 1, 62, 120
4, 14033, Note_on_c, 1, 62, 0
4, 14037, Channel_aftertouch_c, 1, 1
4, 14271, Note_on_c, 1, 57, 96
4, 14328, Note_on_c, 1, 57, 0
4, 14400, Note_on_c, 1, 62, 74
4, 14452, Note_on_c, 1, 62, 0
4, 14520, Note_on_c, 1, 57, 84
4, 14572, Note_on_c, 1, 57, 0
4, 14640, Note_on_c, 1, 62, 66
4, 14689, Note_on_c, 1, 62, 0
4, 14760, Note_on_c, 1, 57, 72
4, 14807, Note_on_c, 1, 57, 0
4, 14880, Note_on_c, 1, 62, 66
4, 14926, Note_on_c, 1, 62, 0
4, 15000, Note_on_c, 1, 57, 84
4, 15038, Note_on_c, 1, 57, 0
4, 15120, Note_on_c, 1, 57, 84
4, 15156, Note_on_c, 1, 57, 0
4, 15240, Note_on_c, 1, 57, 66
4, 15282, Note_on_c, 1, 57, 0
4, 15360, Note_on_c, 1, 62, 69
4, 15407, Note_on_c, 1, 62, 0
4, 15480, Note_on_c, 1, 61, 61
4, 15530, Note_on_c, 1, 61, 0
4, 15600, Note_on_c, 1, 57, 51
4, 15639, Note_on_c, 1, 57, 0
4, 15720, Note_on_c, 1, 57, 69
4, 15760, Note_on_c, 1, 57, 0
4, 15840, Note_on_c, 1, 57, 55
4, 15953, Note_on_c, 1, 57, 0
4, 16080, Note_on_c, 1, 61, 72
4, 16193, Note_on_c, 1, 61, 0
4, 16320, Note_on_c, 1, 64, 35
4, 16433, Note_on_c, 1, 64, 0
4, 16800, Note_on_c, 1, 57, 39
4, 16913, Note_on_c, 1, 57, 0
4, 17040, Note_on_c, 1, 61, 39
4, 17153, Note_on_c, 1, 61, 0
4, 17280, Note_on_c, 1, 64, 35
4, 17393, Note_on_c, 1, 64, 0
4, 17760, Note_on_c, 1, 57, 35
4, 17873, Note_on_c, 1, 57, 0
4, 18000, Note_on_c, 1, 61, 39
4, 18113, Note_on_c, 1, 61, 0
4, 18240, Note_on_c, 1, 64, 39
4, 18353, Note_on_c, 1, 64, 0
4, 18600, Note_on_c, 1, 64, 72
4, 18670, Note_on_c, 1, 64, 0
4, 18720, Note_on_c, 1, 69, 77
4, 18780, Note_on_c, 1, 69, 0
4, 18840, Note_on_c, 1, 64, 79
4, 18903, Note_on_c, 1, 64, 0
4, 18960, Note_on_c, 1, 69, 102
4, 19020, Note_on_c, 1, 69, 0
4, 19080, Note_on_c, 1, 64, 72
4, 19144, Note_on_c, 1, 64, 0
4, 19200, Note_on_c, 1, 69, 89
4, 19271, Note_on_c, 1, 69, 0
4, 19320, Note_on_c, 1, 64, 84
4, 19390, Note_on_c, 1, 64, 0
4, 19440, Note_on_c, 1, 64, 72
4, 19513, Note_on_c, 1, 64, 0
4, 19560, Note_on_c, 1, 61, 55
4, 19623, Note_on_c, 1, 61, 0
4, 19680, Note_on_c, 1, 57, 8
4, 20832, Note_on_c, 1, 57, 0
4, 21720, Note_on_c, 1, 57, 39
4, 21781, Note_on_c, 1, 57, 0
4, 21960, Note_on_c, 1, 56, 43
4, 22037, Note_on_c, 1, 56, 0
4, 22200, Note_on_c, 1, 54, 30
4, 22268, Note_on_c, 1, 54, 0
4, 22440, Note_on_c, 1, 59, 39
4, 22502, Note_on_c, 1, 59, 0
4, 22560, Note_on_c, 1, 52, 26
4, 22673, Note_on_c, 1, 52, 0
4, 23040, Note_on_c, 1, 61, 127
4, 23055, Channel_aftertouch_c, 1, 12
4, 23067, Channel_aftertouch_c, 1, 6
4, 23070, Note_on_c, 1, 61, 0
4, 23100, Note_on_c, 1, 61, 105
4, 23125, Note_on_c, 1, 61, 0
4, 23160, Note_on_c, 1, 61, 66
4, 23186, Note_on_c, 1, 61, 0
4, 23220, Note_on_c, 1, 61, 86
4, 23240, Note_on_c, 1, 61, 0
4, 23280, Note_on_c, 1, 61, 93
4, 23301, Note_on_c, 1, 61, 0
4, 23340, Note_on_c, 1, 61, 127
4, 23363, Note_on_c, 1, 61, 0
4, 23400, Note_on_c, 1, 61, 127
4, 23407, Channel_aftertouch_c, 1, 0
4, 23409, Channel_aftertouch_c, 1, 38
4, 23418, Channel_aftertouch_c, 1, 0
4, 23420, Channel_aftertouch_c, 1, 19
4, 23424, Note_on_c, 1, 61, 0
4, 23429, Channel_aftertouch_c, 1, 0
4, 23432, Channel_aftertouch_c, 1, 12
4, 23442, Channel_aftertouch_c, 1, 0
4, 23444, Channel_aftertouch_c, 1, 6
4, 23454, Channel_aftertouch_c, 1, 0
4, 23456, Channel_aftertouch_c, 1, 3
4, 23460, Note_on_c, 1, 61, 127
4, 23464, Channel_aftertouch_c, 1, 0
4, 23487, Note_on_c, 1, 61, 0
4, 23518, Channel_aftertouch_c, 1, 64
4, 23520, Note_on_c, 1, 61, 127
4, 23633, Note_on_c, 1, 61, 0
4, 24000, Note_on_c, 1, 66, 58
4, 24024, Note_on_c, 1, 66, 0
4, 24060, Note_on_c, 1, 66, 39
4, 24085, Note_on_c, 1, 66, 0
4, 24120, Note_on_c, 1, 66, 72
4, 24146, Note_on_c, 1, 66, 0
4, 24180, Note_on_c, 1, 66, 84
4, 24203, Note_on_c, 1, 66, 0
4, 24240, Note_on_c, 1, 66, 126
4, 24261, Note_on_c, 1, 66, 0
4, 24300, Note_on_c, 1, 66, 127
4, 24321, Note_on_c, 1, 66, 0
4, 24360, Note_on_c, 1, 66, 127
4, 24363, Channel_aftertouch_c, 1, 6
4, 24372, Channel_aftertouch_c, 1, 0
4, 24374, Channel_aftertouch_c, 1, 3
4, 24377, Channel_aftertouch_c, 1, 0
4, 24382, Note_on_c, 1, 66, 0
4, 24420, Note_on_c, 1, 66, 125
4, 24442, Note_on_c, 1, 66, 0
4, 24480, Note_on_c, 1, 64, 127
4, 24593, Note_on_c, 1, 64, 0
4, 24960, Note_on_c, 1, 64, 127
4, 24989, Note_on_c, 1, 64, 0
4, 25020, Note_on_c, 1, 64, 77
4, 25048, Note_on_c, 1, 64, 0
4, 25080, Note_on_c, 1, 64, 58
4, 25110, Note_on_c, 1, 64, 0
4, 25140, Note_on_c, 1, 64, 55
4, 25169, Note_on_c, 1, 64, 0
4, 25200, Note_on_c, 1, 64, 96
4, 25228, Note_on_c, 1, 64, 0
4, 25260, Note_on_c, 1, 64, 81
4, 25286, Note_on_c, 1, 64, 0
4, 25320, Note_on_c, 1, 64, 125
4, 25346, Note_on_c, 1, 64, 0
4, 25380, Note_on_c, 1, 64, 114
4, 25405, Note_on_c, 1, 64, 0
4, 25440, Note_on_c, 1, 66, 89
4, 25553, Note_on_c, 1, 66, 0
4, 25680, Note_on_c, 1, 61, 86
4, 25793, Note_on_c, 1, 61, 0
4, 25920, Note_on_c, 1, 62, 74
4, 26033, Note_on_c, 1, 62, 0
4, 26160, Note_on_c, 1, 57, 74
4, 26273, Note_on_c, 1, 57, 0
4, 26400, Note_on_c, 1, 59, 66
4, 26513, Note_on_c, 1, 59, 0
4, 26640, Note_on_c, 1, 56, 77
4, 26715, Note_on_c, 1, 56, 0
4, 26760, Note_on_c, 1, 57, 74
4, 26828, Note_on_c, 1, 57, 0
4, 26880, Note_on_c, 1, 59, 64
4, 26945, Note_on_c, 1, 59, 0
4, 27000, Note_on_c, 1, 56, 72
4, 27035, Note_on_c, 1, 56, 0
4, 27060, Note_on_c, 1, 57, 72
4, 27101, Note_on_c, 1, 57, 0
4, 27120, Note_on_c, 1, 59, 61
4, 27177, Note_on_c, 1, 59, 0
4, 27240, Note_on_c, 1, 56, 61
4, 27276, Note_on_c, 1, 56, 0
4, 27300, Note_on_c, 1, 57, 69
4, 27341, Note_on_c, 1, 57, 0
4, 27360, Note_on_c, 1, 59, 58
4, 27488, Note_on_c, 1, 59, 0
4, 27720, Note_on_c, 1, 64, 51
4, 27791, Note_on_c, 1, 64, 0
4, 27840, Note_on_c, 1, 64, 69
4, 27924, Note_on_c, 1, 64, 0
4, 27960, Note_on_c, 1, 62, 77
4, 28000, Note_on_c, 1, 62, 0
4, 28020, Note_on_c, 1, 61, 72
4, 28054, Note_on_c, 1, 61, 0
4, 28080, Note_on_c, 1, 59, 58
4, 28152, Note_on_c, 1, 59, 0
4, 28200, Note_on_c, 1, 62, 77
4, 28262, Channel_aftertouch_c, 1, 1
4, 28273, Note_on_c, 1, 62, 0
4, 28320, Note_on_c, 1, 61, 66
4, 28433, Note_on_c, 1, 61, 0
4, 28920, Note_on_c, 1, 57, 84
4, 28955, Note_on_c, 1, 57, 0
4, 28980, Note_on_c, 1, 57, 117
4, 28995, Channel_aftertouch_c, 1, 3
4, 29005, Channel_aftertouch_c, 1, 0
4, 29007, Channel_aftertouch_c, 1, 1
4, 29016, Channel_aftertouch_c, 1, 0
4, 29020, Note_on_c, 1, 57, 0
4, 29040, Note_on_c, 1, 57, 120
4, 29083, Note_on_c, 1, 57, 0
4, 29100, Note_on_c, 1, 57, 105
4, 29139, Note_on_c, 1, 57, 0
4, 29160, Note_on_c, 1, 64, 120
4, 29193, Note_on_c, 1, 64, 0
4, 29220, Note_on_c, 1, 64, 108
4, 29250, Note_on_c, 1, 64, 0
4, 29280, Note_on_c, 1, 64, 126
4, 29393, Note_on_c, 1, 64, 0
4, 30360, Note_on_c, 1, 61, 105
4, 30397, Note_on_c, 1, 61, 0
4, 30420, Note_on_c, 1, 61, 96
4, 30462, Note_on_c, 1, 61, 0
4, 30480, Note_on_c, 1, 62, 99
4, 30519, Note_on_c, 1, 62, 0
4, 30540, Note_on_c, 1, 62, 96
4, 30578, Note_on_c, 1, 62, 0
4, 30600, Note_on_c, 1, 59, 81
4, 30635, Note_on_c, 1, 59, 0
4, 30660, Note_on_c, 1, 59, 69
4, 30697, Note_on_c, 1, 59, 0
4, 30720, Note_on_c, 1, 61, 77
4, 30770, Note_on_c, 1, 61, 0
4, 30840, Note_on_c, 1, 61, 81
4, 30971, Channel_aftertouch_c, 1, 1
4, 31049, Note_on_c, 1, 61, 0
4, 31080, Note_on_c, 1, 59, 74
4, 31182, Note_on_c, 1, 59, 0
4, 31200, Note_on_c, 1, 57, 89
4, 31282, Note_on_c, 1, 57, 0
4, 31320, Note_on_c, 1, 69, 84
4, 31368, Note_on_c, 1, 69, 0
4, 31380, Note_on_c, 1, 68, 84
4, 31430, Note_on_c, 1, 68, 0
4, 31440, Note_on_c, 1, 66, 72
4, 31480, Note_on_c, 1, 66, 0
4, 31500, Note_on_c, 1, 66, 77
4, 31544, Note_on_c, 1, 66, 0
4, 31560, Note_on_c, 1, 64, 102
4, 31594, Note_on_c, 1, 64, 0
4, 31620, Note_on_c, 1, 64, 89
4, 31655, Note_on_c, 1, 64, 0
4, 31680, Note_on_c, 1, 64, 102
4, 31776, Note_on_c, 1, 64, 0
4, 31800, Note_on_c, 1, 66, 89
4, 31905, Note_on_c, 1, 66, 0
4, 31920, Note_on_c, 1, 66, 96
4, 32013, Note_on_c, 1, 66, 0
4, 32040, Note_on_c, 1, 59, 89
4, 32132, Note_on_c, 1, 59, 0
4, 32160, Note_on_c, 1, 61, 96
4, 32273, Note_on_c, 1, 61, 0
4, 32640, Note_on_c, 1, 54, 127
4, 32753, Note_on_c, 1, 54, 0
4, 32880, Note_on_c, 1, 57, 127
4, 32993, Note_on_c, 1, 57, 0
4, 33120, Note_on_c, 1, 62, 84
4, 33233, Note_on_c, 1, 62, 0
4, 33360, Note_on_c, 1, 66, 91
4, 33473, Note_on_c, 1, 66, 0
4, 33600, Note_on_c, 1, 69, 64
4, 33713, Note_on_c, 1, 69, 0
4, 34080, Note_on_c, 1, 62, 66
4, 34193, Note_on_c, 1, 62, 0
4, 34320, Note_on_c, 1, 66, 72
4, 34433, Note_on_c, 1, 66, 0
4, 34560, Note_on_c, 1, 69, 74
4, 34776, Note_on_c, 1, 69, 0
4, 35040, Note_on_c, 1, 62, 64
4, 35256, Note_on_c, 1, 62, 0
4, 35280, Note_on_c, 1, 66, 64
4, 35496, Note_on_c, 1, 66, 0
4, 35520, Note_on_c, 1, 69, 74
4, 35736, Note_on_c, 1, 69, 0
4, 35760, Note_on_c, 1, 57, 84
4, 35835, Note_on_c, 1, 57, 0
4, 35880, Note_on_c, 1, 62, 77
4, 35949, Note_on_c, 1, 62, 0
4, 36000, Note_on_c, 1, 57, 89
4, 36073, Note_on_c, 1, 57, 0
4, 36120, Note_on_c, 1, 62, 74
4, 36194, Note_on_c, 1, 62, 0
4, 36240, Note_on_c, 1, 57, 84
4, 36316, Note_on_c, 1, 57, 0
4, 36480, Note_on_c, 1, 62, 79
4, 36537, Note_on_c, 1, 62, 0
4, 36600, Note_on_c, 1, 57, 74
4, 36676, Note_on_c, 1, 57, 0
4, 36720, Note_on_c, 1, 57, 72
4, 36818, Note_on_c, 1, 57, 0
4, 36840, Note_on_c, 1, 54, 61
4, 36914, Note_on_c, 1, 54, 0
4, 36960, Note_on_c, 1, 54, 30
4, 38112, Note_on_c, 1, 54, 0
4, 39000, Note_on_c, 1, 62, 48
4, 39075, Note_on_c, 1, 62, 0
4, 39240, Note_on_c, 1, 61, 39
4, 39326, Note_on_c, 1, 61, 0
4, 39480, Note_on_c, 1, 59, 55
4, 39553, Note_on_c, 1, 59, 0
4, 39720, Note_on_c, 1, 52, 55
4, 39791, Note_on_c, 1, 52, 0
4, 39840, Note_on_c, 1, 57, 69
4, 40272, Note_on_c, 1, 57, 0
4, 40320, Note_on_c, 1, 66, 105
4, 40359, Note_on_c, 1, 66, 0
4, 40380, Note_on_c, 1, 66, 108
4, 40415, Note_on_c, 1, 66, 0
4, 40440, Note_on_c, 1, 66, 102
4, 40476, Note_on_c, 1, 66, 0
4, 40500, Note_on_c, 1, 66, 105
4, 40538, Note_on_c, 1, 66, 0
4, 40560, Note_on_c, 1, 66, 111
4, 40596, Note_on_c, 1, 66, 0
4, 40620, Note_on_c, 1, 66, 127
4, 40629, Channel_aftertouch_c, 1, 22
4, 40641, Channel_aftertouch_c, 1, 11
4, 40641, Channel_aftertouch_c, 1, 0
4, 40655, Note_on_c, 1, 66, 0
4, 40678, Channel_aftertouch_c, 1, 25
4, 40680, Note_on_c, 1, 66, 125
4, 40687, Channel_aftertouch_c, 1, 0
4, 40690, Channel_aftertouch_c, 1, 12
4, 40693, Channel_aftertouch_c, 1, 3
4, 40699, Channel_aftertouch_c, 1, 0
4, 40702, Channel_aftertouch_c, 1, 6
4, 40704, Channel_aftertouch_c, 1, 17
4, 40706, Channel_aftertouch_c, 1, 0
4, 40711, Note_on_c, 1, 66, 0
4, 40715, Channel_aftertouch_c, 1, 8
4, 40727, Channel_aftertouch_c, 1, 4
4, 40737, Channel_aftertouch_c, 1, 31
4, 40739, Channel_aftertouch_c, 1, 2
4, 40740, Note_on_c, 1, 66, 117
4, 40746, Channel_aftertouch_c, 1, 0
4, 40748, Channel_aftertouch_c, 1, 15
4, 40757, Channel_aftertouch_c, 1, 0
4, 40759, Channel_aftertouch_c, 1, 7
4, 40765, Channel_aftertouch_c, 1, 0
4, 40771, Note_on_c, 1, 66, 0
4, 40800, Note_on_c, 1, 63, 127
4, 41016, Note_on_c, 1, 63, 0
4, 41280, Note_on_c, 1, 64, 126
4, 41314, Note_on_c, 1, 64, 0
4, 41340, Note_on_c, 1, 64, 77
4, 41371, Note_on_c, 1, 64, 0
4, 41400, Note_on_c, 1, 64, 124
4, 41432, Note_on_c, 1, 64, 0
4, 41460, Note_on_c, 1, 64, 127
4, 41490, Note_on_c, 1, 64, 0
4, 41520, Note_on_c, 1, 64, 127
4, 41549, Note_on_c, 1, 64, 0
4, 41580, Note_on_c, 1, 64, 126
4, 41607, Note_on_c, 1, 64, 0
4, 41640, Note_on_c, 1, 64, 126
4, 41648, Channel_aftertouch_c, 1, 25
4, 41659, Channel_aftertouch_c, 1, 12
4, 41667, Note_on_c, 1, 64, 0
4, 41671, Channel_aftertouch_c, 1, 6
4, 41682, Channel_aftertouch_c, 1, 3
4, 41694, Channel_aftertouch_c, 1, 1
4, 41700, Note_on_c, 1, 64, 120
4, 41724, Note_on_c, 1, 64, 0
4, 41760, Note_on_c, 1, 64, 123
4, 41976, Note_on_c, 1, 64, 0
4, 42240, Note_on_c, 1, 69, 102
4, 42270, Note_on_c, 1, 69, 0
4, 42300, Note_on_c, 1, 69, 127
4, 42329, Note_on_c, 1, 69, 0
4, 42360, Note_on_c, 1, 69, 127
4, 42390, Note_on_c, 1, 69, 0
4, 42420, Note_on_c, 1, 69, 126
4, 42449, Note_on_c, 1, 69, 0
4, 42480, Note_on_c, 1, 69, 127
4, 42507, Note_on_c, 1, 69, 0
4, 42540, Note_on_c, 1, 69, 125
4, 42566, Note_on_c, 1, 69, 0
4, 42600, Note_on_c, 1, 69, 120
4, 42611, Channel_aftertouch_c, 1, 1
4, 42627, Note_on_c, 1, 69, 0
4, 42660, Note_on_c, 1, 69, 123
4, 42689, Note_on_c, 1, 69, 0
4, 42720, Note_on_c, 1, 71, 117
4, 42936, Note_on_c, 1, 71, 0
4, 42960, Note_on_c, 1, 66, 84
4, 43176, Note_on_c, 1, 66, 0
4, 43200, Note_on_c, 1, 67, 114
4, 43416, Note_on_c, 1, 67, 0
4, 43440, Note_on_c, 1, 62, 102
4, 43656, Note_on_c, 1, 62, 0
4, 43680, Note_on_c, 1, 64, 89
4, 43896, Note_on_c, 1, 64, 0
4, 43920, Note_on_c, 1, 61, 69
4, 43993, Note_on_c, 1, 61, 0
4, 44040, Note_on_c, 1, 62, 72
4, 44119, Note_on_c, 1, 62, 0
4, 44160, Note_on_c, 1, 64, 74
4, 44230, Note_on_c, 1, 64, 0
4, 44280, Note_on_c, 1, 61, 89
4, 44313, Note_on_c, 1, 61, 0
4, 44340, Note_on_c, 1, 62, 66
4, 44380, Note_on_c, 1, 62, 0
4, 44400, Note_on_c, 1, 64, 96
4, 44470, Note_on_c, 1, 64, 0
4, 44520, Note_on_c, 1, 61, 74
4, 44551, Note_on_c, 1, 61, 0
4, 44580, Note_on_c, 1, 62, 79
4, 44620, Note_on_c, 1, 62, 0
4, 44640, Note_on_c, 1, 64, 89
4, 44750, Note_on_c, 1, 64, 0
4, 45000, Note_on_c, 1, 69, 89
4, 45085, Note_on_c, 1, 69, 0
4, 45120, Note_on_c, 1, 69, 96
4, 45209, Note_on_c, 1, 69, 0
4, 45240, Note_on_c, 1, 67, 79
4, 45287, Note_on_c, 1, 67, 0
4, 45300, Note_on_c, 1, 66, 84
4, 45340, Note_on_c, 1, 66, 0
4, 45360, Note_on_c, 1, 64, 96
4, 45440, Note_on_c, 1, 64, 0
4, 45480, Note_on_c, 1, 67, 89
4, 45559, Note_on_c, 1, 67, 0
4, 45600, Note_on_c, 1, 66, 102
4, 45816, Note_on_c, 1, 66, 0
4, 46200, Note_on_c, 1, 62, 77
4, 46238, Note_on_c, 1, 62, 0
4, 46260, Note_on_c, 1, 62, 64
4, 46292, Note_on_c, 1, 62, 0
4, 46320, Note_on_c, 1, 62, 74
4, 46353, Note_on_c, 1, 62, 0
4, 46380, Note_on_c, 1, 62, 61
4, 46418, Note_on_c, 1, 62, 0
4, 46440, Note_on_c, 1, 69, 69
4, 46476, Note_on_c, 1, 69, 0
4, 46500, Note_on_c, 1, 69, 79
4, 46534, Note_on_c, 1, 69, 0
4, 46560, Note_on_c, 1, 69, 64
4, 46776, Note_on_c, 1, 69, 0
4, 47640, Note_on_c, 1, 66, 72
4, 47671, Note_on_c, 1, 66, 0
4, 47700, Note_on_c, 1, 66, 81
4, 47732, Note_on_c, 1, 66, 0
4, 47760, Note_on_c, 1, 67, 79
4, 47792, Note_on_c, 1, 67, 0
4, 47820, Note_on_c, 1, 67, 79
4, 47851, Note_on_c, 1, 67, 0
4, 47880, Note_on_c, 1, 64, 84
4, 47910, Note_on_c, 1, 64, 0
4, 47940, Note_on_c, 1, 64, 66
4, 47972, Note_on_c, 1, 64, 0
4, 48000, Note_on_c, 1, 66, 72
4, 48051, Note_on_c, 1, 66, 0
4, 48120, Note_on_c, 1, 66, 127
4, 48331, Note_on_c, 1, 66, 0
4, 48360, Note_on_c, 1, 64, 96
4, 48453, Note_on_c, 1, 64, 0
4, 48480, Note_on_c, 1, 62, 111
4, 48506, Note_on_c, 1, 62, 0
4, 48540, Note_on_c, 1, 62, 96
4, 48581, Note_on_c, 1, 62, 0
4, 48600, Note_on_c, 1, 61, 93
4, 48634, Note_on_c, 1, 61, 0
4, 48660, Note_on_c, 1, 61, 102
4, 48697, Note_on_c, 1, 61, 0
4, 48720, Note_on_c, 1, 59, 86
4, 48751, Note_on_c, 1, 59, 0
4, 48780, Note_on_c, 1, 59, 96
4, 48816, Note_on_c, 1, 59, 0
4, 48840, Note_on_c, 1, 57, 89
4, 48871, Note_on_c, 1, 57, 0
4, 48900, Note_on_c, 1, 57, 96
4, 48932, Note_on_c, 1, 57, 0
4, 48960, Note_on_c, 1, 57, 72
4, 49042, Note_on_c, 1, 57, 0
4, 49080, Note_on_c, 1, 59, 64
4, 49172, Note_on_c, 1, 59, 0
4, 49200, Note_on_c, 1, 59, 72
4, 49300, Note_on_c, 1, 59, 0
4, 49320, Note_on_c, 1, 64, 84
4, 49416, Note_on_c, 1, 64, 0
4, 49440, Note_on_c, 1, 66, 66
4, 49656, Note_on_c, 1, 66, 0
4, 49920, Note_on_c, 1, 59, 51
4, 49989, Note_on_c, 1, 59, 0
4, 50040, Note_on_c, 1, 59, 58
4, 50104, Note_on_c, 1, 59, 0
4, 50160, Note_on_c, 1, 59, 48
4, 50236, Note_on_c, 1, 59, 0
4, 50280, Note_on_c, 1, 59, 58
4, 50349, Note_on_c, 1, 59, 0
4, 50400, Note_on_c, 1, 59, 51
4, 50476, Note_on_c, 1, 59, 0
4, 50520, Note_on_c, 1, 59, 51
4, 50591, Note_on_c, 1, 59, 0
4, 50640, Note_on_c, 1, 59, 51
4, 50719, Note_on_c, 1, 59, 0
4, 50760, Note_on_c, 1, 59, 51
4, 50840, Note_on_c, 1, 59, 0
4, 50880, Note_on_c, 1, 57, 48
4, 50959, Note_on_c, 1, 57, 0
4, 51000, Note_on_c, 1, 57, 48
4, 51073, Note_on_c, 1, 57, 0
4, 51120, Note_on_c, 1, 57, 48
4, 51195, Note_on_c, 1, 57, 0
4, 51240, Note_on_c, 1, 57, 58
4, 51308, Note_on_c, 1, 57, 0
4, 51360, Note_on_c, 1, 57, 43
4, 51438, Note_on_c, 1, 57, 0
4, 51480, Note_on_c, 1, 57, 48
4, 51552, Note_on_c, 1, 57, 0
4, 51600, Note_on_c, 1, 57, 51
4, 51679, Note_on_c, 1, 57, 0
4, 51720, Note_on_c, 1, 57, 48
4, 51802, Note_on_c, 1, 57, 0
4, 51840, Note_on_c, 1, 55, 35
4, 51912, Note_on_c, 1, 55, 0
4, 51960, Note_on_c, 1, 55, 64
4, 52033, Note_on_c, 1, 55, 0
4, 52080, Note_on_c, 1, 55, 64
4, 52157, Note_on_c, 1, 55, 0
4, 52200, Note_on_c, 1, 55, 64
4, 52273, Note_on_c, 1, 55, 0
4, 52320, Note_on_c, 1, 55, 35
4, 52396, Note_on_c, 1, 55, 0
4, 52440, Note_on_c, 1, 55, 30
4, 52513, Note_on_c, 1, 55, 0
4, 52560, Note_on_c, 1, 55, 48
4, 52634, Note_on_c, 1, 55, 0
4, 52680, Note_on_c, 1, 55, 48
4, 52758, Note_on_c, 1, 55, 0
4, 52800, Note_on_c, 1, 54, 48
4, 52868, Note_on_c, 1, 54, 0
4, 52920, Note_on_c, 1, 54, 43
4, 53000, Note_on_c, 1, 54, 0
4, 53040, Note_on_c, 1, 54, 30
4, 53122, Note_on_c, 1, 54, 0
4, 53160, Note_on_c, 1, 54, 22
4, 53234, Note_on_c, 1, 54, 0
4, 53280, Note_on_c, 1, 54, 26
4, 53370, Note_on_c, 1, 54, 0
4, 53400, Note_on_c, 1, 54, 30
4, 53477, Note_on_c, 1, 54, 0
4, 53520, Note_on_c, 1, 54, 39
4, 53597, Note_on_c, 1, 54, 0
4, 53640, Note_on_c, 1, 54, 35
4, 53713, Note_on_c, 1, 54, 0
4, 53760, Note_on_c, 1, 54, 48
4, 53840, Note_on_c, 1, 54, 0
4, 53880, Note_on_c, 1, 59, 51
4, 54106, Note_on_c, 1, 59, 0
4, 54120, Note_on_c, 1, 61, 55
4, 54213, Note_on_c, 1, 61, 0
4, 54240, Note_on_c, 1, 62, 55
4, 54587, Note_on_c, 1, 62, 0
4, 54600, Note_on_c, 1, 66, 58
4, 54701, Note_on_c, 1, 66, 0
4, 54720, Note_on_c, 1, 61, 55
4, 54942, Note_on_c, 1, 61, 0
4, 54960, Note_on_c, 1, 65, 61
4, 55184, Note_on_c, 1, 65, 0
4, 55200, Note_on_c, 1, 66, 39
4, 55755, Note_on_c, 1, 66, 0
4, 55800, Note_on_c, 1, 57, 48
4, 56037, Note_on_c, 1, 57, 0
4, 56040, Note_on_c, 1, 59, 55
4, 56147, Note_on_c, 1, 59, 0
4, 56160, Note_on_c, 1, 60, 48
4, 56501, Note_on_c, 1, 60, 0
4, 56520, Note_on_c, 1, 64, 48
4, 56632, Note_on_c, 1, 64, 0
4, 56640, Note_on_c, 1, 59, 48
4, 56862, Note_on_c, 1, 59, 0
4, 56880, Note_on_c, 1, 63, 48
4, 57109, Note_on_c, 1, 63, 0
4, 57120, Note_on_c, 1, 64, 61
4, 57665, Note_on_c, 1, 64, 0
4, 57720, Note_on_c, 1, 64, 48
4, 57944, Note_on_c, 1, 64, 0
4, 57960, Note_on_c, 1, 63, 61
4, 58054, Note_on_c, 1, 63, 0
4, 58080, Note_on_c, 1, 64, 51
4, 58301, Note_on_c, 1, 64, 0
4, 58320, Note_on_c, 1, 59, 51
4, 58534, Note_on_c, 1, 59, 0
4, 58560, Note_on_c, 1, 61, 55
4, 58648, Note_on_c, 1, 61, 0
4, 58680, Note_on_c, 1, 64, 51
4, 58906, Note_on_c, 1, 64, 0
4, 58920, Note_on_c, 1, 62, 55
4, 59019, Note_on_c, 1, 62, 0
4, 59040, Note_on_c, 1, 64, 48
4, 59132, Note_on_c, 1, 64, 0
4, 59160, Note_on_c, 1, 67, 51
4, 59375, Note_on_c, 1, 67, 0
4, 59400, Note_on_c, 1, 71, 51
4, 59506, Note_on_c, 1, 71, 0
4, 59520, Note_on_c, 1, 64, 48
4, 59617, Note_on_c, 1, 64, 0
4, 59640, Note_on_c, 1, 61, 35
4, 59863, Note_on_c, 1, 61, 0
4, 59880, Note_on_c, 1, 64, 51
4, 59974, Note_on_c, 1, 64, 0
4, 60000, Note_on_c, 1, 66, 22
4, 60100, Note_on_c, 1, 66, 0
4, 60120, Note_on_c, 1, 54, 30
4, 60344, Note_on_c, 1, 54, 0
4, 60360, Note_on_c, 1, 58, 39
4, 60454, Note_on_c, 1, 58, 0
4, 60480, Note_on_c, 1, 59, 30
4, 60567, Note_on_c, 1, 59, 0
4, 60600, Note_on_c, 1, 62, 55
4, 60698, Note_on_c, 1, 62, 0
4, 60720, Note_on_c, 1, 66, 39
4, 60822, Note_on_c, 1, 66, 0
4, 60840, Note_on_c, 1, 70, 35
4, 60947, Note_on_c, 1, 70, 0
4, 60960, Note_on_c, 1, 71, 69
4, 61041, Note_on_c, 1, 71, 0
4, 61080, Note_on_c, 1, 66, 58
4, 61315, Note_on_c, 1, 66, 0
4, 61320, Note_on_c, 1, 68, 58
4, 61420, Note_on_c, 1, 68, 0
4, 61440, Note_on_c, 1, 69, 39
4, 61529, Note_on_c, 1, 69, 0
4, 61560, Note_on_c, 1, 57, 48
4, 61656, Note_on_c, 1, 57, 0
4, 61680, Note_on_c, 1, 63, 58
4, 61779, Note_on_c, 1, 63, 0
4, 61800, Note_on_c, 1, 66, 58
4, 61913, Note_on_c, 1, 66, 0
4, 61920, Note_on_c, 1, 67, 61
4, 62493, Note_on_c, 1, 67, 0
4, 62520, Note_on_c, 1, 57, 51
4, 62620, Note_on_c, 1, 57, 0
4, 62640, Note_on_c, 1, 61, 55
4, 62747, Note_on_c, 1, 61, 0
4, 62760, Note_on_c, 1, 64, 61
4, 62874, Note_on_c, 1, 64, 0
4, 62880, Note_on_c, 1, 66, 55
4, 63454, Note_on_c, 1, 66, 0
4, 63480, Note_on_c, 1, 55, 43
4, 63584, Note_on_c, 1, 55, 0
4, 63600, Note_on_c, 1, 59, 48
4, 63707, Note_on_c, 1, 59, 0
4, 63720, Note_on_c, 1, 62, 58
4, 63819, Note_on_c, 1, 62, 0
4, 63840, Note_on_c, 1, 55, 55
4, 63935, Note_on_c, 1, 55, 0
4, 63960, Note_on_c, 1, 67, 66
4, 64183, Note_on_c, 1, 67, 0
4, 64200, Note_on_c, 1, 64, 30
4, 64431, Note_on_c, 1, 64, 0
4, 64440, Note_on_c, 1, 54, 48
4, 64539, Note_on_c, 1, 54, 0
4, 64560, Note_on_c, 1, 58, 48
4, 64669, Note_on_c, 1, 58, 0
4, 64680, Note_on_c, 1, 61, 58
4, 64800, Note_on_c, 1, 54, 66
4, 64802, Note_on_c, 1, 61, 0
4, 64892, Note_on_c, 1, 54, 0
4, 64920, Note_on_c, 1, 59, 55
4, 65034, Note_on_c, 1, 59, 0
4, 65040, Note_on_c, 1, 62, 43
4, 65155, Note_on_c, 1, 62, 0
4, 65160, Note_on_c, 1, 66, 55
4, 65271, Note_on_c, 1, 66, 0
4, 65280, Note_on_c, 1, 62, 30
4, 65388, Note_on_c, 1, 62, 0
4, 65400, Note_on_c, 1, 59, 61
4, 65510, Note_on_c, 1, 59, 0
4, 65520, Note_on_c, 1, 56, 30
4, 65634, Note_on_c, 1, 56, 0
4, 65640, Note_on_c, 1, 59, 51
4, 65751, Note_on_c, 1, 59, 0
4, 65760, Note_on_c, 1, 61, 55
4, 65861, Note_on_c, 1, 61, 0
4, 65880, Note_on_c, 1, 62, 64
4, 66000, Note_on_c, 1, 64, 51
4, 66005, Note_on_c, 1, 62, 0
4, 66216, Note_on_c, 1, 64, 0
4, 66240, Note_on_c, 1, 62, 108
4, 66456, Note_on_c, 1, 62, 0
4, 66480, Note_on_c, 1, 66, 127
4, 66696, Note_on_c, 1, 66, 0
4, 66720, Note_on_c, 1, 71, 127
4, 66936, Note_on_c, 1, 71, 0
4, 67080, Note_on_c, 1, 66, 69
4, 67159, Note_on_c, 1, 66, 0
4, 67200, Note_on_c, 1, 71, 74
4, 67266, Note_on_c, 1, 71, 0
4, 67320, Note_on_c, 1, 66, 81
4, 67399, Note_on_c, 1, 66, 0
4, 67440, Note_on_c, 1, 71, 89
4, 67515, Note_on_c, 1, 71, 0
4, 67560, Note_on_c, 1, 66, 96
4, 67643, Note_on_c, 1, 66, 0
4, 67680, Note_on_c, 1, 71, 74
4, 67764, Note_on_c, 1, 71, 0
4, 67800, Note_on_c, 1, 66, 89
4, 67890, Note_on_c, 1, 66, 0
4, 67920, Note_on_c, 1, 66, 81
4, 68009, Note_on_c, 1, 66, 0
4, 68040, Note_on_c, 1, 62, 58
4, 68122, Note_on_c, 1, 62, 0
4, 68166, Note_on_c, 1, 62, 39
4, 68382, Note_on_c, 1, 62, 0
4, 68419, Note_on_c, 1, 68, 39
4, 68626, Note_on_c, 1, 71, 43
4, 68635, Note_on_c, 1, 68, 0
4, 68842, Note_on_c, 1, 71, 0
4, 69120, Note_on_c, 1, 61, 89
4, 69336, Note_on_c, 1, 61, 0
4, 69360, Note_on_c, 1, 64, 96
4, 69576, Note_on_c, 1, 64, 0
4, 69600, Note_on_c, 1, 69, 96
4, 69816, Note_on_c, 1, 69, 0
4, 69960, Note_on_c, 1, 64, 79
4, 70035, Note_on_c, 1, 64, 0
4, 70080, Note_on_c, 1, 69, 64
4, 70140, Note_on_c, 1, 69, 0
4, 70200, Note_on_c, 1, 64, 79
4, 70269, Note_on_c, 1, 64, 0
4, 70320, Note_on_c, 1, 69, 72
4, 70393, Note_on_c, 1, 69, 0
4, 70440, Note_on_c, 1, 64, 69
4, 70512, Note_on_c, 1, 64, 0
4, 70560, Note_on_c, 1, 69, 74
4, 70634, Note_on_c, 1, 69, 0
4, 70680, Note_on_c, 1, 64, 66
4, 70760, Note_on_c, 1, 64, 0
4, 70800, Note_on_c, 1, 64, 51
4, 70887, Note_on_c, 1, 64, 0
4, 70920, Note_on_c, 1, 61, 61
4, 71010, Note_on_c, 1, 61, 0
4, 71040, Note_on_c, 1, 60, 72
4, 71256, Note_on_c, 1, 60, 0
4, 71280, Note_on_c, 1, 66, 58
4, 71496, Note_on_c, 1, 66, 0
4, 71520, Note_on_c, 1, 69, 39
4, 71736, Note_on_c, 1, 69, 0
4, 72000, Note_on_c, 1, 59, 89
4, 72216, Note_on_c, 1, 59, 0
4, 72240, Note_on_c, 1, 62, 81
4, 72456, Note_on_c, 1, 62, 0
4, 72480, Note_on_c, 1, 67, 96
4, 72696, Note_on_c, 1, 67, 0
4, 72840, Note_on_c, 1, 50, 72
4, 72911, Note_on_c, 1, 50, 0
4, 72960, Note_on_c, 1, 55, 84
4, 73025, Note_on_c, 1, 55, 0
4, 73080, Note_on_c, 1, 50, 61
4, 73154, Note_on_c, 1, 50, 0
4, 73200, Note_on_c, 1, 55, 66
4, 73268, Note_on_c, 1, 55, 0
4, 73320, Note_on_c, 1, 50, 48
4, 73418, Note_on_c, 1, 50, 0
4, 73440, Note_on_c, 1, 55, 64
4, 73532, Note_on_c, 1, 55, 0
4, 73560, Note_on_c, 1, 50, 58
4, 73626, Note_on_c, 1, 50, 0
4, 73680, Note_on_c, 1, 50, 51
4, 73787, Note_on_c, 1, 50, 0
4, 73800, Note_on_c, 1, 59, 55
4, 74028, Note_on_c, 1, 59, 0
4, 74040, Note_on_c, 1, 57, 69
4, 74149, Note_on_c, 1, 57, 0
4, 74160, Note_on_c, 1, 50, 48
4, 74259, Note_on_c, 1, 50, 0
4, 74280, Note_on_c, 1, 62, 64
4, 74372, Note_on_c, 1, 62, 0
4, 74400, Note_on_c, 1, 62, 74
4, 74616, Note_on_c, 1, 62, 0
4, 74880, Note_on_c, 1, 66, 84
4, 74909, Note_on_c, 1, 66, 0
4, 74940, Note_on_c, 1, 66, 96
4, 74971, Note_on_c, 1, 66, 0
4, 75000, Note_on_c, 1, 66, 86
4, 75031, Note_on_c, 1, 66, 0
4, 75060, Note_on_c, 1, 66, 117
4, 75096, Note_on_c, 1, 66, 0
4, 75120, Note_on_c, 1, 66, 123
4, 75155, Note_on_c, 1, 66, 0
4, 75180, Note_on_c, 1, 66, 127
4, 75215, Note_on_c, 1, 66, 0
4, 75239, Channel_aftertouch_c, 1, 44
4, 75240, Note_on_c, 1, 66, 127
4, 75246, Channel_aftertouch_c, 1, 0
4, 75249, Channel_aftertouch_c, 1, 22
4, 75255, Channel_aftertouch_c, 1, 0
4, 75256, Channel_aftertouch_c, 1, 11
4, 75263, Channel_aftertouch_c, 1, 0
4, 75266, Channel_aftertouch_c, 1, 5
4, 75271, Channel_aftertouch_c, 1, 0
4, 75274, Note_on_c, 1, 66, 0
4, 75300, Note_on_c, 1, 66, 127
4, 75303, Channel_aftertouch_c, 1, 6
4, 75313, Channel_aftertouch_c, 1, 3
4, 75332, Note_on_c, 1, 66, 0
4, 75360, Note_on_c, 1, 64, 127
4, 75576, Note_on_c, 1, 64, 0
4, 75840, Note_on_c, 1, 64, 74
4, 75849, Channel_aftertouch_c, 1, 15
4, 75860, Channel_aftertouch_c, 1, 7
4, 75867, Note_on_c, 1, 64, 0
4, 75900, Note_on_c, 1, 64, 51
4, 75934, Note_on_c, 1, 64, 0
4, 75960, Note_on_c, 1, 64, 69
4, 75995, Note_on_c, 1, 64, 0
4, 76020, Note_on_c, 1, 64, 64
4, 76051, Note_on_c, 1, 64, 0
4, 76080, Note_on_c, 1, 64, 72
4, 76112, Note_on_c, 1, 64, 0
4, 76140, Note_on_c, 1, 64, 89
4, 76171, Note_on_c, 1, 64, 0
4, 76200, Note_on_c, 1, 64, 102
4, 76206, Channel_aftertouch_c, 1, 25
4, 76216, Channel_aftertouch_c, 1, 12
4, 76226, Channel_aftertouch_c, 1, 6
4, 76231, Note_on_c, 1, 64, 0
4, 76238, Channel_aftertouch_c, 1, 3
4, 76248, Channel_aftertouch_c, 1, 1
4, 76260, Note_on_c, 1, 64, 123
4, 76298, Note_on_c, 1, 64, 0
4, 76320, Note_on_c, 1, 66, 127
4, 76536, Note_on_c, 1, 66, 0
4, 76800, Note_on_c, 1, 62, 102
4, 76830, Note_on_c, 1, 62, 0
4, 76860, Note_on_c, 1, 62, 72
4, 76891, Note_on_c, 1, 62, 0
4, 76920, Note_on_c, 1, 62, 79
4, 76956, Note_on_c, 1, 62, 0
4, 76980, Note_on_c, 1, 62, 93
4, 77009, Note_on_c, 1, 62, 0
4, 77040, Note_on_c, 1, 62, 86
4, 77069, Note_on_c, 1, 62, 0
4, 77100, Note_on_c, 1, 62, 84
4, 77129, Note_on_c, 1, 62, 0
4, 77160, Note_on_c, 1, 62, 96
4, 77189, Note_on_c, 1, 62, 0
4, 77220, Note_on_c, 1, 62, 96
4, 77247, Note_on_c, 1, 62, 0
4, 77280, Note_on_c, 1, 64, 117
4, 77496, Note_on_c, 1, 64, 0
4, 77520, Note_on_c, 1, 59, 66
4, 77736, Note_on_c, 1, 59, 0
4, 77760, Note_on_c, 1, 60, 77
4, 77976, Note_on_c, 1, 60, 0
4, 78000, Note_on_c, 1, 62, 64
4, 78216, Note_on_c, 1, 62, 0
4, 78240, Note_on_c, 1, 57, 58
4, 78322, Note_on_c, 1, 57, 0
4, 78360, Note_on_c, 1, 62, 55
4, 78419, Note_on_c, 1, 62, 0
4, 78480, Note_on_c, 1, 62, 64
4, 78549, Note_on_c, 1, 62, 0
4, 78600, Note_on_c, 1, 62, 61
4, 78672, Note_on_c, 1, 62, 0
4, 78720, Note_on_c, 1, 62, 51
4, 78783, Note_on_c, 1, 62, 0
4, 78840, Note_on_c, 1, 62, 61
4, 78906, Note_on_c, 1, 62, 0
4, 78960, Note_on_c, 1, 62, 58
4, 79029, Note_on_c, 1, 62, 0
4, 79080, Note_on_c, 1, 62, 48
4, 79152, Note_on_c, 1, 62, 0
4, 79200, Note_on_c, 1, 62, 58
4, 79272, Note_on_c, 1, 62, 0
4, 79320, Note_on_c, 1, 62, 58
4, 79388, Note_on_c, 1, 62, 0
4, 79440, Note_on_c, 1, 62, 51
4, 79501, Note_on_c, 1, 62, 0
4, 79560, Note_on_c, 1, 62, 48
4, 79621, Note_on_c, 1, 62, 0
4, 79680, Note_on_c, 1, 62, 48
4, 79748, Note_on_c, 1, 62, 0
4, 79800, Note_on_c, 1, 62, 55
4, 79863, Note_on_c, 1, 62, 0
4, 79920, Note_on_c, 1, 62, 55
4, 79985, Note_on_c, 1, 62, 0
4, 80040, Note_on_c, 1, 62, 58
4, 80115, Note_on_c, 1, 62, 0
4, 80160, Note_on_c, 1, 62, 66
4, 80232, Note_on_c, 1, 62, 0
4, 80280, Note_on_c, 1, 55, 58
4, 80359, Note_on_c, 1, 55, 0
4, 80400, Note_on_c, 1, 55, 58
4, 80471, Note_on_c, 1, 55, 0
4, 80520, Note_on_c, 1, 55, 58
4, 80597, Note_on_c, 1, 55, 0
4, 80640, Note_on_c, 1, 55, 55
4, 80714, Note_on_c, 1, 55, 0
4, 80760, Note_on_c, 1, 55, 48
4, 80824, Note_on_c, 1, 55, 0
4, 80880, Note_on_c, 1, 55, 51
4, 80939, Note_on_c, 1, 55, 0
4, 81000, Note_on_c, 1, 55, 51
4, 81082, Note_on_c, 1, 55, 0
4, 81120, Note_on_c, 1, 55, 43
4, 81191, Note_on_c, 1, 55, 0
4, 81240, Note_on_c, 1, 55, 74
4, 81313, Note_on_c, 1, 55, 0
4, 81360, Note_on_c, 1, 55, 51
4, 81435, Note_on_c, 1, 55, 0
4, 81480, Note_on_c, 1, 55, 58
4, 81563, Note_on_c, 1, 55, 0
4, 81600, Note_on_c, 1, 55, 74
4, 81679, Note_on_c, 1, 55, 0
4, 81720, Note_on_c, 1, 55, 72
4, 81798, Note_on_c, 1, 55, 0
4, 81840, Note_on_c, 1, 55, 51
4, 81922, Note_on_c, 1, 55, 0
4, 81960, Note_on_c, 1, 55, 64
4, 82045, Note_on_c, 1, 55, 0
4, 82080, Note_on_c, 1, 59, 72
4, 82154, Note_on_c, 1, 59, 0
4, 82200, Note_on_c, 1, 56, 55
4, 82281, Note_on_c, 1, 56, 0
4, 82320, Note_on_c, 1, 56, 51
4, 82401, Note_on_c, 1, 56, 0
4, 82440, Note_on_c, 1, 56, 43
4, 82515, Note_on_c, 1, 56, 0
4, 82560, Note_on_c, 1, 56, 55
4, 82647, Note_on_c, 1, 56, 0
4, 82680, Note_on_c, 1, 56, 48
4, 82754, Note_on_c, 1, 56, 0
4, 82800, Note_on_c, 1, 56, 48
4, 82878, Note_on_c, 1, 56, 0
4, 82920, Note_on_c, 1, 56, 77
4, 83002, Note_on_c, 1, 56, 0
4, 83040, Note_on_c, 1, 56, 58
4, 83128, Note_on_c, 1, 56, 0
4, 83160, Note_on_c, 1, 56, 55
4, 83246, Note_on_c, 1, 56, 0
4, 83280, Note_on_c, 1, 56, 51
4, 83364, Note_on_c, 1, 56, 0
4, 83400, Note_on_c, 1, 56, 55
4, 83486, Note_on_c, 1, 56, 0
4, 83520, Note_on_c, 1, 56, 58
4, 83600, Note_on_c, 1, 56, 0
4, 83640, Note_on_c, 1, 56, 64
4, 83726, Note_on_c, 1, 56, 0
4, 83760, Note_on_c, 1, 56, 61
4, 83843, Note_on_c, 1, 56, 0
4, 83880, Note_on_c, 1, 56, 61
4, 83961, Note_on_c, 1, 56, 0
4, 84000, Note_on_c, 1, 57, 66
4, 84086, Note_on_c, 1, 57, 0
4, 84120, Note_on_c, 1, 57, 58
4, 84200, Note_on_c, 1, 57, 0
4, 84240, Note_on_c, 1, 57, 55
4, 84325, Note_on_c, 1, 57, 0
4, 84360, Note_on_c, 1, 57, 58
4, 84440, Note_on_c, 1, 57, 0
4, 84480, Note_on_c, 1, 57, 61
4, 84562, Note_on_c, 1, 57, 0
4, 84600, Note_on_c, 1, 57, 61
4, 84678, Note_on_c, 1, 57, 0
4, 84720, Note_on_c, 1, 57, 48
4, 84805, Note_on_c, 1, 57, 0
4, 84840, Note_on_c, 1, 57, 51
4, 84922, Note_on_c, 1, 57, 0
4, 84960, Note_on_c, 1, 57, 58
4, 85034, Note_on_c, 1, 57, 0
4, 85080, Note_on_c, 1, 57, 51
4, 85152, Note_on_c, 1, 57, 0
4, 85200, Note_on_c, 1, 57, 48
4, 85279, Note_on_c, 1, 57, 0
4, 85320, Note_on_c, 1, 57, 43
4, 85396, Note_on_c, 1, 57, 0
4, 85440, Note_on_c, 1, 57, 51
4, 85514, Note_on_c, 1, 57, 0
4, 85560, Note_on_c, 1, 57, 43
4, 85627, Note_on_c, 1, 57, 0
4, 85680, Note_on_c, 1, 57, 51
4, 85758, Note_on_c, 1, 57, 0
4, 85800, Note_on_c, 1, 57, 48
4, 85880, Note_on_c, 1, 57, 0
4, 85920, Note_on_c, 1, 59, 58
4, 86000, Note_on_c, 1, 59, 0
4, 86040, Note_on_c, 1, 59, 58
4, 86107, Note_on_c, 1, 59, 0
4, 86160, Note_on_c, 1, 59, 58
4, 86236, Note_on_c, 1, 59, 0
4, 86280, Note_on_c, 1, 59, 51
4, 86348, Note_on_c, 1, 59, 0
4, 86400, Note_on_c, 1, 59, 43
4, 86475, Note_on_c, 1, 59, 0
4, 86520, Note_on_c, 1, 59, 55
4, 86584, Note_on_c, 1, 59, 0
4, 86640, Note_on_c, 1, 59, 48
4, 86706, Note_on_c, 1, 59, 0
4, 86760, Note_on_c, 1, 59, 35
4, 86829, Note_on_c, 1, 59, 0
4, 86880, Note_on_c, 1, 59, 43
4, 86947, Note_on_c, 1, 59, 0
4, 87000, Note_on_c, 1, 59, 35
4, 87061, Note_on_c, 1, 59, 0
4, 87120, Note_on_c, 1, 59, 51
4, 87194, Note_on_c, 1, 59, 0
4, 87240, Note_on_c, 1, 59, 39
4, 87307, Note_on_c, 1, 59, 0
4, 87360, Note_on_c, 1, 59, 64
4, 87418, Note_on_c, 1, 59, 0
4, 87480, Note_on_c, 1, 59, 74
4, 87550, Note_on_c, 1, 59, 0
4, 87600, Note_on_c, 1, 59, 72
4, 87677, Note_on_c, 1, 59, 0
4, 87720, Note_on_c, 1, 59, 74
4, 87801, Note_on_c, 1, 59, 0
4, 87840, Note_on_c, 1, 64, 77
4, 87923, Note_on_c, 1, 64, 0
4, 87960, Note_on_c, 1, 67, 99
4, 88048, Note_on_c, 1, 67, 0
4, 88080, Note_on_c, 1, 69, 86
4, 88169, Note_on_c, 1, 69, 0
4, 88200, Note_on_c, 1, 66, 91
4, 88282, Note_on_c, 1, 66, 0
4, 88320, Note_on_c, 1, 64, 58
4, 88761, Note_on_c, 1, 64, 0
4, 88800, Note_on_c, 1, 60, 14
4, 89496, Note_on_c, 1, 60, 0
4, 89640, Note_on_c, 1, 54, 127
4, 89737, Note_on_c, 1, 54, 0
4, 89760, Note_on_c, 1, 52, 120
4, 89859, Note_on_c, 1, 52, 0
4, 89880, Note_on_c, 1, 57, 127
4, 89971, Note_on_c, 1, 57, 0
4, 90000, Note_on_c, 1, 59, 127
4, 90106, Note_on_c, 1, 59, 0
4, 90116, Channel_aftertouch_c, 1, 12
4, 90120, Note_on_c, 1, 54, 127
4, 90122, Channel_aftertouch_c, 1, 0
4, 90124, Channel_aftertouch_c, 1, 6
4, 90131, Channel_aftertouch_c, 1, 0
4, 90133, Channel_aftertouch_c, 1, 3
4, 90139, Channel_aftertouch_c, 1, 0
4, 90141, Channel_aftertouch_c, 1, 1
4, 90148, Channel_aftertouch_c, 1, 0
4, 90224, Note_on_c, 1, 54, 0
4, 90240, Note_on_c, 1, 55, 127
4, 90456, Note_on_c, 1, 55, 0
4, 96840, Note_on_c, 1, 64, 102
4, 96914, Note_on_c, 1, 64, 0
4, 96960, Note_on_c, 1, 62, 124
4, 97176, Note_on_c, 1, 62, 0
4, 97200, Note_on_c, 1, 64, 108
4, 97416, Note_on_c, 1, 64, 0
4, 97440, Note_on_c, 1, 66, 102
4, 97656, Note_on_c, 1, 66, 0
4, 97680, Note_on_c, 1, 66, 105
4, 97896, Note_on_c, 1, 66, 0
4, 97920, Note_on_c, 1, 62, 99
4, 97985, Note_on_c, 1, 62, 0
4, 98040, Note_on_c, 1, 66, 96
4, 98261, Note_on_c, 1, 66, 0
4, 98280, Note_on_c, 1, 64, 79
4, 98360, Note_on_c, 1, 64, 0
4, 98400, Note_on_c, 1, 71, 86
4, 98472, Note_on_c, 1, 71, 0
4, 98520, Note_on_c, 1, 69, 84
4, 98760, Note_on_c, 1, 67, 84
4, 98761, Note_on_c, 1, 69, 0
4, 98868, Note_on_c, 1, 67, 0
4, 98880, Note_on_c, 1, 66, 102
4, 98971, Note_on_c, 1, 66, 0
4, 99000, Note_on_c, 1, 69, 89
4, 99037, Note_on_c, 1, 69, 0
4, 99060, Note_on_c, 1, 69, 81
4, 99108, Note_on_c, 1, 69, 0
4, 99120, Note_on_c, 1, 66, 96
4, 99129, Channel_aftertouch_c, 1, 0
4, 99131, Channel_aftertouch_c, 1, 6
4, 99133, Channel_aftertouch_c, 1, 0
4, 99136, Channel_aftertouch_c, 1, 3
4, 99142, Channel_aftertouch_c, 1, 0
4, 99144, Channel_aftertouch_c, 1, 1
4, 99151, Channel_aftertouch_c, 1, 0
4, 99156, Note_on_c, 1, 66, 0
4, 99180, Note_on_c, 1, 66, 74
4, 99217, Note_on_c, 1, 66, 0
4, 99240, Note_on_c, 1, 69, 77
4, 99277, Note_on_c, 1, 69, 0
4, 99300, Note_on_c, 1, 69, 89
4, 99339, Note_on_c, 1, 69, 0
4, 99360, Note_on_c, 1, 69, 111
4, 99397, Note_on_c, 1, 69, 0
4, 99420, Note_on_c, 1, 69, 96
4, 99466, Note_on_c, 1, 69, 0
4, 99480, Note_on_c, 1, 67, 102
4, 99517, Note_on_c, 1, 67, 0
4, 99540, Note_on_c, 1, 67, 102
4, 99587, Note_on_c, 1, 67, 0
4, 99600, Note_on_c, 1, 66, 81
4, 99639, Note_on_c, 1, 66, 0
4, 99660, Note_on_c, 1, 66, 99
4, 99702, Note_on_c, 1, 66, 0
4, 99720, Note_on_c, 1, 69, 96
4, 99756, Note_on_c, 1, 69, 0
4, 99780, Note_on_c, 1, 69, 74
4, 99817, Note_on_c, 1, 69, 0
4, 99840, Note_on_c, 1, 69, 84
4, 100009, Note_on_c, 1, 69, 0
4, 100140, Note_on_c, 1, 67, 77
4, 100182, Note_on_c, 1, 67, 0
4, 100200, Note_on_c, 1, 69, 79
4, 100242, Note_on_c, 1, 69, 0
4, 100260, Note_on_c, 1, 66, 74
4, 100308, Note_on_c, 1, 66, 0
4, 100320, Note_on_c, 1, 64, 35
4, 101472, Note_on_c, 1, 64, 0
4, 102240, Note_on_c, 1, 68, 66
4, 102456, Note_on_c, 1, 68, 0
4, 102480, Note_on_c, 1, 65, 61
4, 102696, Note_on_c, 1, 65, 0
4, 102720, Note_on_c, 1, 61, 55
4, 102936, Note_on_c, 1, 61, 0
4, 103080, Note_on_c, 1, 66, 58
4, 103296, Note_on_c, 1, 66, 0
4, 103320, Note_on_c, 1, 69, 55
4, 103536, Note_on_c, 1, 69, 0
4, 103680, Note_on_c, 1, 66, 48
4, 103896, Note_on_c, 1, 66, 0
4, 104160, Note_on_c, 1, 59, 51
4, 104376, Note_on_c, 1, 59, 0
4, 104400, Note_on_c, 1, 62, 55
4, 104616, Note_on_c, 1, 62, 0
4, 104640, Note_on_c, 1, 61, 48
4, 104720, Note_on_c, 1, 61, 0
4, 104760, Note_on_c, 1, 61, 43
4, 104838, Note_on_c, 1, 61, 0
4, 104880, Note_on_c, 1, 61, 39
4, 104954, Note_on_c, 1, 61, 0
4, 105000, Note_on_c, 1, 61, 48
4, 105076, Note_on_c, 1, 61, 0
4, 105120, Note_on_c, 1, 61, 55
4, 105200, Note_on_c, 1, 61, 0
4, 105240, Note_on_c, 1, 61, 48
4, 105312, Note_on_c, 1, 61, 0
4, 105360, Note_on_c, 1, 61, 48
4, 105438, Note_on_c, 1, 61, 0
4, 105480, Note_on_c, 1, 61, 39
4, 105567, Note_on_c, 1, 61, 0
4, 105600, Note_on_c, 1, 61, 35
4, 105691, Note_on_c, 1, 61, 0
4, 105720, Note_on_c, 1, 61, 30
4, 105802, Note_on_c, 1, 61, 0
4, 105840, Note_on_c, 1, 61, 39
4, 105915, Note_on_c, 1, 61, 0
4, 105960, Note_on_c, 1, 61, 35
4, 106032, Note_on_c, 1, 61, 0
4, 106080, Note_on_c, 1, 61, 30
4, 106159, Note_on_c, 1, 61, 0
4, 106200, Note_on_c, 1, 61, 30
4, 106267, Note_on_c, 1, 61, 0
4, 106320, Note_on_c, 1, 61, 35
4, 106395, Note_on_c, 1, 61, 0
4, 106440, Note_on_c, 1, 61, 26
4, 106514, Note_on_c, 1, 61, 0
4, 106560, Note_on_c, 1, 61, 35
4, 106650, Note_on_c, 1, 61, 0
4, 106680, Note_on_c, 1, 61, 48
4, 106754, Note_on_c, 1, 61, 0
4, 106800, Note_on_c, 1, 61, 51
4, 106872, Note_on_c, 1, 61, 0
4, 106920, Note_on_c, 1, 61, 48
4, 106992, Note_on_c, 1, 61, 0
4, 107040, Note_on_c, 1, 61, 39
4, 107114, Note_on_c, 1, 61, 0
4, 107160, Note_on_c, 1, 61, 39
4, 107229, Note_on_c, 1, 61, 0
4, 107280, Note_on_c, 1, 61, 30
4, 107350, Note_on_c, 1, 61, 0
4, 107400, Note_on_c, 1, 61, 35
4, 107478, Note_on_c, 1, 61, 0
4, 107520, Note_on_c, 1, 61, 26
4, 107597, Note_on_c, 1, 61, 0
4, 107640, Note_on_c, 1, 61, 30
4, 107714, Note_on_c, 1, 61, 0
4, 107760, Note_on_c, 1, 61, 43
4, 107833, Note_on_c, 1, 61, 0
4, 107880, Note_on_c, 1, 61, 48
4, 107961, Note_on_c, 1, 61, 0
4, 108000, Note_on_c, 1, 61, 48
4, 108082, Note_on_c, 1, 61, 0
4, 108120, Note_on_c, 1, 61, 35
4, 108192, Note_on_c, 1, 61, 0
4, 108240, Note_on_c, 1, 61, 35
4, 108315, Note_on_c, 1, 61, 0
4, 108360, Note_on_c, 1, 61, 39
4, 108422, Note_on_c, 1, 61, 0
4, 108480, Note_on_c, 1, 59, 14
4, 110124, Note_on_c, 1, 59, 0
4, 110280, Note_on_c, 1, 59, 120
4, 110342, Note_on_c, 1, 59, 0
4, 110400, Note_on_c, 1, 57, 117
4, 110455, Note_on_c, 1, 57, 0
4, 110520, Note_on_c, 1, 62, 117
4, 110690, Note_on_c, 1, 62, 0
4, 110760, Note_on_c, 1, 61, 127
4, 110853, Note_on_c, 1, 61, 0
4, 110880, Note_on_c, 1, 57, 96
4, 110994, Note_on_c, 1, 57, 0
4, 111480, Note_on_c, 1, 61, 127
4, 111516, Note_on_c, 1, 61, 0
4, 111540, Note_on_c, 1, 61, 120
4, 111578, Note_on_c, 1, 61, 0
4, 111600, Note_on_c, 1, 62, 124
4, 111636, Note_on_c, 1, 62, 0
4, 111660, Note_on_c, 1, 62, 120
4, 111695, Note_on_c, 1, 62, 0
4, 111720, Note_on_c, 1, 59, 120
4, 111753, Note_on_c, 1, 59, 0
4, 111780, Note_on_c, 1, 59, 72
4, 111815, Note_on_c, 1, 59, 0
4, 111840, Note_on_c, 1, 61, 89
4, 111851, Channel_aftertouch_c, 1, 54
4, 111861, Channel_aftertouch_c, 1, 88
4, 111872, Channel_aftertouch_c, 1, 105
4, 111883, Channel_aftertouch_c, 1, 97
4, 111893, Channel_aftertouch_c, 1, 80
4, 111904, Channel_aftertouch_c, 1, 65
4, 111915, Channel_aftertouch_c, 1, 57
4, 111925, Channel_aftertouch_c, 1, 53
4, 111936, Channel_aftertouch_c, 1, 26
4, 111938, Note_on_c, 1, 61, 0
4, 112380, Note_on_c, 1, 62, 81
4, 112425, Note_on_c, 1, 62, 0
4, 112440, Note_on_c, 1, 61, 77
4, 112481, Note_on_c, 1, 61, 0
4, 112500, Note_on_c, 1, 62, 79
4, 112543, Note_on_c, 1, 62, 0
4, 112560, Note_on_c, 1, 59, 84
4, 112677, Note_on_c, 1, 59, 0
4, 112860, Note_on_c, 1, 59, 79
4, 112905, Note_on_c, 1, 59, 0
4, 112920, Note_on_c, 1, 57, 93
4, 112968, Note_on_c, 1, 57, 0
4, 112980, Note_on_c, 1, 59, 89
4, 113033, Note_on_c, 1, 59, 0
4, 113040, Note_on_c, 1, 55, 102
4, 113152, Note_on_c, 1, 55, 0
4, 113340, Note_on_c, 1, 71, 105
4, 113376, Note_on_c, 1, 71, 0
4, 113400, Note_on_c, 1, 69, 86
4, 113443, Note_on_c, 1, 69, 0
4, 113460, Note_on_c, 1, 71, 81
4, 113502, Note_on_c, 1, 71, 0
4, 113520, Note_on_c, 1, 67, 84
4, 113629, Note_on_c, 1, 67, 0
4, 113820, Note_on_c, 1, 69, 96
4, 113863, Note_on_c, 1, 69, 0
4, 113880, Note_on_c, 1, 68, 89
4, 113921, Note_on_c, 1, 68, 0
4, 113940, Note_on_c, 1, 66, 86
4, 113975, Note_on_c, 1, 66, 0
4, 114000, Note_on_c, 1, 65, 74
4, 114131, Note_on_c, 1, 65, 0
4, 114300, Note_on_c, 1, 69, 86
4, 114341, Note_on_c, 1, 69, 0
4, 114360, Note_on_c, 1, 68, 72
4, 114408, Note_on_c, 1, 68, 0
4, 114420, Note_on_c, 1, 66, 96
4, 114471, Note_on_c, 1, 66, 0
4, 114480, Note_on_c, 1, 65, 77
4, 114591, Note_on_c, 1, 65, 0
4, 114720, Note_on_c, 1, 61, 43
4, 115200, Note_on_c, 1, 61, 0
4, 117120, Note_on_c, 1, 54, 105
4, 117336, Note_on_c, 1, 54, 0
4, 117360, Note_on_c, 1, 57, 127
4, 117576, Note_on_c, 1, 57, 0
4, 117600, Note_on_c, 1, 62, 111
4, 117816, Note_on_c, 1, 62, 0
4, 117960, Note_on_c, 1, 57, 89
4, 118032, Note_on_c, 1, 57, 0
4, 118080, Note_on_c, 1, 62, 84
4, 118148, Note_on_c, 1, 62, 0
4, 118200, Note_on_c, 1, 57, 72
4, 118271, Note_on_c, 1, 57, 0
4, 118320, Note_on_c, 1, 62, 58
4, 118386, Note_on_c, 1, 62, 0
4, 118440, Note_on_c, 1, 57, 74
4, 118503, Note_on_c, 1, 57, 0
4, 118560, Note_on_c, 1, 62, 58
4, 118621, Note_on_c, 1, 62, 0
4, 118680, Note_on_c, 1, 57, 79
4, 118741, Note_on_c, 1, 57, 0
4, 118800, Note_on_c, 1, 57, 74
4, 118858, Note_on_c, 1, 57, 0
4, 118920, Note_on_c, 1, 57, 66
4, 118982, Note_on_c, 1, 57, 0
4, 119040, Note_on_c, 1, 62, 55
4, 119115, Note_on_c, 1, 62, 0
4, 119160, Note_on_c, 1, 61, 77
4, 119239, Note_on_c, 1, 61, 0
4, 119280, Note_on_c, 1, 57, 64
4, 119345, Note_on_c, 1, 57, 0
4, 119400, Note_on_c, 1, 57, 51
4, 119474, Note_on_c, 1, 57, 0
4, 119520, Note_on_c, 1, 57, 79
4, 119736, Note_on_c, 1, 57, 0
4, 120000, Note_on_c, 1, 66, 39
4, 120026, Note_on_c, 1, 66, 0
4, 120060, Note_on_c, 1, 66, 72
4, 120093, Note_on_c, 1, 66, 0
4, 120120, Note_on_c, 1, 66, 96
4, 120128, Channel_aftertouch_c, 1, 19
4, 120138, Channel_aftertouch_c, 1, 9
4, 120149, Note_on_c, 1, 66, 0
4, 120180, Note_on_c, 1, 66, 117
4, 120210, Note_on_c, 1, 66, 0
4, 120240, Note_on_c, 1, 66, 125
4, 120273, Note_on_c, 1, 66, 0
4, 120300, Note_on_c, 1, 66, 127
4, 120329, Note_on_c, 1, 66, 0
4, 120360, Note_on_c, 1, 66, 117
4, 120361, Channel_aftertouch_c, 1, 31
4, 120365, Channel_aftertouch_c, 1, 0
4, 120366, Channel_aftertouch_c, 1, 6
4, 120367, Channel_aftertouch_c, 1, 21
4, 120375, Channel_aftertouch_c, 1, 0
4, 120377, Channel_aftertouch_c, 1, 10
4, 120377, Channel_aftertouch_c, 1, 3
4, 120386, Channel_aftertouch_c, 1, 0
4, 120388, Channel_aftertouch_c, 1, 5
4, 120388, Channel_aftertouch_c, 1, 1
4, 120389, Channel_aftertouch_c, 1, 0
4, 120391, Note_on_c, 1, 66, 0
4, 120420, Note_on_c, 1, 66, 127
4, 120452, Note_on_c, 1, 66, 0
4, 120480, Note_on_c, 1, 63, 127
4, 120696, Note_on_c, 1, 63, 0
4, 120960, Note_on_c, 1, 64, 102
4, 120985, Note_on_c, 1, 64, 0
4, 121020, Note_on_c, 1, 64, 102
4, 121046, Note_on_c, 1, 64, 0
4, 121080, Note_on_c, 1, 64, 105
4, 121108, Note_on_c, 1, 64, 0
4, 121140, Note_on_c, 1, 64, 117
4, 121166, Note_on_c, 1, 64, 0
4, 121200, Note_on_c, 1, 64, 96
4, 121226, Note_on_c, 1, 64, 0
4, 121260, Note_on_c, 1, 64, 117
4, 121286, Note_on_c, 1, 64, 0
4, 121320, Note_on_c, 1, 64, 111
4, 121346, Note_on_c, 1, 64, 0
4, 121380, Note_on_c, 1, 64, 89
4, 121402, Note_on_c, 1, 64, 0
4, 121440, Note_on_c, 1, 64, 127
4, 121656, Note_on_c, 1, 64, 0
4, 121920, Note_on_c, 1, 69, 86
4, 121947, Note_on_c, 1, 69, 0
4, 121980, Note_on_c, 1, 69, 96
4, 122005, Note_on_c, 1, 69, 0
4, 122040, Note_on_c, 1, 69, 127
4, 122066, Note_on_c, 1, 69, 0
4, 122100, Note_on_c, 1, 69, 117
4, 122124, Note_on_c, 1, 69, 0
4, 122160, Note_on_c, 1, 69, 126
4, 122184, Note_on_c, 1, 69, 0
4, 122220, Note_on_c, 1, 69, 126
4, 122243, Note_on_c, 1, 69, 0
4, 122280, Note_on_c, 1, 69, 117
4, 122303, Note_on_c, 1, 69, 0
4, 122340, Note_on_c, 1, 69, 127
4, 122366, Note_on_c, 1, 69, 0
4, 122400, Note_on_c, 1, 71, 114
4, 122616, Note_on_c, 1, 71, 0
4, 122640, Note_on_c, 1, 66, 120
4, 122856, Note_on_c, 1, 66, 0
4, 122880, Note_on_c, 1, 67, 105
4, 123096, Note_on_c, 1, 67, 0
4, 123120, Note_on_c, 1, 62, 96
4, 123336, Note_on_c, 1, 62, 0
4, 123360, Note_on_c, 1, 64, 102
4, 123576, Note_on_c, 1, 64, 0
4, 123600, Note_on_c, 1, 61, 102
4, 123665, Note_on_c, 1, 61, 0
4, 123720, Note_on_c, 1, 62, 84
4, 123786, Note_on_c, 1, 62, 0
4, 123840, Note_on_c, 1, 64, 72
4, 123904, Note_on_c, 1, 64, 0
4, 123960, Note_on_c, 1, 61, 84
4, 123993, Note_on_c, 1, 61, 0
4, 124020, Note_on_c, 1, 62, 79
4, 124055, Note_on_c, 1, 62, 0
4, 124080, Note_on_c, 1, 64, 96
4, 124129, Note_on_c, 1, 64, 0
4, 124200, Note_on_c, 1, 61, 77
4, 124233, Note_on_c, 1, 61, 0
4, 124260, Note_on_c, 1, 62, 84
4, 124297, Note_on_c, 1, 62, 0
4, 124320, Note_on_c, 1, 64, 69
4, 124465, Note_on_c, 1, 64, 0
4, 124680, Note_on_c, 1, 69, 74
4, 124753, Note_on_c, 1, 69, 0
4, 124800, Note_on_c, 1, 69, 66
4, 124884, Note_on_c, 1, 69, 0
4, 124920, Note_on_c, 1, 67, 102
4, 124949, Note_on_c, 1, 67, 0
4, 124980, Note_on_c, 1, 66, 84
4, 125008, Note_on_c, 1, 66, 0
4, 125040, Note_on_c, 1, 64, 102
4, 125114, Note_on_c, 1, 64, 0
4, 125160, Note_on_c, 1, 67, 93
4, 125229, Note_on_c, 1, 67, 0
4, 125280, Note_on_c, 1, 66, 89
4, 125329, Note_on_c, 1, 66, 0
4, 125400, Note_on_c, 1, 66, 89
4, 125591, Note_on_c, 1, 66, 0
4, 125640, Note_on_c, 1, 64, 84
4, 125718, Note_on_c, 1, 64, 0
4, 125760, Note_on_c, 1, 62, 84
4, 125817, Note_on_c, 1, 62, 0
4, 125880, Note_on_c, 1, 66, 89
4, 126101, Note_on_c, 1, 66, 0
4, 126120, Note_on_c, 1, 64, 79
4, 126211, Note_on_c, 1, 64, 0
4, 126240, Note_on_c, 1, 62, 69
4, 126332, Note_on_c, 1, 62, 0
4, 126360, Note_on_c, 1, 69, 93
4, 126394, Note_on_c, 1, 69, 0
4, 126420, Note_on_c, 1, 69, 84
4, 126462, Note_on_c, 1, 69, 0
4, 126480, Note_on_c, 1, 62, 84
4, 126516, Note_on_c, 1, 62, 0
4, 126540, Note_on_c, 1, 62, 72
4, 126585, Note_on_c, 1, 62, 0
4, 126600, Note_on_c, 1, 57, 84
4, 126640, Note_on_c, 1, 57, 0
4, 126660, Note_on_c, 1, 57, 79
4, 126703, Note_on_c, 1, 57, 0
4, 126720, Note_on_c, 1, 62, 96
4, 126798, Note_on_c, 1, 62, 0
4, 126840, Note_on_c, 1, 66, 111
4, 126927, Note_on_c, 1, 66, 0
4, 126960, Note_on_c, 1, 67, 77
4, 127046, Note_on_c, 1, 67, 0
4, 127080, Note_on_c, 1, 64, 81
4, 127169, Note_on_c, 1, 64, 0
4, 127200, Note_on_c, 1, 66, 89
4, 127416, Note_on_c, 1, 66, 0
4, 130560, Note_on_c, 1, 54, 127
4, 130776, Note_on_c, 1, 54, 0
4, 130800, Note_on_c, 1, 57, 96
4, 131016, Note_on_c, 1, 57, 0
4, 131040, Note_on_c, 1, 62, 108
4, 131256, Note_on_c, 1, 62, 0
4, 131400, Note_on_c, 1, 57, 89
4, 131458, Note_on_c, 1, 57, 0
4, 131520, Note_on_c, 1, 62, 91
4, 131573, Note_on_c, 1, 62, 0
4, 131640, Note_on_c, 1, 57, 84
4, 131694, Note_on_c, 1, 57, 0
4, 131760, Note_on_c, 1, 62, 91
4, 131825, Note_on_c, 1, 62, 0
4, 131880, Note_on_c, 1, 57, 105
4, 131939, Note_on_c, 1, 57, 0
4, 132000, Note_on_c, 1, 62, 124
4, 132067, Note_on_c, 1, 62, 0
4, 132120, Note_on_c, 1, 57, 79
4, 132184, Note_on_c, 1, 57, 0
4, 132240, Note_on_c, 1, 57, 84
4, 132304, Note_on_c, 1, 57, 0
4, 132360, Note_on_c, 1, 57, 74
4, 132431, Note_on_c, 1, 57, 0
4, 132480, Note_on_c, 1, 62, 66
4, 132486, Channel_aftertouch_c, 1, 6
4, 132496, Channel_aftertouch_c, 1, 3
4, 132508, Channel_aftertouch_c, 1, 1
4, 132564, Note_on_c, 1, 62, 0
4, 132600, Note_on_c, 1, 61, 74
4, 132719, Note_on_c, 1, 61, 0
4, 132720, Note_on_c, 1, 57, 66
4, 132822, Note_on_c, 1, 57, 0
4, 132840, Note_on_c, 1, 57, 64
4, 132932, Note_on_c, 1, 57, 0
4, 132960, Note_on_c, 1, 57, 69
4, 133176, Note_on_c, 1, 57, 0
4, 133200, Note_on_c, 1, 61, 84
4, 133416, Note_on_c, 1, 61, 0
4, 133440, Note_on_c, 1, 64, 55
4, 133656, Note_on_c, 1, 64, 0
4, 133920, Note_on_c, 1, 57, 55
4, 134136, Note_on_c, 1, 57, 0
4, 134160, Note_on_c, 1, 61, 35
4, 134376, Note_on_c, 1, 61, 0
4, 134400, Note_on_c, 1, 64, 35
4, 134616, Note_on_c, 1, 64, 0
4, 134880, Note_on_c, 1, 57, 18
4, 135096, Note_on_c, 1, 57, 0
4, 135120, Note_on_c, 1, 61, 14
4, 135336, Note_on_c, 1, 61, 0
4, 135360, Note_on_c, 1, 64, 35
4, 135576, Note_on_c, 1, 64, 0
4, 135720, Note_on_c, 1, 64, 96
4, 135792, Note_on_c, 1, 64, 0
4, 135840, Note_on_c, 1, 69, 108
4, 135907, Note_on_c, 1, 69, 0
4, 135960, Note_on_c, 1, 64, 84
4, 136032, Note_on_c, 1, 64, 0
4, 136080, Note_on_c, 1, 69, 114
4, 136142, Note_on_c, 1, 69, 0
4, 136200, Note_on_c, 1, 64, 111
4, 136273, Note_on_c, 1, 64, 0
4, 136320, Note_on_c, 1, 69, 89
4, 136397, Note_on_c, 1, 69, 0
4, 136440, Note_on_c, 1, 64, 74
4, 136519, Note_on_c, 1, 64, 0
4, 136560, Note_on_c, 1, 64, 84
4, 136636, Note_on_c, 1, 64, 0
4, 136680, Note_on_c, 1, 61, 77
4, 136754, Note_on_c, 1, 61, 0
4, 136800, Note_on_c, 1, 57, 39
4, 137952, Note_on_c, 1, 57, 0
4, 138840, Note_on_c, 1, 57, 58
4, 138922, Note_on_c, 1, 57, 0
4, 139080, Note_on_c, 1, 56, 64
4, 139175, Note_on_c, 1, 56, 0
4, 139320, Note_on_c, 1, 54, 77
4, 139404, Note_on_c, 1, 54, 0
4, 139560, Note_on_c, 1, 59, 77
4, 139613, Note_on_c, 1, 59, 0
4, 139680, Note_on_c, 1, 52, 61
4, 140112, Note_on_c, 1, 52, 0
4, 140160, Note_on_c, 1, 61, 127
4, 140182, Note_on_c, 1, 61, 0
4, 140220, Note_on_c, 1, 61, 127
4, 140242, Note_on_c, 1, 61, 0
4, 140280, Note_on_c, 1, 61, 117
4, 140306, Note_on_c, 1, 61, 0
4, 140340, Note_on_c, 1, 61, 93
4, 140366, Note_on_c, 1, 61, 0
4, 140400, Note_on_c, 1, 61, 127
4, 140425, Note_on_c, 1, 61, 0
4, 140460, Note_on_c, 1, 61, 127
4, 140488, Note_on_c, 1, 61, 0
4, 140520, Note_on_c, 1, 61, 127
4, 140547, Note_on_c, 1, 61, 0
4, 140576, Channel_aftertouch_c, 1, 6
4, 140578, Channel_aftertouch_c, 1, 0
4, 140579, Channel_aftertouch_c, 1, 3
4, 140580, Note_on_c, 1, 61, 127
4, 140586, Channel_aftertouch_c, 1, 0
4, 140588, Channel_aftertouch_c, 1, 1
4, 140595, Channel_aftertouch_c, 1, 0
4, 140606, Note_on_c, 1, 61, 0
4, 140640, Note_on_c, 1, 61, 127
4, 140856, Note_on_c, 1, 61, 0
4, 141120, Note_on_c, 1, 66, 127
4, 141144, Note_on_c, 1, 66, 0
4, 141180, Note_on_c, 1, 66, 124
4, 141206, Note_on_c, 1, 66, 0
4, 141240, Note_on_c, 1, 66, 124
4, 141264, Note_on_c, 1, 66, 0
4, 141300, Note_on_c, 1, 66, 127
4, 141324, Note_on_c, 1, 66, 0
4, 141360, Note_on_c, 1, 66, 127
4, 141384, Note_on_c, 1, 66, 0
4, 141420, Note_on_c, 1, 66, 127
4, 141446, Note_on_c, 1, 66, 0
4, 141480, Note_on_c, 1, 66, 127
4, 141504, Note_on_c, 1, 66, 0
4, 141540, Note_on_c, 1, 66, 127
4, 141564, Note_on_c, 1, 66, 0
4, 141600, Note_on_c, 1, 64, 127
4, 141816, Note_on_c, 1, 64, 0
4, 142080, Note_on_c, 1, 64, 93
4, 142100, Note_on_c, 1, 64, 0
4, 142140, Note_on_c, 1, 64, 99
4, 142166, Note_on_c, 1, 64, 0
4, 142200, Note_on_c, 1, 64, 96
4, 142225, Note_on_c, 1, 64, 0
4, 142260, Note_on_c, 1, 64, 111
4, 142285, Note_on_c, 1, 64, 0
4, 142310, Channel_aftertouch_c, 1, 6
4, 142320, Note_on_c, 1, 64, 89
4, 142321, Channel_aftertouch_c, 1, 3
4, 142332, Channel_aftertouch_c, 1, 1
4, 142344, Note_on_c, 1, 64, 0
4, 142380, Note_on_c, 1, 64, 96
4, 142404, Note_on_c, 1, 64, 0
4, 142440, Note_on_c, 1, 64, 102
4, 142465, Note_on_c, 1, 64, 0
4, 142500, Note_on_c, 1, 64, 86
4, 142527, Note_on_c, 1, 64, 0
4, 142560, Note_on_c, 1, 66, 111
4, 142776, Note_on_c, 1, 66, 0
4, 142800, Note_on_c, 1, 61, 102
4, 143016, Note_on_c, 1, 61, 0
4, 143040, Note_on_c, 1, 62, 84
4, 143256, Note_on_c, 1, 62, 0
4, 143280, Note_on_c, 1, 57, 81
4, 143496, Note_on_c, 1, 57, 0
4, 143520, Note_on_c, 1, 59, 79
4, 143736, Note_on_c, 1, 59, 0
4, 143760, Note_on_c, 1, 56, 84
4, 143766, Channel_aftertouch_c, 1, 6
4, 143768, Channel_aftertouch_c, 1, 0
4, 143770, Channel_aftertouch_c, 1, 3
4, 143777, Channel_aftertouch_c, 1, 0
4, 143778, Channel_aftertouch_c, 1, 1
4, 143785, Channel_aftertouch_c, 1, 0
4, 143827, Note_on_c, 1, 56, 0
4, 143880, Note_on_c, 1, 57, 79
4, 143949, Note_on_c, 1, 57, 0
4, 144000, Note_on_c, 1, 59, 69
4, 144063, Note_on_c, 1, 59, 0
4, 144120, Note_on_c, 1, 56, 84
4, 144149, Note_on_c, 1, 56, 0
4, 144180, Note_on_c, 1, 57, 66
4, 144217, Note_on_c, 1, 57, 0
4, 144240, Note_on_c, 1, 59, 79
4, 144302, Note_on_c, 1, 59, 0
4, 144360, Note_on_c, 1, 56, 108
4, 144393, Note_on_c, 1, 56, 0
4, 144420, Note_on_c, 1, 57, 89
4, 144458, Note_on_c, 1, 57, 0
4, 144480, Note_on_c, 1, 59, 89
4, 144602, Note_on_c, 1, 59, 0
4, 144840, Note_on_c, 1, 64, 74
4, 144915, Note_on_c, 1, 64, 0
4, 144960, Note_on_c, 1, 64, 89
4, 145051, Note_on_c, 1, 64, 0
4, 145080, Note_on_c, 1, 62, 79
4, 145114, Note_on_c, 1, 62, 0
4, 145140, Note_on_c, 1, 61, 74
4, 145177, Note_on_c, 1, 61, 0
4, 145200, Note_on_c, 1, 59, 84
4, 145281, Note_on_c, 1, 59, 0
4, 145320, Note_on_c, 1, 62, 102
4, 145407, Note_on_c, 1, 62, 0
4, 145440, Note_on_c, 1, 61, 96
4, 145656, Note_on_c, 1, 61, 0
4, 146040, Note_on_c, 1, 57, 64
4, 146075, Note_on_c, 1, 57, 0
4, 146100, Note_on_c, 1, 57, 79
4, 146142, Note_on_c, 1, 57, 0
4, 146160, Note_on_c, 1, 57, 79
4, 146196, Note_on_c, 1, 57, 0
4, 146220, Note_on_c, 1, 57, 89
4, 146254, Note_on_c, 1, 57, 0
4, 146280, Note_on_c, 1, 64, 77
4, 146312, Note_on_c, 1, 64, 0
4, 146340, Note_on_c, 1, 64, 93
4, 146372, Note_on_c, 1, 64, 0
4, 146400, Note_on_c, 1, 64, 111
4, 146616, Note_on_c, 1, 64, 0
4, 147480, Note_on_c, 1, 61, 84
4, 147512, Note_on_c, 1, 61, 0
4, 147540, Note_on_c, 1, 61, 84
4, 147577, Note_on_c, 1, 61, 0
4, 147600, Note_on_c, 1, 62, 84
4, 147632, Note_on_c, 1, 62, 0
4, 147660, Note_on_c, 1, 62, 79
4, 147692, Note_on_c, 1, 62, 0
4, 147720, Note_on_c, 1, 59, 89
4, 147753, Note_on_c, 1, 59, 0
4, 147780, Note_on_c, 1, 59, 69
4, 147818, Note_on_c, 1, 59, 0
4, 147840, Note_on_c, 1, 61, 84
4, 147888, Note_on_c, 1, 61, 0
4, 147960, Note_on_c, 1, 61, 66
4, 148188, Note_on_c, 1, 61, 0
4, 148200, Note_on_c, 1, 59, 69
4, 148304, Note_on_c, 1, 59, 0
4, 148320, Note_on_c, 1, 57, 64
4, 148412, Note_on_c, 1, 57, 0
4, 148440, Note_on_c, 1, 69, 84
4, 148481, Note_on_c, 1, 69, 0
4, 148500, Note_on_c, 1, 68, 84
4, 148549, Note_on_c, 1, 68, 0
4, 148560, Note_on_c, 1, 66, 86
4, 148597, Note_on_c, 1, 66, 0
4, 148620, Note_on_c, 1, 66, 91
4, 148670, Note_on_c, 1, 66, 0
4, 148680, Note_on_c, 1, 64, 79
4, 148720, Note_on_c, 1, 64, 0
4, 148740, Note_on_c, 1, 64, 77
4, 148787, Note_on_c, 1, 64, 0
4, 148800, Note_on_c, 1, 64, 99
4, 148882, Note_on_c, 1, 64, 0
4, 148920, Note_on_c, 1, 66, 96
4, 149006, Note_on_c, 1, 66, 0
4, 149040, Note_on_c, 1, 66, 79
4, 149138, Note_on_c, 1, 66, 0
4, 149160, Note_on_c, 1, 59, 96
4, 149260, Note_on_c, 1, 59, 0
4, 149280, Note_on_c, 1, 61, 89
4, 149496, Note_on_c, 1, 61, 0
4, 149760, Note_on_c, 1, 54, 105
4, 149765, Channel_aftertouch_c, 1, 0
4, 149767, Channel_aftertouch_c, 1, 1
4, 149774, Channel_aftertouch_c, 1, 0
4, 149875, Channel_aftertouch_c, 1, 6
4, 149877, Channel_aftertouch_c, 1, 0
4, 149878, Channel_aftertouch_c, 1, 3
4, 149976, Note_on_c, 1, 54, 0
4, 150000, Note_on_c, 1, 57, 126
4, 150216, Note_on_c, 1, 57, 0
4, 150240, Note_on_c, 1, 62, 117
4, 150456, Note_on_c, 1, 62, 0
4, 150480, Note_on_c, 1, 66, 51
4, 150696, Note_on_c, 1, 66, 0
4, 150720, Note_on_c, 1, 69, 69
4, 150936, Note_on_c, 1, 69, 0
4, 151200, Note_on_c, 1, 62, 48
4, 151416, Note_on_c, 1, 62, 0
4, 151440, Note_on_c, 1, 66, 55
4, 151656, Note_on_c, 1, 66, 0
4, 151680, Note_on_c, 1, 69, 69
4, 151896, Note_on_c, 1, 69, 0
4, 152160, Note_on_c, 1, 62, 66
4, 152376, Note_on_c, 1, 62, 0
4, 152400, Note_on_c, 1, 66, 64
4, 152616, Note_on_c, 1, 66, 0
4, 152640, Note_on_c, 1, 69, 51
4, 152856, Note_on_c, 1, 69, 0
4, 153000, Note_on_c, 1, 57, 64
4, 153070, Channel_aftertouch_c, 1, 1
4, 153076, Note_on_c, 1, 57, 0
4, 153120, Note_on_c, 1, 62, 77
4, 153195, Note_on_c, 1, 62, 0
4, 153240, Note_on_c, 1, 57, 111
4, 153309, Note_on_c, 1, 57, 0
4, 153360, Note_on_c, 1, 62, 89
4, 153440, Note_on_c, 1, 62, 0
4, 153480, Note_on_c, 1, 57, 111
4, 153561, Note_on_c, 1, 57, 0
4, 153600, Note_on_c, 1, 62, 81
4, 153673, Note_on_c, 1, 62, 0
4, 153720, Note_on_c, 1, 57, 79
4, 153794, Note_on_c, 1, 57, 0
4, 153840, Note_on_c, 1, 57, 72
4, 153925, Note_on_c, 1, 57, 0
4, 153960, Note_on_c, 1, 54, 72
4, 154040, Note_on_c, 1, 54, 0
4, 154080, Note_on_c, 1, 54, 22
4, 155232, Note_on_c, 1, 54, 0
4, 156120, Note_on_c, 1, 62, 64
4, 156189, Note_on_c, 1, 62, 0
4, 156360, Note_on_c, 1, 61, 58
4, 156437, Note_on_c, 1, 61, 0
4, 156600, Note_on_c, 1, 59, 55
4, 156672, Note_on_c, 1, 59, 0
4, 156840, Note_on_c, 1, 52, 64
4, 156907, Note_on_c, 1, 52, 0
4, 156960, Note_on_c, 1, 57, 18
4, 157176, Note_on_c, 1, 57, 0
4, 157440, Note_on_c, 1, 66, 111
4, 157469, Note_on_c, 1, 66, 0
4, 157500, Note_on_c, 1, 66, 124
4, 157531, Note_on_c, 1, 66, 0
4, 157560, Note_on_c, 1, 66, 127
4, 157592, Note_on_c, 1, 66, 0
4, 157620, Note_on_c, 1, 66, 120
4, 157648, Note_on_c, 1, 66, 0
4, 157680, Note_on_c, 1, 66, 127
4, 157709, Note_on_c, 1, 66, 0
4, 157740, Note_on_c, 1, 66, 127
4, 157770, Note_on_c, 1, 66, 0
4, 157800, Note_on_c, 1, 66, 120
4, 157807, Channel_aftertouch_c, 1, 3
4, 157816, Channel_aftertouch_c, 1, 1
4, 157828, Note_on_c, 1, 66, 0
4, 157860, Note_on_c, 1, 66, 105
4, 157894, Note_on_c, 1, 66, 0
4, 157920, Note_on_c, 1, 63, 127
4, 158136, Note_on_c, 1, 63, 0
4, 158400, Note_on_c, 1, 64, 114
4, 158430, Note_on_c, 1, 64, 0
4, 158460, Note_on_c, 1, 64, 102
4, 158493, Note_on_c, 1, 64, 0
4, 158520, Note_on_c, 1, 64, 77
4, 158551, Note_on_c, 1, 64, 0
4, 158580, Note_on_c, 1, 64, 81
4, 158611, Note_on_c, 1, 64, 0
4, 158640, Note_on_c, 1, 64, 127
4, 158672, Note_on_c, 1, 64, 0
4, 158700, Note_on_c, 1, 64, 108
4, 158729, Note_on_c, 1, 64, 0
4, 158760, Note_on_c, 1, 64, 93
4, 158791, Note_on_c, 1, 64, 0
4, 158820, Note_on_c, 1, 64, 108
4, 158850, Note_on_c, 1, 64, 0
4, 158880, Note_on_c, 1, 64, 117
4, 159096, Note_on_c, 1, 64, 0
4, 159360, Note_on_c, 1, 69, 66
4, 159394, Note_on_c, 1, 69, 0
4, 159420, Note_on_c, 1, 69, 89
4, 159453, Note_on_c, 1, 69, 0
4, 159480, Note_on_c, 1, 69, 81
4, 159512, Note_on_c, 1, 69, 0
4, 159540, Note_on_c, 1, 69, 89
4, 159572, Note_on_c, 1, 69, 0
4, 159600, Note_on_c, 1, 69, 77
4, 159610, Channel_aftertouch_c, 1, 3
4, 159620, Channel_aftertouch_c, 1, 1
4, 159632, Note_on_c, 1, 69, 0
4, 159660, Note_on_c, 1, 69, 96
4, 159691, Note_on_c, 1, 69, 0
4, 159720, Note_on_c, 1, 69, 77
4, 159750, Note_on_c, 1, 69, 0
4, 159780, Note_on_c, 1, 69, 84
4, 159815, Note_on_c, 1, 69, 0
4, 159840, Note_on_c, 1, 71, 93
4, 160056, Note_on_c, 1, 71, 0
4, 160080, Note_on_c, 1, 66, 105
4, 160296, Note_on_c, 1, 66, 0
4, 160320, Note_on_c, 1, 67, 96
4, 160536, Note_on_c, 1, 67, 0
4, 160560, Note_on_c, 1, 62, 89
4, 160776, Note_on_c, 1, 62, 0
4, 160800, Note_on_c, 1, 64, 93
4, 161016, Note_on_c, 1, 64, 0
4, 161040, Note_on_c, 1, 61, 111
4, 161086, Channel_aftertouch_c, 1, 6
4, 161096, Channel_aftertouch_c, 1, 3
4, 161108, Channel_aftertouch_c, 1, 1
4, 161111, Note_on_c, 1, 61, 0
4, 161160, Note_on_c, 1, 62, 111
4, 161237, Note_on_c, 1, 62, 0
4, 161280, Note_on_c, 1, 64, 79
4, 161356, Note_on_c, 1, 64, 0
4, 161400, Note_on_c, 1, 61, 111
4, 161430, Note_on_c, 1, 61, 0
4, 161460, Note_on_c, 1, 62, 89
4, 161494, Note_on_c, 1, 62, 0
4, 161520, Note_on_c, 1, 64, 89
4, 161577, Note_on_c, 1, 64, 0
4, 161640, Note_on_c, 1, 61, 93
4, 161671, Note_on_c, 1, 61, 0
4, 161700, Note_on_c, 1, 62, 89
4, 161731, Note_on_c, 1, 62, 0
4, 161760, Note_on_c, 1, 64, 77
4, 161976, Note_on_c, 1, 64, 0
4, 162120, Note_on_c, 1, 69, 111
4, 162190, Note_on_c, 1, 69, 0
4, 162240, Note_on_c, 1, 69, 111
4, 162327, Note_on_c, 1, 69, 0
4, 162360, Note_on_c, 1, 67, 102
4, 162391, Note_on_c, 1, 67, 0
4, 162420, Note_on_c, 1, 66, 111
4, 162460, Note_on_c, 1, 66, 0
4, 162480, Note_on_c, 1, 64, 108
4, 162561, Note_on_c, 1, 64, 0
4, 162600, Note_on_c, 1, 67, 108
4, 162683, Note_on_c, 1, 67, 0
4, 162720, Note_on_c, 1, 66, 99
4, 162936, Note_on_c, 1, 66, 0
4, 163320, Note_on_c, 1, 62, 79
4, 163351, Note_on_c, 1, 62, 0
4, 163380, Note_on_c, 1, 62, 64
4, 163417, Note_on_c, 1, 62, 0
4, 163440, Note_on_c, 1, 62, 77
4, 163474, Note_on_c, 1, 62, 0
4, 163500, Note_on_c, 1, 62, 79
4, 163542, Note_on_c, 1, 62, 0
4, 163560, Note_on_c, 1, 69, 79
4, 163596, Note_on_c, 1, 69, 0
4, 163620, Note_on_c, 1, 69, 84
4, 163654, Note_on_c, 1, 69, 0
4, 163680, Note_on_c, 1, 69, 117
4, 163896, Note_on_c, 1, 69, 0
4, 164760, Note_on_c, 1, 66, 86
4, 164792, Note_on_c, 1, 66, 0
4, 164820, Note_on_c, 1, 66, 84
4, 164862, Note_on_c, 1, 66, 0
4, 164880, Note_on_c, 1, 67, 84
4, 164913, Note_on_c, 1, 67, 0
4, 164940, Note_on_c, 1, 67, 102
4, 164976, Note_on_c, 1, 67, 0
4, 165000, Note_on_c, 1, 64, 84
4, 165034, Note_on_c, 1, 64, 0
4, 165060, Note_on_c, 1, 64, 66
4, 165098, Note_on_c, 1, 64, 0
4, 165120, Note_on_c, 1, 66, 84
4, 165166, Note_on_c, 1, 66, 0
4, 165240, Note_on_c, 1, 66, 125
4, 165472, Note_on_c, 1, 66, 0
4, 165480, Note_on_c, 1, 64, 86
4, 165576, Note_on_c, 1, 64, 0
4, 165600, Note_on_c, 1, 62, 111
4, 165640, Note_on_c, 1, 62, 0
4, 165660, Note_on_c, 1, 62, 79
4, 165707, Note_on_c, 1, 62, 0
4, 165720, Note_on_c, 1, 61, 81
4, 165757, Note_on_c, 1, 61, 0
4, 165780, Note_on_c, 1, 61, 105
4, 165824, Note_on_c, 1, 61, 0
4, 165840, Note_on_c, 1, 59, 89
4, 165879, Note_on_c, 1, 59, 0
4, 165900, Note_on_c, 1, 59, 86
4, 165940, Note_on_c, 1, 59, 0
4, 165960, Note_on_c, 1, 57, 108
4, 165997, Note_on_c, 1, 57, 0
4, 166020, Note_on_c, 1, 57, 86
4, 166055, Note_on_c, 1, 57, 0
4, 166080, Note_on_c, 1, 57, 120
4, 166163, Note_on_c, 1, 57, 0
4, 166187, Note_on_c, 1, 59, 89
4, 166281, Note_on_c, 1, 59, 0
4, 166311, Note_on_c, 1, 59, 74
4, 166431, Note_on_c, 1, 59, 0
4, 166438, Note_on_c, 1, 64, 79
4, 166521, Note_on_c, 1, 64, 0
4, 166549, Note_on_c, 1, 66, 93
4, 166774, Note_on_c, 1, 66, 0
4, 166774, End_track
5, 0, Start_track
5, 0, Title_t, "Continuo"
5, 0, Program_c, 10, 42
5, 0, Control_c, 10, 7, 127
5, 0, Note_on_c, 10, 38, 111
5, 113, Note_on_c, 10, 38, 0
5, 240, Note_on_c, 10, 26, 108
5, 250, Channel_aftertouch_c, 10, 18
5, 256, Channel_aftertouch_c, 10, 9
5, 268, Channel_aftertouch_c, 10, 4
5, 280, Channel_aftertouch_c, 10, 2
5, 287, Control_c, 10, 7, 101
5, 292, Channel_aftertouch_c, 10, 1
5, 353, Note_on_c, 10, 26, 0
5, 480, Note_on_c, 10, 38, 127
5, 593, Note_on_c, 10, 38, 0
5, 840, Note_on_c, 10, 26, 123
5, 902, Note_on_c, 10, 26, 0
5, 960, Note_on_c, 10, 38, 111
5, 1005, Note_on_c, 10, 38, 0
5, 1020, Note_on_c, 10, 40, 99
5, 1066, Note_on_c, 10, 40, 0
5, 1080, Note_on_c, 10, 42, 79
5, 1118, Note_on_c, 10, 42, 0
5, 1140, Note_on_c, 10, 40, 96
5, 1191, Note_on_c, 10, 40, 0
5, 1200, Note_on_c, 10, 38, 111
5, 1250, Note_on_c, 10, 38, 0
5, 1260, Note_on_c, 10, 40, 84
5, 1308, Note_on_c, 10, 40, 0
5, 1320, Note_on_c, 10, 42, 120
5, 1359, Note_on_c, 10, 42, 0
5, 1380, Note_on_c, 10, 40, 102
5, 1427, Note_on_c, 10, 40, 0
5, 1440, Note_on_c, 10, 38, 77
5, 1484, Note_on_c, 10, 38, 0
5, 1500, Note_on_c, 10, 40, 91
5, 1548, Note_on_c, 10, 40, 0
5, 1560, Note_on_c, 10, 42, 72
5, 1601, Control_c, 10, 7, 97
5, 1603, Note_on_c, 10, 42, 0
5, 1620, Note_on_c, 10, 40, 102
5, 1670, Note_on_c, 10, 40, 0
5, 1680, Note_on_c, 10, 38, 126
5, 1754, Note_on_c, 10, 38, 0
5, 1800, Note_on_c, 10, 37, 123
5, 1882, Note_on_c, 10, 37, 0
5, 1920, Note_on_c, 10, 35, 114
5, 2039, Control_c, 10, 7, 96
5, 2040, Note_on_c, 10, 37, 117
5, 2042, Note_on_c, 10, 35, 0
5, 2160, Note_on_c, 10, 37, 0
5, 2160, Note_on_c, 10, 38, 96
5, 2182, Control_c, 10, 7, 94
5, 2277, Note_on_c, 10, 38, 0
5, 2280, Note_on_c, 10, 26, 114
5, 2283, Channel_aftertouch_c, 10, 3
5, 2292, Channel_aftertouch_c, 10, 0
5, 2294, Channel_aftertouch_c, 10, 1
5, 2304, Channel_aftertouch_c, 10, 0
5, 2396, Channel_aftertouch_c, 10, 6
5, 2399, Channel_aftertouch_c, 10, 0
5, 2400, Note_on_c, 10, 33, 102
5, 2410, Note_on_c, 10, 26, 0
5, 2452, Control_c, 10, 7, 95
5, 2616, Note_on_c, 10, 33, 0
5, 2643, Control_c, 10, 7, 97
5, 2681, Control_c, 10, 7, 98
5, 2692, Control_c, 10, 7, 100
5, 2729, Control_c, 10, 7, 101
5, 2789, Control_c, 10, 7, 103
5, 2817, Control_c, 10, 7, 104
5, 2875, Channel_aftertouch_c, 10, 31
5, 2880, Note_on_c, 10, 30, 127
5, 2885, Channel_aftertouch_c, 10, 0
5, 2887, Channel_aftertouch_c, 10, 15
5, 2892, Control_c, 10, 7, 106
5, 2897, Channel_aftertouch_c, 10, 0
5, 2899, Channel_aftertouch_c, 10, 7
5, 2909, Channel_aftertouch_c, 10, 0
5, 2911, Channel_aftertouch_c, 10, 3
5, 2918, Channel_aftertouch_c, 10, 0
5, 2926, Note_on_c, 10, 30, 0
5, 2940, Note_on_c, 10, 31, 127
5, 2947, Channel_aftertouch_c, 10, 9
5, 2958, Channel_aftertouch_c, 10, 0
5, 2960, Channel_aftertouch_c, 10, 4
5, 2970, Channel_aftertouch_c, 10, 0
5, 2973, Channel_aftertouch_c, 10, 2
5, 2979, Channel_aftertouch_c, 10, 0
5, 2988, Note_on_c, 10, 31, 0
5, 3000, Note_on_c, 10, 33, 127
5, 3024, Control_c, 10, 7, 107
5, 3039, Note_on_c, 10, 33, 0
5, 3060, Note_on_c, 10, 35, 113
5, 3103, Channel_aftertouch_c, 10, 38
5, 3105, Note_on_c, 10, 35, 0
5, 3107, Channel_aftertouch_c, 10, 0
5, 3109, Channel_aftertouch_c, 10, 25
5, 3119, Channel_aftertouch_c, 10, 0
5, 3120, Note_on_c, 10, 37, 116
5, 3122, Channel_aftertouch_c, 10, 12
5, 3131, Channel_aftertouch_c, 10, 19
5, 3143, Channel_aftertouch_c, 10, 9
5, 3157, Channel_aftertouch_c, 10, 1
5, 3159, Channel_aftertouch_c, 10, 0
5, 3178, Note_on_c, 10, 37, 0
5, 3180, Note_on_c, 10, 38, 127
5, 3232, Note_on_c, 10, 38, 0
5, 3240, Note_on_c, 10, 40, 127
5, 3248, Channel_aftertouch_c, 10, 0
5, 3251, Channel_aftertouch_c, 10, 9
5, 3252, Channel_aftertouch_c, 10, 6
5, 3260, Channel_aftertouch_c, 10, 0
5, 3263, Channel_aftertouch_c, 10, 4
5, 3272, Channel_aftertouch_c, 10, 0
5, 3275, Channel_aftertouch_c, 10, 2
5, 3276, Channel_aftertouch_c, 10, 1
5, 3287, Channel_aftertouch_c, 10, 1
5, 3296, Note_on_c, 10, 40, 0
5, 3297, Channel_aftertouch_c, 10, 0
5, 3300, Note_on_c, 10, 42, 116
5, 3358, Note_on_c, 10, 42, 0
5, 3360, Note_on_c, 10, 35, 116
5, 3456, Control_c, 10, 7, 106
5, 3465, Control_c, 10, 7, 105
5, 3473, Note_on_c, 10, 35, 0
5, 3603, Control_c, 10, 7, 103
5, 3618, Control_c, 10, 7, 102
5, 3630, Control_c, 10, 7, 100
5, 3655, Control_c, 10, 7, 99
5, 3702, Control_c, 10, 7, 97
5, 3731, Control_c, 10, 7, 96
5, 3751, Control_c, 10, 7, 94
5, 3840, Note_on_c, 10, 28, 127
5, 3880, Control_c, 10, 7, 95
5, 3897, Note_on_c, 10, 28, 0
5, 3900, Note_on_c, 10, 30, 127
5, 3939, Control_c, 10, 7, 97
5, 3954, Note_on_c, 10, 30, 0
5, 3960, Note_on_c, 10, 31, 127
5, 4017, Control_c, 10, 7, 98
5, 4020, Note_on_c, 10, 33, 127
5, 4022, Note_on_c, 10, 31, 0
5, 4080, Note_on_c, 10, 35, 127
5, 4086, Note_on_c, 10, 33, 0
5, 4132, Note_on_c, 10, 35, 0
5, 4134, Control_c, 10, 7, 100
5, 4140, Note_on_c, 10, 37, 127
5, 4178, Control_c, 10, 7, 101
5, 4200, Note_on_c, 10, 38, 127
5, 4218, Note_on_c, 10, 37, 0
5, 4259, Note_on_c, 10, 38, 0
5, 4260, Note_on_c, 10, 40, 127
5, 4320, Note_on_c, 10, 33, 127
5, 4332, Note_on_c, 10, 40, 0
5, 4433, Note_on_c, 10, 33, 0
5, 4685, Control_c, 10, 7, 100
5, 4700, Control_c, 10, 7, 99
5, 4718, Control_c, 10, 7, 97
5, 4727, Control_c, 10, 7, 96
5, 4736, Control_c, 10, 7, 94
5, 4744, Control_c, 10, 7, 93
5, 4765, Control_c, 10, 7, 91
5, 4773, Control_c, 10, 7, 90
5, 4782, Control_c, 10, 7, 88
5, 4798, Control_c, 10, 7, 87
5, 4800, Note_on_c, 10, 26, 127
5, 4852, Note_on_c, 10, 26, 0
5, 4860, Note_on_c, 10, 28, 127
5, 4887, Control_c, 10, 7, 88
5, 4906, Control_c, 10, 7, 89
5, 4918, Note_on_c, 10, 28, 0
5, 4920, Note_on_c, 10, 30, 127
5, 4945, Control_c, 10, 7, 91
5, 4965, Control_c, 10, 7, 92
5, 4975, Note_on_c, 10, 30, 0
5, 4980, Note_on_c, 10, 31, 127
5, 4996, Control_c, 10, 7, 94
5, 5025, Control_c, 10, 7, 95
5, 5040, Note_on_c, 10, 33, 123
5, 5047, Note_on_c, 10, 31, 0
5, 5091, Control_c, 10, 7, 97
5, 5100, Note_on_c, 10, 35, 127
5, 5101, Note_on_c, 10, 33, 0
5, 5147, Note_on_c, 10, 35, 0
5, 5160, Note_on_c, 10, 37, 127
5, 5162, Control_c, 10, 7, 98
5, 5220, Note_on_c, 10, 38, 127
5, 5225, Note_on_c, 10, 37, 0
5, 5232, Channel_aftertouch_c, 10, 1
5, 5280, Note_on_c, 10, 38, 0
5, 5280, Note_on_c, 10, 35, 127
5, 5361, Note_on_c, 10, 35, 0
5, 5400, Note_on_c, 10, 47, 84
5, 5626, Note_on_c, 10, 47, 0
5, 5640, Note_on_c, 10, 45, 93
5, 5722, Note_on_c, 10, 45, 0
5, 5760, Note_on_c, 10, 43, 120
5, 5823, Note_on_c, 10, 43, 0
5, 5880, Note_on_c, 10, 31, 89
5, 5988, Control_c, 10, 7, 100
5, 6025, Control_c, 10, 7, 101
5, 6114, Note_on_c, 10, 31, 0
5, 6120, Note_on_c, 10, 30, 120
5, 6215, Note_on_c, 10, 30, 0
5, 6234, Control_c, 10, 7, 100
5, 6240, Note_on_c, 10, 28, 86
5, 6255, Control_c, 10, 7, 99
5, 6320, Note_on_c, 10, 28, 0
5, 6360, Note_on_c, 10, 40, 96
5, 6588, Note_on_c, 10, 40, 0
5, 6600, Note_on_c, 10, 38, 89
5, 6641, Control_c, 10, 7, 97
5, 6661, Control_c, 10, 7, 96
5, 6688, Control_c, 10, 7, 94
5, 6704, Note_on_c, 10, 38, 0
5, 6720, Note_on_c, 10, 37, 89
5, 6720, Control_c, 10, 7, 93
5, 7248, Note_on_c, 10, 37, 0
5, 7260, Note_on_c, 10, 38, 80
5, 7308, Note_on_c, 10, 38, 0
5, 7320, Note_on_c, 10, 40, 80
5, 7368, Note_on_c, 10, 40, 0
5, 7380, Note_on_c, 10, 37, 80
5, 7428, Note_on_c, 10, 37, 0
5, 7440, Note_on_c, 10, 33, 80
5, 7536, Note_on_c, 10, 33, 0
5, 7560, Note_on_c, 10, 37, 80
5, 7656, Note_on_c, 10, 37, 0
5, 7680, Note_on_c, 10, 38, 79
5, 7785, Note_on_c, 10, 38, 0
5, 7800, Note_on_c, 10, 42, 93
5, 7904, Note_on_c, 10, 42, 0
5, 7920, Note_on_c, 10, 43, 79
5, 8022, Note_on_c, 10, 43, 0
5, 8040, Note_on_c, 10, 45, 102
5, 8134, Note_on_c, 10, 45, 0
5, 8160, Note_on_c, 10, 47, 89
5, 8213, Control_c, 10, 7, 97
5, 8227, Control_c, 10, 7, 98
5, 8236, Control_c, 10, 7, 100
5, 8244, Control_c, 10, 7, 101
5, 8267, Note_on_c, 10, 47, 0
5, 8280, Note_on_c, 10, 42, 127
5, 8316, Note_on_c, 10, 42, 0
5, 8340, Note_on_c, 10, 42, 127
5, 8391, Note_on_c, 10, 42, 0
5, 8400, Note_on_c, 10, 43, 117
5, 8442, Note_on_c, 10, 43, 0
5, 8447, Control_c, 10, 7, 103
5, 8460, Note_on_c, 10, 43, 102
5, 8476, Control_c, 10, 7, 104
5, 8506, Note_on_c, 10, 43, 0
5, 8520, Note_on_c, 10, 45, 96
5, 8558, Note_on_c, 10, 45, 0
5, 8580, Note_on_c, 10, 45, 99
5, 8588, Control_c, 10, 7, 106
5, 8621, Note_on_c, 10, 45, 0
5, 8640, Note_on_c, 10, 47, 84
5, 8679, Note_on_c, 10, 47, 0
5, 8700, Note_on_c, 10, 47, 79
5, 8745, Note_on_c, 10, 47, 0
5, 8760, Note_on_c, 10, 42, 127
5, 8799, Note_on_c, 10, 42, 0
5, 8820, Note_on_c, 10, 42, 93
5, 8866, Note_on_c, 10, 42, 0
5, 8880, Note_on_c, 10, 43, 108
5, 8919, Note_on_c, 10, 43, 0
5, 8940, Note_on_c, 10, 43, 79
5, 8985, Note_on_c, 10, 43, 0
5, 8991, Control_c, 10, 7, 107
5, 9000, Note_on_c, 10, 45, 84
5, 9036, Note_on_c, 10, 45, 0
5, 9040, Control_c, 10, 7, 109
5, 9060, Note_on_c, 10, 45, 108
5, 9100, Note_on_c, 10, 45, 0
5, 9120, Note_on_c, 10, 47, 96
5, 9156, Note_on_c, 10, 47, 0
5, 9180, Note_on_c, 10, 47, 79
5, 9225, Note_on_c, 10, 47, 0
5, 9232, Control_c, 10, 7, 108
5, 9240, Note_on_c, 10, 45, 102
5, 9241, Control_c, 10, 7, 106
5, 9250, Control_c, 10, 7, 105
5, 9259, Control_c, 10, 7, 102
5, 9267, Control_c, 10, 7, 100
5, 9280, Note_on_c, 10, 45, 0
5, 9300, Note_on_c, 10, 45, 93
5, 9349, Note_on_c, 10, 45, 0
5, 9360, Note_on_c, 10, 47, 96
5, 9371, Control_c, 10, 7, 101
5, 9391, Control_c, 10, 7, 103
5, 9392, Note_on_c, 10, 47, 0
5, 9401, Control_c, 10, 7, 104
5, 9420, Note_on_c, 10, 47, 96
5, 9425, Control_c, 10, 7, 106
5, 9465, Note_on_c, 10, 47, 0
5, 9480, Note_on_c, 10, 49, 120
5, 9523, Note_on_c, 10, 49, 0
5, 9540, Note_on_c, 10, 49, 89
5, 9595, Note_on_c, 10, 49, 0
5, 9600, Note_on_c, 10, 50, 89
5, 9605, Control_c, 10, 7, 107
5, 9622, Control_c, 10, 7, 109
5, 9701, Note_on_c, 10, 50, 0
5, 9720, Note_on_c, 10, 47, 93
5, 9779, Control_c, 10, 7, 108
5, 9815, Note_on_c, 10, 47, 0
5, 9840, Note_on_c, 10, 43, 84
5, 9849, Control_c, 10, 7, 106
5, 9849, Channel_aftertouch_c, 10, 6
5, 9861, Channel_aftertouch_c, 10, 3
5, 9895, Control_c, 10, 7, 105
5, 9938, Note_on_c, 10, 43, 0
5, 9960, Note_on_c, 10, 45, 89
5, 10066, Note_on_c, 10, 45, 0
5, 10080, Note_on_c, 10, 38, 111
5, 10200, Control_c, 10, 7, 103
5, 10251, Control_c, 10, 7, 102
5, 10258, Note_on_c, 10, 38, 0
5, 10266, Control_c, 10, 7, 100
5, 10317, Control_c, 10, 7, 99
5, 10392, Control_c, 10, 7, 97
5, 10433, Control_c, 10, 7, 96
5, 10447, Control_c, 10, 7, 94
5, 10483, Control_c, 10, 7, 93
5, 13358, Control_c, 10, 7, 94
5, 13367, Control_c, 10, 7, 95
5, 13415, Control_c, 10, 7, 97
5, 13435, Control_c, 10, 7, 98
5, 13440, Note_on_c, 10, 38, 127
5, 13553, Note_on_c, 10, 38, 0
5, 13680, Note_on_c, 10, 26, 123
5, 13793, Note_on_c, 10, 26, 0
5, 13920, Note_on_c, 10, 38, 127
5, 14033, Note_on_c, 10, 38, 0
5, 14042, Channel_aftertouch_c, 10, 1
5, 14276, Note_on_c, 10, 26, 89
5, 14339, Note_on_c, 10, 26, 0
5, 14382, Control_c, 10, 7, 102
5, 14391, Control_c, 10, 7, 100
5, 14400, Note_on_c, 10, 38, 120
5, 14407, Control_c, 10, 7, 99
5, 14445, Note_on_c, 10, 38, 0
5, 14447, Control_c, 10, 7, 97
5, 14460, Note_on_c, 10, 40, 72
5, 14498, Control_c, 10, 7, 96
5, 14504, Note_on_c, 10, 40, 0
5, 14520, Note_on_c, 10, 42, 102
5, 14526, Control_c, 10, 7, 94
5, 14551, Control_c, 10, 7, 93
5, 14556, Note_on_c, 10, 42, 0
5, 14580, Note_on_c, 10, 40, 89
5, 14622, Note_on_c, 10, 40, 0
5, 14640, Note_on_c, 10, 38, 96
5, 14684, Note_on_c, 10, 38, 0
5, 14700, Note_on_c, 10, 40, 74
5, 14723, Control_c, 10, 7, 91
5, 14741, Note_on_c, 10, 40, 0
5, 14760, Note_on_c, 10, 42, 77
5, 14795, Note_on_c, 10, 42, 0
5, 14820, Note_on_c, 10, 40, 89
5, 14861, Note_on_c, 10, 40, 0
5, 14880, Note_on_c, 10, 38, 102
5, 14917, Note_on_c, 10, 38, 0
5, 14940, Note_on_c, 10, 40, 84
5, 14979, Note_on_c, 10, 40, 0
5, 15000, Note_on_c, 10, 42, 111
5, 15039, Note_on_c, 10, 42, 0
5, 15060, Note_on_c, 10, 40, 84
5, 15099, Note_on_c, 10, 40, 0
5, 15120, Note_on_c, 10, 38, 99
5, 15199, Note_on_c, 10, 38, 0
5, 15240, Note_on_c, 10, 37, 96
5, 15322, Note_on_c, 10, 37, 0
5, 15360, Note_on_c, 10, 35, 89
5, 15480, Note_on_c, 10, 37, 89
5, 15492, Note_on_c, 10, 35, 0
5, 15600, Note_on_c, 10, 37, 0
5, 15600, Note_on_c, 10, 38, 96
5, 15704, Note_on_c, 10, 38, 0
5, 15720, Note_on_c, 10, 26, 77
5, 15834, Note_on_c, 10, 26, 0
5, 15840, Note_on_c, 10, 33, 81
5, 15953, Note_on_c, 10, 33, 0
5, 18600, Note_on_c, 10, 33, 89
5, 18661, Note_on_c, 10, 33, 0
5, 18720, Note_on_c, 10, 45, 96
5, 18750, Control_c, 10, 7, 92
5, 18771, Note_on_c, 10, 45, 0
5, 18777, Control_c, 10, 7, 94
5, 18780, Note_on_c, 10, 47, 72
5, 18794, Control_c, 10, 7, 95
5, 18813, Control_c, 10, 7, 97
5, 18825, Note_on_c, 10, 47, 0
5, 18836, Control_c, 10, 7, 98
5, 18840, Note_on_c, 10, 49, 108
5, 18850, Control_c, 10, 7, 100
5, 18860, Control_c, 10, 7, 101
5, 18876, Note_on_c, 10, 49, 0
5, 18900, Note_on_c, 10, 47, 74
5, 18940, Note_on_c, 10, 47, 0
5, 18960, Note_on_c, 10, 45, 77
5, 18975, Control_c, 10, 7, 103
5, 19002, Note_on_c, 10, 45, 0
5, 19006, Control_c, 10, 7, 104
5, 19020, Note_on_c, 10, 47, 72
5, 19021, Control_c, 10, 7, 106
5, 19049, Control_c, 10, 7, 107
5, 19059, Note_on_c, 10, 47, 0
5, 19080, Note_on_c, 10, 49, 108
5, 19115, Note_on_c, 10, 49, 0
5, 19140, Note_on_c, 10, 47, 84
5, 19182, Note_on_c, 10, 47, 0
5, 19200, Note_on_c, 10, 45, 96
5, 19245, Note_on_c, 10, 45, 0
5, 19260, Note_on_c, 10, 47, 66
5, 19304, Note_on_c, 10, 47, 0
5, 19320, Note_on_c, 10, 49, 105
5, 19364, Note_on_c, 10, 49, 0
5, 19380, Note_on_c, 10, 47, 79
5, 19391, Control_c, 10, 7, 106
5, 19416, Control_c, 10, 7, 105
5, 19418, Note_on_c, 10, 47, 0
5, 19440, Note_on_c, 10, 45, 99
5, 19453, Control_c, 10, 7, 103
5, 19476, Control_c, 10, 7, 102
5, 19527, Note_on_c, 10, 45, 0
5, 19527, Control_c, 10, 7, 97
5, 19528, Control_c, 10, 7, 100
5, 19560, Note_on_c, 10, 33, 84
5, 19565, Control_c, 10, 7, 96
5, 19590, Control_c, 10, 7, 94
5, 19617, Control_c, 10, 7, 99
5, 19680, Note_on_c, 10, 33, 0
5, 21561, Control_c, 10, 7, 95
5, 21600, Note_on_c, 10, 45, 39
5, 21671, Control_c, 10, 7, 97
5, 21713, Note_on_c, 10, 45, 0
5, 21840, Note_on_c, 10, 44, 30
5, 21927, Control_c, 10, 7, 98
5, 21936, Control_c, 10, 7, 100
5, 21953, Note_on_c, 10, 44, 0
5, 22080, Note_on_c, 10, 42, 30
5, 22193, Note_on_c, 10, 42, 0
5, 22193, Control_c, 10, 7, 101
5, 22320, Note_on_c, 10, 35, 35
5, 22341, Control_c, 10, 7, 99
5, 22397, Control_c, 10, 7, 100
5, 22433, Note_on_c, 10, 35, 0
5, 22560, Note_on_c, 10, 40, 43
5, 22661, Control_c, 10, 7, 100
5, 22673, Note_on_c, 10, 40, 0
5, 22678, Control_c, 10, 7, 101
5, 23031, Control_c, 10, 7, 103
5, 23040, Note_on_c, 10, 37, 127
5, 23055, Channel_aftertouch_c, 10, 12
5, 23067, Channel_aftertouch_c, 10, 6
5, 23069, Note_on_c, 10, 37, 0
5, 23100, Note_on_c, 10, 38, 117
5, 23144, Note_on_c, 10, 38, 0
5, 23160, Note_on_c, 10, 40, 93
5, 23217, Note_on_c, 10, 40, 0
5, 23220, Note_on_c, 10, 42, 80
5, 23268, Note_on_c, 10, 42, 0
5, 23280, Note_on_c, 10, 44, 127
5, 23316, Note_on_c, 10, 44, 0
5, 23340, Note_on_c, 10, 45, 111
5, 23381, Note_on_c, 10, 45, 0
5, 23400, Note_on_c, 10, 47, 89
5, 23409, Channel_aftertouch_c, 10, 38
5, 23409, Control_c, 10, 7, 104
5, 23420, Channel_aftertouch_c, 10, 19
5, 23432, Channel_aftertouch_c, 10, 12
5, 23438, Note_on_c, 10, 47, 0
5, 23444, Channel_aftertouch_c, 10, 6
5, 23456, Channel_aftertouch_c, 10, 3
5, 23460, Note_on_c, 10, 49, 124
5, 23504, Control_c, 10, 7, 103
5, 23514, Note_on_c, 10, 49, 0
5, 23518, Control_c, 10, 7, 102
5, 23520, Note_on_c, 10, 42, 127
5, 23527, Control_c, 10, 7, 100
5, 23541, Control_c, 10, 7, 99
5, 23565, Control_c, 10, 7, 97
5, 23579, Control_c, 10, 7, 96
5, 23587, Control_c, 10, 7, 94
5, 23599, Control_c, 10, 7, 93
5, 23627, Control_c, 10, 7, 91
5, 23633, Note_on_c, 10, 42, 0
5, 23764, Control_c, 10, 7, 90
5, 23773, Control_c, 10, 7, 88
5, 23797, Control_c, 10, 7, 87
5, 23836, Control_c, 10, 7, 85
5, 23855, Control_c, 10, 7, 84
5, 24000, Note_on_c, 10, 35, 77
5, 24054, Channel_aftertouch_c, 10, 51
5, 24057, Note_on_c, 10, 35, 0
5, 24057, Channel_aftertouch_c, 10, 0
5, 24060, Note_on_c, 10, 37, 125
5, 24061, Channel_aftertouch_c, 10, 37
5, 24068, Control_c, 10, 7, 85
5, 24069, Channel_aftertouch_c, 10, 0
5, 24072, Channel_aftertouch_c, 10, 18
5, 24081, Channel_aftertouch_c, 10, 0
5, 24083, Channel_aftertouch_c, 10, 9
5, 24085, Channel_aftertouch_c, 10, 0
5, 24089, Control_c, 10, 7, 86
5, 24093, Note_on_c, 10, 37, 0
5, 24104, Control_c, 10, 7, 88
5, 24113, Control_c, 10, 7, 89
5, 24120, Note_on_c, 10, 38, 108
5, 24146, Control_c, 10, 7, 91
5, 24158, Control_c, 10, 7, 92
5, 24164, Note_on_c, 10, 38, 0
5, 24176, Control_c, 10, 7, 94
5, 24180, Note_on_c, 10, 40, 93
5, 24201, Control_c, 10, 7, 95
5, 24218, Note_on_c, 10, 40, 0
5, 24240, Note_on_c, 10, 42, 127
5, 24252, Control_c, 10, 7, 97
5, 24281, Note_on_c, 10, 42, 0
5, 24300, Note_on_c, 10, 44, 99
5, 24301, Control_c, 10, 7, 98
5, 24319, Control_c, 10, 7, 100
5, 24343, Note_on_c, 10, 44, 0
5, 24347, Control_c, 10, 7, 101
5, 24360, Note_on_c, 10, 45, 114
5, 24364, Channel_aftertouch_c, 10, 6
5, 24374, Channel_aftertouch_c, 10, 3
5, 24399, Control_c, 10, 7, 103
5, 24406, Note_on_c, 10, 45, 0
5, 24420, Note_on_c, 10, 47, 111
5, 24422, Control_c, 10, 7, 105
5, 24437, Control_c, 10, 7, 103
5, 24447, Control_c, 10, 7, 104
5, 24448, Control_c, 10, 7, 102
5, 24456, Control_c, 10, 7, 100
5, 24458, Control_c, 10, 7, 106
5, 24465, Control_c, 10, 7, 99
5, 24470, Note_on_c, 10, 47, 0
5, 24480, Note_on_c, 10, 40, 117
5, 24482, Control_c, 10, 7, 97
5, 24491, Control_c, 10, 7, 96
5, 24500, Control_c, 10, 7, 94
5, 24508, Control_c, 10, 7, 93
5, 24593, Note_on_c, 10, 40, 0
5, 24599, Control_c, 10, 7, 91
5, 24764, Control_c, 10, 7, 90
5, 24799, Control_c, 10, 7, 88
5, 24844, Control_c, 10, 7, 87
5, 24960, Note_on_c, 10, 33, 105
5, 25004, Note_on_c, 10, 33, 0
5, 25020, Note_on_c, 10, 35, 93
5, 25045, Control_c, 10, 7, 88
5, 25056, Control_c, 10, 7, 89
5, 25059, Note_on_c, 10, 35, 0
5, 25080, Note_on_c, 10, 37, 127
5, 25112, Control_c, 10, 7, 91
5, 25125, Note_on_c, 10, 37, 0
5, 25140, Note_on_c, 10, 38, 124
5, 25145, Control_c, 10, 7, 92
5, 25182, Note_on_c, 10, 38, 0
5, 25182, Control_c, 10, 7, 94
5, 25200, Note_on_c, 10, 40, 117
5, 25225, Control_c, 10, 7, 95
5, 25238, Note_on_c, 10, 40, 0
5, 25260, Note_on_c, 10, 42, 123
5, 25282, Control_c, 10, 7, 97
5, 25296, Note_on_c, 10, 42, 0
5, 25320, Note_on_c, 10, 44, 127
5, 25326, Control_c, 10, 7, 98
5, 25341, Control_c, 10, 7, 100
5, 25361, Note_on_c, 10, 44, 0
5, 25373, Control_c, 10, 7, 101
5, 25380, Note_on_c, 10, 45, 96
5, 25430, Note_on_c, 10, 45, 0
5, 25440, Note_on_c, 10, 42, 111
5, 25459, Control_c, 10, 7, 100
5, 25479, Control_c, 10, 7, 99
5, 25488, Control_c, 10, 7, 97
5, 25497, Control_c, 10, 7, 96
5, 25505, Control_c, 10, 7, 94
5, 25510, Note_on_c, 10, 42, 0
5, 25514, Control_c, 10, 7, 93
5, 25560, Note_on_c, 10, 30, 89
5, 25564, Control_c, 10, 7, 94
5, 25572, Control_c, 10, 7, 95
5, 25581, Control_c, 10, 7, 97
5, 25590, Control_c, 10, 7, 98
5, 25599, Control_c, 10, 7, 100
5, 25610, Control_c, 10, 7, 101
5, 25761, Note_on_c, 10, 30, 0
5, 25780, Control_c, 10, 7, 100
5, 25800, Note_on_c, 10, 28, 77
5, 25810, Control_c, 10, 7, 99
5, 25892, Note_on_c, 10, 28, 0
5, 25920, Note_on_c, 10, 26, 96
5, 25995, Note_on_c, 10, 26, 0
5, 26040, Note_on_c, 10, 38, 84
5, 26040, Control_c, 10, 7, 97
5, 26053, Control_c, 10, 7, 96
5, 26179, Control_c, 10, 7, 94
5, 26272, Note_on_c, 10, 38, 0
5, 26280, Note_on_c, 10, 37, 89
5, 26378, Note_on_c, 10, 37, 0
5, 26388, Control_c, 10, 7, 93
5, 26400, Note_on_c, 10, 35, 89
5, 26490, Note_on_c, 10, 35, 0
5, 26520, Note_on_c, 10, 47, 96
5, 26598, Control_c, 10, 7, 91
5, 26633, Control_c, 10, 7, 90
5, 26729, Note_on_c, 10, 47, 0
5, 26760, Note_on_c, 10, 45, 89
5, 26844, Note_on_c, 10, 45, 0
5, 26880, Note_on_c, 10, 44, 61
5, 26880, Control_c, 10, 7, 88
5, 27312, Note_on_c, 10, 44, 0
5, 27539, Control_c, 10, 7, 87
5, 27683, Note_on_c, 10, 40, 77
5, 27724, Control_c, 10, 7, 88
5, 27731, Control_c, 10, 7, 89
5, 27762, Control_c, 10, 7, 91
5, 27787, Note_on_c, 10, 40, 0
5, 27789, Control_c, 10, 7, 92
5, 27803, Note_on_c, 10, 42, 105
5, 27840, Note_on_c, 10, 45, 81
5, 27913, Note_on_c, 10, 42, 0
5, 27938, Note_on_c, 10, 45, 0
5, 27960, Note_on_c, 10, 37, 127
5, 27963, Control_c, 10, 7, 95
5, 27964, Channel_aftertouch_c, 10, 44
5, 27972, Channel_aftertouch_c, 10, 0
5, 27974, Channel_aftertouch_c, 10, 22
5, 27984, Channel_aftertouch_c, 10, 0
5, 27986, Channel_aftertouch_c, 10, 11
5, 27995, Channel_aftertouch_c, 10, 0
5, 27999, Channel_aftertouch_c, 10, 5
5, 28003, Channel_aftertouch_c, 10, 0
5, 28004, Note_on_c, 10, 37, 0
5, 28020, Note_on_c, 10, 37, 111
5, 28032, Channel_aftertouch_c, 10, 3
5, 28042, Channel_aftertouch_c, 10, 0
5, 28044, Channel_aftertouch_c, 10, 1
5, 28054, Channel_aftertouch_c, 10, 0
5, 28069, Note_on_c, 10, 37, 0
5, 28080, Note_on_c, 10, 38, 120
5, 28087, Control_c, 10, 7, 97
5, 28091, Channel_aftertouch_c, 10, 12
5, 28101, Channel_aftertouch_c, 10, 0
5, 28103, Channel_aftertouch_c, 10, 6
5, 28113, Channel_aftertouch_c, 10, 0
5, 28115, Channel_aftertouch_c, 10, 3
5, 28120, Note_on_c, 10, 38, 0
5, 28125, Channel_aftertouch_c, 10, 0
5, 28140, Note_on_c, 10, 38, 111
5, 28149, Channel_aftertouch_c, 10, 12
5, 28159, Channel_aftertouch_c, 10, 0
5, 28161, Channel_aftertouch_c, 10, 9
5, 28170, Channel_aftertouch_c, 10, 0
5, 28173, Channel_aftertouch_c, 10, 4
5, 28183, Channel_aftertouch_c, 10, 0
5, 28185, Channel_aftertouch_c, 10, 2
5, 28186, Note_on_c, 10, 38, 0
5, 28189, Channel_aftertouch_c, 10, 0
5, 28200, Note_on_c, 10, 40, 126
5, 28233, Note_on_c, 10, 40, 0
5, 28240, Control_c, 10, 7, 96
5, 28260, Note_on_c, 10, 40, 93
5, 28262, Channel_aftertouch_c, 10, 1
5, 28262, Control_c, 10, 7, 94
5, 28275, Control_c, 10, 7, 93
5, 28309, Note_on_c, 10, 40, 0
5, 28320, Note_on_c, 10, 33, 105
5, 28433, Note_on_c, 10, 33, 0
5, 28920, Note_on_c, 10, 37, 58
5, 28924, Control_c, 10, 7, 94
5, 28933, Control_c, 10, 7, 95
5, 28958, Note_on_c, 10, 37, 0
5, 28980, Note_on_c, 10, 37, 84
5, 28995, Channel_aftertouch_c, 10, 3
5, 29007, Channel_aftertouch_c, 10, 1
5, 29028, Note_on_c, 10, 37, 0
5, 29040, Note_on_c, 10, 38, 69
5, 29076, Note_on_c, 10, 38, 0
5, 29100, Note_on_c, 10, 38, 77
5, 29145, Note_on_c, 10, 38, 0
5, 29160, Note_on_c, 10, 40, 89
5, 29204, Note_on_c, 10, 40, 0
5, 29220, Note_on_c, 10, 40, 77
5, 29266, Note_on_c, 10, 40, 0
5, 29280, Note_on_c, 10, 33, 114
5, 29393, Note_on_c, 10, 33, 0
5, 29985, Control_c, 10, 7, 94
5, 30015, Control_c, 10, 7, 93
5, 30840, Note_on_c, 10, 37, 96
5, 30862, Control_c, 10, 7, 94
5, 30871, Control_c, 10, 7, 95
5, 30879, Note_on_c, 10, 37, 0
5, 30900, Note_on_c, 10, 37, 127
5, 30948, Note_on_c, 10, 37, 0
5, 30960, Note_on_c, 10, 38, 74
5, 30996, Note_on_c, 10, 38, 0
5, 31020, Note_on_c, 10, 38, 96
5, 31070, Note_on_c, 10, 38, 0
5, 31080, Note_on_c, 10, 40, 96
5, 31111, Note_on_c, 10, 40, 0
5, 31140, Note_on_c, 10, 40, 72
5, 31186, Note_on_c, 10, 40, 0
5, 31200, Note_on_c, 10, 42, 91
5, 31238, Note_on_c, 10, 42, 0
5, 31260, Note_on_c, 10, 42, 89
5, 31307, Note_on_c, 10, 42, 0
5, 31320, Note_on_c, 10, 40, 77
5, 31362, Note_on_c, 10, 40, 0
5, 31380, Note_on_c, 10, 40, 66
5, 31432, Note_on_c, 10, 40, 0
5, 31440, Note_on_c, 10, 42, 84
5, 31481, Note_on_c, 10, 42, 0
5, 31500, Note_on_c, 10, 42, 93
5, 31512, Control_c, 10, 7, 94
5, 31539, Note_on_c, 10, 42, 0
5, 31560, Note_on_c, 10, 44, 102
5, 31597, Note_on_c, 10, 44, 0
5, 31620, Note_on_c, 10, 44, 81
5, 31623, Control_c, 10, 7, 95
5, 31657, Control_c, 10, 7, 97
5, 31675, Note_on_c, 10, 44, 0
5, 31680, Note_on_c, 10, 45, 69
5, 31773, Note_on_c, 10, 45, 0
5, 31800, Note_on_c, 10, 42, 74
5, 31860, Control_c, 10, 7, 96
5, 31879, Control_c, 10, 7, 94
5, 31898, Note_on_c, 10, 42, 0
5, 31920, Note_on_c, 10, 38, 96
5, 31923, Control_c, 10, 7, 93
5, 32020, Note_on_c, 10, 38, 0
5, 32040, Note_on_c, 10, 40, 84
5, 32110, Control_c, 10, 7, 91
5, 32134, Note_on_c, 10, 40, 0
5, 32160, Note_on_c, 10, 33, 99
5, 32273, Note_on_c, 10, 33, 0
5, 32479, Control_c, 10, 7, 92
5, 32487, Control_c, 10, 7, 94
5, 32496, Control_c, 10, 7, 95
5, 32524, Control_c, 10, 7, 97
5, 32537, Control_c, 10, 7, 98
5, 32555, Control_c, 10, 7, 100
5, 32603, Control_c, 10, 7, 101
5, 32640, Note_on_c, 10, 38, 79
5, 32753, Note_on_c, 10, 38, 0
5, 32880, Note_on_c, 10, 26, 93
5, 32993, Note_on_c, 10, 26, 0
5, 33120, Note_on_c, 10, 38, 127
5, 33233, Note_on_c, 10, 38, 0
5, 33568, Control_c, 10, 7, 100
5, 33600, Control_c, 10, 7, 99
5, 33632, Control_c, 10, 7, 97
5, 33666, Control_c, 10, 7, 96
5, 33688, Control_c, 10, 7, 94
5, 33714, Control_c, 10, 7, 93
5, 35880, Note_on_c, 10, 26, 111
5, 35936, Note_on_c, 10, 26, 0
5, 35956, Control_c, 10, 7, 91
5, 35965, Control_c, 10, 7, 90
5, 36000, Note_on_c, 10, 38, 111
5, 36047, Note_on_c, 10, 38, 0
5, 36060, Note_on_c, 10, 40, 72
5, 36102, Note_on_c, 10, 40, 0
5, 36120, Note_on_c, 10, 42, 81
5, 36156, Note_on_c, 10, 42, 0
5, 36180, Note_on_c, 10, 40, 81
5, 36220, Note_on_c, 10, 40, 0
5, 36240, Note_on_c, 10, 38, 108
5, 36281, Note_on_c, 10, 38, 0
5, 36300, Note_on_c, 10, 40, 99
5, 36339, Note_on_c, 10, 40, 0
5, 36360, Note_on_c, 10, 42, 124
5, 36395, Note_on_c, 10, 42, 0
5, 36420, Note_on_c, 10, 40, 84
5, 36466, Note_on_c, 10, 40, 0
5, 36480, Note_on_c, 10, 38, 89
5, 36519, Note_on_c, 10, 38, 0
5, 36540, Note_on_c, 10, 40, 74
5, 36584, Note_on_c, 10, 40, 0
5, 36600, Note_on_c, 10, 42, 86
5, 36641, Note_on_c, 10, 42, 0
5, 36660, Note_on_c, 10, 40, 79
5, 36704, Note_on_c, 10, 40, 0
5, 36720, Note_on_c, 10, 38, 96
5, 36799, Note_on_c, 10, 38, 0
5, 36840, Note_on_c, 10, 26, 93
5, 36951, Note_on_c, 10, 26, 0
5, 37930, Control_c, 10, 7, 88
5, 37977, Control_c, 10, 7, 87
5, 38880, Note_on_c, 10, 38, 58
5, 38957, Control_c, 10, 7, 88
5, 38968, Control_c, 10, 7, 89
5, 39096, Note_on_c, 10, 38, 0
5, 39120, Note_on_c, 10, 37, 61
5, 39336, Note_on_c, 10, 37, 0
5, 39360, Note_on_c, 10, 35, 51
5, 39576, Note_on_c, 10, 35, 0
5, 39600, Note_on_c, 10, 40, 51
5, 39816, Note_on_c, 10, 40, 0
5, 39840, Note_on_c, 10, 33, 58
5, 39925, Control_c, 10, 7, 91
5, 39955, Control_c, 10, 7, 92
5, 40272, Note_on_c, 10, 33, 0
5, 40320, Note_on_c, 10, 30, 127
5, 40343, Control_c, 10, 7, 94
5, 40370, Note_on_c, 10, 30, 0
5, 40380, Note_on_c, 10, 31, 108
5, 40425, Note_on_c, 10, 31, 0
5, 40440, Note_on_c, 10, 33, 102
5, 40500, Note_on_c, 10, 35, 89
5, 40501, Note_on_c, 10, 33, 0
5, 40507, Control_c, 10, 7, 95
5, 40546, Note_on_c, 10, 35, 0
5, 40560, Note_on_c, 10, 37, 80
5, 40608, Note_on_c, 10, 37, 0
5, 40620, Note_on_c, 10, 38, 111
5, 40641, Channel_aftertouch_c, 10, 0
5, 40641, Channel_aftertouch_c, 10, 11
5, 40659, Note_on_c, 10, 38, 0
5, 40680, Note_on_c, 10, 40, 111
5, 40690, Channel_aftertouch_c, 10, 12
5, 40693, Channel_aftertouch_c, 10, 3
5, 40702, Channel_aftertouch_c, 10, 6
5, 40704, Channel_aftertouch_c, 10, 17
5, 40715, Channel_aftertouch_c, 10, 8
5, 40722, Note_on_c, 10, 40, 0
5, 40727, Channel_aftertouch_c, 10, 4
5, 40739, Channel_aftertouch_c, 10, 2
5, 40740, Note_on_c, 10, 42, 127
5, 40748, Channel_aftertouch_c, 10, 15
5, 40759, Channel_aftertouch_c, 10, 7
5, 40798, Control_c, 10, 7, 94
5, 40800, Note_on_c, 10, 42, 0
5, 40800, Note_on_c, 10, 35, 120
5, 40809, Control_c, 10, 7, 93
5, 40837, Control_c, 10, 7, 91
5, 40860, Control_c, 10, 7, 90
5, 40901, Control_c, 10, 7, 88
5, 41016, Note_on_c, 10, 35, 0
5, 41052, Control_c, 10, 7, 87
5, 41280, Note_on_c, 10, 28, 114
5, 41298, Control_c, 10, 7, 81
5, 41306, Control_c, 10, 7, 79
5, 41340, Note_on_c, 10, 30, 105
5, 41342, Note_on_c, 10, 28, 0
5, 41381, Note_on_c, 10, 30, 0
5, 41400, Note_on_c, 10, 31, 127
5, 41404, Control_c, 10, 7, 80
5, 41425, Control_c, 10, 7, 82
5, 41441, Control_c, 10, 7, 83
5, 41448, Note_on_c, 10, 31, 0
5, 41460, Note_on_c, 10, 33, 127
5, 41467, Control_c, 10, 7, 85
5, 41481, Control_c, 10, 7, 86
5, 41490, Control_c, 10, 7, 88
5, 41498, Control_c, 10, 7, 89
5, 41504, Note_on_c, 10, 33, 0
5, 41520, Note_on_c, 10, 35, 127
5, 41524, Control_c, 10, 7, 91
5, 41548, Control_c, 10, 7, 92
5, 41567, Note_on_c, 10, 35, 0
5, 41576, Control_c, 10, 7, 94
5, 41580, Note_on_c, 10, 37, 127
5, 41604, Control_c, 10, 7, 95
5, 41637, Note_on_c, 10, 37, 0
5, 41640, Note_on_c, 10, 38, 99
5, 41646, Control_c, 10, 7, 101
5, 41648, Channel_aftertouch_c, 10, 25
5, 41657, Control_c, 10, 7, 97
5, 41659, Channel_aftertouch_c, 10, 12
5, 41671, Channel_aftertouch_c, 10, 6
5, 41678, Note_on_c, 10, 38, 0
5, 41682, Channel_aftertouch_c, 10, 3
5, 41694, Channel_aftertouch_c, 10, 1
5, 41700, Note_on_c, 10, 40, 126
5, 41721, Control_c, 10, 7, 100
5, 41721, Control_c, 10, 7, 98
5, 41730, Control_c, 10, 7, 99
5, 41738, Control_c, 10, 7, 97
5, 41747, Note_on_c, 10, 40, 0
5, 41747, Control_c, 10, 7, 96
5, 41747, Control_c, 10, 7, 100
5, 41755, Control_c, 10, 7, 94
5, 41760, Note_on_c, 10, 33, 126
5, 41764, Control_c, 10, 7, 93
5, 41774, Control_c, 10, 7, 91
5, 41783, Control_c, 10, 7, 90
5, 41794, Control_c, 10, 7, 88
5, 41811, Control_c, 10, 7, 87
5, 41829, Control_c, 10, 7, 85
5, 41840, Control_c, 10, 7, 84
5, 41857, Control_c, 10, 7, 82
5, 41873, Control_c, 10, 7, 81
5, 41976, Note_on_c, 10, 33, 0
5, 42019, Control_c, 10, 7, 79
5, 42028, Control_c, 10, 7, 78
5, 42039, Control_c, 10, 7, 76
5, 42080, Control_c, 10, 7, 75
5, 42122, Control_c, 10, 7, 73
5, 42212, Control_c, 10, 7, 72
5, 42240, Note_on_c, 10, 26, 111
5, 42294, Note_on_c, 10, 26, 0
5, 42300, Note_on_c, 10, 28, 124
5, 42326, Control_c, 10, 7, 73
5, 42336, Control_c, 10, 7, 74
5, 42344, Control_c, 10, 7, 76
5, 42348, Note_on_c, 10, 28, 0
5, 42353, Control_c, 10, 7, 77
5, 42360, Note_on_c, 10, 30, 126
5, 42378, Control_c, 10, 7, 79
5, 42386, Control_c, 10, 7, 80
5, 42399, Control_c, 10, 7, 82
5, 42405, Note_on_c, 10, 30, 0
5, 42410, Control_c, 10, 7, 83
5, 42420, Note_on_c, 10, 31, 102
5, 42438, Control_c, 10, 7, 85
5, 42457, Control_c, 10, 7, 86
5, 42461, Note_on_c, 10, 31, 0
5, 42480, Note_on_c, 10, 33, 125
5, 42494, Control_c, 10, 7, 88
5, 42521, Control_c, 10, 7, 89
5, 42528, Note_on_c, 10, 33, 0
5, 42540, Note_on_c, 10, 35, 117
5, 42575, Note_on_c, 10, 35, 0
5, 42581, Control_c, 10, 7, 91
5, 42600, Note_on_c, 10, 37, 120
5, 42618, Control_c, 10, 7, 92
5, 42640, Note_on_c, 10, 37, 0
5, 42660, Note_on_c, 10, 38, 102
5, 42708, Control_c, 10, 7, 91
5, 42711, Note_on_c, 10, 38, 0
5, 42717, Control_c, 10, 7, 88
5, 42720, Note_on_c, 10, 35, 127
5, 42726, Control_c, 10, 7, 87
5, 42731, Channel_aftertouch_c, 10, 1
5, 42755, Control_c, 10, 7, 85
5, 42792, Note_on_c, 10, 35, 0
5, 42826, Control_c, 10, 7, 86
5, 42835, Control_c, 10, 7, 89
5, 42840, Note_on_c, 10, 47, 89
5, 42843, Control_c, 10, 7, 91
5, 42852, Control_c, 10, 7, 92
5, 42869, Control_c, 10, 7, 94
5, 43078, Note_on_c, 10, 47, 0
5, 43080, Note_on_c, 10, 45, 86
5, 43090, Control_c, 10, 7, 93
5, 43101, Control_c, 10, 7, 91
5, 43165, Note_on_c, 10, 45, 0
5, 43177, Control_c, 10, 7, 90
5, 43189, Control_c, 10, 7, 88
5, 43200, Note_on_c, 10, 43, 89
5, 43217, Control_c, 10, 7, 87
5, 43262, Note_on_c, 10, 43, 0
5, 43320, Note_on_c, 10, 31, 89
5, 43430, Control_c, 10, 7, 85
5, 43549, Note_on_c, 10, 31, 0
5, 43560, Note_on_c, 10, 30, 99
5, 43645, Note_on_c, 10, 30, 0
5, 43680, Note_on_c, 10, 28, 89
5, 43690, Control_c, 10, 7, 84
5, 43758, Note_on_c, 10, 28, 0
5, 43800, Note_on_c, 10, 40, 89
5, 43806, Control_c, 10, 7, 85
5, 43815, Control_c, 10, 7, 86
5, 43824, Control_c, 10, 7, 88
5, 44003, Control_c, 10, 7, 87
5, 44027, Control_c, 10, 7, 85
5, 44033, Note_on_c, 10, 40, 0
5, 44040, Note_on_c, 10, 38, 79
5, 44124, Note_on_c, 10, 38, 0
5, 44160, Note_on_c, 10, 37, 66
5, 44160, Control_c, 10, 7, 84
5, 44592, Note_on_c, 10, 37, 0
5, 44854, Control_c, 10, 7, 82
5, 44984, Note_on_c, 10, 35, 69
5, 45090, Note_on_c, 10, 35, 0
5, 45104, Note_on_c, 10, 37, 84
5, 45120, Note_on_c, 10, 38, 66
5, 45210, Note_on_c, 10, 37, 0
5, 45221, Note_on_c, 10, 38, 0
5, 45240, Note_on_c, 10, 30, 127
5, 45284, Note_on_c, 10, 30, 0
5, 45300, Note_on_c, 10, 30, 111
5, 45300, Channel_aftertouch_c, 10, 6
5, 45309, Channel_aftertouch_c, 10, 0
5, 45312, Channel_aftertouch_c, 10, 3
5, 45321, Channel_aftertouch_c, 10, 0
5, 45324, Channel_aftertouch_c, 10, 1
5, 45326, Control_c, 10, 7, 85
5, 45333, Channel_aftertouch_c, 10, 0
5, 45344, Control_c, 10, 7, 84
5, 45346, Note_on_c, 10, 30, 0
5, 45360, Note_on_c, 10, 31, 89
5, 45394, Control_c, 10, 7, 82
5, 45399, Note_on_c, 10, 31, 0
5, 45420, Note_on_c, 10, 31, 117
5, 45462, Note_on_c, 10, 31, 0
5, 45480, Note_on_c, 10, 33, 111
5, 45497, Control_c, 10, 7, 85
5, 45512, Note_on_c, 10, 33, 0
5, 45540, Note_on_c, 10, 33, 89
5, 45544, Control_c, 10, 7, 83
5, 45590, Note_on_c, 10, 33, 0
5, 45600, Note_on_c, 10, 26, 125
5, 45816, Note_on_c, 10, 26, 0
5, 46073, Control_c, 10, 7, 86
5, 46084, Control_c, 10, 7, 88
5, 46093, Control_c, 10, 7, 89
5, 46200, Note_on_c, 10, 30, 77
5, 46236, Note_on_c, 10, 30, 0
5, 46260, Note_on_c, 10, 30, 58
5, 46305, Note_on_c, 10, 30, 0
5, 46320, Note_on_c, 10, 31, 79
5, 46350, Note_on_c, 10, 31, 0
5, 46364, Control_c, 10, 7, 91
5, 46380, Note_on_c, 10, 31, 74
5, 46393, Control_c, 10, 7, 92
5, 46425, Note_on_c, 10, 31, 0
5, 46440, Note_on_c, 10, 33, 69
5, 46442, Control_c, 10, 7, 94
5, 46472, Note_on_c, 10, 33, 0
5, 46500, Note_on_c, 10, 33, 55
5, 46520, Control_c, 10, 7, 95
5, 46548, Note_on_c, 10, 33, 0
5, 46560, Note_on_c, 10, 26, 72
5, 46776, Note_on_c, 10, 26, 0
5, 47474, Control_c, 10, 7, 94
5, 47487, Control_c, 10, 7, 93
5, 47514, Control_c, 10, 7, 91
5, 47525, Control_c, 10, 7, 90
5, 47540, Control_c, 10, 7, 88
5, 47555, Control_c, 10, 7, 87
5, 47704, Control_c, 10, 7, 85
5, 47722, Control_c, 10, 7, 84
5, 48120, Note_on_c, 10, 30, 127
5, 48155, Note_on_c, 10, 30, 0
5, 48180, Note_on_c, 10, 30, 126
5, 48222, Note_on_c, 10, 30, 0
5, 48240, Note_on_c, 10, 31, 102
5, 48275, Note_on_c, 10, 31, 0
5, 48300, Note_on_c, 10, 31, 102
5, 48340, Note_on_c, 10, 31, 0
5, 48345, Control_c, 10, 7, 79
5, 48360, Note_on_c, 10, 33, 99
5, 48362, Control_c, 10, 7, 78
5, 48374, Control_c, 10, 7, 76
5, 48390, Note_on_c, 10, 33, 0
5, 48420, Note_on_c, 10, 33, 99
5, 48431, Control_c, 10, 7, 75
5, 48459, Note_on_c, 10, 33, 0
5, 48480, Note_on_c, 10, 35, 96
5, 48482, Control_c, 10, 7, 73
5, 48522, Note_on_c, 10, 35, 0
5, 48540, Note_on_c, 10, 35, 102
5, 48576, Note_on_c, 10, 35, 0
5, 48600, Note_on_c, 10, 33, 127
5, 48635, Note_on_c, 10, 33, 0
5, 48660, Note_on_c, 10, 33, 89
5, 48698, Control_c, 10, 7, 74
5, 48701, Note_on_c, 10, 33, 0
5, 48717, Control_c, 10, 7, 76
5, 48720, Note_on_c, 10, 35, 127
5, 48728, Control_c, 10, 7, 77
5, 48746, Note_on_c, 10, 35, 0
5, 48763, Control_c, 10, 7, 79
5, 48778, Control_c, 10, 7, 80
5, 48780, Note_on_c, 10, 35, 108
5, 48813, Control_c, 10, 7, 82
5, 48818, Note_on_c, 10, 35, 0
5, 48840, Note_on_c, 10, 37, 117
5, 48842, Control_c, 10, 7, 83
5, 48865, Control_c, 10, 7, 85
5, 48875, Note_on_c, 10, 37, 0
5, 48900, Note_on_c, 10, 37, 127
5, 48943, Note_on_c, 10, 37, 0
5, 48960, Note_on_c, 10, 38, 126
5, 49047, Note_on_c, 10, 38, 0
5, 49080, Note_on_c, 10, 35, 123
5, 49168, Note_on_c, 10, 35, 0
5, 49188, Control_c, 10, 7, 86
5, 49200, Note_on_c, 10, 31, 117
5, 49210, Control_c, 10, 7, 88
5, 49290, Note_on_c, 10, 31, 0
5, 49320, Note_on_c, 10, 33, 89
5, 49343, Control_c, 10, 7, 89
5, 49408, Note_on_c, 10, 33, 0
5, 49440, Note_on_c, 10, 26, 124
5, 49551, Note_on_c, 10, 26, 0
5, 49560, Note_on_c, 10, 42, 89
5, 49594, Note_on_c, 10, 42, 0
5, 49620, Note_on_c, 10, 40, 77
5, 49660, Note_on_c, 10, 40, 0
5, 49667, Control_c, 10, 7, 88
5, 49680, Note_on_c, 10, 38, 93
5, 49686, Control_c, 10, 7, 87
5, 49714, Control_c, 10, 7, 85
5, 49734, Control_c, 10, 7, 84
5, 49754, Control_c, 10, 7, 82
5, 49772, Note_on_c, 10, 38, 0
5, 49773, Control_c, 10, 7, 81
5, 49800, Note_on_c, 10, 37, 64
5, 49804, Control_c, 10, 7, 79
5, 49813, Control_c, 10, 7, 78
5, 49838, Control_c, 10, 7, 76
5, 49857, Control_c, 10, 7, 75
5, 49877, Control_c, 10, 7, 73
5, 49898, Control_c, 10, 7, 72
5, 49900, Note_on_c, 10, 37, 0
5, 49920, Note_on_c, 10, 35, 89
5, 49920, Control_c, 10, 7, 70
5, 50136, Note_on_c, 10, 35, 0
5, 50880, Note_on_c, 10, 33, 86
5, 51096, Note_on_c, 10, 33, 0
5, 51518, Control_c, 10, 7, 69
5, 51555, Control_c, 10, 7, 67
5, 51840, Note_on_c, 10, 31, 102
5, 52056, Note_on_c, 10, 31, 0
5, 52800, Note_on_c, 10, 30, 93
5, 53016, Note_on_c, 10, 30, 0
5, 53760, Note_on_c, 10, 47, 77
5, 53976, Note_on_c, 10, 47, 0
5, 54000, Note_on_c, 10, 45, 79
5, 54216, Note_on_c, 10, 45, 0
5, 54240, Note_on_c, 10, 44, 77
5, 54456, Note_on_c, 10, 44, 0
5, 54480, Note_on_c, 10, 42, 69
5, 54499, Control_c, 10, 7, 68
5, 54531, Control_c, 10, 7, 70
5, 54557, Control_c, 10, 7, 71
5, 54696, Note_on_c, 10, 42, 0
5, 54720, Note_on_c, 10, 41, 66
5, 54720, Control_c, 10, 7, 73
5, 54766, Control_c, 10, 7, 74
5, 54808, Control_c, 10, 7, 76
5, 54936, Note_on_c, 10, 41, 0
5, 55016, Note_on_c, 10, 37, 77
5, 55232, Note_on_c, 10, 37, 0
5, 55256, Note_on_c, 10, 42, 72
5, 55284, Control_c, 10, 7, 75
5, 55328, Control_c, 10, 7, 73
5, 55472, Note_on_c, 10, 42, 0
5, 55496, Note_on_c, 10, 30, 72
5, 55500, Control_c, 10, 7, 72
5, 55527, Control_c, 10, 7, 70
5, 55561, Control_c, 10, 7, 69
5, 55680, Note_on_c, 10, 42, 89
5, 55687, Control_c, 10, 7, 67
5, 55700, Control_c, 10, 7, 66
5, 55712, Note_on_c, 10, 30, 0
5, 55724, Control_c, 10, 7, 64
5, 55755, Control_c, 10, 7, 63
5, 55896, Note_on_c, 10, 42, 0
5, 55920, Note_on_c, 10, 43, 79
5, 56136, Note_on_c, 10, 43, 0
5, 56160, Note_on_c, 10, 42, 74
5, 56376, Note_on_c, 10, 42, 0
5, 56400, Note_on_c, 10, 40, 74
5, 56472, Control_c, 10, 7, 64
5, 56485, Control_c, 10, 7, 65
5, 56616, Note_on_c, 10, 40, 0
5, 56640, Note_on_c, 10, 39, 72
5, 56856, Note_on_c, 10, 39, 0
5, 56880, Note_on_c, 10, 35, 72
5, 57096, Note_on_c, 10, 35, 0
5, 57120, Note_on_c, 10, 40, 79
5, 57336, Note_on_c, 10, 40, 0
5, 57360, Note_on_c, 10, 28, 72
5, 57576, Note_on_c, 10, 28, 0
5, 57600, Note_on_c, 10, 40, 72
5, 57816, Note_on_c, 10, 40, 0
5, 57840, Note_on_c, 10, 42, 69
5, 58056, Note_on_c, 10, 42, 0
5, 58080, Note_on_c, 10, 40, 72
5, 58296, Note_on_c, 10, 40, 0
5, 58320, Note_on_c, 10, 38, 96
5, 58536, Note_on_c, 10, 38, 0
5, 58560, Note_on_c, 10, 37, 77
5, 58776, Note_on_c, 10, 37, 0
5, 58800, Note_on_c, 10, 38, 89
5, 59016, Note_on_c, 10, 38, 0
5, 59040, Note_on_c, 10, 37, 86
5, 59256, Note_on_c, 10, 37, 0
5, 59280, Note_on_c, 10, 35, 61
5, 59496, Note_on_c, 10, 35, 0
5, 59520, Note_on_c, 10, 34, 72
5, 59736, Note_on_c, 10, 34, 0
5, 59760, Note_on_c, 10, 37, 61
5, 59976, Note_on_c, 10, 37, 0
5, 60000, Note_on_c, 10, 34, 81
5, 60216, Note_on_c, 10, 34, 0
5, 60240, Note_on_c, 10, 30, 81
5, 60456, Note_on_c, 10, 30, 0
5, 60480, Note_on_c, 10, 35, 66
5, 60696, Note_on_c, 10, 35, 0
5, 60720, Note_on_c, 10, 37, 66
5, 60936, Note_on_c, 10, 37, 0
5, 60960, Note_on_c, 10, 38, 74
5, 61176, Note_on_c, 10, 38, 0
5, 61200, Note_on_c, 10, 40, 72
5, 61416, Note_on_c, 10, 40, 0
5, 61440, Note_on_c, 10, 42, 55
5, 61656, Note_on_c, 10, 42, 0
5, 61680, Note_on_c, 10, 35, 64
5, 61896, Note_on_c, 10, 35, 0
5, 61920, Note_on_c, 10, 40, 69
5, 62136, Note_on_c, 10, 40, 0
5, 62160, Note_on_c, 10, 43, 66
5, 62376, Note_on_c, 10, 43, 0
5, 62400, Note_on_c, 10, 45, 77
5, 62616, Note_on_c, 10, 45, 0
5, 62640, Note_on_c, 10, 33, 66
5, 62856, Note_on_c, 10, 33, 0
5, 62880, Note_on_c, 10, 38, 84
5, 63096, Note_on_c, 10, 38, 0
5, 63120, Note_on_c, 10, 42, 102
5, 63336, Note_on_c, 10, 42, 0
5, 63360, Note_on_c, 10, 43, 77
5, 63576, Note_on_c, 10, 43, 0
5, 63600, Note_on_c, 10, 42, 105
5, 63816, Note_on_c, 10, 42, 0
5, 63840, Note_on_c, 10, 43, 81
5, 64056, Note_on_c, 10, 43, 0
5, 64080, Note_on_c, 10, 40, 79
5, 64296, Note_on_c, 10, 40, 0
5, 64320, Note_on_c, 10, 42, 81
5, 64536, Note_on_c, 10, 42, 0
5, 64560, Note_on_c, 10, 30, 64
5, 64585, Control_c, 10, 7, 64
5, 64659, Control_c, 10, 7, 65
5, 64776, Note_on_c, 10, 30, 0
5, 64800, Note_on_c, 10, 30, 86
5, 64803, Control_c, 10, 7, 67
5, 64819, Control_c, 10, 7, 73
5, 64829, Control_c, 10, 7, 68
5, 64846, Control_c, 10, 7, 70
5, 64878, Control_c, 10, 7, 74
5, 64884, Control_c, 10, 7, 71
5, 65016, Note_on_c, 10, 30, 0
5, 65040, Note_on_c, 10, 42, 105
5, 65256, Note_on_c, 10, 42, 0
5, 65280, Note_on_c, 10, 42, 127
5, 65280, Control_c, 10, 7, 76
5, 65315, Control_c, 10, 7, 77
5, 65496, Note_on_c, 10, 42, 0
5, 65613, Note_on_c, 10, 30, 99
5, 65618, Control_c, 10, 7, 79
5, 65627, Control_c, 10, 7, 86
5, 65651, Control_c, 10, 7, 80
5, 65654, Control_c, 10, 7, 88
5, 65683, Control_c, 10, 7, 82
5, 65701, Control_c, 10, 7, 89
5, 65702, Control_c, 10, 7, 83
5, 65726, Control_c, 10, 7, 85
5, 65829, Note_on_c, 10, 30, 0
5, 65853, Note_on_c, 10, 30, 117
5, 65877, Control_c, 10, 7, 91
5, 65896, Control_c, 10, 7, 92
5, 65925, Control_c, 10, 7, 94
5, 65955, Control_c, 10, 7, 95
5, 66069, Note_on_c, 10, 30, 0
5, 66093, Note_on_c, 10, 42, 127
5, 66139, Control_c, 10, 7, 97
5, 66201, Note_on_c, 10, 42, 0
5, 66240, Note_on_c, 10, 47, 124
5, 66456, Note_on_c, 10, 47, 0
5, 66480, Note_on_c, 10, 35, 108
5, 66538, Control_c, 10, 7, 98
5, 66556, Control_c, 10, 7, 100
5, 66571, Control_c, 10, 7, 101
5, 66696, Note_on_c, 10, 35, 0
5, 66720, Note_on_c, 10, 47, 111
5, 66936, Note_on_c, 10, 47, 0
5, 67080, Note_on_c, 10, 35, 84
5, 67150, Note_on_c, 10, 35, 0
5, 67200, Note_on_c, 10, 47, 91
5, 67235, Note_on_c, 10, 47, 0
5, 67260, Note_on_c, 10, 49, 86
5, 67311, Note_on_c, 10, 49, 0
5, 67315, Control_c, 10, 7, 103
5, 67320, Note_on_c, 10, 50, 111
5, 67328, Control_c, 10, 7, 104
5, 67336, Control_c, 10, 7, 106
5, 67345, Control_c, 10, 7, 107
5, 67353, Control_c, 10, 7, 109
5, 67362, Note_on_c, 10, 50, 0
5, 67380, Note_on_c, 10, 49, 127
5, 67418, Note_on_c, 10, 49, 0
5, 67440, Note_on_c, 10, 47, 117
5, 67452, Control_c, 10, 7, 108
5, 67461, Control_c, 10, 7, 106
5, 67488, Note_on_c, 10, 47, 0
5, 67500, Note_on_c, 10, 49, 93
5, 67536, Control_c, 10, 7, 105
5, 67540, Note_on_c, 10, 49, 0
5, 67547, Control_c, 10, 7, 103
5, 67560, Note_on_c, 10, 50, 111
5, 67600, Note_on_c, 10, 50, 0
5, 67620, Note_on_c, 10, 49, 127
5, 67662, Note_on_c, 10, 49, 0
5, 67680, Note_on_c, 10, 47, 81
5, 67723, Note_on_c, 10, 47, 0
5, 67740, Note_on_c, 10, 49, 89
5, 67785, Note_on_c, 10, 49, 0
5, 67800, Note_on_c, 10, 50, 111
5, 67843, Note_on_c, 10, 50, 0
5, 67855, Control_c, 10, 7, 102
5, 67860, Note_on_c, 10, 49, 117
5, 67886, Control_c, 10, 7, 100
5, 67908, Note_on_c, 10, 49, 0
5, 67920, Note_on_c, 10, 47, 114
5, 68001, Note_on_c, 10, 47, 0
5, 68034, Control_c, 10, 7, 99
5, 68040, Note_on_c, 10, 35, 105
5, 68131, Note_on_c, 10, 35, 0
5, 68160, Note_on_c, 10, 40, 123
5, 68160, Control_c, 10, 7, 97
5, 68181, Control_c, 10, 7, 96
5, 68376, Note_on_c, 10, 40, 0
5, 68494, Control_c, 10, 7, 94
5, 68540, Control_c, 10, 7, 93
5, 68705, Control_c, 10, 7, 91
5, 68756, Control_c, 10, 7, 90
5, 69114, Control_c, 10, 7, 91
5, 69120, Note_on_c, 10, 45, 127
5, 69141, Control_c, 10, 7, 100
5, 69214, Control_c, 10, 7, 97
5, 69231, Control_c, 10, 7, 98
5, 69336, Note_on_c, 10, 45, 0
5, 69360, Note_on_c, 10, 33, 126
5, 69462, Control_c, 10, 7, 101
5, 69576, Note_on_c, 10, 33, 0
5, 69600, Note_on_c, 10, 45, 123
5, 69816, Note_on_c, 10, 45, 0
5, 69960, Note_on_c, 10, 33, 108
5, 70006, Note_on_c, 10, 33, 0
5, 70024, Control_c, 10, 7, 100
5, 70080, Note_on_c, 10, 45, 84
5, 70081, Control_c, 10, 7, 99
5, 70119, Note_on_c, 10, 45, 0
5, 70140, Note_on_c, 10, 47, 89
5, 70179, Note_on_c, 10, 47, 0
5, 70200, Note_on_c, 10, 49, 89
5, 70230, Note_on_c, 10, 49, 0
5, 70260, Note_on_c, 10, 47, 89
5, 70275, Control_c, 10, 7, 100
5, 70293, Note_on_c, 10, 47, 0
5, 70317, Control_c, 10, 7, 101
5, 70320, Note_on_c, 10, 45, 96
5, 70352, Note_on_c, 10, 45, 0
5, 70380, Note_on_c, 10, 47, 66
5, 70411, Note_on_c, 10, 47, 0
5, 70427, Control_c, 10, 7, 103
5, 70440, Note_on_c, 10, 49, 72
5, 70467, Note_on_c, 10, 49, 0
5, 70500, Note_on_c, 10, 47, 89
5, 70509, Control_c, 10, 7, 104
5, 70532, Note_on_c, 10, 47, 0
5, 70543, Control_c, 10, 7, 106
5, 70560, Note_on_c, 10, 45, 79
5, 70593, Note_on_c, 10, 45, 0
5, 70620, Note_on_c, 10, 47, 69
5, 70655, Note_on_c, 10, 47, 0
5, 70680, Note_on_c, 10, 49, 91
5, 70717, Note_on_c, 10, 49, 0
5, 70740, Note_on_c, 10, 47, 79
5, 70749, Control_c, 10, 7, 105
5, 70771, Note_on_c, 10, 47, 0
5, 70800, Note_on_c, 10, 45, 79
5, 70853, Control_c, 10, 7, 103
5, 70885, Note_on_c, 10, 45, 0
5, 70910, Control_c, 10, 7, 102
5, 70920, Note_on_c, 10, 33, 89
5, 70945, Control_c, 10, 7, 100
5, 71009, Note_on_c, 10, 33, 0
5, 71040, Note_on_c, 10, 38, 89
5, 71040, Control_c, 10, 7, 99
5, 71131, Control_c, 10, 7, 97
5, 71256, Note_on_c, 10, 38, 0
5, 71284, Control_c, 10, 7, 96
5, 71338, Control_c, 10, 7, 94
5, 71363, Control_c, 10, 7, 93
5, 71972, Control_c, 10, 7, 91
5, 72000, Note_on_c, 10, 43, 102
5, 72008, Control_c, 10, 7, 92
5, 72054, Control_c, 10, 7, 94
5, 72216, Note_on_c, 10, 43, 0
5, 72240, Note_on_c, 10, 31, 117
5, 72312, Control_c, 10, 7, 95
5, 72456, Note_on_c, 10, 31, 0
5, 72480, Note_on_c, 10, 43, 127
5, 72696, Note_on_c, 10, 43, 0
5, 72787, Control_c, 10, 7, 94
5, 72809, Control_c, 10, 7, 93
5, 72840, Note_on_c, 10, 43, 108
5, 72894, Note_on_c, 10, 43, 0
5, 72960, Note_on_c, 10, 31, 102
5, 72961, Control_c, 10, 7, 91
5, 72995, Note_on_c, 10, 31, 0
5, 73002, Control_c, 10, 7, 90
5, 73020, Note_on_c, 10, 33, 84
5, 73055, Note_on_c, 10, 33, 0
5, 73080, Note_on_c, 10, 35, 77
5, 73113, Note_on_c, 10, 35, 0
5, 73140, Note_on_c, 10, 33, 79
5, 73173, Note_on_c, 10, 33, 0
5, 73200, Note_on_c, 10, 31, 89
5, 73233, Note_on_c, 10, 31, 0
5, 73260, Note_on_c, 10, 33, 84
5, 73289, Note_on_c, 10, 33, 0
5, 73320, Note_on_c, 10, 35, 89
5, 73349, Note_on_c, 10, 35, 0
5, 73380, Note_on_c, 10, 33, 89
5, 73383, Control_c, 10, 7, 91
5, 73412, Note_on_c, 10, 33, 0
5, 73419, Control_c, 10, 7, 92
5, 73431, Control_c, 10, 7, 94
5, 73440, Note_on_c, 10, 31, 99
5, 73472, Note_on_c, 10, 31, 0
5, 73500, Note_on_c, 10, 33, 84
5, 73531, Note_on_c, 10, 33, 0
5, 73560, Note_on_c, 10, 35, 84
5, 73589, Note_on_c, 10, 35, 0
5, 73620, Note_on_c, 10, 33, 66
5, 73661, Note_on_c, 10, 33, 0
5, 73680, Note_on_c, 10, 31, 102
5, 73726, Control_c, 10, 7, 93
5, 73761, Note_on_c, 10, 31, 0
5, 73800, Note_on_c, 10, 43, 89
5, 73851, Control_c, 10, 7, 91
5, 73882, Control_c, 10, 7, 90
5, 73897, Note_on_c, 10, 43, 0
5, 73920, Note_on_c, 10, 40, 96
5, 74008, Note_on_c, 10, 40, 0
5, 74040, Note_on_c, 10, 42, 117
5, 74115, Note_on_c, 10, 42, 0
5, 74160, Note_on_c, 10, 43, 99
5, 74247, Note_on_c, 10, 43, 0
5, 74280, Note_on_c, 10, 31, 96
5, 74370, Note_on_c, 10, 31, 0
5, 74400, Note_on_c, 10, 38, 108
5, 74498, Control_c, 10, 7, 88
5, 74616, Note_on_c, 10, 38, 0
5, 74642, Control_c, 10, 7, 87
5, 74722, Control_c, 10, 7, 85
5, 74739, Control_c, 10, 7, 84
5, 74747, Control_c, 10, 7, 82
5, 74764, Control_c, 10, 7, 81
5, 74804, Control_c, 10, 7, 79
5, 74813, Control_c, 10, 7, 76
5, 74822, Control_c, 10, 7, 75
5, 74880, Note_on_c, 10, 35, 125
5, 74916, Note_on_c, 10, 35, 0
5, 74940, Note_on_c, 10, 36, 99
5, 74961, Control_c, 10, 7, 76
5, 74970, Control_c, 10, 7, 77
5, 74978, Note_on_c, 10, 36, 0
5, 75000, Note_on_c, 10, 38, 125
5, 75013, Control_c, 10, 7, 79
5, 75024, Control_c, 10, 7, 80
5, 75035, Control_c, 10, 7, 82
5, 75042, Note_on_c, 10, 38, 0
5, 75053, Control_c, 10, 7, 83
5, 75060, Note_on_c, 10, 40, 127
5, 75077, Control_c, 10, 7, 85
5, 75096, Note_on_c, 10, 40, 0
5, 75097, Control_c, 10, 7, 86
5, 75106, Control_c, 10, 7, 88
5, 75115, Control_c, 10, 7, 89
5, 75120, Note_on_c, 10, 42, 127
5, 75152, Control_c, 10, 7, 91
5, 75166, Note_on_c, 10, 42, 0
5, 75168, Control_c, 10, 7, 92
5, 75180, Note_on_c, 10, 43, 105
5, 75199, Control_c, 10, 7, 94
5, 75219, Note_on_c, 10, 43, 0
5, 75223, Control_c, 10, 7, 95
5, 75240, Note_on_c, 10, 45, 93
5, 75249, Channel_aftertouch_c, 10, 22
5, 75257, Channel_aftertouch_c, 10, 11
5, 75265, Control_c, 10, 7, 97
5, 75266, Channel_aftertouch_c, 10, 5
5, 75274, Note_on_c, 10, 45, 0
5, 75291, Control_c, 10, 7, 98
5, 75300, Note_on_c, 10, 47, 102
5, 75304, Channel_aftertouch_c, 10, 6
5, 75309, Control_c, 10, 7, 100
5, 75314, Channel_aftertouch_c, 10, 3
5, 75317, Control_c, 10, 7, 99
5, 75346, Note_on_c, 10, 47, 0
5, 75349, Control_c, 10, 7, 101
5, 75360, Note_on_c, 10, 40, 127
5, 75365, Control_c, 10, 7, 97
5, 75379, Control_c, 10, 7, 96
5, 75392, Control_c, 10, 7, 94
5, 75417, Control_c, 10, 7, 93
5, 75447, Control_c, 10, 7, 91
5, 75464, Control_c, 10, 7, 90
5, 75472, Control_c, 10, 7, 88
5, 75576, Note_on_c, 10, 40, 0
5, 75608, Control_c, 10, 7, 87
5, 75631, Control_c, 10, 7, 85
5, 75644, Control_c, 10, 7, 84
5, 75662, Control_c, 10, 7, 82
5, 75671, Control_c, 10, 7, 81
5, 75693, Control_c, 10, 7, 79
5, 75704, Control_c, 10, 7, 78
5, 75721, Control_c, 10, 7, 76
5, 75742, Control_c, 10, 7, 75
5, 75772, Control_c, 10, 7, 73
5, 75840, Note_on_c, 10, 33, 102
5, 75849, Channel_aftertouch_c, 10, 15
5, 75860, Channel_aftertouch_c, 10, 7
5, 75883, Note_on_c, 10, 33, 0
5, 75900, Note_on_c, 10, 35, 91
5, 75941, Note_on_c, 10, 35, 0
5, 75960, Note_on_c, 10, 36, 102
5, 75962, Control_c, 10, 7, 74
5, 75976, Control_c, 10, 7, 76
5, 75987, Control_c, 10, 7, 77
5, 76006, Note_on_c, 10, 36, 0
5, 76009, Control_c, 10, 7, 79
5, 76019, Control_c, 10, 7, 80
5, 76020, Note_on_c, 10, 38, 127
5, 76036, Control_c, 10, 7, 82
5, 76053, Control_c, 10, 7, 83
5, 76055, Note_on_c, 10, 38, 0
5, 76080, Note_on_c, 10, 40, 125
5, 76083, Control_c, 10, 7, 85
5, 76103, Control_c, 10, 7, 86
5, 76115, Note_on_c, 10, 40, 0
5, 76116, Control_c, 10, 7, 88
5, 76125, Control_c, 10, 7, 89
5, 76140, Note_on_c, 10, 42, 127
5, 76167, Control_c, 10, 7, 91
5, 76185, Note_on_c, 10, 42, 0
5, 76185, Control_c, 10, 7, 92
5, 76200, Note_on_c, 10, 43, 127
5, 76205, Channel_aftertouch_c, 10, 0
5, 76206, Channel_aftertouch_c, 10, 25
5, 76215, Control_c, 10, 7, 94
5, 76216, Channel_aftertouch_c, 10, 12
5, 76227, Channel_aftertouch_c, 10, 6
5, 76237, Control_c, 10, 7, 95
5, 76238, Channel_aftertouch_c, 10, 3
5, 76246, Note_on_c, 10, 43, 0
5, 76249, Channel_aftertouch_c, 10, 1
5, 76260, Note_on_c, 10, 45, 127
5, 76285, Control_c, 10, 7, 97
5, 76298, Control_c, 10, 7, 98
5, 76299, Note_on_c, 10, 45, 0
5, 76307, Control_c, 10, 7, 100
5, 76316, Control_c, 10, 7, 99
5, 76320, Note_on_c, 10, 38, 126
5, 76325, Control_c, 10, 7, 97
5, 76333, Control_c, 10, 7, 96
5, 76342, Control_c, 10, 7, 94
5, 76350, Control_c, 10, 7, 93
5, 76359, Control_c, 10, 7, 91
5, 76367, Control_c, 10, 7, 90
5, 76376, Control_c, 10, 7, 88
5, 76385, Control_c, 10, 7, 87
5, 76406, Control_c, 10, 7, 85
5, 76423, Control_c, 10, 7, 84
5, 76536, Note_on_c, 10, 38, 0
5, 76561, Control_c, 10, 7, 82
5, 76586, Control_c, 10, 7, 81
5, 76649, Control_c, 10, 7, 79
5, 76696, Control_c, 10, 7, 78
5, 76706, Control_c, 10, 7, 76
5, 76742, Control_c, 10, 7, 75
5, 76800, Note_on_c, 10, 31, 127
5, 76840, Note_on_c, 10, 31, 0
5, 76860, Note_on_c, 10, 33, 102
5, 76902, Note_on_c, 10, 33, 0
5, 76916, Control_c, 10, 7, 76
5, 76920, Note_on_c, 10, 35, 124
5, 76928, Control_c, 10, 7, 77
5, 76955, Control_c, 10, 7, 79
5, 76963, Note_on_c, 10, 35, 0
5, 76965, Control_c, 10, 7, 80
5, 76977, Control_c, 10, 7, 82
5, 76980, Note_on_c, 10, 36, 124
5, 76989, Control_c, 10, 7, 83
5, 77015, Note_on_c, 10, 36, 0
5, 77025, Control_c, 10, 7, 85
5, 77040, Note_on_c, 10, 38, 102
5, 77044, Control_c, 10, 7, 86
5, 77060, Control_c, 10, 7, 88
5, 77071, Control_c, 10, 7, 89
5, 77080, Note_on_c, 10, 38, 0
5, 77097, Control_c, 10, 7, 91
5, 77100, Note_on_c, 10, 40, 126
5, 77128, Control_c, 10, 7, 92
5, 77132, Note_on_c, 10, 40, 0
5, 77148, Control_c, 10, 7, 94
5, 77160, Note_on_c, 10, 42, 108
5, 77183, Control_c, 10, 7, 95
5, 77209, Note_on_c, 10, 42, 0
5, 77220, Note_on_c, 10, 43, 111
5, 77250, Note_on_c, 10, 43, 0
5, 77260, Control_c, 10, 7, 94
5, 77268, Control_c, 10, 7, 93
5, 77280, Note_on_c, 10, 40, 127
5, 77292, Control_c, 10, 7, 91
5, 77341, Note_on_c, 10, 40, 0
5, 77388, Control_c, 10, 7, 92
5, 77396, Control_c, 10, 7, 94
5, 77400, Note_on_c, 10, 28, 124
5, 77405, Control_c, 10, 7, 95
5, 77622, Note_on_c, 10, 28, 0
5, 77634, Control_c, 10, 7, 94
5, 77640, Note_on_c, 10, 26, 114
5, 77649, Control_c, 10, 7, 93
5, 77673, Control_c, 10, 7, 91
5, 77683, Control_c, 10, 7, 90
5, 77734, Note_on_c, 10, 26, 0
5, 77742, Control_c, 10, 7, 88
5, 77760, Note_on_c, 10, 24, 102
5, 77790, Control_c, 10, 7, 87
5, 77862, Note_on_c, 10, 24, 0
5, 77880, Note_on_c, 10, 33, 89
5, 77947, Control_c, 10, 7, 85
5, 77982, Note_on_c, 10, 33, 0
5, 78000, Note_on_c, 10, 35, 111
5, 78093, Note_on_c, 10, 35, 0
5, 78120, Note_on_c, 10, 36, 105
5, 78187, Control_c, 10, 7, 84
5, 78216, Note_on_c, 10, 36, 0
5, 78240, Note_on_c, 10, 38, 127
5, 78456, Note_on_c, 10, 38, 0
5, 80160, Note_on_c, 10, 31, 89
5, 80376, Note_on_c, 10, 31, 0
5, 80400, Note_on_c, 10, 35, 79
5, 80616, Note_on_c, 10, 35, 0
5, 80640, Note_on_c, 10, 38, 89
5, 80856, Note_on_c, 10, 38, 0
5, 81000, Note_on_c, 10, 35, 72
5, 81043, Note_on_c, 10, 35, 0
5, 81060, Note_on_c, 10, 36, 86
5, 81115, Note_on_c, 10, 36, 0
5, 81120, Note_on_c, 10, 38, 108
5, 81198, Note_on_c, 10, 38, 0
5, 81240, Note_on_c, 10, 35, 74
5, 81279, Note_on_c, 10, 35, 0
5, 81300, Note_on_c, 10, 36, 84
5, 81341, Note_on_c, 10, 36, 0
5, 81360, Note_on_c, 10, 38, 84
5, 81443, Note_on_c, 10, 38, 0
5, 81480, Note_on_c, 10, 43, 55
5, 81532, Control_c, 10, 7, 82
5, 81589, Note_on_c, 10, 43, 0
5, 81600, Note_on_c, 10, 38, 64
5, 81678, Note_on_c, 10, 38, 0
5, 81720, Note_on_c, 10, 38, 89
5, 81768, Note_on_c, 10, 38, 0
5, 81777, Control_c, 10, 7, 81
5, 81780, Note_on_c, 10, 36, 72
5, 81832, Note_on_c, 10, 36, 0
5, 81840, Note_on_c, 10, 35, 74
5, 81955, Note_on_c, 10, 35, 0
5, 81960, Note_on_c, 10, 33, 79
5, 82008, Note_on_c, 10, 33, 0
5, 82020, Note_on_c, 10, 31, 89
5, 82080, Note_on_c, 10, 32, 96
5, 82086, Note_on_c, 10, 31, 0
5, 82296, Note_on_c, 10, 32, 0
5, 84000, Note_on_c, 10, 33, 58
5, 84216, Note_on_c, 10, 33, 0
5, 84240, Note_on_c, 10, 36, 84
5, 84456, Note_on_c, 10, 36, 0
5, 84480, Note_on_c, 10, 40, 72
5, 84696, Note_on_c, 10, 40, 0
5, 84840, Note_on_c, 10, 36, 72
5, 84886, Note_on_c, 10, 36, 0
5, 84900, Note_on_c, 10, 38, 79
5, 84948, Note_on_c, 10, 38, 0
5, 84960, Note_on_c, 10, 40, 66
5, 85032, Note_on_c, 10, 40, 0
5, 85080, Note_on_c, 10, 36, 72
5, 85124, Note_on_c, 10, 36, 0
5, 85140, Note_on_c, 10, 38, 66
5, 85188, Note_on_c, 10, 38, 0
5, 85200, Note_on_c, 10, 40, 64
5, 85286, Note_on_c, 10, 40, 0
5, 85320, Note_on_c, 10, 45, 58
5, 85401, Note_on_c, 10, 45, 0
5, 85440, Note_on_c, 10, 40, 84
5, 85521, Note_on_c, 10, 40, 0
5, 85560, Note_on_c, 10, 40, 79
5, 85610, Note_on_c, 10, 40, 0
5, 85620, Note_on_c, 10, 38, 55
5, 85667, Note_on_c, 10, 38, 0
5, 85680, Note_on_c, 10, 36, 58
5, 85784, Note_on_c, 10, 36, 0
5, 85800, Note_on_c, 10, 35, 64
5, 85848, Note_on_c, 10, 35, 0
5, 85860, Note_on_c, 10, 33, 74
5, 85903, Note_on_c, 10, 33, 0
5, 85920, Note_on_c, 10, 39, 93
5, 86136, Note_on_c, 10, 39, 0
5, 87472, Control_c, 10, 7, 82
5, 87513, Control_c, 10, 7, 83
5, 87720, Note_on_c, 10, 39, 127
5, 87723, Control_c, 10, 7, 82
5, 87742, Control_c, 10, 7, 81
5, 87796, Control_c, 10, 7, 79
5, 87809, Note_on_c, 10, 39, 0
5, 87840, Note_on_c, 10, 40, 127
5, 87932, Note_on_c, 10, 40, 0
5, 87960, Note_on_c, 10, 36, 127
5, 88060, Note_on_c, 10, 36, 0
5, 88080, Note_on_c, 10, 33, 127
5, 88142, Control_c, 10, 7, 80
5, 88189, Note_on_c, 10, 33, 0
5, 88200, Note_on_c, 10, 35, 111
5, 88292, Note_on_c, 10, 35, 0
5, 88320, Note_on_c, 10, 31, 69
5, 88433, Note_on_c, 10, 31, 0
5, 88440, Note_on_c, 10, 32, 39
5, 88560, Note_on_c, 10, 32, 0
5, 89640, Note_on_c, 10, 35, 127
5, 89724, Note_on_c, 10, 35, 0
5, 89760, Note_on_c, 10, 40, 127
5, 89847, Note_on_c, 10, 40, 0
5, 89868, Channel_aftertouch_c, 10, 18
5, 89877, Channel_aftertouch_c, 10, 0
5, 89879, Channel_aftertouch_c, 10, 15
5, 89880, Note_on_c, 10, 36, 127
5, 89887, Channel_aftertouch_c, 10, 0
5, 89890, Channel_aftertouch_c, 10, 7
5, 89898, Channel_aftertouch_c, 10, 0
5, 89900, Channel_aftertouch_c, 10, 3
5, 89908, Channel_aftertouch_c, 10, 0
5, 89911, Channel_aftertouch_c, 10, 1
5, 89919, Channel_aftertouch_c, 10, 0
5, 89977, Note_on_c, 10, 36, 0
5, 89987, Control_c, 10, 7, 79
5, 90000, Note_on_c, 10, 33, 108
5, 90001, Control_c, 10, 7, 80
5, 90010, Control_c, 10, 7, 82
5, 90018, Control_c, 10, 7, 83
5, 90033, Control_c, 10, 7, 85
5, 90046, Control_c, 10, 7, 86
5, 90063, Control_c, 10, 7, 88
5, 90080, Control_c, 10, 7, 89
5, 90104, Note_on_c, 10, 33, 0
5, 90105, Control_c, 10, 7, 91
5, 90114, Control_c, 10, 7, 92
5, 90120, Note_on_c, 10, 35, 127
5, 90124, Control_c, 10, 7, 94
5, 90125, Channel_aftertouch_c, 10, 6
5, 90133, Channel_aftertouch_c, 10, 3
5, 90139, Control_c, 10, 7, 95
5, 90141, Channel_aftertouch_c, 10, 1
5, 90215, Note_on_c, 10, 35, 0
5, 90240, Note_on_c, 10, 28, 127
5, 90263, Control_c, 10, 7, 93
5, 90275, Control_c, 10, 7, 91
5, 90285, Control_c, 10, 7, 90
5, 90300, Control_c, 10, 7, 88
5, 90311, Control_c, 10, 7, 87
5, 90325, Control_c, 10, 7, 85
5, 90333, Control_c, 10, 7, 84
5, 90348, Control_c, 10, 7, 82
5, 90456, Note_on_c, 10, 28, 0
5, 90480, Note_on_c, 10, 31, 96
5, 90484, Control_c, 10, 7, 81
5, 90522, Control_c, 10, 7, 79
5, 90543, Control_c, 10, 7, 78
5, 90575, Control_c, 10, 7, 76
5, 90696, Note_on_c, 10, 31, 0
5, 90720, Note_on_c, 10, 35, 96
5, 90936, Note_on_c, 10, 35, 0
5, 91080, Note_on_c, 10, 35, 61
5, 91145, Note_on_c, 10, 35, 0
5, 91200, Note_on_c, 10, 28, 64
5, 91416, Note_on_c, 10, 28, 0
5, 91440, Note_on_c, 10, 33, 74
5, 91656, Note_on_c, 10, 33, 0
5, 91680, Note_on_c, 10, 38, 69
5, 91896, Note_on_c, 10, 38, 0
5, 92040, Note_on_c, 10, 40, 69
5, 92118, Note_on_c, 10, 40, 0
5, 92160, Note_on_c, 10, 33, 66
5, 92376, Note_on_c, 10, 33, 0
5, 92400, Note_on_c, 10, 38, 74
5, 92616, Note_on_c, 10, 38, 0
5, 92640, Note_on_c, 10, 44, 84
5, 92856, Note_on_c, 10, 44, 0
5, 93000, Note_on_c, 10, 47, 66
5, 93047, Note_on_c, 10, 47, 0
5, 93060, Note_on_c, 10, 45, 66
5, 93101, Note_on_c, 10, 45, 0
5, 93120, Note_on_c, 10, 44, 64
5, 93190, Note_on_c, 10, 44, 0
5, 93240, Note_on_c, 10, 47, 72
5, 93285, Note_on_c, 10, 47, 0
5, 93300, Note_on_c, 10, 45, 77
5, 93336, Note_on_c, 10, 45, 0
5, 93360, Note_on_c, 10, 44, 89
5, 93427, Note_on_c, 10, 44, 0
5, 93480, Note_on_c, 10, 40, 72
5, 93554, Note_on_c, 10, 40, 0
5, 93600, Note_on_c, 10, 45, 64
5, 93686, Note_on_c, 10, 45, 0
5, 93720, Note_on_c, 10, 33, 79
5, 93801, Note_on_c, 10, 33, 0
5, 93840, Note_on_c, 10, 45, 64
5, 93918, Note_on_c, 10, 45, 0
5, 93960, Note_on_c, 10, 45, 74
5, 94007, Note_on_c, 10, 45, 0
5, 94020, Note_on_c, 10, 43, 74
5, 94070, Note_on_c, 10, 43, 0
5, 94080, Note_on_c, 10, 42, 77
5, 94159, Note_on_c, 10, 42, 0
5, 94200, Note_on_c, 10, 45, 74
5, 94244, Note_on_c, 10, 45, 0
5, 94260, Note_on_c, 10, 43, 66
5, 94305, Note_on_c, 10, 43, 0
5, 94320, Note_on_c, 10, 42, 84
5, 94394, Note_on_c, 10, 42, 0
5, 94440, Note_on_c, 10, 38, 64
5, 94528, Note_on_c, 10, 38, 0
5, 94560, Note_on_c, 10, 43, 74
5, 94635, Note_on_c, 10, 43, 0
5, 94680, Note_on_c, 10, 31, 77
5, 94768, Note_on_c, 10, 31, 0
5, 94800, Note_on_c, 10, 43, 66
5, 94874, Note_on_c, 10, 43, 0
5, 94920, Note_on_c, 10, 40, 66
5, 95005, Note_on_c, 10, 40, 0
5, 95040, Note_on_c, 10, 37, 72
5, 95122, Note_on_c, 10, 37, 0
5, 95160, Note_on_c, 10, 40, 66
5, 95247, Note_on_c, 10, 40, 0
5, 95280, Note_on_c, 10, 33, 89
5, 95379, Note_on_c, 10, 33, 0
5, 95400, Note_on_c, 10, 45, 55
5, 95491, Note_on_c, 10, 45, 0
5, 95520, Note_on_c, 10, 38, 84
5, 95604, Note_on_c, 10, 38, 0
5, 95640, Note_on_c, 10, 33, 77
5, 95742, Note_on_c, 10, 33, 0
5, 95760, Note_on_c, 10, 42, 51
5, 95853, Note_on_c, 10, 42, 0
5, 95880, Note_on_c, 10, 38, 77
5, 95968, Note_on_c, 10, 38, 0
5, 96000, Note_on_c, 10, 43, 55
5, 96083, Note_on_c, 10, 43, 0
5, 96120, Note_on_c, 10, 40, 74
5, 96172, Note_on_c, 10, 40, 0
5, 96180, Note_on_c, 10, 42, 77
5, 96226, Note_on_c, 10, 42, 0
5, 96240, Note_on_c, 10, 43, 66
5, 96327, Note_on_c, 10, 43, 0
5, 96360, Note_on_c, 10, 40, 79
5, 96448, Note_on_c, 10, 40, 0
5, 96480, Note_on_c, 10, 37, 81
5, 96696, Note_on_c, 10, 37, 0
5, 96840, Note_on_c, 10, 33, 84
5, 96905, Note_on_c, 10, 33, 0
5, 96960, Note_on_c, 10, 38, 102
5, 96980, Control_c, 10, 7, 77
5, 97007, Control_c, 10, 7, 79
5, 97032, Control_c, 10, 7, 80
5, 97042, Note_on_c, 10, 38, 0
5, 97080, Note_on_c, 10, 50, 127
5, 97085, Control_c, 10, 7, 82
5, 97093, Control_c, 10, 7, 83
5, 97215, Control_c, 10, 7, 85
5, 97233, Control_c, 10, 7, 86
5, 97259, Control_c, 10, 7, 88
5, 97268, Control_c, 10, 7, 89
5, 97287, Note_on_c, 10, 50, 0
5, 97320, Note_on_c, 10, 49, 108
5, 97411, Note_on_c, 10, 49, 0
5, 97440, Note_on_c, 10, 47, 89
5, 97514, Note_on_c, 10, 47, 0
5, 97560, Note_on_c, 10, 35, 89
5, 97767, Note_on_c, 10, 35, 0
5, 97799, Control_c, 10, 7, 88
5, 97800, Note_on_c, 10, 33, 96
5, 97838, Control_c, 10, 7, 87
5, 97880, Note_on_c, 10, 33, 0
5, 97920, Note_on_c, 10, 31, 108
5, 98002, Note_on_c, 10, 31, 0
5, 98040, Note_on_c, 10, 30, 114
5, 98076, Note_on_c, 10, 30, 0
5, 98100, Note_on_c, 10, 30, 81
5, 98141, Note_on_c, 10, 30, 0
5, 98160, Note_on_c, 10, 31, 108
5, 98196, Note_on_c, 10, 31, 0
5, 98220, Note_on_c, 10, 31, 86
5, 98260, Note_on_c, 10, 31, 0
5, 98280, Note_on_c, 10, 33, 89
5, 98314, Note_on_c, 10, 33, 0
5, 98340, Note_on_c, 10, 33, 74
5, 98388, Note_on_c, 10, 33, 0
5, 98400, Note_on_c, 10, 35, 84
5, 98401, Control_c, 10, 7, 85
5, 98440, Note_on_c, 10, 35, 0
5, 98460, Note_on_c, 10, 35, 69
5, 98503, Note_on_c, 10, 35, 0
5, 98520, Note_on_c, 10, 30, 117
5, 98559, Note_on_c, 10, 30, 0
5, 98580, Note_on_c, 10, 30, 111
5, 98627, Note_on_c, 10, 30, 0
5, 98640, Note_on_c, 10, 31, 108
5, 98678, Note_on_c, 10, 31, 0
5, 98700, Note_on_c, 10, 31, 89
5, 98743, Note_on_c, 10, 31, 0
5, 98760, Note_on_c, 10, 33, 84
5, 98795, Note_on_c, 10, 33, 0
5, 98820, Note_on_c, 10, 33, 81
5, 98867, Note_on_c, 10, 33, 0
5, 98880, Note_on_c, 10, 35, 77
5, 98913, Note_on_c, 10, 35, 0
5, 98940, Note_on_c, 10, 35, 93
5, 98983, Note_on_c, 10, 35, 0
5, 99000, Note_on_c, 10, 33, 102
5, 99038, Note_on_c, 10, 33, 0
5, 99060, Note_on_c, 10, 33, 84
5, 99104, Note_on_c, 10, 33, 0
5, 99120, Note_on_c, 10, 35, 111
5, 99153, Note_on_c, 10, 35, 0
5, 99180, Note_on_c, 10, 35, 77
5, 99218, Note_on_c, 10, 35, 0
5, 99240, Note_on_c, 10, 37, 124
5, 99274, Note_on_c, 10, 37, 0
5, 99300, Note_on_c, 10, 37, 102
5, 99303, Control_c, 10, 7, 86
5, 99343, Note_on_c, 10, 37, 0
5, 99360, Note_on_c, 10, 38, 108
5, 99393, Note_on_c, 10, 38, 0
5, 99420, Note_on_c, 10, 38, 79
5, 99464, Note_on_c, 10, 38, 0
5, 99480, Note_on_c, 10, 33, 108
5, 99515, Note_on_c, 10, 33, 0
5, 99540, Note_on_c, 10, 33, 96
5, 99552, Control_c, 10, 7, 88
5, 99580, Note_on_c, 10, 33, 0
5, 99594, Control_c, 10, 7, 89
5, 99600, Note_on_c, 10, 35, 96
5, 99635, Note_on_c, 10, 35, 0
5, 99660, Note_on_c, 10, 35, 84
5, 99704, Note_on_c, 10, 35, 0
5, 99720, Note_on_c, 10, 37, 114
5, 99758, Note_on_c, 10, 37, 0
5, 99780, Note_on_c, 10, 37, 74
5, 99819, Note_on_c, 10, 37, 0
5, 99840, Note_on_c, 10, 38, 96
5, 99874, Note_on_c, 10, 38, 0
5, 99900, Note_on_c, 10, 38, 86
5, 99948, Note_on_c, 10, 38, 0
5, 99960, Note_on_c, 10, 42, 126
5, 99991, Note_on_c, 10, 42, 0
5, 100020, Note_on_c, 10, 42, 84
5, 100055, Note_on_c, 10, 42, 0
5, 100080, Note_on_c, 10, 47, 127
5, 100111, Note_on_c, 10, 47, 0
5, 100140, Note_on_c, 10, 47, 108
5, 100182, Note_on_c, 10, 47, 0
5, 100200, Note_on_c, 10, 43, 102
5, 100234, Note_on_c, 10, 43, 0
5, 100260, Note_on_c, 10, 43, 84
5, 100299, Note_on_c, 10, 43, 0
5, 100320, Note_on_c, 10, 45, 51
5, 100661, Control_c, 10, 7, 88
5, 100763, Control_c, 10, 7, 87
5, 100996, Control_c, 10, 7, 85
5, 101085, Control_c, 10, 7, 84
5, 101135, Control_c, 10, 7, 82
5, 101198, Control_c, 10, 7, 81
5, 101257, Control_c, 10, 7, 79
5, 101314, Control_c, 10, 7, 78
5, 101353, Note_on_c, 10, 45, 0
5, 101400, Note_on_c, 10, 33, 89
5, 101453, Control_c, 10, 7, 76
5, 101482, Note_on_c, 10, 33, 0
5, 101520, Note_on_c, 10, 32, 111
5, 101601, Note_on_c, 10, 32, 0
5, 101634, Control_c, 10, 7, 77
5, 101640, Note_on_c, 10, 30, 72
5, 101698, Control_c, 10, 7, 79
5, 101726, Control_c, 10, 7, 80
5, 101731, Note_on_c, 10, 30, 0
5, 101751, Control_c, 10, 7, 82
5, 101760, Note_on_c, 10, 29, 72
5, 101760, Control_c, 10, 7, 83
5, 101976, Note_on_c, 10, 29, 0
5, 102070, Control_c, 10, 7, 82
5, 102107, Control_c, 10, 7, 81
5, 102720, Note_on_c, 10, 30, 61
5, 102936, Note_on_c, 10, 30, 0
5, 103582, Control_c, 10, 7, 82
5, 103680, Note_on_c, 10, 35, 66
5, 103896, Note_on_c, 10, 35, 0
5, 104640, Note_on_c, 10, 37, 48
5, 104856, Note_on_c, 10, 37, 0
5, 104880, Note_on_c, 10, 41, 58
5, 105096, Note_on_c, 10, 41, 0
5, 105120, Note_on_c, 10, 44, 48
5, 105336, Note_on_c, 10, 44, 0
5, 105600, Note_on_c, 10, 37, 61
5, 105816, Note_on_c, 10, 37, 0
5, 105840, Note_on_c, 10, 42, 48
5, 106056, Note_on_c, 10, 42, 0
5, 106080, Note_on_c, 10, 45, 64
5, 106296, Note_on_c, 10, 45, 0
5, 106560, Note_on_c, 10, 37, 48
5, 106620, Control_c, 10, 7, 83
5, 106659, Control_c, 10, 7, 85
5, 106672, Note_on_c, 10, 37, 0
5, 106677, Control_c, 10, 7, 86
5, 106699, Control_c, 10, 7, 88
5, 106800, Note_on_c, 10, 41, 61
5, 106873, Note_on_c, 10, 41, 0
5, 106920, Note_on_c, 10, 44, 61
5, 106927, Control_c, 10, 7, 89
5, 106930, Control_c, 10, 7, 94
5, 106952, Control_c, 10, 7, 95
5, 106973, Control_c, 10, 7, 91
5, 106993, Note_on_c, 10, 44, 0
5, 107034, Control_c, 10, 7, 92
5, 107040, Note_on_c, 10, 47, 51
5, 107256, Note_on_c, 10, 47, 0
5, 107285, Control_c, 10, 7, 94
5, 107294, Control_c, 10, 7, 93
5, 107308, Control_c, 10, 7, 91
5, 107316, Control_c, 10, 7, 90
5, 107325, Control_c, 10, 7, 88
5, 107334, Control_c, 10, 7, 87
5, 107352, Control_c, 10, 7, 85
5, 107370, Control_c, 10, 7, 84
5, 107387, Control_c, 10, 7, 82
5, 107411, Control_c, 10, 7, 81
5, 107520, Note_on_c, 10, 37, 64
5, 107650, Note_on_c, 10, 37, 0
5, 107673, Control_c, 10, 7, 82
5, 107681, Control_c, 10, 7, 83
5, 107690, Control_c, 10, 7, 85
5, 107711, Control_c, 10, 7, 86
5, 107724, Control_c, 10, 7, 88
5, 107747, Control_c, 10, 7, 89
5, 107760, Note_on_c, 10, 42, 58
5, 107784, Control_c, 10, 7, 91
5, 107839, Note_on_c, 10, 42, 0
5, 107880, Note_on_c, 10, 45, 64
5, 107945, Control_c, 10, 7, 92
5, 107964, Note_on_c, 10, 45, 0
5, 107978, Control_c, 10, 7, 94
5, 108000, Note_on_c, 10, 49, 43
5, 108007, Control_c, 10, 7, 95
5, 108122, Note_on_c, 10, 49, 0
5, 108289, Control_c, 10, 7, 94
5, 108302, Control_c, 10, 7, 93
5, 108320, Control_c, 10, 7, 91
5, 108330, Control_c, 10, 7, 90
5, 108347, Control_c, 10, 7, 88
5, 108364, Control_c, 10, 7, 87
5, 108380, Control_c, 10, 7, 85
5, 108398, Control_c, 10, 7, 84
5, 108416, Control_c, 10, 7, 82
5, 108437, Control_c, 10, 7, 81
5, 108456, Control_c, 10, 7, 79
5, 108466, Control_c, 10, 7, 78
5, 108480, Note_on_c, 10, 29, 8
5, 108728, Control_c, 10, 7, 79
5, 108746, Control_c, 10, 7, 80
5, 108781, Control_c, 10, 7, 82
5, 108805, Control_c, 10, 7, 83
5, 108862, Control_c, 10, 7, 85
5, 108897, Control_c, 10, 7, 86
5, 108944, Control_c, 10, 7, 88
5, 108968, Control_c, 10, 7, 89
5, 109034, Control_c, 10, 7, 91
5, 109131, Control_c, 10, 7, 92
5, 109189, Control_c, 10, 7, 94
5, 109217, Control_c, 10, 7, 95
5, 109276, Control_c, 10, 7, 97
5, 109339, Control_c, 10, 7, 98
5, 109365, Control_c, 10, 7, 100
5, 109471, Control_c, 10, 7, 101
5, 109585, Control_c, 10, 7, 103
5, 109623, Control_c, 10, 7, 104
5, 109673, Control_c, 10, 7, 106
5, 109717, Control_c, 10, 7, 107
5, 109888, Control_c, 10, 7, 109
5, 110064, Control_c, 10, 7, 108
5, 110082, Control_c, 10, 7, 106
5, 110098, Control_c, 10, 7, 105
5, 110112, Control_c, 10, 7, 103
5, 110121, Control_c, 10, 7, 102
5, 110130, Control_c, 10, 7, 100
5, 110139, Control_c, 10, 7, 99
5, 110143, Note_on_c, 10, 29, 0
5, 110152, Control_c, 10, 7, 97
5, 110161, Control_c, 10, 7, 96
5, 110170, Control_c, 10, 7, 94
5, 110179, Control_c, 10, 7, 93
5, 110280, Note_on_c, 10, 41, 96
5, 110351, Note_on_c, 10, 41, 0
5, 110400, Note_on_c, 10, 42, 89
5, 110439, Control_c, 10, 7, 94
5, 110447, Control_c, 10, 7, 95
5, 110495, Note_on_c, 10, 42, 0
5, 110520, Note_on_c, 10, 38, 93
5, 110604, Note_on_c, 10, 38, 0
5, 110640, Note_on_c, 10, 35, 93
5, 110646, Control_c, 10, 7, 94
5, 110666, Control_c, 10, 7, 93
5, 110705, Control_c, 10, 7, 91
5, 110713, Control_c, 10, 7, 90
5, 110716, Note_on_c, 10, 35, 0
5, 110760, Note_on_c, 10, 37, 102
5, 110846, Note_on_c, 10, 37, 0
5, 110880, Note_on_c, 10, 30, 99
5, 111037, Note_on_c, 10, 30, 0
5, 111828, Control_c, 10, 7, 92
5, 111851, Channel_aftertouch_c, 10, 54
5, 111852, Control_c, 10, 7, 94
5, 111861, Channel_aftertouch_c, 10, 88
5, 111872, Channel_aftertouch_c, 10, 105
5, 111883, Channel_aftertouch_c, 10, 97
5, 111893, Channel_aftertouch_c, 10, 80
5, 111904, Channel_aftertouch_c, 10, 65
5, 111915, Channel_aftertouch_c, 10, 57
5, 111925, Channel_aftertouch_c, 10, 53
5, 111936, Channel_aftertouch_c, 10, 26
5, 111960, Note_on_c, 10, 30, 105
5, 111976, Control_c, 10, 7, 95
5, 111998, Note_on_c, 10, 30, 0
5, 112020, Note_on_c, 10, 30, 105
5, 112060, Note_on_c, 10, 30, 0
5, 112080, Note_on_c, 10, 32, 127
5, 112120, Note_on_c, 10, 32, 0
5, 112140, Note_on_c, 10, 32, 124
5, 112177, Note_on_c, 10, 32, 0
5, 112197, Channel_aftertouch_c, 10, 25
5, 112200, Note_on_c, 10, 34, 99
5, 112205, Channel_aftertouch_c, 10, 0
5, 112208, Channel_aftertouch_c, 10, 21
5, 112216, Channel_aftertouch_c, 10, 0
5, 112218, Channel_aftertouch_c, 10, 10
5, 112227, Channel_aftertouch_c, 10, 0
5, 112229, Channel_aftertouch_c, 10, 5
5, 112230, Channel_aftertouch_c, 10, 0
5, 112236, Note_on_c, 10, 34, 0
5, 112260, Note_on_c, 10, 34, 117
5, 112304, Note_on_c, 10, 34, 0
5, 112320, Note_on_c, 10, 35, 124
5, 112408, Note_on_c, 10, 35, 0
5, 112440, Note_on_c, 10, 35, 72
5, 112452, Control_c, 10, 7, 94
5, 112465, Control_c, 10, 7, 93
5, 112525, Control_c, 10, 7, 91
5, 112535, Control_c, 10, 7, 90
5, 112536, Note_on_c, 10, 35, 0
5, 112560, Note_on_c, 10, 35, 74
5, 112571, Control_c, 10, 7, 88
5, 112595, Control_c, 10, 7, 87
5, 112654, Note_on_c, 10, 35, 0
5, 112680, Note_on_c, 10, 35, 58
5, 112771, Note_on_c, 10, 35, 0
5, 112800, Note_on_c, 10, 35, 58
5, 112896, Note_on_c, 10, 35, 0
5, 112920, Note_on_c, 10, 35, 66
5, 113011, Note_on_c, 10, 35, 0
5, 113040, Note_on_c, 10, 35, 66
5, 113135, Note_on_c, 10, 35, 0
5, 113145, Control_c, 10, 7, 88
5, 113160, Note_on_c, 10, 35, 64
5, 113169, Control_c, 10, 7, 89
5, 113239, Control_c, 10, 7, 91
5, 113250, Note_on_c, 10, 35, 0
5, 113271, Control_c, 10, 7, 92
5, 113280, Note_on_c, 10, 35, 72
5, 113298, Control_c, 10, 7, 94
5, 113328, Control_c, 10, 7, 95
5, 113368, Note_on_c, 10, 35, 0
5, 113400, Note_on_c, 10, 35, 58
5, 113464, Control_c, 10, 7, 97
5, 113485, Note_on_c, 10, 35, 0
5, 113506, Control_c, 10, 7, 98
5, 113520, Note_on_c, 10, 35, 58
5, 113553, Control_c, 10, 7, 100
5, 113611, Note_on_c, 10, 35, 0
5, 113640, Note_on_c, 10, 35, 43
5, 113654, Control_c, 10, 7, 101
5, 113736, Note_on_c, 10, 35, 0
5, 113757, Control_c, 10, 7, 103
5, 113760, Note_on_c, 10, 32, 61
5, 113805, Control_c, 10, 7, 104
5, 113845, Note_on_c, 10, 32, 0
5, 113855, Control_c, 10, 7, 106
5, 113880, Note_on_c, 10, 32, 61
5, 113909, Control_c, 10, 7, 107
5, 113979, Note_on_c, 10, 32, 0
5, 114000, Note_on_c, 10, 32, 58
5, 114091, Note_on_c, 10, 32, 0
5, 114120, Note_on_c, 10, 32, 72
5, 114224, Note_on_c, 10, 32, 0
5, 114240, Note_on_c, 10, 29, 84
5, 114328, Note_on_c, 10, 29, 0
5, 114360, Note_on_c, 10, 29, 84
5, 114458, Note_on_c, 10, 29, 0
5, 114480, Note_on_c, 10, 29, 84
5, 114578, Note_on_c, 10, 29, 0
5, 114600, Note_on_c, 10, 29, 77
5, 114690, Note_on_c, 10, 29, 0
5, 114720, Note_on_c, 10, 25, 74
5, 114901, Control_c, 10, 7, 109
5, 114918, Control_c, 10, 7, 110
5, 115210, Control_c, 10, 7, 109
5, 115219, Control_c, 10, 7, 108
5, 115225, Note_on_c, 10, 25, 0
5, 115239, Control_c, 10, 7, 106
5, 115258, Control_c, 10, 7, 105
5, 115289, Control_c, 10, 7, 103
5, 115318, Control_c, 10, 7, 102
5, 115334, Control_c, 10, 7, 100
5, 115350, Control_c, 10, 7, 99
5, 115367, Control_c, 10, 7, 97
5, 115382, Control_c, 10, 7, 96
5, 115403, Control_c, 10, 7, 94
5, 115413, Control_c, 10, 7, 93
5, 115448, Control_c, 10, 7, 91
5, 116886, Control_c, 10, 7, 92
5, 116902, Control_c, 10, 7, 94
5, 116914, Control_c, 10, 7, 95
5, 116940, Control_c, 10, 7, 97
5, 116951, Control_c, 10, 7, 98
5, 116974, Control_c, 10, 7, 100
5, 117120, Note_on_c, 10, 38, 127
5, 117336, Note_on_c, 10, 38, 0
5, 117360, Note_on_c, 10, 26, 102
5, 117576, Note_on_c, 10, 26, 0
5, 117600, Note_on_c, 10, 38, 127
5, 117664, Control_c, 10, 7, 99
5, 117699, Control_c, 10, 7, 97
5, 117816, Note_on_c, 10, 38, 0
5, 117960, Note_on_c, 10, 26, 111
5, 118015, Note_on_c, 10, 26, 0
5, 118080, Note_on_c, 10, 38, 77
5, 118125, Note_on_c, 10, 38, 0
5, 118140, Note_on_c, 10, 40, 89
5, 118178, Note_on_c, 10, 40, 0
5, 118200, Note_on_c, 10, 42, 93
5, 118241, Note_on_c, 10, 42, 0
5, 118260, Note_on_c, 10, 40, 77
5, 118304, Note_on_c, 10, 40, 0
5, 118320, Note_on_c, 10, 38, 102
5, 118364, Note_on_c, 10, 38, 0
5, 118380, Note_on_c, 10, 40, 79
5, 118423, Note_on_c, 10, 40, 0
5, 118440, Note_on_c, 10, 42, 89
5, 118481, Note_on_c, 10, 42, 0
5, 118500, Note_on_c, 10, 40, 89
5, 118544, Note_on_c, 10, 40, 0
5, 118560, Note_on_c, 10, 38, 96
5, 118599, Note_on_c, 10, 38, 0
5, 118620, Note_on_c, 10, 40, 84
5, 118664, Note_on_c, 10, 40, 0
5, 118680, Note_on_c, 10, 42, 105
5, 118720, Note_on_c, 10, 42, 0
5, 118740, Note_on_c, 10, 40, 77
5, 118777, Note_on_c, 10, 40, 0
5, 118800, Note_on_c, 10, 38, 102
5, 118891, Note_on_c, 10, 38, 0
5, 118920, Note_on_c, 10, 37, 114
5, 119010, Note_on_c, 10, 37, 0
5, 119040, Note_on_c, 10, 35, 89
5, 119136, Note_on_c, 10, 35, 0
5, 119154, Control_c, 10, 7, 91
5, 119160, Note_on_c, 10, 37, 114
5, 119165, Control_c, 10, 7, 90
5, 119183, Control_c, 10, 7, 88
5, 119254, Note_on_c, 10, 37, 0
5, 119280, Note_on_c, 10, 38, 111
5, 119353, Control_c, 10, 7, 89
5, 119381, Note_on_c, 10, 38, 0
5, 119400, Note_on_c, 10, 26, 114
5, 119435, Control_c, 10, 7, 88
5, 119472, Control_c, 10, 7, 87
5, 119500, Note_on_c, 10, 26, 0
5, 119508, Control_c, 10, 7, 85
5, 119520, Note_on_c, 10, 33, 111
5, 119525, Control_c, 10, 7, 84
5, 119543, Control_c, 10, 7, 82
5, 119565, Control_c, 10, 7, 81
5, 119603, Control_c, 10, 7, 79
5, 119621, Control_c, 10, 7, 78
5, 119736, Note_on_c, 10, 33, 0
5, 119771, Control_c, 10, 7, 76
5, 119796, Control_c, 10, 7, 75
5, 119869, Control_c, 10, 7, 73
5, 119890, Control_c, 10, 7, 72
5, 119903, Control_c, 10, 7, 70
5, 120000, Note_on_c, 10, 30, 123
5, 120037, Note_on_c, 10, 30, 0
5, 120060, Note_on_c, 10, 31, 127
5, 120086, Control_c, 10, 7, 71
5, 120100, Note_on_c, 10, 31, 0
5, 120105, Control_c, 10, 7, 73
5, 120120, Note_on_c, 10, 33, 117
5, 120128, Channel_aftertouch_c, 10, 19
5, 120129, Control_c, 10, 7, 74
5, 120138, Channel_aftertouch_c, 10, 9
5, 120146, Control_c, 10, 7, 76
5, 120160, Note_on_c, 10, 33, 0
5, 120160, Control_c, 10, 7, 77
5, 120180, Note_on_c, 10, 35, 126
5, 120196, Control_c, 10, 7, 79
5, 120219, Control_c, 10, 7, 80
5, 120223, Note_on_c, 10, 35, 0
5, 120240, Note_on_c, 10, 37, 127
5, 120244, Control_c, 10, 7, 82
5, 120275, Control_c, 10, 7, 83
5, 120285, Note_on_c, 10, 37, 0
5, 120300, Note_on_c, 10, 38, 84
5, 120316, Control_c, 10, 7, 85
5, 120335, Note_on_c, 10, 38, 0
5, 120337, Control_c, 10, 7, 86
5, 120360, Note_on_c, 10, 40, 102
5, 120360, Control_c, 10, 7, 88
5, 120366, Channel_aftertouch_c, 10, 6
5, 120367, Channel_aftertouch_c, 10, 21
5, 120371, Control_c, 10, 7, 94
5, 120371, Control_c, 10, 7, 89
5, 120377, Channel_aftertouch_c, 10, 3
5, 120378, Channel_aftertouch_c, 10, 10
5, 120388, Channel_aftertouch_c, 10, 1
5, 120388, Channel_aftertouch_c, 10, 5
5, 120401, Note_on_c, 10, 40, 0
5, 120413, Control_c, 10, 7, 91
5, 120420, Note_on_c, 10, 42, 120
5, 120432, Control_c, 10, 7, 92
5, 120475, Note_on_c, 10, 42, 0
5, 120475, Control_c, 10, 7, 93
5, 120480, Note_on_c, 10, 35, 93
5, 120488, Control_c, 10, 7, 91
5, 120496, Control_c, 10, 7, 90
5, 120505, Control_c, 10, 7, 88
5, 120517, Control_c, 10, 7, 87
5, 120533, Control_c, 10, 7, 85
5, 120541, Control_c, 10, 7, 84
5, 120560, Control_c, 10, 7, 82
5, 120582, Control_c, 10, 7, 81
5, 120696, Note_on_c, 10, 35, 0
5, 120732, Control_c, 10, 7, 79
5, 120757, Control_c, 10, 7, 78
5, 120782, Control_c, 10, 7, 76
5, 120813, Control_c, 10, 7, 75
5, 120849, Control_c, 10, 7, 73
5, 120861, Control_c, 10, 7, 72
5, 120880, Control_c, 10, 7, 70
5, 120905, Control_c, 10, 7, 69
5, 120960, Note_on_c, 10, 28, 111
5, 121008, Note_on_c, 10, 28, 0
5, 121020, Note_on_c, 10, 30, 127
5, 121037, Control_c, 10, 7, 70
5, 121050, Control_c, 10, 7, 71
5, 121058, Note_on_c, 10, 30, 0
5, 121080, Note_on_c, 10, 31, 102
5, 121084, Control_c, 10, 7, 73
5, 121101, Control_c, 10, 7, 74
5, 121119, Control_c, 10, 7, 76
5, 121123, Note_on_c, 10, 31, 0
5, 121130, Control_c, 10, 7, 77
5, 121140, Note_on_c, 10, 33, 127
5, 121148, Control_c, 10, 7, 79
5, 121158, Control_c, 10, 7, 80
5, 121177, Control_c, 10, 7, 82
5, 121181, Note_on_c, 10, 33, 0
5, 121192, Control_c, 10, 7, 83
5, 121200, Note_on_c, 10, 35, 124
5, 121215, Control_c, 10, 7, 85
5, 121234, Control_c, 10, 7, 86
5, 121241, Note_on_c, 10, 35, 0
5, 121243, Channel_aftertouch_c, 10, 6
5, 121251, Control_c, 10, 7, 88
5, 121252, Channel_aftertouch_c, 10, 0
5, 121254, Channel_aftertouch_c, 10, 3
5, 121259, Control_c, 10, 7, 89
5, 121260, Note_on_c, 10, 37, 124
5, 121262, Channel_aftertouch_c, 10, 0
5, 121265, Channel_aftertouch_c, 10, 1
5, 121271, Control_c, 10, 7, 91
5, 121273, Channel_aftertouch_c, 10, 0
5, 121281, Control_c, 10, 7, 92
5, 121310, Note_on_c, 10, 37, 0
5, 121312, Control_c, 10, 7, 94
5, 121320, Note_on_c, 10, 38, 102
5, 121323, Control_c, 10, 7, 100
5, 121330, Control_c, 10, 7, 95
5, 121334, Control_c, 10, 7, 101
5, 121356, Note_on_c, 10, 38, 0
5, 121380, Note_on_c, 10, 40, 124
5, 121392, Control_c, 10, 7, 97
5, 121415, Control_c, 10, 7, 100
5, 121426, Note_on_c, 10, 40, 0
5, 121428, Control_c, 10, 7, 98
5, 121433, Control_c, 10, 7, 99
5, 121440, Note_on_c, 10, 33, 96
5, 121453, Control_c, 10, 7, 97
5, 121462, Control_c, 10, 7, 96
5, 121470, Control_c, 10, 7, 94
5, 121479, Control_c, 10, 7, 93
5, 121487, Control_c, 10, 7, 91
5, 121496, Control_c, 10, 7, 88
5, 121504, Control_c, 10, 7, 87
5, 121518, Control_c, 10, 7, 85
5, 121527, Control_c, 10, 7, 84
5, 121535, Control_c, 10, 7, 82
5, 121544, Control_c, 10, 7, 81
5, 121656, Note_on_c, 10, 33, 0
5, 121682, Control_c, 10, 7, 79
5, 121693, Control_c, 10, 7, 78
5, 121711, Control_c, 10, 7, 76
5, 121750, Control_c, 10, 7, 75
5, 121796, Control_c, 10, 7, 73
5, 121807, Control_c, 10, 7, 72
5, 121920, Note_on_c, 10, 26, 84
5, 121969, Note_on_c, 10, 26, 0
5, 121980, Note_on_c, 10, 28, 117
5, 122021, Control_c, 10, 7, 73
5, 122029, Note_on_c, 10, 28, 0
5, 122029, Control_c, 10, 7, 74
5, 122040, Note_on_c, 10, 30, 124
5, 122093, Note_on_c, 10, 30, 0
5, 122094, Control_c, 10, 7, 76
5, 122100, Note_on_c, 10, 31, 96
5, 122118, Control_c, 10, 7, 77
5, 122139, Note_on_c, 10, 31, 0
5, 122149, Control_c, 10, 7, 79
5, 122158, Control_c, 10, 7, 80
5, 122160, Note_on_c, 10, 33, 123
5, 122180, Control_c, 10, 7, 82
5, 122194, Control_c, 10, 7, 83
5, 122215, Control_c, 10, 7, 85
5, 122217, Note_on_c, 10, 33, 0
5, 122220, Note_on_c, 10, 35, 124
5, 122224, Control_c, 10, 7, 86
5, 122233, Control_c, 10, 7, 88
5, 122245, Control_c, 10, 7, 89
5, 122266, Control_c, 10, 7, 91
5, 122270, Note_on_c, 10, 35, 0
5, 122280, Note_on_c, 10, 37, 66
5, 122340, Note_on_c, 10, 38, 117
5, 122342, Note_on_c, 10, 37, 0
5, 122378, Control_c, 10, 7, 90
5, 122388, Note_on_c, 10, 38, 0
5, 122393, Control_c, 10, 7, 88
5, 122400, Note_on_c, 10, 35, 105
5, 122488, Control_c, 10, 7, 89
5, 122496, Control_c, 10, 7, 91
5, 122500, Note_on_c, 10, 35, 0
5, 122505, Control_c, 10, 7, 94
5, 122513, Control_c, 10, 7, 95
5, 122520, Note_on_c, 10, 47, 89
5, 122522, Control_c, 10, 7, 97
5, 122547, Control_c, 10, 7, 98
5, 122746, Note_on_c, 10, 47, 0
5, 122760, Note_on_c, 10, 45, 99
5, 122762, Control_c, 10, 7, 97
5, 122773, Control_c, 10, 7, 96
5, 122784, Control_c, 10, 7, 94
5, 122843, Note_on_c, 10, 45, 0
5, 122880, Note_on_c, 10, 43, 105
5, 122946, Note_on_c, 10, 43, 0
5, 122978, Control_c, 10, 7, 93
5, 123000, Note_on_c, 10, 31, 102
5, 123214, Control_c, 10, 7, 91
5, 123225, Note_on_c, 10, 31, 0
5, 123232, Control_c, 10, 7, 90
5, 123240, Note_on_c, 10, 30, 84
5, 123324, Note_on_c, 10, 30, 0
5, 123360, Note_on_c, 10, 28, 96
5, 123451, Note_on_c, 10, 28, 0
5, 123465, Control_c, 10, 7, 91
5, 123480, Note_on_c, 10, 40, 77
5, 123716, Note_on_c, 10, 40, 0
5, 123720, Note_on_c, 10, 38, 84
5, 123803, Note_on_c, 10, 38, 0
5, 123825, Control_c, 10, 7, 90
5, 123840, Note_on_c, 10, 37, 89
5, 123840, Control_c, 10, 7, 88
5, 124368, Note_on_c, 10, 37, 0
5, 124380, Note_on_c, 10, 38, 80
5, 124428, Note_on_c, 10, 38, 0
5, 124440, Note_on_c, 10, 40, 80
5, 124488, Note_on_c, 10, 40, 0
5, 124500, Note_on_c, 10, 37, 80
5, 124548, Note_on_c, 10, 37, 0
5, 124560, Note_on_c, 10, 33, 80
5, 124656, Note_on_c, 10, 33, 0
5, 124680, Note_on_c, 10, 37, 80
5, 124776, Note_on_c, 10, 37, 0
5, 124800, Note_on_c, 10, 38, 84
5, 124850, Control_c, 10, 7, 82
5, 124900, Note_on_c, 10, 38, 0
5, 124920, Note_on_c, 10, 42, 79
5, 125013, Note_on_c, 10, 42, 0
5, 125040, Note_on_c, 10, 43, 96
5, 125144, Note_on_c, 10, 43, 0
5, 125160, Note_on_c, 10, 45, 86
5, 125254, Note_on_c, 10, 45, 0
5, 125280, Note_on_c, 10, 47, 81
5, 125398, Note_on_c, 10, 47, 0
5, 125400, Note_on_c, 10, 42, 127
5, 125432, Note_on_c, 10, 42, 0
5, 125460, Note_on_c, 10, 42, 81
5, 125483, Control_c, 10, 7, 83
5, 125509, Note_on_c, 10, 42, 0
5, 125520, Note_on_c, 10, 43, 102
5, 125545, Control_c, 10, 7, 85
5, 125558, Note_on_c, 10, 43, 0
5, 125580, Note_on_c, 10, 43, 84
5, 125622, Note_on_c, 10, 43, 0
5, 125640, Note_on_c, 10, 45, 99
5, 125675, Note_on_c, 10, 45, 0
5, 125700, Note_on_c, 10, 45, 77
5, 125741, Note_on_c, 10, 45, 0
5, 125760, Note_on_c, 10, 47, 102
5, 125801, Note_on_c, 10, 47, 0
5, 125820, Note_on_c, 10, 47, 72
5, 125865, Note_on_c, 10, 47, 0
5, 125880, Note_on_c, 10, 42, 127
5, 125915, Note_on_c, 10, 42, 0
5, 125940, Note_on_c, 10, 42, 111
5, 125982, Note_on_c, 10, 42, 0
5, 125991, Channel_aftertouch_c, 10, 6
5, 125994, Channel_aftertouch_c, 10, 0
5, 125996, Channel_aftertouch_c, 10, 3
5, 126000, Note_on_c, 10, 43, 127
5, 126004, Channel_aftertouch_c, 10, 0
5, 126007, Channel_aftertouch_c, 10, 1
5, 126015, Channel_aftertouch_c, 10, 0
5, 126041, Note_on_c, 10, 43, 0
5, 126060, Note_on_c, 10, 43, 96
5, 126102, Note_on_c, 10, 43, 0
5, 126120, Note_on_c, 10, 45, 117
5, 126153, Note_on_c, 10, 45, 0
5, 126180, Note_on_c, 10, 45, 93
5, 126221, Note_on_c, 10, 45, 0
5, 126238, Control_c, 10, 7, 86
5, 126240, Note_on_c, 10, 47, 123
5, 126277, Note_on_c, 10, 47, 0
5, 126285, Control_c, 10, 7, 88
5, 126300, Note_on_c, 10, 47, 86
5, 126339, Control_c, 10, 7, 89
5, 126342, Note_on_c, 10, 47, 0
5, 126360, Note_on_c, 10, 45, 114
5, 126395, Note_on_c, 10, 45, 0
5, 126420, Note_on_c, 10, 45, 89
5, 126464, Note_on_c, 10, 45, 0
5, 126480, Note_on_c, 10, 47, 114
5, 126510, Note_on_c, 10, 47, 0
5, 126540, Note_on_c, 10, 47, 93
5, 126581, Note_on_c, 10, 47, 0
5, 126592, Control_c, 10, 7, 91
5, 126600, Note_on_c, 10, 49, 89
5, 126624, Control_c, 10, 7, 92
5, 126638, Note_on_c, 10, 49, 0
5, 126641, Control_c, 10, 7, 94
5, 126660, Note_on_c, 10, 49, 108
5, 126707, Note_on_c, 10, 49, 0
5, 126720, Note_on_c, 10, 50, 102
5, 126820, Note_on_c, 10, 50, 0
5, 126824, Control_c, 10, 7, 93
5, 126840, Note_on_c, 10, 47, 96
5, 126935, Note_on_c, 10, 47, 0
5, 126960, Note_on_c, 10, 43, 77
5, 126996, Control_c, 10, 7, 91
5, 127054, Note_on_c, 10, 43, 0
5, 127080, Note_on_c, 10, 45, 102
5, 127118, Control_c, 10, 7, 90
5, 127161, Control_c, 10, 7, 88
5, 127186, Note_on_c, 10, 45, 0
5, 127200, Note_on_c, 10, 38, 120
5, 127416, Note_on_c, 10, 38, 0
5, 130150, Control_c, 10, 7, 89
5, 130284, Control_c, 10, 7, 91
5, 130332, Control_c, 10, 7, 92
5, 130394, Control_c, 10, 7, 94
5, 130440, Control_c, 10, 7, 95
5, 130560, Note_on_c, 10, 38, 124
5, 130570, Channel_aftertouch_c, 10, 6
5, 130578, Channel_aftertouch_c, 10, 0
5, 130580, Channel_aftertouch_c, 10, 3
5, 130776, Note_on_c, 10, 38, 0
5, 130800, Note_on_c, 10, 26, 124
5, 131016, Note_on_c, 10, 26, 0
5, 131040, Note_on_c, 10, 38, 126
5, 131256, Note_on_c, 10, 38, 0
5, 131400, Note_on_c, 10, 26, 124
5, 131453, Note_on_c, 10, 26, 0
5, 131520, Note_on_c, 10, 38, 96
5, 131529, Control_c, 10, 7, 94
5, 131554, Control_c, 10, 7, 93
5, 131561, Note_on_c, 10, 38, 0
5, 131580, Note_on_c, 10, 40, 96
5, 131614, Note_on_c, 10, 40, 0
5, 131615, Control_c, 10, 7, 91
5, 131635, Control_c, 10, 7, 90
5, 131640, Note_on_c, 10, 42, 102
5, 131663, Control_c, 10, 7, 88
5, 131672, Note_on_c, 10, 42, 0
5, 131700, Note_on_c, 10, 40, 74
5, 131721, Control_c, 10, 7, 87
5, 131735, Note_on_c, 10, 40, 0
5, 131760, Note_on_c, 10, 38, 105
5, 131797, Note_on_c, 10, 38, 0
5, 131820, Note_on_c, 10, 40, 96
5, 131852, Note_on_c, 10, 40, 0
5, 131880, Note_on_c, 10, 42, 108
5, 131916, Note_on_c, 10, 42, 0
5, 131940, Note_on_c, 10, 40, 79
5, 131977, Note_on_c, 10, 40, 0
5, 132000, Note_on_c, 10, 38, 84
5, 132035, Note_on_c, 10, 38, 0
5, 132060, Note_on_c, 10, 40, 74
5, 132100, Note_on_c, 10, 40, 0
5, 132120, Note_on_c, 10, 42, 72
5, 132162, Note_on_c, 10, 42, 0
5, 132180, Note_on_c, 10, 40, 84
5, 132220, Note_on_c, 10, 40, 0
5, 132240, Note_on_c, 10, 38, 99
5, 132319, Note_on_c, 10, 38, 0
5, 132360, Note_on_c, 10, 37, 72
5, 132440, Note_on_c, 10, 37, 0
5, 132480, Note_on_c, 10, 35, 86
5, 132486, Channel_aftertouch_c, 10, 6
5, 132497, Channel_aftertouch_c, 10, 3
5, 132508, Channel_aftertouch_c, 10, 1
5, 132569, Note_on_c, 10, 35, 0
5, 132600, Note_on_c, 10, 37, 111
5, 132684, Note_on_c, 10, 37, 0
5, 132720, Note_on_c, 10, 38, 96
5, 132739, Control_c, 10, 7, 88
5, 132753, Control_c, 10, 7, 89
5, 132808, Note_on_c, 10, 38, 0
5, 132840, Note_on_c, 10, 26, 93
5, 132876, Control_c, 10, 7, 91
5, 132936, Note_on_c, 10, 26, 0
5, 132942, Control_c, 10, 7, 92
5, 132960, Note_on_c, 10, 33, 117
5, 132970, Control_c, 10, 7, 94
5, 132982, Control_c, 10, 7, 95
5, 133176, Note_on_c, 10, 33, 0
5, 133222, Control_c, 10, 7, 94
5, 133231, Control_c, 10, 7, 93
5, 133240, Control_c, 10, 7, 91
5, 133250, Control_c, 10, 7, 90
5, 133264, Control_c, 10, 7, 88
5, 133280, Control_c, 10, 7, 87
5, 133316, Control_c, 10, 7, 85
5, 135720, Note_on_c, 10, 33, 105
5, 135764, Note_on_c, 10, 33, 0
5, 135840, Note_on_c, 10, 45, 102
5, 135885, Note_on_c, 10, 45, 0
5, 135900, Note_on_c, 10, 47, 84
5, 135940, Note_on_c, 10, 47, 0
5, 135960, Note_on_c, 10, 49, 77
5, 135998, Note_on_c, 10, 49, 0
5, 136020, Note_on_c, 10, 47, 66
5, 136046, Control_c, 10, 7, 84
5, 136062, Note_on_c, 10, 47, 0
5, 136080, Note_on_c, 10, 45, 72
5, 136126, Note_on_c, 10, 45, 0
5, 136140, Note_on_c, 10, 47, 79
5, 136183, Note_on_c, 10, 47, 0
5, 136200, Note_on_c, 10, 49, 86
5, 136243, Note_on_c, 10, 49, 0
5, 136260, Note_on_c, 10, 47, 74
5, 136307, Note_on_c, 10, 47, 0
5, 136320, Note_on_c, 10, 45, 66
5, 136365, Note_on_c, 10, 45, 0
5, 136380, Note_on_c, 10, 47, 64
5, 136414, Control_c, 10, 7, 85
5, 136427, Control_c, 10, 7, 86
5, 136432, Note_on_c, 10, 47, 0
5, 136440, Note_on_c, 10, 49, 77
5, 136443, Control_c, 10, 7, 88
5, 136480, Note_on_c, 10, 49, 0
5, 136500, Note_on_c, 10, 47, 72
5, 136520, Control_c, 10, 7, 89
5, 136537, Control_c, 10, 7, 91
5, 136539, Note_on_c, 10, 47, 0
5, 136560, Note_on_c, 10, 45, 79
5, 136643, Note_on_c, 10, 45, 0
5, 136680, Note_on_c, 10, 33, 111
5, 136704, Control_c, 10, 7, 92
5, 136784, Note_on_c, 10, 33, 0
5, 138720, Note_on_c, 10, 45, 72
5, 138936, Note_on_c, 10, 45, 0
5, 138960, Note_on_c, 10, 44, 89
5, 138962, Control_c, 10, 7, 94
5, 138974, Control_c, 10, 7, 95
5, 138996, Control_c, 10, 7, 97
5, 139176, Note_on_c, 10, 44, 0
5, 139200, Note_on_c, 10, 42, 81
5, 139316, Control_c, 10, 7, 96
5, 139416, Note_on_c, 10, 42, 0
5, 139440, Note_on_c, 10, 35, 89
5, 139447, Control_c, 10, 7, 94
5, 139458, Control_c, 10, 7, 93
5, 139491, Control_c, 10, 7, 91
5, 139507, Control_c, 10, 7, 90
5, 139526, Control_c, 10, 7, 88
5, 139544, Control_c, 10, 7, 87
5, 139656, Note_on_c, 10, 35, 0
5, 139680, Note_on_c, 10, 40, 79
5, 139695, Control_c, 10, 7, 85
5, 139704, Control_c, 10, 7, 84
5, 139725, Control_c, 10, 7, 82
5, 139744, Control_c, 10, 7, 81
5, 139760, Control_c, 10, 7, 79
5, 139769, Control_c, 10, 7, 76
5, 140112, Note_on_c, 10, 40, 0
5, 140160, Note_on_c, 10, 37, 86
5, 140196, Note_on_c, 10, 37, 0
5, 140220, Note_on_c, 10, 38, 123
5, 140223, Channel_aftertouch_c, 10, 25
5, 140230, Channel_aftertouch_c, 10, 0
5, 140233, Channel_aftertouch_c, 10, 12
5, 140241, Channel_aftertouch_c, 10, 0
5, 140243, Channel_aftertouch_c, 10, 6
5, 140248, Control_c, 10, 7, 77
5, 140252, Channel_aftertouch_c, 10, 0
5, 140254, Channel_aftertouch_c, 10, 3
5, 140263, Channel_aftertouch_c, 10, 0
5, 140265, Channel_aftertouch_c, 10, 1
5, 140266, Channel_aftertouch_c, 10, 0
5, 140266, Control_c, 10, 7, 79
5, 140267, Note_on_c, 10, 38, 0
5, 140280, Note_on_c, 10, 40, 124
5, 140280, Control_c, 10, 7, 80
5, 140292, Control_c, 10, 7, 82
5, 140301, Control_c, 10, 7, 83
5, 140312, Note_on_c, 10, 40, 0
5, 140317, Control_c, 10, 7, 85
5, 140326, Control_c, 10, 7, 86
5, 140334, Control_c, 10, 7, 88
5, 140340, Note_on_c, 10, 42, 127
5, 140343, Control_c, 10, 7, 89
5, 140359, Control_c, 10, 7, 91
5, 140387, Control_c, 10, 7, 92
5, 140395, Note_on_c, 10, 42, 0
5, 140400, Note_on_c, 10, 44, 127
5, 140403, Control_c, 10, 7, 94
5, 140427, Control_c, 10, 7, 95
5, 140447, Note_on_c, 10, 44, 0
5, 140460, Note_on_c, 10, 45, 108
5, 140466, Control_c, 10, 7, 97
5, 140498, Note_on_c, 10, 45, 0
5, 140520, Note_on_c, 10, 47, 102
5, 140523, Control_c, 10, 7, 98
5, 140558, Note_on_c, 10, 47, 0
5, 140573, Control_c, 10, 7, 100
5, 140576, Channel_aftertouch_c, 10, 6
5, 140580, Note_on_c, 10, 49, 123
5, 140580, Channel_aftertouch_c, 10, 3
5, 140588, Channel_aftertouch_c, 10, 1
5, 140588, Control_c, 10, 7, 101
5, 140631, Note_on_c, 10, 49, 0
5, 140640, Note_on_c, 10, 42, 117
5, 140658, Control_c, 10, 7, 100
5, 140666, Control_c, 10, 7, 99
5, 140675, Control_c, 10, 7, 97
5, 140685, Control_c, 10, 7, 96
5, 140698, Control_c, 10, 7, 94
5, 140707, Control_c, 10, 7, 93
5, 140724, Control_c, 10, 7, 91
5, 140733, Control_c, 10, 7, 90
5, 140742, Control_c, 10, 7, 88
5, 140750, Control_c, 10, 7, 87
5, 140759, Control_c, 10, 7, 85
5, 140856, Note_on_c, 10, 42, 0
5, 140887, Control_c, 10, 7, 84
5, 140896, Control_c, 10, 7, 82
5, 140910, Control_c, 10, 7, 81
5, 140940, Control_c, 10, 7, 79
5, 140951, Control_c, 10, 7, 78
5, 140963, Control_c, 10, 7, 76
5, 140986, Control_c, 10, 7, 75
5, 141016, Control_c, 10, 7, 73
5, 141032, Control_c, 10, 7, 72
5, 141047, Control_c, 10, 7, 70
5, 141120, Note_on_c, 10, 35, 84
5, 141166, Note_on_c, 10, 35, 0
5, 141180, Note_on_c, 10, 37, 127
5, 141192, Control_c, 10, 7, 71
5, 141215, Control_c, 10, 7, 73
5, 141223, Note_on_c, 10, 37, 0
5, 141228, Control_c, 10, 7, 74
5, 141236, Control_c, 10, 7, 76
5, 141240, Note_on_c, 10, 38, 125
5, 141245, Control_c, 10, 7, 77
5, 141263, Control_c, 10, 7, 79
5, 141276, Control_c, 10, 7, 80
5, 141286, Note_on_c, 10, 38, 0
5, 141289, Control_c, 10, 7, 82
5, 141298, Control_c, 10, 7, 83
5, 141300, Note_on_c, 10, 40, 102
5, 141320, Control_c, 10, 7, 85
5, 141330, Control_c, 10, 7, 86
5, 141340, Control_c, 10, 7, 88
5, 141343, Note_on_c, 10, 40, 0
5, 141349, Control_c, 10, 7, 89
5, 141360, Note_on_c, 10, 42, 127
5, 141387, Control_c, 10, 7, 91
5, 141390, Note_on_c, 10, 42, 0
5, 141396, Control_c, 10, 7, 92
5, 141406, Control_c, 10, 7, 94
5, 141420, Note_on_c, 10, 44, 93
5, 141424, Control_c, 10, 7, 95
5, 141453, Note_on_c, 10, 44, 0
5, 141470, Control_c, 10, 7, 97
5, 141480, Note_on_c, 10, 45, 117
5, 141494, Control_c, 10, 7, 98
5, 141516, Control_c, 10, 7, 100
5, 141520, Note_on_c, 10, 45, 0
5, 141540, Note_on_c, 10, 47, 99
5, 141570, Control_c, 10, 7, 101
5, 141572, Control_c, 10, 7, 100
5, 141582, Note_on_c, 10, 47, 0
5, 141582, Control_c, 10, 7, 99
5, 141597, Control_c, 10, 7, 97
5, 141600, Note_on_c, 10, 40, 126
5, 141607, Control_c, 10, 7, 96
5, 141619, Control_c, 10, 7, 94
5, 141630, Control_c, 10, 7, 93
5, 141646, Control_c, 10, 7, 91
5, 141657, Control_c, 10, 7, 90
5, 141669, Control_c, 10, 7, 88
5, 141679, Control_c, 10, 7, 87
5, 141696, Control_c, 10, 7, 85
5, 141705, Control_c, 10, 7, 84
5, 141718, Control_c, 10, 7, 82
5, 141816, Note_on_c, 10, 40, 0
5, 141856, Control_c, 10, 7, 81
5, 141913, Control_c, 10, 7, 79
5, 142046, Control_c, 10, 7, 80
5, 142069, Control_c, 10, 7, 82
5, 142080, Note_on_c, 10, 33, 96
5, 142084, Control_c, 10, 7, 83
5, 142114, Control_c, 10, 7, 85
5, 142120, Note_on_c, 10, 33, 0
5, 142132, Control_c, 10, 7, 86
5, 142140, Note_on_c, 10, 35, 124
5, 142149, Control_c, 10, 7, 88
5, 142173, Control_c, 10, 7, 89
5, 142186, Note_on_c, 10, 35, 0
5, 142200, Note_on_c, 10, 37, 127
5, 142214, Control_c, 10, 7, 91
5, 142236, Control_c, 10, 7, 92
5, 142248, Note_on_c, 10, 37, 0
5, 142260, Note_on_c, 10, 38, 108
5, 142263, Control_c, 10, 7, 94
5, 142282, Control_c, 10, 7, 95
5, 142306, Note_on_c, 10, 38, 0
5, 142310, Control_c, 10, 7, 97
5, 142310, Channel_aftertouch_c, 10, 6
5, 142320, Note_on_c, 10, 40, 114
5, 142321, Channel_aftertouch_c, 10, 3
5, 142332, Channel_aftertouch_c, 10, 1
5, 142338, Control_c, 10, 7, 98
5, 142357, Control_c, 10, 7, 100
5, 142358, Note_on_c, 10, 40, 0
5, 142375, Control_c, 10, 7, 101
5, 142380, Note_on_c, 10, 42, 111
5, 142418, Note_on_c, 10, 42, 0
5, 142439, Control_c, 10, 7, 103
5, 142440, Note_on_c, 10, 44, 96
5, 142483, Note_on_c, 10, 44, 0
5, 142489, Control_c, 10, 7, 104
5, 142500, Note_on_c, 10, 45, 74
5, 142553, Note_on_c, 10, 45, 0
5, 142560, Note_on_c, 10, 42, 124
5, 142620, Note_on_c, 10, 42, 0
5, 142680, Note_on_c, 10, 30, 127
5, 142829, Control_c, 10, 7, 103
5, 142837, Control_c, 10, 7, 102
5, 142846, Control_c, 10, 7, 100
5, 142865, Control_c, 10, 7, 99
5, 142898, Note_on_c, 10, 30, 0
5, 142920, Note_on_c, 10, 28, 89
5, 142965, Control_c, 10, 7, 97
5, 143014, Note_on_c, 10, 28, 0
5, 143040, Note_on_c, 10, 26, 124
5, 143114, Note_on_c, 10, 26, 0
5, 143160, Note_on_c, 10, 38, 102
5, 143216, Control_c, 10, 7, 96
5, 143361, Note_on_c, 10, 38, 0
5, 143400, Note_on_c, 10, 37, 93
5, 143485, Note_on_c, 10, 37, 0
5, 143520, Note_on_c, 10, 35, 77
5, 143607, Note_on_c, 10, 35, 0
5, 143640, Note_on_c, 10, 47, 102
5, 143654, Control_c, 10, 7, 94
5, 143673, Control_c, 10, 7, 93
5, 143766, Channel_aftertouch_c, 10, 6
5, 143770, Channel_aftertouch_c, 10, 3
5, 143779, Channel_aftertouch_c, 10, 1
5, 143850, Control_c, 10, 7, 91
5, 143859, Note_on_c, 10, 47, 0
5, 143876, Control_c, 10, 7, 90
5, 143880, Note_on_c, 10, 45, 108
5, 143961, Note_on_c, 10, 45, 0
5, 144000, Note_on_c, 10, 44, 66
5, 144394, Control_c, 10, 7, 88
5, 144589, Note_on_c, 10, 44, 0
5, 144600, Note_on_c, 10, 40, 89
5, 144686, Note_on_c, 10, 40, 0
5, 144720, Note_on_c, 10, 42, 93
5, 144818, Note_on_c, 10, 42, 0
5, 144840, Note_on_c, 10, 44, 117
5, 144935, Note_on_c, 10, 44, 0
5, 144960, Note_on_c, 10, 45, 93
5, 145055, Note_on_c, 10, 45, 0
5, 145080, Note_on_c, 10, 37, 127
5, 145117, Note_on_c, 10, 37, 0
5, 145140, Note_on_c, 10, 37, 127
5, 145183, Note_on_c, 10, 37, 0
5, 145184, Control_c, 10, 7, 89
5, 145200, Note_on_c, 10, 38, 108
5, 145237, Note_on_c, 10, 38, 0
5, 145260, Note_on_c, 10, 38, 108
5, 145304, Note_on_c, 10, 38, 0
5, 145320, Note_on_c, 10, 40, 93
5, 145326, Control_c, 10, 7, 87
5, 145352, Note_on_c, 10, 40, 0
5, 145380, Note_on_c, 10, 40, 93
5, 145396, Control_c, 10, 7, 88
5, 145428, Note_on_c, 10, 40, 0
5, 145440, Note_on_c, 10, 33, 117
5, 145656, Note_on_c, 10, 33, 0
5, 146040, Note_on_c, 10, 37, 93
5, 146083, Note_on_c, 10, 37, 0
5, 146100, Note_on_c, 10, 37, 93
5, 146150, Note_on_c, 10, 37, 0
5, 146160, Note_on_c, 10, 38, 89
5, 146199, Note_on_c, 10, 38, 0
5, 146218, Channel_aftertouch_c, 10, 6
5, 146220, Note_on_c, 10, 38, 86
5, 146227, Channel_aftertouch_c, 10, 0
5, 146229, Channel_aftertouch_c, 10, 3
5, 146233, Control_c, 10, 7, 88
5, 146238, Channel_aftertouch_c, 10, 0
5, 146239, Channel_aftertouch_c, 10, 1
5, 146248, Channel_aftertouch_c, 10, 0
5, 146253, Control_c, 10, 7, 89
5, 146264, Note_on_c, 10, 38, 0
5, 146280, Note_on_c, 10, 40, 124
5, 146311, Note_on_c, 10, 40, 0
5, 146340, Note_on_c, 10, 40, 120
5, 146380, Control_c, 10, 7, 90
5, 146384, Control_c, 10, 7, 91
5, 146387, Note_on_c, 10, 40, 0
5, 146400, Note_on_c, 10, 33, 96
5, 146400, Control_c, 10, 7, 88
5, 146425, Control_c, 10, 7, 87
5, 146616, Note_on_c, 10, 33, 0
5, 147960, Note_on_c, 10, 37, 127
5, 147996, Note_on_c, 10, 37, 0
5, 148020, Note_on_c, 10, 37, 111
5, 148065, Note_on_c, 10, 37, 0
5, 148080, Note_on_c, 10, 38, 126
5, 148119, Note_on_c, 10, 38, 0
5, 148140, Note_on_c, 10, 38, 120
5, 148179, Note_on_c, 10, 38, 0
5, 148200, Note_on_c, 10, 40, 127
5, 148229, Note_on_c, 10, 40, 0
5, 148260, Note_on_c, 10, 40, 102
5, 148286, Control_c, 10, 7, 98
5, 148307, Note_on_c, 10, 40, 0
5, 148320, Note_on_c, 10, 42, 111
5, 148354, Note_on_c, 10, 42, 0
5, 148380, Note_on_c, 10, 42, 105
5, 148423, Note_on_c, 10, 42, 0
5, 148440, Note_on_c, 10, 40, 84
5, 148479, Note_on_c, 10, 40, 0
5, 148480, Control_c, 10, 7, 100
5, 148499, Control_c, 10, 7, 101
5, 148500, Note_on_c, 10, 40, 77
5, 148546, Note_on_c, 10, 40, 0
5, 148560, Note_on_c, 10, 42, 126
5, 148601, Note_on_c, 10, 42, 0
5, 148620, Note_on_c, 10, 42, 127
5, 148674, Note_on_c, 10, 42, 0
5, 148680, Note_on_c, 10, 44, 127
5, 148688, Channel_aftertouch_c, 10, 3
5, 148692, Control_c, 10, 7, 103
5, 148696, Channel_aftertouch_c, 10, 0
5, 148698, Channel_aftertouch_c, 10, 1
5, 148707, Channel_aftertouch_c, 10, 0
5, 148716, Note_on_c, 10, 44, 0
5, 148740, Note_on_c, 10, 44, 74
5, 148741, Channel_aftertouch_c, 10, 6
5, 148749, Channel_aftertouch_c, 10, 0
5, 148749, Control_c, 10, 7, 104
5, 148751, Channel_aftertouch_c, 10, 3
5, 148760, Channel_aftertouch_c, 10, 0
5, 148762, Channel_aftertouch_c, 10, 1
5, 148771, Channel_aftertouch_c, 10, 0
5, 148786, Note_on_c, 10, 44, 0
5, 148800, Note_on_c, 10, 45, 102
5, 148891, Note_on_c, 10, 45, 0
5, 148920, Note_on_c, 10, 42, 127
5, 148941, Control_c, 10, 7, 106
5, 149013, Note_on_c, 10, 42, 0
5, 149040, Note_on_c, 10, 38, 111
5, 149130, Note_on_c, 10, 38, 0
5, 149160, Note_on_c, 10, 40, 127
5, 149207, Control_c, 10, 7, 107
5, 149268, Note_on_c, 10, 40, 0
5, 149280, Note_on_c, 10, 33, 111
5, 149343, Control_c, 10, 7, 106
5, 149364, Control_c, 10, 7, 105
5, 149385, Control_c, 10, 7, 103
5, 149398, Control_c, 10, 7, 102
5, 149496, Note_on_c, 10, 33, 0
5, 149527, Control_c, 10, 7, 100
5, 149552, Control_c, 10, 7, 99
5, 149578, Control_c, 10, 7, 97
5, 149600, Control_c, 10, 7, 96
5, 149620, Control_c, 10, 7, 94
5, 149693, Control_c, 10, 7, 95
5, 149722, Control_c, 10, 7, 97
5, 149745, Control_c, 10, 7, 98
5, 149760, Note_on_c, 10, 38, 127
5, 149976, Note_on_c, 10, 38, 0
5, 150113, Note_on_c, 10, 26, 93
5, 150329, Note_on_c, 10, 26, 0
5, 150353, Note_on_c, 10, 38, 127
5, 150569, Note_on_c, 10, 38, 0
5, 150635, Control_c, 10, 7, 97
5, 150668, Control_c, 10, 7, 96
5, 150688, Control_c, 10, 7, 94
5, 152922, Control_c, 10, 7, 87
5, 152952, Control_c, 10, 7, 88
5, 152964, Control_c, 10, 7, 89
5, 152978, Control_c, 10, 7, 91
5, 152987, Control_c, 10, 7, 92
5, 152995, Control_c, 10, 7, 94
5, 153000, Note_on_c, 10, 26, 126
5, 153058, Note_on_c, 10, 26, 0
5, 153070, Channel_aftertouch_c, 10, 1
5, 153120, Note_on_c, 10, 38, 84
5, 153165, Note_on_c, 10, 38, 0
5, 153180, Note_on_c, 10, 40, 89
5, 153223, Note_on_c, 10, 40, 0
5, 153240, Note_on_c, 10, 42, 114
5, 153281, Note_on_c, 10, 42, 0
5, 153300, Note_on_c, 10, 40, 89
5, 153342, Note_on_c, 10, 40, 0
5, 153360, Note_on_c, 10, 38, 86
5, 153404, Note_on_c, 10, 38, 0
5, 153420, Note_on_c, 10, 40, 86
5, 153462, Note_on_c, 10, 40, 0
5, 153480, Note_on_c, 10, 42, 114
5, 153519, Note_on_c, 10, 42, 0
5, 153540, Note_on_c, 10, 40, 111
5, 153587, Note_on_c, 10, 40, 0
5, 153600, Note_on_c, 10, 38, 102
5, 153643, Note_on_c, 10, 38, 0
5, 153660, Note_on_c, 10, 40, 111
5, 153706, Note_on_c, 10, 40, 0
5, 153720, Note_on_c, 10, 42, 105
5, 153758, Note_on_c, 10, 42, 0
5, 153780, Note_on_c, 10, 40, 81
5, 153827, Note_on_c, 10, 40, 0
5, 153840, Note_on_c, 10, 38, 99
5, 153927, Note_on_c, 10, 38, 0
5, 153960, Note_on_c, 10, 26, 123
5, 154071, Note_on_c, 10, 26, 0
5, 156000, Note_on_c, 10, 38, 84
5, 156240, Note_on_c, 10, 37, 77
5, 156264, Control_c, 10, 7, 93
5, 156432, Note_on_c, 10, 38, 0
5, 156480, Note_on_c, 10, 35, 66
5, 156672, Note_on_c, 10, 37, 0
5, 156696, Note_on_c, 10, 35, 0
5, 156720, Note_on_c, 10, 40, 69
5, 156727, Control_c, 10, 7, 84
5, 156730, Control_c, 10, 7, 91
5, 156741, Control_c, 10, 7, 90
5, 156741, Control_c, 10, 7, 82
5, 156759, Control_c, 10, 7, 81
5, 156774, Control_c, 10, 7, 88
5, 156783, Control_c, 10, 7, 87
5, 156793, Control_c, 10, 7, 79
5, 156793, Control_c, 10, 7, 85
5, 156804, Control_c, 10, 7, 78
5, 156815, Control_c, 10, 7, 76
5, 156833, Control_c, 10, 7, 75
5, 156960, Note_on_c, 10, 33, 74
5, 157080, Note_on_c, 10, 33, 0
5, 157152, Note_on_c, 10, 40, 0
5, 157440, Note_on_c, 10, 30, 127
5, 157483, Note_on_c, 10, 30, 0
5, 157500, Note_on_c, 10, 31, 120
5, 157512, Control_c, 10, 7, 76
5, 157521, Control_c, 10, 7, 77
5, 157534, Control_c, 10, 7, 79
5, 157546, Control_c, 10, 7, 80
5, 157549, Note_on_c, 10, 31, 0
5, 157555, Control_c, 10, 7, 82
5, 157560, Note_on_c, 10, 33, 126
5, 157564, Control_c, 10, 7, 83
5, 157587, Control_c, 10, 7, 85
5, 157605, Control_c, 10, 7, 86
5, 157611, Note_on_c, 10, 33, 0
5, 157620, Note_on_c, 10, 35, 108
5, 157635, Control_c, 10, 7, 88
5, 157651, Control_c, 10, 7, 89
5, 157664, Note_on_c, 10, 35, 0
5, 157680, Note_on_c, 10, 37, 72
5, 157691, Control_c, 10, 7, 91
5, 157702, Control_c, 10, 7, 92
5, 157713, Control_c, 10, 7, 94
5, 157722, Control_c, 10, 7, 95
5, 157731, Note_on_c, 10, 37, 0
5, 157740, Note_on_c, 10, 38, 86
5, 157753, Control_c, 10, 7, 97
5, 157771, Note_on_c, 10, 38, 0
5, 157778, Control_c, 10, 7, 98
5, 157800, Note_on_c, 10, 40, 124
5, 157807, Channel_aftertouch_c, 10, 3
5, 157811, Control_c, 10, 7, 100
5, 157817, Channel_aftertouch_c, 10, 1
5, 157837, Note_on_c, 10, 40, 0
5, 157850, Control_c, 10, 7, 101
5, 157860, Note_on_c, 10, 42, 93
5, 157900, Control_c, 10, 7, 103
5, 157900, Control_c, 10, 7, 102
5, 157908, Note_on_c, 10, 42, 0
5, 157908, Control_c, 10, 7, 100
5, 157918, Control_c, 10, 7, 99
5, 157920, Note_on_c, 10, 35, 123
5, 157935, Control_c, 10, 7, 97
5, 157944, Control_c, 10, 7, 96
5, 157952, Control_c, 10, 7, 94
5, 157961, Control_c, 10, 7, 93
5, 157970, Control_c, 10, 7, 91
5, 157978, Control_c, 10, 7, 90
5, 157987, Control_c, 10, 7, 87
5, 157995, Control_c, 10, 7, 85
5, 158004, Control_c, 10, 7, 84
5, 158019, Control_c, 10, 7, 82
5, 158031, Control_c, 10, 7, 81
5, 158136, Note_on_c, 10, 35, 0
5, 158174, Control_c, 10, 7, 79
5, 158187, Control_c, 10, 7, 78
5, 158205, Control_c, 10, 7, 76
5, 158215, Control_c, 10, 7, 75
5, 158227, Control_c, 10, 7, 73
5, 158242, Control_c, 10, 7, 72
5, 158253, Control_c, 10, 7, 70
5, 158267, Control_c, 10, 7, 69
5, 158278, Control_c, 10, 7, 67
5, 158287, Control_c, 10, 7, 66
5, 158295, Control_c, 10, 7, 64
5, 158400, Note_on_c, 10, 28, 126
5, 158411, Control_c, 10, 7, 65
5, 158434, Control_c, 10, 7, 67
5, 158446, Control_c, 10, 7, 68
5, 158449, Note_on_c, 10, 28, 0
5, 158454, Control_c, 10, 7, 70
5, 158460, Note_on_c, 10, 30, 127
5, 158463, Control_c, 10, 7, 71
5, 158474, Control_c, 10, 7, 73
5, 158483, Control_c, 10, 7, 74
5, 158492, Control_c, 10, 7, 76
5, 158500, Control_c, 10, 7, 77
5, 158504, Note_on_c, 10, 30, 0
5, 158509, Control_c, 10, 7, 79
5, 158517, Control_c, 10, 7, 80
5, 158520, Note_on_c, 10, 31, 108
5, 158527, Control_c, 10, 7, 82
5, 158536, Control_c, 10, 7, 83
5, 158552, Control_c, 10, 7, 85
5, 158568, Note_on_c, 10, 31, 0
5, 158573, Control_c, 10, 7, 86
5, 158580, Note_on_c, 10, 33, 127
5, 158589, Control_c, 10, 7, 88
5, 158598, Control_c, 10, 7, 89
5, 158617, Control_c, 10, 7, 91
5, 158625, Note_on_c, 10, 33, 0
5, 158628, Control_c, 10, 7, 92
5, 158638, Control_c, 10, 7, 94
5, 158640, Note_on_c, 10, 35, 124
5, 158647, Control_c, 10, 7, 95
5, 158668, Control_c, 10, 7, 97
5, 158675, Note_on_c, 10, 35, 0
5, 158677, Control_c, 10, 7, 98
5, 158686, Control_c, 10, 7, 100
5, 158700, Note_on_c, 10, 37, 127
5, 158705, Control_c, 10, 7, 101
5, 158736, Note_on_c, 10, 37, 0
5, 158742, Control_c, 10, 7, 103
5, 158750, Channel_aftertouch_c, 10, 18
5, 158759, Channel_aftertouch_c, 10, 0
5, 158760, Note_on_c, 10, 38, 124
5, 158761, Channel_aftertouch_c, 10, 9
5, 158769, Channel_aftertouch_c, 10, 0
5, 158772, Channel_aftertouch_c, 10, 4
5, 158780, Channel_aftertouch_c, 10, 0
5, 158783, Channel_aftertouch_c, 10, 2
5, 158787, Control_c, 10, 7, 104
5, 158787, Channel_aftertouch_c, 10, 0
5, 158799, Note_on_c, 10, 38, 0
5, 158809, Control_c, 10, 7, 106
5, 158820, Note_on_c, 10, 40, 99
5, 158869, Note_on_c, 10, 40, 0
5, 158871, Control_c, 10, 7, 106
5, 158873, Control_c, 10, 7, 107
5, 158879, Control_c, 10, 7, 105
5, 158880, Note_on_c, 10, 33, 127
5, 158888, Control_c, 10, 7, 102
5, 158896, Control_c, 10, 7, 100
5, 158905, Control_c, 10, 7, 99
5, 158914, Control_c, 10, 7, 97
5, 158922, Control_c, 10, 7, 94
5, 158931, Control_c, 10, 7, 93
5, 158939, Control_c, 10, 7, 91
5, 158948, Control_c, 10, 7, 90
5, 158956, Control_c, 10, 7, 88
5, 158965, Control_c, 10, 7, 87
5, 158974, Control_c, 10, 7, 85
5, 158983, Control_c, 10, 7, 84
5, 158998, Control_c, 10, 7, 82
5, 159096, Note_on_c, 10, 33, 0
5, 159139, Control_c, 10, 7, 81
5, 159173, Control_c, 10, 7, 79
5, 159189, Control_c, 10, 7, 78
5, 159217, Control_c, 10, 7, 76
5, 159240, Control_c, 10, 7, 75
5, 159270, Control_c, 10, 7, 73
5, 159298, Control_c, 10, 7, 72
5, 159360, Note_on_c, 10, 26, 127
5, 159391, Control_c, 10, 7, 73
5, 159403, Note_on_c, 10, 26, 0
5, 159407, Control_c, 10, 7, 74
5, 159420, Note_on_c, 10, 28, 102
5, 159429, Control_c, 10, 7, 76
5, 159442, Control_c, 10, 7, 77
5, 159466, Note_on_c, 10, 28, 0
5, 159480, Note_on_c, 10, 30, 126
5, 159484, Control_c, 10, 7, 79
5, 159510, Control_c, 10, 7, 80
5, 159532, Note_on_c, 10, 30, 0
5, 159540, Note_on_c, 10, 31, 102
5, 159549, Control_c, 10, 7, 82
5, 159565, Control_c, 10, 7, 83
5, 159587, Note_on_c, 10, 31, 0
5, 159587, Control_c, 10, 7, 85
5, 159598, Control_c, 10, 7, 86
5, 159600, Note_on_c, 10, 33, 108
5, 159608, Control_c, 10, 7, 88
5, 159610, Channel_aftertouch_c, 10, 3
5, 159617, Control_c, 10, 7, 89
5, 159620, Channel_aftertouch_c, 10, 1
5, 159632, Control_c, 10, 7, 91
5, 159634, Note_on_c, 10, 33, 0
5, 159640, Control_c, 10, 7, 92
5, 159649, Control_c, 10, 7, 94
5, 159657, Control_c, 10, 7, 95
5, 159660, Note_on_c, 10, 35, 120
5, 159669, Control_c, 10, 7, 97
5, 159693, Control_c, 10, 7, 98
5, 159695, Note_on_c, 10, 35, 0
5, 159711, Control_c, 10, 7, 100
5, 159720, Note_on_c, 10, 37, 127
5, 159722, Control_c, 10, 7, 101
5, 159759, Note_on_c, 10, 37, 0
5, 159780, Note_on_c, 10, 38, 108
5, 159822, Note_on_c, 10, 38, 0
5, 159840, Note_on_c, 10, 35, 127
5, 159900, Note_on_c, 10, 35, 0
5, 159939, Control_c, 10, 7, 103
5, 159960, Note_on_c, 10, 47, 111
5, 160188, Note_on_c, 10, 47, 0
5, 160200, Note_on_c, 10, 45, 96
5, 160264, Control_c, 10, 7, 102
5, 160267, Note_on_c, 10, 45, 0
5, 160293, Control_c, 10, 7, 100
5, 160320, Note_on_c, 10, 43, 84
5, 160370, Note_on_c, 10, 43, 0
5, 160440, Note_on_c, 10, 31, 96
5, 160482, Control_c, 10, 7, 99
5, 160662, Note_on_c, 10, 31, 0
5, 160680, Note_on_c, 10, 30, 81
5, 160771, Note_on_c, 10, 30, 0
5, 160800, Note_on_c, 10, 28, 111
5, 160870, Note_on_c, 10, 28, 0
5, 160920, Note_on_c, 10, 40, 124
5, 161086, Channel_aftertouch_c, 10, 6
5, 161097, Channel_aftertouch_c, 10, 3
5, 161106, Control_c, 10, 7, 97
5, 161108, Channel_aftertouch_c, 10, 1
5, 161128, Note_on_c, 10, 40, 0
5, 161160, Note_on_c, 10, 38, 111
5, 161162, Control_c, 10, 7, 96
5, 161232, Note_on_c, 10, 38, 0
5, 161280, Note_on_c, 10, 37, 81
5, 161739, Control_c, 10, 7, 94
5, 161862, Note_on_c, 10, 37, 0
5, 161880, Note_on_c, 10, 35, 84
5, 161976, Note_on_c, 10, 35, 0
5, 162000, Note_on_c, 10, 37, 99
5, 162088, Note_on_c, 10, 37, 0
5, 162120, Note_on_c, 10, 33, 74
5, 162214, Note_on_c, 10, 33, 0
5, 162240, Note_on_c, 10, 38, 86
5, 162299, Control_c, 10, 7, 95
5, 162329, Note_on_c, 10, 38, 0
5, 162360, Note_on_c, 10, 30, 105
5, 162400, Note_on_c, 10, 30, 0
5, 162420, Note_on_c, 10, 30, 123
5, 162466, Note_on_c, 10, 30, 0
5, 162480, Note_on_c, 10, 31, 127
5, 162520, Note_on_c, 10, 31, 0
5, 162540, Note_on_c, 10, 31, 123
5, 162583, Note_on_c, 10, 31, 0
5, 162600, Note_on_c, 10, 33, 123
5, 162633, Note_on_c, 10, 33, 0
5, 162660, Note_on_c, 10, 33, 117
5, 162705, Note_on_c, 10, 33, 0
5, 162720, Note_on_c, 10, 26, 123
5, 162936, Note_on_c, 10, 26, 0
5, 162970, Control_c, 10, 7, 94
5, 163320, Note_on_c, 10, 30, 84
5, 163356, Note_on_c, 10, 30, 0
5, 163380, Note_on_c, 10, 30, 89
5, 163425, Note_on_c, 10, 30, 0
5, 163440, Note_on_c, 10, 31, 81
5, 163479, Note_on_c, 10, 31, 0
5, 163500, Note_on_c, 10, 31, 84
5, 163545, Note_on_c, 10, 31, 0
5, 163560, Note_on_c, 10, 33, 89
5, 163594, Note_on_c, 10, 33, 0
5, 163620, Note_on_c, 10, 33, 84
5, 163665, Control_c, 10, 7, 95
5, 163668, Note_on_c, 10, 33, 0
5, 163680, Note_on_c, 10, 26, 96
5, 163762, Control_c, 10, 7, 97
5, 163896, Note_on_c, 10, 26, 0
5, 164033, Control_c, 10, 7, 98
5, 164682, Control_c, 10, 7, 100
5, 165240, Note_on_c, 10, 30, 123
5, 165275, Note_on_c, 10, 30, 0
5, 165300, Note_on_c, 10, 30, 111
5, 165345, Note_on_c, 10, 30, 0
5, 165360, Note_on_c, 10, 31, 93
5, 165400, Note_on_c, 10, 31, 0
5, 165420, Note_on_c, 10, 31, 117
5, 165467, Note_on_c, 10, 31, 0
5, 165480, Note_on_c, 10, 33, 84
5, 165516, Note_on_c, 10, 33, 0
5, 165540, Note_on_c, 10, 33, 105
5, 165543, Control_c, 10, 7, 97
5, 165581, Note_on_c, 10, 33, 0
5, 165600, Note_on_c, 10, 35, 84
5, 165634, Note_on_c, 10, 35, 0
5, 165660, Note_on_c, 10, 35, 77
5, 165703, Note_on_c, 10, 35, 0
5, 165720, Note_on_c, 10, 33, 102
5, 165733, Control_c, 10, 7, 98
5, 165754, Control_c, 10, 7, 100
5, 165758, Note_on_c, 10, 33, 0
5, 165780, Note_on_c, 10, 33, 93
5, 165795, Control_c, 10, 7, 101
5, 165823, Note_on_c, 10, 33, 0
5, 165840, Note_on_c, 10, 35, 124
5, 165870, Note_on_c, 10, 35, 0
5, 165900, Note_on_c, 10, 35, 96
5, 165940, Note_on_c, 10, 35, 0
5, 165960, Note_on_c, 10, 37, 66
5, 166000, Note_on_c, 10, 37, 0
5, 166020, Note_on_c, 10, 37, 120
5, 166035, Control_c, 10, 7, 103
5, 166068, Note_on_c, 10, 37, 0
5, 166080, Note_on_c, 10, 38, 120
5, 166165, Control_c, 10, 7, 104
5, 166171, Note_on_c, 10, 38, 0
5, 166186, Note_on_c, 10, 35, 93
5, 166266, Control_c, 10, 7, 106
5, 166284, Note_on_c, 10, 35, 0
5, 166302, Note_on_c, 10, 31, 96
5, 166329, Control_c, 10, 7, 105
5, 166373, Control_c, 10, 7, 103
5, 166422, Note_on_c, 10, 31, 0
5, 166426, Note_on_c, 10, 33, 117
5, 166485, Control_c, 10, 7, 104
5, 166509, Control_c, 10, 7, 106
5, 166516, Note_on_c, 10, 33, 0
5, 166527, Control_c, 10, 7, 107
5, 166545, Note_on_c, 10, 26, 99
5, 166770, Note_on_c, 10, 26, 0
5, 166770, End_track
6, 0, Start_track
6, 0, Program_c, 0, 6
6, 0, Control_c, 0, 7, 115
6, 0, Note_on_c, 0, 62, 90
6, 0, Note_on_c, 0, 57, 117
6, 0, Note_on_c, 0, 54, 75
6, 123, Channel_aftertouch_c, 0, 64
6, 123, Channel_aftertouch_c, 0, 64
6, 134, Channel_aftertouch_c, 0, 32
6, 135, Channel_aftertouch_c, 0, 32
6, 146, Channel_aftertouch_c, 0, 16
6, 147, Channel_aftertouch_c, 0, 16
6, 159, Channel_aftertouch_c, 0, 8
6, 159, Channel_aftertouch_c, 0, 8
6, 170, Channel_aftertouch_c, 0, 4
6, 170, Channel_aftertouch_c, 0, 4
6, 183, Channel_aftertouch_c, 0, 2
6, 183, Channel_aftertouch_c, 0, 2
6, 194, Channel_aftertouch_c, 0, 1
6, 194, Channel_aftertouch_c, 0, 1
6, 216, Note_on_c, 0, 54, 0
6, 216, Note_on_c, 0, 57, 0
6, 216, Note_on_c, 0, 62, 0
6, 240, Note_on_c, 0, 66, 98
6, 240, Note_on_c, 0, 57, 117
6, 240, Note_on_c, 0, 62, 110
6, 348, Note_on_c, 0, 62, 0
6, 348, Note_on_c, 0, 66, 0
6, 456, Note_on_c, 0, 57, 0
6, 480, Note_on_c, 0, 69, 93
6, 480, Note_on_c, 0, 62, 127
6, 480, Note_on_c, 0, 66, 127
6, 489, Channel_aftertouch_c, 0, 18
6, 490, Channel_aftertouch_c, 0, 18
6, 496, Channel_aftertouch_c, 0, 9
6, 496, Channel_aftertouch_c, 0, 9
6, 507, Channel_aftertouch_c, 0, 4
6, 507, Channel_aftertouch_c, 0, 4
6, 520, Channel_aftertouch_c, 0, 2
6, 520, Channel_aftertouch_c, 0, 2
6, 532, Channel_aftertouch_c, 0, 1
6, 532, Channel_aftertouch_c, 0, 1
6, 588, Note_on_c, 0, 69, 0
6, 696, Note_on_c, 0, 66, 0
6, 696, Note_on_c, 0, 62, 0
6, 840, Note_on_c, 0, 66, 80
6, 840, Note_on_c, 0, 62, 80
6, 888, Note_on_c, 0, 62, 0
6, 888, Note_on_c, 0, 66, 0
6, 900, Note_on_c, 0, 67, 80
6, 900, Note_on_c, 0, 64, 80
6, 948, Note_on_c, 0, 64, 0
6, 948, Note_on_c, 0, 67, 0
6, 960, Note_on_c, 0, 69, 110
6, 960, Note_on_c, 0, 66, 120
6, 1017, Note_on_c, 0, 69, 0
6, 1035, Note_on_c, 0, 66, 0
6, 1080, Note_on_c, 0, 66, 82
6, 1080, Note_on_c, 0, 62, 89
6, 1117, Note_on_c, 0, 66, 0
6, 1124, Note_on_c, 0, 62, 0
6, 1140, Note_on_c, 0, 67, 96
6, 1140, Note_on_c, 0, 64, 72
6, 1180, Note_on_c, 0, 64, 0
6, 1180, Note_on_c, 0, 67, 0
6, 1200, Note_on_c, 0, 69, 90
6, 1200, Note_on_c, 0, 66, 105
6, 1255, Note_on_c, 0, 69, 0
6, 1281, Note_on_c, 0, 66, 0
6, 1320, Note_on_c, 0, 69, 89
6, 1320, Note_on_c, 0, 74, 98
6, 1359, Note_on_c, 0, 69, 0
6, 1380, Note_on_c, 0, 67, 77
6, 1389, Note_on_c, 0, 74, 0
6, 1422, Note_on_c, 0, 67, 0
6, 1440, Note_on_c, 0, 69, 102
6, 1440, Note_on_c, 0, 66, 102
6, 1498, Note_on_c, 0, 69, 0
6, 1519, Note_on_c, 0, 66, 0
6, 1560, Note_on_c, 0, 69, 90
6, 1560, Note_on_c, 0, 62, 96
6, 1604, Note_on_c, 0, 69, 0
6, 1620, Note_on_c, 0, 67, 90
6, 1637, Note_on_c, 0, 62, 0
6, 1670, Note_on_c, 0, 67, 0
6, 1680, Note_on_c, 0, 66, 117
6, 1680, Note_on_c, 0, 62, 99
6, 1743, Note_on_c, 0, 66, 0
6, 1793, Note_on_c, 0, 62, 0
6, 1800, Note_on_c, 0, 64, 96
6, 1839, Note_on_c, 0, 64, 0
6, 1860, Note_on_c, 0, 62, 96
6, 1905, Note_on_c, 0, 62, 0
6, 1920, Note_on_c, 0, 67, 127
6, 1965, Note_on_c, 0, 67, 0
6, 1980, Note_on_c, 0, 69, 90
6, 2025, Note_on_c, 0, 69, 0
6, 2040, Note_on_c, 0, 71, 79
6, 2079, Note_on_c, 0, 71, 0
6, 2100, Note_on_c, 0, 67, 82
6, 2139, Note_on_c, 0, 67, 0
6, 2160, Note_on_c, 0, 66, 96
6, 2206, Note_on_c, 0, 66, 0
6, 2220, Note_on_c, 0, 67, 110
6, 2270, Note_on_c, 0, 67, 0
6, 2280, Note_on_c, 0, 69, 75
6, 2324, Note_on_c, 0, 69, 0
6, 2340, Note_on_c, 0, 66, 73
6, 2379, Note_on_c, 0, 66, 0
6, 2400, Note_on_c, 0, 64, 66
6, 2403, Channel_aftertouch_c, 0, 3
6, 2403, Channel_aftertouch_c, 0, 3
6, 2414, Channel_aftertouch_c, 0, 1
6, 2414, Channel_aftertouch_c, 0, 1
6, 2430, Note_on_c, 0, 64, 0
6, 2460, Note_on_c, 0, 69, 82
6, 2502, Note_on_c, 0, 69, 0
6, 2520, Note_on_c, 0, 71, 93
6, 2562, Note_on_c, 0, 71, 0
6, 2580, Note_on_c, 0, 73, 88
6, 2620, Note_on_c, 0, 73, 0
6, 2640, Note_on_c, 0, 74, 127
6, 2685, Note_on_c, 0, 74, 0
6, 2700, Note_on_c, 0, 76, 96
6, 2740, Note_on_c, 0, 76, 0
6, 2760, Note_on_c, 0, 78, 113
6, 2804, Note_on_c, 0, 78, 0
6, 2820, Note_on_c, 0, 79, 127
6, 2862, Note_on_c, 0, 79, 0
6, 2880, Note_on_c, 0, 81, 102
6, 2886, Channel_aftertouch_c, 0, 15
6, 2887, Channel_aftertouch_c, 0, 15
6, 2898, Channel_aftertouch_c, 0, 7
6, 2898, Channel_aftertouch_c, 0, 7
6, 2911, Channel_aftertouch_c, 0, 3
6, 2911, Channel_aftertouch_c, 0, 3
6, 2928, Note_on_c, 0, 81, 0
6, 2940, Note_on_c, 0, 69, 66
6, 2946, Channel_aftertouch_c, 0, 9
6, 2946, Channel_aftertouch_c, 0, 9
6, 2960, Channel_aftertouch_c, 0, 4
6, 2960, Channel_aftertouch_c, 0, 4
6, 2972, Channel_aftertouch_c, 0, 2
6, 2972, Channel_aftertouch_c, 0, 2
6, 2979, Note_on_c, 0, 69, 0
6, 3000, Note_on_c, 0, 81, 88
6, 3044, Note_on_c, 0, 81, 0
6, 3060, Note_on_c, 0, 69, 93
6, 3104, Note_on_c, 0, 69, 0
6, 3120, Note_on_c, 0, 81, 127
6, 3130, Channel_aftertouch_c, 0, 19
6, 3130, Channel_aftertouch_c, 0, 19
6, 3142, Channel_aftertouch_c, 0, 9
6, 3143, Channel_aftertouch_c, 0, 9
6, 3157, Channel_aftertouch_c, 0, 1
6, 3157, Channel_aftertouch_c, 0, 1
6, 3171, Note_on_c, 0, 81, 0
6, 3180, Note_on_c, 0, 69, 127
6, 3230, Note_on_c, 0, 69, 0
6, 3240, Note_on_c, 0, 81, 127
6, 3290, Note_on_c, 0, 81, 0
6, 3300, Note_on_c, 0, 69, 127
6, 3345, Note_on_c, 0, 69, 0
6, 3360, Note_on_c, 0, 81, 127
6, 3370, Channel_aftertouch_c, 0, 9
6, 3370, Channel_aftertouch_c, 0, 9
6, 3372, Channel_aftertouch_c, 0, 6
6, 3372, Channel_aftertouch_c, 0, 6
6, 3382, Channel_aftertouch_c, 0, 4
6, 3383, Channel_aftertouch_c, 0, 4
6, 3394, Channel_aftertouch_c, 0, 2
6, 3394, Channel_aftertouch_c, 0, 2
6, 3396, Channel_aftertouch_c, 0, 1
6, 3396, Channel_aftertouch_c, 0, 1
6, 3407, Channel_aftertouch_c, 0, 1
6, 3407, Channel_aftertouch_c, 0, 1
6, 3415, Note_on_c, 0, 81, 0
6, 3420, Note_on_c, 0, 78, 93
6, 3473, Note_on_c, 0, 78, 0
6, 3480, Note_on_c, 0, 75, 88
6, 3525, Note_on_c, 0, 75, 0
6, 3540, Note_on_c, 0, 71, 85
6, 3569, Note_on_c, 0, 71, 0
6, 3600, Note_on_c, 0, 71, 117
6, 3659, Note_on_c, 0, 71, 0
6, 3660, Note_on_c, 0, 75, 96
6, 3705, Note_on_c, 0, 75, 0
6, 3720, Note_on_c, 0, 78, 127
6, 3773, Note_on_c, 0, 78, 0
6, 3780, Note_on_c, 0, 81, 127
6, 3825, Note_on_c, 0, 81, 0
6, 3840, Note_on_c, 0, 79, 106
6, 3889, Note_on_c, 0, 79, 0
6, 3900, Note_on_c, 0, 67, 63
6, 3944, Note_on_c, 0, 67, 0
6, 3960, Note_on_c, 0, 79, 96
6, 4010, Note_on_c, 0, 79, 0
6, 4020, Note_on_c, 0, 67, 79
6, 4062, Note_on_c, 0, 67, 0
6, 4080, Note_on_c, 0, 79, 102
6, 4128, Note_on_c, 0, 79, 0
6, 4140, Note_on_c, 0, 67, 102
6, 4188, Note_on_c, 0, 67, 0
6, 4200, Note_on_c, 0, 79, 96
6, 4250, Note_on_c, 0, 79, 0
6, 4260, Note_on_c, 0, 79, 20
6, 4266, Note_on_c, 0, 79, 0
6, 4320, Note_on_c, 0, 79, 127
6, 4375, Note_on_c, 0, 79, 0
6, 4380, Note_on_c, 0, 76, 117
6, 4425, Note_on_c, 0, 76, 0
6, 4440, Note_on_c, 0, 73, 102
6, 4489, Note_on_c, 0, 73, 0
6, 4500, Note_on_c, 0, 69, 75
6, 4530, Note_on_c, 0, 69, 0
6, 4560, Note_on_c, 0, 69, 96
6, 4616, Note_on_c, 0, 69, 0
6, 4620, Note_on_c, 0, 73, 96
6, 4669, Note_on_c, 0, 73, 0
6, 4680, Note_on_c, 0, 76, 90
6, 4733, Note_on_c, 0, 76, 0
6, 4740, Note_on_c, 0, 79, 110
6, 4793, Note_on_c, 0, 79, 0
6, 4800, Note_on_c, 0, 78, 88
6, 4852, Note_on_c, 0, 78, 0
6, 4860, Note_on_c, 0, 66, 63
6, 4906, Note_on_c, 0, 66, 0
6, 4920, Note_on_c, 0, 78, 85
6, 4974, Note_on_c, 0, 78, 0
6, 4980, Note_on_c, 0, 66, 70
6, 5018, Note_on_c, 0, 66, 0
6, 5040, Note_on_c, 0, 78, 73
6, 5097, Note_on_c, 0, 78, 0
6, 5100, Note_on_c, 0, 66, 88
6, 5139, Note_on_c, 0, 66, 0
6, 5160, Note_on_c, 0, 78, 120
6, 5202, Note_on_c, 0, 78, 0
6, 5220, Note_on_c, 0, 78, 124
6, 5232, Channel_aftertouch_c, 0, 1
6, 5232, Channel_aftertouch_c, 0, 1
6, 5262, Note_on_c, 0, 78, 0
6, 5280, Note_on_c, 0, 79, 106
6, 5332, Note_on_c, 0, 79, 0
6, 5340, Note_on_c, 0, 81, 127
6, 5389, Note_on_c, 0, 81, 0
6, 5400, Note_on_c, 0, 83, 93
6, 5440, Note_on_c, 0, 83, 0
6, 5460, Note_on_c, 0, 79, 93
6, 5492, Note_on_c, 0, 79, 0
6, 5520, Note_on_c, 0, 78, 113
6, 5564, Note_on_c, 0, 78, 0
6, 5580, Note_on_c, 0, 79, 113
6, 5619, Note_on_c, 0, 79, 0
6, 5640, Note_on_c, 0, 81, 88
6, 5688, Note_on_c, 0, 81, 0
6, 5700, Note_on_c, 0, 78, 120
6, 5744, Note_on_c, 0, 78, 0
6, 5760, Note_on_c, 0, 76, 127
6, 5805, Note_on_c, 0, 76, 0
6, 5820, Note_on_c, 0, 78, 88
6, 5864, Note_on_c, 0, 78, 0
6, 5880, Note_on_c, 0, 79, 113
6, 5922, Note_on_c, 0, 79, 0
6, 5940, Note_on_c, 0, 76, 93
6, 5977, Note_on_c, 0, 76, 0
6, 6000, Note_on_c, 0, 74, 90
6, 6045, Note_on_c, 0, 74, 0
6, 6060, Note_on_c, 0, 76, 102
6, 6104, Note_on_c, 0, 76, 0
6, 6120, Note_on_c, 0, 78, 110
6, 6157, Note_on_c, 0, 78, 0
6, 6180, Note_on_c, 0, 74, 93
6, 6224, Note_on_c, 0, 74, 0
6, 6240, Note_on_c, 0, 73, 98
6, 6280, Note_on_c, 0, 73, 0
6, 6300, Note_on_c, 0, 74, 96
6, 6340, Note_on_c, 0, 74, 0
6, 6360, Note_on_c, 0, 76, 82
6, 6393, Note_on_c, 0, 76, 0
6, 6420, Note_on_c, 0, 73, 73
6, 6456, Note_on_c, 0, 73, 0
6, 6480, Note_on_c, 0, 67, 106
6, 6522, Note_on_c, 0, 67, 0
6, 6540, Note_on_c, 0, 69, 102
6, 6584, Note_on_c, 0, 69, 0
6, 6600, Note_on_c, 0, 71, 96
6, 6636, Note_on_c, 0, 71, 0
6, 6660, Note_on_c, 0, 67, 98
6, 6699, Note_on_c, 0, 67, 0
6, 6720, Note_on_c, 0, 64, 127
6, 6758, Note_on_c, 0, 64, 0
6, 6780, Note_on_c, 0, 66, 96
6, 6826, Note_on_c, 0, 66, 0
6, 6840, Note_on_c, 0, 67, 102
6, 6889, Note_on_c, 0, 67, 0
6, 6900, Note_on_c, 0, 64, 90
6, 6938, Note_on_c, 0, 64, 0
6, 6960, Note_on_c, 0, 61, 110
6, 6999, Note_on_c, 0, 61, 0
6, 7020, Note_on_c, 0, 62, 96
6, 7064, Note_on_c, 0, 62, 0
6, 7080, Note_on_c, 0, 64, 85
6, 7119, Note_on_c, 0, 64, 0
6, 7140, Note_on_c, 0, 61, 110
6, 7173, Note_on_c, 0, 61, 0
6, 7200, Note_on_c, 0, 57, 110
6, 7343, Note_on_c, 0, 57, 0
6, 7560, Note_on_c, 0, 76, 110
6, 7620, Note_on_c, 0, 78, 88
6, 7624, Note_on_c, 0, 76, 0
6, 7637, Note_on_c, 0, 78, 0
6, 7650, Note_on_c, 0, 79, 96
6, 7680, Note_on_c, 0, 78, 93
6, 7682, Note_on_c, 0, 79, 0
6, 7794, Note_on_c, 0, 78, 0
6, 7800, Note_on_c, 0, 76, 117
6, 7838, Note_on_c, 0, 76, 0
6, 7860, Note_on_c, 0, 74, 96
6, 7896, Note_on_c, 0, 74, 0
6, 7920, Note_on_c, 0, 76, 127
6, 7991, Note_on_c, 0, 76, 0
6, 8040, Note_on_c, 0, 74, 93
6, 8090, Note_on_c, 0, 74, 0
6, 8100, Note_on_c, 0, 73, 88
6, 8140, Note_on_c, 0, 73, 0
6, 8160, Note_on_c, 0, 74, 88
6, 8210, Note_on_c, 0, 74, 0
6, 8280, Note_on_c, 0, 69, 127
6, 8324, Note_on_c, 0, 69, 0
6, 8340, Note_on_c, 0, 57, 85
6, 8382, Note_on_c, 0, 57, 0
6, 8400, Note_on_c, 0, 71, 88
6, 8453, Note_on_c, 0, 71, 0
6, 8460, Note_on_c, 0, 59, 73
6, 8489, Note_on_c, 0, 59, 0
6, 8520, Note_on_c, 0, 73, 96
6, 8559, Note_on_c, 0, 73, 0
6, 8580, Note_on_c, 0, 61, 70
6, 8613, Note_on_c, 0, 61, 0
6, 8640, Note_on_c, 0, 74, 124
6, 8688, Note_on_c, 0, 74, 0
6, 8700, Note_on_c, 0, 62, 96
6, 8728, Note_on_c, 0, 62, 0
6, 8760, Note_on_c, 0, 69, 96
6, 8802, Note_on_c, 0, 69, 0
6, 8820, Note_on_c, 0, 57, 82
6, 8862, Note_on_c, 0, 57, 0
6, 8880, Note_on_c, 0, 71, 102
6, 8928, Note_on_c, 0, 71, 0
6, 8940, Note_on_c, 0, 59, 90
6, 8970, Note_on_c, 0, 59, 0
6, 9000, Note_on_c, 0, 73, 98
6, 9042, Note_on_c, 0, 73, 0
6, 9060, Note_on_c, 0, 61, 70
6, 9091, Note_on_c, 0, 61, 0
6, 9120, Note_on_c, 0, 74, 90
6, 9168, Note_on_c, 0, 74, 0
6, 9180, Note_on_c, 0, 76, 102
6, 9212, Note_on_c, 0, 76, 0
6, 9240, Note_on_c, 0, 78, 82
6, 9291, Note_on_c, 0, 78, 0
6, 9300, Note_on_c, 0, 74, 113
6, 9344, Note_on_c, 0, 74, 0
6, 9360, Note_on_c, 0, 79, 96
6, 9406, Note_on_c, 0, 79, 0
6, 9420, Note_on_c, 0, 76, 113
6, 9464, Note_on_c, 0, 76, 0
6, 9480, Note_on_c, 0, 81, 102
6, 9587, Note_on_c, 0, 81, 0
6, 9600, Note_on_c, 0, 78, 70
6, 9627, Note_on_c, 0, 78, 0
6, 9630, Note_on_c, 0, 79, 90
6, 9646, Note_on_c, 0, 79, 0
6, 9660, Note_on_c, 0, 78, 85
6, 9693, Note_on_c, 0, 78, 0
6, 9720, Note_on_c, 0, 76, 96
6, 9772, Note_on_c, 0, 76, 0
6, 9780, Note_on_c, 0, 74, 102
6, 9820, Note_on_c, 0, 74, 0
6, 9840, Note_on_c, 0, 78, 127
6, 9849, Channel_aftertouch_c, 0, 6
6, 9849, Channel_aftertouch_c, 0, 6
6, 9860, Channel_aftertouch_c, 0, 3
6, 9860, Channel_aftertouch_c, 0, 3
6, 9880, Note_on_c, 0, 78, 0
6, 9900, Note_on_c, 0, 76, 79
6, 9948, Note_on_c, 0, 76, 0
6, 9960, Note_on_c, 0, 74, 102
6, 10000, Note_on_c, 0, 74, 0
6, 10020, Note_on_c, 0, 73, 75
6, 10058, Note_on_c, 0, 73, 0
6, 10080, Note_on_c, 0, 74, 127
6, 10139, Note_on_c, 0, 74, 0
6, 10140, Note_on_c, 0, 73, 75
6, 10167, Note_on_c, 0, 73, 0
6, 10170, Note_on_c, 0, 71, 96
6, 10194, Note_on_c, 0, 71, 0
6, 10200, Note_on_c, 0, 69, 90
6, 10213, Note_on_c, 0, 69, 0
6, 10230, Note_on_c, 0, 67, 75
6, 10254, Note_on_c, 0, 67, 0
6, 10260, Note_on_c, 0, 66, 82
6, 10278, Note_on_c, 0, 66, 0
6, 10290, Note_on_c, 0, 64, 88
6, 10308, Note_on_c, 0, 64, 0
6, 10320, Note_on_c, 0, 62, 104
6, 10413, Note_on_c, 0, 62, 0
6, 10560, Note_on_c, 0, 62, 96
6, 10615, Note_on_c, 0, 62, 0
6, 10620, Note_on_c, 0, 57, 73
6, 10665, Note_on_c, 0, 57, 0
6, 10680, Note_on_c, 0, 62, 96
6, 10724, Note_on_c, 0, 62, 0
6, 10740, Note_on_c, 0, 64, 110
6, 10775, Note_on_c, 0, 64, 0
6, 10800, Note_on_c, 0, 66, 88
6, 10848, Note_on_c, 0, 66, 0
6, 10860, Note_on_c, 0, 62, 82
6, 10900, Note_on_c, 0, 62, 0
6, 10920, Note_on_c, 0, 66, 102
6, 10959, Note_on_c, 0, 66, 0
6, 10980, Note_on_c, 0, 67, 90
6, 11012, Note_on_c, 0, 67, 0
6, 11040, Note_on_c, 0, 67, 66
6, 11100, Note_on_c, 0, 67, 0
6, 11100, Note_on_c, 0, 69, 66
6, 11130, Note_on_c, 0, 71, 25
6, 11145, Note_on_c, 0, 69, 0
6, 11147, Note_on_c, 0, 71, 0
6, 11160, Note_on_c, 0, 69, 73
6, 11217, Note_on_c, 0, 69, 0
6, 11400, Note_on_c, 0, 69, 127
6, 11489, Note_on_c, 0, 69, 0
6, 11520, Note_on_c, 0, 71, 96
6, 11573, Note_on_c, 0, 71, 0
6, 11580, Note_on_c, 0, 73, 82
6, 11634, Note_on_c, 0, 73, 0
6, 11640, Note_on_c, 0, 74, 88
6, 11682, Note_on_c, 0, 74, 0
6, 11700, Note_on_c, 0, 71, 82
6, 11729, Note_on_c, 0, 71, 0
6, 11760, Note_on_c, 0, 69, 73
6, 11775, Note_on_c, 0, 69, 0
6, 11790, Note_on_c, 0, 71, 79
6, 11814, Note_on_c, 0, 71, 0
6, 11820, Note_on_c, 0, 69, 79
6, 11927, Note_on_c, 0, 69, 0
6, 11940, Note_on_c, 0, 69, 85
6, 11973, Note_on_c, 0, 69, 0
6, 12000, Note_on_c, 0, 71, 96
6, 12048, Note_on_c, 0, 71, 0
6, 12060, Note_on_c, 0, 73, 66
6, 12077, Note_on_c, 0, 73, 0
6, 12090, Note_on_c, 0, 74, 73
6, 12120, Note_on_c, 0, 73, 82
6, 12121, Note_on_c, 0, 74, 0
6, 12171, Note_on_c, 0, 73, 0
6, 12180, Note_on_c, 0, 74, 96
6, 12209, Note_on_c, 0, 74, 0
6, 12210, Note_on_c, 0, 76, 70
6, 12229, Note_on_c, 0, 76, 0
6, 12240, Note_on_c, 0, 69, 90
6, 12290, Note_on_c, 0, 69, 0
6, 12300, Note_on_c, 0, 73, 70
6, 12338, Note_on_c, 0, 73, 0
6, 12360, Note_on_c, 0, 74, 85
6, 12390, Note_on_c, 0, 74, 0
6, 12420, Note_on_c, 0, 78, 82
6, 12464, Note_on_c, 0, 78, 0
6, 12480, Note_on_c, 0, 79, 90
6, 12526, Note_on_c, 0, 79, 0
6, 12540, Note_on_c, 0, 78, 75
6, 12577, Note_on_c, 0, 78, 0
6, 12600, Note_on_c, 0, 76, 75
6, 12640, Note_on_c, 0, 76, 0
6, 12660, Note_on_c, 0, 79, 85
6, 12709, Note_on_c, 0, 79, 0
6, 12720, Note_on_c, 0, 78, 85
6, 12769, Note_on_c, 0, 78, 0
6, 12780, Note_on_c, 0, 76, 90
6, 12824, Note_on_c, 0, 76, 0
6, 12840, Note_on_c, 0, 74, 88
6, 12879, Note_on_c, 0, 74, 0
6, 12900, Note_on_c, 0, 78, 93
6, 12950, Note_on_c, 0, 78, 0
6, 12960, Note_on_c, 0, 76, 90
6, 13009, Note_on_c, 0, 76, 0
6, 13020, Note_on_c, 0, 74, 96
6, 13065, Note_on_c, 0, 74, 0
6, 13080, Note_on_c, 0, 73, 93
6, 13125, Note_on_c, 0, 73, 0
6, 13140, Note_on_c, 0, 71, 88
6, 13192, Note_on_c, 0, 71, 0
6, 13200, Note_on_c, 0, 69, 93
6, 13244, Note_on_c, 0, 69, 0
6, 13260, Note_on_c, 0, 67, 90
6, 13304, Note_on_c, 0, 67, 0
6, 13320, Note_on_c, 0, 66, 96
6, 13368, Note_on_c, 0, 66, 0
6, 13380, Note_on_c, 0, 64, 90
6, 13425, Note_on_c, 0, 64, 0
6, 13440, Note_on_c, 0, 62, 127
6, 13440, Note_on_c, 0, 54, 127
6, 13440, Note_on_c, 0, 57, 127
6, 13553, Note_on_c, 0, 57, 0
6, 13553, Note_on_c, 0, 54, 0
6, 13553, Note_on_c, 0, 62, 0
6, 13680, Note_on_c, 0, 62, 102
6, 13680, Note_on_c, 0, 66, 110
6, 13680, Note_on_c, 0, 57, 102
6, 13793, Note_on_c, 0, 57, 0
6, 13793, Note_on_c, 0, 66, 0
6, 13793, Note_on_c, 0, 62, 0
6, 13920, Note_on_c, 0, 66, 127
6, 13920, Note_on_c, 0, 69, 110
6, 13920, Note_on_c, 0, 62, 102
6, 13978, Channel_aftertouch_c, 0, 3
6, 13978, Channel_aftertouch_c, 0, 3
6, 13991, Channel_aftertouch_c, 0, 4
6, 13991, Channel_aftertouch_c, 0, 4
6, 14002, Channel_aftertouch_c, 0, 2
6, 14003, Channel_aftertouch_c, 0, 2
6, 14033, Note_on_c, 0, 62, 0
6, 14033, Note_on_c, 0, 69, 0
6, 14033, Note_on_c, 0, 66, 0
6, 14280, Note_on_c, 0, 62, 80
6, 14280, Note_on_c, 0, 66, 80
6, 14328, Note_on_c, 0, 66, 0
6, 14328, Note_on_c, 0, 62, 0
6, 14340, Note_on_c, 0, 64, 80
6, 14340, Note_on_c, 0, 67, 80
6, 14388, Note_on_c, 0, 67, 0
6, 14388, Note_on_c, 0, 64, 0
6, 14400, Note_on_c, 0, 66, 81
6, 14400, Note_on_c, 0, 69, 106
6, 14473, Note_on_c, 0, 69, 0
6, 14478, Note_on_c, 0, 66, 0
6, 14520, Note_on_c, 0, 66, 93
6, 14520, Note_on_c, 0, 62, 117
6, 14566, Note_on_c, 0, 62, 0
6, 14566, Note_on_c, 0, 66, 0
6, 14580, Note_on_c, 0, 64, 79
6, 14580, Note_on_c, 0, 67, 120
6, 14619, Note_on_c, 0, 64, 0
6, 14620, Note_on_c, 0, 67, 0
6, 14640, Note_on_c, 0, 66, 91
6, 14640, Note_on_c, 0, 69, 127
6, 14697, Note_on_c, 0, 69, 0
6, 14718, Note_on_c, 0, 66, 0
6, 14760, Note_on_c, 0, 74, 127
6, 14760, Note_on_c, 0, 69, 77
6, 14829, Note_on_c, 0, 74, 0
6, 14855, Note_on_c, 0, 69, 0
6, 14880, Note_on_c, 0, 66, 81
6, 14880, Note_on_c, 0, 69, 127
6, 14944, Note_on_c, 0, 69, 0
6, 14952, Note_on_c, 0, 66, 0
6, 15000, Note_on_c, 0, 69, 106
6, 15000, Note_on_c, 0, 62, 86
6, 15042, Note_on_c, 0, 69, 0
6, 15060, Note_on_c, 0, 67, 117
6, 15074, Note_on_c, 0, 62, 0
6, 15114, Note_on_c, 0, 67, 0
6, 15120, Note_on_c, 0, 66, 98
6, 15120, Note_on_c, 0, 62, 77
6, 15190, Note_on_c, 0, 66, 0
6, 15233, Note_on_c, 0, 62, 0
6, 15240, Note_on_c, 0, 64, 127
6, 15289, Note_on_c, 0, 64, 0
6, 15300, Note_on_c, 0, 62, 96
6, 15346, Note_on_c, 0, 62, 0
6, 15360, Note_on_c, 0, 67, 102
6, 15411, Note_on_c, 0, 67, 0
6, 15420, Note_on_c, 0, 69, 96
6, 15464, Note_on_c, 0, 69, 0
6, 15480, Note_on_c, 0, 71, 110
6, 15534, Note_on_c, 0, 71, 0
6, 15540, Note_on_c, 0, 67, 102
6, 15590, Note_on_c, 0, 67, 0
6, 15600, Note_on_c, 0, 66, 98
6, 15650, Note_on_c, 0, 66, 0
6, 15660, Note_on_c, 0, 67, 90
6, 15716, Note_on_c, 0, 67, 0
6, 15720, Note_on_c, 0, 69, 110
6, 15768, Note_on_c, 0, 69, 0
6, 15780, Note_on_c, 0, 66, 75
6, 15828, Note_on_c, 0, 66, 0
6, 15840, Note_on_c, 0, 64, 110
6, 15891, Note_on_c, 0, 64, 0
6, 15900, Note_on_c, 0, 67, 88
6, 15948, Note_on_c, 0, 67, 0
6, 15960, Note_on_c, 0, 69, 96
6, 16016, Note_on_c, 0, 69, 0
6, 16020, Note_on_c, 0, 73, 102
6, 16057, Note_on_c, 0, 73, 0
6, 16080, Note_on_c, 0, 76, 82
6, 16132, Note_on_c, 0, 76, 0
6, 16140, Note_on_c, 0, 73, 110
6, 16186, Note_on_c, 0, 73, 0
6, 16200, Note_on_c, 0, 71, 88
6, 16252, Note_on_c, 0, 71, 0
6, 16260, Note_on_c, 0, 69, 96
6, 16304, Note_on_c, 0, 69, 0
6, 16320, Note_on_c, 0, 67, 102
6, 16374, Note_on_c, 0, 67, 0
6, 16380, Note_on_c, 0, 69, 98
6, 16431, Note_on_c, 0, 69, 0
6, 16440, Note_on_c, 0, 73, 102
6, 16494, Note_on_c, 0, 73, 0
6, 16500, Note_on_c, 0, 76, 102
6, 16542, Note_on_c, 0, 76, 0
6, 16560, Note_on_c, 0, 79, 96
6, 16616, Note_on_c, 0, 79, 0
6, 16620, Note_on_c, 0, 78, 117
6, 16676, Note_on_c, 0, 78, 0
6, 16680, Note_on_c, 0, 76, 110
6, 16731, Note_on_c, 0, 76, 0
6, 16740, Note_on_c, 0, 74, 96
6, 16792, Note_on_c, 0, 74, 0
6, 16800, Note_on_c, 0, 73, 102
6, 16852, Note_on_c, 0, 73, 0
6, 16860, Note_on_c, 0, 74, 85
6, 16910, Note_on_c, 0, 74, 0
6, 16920, Note_on_c, 0, 76, 117
6, 16969, Note_on_c, 0, 76, 0
6, 16980, Note_on_c, 0, 73, 88
6, 17034, Note_on_c, 0, 73, 0
6, 17040, Note_on_c, 0, 69, 85
6, 17088, Note_on_c, 0, 69, 0
6, 17100, Note_on_c, 0, 73, 85
6, 17157, Note_on_c, 0, 73, 0
6, 17160, Note_on_c, 0, 71, 96
6, 17208, Note_on_c, 0, 71, 0
6, 17220, Note_on_c, 0, 69, 90
6, 17273, Note_on_c, 0, 69, 0
6, 17280, Note_on_c, 0, 79, 90
6, 17330, Note_on_c, 0, 79, 0
6, 17340, Note_on_c, 0, 78, 79
6, 17390, Note_on_c, 0, 78, 0
6, 17400, Note_on_c, 0, 76, 82
6, 17446, Note_on_c, 0, 76, 0
6, 17460, Note_on_c, 0, 74, 102
6, 17510, Note_on_c, 0, 74, 0
6, 17520, Note_on_c, 0, 73, 75
6, 17572, Note_on_c, 0, 73, 0
6, 17580, Note_on_c, 0, 74, 75
6, 17630, Note_on_c, 0, 74, 0
6, 17640, Note_on_c, 0, 76, 90
6, 17695, Note_on_c, 0, 76, 0
6, 17700, Note_on_c, 0, 73, 88
6, 17752, Note_on_c, 0, 73, 0
6, 17760, Note_on_c, 0, 69, 70
6, 17806, Note_on_c, 0, 69, 0
6, 17820, Note_on_c, 0, 73, 102
6, 17874, Note_on_c, 0, 73, 0
6, 17880, Note_on_c, 0, 71, 90
6, 17928, Note_on_c, 0, 71, 0
6, 17940, Note_on_c, 0, 69, 79
6, 17988, Note_on_c, 0, 69, 0
6, 18000, Note_on_c, 0, 79, 90
6, 18053, Note_on_c, 0, 79, 0
6, 18060, Note_on_c, 0, 78, 82
6, 18106, Note_on_c, 0, 78, 0
6, 18120, Note_on_c, 0, 76, 85
6, 18165, Note_on_c, 0, 76, 0
6, 18180, Note_on_c, 0, 74, 106
6, 18226, Note_on_c, 0, 74, 0
6, 18240, Note_on_c, 0, 73, 85
6, 18284, Note_on_c, 0, 73, 0
6, 18300, Note_on_c, 0, 74, 90
6, 18346, Note_on_c, 0, 74, 0
6, 18360, Note_on_c, 0, 76, 82
6, 18406, Note_on_c, 0, 76, 0
6, 18420, Note_on_c, 0, 73, 82
6, 18455, Note_on_c, 0, 73, 0
6, 18480, Note_on_c, 0, 69, 85
6, 18556, Note_on_c, 0, 69, 0
6, 18600, Note_on_c, 0, 69, 74
6, 18600, Note_on_c, 0, 73, 120
6, 18633, Note_on_c, 0, 73, 0
6, 18660, Note_on_c, 0, 69, 0
6, 18660, Note_on_c, 0, 74, 117
6, 18660, Note_on_c, 0, 71, 79
6, 18698, Note_on_c, 0, 74, 0
6, 18705, Note_on_c, 0, 71, 0
6, 18720, Note_on_c, 0, 73, 86
6, 18720, Note_on_c, 0, 76, 117
6, 18788, Note_on_c, 0, 76, 0
6, 18794, Note_on_c, 0, 73, 0
6, 18840, Note_on_c, 0, 73, 110
6, 18840, Note_on_c, 0, 69, 96
6, 18878, Note_on_c, 0, 73, 0
6, 18894, Note_on_c, 0, 69, 0
6, 18900, Note_on_c, 0, 74, 113
6, 18900, Note_on_c, 0, 71, 77
6, 18933, Note_on_c, 0, 74, 0
6, 18945, Note_on_c, 0, 71, 0
6, 18960, Note_on_c, 0, 76, 127
6, 18960, Note_on_c, 0, 73, 89
6, 19015, Note_on_c, 0, 76, 0
6, 19033, Note_on_c, 0, 73, 0
6, 19080, Note_on_c, 0, 81, 127
6, 19080, Note_on_c, 0, 76, 102
6, 19149, Note_on_c, 0, 81, 0
6, 19162, Note_on_c, 0, 76, 0
6, 19200, Note_on_c, 0, 73, 81
6, 19200, Note_on_c, 0, 76, 102
6, 19264, Note_on_c, 0, 76, 0
6, 19278, Note_on_c, 0, 73, 0
6, 19320, Note_on_c, 0, 76, 88
6, 19320, Note_on_c, 0, 69, 93
6, 19362, Note_on_c, 0, 76, 0
6, 19380, Note_on_c, 0, 74, 85
6, 19394, Note_on_c, 0, 69, 0
6, 19422, Note_on_c, 0, 74, 0
6, 19440, Note_on_c, 0, 69, 89
6, 19440, Note_on_c, 0, 73, 120
6, 19515, Note_on_c, 0, 73, 0
6, 19560, Note_on_c, 0, 71, 88
6, 19599, Note_on_c, 0, 71, 0
6, 19620, Note_on_c, 0, 69, 75
6, 19656, Note_on_c, 0, 69, 0
6, 19662, Note_on_c, 0, 69, 0
6, 19680, Note_on_c, 0, 76, 96
6, 19726, Note_on_c, 0, 76, 0
6, 19740, Note_on_c, 0, 81, 110
6, 19784, Note_on_c, 0, 81, 0
6, 19800, Note_on_c, 0, 76, 90
6, 19849, Note_on_c, 0, 76, 0
6, 19860, Note_on_c, 0, 74, 90
6, 19902, Note_on_c, 0, 74, 0
6, 19920, Note_on_c, 0, 73, 88
6, 19964, Note_on_c, 0, 73, 0
6, 19980, Note_on_c, 0, 76, 85
6, 20030, Note_on_c, 0, 76, 0
6, 20040, Note_on_c, 0, 73, 85
6, 20084, Note_on_c, 0, 73, 0
6, 20100, Note_on_c, 0, 71, 82
6, 20138, Note_on_c, 0, 71, 0
6, 20160, Note_on_c, 0, 69, 82
6, 20210, Note_on_c, 0, 69, 0
6, 20220, Note_on_c, 0, 79, 82
6, 20277, Note_on_c, 0, 79, 0
6, 20280, Note_on_c, 0, 76, 93
6, 20324, Note_on_c, 0, 76, 0
6, 20340, Note_on_c, 0, 74, 82
6, 20384, Note_on_c, 0, 74, 0
6, 20400, Note_on_c, 0, 73, 96
6, 20442, Note_on_c, 0, 73, 0
6, 20460, Note_on_c, 0, 76, 82
6, 20498, Note_on_c, 0, 76, 0
6, 20520, Note_on_c, 0, 73, 102
6, 20562, Note_on_c, 0, 73, 0
6, 20580, Note_on_c, 0, 71, 88
6, 20626, Note_on_c, 0, 71, 0
6, 20640, Note_on_c, 0, 69, 82
6, 20686, Note_on_c, 0, 69, 0
6, 20700, Note_on_c, 0, 78, 102
6, 20749, Note_on_c, 0, 78, 0
6, 20760, Note_on_c, 0, 74, 102
6, 20790, Note_on_c, 0, 74, 0
6, 20820, Note_on_c, 0, 73, 70
6, 20868, Note_on_c, 0, 73, 0
6, 20880, Note_on_c, 0, 71, 79
6, 20929, Note_on_c, 0, 71, 0
6, 20940, Note_on_c, 0, 74, 79
6, 20989, Note_on_c, 0, 74, 0
6, 21000, Note_on_c, 0, 71, 90
6, 21045, Note_on_c, 0, 71, 0
6, 21060, Note_on_c, 0, 69, 79
6, 21091, Note_on_c, 0, 69, 0
6, 21120, Note_on_c, 0, 68, 75
6, 21169, Note_on_c, 0, 68, 0
6, 21180, Note_on_c, 0, 71, 75
6, 21217, Note_on_c, 0, 71, 0
6, 21240, Note_on_c, 0, 74, 82
6, 21288, Note_on_c, 0, 74, 0
6, 21300, Note_on_c, 0, 78, 82
6, 21346, Note_on_c, 0, 78, 0
6, 21360, Note_on_c, 0, 76, 82
6, 21387, Note_on_c, 0, 76, 0
6, 21390, Note_on_c, 0, 78, 82
6, 21415, Note_on_c, 0, 78, 0
6, 21420, Note_on_c, 0, 76, 75
6, 21486, Note_on_c, 0, 76, 0
6, 21540, Note_on_c, 0, 74, 85
6, 21573, Note_on_c, 0, 74, 0
6, 21600, Note_on_c, 0, 73, 75
6, 21646, Note_on_c, 0, 73, 0
6, 21660, Note_on_c, 0, 76, 96
6, 21698, Note_on_c, 0, 76, 0
6, 21720, Note_on_c, 0, 80, 96
6, 21776, Note_on_c, 0, 80, 0
6, 21780, Note_on_c, 0, 81, 88
6, 21828, Note_on_c, 0, 81, 0
6, 21840, Note_on_c, 0, 71, 90
6, 21892, Note_on_c, 0, 71, 0
6, 21900, Note_on_c, 0, 76, 90
6, 21948, Note_on_c, 0, 76, 0
6, 21960, Note_on_c, 0, 80, 82
6, 22012, Note_on_c, 0, 80, 0
6, 22020, Note_on_c, 0, 81, 82
6, 22065, Note_on_c, 0, 81, 0
6, 22080, Note_on_c, 0, 69, 75
6, 22129, Note_on_c, 0, 69, 0
6, 22140, Note_on_c, 0, 81, 82
6, 22191, Note_on_c, 0, 81, 0
6, 22200, Note_on_c, 0, 80, 88
6, 22255, Note_on_c, 0, 80, 0
6, 22260, Note_on_c, 0, 81, 82
6, 22317, Note_on_c, 0, 81, 0
6, 22320, Note_on_c, 0, 71, 66
6, 22373, Note_on_c, 0, 71, 0
6, 22380, Note_on_c, 0, 75, 102
6, 22433, Note_on_c, 0, 75, 0
6, 22440, Note_on_c, 0, 78, 102
6, 22493, Note_on_c, 0, 78, 0
6, 22500, Note_on_c, 0, 81, 85
6, 22550, Note_on_c, 0, 81, 0
6, 22560, Note_on_c, 0, 80, 82
6, 22612, Note_on_c, 0, 80, 0
6, 22620, Note_on_c, 0, 76, 73
6, 22664, Note_on_c, 0, 76, 0
6, 22680, Note_on_c, 0, 71, 82
6, 22711, Note_on_c, 0, 71, 0
6, 22740, Note_on_c, 0, 68, 93
6, 22776, Note_on_c, 0, 68, 0
6, 22800, Note_on_c, 0, 64, 79
6, 22840, Note_on_c, 0, 64, 0
6, 22860, Note_on_c, 0, 71, 82
6, 22898, Note_on_c, 0, 71, 0
6, 22920, Note_on_c, 0, 73, 73
6, 22968, Note_on_c, 0, 73, 0
6, 22980, Note_on_c, 0, 74, 102
6, 23024, Note_on_c, 0, 74, 0
6, 23040, Note_on_c, 0, 76, 93
6, 23054, Channel_aftertouch_c, 0, 12
6, 23055, Channel_aftertouch_c, 0, 12
6, 23067, Channel_aftertouch_c, 0, 6
6, 23067, Channel_aftertouch_c, 0, 6
6, 23079, Note_on_c, 0, 76, 0
6, 23100, Note_on_c, 0, 64, 75
6, 23136, Note_on_c, 0, 64, 0
6, 23160, Note_on_c, 0, 76, 90
6, 23206, Note_on_c, 0, 76, 0
6, 23220, Note_on_c, 0, 64, 90
6, 23258, Note_on_c, 0, 64, 0
6, 23280, Note_on_c, 0, 76, 117
6, 23328, Note_on_c, 0, 76, 0
6, 23340, Note_on_c, 0, 64, 96
6, 23388, Note_on_c, 0, 64, 0
6, 23400, Note_on_c, 0, 76, 110
6, 23450, Note_on_c, 0, 76, 0
6, 23460, Note_on_c, 0, 64, 127
6, 23508, Note_on_c, 0, 64, 0
6, 23520, Note_on_c, 0, 76, 127
6, 23528, Channel_aftertouch_c, 0, 38
6, 23529, Channel_aftertouch_c, 0, 38
6, 23539, Channel_aftertouch_c, 0, 19
6, 23540, Channel_aftertouch_c, 0, 19
6, 23552, Channel_aftertouch_c, 0, 12
6, 23552, Channel_aftertouch_c, 0, 12
6, 23564, Channel_aftertouch_c, 0, 6
6, 23564, Channel_aftertouch_c, 0, 6
6, 23572, Note_on_c, 0, 76, 0
6, 23575, Channel_aftertouch_c, 0, 3
6, 23576, Channel_aftertouch_c, 0, 3
6, 23580, Note_on_c, 0, 73, 102
6, 23634, Note_on_c, 0, 73, 0
6, 23640, Note_on_c, 0, 70, 102
6, 23692, Note_on_c, 0, 70, 0
6, 23700, Note_on_c, 0, 66, 88
6, 23727, Note_on_c, 0, 66, 0
6, 23760, Note_on_c, 0, 66, 88
6, 23815, Note_on_c, 0, 66, 0
6, 23820, Note_on_c, 0, 70, 110
6, 23869, Note_on_c, 0, 70, 0
6, 23880, Note_on_c, 0, 73, 102
6, 23928, Note_on_c, 0, 73, 0
6, 23940, Note_on_c, 0, 76, 102
6, 23985, Note_on_c, 0, 76, 0
6, 24000, Note_on_c, 0, 74, 102
6, 24048, Note_on_c, 0, 74, 0
6, 24060, Note_on_c, 0, 62, 63
6, 24072, Channel_aftertouch_c, 0, 18
6, 24072, Channel_aftertouch_c, 0, 18
6, 24083, Channel_aftertouch_c, 0, 9
6, 24083, Channel_aftertouch_c, 0, 9
6, 24099, Note_on_c, 0, 62, 0
6, 24120, Note_on_c, 0, 74, 90
6, 24168, Note_on_c, 0, 74, 0
6, 24180, Note_on_c, 0, 62, 82
6, 24219, Note_on_c, 0, 62, 0
6, 24240, Note_on_c, 0, 74, 124
6, 24289, Note_on_c, 0, 74, 0
6, 24300, Note_on_c, 0, 62, 102
6, 24342, Note_on_c, 0, 62, 0
6, 24360, Note_on_c, 0, 74, 127
6, 24363, Channel_aftertouch_c, 0, 6
6, 24363, Channel_aftertouch_c, 0, 6
6, 24373, Channel_aftertouch_c, 0, 3
6, 24374, Channel_aftertouch_c, 0, 3
6, 24411, Note_on_c, 0, 74, 0
6, 24420, Note_on_c, 0, 62, 127
6, 24460, Note_on_c, 0, 62, 0
6, 24480, Note_on_c, 0, 74, 127
6, 24537, Note_on_c, 0, 74, 0
6, 24540, Note_on_c, 0, 71, 98
6, 24589, Note_on_c, 0, 71, 0
6, 24600, Note_on_c, 0, 68, 82
6, 24657, Note_on_c, 0, 68, 0
6, 24660, Note_on_c, 0, 64, 79
6, 24686, Note_on_c, 0, 64, 0
6, 24720, Note_on_c, 0, 64, 93
6, 24769, Note_on_c, 0, 64, 0
6, 24780, Note_on_c, 0, 68, 82
6, 24834, Note_on_c, 0, 68, 0
6, 24840, Note_on_c, 0, 71, 96
6, 24894, Note_on_c, 0, 71, 0
6, 24900, Note_on_c, 0, 74, 90
6, 24957, Note_on_c, 0, 74, 0
6, 24960, Note_on_c, 0, 73, 93
6, 25008, Note_on_c, 0, 73, 0
6, 25020, Note_on_c, 0, 61, 70
6, 25062, Note_on_c, 0, 61, 0
6, 25080, Note_on_c, 0, 73, 96
6, 25134, Note_on_c, 0, 73, 0
6, 25140, Note_on_c, 0, 61, 110
6, 25178, Note_on_c, 0, 61, 0
6, 25200, Note_on_c, 0, 73, 110
6, 25244, Note_on_c, 0, 73, 0
6, 25260, Note_on_c, 0, 61, 120
6, 25302, Note_on_c, 0, 61, 0
6, 25320, Note_on_c, 0, 73, 120
6, 25374, Note_on_c, 0, 73, 0
6, 25380, Note_on_c, 0, 73, 82
6, 25418, Note_on_c, 0, 73, 0
6, 25440, Note_on_c, 0, 74, 102
6, 25486, Note_on_c, 0, 74, 0
6, 25500, Note_on_c, 0, 76, 102
6, 25551, Note_on_c, 0, 76, 0
6, 25560, Note_on_c, 0, 78, 102
6, 25598, Note_on_c, 0, 78, 0
6, 25620, Note_on_c, 0, 74, 98
6, 25666, Note_on_c, 0, 74, 0
6, 25680, Note_on_c, 0, 73, 73
6, 25725, Note_on_c, 0, 73, 0
6, 25740, Note_on_c, 0, 74, 110
6, 25788, Note_on_c, 0, 74, 0
6, 25800, Note_on_c, 0, 76, 102
6, 25846, Note_on_c, 0, 76, 0
6, 25860, Note_on_c, 0, 73, 82
6, 25906, Note_on_c, 0, 73, 0
6, 25920, Note_on_c, 0, 71, 117
6, 25968, Note_on_c, 0, 71, 0
6, 25980, Note_on_c, 0, 73, 96
6, 26025, Note_on_c, 0, 73, 0
6, 26040, Note_on_c, 0, 74, 96
6, 26093, Note_on_c, 0, 74, 0
6, 26100, Note_on_c, 0, 71, 98
6, 26142, Note_on_c, 0, 71, 0
6, 26160, Note_on_c, 0, 69, 85
6, 26206, Note_on_c, 0, 69, 0
6, 26220, Note_on_c, 0, 71, 93
6, 26268, Note_on_c, 0, 71, 0
6, 26280, Note_on_c, 0, 73, 73
6, 26322, Note_on_c, 0, 73, 0
6, 26340, Note_on_c, 0, 69, 93
6, 26379, Note_on_c, 0, 69, 0
6, 26400, Note_on_c, 0, 68, 88
6, 26442, Note_on_c, 0, 68, 0
6, 26460, Note_on_c, 0, 69, 85
6, 26508, Note_on_c, 0, 69, 0
6, 26520, Note_on_c, 0, 71, 90
6, 26562, Note_on_c, 0, 71, 0
6, 26580, Note_on_c, 0, 68, 66
6, 26624, Note_on_c, 0, 68, 0
6, 26640, Note_on_c, 0, 62, 90
6, 26678, Note_on_c, 0, 62, 0
6, 26700, Note_on_c, 0, 64, 93
6, 26739, Note_on_c, 0, 64, 0
6, 26760, Note_on_c, 0, 66, 93
6, 26814, Note_on_c, 0, 66, 0
6, 26820, Note_on_c, 0, 62, 117
6, 26862, Note_on_c, 0, 62, 0
6, 26880, Note_on_c, 0, 59, 102
6, 26924, Note_on_c, 0, 59, 0
6, 26940, Note_on_c, 0, 61, 117
6, 26980, Note_on_c, 0, 61, 0
6, 27000, Note_on_c, 0, 62, 110
6, 27042, Note_on_c, 0, 62, 0
6, 27060, Note_on_c, 0, 59, 102
6, 27099, Note_on_c, 0, 59, 0
6, 27120, Note_on_c, 0, 56, 73
6, 27159, Note_on_c, 0, 56, 0
6, 27180, Note_on_c, 0, 57, 110
6, 27228, Note_on_c, 0, 57, 0
6, 27240, Note_on_c, 0, 59, 110
6, 27280, Note_on_c, 0, 59, 0
6, 27300, Note_on_c, 0, 61, 93
6, 27338, Note_on_c, 0, 61, 0
6, 27360, Note_on_c, 0, 62, 93
6, 27409, Note_on_c, 0, 62, 0
6, 27420, Note_on_c, 0, 64, 75
6, 27460, Note_on_c, 0, 64, 0
6, 27480, Note_on_c, 0, 66, 102
6, 27535, Note_on_c, 0, 66, 0
6, 27540, Note_on_c, 0, 68, 88
6, 27585, Note_on_c, 0, 68, 0
6, 27600, Note_on_c, 0, 69, 88
6, 27651, Note_on_c, 0, 69, 0
6, 27660, Note_on_c, 0, 71, 96
6, 27704, Note_on_c, 0, 71, 0
6, 27720, Note_on_c, 0, 73, 110
6, 27770, Note_on_c, 0, 73, 0
6, 27780, Note_on_c, 0, 74, 102
6, 27804, Note_on_c, 0, 74, 0
6, 27810, Note_on_c, 0, 76, 102
6, 27835, Note_on_c, 0, 76, 0
6, 27840, Note_on_c, 0, 73, 117
6, 27941, Note_on_c, 0, 73, 0
6, 27960, Note_on_c, 0, 71, 82
6, 27963, Channel_aftertouch_c, 0, 44
6, 27964, Channel_aftertouch_c, 0, 44
6, 27974, Channel_aftertouch_c, 0, 22
6, 27974, Channel_aftertouch_c, 0, 22
6, 27986, Channel_aftertouch_c, 0, 11
6, 27986, Channel_aftertouch_c, 0, 11
6, 27998, Channel_aftertouch_c, 0, 5
6, 27999, Channel_aftertouch_c, 0, 5
6, 28000, Note_on_c, 0, 71, 0
6, 28020, Note_on_c, 0, 69, 85
6, 28031, Channel_aftertouch_c, 0, 3
6, 28033, Channel_aftertouch_c, 0, 3
6, 28044, Channel_aftertouch_c, 0, 1
6, 28044, Channel_aftertouch_c, 0, 1
6, 28052, Note_on_c, 0, 69, 0
6, 28080, Note_on_c, 0, 71, 120
6, 28090, Channel_aftertouch_c, 0, 12
6, 28091, Channel_aftertouch_c, 0, 12
6, 28103, Channel_aftertouch_c, 0, 6
6, 28103, Channel_aftertouch_c, 0, 6
6, 28115, Channel_aftertouch_c, 0, 3
6, 28115, Channel_aftertouch_c, 0, 3
6, 28149, Channel_aftertouch_c, 0, 12
6, 28149, Channel_aftertouch_c, 0, 12
6, 28161, Channel_aftertouch_c, 0, 9
6, 28161, Channel_aftertouch_c, 0, 9
6, 28170, Note_on_c, 0, 71, 0
6, 28172, Channel_aftertouch_c, 0, 4
6, 28173, Channel_aftertouch_c, 0, 4
6, 28185, Channel_aftertouch_c, 0, 2
6, 28185, Channel_aftertouch_c, 0, 2
6, 28200, Note_on_c, 0, 69, 79
6, 28230, Note_on_c, 0, 69, 0
6, 28260, Note_on_c, 0, 68, 63
6, 28262, Channel_aftertouch_c, 0, 1
6, 28263, Channel_aftertouch_c, 0, 1
6, 28292, Note_on_c, 0, 68, 0
6, 28320, Note_on_c, 0, 69, 75
6, 28371, Note_on_c, 0, 69, 0
6, 28380, Note_on_c, 0, 73, 88
6, 28395, Note_on_c, 0, 73, 0
6, 28410, Note_on_c, 0, 74, 75
6, 28429, Note_on_c, 0, 74, 0
6, 28440, Note_on_c, 0, 76, 110
6, 28478, Note_on_c, 0, 76, 0
6, 28500, Note_on_c, 0, 69, 79
6, 28544, Note_on_c, 0, 69, 0
6, 28560, Note_on_c, 0, 78, 127
6, 28599, Note_on_c, 0, 78, 0
6, 28620, Note_on_c, 0, 69, 75
6, 28660, Note_on_c, 0, 69, 0
6, 28680, Note_on_c, 0, 80, 106
6, 28717, Note_on_c, 0, 80, 0
6, 28740, Note_on_c, 0, 69, 58
6, 28777, Note_on_c, 0, 69, 0
6, 28800, Note_on_c, 0, 81, 96
6, 28850, Note_on_c, 0, 81, 0
6, 28860, Note_on_c, 0, 80, 58
6, 28884, Note_on_c, 0, 80, 0
6, 28890, Note_on_c, 0, 78, 102
6, 28920, Note_on_c, 0, 76, 93
6, 28922, Note_on_c, 0, 78, 0
6, 28970, Note_on_c, 0, 76, 0
6, 28980, Note_on_c, 0, 74, 85
6, 28995, Channel_aftertouch_c, 0, 3
6, 28995, Channel_aftertouch_c, 0, 3
6, 29007, Channel_aftertouch_c, 0, 1
6, 29007, Channel_aftertouch_c, 0, 1
6, 29019, Note_on_c, 0, 74, 0
6, 29040, Note_on_c, 0, 73, 70
6, 29052, Note_on_c, 0, 73, 0
6, 29070, Note_on_c, 0, 74, 117
6, 29100, Note_on_c, 0, 76, 88
6, 29114, Note_on_c, 0, 74, 0
6, 29133, Note_on_c, 0, 76, 0
6, 29160, Note_on_c, 0, 71, 96
6, 29176, Note_on_c, 0, 71, 0
6, 29190, Note_on_c, 0, 73, 102
6, 29209, Note_on_c, 0, 73, 0
6, 29220, Note_on_c, 0, 74, 110
6, 29248, Note_on_c, 0, 74, 0
6, 29280, Note_on_c, 0, 73, 82
6, 29296, Note_on_c, 0, 73, 0
6, 29310, Note_on_c, 0, 71, 75
6, 29328, Note_on_c, 0, 71, 0
6, 29340, Note_on_c, 0, 69, 98
6, 29370, Note_on_c, 0, 69, 0
6, 29400, Note_on_c, 0, 76, 88
6, 29439, Note_on_c, 0, 76, 0
6, 29460, Note_on_c, 0, 73, 88
6, 29485, Note_on_c, 0, 73, 0
6, 29520, Note_on_c, 0, 81, 106
6, 29556, Note_on_c, 0, 81, 0
6, 29580, Note_on_c, 0, 76, 106
6, 29628, Note_on_c, 0, 76, 0
6, 29640, Note_on_c, 0, 73, 96
6, 29678, Note_on_c, 0, 73, 0
6, 29700, Note_on_c, 0, 69, 82
6, 29727, Note_on_c, 0, 69, 0
6, 29760, Note_on_c, 0, 64, 110
6, 29798, Note_on_c, 0, 64, 0
6, 29820, Note_on_c, 0, 69, 85
6, 29844, Note_on_c, 0, 69, 0
6, 29850, Note_on_c, 0, 68, 88
6, 29875, Note_on_c, 0, 68, 0
6, 29880, Note_on_c, 0, 69, 93
6, 29913, Note_on_c, 0, 69, 0
6, 29940, Note_on_c, 0, 64, 79
6, 29967, Note_on_c, 0, 64, 0
6, 30000, Note_on_c, 0, 61, 88
6, 30040, Note_on_c, 0, 61, 0
6, 30060, Note_on_c, 0, 64, 79
6, 30077, Note_on_c, 0, 64, 0
6, 30090, Note_on_c, 0, 62, 75
6, 30114, Note_on_c, 0, 62, 0
6, 30120, Note_on_c, 0, 64, 82
6, 30149, Note_on_c, 0, 64, 0
6, 30180, Note_on_c, 0, 61, 98
6, 30208, Note_on_c, 0, 61, 0
6, 30240, Note_on_c, 0, 57, 88
6, 31008, Note_on_c, 0, 57, 0
6, 31020, Note_on_c, 0, 59, 85
6, 31050, Note_on_c, 0, 61, 127
6, 31057, Note_on_c, 0, 59, 0
6, 31078, Note_on_c, 0, 61, 0
6, 31080, Note_on_c, 0, 62, 102
6, 31109, Note_on_c, 0, 62, 0
6, 31110, Note_on_c, 0, 64, 88
6, 31140, Note_on_c, 0, 64, 0
6, 31140, Note_on_c, 0, 66, 79
6, 31170, Note_on_c, 0, 68, 124
6, 31185, Note_on_c, 0, 66, 0
6, 31186, Note_on_c, 0, 68, 0
6, 31200, Note_on_c, 0, 69, 102
6, 31255, Note_on_c, 0, 69, 0
6, 31260, Note_on_c, 0, 71, 102
6, 31316, Note_on_c, 0, 71, 0
6, 31320, Note_on_c, 0, 73, 102
6, 31377, Note_on_c, 0, 73, 0
6, 31380, Note_on_c, 0, 69, 90
6, 31425, Note_on_c, 0, 69, 0
6, 31440, Note_on_c, 0, 74, 102
6, 31492, Note_on_c, 0, 74, 0
6, 31500, Note_on_c, 0, 71, 96
6, 31538, Note_on_c, 0, 71, 0
6, 31560, Note_on_c, 0, 76, 113
6, 31654, Note_on_c, 0, 76, 0
6, 31680, Note_on_c, 0, 74, 96
6, 31735, Note_on_c, 0, 74, 0
6, 31740, Note_on_c, 0, 73, 96
6, 31778, Note_on_c, 0, 73, 0
6, 31800, Note_on_c, 0, 71, 90
6, 31860, Note_on_c, 0, 69, 82
6, 31861, Note_on_c, 0, 71, 0
6, 31900, Note_on_c, 0, 69, 0
6, 31920, Note_on_c, 0, 73, 88
6, 31976, Note_on_c, 0, 73, 0
6, 31980, Note_on_c, 0, 71, 96
6, 32028, Note_on_c, 0, 71, 0
6, 32040, Note_on_c, 0, 69, 106
6, 32088, Note_on_c, 0, 69, 0
6, 32100, Note_on_c, 0, 68, 88
6, 32137, Note_on_c, 0, 68, 0
6, 32160, Note_on_c, 0, 69, 102
6, 32252, Note_on_c, 0, 69, 0
6, 32280, Note_on_c, 0, 67, 90
6, 32309, Note_on_c, 0, 67, 0
6, 32310, Note_on_c, 0, 66, 70
6, 32335, Note_on_c, 0, 66, 0
6, 32340, Note_on_c, 0, 64, 85
6, 32359, Note_on_c, 0, 64, 0
6, 32370, Note_on_c, 0, 66, 79
6, 32388, Note_on_c, 0, 66, 0
6, 32400, Note_on_c, 0, 67, 90
6, 32426, Note_on_c, 0, 67, 0
6, 32430, Note_on_c, 0, 66, 63
6, 32449, Note_on_c, 0, 66, 0
6, 32460, Note_on_c, 0, 64, 66
6, 32479, Note_on_c, 0, 64, 0
6, 32490, Note_on_c, 0, 62, 85
6, 32507, Note_on_c, 0, 62, 0
6, 32520, Note_on_c, 0, 61, 110
6, 32550, Note_on_c, 0, 59, 79
6, 32553, Note_on_c, 0, 61, 0
6, 32564, Note_on_c, 0, 59, 0
6, 32580, Note_on_c, 0, 57, 106
6, 32595, Note_on_c, 0, 57, 0
6, 32595, Note_on_c, 0, 55, 96
6, 32609, Note_on_c, 0, 55, 0
6, 32610, Note_on_c, 0, 54, 110
6, 32625, Note_on_c, 0, 52, 85
6, 32637, Note_on_c, 0, 54, 0
6, 32639, Note_on_c, 0, 52, 0
6, 32640, Note_on_c, 0, 66, 120
6, 32640, Note_on_c, 0, 62, 120
6, 32640, Note_on_c, 0, 57, 120
6, 32736, Note_on_c, 0, 57, 0
6, 32736, Note_on_c, 0, 62, 0
6, 32736, Note_on_c, 0, 66, 0
6, 32880, Note_on_c, 0, 62, 120
6, 32880, Note_on_c, 0, 57, 120
6, 32880, Note_on_c, 0, 54, 120
6, 32976, Note_on_c, 0, 54, 0
6, 32976, Note_on_c, 0, 57, 0
6, 32976, Note_on_c, 0, 62, 0
6, 33120, Note_on_c, 0, 57, 120
6, 33168, Note_on_c, 0, 57, 0
6, 33180, Note_on_c, 0, 59, 120
6, 33228, Note_on_c, 0, 59, 0
6, 33240, Note_on_c, 0, 60, 120
6, 33288, Note_on_c, 0, 60, 0
6, 33300, Note_on_c, 0, 66, 120
6, 33348, Note_on_c, 0, 66, 0
6, 33360, Note_on_c, 0, 69, 120
6, 33408, Note_on_c, 0, 69, 0
6, 33420, Note_on_c, 0, 66, 120
6, 33468, Note_on_c, 0, 66, 0
6, 33480, Note_on_c, 0, 64, 120
6, 33528, Note_on_c, 0, 64, 0
6, 33540, Note_on_c, 0, 62, 120
6, 33588, Note_on_c, 0, 62, 0
6, 33600, Note_on_c, 0, 60, 96
6, 33633, Note_on_c, 0, 60, 0
6, 33660, Note_on_c, 0, 62, 75
6, 33704, Note_on_c, 0, 62, 0
6, 33720, Note_on_c, 0, 66, 110
6, 33766, Note_on_c, 0, 66, 0
6, 33780, Note_on_c, 0, 69, 110
6, 33826, Note_on_c, 0, 69, 0
6, 33840, Note_on_c, 0, 72, 127
6, 33890, Note_on_c, 0, 72, 0
6, 33900, Note_on_c, 0, 71, 82
6, 33948, Note_on_c, 0, 71, 0
6, 33960, Note_on_c, 0, 69, 90
6, 34010, Note_on_c, 0, 69, 0
6, 34020, Note_on_c, 0, 67, 96
6, 34055, Note_on_c, 0, 67, 0
6, 34080, Note_on_c, 0, 66, 102
6, 34130, Note_on_c, 0, 66, 0
6, 34140, Note_on_c, 0, 67, 110
6, 34184, Note_on_c, 0, 67, 0
6, 34200, Note_on_c, 0, 69, 66
6, 34249, Note_on_c, 0, 69, 0
6, 34260, Note_on_c, 0, 66, 93
6, 34310, Note_on_c, 0, 66, 0
6, 34320, Note_on_c, 0, 62, 102
6, 34372, Note_on_c, 0, 62, 0
6, 34380, Note_on_c, 0, 66, 88
6, 34429, Note_on_c, 0, 66, 0
6, 34440, Note_on_c, 0, 64, 90
6, 34479, Note_on_c, 0, 64, 0
6, 34500, Note_on_c, 0, 62, 110
6, 34550, Note_on_c, 0, 62, 0
6, 34560, Note_on_c, 0, 72, 127
6, 34615, Note_on_c, 0, 72, 0
6, 34620, Note_on_c, 0, 71, 93
6, 34665, Note_on_c, 0, 71, 0
6, 34680, Note_on_c, 0, 69, 110
6, 34734, Note_on_c, 0, 69, 0
6, 34740, Note_on_c, 0, 67, 110
6, 34780, Note_on_c, 0, 67, 0
6, 34800, Note_on_c, 0, 66, 110
6, 34849, Note_on_c, 0, 66, 0
6, 34860, Note_on_c, 0, 67, 102
6, 34909, Note_on_c, 0, 67, 0
6, 34920, Note_on_c, 0, 69, 88
6, 34970, Note_on_c, 0, 69, 0
6, 34980, Note_on_c, 0, 66, 102
6, 35026, Note_on_c, 0, 66, 0
6, 35040, Note_on_c, 0, 62, 106
6, 35089, Note_on_c, 0, 62, 0
6, 35100, Note_on_c, 0, 66, 102
6, 35151, Note_on_c, 0, 66, 0
6, 35160, Note_on_c, 0, 64, 82
6, 35205, Note_on_c, 0, 64, 0
6, 35220, Note_on_c, 0, 62, 110
6, 35273, Note_on_c, 0, 62, 0
6, 35280, Note_on_c, 0, 72, 127
6, 35334, Note_on_c, 0, 72, 0
6, 35340, Note_on_c, 0, 71, 88
6, 35386, Note_on_c, 0, 71, 0
6, 35400, Note_on_c, 0, 69, 98
6, 35456, Note_on_c, 0, 69, 0
6, 35460, Note_on_c, 0, 67, 90
6, 35496, Note_on_c, 0, 67, 0
6, 35520, Note_on_c, 0, 66, 98
6, 35571, Note_on_c, 0, 66, 0
6, 35580, Note_on_c, 0, 67, 90
6, 35622, Note_on_c, 0, 67, 0
6, 35640, Note_on_c, 0, 69, 90
6, 35676, Note_on_c, 0, 69, 0
6, 35700, Note_on_c, 0, 66, 102
6, 35728, Note_on_c, 0, 66, 0
6, 35760, Note_on_c, 0, 62, 102
6, 35819, Note_on_c, 0, 62, 0
6, 35880, Note_on_c, 0, 66, 127
6, 35880, Note_on_c, 0, 62, 89
6, 35926, Note_on_c, 0, 62, 0
6, 35926, Note_on_c, 0, 66, 0
6, 35940, Note_on_c, 0, 67, 106
6, 35940, Note_on_c, 0, 64, 81
6, 35975, Note_on_c, 0, 64, 0
6, 35979, Note_on_c, 0, 67, 0
6, 36000, Note_on_c, 0, 66, 105
6, 36000, Note_on_c, 0, 69, 127
6, 36063, Note_on_c, 0, 69, 0
6, 36082, Note_on_c, 0, 66, 0
6, 36120, Note_on_c, 0, 62, 89
6, 36120, Note_on_c, 0, 66, 102
6, 36153, Note_on_c, 0, 66, 0
6, 36156, Note_on_c, 0, 62, 0
6, 36180, Note_on_c, 0, 64, 96
6, 36180, Note_on_c, 0, 67, 110
6, 36209, Note_on_c, 0, 67, 0
6, 36213, Note_on_c, 0, 64, 0
6, 36240, Note_on_c, 0, 69, 127
6, 36240, Note_on_c, 0, 66, 111
6, 36300, Note_on_c, 0, 69, 0
6, 36304, Note_on_c, 0, 66, 0
6, 36360, Note_on_c, 0, 74, 127
6, 36360, Note_on_c, 0, 69, 111
6, 36429, Note_on_c, 0, 69, 0
6, 36432, Note_on_c, 0, 74, 0
6, 36480, Note_on_c, 0, 66, 105
6, 36480, Note_on_c, 0, 69, 127
6, 36548, Note_on_c, 0, 69, 0
6, 36552, Note_on_c, 0, 66, 0
6, 36600, Note_on_c, 0, 62, 89
6, 36600, Note_on_c, 0, 69, 102
6, 36644, Note_on_c, 0, 69, 0
6, 36660, Note_on_c, 0, 67, 106
6, 36672, Note_on_c, 0, 62, 0
6, 36699, Note_on_c, 0, 67, 0
6, 36720, Note_on_c, 0, 62, 84
6, 36720, Note_on_c, 0, 66, 110
6, 36784, Note_on_c, 0, 66, 0
6, 36840, Note_on_c, 0, 64, 90
6, 36877, Note_on_c, 0, 64, 0
6, 36900, Note_on_c, 0, 62, 85
6, 36936, Note_on_c, 0, 62, 0
6, 36938, Note_on_c, 0, 62, 0
6, 36960, Note_on_c, 0, 69, 106
6, 37005, Note_on_c, 0, 69, 0
6, 37020, Note_on_c, 0, 74, 106
6, 37062, Note_on_c, 0, 74, 0
6, 37080, Note_on_c, 0, 69, 82
6, 37124, Note_on_c, 0, 69, 0
6, 37140, Note_on_c, 0, 67, 90
6, 37172, Note_on_c, 0, 67, 0
6, 37200, Note_on_c, 0, 66, 120
6, 37239, Note_on_c, 0, 66, 0
6, 37260, Note_on_c, 0, 69, 96
6, 37299, Note_on_c, 0, 69, 0
6, 37320, Note_on_c, 0, 66, 117
6, 37355, Note_on_c, 0, 66, 0
6, 37380, Note_on_c, 0, 64, 117
6, 37419, Note_on_c, 0, 64, 0
6, 37440, Note_on_c, 0, 62, 110
6, 37490, Note_on_c, 0, 62, 0
6, 37500, Note_on_c, 0, 72, 102
6, 37544, Note_on_c, 0, 72, 0
6, 37560, Note_on_c, 0, 69, 102
6, 37614, Note_on_c, 0, 69, 0
6, 37620, Note_on_c, 0, 67, 88
6, 37666, Note_on_c, 0, 67, 0
6, 37680, Note_on_c, 0, 66, 90
6, 37717, Note_on_c, 0, 66, 0
6, 37740, Note_on_c, 0, 69, 90
6, 37782, Note_on_c, 0, 69, 0
6, 37800, Note_on_c, 0, 66, 73
6, 37832, Note_on_c, 0, 66, 0
6, 37860, Note_on_c, 0, 64, 90
6, 37902, Note_on_c, 0, 64, 0
6, 37920, Note_on_c, 0, 62, 102
6, 37969, Note_on_c, 0, 62, 0
6, 37980, Note_on_c, 0, 71, 96
6, 38024, Note_on_c, 0, 71, 0
6, 38040, Note_on_c, 0, 67, 93
6, 38086, Note_on_c, 0, 67, 0
6, 38100, Note_on_c, 0, 66, 82
6, 38142, Note_on_c, 0, 66, 0
6, 38160, Note_on_c, 0, 64, 75
6, 38200, Note_on_c, 0, 64, 0
6, 38220, Note_on_c, 0, 67, 90
6, 38271, Note_on_c, 0, 67, 0
6, 38280, Note_on_c, 0, 64, 90
6, 38320, Note_on_c, 0, 64, 0
6, 38340, Note_on_c, 0, 62, 73
6, 38373, Note_on_c, 0, 62, 0
6, 38400, Note_on_c, 0, 61, 117
6, 38444, Note_on_c, 0, 61, 0
6, 38460, Note_on_c, 0, 64, 75
6, 38505, Note_on_c, 0, 64, 0
6, 38520, Note_on_c, 0, 67, 102
6, 38549, Note_on_c, 0, 67, 0
6, 38580, Note_on_c, 0, 71, 102
6, 38608, Note_on_c, 0, 71, 0
6, 38640, Note_on_c, 0, 69, 85
6, 38656, Note_on_c, 0, 69, 0
6, 38670, Note_on_c, 0, 71, 102
6, 38685, Note_on_c, 0, 71, 0
6, 38700, Note_on_c, 0, 69, 82
6, 38803, Note_on_c, 0, 69, 0
6, 38820, Note_on_c, 0, 67, 93
6, 38849, Note_on_c, 0, 67, 0
6, 38880, Note_on_c, 0, 66, 75
6, 38931, Note_on_c, 0, 66, 0
6, 38940, Note_on_c, 0, 69, 75
6, 38978, Note_on_c, 0, 69, 0
6, 39000, Note_on_c, 0, 73, 102
6, 39048, Note_on_c, 0, 73, 0
6, 39060, Note_on_c, 0, 74, 106
6, 39106, Note_on_c, 0, 74, 0
6, 39120, Note_on_c, 0, 64, 75
6, 39169, Note_on_c, 0, 64, 0
6, 39180, Note_on_c, 0, 69, 117
6, 39222, Note_on_c, 0, 69, 0
6, 39240, Note_on_c, 0, 73, 110
6, 39288, Note_on_c, 0, 73, 0
6, 39300, Note_on_c, 0, 74, 102
6, 39348, Note_on_c, 0, 74, 0
6, 39360, Note_on_c, 0, 62, 44
6, 39408, Note_on_c, 0, 62, 0
6, 39420, Note_on_c, 0, 69, 96
6, 39469, Note_on_c, 0, 69, 0
6, 39480, Note_on_c, 0, 73, 73
6, 39530, Note_on_c, 0, 73, 0
6, 39540, Note_on_c, 0, 74, 96
6, 39584, Note_on_c, 0, 74, 0
6, 39600, Note_on_c, 0, 64, 85
6, 39653, Note_on_c, 0, 64, 0
6, 39660, Note_on_c, 0, 68, 85
6, 39709, Note_on_c, 0, 68, 0
6, 39720, Note_on_c, 0, 71, 102
6, 39774, Note_on_c, 0, 71, 0
6, 39780, Note_on_c, 0, 74, 96
6, 39817, Note_on_c, 0, 74, 0
6, 39840, Note_on_c, 0, 73, 75
6, 39891, Note_on_c, 0, 73, 0
6, 39900, Note_on_c, 0, 69, 85
6, 39957, Note_on_c, 0, 69, 0
6, 39960, Note_on_c, 0, 64, 75
6, 39997, Note_on_c, 0, 64, 0
6, 40020, Note_on_c, 0, 61, 75
6, 40065, Note_on_c, 0, 61, 0
6, 40080, Note_on_c, 0, 57, 110
6, 40131, Note_on_c, 0, 57, 0
6, 40140, Note_on_c, 0, 76, 104
6, 40186, Note_on_c, 0, 76, 0
6, 40200, Note_on_c, 0, 78, 110
6, 40245, Note_on_c, 0, 78, 0
6, 40260, Note_on_c, 0, 79, 98
6, 40302, Note_on_c, 0, 79, 0
6, 40320, Note_on_c, 0, 81, 88
6, 40364, Note_on_c, 0, 81, 0
6, 40380, Note_on_c, 0, 69, 110
6, 40418, Note_on_c, 0, 69, 0
6, 40440, Note_on_c, 0, 81, 124
6, 40476, Note_on_c, 0, 81, 0
6, 40500, Note_on_c, 0, 69, 96
6, 40537, Note_on_c, 0, 69, 0
6, 40560, Note_on_c, 0, 81, 88
6, 40605, Note_on_c, 0, 81, 0
6, 40620, Note_on_c, 0, 69, 88
6, 40629, Channel_aftertouch_c, 0, 22
6, 40630, Channel_aftertouch_c, 0, 22
6, 40641, Channel_aftertouch_c, 0, 11
6, 40641, Channel_aftertouch_c, 0, 0
6, 40641, Channel_aftertouch_c, 0, 11
6, 40642, Channel_aftertouch_c, 0, 0
6, 40660, Note_on_c, 0, 69, 0
6, 40680, Note_on_c, 0, 81, 127
6, 40690, Channel_aftertouch_c, 0, 12
6, 40690, Channel_aftertouch_c, 0, 12
6, 40702, Channel_aftertouch_c, 0, 6
6, 40702, Channel_aftertouch_c, 0, 6
6, 40717, Note_on_c, 0, 81, 0
6, 40740, Note_on_c, 0, 69, 88
6, 40748, Channel_aftertouch_c, 0, 15
6, 40748, Channel_aftertouch_c, 0, 15
6, 40759, Channel_aftertouch_c, 0, 7
6, 40759, Channel_aftertouch_c, 0, 7
6, 40782, Note_on_c, 0, 69, 0
6, 40800, Note_on_c, 0, 81, 102
6, 40813, Channel_aftertouch_c, 0, 3
6, 40813, Channel_aftertouch_c, 0, 3
6, 40824, Channel_aftertouch_c, 0, 17
6, 40824, Channel_aftertouch_c, 0, 17
6, 40825, Channel_aftertouch_c, 0, 1
6, 40835, Channel_aftertouch_c, 0, 8
6, 40847, Channel_aftertouch_c, 0, 4
6, 40848, Channel_aftertouch_c, 0, 4
6, 40853, Note_on_c, 0, 81, 0
6, 40859, Channel_aftertouch_c, 0, 2
6, 40859, Channel_aftertouch_c, 0, 2
6, 40860, Note_on_c, 0, 78, 120
6, 40905, Note_on_c, 0, 78, 0
6, 40920, Note_on_c, 0, 75, 82
6, 40969, Note_on_c, 0, 75, 0
6, 40980, Note_on_c, 0, 71, 90
6, 40998, Note_on_c, 0, 71, 0
6, 41040, Note_on_c, 0, 71, 113
6, 41095, Note_on_c, 0, 71, 0
6, 41100, Note_on_c, 0, 75, 106
6, 41145, Note_on_c, 0, 75, 0
6, 41160, Note_on_c, 0, 78, 82
6, 41208, Note_on_c, 0, 78, 0
6, 41220, Note_on_c, 0, 81, 93
6, 41260, Note_on_c, 0, 81, 0
6, 41280, Note_on_c, 0, 79, 120
6, 41324, Note_on_c, 0, 79, 0
6, 41340, Note_on_c, 0, 67, 110
6, 41379, Note_on_c, 0, 67, 0
6, 41400, Note_on_c, 0, 79, 124
6, 41439, Note_on_c, 0, 79, 0
6, 41460, Note_on_c, 0, 67, 102
6, 41502, Note_on_c, 0, 67, 0
6, 41520, Note_on_c, 0, 79, 104
6, 41562, Note_on_c, 0, 79, 0
6, 41580, Note_on_c, 0, 67, 102
6, 41620, Note_on_c, 0, 67, 0
6, 41640, Note_on_c, 0, 79, 102
6, 41686, Note_on_c, 0, 79, 0
6, 41700, Note_on_c, 0, 67, 96
6, 41739, Note_on_c, 0, 67, 0
6, 41760, Note_on_c, 0, 79, 117
6, 41768, Channel_aftertouch_c, 0, 25
6, 41768, Channel_aftertouch_c, 0, 25
6, 41779, Channel_aftertouch_c, 0, 12
6, 41779, Channel_aftertouch_c, 0, 12
6, 41791, Channel_aftertouch_c, 0, 6
6, 41791, Channel_aftertouch_c, 0, 6
6, 41802, Channel_aftertouch_c, 0, 3
6, 41802, Channel_aftertouch_c, 0, 3
6, 41812, Note_on_c, 0, 79, 0
6, 41814, Channel_aftertouch_c, 0, 1
6, 41814, Channel_aftertouch_c, 0, 1
6, 41820, Note_on_c, 0, 76, 88
6, 41866, Note_on_c, 0, 76, 0
6, 41880, Note_on_c, 0, 73, 82
6, 41928, Note_on_c, 0, 73, 0
6, 41940, Note_on_c, 0, 69, 82
6, 41957, Note_on_c, 0, 69, 0
6, 42000, Note_on_c, 0, 69, 117
6, 42050, Note_on_c, 0, 69, 0
6, 42060, Note_on_c, 0, 73, 96
6, 42100, Note_on_c, 0, 73, 0
6, 42120, Note_on_c, 0, 76, 90
6, 42170, Note_on_c, 0, 76, 0
6, 42180, Note_on_c, 0, 79, 98
6, 42222, Note_on_c, 0, 79, 0
6, 42240, Note_on_c, 0, 78, 120
6, 42279, Note_on_c, 0, 78, 0
6, 42300, Note_on_c, 0, 66, 96
6, 42335, Note_on_c, 0, 66, 0
6, 42360, Note_on_c, 0, 78, 127
6, 42396, Note_on_c, 0, 78, 0
6, 42420, Note_on_c, 0, 66, 88
6, 42458, Note_on_c, 0, 66, 0
6, 42480, Note_on_c, 0, 78, 127
6, 42519, Note_on_c, 0, 78, 0
6, 42540, Note_on_c, 0, 66, 88
6, 42575, Note_on_c, 0, 66, 0
6, 42600, Note_on_c, 0, 78, 117
6, 42640, Note_on_c, 0, 78, 0
6, 42660, Note_on_c, 0, 78, 127
6, 42696, Note_on_c, 0, 78, 0
6, 42720, Note_on_c, 0, 79, 96
6, 42731, Channel_aftertouch_c, 0, 1
6, 42731, Channel_aftertouch_c, 0, 1
6, 42768, Note_on_c, 0, 79, 0
6, 42780, Note_on_c, 0, 81, 127
6, 42819, Note_on_c, 0, 81, 0
6, 42840, Note_on_c, 0, 83, 120
6, 42878, Note_on_c, 0, 83, 0
6, 42900, Note_on_c, 0, 79, 127
6, 42938, Note_on_c, 0, 79, 0
6, 42960, Note_on_c, 0, 78, 124
6, 43002, Note_on_c, 0, 78, 0
6, 43020, Note_on_c, 0, 79, 110
6, 43059, Note_on_c, 0, 79, 0
6, 43080, Note_on_c, 0, 81, 93
6, 43124, Note_on_c, 0, 81, 0
6, 43140, Note_on_c, 0, 78, 98
6, 43178, Note_on_c, 0, 78, 0
6, 43200, Note_on_c, 0, 76, 102
6, 43244, Note_on_c, 0, 76, 0
6, 43260, Note_on_c, 0, 78, 96
6, 43297, Note_on_c, 0, 78, 0
6, 43320, Note_on_c, 0, 79, 110
6, 43365, Note_on_c, 0, 79, 0
6, 43380, Note_on_c, 0, 76, 96
6, 43415, Note_on_c, 0, 76, 0
6, 43440, Note_on_c, 0, 74, 88
6, 43480, Note_on_c, 0, 74, 0
6, 43500, Note_on_c, 0, 76, 85
6, 43537, Note_on_c, 0, 76, 0
6, 43560, Note_on_c, 0, 78, 106
6, 43597, Note_on_c, 0, 78, 0
6, 43620, Note_on_c, 0, 74, 102
6, 43658, Note_on_c, 0, 74, 0
6, 43680, Note_on_c, 0, 73, 96
6, 43729, Note_on_c, 0, 73, 0
6, 43740, Note_on_c, 0, 74, 106
6, 43780, Note_on_c, 0, 74, 0
6, 43800, Note_on_c, 0, 76, 88
6, 43844, Note_on_c, 0, 76, 0
6, 43860, Note_on_c, 0, 73, 93
6, 43891, Note_on_c, 0, 73, 0
6, 43920, Note_on_c, 0, 67, 127
6, 43952, Note_on_c, 0, 67, 0
6, 43980, Note_on_c, 0, 69, 93
6, 44018, Note_on_c, 0, 69, 0
6, 44040, Note_on_c, 0, 71, 117
6, 44084, Note_on_c, 0, 71, 0
6, 44100, Note_on_c, 0, 67, 102
6, 44132, Note_on_c, 0, 67, 0
6, 44160, Note_on_c, 0, 64, 98
6, 44199, Note_on_c, 0, 64, 0
6, 44220, Note_on_c, 0, 66, 96
6, 44256, Note_on_c, 0, 66, 0
6, 44280, Note_on_c, 0, 67, 85
6, 44318, Note_on_c, 0, 67, 0
6, 44340, Note_on_c, 0, 64, 93
6, 44371, Note_on_c, 0, 64, 0
6, 44400, Note_on_c, 0, 61, 110
6, 44439, Note_on_c, 0, 61, 0
6, 44460, Note_on_c, 0, 62, 85
6, 44502, Note_on_c, 0, 62, 0
6, 44520, Note_on_c, 0, 64, 82
6, 44568, Note_on_c, 0, 64, 0
6, 44580, Note_on_c, 0, 61, 73
6, 44619, Note_on_c, 0, 61, 0
6, 44640, Note_on_c, 0, 57, 75
6, 44689, Note_on_c, 0, 57, 0
6, 44700, Note_on_c, 0, 61, 85
6, 44751, Note_on_c, 0, 61, 0
6, 44760, Note_on_c, 0, 64, 75
6, 44815, Note_on_c, 0, 64, 0
6, 44820, Note_on_c, 0, 67, 88
6, 44845, Note_on_c, 0, 67, 0
6, 44880, Note_on_c, 0, 69, 88
6, 44924, Note_on_c, 0, 69, 0
6, 44940, Note_on_c, 0, 73, 88
6, 44984, Note_on_c, 0, 73, 0
6, 45000, Note_on_c, 0, 76, 90
6, 45054, Note_on_c, 0, 76, 0
6, 45060, Note_on_c, 0, 78, 75
6, 45090, Note_on_c, 0, 78, 0
6, 45090, Note_on_c, 0, 79, 82
6, 45120, Note_on_c, 0, 79, 0
6, 45120, Note_on_c, 0, 78, 120
6, 45219, Note_on_c, 0, 78, 0
6, 45240, Note_on_c, 0, 76, 127
6, 45288, Note_on_c, 0, 76, 0
6, 45300, Note_on_c, 0, 74, 75
6, 45312, Channel_aftertouch_c, 0, 3
6, 45312, Channel_aftertouch_c, 0, 3
6, 45322, Channel_aftertouch_c, 0, 1
6, 45323, Channel_aftertouch_c, 0, 1
6, 45340, Note_on_c, 0, 74, 0
6, 45360, Note_on_c, 0, 76, 117
6, 45437, Note_on_c, 0, 76, 0
6, 45480, Note_on_c, 0, 74, 106
6, 45519, Note_on_c, 0, 74, 0
6, 45540, Note_on_c, 0, 73, 102
6, 45577, Note_on_c, 0, 73, 0
6, 45600, Note_on_c, 0, 74, 113
6, 45652, Note_on_c, 0, 74, 0
6, 45660, Note_on_c, 0, 78, 93
6, 45685, Note_on_c, 0, 78, 0
6, 45690, Note_on_c, 0, 79, 102
6, 45720, Note_on_c, 0, 81, 102
6, 45744, Note_on_c, 0, 79, 0
6, 45768, Note_on_c, 0, 81, 0
6, 45780, Note_on_c, 0, 74, 96
6, 45820, Note_on_c, 0, 74, 0
6, 45840, Note_on_c, 0, 83, 113
6, 45893, Note_on_c, 0, 83, 0
6, 45900, Note_on_c, 0, 74, 75
6, 45949, Note_on_c, 0, 74, 0
6, 45960, Note_on_c, 0, 85, 124
6, 46011, Note_on_c, 0, 85, 0
6, 46020, Note_on_c, 0, 74, 75
6, 46071, Note_on_c, 0, 74, 0
6, 46080, Note_on_c, 0, 86, 85
6, 46135, Note_on_c, 0, 86, 0
6, 46140, Note_on_c, 0, 85, 88
6, 46166, Note_on_c, 0, 85, 0
6, 46170, Note_on_c, 0, 83, 75
6, 46200, Note_on_c, 0, 81, 73
6, 46210, Note_on_c, 0, 83, 0
6, 46236, Note_on_c, 0, 81, 0
6, 46260, Note_on_c, 0, 79, 85
6, 46289, Note_on_c, 0, 79, 0
6, 46320, Note_on_c, 0, 78, 102
6, 46335, Note_on_c, 0, 78, 0
6, 46350, Note_on_c, 0, 79, 117
6, 46380, Note_on_c, 0, 81, 110
6, 46394, Note_on_c, 0, 79, 0
6, 46419, Note_on_c, 0, 81, 0
6, 46440, Note_on_c, 0, 76, 110
6, 46456, Note_on_c, 0, 76, 0
6, 46470, Note_on_c, 0, 78, 106
6, 46488, Note_on_c, 0, 78, 0
6, 46500, Note_on_c, 0, 79, 102
6, 46529, Note_on_c, 0, 79, 0
6, 46560, Note_on_c, 0, 78, 110
6, 46579, Note_on_c, 0, 78, 0
6, 46590, Note_on_c, 0, 76, 85
6, 46608, Note_on_c, 0, 76, 0
6, 46620, Note_on_c, 0, 74, 102
6, 46655, Note_on_c, 0, 74, 0
6, 46680, Note_on_c, 0, 81, 90
6, 46729, Note_on_c, 0, 81, 0
6, 46740, Note_on_c, 0, 78, 102
6, 46790, Note_on_c, 0, 78, 0
6, 46800, Note_on_c, 0, 86, 110
6, 46825, Note_on_c, 0, 86, 0
6, 46860, Note_on_c, 0, 81, 79
6, 46900, Note_on_c, 0, 81, 0
6, 46920, Note_on_c, 0, 78, 44
6, 46953, Note_on_c, 0, 78, 0
6, 46980, Note_on_c, 0, 74, 79
6, 47007, Note_on_c, 0, 74, 0
6, 47040, Note_on_c, 0, 69, 90
6, 47079, Note_on_c, 0, 69, 0
6, 47100, Note_on_c, 0, 74, 102
6, 47127, Note_on_c, 0, 74, 0
6, 47130, Note_on_c, 0, 73, 70
6, 47156, Note_on_c, 0, 73, 0
6, 47160, Note_on_c, 0, 74, 79
6, 47200, Note_on_c, 0, 74, 0
6, 47220, Note_on_c, 0, 69, 96
6, 47249, Note_on_c, 0, 69, 0
6, 47280, Note_on_c, 0, 66, 63
6, 47337, Note_on_c, 0, 66, 0
6, 47340, Note_on_c, 0, 69, 90
6, 47369, Note_on_c, 0, 69, 0
6, 47370, Note_on_c, 0, 67, 102
6, 47399, Note_on_c, 0, 67, 0
6, 47400, Note_on_c, 0, 69, 85
6, 47457, Note_on_c, 0, 69, 0
6, 47460, Note_on_c, 0, 66, 93
6, 47517, Note_on_c, 0, 66, 0
6, 47520, Note_on_c, 0, 62, 117
6, 48288, Note_on_c, 0, 62, 0
6, 48300, Note_on_c, 0, 64, 106
6, 48325, Note_on_c, 0, 64, 0
6, 48330, Note_on_c, 0, 66, 102
6, 48354, Note_on_c, 0, 66, 0
6, 48360, Note_on_c, 0, 67, 127
6, 48379, Note_on_c, 0, 67, 0
6, 48390, Note_on_c, 0, 69, 85
6, 48418, Note_on_c, 0, 69, 0
6, 48420, Note_on_c, 0, 71, 85
6, 48450, Note_on_c, 0, 73, 127
6, 48451, Note_on_c, 0, 71, 0
6, 48469, Note_on_c, 0, 73, 0
6, 48480, Note_on_c, 0, 74, 106
6, 48533, Note_on_c, 0, 74, 0
6, 48540, Note_on_c, 0, 76, 110
6, 48585, Note_on_c, 0, 76, 0
6, 48600, Note_on_c, 0, 78, 117
6, 48655, Note_on_c, 0, 78, 0
6, 48660, Note_on_c, 0, 74, 127
6, 48699, Note_on_c, 0, 74, 0
6, 48720, Note_on_c, 0, 79, 88
6, 48766, Note_on_c, 0, 79, 0
6, 48780, Note_on_c, 0, 76, 102
6, 48825, Note_on_c, 0, 76, 0
6, 48840, Note_on_c, 0, 81, 127
6, 48913, Note_on_c, 0, 81, 0
6, 48960, Note_on_c, 0, 79, 117
6, 49017, Note_on_c, 0, 79, 0
6, 49020, Note_on_c, 0, 78, 117
6, 49062, Note_on_c, 0, 78, 0
6, 49080, Note_on_c, 0, 76, 110
6, 49117, Note_on_c, 0, 76, 0
6, 49140, Note_on_c, 0, 74, 127
6, 49180, Note_on_c, 0, 74, 0
6, 49200, Note_on_c, 0, 78, 113
6, 49248, Note_on_c, 0, 78, 0
6, 49260, Note_on_c, 0, 76, 110
6, 49308, Note_on_c, 0, 76, 0
6, 49320, Note_on_c, 0, 74, 127
6, 49362, Note_on_c, 0, 74, 0
6, 49380, Note_on_c, 0, 73, 120
6, 49416, Note_on_c, 0, 73, 0
6, 49440, Note_on_c, 0, 74, 127
6, 49656, Note_on_c, 0, 74, 0
6, 49920, Note_on_c, 0, 78, 96
6, 49966, Note_on_c, 0, 78, 0
6, 49980, Note_on_c, 0, 71, 110
6, 50024, Note_on_c, 0, 71, 0
6, 50040, Note_on_c, 0, 70, 110
6, 50084, Note_on_c, 0, 70, 0
6, 50100, Note_on_c, 0, 71, 75
6, 50157, Note_on_c, 0, 71, 0
6, 50160, Note_on_c, 0, 66, 82
6, 50206, Note_on_c, 0, 66, 0
6, 50220, Note_on_c, 0, 71, 102
6, 50266, Note_on_c, 0, 71, 0
6, 50280, Note_on_c, 0, 73, 117
6, 50325, Note_on_c, 0, 73, 0
6, 50340, Note_on_c, 0, 70, 85
6, 50379, Note_on_c, 0, 70, 0
6, 50400, Note_on_c, 0, 71, 90
6, 50442, Note_on_c, 0, 71, 0
6, 50460, Note_on_c, 0, 66, 82
6, 50512, Note_on_c, 0, 66, 0
6, 50520, Note_on_c, 0, 67, 75
6, 50557, Note_on_c, 0, 67, 0
6, 50580, Note_on_c, 0, 64, 88
6, 50620, Note_on_c, 0, 64, 0
6, 50640, Note_on_c, 0, 66, 110
6, 50688, Note_on_c, 0, 66, 0
6, 50700, Note_on_c, 0, 71, 75
6, 50754, Note_on_c, 0, 71, 0
6, 50760, Note_on_c, 0, 73, 88
6, 50810, Note_on_c, 0, 73, 0
6, 50820, Note_on_c, 0, 74, 90
6, 50847, Note_on_c, 0, 74, 0
6, 50880, Note_on_c, 0, 73, 70
6, 50920, Note_on_c, 0, 73, 0
6, 50940, Note_on_c, 0, 78, 82
6, 50993, Note_on_c, 0, 78, 0
6, 51000, Note_on_c, 0, 77, 102
6, 51052, Note_on_c, 0, 77, 0
6, 51060, Note_on_c, 0, 78, 96
6, 51108, Note_on_c, 0, 78, 0
6, 51120, Note_on_c, 0, 73, 96
6, 51166, Note_on_c, 0, 73, 0
6, 51180, Note_on_c, 0, 78, 104
6, 51233, Note_on_c, 0, 78, 0
6, 51240, Note_on_c, 0, 80, 88
6, 51289, Note_on_c, 0, 80, 0
6, 51300, Note_on_c, 0, 77, 88
6, 51344, Note_on_c, 0, 77, 0
6, 51360, Note_on_c, 0, 78, 98
6, 51416, Note_on_c, 0, 78, 0
6, 51420, Note_on_c, 0, 73, 117
6, 51469, Note_on_c, 0, 73, 0
6, 51480, Note_on_c, 0, 74, 90
6, 51522, Note_on_c, 0, 74, 0
6, 51540, Note_on_c, 0, 71, 102
6, 51588, Note_on_c, 0, 71, 0
6, 51600, Note_on_c, 0, 73, 104
6, 51646, Note_on_c, 0, 73, 0
6, 51660, Note_on_c, 0, 78, 88
6, 51715, Note_on_c, 0, 78, 0
6, 51720, Note_on_c, 0, 77, 63
6, 51759, Note_on_c, 0, 77, 0
6, 51780, Note_on_c, 0, 78, 75
6, 51832, Note_on_c, 0, 78, 0
6, 51840, Note_on_c, 0, 71, 82
6, 51892, Note_on_c, 0, 71, 0
6, 51900, Note_on_c, 0, 70, 70
6, 51939, Note_on_c, 0, 70, 0
6, 51960, Note_on_c, 0, 71, 96
6, 52013, Note_on_c, 0, 71, 0
6, 52020, Note_on_c, 0, 76, 90
6, 52077, Note_on_c, 0, 76, 0
6, 52080, Note_on_c, 0, 78, 75
6, 52132, Note_on_c, 0, 78, 0
6, 52140, Note_on_c, 0, 75, 96
6, 52192, Note_on_c, 0, 75, 0
6, 52200, Note_on_c, 0, 76, 79
6, 52250, Note_on_c, 0, 76, 0
6, 52260, Note_on_c, 0, 71, 73
6, 52312, Note_on_c, 0, 71, 0
6, 52320, Note_on_c, 0, 72, 96
6, 52374, Note_on_c, 0, 72, 0
6, 52380, Note_on_c, 0, 69, 73
6, 52424, Note_on_c, 0, 69, 0
6, 52440, Note_on_c, 0, 71, 75
6, 52490, Note_on_c, 0, 71, 0
6, 52500, Note_on_c, 0, 66, 75
6, 52546, Note_on_c, 0, 66, 0
6, 52560, Note_on_c, 0, 67, 66
6, 52616, Note_on_c, 0, 67, 0
6, 52620, Note_on_c, 0, 64, 79
6, 52673, Note_on_c, 0, 64, 0
6, 52680, Note_on_c, 0, 66, 58
6, 52730, Note_on_c, 0, 66, 0
6, 52740, Note_on_c, 0, 67, 63
6, 52780, Note_on_c, 0, 67, 0
6, 52800, Note_on_c, 0, 58, 102
6, 52856, Note_on_c, 0, 58, 0
6, 52860, Note_on_c, 0, 66, 88
6, 52915, Note_on_c, 0, 66, 0
6, 52920, Note_on_c, 0, 73, 75
6, 52977, Note_on_c, 0, 73, 0
6, 52980, Note_on_c, 0, 74, 96
6, 53030, Note_on_c, 0, 74, 0
6, 53040, Note_on_c, 0, 76, 96
6, 53095, Note_on_c, 0, 76, 0
6, 53100, Note_on_c, 0, 73, 82
6, 53151, Note_on_c, 0, 73, 0
6, 53160, Note_on_c, 0, 74, 96
6, 53214, Note_on_c, 0, 74, 0
6, 53220, Note_on_c, 0, 71, 85
6, 53271, Note_on_c, 0, 71, 0
6, 53280, Note_on_c, 0, 70, 93
6, 53336, Note_on_c, 0, 70, 0
6, 53340, Note_on_c, 0, 73, 106
6, 53388, Note_on_c, 0, 73, 0
6, 53400, Note_on_c, 0, 76, 117
6, 53455, Note_on_c, 0, 76, 0
6, 53460, Note_on_c, 0, 79, 106
6, 53515, Note_on_c, 0, 79, 0
6, 53520, Note_on_c, 0, 78, 93
6, 53577, Note_on_c, 0, 78, 0
6, 53580, Note_on_c, 0, 76, 79
6, 53634, Note_on_c, 0, 76, 0
6, 53640, Note_on_c, 0, 74, 82
6, 53689, Note_on_c, 0, 74, 0
6, 53700, Note_on_c, 0, 73, 88
6, 53751, Note_on_c, 0, 73, 0
6, 53760, Note_on_c, 0, 74, 82
6, 53816, Note_on_c, 0, 74, 0
6, 53820, Note_on_c, 0, 73, 75
6, 53859, Note_on_c, 0, 73, 0
6, 53880, Note_on_c, 0, 74, 82
6, 53928, Note_on_c, 0, 74, 0
6, 53940, Note_on_c, 0, 78, 82
6, 54000, Note_on_c, 0, 83, 85
6, 54007, Note_on_c, 0, 78, 0
6, 54053, Note_on_c, 0, 83, 0
6, 54060, Note_on_c, 0, 78, 88
6, 54108, Note_on_c, 0, 78, 0
6, 54120, Note_on_c, 0, 74, 90
6, 54173, Note_on_c, 0, 74, 0
6, 54180, Note_on_c, 0, 73, 70
6, 54224, Note_on_c, 0, 73, 0
6, 54240, Note_on_c, 0, 74, 82
6, 54297, Note_on_c, 0, 74, 0
6, 54300, Note_on_c, 0, 73, 96
6, 54344, Note_on_c, 0, 73, 0
6, 54360, Note_on_c, 0, 74, 79
6, 54412, Note_on_c, 0, 74, 0
6, 54420, Note_on_c, 0, 78, 75
6, 54480, Note_on_c, 0, 83, 102
6, 54484, Note_on_c, 0, 78, 0
6, 54536, Note_on_c, 0, 83, 0
6, 54540, Note_on_c, 0, 78, 75
6, 54596, Note_on_c, 0, 78, 0
6, 54600, Note_on_c, 0, 74, 79
6, 54650, Note_on_c, 0, 74, 0
6, 54660, Note_on_c, 0, 71, 73
6, 54710, Note_on_c, 0, 71, 0
6, 54720, Note_on_c, 0, 73, 70
6, 54776, Note_on_c, 0, 73, 0
6, 54780, Note_on_c, 0, 71, 70
6, 54835, Note_on_c, 0, 71, 0
6, 54840, Note_on_c, 0, 73, 70
6, 54894, Note_on_c, 0, 73, 0
6, 54900, Note_on_c, 0, 80, 66
6, 54956, Note_on_c, 0, 80, 0
6, 54960, Note_on_c, 0, 83, 117
6, 55016, Note_on_c, 0, 83, 0
6, 55020, Note_on_c, 0, 80, 75
6, 55071, Note_on_c, 0, 80, 0
6, 55080, Note_on_c, 0, 73, 66
6, 55137, Note_on_c, 0, 73, 0
6, 55140, Note_on_c, 0, 71, 66
6, 55190, Note_on_c, 0, 71, 0
6, 55200, Note_on_c, 0, 73, 66
6, 55256, Note_on_c, 0, 73, 0
6, 55260, Note_on_c, 0, 71, 63
6, 55312, Note_on_c, 0, 71, 0
6, 55320, Note_on_c, 0, 73, 75
6, 55377, Note_on_c, 0, 73, 0
6, 55380, Note_on_c, 0, 78, 70
6, 55440, Note_on_c, 0, 81, 110
6, 55444, Note_on_c, 0, 78, 0
6, 55498, Note_on_c, 0, 81, 0
6, 55500, Note_on_c, 0, 78, 75
6, 55559, Note_on_c, 0, 78, 0
6, 55560, Note_on_c, 0, 73, 66
6, 55616, Note_on_c, 0, 73, 0
6, 55620, Note_on_c, 0, 71, 85
6, 55671, Note_on_c, 0, 71, 0
6, 55680, Note_on_c, 0, 73, 82
6, 55737, Note_on_c, 0, 73, 0
6, 55740, Note_on_c, 0, 71, 55
6, 55797, Note_on_c, 0, 71, 0
6, 55800, Note_on_c, 0, 73, 63
6, 55853, Note_on_c, 0, 73, 0
6, 55860, Note_on_c, 0, 78, 96
6, 55915, Note_on_c, 0, 78, 0
6, 55920, Note_on_c, 0, 81, 96
6, 55980, Note_on_c, 0, 78, 66
6, 55987, Note_on_c, 0, 81, 0
6, 56040, Note_on_c, 0, 73, 58
6, 56043, Note_on_c, 0, 78, 0
6, 56096, Note_on_c, 0, 73, 0
6, 56100, Note_on_c, 0, 71, 58
6, 56156, Note_on_c, 0, 71, 0
6, 56160, Note_on_c, 0, 72, 82
6, 56216, Note_on_c, 0, 72, 0
6, 56220, Note_on_c, 0, 71, 66
6, 56270, Note_on_c, 0, 71, 0
6, 56280, Note_on_c, 0, 72, 82
6, 56331, Note_on_c, 0, 72, 0
6, 56340, Note_on_c, 0, 78, 85
6, 56400, Note_on_c, 0, 81, 82
6, 56403, Note_on_c, 0, 78, 0
6, 56459, Note_on_c, 0, 81, 0
6, 56460, Note_on_c, 0, 78, 82
6, 56519, Note_on_c, 0, 78, 0
6, 56520, Note_on_c, 0, 72, 79
6, 56575, Note_on_c, 0, 72, 0
6, 56580, Note_on_c, 0, 69, 63
6, 56636, Note_on_c, 0, 69, 0
6, 56640, Note_on_c, 0, 71, 75
6, 56692, Note_on_c, 0, 71, 0
6, 56700, Note_on_c, 0, 69, 49
6, 56756, Note_on_c, 0, 69, 0
6, 56760, Note_on_c, 0, 71, 70
6, 56816, Note_on_c, 0, 71, 0
6, 56820, Note_on_c, 0, 78, 75
6, 56878, Note_on_c, 0, 78, 0
6, 56880, Note_on_c, 0, 81, 90
6, 56935, Note_on_c, 0, 81, 0
6, 56940, Note_on_c, 0, 78, 82
6, 56988, Note_on_c, 0, 78, 0
6, 57000, Note_on_c, 0, 71, 63
6, 57058, Note_on_c, 0, 71, 0
6, 57060, Note_on_c, 0, 69, 58
6, 57113, Note_on_c, 0, 69, 0
6, 57120, Note_on_c, 0, 71, 93
6, 57176, Note_on_c, 0, 71, 0
6, 57180, Note_on_c, 0, 69, 66
6, 57235, Note_on_c, 0, 69, 0
6, 57240, Note_on_c, 0, 71, 79
6, 57293, Note_on_c, 0, 71, 0
6, 57300, Note_on_c, 0, 78, 88
6, 57355, Note_on_c, 0, 78, 0
6, 57360, Note_on_c, 0, 81, 96
6, 57417, Note_on_c, 0, 81, 0
6, 57420, Note_on_c, 0, 78, 82
6, 57472, Note_on_c, 0, 78, 0
6, 57480, Note_on_c, 0, 71, 75
6, 57536, Note_on_c, 0, 71, 0
6, 57540, Note_on_c, 0, 69, 73
6, 57589, Note_on_c, 0, 69, 0
6, 57600, Note_on_c, 0, 71, 79
6, 57657, Note_on_c, 0, 71, 0
6, 57660, Note_on_c, 0, 69, 66
6, 57713, Note_on_c, 0, 69, 0
6, 57720, Note_on_c, 0, 71, 73
6, 57772, Note_on_c, 0, 71, 0
6, 57780, Note_on_c, 0, 76, 90
6, 57836, Note_on_c, 0, 76, 0
6, 57840, Note_on_c, 0, 79, 73
6, 57890, Note_on_c, 0, 79, 0
6, 57900, Note_on_c, 0, 76, 90
6, 57948, Note_on_c, 0, 76, 0
6, 57960, Note_on_c, 0, 71, 63
6, 58015, Note_on_c, 0, 71, 0
6, 58020, Note_on_c, 0, 69, 70
6, 58066, Note_on_c, 0, 69, 0
6, 58080, Note_on_c, 0, 71, 79
6, 58136, Note_on_c, 0, 71, 0
6, 58140, Note_on_c, 0, 69, 70
6, 58192, Note_on_c, 0, 69, 0
6, 58200, Note_on_c, 0, 71, 75
6, 58256, Note_on_c, 0, 71, 0
6, 58260, Note_on_c, 0, 76, 66
6, 58314, Note_on_c, 0, 76, 0
6, 58320, Note_on_c, 0, 79, 93
6, 58378, Note_on_c, 0, 79, 0
6, 58380, Note_on_c, 0, 76, 75
6, 58436, Note_on_c, 0, 76, 0
6, 58440, Note_on_c, 0, 71, 82
6, 58497, Note_on_c, 0, 71, 0
6, 58500, Note_on_c, 0, 69, 75
6, 58533, Note_on_c, 0, 69, 0
6, 58560, Note_on_c, 0, 70, 102
6, 58619, Note_on_c, 0, 70, 0
6, 58620, Note_on_c, 0, 76, 79
6, 58680, Note_on_c, 0, 79, 85
6, 58683, Note_on_c, 0, 76, 0
6, 58733, Note_on_c, 0, 79, 0
6, 58740, Note_on_c, 0, 78, 73
6, 58799, Note_on_c, 0, 78, 0
6, 58800, Note_on_c, 0, 79, 96
6, 58853, Note_on_c, 0, 79, 0
6, 58860, Note_on_c, 0, 76, 75
6, 58915, Note_on_c, 0, 76, 0
6, 58920, Note_on_c, 0, 71, 66
6, 58976, Note_on_c, 0, 71, 0
6, 58980, Note_on_c, 0, 76, 85
6, 59040, Note_on_c, 0, 70, 82
6, 59043, Note_on_c, 0, 76, 0
6, 59100, Note_on_c, 0, 70, 0
6, 59100, Note_on_c, 0, 76, 90
6, 59159, Note_on_c, 0, 76, 0
6, 59160, Note_on_c, 0, 79, 98
6, 59216, Note_on_c, 0, 79, 0
6, 59220, Note_on_c, 0, 78, 82
6, 59276, Note_on_c, 0, 78, 0
6, 59280, Note_on_c, 0, 79, 98
6, 59337, Note_on_c, 0, 79, 0
6, 59340, Note_on_c, 0, 76, 90
6, 59399, Note_on_c, 0, 76, 0
6, 59400, Note_on_c, 0, 71, 73
6, 59455, Note_on_c, 0, 71, 0
6, 59460, Note_on_c, 0, 76, 90
6, 59519, Note_on_c, 0, 76, 0
6, 59520, Note_on_c, 0, 73, 82
6, 59577, Note_on_c, 0, 73, 0
6, 59580, Note_on_c, 0, 71, 66
6, 59636, Note_on_c, 0, 71, 0
6, 59640, Note_on_c, 0, 73, 85
6, 59694, Note_on_c, 0, 73, 0
6, 59700, Note_on_c, 0, 76, 96
6, 59760, Note_on_c, 0, 79, 93
6, 59768, Note_on_c, 0, 76, 0
6, 59820, Note_on_c, 0, 76, 75
6, 59830, Note_on_c, 0, 79, 0
6, 59880, Note_on_c, 0, 73, 93
6, 59902, Note_on_c, 0, 76, 0
6, 59937, Note_on_c, 0, 73, 0
6, 59940, Note_on_c, 0, 71, 79
6, 59994, Note_on_c, 0, 71, 0
6, 60000, Note_on_c, 0, 73, 96
6, 60058, Note_on_c, 0, 73, 0
6, 60060, Note_on_c, 0, 71, 73
6, 60118, Note_on_c, 0, 71, 0
6, 60120, Note_on_c, 0, 73, 93
6, 60177, Note_on_c, 0, 73, 0
6, 60180, Note_on_c, 0, 76, 85
6, 60240, Note_on_c, 0, 78, 82
6, 60246, Note_on_c, 0, 76, 0
6, 60296, Note_on_c, 0, 78, 0
6, 60300, Note_on_c, 0, 76, 79
6, 60355, Note_on_c, 0, 76, 0
6, 60360, Note_on_c, 0, 73, 85
6, 60414, Note_on_c, 0, 73, 0
6, 60420, Note_on_c, 0, 70, 88
6, 60460, Note_on_c, 0, 70, 0
6, 60480, Note_on_c, 0, 66, 75
6, 60539, Note_on_c, 0, 66, 0
6, 60540, Note_on_c, 0, 73, 79
6, 60594, Note_on_c, 0, 73, 0
6, 60600, Note_on_c, 0, 74, 82
6, 60657, Note_on_c, 0, 74, 0
6, 60660, Note_on_c, 0, 76, 79
6, 60716, Note_on_c, 0, 76, 0
6, 60720, Note_on_c, 0, 74, 85
6, 60780, Note_on_c, 0, 73, 75
6, 60784, Note_on_c, 0, 74, 0
6, 60828, Note_on_c, 0, 73, 0
6, 60840, Note_on_c, 0, 66, 73
6, 60895, Note_on_c, 0, 66, 0
6, 60900, Note_on_c, 0, 73, 73
6, 60957, Note_on_c, 0, 73, 0
6, 60960, Note_on_c, 0, 66, 82
6, 61016, Note_on_c, 0, 66, 0
6, 61020, Note_on_c, 0, 71, 73
6, 61076, Note_on_c, 0, 71, 0
6, 61080, Note_on_c, 0, 74, 85
6, 61140, Note_on_c, 0, 76, 102
6, 61143, Note_on_c, 0, 74, 0
6, 61195, Note_on_c, 0, 76, 0
6, 61200, Note_on_c, 0, 74, 63
6, 61256, Note_on_c, 0, 74, 0
6, 61260, Note_on_c, 0, 71, 79
6, 61315, Note_on_c, 0, 71, 0
6, 61320, Note_on_c, 0, 66, 75
6, 61373, Note_on_c, 0, 66, 0
6, 61380, Note_on_c, 0, 71, 73
6, 61407, Note_on_c, 0, 71, 0
6, 61440, Note_on_c, 0, 69, 75
6, 61497, Note_on_c, 0, 69, 0
6, 61500, Note_on_c, 0, 67, 70
6, 61552, Note_on_c, 0, 67, 0
6, 61560, Note_on_c, 0, 69, 82
6, 61610, Note_on_c, 0, 69, 0
6, 61620, Note_on_c, 0, 72, 85
6, 61679, Note_on_c, 0, 72, 0
6, 61680, Note_on_c, 0, 75, 75
6, 61738, Note_on_c, 0, 75, 0
6, 61740, Note_on_c, 0, 72, 75
6, 61797, Note_on_c, 0, 72, 0
6, 61800, Note_on_c, 0, 69, 82
6, 61853, Note_on_c, 0, 69, 0
6, 61860, Note_on_c, 0, 66, 88
6, 61910, Note_on_c, 0, 66, 0
6, 61920, Note_on_c, 0, 67, 82
6, 61979, Note_on_c, 0, 67, 0
6, 61980, Note_on_c, 0, 66, 88
6, 62025, Note_on_c, 0, 66, 0
6, 62040, Note_on_c, 0, 67, 75
6, 62092, Note_on_c, 0, 67, 0
6, 62100, Note_on_c, 0, 71, 79
6, 62160, Note_on_c, 0, 71, 0
6, 62160, Note_on_c, 0, 76, 85
6, 62220, Note_on_c, 0, 71, 63
6, 62223, Note_on_c, 0, 76, 0
6, 62276, Note_on_c, 0, 71, 0
6, 62280, Note_on_c, 0, 67, 75
6, 62337, Note_on_c, 0, 67, 0
6, 62340, Note_on_c, 0, 66, 75
6, 62397, Note_on_c, 0, 66, 0
6, 62400, Note_on_c, 0, 67, 96
6, 62458, Note_on_c, 0, 67, 0
6, 62460, Note_on_c, 0, 66, 66
6, 62516, Note_on_c, 0, 66, 0
6, 62520, Note_on_c, 0, 67, 88
6, 62579, Note_on_c, 0, 67, 0
6, 62580, Note_on_c, 0, 71, 79
6, 62636, Note_on_c, 0, 71, 0
6, 62640, Note_on_c, 0, 73, 66
6, 62695, Note_on_c, 0, 73, 0
6, 62700, Note_on_c, 0, 71, 96
6, 62757, Note_on_c, 0, 71, 0
6, 62760, Note_on_c, 0, 67, 90
6, 62817, Note_on_c, 0, 67, 0
6, 62820, Note_on_c, 0, 64, 85
6, 62876, Note_on_c, 0, 64, 0
6, 62880, Note_on_c, 0, 66, 70
6, 62936, Note_on_c, 0, 66, 0
6, 62940, Note_on_c, 0, 64, 90
6, 62996, Note_on_c, 0, 64, 0
6, 63000, Note_on_c, 0, 66, 82
6, 63056, Note_on_c, 0, 66, 0
6, 63060, Note_on_c, 0, 69, 82
6, 63120, Note_on_c, 0, 74, 85
6, 63128, Note_on_c, 0, 69, 0
6, 63180, Note_on_c, 0, 74, 0
6, 63180, Note_on_c, 0, 69, 82
6, 63240, Note_on_c, 0, 69, 0
6, 63240, Note_on_c, 0, 66, 96
6, 63297, Note_on_c, 0, 66, 0
6, 63300, Note_on_c, 0, 72, 75
6, 63360, Note_on_c, 0, 62, 66
6, 63361, Note_on_c, 0, 72, 0
6, 63417, Note_on_c, 0, 62, 0
6, 63420, Note_on_c, 0, 66, 85
6, 63480, Note_on_c, 0, 71, 90
6, 63481, Note_on_c, 0, 66, 0
6, 63540, Note_on_c, 0, 70, 82
6, 63541, Note_on_c, 0, 71, 0
6, 63600, Note_on_c, 0, 71, 82
6, 63604, Note_on_c, 0, 70, 0
6, 63657, Note_on_c, 0, 71, 0
6, 63660, Note_on_c, 0, 66, 82
6, 63717, Note_on_c, 0, 66, 0
6, 63720, Note_on_c, 0, 62, 79
6, 63779, Note_on_c, 0, 62, 0
6, 63780, Note_on_c, 0, 66, 75
6, 63822, Note_on_c, 0, 66, 0
6, 63840, Note_on_c, 0, 64, 75
6, 63891, Note_on_c, 0, 64, 0
6, 63900, Note_on_c, 0, 62, 75
6, 63953, Note_on_c, 0, 62, 0
6, 63960, Note_on_c, 0, 64, 75
6, 64002, Note_on_c, 0, 64, 0
6, 64020, Note_on_c, 0, 71, 58
6, 64079, Note_on_c, 0, 71, 0
6, 64080, Note_on_c, 0, 73, 82
6, 64137, Note_on_c, 0, 73, 0
6, 64140, Note_on_c, 0, 71, 90
6, 64196, Note_on_c, 0, 71, 0
6, 64200, Note_on_c, 0, 67, 88
6, 64256, Note_on_c, 0, 67, 0
6, 64260, Note_on_c, 0, 71, 63
6, 64288, Note_on_c, 0, 71, 0
6, 64320, Note_on_c, 0, 64, 70
6, 64375, Note_on_c, 0, 64, 0
6, 64380, Note_on_c, 0, 62, 73
6, 64432, Note_on_c, 0, 62, 0
6, 64440, Note_on_c, 0, 64, 79
6, 64498, Note_on_c, 0, 64, 0
6, 64500, Note_on_c, 0, 70, 58
6, 64560, Note_on_c, 0, 70, 0
6, 64560, Note_on_c, 0, 73, 88
6, 64620, Note_on_c, 0, 70, 70
6, 64634, Note_on_c, 0, 73, 0
6, 64680, Note_on_c, 0, 70, 0
6, 64680, Note_on_c, 0, 64, 79
6, 64735, Note_on_c, 0, 64, 0
6, 64740, Note_on_c, 0, 61, 88
6, 64795, Note_on_c, 0, 61, 0
6, 64800, Note_on_c, 0, 62, 85
6, 64854, Note_on_c, 0, 62, 0
6, 64860, Note_on_c, 0, 61, 88
6, 64910, Note_on_c, 0, 61, 0
6, 64920, Note_on_c, 0, 62, 79
6, 64977, Note_on_c, 0, 62, 0
6, 64980, Note_on_c, 0, 66, 82
6, 65035, Note_on_c, 0, 66, 0
6, 65040, Note_on_c, 0, 71, 90
6, 65100, Note_on_c, 0, 66, 73
6, 65104, Note_on_c, 0, 71, 0
6, 65160, Note_on_c, 0, 62, 73
6, 65163, Note_on_c, 0, 66, 0
6, 65214, Note_on_c, 0, 62, 0
6, 65220, Note_on_c, 0, 61, 70
6, 65272, Note_on_c, 0, 61, 0
6, 65280, Note_on_c, 0, 62, 73
6, 65337, Note_on_c, 0, 62, 0
6, 65340, Note_on_c, 0, 66, 82
6, 65396, Note_on_c, 0, 66, 0
6, 65400, Note_on_c, 0, 71, 82
6, 65460, Note_on_c, 0, 71, 0
6, 65460, Note_on_c, 0, 70, 73
6, 65520, Note_on_c, 0, 71, 85
6, 65524, Note_on_c, 0, 70, 0
6, 65580, Note_on_c, 0, 66, 75
6, 65586, Note_on_c, 0, 71, 0
6, 65635, Note_on_c, 0, 66, 0
6, 65640, Note_on_c, 0, 62, 79
6, 65697, Note_on_c, 0, 62, 0
6, 65700, Note_on_c, 0, 66, 82
6, 65746, Note_on_c, 0, 66, 0
6, 65760, Note_on_c, 0, 61, 73
6, 65820, Note_on_c, 0, 61, 0
6, 65820, Note_on_c, 0, 64, 82
6, 65879, Note_on_c, 0, 64, 0
6, 65880, Note_on_c, 0, 70, 88
6, 65937, Note_on_c, 0, 70, 0
6, 65940, Note_on_c, 0, 68, 79
6, 66000, Note_on_c, 0, 70, 90
6, 66006, Note_on_c, 0, 68, 0
6, 66060, Note_on_c, 0, 64, 85
6, 66068, Note_on_c, 0, 70, 0
6, 66118, Note_on_c, 0, 64, 0
6, 66120, Note_on_c, 0, 61, 82
6, 66176, Note_on_c, 0, 61, 0
6, 66180, Note_on_c, 0, 64, 96
6, 66220, Note_on_c, 0, 64, 0
6, 66240, Note_on_c, 0, 66, 77
6, 66240, Note_on_c, 0, 71, 111
6, 66240, Note_on_c, 0, 62, 111
6, 66336, Note_on_c, 0, 62, 0
6, 66336, Note_on_c, 0, 71, 0
6, 66336, Note_on_c, 0, 66, 0
6, 66480, Note_on_c, 0, 74, 104
6, 66480, Note_on_c, 0, 66, 99
6, 66480, Note_on_c, 0, 71, 104
6, 66576, Note_on_c, 0, 71, 0
6, 66576, Note_on_c, 0, 66, 0
6, 66576, Note_on_c, 0, 74, 0
6, 66720, Note_on_c, 0, 78, 104
6, 66720, Note_on_c, 0, 74, 127
6, 66720, Note_on_c, 0, 71, 127
6, 66816, Note_on_c, 0, 71, 0
6, 66816, Note_on_c, 0, 74, 0
6, 66816, Note_on_c, 0, 78, 0
6, 67080, Note_on_c, 0, 74, 96
6, 67080, Note_on_c, 0, 71, 77
6, 67128, Note_on_c, 0, 71, 0
6, 67128, Note_on_c, 0, 74, 0
6, 67140, Note_on_c, 0, 76, 87
6, 67140, Note_on_c, 0, 73, 99
6, 67188, Note_on_c, 0, 73, 0
6, 67188, Note_on_c, 0, 76, 0
6, 67200, Note_on_c, 0, 74, 126
6, 67200, Note_on_c, 0, 78, 93
6, 67274, Note_on_c, 0, 74, 0
6, 67275, Note_on_c, 0, 78, 0
6, 67320, Note_on_c, 0, 71, 77
6, 67320, Note_on_c, 0, 74, 127
6, 67355, Note_on_c, 0, 74, 0
6, 67365, Note_on_c, 0, 71, 0
6, 67380, Note_on_c, 0, 73, 77
6, 67380, Note_on_c, 0, 76, 98
6, 67408, Note_on_c, 0, 76, 0
6, 67418, Note_on_c, 0, 73, 0
6, 67440, Note_on_c, 0, 74, 111
6, 67440, Note_on_c, 0, 78, 113
6, 67500, Note_on_c, 0, 74, 0
6, 67528, Note_on_c, 0, 78, 0
6, 67560, Note_on_c, 0, 83, 127
6, 67560, Note_on_c, 0, 78, 81
6, 67613, Note_on_c, 0, 78, 0
6, 67620, Note_on_c, 0, 76, 89
6, 67636, Note_on_c, 0, 83, 0
6, 67658, Note_on_c, 0, 76, 0
6, 67680, Note_on_c, 0, 74, 108
6, 67680, Note_on_c, 0, 78, 127
6, 67754, Note_on_c, 0, 74, 0
6, 67764, Note_on_c, 0, 78, 0
6, 67800, Note_on_c, 0, 78, 127
6, 67800, Note_on_c, 0, 71, 93
6, 67849, Note_on_c, 0, 78, 0
6, 67860, Note_on_c, 0, 76, 90
6, 67873, Note_on_c, 0, 71, 0
6, 67897, Note_on_c, 0, 76, 0
6, 67920, Note_on_c, 0, 71, 96
6, 67920, Note_on_c, 0, 74, 127
6, 67995, Note_on_c, 0, 74, 0
6, 68040, Note_on_c, 0, 73, 82
6, 68097, Note_on_c, 0, 73, 0
6, 68100, Note_on_c, 0, 71, 82
6, 68136, Note_on_c, 0, 71, 0
6, 68155, Note_on_c, 0, 71, 0
6, 68160, Note_on_c, 0, 80, 85
6, 68197, Note_on_c, 0, 80, 0
6, 68220, Note_on_c, 0, 74, 85
6, 68276, Note_on_c, 0, 74, 0
6, 68280, Note_on_c, 0, 73, 104
6, 68329, Note_on_c, 0, 73, 0
6, 68340, Note_on_c, 0, 71, 120
6, 68388, Note_on_c, 0, 71, 0
6, 68460, Note_on_c, 0, 71, 96
6, 68515, Note_on_c, 0, 71, 0
6, 68520, Note_on_c, 0, 73, 106
6, 68564, Note_on_c, 0, 73, 0
6, 68580, Note_on_c, 0, 74, 98
6, 68637, Note_on_c, 0, 74, 0
6, 68640, Note_on_c, 0, 80, 120
6, 68684, Note_on_c, 0, 80, 0
6, 68700, Note_on_c, 0, 74, 102
6, 68753, Note_on_c, 0, 74, 0
6, 68760, Note_on_c, 0, 73, 96
6, 68804, Note_on_c, 0, 73, 0
6, 68820, Note_on_c, 0, 71, 96
6, 68868, Note_on_c, 0, 71, 0
6, 68940, Note_on_c, 0, 71, 102
6, 68992, Note_on_c, 0, 71, 0
6, 69000, Note_on_c, 0, 73, 110
6, 69048, Note_on_c, 0, 73, 0
6, 69060, Note_on_c, 0, 74, 117
6, 69092, Note_on_c, 0, 74, 0
6, 69120, Note_on_c, 0, 81, 127
6, 69170, Note_on_c, 0, 81, 0
6, 69180, Note_on_c, 0, 76, 102
6, 69225, Note_on_c, 0, 76, 0
6, 69240, Note_on_c, 0, 73, 82
6, 69270, Note_on_c, 0, 73, 0
6, 69300, Note_on_c, 0, 81, 106
6, 69337, Note_on_c, 0, 81, 0
6, 69360, Note_on_c, 0, 76, 110
6, 69406, Note_on_c, 0, 76, 0
6, 69420, Note_on_c, 0, 73, 88
6, 69450, Note_on_c, 0, 73, 0
6, 69480, Note_on_c, 0, 69, 110
6, 69525, Note_on_c, 0, 69, 0
6, 69540, Note_on_c, 0, 76, 96
6, 69580, Note_on_c, 0, 76, 0
6, 69600, Note_on_c, 0, 73, 82
6, 69651, Note_on_c, 0, 73, 0
6, 69660, Note_on_c, 0, 69, 90
6, 69695, Note_on_c, 0, 69, 0
6, 69720, Note_on_c, 0, 64, 106
6, 69757, Note_on_c, 0, 64, 0
6, 69780, Note_on_c, 0, 61, 117
6, 69808, Note_on_c, 0, 61, 0
6, 69840, Note_on_c, 0, 57, 127
6, 69925, Note_on_c, 0, 57, 0
6, 69960, Note_on_c, 0, 73, 102
6, 69960, Note_on_c, 0, 69, 102
6, 70000, Note_on_c, 0, 73, 0
6, 70004, Note_on_c, 0, 69, 0
6, 70020, Note_on_c, 0, 71, 89
6, 70020, Note_on_c, 0, 74, 102
6, 70057, Note_on_c, 0, 74, 0
6, 70064, Note_on_c, 0, 71, 0
6, 70080, Note_on_c, 0, 73, 96
6, 70080, Note_on_c, 0, 76, 127
6, 70140, Note_on_c, 0, 76, 0
6, 70152, Note_on_c, 0, 73, 0
6, 70200, Note_on_c, 0, 69, 89
6, 70200, Note_on_c, 0, 73, 98
6, 70238, Note_on_c, 0, 73, 0
6, 70245, Note_on_c, 0, 69, 0
6, 70260, Note_on_c, 0, 71, 74
6, 70260, Note_on_c, 0, 74, 88
6, 70304, Note_on_c, 0, 74, 0
6, 70312, Note_on_c, 0, 71, 0
6, 70320, Note_on_c, 0, 73, 84
6, 70320, Note_on_c, 0, 76, 98
6, 70375, Note_on_c, 0, 76, 0
6, 70404, Note_on_c, 0, 73, 0
6, 70440, Note_on_c, 0, 76, 102
6, 70440, Note_on_c, 0, 81, 127
6, 70485, Note_on_c, 0, 76, 0
6, 70500, Note_on_c, 0, 74, 96
6, 70510, Note_on_c, 0, 81, 0
6, 70544, Note_on_c, 0, 74, 0
6, 70560, Note_on_c, 0, 73, 127
6, 70560, Note_on_c, 0, 76, 110
6, 70612, Note_on_c, 0, 76, 0
6, 70645, Note_on_c, 0, 73, 0
6, 70680, Note_on_c, 0, 76, 110
6, 70680, Note_on_c, 0, 69, 108
6, 70725, Note_on_c, 0, 76, 0
6, 70740, Note_on_c, 0, 74, 88
6, 70760, Note_on_c, 0, 69, 0
6, 70786, Note_on_c, 0, 74, 0
6, 70800, Note_on_c, 0, 73, 93
6, 70800, Note_on_c, 0, 69, 111
6, 70856, Note_on_c, 0, 73, 0
6, 70920, Note_on_c, 0, 71, 90
6, 70976, Note_on_c, 0, 71, 0
6, 70980, Note_on_c, 0, 69, 79
6, 71016, Note_on_c, 0, 69, 0
6, 71030, Note_on_c, 0, 69, 0
6, 71040, Note_on_c, 0, 78, 106
6, 71088, Note_on_c, 0, 78, 0
6, 71100, Note_on_c, 0, 72, 102
6, 71154, Note_on_c, 0, 72, 0
6, 71160, Note_on_c, 0, 71, 98
6, 71200, Note_on_c, 0, 71, 0
6, 71220, Note_on_c, 0, 69, 110
6, 71273, Note_on_c, 0, 69, 0
6, 71340, Note_on_c, 0, 69, 88
6, 71392, Note_on_c, 0, 69, 0
6, 71400, Note_on_c, 0, 71, 127
6, 71456, Note_on_c, 0, 71, 0
6, 71460, Note_on_c, 0, 72, 120
6, 71516, Note_on_c, 0, 72, 0
6, 71520, Note_on_c, 0, 78, 127
6, 71568, Note_on_c, 0, 78, 0
6, 71580, Note_on_c, 0, 72, 117
6, 71636, Note_on_c, 0, 72, 0
6, 71640, Note_on_c, 0, 71, 124
6, 71697, Note_on_c, 0, 71, 0
6, 71700, Note_on_c, 0, 69, 124
6, 71755, Note_on_c, 0, 69, 0
6, 71820, Note_on_c, 0, 69, 113
6, 71873, Note_on_c, 0, 69, 0
6, 71880, Note_on_c, 0, 71, 117
6, 71929, Note_on_c, 0, 71, 0
6, 71940, Note_on_c, 0, 72, 110
6, 71973, Note_on_c, 0, 72, 0
6, 72000, Note_on_c, 0, 79, 127
6, 72046, Note_on_c, 0, 79, 0
6, 72060, Note_on_c, 0, 74, 102
6, 72110, Note_on_c, 0, 74, 0
6, 72120, Note_on_c, 0, 71, 124
6, 72170, Note_on_c, 0, 71, 0
6, 72180, Note_on_c, 0, 79, 117
6, 72222, Note_on_c, 0, 79, 0
6, 72240, Note_on_c, 0, 74, 127
6, 72291, Note_on_c, 0, 74, 0
6, 72300, Note_on_c, 0, 71, 96
6, 72328, Note_on_c, 0, 71, 0
6, 72360, Note_on_c, 0, 67, 110
6, 72409, Note_on_c, 0, 67, 0
6, 72420, Note_on_c, 0, 74, 102
6, 72464, Note_on_c, 0, 74, 0
6, 72480, Note_on_c, 0, 71, 106
6, 72535, Note_on_c, 0, 71, 0
6, 72540, Note_on_c, 0, 67, 93
6, 72571, Note_on_c, 0, 67, 0
6, 72600, Note_on_c, 0, 62, 88
6, 72640, Note_on_c, 0, 62, 0
6, 72660, Note_on_c, 0, 59, 124
6, 72685, Note_on_c, 0, 59, 0
6, 72720, Note_on_c, 0, 55, 113
6, 72813, Note_on_c, 0, 55, 0
6, 72840, Note_on_c, 0, 55, 93
6, 72840, Note_on_c, 0, 59, 127
6, 72878, Note_on_c, 0, 55, 0
6, 72879, Note_on_c, 0, 59, 0
6, 72900, Note_on_c, 0, 57, 93
6, 72900, Note_on_c, 0, 60, 117
6, 72935, Note_on_c, 0, 60, 0
6, 72945, Note_on_c, 0, 57, 0
6, 72960, Note_on_c, 0, 59, 96
6, 72960, Note_on_c, 0, 62, 127
6, 73041, Note_on_c, 0, 59, 0
6, 73042, Note_on_c, 0, 62, 0
6, 73080, Note_on_c, 0, 55, 79
6, 73080, Note_on_c, 0, 59, 110
6, 73112, Note_on_c, 0, 59, 0
6, 73116, Note_on_c, 0, 55, 0
6, 73140, Note_on_c, 0, 57, 89
6, 73140, Note_on_c, 0, 60, 90
6, 73170, Note_on_c, 0, 60, 0
6, 73182, Note_on_c, 0, 57, 0
6, 73200, Note_on_c, 0, 62, 127
6, 73200, Note_on_c, 0, 59, 89
6, 73285, Note_on_c, 0, 62, 0
6, 73292, Note_on_c, 0, 59, 0
6, 73320, Note_on_c, 0, 62, 102
6, 73320, Note_on_c, 0, 67, 127
6, 73379, Note_on_c, 0, 62, 0
6, 73380, Note_on_c, 0, 60, 79
6, 73398, Note_on_c, 0, 67, 0
6, 73433, Note_on_c, 0, 60, 0
6, 73440, Note_on_c, 0, 59, 123
6, 73440, Note_on_c, 0, 62, 124
6, 73515, Note_on_c, 0, 62, 0
6, 73531, Note_on_c, 0, 59, 0
6, 73560, Note_on_c, 0, 62, 102
6, 73560, Note_on_c, 0, 55, 117
6, 73613, Note_on_c, 0, 62, 0
6, 73620, Note_on_c, 0, 60, 79
6, 73645, Note_on_c, 0, 55, 0
6, 73660, Note_on_c, 0, 60, 0
6, 73680, Note_on_c, 0, 55, 120
6, 73680, Note_on_c, 0, 59, 110
6, 73726, Note_on_c, 0, 59, 0
6, 73740, Note_on_c, 0, 62, 110
6, 73785, Note_on_c, 0, 62, 0
6, 73800, Note_on_c, 0, 67, 85
6, 73856, Note_on_c, 0, 67, 0
6, 73860, Note_on_c, 0, 71, 82
6, 73896, Note_on_c, 0, 55, 0
6, 73900, Note_on_c, 0, 71, 0
6, 73920, Note_on_c, 0, 72, 110
6, 73972, Note_on_c, 0, 72, 0
6, 73980, Note_on_c, 0, 74, 75
6, 74031, Note_on_c, 0, 74, 0
6, 74040, Note_on_c, 0, 72, 102
6, 74082, Note_on_c, 0, 72, 0
6, 74100, Note_on_c, 0, 69, 110
6, 74148, Note_on_c, 0, 69, 0
6, 74160, Note_on_c, 0, 71, 113
6, 74205, Note_on_c, 0, 71, 0
6, 74220, Note_on_c, 0, 72, 93
6, 74265, Note_on_c, 0, 72, 0
6, 74280, Note_on_c, 0, 71, 90
6, 74319, Note_on_c, 0, 71, 0
6, 74340, Note_on_c, 0, 67, 96
6, 74379, Note_on_c, 0, 67, 0
6, 74400, Note_on_c, 0, 69, 102
6, 74440, Note_on_c, 0, 69, 0
6, 74460, Note_on_c, 0, 62, 127
6, 74505, Note_on_c, 0, 62, 0
6, 74520, Note_on_c, 0, 64, 90
6, 74568, Note_on_c, 0, 64, 0
6, 74580, Note_on_c, 0, 66, 85
6, 74629, Note_on_c, 0, 66, 0
6, 74640, Note_on_c, 0, 67, 110
6, 74690, Note_on_c, 0, 67, 0
6, 74700, Note_on_c, 0, 69, 110
6, 74746, Note_on_c, 0, 69, 0
6, 74760, Note_on_c, 0, 71, 110
6, 74804, Note_on_c, 0, 71, 0
6, 74820, Note_on_c, 0, 72, 110
6, 74862, Note_on_c, 0, 72, 0
6, 74880, Note_on_c, 0, 74, 75
6, 74916, Note_on_c, 0, 74, 0
6, 74940, Note_on_c, 0, 62, 73
6, 74967, Note_on_c, 0, 62, 0
6, 75000, Note_on_c, 0, 74, 117
6, 75030, Note_on_c, 0, 74, 0
6, 75060, Note_on_c, 0, 62, 88
6, 75086, Note_on_c, 0, 62, 0
6, 75120, Note_on_c, 0, 74, 120
6, 75149, Note_on_c, 0, 74, 0
6, 75180, Note_on_c, 0, 62, 110
6, 75209, Note_on_c, 0, 62, 0
6, 75240, Note_on_c, 0, 74, 124
6, 75248, Channel_aftertouch_c, 0, 22
6, 75249, Channel_aftertouch_c, 0, 22
6, 75256, Channel_aftertouch_c, 0, 11
6, 75257, Channel_aftertouch_c, 0, 11
6, 75265, Channel_aftertouch_c, 0, 5
6, 75266, Channel_aftertouch_c, 0, 5
6, 75303, Channel_aftertouch_c, 0, 6
6, 75304, Channel_aftertouch_c, 0, 6
6, 75314, Channel_aftertouch_c, 0, 3
6, 75345, Note_on_c, 0, 74, 0
6, 75420, Note_on_c, 0, 77, 120
6, 75458, Note_on_c, 0, 77, 0
6, 75480, Note_on_c, 0, 80, 106
6, 75525, Note_on_c, 0, 80, 0
6, 75540, Note_on_c, 0, 81, 127
6, 75592, Note_on_c, 0, 81, 0
6, 75600, Note_on_c, 0, 83, 88
6, 75642, Note_on_c, 0, 83, 0
6, 75660, Note_on_c, 0, 77, 90
6, 75704, Note_on_c, 0, 77, 0
6, 75720, Note_on_c, 0, 76, 75
6, 75771, Note_on_c, 0, 76, 0
6, 75780, Note_on_c, 0, 74, 82
6, 75808, Note_on_c, 0, 74, 0
6, 75840, Note_on_c, 0, 72, 66
6, 75849, Channel_aftertouch_c, 0, 15
6, 75849, Channel_aftertouch_c, 0, 15
6, 75860, Channel_aftertouch_c, 0, 7
6, 75860, Channel_aftertouch_c, 0, 7
6, 75879, Note_on_c, 0, 72, 0
6, 75900, Note_on_c, 0, 60, 82
6, 75930, Note_on_c, 0, 60, 0
6, 75960, Note_on_c, 0, 72, 79
6, 75992, Note_on_c, 0, 72, 0
6, 76020, Note_on_c, 0, 60, 79
6, 76039, Note_on_c, 0, 60, 0
6, 76080, Note_on_c, 0, 72, 102
6, 76109, Note_on_c, 0, 72, 0
6, 76140, Note_on_c, 0, 60, 79
6, 76171, Note_on_c, 0, 60, 0
6, 76200, Note_on_c, 0, 72, 117
6, 76279, Note_on_c, 0, 72, 0
6, 76326, Channel_aftertouch_c, 0, 25
6, 76336, Channel_aftertouch_c, 0, 12
6, 76336, Channel_aftertouch_c, 0, 12
6, 76347, Channel_aftertouch_c, 0, 6
6, 76358, Channel_aftertouch_c, 0, 3
6, 76358, Channel_aftertouch_c, 0, 3
6, 76369, Channel_aftertouch_c, 0, 1
6, 76369, Channel_aftertouch_c, 0, 1
6, 76380, Note_on_c, 0, 74, 127
6, 76395, Note_on_c, 0, 74, 0
6, 76410, Note_on_c, 0, 76, 110
6, 76427, Note_on_c, 0, 76, 0
6, 76440, Note_on_c, 0, 78, 127
6, 76477, Note_on_c, 0, 78, 0
6, 76500, Note_on_c, 0, 79, 102
6, 76548, Note_on_c, 0, 79, 0
6, 76560, Note_on_c, 0, 81, 85
6, 76604, Note_on_c, 0, 81, 0
6, 76620, Note_on_c, 0, 76, 85
6, 76652, Note_on_c, 0, 76, 0
6, 76680, Note_on_c, 0, 74, 40
6, 76713, Note_on_c, 0, 74, 0
6, 76740, Note_on_c, 0, 72, 63
6, 76759, Note_on_c, 0, 72, 0
6, 76800, Note_on_c, 0, 71, 63
6, 76836, Note_on_c, 0, 71, 0
6, 76860, Note_on_c, 0, 59, 82
6, 76890, Note_on_c, 0, 59, 0
6, 76920, Note_on_c, 0, 71, 85
6, 76953, Note_on_c, 0, 71, 0
6, 76980, Note_on_c, 0, 59, 79
6, 77015, Note_on_c, 0, 59, 0
6, 77040, Note_on_c, 0, 71, 88
6, 77077, Note_on_c, 0, 71, 0
6, 77100, Note_on_c, 0, 59, 82
6, 77117, Note_on_c, 0, 59, 0
6, 77160, Note_on_c, 0, 71, 127
6, 77187, Note_on_c, 0, 71, 0
6, 77220, Note_on_c, 0, 71, 85
6, 77252, Note_on_c, 0, 71, 0
6, 77280, Note_on_c, 0, 72, 93
6, 77320, Note_on_c, 0, 72, 0
6, 77340, Note_on_c, 0, 78, 82
6, 77357, Note_on_c, 0, 78, 0
6, 77370, Note_on_c, 0, 79, 88
6, 77400, Note_on_c, 0, 81, 127
6, 77401, Note_on_c, 0, 79, 0
6, 77448, Note_on_c, 0, 81, 0
6, 77460, Note_on_c, 0, 72, 102
6, 77504, Note_on_c, 0, 72, 0
6, 77520, Note_on_c, 0, 71, 79
6, 77558, Note_on_c, 0, 71, 0
6, 77580, Note_on_c, 0, 76, 75
6, 77604, Note_on_c, 0, 76, 0
6, 77610, Note_on_c, 0, 78, 93
6, 77640, Note_on_c, 0, 78, 0
6, 77640, Note_on_c, 0, 79, 127
6, 77682, Note_on_c, 0, 79, 0
6, 77700, Note_on_c, 0, 76, 82
6, 77733, Note_on_c, 0, 76, 0
6, 77760, Note_on_c, 0, 69, 75
6, 77805, Note_on_c, 0, 69, 0
6, 77820, Note_on_c, 0, 74, 90
6, 77839, Note_on_c, 0, 74, 0
6, 77850, Note_on_c, 0, 76, 73
6, 77877, Note_on_c, 0, 76, 0
6, 77880, Note_on_c, 0, 78, 127
6, 77922, Note_on_c, 0, 78, 0
6, 77940, Note_on_c, 0, 74, 96
6, 77969, Note_on_c, 0, 74, 0
6, 78000, Note_on_c, 0, 67, 75
6, 78048, Note_on_c, 0, 67, 0
6, 78060, Note_on_c, 0, 72, 75
6, 78077, Note_on_c, 0, 72, 0
6, 78090, Note_on_c, 0, 74, 96
6, 78119, Note_on_c, 0, 74, 0
6, 78120, Note_on_c, 0, 76, 82
6, 78158, Note_on_c, 0, 76, 0
6, 78180, Note_on_c, 0, 72, 85
6, 78225, Note_on_c, 0, 72, 0
6, 78240, Note_on_c, 0, 66, 96
6, 78285, Note_on_c, 0, 66, 0
6, 78300, Note_on_c, 0, 72, 88
6, 78351, Note_on_c, 0, 72, 0
6, 78360, Note_on_c, 0, 74, 96
6, 78411, Note_on_c, 0, 74, 0
6, 78420, Note_on_c, 0, 72, 90
6, 78450, Note_on_c, 0, 72, 0
6, 78480, Note_on_c, 0, 69, 82
6, 78524, Note_on_c, 0, 69, 0
6, 78540, Note_on_c, 0, 72, 79
6, 78588, Note_on_c, 0, 72, 0
6, 78600, Note_on_c, 0, 66, 58
6, 78640, Note_on_c, 0, 66, 0
6, 78660, Note_on_c, 0, 72, 79
6, 78704, Note_on_c, 0, 72, 0
6, 78720, Note_on_c, 0, 62, 79
6, 78765, Note_on_c, 0, 62, 0
6, 78780, Note_on_c, 0, 72, 70
6, 78831, Note_on_c, 0, 72, 0
6, 78840, Note_on_c, 0, 74, 93
6, 78882, Note_on_c, 0, 74, 0
6, 78900, Note_on_c, 0, 72, 90
6, 78945, Note_on_c, 0, 72, 0
6, 78960, Note_on_c, 0, 69, 75
6, 79012, Note_on_c, 0, 69, 0
6, 79020, Note_on_c, 0, 72, 73
6, 79065, Note_on_c, 0, 72, 0
6, 79080, Note_on_c, 0, 66, 88
6, 79122, Note_on_c, 0, 66, 0
6, 79140, Note_on_c, 0, 72, 85
6, 79175, Note_on_c, 0, 72, 0
6, 79200, Note_on_c, 0, 62, 90
6, 79239, Note_on_c, 0, 62, 0
6, 79260, Note_on_c, 0, 72, 82
6, 79308, Note_on_c, 0, 72, 0
6, 79320, Note_on_c, 0, 74, 88
6, 79357, Note_on_c, 0, 74, 0
6, 79380, Note_on_c, 0, 72, 73
6, 79419, Note_on_c, 0, 72, 0
6, 79440, Note_on_c, 0, 69, 85
6, 79485, Note_on_c, 0, 69, 0
6, 79500, Note_on_c, 0, 72, 79
6, 79544, Note_on_c, 0, 72, 0
6, 79560, Note_on_c, 0, 66, 66
6, 79597, Note_on_c, 0, 66, 0
6, 79620, Note_on_c, 0, 72, 82
6, 79658, Note_on_c, 0, 72, 0
6, 79680, Note_on_c, 0, 62, 73
6, 79722, Note_on_c, 0, 62, 0
6, 79740, Note_on_c, 0, 72, 66
6, 79786, Note_on_c, 0, 72, 0
6, 79800, Note_on_c, 0, 74, 90
6, 79844, Note_on_c, 0, 74, 0
6, 79860, Note_on_c, 0, 72, 73
6, 79904, Note_on_c, 0, 72, 0
6, 79920, Note_on_c, 0, 69, 73
6, 79966, Note_on_c, 0, 69, 0
6, 79980, Note_on_c, 0, 72, 58
6, 80024, Note_on_c, 0, 72, 0
6, 80040, Note_on_c, 0, 66, 63
6, 80082, Note_on_c, 0, 66, 0
6, 80100, Note_on_c, 0, 72, 75
6, 80132, Note_on_c, 0, 72, 0
6, 80160, Note_on_c, 0, 62, 73
6, 80198, Note_on_c, 0, 62, 0
6, 80220, Note_on_c, 0, 65, 75
6, 80265, Note_on_c, 0, 65, 0
6, 80280, Note_on_c, 0, 67, 102
6, 80318, Note_on_c, 0, 67, 0
6, 80340, Note_on_c, 0, 65, 79
6, 80379, Note_on_c, 0, 65, 0
6, 80400, Note_on_c, 0, 62, 63
6, 80439, Note_on_c, 0, 62, 0
6, 80460, Note_on_c, 0, 65, 79
6, 80498, Note_on_c, 0, 65, 0
6, 80520, Note_on_c, 0, 59, 73
6, 80558, Note_on_c, 0, 59, 0
6, 80580, Note_on_c, 0, 65, 79
6, 80622, Note_on_c, 0, 65, 0
6, 80640, Note_on_c, 0, 55, 88
6, 80680, Note_on_c, 0, 55, 0
6, 80700, Note_on_c, 0, 65, 75
6, 80750, Note_on_c, 0, 65, 0
6, 80760, Note_on_c, 0, 67, 96
6, 80800, Note_on_c, 0, 67, 0
6, 80820, Note_on_c, 0, 65, 75
6, 80862, Note_on_c, 0, 65, 0
6, 80880, Note_on_c, 0, 62, 66
6, 80924, Note_on_c, 0, 62, 0
6, 80940, Note_on_c, 0, 65, 75
6, 80986, Note_on_c, 0, 65, 0
6, 81000, Note_on_c, 0, 59, 66
6, 81045, Note_on_c, 0, 59, 0
6, 81060, Note_on_c, 0, 65, 73
6, 81102, Note_on_c, 0, 65, 0
6, 81120, Note_on_c, 0, 55, 63
6, 81162, Note_on_c, 0, 55, 0
6, 81180, Note_on_c, 0, 65, 75
6, 81231, Note_on_c, 0, 65, 0
6, 81240, Note_on_c, 0, 67, 90
6, 81279, Note_on_c, 0, 67, 0
6, 81300, Note_on_c, 0, 65, 55
6, 81342, Note_on_c, 0, 65, 0
6, 81360, Note_on_c, 0, 62, 66
6, 81406, Note_on_c, 0, 62, 0
6, 81420, Note_on_c, 0, 65, 58
6, 81465, Note_on_c, 0, 65, 0
6, 81480, Note_on_c, 0, 59, 49
6, 81519, Note_on_c, 0, 59, 0
6, 81540, Note_on_c, 0, 65, 63
6, 81580, Note_on_c, 0, 65, 0
6, 81600, Note_on_c, 0, 55, 63
6, 81642, Note_on_c, 0, 55, 0
6, 81660, Note_on_c, 0, 65, 73
6, 81709, Note_on_c, 0, 65, 0
6, 81720, Note_on_c, 0, 67, 79
6, 81769, Note_on_c, 0, 67, 0
6, 81780, Note_on_c, 0, 65, 75
6, 81834, Note_on_c, 0, 65, 0
6, 81840, Note_on_c, 0, 62, 73
6, 81893, Note_on_c, 0, 62, 0
6, 81900, Note_on_c, 0, 65, 44
6, 81939, Note_on_c, 0, 65, 0
6, 81960, Note_on_c, 0, 59, 58
6, 81999, Note_on_c, 0, 59, 0
6, 82020, Note_on_c, 0, 65, 63
6, 82056, Note_on_c, 0, 65, 0
6, 82080, Note_on_c, 0, 64, 85
6, 82126, Note_on_c, 0, 64, 0
6, 82140, Note_on_c, 0, 74, 85
6, 82196, Note_on_c, 0, 74, 0
6, 82200, Note_on_c, 0, 76, 85
6, 82248, Note_on_c, 0, 76, 0
6, 82260, Note_on_c, 0, 74, 79
6, 82306, Note_on_c, 0, 74, 0
6, 82320, Note_on_c, 0, 71, 79
6, 82370, Note_on_c, 0, 71, 0
6, 82380, Note_on_c, 0, 74, 85
6, 82425, Note_on_c, 0, 74, 0
6, 82440, Note_on_c, 0, 68, 88
6, 82484, Note_on_c, 0, 68, 0
6, 82500, Note_on_c, 0, 74, 90
6, 82552, Note_on_c, 0, 74, 0
6, 82560, Note_on_c, 0, 64, 79
6, 82606, Note_on_c, 0, 64, 0
6, 82620, Note_on_c, 0, 74, 73
6, 82673, Note_on_c, 0, 74, 0
6, 82680, Note_on_c, 0, 76, 75
6, 82724, Note_on_c, 0, 76, 0
6, 82740, Note_on_c, 0, 74, 82
6, 82786, Note_on_c, 0, 74, 0
6, 82800, Note_on_c, 0, 71, 70
6, 82845, Note_on_c, 0, 71, 0
6, 82860, Note_on_c, 0, 74, 88
6, 82908, Note_on_c, 0, 74, 0
6, 82920, Note_on_c, 0, 68, 75
6, 82964, Note_on_c, 0, 68, 0
6, 82980, Note_on_c, 0, 74, 79
6, 83030, Note_on_c, 0, 74, 0
6, 83040, Note_on_c, 0, 64, 63
6, 83085, Note_on_c, 0, 64, 0
6, 83100, Note_on_c, 0, 74, 66
6, 83149, Note_on_c, 0, 74, 0
6, 83160, Note_on_c, 0, 76, 82
6, 83200, Note_on_c, 0, 76, 0
6, 83220, Note_on_c, 0, 74, 79
6, 83259, Note_on_c, 0, 74, 0
6, 83280, Note_on_c, 0, 71, 73
6, 83326, Note_on_c, 0, 71, 0
6, 83340, Note_on_c, 0, 74, 85
6, 83384, Note_on_c, 0, 74, 0
6, 83400, Note_on_c, 0, 68, 79
6, 83439, Note_on_c, 0, 68, 0
6, 83460, Note_on_c, 0, 74, 75
6, 83510, Note_on_c, 0, 74, 0
6, 83520, Note_on_c, 0, 64, 73
6, 83568, Note_on_c, 0, 64, 0
6, 83580, Note_on_c, 0, 74, 79
6, 83628, Note_on_c, 0, 74, 0
6, 83640, Note_on_c, 0, 76, 75
6, 83688, Note_on_c, 0, 76, 0
6, 83700, Note_on_c, 0, 74, 70
6, 83745, Note_on_c, 0, 74, 0
6, 83760, Note_on_c, 0, 71, 79
6, 83813, Note_on_c, 0, 71, 0
6, 83820, Note_on_c, 0, 74, 63
6, 83855, Note_on_c, 0, 74, 0
6, 83880, Note_on_c, 0, 68, 66
6, 83925, Note_on_c, 0, 68, 0
6, 83940, Note_on_c, 0, 74, 58
6, 83973, Note_on_c, 0, 74, 0
6, 84000, Note_on_c, 0, 69, 58
6, 84053, Note_on_c, 0, 69, 0
6, 84060, Note_on_c, 0, 76, 90
6, 84112, Note_on_c, 0, 76, 0
6, 84120, Note_on_c, 0, 81, 85
6, 84177, Note_on_c, 0, 81, 0
6, 84180, Note_on_c, 0, 80, 82
6, 84237, Note_on_c, 0, 80, 0
6, 84240, Note_on_c, 0, 81, 85
6, 84286, Note_on_c, 0, 81, 0
6, 84300, Note_on_c, 0, 76, 63
6, 84344, Note_on_c, 0, 76, 0
6, 84360, Note_on_c, 0, 72, 70
6, 84402, Note_on_c, 0, 72, 0
6, 84420, Note_on_c, 0, 76, 63
6, 84476, Note_on_c, 0, 76, 0
6, 84480, Note_on_c, 0, 69, 63
6, 84532, Note_on_c, 0, 69, 0
6, 84540, Note_on_c, 0, 76, 73
6, 84593, Note_on_c, 0, 76, 0
6, 84600, Note_on_c, 0, 81, 85
6, 84657, Note_on_c, 0, 81, 0
6, 84660, Note_on_c, 0, 80, 75
6, 84717, Note_on_c, 0, 80, 0
6, 84720, Note_on_c, 0, 81, 82
6, 84765, Note_on_c, 0, 81, 0
6, 84780, Note_on_c, 0, 76, 66
6, 84826, Note_on_c, 0, 76, 0
6, 84840, Note_on_c, 0, 72, 66
6, 84890, Note_on_c, 0, 72, 0
6, 84900, Note_on_c, 0, 76, 70
6, 84955, Note_on_c, 0, 76, 0
6, 84960, Note_on_c, 0, 69, 63
6, 85011, Note_on_c, 0, 69, 0
6, 85020, Note_on_c, 0, 76, 70
6, 85069, Note_on_c, 0, 76, 0
6, 85080, Note_on_c, 0, 81, 90
6, 85140, Note_on_c, 0, 81, 0
6, 85140, Note_on_c, 0, 80, 66
6, 85197, Note_on_c, 0, 80, 0
6, 85200, Note_on_c, 0, 81, 75
6, 85246, Note_on_c, 0, 81, 0
6, 85260, Note_on_c, 0, 76, 66
6, 85317, Note_on_c, 0, 76, 0
6, 85320, Note_on_c, 0, 72, 73
6, 85376, Note_on_c, 0, 72, 0
6, 85380, Note_on_c, 0, 76, 96
6, 85439, Note_on_c, 0, 76, 0
6, 85440, Note_on_c, 0, 69, 55
6, 85490, Note_on_c, 0, 69, 0
6, 85500, Note_on_c, 0, 76, 75
6, 85553, Note_on_c, 0, 76, 0
6, 85560, Note_on_c, 0, 81, 90
6, 85615, Note_on_c, 0, 81, 0
6, 85620, Note_on_c, 0, 80, 82
6, 85678, Note_on_c, 0, 80, 0
6, 85680, Note_on_c, 0, 81, 75
6, 85733, Note_on_c, 0, 81, 0
6, 85740, Note_on_c, 0, 76, 55
6, 85790, Note_on_c, 0, 76, 0
6, 85800, Note_on_c, 0, 72, 70
6, 85858, Note_on_c, 0, 72, 0
6, 85860, Note_on_c, 0, 76, 63
6, 85919, Note_on_c, 0, 76, 0
6, 85920, Note_on_c, 0, 71, 73
6, 85975, Note_on_c, 0, 71, 0
6, 85980, Note_on_c, 0, 78, 58
6, 86035, Note_on_c, 0, 78, 0
6, 86040, Note_on_c, 0, 81, 79
6, 86100, Note_on_c, 0, 79, 73
6, 86101, Note_on_c, 0, 81, 0
6, 86160, Note_on_c, 0, 81, 88
6, 86172, Note_on_c, 0, 79, 0
6, 86220, Note_on_c, 0, 78, 70
6, 86236, Note_on_c, 0, 81, 0
6, 86275, Note_on_c, 0, 78, 0
6, 86280, Note_on_c, 0, 75, 75
6, 86337, Note_on_c, 0, 75, 0
6, 86340, Note_on_c, 0, 78, 66
6, 86392, Note_on_c, 0, 78, 0
6, 86400, Note_on_c, 0, 71, 70
6, 86456, Note_on_c, 0, 71, 0
6, 86460, Note_on_c, 0, 78, 75
6, 86520, Note_on_c, 0, 81, 85
6, 86529, Note_on_c, 0, 78, 0
6, 86580, Note_on_c, 0, 79, 90
6, 86592, Note_on_c, 0, 81, 0
6, 86640, Note_on_c, 0, 81, 88
6, 86644, Note_on_c, 0, 79, 0
6, 86697, Note_on_c, 0, 81, 0
6, 86700, Note_on_c, 0, 78, 82
6, 86756, Note_on_c, 0, 78, 0
6, 86760, Note_on_c, 0, 75, 75
6, 86817, Note_on_c, 0, 75, 0
6, 86820, Note_on_c, 0, 78, 58
6, 86875, Note_on_c, 0, 78, 0
6, 86880, Note_on_c, 0, 71, 66
6, 86939, Note_on_c, 0, 71, 0
6, 86940, Note_on_c, 0, 75, 66
6, 86982, Note_on_c, 0, 75, 0
6, 87000, Note_on_c, 0, 81, 79
6, 87058, Note_on_c, 0, 81, 0
6, 87060, Note_on_c, 0, 79, 75
6, 87120, Note_on_c, 0, 79, 0
6, 87120, Note_on_c, 0, 81, 82
6, 87180, Note_on_c, 0, 78, 73
6, 87188, Note_on_c, 0, 81, 0
6, 87228, Note_on_c, 0, 78, 0
6, 87240, Note_on_c, 0, 75, 75
6, 87295, Note_on_c, 0, 75, 0
6, 87300, Note_on_c, 0, 78, 44
6, 87355, Note_on_c, 0, 78, 0
6, 87360, Note_on_c, 0, 71, 79
6, 87418, Note_on_c, 0, 71, 0
6, 87420, Note_on_c, 0, 78, 82
6, 87480, Note_on_c, 0, 81, 82
6, 87483, Note_on_c, 0, 78, 0
6, 87540, Note_on_c, 0, 79, 73
6, 87543, Note_on_c, 0, 81, 0
6, 87600, Note_on_c, 0, 81, 82
6, 87607, Note_on_c, 0, 79, 0
6, 87660, Note_on_c, 0, 78, 75
6, 87675, Note_on_c, 0, 81, 0
6, 87715, Note_on_c, 0, 78, 0
6, 87720, Note_on_c, 0, 75, 88
6, 87775, Note_on_c, 0, 75, 0
6, 87780, Note_on_c, 0, 78, 82
6, 87836, Note_on_c, 0, 78, 0
6, 87840, Note_on_c, 0, 71, 113
6, 87895, Note_on_c, 0, 71, 0
6, 87900, Note_on_c, 0, 79, 96
6, 87956, Note_on_c, 0, 79, 0
6, 87960, Note_on_c, 0, 78, 102
6, 88015, Note_on_c, 0, 78, 0
6, 88020, Note_on_c, 0, 76, 93
6, 88062, Note_on_c, 0, 76, 0
6, 88080, Note_on_c, 0, 79, 110
6, 88139, Note_on_c, 0, 79, 0
6, 88140, Note_on_c, 0, 78, 75
6, 88199, Note_on_c, 0, 78, 0
6, 88200, Note_on_c, 0, 76, 96
6, 88253, Note_on_c, 0, 76, 0
6, 88260, Note_on_c, 0, 75, 88
6, 88293, Note_on_c, 0, 75, 0
6, 88320, Note_on_c, 0, 76, 98
6, 88358, Note_on_c, 0, 76, 0
6, 88380, Note_on_c, 0, 76, 106
6, 88430, Note_on_c, 0, 76, 0
6, 88440, Note_on_c, 0, 74, 98
6, 88485, Note_on_c, 0, 74, 0
6, 88500, Note_on_c, 0, 76, 96
6, 88537, Note_on_c, 0, 76, 0
6, 88560, Note_on_c, 0, 72, 85
6, 88605, Note_on_c, 0, 72, 0
6, 88620, Note_on_c, 0, 76, 75
6, 88669, Note_on_c, 0, 76, 0
6, 88680, Note_on_c, 0, 71, 90
6, 88732, Note_on_c, 0, 71, 0
6, 88740, Note_on_c, 0, 76, 85
6, 88778, Note_on_c, 0, 76, 0
6, 88800, Note_on_c, 0, 72, 88
6, 88850, Note_on_c, 0, 72, 0
6, 88860, Note_on_c, 0, 76, 75
6, 88899, Note_on_c, 0, 76, 0
6, 88920, Note_on_c, 0, 71, 88
6, 88973, Note_on_c, 0, 71, 0
6, 88980, Note_on_c, 0, 76, 79
6, 89024, Note_on_c, 0, 76, 0
6, 89040, Note_on_c, 0, 69, 85
6, 89093, Note_on_c, 0, 69, 0
6, 89100, Note_on_c, 0, 76, 82
6, 89149, Note_on_c, 0, 76, 0
6, 89160, Note_on_c, 0, 67, 82
6, 89214, Note_on_c, 0, 67, 0
6, 89220, Note_on_c, 0, 76, 90
6, 89258, Note_on_c, 0, 76, 0
6, 89280, Note_on_c, 0, 66, 70
6, 89326, Note_on_c, 0, 66, 0
6, 89340, Note_on_c, 0, 67, 73
6, 89385, Note_on_c, 0, 67, 0
6, 89400, Note_on_c, 0, 69, 73
6, 89449, Note_on_c, 0, 69, 0
6, 89460, Note_on_c, 0, 71, 82
6, 89492, Note_on_c, 0, 71, 0
6, 89520, Note_on_c, 0, 72, 82
6, 89549, Note_on_c, 0, 72, 0
6, 89550, Note_on_c, 0, 71, 117
6, 89579, Note_on_c, 0, 71, 0
6, 89580, Note_on_c, 0, 72, 85
6, 89688, Note_on_c, 0, 72, 0
6, 89700, Note_on_c, 0, 71, 117
6, 89738, Note_on_c, 0, 71, 0
6, 89760, Note_on_c, 0, 69, 124
6, 89808, Note_on_c, 0, 69, 0
6, 89820, Note_on_c, 0, 67, 90
6, 89862, Note_on_c, 0, 67, 0
6, 89880, Note_on_c, 0, 66, 106
6, 89889, Channel_aftertouch_c, 0, 7
6, 89900, Channel_aftertouch_c, 0, 3
6, 89911, Channel_aftertouch_c, 0, 1
6, 89918, Note_on_c, 0, 66, 0
6, 89940, Note_on_c, 0, 64, 110
6, 89971, Note_on_c, 0, 64, 0
6, 90000, Note_on_c, 0, 67, 93
6, 90055, Note_on_c, 0, 67, 0
6, 90060, Note_on_c, 0, 66, 73
6, 90106, Note_on_c, 0, 66, 0
6, 90120, Note_on_c, 0, 64, 98
6, 90124, Channel_aftertouch_c, 0, 6
6, 90133, Channel_aftertouch_c, 0, 3
6, 90140, Channel_aftertouch_c, 0, 1
6, 90157, Note_on_c, 0, 64, 0
6, 90180, Note_on_c, 0, 63, 93
6, 90219, Note_on_c, 0, 63, 0
6, 90240, Note_on_c, 0, 64, 55
6, 90280, Note_on_c, 0, 64, 0
6, 90300, Note_on_c, 0, 71, 66
6, 90345, Note_on_c, 0, 71, 0
6, 90360, Note_on_c, 0, 73, 99
6, 90409, Note_on_c, 0, 73, 0
6, 90420, Note_on_c, 0, 75, 74
6, 90471, Note_on_c, 0, 75, 0
6, 90480, Note_on_c, 0, 76, 86
6, 90517, Note_on_c, 0, 76, 0
6, 90540, Note_on_c, 0, 67, 69
6, 90585, Note_on_c, 0, 67, 0
6, 90600, Note_on_c, 0, 66, 66
6, 90650, Note_on_c, 0, 66, 0
6, 90660, Note_on_c, 0, 64, 61
6, 90687, Note_on_c, 0, 64, 0
6, 90720, Note_on_c, 0, 66, 77
6, 90767, Note_on_c, 0, 66, 0
6, 90780, Note_on_c, 0, 76, 74
6, 90828, Note_on_c, 0, 76, 0
6, 90840, Note_on_c, 0, 74, 72
6, 90885, Note_on_c, 0, 74, 0
6, 90900, Note_on_c, 0, 73, 64
6, 90945, Note_on_c, 0, 73, 0
6, 90960, Note_on_c, 0, 74, 77
6, 91005, Note_on_c, 0, 74, 0
6, 91020, Note_on_c, 0, 78, 93
6, 91068, Note_on_c, 0, 78, 0
6, 91080, Note_on_c, 0, 80, 64
6, 91134, Note_on_c, 0, 80, 0
6, 91140, Note_on_c, 0, 81, 74
6, 91192, Note_on_c, 0, 81, 0
6, 91200, Note_on_c, 0, 80, 69
6, 91252, Note_on_c, 0, 80, 0
6, 91260, Note_on_c, 0, 74, 66
6, 91304, Note_on_c, 0, 74, 0
6, 91320, Note_on_c, 0, 72, 79
6, 91368, Note_on_c, 0, 72, 0
6, 91380, Note_on_c, 0, 71, 72
6, 91419, Note_on_c, 0, 71, 0
6, 91440, Note_on_c, 0, 72, 69
6, 91487, Note_on_c, 0, 72, 0
6, 91500, Note_on_c, 0, 76, 79
6, 91551, Note_on_c, 0, 76, 0
6, 91560, Note_on_c, 0, 81, 72
6, 91611, Note_on_c, 0, 81, 0
6, 91620, Note_on_c, 0, 79, 66
6, 91666, Note_on_c, 0, 79, 0
6, 91680, Note_on_c, 0, 78, 84
6, 91726, Note_on_c, 0, 78, 0
6, 91740, Note_on_c, 0, 72, 102
6, 91788, Note_on_c, 0, 72, 0
6, 91800, Note_on_c, 0, 71, 84
6, 91844, Note_on_c, 0, 71, 0
6, 91860, Note_on_c, 0, 69, 74
6, 91895, Note_on_c, 0, 69, 0
6, 91920, Note_on_c, 0, 71, 72
6, 91970, Note_on_c, 0, 71, 0
6, 91980, Note_on_c, 0, 74, 89
6, 92026, Note_on_c, 0, 74, 0
6, 92040, Note_on_c, 0, 79, 79
6, 92087, Note_on_c, 0, 79, 0
6, 92100, Note_on_c, 0, 78, 72
6, 92134, Note_on_c, 0, 78, 0
6, 92160, Note_on_c, 0, 79, 77
6, 92198, Note_on_c, 0, 79, 0
6, 92220, Note_on_c, 0, 76, 79
6, 92272, Note_on_c, 0, 76, 0
6, 92280, Note_on_c, 0, 73, 74
6, 92315, Note_on_c, 0, 73, 0
6, 92340, Note_on_c, 0, 69, 58
6, 92365, Note_on_c, 0, 69, 0
6, 92400, Note_on_c, 0, 69, 66
6, 92440, Note_on_c, 0, 69, 0
6, 92460, Note_on_c, 0, 73, 77
6, 92498, Note_on_c, 0, 73, 0
6, 92520, Note_on_c, 0, 74, 79
6, 92559, Note_on_c, 0, 74, 0
6, 92580, Note_on_c, 0, 78, 84
6, 92626, Note_on_c, 0, 78, 0
6, 92640, Note_on_c, 0, 76, 84
6, 92696, Note_on_c, 0, 76, 0
6, 92700, Note_on_c, 0, 74, 74
6, 92750, Note_on_c, 0, 74, 0
6, 92760, Note_on_c, 0, 71, 55
6, 92800, Note_on_c, 0, 71, 0
6, 92820, Note_on_c, 0, 69, 69
6, 92852, Note_on_c, 0, 69, 0
6, 92880, Note_on_c, 0, 68, 61
6, 92925, Note_on_c, 0, 68, 0
6, 92940, Note_on_c, 0, 71, 79
6, 92979, Note_on_c, 0, 71, 0
6, 93000, Note_on_c, 0, 74, 89
6, 93049, Note_on_c, 0, 74, 0
6, 93060, Note_on_c, 0, 73, 84
6, 93106, Note_on_c, 0, 73, 0
6, 93120, Note_on_c, 0, 74, 89
6, 93164, Note_on_c, 0, 74, 0
6, 93180, Note_on_c, 0, 76, 84
6, 93227, Note_on_c, 0, 76, 0
6, 93240, Note_on_c, 0, 74, 66
6, 93282, Note_on_c, 0, 74, 0
6, 93300, Note_on_c, 0, 73, 64
6, 93337, Note_on_c, 0, 73, 0
6, 93360, Note_on_c, 0, 74, 79
6, 93408, Note_on_c, 0, 74, 0
6, 93420, Note_on_c, 0, 83, 84
6, 93466, Note_on_c, 0, 83, 0
6, 93480, Note_on_c, 0, 74, 72
6, 93526, Note_on_c, 0, 74, 0
6, 93540, Note_on_c, 0, 83, 66
6, 93574, Note_on_c, 0, 83, 0
6, 93600, Note_on_c, 0, 74, 81
6, 93645, Note_on_c, 0, 74, 0
6, 93660, Note_on_c, 0, 76, 84
6, 93709, Note_on_c, 0, 76, 0
6, 93720, Note_on_c, 0, 73, 84
6, 93766, Note_on_c, 0, 73, 0
6, 93780, Note_on_c, 0, 71, 66
6, 93819, Note_on_c, 0, 71, 0
6, 93840, Note_on_c, 0, 73, 81
6, 93889, Note_on_c, 0, 73, 0
6, 93900, Note_on_c, 0, 76, 84
6, 93929, Note_on_c, 0, 76, 0
6, 93960, Note_on_c, 0, 69, 66
6, 94007, Note_on_c, 0, 69, 0
6, 94020, Note_on_c, 0, 71, 89
6, 94056, Note_on_c, 0, 71, 0
6, 94080, Note_on_c, 0, 72, 69
6, 94133, Note_on_c, 0, 72, 0
6, 94140, Note_on_c, 0, 74, 84
6, 94194, Note_on_c, 0, 74, 0
6, 94200, Note_on_c, 0, 72, 66
6, 94248, Note_on_c, 0, 72, 0
6, 94260, Note_on_c, 0, 71, 61
6, 94296, Note_on_c, 0, 71, 0
6, 94320, Note_on_c, 0, 72, 66
6, 94370, Note_on_c, 0, 72, 0
6, 94380, Note_on_c, 0, 81, 84
6, 94417, Note_on_c, 0, 81, 0
6, 94440, Note_on_c, 0, 72, 72
6, 94497, Note_on_c, 0, 72, 0
6, 94500, Note_on_c, 0, 81, 66
6, 94533, Note_on_c, 0, 81, 0
6, 94560, Note_on_c, 0, 72, 72
6, 94610, Note_on_c, 0, 72, 0
6, 94620, Note_on_c, 0, 74, 79
6, 94668, Note_on_c, 0, 74, 0
6, 94680, Note_on_c, 0, 71, 84
6, 94729, Note_on_c, 0, 71, 0
6, 94740, Note_on_c, 0, 69, 64
6, 94778, Note_on_c, 0, 69, 0
6, 94800, Note_on_c, 0, 71, 79
6, 94846, Note_on_c, 0, 71, 0
6, 94860, Note_on_c, 0, 74, 84
6, 94909, Note_on_c, 0, 74, 0
6, 94920, Note_on_c, 0, 76, 77
6, 94977, Note_on_c, 0, 76, 0
6, 94980, Note_on_c, 0, 78, 66
6, 95017, Note_on_c, 0, 78, 0
6, 95040, Note_on_c, 0, 79, 81
6, 95087, Note_on_c, 0, 79, 0
6, 95100, Note_on_c, 0, 81, 72
6, 95142, Note_on_c, 0, 81, 0
6, 95160, Note_on_c, 0, 79, 79
6, 95207, Note_on_c, 0, 79, 0
6, 95220, Note_on_c, 0, 78, 61
6, 95253, Note_on_c, 0, 78, 0
6, 95280, Note_on_c, 0, 79, 79
6, 95324, Note_on_c, 0, 79, 0
6, 95340, Note_on_c, 0, 76, 79
6, 95390, Note_on_c, 0, 76, 0
6, 95400, Note_on_c, 0, 69, 69
6, 95448, Note_on_c, 0, 69, 0
6, 95460, Note_on_c, 0, 79, 74
6, 95512, Note_on_c, 0, 79, 0
6, 95520, Note_on_c, 0, 78, 69
6, 95580, Note_on_c, 0, 76, 79
6, 95593, Note_on_c, 0, 78, 0
6, 95628, Note_on_c, 0, 76, 0
6, 95640, Note_on_c, 0, 74, 84
6, 95688, Note_on_c, 0, 74, 0
6, 95700, Note_on_c, 0, 73, 89
6, 95742, Note_on_c, 0, 73, 0
6, 95760, Note_on_c, 0, 74, 66
6, 95813, Note_on_c, 0, 74, 0
6, 95820, Note_on_c, 0, 78, 72
6, 95880, Note_on_c, 0, 81, 89
6, 95888, Note_on_c, 0, 78, 0
6, 95935, Note_on_c, 0, 81, 0
6, 95940, Note_on_c, 0, 72, 66
6, 95980, Note_on_c, 0, 72, 0
6, 96000, Note_on_c, 0, 71, 66
6, 96060, Note_on_c, 0, 74, 74
6, 96072, Note_on_c, 0, 71, 0
6, 96110, Note_on_c, 0, 74, 0
6, 96120, Note_on_c, 0, 79, 84
6, 96167, Note_on_c, 0, 79, 0
6, 96180, Note_on_c, 0, 78, 86
6, 96222, Note_on_c, 0, 78, 0
6, 96240, Note_on_c, 0, 76, 96
6, 96293, Note_on_c, 0, 76, 0
6, 96300, Note_on_c, 0, 74, 72
6, 96332, Note_on_c, 0, 74, 0
6, 96360, Note_on_c, 0, 73, 69
6, 96408, Note_on_c, 0, 73, 0
6, 96420, Note_on_c, 0, 71, 58
6, 96457, Note_on_c, 0, 71, 0
6, 96480, Note_on_c, 0, 69, 74
6, 96527, Note_on_c, 0, 69, 0
6, 96540, Note_on_c, 0, 66, 61
6, 96586, Note_on_c, 0, 66, 0
6, 96600, Note_on_c, 0, 67, 74
6, 96642, Note_on_c, 0, 67, 0
6, 96660, Note_on_c, 0, 64, 74
6, 96684, Note_on_c, 0, 64, 0
6, 96720, Note_on_c, 0, 57, 108
6, 96774, Note_on_c, 0, 57, 0
6, 96840, Note_on_c, 0, 79, 114
6, 96942, Note_on_c, 0, 79, 0
6, 96960, Note_on_c, 0, 78, 124
6, 97008, Note_on_c, 0, 78, 0
6, 97020, Note_on_c, 0, 79, 96
6, 97074, Note_on_c, 0, 79, 0
6, 97080, Note_on_c, 0, 81, 84
6, 97134, Note_on_c, 0, 81, 0
6, 97140, Note_on_c, 0, 78, 86
6, 97185, Note_on_c, 0, 78, 0
6, 97200, Note_on_c, 0, 76, 123
6, 97248, Note_on_c, 0, 76, 0
6, 97260, Note_on_c, 0, 78, 93
6, 97298, Note_on_c, 0, 78, 0
6, 97320, Note_on_c, 0, 79, 111
6, 97366, Note_on_c, 0, 79, 0
6, 97380, Note_on_c, 0, 76, 84
6, 97420, Note_on_c, 0, 76, 0
6, 97440, Note_on_c, 0, 74, 93
6, 97479, Note_on_c, 0, 74, 0
6, 97500, Note_on_c, 0, 76, 84
6, 97538, Note_on_c, 0, 76, 0
6, 97560, Note_on_c, 0, 78, 64
6, 97598, Note_on_c, 0, 78, 0
6, 97620, Note_on_c, 0, 74, 79
6, 97654, Note_on_c, 0, 74, 0
6, 97680, Note_on_c, 0, 73, 77
6, 97725, Note_on_c, 0, 73, 0
6, 97740, Note_on_c, 0, 74, 93
6, 97776, Note_on_c, 0, 74, 0
6, 97800, Note_on_c, 0, 76, 77
6, 97839, Note_on_c, 0, 76, 0
6, 97860, Note_on_c, 0, 73, 84
6, 97894, Note_on_c, 0, 73, 0
6, 97920, Note_on_c, 0, 71, 108
6, 97960, Note_on_c, 0, 71, 0
6, 97980, Note_on_c, 0, 73, 77
6, 98026, Note_on_c, 0, 73, 0
6, 98040, Note_on_c, 0, 74, 99
6, 98074, Note_on_c, 0, 74, 0
6, 98100, Note_on_c, 0, 69, 84
6, 98136, Note_on_c, 0, 69, 0
6, 98160, Note_on_c, 0, 71, 93
6, 98206, Note_on_c, 0, 71, 0
6, 98220, Note_on_c, 0, 74, 89
6, 98239, Note_on_c, 0, 74, 0
6, 98280, Note_on_c, 0, 73, 84
6, 98340, Note_on_c, 0, 73, 0
6, 98340, Note_on_c, 0, 76, 84
6, 98359, Note_on_c, 0, 76, 0
6, 98400, Note_on_c, 0, 74, 96
6, 98456, Note_on_c, 0, 74, 0
6, 98460, Note_on_c, 0, 76, 84
6, 98489, Note_on_c, 0, 76, 0
6, 98520, Note_on_c, 0, 78, 81
6, 98557, Note_on_c, 0, 78, 0
6, 98580, Note_on_c, 0, 69, 84
6, 98608, Note_on_c, 0, 69, 0
6, 98640, Note_on_c, 0, 71, 99
6, 98689, Note_on_c, 0, 71, 0
6, 98700, Note_on_c, 0, 74, 77
6, 98726, Note_on_c, 0, 74, 0
6, 98760, Note_on_c, 0, 73, 117
6, 98811, Note_on_c, 0, 73, 0
6, 98820, Note_on_c, 0, 76, 89
6, 98857, Note_on_c, 0, 76, 0
6, 98880, Note_on_c, 0, 74, 124
6, 98926, Note_on_c, 0, 74, 0
6, 98940, Note_on_c, 0, 76, 96
6, 98990, Note_on_c, 0, 76, 0
6, 99000, Note_on_c, 0, 78, 114
6, 99035, Note_on_c, 0, 78, 0
6, 99060, Note_on_c, 0, 73, 93
6, 99097, Note_on_c, 0, 73, 0
6, 99120, Note_on_c, 0, 74, 123
6, 99131, Channel_aftertouch_c, 0, 6
6, 99135, Channel_aftertouch_c, 0, 3
6, 99143, Channel_aftertouch_c, 0, 1
6, 99166, Note_on_c, 0, 74, 0
6, 99180, Note_on_c, 0, 78, 120
6, 99215, Note_on_c, 0, 78, 0
6, 99240, Note_on_c, 0, 76, 117
6, 99285, Note_on_c, 0, 76, 0
6, 99300, Note_on_c, 0, 79, 102
6, 99345, Note_on_c, 0, 79, 0
6, 99360, Note_on_c, 0, 78, 120
6, 99405, Note_on_c, 0, 78, 0
6, 99420, Note_on_c, 0, 79, 89
6, 99471, Note_on_c, 0, 79, 0
6, 99480, Note_on_c, 0, 81, 111
6, 99526, Note_on_c, 0, 81, 0
6, 99540, Note_on_c, 0, 73, 108
6, 99580, Note_on_c, 0, 73, 0
6, 99600, Note_on_c, 0, 74, 125
6, 99646, Note_on_c, 0, 74, 0
6, 99660, Note_on_c, 0, 78, 114
6, 99706, Note_on_c, 0, 78, 0
6, 99720, Note_on_c, 0, 76, 108
6, 99769, Note_on_c, 0, 76, 0
6, 99780, Note_on_c, 0, 79, 89
6, 99832, Note_on_c, 0, 79, 0
6, 99840, Note_on_c, 0, 78, 111
6, 99888, Note_on_c, 0, 78, 0
6, 99900, Note_on_c, 0, 79, 89
6, 99954, Note_on_c, 0, 79, 0
6, 99960, Note_on_c, 0, 81, 93
6, 100002, Note_on_c, 0, 81, 0
6, 100020, Note_on_c, 0, 78, 81
6, 100059, Note_on_c, 0, 78, 0
6, 100080, Note_on_c, 0, 79, 105
6, 100134, Note_on_c, 0, 79, 0
6, 100140, Note_on_c, 0, 76, 96
6, 100184, Note_on_c, 0, 76, 0
6, 100200, Note_on_c, 0, 78, 102
6, 100250, Note_on_c, 0, 78, 0
6, 100260, Note_on_c, 0, 74, 84
6, 100308, Note_on_c, 0, 74, 0
6, 100320, Note_on_c, 0, 73, 74
6, 100372, Note_on_c, 0, 73, 0
6, 100380, Note_on_c, 0, 74, 99
6, 100433, Note_on_c, 0, 74, 0
6, 100440, Note_on_c, 0, 76, 93
6, 100489, Note_on_c, 0, 76, 0
6, 100500, Note_on_c, 0, 73, 96
6, 100542, Note_on_c, 0, 73, 0
6, 100560, Note_on_c, 0, 74, 96
6, 100605, Note_on_c, 0, 74, 0
6, 100620, Note_on_c, 0, 71, 66
6, 100662, Note_on_c, 0, 71, 0
6, 100680, Note_on_c, 0, 73, 86
6, 100731, Note_on_c, 0, 73, 0
6, 100740, Note_on_c, 0, 69, 72
6, 100788, Note_on_c, 0, 69, 0
6, 100800, Note_on_c, 0, 67, 99
6, 100845, Note_on_c, 0, 67, 0
6, 100860, Note_on_c, 0, 69, 74
6, 100912, Note_on_c, 0, 69, 0
6, 100920, Note_on_c, 0, 71, 66
6, 100956, Note_on_c, 0, 71, 0
6, 100980, Note_on_c, 0, 66, 72
6, 101016, Note_on_c, 0, 66, 0
6, 101040, Note_on_c, 0, 67, 74
6, 101082, Note_on_c, 0, 67, 0
6, 101100, Note_on_c, 0, 62, 66
6, 101142, Note_on_c, 0, 62, 0
6, 101160, Note_on_c, 0, 64, 84
6, 101200, Note_on_c, 0, 64, 0
6, 101220, Note_on_c, 0, 61, 77
6, 101256, Note_on_c, 0, 61, 0
6, 101280, Note_on_c, 0, 57, 84
6, 101372, Note_on_c, 0, 57, 0
6, 101580, Note_on_c, 0, 73, 96
6, 101624, Note_on_c, 0, 73, 0
6, 101640, Note_on_c, 0, 72, 79
6, 101687, Note_on_c, 0, 72, 0
6, 101700, Note_on_c, 0, 73, 77
6, 101745, Note_on_c, 0, 73, 0
6, 101760, Note_on_c, 0, 80, 96
6, 101820, Note_on_c, 0, 80, 0
6, 101820, Note_on_c, 0, 73, 64
6, 101858, Note_on_c, 0, 73, 0
6, 101880, Note_on_c, 0, 72, 74
6, 101918, Note_on_c, 0, 72, 0
6, 101940, Note_on_c, 0, 73, 64
6, 101975, Note_on_c, 0, 73, 0
6, 102000, Note_on_c, 0, 65, 61
6, 102050, Note_on_c, 0, 65, 0
6, 102060, Note_on_c, 0, 73, 77
6, 102107, Note_on_c, 0, 73, 0
6, 102120, Note_on_c, 0, 71, 64
6, 102165, Note_on_c, 0, 71, 0
6, 102180, Note_on_c, 0, 73, 74
6, 102224, Note_on_c, 0, 73, 0
6, 102240, Note_on_c, 0, 74, 79
6, 102280, Note_on_c, 0, 74, 0
6, 102300, Note_on_c, 0, 71, 64
6, 102348, Note_on_c, 0, 71, 0
6, 102360, Note_on_c, 0, 73, 72
6, 102400, Note_on_c, 0, 73, 0
6, 102420, Note_on_c, 0, 69, 77
6, 102460, Note_on_c, 0, 69, 0
6, 102480, Note_on_c, 0, 71, 79
6, 102536, Note_on_c, 0, 71, 0
6, 102540, Note_on_c, 0, 80, 77
6, 102588, Note_on_c, 0, 80, 0
6, 102600, Note_on_c, 0, 78, 81
6, 102649, Note_on_c, 0, 78, 0
6, 102660, Note_on_c, 0, 80, 61
6, 102687, Note_on_c, 0, 80, 0
6, 102720, Note_on_c, 0, 69, 77
6, 102768, Note_on_c, 0, 69, 0
6, 102780, Note_on_c, 0, 71, 66
6, 102825, Note_on_c, 0, 71, 0
6, 102840, Note_on_c, 0, 73, 81
6, 102890, Note_on_c, 0, 73, 0
6, 102900, Note_on_c, 0, 78, 96
6, 102939, Note_on_c, 0, 78, 0
6, 102960, Note_on_c, 0, 73, 64
6, 103004, Note_on_c, 0, 73, 0
6, 103020, Note_on_c, 0, 71, 84
6, 103069, Note_on_c, 0, 71, 0
6, 103080, Note_on_c, 0, 69, 72
6, 103129, Note_on_c, 0, 69, 0
6, 103140, Note_on_c, 0, 68, 69
6, 103176, Note_on_c, 0, 68, 0
6, 103200, Note_on_c, 0, 66, 77
6, 103258, Note_on_c, 0, 66, 0
6, 103260, Note_on_c, 0, 68, 84
6, 103300, Note_on_c, 0, 68, 0
6, 103320, Note_on_c, 0, 69, 66
6, 103368, Note_on_c, 0, 69, 0
6, 103380, Note_on_c, 0, 73, 61
6, 103427, Note_on_c, 0, 73, 0
6, 103440, Note_on_c, 0, 69, 79
6, 103486, Note_on_c, 0, 69, 0
6, 103500, Note_on_c, 0, 68, 89
6, 103547, Note_on_c, 0, 68, 0
6, 103560, Note_on_c, 0, 66, 72
6, 103600, Note_on_c, 0, 66, 0
6, 103620, Note_on_c, 0, 64, 72
6, 103662, Note_on_c, 0, 64, 0
6, 103680, Note_on_c, 0, 62, 72
6, 103733, Note_on_c, 0, 62, 0
6, 103740, Note_on_c, 0, 64, 84
6, 103785, Note_on_c, 0, 64, 0
6, 103800, Note_on_c, 0, 66, 77
6, 103853, Note_on_c, 0, 66, 0
6, 103860, Note_on_c, 0, 71, 74
6, 103902, Note_on_c, 0, 71, 0
6, 103920, Note_on_c, 0, 66, 84
6, 103965, Note_on_c, 0, 66, 0
6, 103980, Note_on_c, 0, 64, 74
6, 104030, Note_on_c, 0, 64, 0
6, 104040, Note_on_c, 0, 62, 66
6, 104088, Note_on_c, 0, 62, 0
6, 104100, Note_on_c, 0, 61, 89
6, 104152, Note_on_c, 0, 61, 0
6, 104160, Note_on_c, 0, 59, 69
6, 104214, Note_on_c, 0, 59, 0
6, 104220, Note_on_c, 0, 61, 77
6, 104267, Note_on_c, 0, 61, 0
6, 104280, Note_on_c, 0, 62, 58
6, 104336, Note_on_c, 0, 62, 0
6, 104340, Note_on_c, 0, 66, 66
6, 104380, Note_on_c, 0, 66, 0
6, 104400, Note_on_c, 0, 71, 89
6, 104451, Note_on_c, 0, 71, 0
6, 104460, Note_on_c, 0, 73, 89
6, 104508, Note_on_c, 0, 73, 0
6, 104520, Note_on_c, 0, 74, 79
6, 104569, Note_on_c, 0, 74, 0
6, 104580, Note_on_c, 0, 71, 61
6, 104627, Note_on_c, 0, 71, 0
6, 104640, Note_on_c, 0, 77, 77
6, 104693, Note_on_c, 0, 77, 0
6, 104700, Note_on_c, 0, 71, 61
6, 104745, Note_on_c, 0, 71, 0
6, 104760, Note_on_c, 0, 80, 84
6, 104805, Note_on_c, 0, 80, 0
6, 104820, Note_on_c, 0, 71, 58
6, 104860, Note_on_c, 0, 71, 0
6, 104880, Note_on_c, 0, 77, 79
6, 104929, Note_on_c, 0, 77, 0
6, 104940, Note_on_c, 0, 71, 51
6, 104984, Note_on_c, 0, 71, 0
6, 105000, Note_on_c, 0, 80, 86
6, 105045, Note_on_c, 0, 80, 0
6, 105060, Note_on_c, 0, 71, 58
6, 105108, Note_on_c, 0, 71, 0
6, 105120, Note_on_c, 0, 77, 81
6, 105170, Note_on_c, 0, 77, 0
6, 105180, Note_on_c, 0, 71, 51
6, 105215, Note_on_c, 0, 71, 0
6, 105240, Note_on_c, 0, 80, 77
6, 105287, Note_on_c, 0, 80, 0
6, 105300, Note_on_c, 0, 71, 48
6, 105345, Note_on_c, 0, 71, 0
6, 105360, Note_on_c, 0, 77, 74
6, 105407, Note_on_c, 0, 77, 0
6, 105420, Note_on_c, 0, 71, 61
6, 105467, Note_on_c, 0, 71, 0
6, 105480, Note_on_c, 0, 80, 64
6, 105532, Note_on_c, 0, 80, 0
6, 105540, Note_on_c, 0, 71, 55
6, 105585, Note_on_c, 0, 71, 0
6, 105600, Note_on_c, 0, 78, 74
6, 105648, Note_on_c, 0, 78, 0
6, 105660, Note_on_c, 0, 69, 51
6, 105699, Note_on_c, 0, 69, 0
6, 105720, Note_on_c, 0, 81, 74
6, 105770, Note_on_c, 0, 81, 0
6, 105780, Note_on_c, 0, 69, 69
6, 105827, Note_on_c, 0, 69, 0
6, 105840, Note_on_c, 0, 78, 77
6, 105895, Note_on_c, 0, 78, 0
6, 105900, Note_on_c, 0, 69, 64
6, 105949, Note_on_c, 0, 69, 0
6, 105960, Note_on_c, 0, 81, 89
6, 105998, Note_on_c, 0, 81, 0
6, 106020, Note_on_c, 0, 69, 64
6, 106067, Note_on_c, 0, 69, 0
6, 106080, Note_on_c, 0, 78, 89
6, 106136, Note_on_c, 0, 78, 0
6, 106140, Note_on_c, 0, 69, 72
6, 106188, Note_on_c, 0, 69, 0
6, 106200, Note_on_c, 0, 81, 74
6, 106245, Note_on_c, 0, 81, 0
6, 106260, Note_on_c, 0, 69, 74
6, 106304, Note_on_c, 0, 69, 0
6, 106320, Note_on_c, 0, 78, 84
6, 106368, Note_on_c, 0, 78, 0
6, 106380, Note_on_c, 0, 69, 64
6, 106431, Note_on_c, 0, 69, 0
6, 106440, Note_on_c, 0, 81, 79
6, 106492, Note_on_c, 0, 81, 0
6, 106500, Note_on_c, 0, 69, 64
6, 106535, Note_on_c, 0, 69, 0
6, 106560, Note_on_c, 0, 80, 77
6, 106607, Note_on_c, 0, 80, 0
6, 106620, Note_on_c, 0, 73, 64
6, 106671, Note_on_c, 0, 73, 0
6, 106680, Note_on_c, 0, 83, 79
6, 106734, Note_on_c, 0, 83, 0
6, 106740, Note_on_c, 0, 73, 64
6, 106784, Note_on_c, 0, 73, 0
6, 106800, Note_on_c, 0, 80, 96
6, 106860, Note_on_c, 0, 73, 66
6, 106863, Note_on_c, 0, 80, 0
6, 106905, Note_on_c, 0, 73, 0
6, 106920, Note_on_c, 0, 83, 79
6, 106966, Note_on_c, 0, 83, 0
6, 106980, Note_on_c, 0, 73, 51
6, 107024, Note_on_c, 0, 73, 0
6, 107040, Note_on_c, 0, 80, 66
6, 107092, Note_on_c, 0, 80, 0
6, 107100, Note_on_c, 0, 73, 51
6, 107144, Note_on_c, 0, 73, 0
6, 107160, Note_on_c, 0, 83, 79
6, 107206, Note_on_c, 0, 83, 0
6, 107220, Note_on_c, 0, 73, 66
6, 107258, Note_on_c, 0, 73, 0
6, 107280, Note_on_c, 0, 80, 81
6, 107332, Note_on_c, 0, 80, 0
6, 107340, Note_on_c, 0, 73, 72
6, 107384, Note_on_c, 0, 73, 0
6, 107400, Note_on_c, 0, 83, 86
6, 107460, Note_on_c, 0, 83, 0
6, 107460, Note_on_c, 0, 73, 66
6, 107502, Note_on_c, 0, 73, 0
6, 107520, Note_on_c, 0, 81, 84
6, 107574, Note_on_c, 0, 81, 0
6, 107580, Note_on_c, 0, 73, 51
6, 107622, Note_on_c, 0, 73, 0
6, 107640, Note_on_c, 0, 85, 84
6, 107693, Note_on_c, 0, 85, 0
6, 107700, Note_on_c, 0, 73, 66
6, 107745, Note_on_c, 0, 73, 0
6, 107760, Note_on_c, 0, 81, 72
6, 107816, Note_on_c, 0, 81, 0
6, 107820, Note_on_c, 0, 73, 51
6, 107864, Note_on_c, 0, 73, 0
6, 107880, Note_on_c, 0, 85, 77
6, 107932, Note_on_c, 0, 85, 0
6, 107940, Note_on_c, 0, 73, 64
6, 107974, Note_on_c, 0, 73, 0
6, 108000, Note_on_c, 0, 81, 79
6, 108053, Note_on_c, 0, 81, 0
6, 108060, Note_on_c, 0, 73, 39
6, 108091, Note_on_c, 0, 73, 0
6, 108120, Note_on_c, 0, 85, 64
6, 108173, Note_on_c, 0, 85, 0
6, 108180, Note_on_c, 0, 73, 72
6, 108217, Note_on_c, 0, 73, 0
6, 108240, Note_on_c, 0, 81, 79
6, 108292, Note_on_c, 0, 81, 0
6, 108300, Note_on_c, 0, 73, 64
6, 108351, Note_on_c, 0, 73, 0
6, 108360, Note_on_c, 0, 85, 72
6, 108399, Note_on_c, 0, 85, 0
6, 108420, Note_on_c, 0, 73, 77
6, 108450, Note_on_c, 0, 73, 0
6, 108480, Note_on_c, 0, 74, 69
6, 108527, Note_on_c, 0, 74, 0
6, 108540, Note_on_c, 0, 73, 74
6, 108589, Note_on_c, 0, 73, 0
6, 108600, Note_on_c, 0, 74, 66
6, 108645, Note_on_c, 0, 74, 0
6, 108660, Note_on_c, 0, 83, 79
6, 108692, Note_on_c, 0, 83, 0
6, 108720, Note_on_c, 0, 83, 102
6, 108776, Note_on_c, 0, 83, 0
6, 108780, Note_on_c, 0, 81, 89
6, 108840, Note_on_c, 0, 81, 0
6, 108840, Note_on_c, 0, 83, 74
6, 108895, Note_on_c, 0, 83, 0
6, 108900, Note_on_c, 0, 80, 64
6, 108931, Note_on_c, 0, 80, 0
6, 108960, Note_on_c, 0, 80, 81
6, 109017, Note_on_c, 0, 80, 0
6, 109020, Note_on_c, 0, 78, 66
6, 109078, Note_on_c, 0, 78, 0
6, 109080, Note_on_c, 0, 80, 66
6, 109136, Note_on_c, 0, 80, 0
6, 109140, Note_on_c, 0, 77, 72
6, 109172, Note_on_c, 0, 77, 0
6, 109200, Note_on_c, 0, 77, 72
6, 109254, Note_on_c, 0, 77, 0
6, 109260, Note_on_c, 0, 78, 61
6, 109320, Note_on_c, 0, 80, 81
6, 109340, Note_on_c, 0, 78, 0
6, 109379, Note_on_c, 0, 80, 0
6, 109380, Note_on_c, 0, 74, 72
6, 109427, Note_on_c, 0, 74, 0
6, 109440, Note_on_c, 0, 74, 86
6, 109500, Note_on_c, 0, 73, 66
6, 109522, Note_on_c, 0, 74, 0
6, 109560, Note_on_c, 0, 74, 74
6, 109564, Note_on_c, 0, 73, 0
6, 109598, Note_on_c, 0, 74, 0
6, 109620, Note_on_c, 0, 71, 58
6, 109645, Note_on_c, 0, 71, 0
6, 109680, Note_on_c, 0, 71, 64
6, 109735, Note_on_c, 0, 71, 0
6, 109740, Note_on_c, 0, 70, 77
6, 109800, Note_on_c, 0, 71, 66
6, 109808, Note_on_c, 0, 70, 0
6, 109860, Note_on_c, 0, 71, 0
6, 109860, Note_on_c, 0, 68, 58
6, 109895, Note_on_c, 0, 68, 0
6, 109920, Note_on_c, 0, 68, 58
6, 109976, Note_on_c, 0, 68, 0
6, 109980, Note_on_c, 0, 71, 64
6, 110004, Note_on_c, 0, 71, 0
6, 110010, Note_on_c, 0, 74, 84
6, 110025, Note_on_c, 0, 74, 0
6, 110040, Note_on_c, 0, 80, 127
6, 110153, Note_on_c, 0, 80, 0
6, 110280, Note_on_c, 0, 71, 79
6, 110337, Note_on_c, 0, 71, 0
6, 110340, Note_on_c, 0, 73, 77
6, 110364, Note_on_c, 0, 73, 0
6, 110370, Note_on_c, 0, 74, 79
6, 110394, Note_on_c, 0, 74, 0
6, 110400, Note_on_c, 0, 73, 123
6, 110500, Note_on_c, 0, 73, 0
6, 110520, Note_on_c, 0, 71, 96
6, 110560, Note_on_c, 0, 71, 0
6, 110580, Note_on_c, 0, 69, 84
6, 110624, Note_on_c, 0, 69, 0
6, 110640, Note_on_c, 0, 73, 108
6, 110692, Note_on_c, 0, 73, 0
6, 110700, Note_on_c, 0, 71, 96
6, 110737, Note_on_c, 0, 71, 0
6, 110760, Note_on_c, 0, 69, 79
6, 110794, Note_on_c, 0, 69, 0
6, 110820, Note_on_c, 0, 68, 66
6, 110849, Note_on_c, 0, 68, 0
6, 110880, Note_on_c, 0, 66, 80
6, 111935, Note_on_c, 0, 66, 0
6, 111960, Note_on_c, 0, 64, 64
6, 112036, Note_on_c, 0, 64, 0
6, 112080, Note_on_c, 0, 62, 72
6, 112106, Note_on_c, 0, 62, 0
6, 112110, Note_on_c, 0, 64, 66
6, 112135, Note_on_c, 0, 64, 0
6, 112140, Note_on_c, 0, 62, 58
6, 112188, Note_on_c, 0, 62, 0
6, 112200, Note_on_c, 0, 61, 84
6, 112285, Note_on_c, 0, 61, 0
6, 112320, Note_on_c, 0, 62, 89
6, 112364, Note_on_c, 0, 62, 0
6, 112380, Note_on_c, 0, 59, 79
6, 112429, Note_on_c, 0, 59, 0
6, 112440, Note_on_c, 0, 58, 66
6, 112478, Note_on_c, 0, 58, 0
6, 112500, Note_on_c, 0, 59, 79
6, 112549, Note_on_c, 0, 59, 0
6, 112560, Note_on_c, 0, 67, 89
6, 112823, Note_on_c, 0, 67, 0
6, 112860, Note_on_c, 0, 62, 79
6, 112911, Note_on_c, 0, 62, 0
6, 112920, Note_on_c, 0, 61, 81
6, 112958, Note_on_c, 0, 61, 0
6, 112980, Note_on_c, 0, 62, 84
6, 113026, Note_on_c, 0, 62, 0
6, 113040, Note_on_c, 0, 71, 120
6, 113318, Note_on_c, 0, 71, 0
6, 113340, Note_on_c, 0, 67, 79
6, 113390, Note_on_c, 0, 67, 0
6, 113400, Note_on_c, 0, 66, 72
6, 113451, Note_on_c, 0, 66, 0
6, 113460, Note_on_c, 0, 67, 102
6, 113509, Note_on_c, 0, 67, 0
6, 113520, Note_on_c, 0, 74, 108
6, 113808, Note_on_c, 0, 74, 0
6, 113820, Note_on_c, 0, 73, 89
6, 113867, Note_on_c, 0, 73, 0
6, 113880, Note_on_c, 0, 71, 61
6, 113930, Note_on_c, 0, 71, 0
6, 113940, Note_on_c, 0, 74, 89
6, 113989, Note_on_c, 0, 74, 0
6, 114000, Note_on_c, 0, 80, 123
6, 114297, Note_on_c, 0, 80, 0
6, 114300, Note_on_c, 0, 78, 93
6, 114352, Note_on_c, 0, 78, 0
6, 114360, Note_on_c, 0, 77, 111
6, 114411, Note_on_c, 0, 77, 0
6, 114420, Note_on_c, 0, 78, 91
6, 114452, Note_on_c, 0, 78, 0
6, 114480, Note_on_c, 0, 83, 127
6, 114770, Note_on_c, 0, 83, 0
6, 114780, Note_on_c, 0, 81, 89
6, 114836, Note_on_c, 0, 81, 0
6, 114840, Note_on_c, 0, 80, 79
6, 114886, Note_on_c, 0, 80, 0
6, 114900, Note_on_c, 0, 81, 84
6, 114945, Note_on_c, 0, 81, 0
6, 114960, Note_on_c, 0, 86, 127
6, 115258, Note_on_c, 0, 86, 0
6, 115260, Note_on_c, 0, 85, 30
6, 115312, Note_on_c, 0, 85, 0
6, 115320, Note_on_c, 0, 83, 22
6, 115368, Note_on_c, 0, 83, 0
6, 115380, Note_on_c, 0, 81, 39
6, 115432, Note_on_c, 0, 81, 0
6, 115440, Note_on_c, 0, 80, 48
6, 115491, Note_on_c, 0, 80, 0
6, 115500, Note_on_c, 0, 78, 22
6, 115560, Note_on_c, 0, 77, 43
6, 115561, Note_on_c, 0, 78, 0
6, 115608, Note_on_c, 0, 77, 0
6, 115620, Note_on_c, 0, 78, 39
6, 115674, Note_on_c, 0, 78, 0
6, 115680, Note_on_c, 0, 74, 39
6, 115737, Note_on_c, 0, 74, 0
6, 115740, Note_on_c, 0, 73, 30
6, 115800, Note_on_c, 0, 72, 48
6, 115813, Note_on_c, 0, 73, 0
6, 115846, Note_on_c, 0, 72, 0
6, 115860, Note_on_c, 0, 73, 26
6, 115918, Note_on_c, 0, 73, 0
6, 115920, Note_on_c, 0, 65, 58
6, 115977, Note_on_c, 0, 65, 0
6, 115980, Note_on_c, 0, 66, 39
6, 116036, Note_on_c, 0, 66, 0
6, 116040, Note_on_c, 0, 60, 30
6, 116100, Note_on_c, 0, 61, 58
6, 116103, Note_on_c, 0, 60, 0
6, 116146, Note_on_c, 0, 61, 0
6, 116160, Note_on_c, 0, 68, 80
6, 116430, Note_on_c, 0, 66, 30
6, 116440, Note_on_c, 0, 68, 0
6, 116460, Note_on_c, 0, 65, 43
6, 116462, Note_on_c, 0, 66, 0
6, 116511, Note_on_c, 0, 65, 0
6, 116520, Note_on_c, 0, 66, 26
6, 116633, Note_on_c, 0, 66, 0
6, 116640, Note_on_c, 0, 66, 43
6, 116640, Note_on_c, 0, 61, 64
6, 116640, Note_on_c, 0, 57, 58
6, 116876, Note_on_c, 0, 66, 0
6, 116880, Note_on_c, 0, 57, 0
6, 116880, Note_on_c, 0, 61, 0
6, 117120, Note_on_c, 0, 54, 75
6, 117120, Note_on_c, 0, 57, 117
6, 117120, Note_on_c, 0, 62, 90
6, 117243, Channel_aftertouch_c, 0, 64
6, 117243, Channel_aftertouch_c, 0, 64
6, 117254, Channel_aftertouch_c, 0, 32
6, 117255, Channel_aftertouch_c, 0, 32
6, 117266, Channel_aftertouch_c, 0, 16
6, 117267, Channel_aftertouch_c, 0, 16
6, 117279, Channel_aftertouch_c, 0, 8
6, 117279, Channel_aftertouch_c, 0, 8
6, 117290, Channel_aftertouch_c, 0, 4
6, 117290, Channel_aftertouch_c, 0, 4
6, 117303, Channel_aftertouch_c, 0, 2
6, 117303, Channel_aftertouch_c, 0, 2
6, 117314, Channel_aftertouch_c, 0, 1
6, 117314, Channel_aftertouch_c, 0, 1
6, 117336, Note_on_c, 0, 62, 0
6, 117336, Note_on_c, 0, 57, 0
6, 117336, Note_on_c, 0, 54, 0
6, 117360, Note_on_c, 0, 62, 110
6, 117360, Note_on_c, 0, 57, 117
6, 117360, Note_on_c, 0, 66, 98
6, 117468, Note_on_c, 0, 66, 0
6, 117468, Note_on_c, 0, 62, 0
6, 117576, Note_on_c, 0, 57, 0
6, 117600, Note_on_c, 0, 66, 127
6, 117600, Note_on_c, 0, 62, 127
6, 117600, Note_on_c, 0, 69, 93
6, 117609, Channel_aftertouch_c, 0, 18
6, 117610, Channel_aftertouch_c, 0, 18
6, 117616, Channel_aftertouch_c, 0, 9
6, 117616, Channel_aftertouch_c, 0, 9
6, 117627, Channel_aftertouch_c, 0, 4
6, 117627, Channel_aftertouch_c, 0, 4
6, 117640, Channel_aftertouch_c, 0, 2
6, 117640, Channel_aftertouch_c, 0, 2
6, 117652, Channel_aftertouch_c, 0, 1
6, 117652, Channel_aftertouch_c, 0, 1
6, 117708, Note_on_c, 0, 69, 0
6, 117816, Note_on_c, 0, 62, 0
6, 117816, Note_on_c, 0, 66, 0
6, 117960, Note_on_c, 0, 66, 80
6, 117960, Note_on_c, 0, 62, 80
6, 118008, Note_on_c, 0, 62, 0
6, 118008, Note_on_c, 0, 66, 0
6, 118020, Note_on_c, 0, 67, 80
6, 118020, Note_on_c, 0, 64, 80
6, 118068, Note_on_c, 0, 64, 0
6, 118068, Note_on_c, 0, 67, 0
6, 118080, Note_on_c, 0, 66, 120
6, 118080, Note_on_c, 0, 69, 110
6, 118137, Note_on_c, 0, 69, 0
6, 118155, Note_on_c, 0, 66, 0
6, 118200, Note_on_c, 0, 62, 89
6, 118200, Note_on_c, 0, 66, 82
6, 118237, Note_on_c, 0, 66, 0
6, 118244, Note_on_c, 0, 62, 0
6, 118260, Note_on_c, 0, 64, 72
6, 118260, Note_on_c, 0, 67, 96
6, 118300, Note_on_c, 0, 67, 0
6, 118300, Note_on_c, 0, 64, 0
6, 118320, Note_on_c, 0, 69, 90
6, 118320, Note_on_c, 0, 66, 105
6, 118375, Note_on_c, 0, 69, 0
6, 118401, Note_on_c, 0, 66, 0
6, 118440, Note_on_c, 0, 69, 89
6, 118440, Note_on_c, 0, 74, 98
6, 118479, Note_on_c, 0, 69, 0
6, 118500, Note_on_c, 0, 67, 77
6, 118509, Note_on_c, 0, 74, 0
6, 118542, Note_on_c, 0, 67, 0
6, 118560, Note_on_c, 0, 66, 102
6, 118560, Note_on_c, 0, 69, 102
6, 118618, Note_on_c, 0, 69, 0
6, 118639, Note_on_c, 0, 66, 0
6, 118680, Note_on_c, 0, 69, 90
6, 118680, Note_on_c, 0, 62, 96
6, 118724, Note_on_c, 0, 69, 0
6, 118740, Note_on_c, 0, 67, 90
6, 118757, Note_on_c, 0, 62, 0
6, 118790, Note_on_c, 0, 67, 0
6, 118800, Note_on_c, 0, 62, 99
6, 118800, Note_on_c, 0, 66, 117
6, 118863, Note_on_c, 0, 66, 0
6, 118920, Note_on_c, 0, 64, 96
6, 118959, Note_on_c, 0, 64, 0
6, 118980, Note_on_c, 0, 62, 96
6, 119016, Note_on_c, 0, 62, 0
6, 119025, Note_on_c, 0, 62, 0
6, 119040, Note_on_c, 0, 67, 127
6, 119085, Note_on_c, 0, 67, 0
6, 119100, Note_on_c, 0, 69, 90
6, 119145, Note_on_c, 0, 69, 0
6, 119160, Note_on_c, 0, 71, 79
6, 119199, Note_on_c, 0, 71, 0
6, 119220, Note_on_c, 0, 67, 82
6, 119259, Note_on_c, 0, 67, 0
6, 119280, Note_on_c, 0, 66, 96
6, 119326, Note_on_c, 0, 66, 0
6, 119340, Note_on_c, 0, 67, 110
6, 119390, Note_on_c, 0, 67, 0
6, 119400, Note_on_c, 0, 69, 75
6, 119444, Note_on_c, 0, 69, 0
6, 119460, Note_on_c, 0, 66, 73
6, 119499, Note_on_c, 0, 66, 0
6, 119520, Note_on_c, 0, 64, 66
6, 119523, Channel_aftertouch_c, 0, 3
6, 119523, Channel_aftertouch_c, 0, 3
6, 119534, Channel_aftertouch_c, 0, 1
6, 119534, Channel_aftertouch_c, 0, 1
6, 119550, Note_on_c, 0, 64, 0
6, 119580, Note_on_c, 0, 69, 82
6, 119622, Note_on_c, 0, 69, 0
6, 119640, Note_on_c, 0, 71, 93
6, 119682, Note_on_c, 0, 71, 0
6, 119700, Note_on_c, 0, 73, 88
6, 119740, Note_on_c, 0, 73, 0
6, 119760, Note_on_c, 0, 74, 127
6, 119805, Note_on_c, 0, 74, 0
6, 119820, Note_on_c, 0, 76, 96
6, 119860, Note_on_c, 0, 76, 0
6, 119880, Note_on_c, 0, 78, 113
6, 119924, Note_on_c, 0, 78, 0
6, 119940, Note_on_c, 0, 79, 127
6, 119982, Note_on_c, 0, 79, 0
6, 120000, Note_on_c, 0, 81, 102
6, 120006, Channel_aftertouch_c, 0, 15
6, 120007, Channel_aftertouch_c, 0, 15
6, 120018, Channel_aftertouch_c, 0, 7
6, 120018, Channel_aftertouch_c, 0, 7
6, 120031, Channel_aftertouch_c, 0, 3
6, 120031, Channel_aftertouch_c, 0, 3
6, 120048, Note_on_c, 0, 81, 0
6, 120060, Note_on_c, 0, 69, 66
6, 120066, Channel_aftertouch_c, 0, 9
6, 120066, Channel_aftertouch_c, 0, 9
6, 120080, Channel_aftertouch_c, 0, 4
6, 120080, Channel_aftertouch_c, 0, 4
6, 120092, Channel_aftertouch_c, 0, 2
6, 120092, Channel_aftertouch_c, 0, 2
6, 120099, Note_on_c, 0, 69, 0
6, 120120, Note_on_c, 0, 81, 88
6, 120164, Note_on_c, 0, 81, 0
6, 120180, Note_on_c, 0, 69, 93
6, 120224, Note_on_c, 0, 69, 0
6, 120240, Note_on_c, 0, 81, 127
6, 120250, Channel_aftertouch_c, 0, 19
6, 120250, Channel_aftertouch_c, 0, 19
6, 120262, Channel_aftertouch_c, 0, 9
6, 120263, Channel_aftertouch_c, 0, 9
6, 120277, Channel_aftertouch_c, 0, 1
6, 120277, Channel_aftertouch_c, 0, 1
6, 120291, Note_on_c, 0, 81, 0
6, 120300, Note_on_c, 0, 69, 127
6, 120350, Note_on_c, 0, 69, 0
6, 120360, Note_on_c, 0, 81, 127
6, 120410, Note_on_c, 0, 81, 0
6, 120420, Note_on_c, 0, 69, 127
6, 120465, Note_on_c, 0, 69, 0
6, 120480, Note_on_c, 0, 81, 127
6, 120490, Channel_aftertouch_c, 0, 9
6, 120490, Channel_aftertouch_c, 0, 9
6, 120492, Channel_aftertouch_c, 0, 6
6, 120492, Channel_aftertouch_c, 0, 6
6, 120502, Channel_aftertouch_c, 0, 4
6, 120503, Channel_aftertouch_c, 0, 4
6, 120514, Channel_aftertouch_c, 0, 2
6, 120514, Channel_aftertouch_c, 0, 2
6, 120516, Channel_aftertouch_c, 0, 1
6, 120516, Channel_aftertouch_c, 0, 1
6, 120527, Channel_aftertouch_c, 0, 1
6, 120527, Channel_aftertouch_c, 0, 1
6, 120535, Note_on_c, 0, 81, 0
6, 120540, Note_on_c, 0, 78, 93
6, 120593, Note_on_c, 0, 78, 0
6, 120600, Note_on_c, 0, 75, 88
6, 120645, Note_on_c, 0, 75, 0
6, 120660, Note_on_c, 0, 71, 85
6, 120689, Note_on_c, 0, 71, 0
6, 120720, Note_on_c, 0, 71, 117
6, 120779, Note_on_c, 0, 71, 0
6, 120780, Note_on_c, 0, 75, 96
6, 120825, Note_on_c, 0, 75, 0
6, 120840, Note_on_c, 0, 78, 127
6, 120893, Note_on_c, 0, 78, 0
6, 120900, Note_on_c, 0, 81, 127
6, 120945, Note_on_c, 0, 81, 0
6, 120960, Note_on_c, 0, 79, 106
6, 121009, Note_on_c, 0, 79, 0
6, 121020, Note_on_c, 0, 67, 63
6, 121064, Note_on_c, 0, 67, 0
6, 121080, Note_on_c, 0, 79, 96
6, 121130, Note_on_c, 0, 79, 0
6, 121140, Note_on_c, 0, 67, 79
6, 121182, Note_on_c, 0, 67, 0
6, 121200, Note_on_c, 0, 79, 102
6, 121248, Note_on_c, 0, 79, 0
6, 121260, Note_on_c, 0, 67, 102
6, 121308, Note_on_c, 0, 67, 0
6, 121320, Note_on_c, 0, 79, 96
6, 121370, Note_on_c, 0, 79, 0
6, 121380, Note_on_c, 0, 79, 20
6, 121386, Note_on_c, 0, 79, 0
6, 121440, Note_on_c, 0, 79, 127
6, 121495, Note_on_c, 0, 79, 0
6, 121500, Note_on_c, 0, 76, 117
6, 121545, Note_on_c, 0, 76, 0
6, 121560, Note_on_c, 0, 73, 102
6, 121609, Note_on_c, 0, 73, 0
6, 121620, Note_on_c, 0, 69, 75
6, 121650, Note_on_c, 0, 69, 0
6, 121680, Note_on_c, 0, 69, 96
6, 121736, Note_on_c, 0, 69, 0
6, 121740, Note_on_c, 0, 73, 96
6, 121789, Note_on_c, 0, 73, 0
6, 121800, Note_on_c, 0, 76, 90
6, 121853, Note_on_c, 0, 76, 0
6, 121860, Note_on_c, 0, 79, 110
6, 121913, Note_on_c, 0, 79, 0
6, 121920, Note_on_c, 0, 78, 88
6, 121972, Note_on_c, 0, 78, 0
6, 121980, Note_on_c, 0, 66, 63
6, 122026, Note_on_c, 0, 66, 0
6, 122040, Note_on_c, 0, 78, 85
6, 122094, Note_on_c, 0, 78, 0
6, 122100, Note_on_c, 0, 66, 70
6, 122138, Note_on_c, 0, 66, 0
6, 122160, Note_on_c, 0, 78, 73
6, 122217, Note_on_c, 0, 78, 0
6, 122220, Note_on_c, 0, 66, 88
6, 122259, Note_on_c, 0, 66, 0
6, 122280, Note_on_c, 0, 78, 120
6, 122322, Note_on_c, 0, 78, 0
6, 122340, Note_on_c, 0, 78, 124
6, 122352, Channel_aftertouch_c, 0, 1
6, 122352, Channel_aftertouch_c, 0, 1
6, 122382, Note_on_c, 0, 78, 0
6, 122400, Note_on_c, 0, 79, 106
6, 122452, Note_on_c, 0, 79, 0
6, 122460, Note_on_c, 0, 81, 127
6, 122509, Note_on_c, 0, 81, 0
6, 122520, Note_on_c, 0, 83, 93
6, 122560, Note_on_c, 0, 83, 0
6, 122580, Note_on_c, 0, 79, 93
6, 122612, Note_on_c, 0, 79, 0
6, 122640, Note_on_c, 0, 78, 113
6, 122684, Note_on_c, 0, 78, 0
6, 122700, Note_on_c, 0, 79, 113
6, 122739, Note_on_c, 0, 79, 0
6, 122760, Note_on_c, 0, 81, 88
6, 122808, Note_on_c, 0, 81, 0
6, 122820, Note_on_c, 0, 78, 120
6, 122864, Note_on_c, 0, 78, 0
6, 122880, Note_on_c, 0, 76, 127
6, 122925, Note_on_c, 0, 76, 0
6, 122940, Note_on_c, 0, 78, 88
6, 122984, Note_on_c, 0, 78, 0
6, 123000, Note_on_c, 0, 79, 113
6, 123042, Note_on_c, 0, 79, 0
6, 123060, Note_on_c, 0, 76, 93
6, 123097, Note_on_c, 0, 76, 0
6, 123120, Note_on_c, 0, 74, 90
6, 123165, Note_on_c, 0, 74, 0
6, 123180, Note_on_c, 0, 76, 102
6, 123224, Note_on_c, 0, 76, 0
6, 123240, Note_on_c, 0, 78, 110
6, 123277, Note_on_c, 0, 78, 0
6, 123300, Note_on_c, 0, 74, 93
6, 123344, Note_on_c, 0, 74, 0
6, 123360, Note_on_c, 0, 73, 98
6, 123400, Note_on_c, 0, 73, 0
6, 123420, Note_on_c, 0, 74, 96
6, 123460, Note_on_c, 0, 74, 0
6, 123480, Note_on_c, 0, 76, 82
6, 123513, Note_on_c, 0, 76, 0
6, 123540, Note_on_c, 0, 73, 73
6, 123576, Note_on_c, 0, 73, 0
6, 123600, Note_on_c, 0, 67, 106
6, 123642, Note_on_c, 0, 67, 0
6, 123660, Note_on_c, 0, 69, 102
6, 123704, Note_on_c, 0, 69, 0
6, 123720, Note_on_c, 0, 71, 96
6, 123756, Note_on_c, 0, 71, 0
6, 123780, Note_on_c, 0, 67, 98
6, 123819, Note_on_c, 0, 67, 0
6, 123840, Note_on_c, 0, 64, 127
6, 123878, Note_on_c, 0, 64, 0
6, 123900, Note_on_c, 0, 66, 96
6, 123946, Note_on_c, 0, 66, 0
6, 123960, Note_on_c, 0, 67, 102
6, 124009, Note_on_c, 0, 67, 0
6, 124020, Note_on_c, 0, 64, 90
6, 124058, Note_on_c, 0, 64, 0
6, 124080, Note_on_c, 0, 61, 110
6, 124119, Note_on_c, 0, 61, 0
6, 124140, Note_on_c, 0, 62, 96
6, 124184, Note_on_c, 0, 62, 0
6, 124200, Note_on_c, 0, 64, 85
6, 124239, Note_on_c, 0, 64, 0
6, 124260, Note_on_c, 0, 61, 110
6, 124293, Note_on_c, 0, 61, 0
6, 124320, Note_on_c, 0, 57, 110
6, 124463, Note_on_c, 0, 57, 0
6, 124680, Note_on_c, 0, 76, 110
6, 124740, Note_on_c, 0, 78, 88
6, 124744, Note_on_c, 0, 76, 0
6, 124757, Note_on_c, 0, 78, 0
6, 124770, Note_on_c, 0, 79, 96
6, 124800, Note_on_c, 0, 78, 93
6, 124802, Note_on_c, 0, 79, 0
6, 124914, Note_on_c, 0, 78, 0
6, 124920, Note_on_c, 0, 76, 117
6, 124958, Note_on_c, 0, 76, 0
6, 124980, Note_on_c, 0, 74, 96
6, 125016, Note_on_c, 0, 74, 0
6, 125040, Note_on_c, 0, 76, 127
6, 125111, Note_on_c, 0, 76, 0
6, 125160, Note_on_c, 0, 74, 93
6, 125210, Note_on_c, 0, 74, 0
6, 125220, Note_on_c, 0, 73, 88
6, 125260, Note_on_c, 0, 73, 0
6, 125280, Note_on_c, 0, 74, 88
6, 125330, Note_on_c, 0, 74, 0
6, 125400, Note_on_c, 0, 69, 127
6, 125444, Note_on_c, 0, 69, 0
6, 125460, Note_on_c, 0, 57, 85
6, 125502, Note_on_c, 0, 57, 0
6, 125520, Note_on_c, 0, 71, 88
6, 125573, Note_on_c, 0, 71, 0
6, 125580, Note_on_c, 0, 59, 73
6, 125609, Note_on_c, 0, 59, 0
6, 125640, Note_on_c, 0, 73, 96
6, 125679, Note_on_c, 0, 73, 0
6, 125700, Note_on_c, 0, 61, 70
6, 125733, Note_on_c, 0, 61, 0
6, 125760, Note_on_c, 0, 74, 124
6, 125808, Note_on_c, 0, 74, 0
6, 125820, Note_on_c, 0, 62, 96
6, 125848, Note_on_c, 0, 62, 0
6, 125880, Note_on_c, 0, 69, 96
6, 125922, Note_on_c, 0, 69, 0
6, 125940, Note_on_c, 0, 57, 82
6, 125982, Note_on_c, 0, 57, 0
6, 126000, Note_on_c, 0, 71, 102
6, 126048, Note_on_c, 0, 71, 0
6, 126060, Note_on_c, 0, 59, 90
6, 126090, Note_on_c, 0, 59, 0
6, 126120, Note_on_c, 0, 73, 98
6, 126162, Note_on_c, 0, 73, 0
6, 126180, Note_on_c, 0, 61, 70
6, 126211, Note_on_c, 0, 61, 0
6, 126240, Note_on_c, 0, 74, 90
6, 126288, Note_on_c, 0, 74, 0
6, 126300, Note_on_c, 0, 76, 102
6, 126332, Note_on_c, 0, 76, 0
6, 126360, Note_on_c, 0, 78, 82
6, 126411, Note_on_c, 0, 78, 0
6, 126420, Note_on_c, 0, 74, 113
6, 126464, Note_on_c, 0, 74, 0
6, 126480, Note_on_c, 0, 79, 96
6, 126526, Note_on_c, 0, 79, 0
6, 126540, Note_on_c, 0, 76, 113
6, 126584, Note_on_c, 0, 76, 0
6, 126600, Note_on_c, 0, 81, 102
6, 126707, Note_on_c, 0, 81, 0
6, 126720, Note_on_c, 0, 78, 70
6, 126747, Note_on_c, 0, 78, 0
6, 126750, Note_on_c, 0, 79, 90
6, 126766, Note_on_c, 0, 79, 0
6, 126780, Note_on_c, 0, 78, 85
6, 126813, Note_on_c, 0, 78, 0
6, 126840, Note_on_c, 0, 76, 96
6, 126892, Note_on_c, 0, 76, 0
6, 126900, Note_on_c, 0, 74, 102
6, 126940, Note_on_c, 0, 74, 0
6, 126960, Note_on_c, 0, 78, 127
6, 126969, Channel_aftertouch_c, 0, 6
6, 126969, Channel_aftertouch_c, 0, 6
6, 126980, Channel_aftertouch_c, 0, 3
6, 126980, Channel_aftertouch_c, 0, 3
6, 127000, Note_on_c, 0, 78, 0
6, 127020, Note_on_c, 0, 76, 79
6, 127068, Note_on_c, 0, 76, 0
6, 127080, Note_on_c, 0, 74, 102
6, 127120, Note_on_c, 0, 74, 0
6, 127140, Note_on_c, 0, 73, 75
6, 127178, Note_on_c, 0, 73, 0
6, 127200, Note_on_c, 0, 74, 127
6, 127259, Note_on_c, 0, 74, 0
6, 127260, Note_on_c, 0, 73, 75
6, 127287, Note_on_c, 0, 73, 0
6, 127290, Note_on_c, 0, 71, 96
6, 127314, Note_on_c, 0, 71, 0
6, 127320, Note_on_c, 0, 69, 90
6, 127333, Note_on_c, 0, 69, 0
6, 127350, Note_on_c, 0, 67, 75
6, 127374, Note_on_c, 0, 67, 0
6, 127380, Note_on_c, 0, 66, 82
6, 127398, Note_on_c, 0, 66, 0
6, 127410, Note_on_c, 0, 64, 88
6, 127428, Note_on_c, 0, 64, 0
6, 127440, Note_on_c, 0, 62, 104
6, 127533, Note_on_c, 0, 62, 0
6, 127680, Note_on_c, 0, 62, 96
6, 127735, Note_on_c, 0, 62, 0
6, 127740, Note_on_c, 0, 57, 73
6, 127785, Note_on_c, 0, 57, 0
6, 127800, Note_on_c, 0, 62, 96
6, 127844, Note_on_c, 0, 62, 0
6, 127860, Note_on_c, 0, 64, 110
6, 127895, Note_on_c, 0, 64, 0
6, 127920, Note_on_c, 0, 66, 88
6, 127968, Note_on_c, 0, 66, 0
6, 127980, Note_on_c, 0, 62, 82
6, 128020, Note_on_c, 0, 62, 0
6, 128040, Note_on_c, 0, 66, 102
6, 128079, Note_on_c, 0, 66, 0
6, 128100, Note_on_c, 0, 67, 90
6, 128132, Note_on_c, 0, 67, 0
6, 128160, Note_on_c, 0, 67, 66
6, 128220, Note_on_c, 0, 67, 0
6, 128220, Note_on_c, 0, 69, 66
6, 128250, Note_on_c, 0, 71, 25
6, 128265, Note_on_c, 0, 69, 0
6, 128267, Note_on_c, 0, 71, 0
6, 128280, Note_on_c, 0, 69, 73
6, 128337, Note_on_c, 0, 69, 0
6, 128520, Note_on_c, 0, 69, 127
6, 128609, Note_on_c, 0, 69, 0
6, 128640, Note_on_c, 0, 71, 96
6, 128693, Note_on_c, 0, 71, 0
6, 128700, Note_on_c, 0, 73, 82
6, 128754, Note_on_c, 0, 73, 0
6, 128760, Note_on_c, 0, 74, 88
6, 128802, Note_on_c, 0, 74, 0
6, 128820, Note_on_c, 0, 71, 82
6, 128849, Note_on_c, 0, 71, 0
6, 128880, Note_on_c, 0, 69, 73
6, 128895, Note_on_c, 0, 69, 0
6, 128910, Note_on_c, 0, 71, 79
6, 128934, Note_on_c, 0, 71, 0
6, 128940, Note_on_c, 0, 69, 79
6, 129047, Note_on_c, 0, 69, 0
6, 129060, Note_on_c, 0, 69, 85
6, 129093, Note_on_c, 0, 69, 0
6, 129120, Note_on_c, 0, 71, 96
6, 129168, Note_on_c, 0, 71, 0
6, 129180, Note_on_c, 0, 73, 66
6, 129197, Note_on_c, 0, 73, 0
6, 129210, Note_on_c, 0, 74, 73
6, 129240, Note_on_c, 0, 73, 82
6, 129241, Note_on_c, 0, 74, 0
6, 129291, Note_on_c, 0, 73, 0
6, 129300, Note_on_c, 0, 74, 96
6, 129329, Note_on_c, 0, 74, 0
6, 129330, Note_on_c, 0, 76, 70
6, 129349, Note_on_c, 0, 76, 0
6, 129360, Note_on_c, 0, 69, 90
6, 129410, Note_on_c, 0, 69, 0
6, 129420, Note_on_c, 0, 73, 70
6, 129458, Note_on_c, 0, 73, 0
6, 129480, Note_on_c, 0, 74, 85
6, 129510, Note_on_c, 0, 74, 0
6, 129540, Note_on_c, 0, 78, 82
6, 129584, Note_on_c, 0, 78, 0
6, 129600, Note_on_c, 0, 79, 90
6, 129646, Note_on_c, 0, 79, 0
6, 129660, Note_on_c, 0, 78, 75
6, 129697, Note_on_c, 0, 78, 0
6, 129720, Note_on_c, 0, 76, 75
6, 129760, Note_on_c, 0, 76, 0
6, 129780, Note_on_c, 0, 79, 85
6, 129829, Note_on_c, 0, 79, 0
6, 129840, Note_on_c, 0, 78, 85
6, 129889, Note_on_c, 0, 78, 0
6, 129900, Note_on_c, 0, 76, 90
6, 129944, Note_on_c, 0, 76, 0
6, 129960, Note_on_c, 0, 74, 88
6, 129999, Note_on_c, 0, 74, 0
6, 130020, Note_on_c, 0, 78, 93
6, 130070, Note_on_c, 0, 78, 0
6, 130080, Note_on_c, 0, 76, 90
6, 130129, Note_on_c, 0, 76, 0
6, 130140, Note_on_c, 0, 74, 96
6, 130185, Note_on_c, 0, 74, 0
6, 130200, Note_on_c, 0, 73, 93
6, 130245, Note_on_c, 0, 73, 0
6, 130260, Note_on_c, 0, 71, 88
6, 130312, Note_on_c, 0, 71, 0
6, 130320, Note_on_c, 0, 69, 93
6, 130364, Note_on_c, 0, 69, 0
6, 130380, Note_on_c, 0, 67, 90
6, 130424, Note_on_c, 0, 67, 0
6, 130440, Note_on_c, 0, 66, 96
6, 130488, Note_on_c, 0, 66, 0
6, 130500, Note_on_c, 0, 64, 90
6, 130545, Note_on_c, 0, 64, 0
6, 130560, Note_on_c, 0, 57, 127
6, 130560, Note_on_c, 0, 54, 127
6, 130560, Note_on_c, 0, 62, 127
6, 130776, Note_on_c, 0, 62, 0
6, 130776, Note_on_c, 0, 54, 0
6, 130776, Note_on_c, 0, 57, 0
6, 130800, Note_on_c, 0, 57, 102
6, 130800, Note_on_c, 0, 66, 110
6, 130800, Note_on_c, 0, 62, 102
6, 130881, Channel_aftertouch_c, 0, 3
6, 130881, Channel_aftertouch_c, 0, 3
6, 130894, Channel_aftertouch_c, 0, 4
6, 130894, Channel_aftertouch_c, 0, 4
6, 130905, Channel_aftertouch_c, 0, 2
6, 130906, Channel_aftertouch_c, 0, 2
6, 130908, Note_on_c, 0, 62, 0
6, 130908, Note_on_c, 0, 66, 0
6, 131016, Note_on_c, 0, 57, 0
6, 131037, Channel_aftertouch_c, 0, 1
6, 131038, Channel_aftertouch_c, 0, 1
6, 131040, Note_on_c, 0, 62, 102
6, 131040, Note_on_c, 0, 66, 127
6, 131040, Note_on_c, 0, 69, 110
6, 131256, Note_on_c, 0, 69, 0
6, 131256, Note_on_c, 0, 66, 0
6, 131256, Note_on_c, 0, 62, 0
6, 131400, Note_on_c, 0, 66, 80
6, 131400, Note_on_c, 0, 62, 80
6, 131448, Note_on_c, 0, 62, 0
6, 131448, Note_on_c, 0, 66, 0
6, 131460, Note_on_c, 0, 67, 80
6, 131460, Note_on_c, 0, 64, 80
6, 131508, Note_on_c, 0, 64, 0
6, 131508, Note_on_c, 0, 67, 0
6, 131520, Note_on_c, 0, 66, 81
6, 131520, Note_on_c, 0, 69, 106
6, 131593, Note_on_c, 0, 69, 0
6, 131598, Note_on_c, 0, 66, 0
6, 131640, Note_on_c, 0, 62, 117
6, 131640, Note_on_c, 0, 66, 93
6, 131686, Note_on_c, 0, 66, 0
6, 131686, Note_on_c, 0, 62, 0
6, 131700, Note_on_c, 0, 64, 79
6, 131700, Note_on_c, 0, 67, 120
6, 131739, Note_on_c, 0, 64, 0
6, 131740, Note_on_c, 0, 67, 0
6, 131760, Note_on_c, 0, 69, 127
6, 131760, Note_on_c, 0, 66, 91
6, 131817, Note_on_c, 0, 69, 0
6, 131838, Note_on_c, 0, 66, 0
6, 131880, Note_on_c, 0, 69, 77
6, 131880, Note_on_c, 0, 74, 127
6, 131949, Note_on_c, 0, 74, 0
6, 131975, Note_on_c, 0, 69, 0
6, 132000, Note_on_c, 0, 66, 81
6, 132000, Note_on_c, 0, 69, 127
6, 132064, Note_on_c, 0, 69, 0
6, 132072, Note_on_c, 0, 66, 0
6, 132120, Note_on_c, 0, 69, 106
6, 132120, Note_on_c, 0, 62, 86
6, 132162, Note_on_c, 0, 69, 0
6, 132180, Note_on_c, 0, 67, 117
6, 132194, Note_on_c, 0, 62, 0
6, 132234, Note_on_c, 0, 67, 0
6, 132240, Note_on_c, 0, 62, 77
6, 132240, Note_on_c, 0, 66, 98
6, 132310, Note_on_c, 0, 66, 0
6, 132360, Note_on_c, 0, 64, 127
6, 132409, Note_on_c, 0, 64, 0
6, 132420, Note_on_c, 0, 62, 96
6, 132456, Note_on_c, 0, 62, 0
6, 132466, Note_on_c, 0, 62, 0
6, 132480, Note_on_c, 0, 67, 102
6, 132531, Note_on_c, 0, 67, 0
6, 132540, Note_on_c, 0, 69, 96
6, 132584, Note_on_c, 0, 69, 0
6, 132600, Note_on_c, 0, 71, 110
6, 132654, Note_on_c, 0, 71, 0
6, 132660, Note_on_c, 0, 67, 102
6, 132710, Note_on_c, 0, 67, 0
6, 132720, Note_on_c, 0, 66, 98
6, 132770, Note_on_c, 0, 66, 0
6, 132780, Note_on_c, 0, 67, 90
6, 132836, Note_on_c, 0, 67, 0
6, 132840, Note_on_c, 0, 69, 110
6, 132888, Note_on_c, 0, 69, 0
6, 132900, Note_on_c, 0, 66, 75
6, 132948, Note_on_c, 0, 66, 0
6, 132960, Note_on_c, 0, 64, 110
6, 133011, Note_on_c, 0, 64, 0
6, 133020, Note_on_c, 0, 67, 88
6, 133068, Note_on_c, 0, 67, 0
6, 133080, Note_on_c, 0, 69, 96
6, 133136, Note_on_c, 0, 69, 0
6, 133140, Note_on_c, 0, 73, 102
6, 133177, Note_on_c, 0, 73, 0
6, 133200, Note_on_c, 0, 76, 82
6, 133252, Note_on_c, 0, 76, 0
6, 133260, Note_on_c, 0, 73, 110
6, 133306, Note_on_c, 0, 73, 0
6, 133320, Note_on_c, 0, 71, 88
6, 133372, Note_on_c, 0, 71, 0
6, 133380, Note_on_c, 0, 69, 96
6, 133424, Note_on_c, 0, 69, 0
6, 133440, Note_on_c, 0, 67, 102
6, 133494, Note_on_c, 0, 67, 0
6, 133500, Note_on_c, 0, 69, 98
6, 133551, Note_on_c, 0, 69, 0
6, 133560, Note_on_c, 0, 73, 102
6, 133614, Note_on_c, 0, 73, 0
6, 133620, Note_on_c, 0, 76, 102
6, 133662, Note_on_c, 0, 76, 0
6, 133680, Note_on_c, 0, 79, 96
6, 133736, Note_on_c, 0, 79, 0
6, 133740, Note_on_c, 0, 78, 117
6, 133796, Note_on_c, 0, 78, 0
6, 133800, Note_on_c, 0, 76, 110
6, 133851, Note_on_c, 0, 76, 0
6, 133860, Note_on_c, 0, 74, 96
6, 133912, Note_on_c, 0, 74, 0
6, 133920, Note_on_c, 0, 73, 102
6, 133972, Note_on_c, 0, 73, 0
6, 133980, Note_on_c, 0, 74, 85
6, 134030, Note_on_c, 0, 74, 0
6, 134040, Note_on_c, 0, 76, 117
6, 134089, Note_on_c, 0, 76, 0
6, 134100, Note_on_c, 0, 73, 88
6, 134154, Note_on_c, 0, 73, 0
6, 134160, Note_on_c, 0, 69, 85
6, 134208, Note_on_c, 0, 69, 0
6, 134220, Note_on_c, 0, 73, 85
6, 134277, Note_on_c, 0, 73, 0
6, 134280, Note_on_c, 0, 71, 96
6, 134328, Note_on_c, 0, 71, 0
6, 134340, Note_on_c, 0, 69, 90
6, 134393, Note_on_c, 0, 69, 0
6, 134400, Note_on_c, 0, 79, 90
6, 134450, Note_on_c, 0, 79, 0
6, 134460, Note_on_c, 0, 78, 79
6, 134510, Note_on_c, 0, 78, 0
6, 134520, Note_on_c, 0, 76, 82
6, 134566, Note_on_c, 0, 76, 0
6, 134580, Note_on_c, 0, 74, 102
6, 134630, Note_on_c, 0, 74, 0
6, 134640, Note_on_c, 0, 73, 75
6, 134692, Note_on_c, 0, 73, 0
6, 134700, Note_on_c, 0, 74, 75
6, 134750, Note_on_c, 0, 74, 0
6, 134760, Note_on_c, 0, 76, 90
6, 134815, Note_on_c, 0, 76, 0
6, 134820, Note_on_c, 0, 73, 88
6, 134872, Note_on_c, 0, 73, 0
6, 134880, Note_on_c, 0, 69, 70
6, 134926, Note_on_c, 0, 69, 0
6, 134940, Note_on_c, 0, 73, 102
6, 134994, Note_on_c, 0, 73, 0
6, 135000, Note_on_c, 0, 71, 90
6, 135048, Note_on_c, 0, 71, 0
6, 135060, Note_on_c, 0, 69, 79
6, 135108, Note_on_c, 0, 69, 0
6, 135120, Note_on_c, 0, 79, 90
6, 135173, Note_on_c, 0, 79, 0
6, 135180, Note_on_c, 0, 78, 82
6, 135226, Note_on_c, 0, 78, 0
6, 135240, Note_on_c, 0, 76, 85
6, 135285, Note_on_c, 0, 76, 0
6, 135300, Note_on_c, 0, 74, 106
6, 135346, Note_on_c, 0, 74, 0
6, 135360, Note_on_c, 0, 73, 85
6, 135404, Note_on_c, 0, 73, 0
6, 135420, Note_on_c, 0, 74, 90
6, 135466, Note_on_c, 0, 74, 0
6, 135480, Note_on_c, 0, 76, 82
6, 135526, Note_on_c, 0, 76, 0
6, 135540, Note_on_c, 0, 73, 82
6, 135575, Note_on_c, 0, 73, 0
6, 135600, Note_on_c, 0, 69, 85
6, 135676, Note_on_c, 0, 69, 0
6, 135720, Note_on_c, 0, 69, 74
6, 135720, Note_on_c, 0, 73, 120
6, 135753, Note_on_c, 0, 73, 0
6, 135780, Note_on_c, 0, 69, 0
6, 135780, Note_on_c, 0, 71, 79
6, 135780, Note_on_c, 0, 74, 117
6, 135818, Note_on_c, 0, 74, 0
6, 135825, Note_on_c, 0, 71, 0
6, 135840, Note_on_c, 0, 73, 86
6, 135840, Note_on_c, 0, 76, 117
6, 135908, Note_on_c, 0, 76, 0
6, 135914, Note_on_c, 0, 73, 0
6, 135960, Note_on_c, 0, 73, 110
6, 135960, Note_on_c, 0, 69, 96
6, 135998, Note_on_c, 0, 73, 0
6, 136014, Note_on_c, 0, 69, 0
6, 136020, Note_on_c, 0, 71, 77
6, 136020, Note_on_c, 0, 74, 113
6, 136053, Note_on_c, 0, 74, 0
6, 136065, Note_on_c, 0, 71, 0
6, 136080, Note_on_c, 0, 73, 89
6, 136080, Note_on_c, 0, 76, 127
6, 136135, Note_on_c, 0, 76, 0
6, 136153, Note_on_c, 0, 73, 0
6, 136200, Note_on_c, 0, 81, 127
6, 136200, Note_on_c, 0, 76, 102
6, 136269, Note_on_c, 0, 81, 0
6, 136282, Note_on_c, 0, 76, 0
6, 136320, Note_on_c, 0, 73, 81
6, 136320, Note_on_c, 0, 76, 102
6, 136384, Note_on_c, 0, 76, 0
6, 136398, Note_on_c, 0, 73, 0
6, 136440, Note_on_c, 0, 76, 88
6, 136440, Note_on_c, 0, 69, 93
6, 136482, Note_on_c, 0, 76, 0
6, 136500, Note_on_c, 0, 74, 85
6, 136514, Note_on_c, 0, 69, 0
6, 136542, Note_on_c, 0, 74, 0
6, 136560, Note_on_c, 0, 69, 89
6, 136560, Note_on_c, 0, 73, 120
6, 136635, Note_on_c, 0, 73, 0
6, 136680, Note_on_c, 0, 71, 88
6, 136719, Note_on_c, 0, 71, 0
6, 136740, Note_on_c, 0, 69, 75
6, 136782, Note_on_c, 0, 69, 0
6, 136800, Note_on_c, 0, 76, 96
6, 136846, Note_on_c, 0, 76, 0
6, 136860, Note_on_c, 0, 81, 110
6, 136904, Note_on_c, 0, 81, 0
6, 136920, Note_on_c, 0, 76, 90
6, 136969, Note_on_c, 0, 76, 0
6, 136980, Note_on_c, 0, 74, 90
6, 136992, Note_on_c, 0, 69, 0
6, 137022, Note_on_c, 0, 74, 0
6, 137040, Note_on_c, 0, 73, 88
6, 137084, Note_on_c, 0, 73, 0
6, 137100, Note_on_c, 0, 76, 85
6, 137150, Note_on_c, 0, 76, 0
6, 137160, Note_on_c, 0, 73, 85
6, 137204, Note_on_c, 0, 73, 0
6, 137220, Note_on_c, 0, 71, 82
6, 137258, Note_on_c, 0, 71, 0
6, 137280, Note_on_c, 0, 69, 82
6, 137330, Note_on_c, 0, 69, 0
6, 137340, Note_on_c, 0, 79, 82
6, 137397, Note_on_c, 0, 79, 0
6, 137400, Note_on_c, 0, 76, 93
6, 137444, Note_on_c, 0, 76, 0
6, 137460, Note_on_c, 0, 74, 82
6, 137504, Note_on_c, 0, 74, 0
6, 137520, Note_on_c, 0, 73, 96
6, 137562, Note_on_c, 0, 73, 0
6, 137580, Note_on_c, 0, 76, 82
6, 137618, Note_on_c, 0, 76, 0
6, 137640, Note_on_c, 0, 73, 102
6, 137682, Note_on_c, 0, 73, 0
6, 137700, Note_on_c, 0, 71, 88
6, 137746, Note_on_c, 0, 71, 0
6, 137760, Note_on_c, 0, 69, 82
6, 137806, Note_on_c, 0, 69, 0
6, 137820, Note_on_c, 0, 78, 102
6, 137869, Note_on_c, 0, 78, 0
6, 137880, Note_on_c, 0, 74, 102
6, 137910, Note_on_c, 0, 74, 0
6, 137940, Note_on_c, 0, 73, 70
6, 137988, Note_on_c, 0, 73, 0
6, 138000, Note_on_c, 0, 71, 79
6, 138049, Note_on_c, 0, 71, 0
6, 138060, Note_on_c, 0, 74, 79
6, 138109, Note_on_c, 0, 74, 0
6, 138120, Note_on_c, 0, 71, 90
6, 138165, Note_on_c, 0, 71, 0
6, 138180, Note_on_c, 0, 69, 79
6, 138211, Note_on_c, 0, 69, 0
6, 138240, Note_on_c, 0, 68, 75
6, 138289, Note_on_c, 0, 68, 0
6, 138300, Note_on_c, 0, 71, 75
6, 138337, Note_on_c, 0, 71, 0
6, 138360, Note_on_c, 0, 74, 82
6, 138408, Note_on_c, 0, 74, 0
6, 138420, Note_on_c, 0, 78, 82
6, 138466, Note_on_c, 0, 78, 0
6, 138480, Note_on_c, 0, 76, 82
6, 138507, Note_on_c, 0, 76, 0
6, 138510, Note_on_c, 0, 78, 82
6, 138535, Note_on_c, 0, 78, 0
6, 138540, Note_on_c, 0, 76, 75
6, 138606, Note_on_c, 0, 76, 0
6, 138660, Note_on_c, 0, 74, 85
6, 138693, Note_on_c, 0, 74, 0
6, 138720, Note_on_c, 0, 73, 75
6, 138766, Note_on_c, 0, 73, 0
6, 138780, Note_on_c, 0, 76, 96
6, 138818, Note_on_c, 0, 76, 0
6, 138840, Note_on_c, 0, 80, 96
6, 138896, Note_on_c, 0, 80, 0
6, 138900, Note_on_c, 0, 81, 88
6, 138948, Note_on_c, 0, 81, 0
6, 138960, Note_on_c, 0, 71, 90
6, 139012, Note_on_c, 0, 71, 0
6, 139020, Note_on_c, 0, 76, 90
6, 139068, Note_on_c, 0, 76, 0
6, 139080, Note_on_c, 0, 80, 82
6, 139132, Note_on_c, 0, 80, 0
6, 139140, Note_on_c, 0, 81, 82
6, 139185, Note_on_c, 0, 81, 0
6, 139200, Note_on_c, 0, 69, 75
6, 139249, Note_on_c, 0, 69, 0
6, 139260, Note_on_c, 0, 81, 82
6, 139311, Note_on_c, 0, 81, 0
6, 139320, Note_on_c, 0, 80, 88
6, 139375, Note_on_c, 0, 80, 0
6, 139380, Note_on_c, 0, 81, 82
6, 139437, Note_on_c, 0, 81, 0
6, 139440, Note_on_c, 0, 71, 66
6, 139493, Note_on_c, 0, 71, 0
6, 139500, Note_on_c, 0, 75, 102
6, 139553, Note_on_c, 0, 75, 0
6, 139560, Note_on_c, 0, 78, 102
6, 139613, Note_on_c, 0, 78, 0
6, 139620, Note_on_c, 0, 81, 85
6, 139670, Note_on_c, 0, 81, 0
6, 139680, Note_on_c, 0, 80, 82
6, 139732, Note_on_c, 0, 80, 0
6, 139740, Note_on_c, 0, 76, 73
6, 139784, Note_on_c, 0, 76, 0
6, 139800, Note_on_c, 0, 71, 82
6, 139831, Note_on_c, 0, 71, 0
6, 139860, Note_on_c, 0, 68, 93
6, 139896, Note_on_c, 0, 68, 0
6, 139920, Note_on_c, 0, 64, 79
6, 139960, Note_on_c, 0, 64, 0
6, 139980, Note_on_c, 0, 71, 82
6, 140018, Note_on_c, 0, 71, 0
6, 140040, Note_on_c, 0, 73, 73
6, 140088, Note_on_c, 0, 73, 0
6, 140100, Note_on_c, 0, 74, 102
6, 140144, Note_on_c, 0, 74, 0
6, 140160, Note_on_c, 0, 76, 93
6, 140174, Channel_aftertouch_c, 0, 12
6, 140175, Channel_aftertouch_c, 0, 12
6, 140187, Channel_aftertouch_c, 0, 6
6, 140187, Channel_aftertouch_c, 0, 6
6, 140199, Note_on_c, 0, 76, 0
6, 140220, Note_on_c, 0, 64, 75
6, 140256, Note_on_c, 0, 64, 0
6, 140280, Note_on_c, 0, 76, 90
6, 140326, Note_on_c, 0, 76, 0
6, 140340, Note_on_c, 0, 64, 90
6, 140378, Note_on_c, 0, 64, 0
6, 140400, Note_on_c, 0, 76, 117
6, 140448, Note_on_c, 0, 76, 0
6, 140460, Note_on_c, 0, 64, 96
6, 140508, Note_on_c, 0, 64, 0
6, 140520, Note_on_c, 0, 76, 110
6, 140570, Note_on_c, 0, 76, 0
6, 140580, Note_on_c, 0, 64, 127
6, 140628, Note_on_c, 0, 64, 0
6, 140640, Note_on_c, 0, 76, 127
6, 140648, Channel_aftertouch_c, 0, 38
6, 140649, Channel_aftertouch_c, 0, 38
6, 140659, Channel_aftertouch_c, 0, 19
6, 140660, Channel_aftertouch_c, 0, 19
6, 140672, Channel_aftertouch_c, 0, 12
6, 140672, Channel_aftertouch_c, 0, 12
6, 140684, Channel_aftertouch_c, 0, 6
6, 140684, Channel_aftertouch_c, 0, 6
6, 140692, Note_on_c, 0, 76, 0
6, 140695, Channel_aftertouch_c, 0, 3
6, 140696, Channel_aftertouch_c, 0, 3
6, 140700, Note_on_c, 0, 73, 102
6, 140754, Note_on_c, 0, 73, 0
6, 140760, Note_on_c, 0, 70, 102
6, 140812, Note_on_c, 0, 70, 0
6, 140820, Note_on_c, 0, 66, 88
6, 140847, Note_on_c, 0, 66, 0
6, 140880, Note_on_c, 0, 66, 88
6, 140935, Note_on_c, 0, 66, 0
6, 140940, Note_on_c, 0, 70, 110
6, 140989, Note_on_c, 0, 70, 0
6, 141000, Note_on_c, 0, 73, 102
6, 141048, Note_on_c, 0, 73, 0
6, 141060, Note_on_c, 0, 76, 102
6, 141105, Note_on_c, 0, 76, 0
6, 141120, Note_on_c, 0, 74, 102
6, 141168, Note_on_c, 0, 74, 0
6, 141180, Note_on_c, 0, 62, 63
6, 141192, Channel_aftertouch_c, 0, 18
6, 141192, Channel_aftertouch_c, 0, 18
6, 141203, Channel_aftertouch_c, 0, 9
6, 141203, Channel_aftertouch_c, 0, 9
6, 141219, Note_on_c, 0, 62, 0
6, 141240, Note_on_c, 0, 74, 90
6, 141288, Note_on_c, 0, 74, 0
6, 141300, Note_on_c, 0, 62, 82
6, 141339, Note_on_c, 0, 62, 0
6, 141360, Note_on_c, 0, 74, 124
6, 141409, Note_on_c, 0, 74, 0
6, 141420, Note_on_c, 0, 62, 102
6, 141462, Note_on_c, 0, 62, 0
6, 141480, Note_on_c, 0, 74, 127
6, 141483, Channel_aftertouch_c, 0, 6
6, 141483, Channel_aftertouch_c, 0, 6
6, 141493, Channel_aftertouch_c, 0, 3
6, 141494, Channel_aftertouch_c, 0, 3
6, 141531, Note_on_c, 0, 74, 0
6, 141540, Note_on_c, 0, 62, 127
6, 141580, Note_on_c, 0, 62, 0
6, 141600, Note_on_c, 0, 74, 127
6, 141657, Note_on_c, 0, 74, 0
6, 141660, Note_on_c, 0, 71, 98
6, 141709, Note_on_c, 0, 71, 0
6, 141720, Note_on_c, 0, 68, 82
6, 141777, Note_on_c, 0, 68, 0
6, 141780, Note_on_c, 0, 64, 79
6, 141806, Note_on_c, 0, 64, 0
6, 141840, Note_on_c, 0, 64, 93
6, 141889, Note_on_c, 0, 64, 0
6, 141900, Note_on_c, 0, 68, 82
6, 141954, Note_on_c, 0, 68, 0
6, 141960, Note_on_c, 0, 71, 96
6, 142014, Note_on_c, 0, 71, 0
6, 142020, Note_on_c, 0, 74, 90
6, 142077, Note_on_c, 0, 74, 0
6, 142080, Note_on_c, 0, 73, 93
6, 142128, Note_on_c, 0, 73, 0
6, 142140, Note_on_c, 0, 61, 70
6, 142182, Note_on_c, 0, 61, 0
6, 142200, Note_on_c, 0, 73, 96
6, 142254, Note_on_c, 0, 73, 0
6, 142260, Note_on_c, 0, 61, 110
6, 142298, Note_on_c, 0, 61, 0
6, 142320, Note_on_c, 0, 73, 110
6, 142364, Note_on_c, 0, 73, 0
6, 142380, Note_on_c, 0, 61, 120
6, 142422, Note_on_c, 0, 61, 0
6, 142440, Note_on_c, 0, 73, 120
6, 142494, Note_on_c, 0, 73, 0
6, 142500, Note_on_c, 0, 73, 82
6, 142538, Note_on_c, 0, 73, 0
6, 142560, Note_on_c, 0, 74, 102
6, 142606, Note_on_c, 0, 74, 0
6, 142620, Note_on_c, 0, 76, 102
6, 142671, Note_on_c, 0, 76, 0
6, 142680, Note_on_c, 0, 78, 102
6, 142718, Note_on_c, 0, 78, 0
6, 142740, Note_on_c, 0, 74, 98
6, 142786, Note_on_c, 0, 74, 0
6, 142800, Note_on_c, 0, 73, 73
6, 142845, Note_on_c, 0, 73, 0
6, 142860, Note_on_c, 0, 74, 110
6, 142908, Note_on_c, 0, 74, 0
6, 142920, Note_on_c, 0, 76, 102
6, 142966, Note_on_c, 0, 76, 0
6, 142980, Note_on_c, 0, 73, 82
6, 143026, Note_on_c, 0, 73, 0
6, 143040, Note_on_c, 0, 71, 117
6, 143088, Note_on_c, 0, 71, 0
6, 143100, Note_on_c, 0, 73, 96
6, 143145, Note_on_c, 0, 73, 0
6, 143160, Note_on_c, 0, 74, 96
6, 143213, Note_on_c, 0, 74, 0
6, 143220, Note_on_c, 0, 71, 98
6, 143262, Note_on_c, 0, 71, 0
6, 143280, Note_on_c, 0, 69, 85
6, 143326, Note_on_c, 0, 69, 0
6, 143340, Note_on_c, 0, 71, 93
6, 143388, Note_on_c, 0, 71, 0
6, 143400, Note_on_c, 0, 73, 73
6, 143442, Note_on_c, 0, 73, 0
6, 143460, Note_on_c, 0, 69, 93
6, 143499, Note_on_c, 0, 69, 0
6, 143520, Note_on_c, 0, 68, 88
6, 143562, Note_on_c, 0, 68, 0
6, 143580, Note_on_c, 0, 69, 85
6, 143628, Note_on_c, 0, 69, 0
6, 143640, Note_on_c, 0, 71, 90
6, 143682, Note_on_c, 0, 71, 0
6, 143700, Note_on_c, 0, 68, 66
6, 143744, Note_on_c, 0, 68, 0
6, 143760, Note_on_c, 0, 62, 90
6, 143798, Note_on_c, 0, 62, 0
6, 143820, Note_on_c, 0, 64, 93
6, 143859, Note_on_c, 0, 64, 0
6, 143880, Note_on_c, 0, 66, 93
6, 143934, Note_on_c, 0, 66, 0
6, 143940, Note_on_c, 0, 62, 117
6, 143982, Note_on_c, 0, 62, 0
6, 144000, Note_on_c, 0, 59, 102
6, 144044, Note_on_c, 0, 59, 0
6, 144060, Note_on_c, 0, 61, 117
6, 144100, Note_on_c, 0, 61, 0
6, 144120, Note_on_c, 0, 62, 110
6, 144162, Note_on_c, 0, 62, 0
6, 144180, Note_on_c, 0, 59, 102
6, 144219, Note_on_c, 0, 59, 0
6, 144240, Note_on_c, 0, 56, 73
6, 144279, Note_on_c, 0, 56, 0
6, 144300, Note_on_c, 0, 57, 110
6, 144348, Note_on_c, 0, 57, 0
6, 144360, Note_on_c, 0, 59, 110
6, 144400, Note_on_c, 0, 59, 0
6, 144420, Note_on_c, 0, 61, 93
6, 144458, Note_on_c, 0, 61, 0
6, 144480, Note_on_c, 0, 62, 93
6, 144529, Note_on_c, 0, 62, 0
6, 144540, Note_on_c, 0, 64, 75
6, 144580, Note_on_c, 0, 64, 0
6, 144600, Note_on_c, 0, 66, 102
6, 144655, Note_on_c, 0, 66, 0
6, 144660, Note_on_c, 0, 68, 88
6, 144705, Note_on_c, 0, 68, 0
6, 144720, Note_on_c, 0, 69, 88
6, 144771, Note_on_c, 0, 69, 0
6, 144780, Note_on_c, 0, 71, 96
6, 144824, Note_on_c, 0, 71, 0
6, 144840, Note_on_c, 0, 73, 110
6, 144890, Note_on_c, 0, 73, 0
6, 144900, Note_on_c, 0, 74, 102
6, 144924, Note_on_c, 0, 74, 0
6, 144930, Note_on_c, 0, 76, 102
6, 144955, Note_on_c, 0, 76, 0
6, 144960, Note_on_c, 0, 73, 117
6, 145061, Note_on_c, 0, 73, 0
6, 145080, Note_on_c, 0, 71, 82
6, 145083, Channel_aftertouch_c, 0, 44
6, 145084, Channel_aftertouch_c, 0, 44
6, 145094, Channel_aftertouch_c, 0, 22
6, 145094, Channel_aftertouch_c, 0, 22
6, 145106, Channel_aftertouch_c, 0, 11
6, 145106, Channel_aftertouch_c, 0, 11
6, 145118, Channel_aftertouch_c, 0, 5
6, 145119, Channel_aftertouch_c, 0, 5
6, 145120, Note_on_c, 0, 71, 0
6, 145140, Note_on_c, 0, 69, 85
6, 145151, Channel_aftertouch_c, 0, 3
6, 145153, Channel_aftertouch_c, 0, 3
6, 145164, Channel_aftertouch_c, 0, 1
6, 145164, Channel_aftertouch_c, 0, 1
6, 145172, Note_on_c, 0, 69, 0
6, 145200, Note_on_c, 0, 71, 120
6, 145210, Channel_aftertouch_c, 0, 12
6, 145211, Channel_aftertouch_c, 0, 12
6, 145223, Channel_aftertouch_c, 0, 6
6, 145223, Channel_aftertouch_c, 0, 6
6, 145235, Channel_aftertouch_c, 0, 3
6, 145235, Channel_aftertouch_c, 0, 3
6, 145269, Channel_aftertouch_c, 0, 12
6, 145269, Channel_aftertouch_c, 0, 12
6, 145281, Channel_aftertouch_c, 0, 9
6, 145281, Channel_aftertouch_c, 0, 9
6, 145290, Note_on_c, 0, 71, 0
6, 145292, Channel_aftertouch_c, 0, 4
6, 145293, Channel_aftertouch_c, 0, 4
6, 145305, Channel_aftertouch_c, 0, 2
6, 145305, Channel_aftertouch_c, 0, 2
6, 145320, Note_on_c, 0, 69, 79
6, 145350, Note_on_c, 0, 69, 0
6, 145380, Note_on_c, 0, 68, 63
6, 145382, Channel_aftertouch_c, 0, 1
6, 145383, Channel_aftertouch_c, 0, 1
6, 145412, Note_on_c, 0, 68, 0
6, 145440, Note_on_c, 0, 69, 75
6, 145491, Note_on_c, 0, 69, 0
6, 145500, Note_on_c, 0, 73, 88
6, 145515, Note_on_c, 0, 73, 0
6, 145530, Note_on_c, 0, 74, 75
6, 145549, Note_on_c, 0, 74, 0
6, 145560, Note_on_c, 0, 76, 110
6, 145598, Note_on_c, 0, 76, 0
6, 145620, Note_on_c, 0, 69, 79
6, 145664, Note_on_c, 0, 69, 0
6, 145680, Note_on_c, 0, 78, 127
6, 145719, Note_on_c, 0, 78, 0
6, 145740, Note_on_c, 0, 69, 75
6, 145780, Note_on_c, 0, 69, 0
6, 145800, Note_on_c, 0, 80, 106
6, 145837, Note_on_c, 0, 80, 0
6, 145860, Note_on_c, 0, 69, 58
6, 145897, Note_on_c, 0, 69, 0
6, 145920, Note_on_c, 0, 81, 96
6, 145970, Note_on_c, 0, 81, 0
6, 145980, Note_on_c, 0, 80, 58
6, 146004, Note_on_c, 0, 80, 0
6, 146010, Note_on_c, 0, 78, 102
6, 146040, Note_on_c, 0, 76, 93
6, 146042, Note_on_c, 0, 78, 0
6, 146090, Note_on_c, 0, 76, 0
6, 146100, Note_on_c, 0, 74, 85
6, 146115, Channel_aftertouch_c, 0, 3
6, 146115, Channel_aftertouch_c, 0, 3
6, 146127, Channel_aftertouch_c, 0, 1
6, 146127, Channel_aftertouch_c, 0, 1
6, 146139, Note_on_c, 0, 74, 0
6, 146160, Note_on_c, 0, 73, 70
6, 146172, Note_on_c, 0, 73, 0
6, 146190, Note_on_c, 0, 74, 117
6, 146220, Note_on_c, 0, 76, 88
6, 146234, Note_on_c, 0, 74, 0
6, 146253, Note_on_c, 0, 76, 0
6, 146280, Note_on_c, 0, 71, 96
6, 146296, Note_on_c, 0, 71, 0
6, 146310, Note_on_c, 0, 73, 102
6, 146329, Note_on_c, 0, 73, 0
6, 146340, Note_on_c, 0, 74, 110
6, 146368, Note_on_c, 0, 74, 0
6, 146400, Note_on_c, 0, 73, 82
6, 146416, Note_on_c, 0, 73, 0
6, 146430, Note_on_c, 0, 71, 75
6, 146448, Note_on_c, 0, 71, 0
6, 146460, Note_on_c, 0, 69, 98
6, 146490, Note_on_c, 0, 69, 0
6, 146520, Note_on_c, 0, 76, 88
6, 146559, Note_on_c, 0, 76, 0
6, 146580, Note_on_c, 0, 73, 88
6, 146605, Note_on_c, 0, 73, 0
6, 146640, Note_on_c, 0, 81, 106
6, 146676, Note_on_c, 0, 81, 0
6, 146700, Note_on_c, 0, 76, 106
6, 146748, Note_on_c, 0, 76, 0
6, 146760, Note_on_c, 0, 73, 96
6, 146798, Note_on_c, 0, 73, 0
6, 146820, Note_on_c, 0, 69, 82
6, 146847, Note_on_c, 0, 69, 0
6, 146880, Note_on_c, 0, 64, 110
6, 146918, Note_on_c, 0, 64, 0
6, 146940, Note_on_c, 0, 69, 85
6, 146964, Note_on_c, 0, 69, 0
6, 146970, Note_on_c, 0, 68, 88
6, 146995, Note_on_c, 0, 68, 0
6, 147000, Note_on_c, 0, 69, 93
6, 147033, Note_on_c, 0, 69, 0
6, 147060, Note_on_c, 0, 64, 79
6, 147087, Note_on_c, 0, 64, 0
6, 147120, Note_on_c, 0, 61, 88
6, 147160, Note_on_c, 0, 61, 0
6, 147180, Note_on_c, 0, 64, 79
6, 147197, Note_on_c, 0, 64, 0
6, 147210, Note_on_c, 0, 62, 75
6, 147234, Note_on_c, 0, 62, 0
6, 147240, Note_on_c, 0, 64, 82
6, 147269, Note_on_c, 0, 64, 0
6, 147300, Note_on_c, 0, 61, 98
6, 147328, Note_on_c, 0, 61, 0
6, 147360, Note_on_c, 0, 57, 88
6, 148128, Note_on_c, 0, 57, 0
6, 148140, Note_on_c, 0, 59, 85
6, 148170, Note_on_c, 0, 61, 127
6, 148177, Note_on_c, 0, 59, 0
6, 148198, Note_on_c, 0, 61, 0
6, 148200, Note_on_c, 0, 62, 102
6, 148229, Note_on_c, 0, 62, 0
6, 148230, Note_on_c, 0, 64, 88
6, 148260, Note_on_c, 0, 64, 0
6, 148260, Note_on_c, 0, 66, 79
6, 148290, Note_on_c, 0, 68, 124
6, 148305, Note_on_c, 0, 66, 0
6, 148306, Note_on_c, 0, 68, 0
6, 148320, Note_on_c, 0, 69, 102
6, 148375, Note_on_c, 0, 69, 0
6, 148380, Note_on_c, 0, 71, 102
6, 148436, Note_on_c, 0, 71, 0
6, 148440, Note_on_c, 0, 73, 102
6, 148497, Note_on_c, 0, 73, 0
6, 148500, Note_on_c, 0, 69, 90
6, 148545, Note_on_c, 0, 69, 0
6, 148560, Note_on_c, 0, 74, 102
6, 148612, Note_on_c, 0, 74, 0
6, 148620, Note_on_c, 0, 71, 96
6, 148658, Note_on_c, 0, 71, 0
6, 148680, Note_on_c, 0, 76, 113
6, 148774, Note_on_c, 0, 76, 0
6, 148800, Note_on_c, 0, 74, 96
6, 148855, Note_on_c, 0, 74, 0
6, 148860, Note_on_c, 0, 73, 96
6, 148898, Note_on_c, 0, 73, 0
6, 148920, Note_on_c, 0, 71, 90
6, 148980, Note_on_c, 0, 69, 82
6, 148981, Note_on_c, 0, 71, 0
6, 149020, Note_on_c, 0, 69, 0
6, 149040, Note_on_c, 0, 73, 88
6, 149096, Note_on_c, 0, 73, 0
6, 149100, Note_on_c, 0, 71, 96
6, 149148, Note_on_c, 0, 71, 0
6, 149160, Note_on_c, 0, 69, 106
6, 149208, Note_on_c, 0, 69, 0
6, 149220, Note_on_c, 0, 68, 88
6, 149257, Note_on_c, 0, 68, 0
6, 149280, Note_on_c, 0, 69, 102
6, 149372, Note_on_c, 0, 69, 0
6, 149400, Note_on_c, 0, 67, 90
6, 149429, Note_on_c, 0, 67, 0
6, 149430, Note_on_c, 0, 66, 70
6, 149455, Note_on_c, 0, 66, 0
6, 149460, Note_on_c, 0, 64, 85
6, 149479, Note_on_c, 0, 64, 0
6, 149490, Note_on_c, 0, 66, 79
6, 149508, Note_on_c, 0, 66, 0
6, 149520, Note_on_c, 0, 67, 90
6, 149546, Note_on_c, 0, 67, 0
6, 149550, Note_on_c, 0, 66, 63
6, 149569, Note_on_c, 0, 66, 0
6, 149580, Note_on_c, 0, 64, 66
6, 149599, Note_on_c, 0, 64, 0
6, 149610, Note_on_c, 0, 62, 85
6, 149627, Note_on_c, 0, 62, 0
6, 149640, Note_on_c, 0, 61, 110
6, 149670, Note_on_c, 0, 59, 79
6, 149673, Note_on_c, 0, 61, 0
6, 149684, Note_on_c, 0, 59, 0
6, 149700, Note_on_c, 0, 57, 106
6, 149714, Note_on_c, 0, 57, 0
6, 149715, Note_on_c, 0, 55, 96
6, 149729, Note_on_c, 0, 55, 0
6, 149730, Note_on_c, 0, 54, 110
6, 149745, Note_on_c, 0, 52, 85
6, 149757, Note_on_c, 0, 54, 0
6, 149759, Note_on_c, 0, 52, 0
6, 149760, Note_on_c, 0, 62, 74
6, 149760, Note_on_c, 0, 66, 51
6, 149760, Note_on_c, 0, 57, 72
6, 149856, Note_on_c, 0, 57, 0
6, 149856, Note_on_c, 0, 66, 0
6, 149856, Note_on_c, 0, 62, 0
6, 150000, Note_on_c, 0, 57, 79
6, 150000, Note_on_c, 0, 54, 64
6, 150000, Note_on_c, 0, 62, 77
6, 150096, Note_on_c, 0, 62, 0
6, 150096, Note_on_c, 0, 54, 0
6, 150096, Note_on_c, 0, 57, 0
6, 150240, Note_on_c, 0, 57, 84
6, 150288, Note_on_c, 0, 57, 0
6, 150300, Note_on_c, 0, 59, 89
6, 150348, Note_on_c, 0, 59, 0
6, 150360, Note_on_c, 0, 60, 72
6, 150408, Note_on_c, 0, 60, 0
6, 150420, Note_on_c, 0, 66, 64
6, 150468, Note_on_c, 0, 66, 0
6, 150480, Note_on_c, 0, 69, 79
6, 150528, Note_on_c, 0, 69, 0
6, 150540, Note_on_c, 0, 66, 84
6, 150588, Note_on_c, 0, 66, 0
6, 150600, Note_on_c, 0, 64, 72
6, 150648, Note_on_c, 0, 64, 0
6, 150660, Note_on_c, 0, 62, 84
6, 150708, Note_on_c, 0, 62, 0
6, 150720, Note_on_c, 0, 60, 96
6, 150753, Note_on_c, 0, 60, 0
6, 150780, Note_on_c, 0, 62, 75
6, 150824, Note_on_c, 0, 62, 0
6, 150840, Note_on_c, 0, 66, 110
6, 150886, Note_on_c, 0, 66, 0
6, 150900, Note_on_c, 0, 69, 110
6, 150946, Note_on_c, 0, 69, 0
6, 150960, Note_on_c, 0, 72, 127
6, 151010, Note_on_c, 0, 72, 0
6, 151020, Note_on_c, 0, 71, 82
6, 151068, Note_on_c, 0, 71, 0
6, 151080, Note_on_c, 0, 69, 90
6, 151130, Note_on_c, 0, 69, 0
6, 151140, Note_on_c, 0, 67, 96
6, 151175, Note_on_c, 0, 67, 0
6, 151200, Note_on_c, 0, 66, 102
6, 151250, Note_on_c, 0, 66, 0
6, 151260, Note_on_c, 0, 67, 110
6, 151304, Note_on_c, 0, 67, 0
6, 151320, Note_on_c, 0, 69, 66
6, 151369, Note_on_c, 0, 69, 0
6, 151380, Note_on_c, 0, 66, 93
6, 151430, Note_on_c, 0, 66, 0
6, 151440, Note_on_c, 0, 62, 102
6, 151492, Note_on_c, 0, 62, 0
6, 151500, Note_on_c, 0, 66, 88
6, 151549, Note_on_c, 0, 66, 0
6, 151560, Note_on_c, 0, 64, 90
6, 151599, Note_on_c, 0, 64, 0
6, 151620, Note_on_c, 0, 62, 110
6, 151670, Note_on_c, 0, 62, 0
6, 151680, Note_on_c, 0, 72, 127
6, 151735, Note_on_c, 0, 72, 0
6, 151740, Note_on_c, 0, 71, 93
6, 151785, Note_on_c, 0, 71, 0
6, 151800, Note_on_c, 0, 69, 110
6, 151854, Note_on_c, 0, 69, 0
6, 151860, Note_on_c, 0, 67, 110
6, 151900, Note_on_c, 0, 67, 0
6, 151920, Note_on_c, 0, 66, 110
6, 151969, Note_on_c, 0, 66, 0
6, 151980, Note_on_c, 0, 67, 102
6, 152029, Note_on_c, 0, 67, 0
6, 152040, Note_on_c, 0, 69, 88
6, 152090, Note_on_c, 0, 69, 0
6, 152100, Note_on_c, 0, 66, 102
6, 152146, Note_on_c, 0, 66, 0
6, 152160, Note_on_c, 0, 62, 106
6, 152209, Note_on_c, 0, 62, 0
6, 152220, Note_on_c, 0, 66, 102
6, 152271, Note_on_c, 0, 66, 0
6, 152280, Note_on_c, 0, 64, 82
6, 152325, Note_on_c, 0, 64, 0
6, 152340, Note_on_c, 0, 62, 110
6, 152393, Note_on_c, 0, 62, 0
6, 152400, Note_on_c, 0, 72, 127
6, 152454, Note_on_c, 0, 72, 0
6, 152460, Note_on_c, 0, 71, 88
6, 152506, Note_on_c, 0, 71, 0
6, 152520, Note_on_c, 0, 69, 98
6, 152576, Note_on_c, 0, 69, 0
6, 152580, Note_on_c, 0, 67, 90
6, 152616, Note_on_c, 0, 67, 0
6, 152640, Note_on_c, 0, 66, 98
6, 152691, Note_on_c, 0, 66, 0
6, 152700, Note_on_c, 0, 67, 90
6, 152742, Note_on_c, 0, 67, 0
6, 152760, Note_on_c, 0, 69, 90
6, 152796, Note_on_c, 0, 69, 0
6, 152820, Note_on_c, 0, 66, 102
6, 152848, Note_on_c, 0, 66, 0
6, 152880, Note_on_c, 0, 62, 102
6, 152939, Note_on_c, 0, 62, 0
6, 153000, Note_on_c, 0, 62, 89
6, 153000, Note_on_c, 0, 66, 127
6, 153046, Note_on_c, 0, 66, 0
6, 153046, Note_on_c, 0, 62, 0
6, 153060, Note_on_c, 0, 64, 81
6, 153060, Note_on_c, 0, 67, 106
6, 153095, Note_on_c, 0, 64, 0
6, 153099, Note_on_c, 0, 67, 0
6, 153120, Note_on_c, 0, 66, 105
6, 153120, Note_on_c, 0, 69, 127
6, 153183, Note_on_c, 0, 69, 0
6, 153202, Note_on_c, 0, 66, 0
6, 153240, Note_on_c, 0, 62, 89
6, 153240, Note_on_c, 0, 66, 102
6, 153273, Note_on_c, 0, 66, 0
6, 153276, Note_on_c, 0, 62, 0
6, 153300, Note_on_c, 0, 67, 110
6, 153300, Note_on_c, 0, 64, 96
6, 153329, Note_on_c, 0, 67, 0
6, 153333, Note_on_c, 0, 64, 0
6, 153360, Note_on_c, 0, 69, 127
6, 153360, Note_on_c, 0, 66, 111
6, 153420, Note_on_c, 0, 69, 0
6, 153424, Note_on_c, 0, 66, 0
6, 153480, Note_on_c, 0, 74, 127
6, 153480, Note_on_c, 0, 69, 111
6, 153549, Note_on_c, 0, 69, 0
6, 153552, Note_on_c, 0, 74, 0
6, 153600, Note_on_c, 0, 66, 105
6, 153600, Note_on_c, 0, 69, 127
6, 153668, Note_on_c, 0, 69, 0
6, 153672, Note_on_c, 0, 66, 0
6, 153720, Note_on_c, 0, 62, 89
6, 153720, Note_on_c, 0, 69, 102
6, 153764, Note_on_c, 0, 69, 0
6, 153780, Note_on_c, 0, 67, 106
6, 153792, Note_on_c, 0, 62, 0
6, 153819, Note_on_c, 0, 67, 0
6, 153840, Note_on_c, 0, 66, 110
6, 153840, Note_on_c, 0, 62, 84
6, 153904, Note_on_c, 0, 66, 0
6, 153953, Note_on_c, 0, 62, 0
6, 153960, Note_on_c, 0, 64, 90
6, 153997, Note_on_c, 0, 64, 0
6, 154020, Note_on_c, 0, 62, 85
6, 154058, Note_on_c, 0, 62, 0
6, 154080, Note_on_c, 0, 69, 106
6, 154125, Note_on_c, 0, 69, 0
6, 154140, Note_on_c, 0, 74, 106
6, 154182, Note_on_c, 0, 74, 0
6, 154200, Note_on_c, 0, 69, 82
6, 154244, Note_on_c, 0, 69, 0
6, 154260, Note_on_c, 0, 67, 90
6, 154292, Note_on_c, 0, 67, 0
6, 154320, Note_on_c, 0, 66, 120
6, 154359, Note_on_c, 0, 66, 0
6, 154380, Note_on_c, 0, 69, 96
6, 154419, Note_on_c, 0, 69, 0
6, 154440, Note_on_c, 0, 66, 117
6, 154475, Note_on_c, 0, 66, 0
6, 154500, Note_on_c, 0, 64, 117
6, 154539, Note_on_c, 0, 64, 0
6, 154560, Note_on_c, 0, 62, 110
6, 154610, Note_on_c, 0, 62, 0
6, 154620, Note_on_c, 0, 72, 102
6, 154664, Note_on_c, 0, 72, 0
6, 154680, Note_on_c, 0, 69, 102
6, 154734, Note_on_c, 0, 69, 0
6, 154740, Note_on_c, 0, 67, 88
6, 154786, Note_on_c, 0, 67, 0
6, 154800, Note_on_c, 0, 66, 90
6, 154837, Note_on_c, 0, 66, 0
6, 154860, Note_on_c, 0, 69, 90
6, 154902, Note_on_c, 0, 69, 0
6, 154920, Note_on_c, 0, 66, 73
6, 154952, Note_on_c, 0, 66, 0
6, 154980, Note_on_c, 0, 64, 90
6, 155022, Note_on_c, 0, 64, 0
6, 155040, Note_on_c, 0, 62, 102
6, 155089, Note_on_c, 0, 62, 0
6, 155100, Note_on_c, 0, 71, 96
6, 155144, Note_on_c, 0, 71, 0
6, 155160, Note_on_c, 0, 67, 93
6, 155206, Note_on_c, 0, 67, 0
6, 155220, Note_on_c, 0, 66, 82
6, 155262, Note_on_c, 0, 66, 0
6, 155280, Note_on_c, 0, 64, 75
6, 155320, Note_on_c, 0, 64, 0
6, 155340, Note_on_c, 0, 67, 90
6, 155391, Note_on_c, 0, 67, 0
6, 155400, Note_on_c, 0, 64, 90
6, 155440, Note_on_c, 0, 64, 0
6, 155460, Note_on_c, 0, 62, 73
6, 155493, Note_on_c, 0, 62, 0
6, 155520, Note_on_c, 0, 61, 117
6, 155564, Note_on_c, 0, 61, 0
6, 155580, Note_on_c, 0, 64, 75
6, 155625, Note_on_c, 0, 64, 0
6, 155640, Note_on_c, 0, 67, 102
6, 155669, Note_on_c, 0, 67, 0
6, 155700, Note_on_c, 0, 71, 102
6, 155728, Note_on_c, 0, 71, 0
6, 155760, Note_on_c, 0, 69, 85
6, 155776, Note_on_c, 0, 69, 0
6, 155790, Note_on_c, 0, 71, 102
6, 155805, Note_on_c, 0, 71, 0
6, 155820, Note_on_c, 0, 69, 82
6, 155923, Note_on_c, 0, 69, 0
6, 155940, Note_on_c, 0, 67, 93
6, 155969, Note_on_c, 0, 67, 0
6, 156000, Note_on_c, 0, 66, 75
6, 156051, Note_on_c, 0, 66, 0
6, 156060, Note_on_c, 0, 69, 75
6, 156098, Note_on_c, 0, 69, 0
6, 156120, Note_on_c, 0, 73, 102
6, 156168, Note_on_c, 0, 73, 0
6, 156180, Note_on_c, 0, 74, 106
6, 156226, Note_on_c, 0, 74, 0
6, 156240, Note_on_c, 0, 64, 75
6, 156289, Note_on_c, 0, 64, 0
6, 156300, Note_on_c, 0, 69, 117
6, 156342, Note_on_c, 0, 69, 0
6, 156360, Note_on_c, 0, 73, 110
6, 156408, Note_on_c, 0, 73, 0
6, 156420, Note_on_c, 0, 74, 102
6, 156468, Note_on_c, 0, 74, 0
6, 156480, Note_on_c, 0, 62, 44
6, 156528, Note_on_c, 0, 62, 0
6, 156540, Note_on_c, 0, 69, 96
6, 156589, Note_on_c, 0, 69, 0
6, 156600, Note_on_c, 0, 73, 73
6, 156650, Note_on_c, 0, 73, 0
6, 156660, Note_on_c, 0, 74, 96
6, 156704, Note_on_c, 0, 74, 0
6, 156720, Note_on_c, 0, 64, 85
6, 156773, Note_on_c, 0, 64, 0
6, 156780, Note_on_c, 0, 68, 85
6, 156829, Note_on_c, 0, 68, 0
6, 156840, Note_on_c, 0, 71, 102
6, 156894, Note_on_c, 0, 71, 0
6, 156900, Note_on_c, 0, 74, 96
6, 156937, Note_on_c, 0, 74, 0
6, 156960, Note_on_c, 0, 73, 75
6, 157011, Note_on_c, 0, 73, 0
6, 157020, Note_on_c, 0, 69, 85
6, 157077, Note_on_c, 0, 69, 0
6, 157080, Note_on_c, 0, 64, 75
6, 157117, Note_on_c, 0, 64, 0
6, 157140, Note_on_c, 0, 61, 75
6, 157185, Note_on_c, 0, 61, 0
6, 157200, Note_on_c, 0, 57, 110
6, 157251, Note_on_c, 0, 57, 0
6, 157260, Note_on_c, 0, 76, 104
6, 157306, Note_on_c, 0, 76, 0
6, 157320, Note_on_c, 0, 78, 110
6, 157365, Note_on_c, 0, 78, 0
6, 157380, Note_on_c, 0, 79, 98
6, 157422, Note_on_c, 0, 79, 0
6, 157440, Note_on_c, 0, 81, 88
6, 157484, Note_on_c, 0, 81, 0
6, 157500, Note_on_c, 0, 69, 110
6, 157538, Note_on_c, 0, 69, 0
6, 157560, Note_on_c, 0, 81, 124
6, 157596, Note_on_c, 0, 81, 0
6, 157620, Note_on_c, 0, 69, 96
6, 157657, Note_on_c, 0, 69, 0
6, 157680, Note_on_c, 0, 81, 88
6, 157725, Note_on_c, 0, 81, 0
6, 157740, Note_on_c, 0, 69, 88
6, 157749, Channel_aftertouch_c, 0, 22
6, 157750, Channel_aftertouch_c, 0, 22
6, 157761, Channel_aftertouch_c, 0, 0
6, 157761, Channel_aftertouch_c, 0, 11
6, 157761, Channel_aftertouch_c, 0, 11
6, 157762, Channel_aftertouch_c, 0, 0
6, 157780, Note_on_c, 0, 69, 0
6, 157800, Note_on_c, 0, 81, 127
6, 157810, Channel_aftertouch_c, 0, 12
6, 157810, Channel_aftertouch_c, 0, 12
6, 157822, Channel_aftertouch_c, 0, 6
6, 157822, Channel_aftertouch_c, 0, 6
6, 157837, Note_on_c, 0, 81, 0
6, 157860, Note_on_c, 0, 69, 88
6, 157868, Channel_aftertouch_c, 0, 15
6, 157868, Channel_aftertouch_c, 0, 15
6, 157879, Channel_aftertouch_c, 0, 7
6, 157879, Channel_aftertouch_c, 0, 7
6, 157902, Note_on_c, 0, 69, 0
6, 157920, Note_on_c, 0, 81, 102
6, 157933, Channel_aftertouch_c, 0, 3
6, 157933, Channel_aftertouch_c, 0, 3
6, 157944, Channel_aftertouch_c, 0, 17
6, 157944, Channel_aftertouch_c, 0, 17
6, 157945, Channel_aftertouch_c, 0, 1
6, 157955, Channel_aftertouch_c, 0, 8
6, 157967, Channel_aftertouch_c, 0, 4
6, 157968, Channel_aftertouch_c, 0, 4
6, 157973, Note_on_c, 0, 81, 0
6, 157979, Channel_aftertouch_c, 0, 2
6, 157979, Channel_aftertouch_c, 0, 2
6, 157980, Note_on_c, 0, 78, 120
6, 158025, Note_on_c, 0, 78, 0
6, 158040, Note_on_c, 0, 75, 82
6, 158089, Note_on_c, 0, 75, 0
6, 158100, Note_on_c, 0, 71, 90
6, 158118, Note_on_c, 0, 71, 0
6, 158160, Note_on_c, 0, 71, 113
6, 158215, Note_on_c, 0, 71, 0
6, 158220, Note_on_c, 0, 75, 106
6, 158265, Note_on_c, 0, 75, 0
6, 158280, Note_on_c, 0, 78, 82
6, 158328, Note_on_c, 0, 78, 0
6, 158340, Note_on_c, 0, 81, 93
6, 158380, Note_on_c, 0, 81, 0
6, 158400, Note_on_c, 0, 79, 120
6, 158444, Note_on_c, 0, 79, 0
6, 158460, Note_on_c, 0, 67, 110
6, 158499, Note_on_c, 0, 67, 0
6, 158520, Note_on_c, 0, 79, 124
6, 158559, Note_on_c, 0, 79, 0
6, 158580, Note_on_c, 0, 67, 102
6, 158622, Note_on_c, 0, 67, 0
6, 158640, Note_on_c, 0, 79, 104
6, 158682, Note_on_c, 0, 79, 0
6, 158700, Note_on_c, 0, 67, 102
6, 158740, Note_on_c, 0, 67, 0
6, 158760, Note_on_c, 0, 79, 102
6, 158806, Note_on_c, 0, 79, 0
6, 158820, Note_on_c, 0, 67, 96
6, 158859, Note_on_c, 0, 67, 0
6, 158880, Note_on_c, 0, 79, 117
6, 158888, Channel_aftertouch_c, 0, 25
6, 158888, Channel_aftertouch_c, 0, 25
6, 158899, Channel_aftertouch_c, 0, 12
6, 158899, Channel_aftertouch_c, 0, 12
6, 158911, Channel_aftertouch_c, 0, 6
6, 158911, Channel_aftertouch_c, 0, 6
6, 158922, Channel_aftertouch_c, 0, 3
6, 158922, Channel_aftertouch_c, 0, 3
6, 158932, Note_on_c, 0, 79, 0
6, 158934, Channel_aftertouch_c, 0, 1
6, 158934, Channel_aftertouch_c, 0, 1
6, 158940, Note_on_c, 0, 76, 88
6, 158986, Note_on_c, 0, 76, 0
6, 159000, Note_on_c, 0, 73, 82
6, 159048, Note_on_c, 0, 73, 0
6, 159060, Note_on_c, 0, 69, 82
6, 159077, Note_on_c, 0, 69, 0
6, 159120, Note_on_c, 0, 69, 117
6, 159170, Note_on_c, 0, 69, 0
6, 159180, Note_on_c, 0, 73, 96
6, 159220, Note_on_c, 0, 73, 0
6, 159240, Note_on_c, 0, 76, 90
6, 159290, Note_on_c, 0, 76, 0
6, 159300, Note_on_c, 0, 79, 98
6, 159342, Note_on_c, 0, 79, 0
6, 159360, Note_on_c, 0, 78, 120
6, 159399, Note_on_c, 0, 78, 0
6, 159420, Note_on_c, 0, 66, 96
6, 159455, Note_on_c, 0, 66, 0
6, 159480, Note_on_c, 0, 78, 127
6, 159516, Note_on_c, 0, 78, 0
6, 159540, Note_on_c, 0, 66, 88
6, 159578, Note_on_c, 0, 66, 0
6, 159600, Note_on_c, 0, 78, 127
6, 159639, Note_on_c, 0, 78, 0
6, 159660, Note_on_c, 0, 66, 88
6, 159695, Note_on_c, 0, 66, 0
6, 159720, Note_on_c, 0, 78, 117
6, 159760, Note_on_c, 0, 78, 0
6, 159780, Note_on_c, 0, 78, 127
6, 159816, Note_on_c, 0, 78, 0
6, 159840, Note_on_c, 0, 79, 96
6, 159851, Channel_aftertouch_c, 0, 1
6, 159851, Channel_aftertouch_c, 0, 1
6, 159888, Note_on_c, 0, 79, 0
6, 159900, Note_on_c, 0, 81, 127
6, 159939, Note_on_c, 0, 81, 0
6, 159960, Note_on_c, 0, 83, 120
6, 159998, Note_on_c, 0, 83, 0
6, 160020, Note_on_c, 0, 79, 127
6, 160058, Note_on_c, 0, 79, 0
6, 160080, Note_on_c, 0, 78, 124
6, 160122, Note_on_c, 0, 78, 0
6, 160140, Note_on_c, 0, 79, 110
6, 160179, Note_on_c, 0, 79, 0
6, 160200, Note_on_c, 0, 81, 93
6, 160244, Note_on_c, 0, 81, 0
6, 160260, Note_on_c, 0, 78, 98
6, 160298, Note_on_c, 0, 78, 0
6, 160320, Note_on_c, 0, 76, 102
6, 160364, Note_on_c, 0, 76, 0
6, 160380, Note_on_c, 0, 78, 96
6, 160417, Note_on_c, 0, 78, 0
6, 160440, Note_on_c, 0, 79, 110
6, 160485, Note_on_c, 0, 79, 0
6, 160500, Note_on_c, 0, 76, 96
6, 160535, Note_on_c, 0, 76, 0
6, 160560, Note_on_c, 0, 74, 88
6, 160600, Note_on_c, 0, 74, 0
6, 160620, Note_on_c, 0, 76, 85
6, 160657, Note_on_c, 0, 76, 0
6, 160680, Note_on_c, 0, 78, 106
6, 160717, Note_on_c, 0, 78, 0
6, 160740, Note_on_c, 0, 74, 102
6, 160778, Note_on_c, 0, 74, 0
6, 160800, Note_on_c, 0, 73, 96
6, 160849, Note_on_c, 0, 73, 0
6, 160860, Note_on_c, 0, 74, 106
6, 160900, Note_on_c, 0, 74, 0
6, 160920, Note_on_c, 0, 76, 88
6, 160964, Note_on_c, 0, 76, 0
6, 160980, Note_on_c, 0, 73, 93
6, 161011, Note_on_c, 0, 73, 0
6, 161040, Note_on_c, 0, 67, 127
6, 161072, Note_on_c, 0, 67, 0
6, 161100, Note_on_c, 0, 69, 93
6, 161138, Note_on_c, 0, 69, 0
6, 161160, Note_on_c, 0, 71, 117
6, 161204, Note_on_c, 0, 71, 0
6, 161220, Note_on_c, 0, 67, 102
6, 161252, Note_on_c, 0, 67, 0
6, 161280, Note_on_c, 0, 64, 98
6, 161319, Note_on_c, 0, 64, 0
6, 161340, Note_on_c, 0, 66, 96
6, 161376, Note_on_c, 0, 66, 0
6, 161400, Note_on_c, 0, 67, 85
6, 161438, Note_on_c, 0, 67, 0
6, 161460, Note_on_c, 0, 64, 93
6, 161491, Note_on_c, 0, 64, 0
6, 161520, Note_on_c, 0, 61, 110
6, 161559, Note_on_c, 0, 61, 0
6, 161580, Note_on_c, 0, 62, 85
6, 161622, Note_on_c, 0, 62, 0
6, 161640, Note_on_c, 0, 64, 82
6, 161688, Note_on_c, 0, 64, 0
6, 161700, Note_on_c, 0, 61, 73
6, 161739, Note_on_c, 0, 61, 0
6, 161760, Note_on_c, 0, 57, 75
6, 161809, Note_on_c, 0, 57, 0
6, 161820, Note_on_c, 0, 61, 85
6, 161871, Note_on_c, 0, 61, 0
6, 161880, Note_on_c, 0, 64, 75
6, 161935, Note_on_c, 0, 64, 0
6, 161940, Note_on_c, 0, 67, 88
6, 161965, Note_on_c, 0, 67, 0
6, 162000, Note_on_c, 0, 69, 88
6, 162044, Note_on_c, 0, 69, 0
6, 162060, Note_on_c, 0, 73, 88
6, 162104, Note_on_c, 0, 73, 0
6, 162120, Note_on_c, 0, 76, 90
6, 162174, Note_on_c, 0, 76, 0
6, 162180, Note_on_c, 0, 78, 75
6, 162210, Note_on_c, 0, 78, 0
6, 162210, Note_on_c, 0, 79, 82
6, 162240, Note_on_c, 0, 79, 0
6, 162240, Note_on_c, 0, 78, 120
6, 162339, Note_on_c, 0, 78, 0
6, 162360, Note_on_c, 0, 76, 127
6, 162408, Note_on_c, 0, 76, 0
6, 162420, Note_on_c, 0, 74, 75
6, 162432, Channel_aftertouch_c, 0, 3
6, 162432, Channel_aftertouch_c, 0, 3
6, 162442, Channel_aftertouch_c, 0, 1
6, 162443, Channel_aftertouch_c, 0, 1
6, 162460, Note_on_c, 0, 74, 0
6, 162480, Note_on_c, 0, 76, 117
6, 162557, Note_on_c, 0, 76, 0
6, 162600, Note_on_c, 0, 74, 106
6, 162639, Note_on_c, 0, 74, 0
6, 162660, Note_on_c, 0, 73, 102
6, 162697, Note_on_c, 0, 73, 0
6, 162720, Note_on_c, 0, 74, 113
6, 162772, Note_on_c, 0, 74, 0
6, 162780, Note_on_c, 0, 78, 93
6, 162805, Note_on_c, 0, 78, 0
6, 162810, Note_on_c, 0, 79, 102
6, 162840, Note_on_c, 0, 81, 102
6, 162864, Note_on_c, 0, 79, 0
6, 162888, Note_on_c, 0, 81, 0
6, 162900, Note_on_c, 0, 74, 96
6, 162940, Note_on_c, 0, 74, 0
6, 162960, Note_on_c, 0, 83, 113
6, 163013, Note_on_c, 0, 83, 0
6, 163020, Note_on_c, 0, 74, 75
6, 163069, Note_on_c, 0, 74, 0
6, 163080, Note_on_c, 0, 85, 124
6, 163131, Note_on_c, 0, 85, 0
6, 163140, Note_on_c, 0, 74, 75
6, 163191, Note_on_c, 0, 74, 0
6, 163200, Note_on_c, 0, 86, 85
6, 163255, Note_on_c, 0, 86, 0
6, 163260, Note_on_c, 0, 85, 88
6, 163286, Note_on_c, 0, 85, 0
6, 163290, Note_on_c, 0, 83, 75
6, 163320, Note_on_c, 0, 81, 73
6, 163330, Note_on_c, 0, 83, 0
6, 163356, Note_on_c, 0, 81, 0
6, 163380, Note_on_c, 0, 79, 85
6, 163409, Note_on_c, 0, 79, 0
6, 163440, Note_on_c, 0, 78, 102
6, 163455, Note_on_c, 0, 78, 0
6, 163470, Note_on_c, 0, 79, 117
6, 163500, Note_on_c, 0, 81, 110
6, 163514, Note_on_c, 0, 79, 0
6, 163539, Note_on_c, 0, 81, 0
6, 163560, Note_on_c, 0, 76, 110
6, 163576, Note_on_c, 0, 76, 0
6, 163590, Note_on_c, 0, 78, 106
6, 163608, Note_on_c, 0, 78, 0
6, 163620, Note_on_c, 0, 79, 102
6, 163649, Note_on_c, 0, 79, 0
6, 163680, Note_on_c, 0, 78, 110
6, 163699, Note_on_c, 0, 78, 0
6, 163710, Note_on_c, 0, 76, 85
6, 163728, Note_on_c, 0, 76, 0
6, 163740, Note_on_c, 0, 74, 102
6, 163775, Note_on_c, 0, 74, 0
6, 163800, Note_on_c, 0, 81, 90
6, 163849, Note_on_c, 0, 81, 0
6, 163860, Note_on_c, 0, 78, 102
6, 163910, Note_on_c, 0, 78, 0
6, 163920, Note_on_c, 0, 86, 110
6, 163945, Note_on_c, 0, 86, 0
6, 163980, Note_on_c, 0, 81, 79
6, 164020, Note_on_c, 0, 81, 0
6, 164040, Note_on_c, 0, 78, 44
6, 164073, Note_on_c, 0, 78, 0
6, 164100, Note_on_c, 0, 74, 79
6, 164127, Note_on_c, 0, 74, 0
6, 164160, Note_on_c, 0, 69, 90
6, 164199, Note_on_c, 0, 69, 0
6, 164220, Note_on_c, 0, 74, 102
6, 164247, Note_on_c, 0, 74, 0
6, 164250, Note_on_c, 0, 73, 70
6, 164276, Note_on_c, 0, 73, 0
6, 164280, Note_on_c, 0, 74, 79
6, 164320, Note_on_c, 0, 74, 0
6, 164340, Note_on_c, 0, 69, 96
6, 164369, Note_on_c, 0, 69, 0
6, 164400, Note_on_c, 0, 66, 63
6, 164457, Note_on_c, 0, 66, 0
6, 164460, Note_on_c, 0, 69, 90
6, 164489, Note_on_c, 0, 69, 0
6, 164490, Note_on_c, 0, 67, 102
6, 164519, Note_on_c, 0, 67, 0
6, 164520, Note_on_c, 0, 69, 85
6, 164577, Note_on_c, 0, 69, 0
6, 164580, Note_on_c, 0, 66, 93
6, 164637, Note_on_c, 0, 66, 0
6, 164640, Note_on_c, 0, 62, 117
6, 165408, Note_on_c, 0, 62, 0
6, 165420, Note_on_c, 0, 64, 106
6, 165445, Note_on_c, 0, 64, 0
6, 165450, Note_on_c, 0, 66, 102
6, 165474, Note_on_c, 0, 66, 0
6, 165480, Note_on_c, 0, 67, 127
6, 165499, Note_on_c, 0, 67, 0
6, 165510, Note_on_c, 0, 69, 85
6, 165538, Note_on_c, 0, 69, 0
6, 165540, Note_on_c, 0, 71, 85
6, 165570, Note_on_c, 0, 73, 127
6, 165571, Note_on_c, 0, 71, 0
6, 165589, Note_on_c, 0, 73, 0
6, 165600, Note_on_c, 0, 74, 106
6, 165653, Note_on_c, 0, 74, 0
6, 165660, Note_on_c, 0, 76, 110
6, 165705, Note_on_c, 0, 76, 0
6, 165720, Note_on_c, 0, 78, 117
6, 165775, Note_on_c, 0, 78, 0
6, 165780, Note_on_c, 0, 74, 127
6, 165819, Note_on_c, 0, 74, 0
6, 165840, Note_on_c, 0, 79, 88
6, 165886, Note_on_c, 0, 79, 0
6, 165900, Note_on_c, 0, 76, 102
6, 165945, Note_on_c, 0, 76, 0
6, 165960, Note_on_c, 0, 81, 127
6, 166033, Note_on_c, 0, 81, 0
6, 166080, Note_on_c, 0, 79, 117
6, 166095, Note_on_c, 0, 81, 85
6, 166099, Note_on_c, 0, 79, 0
6, 166110, Note_on_c, 0, 79, 90
6, 166113, Note_on_c, 0, 81, 0
6, 166127, Note_on_c, 0, 79, 0
6, 166140, Note_on_c, 0, 78, 117
6, 166182, Note_on_c, 0, 78, 0
6, 166200, Note_on_c, 0, 76, 110
6, 166237, Note_on_c, 0, 76, 0
6, 166260, Note_on_c, 0, 74, 127
6, 166300, Note_on_c, 0, 74, 0
6, 166320, Note_on_c, 0, 78, 113
6, 166368, Note_on_c, 0, 78, 0
6, 166380, Note_on_c, 0, 76, 110
6, 166428, Note_on_c, 0, 76, 0
6, 166440, Note_on_c, 0, 74, 127
6, 166482, Note_on_c, 0, 74, 0
6, 166500, Note_on_c, 0, 73, 120
6, 166536, Note_on_c, 0, 73, 0
6, 166560, Note_on_c, 0, 74, 107
6, 166590, Note_on_c, 0, 73, 112
6, 166592, Note_on_c, 0, 74, 0
6, 166620, Note_on_c, 0, 74, 90
6, 166622, Note_on_c, 0, 73, 0
6, 166800, Note_on_c, 0, 74, 0
6, 166800, End_track
7, 0, Start_track
7, 0, Program_c, 0, 6
7, 0, Control_c, 0, 7, 115
7, 0, Note_on_c, 0, 50, 80
7, 96, Note_on_c, 0, 50, 0
7, 240, Note_on_c, 0, 38, 80
7, 336, Note_on_c, 0, 38, 0
7, 480, Note_on_c, 0, 50, 80
7, 576, Note_on_c, 0, 50, 0
7, 840, Note_on_c, 0, 38, 80
7, 936, Note_on_c, 0, 38, 0
7, 960, Note_on_c, 0, 50, 86
7, 992, Note_on_c, 0, 50, 0
7, 1020, Note_on_c, 0, 52, 89
7, 1049, Note_on_c, 0, 52, 0
7, 1080, Note_on_c, 0, 54, 111
7, 1106, Note_on_c, 0, 54, 0
7, 1140, Note_on_c, 0, 52, 79
7, 1165, Note_on_c, 0, 52, 0
7, 1200, Note_on_c, 0, 50, 96
7, 1231, Note_on_c, 0, 50, 0
7, 1260, Note_on_c, 0, 52, 84
7, 1288, Note_on_c, 0, 52, 0
7, 1320, Note_on_c, 0, 54, 111
7, 1344, Note_on_c, 0, 54, 0
7, 1380, Note_on_c, 0, 52, 96
7, 1406, Note_on_c, 0, 52, 0
7, 1440, Note_on_c, 0, 50, 74
7, 1469, Note_on_c, 0, 50, 0
7, 1500, Note_on_c, 0, 52, 64
7, 1531, Note_on_c, 0, 52, 0
7, 1560, Note_on_c, 0, 54, 77
7, 1589, Note_on_c, 0, 54, 0
7, 1620, Note_on_c, 0, 52, 79
7, 1644, Note_on_c, 0, 52, 0
7, 1680, Note_on_c, 0, 50, 99
7, 1717, Note_on_c, 0, 50, 0
7, 1800, Note_on_c, 0, 49, 102
7, 1857, Note_on_c, 0, 49, 0
7, 1920, Note_on_c, 0, 47, 102
7, 1972, Note_on_c, 0, 47, 0
7, 2040, Note_on_c, 0, 49, 124
7, 2097, Note_on_c, 0, 49, 0
7, 2160, Note_on_c, 0, 50, 89
7, 2228, Note_on_c, 0, 50, 0
7, 2280, Note_on_c, 0, 38, 99
7, 2283, Channel_aftertouch_c, 0, 3
7, 2294, Channel_aftertouch_c, 0, 1
7, 2344, Note_on_c, 0, 38, 0
7, 2400, Note_on_c, 0, 45, 77
7, 2616, Note_on_c, 0, 45, 0
7, 2880, Note_on_c, 0, 42, 111
7, 2887, Channel_aftertouch_c, 0, 15
7, 2899, Channel_aftertouch_c, 0, 7
7, 2911, Channel_aftertouch_c, 0, 3
7, 2918, Note_on_c, 0, 42, 0
7, 2940, Note_on_c, 0, 43, 93
7, 2947, Channel_aftertouch_c, 0, 9
7, 2960, Channel_aftertouch_c, 0, 4
7, 2972, Channel_aftertouch_c, 0, 2
7, 2973, Note_on_c, 0, 43, 0
7, 3000, Note_on_c, 0, 45, 99
7, 3037, Note_on_c, 0, 45, 0
7, 3060, Note_on_c, 0, 47, 108
7, 3092, Note_on_c, 0, 47, 0
7, 3120, Note_on_c, 0, 49, 102
7, 3131, Channel_aftertouch_c, 0, 19
7, 3143, Channel_aftertouch_c, 0, 9
7, 3156, Note_on_c, 0, 49, 0
7, 3157, Channel_aftertouch_c, 0, 1
7, 3180, Note_on_c, 0, 50, 84
7, 3215, Note_on_c, 0, 50, 0
7, 3240, Note_on_c, 0, 52, 89
7, 3271, Note_on_c, 0, 52, 0
7, 3300, Note_on_c, 0, 54, 96
7, 3327, Note_on_c, 0, 54, 0
7, 3360, Note_on_c, 0, 47, 111
7, 3371, Channel_aftertouch_c, 0, 9
7, 3373, Channel_aftertouch_c, 0, 6
7, 3383, Channel_aftertouch_c, 0, 4
7, 3395, Channel_aftertouch_c, 0, 2
7, 3397, Channel_aftertouch_c, 0, 1
7, 3407, Channel_aftertouch_c, 0, 1
7, 3420, Note_on_c, 0, 51, 127
7, 3421, Note_on_c, 0, 47, 0
7, 3473, Note_on_c, 0, 51, 0
7, 3480, Note_on_c, 0, 54, 102
7, 3518, Note_on_c, 0, 54, 0
7, 3540, Note_on_c, 0, 59, 72
7, 3552, Note_on_c, 0, 59, 0
7, 3600, Note_on_c, 0, 59, 124
7, 3654, Note_on_c, 0, 59, 0
7, 3660, Note_on_c, 0, 54, 77
7, 3686, Note_on_c, 0, 54, 0
7, 3720, Note_on_c, 0, 51, 84
7, 3753, Note_on_c, 0, 51, 0
7, 3780, Note_on_c, 0, 47, 79
7, 3808, Note_on_c, 0, 47, 0
7, 3840, Note_on_c, 0, 40, 79
7, 3884, Note_on_c, 0, 40, 0
7, 3900, Note_on_c, 0, 42, 120
7, 3933, Note_on_c, 0, 42, 0
7, 3960, Note_on_c, 0, 43, 93
7, 3993, Note_on_c, 0, 43, 0
7, 4020, Note_on_c, 0, 45, 93
7, 4052, Note_on_c, 0, 45, 0
7, 4080, Note_on_c, 0, 47, 84
7, 4111, Note_on_c, 0, 47, 0
7, 4140, Note_on_c, 0, 49, 93
7, 4179, Note_on_c, 0, 49, 0
7, 4200, Note_on_c, 0, 50, 81
7, 4254, Note_on_c, 0, 50, 0
7, 4260, Note_on_c, 0, 52, 84
7, 4290, Note_on_c, 0, 52, 0
7, 4320, Note_on_c, 0, 45, 117
7, 4373, Note_on_c, 0, 45, 0
7, 4380, Note_on_c, 0, 49, 123
7, 4411, Note_on_c, 0, 49, 0
7, 4440, Note_on_c, 0, 52, 84
7, 4476, Note_on_c, 0, 52, 0
7, 4500, Note_on_c, 0, 57, 96
7, 4532, Note_on_c, 0, 57, 0
7, 4560, Note_on_c, 0, 57, 96
7, 4593, Note_on_c, 0, 57, 0
7, 4620, Note_on_c, 0, 52, 74
7, 4647, Note_on_c, 0, 52, 0
7, 4680, Note_on_c, 0, 49, 66
7, 4708, Note_on_c, 0, 49, 0
7, 4740, Note_on_c, 0, 45, 93
7, 4769, Note_on_c, 0, 45, 0
7, 4800, Note_on_c, 0, 38, 99
7, 4840, Note_on_c, 0, 38, 0
7, 4860, Note_on_c, 0, 40, 84
7, 4902, Note_on_c, 0, 40, 0
7, 4920, Note_on_c, 0, 42, 126
7, 4949, Note_on_c, 0, 42, 0
7, 4980, Note_on_c, 0, 43, 99
7, 5015, Note_on_c, 0, 43, 0
7, 5040, Note_on_c, 0, 45, 93
7, 5072, Note_on_c, 0, 45, 0
7, 5100, Note_on_c, 0, 47, 84
7, 5136, Note_on_c, 0, 47, 0
7, 5160, Note_on_c, 0, 49, 114
7, 5202, Note_on_c, 0, 49, 0
7, 5220, Note_on_c, 0, 50, 102
7, 5232, Channel_aftertouch_c, 0, 1
7, 5247, Note_on_c, 0, 50, 0
7, 5280, Note_on_c, 0, 47, 108
7, 5339, Note_on_c, 0, 47, 0
7, 5400, Note_on_c, 0, 59, 127
7, 5542, Note_on_c, 0, 59, 0
7, 5640, Note_on_c, 0, 57, 127
7, 5696, Note_on_c, 0, 57, 0
7, 5760, Note_on_c, 0, 43, 127
7, 5806, Note_on_c, 0, 43, 0
7, 5880, Note_on_c, 0, 55, 127
7, 6051, Note_on_c, 0, 55, 0
7, 6120, Note_on_c, 0, 54, 125
7, 6177, Note_on_c, 0, 54, 0
7, 6240, Note_on_c, 0, 40, 124
7, 6286, Note_on_c, 0, 40, 0
7, 6360, Note_on_c, 0, 52, 117
7, 6549, Note_on_c, 0, 52, 0
7, 6600, Note_on_c, 0, 50, 111
7, 6661, Note_on_c, 0, 50, 0
7, 6720, Note_on_c, 0, 49, 123
7, 6780, Note_on_c, 0, 49, 0
7, 6840, Note_on_c, 0, 52, 93
7, 6913, Note_on_c, 0, 52, 0
7, 6960, Note_on_c, 0, 57, 84
7, 7029, Note_on_c, 0, 57, 0
7, 7080, Note_on_c, 0, 52, 89
7, 7118, Note_on_c, 0, 52, 0
7, 7200, Note_on_c, 0, 49, 127
7, 7254, Note_on_c, 0, 49, 0
7, 7260, Note_on_c, 0, 50, 74
7, 7279, Note_on_c, 0, 50, 0
7, 7320, Note_on_c, 0, 52, 91
7, 7349, Note_on_c, 0, 52, 0
7, 7380, Note_on_c, 0, 49, 127
7, 7392, Note_on_c, 0, 49, 0
7, 7440, Note_on_c, 0, 45, 89
7, 7479, Note_on_c, 0, 45, 0
7, 7500, Note_on_c, 0, 47, 86
7, 7535, Note_on_c, 0, 47, 0
7, 7560, Note_on_c, 0, 49, 117
7, 7589, Note_on_c, 0, 49, 0
7, 7620, Note_on_c, 0, 45, 72
7, 7651, Note_on_c, 0, 45, 0
7, 7680, Note_on_c, 0, 50, 77
7, 7744, Note_on_c, 0, 50, 0
7, 7800, Note_on_c, 0, 54, 84
7, 7874, Note_on_c, 0, 54, 0
7, 7920, Note_on_c, 0, 55, 84
7, 7993, Note_on_c, 0, 55, 0
7, 8040, Note_on_c, 0, 57, 108
7, 8112, Note_on_c, 0, 57, 0
7, 8160, Note_on_c, 0, 59, 108
7, 8215, Note_on_c, 0, 59, 0
7, 8280, Note_on_c, 0, 42, 126
7, 8317, Note_on_c, 0, 42, 0
7, 8340, Note_on_c, 0, 54, 111
7, 8371, Note_on_c, 0, 54, 0
7, 8400, Note_on_c, 0, 43, 105
7, 8436, Note_on_c, 0, 43, 0
7, 8460, Note_on_c, 0, 55, 86
7, 8492, Note_on_c, 0, 55, 0
7, 8520, Note_on_c, 0, 45, 64
7, 8557, Note_on_c, 0, 45, 0
7, 8580, Note_on_c, 0, 57, 89
7, 8611, Note_on_c, 0, 57, 0
7, 8640, Note_on_c, 0, 47, 86
7, 8675, Note_on_c, 0, 47, 0
7, 8700, Note_on_c, 0, 59, 77
7, 8718, Note_on_c, 0, 59, 0
7, 8760, Note_on_c, 0, 42, 126
7, 8797, Note_on_c, 0, 42, 0
7, 8820, Note_on_c, 0, 54, 86
7, 8853, Note_on_c, 0, 54, 0
7, 8880, Note_on_c, 0, 43, 108
7, 8916, Note_on_c, 0, 43, 0
7, 8940, Note_on_c, 0, 55, 74
7, 8977, Note_on_c, 0, 55, 0
7, 9000, Note_on_c, 0, 45, 74
7, 9044, Note_on_c, 0, 45, 0
7, 9060, Note_on_c, 0, 57, 81
7, 9095, Note_on_c, 0, 57, 0
7, 9120, Note_on_c, 0, 47, 79
7, 9158, Note_on_c, 0, 47, 0
7, 9180, Note_on_c, 0, 59, 69
7, 9209, Note_on_c, 0, 59, 0
7, 9240, Note_on_c, 0, 45, 102
7, 9278, Note_on_c, 0, 45, 0
7, 9300, Note_on_c, 0, 57, 84
7, 9331, Note_on_c, 0, 57, 0
7, 9360, Note_on_c, 0, 47, 96
7, 9400, Note_on_c, 0, 47, 0
7, 9420, Note_on_c, 0, 59, 84
7, 9451, Note_on_c, 0, 59, 0
7, 9480, Note_on_c, 0, 49, 99
7, 9518, Note_on_c, 0, 49, 0
7, 9540, Note_on_c, 0, 61, 72
7, 9559, Note_on_c, 0, 61, 0
7, 9600, Note_on_c, 0, 50, 111
7, 9672, Note_on_c, 0, 50, 0
7, 9720, Note_on_c, 0, 47, 77
7, 9793, Note_on_c, 0, 47, 0
7, 9840, Note_on_c, 0, 43, 108
7, 9849, Channel_aftertouch_c, 0, 6
7, 9861, Channel_aftertouch_c, 0, 3
7, 9921, Note_on_c, 0, 43, 0
7, 9960, Note_on_c, 0, 45, 74
7, 10029, Note_on_c, 0, 45, 0
7, 10080, Note_on_c, 0, 38, 124
7, 10207, Note_on_c, 0, 38, 0
7, 10380, Note_on_c, 0, 61, 96
7, 10410, Note_on_c, 0, 59, 79
7, 10417, Note_on_c, 0, 61, 0
7, 10440, Note_on_c, 0, 57, 74
7, 10442, Note_on_c, 0, 59, 0
7, 10469, Note_on_c, 0, 57, 0
7, 10470, Note_on_c, 0, 55, 77
7, 10494, Note_on_c, 0, 55, 0
7, 10500, Note_on_c, 0, 54, 84
7, 10516, Note_on_c, 0, 54, 0
7, 10530, Note_on_c, 0, 52, 84
7, 10557, Note_on_c, 0, 52, 0
7, 10560, Note_on_c, 0, 50, 81
7, 10687, Note_on_c, 0, 50, 0
7, 11040, Note_on_c, 0, 50, 84
7, 11085, Note_on_c, 0, 50, 0
7, 11100, Note_on_c, 0, 45, 84
7, 11146, Note_on_c, 0, 45, 0
7, 11160, Note_on_c, 0, 50, 72
7, 11202, Note_on_c, 0, 50, 0
7, 11220, Note_on_c, 0, 52, 69
7, 11258, Note_on_c, 0, 52, 0
7, 11280, Note_on_c, 0, 54, 89
7, 11332, Note_on_c, 0, 54, 0
7, 11340, Note_on_c, 0, 50, 79
7, 11392, Note_on_c, 0, 50, 0
7, 11400, Note_on_c, 0, 52, 66
7, 11444, Note_on_c, 0, 52, 0
7, 11460, Note_on_c, 0, 54, 91
7, 11486, Note_on_c, 0, 54, 0
7, 11520, Note_on_c, 0, 55, 111
7, 11615, Note_on_c, 0, 55, 0
7, 11820, Note_on_c, 0, 54, 79
7, 11862, Note_on_c, 0, 54, 0
7, 11880, Note_on_c, 0, 52, 79
7, 11925, Note_on_c, 0, 52, 0
7, 11940, Note_on_c, 0, 50, 79
7, 11992, Note_on_c, 0, 50, 0
7, 12000, Note_on_c, 0, 55, 74
7, 12136, Note_on_c, 0, 55, 0
7, 12360, Note_on_c, 0, 54, 86
7, 12416, Note_on_c, 0, 54, 0
7, 12480, Note_on_c, 0, 52, 72
7, 12536, Note_on_c, 0, 52, 0
7, 12600, Note_on_c, 0, 49, 91
7, 12654, Note_on_c, 0, 49, 0
7, 12720, Note_on_c, 0, 50, 84
7, 12772, Note_on_c, 0, 50, 0
7, 12840, Note_on_c, 0, 38, 123
7, 12899, Note_on_c, 0, 38, 0
7, 12960, Note_on_c, 0, 45, 99
7, 13159, Note_on_c, 0, 45, 0
7, 13440, Note_on_c, 0, 50, 120
7, 13530, Channel_aftertouch_c, 0, 3
7, 13542, Channel_aftertouch_c, 0, 4
7, 13553, Note_on_c, 0, 50, 0
7, 13554, Channel_aftertouch_c, 0, 2
7, 13680, Note_on_c, 0, 38, 96
7, 13746, Channel_aftertouch_c, 0, 1
7, 13793, Note_on_c, 0, 38, 0
7, 13920, Note_on_c, 0, 50, 124
7, 14033, Note_on_c, 0, 50, 0
7, 14280, Note_on_c, 0, 38, 114
7, 14393, Note_on_c, 0, 38, 0
7, 14400, Note_on_c, 0, 50, 89
7, 14454, Note_on_c, 0, 50, 0
7, 14460, Note_on_c, 0, 52, 102
7, 14497, Note_on_c, 0, 52, 0
7, 14520, Note_on_c, 0, 54, 84
7, 14548, Note_on_c, 0, 54, 0
7, 14580, Note_on_c, 0, 52, 81
7, 14609, Note_on_c, 0, 52, 0
7, 14640, Note_on_c, 0, 50, 84
7, 14672, Note_on_c, 0, 50, 0
7, 14700, Note_on_c, 0, 52, 72
7, 14730, Note_on_c, 0, 52, 0
7, 14760, Note_on_c, 0, 54, 102
7, 14787, Note_on_c, 0, 54, 0
7, 14820, Note_on_c, 0, 52, 69
7, 14851, Note_on_c, 0, 52, 0
7, 14880, Note_on_c, 0, 50, 84
7, 14913, Note_on_c, 0, 50, 0
7, 14940, Note_on_c, 0, 52, 79
7, 14971, Note_on_c, 0, 52, 0
7, 15000, Note_on_c, 0, 54, 102
7, 15033, Note_on_c, 0, 54, 0
7, 15060, Note_on_c, 0, 52, 66
7, 15090, Note_on_c, 0, 52, 0
7, 15120, Note_on_c, 0, 50, 69
7, 15176, Note_on_c, 0, 50, 0
7, 15240, Note_on_c, 0, 49, 69
7, 15301, Note_on_c, 0, 49, 0
7, 15360, Note_on_c, 0, 47, 72
7, 15420, Note_on_c, 0, 47, 0
7, 15480, Note_on_c, 0, 49, 81
7, 15540, Note_on_c, 0, 49, 0
7, 15600, Note_on_c, 0, 50, 108
7, 15652, Note_on_c, 0, 50, 0
7, 15720, Note_on_c, 0, 38, 124
7, 15774, Note_on_c, 0, 38, 0
7, 15840, Note_on_c, 0, 45, 86
7, 15953, Note_on_c, 0, 45, 0
7, 16200, Note_on_c, 0, 57, 105
7, 16219, Note_on_c, 0, 57, 0
7, 16320, Note_on_c, 0, 57, 89
7, 16427, Note_on_c, 0, 57, 0
7, 16440, Note_on_c, 0, 45, 77
7, 16547, Note_on_c, 0, 45, 0
7, 16680, Note_on_c, 0, 57, 81
7, 16698, Note_on_c, 0, 57, 0
7, 16800, Note_on_c, 0, 57, 120
7, 16913, Note_on_c, 0, 57, 0
7, 16920, Note_on_c, 0, 45, 81
7, 17044, Note_on_c, 0, 45, 0
7, 17160, Note_on_c, 0, 57, 69
7, 17175, Note_on_c, 0, 57, 0
7, 17280, Note_on_c, 0, 57, 74
7, 17393, Note_on_c, 0, 57, 0
7, 17400, Note_on_c, 0, 45, 64
7, 17519, Note_on_c, 0, 45, 0
7, 17640, Note_on_c, 0, 57, 64
7, 17666, Note_on_c, 0, 57, 0
7, 17760, Note_on_c, 0, 57, 64
7, 17853, Note_on_c, 0, 57, 0
7, 17880, Note_on_c, 0, 45, 66
7, 18015, Note_on_c, 0, 45, 0
7, 18600, Note_on_c, 0, 45, 89
7, 18644, Note_on_c, 0, 45, 0
7, 18720, Note_on_c, 0, 57, 96
7, 18755, Note_on_c, 0, 57, 0
7, 18780, Note_on_c, 0, 59, 74
7, 18811, Note_on_c, 0, 59, 0
7, 18840, Note_on_c, 0, 61, 69
7, 18871, Note_on_c, 0, 61, 0
7, 18900, Note_on_c, 0, 59, 79
7, 18935, Note_on_c, 0, 59, 0
7, 18960, Note_on_c, 0, 57, 66
7, 18996, Note_on_c, 0, 57, 0
7, 19020, Note_on_c, 0, 59, 74
7, 19051, Note_on_c, 0, 59, 0
7, 19080, Note_on_c, 0, 61, 96
7, 19110, Note_on_c, 0, 61, 0
7, 19140, Note_on_c, 0, 59, 79
7, 19175, Note_on_c, 0, 59, 0
7, 19200, Note_on_c, 0, 57, 79
7, 19236, Note_on_c, 0, 57, 0
7, 19260, Note_on_c, 0, 59, 72
7, 19296, Note_on_c, 0, 59, 0
7, 19320, Note_on_c, 0, 61, 79
7, 19366, Note_on_c, 0, 61, 0
7, 19380, Note_on_c, 0, 59, 72
7, 19418, Note_on_c, 0, 59, 0
7, 19440, Note_on_c, 0, 57, 77
7, 19506, Note_on_c, 0, 57, 0
7, 19560, Note_on_c, 0, 45, 102
7, 19620, Note_on_c, 0, 45, 0
7, 19680, Note_on_c, 0, 57, 79
7, 19758, Note_on_c, 0, 57, 0
7, 19800, Note_on_c, 0, 61, 61
7, 19840, Note_on_c, 0, 61, 0
7, 19860, Note_on_c, 0, 59, 72
7, 19913, Note_on_c, 0, 59, 0
7, 19920, Note_on_c, 0, 57, 72
7, 19977, Note_on_c, 0, 57, 0
7, 20040, Note_on_c, 0, 52, 84
7, 20086, Note_on_c, 0, 52, 0
7, 20160, Note_on_c, 0, 57, 89
7, 20234, Note_on_c, 0, 57, 0
7, 20280, Note_on_c, 0, 61, 51
7, 20326, Note_on_c, 0, 61, 0
7, 20340, Note_on_c, 0, 59, 69
7, 20386, Note_on_c, 0, 59, 0
7, 20400, Note_on_c, 0, 57, 72
7, 20457, Note_on_c, 0, 57, 0
7, 20520, Note_on_c, 0, 52, 58
7, 20587, Note_on_c, 0, 52, 0
7, 20640, Note_on_c, 0, 54, 89
7, 20735, Note_on_c, 0, 54, 0
7, 20760, Note_on_c, 0, 59, 77
7, 20799, Note_on_c, 0, 59, 0
7, 20820, Note_on_c, 0, 57, 84
7, 20860, Note_on_c, 0, 57, 0
7, 20880, Note_on_c, 0, 56, 93
7, 20939, Note_on_c, 0, 56, 0
7, 21000, Note_on_c, 0, 54, 77
7, 21057, Note_on_c, 0, 54, 0
7, 21120, Note_on_c, 0, 52, 89
7, 21179, Note_on_c, 0, 52, 0
7, 21240, Note_on_c, 0, 54, 89
7, 21297, Note_on_c, 0, 54, 0
7, 21360, Note_on_c, 0, 56, 81
7, 21480, Note_on_c, 0, 52, 89
7, 21487, Note_on_c, 0, 56, 0
7, 21543, Note_on_c, 0, 52, 0
7, 21600, Note_on_c, 0, 57, 105
7, 21713, Note_on_c, 0, 57, 0
7, 21840, Note_on_c, 0, 56, 127
7, 21953, Note_on_c, 0, 56, 0
7, 22080, Note_on_c, 0, 54, 111
7, 22193, Note_on_c, 0, 54, 0
7, 22320, Note_on_c, 0, 47, 108
7, 22433, Note_on_c, 0, 47, 0
7, 22560, Note_on_c, 0, 52, 102
7, 22673, Note_on_c, 0, 52, 0
7, 22860, Note_on_c, 0, 54, 93
7, 22916, Note_on_c, 0, 54, 0
7, 22920, Note_on_c, 0, 52, 102
7, 22975, Note_on_c, 0, 52, 0
7, 22980, Note_on_c, 0, 50, 81
7, 23037, Note_on_c, 0, 50, 0
7, 23040, Note_on_c, 0, 49, 64
7, 23055, Channel_aftertouch_c, 0, 12
7, 23067, Channel_aftertouch_c, 0, 6
7, 23097, Note_on_c, 0, 49, 0
7, 23100, Note_on_c, 0, 50, 64
7, 23157, Note_on_c, 0, 50, 0
7, 23160, Note_on_c, 0, 52, 84
7, 23213, Note_on_c, 0, 52, 0
7, 23220, Note_on_c, 0, 54, 111
7, 23265, Note_on_c, 0, 54, 0
7, 23280, Note_on_c, 0, 56, 64
7, 23337, Note_on_c, 0, 56, 0
7, 23340, Note_on_c, 0, 57, 102
7, 23386, Note_on_c, 0, 57, 0
7, 23400, Note_on_c, 0, 59, 79
7, 23437, Note_on_c, 0, 59, 0
7, 23460, Note_on_c, 0, 61, 81
7, 23490, Note_on_c, 0, 61, 0
7, 23520, Note_on_c, 0, 54, 93
7, 23529, Channel_aftertouch_c, 0, 38
7, 23540, Channel_aftertouch_c, 0, 19
7, 23552, Channel_aftertouch_c, 0, 12
7, 23564, Channel_aftertouch_c, 0, 6
7, 23576, Channel_aftertouch_c, 0, 3
7, 23580, Note_on_c, 0, 58, 69
7, 23589, Note_on_c, 0, 54, 0
7, 23635, Note_on_c, 0, 58, 0
7, 23640, Note_on_c, 0, 61, 89
7, 23696, Note_on_c, 0, 61, 0
7, 23700, Note_on_c, 0, 64, 77
7, 23726, Note_on_c, 0, 64, 0
7, 23760, Note_on_c, 0, 64, 114
7, 23816, Note_on_c, 0, 64, 0
7, 23820, Note_on_c, 0, 61, 89
7, 23879, Note_on_c, 0, 61, 0
7, 23880, Note_on_c, 0, 58, 58
7, 23937, Note_on_c, 0, 58, 0
7, 23940, Note_on_c, 0, 54, 89
7, 23977, Note_on_c, 0, 54, 0
7, 24000, Note_on_c, 0, 47, 72
7, 24059, Note_on_c, 0, 47, 0
7, 24060, Note_on_c, 0, 49, 111
7, 24072, Channel_aftertouch_c, 0, 18
7, 24083, Channel_aftertouch_c, 0, 9
7, 24117, Note_on_c, 0, 49, 0
7, 24120, Note_on_c, 0, 50, 86
7, 24166, Note_on_c, 0, 50, 0
7, 24180, Note_on_c, 0, 52, 89
7, 24222, Note_on_c, 0, 52, 0
7, 24240, Note_on_c, 0, 54, 61
7, 24295, Note_on_c, 0, 54, 0
7, 24300, Note_on_c, 0, 56, 77
7, 24359, Note_on_c, 0, 56, 0
7, 24360, Note_on_c, 0, 57, 77
7, 24363, Channel_aftertouch_c, 0, 6
7, 24374, Channel_aftertouch_c, 0, 3
7, 24397, Note_on_c, 0, 57, 0
7, 24420, Note_on_c, 0, 59, 69
7, 24476, Note_on_c, 0, 59, 0
7, 24480, Note_on_c, 0, 52, 72
7, 24536, Note_on_c, 0, 52, 0
7, 24540, Note_on_c, 0, 56, 61
7, 24596, Note_on_c, 0, 56, 0
7, 24600, Note_on_c, 0, 59, 74
7, 24654, Note_on_c, 0, 59, 0
7, 24660, Note_on_c, 0, 62, 77
7, 24689, Note_on_c, 0, 62, 0
7, 24720, Note_on_c, 0, 62, 79
7, 24776, Note_on_c, 0, 62, 0
7, 24780, Note_on_c, 0, 59, 66
7, 24836, Note_on_c, 0, 59, 0
7, 24840, Note_on_c, 0, 56, 89
7, 24895, Note_on_c, 0, 56, 0
7, 24900, Note_on_c, 0, 52, 69
7, 24928, Note_on_c, 0, 52, 0
7, 24960, Note_on_c, 0, 45, 81
7, 25017, Note_on_c, 0, 45, 0
7, 25020, Note_on_c, 0, 47, 84
7, 25075, Note_on_c, 0, 47, 0
7, 25080, Note_on_c, 0, 49, 105
7, 25125, Note_on_c, 0, 49, 0
7, 25140, Note_on_c, 0, 50, 74
7, 25194, Note_on_c, 0, 50, 0
7, 25200, Note_on_c, 0, 52, 69
7, 25252, Note_on_c, 0, 52, 0
7, 25260, Note_on_c, 0, 54, 66
7, 25314, Note_on_c, 0, 54, 0
7, 25320, Note_on_c, 0, 56, 81
7, 25396, Note_on_c, 0, 56, 0
7, 25440, Note_on_c, 0, 54, 105
7, 25494, Note_on_c, 0, 54, 0
7, 25560, Note_on_c, 0, 42, 114
7, 25747, Note_on_c, 0, 42, 0
7, 25800, Note_on_c, 0, 40, 111
7, 25877, Note_on_c, 0, 40, 0
7, 25920, Note_on_c, 0, 38, 123
7, 25981, Note_on_c, 0, 38, 0
7, 26040, Note_on_c, 0, 50, 123
7, 26263, Note_on_c, 0, 50, 0
7, 26280, Note_on_c, 0, 49, 96
7, 26343, Note_on_c, 0, 49, 0
7, 26400, Note_on_c, 0, 47, 89
7, 26454, Note_on_c, 0, 47, 0
7, 26520, Note_on_c, 0, 59, 111
7, 26725, Note_on_c, 0, 59, 0
7, 26760, Note_on_c, 0, 57, 120
7, 26815, Note_on_c, 0, 57, 0
7, 26880, Note_on_c, 0, 56, 126
7, 26935, Note_on_c, 0, 56, 0
7, 27000, Note_on_c, 0, 44, 124
7, 27228, Note_on_c, 0, 44, 0
7, 27240, Note_on_c, 0, 56, 123
7, 27282, Note_on_c, 0, 56, 0
7, 27300, Note_on_c, 0, 54, 102
7, 27356, Note_on_c, 0, 54, 0
7, 27360, Note_on_c, 0, 52, 96
7, 27456, Note_on_c, 0, 52, 0
7, 27480, Note_on_c, 0, 40, 96
7, 27573, Note_on_c, 0, 40, 0
7, 27600, Note_on_c, 0, 42, 81
7, 27688, Note_on_c, 0, 42, 0
7, 27720, Note_on_c, 0, 44, 102
7, 27801, Note_on_c, 0, 44, 0
7, 27840, Note_on_c, 0, 45, 86
7, 27940, Note_on_c, 0, 45, 0
7, 27960, Note_on_c, 0, 37, 114
7, 27963, Channel_aftertouch_c, 0, 44
7, 27974, Channel_aftertouch_c, 0, 22
7, 27986, Channel_aftertouch_c, 0, 11
7, 27997, Channel_aftertouch_c, 0, 5
7, 28014, Note_on_c, 0, 37, 0
7, 28020, Note_on_c, 0, 49, 124
7, 28031, Channel_aftertouch_c, 0, 3
7, 28044, Channel_aftertouch_c, 0, 1
7, 28066, Note_on_c, 0, 49, 0
7, 28080, Note_on_c, 0, 38, 102
7, 28090, Channel_aftertouch_c, 0, 12
7, 28103, Channel_aftertouch_c, 0, 6
7, 28115, Channel_aftertouch_c, 0, 3
7, 28137, Note_on_c, 0, 38, 0
7, 28140, Note_on_c, 0, 50, 89
7, 28149, Channel_aftertouch_c, 0, 12
7, 28161, Channel_aftertouch_c, 0, 9
7, 28172, Channel_aftertouch_c, 0, 4
7, 28185, Note_on_c, 0, 50, 0
7, 28185, Channel_aftertouch_c, 0, 2
7, 28200, Note_on_c, 0, 40, 86
7, 28257, Note_on_c, 0, 40, 0
7, 28260, Note_on_c, 0, 52, 77
7, 28262, Channel_aftertouch_c, 0, 1
7, 28305, Note_on_c, 0, 52, 0
7, 28320, Note_on_c, 0, 45, 96
7, 28415, Note_on_c, 0, 45, 0
7, 28440, Note_on_c, 0, 49, 105
7, 28524, Note_on_c, 0, 49, 0
7, 28560, Note_on_c, 0, 50, 102
7, 28640, Note_on_c, 0, 50, 0
7, 28680, Note_on_c, 0, 52, 66
7, 28773, Note_on_c, 0, 52, 0
7, 28800, Note_on_c, 0, 54, 77
7, 28896, Note_on_c, 0, 54, 0
7, 28920, Note_on_c, 0, 49, 81
7, 28995, Channel_aftertouch_c, 0, 3
7, 29006, Note_on_c, 0, 49, 0
7, 29007, Channel_aftertouch_c, 0, 1
7, 29040, Note_on_c, 0, 50, 72
7, 29136, Note_on_c, 0, 50, 0
7, 29160, Note_on_c, 0, 52, 66
7, 29233, Note_on_c, 0, 52, 0
7, 29280, Note_on_c, 0, 45, 96
7, 29392, Note_on_c, 0, 45, 0
7, 29640, Note_on_c, 0, 64, 108
7, 29675, Note_on_c, 0, 64, 0
7, 29700, Note_on_c, 0, 61, 91
7, 29740, Note_on_c, 0, 61, 0
7, 29760, Note_on_c, 0, 57, 84
7, 29849, Note_on_c, 0, 57, 0
7, 29880, Note_on_c, 0, 61, 86
7, 29933, Note_on_c, 0, 61, 0
7, 29940, Note_on_c, 0, 57, 96
7, 29979, Note_on_c, 0, 57, 0
7, 30000, Note_on_c, 0, 52, 84
7, 30113, Note_on_c, 0, 52, 0
7, 30120, Note_on_c, 0, 57, 64
7, 30177, Note_on_c, 0, 57, 0
7, 30180, Note_on_c, 0, 52, 69
7, 30237, Note_on_c, 0, 52, 0
7, 30240, Note_on_c, 0, 49, 64
7, 30265, Note_on_c, 0, 49, 0
7, 30270, Note_on_c, 0, 50, 72
7, 30287, Note_on_c, 0, 50, 0
7, 30300, Note_on_c, 0, 52, 79
7, 30336, Note_on_c, 0, 52, 0
7, 30360, Note_on_c, 0, 45, 89
7, 30492, Note_on_c, 0, 45, 0
7, 30840, Note_on_c, 0, 37, 105
7, 30879, Note_on_c, 0, 37, 0
7, 30900, Note_on_c, 0, 49, 93
7, 30944, Note_on_c, 0, 49, 0
7, 30960, Note_on_c, 0, 38, 102
7, 31012, Note_on_c, 0, 38, 0
7, 31020, Note_on_c, 0, 50, 89
7, 31064, Note_on_c, 0, 50, 0
7, 31080, Note_on_c, 0, 40, 93
7, 31140, Note_on_c, 0, 52, 84
7, 31141, Note_on_c, 0, 40, 0
7, 31179, Note_on_c, 0, 52, 0
7, 31200, Note_on_c, 0, 42, 84
7, 31260, Note_on_c, 0, 54, 84
7, 31266, Note_on_c, 0, 42, 0
7, 31306, Note_on_c, 0, 54, 0
7, 31320, Note_on_c, 0, 40, 89
7, 31380, Note_on_c, 0, 52, 79
7, 31384, Note_on_c, 0, 40, 0
7, 31413, Note_on_c, 0, 52, 0
7, 31440, Note_on_c, 0, 42, 91
7, 31500, Note_on_c, 0, 54, 81
7, 31504, Note_on_c, 0, 42, 0
7, 31537, Note_on_c, 0, 54, 0
7, 31560, Note_on_c, 0, 44, 72
7, 31620, Note_on_c, 0, 56, 66
7, 31646, Note_on_c, 0, 44, 0
7, 31674, Note_on_c, 0, 56, 0
7, 31680, Note_on_c, 0, 45, 93
7, 31758, Note_on_c, 0, 45, 0
7, 31800, Note_on_c, 0, 42, 51
7, 31861, Note_on_c, 0, 42, 0
7, 31920, Note_on_c, 0, 38, 81
7, 32012, Note_on_c, 0, 38, 0
7, 32040, Note_on_c, 0, 40, 77
7, 32128, Note_on_c, 0, 40, 0
7, 32160, Note_on_c, 0, 45, 108
7, 32273, Note_on_c, 0, 45, 0
7, 32640, Note_on_c, 0, 50, 96
7, 32753, Note_on_c, 0, 50, 0
7, 32880, Note_on_c, 0, 38, 89
7, 32993, Note_on_c, 0, 38, 0
7, 33120, Note_on_c, 0, 50, 77
7, 33233, Note_on_c, 0, 50, 0
7, 33360, Note_on_c, 0, 50, 89
7, 33402, Note_on_c, 0, 50, 0
7, 33600, Note_on_c, 0, 50, 102
7, 33706, Note_on_c, 0, 50, 0
7, 33720, Note_on_c, 0, 38, 77
7, 33825, Note_on_c, 0, 38, 0
7, 33960, Note_on_c, 0, 50, 93
7, 33978, Note_on_c, 0, 50, 0
7, 34080, Note_on_c, 0, 50, 96
7, 34172, Note_on_c, 0, 50, 0
7, 34200, Note_on_c, 0, 38, 84
7, 34299, Note_on_c, 0, 38, 0
7, 34440, Note_on_c, 0, 50, 84
7, 34471, Note_on_c, 0, 50, 0
7, 34560, Note_on_c, 0, 50, 84
7, 34663, Note_on_c, 0, 50, 0
7, 34680, Note_on_c, 0, 38, 89
7, 34779, Note_on_c, 0, 38, 0
7, 34920, Note_on_c, 0, 50, 74
7, 34953, Note_on_c, 0, 50, 0
7, 35040, Note_on_c, 0, 50, 64
7, 35128, Note_on_c, 0, 50, 0
7, 35160, Note_on_c, 0, 38, 79
7, 35267, Note_on_c, 0, 38, 0
7, 35880, Note_on_c, 0, 38, 96
7, 35919, Note_on_c, 0, 38, 0
7, 36000, Note_on_c, 0, 50, 89
7, 36042, Note_on_c, 0, 50, 0
7, 36060, Note_on_c, 0, 52, 77
7, 36099, Note_on_c, 0, 52, 0
7, 36120, Note_on_c, 0, 54, 74
7, 36151, Note_on_c, 0, 54, 0
7, 36180, Note_on_c, 0, 52, 102
7, 36213, Note_on_c, 0, 52, 0
7, 36240, Note_on_c, 0, 50, 72
7, 36279, Note_on_c, 0, 50, 0
7, 36300, Note_on_c, 0, 52, 74
7, 36332, Note_on_c, 0, 52, 0
7, 36360, Note_on_c, 0, 54, 84
7, 36393, Note_on_c, 0, 54, 0
7, 36420, Note_on_c, 0, 52, 72
7, 36458, Note_on_c, 0, 52, 0
7, 36480, Note_on_c, 0, 50, 84
7, 36519, Note_on_c, 0, 50, 0
7, 36540, Note_on_c, 0, 52, 72
7, 36579, Note_on_c, 0, 52, 0
7, 36600, Note_on_c, 0, 54, 96
7, 36636, Note_on_c, 0, 54, 0
7, 36660, Note_on_c, 0, 52, 69
7, 36691, Note_on_c, 0, 52, 0
7, 36720, Note_on_c, 0, 50, 84
7, 36798, Note_on_c, 0, 50, 0
7, 36840, Note_on_c, 0, 38, 102
7, 36909, Note_on_c, 0, 38, 0
7, 36960, Note_on_c, 0, 50, 64
7, 37056, Note_on_c, 0, 50, 0
7, 37080, Note_on_c, 0, 54, 89
7, 37120, Note_on_c, 0, 54, 0
7, 37140, Note_on_c, 0, 52, 72
7, 37196, Note_on_c, 0, 52, 0
7, 37200, Note_on_c, 0, 50, 89
7, 37276, Note_on_c, 0, 50, 0
7, 37320, Note_on_c, 0, 45, 89
7, 37384, Note_on_c, 0, 45, 0
7, 37440, Note_on_c, 0, 50, 79
7, 37516, Note_on_c, 0, 50, 0
7, 37560, Note_on_c, 0, 54, 81
7, 37600, Note_on_c, 0, 54, 0
7, 37620, Note_on_c, 0, 52, 69
7, 37660, Note_on_c, 0, 52, 0
7, 37680, Note_on_c, 0, 50, 84
7, 37755, Note_on_c, 0, 50, 0
7, 37800, Note_on_c, 0, 45, 89
7, 37885, Note_on_c, 0, 45, 0
7, 37920, Note_on_c, 0, 47, 66
7, 38014, Note_on_c, 0, 47, 0
7, 38040, Note_on_c, 0, 52, 74
7, 38080, Note_on_c, 0, 52, 0
7, 38100, Note_on_c, 0, 50, 77
7, 38139, Note_on_c, 0, 50, 0
7, 38160, Note_on_c, 0, 49, 89
7, 38240, Note_on_c, 0, 49, 0
7, 38280, Note_on_c, 0, 47, 84
7, 38364, Note_on_c, 0, 47, 0
7, 38400, Note_on_c, 0, 45, 96
7, 38488, Note_on_c, 0, 45, 0
7, 38520, Note_on_c, 0, 47, 69
7, 38577, Note_on_c, 0, 47, 0
7, 38640, Note_on_c, 0, 49, 84
7, 38696, Note_on_c, 0, 49, 0
7, 38760, Note_on_c, 0, 45, 89
7, 38815, Note_on_c, 0, 45, 0
7, 38880, Note_on_c, 0, 50, 108
7, 39096, Note_on_c, 0, 50, 0
7, 39120, Note_on_c, 0, 49, 89
7, 39336, Note_on_c, 0, 49, 0
7, 39360, Note_on_c, 0, 47, 77
7, 39576, Note_on_c, 0, 47, 0
7, 39600, Note_on_c, 0, 52, 84
7, 39816, Note_on_c, 0, 52, 0
7, 39840, Note_on_c, 0, 45, 96
7, 40056, Note_on_c, 0, 45, 0
7, 40140, Note_on_c, 0, 47, 86
7, 40196, Note_on_c, 0, 47, 0
7, 40200, Note_on_c, 0, 45, 93
7, 40246, Note_on_c, 0, 45, 0
7, 40260, Note_on_c, 0, 43, 86
7, 40315, Note_on_c, 0, 43, 0
7, 40320, Note_on_c, 0, 42, 99
7, 40375, Note_on_c, 0, 42, 0
7, 40380, Note_on_c, 0, 43, 86
7, 40435, Note_on_c, 0, 43, 0
7, 40440, Note_on_c, 0, 45, 96
7, 40497, Note_on_c, 0, 45, 0
7, 40500, Note_on_c, 0, 47, 89
7, 40540, Note_on_c, 0, 47, 0
7, 40560, Note_on_c, 0, 49, 89
7, 40605, Note_on_c, 0, 49, 0
7, 40620, Note_on_c, 0, 50, 89
7, 40629, Channel_aftertouch_c, 0, 22
7, 40640, Channel_aftertouch_c, 0, 11
7, 40641, Channel_aftertouch_c, 0, 0
7, 40676, Note_on_c, 0, 50, 0
7, 40680, Note_on_c, 0, 52, 96
7, 40690, Channel_aftertouch_c, 0, 12
7, 40702, Channel_aftertouch_c, 0, 6
7, 40725, Note_on_c, 0, 52, 0
7, 40740, Note_on_c, 0, 54, 74
7, 40748, Channel_aftertouch_c, 0, 15
7, 40758, Channel_aftertouch_c, 0, 7
7, 40796, Note_on_c, 0, 54, 0
7, 40800, Note_on_c, 0, 47, 99
7, 40813, Channel_aftertouch_c, 0, 3
7, 40824, Channel_aftertouch_c, 0, 17
7, 40825, Channel_aftertouch_c, 0, 1
7, 40834, Channel_aftertouch_c, 0, 8
7, 40847, Channel_aftertouch_c, 0, 4
7, 40859, Channel_aftertouch_c, 0, 2
7, 40860, Note_on_c, 0, 51, 79
7, 40864, Note_on_c, 0, 47, 0
7, 40920, Note_on_c, 0, 54, 93
7, 40921, Note_on_c, 0, 51, 0
7, 40980, Note_on_c, 0, 59, 86
7, 40983, Note_on_c, 0, 54, 0
7, 40997, Note_on_c, 0, 59, 0
7, 41040, Note_on_c, 0, 59, 124
7, 41100, Note_on_c, 0, 54, 84
7, 41101, Note_on_c, 0, 59, 0
7, 41159, Note_on_c, 0, 54, 0
7, 41160, Note_on_c, 0, 51, 72
7, 41216, Note_on_c, 0, 51, 0
7, 41220, Note_on_c, 0, 47, 86
7, 41250, Note_on_c, 0, 47, 0
7, 41280, Note_on_c, 0, 40, 111
7, 41337, Note_on_c, 0, 40, 0
7, 41340, Note_on_c, 0, 42, 102
7, 41384, Note_on_c, 0, 42, 0
7, 41400, Note_on_c, 0, 43, 96
7, 41446, Note_on_c, 0, 43, 0
7, 41460, Note_on_c, 0, 45, 89
7, 41496, Note_on_c, 0, 45, 0
7, 41520, Note_on_c, 0, 47, 89
7, 41559, Note_on_c, 0, 47, 0
7, 41580, Note_on_c, 0, 49, 81
7, 41633, Note_on_c, 0, 49, 0
7, 41640, Note_on_c, 0, 50, 79
7, 41695, Note_on_c, 0, 50, 0
7, 41700, Note_on_c, 0, 52, 96
7, 41753, Note_on_c, 0, 52, 0
7, 41760, Note_on_c, 0, 45, 108
7, 41768, Channel_aftertouch_c, 0, 25
7, 41778, Channel_aftertouch_c, 0, 12
7, 41791, Channel_aftertouch_c, 0, 6
7, 41795, Note_on_c, 0, 45, 0
7, 41802, Channel_aftertouch_c, 0, 3
7, 41814, Channel_aftertouch_c, 0, 1
7, 41820, Note_on_c, 0, 49, 72
7, 41864, Note_on_c, 0, 49, 0
7, 41880, Note_on_c, 0, 52, 79
7, 41922, Note_on_c, 0, 52, 0
7, 41940, Note_on_c, 0, 57, 93
7, 41964, Note_on_c, 0, 57, 0
7, 42000, Note_on_c, 0, 57, 102
7, 42060, Note_on_c, 0, 52, 84
7, 42063, Note_on_c, 0, 57, 0
7, 42113, Note_on_c, 0, 52, 0
7, 42120, Note_on_c, 0, 49, 77
7, 42179, Note_on_c, 0, 49, 0
7, 42180, Note_on_c, 0, 45, 89
7, 42209, Note_on_c, 0, 45, 0
7, 42240, Note_on_c, 0, 38, 111
7, 42293, Note_on_c, 0, 38, 0
7, 42300, Note_on_c, 0, 40, 102
7, 42337, Note_on_c, 0, 40, 0
7, 42360, Note_on_c, 0, 42, 91
7, 42393, Note_on_c, 0, 42, 0
7, 42420, Note_on_c, 0, 43, 120
7, 42458, Note_on_c, 0, 43, 0
7, 42480, Note_on_c, 0, 45, 102
7, 42513, Note_on_c, 0, 45, 0
7, 42540, Note_on_c, 0, 47, 96
7, 42569, Note_on_c, 0, 47, 0
7, 42600, Note_on_c, 0, 49, 102
7, 42646, Note_on_c, 0, 49, 0
7, 42660, Note_on_c, 0, 50, 81
7, 42691, Note_on_c, 0, 50, 0
7, 42720, Note_on_c, 0, 47, 89
7, 42731, Channel_aftertouch_c, 0, 1
7, 42779, Note_on_c, 0, 47, 0
7, 42840, Note_on_c, 0, 59, 89
7, 43011, Note_on_c, 0, 59, 0
7, 43080, Note_on_c, 0, 57, 108
7, 43140, Note_on_c, 0, 57, 0
7, 43200, Note_on_c, 0, 55, 123
7, 43260, Note_on_c, 0, 55, 0
7, 43320, Note_on_c, 0, 43, 111
7, 43521, Note_on_c, 0, 43, 0
7, 43560, Note_on_c, 0, 42, 96
7, 43617, Note_on_c, 0, 42, 0
7, 43680, Note_on_c, 0, 40, 93
7, 43726, Note_on_c, 0, 40, 0
7, 43800, Note_on_c, 0, 52, 117
7, 43978, Note_on_c, 0, 52, 0
7, 44040, Note_on_c, 0, 50, 99
7, 44093, Note_on_c, 0, 50, 0
7, 44160, Note_on_c, 0, 49, 77
7, 44202, Note_on_c, 0, 49, 0
7, 44280, Note_on_c, 0, 37, 124
7, 44430, Note_on_c, 0, 37, 0
7, 44520, Note_on_c, 0, 49, 127
7, 44566, Note_on_c, 0, 49, 0
7, 44580, Note_on_c, 0, 47, 77
7, 44617, Note_on_c, 0, 47, 0
7, 44640, Note_on_c, 0, 49, 120
7, 44670, Note_on_c, 0, 49, 0
7, 44700, Note_on_c, 0, 52, 74
7, 44739, Note_on_c, 0, 52, 0
7, 44760, Note_on_c, 0, 57, 81
7, 44819, Note_on_c, 0, 57, 0
7, 44820, Note_on_c, 0, 52, 77
7, 44860, Note_on_c, 0, 52, 0
7, 44880, Note_on_c, 0, 49, 81
7, 44932, Note_on_c, 0, 49, 0
7, 44940, Note_on_c, 0, 52, 84
7, 44997, Note_on_c, 0, 52, 0
7, 45000, Note_on_c, 0, 49, 91
7, 45055, Note_on_c, 0, 49, 0
7, 45060, Note_on_c, 0, 45, 64
7, 45117, Note_on_c, 0, 45, 0
7, 45120, Note_on_c, 0, 50, 86
7, 45201, Note_on_c, 0, 50, 0
7, 45240, Note_on_c, 0, 42, 74
7, 45271, Note_on_c, 0, 42, 0
7, 45300, Note_on_c, 0, 54, 93
7, 45312, Channel_aftertouch_c, 0, 3
7, 45323, Channel_aftertouch_c, 0, 1
7, 45332, Note_on_c, 0, 54, 0
7, 45360, Note_on_c, 0, 43, 105
7, 45396, Note_on_c, 0, 43, 0
7, 45420, Note_on_c, 0, 55, 108
7, 45453, Note_on_c, 0, 55, 0
7, 45480, Note_on_c, 0, 45, 102
7, 45526, Note_on_c, 0, 45, 0
7, 45540, Note_on_c, 0, 57, 79
7, 45576, Note_on_c, 0, 57, 0
7, 45600, Note_on_c, 0, 50, 89
7, 45684, Note_on_c, 0, 50, 0
7, 45720, Note_on_c, 0, 54, 120
7, 45791, Note_on_c, 0, 54, 0
7, 45840, Note_on_c, 0, 55, 91
7, 45911, Note_on_c, 0, 55, 0
7, 45960, Note_on_c, 0, 57, 125
7, 46032, Note_on_c, 0, 57, 0
7, 46080, Note_on_c, 0, 59, 102
7, 46164, Note_on_c, 0, 59, 0
7, 46200, Note_on_c, 0, 54, 91
7, 46285, Note_on_c, 0, 54, 0
7, 46320, Note_on_c, 0, 55, 72
7, 46411, Note_on_c, 0, 55, 0
7, 46440, Note_on_c, 0, 57, 89
7, 46522, Note_on_c, 0, 57, 0
7, 46560, Note_on_c, 0, 50, 81
7, 46658, Note_on_c, 0, 50, 0
7, 46920, Note_on_c, 0, 57, 74
7, 46962, Note_on_c, 0, 57, 0
7, 46980, Note_on_c, 0, 54, 58
7, 47009, Note_on_c, 0, 54, 0
7, 47040, Note_on_c, 0, 50, 58
7, 47119, Note_on_c, 0, 50, 0
7, 47160, Note_on_c, 0, 54, 51
7, 47206, Note_on_c, 0, 54, 0
7, 47220, Note_on_c, 0, 50, 58
7, 47250, Note_on_c, 0, 50, 0
7, 47280, Note_on_c, 0, 45, 69
7, 47353, Note_on_c, 0, 45, 0
7, 47400, Note_on_c, 0, 50, 64
7, 47459, Note_on_c, 0, 50, 0
7, 47460, Note_on_c, 0, 45, 39
7, 47500, Note_on_c, 0, 45, 0
7, 47520, Note_on_c, 0, 42, 84
7, 47544, Note_on_c, 0, 42, 0
7, 47550, Note_on_c, 0, 43, 72
7, 47567, Note_on_c, 0, 43, 0
7, 47580, Note_on_c, 0, 45, 55
7, 47599, Note_on_c, 0, 45, 0
7, 47640, Note_on_c, 0, 38, 74
7, 47777, Note_on_c, 0, 38, 0
7, 48120, Note_on_c, 0, 42, 111
7, 48156, Note_on_c, 0, 42, 0
7, 48180, Note_on_c, 0, 54, 93
7, 48212, Note_on_c, 0, 54, 0
7, 48240, Note_on_c, 0, 43, 86
7, 48276, Note_on_c, 0, 43, 0
7, 48300, Note_on_c, 0, 55, 108
7, 48331, Note_on_c, 0, 55, 0
7, 48360, Note_on_c, 0, 45, 96
7, 48419, Note_on_c, 0, 45, 0
7, 48420, Note_on_c, 0, 57, 74
7, 48456, Note_on_c, 0, 57, 0
7, 48480, Note_on_c, 0, 47, 117
7, 48535, Note_on_c, 0, 47, 0
7, 48540, Note_on_c, 0, 59, 84
7, 48570, Note_on_c, 0, 59, 0
7, 48600, Note_on_c, 0, 45, 81
7, 48656, Note_on_c, 0, 45, 0
7, 48660, Note_on_c, 0, 57, 84
7, 48693, Note_on_c, 0, 57, 0
7, 48720, Note_on_c, 0, 47, 84
7, 48779, Note_on_c, 0, 47, 0
7, 48780, Note_on_c, 0, 59, 79
7, 48808, Note_on_c, 0, 59, 0
7, 48840, Note_on_c, 0, 49, 96
7, 48895, Note_on_c, 0, 49, 0
7, 48900, Note_on_c, 0, 61, 89
7, 48939, Note_on_c, 0, 61, 0
7, 48960, Note_on_c, 0, 50, 117
7, 49028, Note_on_c, 0, 50, 0
7, 49080, Note_on_c, 0, 47, 96
7, 49147, Note_on_c, 0, 47, 0
7, 49200, Note_on_c, 0, 43, 96
7, 49269, Note_on_c, 0, 43, 0
7, 49320, Note_on_c, 0, 45, 79
7, 49379, Note_on_c, 0, 45, 0
7, 49440, Note_on_c, 0, 38, 89
7, 49476, Note_on_c, 0, 38, 0
7, 49560, Note_on_c, 0, 54, 89
7, 49597, Note_on_c, 0, 54, 0
7, 49620, Note_on_c, 0, 52, 72
7, 49652, Note_on_c, 0, 52, 0
7, 49680, Note_on_c, 0, 50, 72
7, 49726, Note_on_c, 0, 50, 0
7, 49740, Note_on_c, 0, 52, 69
7, 49755, Note_on_c, 0, 52, 0
7, 49770, Note_on_c, 0, 50, 69
7, 49786, Note_on_c, 0, 50, 0
7, 49800, Note_on_c, 0, 49, 91
7, 49859, Note_on_c, 0, 49, 0
7, 49860, Note_on_c, 0, 50, 77
7, 49879, Note_on_c, 0, 50, 0
7, 49890, Note_on_c, 0, 49, 77
7, 49908, Note_on_c, 0, 49, 0
7, 49920, Note_on_c, 0, 47, 77
7, 49979, Note_on_c, 0, 47, 0
7, 49980, Note_on_c, 0, 50, 77
7, 50013, Note_on_c, 0, 50, 0
7, 50040, Note_on_c, 0, 54, 102
7, 50168, Note_on_c, 0, 54, 0
7, 50280, Note_on_c, 0, 52, 84
7, 50341, Note_on_c, 0, 52, 0
7, 50400, Note_on_c, 0, 50, 79
7, 50469, Note_on_c, 0, 50, 0
7, 50520, Note_on_c, 0, 49, 81
7, 50586, Note_on_c, 0, 49, 0
7, 50640, Note_on_c, 0, 50, 66
7, 50704, Note_on_c, 0, 50, 0
7, 50760, Note_on_c, 0, 47, 72
7, 50830, Note_on_c, 0, 47, 0
7, 50880, Note_on_c, 0, 45, 69
7, 50919, Note_on_c, 0, 45, 0
7, 50940, Note_on_c, 0, 54, 66
7, 50982, Note_on_c, 0, 54, 0
7, 51000, Note_on_c, 0, 61, 117
7, 51120, Note_on_c, 0, 61, 0
7, 51240, Note_on_c, 0, 59, 74
7, 51317, Note_on_c, 0, 59, 0
7, 51360, Note_on_c, 0, 57, 79
7, 51433, Note_on_c, 0, 57, 0
7, 51480, Note_on_c, 0, 54, 66
7, 51553, Note_on_c, 0, 54, 0
7, 51600, Note_on_c, 0, 57, 79
7, 51674, Note_on_c, 0, 57, 0
7, 51720, Note_on_c, 0, 62, 66
7, 51765, Note_on_c, 0, 62, 0
7, 51840, Note_on_c, 0, 43, 77
7, 51895, Note_on_c, 0, 43, 0
7, 51900, Note_on_c, 0, 50, 84
7, 51932, Note_on_c, 0, 50, 0
7, 51960, Note_on_c, 0, 55, 79
7, 52176, Note_on_c, 0, 55, 0
7, 52200, Note_on_c, 0, 54, 66
7, 52264, Note_on_c, 0, 54, 0
7, 52320, Note_on_c, 0, 52, 84
7, 52390, Note_on_c, 0, 52, 0
7, 52440, Note_on_c, 0, 50, 66
7, 52515, Note_on_c, 0, 50, 0
7, 52560, Note_on_c, 0, 49, 66
7, 52638, Note_on_c, 0, 49, 0
7, 52680, Note_on_c, 0, 52, 64
7, 52761, Note_on_c, 0, 52, 0
7, 52800, Note_on_c, 0, 42, 89
7, 52855, Note_on_c, 0, 42, 0
7, 52860, Note_on_c, 0, 49, 81
7, 52898, Note_on_c, 0, 49, 0
7, 52920, Note_on_c, 0, 56, 61
7, 53136, Note_on_c, 0, 56, 0
7, 53160, Note_on_c, 0, 59, 79
7, 53249, Note_on_c, 0, 59, 0
7, 53280, Note_on_c, 0, 61, 64
7, 53355, Note_on_c, 0, 61, 0
7, 53400, Note_on_c, 0, 59, 74
7, 53481, Note_on_c, 0, 59, 0
7, 53520, Note_on_c, 0, 58, 96
7, 53588, Note_on_c, 0, 58, 0
7, 53640, Note_on_c, 0, 54, 66
7, 53715, Note_on_c, 0, 54, 0
7, 53760, Note_on_c, 0, 59, 72
7, 53779, Note_on_c, 0, 59, 0
7, 53880, Note_on_c, 0, 59, 72
7, 53982, Note_on_c, 0, 59, 0
7, 54000, Note_on_c, 0, 57, 74
7, 54027, Note_on_c, 0, 57, 0
7, 54120, Note_on_c, 0, 57, 79
7, 54240, Note_on_c, 0, 56, 77
7, 54254, Note_on_c, 0, 57, 0
7, 54267, Note_on_c, 0, 56, 0
7, 54360, Note_on_c, 0, 56, 89
7, 54480, Note_on_c, 0, 54, 77
7, 54493, Note_on_c, 0, 56, 0
7, 54504, Note_on_c, 0, 54, 0
7, 54600, Note_on_c, 0, 54, 74
7, 54720, Note_on_c, 0, 53, 79
7, 54729, Note_on_c, 0, 54, 0
7, 54748, Note_on_c, 0, 53, 0
7, 54840, Note_on_c, 0, 53, 74
7, 54960, Note_on_c, 0, 49, 64
7, 54970, Note_on_c, 0, 53, 0
7, 54995, Note_on_c, 0, 49, 0
7, 55080, Note_on_c, 0, 49, 77
7, 55199, Note_on_c, 0, 49, 0
7, 55200, Note_on_c, 0, 54, 81
7, 55232, Note_on_c, 0, 54, 0
7, 55320, Note_on_c, 0, 54, 77
7, 55440, Note_on_c, 0, 42, 89
7, 55459, Note_on_c, 0, 54, 0
7, 55464, Note_on_c, 0, 42, 0
7, 55560, Note_on_c, 0, 42, 89
7, 55676, Note_on_c, 0, 42, 0
7, 55680, Note_on_c, 0, 54, 89
7, 55699, Note_on_c, 0, 54, 0
7, 55800, Note_on_c, 0, 54, 51
7, 55920, Note_on_c, 0, 55, 66
7, 55922, Note_on_c, 0, 54, 0
7, 55938, Note_on_c, 0, 55, 0
7, 56040, Note_on_c, 0, 55, 79
7, 56160, Note_on_c, 0, 54, 89
7, 56173, Note_on_c, 0, 55, 0
7, 56188, Note_on_c, 0, 54, 0
7, 56280, Note_on_c, 0, 54, 96
7, 56396, Note_on_c, 0, 54, 0
7, 56400, Note_on_c, 0, 52, 96
7, 56430, Note_on_c, 0, 52, 0
7, 56520, Note_on_c, 0, 52, 79
7, 56640, Note_on_c, 0, 51, 81
7, 56643, Note_on_c, 0, 52, 0
7, 56658, Note_on_c, 0, 51, 0
7, 56760, Note_on_c, 0, 51, 77
7, 56880, Note_on_c, 0, 47, 79
7, 56883, Note_on_c, 0, 51, 0
7, 56912, Note_on_c, 0, 47, 0
7, 57000, Note_on_c, 0, 47, 77
7, 57120, Note_on_c, 0, 52, 77
7, 57122, Note_on_c, 0, 47, 0
7, 57149, Note_on_c, 0, 52, 0
7, 57240, Note_on_c, 0, 52, 69
7, 57360, Note_on_c, 0, 52, 0
7, 57360, Note_on_c, 0, 40, 74
7, 57392, Note_on_c, 0, 40, 0
7, 57480, Note_on_c, 0, 40, 74
7, 57592, Note_on_c, 0, 40, 0
7, 57600, Note_on_c, 0, 52, 69
7, 57635, Note_on_c, 0, 52, 0
7, 57720, Note_on_c, 0, 52, 89
7, 57840, Note_on_c, 0, 54, 89
7, 57849, Note_on_c, 0, 52, 0
7, 57870, Note_on_c, 0, 54, 0
7, 57960, Note_on_c, 0, 54, 89
7, 58079, Note_on_c, 0, 54, 0
7, 58080, Note_on_c, 0, 52, 72
7, 58118, Note_on_c, 0, 52, 0
7, 58200, Note_on_c, 0, 52, 74
7, 58320, Note_on_c, 0, 50, 84
7, 58328, Note_on_c, 0, 52, 0
7, 58355, Note_on_c, 0, 50, 0
7, 58440, Note_on_c, 0, 50, 79
7, 58560, Note_on_c, 0, 49, 77
7, 58564, Note_on_c, 0, 50, 0
7, 58605, Note_on_c, 0, 49, 0
7, 58680, Note_on_c, 0, 49, 77
7, 58800, Note_on_c, 0, 50, 79
7, 58804, Note_on_c, 0, 49, 0
7, 58837, Note_on_c, 0, 50, 0
7, 58920, Note_on_c, 0, 50, 74
7, 59039, Note_on_c, 0, 50, 0
7, 59040, Note_on_c, 0, 49, 84
7, 59080, Note_on_c, 0, 49, 0
7, 59160, Note_on_c, 0, 49, 81
7, 59276, Note_on_c, 0, 49, 0
7, 59280, Note_on_c, 0, 47, 79
7, 59316, Note_on_c, 0, 47, 0
7, 59400, Note_on_c, 0, 47, 72
7, 59508, Note_on_c, 0, 47, 0
7, 59520, Note_on_c, 0, 46, 84
7, 59560, Note_on_c, 0, 46, 0
7, 59640, Note_on_c, 0, 46, 89
7, 59760, Note_on_c, 0, 49, 77
7, 59763, Note_on_c, 0, 46, 0
7, 59796, Note_on_c, 0, 49, 0
7, 59880, Note_on_c, 0, 49, 89
7, 59993, Note_on_c, 0, 49, 0
7, 60000, Note_on_c, 0, 46, 86
7, 60042, Note_on_c, 0, 46, 0
7, 60120, Note_on_c, 0, 46, 81
7, 60240, Note_on_c, 0, 42, 117
7, 60248, Note_on_c, 0, 46, 0
7, 60292, Note_on_c, 0, 42, 0
7, 60360, Note_on_c, 0, 42, 89
7, 60463, Note_on_c, 0, 42, 0
7, 60480, Note_on_c, 0, 47, 84
7, 60535, Note_on_c, 0, 47, 0
7, 60600, Note_on_c, 0, 47, 79
7, 60716, Note_on_c, 0, 47, 0
7, 60720, Note_on_c, 0, 49, 81
7, 60757, Note_on_c, 0, 49, 0
7, 60840, Note_on_c, 0, 49, 89
7, 60960, Note_on_c, 0, 50, 77
7, 60969, Note_on_c, 0, 49, 0
7, 60997, Note_on_c, 0, 50, 0
7, 61080, Note_on_c, 0, 50, 86
7, 61200, Note_on_c, 0, 52, 79
7, 61202, Note_on_c, 0, 50, 0
7, 61246, Note_on_c, 0, 52, 0
7, 61320, Note_on_c, 0, 52, 74
7, 61440, Note_on_c, 0, 54, 72
7, 61460, Note_on_c, 0, 52, 0
7, 61477, Note_on_c, 0, 54, 0
7, 61560, Note_on_c, 0, 54, 77
7, 61680, Note_on_c, 0, 47, 79
7, 61693, Note_on_c, 0, 54, 0
7, 61715, Note_on_c, 0, 47, 0
7, 61800, Note_on_c, 0, 47, 77
7, 61910, Note_on_c, 0, 47, 0
7, 61920, Note_on_c, 0, 52, 96
7, 61959, Note_on_c, 0, 52, 0
7, 62040, Note_on_c, 0, 52, 89
7, 62160, Note_on_c, 0, 55, 89
7, 62166, Note_on_c, 0, 52, 0
7, 62200, Note_on_c, 0, 55, 0
7, 62280, Note_on_c, 0, 55, 74
7, 62400, Note_on_c, 0, 57, 96
7, 62403, Note_on_c, 0, 55, 0
7, 62440, Note_on_c, 0, 57, 0
7, 62520, Note_on_c, 0, 57, 84
7, 62640, Note_on_c, 0, 45, 99
7, 62653, Note_on_c, 0, 57, 0
7, 62677, Note_on_c, 0, 45, 0
7, 62760, Note_on_c, 0, 45, 74
7, 62876, Note_on_c, 0, 45, 0
7, 62880, Note_on_c, 0, 50, 81
7, 62925, Note_on_c, 0, 50, 0
7, 63000, Note_on_c, 0, 50, 74
7, 63120, Note_on_c, 0, 54, 96
7, 63124, Note_on_c, 0, 50, 0
7, 63153, Note_on_c, 0, 54, 0
7, 63240, Note_on_c, 0, 54, 72
7, 63360, Note_on_c, 0, 55, 89
7, 63366, Note_on_c, 0, 54, 0
7, 63392, Note_on_c, 0, 55, 0
7, 63480, Note_on_c, 0, 55, 79
7, 63600, Note_on_c, 0, 54, 66
7, 63621, Note_on_c, 0, 55, 0
7, 63632, Note_on_c, 0, 54, 0
7, 63720, Note_on_c, 0, 54, 84
7, 63840, Note_on_c, 0, 55, 79
7, 63855, Note_on_c, 0, 54, 0
7, 63885, Note_on_c, 0, 55, 0
7, 63960, Note_on_c, 0, 55, 74
7, 64080, Note_on_c, 0, 52, 84
7, 64084, Note_on_c, 0, 55, 0
7, 64118, Note_on_c, 0, 52, 0
7, 64200, Note_on_c, 0, 52, 58
7, 64320, Note_on_c, 0, 54, 64
7, 64324, Note_on_c, 0, 52, 0
7, 64353, Note_on_c, 0, 54, 0
7, 64440, Note_on_c, 0, 54, 77
7, 64560, Note_on_c, 0, 42, 89
7, 64566, Note_on_c, 0, 54, 0
7, 64599, Note_on_c, 0, 42, 0
7, 64680, Note_on_c, 0, 42, 81
7, 64766, Note_on_c, 0, 42, 0
7, 64800, Note_on_c, 0, 42, 91
7, 64835, Note_on_c, 0, 42, 0
7, 64920, Note_on_c, 0, 42, 84
7, 65040, Note_on_c, 0, 54, 69
7, 65054, Note_on_c, 0, 42, 0
7, 65073, Note_on_c, 0, 54, 0
7, 65160, Note_on_c, 0, 54, 117
7, 65261, Note_on_c, 0, 54, 0
7, 65280, Note_on_c, 0, 54, 111
7, 65317, Note_on_c, 0, 54, 0
7, 65400, Note_on_c, 0, 54, 84
7, 65520, Note_on_c, 0, 54, 0
7, 65520, Note_on_c, 0, 42, 117
7, 65581, Note_on_c, 0, 42, 0
7, 65640, Note_on_c, 0, 42, 79
7, 65725, Note_on_c, 0, 42, 0
7, 65760, Note_on_c, 0, 42, 127
7, 65804, Note_on_c, 0, 42, 0
7, 65880, Note_on_c, 0, 42, 117
7, 66000, Note_on_c, 0, 54, 120
7, 66002, Note_on_c, 0, 42, 0
7, 66033, Note_on_c, 0, 54, 0
7, 66120, Note_on_c, 0, 54, 77
7, 66198, Note_on_c, 0, 54, 0
7, 66240, Note_on_c, 0, 59, 127
7, 66456, Note_on_c, 0, 59, 0
7, 66480, Note_on_c, 0, 47, 108
7, 66696, Note_on_c, 0, 47, 0
7, 66720, Note_on_c, 0, 59, 126
7, 66936, Note_on_c, 0, 59, 0
7, 67080, Note_on_c, 0, 47, 117
7, 67117, Note_on_c, 0, 47, 0
7, 67200, Note_on_c, 0, 59, 81
7, 67240, Note_on_c, 0, 59, 0
7, 67260, Note_on_c, 0, 61, 74
7, 67297, Note_on_c, 0, 61, 0
7, 67320, Note_on_c, 0, 62, 89
7, 67356, Note_on_c, 0, 62, 0
7, 67380, Note_on_c, 0, 61, 96
7, 67417, Note_on_c, 0, 61, 0
7, 67440, Note_on_c, 0, 59, 86
7, 67473, Note_on_c, 0, 59, 0
7, 67500, Note_on_c, 0, 61, 117
7, 67529, Note_on_c, 0, 61, 0
7, 67560, Note_on_c, 0, 62, 89
7, 67598, Note_on_c, 0, 62, 0
7, 67620, Note_on_c, 0, 61, 89
7, 67655, Note_on_c, 0, 61, 0
7, 67680, Note_on_c, 0, 59, 69
7, 67719, Note_on_c, 0, 59, 0
7, 67740, Note_on_c, 0, 61, 61
7, 67785, Note_on_c, 0, 61, 0
7, 67800, Note_on_c, 0, 62, 66
7, 67845, Note_on_c, 0, 62, 0
7, 67860, Note_on_c, 0, 61, 72
7, 67916, Note_on_c, 0, 61, 0
7, 67920, Note_on_c, 0, 59, 96
7, 68012, Note_on_c, 0, 59, 0
7, 68040, Note_on_c, 0, 47, 84
7, 68124, Note_on_c, 0, 47, 0
7, 68160, Note_on_c, 0, 52, 89
7, 68245, Note_on_c, 0, 52, 0
7, 68280, Note_on_c, 0, 40, 86
7, 68322, Note_on_c, 0, 40, 0
7, 68400, Note_on_c, 0, 64, 77
7, 68490, Note_on_c, 0, 64, 0
7, 68520, Note_on_c, 0, 52, 79
7, 68574, Note_on_c, 0, 52, 0
7, 68640, Note_on_c, 0, 52, 89
7, 68757, Note_on_c, 0, 52, 0
7, 68760, Note_on_c, 0, 40, 99
7, 68791, Note_on_c, 0, 40, 0
7, 68880, Note_on_c, 0, 64, 99
7, 68992, Note_on_c, 0, 64, 0
7, 69000, Note_on_c, 0, 52, 72
7, 69060, Note_on_c, 0, 52, 0
7, 69120, Note_on_c, 0, 57, 86
7, 69336, Note_on_c, 0, 57, 0
7, 69360, Note_on_c, 0, 45, 96
7, 69576, Note_on_c, 0, 45, 0
7, 69600, Note_on_c, 0, 57, 120
7, 69816, Note_on_c, 0, 57, 0
7, 69960, Note_on_c, 0, 45, 105
7, 70004, Note_on_c, 0, 45, 0
7, 70080, Note_on_c, 0, 57, 84
7, 70133, Note_on_c, 0, 57, 0
7, 70140, Note_on_c, 0, 59, 64
7, 70184, Note_on_c, 0, 59, 0
7, 70200, Note_on_c, 0, 61, 91
7, 70242, Note_on_c, 0, 61, 0
7, 70260, Note_on_c, 0, 59, 84
7, 70302, Note_on_c, 0, 59, 0
7, 70320, Note_on_c, 0, 57, 79
7, 70364, Note_on_c, 0, 57, 0
7, 70380, Note_on_c, 0, 59, 74
7, 70425, Note_on_c, 0, 59, 0
7, 70440, Note_on_c, 0, 61, 89
7, 70480, Note_on_c, 0, 61, 0
7, 70500, Note_on_c, 0, 59, 79
7, 70544, Note_on_c, 0, 59, 0
7, 70560, Note_on_c, 0, 57, 64
7, 70612, Note_on_c, 0, 57, 0
7, 70620, Note_on_c, 0, 59, 64
7, 70676, Note_on_c, 0, 59, 0
7, 70680, Note_on_c, 0, 61, 77
7, 70725, Note_on_c, 0, 61, 0
7, 70740, Note_on_c, 0, 59, 74
7, 70779, Note_on_c, 0, 59, 0
7, 70800, Note_on_c, 0, 57, 89
7, 70881, Note_on_c, 0, 57, 0
7, 70920, Note_on_c, 0, 45, 69
7, 70986, Note_on_c, 0, 45, 0
7, 71040, Note_on_c, 0, 50, 79
7, 71148, Note_on_c, 0, 50, 0
7, 71160, Note_on_c, 0, 38, 89
7, 71202, Note_on_c, 0, 38, 0
7, 71280, Note_on_c, 0, 62, 102
7, 71393, Note_on_c, 0, 62, 0
7, 71400, Note_on_c, 0, 50, 79
7, 71437, Note_on_c, 0, 50, 0
7, 71520, Note_on_c, 0, 50, 102
7, 71640, Note_on_c, 0, 38, 102
7, 71667, Note_on_c, 0, 38, 0
7, 71698, Note_on_c, 0, 50, 0
7, 71760, Note_on_c, 0, 62, 111
7, 71878, Note_on_c, 0, 62, 0
7, 71880, Note_on_c, 0, 50, 79
7, 71918, Note_on_c, 0, 50, 0
7, 72000, Note_on_c, 0, 55, 93
7, 72216, Note_on_c, 0, 55, 0
7, 72240, Note_on_c, 0, 43, 99
7, 72456, Note_on_c, 0, 43, 0
7, 72480, Note_on_c, 0, 55, 127
7, 72696, Note_on_c, 0, 55, 0
7, 72840, Note_on_c, 0, 43, 84
7, 72894, Note_on_c, 0, 43, 0
7, 72960, Note_on_c, 0, 43, 96
7, 72995, Note_on_c, 0, 43, 0
7, 73020, Note_on_c, 0, 45, 84
7, 73057, Note_on_c, 0, 45, 0
7, 73080, Note_on_c, 0, 47, 84
7, 73117, Note_on_c, 0, 47, 0
7, 73140, Note_on_c, 0, 45, 69
7, 73179, Note_on_c, 0, 45, 0
7, 73200, Note_on_c, 0, 43, 86
7, 73237, Note_on_c, 0, 43, 0
7, 73260, Note_on_c, 0, 45, 77
7, 73296, Note_on_c, 0, 45, 0
7, 73320, Note_on_c, 0, 47, 102
7, 73357, Note_on_c, 0, 47, 0
7, 73380, Note_on_c, 0, 45, 72
7, 73416, Note_on_c, 0, 45, 0
7, 73440, Note_on_c, 0, 43, 96
7, 73479, Note_on_c, 0, 43, 0
7, 73500, Note_on_c, 0, 45, 72
7, 73538, Note_on_c, 0, 45, 0
7, 73560, Note_on_c, 0, 47, 66
7, 73597, Note_on_c, 0, 47, 0
7, 73620, Note_on_c, 0, 45, 58
7, 73660, Note_on_c, 0, 45, 0
7, 73680, Note_on_c, 0, 43, 79
7, 73756, Note_on_c, 0, 43, 0
7, 73800, Note_on_c, 0, 55, 111
7, 73877, Note_on_c, 0, 55, 0
7, 73920, Note_on_c, 0, 52, 102
7, 73989, Note_on_c, 0, 52, 0
7, 74040, Note_on_c, 0, 54, 102
7, 74103, Note_on_c, 0, 54, 0
7, 74160, Note_on_c, 0, 55, 93
7, 74232, Note_on_c, 0, 55, 0
7, 74280, Note_on_c, 0, 43, 102
7, 74350, Note_on_c, 0, 43, 0
7, 74400, Note_on_c, 0, 50, 96
7, 74616, Note_on_c, 0, 50, 0
7, 74700, Note_on_c, 0, 52, 102
7, 74745, Note_on_c, 0, 52, 0
7, 74760, Note_on_c, 0, 50, 89
7, 74798, Note_on_c, 0, 50, 0
7, 74820, Note_on_c, 0, 48, 81
7, 74856, Note_on_c, 0, 48, 0
7, 74880, Note_on_c, 0, 47, 111
7, 74920, Note_on_c, 0, 47, 0
7, 74940, Note_on_c, 0, 48, 86
7, 74980, Note_on_c, 0, 48, 0
7, 75000, Note_on_c, 0, 50, 111
7, 75044, Note_on_c, 0, 50, 0
7, 75060, Note_on_c, 0, 52, 96
7, 75095, Note_on_c, 0, 52, 0
7, 75120, Note_on_c, 0, 54, 77
7, 75162, Note_on_c, 0, 54, 0
7, 75180, Note_on_c, 0, 55, 111
7, 75218, Note_on_c, 0, 55, 0
7, 75240, Note_on_c, 0, 57, 99
7, 75249, Channel_aftertouch_c, 0, 22
7, 75257, Channel_aftertouch_c, 0, 11
7, 75265, Channel_aftertouch_c, 0, 5
7, 75272, Note_on_c, 0, 57, 0
7, 75300, Note_on_c, 0, 59, 86
7, 75303, Channel_aftertouch_c, 0, 6
7, 75314, Channel_aftertouch_c, 0, 3
7, 75337, Note_on_c, 0, 59, 0
7, 75360, Note_on_c, 0, 52, 105
7, 75421, Note_on_c, 0, 52, 0
7, 75480, Note_on_c, 0, 64, 96
7, 75554, Note_on_c, 0, 64, 0
7, 75660, Note_on_c, 0, 50, 89
7, 75704, Note_on_c, 0, 50, 0
7, 75720, Note_on_c, 0, 48, 69
7, 75764, Note_on_c, 0, 48, 0
7, 75780, Note_on_c, 0, 47, 84
7, 75824, Note_on_c, 0, 47, 0
7, 75840, Note_on_c, 0, 45, 99
7, 75849, Channel_aftertouch_c, 0, 15
7, 75859, Channel_aftertouch_c, 0, 7
7, 75886, Note_on_c, 0, 45, 0
7, 75900, Note_on_c, 0, 47, 108
7, 75944, Note_on_c, 0, 47, 0
7, 75960, Note_on_c, 0, 48, 111
7, 76013, Note_on_c, 0, 48, 0
7, 76020, Note_on_c, 0, 50, 84
7, 76062, Note_on_c, 0, 50, 0
7, 76080, Note_on_c, 0, 52, 117
7, 76118, Note_on_c, 0, 52, 0
7, 76140, Note_on_c, 0, 54, 127
7, 76182, Note_on_c, 0, 54, 0
7, 76200, Note_on_c, 0, 55, 108
7, 76242, Note_on_c, 0, 55, 0
7, 76260, Note_on_c, 0, 57, 108
7, 76304, Note_on_c, 0, 57, 0
7, 76320, Note_on_c, 0, 50, 86
7, 76326, Channel_aftertouch_c, 0, 25
7, 76335, Channel_aftertouch_c, 0, 12
7, 76347, Channel_aftertouch_c, 0, 6
7, 76358, Channel_aftertouch_c, 0, 3
7, 76369, Channel_aftertouch_c, 0, 1
7, 76394, Note_on_c, 0, 50, 0
7, 76440, Note_on_c, 0, 62, 127
7, 76517, Note_on_c, 0, 62, 0
7, 76620, Note_on_c, 0, 48, 84
7, 76666, Note_on_c, 0, 48, 0
7, 76680, Note_on_c, 0, 47, 79
7, 76718, Note_on_c, 0, 47, 0
7, 76740, Note_on_c, 0, 45, 72
7, 76777, Note_on_c, 0, 45, 0
7, 76800, Note_on_c, 0, 43, 72
7, 76846, Note_on_c, 0, 43, 0
7, 76860, Note_on_c, 0, 45, 79
7, 76899, Note_on_c, 0, 45, 0
7, 76920, Note_on_c, 0, 47, 89
7, 76960, Note_on_c, 0, 47, 0
7, 76980, Note_on_c, 0, 48, 89
7, 77018, Note_on_c, 0, 48, 0
7, 77040, Note_on_c, 0, 50, 111
7, 77086, Note_on_c, 0, 50, 0
7, 77100, Note_on_c, 0, 52, 102
7, 77136, Note_on_c, 0, 52, 0
7, 77160, Note_on_c, 0, 54, 79
7, 77195, Note_on_c, 0, 54, 0
7, 77220, Note_on_c, 0, 55, 96
7, 77248, Note_on_c, 0, 55, 0
7, 77280, Note_on_c, 0, 52, 108
7, 77326, Note_on_c, 0, 52, 0
7, 77400, Note_on_c, 0, 40, 108
7, 77519, Note_on_c, 0, 40, 0
7, 77640, Note_on_c, 0, 38, 93
7, 77706, Note_on_c, 0, 38, 0
7, 77760, Note_on_c, 0, 36, 102
7, 77828, Note_on_c, 0, 36, 0
7, 77880, Note_on_c, 0, 45, 69
7, 77950, Note_on_c, 0, 45, 0
7, 78000, Note_on_c, 0, 47, 89
7, 78068, Note_on_c, 0, 47, 0
7, 78120, Note_on_c, 0, 48, 96
7, 78180, Note_on_c, 0, 48, 0
7, 78240, Note_on_c, 0, 50, 96
7, 78294, Note_on_c, 0, 50, 0
7, 78360, Note_on_c, 0, 38, 124
7, 78483, Note_on_c, 0, 38, 0
7, 78600, Note_on_c, 0, 50, 84
7, 78646, Note_on_c, 0, 50, 0
7, 78720, Note_on_c, 0, 50, 74
7, 78783, Note_on_c, 0, 50, 0
7, 78840, Note_on_c, 0, 38, 61
7, 78880, Note_on_c, 0, 38, 0
7, 78900, Note_on_c, 0, 40, 66
7, 78944, Note_on_c, 0, 40, 0
7, 78960, Note_on_c, 0, 42, 69
7, 79015, Note_on_c, 0, 42, 0
7, 79080, Note_on_c, 0, 45, 89
7, 79136, Note_on_c, 0, 45, 0
7, 79200, Note_on_c, 0, 50, 69
7, 79256, Note_on_c, 0, 50, 0
7, 79320, Note_on_c, 0, 45, 66
7, 79379, Note_on_c, 0, 45, 0
7, 79440, Note_on_c, 0, 50, 79
7, 79496, Note_on_c, 0, 50, 0
7, 79560, Note_on_c, 0, 54, 72
7, 79616, Note_on_c, 0, 54, 0
7, 79680, Note_on_c, 0, 57, 77
7, 79741, Note_on_c, 0, 57, 0
7, 79800, Note_on_c, 0, 54, 66
7, 79857, Note_on_c, 0, 54, 0
7, 79920, Note_on_c, 0, 50, 69
7, 79975, Note_on_c, 0, 50, 0
7, 80040, Note_on_c, 0, 54, 51
7, 80100, Note_on_c, 0, 54, 0
7, 80160, Note_on_c, 0, 43, 96
7, 80376, Note_on_c, 0, 43, 0
7, 80400, Note_on_c, 0, 47, 69
7, 80616, Note_on_c, 0, 47, 0
7, 80640, Note_on_c, 0, 50, 89
7, 80856, Note_on_c, 0, 50, 0
7, 81000, Note_on_c, 0, 47, 84
7, 81046, Note_on_c, 0, 47, 0
7, 81060, Note_on_c, 0, 48, 79
7, 81095, Note_on_c, 0, 48, 0
7, 81120, Note_on_c, 0, 50, 96
7, 81186, Note_on_c, 0, 50, 0
7, 81240, Note_on_c, 0, 47, 79
7, 81276, Note_on_c, 0, 47, 0
7, 81300, Note_on_c, 0, 48, 58
7, 81339, Note_on_c, 0, 48, 0
7, 81360, Note_on_c, 0, 50, 64
7, 81428, Note_on_c, 0, 50, 0
7, 81480, Note_on_c, 0, 55, 74
7, 81550, Note_on_c, 0, 55, 0
7, 81600, Note_on_c, 0, 50, 74
7, 81669, Note_on_c, 0, 50, 0
7, 81720, Note_on_c, 0, 50, 79
7, 81774, Note_on_c, 0, 50, 0
7, 81780, Note_on_c, 0, 48, 69
7, 81832, Note_on_c, 0, 48, 0
7, 81840, Note_on_c, 0, 47, 69
7, 81929, Note_on_c, 0, 47, 0
7, 81960, Note_on_c, 0, 45, 74
7, 82012, Note_on_c, 0, 45, 0
7, 82020, Note_on_c, 0, 43, 69
7, 82066, Note_on_c, 0, 43, 0
7, 82080, Note_on_c, 0, 44, 111
7, 82217, Note_on_c, 0, 44, 0
7, 82440, Note_on_c, 0, 52, 79
7, 82496, Note_on_c, 0, 52, 0
7, 82560, Note_on_c, 0, 52, 96
7, 82628, Note_on_c, 0, 52, 0
7, 82680, Note_on_c, 0, 40, 74
7, 82725, Note_on_c, 0, 40, 0
7, 82740, Note_on_c, 0, 42, 84
7, 82786, Note_on_c, 0, 42, 0
7, 82800, Note_on_c, 0, 44, 96
7, 82859, Note_on_c, 0, 44, 0
7, 82920, Note_on_c, 0, 47, 79
7, 82979, Note_on_c, 0, 47, 0
7, 83040, Note_on_c, 0, 52, 84
7, 83103, Note_on_c, 0, 52, 0
7, 83160, Note_on_c, 0, 47, 72
7, 83231, Note_on_c, 0, 47, 0
7, 83280, Note_on_c, 0, 52, 74
7, 83346, Note_on_c, 0, 52, 0
7, 83400, Note_on_c, 0, 56, 96
7, 83460, Note_on_c, 0, 56, 0
7, 83520, Note_on_c, 0, 59, 66
7, 83575, Note_on_c, 0, 59, 0
7, 83640, Note_on_c, 0, 56, 66
7, 83703, Note_on_c, 0, 56, 0
7, 83760, Note_on_c, 0, 52, 74
7, 83821, Note_on_c, 0, 52, 0
7, 83880, Note_on_c, 0, 56, 58
7, 83944, Note_on_c, 0, 56, 0
7, 84000, Note_on_c, 0, 45, 77
7, 84216, Note_on_c, 0, 45, 0
7, 84240, Note_on_c, 0, 48, 74
7, 84456, Note_on_c, 0, 48, 0
7, 84480, Note_on_c, 0, 52, 96
7, 84696, Note_on_c, 0, 52, 0
7, 84840, Note_on_c, 0, 48, 69
7, 84894, Note_on_c, 0, 48, 0
7, 84900, Note_on_c, 0, 50, 84
7, 84937, Note_on_c, 0, 50, 0
7, 84960, Note_on_c, 0, 52, 77
7, 85024, Note_on_c, 0, 52, 0
7, 85080, Note_on_c, 0, 48, 69
7, 85125, Note_on_c, 0, 48, 0
7, 85140, Note_on_c, 0, 50, 64
7, 85179, Note_on_c, 0, 50, 0
7, 85200, Note_on_c, 0, 52, 58
7, 85263, Note_on_c, 0, 52, 0
7, 85320, Note_on_c, 0, 57, 64
7, 85384, Note_on_c, 0, 57, 0
7, 85440, Note_on_c, 0, 52, 69
7, 85499, Note_on_c, 0, 52, 0
7, 85560, Note_on_c, 0, 52, 66
7, 85606, Note_on_c, 0, 52, 0
7, 85620, Note_on_c, 0, 50, 55
7, 85662, Note_on_c, 0, 50, 0
7, 85680, Note_on_c, 0, 48, 66
7, 85739, Note_on_c, 0, 48, 0
7, 85800, Note_on_c, 0, 47, 61
7, 85857, Note_on_c, 0, 47, 0
7, 85860, Note_on_c, 0, 45, 79
7, 85897, Note_on_c, 0, 45, 0
7, 85920, Note_on_c, 0, 51, 89
7, 86136, Note_on_c, 0, 51, 0
7, 86280, Note_on_c, 0, 59, 79
7, 86346, Note_on_c, 0, 59, 0
7, 86400, Note_on_c, 0, 59, 69
7, 86460, Note_on_c, 0, 59, 0
7, 86520, Note_on_c, 0, 47, 69
7, 86565, Note_on_c, 0, 47, 0
7, 86580, Note_on_c, 0, 49, 66
7, 86626, Note_on_c, 0, 49, 0
7, 86640, Note_on_c, 0, 51, 61
7, 86695, Note_on_c, 0, 51, 0
7, 86760, Note_on_c, 0, 54, 89
7, 86820, Note_on_c, 0, 54, 0
7, 86880, Note_on_c, 0, 59, 84
7, 86937, Note_on_c, 0, 59, 0
7, 87000, Note_on_c, 0, 54, 89
7, 87064, Note_on_c, 0, 54, 0
7, 87120, Note_on_c, 0, 59, 69
7, 87187, Note_on_c, 0, 59, 0
7, 87240, Note_on_c, 0, 63, 84
7, 87301, Note_on_c, 0, 63, 0
7, 87360, Note_on_c, 0, 66, 61
7, 87427, Note_on_c, 0, 66, 0
7, 87480, Note_on_c, 0, 63, 64
7, 87543, Note_on_c, 0, 63, 0
7, 87600, Note_on_c, 0, 59, 66
7, 87666, Note_on_c, 0, 59, 0
7, 87720, Note_on_c, 0, 63, 69
7, 87783, Note_on_c, 0, 63, 0
7, 87840, Note_on_c, 0, 64, 108
7, 87925, Note_on_c, 0, 64, 0
7, 87960, Note_on_c, 0, 60, 79
7, 88029, Note_on_c, 0, 60, 0
7, 88080, Note_on_c, 0, 57, 96
7, 88152, Note_on_c, 0, 57, 0
7, 88200, Note_on_c, 0, 59, 89
7, 88270, Note_on_c, 0, 59, 0
7, 88320, Note_on_c, 0, 55, 79
7, 88419, Note_on_c, 0, 55, 0
7, 88440, Note_on_c, 0, 56, 108
7, 88536, Note_on_c, 0, 56, 0
7, 88680, Note_on_c, 0, 52, 93
7, 88753, Note_on_c, 0, 52, 0
7, 88800, Note_on_c, 0, 57, 96
7, 88870, Note_on_c, 0, 57, 0
7, 88920, Note_on_c, 0, 55, 77
7, 88991, Note_on_c, 0, 55, 0
7, 89040, Note_on_c, 0, 54, 77
7, 89104, Note_on_c, 0, 54, 0
7, 89160, Note_on_c, 0, 52, 96
7, 89226, Note_on_c, 0, 52, 0
7, 89280, Note_on_c, 0, 51, 79
7, 89322, Note_on_c, 0, 51, 0
7, 89340, Note_on_c, 0, 52, 79
7, 89393, Note_on_c, 0, 52, 0
7, 89400, Note_on_c, 0, 54, 64
7, 89444, Note_on_c, 0, 54, 0
7, 89460, Note_on_c, 0, 52, 79
7, 89500, Note_on_c, 0, 52, 0
7, 89520, Note_on_c, 0, 51, 81
7, 89560, Note_on_c, 0, 51, 0
7, 89580, Note_on_c, 0, 54, 74
7, 89635, Note_on_c, 0, 54, 0
7, 89640, Note_on_c, 0, 47, 79
7, 89699, Note_on_c, 0, 47, 0
7, 89700, Note_on_c, 0, 51, 74
7, 89746, Note_on_c, 0, 51, 0
7, 89760, Note_on_c, 0, 52, 91
7, 89828, Note_on_c, 0, 52, 0
7, 89880, Note_on_c, 0, 48, 117
7, 89889, Channel_aftertouch_c, 0, 7
7, 89900, Channel_aftertouch_c, 0, 3
7, 89910, Channel_aftertouch_c, 0, 1
7, 89965, Note_on_c, 0, 48, 0
7, 90000, Note_on_c, 0, 45, 127
7, 90086, Note_on_c, 0, 45, 0
7, 90120, Note_on_c, 0, 47, 127
7, 90124, Channel_aftertouch_c, 0, 6
7, 90132, Channel_aftertouch_c, 0, 3
7, 90133, Channel_aftertouch_c, 0, 0
7, 90141, Channel_aftertouch_c, 0, 1
7, 90142, Channel_aftertouch_c, 0, 0
7, 90210, Note_on_c, 0, 47, 0
7, 90240, Note_on_c, 0, 40, 102
7, 90456, Note_on_c, 0, 40, 0
7, 90480, Note_on_c, 0, 43, 96
7, 90696, Note_on_c, 0, 43, 0
7, 90720, Note_on_c, 0, 47, 117
7, 90936, Note_on_c, 0, 47, 0
7, 91080, Note_on_c, 0, 47, 79
7, 91153, Note_on_c, 0, 47, 0
7, 91200, Note_on_c, 0, 40, 102
7, 91416, Note_on_c, 0, 40, 0
7, 91440, Note_on_c, 0, 45, 86
7, 91656, Note_on_c, 0, 45, 0
7, 91680, Note_on_c, 0, 50, 102
7, 91896, Note_on_c, 0, 50, 0
7, 92040, Note_on_c, 0, 52, 99
7, 92093, Note_on_c, 0, 52, 0
7, 92160, Note_on_c, 0, 45, 105
7, 92376, Note_on_c, 0, 45, 0
7, 92400, Note_on_c, 0, 50, 89
7, 92616, Note_on_c, 0, 50, 0
7, 92640, Note_on_c, 0, 56, 127
7, 92856, Note_on_c, 0, 56, 0
7, 93000, Note_on_c, 0, 59, 93
7, 93036, Note_on_c, 0, 59, 0
7, 93060, Note_on_c, 0, 57, 79
7, 93094, Note_on_c, 0, 57, 0
7, 93120, Note_on_c, 0, 56, 84
7, 93204, Note_on_c, 0, 56, 0
7, 93240, Note_on_c, 0, 59, 89
7, 93276, Note_on_c, 0, 59, 0
7, 93300, Note_on_c, 0, 57, 89
7, 93331, Note_on_c, 0, 57, 0
7, 93360, Note_on_c, 0, 56, 91
7, 93432, Note_on_c, 0, 56, 0
7, 93480, Note_on_c, 0, 52, 89
7, 93554, Note_on_c, 0, 52, 0
7, 93600, Note_on_c, 0, 57, 77
7, 93681, Note_on_c, 0, 57, 0
7, 93720, Note_on_c, 0, 45, 96
7, 93810, Note_on_c, 0, 45, 0
7, 93840, Note_on_c, 0, 57, 96
7, 93918, Note_on_c, 0, 57, 0
7, 93960, Note_on_c, 0, 57, 96
7, 93998, Note_on_c, 0, 57, 0
7, 94020, Note_on_c, 0, 55, 96
7, 94053, Note_on_c, 0, 55, 0
7, 94080, Note_on_c, 0, 54, 96
7, 94159, Note_on_c, 0, 54, 0
7, 94200, Note_on_c, 0, 57, 102
7, 94232, Note_on_c, 0, 57, 0
7, 94260, Note_on_c, 0, 55, 96
7, 94295, Note_on_c, 0, 55, 0
7, 94320, Note_on_c, 0, 54, 81
7, 94391, Note_on_c, 0, 54, 0
7, 94440, Note_on_c, 0, 50, 84
7, 94512, Note_on_c, 0, 50, 0
7, 94560, Note_on_c, 0, 55, 108
7, 94654, Note_on_c, 0, 55, 0
7, 94680, Note_on_c, 0, 43, 93
7, 94769, Note_on_c, 0, 43, 0
7, 94800, Note_on_c, 0, 55, 84
7, 94860, Note_on_c, 0, 54, 69
7, 94867, Note_on_c, 0, 55, 0
7, 94895, Note_on_c, 0, 54, 0
7, 94920, Note_on_c, 0, 52, 74
7, 94969, Note_on_c, 0, 52, 0
7, 94980, Note_on_c, 0, 50, 69
7, 95012, Note_on_c, 0, 50, 0
7, 95040, Note_on_c, 0, 49, 117
7, 95125, Note_on_c, 0, 49, 0
7, 95160, Note_on_c, 0, 52, 102
7, 95231, Note_on_c, 0, 52, 0
7, 95280, Note_on_c, 0, 45, 99
7, 95358, Note_on_c, 0, 45, 0
7, 95400, Note_on_c, 0, 57, 93
7, 95496, Note_on_c, 0, 57, 0
7, 95520, Note_on_c, 0, 50, 84
7, 95606, Note_on_c, 0, 50, 0
7, 95640, Note_on_c, 0, 45, 84
7, 95717, Note_on_c, 0, 45, 0
7, 95760, Note_on_c, 0, 54, 79
7, 95856, Note_on_c, 0, 54, 0
7, 95880, Note_on_c, 0, 50, 69
7, 95969, Note_on_c, 0, 50, 0
7, 96000, Note_on_c, 0, 55, 89
7, 96090, Note_on_c, 0, 55, 0
7, 96120, Note_on_c, 0, 52, 84
7, 96160, Note_on_c, 0, 52, 0
7, 96180, Note_on_c, 0, 54, 58
7, 96220, Note_on_c, 0, 54, 0
7, 96240, Note_on_c, 0, 55, 86
7, 96341, Note_on_c, 0, 55, 0
7, 96360, Note_on_c, 0, 52, 69
7, 96452, Note_on_c, 0, 52, 0
7, 96480, Note_on_c, 0, 49, 72
7, 96595, Note_on_c, 0, 49, 0
7, 96840, Note_on_c, 0, 45, 77
7, 96909, Note_on_c, 0, 45, 0
7, 96960, Note_on_c, 0, 50, 89
7, 96997, Note_on_c, 0, 50, 0
7, 97080, Note_on_c, 0, 62, 99
7, 97243, Note_on_c, 0, 62, 0
7, 97320, Note_on_c, 0, 61, 99
7, 97370, Note_on_c, 0, 61, 0
7, 97440, Note_on_c, 0, 59, 105
7, 97495, Note_on_c, 0, 59, 0
7, 97560, Note_on_c, 0, 47, 91
7, 97768, Note_on_c, 0, 47, 0
7, 97800, Note_on_c, 0, 45, 105
7, 97875, Note_on_c, 0, 45, 0
7, 97920, Note_on_c, 0, 43, 102
7, 97999, Note_on_c, 0, 43, 0
7, 98040, Note_on_c, 0, 42, 72
7, 98070, Note_on_c, 0, 42, 0
7, 98100, Note_on_c, 0, 54, 126
7, 98138, Note_on_c, 0, 54, 0
7, 98160, Note_on_c, 0, 43, 89
7, 98209, Note_on_c, 0, 43, 0
7, 98220, Note_on_c, 0, 55, 86
7, 98264, Note_on_c, 0, 55, 0
7, 98280, Note_on_c, 0, 45, 102
7, 98335, Note_on_c, 0, 45, 0
7, 98340, Note_on_c, 0, 57, 89
7, 98388, Note_on_c, 0, 57, 0
7, 98400, Note_on_c, 0, 47, 79
7, 98448, Note_on_c, 0, 47, 0
7, 98460, Note_on_c, 0, 59, 89
7, 98487, Note_on_c, 0, 59, 0
7, 98520, Note_on_c, 0, 42, 79
7, 98569, Note_on_c, 0, 42, 0
7, 98580, Note_on_c, 0, 54, 91
7, 98618, Note_on_c, 0, 54, 0
7, 98640, Note_on_c, 0, 43, 86
7, 98685, Note_on_c, 0, 43, 0
7, 98700, Note_on_c, 0, 55, 111
7, 98744, Note_on_c, 0, 55, 0
7, 98760, Note_on_c, 0, 45, 89
7, 98808, Note_on_c, 0, 45, 0
7, 98820, Note_on_c, 0, 57, 77
7, 98866, Note_on_c, 0, 57, 0
7, 98880, Note_on_c, 0, 47, 102
7, 98930, Note_on_c, 0, 47, 0
7, 98940, Note_on_c, 0, 59, 84
7, 98974, Note_on_c, 0, 59, 0
7, 99000, Note_on_c, 0, 45, 77
7, 99051, Note_on_c, 0, 45, 0
7, 99060, Note_on_c, 0, 57, 79
7, 99094, Note_on_c, 0, 57, 0
7, 99120, Note_on_c, 0, 47, 102
7, 99131, Channel_aftertouch_c, 0, 6
7, 99135, Channel_aftertouch_c, 0, 3
7, 99143, Channel_aftertouch_c, 0, 1
7, 99171, Note_on_c, 0, 47, 0
7, 99180, Note_on_c, 0, 59, 77
7, 99209, Note_on_c, 0, 59, 0
7, 99240, Note_on_c, 0, 49, 99
7, 99288, Note_on_c, 0, 49, 0
7, 99300, Note_on_c, 0, 61, 117
7, 99336, Note_on_c, 0, 61, 0
7, 99360, Note_on_c, 0, 50, 79
7, 99408, Note_on_c, 0, 50, 0
7, 99420, Note_on_c, 0, 62, 89
7, 99443, Note_on_c, 0, 62, 0
7, 99480, Note_on_c, 0, 45, 114
7, 99532, Note_on_c, 0, 45, 0
7, 99540, Note_on_c, 0, 57, 111
7, 99574, Note_on_c, 0, 57, 0
7, 99600, Note_on_c, 0, 47, 77
7, 99654, Note_on_c, 0, 47, 0
7, 99660, Note_on_c, 0, 59, 89
7, 99691, Note_on_c, 0, 59, 0
7, 99720, Note_on_c, 0, 49, 84
7, 99771, Note_on_c, 0, 49, 0
7, 99780, Note_on_c, 0, 61, 108
7, 99818, Note_on_c, 0, 61, 0
7, 99840, Note_on_c, 0, 50, 96
7, 99892, Note_on_c, 0, 50, 0
7, 99900, Note_on_c, 0, 62, 89
7, 99954, Note_on_c, 0, 62, 0
7, 99960, Note_on_c, 0, 54, 5
7, 99998, Note_on_c, 0, 54, 0
7, 100020, Note_on_c, 0, 62, 79
7, 100066, Note_on_c, 0, 62, 0
7, 100080, Note_on_c, 0, 59, 86
7, 100164, Note_on_c, 0, 59, 0
7, 100200, Note_on_c, 0, 55, 120
7, 100292, Note_on_c, 0, 55, 0
7, 100320, Note_on_c, 0, 57, 99
7, 100399, Note_on_c, 0, 57, 0
7, 100440, Note_on_c, 0, 61, 111
7, 100521, Note_on_c, 0, 61, 0
7, 100560, Note_on_c, 0, 64, 108
7, 100641, Note_on_c, 0, 64, 0
7, 100680, Note_on_c, 0, 67, 117
7, 100753, Note_on_c, 0, 67, 0
7, 100800, Note_on_c, 0, 64, 84
7, 100897, Note_on_c, 0, 64, 0
7, 100920, Note_on_c, 0, 61, 77
7, 100970, Note_on_c, 0, 61, 0
7, 101040, Note_on_c, 0, 57, 77
7, 101074, Note_on_c, 0, 57, 0
7, 101100, Note_on_c, 0, 54, 69
7, 101131, Note_on_c, 0, 54, 0
7, 101160, Note_on_c, 0, 55, 93
7, 101191, Note_on_c, 0, 55, 0
7, 101220, Note_on_c, 0, 52, 84
7, 101245, Note_on_c, 0, 52, 0
7, 101280, Note_on_c, 0, 49, 72
7, 101326, Note_on_c, 0, 49, 0
7, 101340, Note_on_c, 0, 50, 61
7, 101356, Note_on_c, 0, 50, 0
7, 101370, Note_on_c, 0, 52, 66
7, 101385, Note_on_c, 0, 52, 0
7, 101400, Note_on_c, 0, 45, 84
7, 101451, Note_on_c, 0, 45, 0
7, 101460, Note_on_c, 0, 49, 74
7, 101506, Note_on_c, 0, 49, 0
7, 101520, Note_on_c, 0, 47, 79
7, 101538, Note_on_c, 0, 47, 0
7, 101550, Note_on_c, 0, 45, 77
7, 101568, Note_on_c, 0, 45, 0
7, 101580, Note_on_c, 0, 44, 89
7, 101617, Note_on_c, 0, 44, 0
7, 101640, Note_on_c, 0, 45, 84
7, 101662, Note_on_c, 0, 45, 0
7, 101670, Note_on_c, 0, 44, 64
7, 101689, Note_on_c, 0, 44, 0
7, 101700, Note_on_c, 0, 42, 89
7, 101736, Note_on_c, 0, 42, 0
7, 101760, Note_on_c, 0, 41, 102
7, 101873, Note_on_c, 0, 41, 0
7, 101880, Note_on_c, 0, 53, 72
7, 101924, Note_on_c, 0, 53, 0
7, 102000, Note_on_c, 0, 53, 77
7, 102119, Note_on_c, 0, 53, 0
7, 102120, Note_on_c, 0, 41, 74
7, 102149, Note_on_c, 0, 41, 0
7, 102240, Note_on_c, 0, 41, 77
7, 102360, Note_on_c, 0, 53, 64
7, 102362, Note_on_c, 0, 41, 0
7, 102392, Note_on_c, 0, 53, 0
7, 102480, Note_on_c, 0, 53, 84
7, 102596, Note_on_c, 0, 53, 0
7, 102600, Note_on_c, 0, 41, 79
7, 102648, Note_on_c, 0, 41, 0
7, 102720, Note_on_c, 0, 42, 111
7, 102840, Note_on_c, 0, 54, 77
7, 102850, Note_on_c, 0, 42, 0
7, 102868, Note_on_c, 0, 54, 0
7, 102960, Note_on_c, 0, 54, 48
7, 103080, Note_on_c, 0, 42, 74
7, 103084, Note_on_c, 0, 54, 0
7, 103103, Note_on_c, 0, 42, 0
7, 103200, Note_on_c, 0, 42, 89
7, 103320, Note_on_c, 0, 54, 66
7, 103332, Note_on_c, 0, 42, 0
7, 103360, Note_on_c, 0, 54, 0
7, 103440, Note_on_c, 0, 54, 105
7, 103560, Note_on_c, 0, 42, 96
7, 103562, Note_on_c, 0, 54, 0
7, 103604, Note_on_c, 0, 42, 0
7, 103680, Note_on_c, 0, 47, 84
7, 103798, Note_on_c, 0, 47, 0
7, 103800, Note_on_c, 0, 59, 89
7, 103844, Note_on_c, 0, 59, 0
7, 103920, Note_on_c, 0, 59, 69
7, 104040, Note_on_c, 0, 47, 66
7, 104048, Note_on_c, 0, 59, 0
7, 104073, Note_on_c, 0, 47, 0
7, 104160, Note_on_c, 0, 47, 72
7, 104279, Note_on_c, 0, 47, 0
7, 104280, Note_on_c, 0, 59, 74
7, 104317, Note_on_c, 0, 59, 0
7, 104400, Note_on_c, 0, 59, 120
7, 104520, Note_on_c, 0, 59, 0
7, 104520, Note_on_c, 0, 47, 81
7, 104591, Note_on_c, 0, 47, 0
7, 104640, Note_on_c, 0, 49, 48
7, 104856, Note_on_c, 0, 49, 0
7, 104880, Note_on_c, 0, 53, 58
7, 105096, Note_on_c, 0, 53, 0
7, 105120, Note_on_c, 0, 56, 66
7, 105336, Note_on_c, 0, 56, 0
7, 105600, Note_on_c, 0, 49, 64
7, 105816, Note_on_c, 0, 49, 0
7, 105840, Note_on_c, 0, 54, 84
7, 106056, Note_on_c, 0, 54, 0
7, 106080, Note_on_c, 0, 57, 84
7, 106296, Note_on_c, 0, 57, 0
7, 106560, Note_on_c, 0, 49, 77
7, 106710, Note_on_c, 0, 49, 0
7, 106800, Note_on_c, 0, 53, 74
7, 106840, Note_on_c, 0, 53, 0
7, 106920, Note_on_c, 0, 56, 84
7, 106967, Note_on_c, 0, 56, 0
7, 107040, Note_on_c, 0, 59, 72
7, 107256, Note_on_c, 0, 59, 0
7, 107520, Note_on_c, 0, 49, 84
7, 107694, Note_on_c, 0, 49, 0
7, 107760, Note_on_c, 0, 54, 81
7, 107793, Note_on_c, 0, 54, 0
7, 107880, Note_on_c, 0, 57, 66
7, 107926, Note_on_c, 0, 57, 0
7, 108000, Note_on_c, 0, 61, 66
7, 108241, Note_on_c, 0, 61, 0
7, 108480, Note_on_c, 0, 41, 84
7, 108552, Note_on_c, 0, 41, 0
7, 108660, Note_on_c, 0, 62, 72
7, 108686, Note_on_c, 0, 62, 0
7, 108720, Note_on_c, 0, 62, 69
7, 108776, Note_on_c, 0, 62, 0
7, 108780, Note_on_c, 0, 61, 58
7, 108829, Note_on_c, 0, 61, 0
7, 108840, Note_on_c, 0, 62, 58
7, 108893, Note_on_c, 0, 62, 0
7, 108900, Note_on_c, 0, 59, 64
7, 108917, Note_on_c, 0, 59, 0
7, 108960, Note_on_c, 0, 59, 79
7, 109016, Note_on_c, 0, 59, 0
7, 109020, Note_on_c, 0, 57, 51
7, 109078, Note_on_c, 0, 57, 0
7, 109080, Note_on_c, 0, 59, 66
7, 109133, Note_on_c, 0, 59, 0
7, 109140, Note_on_c, 0, 56, 58
7, 109168, Note_on_c, 0, 56, 0
7, 109200, Note_on_c, 0, 56, 61
7, 109260, Note_on_c, 0, 57, 64
7, 109261, Note_on_c, 0, 56, 0
7, 109306, Note_on_c, 0, 57, 0
7, 109320, Note_on_c, 0, 59, 55
7, 109378, Note_on_c, 0, 59, 0
7, 109380, Note_on_c, 0, 56, 61
7, 109424, Note_on_c, 0, 56, 0
7, 109440, Note_on_c, 0, 53, 79
7, 109595, Note_on_c, 0, 53, 0
7, 109620, Note_on_c, 0, 50, 72
7, 109645, Note_on_c, 0, 50, 0
7, 109680, Note_on_c, 0, 50, 64
7, 109735, Note_on_c, 0, 50, 0
7, 109740, Note_on_c, 0, 49, 61
7, 109796, Note_on_c, 0, 49, 0
7, 109800, Note_on_c, 0, 50, 58
7, 109851, Note_on_c, 0, 50, 0
7, 109860, Note_on_c, 0, 47, 79
7, 109892, Note_on_c, 0, 47, 0
7, 109920, Note_on_c, 0, 47, 66
7, 109975, Note_on_c, 0, 47, 0
7, 109980, Note_on_c, 0, 44, 66
7, 110033, Note_on_c, 0, 44, 0
7, 110040, Note_on_c, 0, 41, 64
7, 110153, Note_on_c, 0, 41, 0
7, 110280, Note_on_c, 0, 53, 51
7, 110370, Note_on_c, 0, 53, 0
7, 110400, Note_on_c, 0, 54, 74
7, 110451, Note_on_c, 0, 54, 0
7, 110520, Note_on_c, 0, 50, 72
7, 110587, Note_on_c, 0, 50, 0
7, 110640, Note_on_c, 0, 47, 79
7, 110704, Note_on_c, 0, 47, 0
7, 110760, Note_on_c, 0, 49, 86
7, 110828, Note_on_c, 0, 49, 0
7, 110880, Note_on_c, 0, 42, 93
7, 111003, Note_on_c, 0, 42, 0
7, 111360, Note_on_c, 0, 54, 96
7, 111477, Note_on_c, 0, 54, 0
7, 111851, Channel_aftertouch_c, 0, 54
7, 111860, Channel_aftertouch_c, 0, 88
7, 111872, Channel_aftertouch_c, 0, 105
7, 111882, Channel_aftertouch_c, 0, 97
7, 111893, Channel_aftertouch_c, 0, 80
7, 111904, Channel_aftertouch_c, 0, 65
7, 111915, Channel_aftertouch_c, 0, 57
7, 111924, Channel_aftertouch_c, 0, 53
7, 111935, Channel_aftertouch_c, 0, 26
7, 111960, Note_on_c, 0, 42, 84
7, 111993, Note_on_c, 0, 42, 0
7, 112020, Note_on_c, 0, 54, 84
7, 112054, Note_on_c, 0, 54, 0
7, 112080, Note_on_c, 0, 44, 93
7, 112128, Note_on_c, 0, 44, 0
7, 112140, Note_on_c, 0, 56, 77
7, 112174, Note_on_c, 0, 56, 0
7, 112200, Note_on_c, 0, 46, 120
7, 112208, Channel_aftertouch_c, 0, 21
7, 112218, Channel_aftertouch_c, 0, 10
7, 112229, Channel_aftertouch_c, 0, 5
7, 112249, Note_on_c, 0, 46, 0
7, 112260, Note_on_c, 0, 58, 58
7, 112302, Note_on_c, 0, 58, 0
7, 112320, Note_on_c, 0, 47, 102
7, 112434, Note_on_c, 0, 47, 0
7, 112680, Note_on_c, 0, 59, 89
7, 112756, Note_on_c, 0, 59, 0
7, 112800, Note_on_c, 0, 47, 102
7, 112912, Note_on_c, 0, 47, 0
7, 113160, Note_on_c, 0, 59, 79
7, 113229, Note_on_c, 0, 59, 0
7, 113280, Note_on_c, 0, 47, 96
7, 113388, Note_on_c, 0, 47, 0
7, 113640, Note_on_c, 0, 59, 81
7, 113692, Note_on_c, 0, 59, 0
7, 113760, Note_on_c, 0, 44, 114
7, 113870, Note_on_c, 0, 44, 0
7, 114120, Note_on_c, 0, 56, 99
7, 114178, Note_on_c, 0, 56, 0
7, 114240, Note_on_c, 0, 41, 96
7, 114366, Note_on_c, 0, 41, 0
7, 114600, Note_on_c, 0, 53, 111
7, 114648, Note_on_c, 0, 53, 0
7, 114720, Note_on_c, 0, 37, 111
7, 114841, Note_on_c, 0, 37, 0
7, 115020, Note_on_c, 0, 49, 81
7, 115050, Note_on_c, 0, 51, 81
7, 115053, Note_on_c, 0, 49, 0
7, 115080, Note_on_c, 0, 53, 111
7, 115081, Note_on_c, 0, 51, 0
7, 115103, Note_on_c, 0, 53, 0
7, 115110, Note_on_c, 0, 54, 99
7, 115135, Note_on_c, 0, 54, 0
7, 115140, Note_on_c, 0, 56, 114
7, 115164, Note_on_c, 0, 56, 0
7, 115170, Note_on_c, 0, 57, 81
7, 115200, Note_on_c, 0, 59, 99
7, 115201, Note_on_c, 0, 57, 0
7, 115444, Note_on_c, 0, 59, 0
7, 115800, Note_on_c, 0, 56, 74
7, 115907, Note_on_c, 0, 56, 0
7, 115920, Note_on_c, 0, 57, 79
7, 116014, Note_on_c, 0, 57, 0
7, 116040, Note_on_c, 0, 54, 77
7, 116122, Note_on_c, 0, 54, 0
7, 116160, Note_on_c, 0, 48, 51
7, 116190, Note_on_c, 0, 51, 51
7, 116220, Note_on_c, 0, 54, 55
7, 116323, Note_on_c, 0, 48, 0
7, 116345, Note_on_c, 0, 51, 0
7, 116377, Note_on_c, 0, 54, 0
7, 116400, Note_on_c, 0, 49, 61
7, 116497, Note_on_c, 0, 49, 0
7, 116520, Note_on_c, 0, 37, 64
7, 116591, Note_on_c, 0, 37, 0
7, 116640, Note_on_c, 0, 42, 51
7, 116888, Note_on_c, 0, 42, 0
7, 117120, Note_on_c, 0, 50, 93
7, 117135, Channel_aftertouch_c, 0, 32
7, 117147, Channel_aftertouch_c, 0, 16
7, 117159, Channel_aftertouch_c, 0, 8
7, 117171, Channel_aftertouch_c, 0, 4
7, 117183, Channel_aftertouch_c, 0, 2
7, 117195, Channel_aftertouch_c, 0, 1
7, 117336, Note_on_c, 0, 50, 0
7, 117360, Note_on_c, 0, 38, 105
7, 117370, Channel_aftertouch_c, 0, 18
7, 117376, Channel_aftertouch_c, 0, 9
7, 117388, Channel_aftertouch_c, 0, 4
7, 117400, Channel_aftertouch_c, 0, 2
7, 117412, Channel_aftertouch_c, 0, 1
7, 117576, Note_on_c, 0, 38, 0
7, 117600, Note_on_c, 0, 50, 108
7, 117816, Note_on_c, 0, 50, 0
7, 117960, Note_on_c, 0, 38, 102
7, 117997, Note_on_c, 0, 38, 0
7, 118080, Note_on_c, 0, 50, 86
7, 118112, Note_on_c, 0, 50, 0
7, 118140, Note_on_c, 0, 52, 89
7, 118169, Note_on_c, 0, 52, 0
7, 118200, Note_on_c, 0, 54, 111
7, 118226, Note_on_c, 0, 54, 0
7, 118260, Note_on_c, 0, 52, 79
7, 118285, Note_on_c, 0, 52, 0
7, 118320, Note_on_c, 0, 50, 96
7, 118351, Note_on_c, 0, 50, 0
7, 118380, Note_on_c, 0, 52, 84
7, 118408, Note_on_c, 0, 52, 0
7, 118440, Note_on_c, 0, 54, 111
7, 118464, Note_on_c, 0, 54, 0
7, 118500, Note_on_c, 0, 52, 96
7, 118526, Note_on_c, 0, 52, 0
7, 118560, Note_on_c, 0, 50, 74
7, 118589, Note_on_c, 0, 50, 0
7, 118620, Note_on_c, 0, 52, 64
7, 118651, Note_on_c, 0, 52, 0
7, 118680, Note_on_c, 0, 54, 77
7, 118709, Note_on_c, 0, 54, 0
7, 118740, Note_on_c, 0, 52, 79
7, 118764, Note_on_c, 0, 52, 0
7, 118800, Note_on_c, 0, 50, 99
7, 118837, Note_on_c, 0, 50, 0
7, 118920, Note_on_c, 0, 49, 102
7, 118977, Note_on_c, 0, 49, 0
7, 119040, Note_on_c, 0, 47, 102
7, 119092, Note_on_c, 0, 47, 0
7, 119160, Note_on_c, 0, 49, 124
7, 119217, Note_on_c, 0, 49, 0
7, 119280, Note_on_c, 0, 50, 89
7, 119348, Note_on_c, 0, 50, 0
7, 119400, Note_on_c, 0, 38, 99
7, 119403, Channel_aftertouch_c, 0, 3
7, 119414, Channel_aftertouch_c, 0, 1
7, 119464, Note_on_c, 0, 38, 0
7, 119520, Note_on_c, 0, 45, 77
7, 119736, Note_on_c, 0, 45, 0
7, 120000, Note_on_c, 0, 42, 111
7, 120007, Channel_aftertouch_c, 0, 15
7, 120019, Channel_aftertouch_c, 0, 7
7, 120031, Channel_aftertouch_c, 0, 3
7, 120038, Note_on_c, 0, 42, 0
7, 120060, Note_on_c, 0, 43, 93
7, 120067, Channel_aftertouch_c, 0, 9
7, 120080, Channel_aftertouch_c, 0, 4
7, 120092, Channel_aftertouch_c, 0, 2
7, 120093, Note_on_c, 0, 43, 0
7, 120120, Note_on_c, 0, 45, 99
7, 120157, Note_on_c, 0, 45, 0
7, 120180, Note_on_c, 0, 47, 108
7, 120212, Note_on_c, 0, 47, 0
7, 120240, Note_on_c, 0, 49, 102
7, 120251, Channel_aftertouch_c, 0, 19
7, 120263, Channel_aftertouch_c, 0, 9
7, 120276, Note_on_c, 0, 49, 0
7, 120277, Channel_aftertouch_c, 0, 1
7, 120300, Note_on_c, 0, 50, 84
7, 120335, Note_on_c, 0, 50, 0
7, 120360, Note_on_c, 0, 52, 89
7, 120391, Note_on_c, 0, 52, 0
7, 120420, Note_on_c, 0, 54, 96
7, 120447, Note_on_c, 0, 54, 0
7, 120480, Note_on_c, 0, 47, 111
7, 120491, Channel_aftertouch_c, 0, 9
7, 120493, Channel_aftertouch_c, 0, 6
7, 120503, Channel_aftertouch_c, 0, 4
7, 120515, Channel_aftertouch_c, 0, 2
7, 120517, Channel_aftertouch_c, 0, 1
7, 120527, Channel_aftertouch_c, 0, 1
7, 120540, Note_on_c, 0, 51, 127
7, 120541, Note_on_c, 0, 47, 0
7, 120593, Note_on_c, 0, 51, 0
7, 120600, Note_on_c, 0, 54, 102
7, 120638, Note_on_c, 0, 54, 0
7, 120660, Note_on_c, 0, 59, 72
7, 120672, Note_on_c, 0, 59, 0
7, 120720, Note_on_c, 0, 59, 124
7, 120774, Note_on_c, 0, 59, 0
7, 120780, Note_on_c, 0, 54, 77
7, 120806, Note_on_c, 0, 54, 0
7, 120840, Note_on_c, 0, 51, 84
7, 120873, Note_on_c, 0, 51, 0
7, 120900, Note_on_c, 0, 47, 79
7, 120928, Note_on_c, 0, 47, 0
7, 120960, Note_on_c, 0, 40, 79
7, 121004, Note_on_c, 0, 40, 0
7, 121020, Note_on_c, 0, 42, 120
7, 121053, Note_on_c, 0, 42, 0
7, 121080, Note_on_c, 0, 43, 93
7, 121113, Note_on_c, 0, 43, 0
7, 121140, Note_on_c, 0, 45, 93
7, 121172, Note_on_c, 0, 45, 0
7, 121200, Note_on_c, 0, 47, 84
7, 121231, Note_on_c, 0, 47, 0
7, 121260, Note_on_c, 0, 49, 93
7, 121299, Note_on_c, 0, 49, 0
7, 121320, Note_on_c, 0, 50, 81
7, 121374, Note_on_c, 0, 50, 0
7, 121380, Note_on_c, 0, 52, 84
7, 121410, Note_on_c, 0, 52, 0
7, 121440, Note_on_c, 0, 45, 117
7, 121493, Note_on_c, 0, 45, 0
7, 121500, Note_on_c, 0, 49, 123
7, 121531, Note_on_c, 0, 49, 0
7, 121560, Note_on_c, 0, 52, 84
7, 121596, Note_on_c, 0, 52, 0
7, 121620, Note_on_c, 0, 57, 96
7, 121652, Note_on_c, 0, 57, 0
7, 121680, Note_on_c, 0, 57, 96
7, 121713, Note_on_c, 0, 57, 0
7, 121740, Note_on_c, 0, 52, 74
7, 121767, Note_on_c, 0, 52, 0
7, 121800, Note_on_c, 0, 49, 66
7, 121828, Note_on_c, 0, 49, 0
7, 121860, Note_on_c, 0, 45, 93
7, 121889, Note_on_c, 0, 45, 0
7, 121920, Note_on_c, 0, 38, 99
7, 121960, Note_on_c, 0, 38, 0
7, 121980, Note_on_c, 0, 40, 84
7, 122022, Note_on_c, 0, 40, 0
7, 122040, Note_on_c, 0, 42, 126
7, 122069, Note_on_c, 0, 42, 0
7, 122100, Note_on_c, 0, 43, 99
7, 122135, Note_on_c, 0, 43, 0
7, 122160, Note_on_c, 0, 45, 93
7, 122192, Note_on_c, 0, 45, 0
7, 122220, Note_on_c, 0, 47, 84
7, 122256, Note_on_c, 0, 47, 0
7, 122280, Note_on_c, 0, 49, 114
7, 122322, Note_on_c, 0, 49, 0
7, 122340, Note_on_c, 0, 50, 102
7, 122352, Channel_aftertouch_c, 0, 1
7, 122367, Note_on_c, 0, 50, 0
7, 122400, Note_on_c, 0, 47, 108
7, 122459, Note_on_c, 0, 47, 0
7, 122520, Note_on_c, 0, 59, 127
7, 122662, Note_on_c, 0, 59, 0
7, 122760, Note_on_c, 0, 57, 127
7, 122816, Note_on_c, 0, 57, 0
7, 122880, Note_on_c, 0, 43, 127
7, 122926, Note_on_c, 0, 43, 0
7, 123000, Note_on_c, 0, 55, 127
7, 123171, Note_on_c, 0, 55, 0
7, 123240, Note_on_c, 0, 54, 125
7, 123297, Note_on_c, 0, 54, 0
7, 123360, Note_on_c, 0, 40, 124
7, 123406, Note_on_c, 0, 40, 0
7, 123480, Note_on_c, 0, 52, 117
7, 123669, Note_on_c, 0, 52, 0
7, 123720, Note_on_c, 0, 50, 111
7, 123781, Note_on_c, 0, 50, 0
7, 123840, Note_on_c, 0, 49, 123
7, 123900, Note_on_c, 0, 49, 0
7, 123960, Note_on_c, 0, 52, 93
7, 124033, Note_on_c, 0, 52, 0
7, 124080, Note_on_c, 0, 57, 84
7, 124149, Note_on_c, 0, 57, 0
7, 124200, Note_on_c, 0, 52, 89
7, 124238, Note_on_c, 0, 52, 0
7, 124320, Note_on_c, 0, 49, 127
7, 124374, Note_on_c, 0, 49, 0
7, 124380, Note_on_c, 0, 50, 74
7, 124399, Note_on_c, 0, 50, 0
7, 124440, Note_on_c, 0, 52, 91
7, 124469, Note_on_c, 0, 52, 0
7, 124500, Note_on_c, 0, 49, 127
7, 124512, Note_on_c, 0, 49, 0
7, 124560, Note_on_c, 0, 45, 89
7, 124599, Note_on_c, 0, 45, 0
7, 124620, Note_on_c, 0, 47, 86
7, 124655, Note_on_c, 0, 47, 0
7, 124680, Note_on_c, 0, 49, 117
7, 124709, Note_on_c, 0, 49, 0
7, 124740, Note_on_c, 0, 45, 72
7, 124771, Note_on_c, 0, 45, 0
7, 124800, Note_on_c, 0, 50, 77
7, 124864, Note_on_c, 0, 50, 0
7, 124920, Note_on_c, 0, 54, 84
7, 124994, Note_on_c, 0, 54, 0
7, 125040, Note_on_c, 0, 55, 84
7, 125113, Note_on_c, 0, 55, 0
7, 125160, Note_on_c, 0, 57, 108
7, 125232, Note_on_c, 0, 57, 0
7, 125280, Note_on_c, 0, 59, 108
7, 125335, Note_on_c, 0, 59, 0
7, 125400, Note_on_c, 0, 42, 126
7, 125437, Note_on_c, 0, 42, 0
7, 125460, Note_on_c, 0, 54, 111
7, 125491, Note_on_c, 0, 54, 0
7, 125520, Note_on_c, 0, 43, 105
7, 125556, Note_on_c, 0, 43, 0
7, 125580, Note_on_c, 0, 55, 86
7, 125612, Note_on_c, 0, 55, 0
7, 125640, Note_on_c, 0, 45, 64
7, 125677, Note_on_c, 0, 45, 0
7, 125700, Note_on_c, 0, 57, 89
7, 125731, Note_on_c, 0, 57, 0
7, 125760, Note_on_c, 0, 47, 86
7, 125795, Note_on_c, 0, 47, 0
7, 125820, Note_on_c, 0, 59, 77
7, 125838, Note_on_c, 0, 59, 0
7, 125880, Note_on_c, 0, 42, 126
7, 125917, Note_on_c, 0, 42, 0
7, 125940, Note_on_c, 0, 54, 86
7, 125973, Note_on_c, 0, 54, 0
7, 126000, Note_on_c, 0, 43, 108
7, 126036, Note_on_c, 0, 43, 0
7, 126060, Note_on_c, 0, 55, 74
7, 126097, Note_on_c, 0, 55, 0
7, 126120, Note_on_c, 0, 45, 74
7, 126164, Note_on_c, 0, 45, 0
7, 126180, Note_on_c, 0, 57, 81
7, 126215, Note_on_c, 0, 57, 0
7, 126240, Note_on_c, 0, 47, 79
7, 126278, Note_on_c, 0, 47, 0
7, 126300, Note_on_c, 0, 59, 69
7, 126329, Note_on_c, 0, 59, 0
7, 126360, Note_on_c, 0, 45, 102
7, 126398, Note_on_c, 0, 45, 0
7, 126420, Note_on_c, 0, 57, 84
7, 126451, Note_on_c, 0, 57, 0
7, 126480, Note_on_c, 0, 47, 96
7, 126520, Note_on_c, 0, 47, 0
7, 126540, Note_on_c, 0, 59, 84
7, 126571, Note_on_c, 0, 59, 0
7, 126600, Note_on_c, 0, 49, 99
7, 126638, Note_on_c, 0, 49, 0
7, 126660, Note_on_c, 0, 61, 72
7, 126679, Note_on_c, 0, 61, 0
7, 126720, Note_on_c, 0, 50, 111
7, 126792, Note_on_c, 0, 50, 0
7, 126840, Note_on_c, 0, 47, 77
7, 126913, Note_on_c, 0, 47, 0
7, 126960, Note_on_c, 0, 43, 108
7, 126969, Channel_aftertouch_c, 0, 6
7, 126981, Channel_aftertouch_c, 0, 3
7, 127041, Note_on_c, 0, 43, 0
7, 127080, Note_on_c, 0, 45, 74
7, 127149, Note_on_c, 0, 45, 0
7, 127200, Note_on_c, 0, 38, 124
7, 127327, Note_on_c, 0, 38, 0
7, 127500, Note_on_c, 0, 61, 96
7, 127530, Note_on_c, 0, 59, 79
7, 127537, Note_on_c, 0, 61, 0
7, 127560, Note_on_c, 0, 57, 74
7, 127562, Note_on_c, 0, 59, 0
7, 127589, Note_on_c, 0, 57, 0
7, 127590, Note_on_c, 0, 55, 77
7, 127614, Note_on_c, 0, 55, 0
7, 127620, Note_on_c, 0, 54, 84
7, 127636, Note_on_c, 0, 54, 0
7, 127650, Note_on_c, 0, 52, 84
7, 127677, Note_on_c, 0, 52, 0
7, 127680, Note_on_c, 0, 50, 81
7, 127807, Note_on_c, 0, 50, 0
7, 128160, Note_on_c, 0, 50, 84
7, 128205, Note_on_c, 0, 50, 0
7, 128220, Note_on_c, 0, 45, 84
7, 128266, Note_on_c, 0, 45, 0
7, 128280, Note_on_c, 0, 50, 72
7, 128322, Note_on_c, 0, 50, 0
7, 128340, Note_on_c, 0, 52, 69
7, 128378, Note_on_c, 0, 52, 0
7, 128400, Note_on_c, 0, 54, 89
7, 128452, Note_on_c, 0, 54, 0
7, 128460, Note_on_c, 0, 50, 79
7, 128512, Note_on_c, 0, 50, 0
7, 128520, Note_on_c, 0, 52, 66
7, 128564, Note_on_c, 0, 52, 0
7, 128580, Note_on_c, 0, 54, 91
7, 128606, Note_on_c, 0, 54, 0
7, 128640, Note_on_c, 0, 55, 111
7, 128735, Note_on_c, 0, 55, 0
7, 128940, Note_on_c, 0, 54, 79
7, 128982, Note_on_c, 0, 54, 0
7, 129000, Note_on_c, 0, 52, 79
7, 129045, Note_on_c, 0, 52, 0
7, 129060, Note_on_c, 0, 50, 79
7, 129112, Note_on_c, 0, 50, 0
7, 129120, Note_on_c, 0, 55, 74
7, 129256, Note_on_c, 0, 55, 0
7, 129480, Note_on_c, 0, 54, 86
7, 129536, Note_on_c, 0, 54, 0
7, 129600, Note_on_c, 0, 52, 72
7, 129656, Note_on_c, 0, 52, 0
7, 129720, Note_on_c, 0, 49, 91
7, 129774, Note_on_c, 0, 49, 0
7, 129840, Note_on_c, 0, 50, 84
7, 129892, Note_on_c, 0, 50, 0
7, 129960, Note_on_c, 0, 38, 123
7, 130019, Note_on_c, 0, 38, 0
7, 130080, Note_on_c, 0, 45, 99
7, 130279, Note_on_c, 0, 45, 0
7, 130560, Note_on_c, 0, 50, 120
7, 130776, Note_on_c, 0, 50, 0
7, 130800, Note_on_c, 0, 38, 96
7, 130890, Channel_aftertouch_c, 0, 3
7, 130902, Channel_aftertouch_c, 0, 4
7, 130914, Channel_aftertouch_c, 0, 2
7, 131016, Note_on_c, 0, 38, 0
7, 131040, Note_on_c, 0, 50, 124
7, 131256, Note_on_c, 0, 50, 0
7, 131400, Note_on_c, 0, 38, 114
7, 131429, Note_on_c, 0, 38, 0
7, 131520, Note_on_c, 0, 50, 89
7, 131574, Note_on_c, 0, 50, 0
7, 131580, Note_on_c, 0, 52, 102
7, 131617, Note_on_c, 0, 52, 0
7, 131640, Note_on_c, 0, 54, 84
7, 131668, Note_on_c, 0, 54, 0
7, 131700, Note_on_c, 0, 52, 81
7, 131729, Note_on_c, 0, 52, 0
7, 131760, Note_on_c, 0, 50, 84
7, 131792, Note_on_c, 0, 50, 0
7, 131820, Note_on_c, 0, 52, 72
7, 131850, Note_on_c, 0, 52, 0
7, 131880, Note_on_c, 0, 54, 102
7, 131907, Note_on_c, 0, 54, 0
7, 131940, Note_on_c, 0, 52, 69
7, 131971, Note_on_c, 0, 52, 0
7, 132000, Note_on_c, 0, 50, 84
7, 132033, Note_on_c, 0, 50, 0
7, 132060, Note_on_c, 0, 52, 79
7, 132091, Note_on_c, 0, 52, 0
7, 132120, Note_on_c, 0, 54, 102
7, 132153, Note_on_c, 0, 54, 0
7, 132180, Note_on_c, 0, 52, 66
7, 132210, Note_on_c, 0, 52, 0
7, 132240, Note_on_c, 0, 50, 69
7, 132296, Note_on_c, 0, 50, 0
7, 132360, Note_on_c, 0, 49, 69
7, 132421, Note_on_c, 0, 49, 0
7, 132480, Note_on_c, 0, 47, 72
7, 132540, Note_on_c, 0, 47, 0
7, 132600, Note_on_c, 0, 49, 81
7, 132660, Note_on_c, 0, 49, 0
7, 132720, Note_on_c, 0, 50, 108
7, 132772, Note_on_c, 0, 50, 0
7, 132840, Note_on_c, 0, 38, 124
7, 132894, Note_on_c, 0, 38, 0
7, 132960, Note_on_c, 0, 45, 86
7, 133142, Note_on_c, 0, 45, 0
7, 133320, Note_on_c, 0, 57, 105
7, 133339, Note_on_c, 0, 57, 0
7, 133440, Note_on_c, 0, 57, 89
7, 133547, Note_on_c, 0, 57, 0
7, 133560, Note_on_c, 0, 45, 77
7, 133667, Note_on_c, 0, 45, 0
7, 133800, Note_on_c, 0, 57, 81
7, 133818, Note_on_c, 0, 57, 0
7, 133920, Note_on_c, 0, 57, 120
7, 134033, Note_on_c, 0, 57, 0
7, 134040, Note_on_c, 0, 45, 81
7, 134164, Note_on_c, 0, 45, 0
7, 134280, Note_on_c, 0, 57, 69
7, 134295, Note_on_c, 0, 57, 0
7, 134400, Note_on_c, 0, 57, 74
7, 134513, Note_on_c, 0, 57, 0
7, 134520, Note_on_c, 0, 45, 64
7, 134639, Note_on_c, 0, 45, 0
7, 134760, Note_on_c, 0, 57, 64
7, 134786, Note_on_c, 0, 57, 0
7, 134880, Note_on_c, 0, 57, 64
7, 134973, Note_on_c, 0, 57, 0
7, 135000, Note_on_c, 0, 45, 66
7, 135135, Note_on_c, 0, 45, 0
7, 135720, Note_on_c, 0, 45, 89
7, 135764, Note_on_c, 0, 45, 0
7, 135840, Note_on_c, 0, 57, 96
7, 135875, Note_on_c, 0, 57, 0
7, 135900, Note_on_c, 0, 59, 74
7, 135931, Note_on_c, 0, 59, 0
7, 135960, Note_on_c, 0, 61, 69
7, 135991, Note_on_c, 0, 61, 0
7, 136020, Note_on_c, 0, 59, 79
7, 136055, Note_on_c, 0, 59, 0
7, 136080, Note_on_c, 0, 57, 66
7, 136116, Note_on_c, 0, 57, 0
7, 136140, Note_on_c, 0, 59, 74
7, 136171, Note_on_c, 0, 59, 0
7, 136200, Note_on_c, 0, 61, 96
7, 136230, Note_on_c, 0, 61, 0
7, 136260, Note_on_c, 0, 59, 79
7, 136295, Note_on_c, 0, 59, 0
7, 136320, Note_on_c, 0, 57, 79
7, 136356, Note_on_c, 0, 57, 0
7, 136380, Note_on_c, 0, 59, 72
7, 136416, Note_on_c, 0, 59, 0
7, 136440, Note_on_c, 0, 61, 79
7, 136486, Note_on_c, 0, 61, 0
7, 136500, Note_on_c, 0, 59, 72
7, 136538, Note_on_c, 0, 59, 0
7, 136560, Note_on_c, 0, 57, 77
7, 136626, Note_on_c, 0, 57, 0
7, 136680, Note_on_c, 0, 45, 102
7, 136740, Note_on_c, 0, 45, 0
7, 136800, Note_on_c, 0, 57, 79
7, 136878, Note_on_c, 0, 57, 0
7, 136920, Note_on_c, 0, 61, 61
7, 136960, Note_on_c, 0, 61, 0
7, 136980, Note_on_c, 0, 59, 72
7, 137033, Note_on_c, 0, 59, 0
7, 137040, Note_on_c, 0, 57, 72
7, 137097, Note_on_c, 0, 57, 0
7, 137160, Note_on_c, 0, 52, 84
7, 137206, Note_on_c, 0, 52, 0
7, 137280, Note_on_c, 0, 57, 89
7, 137354, Note_on_c, 0, 57, 0
7, 137400, Note_on_c, 0, 61, 51
7, 137446, Note_on_c, 0, 61, 0
7, 137460, Note_on_c, 0, 59, 69
7, 137506, Note_on_c, 0, 59, 0
7, 137520, Note_on_c, 0, 57, 72
7, 137577, Note_on_c, 0, 57, 0
7, 137640, Note_on_c, 0, 52, 58
7, 137707, Note_on_c, 0, 52, 0
7, 137760, Note_on_c, 0, 54, 89
7, 137855, Note_on_c, 0, 54, 0
7, 137880, Note_on_c, 0, 59, 77
7, 137919, Note_on_c, 0, 59, 0
7, 137940, Note_on_c, 0, 57, 84
7, 137980, Note_on_c, 0, 57, 0
7, 138000, Note_on_c, 0, 56, 93
7, 138059, Note_on_c, 0, 56, 0
7, 138120, Note_on_c, 0, 54, 77
7, 138177, Note_on_c, 0, 54, 0
7, 138240, Note_on_c, 0, 52, 89
7, 138299, Note_on_c, 0, 52, 0
7, 138360, Note_on_c, 0, 54, 89
7, 138417, Note_on_c, 0, 54, 0
7, 138480, Note_on_c, 0, 56, 81
7, 138600, Note_on_c, 0, 52, 89
7, 138607, Note_on_c, 0, 56, 0
7, 138663, Note_on_c, 0, 52, 0
7, 138720, Note_on_c, 0, 57, 105
7, 138936, Note_on_c, 0, 57, 0
7, 138960, Note_on_c, 0, 56, 127
7, 139176, Note_on_c, 0, 56, 0
7, 139200, Note_on_c, 0, 54, 111
7, 139416, Note_on_c, 0, 54, 0
7, 139440, Note_on_c, 0, 47, 108
7, 139656, Note_on_c, 0, 47, 0
7, 139680, Note_on_c, 0, 52, 102
7, 139896, Note_on_c, 0, 52, 0
7, 139980, Note_on_c, 0, 54, 93
7, 140036, Note_on_c, 0, 54, 0
7, 140040, Note_on_c, 0, 52, 102
7, 140095, Note_on_c, 0, 52, 0
7, 140100, Note_on_c, 0, 50, 81
7, 140157, Note_on_c, 0, 50, 0
7, 140160, Note_on_c, 0, 49, 64
7, 140175, Channel_aftertouch_c, 0, 12
7, 140187, Channel_aftertouch_c, 0, 6
7, 140217, Note_on_c, 0, 49, 0
7, 140220, Note_on_c, 0, 50, 64
7, 140277, Note_on_c, 0, 50, 0
7, 140280, Note_on_c, 0, 52, 84
7, 140333, Note_on_c, 0, 52, 0
7, 140340, Note_on_c, 0, 54, 111
7, 140385, Note_on_c, 0, 54, 0
7, 140400, Note_on_c, 0, 56, 64
7, 140457, Note_on_c, 0, 56, 0
7, 140460, Note_on_c, 0, 57, 102
7, 140506, Note_on_c, 0, 57, 0
7, 140520, Note_on_c, 0, 59, 79
7, 140557, Note_on_c, 0, 59, 0
7, 140580, Note_on_c, 0, 61, 81
7, 140610, Note_on_c, 0, 61, 0
7, 140640, Note_on_c, 0, 54, 93
7, 140649, Channel_aftertouch_c, 0, 38
7, 140660, Channel_aftertouch_c, 0, 19
7, 140672, Channel_aftertouch_c, 0, 12
7, 140684, Channel_aftertouch_c, 0, 6
7, 140696, Channel_aftertouch_c, 0, 3
7, 140700, Note_on_c, 0, 58, 69
7, 140709, Note_on_c, 0, 54, 0
7, 140755, Note_on_c, 0, 58, 0
7, 140760, Note_on_c, 0, 61, 89
7, 140816, Note_on_c, 0, 61, 0
7, 140820, Note_on_c, 0, 64, 77
7, 140846, Note_on_c, 0, 64, 0
7, 140880, Note_on_c, 0, 64, 114
7, 140936, Note_on_c, 0, 64, 0
7, 140940, Note_on_c, 0, 61, 89
7, 140999, Note_on_c, 0, 61, 0
7, 141000, Note_on_c, 0, 58, 58
7, 141057, Note_on_c, 0, 58, 0
7, 141060, Note_on_c, 0, 54, 89
7, 141097, Note_on_c, 0, 54, 0
7, 141120, Note_on_c, 0, 47, 72
7, 141179, Note_on_c, 0, 47, 0
7, 141180, Note_on_c, 0, 49, 111
7, 141192, Channel_aftertouch_c, 0, 18
7, 141203, Channel_aftertouch_c, 0, 9
7, 141237, Note_on_c, 0, 49, 0
7, 141240, Note_on_c, 0, 50, 86
7, 141286, Note_on_c, 0, 50, 0
7, 141300, Note_on_c, 0, 52, 89
7, 141342, Note_on_c, 0, 52, 0
7, 141360, Note_on_c, 0, 54, 61
7, 141415, Note_on_c, 0, 54, 0
7, 141420, Note_on_c, 0, 56, 77
7, 141479, Note_on_c, 0, 56, 0
7, 141480, Note_on_c, 0, 57, 77
7, 141483, Channel_aftertouch_c, 0, 6
7, 141494, Channel_aftertouch_c, 0, 3
7, 141517, Note_on_c, 0, 57, 0
7, 141540, Note_on_c, 0, 59, 69
7, 141596, Note_on_c, 0, 59, 0
7, 141600, Note_on_c, 0, 52, 72
7, 141656, Note_on_c, 0, 52, 0
7, 141660, Note_on_c, 0, 56, 61
7, 141716, Note_on_c, 0, 56, 0
7, 141720, Note_on_c, 0, 59, 74
7, 141774, Note_on_c, 0, 59, 0
7, 141780, Note_on_c, 0, 62, 77
7, 141809, Note_on_c, 0, 62, 0
7, 141840, Note_on_c, 0, 62, 79
7, 141896, Note_on_c, 0, 62, 0
7, 141900, Note_on_c, 0, 59, 66
7, 141956, Note_on_c, 0, 59, 0
7, 141960, Note_on_c, 0, 56, 89
7, 142015, Note_on_c, 0, 56, 0
7, 142020, Note_on_c, 0, 52, 69
7, 142048, Note_on_c, 0, 52, 0
7, 142080, Note_on_c, 0, 45, 81
7, 142137, Note_on_c, 0, 45, 0
7, 142140, Note_on_c, 0, 47, 84
7, 142195, Note_on_c, 0, 47, 0
7, 142200, Note_on_c, 0, 49, 105
7, 142245, Note_on_c, 0, 49, 0
7, 142260, Note_on_c, 0, 50, 74
7, 142314, Note_on_c, 0, 50, 0
7, 142320, Note_on_c, 0, 52, 69
7, 142372, Note_on_c, 0, 52, 0
7, 142380, Note_on_c, 0, 54, 66
7, 142434, Note_on_c, 0, 54, 0
7, 142440, Note_on_c, 0, 56, 81
7, 142516, Note_on_c, 0, 56, 0
7, 142560, Note_on_c, 0, 54, 105
7, 142614, Note_on_c, 0, 54, 0
7, 142680, Note_on_c, 0, 42, 114
7, 142867, Note_on_c, 0, 42, 0
7, 142920, Note_on_c, 0, 40, 111
7, 142997, Note_on_c, 0, 40, 0
7, 143040, Note_on_c, 0, 38, 123
7, 143101, Note_on_c, 0, 38, 0
7, 143160, Note_on_c, 0, 50, 123
7, 143383, Note_on_c, 0, 50, 0
7, 143400, Note_on_c, 0, 49, 96
7, 143463, Note_on_c, 0, 49, 0
7, 143520, Note_on_c, 0, 47, 89
7, 143574, Note_on_c, 0, 47, 0
7, 143640, Note_on_c, 0, 59, 111
7, 143845, Note_on_c, 0, 59, 0
7, 143880, Note_on_c, 0, 57, 120
7, 143935, Note_on_c, 0, 57, 0
7, 144000, Note_on_c, 0, 56, 126
7, 144055, Note_on_c, 0, 56, 0
7, 144120, Note_on_c, 0, 44, 124
7, 144348, Note_on_c, 0, 44, 0
7, 144360, Note_on_c, 0, 56, 123
7, 144402, Note_on_c, 0, 56, 0
7, 144420, Note_on_c, 0, 54, 102
7, 144476, Note_on_c, 0, 54, 0
7, 144480, Note_on_c, 0, 52, 96
7, 144576, Note_on_c, 0, 52, 0
7, 144600, Note_on_c, 0, 40, 96
7, 144693, Note_on_c, 0, 40, 0
7, 144720, Note_on_c, 0, 42, 81
7, 144808, Note_on_c, 0, 42, 0
7, 144840, Note_on_c, 0, 44, 102
7, 144921, Note_on_c, 0, 44, 0
7, 144960, Note_on_c, 0, 45, 86
7, 145060, Note_on_c, 0, 45, 0
7, 145080, Note_on_c, 0, 37, 114
7, 145083, Channel_aftertouch_c, 0, 44
7, 145094, Channel_aftertouch_c, 0, 22
7, 145106, Channel_aftertouch_c, 0, 11
7, 145117, Channel_aftertouch_c, 0, 5
7, 145134, Note_on_c, 0, 37, 0
7, 145140, Note_on_c, 0, 49, 124
7, 145151, Channel_aftertouch_c, 0, 3
7, 145164, Channel_aftertouch_c, 0, 1
7, 145186, Note_on_c, 0, 49, 0
7, 145200, Note_on_c, 0, 38, 102
7, 145210, Channel_aftertouch_c, 0, 12
7, 145223, Channel_aftertouch_c, 0, 6
7, 145235, Channel_aftertouch_c, 0, 3
7, 145257, Note_on_c, 0, 38, 0
7, 145260, Note_on_c, 0, 50, 89
7, 145269, Channel_aftertouch_c, 0, 12
7, 145281, Channel_aftertouch_c, 0, 9
7, 145292, Channel_aftertouch_c, 0, 4
7, 145305, Note_on_c, 0, 50, 0
7, 145305, Channel_aftertouch_c, 0, 2
7, 145320, Note_on_c, 0, 40, 86
7, 145377, Note_on_c, 0, 40, 0
7, 145380, Note_on_c, 0, 52, 77
7, 145382, Channel_aftertouch_c, 0, 1
7, 145425, Note_on_c, 0, 52, 0
7, 145440, Note_on_c, 0, 45, 96
7, 145535, Note_on_c, 0, 45, 0
7, 145560, Note_on_c, 0, 49, 105
7, 145644, Note_on_c, 0, 49, 0
7, 145680, Note_on_c, 0, 50, 102
7, 145760, Note_on_c, 0, 50, 0
7, 145800, Note_on_c, 0, 52, 66
7, 145893, Note_on_c, 0, 52, 0
7, 145920, Note_on_c, 0, 54, 77
7, 146016, Note_on_c, 0, 54, 0
7, 146040, Note_on_c, 0, 49, 81
7, 146115, Channel_aftertouch_c, 0, 3
7, 146126, Note_on_c, 0, 49, 0
7, 146127, Channel_aftertouch_c, 0, 1
7, 146160, Note_on_c, 0, 50, 72
7, 146256, Note_on_c, 0, 50, 0
7, 146280, Note_on_c, 0, 52, 66
7, 146353, Note_on_c, 0, 52, 0
7, 146400, Note_on_c, 0, 45, 96
7, 146616, Note_on_c, 0, 45, 0
7, 146760, Note_on_c, 0, 64, 108
7, 146795, Note_on_c, 0, 64, 0
7, 146820, Note_on_c, 0, 61, 91
7, 146860, Note_on_c, 0, 61, 0
7, 146880, Note_on_c, 0, 57, 84
7, 146969, Note_on_c, 0, 57, 0
7, 147000, Note_on_c, 0, 61, 86
7, 147053, Note_on_c, 0, 61, 0
7, 147060, Note_on_c, 0, 57, 96
7, 147099, Note_on_c, 0, 57, 0
7, 147120, Note_on_c, 0, 52, 84
7, 147233, Note_on_c, 0, 52, 0
7, 147240, Note_on_c, 0, 57, 64
7, 147297, Note_on_c, 0, 57, 0
7, 147300, Note_on_c, 0, 52, 69
7, 147357, Note_on_c, 0, 52, 0
7, 147360, Note_on_c, 0, 49, 64
7, 147385, Note_on_c, 0, 49, 0
7, 147390, Note_on_c, 0, 50, 72
7, 147407, Note_on_c, 0, 50, 0
7, 147420, Note_on_c, 0, 52, 79
7, 147456, Note_on_c, 0, 52, 0
7, 147480, Note_on_c, 0, 45, 89
7, 147804, Note_on_c, 0, 45, 0
7, 147960, Note_on_c, 0, 37, 105
7, 147999, Note_on_c, 0, 37, 0
7, 148020, Note_on_c, 0, 49, 93
7, 148064, Note_on_c, 0, 49, 0
7, 148080, Note_on_c, 0, 38, 102
7, 148132, Note_on_c, 0, 38, 0
7, 148140, Note_on_c, 0, 50, 89
7, 148184, Note_on_c, 0, 50, 0
7, 148200, Note_on_c, 0, 40, 93
7, 148260, Note_on_c, 0, 52, 84
7, 148261, Note_on_c, 0, 40, 0
7, 148299, Note_on_c, 0, 52, 0
7, 148320, Note_on_c, 0, 42, 84
7, 148380, Note_on_c, 0, 54, 84
7, 148386, Note_on_c, 0, 42, 0
7, 148426, Note_on_c, 0, 54, 0
7, 148440, Note_on_c, 0, 40, 89
7, 148500, Note_on_c, 0, 52, 79
7, 148504, Note_on_c, 0, 40, 0
7, 148533, Note_on_c, 0, 52, 0
7, 148560, Note_on_c, 0, 42, 91
7, 148620, Note_on_c, 0, 54, 81
7, 148624, Note_on_c, 0, 42, 0
7, 148657, Note_on_c, 0, 54, 0
7, 148680, Note_on_c, 0, 44, 72
7, 148740, Note_on_c, 0, 56, 66
7, 148766, Note_on_c, 0, 44, 0
7, 148794, Note_on_c, 0, 56, 0
7, 148800, Note_on_c, 0, 45, 93
7, 148878, Note_on_c, 0, 45, 0
7, 148920, Note_on_c, 0, 42, 51
7, 148981, Note_on_c, 0, 42, 0
7, 149040, Note_on_c, 0, 38, 81
7, 149132, Note_on_c, 0, 38, 0
7, 149160, Note_on_c, 0, 40, 77
7, 149248, Note_on_c, 0, 40, 0
7, 149280, Note_on_c, 0, 45, 108
7, 149496, Note_on_c, 0, 45, 0
7, 149760, Note_on_c, 0, 50, 96
7, 149976, Note_on_c, 0, 50, 0
7, 150000, Note_on_c, 0, 38, 89
7, 150216, Note_on_c, 0, 38, 0
7, 150240, Note_on_c, 0, 50, 77
7, 150456, Note_on_c, 0, 50, 0
7, 150600, Note_on_c, 0, 50, 89
7, 150642, Note_on_c, 0, 50, 0
7, 150720, Note_on_c, 0, 50, 102
7, 150826, Note_on_c, 0, 50, 0
7, 150840, Note_on_c, 0, 38, 77
7, 150945, Note_on_c, 0, 38, 0
7, 151080, Note_on_c, 0, 50, 93
7, 151098, Note_on_c, 0, 50, 0
7, 151200, Note_on_c, 0, 50, 96
7, 151292, Note_on_c, 0, 50, 0
7, 151320, Note_on_c, 0, 38, 84
7, 151419, Note_on_c, 0, 38, 0
7, 151560, Note_on_c, 0, 50, 84
7, 151591, Note_on_c, 0, 50, 0
7, 151680, Note_on_c, 0, 50, 84
7, 151783, Note_on_c, 0, 50, 0
7, 151800, Note_on_c, 0, 38, 89
7, 151899, Note_on_c, 0, 38, 0
7, 152040, Note_on_c, 0, 50, 74
7, 152073, Note_on_c, 0, 50, 0
7, 152160, Note_on_c, 0, 50, 64
7, 152248, Note_on_c, 0, 50, 0
7, 152280, Note_on_c, 0, 38, 79
7, 152387, Note_on_c, 0, 38, 0
7, 153000, Note_on_c, 0, 38, 96
7, 153039, Note_on_c, 0, 38, 0
7, 153120, Note_on_c, 0, 50, 89
7, 153162, Note_on_c, 0, 50, 0
7, 153180, Note_on_c, 0, 52, 77
7, 153219, Note_on_c, 0, 52, 0
7, 153240, Note_on_c, 0, 54, 74
7, 153271, Note_on_c, 0, 54, 0
7, 153300, Note_on_c, 0, 52, 102
7, 153333, Note_on_c, 0, 52, 0
7, 153360, Note_on_c, 0, 50, 72
7, 153399, Note_on_c, 0, 50, 0
7, 153420, Note_on_c, 0, 52, 74
7, 153452, Note_on_c, 0, 52, 0
7, 153480, Note_on_c, 0, 54, 84
7, 153513, Note_on_c, 0, 54, 0
7, 153540, Note_on_c, 0, 52, 72
7, 153578, Note_on_c, 0, 52, 0
7, 153600, Note_on_c, 0, 50, 84
7, 153639, Note_on_c, 0, 50, 0
7, 153660, Note_on_c, 0, 52, 72
7, 153699, Note_on_c, 0, 52, 0
7, 153720, Note_on_c, 0, 54, 96
7, 153756, Note_on_c, 0, 54, 0
7, 153780, Note_on_c, 0, 52, 69
7, 153811, Note_on_c, 0, 52, 0
7, 153840, Note_on_c, 0, 50, 84
7, 153918, Note_on_c, 0, 50, 0
7, 153960, Note_on_c, 0, 38, 102
7, 154029, Note_on_c, 0, 38, 0
7, 154080, Note_on_c, 0, 50, 64
7, 154176, Note_on_c, 0, 50, 0
7, 154200, Note_on_c, 0, 54, 89
7, 154240, Note_on_c, 0, 54, 0
7, 154260, Note_on_c, 0, 52, 72
7, 154316, Note_on_c, 0, 52, 0
7, 154320, Note_on_c, 0, 50, 89
7, 154396, Note_on_c, 0, 50, 0
7, 154440, Note_on_c, 0, 45, 89
7, 154504, Note_on_c, 0, 45, 0
7, 154560, Note_on_c, 0, 50, 79
7, 154636, Note_on_c, 0, 50, 0
7, 154680, Note_on_c, 0, 54, 81
7, 154720, Note_on_c, 0, 54, 0
7, 154740, Note_on_c, 0, 52, 69
7, 154780, Note_on_c, 0, 52, 0
7, 154800, Note_on_c, 0, 50, 84
7, 154875, Note_on_c, 0, 50, 0
7, 154920, Note_on_c, 0, 45, 89
7, 155005, Note_on_c, 0, 45, 0
7, 155040, Note_on_c, 0, 47, 66
7, 155134, Note_on_c, 0, 47, 0
7, 155160, Note_on_c, 0, 52, 74
7, 155200, Note_on_c, 0, 52, 0
7, 155220, Note_on_c, 0, 50, 77
7, 155259, Note_on_c, 0, 50, 0
7, 155280, Note_on_c, 0, 49, 89
7, 155360, Note_on_c, 0, 49, 0
7, 155400, Note_on_c, 0, 47, 84
7, 155484, Note_on_c, 0, 47, 0
7, 155520, Note_on_c, 0, 45, 96
7, 155608, Note_on_c, 0, 45, 0
7, 155640, Note_on_c, 0, 47, 69
7, 155697, Note_on_c, 0, 47, 0
7, 155760, Note_on_c, 0, 49, 84
7, 155816, Note_on_c, 0, 49, 0
7, 155880, Note_on_c, 0, 45, 89
7, 155935, Note_on_c, 0, 45, 0
7, 156000, Note_on_c, 0, 50, 108
7, 156216, Note_on_c, 0, 50, 0
7, 156240, Note_on_c, 0, 49, 89
7, 156456, Note_on_c, 0, 49, 0
7, 156480, Note_on_c, 0, 47, 77
7, 156696, Note_on_c, 0, 47, 0
7, 156720, Note_on_c, 0, 52, 84
7, 156936, Note_on_c, 0, 52, 0
7, 156960, Note_on_c, 0, 45, 96
7, 157176, Note_on_c, 0, 45, 0
7, 157260, Note_on_c, 0, 47, 86
7, 157316, Note_on_c, 0, 47, 0
7, 157320, Note_on_c, 0, 45, 93
7, 157366, Note_on_c, 0, 45, 0
7, 157380, Note_on_c, 0, 43, 86
7, 157435, Note_on_c, 0, 43, 0
7, 157440, Note_on_c, 0, 42, 99
7, 157495, Note_on_c, 0, 42, 0
7, 157500, Note_on_c, 0, 43, 86
7, 157555, Note_on_c, 0, 43, 0
7, 157560, Note_on_c, 0, 45, 96
7, 157617, Note_on_c, 0, 45, 0
7, 157620, Note_on_c, 0, 47, 89
7, 157660, Note_on_c, 0, 47, 0
7, 157680, Note_on_c, 0, 49, 89
7, 157725, Note_on_c, 0, 49, 0
7, 157740, Note_on_c, 0, 50, 89
7, 157749, Channel_aftertouch_c, 0, 22
7, 157760, Channel_aftertouch_c, 0, 11
7, 157761, Channel_aftertouch_c, 0, 0
7, 157796, Note_on_c, 0, 50, 0
7, 157800, Note_on_c, 0, 52, 96
7, 157810, Channel_aftertouch_c, 0, 12
7, 157822, Channel_aftertouch_c, 0, 6
7, 157845, Note_on_c, 0, 52, 0
7, 157860, Note_on_c, 0, 54, 74
7, 157868, Channel_aftertouch_c, 0, 15
7, 157878, Channel_aftertouch_c, 0, 7
7, 157916, Note_on_c, 0, 54, 0
7, 157920, Note_on_c, 0, 47, 99
7, 157933, Channel_aftertouch_c, 0, 3
7, 157944, Channel_aftertouch_c, 0, 17
7, 157945, Channel_aftertouch_c, 0, 1
7, 157954, Channel_aftertouch_c, 0, 8
7, 157967, Channel_aftertouch_c, 0, 4
7, 157979, Channel_aftertouch_c, 0, 2
7, 157980, Note_on_c, 0, 51, 79
7, 157984, Note_on_c, 0, 47, 0
7, 158040, Note_on_c, 0, 54, 93
7, 158041, Note_on_c, 0, 51, 0
7, 158100, Note_on_c, 0, 59, 86
7, 158103, Note_on_c, 0, 54, 0
7, 158117, Note_on_c, 0, 59, 0
7, 158160, Note_on_c, 0, 59, 124
7, 158220, Note_on_c, 0, 54, 84
7, 158221, Note_on_c, 0, 59, 0
7, 158279, Note_on_c, 0, 54, 0
7, 158280, Note_on_c, 0, 51, 72
7, 158336, Note_on_c, 0, 51, 0
7, 158340, Note_on_c, 0, 47, 86
7, 158370, Note_on_c, 0, 47, 0
7, 158400, Note_on_c, 0, 40, 111
7, 158457, Note_on_c, 0, 40, 0
7, 158460, Note_on_c, 0, 42, 102
7, 158504, Note_on_c, 0, 42, 0
7, 158520, Note_on_c, 0, 43, 96
7, 158566, Note_on_c, 0, 43, 0
7, 158580, Note_on_c, 0, 45, 89
7, 158616, Note_on_c, 0, 45, 0
7, 158640, Note_on_c, 0, 47, 89
7, 158679, Note_on_c, 0, 47, 0
7, 158700, Note_on_c, 0, 49, 81
7, 158753, Note_on_c, 0, 49, 0
7, 158760, Note_on_c, 0, 50, 79
7, 158815, Note_on_c, 0, 50, 0
7, 158820, Note_on_c, 0, 52, 96
7, 158873, Note_on_c, 0, 52, 0
7, 158880, Note_on_c, 0, 45, 108
7, 158888, Channel_aftertouch_c, 0, 25
7, 158898, Channel_aftertouch_c, 0, 12
7, 158911, Channel_aftertouch_c, 0, 6
7, 158915, Note_on_c, 0, 45, 0
7, 158922, Channel_aftertouch_c, 0, 3
7, 158934, Channel_aftertouch_c, 0, 1
7, 158940, Note_on_c, 0, 49, 72
7, 158984, Note_on_c, 0, 49, 0
7, 159000, Note_on_c, 0, 52, 79
7, 159042, Note_on_c, 0, 52, 0
7, 159060, Note_on_c, 0, 57, 93
7, 159084, Note_on_c, 0, 57, 0
7, 159120, Note_on_c, 0, 57, 102
7, 159180, Note_on_c, 0, 52, 84
7, 159183, Note_on_c, 0, 57, 0
7, 159233, Note_on_c, 0, 52, 0
7, 159240, Note_on_c, 0, 49, 77
7, 159299, Note_on_c, 0, 49, 0
7, 159300, Note_on_c, 0, 45, 89
7, 159329, Note_on_c, 0, 45, 0
7, 159360, Note_on_c, 0, 38, 111
7, 159413, Note_on_c, 0, 38, 0
7, 159420, Note_on_c, 0, 40, 102
7, 159457, Note_on_c, 0, 40, 0
7, 159480, Note_on_c, 0, 42, 91
7, 159513, Note_on_c, 0, 42, 0
7, 159540, Note_on_c, 0, 43, 120
7, 159578, Note_on_c, 0, 43, 0
7, 159600, Note_on_c, 0, 45, 102
7, 159633, Note_on_c, 0, 45, 0
7, 159660, Note_on_c, 0, 47, 96
7, 159689, Note_on_c, 0, 47, 0
7, 159720, Note_on_c, 0, 49, 102
7, 159766, Note_on_c, 0, 49, 0
7, 159780, Note_on_c, 0, 50, 81
7, 159811, Note_on_c, 0, 50, 0
7, 159840, Note_on_c, 0, 47, 89
7, 159851, Channel_aftertouch_c, 0, 1
7, 159899, Note_on_c, 0, 47, 0
7, 159960, Note_on_c, 0, 59, 89
7, 160131, Note_on_c, 0, 59, 0
7, 160200, Note_on_c, 0, 57, 108
7, 160260, Note_on_c, 0, 57, 0
7, 160320, Note_on_c, 0, 55, 123
7, 160380, Note_on_c, 0, 55, 0
7, 160440, Note_on_c, 0, 43, 111
7, 160641, Note_on_c, 0, 43, 0
7, 160680, Note_on_c, 0, 42, 96
7, 160737, Note_on_c, 0, 42, 0
7, 160800, Note_on_c, 0, 40, 93
7, 160846, Note_on_c, 0, 40, 0
7, 160920, Note_on_c, 0, 52, 117
7, 161098, Note_on_c, 0, 52, 0
7, 161160, Note_on_c, 0, 50, 99
7, 161213, Note_on_c, 0, 50, 0
7, 161280, Note_on_c, 0, 49, 77
7, 161322, Note_on_c, 0, 49, 0
7, 161400, Note_on_c, 0, 37, 124
7, 161550, Note_on_c, 0, 37, 0
7, 161640, Note_on_c, 0, 49, 127
7, 161686, Note_on_c, 0, 49, 0
7, 161700, Note_on_c, 0, 47, 77
7, 161737, Note_on_c, 0, 47, 0
7, 161760, Note_on_c, 0, 49, 120
7, 161790, Note_on_c, 0, 49, 0
7, 161820, Note_on_c, 0, 52, 74
7, 161859, Note_on_c, 0, 52, 0
7, 161880, Note_on_c, 0, 57, 81
7, 161939, Note_on_c, 0, 57, 0
7, 161940, Note_on_c, 0, 52, 77
7, 161980, Note_on_c, 0, 52, 0
7, 162000, Note_on_c, 0, 49, 81
7, 162052, Note_on_c, 0, 49, 0
7, 162060, Note_on_c, 0, 52, 84
7, 162117, Note_on_c, 0, 52, 0
7, 162120, Note_on_c, 0, 49, 91
7, 162175, Note_on_c, 0, 49, 0
7, 162180, Note_on_c, 0, 45, 64
7, 162237, Note_on_c, 0, 45, 0
7, 162240, Note_on_c, 0, 50, 86
7, 162321, Note_on_c, 0, 50, 0
7, 162360, Note_on_c, 0, 42, 74
7, 162391, Note_on_c, 0, 42, 0
7, 162420, Note_on_c, 0, 54, 93
7, 162432, Channel_aftertouch_c, 0, 3
7, 162443, Channel_aftertouch_c, 0, 1
7, 162452, Note_on_c, 0, 54, 0
7, 162480, Note_on_c, 0, 43, 105
7, 162516, Note_on_c, 0, 43, 0
7, 162540, Note_on_c, 0, 55, 108
7, 162573, Note_on_c, 0, 55, 0
7, 162600, Note_on_c, 0, 45, 102
7, 162646, Note_on_c, 0, 45, 0
7, 162660, Note_on_c, 0, 57, 79
7, 162696, Note_on_c, 0, 57, 0
7, 162720, Note_on_c, 0, 50, 89
7, 162804, Note_on_c, 0, 50, 0
7, 162840, Note_on_c, 0, 54, 120
7, 162911, Note_on_c, 0, 54, 0
7, 162960, Note_on_c, 0, 55, 91
7, 163031, Note_on_c, 0, 55, 0
7, 163080, Note_on_c, 0, 57, 125
7, 163152, Note_on_c, 0, 57, 0
7, 163200, Note_on_c, 0, 59, 102
7, 163284, Note_on_c, 0, 59, 0
7, 163320, Note_on_c, 0, 54, 91
7, 163405, Note_on_c, 0, 54, 0
7, 163440, Note_on_c, 0, 55, 72
7, 163531, Note_on_c, 0, 55, 0
7, 163560, Note_on_c, 0, 57, 89
7, 163642, Note_on_c, 0, 57, 0
7, 163680, Note_on_c, 0, 50, 81
7, 163896, Note_on_c, 0, 50, 0
7, 164040, Note_on_c, 0, 57, 74
7, 164082, Note_on_c, 0, 57, 0
7, 164100, Note_on_c, 0, 54, 58
7, 164129, Note_on_c, 0, 54, 0
7, 164160, Note_on_c, 0, 50, 58
7, 164239, Note_on_c, 0, 50, 0
7, 164280, Note_on_c, 0, 54, 51
7, 164326, Note_on_c, 0, 54, 0
7, 164340, Note_on_c, 0, 50, 58
7, 164370, Note_on_c, 0, 50, 0
7, 164400, Note_on_c, 0, 45, 69
7, 164473, Note_on_c, 0, 45, 0
7, 164520, Note_on_c, 0, 50, 64
7, 164579, Note_on_c, 0, 50, 0
7, 164580, Note_on_c, 0, 45, 39
7, 164620, Note_on_c, 0, 45, 0
7, 164640, Note_on_c, 0, 42, 84
7, 164664, Note_on_c, 0, 42, 0
7, 164670, Note_on_c, 0, 43, 72
7, 164687, Note_on_c, 0, 43, 0
7, 164700, Note_on_c, 0, 45, 55
7, 164719, Note_on_c, 0, 45, 0
7, 164760, Note_on_c, 0, 38, 74
7, 164897, Note_on_c, 0, 38, 0
7, 165240, Note_on_c, 0, 42, 111
7, 165276, Note_on_c, 0, 42, 0
7, 165300, Note_on_c, 0, 54, 93
7, 165332, Note_on_c, 0, 54, 0
7, 165360, Note_on_c, 0, 43, 86
7, 165396, Note_on_c, 0, 43, 0
7, 165420, Note_on_c, 0, 55, 108
7, 165451, Note_on_c, 0, 55, 0
7, 165480, Note_on_c, 0, 45, 96
7, 165539, Note_on_c, 0, 45, 0
7, 165540, Note_on_c, 0, 57, 74
7, 165576, Note_on_c, 0, 57, 0
7, 165600, Note_on_c, 0, 47, 117
7, 165655, Note_on_c, 0, 47, 0
7, 165660, Note_on_c, 0, 59, 84
7, 165690, Note_on_c, 0, 59, 0
7, 165720, Note_on_c, 0, 45, 81
7, 165776, Note_on_c, 0, 45, 0
7, 165780, Note_on_c, 0, 57, 84
7, 165813, Note_on_c, 0, 57, 0
7, 165840, Note_on_c, 0, 47, 84
7, 165899, Note_on_c, 0, 47, 0
7, 165900, Note_on_c, 0, 59, 79
7, 165928, Note_on_c, 0, 59, 0
7, 165960, Note_on_c, 0, 49, 96
7, 166015, Note_on_c, 0, 49, 0
7, 166020, Note_on_c, 0, 61, 89
7, 166059, Note_on_c, 0, 61, 0
7, 166080, Note_on_c, 0, 50, 117
7, 166148, Note_on_c, 0, 50, 0
7, 166200, Note_on_c, 0, 47, 96
7, 166267, Note_on_c, 0, 47, 0
7, 166320, Note_on_c, 0, 43, 96
7, 166389, Note_on_c, 0, 43, 0
7, 166440, Note_on_c, 0, 45, 79
7, 166499, Note_on_c, 0, 45, 0
7, 166560, Note_on_c, 0, 38, 89
7, 166668, Note_on_c, 0, 38, 0
7, 166668, End_track
8, 0, Start_track
8, 0, Title_t, "Concerto in F-Major"
8, 0, End_track
9, 0, Start_track
9, 0, Title_t, "(first mvt. ALLEGRO)"
9, 0, End_track
10, 0, Start_track
10, 0, Title_t, "for Cembalo and "
10, 0, End_track
11, 0, Start_track
11, 0, Title_t, "String Chamber Orchestra"
11, 0, End_track
12, 0, Start_track
12, 0, Title_t, "BY "
12, 0, End_track
13, 0, Start_track
13, 0, Title_t, "Johann Sebastian Bach"
13, 0, End_track
14, 0, Start_track
14, 0, End_track
15, 0, Start_track
15, 0, Title_t, "SEQ BY:"
15, 0, End_track
16, 0, Start_track
16, 0, Title_t, "Jeff Abrams"
16, 0, End_track
17, 0, Start_track
17, 0, Title_t, "DoctorPC@aol.com"
17, 0, End_track
18, 0, Start_track
18, 0, End_track
0, 0, End_of_file
