0, 0, Header, 1, 5, 1024
1, 0, Start_track
1, 0, Time_signature, 12, 3, 36, 8
1, 0, Key_signature, 1, "major"
1, 0, Tempo, 500000
1, 55296, End_track
2, 0, Start_track
2, 0, Title_t, "Instrument 1"
2, 4608, Note_on_c, 0, 79, 96
2, 6144, Note_off_c, 0, 79, 0
2, 6144, Note_on_c, 0, 78, 96
2, 7680, Note_off_c, 0, 78, 0
2, 7680, Note_on_c, 0, 76, 96
2, 9216, Note_off_c, 0, 76, 0
2, 9216, Note_on_c, 0, 78, 96
2, 10752, Note_off_c, 0, 78, 0
2, 10752, Note_on_c, 0, 74, 96
2, 12288, Note_off_c, 0, 74, 0
2, 12288, Note_on_c, 0, 76, 96
2, 13824, Note_off_c, 0, 76, 0
2, 13824, Note_on_c, 0, 78, 96
2, 15360, Note_off_c, 0, 78, 0
2, 15360, Note_on_c, 0, 79, 96
2, 16896, Note_off_c, 0, 79, 0
2, 16896, Note_on_c, 0, 79, 96
2, 18432, Note_off_c, 0, 79, 0
2, 18432, Note_on_c, 0, 79, 96
2, 19968, Note_off_c, 0, 79, 0
2, 19968, Note_on_c, 0, 74, 96
2, 21504, Note_off_c, 0, 74, 0
2, 21504, Note_on_c, 0, 74, 96
2, 22528, Note_off_c, 0, 74, 0
2, 22528, Note_on_c, 0, 72, 96
2, 23040, Note_off_c, 0, 72, 0
2, 23040, Note_on_c, 0, 71, 96
2, 24064, Note_off_c, 0, 71, 0
2, 24064, Note_on_c, 0, 72, 96
2, 24576, Note_off_c, 0, 72, 0
2, 24576, Note_on_c, 0, 74, 96
2, 26112, Note_off_c, 0, 74, 0
2, 26112, Note_on_c, 0, 72, 96
2, 27648, Note_off_c, 0, 72, 0
2, 27648, Note_on_c, 0, 71, 96
2, 29184, Note_off_c, 0, 71, 0
2, 29184, Note_on_c, 0, 71, 96
2, 30720, Note_off_c, 0, 71, 0
2, 30720, Note_on_c, 0, 76, 96
2, 32256, Note_off_c, 0, 76, 0
2, 32256, Note_on_c, 0, 76, 96
2, 33792, Note_off_c, 0, 76, 0
2, 33792, Note_on_c, 0, 74, 96
2, 34816, Note_off_c, 0, 74, 0
2, 34816, Note_on_c, 0, 76, 96
2, 35328, Note_off_c, 0, 76, 0
2, 35328, Note_on_c, 0, 78, 96
2, 36864, Note_off_c, 0, 78, 0
2, 36864, Note_on_c, 0, 79, 96
2, 37888, Note_off_c, 0, 79, 0
2, 37888, Note_on_c, 0, 78, 96
2, 38400, Note_off_c, 0, 78, 0
2, 38400, Note_on_c, 0, 76, 96
2, 39936, Note_off_c, 0, 76, 0
2, 39936, Note_on_c, 0, 74, 96
2, 41472, Note_off_c, 0, 74, 0
2, 41472, Note_on_c, 0, 79, 96
2, 43008, Note_off_c, 0, 79, 0
2, 43008, Note_on_c, 0, 78, 96
2, 44544, Note_off_c, 0, 78, 0
2, 44544, Note_on_c, 0, 76, 96
2, 46080, Note_off_c, 0, 76, 0
2, 46080, Note_on_c, 0, 74, 96
2, 47616, Note_off_c, 0, 74, 0
2, 47616, Note_on_c, 0, 76, 96
2, 48640, Note_off_c, 0, 76, 0
2, 48640, Note_on_c, 0, 74, 96
2, 49152, Note_off_c, 0, 74, 0
2, 49152, Note_on_c, 0, 72, 96
2, 50176, Note_off_c, 0, 72, 0
2, 50176, Note_on_c, 0, 71, 96
2, 50688, Note_off_c, 0, 71, 0
2, 50688, Note_on_c, 0, 69, 96
2, 52224, Note_off_c, 0, 69, 0
2, 52224, Note_on_c, 0, 67, 96
2, 55296, Note_off_c, 0, 67, 0
2, 55296, End_track
3, 0, Start_track
3, 0, Title_t, "Instrument 2"
3, 4608, Note_on_c, 1, 71, 96
3, 6144, Note_off_c, 1, 71, 0
3, 6144, Note_on_c, 1, 69, 96
3, 7680, Note_off_c, 1, 69, 0
3, 7680, Note_on_c, 1, 71, 96
3, 8704, Note_off_c, 1, 71, 0
3, 8704, Note_on_c, 1, 69, 96
3, 9216, Note_off_c, 1, 69, 0
3, 9216, Note_on_c, 1, 69, 96
3, 10752, Note_off_c, 1, 69, 0
3, 10752, Note_on_c, 1, 67, 96
3, 12288, Note_off_c, 1, 67, 0
3, 12288, Note_on_c, 1, 67, 96
3, 13312, Note_off_c, 1, 67, 0
3, 13312, Note_on_c, 1, 72, 96
3, 13824, Note_off_c, 1, 72, 0
3, 13824, Note_on_c, 1, 71, 96
3, 14848, Note_off_c, 1, 71, 0
3, 14848, Note_on_c, 1, 69, 96
3, 15360, Note_off_c, 1, 69, 0
3, 15360, Note_on_c, 1, 71, 96
3, 16896, Note_off_c, 1, 71, 0
3, 16896, Note_on_c, 1, 71, 96
3, 18432, Note_off_c, 1, 71, 0
3, 18432, Note_on_c, 1, 71, 96
3, 19968, Note_off_c, 1, 71, 0
3, 19968, Note_on_c, 1, 71, 96
3, 21504, Note_off_c, 1, 71, 0
3, 21504, Note_on_c, 1, 69, 96
3, 23040, Note_off_c, 1, 69, 0
3, 23040, Note_on_c, 1, 67, 96
3, 24576, Note_off_c, 1, 67, 0
3, 24576, Note_on_c, 1, 69, 96
3, 25600, Note_off_c, 1, 69, 0
3, 25600, Note_on_c, 1, 64, 96
3, 26112, Note_off_c, 1, 64, 0
3, 26112, Note_on_c, 1, 64, 96
3, 26880, Note_off_c, 1, 64, 0
3, 26880, Note_on_c, 1, 67, 96
3, 27136, Note_off_c, 1, 67, 0
3, 27136, Note_on_c, 1, 66, 96
3, 27648, Note_off_c, 1, 66, 0
3, 27648, Note_on_c, 1, 67, 96
3, 29184, Note_off_c, 1, 67, 0
3, 29184, Note_on_c, 1, 67, 96
3, 30720, Note_off_c, 1, 67, 0
3, 30720, Note_on_c, 1, 67, 96
3, 32256, Note_off_c, 1, 67, 0
3, 32256, Note_on_c, 1, 67, 96
3, 33280, Note_off_c, 1, 67, 0
3, 33280, Note_on_c, 1, 69, 96
3, 33792, Note_off_c, 1, 69, 0
3, 33792, Note_on_c, 1, 71, 96
3, 34816, Note_off_c, 1, 71, 0
3, 34816, Note_on_c, 1, 69, 96
3, 35328, Note_off_c, 1, 69, 0
3, 35328, Note_on_c, 1, 69, 96
3, 36352, Note_off_c, 1, 69, 0
3, 36352, Note_on_c, 1, 71, 96
3, 36864, Note_off_c, 1, 71, 0
3, 36864, Note_on_c, 1, 71, 96
3, 37888, Note_off_c, 1, 71, 0
3, 37888, Note_on_c, 1, 69, 96
3, 38400, Note_off_c, 1, 69, 0
3, 38400, Note_on_c, 1, 71, 96
3, 39424, Note_off_c, 1, 71, 0
3, 39424, Note_on_c, 1, 69, 96
3, 39936, Note_off_c, 1, 69, 0
3, 39936, Note_on_c, 1, 69, 96
3, 41472, Note_off_c, 1, 69, 0
3, 41472, Note_on_c, 1, 71, 96
3, 43008, Note_off_c, 1, 71, 0
3, 43008, Note_on_c, 1, 72, 96
3, 44032, Note_off_c, 1, 72, 0
3, 44032, Note_on_c, 1, 71, 96
3, 44544, Note_off_c, 1, 71, 0
3, 44544, Note_on_c, 1, 71, 96
3, 45568, Note_off_c, 1, 71, 0
3, 45568, Note_on_c, 1, 69, 96
3, 46080, Note_off_c, 1, 69, 0
3, 46080, Note_on_c, 1, 69, 96
3, 47104, Note_off_c, 1, 69, 0
3, 47104, Note_on_c, 1, 67, 96
3, 47616, Note_off_c, 1, 67, 0
3, 47616, Note_on_c, 1, 67, 96
3, 49152, Note_off_c, 1, 67, 0
3, 49152, Note_on_c, 1, 67, 96
3, 50688, Note_off_c, 1, 67, 0
3, 50688, Note_on_c, 1, 67, 96
3, 51712, Note_off_c, 1, 67, 0
3, 51712, Note_on_c, 1, 66, 96
3, 52224, Note_off_c, 1, 66, 0
3, 52224, Note_on_c, 1, 62, 96
3, 55296, Note_off_c, 1, 62, 0
3, 55296, End_track
4, 0, Start_track
4, 0, Title_t, "Instrument 3"
4, 4608, Note_on_c, 2, 62, 96
4, 6144, Note_off_c, 2, 62, 0
4, 6144, Note_on_c, 2, 62, 96
4, 7680, Note_off_c, 2, 62, 0
4, 7680, Note_on_c, 2, 62, 96
4, 8704, Note_off_c, 2, 62, 0
4, 8704, Note_on_c, 2, 61, 96
4, 9216, Note_off_c, 2, 61, 0
4, 9216, Note_on_c, 2, 62, 96
4, 10240, Note_off_c, 2, 62, 0
4, 10240, Note_on_c, 2, 60, 96
4, 10752, Note_off_c, 2, 60, 0
4, 10752, Note_on_c, 2, 60, 96
4, 11776, Note_off_c, 2, 60, 0
4, 11776, Note_on_c, 2, 59, 96
4, 12288, Note_off_c, 2, 59, 0
4, 12288, Note_on_c, 2, 59, 96
4, 13312, Note_off_c, 2, 59, 0
4, 13312, Note_on_c, 2, 57, 96
4, 13824, Note_off_c, 2, 57, 0
4, 13824, Note_on_c, 2, 62, 96
4, 15360, Note_off_c, 2, 62, 0
4, 15360, Note_on_c, 2, 62, 96
4, 16896, Note_off_c, 2, 62, 0
4, 16896, Note_on_c, 2, 62, 96
4, 18432, Note_off_c, 2, 62, 0
4, 18432, Note_on_c, 2, 64, 96
4, 19968, Note_off_c, 2, 64, 0
4, 19968, Note_on_c, 2, 66, 96
4, 20992, Note_off_c, 2, 66, 0
4, 20992, Note_on_c, 2, 67, 96
4, 21504, Note_off_c, 2, 67, 0
4, 21504, Note_on_c, 2, 62, 96
4, 23040, Note_off_c, 2, 62, 0
4, 23040, Note_on_c, 2, 62, 96
4, 24064, Note_off_c, 2, 62, 0
4, 24064, Note_on_c, 2, 64, 96
4, 24576, Note_off_c, 2, 64, 0
4, 24576, Note_on_c, 2, 57, 96
4, 25600, Note_off_c, 2, 57, 0
4, 25600, Note_on_c, 2, 59, 96
4, 26112, Note_off_c, 2, 59, 0
4, 26112, Note_on_c, 2, 60, 96
4, 26880, Note_off_c, 2, 60, 0
4, 26880, Note_on_c, 2, 64, 96
4, 27136, Note_off_c, 2, 64, 0
4, 27136, Note_on_c, 2, 63, 96
4, 27648, Note_off_c, 2, 63, 0
4, 27648, Note_on_c, 2, 64, 96
4, 29184, Note_off_c, 2, 64, 0
4, 29184, Note_on_c, 2, 64, 96
4, 30720, Note_off_c, 2, 64, 0
4, 30720, Note_on_c, 2, 64, 96
4, 31744, Note_off_c, 2, 64, 0
4, 31744, Note_on_c, 2, 62, 96
4, 32256, Note_off_c, 2, 62, 0
4, 32256, Note_on_c, 2, 60, 96
4, 33792, Note_off_c, 2, 60, 0
4, 33792, Note_on_c, 2, 59, 96
4, 34816, Note_off_c, 2, 59, 0
4, 34816, Note_on_c, 2, 61, 96
4, 35328, Note_off_c, 2, 61, 0
4, 35328, Note_on_c, 2, 62, 96
4, 36864, Note_off_c, 2, 62, 0
4, 36864, Note_on_c, 2, 55, 96
4, 37888, Note_off_c, 2, 55, 0
4, 37888, Note_on_c, 2, 62, 96
4, 38400, Note_off_c, 2, 62, 0
4, 38400, Note_on_c, 2, 62, 96
4, 39424, Note_off_c, 2, 62, 0
4, 39424, Note_on_c, 2, 61, 96
4, 39936, Note_off_c, 2, 61, 0
4, 39936, Note_on_c, 2, 66, 96
4, 41472, Note_off_c, 2, 66, 0
4, 41472, Note_on_c, 2, 64, 96
4, 43008, Note_off_c, 2, 64, 0
4, 43008, Note_on_c, 2, 64, 96
4, 44032, Note_off_c, 2, 64, 0
4, 44032, Note_on_c, 2, 62, 96
4, 44544, Note_off_c, 2, 62, 0
4, 44544, Note_on_c, 2, 62, 96
4, 45568, Note_off_c, 2, 62, 0
4, 45568, Note_on_c, 2, 60, 96
4, 46080, Note_off_c, 2, 60, 0
4, 46080, Note_on_c, 2, 60, 96
4, 47104, Note_off_c, 2, 60, 0
4, 47104, Note_on_c, 2, 59, 96
4, 47616, Note_off_c, 2, 59, 0
4, 47616, Note_on_c, 2, 60, 96
4, 48640, Note_off_c, 2, 60, 0
4, 48640, Note_on_c, 2, 59, 96
4, 49152, Note_off_c, 2, 59, 0
4, 49152, Note_on_c, 2, 60, 96
4, 50176, Note_off_c, 2, 60, 0
4, 50176, Note_on_c, 2, 62, 96
4, 50688, Note_off_c, 2, 62, 0
4, 50688, Note_on_c, 2, 64, 96
4, 51712, Note_off_c, 2, 64, 0
4, 51712, Note_on_c, 2, 62, 96
4, 52224, Note_off_c, 2, 62, 0
4, 52224, Note_on_c, 2, 59, 96
4, 55296, Note_off_c, 2, 59, 0
4, 55296, End_track
5, 0, Start_track
5, 0, Title_t, "Instrument 4"
5, 4608, Note_on_c, 3, 55, 96
5, 6144, Note_off_c, 3, 55, 0
5, 6144, Note_on_c, 3, 62, 96
5, 7680, Note_off_c, 3, 62, 0
5, 7680, Note_on_c, 3, 55, 96
5, 8704, Note_off_c, 3, 55, 0
5, 8704, Note_on_c, 3, 57, 96
5, 9216, Note_off_c, 3, 57, 0
5, 9216, Note_on_c, 3, 50, 96
5, 10752, Note_off_c, 3, 50, 0
5, 10752, Note_on_c, 3, 55, 96
5, 12288, Note_off_c, 3, 55, 0
5, 12288, Note_on_c, 3, 48, 96
5, 13824, Note_off_c, 3, 48, 0
5, 13824, Note_on_c, 3, 50, 96
5, 15360, Note_off_c, 3, 50, 0
5, 15360, Note_on_c, 3, 43, 96
5, 16896, Note_off_c, 3, 43, 0
5, 16896, Note_on_c, 3, 55, 96
5, 17920, Note_off_c, 3, 55, 0
5, 17920, Note_on_c, 3, 54, 96
5, 18432, Note_off_c, 3, 54, 0
5, 18432, Note_on_c, 3, 52, 96
5, 19968, Note_off_c, 3, 52, 0
5, 19968, Note_on_c, 3, 59, 96
5, 21504, Note_off_c, 3, 59, 0
5, 21504, Note_on_c, 3, 54, 96
5, 23040, Note_off_c, 3, 54, 0
5, 23040, Note_on_c, 3, 55, 96
5, 24064, Note_off_c, 3, 55, 0
5, 24064, Note_on_c, 3, 52, 96
5, 24576, Note_off_c, 3, 52, 0
5, 24576, Note_on_c, 3, 54, 96
5, 25600, Note_off_c, 3, 54, 0
5, 25600, Note_on_c, 3, 56, 96
5, 26112, Note_off_c, 3, 56, 0
5, 26112, Note_on_c, 3, 57, 96
5, 27648, Note_off_c, 3, 57, 0
5, 27648, Note_on_c, 3, 52, 96
5, 29184, Note_off_c, 3, 52, 0
5, 29184, Note_on_c, 3, 52, 96
5, 30208, Note_off_c, 3, 52, 0
5, 30208, Note_on_c, 3, 50, 96
5, 30720, Note_off_c, 3, 50, 0
5, 30720, Note_on_c, 3, 48, 96
5, 31744, Note_off_c, 3, 48, 0
5, 31744, Note_on_c, 3, 50, 96
5, 32256, Note_off_c, 3, 50, 0
5, 32256, Note_on_c, 3, 52, 96
5, 33280, Note_off_c, 3, 52, 0
5, 33280, Note_on_c, 3, 48, 96
5, 33792, Note_off_c, 3, 48, 0
5, 33792, Note_on_c, 3, 55, 96
5, 35328, Note_off_c, 3, 55, 0
5, 35328, Note_on_c, 3, 54, 96
5, 36352, Note_off_c, 3, 54, 0
5, 36352, Note_on_c, 3, 59, 96
5, 36864, Note_off_c, 3, 59, 0
5, 36864, Note_on_c, 3, 52, 96
5, 37888, Note_off_c, 3, 52, 0
5, 37888, Note_on_c, 3, 54, 96
5, 38400, Note_off_c, 3, 54, 0
5, 38400, Note_on_c, 3, 55, 96
5, 39424, Note_off_c, 3, 55, 0
5, 39424, Note_on_c, 3, 57, 96
5, 39936, Note_off_c, 3, 57, 0
5, 39936, Note_on_c, 3, 50, 96
5, 41472, Note_off_c, 3, 50, 0
5, 41472, Note_on_c, 3, 52, 96
5, 42496, Note_off_c, 3, 52, 0
5, 42496, Note_on_c, 3, 55, 96
5, 43008, Note_off_c, 3, 55, 0
5, 43008, Note_on_c, 3, 57, 96
5, 44032, Note_off_c, 3, 57, 0
5, 44032, Note_on_c, 3, 59, 96
5, 44544, Note_off_c, 3, 59, 0
5, 44544, Note_on_c, 3, 55, 96
5, 45568, Note_off_c, 3, 55, 0
5, 45568, Note_on_c, 3, 57, 96
5, 46080, Note_off_c, 3, 57, 0
5, 46080, Note_on_c, 3, 54, 96
5, 47104, Note_off_c, 3, 54, 0
5, 47104, Note_on_c, 3, 55, 96
5, 47616, Note_off_c, 3, 55, 0
5, 47616, Note_on_c, 3, 48, 96
5, 48640, Note_off_c, 3, 48, 0
5, 48640, Note_on_c, 3, 50, 96
5, 49152, Note_off_c, 3, 50, 0
5, 49152, Note_on_c, 3, 52, 96
5, 50176, Note_off_c, 3, 52, 0
5, 50176, Note_on_c, 3, 50, 96
5, 50688, Note_off_c, 3, 50, 0
5, 50688, Note_on_c, 3, 48, 96
5, 51712, Note_off_c, 3, 48, 0
5, 51712, Note_on_c, 3, 50, 96
5, 52224, Note_off_c, 3, 50, 0
5, 52224, Note_on_c, 3, 43, 96
5, 55296, Note_off_c, 3, 43, 0
5, 55296, End_track
0, 0, End_of_file
