0, 0, Header, 1, 4, 240
1, 0, Start_track
1, 0, Title_t, "untitled"
1, 0, Time_signature, 4, 2, 24, 8
1, 0, Key_signature, 0, "major"
1, 0, Tempo, 750000
1, 9600, Tempo, 1090909
1, 9840, Tempo, 937500
1, 10320, Tempo, 750000
1, 11520, Tempo, 1090909
1, 11760, Tempo, 895522
1, 12240, Tempo, 750000
1, 13440, Tempo, 1090909
1, 13664, Tempo, 869565
1, 14160, Tempo, 895522
1, 14280, Tempo, 937500
1, 14400, Tempo, 1090909
1, 14520, Tempo, 800000
1, 14760, Tempo, 779221
1, 14880, Tempo, 750000
1, 15840, Tempo, 869565
1, 16080, Tempo, 937500
1, 16200, Tempo, 1000000
1, 16320, Tempo, 937500
1, 16560, Tempo, 779221
1, 16800, Tempo, 750000
1, 18360, Tempo, 779221
1, 18480, Tempo, 800000
1, 18600, Tempo, 821918
1, 18720, Tempo, 869565
1, 18840, Tempo, 923077
1, 18896, Tempo, 983607
1, 18960, Tempo, 1111111
1, 19008, Tempo, 1500000
1, 19056, Tempo, 2500000
1, 19056, End_track
2, 0, Start_track
2, 0, Program_c, 0, 0
2, 30, Note_on_c, 0, 65, 64
2, 60, Note_on_c, 0, 65, 0
2, 60, Note_on_c, 0, 74, 64
2, 90, Note_on_c, 0, 74, 0
2, 90, Note_on_c, 0, 65, 64
2, 120, Note_on_c, 0, 65, 0
2, 150, Note_on_c, 0, 65, 64
2, 180, Note_on_c, 0, 65, 0
2, 180, Note_on_c, 0, 72, 64
2, 210, Note_on_c, 0, 72, 0
2, 210, Note_on_c, 0, 65, 64
2, 240, Note_on_c, 0, 65, 0
2, 270, Note_on_c, 0, 65, 64
2, 300, Note_on_c, 0, 65, 0
2, 300, Note_on_c, 0, 74, 64
2, 330, Note_on_c, 0, 74, 0
2, 330, Note_on_c, 0, 65, 64
2, 360, Note_on_c, 0, 65, 0
2, 390, Note_on_c, 0, 69, 64
2, 420, Note_on_c, 0, 69, 0
2, 420, Note_on_c, 0, 77, 64
2, 450, Note_on_c, 0, 77, 0
2, 450, Note_on_c, 0, 69, 64
2, 480, Note_on_c, 0, 69, 0
2, 510, Note_on_c, 0, 62, 64
2, 540, Note_on_c, 0, 62, 0
2, 540, Note_on_c, 0, 70, 64
2, 570, Note_on_c, 0, 70, 0
2, 570, Note_on_c, 0, 62, 64
2, 600, Note_on_c, 0, 62, 0
2, 630, Note_on_c, 0, 62, 64
2, 660, Note_on_c, 0, 62, 0
2, 660, Note_on_c, 0, 69, 64
2, 690, Note_on_c, 0, 69, 0
2, 690, Note_on_c, 0, 62, 64
2, 720, Note_on_c, 0, 62, 0
2, 750, Note_on_c, 0, 62, 64
2, 780, Note_on_c, 0, 62, 0
2, 780, Note_on_c, 0, 70, 64
2, 810, Note_on_c, 0, 70, 0
2, 810, Note_on_c, 0, 62, 64
2, 840, Note_on_c, 0, 62, 0
2, 870, Note_on_c, 0, 65, 64
2, 900, Note_on_c, 0, 65, 0
2, 900, Note_on_c, 0, 74, 64
2, 930, Note_on_c, 0, 74, 0
2, 930, Note_on_c, 0, 65, 64
2, 960, Note_on_c, 0, 65, 0
2, 990, Note_on_c, 0, 58, 64
2, 1020, Note_on_c, 0, 58, 0
2, 1020, Note_on_c, 0, 67, 64
2, 1050, Note_on_c, 0, 67, 0
2, 1050, Note_on_c, 0, 58, 64
2, 1080, Note_on_c, 0, 58, 0
2, 1110, Note_on_c, 0, 58, 64
2, 1140, Note_on_c, 0, 58, 0
2, 1140, Note_on_c, 0, 65, 64
2, 1170, Note_on_c, 0, 65, 0
2, 1170, Note_on_c, 0, 58, 64
2, 1200, Note_on_c, 0, 58, 0
2, 1230, Note_on_c, 0, 58, 64
2, 1260, Note_on_c, 0, 58, 0
2, 1260, Note_on_c, 0, 67, 64
2, 1290, Note_on_c, 0, 67, 0
2, 1290, Note_on_c, 0, 58, 64
2, 1320, Note_on_c, 0, 58, 0
2, 1350, Note_on_c, 0, 62, 64
2, 1380, Note_on_c, 0, 62, 0
2, 1380, Note_on_c, 0, 70, 64
2, 1410, Note_on_c, 0, 70, 0
2, 1410, Note_on_c, 0, 62, 64
2, 1440, Note_on_c, 0, 62, 0
2, 1470, Note_on_c, 0, 62, 64
2, 1500, Note_on_c, 0, 62, 0
2, 1500, Note_on_c, 0, 63, 64
2, 1530, Note_on_c, 0, 63, 0
2, 1530, Note_on_c, 0, 62, 64
2, 1560, Note_on_c, 0, 62, 0
2, 1590, Note_on_c, 0, 62, 64
2, 1620, Note_on_c, 0, 62, 0
2, 1620, Note_on_c, 0, 67, 64
2, 1650, Note_on_c, 0, 67, 0
2, 1650, Note_on_c, 0, 62, 64
2, 1680, Note_on_c, 0, 62, 0
2, 1710, Note_on_c, 0, 60, 64
2, 1740, Note_on_c, 0, 60, 0
2, 1740, Note_on_c, 0, 65, 64
2, 1770, Note_on_c, 0, 65, 0
2, 1770, Note_on_c, 0, 60, 64
2, 1800, Note_on_c, 0, 60, 0
2, 1830, Note_on_c, 0, 57, 64
2, 1860, Note_on_c, 0, 57, 0
2, 1860, Note_on_c, 0, 63, 64
2, 1890, Note_on_c, 0, 63, 0
2, 1890, Note_on_c, 0, 57, 64
2, 1920, Note_on_c, 0, 57, 0
2, 1950, Note_on_c, 0, 62, 64
2, 1980, Note_on_c, 0, 62, 0
2, 1980, Note_on_c, 0, 65, 64
2, 2010, Note_on_c, 0, 65, 0
2, 2010, Note_on_c, 0, 62, 64
2, 2040, Note_on_c, 0, 62, 0
2, 2070, Note_on_c, 0, 58, 64
2, 2100, Note_on_c, 0, 58, 0
2, 2100, Note_on_c, 0, 62, 64
2, 2130, Note_on_c, 0, 62, 0
2, 2130, Note_on_c, 0, 58, 64
2, 2160, Note_on_c, 0, 58, 0
2, 2190, Note_on_c, 0, 53, 64
2, 2220, Note_on_c, 0, 53, 0
2, 2220, Note_on_c, 0, 58, 64
2, 2250, Note_on_c, 0, 58, 0
2, 2250, Note_on_c, 0, 53, 64
2, 2280, Note_on_c, 0, 53, 0
2, 2310, Note_on_c, 0, 50, 64
2, 2340, Note_on_c, 0, 50, 0
2, 2340, Note_on_c, 0, 53, 64
2, 2370, Note_on_c, 0, 53, 0
2, 2370, Note_on_c, 0, 50, 64
2, 2400, Note_on_c, 0, 50, 0
2, 2550, Note_on_c, 0, 57, 64
2, 2580, Note_on_c, 0, 57, 0
2, 2580, Note_on_c, 0, 58, 64
2, 2610, Note_on_c, 0, 58, 0
2, 2610, Note_on_c, 0, 60, 64
2, 2640, Note_on_c, 0, 60, 0
2, 2640, Note_on_c, 0, 58, 64
2, 2670, Note_on_c, 0, 58, 0
2, 2790, Note_on_c, 0, 62, 64
2, 2820, Note_on_c, 0, 62, 0
2, 2820, Note_on_c, 0, 64, 64
2, 2850, Note_on_c, 0, 64, 0
2, 2850, Note_on_c, 0, 65, 64
2, 2880, Note_on_c, 0, 65, 0
2, 2910, Note_on_c, 0, 64, 64
2, 2940, Note_on_c, 0, 64, 0
2, 2940, Note_on_c, 0, 67, 64
2, 2970, Note_on_c, 0, 67, 0
2, 2970, Note_on_c, 0, 64, 64
2, 3000, Note_on_c, 0, 64, 0
2, 3030, Note_on_c, 0, 60, 64
2, 3060, Note_on_c, 0, 60, 0
2, 3060, Note_on_c, 0, 64, 64
2, 3090, Note_on_c, 0, 64, 0
2, 3090, Note_on_c, 0, 60, 64
2, 3120, Note_on_c, 0, 60, 0
2, 3150, Note_on_c, 0, 55, 64
2, 3180, Note_on_c, 0, 55, 0
2, 3180, Note_on_c, 0, 60, 64
2, 3210, Note_on_c, 0, 60, 0
2, 3210, Note_on_c, 0, 55, 64
2, 3240, Note_on_c, 0, 55, 0
2, 3270, Note_on_c, 0, 52, 64
2, 3300, Note_on_c, 0, 52, 0
2, 3300, Note_on_c, 0, 55, 64
2, 3330, Note_on_c, 0, 55, 0
2, 3330, Note_on_c, 0, 52, 64
2, 3360, Note_on_c, 0, 52, 0
2, 3510, Note_on_c, 0, 59, 64
2, 3540, Note_on_c, 0, 59, 0
2, 3540, Note_on_c, 0, 60, 64
2, 3570, Note_on_c, 0, 60, 0
2, 3570, Note_on_c, 0, 62, 64
2, 3600, Note_on_c, 0, 62, 0
2, 3600, Note_on_c, 0, 60, 64
2, 3630, Note_on_c, 0, 60, 0
2, 3750, Note_on_c, 0, 64, 64
2, 3780, Note_on_c, 0, 64, 0
2, 3780, Note_on_c, 0, 65, 64
2, 3810, Note_on_c, 0, 65, 0
2, 3810, Note_on_c, 0, 67, 64
2, 3840, Note_on_c, 0, 67, 0
2, 3870, Note_on_c, 0, 65, 64
2, 3900, Note_on_c, 0, 65, 0
2, 3900, Note_on_c, 0, 69, 64
2, 3930, Note_on_c, 0, 69, 0
2, 3930, Note_on_c, 0, 65, 64
2, 3960, Note_on_c, 0, 65, 0
2, 3990, Note_on_c, 0, 62, 64
2, 4020, Note_on_c, 0, 62, 0
2, 4020, Note_on_c, 0, 65, 64
2, 4050, Note_on_c, 0, 65, 0
2, 4050, Note_on_c, 0, 62, 64
2, 4080, Note_on_c, 0, 62, 0
2, 4110, Note_on_c, 0, 57, 64
2, 4140, Note_on_c, 0, 57, 0
2, 4140, Note_on_c, 0, 62, 64
2, 4170, Note_on_c, 0, 62, 0
2, 4170, Note_on_c, 0, 57, 64
2, 4200, Note_on_c, 0, 57, 0
2, 4230, Note_on_c, 0, 53, 64
2, 4260, Note_on_c, 0, 53, 0
2, 4260, Note_on_c, 0, 57, 64
2, 4290, Note_on_c, 0, 57, 0
2, 4290, Note_on_c, 0, 53, 64
2, 4320, Note_on_c, 0, 53, 0
2, 4350, Note_on_c, 0, 53, 64
2, 4380, Note_on_c, 0, 53, 0
2, 4380, Note_on_c, 0, 62, 64
2, 4410, Note_on_c, 0, 62, 0
2, 4410, Note_on_c, 0, 53, 64
2, 4440, Note_on_c, 0, 53, 0
2, 4470, Note_on_c, 0, 53, 64
2, 4500, Note_on_c, 0, 53, 0
2, 4500, Note_on_c, 0, 58, 64
2, 4530, Note_on_c, 0, 58, 0
2, 4530, Note_on_c, 0, 53, 64
2, 4560, Note_on_c, 0, 53, 0
2, 4590, Note_on_c, 0, 53, 64
2, 4620, Note_on_c, 0, 53, 0
2, 4620, Note_on_c, 0, 60, 64
2, 4650, Note_on_c, 0, 60, 0
2, 4650, Note_on_c, 0, 53, 64
2, 4680, Note_on_c, 0, 53, 0
2, 4710, Note_on_c, 0, 53, 64
2, 4740, Note_on_c, 0, 53, 0
2, 4740, Note_on_c, 0, 63, 64
2, 4770, Note_on_c, 0, 63, 0
2, 4770, Note_on_c, 0, 53, 64
2, 4800, Note_on_c, 0, 53, 0
2, 4830, Note_on_c, 0, 53, 64
2, 4860, Note_on_c, 0, 53, 0
2, 4860, Note_on_c, 0, 62, 64
2, 4890, Note_on_c, 0, 62, 0
2, 4890, Note_on_c, 0, 53, 64
2, 4920, Note_on_c, 0, 53, 0
2, 4950, Note_on_c, 0, 53, 64
2, 4980, Note_on_c, 0, 53, 0
2, 4980, Note_on_c, 0, 58, 64
2, 5010, Note_on_c, 0, 58, 0
2, 5010, Note_on_c, 0, 53, 64
2, 5040, Note_on_c, 0, 53, 0
2, 5070, Note_on_c, 0, 53, 64
2, 5100, Note_on_c, 0, 53, 0
2, 5100, Note_on_c, 0, 60, 64
2, 5130, Note_on_c, 0, 60, 0
2, 5130, Note_on_c, 0, 53, 64
2, 5160, Note_on_c, 0, 53, 0
2, 5190, Note_on_c, 0, 53, 64
2, 5220, Note_on_c, 0, 53, 0
2, 5220, Note_on_c, 0, 63, 64
2, 5250, Note_on_c, 0, 63, 0
2, 5250, Note_on_c, 0, 53, 64
2, 5280, Note_on_c, 0, 53, 0
2, 5310, Note_on_c, 0, 53, 64
2, 5340, Note_on_c, 0, 53, 0
2, 5340, Note_on_c, 0, 62, 64
2, 5370, Note_on_c, 0, 62, 0
2, 5370, Note_on_c, 0, 53, 64
2, 5400, Note_on_c, 0, 53, 0
2, 5430, Note_on_c, 0, 55, 64
2, 5460, Note_on_c, 0, 55, 0
2, 5460, Note_on_c, 0, 65, 64
2, 5490, Note_on_c, 0, 65, 0
2, 5490, Note_on_c, 0, 55, 64
2, 5520, Note_on_c, 0, 55, 0
2, 5550, Note_on_c, 0, 55, 64
2, 5580, Note_on_c, 0, 55, 0
2, 5580, Note_on_c, 0, 64, 64
2, 5610, Note_on_c, 0, 64, 0
2, 5610, Note_on_c, 0, 55, 64
2, 5640, Note_on_c, 0, 55, 0
2, 5670, Note_on_c, 0, 57, 64
2, 5700, Note_on_c, 0, 57, 0
2, 5700, Note_on_c, 0, 67, 64
2, 5730, Note_on_c, 0, 67, 0
2, 5730, Note_on_c, 0, 57, 64
2, 5760, Note_on_c, 0, 57, 0
2, 5790, Note_on_c, 0, 57, 64
2, 5820, Note_on_c, 0, 57, 0
2, 5820, Note_on_c, 0, 65, 64
2, 5850, Note_on_c, 0, 65, 0
2, 5850, Note_on_c, 0, 57, 64
2, 5880, Note_on_c, 0, 57, 0
2, 5910, Note_on_c, 0, 58, 64
2, 5940, Note_on_c, 0, 58, 0
2, 5940, Note_on_c, 0, 69, 64
2, 5970, Note_on_c, 0, 69, 0
2, 5970, Note_on_c, 0, 58, 64
2, 6000, Note_on_c, 0, 58, 0
2, 6030, Note_on_c, 0, 58, 64
2, 6060, Note_on_c, 0, 58, 0
2, 6060, Note_on_c, 0, 67, 64
2, 6090, Note_on_c, 0, 67, 0
2, 6090, Note_on_c, 0, 58, 64
2, 6120, Note_on_c, 0, 58, 0
2, 6150, Note_on_c, 0, 60, 64
2, 6180, Note_on_c, 0, 60, 0
2, 6180, Note_on_c, 0, 70, 64
2, 6210, Note_on_c, 0, 70, 0
2, 6210, Note_on_c, 0, 60, 64
2, 6240, Note_on_c, 0, 60, 0
2, 6270, Note_on_c, 0, 60, 64
2, 6300, Note_on_c, 0, 60, 0
2, 6300, Note_on_c, 0, 69, 64
2, 6330, Note_on_c, 0, 69, 0
2, 6330, Note_on_c, 0, 60, 64
2, 6360, Note_on_c, 0, 60, 0
2, 6390, Note_on_c, 0, 62, 64
2, 6420, Note_on_c, 0, 62, 0
2, 6420, Note_on_c, 0, 72, 64
2, 6450, Note_on_c, 0, 72, 0
2, 6450, Note_on_c, 0, 62, 64
2, 6480, Note_on_c, 0, 62, 0
2, 6510, Note_on_c, 0, 62, 64
2, 6540, Note_on_c, 0, 62, 0
2, 6540, Note_on_c, 0, 70, 64
2, 6570, Note_on_c, 0, 70, 0
2, 6570, Note_on_c, 0, 62, 64
2, 6600, Note_on_c, 0, 62, 0
2, 6630, Note_on_c, 0, 64, 64
2, 6660, Note_on_c, 0, 64, 0
2, 6660, Note_on_c, 0, 74, 64
2, 6690, Note_on_c, 0, 74, 0
2, 6690, Note_on_c, 0, 64, 64
2, 6720, Note_on_c, 0, 64, 0
2, 6870, Note_on_c, 0, 67, 64
2, 6900, Note_on_c, 0, 67, 0
2, 6900, Note_on_c, 0, 69, 64
2, 6930, Note_on_c, 0, 69, 0
2, 6930, Note_on_c, 0, 70, 64
2, 6960, Note_on_c, 0, 70, 0
2, 6960, Note_on_c, 0, 72, 64
2, 6990, Note_on_c, 0, 72, 0
2, 6990, Note_on_c, 0, 70, 64
2, 7020, Note_on_c, 0, 70, 0
2, 7020, Note_on_c, 0, 69, 64
2, 7050, Note_on_c, 0, 69, 0
2, 7050, Note_on_c, 0, 67, 64
2, 7080, Note_on_c, 0, 67, 0
2, 7200, Note_on_c, 0, 62, 64
2, 7230, Note_on_c, 0, 62, 0
2, 7230, Note_on_c, 0, 58, 64
2, 7260, Note_on_c, 0, 58, 0
2, 7260, Note_on_c, 0, 57, 64
2, 7290, Note_on_c, 0, 57, 0
2, 7290, Note_on_c, 0, 55, 64
2, 7320, Note_on_c, 0, 55, 0
2, 7320, Note_on_c, 0, 53, 64
2, 7350, Note_on_c, 0, 53, 0
2, 7500, Note_on_c, 0, 50, 64
2, 7530, Note_on_c, 0, 50, 0
2, 7530, Note_on_c, 0, 48, 64
2, 7560, Note_on_c, 0, 48, 0
2, 7560, Note_on_c, 0, 46, 64
2, 7590, Note_on_c, 0, 46, 0
2, 7710, Note_on_c, 0, 60, 64
2, 7740, Note_on_c, 0, 60, 0
2, 7740, Note_on_c, 0, 70, 64
2, 7770, Note_on_c, 0, 70, 0
2, 7770, Note_on_c, 0, 60, 64
2, 7800, Note_on_c, 0, 60, 0
2, 7830, Note_on_c, 0, 60, 64
2, 7860, Note_on_c, 0, 60, 0
2, 7860, Note_on_c, 0, 69, 64
2, 7890, Note_on_c, 0, 69, 0
2, 7890, Note_on_c, 0, 60, 64
2, 7920, Note_on_c, 0, 60, 0
2, 7950, Note_on_c, 0, 58, 64
2, 7980, Note_on_c, 0, 58, 0
2, 7980, Note_on_c, 0, 69, 64
2, 8010, Note_on_c, 0, 69, 0
2, 8010, Note_on_c, 0, 58, 64
2, 8040, Note_on_c, 0, 58, 0
2, 8070, Note_on_c, 0, 58, 64
2, 8100, Note_on_c, 0, 58, 0
2, 8100, Note_on_c, 0, 67, 64
2, 8130, Note_on_c, 0, 67, 0
2, 8130, Note_on_c, 0, 58, 64
2, 8160, Note_on_c, 0, 58, 0
2, 8190, Note_on_c, 0, 57, 64
2, 8220, Note_on_c, 0, 57, 0
2, 8220, Note_on_c, 0, 67, 64
2, 8250, Note_on_c, 0, 67, 0
2, 8250, Note_on_c, 0, 57, 64
2, 8280, Note_on_c, 0, 57, 0
2, 8310, Note_on_c, 0, 57, 64
2, 8340, Note_on_c, 0, 57, 0
2, 8340, Note_on_c, 0, 65, 64
2, 8370, Note_on_c, 0, 65, 0
2, 8370, Note_on_c, 0, 57, 64
2, 8400, Note_on_c, 0, 57, 0
2, 8430, Note_on_c, 0, 55, 64
2, 8460, Note_on_c, 0, 55, 0
2, 8460, Note_on_c, 0, 65, 64
2, 8490, Note_on_c, 0, 65, 0
2, 8490, Note_on_c, 0, 55, 64
2, 8520, Note_on_c, 0, 55, 0
2, 8550, Note_on_c, 0, 55, 64
2, 8580, Note_on_c, 0, 55, 0
2, 8580, Note_on_c, 0, 64, 64
2, 8610, Note_on_c, 0, 64, 0
2, 8610, Note_on_c, 0, 55, 64
2, 8640, Note_on_c, 0, 55, 0
2, 8640, Note_on_c, 0, 57, 64
2, 8670, Note_on_c, 0, 57, 0
2, 8670, Note_on_c, 0, 60, 64
2, 8700, Note_on_c, 0, 60, 0
2, 8700, Note_on_c, 0, 65, 64
2, 8730, Note_on_c, 0, 65, 0
2, 8730, Note_on_c, 0, 60, 64
2, 8760, Note_on_c, 0, 60, 0
2, 8760, Note_on_c, 0, 57, 64
2, 8790, Note_on_c, 0, 57, 0
2, 8790, Note_on_c, 0, 65, 64
2, 8820, Note_on_c, 0, 65, 0
2, 8820, Note_on_c, 0, 60, 64
2, 8850, Note_on_c, 0, 60, 0
2, 8850, Note_on_c, 0, 57, 64
2, 8880, Note_on_c, 0, 57, 0
2, 8880, Note_on_c, 0, 53, 64
2, 8910, Note_on_c, 0, 53, 0
2, 8910, Note_on_c, 0, 57, 64
2, 8940, Note_on_c, 0, 57, 0
2, 8940, Note_on_c, 0, 60, 64
2, 8970, Note_on_c, 0, 60, 0
2, 8970, Note_on_c, 0, 57, 64
2, 9000, Note_on_c, 0, 57, 0
2, 9000, Note_on_c, 0, 53, 64
2, 9030, Note_on_c, 0, 53, 0
2, 9030, Note_on_c, 0, 60, 64
2, 9060, Note_on_c, 0, 60, 0
2, 9060, Note_on_c, 0, 57, 64
2, 9090, Note_on_c, 0, 57, 0
2, 9090, Note_on_c, 0, 53, 64
2, 9120, Note_on_c, 0, 53, 0
2, 9150, Note_on_c, 0, 53, 64
2, 9180, Note_on_c, 0, 53, 0
2, 9180, Note_on_c, 0, 52, 64
2, 9210, Note_on_c, 0, 52, 0
2, 9210, Note_on_c, 0, 50, 64
2, 9240, Note_on_c, 0, 50, 0
2, 9240, Note_on_c, 0, 48, 64
2, 9270, Note_on_c, 0, 48, 0
2, 9480, Note_on_c, 0, 57, 64
2, 9510, Note_on_c, 0, 57, 0
2, 9510, Note_on_c, 0, 60, 64
2, 9540, Note_on_c, 0, 60, 0
2, 9540, Note_on_c, 0, 63, 64
2, 9570, Note_on_c, 0, 63, 0
2, 9570, Note_on_c, 0, 66, 64
2, 9600, Note_on_c, 0, 66, 0
2, 9840, Note_on_c, 0, 70, 64
2, 9840, Note_on_c, 0, 77, 64
2, 9840, Note_on_c, 0, 68, 64
2, 9840, Note_on_c, 0, 74, 64
2, 10020, Note_on_c, 0, 74, 0
2, 10020, Note_on_c, 0, 70, 0
2, 10020, Note_on_c, 0, 77, 0
2, 10020, Note_on_c, 0, 68, 0
2, 10020, Note_on_c, 0, 70, 64
2, 10020, Note_on_c, 0, 68, 64
2, 10020, Note_on_c, 0, 77, 64
2, 10020, Note_on_c, 0, 74, 64
2, 10080, Note_on_c, 0, 74, 0
2, 10080, Note_on_c, 0, 70, 0
2, 10080, Note_on_c, 0, 68, 0
2, 10080, Note_on_c, 0, 77, 0
2, 10080, Note_on_c, 0, 74, 64
2, 10080, Note_on_c, 0, 71, 64
2, 10080, Note_on_c, 0, 67, 64
2, 10080, Note_on_c, 0, 77, 64
2, 10320, Note_on_c, 0, 77, 0
2, 10320, Note_on_c, 0, 74, 0
2, 10320, Note_on_c, 0, 71, 0
2, 10320, Note_on_c, 0, 67, 0
2, 10350, Note_on_c, 0, 79, 64
2, 10380, Note_on_c, 0, 79, 0
2, 10380, Note_on_c, 0, 80, 64
2, 10410, Note_on_c, 0, 80, 0
2, 10410, Note_on_c, 0, 79, 64
2, 10440, Note_on_c, 0, 79, 0
2, 10440, Note_on_c, 0, 77, 64
2, 10470, Note_on_c, 0, 77, 0
2, 10470, Note_on_c, 0, 75, 64
2, 10500, Note_on_c, 0, 75, 0
2, 10500, Note_on_c, 0, 74, 64
2, 10530, Note_on_c, 0, 74, 0
2, 10530, Note_on_c, 0, 75, 64
2, 10560, Note_on_c, 0, 75, 0
2, 10560, Note_on_c, 0, 77, 64
2, 10590, Note_on_c, 0, 77, 0
2, 10590, Note_on_c, 0, 75, 64
2, 10620, Note_on_c, 0, 75, 0
2, 10620, Note_on_c, 0, 74, 64
2, 10650, Note_on_c, 0, 74, 0
2, 10650, Note_on_c, 0, 72, 64
2, 10680, Note_on_c, 0, 72, 0
2, 10680, Note_on_c, 0, 71, 64
2, 10710, Note_on_c, 0, 71, 0
2, 10710, Note_on_c, 0, 72, 64
2, 10740, Note_on_c, 0, 72, 0
2, 10740, Note_on_c, 0, 74, 64
2, 10770, Note_on_c, 0, 74, 0
2, 10770, Note_on_c, 0, 72, 64
2, 10800, Note_on_c, 0, 72, 0
2, 10800, Note_on_c, 0, 71, 64
2, 10830, Note_on_c, 0, 71, 0
2, 10830, Note_on_c, 0, 69, 64
2, 10860, Note_on_c, 0, 69, 0
2, 10860, Note_on_c, 0, 67, 64
2, 10890, Note_on_c, 0, 67, 0
2, 10890, Note_on_c, 0, 69, 64
2, 10920, Note_on_c, 0, 69, 0
2, 10920, Note_on_c, 0, 71, 64
2, 10950, Note_on_c, 0, 71, 0
2, 10950, Note_on_c, 0, 69, 64
2, 10980, Note_on_c, 0, 69, 0
2, 10980, Note_on_c, 0, 67, 64
2, 11010, Note_on_c, 0, 67, 0
2, 11010, Note_on_c, 0, 65, 64
2, 11040, Note_on_c, 0, 65, 0
2, 11040, Note_on_c, 0, 63, 64
2, 11070, Note_on_c, 0, 63, 0
2, 11070, Note_on_c, 0, 62, 64
2, 11100, Note_on_c, 0, 62, 0
2, 11100, Note_on_c, 0, 60, 64
2, 11130, Note_on_c, 0, 60, 0
2, 11130, Note_on_c, 0, 58, 64
2, 11160, Note_on_c, 0, 58, 0
2, 11160, Note_on_c, 0, 56, 64
2, 11190, Note_on_c, 0, 56, 0
2, 11190, Note_on_c, 0, 55, 64
2, 11220, Note_on_c, 0, 55, 0
2, 11220, Note_on_c, 0, 53, 64
2, 11250, Note_on_c, 0, 53, 0
2, 11250, Note_on_c, 0, 51, 64
2, 11280, Note_on_c, 0, 51, 0
2, 11280, Note_on_c, 0, 50, 64
2, 11310, Note_on_c, 0, 50, 0
2, 11310, Note_on_c, 0, 48, 64
2, 11340, Note_on_c, 0, 48, 0
2, 11340, Note_on_c, 0, 47, 64
2, 11370, Note_on_c, 0, 47, 0
2, 11370, Note_on_c, 0, 45, 64
2, 11400, Note_on_c, 0, 45, 0
2, 11400, Note_on_c, 0, 43, 64
2, 11430, Note_on_c, 0, 43, 0
2, 11430, Note_on_c, 0, 41, 64
2, 11460, Note_on_c, 0, 41, 0
2, 11460, Note_on_c, 0, 39, 64
2, 11490, Note_on_c, 0, 39, 0
2, 11490, Note_on_c, 0, 38, 64
2, 11520, Note_on_c, 0, 38, 0
2, 11520, Note_on_c, 0, 36, 64
2, 11640, Note_on_c, 0, 36, 0
2, 11760, Note_on_c, 0, 70, 64
2, 11760, Note_on_c, 0, 72, 64
2, 11760, Note_on_c, 0, 67, 64
2, 11760, Note_on_c, 0, 75, 64
2, 11940, Note_on_c, 0, 75, 0
2, 11940, Note_on_c, 0, 70, 0
2, 11940, Note_on_c, 0, 72, 0
2, 11940, Note_on_c, 0, 67, 0
2, 11940, Note_on_c, 0, 70, 64
2, 11940, Note_on_c, 0, 72, 64
2, 11940, Note_on_c, 0, 67, 64
2, 11940, Note_on_c, 0, 75, 64
2, 12000, Note_on_c, 0, 75, 0
2, 12000, Note_on_c, 0, 70, 0
2, 12000, Note_on_c, 0, 72, 0
2, 12000, Note_on_c, 0, 67, 0
2, 12000, Note_on_c, 0, 69, 64
2, 12000, Note_on_c, 0, 72, 64
2, 12000, Note_on_c, 0, 65, 64
2, 12000, Note_on_c, 0, 75, 64
2, 12240, Note_on_c, 0, 75, 0
2, 12240, Note_on_c, 0, 69, 0
2, 12240, Note_on_c, 0, 72, 0
2, 12240, Note_on_c, 0, 65, 0
2, 13680, Note_on_c, 0, 70, 64
2, 13680, Note_on_c, 0, 68, 64
2, 13680, Note_on_c, 0, 65, 64
2, 13680, Note_on_c, 0, 74, 64
2, 13860, Note_on_c, 0, 74, 0
2, 13860, Note_on_c, 0, 70, 0
2, 13860, Note_on_c, 0, 68, 0
2, 13860, Note_on_c, 0, 65, 0
2, 13860, Note_on_c, 0, 65, 64
2, 13860, Note_on_c, 0, 70, 64
2, 13860, Note_on_c, 0, 68, 64
2, 13860, Note_on_c, 0, 74, 64
2, 13920, Note_on_c, 0, 74, 0
2, 13920, Note_on_c, 0, 65, 0
2, 13920, Note_on_c, 0, 70, 0
2, 13920, Note_on_c, 0, 68, 0
2, 13920, Note_on_c, 0, 63, 64
2, 13920, Note_on_c, 0, 74, 64
2, 13920, Note_on_c, 0, 70, 64
2, 13920, Note_on_c, 0, 67, 64
2, 14160, Note_on_c, 0, 67, 0
2, 14160, Note_on_c, 0, 63, 0
2, 14160, Note_on_c, 0, 74, 0
2, 14160, Note_on_c, 0, 70, 0
2, 14160, Note_on_c, 0, 73, 64
2, 14160, Note_on_c, 0, 70, 64
2, 14160, Note_on_c, 0, 67, 64
2, 14340, Note_on_c, 0, 67, 0
2, 14340, Note_on_c, 0, 70, 0
2, 14340, Note_on_c, 0, 73, 0
2, 14340, Note_on_c, 0, 72, 64
2, 14340, Note_on_c, 0, 70, 64
2, 14340, Note_on_c, 0, 67, 64
2, 14400, Note_on_c, 0, 67, 0
2, 14400, Note_on_c, 0, 70, 0
2, 14400, Note_on_c, 0, 72, 0
2, 14400, Note_on_c, 0, 72, 64
2, 14400, Note_on_c, 0, 69, 64
2, 14400, Note_on_c, 0, 65, 64
2, 14640, Note_on_c, 0, 65, 0
2, 14640, Note_on_c, 0, 69, 0
2, 14670, Note_on_c, 0, 72, 0
2, 14670, Note_on_c, 0, 72, 64
2, 14700, Note_on_c, 0, 72, 0
2, 14700, Note_on_c, 0, 69, 64
2, 14730, Note_on_c, 0, 69, 0
2, 14730, Note_on_c, 0, 65, 64
2, 14760, Note_on_c, 0, 65, 0
2, 14790, Note_on_c, 0, 65, 64
2, 14820, Note_on_c, 0, 65, 0
2, 14820, Note_on_c, 0, 69, 64
2, 14850, Note_on_c, 0, 69, 0
2, 14850, Note_on_c, 0, 72, 64
2, 14880, Note_on_c, 0, 72, 0
2, 14880, Note_on_c, 0, 69, 64
2, 14910, Note_on_c, 0, 69, 0
2, 14910, Note_on_c, 0, 72, 64
2, 14940, Note_on_c, 0, 72, 0
2, 14940, Note_on_c, 0, 69, 64
2, 14970, Note_on_c, 0, 69, 0
2, 14970, Note_on_c, 0, 65, 64
2, 15000, Note_on_c, 0, 65, 0
2, 15060, Note_on_c, 0, 69, 64
2, 15090, Note_on_c, 0, 69, 0
2, 15090, Note_on_c, 0, 72, 64
2, 15120, Note_on_c, 0, 72, 0
2, 15120, Note_on_c, 0, 78, 64
2, 15150, Note_on_c, 0, 78, 0
2, 15150, Note_on_c, 0, 77, 64
2, 15180, Note_on_c, 0, 77, 0
2, 15180, Note_on_c, 0, 75, 64
2, 15210, Note_on_c, 0, 75, 0
2, 15210, Note_on_c, 0, 73, 64
2, 15240, Note_on_c, 0, 73, 0
2, 15240, Note_on_c, 0, 72, 64
2, 15270, Note_on_c, 0, 72, 0
2, 15270, Note_on_c, 0, 70, 64
2, 15300, Note_on_c, 0, 70, 0
2, 15300, Note_on_c, 0, 69, 64
2, 15330, Note_on_c, 0, 69, 0
2, 15330, Note_on_c, 0, 67, 64
2, 15360, Note_on_c, 0, 67, 0
2, 15360, Note_on_c, 0, 69, 64
2, 15390, Note_on_c, 0, 69, 0
2, 15510, Note_on_c, 0, 78, 64
2, 15540, Note_on_c, 0, 78, 0
2, 15540, Note_on_c, 0, 81, 64
2, 15570, Note_on_c, 0, 81, 0
2, 15570, Note_on_c, 0, 84, 64
2, 15600, Note_on_c, 0, 84, 0
2, 15600, Note_on_c, 0, 82, 64
2, 15690, Note_on_c, 0, 82, 0
2, 15690, Note_on_c, 0, 72, 64
2, 15720, Note_on_c, 0, 72, 0
2, 15720, Note_on_c, 0, 73, 64
2, 15750, Note_on_c, 0, 69, 64
2, 15780, Note_on_c, 0, 69, 0
2, 15780, Note_on_c, 0, 70, 64
2, 15810, Note_on_c, 0, 70, 0
2, 15810, Note_on_c, 0, 64, 64
2, 15840, Note_on_c, 0, 64, 0
2, 15840, Note_on_c, 0, 73, 0
2, 15840, Note_on_c, 0, 60, 64
2, 15850, Note_on_c, 0, 65, 64
2, 15860, Note_on_c, 0, 70, 64
2, 15870, Note_on_c, 0, 72, 64
2, 15960, Note_on_c, 0, 60, 0
2, 15960, Note_on_c, 0, 62, 64
2, 16080, Note_on_c, 0, 62, 0
2, 16080, Note_on_c, 0, 72, 0
2, 16080, Note_on_c, 0, 70, 0
2, 16080, Note_on_c, 0, 65, 0
2, 16080, Note_on_c, 0, 53, 64
2, 16080, Note_on_c, 0, 72, 64
2, 16080, Note_on_c, 0, 69, 64
2, 16080, Note_on_c, 0, 65, 64
2, 16200, Note_on_c, 0, 53, 0
2, 16200, Note_on_c, 0, 55, 64
2, 16320, Note_on_c, 0, 55, 0
2, 16320, Note_on_c, 0, 65, 0
2, 16320, Note_on_c, 0, 69, 0
2, 16320, Note_on_c, 0, 72, 0
2, 16320, Note_on_c, 0, 62, 64
2, 16320, Note_on_c, 0, 65, 64
2, 16320, Note_on_c, 0, 70, 64
2, 16560, Note_on_c, 0, 70, 0
2, 16560, Note_on_c, 0, 65, 0
2, 16590, Note_on_c, 0, 62, 0
2, 16590, Note_on_c, 0, 65, 64
2, 16620, Note_on_c, 0, 65, 0
2, 16620, Note_on_c, 0, 62, 64
2, 16650, Note_on_c, 0, 62, 0
2, 16650, Note_on_c, 0, 58, 64
2, 16680, Note_on_c, 0, 58, 0
2, 16710, Note_on_c, 0, 58, 64
2, 16740, Note_on_c, 0, 58, 0
2, 16740, Note_on_c, 0, 62, 64
2, 16770, Note_on_c, 0, 62, 0
2, 16770, Note_on_c, 0, 65, 64
2, 16800, Note_on_c, 0, 65, 0
2, 16800, Note_on_c, 0, 62, 64
2, 16830, Note_on_c, 0, 62, 0
2, 16830, Note_on_c, 0, 65, 64
2, 16860, Note_on_c, 0, 65, 0
2, 16860, Note_on_c, 0, 62, 64
2, 16890, Note_on_c, 0, 62, 0
2, 16890, Note_on_c, 0, 58, 64
2, 16920, Note_on_c, 0, 58, 0
2, 16980, Note_on_c, 0, 62, 64
2, 17010, Note_on_c, 0, 62, 0
2, 17010, Note_on_c, 0, 65, 64
2, 17040, Note_on_c, 0, 65, 0
2, 17040, Note_on_c, 0, 71, 64
2, 17070, Note_on_c, 0, 71, 0
2, 17070, Note_on_c, 0, 68, 64
2, 17100, Note_on_c, 0, 68, 0
2, 17100, Note_on_c, 0, 65, 64
2, 17130, Note_on_c, 0, 65, 0
2, 17130, Note_on_c, 0, 62, 64
2, 17160, Note_on_c, 0, 62, 0
2, 17250, Note_on_c, 0, 62, 64
2, 17270, Note_on_c, 0, 62, 0
2, 17280, Note_on_c, 0, 62, 70
2, 17300, Note_on_c, 0, 62, 0
2, 17300, Note_on_c, 0, 63, 64
2, 17320, Note_on_c, 0, 63, 0
2, 17320, Note_on_c, 0, 65, 54
2, 17340, Note_on_c, 0, 65, 0
2, 17340, Note_on_c, 0, 63, 60
2, 17360, Note_on_c, 0, 63, 0
2, 17360, Note_on_c, 0, 65, 64
2, 17380, Note_on_c, 0, 65, 0
2, 17380, Note_on_c, 0, 63, 64
2, 17430, Note_on_c, 0, 63, 0
2, 17430, Note_on_c, 0, 62, 64
2, 17460, Note_on_c, 0, 62, 0
2, 17460, Note_on_c, 0, 60, 64
2, 17490, Note_on_c, 0, 60, 0
2, 17490, Note_on_c, 0, 62, 64
2, 17520, Note_on_c, 0, 62, 0
2, 17520, Note_on_c, 0, 63, 64
2, 17550, Note_on_c, 0, 63, 0
2, 17550, Note_on_c, 0, 62, 64
2, 17580, Note_on_c, 0, 62, 0
2, 17580, Note_on_c, 0, 60, 64
2, 17610, Note_on_c, 0, 60, 0
2, 17610, Note_on_c, 0, 58, 64
2, 17640, Note_on_c, 0, 58, 0
2, 17640, Note_on_c, 0, 57, 64
2, 17670, Note_on_c, 0, 57, 0
2, 17670, Note_on_c, 0, 58, 64
2, 17700, Note_on_c, 0, 58, 0
2, 17700, Note_on_c, 0, 60, 64
2, 17730, Note_on_c, 0, 60, 0
2, 17730, Note_on_c, 0, 58, 64
2, 17760, Note_on_c, 0, 58, 0
2, 17760, Note_on_c, 0, 57, 64
2, 17790, Note_on_c, 0, 57, 0
2, 17790, Note_on_c, 0, 55, 64
2, 17820, Note_on_c, 0, 55, 0
2, 17820, Note_on_c, 0, 53, 64
2, 17850, Note_on_c, 0, 53, 0
2, 17850, Note_on_c, 0, 55, 64
2, 17880, Note_on_c, 0, 55, 0
2, 17880, Note_on_c, 0, 57, 64
2, 17910, Note_on_c, 0, 57, 0
2, 17910, Note_on_c, 0, 55, 64
2, 17940, Note_on_c, 0, 55, 0
2, 17940, Note_on_c, 0, 53, 64
2, 17970, Note_on_c, 0, 53, 0
2, 17970, Note_on_c, 0, 51, 64
2, 18000, Note_on_c, 0, 51, 0
2, 18000, Note_on_c, 0, 50, 64
2, 18030, Note_on_c, 0, 50, 0
2, 18030, Note_on_c, 0, 51, 64
2, 18060, Note_on_c, 0, 51, 0
2, 18060, Note_on_c, 0, 53, 64
2, 18090, Note_on_c, 0, 53, 0
2, 18090, Note_on_c, 0, 51, 64
2, 18120, Note_on_c, 0, 51, 0
2, 18270, Note_on_c, 0, 50, 64
2, 18300, Note_on_c, 0, 50, 0
2, 18300, Note_on_c, 0, 53, 64
2, 18330, Note_on_c, 0, 53, 0
2, 18330, Note_on_c, 0, 50, 64
2, 18360, Note_on_c, 0, 50, 0
2, 18390, Note_on_c, 0, 53, 64
2, 18420, Note_on_c, 0, 53, 0
2, 18420, Note_on_c, 0, 58, 64
2, 18450, Note_on_c, 0, 58, 0
2, 18450, Note_on_c, 0, 53, 64
2, 18480, Note_on_c, 0, 53, 0
2, 18510, Note_on_c, 0, 58, 64
2, 18540, Note_on_c, 0, 58, 0
2, 18540, Note_on_c, 0, 62, 64
2, 18570, Note_on_c, 0, 62, 0
2, 18570, Note_on_c, 0, 58, 64
2, 18600, Note_on_c, 0, 58, 0
2, 18630, Note_on_c, 0, 62, 64
2, 18660, Note_on_c, 0, 62, 0
2, 18660, Note_on_c, 0, 65, 64
2, 18690, Note_on_c, 0, 65, 0
2, 18690, Note_on_c, 0, 62, 64
2, 18720, Note_on_c, 0, 62, 0
2, 18750, Note_on_c, 0, 65, 64
2, 18780, Note_on_c, 0, 65, 0
2, 18780, Note_on_c, 0, 70, 64
2, 18810, Note_on_c, 0, 70, 0
2, 18810, Note_on_c, 0, 65, 64
2, 18840, Note_on_c, 0, 65, 0
2, 18870, Note_on_c, 0, 70, 64
2, 18900, Note_on_c, 0, 70, 0
2, 18900, Note_on_c, 0, 74, 64
2, 18930, Note_on_c, 0, 74, 0
2, 18930, Note_on_c, 0, 70, 64
2, 18960, Note_on_c, 0, 70, 0
2, 18990, Note_on_c, 0, 74, 64
2, 19020, Note_on_c, 0, 74, 0
2, 19020, Note_on_c, 0, 77, 64
2, 19050, Note_on_c, 0, 77, 0
2, 19050, Note_on_c, 0, 74, 64
2, 19080, Note_on_c, 0, 74, 0
2, 19080, Note_on_c, 0, 82, 64
2, 19200, Note_on_c, 0, 82, 0
2, 19200, End_track
3, 0, Start_track
3, 0, Program_c, 1, 0
3, 0, Note_on_c, 1, 58, 64
3, 120, Note_on_c, 1, 58, 0
3, 120, Note_on_c, 1, 57, 64
3, 240, Note_on_c, 1, 57, 0
3, 240, Note_on_c, 1, 58, 64
3, 360, Note_on_c, 1, 58, 0
3, 360, Note_on_c, 1, 53, 64
3, 480, Note_on_c, 1, 53, 0
3, 480, Note_on_c, 1, 55, 64
3, 600, Note_on_c, 1, 55, 0
3, 600, Note_on_c, 1, 53, 64
3, 720, Note_on_c, 1, 53, 0
3, 720, Note_on_c, 1, 55, 64
3, 840, Note_on_c, 1, 55, 0
3, 840, Note_on_c, 1, 50, 64
3, 960, Note_on_c, 1, 50, 0
3, 960, Note_on_c, 1, 51, 64
3, 1080, Note_on_c, 1, 51, 0
3, 1080, Note_on_c, 1, 50, 64
3, 1200, Note_on_c, 1, 50, 0
3, 1200, Note_on_c, 1, 51, 64
3, 1320, Note_on_c, 1, 51, 0
3, 1320, Note_on_c, 1, 46, 64
3, 1440, Note_on_c, 1, 46, 0
3, 1440, Note_on_c, 1, 48, 64
3, 1560, Note_on_c, 1, 48, 0
3, 1560, Note_on_c, 1, 46, 64
3, 1680, Note_on_c, 1, 46, 0
3, 1680, Note_on_c, 1, 45, 64
3, 1800, Note_on_c, 1, 45, 0
3, 1800, Note_on_c, 1, 41, 64
3, 1920, Note_on_c, 1, 41, 0
3, 1920, Note_on_c, 1, 58, 64
3, 2040, Note_on_c, 1, 58, 0
3, 2040, Note_on_c, 1, 53, 64
3, 2160, Note_on_c, 1, 53, 0
3, 2160, Note_on_c, 1, 50, 64
3, 2280, Note_on_c, 1, 50, 0
3, 2280, Note_on_c, 1, 46, 64
3, 2400, Note_on_c, 1, 46, 0
3, 2400, Note_on_c, 1, 43, 64
3, 2430, Note_on_c, 1, 43, 0
3, 2430, Note_on_c, 1, 50, 64
3, 2460, Note_on_c, 1, 50, 0
3, 2460, Note_on_c, 1, 52, 64
3, 2490, Note_on_c, 1, 52, 0
3, 2490, Note_on_c, 1, 54, 64
3, 2520, Note_on_c, 1, 54, 0
3, 2520, Note_on_c, 1, 55, 64
3, 2550, Note_on_c, 1, 55, 0
3, 2670, Note_on_c, 1, 55, 64
3, 2700, Note_on_c, 1, 55, 0
3, 2700, Note_on_c, 1, 57, 64
3, 2730, Note_on_c, 1, 57, 0
3, 2730, Note_on_c, 1, 58, 64
3, 2760, Note_on_c, 1, 58, 0
3, 2760, Note_on_c, 1, 60, 64
3, 2790, Note_on_c, 1, 60, 0
3, 2880, Note_on_c, 1, 60, 64
3, 3000, Note_on_c, 1, 60, 0
3, 3000, Note_on_c, 1, 55, 64
3, 3120, Note_on_c, 1, 55, 0
3, 3120, Note_on_c, 1, 52, 64
3, 3240, Note_on_c, 1, 52, 0
3, 3240, Note_on_c, 1, 48, 64
3, 3360, Note_on_c, 1, 48, 0
3, 3360, Note_on_c, 1, 45, 64
3, 3390, Note_on_c, 1, 45, 0
3, 3390, Note_on_c, 1, 52, 64
3, 3420, Note_on_c, 1, 52, 0
3, 3420, Note_on_c, 1, 53, 64
3, 3450, Note_on_c, 1, 53, 0
3, 3450, Note_on_c, 1, 55, 64
3, 3480, Note_on_c, 1, 55, 0
3, 3480, Note_on_c, 1, 57, 64
3, 3510, Note_on_c, 1, 57, 0
3, 3630, Note_on_c, 1, 57, 64
3, 3660, Note_on_c, 1, 57, 0
3, 3660, Note_on_c, 1, 59, 64
3, 3690, Note_on_c, 1, 59, 0
3, 3690, Note_on_c, 1, 60, 64
3, 3720, Note_on_c, 1, 60, 0
3, 3720, Note_on_c, 1, 62, 64
3, 3750, Note_on_c, 1, 62, 0
3, 3840, Note_on_c, 1, 62, 64
3, 3960, Note_on_c, 1, 62, 0
3, 3960, Note_on_c, 1, 57, 64
3, 4080, Note_on_c, 1, 57, 0
3, 4080, Note_on_c, 1, 53, 64
3, 4200, Note_on_c, 1, 53, 0
3, 4200, Note_on_c, 1, 50, 64
3, 4320, Note_on_c, 1, 50, 0
3, 4320, Note_on_c, 1, 46, 64
3, 4440, Note_on_c, 1, 46, 0
3, 4440, Note_on_c, 1, 43, 64
3, 4560, Note_on_c, 1, 43, 0
3, 4560, Note_on_c, 1, 45, 64
3, 4680, Note_on_c, 1, 45, 0
3, 4680, Note_on_c, 1, 41, 64
3, 4800, Note_on_c, 1, 41, 0
3, 4800, Note_on_c, 1, 46, 64
3, 4920, Note_on_c, 1, 46, 0
3, 4920, Note_on_c, 1, 43, 64
3, 5040, Note_on_c, 1, 43, 0
3, 5040, Note_on_c, 1, 45, 64
3, 5160, Note_on_c, 1, 45, 0
3, 5160, Note_on_c, 1, 41, 64
3, 5280, Note_on_c, 1, 41, 0
3, 5280, Note_on_c, 1, 46, 64
3, 5400, Note_on_c, 1, 46, 0
3, 5400, Note_on_c, 1, 47, 64
3, 5520, Note_on_c, 1, 47, 0
3, 5520, Note_on_c, 1, 48, 64
3, 5640, Note_on_c, 1, 48, 0
3, 5640, Note_on_c, 1, 49, 64
3, 5760, Note_on_c, 1, 49, 0
3, 5760, Note_on_c, 1, 50, 64
3, 5880, Note_on_c, 1, 50, 0
3, 5880, Note_on_c, 1, 38, 64
3, 6000, Note_on_c, 1, 38, 0
3, 6000, Note_on_c, 1, 40, 64
3, 6120, Note_on_c, 1, 40, 0
3, 6120, Note_on_c, 1, 52, 64
3, 6240, Note_on_c, 1, 52, 0
3, 6240, Note_on_c, 1, 53, 64
3, 6360, Note_on_c, 1, 53, 0
3, 6360, Note_on_c, 1, 41, 64
3, 6480, Note_on_c, 1, 41, 0
3, 6480, Note_on_c, 1, 43, 64
3, 6600, Note_on_c, 1, 43, 0
3, 6600, Note_on_c, 1, 55, 64
3, 6720, Note_on_c, 1, 55, 0
3, 6720, Note_on_c, 1, 57, 64
3, 6750, Note_on_c, 1, 57, 0
3, 6750, Note_on_c, 1, 60, 64
3, 6780, Note_on_c, 1, 60, 0
3, 6780, Note_on_c, 1, 62, 64
3, 6810, Note_on_c, 1, 62, 0
3, 6810, Note_on_c, 1, 64, 64
3, 6840, Note_on_c, 1, 64, 0
3, 6840, Note_on_c, 1, 65, 64
3, 6870, Note_on_c, 1, 65, 0
3, 7080, Note_on_c, 1, 65, 64
3, 7110, Note_on_c, 1, 65, 0
3, 7110, Note_on_c, 1, 63, 64
3, 7140, Note_on_c, 1, 63, 0
3, 7140, Note_on_c, 1, 62, 64
3, 7170, Note_on_c, 1, 62, 0
3, 7170, Note_on_c, 1, 60, 64
3, 7200, Note_on_c, 1, 60, 0
3, 7350, Note_on_c, 1, 51, 64
3, 7380, Note_on_c, 1, 51, 0
3, 7380, Note_on_c, 1, 50, 64
3, 7410, Note_on_c, 1, 50, 0
3, 7410, Note_on_c, 1, 48, 64
3, 7440, Note_on_c, 1, 48, 0
3, 7440, Note_on_c, 1, 46, 64
3, 7470, Note_on_c, 1, 46, 0
3, 7470, Note_on_c, 1, 48, 64
3, 7500, Note_on_c, 1, 48, 0
3, 7590, Note_on_c, 1, 45, 64
3, 7620, Note_on_c, 1, 45, 0
3, 7620, Note_on_c, 1, 43, 64
3, 7650, Note_on_c, 1, 43, 0
3, 7650, Note_on_c, 1, 41, 64
3, 7680, Note_on_c, 1, 41, 0
3, 7680, Note_on_c, 1, 40, 64
3, 7800, Note_on_c, 1, 40, 0
3, 7800, Note_on_c, 1, 41, 64
3, 7920, Note_on_c, 1, 41, 0
3, 7920, Note_on_c, 1, 38, 64
3, 8040, Note_on_c, 1, 38, 0
3, 8040, Note_on_c, 1, 40, 64
3, 8160, Note_on_c, 1, 40, 0
3, 8160, Note_on_c, 1, 41, 64
3, 8280, Note_on_c, 1, 41, 0
3, 8280, Note_on_c, 1, 45, 64
3, 8400, Note_on_c, 1, 45, 0
3, 8400, Note_on_c, 1, 46, 64
3, 8520, Note_on_c, 1, 46, 0
3, 8520, Note_on_c, 1, 48, 64
3, 8640, Note_on_c, 1, 48, 0
3, 8640, Note_on_c, 1, 41, 64
3, 8760, Note_on_c, 1, 41, 0
3, 9120, Note_on_c, 1, 48, 64
3, 9150, Note_on_c, 1, 48, 0
3, 9270, Note_on_c, 1, 46, 64
3, 9300, Note_on_c, 1, 46, 0
3, 9300, Note_on_c, 1, 45, 64
3, 9330, Note_on_c, 1, 45, 0
3, 9330, Note_on_c, 1, 43, 64
3, 9360, Note_on_c, 1, 43, 0
3, 9360, Note_on_c, 1, 41, 64
3, 9390, Note_on_c, 1, 41, 0
3, 9390, Note_on_c, 1, 45, 64
3, 9420, Note_on_c, 1, 45, 0
3, 9420, Note_on_c, 1, 48, 64
3, 9450, Note_on_c, 1, 48, 0
3, 9450, Note_on_c, 1, 53, 64
3, 9480, Note_on_c, 1, 53, 0
3, 9600, Note_on_c, 1, 38, 64
3, 9720, Note_on_c, 1, 38, 0
3, 9840, Note_on_c, 1, 58, 64
3, 9840, Note_on_c, 1, 53, 64
3, 9840, Note_on_c, 1, 50, 64
3, 9840, Note_on_c, 1, 62, 64
3, 10020, Note_on_c, 1, 62, 0
3, 10020, Note_on_c, 1, 58, 0
3, 10020, Note_on_c, 1, 53, 0
3, 10020, Note_on_c, 1, 50, 0
3, 10020, Note_on_c, 1, 58, 64
3, 10020, Note_on_c, 1, 53, 64
3, 10020, Note_on_c, 1, 50, 64
3, 10020, Note_on_c, 1, 62, 64
3, 10080, Note_on_c, 1, 62, 0
3, 10080, Note_on_c, 1, 58, 0
3, 10080, Note_on_c, 1, 53, 0
3, 10080, Note_on_c, 1, 50, 0
3, 10080, Note_on_c, 1, 50, 64
3, 10080, Note_on_c, 1, 47, 64
3, 10080, Note_on_c, 1, 55, 64
3, 10320, Note_on_c, 1, 55, 0
3, 10320, Note_on_c, 1, 47, 0
3, 10320, Note_on_c, 1, 50, 0
3, 11760, Note_on_c, 1, 51, 64
3, 11760, Note_on_c, 1, 48, 64
3, 11760, Note_on_c, 1, 55, 64
3, 11760, Note_on_c, 1, 60, 64
3, 11940, Note_on_c, 1, 60, 0
3, 11940, Note_on_c, 1, 51, 0
3, 11940, Note_on_c, 1, 48, 0
3, 11940, Note_on_c, 1, 55, 0
3, 11940, Note_on_c, 1, 51, 64
3, 11940, Note_on_c, 1, 48, 64
3, 11940, Note_on_c, 1, 55, 64
3, 11940, Note_on_c, 1, 60, 64
3, 12000, Note_on_c, 1, 60, 0
3, 12000, Note_on_c, 1, 51, 0
3, 12000, Note_on_c, 1, 48, 0
3, 12000, Note_on_c, 1, 55, 0
3, 12000, Note_on_c, 1, 53, 64
3, 12000, Note_on_c, 1, 57, 64
3, 12000, Note_on_c, 1, 60, 64
3, 12240, Note_on_c, 1, 60, 0
3, 12240, Note_on_c, 1, 57, 0
3, 12270, Note_on_c, 1, 53, 0
3, 12270, Note_on_c, 1, 48, 64
3, 12300, Note_on_c, 1, 48, 0
3, 12300, Note_on_c, 1, 50, 64
3, 12330, Note_on_c, 1, 50, 0
3, 12330, Note_on_c, 1, 51, 64
3, 12360, Note_on_c, 1, 51, 0
3, 12360, Note_on_c, 1, 53, 64
3, 12390, Note_on_c, 1, 53, 0
3, 12390, Note_on_c, 1, 55, 64
3, 12420, Note_on_c, 1, 55, 0
3, 12420, Note_on_c, 1, 57, 64
3, 12450, Note_on_c, 1, 57, 0
3, 12450, Note_on_c, 1, 58, 64
3, 12480, Note_on_c, 1, 58, 0
3, 12480, Note_on_c, 1, 57, 64
3, 12510, Note_on_c, 1, 57, 0
3, 12510, Note_on_c, 1, 55, 64
3, 12540, Note_on_c, 1, 55, 0
3, 12540, Note_on_c, 1, 53, 64
3, 12570, Note_on_c, 1, 53, 0
3, 12570, Note_on_c, 1, 55, 64
3, 12600, Note_on_c, 1, 55, 0
3, 12600, Note_on_c, 1, 57, 64
3, 12630, Note_on_c, 1, 57, 0
3, 12630, Note_on_c, 1, 58, 64
3, 12660, Note_on_c, 1, 58, 0
3, 12660, Note_on_c, 1, 60, 64
3, 12690, Note_on_c, 1, 60, 0
3, 12690, Note_on_c, 1, 62, 64
3, 12720, Note_on_c, 1, 62, 0
3, 12720, Note_on_c, 1, 60, 64
3, 12750, Note_on_c, 1, 60, 0
3, 12750, Note_on_c, 1, 58, 64
3, 12780, Note_on_c, 1, 58, 0
3, 12780, Note_on_c, 1, 57, 64
3, 12810, Note_on_c, 1, 57, 0
3, 12810, Note_on_c, 1, 58, 64
3, 12840, Note_on_c, 1, 58, 0
3, 12840, Note_on_c, 1, 60, 64
3, 12870, Note_on_c, 1, 60, 0
3, 12870, Note_on_c, 1, 62, 64
3, 12900, Note_on_c, 1, 62, 0
3, 12900, Note_on_c, 1, 63, 64
3, 12930, Note_on_c, 1, 63, 0
3, 12930, Note_on_c, 1, 65, 64
3, 12960, Note_on_c, 1, 65, 0
3, 12960, Note_on_c, 1, 63, 64
3, 12990, Note_on_c, 1, 63, 0
3, 12990, Note_on_c, 1, 62, 64
3, 13020, Note_on_c, 1, 62, 0
3, 13020, Note_on_c, 1, 60, 64
3, 13050, Note_on_c, 1, 60, 0
3, 13050, Note_on_c, 1, 62, 64
3, 13080, Note_on_c, 1, 62, 0
3, 13080, Note_on_c, 1, 63, 64
3, 13110, Note_on_c, 1, 63, 0
3, 13110, Note_on_c, 1, 65, 64
3, 13140, Note_on_c, 1, 65, 0
3, 13140, Note_on_c, 1, 67, 64
3, 13170, Note_on_c, 1, 67, 0
3, 13170, Note_on_c, 1, 69, 64
3, 13200, Note_on_c, 1, 69, 0
3, 13200, Note_on_c, 1, 70, 64
3, 13230, Note_on_c, 1, 70, 0
3, 13230, Note_on_c, 1, 72, 64
3, 13260, Note_on_c, 1, 72, 0
3, 13260, Note_on_c, 1, 74, 64
3, 13290, Note_on_c, 1, 74, 0
3, 13290, Note_on_c, 1, 75, 64
3, 13320, Note_on_c, 1, 75, 0
3, 13320, Note_on_c, 1, 77, 64
3, 13350, Note_on_c, 1, 77, 0
3, 13350, Note_on_c, 1, 79, 64
3, 13380, Note_on_c, 1, 79, 0
3, 13380, Note_on_c, 1, 81, 64
3, 13410, Note_on_c, 1, 81, 0
3, 13410, Note_on_c, 1, 77, 64
3, 13440, Note_on_c, 1, 77, 0
3, 13440, Note_on_c, 1, 82, 64
3, 13560, Note_on_c, 1, 82, 0
3, 13680, Note_on_c, 1, 58, 64
3, 13680, Note_on_c, 1, 46, 64
3, 13680, Note_on_c, 1, 50, 64
3, 13680, Note_on_c, 1, 53, 64
3, 13860, Note_on_c, 1, 53, 0
3, 13860, Note_on_c, 1, 58, 0
3, 13860, Note_on_c, 1, 46, 0
3, 13860, Note_on_c, 1, 50, 0
3, 13860, Note_on_c, 1, 46, 64
3, 13860, Note_on_c, 1, 58, 64
3, 13860, Note_on_c, 1, 50, 64
3, 13860, Note_on_c, 1, 53, 64
3, 13920, Note_on_c, 1, 53, 0
3, 13920, Note_on_c, 1, 46, 0
3, 13920, Note_on_c, 1, 58, 0
3, 13920, Note_on_c, 1, 50, 0
3, 13920, Note_on_c, 1, 51, 64
3, 13920, Note_on_c, 1, 55, 64
3, 13920, Note_on_c, 1, 58, 64
3, 14160, Note_on_c, 1, 58, 0
3, 14160, Note_on_c, 1, 55, 0
3, 14160, Note_on_c, 1, 51, 0
3, 14160, Note_on_c, 1, 52, 64
3, 14160, Note_on_c, 1, 55, 64
3, 14160, Note_on_c, 1, 58, 64
3, 14340, Note_on_c, 1, 58, 0
3, 14340, Note_on_c, 1, 55, 0
3, 14340, Note_on_c, 1, 52, 0
3, 14340, Note_on_c, 1, 55, 64
3, 14340, Note_on_c, 1, 60, 64
3, 14340, Note_on_c, 1, 52, 64
3, 14400, Note_on_c, 1, 52, 0
3, 14400, Note_on_c, 1, 60, 0
3, 14400, Note_on_c, 1, 55, 0
3, 14400, Note_on_c, 1, 57, 64
3, 14400, Note_on_c, 1, 53, 64
3, 14400, Note_on_c, 1, 60, 64
3, 14400, Note_on_c, 1, 63, 64
3, 14640, Note_on_c, 1, 63, 0
3, 14640, Note_on_c, 1, 57, 0
3, 14640, Note_on_c, 1, 53, 0
3, 14640, Note_on_c, 1, 60, 0
3, 14760, Note_on_c, 1, 63, 64
3, 14790, Note_on_c, 1, 63, 0
3, 15000, Note_on_c, 1, 63, 64
3, 15030, Note_on_c, 1, 63, 0
3, 15030, Note_on_c, 1, 65, 64
3, 15060, Note_on_c, 1, 65, 0
3, 15390, Note_on_c, 1, 65, 64
3, 15420, Note_on_c, 1, 65, 0
3, 15420, Note_on_c, 1, 69, 64
3, 15450, Note_on_c, 1, 69, 0
3, 15450, Note_on_c, 1, 72, 64
3, 15480, Note_on_c, 1, 72, 0
3, 15480, Note_on_c, 1, 75, 64
3, 15510, Note_on_c, 1, 75, 0
3, 15840, Note_on_c, 1, 41, 64
3, 15850, Note_on_c, 1, 48, 64
3, 15860, Note_on_c, 1, 51, 64
3, 15870, Note_on_c, 1, 53, 64
3, 16080, Note_on_c, 1, 51, 0
3, 16080, Note_on_c, 1, 41, 0
3, 16080, Note_on_c, 1, 48, 0
3, 16080, Note_on_c, 1, 48, 64
3, 16080, Note_on_c, 1, 51, 64
3, 16080, Note_on_c, 1, 41, 64
3, 16140, Note_on_c, 1, 53, 0
3, 16320, Note_on_c, 1, 48, 0
3, 16320, Note_on_c, 1, 51, 0
3, 16320, Note_on_c, 1, 41, 0
3, 16320, Note_on_c, 1, 46, 64
3, 16320, Note_on_c, 1, 56, 64
3, 16320, Note_on_c, 1, 53, 64
3, 16320, Note_on_c, 1, 50, 64
3, 16560, Note_on_c, 1, 50, 0
3, 16560, Note_on_c, 1, 46, 0
3, 16560, Note_on_c, 1, 56, 0
3, 16560, Note_on_c, 1, 53, 0
3, 16680, Note_on_c, 1, 56, 64
3, 16710, Note_on_c, 1, 56, 0
3, 16920, Note_on_c, 1, 56, 64
3, 16950, Note_on_c, 1, 56, 0
3, 16950, Note_on_c, 1, 58, 64
3, 16980, Note_on_c, 1, 58, 0
3, 17160, Note_on_c, 1, 59, 64
3, 17190, Note_on_c, 1, 59, 0
3, 17190, Note_on_c, 1, 56, 64
3, 17220, Note_on_c, 1, 56, 0
3, 17220, Note_on_c, 1, 53, 64
3, 17250, Note_on_c, 1, 53, 0
3, 17280, Note_on_c, 1, 55, 64
3, 17400, Note_on_c, 1, 55, 0
3, 18120, Note_on_c, 1, 50, 64
3, 18150, Note_on_c, 1, 50, 0
3, 18150, Note_on_c, 1, 48, 64
3, 18180, Note_on_c, 1, 48, 0
3, 18180, Note_on_c, 1, 46, 64
3, 18210, Note_on_c, 1, 46, 0
3, 18210, Note_on_c, 1, 45, 64
3, 18240, Note_on_c, 1, 45, 0
3, 18240, Note_on_c, 1, 46, 64
3, 18360, Note_on_c, 1, 46, 0
3, 18360, Note_on_c, 1, 50, 64
3, 18480, Note_on_c, 1, 50, 0
3, 18480, Note_on_c, 1, 53, 64
3, 18600, Note_on_c, 1, 53, 0
3, 18600, Note_on_c, 1, 58, 64
3, 18720, Note_on_c, 1, 58, 0
3, 18720, Note_on_c, 1, 62, 64
3, 18840, Note_on_c, 1, 62, 0
3, 18840, Note_on_c, 1, 65, 64
3, 18960, Note_on_c, 1, 65, 0
3, 18960, Note_on_c, 1, 70, 64
3, 19080, Note_on_c, 1, 70, 0
3, 19080, End_track
4, 0, Start_track
4, 0, End_track
0, 0, End_of_file
