0, 0, Header, 1, 4, 240
1, 0, Start_track
1, 0, Time_signature, 4, 2, 24, 8
1, 0, Key_signature, 0, "major"
1, 0, Tempo, 800000
1, 34320, Tempo, 821917
1, 34560, Tempo, 833333
1, 34680, Tempo, 869565
1, 34800, Tempo, 937500
1, 34920, Tempo, 1000000
1, 34980, Tempo, 1200000
1, 35040, Tempo, 1090909
1, 35040, End_track
2, 0, Start_track
2, 0, MIDI_port, 0
2, 0, Title_t, "RH H"
2, 0, Program_c, 0, 6
2, 0, Note_on_c, 0, 70, 64
2, 60, Note_on_c, 0, 70, 0
2, 60, Note_on_c, 0, 67, 64
2, 120, Note_on_c, 0, 67, 0
2, 120, Note_on_c, 0, 65, 64
2, 180, Note_on_c, 0, 65, 0
2, 180, Note_on_c, 0, 67, 64
2, 240, Note_on_c, 0, 67, 0
2, 240, Note_on_c, 0, 63, 64
2, 300, Note_on_c, 0, 63, 0
2, 300, Note_on_c, 0, 68, 64
2, 360, Note_on_c, 0, 68, 0
2, 360, Note_on_c, 0, 67, 64
2, 420, Note_on_c, 0, 67, 0
2, 420, Note_on_c, 0, 68, 64
2, 480, Note_on_c, 0, 68, 0
2, 480, Note_on_c, 0, 72, 64
2, 600, Note_on_c, 0, 72, 0
2, 600, Note_on_c, 0, 70, 64
2, 720, Note_on_c, 0, 70, 0
2, 840, Note_on_c, 0, 69, 64
2, 891, Note_on_c, 0, 69, 0
2, 900, Note_on_c, 0, 65, 64
2, 960, Note_on_c, 0, 65, 0
2, 960, Note_on_c, 0, 75, 64
2, 1080, Note_on_c, 0, 75, 0
2, 1080, Note_on_c, 0, 74, 64
2, 1195, Note_on_c, 0, 74, 0
2, 1200, Note_on_c, 0, 74, 72
2, 1220, Note_on_c, 0, 72, 64
2, 1222, Note_on_c, 0, 74, 0
2, 1240, Note_on_c, 0, 74, 46
2, 1242, Note_on_c, 0, 72, 0
2, 1260, Note_on_c, 0, 72, 48
2, 1262, Note_on_c, 0, 74, 0
2, 1280, Note_on_c, 0, 74, 50
2, 1282, Note_on_c, 0, 72, 0
2, 1300, Note_on_c, 0, 72, 52
2, 1302, Note_on_c, 0, 74, 0
2, 1320, Note_on_c, 0, 74, 54
2, 1322, Note_on_c, 0, 72, 0
2, 1340, Note_on_c, 0, 72, 56
2, 1342, Note_on_c, 0, 74, 0
2, 1360, Note_on_c, 0, 74, 58
2, 1362, Note_on_c, 0, 72, 0
2, 1380, Note_on_c, 0, 72, 59
2, 1382, Note_on_c, 0, 74, 0
2, 1400, Note_on_c, 0, 74, 61
2, 1402, Note_on_c, 0, 72, 0
2, 1420, Note_on_c, 0, 72, 63
2, 1422, Note_on_c, 0, 74, 0
2, 1440, Note_on_c, 0, 72, 0
2, 1440, Note_on_c, 0, 70, 64
2, 1500, Note_on_c, 0, 70, 0
2, 1500, Note_on_c, 0, 77, 64
2, 1560, Note_on_c, 0, 77, 0
2, 1560, Note_on_c, 0, 74, 64
2, 1620, Note_on_c, 0, 74, 0
2, 1620, Note_on_c, 0, 70, 64
2, 1680, Note_on_c, 0, 70, 0
2, 1680, Note_on_c, 0, 68, 64
2, 1740, Note_on_c, 0, 68, 0
2, 1740, Note_on_c, 0, 77, 64
2, 1800, Note_on_c, 0, 77, 0
2, 1800, Note_on_c, 0, 74, 64
2, 1860, Note_on_c, 0, 74, 0
2, 1860, Note_on_c, 0, 68, 64
2, 1920, Note_on_c, 0, 68, 0
2, 1920, Note_on_c, 0, 67, 64
2, 2040, Note_on_c, 0, 67, 0
2, 2040, Note_on_c, 0, 80, 64
2, 2160, Note_on_c, 0, 80, 0
2, 2160, Note_on_c, 0, 79, 64
2, 2280, Note_on_c, 0, 79, 0
2, 2280, Note_on_c, 0, 77, 64
2, 2400, Note_on_c, 0, 77, 0
2, 2400, Note_on_c, 0, 75, 64
2, 2460, Note_on_c, 0, 75, 0
2, 2460, Note_on_c, 0, 72, 64
2, 2520, Note_on_c, 0, 72, 0
2, 2520, Note_on_c, 0, 74, 64
2, 2580, Note_on_c, 0, 74, 0
2, 2580, Note_on_c, 0, 75, 64
2, 2640, Note_on_c, 0, 75, 0
2, 2640, Note_on_c, 0, 77, 64
2, 2940, Note_on_c, 0, 77, 0
2, 2940, Note_on_c, 0, 75, 64
2, 3000, Note_on_c, 0, 75, 0
2, 3000, Note_on_c, 0, 77, 64
2, 3060, Note_on_c, 0, 77, 0
2, 3060, Note_on_c, 0, 79, 64
2, 3120, Note_on_c, 0, 79, 0
2, 3120, Note_on_c, 0, 80, 64
2, 3180, Note_on_c, 0, 80, 0
2, 3180, Note_on_c, 0, 77, 64
2, 3240, Note_on_c, 0, 77, 0
2, 3240, Note_on_c, 0, 70, 64
2, 3300, Note_on_c, 0, 70, 0
2, 3300, Note_on_c, 0, 80, 64
2, 3360, Note_on_c, 0, 80, 0
2, 3360, Note_on_c, 0, 79, 64
2, 3479, Note_on_c, 0, 79, 0
2, 3480, Note_on_c, 0, 75, 64
2, 3540, Note_on_c, 0, 75, 0
2, 3540, Note_on_c, 0, 79, 64
2, 3600, Note_on_c, 0, 79, 0
2, 3600, Note_on_c, 0, 84, 64
2, 3960, Note_on_c, 0, 84, 0
2, 3960, Note_on_c, 0, 74, 64
2, 4020, Note_on_c, 0, 74, 0
2, 4020, Note_on_c, 0, 77, 64
2, 4080, Note_on_c, 0, 77, 0
2, 4080, Note_on_c, 0, 82, 64
2, 4440, Note_on_c, 0, 82, 0
2, 4440, Note_on_c, 0, 72, 64
2, 4500, Note_on_c, 0, 72, 0
2, 4500, Note_on_c, 0, 75, 64
2, 4560, Note_on_c, 0, 75, 0
2, 4560, Note_on_c, 0, 80, 64
2, 4680, Note_on_c, 0, 80, 0
2, 4680, Note_on_c, 0, 79, 64
2, 4800, Note_on_c, 0, 79, 0
2, 4800, Note_on_c, 0, 77, 64
2, 5040, Note_on_c, 0, 77, 0
2, 5040, Note_on_c, 0, 79, 64
2, 5160, Note_on_c, 0, 79, 0
2, 5160, Note_on_c, 0, 74, 64
2, 5280, Note_on_c, 0, 74, 0
2, 5280, Note_on_c, 0, 75, 64
2, 5640, Note_on_c, 0, 75, 0
2, 5640, Note_on_c, 0, 77, 64
2, 5760, Note_on_c, 0, 77, 0
2, 5760, Note_on_c, 0, 79, 64
2, 6120, Note_on_c, 0, 79, 0
2, 6120, Note_on_c, 0, 81, 64
2, 6240, Note_on_c, 0, 81, 0
2, 6240, Note_on_c, 0, 82, 64
2, 6770, Note_on_c, 0, 82, 0
2, 6780, Note_on_c, 0, 82, 64
2, 6840, Note_on_c, 0, 82, 0
2, 6840, Note_on_c, 0, 79, 64
2, 6900, Note_on_c, 0, 79, 0
2, 6900, Note_on_c, 0, 75, 64
2, 6960, Note_on_c, 0, 75, 0
2, 6960, Note_on_c, 0, 73, 64
2, 7020, Note_on_c, 0, 73, 0
2, 7020, Note_on_c, 0, 82, 64
2, 7080, Note_on_c, 0, 82, 0
2, 7080, Note_on_c, 0, 79, 64
2, 7140, Note_on_c, 0, 79, 0
2, 7140, Note_on_c, 0, 73, 64
2, 7200, Note_on_c, 0, 73, 0
2, 7200, Note_on_c, 0, 72, 64
2, 7320, Note_on_c, 0, 72, 0
2, 7320, Note_on_c, 0, 75, 64
2, 7440, Note_on_c, 0, 75, 0
2, 7440, Note_on_c, 0, 80, 64
2, 7730, Note_on_c, 0, 80, 0
2, 7740, Note_on_c, 0, 80, 64
2, 7800, Note_on_c, 0, 80, 0
2, 7800, Note_on_c, 0, 77, 64
2, 7860, Note_on_c, 0, 77, 0
2, 7860, Note_on_c, 0, 74, 64
2, 7920, Note_on_c, 0, 74, 0
2, 7920, Note_on_c, 0, 72, 64
2, 7980, Note_on_c, 0, 72, 0
2, 7980, Note_on_c, 0, 80, 64
2, 8040, Note_on_c, 0, 80, 0
2, 8040, Note_on_c, 0, 77, 64
2, 8100, Note_on_c, 0, 77, 0
2, 8100, Note_on_c, 0, 72, 64
2, 8160, Note_on_c, 0, 72, 0
2, 8160, Note_on_c, 0, 70, 64
2, 8280, Note_on_c, 0, 70, 0
2, 8280, Note_on_c, 0, 74, 64
2, 8400, Note_on_c, 0, 74, 0
2, 8400, Note_on_c, 0, 79, 64
2, 8940, Note_on_c, 0, 79, 0
2, 8940, Note_on_c, 0, 72, 64
2, 9000, Note_on_c, 0, 72, 0
2, 9000, Note_on_c, 0, 74, 64
2, 9060, Note_on_c, 0, 74, 0
2, 9060, Note_on_c, 0, 75, 64
2, 9120, Note_on_c, 0, 75, 0
2, 9120, Note_on_c, 0, 77, 64
2, 9480, Note_on_c, 0, 77, 0
2, 9480, Note_on_c, 0, 75, 64
2, 9660, Note_on_c, 0, 75, 0
2, 9660, Note_on_c, 0, 74, 64
2, 9720, Note_on_c, 0, 74, 0
2, 9720, Note_on_c, 0, 72, 64
2, 9780, Note_on_c, 0, 72, 0
2, 9780, Note_on_c, 0, 74, 64
2, 9840, Note_on_c, 0, 74, 0
2, 9900, Note_on_c, 0, 75, 64
2, 9960, Note_on_c, 0, 75, 0
2, 9960, Note_on_c, 0, 74, 64
2, 10020, Note_on_c, 0, 74, 0
2, 10020, Note_on_c, 0, 75, 64
2, 10080, Note_on_c, 0, 75, 0
2, 10080, Note_on_c, 0, 79, 64
2, 10200, Note_on_c, 0, 79, 0
2, 10200, Note_on_c, 0, 77, 64
2, 10320, Note_on_c, 0, 77, 0
2, 10440, Note_on_c, 0, 74, 64
2, 10500, Note_on_c, 0, 74, 0
2, 10500, Note_on_c, 0, 70, 64
2, 10560, Note_on_c, 0, 70, 0
2, 10560, Note_on_c, 0, 80, 64
2, 10680, Note_on_c, 0, 80, 0
2, 10680, Note_on_c, 0, 79, 64
2, 10800, Note_on_c, 0, 79, 0
2, 10800, Note_on_c, 0, 77, 64
2, 11039, Note_on_c, 0, 77, 0
2, 11100, Note_on_c, 0, 82, 64
2, 11160, Note_on_c, 0, 82, 0
2, 11160, Note_on_c, 0, 79, 64
2, 11220, Note_on_c, 0, 79, 0
2, 11220, Note_on_c, 0, 75, 64
2, 11280, Note_on_c, 0, 75, 0
2, 11280, Note_on_c, 0, 73, 64
2, 11340, Note_on_c, 0, 73, 0
2, 11340, Note_on_c, 0, 82, 64
2, 11400, Note_on_c, 0, 82, 0
2, 11400, Note_on_c, 0, 79, 64
2, 11460, Note_on_c, 0, 79, 0
2, 11460, Note_on_c, 0, 73, 64
2, 11520, Note_on_c, 0, 73, 0
2, 11520, Note_on_c, 0, 72, 64
2, 11640, Note_on_c, 0, 72, 0
2, 11640, Note_on_c, 0, 80, 64
2, 11760, Note_on_c, 0, 80, 0
2, 11880, Note_on_c, 0, 68, 64
2, 12000, Note_on_c, 0, 68, 0
2, 12000, Note_on_c, 0, 74, 64
2, 12060, Note_on_c, 0, 74, 0
2, 12060, Note_on_c, 0, 80, 64
2, 12120, Note_on_c, 0, 80, 0
2, 12120, Note_on_c, 0, 77, 64
2, 12180, Note_on_c, 0, 77, 0
2, 12180, Note_on_c, 0, 74, 64
2, 12240, Note_on_c, 0, 74, 0
2, 12240, Note_on_c, 0, 72, 64
2, 12300, Note_on_c, 0, 72, 0
2, 12300, Note_on_c, 0, 80, 64
2, 12360, Note_on_c, 0, 80, 0
2, 12360, Note_on_c, 0, 77, 64
2, 12420, Note_on_c, 0, 77, 0
2, 12420, Note_on_c, 0, 72, 64
2, 12480, Note_on_c, 0, 72, 0
2, 12480, Note_on_c, 0, 71, 64
2, 12600, Note_on_c, 0, 71, 0
2, 12600, Note_on_c, 0, 79, 64
2, 12720, Note_on_c, 0, 79, 0
2, 12840, Note_on_c, 0, 67, 64
2, 12960, Note_on_c, 0, 67, 0
2, 12960, Note_on_c, 0, 72, 64
2, 13020, Note_on_c, 0, 72, 0
2, 13020, Note_on_c, 0, 79, 64
2, 13080, Note_on_c, 0, 79, 0
2, 13080, Note_on_c, 0, 76, 64
2, 13140, Note_on_c, 0, 76, 0
2, 13140, Note_on_c, 0, 72, 64
2, 13200, Note_on_c, 0, 72, 0
2, 13200, Note_on_c, 0, 70, 64
2, 13260, Note_on_c, 0, 70, 0
2, 13260, Note_on_c, 0, 79, 64
2, 13320, Note_on_c, 0, 79, 0
2, 13320, Note_on_c, 0, 76, 64
2, 13380, Note_on_c, 0, 76, 0
2, 13380, Note_on_c, 0, 70, 64
2, 13440, Note_on_c, 0, 70, 0
2, 13440, Note_on_c, 0, 69, 64
2, 13500, Note_on_c, 0, 69, 0
2, 13500, Note_on_c, 0, 79, 64
2, 13560, Note_on_c, 0, 79, 0
2, 13560, Note_on_c, 0, 72, 64
2, 13620, Note_on_c, 0, 72, 0
2, 13620, Note_on_c, 0, 67, 64
2, 13680, Note_on_c, 0, 67, 0
2, 13680, Note_on_c, 0, 68, 64
2, 13740, Note_on_c, 0, 68, 0
2, 13740, Note_on_c, 0, 77, 64
2, 13800, Note_on_c, 0, 77, 0
2, 13800, Note_on_c, 0, 74, 64
2, 13860, Note_on_c, 0, 74, 0
2, 13860, Note_on_c, 0, 68, 64
2, 13920, Note_on_c, 0, 68, 0
2, 13920, Note_on_c, 0, 67, 64
2, 13980, Note_on_c, 0, 67, 0
2, 13980, Note_on_c, 0, 77, 64
2, 14040, Note_on_c, 0, 77, 0
2, 14040, Note_on_c, 0, 74, 64
2, 14100, Note_on_c, 0, 74, 0
2, 14100, Note_on_c, 0, 71, 64
2, 14160, Note_on_c, 0, 71, 0
2, 14160, Note_on_c, 0, 67, 64
2, 14220, Note_on_c, 0, 67, 0
2, 14220, Note_on_c, 0, 75, 64
2, 14280, Note_on_c, 0, 75, 0
2, 14280, Note_on_c, 0, 72, 64
2, 14340, Note_on_c, 0, 72, 0
2, 14340, Note_on_c, 0, 67, 64
2, 14400, Note_on_c, 0, 67, 0
2, 14400, Note_on_c, 0, 66, 64
2, 14460, Note_on_c, 0, 66, 0
2, 14460, Note_on_c, 0, 75, 64
2, 14520, Note_on_c, 0, 75, 0
2, 14520, Note_on_c, 0, 72, 64
2, 14580, Note_on_c, 0, 72, 0
2, 14580, Note_on_c, 0, 69, 64
2, 14640, Note_on_c, 0, 69, 0
2, 14640, Note_on_c, 0, 65, 64
2, 14700, Note_on_c, 0, 65, 0
2, 14700, Note_on_c, 0, 74, 64
2, 14760, Note_on_c, 0, 74, 0
2, 14760, Note_on_c, 0, 71, 64
2, 14820, Note_on_c, 0, 71, 0
2, 14820, Note_on_c, 0, 65, 64
2, 14880, Note_on_c, 0, 65, 0
2, 14880, Note_on_c, 0, 64, 64
2, 14940, Note_on_c, 0, 64, 0
2, 14940, Note_on_c, 0, 74, 64
2, 15000, Note_on_c, 0, 74, 0
2, 15000, Note_on_c, 0, 71, 64
2, 15060, Note_on_c, 0, 71, 0
2, 15060, Note_on_c, 0, 67, 64
2, 15120, Note_on_c, 0, 67, 0
2, 15120, Note_on_c, 0, 63, 64
2, 15180, Note_on_c, 0, 63, 0
2, 15180, Note_on_c, 0, 72, 64
2, 15240, Note_on_c, 0, 72, 0
2, 15240, Note_on_c, 0, 67, 64
2, 15300, Note_on_c, 0, 67, 0
2, 15300, Note_on_c, 0, 63, 64
2, 15360, Note_on_c, 0, 63, 0
2, 15360, Note_on_c, 0, 62, 64
2, 15420, Note_on_c, 0, 62, 0
2, 15420, Note_on_c, 0, 72, 64
2, 15480, Note_on_c, 0, 72, 0
2, 15480, Note_on_c, 0, 68, 64
2, 15540, Note_on_c, 0, 68, 0
2, 15540, Note_on_c, 0, 65, 64
2, 15600, Note_on_c, 0, 65, 0
2, 15600, Note_on_c, 0, 62, 64
2, 15660, Note_on_c, 0, 62, 0
2, 15660, Note_on_c, 0, 71, 64
2, 15720, Note_on_c, 0, 71, 0
2, 15720, Note_on_c, 0, 69, 64
2, 15780, Note_on_c, 0, 69, 0
2, 15780, Note_on_c, 0, 71, 64
2, 15840, Note_on_c, 0, 71, 0
2, 15840, Note_on_c, 0, 72, 64
2, 15960, Note_on_c, 0, 72, 0
2, 15960, Note_on_c, 0, 77, 64
2, 16080, Note_on_c, 0, 77, 0
2, 16080, Note_on_c, 0, 75, 64
2, 16200, Note_on_c, 0, 75, 0
2, 16200, Note_on_c, 0, 74, 64
2, 16320, Note_on_c, 0, 74, 0
2, 16320, Note_on_c, 0, 72, 64
2, 16380, Note_on_c, 0, 72, 0
2, 16380, Note_on_c, 0, 69, 64
2, 16440, Note_on_c, 0, 69, 0
2, 16440, Note_on_c, 0, 71, 64
2, 16500, Note_on_c, 0, 71, 0
2, 16500, Note_on_c, 0, 72, 64
2, 16560, Note_on_c, 0, 72, 0
2, 16560, Note_on_c, 0, 74, 64
2, 16860, Note_on_c, 0, 74, 0
2, 16860, Note_on_c, 0, 72, 64
2, 16920, Note_on_c, 0, 72, 0
2, 16920, Note_on_c, 0, 74, 64
2, 16980, Note_on_c, 0, 74, 0
2, 16980, Note_on_c, 0, 75, 64
2, 17040, Note_on_c, 0, 75, 0
2, 17040, Note_on_c, 0, 77, 64
2, 17100, Note_on_c, 0, 77, 0
2, 17100, Note_on_c, 0, 74, 64
2, 17160, Note_on_c, 0, 74, 0
2, 17160, Note_on_c, 0, 67, 64
2, 17220, Note_on_c, 0, 67, 0
2, 17220, Note_on_c, 0, 77, 64
2, 17280, Note_on_c, 0, 77, 0
2, 17280, Note_on_c, 0, 75, 64
2, 17340, Note_on_c, 0, 75, 0
2, 17340, Note_on_c, 0, 79, 64
2, 17400, Note_on_c, 0, 79, 0
2, 17400, Note_on_c, 0, 75, 64
2, 17460, Note_on_c, 0, 75, 0
2, 17460, Note_on_c, 0, 74, 64
2, 17520, Note_on_c, 0, 74, 0
2, 17520, Note_on_c, 0, 72, 64
2, 17580, Note_on_c, 0, 72, 0
2, 17580, Note_on_c, 0, 84, 64
2, 17640, Note_on_c, 0, 84, 0
2, 17640, Note_on_c, 0, 80, 64
2, 17700, Note_on_c, 0, 80, 0
2, 17700, Note_on_c, 0, 77, 64
2, 17760, Note_on_c, 0, 77, 0
2, 17760, Note_on_c, 0, 74, 64
2, 17820, Note_on_c, 0, 74, 0
2, 17820, Note_on_c, 0, 77, 64
2, 17880, Note_on_c, 0, 77, 0
2, 17880, Note_on_c, 0, 74, 64
2, 17940, Note_on_c, 0, 74, 0
2, 17940, Note_on_c, 0, 72, 64
2, 18000, Note_on_c, 0, 72, 0
2, 18000, Note_on_c, 0, 70, 64
2, 18060, Note_on_c, 0, 70, 0
2, 18060, Note_on_c, 0, 82, 64
2, 18120, Note_on_c, 0, 82, 0
2, 18120, Note_on_c, 0, 79, 64
2, 18180, Note_on_c, 0, 79, 0
2, 18180, Note_on_c, 0, 75, 64
2, 18240, Note_on_c, 0, 75, 0
2, 18240, Note_on_c, 0, 72, 64
2, 18300, Note_on_c, 0, 72, 0
2, 18300, Note_on_c, 0, 75, 64
2, 18360, Note_on_c, 0, 75, 0
2, 18360, Note_on_c, 0, 72, 64
2, 18420, Note_on_c, 0, 72, 0
2, 18420, Note_on_c, 0, 70, 64
2, 18480, Note_on_c, 0, 70, 0
2, 18480, Note_on_c, 0, 68, 64
2, 18540, Note_on_c, 0, 68, 0
2, 18540, Note_on_c, 0, 80, 64
2, 18600, Note_on_c, 0, 80, 0
2, 18600, Note_on_c, 0, 77, 64
2, 18660, Note_on_c, 0, 77, 0
2, 18660, Note_on_c, 0, 74, 64
2, 18720, Note_on_c, 0, 74, 0
2, 18720, Note_on_c, 0, 71, 64
2, 18960, Note_on_c, 0, 71, 0
2, 18960, Note_on_c, 0, 72, 64
2, 19320, Note_on_c, 0, 72, 0
2, 19320, Note_on_c, 0, 71, 64
2, 19440, Note_on_c, 0, 71, 0
2, 19440, Note_on_c, 0, 72, 64
2, 19500, Note_on_c, 0, 72, 0
2, 19500, Note_on_c, 0, 71, 64
2, 19560, Note_on_c, 0, 71, 0
2, 19560, Note_on_c, 0, 72, 64
2, 19620, Note_on_c, 0, 72, 0
2, 19620, Note_on_c, 0, 74, 64
2, 19680, Note_on_c, 0, 74, 0
2, 19680, Note_on_c, 0, 75, 64
2, 19800, Note_on_c, 0, 75, 0
2, 19800, Note_on_c, 0, 74, 64
2, 19920, Note_on_c, 0, 74, 0
2, 19920, Note_on_c, 0, 76, 64
2, 20040, Note_on_c, 0, 76, 0
2, 20040, Note_on_c, 0, 78, 64
2, 20160, Note_on_c, 0, 78, 0
2, 20160, Note_on_c, 0, 79, 64
2, 20220, Note_on_c, 0, 79, 0
2, 20220, Note_on_c, 0, 74, 64
2, 20280, Note_on_c, 0, 74, 0
2, 20280, Note_on_c, 0, 72, 64
2, 20340, Note_on_c, 0, 72, 0
2, 20340, Note_on_c, 0, 74, 64
2, 20400, Note_on_c, 0, 74, 0
2, 20460, Note_on_c, 0, 76, 64
2, 20520, Note_on_c, 0, 76, 0
2, 20520, Note_on_c, 0, 74, 64
2, 20580, Note_on_c, 0, 74, 0
2, 20580, Note_on_c, 0, 76, 64
2, 20640, Note_on_c, 0, 76, 0
2, 20640, Note_on_c, 0, 79, 64
2, 20760, Note_on_c, 0, 79, 0
2, 20760, Note_on_c, 0, 77, 64
2, 20880, Note_on_c, 0, 77, 0
2, 21120, Note_on_c, 0, 77, 64
2, 21180, Note_on_c, 0, 77, 0
2, 21180, Note_on_c, 0, 72, 64
2, 21240, Note_on_c, 0, 72, 0
2, 21240, Note_on_c, 0, 70, 64
2, 21300, Note_on_c, 0, 70, 0
2, 21300, Note_on_c, 0, 72, 64
2, 21360, Note_on_c, 0, 72, 0
2, 21420, Note_on_c, 0, 74, 64
2, 21480, Note_on_c, 0, 74, 0
2, 21480, Note_on_c, 0, 72, 64
2, 21540, Note_on_c, 0, 72, 0
2, 21540, Note_on_c, 0, 74, 64
2, 21600, Note_on_c, 0, 77, 64
2, 21605, Note_on_c, 0, 74, 0
2, 21720, Note_on_c, 0, 77, 0
2, 21720, Note_on_c, 0, 75, 64
2, 21840, Note_on_c, 0, 75, 0
2, 22140, Note_on_c, 0, 70, 64
2, 22200, Note_on_c, 0, 70, 0
2, 22200, Note_on_c, 0, 75, 64
2, 22260, Note_on_c, 0, 75, 0
2, 22260, Note_on_c, 0, 72, 64
2, 22320, Note_on_c, 0, 72, 0
2, 22320, Note_on_c, 0, 73, 64
2, 22560, Note_on_c, 0, 73, 0
2, 22620, Note_on_c, 0, 72, 64
2, 22680, Note_on_c, 0, 72, 0
2, 22680, Note_on_c, 0, 77, 64
2, 22740, Note_on_c, 0, 77, 0
2, 22740, Note_on_c, 0, 74, 64
2, 22800, Note_on_c, 0, 74, 0
2, 22800, Note_on_c, 0, 75, 64
2, 23040, Note_on_c, 0, 75, 0
2, 23100, Note_on_c, 0, 74, 64
2, 23160, Note_on_c, 0, 74, 0
2, 23160, Note_on_c, 0, 79, 64
2, 23220, Note_on_c, 0, 79, 0
2, 23220, Note_on_c, 0, 75, 64
2, 23280, Note_on_c, 0, 75, 0
2, 23280, Note_on_c, 0, 77, 64
2, 23520, Note_on_c, 0, 77, 0
2, 23580, Note_on_c, 0, 75, 64
2, 23640, Note_on_c, 0, 75, 0
2, 23640, Note_on_c, 0, 79, 64
2, 23700, Note_on_c, 0, 79, 0
2, 23700, Note_on_c, 0, 82, 64
2, 23760, Note_on_c, 0, 82, 0
2, 23760, Note_on_c, 0, 80, 64
2, 23820, Note_on_c, 0, 80, 0
2, 23820, Note_on_c, 0, 77, 64
2, 23880, Note_on_c, 0, 77, 0
2, 23880, Note_on_c, 0, 73, 64
2, 23940, Note_on_c, 0, 73, 0
2, 23940, Note_on_c, 0, 79, 64
2, 24000, Note_on_c, 0, 79, 0
2, 24000, Note_on_c, 0, 77, 64
2, 24120, Note_on_c, 0, 77, 0
2, 24120, Note_on_c, 0, 80, 64
2, 24240, Note_on_c, 0, 80, 0
2, 24240, Note_on_c, 0, 79, 64
2, 24360, Note_on_c, 0, 79, 0
2, 24360, Note_on_c, 0, 77, 64
2, 24480, Note_on_c, 0, 77, 0
2, 24480, Note_on_c, 0, 75, 64
2, 24540, Note_on_c, 0, 75, 0
2, 24540, Note_on_c, 0, 72, 64
2, 24600, Note_on_c, 0, 72, 0
2, 24600, Note_on_c, 0, 74, 64
2, 24660, Note_on_c, 0, 74, 0
2, 24660, Note_on_c, 0, 75, 64
2, 24720, Note_on_c, 0, 75, 0
2, 24720, Note_on_c, 0, 77, 64
2, 25020, Note_on_c, 0, 77, 0
2, 25020, Note_on_c, 0, 75, 64
2, 25080, Note_on_c, 0, 75, 0
2, 25080, Note_on_c, 0, 77, 64
2, 25140, Note_on_c, 0, 77, 0
2, 25140, Note_on_c, 0, 79, 64
2, 25200, Note_on_c, 0, 79, 0
2, 25200, Note_on_c, 0, 80, 64
2, 25260, Note_on_c, 0, 80, 0
2, 25260, Note_on_c, 0, 77, 64
2, 25320, Note_on_c, 0, 77, 0
2, 25320, Note_on_c, 0, 70, 64
2, 25380, Note_on_c, 0, 70, 0
2, 25380, Note_on_c, 0, 80, 64
2, 25440, Note_on_c, 0, 80, 0
2, 25440, Note_on_c, 0, 79, 64
2, 25500, Note_on_c, 0, 79, 0
2, 25500, Note_on_c, 0, 82, 64
2, 25560, Note_on_c, 0, 82, 0
2, 25560, Note_on_c, 0, 79, 64
2, 25620, Note_on_c, 0, 79, 0
2, 25620, Note_on_c, 0, 75, 64
2, 25680, Note_on_c, 0, 75, 0
2, 25680, Note_on_c, 0, 73, 64
2, 25920, Note_on_c, 0, 73, 0
2, 25920, Note_on_c, 0, 72, 64
2, 25980, Note_on_c, 0, 72, 0
2, 25980, Note_on_c, 0, 84, 64
2, 26040, Note_on_c, 0, 84, 0
2, 26040, Note_on_c, 0, 80, 64
2, 26100, Note_on_c, 0, 80, 0
2, 26100, Note_on_c, 0, 77, 64
2, 26160, Note_on_c, 0, 77, 0
2, 26160, Note_on_c, 0, 75, 64
2, 26373, Note_on_c, 0, 75, 0
2, 26400, Note_on_c, 0, 74, 64
2, 26460, Note_on_c, 0, 74, 0
2, 26460, Note_on_c, 0, 77, 64
2, 26520, Note_on_c, 0, 77, 0
2, 26520, Note_on_c, 0, 74, 64
2, 26580, Note_on_c, 0, 74, 0
2, 26580, Note_on_c, 0, 70, 64
2, 26640, Note_on_c, 0, 70, 0
2, 26640, Note_on_c, 0, 68, 64
2, 26940, Note_on_c, 0, 68, 0
2, 26940, Note_on_c, 0, 67, 64
2, 27000, Note_on_c, 0, 67, 0
2, 27000, Note_on_c, 0, 65, 64
2, 27060, Note_on_c, 0, 65, 0
2, 27060, Note_on_c, 0, 67, 64
2, 27120, Note_on_c, 0, 67, 0
2, 27120, Note_on_c, 0, 63, 64
2, 27180, Note_on_c, 0, 63, 0
2, 27180, Note_on_c, 0, 68, 64
2, 27240, Note_on_c, 0, 68, 0
2, 27240, Note_on_c, 0, 67, 64
2, 27300, Note_on_c, 0, 67, 0
2, 27300, Note_on_c, 0, 68, 64
2, 27360, Note_on_c, 0, 68, 0
2, 27360, Note_on_c, 0, 72, 64
2, 27480, Note_on_c, 0, 72, 0
2, 27480, Note_on_c, 0, 70, 64
2, 27600, Note_on_c, 0, 70, 0
2, 27720, Note_on_c, 0, 69, 64
2, 27780, Note_on_c, 0, 69, 0
2, 27780, Note_on_c, 0, 65, 64
2, 27840, Note_on_c, 0, 65, 0
2, 27840, Note_on_c, 0, 75, 64
2, 27960, Note_on_c, 0, 75, 0
2, 27960, Note_on_c, 0, 74, 64
2, 28075, Note_on_c, 0, 74, 0
2, 28080, Note_on_c, 0, 74, 72
2, 28100, Note_on_c, 0, 74, 0
2, 28100, Note_on_c, 0, 72, 43
2, 28120, Note_on_c, 0, 72, 0
2, 28120, Note_on_c, 0, 74, 45
2, 28140, Note_on_c, 0, 74, 0
2, 28140, Note_on_c, 0, 72, 47
2, 28160, Note_on_c, 0, 72, 0
2, 28160, Note_on_c, 0, 74, 49
2, 28180, Note_on_c, 0, 74, 0
2, 28180, Note_on_c, 0, 72, 51
2, 28200, Note_on_c, 0, 72, 0
2, 28200, Note_on_c, 0, 74, 53
2, 28220, Note_on_c, 0, 74, 0
2, 28220, Note_on_c, 0, 72, 55
2, 28240, Note_on_c, 0, 72, 0
2, 28240, Note_on_c, 0, 74, 57
2, 28260, Note_on_c, 0, 74, 0
2, 28260, Note_on_c, 0, 72, 59
2, 28280, Note_on_c, 0, 72, 0
2, 28280, Note_on_c, 0, 74, 61
2, 28300, Note_on_c, 0, 74, 0
2, 28300, Note_on_c, 0, 72, 63
2, 28320, Note_on_c, 0, 72, 0
2, 28320, Note_on_c, 0, 70, 64
2, 28440, Note_on_c, 0, 70, 0
2, 28440, Note_on_c, 0, 77, 64
2, 28560, Note_on_c, 0, 77, 0
2, 28560, Note_on_c, 0, 74, 64
2, 28680, Note_on_c, 0, 74, 0
2, 28680, Note_on_c, 0, 70, 64
2, 28800, Note_on_c, 0, 70, 0
2, 28800, Note_on_c, 0, 82, 64
2, 29400, Note_on_c, 0, 82, 0
2, 29400, Note_on_c, 0, 75, 64
2, 29520, Note_on_c, 0, 75, 0
2, 29520, Note_on_c, 0, 72, 64
2, 29640, Note_on_c, 0, 72, 0
2, 29640, Note_on_c, 0, 68, 64
2, 29760, Note_on_c, 0, 68, 0
2, 29760, Note_on_c, 0, 80, 64
2, 30360, Note_on_c, 0, 80, 0
2, 30360, Note_on_c, 0, 74, 64
2, 30480, Note_on_c, 0, 74, 0
2, 30480, Note_on_c, 0, 70, 64
2, 30600, Note_on_c, 0, 70, 0
2, 30600, Note_on_c, 0, 67, 64
2, 30720, Note_on_c, 0, 67, 0
2, 30720, Note_on_c, 0, 79, 64
2, 31020, Note_on_c, 0, 79, 0
2, 31020, Note_on_c, 0, 72, 64
2, 31080, Note_on_c, 0, 72, 0
2, 31080, Note_on_c, 0, 74, 64
2, 31140, Note_on_c, 0, 74, 0
2, 31140, Note_on_c, 0, 75, 64
2, 31200, Note_on_c, 0, 75, 0
2, 31200, Note_on_c, 0, 77, 64
2, 31260, Note_on_c, 0, 77, 0
2, 31260, Note_on_c, 0, 75, 64
2, 31320, Note_on_c, 0, 75, 0
2, 31320, Note_on_c, 0, 74, 64
2, 31380, Note_on_c, 0, 74, 0
2, 31380, Note_on_c, 0, 72, 64
2, 31440, Note_on_c, 0, 72, 0
2, 31440, Note_on_c, 0, 70, 64
2, 31500, Note_on_c, 0, 70, 0
2, 31500, Note_on_c, 0, 68, 64
2, 31560, Note_on_c, 0, 68, 0
2, 31560, Note_on_c, 0, 70, 64
2, 31620, Note_on_c, 0, 70, 0
2, 31620, Note_on_c, 0, 72, 64
2, 31680, Note_on_c, 0, 72, 0
2, 31680, Note_on_c, 0, 65, 64
2, 31920, Note_on_c, 0, 65, 0
2, 32040, Note_on_c, 0, 65, 64
2, 32160, Note_on_c, 0, 65, 0
2, 32160, Note_on_c, 0, 75, 64
2, 32280, Note_on_c, 0, 75, 0
2, 32280, Note_on_c, 0, 74, 64
2, 32400, Note_on_c, 0, 74, 0
2, 32640, Note_on_c, 0, 77, 64
2, 32760, Note_on_c, 0, 77, 0
2, 32760, Note_on_c, 0, 75, 64
2, 33000, Note_on_c, 0, 75, 0
2, 33000, Note_on_c, 0, 74, 64
2, 33120, Note_on_c, 0, 74, 0
2, 33120, Note_on_c, 0, 75, 64
2, 33180, Note_on_c, 0, 75, 0
2, 33180, Note_on_c, 0, 79, 64
2, 33240, Note_on_c, 0, 79, 0
2, 33240, Note_on_c, 0, 75, 64
2, 33300, Note_on_c, 0, 75, 0
2, 33300, Note_on_c, 0, 72, 64
2, 33348, Note_on_c, 0, 72, 0
2, 33360, Note_on_c, 0, 68, 64
2, 33660, Note_on_c, 0, 68, 0
2, 33660, Note_on_c, 0, 77, 64
2, 33720, Note_on_c, 0, 77, 0
2, 33720, Note_on_c, 0, 74, 64
2, 33780, Note_on_c, 0, 74, 0
2, 33780, Note_on_c, 0, 70, 64
2, 33840, Note_on_c, 0, 70, 0
2, 33840, Note_on_c, 0, 67, 64
2, 33960, Note_on_c, 0, 67, 0
2, 33960, Note_on_c, 0, 75, 64
2, 34080, Note_on_c, 0, 75, 0
2, 34080, Note_on_c, 0, 67, 64
2, 34320, Note_on_c, 0, 67, 0
2, 34320, Note_on_c, 0, 65, 64
2, 34560, Note_on_c, 0, 65, 0
2, 34560, Note_on_c, 0, 63, 64
2, 34620, Note_on_c, 0, 61, 64
2, 34800, Note_on_c, 0, 61, 0
2, 34800, Note_on_c, 0, 60, 64
2, 34980, Note_on_c, 0, 60, 0
2, 34980, Note_on_c, 0, 59, 64
2, 35040, Note_on_c, 0, 59, 0
2, 35040, Note_on_c, 0, 58, 64
2, 35520, Note_on_c, 0, 58, 0
2, 35520, Note_on_c, 0, 63, 0
2, 35520, End_track
3, 0, Start_track
3, 0, MIDI_port, 0
3, 0, Title_t, "RH L/LH H"
3, 0, Program_c, 1, 6
3, 1920, Note_on_c, 1, 63, 64
3, 1980, Note_on_c, 1, 63, 0
3, 1980, Note_on_c, 1, 62, 64
3, 2040, Note_on_c, 1, 62, 0
3, 2040, Note_on_c, 1, 60, 64
3, 2100, Note_on_c, 1, 60, 0
3, 2100, Note_on_c, 1, 62, 64
3, 2160, Note_on_c, 1, 62, 0
3, 2160, Note_on_c, 1, 58, 64
3, 2220, Note_on_c, 1, 58, 0
3, 2220, Note_on_c, 1, 63, 64
3, 2280, Note_on_c, 1, 63, 0
3, 2280, Note_on_c, 1, 62, 64
3, 2340, Note_on_c, 1, 62, 0
3, 2340, Note_on_c, 1, 63, 64
3, 2400, Note_on_c, 1, 63, 0
3, 2400, Note_on_c, 1, 67, 64
3, 2520, Note_on_c, 1, 67, 0
3, 2520, Note_on_c, 1, 65, 64
3, 2640, Note_on_c, 1, 65, 0
3, 2760, Note_on_c, 1, 62, 64
3, 2820, Note_on_c, 1, 62, 0
3, 2820, Note_on_c, 1, 58, 64
3, 2880, Note_on_c, 1, 58, 0
3, 2880, Note_on_c, 1, 68, 64
3, 3000, Note_on_c, 1, 68, 0
3, 3000, Note_on_c, 1, 67, 64
3, 3115, Note_on_c, 1, 67, 0
3, 3120, Note_on_c, 1, 67, 74
3, 3140, Note_on_c, 1, 67, 0
3, 3140, Note_on_c, 1, 65, 42
3, 3160, Note_on_c, 1, 67, 44
3, 3162, Note_on_c, 1, 65, 0
3, 3180, Note_on_c, 1, 65, 46
3, 3182, Note_on_c, 1, 67, 0
3, 3200, Note_on_c, 1, 67, 48
3, 3202, Note_on_c, 1, 65, 0
3, 3220, Note_on_c, 1, 65, 51
3, 3222, Note_on_c, 1, 67, 0
3, 3240, Note_on_c, 1, 67, 53
3, 3242, Note_on_c, 1, 65, 0
3, 3260, Note_on_c, 1, 65, 55
3, 3262, Note_on_c, 1, 67, 0
3, 3280, Note_on_c, 1, 67, 57
3, 3282, Note_on_c, 1, 65, 0
3, 3300, Note_on_c, 1, 65, 59
3, 3302, Note_on_c, 1, 67, 0
3, 3320, Note_on_c, 1, 67, 61
3, 3322, Note_on_c, 1, 65, 0
3, 3340, Note_on_c, 1, 65, 63
3, 3342, Note_on_c, 1, 67, 0
3, 3360, Note_on_c, 1, 63, 64
3, 3362, Note_on_c, 1, 65, 0
3, 3420, Note_on_c, 1, 63, 0
3, 3420, Note_on_c, 1, 70, 64
3, 3480, Note_on_c, 1, 70, 0
3, 3480, Note_on_c, 1, 67, 64
3, 3540, Note_on_c, 1, 67, 0
3, 3540, Note_on_c, 1, 65, 64
3, 3600, Note_on_c, 1, 65, 0
3, 3600, Note_on_c, 1, 63, 64
3, 3660, Note_on_c, 1, 63, 0
3, 3660, Note_on_c, 1, 72, 64
3, 3720, Note_on_c, 1, 72, 0
3, 3720, Note_on_c, 1, 69, 64
3, 3780, Note_on_c, 1, 69, 0
3, 3780, Note_on_c, 1, 65, 64
3, 3840, Note_on_c, 1, 65, 0
3, 3840, Note_on_c, 1, 62, 64
3, 3900, Note_on_c, 1, 62, 0
3, 3900, Note_on_c, 1, 69, 64
3, 3960, Note_on_c, 1, 69, 0
3, 3960, Note_on_c, 1, 65, 64
3, 4020, Note_on_c, 1, 65, 0
3, 4020, Note_on_c, 1, 63, 64
3, 4080, Note_on_c, 1, 63, 0
3, 4080, Note_on_c, 1, 61, 64
3, 4140, Note_on_c, 1, 61, 0
3, 4140, Note_on_c, 1, 70, 64
3, 4200, Note_on_c, 1, 70, 0
3, 4200, Note_on_c, 1, 67, 64
3, 4260, Note_on_c, 1, 67, 0
3, 4260, Note_on_c, 1, 63, 64
3, 4320, Note_on_c, 1, 63, 0
3, 4320, Note_on_c, 1, 60, 64
3, 4380, Note_on_c, 1, 60, 0
3, 4380, Note_on_c, 1, 67, 64
3, 4440, Note_on_c, 1, 67, 0
3, 4440, Note_on_c, 1, 63, 64
3, 4500, Note_on_c, 1, 63, 0
3, 4500, Note_on_c, 1, 60, 64
3, 4560, Note_on_c, 1, 60, 0
3, 4560, Note_on_c, 1, 62, 64
3, 4620, Note_on_c, 1, 62, 0
3, 4620, Note_on_c, 1, 70, 64
3, 4680, Note_on_c, 1, 70, 0
3, 4680, Note_on_c, 1, 63, 64
3, 4740, Note_on_c, 1, 63, 0
3, 4740, Note_on_c, 1, 72, 64
3, 4800, Note_on_c, 1, 72, 0
3, 4800, Note_on_c, 1, 74, 64
3, 4920, Note_on_c, 1, 74, 0
3, 4920, Note_on_c, 1, 73, 64
3, 5040, Note_on_c, 1, 73, 0
3, 5040, Note_on_c, 1, 72, 64
3, 5160, Note_on_c, 1, 72, 0
3, 5160, Note_on_c, 1, 70, 64
3, 5280, Note_on_c, 1, 70, 0
3, 5280, Note_on_c, 1, 68, 64
3, 5340, Note_on_c, 1, 68, 0
3, 5340, Note_on_c, 1, 67, 64
3, 5400, Note_on_c, 1, 67, 0
3, 5400, Note_on_c, 1, 68, 64
3, 5460, Note_on_c, 1, 68, 0
3, 5460, Note_on_c, 1, 70, 64
3, 5520, Note_on_c, 1, 70, 0
3, 5520, Note_on_c, 1, 72, 64
3, 5820, Note_on_c, 1, 72, 0
3, 5820, Note_on_c, 1, 70, 64
3, 5880, Note_on_c, 1, 70, 0
3, 5880, Note_on_c, 1, 72, 64
3, 5940, Note_on_c, 1, 72, 0
3, 5940, Note_on_c, 1, 74, 64
3, 6000, Note_on_c, 1, 74, 0
3, 6000, Note_on_c, 1, 75, 64
3, 6060, Note_on_c, 1, 75, 0
3, 6060, Note_on_c, 1, 72, 64
3, 6120, Note_on_c, 1, 72, 0
3, 6120, Note_on_c, 1, 65, 64
3, 6180, Note_on_c, 1, 65, 0
3, 6180, Note_on_c, 1, 75, 64
3, 6240, Note_on_c, 1, 75, 0
3, 6240, Note_on_c, 1, 74, 64
3, 6360, Note_on_c, 1, 74, 0
3, 6360, Note_on_c, 1, 77, 64
3, 6480, Note_on_c, 1, 77, 0
3, 6480, Note_on_c, 1, 74, 64
3, 6600, Note_on_c, 1, 74, 0
3, 6600, Note_on_c, 1, 70, 64
3, 6720, Note_on_c, 1, 70, 0
3, 6720, Note_on_c, 1, 75, 64
3, 6840, Note_on_c, 1, 75, 0
3, 7440, Note_on_c, 1, 72, 64
3, 7560, Note_on_c, 1, 72, 0
3, 7560, Note_on_c, 1, 68, 64
3, 7680, Note_on_c, 1, 68, 0
3, 7680, Note_on_c, 1, 74, 64
3, 7800, Note_on_c, 1, 74, 0
3, 8400, Note_on_c, 1, 70, 64
3, 8520, Note_on_c, 1, 70, 0
3, 8520, Note_on_c, 1, 67, 64
3, 8640, Note_on_c, 1, 67, 0
3, 8640, Note_on_c, 1, 72, 64
3, 8760, Note_on_c, 1, 72, 0
3, 8760, Note_on_c, 1, 70, 64
3, 8880, Note_on_c, 1, 70, 0
3, 8880, Note_on_c, 1, 68, 64
3, 9180, Note_on_c, 1, 68, 0
3, 9180, Note_on_c, 1, 72, 64
3, 9240, Note_on_c, 1, 72, 0
3, 9240, Note_on_c, 1, 70, 64
3, 9300, Note_on_c, 1, 70, 0
3, 9300, Note_on_c, 1, 68, 64
3, 9360, Note_on_c, 1, 68, 0
3, 9360, Note_on_c, 1, 67, 64
3, 9600, Note_on_c, 1, 67, 0
3, 9600, Note_on_c, 1, 65, 64
3, 9840, Note_on_c, 1, 65, 0
3, 9840, Note_on_c, 1, 70, 64
3, 10200, Note_on_c, 1, 70, 0
3, 10200, Note_on_c, 1, 68, 64
3, 10260, Note_on_c, 1, 68, 0
3, 10260, Note_on_c, 1, 67, 64
3, 10320, Note_on_c, 1, 67, 0
3, 10320, Note_on_c, 1, 68, 64
3, 10440, Note_on_c, 1, 68, 0
3, 10440, Note_on_c, 1, 65, 64
3, 10560, Note_on_c, 1, 65, 0
3, 10560, Note_on_c, 1, 62, 64
3, 10680, Note_on_c, 1, 62, 0
3, 10680, Note_on_c, 1, 75, 64
3, 10920, Note_on_c, 1, 74, 64
3, 10926, Note_on_c, 1, 75, 0
3, 11040, Note_on_c, 1, 74, 0
3, 11040, Note_on_c, 1, 75, 64
3, 11160, Note_on_c, 1, 75, 0
3, 11280, Note_on_c, 1, 63, 64
3, 11558, Note_on_c, 1, 63, 0
3, 11580, Note_on_c, 1, 63, 64
3, 11640, Note_on_c, 1, 63, 0
3, 11640, Note_on_c, 1, 60, 64
3, 11700, Note_on_c, 1, 60, 0
3, 11700, Note_on_c, 1, 56, 64
3, 11760, Note_on_c, 1, 56, 0
3, 11760, Note_on_c, 1, 55, 64
3, 11820, Note_on_c, 1, 55, 0
3, 11820, Note_on_c, 1, 63, 64
3, 11880, Note_on_c, 1, 63, 0
3, 11880, Note_on_c, 1, 60, 64
3, 11940, Note_on_c, 1, 60, 0
3, 11940, Note_on_c, 1, 55, 64
3, 12000, Note_on_c, 1, 55, 0
3, 12000, Note_on_c, 1, 53, 64
3, 12120, Note_on_c, 1, 53, 0
3, 12120, Note_on_c, 1, 56, 64
3, 12240, Note_on_c, 1, 56, 0
3, 12240, Note_on_c, 1, 62, 64
3, 12530, Note_on_c, 1, 62, 0
3, 12540, Note_on_c, 1, 62, 64
3, 12600, Note_on_c, 1, 62, 0
3, 12600, Note_on_c, 1, 59, 64
3, 12660, Note_on_c, 1, 59, 0
3, 12660, Note_on_c, 1, 55, 64
3, 12720, Note_on_c, 1, 55, 0
3, 12720, Note_on_c, 1, 53, 64
3, 12780, Note_on_c, 1, 53, 0
3, 12780, Note_on_c, 1, 62, 64
3, 12840, Note_on_c, 1, 62, 0
3, 12840, Note_on_c, 1, 59, 64
3, 12900, Note_on_c, 1, 59, 0
3, 12900, Note_on_c, 1, 53, 64
3, 12960, Note_on_c, 1, 53, 0
3, 12960, Note_on_c, 1, 52, 64
3, 13080, Note_on_c, 1, 52, 0
3, 13080, Note_on_c, 1, 55, 64
3, 13200, Note_on_c, 1, 55, 0
3, 13200, Note_on_c, 1, 60, 64
3, 13680, Note_on_c, 1, 59, 64
3, 13686, Note_on_c, 1, 60, 0
3, 13800, Note_on_c, 1, 59, 0
3, 13800, Note_on_c, 1, 60, 64
3, 13920, Note_on_c, 1, 60, 0
3, 13920, Note_on_c, 1, 62, 64
3, 14040, Note_on_c, 1, 62, 0
3, 15840, Note_on_c, 1, 60, 64
3, 15900, Note_on_c, 1, 60, 0
3, 15900, Note_on_c, 1, 58, 64
3, 15960, Note_on_c, 1, 58, 0
3, 15960, Note_on_c, 1, 56, 64
3, 16020, Note_on_c, 1, 56, 0
3, 16020, Note_on_c, 1, 58, 64
3, 16080, Note_on_c, 1, 58, 0
3, 16080, Note_on_c, 1, 55, 64
3, 16140, Note_on_c, 1, 55, 0
3, 16140, Note_on_c, 1, 60, 64
3, 16200, Note_on_c, 1, 60, 0
3, 16200, Note_on_c, 1, 59, 64
3, 16260, Note_on_c, 1, 59, 0
3, 16260, Note_on_c, 1, 60, 64
3, 16320, Note_on_c, 1, 60, 0
3, 16320, Note_on_c, 1, 63, 64
3, 16440, Note_on_c, 1, 63, 0
3, 16440, Note_on_c, 1, 62, 64
3, 16560, Note_on_c, 1, 62, 0
3, 16680, Note_on_c, 1, 59, 64
3, 16740, Note_on_c, 1, 59, 0
3, 16740, Note_on_c, 1, 55, 64
3, 16800, Note_on_c, 1, 55, 0
3, 16800, Note_on_c, 1, 65, 64
3, 16920, Note_on_c, 1, 65, 0
3, 16920, Note_on_c, 1, 63, 64
3, 17035, Note_on_c, 1, 63, 0
3, 17040, Note_on_c, 1, 63, 74
3, 17060, Note_on_c, 1, 62, 42
3, 17062, Note_on_c, 1, 63, 0
3, 17080, Note_on_c, 1, 63, 44
3, 17082, Note_on_c, 1, 62, 0
3, 17100, Note_on_c, 1, 62, 46
3, 17102, Note_on_c, 1, 63, 0
3, 17120, Note_on_c, 1, 63, 48
3, 17122, Note_on_c, 1, 62, 0
3, 17140, Note_on_c, 1, 62, 51
3, 17142, Note_on_c, 1, 63, 0
3, 17160, Note_on_c, 1, 63, 53
3, 17162, Note_on_c, 1, 62, 0
3, 17180, Note_on_c, 1, 62, 55
3, 17182, Note_on_c, 1, 63, 0
3, 17200, Note_on_c, 1, 63, 57
3, 17202, Note_on_c, 1, 62, 0
3, 17220, Note_on_c, 1, 62, 59
3, 17222, Note_on_c, 1, 63, 0
3, 17240, Note_on_c, 1, 63, 61
3, 17242, Note_on_c, 1, 62, 0
3, 17260, Note_on_c, 1, 62, 63
3, 17262, Note_on_c, 1, 63, 0
3, 17280, Note_on_c, 1, 60, 64
3, 17282, Note_on_c, 1, 62, 0
3, 17340, Note_on_c, 1, 60, 0
3, 17340, Note_on_c, 1, 59, 64
3, 17400, Note_on_c, 1, 59, 0
3, 17400, Note_on_c, 1, 60, 64
3, 17460, Note_on_c, 1, 60, 0
3, 17460, Note_on_c, 1, 63, 64
3, 17520, Note_on_c, 1, 63, 0
3, 17520, Note_on_c, 1, 68, 64
3, 17880, Note_on_c, 1, 68, 0
3, 17880, Note_on_c, 1, 58, 64
3, 17940, Note_on_c, 1, 58, 0
3, 17940, Note_on_c, 1, 62, 64
3, 18000, Note_on_c, 1, 62, 0
3, 18000, Note_on_c, 1, 67, 64
3, 18360, Note_on_c, 1, 67, 0
3, 18360, Note_on_c, 1, 56, 64
3, 18420, Note_on_c, 1, 56, 0
3, 18420, Note_on_c, 1, 60, 64
3, 18480, Note_on_c, 1, 60, 0
3, 18480, Note_on_c, 1, 65, 64
3, 18780, Note_on_c, 1, 65, 0
3, 18780, Note_on_c, 1, 67, 64
3, 18840, Note_on_c, 1, 67, 0
3, 18840, Note_on_c, 1, 68, 64
3, 19080, Note_on_c, 1, 68, 0
3, 19080, Note_on_c, 1, 67, 64
3, 19200, Note_on_c, 1, 67, 0
3, 19200, Note_on_c, 1, 65, 64
3, 19260, Note_on_c, 1, 65, 0
3, 19260, Note_on_c, 1, 63, 64
3, 19320, Note_on_c, 1, 63, 0
3, 19320, Note_on_c, 1, 65, 64
3, 19380, Note_on_c, 1, 65, 0
3, 19380, Note_on_c, 1, 67, 64
3, 19440, Note_on_c, 1, 67, 0
3, 19440, Note_on_c, 1, 69, 64
3, 19740, Note_on_c, 1, 69, 0
3, 19740, Note_on_c, 1, 67, 64
3, 19800, Note_on_c, 1, 67, 0
3, 19800, Note_on_c, 1, 69, 64
3, 19860, Note_on_c, 1, 69, 0
3, 19860, Note_on_c, 1, 70, 64
3, 19920, Note_on_c, 1, 70, 0
3, 19920, Note_on_c, 1, 72, 64
3, 19980, Note_on_c, 1, 72, 0
3, 19980, Note_on_c, 1, 69, 64
3, 20040, Note_on_c, 1, 69, 0
3, 20040, Note_on_c, 1, 62, 64
3, 20100, Note_on_c, 1, 62, 0
3, 20100, Note_on_c, 1, 72, 64
3, 20160, Note_on_c, 1, 72, 0
3, 20160, Note_on_c, 1, 70, 64
3, 20390, Note_on_c, 1, 70, 0
3, 20400, Note_on_c, 1, 70, 64
3, 20700, Note_on_c, 1, 70, 0
3, 20700, Note_on_c, 1, 73, 64
3, 20760, Note_on_c, 1, 73, 0
3, 20760, Note_on_c, 1, 72, 64
3, 20820, Note_on_c, 1, 72, 0
3, 20820, Note_on_c, 1, 70, 64
3, 20880, Note_on_c, 1, 70, 0
3, 20880, Note_on_c, 1, 68, 64
3, 20940, Note_on_c, 1, 68, 0
3, 20940, Note_on_c, 1, 67, 64
3, 21000, Note_on_c, 1, 67, 0
3, 21000, Note_on_c, 1, 65, 64
3, 21060, Note_on_c, 1, 65, 0
3, 21060, Note_on_c, 1, 67, 64
3, 21120, Note_on_c, 1, 67, 0
3, 21120, Note_on_c, 1, 68, 64
3, 21350, Note_on_c, 1, 68, 0
3, 21360, Note_on_c, 1, 68, 64
3, 21660, Note_on_c, 1, 68, 0
3, 21660, Note_on_c, 1, 72, 64
3, 21720, Note_on_c, 1, 72, 0
3, 21720, Note_on_c, 1, 70, 64
3, 21780, Note_on_c, 1, 70, 0
3, 21780, Note_on_c, 1, 68, 64
3, 21840, Note_on_c, 1, 68, 0
3, 21840, Note_on_c, 1, 67, 64
3, 21900, Note_on_c, 1, 67, 0
3, 21900, Note_on_c, 1, 65, 64
3, 21960, Note_on_c, 1, 65, 0
3, 21960, Note_on_c, 1, 63, 64
3, 22020, Note_on_c, 1, 63, 0
3, 22020, Note_on_c, 1, 65, 64
3, 22080, Note_on_c, 1, 65, 0
3, 22080, Note_on_c, 1, 67, 64
3, 22320, Note_on_c, 1, 67, 0
3, 22380, Note_on_c, 1, 70, 64
3, 22440, Note_on_c, 1, 70, 0
3, 22440, Note_on_c, 1, 67, 64
3, 22500, Note_on_c, 1, 67, 0
3, 22500, Note_on_c, 1, 63, 64
3, 22560, Note_on_c, 1, 63, 0
3, 22860, Note_on_c, 1, 72, 64
3, 22920, Note_on_c, 1, 72, 0
3, 22920, Note_on_c, 1, 69, 64
3, 22980, Note_on_c, 1, 69, 0
3, 22980, Note_on_c, 1, 65, 64
3, 23040, Note_on_c, 1, 65, 0
3, 23340, Note_on_c, 1, 74, 64
3, 23400, Note_on_c, 1, 74, 0
3, 23400, Note_on_c, 1, 71, 64
3, 23460, Note_on_c, 1, 71, 0
3, 23460, Note_on_c, 1, 67, 64
3, 23520, Note_on_c, 1, 67, 0
3, 24120, Note_on_c, 1, 77, 64
3, 24240, Note_on_c, 1, 77, 0
3, 24240, Note_on_c, 1, 75, 64
3, 24360, Note_on_c, 1, 75, 0
3, 24360, Note_on_c, 1, 68, 64
3, 24480, Note_on_c, 1, 68, 0
3, 24480, Note_on_c, 1, 70, 64
3, 24600, Note_on_c, 1, 70, 0
3, 24600, Note_on_c, 1, 68, 64
3, 24660, Note_on_c, 1, 68, 0
3, 24660, Note_on_c, 1, 67, 64
3, 24720, Note_on_c, 1, 67, 0
3, 24720, Note_on_c, 1, 68, 64
3, 24780, Note_on_c, 1, 68, 0
3, 24780, Note_on_c, 1, 74, 64
3, 24840, Note_on_c, 1, 74, 0
3, 24840, Note_on_c, 1, 70, 64
3, 24900, Note_on_c, 1, 70, 0
3, 24900, Note_on_c, 1, 65, 64
3, 24960, Note_on_c, 1, 65, 0
3, 24960, Note_on_c, 1, 62, 64
3, 25080, Note_on_c, 1, 62, 0
3, 25080, Note_on_c, 1, 63, 64
3, 25320, Note_on_c, 1, 63, 0
3, 25320, Note_on_c, 1, 62, 64
3, 25440, Note_on_c, 1, 62, 0
3, 25440, Note_on_c, 1, 63, 64
3, 25560, Note_on_c, 1, 63, 0
3, 25740, Note_on_c, 1, 70, 64
3, 25800, Note_on_c, 1, 70, 0
3, 25800, Note_on_c, 1, 67, 64
3, 25860, Note_on_c, 1, 67, 0
3, 25860, Note_on_c, 1, 63, 64
3, 25920, Note_on_c, 1, 63, 0
3, 25920, Note_on_c, 1, 56, 64
3, 26040, Note_on_c, 1, 56, 0
3, 26220, Note_on_c, 1, 72, 64
3, 26280, Note_on_c, 1, 72, 0
3, 26280, Note_on_c, 1, 69, 64
3, 26340, Note_on_c, 1, 69, 0
3, 26340, Note_on_c, 1, 65, 64
3, 26400, Note_on_c, 1, 65, 0
3, 26400, Note_on_c, 1, 58, 64
3, 26520, Note_on_c, 1, 58, 0
3, 26700, Note_on_c, 1, 65, 64
3, 26760, Note_on_c, 1, 62, 64
3, 26764, Note_on_c, 1, 65, 0
3, 26820, Note_on_c, 1, 58, 64
3, 26821, Note_on_c, 1, 62, 0
3, 26880, Note_on_c, 1, 58, 0
3, 27000, Note_on_c, 1, 61, 64
3, 27120, Note_on_c, 1, 61, 0
3, 27120, Note_on_c, 1, 60, 64
3, 27240, Note_on_c, 1, 60, 0
3, 27240, Note_on_c, 1, 58, 64
3, 27360, Note_on_c, 1, 58, 0
3, 27360, Note_on_c, 1, 56, 64
3, 27420, Note_on_c, 1, 56, 0
3, 27420, Note_on_c, 1, 55, 64
3, 27480, Note_on_c, 1, 55, 0
3, 27480, Note_on_c, 1, 56, 64
3, 27540, Note_on_c, 1, 56, 0
3, 27540, Note_on_c, 1, 58, 64
3, 27600, Note_on_c, 1, 58, 0
3, 27600, Note_on_c, 1, 60, 64
3, 27900, Note_on_c, 1, 58, 64
3, 27906, Note_on_c, 1, 60, 0
3, 27960, Note_on_c, 1, 58, 0
3, 27960, Note_on_c, 1, 60, 64
3, 28020, Note_on_c, 1, 60, 0
3, 28020, Note_on_c, 1, 62, 64
3, 28080, Note_on_c, 1, 62, 0
3, 28080, Note_on_c, 1, 63, 64
3, 28140, Note_on_c, 1, 63, 0
3, 28140, Note_on_c, 1, 60, 64
3, 28200, Note_on_c, 1, 60, 0
3, 28260, Note_on_c, 1, 63, 64
3, 28320, Note_on_c, 1, 63, 0
3, 28320, Note_on_c, 1, 62, 64
3, 28440, Note_on_c, 1, 62, 0
3, 28860, Note_on_c, 1, 70, 64
3, 28920, Note_on_c, 1, 70, 0
3, 28920, Note_on_c, 1, 75, 64
3, 28980, Note_on_c, 1, 75, 0
3, 28980, Note_on_c, 1, 79, 64
3, 29040, Note_on_c, 1, 79, 0
3, 29040, Note_on_c, 1, 73, 64
3, 29100, Note_on_c, 1, 73, 0
3, 29100, Note_on_c, 1, 70, 64
3, 29160, Note_on_c, 1, 70, 0
3, 29160, Note_on_c, 1, 73, 64
3, 29220, Note_on_c, 1, 73, 0
3, 29220, Note_on_c, 1, 79, 64
3, 29280, Note_on_c, 1, 79, 0
3, 29280, Note_on_c, 1, 72, 64
3, 29400, Note_on_c, 1, 72, 0
3, 29820, Note_on_c, 1, 68, 64
3, 29880, Note_on_c, 1, 68, 0
3, 29880, Note_on_c, 1, 74, 64
3, 29940, Note_on_c, 1, 74, 0
3, 29940, Note_on_c, 1, 77, 64
3, 30000, Note_on_c, 1, 77, 0
3, 30000, Note_on_c, 1, 72, 64
3, 30060, Note_on_c, 1, 72, 0
3, 30060, Note_on_c, 1, 68, 64
3, 30120, Note_on_c, 1, 68, 0
3, 30120, Note_on_c, 1, 72, 64
3, 30180, Note_on_c, 1, 72, 0
3, 30180, Note_on_c, 1, 77, 64
3, 30240, Note_on_c, 1, 77, 0
3, 30240, Note_on_c, 1, 70, 64
3, 30360, Note_on_c, 1, 70, 0
3, 30840, Note_on_c, 1, 70, 64
3, 30960, Note_on_c, 1, 70, 0
3, 30960, Note_on_c, 1, 68, 64
3, 31440, Note_on_c, 1, 68, 0
3, 31440, Note_on_c, 1, 67, 64
3, 31560, Note_on_c, 1, 67, 0
3, 31560, Note_on_c, 1, 63, 64
3, 31740, Note_on_c, 1, 63, 0
3, 31740, Note_on_c, 1, 62, 64
3, 31800, Note_on_c, 1, 62, 0
3, 31800, Note_on_c, 1, 60, 64
3, 31860, Note_on_c, 1, 60, 0
3, 31860, Note_on_c, 1, 62, 64
3, 31920, Note_on_c, 1, 62, 0
3, 31920, Note_on_c, 1, 58, 64
3, 31980, Note_on_c, 1, 58, 0
3, 31980, Note_on_c, 1, 63, 64
3, 32040, Note_on_c, 1, 63, 0
3, 32040, Note_on_c, 1, 62, 64
3, 32100, Note_on_c, 1, 62, 0
3, 32100, Note_on_c, 1, 63, 64
3, 32160, Note_on_c, 1, 63, 0
3, 32160, Note_on_c, 1, 66, 64
3, 32280, Note_on_c, 1, 66, 0
3, 32280, Note_on_c, 1, 65, 64
3, 32400, Note_on_c, 1, 65, 0
3, 32520, Note_on_c, 1, 62, 64
3, 32580, Note_on_c, 1, 62, 0
3, 32580, Note_on_c, 1, 58, 64
3, 32640, Note_on_c, 1, 58, 0
3, 32640, Note_on_c, 1, 68, 64
3, 32760, Note_on_c, 1, 68, 0
3, 32760, Note_on_c, 1, 67, 64
3, 32875, Note_on_c, 1, 67, 0
3, 32880, Note_on_c, 1, 67, 72
3, 32900, Note_on_c, 1, 67, 0
3, 32900, Note_on_c, 1, 65, 43
3, 32920, Note_on_c, 1, 65, 0
3, 32920, Note_on_c, 1, 67, 50
3, 32940, Note_on_c, 1, 67, 0
3, 32940, Note_on_c, 1, 65, 56
3, 32960, Note_on_c, 1, 65, 0
3, 32960, Note_on_c, 1, 67, 62
3, 32980, Note_on_c, 1, 67, 0
3, 32980, Note_on_c, 1, 65, 89
3, 33120, Note_on_c, 1, 65, 0
3, 33120, Note_on_c, 1, 63, 64
3, 33362, Note_on_c, 1, 63, 0
3, 33480, Note_on_c, 1, 65, 64
3, 33600, Note_on_c, 1, 65, 0
3, 33600, Note_on_c, 1, 58, 64
3, 33960, Note_on_c, 1, 58, 0
3, 33960, Note_on_c, 1, 65, 64
3, 34140, Note_on_c, 1, 65, 0
3, 34140, Note_on_c, 1, 62, 64
3, 34200, Note_on_c, 1, 62, 0
3, 34200, Note_on_c, 1, 63, 64
3, 34260, Note_on_c, 1, 63, 0
3, 34260, Note_on_c, 1, 58, 64
3, 34380, Note_on_c, 1, 58, 0
3, 34380, Note_on_c, 1, 60, 64
3, 34440, Note_on_c, 1, 60, 0
3, 34440, Note_on_c, 1, 62, 64
3, 34500, Note_on_c, 1, 62, 0
3, 34500, Note_on_c, 1, 56, 64
3, 34620, Note_on_c, 1, 56, 0
3, 34680, Note_on_c, 1, 58, 64
3, 34740, Note_on_c, 1, 58, 0
3, 34740, Note_on_c, 1, 55, 64
3, 34860, Note_on_c, 1, 55, 0
3, 34860, Note_on_c, 1, 56, 64
3, 34920, Note_on_c, 1, 56, 0
3, 34920, Note_on_c, 1, 53, 64
3, 35040, Note_on_c, 1, 53, 0
3, 35040, Note_on_c, 1, 55, 64
3, 35520, Note_on_c, 1, 55, 0
3, 35520, End_track
4, 0, Start_track
4, 0, MIDI_port, 0
4, 0, Title_t, "LH L"
4, 0, Program_c, 2, 6
4, 4800, Note_on_c, 2, 58, 64
4, 4860, Note_on_c, 2, 58, 0
4, 4860, Note_on_c, 2, 55, 64
4, 4920, Note_on_c, 2, 55, 0
4, 4920, Note_on_c, 2, 53, 64
4, 4980, Note_on_c, 2, 53, 0
4, 4980, Note_on_c, 2, 55, 64
4, 5040, Note_on_c, 2, 55, 0
4, 5040, Note_on_c, 2, 51, 64
4, 5100, Note_on_c, 2, 51, 0
4, 5100, Note_on_c, 2, 56, 64
4, 5160, Note_on_c, 2, 56, 0
4, 5160, Note_on_c, 2, 55, 64
4, 5220, Note_on_c, 2, 55, 0
4, 5220, Note_on_c, 2, 56, 64
4, 5280, Note_on_c, 2, 56, 0
4, 5280, Note_on_c, 2, 60, 64
4, 5400, Note_on_c, 2, 60, 0
4, 5400, Note_on_c, 2, 58, 64
4, 5520, Note_on_c, 2, 58, 0
4, 5640, Note_on_c, 2, 57, 64
4, 5700, Note_on_c, 2, 57, 0
4, 5700, Note_on_c, 2, 53, 64
4, 5760, Note_on_c, 2, 53, 0
4, 5760, Note_on_c, 2, 63, 64
4, 5880, Note_on_c, 2, 63, 0
4, 5880, Note_on_c, 2, 62, 64
4, 5995, Note_on_c, 2, 62, 0
4, 6000, Note_on_c, 2, 62, 74
4, 6020, Note_on_c, 2, 62, 0
4, 6020, Note_on_c, 2, 60, 43
4, 6040, Note_on_c, 2, 62, 45
4, 6042, Note_on_c, 2, 60, 0
4, 6060, Note_on_c, 2, 60, 47
4, 6062, Note_on_c, 2, 62, 0
4, 6080, Note_on_c, 2, 62, 49
4, 6082, Note_on_c, 2, 60, 0
4, 6100, Note_on_c, 2, 60, 51
4, 6102, Note_on_c, 2, 62, 0
4, 6120, Note_on_c, 2, 62, 53
4, 6122, Note_on_c, 2, 60, 0
4, 6140, Note_on_c, 2, 60, 56
4, 6142, Note_on_c, 2, 62, 0
4, 6160, Note_on_c, 2, 62, 58
4, 6162, Note_on_c, 2, 60, 0
4, 6180, Note_on_c, 2, 60, 60
4, 6182, Note_on_c, 2, 62, 0
4, 6200, Note_on_c, 2, 62, 62
4, 6202, Note_on_c, 2, 60, 0
4, 6220, Note_on_c, 2, 60, 73
4, 6222, Note_on_c, 2, 62, 0
4, 6240, Note_on_c, 2, 60, 0
4, 6240, Note_on_c, 2, 58, 64
4, 6300, Note_on_c, 2, 58, 0
4, 6300, Note_on_c, 2, 65, 64
4, 6360, Note_on_c, 2, 65, 0
4, 6360, Note_on_c, 2, 62, 64
4, 6420, Note_on_c, 2, 62, 0
4, 6420, Note_on_c, 2, 58, 64
4, 6480, Note_on_c, 2, 58, 0
4, 6480, Note_on_c, 2, 56, 64
4, 6540, Note_on_c, 2, 56, 0
4, 6540, Note_on_c, 2, 65, 64
4, 6600, Note_on_c, 2, 65, 0
4, 6600, Note_on_c, 2, 62, 64
4, 6660, Note_on_c, 2, 62, 0
4, 6660, Note_on_c, 2, 56, 64
4, 6720, Note_on_c, 2, 56, 0
4, 6720, Note_on_c, 2, 55, 64
4, 6840, Note_on_c, 2, 55, 0
4, 6840, Note_on_c, 2, 63, 64
4, 6960, Note_on_c, 2, 63, 0
4, 7080, Note_on_c, 2, 51, 64
4, 7200, Note_on_c, 2, 51, 0
4, 7200, Note_on_c, 2, 56, 64
4, 7260, Note_on_c, 2, 56, 0
4, 7260, Note_on_c, 2, 63, 64
4, 7320, Note_on_c, 2, 63, 0
4, 7320, Note_on_c, 2, 60, 64
4, 7380, Note_on_c, 2, 60, 0
4, 7380, Note_on_c, 2, 56, 64
4, 7440, Note_on_c, 2, 56, 0
4, 7440, Note_on_c, 2, 55, 64
4, 7500, Note_on_c, 2, 55, 0
4, 7500, Note_on_c, 2, 63, 64
4, 7560, Note_on_c, 2, 63, 0
4, 7560, Note_on_c, 2, 60, 64
4, 7620, Note_on_c, 2, 60, 0
4, 7620, Note_on_c, 2, 55, 64
4, 7680, Note_on_c, 2, 55, 0
4, 7680, Note_on_c, 2, 53, 64
4, 7800, Note_on_c, 2, 53, 0
4, 7800, Note_on_c, 2, 62, 64
4, 7920, Note_on_c, 2, 62, 0
4, 8040, Note_on_c, 2, 50, 64
4, 8160, Note_on_c, 2, 50, 0
4, 8160, Note_on_c, 2, 55, 64
4, 8220, Note_on_c, 2, 55, 0
4, 8220, Note_on_c, 2, 62, 64
4, 8280, Note_on_c, 2, 62, 0
4, 8280, Note_on_c, 2, 58, 64
4, 8340, Note_on_c, 2, 58, 0
4, 8340, Note_on_c, 2, 55, 64
4, 8400, Note_on_c, 2, 55, 0
4, 8400, Note_on_c, 2, 53, 64
4, 8460, Note_on_c, 2, 53, 0
4, 8460, Note_on_c, 2, 61, 64
4, 8520, Note_on_c, 2, 61, 0
4, 8520, Note_on_c, 2, 58, 64
4, 8580, Note_on_c, 2, 58, 0
4, 8580, Note_on_c, 2, 55, 64
4, 8640, Note_on_c, 2, 55, 0
4, 8640, Note_on_c, 2, 52, 64
4, 8700, Note_on_c, 2, 52, 0
4, 8700, Note_on_c, 2, 60, 64
4, 8760, Note_on_c, 2, 60, 0
4, 8760, Note_on_c, 2, 55, 64
4, 8820, Note_on_c, 2, 55, 0
4, 8820, Note_on_c, 2, 52, 64
4, 8880, Note_on_c, 2, 52, 0
4, 8880, Note_on_c, 2, 53, 64
4, 8940, Note_on_c, 2, 53, 0
4, 8940, Note_on_c, 2, 60, 64
4, 9000, Note_on_c, 2, 60, 0
4, 9000, Note_on_c, 2, 56, 64
4, 9060, Note_on_c, 2, 56, 0
4, 9060, Note_on_c, 2, 53, 64
4, 9120, Note_on_c, 2, 53, 0
4, 9120, Note_on_c, 2, 50, 64
4, 9180, Note_on_c, 2, 50, 0
4, 9180, Note_on_c, 2, 58, 64
4, 9240, Note_on_c, 2, 58, 0
4, 9240, Note_on_c, 2, 53, 64
4, 9300, Note_on_c, 2, 53, 0
4, 9300, Note_on_c, 2, 50, 64
4, 9360, Note_on_c, 2, 50, 0
4, 9360, Note_on_c, 2, 51, 64
4, 9420, Note_on_c, 2, 51, 0
4, 9420, Note_on_c, 2, 58, 64
4, 9480, Note_on_c, 2, 58, 0
4, 9480, Note_on_c, 2, 55, 64
4, 9540, Note_on_c, 2, 55, 0
4, 9540, Note_on_c, 2, 51, 64
4, 9600, Note_on_c, 2, 51, 0
4, 9600, Note_on_c, 2, 48, 64
4, 9720, Note_on_c, 2, 48, 0
4, 9720, Note_on_c, 2, 56, 64
4, 9840, Note_on_c, 2, 56, 0
4, 9840, Note_on_c, 2, 55, 64
4, 9960, Note_on_c, 2, 55, 0
4, 9960, Note_on_c, 2, 53, 64
4, 10080, Note_on_c, 2, 53, 0
4, 10080, Note_on_c, 2, 51, 64
4, 10140, Note_on_c, 2, 51, 0
4, 10140, Note_on_c, 2, 48, 64
4, 10200, Note_on_c, 2, 48, 0
4, 10200, Note_on_c, 2, 50, 64
4, 10260, Note_on_c, 2, 50, 0
4, 10260, Note_on_c, 2, 51, 64
4, 10320, Note_on_c, 2, 51, 0
4, 10320, Note_on_c, 2, 53, 64
4, 10620, Note_on_c, 2, 53, 0
4, 10620, Note_on_c, 2, 51, 64
4, 10680, Note_on_c, 2, 51, 0
4, 10680, Note_on_c, 2, 53, 64
4, 10740, Note_on_c, 2, 53, 0
4, 10740, Note_on_c, 2, 55, 64
4, 10800, Note_on_c, 2, 55, 0
4, 10800, Note_on_c, 2, 56, 64
4, 10860, Note_on_c, 2, 56, 0
4, 10860, Note_on_c, 2, 53, 64
4, 10920, Note_on_c, 2, 53, 0
4, 10920, Note_on_c, 2, 46, 64
4, 10980, Note_on_c, 2, 46, 0
4, 10980, Note_on_c, 2, 56, 64
4, 11040, Note_on_c, 2, 56, 0
4, 11040, Note_on_c, 2, 55, 64
4, 11160, Note_on_c, 2, 55, 0
4, 11160, Note_on_c, 2, 58, 64
4, 11280, Note_on_c, 2, 58, 0
4, 11280, Note_on_c, 2, 55, 64
4, 11400, Note_on_c, 2, 55, 0
4, 11400, Note_on_c, 2, 51, 64
4, 11520, Note_on_c, 2, 51, 0
4, 11520, Note_on_c, 2, 56, 64
4, 11640, Note_on_c, 2, 56, 0
4, 12240, Note_on_c, 2, 53, 64
4, 12360, Note_on_c, 2, 53, 0
4, 12360, Note_on_c, 2, 50, 64
4, 12480, Note_on_c, 2, 50, 0
4, 12480, Note_on_c, 2, 55, 64
4, 12600, Note_on_c, 2, 55, 0
4, 13200, Note_on_c, 2, 52, 64
4, 13320, Note_on_c, 2, 52, 0
4, 13320, Note_on_c, 2, 48, 64
4, 13440, Note_on_c, 2, 48, 0
4, 13440, Note_on_c, 2, 53, 64
4, 13560, Note_on_c, 2, 53, 0
4, 13560, Note_on_c, 2, 51, 64
4, 13680, Note_on_c, 2, 51, 0
4, 13680, Note_on_c, 2, 50, 64
4, 13800, Note_on_c, 2, 50, 0
4, 13800, Note_on_c, 2, 48, 64
4, 13920, Note_on_c, 2, 48, 0
4, 13920, Note_on_c, 2, 47, 64
4, 14040, Note_on_c, 2, 47, 0
4, 14040, Note_on_c, 2, 43, 64
4, 14160, Note_on_c, 2, 43, 0
4, 14160, Note_on_c, 2, 48, 64
4, 14280, Note_on_c, 2, 48, 0
4, 14280, Note_on_c, 2, 46, 64
4, 14400, Note_on_c, 2, 46, 0
4, 14400, Note_on_c, 2, 45, 64
4, 14520, Note_on_c, 2, 45, 0
4, 14520, Note_on_c, 2, 57, 64
4, 14640, Note_on_c, 2, 57, 0
4, 14640, Note_on_c, 2, 59, 64
4, 14760, Note_on_c, 2, 59, 0
4, 14760, Note_on_c, 2, 55, 64
4, 14880, Note_on_c, 2, 55, 0
4, 14880, Note_on_c, 2, 60, 64
4, 15000, Note_on_c, 2, 60, 0
4, 15000, Note_on_c, 2, 55, 64
4, 15120, Note_on_c, 2, 55, 0
4, 15120, Note_on_c, 2, 56, 64
4, 15240, Note_on_c, 2, 56, 0
4, 15240, Note_on_c, 2, 51, 64
4, 15360, Note_on_c, 2, 51, 0
4, 15360, Note_on_c, 2, 53, 64
4, 15480, Note_on_c, 2, 53, 0
4, 15480, Note_on_c, 2, 51, 64
4, 15540, Note_on_c, 2, 51, 0
4, 15540, Note_on_c, 2, 53, 64
4, 15600, Note_on_c, 2, 53, 0
4, 15600, Note_on_c, 2, 55, 64
4, 15720, Note_on_c, 2, 55, 0
4, 15720, Note_on_c, 2, 43, 64
4, 15840, Note_on_c, 2, 43, 0
4, 15840, Note_on_c, 2, 48, 64
4, 15960, Note_on_c, 2, 48, 0
4, 18720, Note_on_c, 2, 55, 64
4, 18780, Note_on_c, 2, 55, 0
4, 18780, Note_on_c, 2, 51, 64
4, 18840, Note_on_c, 2, 51, 0
4, 18840, Note_on_c, 2, 50, 64
4, 18900, Note_on_c, 2, 50, 0
4, 18900, Note_on_c, 2, 51, 64
4, 18960, Note_on_c, 2, 51, 0
4, 18960, Note_on_c, 2, 48, 64
4, 19020, Note_on_c, 2, 48, 0
4, 19020, Note_on_c, 2, 53, 64
4, 19080, Note_on_c, 2, 53, 0
4, 19080, Note_on_c, 2, 51, 64
4, 19140, Note_on_c, 2, 51, 0
4, 19140, Note_on_c, 2, 53, 64
4, 19200, Note_on_c, 2, 53, 0
4, 19200, Note_on_c, 2, 56, 64
4, 19320, Note_on_c, 2, 56, 0
4, 19320, Note_on_c, 2, 55, 64
4, 19440, Note_on_c, 2, 55, 0
4, 19560, Note_on_c, 2, 54, 64
4, 19620, Note_on_c, 2, 54, 0
4, 19620, Note_on_c, 2, 50, 64
4, 19680, Note_on_c, 2, 50, 0
4, 19680, Note_on_c, 2, 60, 64
4, 19800, Note_on_c, 2, 60, 0
4, 19800, Note_on_c, 2, 58, 64
4, 19910, Note_on_c, 2, 58, 0
4, 19920, Note_on_c, 2, 58, 72
4, 19940, Note_on_c, 2, 57, 64
4, 19942, Note_on_c, 2, 58, 0
4, 19960, Note_on_c, 2, 58, 46
4, 19962, Note_on_c, 2, 57, 0
4, 19980, Note_on_c, 2, 57, 48
4, 19982, Note_on_c, 2, 58, 0
4, 20000, Note_on_c, 2, 58, 50
4, 20002, Note_on_c, 2, 57, 0
4, 20020, Note_on_c, 2, 57, 52
4, 20022, Note_on_c, 2, 58, 0
4, 20040, Note_on_c, 2, 58, 54
4, 20042, Note_on_c, 2, 57, 0
4, 20060, Note_on_c, 2, 57, 56
4, 20062, Note_on_c, 2, 58, 0
4, 20080, Note_on_c, 2, 58, 58
4, 20082, Note_on_c, 2, 57, 0
4, 20100, Note_on_c, 2, 57, 59
4, 20102, Note_on_c, 2, 58, 0
4, 20120, Note_on_c, 2, 58, 61
4, 20122, Note_on_c, 2, 57, 0
4, 20140, Note_on_c, 2, 57, 63
4, 20142, Note_on_c, 2, 58, 0
4, 20160, Note_on_c, 2, 57, 0
4, 20160, Note_on_c, 2, 55, 64
4, 20220, Note_on_c, 2, 55, 0
4, 20220, Note_on_c, 2, 58, 64
4, 20280, Note_on_c, 2, 58, 0
4, 20280, Note_on_c, 2, 56, 64
4, 20340, Note_on_c, 2, 56, 0
4, 20340, Note_on_c, 2, 58, 64
4, 20400, Note_on_c, 2, 58, 0
4, 20400, Note_on_c, 2, 55, 64
4, 20460, Note_on_c, 2, 55, 0
4, 20460, Note_on_c, 2, 56, 64
4, 20520, Note_on_c, 2, 56, 0
4, 20520, Note_on_c, 2, 53, 64
4, 20580, Note_on_c, 2, 53, 0
4, 20580, Note_on_c, 2, 55, 64
4, 20640, Note_on_c, 2, 55, 0
4, 20640, Note_on_c, 2, 52, 64
4, 20700, Note_on_c, 2, 52, 0
4, 20700, Note_on_c, 2, 60, 64
4, 20760, Note_on_c, 2, 60, 0
4, 20760, Note_on_c, 2, 56, 64
4, 20820, Note_on_c, 2, 56, 0
4, 20820, Note_on_c, 2, 53, 64
4, 20880, Note_on_c, 2, 53, 0
4, 20880, Note_on_c, 2, 48, 64
4, 20940, Note_on_c, 2, 48, 0
4, 20940, Note_on_c, 2, 53, 64
4, 21000, Note_on_c, 2, 53, 0
4, 21000, Note_on_c, 2, 48, 64
4, 21060, Note_on_c, 2, 48, 0
4, 21060, Note_on_c, 2, 44, 64
4, 21120, Note_on_c, 2, 44, 0
4, 21120, Note_on_c, 2, 41, 64
4, 21180, Note_on_c, 2, 41, 0
4, 21180, Note_on_c, 2, 56, 64
4, 21240, Note_on_c, 2, 56, 0
4, 21240, Note_on_c, 2, 55, 64
4, 21300, Note_on_c, 2, 55, 0
4, 21300, Note_on_c, 2, 56, 64
4, 21360, Note_on_c, 2, 56, 0
4, 21360, Note_on_c, 2, 53, 64
4, 21420, Note_on_c, 2, 53, 0
4, 21420, Note_on_c, 2, 55, 64
4, 21480, Note_on_c, 2, 55, 0
4, 21480, Note_on_c, 2, 51, 64
4, 21540, Note_on_c, 2, 51, 0
4, 21540, Note_on_c, 2, 53, 64
4, 21600, Note_on_c, 2, 53, 0
4, 21600, Note_on_c, 2, 50, 64
4, 21660, Note_on_c, 2, 50, 0
4, 21660, Note_on_c, 2, 58, 64
4, 21720, Note_on_c, 2, 58, 0
4, 21720, Note_on_c, 2, 55, 64
4, 21780, Note_on_c, 2, 55, 0
4, 21780, Note_on_c, 2, 51, 64
4, 21840, Note_on_c, 2, 51, 0
4, 21840, Note_on_c, 2, 46, 64
4, 21900, Note_on_c, 2, 46, 0
4, 21900, Note_on_c, 2, 51, 64
4, 21960, Note_on_c, 2, 51, 0
4, 21960, Note_on_c, 2, 46, 64
4, 22020, Note_on_c, 2, 46, 0
4, 22020, Note_on_c, 2, 43, 64
4, 22080, Note_on_c, 2, 43, 0
4, 22080, Note_on_c, 2, 39, 64
4, 22200, Note_on_c, 2, 39, 0
4, 22200, Note_on_c, 2, 51, 64
4, 22320, Note_on_c, 2, 51, 0
4, 22320, Note_on_c, 2, 53, 64
4, 22440, Note_on_c, 2, 53, 0
4, 22440, Note_on_c, 2, 55, 64
4, 22560, Note_on_c, 2, 55, 0
4, 22560, Note_on_c, 2, 56, 64
4, 22680, Note_on_c, 2, 56, 0
4, 22680, Note_on_c, 2, 53, 64
4, 22800, Note_on_c, 2, 53, 0
4, 22800, Note_on_c, 2, 55, 64
4, 22920, Note_on_c, 2, 55, 0
4, 22920, Note_on_c, 2, 57, 64
4, 23040, Note_on_c, 2, 57, 0
4, 23040, Note_on_c, 2, 58, 64
4, 23160, Note_on_c, 2, 58, 0
4, 23160, Note_on_c, 2, 55, 64
4, 23280, Note_on_c, 2, 55, 0
4, 23280, Note_on_c, 2, 57, 64
4, 23400, Note_on_c, 2, 57, 0
4, 23400, Note_on_c, 2, 59, 64
4, 23520, Note_on_c, 2, 59, 0
4, 23520, Note_on_c, 2, 60, 64
4, 23640, Note_on_c, 2, 60, 0
4, 23640, Note_on_c, 2, 48, 64
4, 23760, Note_on_c, 2, 48, 0
4, 23760, Note_on_c, 2, 50, 64
4, 23880, Note_on_c, 2, 50, 0
4, 23880, Note_on_c, 2, 51, 64
4, 24060, Note_on_c, 2, 51, 0
4, 24060, Note_on_c, 2, 50, 64
4, 24120, Note_on_c, 2, 50, 0
4, 24120, Note_on_c, 2, 48, 64
4, 24180, Note_on_c, 2, 48, 0
4, 24180, Note_on_c, 2, 50, 64
4, 24240, Note_on_c, 2, 50, 0
4, 24240, Note_on_c, 2, 46, 64
4, 24300, Note_on_c, 2, 46, 0
4, 24300, Note_on_c, 2, 51, 64
4, 24360, Note_on_c, 2, 51, 0
4, 24360, Note_on_c, 2, 50, 64
4, 24420, Note_on_c, 2, 50, 0
4, 24420, Note_on_c, 2, 51, 64
4, 24480, Note_on_c, 2, 51, 0
4, 24480, Note_on_c, 2, 55, 64
4, 24600, Note_on_c, 2, 55, 0
4, 24600, Note_on_c, 2, 53, 64
4, 24720, Note_on_c, 2, 53, 0
4, 24840, Note_on_c, 2, 50, 64
4, 24900, Note_on_c, 2, 50, 0
4, 24900, Note_on_c, 2, 46, 64
4, 24960, Note_on_c, 2, 46, 0
4, 24960, Note_on_c, 2, 56, 64
4, 25080, Note_on_c, 2, 56, 0
4, 25080, Note_on_c, 2, 55, 64
4, 25200, Note_on_c, 2, 55, 0
4, 25200, Note_on_c, 2, 53, 64
4, 25440, Note_on_c, 2, 53, 0
4, 25440, Note_on_c, 2, 51, 64
4, 25560, Note_on_c, 2, 51, 0
4, 25560, Note_on_c, 2, 39, 64
4, 25680, Note_on_c, 2, 39, 0
4, 25680, Note_on_c, 2, 41, 64
4, 25800, Note_on_c, 2, 41, 0
4, 25800, Note_on_c, 2, 43, 64
4, 25920, Note_on_c, 2, 43, 0
4, 25920, Note_on_c, 2, 44, 64
4, 26040, Note_on_c, 2, 44, 0
4, 26040, Note_on_c, 2, 41, 64
4, 26160, Note_on_c, 2, 41, 0
4, 26160, Note_on_c, 2, 43, 64
4, 26280, Note_on_c, 2, 43, 0
4, 26280, Note_on_c, 2, 45, 64
4, 26400, Note_on_c, 2, 45, 0
4, 26400, Note_on_c, 2, 46, 64
4, 26515, Note_on_c, 2, 46, 0
4, 26520, Note_on_c, 2, 46, 64
4, 26640, Note_on_c, 2, 46, 0
4, 26640, Note_on_c, 2, 48, 64
4, 26760, Note_on_c, 2, 48, 0
4, 26760, Note_on_c, 2, 50, 64
4, 26880, Note_on_c, 2, 50, 0
4, 26880, Note_on_c, 2, 51, 64
4, 27660, Note_on_c, 2, 51, 0
4, 27660, Note_on_c, 2, 50, 64
4, 27720, Note_on_c, 2, 50, 0
4, 27720, Note_on_c, 2, 51, 64
4, 27780, Note_on_c, 2, 51, 0
4, 27780, Note_on_c, 2, 53, 64
4, 27840, Note_on_c, 2, 53, 0
4, 27840, Note_on_c, 2, 55, 64
4, 28020, Note_on_c, 2, 55, 0
4, 28020, Note_on_c, 2, 53, 64
4, 28080, Note_on_c, 2, 53, 0
4, 28080, Note_on_c, 2, 51, 64
4, 28200, Note_on_c, 2, 51, 0
4, 28200, Note_on_c, 2, 53, 64
4, 28320, Note_on_c, 2, 53, 0
4, 28320, Note_on_c, 2, 46, 64
4, 28380, Note_on_c, 2, 46, 0
4, 28380, Note_on_c, 2, 53, 64
4, 28440, Note_on_c, 2, 53, 0
4, 28440, Note_on_c, 2, 50, 64
4, 28500, Note_on_c, 2, 50, 0
4, 28500, Note_on_c, 2, 46, 64
4, 28560, Note_on_c, 2, 46, 0
4, 28560, Note_on_c, 2, 44, 64
4, 28620, Note_on_c, 2, 44, 0
4, 28620, Note_on_c, 2, 53, 64
4, 28680, Note_on_c, 2, 53, 0
4, 28680, Note_on_c, 2, 50, 64
4, 28740, Note_on_c, 2, 50, 0
4, 28740, Note_on_c, 2, 44, 64
4, 28800, Note_on_c, 2, 44, 0
4, 28800, Note_on_c, 2, 43, 64
4, 28920, Note_on_c, 2, 43, 0
4, 28920, Note_on_c, 2, 55, 64
4, 29040, Note_on_c, 2, 55, 0
4, 29160, Note_on_c, 2, 39, 64
4, 29280, Note_on_c, 2, 39, 0
4, 29280, Note_on_c, 2, 44, 64
4, 29340, Note_on_c, 2, 44, 0
4, 29340, Note_on_c, 2, 51, 64
4, 29400, Note_on_c, 2, 51, 0
4, 29400, Note_on_c, 2, 48, 64
4, 29460, Note_on_c, 2, 48, 0
4, 29460, Note_on_c, 2, 44, 64
4, 29520, Note_on_c, 2, 44, 0
4, 29520, Note_on_c, 2, 43, 64
4, 29580, Note_on_c, 2, 43, 0
4, 29580, Note_on_c, 2, 51, 64
4, 29640, Note_on_c, 2, 51, 0
4, 29640, Note_on_c, 2, 48, 64
4, 29700, Note_on_c, 2, 48, 0
4, 29700, Note_on_c, 2, 43, 64
4, 29760, Note_on_c, 2, 43, 0
4, 29760, Note_on_c, 2, 41, 64
4, 29880, Note_on_c, 2, 53, 64
4, 29882, Note_on_c, 2, 41, 0
4, 30002, Note_on_c, 2, 53, 0
4, 30120, Note_on_c, 2, 38, 64
4, 30240, Note_on_c, 2, 38, 0
4, 30240, Note_on_c, 2, 43, 64
4, 30300, Note_on_c, 2, 43, 0
4, 30300, Note_on_c, 2, 50, 64
4, 30360, Note_on_c, 2, 50, 0
4, 30360, Note_on_c, 2, 46, 64
4, 30420, Note_on_c, 2, 46, 0
4, 30420, Note_on_c, 2, 43, 64
4, 30480, Note_on_c, 2, 43, 0
4, 30480, Note_on_c, 2, 41, 64
4, 30540, Note_on_c, 2, 41, 0
4, 30540, Note_on_c, 2, 50, 64
4, 30600, Note_on_c, 2, 50, 0
4, 30600, Note_on_c, 2, 46, 64
4, 30660, Note_on_c, 2, 46, 0
4, 30660, Note_on_c, 2, 41, 64
4, 30720, Note_on_c, 2, 41, 0
4, 30720, Note_on_c, 2, 40, 64
4, 30780, Note_on_c, 2, 40, 0
4, 30780, Note_on_c, 2, 48, 64
4, 30840, Note_on_c, 2, 48, 0
4, 30840, Note_on_c, 2, 43, 64
4, 30900, Note_on_c, 2, 43, 0
4, 30900, Note_on_c, 2, 40, 64
4, 30960, Note_on_c, 2, 40, 0
4, 30960, Note_on_c, 2, 41, 64
4, 31020, Note_on_c, 2, 41, 0
4, 31020, Note_on_c, 2, 48, 64
4, 31080, Note_on_c, 2, 48, 0
4, 31080, Note_on_c, 2, 44, 64
4, 31140, Note_on_c, 2, 44, 0
4, 31140, Note_on_c, 2, 41, 64
4, 31200, Note_on_c, 2, 41, 0
4, 31200, Note_on_c, 2, 38, 64
4, 31260, Note_on_c, 2, 38, 0
4, 31260, Note_on_c, 2, 46, 64
4, 31320, Note_on_c, 2, 46, 0
4, 31320, Note_on_c, 2, 41, 64
4, 31380, Note_on_c, 2, 41, 0
4, 31380, Note_on_c, 2, 38, 64
4, 31440, Note_on_c, 2, 38, 0
4, 31440, Note_on_c, 2, 39, 64
4, 31500, Note_on_c, 2, 39, 0
4, 31500, Note_on_c, 2, 46, 64
4, 31560, Note_on_c, 2, 46, 0
4, 31560, Note_on_c, 2, 43, 64
4, 31620, Note_on_c, 2, 43, 0
4, 31620, Note_on_c, 2, 39, 64
4, 31680, Note_on_c, 2, 39, 0
4, 31680, Note_on_c, 2, 46, 64
4, 31800, Note_on_c, 2, 46, 0
4, 31800, Note_on_c, 2, 53, 64
4, 31920, Note_on_c, 2, 53, 0
4, 31920, Note_on_c, 2, 50, 64
4, 32040, Note_on_c, 2, 50, 0
4, 32040, Note_on_c, 2, 46, 64
4, 32160, Note_on_c, 2, 46, 0
4, 32160, Note_on_c, 2, 57, 64
4, 32280, Note_on_c, 2, 57, 0
4, 32280, Note_on_c, 2, 56, 64
4, 32400, Note_on_c, 2, 56, 0
4, 32460, Note_on_c, 2, 56, 64
4, 32520, Note_on_c, 2, 56, 0
4, 32520, Note_on_c, 2, 53, 64
4, 32580, Note_on_c, 2, 53, 0
4, 32580, Note_on_c, 2, 50, 64
4, 32640, Note_on_c, 2, 50, 0
4, 32640, Note_on_c, 2, 46, 64
4, 32760, Note_on_c, 2, 46, 0
4, 32760, Note_on_c, 2, 51, 64
4, 32880, Note_on_c, 2, 51, 0
4, 32880, Note_on_c, 2, 58, 64
4, 33000, Note_on_c, 2, 58, 0
4, 33000, Note_on_c, 2, 59, 64
4, 33120, Note_on_c, 2, 59, 0
4, 33120, Note_on_c, 2, 60, 64
4, 33410, Note_on_c, 2, 60, 0
4, 33420, Note_on_c, 2, 60, 64
4, 33480, Note_on_c, 2, 60, 0
4, 33480, Note_on_c, 2, 56, 64
4, 33540, Note_on_c, 2, 56, 0
4, 33540, Note_on_c, 2, 53, 64
4, 33600, Note_on_c, 2, 53, 0
4, 33600, Note_on_c, 2, 50, 64
4, 33720, Note_on_c, 2, 50, 0
4, 33720, Note_on_c, 2, 46, 64
4, 33840, Note_on_c, 2, 46, 0
4, 33900, Note_on_c, 2, 51, 64
4, 33960, Note_on_c, 2, 51, 0
4, 33960, Note_on_c, 2, 48, 64
4, 34020, Note_on_c, 2, 48, 0
4, 34020, Note_on_c, 2, 44, 64
4, 34080, Note_on_c, 2, 44, 0
4, 34080, Note_on_c, 2, 46, 64
4, 34560, Note_on_c, 2, 46, 0
4, 34560, Note_on_c, 2, 39, 64
4, 35520, Note_on_c, 2, 39, 0
4, 35520, End_track
0, 0, End_of_file
