0, 0, Header, 1, 4, 240
1, 0, Start_track
1, 0, Title_t, "untitled"
1, 0, Time_signature, 4, 2, 24, 8
1, 0, Key_signature, 0, "major"
1, 0, Tempo, 722892
1, 17040, Tempo, 731707
1, 17280, Tempo, 769231
1, 17400, Tempo, 821918
1, 17520, Tempo, 869565
1, 17640, Tempo, 967742
1, 17696, Tempo, 1200000
1, 17696, End_track
2, 0, Start_track
2, 0, Title_t, "RH B"
2, 0, Program_c, 0, 0
2, 60, Note_on_c, 0, 71, 64
2, 120, Note_on_c, 0, 71, 0
2, 120, Note_on_c, 0, 70, 64
2, 180, Note_on_c, 0, 70, 0
2, 180, Note_on_c, 0, 71, 64
2, 240, Note_on_c, 0, 71, 0
2, 240, Note_on_c, 0, 73, 64
2, 300, Note_on_c, 0, 73, 0
2, 300, Note_on_c, 0, 70, 64
2, 360, Note_on_c, 0, 70, 0
2, 360, Note_on_c, 0, 71, 64
2, 420, Note_on_c, 0, 71, 0
2, 420, Note_on_c, 0, 73, 64
2, 480, Note_on_c, 0, 73, 0
2, 540, Note_on_c, 0, 75, 64
2, 600, Note_on_c, 0, 75, 0
2, 600, Note_on_c, 0, 73, 64
2, 660, Note_on_c, 0, 73, 0
2, 660, Note_on_c, 0, 75, 64
2, 720, Note_on_c, 0, 75, 0
2, 720, Note_on_c, 0, 76, 64
2, 780, Note_on_c, 0, 76, 0
2, 780, Note_on_c, 0, 73, 64
2, 840, Note_on_c, 0, 73, 0
2, 840, Note_on_c, 0, 75, 64
2, 900, Note_on_c, 0, 75, 0
2, 900, Note_on_c, 0, 76, 64
2, 960, Note_on_c, 0, 76, 0
2, 1020, Note_on_c, 0, 76, 64
2, 1080, Note_on_c, 0, 76, 0
2, 1080, Note_on_c, 0, 75, 64
2, 1140, Note_on_c, 0, 75, 0
2, 1140, Note_on_c, 0, 76, 64
2, 1200, Note_on_c, 0, 76, 0
2, 1200, Note_on_c, 0, 78, 64
2, 1260, Note_on_c, 0, 78, 0
2, 1260, Note_on_c, 0, 73, 64
2, 1320, Note_on_c, 0, 73, 0
2, 1320, Note_on_c, 0, 75, 64
2, 1380, Note_on_c, 0, 75, 0
2, 1380, Note_on_c, 0, 76, 64
2, 1440, Note_on_c, 0, 76, 0
2, 1440, Note_on_c, 0, 75, 64
2, 1500, Note_on_c, 0, 70, 64
2, 1560, Note_on_c, 0, 70, 0
2, 1560, Note_on_c, 0, 68, 64
2, 1620, Note_on_c, 0, 68, 0
2, 1620, Note_on_c, 0, 70, 64
2, 1680, Note_on_c, 0, 70, 0
2, 1680, Note_on_c, 0, 71, 64
2, 1740, Note_on_c, 0, 71, 0
2, 1740, Note_on_c, 0, 68, 64
2, 1800, Note_on_c, 0, 68, 0
2, 1800, Note_on_c, 0, 70, 64
2, 1860, Note_on_c, 0, 70, 0
2, 1860, Note_on_c, 0, 71, 64
2, 1920, Note_on_c, 0, 71, 0
2, 1920, Note_on_c, 0, 75, 0
2, 1920, Note_on_c, 0, 65, 64
2, 1920, Note_on_c, 0, 73, 64
2, 2160, Note_on_c, 0, 65, 0
2, 2160, Note_on_c, 0, 66, 64
2, 2460, Note_on_c, 0, 73, 0
2, 2460, Note_on_c, 0, 70, 64
2, 2520, Note_on_c, 0, 70, 0
2, 2520, Note_on_c, 0, 68, 64
2, 2580, Note_on_c, 0, 68, 0
2, 2580, Note_on_c, 0, 70, 64
2, 2640, Note_on_c, 0, 70, 0
2, 2640, Note_on_c, 0, 71, 64
2, 2700, Note_on_c, 0, 71, 0
2, 2700, Note_on_c, 0, 68, 64
2, 2760, Note_on_c, 0, 68, 0
2, 2760, Note_on_c, 0, 70, 64
2, 2820, Note_on_c, 0, 70, 0
2, 2820, Note_on_c, 0, 71, 64
2, 2880, Note_on_c, 0, 66, 0
2, 2880, Note_on_c, 0, 65, 64
2, 2940, Note_on_c, 0, 71, 0
2, 2940, Note_on_c, 0, 68, 64
2, 3000, Note_on_c, 0, 68, 0
2, 3000, Note_on_c, 0, 66, 64
2, 3060, Note_on_c, 0, 66, 0
2, 3060, Note_on_c, 0, 68, 64
2, 3120, Note_on_c, 0, 68, 0
2, 3120, Note_on_c, 0, 65, 0
2, 3120, Note_on_c, 0, 64, 64
2, 3120, Note_on_c, 0, 70, 64
2, 3180, Note_on_c, 0, 70, 0
2, 3180, Note_on_c, 0, 66, 64
2, 3240, Note_on_c, 0, 66, 0
2, 3240, Note_on_c, 0, 68, 64
2, 3300, Note_on_c, 0, 68, 0
2, 3300, Note_on_c, 0, 70, 64
2, 3360, Note_on_c, 0, 64, 0
2, 3360, Note_on_c, 0, 63, 64
2, 3600, Note_on_c, 0, 70, 0
2, 3600, Note_on_c, 0, 68, 64
2, 3720, Note_on_c, 0, 68, 0
2, 3720, Note_on_c, 0, 66, 64
2, 3840, Note_on_c, 0, 66, 0
2, 3840, Note_on_c, 0, 65, 64
2, 3960, Note_on_c, 0, 63, 0
2, 3960, Note_on_c, 0, 61, 64
2, 4080, Note_on_c, 0, 61, 0
2, 4080, Note_on_c, 0, 65, 0
2, 4080, Note_on_c, 0, 59, 64
2, 4080, Note_on_c, 0, 66, 64
2, 4200, Note_on_c, 0, 59, 0
2, 4200, Note_on_c, 0, 58, 64
2, 4320, Note_on_c, 0, 58, 0
2, 4320, Note_on_c, 0, 59, 64
2, 4380, Note_on_c, 0, 59, 0
2, 4380, Note_on_c, 0, 58, 64
2, 4440, Note_on_c, 0, 58, 0
2, 4440, Note_on_c, 0, 56, 64
2, 4500, Note_on_c, 0, 56, 0
2, 4500, Note_on_c, 0, 58, 64
2, 4560, Note_on_c, 0, 58, 0
2, 4560, Note_on_c, 0, 66, 0
2, 4560, Note_on_c, 0, 59, 64
2, 4560, Note_on_c, 0, 65, 64
2, 4620, Note_on_c, 0, 59, 0
2, 4620, Note_on_c, 0, 56, 64
2, 4680, Note_on_c, 0, 56, 0
2, 4680, Note_on_c, 0, 58, 64
2, 4740, Note_on_c, 0, 58, 0
2, 4740, Note_on_c, 0, 59, 64
2, 4800, Note_on_c, 0, 59, 0
2, 4800, Note_on_c, 0, 65, 0
2, 4800, Note_on_c, 0, 58, 64
2, 4800, Note_on_c, 0, 66, 64
2, 5040, Note_on_c, 0, 58, 0
2, 5040, Note_on_c, 0, 59, 64
2, 5280, Note_on_c, 0, 59, 0
2, 5280, Note_on_c, 0, 61, 64
2, 5520, Note_on_c, 0, 61, 0
2, 5520, Note_on_c, 0, 63, 64
2, 5760, Note_on_c, 0, 66, 0
2, 5820, Note_on_c, 0, 68, 64
2, 5880, Note_on_c, 0, 68, 0
2, 5880, Note_on_c, 0, 67, 64
2, 5940, Note_on_c, 0, 67, 0
2, 5940, Note_on_c, 0, 68, 64
2, 6000, Note_on_c, 0, 68, 0
2, 6000, Note_on_c, 0, 63, 0
2, 6000, Note_on_c, 0, 61, 64
2, 6000, Note_on_c, 0, 70, 64
2, 6060, Note_on_c, 0, 70, 0
2, 6060, Note_on_c, 0, 67, 64
2, 6120, Note_on_c, 0, 67, 0
2, 6120, Note_on_c, 0, 68, 64
2, 6180, Note_on_c, 0, 68, 0
2, 6180, Note_on_c, 0, 70, 64
2, 6240, Note_on_c, 0, 70, 0
2, 6240, Note_on_c, 0, 67, 64
2, 6300, Note_on_c, 0, 67, 0
2, 6300, Note_on_c, 0, 70, 64
2, 6360, Note_on_c, 0, 70, 0
2, 6360, Note_on_c, 0, 68, 64
2, 6420, Note_on_c, 0, 68, 0
2, 6420, Note_on_c, 0, 70, 64
2, 6480, Note_on_c, 0, 70, 0
2, 6480, Note_on_c, 0, 61, 0
2, 6480, Note_on_c, 0, 59, 64
2, 6480, Note_on_c, 0, 71, 64
2, 6540, Note_on_c, 0, 71, 0
2, 6540, Note_on_c, 0, 68, 64
2, 6600, Note_on_c, 0, 68, 0
2, 6600, Note_on_c, 0, 70, 64
2, 6660, Note_on_c, 0, 70, 0
2, 6660, Note_on_c, 0, 71, 64
2, 6720, Note_on_c, 0, 71, 0
2, 6720, Note_on_c, 0, 59, 0
2, 6720, Note_on_c, 0, 58, 64
2, 6720, Note_on_c, 0, 73, 64
2, 6780, Note_on_c, 0, 73, 0
2, 6780, Note_on_c, 0, 80, 64
2, 6840, Note_on_c, 0, 80, 0
2, 6840, Note_on_c, 0, 58, 0
2, 6840, Note_on_c, 0, 56, 64
2, 6840, Note_on_c, 0, 79, 64
2, 6900, Note_on_c, 0, 79, 0
2, 6900, Note_on_c, 0, 80, 64
2, 6960, Note_on_c, 0, 80, 0
2, 6960, Note_on_c, 0, 82, 64
2, 7020, Note_on_c, 0, 82, 0
2, 7020, Note_on_c, 0, 79, 64
2, 7080, Note_on_c, 0, 79, 0
2, 7080, Note_on_c, 0, 56, 0
2, 7080, Note_on_c, 0, 55, 64
2, 7080, Note_on_c, 0, 80, 64
2, 7140, Note_on_c, 0, 80, 0
2, 7140, Note_on_c, 0, 82, 64
2, 7200, Note_on_c, 0, 82, 0
2, 7200, Note_on_c, 0, 75, 64
2, 7260, Note_on_c, 0, 55, 0
2, 7260, Note_on_c, 0, 70, 64
2, 7320, Note_on_c, 0, 70, 0
2, 7320, Note_on_c, 0, 68, 64
2, 7380, Note_on_c, 0, 68, 0
2, 7380, Note_on_c, 0, 70, 64
2, 7440, Note_on_c, 0, 70, 0
2, 7440, Note_on_c, 0, 71, 64
2, 7500, Note_on_c, 0, 71, 0
2, 7500, Note_on_c, 0, 68, 64
2, 7560, Note_on_c, 0, 68, 0
2, 7560, Note_on_c, 0, 70, 64
2, 7620, Note_on_c, 0, 70, 0
2, 7620, Note_on_c, 0, 71, 64
2, 7680, Note_on_c, 0, 71, 0
2, 7680, Note_on_c, 0, 75, 0
2, 7680, Note_on_c, 0, 64, 64
2, 7680, Note_on_c, 0, 73, 64
2, 7740, Note_on_c, 0, 64, 0
2, 7740, Note_on_c, 0, 71, 64
2, 7800, Note_on_c, 0, 71, 0
2, 7800, Note_on_c, 0, 70, 64
2, 7860, Note_on_c, 0, 70, 0
2, 7860, Note_on_c, 0, 68, 64
2, 7920, Note_on_c, 0, 68, 0
2, 7920, Note_on_c, 0, 67, 64
2, 8220, Note_on_c, 0, 73, 0
2, 8220, Note_on_c, 0, 75, 64
2, 8280, Note_on_c, 0, 75, 0
2, 8280, Note_on_c, 0, 73, 64
2, 8340, Note_on_c, 0, 73, 0
2, 8340, Note_on_c, 0, 75, 64
2, 8400, Note_on_c, 0, 75, 0
2, 8400, Note_on_c, 0, 67, 0
2, 8400, Note_on_c, 0, 68, 64
2, 8400, Note_on_c, 0, 76, 64
2, 8460, Note_on_c, 0, 76, 0
2, 8460, Note_on_c, 0, 73, 64
2, 8520, Note_on_c, 0, 73, 0
2, 8520, Note_on_c, 0, 75, 64
2, 8580, Note_on_c, 0, 75, 0
2, 8580, Note_on_c, 0, 76, 64
2, 8640, Note_on_c, 0, 76, 0
2, 8640, Note_on_c, 0, 70, 64
2, 8700, Note_on_c, 0, 70, 0
2, 8700, Note_on_c, 0, 71, 64
2, 8760, Note_on_c, 0, 71, 0
2, 8760, Note_on_c, 0, 70, 64
2, 8820, Note_on_c, 0, 70, 0
2, 8820, Note_on_c, 0, 71, 64
2, 8880, Note_on_c, 0, 71, 0
2, 8880, Note_on_c, 0, 68, 0
2, 8880, Note_on_c, 0, 67, 64
2, 8880, Note_on_c, 0, 73, 64
2, 8940, Note_on_c, 0, 73, 0
2, 8940, Note_on_c, 0, 70, 64
2, 9000, Note_on_c, 0, 70, 0
2, 9000, Note_on_c, 0, 71, 64
2, 9060, Note_on_c, 0, 71, 0
2, 9060, Note_on_c, 0, 73, 64
2, 9120, Note_on_c, 0, 73, 0
2, 9120, Note_on_c, 0, 67, 0
2, 9120, Note_on_c, 0, 68, 64
2, 9120, Note_on_c, 0, 71, 64
2, 9240, Note_on_c, 0, 71, 0
2, 9240, Note_on_c, 0, 75, 64
2, 9360, Note_on_c, 0, 75, 0
2, 9360, Note_on_c, 0, 68, 0
2, 9360, Note_on_c, 0, 80, 64
2, 9480, Note_on_c, 0, 80, 0
2, 9480, Note_on_c, 0, 78, 64
2, 9600, Note_on_c, 0, 78, 0
2, 9600, Note_on_c, 0, 77, 64
2, 9660, Note_on_c, 0, 73, 64
2, 9720, Note_on_c, 0, 73, 0
2, 9720, Note_on_c, 0, 71, 64
2, 9780, Note_on_c, 0, 71, 0
2, 9780, Note_on_c, 0, 73, 64
2, 9840, Note_on_c, 0, 73, 0
2, 9840, Note_on_c, 0, 74, 64
2, 9900, Note_on_c, 0, 74, 0
2, 9900, Note_on_c, 0, 71, 64
2, 9960, Note_on_c, 0, 71, 0
2, 9960, Note_on_c, 0, 73, 64
2, 10020, Note_on_c, 0, 73, 0
2, 10020, Note_on_c, 0, 74, 64
2, 10080, Note_on_c, 0, 74, 0
2, 10080, Note_on_c, 0, 77, 0
2, 10080, Note_on_c, 0, 69, 64
2, 10200, Note_on_c, 0, 73, 64
2, 10320, Note_on_c, 0, 73, 0
2, 10320, Note_on_c, 0, 78, 64
2, 10440, Note_on_c, 0, 78, 0
2, 10440, Note_on_c, 0, 76, 64
2, 10560, Note_on_c, 0, 76, 0
2, 10560, Note_on_c, 0, 69, 0
2, 10560, Note_on_c, 0, 75, 64
2, 10620, Note_on_c, 0, 69, 64
2, 10680, Note_on_c, 0, 69, 0
2, 10680, Note_on_c, 0, 68, 64
2, 10740, Note_on_c, 0, 68, 0
2, 10740, Note_on_c, 0, 69, 64
2, 10800, Note_on_c, 0, 69, 0
2, 10800, Note_on_c, 0, 71, 64
2, 10860, Note_on_c, 0, 71, 0
2, 10860, Note_on_c, 0, 66, 64
2, 10920, Note_on_c, 0, 66, 0
2, 10920, Note_on_c, 0, 68, 64
2, 10980, Note_on_c, 0, 68, 0
2, 10980, Note_on_c, 0, 69, 64
2, 11040, Note_on_c, 0, 69, 0
2, 11040, Note_on_c, 0, 75, 0
2, 11040, Note_on_c, 0, 68, 64
2, 11040, Note_on_c, 0, 76, 64
2, 11280, Note_on_c, 0, 68, 0
2, 11280, Note_on_c, 0, 70, 64
2, 11400, Note_on_c, 0, 70, 0
2, 11400, Note_on_c, 0, 71, 64
2, 11520, Note_on_c, 0, 71, 0
2, 11520, Note_on_c, 0, 70, 64
2, 11580, Note_on_c, 0, 76, 0
2, 11580, Note_on_c, 0, 73, 64
2, 11640, Note_on_c, 0, 73, 0
2, 11640, Note_on_c, 0, 71, 64
2, 11700, Note_on_c, 0, 71, 0
2, 11700, Note_on_c, 0, 73, 64
2, 11760, Note_on_c, 0, 73, 0
2, 11760, Note_on_c, 0, 70, 0
2, 11760, Note_on_c, 0, 69, 64
2, 11760, Note_on_c, 0, 75, 64
2, 11820, Note_on_c, 0, 75, 0
2, 11820, Note_on_c, 0, 71, 64
2, 11880, Note_on_c, 0, 71, 0
2, 11880, Note_on_c, 0, 73, 64
2, 11940, Note_on_c, 0, 73, 0
2, 11940, Note_on_c, 0, 75, 64
2, 12000, Note_on_c, 0, 69, 0
2, 12000, Note_on_c, 0, 68, 64
2, 12240, Note_on_c, 0, 75, 0
2, 12240, Note_on_c, 0, 73, 64
2, 12360, Note_on_c, 0, 73, 0
2, 12360, Note_on_c, 0, 71, 64
2, 12480, Note_on_c, 0, 71, 0
2, 12480, Note_on_c, 0, 70, 64
2, 12600, Note_on_c, 0, 68, 0
2, 12600, Note_on_c, 0, 66, 64
2, 12720, Note_on_c, 0, 66, 0
2, 12720, Note_on_c, 0, 70, 0
2, 12720, Note_on_c, 0, 64, 64
2, 12720, Note_on_c, 0, 71, 64
2, 12840, Note_on_c, 0, 64, 0
2, 12840, Note_on_c, 0, 63, 64
2, 12960, Note_on_c, 0, 63, 0
2, 12960, Note_on_c, 0, 64, 64
2, 13020, Note_on_c, 0, 64, 0
2, 13020, Note_on_c, 0, 63, 64
2, 13080, Note_on_c, 0, 63, 0
2, 13080, Note_on_c, 0, 61, 64
2, 13140, Note_on_c, 0, 61, 0
2, 13140, Note_on_c, 0, 63, 64
2, 13200, Note_on_c, 0, 63, 0
2, 13200, Note_on_c, 0, 71, 0
2, 13200, Note_on_c, 0, 64, 64
2, 13200, Note_on_c, 0, 70, 64
2, 13260, Note_on_c, 0, 64, 0
2, 13260, Note_on_c, 0, 61, 64
2, 13320, Note_on_c, 0, 61, 0
2, 13320, Note_on_c, 0, 63, 64
2, 13380, Note_on_c, 0, 63, 0
2, 13380, Note_on_c, 0, 64, 64
2, 13440, Note_on_c, 0, 64, 0
2, 13440, Note_on_c, 0, 70, 0
2, 13440, Note_on_c, 0, 63, 64
2, 13500, Note_on_c, 0, 69, 64
2, 13560, Note_on_c, 0, 69, 0
2, 13560, Note_on_c, 0, 71, 64
2, 13620, Note_on_c, 0, 71, 0
2, 13620, Note_on_c, 0, 69, 64
2, 13680, Note_on_c, 0, 69, 0
2, 13680, Note_on_c, 0, 63, 0
2, 13680, Note_on_c, 0, 64, 64
2, 13680, Note_on_c, 0, 68, 64
2, 13740, Note_on_c, 0, 68, 0
2, 13740, Note_on_c, 0, 71, 64
2, 13800, Note_on_c, 0, 71, 0
2, 13800, Note_on_c, 0, 69, 64
2, 13860, Note_on_c, 0, 69, 0
2, 13860, Note_on_c, 0, 68, 64
2, 13920, Note_on_c, 0, 68, 0
2, 13920, Note_on_c, 0, 66, 64
2, 14160, Note_on_c, 0, 64, 0
2, 14160, Note_on_c, 0, 63, 64
2, 14280, Note_on_c, 0, 63, 0
2, 14280, Note_on_c, 0, 61, 64
2, 14400, Note_on_c, 0, 61, 0
2, 14450, Note_on_c, 0, 66, 0
2, 14460, Note_on_c, 0, 66, 64
2, 14520, Note_on_c, 0, 66, 0
2, 14520, Note_on_c, 0, 68, 64
2, 14580, Note_on_c, 0, 68, 0
2, 14580, Note_on_c, 0, 66, 64
2, 14640, Note_on_c, 0, 66, 0
2, 14640, Note_on_c, 0, 65, 64
2, 14700, Note_on_c, 0, 65, 0
2, 14700, Note_on_c, 0, 68, 64
2, 14760, Note_on_c, 0, 68, 0
2, 14760, Note_on_c, 0, 66, 64
2, 14820, Note_on_c, 0, 66, 0
2, 14820, Note_on_c, 0, 65, 64
2, 14880, Note_on_c, 0, 71, 64
2, 14940, Note_on_c, 0, 71, 0
2, 14940, Note_on_c, 0, 73, 64
2, 15000, Note_on_c, 0, 73, 0
2, 15000, Note_on_c, 0, 71, 64
2, 15060, Note_on_c, 0, 71, 0
2, 15060, Note_on_c, 0, 73, 64
2, 15120, Note_on_c, 0, 73, 0
2, 15120, Note_on_c, 0, 74, 64
2, 15180, Note_on_c, 0, 74, 0
2, 15180, Note_on_c, 0, 71, 64
2, 15240, Note_on_c, 0, 71, 0
2, 15240, Note_on_c, 0, 73, 64
2, 15300, Note_on_c, 0, 73, 0
2, 15300, Note_on_c, 0, 74, 64
2, 15360, Note_on_c, 0, 74, 0
2, 15360, Note_on_c, 0, 65, 0
2, 15360, Note_on_c, 0, 66, 64
2, 15360, Note_on_c, 0, 69, 64
2, 15600, Note_on_c, 0, 69, 0
2, 15600, Note_on_c, 0, 66, 0
2, 15600, Note_on_c, 0, 71, 64
2, 15600, Note_on_c, 0, 68, 64
2, 15840, Note_on_c, 0, 68, 0
2, 15840, Note_on_c, 0, 71, 0
2, 15840, Note_on_c, 0, 70, 64
2, 15840, Note_on_c, 0, 73, 64
2, 16080, Note_on_c, 0, 73, 0
2, 16080, Note_on_c, 0, 70, 0
2, 16080, Note_on_c, 0, 71, 64
2, 16080, Note_on_c, 0, 75, 64
2, 16320, Note_on_c, 0, 75, 0
2, 16320, Note_on_c, 0, 71, 0
2, 16320, Note_on_c, 0, 73, 64
2, 16380, Note_on_c, 0, 76, 64
2, 16440, Note_on_c, 0, 76, 0
2, 16440, Note_on_c, 0, 78, 64
2, 16500, Note_on_c, 0, 78, 0
2, 16500, Note_on_c, 0, 76, 64
2, 16560, Note_on_c, 0, 76, 0
2, 16560, Note_on_c, 0, 73, 0
2, 16560, Note_on_c, 0, 71, 64
2, 16560, Note_on_c, 0, 75, 64
2, 16620, Note_on_c, 0, 75, 0
2, 16620, Note_on_c, 0, 78, 64
2, 16680, Note_on_c, 0, 78, 0
2, 16680, Note_on_c, 0, 76, 64
2, 16740, Note_on_c, 0, 76, 0
2, 16740, Note_on_c, 0, 75, 64
2, 16800, Note_on_c, 0, 75, 0
2, 16800, Note_on_c, 0, 71, 0
2, 16800, Note_on_c, 0, 73, 64
2, 16860, Note_on_c, 0, 64, 64
2, 16920, Note_on_c, 0, 64, 0
2, 16920, Note_on_c, 0, 66, 64
2, 16980, Note_on_c, 0, 66, 0
2, 16980, Note_on_c, 0, 64, 64
2, 17040, Note_on_c, 0, 64, 0
2, 17040, Note_on_c, 0, 73, 0
2, 17040, Note_on_c, 0, 63, 64
2, 17040, Note_on_c, 0, 71, 64
2, 17100, Note_on_c, 0, 63, 0
2, 17100, Note_on_c, 0, 66, 64
2, 17160, Note_on_c, 0, 66, 0
2, 17160, Note_on_c, 0, 64, 64
2, 17220, Note_on_c, 0, 64, 0
2, 17220, Note_on_c, 0, 63, 64
2, 17280, Note_on_c, 0, 63, 0
2, 17280, Note_on_c, 0, 61, 64
2, 17520, Note_on_c, 0, 71, 0
2, 17520, Note_on_c, 0, 66, 64
2, 17520, Note_on_c, 0, 70, 64
2, 17760, Note_on_c, 0, 70, 0
2, 17760, Note_on_c, 0, 66, 0
2, 17760, Note_on_c, 0, 61, 0
2, 17760, Note_on_c, 0, 59, 64
2, 17760, Note_on_c, 0, 66, 64
2, 17760, Note_on_c, 0, 71, 64
2, 18240, Note_on_c, 0, 71, 0
2, 18240, Note_on_c, 0, 66, 0
2, 18240, Note_on_c, 0, 59, 0
2, 18240, End_track
3, 0, Start_track
3, 0, Title_t, "LH B"
3, 0, Program_c, 1, 0
3, 0, Note_on_c, 1, 59, 64
3, 0, Note_on_c, 1, 63, 64
3, 240, Note_on_c, 1, 63, 0
3, 240, Note_on_c, 1, 64, 64
3, 480, Note_on_c, 1, 64, 0
3, 480, Note_on_c, 1, 66, 64
3, 720, Note_on_c, 1, 66, 0
3, 720, Note_on_c, 1, 68, 64
3, 960, Note_on_c, 1, 68, 0
3, 960, Note_on_c, 1, 70, 64
3, 1920, Note_on_c, 1, 70, 0
3, 1980, Note_on_c, 1, 59, 0
3, 1980, Note_on_c, 1, 56, 64
3, 2040, Note_on_c, 1, 56, 0
3, 2040, Note_on_c, 1, 54, 64
3, 2100, Note_on_c, 1, 54, 0
3, 2100, Note_on_c, 1, 56, 64
3, 2160, Note_on_c, 1, 56, 0
3, 2160, Note_on_c, 1, 58, 64
3, 2220, Note_on_c, 1, 58, 0
3, 2220, Note_on_c, 1, 54, 64
3, 2280, Note_on_c, 1, 54, 0
3, 2280, Note_on_c, 1, 56, 64
3, 2340, Note_on_c, 1, 56, 0
3, 2340, Note_on_c, 1, 58, 64
3, 2400, Note_on_c, 1, 58, 0
3, 2400, Note_on_c, 1, 51, 64
3, 2640, Note_on_c, 1, 51, 0
3, 2640, Note_on_c, 1, 56, 64
3, 2880, Note_on_c, 1, 56, 0
3, 2880, Note_on_c, 1, 49, 64
3, 3120, Note_on_c, 1, 49, 0
3, 3120, Note_on_c, 1, 54, 64
3, 3360, Note_on_c, 1, 54, 0
3, 3360, Note_on_c, 1, 47, 64
3, 3420, Note_on_c, 1, 47, 0
3, 3420, Note_on_c, 1, 58, 64
3, 3480, Note_on_c, 1, 58, 0
3, 3480, Note_on_c, 1, 56, 64
3, 3540, Note_on_c, 1, 56, 0
3, 3540, Note_on_c, 1, 58, 64
3, 3600, Note_on_c, 1, 58, 0
3, 3600, Note_on_c, 1, 59, 64
3, 3660, Note_on_c, 1, 59, 0
3, 3660, Note_on_c, 1, 56, 64
3, 3720, Note_on_c, 1, 56, 0
3, 3720, Note_on_c, 1, 58, 64
3, 3780, Note_on_c, 1, 58, 0
3, 3780, Note_on_c, 1, 59, 64
3, 3840, Note_on_c, 1, 59, 0
3, 3840, Note_on_c, 1, 49, 64
3, 3900, Note_on_c, 1, 49, 0
3, 3900, Note_on_c, 1, 51, 64
3, 3960, Note_on_c, 1, 51, 0
3, 3960, Note_on_c, 1, 47, 64
3, 4020, Note_on_c, 1, 47, 0
3, 4020, Note_on_c, 1, 49, 64
3, 4080, Note_on_c, 1, 49, 0
3, 4080, Note_on_c, 1, 51, 64
3, 4140, Note_on_c, 1, 51, 0
3, 4140, Note_on_c, 1, 47, 64
3, 4200, Note_on_c, 1, 47, 0
3, 4200, Note_on_c, 1, 49, 64
3, 4260, Note_on_c, 1, 49, 0
3, 4260, Note_on_c, 1, 51, 64
3, 4320, Note_on_c, 1, 51, 0
3, 4320, Note_on_c, 1, 44, 64
3, 4560, Note_on_c, 1, 44, 0
3, 4560, Note_on_c, 1, 49, 64
3, 4800, Note_on_c, 1, 49, 0
3, 4800, Note_on_c, 1, 42, 64
3, 4860, Note_on_c, 1, 42, 0
3, 4860, Note_on_c, 1, 49, 64
3, 4920, Note_on_c, 1, 49, 0
3, 4920, Note_on_c, 1, 47, 64
3, 4980, Note_on_c, 1, 47, 0
3, 4980, Note_on_c, 1, 49, 64
3, 5040, Note_on_c, 1, 49, 0
3, 5040, Note_on_c, 1, 51, 64
3, 5100, Note_on_c, 1, 51, 0
3, 5100, Note_on_c, 1, 47, 64
3, 5160, Note_on_c, 1, 47, 0
3, 5160, Note_on_c, 1, 49, 64
3, 5220, Note_on_c, 1, 49, 0
3, 5220, Note_on_c, 1, 51, 64
3, 5280, Note_on_c, 1, 51, 0
3, 5280, Note_on_c, 1, 42, 64
3, 5340, Note_on_c, 1, 42, 0
3, 5340, Note_on_c, 1, 46, 64
3, 5400, Note_on_c, 1, 46, 0
3, 5400, Note_on_c, 1, 44, 64
3, 5460, Note_on_c, 1, 44, 0
3, 5460, Note_on_c, 1, 46, 64
3, 5520, Note_on_c, 1, 46, 0
3, 5520, Note_on_c, 1, 47, 64
3, 5580, Note_on_c, 1, 47, 0
3, 5580, Note_on_c, 1, 44, 64
3, 5640, Note_on_c, 1, 44, 0
3, 5640, Note_on_c, 1, 46, 64
3, 5700, Note_on_c, 1, 46, 0
3, 5700, Note_on_c, 1, 47, 64
3, 5760, Note_on_c, 1, 47, 0
3, 5760, Note_on_c, 1, 40, 64
3, 6000, Note_on_c, 1, 40, 0
3, 6000, Note_on_c, 1, 52, 64
3, 6240, Note_on_c, 1, 52, 0
3, 6240, Note_on_c, 1, 51, 64
3, 6960, Note_on_c, 1, 51, 0
3, 6960, Note_on_c, 1, 49, 64
3, 7200, Note_on_c, 1, 49, 0
3, 7200, Note_on_c, 1, 47, 64
3, 7320, Note_on_c, 1, 47, 0
3, 7320, Note_on_c, 1, 46, 64
3, 7440, Note_on_c, 1, 46, 0
3, 7440, Note_on_c, 1, 44, 64
3, 7740, Note_on_c, 1, 44, 0
3, 7740, Note_on_c, 1, 56, 64
3, 7800, Note_on_c, 1, 56, 0
3, 7800, Note_on_c, 1, 55, 64
3, 7860, Note_on_c, 1, 55, 0
3, 7860, Note_on_c, 1, 56, 64
3, 7920, Note_on_c, 1, 56, 0
3, 7920, Note_on_c, 1, 58, 64
3, 7980, Note_on_c, 1, 58, 0
3, 7980, Note_on_c, 1, 55, 64
3, 8040, Note_on_c, 1, 55, 0
3, 8040, Note_on_c, 1, 56, 64
3, 8100, Note_on_c, 1, 56, 0
3, 8100, Note_on_c, 1, 58, 64
3, 8160, Note_on_c, 1, 58, 0
3, 8160, Note_on_c, 1, 52, 64
3, 8280, Note_on_c, 1, 52, 0
3, 8280, Note_on_c, 1, 64, 64
3, 8400, Note_on_c, 1, 64, 0
3, 8400, Note_on_c, 1, 63, 64
3, 8520, Note_on_c, 1, 63, 0
3, 8520, Note_on_c, 1, 61, 64
3, 8640, Note_on_c, 1, 61, 0
3, 8640, Note_on_c, 1, 63, 64
3, 8760, Note_on_c, 1, 63, 0
3, 8760, Note_on_c, 1, 61, 64
3, 8880, Note_on_c, 1, 61, 0
3, 8880, Note_on_c, 1, 63, 64
3, 9000, Note_on_c, 1, 63, 0
3, 9000, Note_on_c, 1, 51, 64
3, 9120, Note_on_c, 1, 51, 0
3, 9120, Note_on_c, 1, 56, 64
3, 9180, Note_on_c, 1, 56, 0
3, 9180, Note_on_c, 1, 58, 64
3, 9240, Note_on_c, 1, 58, 0
3, 9240, Note_on_c, 1, 56, 64
3, 9300, Note_on_c, 1, 56, 0
3, 9300, Note_on_c, 1, 58, 64
3, 9360, Note_on_c, 1, 58, 0
3, 9360, Note_on_c, 1, 59, 64
3, 9420, Note_on_c, 1, 59, 0
3, 9420, Note_on_c, 1, 56, 64
3, 9480, Note_on_c, 1, 56, 0
3, 9480, Note_on_c, 1, 58, 64
3, 9540, Note_on_c, 1, 58, 0
3, 9540, Note_on_c, 1, 59, 64
3, 9600, Note_on_c, 1, 59, 0
3, 9600, Note_on_c, 1, 49, 64
3, 9720, Note_on_c, 1, 49, 0
3, 9720, Note_on_c, 1, 61, 64
3, 9780, Note_on_c, 1, 61, 0
3, 9780, Note_on_c, 1, 59, 64
3, 9840, Note_on_c, 1, 59, 0
3, 9840, Note_on_c, 1, 57, 64
3, 9960, Note_on_c, 1, 57, 0
3, 9960, Note_on_c, 1, 56, 64
3, 10080, Note_on_c, 1, 56, 0
3, 10080, Note_on_c, 1, 54, 64
3, 10140, Note_on_c, 1, 54, 0
3, 10140, Note_on_c, 1, 56, 64
3, 10200, Note_on_c, 1, 56, 0
3, 10200, Note_on_c, 1, 54, 64
3, 10260, Note_on_c, 1, 54, 0
3, 10260, Note_on_c, 1, 56, 64
3, 10320, Note_on_c, 1, 56, 0
3, 10320, Note_on_c, 1, 57, 64
3, 10380, Note_on_c, 1, 57, 0
3, 10380, Note_on_c, 1, 54, 64
3, 10440, Note_on_c, 1, 54, 0
3, 10440, Note_on_c, 1, 56, 64
3, 10500, Note_on_c, 1, 56, 0
3, 10500, Note_on_c, 1, 57, 64
3, 10560, Note_on_c, 1, 57, 0
3, 10560, Note_on_c, 1, 47, 64
3, 10680, Note_on_c, 1, 47, 0
3, 10680, Note_on_c, 1, 59, 64
3, 10740, Note_on_c, 1, 59, 0
3, 10740, Note_on_c, 1, 57, 64
3, 10800, Note_on_c, 1, 57, 0
3, 10800, Note_on_c, 1, 56, 64
3, 10920, Note_on_c, 1, 56, 0
3, 10920, Note_on_c, 1, 54, 64
3, 11040, Note_on_c, 1, 54, 0
3, 11040, Note_on_c, 1, 52, 64
3, 11100, Note_on_c, 1, 52, 0
3, 11100, Note_on_c, 1, 51, 64
3, 11160, Note_on_c, 1, 51, 0
3, 11160, Note_on_c, 1, 52, 64
3, 11220, Note_on_c, 1, 52, 0
3, 11220, Note_on_c, 1, 51, 64
3, 11280, Note_on_c, 1, 51, 0
3, 11280, Note_on_c, 1, 49, 64
3, 11340, Note_on_c, 1, 49, 0
3, 11340, Note_on_c, 1, 52, 64
3, 11400, Note_on_c, 1, 52, 0
3, 11400, Note_on_c, 1, 51, 64
3, 11460, Note_on_c, 1, 51, 0
3, 11460, Note_on_c, 1, 49, 64
3, 11520, Note_on_c, 1, 49, 0
3, 11520, Note_on_c, 1, 54, 64
3, 11760, Note_on_c, 1, 54, 0
3, 11760, Note_on_c, 1, 47, 64
3, 12000, Note_on_c, 1, 47, 0
3, 12000, Note_on_c, 1, 52, 64
3, 12060, Note_on_c, 1, 52, 0
3, 12060, Note_on_c, 1, 63, 64
3, 12120, Note_on_c, 1, 63, 0
3, 12120, Note_on_c, 1, 61, 64
3, 12180, Note_on_c, 1, 61, 0
3, 12180, Note_on_c, 1, 63, 64
3, 12240, Note_on_c, 1, 63, 0
3, 12240, Note_on_c, 1, 64, 64
3, 12300, Note_on_c, 1, 64, 0
3, 12300, Note_on_c, 1, 61, 64
3, 12360, Note_on_c, 1, 61, 0
3, 12360, Note_on_c, 1, 63, 64
3, 12420, Note_on_c, 1, 63, 0
3, 12420, Note_on_c, 1, 64, 64
3, 12480, Note_on_c, 1, 64, 0
3, 12480, Note_on_c, 1, 54, 64
3, 12540, Note_on_c, 1, 54, 0
3, 12540, Note_on_c, 1, 56, 64
3, 12600, Note_on_c, 1, 56, 0
3, 12600, Note_on_c, 1, 52, 64
3, 12660, Note_on_c, 1, 52, 0
3, 12660, Note_on_c, 1, 54, 64
3, 12720, Note_on_c, 1, 54, 0
3, 12720, Note_on_c, 1, 56, 64
3, 12780, Note_on_c, 1, 56, 0
3, 12780, Note_on_c, 1, 52, 64
3, 12840, Note_on_c, 1, 52, 0
3, 12840, Note_on_c, 1, 54, 64
3, 12900, Note_on_c, 1, 54, 0
3, 12900, Note_on_c, 1, 56, 64
3, 12960, Note_on_c, 1, 56, 0
3, 12960, Note_on_c, 1, 49, 64
3, 13200, Note_on_c, 1, 49, 0
3, 13200, Note_on_c, 1, 54, 64
3, 13440, Note_on_c, 1, 54, 0
3, 13440, Note_on_c, 1, 47, 64
3, 13980, Note_on_c, 1, 47, 0
3, 13980, Note_on_c, 1, 49, 64
3, 14040, Note_on_c, 1, 49, 0
3, 14040, Note_on_c, 1, 51, 64
3, 14100, Note_on_c, 1, 51, 0
3, 14100, Note_on_c, 1, 52, 64
3, 14160, Note_on_c, 1, 52, 0
3, 14160, Note_on_c, 1, 54, 64
3, 14220, Note_on_c, 1, 54, 0
3, 14220, Note_on_c, 1, 57, 64
3, 14280, Note_on_c, 1, 57, 0
3, 14280, Note_on_c, 1, 56, 64
3, 14340, Note_on_c, 1, 56, 0
3, 14340, Note_on_c, 1, 54, 64
3, 14400, Note_on_c, 1, 54, 0
3, 14400, Note_on_c, 1, 56, 64
3, 14400, Note_on_c, 1, 59, 64
3, 15360, Note_on_c, 1, 59, 0
3, 15360, Note_on_c, 1, 56, 0
3, 15360, Note_on_c, 1, 54, 64
3, 15420, Note_on_c, 1, 64, 64
3, 15480, Note_on_c, 1, 64, 0
3, 15480, Note_on_c, 1, 66, 64
3, 15540, Note_on_c, 1, 66, 0
3, 15540, Note_on_c, 1, 64, 64
3, 15600, Note_on_c, 1, 64, 0
3, 15600, Note_on_c, 1, 63, 64
3, 15660, Note_on_c, 1, 63, 0
3, 15660, Note_on_c, 1, 66, 64
3, 15720, Note_on_c, 1, 66, 0
3, 15720, Note_on_c, 1, 64, 64
3, 15780, Note_on_c, 1, 64, 0
3, 15780, Note_on_c, 1, 63, 64
3, 15840, Note_on_c, 1, 63, 0
3, 15900, Note_on_c, 1, 61, 64
3, 15960, Note_on_c, 1, 61, 0
3, 15960, Note_on_c, 1, 63, 64
3, 16020, Note_on_c, 1, 63, 0
3, 16020, Note_on_c, 1, 61, 64
3, 16080, Note_on_c, 1, 61, 0
3, 16080, Note_on_c, 1, 59, 64
3, 16140, Note_on_c, 1, 59, 0
3, 16140, Note_on_c, 1, 63, 64
3, 16200, Note_on_c, 1, 63, 0
3, 16200, Note_on_c, 1, 61, 64
3, 16260, Note_on_c, 1, 61, 0
3, 16260, Note_on_c, 1, 59, 64
3, 16320, Note_on_c, 1, 59, 0
3, 16320, Note_on_c, 1, 57, 64
3, 16370, Note_on_c, 1, 54, 0
3, 16380, Note_on_c, 1, 54, 64
3, 16440, Note_on_c, 1, 54, 0
3, 16440, Note_on_c, 1, 52, 64
3, 16500, Note_on_c, 1, 52, 0
3, 16500, Note_on_c, 1, 54, 64
3, 16560, Note_on_c, 1, 54, 0
3, 16560, Note_on_c, 1, 57, 0
3, 16560, Note_on_c, 1, 56, 64
3, 16560, Note_on_c, 1, 59, 64
3, 16620, Note_on_c, 1, 56, 0
3, 16620, Note_on_c, 1, 52, 64
3, 16680, Note_on_c, 1, 52, 0
3, 16680, Note_on_c, 1, 54, 64
3, 16740, Note_on_c, 1, 54, 0
3, 16740, Note_on_c, 1, 56, 64
3, 16800, Note_on_c, 1, 56, 0
3, 16800, Note_on_c, 1, 59, 0
3, 16800, Note_on_c, 1, 54, 64
3, 16800, Note_on_c, 1, 46, 64
3, 17040, Note_on_c, 1, 46, 0
3, 17040, Note_on_c, 1, 47, 64
3, 17280, Note_on_c, 1, 47, 0
3, 17280, Note_on_c, 1, 42, 64
3, 17340, Note_on_c, 1, 54, 0
3, 17340, Note_on_c, 1, 51, 64
3, 17400, Note_on_c, 1, 51, 0
3, 17400, Note_on_c, 1, 49, 64
3, 17460, Note_on_c, 1, 49, 0
3, 17460, Note_on_c, 1, 51, 64
3, 17520, Note_on_c, 1, 51, 0
3, 17520, Note_on_c, 1, 52, 64
3, 17580, Note_on_c, 1, 52, 0
3, 17580, Note_on_c, 1, 49, 64
3, 17640, Note_on_c, 1, 49, 0
3, 17640, Note_on_c, 1, 51, 64
3, 17700, Note_on_c, 1, 51, 0
3, 17700, Note_on_c, 1, 52, 64
3, 17760, Note_on_c, 1, 52, 0
3, 17760, Note_on_c, 1, 42, 0
3, 17760, Note_on_c, 1, 47, 64
3, 17760, Note_on_c, 1, 51, 64
3, 18240, Note_on_c, 1, 51, 0
3, 18240, Note_on_c, 1, 47, 0
3, 18240, End_track
4, 0, Start_track
4, 0, End_track
0, 0, End_of_file
