0, 0, Header, 1, 6, 120
1, 0, Start_track
1, 0, Title_t, "untitled"
1, 0, Time_signature, 3, 2, 24, 8
1, 0, Key_signature, 1, "major"
1, 0, Tempo, 461538
1, 21600, Tempo, 461538
1, 21648, Tempo, 465116
1, 21696, Tempo, 468750
1, 21744, Tempo, 472441
1, 21792, Tempo, 476190
1, 21840, Tempo, 480000
1, 21888, Tempo, 483871
1, 21936, Tempo, 487805
1, 21984, Tempo, 491803
1, 22032, Tempo, 495868
1, 22080, Tempo, 500000
1, 22128, Tempo, 504202
1, 22176, Tempo, 508475
1, 22224, Tempo, 512821
1, 22272, Tempo, 517241
1, 22320, Tempo, 521739
1, 22368, Tempo, 526316
1, 22416, Tempo, 530973
1, 22464, Tempo, 535714
1, 22512, Tempo, 540541
1, 22560, Tempo, 545455
1, 22608, Tempo, 550459
1, 22656, Tempo, 555556
1, 22704, Tempo, 560748
1, 22752, Tempo, 566038
1, 22800, Tempo, 571429
1, 22848, Tempo, 576923
1, 22896, Tempo, 582524
1, 22944, Tempo, 588235
1, 22992, Tempo, 594059
1, 23040, Tempo, 600000
1, 23040, End_track
2, 0, Start_track
2, 0, Title_t, "right"
2, 0, Control_c, 0, 0, 8
2, 0, Program_c, 0, 6
2, 0, Control_c, 0, 7, 100
2, 0, Control_c, 0, 10, 32
2, 0, Note_on_c, 0, 74, 100
2, 110, Note_on_c, 0, 74, 0
2, 120, Note_on_c, 0, 67, 100
2, 180, Note_on_c, 0, 67, 0
2, 180, Note_on_c, 0, 69, 100
2, 240, Note_on_c, 0, 69, 0
2, 240, Note_on_c, 0, 71, 100
2, 300, Note_on_c, 0, 71, 0
2, 300, Note_on_c, 0, 72, 100
2, 360, Note_on_c, 0, 72, 0
2, 360, Note_on_c, 0, 74, 100
2, 480, Note_on_c, 0, 74, 0
2, 480, Note_on_c, 0, 67, 100
2, 540, Note_on_c, 0, 67, 0
2, 600, Note_on_c, 0, 67, 100
2, 660, Note_on_c, 0, 67, 0
2, 720, Note_on_c, 0, 76, 100
2, 840, Note_on_c, 0, 76, 0
2, 840, Note_on_c, 0, 72, 100
2, 850, Note_on_c, 0, 72, 0
2, 850, Note_on_c, 0, 71, 100
2, 860, Note_on_c, 0, 71, 0
2, 860, Note_on_c, 0, 72, 100
2, 900, Note_on_c, 0, 72, 0
2, 900, Note_on_c, 0, 74, 100
2, 960, Note_on_c, 0, 74, 0
2, 960, Note_on_c, 0, 76, 100
2, 1020, Note_on_c, 0, 76, 0
2, 1020, Note_on_c, 0, 78, 100
2, 1080, Note_on_c, 0, 78, 0
2, 1080, Note_on_c, 0, 79, 100
2, 1200, Note_on_c, 0, 79, 0
2, 1200, Note_on_c, 0, 67, 100
2, 1260, Note_on_c, 0, 67, 0
2, 1320, Note_on_c, 0, 67, 100
2, 1380, Note_on_c, 0, 67, 0
2, 1440, Note_on_c, 0, 72, 100
2, 1455, Note_on_c, 0, 72, 0
2, 1455, Note_on_c, 0, 71, 100
2, 1470, Note_on_c, 0, 71, 0
2, 1470, Note_on_c, 0, 72, 100
2, 1551, Note_on_c, 0, 72, 0
2, 1560, Note_on_c, 0, 74, 100
2, 1620, Note_on_c, 0, 74, 0
2, 1620, Note_on_c, 0, 72, 100
2, 1680, Note_on_c, 0, 72, 0
2, 1680, Note_on_c, 0, 71, 100
2, 1740, Note_on_c, 0, 71, 0
2, 1740, Note_on_c, 0, 69, 100
2, 1800, Note_on_c, 0, 69, 0
2, 1800, Note_on_c, 0, 71, 100
2, 1910, Note_on_c, 0, 71, 0
2, 1920, Note_on_c, 0, 72, 100
2, 1980, Note_on_c, 0, 72, 0
2, 1980, Note_on_c, 0, 71, 100
2, 2040, Note_on_c, 0, 71, 0
2, 2040, Note_on_c, 0, 69, 100
2, 2100, Note_on_c, 0, 69, 0
2, 2100, Note_on_c, 0, 67, 100
2, 2160, Note_on_c, 0, 67, 0
2, 2160, Note_on_c, 0, 66, 100
2, 2270, Note_on_c, 0, 66, 0
2, 2280, Note_on_c, 0, 67, 100
2, 2340, Note_on_c, 0, 67, 0
2, 2340, Note_on_c, 0, 69, 100
2, 2400, Note_on_c, 0, 69, 0
2, 2400, Note_on_c, 0, 71, 100
2, 2460, Note_on_c, 0, 71, 0
2, 2460, Note_on_c, 0, 67, 100
2, 2510, Note_on_c, 0, 67, 0
2, 2520, Note_on_c, 0, 71, 100
2, 2640, Note_on_c, 0, 71, 0
2, 2640, Note_on_c, 0, 69, 100
2, 2870, Note_on_c, 0, 69, 0
2, 2880, Note_on_c, 0, 74, 100
2, 2990, Note_on_c, 0, 74, 0
2, 3000, Note_on_c, 0, 67, 100
2, 3060, Note_on_c, 0, 67, 0
2, 3060, Note_on_c, 0, 69, 100
2, 3120, Note_on_c, 0, 69, 0
2, 3120, Note_on_c, 0, 71, 100
2, 3180, Note_on_c, 0, 71, 0
2, 3180, Note_on_c, 0, 72, 100
2, 3240, Note_on_c, 0, 72, 0
2, 3240, Note_on_c, 0, 74, 100
2, 3360, Note_on_c, 0, 74, 0
2, 3360, Note_on_c, 0, 67, 100
2, 3420, Note_on_c, 0, 67, 0
2, 3480, Note_on_c, 0, 67, 100
2, 3540, Note_on_c, 0, 67, 0
2, 3600, Note_on_c, 0, 76, 100
2, 3720, Note_on_c, 0, 76, 0
2, 3720, Note_on_c, 0, 72, 100
2, 3730, Note_on_c, 0, 72, 0
2, 3730, Note_on_c, 0, 71, 100
2, 3740, Note_on_c, 0, 71, 0
2, 3740, Note_on_c, 0, 72, 100
2, 3780, Note_on_c, 0, 72, 0
2, 3780, Note_on_c, 0, 74, 100
2, 3840, Note_on_c, 0, 74, 0
2, 3840, Note_on_c, 0, 76, 100
2, 3900, Note_on_c, 0, 76, 0
2, 3900, Note_on_c, 0, 78, 100
2, 3960, Note_on_c, 0, 78, 0
2, 3960, Note_on_c, 0, 79, 100
2, 4080, Note_on_c, 0, 79, 0
2, 4080, Note_on_c, 0, 67, 100
2, 4140, Note_on_c, 0, 67, 0
2, 4200, Note_on_c, 0, 67, 100
2, 4260, Note_on_c, 0, 67, 0
2, 4320, Note_on_c, 0, 72, 100
2, 4335, Note_on_c, 0, 72, 0
2, 4335, Note_on_c, 0, 71, 100
2, 4350, Note_on_c, 0, 71, 0
2, 4350, Note_on_c, 0, 72, 100
2, 4431, Note_on_c, 0, 72, 0
2, 4440, Note_on_c, 0, 74, 100
2, 4500, Note_on_c, 0, 74, 0
2, 4500, Note_on_c, 0, 72, 100
2, 4560, Note_on_c, 0, 72, 0
2, 4560, Note_on_c, 0, 71, 100
2, 4620, Note_on_c, 0, 71, 0
2, 4620, Note_on_c, 0, 69, 100
2, 4680, Note_on_c, 0, 69, 0
2, 4680, Note_on_c, 0, 71, 100
2, 4790, Note_on_c, 0, 71, 0
2, 4800, Note_on_c, 0, 72, 100
2, 4860, Note_on_c, 0, 72, 0
2, 4860, Note_on_c, 0, 71, 100
2, 4920, Note_on_c, 0, 71, 0
2, 4920, Note_on_c, 0, 69, 100
2, 4980, Note_on_c, 0, 69, 0
2, 4980, Note_on_c, 0, 67, 100
2, 5040, Note_on_c, 0, 67, 0
2, 5040, Note_on_c, 0, 69, 100
2, 5150, Note_on_c, 0, 69, 0
2, 5160, Note_on_c, 0, 71, 100
2, 5220, Note_on_c, 0, 71, 0
2, 5220, Note_on_c, 0, 69, 100
2, 5280, Note_on_c, 0, 69, 0
2, 5280, Note_on_c, 0, 67, 100
2, 5340, Note_on_c, 0, 67, 0
2, 5340, Note_on_c, 0, 66, 100
2, 5390, Note_on_c, 0, 66, 0
2, 5400, Note_on_c, 0, 67, 100
2, 5750, Note_on_c, 0, 67, 0
2, 5760, Note_on_c, 0, 74, 100
2, 5870, Note_on_c, 0, 74, 0
2, 5880, Note_on_c, 0, 67, 100
2, 5940, Note_on_c, 0, 67, 0
2, 5940, Note_on_c, 0, 69, 100
2, 6000, Note_on_c, 0, 69, 0
2, 6000, Note_on_c, 0, 71, 100
2, 6060, Note_on_c, 0, 71, 0
2, 6060, Note_on_c, 0, 72, 100
2, 6120, Note_on_c, 0, 72, 0
2, 6120, Note_on_c, 0, 74, 100
2, 6240, Note_on_c, 0, 74, 0
2, 6240, Note_on_c, 0, 67, 100
2, 6300, Note_on_c, 0, 67, 0
2, 6360, Note_on_c, 0, 67, 100
2, 6420, Note_on_c, 0, 67, 0
2, 6480, Note_on_c, 0, 76, 100
2, 6600, Note_on_c, 0, 76, 0
2, 6600, Note_on_c, 0, 72, 100
2, 6610, Note_on_c, 0, 72, 0
2, 6610, Note_on_c, 0, 71, 100
2, 6620, Note_on_c, 0, 71, 0
2, 6620, Note_on_c, 0, 72, 100
2, 6660, Note_on_c, 0, 72, 0
2, 6660, Note_on_c, 0, 74, 100
2, 6720, Note_on_c, 0, 74, 0
2, 6720, Note_on_c, 0, 76, 100
2, 6780, Note_on_c, 0, 76, 0
2, 6780, Note_on_c, 0, 78, 100
2, 6840, Note_on_c, 0, 78, 0
2, 6840, Note_on_c, 0, 79, 100
2, 6960, Note_on_c, 0, 79, 0
2, 6960, Note_on_c, 0, 67, 100
2, 7020, Note_on_c, 0, 67, 0
2, 7080, Note_on_c, 0, 67, 100
2, 7140, Note_on_c, 0, 67, 0
2, 7200, Note_on_c, 0, 72, 100
2, 7215, Note_on_c, 0, 72, 0
2, 7215, Note_on_c, 0, 71, 100
2, 7230, Note_on_c, 0, 71, 0
2, 7230, Note_on_c, 0, 72, 100
2, 7311, Note_on_c, 0, 72, 0
2, 7320, Note_on_c, 0, 74, 100
2, 7380, Note_on_c, 0, 74, 0
2, 7380, Note_on_c, 0, 72, 100
2, 7440, Note_on_c, 0, 72, 0
2, 7440, Note_on_c, 0, 71, 100
2, 7500, Note_on_c, 0, 71, 0
2, 7500, Note_on_c, 0, 69, 100
2, 7560, Note_on_c, 0, 69, 0
2, 7560, Note_on_c, 0, 71, 100
2, 7670, Note_on_c, 0, 71, 0
2, 7680, Note_on_c, 0, 72, 100
2, 7740, Note_on_c, 0, 72, 0
2, 7740, Note_on_c, 0, 71, 100
2, 7800, Note_on_c, 0, 71, 0
2, 7800, Note_on_c, 0, 69, 100
2, 7860, Note_on_c, 0, 69, 0
2, 7860, Note_on_c, 0, 67, 100
2, 7920, Note_on_c, 0, 67, 0
2, 7920, Note_on_c, 0, 66, 100
2, 8030, Note_on_c, 0, 66, 0
2, 8040, Note_on_c, 0, 67, 100
2, 8100, Note_on_c, 0, 67, 0
2, 8100, Note_on_c, 0, 69, 100
2, 8160, Note_on_c, 0, 69, 0
2, 8160, Note_on_c, 0, 71, 100
2, 8220, Note_on_c, 0, 71, 0
2, 8220, Note_on_c, 0, 67, 100
2, 8270, Note_on_c, 0, 67, 0
2, 8280, Note_on_c, 0, 71, 100
2, 8400, Note_on_c, 0, 71, 0
2, 8400, Note_on_c, 0, 69, 100
2, 8630, Note_on_c, 0, 69, 0
2, 8640, Note_on_c, 0, 74, 100
2, 8750, Note_on_c, 0, 74, 0
2, 8760, Note_on_c, 0, 67, 100
2, 8820, Note_on_c, 0, 67, 0
2, 8820, Note_on_c, 0, 69, 100
2, 8880, Note_on_c, 0, 69, 0
2, 8880, Note_on_c, 0, 71, 100
2, 8940, Note_on_c, 0, 71, 0
2, 8940, Note_on_c, 0, 72, 100
2, 9000, Note_on_c, 0, 72, 0
2, 9000, Note_on_c, 0, 74, 100
2, 9120, Note_on_c, 0, 74, 0
2, 9120, Note_on_c, 0, 67, 100
2, 9180, Note_on_c, 0, 67, 0
2, 9240, Note_on_c, 0, 67, 100
2, 9300, Note_on_c, 0, 67, 0
2, 9360, Note_on_c, 0, 76, 100
2, 9480, Note_on_c, 0, 76, 0
2, 9480, Note_on_c, 0, 72, 100
2, 9490, Note_on_c, 0, 72, 0
2, 9490, Note_on_c, 0, 71, 100
2, 9500, Note_on_c, 0, 71, 0
2, 9500, Note_on_c, 0, 72, 100
2, 9540, Note_on_c, 0, 72, 0
2, 9540, Note_on_c, 0, 74, 100
2, 9600, Note_on_c, 0, 74, 0
2, 9600, Note_on_c, 0, 76, 100
2, 9660, Note_on_c, 0, 76, 0
2, 9660, Note_on_c, 0, 78, 100
2, 9720, Note_on_c, 0, 78, 0
2, 9720, Note_on_c, 0, 79, 100
2, 9840, Note_on_c, 0, 79, 0
2, 9840, Note_on_c, 0, 67, 100
2, 9900, Note_on_c, 0, 67, 0
2, 9960, Note_on_c, 0, 67, 100
2, 10020, Note_on_c, 0, 67, 0
2, 10080, Note_on_c, 0, 72, 100
2, 10095, Note_on_c, 0, 72, 0
2, 10095, Note_on_c, 0, 71, 100
2, 10110, Note_on_c, 0, 71, 0
2, 10110, Note_on_c, 0, 72, 100
2, 10191, Note_on_c, 0, 72, 0
2, 10200, Note_on_c, 0, 74, 100
2, 10260, Note_on_c, 0, 74, 0
2, 10260, Note_on_c, 0, 72, 100
2, 10320, Note_on_c, 0, 72, 0
2, 10320, Note_on_c, 0, 71, 100
2, 10380, Note_on_c, 0, 71, 0
2, 10380, Note_on_c, 0, 69, 100
2, 10440, Note_on_c, 0, 69, 0
2, 10440, Note_on_c, 0, 71, 100
2, 10550, Note_on_c, 0, 71, 0
2, 10560, Note_on_c, 0, 72, 100
2, 10620, Note_on_c, 0, 72, 0
2, 10620, Note_on_c, 0, 71, 100
2, 10680, Note_on_c, 0, 71, 0
2, 10680, Note_on_c, 0, 69, 100
2, 10740, Note_on_c, 0, 69, 0
2, 10740, Note_on_c, 0, 67, 100
2, 10800, Note_on_c, 0, 67, 0
2, 10800, Note_on_c, 0, 69, 100
2, 10910, Note_on_c, 0, 69, 0
2, 10920, Note_on_c, 0, 71, 100
2, 10980, Note_on_c, 0, 71, 0
2, 10980, Note_on_c, 0, 69, 100
2, 11040, Note_on_c, 0, 69, 0
2, 11040, Note_on_c, 0, 67, 100
2, 11100, Note_on_c, 0, 67, 0
2, 11100, Note_on_c, 0, 66, 100
2, 11150, Note_on_c, 0, 66, 0
2, 11160, Note_on_c, 0, 67, 100
2, 11401, Poly_aftertouch_c, 0, 67, 64
2, 11510, Note_on_c, 0, 67, 0
2, 11510, End_track
3, 0, Start_track
3, 0, Title_t, "left"
3, 0, Control_c, 1, 0, 8
3, 0, Program_c, 1, 6
3, 0, Control_c, 1, 7, 100
3, 0, Control_c, 1, 10, 95
3, 0, Note_on_c, 1, 62, 100
3, 0, Note_on_c, 1, 59, 100
3, 0, Note_on_c, 1, 55, 100
3, 240, Note_on_c, 1, 55, 0
3, 240, Note_on_c, 1, 59, 0
3, 240, Note_on_c, 1, 62, 0
3, 240, Note_on_c, 1, 57, 100
3, 360, Note_on_c, 1, 57, 0
3, 360, Note_on_c, 1, 59, 100
3, 710, Note_on_c, 1, 59, 0
3, 720, Note_on_c, 1, 60, 100
3, 1080, Note_on_c, 1, 60, 0
3, 1080, Note_on_c, 1, 59, 100
3, 1430, Note_on_c, 1, 59, 0
3, 1440, Note_on_c, 1, 57, 100
3, 1790, Note_on_c, 1, 57, 0
3, 1800, Note_on_c, 1, 55, 100
3, 2150, Note_on_c, 1, 55, 0
3, 2160, Note_on_c, 1, 62, 100
3, 2220, Note_on_c, 1, 62, 0
3, 2280, Note_on_c, 1, 59, 100
3, 2340, Note_on_c, 1, 59, 0
3, 2400, Note_on_c, 1, 55, 100
3, 2460, Note_on_c, 1, 55, 0
3, 2520, Note_on_c, 1, 62, 100
3, 2630, Note_on_c, 1, 62, 0
3, 2640, Note_on_c, 1, 50, 100
3, 2700, Note_on_c, 1, 50, 0
3, 2700, Note_on_c, 1, 60, 100
3, 2760, Note_on_c, 1, 60, 0
3, 2760, Note_on_c, 1, 59, 100
3, 2820, Note_on_c, 1, 59, 0
3, 2820, Note_on_c, 1, 57, 100
3, 2870, Note_on_c, 1, 57, 0
3, 2880, Note_on_c, 1, 59, 100
3, 3120, Note_on_c, 1, 59, 0
3, 3120, Note_on_c, 1, 57, 100
3, 3240, Note_on_c, 1, 57, 0
3, 3240, Note_on_c, 1, 55, 100
3, 3360, Note_on_c, 1, 55, 0
3, 3360, Note_on_c, 1, 59, 100
3, 3420, Note_on_c, 1, 59, 0
3, 3480, Note_on_c, 1, 55, 100
3, 3540, Note_on_c, 1, 55, 0
3, 3600, Note_on_c, 1, 60, 100
3, 3960, Note_on_c, 1, 60, 0
3, 3960, Note_on_c, 1, 59, 100
3, 4070, Note_on_c, 1, 59, 0
3, 4080, Note_on_c, 1, 60, 100
3, 4140, Note_on_c, 1, 60, 0
3, 4140, Note_on_c, 1, 59, 100
3, 4200, Note_on_c, 1, 59, 0
3, 4200, Note_on_c, 1, 57, 100
3, 4260, Note_on_c, 1, 57, 0
3, 4260, Note_on_c, 1, 55, 100
3, 4310, Note_on_c, 1, 55, 0
3, 4320, Note_on_c, 1, 57, 100
3, 4550, Note_on_c, 1, 57, 0
3, 4560, Note_on_c, 1, 54, 100
3, 4670, Note_on_c, 1, 54, 0
3, 4680, Note_on_c, 1, 55, 100
3, 4910, Note_on_c, 1, 55, 0
3, 4920, Note_on_c, 1, 59, 100
3, 5030, Note_on_c, 1, 59, 0
3, 5040, Note_on_c, 1, 60, 100
3, 5100, Note_on_c, 1, 60, 0
3, 5160, Note_on_c, 1, 62, 100
3, 5220, Note_on_c, 1, 62, 0
3, 5280, Note_on_c, 1, 50, 100
3, 5340, Note_on_c, 1, 50, 0
3, 5400, Note_on_c, 1, 55, 100
3, 5630, Note_on_c, 1, 55, 0
3, 5640, Note_on_c, 1, 43, 100
3, 5750, Note_on_c, 1, 43, 0
3, 5760, Note_on_c, 1, 62, 100
3, 5760, Note_on_c, 1, 59, 100
3, 5760, Note_on_c, 1, 55, 100
3, 6000, Note_on_c, 1, 55, 0
3, 6000, Note_on_c, 1, 59, 0
3, 6000, Note_on_c, 1, 62, 0
3, 6000, Note_on_c, 1, 57, 100
3, 6120, Note_on_c, 1, 57, 0
3, 6120, Note_on_c, 1, 59, 100
3, 6470, Note_on_c, 1, 59, 0
3, 6480, Note_on_c, 1, 60, 100
3, 6840, Note_on_c, 1, 60, 0
3, 6840, Note_on_c, 1, 59, 100
3, 7190, Note_on_c, 1, 59, 0
3, 7200, Note_on_c, 1, 57, 100
3, 7550, Note_on_c, 1, 57, 0
3, 7560, Note_on_c, 1, 55, 100
3, 7910, Note_on_c, 1, 55, 0
3, 7920, Note_on_c, 1, 62, 100
3, 7980, Note_on_c, 1, 62, 0
3, 8040, Note_on_c, 1, 59, 100
3, 8100, Note_on_c, 1, 59, 0
3, 8160, Note_on_c, 1, 55, 100
3, 8220, Note_on_c, 1, 55, 0
3, 8280, Note_on_c, 1, 62, 100
3, 8390, Note_on_c, 1, 62, 0
3, 8400, Note_on_c, 1, 50, 100
3, 8460, Note_on_c, 1, 50, 0
3, 8460, Note_on_c, 1, 60, 100
3, 8520, Note_on_c, 1, 60, 0
3, 8520, Note_on_c, 1, 59, 100
3, 8580, Note_on_c, 1, 59, 0
3, 8580, Note_on_c, 1, 57, 100
3, 8630, Note_on_c, 1, 57, 0
3, 8640, Note_on_c, 1, 59, 100
3, 8880, Note_on_c, 1, 59, 0
3, 8880, Note_on_c, 1, 57, 100
3, 9000, Note_on_c, 1, 57, 0
3, 9000, Note_on_c, 1, 55, 100
3, 9120, Note_on_c, 1, 55, 0
3, 9120, Note_on_c, 1, 59, 100
3, 9180, Note_on_c, 1, 59, 0
3, 9240, Note_on_c, 1, 55, 100
3, 9300, Note_on_c, 1, 55, 0
3, 9360, Note_on_c, 1, 60, 100
3, 9720, Note_on_c, 1, 60, 0
3, 9720, Note_on_c, 1, 59, 100
3, 9830, Note_on_c, 1, 59, 0
3, 9840, Note_on_c, 1, 60, 100
3, 9900, Note_on_c, 1, 60, 0
3, 9900, Note_on_c, 1, 59, 100
3, 9960, Note_on_c, 1, 59, 0
3, 9960, Note_on_c, 1, 57, 100
3, 10020, Note_on_c, 1, 57, 0
3, 10020, Note_on_c, 1, 55, 100
3, 10070, Note_on_c, 1, 55, 0
3, 10080, Note_on_c, 1, 57, 100
3, 10310, Note_on_c, 1, 57, 0
3, 10320, Note_on_c, 1, 54, 100
3, 10430, Note_on_c, 1, 54, 0
3, 10440, Note_on_c, 1, 55, 100
3, 10670, Note_on_c, 1, 55, 0
3, 10680, Note_on_c, 1, 59, 100
3, 10790, Note_on_c, 1, 59, 0
3, 10800, Note_on_c, 1, 60, 100
3, 10860, Note_on_c, 1, 60, 0
3, 10920, Note_on_c, 1, 62, 100
3, 10980, Note_on_c, 1, 62, 0
3, 11040, Note_on_c, 1, 50, 100
3, 11100, Note_on_c, 1, 50, 0
3, 11160, Note_on_c, 1, 55, 100
3, 11390, Note_on_c, 1, 55, 0
3, 11400, Note_on_c, 1, 43, 100
3, 11401, Poly_aftertouch_c, 1, 43, 64
3, 11510, Note_on_c, 1, 43, 0
3, 11510, End_track
4, 0, Start_track
4, 0, Title_t, "right"
4, 0, Control_c, 0, 0, 8
4, 0, Control_c, 0, 7, 100
4, 0, Control_c, 0, 10, 32
4, 0, Program_c, 0, 6
4, 11520, Note_on_c, 0, 83, 100
4, 11630, Note_on_c, 0, 83, 0
4, 11640, Note_on_c, 0, 79, 100
4, 11700, Note_on_c, 0, 79, 0
4, 11700, Note_on_c, 0, 81, 100
4, 11760, Note_on_c, 0, 81, 0
4, 11760, Note_on_c, 0, 83, 100
4, 11820, Note_on_c, 0, 83, 0
4, 11820, Note_on_c, 0, 79, 100
4, 11880, Note_on_c, 0, 79, 0
4, 11880, Note_on_c, 0, 81, 100
4, 11990, Note_on_c, 0, 81, 0
4, 12000, Note_on_c, 0, 74, 100
4, 12060, Note_on_c, 0, 74, 0
4, 12060, Note_on_c, 0, 76, 100
4, 12120, Note_on_c, 0, 76, 0
4, 12120, Note_on_c, 0, 78, 100
4, 12180, Note_on_c, 0, 78, 0
4, 12180, Note_on_c, 0, 74, 100
4, 12240, Note_on_c, 0, 74, 0
4, 12240, Note_on_c, 0, 79, 100
4, 12350, Note_on_c, 0, 79, 0
4, 12360, Note_on_c, 0, 76, 100
4, 12420, Note_on_c, 0, 76, 0
4, 12420, Note_on_c, 0, 78, 100
4, 12480, Note_on_c, 0, 78, 0
4, 12480, Note_on_c, 0, 79, 100
4, 12540, Note_on_c, 0, 79, 0
4, 12540, Note_on_c, 0, 74, 100
4, 12600, Note_on_c, 0, 74, 0
4, 12600, Note_on_c, 0, 73, 100
4, 12710, Note_on_c, 0, 73, 0
4, 12720, Note_on_c, 0, 71, 100
4, 12780, Note_on_c, 0, 71, 0
4, 12780, Note_on_c, 0, 73, 100
4, 12840, Note_on_c, 0, 73, 0
4, 12840, Note_on_c, 0, 69, 100
4, 12950, Note_on_c, 0, 69, 0
4, 12960, Note_on_c, 0, 69, 100
4, 13020, Note_on_c, 0, 69, 0
4, 13020, Note_on_c, 0, 71, 100
4, 13080, Note_on_c, 0, 71, 0
4, 13080, Note_on_c, 0, 73, 100
4, 13140, Note_on_c, 0, 73, 0
4, 13140, Note_on_c, 0, 74, 100
4, 13200, Note_on_c, 0, 74, 0
4, 13200, Note_on_c, 0, 76, 100
4, 13260, Note_on_c, 0, 76, 0
4, 13260, Note_on_c, 0, 78, 100
4, 13320, Note_on_c, 0, 78, 0
4, 13320, Note_on_c, 0, 79, 100
4, 13380, Note_on_c, 0, 79, 0
4, 13440, Note_on_c, 0, 78, 100
4, 13500, Note_on_c, 0, 78, 0
4, 13560, Note_on_c, 0, 76, 100
4, 13620, Note_on_c, 0, 76, 0
4, 13680, Note_on_c, 0, 78, 100
4, 13800, Note_on_c, 0, 78, 0
4, 13800, Note_on_c, 0, 69, 100
4, 13860, Note_on_c, 0, 69, 0
4, 13920, Note_on_c, 0, 73, 100
4, 13980, Note_on_c, 0, 73, 0
4, 14040, Note_on_c, 0, 74, 100
4, 14390, Note_on_c, 0, 74, 0
4, 14400, Note_on_c, 0, 74, 100
4, 14460, Note_on_c, 0, 74, 0
4, 14520, Note_on_c, 0, 67, 100
4, 14580, Note_on_c, 0, 67, 0
4, 14580, Note_on_c, 0, 66, 100
4, 14640, Note_on_c, 0, 66, 0
4, 14640, Note_on_c, 0, 67, 100
4, 14750, Note_on_c, 0, 67, 0
4, 14760, Note_on_c, 0, 76, 100
4, 14820, Note_on_c, 0, 76, 0
4, 14880, Note_on_c, 0, 67, 100
4, 14940, Note_on_c, 0, 67, 0
4, 14940, Note_on_c, 0, 66, 100
4, 15000, Note_on_c, 0, 66, 0
4, 15000, Note_on_c, 0, 67, 100
4, 15110, Note_on_c, 0, 67, 0
4, 15120, Note_on_c, 0, 74, 100
4, 15180, Note_on_c, 0, 74, 0
4, 15240, Note_on_c, 0, 72, 100
4, 15300, Note_on_c, 0, 72, 0
4, 15360, Note_on_c, 0, 71, 100
4, 15420, Note_on_c, 0, 71, 0
4, 15480, Note_on_c, 0, 69, 100
4, 15540, Note_on_c, 0, 69, 0
4, 15540, Note_on_c, 0, 67, 100
4, 15600, Note_on_c, 0, 67, 0
4, 15600, Note_on_c, 0, 66, 100
4, 15660, Note_on_c, 0, 66, 0
4, 15660, Note_on_c, 0, 67, 100
4, 15720, Note_on_c, 0, 67, 0
4, 15720, Note_on_c, 0, 69, 100
4, 15830, Note_on_c, 0, 69, 0
4, 15840, Note_on_c, 0, 62, 100
4, 15900, Note_on_c, 0, 62, 0
4, 15900, Note_on_c, 0, 64, 100
4, 15960, Note_on_c, 0, 64, 0
4, 15960, Note_on_c, 0, 66, 100
4, 16020, Note_on_c, 0, 66, 0
4, 16020, Note_on_c, 0, 67, 100
4, 16080, Note_on_c, 0, 67, 0
4, 16080, Note_on_c, 0, 69, 100
4, 16140, Note_on_c, 0, 69, 0
4, 16140, Note_on_c, 0, 71, 100
4, 16200, Note_on_c, 0, 71, 0
4, 16200, Note_on_c, 0, 72, 100
4, 16260, Note_on_c, 0, 72, 0
4, 16320, Note_on_c, 0, 71, 100
4, 16335, Note_on_c, 0, 71, 0
4, 16335, Note_on_c, 0, 72, 100
4, 16350, Note_on_c, 0, 72, 0
4, 16350, Note_on_c, 0, 71, 100
4, 16431, Note_on_c, 0, 71, 0
4, 16440, Note_on_c, 0, 69, 100
4, 16500, Note_on_c, 0, 69, 0
4, 16560, Note_on_c, 0, 71, 100
4, 16620, Note_on_c, 0, 71, 0
4, 16620, Note_on_c, 0, 74, 100
4, 16670, Note_on_c, 0, 74, 0
4, 16680, Note_on_c, 0, 67, 100
4, 16740, Note_on_c, 0, 67, 0
4, 16800, Note_on_c, 0, 66, 100
4, 16860, Note_on_c, 0, 66, 0
4, 16920, Note_on_c, 0, 67, 100
4, 16920, Note_on_c, 0, 62, 100
4, 16920, Note_on_c, 0, 59, 100
4, 17270, Note_on_c, 0, 59, 0
4, 17270, Note_on_c, 0, 62, 0
4, 17270, Note_on_c, 0, 67, 0
4, 17280, Note_on_c, 0, 83, 100
4, 17390, Note_on_c, 0, 83, 0
4, 17400, Note_on_c, 0, 79, 100
4, 17460, Note_on_c, 0, 79, 0
4, 17460, Note_on_c, 0, 81, 100
4, 17520, Note_on_c, 0, 81, 0
4, 17520, Note_on_c, 0, 83, 100
4, 17580, Note_on_c, 0, 83, 0
4, 17580, Note_on_c, 0, 79, 100
4, 17640, Note_on_c, 0, 79, 0
4, 17640, Note_on_c, 0, 81, 100
4, 17750, Note_on_c, 0, 81, 0
4, 17760, Note_on_c, 0, 74, 100
4, 17820, Note_on_c, 0, 74, 0
4, 17820, Note_on_c, 0, 76, 100
4, 17880, Note_on_c, 0, 76, 0
4, 17880, Note_on_c, 0, 78, 100
4, 17940, Note_on_c, 0, 78, 0
4, 17940, Note_on_c, 0, 74, 100
4, 18000, Note_on_c, 0, 74, 0
4, 18000, Note_on_c, 0, 79, 100
4, 18110, Note_on_c, 0, 79, 0
4, 18120, Note_on_c, 0, 76, 100
4, 18180, Note_on_c, 0, 76, 0
4, 18180, Note_on_c, 0, 78, 100
4, 18240, Note_on_c, 0, 78, 0
4, 18240, Note_on_c, 0, 79, 100
4, 18300, Note_on_c, 0, 79, 0
4, 18300, Note_on_c, 0, 74, 100
4, 18360, Note_on_c, 0, 74, 0
4, 18360, Note_on_c, 0, 73, 100
4, 18470, Note_on_c, 0, 73, 0
4, 18480, Note_on_c, 0, 71, 100
4, 18540, Note_on_c, 0, 71, 0
4, 18540, Note_on_c, 0, 73, 100
4, 18600, Note_on_c, 0, 73, 0
4, 18600, Note_on_c, 0, 69, 100
4, 18710, Note_on_c, 0, 69, 0
4, 18720, Note_on_c, 0, 69, 100
4, 18780, Note_on_c, 0, 69, 0
4, 18780, Note_on_c, 0, 71, 100
4, 18840, Note_on_c, 0, 71, 0
4, 18840, Note_on_c, 0, 73, 100
4, 18900, Note_on_c, 0, 73, 0
4, 18900, Note_on_c, 0, 74, 100
4, 18960, Note_on_c, 0, 74, 0
4, 18960, Note_on_c, 0, 76, 100
4, 19020, Note_on_c, 0, 76, 0
4, 19020, Note_on_c, 0, 78, 100
4, 19080, Note_on_c, 0, 78, 0
4, 19080, Note_on_c, 0, 79, 100
4, 19140, Note_on_c, 0, 79, 0
4, 19200, Note_on_c, 0, 78, 100
4, 19260, Note_on_c, 0, 78, 0
4, 19320, Note_on_c, 0, 76, 100
4, 19380, Note_on_c, 0, 76, 0
4, 19440, Note_on_c, 0, 78, 100
4, 19560, Note_on_c, 0, 78, 0
4, 19560, Note_on_c, 0, 69, 100
4, 19620, Note_on_c, 0, 69, 0
4, 19680, Note_on_c, 0, 73, 100
4, 19740, Note_on_c, 0, 73, 0
4, 19800, Note_on_c, 0, 74, 100
4, 20150, Note_on_c, 0, 74, 0
4, 20160, Note_on_c, 0, 74, 100
4, 20220, Note_on_c, 0, 74, 0
4, 20280, Note_on_c, 0, 67, 100
4, 20340, Note_on_c, 0, 67, 0
4, 20340, Note_on_c, 0, 66, 100
4, 20400, Note_on_c, 0, 66, 0
4, 20400, Note_on_c, 0, 67, 100
4, 20510, Note_on_c, 0, 67, 0
4, 20520, Note_on_c, 0, 76, 100
4, 20580, Note_on_c, 0, 76, 0
4, 20640, Note_on_c, 0, 67, 100
4, 20700, Note_on_c, 0, 67, 0
4, 20700, Note_on_c, 0, 66, 100
4, 20760, Note_on_c, 0, 66, 0
4, 20760, Note_on_c, 0, 67, 100
4, 20870, Note_on_c, 0, 67, 0
4, 20880, Note_on_c, 0, 74, 100
4, 20940, Note_on_c, 0, 74, 0
4, 21000, Note_on_c, 0, 72, 100
4, 21060, Note_on_c, 0, 72, 0
4, 21120, Note_on_c, 0, 71, 100
4, 21180, Note_on_c, 0, 71, 0
4, 21240, Note_on_c, 0, 69, 100
4, 21300, Note_on_c, 0, 69, 0
4, 21300, Note_on_c, 0, 67, 100
4, 21360, Note_on_c, 0, 67, 0
4, 21360, Note_on_c, 0, 66, 100
4, 21420, Note_on_c, 0, 66, 0
4, 21420, Note_on_c, 0, 67, 100
4, 21480, Note_on_c, 0, 67, 0
4, 21480, Note_on_c, 0, 69, 100
4, 21590, Note_on_c, 0, 69, 0
4, 21600, Note_on_c, 0, 62, 100
4, 21660, Note_on_c, 0, 62, 0
4, 21660, Note_on_c, 0, 64, 100
4, 21720, Note_on_c, 0, 64, 0
4, 21720, Note_on_c, 0, 66, 100
4, 21780, Note_on_c, 0, 66, 0
4, 21780, Note_on_c, 0, 67, 100
4, 21840, Note_on_c, 0, 67, 0
4, 21840, Note_on_c, 0, 69, 100
4, 21900, Note_on_c, 0, 69, 0
4, 21900, Note_on_c, 0, 71, 100
4, 21960, Note_on_c, 0, 71, 0
4, 21960, Note_on_c, 0, 72, 100
4, 22020, Note_on_c, 0, 72, 0
4, 22080, Note_on_c, 0, 71, 100
4, 22095, Note_on_c, 0, 71, 0
4, 22095, Note_on_c, 0, 72, 100
4, 22110, Note_on_c, 0, 72, 0
4, 22110, Note_on_c, 0, 71, 100
4, 22191, Note_on_c, 0, 71, 0
4, 22200, Note_on_c, 0, 69, 100
4, 22260, Note_on_c, 0, 69, 0
4, 22320, Note_on_c, 0, 71, 100
4, 22380, Note_on_c, 0, 71, 0
4, 22380, Note_on_c, 0, 74, 100
4, 22430, Note_on_c, 0, 74, 0
4, 22440, Note_on_c, 0, 67, 100
4, 22500, Note_on_c, 0, 67, 0
4, 22560, Note_on_c, 0, 66, 100
4, 22620, Note_on_c, 0, 66, 0
4, 22680, Note_on_c, 0, 67, 100
4, 22680, Note_on_c, 0, 62, 100
4, 22680, Note_on_c, 0, 59, 100
4, 22681, Poly_aftertouch_c, 0, 59, 64
4, 23030, Note_on_c, 0, 59, 0
4, 23030, Note_on_c, 0, 62, 0
4, 23030, Note_on_c, 0, 67, 0
4, 23030, End_track
5, 0, Start_track
5, 0, Title_t, "left"
5, 0, Control_c, 1, 0, 8
5, 0, Control_c, 1, 7, 100
5, 0, Control_c, 1, 10, 95
5, 0, Program_c, 1, 6
5, 11520, Note_on_c, 1, 55, 100
5, 11870, Note_on_c, 1, 55, 0
5, 11880, Note_on_c, 1, 54, 100
5, 12230, Note_on_c, 1, 54, 0
5, 12240, Note_on_c, 1, 52, 100
5, 12300, Note_on_c, 1, 52, 0
5, 12360, Note_on_c, 1, 55, 100
5, 12420, Note_on_c, 1, 55, 0
5, 12480, Note_on_c, 1, 52, 100
5, 12540, Note_on_c, 1, 52, 0
5, 12600, Note_on_c, 1, 57, 100
5, 12830, Note_on_c, 1, 57, 0
5, 12840, Note_on_c, 1, 45, 100
5, 12950, Note_on_c, 1, 45, 0
5, 12960, Note_on_c, 1, 57, 100
5, 13310, Note_on_c, 1, 57, 0
5, 13320, Note_on_c, 1, 59, 100
5, 13380, Note_on_c, 1, 59, 0
5, 13440, Note_on_c, 1, 62, 100
5, 13500, Note_on_c, 1, 62, 0
5, 13560, Note_on_c, 1, 61, 100
5, 13620, Note_on_c, 1, 61, 0
5, 13680, Note_on_c, 1, 62, 100
5, 13800, Note_on_c, 1, 62, 0
5, 13800, Note_on_c, 1, 54, 100
5, 13860, Note_on_c, 1, 54, 0
5, 13920, Note_on_c, 1, 57, 100
5, 13980, Note_on_c, 1, 57, 0
5, 14040, Note_on_c, 1, 62, 100
5, 14160, Note_on_c, 1, 62, 0
5, 14160, Note_on_c, 1, 50, 100
5, 14280, Note_on_c, 1, 50, 0
5, 14280, Note_on_c, 1, 60, 100
5, 14390, Note_on_c, 1, 60, 0
5, 14400, Note_on_c, 1, 59, 100
5, 14520, Note_on_c, 1, 62, 100
5, 14640, Note_on_c, 1, 59, 0
5, 14640, Note_on_c, 1, 59, 100
5, 14750, Note_on_c, 1, 59, 0
5, 14750, Note_on_c, 1, 62, 0
5, 14760, Note_on_c, 1, 60, 100
5, 14880, Note_on_c, 1, 64, 100
5, 15000, Note_on_c, 1, 60, 0
5, 15000, Note_on_c, 1, 60, 100
5, 15110, Note_on_c, 1, 60, 0
5, 15110, Note_on_c, 1, 64, 0
5, 15120, Note_on_c, 1, 59, 100
5, 15230, Note_on_c, 1, 59, 0
5, 15240, Note_on_c, 1, 57, 100
5, 15300, Note_on_c, 1, 57, 0
5, 15360, Note_on_c, 1, 55, 100
5, 15420, Note_on_c, 1, 55, 0
5, 15480, Note_on_c, 1, 62, 100
5, 15710, Note_on_c, 1, 62, 0
5, 15720, Poly_aftertouch_c, 1, 62, 0
5, 15840, Note_on_c, 1, 50, 100
5, 16080, Note_on_c, 1, 54, 100
5, 16190, Note_on_c, 1, 54, 0
5, 16200, Note_on_c, 1, 50, 0
5, 16200, Note_on_c, 1, 52, 100
5, 16260, Note_on_c, 1, 52, 0
5, 16320, Note_on_c, 1, 55, 100
5, 16380, Note_on_c, 1, 55, 0
5, 16440, Note_on_c, 1, 54, 100
5, 16500, Note_on_c, 1, 54, 0
5, 16560, Note_on_c, 1, 55, 100
5, 16620, Note_on_c, 1, 55, 0
5, 16680, Note_on_c, 1, 47, 100
5, 16740, Note_on_c, 1, 47, 0
5, 16800, Note_on_c, 1, 50, 100
5, 16860, Note_on_c, 1, 50, 0
5, 16920, Note_on_c, 1, 55, 100
5, 17040, Note_on_c, 1, 55, 0
5, 17040, Note_on_c, 1, 50, 100
5, 17160, Note_on_c, 1, 50, 0
5, 17160, Note_on_c, 1, 43, 100
5, 17280, Note_on_c, 1, 43, 0
5, 17280, Note_on_c, 1, 55, 100
5, 17630, Note_on_c, 1, 55, 0
5, 17640, Note_on_c, 1, 54, 100
5, 17990, Note_on_c, 1, 54, 0
5, 18000, Note_on_c, 1, 52, 100
5, 18060, Note_on_c, 1, 52, 0
5, 18120, Note_on_c, 1, 55, 100
5, 18180, Note_on_c, 1, 55, 0
5, 18240, Note_on_c, 1, 52, 100
5, 18300, Note_on_c, 1, 52, 0
5, 18360, Note_on_c, 1, 57, 100
5, 18590, Note_on_c, 1, 57, 0
5, 18600, Note_on_c, 1, 45, 100
5, 18710, Note_on_c, 1, 45, 0
5, 18720, Note_on_c, 1, 57, 100
5, 19070, Note_on_c, 1, 57, 0
5, 19080, Note_on_c, 1, 59, 100
5, 19140, Note_on_c, 1, 59, 0
5, 19200, Note_on_c, 1, 62, 100
5, 19260, Note_on_c, 1, 62, 0
5, 19320, Note_on_c, 1, 61, 100
5, 19380, Note_on_c, 1, 61, 0
5, 19440, Note_on_c, 1, 62, 100
5, 19560, Note_on_c, 1, 62, 0
5, 19560, Note_on_c, 1, 54, 100
5, 19620, Note_on_c, 1, 54, 0
5, 19680, Note_on_c, 1, 57, 100
5, 19740, Note_on_c, 1, 57, 0
5, 19800, Note_on_c, 1, 62, 100
5, 19920, Note_on_c, 1, 62, 0
5, 19920, Note_on_c, 1, 50, 100
5, 20040, Note_on_c, 1, 50, 0
5, 20040, Note_on_c, 1, 60, 100
5, 20150, Note_on_c, 1, 60, 0
5, 20160, Note_on_c, 1, 59, 100
5, 20280, Note_on_c, 1, 62, 100
5, 20400, Note_on_c, 1, 59, 0
5, 20400, Note_on_c, 1, 59, 100
5, 20510, Note_on_c, 1, 59, 0
5, 20510, Note_on_c, 1, 62, 0
5, 20520, Note_on_c, 1, 60, 100
5, 20640, Note_on_c, 1, 64, 100
5, 20760, Note_on_c, 1, 60, 0
5, 20760, Note_on_c, 1, 60, 100
5, 20870, Note_on_c, 1, 60, 0
5, 20870, Note_on_c, 1, 64, 0
5, 20880, Note_on_c, 1, 59, 100
5, 20990, Note_on_c, 1, 59, 0
5, 21000, Note_on_c, 1, 57, 100
5, 21060, Note_on_c, 1, 57, 0
5, 21120, Note_on_c, 1, 55, 100
5, 21180, Note_on_c, 1, 55, 0
5, 21240, Note_on_c, 1, 62, 100
5, 21470, Note_on_c, 1, 62, 0
5, 21480, Poly_aftertouch_c, 1, 62, 0
5, 21600, Note_on_c, 1, 50, 100
5, 21840, Note_on_c, 1, 54, 100
5, 21950, Note_on_c, 1, 54, 0
5, 21960, Note_on_c, 1, 50, 0
5, 21960, Note_on_c, 1, 52, 100
5, 22020, Note_on_c, 1, 52, 0
5, 22080, Note_on_c, 1, 55, 100
5, 22140, Note_on_c, 1, 55, 0
5, 22200, Note_on_c, 1, 54, 100
5, 22260, Note_on_c, 1, 54, 0
5, 22320, Note_on_c, 1, 55, 100
5, 22380, Note_on_c, 1, 55, 0
5, 22440, Note_on_c, 1, 47, 100
5, 22500, Note_on_c, 1, 47, 0
5, 22560, Note_on_c, 1, 50, 100
5, 22620, Note_on_c, 1, 50, 0
5, 22680, Note_on_c, 1, 55, 100
5, 22800, Note_on_c, 1, 55, 0
5, 22800, Note_on_c, 1, 50, 100
5, 22920, Note_on_c, 1, 50, 0
5, 22920, Note_on_c, 1, 43, 100
5, 22921, Poly_aftertouch_c, 1, 43, 64
5, 23040, Note_on_c, 1, 43, 0
5, 23040, End_track
6, 0, Start_track
6, 0, End_track
0, 0, End_of_file
