0, 0, Header, 0, 1, 48
1, 0, Start_track
1, 0, Title_t, "J.S.Bach Violin Concert II E major BWV1042 3. Allegro assai."
1, 0, Time_signature, 3, 3, 24, 8
1, 0, Channel_prefix, 0
1, 0, Copyright_t, "Copyright 2000 by KCN"
1, 0, Channel_prefix, 0
1, 0, Title_t, "Violino concertato."
1, 0, Channel_prefix, 0
1, 0, Instrument_name_t, "Violin"
1, 0, System_exclusive, 5, 126, 127, 9, 1, 247
1, 0, Tempo, 652173
1, 0, Program_c, 0, 40
1, 0, Note_on_c, 0, 64, 96
1, 0, Channel_prefix, 1
1, 0, Title_t, "Violino I."
1, 0, Channel_prefix, 1
1, 0, Instrument_name_t, "Violin"
1, 0, Program_c, 1, 48
1, 0, Note_on_c, 1, 64, 104
1, 0, Channel_prefix, 2
1, 0, Title_t, "Violino II."
1, 0, Channel_prefix, 2
1, 0, Instrument_name_t, "Violin"
1, 0, Program_c, 2, 48
1, 0, Note_on_c, 2, 68, 104
1, 0, Channel_prefix, 3
1, 0, Title_t, "Viola."
1, 0, Channel_prefix, 3
1, 0, Instrument_name_t, "Viola"
1, 0, Program_c, 3, 48
1, 0, Note_on_c, 3, 59, 104
1, 0, Channel_prefix, 4
1, 0, Title_t, "Continuo."
1, 0, Channel_prefix, 4
1, 0, Instrument_name_t, "Cello"
1, 0, Program_c, 4, 42
1, 0, Note_on_c, 4, 52, 96
1, 0, Channel_prefix, 5
1, 0, Title_t, "Continuo."
1, 0, Channel_prefix, 5
1, 0, Instrument_name_t, "Contrabass"
1, 0, Program_c, 5, 43
1, 0, Note_on_c, 5, 40, 96
1, 12, Note_off_c, 0, 64, 0
1, 12, Note_on_c, 0, 66, 96
1, 12, Note_off_c, 1, 64, 0
1, 12, Note_on_c, 1, 66, 104
1, 24, Note_off_c, 0, 66, 0
1, 24, Note_on_c, 0, 68, 96
1, 24, Note_off_c, 1, 66, 0
1, 24, Note_on_c, 1, 68, 104
1, 36, Note_off_c, 0, 68, 0
1, 36, Note_on_c, 0, 71, 96
1, 36, Note_off_c, 1, 68, 0
1, 36, Note_on_c, 1, 71, 104
1, 42, Note_off_c, 2, 68, 0
1, 42, Note_off_c, 3, 59, 0
1, 42, Note_off_c, 4, 52, 0
1, 42, Note_off_c, 5, 40, 0
1, 46, Note_off_c, 0, 71, 0
1, 46, Note_off_c, 1, 71, 0
1, 48, Note_on_c, 0, 76, 96
1, 48, Note_on_c, 1, 76, 104
1, 60, Note_off_c, 0, 76, 0
1, 60, Note_off_c, 1, 76, 0
1, 72, Note_on_c, 0, 76, 96
1, 72, Note_on_c, 1, 76, 104
1, 72, Note_on_c, 2, 71, 104
1, 72, Note_on_c, 3, 59, 104
1, 72, Note_on_c, 4, 56, 96
1, 72, Note_on_c, 5, 44, 96
1, 84, Note_off_c, 0, 76, 0
1, 84, Note_on_c, 0, 75, 96
1, 84, Note_off_c, 1, 76, 0
1, 84, Note_on_c, 1, 75, 104
1, 93, Note_off_c, 2, 71, 0
1, 93, Note_off_c, 3, 59, 0
1, 93, Note_off_c, 4, 56, 0
1, 93, Note_off_c, 5, 44, 0
1, 94, Note_off_c, 0, 75, 0
1, 94, Note_off_c, 1, 75, 0
1, 96, Note_on_c, 0, 78, 96
1, 96, Note_on_c, 1, 78, 104
1, 96, Note_on_c, 2, 69, 104
1, 96, Note_on_c, 3, 63, 104
1, 96, Note_on_c, 4, 54, 96
1, 96, Note_on_c, 5, 42, 96
1, 108, Note_off_c, 0, 78, 0
1, 108, Note_on_c, 0, 76, 96
1, 108, Note_off_c, 1, 78, 0
1, 108, Note_on_c, 1, 76, 104
1, 117, Note_off_c, 2, 69, 0
1, 117, Note_off_c, 3, 63, 0
1, 117, Note_off_c, 4, 54, 0
1, 117, Note_off_c, 5, 42, 0
1, 118, Note_off_c, 0, 76, 0
1, 118, Note_off_c, 1, 76, 0
1, 120, Note_on_c, 0, 75, 96
1, 120, Note_on_c, 1, 75, 104
1, 120, Note_on_c, 2, 71, 104
1, 120, Note_on_c, 3, 68, 104
1, 120, Note_on_c, 4, 52, 96
1, 120, Note_on_c, 5, 40, 96
1, 132, Note_off_c, 0, 75, 0
1, 132, Note_on_c, 0, 73, 96
1, 132, Note_off_c, 1, 75, 0
1, 132, Note_on_c, 1, 73, 104
1, 141, Note_off_c, 2, 71, 0
1, 141, Note_off_c, 3, 68, 0
1, 141, Note_off_c, 4, 52, 0
1, 141, Note_off_c, 5, 40, 0
1, 142, Note_off_c, 0, 73, 0
1, 142, Note_off_c, 1, 73, 0
1, 144, Note_on_c, 0, 71, 96
1, 144, Note_on_c, 1, 71, 104
1, 144, Note_on_c, 2, 71, 104
1, 144, Note_on_c, 3, 66, 104
1, 144, Note_on_c, 4, 51, 96
1, 144, Note_on_c, 5, 39, 96
1, 156, Note_off_c, 0, 71, 0
1, 156, Note_on_c, 0, 73, 96
1, 156, Note_off_c, 1, 71, 0
1, 156, Note_on_c, 1, 73, 104
1, 168, Note_off_c, 0, 73, 0
1, 168, Note_on_c, 0, 75, 96
1, 168, Note_off_c, 1, 73, 0
1, 168, Note_on_c, 1, 75, 104
1, 180, Note_off_c, 0, 75, 0
1, 180, Note_on_c, 0, 78, 96
1, 180, Note_off_c, 1, 75, 0
1, 180, Note_on_c, 1, 78, 104
1, 186, Note_off_c, 2, 71, 0
1, 186, Note_off_c, 3, 66, 0
1, 186, Note_off_c, 4, 51, 0
1, 186, Note_off_c, 5, 39, 0
1, 190, Note_off_c, 0, 78, 0
1, 190, Note_off_c, 1, 78, 0
1, 192, Note_on_c, 0, 81, 96
1, 192, Note_on_c, 1, 81, 104
1, 204, Note_off_c, 0, 81, 0
1, 204, Note_off_c, 1, 81, 0
1, 216, Note_on_c, 0, 81, 96
1, 216, Note_on_c, 1, 81, 104
1, 216, Note_on_c, 2, 71, 104
1, 216, Note_on_c, 3, 66, 104
1, 216, Note_on_c, 4, 51, 96
1, 216, Note_on_c, 5, 39, 96
1, 237, Note_off_c, 2, 71, 0
1, 237, Note_off_c, 3, 66, 0
1, 237, Note_off_c, 4, 51, 0
1, 237, Note_off_c, 5, 39, 0
1, 240, Note_on_c, 2, 73, 104
1, 240, Note_on_c, 3, 64, 104
1, 240, Note_on_c, 4, 49, 96
1, 240, Note_on_c, 5, 37, 96
1, 261, Note_off_c, 2, 73, 0
1, 261, Note_off_c, 3, 64, 0
1, 261, Note_off_c, 4, 49, 0
1, 261, Note_off_c, 5, 37, 0
1, 264, Note_on_c, 2, 75, 104
1, 264, Note_on_c, 3, 66, 104
1, 264, Note_on_c, 4, 47, 96
1, 264, Note_on_c, 5, 35, 96
1, 279, Note_off_c, 0, 81, 0
1, 279, Note_off_c, 1, 81, 0
1, 285, Note_off_c, 2, 75, 0
1, 285, Note_off_c, 3, 66, 0
1, 285, Note_off_c, 4, 47, 0
1, 285, Note_off_c, 5, 35, 0
1, 288, Note_on_c, 0, 80, 96
1, 288, Note_on_c, 1, 80, 104
1, 288, Note_on_c, 2, 76, 104
1, 288, Note_on_c, 3, 59, 104
1, 288, Note_on_c, 4, 52, 96
1, 288, Note_on_c, 5, 40, 96
1, 300, Note_off_c, 0, 80, 0
1, 300, Note_on_c, 0, 78, 96
1, 300, Note_off_c, 1, 80, 0
1, 300, Note_on_c, 1, 78, 104
1, 309, Note_off_c, 2, 76, 0
1, 309, Note_off_c, 4, 52, 0
1, 309, Note_off_c, 5, 40, 0
1, 310, Note_off_c, 0, 78, 0
1, 310, Note_off_c, 1, 78, 0
1, 312, Note_on_c, 0, 81, 96
1, 312, Note_on_c, 1, 81, 104
1, 312, Note_on_c, 2, 71, 104
1, 312, Note_on_c, 4, 51, 96
1, 312, Note_on_c, 5, 39, 96
1, 324, Note_off_c, 0, 81, 0
1, 324, Note_on_c, 0, 80, 96
1, 324, Note_off_c, 1, 81, 0
1, 324, Note_on_c, 1, 80, 104
1, 330, Note_off_c, 3, 59, 0
1, 333, Note_off_c, 2, 71, 0
1, 333, Note_off_c, 4, 51, 0
1, 333, Note_off_c, 5, 39, 0
1, 334, Note_off_c, 0, 80, 0
1, 334, Note_off_c, 1, 80, 0
1, 336, Note_on_c, 0, 78, 96
1, 336, Note_on_c, 1, 78, 104
1, 336, Note_on_c, 2, 70, 104
1, 336, Note_on_c, 3, 63, 104
1, 336, Note_on_c, 4, 49, 96
1, 336, Note_on_c, 5, 37, 96
1, 348, Note_off_c, 0, 78, 0
1, 348, Note_on_c, 0, 76, 96
1, 348, Note_off_c, 1, 78, 0
1, 348, Note_on_c, 1, 76, 104
1, 357, Note_off_c, 2, 70, 0
1, 357, Note_off_c, 3, 63, 0
1, 357, Note_off_c, 4, 49, 0
1, 357, Note_off_c, 5, 37, 0
1, 358, Note_off_c, 0, 76, 0
1, 358, Note_off_c, 1, 76, 0
1, 360, Note_on_c, 0, 75, 96
1, 360, Note_on_c, 1, 75, 104
1, 360, Note_on_c, 2, 71, 104
1, 360, Note_on_c, 3, 66, 104
1, 360, Note_on_c, 4, 47, 96
1, 360, Note_on_c, 5, 35, 96
1, 372, Note_off_c, 0, 75, 0
1, 372, Note_on_c, 0, 73, 96
1, 372, Note_off_c, 1, 75, 0
1, 372, Note_on_c, 1, 73, 104
1, 381, Note_off_c, 2, 71, 0
1, 381, Note_off_c, 4, 47, 0
1, 381, Note_off_c, 5, 35, 0
1, 382, Note_off_c, 0, 73, 0
1, 382, Note_off_c, 1, 73, 0
1, 384, Note_on_c, 0, 76, 96
1, 384, Note_on_c, 1, 76, 104
1, 384, Note_on_c, 2, 66, 104
1, 384, Note_on_c, 4, 45, 96
1, 384, Note_on_c, 5, 33, 96
1, 396, Note_off_c, 0, 76, 0
1, 396, Note_on_c, 0, 75, 96
1, 396, Note_off_c, 1, 76, 0
1, 396, Note_on_c, 1, 75, 104
1, 402, Note_off_c, 3, 66, 0
1, 405, Note_off_c, 2, 66, 0
1, 405, Note_off_c, 4, 45, 0
1, 405, Note_off_c, 5, 33, 0
1, 406, Note_off_c, 0, 75, 0
1, 406, Note_off_c, 1, 75, 0
1, 408, Note_on_c, 0, 73, 96
1, 408, Note_on_c, 1, 73, 104
1, 408, Note_on_c, 2, 68, 104
1, 408, Note_on_c, 3, 64, 104
1, 408, Note_on_c, 4, 44, 96
1, 408, Note_on_c, 5, 32, 96
1, 420, Note_off_c, 0, 73, 0
1, 420, Note_on_c, 0, 71, 96
1, 420, Note_off_c, 1, 73, 0
1, 420, Note_on_c, 1, 71, 104
1, 429, Note_off_c, 2, 68, 0
1, 429, Note_off_c, 3, 64, 0
1, 429, Note_off_c, 4, 44, 0
1, 429, Note_off_c, 5, 32, 0
1, 430, Note_off_c, 0, 71, 0
1, 430, Note_off_c, 1, 71, 0
1, 432, Note_on_c, 0, 69, 96
1, 432, Note_on_c, 1, 69, 104
1, 432, Note_on_c, 2, 69, 104
1, 432, Note_on_c, 3, 63, 104
1, 432, Note_on_c, 4, 42, 96
1, 432, Note_on_c, 5, 30, 96
1, 444, Note_off_c, 0, 69, 0
1, 444, Note_on_c, 0, 68, 96
1, 444, Note_off_c, 1, 69, 0
1, 444, Note_on_c, 1, 68, 104
1, 453, Note_off_c, 2, 69, 0
1, 453, Note_off_c, 3, 63, 0
1, 453, Note_off_c, 4, 42, 0
1, 453, Note_off_c, 5, 30, 0
1, 454, Note_off_c, 0, 68, 0
1, 454, Note_off_c, 1, 68, 0
1, 456, Note_on_c, 0, 71, 96
1, 456, Note_on_c, 1, 71, 104
1, 456, Note_on_c, 2, 66, 104
1, 456, Note_on_c, 3, 66, 104
1, 456, Note_on_c, 4, 51, 96
1, 456, Note_on_c, 5, 39, 96
1, 468, Note_off_c, 0, 71, 0
1, 468, Note_on_c, 0, 69, 96
1, 468, Note_off_c, 1, 71, 0
1, 468, Note_on_c, 1, 69, 104
1, 477, Note_off_c, 2, 66, 0
1, 477, Note_off_c, 3, 66, 0
1, 477, Note_off_c, 4, 51, 0
1, 477, Note_off_c, 5, 39, 0
1, 478, Note_off_c, 0, 69, 0
1, 478, Note_off_c, 1, 69, 0
1, 480, Note_on_c, 0, 68, 96
1, 480, Note_on_c, 1, 68, 104
1, 480, Note_on_c, 2, 64, 104
1, 480, Note_on_c, 3, 59, 104
1, 480, Note_on_c, 4, 52, 96
1, 480, Note_on_c, 5, 40, 96
1, 492, Note_off_c, 0, 68, 0
1, 492, Note_on_c, 0, 69, 96
1, 492, Note_off_c, 1, 68, 0
1, 492, Note_on_c, 1, 69, 104
1, 501, Note_off_c, 2, 64, 0
1, 501, Note_off_c, 3, 59, 0
1, 501, Note_off_c, 4, 52, 0
1, 501, Note_off_c, 5, 40, 0
1, 502, Note_off_c, 0, 69, 0
1, 502, Note_off_c, 1, 69, 0
1, 504, Note_on_c, 0, 66, 96
1, 504, Note_on_c, 1, 66, 104
1, 504, Note_on_c, 2, 63, 104
1, 504, Note_on_c, 3, 59, 104
1, 504, Note_on_c, 4, 47, 96
1, 504, Note_on_c, 5, 35, 96
1, 516, Note_off_c, 0, 66, 0
1, 516, Note_on_c, 0, 64, 96
1, 516, Note_off_c, 1, 66, 0
1, 516, Note_on_c, 1, 64, 104
1, 525, Note_off_c, 2, 63, 0
1, 525, Note_off_c, 4, 47, 0
1, 525, Note_off_c, 5, 35, 0
1, 528, Note_off_c, 0, 64, 0
1, 528, Note_on_c, 0, 66, 96
1, 528, Note_off_c, 1, 64, 0
1, 528, Note_on_c, 1, 66, 104
1, 528, Note_on_c, 2, 66, 104
1, 528, Note_on_c, 4, 51, 96
1, 528, Note_on_c, 5, 39, 96
1, 535, Note_off_c, 3, 59, 0
1, 538, Note_off_c, 0, 66, 0
1, 538, Note_off_c, 1, 66, 0
1, 540, Note_on_c, 0, 69, 96
1, 540, Note_on_c, 1, 69, 104
1, 540, Note_on_c, 3, 61, 104
1, 549, Note_off_c, 2, 66, 0
1, 549, Note_off_c, 4, 51, 0
1, 549, Note_off_c, 5, 39, 0
1, 550, Note_off_c, 0, 69, 0
1, 550, Note_off_c, 1, 69, 0
1, 550, Note_off_c, 3, 61, 0
1, 552, Note_on_c, 0, 68, 96
1, 552, Note_on_c, 1, 68, 104
1, 552, Note_on_c, 2, 63, 104
1, 552, Note_on_c, 3, 59, 104
1, 552, Note_on_c, 4, 47, 96
1, 552, Note_on_c, 5, 35, 96
1, 562, Note_off_c, 0, 68, 0
1, 562, Note_off_c, 1, 68, 0
1, 562, Note_off_c, 3, 59, 0
1, 564, Note_on_c, 0, 66, 96
1, 564, Note_on_c, 1, 66, 104
1, 564, Note_on_c, 3, 57, 104
1, 573, Note_off_c, 2, 63, 0
1, 573, Note_off_c, 4, 47, 0
1, 573, Note_off_c, 5, 35, 0
1, 574, Note_off_c, 0, 66, 0
1, 574, Note_off_c, 1, 66, 0
1, 574, Note_off_c, 3, 57, 0
1, 576, Note_on_c, 0, 64, 96
1, 576, Note_on_c, 1, 64, 104
1, 576, Note_on_c, 2, 59, 104
1, 576, Note_on_c, 3, 56, 104
1, 576, Note_on_c, 4, 40, 96
1, 576, Note_on_c, 5, 28, 96
1, 588, Note_off_c, 0, 64, 0
1, 588, Note_on_c, 0, 66, 96
1, 588, Note_off_c, 1, 64, 0
1, 588, Note_on_c, 1, 66, 104
1, 597, Note_off_c, 2, 59, 0
1, 597, Note_off_c, 3, 56, 0
1, 597, Note_off_c, 4, 40, 0
1, 597, Note_off_c, 5, 28, 0
1, 600, Note_off_c, 0, 66, 0
1, 600, Note_on_c, 0, 68, 96
1, 600, Note_off_c, 1, 66, 0
1, 600, Note_on_c, 1, 68, 104
1, 600, Note_on_c, 2, 71, 104
1, 600, Note_on_c, 3, 64, 104
1, 600, Note_on_c, 4, 52, 96
1, 600, Note_on_c, 5, 40, 96
1, 612, Note_off_c, 0, 68, 0
1, 612, Note_on_c, 0, 71, 96
1, 612, Note_off_c, 1, 68, 0
1, 612, Note_on_c, 1, 71, 104
1, 621, Note_off_c, 2, 71, 0
1, 621, Note_off_c, 3, 64, 0
1, 621, Note_off_c, 4, 52, 0
1, 621, Note_off_c, 5, 40, 0
1, 622, Note_off_c, 0, 71, 0
1, 622, Note_off_c, 1, 71, 0
1, 624, Note_on_c, 0, 76, 96
1, 624, Note_on_c, 1, 76, 104
1, 624, Note_on_c, 2, 71, 104
1, 624, Note_on_c, 3, 68, 104
1, 624, Note_on_c, 4, 51, 96
1, 624, Note_on_c, 5, 39, 96
1, 636, Note_off_c, 0, 76, 0
1, 636, Note_off_c, 1, 76, 0
1, 645, Note_off_c, 2, 71, 0
1, 645, Note_off_c, 3, 68, 0
1, 645, Note_off_c, 4, 51, 0
1, 645, Note_off_c, 5, 39, 0
1, 648, Note_on_c, 0, 76, 96
1, 648, Note_on_c, 1, 76, 104
1, 648, Note_on_c, 2, 73, 104
1, 648, Note_on_c, 3, 68, 104
1, 648, Note_on_c, 4, 49, 96
1, 648, Note_on_c, 5, 37, 96
1, 660, Note_off_c, 0, 76, 0
1, 660, Note_on_c, 0, 75, 96
1, 660, Note_off_c, 1, 76, 0
1, 660, Note_on_c, 1, 75, 104
1, 669, Note_off_c, 2, 73, 0
1, 669, Note_off_c, 4, 49, 0
1, 669, Note_off_c, 5, 37, 0
1, 670, Note_off_c, 0, 75, 0
1, 670, Note_off_c, 1, 75, 0
1, 672, Note_on_c, 0, 78, 96
1, 672, Note_on_c, 1, 78, 104
1, 672, Note_on_c, 2, 68, 104
1, 672, Note_on_c, 4, 47, 96
1, 672, Note_on_c, 5, 35, 96
1, 684, Note_off_c, 0, 78, 0
1, 684, Note_on_c, 0, 76, 96
1, 684, Note_off_c, 1, 78, 0
1, 684, Note_on_c, 1, 76, 104
1, 690, Note_off_c, 3, 68, 0
1, 693, Note_off_c, 2, 68, 0
1, 693, Note_off_c, 4, 47, 0
1, 693, Note_off_c, 5, 35, 0
1, 694, Note_off_c, 0, 76, 0
1, 694, Note_off_c, 1, 76, 0
1, 696, Note_on_c, 0, 75, 96
1, 696, Note_on_c, 1, 75, 104
1, 696, Note_on_c, 2, 69, 104
1, 696, Note_on_c, 3, 66, 104
1, 696, Note_on_c, 4, 45, 96
1, 696, Note_on_c, 5, 33, 96
1, 708, Note_off_c, 0, 75, 0
1, 708, Note_on_c, 0, 73, 96
1, 708, Note_off_c, 1, 75, 0
1, 708, Note_on_c, 1, 73, 104
1, 717, Note_off_c, 2, 69, 0
1, 717, Note_off_c, 3, 66, 0
1, 717, Note_off_c, 4, 45, 0
1, 717, Note_off_c, 5, 33, 0
1, 718, Note_off_c, 0, 73, 0
1, 718, Note_off_c, 1, 73, 0
1, 720, Note_on_c, 0, 64, 96
1, 720, Note_on_c, 1, 64, 104
1, 720, Note_on_c, 2, 71, 104
1, 720, Note_on_c, 3, 64, 104
1, 720, Note_on_c, 4, 44, 96
1, 720, Note_on_c, 5, 32, 96
1, 732, Note_off_c, 0, 64, 0
1, 732, Note_on_c, 0, 66, 96
1, 732, Note_off_c, 1, 64, 0
1, 732, Note_on_c, 1, 66, 104
1, 741, Note_off_c, 2, 71, 0
1, 741, Note_off_c, 3, 64, 0
1, 741, Note_off_c, 4, 44, 0
1, 741, Note_off_c, 5, 32, 0
1, 744, Note_off_c, 0, 66, 0
1, 744, Note_on_c, 0, 68, 96
1, 744, Note_off_c, 1, 66, 0
1, 744, Note_on_c, 1, 68, 104
1, 744, Note_on_c, 2, 74, 104
1, 744, Note_on_c, 3, 59, 104
1, 744, Note_on_c, 4, 42, 96
1, 744, Note_on_c, 5, 30, 96
1, 756, Note_off_c, 0, 68, 0
1, 756, Note_on_c, 0, 71, 96
1, 756, Note_off_c, 1, 68, 0
1, 756, Note_on_c, 1, 71, 104
1, 765, Note_off_c, 2, 74, 0
1, 765, Note_off_c, 3, 59, 0
1, 765, Note_off_c, 4, 42, 0
1, 765, Note_off_c, 5, 30, 0
1, 766, Note_off_c, 0, 71, 0
1, 766, Note_off_c, 1, 71, 0
1, 768, Note_on_c, 0, 74, 96
1, 768, Note_on_c, 1, 74, 104
1, 768, Note_on_c, 2, 71, 104
1, 768, Note_on_c, 3, 56, 104
1, 768, Note_on_c, 4, 40, 96
1, 768, Note_on_c, 5, 28, 96
1, 780, Note_off_c, 0, 74, 0
1, 780, Note_off_c, 1, 74, 0
1, 789, Note_off_c, 2, 71, 0
1, 789, Note_off_c, 3, 56, 0
1, 789, Note_off_c, 4, 40, 0
1, 789, Note_off_c, 5, 28, 0
1, 792, Note_on_c, 0, 74, 96
1, 792, Note_on_c, 1, 74, 104
1, 792, Note_on_c, 2, 68, 104
1, 792, Note_on_c, 3, 52, 104
1, 792, Note_on_c, 4, 52, 96
1, 792, Note_on_c, 5, 40, 96
1, 813, Note_off_c, 2, 68, 0
1, 813, Note_off_c, 4, 52, 0
1, 813, Note_off_c, 5, 40, 0
1, 816, Note_on_c, 2, 69, 104
1, 816, Note_on_c, 4, 54, 96
1, 816, Note_on_c, 5, 42, 96
1, 837, Note_off_c, 2, 69, 0
1, 837, Note_off_c, 4, 54, 0
1, 837, Note_off_c, 5, 42, 0
1, 840, Note_on_c, 2, 71, 104
1, 840, Note_on_c, 4, 56, 96
1, 840, Note_on_c, 5, 44, 96
1, 855, Note_off_c, 0, 74, 0
1, 855, Note_off_c, 1, 74, 0
1, 855, Note_off_c, 3, 52, 0
1, 861, Note_off_c, 2, 71, 0
1, 861, Note_off_c, 4, 56, 0
1, 861, Note_off_c, 5, 44, 0
1, 864, Note_on_c, 0, 73, 96
1, 864, Note_on_c, 1, 73, 104
1, 864, Note_on_c, 2, 69, 104
1, 864, Note_on_c, 3, 64, 104
1, 864, Note_on_c, 4, 57, 96
1, 864, Note_on_c, 5, 45, 96
1, 876, Note_off_c, 0, 73, 0
1, 876, Note_on_c, 0, 76, 96
1, 876, Note_off_c, 1, 73, 0
1, 876, Note_on_c, 1, 76, 104
1, 885, Note_off_c, 2, 69, 0
1, 885, Note_off_c, 3, 64, 0
1, 885, Note_off_c, 4, 57, 0
1, 885, Note_off_c, 5, 45, 0
1, 888, Note_off_c, 0, 76, 0
1, 888, Note_on_c, 0, 81, 96
1, 888, Note_off_c, 1, 76, 0
1, 888, Note_on_c, 1, 81, 104
1, 888, Note_on_c, 2, 73, 104
1, 888, Note_on_c, 3, 66, 104
1, 888, Note_on_c, 4, 54, 96
1, 888, Note_on_c, 5, 42, 96
1, 900, Note_off_c, 0, 81, 0
1, 900, Note_on_c, 0, 80, 96
1, 900, Note_off_c, 1, 81, 0
1, 900, Note_on_c, 1, 80, 104
1, 909, Note_off_c, 2, 73, 0
1, 909, Note_off_c, 3, 66, 0
1, 909, Note_off_c, 4, 54, 0
1, 909, Note_off_c, 5, 42, 0
1, 912, Note_off_c, 0, 80, 0
1, 912, Note_on_c, 0, 78, 96
1, 912, Note_off_c, 1, 80, 0
1, 912, Note_on_c, 1, 78, 104
1, 912, Note_on_c, 2, 73, 104
1, 912, Note_on_c, 3, 66, 104
1, 912, Note_on_c, 4, 57, 96
1, 912, Note_on_c, 5, 45, 96
1, 924, Note_off_c, 0, 78, 0
1, 924, Note_on_c, 0, 76, 96
1, 924, Note_off_c, 1, 78, 0
1, 924, Note_on_c, 1, 76, 104
1, 933, Note_off_c, 2, 73, 0
1, 933, Note_off_c, 3, 66, 0
1, 933, Note_off_c, 4, 57, 0
1, 933, Note_off_c, 5, 45, 0
1, 934, Note_off_c, 0, 76, 0
1, 934, Note_off_c, 1, 76, 0
1, 936, Note_on_c, 0, 75, 96
1, 936, Note_on_c, 1, 75, 104
1, 936, Note_on_c, 2, 71, 104
1, 936, Note_on_c, 3, 66, 104
1, 936, Note_on_c, 4, 59, 96
1, 936, Note_on_c, 5, 47, 96
1, 948, Note_off_c, 0, 75, 0
1, 948, Note_on_c, 0, 73, 96
1, 948, Note_off_c, 1, 75, 0
1, 948, Note_on_c, 1, 73, 104
1, 957, Note_off_c, 2, 71, 0
1, 957, Note_off_c, 3, 66, 0
1, 957, Note_off_c, 4, 59, 0
1, 957, Note_off_c, 5, 47, 0
1, 958, Note_off_c, 0, 73, 0
1, 958, Note_off_c, 1, 73, 0
1, 960, Note_on_c, 0, 76, 96
1, 960, Note_on_c, 1, 76, 104
1, 960, Note_on_c, 2, 71, 104
1, 960, Note_on_c, 3, 66, 104
1, 960, Note_on_c, 4, 61, 96
1, 960, Note_on_c, 5, 49, 96
1, 972, Note_off_c, 0, 76, 0
1, 972, Note_on_c, 0, 75, 96
1, 972, Note_off_c, 1, 76, 0
1, 972, Note_on_c, 1, 75, 104
1, 981, Note_off_c, 2, 71, 0
1, 981, Note_off_c, 3, 66, 0
1, 981, Note_off_c, 4, 61, 0
1, 981, Note_off_c, 5, 49, 0
1, 982, Note_off_c, 0, 75, 0
1, 982, Note_off_c, 1, 75, 0
1, 984, Note_on_c, 0, 73, 96
1, 984, Note_on_c, 1, 73, 104
1, 984, Note_on_c, 2, 71, 104
1, 984, Note_on_c, 3, 66, 104
1, 984, Note_on_c, 4, 63, 96
1, 984, Note_on_c, 5, 51, 96
1, 996, Note_off_c, 0, 73, 0
1, 996, Note_on_c, 0, 71, 96
1, 996, Note_off_c, 1, 73, 0
1, 996, Note_on_c, 1, 71, 104
1, 1005, Note_off_c, 2, 71, 0
1, 1005, Note_off_c, 3, 66, 0
1, 1005, Note_off_c, 4, 63, 0
1, 1005, Note_off_c, 5, 51, 0
1, 1006, Note_off_c, 0, 71, 0
1, 1006, Note_off_c, 1, 71, 0
1, 1008, Note_on_c, 0, 80, 96
1, 1008, Note_on_c, 1, 80, 104
1, 1008, Note_on_c, 2, 71, 104
1, 1008, Note_on_c, 3, 64, 104
1, 1008, Note_on_c, 4, 64, 96
1, 1008, Note_on_c, 5, 52, 96
1, 1020, Note_off_c, 0, 80, 0
1, 1020, Note_off_c, 1, 80, 0
1, 1029, Note_off_c, 2, 71, 0
1, 1029, Note_off_c, 3, 64, 0
1, 1029, Note_off_c, 4, 64, 0
1, 1029, Note_off_c, 5, 52, 0
1, 1032, Note_on_c, 0, 81, 96
1, 1032, Note_on_c, 1, 81, 104
1, 1032, Note_on_c, 2, 73, 104
1, 1032, Note_on_c, 3, 64, 104
1, 1032, Note_on_c, 4, 57, 96
1, 1032, Note_on_c, 5, 45, 96
1, 1044, Note_off_c, 0, 81, 0
1, 1044, Note_off_c, 1, 81, 0
1, 1053, Note_off_c, 2, 73, 0
1, 1053, Note_off_c, 3, 64, 0
1, 1053, Note_off_c, 4, 57, 0
1, 1053, Note_off_c, 5, 45, 0
1, 1056, Note_on_c, 0, 80, 96
1, 1056, Note_on_c, 1, 80, 104
1, 1056, Note_on_c, 2, 71, 104
1, 1056, Note_on_c, 3, 63, 104
1, 1056, Note_on_c, 4, 59, 96
1, 1056, Note_on_c, 5, 47, 96
1, 1062, Note_off_c, 0, 80, 0
1, 1062, Note_on_c, 0, 78, 96
1, 1062, Note_off_c, 1, 80, 0
1, 1062, Note_on_c, 1, 78, 104
1, 1068, Note_off_c, 0, 78, 0
1, 1068, Note_on_c, 0, 80, 96
1, 1068, Note_off_c, 1, 78, 0
1, 1068, Note_on_c, 1, 80, 104
1, 1074, Note_off_c, 0, 80, 0
1, 1074, Note_on_c, 0, 78, 96
1, 1074, Note_off_c, 1, 80, 0
1, 1074, Note_on_c, 1, 78, 104
1, 1077, Note_off_c, 2, 71, 0
1, 1077, Note_off_c, 3, 63, 0
1, 1077, Note_off_c, 4, 59, 0
1, 1077, Note_off_c, 5, 47, 0
1, 1079, Note_off_c, 0, 78, 0
1, 1079, Note_off_c, 1, 78, 0
1, 1080, Note_on_c, 0, 76, 96
1, 1080, Note_on_c, 1, 76, 104
1, 1080, Note_on_c, 2, 71, 104
1, 1080, Note_on_c, 3, 68, 104
1, 1080, Note_on_c, 4, 52, 96
1, 1080, Note_on_c, 5, 40, 96
1, 1101, Note_off_c, 4, 52, 0
1, 1101, Note_off_c, 5, 40, 0
1, 1104, Note_on_c, 4, 44, 80
1, 1104, Note_on_c, 5, 32, 80
1, 1125, Note_off_c, 4, 44, 0
1, 1125, Note_off_c, 5, 32, 0
1, 1128, Note_on_c, 4, 47, 80
1, 1128, Note_on_c, 5, 35, 80
1, 1143, Note_off_c, 0, 76, 0
1, 1143, Note_off_c, 1, 76, 0
1, 1143, Note_off_c, 2, 71, 0
1, 1143, Note_off_c, 3, 68, 0
1, 1149, Note_off_c, 4, 47, 0
1, 1149, Note_off_c, 5, 35, 0
1, 1152, Note_on_c, 0, 71, 96
1, 1152, Note_on_c, 4, 40, 80
1, 1152, Note_on_c, 5, 28, 80
1, 1164, Note_off_c, 0, 71, 0
1, 1164, Note_on_c, 0, 69, 96
1, 1176, Note_off_c, 0, 69, 0
1, 1176, Note_on_c, 0, 68, 96
1, 1188, Note_off_c, 0, 68, 0
1, 1188, Note_on_c, 0, 76, 96
1, 1194, Note_off_c, 4, 40, 0
1, 1194, Note_off_c, 5, 28, 0
1, 1200, Note_off_c, 0, 76, 0
1, 1200, Note_on_c, 0, 71, 96
1, 1212, Note_off_c, 0, 71, 0
1, 1212, Note_on_c, 0, 69, 96
1, 1222, Note_off_c, 0, 69, 0
1, 1224, Note_on_c, 0, 68, 96
1, 1224, Note_on_c, 4, 52, 80
1, 1224, Note_on_c, 5, 40, 80
1, 1236, Note_off_c, 0, 68, 0
1, 1236, Note_on_c, 0, 66, 96
1, 1245, Note_off_c, 4, 52, 0
1, 1245, Note_off_c, 5, 40, 0
1, 1248, Note_off_c, 0, 66, 0
1, 1248, Note_on_c, 0, 64, 96
1, 1248, Note_on_c, 4, 56, 80
1, 1248, Note_on_c, 5, 44, 80
1, 1260, Note_off_c, 0, 64, 0
1, 1260, Note_on_c, 0, 71, 96
1, 1269, Note_off_c, 4, 56, 0
1, 1269, Note_off_c, 5, 44, 0
1, 1272, Note_off_c, 0, 71, 0
1, 1272, Note_on_c, 0, 68, 96
1, 1272, Note_on_c, 4, 52, 80
1, 1272, Note_on_c, 5, 40, 80
1, 1284, Note_off_c, 0, 68, 0
1, 1284, Note_on_c, 0, 66, 96
1, 1293, Note_off_c, 4, 52, 0
1, 1293, Note_off_c, 5, 40, 0
1, 1294, Note_off_c, 0, 66, 0
1, 1296, Note_on_c, 0, 64, 96
1, 1296, Note_on_c, 4, 49, 80
1, 1296, Note_on_c, 5, 37, 80
1, 1308, Note_off_c, 0, 64, 0
1, 1308, Note_on_c, 0, 66, 96
1, 1317, Note_off_c, 4, 49, 0
1, 1317, Note_off_c, 5, 37, 0
1, 1320, Note_off_c, 0, 66, 0
1, 1320, Note_on_c, 0, 68, 96
1, 1320, Note_on_c, 4, 52, 80
1, 1320, Note_on_c, 5, 40, 80
1, 1332, Note_off_c, 0, 68, 0
1, 1332, Note_on_c, 0, 71, 96
1, 1341, Note_off_c, 4, 52, 0
1, 1341, Note_off_c, 5, 40, 0
1, 1344, Note_off_c, 0, 71, 0
1, 1344, Note_on_c, 0, 75, 96
1, 1344, Note_on_c, 4, 49, 80
1, 1344, Note_on_c, 5, 37, 80
1, 1356, Note_off_c, 0, 75, 0
1, 1356, Note_on_c, 0, 76, 96
1, 1365, Note_off_c, 4, 49, 0
1, 1365, Note_off_c, 5, 37, 0
1, 1366, Note_off_c, 0, 76, 0
1, 1368, Note_on_c, 0, 58, 96
1, 1368, Note_on_c, 4, 54, 80
1, 1368, Note_on_c, 5, 42, 80
1, 1380, Note_off_c, 0, 58, 0
1, 1380, Note_on_c, 0, 66, 96
1, 1389, Note_off_c, 4, 54, 0
1, 1389, Note_off_c, 5, 42, 0
1, 1392, Note_off_c, 0, 66, 0
1, 1392, Note_on_c, 0, 76, 96
1, 1392, Note_on_c, 4, 58, 80
1, 1392, Note_on_c, 5, 46, 80
1, 1404, Note_off_c, 0, 76, 0
1, 1404, Note_on_c, 0, 80, 96
1, 1413, Note_off_c, 4, 58, 0
1, 1413, Note_off_c, 5, 46, 0
1, 1416, Note_off_c, 0, 80, 0
1, 1416, Note_on_c, 0, 78, 96
1, 1416, Note_on_c, 4, 54, 80
1, 1416, Note_on_c, 5, 42, 80
1, 1428, Note_off_c, 0, 78, 0
1, 1428, Note_on_c, 0, 76, 96
1, 1437, Note_off_c, 4, 54, 0
1, 1437, Note_off_c, 5, 42, 0
1, 1438, Note_off_c, 0, 76, 0
1, 1440, Note_on_c, 0, 75, 96
1, 1440, Note_on_c, 4, 47, 80
1, 1440, Note_on_c, 5, 35, 80
1, 1452, Note_off_c, 0, 75, 0
1, 1452, Note_on_c, 0, 73, 96
1, 1464, Note_off_c, 0, 73, 0
1, 1464, Note_on_c, 0, 71, 96
1, 1474, Note_off_c, 0, 71, 0
1, 1476, Note_on_c, 0, 83, 96
1, 1482, Note_off_c, 4, 47, 0
1, 1482, Note_off_c, 5, 35, 0
1, 1486, Note_off_c, 0, 83, 0
1, 1488, Note_on_c, 0, 78, 96
1, 1498, Note_off_c, 0, 78, 0
1, 1500, Note_on_c, 0, 76, 96
1, 1510, Note_off_c, 0, 76, 0
1, 1512, Note_on_c, 0, 75, 96
1, 1512, Note_on_c, 4, 59, 80
1, 1512, Note_on_c, 5, 47, 80
1, 1522, Note_off_c, 0, 75, 0
1, 1524, Note_on_c, 0, 73, 96
1, 1533, Note_off_c, 4, 59, 0
1, 1533, Note_off_c, 5, 47, 0
1, 1534, Note_off_c, 0, 73, 0
1, 1536, Note_on_c, 0, 71, 96
1, 1536, Note_on_c, 4, 63, 80
1, 1536, Note_on_c, 5, 51, 80
1, 1546, Note_off_c, 0, 71, 0
1, 1548, Note_on_c, 0, 78, 96
1, 1557, Note_off_c, 4, 63, 0
1, 1557, Note_off_c, 5, 51, 0
1, 1558, Note_off_c, 0, 78, 0
1, 1560, Note_on_c, 0, 75, 96
1, 1560, Note_on_c, 4, 59, 80
1, 1560, Note_on_c, 5, 47, 80
1, 1570, Note_off_c, 0, 75, 0
1, 1572, Note_on_c, 0, 73, 96
1, 1581, Note_off_c, 4, 59, 0
1, 1581, Note_off_c, 5, 47, 0
1, 1582, Note_off_c, 0, 73, 0
1, 1584, Note_on_c, 0, 71, 96
1, 1584, Note_on_c, 4, 56, 80
1, 1584, Note_on_c, 5, 44, 80
1, 1596, Note_off_c, 0, 71, 0
1, 1596, Note_on_c, 0, 73, 96
1, 1605, Note_off_c, 4, 56, 0
1, 1605, Note_off_c, 5, 44, 0
1, 1608, Note_off_c, 0, 73, 0
1, 1608, Note_on_c, 0, 75, 96
1, 1608, Note_on_c, 4, 59, 80
1, 1608, Note_on_c, 5, 47, 80
1, 1620, Note_off_c, 0, 75, 0
1, 1620, Note_on_c, 0, 78, 96
1, 1629, Note_off_c, 4, 59, 0
1, 1629, Note_off_c, 5, 47, 0
1, 1632, Note_off_c, 0, 78, 0
1, 1632, Note_on_c, 0, 82, 96
1, 1632, Note_on_c, 4, 56, 80
1, 1632, Note_on_c, 5, 44, 80
1, 1644, Note_off_c, 0, 82, 0
1, 1644, Note_on_c, 0, 83, 96
1, 1653, Note_off_c, 4, 56, 0
1, 1653, Note_off_c, 5, 44, 0
1, 1654, Note_off_c, 0, 83, 0
1, 1656, Note_on_c, 0, 65, 96
1, 1656, Note_on_c, 4, 49, 80
1, 1656, Note_on_c, 5, 37, 80
1, 1668, Note_off_c, 0, 65, 0
1, 1668, Note_on_c, 0, 73, 96
1, 1677, Note_off_c, 4, 49, 0
1, 1677, Note_off_c, 5, 37, 0
1, 1680, Note_off_c, 0, 73, 0
1, 1680, Note_on_c, 0, 80, 96
1, 1680, Note_on_c, 4, 53, 80
1, 1680, Note_on_c, 5, 41, 80
1, 1692, Note_off_c, 0, 80, 0
1, 1692, Note_on_c, 0, 83, 96
1, 1701, Note_off_c, 4, 53, 0
1, 1701, Note_off_c, 5, 41, 0
1, 1704, Note_off_c, 0, 83, 0
1, 1704, Note_on_c, 0, 82, 96
1, 1704, Note_on_c, 4, 49, 80
1, 1704, Note_on_c, 5, 37, 80
1, 1716, Note_off_c, 0, 82, 0
1, 1716, Note_on_c, 0, 80, 96
1, 1725, Note_off_c, 4, 49, 0
1, 1725, Note_off_c, 5, 37, 0
1, 1726, Note_off_c, 0, 80, 0
1, 1728, Note_on_c, 0, 82, 96
1, 1728, Note_on_c, 4, 54, 80
1, 1728, Note_on_c, 5, 42, 80
1, 1740, Note_off_c, 0, 82, 0
1, 1740, Note_on_c, 0, 83, 96
1, 1752, Note_off_c, 0, 83, 0
1, 1752, Note_on_c, 0, 85, 96
1, 1762, Note_off_c, 0, 85, 0
1, 1764, Note_on_c, 0, 82, 96
1, 1770, Note_off_c, 4, 54, 0
1, 1770, Note_off_c, 5, 42, 0
1, 1774, Note_off_c, 0, 82, 0
1, 1776, Note_on_c, 0, 78, 96
1, 1786, Note_off_c, 0, 78, 0
1, 1788, Note_on_c, 0, 76, 96
1, 1798, Note_off_c, 0, 76, 0
1, 1800, Note_on_c, 0, 75, 96
1, 1800, Note_on_c, 4, 47, 80
1, 1800, Note_on_c, 5, 35, 80
1, 1810, Note_off_c, 0, 75, 0
1, 1812, Note_on_c, 0, 71, 96
1, 1821, Note_off_c, 4, 47, 0
1, 1821, Note_off_c, 5, 35, 0
1, 1822, Note_off_c, 0, 71, 0
1, 1824, Note_on_c, 0, 75, 96
1, 1824, Note_on_c, 4, 49, 80
1, 1824, Note_on_c, 5, 37, 80
1, 1834, Note_off_c, 0, 75, 0
1, 1836, Note_on_c, 0, 78, 96
1, 1845, Note_off_c, 4, 49, 0
1, 1845, Note_off_c, 5, 37, 0
1, 1846, Note_off_c, 0, 78, 0
1, 1848, Note_on_c, 0, 83, 96
1, 1848, Note_on_c, 4, 51, 80
1, 1848, Note_on_c, 5, 39, 80
1, 1858, Note_off_c, 0, 83, 0
1, 1860, Note_on_c, 0, 78, 96
1, 1869, Note_off_c, 4, 51, 0
1, 1869, Note_off_c, 5, 39, 0
1, 1870, Note_off_c, 0, 78, 0
1, 1872, Note_on_c, 0, 80, 96
1, 1872, Note_on_c, 4, 52, 80
1, 1872, Note_on_c, 5, 40, 80
1, 1884, Note_off_c, 0, 80, 0
1, 1884, Note_on_c, 0, 81, 96
1, 1896, Note_off_c, 0, 81, 0
1, 1896, Note_on_c, 0, 83, 96
1, 1908, Note_off_c, 0, 83, 0
1, 1908, Note_on_c, 0, 80, 96
1, 1914, Note_off_c, 4, 52, 0
1, 1914, Note_off_c, 5, 40, 0
1, 1920, Note_off_c, 0, 80, 0
1, 1920, Note_on_c, 0, 76, 96
1, 1932, Note_off_c, 0, 76, 0
1, 1932, Note_on_c, 0, 75, 96
1, 1942, Note_off_c, 0, 75, 0
1, 1944, Note_on_c, 0, 73, 96
1, 1944, Note_on_c, 4, 52, 80
1, 1944, Note_on_c, 5, 40, 80
1, 1954, Note_off_c, 0, 73, 0
1, 1956, Note_on_c, 0, 75, 96
1, 1965, Note_off_c, 4, 52, 0
1, 1965, Note_off_c, 5, 40, 0
1, 1966, Note_off_c, 0, 75, 0
1, 1968, Note_on_c, 0, 76, 96
1, 1968, Note_on_c, 4, 49, 80
1, 1968, Note_on_c, 5, 37, 80
1, 1978, Note_off_c, 0, 76, 0
1, 1980, Note_on_c, 0, 73, 96
1, 1989, Note_off_c, 4, 49, 0
1, 1989, Note_off_c, 5, 37, 0
1, 1990, Note_off_c, 0, 73, 0
1, 1992, Note_on_c, 0, 70, 96
1, 1992, Note_on_c, 4, 52, 80
1, 1992, Note_on_c, 5, 40, 80
1, 2002, Note_off_c, 0, 70, 0
1, 2004, Note_on_c, 0, 68, 96
1, 2013, Note_off_c, 4, 52, 0
1, 2013, Note_off_c, 5, 40, 0
1, 2014, Note_off_c, 0, 68, 0
1, 2016, Note_on_c, 0, 66, 96
1, 2016, Note_on_c, 4, 46, 80
1, 2016, Note_on_c, 5, 34, 80
1, 2028, Note_off_c, 0, 66, 0
1, 2028, Note_on_c, 0, 68, 96
1, 2037, Note_off_c, 4, 46, 0
1, 2037, Note_off_c, 5, 34, 0
1, 2040, Note_off_c, 0, 68, 0
1, 2040, Note_on_c, 0, 70, 96
1, 2040, Note_on_c, 4, 61, 80
1, 2040, Note_on_c, 5, 49, 80
1, 2052, Note_off_c, 0, 70, 0
1, 2052, Note_on_c, 0, 71, 96
1, 2061, Note_off_c, 4, 61, 0
1, 2061, Note_off_c, 5, 49, 0
1, 2064, Note_off_c, 0, 71, 0
1, 2064, Note_on_c, 0, 73, 96
1, 2064, Note_on_c, 4, 59, 80
1, 2064, Note_on_c, 5, 47, 80
1, 2076, Note_off_c, 0, 73, 0
1, 2076, Note_on_c, 0, 75, 96
1, 2085, Note_off_c, 4, 59, 0
1, 2085, Note_off_c, 5, 47, 0
1, 2088, Note_off_c, 0, 75, 0
1, 2088, Note_on_c, 0, 76, 96
1, 2088, Note_on_c, 4, 58, 80
1, 2088, Note_on_c, 5, 46, 80
1, 2100, Note_off_c, 0, 76, 0
1, 2100, Note_on_c, 0, 78, 96
1, 2109, Note_off_c, 4, 58, 0
1, 2109, Note_off_c, 5, 46, 0
1, 2112, Note_off_c, 0, 78, 0
1, 2112, Note_on_c, 0, 80, 96
1, 2112, Note_on_c, 4, 54, 80
1, 2112, Note_on_c, 5, 42, 80
1, 2122, Note_off_c, 0, 80, 0
1, 2124, Note_on_c, 0, 82, 96
1, 2133, Note_off_c, 4, 54, 0
1, 2133, Note_off_c, 5, 42, 0
1, 2136, Note_off_c, 0, 82, 0
1, 2136, Note_on_c, 0, 83, 96
1, 2136, Note_on_c, 4, 52, 80
1, 2136, Note_on_c, 5, 40, 80
1, 2148, Note_off_c, 0, 83, 0
1, 2148, Note_on_c, 0, 82, 96
1, 2157, Note_off_c, 4, 52, 0
1, 2157, Note_off_c, 5, 40, 0
1, 2158, Note_off_c, 0, 82, 0
1, 2160, Note_on_c, 0, 83, 96
1, 2160, Note_on_c, 4, 51, 80
1, 2160, Note_on_c, 5, 39, 80
1, 2170, Note_off_c, 0, 83, 0
1, 2172, Note_on_c, 0, 78, 96
1, 2181, Note_off_c, 4, 51, 0
1, 2181, Note_off_c, 5, 39, 0
1, 2184, Note_off_c, 0, 78, 0
1, 2184, Note_on_c, 0, 75, 96
1, 2184, Note_on_c, 4, 52, 80
1, 2184, Note_on_c, 5, 40, 80
1, 2196, Note_off_c, 0, 75, 0
1, 2196, Note_on_c, 0, 71, 96
1, 2205, Note_off_c, 4, 52, 0
1, 2205, Note_off_c, 5, 40, 0
1, 2208, Note_off_c, 0, 71, 0
1, 2208, Note_on_c, 0, 66, 96
1, 2208, Note_on_c, 4, 54, 80
1, 2208, Note_on_c, 5, 42, 80
1, 2220, Note_off_c, 0, 66, 0
1, 2220, Note_on_c, 0, 70, 96
1, 2229, Note_off_c, 4, 54, 0
1, 2229, Note_off_c, 5, 42, 0
1, 2230, Note_off_c, 0, 70, 0
1, 2232, Note_on_c, 0, 71, 96
1, 2232, Note_on_c, 4, 47, 80
1, 2232, Note_on_c, 5, 35, 80
1, 2242, Note_off_c, 0, 71, 0
1, 2244, Note_on_c, 0, 66, 96
1, 2253, Note_off_c, 4, 47, 0
1, 2253, Note_off_c, 5, 35, 0
1, 2254, Note_off_c, 0, 66, 0
1, 2256, Note_on_c, 0, 63, 96
1, 2256, Note_on_c, 4, 59, 96
1, 2256, Note_on_c, 5, 47, 96
1, 2266, Note_off_c, 0, 63, 0
1, 2266, Note_off_c, 4, 59, 0
1, 2266, Note_off_c, 5, 47, 0
1, 2268, Note_on_c, 0, 66, 96
1, 2268, Note_on_c, 4, 57, 96
1, 2268, Note_on_c, 5, 45, 96
1, 2278, Note_off_c, 0, 66, 0
1, 2278, Note_off_c, 4, 57, 0
1, 2278, Note_off_c, 5, 45, 0
1, 2280, Note_on_c, 0, 59, 96
1, 2280, Note_on_c, 4, 56, 96
1, 2280, Note_on_c, 5, 44, 96
1, 2290, Note_off_c, 4, 56, 0
1, 2290, Note_off_c, 5, 44, 0
1, 2292, Note_on_c, 4, 54, 96
1, 2292, Note_on_c, 5, 42, 96
1, 2301, Note_off_c, 0, 59, 0
1, 2302, Note_off_c, 4, 54, 0
1, 2302, Note_off_c, 5, 42, 0
1, 2304, Note_on_c, 0, 64, 96
1, 2304, Note_on_c, 1, 64, 104
1, 2304, Note_on_c, 2, 68, 104
1, 2304, Note_on_c, 3, 59, 104
1, 2304, Note_on_c, 4, 52, 96
1, 2304, Note_on_c, 5, 40, 96
1, 2316, Note_off_c, 0, 64, 0
1, 2316, Note_on_c, 0, 66, 96
1, 2316, Note_off_c, 1, 64, 0
1, 2316, Note_on_c, 1, 66, 104
1, 2328, Note_off_c, 0, 66, 0
1, 2328, Note_on_c, 0, 68, 96
1, 2328, Note_off_c, 1, 66, 0
1, 2328, Note_on_c, 1, 68, 104
1, 2340, Note_off_c, 0, 68, 0
1, 2340, Note_on_c, 0, 71, 96
1, 2340, Note_off_c, 1, 68, 0
1, 2340, Note_on_c, 1, 71, 104
1, 2346, Note_off_c, 2, 68, 0
1, 2346, Note_off_c, 3, 59, 0
1, 2346, Note_off_c, 4, 52, 0
1, 2346, Note_off_c, 5, 40, 0
1, 2350, Note_off_c, 0, 71, 0
1, 2350, Note_off_c, 1, 71, 0
1, 2352, Note_on_c, 0, 76, 96
1, 2352, Note_on_c, 1, 76, 104
1, 2364, Note_off_c, 0, 76, 0
1, 2364, Note_off_c, 1, 76, 0
1, 2376, Note_on_c, 0, 76, 96
1, 2376, Note_on_c, 1, 76, 104
1, 2376, Note_on_c, 2, 71, 104
1, 2376, Note_on_c, 3, 59, 104
1, 2376, Note_on_c, 4, 56, 96
1, 2376, Note_on_c, 5, 44, 96
1, 2388, Note_off_c, 0, 76, 0
1, 2388, Note_on_c, 0, 75, 96
1, 2388, Note_off_c, 1, 76, 0
1, 2388, Note_on_c, 1, 75, 104
1, 2397, Note_off_c, 2, 71, 0
1, 2397, Note_off_c, 3, 59, 0
1, 2397, Note_off_c, 4, 56, 0
1, 2397, Note_off_c, 5, 44, 0
1, 2398, Note_off_c, 0, 75, 0
1, 2398, Note_off_c, 1, 75, 0
1, 2400, Note_on_c, 0, 78, 96
1, 2400, Note_on_c, 1, 78, 104
1, 2400, Note_on_c, 2, 69, 104
1, 2400, Note_on_c, 3, 63, 104
1, 2400, Note_on_c, 4, 54, 96
1, 2400, Note_on_c, 5, 42, 96
1, 2412, Note_off_c, 0, 78, 0
1, 2412, Note_on_c, 0, 76, 96
1, 2412, Note_off_c, 1, 78, 0
1, 2412, Note_on_c, 1, 76, 104
1, 2421, Note_off_c, 2, 69, 0
1, 2421, Note_off_c, 3, 63, 0
1, 2421, Note_off_c, 4, 54, 0
1, 2421, Note_off_c, 5, 42, 0
1, 2422, Note_off_c, 0, 76, 0
1, 2422, Note_off_c, 1, 76, 0
1, 2424, Note_on_c, 0, 75, 96
1, 2424, Note_on_c, 1, 75, 104
1, 2424, Note_on_c, 2, 71, 104
1, 2424, Note_on_c, 3, 68, 104
1, 2424, Note_on_c, 4, 52, 96
1, 2424, Note_on_c, 5, 40, 96
1, 2436, Note_off_c, 0, 75, 0
1, 2436, Note_on_c, 0, 73, 96
1, 2436, Note_off_c, 1, 75, 0
1, 2436, Note_on_c, 1, 73, 104
1, 2445, Note_off_c, 2, 71, 0
1, 2445, Note_off_c, 3, 68, 0
1, 2445, Note_off_c, 4, 52, 0
1, 2445, Note_off_c, 5, 40, 0
1, 2446, Note_off_c, 0, 73, 0
1, 2446, Note_off_c, 1, 73, 0
1, 2448, Note_on_c, 0, 71, 96
1, 2448, Note_on_c, 1, 71, 104
1, 2448, Note_on_c, 2, 71, 104
1, 2448, Note_on_c, 3, 66, 104
1, 2448, Note_on_c, 4, 51, 96
1, 2448, Note_on_c, 5, 39, 96
1, 2460, Note_off_c, 0, 71, 0
1, 2460, Note_on_c, 0, 73, 96
1, 2460, Note_off_c, 1, 71, 0
1, 2460, Note_on_c, 1, 73, 104
1, 2472, Note_off_c, 0, 73, 0
1, 2472, Note_on_c, 0, 75, 96
1, 2472, Note_off_c, 1, 73, 0
1, 2472, Note_on_c, 1, 75, 104
1, 2484, Note_off_c, 0, 75, 0
1, 2484, Note_on_c, 0, 78, 96
1, 2484, Note_off_c, 1, 75, 0
1, 2484, Note_on_c, 1, 78, 104
1, 2490, Note_off_c, 2, 71, 0
1, 2490, Note_off_c, 3, 66, 0
1, 2490, Note_off_c, 4, 51, 0
1, 2490, Note_off_c, 5, 39, 0
1, 2494, Note_off_c, 0, 78, 0
1, 2494, Note_off_c, 1, 78, 0
1, 2496, Note_on_c, 0, 81, 96
1, 2496, Note_on_c, 1, 81, 104
1, 2508, Note_off_c, 0, 81, 0
1, 2508, Note_off_c, 1, 81, 0
1, 2520, Note_on_c, 0, 81, 96
1, 2520, Note_on_c, 1, 81, 104
1, 2520, Note_on_c, 2, 71, 104
1, 2520, Note_on_c, 3, 66, 104
1, 2520, Note_on_c, 4, 51, 96
1, 2520, Note_on_c, 5, 39, 96
1, 2541, Note_off_c, 2, 71, 0
1, 2541, Note_off_c, 3, 66, 0
1, 2541, Note_off_c, 4, 51, 0
1, 2541, Note_off_c, 5, 39, 0
1, 2544, Note_on_c, 2, 73, 104
1, 2544, Note_on_c, 3, 64, 104
1, 2544, Note_on_c, 4, 49, 96
1, 2544, Note_on_c, 5, 37, 96
1, 2565, Note_off_c, 2, 73, 0
1, 2565, Note_off_c, 3, 64, 0
1, 2565, Note_off_c, 4, 49, 0
1, 2565, Note_off_c, 5, 37, 0
1, 2568, Note_on_c, 2, 75, 104
1, 2568, Note_on_c, 3, 66, 104
1, 2568, Note_on_c, 4, 47, 96
1, 2568, Note_on_c, 5, 35, 96
1, 2583, Note_off_c, 0, 81, 0
1, 2583, Note_off_c, 1, 81, 0
1, 2589, Note_off_c, 2, 75, 0
1, 2589, Note_off_c, 3, 66, 0
1, 2589, Note_off_c, 4, 47, 0
1, 2589, Note_off_c, 5, 35, 0
1, 2592, Note_on_c, 0, 80, 96
1, 2592, Note_on_c, 1, 80, 104
1, 2592, Note_on_c, 2, 76, 104
1, 2592, Note_on_c, 3, 59, 104
1, 2592, Note_on_c, 4, 52, 96
1, 2592, Note_on_c, 5, 40, 96
1, 2604, Note_off_c, 0, 80, 0
1, 2604, Note_on_c, 0, 78, 96
1, 2604, Note_off_c, 1, 80, 0
1, 2604, Note_on_c, 1, 78, 104
1, 2613, Note_off_c, 2, 76, 0
1, 2613, Note_off_c, 4, 52, 0
1, 2613, Note_off_c, 5, 40, 0
1, 2614, Note_off_c, 0, 78, 0
1, 2614, Note_off_c, 1, 78, 0
1, 2616, Note_on_c, 0, 81, 96
1, 2616, Note_on_c, 1, 81, 104
1, 2616, Note_on_c, 2, 71, 104
1, 2616, Note_on_c, 4, 51, 96
1, 2616, Note_on_c, 5, 39, 96
1, 2628, Note_off_c, 0, 81, 0
1, 2628, Note_on_c, 0, 80, 96
1, 2628, Note_off_c, 1, 81, 0
1, 2628, Note_on_c, 1, 80, 104
1, 2634, Note_off_c, 3, 59, 0
1, 2637, Note_off_c, 2, 71, 0
1, 2637, Note_off_c, 4, 51, 0
1, 2637, Note_off_c, 5, 39, 0
1, 2638, Note_off_c, 0, 80, 0
1, 2638, Note_off_c, 1, 80, 0
1, 2640, Note_on_c, 0, 78, 96
1, 2640, Note_on_c, 1, 78, 104
1, 2640, Note_on_c, 2, 70, 104
1, 2640, Note_on_c, 3, 63, 104
1, 2640, Note_on_c, 4, 49, 96
1, 2640, Note_on_c, 5, 37, 96
1, 2652, Note_off_c, 0, 78, 0
1, 2652, Note_on_c, 0, 76, 96
1, 2652, Note_off_c, 1, 78, 0
1, 2652, Note_on_c, 1, 76, 104
1, 2661, Note_off_c, 2, 70, 0
1, 2661, Note_off_c, 3, 63, 0
1, 2661, Note_off_c, 4, 49, 0
1, 2661, Note_off_c, 5, 37, 0
1, 2662, Note_off_c, 0, 76, 0
1, 2662, Note_off_c, 1, 76, 0
1, 2664, Note_on_c, 0, 75, 96
1, 2664, Note_on_c, 1, 75, 104
1, 2664, Note_on_c, 2, 71, 104
1, 2664, Note_on_c, 3, 66, 104
1, 2664, Note_on_c, 4, 47, 96
1, 2664, Note_on_c, 5, 35, 96
1, 2676, Note_off_c, 0, 75, 0
1, 2676, Note_on_c, 0, 73, 96
1, 2676, Note_off_c, 1, 75, 0
1, 2676, Note_on_c, 1, 73, 104
1, 2685, Note_off_c, 2, 71, 0
1, 2685, Note_off_c, 4, 47, 0
1, 2685, Note_off_c, 5, 35, 0
1, 2686, Note_off_c, 0, 73, 0
1, 2686, Note_off_c, 1, 73, 0
1, 2688, Note_on_c, 0, 76, 96
1, 2688, Note_on_c, 1, 76, 104
1, 2688, Note_on_c, 2, 66, 104
1, 2688, Note_on_c, 4, 45, 96
1, 2688, Note_on_c, 5, 33, 96
1, 2700, Note_off_c, 0, 76, 0
1, 2700, Note_on_c, 0, 75, 96
1, 2700, Note_off_c, 1, 76, 0
1, 2700, Note_on_c, 1, 75, 104
1, 2706, Note_off_c, 3, 66, 0
1, 2709, Note_off_c, 2, 66, 0
1, 2709, Note_off_c, 4, 45, 0
1, 2709, Note_off_c, 5, 33, 0
1, 2710, Note_off_c, 0, 75, 0
1, 2710, Note_off_c, 1, 75, 0
1, 2712, Note_on_c, 0, 73, 96
1, 2712, Note_on_c, 1, 73, 104
1, 2712, Note_on_c, 2, 68, 104
1, 2712, Note_on_c, 3, 64, 104
1, 2712, Note_on_c, 4, 44, 96
1, 2712, Note_on_c, 5, 32, 96
1, 2724, Note_off_c, 0, 73, 0
1, 2724, Note_on_c, 0, 71, 96
1, 2724, Note_off_c, 1, 73, 0
1, 2724, Note_on_c, 1, 71, 104
1, 2733, Note_off_c, 2, 68, 0
1, 2733, Note_off_c, 3, 64, 0
1, 2733, Note_off_c, 4, 44, 0
1, 2733, Note_off_c, 5, 32, 0
1, 2734, Note_off_c, 0, 71, 0
1, 2734, Note_off_c, 1, 71, 0
1, 2736, Note_on_c, 0, 69, 96
1, 2736, Note_on_c, 1, 69, 104
1, 2736, Note_on_c, 2, 69, 104
1, 2736, Note_on_c, 3, 63, 104
1, 2736, Note_on_c, 4, 42, 96
1, 2736, Note_on_c, 5, 30, 96
1, 2748, Note_off_c, 0, 69, 0
1, 2748, Note_on_c, 0, 68, 96
1, 2748, Note_off_c, 1, 69, 0
1, 2748, Note_on_c, 1, 68, 104
1, 2757, Note_off_c, 2, 69, 0
1, 2757, Note_off_c, 3, 63, 0
1, 2757, Note_off_c, 4, 42, 0
1, 2757, Note_off_c, 5, 30, 0
1, 2758, Note_off_c, 0, 68, 0
1, 2758, Note_off_c, 1, 68, 0
1, 2760, Note_on_c, 0, 71, 96
1, 2760, Note_on_c, 1, 71, 104
1, 2760, Note_on_c, 2, 66, 104
1, 2760, Note_on_c, 3, 66, 104
1, 2760, Note_on_c, 4, 51, 96
1, 2760, Note_on_c, 5, 39, 96
1, 2772, Note_off_c, 0, 71, 0
1, 2772, Note_on_c, 0, 69, 96
1, 2772, Note_off_c, 1, 71, 0
1, 2772, Note_on_c, 1, 69, 104
1, 2781, Note_off_c, 2, 66, 0
1, 2781, Note_off_c, 3, 66, 0
1, 2781, Note_off_c, 4, 51, 0
1, 2781, Note_off_c, 5, 39, 0
1, 2782, Note_off_c, 0, 69, 0
1, 2782, Note_off_c, 1, 69, 0
1, 2784, Note_on_c, 0, 68, 96
1, 2784, Note_on_c, 1, 68, 104
1, 2784, Note_on_c, 2, 64, 104
1, 2784, Note_on_c, 3, 59, 104
1, 2784, Note_on_c, 4, 52, 96
1, 2784, Note_on_c, 5, 40, 96
1, 2796, Note_off_c, 0, 68, 0
1, 2796, Note_on_c, 0, 69, 96
1, 2796, Note_off_c, 1, 68, 0
1, 2796, Note_on_c, 1, 69, 104
1, 2805, Note_off_c, 2, 64, 0
1, 2805, Note_off_c, 3, 59, 0
1, 2805, Note_off_c, 4, 52, 0
1, 2805, Note_off_c, 5, 40, 0
1, 2806, Note_off_c, 0, 69, 0
1, 2806, Note_off_c, 1, 69, 0
1, 2808, Note_on_c, 0, 66, 96
1, 2808, Note_on_c, 1, 66, 104
1, 2808, Note_on_c, 2, 63, 104
1, 2808, Note_on_c, 3, 59, 104
1, 2808, Note_on_c, 4, 47, 96
1, 2808, Note_on_c, 5, 35, 96
1, 2820, Note_off_c, 0, 66, 0
1, 2820, Note_on_c, 0, 64, 96
1, 2820, Note_off_c, 1, 66, 0
1, 2820, Note_on_c, 1, 64, 104
1, 2829, Note_off_c, 2, 63, 0
1, 2829, Note_off_c, 4, 47, 0
1, 2829, Note_off_c, 5, 35, 0
1, 2832, Note_off_c, 0, 64, 0
1, 2832, Note_on_c, 0, 66, 96
1, 2832, Note_off_c, 1, 64, 0
1, 2832, Note_on_c, 1, 66, 104
1, 2832, Note_on_c, 2, 66, 104
1, 2832, Note_on_c, 4, 51, 96
1, 2832, Note_on_c, 5, 39, 96
1, 2839, Note_off_c, 3, 59, 0
1, 2842, Note_off_c, 0, 66, 0
1, 2842, Note_off_c, 1, 66, 0
1, 2844, Note_on_c, 0, 69, 96
1, 2844, Note_on_c, 1, 69, 104
1, 2844, Note_on_c, 3, 61, 104
1, 2853, Note_off_c, 2, 66, 0
1, 2853, Note_off_c, 4, 51, 0
1, 2853, Note_off_c, 5, 39, 0
1, 2854, Note_off_c, 0, 69, 0
1, 2854, Note_off_c, 1, 69, 0
1, 2854, Note_off_c, 3, 61, 0
1, 2856, Note_on_c, 0, 68, 96
1, 2856, Note_on_c, 1, 68, 104
1, 2856, Note_on_c, 2, 63, 104
1, 2856, Note_on_c, 3, 59, 104
1, 2856, Note_on_c, 4, 47, 96
1, 2856, Note_on_c, 5, 35, 96
1, 2866, Note_off_c, 0, 68, 0
1, 2866, Note_off_c, 1, 68, 0
1, 2866, Note_off_c, 3, 59, 0
1, 2868, Note_on_c, 0, 66, 96
1, 2868, Note_on_c, 1, 66, 104
1, 2868, Note_on_c, 3, 57, 104
1, 2877, Note_off_c, 2, 63, 0
1, 2877, Note_off_c, 4, 47, 0
1, 2877, Note_off_c, 5, 35, 0
1, 2878, Note_off_c, 0, 66, 0
1, 2878, Note_off_c, 1, 66, 0
1, 2878, Note_off_c, 3, 57, 0
1, 2880, Note_on_c, 0, 64, 96
1, 2880, Note_on_c, 1, 64, 104
1, 2880, Note_on_c, 2, 59, 104
1, 2880, Note_on_c, 3, 56, 104
1, 2880, Note_on_c, 4, 40, 96
1, 2880, Note_on_c, 5, 28, 96
1, 2892, Note_off_c, 0, 64, 0
1, 2892, Note_on_c, 0, 66, 96
1, 2892, Note_off_c, 1, 64, 0
1, 2892, Note_on_c, 1, 66, 104
1, 2901, Note_off_c, 2, 59, 0
1, 2901, Note_off_c, 3, 56, 0
1, 2901, Note_off_c, 4, 40, 0
1, 2901, Note_off_c, 5, 28, 0
1, 2904, Note_off_c, 0, 66, 0
1, 2904, Note_on_c, 0, 68, 96
1, 2904, Note_off_c, 1, 66, 0
1, 2904, Note_on_c, 1, 68, 104
1, 2904, Note_on_c, 2, 71, 104
1, 2904, Note_on_c, 3, 64, 104
1, 2904, Note_on_c, 4, 52, 96
1, 2904, Note_on_c, 5, 40, 96
1, 2916, Note_off_c, 0, 68, 0
1, 2916, Note_on_c, 0, 71, 96
1, 2916, Note_off_c, 1, 68, 0
1, 2916, Note_on_c, 1, 71, 104
1, 2925, Note_off_c, 2, 71, 0
1, 2925, Note_off_c, 3, 64, 0
1, 2925, Note_off_c, 4, 52, 0
1, 2925, Note_off_c, 5, 40, 0
1, 2926, Note_off_c, 0, 71, 0
1, 2926, Note_off_c, 1, 71, 0
1, 2928, Note_on_c, 0, 76, 96
1, 2928, Note_on_c, 1, 76, 104
1, 2928, Note_on_c, 2, 71, 104
1, 2928, Note_on_c, 3, 68, 104
1, 2928, Note_on_c, 4, 51, 96
1, 2928, Note_on_c, 5, 39, 96
1, 2940, Note_off_c, 0, 76, 0
1, 2940, Note_off_c, 1, 76, 0
1, 2949, Note_off_c, 2, 71, 0
1, 2949, Note_off_c, 3, 68, 0
1, 2949, Note_off_c, 4, 51, 0
1, 2949, Note_off_c, 5, 39, 0
1, 2952, Note_on_c, 0, 76, 96
1, 2952, Note_on_c, 1, 76, 104
1, 2952, Note_on_c, 2, 73, 104
1, 2952, Note_on_c, 3, 68, 104
1, 2952, Note_on_c, 4, 49, 96
1, 2952, Note_on_c, 5, 37, 96
1, 2964, Note_off_c, 0, 76, 0
1, 2964, Note_on_c, 0, 75, 96
1, 2964, Note_off_c, 1, 76, 0
1, 2964, Note_on_c, 1, 75, 104
1, 2973, Note_off_c, 2, 73, 0
1, 2973, Note_off_c, 4, 49, 0
1, 2973, Note_off_c, 5, 37, 0
1, 2974, Note_off_c, 0, 75, 0
1, 2974, Note_off_c, 1, 75, 0
1, 2976, Note_on_c, 0, 78, 96
1, 2976, Note_on_c, 1, 78, 104
1, 2976, Note_on_c, 2, 68, 104
1, 2976, Note_on_c, 4, 47, 96
1, 2976, Note_on_c, 5, 35, 96
1, 2988, Note_off_c, 0, 78, 0
1, 2988, Note_on_c, 0, 76, 96
1, 2988, Note_off_c, 1, 78, 0
1, 2988, Note_on_c, 1, 76, 104
1, 2994, Note_off_c, 3, 68, 0
1, 2997, Note_off_c, 2, 68, 0
1, 2997, Note_off_c, 4, 47, 0
1, 2997, Note_off_c, 5, 35, 0
1, 2998, Note_off_c, 0, 76, 0
1, 2998, Note_off_c, 1, 76, 0
1, 3000, Note_on_c, 0, 75, 96
1, 3000, Note_on_c, 1, 75, 104
1, 3000, Note_on_c, 2, 69, 104
1, 3000, Note_on_c, 3, 66, 104
1, 3000, Note_on_c, 4, 45, 96
1, 3000, Note_on_c, 5, 33, 96
1, 3012, Note_off_c, 0, 75, 0
1, 3012, Note_on_c, 0, 73, 96
1, 3012, Note_off_c, 1, 75, 0
1, 3012, Note_on_c, 1, 73, 104
1, 3021, Note_off_c, 2, 69, 0
1, 3021, Note_off_c, 3, 66, 0
1, 3021, Note_off_c, 4, 45, 0
1, 3021, Note_off_c, 5, 33, 0
1, 3022, Note_off_c, 0, 73, 0
1, 3022, Note_off_c, 1, 73, 0
1, 3024, Note_on_c, 0, 64, 96
1, 3024, Note_on_c, 1, 64, 104
1, 3024, Note_on_c, 2, 71, 104
1, 3024, Note_on_c, 3, 64, 104
1, 3024, Note_on_c, 4, 44, 96
1, 3024, Note_on_c, 5, 32, 96
1, 3036, Note_off_c, 0, 64, 0
1, 3036, Note_on_c, 0, 66, 96
1, 3036, Note_off_c, 1, 64, 0
1, 3036, Note_on_c, 1, 66, 104
1, 3045, Note_off_c, 2, 71, 0
1, 3045, Note_off_c, 3, 64, 0
1, 3045, Note_off_c, 4, 44, 0
1, 3045, Note_off_c, 5, 32, 0
1, 3048, Note_off_c, 0, 66, 0
1, 3048, Note_on_c, 0, 68, 96
1, 3048, Note_off_c, 1, 66, 0
1, 3048, Note_on_c, 1, 68, 104
1, 3048, Note_on_c, 2, 74, 104
1, 3048, Note_on_c, 3, 59, 104
1, 3048, Note_on_c, 4, 42, 96
1, 3048, Note_on_c, 5, 30, 96
1, 3060, Note_off_c, 0, 68, 0
1, 3060, Note_on_c, 0, 71, 96
1, 3060, Note_off_c, 1, 68, 0
1, 3060, Note_on_c, 1, 71, 104
1, 3069, Note_off_c, 2, 74, 0
1, 3069, Note_off_c, 3, 59, 0
1, 3069, Note_off_c, 4, 42, 0
1, 3069, Note_off_c, 5, 30, 0
1, 3070, Note_off_c, 0, 71, 0
1, 3070, Note_off_c, 1, 71, 0
1, 3072, Note_on_c, 0, 74, 96
1, 3072, Note_on_c, 1, 74, 104
1, 3072, Note_on_c, 2, 71, 104
1, 3072, Note_on_c, 3, 56, 104
1, 3072, Note_on_c, 4, 40, 96
1, 3072, Note_on_c, 5, 28, 96
1, 3084, Note_off_c, 0, 74, 0
1, 3084, Note_off_c, 1, 74, 0
1, 3093, Note_off_c, 2, 71, 0
1, 3093, Note_off_c, 3, 56, 0
1, 3093, Note_off_c, 4, 40, 0
1, 3093, Note_off_c, 5, 28, 0
1, 3096, Note_on_c, 0, 74, 96
1, 3096, Note_on_c, 1, 74, 104
1, 3096, Note_on_c, 2, 68, 104
1, 3096, Note_on_c, 3, 52, 104
1, 3096, Note_on_c, 4, 52, 96
1, 3096, Note_on_c, 5, 40, 96
1, 3117, Note_off_c, 2, 68, 0
1, 3117, Note_off_c, 4, 52, 0
1, 3117, Note_off_c, 5, 40, 0
1, 3120, Note_on_c, 2, 69, 104
1, 3120, Note_on_c, 4, 54, 96
1, 3120, Note_on_c, 5, 42, 96
1, 3141, Note_off_c, 2, 69, 0
1, 3141, Note_off_c, 4, 54, 0
1, 3141, Note_off_c, 5, 42, 0
1, 3144, Note_on_c, 2, 71, 104
1, 3144, Note_on_c, 4, 56, 96
1, 3144, Note_on_c, 5, 44, 96
1, 3159, Note_off_c, 0, 74, 0
1, 3159, Note_off_c, 1, 74, 0
1, 3159, Note_off_c, 3, 52, 0
1, 3165, Note_off_c, 2, 71, 0
1, 3165, Note_off_c, 4, 56, 0
1, 3165, Note_off_c, 5, 44, 0
1, 3168, Note_on_c, 0, 73, 96
1, 3168, Note_on_c, 1, 73, 104
1, 3168, Note_on_c, 2, 69, 104
1, 3168, Note_on_c, 3, 64, 104
1, 3168, Note_on_c, 4, 57, 96
1, 3168, Note_on_c, 5, 45, 96
1, 3180, Note_off_c, 0, 73, 0
1, 3180, Note_on_c, 0, 76, 96
1, 3180, Note_off_c, 1, 73, 0
1, 3180, Note_on_c, 1, 76, 104
1, 3189, Note_off_c, 2, 69, 0
1, 3189, Note_off_c, 3, 64, 0
1, 3189, Note_off_c, 4, 57, 0
1, 3189, Note_off_c, 5, 45, 0
1, 3192, Note_off_c, 0, 76, 0
1, 3192, Note_on_c, 0, 81, 96
1, 3192, Note_off_c, 1, 76, 0
1, 3192, Note_on_c, 1, 81, 104
1, 3192, Note_on_c, 2, 73, 104
1, 3192, Note_on_c, 3, 66, 104
1, 3192, Note_on_c, 4, 54, 96
1, 3192, Note_on_c, 5, 42, 96
1, 3204, Note_off_c, 0, 81, 0
1, 3204, Note_on_c, 0, 80, 96
1, 3204, Note_off_c, 1, 81, 0
1, 3204, Note_on_c, 1, 80, 104
1, 3213, Note_off_c, 2, 73, 0
1, 3213, Note_off_c, 3, 66, 0
1, 3213, Note_off_c, 4, 54, 0
1, 3213, Note_off_c, 5, 42, 0
1, 3216, Note_off_c, 0, 80, 0
1, 3216, Note_on_c, 0, 78, 96
1, 3216, Note_off_c, 1, 80, 0
1, 3216, Note_on_c, 1, 78, 104
1, 3216, Note_on_c, 2, 73, 104
1, 3216, Note_on_c, 3, 66, 104
1, 3216, Note_on_c, 4, 57, 96
1, 3216, Note_on_c, 5, 45, 96
1, 3228, Note_off_c, 0, 78, 0
1, 3228, Note_on_c, 0, 76, 96
1, 3228, Note_off_c, 1, 78, 0
1, 3228, Note_on_c, 1, 76, 104
1, 3237, Note_off_c, 2, 73, 0
1, 3237, Note_off_c, 3, 66, 0
1, 3237, Note_off_c, 4, 57, 0
1, 3237, Note_off_c, 5, 45, 0
1, 3238, Note_off_c, 0, 76, 0
1, 3238, Note_off_c, 1, 76, 0
1, 3240, Note_on_c, 0, 75, 96
1, 3240, Note_on_c, 1, 75, 104
1, 3240, Note_on_c, 2, 71, 104
1, 3240, Note_on_c, 3, 66, 104
1, 3240, Note_on_c, 4, 59, 96
1, 3240, Note_on_c, 5, 47, 96
1, 3252, Note_off_c, 0, 75, 0
1, 3252, Note_on_c, 0, 73, 96
1, 3252, Note_off_c, 1, 75, 0
1, 3252, Note_on_c, 1, 73, 104
1, 3261, Note_off_c, 2, 71, 0
1, 3261, Note_off_c, 3, 66, 0
1, 3261, Note_off_c, 4, 59, 0
1, 3261, Note_off_c, 5, 47, 0
1, 3262, Note_off_c, 0, 73, 0
1, 3262, Note_off_c, 1, 73, 0
1, 3264, Note_on_c, 0, 76, 96
1, 3264, Note_on_c, 1, 76, 104
1, 3264, Note_on_c, 2, 71, 104
1, 3264, Note_on_c, 3, 66, 104
1, 3264, Note_on_c, 4, 61, 96
1, 3264, Note_on_c, 5, 49, 96
1, 3276, Note_off_c, 0, 76, 0
1, 3276, Note_on_c, 0, 75, 96
1, 3276, Note_off_c, 1, 76, 0
1, 3276, Note_on_c, 1, 75, 104
1, 3285, Note_off_c, 2, 71, 0
1, 3285, Note_off_c, 3, 66, 0
1, 3285, Note_off_c, 4, 61, 0
1, 3285, Note_off_c, 5, 49, 0
1, 3286, Note_off_c, 0, 75, 0
1, 3286, Note_off_c, 1, 75, 0
1, 3288, Note_on_c, 0, 73, 96
1, 3288, Note_on_c, 1, 73, 104
1, 3288, Note_on_c, 2, 71, 104
1, 3288, Note_on_c, 3, 66, 104
1, 3288, Note_on_c, 4, 63, 96
1, 3288, Note_on_c, 5, 51, 96
1, 3300, Note_off_c, 0, 73, 0
1, 3300, Note_on_c, 0, 71, 96
1, 3300, Note_off_c, 1, 73, 0
1, 3300, Note_on_c, 1, 71, 104
1, 3309, Note_off_c, 2, 71, 0
1, 3309, Note_off_c, 3, 66, 0
1, 3309, Note_off_c, 4, 63, 0
1, 3309, Note_off_c, 5, 51, 0
1, 3310, Note_off_c, 0, 71, 0
1, 3310, Note_off_c, 1, 71, 0
1, 3312, Note_on_c, 0, 80, 96
1, 3312, Note_on_c, 1, 80, 104
1, 3312, Note_on_c, 2, 71, 104
1, 3312, Note_on_c, 3, 64, 104
1, 3312, Note_on_c, 4, 64, 96
1, 3312, Note_on_c, 5, 52, 96
1, 3324, Note_off_c, 0, 80, 0
1, 3324, Note_off_c, 1, 80, 0
1, 3333, Note_off_c, 2, 71, 0
1, 3333, Note_off_c, 3, 64, 0
1, 3333, Note_off_c, 4, 64, 0
1, 3333, Note_off_c, 5, 52, 0
1, 3336, Note_on_c, 0, 81, 96
1, 3336, Note_on_c, 1, 81, 104
1, 3336, Note_on_c, 2, 73, 104
1, 3336, Note_on_c, 3, 64, 104
1, 3336, Note_on_c, 4, 57, 96
1, 3336, Note_on_c, 5, 45, 96
1, 3348, Note_off_c, 0, 81, 0
1, 3348, Note_off_c, 1, 81, 0
1, 3357, Note_off_c, 2, 73, 0
1, 3357, Note_off_c, 3, 64, 0
1, 3357, Note_off_c, 4, 57, 0
1, 3357, Note_off_c, 5, 45, 0
1, 3360, Note_on_c, 0, 80, 96
1, 3360, Note_on_c, 1, 80, 104
1, 3360, Note_on_c, 2, 71, 104
1, 3360, Note_on_c, 3, 63, 104
1, 3360, Note_on_c, 4, 59, 96
1, 3360, Note_on_c, 5, 47, 96
1, 3366, Note_off_c, 0, 80, 0
1, 3366, Note_on_c, 0, 78, 96
1, 3366, Note_off_c, 1, 80, 0
1, 3366, Note_on_c, 1, 78, 104
1, 3372, Note_off_c, 0, 78, 0
1, 3372, Note_on_c, 0, 80, 96
1, 3372, Note_off_c, 1, 78, 0
1, 3372, Note_on_c, 1, 80, 104
1, 3378, Note_off_c, 0, 80, 0
1, 3378, Note_on_c, 0, 78, 96
1, 3378, Note_off_c, 1, 80, 0
1, 3378, Note_on_c, 1, 78, 104
1, 3381, Note_off_c, 2, 71, 0
1, 3381, Note_off_c, 3, 63, 0
1, 3381, Note_off_c, 4, 59, 0
1, 3381, Note_off_c, 5, 47, 0
1, 3383, Note_off_c, 0, 78, 0
1, 3383, Note_off_c, 1, 78, 0
1, 3384, Note_on_c, 0, 76, 96
1, 3384, Note_on_c, 1, 76, 104
1, 3384, Note_on_c, 2, 68, 104
1, 3384, Note_on_c, 3, 59, 104
1, 3384, Note_on_c, 4, 52, 96
1, 3384, Note_on_c, 5, 40, 96
1, 3405, Note_off_c, 4, 52, 0
1, 3405, Note_off_c, 5, 40, 0
1, 3408, Note_on_c, 4, 54, 80
1, 3408, Note_on_c, 5, 42, 80
1, 3429, Note_off_c, 4, 54, 0
1, 3429, Note_off_c, 5, 42, 0
1, 3432, Note_on_c, 4, 56, 80
1, 3432, Note_on_c, 5, 44, 80
1, 3447, Note_off_c, 0, 76, 0
1, 3447, Note_off_c, 1, 76, 0
1, 3447, Note_off_c, 2, 68, 0
1, 3447, Note_off_c, 3, 59, 0
1, 3453, Note_off_c, 4, 56, 0
1, 3453, Note_off_c, 5, 44, 0
1, 3456, Note_on_c, 0, 80, 96
1, 3456, Note_on_c, 1, 73, 88
1, 3456, Note_on_c, 2, 64, 88
1, 3456, Note_on_c, 3, 61, 88
1, 3456, Note_on_c, 4, 49, 80
1, 3456, Note_on_c, 5, 37, 80
1, 3468, Note_off_c, 0, 80, 0
1, 3468, Note_on_c, 0, 78, 96
1, 3480, Note_off_c, 0, 78, 0
1, 3480, Note_on_c, 0, 76, 96
1, 3480, Note_off_c, 1, 73, 0
1, 3480, Note_on_c, 1, 73, 88
1, 3480, Note_off_c, 2, 64, 0
1, 3480, Note_on_c, 2, 64, 88
1, 3480, Note_off_c, 3, 61, 0
1, 3480, Note_on_c, 3, 61, 88
1, 3492, Note_off_c, 0, 76, 0
1, 3492, Note_on_c, 0, 81, 96
1, 3498, Note_off_c, 4, 49, 0
1, 3498, Note_off_c, 5, 37, 0
1, 3502, Note_off_c, 0, 81, 0
1, 3504, Note_on_c, 0, 80, 96
1, 3504, Note_off_c, 1, 73, 0
1, 3504, Note_on_c, 1, 73, 88
1, 3504, Note_off_c, 2, 64, 0
1, 3504, Note_on_c, 2, 64, 88
1, 3504, Note_off_c, 3, 61, 0
1, 3504, Note_on_c, 3, 61, 88
1, 3514, Note_off_c, 0, 80, 0
1, 3516, Note_on_c, 0, 78, 96
1, 3525, Note_off_c, 1, 73, 0
1, 3525, Note_off_c, 2, 64, 0
1, 3525, Note_off_c, 3, 61, 0
1, 3526, Note_off_c, 0, 78, 0
1, 3528, Note_on_c, 0, 76, 96
1, 3528, Note_on_c, 1, 73, 88
1, 3528, Note_on_c, 2, 68, 88
1, 3528, Note_on_c, 3, 64, 88
1, 3540, Note_off_c, 0, 76, 0
1, 3540, Note_on_c, 0, 75, 96
1, 3552, Note_off_c, 0, 75, 0
1, 3552, Note_on_c, 0, 73, 96
1, 3552, Note_off_c, 1, 73, 0
1, 3552, Note_on_c, 1, 73, 88
1, 3552, Note_off_c, 2, 68, 0
1, 3552, Note_on_c, 2, 68, 88
1, 3552, Note_off_c, 3, 64, 0
1, 3552, Note_on_c, 3, 64, 88
1, 3564, Note_off_c, 0, 73, 0
1, 3564, Note_on_c, 0, 72, 96
1, 3574, Note_off_c, 0, 72, 0
1, 3576, Note_on_c, 0, 73, 96
1, 3576, Note_off_c, 1, 73, 0
1, 3576, Note_on_c, 1, 73, 88
1, 3576, Note_off_c, 2, 68, 0
1, 3576, Note_on_c, 2, 68, 88
1, 3576, Note_off_c, 3, 64, 0
1, 3576, Note_on_c, 3, 64, 88
1, 3586, Note_off_c, 0, 73, 0
1, 3588, Note_on_c, 0, 76, 96
1, 3597, Note_off_c, 1, 73, 0
1, 3597, Note_off_c, 2, 68, 0
1, 3597, Note_off_c, 3, 64, 0
1, 3598, Note_off_c, 0, 76, 0
1, 3600, Note_on_c, 0, 75, 96
1, 3600, Note_on_c, 1, 73, 88
1, 3600, Note_on_c, 2, 69, 88
1, 3600, Note_on_c, 3, 66, 88
1, 3612, Note_off_c, 0, 75, 0
1, 3612, Note_on_c, 0, 76, 96
1, 3621, Note_off_c, 3, 66, 0
1, 3624, Note_off_c, 0, 76, 0
1, 3624, Note_on_c, 0, 78, 96
1, 3624, Note_off_c, 1, 73, 0
1, 3624, Note_on_c, 1, 73, 88
1, 3624, Note_off_c, 2, 69, 0
1, 3624, Note_on_c, 2, 69, 88
1, 3624, Note_on_c, 3, 66, 88
1, 3636, Note_off_c, 0, 78, 0
1, 3636, Note_on_c, 0, 81, 96
1, 3645, Note_off_c, 3, 66, 0
1, 3646, Note_off_c, 0, 81, 0
1, 3648, Note_on_c, 0, 78, 96
1, 3648, Note_off_c, 1, 73, 0
1, 3648, Note_on_c, 1, 78, 88
1, 3648, Note_off_c, 2, 69, 0
1, 3648, Note_on_c, 2, 69, 88
1, 3648, Note_on_c, 3, 66, 88
1, 3658, Note_off_c, 0, 78, 0
1, 3660, Note_on_c, 0, 75, 96
1, 3669, Note_off_c, 1, 78, 0
1, 3669, Note_off_c, 2, 69, 0
1, 3669, Note_off_c, 3, 66, 0
1, 3670, Note_off_c, 0, 75, 0
1, 3672, Note_on_c, 0, 72, 96
1, 3672, Note_on_c, 1, 75, 88
1, 3672, Note_on_c, 2, 68, 88
1, 3672, Note_on_c, 3, 68, 88
1, 3684, Note_off_c, 0, 72, 0
1, 3684, Note_on_c, 0, 73, 96
1, 3696, Note_off_c, 0, 73, 0
1, 3696, Note_on_c, 0, 75, 96
1, 3696, Note_off_c, 1, 75, 0
1, 3696, Note_on_c, 1, 75, 88
1, 3696, Note_off_c, 2, 68, 0
1, 3696, Note_on_c, 2, 72, 88
1, 3696, Note_off_c, 3, 68, 0
1, 3696, Note_on_c, 3, 68, 88
1, 3708, Note_off_c, 0, 75, 0
1, 3708, Note_on_c, 0, 72, 96
1, 3718, Note_off_c, 0, 72, 0
1, 3720, Note_on_c, 0, 68, 96
1, 3720, Note_off_c, 1, 75, 0
1, 3720, Note_on_c, 1, 75, 88
1, 3720, Note_off_c, 2, 72, 0
1, 3720, Note_on_c, 2, 72, 88
1, 3720, Note_off_c, 3, 68, 0
1, 3720, Note_on_c, 3, 68, 88
1, 3730, Note_off_c, 0, 68, 0
1, 3732, Note_on_c, 0, 66, 96
1, 3741, Note_off_c, 1, 75, 0
1, 3741, Note_off_c, 2, 72, 0
1, 3741, Note_off_c, 3, 68, 0
1, 3742, Note_off_c, 0, 66, 0
1, 3744, Note_on_c, 0, 64, 96
1, 3744, Note_on_c, 1, 76, 88
1, 3744, Note_on_c, 2, 73, 88
1, 3744, Note_on_c, 3, 61, 88
1, 3756, Note_off_c, 0, 64, 0
1, 3756, Note_on_c, 0, 68, 96
1, 3765, Note_off_c, 3, 61, 0
1, 3768, Note_off_c, 0, 68, 0
1, 3768, Note_on_c, 0, 73, 96
1, 3768, Note_on_c, 3, 64, 88
1, 3780, Note_off_c, 0, 73, 0
1, 3780, Note_on_c, 0, 75, 96
1, 3789, Note_off_c, 3, 64, 0
1, 3790, Note_off_c, 0, 75, 0
1, 3792, Note_on_c, 0, 76, 96
1, 3792, Note_on_c, 3, 68, 88
1, 3802, Note_off_c, 0, 76, 0
1, 3804, Note_on_c, 0, 73, 96
1, 3813, Note_off_c, 3, 68, 0
1, 3814, Note_off_c, 0, 73, 0
1, 3816, Note_on_c, 0, 69, 96
1, 3816, Note_on_c, 3, 66, 88
1, 3828, Note_off_c, 0, 69, 0
1, 3828, Note_on_c, 0, 71, 96
1, 3837, Note_off_c, 3, 66, 0
1, 3840, Note_off_c, 0, 71, 0
1, 3840, Note_on_c, 0, 73, 96
1, 3840, Note_on_c, 3, 69, 88
1, 3852, Note_off_c, 0, 73, 0
1, 3852, Note_on_c, 0, 69, 96
1, 3861, Note_off_c, 3, 69, 0
1, 3862, Note_off_c, 0, 69, 0
1, 3864, Note_on_c, 0, 66, 96
1, 3864, Note_on_c, 3, 73, 88
1, 3870, Note_off_c, 1, 76, 0
1, 3870, Note_off_c, 2, 73, 0
1, 3874, Note_off_c, 0, 66, 0
1, 3876, Note_on_c, 0, 64, 96
1, 3885, Note_off_c, 3, 73, 0
1, 3886, Note_off_c, 0, 64, 0
1, 3888, Note_on_c, 0, 63, 96
1, 3888, Note_on_c, 1, 75, 88
1, 3888, Note_on_c, 2, 71, 88
1, 3888, Note_on_c, 3, 59, 88
1, 3900, Note_off_c, 0, 63, 0
1, 3900, Note_on_c, 0, 66, 96
1, 3909, Note_off_c, 3, 59, 0
1, 3912, Note_off_c, 0, 66, 0
1, 3912, Note_on_c, 0, 71, 96
1, 3912, Note_on_c, 3, 63, 88
1, 3924, Note_off_c, 0, 71, 0
1, 3924, Note_on_c, 0, 73, 96
1, 3933, Note_off_c, 3, 63, 0
1, 3934, Note_off_c, 0, 73, 0
1, 3936, Note_on_c, 0, 75, 96
1, 3936, Note_on_c, 3, 66, 88
1, 3946, Note_off_c, 0, 75, 0
1, 3948, Note_on_c, 0, 71, 96
1, 3951, Note_off_c, 1, 75, 0
1, 3957, Note_off_c, 3, 66, 0
1, 3958, Note_off_c, 0, 71, 0
1, 3960, Note_on_c, 0, 68, 96
1, 3960, Note_on_c, 1, 76, 88
1, 3960, Note_on_c, 3, 64, 88
1, 3972, Note_off_c, 0, 68, 0
1, 3972, Note_on_c, 0, 69, 96
1, 3981, Note_off_c, 3, 64, 0
1, 3984, Note_off_c, 0, 69, 0
1, 3984, Note_on_c, 0, 71, 96
1, 3984, Note_on_c, 3, 68, 88
1, 3993, Note_off_c, 2, 71, 0
1, 3996, Note_off_c, 0, 71, 0
1, 3996, Note_on_c, 0, 68, 96
1, 4005, Note_off_c, 3, 68, 0
1, 4006, Note_off_c, 0, 68, 0
1, 4008, Note_on_c, 0, 64, 96
1, 4008, Note_on_c, 2, 68, 88
1, 4008, Note_on_c, 3, 71, 88
1, 4018, Note_off_c, 0, 64, 0
1, 4020, Note_on_c, 0, 63, 96
1, 4023, Note_off_c, 1, 76, 0
1, 4029, Note_off_c, 2, 68, 0
1, 4029, Note_off_c, 3, 71, 0
1, 4030, Note_off_c, 0, 63, 0
1, 4032, Note_on_c, 0, 61, 96
1, 4032, Note_on_c, 1, 76, 88
1, 4032, Note_on_c, 2, 68, 88
1, 4032, Note_on_c, 3, 61, 88
1, 4042, Note_off_c, 0, 61, 0
1, 4044, Note_on_c, 0, 64, 96
1, 4056, Note_off_c, 0, 64, 0
1, 4056, Note_on_c, 0, 68, 96
1, 4056, Note_off_c, 1, 76, 0
1, 4056, Note_on_c, 1, 76, 88
1, 4056, Note_off_c, 2, 68, 0
1, 4056, Note_on_c, 2, 68, 88
1, 4056, Note_off_c, 3, 61, 0
1, 4056, Note_on_c, 3, 61, 88
1, 4068, Note_off_c, 0, 68, 0
1, 4068, Note_on_c, 0, 73, 96
1, 4080, Note_off_c, 0, 73, 0
1, 4080, Note_on_c, 0, 75, 96
1, 4080, Note_off_c, 1, 76, 0
1, 4080, Note_on_c, 1, 76, 88
1, 4080, Note_off_c, 2, 68, 0
1, 4080, Note_on_c, 2, 68, 88
1, 4080, Note_off_c, 3, 61, 0
1, 4080, Note_on_c, 3, 61, 88
1, 4092, Note_off_c, 0, 75, 0
1, 4092, Note_on_c, 0, 76, 96
1, 4101, Note_off_c, 1, 76, 0
1, 4101, Note_off_c, 2, 68, 0
1, 4101, Note_off_c, 3, 61, 0
1, 4102, Note_off_c, 0, 76, 0
1, 4104, Note_on_c, 0, 60, 96
1, 4104, Note_on_c, 1, 75, 88
1, 4104, Note_on_c, 2, 68, 88
1, 4104, Note_on_c, 3, 60, 88
1, 4114, Note_off_c, 0, 60, 0
1, 4116, Note_on_c, 0, 63, 96
1, 4128, Note_off_c, 0, 63, 0
1, 4128, Note_on_c, 0, 68, 96
1, 4128, Note_off_c, 1, 75, 0
1, 4128, Note_on_c, 1, 75, 88
1, 4128, Note_off_c, 2, 68, 0
1, 4128, Note_on_c, 2, 68, 88
1, 4128, Note_off_c, 3, 60, 0
1, 4128, Note_on_c, 3, 60, 88
1, 4140, Note_off_c, 0, 68, 0
1, 4140, Note_on_c, 0, 75, 96
1, 4152, Note_off_c, 0, 75, 0
1, 4152, Note_on_c, 0, 76, 96
1, 4152, Note_off_c, 1, 75, 0
1, 4152, Note_on_c, 1, 75, 88
1, 4152, Note_off_c, 2, 68, 0
1, 4152, Note_on_c, 2, 68, 88
1, 4152, Note_off_c, 3, 60, 0
1, 4152, Note_on_c, 3, 60, 88
1, 4164, Note_off_c, 0, 76, 0
1, 4164, Note_on_c, 0, 78, 96
1, 4173, Note_off_c, 1, 75, 0
1, 4173, Note_off_c, 2, 68, 0
1, 4173, Note_off_c, 3, 60, 0
1, 4174, Note_off_c, 0, 78, 0
1, 4176, Note_on_c, 0, 61, 96
1, 4176, Note_on_c, 1, 76, 88
1, 4176, Note_on_c, 2, 68, 88
1, 4176, Note_on_c, 3, 61, 88
1, 4186, Note_off_c, 0, 61, 0
1, 4188, Note_on_c, 0, 68, 96
1, 4200, Note_off_c, 0, 68, 0
1, 4200, Note_on_c, 0, 73, 96
1, 4200, Note_off_c, 1, 76, 0
1, 4200, Note_on_c, 1, 76, 88
1, 4200, Note_off_c, 2, 68, 0
1, 4200, Note_on_c, 2, 68, 88
1, 4200, Note_off_c, 3, 61, 0
1, 4200, Note_on_c, 3, 61, 88
1, 4212, Note_off_c, 0, 73, 0
1, 4212, Note_on_c, 0, 76, 96
1, 4224, Note_off_c, 0, 76, 0
1, 4224, Note_on_c, 0, 78, 96
1, 4224, Note_off_c, 1, 76, 0
1, 4224, Note_on_c, 1, 76, 88
1, 4224, Note_off_c, 2, 68, 0
1, 4224, Note_on_c, 2, 68, 88
1, 4224, Note_off_c, 3, 61, 0
1, 4224, Note_on_c, 3, 61, 88
1, 4236, Note_off_c, 0, 78, 0
1, 4236, Note_on_c, 0, 80, 96
1, 4245, Note_off_c, 1, 76, 0
1, 4245, Note_off_c, 2, 68, 0
1, 4245, Note_off_c, 3, 61, 0
1, 4246, Note_off_c, 0, 80, 0
1, 4248, Note_on_c, 0, 63, 96
1, 4248, Note_on_c, 1, 78, 88
1, 4248, Note_on_c, 2, 72, 88
1, 4248, Note_on_c, 3, 63, 88
1, 4258, Note_off_c, 0, 63, 0
1, 4260, Note_on_c, 0, 66, 96
1, 4272, Note_off_c, 0, 66, 0
1, 4272, Note_on_c, 0, 72, 96
1, 4272, Note_off_c, 1, 78, 0
1, 4272, Note_on_c, 1, 78, 88
1, 4272, Note_off_c, 2, 72, 0
1, 4272, Note_on_c, 2, 72, 88
1, 4272, Note_off_c, 3, 63, 0
1, 4272, Note_on_c, 3, 63, 88
1, 4284, Note_off_c, 0, 72, 0
1, 4284, Note_on_c, 0, 75, 96
1, 4296, Note_off_c, 0, 75, 0
1, 4296, Note_on_c, 0, 78, 96
1, 4296, Note_off_c, 1, 78, 0
1, 4296, Note_on_c, 1, 78, 88
1, 4296, Note_off_c, 2, 72, 0
1, 4296, Note_on_c, 2, 72, 88
1, 4296, Note_off_c, 3, 63, 0
1, 4296, Note_on_c, 3, 63, 88
1, 4308, Note_off_c, 0, 78, 0
1, 4308, Note_on_c, 0, 81, 96
1, 4317, Note_off_c, 1, 78, 0
1, 4317, Note_off_c, 2, 72, 0
1, 4317, Note_off_c, 3, 63, 0
1, 4318, Note_off_c, 0, 81, 0
1, 4320, Note_on_c, 0, 80, 96
1, 4320, Note_on_c, 1, 80, 88
1, 4320, Note_on_c, 2, 73, 88
1, 4320, Note_on_c, 3, 64, 88
1, 4330, Note_off_c, 0, 80, 0
1, 4332, Note_on_c, 0, 78, 96
1, 4342, Note_off_c, 0, 78, 0
1, 4344, Note_on_c, 0, 76, 96
1, 4344, Note_off_c, 1, 80, 0
1, 4344, Note_on_c, 1, 80, 88
1, 4344, Note_off_c, 2, 73, 0
1, 4344, Note_on_c, 2, 73, 88
1, 4344, Note_off_c, 3, 64, 0
1, 4344, Note_on_c, 3, 64, 88
1, 4354, Note_off_c, 0, 76, 0
1, 4356, Note_on_c, 0, 75, 96
1, 4366, Note_off_c, 0, 75, 0
1, 4368, Note_on_c, 0, 73, 96
1, 4368, Note_off_c, 1, 80, 0
1, 4368, Note_on_c, 1, 80, 88
1, 4368, Note_off_c, 2, 73, 0
1, 4368, Note_on_c, 2, 73, 88
1, 4368, Note_off_c, 3, 64, 0
1, 4368, Note_on_c, 3, 64, 88
1, 4378, Note_off_c, 0, 73, 0
1, 4380, Note_on_c, 0, 71, 96
1, 4389, Note_off_c, 3, 64, 0
1, 4390, Note_off_c, 0, 71, 0
1, 4392, Note_on_c, 0, 69, 96
1, 4392, Note_on_c, 3, 66, 88
1, 4402, Note_off_c, 0, 69, 0
1, 4404, Note_on_c, 0, 80, 80
1, 4410, Note_off_c, 1, 80, 0
1, 4410, Note_off_c, 2, 73, 0
1, 4416, Note_off_c, 0, 80, 0
1, 4416, Note_on_c, 0, 78, 80
1, 4416, Note_on_c, 1, 81, 88
1, 4416, Note_on_c, 2, 73, 88
1, 4416, Note_off_c, 3, 66, 0
1, 4416, Note_on_c, 3, 66, 88
1, 4428, Note_off_c, 0, 78, 0
1, 4428, Note_on_c, 0, 76, 80
1, 4428, Note_off_c, 1, 81, 0
1, 4428, Note_on_c, 1, 80, 88
1, 4428, Note_off_c, 2, 73, 0
1, 4428, Note_on_c, 2, 71, 88
1, 4438, Note_off_c, 1, 80, 0
1, 4438, Note_off_c, 2, 71, 0
1, 4440, Note_off_c, 0, 76, 0
1, 4440, Note_on_c, 0, 75, 80
1, 4440, Note_on_c, 1, 78, 88
1, 4440, Note_on_c, 2, 69, 88
1, 4440, Note_off_c, 3, 66, 0
1, 4440, Note_on_c, 3, 66, 88
1, 4452, Note_off_c, 0, 75, 0
1, 4452, Note_on_c, 0, 73, 80
1, 4461, Note_off_c, 2, 69, 0
1, 4461, Note_off_c, 3, 66, 0
1, 4462, Note_off_c, 0, 73, 0
1, 4464, Note_on_c, 0, 72, 80
1, 4464, Note_on_c, 2, 68, 88
1, 4464, Note_on_c, 3, 68, 88
1, 4471, Note_off_c, 1, 78, 0
1, 4474, Note_off_c, 0, 72, 0
1, 4476, Note_on_c, 0, 78, 96
1, 4476, Note_on_c, 1, 81, 88
1, 4485, Note_off_c, 2, 68, 0
1, 4486, Note_off_c, 0, 78, 0
1, 4486, Note_off_c, 1, 81, 0
1, 4488, Note_on_c, 0, 76, 96
1, 4488, Note_on_c, 1, 80, 88
1, 4488, Note_on_c, 2, 68, 88
1, 4488, Note_off_c, 3, 68, 0
1, 4488, Note_on_c, 3, 68, 88
1, 4498, Note_off_c, 0, 76, 0
1, 4500, Note_on_c, 0, 75, 96
1, 4509, Note_off_c, 1, 80, 0
1, 4509, Note_off_c, 2, 68, 0
1, 4510, Note_off_c, 0, 75, 0
1, 4512, Note_on_c, 0, 73, 96
1, 4512, Note_on_c, 1, 75, 88
1, 4512, Note_on_c, 2, 66, 88
1, 4512, Note_off_c, 3, 68, 0
1, 4512, Note_on_c, 3, 68, 88
1, 4518, Note_off_c, 1, 75, 0
1, 4518, Note_on_c, 1, 76, 88
1, 4522, Note_off_c, 0, 73, 0
1, 4524, Note_on_c, 0, 72, 96
1, 4524, Note_off_c, 1, 76, 0
1, 4524, Note_on_c, 1, 75, 88
1, 4528, Note_off_c, 1, 75, 0
1, 4528, Note_on_c, 1, 76, 88
1, 4532, Note_off_c, 1, 76, 0
1, 4532, Note_on_c, 1, 75, 88
1, 4533, Note_off_c, 2, 66, 0
1, 4533, Note_off_c, 3, 68, 0
1, 4534, Note_off_c, 0, 72, 0
1, 4535, Note_off_c, 1, 75, 0
1, 4536, Note_on_c, 0, 73, 96
1, 4536, Note_on_c, 1, 73, 88
1, 4536, Note_on_c, 2, 64, 88
1, 4536, Note_on_c, 3, 61, 88
1, 4546, Note_off_c, 0, 73, 0
1, 4548, Note_on_c, 0, 68, 80
1, 4560, Note_off_c, 0, 68, 0
1, 4560, Note_on_c, 0, 66, 80
1, 4560, Note_on_c, 4, 49, 80
1, 4560, Note_on_c, 5, 37, 80
1, 4572, Note_off_c, 0, 66, 0
1, 4572, Note_on_c, 0, 64, 80
1, 4581, Note_off_c, 4, 49, 0
1, 4581, Note_off_c, 5, 37, 0
1, 4584, Note_off_c, 0, 64, 0
1, 4584, Note_on_c, 0, 63, 80
1, 4584, Note_on_c, 4, 51, 80
1, 4584, Note_on_c, 5, 39, 80
1, 4596, Note_off_c, 0, 63, 0
1, 4596, Note_on_c, 0, 61, 80
1, 4599, Note_off_c, 1, 73, 0
1, 4599, Note_off_c, 2, 64, 0
1, 4599, Note_off_c, 3, 61, 0
1, 4605, Note_off_c, 4, 51, 0
1, 4605, Note_off_c, 5, 39, 0
1, 4606, Note_off_c, 0, 61, 0
1, 4608, Note_on_c, 0, 64, 96
1, 4608, Note_on_c, 1, 64, 104
1, 4608, Note_on_c, 2, 68, 104
1, 4608, Note_on_c, 3, 59, 104
1, 4608, Note_on_c, 4, 52, 96
1, 4608, Note_on_c, 5, 40, 96
1, 4620, Note_off_c, 0, 64, 0
1, 4620, Note_on_c, 0, 66, 96
1, 4620, Note_off_c, 1, 64, 0
1, 4620, Note_on_c, 1, 66, 104
1, 4632, Note_off_c, 0, 66, 0
1, 4632, Note_on_c, 0, 68, 96
1, 4632, Note_off_c, 1, 66, 0
1, 4632, Note_on_c, 1, 68, 104
1, 4644, Note_off_c, 0, 68, 0
1, 4644, Note_on_c, 0, 71, 96
1, 4644, Note_off_c, 1, 68, 0
1, 4644, Note_on_c, 1, 71, 104
1, 4650, Note_off_c, 2, 68, 0
1, 4650, Note_off_c, 3, 59, 0
1, 4650, Note_off_c, 4, 52, 0
1, 4650, Note_off_c, 5, 40, 0
1, 4654, Note_off_c, 0, 71, 0
1, 4654, Note_off_c, 1, 71, 0
1, 4656, Note_on_c, 0, 76, 96
1, 4656, Note_on_c, 1, 76, 104
1, 4668, Note_off_c, 0, 76, 0
1, 4668, Note_off_c, 1, 76, 0
1, 4680, Note_on_c, 0, 76, 96
1, 4680, Note_on_c, 1, 76, 104
1, 4680, Note_on_c, 2, 71, 104
1, 4680, Note_on_c, 3, 59, 104
1, 4680, Note_on_c, 4, 56, 96
1, 4680, Note_on_c, 5, 44, 96
1, 4692, Note_off_c, 0, 76, 0
1, 4692, Note_on_c, 0, 75, 96
1, 4692, Note_off_c, 1, 76, 0
1, 4692, Note_on_c, 1, 75, 104
1, 4701, Note_off_c, 2, 71, 0
1, 4701, Note_off_c, 3, 59, 0
1, 4701, Note_off_c, 4, 56, 0
1, 4701, Note_off_c, 5, 44, 0
1, 4702, Note_off_c, 0, 75, 0
1, 4702, Note_off_c, 1, 75, 0
1, 4704, Note_on_c, 0, 78, 96
1, 4704, Note_on_c, 1, 78, 104
1, 4704, Note_on_c, 2, 69, 104
1, 4704, Note_on_c, 3, 63, 104
1, 4704, Note_on_c, 4, 54, 96
1, 4704, Note_on_c, 5, 42, 96
1, 4716, Note_off_c, 0, 78, 0
1, 4716, Note_on_c, 0, 76, 96
1, 4716, Note_off_c, 1, 78, 0
1, 4716, Note_on_c, 1, 76, 104
1, 4725, Note_off_c, 2, 69, 0
1, 4725, Note_off_c, 3, 63, 0
1, 4725, Note_off_c, 4, 54, 0
1, 4725, Note_off_c, 5, 42, 0
1, 4726, Note_off_c, 0, 76, 0
1, 4726, Note_off_c, 1, 76, 0
1, 4728, Note_on_c, 0, 75, 96
1, 4728, Note_on_c, 1, 75, 104
1, 4728, Note_on_c, 2, 71, 104
1, 4728, Note_on_c, 3, 68, 104
1, 4728, Note_on_c, 4, 52, 96
1, 4728, Note_on_c, 5, 40, 96
1, 4740, Note_off_c, 0, 75, 0
1, 4740, Note_on_c, 0, 73, 96
1, 4740, Note_off_c, 1, 75, 0
1, 4740, Note_on_c, 1, 73, 104
1, 4749, Note_off_c, 2, 71, 0
1, 4749, Note_off_c, 3, 68, 0
1, 4749, Note_off_c, 4, 52, 0
1, 4749, Note_off_c, 5, 40, 0
1, 4750, Note_off_c, 0, 73, 0
1, 4750, Note_off_c, 1, 73, 0
1, 4752, Note_on_c, 0, 71, 96
1, 4752, Note_on_c, 1, 71, 104
1, 4752, Note_on_c, 2, 71, 104
1, 4752, Note_on_c, 3, 66, 104
1, 4752, Note_on_c, 4, 51, 96
1, 4752, Note_on_c, 5, 39, 96
1, 4764, Note_off_c, 0, 71, 0
1, 4764, Note_on_c, 0, 73, 96
1, 4764, Note_off_c, 1, 71, 0
1, 4764, Note_on_c, 1, 73, 104
1, 4776, Note_off_c, 0, 73, 0
1, 4776, Note_on_c, 0, 75, 96
1, 4776, Note_off_c, 1, 73, 0
1, 4776, Note_on_c, 1, 75, 104
1, 4788, Note_off_c, 0, 75, 0
1, 4788, Note_on_c, 0, 78, 96
1, 4788, Note_off_c, 1, 75, 0
1, 4788, Note_on_c, 1, 78, 104
1, 4794, Note_off_c, 2, 71, 0
1, 4794, Note_off_c, 3, 66, 0
1, 4794, Note_off_c, 4, 51, 0
1, 4794, Note_off_c, 5, 39, 0
1, 4798, Note_off_c, 0, 78, 0
1, 4798, Note_off_c, 1, 78, 0
1, 4800, Note_on_c, 0, 81, 96
1, 4800, Note_on_c, 1, 81, 104
1, 4812, Note_off_c, 0, 81, 0
1, 4812, Note_off_c, 1, 81, 0
1, 4824, Note_on_c, 0, 81, 96
1, 4824, Note_on_c, 1, 81, 104
1, 4824, Note_on_c, 2, 71, 104
1, 4824, Note_on_c, 3, 66, 104
1, 4824, Note_on_c, 4, 51, 96
1, 4824, Note_on_c, 5, 39, 96
1, 4845, Note_off_c, 2, 71, 0
1, 4845, Note_off_c, 3, 66, 0
1, 4845, Note_off_c, 4, 51, 0
1, 4845, Note_off_c, 5, 39, 0
1, 4848, Note_on_c, 2, 73, 104
1, 4848, Note_on_c, 3, 64, 104
1, 4848, Note_on_c, 4, 49, 96
1, 4848, Note_on_c, 5, 37, 96
1, 4869, Note_off_c, 2, 73, 0
1, 4869, Note_off_c, 3, 64, 0
1, 4869, Note_off_c, 4, 49, 0
1, 4869, Note_off_c, 5, 37, 0
1, 4872, Note_on_c, 2, 75, 104
1, 4872, Note_on_c, 3, 66, 104
1, 4872, Note_on_c, 4, 47, 96
1, 4872, Note_on_c, 5, 35, 96
1, 4887, Note_off_c, 0, 81, 0
1, 4887, Note_off_c, 1, 81, 0
1, 4893, Note_off_c, 2, 75, 0
1, 4893, Note_off_c, 3, 66, 0
1, 4893, Note_off_c, 4, 47, 0
1, 4893, Note_off_c, 5, 35, 0
1, 4896, Note_on_c, 0, 80, 96
1, 4896, Note_on_c, 1, 80, 104
1, 4896, Note_on_c, 2, 76, 104
1, 4896, Note_on_c, 3, 59, 104
1, 4896, Note_on_c, 4, 52, 96
1, 4896, Note_on_c, 5, 40, 96
1, 4908, Note_off_c, 0, 80, 0
1, 4908, Note_on_c, 0, 78, 96
1, 4908, Note_off_c, 1, 80, 0
1, 4908, Note_on_c, 1, 78, 104
1, 4917, Note_off_c, 2, 76, 0
1, 4917, Note_off_c, 4, 52, 0
1, 4917, Note_off_c, 5, 40, 0
1, 4918, Note_off_c, 0, 78, 0
1, 4918, Note_off_c, 1, 78, 0
1, 4920, Note_on_c, 0, 81, 96
1, 4920, Note_on_c, 1, 81, 104
1, 4920, Note_on_c, 2, 71, 104
1, 4920, Note_on_c, 4, 51, 96
1, 4920, Note_on_c, 5, 39, 96
1, 4932, Note_off_c, 0, 81, 0
1, 4932, Note_on_c, 0, 80, 96
1, 4932, Note_off_c, 1, 81, 0
1, 4932, Note_on_c, 1, 80, 104
1, 4938, Note_off_c, 3, 59, 0
1, 4941, Note_off_c, 2, 71, 0
1, 4941, Note_off_c, 4, 51, 0
1, 4941, Note_off_c, 5, 39, 0
1, 4942, Note_off_c, 0, 80, 0
1, 4942, Note_off_c, 1, 80, 0
1, 4944, Note_on_c, 0, 78, 96
1, 4944, Note_on_c, 1, 78, 104
1, 4944, Note_on_c, 2, 70, 104
1, 4944, Note_on_c, 3, 63, 104
1, 4944, Note_on_c, 4, 49, 96
1, 4944, Note_on_c, 5, 37, 96
1, 4956, Note_off_c, 0, 78, 0
1, 4956, Note_on_c, 0, 76, 96
1, 4956, Note_off_c, 1, 78, 0
1, 4956, Note_on_c, 1, 76, 104
1, 4965, Note_off_c, 2, 70, 0
1, 4965, Note_off_c, 3, 63, 0
1, 4965, Note_off_c, 4, 49, 0
1, 4965, Note_off_c, 5, 37, 0
1, 4966, Note_off_c, 0, 76, 0
1, 4966, Note_off_c, 1, 76, 0
1, 4968, Note_on_c, 0, 75, 96
1, 4968, Note_on_c, 1, 75, 104
1, 4968, Note_on_c, 2, 71, 104
1, 4968, Note_on_c, 3, 66, 104
1, 4968, Note_on_c, 4, 47, 96
1, 4968, Note_on_c, 5, 35, 96
1, 4980, Note_off_c, 0, 75, 0
1, 4980, Note_on_c, 0, 73, 96
1, 4980, Note_off_c, 1, 75, 0
1, 4980, Note_on_c, 1, 73, 104
1, 4989, Note_off_c, 2, 71, 0
1, 4989, Note_off_c, 4, 47, 0
1, 4989, Note_off_c, 5, 35, 0
1, 4990, Note_off_c, 0, 73, 0
1, 4990, Note_off_c, 1, 73, 0
1, 4992, Note_on_c, 0, 76, 96
1, 4992, Note_on_c, 1, 76, 104
1, 4992, Note_on_c, 2, 66, 104
1, 4992, Note_on_c, 4, 45, 96
1, 4992, Note_on_c, 5, 33, 96
1, 5004, Note_off_c, 0, 76, 0
1, 5004, Note_on_c, 0, 75, 96
1, 5004, Note_off_c, 1, 76, 0
1, 5004, Note_on_c, 1, 75, 104
1, 5010, Note_off_c, 3, 66, 0
1, 5013, Note_off_c, 2, 66, 0
1, 5013, Note_off_c, 4, 45, 0
1, 5013, Note_off_c, 5, 33, 0
1, 5014, Note_off_c, 0, 75, 0
1, 5014, Note_off_c, 1, 75, 0
1, 5016, Note_on_c, 0, 73, 96
1, 5016, Note_on_c, 1, 73, 104
1, 5016, Note_on_c, 2, 68, 104
1, 5016, Note_on_c, 3, 64, 104
1, 5016, Note_on_c, 4, 44, 96
1, 5016, Note_on_c, 5, 32, 96
1, 5028, Note_off_c, 0, 73, 0
1, 5028, Note_on_c, 0, 71, 96
1, 5028, Note_off_c, 1, 73, 0
1, 5028, Note_on_c, 1, 71, 104
1, 5037, Note_off_c, 2, 68, 0
1, 5037, Note_off_c, 3, 64, 0
1, 5037, Note_off_c, 4, 44, 0
1, 5037, Note_off_c, 5, 32, 0
1, 5038, Note_off_c, 0, 71, 0
1, 5038, Note_off_c, 1, 71, 0
1, 5040, Note_on_c, 0, 69, 96
1, 5040, Note_on_c, 1, 69, 104
1, 5040, Note_on_c, 2, 69, 104
1, 5040, Note_on_c, 3, 63, 104
1, 5040, Note_on_c, 4, 42, 96
1, 5040, Note_on_c, 5, 30, 96
1, 5052, Note_off_c, 0, 69, 0
1, 5052, Note_on_c, 0, 68, 96
1, 5052, Note_off_c, 1, 69, 0
1, 5052, Note_on_c, 1, 68, 104
1, 5061, Note_off_c, 2, 69, 0
1, 5061, Note_off_c, 3, 63, 0
1, 5061, Note_off_c, 4, 42, 0
1, 5061, Note_off_c, 5, 30, 0
1, 5062, Note_off_c, 0, 68, 0
1, 5062, Note_off_c, 1, 68, 0
1, 5064, Note_on_c, 0, 71, 96
1, 5064, Note_on_c, 1, 71, 104
1, 5064, Note_on_c, 2, 66, 104
1, 5064, Note_on_c, 3, 66, 104
1, 5064, Note_on_c, 4, 51, 96
1, 5064, Note_on_c, 5, 39, 96
1, 5076, Note_off_c, 0, 71, 0
1, 5076, Note_on_c, 0, 69, 96
1, 5076, Note_off_c, 1, 71, 0
1, 5076, Note_on_c, 1, 69, 104
1, 5085, Note_off_c, 2, 66, 0
1, 5085, Note_off_c, 3, 66, 0
1, 5085, Note_off_c, 4, 51, 0
1, 5085, Note_off_c, 5, 39, 0
1, 5086, Note_off_c, 0, 69, 0
1, 5086, Note_off_c, 1, 69, 0
1, 5088, Note_on_c, 0, 68, 96
1, 5088, Note_on_c, 1, 68, 104
1, 5088, Note_on_c, 2, 64, 104
1, 5088, Note_on_c, 3, 59, 104
1, 5088, Note_on_c, 4, 52, 96
1, 5088, Note_on_c, 5, 40, 96
1, 5100, Note_off_c, 0, 68, 0
1, 5100, Note_on_c, 0, 69, 96
1, 5100, Note_off_c, 1, 68, 0
1, 5100, Note_on_c, 1, 69, 104
1, 5109, Note_off_c, 2, 64, 0
1, 5109, Note_off_c, 3, 59, 0
1, 5109, Note_off_c, 4, 52, 0
1, 5109, Note_off_c, 5, 40, 0
1, 5110, Note_off_c, 0, 69, 0
1, 5110, Note_off_c, 1, 69, 0
1, 5112, Note_on_c, 0, 66, 96
1, 5112, Note_on_c, 1, 66, 104
1, 5112, Note_on_c, 2, 63, 104
1, 5112, Note_on_c, 3, 59, 104
1, 5112, Note_on_c, 4, 47, 96
1, 5112, Note_on_c, 5, 35, 96
1, 5124, Note_off_c, 0, 66, 0
1, 5124, Note_on_c, 0, 64, 96
1, 5124, Note_off_c, 1, 66, 0
1, 5124, Note_on_c, 1, 64, 104
1, 5133, Note_off_c, 2, 63, 0
1, 5133, Note_off_c, 4, 47, 0
1, 5133, Note_off_c, 5, 35, 0
1, 5136, Note_off_c, 0, 64, 0
1, 5136, Note_on_c, 0, 66, 96
1, 5136, Note_off_c, 1, 64, 0
1, 5136, Note_on_c, 1, 66, 104
1, 5136, Note_on_c, 2, 66, 104
1, 5136, Note_on_c, 4, 51, 96
1, 5136, Note_on_c, 5, 39, 96
1, 5143, Note_off_c, 3, 59, 0
1, 5146, Note_off_c, 0, 66, 0
1, 5146, Note_off_c, 1, 66, 0
1, 5148, Note_on_c, 0, 69, 96
1, 5148, Note_on_c, 1, 69, 104
1, 5148, Note_on_c, 3, 61, 104
1, 5157, Note_off_c, 2, 66, 0
1, 5157, Note_off_c, 4, 51, 0
1, 5157, Note_off_c, 5, 39, 0
1, 5158, Note_off_c, 0, 69, 0
1, 5158, Note_off_c, 1, 69, 0
1, 5158, Note_off_c, 3, 61, 0
1, 5160, Note_on_c, 0, 68, 96
1, 5160, Note_on_c, 1, 68, 104
1, 5160, Note_on_c, 2, 63, 104
1, 5160, Note_on_c, 3, 59, 104
1, 5160, Note_on_c, 4, 47, 96
1, 5160, Note_on_c, 5, 35, 96
1, 5170, Note_off_c, 0, 68, 0
1, 5170, Note_off_c, 1, 68, 0
1, 5170, Note_off_c, 3, 59, 0
1, 5172, Note_on_c, 0, 66, 96
1, 5172, Note_on_c, 1, 66, 104
1, 5172, Note_on_c, 3, 57, 104
1, 5181, Note_off_c, 2, 63, 0
1, 5181, Note_off_c, 4, 47, 0
1, 5181, Note_off_c, 5, 35, 0
1, 5182, Note_off_c, 0, 66, 0
1, 5182, Note_off_c, 1, 66, 0
1, 5182, Note_off_c, 3, 57, 0
1, 5184, Note_on_c, 0, 64, 96
1, 5184, Note_on_c, 1, 64, 104
1, 5184, Note_on_c, 2, 59, 104
1, 5184, Note_on_c, 3, 56, 104
1, 5184, Note_on_c, 4, 40, 96
1, 5184, Note_on_c, 5, 28, 96
1, 5196, Note_off_c, 0, 64, 0
1, 5196, Note_on_c, 0, 66, 96
1, 5196, Note_off_c, 1, 64, 0
1, 5196, Note_on_c, 1, 66, 104
1, 5205, Note_off_c, 2, 59, 0
1, 5205, Note_off_c, 3, 56, 0
1, 5205, Note_off_c, 4, 40, 0
1, 5205, Note_off_c, 5, 28, 0
1, 5208, Note_off_c, 0, 66, 0
1, 5208, Note_on_c, 0, 68, 96
1, 5208, Note_off_c, 1, 66, 0
1, 5208, Note_on_c, 1, 68, 104
1, 5208, Note_on_c, 2, 71, 104
1, 5208, Note_on_c, 3, 64, 104
1, 5208, Note_on_c, 4, 52, 96
1, 5208, Note_on_c, 5, 40, 96
1, 5220, Note_off_c, 0, 68, 0
1, 5220, Note_on_c, 0, 71, 96
1, 5220, Note_off_c, 1, 68, 0
1, 5220, Note_on_c, 1, 71, 104
1, 5229, Note_off_c, 2, 71, 0
1, 5229, Note_off_c, 3, 64, 0
1, 5229, Note_off_c, 4, 52, 0
1, 5229, Note_off_c, 5, 40, 0
1, 5230, Note_off_c, 0, 71, 0
1, 5230, Note_off_c, 1, 71, 0
1, 5232, Note_on_c, 0, 76, 96
1, 5232, Note_on_c, 1, 76, 104
1, 5232, Note_on_c, 2, 71, 104
1, 5232, Note_on_c, 3, 68, 104
1, 5232, Note_on_c, 4, 51, 96
1, 5232, Note_on_c, 5, 39, 96
1, 5244, Note_off_c, 0, 76, 0
1, 5244, Note_off_c, 1, 76, 0
1, 5253, Note_off_c, 2, 71, 0
1, 5253, Note_off_c, 3, 68, 0
1, 5253, Note_off_c, 4, 51, 0
1, 5253, Note_off_c, 5, 39, 0
1, 5256, Note_on_c, 0, 76, 96
1, 5256, Note_on_c, 1, 76, 104
1, 5256, Note_on_c, 2, 73, 104
1, 5256, Note_on_c, 3, 68, 104
1, 5256, Note_on_c, 4, 49, 96
1, 5256, Note_on_c, 5, 37, 96
1, 5268, Note_off_c, 0, 76, 0
1, 5268, Note_on_c, 0, 75, 96
1, 5268, Note_off_c, 1, 76, 0
1, 5268, Note_on_c, 1, 75, 104
1, 5277, Note_off_c, 2, 73, 0
1, 5277, Note_off_c, 4, 49, 0
1, 5277, Note_off_c, 5, 37, 0
1, 5278, Note_off_c, 0, 75, 0
1, 5278, Note_off_c, 1, 75, 0
1, 5280, Note_on_c, 0, 78, 96
1, 5280, Note_on_c, 1, 78, 104
1, 5280, Note_on_c, 2, 68, 104
1, 5280, Note_on_c, 4, 47, 96
1, 5280, Note_on_c, 5, 35, 96
1, 5292, Note_off_c, 0, 78, 0
1, 5292, Note_on_c, 0, 76, 96
1, 5292, Note_off_c, 1, 78, 0
1, 5292, Note_on_c, 1, 76, 104
1, 5298, Note_off_c, 3, 68, 0
1, 5301, Note_off_c, 2, 68, 0
1, 5301, Note_off_c, 4, 47, 0
1, 5301, Note_off_c, 5, 35, 0
1, 5302, Note_off_c, 0, 76, 0
1, 5302, Note_off_c, 1, 76, 0
1, 5304, Note_on_c, 0, 75, 96
1, 5304, Note_on_c, 1, 75, 104
1, 5304, Note_on_c, 2, 69, 104
1, 5304, Note_on_c, 3, 66, 104
1, 5304, Note_on_c, 4, 45, 96
1, 5304, Note_on_c, 5, 33, 96
1, 5316, Note_off_c, 0, 75, 0
1, 5316, Note_on_c, 0, 73, 96
1, 5316, Note_off_c, 1, 75, 0
1, 5316, Note_on_c, 1, 73, 104
1, 5325, Note_off_c, 2, 69, 0
1, 5325, Note_off_c, 3, 66, 0
1, 5325, Note_off_c, 4, 45, 0
1, 5325, Note_off_c, 5, 33, 0
1, 5326, Note_off_c, 0, 73, 0
1, 5326, Note_off_c, 1, 73, 0
1, 5328, Note_on_c, 0, 64, 96
1, 5328, Note_on_c, 1, 64, 104
1, 5328, Note_on_c, 2, 71, 104
1, 5328, Note_on_c, 3, 64, 104
1, 5328, Note_on_c, 4, 44, 96
1, 5328, Note_on_c, 5, 32, 96
1, 5340, Note_off_c, 0, 64, 0
1, 5340, Note_on_c, 0, 66, 96
1, 5340, Note_off_c, 1, 64, 0
1, 5340, Note_on_c, 1, 66, 104
1, 5349, Note_off_c, 2, 71, 0
1, 5349, Note_off_c, 3, 64, 0
1, 5349, Note_off_c, 4, 44, 0
1, 5349, Note_off_c, 5, 32, 0
1, 5352, Note_off_c, 0, 66, 0
1, 5352, Note_on_c, 0, 68, 96
1, 5352, Note_off_c, 1, 66, 0
1, 5352, Note_on_c, 1, 68, 104
1, 5352, Note_on_c, 2, 74, 104
1, 5352, Note_on_c, 3, 59, 104
1, 5352, Note_on_c, 4, 42, 96
1, 5352, Note_on_c, 5, 30, 96
1, 5364, Note_off_c, 0, 68, 0
1, 5364, Note_on_c, 0, 71, 96
1, 5364, Note_off_c, 1, 68, 0
1, 5364, Note_on_c, 1, 71, 104
1, 5373, Note_off_c, 2, 74, 0
1, 5373, Note_off_c, 3, 59, 0
1, 5373, Note_off_c, 4, 42, 0
1, 5373, Note_off_c, 5, 30, 0
1, 5374, Note_off_c, 0, 71, 0
1, 5374, Note_off_c, 1, 71, 0
1, 5376, Note_on_c, 0, 74, 96
1, 5376, Note_on_c, 1, 74, 104
1, 5376, Note_on_c, 2, 71, 104
1, 5376, Note_on_c, 3, 56, 104
1, 5376, Note_on_c, 4, 40, 96
1, 5376, Note_on_c, 5, 28, 96
1, 5388, Note_off_c, 0, 74, 0
1, 5388, Note_off_c, 1, 74, 0
1, 5397, Note_off_c, 2, 71, 0
1, 5397, Note_off_c, 3, 56, 0
1, 5397, Note_off_c, 4, 40, 0
1, 5397, Note_off_c, 5, 28, 0
1, 5400, Note_on_c, 0, 74, 96
1, 5400, Note_on_c, 1, 74, 104
1, 5400, Note_on_c, 2, 68, 104
1, 5400, Note_on_c, 3, 52, 104
1, 5400, Note_on_c, 4, 52, 96
1, 5400, Note_on_c, 5, 40, 96
1, 5421, Note_off_c, 2, 68, 0
1, 5421, Note_off_c, 4, 52, 0
1, 5421, Note_off_c, 5, 40, 0
1, 5424, Note_on_c, 2, 69, 104
1, 5424, Note_on_c, 4, 54, 96
1, 5424, Note_on_c, 5, 42, 96
1, 5445, Note_off_c, 2, 69, 0
1, 5445, Note_off_c, 4, 54, 0
1, 5445, Note_off_c, 5, 42, 0
1, 5448, Note_on_c, 2, 71, 104
1, 5448, Note_on_c, 4, 56, 96
1, 5448, Note_on_c, 5, 44, 96
1, 5463, Note_off_c, 0, 74, 0
1, 5463, Note_off_c, 1, 74, 0
1, 5463, Note_off_c, 3, 52, 0
1, 5469, Note_off_c, 2, 71, 0
1, 5469, Note_off_c, 4, 56, 0
1, 5469, Note_off_c, 5, 44, 0
1, 5472, Note_on_c, 0, 73, 96
1, 5472, Note_on_c, 1, 73, 104
1, 5472, Note_on_c, 2, 69, 104
1, 5472, Note_on_c, 3, 64, 104
1, 5472, Note_on_c, 4, 57, 96
1, 5472, Note_on_c, 5, 45, 96
1, 5484, Note_off_c, 0, 73, 0
1, 5484, Note_on_c, 0, 76, 96
1, 5484, Note_off_c, 1, 73, 0
1, 5484, Note_on_c, 1, 76, 104
1, 5493, Note_off_c, 2, 69, 0
1, 5493, Note_off_c, 3, 64, 0
1, 5493, Note_off_c, 4, 57, 0
1, 5493, Note_off_c, 5, 45, 0
1, 5496, Note_off_c, 0, 76, 0
1, 5496, Note_on_c, 0, 81, 96
1, 5496, Note_off_c, 1, 76, 0
1, 5496, Note_on_c, 1, 81, 104
1, 5496, Note_on_c, 2, 73, 104
1, 5496, Note_on_c, 3, 66, 104
1, 5496, Note_on_c, 4, 54, 96
1, 5496, Note_on_c, 5, 42, 96
1, 5508, Note_off_c, 0, 81, 0
1, 5508, Note_on_c, 0, 80, 96
1, 5508, Note_off_c, 1, 81, 0
1, 5508, Note_on_c, 1, 80, 104
1, 5517, Note_off_c, 2, 73, 0
1, 5517, Note_off_c, 3, 66, 0
1, 5517, Note_off_c, 4, 54, 0
1, 5517, Note_off_c, 5, 42, 0
1, 5520, Note_off_c, 0, 80, 0
1, 5520, Note_on_c, 0, 78, 96
1, 5520, Note_off_c, 1, 80, 0
1, 5520, Note_on_c, 1, 78, 104
1, 5520, Note_on_c, 2, 73, 104
1, 5520, Note_on_c, 3, 66, 104
1, 5520, Note_on_c, 4, 57, 96
1, 5520, Note_on_c, 5, 45, 96
1, 5532, Note_off_c, 0, 78, 0
1, 5532, Note_on_c, 0, 76, 96
1, 5532, Note_off_c, 1, 78, 0
1, 5532, Note_on_c, 1, 76, 104
1, 5541, Note_off_c, 2, 73, 0
1, 5541, Note_off_c, 3, 66, 0
1, 5541, Note_off_c, 4, 57, 0
1, 5541, Note_off_c, 5, 45, 0
1, 5542, Note_off_c, 0, 76, 0
1, 5542, Note_off_c, 1, 76, 0
1, 5544, Note_on_c, 0, 75, 96
1, 5544, Note_on_c, 1, 75, 104
1, 5544, Note_on_c, 2, 71, 104
1, 5544, Note_on_c, 3, 66, 104
1, 5544, Note_on_c, 4, 59, 96
1, 5544, Note_on_c, 5, 47, 96
1, 5556, Note_off_c, 0, 75, 0
1, 5556, Note_on_c, 0, 73, 96
1, 5556, Note_off_c, 1, 75, 0
1, 5556, Note_on_c, 1, 73, 104
1, 5565, Note_off_c, 2, 71, 0
1, 5565, Note_off_c, 3, 66, 0
1, 5565, Note_off_c, 4, 59, 0
1, 5565, Note_off_c, 5, 47, 0
1, 5566, Note_off_c, 0, 73, 0
1, 5566, Note_off_c, 1, 73, 0
1, 5568, Note_on_c, 0, 76, 96
1, 5568, Note_on_c, 1, 76, 104
1, 5568, Note_on_c, 2, 71, 104
1, 5568, Note_on_c, 3, 66, 104
1, 5568, Note_on_c, 4, 61, 96
1, 5568, Note_on_c, 5, 49, 96
1, 5580, Note_off_c, 0, 76, 0
1, 5580, Note_on_c, 0, 75, 96
1, 5580, Note_off_c, 1, 76, 0
1, 5580, Note_on_c, 1, 75, 104
1, 5589, Note_off_c, 2, 71, 0
1, 5589, Note_off_c, 3, 66, 0
1, 5589, Note_off_c, 4, 61, 0
1, 5589, Note_off_c, 5, 49, 0
1, 5590, Note_off_c, 0, 75, 0
1, 5590, Note_off_c, 1, 75, 0
1, 5592, Note_on_c, 0, 73, 96
1, 5592, Note_on_c, 1, 73, 104
1, 5592, Note_on_c, 2, 71, 104
1, 5592, Note_on_c, 3, 66, 104
1, 5592, Note_on_c, 4, 63, 96
1, 5592, Note_on_c, 5, 51, 96
1, 5604, Note_off_c, 0, 73, 0
1, 5604, Note_on_c, 0, 71, 96
1, 5604, Note_off_c, 1, 73, 0
1, 5604, Note_on_c, 1, 71, 104
1, 5613, Note_off_c, 2, 71, 0
1, 5613, Note_off_c, 3, 66, 0
1, 5613, Note_off_c, 4, 63, 0
1, 5613, Note_off_c, 5, 51, 0
1, 5614, Note_off_c, 0, 71, 0
1, 5614, Note_off_c, 1, 71, 0
1, 5616, Note_on_c, 0, 80, 96
1, 5616, Note_on_c, 1, 80, 104
1, 5616, Note_on_c, 2, 71, 104
1, 5616, Note_on_c, 3, 64, 104
1, 5616, Note_on_c, 4, 64, 96
1, 5616, Note_on_c, 5, 52, 96
1, 5628, Note_off_c, 0, 80, 0
1, 5628, Note_off_c, 1, 80, 0
1, 5637, Note_off_c, 2, 71, 0
1, 5637, Note_off_c, 3, 64, 0
1, 5637, Note_off_c, 4, 64, 0
1, 5637, Note_off_c, 5, 52, 0
1, 5640, Note_on_c, 0, 81, 96
1, 5640, Note_on_c, 1, 81, 104
1, 5640, Note_on_c, 2, 73, 104
1, 5640, Note_on_c, 3, 64, 104
1, 5640, Note_on_c, 4, 57, 96
1, 5640, Note_on_c, 5, 45, 96
1, 5652, Note_off_c, 0, 81, 0
1, 5652, Note_off_c, 1, 81, 0
1, 5661, Note_off_c, 2, 73, 0
1, 5661, Note_off_c, 3, 64, 0
1, 5661, Note_off_c, 4, 57, 0
1, 5661, Note_off_c, 5, 45, 0
1, 5664, Note_on_c, 0, 80, 96
1, 5664, Note_on_c, 1, 80, 104
1, 5664, Note_on_c, 2, 71, 104
1, 5664, Note_on_c, 3, 63, 104
1, 5664, Note_on_c, 4, 59, 96
1, 5664, Note_on_c, 5, 47, 96
1, 5670, Note_off_c, 0, 80, 0
1, 5670, Note_on_c, 0, 78, 96
1, 5670, Note_off_c, 1, 80, 0
1, 5670, Note_on_c, 1, 78, 104
1, 5676, Note_off_c, 0, 78, 0
1, 5676, Note_on_c, 0, 80, 96
1, 5676, Note_off_c, 1, 78, 0
1, 5676, Note_on_c, 1, 80, 104
1, 5682, Note_off_c, 0, 80, 0
1, 5682, Note_on_c, 0, 78, 96
1, 5682, Note_off_c, 1, 80, 0
1, 5682, Note_on_c, 1, 78, 104
1, 5685, Note_off_c, 2, 71, 0
1, 5685, Note_off_c, 3, 63, 0
1, 5685, Note_off_c, 4, 59, 0
1, 5685, Note_off_c, 5, 47, 0
1, 5687, Note_off_c, 0, 78, 0
1, 5687, Note_off_c, 1, 78, 0
1, 5688, Note_on_c, 0, 76, 96
1, 5688, Note_on_c, 1, 76, 104
1, 5688, Note_on_c, 2, 71, 104
1, 5688, Note_on_c, 3, 68, 104
1, 5688, Note_on_c, 4, 52, 96
1, 5688, Note_on_c, 5, 40, 96
1, 5709, Note_off_c, 4, 52, 0
1, 5709, Note_off_c, 5, 40, 0
1, 5712, Note_on_c, 4, 44, 80
1, 5712, Note_on_c, 5, 32, 80
1, 5733, Note_off_c, 4, 44, 0
1, 5733, Note_off_c, 5, 32, 0
1, 5736, Note_on_c, 4, 47, 80
1, 5736, Note_on_c, 5, 35, 80
1, 5751, Note_off_c, 0, 76, 0
1, 5751, Note_off_c, 1, 76, 0
1, 5751, Note_off_c, 2, 71, 0
1, 5751, Note_off_c, 3, 68, 0
1, 5757, Note_off_c, 4, 47, 0
1, 5757, Note_off_c, 5, 35, 0
1, 5760, Note_on_c, 0, 68, 96
1, 5760, Note_on_c, 1, 76, 88
1, 5760, Note_on_c, 2, 71, 88
1, 5760, Note_on_c, 3, 68, 88
1, 5760, Note_on_c, 4, 52, 80
1, 5760, Note_on_c, 5, 40, 80
1, 5770, Note_off_c, 0, 68, 0
1, 5772, Note_on_c, 0, 71, 96
1, 5781, Note_off_c, 4, 52, 0
1, 5781, Note_off_c, 5, 40, 0
1, 5784, Note_off_c, 0, 71, 0
1, 5784, Note_on_c, 0, 76, 96
1, 5784, Note_on_c, 4, 56, 80
1, 5784, Note_on_c, 5, 44, 80
1, 5796, Note_off_c, 0, 76, 0
1, 5796, Note_on_c, 0, 75, 96
1, 5805, Note_off_c, 4, 56, 0
1, 5805, Note_off_c, 5, 44, 0
1, 5808, Note_off_c, 0, 75, 0
1, 5808, Note_on_c, 0, 76, 96
1, 5808, Note_on_c, 4, 54, 80
1, 5808, Note_on_c, 5, 42, 80
1, 5820, Note_off_c, 0, 76, 0
1, 5820, Note_on_c, 0, 71, 96
1, 5823, Note_off_c, 2, 71, 0
1, 5829, Note_off_c, 4, 54, 0
1, 5829, Note_off_c, 5, 42, 0
1, 5830, Note_off_c, 0, 71, 0
1, 5832, Note_on_c, 0, 71, 96
1, 5832, Note_on_c, 0, 68, 96
1, 5832, Note_on_c, 2, 74, 88
1, 5832, Note_on_c, 4, 52, 80
1, 5832, Note_on_c, 5, 40, 80
1, 5844, Note_off_c, 0, 71, 0
1, 5844, Note_on_c, 0, 76, 96
1, 5854, Note_off_c, 0, 76, 0
1, 5856, Note_off_c, 0, 68, 0
1, 5856, Note_on_c, 0, 69, 96
1, 5856, Note_on_c, 0, 66, 96
1, 5868, Note_off_c, 0, 69, 0
1, 5868, Note_on_c, 0, 76, 96
1, 5874, Note_off_c, 4, 52, 0
1, 5874, Note_off_c, 5, 40, 0
1, 5878, Note_off_c, 0, 76, 0
1, 5880, Note_off_c, 0, 66, 0
1, 5880, Note_on_c, 0, 71, 96
1, 5880, Note_on_c, 0, 68, 96
1, 5886, Note_off_c, 3, 68, 0
1, 5892, Note_off_c, 0, 71, 0
1, 5892, Note_on_c, 0, 76, 96
1, 5895, Note_off_c, 2, 74, 0
1, 5902, Note_off_c, 0, 76, 0
1, 5904, Note_off_c, 0, 68, 0
1, 5904, Note_on_c, 0, 73, 96
1, 5904, Note_on_c, 0, 69, 96
1, 5904, Note_on_c, 2, 73, 88
1, 5904, Note_on_c, 3, 69, 88
1, 5904, Note_on_c, 4, 57, 80
1, 5904, Note_on_c, 5, 45, 80
1, 5907, Note_off_c, 1, 76, 0
1, 5916, Note_off_c, 0, 73, 0
1, 5916, Note_on_c, 0, 76, 96
1, 5925, Note_off_c, 2, 73, 0
1, 5925, Note_off_c, 3, 69, 0
1, 5925, Note_off_c, 4, 57, 0
1, 5925, Note_off_c, 5, 45, 0
1, 5926, Note_off_c, 0, 76, 0
1, 5928, Note_off_c, 0, 69, 0
1, 5928, Note_on_c, 0, 74, 96
1, 5928, Note_on_c, 0, 66, 96
1, 5928, Note_on_c, 1, 78, 88
1, 5928, Note_on_c, 2, 71, 88
1, 5928, Note_on_c, 3, 69, 88
1, 5928, Note_on_c, 4, 50, 80
1, 5928, Note_on_c, 5, 38, 80
1, 5940, Note_off_c, 0, 74, 0
1, 5940, Note_on_c, 0, 76, 96
1, 5949, Note_off_c, 1, 78, 0
1, 5949, Note_off_c, 2, 71, 0
1, 5949, Note_off_c, 3, 69, 0
1, 5949, Note_off_c, 4, 50, 0
1, 5949, Note_off_c, 5, 38, 0
1, 5950, Note_off_c, 0, 76, 0
1, 5952, Note_off_c, 0, 66, 0
1, 5952, Note_on_c, 0, 71, 96
1, 5952, Note_on_c, 0, 68, 96
1, 5952, Note_on_c, 1, 76, 88
1, 5952, Note_on_c, 2, 71, 88
1, 5952, Note_on_c, 3, 68, 88
1, 5952, Note_on_c, 4, 52, 80
1, 5952, Note_on_c, 5, 40, 80
1, 5964, Note_off_c, 0, 71, 0
1, 5964, Note_on_c, 0, 76, 96
1, 5973, Note_off_c, 1, 76, 0
1, 5973, Note_off_c, 2, 71, 0
1, 5973, Note_off_c, 3, 68, 0
1, 5973, Note_off_c, 4, 52, 0
1, 5973, Note_off_c, 5, 40, 0
1, 5974, Note_off_c, 0, 76, 0
1, 5976, Note_off_c, 0, 68, 0
1, 5976, Note_on_c, 0, 73, 96
1, 5976, Note_on_c, 0, 69, 96
1, 5976, Note_on_c, 1, 76, 88
1, 5976, Note_on_c, 2, 73, 88
1, 5976, Note_on_c, 3, 69, 88
1, 5976, Note_on_c, 4, 45, 80
1, 5976, Note_on_c, 5, 33, 80
1, 5988, Note_off_c, 0, 73, 0
1, 5988, Note_on_c, 0, 76, 96
1, 5998, Note_off_c, 0, 76, 0
1, 6000, Note_off_c, 0, 69, 0
1, 6000, Note_on_c, 0, 71, 96
1, 6000, Note_on_c, 0, 68, 96
1, 6012, Note_off_c, 0, 71, 0
1, 6012, Note_on_c, 0, 76, 96
1, 6018, Note_off_c, 1, 76, 0
1, 6018, Note_off_c, 2, 73, 0
1, 6018, Note_off_c, 3, 69, 0
1, 6018, Note_off_c, 4, 45, 0
1, 6018, Note_off_c, 5, 33, 0
1, 6022, Note_off_c, 0, 76, 0
1, 6024, Note_off_c, 0, 68, 0
1, 6024, Note_on_c, 0, 73, 96
1, 6024, Note_on_c, 0, 69, 96
1, 6036, Note_off_c, 0, 73, 0
1, 6036, Note_on_c, 0, 76, 96
1, 6046, Note_off_c, 0, 76, 0
1, 6048, Note_off_c, 0, 69, 0
1, 6048, Note_on_c, 0, 76, 96
1, 6048, Note_on_c, 0, 66, 96
1, 6048, Note_on_c, 1, 78, 88
1, 6048, Note_on_c, 2, 71, 88
1, 6048, Note_on_c, 3, 69, 88
1, 6048, Note_on_c, 4, 54, 80
1, 6048, Note_on_c, 5, 42, 80
1, 6060, Note_off_c, 0, 76, 0
1, 6060, Note_on_c, 0, 78, 96
1, 6069, Note_off_c, 4, 54, 0
1, 6069, Note_off_c, 5, 42, 0
1, 6072, Note_off_c, 0, 78, 0
1, 6072, Note_off_c, 0, 66, 0
1, 6072, Note_on_c, 0, 81, 96
1, 6072, Note_on_c, 4, 51, 80
1, 6072, Note_on_c, 5, 39, 80
1, 6084, Note_off_c, 0, 81, 0
1, 6084, Note_on_c, 0, 80, 96
1, 6093, Note_off_c, 4, 51, 0
1, 6093, Note_off_c, 5, 39, 0
1, 6096, Note_off_c, 0, 80, 0
1, 6096, Note_on_c, 0, 81, 96
1, 6096, Note_on_c, 4, 47, 80
1, 6096, Note_on_c, 5, 35, 80
1, 6108, Note_off_c, 0, 81, 0
1, 6108, Note_on_c, 0, 78, 96
1, 6111, Note_off_c, 3, 69, 0
1, 6117, Note_off_c, 4, 47, 0
1, 6117, Note_off_c, 5, 35, 0
1, 6118, Note_off_c, 0, 78, 0
1, 6120, Note_on_c, 0, 71, 96
1, 6120, Note_on_c, 0, 64, 96
1, 6120, Note_on_c, 3, 68, 88
1, 6120, Note_on_c, 4, 52, 80
1, 6120, Note_on_c, 5, 40, 80
1, 6132, Note_off_c, 0, 71, 0
1, 6132, Note_on_c, 0, 80, 96
1, 6132, Note_off_c, 1, 78, 0
1, 6132, Note_off_c, 2, 71, 0
1, 6141, Note_off_c, 3, 68, 0
1, 6142, Note_off_c, 0, 80, 0
1, 6144, Note_off_c, 0, 64, 0
1, 6144, Note_on_c, 0, 73, 96
1, 6144, Note_on_c, 0, 64, 96
1, 6144, Note_on_c, 1, 76, 88
1, 6144, Note_on_c, 2, 73, 88
1, 6144, Note_on_c, 3, 69, 88
1, 6156, Note_off_c, 0, 73, 0
1, 6156, Note_on_c, 0, 80, 96
1, 6162, Note_off_c, 4, 52, 0
1, 6162, Note_off_c, 5, 40, 0
1, 6165, Note_off_c, 1, 76, 0
1, 6165, Note_off_c, 2, 73, 0
1, 6165, Note_off_c, 3, 69, 0
1, 6166, Note_off_c, 0, 80, 0
1, 6168, Note_off_c, 0, 64, 0
1, 6168, Note_on_c, 0, 74, 96
1, 6168, Note_on_c, 0, 64, 96
1, 6168, Note_on_c, 1, 74, 88
1, 6168, Note_on_c, 2, 68, 88
1, 6168, Note_on_c, 3, 71, 88
1, 6180, Note_off_c, 0, 74, 0
1, 6180, Note_on_c, 0, 80, 96
1, 6189, Note_off_c, 1, 74, 0
1, 6189, Note_off_c, 2, 68, 0
1, 6189, Note_off_c, 3, 71, 0
1, 6190, Note_off_c, 0, 80, 0
1, 6192, Note_off_c, 0, 64, 0
1, 6192, Note_on_c, 0, 73, 96
1, 6192, Note_on_c, 0, 69, 96
1, 6192, Note_on_c, 1, 73, 88
1, 6192, Note_on_c, 2, 64, 88
1, 6192, Note_on_c, 3, 73, 88
1, 6192, Note_on_c, 4, 45, 80
1, 6192, Note_on_c, 5, 33, 80
1, 6204, Note_off_c, 0, 73, 0
1, 6204, Note_on_c, 0, 80, 96
1, 6213, Note_off_c, 1, 73, 0
1, 6213, Note_off_c, 2, 64, 0
1, 6213, Note_off_c, 3, 73, 0
1, 6213, Note_off_c, 4, 45, 0
1, 6213, Note_off_c, 5, 33, 0
1, 6214, Note_off_c, 0, 80, 0
1, 6216, Note_off_c, 0, 69, 0
1, 6216, Note_on_c, 0, 73, 96
1, 6216, Note_on_c, 0, 69, 96
1, 6216, Note_on_c, 1, 78, 88
1, 6216, Note_on_c, 2, 69, 88
1, 6216, Note_on_c, 3, 61, 88
1, 6216, Note_on_c, 4, 57, 80
1, 6216, Note_on_c, 5, 45, 80
1, 6228, Note_off_c, 0, 73, 0
1, 6228, Note_on_c, 0, 78, 96
1, 6237, Note_off_c, 1, 78, 0
1, 6237, Note_off_c, 2, 69, 0
1, 6237, Note_off_c, 3, 61, 0
1, 6237, Note_off_c, 4, 57, 0
1, 6237, Note_off_c, 5, 45, 0
1, 6238, Note_off_c, 0, 78, 0
1, 6240, Note_off_c, 0, 69, 0
1, 6240, Note_on_c, 0, 73, 96
1, 6240, Note_on_c, 0, 70, 96
1, 6240, Note_on_c, 1, 76, 88
1, 6240, Note_on_c, 2, 70, 88
1, 6240, Note_on_c, 3, 66, 88
1, 6240, Note_on_c, 4, 54, 80
1, 6240, Note_on_c, 5, 42, 80
1, 6252, Note_off_c, 0, 73, 0
1, 6252, Note_on_c, 0, 76, 96
1, 6261, Note_off_c, 1, 76, 0
1, 6261, Note_off_c, 2, 70, 0
1, 6261, Note_off_c, 3, 66, 0
1, 6261, Note_off_c, 4, 54, 0
1, 6261, Note_off_c, 5, 42, 0
1, 6262, Note_off_c, 0, 76, 0
1, 6264, Note_off_c, 0, 70, 0
1, 6264, Note_on_c, 0, 75, 96
1, 6264, Note_on_c, 1, 75, 88
1, 6264, Note_on_c, 2, 71, 88
1, 6264, Note_on_c, 3, 66, 88
1, 6264, Note_on_c, 4, 59, 80
1, 6264, Note_on_c, 5, 47, 80
1, 6274, Note_off_c, 0, 75, 0
1, 6276, Note_on_c, 0, 73, 96
1, 6288, Note_off_c, 0, 73, 0
1, 6288, Note_on_c, 0, 71, 96
1, 6300, Note_off_c, 0, 71, 0
1, 6300, Note_on_c, 0, 73, 96
1, 6306, Note_off_c, 1, 75, 0
1, 6306, Note_off_c, 2, 71, 0
1, 6306, Note_off_c, 3, 66, 0
1, 6306, Note_off_c, 4, 59, 0
1, 6306, Note_off_c, 5, 47, 0
1, 6312, Note_off_c, 0, 73, 0
1, 6312, Note_on_c, 0, 75, 96
1, 6324, Note_off_c, 0, 75, 0
1, 6324, Note_on_c, 0, 76, 96
1, 6334, Note_off_c, 0, 76, 0
1, 6336, Note_on_c, 0, 78, 96
1, 6336, Note_on_c, 1, 78, 88
1, 6336, Note_on_c, 2, 69, 88
1, 6336, Note_on_c, 3, 63, 88
1, 6336, Note_on_c, 4, 47, 80
1, 6336, Note_on_c, 5, 35, 80
1, 6346, Note_off_c, 0, 78, 0
1, 6348, Note_on_c, 0, 75, 96
1, 6357, Note_off_c, 3, 63, 0
1, 6357, Note_off_c, 4, 47, 0
1, 6357, Note_off_c, 5, 35, 0
1, 6358, Note_off_c, 0, 75, 0
1, 6360, Note_on_c, 0, 71, 96
1, 6360, Note_on_c, 3, 64, 88
1, 6360, Note_on_c, 4, 49, 80
1, 6360, Note_on_c, 5, 37, 80
1, 6370, Note_off_c, 0, 71, 0
1, 6372, Note_on_c, 0, 68, 96
1, 6381, Note_off_c, 3, 64, 0
1, 6381, Note_off_c, 4, 49, 0
1, 6381, Note_off_c, 5, 37, 0
1, 6382, Note_off_c, 0, 68, 0
1, 6384, Note_on_c, 0, 69, 96
1, 6384, Note_on_c, 3, 66, 88
1, 6384, Note_on_c, 4, 51, 80
1, 6384, Note_on_c, 5, 39, 80
1, 6405, Note_off_c, 3, 66, 0
1, 6405, Note_off_c, 4, 51, 0
1, 6405, Note_off_c, 5, 39, 0
1, 6408, Note_on_c, 3, 59, 88
1, 6408, Note_on_c, 4, 52, 80
1, 6408, Note_on_c, 5, 40, 80
1, 6415, Note_off_c, 0, 69, 0
1, 6420, Note_on_c, 0, 66, 96
1, 6420, Note_off_c, 1, 78, 0
1, 6420, Note_off_c, 2, 69, 0
1, 6430, Note_off_c, 0, 66, 0
1, 6432, Note_on_c, 0, 68, 96
1, 6432, Note_on_c, 1, 76, 88
1, 6432, Note_on_c, 2, 68, 88
1, 6442, Note_off_c, 0, 68, 0
1, 6444, Note_on_c, 0, 71, 96
1, 6450, Note_off_c, 3, 59, 0
1, 6450, Note_off_c, 4, 52, 0
1, 6450, Note_off_c, 5, 40, 0
1, 6453, Note_off_c, 1, 76, 0
1, 6453, Note_off_c, 2, 68, 0
1, 6454, Note_off_c, 0, 71, 0
1, 6456, Note_on_c, 0, 76, 96
1, 6456, Note_on_c, 1, 80, 88
1, 6456, Note_on_c, 2, 71, 88
1, 6466, Note_off_c, 0, 76, 0
1, 6466, Note_off_c, 2, 71, 0
1, 6468, Note_on_c, 0, 78, 96
1, 6468, Note_off_c, 1, 80, 0
1, 6468, Note_on_c, 1, 78, 88
1, 6468, Note_on_c, 2, 69, 88
1, 6478, Note_off_c, 0, 78, 0
1, 6478, Note_off_c, 1, 78, 0
1, 6478, Note_off_c, 2, 69, 0
1, 6480, Note_on_c, 0, 80, 96
1, 6480, Note_on_c, 1, 80, 88
1, 6480, Note_on_c, 2, 71, 88
1, 6480, Note_on_c, 3, 65, 88
1, 6480, Note_on_c, 4, 49, 80
1, 6480, Note_on_c, 5, 37, 80
1, 6490, Note_off_c, 0, 80, 0
1, 6492, Note_on_c, 0, 77, 96
1, 6501, Note_off_c, 3, 65, 0
1, 6501, Note_off_c, 4, 49, 0
1, 6501, Note_off_c, 5, 37, 0
1, 6502, Note_off_c, 0, 77, 0
1, 6504, Note_on_c, 0, 73, 96
1, 6504, Note_on_c, 3, 66, 88
1, 6504, Note_on_c, 4, 51, 80
1, 6504, Note_on_c, 5, 39, 80
1, 6514, Note_off_c, 0, 73, 0
1, 6516, Note_on_c, 0, 69, 96
1, 6525, Note_off_c, 3, 66, 0
1, 6525, Note_off_c, 4, 51, 0
1, 6525, Note_off_c, 5, 39, 0
1, 6526, Note_off_c, 0, 69, 0
1, 6528, Note_on_c, 0, 71, 96
1, 6528, Note_on_c, 3, 68, 88
1, 6528, Note_on_c, 4, 53, 80
1, 6528, Note_on_c, 5, 41, 80
1, 6549, Note_off_c, 3, 68, 0
1, 6549, Note_off_c, 4, 53, 0
1, 6549, Note_off_c, 5, 41, 0
1, 6552, Note_on_c, 3, 61, 88
1, 6552, Note_on_c, 4, 54, 80
1, 6552, Note_on_c, 5, 42, 80
1, 6559, Note_off_c, 0, 71, 0
1, 6564, Note_on_c, 0, 68, 96
1, 6564, Note_off_c, 1, 80, 0
1, 6564, Note_off_c, 2, 71, 0
1, 6574, Note_off_c, 0, 68, 0
1, 6576, Note_on_c, 0, 69, 96
1, 6576, Note_on_c, 1, 78, 88
1, 6576, Note_on_c, 2, 69, 88
1, 6586, Note_off_c, 0, 69, 0
1, 6588, Note_on_c, 0, 73, 96
1, 6594, Note_off_c, 3, 61, 0
1, 6594, Note_off_c, 4, 54, 0
1, 6594, Note_off_c, 5, 42, 0
1, 6597, Note_off_c, 1, 78, 0
1, 6597, Note_off_c, 2, 69, 0
1, 6598, Note_off_c, 0, 73, 0
1, 6600, Note_on_c, 0, 78, 96
1, 6600, Note_on_c, 1, 81, 88
1, 6600, Note_on_c, 2, 73, 88
1, 6610, Note_off_c, 0, 78, 0
1, 6612, Note_on_c, 0, 80, 96
1, 6612, Note_off_c, 1, 81, 0
1, 6612, Note_on_c, 1, 80, 88
1, 6612, Note_off_c, 2, 73, 0
1, 6612, Note_on_c, 2, 71, 88
1, 6622, Note_off_c, 0, 80, 0
1, 6622, Note_off_c, 1, 80, 0
1, 6622, Note_off_c, 2, 71, 0
1, 6624, Note_on_c, 0, 81, 96
1, 6624, Note_on_c, 1, 81, 88
1, 6624, Note_on_c, 2, 73, 88
1, 6624, Note_on_c, 3, 66, 88
1, 6624, Note_on_c, 4, 54, 80
1, 6624, Note_on_c, 5, 42, 80
1, 6634, Note_off_c, 0, 81, 0
1, 6636, Note_on_c, 0, 78, 96
1, 6645, Note_off_c, 2, 73, 0
1, 6645, Note_off_c, 3, 66, 0
1, 6648, Note_off_c, 0, 78, 0
1, 6648, Note_on_c, 0, 76, 96
1, 6648, Note_on_c, 2, 78, 88
1, 6648, Note_on_c, 3, 69, 88
1, 6660, Note_off_c, 0, 76, 0
1, 6660, Note_on_c, 0, 73, 96
1, 6666, Note_off_c, 1, 81, 0
1, 6666, Note_off_c, 4, 54, 0
1, 6666, Note_off_c, 5, 42, 0
1, 6669, Note_off_c, 2, 78, 0
1, 6669, Note_off_c, 3, 69, 0
1, 6672, Note_off_c, 0, 73, 0
1, 6672, Note_on_c, 0, 74, 96
1, 6682, Note_off_c, 0, 74, 0
1, 6684, Note_on_c, 0, 78, 96
1, 6694, Note_off_c, 0, 78, 0
1, 6696, Note_on_c, 0, 83, 96
1, 6696, Note_on_c, 1, 83, 88
1, 6696, Note_on_c, 2, 76, 88
1, 6696, Note_on_c, 3, 64, 88
1, 6696, Note_on_c, 4, 56, 80
1, 6696, Note_on_c, 5, 44, 80
1, 6706, Note_off_c, 0, 83, 0
1, 6708, Note_on_c, 0, 80, 96
1, 6717, Note_off_c, 2, 76, 0
1, 6717, Note_off_c, 3, 64, 0
1, 6718, Note_off_c, 0, 80, 0
1, 6720, Note_on_c, 0, 76, 96
1, 6720, Note_on_c, 2, 68, 88
1, 6720, Note_on_c, 3, 71, 88
1, 6732, Note_off_c, 0, 76, 0
1, 6732, Note_on_c, 0, 73, 96
1, 6738, Note_off_c, 1, 83, 0
1, 6738, Note_off_c, 4, 56, 0
1, 6738, Note_off_c, 5, 44, 0
1, 6741, Note_off_c, 2, 68, 0
1, 6741, Note_off_c, 3, 71, 0
1, 6744, Note_off_c, 0, 73, 0
1, 6744, Note_on_c, 0, 74, 96
1, 6754, Note_off_c, 0, 74, 0
1, 6756, Note_on_c, 0, 71, 96
1, 6766, Note_off_c, 0, 71, 0
1, 6768, Note_on_c, 0, 73, 96
1, 6768, Note_on_c, 1, 76, 88
1, 6768, Note_on_c, 2, 73, 88
1, 6768, Note_on_c, 3, 69, 88
1, 6768, Note_on_c, 4, 57, 80
1, 6768, Note_on_c, 5, 45, 80
1, 6778, Note_off_c, 0, 73, 0
1, 6780, Note_on_c, 0, 76, 96
1, 6789, Note_off_c, 1, 76, 0
1, 6789, Note_off_c, 2, 73, 0
1, 6789, Note_off_c, 3, 69, 0
1, 6789, Note_off_c, 4, 57, 0
1, 6789, Note_off_c, 5, 45, 0
1, 6790, Note_off_c, 0, 76, 0
1, 6792, Note_on_c, 0, 78, 96
1, 6792, Note_on_c, 1, 78, 88
1, 6792, Note_on_c, 2, 74, 88
1, 6792, Note_on_c, 3, 69, 88
1, 6792, Note_on_c, 4, 50, 80
1, 6792, Note_on_c, 5, 38, 80
1, 6802, Note_off_c, 0, 78, 0
1, 6804, Note_on_c, 0, 74, 96
1, 6813, Note_off_c, 1, 78, 0
1, 6813, Note_off_c, 2, 74, 0
1, 6813, Note_off_c, 3, 69, 0
1, 6813, Note_off_c, 4, 50, 0
1, 6813, Note_off_c, 5, 38, 0
1, 6814, Note_off_c, 0, 74, 0
1, 6816, Note_on_c, 0, 71, 96
1, 6816, Note_on_c, 1, 80, 88
1, 6816, Note_on_c, 2, 71, 88
1, 6816, Note_on_c, 3, 64, 88
1, 6816, Note_on_c, 4, 52, 80
1, 6816, Note_on_c, 5, 40, 80
1, 6826, Note_off_c, 0, 71, 0
1, 6828, Note_on_c, 0, 80, 96
1, 6837, Note_off_c, 1, 80, 0
1, 6837, Note_off_c, 2, 71, 0
1, 6837, Note_off_c, 3, 64, 0
1, 6837, Note_off_c, 4, 52, 0
1, 6837, Note_off_c, 5, 40, 0
1, 6838, Note_off_c, 0, 80, 0
1, 6840, Note_on_c, 0, 81, 96
1, 6840, Note_on_c, 1, 81, 88
1, 6840, Note_on_c, 2, 73, 88
1, 6840, Note_on_c, 3, 64, 88
1, 6840, Note_on_c, 4, 45, 80
1, 6840, Note_on_c, 5, 33, 80
1, 6850, Note_off_c, 0, 81, 0
1, 6852, Note_on_c, 0, 76, 96
1, 6862, Note_off_c, 0, 76, 0
1, 6864, Note_on_c, 0, 73, 96
1, 6874, Note_off_c, 0, 73, 0
1, 6876, Note_on_c, 0, 69, 96
1, 6882, Note_off_c, 1, 81, 0
1, 6882, Note_off_c, 2, 73, 0
1, 6882, Note_off_c, 3, 64, 0
1, 6882, Note_off_c, 4, 45, 0
1, 6882, Note_off_c, 5, 33, 0
1, 6886, Note_off_c, 0, 69, 0
1, 6888, Note_on_c, 0, 68, 96
1, 6898, Note_off_c, 0, 68, 0
1, 6900, Note_on_c, 0, 66, 96
1, 6910, Note_off_c, 0, 66, 0
1, 6912, Note_on_c, 0, 64, 96
1, 6912, Note_on_c, 1, 64, 104
1, 6912, Note_on_c, 2, 68, 104
1, 6912, Note_on_c, 3, 59, 104
1, 6912, Note_on_c, 4, 52, 96
1, 6912, Note_on_c, 5, 40, 96
1, 6924, Note_off_c, 0, 64, 0
1, 6924, Note_on_c, 0, 66, 96
1, 6924, Note_off_c, 1, 64, 0
1, 6924, Note_on_c, 1, 66, 104
1, 6936, Note_off_c, 0, 66, 0
1, 6936, Note_on_c, 0, 68, 96
1, 6936, Note_off_c, 1, 66, 0
1, 6936, Note_on_c, 1, 68, 104
1, 6948, Note_off_c, 0, 68, 0
1, 6948, Note_on_c, 0, 71, 96
1, 6948, Note_off_c, 1, 68, 0
1, 6948, Note_on_c, 1, 71, 104
1, 6954, Note_off_c, 2, 68, 0
1, 6954, Note_off_c, 3, 59, 0
1, 6954, Note_off_c, 4, 52, 0
1, 6954, Note_off_c, 5, 40, 0
1, 6958, Note_off_c, 0, 71, 0
1, 6958, Note_off_c, 1, 71, 0
1, 6960, Note_on_c, 0, 76, 96
1, 6960, Note_on_c, 1, 76, 104
1, 6972, Note_off_c, 0, 76, 0
1, 6972, Note_off_c, 1, 76, 0
1, 6984, Note_on_c, 0, 76, 96
1, 6984, Note_on_c, 1, 76, 104
1, 6984, Note_on_c, 2, 71, 104
1, 6984, Note_on_c, 3, 59, 104
1, 6984, Note_on_c, 4, 56, 96
1, 6984, Note_on_c, 5, 44, 96
1, 6996, Note_off_c, 0, 76, 0
1, 6996, Note_on_c, 0, 75, 96
1, 6996, Note_off_c, 1, 76, 0
1, 6996, Note_on_c, 1, 75, 104
1, 7005, Note_off_c, 2, 71, 0
1, 7005, Note_off_c, 3, 59, 0
1, 7005, Note_off_c, 4, 56, 0
1, 7005, Note_off_c, 5, 44, 0
1, 7006, Note_off_c, 0, 75, 0
1, 7006, Note_off_c, 1, 75, 0
1, 7008, Note_on_c, 0, 78, 96
1, 7008, Note_on_c, 1, 78, 104
1, 7008, Note_on_c, 2, 69, 104
1, 7008, Note_on_c, 3, 63, 104
1, 7008, Note_on_c, 4, 54, 96
1, 7008, Note_on_c, 5, 42, 96
1, 7020, Note_off_c, 0, 78, 0
1, 7020, Note_on_c, 0, 76, 96
1, 7020, Note_off_c, 1, 78, 0
1, 7020, Note_on_c, 1, 76, 104
1, 7029, Note_off_c, 2, 69, 0
1, 7029, Note_off_c, 3, 63, 0
1, 7029, Note_off_c, 4, 54, 0
1, 7029, Note_off_c, 5, 42, 0
1, 7030, Note_off_c, 0, 76, 0
1, 7030, Note_off_c, 1, 76, 0
1, 7032, Note_on_c, 0, 75, 96
1, 7032, Note_on_c, 1, 75, 104
1, 7032, Note_on_c, 2, 71, 104
1, 7032, Note_on_c, 3, 68, 104
1, 7032, Note_on_c, 4, 52, 96
1, 7032, Note_on_c, 5, 40, 96
1, 7044, Note_off_c, 0, 75, 0
1, 7044, Note_on_c, 0, 73, 96
1, 7044, Note_off_c, 1, 75, 0
1, 7044, Note_on_c, 1, 73, 104
1, 7053, Note_off_c, 2, 71, 0
1, 7053, Note_off_c, 3, 68, 0
1, 7053, Note_off_c, 4, 52, 0
1, 7053, Note_off_c, 5, 40, 0
1, 7054, Note_off_c, 0, 73, 0
1, 7054, Note_off_c, 1, 73, 0
1, 7056, Note_on_c, 0, 71, 96
1, 7056, Note_on_c, 1, 71, 104
1, 7056, Note_on_c, 2, 71, 104
1, 7056, Note_on_c, 3, 66, 104
1, 7056, Note_on_c, 4, 51, 96
1, 7056, Note_on_c, 5, 39, 96
1, 7068, Note_off_c, 0, 71, 0
1, 7068, Note_on_c, 0, 73, 96
1, 7068, Note_off_c, 1, 71, 0
1, 7068, Note_on_c, 1, 73, 104
1, 7080, Note_off_c, 0, 73, 0
1, 7080, Note_on_c, 0, 75, 96
1, 7080, Note_off_c, 1, 73, 0
1, 7080, Note_on_c, 1, 75, 104
1, 7092, Note_off_c, 0, 75, 0
1, 7092, Note_on_c, 0, 78, 96
1, 7092, Note_off_c, 1, 75, 0
1, 7092, Note_on_c, 1, 78, 104
1, 7098, Note_off_c, 2, 71, 0
1, 7098, Note_off_c, 3, 66, 0
1, 7098, Note_off_c, 4, 51, 0
1, 7098, Note_off_c, 5, 39, 0
1, 7102, Note_off_c, 0, 78, 0
1, 7102, Note_off_c, 1, 78, 0
1, 7104, Note_on_c, 0, 81, 96
1, 7104, Note_on_c, 1, 81, 104
1, 7116, Note_off_c, 0, 81, 0
1, 7116, Note_off_c, 1, 81, 0
1, 7128, Note_on_c, 0, 81, 96
1, 7128, Note_on_c, 1, 81, 104
1, 7128, Note_on_c, 2, 71, 104
1, 7128, Note_on_c, 3, 66, 104
1, 7128, Note_on_c, 4, 51, 96
1, 7128, Note_on_c, 5, 39, 96
1, 7149, Note_off_c, 2, 71, 0
1, 7149, Note_off_c, 3, 66, 0
1, 7149, Note_off_c, 4, 51, 0
1, 7149, Note_off_c, 5, 39, 0
1, 7152, Note_on_c, 2, 73, 104
1, 7152, Note_on_c, 3, 64, 104
1, 7152, Note_on_c, 4, 49, 96
1, 7152, Note_on_c, 5, 37, 96
1, 7173, Note_off_c, 2, 73, 0
1, 7173, Note_off_c, 3, 64, 0
1, 7173, Note_off_c, 4, 49, 0
1, 7173, Note_off_c, 5, 37, 0
1, 7176, Note_on_c, 2, 75, 104
1, 7176, Note_on_c, 3, 66, 104
1, 7176, Note_on_c, 4, 47, 96
1, 7176, Note_on_c, 5, 35, 96
1, 7191, Note_off_c, 0, 81, 0
1, 7191, Note_off_c, 1, 81, 0
1, 7197, Note_off_c, 2, 75, 0
1, 7197, Note_off_c, 3, 66, 0
1, 7197, Note_off_c, 4, 47, 0
1, 7197, Note_off_c, 5, 35, 0
1, 7200, Note_on_c, 0, 80, 96
1, 7200, Note_on_c, 1, 80, 104
1, 7200, Note_on_c, 2, 76, 104
1, 7200, Note_on_c, 3, 59, 104
1, 7200, Note_on_c, 4, 52, 96
1, 7200, Note_on_c, 5, 40, 96
1, 7212, Note_off_c, 0, 80, 0
1, 7212, Note_on_c, 0, 78, 96
1, 7212, Note_off_c, 1, 80, 0
1, 7212, Note_on_c, 1, 78, 104
1, 7221, Note_off_c, 2, 76, 0
1, 7221, Note_off_c, 4, 52, 0
1, 7221, Note_off_c, 5, 40, 0
1, 7222, Note_off_c, 0, 78, 0
1, 7222, Note_off_c, 1, 78, 0
1, 7224, Note_on_c, 0, 81, 96
1, 7224, Note_on_c, 1, 81, 104
1, 7224, Note_on_c, 2, 71, 104
1, 7224, Note_on_c, 4, 51, 96
1, 7224, Note_on_c, 5, 39, 96
1, 7236, Note_off_c, 0, 81, 0
1, 7236, Note_on_c, 0, 80, 96
1, 7236, Note_off_c, 1, 81, 0
1, 7236, Note_on_c, 1, 80, 104
1, 7242, Note_off_c, 3, 59, 0
1, 7245, Note_off_c, 2, 71, 0
1, 7245, Note_off_c, 4, 51, 0
1, 7245, Note_off_c, 5, 39, 0
1, 7246, Note_off_c, 0, 80, 0
1, 7246, Note_off_c, 1, 80, 0
1, 7248, Note_on_c, 0, 78, 96
1, 7248, Note_on_c, 1, 78, 104
1, 7248, Note_on_c, 2, 70, 104
1, 7248, Note_on_c, 3, 63, 104
1, 7248, Note_on_c, 4, 49, 96
1, 7248, Note_on_c, 5, 37, 96
1, 7260, Note_off_c, 0, 78, 0
1, 7260, Note_on_c, 0, 76, 96
1, 7260, Note_off_c, 1, 78, 0
1, 7260, Note_on_c, 1, 76, 104
1, 7269, Note_off_c, 2, 70, 0
1, 7269, Note_off_c, 3, 63, 0
1, 7269, Note_off_c, 4, 49, 0
1, 7269, Note_off_c, 5, 37, 0
1, 7270, Note_off_c, 0, 76, 0
1, 7270, Note_off_c, 1, 76, 0
1, 7272, Note_on_c, 0, 75, 96
1, 7272, Note_on_c, 1, 75, 104
1, 7272, Note_on_c, 2, 71, 104
1, 7272, Note_on_c, 3, 66, 104
1, 7272, Note_on_c, 4, 47, 96
1, 7272, Note_on_c, 5, 35, 96
1, 7284, Note_off_c, 0, 75, 0
1, 7284, Note_on_c, 0, 73, 96
1, 7284, Note_off_c, 1, 75, 0
1, 7284, Note_on_c, 1, 73, 104
1, 7293, Note_off_c, 2, 71, 0
1, 7293, Note_off_c, 4, 47, 0
1, 7293, Note_off_c, 5, 35, 0
1, 7294, Note_off_c, 0, 73, 0
1, 7294, Note_off_c, 1, 73, 0
1, 7296, Note_on_c, 0, 76, 96
1, 7296, Note_on_c, 1, 76, 104
1, 7296, Note_on_c, 2, 66, 104
1, 7296, Note_on_c, 4, 45, 96
1, 7296, Note_on_c, 5, 33, 96
1, 7308, Note_off_c, 0, 76, 0
1, 7308, Note_on_c, 0, 75, 96
1, 7308, Note_off_c, 1, 76, 0
1, 7308, Note_on_c, 1, 75, 104
1, 7314, Note_off_c, 3, 66, 0
1, 7317, Note_off_c, 2, 66, 0
1, 7317, Note_off_c, 4, 45, 0
1, 7317, Note_off_c, 5, 33, 0
1, 7318, Note_off_c, 0, 75, 0
1, 7318, Note_off_c, 1, 75, 0
1, 7320, Note_on_c, 0, 73, 96
1, 7320, Note_on_c, 1, 73, 104
1, 7320, Note_on_c, 2, 68, 104
1, 7320, Note_on_c, 3, 64, 104
1, 7320, Note_on_c, 4, 44, 96
1, 7320, Note_on_c, 5, 32, 96
1, 7332, Note_off_c, 0, 73, 0
1, 7332, Note_on_c, 0, 71, 96
1, 7332, Note_off_c, 1, 73, 0
1, 7332, Note_on_c, 1, 71, 104
1, 7341, Note_off_c, 2, 68, 0
1, 7341, Note_off_c, 3, 64, 0
1, 7341, Note_off_c, 4, 44, 0
1, 7341, Note_off_c, 5, 32, 0
1, 7342, Note_off_c, 0, 71, 0
1, 7342, Note_off_c, 1, 71, 0
1, 7344, Note_on_c, 0, 69, 96
1, 7344, Note_on_c, 1, 69, 104
1, 7344, Note_on_c, 2, 69, 104
1, 7344, Note_on_c, 3, 63, 104
1, 7344, Note_on_c, 4, 42, 96
1, 7344, Note_on_c, 5, 30, 96
1, 7356, Note_off_c, 0, 69, 0
1, 7356, Note_on_c, 0, 68, 96
1, 7356, Note_off_c, 1, 69, 0
1, 7356, Note_on_c, 1, 68, 104
1, 7365, Note_off_c, 2, 69, 0
1, 7365, Note_off_c, 3, 63, 0
1, 7365, Note_off_c, 4, 42, 0
1, 7365, Note_off_c, 5, 30, 0
1, 7366, Note_off_c, 0, 68, 0
1, 7366, Note_off_c, 1, 68, 0
1, 7368, Note_on_c, 0, 71, 96
1, 7368, Note_on_c, 1, 71, 104
1, 7368, Note_on_c, 2, 66, 104
1, 7368, Note_on_c, 3, 66, 104
1, 7368, Note_on_c, 4, 51, 96
1, 7368, Note_on_c, 5, 39, 96
1, 7380, Note_off_c, 0, 71, 0
1, 7380, Note_on_c, 0, 69, 96
1, 7380, Note_off_c, 1, 71, 0
1, 7380, Note_on_c, 1, 69, 104
1, 7389, Note_off_c, 2, 66, 0
1, 7389, Note_off_c, 3, 66, 0
1, 7389, Note_off_c, 4, 51, 0
1, 7389, Note_off_c, 5, 39, 0
1, 7390, Note_off_c, 0, 69, 0
1, 7390, Note_off_c, 1, 69, 0
1, 7392, Note_on_c, 0, 68, 96
1, 7392, Note_on_c, 1, 68, 104
1, 7392, Note_on_c, 2, 64, 104
1, 7392, Note_on_c, 3, 59, 104
1, 7392, Note_on_c, 4, 52, 96
1, 7392, Note_on_c, 5, 40, 96
1, 7404, Note_off_c, 0, 68, 0
1, 7404, Note_on_c, 0, 69, 96
1, 7404, Note_off_c, 1, 68, 0
1, 7404, Note_on_c, 1, 69, 104
1, 7413, Note_off_c, 2, 64, 0
1, 7413, Note_off_c, 3, 59, 0
1, 7413, Note_off_c, 4, 52, 0
1, 7413, Note_off_c, 5, 40, 0
1, 7414, Note_off_c, 0, 69, 0
1, 7414, Note_off_c, 1, 69, 0
1, 7416, Note_on_c, 0, 66, 96
1, 7416, Note_on_c, 1, 66, 104
1, 7416, Note_on_c, 2, 63, 104
1, 7416, Note_on_c, 3, 59, 104
1, 7416, Note_on_c, 4, 47, 96
1, 7416, Note_on_c, 5, 35, 96
1, 7428, Note_off_c, 0, 66, 0
1, 7428, Note_on_c, 0, 64, 96
1, 7428, Note_off_c, 1, 66, 0
1, 7428, Note_on_c, 1, 64, 104
1, 7437, Note_off_c, 2, 63, 0
1, 7437, Note_off_c, 4, 47, 0
1, 7437, Note_off_c, 5, 35, 0
1, 7440, Note_off_c, 0, 64, 0
1, 7440, Note_on_c, 0, 66, 96
1, 7440, Note_off_c, 1, 64, 0
1, 7440, Note_on_c, 1, 66, 104
1, 7440, Note_on_c, 2, 66, 104
1, 7440, Note_on_c, 4, 51, 96
1, 7440, Note_on_c, 5, 39, 96
1, 7447, Note_off_c, 3, 59, 0
1, 7450, Note_off_c, 0, 66, 0
1, 7450, Note_off_c, 1, 66, 0
1, 7452, Note_on_c, 0, 69, 96
1, 7452, Note_on_c, 1, 69, 104
1, 7452, Note_on_c, 3, 61, 104
1, 7461, Note_off_c, 2, 66, 0
1, 7461, Note_off_c, 4, 51, 0
1, 7461, Note_off_c, 5, 39, 0
1, 7462, Note_off_c, 0, 69, 0
1, 7462, Note_off_c, 1, 69, 0
1, 7462, Note_off_c, 3, 61, 0
1, 7464, Note_on_c, 0, 68, 96
1, 7464, Note_on_c, 1, 68, 104
1, 7464, Note_on_c, 2, 63, 104
1, 7464, Note_on_c, 3, 59, 104
1, 7464, Note_on_c, 4, 47, 96
1, 7464, Note_on_c, 5, 35, 96
1, 7474, Note_off_c, 0, 68, 0
1, 7474, Note_off_c, 1, 68, 0
1, 7474, Note_off_c, 3, 59, 0
1, 7476, Note_on_c, 0, 66, 96
1, 7476, Note_on_c, 1, 66, 104
1, 7476, Note_on_c, 3, 57, 104
1, 7485, Note_off_c, 2, 63, 0
1, 7485, Note_off_c, 4, 47, 0
1, 7485, Note_off_c, 5, 35, 0
1, 7486, Note_off_c, 0, 66, 0
1, 7486, Note_off_c, 1, 66, 0
1, 7486, Note_off_c, 3, 57, 0
1, 7488, Note_on_c, 0, 64, 96
1, 7488, Note_on_c, 1, 64, 104
1, 7488, Note_on_c, 2, 59, 104
1, 7488, Note_on_c, 3, 56, 104
1, 7488, Note_on_c, 4, 40, 96
1, 7488, Note_on_c, 5, 28, 96
1, 7500, Note_off_c, 0, 64, 0
1, 7500, Note_on_c, 0, 66, 96
1, 7500, Note_off_c, 1, 64, 0
1, 7500, Note_on_c, 1, 66, 104
1, 7509, Note_off_c, 2, 59, 0
1, 7509, Note_off_c, 3, 56, 0
1, 7509, Note_off_c, 4, 40, 0
1, 7509, Note_off_c, 5, 28, 0
1, 7512, Note_off_c, 0, 66, 0
1, 7512, Note_on_c, 0, 68, 96
1, 7512, Note_off_c, 1, 66, 0
1, 7512, Note_on_c, 1, 68, 104
1, 7512, Note_on_c, 2, 71, 104
1, 7512, Note_on_c, 3, 64, 104
1, 7512, Note_on_c, 4, 52, 96
1, 7512, Note_on_c, 5, 40, 96
1, 7524, Note_off_c, 0, 68, 0
1, 7524, Note_on_c, 0, 71, 96
1, 7524, Note_off_c, 1, 68, 0
1, 7524, Note_on_c, 1, 71, 104
1, 7533, Note_off_c, 2, 71, 0
1, 7533, Note_off_c, 3, 64, 0
1, 7533, Note_off_c, 4, 52, 0
1, 7533, Note_off_c, 5, 40, 0
1, 7534, Note_off_c, 0, 71, 0
1, 7534, Note_off_c, 1, 71, 0
1, 7536, Note_on_c, 0, 76, 96
1, 7536, Note_on_c, 1, 76, 104
1, 7536, Note_on_c, 2, 71, 104
1, 7536, Note_on_c, 3, 68, 104
1, 7536, Note_on_c, 4, 51, 96
1, 7536, Note_on_c, 5, 39, 96
1, 7548, Note_off_c, 0, 76, 0
1, 7548, Note_off_c, 1, 76, 0
1, 7557, Note_off_c, 2, 71, 0
1, 7557, Note_off_c, 3, 68, 0
1, 7557, Note_off_c, 4, 51, 0
1, 7557, Note_off_c, 5, 39, 0
1, 7560, Note_on_c, 0, 76, 96
1, 7560, Note_on_c, 1, 76, 104
1, 7560, Note_on_c, 2, 73, 104
1, 7560, Note_on_c, 3, 68, 104
1, 7560, Note_on_c, 4, 49, 96
1, 7560, Note_on_c, 5, 37, 96
1, 7572, Note_off_c, 0, 76, 0
1, 7572, Note_on_c, 0, 75, 96
1, 7572, Note_off_c, 1, 76, 0
1, 7572, Note_on_c, 1, 75, 104
1, 7581, Note_off_c, 2, 73, 0
1, 7581, Note_off_c, 4, 49, 0
1, 7581, Note_off_c, 5, 37, 0
1, 7582, Note_off_c, 0, 75, 0
1, 7582, Note_off_c, 1, 75, 0
1, 7584, Note_on_c, 0, 78, 96
1, 7584, Note_on_c, 1, 78, 104
1, 7584, Note_on_c, 2, 68, 104
1, 7584, Note_on_c, 4, 47, 96
1, 7584, Note_on_c, 5, 35, 96
1, 7596, Note_off_c, 0, 78, 0
1, 7596, Note_on_c, 0, 76, 96
1, 7596, Note_off_c, 1, 78, 0
1, 7596, Note_on_c, 1, 76, 104
1, 7602, Note_off_c, 3, 68, 0
1, 7605, Note_off_c, 2, 68, 0
1, 7605, Note_off_c, 4, 47, 0
1, 7605, Note_off_c, 5, 35, 0
1, 7606, Note_off_c, 0, 76, 0
1, 7606, Note_off_c, 1, 76, 0
1, 7608, Note_on_c, 0, 75, 96
1, 7608, Note_on_c, 1, 75, 104
1, 7608, Note_on_c, 2, 69, 104
1, 7608, Note_on_c, 3, 66, 104
1, 7608, Note_on_c, 4, 45, 96
1, 7608, Note_on_c, 5, 33, 96
1, 7620, Note_off_c, 0, 75, 0
1, 7620, Note_on_c, 0, 73, 96
1, 7620, Note_off_c, 1, 75, 0
1, 7620, Note_on_c, 1, 73, 104
1, 7629, Note_off_c, 2, 69, 0
1, 7629, Note_off_c, 3, 66, 0
1, 7629, Note_off_c, 4, 45, 0
1, 7629, Note_off_c, 5, 33, 0
1, 7630, Note_off_c, 0, 73, 0
1, 7630, Note_off_c, 1, 73, 0
1, 7632, Note_on_c, 0, 64, 96
1, 7632, Note_on_c, 1, 64, 104
1, 7632, Note_on_c, 2, 71, 104
1, 7632, Note_on_c, 3, 64, 104
1, 7632, Note_on_c, 4, 44, 96
1, 7632, Note_on_c, 5, 32, 96
1, 7644, Note_off_c, 0, 64, 0
1, 7644, Note_on_c, 0, 66, 96
1, 7644, Note_off_c, 1, 64, 0
1, 7644, Note_on_c, 1, 66, 104
1, 7653, Note_off_c, 2, 71, 0
1, 7653, Note_off_c, 3, 64, 0
1, 7653, Note_off_c, 4, 44, 0
1, 7653, Note_off_c, 5, 32, 0
1, 7656, Note_off_c, 0, 66, 0
1, 7656, Note_on_c, 0, 68, 96
1, 7656, Note_off_c, 1, 66, 0
1, 7656, Note_on_c, 1, 68, 104
1, 7656, Note_on_c, 2, 74, 104
1, 7656, Note_on_c, 3, 59, 104
1, 7656, Note_on_c, 4, 42, 96
1, 7656, Note_on_c, 5, 30, 96
1, 7668, Note_off_c, 0, 68, 0
1, 7668, Note_on_c, 0, 71, 96
1, 7668, Note_off_c, 1, 68, 0
1, 7668, Note_on_c, 1, 71, 104
1, 7677, Note_off_c, 2, 74, 0
1, 7677, Note_off_c, 3, 59, 0
1, 7677, Note_off_c, 4, 42, 0
1, 7677, Note_off_c, 5, 30, 0
1, 7678, Note_off_c, 0, 71, 0
1, 7678, Note_off_c, 1, 71, 0
1, 7680, Note_on_c, 0, 74, 96
1, 7680, Note_on_c, 1, 74, 104
1, 7680, Note_on_c, 2, 71, 104
1, 7680, Note_on_c, 3, 56, 104
1, 7680, Note_on_c, 4, 40, 96
1, 7680, Note_on_c, 5, 28, 96
1, 7692, Note_off_c, 0, 74, 0
1, 7692, Note_off_c, 1, 74, 0
1, 7701, Note_off_c, 2, 71, 0
1, 7701, Note_off_c, 3, 56, 0
1, 7701, Note_off_c, 4, 40, 0
1, 7701, Note_off_c, 5, 28, 0
1, 7704, Note_on_c, 0, 74, 96
1, 7704, Note_on_c, 1, 74, 104
1, 7704, Note_on_c, 2, 68, 104
1, 7704, Note_on_c, 3, 52, 104
1, 7704, Note_on_c, 4, 52, 96
1, 7704, Note_on_c, 5, 40, 96
1, 7725, Note_off_c, 2, 68, 0
1, 7725, Note_off_c, 4, 52, 0
1, 7725, Note_off_c, 5, 40, 0
1, 7728, Note_on_c, 2, 69, 104
1, 7728, Note_on_c, 4, 54, 96
1, 7728, Note_on_c, 5, 42, 96
1, 7749, Note_off_c, 2, 69, 0
1, 7749, Note_off_c, 4, 54, 0
1, 7749, Note_off_c, 5, 42, 0
1, 7752, Note_on_c, 2, 71, 104
1, 7752, Note_on_c, 4, 56, 96
1, 7752, Note_on_c, 5, 44, 96
1, 7767, Note_off_c, 0, 74, 0
1, 7767, Note_off_c, 1, 74, 0
1, 7767, Note_off_c, 3, 52, 0
1, 7773, Note_off_c, 2, 71, 0
1, 7773, Note_off_c, 4, 56, 0
1, 7773, Note_off_c, 5, 44, 0
1, 7776, Note_on_c, 0, 73, 96
1, 7776, Note_on_c, 1, 73, 104
1, 7776, Note_on_c, 2, 69, 104
1, 7776, Note_on_c, 3, 64, 104
1, 7776, Note_on_c, 4, 57, 96
1, 7776, Note_on_c, 5, 45, 96
1, 7788, Note_off_c, 0, 73, 0
1, 7788, Note_on_c, 0, 76, 96
1, 7788, Note_off_c, 1, 73, 0
1, 7788, Note_on_c, 1, 76, 104
1, 7797, Note_off_c, 2, 69, 0
1, 7797, Note_off_c, 3, 64, 0
1, 7797, Note_off_c, 4, 57, 0
1, 7797, Note_off_c, 5, 45, 0
1, 7800, Note_off_c, 0, 76, 0
1, 7800, Note_on_c, 0, 81, 96
1, 7800, Note_off_c, 1, 76, 0
1, 7800, Note_on_c, 1, 81, 104
1, 7800, Note_on_c, 2, 73, 104
1, 7800, Note_on_c, 3, 66, 104
1, 7800, Note_on_c, 4, 54, 96
1, 7800, Note_on_c, 5, 42, 96
1, 7812, Note_off_c, 0, 81, 0
1, 7812, Note_on_c, 0, 80, 96
1, 7812, Note_off_c, 1, 81, 0
1, 7812, Note_on_c, 1, 80, 104
1, 7821, Note_off_c, 2, 73, 0
1, 7821, Note_off_c, 3, 66, 0
1, 7821, Note_off_c, 4, 54, 0
1, 7821, Note_off_c, 5, 42, 0
1, 7824, Note_off_c, 0, 80, 0
1, 7824, Note_on_c, 0, 78, 96
1, 7824, Note_off_c, 1, 80, 0
1, 7824, Note_on_c, 1, 78, 104
1, 7824, Note_on_c, 2, 73, 104
1, 7824, Note_on_c, 3, 66, 104
1, 7824, Note_on_c, 4, 57, 96
1, 7824, Note_on_c, 5, 45, 96
1, 7836, Note_off_c, 0, 78, 0
1, 7836, Note_on_c, 0, 76, 96
1, 7836, Note_off_c, 1, 78, 0
1, 7836, Note_on_c, 1, 76, 104
1, 7845, Note_off_c, 2, 73, 0
1, 7845, Note_off_c, 3, 66, 0
1, 7845, Note_off_c, 4, 57, 0
1, 7845, Note_off_c, 5, 45, 0
1, 7846, Note_off_c, 0, 76, 0
1, 7846, Note_off_c, 1, 76, 0
1, 7848, Note_on_c, 0, 75, 96
1, 7848, Note_on_c, 1, 75, 104
1, 7848, Note_on_c, 2, 71, 104
1, 7848, Note_on_c, 3, 66, 104
1, 7848, Note_on_c, 4, 59, 96
1, 7848, Note_on_c, 5, 47, 96
1, 7860, Note_off_c, 0, 75, 0
1, 7860, Note_on_c, 0, 73, 96
1, 7860, Note_off_c, 1, 75, 0
1, 7860, Note_on_c, 1, 73, 104
1, 7869, Note_off_c, 2, 71, 0
1, 7869, Note_off_c, 3, 66, 0
1, 7869, Note_off_c, 4, 59, 0
1, 7869, Note_off_c, 5, 47, 0
1, 7870, Note_off_c, 0, 73, 0
1, 7870, Note_off_c, 1, 73, 0
1, 7872, Note_on_c, 0, 76, 96
1, 7872, Note_on_c, 1, 76, 104
1, 7872, Note_on_c, 2, 71, 104
1, 7872, Note_on_c, 3, 66, 104
1, 7872, Note_on_c, 4, 61, 96
1, 7872, Note_on_c, 5, 49, 96
1, 7884, Note_off_c, 0, 76, 0
1, 7884, Note_on_c, 0, 75, 96
1, 7884, Note_off_c, 1, 76, 0
1, 7884, Note_on_c, 1, 75, 104
1, 7893, Note_off_c, 2, 71, 0
1, 7893, Note_off_c, 3, 66, 0
1, 7893, Note_off_c, 4, 61, 0
1, 7893, Note_off_c, 5, 49, 0
1, 7894, Note_off_c, 0, 75, 0
1, 7894, Note_off_c, 1, 75, 0
1, 7896, Note_on_c, 0, 73, 96
1, 7896, Note_on_c, 1, 73, 104
1, 7896, Note_on_c, 2, 71, 104
1, 7896, Note_on_c, 3, 66, 104
1, 7896, Note_on_c, 4, 63, 96
1, 7896, Note_on_c, 5, 51, 96
1, 7908, Note_off_c, 0, 73, 0
1, 7908, Note_on_c, 0, 71, 96
1, 7908, Note_off_c, 1, 73, 0
1, 7908, Note_on_c, 1, 71, 104
1, 7917, Note_off_c, 2, 71, 0
1, 7917, Note_off_c, 3, 66, 0
1, 7917, Note_off_c, 4, 63, 0
1, 7917, Note_off_c, 5, 51, 0
1, 7918, Note_off_c, 0, 71, 0
1, 7918, Note_off_c, 1, 71, 0
1, 7920, Note_on_c, 0, 80, 96
1, 7920, Note_on_c, 1, 80, 104
1, 7920, Note_on_c, 2, 71, 104
1, 7920, Note_on_c, 3, 64, 104
1, 7920, Note_on_c, 4, 64, 96
1, 7920, Note_on_c, 5, 52, 96
1, 7932, Note_off_c, 0, 80, 0
1, 7932, Note_off_c, 1, 80, 0
1, 7941, Note_off_c, 2, 71, 0
1, 7941, Note_off_c, 3, 64, 0
1, 7941, Note_off_c, 4, 64, 0
1, 7941, Note_off_c, 5, 52, 0
1, 7944, Note_on_c, 0, 81, 96
1, 7944, Note_on_c, 1, 81, 104
1, 7944, Note_on_c, 2, 73, 104
1, 7944, Note_on_c, 3, 64, 104
1, 7944, Note_on_c, 4, 57, 96
1, 7944, Note_on_c, 5, 45, 96
1, 7956, Note_off_c, 0, 81, 0
1, 7956, Note_off_c, 1, 81, 0
1, 7965, Note_off_c, 2, 73, 0
1, 7965, Note_off_c, 3, 64, 0
1, 7965, Note_off_c, 4, 57, 0
1, 7965, Note_off_c, 5, 45, 0
1, 7968, Note_on_c, 0, 80, 96
1, 7968, Note_on_c, 1, 80, 104
1, 7968, Note_on_c, 2, 71, 104
1, 7968, Note_on_c, 3, 63, 104
1, 7968, Note_on_c, 4, 59, 96
1, 7968, Note_on_c, 5, 47, 96
1, 7974, Note_off_c, 0, 80, 0
1, 7974, Note_on_c, 0, 78, 96
1, 7974, Note_off_c, 1, 80, 0
1, 7974, Note_on_c, 1, 78, 104
1, 7980, Note_off_c, 0, 78, 0
1, 7980, Note_on_c, 0, 80, 96
1, 7980, Note_off_c, 1, 78, 0
1, 7980, Note_on_c, 1, 80, 104
1, 7986, Note_off_c, 0, 80, 0
1, 7986, Note_on_c, 0, 78, 96
1, 7986, Note_off_c, 1, 80, 0
1, 7986, Note_on_c, 1, 78, 104
1, 7989, Note_off_c, 2, 71, 0
1, 7989, Note_off_c, 3, 63, 0
1, 7989, Note_off_c, 4, 59, 0
1, 7989, Note_off_c, 5, 47, 0
1, 7991, Note_off_c, 0, 78, 0
1, 7991, Note_off_c, 1, 78, 0
1, 7992, Note_on_c, 0, 76, 96
1, 7992, Note_on_c, 1, 76, 104
1, 7992, Note_on_c, 2, 71, 104
1, 7992, Note_on_c, 3, 68, 104
1, 7992, Note_on_c, 4, 52, 96
1, 7992, Note_on_c, 5, 40, 96
1, 8013, Note_off_c, 4, 52, 0
1, 8013, Note_off_c, 5, 40, 0
1, 8016, Note_on_c, 4, 47, 96
1, 8016, Note_on_c, 5, 35, 96
1, 8037, Note_off_c, 4, 47, 0
1, 8037, Note_off_c, 5, 35, 0
1, 8040, Note_on_c, 4, 40, 96
1, 8040, Note_on_c, 5, 28, 96
1, 8055, Note_off_c, 0, 76, 0
1, 8055, Note_off_c, 1, 76, 0
1, 8055, Note_off_c, 2, 71, 0
1, 8055, Note_off_c, 3, 68, 0
1, 8061, Note_off_c, 4, 40, 0
1, 8061, Note_off_c, 5, 28, 0
1, 8064, Note_on_c, 0, 68, 96
1, 8064, Note_on_c, 1, 71, 88
1, 8064, Note_on_c, 2, 68, 88
1, 8064, Note_on_c, 3, 64, 88
1, 8074, Note_off_c, 0, 68, 0
1, 8076, Note_on_c, 0, 66, 96
1, 8085, Note_off_c, 1, 71, 0
1, 8085, Note_off_c, 2, 68, 0
1, 8085, Note_off_c, 3, 64, 0
1, 8086, Note_off_c, 0, 66, 0
1, 8088, Note_on_c, 0, 64, 96
1, 8088, Note_on_c, 1, 74, 88
1, 8088, Note_on_c, 2, 71, 88
1, 8088, Note_on_c, 3, 52, 88
1, 8098, Note_off_c, 0, 64, 0
1, 8100, Note_on_c, 0, 66, 96
1, 8109, Note_off_c, 1, 74, 0
1, 8109, Note_off_c, 2, 71, 0
1, 8109, Note_off_c, 3, 52, 0
1, 8110, Note_off_c, 0, 66, 0
1, 8112, Note_on_c, 0, 68, 96
1, 8112, Note_on_c, 1, 73, 88
1, 8112, Note_on_c, 2, 69, 88
1, 8112, Note_on_c, 3, 64, 88
1, 8122, Note_off_c, 0, 68, 0
1, 8124, Note_on_c, 0, 69, 96
1, 8133, Note_off_c, 1, 73, 0
1, 8133, Note_off_c, 2, 69, 0
1, 8133, Note_off_c, 3, 64, 0
1, 8134, Note_off_c, 0, 69, 0
1, 8136, Note_on_c, 0, 71, 96
1, 8136, Note_on_c, 1, 71, 88
1, 8136, Note_on_c, 2, 68, 88
1, 8136, Note_on_c, 3, 64, 88
1, 8146, Note_off_c, 0, 71, 0
1, 8148, Note_on_c, 0, 68, 96
1, 8154, Note_off_c, 0, 68, 0
1, 8154, Note_on_c, 0, 69, 96
1, 8157, Note_off_c, 1, 71, 0
1, 8157, Note_off_c, 2, 68, 0
1, 8157, Note_off_c, 3, 64, 0
1, 8160, Note_off_c, 0, 69, 0
1, 8160, Note_on_c, 0, 71, 96
1, 8160, Note_on_c, 1, 74, 88
1, 8160, Note_on_c, 2, 68, 88
1, 8160, Note_on_c, 3, 52, 88
1, 8170, Note_off_c, 0, 71, 0
1, 8172, Note_on_c, 0, 71, 96
1, 8178, Note_off_c, 0, 71, 0
1, 8178, Note_on_c, 0, 73, 96
1, 8181, Note_off_c, 3, 52, 0
1, 8184, Note_off_c, 0, 73, 0
1, 8184, Note_on_c, 0, 74, 96
1, 8184, Note_on_c, 3, 64, 88
1, 8194, Note_off_c, 0, 74, 0
1, 8196, Note_on_c, 0, 71, 96
1, 8202, Note_off_c, 0, 71, 0
1, 8202, Note_on_c, 0, 73, 96
1, 8205, Note_off_c, 3, 64, 0
1, 8208, Note_off_c, 0, 73, 0
1, 8208, Note_on_c, 0, 74, 96
1, 8208, Note_on_c, 3, 64, 88
1, 8218, Note_off_c, 0, 74, 0
1, 8220, Note_on_c, 0, 74, 96
1, 8223, Note_off_c, 1, 74, 0
1, 8223, Note_off_c, 2, 68, 0
1, 8226, Note_off_c, 0, 74, 0
1, 8226, Note_on_c, 0, 76, 96
1, 8229, Note_off_c, 3, 64, 0
1, 8232, Note_off_c, 0, 76, 0
1, 8232, Note_on_c, 0, 78, 96
1, 8232, Note_on_c, 1, 73, 88
1, 8232, Note_on_c, 2, 69, 88
1, 8232, Note_on_c, 3, 52, 88
1, 8242, Note_off_c, 0, 78, 0
1, 8244, Note_on_c, 0, 74, 96
1, 8250, Note_off_c, 0, 74, 0
1, 8250, Note_on_c, 0, 76, 96
1, 8253, Note_off_c, 1, 73, 0
1, 8253, Note_off_c, 2, 69, 0
1, 8253, Note_off_c, 3, 52, 0
1, 8256, Note_off_c, 0, 76, 0
1, 8256, Note_on_c, 0, 78, 96
1, 8256, Note_on_c, 1, 71, 88
1, 8256, Note_on_c, 2, 71, 88
1, 8256, Note_on_c, 3, 64, 88
1, 8268, Note_off_c, 0, 78, 0
1, 8268, Note_on_c, 0, 78, 96
1, 8274, Note_off_c, 0, 78, 0
1, 8274, Note_on_c, 0, 80, 96
1, 8277, Note_off_c, 1, 71, 0
1, 8277, Note_off_c, 2, 71, 0
1, 8277, Note_off_c, 3, 64, 0
1, 8280, Note_off_c, 0, 80, 0
1, 8280, Note_on_c, 0, 81, 96
1, 8280, Note_on_c, 1, 73, 88
1, 8280, Note_on_c, 2, 69, 88
1, 8280, Note_on_c, 3, 57, 88
1, 8280, Note_on_c, 4, 57, 80
1, 8280, Note_on_c, 5, 45, 80
1, 8290, Note_off_c, 0, 81, 0
1, 8292, Note_on_c, 0, 81, 96
1, 8298, Note_off_c, 0, 81, 0
1, 8298, Note_on_c, 0, 80, 96
1, 8301, Note_off_c, 4, 57, 0
1, 8301, Note_off_c, 5, 45, 0
1, 8304, Note_off_c, 0, 80, 0
1, 8304, Note_on_c, 0, 81, 96
1, 8304, Note_on_c, 4, 52, 80
1, 8304, Note_on_c, 5, 40, 80
1, 8314, Note_off_c, 0, 81, 0
1, 8316, Note_on_c, 0, 76, 96
1, 8322, Note_off_c, 1, 73, 0
1, 8322, Note_off_c, 2, 69, 0
1, 8322, Note_off_c, 3, 57, 0
1, 8325, Note_off_c, 4, 52, 0
1, 8325, Note_off_c, 5, 40, 0
1, 8326, Note_off_c, 0, 76, 0
1, 8328, Note_on_c, 0, 76, 96
1, 8328, Note_on_c, 4, 45, 80
1, 8328, Note_on_c, 5, 33, 80
1, 8334, Note_off_c, 0, 76, 0
1, 8334, Note_on_c, 0, 74, 96
1, 8340, Note_off_c, 0, 74, 0
1, 8340, Note_on_c, 0, 73, 96
1, 8346, Note_off_c, 0, 73, 0
1, 8346, Note_on_c, 0, 71, 96
1, 8349, Note_off_c, 4, 45, 0
1, 8349, Note_off_c, 5, 33, 0
1, 8351, Note_off_c, 0, 71, 0
1, 8352, Note_on_c, 0, 70, 96
1, 8352, Note_on_c, 1, 73, 88
1, 8352, Note_on_c, 2, 70, 88
1, 8352, Note_on_c, 3, 66, 88
1, 8364, Note_off_c, 0, 70, 0
1, 8364, Note_on_c, 0, 68, 96
1, 8373, Note_off_c, 1, 73, 0
1, 8373, Note_off_c, 2, 70, 0
1, 8373, Note_off_c, 3, 66, 0
1, 8376, Note_off_c, 0, 68, 0
1, 8376, Note_on_c, 0, 66, 96
1, 8376, Note_on_c, 1, 76, 88
1, 8376, Note_on_c, 2, 73, 88
1, 8376, Note_on_c, 3, 54, 88
1, 8388, Note_off_c, 0, 66, 0
1, 8388, Note_on_c, 0, 68, 96
1, 8397, Note_off_c, 1, 76, 0
1, 8397, Note_off_c, 2, 73, 0
1, 8397, Note_off_c, 3, 54, 0
1, 8400, Note_off_c, 0, 68, 0
1, 8400, Note_on_c, 0, 70, 96
1, 8400, Note_on_c, 1, 75, 88
1, 8400, Note_on_c, 2, 71, 88
1, 8400, Note_on_c, 3, 66, 88
1, 8412, Note_off_c, 0, 70, 0
1, 8412, Note_on_c, 0, 71, 96
1, 8421, Note_off_c, 1, 75, 0
1, 8421, Note_off_c, 2, 71, 0
1, 8421, Note_off_c, 3, 66, 0
1, 8422, Note_off_c, 0, 71, 0
1, 8424, Note_on_c, 0, 73, 96
1, 8424, Note_on_c, 1, 73, 88
1, 8424, Note_on_c, 2, 70, 88
1, 8424, Note_on_c, 3, 66, 88
1, 8434, Note_off_c, 0, 73, 0
1, 8436, Note_on_c, 0, 70, 96
1, 8442, Note_off_c, 0, 70, 0
1, 8442, Note_on_c, 0, 71, 96
1, 8445, Note_off_c, 1, 73, 0
1, 8445, Note_off_c, 2, 70, 0
1, 8445, Note_off_c, 3, 66, 0
1, 8448, Note_off_c, 0, 71, 0
1, 8448, Note_on_c, 0, 73, 96
1, 8448, Note_on_c, 1, 76, 88
1, 8448, Note_on_c, 2, 70, 88
1, 8448, Note_on_c, 3, 54, 88
1, 8458, Note_off_c, 0, 73, 0
1, 8460, Note_on_c, 0, 73, 96
1, 8466, Note_off_c, 0, 73, 0
1, 8466, Note_on_c, 0, 75, 96
1, 8469, Note_off_c, 3, 54, 0
1, 8472, Note_off_c, 0, 75, 0
1, 8472, Note_on_c, 0, 76, 96
1, 8472, Note_on_c, 3, 66, 88
1, 8482, Note_off_c, 0, 76, 0
1, 8484, Note_on_c, 0, 73, 96
1, 8490, Note_off_c, 0, 73, 0
1, 8490, Note_on_c, 0, 75, 96
1, 8493, Note_off_c, 3, 66, 0
1, 8496, Note_off_c, 0, 75, 0
1, 8496, Note_on_c, 0, 76, 96
1, 8496, Note_on_c, 3, 66, 88
1, 8506, Note_off_c, 0, 76, 0
1, 8508, Note_on_c, 0, 76, 96
1, 8511, Note_off_c, 1, 76, 0
1, 8511, Note_off_c, 2, 70, 0
1, 8514, Note_off_c, 0, 76, 0
1, 8514, Note_on_c, 0, 78, 96
1, 8517, Note_off_c, 3, 66, 0
1, 8520, Note_off_c, 0, 78, 0
1, 8520, Note_on_c, 0, 80, 96
1, 8520, Note_on_c, 1, 75, 88
1, 8520, Note_on_c, 2, 71, 88
1, 8520, Note_on_c, 3, 54, 88
1, 8530, Note_off_c, 0, 80, 0
1, 8532, Note_on_c, 0, 76, 96
1, 8538, Note_off_c, 0, 76, 0
1, 8538, Note_on_c, 0, 78, 96
1, 8541, Note_off_c, 1, 75, 0
1, 8541, Note_off_c, 2, 71, 0
1, 8541, Note_off_c, 3, 54, 0
1, 8544, Note_off_c, 0, 78, 0
1, 8544, Note_on_c, 0, 80, 96
1, 8544, Note_on_c, 1, 73, 88
1, 8544, Note_on_c, 2, 73, 88
1, 8544, Note_on_c, 3, 66, 88
1, 8554, Note_off_c, 0, 80, 0
1, 8556, Note_on_c, 0, 80, 96
1, 8562, Note_off_c, 0, 80, 0
1, 8562, Note_on_c, 0, 82, 96
1, 8565, Note_off_c, 1, 73, 0
1, 8565, Note_off_c, 2, 73, 0
1, 8565, Note_off_c, 3, 66, 0
1, 8568, Note_off_c, 0, 82, 0
1, 8568, Note_on_c, 0, 83, 96
1, 8568, Note_on_c, 1, 75, 88
1, 8568, Note_on_c, 2, 71, 88
1, 8568, Note_on_c, 3, 59, 88
1, 8568, Note_on_c, 4, 59, 80
1, 8568, Note_on_c, 5, 47, 80
1, 8578, Note_off_c, 0, 83, 0
1, 8580, Note_on_c, 0, 83, 96
1, 8586, Note_off_c, 0, 83, 0
1, 8586, Note_on_c, 0, 82, 96
1, 8589, Note_off_c, 4, 59, 0
1, 8589, Note_off_c, 5, 47, 0
1, 8592, Note_off_c, 0, 82, 0
1, 8592, Note_on_c, 0, 83, 96
1, 8592, Note_on_c, 4, 54, 80
1, 8592, Note_on_c, 5, 42, 80
1, 8602, Note_off_c, 0, 83, 0
1, 8604, Note_on_c, 0, 78, 96
1, 8610, Note_off_c, 1, 75, 0
1, 8610, Note_off_c, 2, 71, 0
1, 8610, Note_off_c, 3, 59, 0
1, 8613, Note_off_c, 4, 54, 0
1, 8613, Note_off_c, 5, 42, 0
1, 8614, Note_off_c, 0, 78, 0
1, 8616, Note_on_c, 0, 78, 96
1, 8616, Note_on_c, 4, 47, 80
1, 8616, Note_on_c, 5, 35, 80
1, 8622, Note_off_c, 0, 78, 0
1, 8622, Note_on_c, 0, 76, 96
1, 8628, Note_off_c, 0, 76, 0
1, 8628, Note_on_c, 0, 75, 96
1, 8634, Note_off_c, 0, 75, 0
1, 8634, Note_on_c, 0, 73, 96
1, 8637, Note_off_c, 4, 47, 0
1, 8637, Note_off_c, 5, 35, 0
1, 8639, Note_off_c, 0, 73, 0
1, 8640, Note_on_c, 0, 72, 96
1, 8640, Note_on_c, 4, 51, 80
1, 8640, Note_on_c, 5, 39, 80
1, 8650, Note_off_c, 0, 72, 0
1, 8652, Note_on_c, 0, 78, 96
1, 8658, Note_off_c, 0, 78, 0
1, 8658, Note_on_c, 0, 80, 96
1, 8664, Note_off_c, 0, 80, 0
1, 8664, Note_on_c, 0, 81, 96
1, 8664, Note_on_c, 1, 72, 88
1, 8664, Note_on_c, 2, 66, 88
1, 8664, Note_on_c, 3, 63, 88
1, 8674, Note_off_c, 0, 81, 0
1, 8674, Note_off_c, 1, 72, 0
1, 8674, Note_off_c, 2, 66, 0
1, 8674, Note_off_c, 3, 63, 0
1, 8676, Note_on_c, 0, 78, 80
1, 8676, Note_on_c, 1, 73, 88
1, 8676, Note_on_c, 2, 64, 88
1, 8676, Note_on_c, 3, 61, 88
1, 8682, Note_off_c, 0, 78, 0
1, 8682, Note_on_c, 0, 80, 80
1, 8682, Note_off_c, 4, 51, 0
1, 8682, Note_off_c, 5, 39, 0
1, 8686, Note_off_c, 1, 73, 0
1, 8686, Note_off_c, 2, 64, 0
1, 8686, Note_off_c, 3, 61, 0
1, 8688, Note_off_c, 0, 80, 0
1, 8688, Note_on_c, 0, 81, 80
1, 8688, Note_on_c, 1, 72, 88
1, 8688, Note_on_c, 2, 66, 88
1, 8688, Note_on_c, 3, 63, 88
1, 8698, Note_off_c, 0, 81, 0
1, 8700, Note_on_c, 0, 78, 80
1, 8709, Note_off_c, 1, 72, 0
1, 8709, Note_off_c, 2, 66, 0
1, 8709, Note_off_c, 3, 63, 0
1, 8710, Note_off_c, 0, 78, 0
1, 8712, Note_on_c, 0, 73, 96
1, 8712, Note_on_c, 4, 49, 80
1, 8712, Note_on_c, 5, 37, 80
1, 8722, Note_off_c, 0, 73, 0
1, 8724, Note_on_c, 0, 78, 96
1, 8730, Note_off_c, 0, 78, 0
1, 8730, Note_on_c, 0, 80, 96
1, 8736, Note_off_c, 0, 80, 0
1, 8736, Note_on_c, 0, 81, 96
1, 8736, Note_on_c, 1, 73, 88
1, 8736, Note_on_c, 2, 64, 88
1, 8736, Note_on_c, 3, 61, 88
1, 8746, Note_off_c, 0, 81, 0
1, 8746, Note_off_c, 1, 73, 0
1, 8746, Note_off_c, 2, 64, 0
1, 8746, Note_off_c, 3, 61, 0
1, 8748, Note_on_c, 0, 78, 80
1, 8748, Note_on_c, 1, 75, 88
1, 8748, Note_on_c, 2, 63, 88
1, 8748, Note_on_c, 3, 60, 88
1, 8754, Note_off_c, 0, 78, 0
1, 8754, Note_on_c, 0, 80, 80
1, 8754, Note_off_c, 4, 49, 0
1, 8754, Note_off_c, 5, 37, 0
1, 8758, Note_off_c, 1, 75, 0
1, 8758, Note_off_c, 2, 63, 0
1, 8758, Note_off_c, 3, 60, 0
1, 8760, Note_off_c, 0, 80, 0
1, 8760, Note_on_c, 0, 81, 80
1, 8760, Note_on_c, 1, 73, 88
1, 8760, Note_on_c, 2, 64, 88
1, 8760, Note_on_c, 3, 61, 88
1, 8770, Note_off_c, 0, 81, 0
1, 8772, Note_on_c, 0, 78, 80
1, 8781, Note_off_c, 1, 73, 0
1, 8781, Note_off_c, 2, 64, 0
1, 8781, Note_off_c, 3, 61, 0
1, 8782, Note_off_c, 0, 78, 0
1, 8784, Note_on_c, 0, 75, 96
1, 8784, Note_on_c, 4, 48, 80
1, 8784, Note_on_c, 5, 36, 80
1, 8794, Note_off_c, 0, 75, 0
1, 8796, Note_on_c, 0, 78, 96
1, 8802, Note_off_c, 0, 78, 0
1, 8802, Note_on_c, 0, 80, 96
1, 8805, Note_off_c, 4, 48, 0
1, 8805, Note_off_c, 5, 36, 0
1, 8808, Note_off_c, 0, 80, 0
1, 8808, Note_on_c, 0, 81, 96
1, 8808, Note_on_c, 1, 75, 88
1, 8808, Note_on_c, 2, 66, 88
1, 8808, Note_on_c, 3, 60, 88
1, 8818, Note_off_c, 0, 81, 0
1, 8818, Note_off_c, 1, 75, 0
1, 8820, Note_on_c, 0, 78, 96
1, 8820, Note_on_c, 1, 76, 88
1, 8829, Note_off_c, 2, 66, 0
1, 8829, Note_off_c, 3, 60, 0
1, 8830, Note_off_c, 0, 78, 0
1, 8830, Note_off_c, 1, 76, 0
1, 8832, Note_on_c, 0, 84, 96
1, 8832, Note_on_c, 1, 78, 88
1, 8832, Note_on_c, 2, 68, 88
1, 8832, Note_on_c, 3, 63, 88
1, 8832, Note_on_c, 4, 44, 80
1, 8832, Note_on_c, 5, 32, 80
1, 8842, Note_off_c, 0, 84, 0
1, 8842, Note_off_c, 1, 78, 0
1, 8844, Note_on_c, 0, 78, 96
1, 8844, Note_on_c, 1, 75, 88
1, 8853, Note_off_c, 2, 68, 0
1, 8853, Note_off_c, 3, 63, 0
1, 8853, Note_off_c, 4, 44, 0
1, 8853, Note_off_c, 5, 32, 0
1, 8854, Note_off_c, 0, 78, 0
1, 8854, Note_off_c, 1, 75, 0
1, 8856, Note_on_c, 0, 76, 96
1, 8856, Note_on_c, 1, 76, 88
1, 8856, Note_on_c, 2, 68, 88
1, 8856, Note_on_c, 3, 61, 88
1, 8856, Note_on_c, 4, 49, 80
1, 8856, Note_on_c, 5, 37, 80
1, 8868, Note_off_c, 0, 76, 0
1, 8868, Note_on_c, 0, 75, 96
1, 8877, Note_off_c, 1, 76, 0
1, 8877, Note_off_c, 2, 68, 0
1, 8877, Note_off_c, 3, 61, 0
1, 8877, Note_off_c, 4, 49, 0
1, 8877, Note_off_c, 5, 37, 0
1, 8880, Note_off_c, 0, 75, 0
1, 8880, Note_on_c, 0, 73, 96
1, 8880, Note_on_c, 1, 73, 88
1, 8880, Note_on_c, 2, 64, 88
1, 8880, Note_on_c, 3, 68, 88
1, 8880, Note_on_c, 4, 52, 80
1, 8880, Note_on_c, 5, 40, 80
1, 8892, Note_off_c, 0, 73, 0
1, 8892, Note_on_c, 0, 75, 96
1, 8901, Note_off_c, 1, 73, 0
1, 8901, Note_off_c, 2, 64, 0
1, 8901, Note_off_c, 3, 68, 0
1, 8901, Note_off_c, 4, 52, 0
1, 8901, Note_off_c, 5, 40, 0
1, 8904, Note_off_c, 0, 75, 0
1, 8904, Note_on_c, 0, 76, 96
1, 8904, Note_on_c, 4, 49, 80
1, 8904, Note_on_c, 5, 37, 80
1, 8916, Note_off_c, 0, 76, 0
1, 8916, Note_on_c, 0, 73, 96
1, 8925, Note_off_c, 4, 49, 0
1, 8925, Note_off_c, 5, 37, 0
1, 8926, Note_off_c, 0, 73, 0
1, 8928, Note_on_c, 0, 79, 96
1, 8928, Note_on_c, 4, 46, 80
1, 8928, Note_on_c, 5, 34, 80
1, 8938, Note_off_c, 0, 79, 0
1, 8940, Note_on_c, 0, 73, 96
1, 8946, Note_off_c, 0, 73, 0
1, 8946, Note_on_c, 0, 75, 96
1, 8952, Note_off_c, 0, 75, 0
1, 8952, Note_on_c, 0, 76, 96
1, 8952, Note_on_c, 1, 73, 88
1, 8952, Note_on_c, 2, 67, 88
1, 8952, Note_on_c, 3, 70, 88
1, 8962, Note_off_c, 0, 76, 0
1, 8962, Note_off_c, 1, 73, 0
1, 8962, Note_off_c, 2, 67, 0
1, 8962, Note_off_c, 3, 70, 0
1, 8964, Note_on_c, 0, 73, 80
1, 8964, Note_on_c, 1, 71, 88
1, 8964, Note_on_c, 2, 68, 88
1, 8964, Note_on_c, 3, 68, 88
1, 8970, Note_off_c, 0, 73, 0
1, 8970, Note_on_c, 0, 75, 80
1, 8970, Note_off_c, 4, 46, 0
1, 8970, Note_off_c, 5, 34, 0
1, 8974, Note_off_c, 1, 71, 0
1, 8974, Note_off_c, 2, 68, 0
1, 8974, Note_off_c, 3, 68, 0
1, 8976, Note_off_c, 0, 75, 0
1, 8976, Note_on_c, 0, 76, 80
1, 8976, Note_on_c, 1, 73, 88
1, 8976, Note_on_c, 2, 67, 88
1, 8976, Note_on_c, 3, 70, 88
1, 8986, Note_off_c, 0, 76, 0
1, 8988, Note_on_c, 0, 73, 80
1, 8997, Note_off_c, 1, 73, 0
1, 8997, Note_off_c, 2, 67, 0
1, 8997, Note_off_c, 3, 70, 0
1, 8998, Note_off_c, 0, 73, 0
1, 9000, Note_on_c, 0, 80, 96
1, 9000, Note_on_c, 4, 44, 80
1, 9000, Note_on_c, 5, 32, 80
1, 9010, Note_off_c, 0, 80, 0
1, 9012, Note_on_c, 0, 73, 96
1, 9018, Note_off_c, 0, 73, 0
1, 9018, Note_on_c, 0, 75, 96
1, 9024, Note_off_c, 0, 75, 0
1, 9024, Note_on_c, 0, 76, 96
1, 9024, Note_on_c, 1, 71, 88
1, 9024, Note_on_c, 2, 68, 88
1, 9024, Note_on_c, 3, 68, 88
1, 9034, Note_off_c, 0, 76, 0
1, 9034, Note_off_c, 1, 71, 0
1, 9034, Note_off_c, 2, 68, 0
1, 9034, Note_off_c, 3, 68, 0
1, 9036, Note_on_c, 0, 73, 80
1, 9036, Note_on_c, 1, 70, 88
1, 9036, Note_on_c, 2, 70, 88
1, 9036, Note_on_c, 3, 67, 88
1, 9042, Note_off_c, 0, 73, 0
1, 9042, Note_on_c, 0, 75, 80
1, 9042, Note_off_c, 4, 44, 0
1, 9042, Note_off_c, 5, 32, 0
1, 9046, Note_off_c, 1, 70, 0
1, 9046, Note_off_c, 2, 70, 0
1, 9046, Note_off_c, 3, 67, 0
1, 9048, Note_off_c, 0, 75, 0
1, 9048, Note_on_c, 0, 76, 80
1, 9048, Note_on_c, 1, 71, 88
1, 9048, Note_on_c, 2, 68, 88
1, 9048, Note_on_c, 3, 68, 88
1, 9058, Note_off_c, 0, 76, 0
1, 9060, Note_on_c, 0, 73, 80
1, 9069, Note_off_c, 1, 71, 0
1, 9069, Note_off_c, 2, 68, 0
1, 9069, Note_off_c, 3, 68, 0
1, 9070, Note_off_c, 0, 73, 0
1, 9072, Note_on_c, 0, 82, 96
1, 9072, Note_on_c, 4, 43, 80
1, 9072, Note_on_c, 5, 31, 80
1, 9082, Note_off_c, 0, 82, 0
1, 9084, Note_on_c, 0, 73, 96
1, 9090, Note_off_c, 0, 73, 0
1, 9090, Note_on_c, 0, 75, 96
1, 9093, Note_off_c, 4, 43, 0
1, 9093, Note_off_c, 5, 31, 0
1, 9096, Note_off_c, 0, 75, 0
1, 9096, Note_on_c, 0, 76, 96
1, 9096, Note_on_c, 1, 70, 88
1, 9096, Note_on_c, 2, 61, 88
1, 9096, Note_on_c, 3, 67, 88
1, 9106, Note_off_c, 0, 76, 0
1, 9106, Note_off_c, 1, 70, 0
1, 9106, Note_off_c, 3, 67, 0
1, 9108, Note_on_c, 0, 73, 96
1, 9108, Note_on_c, 1, 71, 88
1, 9108, Note_on_c, 3, 65, 88
1, 9117, Note_off_c, 2, 61, 0
1, 9118, Note_off_c, 0, 73, 0
1, 9118, Note_off_c, 1, 71, 0
1, 9118, Note_off_c, 3, 65, 0
1, 9120, Note_on_c, 0, 70, 96
1, 9120, Note_on_c, 1, 73, 88
1, 9120, Note_on_c, 2, 63, 88
1, 9120, Note_on_c, 3, 67, 88
1, 9120, Note_on_c, 4, 39, 80
1, 9120, Note_on_c, 5, 27, 80
1, 9130, Note_off_c, 0, 70, 0
1, 9130, Note_off_c, 1, 73, 0
1, 9132, Note_on_c, 0, 75, 96
1, 9132, Note_on_c, 1, 70, 88
1, 9141, Note_off_c, 2, 63, 0
1, 9141, Note_off_c, 3, 67, 0
1, 9141, Note_off_c, 4, 39, 0
1, 9141, Note_off_c, 5, 27, 0
1, 9142, Note_off_c, 0, 75, 0
1, 9142, Note_off_c, 1, 70, 0
1, 9144, Note_on_c, 0, 71, 96
1, 9144, Note_on_c, 1, 71, 88
1, 9144, Note_on_c, 2, 63, 88
1, 9144, Note_on_c, 3, 68, 88
1, 9144, Note_on_c, 4, 44, 80
1, 9144, Note_on_c, 5, 32, 80
1, 9156, Note_off_c, 0, 71, 0
1, 9156, Note_on_c, 0, 70, 96
1, 9165, Note_off_c, 1, 71, 0
1, 9165, Note_off_c, 2, 63, 0
1, 9165, Note_off_c, 3, 68, 0
1, 9165, Note_off_c, 4, 44, 0
1, 9165, Note_off_c, 5, 32, 0
1, 9168, Note_off_c, 0, 70, 0
1, 9168, Note_on_c, 0, 68, 96
1, 9168, Note_on_c, 1, 68, 88
1, 9168, Note_on_c, 2, 63, 88
1, 9168, Note_on_c, 3, 59, 88
1, 9168, Note_on_c, 4, 47, 80
1, 9168, Note_on_c, 5, 35, 80
1, 9180, Note_off_c, 0, 68, 0
1, 9180, Note_on_c, 0, 70, 96
1, 9189, Note_off_c, 1, 68, 0
1, 9189, Note_off_c, 2, 63, 0
1, 9189, Note_off_c, 3, 59, 0
1, 9189, Note_off_c, 4, 47, 0
1, 9189, Note_off_c, 5, 35, 0
1, 9192, Note_off_c, 0, 70, 0
1, 9192, Note_on_c, 0, 71, 96
1, 9192, Note_on_c, 4, 51, 80
1, 9192, Note_on_c, 5, 39, 80
1, 9204, Note_off_c, 0, 71, 0
1, 9204, Note_on_c, 0, 73, 96
1, 9213, Note_off_c, 4, 51, 0
1, 9213, Note_off_c, 5, 39, 0
1, 9214, Note_off_c, 0, 73, 0
1, 9216, Note_on_c, 0, 75, 96
1, 9216, Note_on_c, 1, 80, 88
1, 9216, Note_on_c, 2, 71, 88
1, 9216, Note_on_c, 4, 56, 80
1, 9216, Note_on_c, 5, 44, 80
1, 9226, Note_off_c, 0, 75, 0
1, 9228, Note_on_c, 0, 80, 96
1, 9234, Note_off_c, 0, 80, 0
1, 9234, Note_on_c, 0, 82, 96
1, 9237, Note_off_c, 4, 56, 0
1, 9237, Note_off_c, 5, 44, 0
1, 9240, Note_off_c, 0, 82, 0
1, 9240, Note_on_c, 0, 83, 96
1, 9240, Note_on_c, 4, 53, 80
1, 9240, Note_on_c, 5, 41, 80
1, 9250, Note_off_c, 0, 83, 0
1, 9252, Note_on_c, 0, 80, 96
1, 9258, Note_off_c, 0, 80, 0
1, 9258, Note_on_c, 0, 78, 96
1, 9261, Note_off_c, 4, 53, 0
1, 9261, Note_off_c, 5, 41, 0
1, 9264, Note_off_c, 0, 78, 0
1, 9264, Note_on_c, 0, 77, 96
1, 9264, Note_on_c, 4, 49, 80
1, 9264, Note_on_c, 5, 37, 80
1, 9274, Note_off_c, 0, 77, 0
1, 9276, Note_on_c, 0, 73, 96
1, 9285, Note_off_c, 4, 49, 0
1, 9285, Note_off_c, 5, 37, 0
1, 9286, Note_off_c, 0, 73, 0
1, 9288, Note_on_c, 0, 66, 96
1, 9288, Note_on_c, 4, 54, 80
1, 9288, Note_on_c, 5, 42, 80
1, 9300, Note_off_c, 0, 66, 0
1, 9300, Note_on_c, 0, 73, 96
1, 9300, Note_off_c, 1, 80, 0
1, 9300, Note_off_c, 2, 71, 0
1, 9312, Note_off_c, 0, 73, 0
1, 9312, Note_on_c, 0, 77, 96
1, 9312, Note_on_c, 1, 77, 88
1, 9312, Note_on_c, 2, 68, 88
1, 9322, Note_off_c, 0, 77, 0
1, 9324, Note_on_c, 0, 83, 96
1, 9333, Note_off_c, 1, 77, 0
1, 9333, Note_off_c, 2, 68, 0
1, 9334, Note_off_c, 0, 83, 0
1, 9336, Note_on_c, 0, 81, 96
1, 9336, Note_on_c, 1, 73, 88
1, 9336, Note_on_c, 2, 65, 88
1, 9346, Note_off_c, 0, 81, 0
1, 9348, Note_on_c, 0, 80, 96
1, 9357, Note_off_c, 1, 73, 0
1, 9357, Note_off_c, 2, 65, 0
1, 9358, Note_off_c, 0, 80, 0
1, 9360, Note_on_c, 0, 73, 96
1, 9360, Note_on_c, 1, 78, 88
1, 9360, Note_on_c, 2, 69, 88
1, 9370, Note_off_c, 0, 73, 0
1, 9372, Note_on_c, 0, 78, 96
1, 9372, Note_off_c, 4, 54, 0
1, 9372, Note_off_c, 5, 42, 0
1, 9378, Note_off_c, 0, 78, 0
1, 9378, Note_on_c, 0, 80, 96
1, 9384, Note_off_c, 0, 80, 0
1, 9384, Note_on_c, 0, 81, 96
1, 9384, Note_on_c, 4, 51, 80
1, 9384, Note_on_c, 5, 39, 80
1, 9394, Note_off_c, 0, 81, 0
1, 9396, Note_on_c, 0, 78, 96
1, 9402, Note_off_c, 0, 78, 0
1, 9402, Note_on_c, 0, 76, 96
1, 9405, Note_off_c, 4, 51, 0
1, 9405, Note_off_c, 5, 39, 0
1, 9408, Note_off_c, 0, 76, 0
1, 9408, Note_on_c, 0, 75, 96
1, 9408, Note_on_c, 4, 47, 80
1, 9408, Note_on_c, 5, 35, 80
1, 9418, Note_off_c, 0, 75, 0
1, 9420, Note_on_c, 0, 71, 96
1, 9429, Note_off_c, 4, 47, 0
1, 9429, Note_off_c, 5, 35, 0
1, 9430, Note_off_c, 0, 71, 0
1, 9432, Note_on_c, 0, 64, 96
1, 9432, Note_on_c, 4, 52, 80
1, 9432, Note_on_c, 5, 40, 80
1, 9444, Note_off_c, 0, 64, 0
1, 9444, Note_on_c, 0, 71, 96
1, 9444, Note_off_c, 1, 78, 0
1, 9444, Note_off_c, 2, 69, 0
1, 9456, Note_off_c, 0, 71, 0
1, 9456, Note_on_c, 0, 75, 96
1, 9456, Note_on_c, 1, 75, 88
1, 9456, Note_on_c, 2, 66, 88
1, 9466, Note_off_c, 0, 75, 0
1, 9468, Note_on_c, 0, 81, 96
1, 9477, Note_off_c, 1, 75, 0
1, 9477, Note_off_c, 2, 66, 0
1, 9478, Note_off_c, 0, 81, 0
1, 9480, Note_on_c, 0, 80, 96
1, 9480, Note_on_c, 1, 71, 88
1, 9480, Note_on_c, 2, 63, 88
1, 9490, Note_off_c, 0, 80, 0
1, 9492, Note_on_c, 0, 78, 96
1, 9501, Note_off_c, 1, 71, 0
1, 9501, Note_off_c, 2, 63, 0
1, 9502, Note_off_c, 0, 78, 0
1, 9504, Note_on_c, 0, 71, 96
1, 9504, Note_on_c, 1, 76, 88
1, 9504, Note_on_c, 2, 68, 88
1, 9514, Note_off_c, 0, 71, 0
1, 9516, Note_on_c, 0, 76, 96
1, 9516, Note_off_c, 4, 52, 0
1, 9516, Note_off_c, 5, 40, 0
1, 9522, Note_off_c, 0, 76, 0
1, 9522, Note_on_c, 0, 78, 96
1, 9528, Note_off_c, 0, 78, 0
1, 9528, Note_on_c, 0, 80, 96
1, 9528, Note_on_c, 4, 59, 80
1, 9528, Note_on_c, 5, 47, 80
1, 9538, Note_off_c, 0, 80, 0
1, 9540, Note_on_c, 0, 80, 96
1, 9546, Note_off_c, 0, 80, 0
1, 9546, Note_on_c, 0, 78, 96
1, 9549, Note_off_c, 4, 59, 0
1, 9549, Note_off_c, 5, 47, 0
1, 9552, Note_off_c, 0, 78, 0
1, 9552, Note_on_c, 0, 76, 96
1, 9552, Note_on_c, 4, 56, 80
1, 9552, Note_on_c, 5, 44, 80
1, 9562, Note_off_c, 0, 76, 0
1, 9564, Note_on_c, 0, 76, 96
1, 9570, Note_off_c, 0, 76, 0
1, 9570, Note_on_c, 0, 75, 96
1, 9573, Note_off_c, 4, 56, 0
1, 9573, Note_off_c, 5, 44, 0
1, 9576, Note_off_c, 0, 75, 0
1, 9576, Note_on_c, 0, 73, 96
1, 9576, Note_on_c, 4, 52, 80
1, 9576, Note_on_c, 5, 40, 80
1, 9586, Note_off_c, 0, 73, 0
1, 9588, Note_on_c, 0, 73, 96
1, 9594, Note_off_c, 0, 73, 0
1, 9594, Note_on_c, 0, 75, 96
1, 9597, Note_off_c, 4, 52, 0
1, 9597, Note_off_c, 5, 40, 0
1, 9600, Note_off_c, 0, 75, 0
1, 9600, Note_on_c, 0, 76, 96
1, 9600, Note_on_c, 4, 56, 80
1, 9600, Note_on_c, 5, 44, 80
1, 9610, Note_off_c, 0, 76, 0
1, 9612, Note_on_c, 0, 76, 96
1, 9618, Note_off_c, 0, 76, 0
1, 9618, Note_on_c, 0, 75, 96
1, 9621, Note_off_c, 4, 56, 0
1, 9621, Note_off_c, 5, 44, 0
1, 9624, Note_off_c, 0, 75, 0
1, 9624, Note_on_c, 0, 73, 96
1, 9624, Note_on_c, 4, 52, 80
1, 9624, Note_on_c, 5, 40, 80
1, 9630, Note_off_c, 2, 68, 0
1, 9634, Note_off_c, 0, 73, 0
1, 9636, Note_on_c, 0, 73, 96
1, 9642, Note_off_c, 0, 73, 0
1, 9642, Note_on_c, 0, 71, 96
1, 9645, Note_off_c, 4, 52, 0
1, 9645, Note_off_c, 5, 40, 0
1, 9648, Note_off_c, 0, 71, 0
1, 9648, Note_on_c, 0, 69, 96
1, 9648, Note_on_c, 2, 73, 88
1, 9648, Note_on_c, 4, 49, 80
1, 9648, Note_on_c, 5, 37, 80
1, 9658, Note_off_c, 0, 69, 0
1, 9660, Note_on_c, 0, 68, 96
1, 9666, Note_off_c, 0, 68, 0
1, 9666, Note_on_c, 0, 71, 96
1, 9669, Note_off_c, 4, 49, 0
1, 9669, Note_off_c, 5, 37, 0
1, 9672, Note_off_c, 0, 71, 0
1, 9672, Note_on_c, 0, 73, 96
1, 9672, Note_on_c, 4, 52, 80
1, 9672, Note_on_c, 5, 40, 80
1, 9682, Note_off_c, 0, 73, 0
1, 9684, Note_on_c, 0, 73, 96
1, 9690, Note_off_c, 0, 73, 0
1, 9690, Note_on_c, 0, 71, 96
1, 9693, Note_off_c, 4, 52, 0
1, 9693, Note_off_c, 5, 40, 0
1, 9696, Note_off_c, 0, 71, 0
1, 9696, Note_on_c, 0, 69, 96
1, 9696, Note_on_c, 4, 49, 80
1, 9696, Note_on_c, 5, 37, 80
1, 9706, Note_off_c, 0, 69, 0
1, 9708, Note_on_c, 0, 69, 96
1, 9711, Note_off_c, 2, 73, 0
1, 9714, Note_off_c, 0, 69, 0
1, 9714, Note_on_c, 0, 68, 96
1, 9717, Note_off_c, 4, 49, 0
1, 9717, Note_off_c, 5, 37, 0
1, 9720, Note_off_c, 0, 68, 0
1, 9720, Note_on_c, 0, 67, 96
1, 9720, Note_off_c, 1, 76, 0
1, 9720, Note_on_c, 2, 70, 88
1, 9720, Note_on_c, 4, 61, 80
1, 9720, Note_on_c, 5, 49, 80
1, 9730, Note_off_c, 0, 67, 0
1, 9732, Note_on_c, 0, 76, 96
1, 9742, Note_off_c, 0, 76, 0
1, 9744, Note_on_c, 0, 75, 96
1, 9744, Note_on_c, 1, 67, 88
1, 9750, Note_off_c, 1, 67, 0
1, 9750, Note_on_c, 1, 68, 88
1, 9751, Note_off_c, 4, 61, 0
1, 9751, Note_off_c, 5, 49, 0
1, 9756, Note_off_c, 1, 68, 0
1, 9756, Note_on_c, 1, 67, 88
1, 9756, Note_on_c, 4, 64, 80
1, 9756, Note_on_c, 5, 52, 80
1, 9762, Note_off_c, 1, 67, 0
1, 9762, Note_on_c, 1, 68, 88
1, 9766, Note_off_c, 4, 64, 0
1, 9766, Note_off_c, 5, 52, 0
1, 9768, Note_off_c, 1, 68, 0
1, 9768, Note_on_c, 1, 67, 88
1, 9768, Note_on_c, 4, 63, 80
1, 9768, Note_on_c, 5, 51, 80
1, 9774, Note_off_c, 1, 67, 0
1, 9774, Note_on_c, 1, 68, 88
1, 9778, Note_off_c, 4, 63, 0
1, 9778, Note_off_c, 5, 51, 0
1, 9780, Note_off_c, 1, 68, 0
1, 9780, Note_on_c, 1, 67, 88
1, 9780, Note_on_c, 4, 61, 80
1, 9780, Note_on_c, 5, 49, 80
1, 9783, Note_off_c, 2, 70, 0
1, 9784, Note_off_c, 1, 67, 0
1, 9784, Note_on_c, 1, 68, 88
1, 9788, Note_off_c, 1, 68, 0
1, 9788, Note_on_c, 1, 67, 88
1, 9790, Note_off_c, 4, 61, 0
1, 9790, Note_off_c, 5, 49, 0
1, 9791, Note_off_c, 1, 67, 0
1, 9792, Note_on_c, 4, 59, 80
1, 9792, Note_on_c, 5, 47, 80
1, 9796, Note_off_c, 0, 75, 0
1, 9804, Note_on_c, 0, 71, 96
1, 9810, Note_off_c, 0, 71, 0
1, 9810, Note_on_c, 0, 73, 96
1, 9813, Note_off_c, 4, 59, 0
1, 9813, Note_off_c, 5, 47, 0
1, 9816, Note_off_c, 0, 73, 0
1, 9816, Note_on_c, 0, 75, 96
1, 9816, Note_on_c, 1, 75, 88
1, 9816, Note_on_c, 2, 71, 88
1, 9816, Note_on_c, 3, 68, 88
1, 9816, Note_on_c, 4, 56, 80
1, 9816, Note_on_c, 5, 44, 80
1, 9826, Note_off_c, 0, 75, 0
1, 9828, Note_on_c, 0, 80, 96
1, 9837, Note_off_c, 1, 75, 0
1, 9837, Note_off_c, 2, 71, 0
1, 9837, Note_off_c, 3, 68, 0
1, 9837, Note_off_c, 4, 56, 0
1, 9837, Note_off_c, 5, 44, 0
1, 9838, Note_off_c, 0, 80, 0
1, 9840, Note_on_c, 0, 75, 96
1, 9840, Note_on_c, 1, 80, 88
1, 9840, Note_on_c, 2, 75, 88
1, 9840, Note_on_c, 3, 71, 88
1, 9850, Note_off_c, 0, 75, 0
1, 9852, Note_on_c, 0, 71, 96
1, 9861, Note_off_c, 1, 80, 0
1, 9861, Note_off_c, 2, 75, 0
1, 9861, Note_off_c, 3, 71, 0
1, 9862, Note_off_c, 0, 71, 0
1, 9864, Note_on_c, 0, 70, 96
1, 9864, Note_on_c, 4, 55, 80
1, 9864, Note_on_c, 5, 43, 80
1, 9874, Note_off_c, 0, 70, 0
1, 9876, Note_on_c, 0, 67, 96
1, 9882, Note_off_c, 0, 67, 0
1, 9882, Note_on_c, 0, 68, 96
1, 9885, Note_off_c, 4, 55, 0
1, 9885, Note_off_c, 5, 43, 0
1, 9888, Note_off_c, 0, 68, 0
1, 9888, Note_on_c, 0, 70, 96
1, 9888, Note_on_c, 1, 75, 88
1, 9888, Note_on_c, 2, 70, 88
1, 9888, Note_on_c, 3, 67, 88
1, 9888, Note_on_c, 4, 51, 80
1, 9888, Note_on_c, 5, 39, 80
1, 9898, Note_off_c, 0, 70, 0
1, 9900, Note_on_c, 0, 73, 96
1, 9909, Note_off_c, 1, 75, 0
1, 9909, Note_off_c, 2, 70, 0
1, 9909, Note_off_c, 3, 67, 0
1, 9909, Note_off_c, 4, 51, 0
1, 9909, Note_off_c, 5, 39, 0
1, 9910, Note_off_c, 0, 73, 0
1, 9912, Note_on_c, 0, 70, 96
1, 9912, Note_on_c, 1, 82, 88
1, 9912, Note_on_c, 2, 73, 88
1, 9912, Note_on_c, 3, 63, 88
1, 9922, Note_off_c, 0, 70, 0
1, 9924, Note_on_c, 0, 67, 96
1, 9933, Note_off_c, 1, 82, 0
1, 9933, Note_off_c, 2, 73, 0
1, 9933, Note_off_c, 3, 63, 0
1, 9934, Note_off_c, 0, 67, 0
1, 9936, Note_on_c, 0, 63, 96
1, 9936, Note_on_c, 4, 47, 80
1, 9936, Note_on_c, 5, 35, 80
1, 9946, Note_off_c, 0, 63, 0
1, 9948, Note_on_c, 0, 59, 96
1, 9954, Note_off_c, 0, 59, 0
1, 9954, Note_on_c, 0, 61, 96
1, 9957, Note_off_c, 4, 47, 0
1, 9957, Note_off_c, 5, 35, 0
1, 9960, Note_off_c, 0, 61, 0
1, 9960, Note_on_c, 0, 63, 96
1, 9960, Note_on_c, 1, 75, 88
1, 9960, Note_on_c, 2, 71, 88
1, 9960, Note_on_c, 3, 68, 88
1, 9960, Note_on_c, 4, 44, 80
1, 9960, Note_on_c, 5, 32, 80
1, 9970, Note_off_c, 0, 63, 0
1, 9972, Note_on_c, 0, 68, 96
1, 9981, Note_off_c, 1, 75, 0
1, 9981, Note_off_c, 2, 71, 0
1, 9981, Note_off_c, 3, 68, 0
1, 9981, Note_off_c, 4, 44, 0
1, 9981, Note_off_c, 5, 32, 0
1, 9982, Note_off_c, 0, 68, 0
1, 9984, Note_on_c, 0, 63, 96
1, 9984, Note_on_c, 1, 83, 88
1, 9984, Note_on_c, 2, 75, 88
1, 9984, Note_on_c, 3, 56, 88
1, 9994, Note_off_c, 0, 63, 0
1, 9996, Note_on_c, 0, 59, 96
1, 10005, Note_off_c, 1, 83, 0
1, 10005, Note_off_c, 2, 75, 0
1, 10005, Note_off_c, 3, 56, 0
1, 10006, Note_off_c, 0, 59, 0
1, 10008, Note_on_c, 0, 58, 96
1, 10008, Note_on_c, 1, 82, 88
1, 10008, Note_on_c, 2, 75, 88
1, 10008, Note_on_c, 4, 54, 80
1, 10008, Note_on_c, 5, 42, 80
1, 10018, Note_off_c, 0, 58, 0
1, 10020, Note_on_c, 0, 58, 96
1, 10020, Note_off_c, 1, 82, 0
1, 10020, Note_on_c, 1, 80, 88
1, 10026, Note_off_c, 0, 58, 0
1, 10026, Note_on_c, 0, 59, 96
1, 10029, Note_off_c, 4, 54, 0
1, 10029, Note_off_c, 5, 42, 0
1, 10030, Note_off_c, 1, 80, 0
1, 10032, Note_off_c, 0, 59, 0
1, 10032, Note_on_c, 0, 61, 96
1, 10032, Note_on_c, 1, 79, 88
1, 10032, Note_on_c, 3, 55, 88
1, 10032, Note_on_c, 4, 39, 80
1, 10032, Note_on_c, 5, 27, 80
1, 10044, Note_off_c, 1, 79, 0
1, 10044, Note_on_c, 1, 77, 88
1, 10050, Note_off_c, 2, 75, 0
1, 10053, Note_off_c, 3, 55, 0
1, 10053, Note_off_c, 4, 39, 0
1, 10053, Note_off_c, 5, 27, 0
1, 10054, Note_off_c, 1, 77, 0
1, 10056, Note_on_c, 1, 75, 88
1, 10056, Note_on_c, 3, 58, 88
1, 10056, Note_on_c, 4, 41, 80
1, 10056, Note_on_c, 5, 29, 80
1, 10068, Note_off_c, 1, 75, 0
1, 10068, Note_on_c, 1, 73, 88
1, 10077, Note_off_c, 3, 58, 0
1, 10077, Note_off_c, 4, 41, 0
1, 10077, Note_off_c, 5, 29, 0
1, 10078, Note_off_c, 1, 73, 0
1, 10080, Note_on_c, 1, 76, 88
1, 10080, Note_on_c, 2, 67, 88
1, 10080, Note_on_c, 3, 58, 88
1, 10080, Note_on_c, 4, 43, 80
1, 10080, Note_on_c, 5, 31, 80
1, 10084, Note_off_c, 0, 61, 0
1, 10092, Note_on_c, 0, 67, 96
1, 10098, Note_off_c, 0, 67, 0
1, 10098, Note_on_c, 0, 65, 96
1, 10101, Note_off_c, 1, 76, 0
1, 10101, Note_off_c, 4, 43, 0
1, 10101, Note_off_c, 5, 31, 0
1, 10104, Note_off_c, 0, 65, 0
1, 10104, Note_on_c, 0, 67, 96
1, 10104, Note_on_c, 1, 73, 88
1, 10104, Note_on_c, 4, 46, 80
1, 10104, Note_on_c, 5, 34, 80
1, 10114, Note_off_c, 0, 67, 0
1, 10116, Note_on_c, 0, 61, 96
1, 10122, Note_off_c, 0, 61, 0
1, 10122, Note_on_c, 0, 59, 96
1, 10122, Note_off_c, 2, 67, 0
1, 10122, Note_off_c, 3, 58, 0
1, 10125, Note_off_c, 1, 73, 0
1, 10125, Note_off_c, 4, 46, 0
1, 10125, Note_off_c, 5, 34, 0
1, 10128, Note_off_c, 0, 59, 0
1, 10128, Note_on_c, 0, 61, 96
1, 10128, Note_on_c, 1, 70, 88
1, 10128, Note_on_c, 4, 49, 80
1, 10128, Note_on_c, 5, 37, 80
1, 10138, Note_off_c, 0, 61, 0
1, 10140, Note_on_c, 0, 68, 96
1, 10146, Note_off_c, 0, 68, 0
1, 10146, Note_on_c, 0, 67, 96
1, 10149, Note_off_c, 1, 70, 0
1, 10149, Note_off_c, 4, 49, 0
1, 10149, Note_off_c, 5, 37, 0
1, 10152, Note_off_c, 0, 67, 0
1, 10152, Note_on_c, 0, 68, 96
1, 10152, Note_on_c, 1, 73, 88
1, 10152, Note_on_c, 2, 68, 88
1, 10152, Note_on_c, 3, 58, 88
1, 10152, Note_on_c, 4, 52, 80
1, 10152, Note_on_c, 5, 40, 80
1, 10162, Note_off_c, 0, 68, 0
1, 10164, Note_on_c, 0, 61, 96
1, 10170, Note_off_c, 0, 61, 0
1, 10170, Note_on_c, 0, 60, 96
1, 10173, Note_off_c, 1, 73, 0
1, 10173, Note_off_c, 4, 52, 0
1, 10173, Note_off_c, 5, 40, 0
1, 10176, Note_off_c, 0, 60, 0
1, 10176, Note_on_c, 0, 61, 96
1, 10176, Note_on_c, 1, 70, 88
1, 10176, Note_on_c, 4, 55, 80
1, 10176, Note_on_c, 5, 43, 80
1, 10186, Note_off_c, 0, 61, 0
1, 10186, Note_off_c, 4, 55, 0
1, 10186, Note_off_c, 5, 43, 0
1, 10188, Note_on_c, 0, 70, 96
1, 10188, Note_on_c, 4, 58, 80
1, 10188, Note_on_c, 5, 46, 80
1, 10194, Note_off_c, 0, 70, 0
1, 10194, Note_on_c, 0, 68, 96
1, 10194, Note_off_c, 2, 68, 0
1, 10194, Note_off_c, 3, 58, 0
1, 10197, Note_off_c, 1, 70, 0
1, 10198, Note_off_c, 4, 58, 0
1, 10198, Note_off_c, 5, 46, 0
1, 10200, Note_off_c, 0, 68, 0
1, 10200, Note_on_c, 0, 70, 96
1, 10200, Note_on_c, 1, 67, 88
1, 10200, Note_on_c, 4, 61, 80
1, 10200, Note_on_c, 5, 49, 80
1, 10210, Note_off_c, 0, 70, 0
1, 10212, Note_on_c, 0, 59, 96
1, 10218, Note_off_c, 0, 59, 0
1, 10218, Note_on_c, 0, 58, 96
1, 10221, Note_off_c, 1, 67, 0
1, 10221, Note_off_c, 4, 61, 0
1, 10221, Note_off_c, 5, 49, 0
1, 10224, Note_off_c, 0, 58, 0
1, 10224, Note_on_c, 0, 59, 96
1, 10224, Note_on_c, 1, 59, 88
1, 10224, Note_on_c, 2, 59, 88
1, 10224, Note_on_c, 3, 59, 88
1, 10224, Note_on_c, 4, 47, 80
1, 10224, Note_on_c, 5, 35, 80
1, 10234, Note_off_c, 0, 59, 0
1, 10236, Note_on_c, 0, 68, 96
1, 10245, Note_off_c, 1, 59, 0
1, 10245, Note_off_c, 2, 59, 0
1, 10245, Note_off_c, 3, 59, 0
1, 10245, Note_off_c, 4, 47, 0
1, 10245, Note_off_c, 5, 35, 0
1, 10246, Note_off_c, 0, 68, 0
1, 10248, Note_on_c, 0, 64, 96
1, 10248, Note_on_c, 1, 61, 88
1, 10248, Note_on_c, 2, 61, 88
1, 10248, Note_on_c, 3, 61, 88
1, 10248, Note_on_c, 4, 49, 80
1, 10248, Note_on_c, 5, 37, 80
1, 10258, Note_off_c, 0, 64, 0
1, 10260, Note_on_c, 0, 61, 96
1, 10269, Note_off_c, 1, 61, 0
1, 10269, Note_off_c, 2, 61, 0
1, 10269, Note_off_c, 3, 61, 0
1, 10269, Note_off_c, 4, 49, 0
1, 10269, Note_off_c, 5, 37, 0
1, 10270, Note_off_c, 0, 61, 0
1, 10272, Note_on_c, 0, 58, 96
1, 10272, Note_on_c, 1, 63, 88
1, 10272, Note_on_c, 2, 63, 88
1, 10272, Note_on_c, 3, 63, 88
1, 10272, Note_on_c, 4, 51, 80
1, 10272, Note_on_c, 5, 39, 80
1, 10282, Note_off_c, 0, 58, 0
1, 10284, Note_on_c, 0, 68, 96
1, 10290, Note_off_c, 0, 68, 0
1, 10290, Note_on_c, 0, 67, 96
1, 10293, Note_off_c, 1, 63, 0
1, 10293, Note_off_c, 2, 63, 0
1, 10293, Note_off_c, 3, 63, 0
1, 10293, Note_off_c, 4, 51, 0
1, 10293, Note_off_c, 5, 39, 0
1, 10296, Note_off_c, 0, 67, 0
1, 10296, Note_on_c, 0, 68, 96
1, 10296, Note_on_c, 1, 56, 88
1, 10296, Note_on_c, 2, 56, 88
1, 10296, Note_on_c, 3, 56, 88
1, 10296, Note_on_c, 4, 44, 80
1, 10296, Note_on_c, 5, 32, 80
1, 10327, Note_off_c, 0, 68, 0
1, 10332, Note_on_c, 0, 71, 96
1, 10338, Note_off_c, 0, 71, 0
1, 10338, Note_on_c, 0, 69, 96
1, 10338, Note_off_c, 1, 56, 0
1, 10338, Note_off_c, 2, 56, 0
1, 10338, Note_off_c, 3, 56, 0
1, 10338, Note_off_c, 4, 44, 0
1, 10338, Note_off_c, 5, 32, 0
1, 10344, Note_off_c, 0, 69, 0
1, 10344, Note_on_c, 0, 68, 96
1, 10350, Note_off_c, 0, 68, 0
1, 10350, Note_on_c, 0, 66, 96
1, 10356, Note_off_c, 0, 66, 0
1, 10356, Note_on_c, 0, 64, 96
1, 10362, Note_off_c, 0, 64, 0
1, 10362, Note_on_c, 0, 63, 96
1, 10367, Note_off_c, 0, 63, 0
1, 10368, Note_on_c, 0, 64, 96
1, 10368, Note_on_c, 1, 64, 104
1, 10368, Note_on_c, 2, 68, 104
1, 10368, Note_on_c, 3, 59, 104
1, 10368, Note_on_c, 4, 52, 96
1, 10368, Note_on_c, 5, 40, 96
1, 10380, Note_off_c, 0, 64, 0
1, 10380, Note_on_c, 0, 66, 96
1, 10380, Note_off_c, 1, 64, 0
1, 10380, Note_on_c, 1, 66, 104
1, 10392, Note_off_c, 0, 66, 0
1, 10392, Note_on_c, 0, 68, 96
1, 10392, Note_off_c, 1, 66, 0
1, 10392, Note_on_c, 1, 68, 104
1, 10404, Note_off_c, 0, 68, 0
1, 10404, Note_on_c, 0, 71, 96
1, 10404, Note_off_c, 1, 68, 0
1, 10404, Note_on_c, 1, 71, 104
1, 10410, Note_off_c, 2, 68, 0
1, 10410, Note_off_c, 3, 59, 0
1, 10410, Note_off_c, 4, 52, 0
1, 10410, Note_off_c, 5, 40, 0
1, 10414, Note_off_c, 0, 71, 0
1, 10414, Note_off_c, 1, 71, 0
1, 10416, Note_on_c, 0, 76, 96
1, 10416, Note_on_c, 1, 76, 104
1, 10428, Note_off_c, 0, 76, 0
1, 10428, Note_off_c, 1, 76, 0
1, 10440, Note_on_c, 0, 76, 96
1, 10440, Note_on_c, 1, 76, 104
1, 10440, Note_on_c, 2, 71, 104
1, 10440, Note_on_c, 3, 59, 104
1, 10440, Note_on_c, 4, 56, 96
1, 10440, Note_on_c, 5, 44, 96
1, 10452, Note_off_c, 0, 76, 0
1, 10452, Note_on_c, 0, 75, 96
1, 10452, Note_off_c, 1, 76, 0
1, 10452, Note_on_c, 1, 75, 104
1, 10461, Note_off_c, 2, 71, 0
1, 10461, Note_off_c, 3, 59, 0
1, 10461, Note_off_c, 4, 56, 0
1, 10461, Note_off_c, 5, 44, 0
1, 10462, Note_off_c, 0, 75, 0
1, 10462, Note_off_c, 1, 75, 0
1, 10464, Note_on_c, 0, 78, 96
1, 10464, Note_on_c, 1, 78, 104
1, 10464, Note_on_c, 2, 69, 104
1, 10464, Note_on_c, 3, 63, 104
1, 10464, Note_on_c, 4, 54, 96
1, 10464, Note_on_c, 5, 42, 96
1, 10476, Note_off_c, 0, 78, 0
1, 10476, Note_on_c, 0, 76, 96
1, 10476, Note_off_c, 1, 78, 0
1, 10476, Note_on_c, 1, 76, 104
1, 10485, Note_off_c, 2, 69, 0
1, 10485, Note_off_c, 3, 63, 0
1, 10485, Note_off_c, 4, 54, 0
1, 10485, Note_off_c, 5, 42, 0
1, 10486, Note_off_c, 0, 76, 0
1, 10486, Note_off_c, 1, 76, 0
1, 10488, Note_on_c, 0, 75, 96
1, 10488, Note_on_c, 1, 75, 104
1, 10488, Note_on_c, 2, 71, 104
1, 10488, Note_on_c, 3, 68, 104
1, 10488, Note_on_c, 4, 52, 96
1, 10488, Note_on_c, 5, 40, 96
1, 10500, Note_off_c, 0, 75, 0
1, 10500, Note_on_c, 0, 73, 96
1, 10500, Note_off_c, 1, 75, 0
1, 10500, Note_on_c, 1, 73, 104
1, 10509, Note_off_c, 2, 71, 0
1, 10509, Note_off_c, 3, 68, 0
1, 10509, Note_off_c, 4, 52, 0
1, 10509, Note_off_c, 5, 40, 0
1, 10510, Note_off_c, 0, 73, 0
1, 10510, Note_off_c, 1, 73, 0
1, 10512, Note_on_c, 0, 71, 96
1, 10512, Note_on_c, 1, 71, 104
1, 10512, Note_on_c, 2, 71, 104
1, 10512, Note_on_c, 3, 66, 104
1, 10512, Note_on_c, 4, 51, 96
1, 10512, Note_on_c, 5, 39, 96
1, 10524, Note_off_c, 0, 71, 0
1, 10524, Note_on_c, 0, 73, 96
1, 10524, Note_off_c, 1, 71, 0
1, 10524, Note_on_c, 1, 73, 104
1, 10536, Note_off_c, 0, 73, 0
1, 10536, Note_on_c, 0, 75, 96
1, 10536, Note_off_c, 1, 73, 0
1, 10536, Note_on_c, 1, 75, 104
1, 10548, Note_off_c, 0, 75, 0
1, 10548, Note_on_c, 0, 78, 96
1, 10548, Note_off_c, 1, 75, 0
1, 10548, Note_on_c, 1, 78, 104
1, 10554, Note_off_c, 2, 71, 0
1, 10554, Note_off_c, 3, 66, 0
1, 10554, Note_off_c, 4, 51, 0
1, 10554, Note_off_c, 5, 39, 0
1, 10558, Note_off_c, 0, 78, 0
1, 10558, Note_off_c, 1, 78, 0
1, 10560, Note_on_c, 0, 81, 96
1, 10560, Note_on_c, 1, 81, 104
1, 10572, Note_off_c, 0, 81, 0
1, 10572, Note_off_c, 1, 81, 0
1, 10584, Note_on_c, 0, 81, 96
1, 10584, Note_on_c, 1, 81, 104
1, 10584, Note_on_c, 2, 71, 104
1, 10584, Note_on_c, 3, 66, 104
1, 10584, Note_on_c, 4, 51, 96
1, 10584, Note_on_c, 5, 39, 96
1, 10605, Note_off_c, 2, 71, 0
1, 10605, Note_off_c, 3, 66, 0
1, 10605, Note_off_c, 4, 51, 0
1, 10605, Note_off_c, 5, 39, 0
1, 10608, Note_on_c, 2, 73, 104
1, 10608, Note_on_c, 3, 64, 104
1, 10608, Note_on_c, 4, 49, 96
1, 10608, Note_on_c, 5, 37, 96
1, 10629, Note_off_c, 2, 73, 0
1, 10629, Note_off_c, 3, 64, 0
1, 10629, Note_off_c, 4, 49, 0
1, 10629, Note_off_c, 5, 37, 0
1, 10632, Note_on_c, 2, 75, 104
1, 10632, Note_on_c, 3, 66, 104
1, 10632, Note_on_c, 4, 47, 96
1, 10632, Note_on_c, 5, 35, 96
1, 10647, Note_off_c, 0, 81, 0
1, 10647, Note_off_c, 1, 81, 0
1, 10653, Note_off_c, 2, 75, 0
1, 10653, Note_off_c, 3, 66, 0
1, 10653, Note_off_c, 4, 47, 0
1, 10653, Note_off_c, 5, 35, 0
1, 10656, Note_on_c, 0, 80, 96
1, 10656, Note_on_c, 1, 80, 104
1, 10656, Note_on_c, 2, 76, 104
1, 10656, Note_on_c, 3, 59, 104
1, 10656, Note_on_c, 4, 52, 96
1, 10656, Note_on_c, 5, 40, 96
1, 10668, Note_off_c, 0, 80, 0
1, 10668, Note_on_c, 0, 78, 96
1, 10668, Note_off_c, 1, 80, 0
1, 10668, Note_on_c, 1, 78, 104
1, 10677, Note_off_c, 2, 76, 0
1, 10677, Note_off_c, 4, 52, 0
1, 10677, Note_off_c, 5, 40, 0
1, 10678, Note_off_c, 0, 78, 0
1, 10678, Note_off_c, 1, 78, 0
1, 10680, Note_on_c, 0, 81, 96
1, 10680, Note_on_c, 1, 81, 104
1, 10680, Note_on_c, 2, 71, 104
1, 10680, Note_on_c, 4, 51, 96
1, 10680, Note_on_c, 5, 39, 96
1, 10692, Note_off_c, 0, 81, 0
1, 10692, Note_on_c, 0, 80, 96
1, 10692, Note_off_c, 1, 81, 0
1, 10692, Note_on_c, 1, 80, 104
1, 10698, Note_off_c, 3, 59, 0
1, 10701, Note_off_c, 2, 71, 0
1, 10701, Note_off_c, 4, 51, 0
1, 10701, Note_off_c, 5, 39, 0
1, 10702, Note_off_c, 0, 80, 0
1, 10702, Note_off_c, 1, 80, 0
1, 10704, Note_on_c, 0, 78, 96
1, 10704, Note_on_c, 1, 78, 104
1, 10704, Note_on_c, 2, 70, 104
1, 10704, Note_on_c, 3, 63, 104
1, 10704, Note_on_c, 4, 49, 96
1, 10704, Note_on_c, 5, 37, 96
1, 10716, Note_off_c, 0, 78, 0
1, 10716, Note_on_c, 0, 76, 96
1, 10716, Note_off_c, 1, 78, 0
1, 10716, Note_on_c, 1, 76, 104
1, 10725, Note_off_c, 2, 70, 0
1, 10725, Note_off_c, 3, 63, 0
1, 10725, Note_off_c, 4, 49, 0
1, 10725, Note_off_c, 5, 37, 0
1, 10726, Note_off_c, 0, 76, 0
1, 10726, Note_off_c, 1, 76, 0
1, 10728, Note_on_c, 0, 75, 96
1, 10728, Note_on_c, 1, 75, 104
1, 10728, Note_on_c, 2, 71, 104
1, 10728, Note_on_c, 3, 66, 104
1, 10728, Note_on_c, 4, 47, 96
1, 10728, Note_on_c, 5, 35, 96
1, 10740, Note_off_c, 0, 75, 0
1, 10740, Note_on_c, 0, 73, 96
1, 10740, Note_off_c, 1, 75, 0
1, 10740, Note_on_c, 1, 73, 104
1, 10749, Note_off_c, 2, 71, 0
1, 10749, Note_off_c, 4, 47, 0
1, 10749, Note_off_c, 5, 35, 0
1, 10750, Note_off_c, 0, 73, 0
1, 10750, Note_off_c, 1, 73, 0
1, 10752, Note_on_c, 0, 76, 96
1, 10752, Note_on_c, 1, 76, 104
1, 10752, Note_on_c, 2, 66, 104
1, 10752, Note_on_c, 4, 45, 96
1, 10752, Note_on_c, 5, 33, 96
1, 10764, Note_off_c, 0, 76, 0
1, 10764, Note_on_c, 0, 75, 96
1, 10764, Note_off_c, 1, 76, 0
1, 10764, Note_on_c, 1, 75, 104
1, 10770, Note_off_c, 3, 66, 0
1, 10773, Note_off_c, 2, 66, 0
1, 10773, Note_off_c, 4, 45, 0
1, 10773, Note_off_c, 5, 33, 0
1, 10774, Note_off_c, 0, 75, 0
1, 10774, Note_off_c, 1, 75, 0
1, 10776, Note_on_c, 0, 73, 96
1, 10776, Note_on_c, 1, 73, 104
1, 10776, Note_on_c, 2, 68, 104
1, 10776, Note_on_c, 3, 64, 104
1, 10776, Note_on_c, 4, 44, 96
1, 10776, Note_on_c, 5, 32, 96
1, 10788, Note_off_c, 0, 73, 0
1, 10788, Note_on_c, 0, 71, 96
1, 10788, Note_off_c, 1, 73, 0
1, 10788, Note_on_c, 1, 71, 104
1, 10797, Note_off_c, 2, 68, 0
1, 10797, Note_off_c, 3, 64, 0
1, 10797, Note_off_c, 4, 44, 0
1, 10797, Note_off_c, 5, 32, 0
1, 10798, Note_off_c, 0, 71, 0
1, 10798, Note_off_c, 1, 71, 0
1, 10800, Note_on_c, 0, 69, 96
1, 10800, Note_on_c, 1, 69, 104
1, 10800, Note_on_c, 2, 69, 104
1, 10800, Note_on_c, 3, 63, 104
1, 10800, Note_on_c, 4, 42, 96
1, 10800, Note_on_c, 5, 30, 96
1, 10812, Note_off_c, 0, 69, 0
1, 10812, Note_on_c, 0, 68, 96
1, 10812, Note_off_c, 1, 69, 0
1, 10812, Note_on_c, 1, 68, 104
1, 10821, Note_off_c, 2, 69, 0
1, 10821, Note_off_c, 3, 63, 0
1, 10821, Note_off_c, 4, 42, 0
1, 10821, Note_off_c, 5, 30, 0
1, 10822, Note_off_c, 0, 68, 0
1, 10822, Note_off_c, 1, 68, 0
1, 10824, Note_on_c, 0, 71, 96
1, 10824, Note_on_c, 1, 71, 104
1, 10824, Note_on_c, 2, 66, 104
1, 10824, Note_on_c, 3, 66, 104
1, 10824, Note_on_c, 4, 51, 96
1, 10824, Note_on_c, 5, 39, 96
1, 10836, Note_off_c, 0, 71, 0
1, 10836, Note_on_c, 0, 69, 96
1, 10836, Note_off_c, 1, 71, 0
1, 10836, Note_on_c, 1, 69, 104
1, 10845, Note_off_c, 2, 66, 0
1, 10845, Note_off_c, 3, 66, 0
1, 10845, Note_off_c, 4, 51, 0
1, 10845, Note_off_c, 5, 39, 0
1, 10846, Note_off_c, 0, 69, 0
1, 10846, Note_off_c, 1, 69, 0
1, 10848, Note_on_c, 0, 68, 96
1, 10848, Note_on_c, 1, 68, 104
1, 10848, Note_on_c, 2, 64, 104
1, 10848, Note_on_c, 3, 59, 104
1, 10848, Note_on_c, 4, 52, 96
1, 10848, Note_on_c, 5, 40, 96
1, 10860, Note_off_c, 0, 68, 0
1, 10860, Note_on_c, 0, 69, 96
1, 10860, Note_off_c, 1, 68, 0
1, 10860, Note_on_c, 1, 69, 104
1, 10869, Note_off_c, 2, 64, 0
1, 10869, Note_off_c, 3, 59, 0
1, 10869, Note_off_c, 4, 52, 0
1, 10869, Note_off_c, 5, 40, 0
1, 10870, Note_off_c, 0, 69, 0
1, 10870, Note_off_c, 1, 69, 0
1, 10872, Note_on_c, 0, 66, 96
1, 10872, Note_on_c, 1, 66, 104
1, 10872, Note_on_c, 2, 63, 104
1, 10872, Note_on_c, 3, 59, 104
1, 10872, Note_on_c, 4, 47, 96
1, 10872, Note_on_c, 5, 35, 96
1, 10884, Note_off_c, 0, 66, 0
1, 10884, Note_on_c, 0, 64, 96
1, 10884, Note_off_c, 1, 66, 0
1, 10884, Note_on_c, 1, 64, 104
1, 10893, Note_off_c, 2, 63, 0
1, 10893, Note_off_c, 4, 47, 0
1, 10893, Note_off_c, 5, 35, 0
1, 10896, Note_off_c, 0, 64, 0
1, 10896, Note_on_c, 0, 66, 96
1, 10896, Note_off_c, 1, 64, 0
1, 10896, Note_on_c, 1, 66, 104
1, 10896, Note_on_c, 2, 66, 104
1, 10896, Note_on_c, 4, 51, 96
1, 10896, Note_on_c, 5, 39, 96
1, 10903, Note_off_c, 3, 59, 0
1, 10906, Note_off_c, 0, 66, 0
1, 10906, Note_off_c, 1, 66, 0
1, 10908, Note_on_c, 0, 69, 96
1, 10908, Note_on_c, 1, 69, 104
1, 10908, Note_on_c, 3, 61, 104
1, 10917, Note_off_c, 2, 66, 0
1, 10917, Note_off_c, 4, 51, 0
1, 10917, Note_off_c, 5, 39, 0
1, 10918, Note_off_c, 0, 69, 0
1, 10918, Note_off_c, 1, 69, 0
1, 10918, Note_off_c, 3, 61, 0
1, 10920, Note_on_c, 0, 68, 96
1, 10920, Note_on_c, 1, 68, 104
1, 10920, Note_on_c, 2, 63, 104
1, 10920, Note_on_c, 3, 59, 104
1, 10920, Note_on_c, 4, 47, 96
1, 10920, Note_on_c, 5, 35, 96
1, 10930, Note_off_c, 0, 68, 0
1, 10930, Note_off_c, 1, 68, 0
1, 10930, Note_off_c, 3, 59, 0
1, 10932, Note_on_c, 0, 66, 96
1, 10932, Note_on_c, 1, 66, 104
1, 10932, Note_on_c, 3, 57, 104
1, 10941, Note_off_c, 2, 63, 0
1, 10941, Note_off_c, 4, 47, 0
1, 10941, Note_off_c, 5, 35, 0
1, 10942, Note_off_c, 0, 66, 0
1, 10942, Note_off_c, 1, 66, 0
1, 10942, Note_off_c, 3, 57, 0
1, 10944, Note_on_c, 0, 64, 96
1, 10944, Note_on_c, 1, 64, 104
1, 10944, Note_on_c, 2, 59, 104
1, 10944, Note_on_c, 3, 56, 104
1, 10944, Note_on_c, 4, 40, 96
1, 10944, Note_on_c, 5, 28, 96
1, 10956, Note_off_c, 0, 64, 0
1, 10956, Note_on_c, 0, 66, 96
1, 10956, Note_off_c, 1, 64, 0
1, 10956, Note_on_c, 1, 66, 104
1, 10965, Note_off_c, 2, 59, 0
1, 10965, Note_off_c, 3, 56, 0
1, 10965, Note_off_c, 4, 40, 0
1, 10965, Note_off_c, 5, 28, 0
1, 10968, Note_off_c, 0, 66, 0
1, 10968, Note_on_c, 0, 68, 96
1, 10968, Note_off_c, 1, 66, 0
1, 10968, Note_on_c, 1, 68, 104
1, 10968, Note_on_c, 2, 71, 104
1, 10968, Note_on_c, 3, 64, 104
1, 10968, Note_on_c, 4, 52, 96
1, 10968, Note_on_c, 5, 40, 96
1, 10980, Note_off_c, 0, 68, 0
1, 10980, Note_on_c, 0, 71, 96
1, 10980, Note_off_c, 1, 68, 0
1, 10980, Note_on_c, 1, 71, 104
1, 10989, Note_off_c, 2, 71, 0
1, 10989, Note_off_c, 3, 64, 0
1, 10989, Note_off_c, 4, 52, 0
1, 10989, Note_off_c, 5, 40, 0
1, 10990, Note_off_c, 0, 71, 0
1, 10990, Note_off_c, 1, 71, 0
1, 10992, Note_on_c, 0, 76, 96
1, 10992, Note_on_c, 1, 76, 104
1, 10992, Note_on_c, 2, 71, 104
1, 10992, Note_on_c, 3, 68, 104
1, 10992, Note_on_c, 4, 51, 96
1, 10992, Note_on_c, 5, 39, 96
1, 11004, Note_off_c, 0, 76, 0
1, 11004, Note_off_c, 1, 76, 0
1, 11013, Note_off_c, 2, 71, 0
1, 11013, Note_off_c, 3, 68, 0
1, 11013, Note_off_c, 4, 51, 0
1, 11013, Note_off_c, 5, 39, 0
1, 11016, Note_on_c, 0, 76, 96
1, 11016, Note_on_c, 1, 76, 104
1, 11016, Note_on_c, 2, 73, 104
1, 11016, Note_on_c, 3, 68, 104
1, 11016, Note_on_c, 4, 49, 96
1, 11016, Note_on_c, 5, 37, 96
1, 11028, Note_off_c, 0, 76, 0
1, 11028, Note_on_c, 0, 75, 96
1, 11028, Note_off_c, 1, 76, 0
1, 11028, Note_on_c, 1, 75, 104
1, 11037, Note_off_c, 2, 73, 0
1, 11037, Note_off_c, 4, 49, 0
1, 11037, Note_off_c, 5, 37, 0
1, 11038, Note_off_c, 0, 75, 0
1, 11038, Note_off_c, 1, 75, 0
1, 11040, Note_on_c, 0, 78, 96
1, 11040, Note_on_c, 1, 78, 104
1, 11040, Note_on_c, 2, 68, 104
1, 11040, Note_on_c, 4, 47, 96
1, 11040, Note_on_c, 5, 35, 96
1, 11052, Note_off_c, 0, 78, 0
1, 11052, Note_on_c, 0, 76, 96
1, 11052, Note_off_c, 1, 78, 0
1, 11052, Note_on_c, 1, 76, 104
1, 11058, Note_off_c, 3, 68, 0
1, 11061, Note_off_c, 2, 68, 0
1, 11061, Note_off_c, 4, 47, 0
1, 11061, Note_off_c, 5, 35, 0
1, 11062, Note_off_c, 0, 76, 0
1, 11062, Note_off_c, 1, 76, 0
1, 11064, Note_on_c, 0, 75, 96
1, 11064, Note_on_c, 1, 75, 104
1, 11064, Note_on_c, 2, 69, 104
1, 11064, Note_on_c, 3, 66, 104
1, 11064, Note_on_c, 4, 45, 96
1, 11064, Note_on_c, 5, 33, 96
1, 11076, Note_off_c, 0, 75, 0
1, 11076, Note_on_c, 0, 73, 96
1, 11076, Note_off_c, 1, 75, 0
1, 11076, Note_on_c, 1, 73, 104
1, 11085, Note_off_c, 2, 69, 0
1, 11085, Note_off_c, 3, 66, 0
1, 11085, Note_off_c, 4, 45, 0
1, 11085, Note_off_c, 5, 33, 0
1, 11086, Note_off_c, 0, 73, 0
1, 11086, Note_off_c, 1, 73, 0
1, 11088, Note_on_c, 0, 64, 96
1, 11088, Note_on_c, 1, 64, 104
1, 11088, Note_on_c, 2, 71, 104
1, 11088, Note_on_c, 3, 64, 104
1, 11088, Note_on_c, 4, 44, 96
1, 11088, Note_on_c, 5, 32, 96
1, 11100, Note_off_c, 0, 64, 0
1, 11100, Note_on_c, 0, 66, 96
1, 11100, Note_off_c, 1, 64, 0
1, 11100, Note_on_c, 1, 66, 104
1, 11109, Note_off_c, 2, 71, 0
1, 11109, Note_off_c, 3, 64, 0
1, 11109, Note_off_c, 4, 44, 0
1, 11109, Note_off_c, 5, 32, 0
1, 11112, Note_off_c, 0, 66, 0
1, 11112, Note_on_c, 0, 68, 96
1, 11112, Note_off_c, 1, 66, 0
1, 11112, Note_on_c, 1, 68, 104
1, 11112, Note_on_c, 2, 74, 104
1, 11112, Note_on_c, 3, 59, 104
1, 11112, Note_on_c, 4, 42, 96
1, 11112, Note_on_c, 5, 30, 96
1, 11124, Note_off_c, 0, 68, 0
1, 11124, Note_on_c, 0, 71, 96
1, 11124, Note_off_c, 1, 68, 0
1, 11124, Note_on_c, 1, 71, 104
1, 11133, Note_off_c, 2, 74, 0
1, 11133, Note_off_c, 3, 59, 0
1, 11133, Note_off_c, 4, 42, 0
1, 11133, Note_off_c, 5, 30, 0
1, 11134, Note_off_c, 0, 71, 0
1, 11134, Note_off_c, 1, 71, 0
1, 11136, Note_on_c, 0, 74, 96
1, 11136, Note_on_c, 1, 74, 104
1, 11136, Note_on_c, 2, 71, 104
1, 11136, Note_on_c, 3, 56, 104
1, 11136, Note_on_c, 4, 40, 96
1, 11136, Note_on_c, 5, 28, 96
1, 11148, Note_off_c, 0, 74, 0
1, 11148, Note_off_c, 1, 74, 0
1, 11157, Note_off_c, 2, 71, 0
1, 11157, Note_off_c, 3, 56, 0
1, 11157, Note_off_c, 4, 40, 0
1, 11157, Note_off_c, 5, 28, 0
1, 11160, Note_on_c, 0, 74, 96
1, 11160, Note_on_c, 1, 74, 104
1, 11160, Note_on_c, 2, 68, 104
1, 11160, Note_on_c, 3, 52, 104
1, 11160, Note_on_c, 4, 52, 96
1, 11160, Note_on_c, 5, 40, 96
1, 11181, Note_off_c, 2, 68, 0
1, 11181, Note_off_c, 4, 52, 0
1, 11181, Note_off_c, 5, 40, 0
1, 11184, Note_on_c, 2, 69, 104
1, 11184, Note_on_c, 4, 54, 96
1, 11184, Note_on_c, 5, 42, 96
1, 11205, Note_off_c, 2, 69, 0
1, 11205, Note_off_c, 4, 54, 0
1, 11205, Note_off_c, 5, 42, 0
1, 11208, Note_on_c, 2, 71, 104
1, 11208, Note_on_c, 4, 56, 96
1, 11208, Note_on_c, 5, 44, 96
1, 11223, Note_off_c, 0, 74, 0
1, 11223, Note_off_c, 1, 74, 0
1, 11223, Note_off_c, 3, 52, 0
1, 11229, Note_off_c, 2, 71, 0
1, 11229, Note_off_c, 4, 56, 0
1, 11229, Note_off_c, 5, 44, 0
1, 11232, Note_on_c, 0, 73, 96
1, 11232, Note_on_c, 1, 73, 104
1, 11232, Note_on_c, 2, 69, 104
1, 11232, Note_on_c, 3, 64, 104
1, 11232, Note_on_c, 4, 57, 96
1, 11232, Note_on_c, 5, 45, 96
1, 11244, Note_off_c, 0, 73, 0
1, 11244, Note_on_c, 0, 76, 96
1, 11244, Note_off_c, 1, 73, 0
1, 11244, Note_on_c, 1, 76, 104
1, 11253, Note_off_c, 2, 69, 0
1, 11253, Note_off_c, 3, 64, 0
1, 11253, Note_off_c, 4, 57, 0
1, 11253, Note_off_c, 5, 45, 0
1, 11256, Note_off_c, 0, 76, 0
1, 11256, Note_on_c, 0, 81, 96
1, 11256, Note_off_c, 1, 76, 0
1, 11256, Note_on_c, 1, 81, 104
1, 11256, Note_on_c, 2, 73, 104
1, 11256, Note_on_c, 3, 66, 104
1, 11256, Note_on_c, 4, 54, 96
1, 11256, Note_on_c, 5, 42, 96
1, 11268, Note_off_c, 0, 81, 0
1, 11268, Note_on_c, 0, 80, 96
1, 11268, Note_off_c, 1, 81, 0
1, 11268, Note_on_c, 1, 80, 104
1, 11277, Note_off_c, 2, 73, 0
1, 11277, Note_off_c, 3, 66, 0
1, 11277, Note_off_c, 4, 54, 0
1, 11277, Note_off_c, 5, 42, 0
1, 11280, Note_off_c, 0, 80, 0
1, 11280, Note_on_c, 0, 78, 96
1, 11280, Note_off_c, 1, 80, 0
1, 11280, Note_on_c, 1, 78, 104
1, 11280, Note_on_c, 2, 73, 104
1, 11280, Note_on_c, 3, 66, 104
1, 11280, Note_on_c, 4, 57, 96
1, 11280, Note_on_c, 5, 45, 96
1, 11292, Note_off_c, 0, 78, 0
1, 11292, Note_on_c, 0, 76, 96
1, 11292, Note_off_c, 1, 78, 0
1, 11292, Note_on_c, 1, 76, 104
1, 11301, Note_off_c, 2, 73, 0
1, 11301, Note_off_c, 3, 66, 0
1, 11301, Note_off_c, 4, 57, 0
1, 11301, Note_off_c, 5, 45, 0
1, 11302, Note_off_c, 0, 76, 0
1, 11302, Note_off_c, 1, 76, 0
1, 11304, Note_on_c, 0, 75, 96
1, 11304, Note_on_c, 1, 75, 104
1, 11304, Note_on_c, 2, 71, 104
1, 11304, Note_on_c, 3, 66, 104
1, 11304, Note_on_c, 4, 59, 96
1, 11304, Note_on_c, 5, 47, 96
1, 11316, Note_off_c, 0, 75, 0
1, 11316, Note_on_c, 0, 73, 96
1, 11316, Note_off_c, 1, 75, 0
1, 11316, Note_on_c, 1, 73, 104
1, 11325, Note_off_c, 2, 71, 0
1, 11325, Note_off_c, 3, 66, 0
1, 11325, Note_off_c, 4, 59, 0
1, 11325, Note_off_c, 5, 47, 0
1, 11326, Note_off_c, 0, 73, 0
1, 11326, Note_off_c, 1, 73, 0
1, 11328, Note_on_c, 0, 76, 96
1, 11328, Note_on_c, 1, 76, 104
1, 11328, Note_on_c, 2, 71, 104
1, 11328, Note_on_c, 3, 66, 104
1, 11328, Note_on_c, 4, 61, 96
1, 11328, Note_on_c, 5, 49, 96
1, 11340, Note_off_c, 0, 76, 0
1, 11340, Note_on_c, 0, 75, 96
1, 11340, Note_off_c, 1, 76, 0
1, 11340, Note_on_c, 1, 75, 104
1, 11349, Note_off_c, 2, 71, 0
1, 11349, Note_off_c, 3, 66, 0
1, 11349, Note_off_c, 4, 61, 0
1, 11349, Note_off_c, 5, 49, 0
1, 11350, Note_off_c, 0, 75, 0
1, 11350, Note_off_c, 1, 75, 0
1, 11352, Note_on_c, 0, 73, 96
1, 11352, Note_on_c, 1, 73, 104
1, 11352, Note_on_c, 2, 71, 104
1, 11352, Note_on_c, 3, 66, 104
1, 11352, Note_on_c, 4, 63, 96
1, 11352, Note_on_c, 5, 51, 96
1, 11364, Note_off_c, 0, 73, 0
1, 11364, Note_on_c, 0, 71, 96
1, 11364, Note_off_c, 1, 73, 0
1, 11364, Note_on_c, 1, 71, 104
1, 11373, Note_off_c, 2, 71, 0
1, 11373, Note_off_c, 3, 66, 0
1, 11373, Note_off_c, 4, 63, 0
1, 11373, Note_off_c, 5, 51, 0
1, 11374, Note_off_c, 0, 71, 0
1, 11374, Note_off_c, 1, 71, 0
1, 11376, Note_on_c, 0, 80, 96
1, 11376, Note_on_c, 1, 80, 104
1, 11376, Note_on_c, 2, 71, 104
1, 11376, Note_on_c, 3, 64, 104
1, 11376, Note_on_c, 4, 64, 96
1, 11376, Note_on_c, 5, 52, 96
1, 11388, Note_off_c, 0, 80, 0
1, 11388, Note_off_c, 1, 80, 0
1, 11397, Note_off_c, 2, 71, 0
1, 11397, Note_off_c, 3, 64, 0
1, 11397, Note_off_c, 4, 64, 0
1, 11397, Note_off_c, 5, 52, 0
1, 11400, Note_on_c, 0, 81, 96
1, 11400, Note_on_c, 1, 81, 104
1, 11400, Note_on_c, 2, 73, 104
1, 11400, Note_on_c, 3, 64, 104
1, 11400, Note_on_c, 4, 57, 96
1, 11400, Note_on_c, 5, 45, 96
1, 11412, Note_off_c, 0, 81, 0
1, 11412, Note_off_c, 1, 81, 0
1, 11421, Note_off_c, 2, 73, 0
1, 11421, Note_off_c, 3, 64, 0
1, 11421, Note_off_c, 4, 57, 0
1, 11421, Note_off_c, 5, 45, 0
1, 11424, Note_on_c, 0, 80, 96
1, 11424, Note_on_c, 1, 80, 104
1, 11424, Note_on_c, 2, 71, 104
1, 11424, Note_on_c, 3, 63, 104
1, 11424, Note_on_c, 4, 59, 96
1, 11424, Note_on_c, 5, 47, 96
1, 11430, Note_off_c, 0, 80, 0
1, 11430, Note_on_c, 0, 78, 96
1, 11430, Note_off_c, 1, 80, 0
1, 11430, Note_on_c, 1, 78, 104
1, 11436, Note_off_c, 0, 78, 0
1, 11436, Note_on_c, 0, 80, 96
1, 11436, Note_off_c, 1, 78, 0
1, 11436, Note_on_c, 1, 80, 104
1, 11442, Note_off_c, 0, 80, 0
1, 11442, Note_on_c, 0, 78, 96
1, 11442, Note_off_c, 1, 80, 0
1, 11442, Note_on_c, 1, 78, 104
1, 11445, Note_off_c, 2, 71, 0
1, 11445, Note_off_c, 3, 63, 0
1, 11445, Note_off_c, 4, 59, 0
1, 11445, Note_off_c, 5, 47, 0
1, 11447, Note_off_c, 0, 78, 0
1, 11447, Note_off_c, 1, 78, 0
1, 11448, Note_on_c, 0, 76, 96
1, 11448, Note_on_c, 1, 76, 104
1, 11448, Note_on_c, 2, 71, 104
1, 11448, Note_on_c, 3, 68, 104
1, 11448, Note_on_c, 4, 52, 96
1, 11448, Note_on_c, 5, 40, 96
1, 11511, Note_off_c, 0, 76, 0
1, 11511, Note_off_c, 1, 76, 0
1, 11511, Note_off_c, 2, 71, 0
1, 11511, Note_off_c, 3, 68, 0
1, 11511, Note_off_c, 4, 52, 0
1, 11511, Note_off_c, 5, 40, 0
1, 11808, End_track
0, 0, End_of_file
