0, 0, Header, 0, 1, 48
1, 0, Start_track
1, 0, Title_t, "J.S.Bach Concert for 2 Violins D minor BWV1043 2. Largo ma non tanto"
1, 0, Time_signature, 12, 3, 24, 8
1, 0, Channel_prefix, 0
1, 0, Copyright_t, "Copyright 2000 by KCN"
1, 0, Channel_prefix, 0
1, 0, Title_t, "Solo Violin I"
1, 0, Channel_prefix, 0
1, 0, Instrument_name_t, "Violin"
1, 0, System_exclusive, 5, 126, 127, 9, 1, 247
1, 0, Tempo, 1250000
1, 0, Program_c, 0, 40
1, 0, Channel_prefix, 1
1, 0, Title_t, "Solo Violin II"
1, 0, Channel_prefix, 1
1, 0, Instrument_name_t, "Violin"
1, 0, Program_c, 1, 40
1, 0, Note_on_c, 1, 77, 96
1, 0, Channel_prefix, 2
1, 0, Title_t, "Violin I"
1, 0, Channel_prefix, 2
1, 0, Instrument_name_t, "Strings1"
1, 0, Program_c, 2, 48
1, 0, Note_on_c, 2, 69, 104
1, 0, Channel_prefix, 3
1, 0, Title_t, "Violin II"
1, 0, Channel_prefix, 3
1, 0, Instrument_name_t, "Strings1"
1, 0, Program_c, 3, 48
1, 0, Note_on_c, 3, 65, 104
1, 0, Channel_prefix, 4
1, 0, Title_t, "Viola"
1, 0, Channel_prefix, 4
1, 0, Instrument_name_t, "Strings1"
1, 0, Program_c, 4, 48
1, 0, Note_on_c, 4, 60, 104
1, 0, Channel_prefix, 5
1, 0, Title_t, "Violoncello"
1, 0, Channel_prefix, 5
1, 0, Instrument_name_t, "Cello"
1, 0, Program_c, 5, 42
1, 0, Note_on_c, 5, 53, 88
1, 0, Channel_prefix, 6
1, 0, Title_t, "Double Bass"
1, 0, Channel_prefix, 6
1, 0, Instrument_name_t, "Contrabass"
1, 0, Program_c, 6, 43
1, 0, Note_on_c, 6, 41, 88
1, 42, Note_off_c, 2, 69, 0
1, 42, Note_off_c, 3, 65, 0
1, 42, Note_off_c, 4, 60, 0
1, 42, Note_off_c, 5, 53, 0
1, 42, Note_off_c, 6, 41, 0
1, 48, Note_on_c, 5, 41, 88
1, 48, Note_on_c, 6, 29, 88
1, 69, Note_off_c, 5, 41, 0
1, 69, Note_off_c, 6, 29, 0
1, 72, Note_on_c, 2, 70, 104
1, 72, Note_on_c, 3, 58, 104
1, 72, Note_on_c, 4, 67, 104
1, 72, Note_on_c, 5, 43, 88
1, 72, Note_on_c, 6, 31, 88
1, 84, Note_off_c, 1, 77, 0
1, 96, Note_on_c, 1, 76, 96
1, 114, Note_off_c, 2, 70, 0
1, 114, Note_off_c, 3, 58, 0
1, 114, Note_off_c, 4, 67, 0
1, 114, Note_off_c, 5, 43, 0
1, 114, Note_off_c, 6, 31, 0
1, 117, Note_off_c, 1, 76, 0
1, 120, Note_on_c, 1, 74, 96
1, 120, Note_on_c, 5, 55, 88
1, 120, Note_on_c, 6, 43, 88
1, 141, Note_off_c, 1, 74, 0
1, 141, Note_off_c, 5, 55, 0
1, 141, Note_off_c, 6, 43, 0
1, 144, Note_on_c, 1, 72, 96
1, 144, Note_on_c, 2, 72, 104
1, 144, Note_on_c, 3, 65, 104
1, 144, Note_on_c, 4, 60, 104
1, 144, Note_on_c, 5, 57, 88
1, 144, Note_on_c, 6, 45, 88
1, 186, Note_off_c, 2, 72, 0
1, 186, Note_off_c, 3, 65, 0
1, 186, Note_off_c, 4, 60, 0
1, 186, Note_off_c, 5, 57, 0
1, 186, Note_off_c, 6, 45, 0
1, 192, Note_on_c, 5, 45, 88
1, 192, Note_on_c, 6, 33, 88
1, 213, Note_off_c, 5, 45, 0
1, 213, Note_off_c, 6, 33, 0
1, 216, Note_on_c, 2, 74, 104
1, 216, Note_on_c, 3, 62, 104
1, 216, Note_on_c, 4, 53, 104
1, 216, Note_on_c, 5, 46, 88
1, 216, Note_on_c, 6, 34, 88
1, 228, Note_off_c, 1, 72, 0
1, 240, Note_on_c, 1, 70, 96
1, 258, Note_off_c, 2, 74, 0
1, 258, Note_off_c, 3, 62, 0
1, 258, Note_off_c, 4, 53, 0
1, 258, Note_off_c, 5, 46, 0
1, 258, Note_off_c, 6, 34, 0
1, 261, Note_off_c, 1, 70, 0
1, 264, Note_on_c, 1, 69, 96
1, 264, Note_on_c, 5, 58, 88
1, 264, Note_on_c, 6, 46, 88
1, 285, Note_off_c, 1, 69, 0
1, 285, Note_off_c, 5, 58, 0
1, 285, Note_off_c, 6, 46, 0
1, 288, Note_on_c, 1, 67, 96
1, 288, Note_on_c, 2, 76, 104
1, 288, Note_on_c, 3, 67, 104
1, 288, Note_on_c, 4, 60, 104
1, 288, Note_on_c, 5, 58, 88
1, 288, Note_on_c, 6, 46, 88
1, 309, Note_off_c, 2, 76, 0
1, 312, Note_off_c, 1, 67, 0
1, 312, Note_on_c, 1, 64, 96
1, 312, Note_on_c, 2, 72, 104
1, 330, Note_off_c, 3, 67, 0
1, 330, Note_off_c, 4, 60, 0
1, 330, Note_off_c, 5, 58, 0
1, 330, Note_off_c, 6, 46, 0
1, 333, Note_off_c, 1, 64, 0
1, 333, Note_off_c, 2, 72, 0
1, 336, Note_on_c, 1, 65, 96
1, 336, Note_on_c, 2, 77, 104
1, 336, Note_on_c, 3, 72, 104
1, 336, Note_on_c, 4, 60, 104
1, 336, Note_on_c, 5, 57, 88
1, 336, Note_on_c, 6, 45, 88
1, 357, Note_off_c, 1, 65, 0
1, 357, Note_off_c, 3, 72, 0
1, 357, Note_off_c, 4, 60, 0
1, 357, Note_off_c, 5, 57, 0
1, 357, Note_off_c, 6, 45, 0
1, 360, Note_on_c, 1, 70, 96
1, 360, Note_on_c, 3, 74, 104
1, 360, Note_on_c, 4, 67, 104
1, 360, Note_on_c, 5, 55, 88
1, 360, Note_on_c, 6, 43, 88
1, 378, Note_off_c, 2, 77, 0
1, 384, Note_on_c, 2, 74, 104
1, 402, Note_off_c, 3, 74, 0
1, 402, Note_off_c, 4, 67, 0
1, 402, Note_off_c, 5, 55, 0
1, 402, Note_off_c, 6, 43, 0
1, 405, Note_off_c, 2, 74, 0
1, 408, Note_on_c, 2, 76, 104
1, 408, Note_on_c, 3, 72, 104
1, 408, Note_on_c, 4, 67, 104
1, 408, Note_on_c, 5, 60, 88
1, 408, Note_on_c, 6, 48, 88
1, 429, Note_off_c, 2, 76, 0
1, 429, Note_off_c, 3, 72, 0
1, 429, Note_off_c, 4, 67, 0
1, 429, Note_off_c, 5, 60, 0
1, 429, Note_off_c, 6, 48, 0
1, 432, Note_on_c, 2, 77, 104
1, 432, Note_on_c, 3, 72, 104
1, 432, Note_on_c, 4, 65, 104
1, 432, Note_on_c, 5, 53, 88
1, 432, Note_on_c, 6, 41, 88
1, 444, Note_off_c, 1, 70, 0
1, 456, Note_on_c, 1, 69, 96
1, 474, Note_off_c, 2, 77, 0
1, 474, Note_off_c, 3, 72, 0
1, 474, Note_off_c, 4, 65, 0
1, 474, Note_off_c, 5, 53, 0
1, 474, Note_off_c, 6, 41, 0
1, 477, Note_off_c, 1, 69, 0
1, 480, Note_on_c, 1, 72, 96
1, 480, Note_on_c, 2, 72, 104
1, 480, Note_on_c, 3, 69, 104
1, 480, Note_on_c, 4, 65, 104
1, 480, Note_on_c, 5, 57, 88
1, 480, Note_on_c, 6, 45, 88
1, 501, Note_off_c, 1, 72, 0
1, 501, Note_off_c, 2, 72, 0
1, 501, Note_off_c, 3, 69, 0
1, 501, Note_off_c, 4, 65, 0
1, 501, Note_off_c, 5, 57, 0
1, 501, Note_off_c, 6, 45, 0
1, 504, Note_on_c, 1, 77, 96
1, 504, Note_on_c, 2, 72, 104
1, 504, Note_on_c, 3, 69, 104
1, 504, Note_on_c, 4, 65, 104
1, 504, Note_on_c, 5, 50, 88
1, 504, Note_on_c, 6, 38, 88
1, 525, Note_off_c, 1, 77, 0
1, 528, Note_on_c, 1, 79, 96
1, 540, Note_off_c, 1, 79, 0
1, 540, Note_on_c, 1, 77, 96
1, 546, Note_off_c, 2, 72, 0
1, 546, Note_off_c, 3, 69, 0
1, 546, Note_off_c, 4, 65, 0
1, 546, Note_off_c, 5, 50, 0
1, 546, Note_off_c, 6, 38, 0
1, 552, Note_off_c, 1, 77, 0
1, 552, Note_on_c, 1, 76, 96
1, 552, Note_on_c, 2, 71, 104
1, 552, Note_on_c, 3, 67, 104
1, 552, Note_on_c, 4, 67, 104
1, 552, Note_on_c, 5, 55, 88
1, 552, Note_on_c, 6, 43, 88
1, 564, Note_off_c, 1, 76, 0
1, 564, Note_on_c, 1, 74, 96
1, 573, Note_off_c, 2, 71, 0
1, 573, Note_off_c, 3, 67, 0
1, 573, Note_off_c, 4, 67, 0
1, 573, Note_off_c, 5, 55, 0
1, 573, Note_off_c, 6, 43, 0
1, 574, Note_off_c, 1, 74, 0
1, 576, Note_on_c, 0, 84, 96
1, 576, Note_on_c, 1, 76, 96
1, 576, Note_on_c, 2, 72, 104
1, 576, Note_on_c, 3, 67, 104
1, 576, Note_on_c, 4, 64, 104
1, 576, Note_on_c, 5, 48, 88
1, 576, Note_on_c, 6, 36, 88
1, 588, Note_off_c, 1, 76, 0
1, 588, Note_on_c, 1, 74, 96
1, 600, Note_off_c, 1, 74, 0
1, 600, Note_on_c, 1, 76, 96
1, 610, Note_off_c, 1, 76, 0
1, 612, Note_on_c, 1, 72, 96
1, 618, Note_off_c, 2, 72, 0
1, 618, Note_off_c, 3, 67, 0
1, 618, Note_off_c, 4, 64, 0
1, 618, Note_off_c, 5, 48, 0
1, 618, Note_off_c, 6, 36, 0
1, 622, Note_off_c, 1, 72, 0
1, 624, Note_on_c, 1, 67, 96
1, 624, Note_on_c, 5, 36, 88
1, 624, Note_on_c, 6, 24, 88
1, 634, Note_off_c, 1, 67, 0
1, 636, Note_on_c, 1, 72, 96
1, 645, Note_off_c, 5, 36, 0
1, 645, Note_off_c, 6, 24, 0
1, 646, Note_off_c, 1, 72, 0
1, 648, Note_on_c, 1, 77, 96
1, 648, Note_on_c, 2, 77, 104
1, 648, Note_on_c, 3, 65, 104
1, 648, Note_on_c, 4, 62, 104
1, 648, Note_on_c, 5, 38, 88
1, 648, Note_on_c, 6, 26, 88
1, 660, Note_off_c, 0, 84, 0
1, 660, Note_off_c, 1, 77, 0
1, 660, Note_on_c, 1, 76, 96
1, 672, Note_on_c, 0, 83, 96
1, 672, Note_off_c, 1, 76, 0
1, 672, Note_on_c, 1, 77, 96
1, 682, Note_off_c, 1, 77, 0
1, 684, Note_on_c, 1, 74, 96
1, 690, Note_off_c, 2, 77, 0
1, 690, Note_off_c, 3, 65, 0
1, 690, Note_off_c, 4, 62, 0
1, 690, Note_off_c, 5, 38, 0
1, 690, Note_off_c, 6, 26, 0
1, 693, Note_off_c, 0, 83, 0
1, 694, Note_off_c, 1, 74, 0
1, 696, Note_on_c, 0, 81, 96
1, 696, Note_on_c, 1, 71, 96
1, 696, Note_on_c, 5, 50, 88
1, 696, Note_on_c, 6, 38, 88
1, 706, Note_off_c, 1, 71, 0
1, 708, Note_on_c, 1, 74, 96
1, 717, Note_off_c, 0, 81, 0
1, 717, Note_off_c, 5, 50, 0
1, 717, Note_off_c, 6, 38, 0
1, 718, Note_off_c, 1, 74, 0
1, 720, Note_on_c, 0, 79, 96
1, 720, Note_on_c, 1, 79, 96
1, 720, Note_on_c, 2, 76, 104
1, 720, Note_on_c, 3, 72, 104
1, 720, Note_on_c, 4, 55, 104
1, 720, Note_on_c, 5, 52, 88
1, 720, Note_on_c, 6, 40, 88
1, 732, Note_off_c, 1, 79, 0
1, 732, Note_on_c, 1, 77, 96
1, 744, Note_off_c, 1, 77, 0
1, 744, Note_on_c, 1, 79, 96
1, 754, Note_off_c, 1, 79, 0
1, 756, Note_on_c, 1, 76, 96
1, 762, Note_off_c, 2, 76, 0
1, 762, Note_off_c, 3, 72, 0
1, 762, Note_off_c, 4, 55, 0
1, 762, Note_off_c, 5, 52, 0
1, 762, Note_off_c, 6, 40, 0
1, 766, Note_off_c, 1, 76, 0
1, 768, Note_on_c, 1, 72, 96
1, 768, Note_on_c, 5, 40, 88
1, 768, Note_on_c, 6, 28, 88
1, 778, Note_off_c, 1, 72, 0
1, 780, Note_on_c, 1, 76, 96
1, 789, Note_off_c, 5, 40, 0
1, 789, Note_off_c, 6, 28, 0
1, 790, Note_off_c, 1, 76, 0
1, 792, Note_on_c, 1, 81, 96
1, 792, Note_on_c, 2, 72, 104
1, 792, Note_on_c, 3, 69, 104
1, 792, Note_on_c, 4, 60, 104
1, 792, Note_on_c, 5, 41, 88
1, 792, Note_on_c, 6, 29, 88
1, 804, Note_off_c, 0, 79, 0
1, 804, Note_off_c, 1, 81, 0
1, 804, Note_on_c, 1, 79, 96
1, 816, Note_on_c, 0, 77, 96
1, 816, Note_off_c, 1, 79, 0
1, 816, Note_on_c, 1, 81, 96
1, 826, Note_off_c, 1, 81, 0
1, 828, Note_on_c, 1, 77, 96
1, 834, Note_off_c, 2, 72, 0
1, 834, Note_off_c, 3, 69, 0
1, 834, Note_off_c, 4, 60, 0
1, 834, Note_off_c, 5, 41, 0
1, 834, Note_off_c, 6, 29, 0
1, 837, Note_off_c, 0, 77, 0
1, 838, Note_off_c, 1, 77, 0
1, 840, Note_on_c, 0, 76, 96
1, 840, Note_on_c, 1, 79, 96
1, 840, Note_on_c, 5, 53, 88
1, 840, Note_on_c, 6, 41, 88
1, 850, Note_off_c, 1, 79, 0
1, 852, Note_on_c, 1, 81, 96
1, 861, Note_off_c, 0, 76, 0
1, 861, Note_off_c, 5, 53, 0
1, 861, Note_off_c, 6, 41, 0
1, 862, Note_off_c, 1, 81, 0
1, 864, Note_on_c, 0, 74, 96
1, 864, Note_on_c, 1, 71, 96
1, 864, Note_on_c, 2, 79, 104
1, 864, Note_on_c, 3, 74, 104
1, 864, Note_on_c, 4, 55, 104
1, 864, Note_on_c, 5, 53, 88
1, 864, Note_on_c, 6, 41, 88
1, 885, Note_off_c, 1, 71, 0
1, 888, Note_off_c, 0, 74, 0
1, 888, Note_on_c, 0, 71, 96
1, 888, Note_on_c, 1, 79, 96
1, 906, Note_off_c, 2, 79, 0
1, 906, Note_off_c, 3, 74, 0
1, 906, Note_off_c, 4, 55, 0
1, 906, Note_off_c, 5, 53, 0
1, 906, Note_off_c, 6, 41, 0
1, 909, Note_off_c, 0, 71, 0
1, 909, Note_off_c, 1, 79, 0
1, 912, Note_on_c, 0, 72, 96
1, 912, Note_on_c, 1, 72, 96
1, 912, Note_on_c, 2, 79, 104
1, 912, Note_on_c, 3, 76, 104
1, 912, Note_on_c, 4, 55, 104
1, 912, Note_on_c, 5, 52, 88
1, 912, Note_on_c, 6, 40, 88
1, 933, Note_off_c, 0, 72, 0
1, 933, Note_off_c, 2, 79, 0
1, 933, Note_off_c, 3, 76, 0
1, 933, Note_off_c, 4, 55, 0
1, 933, Note_off_c, 5, 52, 0
1, 933, Note_off_c, 6, 40, 0
1, 936, Note_on_c, 0, 77, 96
1, 936, Note_on_c, 2, 77, 104
1, 936, Note_on_c, 3, 69, 104
1, 936, Note_on_c, 4, 62, 104
1, 936, Note_on_c, 5, 50, 88
1, 936, Note_on_c, 6, 38, 88
1, 954, Note_off_c, 1, 72, 0
1, 960, Note_on_c, 1, 69, 96
1, 978, Note_off_c, 2, 77, 0
1, 978, Note_off_c, 3, 69, 0
1, 978, Note_off_c, 4, 62, 0
1, 978, Note_off_c, 5, 50, 0
1, 978, Note_off_c, 6, 38, 0
1, 981, Note_off_c, 1, 69, 0
1, 984, Note_on_c, 1, 71, 96
1, 984, Note_on_c, 2, 74, 104
1, 984, Note_on_c, 3, 67, 104
1, 984, Note_on_c, 4, 59, 104
1, 984, Note_on_c, 5, 55, 88
1, 984, Note_on_c, 6, 43, 88
1, 987, Note_off_c, 1, 71, 0
1, 987, Note_on_c, 1, 72, 96
1, 990, Note_off_c, 1, 72, 0
1, 990, Note_on_c, 1, 71, 96
1, 993, Note_off_c, 1, 71, 0
1, 993, Note_on_c, 1, 72, 96
1, 996, Note_off_c, 1, 72, 0
1, 996, Note_on_c, 1, 71, 96
1, 999, Note_off_c, 1, 71, 0
1, 999, Note_on_c, 1, 72, 96
1, 1002, Note_off_c, 1, 72, 0
1, 1002, Note_on_c, 1, 71, 96
1, 1004, Note_off_c, 1, 71, 0
1, 1004, Note_on_c, 1, 72, 96
1, 1005, Note_off_c, 2, 74, 0
1, 1005, Note_off_c, 3, 67, 0
1, 1005, Note_off_c, 4, 59, 0
1, 1005, Note_off_c, 5, 55, 0
1, 1005, Note_off_c, 6, 43, 0
1, 1006, Note_off_c, 1, 72, 0
1, 1006, Note_on_c, 1, 71, 96
1, 1008, Note_off_c, 1, 71, 0
1, 1008, Note_on_c, 1, 72, 96
1, 1008, Note_on_c, 2, 72, 104
1, 1008, Note_on_c, 3, 67, 104
1, 1008, Note_on_c, 4, 55, 104
1, 1008, Note_on_c, 5, 48, 88
1, 1008, Note_on_c, 6, 36, 88
1, 1020, Note_off_c, 0, 77, 0
1, 1020, Note_off_c, 1, 72, 0
1, 1020, Note_on_c, 1, 71, 96
1, 1032, Note_on_c, 0, 76, 96
1, 1032, Note_off_c, 1, 71, 0
1, 1032, Note_on_c, 1, 72, 96
1, 1042, Note_off_c, 1, 72, 0
1, 1044, Note_on_c, 1, 67, 96
1, 1050, Note_off_c, 2, 72, 0
1, 1050, Note_off_c, 3, 67, 0
1, 1050, Note_off_c, 4, 55, 0
1, 1050, Note_off_c, 5, 48, 0
1, 1050, Note_off_c, 6, 36, 0
1, 1053, Note_off_c, 0, 76, 0
1, 1054, Note_off_c, 1, 67, 0
1, 1056, Note_on_c, 0, 79, 96
1, 1056, Note_on_c, 1, 64, 96
1, 1056, Note_on_c, 5, 46, 88
1, 1056, Note_on_c, 6, 34, 88
1, 1066, Note_off_c, 1, 64, 0
1, 1068, Note_on_c, 1, 67, 96
1, 1077, Note_off_c, 0, 79, 0
1, 1077, Note_off_c, 5, 46, 0
1, 1077, Note_off_c, 6, 34, 0
1, 1078, Note_off_c, 1, 67, 0
1, 1080, Note_on_c, 0, 84, 96
1, 1080, Note_on_c, 1, 65, 96
1, 1080, Note_on_c, 5, 45, 88
1, 1080, Note_on_c, 6, 33, 88
1, 1092, Note_off_c, 1, 65, 0
1, 1092, Note_on_c, 1, 67, 96
1, 1104, Note_off_c, 1, 67, 0
1, 1104, Note_on_c, 1, 69, 96
1, 1116, Note_off_c, 1, 69, 0
1, 1116, Note_on_c, 1, 70, 96
1, 1122, Note_off_c, 0, 84, 0
1, 1122, Note_off_c, 5, 45, 0
1, 1122, Note_off_c, 6, 33, 0
1, 1128, Note_on_c, 0, 75, 96
1, 1128, Note_off_c, 1, 70, 0
1, 1128, Note_on_c, 1, 72, 96
1, 1128, Note_on_c, 2, 72, 104
1, 1128, Note_on_c, 3, 65, 104
1, 1128, Note_on_c, 4, 57, 104
1, 1128, Note_on_c, 5, 41, 88
1, 1128, Note_on_c, 6, 29, 88
1, 1138, Note_off_c, 1, 72, 0
1, 1140, Note_on_c, 1, 69, 96
1, 1149, Note_off_c, 3, 65, 0
1, 1149, Note_off_c, 4, 57, 0
1, 1149, Note_off_c, 5, 41, 0
1, 1149, Note_off_c, 6, 29, 0
1, 1150, Note_off_c, 1, 69, 0
1, 1152, Note_on_c, 1, 65, 96
1, 1152, Note_on_c, 3, 65, 104
1, 1152, Note_on_c, 4, 58, 104
1, 1152, Note_on_c, 5, 46, 88
1, 1152, Note_on_c, 6, 34, 88
1, 1164, Note_off_c, 1, 65, 0
1, 1164, Note_on_c, 1, 63, 96
1, 1170, Note_off_c, 0, 75, 0
1, 1170, Note_off_c, 2, 72, 0
1, 1176, Note_on_c, 0, 74, 96
1, 1176, Note_off_c, 1, 63, 0
1, 1176, Note_on_c, 1, 65, 96
1, 1176, Note_on_c, 2, 70, 104
1, 1186, Note_off_c, 1, 65, 0
1, 1188, Note_on_c, 1, 70, 96
1, 1194, Note_off_c, 3, 65, 0
1, 1194, Note_off_c, 4, 58, 0
1, 1194, Note_off_c, 5, 46, 0
1, 1194, Note_off_c, 6, 34, 0
1, 1197, Note_off_c, 0, 74, 0
1, 1197, Note_off_c, 2, 70, 0
1, 1198, Note_off_c, 1, 70, 0
1, 1200, Note_on_c, 0, 77, 96
1, 1200, Note_on_c, 1, 62, 96
1, 1200, Note_on_c, 5, 45, 88
1, 1200, Note_on_c, 6, 33, 88
1, 1210, Note_off_c, 1, 62, 0
1, 1212, Note_on_c, 1, 65, 96
1, 1221, Note_off_c, 0, 77, 0
1, 1221, Note_off_c, 5, 45, 0
1, 1221, Note_off_c, 6, 33, 0
1, 1222, Note_off_c, 1, 65, 0
1, 1224, Note_on_c, 0, 82, 96
1, 1224, Note_on_c, 1, 64, 96
1, 1224, Note_on_c, 5, 43, 88
1, 1224, Note_on_c, 6, 31, 88
1, 1236, Note_off_c, 1, 64, 0
1, 1236, Note_on_c, 1, 65, 96
1, 1248, Note_off_c, 1, 65, 0
1, 1248, Note_on_c, 1, 67, 96
1, 1260, Note_off_c, 1, 67, 0
1, 1260, Note_on_c, 1, 69, 96
1, 1266, Note_off_c, 0, 82, 0
1, 1266, Note_off_c, 5, 43, 0
1, 1266, Note_off_c, 6, 31, 0
1, 1272, Note_on_c, 0, 74, 96
1, 1272, Note_off_c, 1, 69, 0
1, 1272, Note_on_c, 1, 70, 96
1, 1272, Note_on_c, 2, 70, 104
1, 1272, Note_on_c, 3, 64, 104
1, 1272, Note_on_c, 4, 55, 104
1, 1272, Note_on_c, 5, 40, 88
1, 1272, Note_on_c, 6, 28, 88
1, 1282, Note_off_c, 1, 70, 0
1, 1284, Note_on_c, 1, 67, 96
1, 1293, Note_off_c, 3, 64, 0
1, 1293, Note_off_c, 4, 55, 0
1, 1293, Note_off_c, 5, 40, 0
1, 1293, Note_off_c, 6, 28, 0
1, 1294, Note_off_c, 1, 67, 0
1, 1296, Note_on_c, 1, 64, 96
1, 1296, Note_on_c, 3, 64, 104
1, 1296, Note_on_c, 4, 57, 104
1, 1296, Note_on_c, 5, 45, 88
1, 1296, Note_on_c, 6, 33, 88
1, 1308, Note_off_c, 1, 64, 0
1, 1308, Note_on_c, 1, 62, 96
1, 1314, Note_off_c, 0, 74, 0
1, 1314, Note_off_c, 2, 70, 0
1, 1320, Note_on_c, 0, 72, 96
1, 1320, Note_off_c, 1, 62, 0
1, 1320, Note_on_c, 1, 64, 96
1, 1320, Note_on_c, 2, 69, 104
1, 1330, Note_off_c, 1, 64, 0
1, 1332, Note_on_c, 1, 69, 96
1, 1338, Note_off_c, 3, 64, 0
1, 1338, Note_off_c, 4, 57, 0
1, 1338, Note_off_c, 5, 45, 0
1, 1338, Note_off_c, 6, 33, 0
1, 1341, Note_off_c, 0, 72, 0
1, 1341, Note_off_c, 2, 69, 0
1, 1342, Note_off_c, 1, 69, 0
1, 1344, Note_on_c, 0, 76, 96
1, 1344, Note_on_c, 1, 60, 96
1, 1344, Note_on_c, 5, 43, 88
1, 1344, Note_on_c, 6, 31, 88
1, 1354, Note_off_c, 1, 60, 0
1, 1356, Note_on_c, 1, 64, 96
1, 1365, Note_off_c, 0, 76, 0
1, 1365, Note_off_c, 5, 43, 0
1, 1365, Note_off_c, 6, 31, 0
1, 1366, Note_off_c, 1, 64, 0
1, 1368, Note_on_c, 0, 81, 96
1, 1368, Note_on_c, 1, 62, 96
1, 1368, Note_on_c, 5, 41, 88
1, 1368, Note_on_c, 6, 29, 88
1, 1380, Note_off_c, 1, 62, 0
1, 1380, Note_on_c, 1, 64, 96
1, 1392, Note_off_c, 1, 64, 0
1, 1392, Note_on_c, 1, 65, 96
1, 1404, Note_off_c, 1, 65, 0
1, 1404, Note_on_c, 1, 67, 96
1, 1410, Note_off_c, 0, 81, 0
1, 1410, Note_off_c, 5, 41, 0
1, 1410, Note_off_c, 6, 29, 0
1, 1416, Note_on_c, 0, 72, 96
1, 1416, Note_off_c, 1, 67, 0
1, 1416, Note_on_c, 1, 69, 96
1, 1416, Note_on_c, 2, 69, 104
1, 1416, Note_on_c, 3, 62, 104
1, 1416, Note_on_c, 4, 53, 104
1, 1416, Note_on_c, 5, 38, 88
1, 1416, Note_on_c, 6, 26, 88
1, 1426, Note_off_c, 1, 69, 0
1, 1428, Note_on_c, 1, 65, 96
1, 1437, Note_off_c, 3, 62, 0
1, 1437, Note_off_c, 4, 53, 0
1, 1437, Note_off_c, 5, 38, 0
1, 1437, Note_off_c, 6, 26, 0
1, 1438, Note_off_c, 1, 65, 0
1, 1440, Note_on_c, 1, 62, 96
1, 1440, Note_on_c, 3, 62, 104
1, 1440, Note_on_c, 4, 55, 104
1, 1440, Note_on_c, 5, 43, 88
1, 1440, Note_on_c, 6, 31, 88
1, 1452, Note_off_c, 1, 62, 0
1, 1452, Note_on_c, 1, 60, 96
1, 1458, Note_off_c, 0, 72, 0
1, 1458, Note_off_c, 2, 69, 0
1, 1464, Note_on_c, 0, 70, 96
1, 1464, Note_off_c, 1, 60, 0
1, 1464, Note_on_c, 1, 62, 96
1, 1464, Note_on_c, 2, 67, 104
1, 1474, Note_off_c, 1, 62, 0
1, 1476, Note_on_c, 1, 67, 96
1, 1482, Note_off_c, 3, 62, 0
1, 1482, Note_off_c, 4, 55, 0
1, 1482, Note_off_c, 5, 43, 0
1, 1482, Note_off_c, 6, 31, 0
1, 1485, Note_off_c, 0, 70, 0
1, 1485, Note_off_c, 2, 67, 0
1, 1486, Note_off_c, 1, 67, 0
1, 1488, Note_on_c, 0, 74, 96
1, 1488, Note_on_c, 1, 58, 96
1, 1488, Note_on_c, 5, 41, 88
1, 1488, Note_on_c, 6, 29, 88
1, 1498, Note_off_c, 1, 58, 0
1, 1500, Note_on_c, 1, 62, 96
1, 1509, Note_off_c, 0, 74, 0
1, 1509, Note_off_c, 5, 41, 0
1, 1509, Note_off_c, 6, 29, 0
1, 1510, Note_off_c, 1, 62, 0
1, 1512, Note_on_c, 0, 79, 96
1, 1512, Note_on_c, 1, 60, 96
1, 1512, Note_on_c, 5, 40, 88
1, 1512, Note_on_c, 6, 28, 88
1, 1524, Note_off_c, 1, 60, 0
1, 1524, Note_on_c, 1, 62, 96
1, 1536, Note_off_c, 1, 62, 0
1, 1536, Note_on_c, 1, 64, 96
1, 1548, Note_off_c, 1, 64, 0
1, 1548, Note_on_c, 1, 65, 96
1, 1554, Note_off_c, 0, 79, 0
1, 1554, Note_off_c, 5, 40, 0
1, 1554, Note_off_c, 6, 28, 0
1, 1560, Note_on_c, 0, 70, 96
1, 1560, Note_off_c, 1, 65, 0
1, 1560, Note_on_c, 1, 67, 96
1, 1560, Note_on_c, 2, 72, 104
1, 1560, Note_on_c, 3, 64, 104
1, 1560, Note_on_c, 4, 67, 104
1, 1560, Note_on_c, 5, 36, 88
1, 1560, Note_on_c, 6, 24, 88
1, 1570, Note_off_c, 1, 67, 0
1, 1572, Note_on_c, 1, 64, 96
1, 1581, Note_off_c, 3, 64, 0
1, 1581, Note_off_c, 4, 67, 0
1, 1581, Note_off_c, 5, 36, 0
1, 1581, Note_off_c, 6, 24, 0
1, 1582, Note_off_c, 1, 64, 0
1, 1584, Note_on_c, 1, 65, 96
1, 1584, Note_on_c, 3, 60, 104
1, 1584, Note_on_c, 4, 65, 104
1, 1584, Note_on_c, 5, 41, 88
1, 1584, Note_on_c, 6, 29, 88
1, 1602, Note_off_c, 0, 70, 0
1, 1602, Note_off_c, 2, 72, 0
1, 1608, Note_on_c, 0, 69, 96
1, 1608, Note_on_c, 2, 77, 104
1, 1626, Note_off_c, 1, 65, 0
1, 1626, Note_off_c, 3, 60, 0
1, 1626, Note_off_c, 4, 65, 0
1, 1626, Note_off_c, 5, 41, 0
1, 1626, Note_off_c, 6, 29, 0
1, 1629, Note_off_c, 0, 69, 0
1, 1629, Note_off_c, 2, 77, 0
1, 1632, Note_on_c, 0, 74, 96
1, 1632, Note_on_c, 2, 74, 104
1, 1632, Note_on_c, 3, 58, 104
1, 1632, Note_on_c, 4, 65, 104
1, 1632, Note_on_c, 5, 46, 88
1, 1632, Note_on_c, 6, 34, 88
1, 1653, Note_off_c, 0, 74, 0
1, 1653, Note_off_c, 2, 74, 0
1, 1653, Note_off_c, 3, 58, 0
1, 1653, Note_off_c, 4, 65, 0
1, 1653, Note_off_c, 5, 46, 0
1, 1653, Note_off_c, 6, 34, 0
1, 1656, Note_on_c, 0, 79, 96
1, 1656, Note_on_c, 2, 74, 104
1, 1656, Note_on_c, 3, 70, 104
1, 1656, Note_on_c, 4, 67, 104
1, 1656, Note_on_c, 5, 40, 88
1, 1656, Note_on_c, 6, 28, 88
1, 1677, Note_off_c, 0, 79, 0
1, 1680, Note_on_c, 0, 81, 96
1, 1692, Note_off_c, 0, 81, 0
1, 1692, Note_on_c, 0, 79, 96
1, 1698, Note_off_c, 2, 74, 0
1, 1698, Note_off_c, 3, 70, 0
1, 1698, Note_off_c, 4, 67, 0
1, 1698, Note_off_c, 5, 40, 0
1, 1698, Note_off_c, 6, 28, 0
1, 1704, Note_off_c, 0, 79, 0
1, 1704, Note_on_c, 0, 77, 96
1, 1704, Note_on_c, 2, 73, 104
1, 1704, Note_on_c, 3, 69, 104
1, 1704, Note_on_c, 4, 69, 104
1, 1704, Note_on_c, 5, 45, 88
1, 1704, Note_on_c, 6, 33, 88
1, 1716, Note_off_c, 0, 77, 0
1, 1716, Note_on_c, 0, 76, 96
1, 1725, Note_off_c, 2, 73, 0
1, 1725, Note_off_c, 3, 69, 0
1, 1725, Note_off_c, 4, 69, 0
1, 1725, Note_off_c, 5, 45, 0
1, 1725, Note_off_c, 6, 33, 0
1, 1726, Note_off_c, 0, 76, 0
1, 1728, Note_on_c, 0, 77, 96
1, 1728, Note_on_c, 1, 74, 96
1, 1728, Note_on_c, 2, 74, 104
1, 1728, Note_on_c, 3, 69, 104
1, 1728, Note_on_c, 4, 65, 104
1, 1728, Note_on_c, 5, 50, 88
1, 1728, Note_on_c, 6, 38, 88
1, 1740, Note_off_c, 0, 77, 0
1, 1740, Note_on_c, 0, 76, 96
1, 1752, Note_off_c, 0, 76, 0
1, 1752, Note_on_c, 0, 77, 96
1, 1762, Note_off_c, 0, 77, 0
1, 1764, Note_on_c, 0, 74, 96
1, 1770, Note_off_c, 2, 74, 0
1, 1770, Note_off_c, 3, 69, 0
1, 1770, Note_off_c, 4, 65, 0
1, 1770, Note_off_c, 5, 50, 0
1, 1770, Note_off_c, 6, 38, 0
1, 1774, Note_off_c, 0, 74, 0
1, 1776, Note_on_c, 0, 69, 96
1, 1776, Note_on_c, 5, 38, 88
1, 1776, Note_on_c, 6, 26, 88
1, 1786, Note_off_c, 0, 69, 0
1, 1788, Note_on_c, 0, 74, 96
1, 1797, Note_off_c, 5, 38, 0
1, 1797, Note_off_c, 6, 26, 0
1, 1798, Note_off_c, 0, 74, 0
1, 1800, Note_on_c, 0, 79, 96
1, 1800, Note_on_c, 2, 79, 104
1, 1800, Note_on_c, 3, 67, 104
1, 1800, Note_on_c, 4, 64, 104
1, 1800, Note_on_c, 5, 40, 88
1, 1800, Note_on_c, 6, 28, 88
1, 1812, Note_off_c, 0, 79, 0
1, 1812, Note_on_c, 0, 77, 96
1, 1812, Note_off_c, 1, 74, 0
1, 1824, Note_off_c, 0, 77, 0
1, 1824, Note_on_c, 0, 79, 96
1, 1824, Note_on_c, 1, 72, 96
1, 1834, Note_off_c, 0, 79, 0
1, 1836, Note_on_c, 0, 76, 96
1, 1842, Note_off_c, 2, 79, 0
1, 1842, Note_off_c, 3, 67, 0
1, 1842, Note_off_c, 4, 64, 0
1, 1842, Note_off_c, 5, 40, 0
1, 1842, Note_off_c, 6, 28, 0
1, 1845, Note_off_c, 1, 72, 0
1, 1846, Note_off_c, 0, 76, 0
1, 1848, Note_on_c, 0, 72, 96
1, 1848, Note_on_c, 1, 70, 96
1, 1848, Note_on_c, 5, 52, 88
1, 1848, Note_on_c, 6, 40, 88
1, 1858, Note_off_c, 0, 72, 0
1, 1860, Note_on_c, 0, 76, 96
1, 1869, Note_off_c, 1, 70, 0
1, 1869, Note_off_c, 5, 52, 0
1, 1869, Note_off_c, 6, 40, 0
1, 1870, Note_off_c, 0, 76, 0
1, 1872, Note_on_c, 0, 81, 96
1, 1872, Note_on_c, 1, 69, 96
1, 1872, Note_on_c, 2, 72, 104
1, 1872, Note_on_c, 3, 65, 104
1, 1872, Note_on_c, 4, 57, 104
1, 1872, Note_on_c, 5, 53, 88
1, 1872, Note_on_c, 6, 41, 88
1, 1884, Note_off_c, 0, 81, 0
1, 1884, Note_on_c, 0, 79, 96
1, 1896, Note_off_c, 0, 79, 0
1, 1896, Note_on_c, 0, 81, 96
1, 1906, Note_off_c, 0, 81, 0
1, 1908, Note_on_c, 0, 77, 96
1, 1914, Note_off_c, 2, 72, 0
1, 1914, Note_off_c, 3, 65, 0
1, 1914, Note_off_c, 4, 57, 0
1, 1914, Note_off_c, 5, 53, 0
1, 1914, Note_off_c, 6, 41, 0
1, 1918, Note_off_c, 0, 77, 0
1, 1920, Note_on_c, 0, 74, 96
1, 1920, Note_on_c, 5, 41, 88
1, 1920, Note_on_c, 6, 29, 88
1, 1930, Note_off_c, 0, 74, 0
1, 1932, Note_on_c, 0, 77, 96
1, 1941, Note_off_c, 5, 41, 0
1, 1941, Note_off_c, 6, 29, 0
1, 1942, Note_off_c, 0, 77, 0
1, 1944, Note_on_c, 0, 82, 96
1, 1944, Note_on_c, 2, 70, 104
1, 1944, Note_on_c, 3, 65, 104
1, 1944, Note_on_c, 4, 62, 104
1, 1944, Note_on_c, 5, 43, 88
1, 1944, Note_on_c, 6, 31, 88
1, 1956, Note_off_c, 0, 82, 0
1, 1956, Note_on_c, 0, 81, 96
1, 1956, Note_off_c, 1, 69, 0
1, 1968, Note_off_c, 0, 81, 0
1, 1968, Note_on_c, 0, 82, 96
1, 1968, Note_on_c, 1, 67, 96
1, 1978, Note_off_c, 0, 82, 0
1, 1980, Note_on_c, 0, 79, 96
1, 1986, Note_off_c, 2, 70, 0
1, 1986, Note_off_c, 3, 65, 0
1, 1986, Note_off_c, 4, 62, 0
1, 1986, Note_off_c, 5, 43, 0
1, 1986, Note_off_c, 6, 31, 0
1, 1989, Note_off_c, 1, 67, 0
1, 1990, Note_off_c, 0, 79, 0
1, 1992, Note_on_c, 0, 81, 96
1, 1992, Note_on_c, 1, 65, 96
1, 1992, Note_on_c, 5, 55, 88
1, 1992, Note_on_c, 6, 43, 88
1, 2002, Note_off_c, 0, 81, 0
1, 2004, Note_on_c, 0, 82, 96
1, 2013, Note_off_c, 1, 65, 0
1, 2013, Note_off_c, 5, 55, 0
1, 2013, Note_off_c, 6, 43, 0
1, 2014, Note_off_c, 0, 82, 0
1, 2016, Note_on_c, 0, 73, 96
1, 2016, Note_on_c, 1, 64, 96
1, 2016, Note_on_c, 2, 69, 104
1, 2016, Note_on_c, 3, 64, 104
1, 2016, Note_on_c, 4, 64, 104
1, 2016, Note_on_c, 5, 55, 88
1, 2016, Note_on_c, 6, 43, 88
1, 2037, Note_off_c, 0, 73, 0
1, 2040, Note_on_c, 0, 81, 96
1, 2040, Note_off_c, 1, 64, 0
1, 2040, Note_on_c, 1, 61, 96
1, 2058, Note_off_c, 2, 69, 0
1, 2058, Note_off_c, 3, 64, 0
1, 2058, Note_off_c, 4, 64, 0
1, 2058, Note_off_c, 5, 55, 0
1, 2058, Note_off_c, 6, 43, 0
1, 2061, Note_off_c, 0, 81, 0
1, 2061, Note_off_c, 1, 61, 0
1, 2064, Note_on_c, 0, 74, 96
1, 2064, Note_on_c, 1, 62, 96
1, 2064, Note_on_c, 2, 81, 104
1, 2064, Note_on_c, 3, 57, 104
1, 2064, Note_on_c, 4, 65, 104
1, 2064, Note_on_c, 5, 53, 88
1, 2064, Note_on_c, 6, 41, 88
1, 2085, Note_off_c, 1, 62, 0
1, 2085, Note_off_c, 2, 81, 0
1, 2085, Note_off_c, 3, 57, 0
1, 2085, Note_off_c, 4, 65, 0
1, 2085, Note_off_c, 5, 53, 0
1, 2085, Note_off_c, 6, 41, 0
1, 2088, Note_on_c, 1, 67, 96
1, 2088, Note_on_c, 2, 79, 104
1, 2088, Note_on_c, 3, 64, 104
1, 2088, Note_on_c, 4, 70, 104
1, 2088, Note_on_c, 5, 52, 88
1, 2088, Note_on_c, 6, 40, 88
1, 2106, Note_off_c, 0, 74, 0
1, 2112, Note_on_c, 0, 71, 96
1, 2130, Note_off_c, 2, 79, 0
1, 2130, Note_off_c, 3, 64, 0
1, 2130, Note_off_c, 4, 70, 0
1, 2130, Note_off_c, 5, 52, 0
1, 2130, Note_off_c, 6, 40, 0
1, 2133, Note_off_c, 0, 71, 0
1, 2136, Note_on_c, 0, 73, 96
1, 2136, Note_on_c, 2, 76, 104
1, 2136, Note_on_c, 3, 61, 104
1, 2136, Note_on_c, 4, 69, 104
1, 2136, Note_on_c, 5, 57, 88
1, 2136, Note_on_c, 6, 45, 88
1, 2157, Note_off_c, 0, 73, 0
1, 2157, Note_off_c, 2, 76, 0
1, 2157, Note_off_c, 3, 61, 0
1, 2157, Note_off_c, 4, 69, 0
1, 2157, Note_off_c, 5, 57, 0
1, 2157, Note_off_c, 6, 45, 0
1, 2160, Note_on_c, 0, 74, 96
1, 2160, Note_on_c, 2, 74, 104
1, 2160, Note_on_c, 3, 57, 104
1, 2160, Note_on_c, 4, 69, 104
1, 2160, Note_on_c, 5, 50, 88
1, 2160, Note_on_c, 6, 38, 88
1, 2161, Note_off_c, 1, 67, 0
1, 2172, Note_on_c, 1, 64, 96
1, 2184, Note_off_c, 1, 64, 0
1, 2184, Note_on_c, 1, 66, 96
1, 2196, Note_off_c, 1, 66, 0
1, 2196, Note_on_c, 1, 67, 96
1, 2202, Note_off_c, 0, 74, 0
1, 2202, Note_off_c, 2, 74, 0
1, 2202, Note_off_c, 3, 57, 0
1, 2202, Note_off_c, 4, 69, 0
1, 2202, Note_off_c, 5, 50, 0
1, 2202, Note_off_c, 6, 38, 0
1, 2208, Note_off_c, 1, 67, 0
1, 2208, Note_on_c, 1, 69, 96
1, 2208, Note_on_c, 5, 62, 88
1, 2208, Note_on_c, 6, 50, 88
1, 2220, Note_off_c, 1, 69, 0
1, 2220, Note_on_c, 1, 70, 96
1, 2229, Note_off_c, 5, 62, 0
1, 2229, Note_off_c, 6, 50, 0
1, 2230, Note_off_c, 1, 70, 0
1, 2232, Note_on_c, 1, 72, 96
1, 2232, Note_on_c, 5, 54, 88
1, 2232, Note_on_c, 6, 42, 88
1, 2242, Note_off_c, 1, 72, 0
1, 2244, Note_on_c, 1, 75, 96
1, 2256, Note_on_c, 0, 69, 96
1, 2256, Note_off_c, 1, 75, 0
1, 2256, Note_on_c, 1, 74, 96
1, 2268, Note_off_c, 1, 74, 0
1, 2268, Note_on_c, 1, 72, 96
1, 2274, Note_off_c, 5, 54, 0
1, 2274, Note_off_c, 6, 42, 0
1, 2280, Note_off_c, 1, 72, 0
1, 2280, Note_on_c, 1, 70, 96
1, 2280, Note_on_c, 2, 72, 104
1, 2280, Note_on_c, 3, 66, 104
1, 2280, Note_on_c, 4, 62, 104
1, 2280, Note_on_c, 5, 50, 88
1, 2280, Note_on_c, 6, 38, 88
1, 2292, Note_off_c, 1, 70, 0
1, 2292, Note_on_c, 1, 69, 96
1, 2301, Note_off_c, 2, 72, 0
1, 2301, Note_off_c, 3, 66, 0
1, 2301, Note_off_c, 4, 62, 0
1, 2301, Note_off_c, 5, 50, 0
1, 2301, Note_off_c, 6, 38, 0
1, 2302, Note_off_c, 1, 69, 0
1, 2304, Note_on_c, 1, 70, 96
1, 2304, Note_on_c, 2, 70, 104
1, 2304, Note_on_c, 3, 62, 104
1, 2304, Note_on_c, 4, 62, 104
1, 2304, Note_on_c, 5, 55, 88
1, 2304, Note_on_c, 6, 43, 88
1, 2308, Note_off_c, 0, 69, 0
1, 2316, Note_on_c, 0, 66, 96
1, 2328, Note_off_c, 0, 66, 0
1, 2328, Note_on_c, 0, 67, 96
1, 2340, Note_off_c, 0, 67, 0
1, 2340, Note_on_c, 0, 69, 96
1, 2346, Note_off_c, 1, 70, 0
1, 2346, Note_off_c, 2, 70, 0
1, 2346, Note_off_c, 3, 62, 0
1, 2346, Note_off_c, 4, 62, 0
1, 2346, Note_off_c, 5, 55, 0
1, 2346, Note_off_c, 6, 43, 0
1, 2352, Note_off_c, 0, 69, 0
1, 2352, Note_on_c, 0, 70, 96
1, 2352, Note_on_c, 5, 63, 88
1, 2352, Note_on_c, 6, 51, 88
1, 2364, Note_off_c, 0, 70, 0
1, 2364, Note_on_c, 0, 72, 96
1, 2373, Note_off_c, 5, 63, 0
1, 2373, Note_off_c, 6, 51, 0
1, 2374, Note_off_c, 0, 72, 0
1, 2376, Note_on_c, 0, 74, 96
1, 2376, Note_on_c, 5, 55, 88
1, 2376, Note_on_c, 6, 43, 88
1, 2388, Note_off_c, 0, 74, 0
1, 2388, Note_on_c, 0, 77, 96
1, 2397, Note_off_c, 5, 55, 0
1, 2397, Note_off_c, 6, 43, 0
1, 2400, Note_off_c, 0, 77, 0
1, 2400, Note_on_c, 0, 75, 96
1, 2400, Note_on_c, 1, 70, 96
1, 2412, Note_off_c, 0, 75, 0
1, 2412, Note_on_c, 0, 74, 96
1, 2424, Note_off_c, 0, 74, 0
1, 2424, Note_on_c, 0, 72, 96
1, 2424, Note_on_c, 2, 67, 104
1, 2424, Note_on_c, 3, 63, 104
1, 2424, Note_on_c, 4, 60, 104
1, 2424, Note_on_c, 5, 51, 88
1, 2424, Note_on_c, 6, 39, 88
1, 2436, Note_off_c, 0, 72, 0
1, 2436, Note_on_c, 0, 70, 96
1, 2445, Note_off_c, 2, 67, 0
1, 2445, Note_off_c, 3, 63, 0
1, 2445, Note_off_c, 4, 60, 0
1, 2445, Note_off_c, 5, 51, 0
1, 2445, Note_off_c, 6, 39, 0
1, 2446, Note_off_c, 0, 70, 0
1, 2448, Note_on_c, 0, 72, 96
1, 2448, Note_on_c, 2, 65, 104
1, 2448, Note_on_c, 3, 63, 104
1, 2448, Note_on_c, 4, 60, 104
1, 2448, Note_on_c, 5, 57, 88
1, 2448, Note_on_c, 6, 45, 88
1, 2452, Note_off_c, 1, 70, 0
1, 2460, Note_on_c, 1, 67, 96
1, 2472, Note_off_c, 1, 67, 0
1, 2472, Note_on_c, 1, 69, 96
1, 2484, Note_off_c, 1, 69, 0
1, 2484, Note_on_c, 1, 70, 96
1, 2490, Note_off_c, 2, 65, 0
1, 2490, Note_off_c, 3, 63, 0
1, 2490, Note_off_c, 4, 60, 0
1, 2490, Note_off_c, 5, 57, 0
1, 2490, Note_off_c, 6, 45, 0
1, 2496, Note_off_c, 1, 70, 0
1, 2496, Note_on_c, 1, 72, 96
1, 2496, Note_on_c, 5, 65, 88
1, 2496, Note_on_c, 6, 53, 88
1, 2508, Note_off_c, 1, 72, 0
1, 2508, Note_on_c, 1, 74, 96
1, 2511, Note_off_c, 0, 72, 0
1, 2517, Note_off_c, 5, 65, 0
1, 2517, Note_off_c, 6, 53, 0
1, 2518, Note_off_c, 1, 74, 0
1, 2520, Note_on_c, 1, 75, 96
1, 2520, Note_on_c, 5, 57, 88
1, 2520, Note_on_c, 6, 45, 88
1, 2530, Note_off_c, 1, 75, 0
1, 2532, Note_on_c, 1, 79, 96
1, 2544, Note_off_c, 1, 79, 0
1, 2544, Note_on_c, 1, 77, 96
1, 2556, Note_off_c, 1, 77, 0
1, 2556, Note_on_c, 1, 75, 96
1, 2562, Note_off_c, 5, 57, 0
1, 2562, Note_off_c, 6, 45, 0
1, 2568, Note_off_c, 1, 75, 0
1, 2568, Note_on_c, 1, 74, 96
1, 2568, Note_on_c, 2, 69, 104
1, 2568, Note_on_c, 3, 63, 104
1, 2568, Note_on_c, 4, 65, 104
1, 2568, Note_on_c, 5, 53, 88
1, 2568, Note_on_c, 6, 41, 88
1, 2580, Note_off_c, 1, 74, 0
1, 2580, Note_on_c, 1, 72, 96
1, 2589, Note_off_c, 2, 69, 0
1, 2589, Note_off_c, 3, 63, 0
1, 2589, Note_off_c, 4, 65, 0
1, 2589, Note_off_c, 5, 53, 0
1, 2589, Note_off_c, 6, 41, 0
1, 2590, Note_off_c, 1, 72, 0
1, 2592, Note_on_c, 0, 82, 96
1, 2592, Note_on_c, 1, 74, 96
1, 2592, Note_on_c, 2, 70, 104
1, 2592, Note_on_c, 3, 62, 104
1, 2592, Note_on_c, 4, 65, 104
1, 2592, Note_on_c, 5, 58, 88
1, 2592, Note_on_c, 6, 46, 88
1, 2604, Note_off_c, 1, 74, 0
1, 2604, Note_on_c, 1, 72, 96
1, 2616, Note_off_c, 1, 72, 0
1, 2616, Note_on_c, 1, 74, 96
1, 2626, Note_off_c, 1, 74, 0
1, 2628, Note_on_c, 1, 70, 96
1, 2634, Note_off_c, 2, 70, 0
1, 2634, Note_off_c, 3, 62, 0
1, 2634, Note_off_c, 4, 65, 0
1, 2634, Note_off_c, 5, 58, 0
1, 2634, Note_off_c, 6, 46, 0
1, 2638, Note_off_c, 1, 70, 0
1, 2640, Note_on_c, 1, 65, 96
1, 2640, Note_on_c, 5, 46, 88
1, 2640, Note_on_c, 6, 34, 88
1, 2650, Note_off_c, 1, 65, 0
1, 2652, Note_on_c, 1, 70, 96
1, 2661, Note_off_c, 5, 46, 0
1, 2661, Note_off_c, 6, 34, 0
1, 2662, Note_off_c, 1, 70, 0
1, 2664, Note_on_c, 1, 75, 96
1, 2664, Note_on_c, 2, 75, 104
1, 2664, Note_on_c, 3, 60, 104
1, 2664, Note_on_c, 4, 63, 104
1, 2664, Note_on_c, 5, 48, 88
1, 2664, Note_on_c, 6, 36, 88
1, 2676, Note_off_c, 0, 82, 0
1, 2676, Note_off_c, 1, 75, 0
1, 2676, Note_on_c, 1, 74, 96
1, 2688, Note_on_c, 0, 81, 96
1, 2688, Note_off_c, 1, 74, 0
1, 2688, Note_on_c, 1, 75, 96
1, 2698, Note_off_c, 1, 75, 0
1, 2700, Note_on_c, 1, 72, 96
1, 2706, Note_off_c, 2, 75, 0
1, 2706, Note_off_c, 3, 60, 0
1, 2706, Note_off_c, 4, 63, 0
1, 2706, Note_off_c, 5, 48, 0
1, 2706, Note_off_c, 6, 36, 0
1, 2709, Note_off_c, 0, 81, 0
1, 2710, Note_off_c, 1, 72, 0
1, 2712, Note_on_c, 0, 79, 96
1, 2712, Note_on_c, 1, 69, 96
1, 2712, Note_on_c, 5, 60, 88
1, 2712, Note_on_c, 6, 48, 88
1, 2722, Note_off_c, 1, 69, 0
1, 2724, Note_on_c, 1, 72, 96
1, 2733, Note_off_c, 0, 79, 0
1, 2733, Note_off_c, 5, 60, 0
1, 2733, Note_off_c, 6, 48, 0
1, 2734, Note_off_c, 1, 72, 0
1, 2736, Note_on_c, 0, 77, 96
1, 2736, Note_on_c, 1, 77, 96
1, 2736, Note_on_c, 2, 74, 104
1, 2736, Note_on_c, 3, 65, 104
1, 2736, Note_on_c, 4, 58, 104
1, 2736, Note_on_c, 5, 62, 88
1, 2736, Note_on_c, 6, 50, 88
1, 2748, Note_off_c, 1, 77, 0
1, 2748, Note_on_c, 1, 75, 96
1, 2760, Note_off_c, 1, 75, 0
1, 2760, Note_on_c, 1, 77, 96
1, 2770, Note_off_c, 1, 77, 0
1, 2772, Note_on_c, 1, 74, 96
1, 2778, Note_off_c, 2, 74, 0
1, 2778, Note_off_c, 3, 65, 0
1, 2778, Note_off_c, 4, 58, 0
1, 2778, Note_off_c, 5, 62, 0
1, 2778, Note_off_c, 6, 50, 0
1, 2782, Note_off_c, 1, 74, 0
1, 2784, Note_on_c, 1, 70, 96
1, 2784, Note_on_c, 5, 50, 88
1, 2784, Note_on_c, 6, 38, 88
1, 2794, Note_off_c, 1, 70, 0
1, 2796, Note_on_c, 1, 74, 96
1, 2805, Note_off_c, 5, 50, 0
1, 2805, Note_off_c, 6, 38, 0
1, 2806, Note_off_c, 1, 74, 0
1, 2808, Note_on_c, 1, 79, 96
1, 2808, Note_on_c, 2, 79, 104
1, 2808, Note_on_c, 3, 70, 104
1, 2808, Note_on_c, 4, 55, 104
1, 2808, Note_on_c, 5, 51, 88
1, 2808, Note_on_c, 6, 39, 88
1, 2820, Note_off_c, 0, 77, 0
1, 2820, Note_off_c, 1, 79, 0
1, 2820, Note_on_c, 1, 77, 96
1, 2832, Note_on_c, 0, 75, 96
1, 2832, Note_off_c, 1, 77, 0
1, 2832, Note_on_c, 1, 79, 96
1, 2842, Note_off_c, 1, 79, 0
1, 2844, Note_on_c, 1, 75, 96
1, 2850, Note_off_c, 2, 79, 0
1, 2850, Note_off_c, 3, 70, 0
1, 2850, Note_off_c, 4, 55, 0
1, 2850, Note_off_c, 5, 51, 0
1, 2850, Note_off_c, 6, 39, 0
1, 2853, Note_off_c, 0, 75, 0
1, 2854, Note_off_c, 1, 75, 0
1, 2856, Note_on_c, 0, 74, 96
1, 2856, Note_on_c, 1, 77, 96
1, 2856, Note_on_c, 5, 63, 88
1, 2856, Note_on_c, 6, 51, 88
1, 2866, Note_off_c, 1, 77, 0
1, 2868, Note_on_c, 1, 79, 96
1, 2877, Note_off_c, 0, 74, 0
1, 2877, Note_off_c, 5, 63, 0
1, 2877, Note_off_c, 6, 51, 0
1, 2878, Note_off_c, 1, 79, 0
1, 2880, Note_on_c, 0, 72, 96
1, 2880, Note_on_c, 1, 69, 96
1, 2880, Note_on_c, 2, 77, 104
1, 2880, Note_on_c, 3, 72, 104
1, 2880, Note_on_c, 4, 60, 104
1, 2880, Note_on_c, 5, 63, 88
1, 2880, Note_on_c, 6, 51, 88
1, 2901, Note_off_c, 1, 69, 0
1, 2904, Note_off_c, 0, 72, 0
1, 2904, Note_on_c, 0, 69, 96
1, 2904, Note_on_c, 1, 77, 96
1, 2922, Note_off_c, 2, 77, 0
1, 2922, Note_off_c, 3, 72, 0
1, 2922, Note_off_c, 4, 60, 0
1, 2922, Note_off_c, 5, 63, 0
1, 2922, Note_off_c, 6, 51, 0
1, 2925, Note_off_c, 0, 69, 0
1, 2925, Note_off_c, 1, 77, 0
1, 2928, Note_on_c, 0, 70, 96
1, 2928, Note_on_c, 1, 70, 96
1, 2928, Note_on_c, 2, 77, 104
1, 2928, Note_on_c, 3, 74, 104
1, 2928, Note_on_c, 4, 53, 104
1, 2928, Note_on_c, 5, 62, 88
1, 2928, Note_on_c, 6, 50, 88
1, 2949, Note_off_c, 0, 70, 0
1, 2949, Note_off_c, 2, 77, 0
1, 2949, Note_off_c, 3, 74, 0
1, 2949, Note_off_c, 4, 53, 0
1, 2949, Note_off_c, 5, 62, 0
1, 2949, Note_off_c, 6, 50, 0
1, 2952, Note_on_c, 0, 75, 96
1, 2952, Note_on_c, 2, 75, 104
1, 2952, Note_on_c, 3, 67, 104
1, 2952, Note_on_c, 4, 60, 104
1, 2952, Note_on_c, 5, 60, 88
1, 2952, Note_on_c, 6, 48, 88
1, 2970, Note_off_c, 1, 70, 0
1, 2976, Note_on_c, 1, 67, 96
1, 2994, Note_off_c, 2, 75, 0
1, 2994, Note_off_c, 3, 67, 0
1, 2994, Note_off_c, 4, 60, 0
1, 2994, Note_off_c, 5, 60, 0
1, 2994, Note_off_c, 6, 48, 0
1, 2997, Note_off_c, 1, 67, 0
1, 3000, Note_on_c, 1, 69, 96
1, 3000, Note_on_c, 2, 72, 104
1, 3000, Note_on_c, 3, 65, 104
1, 3000, Note_on_c, 4, 57, 104
1, 3000, Note_on_c, 5, 53, 88
1, 3000, Note_on_c, 6, 41, 88
1, 3021, Note_off_c, 1, 69, 0
1, 3021, Note_off_c, 2, 72, 0
1, 3021, Note_off_c, 3, 65, 0
1, 3021, Note_off_c, 4, 57, 0
1, 3021, Note_off_c, 5, 53, 0
1, 3021, Note_off_c, 6, 41, 0
1, 3024, Note_on_c, 1, 70, 96
1, 3024, Note_on_c, 2, 70, 104
1, 3024, Note_on_c, 3, 65, 104
1, 3024, Note_on_c, 4, 53, 104
1, 3024, Note_on_c, 5, 58, 88
1, 3024, Note_on_c, 6, 46, 88
1, 3036, Note_off_c, 0, 75, 0
1, 3048, Note_on_c, 0, 74, 96
1, 3066, Note_off_c, 2, 70, 0
1, 3066, Note_off_c, 3, 65, 0
1, 3066, Note_off_c, 4, 53, 0
1, 3066, Note_off_c, 5, 58, 0
1, 3066, Note_off_c, 6, 46, 0
1, 3069, Note_off_c, 0, 74, 0
1, 3072, Note_on_c, 0, 77, 96
1, 3072, Note_on_c, 2, 77, 104
1, 3072, Note_on_c, 3, 62, 104
1, 3072, Note_on_c, 4, 58, 104
1, 3072, Note_on_c, 5, 62, 88
1, 3072, Note_on_c, 6, 50, 88
1, 3087, Note_off_c, 1, 70, 0
1, 3093, Note_off_c, 0, 77, 0
1, 3093, Note_off_c, 2, 77, 0
1, 3093, Note_off_c, 3, 62, 0
1, 3093, Note_off_c, 4, 58, 0
1, 3093, Note_off_c, 5, 62, 0
1, 3093, Note_off_c, 6, 50, 0
1, 3096, Note_on_c, 0, 82, 96
1, 3096, Note_on_c, 2, 77, 104
1, 3096, Note_on_c, 3, 74, 104
1, 3096, Note_on_c, 4, 67, 104
1, 3096, Note_on_c, 5, 55, 88
1, 3096, Note_on_c, 6, 43, 88
1, 3117, Note_off_c, 0, 82, 0
1, 3120, Note_on_c, 0, 84, 96
1, 3132, Note_off_c, 0, 84, 0
1, 3132, Note_on_c, 0, 82, 96
1, 3138, Note_off_c, 2, 77, 0
1, 3138, Note_off_c, 3, 74, 0
1, 3138, Note_off_c, 4, 67, 0
1, 3138, Note_off_c, 5, 55, 0
1, 3138, Note_off_c, 6, 43, 0
1, 3144, Note_off_c, 0, 82, 0
1, 3144, Note_on_c, 0, 81, 96
1, 3144, Note_on_c, 2, 76, 104
1, 3144, Note_on_c, 3, 72, 104
1, 3144, Note_on_c, 4, 67, 104
1, 3144, Note_on_c, 5, 60, 88
1, 3144, Note_on_c, 6, 48, 88
1, 3156, Note_off_c, 0, 81, 0
1, 3156, Note_on_c, 0, 79, 96
1, 3165, Note_off_c, 2, 76, 0
1, 3165, Note_off_c, 3, 72, 0
1, 3165, Note_off_c, 4, 67, 0
1, 3165, Note_off_c, 5, 60, 0
1, 3165, Note_off_c, 6, 48, 0
1, 3166, Note_off_c, 0, 79, 0
1, 3168, Note_on_c, 0, 81, 96
1, 3168, Note_on_c, 1, 77, 96
1, 3168, Note_on_c, 2, 77, 104
1, 3168, Note_on_c, 3, 72, 104
1, 3168, Note_on_c, 4, 65, 104
1, 3168, Note_on_c, 5, 53, 88
1, 3168, Note_on_c, 6, 41, 88
1, 3180, Note_off_c, 0, 81, 0
1, 3180, Note_on_c, 0, 79, 96
1, 3192, Note_off_c, 0, 79, 0
1, 3192, Note_on_c, 0, 81, 96
1, 3202, Note_off_c, 0, 81, 0
1, 3204, Note_on_c, 0, 77, 96
1, 3210, Note_off_c, 2, 77, 0
1, 3210, Note_off_c, 3, 72, 0
1, 3210, Note_off_c, 4, 65, 0
1, 3210, Note_off_c, 5, 53, 0
1, 3210, Note_off_c, 6, 41, 0
1, 3214, Note_off_c, 0, 77, 0
1, 3216, Note_on_c, 0, 72, 96
1, 3216, Note_on_c, 5, 41, 88
1, 3216, Note_on_c, 6, 29, 88
1, 3226, Note_off_c, 0, 72, 0
1, 3228, Note_on_c, 0, 77, 96
1, 3237, Note_off_c, 5, 41, 0
1, 3237, Note_off_c, 6, 29, 0
1, 3238, Note_off_c, 0, 77, 0
1, 3240, Note_on_c, 0, 82, 96
1, 3240, Note_on_c, 2, 70, 104
1, 3240, Note_on_c, 3, 67, 104
1, 3240, Note_on_c, 4, 70, 104
1, 3240, Note_on_c, 5, 43, 88
1, 3240, Note_on_c, 6, 31, 88
1, 3252, Note_off_c, 0, 82, 0
1, 3252, Note_on_c, 0, 81, 96
1, 3252, Note_off_c, 1, 77, 0
1, 3264, Note_off_c, 0, 81, 0
1, 3264, Note_on_c, 0, 82, 96
1, 3264, Note_on_c, 1, 76, 96
1, 3274, Note_off_c, 0, 82, 0
1, 3276, Note_on_c, 0, 79, 96
1, 3282, Note_off_c, 2, 70, 0
1, 3282, Note_off_c, 3, 67, 0
1, 3282, Note_off_c, 4, 70, 0
1, 3282, Note_off_c, 5, 43, 0
1, 3282, Note_off_c, 6, 31, 0
1, 3285, Note_off_c, 1, 76, 0
1, 3286, Note_off_c, 0, 79, 0
1, 3288, Note_on_c, 0, 76, 96
1, 3288, Note_on_c, 1, 74, 96
1, 3288, Note_on_c, 5, 55, 88
1, 3288, Note_on_c, 6, 43, 88
1, 3298, Note_off_c, 0, 76, 0
1, 3300, Note_on_c, 0, 79, 96
1, 3309, Note_off_c, 1, 74, 0
1, 3309, Note_off_c, 5, 55, 0
1, 3309, Note_off_c, 6, 43, 0
1, 3310, Note_off_c, 0, 79, 0
1, 3312, Note_on_c, 0, 84, 96
1, 3312, Note_on_c, 1, 72, 96
1, 3312, Note_on_c, 2, 77, 104
1, 3312, Note_on_c, 3, 72, 104
1, 3312, Note_on_c, 4, 69, 104
1, 3312, Note_on_c, 5, 57, 88
1, 3312, Note_on_c, 6, 45, 88
1, 3324, Note_off_c, 0, 84, 0
1, 3324, Note_on_c, 0, 82, 96
1, 3336, Note_off_c, 0, 82, 0
1, 3336, Note_on_c, 0, 84, 96
1, 3346, Note_off_c, 0, 84, 0
1, 3348, Note_on_c, 0, 81, 96
1, 3354, Note_off_c, 2, 77, 0
1, 3354, Note_off_c, 3, 72, 0
1, 3354, Note_off_c, 4, 69, 0
1, 3354, Note_off_c, 5, 57, 0
1, 3354, Note_off_c, 6, 45, 0
1, 3358, Note_off_c, 0, 81, 0
1, 3360, Note_on_c, 0, 77, 96
1, 3360, Note_on_c, 5, 45, 88
1, 3360, Note_on_c, 6, 33, 88
1, 3370, Note_off_c, 0, 77, 0
1, 3372, Note_on_c, 0, 81, 96
1, 3381, Note_off_c, 5, 45, 0
1, 3381, Note_off_c, 6, 33, 0
1, 3382, Note_off_c, 0, 81, 0
1, 3384, Note_on_c, 0, 86, 96
1, 3384, Note_on_c, 2, 77, 104
1, 3384, Note_on_c, 3, 65, 104
1, 3384, Note_on_c, 4, 62, 104
1, 3384, Note_on_c, 5, 46, 88
1, 3384, Note_on_c, 6, 34, 88
1, 3396, Note_off_c, 0, 86, 0
1, 3396, Note_on_c, 0, 84, 96
1, 3396, Note_off_c, 1, 72, 0
1, 3408, Note_off_c, 0, 84, 0
1, 3408, Note_on_c, 0, 86, 96
1, 3408, Note_on_c, 1, 70, 96
1, 3418, Note_off_c, 0, 86, 0
1, 3420, Note_on_c, 0, 82, 96
1, 3426, Note_off_c, 2, 77, 0
1, 3426, Note_off_c, 3, 65, 0
1, 3426, Note_off_c, 4, 62, 0
1, 3426, Note_off_c, 5, 46, 0
1, 3426, Note_off_c, 6, 34, 0
1, 3429, Note_off_c, 1, 70, 0
1, 3430, Note_off_c, 0, 82, 0
1, 3432, Note_on_c, 0, 84, 96
1, 3432, Note_on_c, 1, 69, 96
1, 3432, Note_on_c, 5, 58, 88
1, 3432, Note_on_c, 6, 46, 88
1, 3442, Note_off_c, 0, 84, 0
1, 3444, Note_on_c, 0, 86, 96
1, 3453, Note_off_c, 1, 69, 0
1, 3453, Note_off_c, 5, 58, 0
1, 3453, Note_off_c, 6, 46, 0
1, 3454, Note_off_c, 0, 86, 0
1, 3456, Note_on_c, 0, 76, 96
1, 3456, Note_on_c, 1, 67, 96
1, 3456, Note_on_c, 2, 79, 104
1, 3456, Note_on_c, 3, 72, 104
1, 3456, Note_on_c, 4, 60, 104
1, 3456, Note_on_c, 5, 58, 88
1, 3456, Note_on_c, 6, 46, 88
1, 3477, Note_off_c, 0, 76, 0
1, 3480, Note_on_c, 0, 84, 96
1, 3480, Note_off_c, 1, 67, 0
1, 3480, Note_on_c, 1, 64, 96
1, 3498, Note_off_c, 2, 79, 0
1, 3498, Note_off_c, 3, 72, 0
1, 3498, Note_off_c, 4, 60, 0
1, 3498, Note_off_c, 5, 58, 0
1, 3498, Note_off_c, 6, 46, 0
1, 3501, Note_off_c, 0, 84, 0
1, 3504, Note_on_c, 0, 77, 96
1, 3504, Note_off_c, 1, 64, 0
1, 3504, Note_on_c, 1, 65, 96
1, 3504, Note_on_c, 2, 81, 104
1, 3504, Note_on_c, 3, 72, 104
1, 3504, Note_on_c, 4, 65, 104
1, 3504, Note_on_c, 5, 57, 88
1, 3504, Note_on_c, 6, 45, 88
1, 3525, Note_off_c, 1, 65, 0
1, 3525, Note_off_c, 2, 81, 0
1, 3525, Note_off_c, 3, 72, 0
1, 3525, Note_off_c, 4, 65, 0
1, 3525, Note_off_c, 5, 57, 0
1, 3525, Note_off_c, 6, 45, 0
1, 3528, Note_on_c, 1, 70, 96
1, 3528, Note_on_c, 2, 74, 104
1, 3528, Note_on_c, 3, 70, 104
1, 3528, Note_on_c, 4, 67, 104
1, 3528, Note_on_c, 5, 55, 88
1, 3528, Note_on_c, 6, 43, 88
1, 3546, Note_off_c, 0, 77, 0
1, 3552, Note_on_c, 0, 74, 96
1, 3570, Note_off_c, 2, 74, 0
1, 3570, Note_off_c, 3, 70, 0
1, 3570, Note_off_c, 4, 67, 0
1, 3570, Note_off_c, 5, 55, 0
1, 3570, Note_off_c, 6, 43, 0
1, 3573, Note_off_c, 0, 74, 0
1, 3576, Note_on_c, 0, 76, 96
1, 3576, Note_on_c, 2, 72, 104
1, 3576, Note_on_c, 3, 67, 104
1, 3576, Note_on_c, 4, 64, 104
1, 3576, Note_on_c, 5, 48, 88
1, 3576, Note_on_c, 6, 36, 88
1, 3597, Note_off_c, 0, 76, 0
1, 3597, Note_off_c, 2, 72, 0
1, 3597, Note_off_c, 3, 67, 0
1, 3597, Note_off_c, 4, 64, 0
1, 3597, Note_off_c, 5, 48, 0
1, 3597, Note_off_c, 6, 36, 0
1, 3600, Note_on_c, 0, 77, 96
1, 3600, Note_on_c, 2, 72, 104
1, 3600, Note_on_c, 3, 65, 104
1, 3600, Note_on_c, 4, 60, 104
1, 3600, Note_on_c, 5, 53, 88
1, 3600, Note_on_c, 6, 41, 88
1, 3612, Note_off_c, 0, 77, 0
1, 3612, Note_on_c, 0, 76, 96
1, 3612, Note_off_c, 1, 70, 0
1, 3624, Note_off_c, 0, 76, 0
1, 3624, Note_on_c, 0, 77, 96
1, 3624, Note_on_c, 1, 69, 96
1, 3634, Note_off_c, 0, 77, 0
1, 3636, Note_on_c, 0, 81, 96
1, 3642, Note_off_c, 2, 72, 0
1, 3642, Note_off_c, 3, 65, 0
1, 3642, Note_off_c, 4, 60, 0
1, 3642, Note_off_c, 5, 53, 0
1, 3642, Note_off_c, 6, 41, 0
1, 3645, Note_off_c, 1, 69, 0
1, 3646, Note_off_c, 0, 81, 0
1, 3648, Note_on_c, 0, 76, 96
1, 3648, Note_on_c, 1, 70, 96
1, 3648, Note_on_c, 5, 55, 88
1, 3648, Note_on_c, 6, 43, 88
1, 3658, Note_off_c, 0, 76, 0
1, 3660, Note_on_c, 0, 79, 96
1, 3669, Note_off_c, 1, 70, 0
1, 3669, Note_off_c, 5, 55, 0
1, 3669, Note_off_c, 6, 43, 0
1, 3670, Note_off_c, 0, 79, 0
1, 3672, Note_on_c, 0, 77, 96
1, 3672, Note_on_c, 1, 72, 96
1, 3672, Note_on_c, 5, 57, 88
1, 3672, Note_on_c, 6, 45, 88
1, 3684, Note_off_c, 0, 77, 0
1, 3684, Note_on_c, 0, 79, 96
1, 3696, Note_off_c, 0, 79, 0
1, 3696, Note_on_c, 0, 81, 96
1, 3708, Note_off_c, 0, 81, 0
1, 3708, Note_on_c, 0, 82, 96
1, 3714, Note_off_c, 1, 72, 0
1, 3714, Note_off_c, 5, 57, 0
1, 3714, Note_off_c, 6, 45, 0
1, 3720, Note_off_c, 0, 82, 0
1, 3720, Note_on_c, 0, 84, 96
1, 3720, Note_on_c, 1, 63, 96
1, 3720, Note_on_c, 2, 84, 104
1, 3720, Note_on_c, 3, 65, 104
1, 3720, Note_on_c, 4, 57, 104
1, 3720, Note_on_c, 5, 53, 88
1, 3720, Note_on_c, 6, 41, 88
1, 3732, Note_off_c, 0, 84, 0
1, 3732, Note_on_c, 0, 81, 96
1, 3741, Note_off_c, 3, 65, 0
1, 3741, Note_off_c, 4, 57, 0
1, 3741, Note_off_c, 5, 53, 0
1, 3741, Note_off_c, 6, 41, 0
1, 3742, Note_off_c, 0, 81, 0
1, 3744, Note_on_c, 0, 77, 96
1, 3744, Note_on_c, 3, 65, 104
1, 3744, Note_on_c, 4, 58, 104
1, 3744, Note_on_c, 5, 58, 88
1, 3744, Note_on_c, 6, 46, 88
1, 3756, Note_off_c, 0, 77, 0
1, 3756, Note_on_c, 0, 76, 96
1, 3762, Note_off_c, 1, 63, 0
1, 3762, Note_off_c, 2, 84, 0
1, 3768, Note_off_c, 0, 76, 0
1, 3768, Note_on_c, 0, 77, 96
1, 3768, Note_on_c, 1, 62, 96
1, 3768, Note_on_c, 2, 82, 104
1, 3778, Note_off_c, 0, 77, 0
1, 3780, Note_on_c, 0, 82, 96
1, 3786, Note_off_c, 3, 65, 0
1, 3786, Note_off_c, 4, 58, 0
1, 3786, Note_off_c, 5, 58, 0
1, 3786, Note_off_c, 6, 46, 0
1, 3789, Note_off_c, 1, 62, 0
1, 3789, Note_off_c, 2, 82, 0
1, 3790, Note_off_c, 0, 82, 0
1, 3792, Note_on_c, 0, 74, 96
1, 3792, Note_on_c, 1, 65, 96
1, 3792, Note_on_c, 5, 57, 88
1, 3792, Note_on_c, 6, 45, 88
1, 3802, Note_off_c, 0, 74, 0
1, 3804, Note_on_c, 0, 77, 96
1, 3813, Note_off_c, 1, 65, 0
1, 3813, Note_off_c, 5, 57, 0
1, 3813, Note_off_c, 6, 45, 0
1, 3814, Note_off_c, 0, 77, 0
1, 3816, Note_on_c, 0, 76, 96
1, 3816, Note_on_c, 1, 70, 96
1, 3816, Note_on_c, 5, 55, 88
1, 3816, Note_on_c, 6, 43, 88
1, 3828, Note_off_c, 0, 76, 0
1, 3828, Note_on_c, 0, 77, 96
1, 3840, Note_off_c, 0, 77, 0
1, 3840, Note_on_c, 0, 79, 96
1, 3852, Note_off_c, 0, 79, 0
1, 3852, Note_on_c, 0, 81, 96
1, 3858, Note_off_c, 1, 70, 0
1, 3858, Note_off_c, 5, 55, 0
1, 3858, Note_off_c, 6, 43, 0
1, 3864, Note_off_c, 0, 81, 0
1, 3864, Note_on_c, 0, 82, 96
1, 3864, Note_on_c, 1, 62, 96
1, 3864, Note_on_c, 2, 82, 104
1, 3864, Note_on_c, 3, 64, 104
1, 3864, Note_on_c, 4, 55, 104
1, 3864, Note_on_c, 5, 52, 88
1, 3864, Note_on_c, 6, 40, 88
1, 3876, Note_off_c, 0, 82, 0
1, 3876, Note_on_c, 0, 79, 96
1, 3885, Note_off_c, 3, 64, 0
1, 3885, Note_off_c, 4, 55, 0
1, 3885, Note_off_c, 5, 52, 0
1, 3885, Note_off_c, 6, 40, 0
1, 3886, Note_off_c, 0, 79, 0
1, 3888, Note_on_c, 0, 76, 96
1, 3888, Note_on_c, 3, 64, 104
1, 3888, Note_on_c, 4, 57, 104
1, 3888, Note_on_c, 5, 57, 88
1, 3888, Note_on_c, 6, 45, 88
1, 3900, Note_off_c, 0, 76, 0
1, 3900, Note_on_c, 0, 74, 96
1, 3906, Note_off_c, 1, 62, 0
1, 3906, Note_off_c, 2, 82, 0
1, 3912, Note_off_c, 0, 74, 0
1, 3912, Note_on_c, 0, 76, 96
1, 3912, Note_on_c, 1, 60, 96
1, 3912, Note_on_c, 2, 81, 104
1, 3922, Note_off_c, 0, 76, 0
1, 3924, Note_on_c, 0, 81, 96
1, 3930, Note_off_c, 3, 64, 0
1, 3930, Note_off_c, 4, 57, 0
1, 3930, Note_off_c, 5, 57, 0
1, 3930, Note_off_c, 6, 45, 0
1, 3933, Note_off_c, 1, 60, 0
1, 3933, Note_off_c, 2, 81, 0
1, 3934, Note_off_c, 0, 81, 0
1, 3936, Note_on_c, 0, 72, 96
1, 3936, Note_on_c, 1, 64, 96
1, 3936, Note_on_c, 5, 55, 88
1, 3936, Note_on_c, 6, 43, 88
1, 3946, Note_off_c, 0, 72, 0
1, 3948, Note_on_c, 0, 76, 96
1, 3957, Note_off_c, 1, 64, 0
1, 3957, Note_off_c, 5, 55, 0
1, 3957, Note_off_c, 6, 43, 0
1, 3958, Note_off_c, 0, 76, 0
1, 3960, Note_on_c, 0, 74, 96
1, 3960, Note_on_c, 1, 69, 96
1, 3960, Note_on_c, 5, 53, 88
1, 3960, Note_on_c, 6, 41, 88
1, 3972, Note_off_c, 0, 74, 0
1, 3972, Note_on_c, 0, 76, 96
1, 3984, Note_off_c, 0, 76, 0
1, 3984, Note_on_c, 0, 77, 96
1, 3996, Note_off_c, 0, 77, 0
1, 3996, Note_on_c, 0, 79, 96
1, 4002, Note_off_c, 1, 69, 0
1, 4002, Note_off_c, 5, 53, 0
1, 4002, Note_off_c, 6, 41, 0
1, 4008, Note_off_c, 0, 79, 0
1, 4008, Note_on_c, 0, 81, 96
1, 4008, Note_on_c, 1, 60, 96
1, 4008, Note_on_c, 2, 81, 104
1, 4008, Note_on_c, 3, 62, 104
1, 4008, Note_on_c, 4, 53, 104
1, 4008, Note_on_c, 5, 50, 88
1, 4008, Note_on_c, 6, 38, 88
1, 4018, Note_off_c, 0, 81, 0
1, 4020, Note_on_c, 0, 77, 96
1, 4029, Note_off_c, 3, 62, 0
1, 4029, Note_off_c, 4, 53, 0
1, 4029, Note_off_c, 5, 50, 0
1, 4029, Note_off_c, 6, 38, 0
1, 4030, Note_off_c, 0, 77, 0
1, 4032, Note_on_c, 0, 74, 96
1, 4032, Note_on_c, 3, 62, 104
1, 4032, Note_on_c, 4, 55, 104
1, 4032, Note_on_c, 5, 55, 88
1, 4032, Note_on_c, 6, 43, 88
1, 4044, Note_off_c, 0, 74, 0
1, 4044, Note_on_c, 0, 72, 96
1, 4050, Note_off_c, 1, 60, 0
1, 4050, Note_off_c, 2, 81, 0
1, 4056, Note_off_c, 0, 72, 0
1, 4056, Note_on_c, 0, 74, 96
1, 4056, Note_on_c, 1, 58, 96
1, 4056, Note_on_c, 2, 79, 104
1, 4066, Note_off_c, 0, 74, 0
1, 4068, Note_on_c, 0, 79, 96
1, 4074, Note_off_c, 3, 62, 0
1, 4074, Note_off_c, 4, 55, 0
1, 4074, Note_off_c, 5, 55, 0
1, 4074, Note_off_c, 6, 43, 0
1, 4077, Note_off_c, 1, 58, 0
1, 4077, Note_off_c, 2, 79, 0
1, 4078, Note_off_c, 0, 79, 0
1, 4080, Note_on_c, 0, 70, 96
1, 4080, Note_on_c, 1, 62, 96
1, 4080, Note_on_c, 5, 53, 88
1, 4080, Note_on_c, 6, 41, 88
1, 4090, Note_off_c, 0, 70, 0
1, 4092, Note_on_c, 0, 74, 96
1, 4101, Note_off_c, 1, 62, 0
1, 4101, Note_off_c, 5, 53, 0
1, 4101, Note_off_c, 6, 41, 0
1, 4102, Note_off_c, 0, 74, 0
1, 4104, Note_on_c, 0, 72, 96
1, 4104, Note_on_c, 1, 67, 96
1, 4104, Note_on_c, 5, 52, 88
1, 4104, Note_on_c, 6, 40, 88
1, 4116, Note_off_c, 0, 72, 0
1, 4116, Note_on_c, 0, 74, 96
1, 4128, Note_off_c, 0, 74, 0
1, 4128, Note_on_c, 0, 76, 96
1, 4140, Note_off_c, 0, 76, 0
1, 4140, Note_on_c, 0, 77, 96
1, 4146, Note_off_c, 1, 67, 0
1, 4146, Note_off_c, 5, 52, 0
1, 4146, Note_off_c, 6, 40, 0
1, 4152, Note_off_c, 0, 77, 0
1, 4152, Note_on_c, 0, 79, 96
1, 4152, Note_on_c, 1, 58, 96
1, 4152, Note_on_c, 2, 79, 104
1, 4152, Note_on_c, 3, 64, 104
1, 4152, Note_on_c, 4, 60, 104
1, 4152, Note_on_c, 5, 48, 88
1, 4152, Note_on_c, 6, 36, 88
1, 4162, Note_off_c, 0, 79, 0
1, 4164, Note_on_c, 0, 76, 96
1, 4173, Note_off_c, 3, 64, 0
1, 4173, Note_off_c, 4, 60, 0
1, 4173, Note_off_c, 5, 48, 0
1, 4173, Note_off_c, 6, 36, 0
1, 4174, Note_off_c, 0, 76, 0
1, 4176, Note_on_c, 0, 72, 96
1, 4176, Note_on_c, 3, 65, 104
1, 4176, Note_on_c, 4, 60, 104
1, 4176, Note_on_c, 5, 53, 88
1, 4176, Note_on_c, 6, 41, 88
1, 4188, Note_off_c, 0, 72, 0
1, 4188, Note_on_c, 0, 70, 96
1, 4194, Note_off_c, 1, 58, 0
1, 4194, Note_off_c, 2, 79, 0
1, 4200, Note_off_c, 0, 70, 0
1, 4200, Note_on_c, 0, 72, 96
1, 4200, Note_on_c, 1, 57, 96
1, 4200, Note_on_c, 2, 77, 104
1, 4210, Note_off_c, 0, 72, 0
1, 4212, Note_on_c, 0, 77, 96
1, 4218, Note_off_c, 3, 65, 0
1, 4218, Note_off_c, 4, 60, 0
1, 4218, Note_off_c, 5, 53, 0
1, 4218, Note_off_c, 6, 41, 0
1, 4221, Note_off_c, 1, 57, 0
1, 4221, Note_off_c, 2, 77, 0
1, 4222, Note_off_c, 0, 77, 0
1, 4224, Note_on_c, 0, 70, 96
1, 4224, Note_on_c, 1, 60, 96
1, 4224, Note_on_c, 2, 70, 104
1, 4224, Note_on_c, 3, 65, 104
1, 4224, Note_on_c, 4, 53, 104
1, 4224, Note_on_c, 5, 50, 88
1, 4224, Note_on_c, 6, 38, 88
1, 4236, Note_off_c, 0, 70, 0
1, 4245, Note_off_c, 2, 70, 0
1, 4245, Note_off_c, 4, 53, 0
1, 4245, Note_off_c, 5, 50, 0
1, 4245, Note_off_c, 6, 38, 0
1, 4248, Note_on_c, 0, 69, 96
1, 4248, Note_off_c, 1, 60, 0
1, 4248, Note_on_c, 1, 65, 96
1, 4248, Note_on_c, 2, 69, 104
1, 4248, Note_on_c, 4, 60, 104
1, 4248, Note_on_c, 5, 48, 88
1, 4248, Note_on_c, 6, 36, 88
1, 4266, Note_off_c, 3, 65, 0
1, 4269, Note_off_c, 1, 65, 0
1, 4269, Note_off_c, 2, 69, 0
1, 4272, Note_off_c, 0, 69, 0
1, 4272, Note_on_c, 0, 70, 96
1, 4272, Note_on_c, 1, 67, 96
1, 4272, Note_on_c, 2, 70, 104
1, 4272, Note_on_c, 3, 67, 104
1, 4284, Note_off_c, 1, 67, 0
1, 4290, Note_off_c, 4, 60, 0
1, 4290, Note_off_c, 5, 48, 0
1, 4290, Note_off_c, 6, 36, 0
1, 4293, Note_off_c, 0, 70, 0
1, 4293, Note_off_c, 2, 70, 0
1, 4293, Note_off_c, 3, 67, 0
1, 4296, Note_on_c, 0, 67, 96
1, 4296, Note_on_c, 1, 64, 96
1, 4296, Note_on_c, 2, 67, 104
1, 4296, Note_on_c, 3, 64, 104
1, 4296, Note_on_c, 4, 58, 104
1, 4296, Note_on_c, 5, 36, 88
1, 4296, Note_on_c, 6, 24, 88
1, 4308, Note_off_c, 1, 64, 0
1, 4317, Note_off_c, 0, 67, 0
1, 4317, Note_off_c, 2, 67, 0
1, 4317, Note_off_c, 3, 64, 0
1, 4317, Note_off_c, 4, 58, 0
1, 4317, Note_off_c, 5, 36, 0
1, 4317, Note_off_c, 6, 24, 0
1, 4320, Note_on_c, 0, 65, 96
1, 4320, Note_on_c, 1, 65, 96
1, 4320, Note_on_c, 2, 65, 104
1, 4320, Note_on_c, 3, 60, 104
1, 4320, Note_on_c, 4, 57, 104
1, 4320, Note_on_c, 5, 41, 64
1, 4320, Note_on_c, 6, 29, 64
1, 4332, Note_off_c, 1, 65, 0
1, 4332, Note_on_c, 1, 60, 96
1, 4342, Note_off_c, 1, 60, 0
1, 4344, Note_on_c, 1, 62, 96
1, 4354, Note_off_c, 1, 62, 0
1, 4356, Note_on_c, 1, 58, 96
1, 4362, Note_off_c, 0, 65, 0
1, 4362, Note_off_c, 2, 65, 0
1, 4362, Note_off_c, 3, 60, 0
1, 4362, Note_off_c, 4, 57, 0
1, 4362, Note_off_c, 5, 41, 0
1, 4362, Note_off_c, 6, 29, 0
1, 4366, Note_off_c, 1, 58, 0
1, 4368, Note_on_c, 1, 60, 96
1, 4368, Note_on_c, 5, 53, 64
1, 4368, Note_on_c, 6, 41, 64
1, 4380, Note_off_c, 1, 60, 0
1, 4389, Note_off_c, 5, 53, 0
1, 4389, Note_off_c, 6, 41, 0
1, 4392, Note_on_c, 0, 62, 96
1, 4392, Note_on_c, 1, 70, 96
1, 4392, Note_on_c, 5, 53, 64
1, 4392, Note_on_c, 6, 41, 64
1, 4404, Note_off_c, 0, 62, 0
1, 4404, Note_off_c, 1, 70, 0
1, 4416, Note_on_c, 0, 60, 96
1, 4416, Note_on_c, 1, 69, 96
1, 4428, Note_off_c, 0, 60, 0
1, 4428, Note_off_c, 1, 69, 0
1, 4434, Note_off_c, 5, 53, 0
1, 4434, Note_off_c, 6, 41, 0
1, 4440, Note_on_c, 0, 58, 96
1, 4440, Note_on_c, 1, 67, 96
1, 4440, Note_on_c, 5, 41, 64
1, 4440, Note_on_c, 6, 29, 64
1, 4452, Note_off_c, 0, 58, 0
1, 4452, Note_off_c, 1, 67, 0
1, 4461, Note_off_c, 5, 41, 0
1, 4461, Note_off_c, 6, 29, 0
1, 4464, Note_on_c, 0, 57, 96
1, 4464, Note_on_c, 1, 65, 96
1, 4464, Note_on_c, 5, 41, 64
1, 4464, Note_on_c, 6, 29, 64
1, 4476, Note_off_c, 0, 57, 0
1, 4476, Note_on_c, 0, 60, 96
1, 4486, Note_off_c, 0, 60, 0
1, 4488, Note_on_c, 0, 62, 96
1, 4498, Note_off_c, 0, 62, 0
1, 4500, Note_on_c, 0, 58, 96
1, 4506, Note_off_c, 1, 65, 0
1, 4506, Note_off_c, 5, 41, 0
1, 4506, Note_off_c, 6, 29, 0
1, 4510, Note_off_c, 0, 58, 0
1, 4512, Note_on_c, 0, 60, 96
1, 4512, Note_on_c, 5, 53, 64
1, 4512, Note_on_c, 6, 41, 64
1, 4524, Note_off_c, 0, 60, 0
1, 4533, Note_off_c, 5, 53, 0
1, 4533, Note_off_c, 6, 41, 0
1, 4536, Note_on_c, 0, 70, 96
1, 4536, Note_on_c, 1, 62, 96
1, 4536, Note_on_c, 5, 53, 64
1, 4536, Note_on_c, 6, 41, 64
1, 4548, Note_off_c, 0, 70, 0
1, 4548, Note_off_c, 1, 62, 0
1, 4560, Note_on_c, 0, 69, 96
1, 4560, Note_on_c, 1, 60, 96
1, 4572, Note_off_c, 0, 69, 0
1, 4572, Note_off_c, 1, 60, 0
1, 4578, Note_off_c, 5, 53, 0
1, 4578, Note_off_c, 6, 41, 0
1, 4584, Note_on_c, 0, 67, 96
1, 4584, Note_on_c, 1, 58, 96
1, 4584, Note_on_c, 5, 41, 64
1, 4584, Note_on_c, 6, 29, 64
1, 4596, Note_off_c, 0, 67, 0
1, 4596, Note_off_c, 1, 58, 0
1, 4605, Note_off_c, 5, 41, 0
1, 4605, Note_off_c, 6, 29, 0
1, 4608, Note_on_c, 0, 65, 96
1, 4608, Note_on_c, 1, 57, 96
1, 4608, Note_on_c, 5, 41, 64
1, 4608, Note_on_c, 6, 29, 64
1, 4629, Note_off_c, 0, 65, 0
1, 4632, Note_on_c, 0, 74, 96
1, 4650, Note_off_c, 1, 57, 0
1, 4650, Note_off_c, 5, 41, 0
1, 4650, Note_off_c, 6, 29, 0
1, 4656, Note_on_c, 2, 74, 104
1, 4656, Note_on_c, 3, 70, 104
1, 4656, Note_on_c, 4, 65, 104
1, 4677, Note_off_c, 2, 74, 0
1, 4677, Note_off_c, 3, 70, 0
1, 4677, Note_off_c, 4, 65, 0
1, 4680, Note_on_c, 1, 70, 96
1, 4680, Note_on_c, 2, 70, 104
1, 4680, Note_on_c, 3, 65, 104
1, 4680, Note_on_c, 4, 62, 104
1, 4680, Note_on_c, 5, 53, 64
1, 4680, Note_on_c, 6, 41, 64
1, 4695, Note_off_c, 0, 74, 0
1, 4704, Note_on_c, 0, 76, 96
1, 4722, Note_off_c, 2, 70, 0
1, 4722, Note_off_c, 3, 65, 0
1, 4722, Note_off_c, 4, 62, 0
1, 4722, Note_off_c, 5, 53, 0
1, 4722, Note_off_c, 6, 41, 0
1, 4728, Note_off_c, 0, 76, 0
1, 4728, Note_on_c, 0, 77, 96
1, 4728, Note_on_c, 2, 65, 104
1, 4728, Note_on_c, 3, 62, 104
1, 4728, Note_on_c, 4, 58, 104
1, 4749, Note_off_c, 0, 77, 0
1, 4749, Note_off_c, 2, 65, 0
1, 4749, Note_off_c, 3, 62, 0
1, 4749, Note_off_c, 4, 58, 0
1, 4752, Note_on_c, 0, 72, 96
1, 4752, Note_on_c, 5, 41, 64
1, 4752, Note_on_c, 6, 29, 64
1, 4753, Note_off_c, 1, 70, 0
1, 4764, Note_on_c, 1, 69, 96
1, 4774, Note_off_c, 1, 69, 0
1, 4776, Note_on_c, 1, 76, 96
1, 4788, Note_off_c, 1, 76, 0
1, 4794, Note_off_c, 5, 41, 0
1, 4794, Note_off_c, 6, 29, 0
1, 4800, Note_on_c, 1, 77, 96
1, 4800, Note_on_c, 2, 72, 104
1, 4800, Note_on_c, 3, 69, 104
1, 4800, Note_on_c, 4, 65, 104
1, 4812, Note_off_c, 1, 77, 0
1, 4821, Note_off_c, 2, 72, 0
1, 4821, Note_off_c, 3, 69, 0
1, 4821, Note_off_c, 4, 65, 0
1, 4824, Note_on_c, 1, 69, 96
1, 4824, Note_on_c, 2, 69, 104
1, 4824, Note_on_c, 3, 65, 104
1, 4824, Note_on_c, 4, 60, 104
1, 4824, Note_on_c, 5, 53, 64
1, 4824, Note_on_c, 6, 41, 64
1, 4836, Note_off_c, 0, 72, 0
1, 4848, Note_on_c, 0, 76, 96
1, 4866, Note_off_c, 2, 69, 0
1, 4866, Note_off_c, 3, 65, 0
1, 4866, Note_off_c, 4, 60, 0
1, 4866, Note_off_c, 5, 53, 0
1, 4866, Note_off_c, 6, 41, 0
1, 4872, Note_off_c, 0, 76, 0
1, 4872, Note_on_c, 0, 77, 96
1, 4872, Note_on_c, 2, 65, 104
1, 4872, Note_on_c, 3, 60, 104
1, 4872, Note_on_c, 4, 57, 104
1, 4893, Note_off_c, 0, 77, 0
1, 4893, Note_off_c, 2, 65, 0
1, 4893, Note_off_c, 3, 60, 0
1, 4893, Note_off_c, 4, 57, 0
1, 4896, Note_on_c, 0, 70, 96
1, 4896, Note_on_c, 5, 41, 64
1, 4896, Note_on_c, 6, 29, 64
1, 4897, Note_off_c, 1, 69, 0
1, 4908, Note_on_c, 1, 67, 96
1, 4918, Note_off_c, 1, 67, 0
1, 4920, Note_on_c, 1, 76, 96
1, 4932, Note_off_c, 1, 76, 0
1, 4938, Note_off_c, 5, 41, 0
1, 4938, Note_off_c, 6, 29, 0
1, 4944, Note_on_c, 1, 77, 96
1, 4944, Note_on_c, 2, 70, 104
1, 4944, Note_on_c, 3, 65, 104
1, 4944, Note_on_c, 4, 62, 104
1, 4956, Note_off_c, 1, 77, 0
1, 4965, Note_off_c, 2, 70, 0
1, 4965, Note_off_c, 3, 65, 0
1, 4965, Note_off_c, 4, 62, 0
1, 4968, Note_on_c, 1, 67, 96
1, 4968, Note_on_c, 2, 67, 104
1, 4968, Note_on_c, 3, 64, 104
1, 4968, Note_on_c, 4, 58, 104
1, 4968, Note_on_c, 5, 53, 64
1, 4968, Note_on_c, 6, 41, 64
1, 4980, Note_off_c, 0, 70, 0
1, 4992, Note_on_c, 0, 76, 96
1, 5010, Note_off_c, 2, 67, 0
1, 5010, Note_off_c, 3, 64, 0
1, 5010, Note_off_c, 4, 58, 0
1, 5010, Note_off_c, 5, 53, 0
1, 5010, Note_off_c, 6, 41, 0
1, 5016, Note_on_c, 2, 64, 104
1, 5016, Note_on_c, 3, 58, 104
1, 5016, Note_on_c, 4, 55, 104
1, 5028, Note_off_c, 0, 76, 0
1, 5028, Note_on_c, 0, 77, 96
1, 5034, Note_off_c, 0, 77, 0
1, 5034, Note_on_c, 0, 79, 96
1, 5037, Note_off_c, 2, 64, 0
1, 5037, Note_off_c, 3, 58, 0
1, 5037, Note_off_c, 4, 55, 0
1, 5039, Note_off_c, 0, 79, 0
1, 5040, Note_on_c, 0, 69, 96
1, 5040, Note_on_c, 2, 69, 104
1, 5040, Note_on_c, 3, 60, 104
1, 5040, Note_on_c, 4, 53, 104
1, 5040, Note_on_c, 5, 41, 64
1, 5040, Note_on_c, 6, 29, 64
1, 5041, Note_off_c, 1, 67, 0
1, 5052, Note_on_c, 1, 65, 96
1, 5061, Note_off_c, 5, 41, 0
1, 5061, Note_off_c, 6, 29, 0
1, 5062, Note_off_c, 1, 65, 0
1, 5064, Note_on_c, 1, 76, 96
1, 5064, Note_on_c, 5, 43, 64
1, 5064, Note_on_c, 6, 31, 64
1, 5076, Note_off_c, 1, 76, 0
1, 5082, Note_off_c, 2, 69, 0
1, 5085, Note_off_c, 5, 43, 0
1, 5085, Note_off_c, 6, 31, 0
1, 5088, Note_on_c, 1, 77, 96
1, 5088, Note_on_c, 5, 45, 64
1, 5088, Note_on_c, 6, 33, 64
1, 5100, Note_off_c, 1, 77, 0
1, 5103, Note_off_c, 3, 60, 0
1, 5103, Note_off_c, 4, 53, 0
1, 5109, Note_off_c, 5, 45, 0
1, 5109, Note_off_c, 6, 33, 0
1, 5112, Note_on_c, 1, 65, 96
1, 5112, Note_on_c, 5, 38, 64
1, 5112, Note_on_c, 6, 26, 64
1, 5113, Note_off_c, 0, 69, 0
1, 5124, Note_on_c, 0, 71, 96
1, 5134, Note_off_c, 0, 71, 0
1, 5136, Note_on_c, 0, 72, 96
1, 5139, Note_off_c, 0, 72, 0
1, 5139, Note_on_c, 0, 71, 96
1, 5142, Note_off_c, 0, 71, 0
1, 5142, Note_on_c, 0, 72, 96
1, 5145, Note_off_c, 0, 72, 0
1, 5145, Note_on_c, 0, 71, 96
1, 5148, Note_off_c, 0, 71, 0
1, 5148, Note_on_c, 0, 72, 96
1, 5151, Note_off_c, 0, 72, 0
1, 5151, Note_on_c, 0, 71, 96
1, 5154, Note_off_c, 0, 71, 0
1, 5154, Note_on_c, 0, 72, 96
1, 5154, Note_off_c, 5, 38, 0
1, 5154, Note_off_c, 6, 26, 0
1, 5157, Note_off_c, 0, 72, 0
1, 5157, Note_on_c, 0, 71, 96
1, 5160, Note_off_c, 0, 71, 0
1, 5160, Note_on_c, 0, 72, 96
1, 5160, Note_on_c, 5, 43, 64
1, 5160, Note_on_c, 6, 31, 64
1, 5163, Note_off_c, 0, 72, 0
1, 5163, Note_on_c, 0, 71, 96
1, 5166, Note_off_c, 0, 71, 0
1, 5166, Note_on_c, 0, 72, 96
1, 5169, Note_off_c, 0, 72, 0
1, 5169, Note_on_c, 0, 71, 96
1, 5172, Note_off_c, 0, 71, 0
1, 5172, Note_on_c, 0, 72, 96
1, 5175, Note_off_c, 0, 72, 0
1, 5175, Note_on_c, 0, 71, 96
1, 5178, Note_off_c, 0, 71, 0
1, 5178, Note_on_c, 0, 72, 96
1, 5181, Note_off_c, 0, 72, 0
1, 5181, Note_on_c, 0, 71, 96
1, 5181, Note_off_c, 5, 43, 0
1, 5181, Note_off_c, 6, 31, 0
1, 5184, Note_off_c, 0, 71, 0
1, 5184, Note_on_c, 0, 72, 96
1, 5184, Note_on_c, 5, 48, 64
1, 5184, Note_on_c, 6, 36, 64
1, 5196, Note_off_c, 0, 72, 0
1, 5196, Note_on_c, 0, 71, 96
1, 5196, Note_off_c, 1, 65, 0
1, 5208, Note_off_c, 0, 71, 0
1, 5208, Note_on_c, 0, 72, 96
1, 5208, Note_on_c, 1, 64, 96
1, 5218, Note_off_c, 0, 72, 0
1, 5220, Note_on_c, 0, 76, 96
1, 5226, Note_off_c, 5, 48, 0
1, 5226, Note_off_c, 6, 36, 0
1, 5229, Note_off_c, 1, 64, 0
1, 5230, Note_off_c, 0, 76, 0
1, 5232, Note_on_c, 0, 71, 96
1, 5232, Note_on_c, 5, 50, 64
1, 5232, Note_on_c, 6, 38, 64
1, 5242, Note_off_c, 0, 71, 0
1, 5244, Note_on_c, 0, 74, 96
1, 5253, Note_off_c, 5, 50, 0
1, 5253, Note_off_c, 6, 38, 0
1, 5254, Note_off_c, 0, 74, 0
1, 5256, Note_on_c, 0, 72, 96
1, 5256, Note_on_c, 1, 79, 96
1, 5256, Note_on_c, 5, 52, 64
1, 5256, Note_on_c, 6, 40, 64
1, 5268, Note_off_c, 0, 72, 0
1, 5268, Note_on_c, 0, 74, 96
1, 5280, Note_off_c, 0, 74, 0
1, 5280, Note_on_c, 0, 76, 96
1, 5292, Note_off_c, 0, 76, 0
1, 5292, Note_on_c, 0, 77, 96
1, 5298, Note_off_c, 1, 79, 0
1, 5298, Note_off_c, 5, 52, 0
1, 5298, Note_off_c, 6, 40, 0
1, 5304, Note_off_c, 0, 77, 0
1, 5304, Note_on_c, 0, 79, 96
1, 5304, Note_on_c, 1, 70, 96
1, 5304, Note_on_c, 2, 79, 104
1, 5304, Note_on_c, 3, 72, 104
1, 5304, Note_on_c, 4, 64, 104
1, 5304, Note_on_c, 5, 48, 64
1, 5304, Note_on_c, 6, 36, 64
1, 5314, Note_off_c, 0, 79, 0
1, 5316, Note_on_c, 0, 76, 96
1, 5325, Note_off_c, 3, 72, 0
1, 5325, Note_off_c, 4, 64, 0
1, 5325, Note_off_c, 5, 48, 0
1, 5325, Note_off_c, 6, 36, 0
1, 5326, Note_off_c, 0, 76, 0
1, 5328, Note_on_c, 0, 72, 96
1, 5328, Note_on_c, 3, 72, 104
1, 5328, Note_on_c, 4, 65, 104
1, 5328, Note_on_c, 5, 53, 64
1, 5328, Note_on_c, 6, 41, 64
1, 5340, Note_off_c, 0, 72, 0
1, 5340, Note_on_c, 0, 70, 96
1, 5346, Note_off_c, 1, 70, 0
1, 5346, Note_off_c, 2, 79, 0
1, 5352, Note_off_c, 0, 70, 0
1, 5352, Note_on_c, 0, 72, 96
1, 5352, Note_on_c, 1, 69, 96
1, 5352, Note_on_c, 2, 77, 104
1, 5362, Note_off_c, 0, 72, 0
1, 5364, Note_on_c, 0, 77, 96
1, 5370, Note_off_c, 3, 72, 0
1, 5370, Note_off_c, 4, 65, 0
1, 5370, Note_off_c, 5, 53, 0
1, 5370, Note_off_c, 6, 41, 0
1, 5373, Note_off_c, 1, 69, 0
1, 5373, Note_off_c, 2, 77, 0
1, 5374, Note_off_c, 0, 77, 0
1, 5376, Note_on_c, 0, 69, 96
1, 5376, Note_on_c, 1, 72, 96
1, 5376, Note_on_c, 5, 52, 64
1, 5376, Note_on_c, 6, 40, 64
1, 5386, Note_off_c, 0, 69, 0
1, 5388, Note_on_c, 0, 72, 96
1, 5397, Note_off_c, 1, 72, 0
1, 5397, Note_off_c, 5, 52, 0
1, 5397, Note_off_c, 6, 40, 0
1, 5398, Note_off_c, 0, 72, 0
1, 5400, Note_on_c, 0, 71, 96
1, 5400, Note_on_c, 1, 77, 96
1, 5400, Note_on_c, 5, 50, 64
1, 5400, Note_on_c, 6, 38, 64
1, 5412, Note_off_c, 0, 71, 0
1, 5412, Note_on_c, 0, 72, 96
1, 5424, Note_off_c, 0, 72, 0
1, 5424, Note_on_c, 0, 74, 96
1, 5436, Note_off_c, 0, 74, 0
1, 5436, Note_on_c, 0, 76, 96
1, 5442, Note_off_c, 1, 77, 0
1, 5442, Note_off_c, 5, 50, 0
1, 5442, Note_off_c, 6, 38, 0
1, 5448, Note_off_c, 0, 76, 0
1, 5448, Note_on_c, 0, 77, 96
1, 5448, Note_on_c, 1, 69, 96
1, 5448, Note_on_c, 2, 77, 104
1, 5448, Note_on_c, 3, 71, 104
1, 5448, Note_on_c, 4, 62, 104
1, 5448, Note_on_c, 5, 47, 64
1, 5448, Note_on_c, 6, 35, 64
1, 5458, Note_off_c, 0, 77, 0
1, 5460, Note_on_c, 0, 74, 96
1, 5469, Note_off_c, 3, 71, 0
1, 5469, Note_off_c, 4, 62, 0
1, 5469, Note_off_c, 5, 47, 0
1, 5469, Note_off_c, 6, 35, 0
1, 5470, Note_off_c, 0, 74, 0
1, 5472, Note_on_c, 0, 71, 96
1, 5472, Note_on_c, 3, 71, 104
1, 5472, Note_on_c, 4, 64, 104
1, 5472, Note_on_c, 5, 52, 64
1, 5472, Note_on_c, 6, 40, 64
1, 5484, Note_off_c, 0, 71, 0
1, 5484, Note_on_c, 0, 69, 96
1, 5490, Note_off_c, 1, 69, 0
1, 5490, Note_off_c, 2, 77, 0
1, 5496, Note_off_c, 0, 69, 0
1, 5496, Note_on_c, 0, 71, 96
1, 5496, Note_on_c, 1, 67, 96
1, 5496, Note_on_c, 2, 76, 104
1, 5506, Note_off_c, 0, 71, 0
1, 5508, Note_on_c, 0, 76, 96
1, 5514, Note_off_c, 3, 71, 0
1, 5514, Note_off_c, 4, 64, 0
1, 5514, Note_off_c, 5, 52, 0
1, 5514, Note_off_c, 6, 40, 0
1, 5517, Note_off_c, 1, 67, 0
1, 5517, Note_off_c, 2, 76, 0
1, 5518, Note_off_c, 0, 76, 0
1, 5520, Note_on_c, 0, 67, 96
1, 5520, Note_on_c, 1, 71, 96
1, 5520, Note_on_c, 5, 50, 64
1, 5520, Note_on_c, 6, 38, 64
1, 5530, Note_off_c, 0, 67, 0
1, 5532, Note_on_c, 0, 71, 96
1, 5541, Note_off_c, 1, 71, 0
1, 5541, Note_off_c, 5, 50, 0
1, 5541, Note_off_c, 6, 38, 0
1, 5542, Note_off_c, 0, 71, 0
1, 5544, Note_on_c, 0, 69, 96
1, 5544, Note_on_c, 1, 76, 96
1, 5544, Note_on_c, 5, 48, 64
1, 5544, Note_on_c, 6, 36, 64
1, 5556, Note_off_c, 0, 69, 0
1, 5556, Note_on_c, 0, 71, 96
1, 5568, Note_off_c, 0, 71, 0
1, 5568, Note_on_c, 0, 72, 96
1, 5580, Note_off_c, 0, 72, 0
1, 5580, Note_on_c, 0, 74, 96
1, 5586, Note_off_c, 1, 76, 0
1, 5586, Note_off_c, 5, 48, 0
1, 5586, Note_off_c, 6, 36, 0
1, 5592, Note_off_c, 0, 74, 0
1, 5592, Note_on_c, 0, 76, 96
1, 5592, Note_on_c, 1, 67, 96
1, 5592, Note_on_c, 2, 76, 104
1, 5592, Note_on_c, 3, 69, 104
1, 5592, Note_on_c, 4, 60, 104
1, 5592, Note_on_c, 5, 45, 64
1, 5592, Note_on_c, 6, 33, 64
1, 5602, Note_off_c, 0, 76, 0
1, 5604, Note_on_c, 0, 72, 96
1, 5613, Note_off_c, 3, 69, 0
1, 5613, Note_off_c, 4, 60, 0
1, 5613, Note_off_c, 5, 45, 0
1, 5613, Note_off_c, 6, 33, 0
1, 5614, Note_off_c, 0, 72, 0
1, 5616, Note_on_c, 0, 69, 96
1, 5616, Note_on_c, 3, 69, 104
1, 5616, Note_on_c, 4, 62, 104
1, 5616, Note_on_c, 5, 50, 64
1, 5616, Note_on_c, 6, 38, 64
1, 5628, Note_off_c, 0, 69, 0
1, 5628, Note_on_c, 0, 67, 96
1, 5634, Note_off_c, 1, 67, 0
1, 5634, Note_off_c, 2, 76, 0
1, 5640, Note_off_c, 0, 67, 0
1, 5640, Note_on_c, 0, 69, 96
1, 5640, Note_on_c, 1, 65, 96
1, 5640, Note_on_c, 2, 74, 104
1, 5650, Note_off_c, 0, 69, 0
1, 5652, Note_on_c, 0, 74, 96
1, 5658, Note_off_c, 3, 69, 0
1, 5658, Note_off_c, 4, 62, 0
1, 5658, Note_off_c, 5, 50, 0
1, 5658, Note_off_c, 6, 38, 0
1, 5661, Note_off_c, 1, 65, 0
1, 5661, Note_off_c, 2, 74, 0
1, 5662, Note_off_c, 0, 74, 0
1, 5664, Note_on_c, 0, 65, 96
1, 5664, Note_on_c, 1, 69, 96
1, 5664, Note_on_c, 5, 48, 64
1, 5664, Note_on_c, 6, 36, 64
1, 5674, Note_off_c, 0, 65, 0
1, 5676, Note_on_c, 0, 69, 96
1, 5685, Note_off_c, 1, 69, 0
1, 5685, Note_off_c, 5, 48, 0
1, 5685, Note_off_c, 6, 36, 0
1, 5686, Note_off_c, 0, 69, 0
1, 5688, Note_on_c, 0, 67, 96
1, 5688, Note_on_c, 1, 74, 96
1, 5688, Note_on_c, 5, 47, 64
1, 5688, Note_on_c, 6, 35, 64
1, 5700, Note_off_c, 0, 67, 0
1, 5700, Note_on_c, 0, 69, 96
1, 5712, Note_off_c, 0, 69, 0
1, 5712, Note_on_c, 0, 71, 96
1, 5724, Note_off_c, 0, 71, 0
1, 5724, Note_on_c, 0, 72, 96
1, 5730, Note_off_c, 1, 74, 0
1, 5730, Note_off_c, 5, 47, 0
1, 5730, Note_off_c, 6, 35, 0
1, 5736, Note_off_c, 0, 72, 0
1, 5736, Note_on_c, 0, 74, 96
1, 5736, Note_on_c, 1, 65, 96
1, 5736, Note_on_c, 2, 74, 104
1, 5736, Note_on_c, 3, 71, 104
1, 5736, Note_on_c, 4, 67, 104
1, 5736, Note_on_c, 5, 43, 64
1, 5736, Note_on_c, 6, 31, 64
1, 5746, Note_off_c, 0, 74, 0
1, 5748, Note_on_c, 0, 71, 96
1, 5757, Note_off_c, 2, 74, 0
1, 5757, Note_off_c, 3, 71, 0
1, 5757, Note_off_c, 4, 67, 0
1, 5757, Note_off_c, 5, 43, 0
1, 5757, Note_off_c, 6, 31, 0
1, 5758, Note_off_c, 0, 71, 0
1, 5778, Note_off_c, 1, 65, 0
1, 5784, End_track
0, 0, End_of_file
