0, 0, Header, 1, 4, 1024
1, 0, Start_track
1, 0, Time_signature, 4, 2, 24, 8
1, 0, Key_signature, 1, "minor"
1, 0, Tempo, 833333
1, 137216, End_track
2, 0, Start_track
2, 0, Title_t, "Instrument 1"
2, 256, Note_on_c, 0, 64, 96
2, 512, Note_off_c, 0, 64, 0
2, 512, Note_on_c, 0, 66, 96
2, 768, Note_off_c, 0, 66, 0
2, 768, Note_on_c, 0, 67, 96
2, 1024, Note_off_c, 0, 67, 0
2, 1024, Note_on_c, 0, 66, 96
2, 1280, Note_off_c, 0, 66, 0
2, 1280, Note_on_c, 0, 67, 96
2, 1536, Note_off_c, 0, 67, 0
2, 1536, Note_on_c, 0, 69, 96
2, 1792, Note_off_c, 0, 69, 0
2, 1792, Note_on_c, 0, 66, 96
2, 2048, Note_off_c, 0, 66, 0
2, 2048, Note_on_c, 0, 67, 96
2, 2560, Note_off_c, 0, 67, 0
2, 2560, Note_on_c, 0, 76, 96
2, 3584, Note_off_c, 0, 76, 0
2, 3584, Note_on_c, 0, 75, 96
2, 4096, Note_off_c, 0, 75, 0
2, 4096, Note_on_c, 0, 76, 96
2, 4352, Note_off_c, 0, 76, 0
2, 4352, Note_on_c, 0, 71, 96
2, 4608, Note_off_c, 0, 71, 0
2, 4608, Note_on_c, 0, 69, 96
2, 4864, Note_off_c, 0, 69, 0
2, 4864, Note_on_c, 0, 67, 96
2, 5120, Note_off_c, 0, 67, 0
2, 5120, Note_on_c, 0, 69, 96
2, 5376, Note_off_c, 0, 69, 0
2, 5376, Note_on_c, 0, 67, 96
2, 5632, Note_off_c, 0, 67, 0
2, 5632, Note_on_c, 0, 66, 96
2, 5888, Note_off_c, 0, 66, 0
2, 5888, Note_on_c, 0, 69, 96
2, 6144, Note_off_c, 0, 69, 0
2, 6144, Note_on_c, 0, 67, 96
2, 6656, Note_off_c, 0, 67, 0
2, 6656, Note_on_c, 0, 72, 96
2, 7168, Note_off_c, 0, 72, 0
2, 7168, Note_on_c, 0, 66, 96
2, 7680, Note_off_c, 0, 66, 0
2, 7680, Note_on_c, 0, 74, 96
2, 8192, Note_off_c, 0, 74, 0
2, 8192, Note_on_c, 0, 71, 96
2, 8448, Note_off_c, 0, 71, 0
2, 8448, Note_on_c, 0, 64, 96
2, 8704, Note_off_c, 0, 64, 0
2, 8704, Note_on_c, 0, 66, 96
2, 8960, Note_off_c, 0, 66, 0
2, 8960, Note_on_c, 0, 67, 96
2, 9216, Note_off_c, 0, 67, 0
2, 9216, Note_on_c, 0, 60, 96
2, 9472, Note_off_c, 0, 60, 0
2, 9472, Note_on_c, 0, 62, 96
2, 9728, Note_off_c, 0, 62, 0
2, 9728, Note_on_c, 0, 64, 96
2, 9984, Note_off_c, 0, 64, 0
2, 9984, Note_on_c, 0, 60, 96
2, 10240, Note_off_c, 0, 60, 0
2, 10240, Note_on_c, 0, 69, 96
2, 10496, Note_off_c, 0, 69, 0
2, 10496, Note_on_c, 0, 62, 96
2, 10752, Note_off_c, 0, 62, 0
2, 10752, Note_on_c, 0, 64, 96
2, 11008, Note_off_c, 0, 64, 0
2, 11008, Note_on_c, 0, 66, 96
2, 11264, Note_off_c, 0, 66, 0
2, 11264, Note_on_c, 0, 59, 96
2, 11520, Note_off_c, 0, 59, 0
2, 11520, Note_on_c, 0, 60, 96
2, 11776, Note_off_c, 0, 60, 0
2, 11776, Note_on_c, 0, 62, 96
2, 12032, Note_off_c, 0, 62, 0
2, 12032, Note_on_c, 0, 59, 96
2, 12288, Note_off_c, 0, 59, 0
2, 12288, Note_on_c, 0, 67, 96
2, 12544, Note_off_c, 0, 67, 0
2, 12544, Note_on_c, 0, 60, 96
2, 12800, Note_off_c, 0, 60, 0
2, 12800, Note_on_c, 0, 62, 96
2, 13056, Note_off_c, 0, 62, 0
2, 13056, Note_on_c, 0, 64, 96
2, 13312, Note_off_c, 0, 64, 0
2, 13312, Note_on_c, 0, 57, 96
2, 13568, Note_off_c, 0, 57, 0
2, 13568, Note_on_c, 0, 59, 96
2, 13824, Note_off_c, 0, 59, 0
2, 13824, Note_on_c, 0, 60, 96
2, 14080, Note_off_c, 0, 60, 0
2, 14080, Note_on_c, 0, 57, 96
2, 14336, Note_off_c, 0, 57, 0
2, 14336, Note_on_c, 0, 66, 96
2, 16640, Note_off_c, 0, 66, 0
2, 16640, Note_on_c, 0, 71, 96
2, 16896, Note_off_c, 0, 71, 0
2, 16896, Note_on_c, 0, 69, 96
2, 17152, Note_off_c, 0, 69, 0
2, 17152, Note_on_c, 0, 67, 96
2, 17408, Note_off_c, 0, 67, 0
2, 17408, Note_on_c, 0, 69, 96
2, 17664, Note_off_c, 0, 69, 0
2, 17664, Note_on_c, 0, 67, 96
2, 17920, Note_off_c, 0, 67, 0
2, 17920, Note_on_c, 0, 66, 96
2, 18176, Note_off_c, 0, 66, 0
2, 18176, Note_on_c, 0, 69, 96
2, 18432, Note_off_c, 0, 69, 0
2, 18432, Note_on_c, 0, 67, 96
2, 18688, Note_off_c, 0, 67, 0
2, 18688, Note_on_c, 0, 64, 96
2, 18944, Note_off_c, 0, 64, 0
2, 18944, Note_on_c, 0, 66, 96
2, 19200, Note_off_c, 0, 66, 0
2, 19200, Note_on_c, 0, 67, 96
2, 19456, Note_off_c, 0, 67, 0
2, 19456, Note_on_c, 0, 66, 96
2, 19712, Note_off_c, 0, 66, 0
2, 19712, Note_on_c, 0, 67, 96
2, 19968, Note_off_c, 0, 67, 0
2, 19968, Note_on_c, 0, 69, 96
2, 20224, Note_off_c, 0, 69, 0
2, 20224, Note_on_c, 0, 66, 96
2, 20480, Note_off_c, 0, 66, 0
2, 20480, Note_on_c, 0, 67, 96
2, 20992, Note_off_c, 0, 67, 0
2, 20992, Note_on_c, 0, 71, 96
2, 21504, Note_off_c, 0, 71, 0
2, 21504, Note_on_c, 0, 59, 96
2, 22016, Note_off_c, 0, 59, 0
2, 22016, Note_on_c, 0, 63, 96
2, 22528, Note_off_c, 0, 63, 0
2, 22528, Note_on_c, 0, 64, 96
2, 23552, Note_off_c, 0, 64, 0
2, 24832, Note_on_c, 0, 71, 96
2, 25088, Note_off_c, 0, 71, 0
2, 25088, Note_on_c, 0, 69, 96
2, 25344, Note_off_c, 0, 69, 0
2, 25344, Note_on_c, 0, 67, 96
2, 25600, Note_off_c, 0, 67, 0
2, 25600, Note_on_c, 0, 69, 96
2, 25856, Note_off_c, 0, 69, 0
2, 25856, Note_on_c, 0, 67, 96
2, 26112, Note_off_c, 0, 67, 0
2, 26112, Note_on_c, 0, 66, 96
2, 26368, Note_off_c, 0, 66, 0
2, 26368, Note_on_c, 0, 69, 96
2, 26624, Note_off_c, 0, 69, 0
2, 26624, Note_on_c, 0, 67, 96
2, 27136, Note_off_c, 0, 67, 0
2, 27136, Note_on_c, 0, 67, 96
2, 28160, Note_off_c, 0, 67, 0
2, 28160, Note_on_c, 0, 66, 96
2, 28416, Note_off_c, 0, 66, 0
2, 28416, Note_on_c, 0, 64, 96
2, 28672, Note_off_c, 0, 64, 0
2, 28672, Note_on_c, 0, 66, 96
2, 28928, Note_off_c, 0, 66, 0
2, 28928, Note_on_c, 0, 64, 96
2, 29184, Note_off_c, 0, 64, 0
2, 29184, Note_on_c, 0, 66, 96
2, 29440, Note_off_c, 0, 66, 0
2, 29440, Note_on_c, 0, 67, 96
2, 29696, Note_off_c, 0, 67, 0
2, 29696, Note_on_c, 0, 66, 96
2, 29952, Note_off_c, 0, 66, 0
2, 29952, Note_on_c, 0, 67, 96
2, 30208, Note_off_c, 0, 67, 0
2, 30208, Note_on_c, 0, 69, 96
2, 30464, Note_off_c, 0, 69, 0
2, 30464, Note_on_c, 0, 66, 96
2, 30720, Note_off_c, 0, 66, 0
2, 30720, Note_on_c, 0, 67, 96
2, 30976, Note_off_c, 0, 67, 0
2, 30976, Note_on_c, 0, 66, 96
2, 31232, Note_off_c, 0, 66, 0
2, 31232, Note_on_c, 0, 67, 96
2, 31488, Note_off_c, 0, 67, 0
2, 31488, Note_on_c, 0, 69, 96
2, 31744, Note_off_c, 0, 69, 0
2, 31744, Note_on_c, 0, 67, 96
2, 32000, Note_off_c, 0, 67, 0
2, 32000, Note_on_c, 0, 69, 96
2, 32256, Note_off_c, 0, 69, 0
2, 32256, Note_on_c, 0, 71, 96
2, 32512, Note_off_c, 0, 71, 0
2, 32512, Note_on_c, 0, 67, 96
2, 32768, Note_off_c, 0, 67, 0
2, 32768, Note_on_c, 0, 69, 96
2, 33024, Note_off_c, 0, 69, 0
2, 33024, Note_on_c, 0, 67, 96
2, 33280, Note_off_c, 0, 67, 0
2, 33280, Note_on_c, 0, 69, 96
2, 33536, Note_off_c, 0, 69, 0
2, 33536, Note_on_c, 0, 71, 96
2, 33792, Note_off_c, 0, 71, 0
2, 33792, Note_on_c, 0, 69, 96
2, 34048, Note_off_c, 0, 69, 0
2, 34048, Note_on_c, 0, 71, 96
2, 34304, Note_off_c, 0, 71, 0
2, 34304, Note_on_c, 0, 72, 96
2, 34560, Note_off_c, 0, 72, 0
2, 34560, Note_on_c, 0, 69, 96
2, 34816, Note_off_c, 0, 69, 0
2, 34816, Note_on_c, 0, 71, 96
2, 35328, Note_off_c, 0, 71, 0
2, 35328, Note_on_c, 0, 76, 96
2, 35840, Note_off_c, 0, 76, 0
2, 35840, Note_on_c, 0, 66, 96
2, 36352, Note_off_c, 0, 66, 0
2, 36352, Note_on_c, 0, 75, 96
2, 36864, Note_off_c, 0, 75, 0
2, 36864, Note_on_c, 0, 76, 96
2, 37120, Note_off_c, 0, 76, 0
2, 37120, Note_on_c, 0, 64, 96
2, 37376, Note_off_c, 0, 64, 0
2, 37376, Note_on_c, 0, 66, 96
2, 37632, Note_off_c, 0, 66, 0
2, 37632, Note_on_c, 0, 67, 96
2, 37888, Note_off_c, 0, 67, 0
2, 37888, Note_on_c, 0, 66, 96
2, 38144, Note_off_c, 0, 66, 0
2, 38144, Note_on_c, 0, 67, 96
2, 38400, Note_off_c, 0, 67, 0
2, 38400, Note_on_c, 0, 69, 96
2, 38656, Note_off_c, 0, 69, 0
2, 38656, Note_on_c, 0, 66, 96
2, 38912, Note_off_c, 0, 66, 0
2, 38912, Note_on_c, 0, 67, 96
2, 39424, Note_off_c, 0, 67, 0
2, 39424, Note_on_c, 0, 71, 96
2, 39936, Note_off_c, 0, 71, 0
2, 39936, Note_on_c, 0, 76, 96
2, 41216, Note_off_c, 0, 76, 0
2, 41216, Note_on_c, 0, 73, 96
2, 41472, Note_off_c, 0, 73, 0
2, 41472, Note_on_c, 0, 74, 96
2, 41728, Note_off_c, 0, 74, 0
2, 41728, Note_on_c, 0, 76, 96
2, 41984, Note_off_c, 0, 76, 0
2, 41984, Note_on_c, 0, 66, 96
2, 42240, Note_off_c, 0, 66, 0
2, 42240, Note_on_c, 0, 68, 96
2, 42496, Note_off_c, 0, 68, 0
2, 42496, Note_on_c, 0, 70, 96
2, 42752, Note_off_c, 0, 70, 0
2, 42752, Note_on_c, 0, 66, 96
2, 43008, Note_off_c, 0, 66, 0
2, 43008, Note_on_c, 0, 74, 96
2, 43264, Note_off_c, 0, 74, 0
2, 43264, Note_on_c, 0, 71, 96
2, 43520, Note_off_c, 0, 71, 0
2, 43520, Note_on_c, 0, 73, 96
2, 43776, Note_off_c, 0, 73, 0
2, 43776, Note_on_c, 0, 74, 96
2, 44032, Note_off_c, 0, 74, 0
2, 44032, Note_on_c, 0, 64, 96
2, 44288, Note_off_c, 0, 64, 0
2, 44288, Note_on_c, 0, 66, 96
2, 44544, Note_off_c, 0, 66, 0
2, 44544, Note_on_c, 0, 67, 96
2, 44800, Note_off_c, 0, 67, 0
2, 44800, Note_on_c, 0, 64, 96
2, 45056, Note_off_c, 0, 64, 0
2, 45056, Note_on_c, 0, 73, 96
2, 45312, Note_off_c, 0, 73, 0
2, 45312, Note_on_c, 0, 70, 96
2, 45568, Note_off_c, 0, 70, 0
2, 45568, Note_on_c, 0, 71, 96
2, 45824, Note_off_c, 0, 71, 0
2, 45824, Note_on_c, 0, 73, 96
2, 46080, Note_off_c, 0, 73, 0
2, 46080, Note_on_c, 0, 62, 96
2, 46336, Note_off_c, 0, 62, 0
2, 46336, Note_on_c, 0, 64, 96
2, 46592, Note_off_c, 0, 64, 0
2, 46592, Note_on_c, 0, 66, 96
2, 46848, Note_off_c, 0, 66, 0
2, 46848, Note_on_c, 0, 62, 96
2, 47104, Note_off_c, 0, 62, 0
2, 47104, Note_on_c, 0, 71, 96
2, 49408, Note_off_c, 0, 71, 0
2, 49408, Note_on_c, 0, 66, 96
2, 49664, Note_off_c, 0, 66, 0
2, 49664, Note_on_c, 0, 64, 96
2, 49920, Note_off_c, 0, 64, 0
2, 49920, Note_on_c, 0, 62, 96
2, 50176, Note_off_c, 0, 62, 0
2, 50176, Note_on_c, 0, 64, 96
2, 50432, Note_off_c, 0, 64, 0
2, 50432, Note_on_c, 0, 62, 96
2, 50688, Note_off_c, 0, 62, 0
2, 50688, Note_on_c, 0, 61, 96
2, 50944, Note_off_c, 0, 61, 0
2, 50944, Note_on_c, 0, 64, 96
2, 51200, Note_off_c, 0, 64, 0
2, 51200, Note_on_c, 0, 62, 96
2, 51456, Note_off_c, 0, 62, 0
2, 51456, Note_on_c, 0, 59, 96
2, 51712, Note_off_c, 0, 59, 0
2, 51712, Note_on_c, 0, 61, 96
2, 51968, Note_off_c, 0, 61, 0
2, 51968, Note_on_c, 0, 62, 96
2, 52224, Note_off_c, 0, 62, 0
2, 52224, Note_on_c, 0, 61, 96
2, 52480, Note_off_c, 0, 61, 0
2, 52480, Note_on_c, 0, 62, 96
2, 52736, Note_off_c, 0, 62, 0
2, 52736, Note_on_c, 0, 64, 96
2, 52992, Note_off_c, 0, 64, 0
2, 52992, Note_on_c, 0, 61, 96
2, 53248, Note_off_c, 0, 61, 0
2, 53248, Note_on_c, 0, 62, 96
2, 53760, Note_off_c, 0, 62, 0
2, 53760, Note_on_c, 0, 71, 96
2, 54272, Note_off_c, 0, 71, 0
2, 54272, Note_on_c, 0, 61, 96
2, 54784, Note_off_c, 0, 61, 0
2, 54784, Note_on_c, 0, 70, 96
2, 55296, Note_off_c, 0, 70, 0
2, 55296, Note_on_c, 0, 59, 96
2, 55552, Note_off_c, 0, 59, 0
2, 55552, Note_on_c, 0, 71, 96
2, 55808, Note_off_c, 0, 71, 0
2, 55808, Note_on_c, 0, 69, 96
2, 56064, Note_off_c, 0, 69, 0
2, 56064, Note_on_c, 0, 67, 96
2, 56320, Note_off_c, 0, 67, 0
2, 56320, Note_on_c, 0, 69, 96
2, 56576, Note_off_c, 0, 69, 0
2, 56576, Note_on_c, 0, 67, 96
2, 56832, Note_off_c, 0, 67, 0
2, 56832, Note_on_c, 0, 66, 96
2, 57088, Note_off_c, 0, 66, 0
2, 57088, Note_on_c, 0, 69, 96
2, 57344, Note_off_c, 0, 69, 0
2, 57344, Note_on_c, 0, 67, 96
2, 57856, Note_off_c, 0, 67, 0
2, 57856, Note_on_c, 0, 64, 96
2, 58368, Note_off_c, 0, 64, 0
2, 59648, Note_on_c, 0, 69, 96
2, 59904, Note_off_c, 0, 69, 0
2, 59904, Note_on_c, 0, 67, 96
2, 60160, Note_off_c, 0, 67, 0
2, 60160, Note_on_c, 0, 66, 96
2, 60416, Note_off_c, 0, 66, 0
2, 60416, Note_on_c, 0, 67, 96
2, 60672, Note_off_c, 0, 67, 0
2, 60672, Note_on_c, 0, 66, 96
2, 60928, Note_off_c, 0, 66, 0
2, 60928, Note_on_c, 0, 64, 96
2, 61184, Note_off_c, 0, 64, 0
2, 61184, Note_on_c, 0, 67, 96
2, 61440, Note_off_c, 0, 67, 0
2, 61440, Note_on_c, 0, 60, 96
2, 61696, Note_off_c, 0, 60, 0
2, 61696, Note_on_c, 0, 71, 96
2, 61952, Note_off_c, 0, 71, 0
2, 61952, Note_on_c, 0, 69, 96
2, 62208, Note_off_c, 0, 69, 0
2, 62208, Note_on_c, 0, 67, 96
2, 62464, Note_off_c, 0, 67, 0
2, 62464, Note_on_c, 0, 69, 96
2, 62720, Note_off_c, 0, 69, 0
2, 62720, Note_on_c, 0, 67, 96
2, 62976, Note_off_c, 0, 67, 0
2, 62976, Note_on_c, 0, 66, 96
2, 63232, Note_off_c, 0, 66, 0
2, 63232, Note_on_c, 0, 69, 96
2, 63488, Note_off_c, 0, 69, 0
2, 63488, Note_on_c, 0, 63, 96
2, 63744, Note_off_c, 0, 63, 0
2, 63744, Note_on_c, 0, 72, 96
2, 64000, Note_off_c, 0, 72, 0
2, 64000, Note_on_c, 0, 71, 96
2, 64256, Note_off_c, 0, 71, 0
2, 64256, Note_on_c, 0, 69, 96
2, 64512, Note_off_c, 0, 69, 0
2, 64512, Note_on_c, 0, 71, 96
2, 64768, Note_off_c, 0, 71, 0
2, 64768, Note_on_c, 0, 69, 96
2, 65024, Note_off_c, 0, 69, 0
2, 65024, Note_on_c, 0, 67, 96
2, 65280, Note_off_c, 0, 67, 0
2, 65280, Note_on_c, 0, 71, 96
2, 65536, Note_off_c, 0, 71, 0
2, 65536, Note_on_c, 0, 64, 96
2, 65792, Note_off_c, 0, 64, 0
2, 65792, Note_on_c, 0, 74, 96
2, 66048, Note_off_c, 0, 74, 0
2, 66048, Note_on_c, 0, 72, 96
2, 66304, Note_off_c, 0, 72, 0
2, 66304, Note_on_c, 0, 71, 96
2, 66560, Note_off_c, 0, 71, 0
2, 66560, Note_on_c, 0, 72, 96
2, 66816, Note_off_c, 0, 72, 0
2, 66816, Note_on_c, 0, 71, 96
2, 67072, Note_off_c, 0, 71, 0
2, 67072, Note_on_c, 0, 69, 96
2, 67328, Note_off_c, 0, 69, 0
2, 67328, Note_on_c, 0, 72, 96
2, 67584, Note_off_c, 0, 72, 0
2, 67584, Note_on_c, 0, 66, 96
2, 67840, Note_off_c, 0, 66, 0
2, 67840, Note_on_c, 0, 76, 96
2, 68096, Note_off_c, 0, 76, 0
2, 68096, Note_on_c, 0, 74, 96
2, 68352, Note_off_c, 0, 74, 0
2, 68352, Note_on_c, 0, 72, 96
2, 68608, Note_off_c, 0, 72, 0
2, 68608, Note_on_c, 0, 74, 96
2, 68864, Note_off_c, 0, 74, 0
2, 68864, Note_on_c, 0, 72, 96
2, 69120, Note_off_c, 0, 72, 0
2, 69120, Note_on_c, 0, 71, 96
2, 69376, Note_off_c, 0, 71, 0
2, 69376, Note_on_c, 0, 74, 96
2, 69632, Note_off_c, 0, 74, 0
2, 69632, Note_on_c, 0, 64, 96
2, 70144, Note_off_c, 0, 64, 0
2, 70144, Note_on_c, 0, 67, 96
2, 71168, Note_off_c, 0, 67, 0
2, 71168, Note_on_c, 0, 66, 96
2, 71424, Note_off_c, 0, 66, 0
2, 71424, Note_on_c, 0, 64, 96
2, 71680, Note_off_c, 0, 64, 0
2, 71680, Note_on_c, 0, 66, 96
2, 72192, Note_off_c, 0, 66, 0
2, 72192, Note_on_c, 0, 75, 96
2, 72704, Note_off_c, 0, 75, 0
2, 72704, Note_on_c, 0, 76, 96
2, 73216, Note_off_c, 0, 76, 0
2, 73216, Note_on_c, 0, 67, 96
2, 74240, Note_off_c, 0, 67, 0
2, 74240, Note_on_c, 0, 76, 96
2, 74752, Note_off_c, 0, 76, 0
2, 74752, Note_on_c, 0, 74, 96
2, 75264, Note_off_c, 0, 74, 0
2, 75264, Note_on_c, 0, 66, 96
2, 75776, Note_off_c, 0, 66, 0
2, 75776, Note_on_c, 0, 67, 96
2, 76032, Note_off_c, 0, 67, 0
2, 76032, Note_on_c, 0, 74, 96
2, 76288, Note_off_c, 0, 74, 0
2, 76288, Note_on_c, 0, 72, 96
2, 76544, Note_off_c, 0, 72, 0
2, 76544, Note_on_c, 0, 71, 96
2, 76800, Note_off_c, 0, 71, 0
2, 76800, Note_on_c, 0, 72, 96
2, 77056, Note_off_c, 0, 72, 0
2, 77056, Note_on_c, 0, 71, 96
2, 77312, Note_off_c, 0, 71, 0
2, 77312, Note_on_c, 0, 69, 96
2, 77568, Note_off_c, 0, 69, 0
2, 77568, Note_on_c, 0, 72, 96
2, 77824, Note_off_c, 0, 72, 0
2, 77824, Note_on_c, 0, 71, 96
2, 78336, Note_off_c, 0, 71, 0
2, 78336, Note_on_c, 0, 67, 96
2, 79360, Note_off_c, 0, 67, 0
2, 79360, Note_on_c, 0, 66, 96
2, 79872, Note_off_c, 0, 66, 0
2, 79872, Note_on_c, 0, 67, 96
2, 80128, Note_off_c, 0, 67, 0
2, 80128, Note_on_c, 0, 55, 96
2, 80384, Note_off_c, 0, 55, 0
2, 80384, Note_on_c, 0, 57, 96
2, 80640, Note_off_c, 0, 57, 0
2, 80640, Note_on_c, 0, 59, 96
2, 80896, Note_off_c, 0, 59, 0
2, 80896, Note_on_c, 0, 57, 96
2, 81152, Note_off_c, 0, 57, 0
2, 81152, Note_on_c, 0, 59, 96
2, 81408, Note_off_c, 0, 59, 0
2, 81408, Note_on_c, 0, 60, 96
2, 81664, Note_off_c, 0, 60, 0
2, 81664, Note_on_c, 0, 57, 96
2, 81920, Note_off_c, 0, 57, 0
2, 81920, Note_on_c, 0, 59, 96
2, 82176, Note_off_c, 0, 59, 0
2, 82176, Note_on_c, 0, 71, 96
2, 82432, Note_off_c, 0, 71, 0
2, 82432, Note_on_c, 0, 72, 96
2, 82688, Note_off_c, 0, 72, 0
2, 82688, Note_on_c, 0, 74, 96
2, 82944, Note_off_c, 0, 74, 0
2, 82944, Note_on_c, 0, 67, 96
2, 83200, Note_off_c, 0, 67, 0
2, 83200, Note_on_c, 0, 69, 96
2, 83456, Note_off_c, 0, 69, 0
2, 83456, Note_on_c, 0, 71, 96
2, 83712, Note_off_c, 0, 71, 0
2, 83712, Note_on_c, 0, 67, 96
2, 83968, Note_off_c, 0, 67, 0
2, 83968, Note_on_c, 0, 76, 96
2, 84224, Note_off_c, 0, 76, 0
2, 84224, Note_on_c, 0, 69, 96
2, 84480, Note_off_c, 0, 69, 0
2, 84480, Note_on_c, 0, 71, 96
2, 84736, Note_off_c, 0, 71, 0
2, 84736, Note_on_c, 0, 72, 96
2, 84992, Note_off_c, 0, 72, 0
2, 84992, Note_on_c, 0, 66, 96
2, 85248, Note_off_c, 0, 66, 0
2, 85248, Note_on_c, 0, 67, 96
2, 85504, Note_off_c, 0, 67, 0
2, 85504, Note_on_c, 0, 69, 96
2, 85760, Note_off_c, 0, 69, 0
2, 85760, Note_on_c, 0, 66, 96
2, 86016, Note_off_c, 0, 66, 0
2, 86016, Note_on_c, 0, 74, 96
2, 86272, Note_off_c, 0, 74, 0
2, 86272, Note_on_c, 0, 67, 96
2, 86528, Note_off_c, 0, 67, 0
2, 86528, Note_on_c, 0, 69, 96
2, 86784, Note_off_c, 0, 69, 0
2, 86784, Note_on_c, 0, 71, 96
2, 87040, Note_off_c, 0, 71, 0
2, 87040, Note_on_c, 0, 64, 96
2, 87296, Note_off_c, 0, 64, 0
2, 87296, Note_on_c, 0, 66, 96
2, 87552, Note_off_c, 0, 66, 0
2, 87552, Note_on_c, 0, 67, 96
2, 87808, Note_off_c, 0, 67, 0
2, 87808, Note_on_c, 0, 64, 96
2, 88064, Note_off_c, 0, 64, 0
2, 88064, Note_on_c, 0, 72, 96
2, 90368, Note_off_c, 0, 72, 0
2, 90368, Note_on_c, 0, 74, 96
2, 90624, Note_off_c, 0, 74, 0
2, 90624, Note_on_c, 0, 72, 96
2, 90880, Note_off_c, 0, 72, 0
2, 90880, Note_on_c, 0, 71, 96
2, 91136, Note_off_c, 0, 71, 0
2, 91136, Note_on_c, 0, 72, 96
2, 91392, Note_off_c, 0, 72, 0
2, 91392, Note_on_c, 0, 71, 96
2, 91648, Note_off_c, 0, 71, 0
2, 91648, Note_on_c, 0, 69, 96
2, 91904, Note_off_c, 0, 69, 0
2, 91904, Note_on_c, 0, 72, 96
2, 92160, Note_off_c, 0, 72, 0
2, 92160, Note_on_c, 0, 71, 96
2, 92416, Note_off_c, 0, 71, 0
2, 92416, Note_on_c, 0, 67, 96
2, 92672, Note_off_c, 0, 67, 0
2, 92672, Note_on_c, 0, 69, 96
2, 92928, Note_off_c, 0, 69, 0
2, 92928, Note_on_c, 0, 71, 96
2, 93184, Note_off_c, 0, 71, 0
2, 93184, Note_on_c, 0, 69, 96
2, 93440, Note_off_c, 0, 69, 0
2, 93440, Note_on_c, 0, 71, 96
2, 93696, Note_off_c, 0, 71, 0
2, 93696, Note_on_c, 0, 72, 96
2, 93952, Note_off_c, 0, 72, 0
2, 93952, Note_on_c, 0, 69, 96
2, 94208, Note_off_c, 0, 69, 0
2, 94208, Note_on_c, 0, 71, 96
2, 94720, Note_off_c, 0, 71, 0
2, 94720, Note_on_c, 0, 74, 96
2, 95232, Note_off_c, 0, 74, 0
2, 95232, Note_on_c, 0, 62, 96
2, 95744, Note_off_c, 0, 62, 0
2, 95744, Note_on_c, 0, 66, 96
2, 96256, Note_off_c, 0, 66, 0
2, 96256, Note_on_c, 0, 67, 96
2, 97280, Note_off_c, 0, 67, 0
2, 98560, Note_on_c, 0, 69, 96
2, 98816, Note_off_c, 0, 69, 0
2, 98816, Note_on_c, 0, 67, 96
2, 99072, Note_off_c, 0, 67, 0
2, 99072, Note_on_c, 0, 66, 96
2, 99328, Note_off_c, 0, 66, 0
2, 99328, Note_on_c, 0, 67, 96
2, 99584, Note_off_c, 0, 67, 0
2, 99584, Note_on_c, 0, 66, 96
2, 99840, Note_off_c, 0, 66, 0
2, 99840, Note_on_c, 0, 64, 96
2, 100096, Note_off_c, 0, 64, 0
2, 100096, Note_on_c, 0, 67, 96
2, 100352, Note_off_c, 0, 67, 0
2, 100352, Note_on_c, 0, 66, 96
2, 100864, Note_off_c, 0, 66, 0
2, 100864, Note_on_c, 0, 75, 96
2, 101376, Note_off_c, 0, 75, 0
2, 101376, Note_on_c, 0, 76, 96
2, 101888, Note_off_c, 0, 76, 0
2, 101888, Note_on_c, 0, 67, 96
2, 102656, Note_off_c, 0, 67, 0
2, 102656, Note_on_c, 0, 69, 96
2, 102912, Note_off_c, 0, 69, 0
2, 102912, Note_on_c, 0, 67, 96
2, 103168, Note_off_c, 0, 67, 0
2, 103168, Note_on_c, 0, 66, 96
2, 103424, Note_off_c, 0, 66, 0
2, 103424, Note_on_c, 0, 67, 96
2, 103680, Note_off_c, 0, 67, 0
2, 103680, Note_on_c, 0, 66, 96
2, 103936, Note_off_c, 0, 66, 0
2, 103936, Note_on_c, 0, 64, 96
2, 104192, Note_off_c, 0, 64, 0
2, 104192, Note_on_c, 0, 67, 96
2, 104448, Note_off_c, 0, 67, 0
2, 104448, Note_on_c, 0, 66, 96
2, 104960, Note_off_c, 0, 66, 0
2, 104960, Note_on_c, 0, 74, 96
2, 105984, Note_off_c, 0, 74, 0
2, 105984, Note_on_c, 0, 73, 96
2, 106496, Note_off_c, 0, 73, 0
2, 106496, Note_on_c, 0, 74, 96
2, 106752, Note_off_c, 0, 74, 0
2, 106752, Note_on_c, 0, 62, 96
2, 107008, Note_off_c, 0, 62, 0
2, 107008, Note_on_c, 0, 64, 96
2, 107264, Note_off_c, 0, 64, 0
2, 107264, Note_on_c, 0, 66, 96
2, 107520, Note_off_c, 0, 66, 0
2, 107520, Note_on_c, 0, 64, 96
2, 107776, Note_off_c, 0, 64, 0
2, 107776, Note_on_c, 0, 66, 96
2, 108032, Note_off_c, 0, 66, 0
2, 108032, Note_on_c, 0, 67, 96
2, 108288, Note_off_c, 0, 67, 0
2, 108288, Note_on_c, 0, 64, 96
2, 108544, Note_off_c, 0, 64, 0
2, 108544, Note_on_c, 0, 66, 96
2, 108800, Note_off_c, 0, 66, 0
2, 108800, Note_on_c, 0, 74, 96
2, 109056, Note_off_c, 0, 74, 0
2, 109056, Note_on_c, 0, 72, 96
2, 109312, Note_off_c, 0, 72, 0
2, 109312, Note_on_c, 0, 71, 96
2, 109568, Note_off_c, 0, 71, 0
2, 109568, Note_on_c, 0, 72, 96
2, 109824, Note_off_c, 0, 72, 0
2, 109824, Note_on_c, 0, 71, 96
2, 110080, Note_off_c, 0, 71, 0
2, 110080, Note_on_c, 0, 69, 96
2, 110336, Note_off_c, 0, 69, 0
2, 110336, Note_on_c, 0, 72, 96
2, 110592, Note_off_c, 0, 72, 0
2, 110592, Note_on_c, 0, 71, 96
2, 110848, Note_off_c, 0, 71, 0
2, 110848, Note_on_c, 0, 64, 96
2, 111104, Note_off_c, 0, 64, 0
2, 111104, Note_on_c, 0, 66, 96
2, 111360, Note_off_c, 0, 66, 0
2, 111360, Note_on_c, 0, 67, 96
2, 111616, Note_off_c, 0, 67, 0
2, 111616, Note_on_c, 0, 66, 96
2, 111872, Note_off_c, 0, 66, 0
2, 111872, Note_on_c, 0, 67, 96
2, 112128, Note_off_c, 0, 67, 0
2, 112128, Note_on_c, 0, 69, 96
2, 112384, Note_off_c, 0, 69, 0
2, 112384, Note_on_c, 0, 66, 96
2, 112640, Note_off_c, 0, 66, 0
2, 112640, Note_on_c, 0, 67, 96
2, 113152, Note_off_c, 0, 67, 0
2, 113152, Note_on_c, 0, 59, 96
2, 113664, Note_off_c, 0, 59, 0
2, 113664, Note_on_c, 0, 64, 96
2, 114944, Note_off_c, 0, 64, 0
2, 114944, Note_on_c, 0, 71, 96
2, 115200, Note_off_c, 0, 71, 0
2, 115200, Note_on_c, 0, 69, 96
2, 115456, Note_off_c, 0, 69, 0
2, 115456, Note_on_c, 0, 67, 96
2, 115712, Note_off_c, 0, 67, 0
2, 115712, Note_on_c, 0, 69, 96
2, 115968, Note_off_c, 0, 69, 0
2, 115968, Note_on_c, 0, 67, 96
2, 116224, Note_off_c, 0, 67, 0
2, 116224, Note_on_c, 0, 66, 96
2, 116480, Note_off_c, 0, 66, 0
2, 116480, Note_on_c, 0, 69, 96
2, 116736, Note_off_c, 0, 69, 0
2, 116736, Note_on_c, 0, 67, 96
2, 117248, Note_off_c, 0, 67, 0
2, 117248, Note_on_c, 0, 76, 96
2, 118272, Note_off_c, 0, 76, 0
2, 118272, Note_on_c, 0, 74, 96
2, 118528, Note_off_c, 0, 74, 0
2, 118528, Note_on_c, 0, 72, 96
2, 118784, Note_off_c, 0, 72, 0
2, 118784, Note_on_c, 0, 71, 96
2, 119040, Note_off_c, 0, 71, 0
2, 119040, Note_on_c, 0, 64, 96
2, 119296, Note_off_c, 0, 64, 0
2, 119296, Note_on_c, 0, 66, 96
2, 119552, Note_off_c, 0, 66, 0
2, 119552, Note_on_c, 0, 67, 96
2, 119808, Note_off_c, 0, 67, 0
2, 119808, Note_on_c, 0, 60, 96
2, 120064, Note_off_c, 0, 60, 0
2, 120064, Note_on_c, 0, 62, 96
2, 120320, Note_off_c, 0, 62, 0
2, 120320, Note_on_c, 0, 64, 96
2, 120576, Note_off_c, 0, 64, 0
2, 120576, Note_on_c, 0, 60, 96
2, 120832, Note_off_c, 0, 60, 0
2, 120832, Note_on_c, 0, 69, 96
2, 121088, Note_off_c, 0, 69, 0
2, 121088, Note_on_c, 0, 62, 96
2, 121344, Note_off_c, 0, 62, 0
2, 121344, Note_on_c, 0, 64, 96
2, 121600, Note_off_c, 0, 64, 0
2, 121600, Note_on_c, 0, 66, 96
2, 121856, Note_off_c, 0, 66, 0
2, 121856, Note_on_c, 0, 59, 96
2, 122112, Note_off_c, 0, 59, 0
2, 122112, Note_on_c, 0, 60, 96
2, 122368, Note_off_c, 0, 60, 0
2, 122368, Note_on_c, 0, 62, 96
2, 122624, Note_off_c, 0, 62, 0
2, 122624, Note_on_c, 0, 59, 96
2, 122880, Note_off_c, 0, 59, 0
2, 122880, Note_on_c, 0, 67, 96
2, 123136, Note_off_c, 0, 67, 0
2, 123136, Note_on_c, 0, 60, 96
2, 123392, Note_off_c, 0, 60, 0
2, 123392, Note_on_c, 0, 62, 96
2, 123648, Note_off_c, 0, 62, 0
2, 123648, Note_on_c, 0, 64, 96
2, 123904, Note_off_c, 0, 64, 0
2, 123904, Note_on_c, 0, 57, 96
2, 124160, Note_off_c, 0, 57, 0
2, 124160, Note_on_c, 0, 59, 96
2, 124416, Note_off_c, 0, 59, 0
2, 124416, Note_on_c, 0, 60, 96
2, 124672, Note_off_c, 0, 60, 0
2, 124672, Note_on_c, 0, 57, 96
2, 124928, Note_off_c, 0, 57, 0
2, 124928, Note_on_c, 0, 66, 96
2, 127232, Note_off_c, 0, 66, 0
2, 127232, Note_on_c, 0, 71, 96
2, 127488, Note_off_c, 0, 71, 0
2, 127488, Note_on_c, 0, 69, 96
2, 127744, Note_off_c, 0, 69, 0
2, 127744, Note_on_c, 0, 67, 96
2, 128000, Note_off_c, 0, 67, 0
2, 128000, Note_on_c, 0, 69, 96
2, 128256, Note_off_c, 0, 69, 0
2, 128256, Note_on_c, 0, 67, 96
2, 128512, Note_off_c, 0, 67, 0
2, 128512, Note_on_c, 0, 66, 96
2, 128768, Note_off_c, 0, 66, 0
2, 128768, Note_on_c, 0, 69, 96
2, 129024, Note_off_c, 0, 69, 0
2, 129024, Note_on_c, 0, 67, 96
2, 129280, Note_off_c, 0, 67, 0
2, 129280, Note_on_c, 0, 64, 96
2, 129536, Note_off_c, 0, 64, 0
2, 129536, Note_on_c, 0, 66, 96
2, 129792, Note_off_c, 0, 66, 0
2, 129792, Note_on_c, 0, 67, 96
2, 130048, Note_off_c, 0, 67, 0
2, 130048, Note_on_c, 0, 66, 96
2, 130304, Note_off_c, 0, 66, 0
2, 130304, Note_on_c, 0, 67, 96
2, 130560, Note_off_c, 0, 67, 0
2, 130560, Note_on_c, 0, 69, 96
2, 130816, Note_off_c, 0, 69, 0
2, 130816, Note_on_c, 0, 66, 96
2, 131072, Note_off_c, 0, 66, 0
2, 131072, Note_on_c, 0, 67, 96
2, 131584, Note_off_c, 0, 67, 0
2, 131584, Note_on_c, 0, 71, 96
2, 132096, Note_off_c, 0, 71, 0
2, 132096, Note_on_c, 0, 59, 96
2, 132608, Note_off_c, 0, 59, 0
2, 132608, Note_on_c, 0, 63, 96
2, 133120, Note_off_c, 0, 63, 0
2, 133120, Note_on_c, 0, 64, 96
2, 137216, Note_off_c, 0, 64, 0
2, 137216, End_track
3, 0, Start_track
3, 0, Title_t, "Instrument 2"
3, 0, Note_on_c, 1, 52, 96
3, 512, Note_off_c, 1, 52, 0
3, 512, Note_on_c, 1, 40, 96
3, 1024, Note_off_c, 1, 40, 0
3, 2304, Note_on_c, 1, 52, 96
3, 2560, Note_off_c, 1, 52, 0
3, 2560, Note_on_c, 1, 54, 96
3, 2816, Note_off_c, 1, 54, 0
3, 2816, Note_on_c, 1, 55, 96
3, 3072, Note_off_c, 1, 55, 0
3, 3072, Note_on_c, 1, 54, 96
3, 3328, Note_off_c, 1, 54, 0
3, 3328, Note_on_c, 1, 55, 96
3, 3584, Note_off_c, 1, 55, 0
3, 3584, Note_on_c, 1, 57, 96
3, 3840, Note_off_c, 1, 57, 0
3, 3840, Note_on_c, 1, 54, 96
3, 4096, Note_off_c, 1, 54, 0
3, 4096, Note_on_c, 1, 55, 96
3, 4608, Note_off_c, 1, 55, 0
3, 4608, Note_on_c, 1, 64, 96
3, 5632, Note_off_c, 1, 64, 0
3, 5632, Note_on_c, 1, 63, 96
3, 6144, Note_off_c, 1, 63, 0
3, 6144, Note_on_c, 1, 64, 96
3, 6400, Note_off_c, 1, 64, 0
3, 6400, Note_on_c, 1, 59, 96
3, 6656, Note_off_c, 1, 59, 0
3, 6656, Note_on_c, 1, 57, 96
3, 6912, Note_off_c, 1, 57, 0
3, 6912, Note_on_c, 1, 55, 96
3, 7168, Note_off_c, 1, 55, 0
3, 7168, Note_on_c, 1, 57, 96
3, 7424, Note_off_c, 1, 57, 0
3, 7424, Note_on_c, 1, 55, 96
3, 7680, Note_off_c, 1, 55, 0
3, 7680, Note_on_c, 1, 54, 96
3, 7936, Note_off_c, 1, 54, 0
3, 7936, Note_on_c, 1, 57, 96
3, 8192, Note_off_c, 1, 57, 0
3, 8192, Note_on_c, 1, 55, 96
3, 8704, Note_off_c, 1, 55, 0
3, 8704, Note_on_c, 1, 52, 96
3, 9216, Note_off_c, 1, 52, 0
3, 9216, Note_on_c, 1, 57, 96
3, 9728, Note_off_c, 1, 57, 0
3, 9728, Note_on_c, 1, 55, 96
3, 10240, Note_off_c, 1, 55, 0
3, 10240, Note_on_c, 1, 54, 96
3, 10752, Note_off_c, 1, 54, 0
3, 10752, Note_on_c, 1, 50, 96
3, 11264, Note_off_c, 1, 50, 0
3, 11264, Note_on_c, 1, 55, 96
3, 11776, Note_off_c, 1, 55, 0
3, 11776, Note_on_c, 1, 54, 96
3, 12288, Note_off_c, 1, 54, 0
3, 12288, Note_on_c, 1, 52, 96
3, 12800, Note_off_c, 1, 52, 0
3, 12800, Note_on_c, 1, 48, 96
3, 13312, Note_off_c, 1, 48, 0
3, 13312, Note_on_c, 1, 54, 96
3, 13824, Note_off_c, 1, 54, 0
3, 13824, Note_on_c, 1, 52, 96
3, 14336, Note_off_c, 1, 52, 0
3, 14336, Note_on_c, 1, 51, 96
3, 14592, Note_off_c, 1, 51, 0
3, 14592, Note_on_c, 1, 59, 96
3, 14848, Note_off_c, 1, 59, 0
3, 14848, Note_on_c, 1, 57, 96
3, 15104, Note_off_c, 1, 57, 0
3, 15104, Note_on_c, 1, 55, 96
3, 15360, Note_off_c, 1, 55, 0
3, 15360, Note_on_c, 1, 57, 96
3, 15616, Note_off_c, 1, 57, 0
3, 15616, Note_on_c, 1, 55, 96
3, 15872, Note_off_c, 1, 55, 0
3, 15872, Note_on_c, 1, 54, 96
3, 16128, Note_off_c, 1, 54, 0
3, 16128, Note_on_c, 1, 57, 96
3, 16384, Note_off_c, 1, 57, 0
3, 16384, Note_on_c, 1, 55, 96
3, 16896, Note_off_c, 1, 55, 0
3, 16896, Note_on_c, 1, 64, 96
3, 17408, Note_off_c, 1, 64, 0
3, 17408, Note_on_c, 1, 54, 96
3, 17920, Note_off_c, 1, 54, 0
3, 17920, Note_on_c, 1, 63, 96
3, 18432, Note_off_c, 1, 63, 0
3, 18432, Note_on_c, 1, 64, 96
3, 18944, Note_off_c, 1, 64, 0
3, 18944, Note_on_c, 1, 52, 96
3, 19968, Note_off_c, 1, 52, 0
3, 19968, Note_on_c, 1, 51, 96
3, 20480, Note_off_c, 1, 51, 0
3, 20480, Note_on_c, 1, 52, 96
3, 20992, Note_off_c, 1, 52, 0
3, 20992, Note_on_c, 1, 55, 96
3, 21248, Note_off_c, 1, 55, 0
3, 21248, Note_on_c, 1, 57, 96
3, 21504, Note_off_c, 1, 57, 0
3, 21504, Note_on_c, 1, 59, 96
3, 22016, Note_off_c, 1, 59, 0
3, 22016, Note_on_c, 1, 47, 96
3, 22528, Note_off_c, 1, 47, 0
3, 22528, Note_on_c, 1, 52, 96
3, 22784, Note_off_c, 1, 52, 0
3, 22784, Note_on_c, 1, 59, 96
3, 23040, Note_off_c, 1, 59, 0
3, 23040, Note_on_c, 1, 57, 96
3, 23296, Note_off_c, 1, 57, 0
3, 23296, Note_on_c, 1, 55, 96
3, 23552, Note_off_c, 1, 55, 0
3, 23552, Note_on_c, 1, 57, 96
3, 23808, Note_off_c, 1, 57, 0
3, 23808, Note_on_c, 1, 55, 96
3, 24064, Note_off_c, 1, 55, 0
3, 24064, Note_on_c, 1, 54, 96
3, 24320, Note_off_c, 1, 54, 0
3, 24320, Note_on_c, 1, 57, 96
3, 24576, Note_off_c, 1, 57, 0
3, 24576, Note_on_c, 1, 55, 96
3, 25088, Note_off_c, 1, 55, 0
3, 25088, Note_on_c, 1, 52, 96
3, 26112, Note_off_c, 1, 52, 0
3, 26112, Note_on_c, 1, 51, 96
3, 26624, Note_off_c, 1, 51, 0
3, 26624, Note_on_c, 1, 52, 96
3, 26880, Note_off_c, 1, 52, 0
3, 26880, Note_on_c, 1, 47, 96
3, 27136, Note_off_c, 1, 47, 0
3, 27136, Note_on_c, 1, 49, 96
3, 27392, Note_off_c, 1, 49, 0
3, 27392, Note_on_c, 1, 51, 96
3, 27648, Note_off_c, 1, 51, 0
3, 27648, Note_on_c, 1, 49, 96
3, 27904, Note_off_c, 1, 49, 0
3, 27904, Note_on_c, 1, 51, 96
3, 28160, Note_off_c, 1, 51, 0
3, 28160, Note_on_c, 1, 52, 96
3, 28416, Note_off_c, 1, 52, 0
3, 28416, Note_on_c, 1, 49, 96
3, 28672, Note_off_c, 1, 49, 0
3, 28672, Note_on_c, 1, 51, 96
3, 29184, Note_off_c, 1, 51, 0
3, 29184, Note_on_c, 1, 59, 96
3, 29696, Note_off_c, 1, 59, 0
3, 29696, Note_on_c, 1, 51, 96
3, 30208, Note_off_c, 1, 51, 0
3, 30208, Note_on_c, 1, 47, 96
3, 30720, Note_off_c, 1, 47, 0
3, 30720, Note_on_c, 1, 52, 96
3, 31232, Note_off_c, 1, 52, 0
3, 31232, Note_on_c, 1, 60, 96
3, 31744, Note_off_c, 1, 60, 0
3, 31744, Note_on_c, 1, 52, 96
3, 32256, Note_off_c, 1, 52, 0
3, 32256, Note_on_c, 1, 48, 96
3, 32768, Note_off_c, 1, 48, 0
3, 32768, Note_on_c, 1, 54, 96
3, 33280, Note_off_c, 1, 54, 0
3, 33280, Note_on_c, 1, 62, 96
3, 33792, Note_off_c, 1, 62, 0
3, 33792, Note_on_c, 1, 54, 96
3, 34304, Note_off_c, 1, 54, 0
3, 34304, Note_on_c, 1, 50, 96
3, 34816, Note_off_c, 1, 50, 0
3, 34816, Note_on_c, 1, 55, 96
3, 35072, Note_off_c, 1, 55, 0
3, 35072, Note_on_c, 1, 59, 96
3, 35328, Note_off_c, 1, 59, 0
3, 35328, Note_on_c, 1, 57, 96
3, 35584, Note_off_c, 1, 57, 0
3, 35584, Note_on_c, 1, 55, 96
3, 35840, Note_off_c, 1, 55, 0
3, 35840, Note_on_c, 1, 57, 96
3, 36096, Note_off_c, 1, 57, 0
3, 36096, Note_on_c, 1, 55, 96
3, 36352, Note_off_c, 1, 55, 0
3, 36352, Note_on_c, 1, 54, 96
3, 36608, Note_off_c, 1, 54, 0
3, 36608, Note_on_c, 1, 57, 96
3, 36864, Note_off_c, 1, 57, 0
3, 36864, Note_on_c, 1, 55, 96
3, 37376, Note_off_c, 1, 55, 0
3, 37376, Note_on_c, 1, 64, 96
3, 38400, Note_off_c, 1, 64, 0
3, 38400, Note_on_c, 1, 63, 96
3, 38912, Note_off_c, 1, 63, 0
3, 38912, Note_on_c, 1, 64, 96
3, 39168, Note_off_c, 1, 64, 0
3, 39168, Note_on_c, 1, 59, 96
3, 39424, Note_off_c, 1, 59, 0
3, 39424, Note_on_c, 1, 61, 96
3, 39680, Note_off_c, 1, 61, 0
3, 39680, Note_on_c, 1, 62, 96
3, 39936, Note_off_c, 1, 62, 0
3, 39936, Note_on_c, 1, 61, 96
3, 40192, Note_off_c, 1, 61, 0
3, 40192, Note_on_c, 1, 62, 96
3, 40448, Note_off_c, 1, 62, 0
3, 40448, Note_on_c, 1, 64, 96
3, 40704, Note_off_c, 1, 64, 0
3, 40704, Note_on_c, 1, 61, 96
3, 40960, Note_off_c, 1, 61, 0
3, 40960, Note_on_c, 1, 58, 96
3, 41472, Note_off_c, 1, 58, 0
3, 41472, Note_on_c, 1, 56, 96
3, 41984, Note_off_c, 1, 56, 0
3, 41984, Note_on_c, 1, 58, 96
3, 42496, Note_off_c, 1, 58, 0
3, 42496, Note_on_c, 1, 54, 96
3, 43008, Note_off_c, 1, 54, 0
3, 43008, Note_on_c, 1, 59, 96
3, 43520, Note_off_c, 1, 59, 0
3, 43520, Note_on_c, 1, 57, 96
3, 44032, Note_off_c, 1, 57, 0
3, 44032, Note_on_c, 1, 55, 96
3, 44544, Note_off_c, 1, 55, 0
3, 44544, Note_on_c, 1, 52, 96
3, 45056, Note_off_c, 1, 52, 0
3, 45056, Note_on_c, 1, 58, 96
3, 45568, Note_off_c, 1, 58, 0
3, 45568, Note_on_c, 1, 54, 96
3, 46080, Note_off_c, 1, 54, 0
3, 46080, Note_on_c, 1, 59, 96
3, 46592, Note_off_c, 1, 59, 0
3, 46592, Note_on_c, 1, 57, 96
3, 47104, Note_off_c, 1, 57, 0
3, 47104, Note_on_c, 1, 55, 96
3, 47360, Note_off_c, 1, 55, 0
3, 47360, Note_on_c, 1, 54, 96
3, 47616, Note_off_c, 1, 54, 0
3, 47616, Note_on_c, 1, 52, 96
3, 47872, Note_off_c, 1, 52, 0
3, 47872, Note_on_c, 1, 50, 96
3, 48128, Note_off_c, 1, 50, 0
3, 48128, Note_on_c, 1, 52, 96
3, 48384, Note_off_c, 1, 52, 0
3, 48384, Note_on_c, 1, 50, 96
3, 48640, Note_off_c, 1, 50, 0
3, 48640, Note_on_c, 1, 49, 96
3, 48896, Note_off_c, 1, 49, 0
3, 48896, Note_on_c, 1, 52, 96
3, 49152, Note_off_c, 1, 52, 0
3, 49152, Note_on_c, 1, 50, 96
3, 49664, Note_off_c, 1, 50, 0
3, 49664, Note_on_c, 1, 59, 96
3, 50176, Note_off_c, 1, 59, 0
3, 50176, Note_on_c, 1, 49, 96
3, 50688, Note_off_c, 1, 49, 0
3, 50688, Note_on_c, 1, 58, 96
3, 51200, Note_off_c, 1, 58, 0
3, 51200, Note_on_c, 1, 59, 96
3, 51712, Note_off_c, 1, 59, 0
3, 51712, Note_on_c, 1, 47, 96
3, 52736, Note_off_c, 1, 47, 0
3, 52736, Note_on_c, 1, 46, 96
3, 53248, Note_off_c, 1, 46, 0
3, 53248, Note_on_c, 1, 47, 96
3, 53760, Note_off_c, 1, 47, 0
3, 53760, Note_on_c, 1, 50, 96
3, 54016, Note_off_c, 1, 50, 0
3, 54016, Note_on_c, 1, 52, 96
3, 54272, Note_off_c, 1, 52, 0
3, 54272, Note_on_c, 1, 54, 96
3, 54784, Note_off_c, 1, 54, 0
3, 54784, Note_on_c, 1, 42, 96
3, 55296, Note_off_c, 1, 42, 0
3, 55296, Note_on_c, 1, 47, 96
3, 55808, Note_off_c, 1, 47, 0
3, 55808, Note_on_c, 1, 52, 96
3, 56832, Note_off_c, 1, 52, 0
3, 56832, Note_on_c, 1, 51, 96
3, 57344, Note_off_c, 1, 51, 0
3, 57344, Note_on_c, 1, 40, 96
3, 57600, Note_off_c, 1, 40, 0
3, 57600, Note_on_c, 1, 52, 96
3, 57856, Note_off_c, 1, 52, 0
3, 57856, Note_on_c, 1, 54, 96
3, 58112, Note_off_c, 1, 54, 0
3, 58112, Note_on_c, 1, 55, 96
3, 58368, Note_off_c, 1, 55, 0
3, 58368, Note_on_c, 1, 54, 96
3, 58624, Note_off_c, 1, 54, 0
3, 58624, Note_on_c, 1, 55, 96
3, 58880, Note_off_c, 1, 55, 0
3, 58880, Note_on_c, 1, 57, 96
3, 59136, Note_off_c, 1, 57, 0
3, 59136, Note_on_c, 1, 54, 96
3, 59392, Note_off_c, 1, 54, 0
3, 59392, Note_on_c, 1, 55, 96
3, 59904, Note_off_c, 1, 55, 0
3, 59904, Note_on_c, 1, 51, 96
3, 60416, Note_off_c, 1, 51, 0
3, 60416, Note_on_c, 1, 52, 96
3, 60928, Note_off_c, 1, 52, 0
3, 60928, Note_on_c, 1, 55, 96
3, 61952, Note_off_c, 1, 55, 0
3, 61952, Note_on_c, 1, 54, 96
3, 62208, Note_off_c, 1, 54, 0
3, 62208, Note_on_c, 1, 52, 96
3, 62464, Note_off_c, 1, 52, 0
3, 62464, Note_on_c, 1, 54, 96
3, 62976, Note_off_c, 1, 54, 0
3, 62976, Note_on_c, 1, 57, 96
3, 64000, Note_off_c, 1, 57, 0
3, 64000, Note_on_c, 1, 55, 96
3, 64256, Note_off_c, 1, 55, 0
3, 64256, Note_on_c, 1, 54, 96
3, 64512, Note_off_c, 1, 54, 0
3, 64512, Note_on_c, 1, 55, 96
3, 65024, Note_off_c, 1, 55, 0
3, 65024, Note_on_c, 1, 59, 96
3, 66048, Note_off_c, 1, 59, 0
3, 66048, Note_on_c, 1, 57, 96
3, 66304, Note_off_c, 1, 57, 0
3, 66304, Note_on_c, 1, 55, 96
3, 66560, Note_off_c, 1, 55, 0
3, 66560, Note_on_c, 1, 57, 96
3, 67072, Note_off_c, 1, 57, 0
3, 67072, Note_on_c, 1, 60, 96
3, 67840, Note_off_c, 1, 60, 0
3, 67840, Note_on_c, 1, 54, 96
3, 68096, Note_off_c, 1, 54, 0
3, 68096, Note_on_c, 1, 55, 96
3, 68352, Note_off_c, 1, 55, 0
3, 68352, Note_on_c, 1, 57, 96
3, 68608, Note_off_c, 1, 57, 0
3, 68608, Note_on_c, 1, 55, 96
3, 68864, Note_off_c, 1, 55, 0
3, 68864, Note_on_c, 1, 57, 96
3, 69120, Note_off_c, 1, 57, 0
3, 69120, Note_on_c, 1, 59, 96
3, 69376, Note_off_c, 1, 59, 0
3, 69376, Note_on_c, 1, 55, 96
3, 69632, Note_off_c, 1, 55, 0
3, 69632, Note_on_c, 1, 60, 96
3, 69888, Note_off_c, 1, 60, 0
3, 69888, Note_on_c, 1, 62, 96
3, 70144, Note_off_c, 1, 62, 0
3, 70144, Note_on_c, 1, 60, 96
3, 70400, Note_off_c, 1, 60, 0
3, 70400, Note_on_c, 1, 59, 96
3, 70656, Note_off_c, 1, 59, 0
3, 70656, Note_on_c, 1, 60, 96
3, 70912, Note_off_c, 1, 60, 0
3, 70912, Note_on_c, 1, 57, 96
3, 71168, Note_off_c, 1, 57, 0
3, 71168, Note_on_c, 1, 59, 96
3, 71424, Note_off_c, 1, 59, 0
3, 71424, Note_on_c, 1, 60, 96
3, 71680, Note_off_c, 1, 60, 0
3, 71680, Note_on_c, 1, 51, 96
3, 71936, Note_off_c, 1, 51, 0
3, 71936, Note_on_c, 1, 57, 96
3, 72192, Note_off_c, 1, 57, 0
3, 72192, Note_on_c, 1, 55, 96
3, 72448, Note_off_c, 1, 55, 0
3, 72448, Note_on_c, 1, 54, 96
3, 72704, Note_off_c, 1, 54, 0
3, 72704, Note_on_c, 1, 55, 96
3, 72960, Note_off_c, 1, 55, 0
3, 72960, Note_on_c, 1, 54, 96
3, 73216, Note_off_c, 1, 54, 0
3, 73216, Note_on_c, 1, 52, 96
3, 73472, Note_off_c, 1, 52, 0
3, 73472, Note_on_c, 1, 55, 96
3, 73728, Note_off_c, 1, 55, 0
3, 73728, Note_on_c, 1, 49, 96
3, 73984, Note_off_c, 1, 49, 0
3, 73984, Note_on_c, 1, 55, 96
3, 74240, Note_off_c, 1, 55, 0
3, 74240, Note_on_c, 1, 54, 96
3, 74496, Note_off_c, 1, 54, 0
3, 74496, Note_on_c, 1, 52, 96
3, 74752, Note_off_c, 1, 52, 0
3, 74752, Note_on_c, 1, 54, 96
3, 75008, Note_off_c, 1, 54, 0
3, 75008, Note_on_c, 1, 52, 96
3, 75264, Note_off_c, 1, 52, 0
3, 75264, Note_on_c, 1, 50, 96
3, 75520, Note_off_c, 1, 50, 0
3, 75520, Note_on_c, 1, 54, 96
3, 75776, Note_off_c, 1, 54, 0
3, 75776, Note_on_c, 1, 47, 96
3, 76288, Note_off_c, 1, 47, 0
3, 76288, Note_on_c, 1, 55, 96
3, 76800, Note_off_c, 1, 55, 0
3, 76800, Note_on_c, 1, 45, 96
3, 77312, Note_off_c, 1, 45, 0
3, 77312, Note_on_c, 1, 54, 96
3, 77824, Note_off_c, 1, 54, 0
3, 77824, Note_on_c, 1, 55, 96
3, 78080, Note_off_c, 1, 55, 0
3, 78080, Note_on_c, 1, 43, 96
3, 78336, Note_off_c, 1, 43, 0
3, 78336, Note_on_c, 1, 45, 96
3, 78592, Note_off_c, 1, 45, 0
3, 78592, Note_on_c, 1, 47, 96
3, 78848, Note_off_c, 1, 47, 0
3, 78848, Note_on_c, 1, 45, 96
3, 79104, Note_off_c, 1, 45, 0
3, 79104, Note_on_c, 1, 47, 96
3, 79360, Note_off_c, 1, 47, 0
3, 79360, Note_on_c, 1, 48, 96
3, 79616, Note_off_c, 1, 48, 0
3, 79616, Note_on_c, 1, 45, 96
3, 79872, Note_off_c, 1, 45, 0
3, 79872, Note_on_c, 1, 47, 96
3, 80384, Note_off_c, 1, 47, 0
3, 80384, Note_on_c, 1, 55, 96
3, 81408, Note_off_c, 1, 55, 0
3, 81408, Note_on_c, 1, 54, 96
3, 81920, Note_off_c, 1, 54, 0
3, 81920, Note_on_c, 1, 55, 96
3, 82432, Note_off_c, 1, 55, 0
3, 82432, Note_on_c, 1, 54, 96
3, 82944, Note_off_c, 1, 54, 0
3, 82944, Note_on_c, 1, 52, 96
3, 83456, Note_off_c, 1, 52, 0
3, 83456, Note_on_c, 1, 50, 96
3, 83968, Note_off_c, 1, 50, 0
3, 83968, Note_on_c, 1, 48, 96
3, 84480, Note_off_c, 1, 48, 0
3, 84480, Note_on_c, 1, 45, 96
3, 84992, Note_off_c, 1, 45, 0
3, 84992, Note_on_c, 1, 50, 96
3, 85504, Note_off_c, 1, 50, 0
3, 85504, Note_on_c, 1, 48, 96
3, 86016, Note_off_c, 1, 48, 0
3, 86016, Note_on_c, 1, 47, 96
3, 86528, Note_off_c, 1, 47, 0
3, 86528, Note_on_c, 1, 43, 96
3, 87040, Note_off_c, 1, 43, 0
3, 87040, Note_on_c, 1, 48, 96
3, 87552, Note_off_c, 1, 48, 0
3, 87552, Note_on_c, 1, 47, 96
3, 88064, Note_off_c, 1, 47, 0
3, 88064, Note_on_c, 1, 45, 96
3, 88320, Note_off_c, 1, 45, 0
3, 88320, Note_on_c, 1, 57, 96
3, 88576, Note_off_c, 1, 57, 0
3, 88576, Note_on_c, 1, 55, 96
3, 88832, Note_off_c, 1, 55, 0
3, 88832, Note_on_c, 1, 54, 96
3, 89088, Note_off_c, 1, 54, 0
3, 89088, Note_on_c, 1, 55, 96
3, 89344, Note_off_c, 1, 55, 0
3, 89344, Note_on_c, 1, 54, 96
3, 89600, Note_off_c, 1, 54, 0
3, 89600, Note_on_c, 1, 52, 96
3, 89856, Note_off_c, 1, 52, 0
3, 89856, Note_on_c, 1, 55, 96
3, 90112, Note_off_c, 1, 55, 0
3, 90112, Note_on_c, 1, 54, 96
3, 90624, Note_off_c, 1, 54, 0
3, 90624, Note_on_c, 1, 50, 96
3, 91136, Note_off_c, 1, 50, 0
3, 91136, Note_on_c, 1, 52, 96
3, 91648, Note_off_c, 1, 52, 0
3, 91648, Note_on_c, 1, 54, 96
3, 92160, Note_off_c, 1, 54, 0
3, 92160, Note_on_c, 1, 55, 96
3, 92672, Note_off_c, 1, 55, 0
3, 92672, Note_on_c, 1, 43, 96
3, 93696, Note_off_c, 1, 43, 0
3, 93696, Note_on_c, 1, 42, 96
3, 94208, Note_off_c, 1, 42, 0
3, 94208, Note_on_c, 1, 43, 96
3, 94720, Note_off_c, 1, 43, 0
3, 94720, Note_on_c, 1, 47, 96
3, 94976, Note_off_c, 1, 47, 0
3, 94976, Note_on_c, 1, 48, 96
3, 95232, Note_off_c, 1, 48, 0
3, 95232, Note_on_c, 1, 50, 96
3, 95744, Note_off_c, 1, 50, 0
3, 95744, Note_on_c, 1, 38, 96
3, 96256, Note_off_c, 1, 38, 0
3, 96256, Note_on_c, 1, 43, 96
3, 96512, Note_off_c, 1, 43, 0
3, 96512, Note_on_c, 1, 50, 96
3, 96768, Note_off_c, 1, 50, 0
3, 96768, Note_on_c, 1, 52, 96
3, 97024, Note_off_c, 1, 52, 0
3, 97024, Note_on_c, 1, 54, 96
3, 97280, Note_off_c, 1, 54, 0
3, 97280, Note_on_c, 1, 52, 96
3, 97536, Note_off_c, 1, 52, 0
3, 97536, Note_on_c, 1, 54, 96
3, 97792, Note_off_c, 1, 54, 0
3, 97792, Note_on_c, 1, 55, 96
3, 98048, Note_off_c, 1, 55, 0
3, 98048, Note_on_c, 1, 52, 96
3, 98304, Note_off_c, 1, 52, 0
3, 98304, Note_on_c, 1, 54, 96
3, 98816, Note_off_c, 1, 54, 0
3, 98816, Note_on_c, 1, 50, 96
3, 99328, Note_off_c, 1, 50, 0
3, 99328, Note_on_c, 1, 55, 96
3, 99840, Note_off_c, 1, 55, 0
3, 99840, Note_on_c, 1, 43, 96
3, 100352, Note_off_c, 1, 43, 0
3, 100352, Note_on_c, 1, 39, 96
3, 100608, Note_off_c, 1, 39, 0
3, 100608, Note_on_c, 1, 57, 96
3, 100864, Note_off_c, 1, 57, 0
3, 100864, Note_on_c, 1, 55, 96
3, 101120, Note_off_c, 1, 55, 0
3, 101120, Note_on_c, 1, 54, 96
3, 101376, Note_off_c, 1, 54, 0
3, 101376, Note_on_c, 1, 55, 96
3, 101632, Note_off_c, 1, 55, 0
3, 101632, Note_on_c, 1, 54, 96
3, 101888, Note_off_c, 1, 54, 0
3, 101888, Note_on_c, 1, 52, 96
3, 102144, Note_off_c, 1, 52, 0
3, 102144, Note_on_c, 1, 55, 96
3, 102400, Note_off_c, 1, 55, 0
3, 102400, Note_on_c, 1, 49, 96
3, 102912, Note_off_c, 1, 49, 0
3, 102912, Note_on_c, 1, 52, 96
3, 103424, Note_off_c, 1, 52, 0
3, 103424, Note_on_c, 1, 45, 96
3, 103936, Note_off_c, 1, 45, 0
3, 103936, Note_on_c, 1, 49, 96
3, 104448, Note_off_c, 1, 49, 0
3, 104448, Note_on_c, 1, 38, 96
3, 104704, Note_off_c, 1, 38, 0
3, 104704, Note_on_c, 1, 50, 96
3, 104960, Note_off_c, 1, 50, 0
3, 104960, Note_on_c, 1, 52, 96
3, 105216, Note_off_c, 1, 52, 0
3, 105216, Note_on_c, 1, 54, 96
3, 105472, Note_off_c, 1, 54, 0
3, 105472, Note_on_c, 1, 52, 96
3, 105728, Note_off_c, 1, 52, 0
3, 105728, Note_on_c, 1, 54, 96
3, 105984, Note_off_c, 1, 54, 0
3, 105984, Note_on_c, 1, 55, 96
3, 106240, Note_off_c, 1, 55, 0
3, 106240, Note_on_c, 1, 52, 96
3, 106496, Note_off_c, 1, 52, 0
3, 106496, Note_on_c, 1, 54, 96
3, 107008, Note_off_c, 1, 54, 0
3, 107008, Note_on_c, 1, 62, 96
3, 108032, Note_off_c, 1, 62, 0
3, 108032, Note_on_c, 1, 61, 96
3, 108544, Note_off_c, 1, 61, 0
3, 108544, Note_on_c, 1, 62, 96
3, 109056, Note_off_c, 1, 62, 0
3, 109056, Note_on_c, 1, 55, 96
3, 110080, Note_off_c, 1, 55, 0
3, 110080, Note_on_c, 1, 54, 96
3, 111104, Note_off_c, 1, 54, 0
3, 111104, Note_on_c, 1, 52, 96
3, 112128, Note_off_c, 1, 52, 0
3, 112128, Note_on_c, 1, 51, 96
3, 112640, Note_off_c, 1, 51, 0
3, 112640, Note_on_c, 1, 52, 96
3, 112896, Note_off_c, 1, 52, 0
3, 112896, Note_on_c, 1, 47, 96
3, 113152, Note_off_c, 1, 47, 0
3, 113152, Note_on_c, 1, 48, 96
3, 113408, Note_off_c, 1, 48, 0
3, 113408, Note_on_c, 1, 50, 96
3, 113664, Note_off_c, 1, 50, 0
3, 113664, Note_on_c, 1, 48, 96
3, 113920, Note_off_c, 1, 48, 0
3, 113920, Note_on_c, 1, 50, 96
3, 114176, Note_off_c, 1, 50, 0
3, 114176, Note_on_c, 1, 52, 96
3, 114432, Note_off_c, 1, 52, 0
3, 114432, Note_on_c, 1, 48, 96
3, 114688, Note_off_c, 1, 48, 0
3, 114688, Note_on_c, 1, 45, 96
3, 115200, Note_off_c, 1, 45, 0
3, 115200, Note_on_c, 1, 54, 96
3, 115712, Note_off_c, 1, 54, 0
3, 115712, Note_on_c, 1, 59, 96
3, 116224, Note_off_c, 1, 59, 0
3, 116224, Note_on_c, 1, 47, 96
3, 116736, Note_off_c, 1, 47, 0
3, 116736, Note_on_c, 1, 40, 96
3, 116992, Note_off_c, 1, 40, 0
3, 116992, Note_on_c, 1, 52, 96
3, 117248, Note_off_c, 1, 52, 0
3, 117248, Note_on_c, 1, 54, 96
3, 117504, Note_off_c, 1, 54, 0
3, 117504, Note_on_c, 1, 55, 96
3, 117760, Note_off_c, 1, 55, 0
3, 117760, Note_on_c, 1, 54, 96
3, 118016, Note_off_c, 1, 54, 0
3, 118016, Note_on_c, 1, 55, 96
3, 118272, Note_off_c, 1, 55, 0
3, 118272, Note_on_c, 1, 57, 96
3, 118528, Note_off_c, 1, 57, 0
3, 118528, Note_on_c, 1, 54, 96
3, 118784, Note_off_c, 1, 54, 0
3, 118784, Note_on_c, 1, 55, 96
3, 119296, Note_off_c, 1, 55, 0
3, 119296, Note_on_c, 1, 52, 96
3, 119808, Note_off_c, 1, 52, 0
3, 119808, Note_on_c, 1, 57, 96
3, 120320, Note_off_c, 1, 57, 0
3, 120320, Note_on_c, 1, 55, 96
3, 120832, Note_off_c, 1, 55, 0
3, 120832, Note_on_c, 1, 54, 96
3, 121344, Note_off_c, 1, 54, 0
3, 121344, Note_on_c, 1, 50, 96
3, 121856, Note_off_c, 1, 50, 0
3, 121856, Note_on_c, 1, 55, 96
3, 122368, Note_off_c, 1, 55, 0
3, 122368, Note_on_c, 1, 54, 96
3, 122880, Note_off_c, 1, 54, 0
3, 122880, Note_on_c, 1, 52, 96
3, 123392, Note_off_c, 1, 52, 0
3, 123392, Note_on_c, 1, 48, 96
3, 123904, Note_off_c, 1, 48, 0
3, 123904, Note_on_c, 1, 54, 96
3, 124416, Note_off_c, 1, 54, 0
3, 124416, Note_on_c, 1, 52, 96
3, 124928, Note_off_c, 1, 52, 0
3, 124928, Note_on_c, 1, 51, 96
3, 125184, Note_off_c, 1, 51, 0
3, 125184, Note_on_c, 1, 59, 96
3, 125440, Note_off_c, 1, 59, 0
3, 125440, Note_on_c, 1, 57, 96
3, 125696, Note_off_c, 1, 57, 0
3, 125696, Note_on_c, 1, 55, 96
3, 125952, Note_off_c, 1, 55, 0
3, 125952, Note_on_c, 1, 57, 96
3, 126208, Note_off_c, 1, 57, 0
3, 126208, Note_on_c, 1, 55, 96
3, 126464, Note_off_c, 1, 55, 0
3, 126464, Note_on_c, 1, 54, 96
3, 126720, Note_off_c, 1, 54, 0
3, 126720, Note_on_c, 1, 57, 96
3, 126976, Note_off_c, 1, 57, 0
3, 126976, Note_on_c, 1, 55, 96
3, 127488, Note_off_c, 1, 55, 0
3, 127488, Note_on_c, 1, 64, 96
3, 128000, Note_off_c, 1, 64, 0
3, 128000, Note_on_c, 1, 54, 96
3, 128512, Note_off_c, 1, 54, 0
3, 128512, Note_on_c, 1, 63, 96
3, 129024, Note_off_c, 1, 63, 0
3, 129024, Note_on_c, 1, 64, 96
3, 129536, Note_off_c, 1, 64, 0
3, 129536, Note_on_c, 1, 52, 96
3, 130560, Note_off_c, 1, 52, 0
3, 130560, Note_on_c, 1, 51, 96
3, 131072, Note_off_c, 1, 51, 0
3, 131072, Note_on_c, 1, 52, 96
3, 131584, Note_off_c, 1, 52, 0
3, 131584, Note_on_c, 1, 55, 96
3, 131840, Note_off_c, 1, 55, 0
3, 131840, Note_on_c, 1, 57, 96
3, 132096, Note_off_c, 1, 57, 0
3, 132096, Note_on_c, 1, 59, 96
3, 132608, Note_off_c, 1, 59, 0
3, 132608, Note_on_c, 1, 47, 96
3, 133120, Note_off_c, 1, 47, 0
3, 133120, Note_on_c, 1, 52, 96
3, 137216, Note_off_c, 1, 52, 0
3, 137216, End_track
4, 0, Start_track
4, 0, Title_t, "Instrument 3"
4, 23552, Note_on_c, 2, 52, 96
4, 24576, Note_off_c, 2, 52, 0
4, 24576, Note_on_c, 2, 52, 96
4, 25600, Note_off_c, 2, 52, 0
4, 25600, Note_on_c, 2, 54, 96
4, 26624, Note_off_c, 2, 54, 0
4, 26624, Note_on_c, 2, 55, 96
4, 27648, Note_off_c, 2, 55, 0
4, 27648, Note_on_c, 2, 57, 96
4, 28672, Note_off_c, 2, 57, 0
4, 28672, Note_on_c, 2, 59, 96
4, 30720, Note_off_c, 2, 59, 0
4, 35840, Note_on_c, 2, 59, 96
4, 36864, Note_off_c, 2, 59, 0
4, 36864, Note_on_c, 2, 59, 96
4, 37888, Note_off_c, 2, 59, 0
4, 37888, Note_on_c, 2, 57, 96
4, 38912, Note_off_c, 2, 57, 0
4, 38912, Note_on_c, 2, 55, 96
4, 39936, Note_off_c, 2, 55, 0
4, 39936, Note_on_c, 2, 55, 96
4, 40448, Note_off_c, 2, 55, 0
4, 40448, Note_on_c, 2, 54, 96
4, 40960, Note_off_c, 2, 54, 0
4, 40960, Note_on_c, 2, 54, 96
4, 43008, Note_off_c, 2, 54, 0
4, 56320, Note_on_c, 2, 54, 96
4, 57344, Note_off_c, 2, 54, 0
4, 57344, Note_on_c, 2, 55, 96
4, 58368, Note_off_c, 2, 55, 0
4, 58368, Note_on_c, 2, 57, 96
4, 59392, Note_off_c, 2, 57, 0
4, 59392, Note_on_c, 2, 59, 96
4, 60416, Note_off_c, 2, 59, 0
4, 60416, Note_on_c, 2, 59, 96
4, 61440, Note_off_c, 2, 59, 0
4, 61440, Note_on_c, 2, 57, 96
4, 63488, Note_off_c, 2, 57, 0
4, 63488, Note_on_c, 2, 59, 96
4, 64512, Note_off_c, 2, 59, 0
4, 68608, Note_on_c, 2, 59, 96
4, 69632, Note_off_c, 2, 59, 0
4, 69632, Note_on_c, 2, 55, 96
4, 70656, Note_off_c, 2, 55, 0
4, 70656, Note_on_c, 2, 57, 96
4, 71680, Note_off_c, 2, 57, 0
4, 71680, Note_on_c, 2, 59, 96
4, 72704, Note_off_c, 2, 59, 0
4, 72704, Note_on_c, 2, 59, 96
4, 73216, Note_off_c, 2, 59, 0
4, 73216, Note_on_c, 2, 60, 96
4, 73728, Note_off_c, 2, 60, 0
4, 73728, Note_on_c, 2, 57, 96
4, 75776, Note_off_c, 2, 57, 0
4, 75776, Note_on_c, 2, 55, 96
4, 76800, Note_off_c, 2, 55, 0
4, 97280, Note_on_c, 2, 59, 96
4, 98304, Note_off_c, 2, 59, 0
4, 98304, Note_on_c, 2, 62, 96
4, 99328, Note_off_c, 2, 62, 0
4, 99328, Note_on_c, 2, 59, 96
4, 100352, Note_off_c, 2, 59, 0
4, 100352, Note_on_c, 2, 59, 96
4, 101376, Note_off_c, 2, 59, 0
4, 101376, Note_on_c, 2, 59, 96
4, 102400, Note_off_c, 2, 59, 0
4, 102400, Note_on_c, 2, 57, 96
4, 104448, Note_off_c, 2, 57, 0
4, 104448, Note_on_c, 2, 57, 96
4, 105472, Note_off_c, 2, 57, 0
4, 109568, Note_on_c, 2, 57, 96
4, 110592, Note_off_c, 2, 57, 0
4, 110592, Note_on_c, 2, 59, 96
4, 111616, Note_off_c, 2, 59, 0
4, 111616, Note_on_c, 2, 57, 96
4, 112640, Note_off_c, 2, 57, 0
4, 112640, Note_on_c, 2, 55, 96
4, 113664, Note_off_c, 2, 55, 0
4, 113664, Note_on_c, 2, 57, 96
4, 114176, Note_off_c, 2, 57, 0
4, 114176, Note_on_c, 2, 55, 96
4, 114688, Note_off_c, 2, 55, 0
4, 114688, Note_on_c, 2, 54, 96
4, 116736, Note_off_c, 2, 54, 0
4, 116736, Note_on_c, 2, 52, 96
4, 118784, Note_off_c, 2, 52, 0
4, 137216, End_track
0, 0, End_of_file
