0, 0, Header, 1, 4, 480
1, 0, Start_track
1, 0, Text_t, "N¡ 1 Ricercare a tre"
1, 0, SMPTE_offset, 32, 0, 0, 0, 0
1, 0, Time_signature, 4, 2, 24, 8
1, 0, Key_signature, -3, "minor"
1, 0, Tempo, 335195
1, 0, End_track
2, 0, Start_track
2, 0, Text_t, "Voce 1  "
2, 0, Note_on_c, 0, 72, 64
2, 960, Note_off_c, 0, 72, 64
2, 960, Note_on_c, 0, 75, 64
2, 1920, Note_off_c, 0, 75, 64
2, 1920, Note_on_c, 0, 79, 64
2, 2880, Note_off_c, 0, 79, 64
2, 2880, Note_on_c, 0, 80, 64
2, 3840, Note_off_c, 0, 80, 64
2, 3840, Note_on_c, 0, 71, 64
2, 4800, Note_off_c, 0, 71, 64
2, 5280, Note_on_c, 0, 79, 64
2, 5760, Note_off_c, 0, 79, 64
2, 5760, Note_on_c, 0, 78, 64
2, 6720, Note_off_c, 0, 78, 64
2, 6720, Note_on_c, 0, 77, 64
2, 7680, Note_off_c, 0, 77, 64
2, 7680, Note_on_c, 0, 76, 64
2, 8640, Note_off_c, 0, 76, 64
2, 8640, Note_on_c, 0, 75, 64
2, 10080, Note_off_c, 0, 75, 64
2, 10080, Note_on_c, 0, 74, 64
2, 10560, Note_off_c, 0, 74, 64
2, 10560, Note_on_c, 0, 73, 64
2, 11040, Note_off_c, 0, 73, 64
2, 11040, Note_on_c, 0, 72, 64
2, 11520, Note_off_c, 0, 72, 64
2, 11520, Note_on_c, 0, 71, 64
2, 12000, Note_off_c, 0, 71, 64
2, 12000, Note_on_c, 0, 69, 64
2, 12240, Note_off_c, 0, 69, 64
2, 12240, Note_on_c, 0, 67, 64
2, 12480, Note_off_c, 0, 67, 64
2, 12480, Note_on_c, 0, 72, 64
2, 12960, Note_off_c, 0, 72, 64
2, 12960, Note_on_c, 0, 77, 64
2, 13440, Note_off_c, 0, 77, 64
2, 13440, Note_on_c, 0, 75, 64
2, 14400, Note_off_c, 0, 75, 64
2, 14400, Note_on_c, 0, 75, 64
2, 14520, Note_off_c, 0, 75, 64
2, 14520, Note_on_c, 0, 74, 64
2, 14640, Note_off_c, 0, 74, 64
2, 14640, Note_on_c, 0, 75, 64
2, 14760, Note_off_c, 0, 75, 64
2, 14760, Note_on_c, 0, 74, 64
2, 14880, Note_off_c, 0, 74, 64
2, 14880, Note_on_c, 0, 75, 64
2, 15000, Note_off_c, 0, 75, 64
2, 15000, Note_on_c, 0, 74, 64
2, 15120, Note_off_c, 0, 74, 64
2, 15120, Note_on_c, 0, 72, 64
2, 15240, Note_off_c, 0, 72, 64
2, 15240, Note_on_c, 0, 74, 64
2, 15360, Note_off_c, 0, 74, 64
2, 15360, Note_on_c, 0, 72, 64
2, 15840, Note_off_c, 0, 72, 64
2, 15840, Note_on_c, 0, 84, 64
2, 16320, Note_off_c, 0, 84, 64
2, 16320, Note_on_c, 0, 78, 64
2, 16800, Note_off_c, 0, 78, 64
2, 16800, Note_on_c, 0, 81, 64
2, 17280, Note_off_c, 0, 81, 64
2, 17280, Note_on_c, 0, 70, 64
2, 17760, Note_off_c, 0, 70, 64
2, 17760, Note_on_c, 0, 86, 64
2, 18240, Note_off_c, 0, 86, 64
2, 18240, Note_on_c, 0, 79, 64
2, 18720, Note_off_c, 0, 79, 64
2, 18720, Note_on_c, 0, 82, 64
2, 19200, Note_off_c, 0, 82, 64
2, 19200, Note_on_c, 0, 75, 64
2, 19680, Note_off_c, 0, 75, 64
2, 19680, Note_on_c, 0, 79, 64
2, 20160, Note_off_c, 0, 79, 64
2, 20160, Note_on_c, 0, 72, 64
2, 20640, Note_off_c, 0, 72, 64
2, 20640, Note_on_c, 0, 84, 64
2, 21600, Note_off_c, 0, 84, 64
2, 21600, Note_on_c, 0, 82, 64
2, 21840, Note_off_c, 0, 82, 64
2, 21840, Note_on_c, 0, 81, 64
2, 22080, Note_off_c, 0, 81, 64
2, 22080, Note_on_c, 0, 82, 64
2, 22320, Note_off_c, 0, 82, 64
2, 22320, Note_on_c, 0, 81, 64
2, 22560, Note_off_c, 0, 81, 64
2, 22560, Note_on_c, 0, 79, 64
2, 22800, Note_off_c, 0, 79, 64
2, 22800, Note_on_c, 0, 77, 64
2, 23040, Note_off_c, 0, 77, 64
2, 23040, Note_on_c, 0, 76, 64
2, 23280, Note_off_c, 0, 76, 64
2, 23280, Note_on_c, 0, 74, 64
2, 23520, Note_off_c, 0, 74, 64
2, 23520, Note_on_c, 0, 76, 64
2, 24480, Note_off_c, 0, 76, 64
2, 24480, Note_on_c, 0, 78, 64
2, 24960, Note_off_c, 0, 78, 64
2, 24960, Note_on_c, 0, 79, 64
2, 25200, Note_off_c, 0, 79, 64
2, 25200, Note_on_c, 0, 74, 64
2, 25440, Note_off_c, 0, 74, 64
2, 25440, Note_on_c, 0, 79, 64
2, 25680, Note_off_c, 0, 79, 64
2, 25680, Note_on_c, 0, 81, 64
2, 25920, Note_off_c, 0, 81, 64
2, 25920, Note_on_c, 0, 79, 64
2, 26160, Note_off_c, 0, 79, 64
2, 26160, Note_on_c, 0, 77, 64
2, 26400, Note_off_c, 0, 77, 64
2, 26400, Note_on_c, 0, 75, 64
2, 26640, Note_off_c, 0, 75, 64
2, 26640, Note_on_c, 0, 74, 64
2, 26880, Note_off_c, 0, 74, 64
2, 26880, Note_on_c, 0, 72, 64
2, 28080, Note_off_c, 0, 72, 64
2, 28080, Note_on_c, 0, 74, 64
2, 28320, Note_off_c, 0, 74, 64
2, 28320, Note_on_c, 0, 75, 64
2, 28560, Note_off_c, 0, 75, 64
2, 28560, Note_on_c, 0, 72, 64
2, 28800, Note_off_c, 0, 72, 64
2, 28800, Note_on_c, 0, 74, 64
2, 29280, Note_off_c, 0, 74, 64
2, 29280, Note_on_c, 0, 84, 64
2, 29760, Note_off_c, 0, 84, 64
2, 29760, Note_on_c, 0, 82, 64
2, 30240, Note_off_c, 0, 82, 64
2, 30240, Note_on_c, 0, 81, 64
2, 30720, Note_off_c, 0, 81, 64
2, 30720, Note_on_c, 0, 86, 64
2, 31200, Note_off_c, 0, 86, 64
2, 31200, Note_on_c, 0, 79, 64
2, 32160, Note_off_c, 0, 79, 64
2, 32160, Note_on_c, 0, 78, 64
2, 32640, Note_off_c, 0, 78, 64
2, 32640, Note_on_c, 0, 79, 64
2, 33120, Note_off_c, 0, 79, 64
2, 33120, Note_on_c, 0, 82, 64
2, 33600, Note_off_c, 0, 82, 64
2, 33600, Note_on_c, 0, 76, 64
2, 34080, Note_off_c, 0, 76, 64
2, 34080, Note_on_c, 0, 79, 64
2, 34560, Note_off_c, 0, 79, 64
2, 34560, Note_on_c, 0, 72, 64
2, 35040, Note_off_c, 0, 72, 64
2, 35040, Note_on_c, 0, 74, 64
2, 35280, Note_off_c, 0, 74, 64
2, 35280, Note_on_c, 0, 76, 64
2, 35520, Note_off_c, 0, 76, 64
2, 35520, Note_on_c, 0, 77, 64
2, 36960, Note_off_c, 0, 77, 64
2, 36960, Note_on_c, 0, 80, 64
2, 37440, Note_off_c, 0, 80, 64
2, 37440, Note_on_c, 0, 74, 64
2, 37920, Note_off_c, 0, 74, 64
2, 37920, Note_on_c, 0, 77, 64
2, 38400, Note_off_c, 0, 77, 64
2, 38400, Note_on_c, 0, 70, 64
2, 38880, Note_off_c, 0, 70, 64
2, 38880, Note_on_c, 0, 72, 64
2, 39120, Note_off_c, 0, 72, 64
2, 39120, Note_on_c, 0, 74, 64
2, 39360, Note_off_c, 0, 74, 64
2, 39360, Note_on_c, 0, 75, 64
2, 40800, Note_off_c, 0, 75, 64
2, 40800, Note_on_c, 0, 74, 64
2, 41040, Note_off_c, 0, 74, 64
2, 41040, Note_on_c, 0, 72, 64
2, 41280, Note_off_c, 0, 72, 64
2, 41280, Note_on_c, 0, 74, 64
2, 41520, Note_off_c, 0, 74, 64
2, 41520, Note_on_c, 0, 72, 64
2, 41760, Note_off_c, 0, 72, 64
2, 41760, Note_on_c, 0, 71, 64
2, 42000, Note_off_c, 0, 71, 64
2, 42000, Note_on_c, 0, 69, 64
2, 42240, Note_off_c, 0, 69, 64
2, 42240, Note_on_c, 0, 67, 64
2, 42720, Note_off_c, 0, 67, 64
2, 42720, Note_on_c, 0, 69, 64
2, 42960, Note_off_c, 0, 69, 64
2, 42960, Note_on_c, 0, 71, 64
2, 43200, Note_off_c, 0, 71, 64
2, 43200, Note_on_c, 0, 72, 64
2, 43440, Note_off_c, 0, 72, 64
2, 43440, Note_on_c, 0, 71, 64
2, 43680, Note_off_c, 0, 71, 64
2, 43680, Note_on_c, 0, 72, 64
2, 44640, Note_off_c, 0, 72, 64
2, 44640, Note_on_c, 0, 70, 64
2, 45600, Note_off_c, 0, 70, 64
2, 45600, Note_on_c, 0, 68, 64
2, 46080, Note_off_c, 0, 68, 64
2, 46080, Note_on_c, 0, 67, 64
2, 47040, Note_off_c, 0, 67, 64
2, 48240, Note_on_c, 0, 75, 64
2, 48480, Note_off_c, 0, 75, 64
2, 48480, Note_on_c, 0, 74, 64
2, 48720, Note_off_c, 0, 74, 64
2, 48720, Note_on_c, 0, 72, 64
2, 48960, Note_off_c, 0, 72, 64
2, 48960, Note_on_c, 0, 74, 64
2, 49200, Note_off_c, 0, 74, 64
2, 49200, Note_on_c, 0, 77, 64
2, 49440, Note_off_c, 0, 77, 64
2, 49440, Note_on_c, 0, 75, 64
2, 49680, Note_off_c, 0, 75, 64
2, 49680, Note_on_c, 0, 74, 64
2, 49920, Note_off_c, 0, 74, 64
2, 49920, Note_on_c, 0, 79, 64
2, 51120, Note_off_c, 0, 79, 64
2, 51120, Note_on_c, 0, 73, 64
2, 51360, Note_off_c, 0, 73, 64
2, 51360, Note_on_c, 0, 72, 64
2, 51600, Note_off_c, 0, 72, 64
2, 51600, Note_on_c, 0, 70, 64
2, 51840, Note_off_c, 0, 70, 64
2, 51840, Note_on_c, 0, 69, 64
2, 52080, Note_off_c, 0, 69, 64
2, 52080, Note_on_c, 0, 67, 64
2, 52320, Note_off_c, 0, 67, 64
2, 52320, Note_on_c, 0, 69, 64
2, 52560, Note_off_c, 0, 69, 64
2, 52560, Note_on_c, 0, 72, 64
2, 52800, Note_off_c, 0, 72, 64
2, 52800, Note_on_c, 0, 77, 64
2, 54240, Note_off_c, 0, 77, 64
2, 54240, Note_on_c, 0, 71, 64
2, 54720, Note_off_c, 0, 71, 64
2, 54960, Note_on_c, 0, 72, 64
2, 55440, Note_off_c, 0, 72, 64
2, 55440, Note_on_c, 0, 71, 64
2, 55680, Note_off_c, 0, 71, 64
2, 55680, Note_on_c, 0, 72, 64
2, 55920, Note_off_c, 0, 72, 64
2, 55920, Note_on_c, 0, 70, 64
2, 56160, Note_off_c, 0, 70, 64
2, 56160, Note_on_c, 0, 68, 64
2, 56400, Note_off_c, 0, 68, 64
2, 56400, Note_on_c, 0, 67, 64
2, 56640, Note_off_c, 0, 67, 64
2, 56640, Note_on_c, 0, 65, 64
2, 56880, Note_off_c, 0, 65, 64
2, 56880, Note_on_c, 0, 68, 64
2, 57120, Note_off_c, 0, 68, 64
2, 57120, Note_on_c, 0, 67, 64
2, 57360, Note_off_c, 0, 67, 64
2, 57360, Note_on_c, 0, 65, 64
2, 57600, Note_off_c, 0, 65, 64
2, 57600, Note_on_c, 0, 63, 64
2, 58080, Note_off_c, 0, 63, 64
2, 58080, Note_on_c, 0, 75, 64
2, 58560, Note_off_c, 0, 75, 64
2, 58560, Note_on_c, 0, 74, 64
2, 59040, Note_off_c, 0, 74, 64
2, 59040, Note_on_c, 0, 73, 64
2, 59520, Note_off_c, 0, 73, 64
2, 59520, Note_on_c, 0, 72, 64
2, 60000, Note_off_c, 0, 72, 64
2, 60000, Note_on_c, 0, 70, 64
2, 60960, Note_off_c, 0, 70, 64
2, 60960, Note_on_c, 0, 69, 64
2, 61440, Note_off_c, 0, 69, 64
2, 61440, Note_on_c, 0, 74, 64
2, 61920, Note_off_c, 0, 74, 64
2, 61920, Note_on_c, 0, 73, 64
2, 62400, Note_off_c, 0, 73, 64
2, 62400, Note_on_c, 0, 72, 64
2, 62880, Note_off_c, 0, 72, 64
2, 62880, Note_on_c, 0, 71, 64
2, 63360, Note_off_c, 0, 71, 64
2, 63360, Note_on_c, 0, 70, 64
2, 63840, Note_off_c, 0, 70, 64
2, 63840, Note_on_c, 0, 68, 64
2, 64800, Note_off_c, 0, 68, 64
2, 64800, Note_on_c, 0, 67, 64
2, 65280, Note_off_c, 0, 67, 64
2, 65280, Note_on_c, 0, 72, 64
2, 65760, Note_off_c, 0, 72, 64
2, 65760, Note_on_c, 0, 71, 64
2, 66240, Note_off_c, 0, 71, 64
2, 66240, Note_on_c, 0, 70, 64
2, 67200, Note_off_c, 0, 70, 64
2, 67200, Note_on_c, 0, 69, 64
2, 67680, Note_off_c, 0, 69, 64
2, 67680, Note_on_c, 0, 68, 64
2, 68160, Note_off_c, 0, 68, 64
2, 68160, Note_on_c, 0, 67, 64
2, 69360, Note_off_c, 0, 67, 64
2, 69360, Note_on_c, 0, 65, 64
2, 69600, Note_off_c, 0, 65, 64
2, 69600, Note_on_c, 0, 63, 64
2, 69840, Note_off_c, 0, 63, 64
2, 69840, Note_on_c, 0, 62, 64
2, 70080, Note_off_c, 0, 62, 64
2, 70080, Note_on_c, 0, 60, 64
2, 70320, Note_off_c, 0, 60, 64
2, 70320, Note_on_c, 0, 63, 64
2, 70560, Note_off_c, 0, 63, 64
2, 70560, Note_on_c, 0, 62, 64
2, 70800, Note_off_c, 0, 62, 64
2, 70800, Note_on_c, 0, 60, 64
2, 71040, Note_off_c, 0, 60, 64
2, 71040, Note_on_c, 0, 59, 64
2, 71520, Note_off_c, 0, 59, 64
2, 73120, Note_on_c, 0, 67, 64
2, 73280, Note_off_c, 0, 67, 64
2, 73280, Note_on_c, 0, 72, 64
2, 73440, Note_off_c, 0, 72, 64
2, 73440, Note_on_c, 0, 75, 64
2, 73600, Note_off_c, 0, 75, 64
2, 73600, Note_on_c, 0, 72, 64
2, 73760, Note_off_c, 0, 72, 64
2, 73760, Note_on_c, 0, 75, 64
2, 73920, Note_off_c, 0, 75, 64
2, 73920, Note_on_c, 0, 79, 64
2, 74080, Note_off_c, 0, 79, 64
2, 74080, Note_on_c, 0, 73, 64
2, 74240, Note_off_c, 0, 73, 64
2, 74240, Note_on_c, 0, 72, 64
2, 74400, Note_off_c, 0, 72, 64
2, 74400, Note_on_c, 0, 70, 64
2, 74560, Note_off_c, 0, 70, 64
2, 74560, Note_on_c, 0, 68, 64
2, 74720, Note_off_c, 0, 68, 64
2, 74720, Note_on_c, 0, 67, 64
2, 74880, Note_off_c, 0, 67, 64
2, 74880, Note_on_c, 0, 68, 64
2, 75360, Note_off_c, 0, 68, 64
2, 76960, Note_on_c, 0, 65, 64
2, 77120, Note_off_c, 0, 65, 64
2, 77120, Note_on_c, 0, 70, 64
2, 77280, Note_off_c, 0, 70, 64
2, 77280, Note_on_c, 0, 73, 64
2, 77440, Note_off_c, 0, 73, 64
2, 77440, Note_on_c, 0, 70, 64
2, 77600, Note_off_c, 0, 70, 64
2, 77600, Note_on_c, 0, 73, 64
2, 77760, Note_off_c, 0, 73, 64
2, 77760, Note_on_c, 0, 77, 64
2, 77920, Note_off_c, 0, 77, 64
2, 77920, Note_on_c, 0, 71, 64
2, 78080, Note_off_c, 0, 71, 64
2, 78080, Note_on_c, 0, 70, 64
2, 78240, Note_off_c, 0, 70, 64
2, 78240, Note_on_c, 0, 68, 64
2, 78400, Note_off_c, 0, 68, 64
2, 78400, Note_on_c, 0, 66, 64
2, 78560, Note_off_c, 0, 66, 64
2, 78560, Note_on_c, 0, 65, 64
2, 78720, Note_off_c, 0, 65, 64
2, 78720, Note_on_c, 0, 66, 64
2, 78960, Note_off_c, 0, 66, 64
2, 78960, Note_on_c, 0, 75, 64
2, 79440, Note_off_c, 0, 75, 64
2, 79440, Note_on_c, 0, 74, 64
2, 79680, Note_off_c, 0, 74, 64
2, 79680, Note_on_c, 0, 75, 64
2, 79920, Note_off_c, 0, 75, 64
2, 79920, Note_on_c, 0, 70, 64
2, 80160, Note_off_c, 0, 70, 64
2, 80160, Note_on_c, 0, 72, 64
2, 80880, Note_off_c, 0, 72, 64
2, 80880, Note_on_c, 0, 70, 64
2, 81360, Note_off_c, 0, 70, 64
2, 81360, Note_on_c, 0, 69, 64
2, 81600, Note_off_c, 0, 69, 64
2, 81600, Note_on_c, 0, 70, 64
2, 81840, Note_off_c, 0, 70, 64
2, 81840, Note_on_c, 0, 65, 64
2, 82080, Note_off_c, 0, 65, 64
2, 82080, Note_on_c, 0, 67, 64
2, 82560, Note_off_c, 0, 67, 64
2, 82560, Note_on_c, 0, 68, 64
2, 82800, Note_off_c, 0, 68, 64
2, 82800, Note_on_c, 0, 77, 64
2, 83280, Note_off_c, 0, 77, 64
2, 83280, Note_on_c, 0, 76, 64
2, 83520, Note_off_c, 0, 76, 64
2, 83520, Note_on_c, 0, 77, 64
2, 83760, Note_off_c, 0, 77, 64
2, 83760, Note_on_c, 0, 72, 64
2, 84000, Note_off_c, 0, 72, 64
2, 84000, Note_on_c, 0, 74, 64
2, 84720, Note_off_c, 0, 74, 64
2, 84720, Note_on_c, 0, 72, 64
2, 85200, Note_off_c, 0, 72, 64
2, 85200, Note_on_c, 0, 71, 64
2, 85440, Note_off_c, 0, 71, 64
2, 85440, Note_on_c, 0, 72, 64
2, 85680, Note_off_c, 0, 72, 64
2, 85680, Note_on_c, 0, 67, 64
2, 85920, Note_off_c, 0, 67, 64
2, 85920, Note_on_c, 0, 69, 64
2, 86400, Note_off_c, 0, 69, 64
2, 86400, Note_on_c, 0, 70, 64
2, 86560, Note_off_c, 0, 70, 64
2, 86560, Note_on_c, 0, 67, 64
2, 86720, Note_off_c, 0, 67, 64
2, 86720, Note_on_c, 0, 70, 64
2, 86880, Note_off_c, 0, 70, 64
2, 86880, Note_on_c, 0, 74, 64
2, 87040, Note_off_c, 0, 74, 64
2, 87040, Note_on_c, 0, 70, 64
2, 87200, Note_off_c, 0, 70, 64
2, 87200, Note_on_c, 0, 74, 64
2, 87360, Note_off_c, 0, 74, 64
2, 87360, Note_on_c, 0, 79, 64
2, 88480, Note_off_c, 0, 79, 64
2, 88480, Note_on_c, 0, 78, 64
2, 88640, Note_off_c, 0, 78, 64
2, 88640, Note_on_c, 0, 76, 64
2, 88800, Note_off_c, 0, 76, 64
2, 88800, Note_on_c, 0, 78, 64
2, 88960, Note_off_c, 0, 78, 64
2, 88960, Note_on_c, 0, 81, 64
2, 89120, Note_off_c, 0, 81, 64
2, 89120, Note_on_c, 0, 86, 64
2, 89280, Note_off_c, 0, 86, 64
2, 89280, Note_on_c, 0, 84, 64
2, 91440, Note_off_c, 0, 84, 64
2, 91440, Note_on_c, 0, 81, 64
2, 91680, Note_off_c, 0, 81, 64
2, 91680, Note_on_c, 0, 82, 64
2, 92400, Note_off_c, 0, 82, 64
2, 92400, Note_on_c, 0, 81, 64
2, 92640, Note_off_c, 0, 81, 64
2, 92640, Note_on_c, 0, 82, 64
2, 92880, Note_off_c, 0, 82, 64
2, 92880, Note_on_c, 0, 79, 64
2, 93120, Note_off_c, 0, 79, 64
2, 93120, Note_on_c, 0, 81, 64
2, 94320, Note_off_c, 0, 81, 64
2, 94320, Note_on_c, 0, 79, 64
2, 94560, Note_off_c, 0, 79, 64
2, 94560, Note_on_c, 0, 80, 64
2, 94800, Note_off_c, 0, 80, 64
2, 94800, Note_on_c, 0, 78, 64
2, 95040, Note_off_c, 0, 78, 64
2, 95040, Note_on_c, 0, 79, 64
2, 95760, Note_off_c, 0, 79, 64
2, 95760, Note_on_c, 0, 77, 64
2, 96000, Note_off_c, 0, 77, 64
2, 96000, Note_on_c, 0, 76, 64
2, 97200, Note_off_c, 0, 76, 64
2, 97200, Note_on_c, 0, 74, 64
2, 97440, Note_off_c, 0, 74, 64
2, 97440, Note_on_c, 0, 75, 64
2, 97680, Note_off_c, 0, 75, 64
2, 97680, Note_on_c, 0, 72, 64
2, 97920, Note_off_c, 0, 72, 64
2, 97920, Note_on_c, 0, 74, 64
2, 100080, Note_off_c, 0, 74, 64
2, 100080, Note_on_c, 0, 76, 64
2, 100320, Note_off_c, 0, 76, 64
2, 100320, Note_on_c, 0, 78, 64
2, 100560, Note_off_c, 0, 78, 64
2, 100560, Note_on_c, 0, 79, 64
2, 100800, Note_off_c, 0, 79, 64
2, 100800, Note_on_c, 0, 78, 64
2, 101040, Note_off_c, 0, 78, 64
2, 101040, Note_on_c, 0, 76, 64
2, 101280, Note_off_c, 0, 76, 64
2, 101280, Note_on_c, 0, 74, 64
2, 101520, Note_off_c, 0, 74, 64
2, 101520, Note_on_c, 0, 72, 64
2, 101760, Note_off_c, 0, 72, 64
2, 101760, Note_on_c, 0, 70, 64
2, 102000, Note_off_c, 0, 70, 64
2, 102000, Note_on_c, 0, 67, 64
2, 102240, Note_off_c, 0, 67, 64
2, 102240, Note_on_c, 0, 69, 64
2, 102480, Note_off_c, 0, 69, 64
2, 102480, Note_on_c, 0, 70, 64
2, 102720, Note_off_c, 0, 70, 64
2, 102720, Note_on_c, 0, 69, 64
2, 102960, Note_off_c, 0, 69, 64
2, 102960, Note_on_c, 0, 67, 64
2, 103200, Note_off_c, 0, 67, 64
2, 103200, Note_on_c, 0, 66, 64
2, 103440, Note_off_c, 0, 66, 64
2, 103440, Note_on_c, 0, 64, 64
2, 103680, Note_off_c, 0, 64, 64
2, 103680, Note_on_c, 0, 62, 64
2, 104160, Note_off_c, 0, 62, 64
2, 105840, Note_on_c, 0, 74, 64
2, 106080, Note_off_c, 0, 74, 64
2, 106080, Note_on_c, 0, 75, 64
2, 106320, Note_off_c, 0, 75, 64
2, 106320, Note_on_c, 0, 77, 64
2, 106560, Note_off_c, 0, 77, 64
2, 106560, Note_on_c, 0, 75, 64
2, 106800, Note_off_c, 0, 75, 64
2, 106800, Note_on_c, 0, 74, 64
2, 107040, Note_off_c, 0, 74, 64
2, 107040, Note_on_c, 0, 72, 64
2, 107280, Note_off_c, 0, 72, 64
2, 107280, Note_on_c, 0, 70, 64
2, 107520, Note_off_c, 0, 70, 64
2, 107520, Note_on_c, 0, 69, 64
2, 107760, Note_off_c, 0, 69, 64
2, 107760, Note_on_c, 0, 71, 64
2, 108000, Note_off_c, 0, 71, 64
2, 108000, Note_on_c, 0, 72, 64
2, 108240, Note_off_c, 0, 72, 64
2, 108240, Note_on_c, 0, 74, 64
2, 108480, Note_off_c, 0, 74, 64
2, 108480, Note_on_c, 0, 67, 64
2, 108960, Note_off_c, 0, 67, 64
2, 108960, Note_on_c, 0, 77, 64
2, 109680, Note_off_c, 0, 77, 64
2, 109680, Note_on_c, 0, 74, 64
2, 109920, Note_off_c, 0, 74, 64
2, 109920, Note_on_c, 0, 75, 64
2, 110160, Note_off_c, 0, 75, 64
2, 110160, Note_on_c, 0, 77, 64
2, 110400, Note_off_c, 0, 77, 64
2, 110400, Note_on_c, 0, 71, 64
2, 110880, Note_off_c, 0, 71, 64
2, 110880, Note_on_c, 0, 80, 64
2, 111600, Note_off_c, 0, 80, 64
2, 111600, Note_on_c, 0, 77, 64
2, 111840, Note_off_c, 0, 77, 64
2, 111840, Note_on_c, 0, 79, 64
2, 112080, Note_off_c, 0, 79, 64
2, 112080, Note_on_c, 0, 80, 64
2, 112320, Note_off_c, 0, 80, 64
2, 112320, Note_on_c, 0, 79, 64
2, 112560, Note_off_c, 0, 79, 64
2, 112560, Note_on_c, 0, 77, 64
2, 112800, Note_off_c, 0, 77, 64
2, 112800, Note_on_c, 0, 75, 64
2, 113040, Note_off_c, 0, 75, 64
2, 113040, Note_on_c, 0, 74, 64
2, 113280, Note_off_c, 0, 74, 64
2, 113280, Note_on_c, 0, 72, 64
2, 113520, Note_off_c, 0, 72, 64
2, 113520, Note_on_c, 0, 75, 64
2, 113760, Note_off_c, 0, 75, 64
2, 113760, Note_on_c, 0, 77, 64
2, 114000, Note_off_c, 0, 77, 64
2, 114000, Note_on_c, 0, 79, 64
2, 114240, Note_off_c, 0, 79, 64
2, 114240, Note_on_c, 0, 77, 64
2, 114480, Note_off_c, 0, 77, 64
2, 114480, Note_on_c, 0, 75, 64
2, 114720, Note_off_c, 0, 75, 64
2, 114720, Note_on_c, 0, 74, 64
2, 114960, Note_off_c, 0, 74, 64
2, 114960, Note_on_c, 0, 72, 64
2, 115200, Note_off_c, 0, 72, 64
2, 115200, Note_on_c, 0, 79, 64
2, 115680, Note_off_c, 0, 79, 64
2, 115680, Note_on_c, 0, 67, 64
2, 116160, Note_off_c, 0, 67, 64
2, 116160, Note_on_c, 0, 72, 64
2, 116400, Note_off_c, 0, 72, 64
2, 116400, Note_on_c, 0, 74, 64
2, 116640, Note_off_c, 0, 74, 64
2, 116640, Note_on_c, 0, 75, 64
2, 117600, Note_off_c, 0, 75, 64
2, 117600, Note_on_c, 0, 69, 64
2, 118080, Note_off_c, 0, 69, 64
2, 118080, Note_on_c, 0, 71, 64
2, 118320, Note_off_c, 0, 71, 64
2, 118320, Note_on_c, 0, 72, 64
2, 118560, Note_off_c, 0, 72, 64
2, 118560, Note_on_c, 0, 74, 64
2, 119520, Note_off_c, 0, 74, 64
2, 119520, Note_on_c, 0, 67, 64
2, 120000, Note_off_c, 0, 67, 64
2, 120000, Note_on_c, 0, 69, 64
2, 120240, Note_off_c, 0, 69, 64
2, 120240, Note_on_c, 0, 71, 64
2, 120480, Note_off_c, 0, 71, 64
2, 120480, Note_on_c, 0, 72, 64
2, 121200, Note_off_c, 0, 72, 64
2, 121200, Note_on_c, 0, 69, 64
2, 121440, Note_off_c, 0, 69, 64
2, 121440, Note_on_c, 0, 70, 64
2, 121680, Note_off_c, 0, 70, 64
2, 121680, Note_on_c, 0, 72, 64
2, 121920, Note_off_c, 0, 72, 64
2, 121920, Note_on_c, 0, 70, 64
2, 122160, Note_off_c, 0, 70, 64
2, 122160, Note_on_c, 0, 69, 64
2, 122400, Note_off_c, 0, 69, 64
2, 122400, Note_on_c, 0, 67, 64
2, 122640, Note_off_c, 0, 67, 64
2, 122640, Note_on_c, 0, 66, 64
2, 122880, Note_off_c, 0, 66, 64
2, 122880, Note_on_c, 0, 67, 64
2, 125280, Note_off_c, 0, 67, 64
2, 125280, Note_on_c, 0, 72, 64
2, 126240, Note_off_c, 0, 72, 64
2, 126240, Note_on_c, 0, 70, 64
2, 127200, Note_off_c, 0, 70, 64
2, 127200, Note_on_c, 0, 68, 64
2, 127440, Note_off_c, 0, 68, 64
2, 127440, Note_on_c, 0, 67, 64
2, 127680, Note_off_c, 0, 67, 64
2, 127680, Note_on_c, 0, 68, 64
2, 129360, Note_off_c, 0, 68, 64
2, 129360, Note_on_c, 0, 66, 64
2, 129600, Note_off_c, 0, 66, 64
2, 129600, Note_on_c, 0, 67, 64
2, 131280, Note_off_c, 0, 67, 64
2, 131280, Note_on_c, 0, 64, 64
2, 131520, Note_off_c, 0, 64, 64
2, 131520, Note_on_c, 0, 65, 64
2, 131760, Note_off_c, 0, 65, 64
2, 131760, Note_on_c, 0, 68, 64
2, 132000, Note_off_c, 0, 68, 64
2, 132000, Note_on_c, 0, 70, 64
2, 132240, Note_off_c, 0, 70, 64
2, 132240, Note_on_c, 0, 72, 64
2, 132480, Note_off_c, 0, 72, 64
2, 132480, Note_on_c, 0, 70, 64
2, 132720, Note_off_c, 0, 70, 64
2, 132720, Note_on_c, 0, 68, 64
2, 132960, Note_off_c, 0, 68, 64
2, 132960, Note_on_c, 0, 67, 64
2, 133200, Note_off_c, 0, 67, 64
2, 133200, Note_on_c, 0, 65, 64
2, 133440, Note_off_c, 0, 65, 64
2, 133440, Note_on_c, 0, 67, 64
2, 133680, Note_off_c, 0, 67, 64
2, 133680, Note_on_c, 0, 70, 64
2, 133920, Note_off_c, 0, 70, 64
2, 133920, Note_on_c, 0, 72, 64
2, 134160, Note_off_c, 0, 72, 64
2, 134160, Note_on_c, 0, 73, 64
2, 134400, Note_off_c, 0, 73, 64
2, 134400, Note_on_c, 0, 72, 64
2, 134640, Note_off_c, 0, 72, 64
2, 134640, Note_on_c, 0, 70, 64
2, 134880, Note_off_c, 0, 70, 64
2, 134880, Note_on_c, 0, 68, 64
2, 135120, Note_off_c, 0, 68, 64
2, 135120, Note_on_c, 0, 67, 64
2, 135360, Note_off_c, 0, 67, 64
2, 135360, Note_on_c, 0, 68, 64
2, 135600, Note_off_c, 0, 68, 64
2, 135600, Note_on_c, 0, 72, 64
2, 135840, Note_off_c, 0, 72, 64
2, 135840, Note_on_c, 0, 74, 64
2, 136080, Note_off_c, 0, 74, 64
2, 136080, Note_on_c, 0, 76, 64
2, 136320, Note_off_c, 0, 76, 64
2, 136320, Note_on_c, 0, 77, 64
2, 137280, Note_off_c, 0, 77, 64
2, 137280, Note_on_c, 0, 80, 64
2, 138240, Note_off_c, 0, 80, 64
2, 138240, Note_on_c, 0, 84, 64
2, 139200, Note_off_c, 0, 84, 64
2, 139200, Note_on_c, 0, 85, 64
2, 140160, Note_off_c, 0, 85, 64
2, 140160, Note_on_c, 0, 76, 64
2, 141120, Note_off_c, 0, 76, 64
2, 141600, Note_on_c, 0, 84, 64
2, 142080, Note_off_c, 0, 84, 64
2, 142080, Note_on_c, 0, 83, 64
2, 143040, Note_off_c, 0, 83, 64
2, 143040, Note_on_c, 0, 82, 64
2, 144000, Note_off_c, 0, 82, 64
2, 144000, Note_on_c, 0, 81, 64
2, 144960, Note_off_c, 0, 81, 64
2, 144960, Note_on_c, 0, 80, 64
2, 146400, Note_off_c, 0, 80, 64
2, 146400, Note_on_c, 0, 79, 64
2, 146880, Note_off_c, 0, 79, 64
2, 146880, Note_on_c, 0, 78, 64
2, 147360, Note_off_c, 0, 78, 64
2, 147360, Note_on_c, 0, 77, 64
2, 147840, Note_off_c, 0, 77, 64
2, 147840, Note_on_c, 0, 76, 64
2, 148320, Note_off_c, 0, 76, 64
2, 148320, Note_on_c, 0, 74, 64
2, 148560, Note_off_c, 0, 74, 64
2, 148560, Note_on_c, 0, 72, 64
2, 148800, Note_off_c, 0, 72, 64
2, 148800, Note_on_c, 0, 77, 64
2, 149280, Note_off_c, 0, 77, 64
2, 149280, Note_on_c, 0, 82, 64
2, 149760, Note_off_c, 0, 82, 64
2, 149760, Note_on_c, 0, 80, 64
2, 150720, Note_off_c, 0, 80, 64
2, 150720, Note_on_c, 0, 80, 64
2, 150840, Note_off_c, 0, 80, 64
2, 150840, Note_on_c, 0, 79, 64
2, 150960, Note_off_c, 0, 79, 64
2, 150960, Note_on_c, 0, 80, 64
2, 151080, Note_off_c, 0, 80, 64
2, 151080, Note_on_c, 0, 79, 64
2, 151200, Note_off_c, 0, 79, 64
2, 151200, Note_on_c, 0, 80, 64
2, 151320, Note_off_c, 0, 80, 64
2, 151320, Note_on_c, 0, 79, 64
2, 151440, Note_off_c, 0, 79, 64
2, 151440, Note_on_c, 0, 78, 64
2, 151560, Note_off_c, 0, 78, 64
2, 151560, Note_on_c, 0, 79, 64
2, 151680, Note_off_c, 0, 79, 64
2, 151680, Note_on_c, 0, 78, 64
2, 152160, Note_off_c, 0, 78, 64
2, 152160, Note_on_c, 0, 75, 64
2, 152400, Note_off_c, 0, 75, 64
2, 152400, Note_on_c, 0, 74, 64
2, 152640, Note_off_c, 0, 74, 64
2, 152640, Note_on_c, 0, 79, 64
2, 153120, Note_off_c, 0, 79, 64
2, 153120, Note_on_c, 0, 84, 64
2, 153600, Note_off_c, 0, 84, 64
2, 153600, Note_on_c, 0, 83, 64
2, 154080, Note_off_c, 0, 83, 64
2, 154080, Note_on_c, 0, 82, 64
2, 154560, Note_off_c, 0, 82, 64
2, 154560, Note_on_c, 0, 81, 64
2, 155040, Note_off_c, 0, 81, 64
2, 155040, Note_on_c, 0, 80, 64
2, 155520, Note_off_c, 0, 80, 64
2, 155520, Note_on_c, 0, 79, 64
2, 156720, Note_off_c, 0, 79, 64
2, 156720, Note_on_c, 0, 79, 64
2, 156960, Note_off_c, 0, 79, 64
2, 156960, Note_on_c, 0, 81, 64
2, 157200, Note_off_c, 0, 81, 64
2, 157200, Note_on_c, 0, 82, 64
2, 157440, Note_off_c, 0, 82, 64
2, 157440, Note_on_c, 0, 81, 64
2, 157680, Note_off_c, 0, 81, 64
2, 157680, Note_on_c, 0, 79, 64
2, 157920, Note_off_c, 0, 79, 64
2, 157920, Note_on_c, 0, 77, 64
2, 158640, Note_off_c, 0, 77, 64
2, 158640, Note_on_c, 0, 77, 64
2, 158880, Note_off_c, 0, 77, 64
2, 158880, Note_on_c, 0, 79, 64
2, 159120, Note_off_c, 0, 79, 64
2, 159120, Note_on_c, 0, 80, 64
2, 159360, Note_off_c, 0, 80, 64
2, 159360, Note_on_c, 0, 79, 64
2, 159600, Note_off_c, 0, 79, 64
2, 159600, Note_on_c, 0, 77, 64
2, 159840, Note_off_c, 0, 77, 64
2, 159840, Note_on_c, 0, 75, 64
2, 160560, Note_off_c, 0, 75, 64
2, 160560, Note_on_c, 0, 72, 64
2, 160800, Note_off_c, 0, 72, 64
2, 160800, Note_on_c, 0, 74, 64
2, 161040, Note_off_c, 0, 74, 64
2, 161040, Note_on_c, 0, 75, 64
2, 161280, Note_off_c, 0, 75, 64
2, 161280, Note_on_c, 0, 74, 64
2, 161520, Note_off_c, 0, 74, 64
2, 161520, Note_on_c, 0, 72, 64
2, 161760, Note_off_c, 0, 72, 64
2, 161760, Note_on_c, 0, 77, 64
2, 162480, Note_off_c, 0, 77, 64
2, 162480, Note_on_c, 0, 74, 64
2, 162720, Note_off_c, 0, 74, 64
2, 162720, Note_on_c, 0, 75, 64
2, 162960, Note_off_c, 0, 75, 64
2, 162960, Note_on_c, 0, 77, 64
2, 163200, Note_off_c, 0, 77, 64
2, 163200, Note_on_c, 0, 75, 64
2, 163440, Note_off_c, 0, 75, 64
2, 163440, Note_on_c, 0, 74, 64
2, 163680, Note_off_c, 0, 74, 64
2, 163680, Note_on_c, 0, 79, 64
2, 164400, Note_off_c, 0, 79, 64
2, 164400, Note_on_c, 0, 75, 64
2, 164640, Note_off_c, 0, 75, 64
2, 164640, Note_on_c, 0, 77, 64
2, 164880, Note_off_c, 0, 77, 64
2, 164880, Note_on_c, 0, 74, 64
2, 165120, Note_off_c, 0, 74, 64
2, 165120, Note_on_c, 0, 75, 64
2, 165600, Note_off_c, 0, 75, 64
2, 167200, Note_on_c, 0, 72, 64
2, 167360, Note_off_c, 0, 72, 64
2, 167360, Note_on_c, 0, 77, 64
2, 167520, Note_off_c, 0, 77, 64
2, 167520, Note_on_c, 0, 80, 64
2, 167680, Note_off_c, 0, 80, 64
2, 167680, Note_on_c, 0, 77, 64
2, 167840, Note_off_c, 0, 77, 64
2, 167840, Note_on_c, 0, 80, 64
2, 168000, Note_off_c, 0, 80, 64
2, 168000, Note_on_c, 0, 84, 64
2, 168160, Note_off_c, 0, 84, 64
2, 168160, Note_on_c, 0, 78, 64
2, 168320, Note_off_c, 0, 78, 64
2, 168320, Note_on_c, 0, 77, 64
2, 168480, Note_off_c, 0, 77, 64
2, 168480, Note_on_c, 0, 75, 64
2, 168640, Note_off_c, 0, 75, 64
2, 168640, Note_on_c, 0, 73, 64
2, 168800, Note_off_c, 0, 73, 64
2, 168800, Note_on_c, 0, 72, 64
2, 168960, Note_off_c, 0, 72, 64
2, 168960, Note_on_c, 0, 73, 64
2, 169440, Note_off_c, 0, 73, 64
2, 171040, Note_on_c, 0, 70, 64
2, 171200, Note_off_c, 0, 70, 64
2, 171200, Note_on_c, 0, 75, 64
2, 171360, Note_off_c, 0, 75, 64
2, 171360, Note_on_c, 0, 78, 64
2, 171520, Note_off_c, 0, 78, 64
2, 171520, Note_on_c, 0, 75, 64
2, 171680, Note_off_c, 0, 75, 64
2, 171680, Note_on_c, 0, 78, 64
2, 171840, Note_off_c, 0, 78, 64
2, 171840, Note_on_c, 0, 82, 64
2, 172000, Note_off_c, 0, 82, 64
2, 172000, Note_on_c, 0, 76, 64
2, 172160, Note_off_c, 0, 76, 64
2, 172160, Note_on_c, 0, 75, 64
2, 172320, Note_off_c, 0, 75, 64
2, 172320, Note_on_c, 0, 73, 64
2, 172480, Note_off_c, 0, 73, 64
2, 172480, Note_on_c, 0, 71, 64
2, 172640, Note_off_c, 0, 71, 64
2, 172640, Note_on_c, 0, 70, 64
2, 172800, Note_off_c, 0, 70, 64
2, 172800, Note_on_c, 0, 71, 64
2, 173280, Note_off_c, 0, 71, 64
2, 174480, Note_on_c, 0, 68, 64
2, 174720, Note_off_c, 0, 68, 64
2, 174720, Note_on_c, 0, 67, 64
2, 175200, Note_off_c, 0, 67, 64
2, 176400, Note_on_c, 0, 66, 64
2, 176640, Note_off_c, 0, 66, 64
2, 176640, Note_on_c, 0, 65, 64
2, 176880, Note_off_c, 0, 65, 64
2, 178320, Note_on_c, 0, 70, 64
2, 178560, Note_off_c, 0, 70, 64
2, 178560, Note_on_c, 0, 69, 64
2, 179040, Note_off_c, 0, 69, 64
2, 180240, Note_on_c, 0, 68, 64
2, 180480, Note_off_c, 0, 68, 64
2, 180480, Note_on_c, 0, 67, 64
2, 180960, Note_off_c, 0, 67, 64
2, 181680, Note_on_c, 0, 79, 64
2, 181920, Note_off_c, 0, 79, 64
2, 181920, Note_on_c, 0, 77, 64
2, 182160, Note_off_c, 0, 77, 64
2, 182160, Note_on_c, 0, 75, 64
2, 182400, Note_off_c, 0, 75, 64
2, 182400, Note_on_c, 0, 74, 64
2, 182880, Note_off_c, 0, 74, 64
2, 183600, Note_on_c, 0, 75, 64
2, 183840, Note_off_c, 0, 75, 64
2, 183840, Note_on_c, 0, 74, 64
2, 184080, Note_off_c, 0, 74, 64
2, 184080, Note_on_c, 0, 72, 64
2, 184320, Note_off_c, 0, 72, 64
2, 184320, Note_on_c, 0, 74, 64
2, 184560, Note_off_c, 0, 74, 64
2, 184560, Note_on_c, 0, 67, 64
2, 184800, Note_off_c, 0, 67, 64
2, 184800, Note_on_c, 0, 68, 64
2, 185040, Note_off_c, 0, 68, 64
2, 185040, Note_on_c, 0, 65, 64
2, 185280, Note_off_c, 0, 65, 64
2, 185280, Note_on_c, 0, 67, 64
2, 185760, Note_off_c, 0, 67, 64
2, 186000, Note_on_c, 0, 79, 64
2, 186240, Note_off_c, 0, 79, 64
2, 186240, Note_on_c, 0, 81, 64
2, 186480, Note_off_c, 0, 81, 64
2, 186480, Note_on_c, 0, 83, 64
2, 186720, Note_off_c, 0, 83, 64
2, 186720, Note_on_c, 0, 84, 64
2, 187440, Note_off_c, 0, 84, 64
2, 187440, Note_on_c, 0, 81, 64
2, 187680, Note_off_c, 0, 81, 64
2, 187680, Note_on_c, 0, 83, 64
2, 187920, Note_off_c, 0, 83, 64
2, 187920, Note_on_c, 0, 86, 64
2, 188160, Note_off_c, 0, 86, 64
2, 188160, Note_on_c, 0, 79, 64
2, 189360, Note_off_c, 0, 79, 64
2, 189360, Note_on_c, 0, 78, 64
2, 189600, Note_off_c, 0, 78, 64
2, 189600, Note_on_c, 0, 79, 64
2, 190320, Note_off_c, 0, 79, 64
2, 190320, Note_on_c, 0, 72, 64
2, 190560, Note_off_c, 0, 72, 64
2, 190560, Note_on_c, 0, 77, 64
2, 190800, Note_off_c, 0, 77, 64
2, 190800, Note_on_c, 0, 76, 64
2, 191040, Note_off_c, 0, 76, 64
2, 191040, Note_on_c, 0, 77, 64
2, 192240, Note_off_c, 0, 77, 64
2, 192240, Note_on_c, 0, 74, 64
2, 192480, Note_off_c, 0, 74, 64
2, 192480, Note_on_c, 0, 75, 64
2, 192720, Note_off_c, 0, 75, 64
2, 192720, Note_on_c, 0, 77, 64
2, 192960, Note_off_c, 0, 77, 64
2, 192960, Note_on_c, 0, 75, 64
2, 193200, Note_off_c, 0, 75, 64
2, 193200, Note_on_c, 0, 74, 64
2, 193440, Note_off_c, 0, 74, 64
2, 193440, Note_on_c, 0, 72, 64
2, 193680, Note_off_c, 0, 72, 64
2, 193680, Note_on_c, 0, 71, 64
2, 193920, Note_off_c, 0, 71, 64
2, 193920, Note_on_c, 0, 72, 64
2, 194160, Note_off_c, 0, 72, 64
2, 194160, Note_on_c, 0, 71, 64
2, 194400, Note_off_c, 0, 71, 64
2, 194400, Note_on_c, 0, 72, 64
2, 194640, Note_off_c, 0, 72, 64
2, 194640, Note_on_c, 0, 74, 64
2, 194880, Note_off_c, 0, 74, 64
2, 194880, Note_on_c, 0, 72, 64
2, 195120, Note_off_c, 0, 72, 64
2, 195120, Note_on_c, 0, 70, 64
2, 195360, Note_off_c, 0, 70, 64
2, 195360, Note_on_c, 0, 69, 64
2, 195600, Note_off_c, 0, 69, 64
2, 195600, Note_on_c, 0, 67, 64
2, 195840, Note_off_c, 0, 67, 64
2, 195840, Note_on_c, 0, 69, 64
2, 197280, Note_off_c, 0, 69, 64
2, 197280, Note_on_c, 0, 82, 64
2, 197760, Note_off_c, 0, 82, 64
2, 197760, Note_on_c, 0, 81, 64
2, 198240, Note_off_c, 0, 81, 64
2, 198240, Note_on_c, 0, 74, 64
2, 199200, Note_off_c, 0, 74, 64
2, 199200, Note_on_c, 0, 72, 64
2, 199920, Note_off_c, 0, 72, 64
2, 199920, Note_on_c, 0, 69, 64
2, 200160, Note_off_c, 0, 69, 64
2, 200160, Note_on_c, 0, 70, 64
2, 200400, Note_off_c, 0, 70, 64
2, 200400, Note_on_c, 0, 67, 64
2, 200640, Note_off_c, 0, 67, 64
2, 200640, Note_on_c, 0, 64, 64
2, 200880, Note_off_c, 0, 64, 64
2, 200880, Note_on_c, 0, 70, 64
2, 201120, Note_off_c, 0, 70, 64
2, 201120, Note_on_c, 0, 69, 64
2, 201360, Note_off_c, 0, 69, 64
2, 201360, Note_on_c, 0, 63, 64
2, 201600, Note_off_c, 0, 63, 64
2, 201600, Note_on_c, 0, 62, 64
2, 202080, Note_off_c, 0, 62, 64
2, 202080, Note_on_c, 0, 74, 64
2, 202560, Note_off_c, 0, 74, 64
2, 202560, Note_on_c, 0, 73, 64
2, 203040, Note_off_c, 0, 73, 64
2, 203040, Note_on_c, 0, 72, 64
2, 203520, Note_off_c, 0, 72, 64
2, 203520, Note_on_c, 0, 71, 64
2, 203760, Note_off_c, 0, 71, 64
2, 203760, Note_on_c, 0, 69, 64
2, 204000, Note_off_c, 0, 69, 64
2, 204000, Note_on_c, 0, 70, 64
2, 204720, Note_off_c, 0, 70, 64
2, 204720, Note_on_c, 0, 69, 64
2, 204960, Note_off_c, 0, 69, 64
2, 204960, Note_on_c, 0, 75, 64
2, 205680, Note_off_c, 0, 75, 64
2, 205680, Note_on_c, 0, 74, 64
2, 205920, Note_off_c, 0, 74, 64
2, 205920, Note_on_c, 0, 79, 64
2, 206400, Note_off_c, 0, 79, 64
2, 206880, Note_on_c, 0, 81, 64
2, 207120, Note_off_c, 0, 81, 64
2, 207120, Note_on_c, 0, 72, 64
2, 207360, Note_off_c, 0, 72, 64
2, 207360, Note_on_c, 0, 72, 64
2, 207600, Note_off_c, 0, 72, 64
2, 207600, Note_on_c, 0, 71, 64
2, 207840, Note_off_c, 0, 71, 64
2, 208560, Note_on_c, 0, 73, 64
2, 208800, Note_off_c, 0, 73, 64
2, 208800, Note_on_c, 0, 72, 64
2, 209040, Note_off_c, 0, 72, 64
2, 209040, Note_on_c, 0, 70, 64
2, 209280, Note_off_c, 0, 70, 64
2, 209520, Note_on_c, 0, 70, 64
2, 209760, Note_off_c, 0, 70, 64
2, 209760, Note_on_c, 0, 68, 64
2, 210000, Note_off_c, 0, 68, 64
2, 210000, Note_on_c, 0, 67, 64
2, 210240, Note_off_c, 0, 67, 64
2, 210480, Note_on_c, 0, 67, 64
2, 210720, Note_off_c, 0, 67, 64
2, 210720, Note_on_c, 0, 65, 64
2, 210960, Note_off_c, 0, 65, 64
2, 210960, Note_on_c, 0, 64, 64
2, 211200, Note_off_c, 0, 64, 64
2, 211200, Note_on_c, 0, 64, 64
2, 211440, Note_off_c, 0, 64, 64
2, 211440, Note_on_c, 0, 65, 64
2, 211680, Note_off_c, 0, 65, 64
2, 211920, Note_on_c, 0, 74, 64
2, 212160, Note_off_c, 0, 74, 64
2, 212400, Note_on_c, 0, 77, 64
2, 212640, Note_off_c, 0, 77, 64
2, 212880, Note_on_c, 0, 74, 64
2, 213120, Note_off_c, 0, 74, 64
2, 213360, Note_on_c, 0, 84, 64
2, 213600, Note_off_c, 0, 84, 64
2, 213600, Note_on_c, 0, 82, 64
2, 213840, Note_off_c, 0, 82, 64
2, 213840, Note_on_c, 0, 80, 64
2, 214080, Note_off_c, 0, 80, 64
2, 214320, Note_on_c, 0, 80, 64
2, 214560, Note_off_c, 0, 80, 64
2, 214560, Note_on_c, 0, 79, 64
2, 214800, Note_off_c, 0, 79, 64
2, 214800, Note_on_c, 0, 77, 64
2, 215040, Note_off_c, 0, 77, 64
2, 215040, Note_on_c, 0, 77, 64
2, 215280, Note_off_c, 0, 77, 64
2, 215280, Note_on_c, 0, 79, 64
2, 215520, Note_off_c, 0, 79, 64
2, 215760, Note_on_c, 0, 72, 64
2, 216000, Note_off_c, 0, 72, 64
2, 216000, Note_on_c, 0, 72, 64
2, 216240, Note_off_c, 0, 72, 64
2, 216240, Note_on_c, 0, 71, 64
2, 216480, Note_off_c, 0, 71, 64
2, 216480, Note_on_c, 0, 77, 64
2, 217440, Note_off_c, 0, 77, 64
2, 217440, Note_on_c, 0, 75, 64
2, 217680, Note_off_c, 0, 75, 64
2, 217680, Note_on_c, 0, 68, 64
2, 217920, Note_off_c, 0, 68, 64
2, 217920, Note_on_c, 0, 68, 64
2, 218160, Note_off_c, 0, 68, 64
2, 218160, Note_on_c, 0, 67, 64
2, 218400, Note_off_c, 0, 67, 64
2, 218400, Note_on_c, 0, 73, 64
2, 219360, Note_off_c, 0, 73, 64
2, 219360, Note_on_c, 0, 72, 64
2, 219600, Note_off_c, 0, 72, 64
2, 219600, Note_on_c, 0, 75, 64
2, 219840, Note_off_c, 0, 75, 64
2, 219840, Note_on_c, 0, 74, 64
2, 220080, Note_off_c, 0, 74, 64
2, 220080, Note_on_c, 0, 73, 64
2, 220320, Note_off_c, 0, 73, 64
2, 220320, Note_on_c, 0, 72, 64
2, 220560, Note_off_c, 0, 72, 64
2, 220560, Note_on_c, 0, 71, 64
2, 220800, Note_off_c, 0, 71, 64
2, 220800, Note_on_c, 0, 71, 64
2, 221040, Note_off_c, 0, 71, 64
2, 221040, Note_on_c, 0, 70, 64
2, 221280, Note_off_c, 0, 70, 64
2, 222480, Note_on_c, 0, 75, 64
2, 222720, Note_off_c, 0, 75, 64
2, 222720, Note_on_c, 0, 75, 64
2, 222960, Note_off_c, 0, 75, 64
2, 222960, Note_on_c, 0, 74, 64
2, 223200, Note_off_c, 0, 74, 64
2, 223440, Note_on_c, 0, 68, 64
2, 223680, Note_off_c, 0, 68, 64
2, 223680, Note_on_c, 0, 67, 64
2, 223920, Note_off_c, 0, 67, 64
2, 223920, Note_on_c, 0, 66, 64
2, 224160, Note_off_c, 0, 66, 64
2, 224160, Note_on_c, 0, 65, 64
2, 224400, Note_off_c, 0, 65, 64
2, 224400, Note_on_c, 0, 64, 64
2, 224640, Note_off_c, 0, 64, 64
2, 224640, Note_on_c, 0, 64, 64
2, 224880, Note_off_c, 0, 64, 64
2, 224880, Note_on_c, 0, 63, 64
2, 225120, Note_off_c, 0, 63, 64
2, 225360, Note_on_c, 0, 63, 64
2, 225600, Note_off_c, 0, 63, 64
2, 225600, Note_on_c, 0, 64, 64
2, 225840, Note_off_c, 0, 64, 64
2, 225840, Note_on_c, 0, 65, 64
2, 226080, Note_off_c, 0, 65, 64
2, 226080, Note_on_c, 0, 66, 64
2, 226320, Note_off_c, 0, 66, 64
2, 226320, Note_on_c, 0, 67, 64
2, 226560, Note_off_c, 0, 67, 64
2, 226560, Note_on_c, 0, 68, 64
2, 226800, Note_off_c, 0, 68, 64
2, 226800, Note_on_c, 0, 67, 64
2, 227040, Note_off_c, 0, 67, 64
2, 227040, Note_on_c, 0, 66, 64
2, 227280, Note_off_c, 0, 66, 64
2, 227280, Note_on_c, 0, 65, 64
2, 227520, Note_off_c, 0, 65, 64
2, 227520, Note_on_c, 0, 70, 64
2, 228720, Note_off_c, 0, 70, 64
2, 228720, Note_on_c, 0, 67, 64
2, 228960, Note_off_c, 0, 67, 64
2, 228960, Note_on_c, 0, 68, 64
2, 229200, Note_off_c, 0, 68, 64
2, 229200, Note_on_c, 0, 65, 64
2, 229440, Note_off_c, 0, 65, 64
2, 229440, Note_on_c, 0, 66, 64
2, 229680, Note_off_c, 0, 66, 64
2, 229680, Note_on_c, 0, 67, 64
2, 229920, Note_off_c, 0, 67, 64
2, 229920, Note_on_c, 0, 68, 64
2, 230160, Note_off_c, 0, 68, 64
2, 230160, Note_on_c, 0, 69, 64
2, 230400, Note_off_c, 0, 69, 64
2, 230400, Note_on_c, 0, 70, 64
2, 230640, Note_off_c, 0, 70, 64
2, 230640, Note_on_c, 0, 69, 64
2, 230880, Note_off_c, 0, 69, 64
2, 230880, Note_on_c, 0, 68, 64
2, 231120, Note_off_c, 0, 68, 64
2, 231120, Note_on_c, 0, 67, 64
2, 231360, Note_off_c, 0, 67, 64
2, 231360, Note_on_c, 0, 72, 64
2, 232560, Note_off_c, 0, 72, 64
2, 232560, Note_on_c, 0, 69, 64
2, 232800, Note_off_c, 0, 69, 64
2, 232800, Note_on_c, 0, 70, 64
2, 233280, Note_off_c, 0, 70, 64
2, 234720, Note_on_c, 0, 67, 64
2, 235200, Note_off_c, 0, 67, 64
2, 235200, Note_on_c, 0, 66, 64
2, 235680, Note_off_c, 0, 66, 64
2, 235680, Note_on_c, 0, 65, 64
2, 236640, Note_off_c, 0, 65, 64
2, 236640, Note_on_c, 0, 63, 64
2, 236880, Note_off_c, 0, 63, 64
2, 236880, Note_on_c, 0, 62, 64
2, 237120, Note_off_c, 0, 62, 64
2, 237120, Note_on_c, 0, 63, 64
2, 237280, Note_off_c, 0, 63, 64
2, 237280, Note_on_c, 0, 65, 64
2, 237440, Note_off_c, 0, 65, 64
2, 237440, Note_on_c, 0, 67, 64
2, 237600, Note_off_c, 0, 67, 64
2, 237600, Note_on_c, 0, 65, 64
2, 237760, Note_off_c, 0, 65, 64
2, 237760, Note_on_c, 0, 63, 64
2, 237920, Note_off_c, 0, 63, 64
2, 237920, Note_on_c, 0, 62, 64
2, 238080, Note_off_c, 0, 62, 64
2, 238080, Note_on_c, 0, 60, 64
2, 238560, Note_off_c, 0, 60, 64
2, 238560, Note_on_c, 0, 72, 64
2, 239040, Note_off_c, 0, 72, 64
2, 239040, Note_on_c, 0, 71, 64
2, 239520, Note_off_c, 0, 71, 64
2, 239520, Note_on_c, 0, 70, 64
2, 240000, Note_off_c, 0, 70, 64
2, 240000, Note_on_c, 0, 69, 64
2, 240480, Note_off_c, 0, 69, 64
2, 240480, Note_on_c, 0, 68, 64
2, 241440, Note_off_c, 0, 68, 64
2, 241440, Note_on_c, 0, 67, 64
2, 241680, Note_off_c, 0, 67, 64
2, 241680, Note_on_c, 0, 65, 64
2, 241920, Note_off_c, 0, 65, 64
2, 241920, Note_on_c, 0, 64, 64
2, 242160, Note_off_c, 0, 64, 64
2, 242160, Note_on_c, 0, 62, 64
2, 242280, Note_off_c, 0, 62, 64
2, 242280, Note_on_c, 0, 60, 64
2, 242400, Note_off_c, 0, 60, 64
2, 242400, Note_on_c, 0, 65, 64
2, 242640, Note_off_c, 0, 65, 64
2, 242640, Note_on_c, 0, 70, 64
2, 242880, Note_off_c, 0, 70, 64
2, 242880, Note_on_c, 0, 68, 64
2, 243360, Note_off_c, 0, 68, 64
2, 243360, Note_on_c, 0, 67, 64
2, 243840, Note_off_c, 0, 67, 64
2, 243840, Note_on_c, 0, 65, 64
2, 244000, Note_off_c, 0, 65, 64
2, 244000, Note_on_c, 0, 67, 64
2, 244160, Note_off_c, 0, 67, 64
2, 244160, Note_on_c, 0, 68, 64
2, 244320, Note_off_c, 0, 68, 64
2, 244320, Note_on_c, 0, 70, 64
2, 244480, Note_off_c, 0, 70, 64
2, 244480, Note_on_c, 0, 68, 64
2, 244640, Note_off_c, 0, 68, 64
2, 244640, Note_on_c, 0, 67, 64
2, 244800, Note_off_c, 0, 67, 64
2, 244800, Note_on_c, 0, 68, 64
2, 244960, Note_off_c, 0, 68, 64
2, 244960, Note_on_c, 0, 70, 64
2, 245120, Note_off_c, 0, 70, 64
2, 245120, Note_on_c, 0, 72, 64
2, 245280, Note_off_c, 0, 72, 64
2, 245280, Note_on_c, 0, 73, 64
2, 245440, Note_off_c, 0, 73, 64
2, 245440, Note_on_c, 0, 72, 64
2, 245600, Note_off_c, 0, 72, 64
2, 245600, Note_on_c, 0, 70, 64
2, 245760, Note_off_c, 0, 70, 64
2, 245760, Note_on_c, 0, 72, 64
2, 246240, Note_off_c, 0, 72, 64
2, 246240, Note_on_c, 0, 77, 64
2, 247200, Note_off_c, 0, 77, 64
2, 247200, Note_on_c, 0, 75, 64
2, 247920, Note_off_c, 0, 75, 64
2, 247920, Note_on_c, 0, 73, 64
2, 248160, Note_off_c, 0, 73, 64
2, 248160, Note_on_c, 0, 72, 64
2, 248400, Note_off_c, 0, 72, 64
2, 248400, Note_on_c, 0, 70, 64
2, 248640, Note_off_c, 0, 70, 64
2, 248640, Note_on_c, 0, 68, 64
2, 248880, Note_off_c, 0, 68, 64
2, 248880, Note_on_c, 0, 71, 64
2, 249120, Note_off_c, 0, 71, 64
2, 249120, Note_on_c, 0, 70, 64
2, 249360, Note_off_c, 0, 70, 64
2, 249360, Note_on_c, 0, 68, 64
2, 249600, Note_off_c, 0, 68, 64
2, 249600, Note_on_c, 0, 70, 64
2, 250080, Note_off_c, 0, 70, 64
2, 250080, Note_on_c, 0, 75, 64
2, 251040, Note_off_c, 0, 75, 64
2, 251040, Note_on_c, 0, 73, 64
2, 251760, Note_off_c, 0, 73, 64
2, 251760, Note_on_c, 0, 72, 64
2, 252000, Note_off_c, 0, 72, 64
2, 252000, Note_on_c, 0, 70, 64
2, 252240, Note_off_c, 0, 70, 64
2, 252240, Note_on_c, 0, 68, 64
2, 252480, Note_off_c, 0, 68, 64
2, 252480, Note_on_c, 0, 66, 64
2, 252720, Note_off_c, 0, 66, 64
2, 252720, Note_on_c, 0, 69, 64
2, 252960, Note_off_c, 0, 69, 64
2, 252960, Note_on_c, 0, 68, 64
2, 253200, Note_off_c, 0, 68, 64
2, 253200, Note_on_c, 0, 66, 64
2, 253440, Note_off_c, 0, 66, 64
2, 253440, Note_on_c, 0, 68, 64
2, 253920, Note_off_c, 0, 68, 64
2, 253920, Note_on_c, 0, 73, 64
2, 254880, Note_off_c, 0, 73, 64
2, 254880, Note_on_c, 0, 72, 64
2, 255840, Note_off_c, 0, 72, 64
2, 255840, Note_on_c, 0, 70, 64
2, 256800, Note_off_c, 0, 70, 64
2, 256800, Note_on_c, 0, 68, 64
2, 257040, Note_off_c, 0, 68, 64
2, 257040, Note_on_c, 0, 67, 64
2, 257280, Note_off_c, 0, 67, 64
2, 257280, Note_on_c, 0, 65, 64
2, 258240, Note_off_c, 0, 65, 64
2, 258720, Note_on_c, 0, 70, 64
2, 259440, Note_off_c, 0, 70, 64
2, 259440, Note_on_c, 0, 68, 64
2, 259680, Note_off_c, 0, 68, 64
2, 259680, Note_on_c, 0, 67, 64
2, 259920, Note_off_c, 0, 67, 64
2, 259920, Note_on_c, 0, 65, 64
2, 260160, Note_off_c, 0, 65, 64
2, 260160, Note_on_c, 0, 64, 64
2, 260400, Note_off_c, 0, 64, 64
2, 260400, Note_on_c, 0, 73, 64
2, 260640, Note_off_c, 0, 73, 64
2, 260640, Note_on_c, 0, 72, 64
2, 260880, Note_off_c, 0, 72, 64
2, 260880, Note_on_c, 0, 70, 64
2, 261120, Note_off_c, 0, 70, 64
2, 261120, Note_on_c, 0, 68, 64
2, 261360, Note_off_c, 0, 68, 64
2, 261360, Note_on_c, 0, 67, 64
2, 261600, Note_off_c, 0, 67, 64
2, 261600, Note_on_c, 0, 65, 64
2, 261840, Note_off_c, 0, 65, 64
2, 261840, Note_on_c, 0, 67, 64
2, 262080, Note_off_c, 0, 67, 64
2, 262080, Note_on_c, 0, 68, 64
2, 263280, Note_off_c, 0, 68, 64
2, 263280, Note_on_c, 0, 72, 64
2, 263520, Note_off_c, 0, 72, 64
2, 263520, Note_on_c, 0, 70, 64
2, 263760, Note_off_c, 0, 70, 64
2, 263760, Note_on_c, 0, 68, 64
2, 264000, Note_off_c, 0, 68, 64
2, 264000, Note_on_c, 0, 67, 64
2, 264240, Note_off_c, 0, 67, 64
2, 264240, Note_on_c, 0, 77, 64
2, 264480, Note_off_c, 0, 77, 64
2, 264480, Note_on_c, 0, 75, 64
2, 264720, Note_off_c, 0, 75, 64
2, 264720, Note_on_c, 0, 73, 64
2, 264960, Note_off_c, 0, 73, 64
2, 264960, Note_on_c, 0, 72, 64
2, 265200, Note_off_c, 0, 72, 64
2, 265200, Note_on_c, 0, 70, 64
2, 265440, Note_off_c, 0, 70, 64
2, 265440, Note_on_c, 0, 68, 64
2, 265680, Note_off_c, 0, 68, 64
2, 265680, Note_on_c, 0, 70, 64
2, 265920, Note_off_c, 0, 70, 64
2, 265920, Note_on_c, 0, 72, 64
2, 267360, Note_off_c, 0, 72, 64
2, 267360, Note_on_c, 0, 71, 64
2, 267840, Note_off_c, 0, 71, 64
2, 268800, Note_on_c, 0, 72, 64
2, 269760, Note_off_c, 0, 72, 64
2, 269760, Note_on_c, 0, 75, 64
2, 270720, Note_off_c, 0, 75, 64
2, 270720, Note_on_c, 0, 79, 64
2, 271680, Note_off_c, 0, 79, 64
2, 271680, Note_on_c, 0, 80, 64
2, 272640, Note_off_c, 0, 80, 64
2, 272640, Note_on_c, 0, 71, 64
2, 273600, Note_off_c, 0, 71, 64
2, 274080, Note_on_c, 0, 79, 64
2, 274560, Note_off_c, 0, 79, 64
2, 274560, Note_on_c, 0, 78, 64
2, 275520, Note_off_c, 0, 78, 64
2, 275520, Note_on_c, 0, 77, 64
2, 276480, Note_off_c, 0, 77, 64
2, 276480, Note_on_c, 0, 76, 64
2, 277440, Note_off_c, 0, 76, 64
2, 277440, Note_on_c, 0, 75, 64
2, 278880, Note_off_c, 0, 75, 64
2, 278880, Note_on_c, 0, 74, 64
2, 279360, Note_off_c, 0, 74, 64
2, 279360, Note_on_c, 0, 73, 64
2, 279840, Note_off_c, 0, 73, 64
2, 279840, Note_on_c, 0, 72, 64
2, 280320, Note_off_c, 0, 72, 64
2, 280320, Note_on_c, 0, 71, 64
2, 280800, Note_off_c, 0, 71, 64
2, 280800, Note_on_c, 0, 69, 64
2, 281040, Note_off_c, 0, 69, 64
2, 281040, Note_on_c, 0, 67, 64
2, 281280, Note_off_c, 0, 67, 64
2, 281280, Note_on_c, 0, 72, 64
2, 281760, Note_off_c, 0, 72, 64
2, 281760, Note_on_c, 0, 77, 64
2, 282240, Note_off_c, 0, 77, 64
2, 282240, Note_on_c, 0, 75, 64
2, 283200, Note_off_c, 0, 75, 64
2, 283200, Note_on_c, 0, 74, 64
2, 283680, Note_off_c, 0, 74, 64
2, 283680, Note_on_c, 0, 73, 64
2, 284160, Note_off_c, 0, 73, 64
2, 284160, Note_on_c, 0, 72, 64
2, 284400, Note_off_c, 0, 72, 64
2, 284400, Note_on_c, 0, 79, 64
2, 284640, Note_off_c, 0, 79, 64
2, 284640, Note_on_c, 0, 80, 64
2, 284880, Note_off_c, 0, 80, 64
2, 284880, Note_on_c, 0, 82, 64
2, 285120, Note_off_c, 0, 82, 64
2, 285120, Note_on_c, 0, 80, 64
2, 285360, Note_off_c, 0, 80, 64
2, 285360, Note_on_c, 0, 79, 64
2, 285600, Note_off_c, 0, 79, 64
2, 285600, Note_on_c, 0, 78, 64
2, 285840, Note_off_c, 0, 78, 64
2, 285840, Note_on_c, 0, 79, 64
2, 286080, Note_off_c, 0, 79, 64
2, 286080, Note_on_c, 0, 78, 64
2, 287280, Note_off_c, 0, 78, 64
2, 287280, Note_on_c, 0, 78, 64
2, 287520, Note_off_c, 0, 78, 64
2, 287520, Note_on_c, 0, 79, 64
2, 287760, Note_off_c, 0, 79, 64
2, 287760, Note_on_c, 0, 81, 64
2, 288000, Note_off_c, 0, 81, 64
2, 288000, Note_on_c, 0, 79, 64
2, 288240, Note_off_c, 0, 79, 64
2, 288240, Note_on_c, 0, 77, 64
2, 288480, Note_off_c, 0, 77, 64
2, 288480, Note_on_c, 0, 75, 64
2, 288720, Note_off_c, 0, 75, 64
2, 288720, Note_on_c, 0, 74, 64
2, 288960, Note_off_c, 0, 74, 64
2, 288960, Note_on_c, 0, 75, 64
2, 289200, Note_off_c, 0, 75, 64
2, 289200, Note_on_c, 0, 72, 64
2, 289440, Note_off_c, 0, 72, 64
2, 289440, Note_on_c, 0, 74, 64
2, 289680, Note_off_c, 0, 74, 64
2, 289680, Note_on_c, 0, 75, 64
2, 289920, Note_off_c, 0, 75, 64
2, 289920, Note_on_c, 0, 74, 64
2, 291120, Note_off_c, 0, 74, 64
2, 291120, Note_on_c, 0, 72, 64
2, 291360, Note_off_c, 0, 72, 64
2, 291360, Note_on_c, 0, 70, 64
2, 291600, Note_off_c, 0, 70, 64
2, 291600, Note_on_c, 0, 69, 64
2, 291840, Note_off_c, 0, 69, 64
2, 291840, Note_on_c, 0, 70, 64
2, 292080, Note_off_c, 0, 70, 64
2, 292080, Note_on_c, 0, 74, 64
2, 292320, Note_off_c, 0, 74, 64
2, 292320, Note_on_c, 0, 79, 64
2, 292800, Note_off_c, 0, 79, 64
2, 292800, Note_on_c, 0, 74, 64
2, 293040, Note_off_c, 0, 74, 64
2, 293040, Note_on_c, 0, 79, 64
2, 293280, Note_off_c, 0, 79, 64
2, 293280, Note_on_c, 0, 82, 64
2, 294000, Note_off_c, 0, 82, 64
2, 294000, Note_on_c, 0, 79, 64
2, 294240, Note_off_c, 0, 79, 64
2, 294240, Note_on_c, 0, 81, 64
2, 294480, Note_off_c, 0, 81, 64
2, 294480, Note_on_c, 0, 82, 64
2, 294960, Note_off_c, 0, 82, 64
2, 294960, Note_on_c, 0, 81, 64
2, 295080, Note_off_c, 0, 81, 64
2, 295080, Note_on_c, 0, 79, 64
2, 295200, Note_off_c, 0, 79, 64
2, 295200, Note_on_c, 0, 78, 64
2, 295320, Note_off_c, 0, 78, 64
2, 295320, Note_on_c, 0, 79, 64
2, 295440, Note_off_c, 0, 79, 64
2, 295440, Note_on_c, 0, 81, 64
2, 295680, Note_off_c, 0, 81, 64
2, 295680, Note_on_c, 0, 74, 64
2, 296160, Note_off_c, 0, 74, 64
2, 296160, Note_on_c, 0, 86, 64
2, 296640, Note_off_c, 0, 86, 64
2, 296640, Note_on_c, 0, 79, 64
2, 296880, Note_off_c, 0, 79, 64
2, 296880, Note_on_c, 0, 81, 64
2, 297120, Note_off_c, 0, 81, 64
2, 297120, Note_on_c, 0, 82, 64
2, 298080, Note_off_c, 0, 82, 64
2, 298080, Note_on_c, 0, 76, 64
2, 298560, Note_off_c, 0, 76, 64
2, 298560, Note_on_c, 0, 78, 64
2, 298800, Note_off_c, 0, 78, 64
2, 298800, Note_on_c, 0, 79, 64
2, 299040, Note_off_c, 0, 79, 64
2, 299040, Note_on_c, 0, 81, 64
2, 300000, Note_off_c, 0, 81, 64
2, 300000, Note_on_c, 0, 74, 64
2, 300480, Note_off_c, 0, 74, 64
2, 300480, Note_on_c, 0, 76, 64
2, 300720, Note_off_c, 0, 76, 64
2, 300720, Note_on_c, 0, 77, 64
2, 300960, Note_off_c, 0, 77, 64
2, 300960, Note_on_c, 0, 79, 64
2, 301680, Note_off_c, 0, 79, 64
2, 301680, Note_on_c, 0, 76, 64
2, 301920, Note_off_c, 0, 76, 64
2, 301920, Note_on_c, 0, 77, 64
2, 302160, Note_off_c, 0, 77, 64
2, 302160, Note_on_c, 0, 79, 64
2, 302400, Note_off_c, 0, 79, 64
2, 302400, Note_on_c, 0, 77, 64
2, 302640, Note_off_c, 0, 77, 64
2, 302640, Note_on_c, 0, 76, 64
2, 302880, Note_off_c, 0, 76, 64
2, 302880, Note_on_c, 0, 74, 64
2, 303120, Note_off_c, 0, 74, 64
2, 303120, Note_on_c, 0, 73, 64
2, 303360, Note_off_c, 0, 73, 64
2, 303360, Note_on_c, 0, 74, 64
2, 305760, Note_off_c, 0, 74, 64
2, 305760, Note_on_c, 0, 79, 64
2, 306720, Note_off_c, 0, 79, 64
2, 306720, Note_on_c, 0, 78, 64
2, 307200, Note_off_c, 0, 78, 64
2, 307200, Note_on_c, 0, 79, 64
2, 307680, Note_off_c, 0, 79, 64
2, 307680, Note_on_c, 0, 86, 64
2, 308160, Note_off_c, 0, 86, 64
2, 308160, Note_on_c, 0, 79, 64
2, 308640, Note_off_c, 0, 79, 64
2, 308640, Note_on_c, 0, 82, 64
2, 309120, Note_off_c, 0, 82, 64
2, 309120, Note_on_c, 0, 76, 64
2, 309360, Note_off_c, 0, 76, 64
2, 309360, Note_on_c, 0, 77, 64
2, 309600, Note_off_c, 0, 77, 64
2, 309600, Note_on_c, 0, 79, 64
2, 309840, Note_off_c, 0, 79, 64
2, 309840, Note_on_c, 0, 76, 64
2, 310080, Note_off_c, 0, 76, 64
2, 310080, Note_on_c, 0, 72, 64
2, 310560, Note_off_c, 0, 72, 64
2, 310560, Note_on_c, 0, 82, 64
2, 311520, Note_off_c, 0, 82, 64
2, 311520, Note_on_c, 0, 80, 64
2, 311760, Note_off_c, 0, 80, 64
2, 311760, Note_on_c, 0, 79, 64
2, 312000, Note_off_c, 0, 79, 64
2, 312000, Note_on_c, 0, 80, 64
2, 312240, Note_off_c, 0, 80, 64
2, 312240, Note_on_c, 0, 79, 64
2, 312480, Note_off_c, 0, 79, 64
2, 312480, Note_on_c, 0, 77, 64
2, 312720, Note_off_c, 0, 77, 64
2, 312720, Note_on_c, 0, 75, 64
2, 312960, Note_off_c, 0, 75, 64
2, 312960, Note_on_c, 0, 74, 64
2, 313200, Note_off_c, 0, 74, 64
2, 313200, Note_on_c, 0, 75, 64
2, 313440, Note_off_c, 0, 75, 64
2, 313440, Note_on_c, 0, 77, 64
2, 313680, Note_off_c, 0, 77, 64
2, 313680, Note_on_c, 0, 79, 64
2, 313920, Note_off_c, 0, 79, 64
2, 313920, Note_on_c, 0, 80, 64
2, 314160, Note_off_c, 0, 80, 64
2, 314160, Note_on_c, 0, 79, 64
2, 314400, Note_off_c, 0, 79, 64
2, 314400, Note_on_c, 0, 80, 64
2, 315360, Note_off_c, 0, 80, 64
2, 315360, Note_on_c, 0, 79, 64
2, 315600, Note_off_c, 0, 79, 64
2, 315600, Note_on_c, 0, 77, 64
2, 315840, Note_off_c, 0, 77, 64
2, 315840, Note_on_c, 0, 79, 64
2, 316080, Note_off_c, 0, 79, 64
2, 316080, Note_on_c, 0, 77, 64
2, 316320, Note_off_c, 0, 77, 64
2, 316320, Note_on_c, 0, 75, 64
2, 316560, Note_off_c, 0, 75, 64
2, 316560, Note_on_c, 0, 74, 64
2, 316800, Note_off_c, 0, 74, 64
2, 316800, Note_on_c, 0, 72, 64
2, 317280, Note_off_c, 0, 72, 64
2, 317280, Note_on_c, 0, 74, 64
2, 317520, Note_off_c, 0, 74, 64
2, 317520, Note_on_c, 0, 75, 64
2, 317760, Note_off_c, 0, 75, 64
2, 317760, Note_on_c, 0, 77, 64
2, 319200, Note_off_c, 0, 77, 64
2, 319200, Note_on_c, 0, 75, 64
2, 319440, Note_off_c, 0, 75, 64
2, 319440, Note_on_c, 0, 74, 64
2, 319680, Note_off_c, 0, 74, 64
2, 319680, Note_on_c, 0, 75, 64
2, 319920, Note_off_c, 0, 75, 64
2, 319920, Note_on_c, 0, 74, 64
2, 320160, Note_off_c, 0, 74, 64
2, 320160, Note_on_c, 0, 72, 64
2, 320400, Note_off_c, 0, 72, 64
2, 320400, Note_on_c, 0, 70, 64
2, 320640, Note_off_c, 0, 70, 64
2, 320640, Note_on_c, 0, 69, 64
2, 321120, Note_off_c, 0, 69, 64
2, 321120, Note_on_c, 0, 68, 64
2, 321600, Note_off_c, 0, 68, 64
2, 321600, Note_on_c, 0, 67, 64
2, 322080, Note_off_c, 0, 67, 64
2, 322080, Note_on_c, 0, 65, 64
2, 324240, Note_off_c, 0, 65, 64
2, 324240, Note_on_c, 0, 63, 64
2, 324480, Note_off_c, 0, 63, 64
2, 324480, Note_on_c, 0, 62, 64
2, 324960, Note_off_c, 0, 62, 64
2, 324960, Note_on_c, 0, 67, 64
2, 325920, Note_off_c, 0, 67, 64
2, 325920, Note_on_c, 0, 66, 64
2, 326400, Note_off_c, 0, 66, 64
2, 326400, Note_on_c, 0, 67, 64
2, 326640, Note_off_c, 0, 67, 64
2, 326640, Note_on_c, 0, 74, 64
2, 326880, Note_off_c, 0, 74, 64
2, 326880, Note_on_c, 0, 75, 64
2, 327120, Note_off_c, 0, 75, 64
2, 327120, Note_on_c, 0, 77, 64
2, 327360, Note_off_c, 0, 77, 64
2, 327360, Note_on_c, 0, 75, 64
2, 327600, Note_off_c, 0, 75, 64
2, 327600, Note_on_c, 0, 74, 64
2, 327840, Note_off_c, 0, 74, 64
2, 327840, Note_on_c, 0, 72, 64
2, 328080, Note_off_c, 0, 72, 64
2, 328080, Note_on_c, 0, 70, 64
2, 328320, Note_off_c, 0, 70, 64
2, 328320, Note_on_c, 0, 69, 64
2, 328560, Note_off_c, 0, 69, 64
2, 328560, Note_on_c, 0, 72, 64
2, 328800, Note_off_c, 0, 72, 64
2, 328800, Note_on_c, 0, 74, 64
2, 329040, Note_off_c, 0, 74, 64
2, 329040, Note_on_c, 0, 75, 64
2, 329280, Note_off_c, 0, 75, 64
2, 329280, Note_on_c, 0, 74, 64
2, 329520, Note_off_c, 0, 74, 64
2, 329520, Note_on_c, 0, 72, 64
2, 329760, Note_off_c, 0, 72, 64
2, 329760, Note_on_c, 0, 71, 64
2, 330000, Note_off_c, 0, 71, 64
2, 330000, Note_on_c, 0, 69, 64
2, 330240, Note_off_c, 0, 69, 64
2, 330240, Note_on_c, 0, 67, 64
2, 330480, Note_off_c, 0, 67, 64
2, 330480, Note_on_c, 0, 71, 64
2, 330720, Note_off_c, 0, 71, 64
2, 330720, Note_on_c, 0, 72, 64
2, 330960, Note_off_c, 0, 72, 64
2, 330960, Note_on_c, 0, 74, 64
2, 331200, Note_off_c, 0, 74, 64
2, 331200, Note_on_c, 0, 72, 64
2, 331440, Note_off_c, 0, 72, 64
2, 331440, Note_on_c, 0, 70, 64
2, 331680, Note_off_c, 0, 70, 64
2, 331680, Note_on_c, 0, 69, 64
2, 331920, Note_off_c, 0, 69, 64
2, 331920, Note_on_c, 0, 67, 64
2, 332160, Note_off_c, 0, 67, 64
2, 332160, Note_on_c, 0, 66, 64
2, 333120, Note_off_c, 0, 66, 64
2, 333600, Note_on_c, 0, 75, 64
2, 334080, Note_off_c, 0, 75, 64
2, 334080, Note_on_c, 0, 65, 64
2, 334320, Note_off_c, 0, 65, 64
2, 334320, Note_on_c, 0, 62, 64
2, 334560, Note_off_c, 0, 62, 64
2, 334560, Note_on_c, 0, 63, 64
2, 334800, Note_off_c, 0, 63, 64
2, 334800, Note_on_c, 0, 65, 64
2, 335040, Note_off_c, 0, 65, 64
2, 335040, Note_on_c, 0, 63, 64
2, 335280, Note_off_c, 0, 63, 64
2, 335280, Note_on_c, 0, 62, 64
2, 335520, Note_off_c, 0, 62, 64
2, 335520, Note_on_c, 0, 60, 64
2, 335760, Note_off_c, 0, 60, 64
2, 335760, Note_on_c, 0, 59, 64
2, 336000, Note_off_c, 0, 59, 64
2, 336000, Note_on_c, 0, 60, 64
2, 336240, Note_off_c, 0, 60, 64
2, 336240, Note_on_c, 0, 65, 64
2, 336480, Note_off_c, 0, 65, 64
2, 336480, Note_on_c, 0, 67, 64
2, 336720, Note_off_c, 0, 67, 64
2, 336720, Note_on_c, 0, 68, 64
2, 336960, Note_off_c, 0, 68, 64
2, 336960, Note_on_c, 0, 67, 64
2, 337200, Note_off_c, 0, 67, 64
2, 337200, Note_on_c, 0, 65, 64
2, 337440, Note_off_c, 0, 65, 64
2, 337440, Note_on_c, 0, 63, 64
2, 337680, Note_off_c, 0, 63, 64
2, 337680, Note_on_c, 0, 62, 64
2, 337920, Note_off_c, 0, 62, 64
2, 337920, Note_on_c, 0, 63, 64
2, 339120, Note_off_c, 0, 63, 64
2, 339120, Note_on_c, 0, 70, 64
2, 339360, Note_off_c, 0, 70, 64
2, 339360, Note_on_c, 0, 68, 64
2, 339600, Note_off_c, 0, 68, 64
2, 339600, Note_on_c, 0, 67, 64
2, 339840, Note_off_c, 0, 67, 64
2, 339840, Note_on_c, 0, 66, 64
2, 340080, Note_off_c, 0, 66, 64
2, 340080, Note_on_c, 0, 75, 64
2, 340320, Note_off_c, 0, 75, 64
2, 340320, Note_on_c, 0, 74, 64
2, 341040, Note_off_c, 0, 74, 64
2, 341040, Note_on_c, 0, 80, 64
2, 341280, Note_off_c, 0, 80, 64
2, 341280, Note_on_c, 0, 79, 64
2, 341520, Note_off_c, 0, 79, 64
2, 341520, Note_on_c, 0, 77, 64
2, 341760, Note_off_c, 0, 77, 64
2, 341760, Note_on_c, 0, 76, 64
2, 342000, Note_off_c, 0, 76, 64
2, 342000, Note_on_c, 0, 85, 64
2, 342240, Note_off_c, 0, 85, 64
2, 342240, Note_on_c, 0, 84, 64
2, 343200, Note_off_c, 0, 84, 64
2, 343200, Note_on_c, 0, 77, 64
2, 343920, Note_off_c, 0, 77, 64
2, 343920, Note_on_c, 0, 74, 64
2, 344160, Note_off_c, 0, 74, 64
2, 344160, Note_on_c, 0, 75, 64
2, 344400, Note_off_c, 0, 75, 64
2, 344400, Note_on_c, 0, 72, 64
2, 344640, Note_off_c, 0, 72, 64
2, 344640, Note_on_c, 0, 69, 64
2, 344880, Note_off_c, 0, 69, 64
2, 344880, Note_on_c, 0, 75, 64
2, 345120, Note_off_c, 0, 75, 64
2, 345120, Note_on_c, 0, 74, 64
2, 345360, Note_off_c, 0, 74, 64
2, 345360, Note_on_c, 0, 68, 64
2, 345600, Note_off_c, 0, 68, 64
2, 345600, Note_on_c, 0, 67, 64
2, 345840, Note_off_c, 0, 67, 64
2, 345840, Note_on_c, 0, 66, 64
2, 346080, Note_off_c, 0, 66, 64
2, 346080, Note_on_c, 0, 67, 64
2, 346560, Note_off_c, 0, 67, 64
2, 346560, Note_on_c, 0, 66, 64
2, 347040, Note_off_c, 0, 66, 64
2, 347040, Note_on_c, 0, 65, 64
2, 347520, Note_off_c, 0, 65, 64
2, 347520, Note_on_c, 0, 64, 64
2, 347760, Note_off_c, 0, 64, 64
2, 347760, Note_on_c, 0, 62, 64
2, 348000, Note_off_c, 0, 62, 64
2, 348000, Note_on_c, 0, 63, 64
2, 348720, Note_off_c, 0, 63, 64
2, 348720, Note_on_c, 0, 62, 64
2, 348960, Note_off_c, 0, 62, 64
2, 348960, Note_on_c, 0, 68, 64
2, 349680, Note_off_c, 0, 68, 64
2, 349680, Note_on_c, 0, 67, 64
2, 349920, Note_off_c, 0, 67, 64
2, 349920, Note_on_c, 0, 72, 64
2, 350400, Note_off_c, 0, 72, 64
2, 350880, Note_on_c, 0, 74, 64
2, 351120, Note_off_c, 0, 74, 64
2, 351120, Note_on_c, 0, 65, 64
2, 351360, Note_off_c, 0, 65, 64
2, 351360, Note_on_c, 0, 65, 64
2, 351600, Note_off_c, 0, 65, 64
2, 351600, Note_on_c, 0, 63, 64
2, 351840, Note_off_c, 0, 63, 64
2, 352080, Note_on_c, 0, 72, 64
2, 352320, Note_off_c, 0, 72, 64
2, 352560, Note_on_c, 0, 72, 64
2, 352800, Note_off_c, 0, 72, 64
2, 353040, Note_on_c, 0, 71, 64
2, 353280, Note_off_c, 0, 71, 64
2, 353280, Note_on_c, 0, 71, 64
2, 353760, Note_off_c, 0, 71, 64
2, 353760, Note_on_c, 0, 72, 64
2, 354240, Note_off_c, 0, 72, 64
2, 354240, End_track
3, 0, Start_track
3, 0, Text_t, "Voce 2  "
3, 17280, Note_on_c, 0, 67, 64
3, 18240, Note_off_c, 0, 67, 64
3, 18240, Note_on_c, 0, 70, 64
3, 19200, Note_off_c, 0, 70, 64
3, 19200, Note_on_c, 0, 72, 64
3, 20160, Note_off_c, 0, 72, 64
3, 20160, Note_on_c, 0, 75, 64
3, 21120, Note_off_c, 0, 75, 64
3, 21120, Note_on_c, 0, 66, 64
3, 22080, Note_off_c, 0, 66, 64
3, 22560, Note_on_c, 0, 74, 64
3, 23040, Note_off_c, 0, 74, 64
3, 23040, Note_on_c, 0, 73, 64
3, 24000, Note_off_c, 0, 73, 64
3, 24000, Note_on_c, 0, 72, 64
3, 24960, Note_off_c, 0, 72, 64
3, 24960, Note_on_c, 0, 71, 64
3, 25920, Note_off_c, 0, 71, 64
3, 25920, Note_on_c, 0, 70, 64
3, 27360, Note_off_c, 0, 70, 64
3, 27360, Note_on_c, 0, 69, 64
3, 27840, Note_off_c, 0, 69, 64
3, 27840, Note_on_c, 0, 68, 64
3, 28320, Note_off_c, 0, 68, 64
3, 28320, Note_on_c, 0, 67, 64
3, 28800, Note_off_c, 0, 67, 64
3, 28800, Note_on_c, 0, 66, 64
3, 29280, Note_off_c, 0, 66, 64
3, 29280, Note_on_c, 0, 64, 64
3, 29520, Note_off_c, 0, 64, 64
3, 29520, Note_on_c, 0, 62, 64
3, 29760, Note_off_c, 0, 62, 64
3, 29760, Note_on_c, 0, 67, 64
3, 30240, Note_off_c, 0, 67, 64
3, 30240, Note_on_c, 0, 72, 64
3, 30720, Note_off_c, 0, 72, 64
3, 30720, Note_on_c, 0, 70, 64
3, 31680, Note_off_c, 0, 70, 64
3, 31680, Note_on_c, 0, 70, 64
3, 31800, Note_off_c, 0, 70, 64
3, 31800, Note_on_c, 0, 69, 64
3, 31920, Note_off_c, 0, 69, 64
3, 31920, Note_on_c, 0, 70, 64
3, 32040, Note_off_c, 0, 70, 64
3, 32040, Note_on_c, 0, 69, 64
3, 32160, Note_off_c, 0, 69, 64
3, 32160, Note_on_c, 0, 70, 64
3, 32280, Note_off_c, 0, 70, 64
3, 32280, Note_on_c, 0, 69, 64
3, 32400, Note_off_c, 0, 69, 64
3, 32400, Note_on_c, 0, 67, 64
3, 32520, Note_off_c, 0, 67, 64
3, 32520, Note_on_c, 0, 69, 64
3, 32640, Note_off_c, 0, 69, 64
3, 32640, Note_on_c, 0, 67, 64
3, 33600, Note_off_c, 0, 67, 64
3, 34080, Note_on_c, 0, 70, 64
3, 35040, Note_off_c, 0, 70, 64
3, 35040, Note_on_c, 0, 68, 64
3, 35280, Note_off_c, 0, 68, 64
3, 35280, Note_on_c, 0, 67, 64
3, 35520, Note_off_c, 0, 67, 64
3, 35520, Note_on_c, 0, 68, 64
3, 35760, Note_off_c, 0, 68, 64
3, 35760, Note_on_c, 0, 67, 64
3, 36000, Note_off_c, 0, 67, 64
3, 36000, Note_on_c, 0, 65, 64
3, 36240, Note_off_c, 0, 65, 64
3, 36240, Note_on_c, 0, 63, 64
3, 36480, Note_off_c, 0, 63, 64
3, 36480, Note_on_c, 0, 62, 64
3, 36720, Note_off_c, 0, 62, 64
3, 36720, Note_on_c, 0, 63, 64
3, 36960, Note_off_c, 0, 63, 64
3, 36960, Note_on_c, 0, 65, 64
3, 37200, Note_off_c, 0, 65, 64
3, 37200, Note_on_c, 0, 67, 64
3, 37440, Note_off_c, 0, 67, 64
3, 37440, Note_on_c, 0, 68, 64
3, 37680, Note_off_c, 0, 68, 64
3, 37680, Note_on_c, 0, 67, 64
3, 37920, Note_off_c, 0, 67, 64
3, 37920, Note_on_c, 0, 68, 64
3, 38880, Note_off_c, 0, 68, 64
3, 38880, Note_on_c, 0, 67, 64
3, 39120, Note_off_c, 0, 67, 64
3, 39120, Note_on_c, 0, 65, 64
3, 39360, Note_off_c, 0, 65, 64
3, 39360, Note_on_c, 0, 67, 64
3, 39600, Note_off_c, 0, 67, 64
3, 39600, Note_on_c, 0, 65, 64
3, 39840, Note_off_c, 0, 65, 64
3, 39840, Note_on_c, 0, 63, 64
3, 40080, Note_off_c, 0, 63, 64
3, 40080, Note_on_c, 0, 62, 64
3, 40320, Note_off_c, 0, 62, 64
3, 40320, Note_on_c, 0, 60, 64
3, 40800, Note_off_c, 0, 60, 64
3, 40800, Note_on_c, 0, 62, 64
3, 41040, Note_off_c, 0, 62, 64
3, 41040, Note_on_c, 0, 63, 64
3, 41280, Note_off_c, 0, 63, 64
3, 41280, Note_on_c, 0, 65, 64
3, 41520, Note_off_c, 0, 65, 64
3, 41520, Note_on_c, 0, 63, 64
3, 41760, Note_off_c, 0, 63, 64
3, 41760, Note_on_c, 0, 65, 64
3, 43920, Note_off_c, 0, 65, 64
3, 43920, Note_on_c, 0, 63, 64
3, 44160, Note_off_c, 0, 63, 64
3, 44160, Note_on_c, 0, 62, 64
3, 44640, Note_off_c, 0, 62, 64
3, 44640, Note_on_c, 0, 67, 64
3, 45120, Note_off_c, 0, 67, 64
3, 45120, Note_on_c, 0, 60, 64
3, 45600, Note_off_c, 0, 60, 64
3, 45600, Note_on_c, 0, 65, 64
3, 46560, Note_off_c, 0, 65, 64
3, 46560, Note_on_c, 0, 63, 64
3, 46800, Note_off_c, 0, 63, 64
3, 46800, Note_on_c, 0, 62, 64
3, 47040, Note_off_c, 0, 62, 64
3, 47040, Note_on_c, 0, 63, 64
3, 47280, Note_off_c, 0, 63, 64
3, 47280, Note_on_c, 0, 62, 64
3, 47520, Note_off_c, 0, 62, 64
3, 47520, Note_on_c, 0, 60, 64
3, 47760, Note_off_c, 0, 60, 64
3, 47760, Note_on_c, 0, 58, 64
3, 48000, Note_off_c, 0, 58, 64
3, 48000, Note_on_c, 0, 57, 64
3, 48240, Note_off_c, 0, 57, 64
3, 48240, Note_on_c, 0, 55, 64
3, 48480, Note_off_c, 0, 55, 64
3, 48480, Note_on_c, 0, 57, 64
3, 49440, Note_off_c, 0, 57, 64
3, 49440, Note_on_c, 0, 59, 64
3, 49920, Note_off_c, 0, 59, 64
3, 49920, Note_on_c, 0, 60, 64
3, 50160, Note_off_c, 0, 60, 64
3, 50160, Note_on_c, 0, 55, 64
3, 50400, Note_off_c, 0, 55, 64
3, 50400, Note_on_c, 0, 60, 64
3, 50640, Note_off_c, 0, 60, 64
3, 50640, Note_on_c, 0, 62, 64
3, 50880, Note_off_c, 0, 62, 64
3, 50880, Note_on_c, 0, 60, 64
3, 51120, Note_off_c, 0, 60, 64
3, 51120, Note_on_c, 0, 58, 64
3, 51360, Note_off_c, 0, 58, 64
3, 51360, Note_on_c, 0, 56, 64
3, 51600, Note_off_c, 0, 56, 64
3, 51600, Note_on_c, 0, 55, 64
3, 51840, Note_off_c, 0, 55, 64
3, 51840, Note_on_c, 0, 53, 64
3, 53040, Note_off_c, 0, 53, 64
3, 53040, Note_on_c, 0, 55, 64
3, 53280, Note_off_c, 0, 55, 64
3, 53280, Note_on_c, 0, 56, 64
3, 53520, Note_off_c, 0, 56, 64
3, 53520, Note_on_c, 0, 53, 64
3, 53760, Note_off_c, 0, 53, 64
3, 53760, Note_on_c, 0, 55, 64
3, 54240, Note_off_c, 0, 55, 64
3, 54240, Note_on_c, 0, 65, 64
3, 54720, Note_off_c, 0, 65, 64
3, 54720, Note_on_c, 0, 63, 64
3, 55200, Note_off_c, 0, 63, 64
3, 55200, Note_on_c, 0, 62, 64
3, 55680, Note_off_c, 0, 62, 64
3, 55680, Note_on_c, 0, 67, 64
3, 56160, Note_off_c, 0, 67, 64
3, 56160, Note_on_c, 0, 60, 64
3, 57120, Note_off_c, 0, 60, 64
3, 57120, Note_on_c, 0, 59, 64
3, 57600, Note_off_c, 0, 59, 64
3, 57600, Note_on_c, 0, 60, 64
3, 58080, Note_off_c, 0, 60, 64
3, 58080, Note_on_c, 0, 72, 64
3, 59040, Note_off_c, 0, 72, 64
3, 59040, Note_on_c, 0, 70, 64
3, 59760, Note_off_c, 0, 70, 64
3, 59760, Note_on_c, 0, 68, 64
3, 60000, Note_off_c, 0, 68, 64
3, 60000, Note_on_c, 0, 67, 64
3, 60240, Note_off_c, 0, 67, 64
3, 60240, Note_on_c, 0, 65, 64
3, 60480, Note_off_c, 0, 65, 64
3, 60480, Note_on_c, 0, 63, 64
3, 60720, Note_off_c, 0, 63, 64
3, 60720, Note_on_c, 0, 66, 64
3, 60960, Note_off_c, 0, 66, 64
3, 60960, Note_on_c, 0, 65, 64
3, 61200, Note_off_c, 0, 65, 64
3, 61200, Note_on_c, 0, 63, 64
3, 61440, Note_off_c, 0, 63, 64
3, 61440, Note_on_c, 0, 65, 64
3, 61920, Note_off_c, 0, 65, 64
3, 61920, Note_on_c, 0, 70, 64
3, 62880, Note_off_c, 0, 70, 64
3, 62880, Note_on_c, 0, 68, 64
3, 63600, Note_off_c, 0, 68, 64
3, 63600, Note_on_c, 0, 67, 64
3, 63840, Note_off_c, 0, 67, 64
3, 63840, Note_on_c, 0, 65, 64
3, 64080, Note_off_c, 0, 65, 64
3, 64080, Note_on_c, 0, 63, 64
3, 64320, Note_off_c, 0, 63, 64
3, 64320, Note_on_c, 0, 61, 64
3, 64560, Note_off_c, 0, 61, 64
3, 64560, Note_on_c, 0, 64, 64
3, 64800, Note_off_c, 0, 64, 64
3, 64800, Note_on_c, 0, 63, 64
3, 65040, Note_off_c, 0, 63, 64
3, 65040, Note_on_c, 0, 61, 64
3, 65280, Note_off_c, 0, 61, 64
3, 65280, Note_on_c, 0, 63, 64
3, 65760, Note_off_c, 0, 63, 64
3, 65760, Note_on_c, 0, 68, 64
3, 66720, Note_off_c, 0, 68, 64
3, 66720, Note_on_c, 0, 67, 64
3, 67680, Note_off_c, 0, 67, 64
3, 67680, Note_on_c, 0, 65, 64
3, 68640, Note_off_c, 0, 65, 64
3, 68640, Note_on_c, 0, 63, 64
3, 68880, Note_off_c, 0, 63, 64
3, 68880, Note_on_c, 0, 62, 64
3, 69120, Note_off_c, 0, 62, 64
3, 69120, Note_on_c, 0, 60, 64
3, 69600, Note_off_c, 0, 60, 64
3, 69600, Note_on_c, 0, 48, 64
3, 70080, Note_off_c, 0, 48, 64
3, 70080, Note_on_c, 0, 53, 64
3, 70560, Note_off_c, 0, 53, 64
3, 70560, Note_on_c, 0, 54, 64
3, 71040, Note_off_c, 0, 54, 64
3, 71040, Note_on_c, 0, 55, 64
3, 71200, Note_off_c, 0, 55, 64
3, 71200, Note_on_c, 0, 50, 64
3, 71360, Note_off_c, 0, 50, 64
3, 71360, Note_on_c, 0, 55, 64
3, 71520, Note_off_c, 0, 55, 64
3, 71520, Note_on_c, 0, 59, 64
3, 71680, Note_off_c, 0, 59, 64
3, 71680, Note_on_c, 0, 55, 64
3, 71840, Note_off_c, 0, 55, 64
3, 71840, Note_on_c, 0, 59, 64
3, 72000, Note_off_c, 0, 59, 64
3, 72000, Note_on_c, 0, 62, 64
3, 72160, Note_off_c, 0, 62, 64
3, 72160, Note_on_c, 0, 56, 64
3, 72320, Note_off_c, 0, 56, 64
3, 72320, Note_on_c, 0, 55, 64
3, 72480, Note_off_c, 0, 55, 64
3, 72480, Note_on_c, 0, 53, 64
3, 72640, Note_off_c, 0, 53, 64
3, 72640, Note_on_c, 0, 51, 64
3, 72800, Note_off_c, 0, 51, 64
3, 72800, Note_on_c, 0, 50, 64
3, 72960, Note_off_c, 0, 50, 64
3, 72960, Note_on_c, 0, 51, 64
3, 73440, Note_off_c, 0, 51, 64
3, 75040, Note_on_c, 0, 48, 64
3, 75200, Note_off_c, 0, 48, 64
3, 75200, Note_on_c, 0, 53, 64
3, 75360, Note_off_c, 0, 53, 64
3, 75360, Note_on_c, 0, 56, 64
3, 75520, Note_off_c, 0, 56, 64
3, 75520, Note_on_c, 0, 53, 64
3, 75680, Note_off_c, 0, 53, 64
3, 75680, Note_on_c, 0, 56, 64
3, 75840, Note_off_c, 0, 56, 64
3, 75840, Note_on_c, 0, 60, 64
3, 76000, Note_off_c, 0, 60, 64
3, 76000, Note_on_c, 0, 54, 64
3, 76160, Note_off_c, 0, 54, 64
3, 76160, Note_on_c, 0, 53, 64
3, 76320, Note_off_c, 0, 53, 64
3, 76320, Note_on_c, 0, 51, 64
3, 76480, Note_off_c, 0, 51, 64
3, 76480, Note_on_c, 0, 49, 64
3, 76640, Note_off_c, 0, 49, 64
3, 76640, Note_on_c, 0, 48, 64
3, 76800, Note_off_c, 0, 48, 64
3, 76800, Note_on_c, 0, 49, 64
3, 77280, Note_off_c, 0, 49, 64
3, 80400, Note_on_c, 0, 63, 64
3, 80640, Note_off_c, 0, 63, 64
3, 80640, Note_on_c, 0, 62, 64
3, 80880, Note_off_c, 0, 62, 64
3, 82320, Note_on_c, 0, 61, 64
3, 82560, Note_off_c, 0, 61, 64
3, 82560, Note_on_c, 0, 60, 64
3, 82800, Note_off_c, 0, 60, 64
3, 84240, Note_on_c, 0, 65, 64
3, 84480, Note_off_c, 0, 65, 64
3, 84480, Note_on_c, 0, 64, 64
3, 84720, Note_off_c, 0, 64, 64
3, 86160, Note_on_c, 0, 63, 64
3, 86400, Note_off_c, 0, 63, 64
3, 86400, Note_on_c, 0, 62, 64
3, 86640, Note_off_c, 0, 62, 64
3, 87600, Note_on_c, 0, 74, 64
3, 87840, Note_off_c, 0, 74, 64
3, 87840, Note_on_c, 0, 72, 64
3, 88080, Note_off_c, 0, 72, 64
3, 88080, Note_on_c, 0, 70, 64
3, 88320, Note_off_c, 0, 70, 64
3, 88320, Note_on_c, 0, 69, 64
3, 88560, Note_off_c, 0, 69, 64
3, 89520, Note_on_c, 0, 82, 64
3, 89760, Note_off_c, 0, 82, 64
3, 89760, Note_on_c, 0, 81, 64
3, 90000, Note_off_c, 0, 81, 64
3, 90000, Note_on_c, 0, 79, 64
3, 90240, Note_off_c, 0, 79, 64
3, 90240, Note_on_c, 0, 81, 64
3, 90480, Note_off_c, 0, 81, 64
3, 90480, Note_on_c, 0, 74, 64
3, 90720, Note_off_c, 0, 74, 64
3, 90720, Note_on_c, 0, 75, 64
3, 90960, Note_off_c, 0, 75, 64
3, 90960, Note_on_c, 0, 72, 64
3, 91200, Note_off_c, 0, 72, 64
3, 91200, Note_on_c, 0, 74, 64
3, 91680, Note_off_c, 0, 74, 64
3, 91800, Note_on_c, 0, 81, 64
3, 91920, Note_off_c, 0, 81, 64
3, 91920, Note_on_c, 0, 79, 64
3, 92040, Note_off_c, 0, 79, 64
3, 92040, Note_on_c, 0, 78, 64
3, 92160, Note_off_c, 0, 78, 64
3, 92160, Note_on_c, 0, 79, 64
3, 93360, Note_off_c, 0, 79, 64
3, 93360, Note_on_c, 0, 76, 64
3, 93600, Note_off_c, 0, 76, 64
3, 93600, Note_on_c, 0, 78, 64
3, 93840, Note_off_c, 0, 78, 64
3, 93840, Note_on_c, 0, 81, 64
3, 94080, Note_off_c, 0, 81, 64
3, 94080, Note_on_c, 0, 74, 64
3, 95280, Note_off_c, 0, 74, 64
3, 95280, Note_on_c, 0, 73, 64
3, 95520, Note_off_c, 0, 73, 64
3, 95520, Note_on_c, 0, 74, 64
3, 96000, Note_off_c, 0, 74, 64
3, 96240, Note_on_c, 0, 67, 64
3, 96480, Note_off_c, 0, 67, 64
3, 96480, Note_on_c, 0, 72, 64
3, 96720, Note_off_c, 0, 72, 64
3, 96720, Note_on_c, 0, 71, 64
3, 96960, Note_off_c, 0, 71, 64
3, 96960, Note_on_c, 0, 72, 64
3, 98160, Note_off_c, 0, 72, 64
3, 98160, Note_on_c, 0, 69, 64
3, 98400, Note_off_c, 0, 69, 64
3, 98400, Note_on_c, 0, 70, 64
3, 98640, Note_off_c, 0, 70, 64
3, 98640, Note_on_c, 0, 72, 64
3, 98880, Note_off_c, 0, 72, 64
3, 98880, Note_on_c, 0, 70, 64
3, 99120, Note_off_c, 0, 70, 64
3, 99120, Note_on_c, 0, 69, 64
3, 99360, Note_off_c, 0, 69, 64
3, 99360, Note_on_c, 0, 67, 64
3, 99600, Note_off_c, 0, 67, 64
3, 99600, Note_on_c, 0, 66, 64
3, 99840, Note_off_c, 0, 66, 64
3, 99840, Note_on_c, 0, 67, 64
3, 100320, Note_off_c, 0, 67, 64
3, 100320, Note_on_c, 0, 50, 64
3, 100800, Note_off_c, 0, 50, 64
3, 101280, Note_on_c, 0, 54, 64
3, 101760, Note_off_c, 0, 54, 64
3, 101760, Note_on_c, 0, 55, 64
3, 102240, Note_off_c, 0, 55, 64
3, 103920, Note_on_c, 0, 58, 64
3, 104160, Note_off_c, 0, 58, 64
3, 104160, Note_on_c, 0, 60, 64
3, 104400, Note_off_c, 0, 60, 64
3, 104400, Note_on_c, 0, 62, 64
3, 104640, Note_off_c, 0, 62, 64
3, 104640, Note_on_c, 0, 60, 64
3, 104880, Note_off_c, 0, 60, 64
3, 104880, Note_on_c, 0, 58, 64
3, 105120, Note_off_c, 0, 58, 64
3, 105120, Note_on_c, 0, 57, 64
3, 105360, Note_off_c, 0, 57, 64
3, 105360, Note_on_c, 0, 55, 64
3, 105600, Note_off_c, 0, 55, 64
3, 105600, Note_on_c, 0, 53, 64
3, 106080, Note_off_c, 0, 53, 64
3, 107040, Note_on_c, 0, 55, 64
3, 107520, Note_off_c, 0, 55, 64
3, 107520, Note_on_c, 0, 53, 64
3, 108000, Note_off_c, 0, 53, 64
3, 108960, Note_on_c, 0, 74, 64
3, 109440, Note_off_c, 0, 74, 64
3, 109440, Note_on_c, 0, 67, 64
3, 109920, Note_off_c, 0, 67, 64
3, 111360, Note_on_c, 0, 60, 64
3, 112320, Note_off_c, 0, 60, 64
3, 112320, Note_on_c, 0, 63, 64
3, 113280, Note_off_c, 0, 63, 64
3, 113280, Note_on_c, 0, 67, 64
3, 114240, Note_off_c, 0, 67, 64
3, 114240, Note_on_c, 0, 68, 64
3, 115200, Note_off_c, 0, 68, 64
3, 115200, Note_on_c, 0, 59, 64
3, 116160, Note_off_c, 0, 59, 64
3, 116640, Note_on_c, 0, 67, 64
3, 117120, Note_off_c, 0, 67, 64
3, 117120, Note_on_c, 0, 66, 64
3, 118080, Note_off_c, 0, 66, 64
3, 118080, Note_on_c, 0, 65, 64
3, 119040, Note_off_c, 0, 65, 64
3, 119040, Note_on_c, 0, 64, 64
3, 120000, Note_off_c, 0, 64, 64
3, 120000, Note_on_c, 0, 63, 64
3, 121440, Note_off_c, 0, 63, 64
3, 121440, Note_on_c, 0, 62, 64
3, 121920, Note_off_c, 0, 62, 64
3, 121920, Note_on_c, 0, 61, 64
3, 122400, Note_off_c, 0, 61, 64
3, 122400, Note_on_c, 0, 60, 64
3, 122880, Note_off_c, 0, 60, 64
3, 122880, Note_on_c, 0, 59, 64
3, 123360, Note_off_c, 0, 59, 64
3, 123360, Note_on_c, 0, 57, 64
3, 123600, Note_off_c, 0, 57, 64
3, 123600, Note_on_c, 0, 55, 64
3, 123840, Note_off_c, 0, 55, 64
3, 123840, Note_on_c, 0, 60, 64
3, 124320, Note_off_c, 0, 60, 64
3, 124320, Note_on_c, 0, 65, 64
3, 124800, Note_off_c, 0, 65, 64
3, 124800, Note_on_c, 0, 63, 64
3, 125760, Note_off_c, 0, 63, 64
3, 125760, Note_on_c, 0, 63, 64
3, 125880, Note_off_c, 0, 63, 64
3, 125880, Note_on_c, 0, 62, 64
3, 126000, Note_off_c, 0, 62, 64
3, 126000, Note_on_c, 0, 63, 64
3, 126120, Note_off_c, 0, 63, 64
3, 126120, Note_on_c, 0, 62, 64
3, 126240, Note_off_c, 0, 62, 64
3, 126240, Note_on_c, 0, 63, 64
3, 126360, Note_off_c, 0, 63, 64
3, 126360, Note_on_c, 0, 62, 64
3, 126480, Note_off_c, 0, 62, 64
3, 126480, Note_on_c, 0, 60, 64
3, 126600, Note_off_c, 0, 60, 64
3, 126600, Note_on_c, 0, 62, 64
3, 126720, Note_off_c, 0, 62, 64
3, 126720, Note_on_c, 0, 60, 64
3, 127920, Note_off_c, 0, 60, 64
3, 127920, Note_on_c, 0, 60, 64
3, 128160, Note_off_c, 0, 60, 64
3, 128160, Note_on_c, 0, 62, 64
3, 128400, Note_off_c, 0, 62, 64
3, 128400, Note_on_c, 0, 63, 64
3, 128640, Note_off_c, 0, 63, 64
3, 128640, Note_on_c, 0, 62, 64
3, 128880, Note_off_c, 0, 62, 64
3, 128880, Note_on_c, 0, 60, 64
3, 129120, Note_off_c, 0, 60, 64
3, 129120, Note_on_c, 0, 58, 64
3, 129840, Note_off_c, 0, 58, 64
3, 129840, Note_on_c, 0, 58, 64
3, 130080, Note_off_c, 0, 58, 64
3, 130080, Note_on_c, 0, 60, 64
3, 130320, Note_off_c, 0, 60, 64
3, 130320, Note_on_c, 0, 61, 64
3, 130560, Note_off_c, 0, 61, 64
3, 130560, Note_on_c, 0, 60, 64
3, 130800, Note_off_c, 0, 60, 64
3, 130800, Note_on_c, 0, 58, 64
3, 131040, Note_off_c, 0, 58, 64
3, 131040, Note_on_c, 0, 56, 64
3, 131760, Note_off_c, 0, 56, 64
3, 131760, Note_on_c, 0, 53, 64
3, 132000, Note_off_c, 0, 53, 64
3, 132000, Note_on_c, 0, 55, 64
3, 132240, Note_off_c, 0, 55, 64
3, 132240, Note_on_c, 0, 56, 64
3, 132480, Note_off_c, 0, 56, 64
3, 132480, Note_on_c, 0, 55, 64
3, 132720, Note_off_c, 0, 55, 64
3, 132720, Note_on_c, 0, 53, 64
3, 132960, Note_off_c, 0, 53, 64
3, 132960, Note_on_c, 0, 58, 64
3, 133680, Note_off_c, 0, 58, 64
3, 133680, Note_on_c, 0, 55, 64
3, 133920, Note_off_c, 0, 55, 64
3, 133920, Note_on_c, 0, 56, 64
3, 134160, Note_off_c, 0, 56, 64
3, 134160, Note_on_c, 0, 58, 64
3, 134400, Note_off_c, 0, 58, 64
3, 134400, Note_on_c, 0, 56, 64
3, 134640, Note_off_c, 0, 56, 64
3, 134640, Note_on_c, 0, 55, 64
3, 134880, Note_off_c, 0, 55, 64
3, 134880, Note_on_c, 0, 60, 64
3, 135600, Note_off_c, 0, 60, 64
3, 135600, Note_on_c, 0, 56, 64
3, 135840, Note_off_c, 0, 56, 64
3, 135840, Note_on_c, 0, 58, 64
3, 136080, Note_off_c, 0, 58, 64
3, 136080, Note_on_c, 0, 55, 64
3, 136320, Note_off_c, 0, 55, 64
3, 136320, Note_on_c, 0, 56, 64
3, 136560, Note_off_c, 0, 56, 64
3, 136560, Note_on_c, 0, 60, 64
3, 136800, Note_off_c, 0, 60, 64
3, 136800, Note_on_c, 0, 62, 64
3, 137040, Note_off_c, 0, 62, 64
3, 137040, Note_on_c, 0, 64, 64
3, 137280, Note_off_c, 0, 64, 64
3, 137280, Note_on_c, 0, 65, 64
3, 138480, Note_off_c, 0, 65, 64
3, 138480, Note_on_c, 0, 63, 64
3, 138720, Note_off_c, 0, 63, 64
3, 138720, Note_on_c, 0, 61, 64
3, 138960, Note_off_c, 0, 61, 64
3, 138960, Note_on_c, 0, 60, 64
3, 139200, Note_off_c, 0, 60, 64
3, 139200, Note_on_c, 0, 58, 64
3, 140400, Note_off_c, 0, 58, 64
3, 140400, Note_on_c, 0, 61, 64
3, 140640, Note_off_c, 0, 61, 64
3, 140640, Note_on_c, 0, 60, 64
3, 140880, Note_off_c, 0, 60, 64
3, 140880, Note_on_c, 0, 58, 64
3, 141120, Note_off_c, 0, 58, 64
3, 141120, Note_on_c, 0, 56, 64
3, 142320, Note_off_c, 0, 56, 64
3, 142320, Note_on_c, 0, 56, 64
3, 142560, Note_off_c, 0, 56, 64
3, 142560, Note_on_c, 0, 55, 64
3, 142800, Note_off_c, 0, 55, 64
3, 142800, Note_on_c, 0, 53, 64
3, 143040, Note_off_c, 0, 53, 64
3, 143040, Note_on_c, 0, 55, 64
3, 144000, Note_off_c, 0, 55, 64
3, 144000, Note_on_c, 0, 53, 64
3, 144240, Note_off_c, 0, 53, 64
3, 144240, Note_on_c, 0, 60, 64
3, 144480, Note_off_c, 0, 60, 64
3, 144480, Note_on_c, 0, 62, 64
3, 144720, Note_off_c, 0, 62, 64
3, 144720, Note_on_c, 0, 64, 64
3, 144960, Note_off_c, 0, 64, 64
3, 144960, Note_on_c, 0, 65, 64
3, 146160, Note_off_c, 0, 65, 64
3, 146160, Note_on_c, 0, 65, 64
3, 146400, Note_off_c, 0, 65, 64
3, 146400, Note_on_c, 0, 67, 64
3, 146640, Note_off_c, 0, 67, 64
3, 146640, Note_on_c, 0, 68, 64
3, 146880, Note_off_c, 0, 68, 64
3, 146880, Note_on_c, 0, 70, 64
3, 147120, Note_off_c, 0, 70, 64
3, 147120, Note_on_c, 0, 72, 64
3, 147360, Note_off_c, 0, 72, 64
3, 147360, Note_on_c, 0, 73, 64
3, 147600, Note_off_c, 0, 73, 64
3, 147600, Note_on_c, 0, 70, 64
3, 147840, Note_off_c, 0, 70, 64
3, 147840, Note_on_c, 0, 72, 64
3, 150240, Note_off_c, 0, 72, 64
3, 150240, Note_on_c, 0, 71, 64
3, 150720, Note_off_c, 0, 71, 64
3, 150720, Note_on_c, 0, 72, 64
3, 150960, Note_off_c, 0, 72, 64
3, 150960, Note_on_c, 0, 74, 64
3, 151200, Note_off_c, 0, 74, 64
3, 151200, Note_on_c, 0, 75, 64
3, 151920, Note_off_c, 0, 75, 64
3, 151920, Note_on_c, 0, 72, 64
3, 152160, Note_off_c, 0, 72, 64
3, 152160, Note_on_c, 0, 66, 64
3, 152640, Note_off_c, 0, 66, 64
3, 153120, Note_on_c, 0, 75, 64
3, 153600, Note_off_c, 0, 75, 64
3, 153600, Note_on_c, 0, 74, 64
3, 154080, Note_off_c, 0, 74, 64
3, 154080, Note_on_c, 0, 79, 64
3, 155040, Note_off_c, 0, 79, 64
3, 155040, Note_on_c, 0, 77, 64
3, 156000, Note_off_c, 0, 77, 64
3, 156000, Note_on_c, 0, 75, 64
3, 156240, Note_off_c, 0, 75, 64
3, 156240, Note_on_c, 0, 74, 64
3, 156480, Note_off_c, 0, 74, 64
3, 156480, Note_on_c, 0, 75, 64
3, 158160, Note_off_c, 0, 75, 64
3, 158160, Note_on_c, 0, 73, 64
3, 158400, Note_off_c, 0, 73, 64
3, 158400, Note_on_c, 0, 74, 64
3, 160080, Note_off_c, 0, 74, 64
3, 160080, Note_on_c, 0, 59, 64
3, 160320, Note_off_c, 0, 59, 64
3, 160320, Note_on_c, 0, 60, 64
3, 160560, Note_off_c, 0, 60, 64
3, 160560, Note_on_c, 0, 63, 64
3, 160800, Note_off_c, 0, 63, 64
3, 160800, Note_on_c, 0, 65, 64
3, 161040, Note_off_c, 0, 65, 64
3, 161040, Note_on_c, 0, 67, 64
3, 161280, Note_off_c, 0, 67, 64
3, 161280, Note_on_c, 0, 65, 64
3, 161520, Note_off_c, 0, 65, 64
3, 161520, Note_on_c, 0, 63, 64
3, 161760, Note_off_c, 0, 63, 64
3, 161760, Note_on_c, 0, 62, 64
3, 162000, Note_off_c, 0, 62, 64
3, 162000, Note_on_c, 0, 60, 64
3, 162240, Note_off_c, 0, 60, 64
3, 162240, Note_on_c, 0, 62, 64
3, 162480, Note_off_c, 0, 62, 64
3, 162480, Note_on_c, 0, 65, 64
3, 162720, Note_off_c, 0, 65, 64
3, 162720, Note_on_c, 0, 67, 64
3, 162960, Note_off_c, 0, 67, 64
3, 162960, Note_on_c, 0, 68, 64
3, 163200, Note_off_c, 0, 68, 64
3, 163200, Note_on_c, 0, 67, 64
3, 163440, Note_off_c, 0, 67, 64
3, 163440, Note_on_c, 0, 65, 64
3, 163680, Note_off_c, 0, 65, 64
3, 163680, Note_on_c, 0, 63, 64
3, 163920, Note_off_c, 0, 63, 64
3, 163920, Note_on_c, 0, 62, 64
3, 164160, Note_off_c, 0, 62, 64
3, 164160, Note_on_c, 0, 63, 64
3, 164400, Note_off_c, 0, 63, 64
3, 164400, Note_on_c, 0, 67, 64
3, 164640, Note_off_c, 0, 67, 64
3, 164640, Note_on_c, 0, 69, 64
3, 164880, Note_off_c, 0, 69, 64
3, 164880, Note_on_c, 0, 71, 64
3, 165120, Note_off_c, 0, 71, 64
3, 165120, Note_on_c, 0, 72, 64
3, 165280, Note_off_c, 0, 72, 64
3, 165280, Note_on_c, 0, 67, 64
3, 165440, Note_off_c, 0, 67, 64
3, 165440, Note_on_c, 0, 72, 64
3, 165600, Note_off_c, 0, 72, 64
3, 165600, Note_on_c, 0, 75, 64
3, 165760, Note_off_c, 0, 75, 64
3, 165760, Note_on_c, 0, 72, 64
3, 165920, Note_off_c, 0, 72, 64
3, 165920, Note_on_c, 0, 75, 64
3, 166080, Note_off_c, 0, 75, 64
3, 166080, Note_on_c, 0, 79, 64
3, 166240, Note_off_c, 0, 79, 64
3, 166240, Note_on_c, 0, 73, 64
3, 166400, Note_off_c, 0, 73, 64
3, 166400, Note_on_c, 0, 72, 64
3, 166560, Note_off_c, 0, 72, 64
3, 166560, Note_on_c, 0, 70, 64
3, 166720, Note_off_c, 0, 70, 64
3, 166720, Note_on_c, 0, 68, 64
3, 166880, Note_off_c, 0, 68, 64
3, 166880, Note_on_c, 0, 67, 64
3, 167040, Note_off_c, 0, 67, 64
3, 167040, Note_on_c, 0, 68, 64
3, 167520, Note_off_c, 0, 68, 64
3, 169120, Note_on_c, 0, 65, 64
3, 169280, Note_off_c, 0, 65, 64
3, 169280, Note_on_c, 0, 70, 64
3, 169440, Note_off_c, 0, 70, 64
3, 169440, Note_on_c, 0, 73, 64
3, 169600, Note_off_c, 0, 73, 64
3, 169600, Note_on_c, 0, 70, 64
3, 169760, Note_off_c, 0, 70, 64
3, 169760, Note_on_c, 0, 73, 64
3, 169920, Note_off_c, 0, 73, 64
3, 169920, Note_on_c, 0, 77, 64
3, 170080, Note_off_c, 0, 77, 64
3, 170080, Note_on_c, 0, 71, 64
3, 170240, Note_off_c, 0, 71, 64
3, 170240, Note_on_c, 0, 70, 64
3, 170400, Note_off_c, 0, 70, 64
3, 170400, Note_on_c, 0, 68, 64
3, 170560, Note_off_c, 0, 68, 64
3, 170560, Note_on_c, 0, 66, 64
3, 170720, Note_off_c, 0, 66, 64
3, 170720, Note_on_c, 0, 65, 64
3, 170880, Note_off_c, 0, 65, 64
3, 170880, Note_on_c, 0, 66, 64
3, 171360, Note_off_c, 0, 66, 64
3, 173040, Note_on_c, 0, 68, 64
3, 173520, Note_off_c, 0, 68, 64
3, 173520, Note_on_c, 0, 67, 64
3, 173760, Note_off_c, 0, 67, 64
3, 173760, Note_on_c, 0, 68, 64
3, 174000, Note_off_c, 0, 68, 64
3, 174000, Note_on_c, 0, 63, 64
3, 174240, Note_off_c, 0, 63, 64
3, 174240, Note_on_c, 0, 65, 64
3, 174960, Note_off_c, 0, 65, 64
3, 174960, Note_on_c, 0, 63, 64
3, 175440, Note_off_c, 0, 63, 64
3, 175440, Note_on_c, 0, 62, 64
3, 175680, Note_off_c, 0, 62, 64
3, 175680, Note_on_c, 0, 63, 64
3, 175920, Note_off_c, 0, 63, 64
3, 175920, Note_on_c, 0, 58, 64
3, 176160, Note_off_c, 0, 58, 64
3, 176160, Note_on_c, 0, 60, 64
3, 176640, Note_off_c, 0, 60, 64
3, 176640, Note_on_c, 0, 61, 64
3, 176880, Note_off_c, 0, 61, 64
3, 176880, Note_on_c, 0, 70, 64
3, 177360, Note_off_c, 0, 70, 64
3, 177360, Note_on_c, 0, 69, 64
3, 177600, Note_off_c, 0, 69, 64
3, 177600, Note_on_c, 0, 70, 64
3, 177840, Note_off_c, 0, 70, 64
3, 177840, Note_on_c, 0, 65, 64
3, 178080, Note_off_c, 0, 65, 64
3, 178080, Note_on_c, 0, 67, 64
3, 178800, Note_off_c, 0, 67, 64
3, 178800, Note_on_c, 0, 65, 64
3, 179280, Note_off_c, 0, 65, 64
3, 179280, Note_on_c, 0, 64, 64
3, 179520, Note_off_c, 0, 64, 64
3, 179520, Note_on_c, 0, 65, 64
3, 179760, Note_off_c, 0, 65, 64
3, 179760, Note_on_c, 0, 60, 64
3, 180000, Note_off_c, 0, 60, 64
3, 180000, Note_on_c, 0, 62, 64
3, 180480, Note_off_c, 0, 62, 64
3, 180480, Note_on_c, 0, 63, 64
3, 180640, Note_off_c, 0, 63, 64
3, 180640, Note_on_c, 0, 60, 64
3, 180800, Note_off_c, 0, 60, 64
3, 180800, Note_on_c, 0, 63, 64
3, 180960, Note_off_c, 0, 63, 64
3, 180960, Note_on_c, 0, 67, 64
3, 181120, Note_off_c, 0, 67, 64
3, 181120, Note_on_c, 0, 63, 64
3, 181280, Note_off_c, 0, 63, 64
3, 181280, Note_on_c, 0, 67, 64
3, 181440, Note_off_c, 0, 67, 64
3, 181440, Note_on_c, 0, 72, 64
3, 182560, Note_off_c, 0, 72, 64
3, 182560, Note_on_c, 0, 71, 64
3, 182720, Note_off_c, 0, 71, 64
3, 182720, Note_on_c, 0, 69, 64
3, 182880, Note_off_c, 0, 69, 64
3, 182880, Note_on_c, 0, 71, 64
3, 183040, Note_off_c, 0, 71, 64
3, 183040, Note_on_c, 0, 74, 64
3, 183200, Note_off_c, 0, 74, 64
3, 183200, Note_on_c, 0, 79, 64
3, 183360, Note_off_c, 0, 79, 64
3, 183360, Note_on_c, 0, 77, 64
3, 185520, Note_off_c, 0, 77, 64
3, 185520, Note_on_c, 0, 74, 64
3, 185760, Note_off_c, 0, 74, 64
3, 185760, Note_on_c, 0, 75, 64
3, 186480, Note_off_c, 0, 75, 64
3, 186480, Note_on_c, 0, 74, 64
3, 186720, Note_off_c, 0, 74, 64
3, 186720, Note_on_c, 0, 75, 64
3, 186960, Note_off_c, 0, 75, 64
3, 186960, Note_on_c, 0, 72, 64
3, 187200, Note_off_c, 0, 72, 64
3, 187200, Note_on_c, 0, 74, 64
3, 188400, Note_off_c, 0, 74, 64
3, 188400, Note_on_c, 0, 72, 64
3, 188640, Note_off_c, 0, 72, 64
3, 188640, Note_on_c, 0, 73, 64
3, 188880, Note_off_c, 0, 73, 64
3, 188880, Note_on_c, 0, 71, 64
3, 189120, Note_off_c, 0, 71, 64
3, 189120, Note_on_c, 0, 72, 64
3, 189840, Note_off_c, 0, 72, 64
3, 189840, Note_on_c, 0, 70, 64
3, 190080, Note_off_c, 0, 70, 64
3, 190080, Note_on_c, 0, 69, 64
3, 191280, Note_off_c, 0, 69, 64
3, 191280, Note_on_c, 0, 67, 64
3, 191520, Note_off_c, 0, 67, 64
3, 191520, Note_on_c, 0, 68, 64
3, 191760, Note_off_c, 0, 68, 64
3, 191760, Note_on_c, 0, 65, 64
3, 192000, Note_off_c, 0, 65, 64
3, 192000, Note_on_c, 0, 67, 64
3, 194400, Note_off_c, 0, 67, 64
3, 194400, Note_on_c, 0, 78, 64
3, 195360, Note_off_c, 0, 78, 64
3, 195360, Note_on_c, 0, 79, 64
3, 196080, Note_off_c, 0, 79, 64
3, 196080, Note_on_c, 0, 76, 64
3, 196320, Note_off_c, 0, 76, 64
3, 196320, Note_on_c, 0, 77, 64
3, 196560, Note_off_c, 0, 77, 64
3, 196560, Note_on_c, 0, 79, 64
3, 196800, Note_off_c, 0, 79, 64
3, 196800, Note_on_c, 0, 77, 64
3, 197040, Note_off_c, 0, 77, 64
3, 197040, Note_on_c, 0, 76, 64
3, 197280, Note_off_c, 0, 76, 64
3, 197280, Note_on_c, 0, 74, 64
3, 197520, Note_off_c, 0, 74, 64
3, 197520, Note_on_c, 0, 73, 64
3, 197760, Note_off_c, 0, 73, 64
3, 197760, Note_on_c, 0, 74, 64
3, 198000, Note_off_c, 0, 74, 64
3, 198000, Note_on_c, 0, 72, 64
3, 198240, Note_off_c, 0, 72, 64
3, 198240, Note_on_c, 0, 70, 64
3, 198480, Note_off_c, 0, 70, 64
3, 198480, Note_on_c, 0, 69, 64
3, 198720, Note_off_c, 0, 69, 64
3, 198720, Note_on_c, 0, 67, 64
3, 198960, Note_off_c, 0, 67, 64
3, 198960, Note_on_c, 0, 70, 64
3, 199200, Note_off_c, 0, 70, 64
3, 199200, Note_on_c, 0, 68, 64
3, 199440, Note_off_c, 0, 68, 64
3, 199440, Note_on_c, 0, 67, 64
3, 199680, Note_off_c, 0, 67, 64
3, 199680, Note_on_c, 0, 66, 64
3, 200160, Note_off_c, 0, 66, 64
3, 200160, Note_on_c, 0, 62, 64
3, 200640, Note_off_c, 0, 62, 64
3, 200640, Note_on_c, 0, 61, 64
3, 201120, Note_off_c, 0, 61, 64
3, 201120, Note_on_c, 0, 60, 64
3, 201600, Note_off_c, 0, 60, 64
3, 201600, Note_on_c, 0, 59, 64
3, 201840, Note_off_c, 0, 59, 64
3, 201840, Note_on_c, 0, 57, 64
3, 202080, Note_off_c, 0, 57, 64
3, 202080, Note_on_c, 0, 58, 64
3, 202320, Note_off_c, 0, 58, 64
3, 202320, Note_on_c, 0, 67, 64
3, 202560, Note_off_c, 0, 67, 64
3, 202560, Note_on_c, 0, 57, 64
3, 202800, Note_off_c, 0, 57, 64
3, 202800, Note_on_c, 0, 67, 64
3, 203040, Note_off_c, 0, 67, 64
3, 203040, Note_on_c, 0, 66, 64
3, 203280, Note_off_c, 0, 66, 64
3, 203280, Note_on_c, 0, 57, 64
3, 203520, Note_off_c, 0, 57, 64
3, 203520, Note_on_c, 0, 55, 64
3, 204240, Note_off_c, 0, 55, 64
3, 204240, Note_on_c, 0, 54, 64
3, 204480, Note_off_c, 0, 54, 64
3, 204480, Note_on_c, 0, 55, 64
3, 205200, Note_off_c, 0, 55, 64
3, 205200, Note_on_c, 0, 66, 64
3, 205440, Note_off_c, 0, 66, 64
3, 205440, Note_on_c, 0, 67, 64
3, 206160, Note_off_c, 0, 67, 64
3, 206160, Note_on_c, 0, 75, 64
3, 206400, Note_off_c, 0, 75, 64
3, 206400, Note_on_c, 0, 74, 64
3, 206640, Note_off_c, 0, 74, 64
3, 206640, Note_on_c, 0, 73, 64
3, 206880, Note_off_c, 0, 73, 64
3, 207120, Note_on_c, 0, 69, 64
3, 207360, Note_off_c, 0, 69, 64
3, 207360, Note_on_c, 0, 69, 64
3, 207600, Note_off_c, 0, 69, 64
3, 207600, Note_on_c, 0, 67, 64
3, 207840, Note_off_c, 0, 67, 64
3, 208560, Note_on_c, 0, 70, 64
3, 208800, Note_off_c, 0, 70, 64
3, 208800, Note_on_c, 0, 68, 64
3, 209040, Note_off_c, 0, 68, 64
3, 209040, Note_on_c, 0, 67, 64
3, 209280, Note_off_c, 0, 67, 64
3, 209520, Note_on_c, 0, 61, 64
3, 209760, Note_off_c, 0, 61, 64
3, 209760, Note_on_c, 0, 60, 64
3, 210000, Note_off_c, 0, 60, 64
3, 210000, Note_on_c, 0, 58, 64
3, 210240, Note_off_c, 0, 58, 64
3, 210480, Note_on_c, 0, 58, 64
3, 210720, Note_off_c, 0, 58, 64
3, 210720, Note_on_c, 0, 56, 64
3, 210960, Note_off_c, 0, 56, 64
3, 210960, Note_on_c, 0, 55, 64
3, 211200, Note_off_c, 0, 55, 64
3, 211200, Note_on_c, 0, 55, 64
3, 211440, Note_off_c, 0, 55, 64
3, 211440, Note_on_c, 0, 56, 64
3, 211680, Note_off_c, 0, 56, 64
3, 211920, Note_on_c, 0, 71, 64
3, 212160, Note_off_c, 0, 71, 64
3, 212400, Note_on_c, 0, 71, 64
3, 212640, Note_off_c, 0, 71, 64
3, 212880, Note_on_c, 0, 71, 64
3, 213120, Note_off_c, 0, 71, 64
3, 213360, Note_on_c, 0, 80, 64
3, 213600, Note_off_c, 0, 80, 64
3, 213600, Note_on_c, 0, 79, 64
3, 213840, Note_off_c, 0, 79, 64
3, 213840, Note_on_c, 0, 77, 64
3, 214080, Note_off_c, 0, 77, 64
3, 214320, Note_on_c, 0, 77, 64
3, 214560, Note_off_c, 0, 77, 64
3, 214560, Note_on_c, 0, 75, 64
3, 214800, Note_off_c, 0, 75, 64
3, 214800, Note_on_c, 0, 74, 64
3, 215040, Note_off_c, 0, 74, 64
3, 215040, Note_on_c, 0, 74, 64
3, 215280, Note_off_c, 0, 74, 64
3, 215280, Note_on_c, 0, 75, 64
3, 215520, Note_off_c, 0, 75, 64
3, 215760, Note_on_c, 0, 72, 64
3, 216000, Note_off_c, 0, 72, 64
3, 216000, Note_on_c, 0, 72, 64
3, 216240, Note_off_c, 0, 72, 64
3, 216240, Note_on_c, 0, 71, 64
3, 216480, Note_off_c, 0, 71, 64
3, 216720, Note_on_c, 0, 68, 64
3, 216960, Note_off_c, 0, 68, 64
3, 216960, Note_on_c, 0, 68, 64
3, 217200, Note_off_c, 0, 68, 64
3, 217200, Note_on_c, 0, 67, 64
3, 217440, Note_off_c, 0, 67, 64
3, 218640, Note_on_c, 0, 70, 64
3, 218880, Note_off_c, 0, 70, 64
3, 218880, Note_on_c, 0, 70, 64
3, 219120, Note_off_c, 0, 70, 64
3, 219120, Note_on_c, 0, 63, 64
3, 219360, Note_off_c, 0, 63, 64
3, 219360, Note_on_c, 0, 68, 64
3, 219840, Note_off_c, 0, 68, 64
3, 220560, Note_on_c, 0, 62, 64
3, 220800, Note_off_c, 0, 62, 64
3, 220800, Note_on_c, 0, 62, 64
3, 221040, Note_off_c, 0, 62, 64
3, 221040, Note_on_c, 0, 63, 64
3, 221280, Note_off_c, 0, 63, 64
3, 221520, Note_on_c, 0, 70, 64
3, 221760, Note_off_c, 0, 70, 64
3, 221760, Note_on_c, 0, 69, 64
3, 222000, Note_off_c, 0, 69, 64
3, 222000, Note_on_c, 0, 68, 64
3, 222240, Note_off_c, 0, 68, 64
3, 222240, Note_on_c, 0, 67, 64
3, 222480, Note_off_c, 0, 67, 64
3, 222480, Note_on_c, 0, 66, 64
3, 222720, Note_off_c, 0, 66, 64
3, 222720, Note_on_c, 0, 66, 64
3, 222960, Note_off_c, 0, 66, 64
3, 222960, Note_on_c, 0, 65, 64
3, 223200, Note_off_c, 0, 65, 64
3, 223440, Note_on_c, 0, 60, 64
3, 223680, Note_off_c, 0, 60, 64
3, 223680, Note_on_c, 0, 59, 64
3, 223920, Note_off_c, 0, 59, 64
3, 223920, Note_on_c, 0, 58, 64
3, 224160, Note_off_c, 0, 58, 64
3, 224160, Note_on_c, 0, 57, 64
3, 224400, Note_off_c, 0, 57, 64
3, 224400, Note_on_c, 0, 56, 64
3, 224640, Note_off_c, 0, 56, 64
3, 224640, Note_on_c, 0, 56, 64
3, 224880, Note_off_c, 0, 56, 64
3, 224880, Note_on_c, 0, 55, 64
3, 225120, Note_off_c, 0, 55, 64
3, 225120, Note_on_c, 0, 55, 64
3, 225600, Note_off_c, 0, 55, 64
3, 225600, Note_on_c, 0, 56, 64
3, 226080, Note_off_c, 0, 56, 64
3, 226080, Note_on_c, 0, 58, 64
3, 226560, Note_off_c, 0, 58, 64
3, 226560, Note_on_c, 0, 51, 64
3, 227040, Note_off_c, 0, 51, 64
3, 227280, Note_on_c, 0, 60, 64
3, 227520, Note_off_c, 0, 60, 64
3, 227520, Note_on_c, 0, 61, 64
3, 227760, Note_off_c, 0, 61, 64
3, 227760, Note_on_c, 0, 62, 64
3, 228000, Note_off_c, 0, 62, 64
3, 228000, Note_on_c, 0, 63, 64
3, 228240, Note_off_c, 0, 63, 64
3, 228240, Note_on_c, 0, 64, 64
3, 228480, Note_off_c, 0, 64, 64
3, 228480, Note_on_c, 0, 65, 64
3, 228720, Note_off_c, 0, 65, 64
3, 228720, Note_on_c, 0, 64, 64
3, 228960, Note_off_c, 0, 64, 64
3, 228960, Note_on_c, 0, 65, 64
3, 229200, Note_off_c, 0, 65, 64
3, 229200, Note_on_c, 0, 56, 64
3, 229440, Note_off_c, 0, 56, 64
3, 229440, Note_on_c, 0, 58, 64
3, 229920, Note_off_c, 0, 58, 64
3, 229920, Note_on_c, 0, 60, 64
3, 230400, Note_off_c, 0, 60, 64
3, 230400, Note_on_c, 0, 53, 64
3, 230880, Note_off_c, 0, 53, 64
3, 231120, Note_on_c, 0, 62, 64
3, 231360, Note_off_c, 0, 62, 64
3, 231360, Note_on_c, 0, 63, 64
3, 231600, Note_off_c, 0, 63, 64
3, 231600, Note_on_c, 0, 64, 64
3, 231840, Note_off_c, 0, 64, 64
3, 231840, Note_on_c, 0, 65, 64
3, 232080, Note_off_c, 0, 65, 64
3, 232080, Note_on_c, 0, 66, 64
3, 232320, Note_off_c, 0, 66, 64
3, 232320, Note_on_c, 0, 67, 64
3, 232560, Note_off_c, 0, 67, 64
3, 232560, Note_on_c, 0, 66, 64
3, 232800, Note_off_c, 0, 66, 64
3, 232800, Note_on_c, 0, 67, 64
3, 233280, Note_off_c, 0, 67, 64
3, 234000, Note_on_c, 0, 62, 64
3, 234240, Note_off_c, 0, 62, 64
3, 234240, Note_on_c, 0, 61, 64
3, 234480, Note_off_c, 0, 61, 64
3, 234480, Note_on_c, 0, 60, 64
3, 234720, Note_off_c, 0, 60, 64
3, 234720, Note_on_c, 0, 59, 64
3, 234960, Note_off_c, 0, 59, 64
3, 234960, Note_on_c, 0, 58, 64
3, 235200, Note_off_c, 0, 58, 64
3, 235200, Note_on_c, 0, 57, 64
3, 235440, Note_off_c, 0, 57, 64
3, 235440, Note_on_c, 0, 58, 64
3, 235680, Note_off_c, 0, 58, 64
3, 235680, Note_on_c, 0, 59, 64
3, 235920, Note_off_c, 0, 59, 64
3, 235920, Note_on_c, 0, 60, 64
3, 236160, Note_off_c, 0, 60, 64
3, 236160, Note_on_c, 0, 62, 64
3, 236640, Note_off_c, 0, 62, 64
3, 236640, Note_on_c, 0, 60, 64
3, 237600, Note_off_c, 0, 60, 64
3, 237600, Note_on_c, 0, 59, 64
3, 238080, Note_off_c, 0, 59, 64
3, 238080, Note_on_c, 0, 60, 64
3, 238560, Note_off_c, 0, 60, 64
3, 238800, Note_on_c, 0, 68, 64
3, 239280, Note_off_c, 0, 68, 64
3, 239280, Note_on_c, 0, 67, 64
3, 239400, Note_off_c, 0, 67, 64
3, 239400, Note_on_c, 0, 65, 64
3, 239520, Note_off_c, 0, 65, 64
3, 239520, Note_on_c, 0, 67, 64
3, 240240, Note_off_c, 0, 67, 64
3, 240240, Note_on_c, 0, 65, 64
3, 240360, Note_off_c, 0, 65, 64
3, 240360, Note_on_c, 0, 63, 64
3, 240480, Note_off_c, 0, 63, 64
3, 240480, Note_on_c, 0, 62, 64
3, 240720, Note_off_c, 0, 62, 64
3, 240720, Note_on_c, 0, 60, 64
3, 240960, Note_off_c, 0, 60, 64
3, 240960, Note_on_c, 0, 59, 64
3, 241440, Note_off_c, 0, 59, 64
3, 241440, Note_on_c, 0, 58, 64
3, 242400, Note_off_c, 0, 58, 64
3, 242400, Note_on_c, 0, 56, 64
3, 242640, Note_off_c, 0, 56, 64
3, 242640, Note_on_c, 0, 55, 64
3, 242880, Note_off_c, 0, 55, 64
3, 242880, Note_on_c, 0, 53, 64
3, 243360, Note_off_c, 0, 53, 64
3, 243360, Note_on_c, 0, 52, 64
3, 243840, Note_off_c, 0, 52, 64
3, 243840, Note_on_c, 0, 53, 64
3, 244320, Note_off_c, 0, 53, 64
3, 244560, Note_on_c, 0, 64, 64
3, 244800, Note_off_c, 0, 64, 64
3, 244800, Note_on_c, 0, 65, 64
3, 245280, Note_off_c, 0, 65, 64
3, 245520, Note_on_c, 0, 67, 64
3, 245760, Note_off_c, 0, 67, 64
3, 245760, Note_on_c, 0, 68, 64
3, 246240, Note_off_c, 0, 68, 64
3, 246480, Note_on_c, 0, 68, 64
3, 246720, Note_off_c, 0, 68, 64
3, 246720, Note_on_c, 0, 67, 64
3, 247200, Note_off_c, 0, 67, 64
3, 247200, Note_on_c, 0, 66, 64
3, 247680, Note_off_c, 0, 66, 64
3, 247680, Note_on_c, 0, 65, 64
3, 248160, Note_off_c, 0, 65, 64
3, 248160, Note_on_c, 0, 63, 64
3, 249120, Note_off_c, 0, 63, 64
3, 249120, Note_on_c, 0, 62, 64
3, 249600, Note_off_c, 0, 62, 64
3, 249600, Note_on_c, 0, 67, 64
3, 250080, Note_off_c, 0, 67, 64
3, 250320, Note_on_c, 0, 66, 64
3, 250560, Note_off_c, 0, 66, 64
3, 250560, Note_on_c, 0, 65, 64
3, 251040, Note_off_c, 0, 65, 64
3, 251040, Note_on_c, 0, 64, 64
3, 251520, Note_off_c, 0, 64, 64
3, 251520, Note_on_c, 0, 63, 64
3, 252000, Note_off_c, 0, 63, 64
3, 252000, Note_on_c, 0, 61, 64
3, 252960, Note_off_c, 0, 61, 64
3, 252960, Note_on_c, 0, 60, 64
3, 253440, Note_off_c, 0, 60, 64
3, 253440, Note_on_c, 0, 65, 64
3, 253920, Note_off_c, 0, 65, 64
3, 254160, Note_on_c, 0, 64, 64
3, 254400, Note_off_c, 0, 64, 64
3, 254400, Note_on_c, 0, 63, 64
3, 255360, Note_off_c, 0, 63, 64
3, 255360, Note_on_c, 0, 62, 64
3, 255840, Note_off_c, 0, 62, 64
3, 255840, Note_on_c, 0, 61, 64
3, 256320, Note_off_c, 0, 61, 64
3, 256320, Note_on_c, 0, 60, 64
3, 257520, Note_off_c, 0, 60, 64
3, 257520, Note_on_c, 0, 60, 64
3, 257760, Note_off_c, 0, 60, 64
3, 257760, Note_on_c, 0, 58, 64
3, 258000, Note_off_c, 0, 58, 64
3, 258000, Note_on_c, 0, 56, 64
3, 258240, Note_off_c, 0, 56, 64
3, 258240, Note_on_c, 0, 54, 64
3, 258480, Note_off_c, 0, 54, 64
3, 258480, Note_on_c, 0, 53, 64
3, 258720, Note_off_c, 0, 53, 64
3, 258720, Note_on_c, 0, 52, 64
3, 258960, Note_off_c, 0, 52, 64
3, 258960, Note_on_c, 0, 53, 64
3, 259200, Note_off_c, 0, 53, 64
3, 259200, Note_on_c, 0, 52, 64
3, 260160, Note_off_c, 0, 52, 64
3, 261600, Note_on_c, 0, 65, 64
3, 262320, Note_off_c, 0, 65, 64
3, 262320, Note_on_c, 0, 64, 64
3, 262560, Note_off_c, 0, 64, 64
3, 262560, Note_on_c, 0, 63, 64
3, 262800, Note_off_c, 0, 63, 64
3, 262800, Note_on_c, 0, 62, 64
3, 263040, Note_off_c, 0, 62, 64
3, 263040, Note_on_c, 0, 61, 64
3, 263520, Note_off_c, 0, 61, 64
3, 263520, Note_on_c, 0, 55, 64
3, 264000, Note_off_c, 0, 55, 64
3, 264000, Note_on_c, 0, 58, 64
3, 264480, Note_off_c, 0, 58, 64
3, 265680, Note_on_c, 0, 70, 64
3, 266160, Note_off_c, 0, 70, 64
3, 266160, Note_on_c, 0, 68, 64
3, 266400, Note_off_c, 0, 68, 64
3, 266400, Note_on_c, 0, 67, 64
3, 266640, Note_off_c, 0, 67, 64
3, 266640, Note_on_c, 0, 66, 64
3, 266880, Note_off_c, 0, 66, 64
3, 266880, Note_on_c, 0, 65, 64
3, 267120, Note_off_c, 0, 65, 64
3, 267120, Note_on_c, 0, 68, 64
3, 267360, Note_off_c, 0, 68, 64
3, 267360, Note_on_c, 0, 67, 64
3, 267600, Note_off_c, 0, 67, 64
3, 267600, Note_on_c, 0, 65, 64
3, 267840, Note_off_c, 0, 65, 64
3, 267840, Note_on_c, 0, 63, 64
3, 268080, Note_off_c, 0, 63, 64
3, 268080, Note_on_c, 0, 62, 64
3, 268320, Note_off_c, 0, 62, 64
3, 268320, Note_on_c, 0, 60, 64
3, 268560, Note_off_c, 0, 60, 64
3, 268560, Note_on_c, 0, 59, 64
3, 268800, Note_off_c, 0, 59, 64
3, 268800, Note_on_c, 0, 60, 64
3, 269040, Note_off_c, 0, 60, 64
3, 270000, Note_on_c, 0, 71, 64
3, 270240, Note_off_c, 0, 71, 64
3, 270240, Note_on_c, 0, 72, 64
3, 270480, Note_off_c, 0, 72, 64
3, 270480, Note_on_c, 0, 74, 64
3, 270720, Note_off_c, 0, 74, 64
3, 270720, Note_on_c, 0, 75, 64
3, 271200, Note_off_c, 0, 75, 64
3, 271200, Note_on_c, 0, 72, 64
3, 272160, Note_off_c, 0, 72, 64
3, 272160, Note_on_c, 0, 77, 64
3, 272880, Note_off_c, 0, 77, 64
3, 272880, Note_on_c, 0, 74, 64
3, 273120, Note_off_c, 0, 74, 64
3, 273120, Note_on_c, 0, 75, 64
3, 273360, Note_off_c, 0, 75, 64
3, 273360, Note_on_c, 0, 77, 64
3, 273600, Note_off_c, 0, 77, 64
3, 273600, Note_on_c, 0, 75, 64
3, 273840, Note_off_c, 0, 75, 64
3, 273840, Note_on_c, 0, 74, 64
3, 274080, Note_off_c, 0, 74, 64
3, 274080, Note_on_c, 0, 72, 64
3, 274320, Note_off_c, 0, 72, 64
3, 274320, Note_on_c, 0, 70, 64
3, 274560, Note_off_c, 0, 70, 64
3, 274560, Note_on_c, 0, 69, 64
3, 274800, Note_off_c, 0, 69, 64
3, 274800, Note_on_c, 0, 72, 64
3, 275040, Note_off_c, 0, 72, 64
3, 275040, Note_on_c, 0, 74, 64
3, 275280, Note_off_c, 0, 74, 64
3, 275280, Note_on_c, 0, 75, 64
3, 275520, Note_off_c, 0, 75, 64
3, 275520, Note_on_c, 0, 74, 64
3, 275760, Note_off_c, 0, 74, 64
3, 275760, Note_on_c, 0, 72, 64
3, 276000, Note_off_c, 0, 72, 64
3, 276000, Note_on_c, 0, 71, 64
3, 276240, Note_off_c, 0, 71, 64
3, 276240, Note_on_c, 0, 69, 64
3, 276480, Note_off_c, 0, 69, 64
3, 276480, Note_on_c, 0, 67, 64
3, 276720, Note_off_c, 0, 67, 64
3, 276720, Note_on_c, 0, 71, 64
3, 276960, Note_off_c, 0, 71, 64
3, 276960, Note_on_c, 0, 72, 64
3, 277200, Note_off_c, 0, 72, 64
3, 277200, Note_on_c, 0, 74, 64
3, 277440, Note_off_c, 0, 74, 64
3, 277440, Note_on_c, 0, 72, 64
3, 277680, Note_off_c, 0, 72, 64
3, 277680, Note_on_c, 0, 70, 64
3, 277920, Note_off_c, 0, 70, 64
3, 277920, Note_on_c, 0, 69, 64
3, 278160, Note_off_c, 0, 69, 64
3, 278160, Note_on_c, 0, 67, 64
3, 278400, Note_off_c, 0, 67, 64
3, 278400, Note_on_c, 0, 66, 64
3, 278880, Note_off_c, 0, 66, 64
3, 278880, Note_on_c, 0, 67, 64
3, 279840, Note_off_c, 0, 67, 64
3, 279840, Note_on_c, 0, 68, 64
3, 280560, Note_off_c, 0, 68, 64
3, 280560, Note_on_c, 0, 62, 64
3, 280800, Note_off_c, 0, 62, 64
3, 280800, Note_on_c, 0, 63, 64
3, 281040, Note_off_c, 0, 63, 64
3, 281040, Note_on_c, 0, 65, 64
3, 281280, Note_off_c, 0, 65, 64
3, 281280, Note_on_c, 0, 63, 64
3, 281520, Note_off_c, 0, 63, 64
3, 281520, Note_on_c, 0, 62, 64
3, 281760, Note_off_c, 0, 62, 64
3, 281760, Note_on_c, 0, 60, 64
3, 282000, Note_off_c, 0, 60, 64
3, 282000, Note_on_c, 0, 59, 64
3, 282240, Note_off_c, 0, 59, 64
3, 282240, Note_on_c, 0, 60, 64
3, 282480, Note_off_c, 0, 60, 64
3, 282480, Note_on_c, 0, 65, 64
3, 282720, Note_off_c, 0, 65, 64
3, 282720, Note_on_c, 0, 67, 64
3, 282960, Note_off_c, 0, 67, 64
3, 282960, Note_on_c, 0, 68, 64
3, 283440, Note_off_c, 0, 68, 64
3, 283440, Note_on_c, 0, 68, 64
3, 283680, Note_off_c, 0, 68, 64
3, 283680, Note_on_c, 0, 67, 64
3, 283920, Note_off_c, 0, 67, 64
3, 283920, Note_on_c, 0, 65, 64
3, 284160, Note_off_c, 0, 65, 64
3, 284160, Note_on_c, 0, 64, 64
3, 285120, Note_off_c, 0, 64, 64
3, 285120, Note_on_c, 0, 63, 64
3, 286080, Note_off_c, 0, 63, 64
3, 286080, Note_on_c, 0, 62, 64
3, 286320, Note_off_c, 0, 62, 64
3, 286320, Note_on_c, 0, 72, 64
3, 286560, Note_off_c, 0, 72, 64
3, 286560, Note_on_c, 0, 74, 64
3, 286800, Note_off_c, 0, 74, 64
3, 286800, Note_on_c, 0, 75, 64
3, 287040, Note_off_c, 0, 75, 64
3, 287040, Note_on_c, 0, 74, 64
3, 287280, Note_off_c, 0, 74, 64
3, 287280, Note_on_c, 0, 72, 64
3, 287520, Note_off_c, 0, 72, 64
3, 287520, Note_on_c, 0, 70, 64
3, 287760, Note_off_c, 0, 70, 64
3, 287760, Note_on_c, 0, 69, 64
3, 288000, Note_off_c, 0, 69, 64
3, 288000, Note_on_c, 0, 70, 64
3, 288240, Note_off_c, 0, 70, 64
3, 288240, Note_on_c, 0, 67, 64
3, 288480, Note_off_c, 0, 67, 64
3, 288480, Note_on_c, 0, 69, 64
3, 288720, Note_off_c, 0, 69, 64
3, 288720, Note_on_c, 0, 70, 64
3, 288960, Note_off_c, 0, 70, 64
3, 288960, Note_on_c, 0, 68, 64
3, 289200, Note_off_c, 0, 68, 64
3, 289200, Note_on_c, 0, 67, 64
3, 289440, Note_off_c, 0, 67, 64
3, 289440, Note_on_c, 0, 66, 64
3, 289680, Note_off_c, 0, 66, 64
3, 289680, Note_on_c, 0, 67, 64
3, 289920, Note_off_c, 0, 67, 64
3, 289920, Note_on_c, 0, 66, 64
3, 290400, Note_off_c, 0, 66, 64
3, 290400, Note_on_c, 0, 67, 64
3, 290640, Note_off_c, 0, 67, 64
3, 290640, Note_on_c, 0, 69, 64
3, 290880, Note_off_c, 0, 69, 64
3, 290880, Note_on_c, 0, 62, 64
3, 291360, Note_off_c, 0, 62, 64
3, 291840, Note_on_c, 0, 67, 64
3, 292800, Note_off_c, 0, 67, 64
3, 292800, Note_on_c, 0, 70, 64
3, 293760, Note_off_c, 0, 70, 64
3, 293760, Note_on_c, 0, 72, 64
3, 294720, Note_off_c, 0, 72, 64
3, 294720, Note_on_c, 0, 75, 64
3, 295680, Note_off_c, 0, 75, 64
3, 295680, Note_on_c, 0, 66, 64
3, 296640, Note_off_c, 0, 66, 64
3, 297120, Note_on_c, 0, 74, 64
3, 297600, Note_off_c, 0, 74, 64
3, 297600, Note_on_c, 0, 73, 64
3, 298560, Note_off_c, 0, 73, 64
3, 298560, Note_on_c, 0, 72, 64
3, 299520, Note_off_c, 0, 72, 64
3, 299520, Note_on_c, 0, 71, 64
3, 300480, Note_off_c, 0, 71, 64
3, 300480, Note_on_c, 0, 70, 64
3, 301920, Note_off_c, 0, 70, 64
3, 301920, Note_on_c, 0, 69, 64
3, 302400, Note_off_c, 0, 69, 64
3, 302400, Note_on_c, 0, 68, 64
3, 302880, Note_off_c, 0, 68, 64
3, 302880, Note_on_c, 0, 67, 64
3, 303360, Note_off_c, 0, 67, 64
3, 303360, Note_on_c, 0, 66, 64
3, 303840, Note_off_c, 0, 66, 64
3, 303840, Note_on_c, 0, 64, 64
3, 304080, Note_off_c, 0, 64, 64
3, 304080, Note_on_c, 0, 62, 64
3, 304320, Note_off_c, 0, 62, 64
3, 304320, Note_on_c, 0, 67, 64
3, 304800, Note_off_c, 0, 67, 64
3, 304800, Note_on_c, 0, 72, 64
3, 305280, Note_off_c, 0, 72, 64
3, 305280, Note_on_c, 0, 70, 64
3, 306240, Note_off_c, 0, 70, 64
3, 306240, Note_on_c, 0, 70, 64
3, 306360, Note_off_c, 0, 70, 64
3, 306360, Note_on_c, 0, 69, 64
3, 306480, Note_off_c, 0, 69, 64
3, 306480, Note_on_c, 0, 70, 64
3, 306600, Note_off_c, 0, 70, 64
3, 306600, Note_on_c, 0, 69, 64
3, 306720, Note_off_c, 0, 69, 64
3, 306720, Note_on_c, 0, 70, 64
3, 306840, Note_off_c, 0, 70, 64
3, 306840, Note_on_c, 0, 69, 64
3, 306960, Note_off_c, 0, 69, 64
3, 306960, Note_on_c, 0, 67, 64
3, 307080, Note_off_c, 0, 67, 64
3, 307080, Note_on_c, 0, 69, 64
3, 307200, Note_off_c, 0, 69, 64
3, 307200, Note_on_c, 0, 67, 64
3, 307680, Note_off_c, 0, 67, 64
3, 308640, Note_on_c, 0, 73, 64
3, 309120, Note_off_c, 0, 73, 64
3, 309120, Note_on_c, 0, 67, 64
3, 309600, Note_off_c, 0, 67, 64
3, 309600, Note_on_c, 0, 70, 64
3, 310080, Note_off_c, 0, 70, 64
3, 310080, Note_on_c, 0, 64, 64
3, 310320, Note_off_c, 0, 64, 64
3, 310320, Note_on_c, 0, 65, 64
3, 310560, Note_off_c, 0, 65, 64
3, 310560, Note_on_c, 0, 67, 64
3, 310800, Note_off_c, 0, 67, 64
3, 310800, Note_on_c, 0, 64, 64
3, 311040, Note_off_c, 0, 64, 64
3, 311040, Note_on_c, 0, 60, 64
3, 311520, Note_off_c, 0, 60, 64
3, 311520, Note_on_c, 0, 62, 64
3, 311760, Note_off_c, 0, 62, 64
3, 311760, Note_on_c, 0, 64, 64
3, 312000, Note_off_c, 0, 64, 64
3, 312000, Note_on_c, 0, 65, 64
3, 313440, Note_off_c, 0, 65, 64
3, 313440, Note_on_c, 0, 68, 64
3, 313920, Note_off_c, 0, 68, 64
3, 313920, Note_on_c, 0, 62, 64
3, 314160, Note_off_c, 0, 62, 64
3, 314160, Note_on_c, 0, 63, 64
3, 314400, Note_off_c, 0, 63, 64
3, 314400, Note_on_c, 0, 65, 64
3, 314640, Note_off_c, 0, 65, 64
3, 314640, Note_on_c, 0, 62, 64
3, 314880, Note_off_c, 0, 62, 64
3, 314880, Note_on_c, 0, 58, 64
3, 315360, Note_off_c, 0, 58, 64
3, 315360, Note_on_c, 0, 60, 64
3, 315600, Note_off_c, 0, 60, 64
3, 315600, Note_on_c, 0, 62, 64
3, 315840, Note_off_c, 0, 62, 64
3, 315840, Note_on_c, 0, 63, 64
3, 317280, Note_off_c, 0, 63, 64
3, 317280, Note_on_c, 0, 62, 64
3, 317520, Note_off_c, 0, 62, 64
3, 317520, Note_on_c, 0, 60, 64
3, 317760, Note_off_c, 0, 60, 64
3, 317760, Note_on_c, 0, 62, 64
3, 318000, Note_off_c, 0, 62, 64
3, 318000, Note_on_c, 0, 60, 64
3, 318240, Note_off_c, 0, 60, 64
3, 318240, Note_on_c, 0, 59, 64
3, 318480, Note_off_c, 0, 59, 64
3, 318480, Note_on_c, 0, 57, 64
3, 318720, Note_off_c, 0, 57, 64
3, 318720, Note_on_c, 0, 55, 64
3, 319200, Note_off_c, 0, 55, 64
3, 319200, Note_on_c, 0, 57, 64
3, 319440, Note_off_c, 0, 57, 64
3, 319440, Note_on_c, 0, 59, 64
3, 319680, Note_off_c, 0, 59, 64
3, 319680, Note_on_c, 0, 60, 64
3, 321120, Note_off_c, 0, 60, 64
3, 321120, Note_on_c, 0, 59, 64
3, 321600, Note_off_c, 0, 59, 64
3, 321600, Note_on_c, 0, 60, 64
3, 322080, Note_off_c, 0, 60, 64
3, 322080, Note_on_c, 0, 62, 64
3, 322560, Note_off_c, 0, 62, 64
3, 322560, Note_on_c, 0, 55, 64
3, 323040, Note_off_c, 0, 55, 64
3, 323040, Note_on_c, 0, 57, 64
3, 323280, Note_off_c, 0, 57, 64
3, 323280, Note_on_c, 0, 59, 64
3, 323520, Note_off_c, 0, 59, 64
3, 323520, Note_on_c, 0, 60, 64
3, 323760, Note_off_c, 0, 60, 64
3, 323760, Note_on_c, 0, 59, 64
3, 324000, Note_off_c, 0, 59, 64
3, 324000, Note_on_c, 0, 60, 64
3, 324720, Note_off_c, 0, 60, 64
3, 324720, Note_on_c, 0, 59, 64
3, 324960, Note_off_c, 0, 59, 64
3, 324960, Note_on_c, 0, 57, 64
3, 325200, Note_off_c, 0, 57, 64
3, 325200, Note_on_c, 0, 59, 64
3, 325440, Note_off_c, 0, 59, 64
3, 325440, Note_on_c, 0, 60, 64
3, 325680, Note_off_c, 0, 60, 64
3, 325680, Note_on_c, 0, 63, 64
3, 325920, Note_off_c, 0, 63, 64
3, 325920, Note_on_c, 0, 62, 64
3, 326160, Note_off_c, 0, 62, 64
3, 326160, Note_on_c, 0, 60, 64
3, 326400, Note_off_c, 0, 60, 64
3, 326400, Note_on_c, 0, 62, 64
3, 326880, Note_off_c, 0, 62, 64
3, 326880, Note_on_c, 0, 55, 64
3, 327360, Note_off_c, 0, 55, 64
3, 327360, Note_on_c, 0, 60, 64
3, 327600, Note_off_c, 0, 60, 64
3, 327600, Note_on_c, 0, 62, 64
3, 327840, Note_off_c, 0, 62, 64
3, 327840, Note_on_c, 0, 63, 64
3, 328800, Note_off_c, 0, 63, 64
3, 328800, Note_on_c, 0, 57, 64
3, 329280, Note_off_c, 0, 57, 64
3, 329280, Note_on_c, 0, 59, 64
3, 329520, Note_off_c, 0, 59, 64
3, 329520, Note_on_c, 0, 60, 64
3, 329760, Note_off_c, 0, 60, 64
3, 329760, Note_on_c, 0, 62, 64
3, 330720, Note_off_c, 0, 62, 64
3, 330720, Note_on_c, 0, 55, 64
3, 331200, Note_off_c, 0, 55, 64
3, 331200, Note_on_c, 0, 57, 64
3, 331440, Note_off_c, 0, 57, 64
3, 331440, Note_on_c, 0, 58, 64
3, 331680, Note_off_c, 0, 58, 64
3, 331680, Note_on_c, 0, 60, 64
3, 332400, Note_off_c, 0, 60, 64
3, 332400, Note_on_c, 0, 57, 64
3, 332640, Note_off_c, 0, 57, 64
3, 332640, Note_on_c, 0, 58, 64
3, 332880, Note_off_c, 0, 58, 64
3, 332880, Note_on_c, 0, 60, 64
3, 333120, Note_off_c, 0, 60, 64
3, 333120, Note_on_c, 0, 58, 64
3, 333360, Note_off_c, 0, 58, 64
3, 333360, Note_on_c, 0, 57, 64
3, 333600, Note_off_c, 0, 57, 64
3, 333600, Note_on_c, 0, 55, 64
3, 333840, Note_off_c, 0, 55, 64
3, 333840, Note_on_c, 0, 54, 64
3, 334080, Note_off_c, 0, 54, 64
3, 334080, Note_on_c, 0, 55, 64
3, 336480, Note_off_c, 0, 55, 64
3, 336480, Note_on_c, 0, 60, 64
3, 337440, Note_off_c, 0, 60, 64
3, 337440, Note_on_c, 0, 59, 64
3, 337920, Note_off_c, 0, 59, 64
3, 337920, Note_on_c, 0, 60, 64
3, 338160, Note_off_c, 0, 60, 64
3, 338160, Note_on_c, 0, 55, 64
3, 338400, Note_off_c, 0, 55, 64
3, 338400, Note_on_c, 0, 56, 64
3, 338640, Note_off_c, 0, 56, 64
3, 338640, Note_on_c, 0, 58, 64
3, 338880, Note_off_c, 0, 58, 64
3, 338880, Note_on_c, 0, 56, 64
3, 339120, Note_off_c, 0, 56, 64
3, 339120, Note_on_c, 0, 55, 64
3, 339360, Note_off_c, 0, 55, 64
3, 339360, Note_on_c, 0, 53, 64
3, 339600, Note_off_c, 0, 53, 64
3, 339600, Note_on_c, 0, 51, 64
3, 339840, Note_off_c, 0, 51, 64
3, 339840, Note_on_c, 0, 50, 64
3, 340080, Note_off_c, 0, 50, 64
3, 340080, Note_on_c, 0, 54, 64
3, 340320, Note_off_c, 0, 54, 64
3, 340320, Note_on_c, 0, 55, 64
3, 340560, Note_off_c, 0, 55, 64
3, 340560, Note_on_c, 0, 57, 64
3, 340800, Note_off_c, 0, 57, 64
3, 340800, Note_on_c, 0, 55, 64
3, 341040, Note_off_c, 0, 55, 64
3, 341040, Note_on_c, 0, 53, 64
3, 341280, Note_off_c, 0, 53, 64
3, 341280, Note_on_c, 0, 52, 64
3, 341520, Note_off_c, 0, 52, 64
3, 341520, Note_on_c, 0, 50, 64
3, 341760, Note_off_c, 0, 50, 64
3, 341760, Note_on_c, 0, 48, 64
3, 342000, Note_off_c, 0, 48, 64
3, 342000, Note_on_c, 0, 52, 64
3, 342240, Note_off_c, 0, 52, 64
3, 342240, Note_on_c, 0, 53, 64
3, 342480, Note_off_c, 0, 53, 64
3, 342480, Note_on_c, 0, 55, 64
3, 342720, Note_off_c, 0, 55, 64
3, 342720, Note_on_c, 0, 53, 64
3, 342960, Note_off_c, 0, 53, 64
3, 342960, Note_on_c, 0, 51, 64
3, 343200, Note_off_c, 0, 51, 64
3, 343200, Note_on_c, 0, 50, 64
3, 343440, Note_off_c, 0, 50, 64
3, 343440, Note_on_c, 0, 48, 64
3, 343680, Note_off_c, 0, 48, 64
3, 343680, Note_on_c, 0, 47, 64
3, 344160, Note_off_c, 0, 47, 64
3, 344160, Note_on_c, 0, 55, 64
3, 344640, Note_off_c, 0, 55, 64
3, 344640, Note_on_c, 0, 54, 64
3, 345120, Note_off_c, 0, 54, 64
3, 345120, Note_on_c, 0, 53, 64
3, 345600, Note_off_c, 0, 53, 64
3, 345600, Note_on_c, 0, 52, 64
3, 345840, Note_off_c, 0, 52, 64
3, 345840, Note_on_c, 0, 50, 64
3, 346080, Note_off_c, 0, 50, 64
3, 346080, Note_on_c, 0, 51, 64
3, 346320, Note_off_c, 0, 51, 64
3, 346320, Note_on_c, 0, 60, 64
3, 346560, Note_off_c, 0, 60, 64
3, 346560, Note_on_c, 0, 50, 64
3, 346800, Note_off_c, 0, 50, 64
3, 346800, Note_on_c, 0, 60, 64
3, 347040, Note_off_c, 0, 60, 64
3, 347040, Note_on_c, 0, 59, 64
3, 347280, Note_off_c, 0, 59, 64
3, 347280, Note_on_c, 0, 50, 64
3, 347520, Note_off_c, 0, 50, 64
3, 347520, Note_on_c, 0, 48, 64
3, 348240, Note_off_c, 0, 48, 64
3, 348240, Note_on_c, 0, 47, 64
3, 348480, Note_off_c, 0, 47, 64
3, 348480, Note_on_c, 0, 48, 64
3, 349200, Note_off_c, 0, 48, 64
3, 349200, Note_on_c, 0, 59, 64
3, 349440, Note_off_c, 0, 59, 64
3, 349440, Note_on_c, 0, 60, 64
3, 350160, Note_off_c, 0, 60, 64
3, 350160, Note_on_c, 0, 68, 64
3, 350400, Note_off_c, 0, 68, 64
3, 350400, Note_on_c, 0, 67, 64
3, 350640, Note_off_c, 0, 67, 64
3, 350640, Note_on_c, 0, 66, 64
3, 350880, Note_off_c, 0, 66, 64
3, 351120, Note_on_c, 0, 62, 64
3, 351360, Note_off_c, 0, 62, 64
3, 351360, Note_on_c, 0, 62, 64
3, 351600, Note_off_c, 0, 62, 64
3, 351600, Note_on_c, 0, 60, 64
3, 351840, Note_off_c, 0, 60, 64
3, 352080, Note_on_c, 0, 63, 64
3, 352320, Note_off_c, 0, 63, 64
3, 352560, Note_on_c, 0, 62, 64
3, 352800, Note_off_c, 0, 62, 64
3, 353040, Note_on_c, 0, 65, 64
3, 353280, Note_off_c, 0, 65, 64
3, 353280, Note_on_c, 0, 65, 64
3, 353760, Note_off_c, 0, 65, 64
3, 353760, Note_on_c, 0, 63, 64
3, 354240, Note_off_c, 0, 63, 64
3, 354240, End_track
4, 0, Start_track
4, 0, Text_t, "Voce 3  "
4, 42240, Note_on_c, 0, 48, 64
4, 43200, Note_off_c, 0, 48, 64
4, 43200, Note_on_c, 0, 51, 64
4, 44160, Note_off_c, 0, 51, 64
4, 44160, Note_on_c, 0, 55, 64
4, 45120, Note_off_c, 0, 55, 64
4, 45120, Note_on_c, 0, 56, 64
4, 46080, Note_off_c, 0, 56, 64
4, 46080, Note_on_c, 0, 47, 64
4, 47040, Note_off_c, 0, 47, 64
4, 47520, Note_on_c, 0, 55, 64
4, 48000, Note_off_c, 0, 55, 64
4, 48000, Note_on_c, 0, 54, 64
4, 48960, Note_off_c, 0, 54, 64
4, 48960, Note_on_c, 0, 53, 64
4, 49920, Note_off_c, 0, 53, 64
4, 49920, Note_on_c, 0, 52, 64
4, 50880, Note_off_c, 0, 52, 64
4, 50880, Note_on_c, 0, 51, 64
4, 52320, Note_off_c, 0, 51, 64
4, 52320, Note_on_c, 0, 50, 64
4, 52800, Note_off_c, 0, 50, 64
4, 52800, Note_on_c, 0, 49, 64
4, 53280, Note_off_c, 0, 49, 64
4, 53280, Note_on_c, 0, 48, 64
4, 53760, Note_off_c, 0, 48, 64
4, 53760, Note_on_c, 0, 47, 64
4, 54240, Note_off_c, 0, 47, 64
4, 54240, Note_on_c, 0, 45, 64
4, 54480, Note_off_c, 0, 45, 64
4, 54480, Note_on_c, 0, 43, 64
4, 54720, Note_off_c, 0, 43, 64
4, 54720, Note_on_c, 0, 48, 64
4, 55200, Note_off_c, 0, 48, 64
4, 55200, Note_on_c, 0, 53, 64
4, 55680, Note_off_c, 0, 53, 64
4, 55680, Note_on_c, 0, 51, 64
4, 56640, Note_off_c, 0, 51, 64
4, 56640, Note_on_c, 0, 51, 64
4, 56760, Note_off_c, 0, 51, 64
4, 56760, Note_on_c, 0, 50, 64
4, 56880, Note_off_c, 0, 50, 64
4, 56880, Note_on_c, 0, 51, 64
4, 57000, Note_off_c, 0, 51, 64
4, 57000, Note_on_c, 0, 50, 64
4, 57120, Note_off_c, 0, 50, 64
4, 57120, Note_on_c, 0, 51, 64
4, 57240, Note_off_c, 0, 51, 64
4, 57240, Note_on_c, 0, 50, 64
4, 57360, Note_off_c, 0, 50, 64
4, 57360, Note_on_c, 0, 48, 64
4, 57480, Note_off_c, 0, 48, 64
4, 57480, Note_on_c, 0, 50, 64
4, 57600, Note_off_c, 0, 50, 64
4, 57600, Note_on_c, 0, 48, 64
4, 57840, Note_off_c, 0, 48, 64
4, 57840, Note_on_c, 0, 50, 64
4, 58080, Note_off_c, 0, 50, 64
4, 58080, Note_on_c, 0, 51, 64
4, 58320, Note_off_c, 0, 51, 64
4, 58320, Note_on_c, 0, 53, 64
4, 58560, Note_off_c, 0, 53, 64
4, 58560, Note_on_c, 0, 55, 64
4, 58800, Note_off_c, 0, 55, 64
4, 58800, Note_on_c, 0, 51, 64
4, 59040, Note_off_c, 0, 51, 64
4, 59040, Note_on_c, 0, 53, 64
4, 59280, Note_off_c, 0, 53, 64
4, 59280, Note_on_c, 0, 55, 64
4, 59520, Note_off_c, 0, 55, 64
4, 59520, Note_on_c, 0, 56, 64
4, 60000, Note_off_c, 0, 56, 64
4, 60000, Note_on_c, 0, 58, 64
4, 60480, Note_off_c, 0, 58, 64
4, 60480, Note_on_c, 0, 60, 64
4, 60720, Note_off_c, 0, 60, 64
4, 60720, Note_on_c, 0, 58, 64
4, 60960, Note_off_c, 0, 58, 64
4, 60960, Note_on_c, 0, 60, 64
4, 61440, Note_off_c, 0, 60, 64
4, 61440, Note_on_c, 0, 58, 64
4, 61680, Note_off_c, 0, 58, 64
4, 61680, Note_on_c, 0, 48, 64
4, 61920, Note_off_c, 0, 48, 64
4, 61920, Note_on_c, 0, 49, 64
4, 62160, Note_off_c, 0, 49, 64
4, 62160, Note_on_c, 0, 51, 64
4, 62400, Note_off_c, 0, 51, 64
4, 62400, Note_on_c, 0, 53, 64
4, 62640, Note_off_c, 0, 53, 64
4, 62640, Note_on_c, 0, 50, 64
4, 62880, Note_off_c, 0, 50, 64
4, 62880, Note_on_c, 0, 51, 64
4, 63120, Note_off_c, 0, 51, 64
4, 63120, Note_on_c, 0, 53, 64
4, 63360, Note_off_c, 0, 53, 64
4, 63360, Note_on_c, 0, 55, 64
4, 63840, Note_off_c, 0, 55, 64
4, 63840, Note_on_c, 0, 56, 64
4, 64320, Note_off_c, 0, 56, 64
4, 64320, Note_on_c, 0, 58, 64
4, 64560, Note_off_c, 0, 58, 64
4, 64560, Note_on_c, 0, 56, 64
4, 64800, Note_off_c, 0, 56, 64
4, 64800, Note_on_c, 0, 58, 64
4, 65280, Note_off_c, 0, 58, 64
4, 65280, Note_on_c, 0, 56, 64
4, 65520, Note_off_c, 0, 56, 64
4, 65520, Note_on_c, 0, 46, 64
4, 65760, Note_off_c, 0, 46, 64
4, 65760, Note_on_c, 0, 47, 64
4, 66000, Note_off_c, 0, 47, 64
4, 66000, Note_on_c, 0, 49, 64
4, 66240, Note_off_c, 0, 49, 64
4, 66240, Note_on_c, 0, 51, 64
4, 66480, Note_off_c, 0, 51, 64
4, 66480, Note_on_c, 0, 48, 64
4, 66720, Note_off_c, 0, 48, 64
4, 66720, Note_on_c, 0, 50, 64
4, 66960, Note_off_c, 0, 50, 64
4, 66960, Note_on_c, 0, 52, 64
4, 67200, Note_off_c, 0, 52, 64
4, 67200, Note_on_c, 0, 53, 64
4, 67440, Note_off_c, 0, 53, 64
4, 67440, Note_on_c, 0, 51, 64
4, 67680, Note_off_c, 0, 51, 64
4, 67680, Note_on_c, 0, 49, 64
4, 67920, Note_off_c, 0, 49, 64
4, 67920, Note_on_c, 0, 48, 64
4, 68160, Note_off_c, 0, 48, 64
4, 68160, Note_on_c, 0, 47, 64
4, 68400, Note_off_c, 0, 47, 64
4, 68400, Note_on_c, 0, 50, 64
4, 68640, Note_off_c, 0, 50, 64
4, 68640, Note_on_c, 0, 48, 64
4, 68880, Note_off_c, 0, 48, 64
4, 68880, Note_on_c, 0, 46, 64
4, 69120, Note_off_c, 0, 46, 64
4, 69120, Note_on_c, 0, 45, 64
4, 70080, Note_off_c, 0, 45, 64
4, 70080, Note_on_c, 0, 44, 64
4, 71040, Note_off_c, 0, 44, 64
4, 71040, Note_on_c, 0, 43, 64
4, 72000, Note_off_c, 0, 43, 64
4, 72000, Note_on_c, 0, 47, 64
4, 72960, Note_off_c, 0, 47, 64
4, 72960, Note_on_c, 0, 48, 64
4, 73920, Note_off_c, 0, 48, 64
4, 73920, Note_on_c, 0, 52, 64
4, 74880, Note_off_c, 0, 52, 64
4, 74880, Note_on_c, 0, 41, 64
4, 75840, Note_off_c, 0, 41, 64
4, 75840, Note_on_c, 0, 45, 64
4, 76800, Note_off_c, 0, 45, 64
4, 76800, Note_on_c, 0, 46, 64
4, 77760, Note_off_c, 0, 46, 64
4, 77760, Note_on_c, 0, 50, 64
4, 78720, Note_off_c, 0, 50, 64
4, 78720, Note_on_c, 0, 39, 64
4, 79200, Note_off_c, 0, 39, 64
4, 79200, Note_on_c, 0, 41, 64
4, 79680, Note_off_c, 0, 41, 64
4, 79680, Note_on_c, 0, 43, 64
4, 80160, Note_off_c, 0, 43, 64
4, 80160, Note_on_c, 0, 45, 64
4, 80640, Note_off_c, 0, 45, 64
4, 80640, Note_on_c, 0, 46, 64
4, 81120, Note_off_c, 0, 46, 64
4, 81120, Note_on_c, 0, 48, 64
4, 81600, Note_off_c, 0, 48, 64
4, 81600, Note_on_c, 0, 49, 64
4, 82080, Note_off_c, 0, 49, 64
4, 82080, Note_on_c, 0, 40, 64
4, 82560, Note_off_c, 0, 40, 64
4, 82560, Note_on_c, 0, 41, 64
4, 83040, Note_off_c, 0, 41, 64
4, 83040, Note_on_c, 0, 43, 64
4, 83520, Note_off_c, 0, 43, 64
4, 83520, Note_on_c, 0, 45, 64
4, 84000, Note_off_c, 0, 45, 64
4, 84000, Note_on_c, 0, 47, 64
4, 84480, Note_off_c, 0, 47, 64
4, 84480, Note_on_c, 0, 48, 64
4, 84960, Note_off_c, 0, 48, 64
4, 84960, Note_on_c, 0, 50, 64
4, 85440, Note_off_c, 0, 50, 64
4, 85440, Note_on_c, 0, 51, 64
4, 85920, Note_off_c, 0, 51, 64
4, 85920, Note_on_c, 0, 42, 64
4, 86400, Note_off_c, 0, 42, 64
4, 86400, Note_on_c, 0, 43, 64
4, 87360, Note_off_c, 0, 43, 64
4, 87360, Note_on_c, 0, 46, 64
4, 88320, Note_off_c, 0, 46, 64
4, 88320, Note_on_c, 0, 50, 64
4, 89280, Note_off_c, 0, 50, 64
4, 89280, Note_on_c, 0, 51, 64
4, 90240, Note_off_c, 0, 51, 64
4, 90240, Note_on_c, 0, 42, 64
4, 91200, Note_off_c, 0, 42, 64
4, 91680, Note_on_c, 0, 50, 64
4, 92160, Note_off_c, 0, 50, 64
4, 92160, Note_on_c, 0, 49, 64
4, 93120, Note_off_c, 0, 49, 64
4, 93120, Note_on_c, 0, 48, 64
4, 94080, Note_off_c, 0, 48, 64
4, 94080, Note_on_c, 0, 47, 64
4, 95040, Note_off_c, 0, 47, 64
4, 95040, Note_on_c, 0, 46, 64
4, 96480, Note_off_c, 0, 46, 64
4, 96480, Note_on_c, 0, 45, 64
4, 96960, Note_off_c, 0, 45, 64
4, 96960, Note_on_c, 0, 44, 64
4, 97440, Note_off_c, 0, 44, 64
4, 97440, Note_on_c, 0, 43, 64
4, 97920, Note_off_c, 0, 43, 64
4, 97920, Note_on_c, 0, 42, 64
4, 98400, Note_off_c, 0, 42, 64
4, 98400, Note_on_c, 0, 40, 64
4, 98640, Note_off_c, 0, 40, 64
4, 98640, Note_on_c, 0, 38, 64
4, 98880, Note_off_c, 0, 38, 64
4, 98880, Note_on_c, 0, 43, 64
4, 99360, Note_off_c, 0, 43, 64
4, 99360, Note_on_c, 0, 48, 64
4, 99840, Note_off_c, 0, 48, 64
4, 99840, Note_on_c, 0, 46, 64
4, 100800, Note_off_c, 0, 46, 64
4, 100800, Note_on_c, 0, 46, 64
4, 100920, Note_off_c, 0, 46, 64
4, 100920, Note_on_c, 0, 45, 64
4, 101040, Note_off_c, 0, 45, 64
4, 101040, Note_on_c, 0, 46, 64
4, 101160, Note_off_c, 0, 46, 64
4, 101160, Note_on_c, 0, 45, 64
4, 101280, Note_off_c, 0, 45, 64
4, 101280, Note_on_c, 0, 46, 64
4, 101400, Note_off_c, 0, 46, 64
4, 101400, Note_on_c, 0, 45, 64
4, 101520, Note_off_c, 0, 45, 64
4, 101520, Note_on_c, 0, 43, 64
4, 101640, Note_off_c, 0, 43, 64
4, 101640, Note_on_c, 0, 45, 64
4, 101760, Note_off_c, 0, 45, 64
4, 101760, Note_on_c, 0, 43, 64
4, 102240, Note_off_c, 0, 43, 64
4, 102240, Note_on_c, 0, 52, 64
4, 102720, Note_off_c, 0, 52, 64
4, 102720, Note_on_c, 0, 54, 64
4, 103200, Note_off_c, 0, 54, 64
4, 103200, Note_on_c, 0, 45, 64
4, 103680, Note_off_c, 0, 45, 64
4, 103680, Note_on_c, 0, 46, 64
4, 104160, Note_off_c, 0, 46, 64
4, 104160, Note_on_c, 0, 55, 64
4, 104640, Note_off_c, 0, 55, 64
4, 104640, Note_on_c, 0, 57, 64
4, 105120, Note_off_c, 0, 57, 64
4, 105120, Note_on_c, 0, 48, 64
4, 105600, Note_off_c, 0, 48, 64
4, 105600, Note_on_c, 0, 50, 64
4, 106080, Note_off_c, 0, 50, 64
4, 106080, Note_on_c, 0, 58, 64
4, 106560, Note_off_c, 0, 58, 64
4, 106560, Note_on_c, 0, 60, 64
4, 107040, Note_off_c, 0, 60, 64
4, 107040, Note_on_c, 0, 51, 64
4, 107760, Note_off_c, 0, 51, 64
4, 107760, Note_on_c, 0, 50, 64
4, 108000, Note_off_c, 0, 50, 64
4, 108000, Note_on_c, 0, 51, 64
4, 108240, Note_off_c, 0, 51, 64
4, 108240, Note_on_c, 0, 53, 64
4, 108480, Note_off_c, 0, 53, 64
4, 108480, Note_on_c, 0, 51, 64
4, 108720, Note_off_c, 0, 51, 64
4, 108720, Note_on_c, 0, 50, 64
4, 108960, Note_off_c, 0, 50, 64
4, 108960, Note_on_c, 0, 48, 64
4, 109200, Note_off_c, 0, 48, 64
4, 109200, Note_on_c, 0, 47, 64
4, 109440, Note_off_c, 0, 47, 64
4, 109440, Note_on_c, 0, 48, 64
4, 109680, Note_off_c, 0, 48, 64
4, 109680, Note_on_c, 0, 53, 64
4, 109920, Note_off_c, 0, 53, 64
4, 109920, Note_on_c, 0, 55, 64
4, 110160, Note_off_c, 0, 55, 64
4, 110160, Note_on_c, 0, 56, 64
4, 110400, Note_off_c, 0, 56, 64
4, 110400, Note_on_c, 0, 55, 64
4, 110640, Note_off_c, 0, 55, 64
4, 110640, Note_on_c, 0, 53, 64
4, 110880, Note_off_c, 0, 53, 64
4, 110880, Note_on_c, 0, 51, 64
4, 111120, Note_off_c, 0, 51, 64
4, 111120, Note_on_c, 0, 50, 64
4, 111360, Note_off_c, 0, 50, 64
4, 111360, Note_on_c, 0, 51, 64
4, 111840, Note_off_c, 0, 51, 64
4, 111840, Note_on_c, 0, 48, 64
4, 112320, Note_off_c, 0, 48, 64
4, 112320, Note_on_c, 0, 60, 64
4, 112800, Note_off_c, 0, 60, 64
4, 112800, Note_on_c, 0, 55, 64
4, 113280, Note_off_c, 0, 55, 64
4, 113280, Note_on_c, 0, 63, 64
4, 113760, Note_off_c, 0, 63, 64
4, 113760, Note_on_c, 0, 60, 64
4, 114240, Note_off_c, 0, 60, 64
4, 114720, Note_on_c, 0, 53, 64
4, 115440, Note_off_c, 0, 53, 64
4, 115440, Note_on_c, 0, 50, 64
4, 115680, Note_off_c, 0, 50, 64
4, 115680, Note_on_c, 0, 51, 64
4, 115920, Note_off_c, 0, 51, 64
4, 115920, Note_on_c, 0, 53, 64
4, 116160, Note_off_c, 0, 53, 64
4, 116160, Note_on_c, 0, 51, 64
4, 116400, Note_off_c, 0, 51, 64
4, 116400, Note_on_c, 0, 50, 64
4, 116640, Note_off_c, 0, 50, 64
4, 116640, Note_on_c, 0, 48, 64
4, 116880, Note_off_c, 0, 48, 64
4, 116880, Note_on_c, 0, 46, 64
4, 117120, Note_off_c, 0, 46, 64
4, 117120, Note_on_c, 0, 45, 64
4, 117360, Note_off_c, 0, 45, 64
4, 117360, Note_on_c, 0, 48, 64
4, 117600, Note_off_c, 0, 48, 64
4, 117600, Note_on_c, 0, 50, 64
4, 117840, Note_off_c, 0, 50, 64
4, 117840, Note_on_c, 0, 51, 64
4, 118080, Note_off_c, 0, 51, 64
4, 118080, Note_on_c, 0, 50, 64
4, 118320, Note_off_c, 0, 50, 64
4, 118320, Note_on_c, 0, 48, 64
4, 118560, Note_off_c, 0, 48, 64
4, 118560, Note_on_c, 0, 46, 64
4, 118800, Note_off_c, 0, 46, 64
4, 118800, Note_on_c, 0, 45, 64
4, 119040, Note_off_c, 0, 45, 64
4, 119040, Note_on_c, 0, 43, 64
4, 119280, Note_off_c, 0, 43, 64
4, 119280, Note_on_c, 0, 47, 64
4, 119520, Note_off_c, 0, 47, 64
4, 119520, Note_on_c, 0, 48, 64
4, 119760, Note_off_c, 0, 48, 64
4, 119760, Note_on_c, 0, 50, 64
4, 120000, Note_off_c, 0, 50, 64
4, 120000, Note_on_c, 0, 48, 64
4, 120240, Note_off_c, 0, 48, 64
4, 120240, Note_on_c, 0, 46, 64
4, 120480, Note_off_c, 0, 46, 64
4, 120480, Note_on_c, 0, 45, 64
4, 120720, Note_off_c, 0, 45, 64
4, 120720, Note_on_c, 0, 43, 64
4, 120960, Note_off_c, 0, 43, 64
4, 120960, Note_on_c, 0, 42, 64
4, 121440, Note_off_c, 0, 42, 64
4, 122400, Note_on_c, 0, 51, 64
4, 122880, Note_off_c, 0, 51, 64
4, 122880, Note_on_c, 0, 41, 64
4, 123120, Note_off_c, 0, 41, 64
4, 123120, Note_on_c, 0, 50, 64
4, 123360, Note_off_c, 0, 50, 64
4, 123360, Note_on_c, 0, 51, 64
4, 123600, Note_off_c, 0, 51, 64
4, 123600, Note_on_c, 0, 53, 64
4, 123840, Note_off_c, 0, 53, 64
4, 123840, Note_on_c, 0, 51, 64
4, 124080, Note_off_c, 0, 51, 64
4, 124080, Note_on_c, 0, 50, 64
4, 124320, Note_off_c, 0, 50, 64
4, 124320, Note_on_c, 0, 48, 64
4, 124560, Note_off_c, 0, 48, 64
4, 124560, Note_on_c, 0, 47, 64
4, 124800, Note_off_c, 0, 47, 64
4, 124800, Note_on_c, 0, 48, 64
4, 125040, Note_off_c, 0, 48, 64
4, 125040, Note_on_c, 0, 50, 64
4, 125280, Note_off_c, 0, 50, 64
4, 125280, Note_on_c, 0, 51, 64
4, 125520, Note_off_c, 0, 51, 64
4, 125520, Note_on_c, 0, 53, 64
4, 125760, Note_off_c, 0, 53, 64
4, 125760, Note_on_c, 0, 55, 64
4, 126000, Note_off_c, 0, 55, 64
4, 126000, Note_on_c, 0, 56, 64
4, 126240, Note_off_c, 0, 56, 64
4, 126240, Note_on_c, 0, 55, 64
4, 126480, Note_off_c, 0, 55, 64
4, 126480, Note_on_c, 0, 53, 64
4, 126720, Note_off_c, 0, 53, 64
4, 126720, Note_on_c, 0, 52, 64
4, 126960, Note_off_c, 0, 52, 64
4, 126960, Note_on_c, 0, 48, 64
4, 127200, Note_off_c, 0, 48, 64
4, 127200, Note_on_c, 0, 50, 64
4, 127440, Note_off_c, 0, 50, 64
4, 127440, Note_on_c, 0, 52, 64
4, 127680, Note_off_c, 0, 52, 64
4, 127680, Note_on_c, 0, 53, 64
4, 128160, Note_off_c, 0, 53, 64
4, 128160, Note_on_c, 0, 41, 64
4, 128640, Note_off_c, 0, 41, 64
4, 128640, Note_on_c, 0, 46, 64
4, 129120, Note_off_c, 0, 46, 64
4, 129120, Note_on_c, 0, 50, 64
4, 129600, Note_off_c, 0, 50, 64
4, 129600, Note_on_c, 0, 51, 64
4, 130080, Note_off_c, 0, 51, 64
4, 130080, Note_on_c, 0, 39, 64
4, 130560, Note_off_c, 0, 39, 64
4, 130560, Note_on_c, 0, 44, 64
4, 131040, Note_off_c, 0, 44, 64
4, 131040, Note_on_c, 0, 48, 64
4, 131520, Note_off_c, 0, 48, 64
4, 131520, Note_on_c, 0, 49, 64
4, 132960, Note_off_c, 0, 49, 64
4, 132960, Note_on_c, 0, 50, 64
4, 133440, Note_off_c, 0, 50, 64
4, 133440, Note_on_c, 0, 51, 64
4, 134880, Note_off_c, 0, 51, 64
4, 134880, Note_on_c, 0, 52, 64
4, 135360, Note_off_c, 0, 52, 64
4, 135360, Note_on_c, 0, 53, 64
4, 136800, Note_off_c, 0, 53, 64
4, 137520, Note_on_c, 0, 61, 64
4, 137760, Note_off_c, 0, 61, 64
4, 137760, Note_on_c, 0, 60, 64
4, 138000, Note_off_c, 0, 60, 64
4, 138000, Note_on_c, 0, 58, 64
4, 138240, Note_off_c, 0, 58, 64
4, 138240, Note_on_c, 0, 56, 64
4, 139440, Note_off_c, 0, 56, 64
4, 139440, Note_on_c, 0, 56, 64
4, 139680, Note_off_c, 0, 56, 64
4, 139680, Note_on_c, 0, 55, 64
4, 139920, Note_off_c, 0, 55, 64
4, 139920, Note_on_c, 0, 53, 64
4, 140160, Note_off_c, 0, 53, 64
4, 140160, Note_on_c, 0, 55, 64
4, 141360, Note_off_c, 0, 55, 64
4, 141360, Note_on_c, 0, 55, 64
4, 141600, Note_off_c, 0, 55, 64
4, 141600, Note_on_c, 0, 53, 64
4, 141840, Note_off_c, 0, 53, 64
4, 141840, Note_on_c, 0, 51, 64
4, 142080, Note_off_c, 0, 51, 64
4, 142080, Note_on_c, 0, 50, 64
4, 143040, Note_off_c, 0, 50, 64
4, 143280, Note_on_c, 0, 52, 64
4, 143520, Note_off_c, 0, 52, 64
4, 143520, Note_on_c, 0, 50, 64
4, 143760, Note_off_c, 0, 50, 64
4, 143760, Note_on_c, 0, 48, 64
4, 144000, Note_off_c, 0, 48, 64
4, 144000, Note_on_c, 0, 53, 64
4, 145200, Note_off_c, 0, 53, 64
4, 145200, Note_on_c, 0, 53, 64
4, 145440, Note_off_c, 0, 53, 64
4, 145440, Note_on_c, 0, 55, 64
4, 145680, Note_off_c, 0, 55, 64
4, 145680, Note_on_c, 0, 56, 64
4, 145920, Note_off_c, 0, 56, 64
4, 145920, Note_on_c, 0, 58, 64
4, 148080, Note_off_c, 0, 58, 64
4, 148080, Note_on_c, 0, 55, 64
4, 148320, Note_off_c, 0, 55, 64
4, 148320, Note_on_c, 0, 56, 64
4, 148560, Note_off_c, 0, 56, 64
4, 148560, Note_on_c, 0, 58, 64
4, 148800, Note_off_c, 0, 58, 64
4, 148800, Note_on_c, 0, 56, 64
4, 149040, Note_off_c, 0, 56, 64
4, 149040, Note_on_c, 0, 55, 64
4, 149280, Note_off_c, 0, 55, 64
4, 149280, Note_on_c, 0, 53, 64
4, 149520, Note_off_c, 0, 53, 64
4, 149520, Note_on_c, 0, 52, 64
4, 149760, Note_off_c, 0, 52, 64
4, 149760, Note_on_c, 0, 53, 64
4, 150000, Note_off_c, 0, 53, 64
4, 150000, Note_on_c, 0, 52, 64
4, 150240, Note_off_c, 0, 52, 64
4, 150240, Note_on_c, 0, 53, 64
4, 150480, Note_off_c, 0, 53, 64
4, 150480, Note_on_c, 0, 55, 64
4, 150720, Note_off_c, 0, 55, 64
4, 150720, Note_on_c, 0, 53, 64
4, 150960, Note_off_c, 0, 53, 64
4, 150960, Note_on_c, 0, 51, 64
4, 151200, Note_off_c, 0, 51, 64
4, 151200, Note_on_c, 0, 50, 64
4, 151440, Note_off_c, 0, 50, 64
4, 151440, Note_on_c, 0, 48, 64
4, 151680, Note_off_c, 0, 48, 64
4, 151680, Note_on_c, 0, 50, 64
4, 151920, Note_off_c, 0, 50, 64
4, 151920, Note_on_c, 0, 57, 64
4, 152160, Note_off_c, 0, 57, 64
4, 152160, Note_on_c, 0, 58, 64
4, 152400, Note_off_c, 0, 58, 64
4, 152400, Note_on_c, 0, 60, 64
4, 152640, Note_off_c, 0, 60, 64
4, 152640, Note_on_c, 0, 58, 64
4, 152880, Note_off_c, 0, 58, 64
4, 152880, Note_on_c, 0, 57, 64
4, 153120, Note_off_c, 0, 57, 64
4, 153120, Note_on_c, 0, 55, 64
4, 153360, Note_off_c, 0, 55, 64
4, 153360, Note_on_c, 0, 54, 64
4, 153600, Note_off_c, 0, 54, 64
4, 153600, Note_on_c, 0, 55, 64
4, 153840, Note_off_c, 0, 55, 64
4, 153840, Note_on_c, 0, 57, 64
4, 154080, Note_off_c, 0, 57, 64
4, 154080, Note_on_c, 0, 58, 64
4, 154320, Note_off_c, 0, 58, 64
4, 154320, Note_on_c, 0, 60, 64
4, 154560, Note_off_c, 0, 60, 64
4, 154560, Note_on_c, 0, 62, 64
4, 154800, Note_off_c, 0, 62, 64
4, 154800, Note_on_c, 0, 63, 64
4, 155040, Note_off_c, 0, 63, 64
4, 155040, Note_on_c, 0, 62, 64
4, 155280, Note_off_c, 0, 62, 64
4, 155280, Note_on_c, 0, 60, 64
4, 155520, Note_off_c, 0, 60, 64
4, 155520, Note_on_c, 0, 59, 64
4, 155760, Note_off_c, 0, 59, 64
4, 155760, Note_on_c, 0, 55, 64
4, 156000, Note_off_c, 0, 55, 64
4, 156000, Note_on_c, 0, 57, 64
4, 156240, Note_off_c, 0, 57, 64
4, 156240, Note_on_c, 0, 59, 64
4, 156480, Note_off_c, 0, 59, 64
4, 156480, Note_on_c, 0, 60, 64
4, 156960, Note_off_c, 0, 60, 64
4, 156960, Note_on_c, 0, 48, 64
4, 157440, Note_off_c, 0, 48, 64
4, 157440, Note_on_c, 0, 53, 64
4, 157920, Note_off_c, 0, 53, 64
4, 157920, Note_on_c, 0, 57, 64
4, 158400, Note_off_c, 0, 57, 64
4, 158400, Note_on_c, 0, 58, 64
4, 158880, Note_off_c, 0, 58, 64
4, 158880, Note_on_c, 0, 46, 64
4, 159360, Note_off_c, 0, 46, 64
4, 159360, Note_on_c, 0, 51, 64
4, 159840, Note_off_c, 0, 51, 64
4, 159840, Note_on_c, 0, 55, 64
4, 160320, Note_off_c, 0, 55, 64
4, 160320, Note_on_c, 0, 56, 64
4, 161760, Note_off_c, 0, 56, 64
4, 161760, Note_on_c, 0, 57, 64
4, 162240, Note_off_c, 0, 57, 64
4, 162240, Note_on_c, 0, 58, 64
4, 163680, Note_off_c, 0, 58, 64
4, 163680, Note_on_c, 0, 59, 64
4, 164160, Note_off_c, 0, 59, 64
4, 164160, Note_on_c, 0, 60, 64
4, 164640, Note_off_c, 0, 60, 64
4, 165120, Note_on_c, 0, 48, 64
4, 166080, Note_off_c, 0, 48, 64
4, 166080, Note_on_c, 0, 52, 64
4, 167040, Note_off_c, 0, 52, 64
4, 167040, Note_on_c, 0, 53, 64
4, 168000, Note_off_c, 0, 53, 64
4, 168000, Note_on_c, 0, 57, 64
4, 168960, Note_off_c, 0, 57, 64
4, 168960, Note_on_c, 0, 46, 64
4, 169920, Note_off_c, 0, 46, 64
4, 169920, Note_on_c, 0, 50, 64
4, 170880, Note_off_c, 0, 50, 64
4, 170880, Note_on_c, 0, 51, 64
4, 171840, Note_off_c, 0, 51, 64
4, 171840, Note_on_c, 0, 55, 64
4, 172800, Note_off_c, 0, 55, 64
4, 172800, Note_on_c, 0, 44, 64
4, 173280, Note_off_c, 0, 44, 64
4, 173280, Note_on_c, 0, 46, 64
4, 173760, Note_off_c, 0, 46, 64
4, 173760, Note_on_c, 0, 48, 64
4, 174240, Note_off_c, 0, 48, 64
4, 174240, Note_on_c, 0, 50, 64
4, 174720, Note_off_c, 0, 50, 64
4, 174720, Note_on_c, 0, 51, 64
4, 175200, Note_off_c, 0, 51, 64
4, 175200, Note_on_c, 0, 53, 64
4, 175680, Note_off_c, 0, 53, 64
4, 175680, Note_on_c, 0, 54, 64
4, 176160, Note_off_c, 0, 54, 64
4, 176160, Note_on_c, 0, 45, 64
4, 176640, Note_off_c, 0, 45, 64
4, 176640, Note_on_c, 0, 46, 64
4, 177120, Note_off_c, 0, 46, 64
4, 177120, Note_on_c, 0, 48, 64
4, 177600, Note_off_c, 0, 48, 64
4, 177600, Note_on_c, 0, 50, 64
4, 178080, Note_off_c, 0, 50, 64
4, 178080, Note_on_c, 0, 52, 64
4, 178560, Note_off_c, 0, 52, 64
4, 178560, Note_on_c, 0, 53, 64
4, 179040, Note_off_c, 0, 53, 64
4, 179040, Note_on_c, 0, 55, 64
4, 179520, Note_off_c, 0, 55, 64
4, 179520, Note_on_c, 0, 56, 64
4, 180000, Note_off_c, 0, 56, 64
4, 180000, Note_on_c, 0, 47, 64
4, 180480, Note_off_c, 0, 47, 64
4, 180480, Note_on_c, 0, 48, 64
4, 181440, Note_off_c, 0, 48, 64
4, 181440, Note_on_c, 0, 51, 64
4, 182400, Note_off_c, 0, 51, 64
4, 182400, Note_on_c, 0, 55, 64
4, 183360, Note_off_c, 0, 55, 64
4, 183360, Note_on_c, 0, 56, 64
4, 184320, Note_off_c, 0, 56, 64
4, 184320, Note_on_c, 0, 47, 64
4, 185280, Note_off_c, 0, 47, 64
4, 185760, Note_on_c, 0, 55, 64
4, 186240, Note_off_c, 0, 55, 64
4, 186240, Note_on_c, 0, 54, 64
4, 187200, Note_off_c, 0, 54, 64
4, 187200, Note_on_c, 0, 53, 64
4, 188160, Note_off_c, 0, 53, 64
4, 188160, Note_on_c, 0, 52, 64
4, 189120, Note_off_c, 0, 52, 64
4, 189120, Note_on_c, 0, 51, 64
4, 190560, Note_off_c, 0, 51, 64
4, 190560, Note_on_c, 0, 50, 64
4, 191040, Note_off_c, 0, 50, 64
4, 191040, Note_on_c, 0, 49, 64
4, 191520, Note_off_c, 0, 49, 64
4, 191520, Note_on_c, 0, 48, 64
4, 192000, Note_off_c, 0, 48, 64
4, 192000, Note_on_c, 0, 47, 64
4, 192480, Note_off_c, 0, 47, 64
4, 192480, Note_on_c, 0, 45, 64
4, 192720, Note_off_c, 0, 45, 64
4, 192720, Note_on_c, 0, 43, 64
4, 192960, Note_off_c, 0, 43, 64
4, 192960, Note_on_c, 0, 48, 64
4, 193440, Note_off_c, 0, 48, 64
4, 193440, Note_on_c, 0, 53, 64
4, 193920, Note_off_c, 0, 53, 64
4, 193920, Note_on_c, 0, 51, 64
4, 194880, Note_off_c, 0, 51, 64
4, 194880, Note_on_c, 0, 51, 64
4, 195000, Note_off_c, 0, 51, 64
4, 195000, Note_on_c, 0, 50, 64
4, 195120, Note_off_c, 0, 50, 64
4, 195120, Note_on_c, 0, 51, 64
4, 195240, Note_off_c, 0, 51, 64
4, 195240, Note_on_c, 0, 50, 64
4, 195360, Note_off_c, 0, 50, 64
4, 195360, Note_on_c, 0, 51, 64
4, 195480, Note_off_c, 0, 51, 64
4, 195480, Note_on_c, 0, 50, 64
4, 195600, Note_off_c, 0, 50, 64
4, 195600, Note_on_c, 0, 49, 64
4, 195720, Note_off_c, 0, 49, 64
4, 195720, Note_on_c, 0, 50, 64
4, 195840, Note_off_c, 0, 50, 64
4, 195840, Note_on_c, 0, 49, 64
4, 196320, Note_off_c, 0, 49, 64
4, 196320, Note_on_c, 0, 47, 64
4, 196560, Note_off_c, 0, 47, 64
4, 196560, Note_on_c, 0, 45, 64
4, 196800, Note_off_c, 0, 45, 64
4, 196800, Note_on_c, 0, 50, 64
4, 197280, Note_off_c, 0, 50, 64
4, 197280, Note_on_c, 0, 55, 64
4, 197760, Note_off_c, 0, 55, 64
4, 197760, Note_on_c, 0, 54, 64
4, 198240, Note_off_c, 0, 54, 64
4, 198240, Note_on_c, 0, 53, 64
4, 198720, Note_off_c, 0, 53, 64
4, 198720, Note_on_c, 0, 52, 64
4, 199200, Note_off_c, 0, 52, 64
4, 199200, Note_on_c, 0, 51, 64
4, 199680, Note_off_c, 0, 51, 64
4, 199680, Note_on_c, 0, 50, 64
4, 204000, Note_off_c, 0, 50, 64
4, 204000, Note_on_c, 0, 50, 64
4, 204480, Note_off_c, 0, 50, 64
4, 204480, Note_on_c, 0, 49, 64
4, 204960, Note_off_c, 0, 49, 64
4, 204960, Note_on_c, 0, 48, 64
4, 205440, Note_off_c, 0, 48, 64
4, 205440, Note_on_c, 0, 47, 64
4, 205680, Note_off_c, 0, 47, 64
4, 205680, Note_on_c, 0, 45, 64
4, 205920, Note_off_c, 0, 45, 64
4, 205920, Note_on_c, 0, 46, 64
4, 206160, Note_off_c, 0, 46, 64
4, 206160, Note_on_c, 0, 55, 64
4, 206400, Note_off_c, 0, 55, 64
4, 206400, Note_on_c, 0, 45, 64
4, 206640, Note_off_c, 0, 45, 64
4, 206640, Note_on_c, 0, 55, 64
4, 206880, Note_off_c, 0, 55, 64
4, 206880, Note_on_c, 0, 50, 64
4, 207120, Note_off_c, 0, 50, 64
4, 207120, Note_on_c, 0, 54, 64
4, 207360, Note_off_c, 0, 54, 64
4, 207360, Note_on_c, 0, 43, 64
4, 207840, Note_off_c, 0, 43, 64
4, 207840, Note_on_c, 0, 58, 64
4, 208320, Note_off_c, 0, 58, 64
4, 208320, Note_on_c, 0, 52, 64
4, 208800, Note_off_c, 0, 52, 64
4, 208800, Note_on_c, 0, 55, 64
4, 209280, Note_off_c, 0, 55, 64
4, 209280, Note_on_c, 0, 48, 64
4, 209760, Note_off_c, 0, 48, 64
4, 209760, Note_on_c, 0, 50, 64
4, 210000, Note_off_c, 0, 50, 64
4, 210000, Note_on_c, 0, 52, 64
4, 210240, Note_off_c, 0, 52, 64
4, 210240, Note_on_c, 0, 53, 64
4, 210480, Note_off_c, 0, 53, 64
4, 210480, Note_on_c, 0, 52, 64
4, 210720, Note_off_c, 0, 52, 64
4, 210720, Note_on_c, 0, 53, 64
4, 211680, Note_off_c, 0, 53, 64
4, 211680, Note_on_c, 0, 56, 64
4, 212160, Note_off_c, 0, 56, 64
4, 212160, Note_on_c, 0, 50, 64
4, 212640, Note_off_c, 0, 50, 64
4, 212640, Note_on_c, 0, 53, 64
4, 213120, Note_off_c, 0, 53, 64
4, 213120, Note_on_c, 0, 46, 64
4, 213600, Note_off_c, 0, 46, 64
4, 213600, Note_on_c, 0, 48, 64
4, 213840, Note_off_c, 0, 48, 64
4, 213840, Note_on_c, 0, 50, 64
4, 214080, Note_off_c, 0, 50, 64
4, 214080, Note_on_c, 0, 51, 64
4, 214320, Note_off_c, 0, 51, 64
4, 214320, Note_on_c, 0, 50, 64
4, 214560, Note_off_c, 0, 50, 64
4, 214560, Note_on_c, 0, 51, 64
4, 215280, Note_off_c, 0, 51, 64
4, 215280, Note_on_c, 0, 50, 64
4, 215520, Note_off_c, 0, 50, 64
4, 215520, Note_on_c, 0, 51, 64
4, 215760, Note_off_c, 0, 51, 64
4, 215760, Note_on_c, 0, 53, 64
4, 216000, Note_off_c, 0, 53, 64
4, 216000, Note_on_c, 0, 51, 64
4, 216240, Note_off_c, 0, 51, 64
4, 216240, Note_on_c, 0, 50, 64
4, 216480, Note_off_c, 0, 50, 64
4, 216480, Note_on_c, 0, 48, 64
4, 216720, Note_off_c, 0, 48, 64
4, 216720, Note_on_c, 0, 47, 64
4, 216960, Note_off_c, 0, 47, 64
4, 216960, Note_on_c, 0, 48, 64
4, 217200, Note_off_c, 0, 48, 64
4, 217200, Note_on_c, 0, 47, 64
4, 217440, Note_off_c, 0, 47, 64
4, 217440, Note_on_c, 0, 48, 64
4, 217680, Note_off_c, 0, 48, 64
4, 217680, Note_on_c, 0, 49, 64
4, 217920, Note_off_c, 0, 49, 64
4, 217920, Note_on_c, 0, 48, 64
4, 218160, Note_off_c, 0, 48, 64
4, 218160, Note_on_c, 0, 46, 64
4, 218400, Note_off_c, 0, 46, 64
4, 218400, Note_on_c, 0, 44, 64
4, 218640, Note_off_c, 0, 44, 64
4, 218640, Note_on_c, 0, 43, 64
4, 218880, Note_off_c, 0, 43, 64
4, 218880, Note_on_c, 0, 44, 64
4, 219360, Note_off_c, 0, 44, 64
4, 219360, Note_on_c, 0, 48, 64
4, 219840, Note_off_c, 0, 48, 64
4, 219840, Note_on_c, 0, 51, 64
4, 220320, Note_off_c, 0, 51, 64
4, 220320, Note_on_c, 0, 53, 64
4, 220800, Note_off_c, 0, 53, 64
4, 220800, Note_on_c, 0, 43, 64
4, 221280, Note_off_c, 0, 43, 64
4, 221280, Note_on_c, 0, 46, 64
4, 221760, Note_off_c, 0, 46, 64
4, 221760, Note_on_c, 0, 50, 64
4, 222240, Note_off_c, 0, 50, 64
4, 222240, Note_on_c, 0, 51, 64
4, 222720, Note_off_c, 0, 51, 64
4, 222720, Note_on_c, 0, 41, 64
4, 223200, Note_off_c, 0, 41, 64
4, 223200, Note_on_c, 0, 44, 64
4, 223680, Note_off_c, 0, 44, 64
4, 223680, Note_on_c, 0, 48, 64
4, 224160, Note_off_c, 0, 48, 64
4, 224160, Note_on_c, 0, 50, 64
4, 224640, Note_off_c, 0, 50, 64
4, 224640, Note_on_c, 0, 39, 64
4, 225120, Note_off_c, 0, 39, 64
4, 225120, Note_on_c, 0, 51, 64
4, 225600, Note_off_c, 0, 51, 64
4, 225600, Note_on_c, 0, 50, 64
4, 226080, Note_off_c, 0, 50, 64
4, 226080, Note_on_c, 0, 49, 64
4, 226560, Note_off_c, 0, 49, 64
4, 226560, Note_on_c, 0, 48, 64
4, 227040, Note_off_c, 0, 48, 64
4, 227040, Note_on_c, 0, 44, 64
4, 227520, Note_off_c, 0, 44, 64
4, 227520, Note_on_c, 0, 43, 64
4, 228000, Note_off_c, 0, 43, 64
4, 228000, Note_on_c, 0, 42, 64
4, 228480, Note_off_c, 0, 42, 64
4, 228480, Note_on_c, 0, 41, 64
4, 228960, Note_off_c, 0, 41, 64
4, 228960, Note_on_c, 0, 53, 64
4, 229440, Note_off_c, 0, 53, 64
4, 229440, Note_on_c, 0, 52, 64
4, 229920, Note_off_c, 0, 52, 64
4, 229920, Note_on_c, 0, 51, 64
4, 230400, Note_off_c, 0, 51, 64
4, 230400, Note_on_c, 0, 50, 64
4, 230880, Note_off_c, 0, 50, 64
4, 230880, Note_on_c, 0, 46, 64
4, 231360, Note_off_c, 0, 46, 64
4, 231360, Note_on_c, 0, 45, 64
4, 231840, Note_off_c, 0, 45, 64
4, 231840, Note_on_c, 0, 44, 64
4, 232320, Note_off_c, 0, 44, 64
4, 232320, Note_on_c, 0, 43, 64
4, 232800, Note_off_c, 0, 43, 64
4, 232800, Note_on_c, 0, 55, 64
4, 233280, Note_off_c, 0, 55, 64
4, 233280, Note_on_c, 0, 54, 64
4, 233760, Note_off_c, 0, 54, 64
4, 233760, Note_on_c, 0, 53, 64
4, 234240, Note_off_c, 0, 53, 64
4, 234240, Note_on_c, 0, 52, 64
4, 234720, Note_off_c, 0, 52, 64
4, 234720, Note_on_c, 0, 51, 64
4, 235680, Note_off_c, 0, 51, 64
4, 235680, Note_on_c, 0, 50, 64
4, 235920, Note_off_c, 0, 50, 64
4, 235920, Note_on_c, 0, 48, 64
4, 236160, Note_off_c, 0, 48, 64
4, 236160, Note_on_c, 0, 47, 64
4, 236400, Note_off_c, 0, 47, 64
4, 236400, Note_on_c, 0, 45, 64
4, 236520, Note_off_c, 0, 45, 64
4, 236520, Note_on_c, 0, 43, 64
4, 236640, Note_off_c, 0, 43, 64
4, 236640, Note_on_c, 0, 48, 64
4, 236880, Note_off_c, 0, 48, 64
4, 236880, Note_on_c, 0, 53, 64
4, 237120, Note_off_c, 0, 53, 64
4, 237120, Note_on_c, 0, 51, 64
4, 237600, Note_off_c, 0, 51, 64
4, 237600, Note_on_c, 0, 50, 64
4, 238080, Note_off_c, 0, 50, 64
4, 238080, Note_on_c, 0, 48, 64
4, 238320, Note_off_c, 0, 48, 64
4, 238320, Note_on_c, 0, 50, 64
4, 238560, Note_off_c, 0, 50, 64
4, 238560, Note_on_c, 0, 51, 64
4, 238800, Note_off_c, 0, 51, 64
4, 238800, Note_on_c, 0, 48, 64
4, 239040, Note_off_c, 0, 48, 64
4, 239040, Note_on_c, 0, 49, 64
4, 239280, Note_off_c, 0, 49, 64
4, 239280, Note_on_c, 0, 50, 64
4, 239520, Note_off_c, 0, 50, 64
4, 239520, Note_on_c, 0, 51, 64
4, 239760, Note_off_c, 0, 51, 64
4, 239760, Note_on_c, 0, 52, 64
4, 240000, Note_off_c, 0, 52, 64
4, 240000, Note_on_c, 0, 53, 64
4, 240240, Note_off_c, 0, 53, 64
4, 240240, Note_on_c, 0, 48, 64
4, 240480, Note_off_c, 0, 48, 64
4, 240480, Note_on_c, 0, 53, 64
4, 240720, Note_off_c, 0, 53, 64
4, 240720, Note_on_c, 0, 51, 64
4, 240960, Note_off_c, 0, 51, 64
4, 240960, Note_on_c, 0, 50, 64
4, 241200, Note_off_c, 0, 50, 64
4, 241200, Note_on_c, 0, 48, 64
4, 241440, Note_off_c, 0, 48, 64
4, 241440, Note_on_c, 0, 49, 64
4, 241680, Note_off_c, 0, 49, 64
4, 241680, Note_on_c, 0, 46, 64
4, 241920, Note_off_c, 0, 46, 64
4, 241920, Note_on_c, 0, 48, 64
4, 243040, Note_off_c, 0, 48, 64
4, 243040, Note_on_c, 0, 46, 64
4, 243200, Note_off_c, 0, 46, 64
4, 243200, Note_on_c, 0, 48, 64
4, 243360, Note_off_c, 0, 48, 64
4, 243360, Note_on_c, 0, 49, 64
4, 243520, Note_off_c, 0, 49, 64
4, 243520, Note_on_c, 0, 48, 64
4, 243680, Note_off_c, 0, 48, 64
4, 243680, Note_on_c, 0, 46, 64
4, 243840, Note_off_c, 0, 46, 64
4, 243840, Note_on_c, 0, 44, 64
4, 244320, Note_off_c, 0, 44, 64
4, 244320, Note_on_c, 0, 48, 64
4, 244800, Note_off_c, 0, 48, 64
4, 244800, Note_on_c, 0, 41, 64
4, 246000, Note_off_c, 0, 41, 64
4, 246000, Note_on_c, 0, 43, 64
4, 246240, Note_off_c, 0, 43, 64
4, 246240, Note_on_c, 0, 44, 64
4, 246480, Note_off_c, 0, 44, 64
4, 246480, Note_on_c, 0, 46, 64
4, 246720, Note_off_c, 0, 46, 64
4, 246720, Note_on_c, 0, 48, 64
4, 246960, Note_off_c, 0, 48, 64
4, 246960, Note_on_c, 0, 44, 64
4, 247200, Note_off_c, 0, 44, 64
4, 247200, Note_on_c, 0, 46, 64
4, 247440, Note_off_c, 0, 46, 64
4, 247440, Note_on_c, 0, 48, 64
4, 247680, Note_off_c, 0, 48, 64
4, 247680, Note_on_c, 0, 49, 64
4, 248160, Note_off_c, 0, 49, 64
4, 248160, Note_on_c, 0, 51, 64
4, 248640, Note_off_c, 0, 51, 64
4, 248640, Note_on_c, 0, 53, 64
4, 248880, Note_off_c, 0, 53, 64
4, 248880, Note_on_c, 0, 51, 64
4, 249120, Note_off_c, 0, 51, 64
4, 249120, Note_on_c, 0, 53, 64
4, 249600, Note_off_c, 0, 53, 64
4, 249600, Note_on_c, 0, 51, 64
4, 249840, Note_off_c, 0, 51, 64
4, 249840, Note_on_c, 0, 41, 64
4, 250080, Note_off_c, 0, 41, 64
4, 250080, Note_on_c, 0, 42, 64
4, 250320, Note_off_c, 0, 42, 64
4, 250320, Note_on_c, 0, 44, 64
4, 250560, Note_off_c, 0, 44, 64
4, 250560, Note_on_c, 0, 46, 64
4, 250800, Note_off_c, 0, 46, 64
4, 250800, Note_on_c, 0, 43, 64
4, 251040, Note_off_c, 0, 43, 64
4, 251040, Note_on_c, 0, 44, 64
4, 251280, Note_off_c, 0, 44, 64
4, 251280, Note_on_c, 0, 46, 64
4, 251520, Note_off_c, 0, 46, 64
4, 251520, Note_on_c, 0, 48, 64
4, 252000, Note_off_c, 0, 48, 64
4, 252000, Note_on_c, 0, 49, 64
4, 252480, Note_off_c, 0, 49, 64
4, 252480, Note_on_c, 0, 51, 64
4, 252720, Note_off_c, 0, 51, 64
4, 252720, Note_on_c, 0, 49, 64
4, 252960, Note_off_c, 0, 49, 64
4, 252960, Note_on_c, 0, 51, 64
4, 253440, Note_off_c, 0, 51, 64
4, 253440, Note_on_c, 0, 49, 64
4, 253680, Note_off_c, 0, 49, 64
4, 253680, Note_on_c, 0, 39, 64
4, 253920, Note_off_c, 0, 39, 64
4, 253920, Note_on_c, 0, 40, 64
4, 254160, Note_off_c, 0, 40, 64
4, 254160, Note_on_c, 0, 42, 64
4, 254400, Note_off_c, 0, 42, 64
4, 254400, Note_on_c, 0, 44, 64
4, 254640, Note_off_c, 0, 44, 64
4, 254640, Note_on_c, 0, 41, 64
4, 254880, Note_off_c, 0, 41, 64
4, 254880, Note_on_c, 0, 43, 64
4, 255120, Note_off_c, 0, 43, 64
4, 255120, Note_on_c, 0, 45, 64
4, 255360, Note_off_c, 0, 45, 64
4, 255360, Note_on_c, 0, 46, 64
4, 255600, Note_off_c, 0, 46, 64
4, 255600, Note_on_c, 0, 44, 64
4, 255840, Note_off_c, 0, 44, 64
4, 255840, Note_on_c, 0, 42, 64
4, 256080, Note_off_c, 0, 42, 64
4, 256080, Note_on_c, 0, 41, 64
4, 256320, Note_off_c, 0, 41, 64
4, 256320, Note_on_c, 0, 40, 64
4, 256560, Note_off_c, 0, 40, 64
4, 256560, Note_on_c, 0, 43, 64
4, 256800, Note_off_c, 0, 43, 64
4, 256800, Note_on_c, 0, 41, 64
4, 257040, Note_off_c, 0, 41, 64
4, 257040, Note_on_c, 0, 39, 64
4, 257280, Note_off_c, 0, 39, 64
4, 257280, Note_on_c, 0, 37, 64
4, 257760, Note_off_c, 0, 37, 64
4, 257760, Note_on_c, 0, 41, 64
4, 258240, Note_off_c, 0, 41, 64
4, 258240, Note_on_c, 0, 46, 64
4, 258720, Note_off_c, 0, 46, 64
4, 258720, Note_on_c, 0, 49, 64
4, 259200, Note_off_c, 0, 49, 64
4, 259200, Note_on_c, 0, 43, 64
4, 259680, Note_off_c, 0, 43, 64
4, 259680, Note_on_c, 0, 48, 64
4, 260400, Note_off_c, 0, 48, 64
4, 260400, Note_on_c, 0, 46, 64
4, 260640, Note_off_c, 0, 46, 64
4, 260640, Note_on_c, 0, 44, 64
4, 260880, Note_off_c, 0, 44, 64
4, 260880, Note_on_c, 0, 43, 64
4, 261120, Note_off_c, 0, 43, 64
4, 261120, Note_on_c, 0, 41, 64
4, 261600, Note_off_c, 0, 41, 64
4, 261600, Note_on_c, 0, 44, 64
4, 262080, Note_off_c, 0, 44, 64
4, 262080, Note_on_c, 0, 49, 64
4, 262560, Note_off_c, 0, 49, 64
4, 262560, Note_on_c, 0, 53, 64
4, 263040, Note_off_c, 0, 53, 64
4, 263040, Note_on_c, 0, 46, 64
4, 263520, Note_off_c, 0, 46, 64
4, 263520, Note_on_c, 0, 51, 64
4, 264240, Note_off_c, 0, 51, 64
4, 264240, Note_on_c, 0, 49, 64
4, 264480, Note_off_c, 0, 49, 64
4, 264480, Note_on_c, 0, 48, 64
4, 264720, Note_off_c, 0, 48, 64
4, 264720, Note_on_c, 0, 46, 64
4, 264960, Note_off_c, 0, 46, 64
4, 264960, Note_on_c, 0, 44, 64
4, 265440, Note_off_c, 0, 44, 64
4, 265440, Note_on_c, 0, 48, 64
4, 265920, Note_off_c, 0, 48, 64
4, 265920, Note_on_c, 0, 53, 64
4, 266400, Note_off_c, 0, 53, 64
4, 266400, Note_on_c, 0, 56, 64
4, 266880, Note_off_c, 0, 56, 64
4, 266880, Note_on_c, 0, 50, 64
4, 267360, Note_off_c, 0, 50, 64
4, 267360, Note_on_c, 0, 55, 64
4, 268080, Note_off_c, 0, 55, 64
4, 268080, Note_on_c, 0, 53, 64
4, 268320, Note_off_c, 0, 53, 64
4, 268320, Note_on_c, 0, 51, 64
4, 268560, Note_off_c, 0, 51, 64
4, 268560, Note_on_c, 0, 50, 64
4, 268800, Note_off_c, 0, 50, 64
4, 268800, Note_on_c, 0, 51, 64
4, 269040, Note_off_c, 0, 51, 64
4, 269040, Note_on_c, 0, 48, 64
4, 269280, Note_off_c, 0, 48, 64
4, 269280, Note_on_c, 0, 46, 64
4, 269520, Note_off_c, 0, 46, 64
4, 269520, Note_on_c, 0, 44, 64
4, 269760, Note_off_c, 0, 44, 64
4, 269760, Note_on_c, 0, 43, 64
4, 270000, Note_off_c, 0, 43, 64
4, 270000, Note_on_c, 0, 41, 64
4, 270240, Note_off_c, 0, 41, 64
4, 270240, Note_on_c, 0, 39, 64
4, 270480, Note_off_c, 0, 39, 64
4, 270480, Note_on_c, 0, 38, 64
4, 270720, Note_off_c, 0, 38, 64
4, 270720, Note_on_c, 0, 36, 64
4, 270960, Note_off_c, 0, 36, 64
4, 270960, Note_on_c, 0, 48, 64
4, 271200, Note_off_c, 0, 48, 64
4, 271200, Note_on_c, 0, 50, 64
4, 271440, Note_off_c, 0, 50, 64
4, 271440, Note_on_c, 0, 51, 64
4, 271680, Note_off_c, 0, 51, 64
4, 271680, Note_on_c, 0, 53, 64
4, 271920, Note_off_c, 0, 53, 64
4, 271920, Note_on_c, 0, 55, 64
4, 272160, Note_off_c, 0, 55, 64
4, 272160, Note_on_c, 0, 56, 64
4, 272400, Note_off_c, 0, 56, 64
4, 272400, Note_on_c, 0, 53, 64
4, 272640, Note_off_c, 0, 53, 64
4, 272640, Note_on_c, 0, 55, 64
4, 273120, Note_off_c, 0, 55, 64
4, 273120, Note_on_c, 0, 43, 64
4, 273600, Note_off_c, 0, 43, 64
4, 273600, Note_on_c, 0, 48, 64
4, 273840, Note_off_c, 0, 48, 64
4, 273840, Note_on_c, 0, 50, 64
4, 274080, Note_off_c, 0, 50, 64
4, 274080, Note_on_c, 0, 51, 64
4, 275040, Note_off_c, 0, 51, 64
4, 275040, Note_on_c, 0, 45, 64
4, 275520, Note_off_c, 0, 45, 64
4, 275520, Note_on_c, 0, 47, 64
4, 275760, Note_off_c, 0, 47, 64
4, 275760, Note_on_c, 0, 48, 64
4, 276000, Note_off_c, 0, 48, 64
4, 276000, Note_on_c, 0, 50, 64
4, 276960, Note_off_c, 0, 50, 64
4, 276960, Note_on_c, 0, 43, 64
4, 277440, Note_off_c, 0, 43, 64
4, 277440, Note_on_c, 0, 45, 64
4, 277680, Note_off_c, 0, 45, 64
4, 277680, Note_on_c, 0, 46, 64
4, 277920, Note_off_c, 0, 46, 64
4, 277920, Note_on_c, 0, 48, 64
4, 278640, Note_off_c, 0, 48, 64
4, 278640, Note_on_c, 0, 45, 64
4, 278880, Note_off_c, 0, 45, 64
4, 278880, Note_on_c, 0, 46, 64
4, 279120, Note_off_c, 0, 46, 64
4, 279120, Note_on_c, 0, 48, 64
4, 279360, Note_off_c, 0, 48, 64
4, 279360, Note_on_c, 0, 46, 64
4, 279600, Note_off_c, 0, 46, 64
4, 279600, Note_on_c, 0, 44, 64
4, 279840, Note_off_c, 0, 44, 64
4, 279840, Note_on_c, 0, 43, 64
4, 280080, Note_off_c, 0, 43, 64
4, 280080, Note_on_c, 0, 42, 64
4, 280320, Note_off_c, 0, 42, 64
4, 280320, Note_on_c, 0, 43, 64
4, 280800, Note_off_c, 0, 43, 64
4, 281760, Note_on_c, 0, 55, 64
4, 282240, Note_off_c, 0, 55, 64
4, 282240, Note_on_c, 0, 56, 64
4, 282720, Note_off_c, 0, 56, 64
4, 282720, Note_on_c, 0, 53, 64
4, 283200, Note_off_c, 0, 53, 64
4, 283200, Note_on_c, 0, 58, 64
4, 284640, Note_off_c, 0, 58, 64
4, 284640, Note_on_c, 0, 55, 64
4, 285120, Note_off_c, 0, 55, 64
4, 285120, Note_on_c, 0, 60, 64
4, 286560, Note_off_c, 0, 60, 64
4, 286560, Note_on_c, 0, 57, 64
4, 287040, Note_off_c, 0, 57, 64
4, 287040, Note_on_c, 0, 62, 64
4, 288960, Note_off_c, 0, 62, 64
4, 288960, Note_on_c, 0, 60, 64
4, 290160, Note_off_c, 0, 60, 64
4, 290160, Note_on_c, 0, 57, 64
4, 290400, Note_off_c, 0, 57, 64
4, 290400, Note_on_c, 0, 58, 64
4, 290640, Note_off_c, 0, 58, 64
4, 290640, Note_on_c, 0, 60, 64
4, 290880, Note_off_c, 0, 60, 64
4, 290880, Note_on_c, 0, 58, 64
4, 291120, Note_off_c, 0, 58, 64
4, 291120, Note_on_c, 0, 57, 64
4, 291360, Note_off_c, 0, 57, 64
4, 291360, Note_on_c, 0, 55, 64
4, 291600, Note_off_c, 0, 55, 64
4, 291600, Note_on_c, 0, 54, 64
4, 291840, Note_off_c, 0, 54, 64
4, 291840, Note_on_c, 0, 55, 64
4, 292080, Note_off_c, 0, 55, 64
4, 292080, Note_on_c, 0, 54, 64
4, 292320, Note_off_c, 0, 54, 64
4, 292320, Note_on_c, 0, 55, 64
4, 292560, Note_off_c, 0, 55, 64
4, 292560, Note_on_c, 0, 57, 64
4, 292800, Note_off_c, 0, 57, 64
4, 292800, Note_on_c, 0, 55, 64
4, 293040, Note_off_c, 0, 55, 64
4, 293040, Note_on_c, 0, 53, 64
4, 293280, Note_off_c, 0, 53, 64
4, 293280, Note_on_c, 0, 51, 64
4, 293520, Note_off_c, 0, 51, 64
4, 293520, Note_on_c, 0, 50, 64
4, 293760, Note_off_c, 0, 50, 64
4, 293760, Note_on_c, 0, 51, 64
4, 294240, Note_off_c, 0, 51, 64
4, 294240, Note_on_c, 0, 48, 64
4, 294720, Note_off_c, 0, 48, 64
4, 294720, Note_on_c, 0, 72, 64
4, 295920, Note_off_c, 0, 72, 64
4, 295920, Note_on_c, 0, 69, 64
4, 296160, Note_off_c, 0, 69, 64
4, 296160, Note_on_c, 0, 70, 64
4, 296400, Note_off_c, 0, 70, 64
4, 296400, Note_on_c, 0, 72, 64
4, 296640, Note_off_c, 0, 72, 64
4, 296640, Note_on_c, 0, 70, 64
4, 296880, Note_off_c, 0, 70, 64
4, 296880, Note_on_c, 0, 69, 64
4, 297120, Note_off_c, 0, 69, 64
4, 297120, Note_on_c, 0, 67, 64
4, 297360, Note_off_c, 0, 67, 64
4, 297360, Note_on_c, 0, 65, 64
4, 297600, Note_off_c, 0, 65, 64
4, 297600, Note_on_c, 0, 64, 64
4, 297840, Note_off_c, 0, 64, 64
4, 297840, Note_on_c, 0, 67, 64
4, 298080, Note_off_c, 0, 67, 64
4, 298080, Note_on_c, 0, 69, 64
4, 298320, Note_off_c, 0, 69, 64
4, 298320, Note_on_c, 0, 70, 64
4, 298560, Note_off_c, 0, 70, 64
4, 298560, Note_on_c, 0, 69, 64
4, 298800, Note_off_c, 0, 69, 64
4, 298800, Note_on_c, 0, 67, 64
4, 299040, Note_off_c, 0, 67, 64
4, 299040, Note_on_c, 0, 66, 64
4, 299280, Note_off_c, 0, 66, 64
4, 299280, Note_on_c, 0, 64, 64
4, 299520, Note_off_c, 0, 64, 64
4, 299520, Note_on_c, 0, 62, 64
4, 299760, Note_off_c, 0, 62, 64
4, 299760, Note_on_c, 0, 66, 64
4, 300000, Note_off_c, 0, 66, 64
4, 300000, Note_on_c, 0, 67, 64
4, 300240, Note_off_c, 0, 67, 64
4, 300240, Note_on_c, 0, 69, 64
4, 300480, Note_off_c, 0, 69, 64
4, 300480, Note_on_c, 0, 67, 64
4, 300720, Note_off_c, 0, 67, 64
4, 300720, Note_on_c, 0, 65, 64
4, 300960, Note_off_c, 0, 65, 64
4, 300960, Note_on_c, 0, 64, 64
4, 301200, Note_off_c, 0, 64, 64
4, 301200, Note_on_c, 0, 62, 64
4, 301440, Note_off_c, 0, 62, 64
4, 301440, Note_on_c, 0, 61, 64
4, 301920, Note_off_c, 0, 61, 64
4, 302880, Note_on_c, 0, 70, 64
4, 303360, Note_off_c, 0, 70, 64
4, 303360, Note_on_c, 0, 60, 64
4, 303600, Note_off_c, 0, 60, 64
4, 303600, Note_on_c, 0, 57, 64
4, 303840, Note_off_c, 0, 57, 64
4, 303840, Note_on_c, 0, 58, 64
4, 304080, Note_off_c, 0, 58, 64
4, 304080, Note_on_c, 0, 60, 64
4, 304320, Note_off_c, 0, 60, 64
4, 304320, Note_on_c, 0, 58, 64
4, 304560, Note_off_c, 0, 58, 64
4, 304560, Note_on_c, 0, 57, 64
4, 304800, Note_off_c, 0, 57, 64
4, 304800, Note_on_c, 0, 55, 64
4, 305040, Note_off_c, 0, 55, 64
4, 305040, Note_on_c, 0, 54, 64
4, 305280, Note_off_c, 0, 54, 64
4, 305280, Note_on_c, 0, 55, 64
4, 305520, Note_off_c, 0, 55, 64
4, 305520, Note_on_c, 0, 53, 64
4, 305760, Note_off_c, 0, 53, 64
4, 305760, Note_on_c, 0, 51, 64
4, 306000, Note_off_c, 0, 51, 64
4, 306000, Note_on_c, 0, 50, 64
4, 306240, Note_off_c, 0, 50, 64
4, 306240, Note_on_c, 0, 48, 64
4, 306480, Note_off_c, 0, 48, 64
4, 306480, Note_on_c, 0, 46, 64
4, 306720, Note_off_c, 0, 46, 64
4, 306720, Note_on_c, 0, 48, 64
4, 306960, Note_off_c, 0, 48, 64
4, 306960, Note_on_c, 0, 50, 64
4, 307200, Note_off_c, 0, 50, 64
4, 307200, Note_on_c, 0, 43, 64
4, 307440, Note_off_c, 0, 43, 64
4, 307440, Note_on_c, 0, 55, 64
4, 307680, Note_off_c, 0, 55, 64
4, 307680, Note_on_c, 0, 54, 64
4, 307920, Note_off_c, 0, 54, 64
4, 307920, Note_on_c, 0, 55, 64
4, 308160, Note_off_c, 0, 55, 64
4, 308160, Note_on_c, 0, 58, 64
4, 308400, Note_off_c, 0, 58, 64
4, 308400, Note_on_c, 0, 62, 64
4, 308640, Note_off_c, 0, 62, 64
4, 308640, Note_on_c, 0, 55, 64
4, 308880, Note_off_c, 0, 55, 64
4, 308880, Note_on_c, 0, 58, 64
4, 309120, Note_off_c, 0, 58, 64
4, 309120, Note_on_c, 0, 60, 64
4, 310080, Note_off_c, 0, 60, 64
4, 310560, Note_on_c, 0, 60, 64
4, 311040, Note_off_c, 0, 60, 64
4, 311040, Note_on_c, 0, 56, 64
4, 311520, Note_off_c, 0, 56, 64
4, 311520, Note_on_c, 0, 60, 64
4, 312000, Note_off_c, 0, 60, 64
4, 312000, Note_on_c, 0, 53, 64
4, 312480, Note_off_c, 0, 53, 64
4, 312480, Note_on_c, 0, 55, 64
4, 312720, Note_off_c, 0, 55, 64
4, 312720, Note_on_c, 0, 56, 64
4, 312960, Note_off_c, 0, 56, 64
4, 312960, Note_on_c, 0, 58, 64
4, 313920, Note_off_c, 0, 58, 64
4, 314400, Note_on_c, 0, 58, 64
4, 314880, Note_off_c, 0, 58, 64
4, 314880, Note_on_c, 0, 55, 64
4, 315360, Note_off_c, 0, 55, 64
4, 315360, Note_on_c, 0, 58, 64
4, 315840, Note_off_c, 0, 58, 64
4, 315840, Note_on_c, 0, 51, 64
4, 316320, Note_off_c, 0, 51, 64
4, 316320, Note_on_c, 0, 53, 64
4, 316560, Note_off_c, 0, 53, 64
4, 316560, Note_on_c, 0, 55, 64
4, 316800, Note_off_c, 0, 55, 64
4, 316800, Note_on_c, 0, 56, 64
4, 317760, Note_off_c, 0, 56, 64
4, 318240, Note_on_c, 0, 50, 64
4, 318720, Note_off_c, 0, 50, 64
4, 318720, Note_on_c, 0, 51, 64
4, 319200, Note_off_c, 0, 51, 64
4, 319200, Note_on_c, 0, 55, 64
4, 319680, Note_off_c, 0, 55, 64
4, 319680, Note_on_c, 0, 48, 64
4, 320160, Note_off_c, 0, 48, 64
4, 320160, Note_on_c, 0, 50, 64
4, 320400, Note_off_c, 0, 50, 64
4, 320400, Note_on_c, 0, 52, 64
4, 320640, Note_off_c, 0, 52, 64
4, 320640, Note_on_c, 0, 53, 64
4, 320880, Note_off_c, 0, 53, 64
4, 320880, Note_on_c, 0, 51, 64
4, 321120, Note_off_c, 0, 51, 64
4, 321120, Note_on_c, 0, 50, 64
4, 321360, Note_off_c, 0, 50, 64
4, 321360, Note_on_c, 0, 53, 64
4, 321600, Note_off_c, 0, 53, 64
4, 321600, Note_on_c, 0, 51, 64
4, 321840, Note_off_c, 0, 51, 64
4, 321840, Note_on_c, 0, 50, 64
4, 322080, Note_off_c, 0, 50, 64
4, 322080, Note_on_c, 0, 48, 64
4, 322320, Note_off_c, 0, 48, 64
4, 322320, Note_on_c, 0, 47, 64
4, 322560, Note_off_c, 0, 47, 64
4, 322560, Note_on_c, 0, 48, 64
4, 323520, Note_off_c, 0, 48, 64
4, 323520, Note_on_c, 0, 51, 64
4, 324480, Note_off_c, 0, 51, 64
4, 324480, Note_on_c, 0, 55, 64
4, 325440, Note_off_c, 0, 55, 64
4, 325440, Note_on_c, 0, 56, 64
4, 326400, Note_off_c, 0, 56, 64
4, 326400, Note_on_c, 0, 47, 64
4, 327360, Note_off_c, 0, 47, 64
4, 327840, Note_on_c, 0, 55, 64
4, 328320, Note_off_c, 0, 55, 64
4, 328320, Note_on_c, 0, 54, 64
4, 329280, Note_off_c, 0, 54, 64
4, 329280, Note_on_c, 0, 53, 64
4, 330240, Note_off_c, 0, 53, 64
4, 330240, Note_on_c, 0, 52, 64
4, 331200, Note_off_c, 0, 52, 64
4, 331200, Note_on_c, 0, 51, 64
4, 332640, Note_off_c, 0, 51, 64
4, 332640, Note_on_c, 0, 50, 64
4, 333120, Note_off_c, 0, 50, 64
4, 333120, Note_on_c, 0, 49, 64
4, 333600, Note_off_c, 0, 49, 64
4, 333600, Note_on_c, 0, 48, 64
4, 334080, Note_off_c, 0, 48, 64
4, 334080, Note_on_c, 0, 47, 64
4, 334560, Note_off_c, 0, 47, 64
4, 334560, Note_on_c, 0, 45, 64
4, 334800, Note_off_c, 0, 45, 64
4, 334800, Note_on_c, 0, 43, 64
4, 335040, Note_off_c, 0, 43, 64
4, 335040, Note_on_c, 0, 48, 64
4, 335520, Note_off_c, 0, 48, 64
4, 335520, Note_on_c, 0, 53, 64
4, 336000, Note_off_c, 0, 53, 64
4, 336000, Note_on_c, 0, 51, 64
4, 336960, Note_off_c, 0, 51, 64
4, 336960, Note_on_c, 0, 51, 64
4, 337080, Note_off_c, 0, 51, 64
4, 337080, Note_on_c, 0, 50, 64
4, 337200, Note_off_c, 0, 50, 64
4, 337200, Note_on_c, 0, 51, 64
4, 337320, Note_off_c, 0, 51, 64
4, 337320, Note_on_c, 0, 50, 64
4, 337440, Note_off_c, 0, 50, 64
4, 337440, Note_on_c, 0, 51, 64
4, 337560, Note_off_c, 0, 51, 64
4, 337560, Note_on_c, 0, 50, 64
4, 337680, Note_off_c, 0, 50, 64
4, 337680, Note_on_c, 0, 48, 64
4, 337800, Note_off_c, 0, 48, 64
4, 337800, Note_on_c, 0, 50, 64
4, 337920, Note_off_c, 0, 50, 64
4, 337920, Note_on_c, 0, 48, 64
4, 340800, Note_off_c, 0, 48, 64
4, 340800, Note_on_c, 0, 46, 64
4, 342720, Note_off_c, 0, 46, 64
4, 342720, Note_on_c, 0, 44, 64
4, 343680, Note_off_c, 0, 44, 64
4, 343680, Note_on_c, 0, 43, 64
4, 348000, Note_off_c, 0, 43, 64
4, 348000, Note_on_c, 0, 43, 64
4, 348480, Note_off_c, 0, 43, 64
4, 348480, Note_on_c, 0, 42, 64
4, 348960, Note_off_c, 0, 42, 64
4, 348960, Note_on_c, 0, 41, 64
4, 349440, Note_off_c, 0, 41, 64
4, 349440, Note_on_c, 0, 40, 64
4, 349680, Note_off_c, 0, 40, 64
4, 349680, Note_on_c, 0, 38, 64
4, 349920, Note_off_c, 0, 38, 64
4, 349920, Note_on_c, 0, 39, 64
4, 350160, Note_off_c, 0, 39, 64
4, 350160, Note_on_c, 0, 48, 64
4, 350400, Note_off_c, 0, 48, 64
4, 350400, Note_on_c, 0, 38, 64
4, 350640, Note_off_c, 0, 38, 64
4, 350640, Note_on_c, 0, 48, 64
4, 350880, Note_off_c, 0, 48, 64
4, 350880, Note_on_c, 0, 43, 64
4, 351120, Note_off_c, 0, 43, 64
4, 351120, Note_on_c, 0, 47, 64
4, 351360, Note_off_c, 0, 47, 64
4, 351360, Note_on_c, 0, 48, 64
4, 351840, Note_off_c, 0, 48, 64
4, 351840, Note_on_c, 0, 44, 64
4, 352320, Note_off_c, 0, 44, 64
4, 352320, Note_on_c, 0, 41, 64
4, 352800, Note_off_c, 0, 41, 64
4, 352800, Note_on_c, 0, 43, 64
4, 353280, Note_off_c, 0, 43, 64
4, 353280, Note_on_c, 0, 36, 64
4, 354240, Note_off_c, 0, 36, 64
4, 354240, End_track
0, 0, End_of_file
